<?xml version="1.0" encoding="utf-8"?>
<!-- Generator: Adobe Illustrator 21.1.0, SVG Export Plug-In . SVG Version: 6.00 Build 0)  -->
<svg version="1.1" id="Layer_1" xmlns="http://www.w3.org/2000/svg" xmlns:xlink="http://www.w3.org/1999/xlink" x="0px" y="0px"
	 viewBox="0 0 74 74" style="enable-background:new 0 0 74 74;" xml:space="preserve">
<style type="text/css">
	.st0{fill:#FFFFFF;}
</style>
<path class="st0" d="M-0.1,36.4C0,36.2,0,36,0,35.8c0.2-7.3,2.5-14,6.7-20C11.1,9.5,17,5,24.2,2.3c2.6-1,5.4-1.7,8.2-2
	C33.8,0.2,35.3,0,36.7,0c1.8,0,3.6,0.2,5.4,0.4c3.1,0.3,6,1.2,8.9,2.4c3.8,1.6,7.3,3.7,10.4,6.4c5.7,5,9.5,11.2,11.5,18.5
	c0.6,2.1,0.9,4.2,1.1,6.4c0.2,2.4,0.2,4.7-0.1,7c-0.7,6.1-2.8,11.7-6.3,16.7c-3.3,4.9-7.6,8.7-12.8,11.6c-3.5,1.9-7.1,3.2-11,3.9
	c-2.2,0.4-4.4,0.6-6.6,0.6c-1.8,0-3.6-0.2-5.3-0.4c-3-0.4-6-1.2-8.8-2.4c-3.7-1.5-7-3.6-10.1-6.2C7.1,60.1,3.2,53.8,1.2,46.3
	c-0.6-2.1-0.9-4.2-1-6.4c0-0.6-0.1-1.2-0.1-1.9c0-0.1-0.1-0.3-0.1-0.4C-0.1,37.2-0.1,36.8-0.1,36.4z M37,71.7
	c19.1,0,34.7-15.5,34.7-34.7C71.7,17.9,56.1,2.4,37,2.4C17.9,2.3,2.3,17.9,2.3,37S17.9,71.7,37,71.7z"/>
<g>
	<path class="st0" d="M55.7,28.6C53.7,22,47.6,18,38.9,17.4c-0.5-1.6-1.3-1.9-1.9-1.9s-1.4,0.4-1.9,1.9C26.4,18,20.3,22,18.3,28.5
		c-0.5,1-0.8,2.3,0.1,2.7c0.2,0.1,0.3,0.1,0.5,0.1c0.7,0,1.2-0.6,1.6-1.2c1.1-0.3,2.4-0.4,4-0.4c2.1,0,3.6,0.2,4.8,0.7
		c0.3,1.1,1,1.4,1.4,1.4c0.5,0,1.1-0.2,1.4-1.4c1.1-0.5,2.7-0.7,4.8-0.7c2.1,0,3.6,0.2,4.8,0.7c0.3,1.1,1,1.4,1.4,1.4
		c0.5,0,1.1-0.2,1.4-1.4c1.1-0.5,2.7-0.7,4.8-0.7c1.6,0,2.9,0.1,4,0.4c0.5,0.8,1.1,1.2,1.6,1.2c0.2,0,0.4,0,0.5-0.1
		C56.5,30.8,56.2,29.5,55.7,28.6z M54.4,29.3l-0.1-0.2L54,29c-1.2-0.4-2.7-0.5-4.6-0.5c-2.5,0-4.3,0.3-5.6,0.9l-0.3,0.1l-0.1,0.3
		c-0.1,0.4-0.2,0.6-0.3,0.7c-0.1-0.1-0.2-0.3-0.3-0.7l-0.1-0.3l-0.3-0.1c-1.4-0.6-3.1-0.9-5.6-0.9c-2.5,0-4.3,0.3-5.7,0.9l-0.3,0.1
		L31,29.9c-0.1,0.5-0.2,0.6-0.2,0.7c0-0.1-0.2-0.2-0.3-0.7l-0.1-0.3l-0.3-0.1c-1.4-0.6-3.1-0.9-5.6-0.9c-1.8,0-3.3,0.2-4.6,0.5
		l-0.2,0.1l-0.1,0.2c-0.2,0.3-0.3,0.5-0.5,0.6c0.1-0.2,0.2-0.6,0.3-0.9c1.9-6.2,7.8-9.9,16.1-10.3l0.5,0l0.1-0.5
		c0.2-0.9,0.5-1.4,0.8-1.4c0.3,0,0.6,0.5,0.8,1.4l0.1,0.5l0.5,0c8.3,0.4,14.2,4.1,16.1,10.4c0.1,0.3,0.2,0.6,0.3,0.8
		C54.7,29.8,54.5,29.6,54.4,29.3z"/>
	<path class="st0" d="M46.9,44.1h-4.5c-0.8-0.6-1.7-0.9-2.7-0.9h-5.3c-1,0-2,0.3-2.7,0.9h-4.5c-2.2,0-4,1.9-4,4.2l2.4,7.1
		c0.1,0.5,0.6,1.4,1.6,1.4h4.4l0.1,0.4c0,0.7,0.8,1.3,1.7,1.3h7.7c0.9,0,1.6-0.5,1.7-1.3l0.1-0.4H47c1,0,1.5-0.9,1.6-1.4l2.4-7.1
		C50.9,46,49.1,44.1,46.9,44.1z M27,55.6c-0.2,0-0.3-0.4-0.4-0.5l-2.3-6.9c0.1-1.5,1.3-2.8,2.7-2.8h3.3c-0.5,0.8-0.8,1.7-0.8,2.8
		l1.6,7.4C31.1,55.6,27,55.6,27,55.6z M40.8,57.2h-7.7c-0.2,0-0.4-0.1-0.4-0.1c0,0,0,0,0,0l-1.9-9c0-2,1.6-3.6,3.5-3.6h5.3
		c1.9,0,3.5,1.6,3.5,3.6l-1.9,9C41.2,57.1,41.1,57.2,40.8,57.2z M47.3,55.1c0,0.1-0.1,0.5-0.4,0.5h-4.1l1.6-7.2l0-0.1
		c0-1-0.3-2-0.8-2.8h3.3c1.5,0,2.7,1.2,2.7,2.8L47.3,55.1z"/>
	<path class="st0" d="M33.4,41.3c1,0.8,2.2,1.3,3.6,1.3s2.6-0.5,3.6-1.3c0.8,1.4,2.4,2.4,4.2,2.4c2.7,0,4.8-2.2,4.8-4.8
		c0-2.7-2.2-4.8-4.8-4.8c-0.9,0-1.7,0.3-2.4,0.7c-0.8-2.1-2.9-3.7-5.3-3.7c-2.4,0-4.5,1.5-5.3,3.7c-0.7-0.4-1.5-0.7-2.4-0.7
		c-2.7,0-4.8,2.2-4.8,4.8c0,2.7,2.2,4.8,4.8,4.8C31,43.8,32.6,42.8,33.4,41.3z M42.7,36.9c0-0.3,0-0.5-0.1-0.8
		c0.6-0.4,1.3-0.7,2.1-0.7c2,0,3.5,1.6,3.5,3.5s-1.6,3.5-3.5,3.5c-1.4,0-2.7-0.9-3.2-2.1C42.3,39.4,42.7,38.2,42.7,36.9z M37,32.4
		c2.5,0,4.5,2,4.5,4.5c0,2.5-2,4.5-4.5,4.5c-2.5,0-4.5-2-4.5-4.5C32.5,34.4,34.5,32.4,37,32.4z M25.7,39c0-2,1.6-3.5,3.5-3.5
		c0.8,0,1.5,0.3,2.1,0.7c0,0.3-0.1,0.5-0.1,0.8c0,1.3,0.5,2.5,1.2,3.5c-0.5,1.2-1.8,2.1-3.2,2.1C27.3,42.5,25.7,40.9,25.7,39z"/>
</g>
</svg>
