<?xml version="1.0" encoding="utf-8"?>
<!-- Generator: Adobe Illustrator 21.1.0, SVG Export Plug-In . SVG Version: 6.00 Build 0)  -->
<svg version="1.1" id="Layer_1" xmlns="http://www.w3.org/2000/svg" xmlns:xlink="http://www.w3.org/1999/xlink" x="0px" y="0px"
	 viewBox="0 0 74 74" style="enable-background:new 0 0 74 74;" xml:space="preserve">
<style type="text/css">
	.st0{fill:#FFFFFF;}
</style>
<path class="st0" d="M-0.1,36.4C0,36.2,0,36,0,35.8c0.2-7.3,2.5-14,6.7-20C11.1,9.5,17,5,24.2,2.3c2.6-1,5.4-1.7,8.2-2
	C33.8,0.2,35.3,0,36.7,0c1.8,0,3.6,0.2,5.4,0.4c3.1,0.3,6,1.2,8.9,2.4c3.8,1.6,7.3,3.7,10.4,6.4c5.7,5,9.5,11.2,11.5,18.5
	c0.6,2.1,0.9,4.2,1.1,6.4c0.2,2.4,0.2,4.7-0.1,7c-0.7,6.1-2.8,11.7-6.3,16.7c-3.3,4.9-7.6,8.7-12.8,11.6c-3.5,1.9-7.1,3.2-11,3.9
	c-2.2,0.4-4.4,0.6-6.6,0.6c-1.8,0-3.6-0.2-5.3-0.4c-3-0.4-6-1.2-8.8-2.4c-3.7-1.5-7-3.6-10.1-6.2C7.1,60.1,3.2,53.8,1.2,46.3
	c-0.6-2.1-0.9-4.2-1-6.4c0-0.6-0.1-1.2-0.1-1.9c0-0.1-0.1-0.3-0.1-0.4C-0.1,37.2-0.1,36.8-0.1,36.4z M37,71.7
	c19.1,0,34.7-15.5,34.7-34.7C71.7,17.9,56.1,2.4,37,2.4C17.9,2.3,2.3,17.9,2.3,37S17.9,71.7,37,71.7z"/>
<g id="Layer_2">
	<g id="ICONS">
		<path class="st0" d="M49.5,31.5h-0.1v-8.3c0-1.5-1.2-2.7-2.7-2.7H16c-1.5,0-2.7,1.2-2.7,2.7v18.6c0,1.5,1.2,2.7,2.7,2.7h10.2
			c-0.3,0.1-0.5,0.4-0.5,0.7c0,1.9,1.4,3.5,3.2,3.7c-0.8,1.4-0.4,3.2,1,4c0.5,0.3,1,0.4,1.5,0.4h18c6,0.1,11.1-4.7,11.2-10.7
			c0.1-6-4.7-11.1-10.7-11.2C49.8,31.5,49.7,31.5,49.5,31.5L49.5,31.5z M16,22h30.6c0.7,0,1.2,0.5,1.2,1.2v2.3H14.8v-2.3
			C14.8,22.6,15.3,22,16,22z M49.5,52h-18c-0.8,0-1.4-0.6-1.4-1.4s0.6-1.4,1.4-1.4h8.5c0.4,0,0.7-0.3,0.7-0.7c0-0.4-0.3-0.7-0.7-0.7
			l0,0H29.5c-1.3,0-2.3-1-2.3-2.3c0-0.3-0.2-0.6-0.5-0.7h15c0.4,0,0.7-0.3,0.7-0.7s-0.3-0.7-0.7-0.7l0,0H16c-0.7,0-1.2-0.5-1.2-1.2
			v-9.3h17.7c0.4,0,0.7-0.3,0.7-0.7s-0.3-0.7-0.7-0.7H14.8v-4h33.1v4.4h-9.2c-1.6,0-2.9,1.3-2.9,2.9s1.3,2.9,2.9,2.9l0,0h5.8
			c0.5,3.4,3.5,5.9,7,5.7c0.4,0,0.7-0.4,0.7-0.8c0-0.4-0.4-0.7-0.8-0.7l0,0c-2.8,0.1-5.3-2.1-5.5-4.8v-0.2c0-0.4-0.3-0.7-0.7-0.7
			h-6.5c-0.8,0-1.4-0.6-1.4-1.4s0.6-1.4,1.4-1.4l0,0h10.9c5.2-0.1,9.6,4,9.7,9.3s-4,9.6-9.3,9.7C49.8,51.9,49.6,51.9,49.5,52
			L49.5,52z"/>
	</g>
</g>
</svg>
