<?xml version="1.0" encoding="utf-8"?>
<!-- Generator: Adobe Illustrator 21.0.0, SVG Export Plug-In . SVG Version: 6.00 Build 0)  -->
<svg version="1.1" id="Layer_1" xmlns="http://www.w3.org/2000/svg" xmlns:xlink="http://www.w3.org/1999/xlink" x="0px" y="0px"
	 viewBox="0 0 74 74" style="enable-background:new 0 0 74 74;" xml:space="preserve">
<style type="text/css">
	.st0{fill:#FFFFFF;}
</style>
<path class="st0" d="M0,36.4c0-0.2,0.1-0.4,0.1-0.6c0.2-7.3,2.5-14,6.7-20C11.2,9.5,17.1,4.9,24.3,2.2c2.6-1,5.4-1.7,8.2-2
	c1.4-0.1,2.9-0.3,4.3-0.3c1.8,0,3.6,0.2,5.4,0.4c3.1,0.3,6,1.2,8.9,2.4c3.8,1.6,7.3,3.7,10.4,6.4c5.7,5,9.5,11.2,11.5,18.5
	c0.6,2.1,0.9,4.2,1.1,6.4c0.2,2.4,0.2,4.7-0.1,7c-0.7,6.1-2.8,11.7-6.3,16.7c-3.3,4.9-7.6,8.7-12.8,11.6c-3.5,1.9-7.1,3.2-11,3.9
	c-2.2,0.4-4.4,0.6-6.6,0.6c-1.8,0-3.6-0.2-5.3-0.4c-3-0.4-6-1.2-8.8-2.4c-3.7-1.5-7-3.6-10.1-6.2C7.2,60,3.2,53.7,1.2,46.2
	c-0.6-2.1-0.9-4.2-1-6.4c0-0.6-0.1-1.2-0.1-1.9c0-0.1-0.1-0.3-0.1-0.4C0,37.1,0,36.7,0,36.4z M37.1,71.6c19.1,0,34.7-15.5,34.7-34.7
	c0-19.1-15.5-34.7-34.6-34.7C18,2.3,2.4,17.8,2.4,36.9C2.4,56,17.9,71.6,37.1,71.6z"/>
<g>
	<path class="st0" d="M34.6,15.8c0.2,0.1,0.5,0.2,0.7,0.3c5.8,2.2,11.5,4.4,17.3,6.6c0.1,0,0.3,0.1,0.4,0.1c0.8,0,1.6,0,2.4,0
		c0.2,0,0.5,0,0.7,0.1c0.6,0.2,0.8,0.7,0.5,1.2c-0.2,0.5-0.6,0.8-1.2,0.8c-0.8,0-1.6,0-2.4,0c-0.2,0-0.2,0.1-0.2,0.2
		c0,2.5,0,5,0,7.5c0,0.2,0,0.2,0.2,0.2c0.4,0,0.9,0,1.3,0c0.5,0,0.8,0.3,0.9,0.7c0.1,0.4-0.1,0.7-0.3,0.9C54.6,34.8,54.3,35,54,35
		c-0.3,0-0.7,0-1,0c-0.1,0-0.2,0-0.2,0.2c0,0.9,0,1.9,0,2.8c0,0.1,0,0.2,0.1,0.2c1.1,1,2.1,1.9,3.2,2.9c0.1,0,0.1,0.1,0.2,0.1
		c0.2,0,0.5,0,0.7,0c0.7,0,1.3,0.6,1.3,1.3c0,1.8,0,3.5,0,5.3c0,0.1-0.1,0.3-0.2,0.4c-0.3,0.4-0.7,0.6-1.1,0.6c-3.5,0-7,0-10.4,0
		c-0.6,0-1-0.5-1-1c0-1.8,0-3.5,0-5.3c0-0.3,0.1-0.6,0.2-0.9c0.1-0.3,0.4-0.5,0.7-0.5c0.3,0,0.7,0,1,0c0.1,0,0.2,0,0.3-0.1
		c0.9-0.9,1.9-1.9,2.8-2.8c0.1-0.1,0.1-0.2,0.1-0.2c0-0.9,0-1.9,0-2.8c0,0,0-0.1,0-0.1c-0.3,0-0.6,0-1,0c-0.4,0-0.7,0-0.9-0.4
		c-0.2-0.4-0.3-0.8-0.1-1.3c0.1-0.2,0.3-0.4,0.5-0.4c0.4,0,0.8,0,1.1,0c0.1,0,0.2,0,0.3,0c0-0.1,0-0.2,0-0.2c0-2.5,0-5,0-7.5
		c0-0.2-0.1-0.2-0.2-0.2c-5,0-10.1,0-15.1,0c-0.2,0-0.2,0.1-0.2,0.3c0,7.8,0,15.5,0,23.3c0,0.1,0,0.2,0.1,0.3c2,2,4.1,4.1,6.1,6.1
		c0.1,0.1,0.2,0.1,0.3,0.1c0.8,0,1.7,0,2.5,0c0.1,0,0.3,0,0.4,0c0.3,0.1,0.5,0.2,0.5,0.5c0.1,0.4,0,0.7-0.1,1.1
		c-0.2,0.3-0.5,0.5-0.8,0.5c-0.8,0-1.7,0-2.5,0c-5.8,0-11.5,0-17.3,0c-0.7,0-1-0.4-1.1-1c-0.1-0.8,0.2-1.1,1-1.1c0.8,0,1.6,0,2.4,0
		c0.1,0,0.2-0.1,0.3-0.1c2-2,3.9-4.1,5.9-6.2c0.1-0.1,0.1-0.2,0.1-0.3c0-0.2,0-0.3,0-0.5c0-7.6,0-15.1,0-22.7c0-0.4,0-0.4-0.4-0.4
		c-3.4,0-6.7,0-10.1,0c-0.3,0-0.3,0-0.3,0.3c0,0.3,0,0.6,0,0.8c0,0.1,0.1,0.2,0.1,0.2c1.1,0.4,1.7,1.2,1.9,2.3
		c0.4,1.7-0.7,3.4-2.3,3.9c-1.9,0.6-3.9-0.7-4.2-2.7c-0.2-1.5,0.5-2.9,1.9-3.4c0.1,0,0.1,0,0.2-0.1c0.3-0.1,0.3,0,0.3-0.4
		c0-0.3,0-0.5,0-0.8c0-0.1-0.1-0.2-0.2-0.2c-0.8,0-1.6,0-2.5,0c-0.7,0-1.2-0.4-1.3-1.1c0,0,0-0.1,0-0.1c0,0,0-0.1,0-0.1
		c0.1-0.5,0.4-0.7,0.9-0.8c0.2,0,0.3,0,0.5,0c0.8,0,1.5,0,2.3,0c0.2,0,0.4,0,0.5-0.1c4.1-2.1,8.3-4.2,12.4-6.3
		c0.3-0.2,0.7-0.4,1-0.6C34.2,15.8,34.4,15.8,34.6,15.8z M56.2,43.2c-0.1,0-0.2,0-0.2,0c-2.7,0-5.4,0-8.1,0c-0.2,0-0.2,0-0.2,0.2
		c0,1,0,2,0,3c0,0.2,0.1,0.2,0.2,0.2c2.7,0,5.4,0,8.1,0c0.2,0,0.2-0.1,0.2-0.2c0-1,0-1.9,0-2.9C56.2,43.4,56.2,43.3,56.2,43.2z
		 M35.2,18.5c0,0.1,0,0.1,0,0.1c0,1.3,0,2.7,0,4c0,0.2,0.1,0.2,0.2,0.2c3.7,0,7.4,0,11.1,0c0.1,0,0.1,0,0.2,0c0,0,0,0,0,0
		C42.8,21.4,39,19.9,35.2,18.5z M24.9,22.8C24.9,22.8,24.9,22.8,24.9,22.8c0.1,0.1,0.1,0.1,0.2,0.1c2.6,0,5.2,0,7.8,0
		c0.2,0,0.2,0,0.2-0.2c0-1.3,0-2.6,0-3.9c0-0.1,0-0.1,0-0.2C30.3,20,27.6,21.4,24.9,22.8z M38.4,55.1c-1.1-1.1-2.2-2.2-3.3-3.3
		c0,0,0,0.1,0,0.1c0,1,0,2,0,2.9c0,0.2,0,0.2,0.2,0.2c1,0,2,0,3,0C38.4,55.1,38.4,55.1,38.4,55.1z M33,51.7c-1,1.1-2,2.3-3.1,3.4
		c0.1,0,0.2,0,0.2,0c0.9,0,1.8,0,2.7,0c0.2,0,0.2-0.1,0.2-0.2c0-1,0-1.9,0-2.9C33.1,51.9,33,51.8,33,51.7z M21.2,30.4
		c0.6,0,1.2-0.6,1.2-1.2c0-0.6-0.6-1.2-1.2-1.2c-0.6,0-1.2,0.6-1.2,1.2C19.9,29.8,20.5,30.4,21.2,30.4z M53.1,41.1
		c-0.4-0.4-0.8-0.8-1.2-1.2c-0.4,0.4-0.8,0.8-1.2,1.2C51.5,41.1,52.3,41.1,53.1,41.1z"/>
</g>
</svg>
