<?xml version="1.0" encoding="utf-8"?>
<!-- Generator: Adobe Illustrator 21.0.0, SVG Export Plug-In . SVG Version: 6.00 Build 0)  -->
<svg version="1.1" id="Layer_1" xmlns="http://www.w3.org/2000/svg" xmlns:xlink="http://www.w3.org/1999/xlink" x="0px" y="0px"
	 viewBox="0 0 74 74" style="enable-background:new 0 0 74 74;" xml:space="preserve">
<style type="text/css">
	.st0{fill:#FFFFFF;}
</style>
<path class="st0" d="M-0.2,36.4c0-0.2,0.1-0.4,0.1-0.6c0.2-7.3,2.5-14,6.7-20C11,9.5,16.9,4.9,24.1,2.2c2.6-1,5.4-1.7,8.2-2
	c1.4-0.1,2.9-0.3,4.3-0.3c1.8,0,3.6,0.2,5.4,0.4c3.1,0.3,6,1.2,8.9,2.4c3.8,1.6,7.3,3.7,10.4,6.4c5.7,5,9.5,11.2,11.5,18.5
	c0.6,2.1,0.9,4.2,1.1,6.4c0.2,2.4,0.2,4.7-0.1,7c-0.7,6.1-2.8,11.7-6.3,16.7c-3.3,4.9-7.6,8.7-12.8,11.6c-3.5,1.9-7.1,3.2-11,3.9
	c-2.2,0.4-4.4,0.6-6.6,0.6c-1.8,0-3.6-0.2-5.3-0.4c-3-0.4-6-1.2-8.8-2.4c-3.7-1.5-7-3.6-10.1-6.2C7,60,3,53.7,1,46.2
	c-0.6-2.1-0.9-4.2-1-6.4c0-0.6-0.1-1.2-0.1-1.9c0-0.1-0.1-0.3-0.1-0.4C-0.2,37.1-0.2,36.7-0.2,36.4z M36.9,71.6
	c19.1,0,34.7-15.5,34.7-34.7C71.6,17.8,56.1,2.2,37,2.2C17.8,2.3,2.2,17.8,2.2,36.9S17.7,71.6,36.9,71.6z"/>
<g>
	<path class="st0" d="M55.6,47.7L54.9,49l-12.8-7.4c0.5-0.9,0.7-1.8,0.7-2.9c0-3.1-2.4-5.7-5.4-6.1V16.3h-3v1.5h1.5v14.9
		c-3,0.4-5.4,3-5.4,6.1c0,0.7,0.1,1.3,0.3,2l-14,8.1l1.5,2.6l1.3-0.7l-0.8-1.3L31.5,42c1.1,1.7,3,2.9,5.2,2.9c1.8,0,3.5-0.8,4.6-2.1
		L55.4,51l1.5-2.6L55.6,47.7z M36.7,43.5c-2.6,0-4.7-2.1-4.7-4.7c0-2.6,2.1-4.7,4.7-4.7c2.6,0,4.7,2.1,4.7,4.7
		C41.4,41.4,39.2,43.5,36.7,43.5z"/>
	<path class="st0" d="M36.7,56c-5,0-9.9-2.1-13.3-5.9l-1.1,1c3.7,4,8.9,6.4,14.4,6.4c5.5,0,10.7-2.3,14.4-6.4l-1.1-1
		C46.5,53.9,41.7,56,36.7,56z"/>
	<path class="st0" d="M54.6,38.1c0,2.1-0.4,4.2-1.1,6.1l1.4,0.5c0.8-2.1,1.2-4.3,1.2-6.6c0-9.4-6.7-17.4-16-19.1l-0.3,1.4
		C48.4,22,54.6,29.4,54.6,38.1z"/>
	<path class="st0" d="M19.8,44.2c-0.7-2-1.1-4-1.1-6.1c0-8.4,6-15.8,14.2-17.5l-0.3-1.4c-8.9,1.9-15.3,9.9-15.3,19
		c0,2.3,0.4,4.5,1.2,6.6L19.8,44.2z"/>
</g>
</svg>
