<?xml version="1.0" encoding="utf-8"?>
<!-- Generator: Adobe Illustrator 21.0.2, SVG Export Plug-In . SVG Version: 6.00 Build 0)  -->
<svg version="1.1" id="Layer_1" xmlns="http://www.w3.org/2000/svg" xmlns:xlink="http://www.w3.org/1999/xlink" x="0px" y="0px"
	 viewBox="0 0 74 74" style="enable-background:new 0 0 74 74;" xml:space="preserve">
<style type="text/css">
	.st0{fill:#006FAF;}
</style>
<title>construction</title>
<g>
	<path class="st0" d="M0.3,36.6c0-0.2,0.1-0.4,0.1-0.6C0.5,28.8,2.8,22,7,16.2C11.2,10,17.3,5.3,24.3,2.7c2.6-1,5.3-1.7,8.1-2
		c1.4-0.1,2.9-0.3,4.3-0.3c1.8,0,3.6,0.2,5.3,0.4c3,0.3,6,1.1,8.8,2.4c3.7,1.5,7.2,3.7,10.3,6.3c5.5,4.8,9.5,11.2,11.4,18.3
		c0.6,2.1,0.9,4.2,1.1,6.3c0.2,2.3,0.2,4.6-0.1,6.9c-0.7,5.9-2.8,11.6-6.2,16.5c-3.2,4.8-7.6,8.7-12.7,11.5
		c-3.4,1.9-7.1,3.2-10.9,3.9c-2.2,0.4-4.3,0.6-6.5,0.6c-1.8,0-3.5-0.2-5.2-0.4c-3-0.4-5.9-1.2-8.7-2.4c-3.6-1.5-7-3.6-10-6.1
		C7.4,60,3.3,53.5,1.4,46.3c-0.6-2.1-0.9-4.2-1-6.3c0-0.6-0.1-1.2-0.1-1.9c0-0.1-0.1-0.3-0.1-0.4L0.3,36.6z M37,71.4
		C56,71.4,71.3,56,71.3,37S56,2.7,37,2.7S2.6,18.1,2.6,37c0,0,0,0,0,0C2.6,56,18,71.4,37,71.4z"/>
	<path class="st0" d="M34.5,16.2c0.2,0.1,0.5,0.2,0.7,0.3c5.7,2.2,11.4,4.4,17.1,6.5c0.1,0,0.3,0.1,0.4,0.1h2.4c0.2,0,0.5,0,0.7,0.1
		c0.4,0.1,0.7,0.5,0.6,0.9c0,0.1-0.1,0.2-0.1,0.3c-0.2,0.5-0.7,0.8-1.2,0.8h-2.4c-0.2,0-0.2,0.1-0.2,0.2v7.4c0,0.2,0,0.2,0.2,0.2H54
		c0.4,0,0.8,0.3,0.9,0.7c0.1,0.3,0,0.7-0.3,0.9c-0.2,0.3-0.5,0.5-0.9,0.6h-1c-0.1,0-0.2,0-0.2,0.2v2.8c0,0.1,0,0.2,0.1,0.2l3.2,2.9
		c0.1,0,0.1,0.1,0.2,0.1h0.7c0.7,0,1.3,0.6,1.3,1.3v5.2c0,0.1-0.1,0.3-0.2,0.4c-0.2,0.4-0.7,0.6-1.1,0.6H46.4c-0.5,0-1-0.4-1-1v-5.2
		c0-0.3,0.1-0.6,0.2-0.9c0.1-0.3,0.4-0.5,0.7-0.5h1c0.1,0,0.2,0,0.3-0.1l2.8-2.8c0.1-0.1,0.1-0.1,0.1-0.2v-2.9h-1
		c-0.4,0-0.7,0-0.9-0.4c-0.2-0.4-0.3-0.9-0.1-1.3c0.1-0.2,0.3-0.4,0.5-0.4h1.4v-7.6c0-0.2-0.1-0.2-0.2-0.2H35.2
		c-0.2,0-0.2,0.1-0.2,0.3v23.1c0,0.1,0,0.2,0.1,0.3l6,6c0.1,0.1,0.2,0.1,0.3,0.1h2.9c0.3,0.1,0.5,0.2,0.5,0.5c0.1,0.4,0,0.7-0.1,1.1
		c-0.2,0.3-0.5,0.5-0.8,0.5H24.3c-0.5,0.1-1-0.3-1.1-0.9c0,0,0-0.1,0-0.1c-0.1-0.8,0.2-1.1,1-1.1h2.4c0.1,0,0.2-0.1,0.3-0.1
		c2-2,3.9-4.1,5.8-6.1c0.1-0.1,0.1-0.2,0.1-0.3v-23c0-0.4,0-0.4-0.4-0.4h-10c-0.3,0-0.3,0-0.3,0.3v0.8c0,0.1,0,0.1,0.1,0.2
		c1,0.3,1.7,1.2,1.9,2.3c0.3,1.7-0.6,3.4-2.3,3.9c-1.7,0.5-3.5-0.5-4.1-2.2c0-0.2-0.1-0.3-0.1-0.5c-0.3-1.4,0.5-2.9,1.9-3.4
		c0.1,0,0.1,0,0.2-0.1c0.3-0.1,0.3,0,0.3-0.4v-0.8c0-0.1-0.1-0.2-0.2-0.2h-2.5c-0.7,0-1.2-0.4-1.3-1.1v-0.2c0.1-0.4,0.5-0.8,0.9-0.8
		h2.8c0.2,0,0.3,0,0.5-0.1c4.1-2.1,8.2-4.2,12.3-6.2c0.3-0.2,0.7-0.4,1-0.6L34.5,16.2z M55.9,43.3h-8.2c-0.2,0-0.2,0-0.2,0.2v3
		c0,0.2,0.1,0.2,0.2,0.2h8c0.2,0,0.2-0.1,0.2-0.2V43.3z M35.1,18.8v4.1c0,0.2,0.1,0.2,0.2,0.2h11.2C42.6,21.7,38.9,20.2,35.1,18.8z
		 M24.9,23.1L24.9,23.1c0.1,0.1,0.1,0.1,0.2,0.1h7.7c0.2,0,0.2,0,0.2-0.2v-4.1C30.2,20.3,27.6,21.7,24.9,23.1z M38.3,55.1L35,51.8v3
		c0,0.2,0,0.2,0.2,0.2L38.3,55.1L38.3,55.1z M32.9,51.7c-1,1.1-2,2.3-3.1,3.4h2.9c0.2,0,0.2-0.1,0.2-0.2V52
		C33,51.9,32.9,51.8,32.9,51.7z M21.2,30.6c0.7,0,1.2-0.5,1.2-1.2c0-0.7-0.5-1.2-1.2-1.2c-0.7,0-1.2,0.5-1.2,1.2l0,0
		c0,0.6,0.5,1.2,1.1,1.2C21.2,30.6,21.2,30.6,21.2,30.6z M52.8,41.2L51.6,40l-1.2,1.2H52.8z"/>
</g>
</svg>
