<?xml version="1.0" encoding="utf-8"?>
<!-- Generator: Adobe Illustrator 21.0.2, SVG Export Plug-In . SVG Version: 6.00 Build 0)  -->
<svg version="1.1" id="Layer_1" xmlns="http://www.w3.org/2000/svg" xmlns:xlink="http://www.w3.org/1999/xlink" x="0px" y="0px"
	 viewBox="0 0 74 74" style="enable-background:new 0 0 74 74;" xml:space="preserve">
<style type="text/css">
	.st0{fill:#006FAF;}
</style>
<g>
	<path class="st0" d="M0.2,36.4c0-0.2,0.1-0.4,0.1-0.6C0.5,28.6,2.7,21.9,6.9,16C11.3,9.8,17.1,5.2,24.2,2.5c2.6-1,5.3-1.7,8.1-2
		c1.4-0.1,2.9-0.3,4.3-0.3c1.8,0,3.6,0.2,5.3,0.4C45,1,47.9,1.9,50.8,3c3.8,1.6,7.2,3.7,10.3,6.3c5.6,5,9.4,11.1,11.4,18.3
		c0.6,2.1,0.9,4.2,1.1,6.3c0.2,2.4,0.2,4.7-0.1,6.9c-0.7,6-2.8,11.6-6.2,16.5c-3.3,4.9-7.5,8.6-12.7,11.5c-3.5,1.9-7,3.2-10.9,3.9
		c-2.2,0.4-4.4,0.6-6.5,0.6c-1.8,0-3.6-0.2-5.2-0.4c-3-0.4-5.9-1.2-8.7-2.4c-3.7-1.5-6.9-3.6-10-6.1c-5.8-4.8-9.8-11-11.8-18.4
		c-0.6-2.1-0.9-4.2-1-6.3c0-0.6-0.1-1.2-0.1-1.9c0-0.1-0.1-0.3-0.1-0.4C0.2,37.1,0.2,36.7,0.2,36.4z M36.9,71.3
		c18.9,0,34.4-15.3,34.4-34.4C71.3,18,55.9,2.5,37,2.5C18,2.6,2.5,18,2.5,36.9S17.9,71.3,36.9,71.3z"/>
	<g>
		<path class="st0" d="M55.4,47.6l-0.7,1.3L42,41.6c0.5-0.9,0.7-1.8,0.7-2.9c0-3.1-2.4-5.6-5.3-6V16.5h-3V18h1.5v14.8
			c-3,0.4-5.3,3-5.3,6c0,0.7,0.1,1.3,0.3,2l-13.9,8l1.5,2.6l1.3-0.7L19,49.4l12.6-7.4c1.1,1.7,3,2.9,5.1,2.9c1.8,0,3.5-0.8,4.6-2.1
			l14,8.1l1.5-2.6L55.4,47.6z M36.7,43.4c-2.6,0-4.7-2.1-4.7-4.7c0-2.6,2.1-4.7,4.7-4.7c2.6,0,4.7,2.1,4.7,4.7S39.2,43.4,36.7,43.4z
			"/>
		<path class="st0" d="M36.7,55.8c-5,0-9.8-2.1-13.2-5.8l-1.1,1c3.7,4,8.8,6.3,14.3,6.3S47.3,55,51,51l-1.1-1
			C46.4,53.7,41.7,55.8,36.7,55.8z"/>
		<path class="st0" d="M54.4,38.1c0,2.1-0.4,4.2-1.1,6l1.4,0.5c0.8-2.1,1.2-4.3,1.2-6.5c0-9.3-6.6-17.2-15.8-18.9l-0.3,1.4
			C48.3,22.1,54.4,29.5,54.4,38.1z"/>
		<path class="st0" d="M20,44.1c-0.7-2-1.1-4-1.1-6c0-8.3,5.9-15.6,14.1-17.3l-0.3-1.4c-8.8,1.9-15.1,9.8-15.1,18.8
			c0,2.3,0.4,4.5,1.2,6.5L20,44.1z"/>
	</g>
</g>
</svg>
