<?xml version="1.0" encoding="utf-8"?>
<!-- Generator: Adobe Illustrator 21.0.2, SVG Export Plug-In . SVG Version: 6.00 Build 0)  -->
<svg version="1.1" id="Layer_1" xmlns="http://www.w3.org/2000/svg" xmlns:xlink="http://www.w3.org/1999/xlink" x="0px" y="0px"
	 viewBox="0 0 74 74" style="enable-background:new 0 0 74 74;" xml:space="preserve">
<style type="text/css">
	.st0{fill:#006FAF;}
</style>
<g>
	<path class="st0" d="M74,34.1c-0.2-2.2-0.5-4.3-1.1-6.4c-2-7.3-5.8-13.5-11.5-18.5C58.3,6.5,54.8,4.4,51,2.8
		c-2.9-1.2-5.8-2.1-8.9-2.4C40.3,0.2,38.5,0,36.7,0c-1.4,0-2.9,0.2-4.3,0.3c-2.8,0.3-5.6,1-8.2,2C17,5,11.1,9.5,6.7,15.8
		c-4.2,6-6.5,12.7-6.7,20c0,0.2,0,0.4-0.1,0.6c0,0.4,0,0.8,0.1,1.2c0,0.1,0.1,0.3,0.1,0.4c0,0.7,0.1,1.3,0.1,1.9
		c0.1,2.2,0.4,4.3,1,6.4c2,7.5,5.9,13.8,11.8,18.6c3.1,2.6,6.4,4.7,10.1,6.2c2.8,1.2,5.8,2,8.8,2.4c1.7,0.2,3.5,0.4,5.3,0.4
		c2.2,0,4.4-0.2,6.6-0.6c3.9-0.7,7.5-2,11-3.9c5.2-2.9,9.5-6.7,12.8-11.6c3.5-5,5.6-10.6,6.3-16.7C74.2,38.8,74.2,36.5,74,34.1z
		 M37,71.7C17.9,71.7,2.3,56.1,2.3,37S17.9,2.3,37,2.4c19.1,0,34.7,15.5,34.7,34.6C71.7,56.2,56.1,71.7,37,71.7z"/>
	<path class="st0" d="M48.7,31.4c-0.1-0.4-0.4-0.7-0.9-0.7c0,0,0,0,0,0c-0.4,0-0.8,0.3-0.9,0.7l-4.1,20L39,16.9
		c0-0.4-0.4-0.7-0.8-0.8c-0.4,0-0.8,0.2-0.9,0.6l-5.6,21.6h-7.3C24,36.4,22.3,35,20.3,35c-2.3,0-4.2,1.9-4.2,4.2
		c0,2.3,1.9,4.2,4.2,4.2c2,0,3.7-1.4,4.1-3.3h7.9c0.4,0,0.7-0.3,0.8-0.6l4.6-17.7l4,35.4c0,0.4,0.4,0.8,0.8,0.8c0,0,0,0,0,0
		c0.4,0,0.8-0.3,0.9-0.7L47.8,36l1,4.8c0.1,0.4,0.4,0.7,0.9,0.7H57v-1.7h-6.7L48.7,31.4z M20.3,41.6c-1.3,0-2.4-1.1-2.4-2.4
		c0-1.3,1.1-2.4,2.4-2.4c1.3,0,2.4,1.1,2.4,2.4C22.7,40.5,21.6,41.6,20.3,41.6z"/>
</g>
</svg>
