<?xml version="1.0" encoding="utf-8"?>
<!-- Generator: Adobe Illustrator 21.0.2, SVG Export Plug-In . SVG Version: 6.00 Build 0)  -->
<svg version="1.1" id="Layer_1" xmlns="http://www.w3.org/2000/svg" xmlns:xlink="http://www.w3.org/1999/xlink" x="0px" y="0px"
	 viewBox="0 0 74 74" style="enable-background:new 0 0 74 74;" xml:space="preserve">
<style type="text/css">
	.st0{fill:#006FAF;}
</style>
<g>
	<path class="st0" d="M74,34.1c-0.2-2.2-0.5-4.3-1.1-6.4c-2-7.3-5.8-13.5-11.5-18.5C58.3,6.5,54.8,4.4,51,2.8
		c-2.9-1.2-5.8-2.1-8.9-2.4C40.3,0.2,38.5,0,36.7,0c-1.4,0-2.9,0.2-4.3,0.3c-2.8,0.3-5.6,1-8.2,2C17,5,11.1,9.5,6.7,15.8
		c-4.2,6-6.5,12.7-6.7,20c0,0.2,0,0.4-0.1,0.6c0,0.4,0,0.8,0.1,1.2c0,0.1,0.1,0.3,0.1,0.4c0,0.7,0.1,1.3,0.1,1.9
		c0.1,2.2,0.4,4.3,1,6.4c2,7.5,5.9,13.8,11.8,18.6c3.1,2.6,6.4,4.7,10.1,6.2c2.8,1.2,5.8,2,8.8,2.4c1.7,0.2,3.5,0.4,5.3,0.4
		c2.2,0,4.4-0.2,6.6-0.6c3.9-0.7,7.5-2,11-3.9c5.2-2.9,9.5-6.7,12.8-11.6c3.5-5,5.6-10.6,6.3-16.7C74.2,38.8,74.2,36.5,74,34.1z
		 M37,71.7C17.9,71.7,2.3,56.1,2.3,37S17.9,2.3,37,2.4c19.1,0,34.7,15.5,34.7,34.6C71.7,56.2,56.1,71.7,37,71.7z"/>
	<path class="st0" d="M49.6,33.2h-0.8v-6.7c0-2.2-1.8-4-4-4.1l-0.4-0.7c-0.5-0.8-0.6-1.5-0.6-2.3l0-0.1c0-2.2-2-4-4.5-4H32
		c-2.6,0-4.5,1.7-4.5,4c0,0.8-0.2,1.6-0.7,2.4l-0.4,0.7c-2.2,0-4,1.9-4,4.1v21c0,2.2,1.8,4,4,4.1l0.4,0.7c0.5,0.9,0.7,1.7,0.6,2.3
		l0,0.1c0,2.2,2,4,4.5,4h7.3c2.6,0,4.5-1.7,4.5-4c0-0.8,0.2-1.6,0.7-2.4l0.4-0.7c2.3,0,4-1.8,4-4v-6.7h0.8c1,0,1.9-0.7,2.1-1.8
		l0-3.8C51.7,34.1,50.8,33.2,49.6,33.2z M29.5,19.3c0-1.1,1.1-2,2.5-2h7.3c1.4,0,2.5,0.9,2.5,2c-0.1,1,0.1,2.1,0.7,3.1H28.7
		C29.2,21.4,29.5,20.3,29.5,19.3z M41.7,54.7c0,1.1-1.1,2-2.5,2h-7.3c-1.4,0-2.5-0.9-2.5-2c0.1-0.9-0.1-2-0.7-3.1h13.8
		C42,52.6,41.7,53.7,41.7,54.7z M46.8,47.6c0,1.1-0.9,2-2.1,2H26.5c-1.1,0-2.1-1-2.1-2.1v-21c0-1.1,1-2.1,2.1-2.1h18.2
		c1.1,0,2.1,1,2.1,2.1v6.7v7.7V47.6z M49.7,38.8c0,0.1-0.1,0.1-0.1,0.1c0,0,0,0,0,0h-0.8v-3.7h0.8c0,0,0.1,0.1,0.1,0.1V38.8z"/>
	<path class="st0" d="M44.9,41.7h-1.4c-0.4,0-0.7,0.2-0.9,0.5l-1,2l-1.4-5.3c-0.1-0.4-0.4-0.7-0.8-0.7c-0.4-0.1-0.8,0.1-1,0.5
		l-1.9,3h-1.6c-0.3,0-0.7,0.2-0.8,0.5l-1.6,2.5l-1.6-5.7c-0.1-0.4-0.4-0.7-0.8-0.7c-0.4-0.1-0.8,0.1-1,0.4l-2.5,3.8h-1
		c-0.6,0-1,0.4-1,1s0.4,1,1,1H27c0.3,0,0.7-0.2,0.8-0.5l1.6-2.5l1.6,5.7c0.1,0.4,0.4,0.7,0.8,0.7c0.1,0,0.1,0,0.2,0
		c0.3,0,0.7-0.2,0.8-0.5l2.5-3.8H37c0.3,0,0.7-0.2,0.8-0.5l1-1.6l1.5,5.6c0.1,0.4,0.5,0.7,0.9,0.7c0.4,0,0.8-0.2,1-0.5l1.9-3.8h0.8
		c0.6,0,1-0.4,1-1S45.5,41.7,44.9,41.7z"/>
	<path class="st0" d="M30.5,28.7h10c0.6,0,1-0.4,1-1s-0.4-1-1-1h-10c-0.6,0-1,0.4-1,1S29.9,28.7,30.5,28.7z"/>
	<path class="st0" d="M40.6,29.5h-2.2c-0.6,0-1,0.4-1,1s0.4,1,1,1h2.2c0.6,0,1-0.4,1-1S41.2,29.5,40.6,29.5z"/>
	<path class="st0" d="M30.5,31.5h5c0.6,0,1-0.4,1-1s-0.4-1-1-1h-5c-0.6,0-1,0.4-1,1S29.9,31.5,30.5,31.5z"/>
	<path class="st0" d="M40.6,32.4h-4.3c-0.6,0-1,0.4-1,1s0.4,1,1,1h4.3c0.6,0,1-0.4,1-1S41.2,32.4,40.6,32.4z"/>
	<path class="st0" d="M30.5,34.4h2.9c0.6,0,1-0.4,1-1s-0.4-1-1-1h-2.9c-0.6,0-1,0.4-1,1S29.9,34.4,30.5,34.4z"/>
</g>
</svg>
