<?xml version="1.0" encoding="utf-8"?>
<!-- Generator: Adobe Illustrator 21.0.2, SVG Export Plug-In . SVG Version: 6.00 Build 0)  -->
<svg version="1.1" id="Layer_1" xmlns="http://www.w3.org/2000/svg" xmlns:xlink="http://www.w3.org/1999/xlink" x="0px" y="0px"
	 viewBox="0 0 74 74" style="enable-background:new 0 0 74 74;" xml:space="preserve">
<style type="text/css">
	.st0{fill:#006FAF;}
</style>
<path class="st0" d="M0.1,36.3c0-0.2,0.1-0.4,0.1-0.6c0.2-7.3,2.5-14,6.7-20C11.3,9.4,17.2,4.9,24.4,2.2c2.6-1,5.4-1.7,8.2-2
	c1.4-0.1,2.9-0.3,4.3-0.3c1.8,0,3.6,0.2,5.4,0.4c3.1,0.3,6,1.2,8.9,2.4c3.8,1.6,7.3,3.7,10.4,6.4c5.7,5,9.5,11.2,11.5,18.5
	c0.6,2.1,0.9,4.2,1.1,6.4c0.2,2.4,0.2,4.7-0.1,7c-0.7,6.1-2.8,11.7-6.3,16.7c-3.3,4.9-7.6,8.7-12.8,11.6c-3.5,1.9-7.1,3.2-11,3.9
	c-2.2,0.4-4.4,0.6-6.6,0.6c-1.8,0-3.6-0.2-5.3-0.4c-3-0.4-6-1.2-8.8-2.4c-3.7-1.5-7-3.6-10.1-6.2C7.3,59.9,3.4,53.6,1.4,46.2
	c-0.6-2.1-0.9-4.2-1-6.4c0-0.6-0.1-1.2-0.1-1.9c0-0.1-0.1-0.3-0.1-0.4C0.1,37.1,0.1,36.7,0.1,36.3z M37.2,71.6
	c19.1,0,34.7-15.5,34.7-34.7c0-19.1-15.5-34.7-34.6-34.7C18.1,2.2,2.5,17.8,2.5,36.9S18.1,71.6,37.2,71.6z"/>
<g>
	<path class="st0" d="M22.6,23c0.1,0,0.2,0,0.2,0c0.5,0.1,0.7,0.4,0.8,0.8c0.3,0.7,0.5,1.5,0.8,2.2s0.8,1.1,1.5,1.2s1.3,0.1,2,0.1
		c0.2,0,0.3,0,0.5,0c9,0,18.1,0,27.1,0c0.3,0,0.7,0,1,0.1c0.6,0.1,0.8,0.4,0.6,0.9c-0.1,0.6-0.4,1.2-0.6,1.8
		c-1.2,2.7-2.3,5.5-3.3,8.2c-0.1,0.3-0.2,0.5-0.3,0.8c-0.3,0.5-0.7,0.8-1.3,0.9c-0.2,0-0.4,0-0.6,0c-7,0-14,0-20.9,0
		c-0.3,0-0.3,0-0.3,0.3c0,0.2,0.1,0.4,0.1,0.6c0.2,0.5,0.4,1,0.6,1.5s0.6,0.7,1.2,0.8c0.4,0,0.8,0.1,1.2,0.1c1.8,0,3.6,0,5.4,0
		c1.1,0,2.2,0,3.3,0c1.9,0,3.8,0,5.7,0c1.1,0,2.1,0,3.2,0.1c1.7,0,3,0.7,4.1,1.9c0.3,0.4,0.7,0.7,0.9,1.2c0.3,0.8,0.2,1.6-0.1,2.4
		c-0.5,1-1.2,1.7-2.3,1.9c-1,0.2-1.8,0.1-2.6-0.5c-0.6-0.4-1-0.9-1.3-1.6c-0.3-0.8-0.3-1.7,0-2.5c0.1-0.2,0.2-0.4,0.3-0.5
		c0.1-0.2,0.2-0.3,0.3-0.5c-6.3,0-12.6,0-19,0c0,0.1,0.1,0.1,0.1,0.2c0.3,0.5,0.5,0.9,0.7,1.4c0.2,0.7,0.1,1.4-0.2,2
		c-0.5,1-1.2,1.7-2.3,1.9c-1,0.2-2,0-2.8-0.6c-0.7-0.5-1.1-1.1-1.2-1.9c-0.2-1.3,0.1-2.4,1.2-3.3c0.4-0.3,0.9-0.5,1.3-0.5
		s0.7,0,1.1-0.1s0.6-0.3,0.5-0.7s-0.2-0.8-0.4-1.1c-2-5.3-3.9-10.6-5.8-15.9c-0.2-0.4-0.3-0.9-0.5-1.3c-0.1-0.2-0.3-0.4-0.6-0.4
		c-0.1,0-0.3,0-0.4,0c-1.1,0-2.1,0-3.2,0c-0.2,0-0.5-0.1-0.6-0.2c-0.3-0.2-0.4-0.5-0.4-0.9c0.1-0.3,0.3-0.5,0.7-0.6
		c0.1,0,0.1,0,0.2,0C19.6,23,21.1,23,22.6,23z M40.3,29c-4.6,0-9.1,0-13.7,0c-0.2,0-0.3,0-0.5,0c-0.3,0-0.4,0.2-0.3,0.5
		c0.1,0.2,0.1,0.4,0.2,0.6c0.9,2.4,1.8,4.9,2.6,7.3c0.1,0.3,0.3,0.5,0.6,0.7c0.3,0.2,0.7,0.2,1.1,0.2c5.9,0,11.7,0,17.6,0
		c0.8,0,1.6,0,2.4,0c0.5,0,0.9-0.2,1.2-0.6c0.1-0.2,0.2-0.4,0.3-0.6c1-2.4,1.9-4.7,2.9-7.1c0.1-0.2,0.1-0.4,0.2-0.6
		c0-0.2,0-0.3-0.2-0.4c-0.3,0-0.5,0-0.7,0C49.4,29,44.8,29,40.3,29z M53.7,47.4c0-0.6-0.3-1.1-0.9-1.4c-0.4-0.2-0.7-0.3-1.1,0
		c0,0-0.1,0-0.1,0.1c-0.6,0.3-1,0.7-1,1.4c0,1.1,0.9,1.8,2,1.6C53.3,48.9,53.7,48.4,53.7,47.4z M29.8,47.5c0-0.2-0.1-0.4-0.1-0.6
		c-0.3-0.8-1.1-1-1.8-0.9c-0.6,0.1-0.9,0.5-1.1,1.1c-0.1,0.2-0.1,0.3-0.1,0.5c0.1,0.5,0.3,0.9,0.6,1.2c0.4,0.4,0.9,0.4,1.4,0.3
		c0.6-0.1,0.9-0.4,1-1C29.7,47.9,29.8,47.7,29.8,47.5z"/>
</g>
</svg>
