<?xml version="1.0" encoding="utf-8"?>
<!-- Generator: Adobe Illustrator 21.0.2, SVG Export Plug-In . SVG Version: 6.00 Build 0)  -->
<svg version="1.1" id="Layer_1" xmlns="http://www.w3.org/2000/svg" xmlns:xlink="http://www.w3.org/1999/xlink" x="0px" y="0px"
	 viewBox="0 0 74 74" style="enable-background:new 0 0 74 74;" xml:space="preserve">
<style type="text/css">
	.st0{fill:#006FAF;}
</style>
<path class="st0" d="M0,36.4c0-0.2,0.1-0.4,0.1-0.6c0.2-7.3,2.5-14,6.7-20C11.2,9.5,17.1,4.9,24.3,2.2c2.6-1,5.4-1.7,8.2-2
	c1.4-0.1,2.9-0.3,4.3-0.3c1.8,0,3.6,0.2,5.4,0.4c3.1,0.3,6,1.2,8.9,2.4c3.8,1.6,7.3,3.7,10.4,6.4c5.7,5,9.5,11.2,11.5,18.5
	c0.6,2.1,0.9,4.2,1.1,6.4c0.2,2.4,0.2,4.7-0.1,7c-0.7,6.1-2.8,11.7-6.3,16.7c-3.3,4.9-7.6,8.7-12.8,11.6c-3.5,1.9-7.1,3.2-11,3.9
	c-2.2,0.4-4.4,0.6-6.6,0.6c-1.8,0-3.6-0.2-5.3-0.4c-3-0.4-6-1.2-8.8-2.4c-3.7-1.5-7-3.6-10.1-6.2C7.2,60,3.2,53.7,1.2,46.2
	c-0.6-2.1-0.9-4.2-1-6.4c0-0.6-0.1-1.2-0.1-1.9c0-0.1-0.1-0.3-0.1-0.4C0,37.1,0,36.7,0,36.4z M37.1,71.6c19.1,0,34.7-15.5,34.7-34.7
	c0-19.1-15.5-34.7-34.6-34.7C18,2.3,2.4,17.8,2.4,36.9S17.9,71.6,37.1,71.6z"/>
<path class="st0" d="M14.5,42.1c0.1,0,0.1,0,0.2,0c1.9,0,3.9,0,5.8,0c0.2,0,0.2,0,0.2-0.2c0-4.9,0-9.7,0-14.6c0-0.1,0-0.1,0-0.2
	s0-0.1,0.1-0.1h0.1c2.6,0,5.1,0,7.7,0c0.2,0,0.2,0,0.2-0.2c0-2,0-4,0-6c0-0.1,0-0.1,0-0.2c0.1,0,0.1,0,0.2,0c5,0,10.1,0,15.1,0
	c0.2,0,0.2,0.1,0.2,0.2c0,2,0,4,0,6c0,0.2,0,0.2,0.2,0.2c2.6,0,5.2,0,7.8,0c0.2,0,0.2,0,0.2,0.2c0,4.9,0,9.7,0,14.6v0.1
	c0,0.2,0,0.2,0.2,0.2c2.1,0,4.3,0,6.4,0c0.2,0,0.2,0,0.2,0.2c0,3.6,0,7.2,0,10.8c0,0.1,0,0.1,0,0.2c-0.1,0-0.1,0-0.2,0
	c-5,0-10.1,0-15.1,0c-0.1,0-0.2,0-0.2-0.2c0-1.5,0-3.1,0-4.6c0-0.2-0.1-0.2-0.2-0.2c-4.5,0-9.1,0-13.6,0c-0.2,0-0.2,0-0.2,0.2
	c0,1.5,0,3.1,0,4.6c0,0.2,0,0.2-0.2,0.2c-5,0-10,0-15.1,0c-0.1,0-0.1,0-0.2,0C14.5,49.6,14.5,45.8,14.5,42.1z M29,29.1
	c-2.1,0-4.1,0-6.1,0c0,0.1,0,0.1,0,0.2c0,4.2,0,8.4,0,12.6c0,0.2,0,0.2,0.2,0.2c2.3,0,4.5,0,6.8,0c0.2,0,0.2,0,0.2,0.2
	c0,1.3,0,2.5,0,3.8c0,0.2,0,0.2,0.2,0.2c4.5,0,9.1,0,13.6,0c0.2,0,0.2,0,0.2-0.2c0-1.3,0-2.5,0-3.8c0-0.2,0-0.2,0.2-0.2c2,0,4,0,6,0
	c0.2,0,0.2,0,0.2-0.2c0-4.2,0-8.4,0-12.7c0-0.1,0-0.1,0-0.2c-2,0-4,0-6,0c0,0.1,0,0.1,0,0.2c0,0.7,0,1.5,0,2.2c0,0.1,0,0.2-0.2,0.2
	c-5,0-10.1,0-15.1,0c-0.1,0-0.1,0-0.2,0C29,30.8,29,30,29,29.1z M22.3,51.4c1.8,0,3.6,0,5.5,0c0.2,0,0.2,0,0.2-0.2
	c0-2.3,0-4.5,0-6.8c0-0.2,0-0.2-0.2-0.2c-3.6,0-7.3,0-10.9,0c-0.2,0-0.2,0-0.2,0.2c0,2.3,0,4.5,0,6.8c0,0.2,0,0.2,0.2,0.2
	C18.7,51.4,20.5,51.4,22.3,51.4z M51.8,44.2c-1.8,0-3.7,0-5.5,0c-0.1,0-0.2,0-0.2,0.2c0,2.3,0,4.6,0,6.8c0,0.2,0,0.2,0.2,0.2
	c3.6,0,7.3,0,10.9,0c0.2,0,0.2,0,0.2-0.2c0-2.3,0-4.5,0-6.8c0-0.2,0-0.2-0.2-0.2C55.4,44.2,53.6,44.2,51.8,44.2z M36.6,29.6
	c1.8,0,3.7,0,5.5,0c0.2,0,0.2,0,0.2-0.2c0-2.2,0-4.3,0-6.5c0-0.2,0-0.2-0.2-0.2c-3.7,0-7.3,0-11,0c-0.2,0-0.2,0-0.2,0.2
	c0,2.2,0,4.3,0,6.5c0,0.2,0,0.2,0.2,0.2C33,29.6,34.8,29.6,36.6,29.6z"/>
</svg>
