<?xml version="1.0" encoding="utf-8"?>
<!-- Generator: Adobe Illustrator 21.0.0, SVG Export Plug-In . SVG Version: 6.00 Build 0)  -->
<svg version="1.1" id="Layer_1" xmlns="http://www.w3.org/2000/svg" xmlns:xlink="http://www.w3.org/1999/xlink" x="0px" y="0px"
	 viewBox="0 0 74 74" style="enable-background:new 0 0 74 74;" xml:space="preserve">
<style type="text/css">
	.st0{fill:none;stroke:#006FAF;stroke-width:2;stroke-miterlimit:10;}
	.st1{fill:#006FAF;}
</style>
<title>Azure_Site_Recovery</title>
<circle class="st0" cx="37.1" cy="37" r="36"/>
<g>
	<g>
		<g>
			<path class="st1" d="M57,17.7c0-0.3-0.3-0.6-0.7-0.7c-3.1-0.4-6.3,0-9.3,1c-3,1-5.7,2.7-7.9,4.9L34,28.1L26.7,29
				c-0.2,0-0.3,0.1-0.4,0.2l-7,7c-0.2,0.2-0.3,0.5-0.2,0.8c0.1,0.3,0.3,0.5,0.6,0.5l5.3,1l1,1l-2.2,1.2c-0.2,0.1-0.4,0.3-0.4,0.6
				s0,0.5,0.2,0.6l8.4,8.4c0.1,0.1,0.3,0.2,0.5,0.2c0,0,0.1,0,0.1,0c0.2,0,0.4-0.2,0.6-0.4l1.2-2.2l1,1l1,5.3
				c0.1,0.3,0.3,0.5,0.5,0.6c0.1,0,0.1,0,0.2,0c0.2,0,0.4-0.1,0.5-0.2l7-7c0.1-0.1,0.2-0.3,0.2-0.4L46,40l5.1-5.1
				c2.2-2.2,3.9-5,4.9-7.9C57,24.1,57.3,20.9,57,17.7z M25.1,37l-3.7-0.7l5.8-5.8l5.1-0.7L25.1,37z M32.4,48.6l-7-7l1.7-0.9l6.2,6.2
				L32.4,48.6z M43.6,46.8l-5.8,5.8L37,48.9l7.2-7.2L43.6,46.8z M50,33.9L36.2,47.6l-9.8-9.8l13.7-13.7c2-2,4.5-3.5,7.1-4.5
				c0.3,1.8,1.2,3.4,2.5,4.7c1.3,1.3,2.9,2.2,4.7,2.5C53.5,29.4,52,31.9,50,33.9z M54.9,25.3c-1.5-0.3-3-1-4.1-2.1
				c-1.1-1.1-1.8-2.5-2.1-4.1c2.2-0.6,4.5-0.8,6.8-0.6C55.7,20.8,55.5,23.1,54.9,25.3z"/>
			<path class="st1" d="M39.4,28.1c-1.8,1.8-1.8,4.7,0,6.5c0.9,0.9,2.1,1.3,3.3,1.3c1.2,0,2.4-0.4,3.3-1.3h0c1.8-1.8,1.8-4.7,0-6.5
				C44.1,26.3,41.2,26.3,39.4,28.1z M44.9,33.5c-1.2,1.2-3.2,1.2-4.4,0c-1.2-1.2-1.2-3.2,0-4.4c0.6-0.6,1.4-0.9,2.2-0.9
				c0.8,0,1.6,0.3,2.2,0.9C46.1,30.4,46.1,32.3,44.9,33.5z"/>
			<path class="st1" d="M27,47.2c-0.3-0.3-0.8-0.3-1.1,0l-6.5,6.5c-0.3,0.3-0.3,0.8,0,1.1c0.1,0.1,0.3,0.2,0.5,0.2
				c0.2,0,0.4-0.1,0.5-0.2l6.5-6.5C27.3,48,27.3,47.5,27,47.2z"/>
			<path class="st1" d="M28,49.3l-2.9,2.9c-0.3,0.3-0.3,0.8,0,1.1c0.1,0.1,0.3,0.2,0.5,0.2s0.4-0.1,0.5-0.2l2.9-2.9
				c0.3-0.3,0.3-0.8,0-1.1C28.8,49,28.3,49,28,49.3z"/>
			<path class="st1" d="M24,53.5c-0.3,0-0.6,0.2-0.7,0.5c-0.1,0.3,0,0.7,0.2,0.9c0.3,0.2,0.6,0.2,0.9,0c0.3-0.2,0.4-0.6,0.3-0.9
				C24.6,53.7,24.3,53.5,24,53.5z"/>
			<path class="st1" d="M24.7,54C24.8,54.1,24.7,54,24.7,54L24.7,54z"/>
			<path class="st1" d="M21.9,55.4l-0.4,0.4c-0.3,0.3-0.3,0.8,0,1.1c0.1,0.1,0.3,0.2,0.5,0.2c0.2,0,0.4-0.1,0.5-0.2l0.4-0.4
				c0.3-0.3,0.3-0.8,0-1.1C22.7,55.1,22.2,55.1,21.9,55.4z"/>
			<path class="st1" d="M21.3,48.7c-0.3-0.3-0.8-0.3-1.1,0l-2.9,2.9c-0.3,0.3-0.3,0.8,0,1.1c0.1,0.1,0.3,0.2,0.5,0.2
				c0.2,0,0.4-0.1,0.5-0.2l2.9-2.9C21.6,49.5,21.6,49,21.3,48.7z"/>
			<path class="st1" d="M22.6,48.4c0.3-0.1,0.5-0.3,0.6-0.7c0-0.3-0.1-0.6-0.4-0.8c-0.3-0.1-0.7-0.1-0.9,0.2
				c-0.2,0.3-0.3,0.7-0.1,0.9c0,0,0,0,0,0c0,0,0,0,0,0C21.9,48.4,22.2,48.5,22.6,48.4z"/>
			<path class="st1" d="M24.5,46.6l0.4-0.4c0.3-0.3,0.3-0.8,0-1.1c-0.3-0.3-0.8-0.3-1.1,0l-0.4,0.4c-0.3,0.3-0.3,0.8,0,1.1
				c0.1,0.1,0.3,0.2,0.5,0.2S24.4,46.7,24.5,46.6z"/>
		</g>
	</g>
</g>
</svg>
