<?xml version="1.0" encoding="utf-8"?>
<!-- Generator: Adobe Illustrator 21.0.2, SVG Export Plug-In . SVG Version: 6.00 Build 0)  -->
<svg version="1.1" id="Layer_1" xmlns="http://www.w3.org/2000/svg" xmlns:xlink="http://www.w3.org/1999/xlink" x="0px" y="0px"
	 viewBox="0 0 74 74" style="enable-background:new 0 0 74 74;" xml:space="preserve">
<style type="text/css">
	.st0{fill:none;stroke:#006FAF;stroke-width:2;stroke-miterlimit:10;}
	.st1{fill:none;}
	.st2{fill:#006FAF;}
</style>
<title>Cloud &amp;amp; Infrastructure Services</title>
<circle class="st0" cx="37" cy="37" r="36"/>
<polygon class="st1" points="37,37.4 37,36.6 37,36.6 "/>
<polygon class="st1" points="37,37.5 37,36.5 37,37.5 "/>
<g>
	<path class="st2" d="M45.1,30.9c1.9,0,3.5-1.6,3.5-3.5c0-1.9-1.6-3.5-3.5-3.5c-1.9,0-3.5,1.6-3.5,3.5
		C41.6,29.3,43.1,30.9,45.1,30.9z"/>
	<path class="st2" d="M53.2,37.8l-1.8-2.4c-0.3-0.4-0.7-1-1-1.3c0,0-1.3-1.7-1.8-2.2c-0.3-0.4-0.7-0.6-1.2-0.6c0,0,0,0,0,0
		c-1,0-4.1,0-4.1,0l-3-1.6c-0.1,0-0.2-0.2-0.3-0.3l-1-3.2c-0.2-0.6-0.8-1-1.4-1c-0.2,0-0.3,0-0.5,0.1c-0.4,0.1-0.7,0.4-0.9,0.7
		c-0.2,0.4-0.2,0.8-0.1,1.1l1,3.2c0.3,0.8,0.9,1.6,1.7,2l3.3,1.7l0.5,5.7l-0.4,4.4c0,0.5-0.1,1.3,0,1.8l0.2,4.3c0,0,0,0,0,0H22.3
		V22.8c0-0.5-0.4-0.9-0.9-0.9c-0.5,0-0.9,0.4-0.9,0.9v27.9c0,0.8,0.6,1.4,1.4,1.4h29.2c0.5,0,0.9-0.4,0.9-0.9c0-0.4-0.3-0.8-0.7-0.9
		c0-0.1,0-0.3,0-0.4l-2.2-10.3c0,0,0-0.2,0-0.2L48.9,37c0,0.1,0.1,0.1,0.1,0.1l1.8,2.4c0.3,0.4,0.7,0.6,1.2,0.6
		c0.3,0,0.6-0.1,0.9-0.3c0.3-0.2,0.5-0.6,0.6-1C53.5,38.5,53.4,38.1,53.2,37.8z M45.5,45.9c0-0.4,0-1,0-1.4l0.3-3.3h0.5l1.9,9.1
		h-2.6c0,0,0-0.1,0-0.1L45.5,45.9z"/>
	<path class="st2" d="M22.9,42.4c0.1,0.1,0.3,0.1,0.4,0.1c0.3,0,0.6-0.2,0.8-0.5l1.7-3.3l1.8,2.2c0.3,0.4,0.7,0.5,1.1,0.5
		c0.4-0.1,0.8-0.3,1-0.8l6.4-14.6c0.2-0.4,0-1-0.5-1.2c-0.4-0.2-1,0-1.2,0.5l-6,13.8L26.7,37c-0.3-0.3-0.7-0.5-1.1-0.5
		c-0.4,0-0.8,0.3-1,0.7l-2.1,4C22.3,41.7,22.5,42.2,22.9,42.4z"/>
</g>
</svg>
