<?xml version="1.0" encoding="utf-8"?>
<!-- Generator: Adobe Illustrator 21.0.2, SVG Export Plug-In . SVG Version: 6.00 Build 0)  -->
<svg version="1.1" id="Layer_1" xmlns="http://www.w3.org/2000/svg" xmlns:xlink="http://www.w3.org/1999/xlink" x="0px" y="0px"
	 viewBox="0 0 74 74" style="enable-background:new 0 0 74 74;" xml:space="preserve">
<style type="text/css">
	.st0{fill:none;stroke:#006FAF;stroke-width:2;stroke-miterlimit:10;}
	.st1{fill:none;stroke:#006FAF;stroke-width:2;stroke-linecap:round;stroke-miterlimit:10;}
	.st2{fill:none;stroke:#006FAF;stroke-miterlimit:10;}
	.st3{fill:#006FAF;}
</style>
<title>user-experience</title>
<circle class="st0" cx="37" cy="37" r="36"/>
<line class="st1" x1="52.3" y1="37" x2="58.3" y2="37"/>
<g>
	<circle class="st0" cx="37" cy="37" r="18.3"/>
	<line class="st1" x1="15.3" y1="37" x2="21.7" y2="37"/>
	<line class="st1" x1="37.1" y1="21.5" x2="37.1" y2="15.1"/>
	<line class="st1" x1="37.1" y1="58.9" x2="37.1" y2="52.5"/>
	<g>
		<path class="st2" d="M32.6,32.4h0.5c0.3,2.8,2,5,4.1,5c2.1,0,3.8-2.2,4.1-5h0.5c0.3,0,0.5-0.2,0.5-0.5V31c0-0.3-0.2-0.6-0.5-0.6
			h-0.1c-0.2-1.4-0.8-2.7-1.8-3.5l-1.1,3.3l0.4-3.9c-0.5-0.3-1-0.4-1.5-0.5c-0.1,0-0.3,0-0.4,0c-0.3,0-0.5,0-0.8,0.1
			c-0.3,0.1-0.7,0.2-1,0.4l0.4,3.9l-1.2-3.4c-1,0.8-1.7,2-1.8,3.6h-0.2c-0.3,0-0.5,0.3-0.5,0.6v0.9C32,32.2,32.3,32.4,32.6,32.4z
			 M40.2,32.4c-0.2,2.3-1.5,4-3,4c-1.5,0-2.8-1.8-3-4H40.2z"/>
		<rect x="32.2" y="44.5" class="st3" width="1.1" height="1.1"/>
		<rect x="41.2" y="44.5" class="st3" width="1.1" height="1.1"/>
		<path class="st2" d="M31.2,43.7h12v4.4h3.5v-3c0-2.8-1.5-5.2-3.9-6.4v4.3h-2.2v-5C40.5,38,40.3,38,40,38c-0.8,0.6-1.8,1-2.9,1
			s-2.1-0.4-2.9-1c-0.2,0-0.4,0-0.6,0.1v5h-2.1v-4.4c-2.4,1.1-4.2,3.6-4.2,6.5v3h3.7L31.2,43.7L31.2,43.7z"/>
	</g>
</g>
</svg>
