<?xml version="1.0" encoding="utf-8"?>
<!-- Generator: Adobe Illustrator 21.0.2, SVG Export Plug-In . SVG Version: 6.00 Build 0)  -->
<svg version="1.1" id="Layer_1" xmlns="http://www.w3.org/2000/svg" xmlns:xlink="http://www.w3.org/1999/xlink" x="0px" y="0px"
	 viewBox="0 0 74 74" style="enable-background:new 0 0 74 74;" xml:space="preserve">
<style type="text/css">
	.st0{fill:none;stroke:#006FAF;stroke-width:2;stroke-miterlimit:10;}
	.st1{fill:#006FAF;}
</style>
<title>deliver-contemporary-immersive-software-solutions</title>
<circle class="st0" cx="37" cy="37" r="36"/>
<g>
	<path class="st1" d="M41.5,39.4c-0.3-0.3-0.8-0.3-1.1,0l-0.9,0.9l-0.9-0.9c-0.3-0.3-0.8-0.4-1.1-0.1s-0.4,0.8-0.1,1.1l0.1,0.1
		l0.9,0.9l-0.9,0.9c-0.3,0.3-0.3,0.8,0,1.1l0,0c0.3,0.3,0.8,0.3,1.1,0l0.9-0.9l0.9,0.9c0.3,0.3,0.8,0.4,1.1,0.1s0.4-0.8,0.1-1.1
		l-0.1-0.1l-0.9-0.9l0.9-0.9C41.8,40.2,41.8,39.7,41.5,39.4z"/>
	<path class="st1" d="M27.1,33.1L27.1,33.1c0.3,0.3,0.8,0.3,1.1,0l0.9-0.9l0.9,0.9c0.3,0.3,0.8,0.2,1.1-0.1c0.3-0.3,0.3-0.7,0-1
		l-0.9-0.9l0.9-0.9c0.3-0.3,0.3-0.8,0-1.1c-0.1-0.1-0.3-0.2-0.5-0.2l0,0c-0.2,0-0.4,0.1-0.5,0.2L29.2,30l-0.9-0.9
		c-0.3-0.3-0.8-0.4-1.1-0.1s-0.4,0.8-0.1,1.1l0.1,0.1l0.9,0.9l-1,0.9C26.8,32.3,26.8,32.8,27.1,33.1L27.1,33.1z"/>
	<path class="st1" d="M49.8,22H24.3C23,22,22,23,22,24.3v25.5c0,1.2,1,2.3,2.3,2.3h1.5c0.4,0,0.8-0.3,0.9-0.7s-0.3-0.8-0.7-0.9
		c-0.1,0-0.1,0-0.2,0h-1.5c-0.4,0-0.7-0.3-0.7-0.7l0,0V24.3c0-0.4,0.3-0.7,0.7-0.7l0,0h25.5c0.4,0,0.7,0.3,0.7,0.7l0,0v25.5
		c0,0.4-0.3,0.7-0.7,0.7l0,0H28.5v-11c0-1.7,1.4-3.1,3.2-3.1c1.7,0,3.1,1.4,3.1,3.1v3c0,2.6,2.1,4.7,4.7,4.7c2.6,0,4.7-2.1,4.7-4.7
		v-8.9l1.6,1.6c0.3,0.3,0.8,0.3,1.1,0s0.3-0.8,0-1.1L44,31.2c-0.2-0.2-0.6-0.3-0.8-0.2c-0.1,0-0.2,0.1-0.3,0.2l-3,2.9
		c-0.3,0.3-0.3,0.8,0,1.1s0.8,0.3,1.1,0l0,0l1.6-1.6v8.9c0,1.7-1.4,3.1-3.2,3.1c-1.7,0-3.1-1.4-3.1-3.1v-3c0-2.6-2.1-4.7-4.7-4.7
		s-4.7,2.1-4.7,4.7v11.8c0,0.4,0.3,0.8,0.8,0.8h22c1.2,0,2.3-1,2.3-2.3V24.3C52,23,51,22,49.8,22z"/>
	<path class="st1" d="M48.8,42.8L48.8,42.8c-0.3-0.3-0.8-0.3-1.1,0l-0.9,0.9l-0.9-0.9c-0.3-0.3-0.8-0.3-1.1,0s-0.3,0.8,0,1.1
		l0.9,0.9l-0.9,0.9c-0.3,0.3-0.3,0.8,0,1.1l0,0c0.3,0.3,0.8,0.3,1.1,0l0.9-0.9l0.9,0.9c0.3,0.3,0.8,0.4,1.1,0.1s0.4-0.8,0.1-1.1
		l-0.1-0.1l-0.9-0.9l0.9-0.9C49.1,43.6,49.1,43.1,48.8,42.8z"/>
	<path class="st1" d="M30.1,48.8c0.3,0.3,0.8,0.3,1.1,0l0.9-0.9l0.9,0.9c0.3,0.3,0.8,0.4,1.1,0.1s0.4-0.8,0.1-1.1l-0.1-0.1l-0.9-0.9
		l0.9-0.9c0.3-0.3,0.3-0.8,0-1.1s-0.8-0.3-1.1,0l-0.9,0.9l-0.9-0.9c-0.1-0.1-0.3-0.2-0.5-0.2l0,0c-0.4,0-0.8,0.4-0.8,0.8
		c0,0.2,0.1,0.4,0.2,0.5l0.9,0.9l-0.9,0.9C29.8,48,29.8,48.5,30.1,48.8L30.1,48.8z"/>
	<path class="st1" d="M46.1,27.7c0-1.5-1.2-2.7-2.7-2.7s-2.7,1.2-2.7,2.7s1.2,2.7,2.7,2.7S46.1,29.2,46.1,27.7L46.1,27.7z
		 M44.6,27.7c0,0.7-0.5,1.2-1.2,1.2s-1.2-0.5-1.2-1.2s0.5-1.2,1.2-1.2l0,0C44,26.5,44.6,27,44.6,27.7z"/>
</g>
</svg>
