<?xml version="1.0" encoding="utf-8"?>
<!-- Generator: Adobe Illustrator 21.0.2, SVG Export Plug-In . SVG Version: 6.00 Build 0)  -->
<svg version="1.1" id="Layer_1" xmlns="http://www.w3.org/2000/svg" xmlns:xlink="http://www.w3.org/1999/xlink" x="0px" y="0px"
	 viewBox="0 0 74 74" style="enable-background:new 0 0 74 74;" xml:space="preserve">
<style type="text/css">
	.st0{fill:none;stroke:#006FAF;stroke-width:2;stroke-miterlimit:10;}
	.st1{fill:#006FAF;}
</style>
<title>Cloud &amp;amp; Infrastructure Services</title>
<circle class="st0" cx="37" cy="37" r="36"/>
<g>
	<g>
		<path class="st1" d="M50.2,21h0.9c0.5,0,0.9,0.4,0.9,0.9v30.9c0,1.8-1.5,3.3-3.3,3.3H25.9c-0.5,0-0.9-0.4-0.9-0.9v-0.9h1.8v0h22
			c0.8,0,1.5-0.7,1.5-1.5V21.9h0V21L50.2,21z M44.3,47.1h-8v-1.8h8V47.1L44.3,47.1z M44.3,43.5h-8v-1.8h8V43.5L44.3,43.5z M44.3,40
			h-8v-1.8h8V40L44.3,40z M44.3,36.4h-8v-1.8h8V36.4L44.3,36.4z M33.3,19.8v8.6c0,0.5-0.4,0.9-0.9,0.9h-8.6v22h23.5V19.8H33.3
			L33.3,19.8z M31.5,27.5V21L25,27.5H31.5L31.5,27.5z M48.1,53H22.9c-0.5,0-0.9-0.4-0.9-0.9V28.4c0-0.2,0.1-0.5,0.3-0.6l9.5-9.5
			c0.2-0.2,0.4-0.3,0.6-0.3v0h15.7c0.5,0,0.9,0.4,0.9,0.9v33.3C49,52.6,48.6,53,48.1,53L48.1,53z"/>
		<path class="st1" d="M30.8,46.7v-0.9c0-0.2,0.1-0.3,0.3-0.4c1.6-0.4,2.4-1.5,2.4-2.8c0-1.4-0.7-2.2-2.5-2.9
			c-1.3-0.5-1.8-0.8-1.8-1.3c0-0.4,0.3-0.9,1.3-0.9c0.8,0,1.4,0.2,1.8,0.4c0.1,0,0.2,0,0.3,0c0.1-0.1,0.2-0.1,0.2-0.2l0.3-1
			c0.1-0.2,0-0.4-0.2-0.5c-0.4-0.2-0.9-0.3-1.6-0.4c-0.2,0-0.4-0.2-0.4-0.4V35c0-0.2-0.2-0.4-0.4-0.4h-0.7c-0.2,0-0.4,0.2-0.4,0.4
			v0.8c0,0.2-0.1,0.3-0.3,0.4c-1.5,0.4-2.3,1.4-2.3,2.7c0,1.5,1.1,2.2,2.7,2.8c1.1,0.4,1.6,0.7,1.6,1.3c0,0.6-0.6,0.9-1.5,0.9
			c-0.8,0-1.5-0.2-2.1-0.5c-0.1,0-0.2,0-0.3,0c-0.1,0.1-0.2,0.1-0.2,0.2l-0.3,1c0,0.2,0,0.4,0.2,0.4c0.5,0.2,1.2,0.4,2,0.5
			c0.2,0,0.3,0.2,0.3,0.4v0.7c0,0.2,0.2,0.4,0.4,0.4h0.7C30.7,47.1,30.8,46.9,30.8,46.7L30.8,46.7z"/>
		<polygon class="st1" points="39.1,22.7 41.7,22.7 41.7,25.3 44.3,25.3 44.3,27.9 41.7,27.9 41.7,30.5 39.1,30.5 39.1,27.9 
			36.6,27.9 36.6,25.3 39.1,25.3 		"/>
	</g>
</g>
</svg>
