<?xml version="1.0" encoding="utf-8"?>
<!-- Generator: Adobe Illustrator 21.1.0, SVG Export Plug-In . SVG Version: 6.00 Build 0)  -->
<svg version="1.1" xmlns="http://www.w3.org/2000/svg" xmlns:xlink="http://www.w3.org/1999/xlink" x="0px" y="0px"
	 viewBox="0 0 74 74" style="enable-background:new 0 0 74 74;" xml:space="preserve">
<style type="text/css">
	.st0{fill:none;stroke:#006FAF;stroke-width:2;stroke-miterlimit:10;}
	.st1{fill:#006FAF;}
	.st2{fill:none;stroke:#006FAF;stroke-width:1.5;stroke-miterlimit:10;}
	.st3{fill:none;stroke:#006FAF;stroke-width:0.5;stroke-miterlimit:10;}
	.st4{fill:#006FAF;stroke:#006FAF;stroke-width:0.5;stroke-miterlimit:10;}
	.st5{fill:none;stroke:#006FAF;stroke-width:0.75;stroke-miterlimit:10;}
	.st6{fill:none;stroke:#006FAF;stroke-miterlimit:10;}
	.st7{fill:#006FAF;stroke:#006FAF;stroke-width:0.25;stroke-miterlimit:10;}
	.st8{fill:none;stroke:#006FAF;stroke-width:0.25;stroke-miterlimit:10;}
</style>
<g id="iot-connected-platform-deployment">
	<g id="Layer_13">
	</g>
</g>
<g id="core-iot-services">
</g>
<g id="Application-and-business-logic">
</g>
<g id="Device-connectivity-and-_security">
</g>
<g id="Device-management">
</g>
<g id="User-management">
</g>
<g id="Connected-products_1_">
</g>
<g id="Connected-systems_1_">
</g>
<g id="Data-driven-connected-business_1_">
</g>
<g id="Azure-iot-hub_1_">
</g>
<g id="Expertise-and-experience_1_">
</g>
<g id="Domain-and-_subject">
	<circle class="st0" cx="37.1" cy="37" r="36"/>
	<g transform="translate(0,-988.36216)">
		<path class="st7" d="M30.4,1009.4c-0.2,0-0.3,0-0.5,0c-6.1,0.3-10.9,5.3-10.9,11.4c0,6.1,4.8,11.1,10.9,11.4c0.1,0,0.1,0,0.2,0v3
			h-0.6c-0.5,0-0.9,0.4-0.9,0.9v1.8c0,0.5,0.4,0.9,0.9,0.9h1.8c0.5,0,0.9-0.4,0.9-0.9v-0.6h6.1c0.2,4.5,3.8,8.1,8.4,8.1
			c4.6,0,8.4-3.8,8.4-8.4c0-4.5-3.6-8.2-8.1-8.4v-6.1h0.6c0.5,0,0.9-0.4,0.9-0.9v-1.8c0-0.5-0.4-0.9-0.9-0.9h-1.8
			c-0.5,0-0.9,0.4-0.9,0.9v0.6l-3,0c-0.2-6-4.9-10.8-10.9-11.1C30.8,1009.4,30.6,1009.4,30.4,1009.4z M30.1,1010v5.3h-3
			c0.2-0.8,0.4-1.6,0.6-2.2c0.4-1,0.8-1.8,1.3-2.3C29.4,1010.3,29.8,1010.1,30.1,1010z M30.7,1010c0.4,0.1,0.7,0.3,1.1,0.7
			c0.5,0.5,0.9,1.3,1.3,2.3c0.2,0.7,0.5,1.4,0.6,2.2h-3V1010z M28.6,1010.3C28.6,1010.3,28.6,1010.3,28.6,1010.3
			c-0.6,0.6-1,1.5-1.4,2.5c-0.3,0.7-0.5,1.6-0.7,2.4h-2.4c0.3-0.8,0.7-1.5,1.1-2.2C26.2,1011.7,27.3,1010.8,28.6,1010.3z
			 M32.2,1010.3c1.3,0.5,2.4,1.4,3.4,2.8c0.4,0.6,0.8,1.4,1.1,2.2h-2.4c-0.2-0.9-0.4-1.7-0.7-2.4
			C33.2,1011.8,32.8,1010.9,32.2,1010.3C32.2,1010.3,32.2,1010.3,32.2,1010.3z M26.9,1010.6c-0.8,0.6-1.5,1.3-2.1,2.2
			c-0.5,0.7-1,1.6-1.3,2.5h-2.3C22.4,1013.1,24.4,1011.4,26.9,1010.6z M34,1010.6c2.4,0.8,4.4,2.5,5.7,4.7h-2.3
			c-0.4-0.9-0.8-1.8-1.3-2.5C35.5,1011.9,34.7,1011.1,34,1010.6z M20.8,1015.9h2.5c-0.5,1.4-0.7,3-0.8,4.6l-2.9,0
			C19.7,1018.8,20.1,1017.3,20.8,1015.9z M23.9,1015.9h2.5c-0.3,1.4-0.4,3-0.4,4.6l-2.9,0C23.1,1018.8,23.4,1017.3,23.9,1015.9z
			 M27,1015.9h3.1v4.6l-3.5,0C26.6,1018.8,26.8,1017.3,27,1015.9z M30.7,1015.9h3.1c0.3,1.4,0.4,2.9,0.4,4.6l-3.5,0V1015.9z
			 M34.4,1015.9h2.5c0.5,1.4,0.8,2.9,0.8,4.6l-2.9,0C34.8,1018.8,34.7,1017.3,34.4,1015.9z M37.6,1015.9H40c0.7,1.4,1.1,2.9,1.2,4.6
			l-2.9,0C38.3,1018.8,38,1017.3,37.6,1015.9z M45.7,1019.6h1.8c0.2,0,0.3,0.1,0.3,0.3v1.8c0,0.2-0.1,0.3-0.3,0.3h-1.8
			c-0.2,0-0.3-0.1-0.3-0.3v-1.8C45.4,1019.7,45.6,1019.6,45.7,1019.6z M44.8,1021.1v0.6c0,0.5,0.4,0.9,0.9,0.9h0.6v6.1
			c-4.4,0.2-7.9,3.7-8.1,8.1h-6.1v-0.6c0-0.5-0.4-0.9-0.9-0.9h-0.6v-3c0.1,0,0.1,0,0.2,0c6-0.3,10.7-5.1,10.9-11.1L44.8,1021.1z
			 M41.2,1021.1c0,1.7-0.5,3.2-1.2,4.6h-2.5c0.5-1.4,0.7-3,0.8-4.6L41.2,1021.1z M37.7,1021.1c0,1.7-0.3,3.2-0.8,4.6h-2.5
			c0.3-1.4,0.4-3,0.4-4.6L37.7,1021.1z M34.2,1021.1c0,1.7-0.2,3.2-0.4,4.6h-3.1v-4.6L34.2,1021.1z M30.1,1021.1v4.6H27
			c-0.3-1.4-0.4-3-0.4-4.6L30.1,1021.1z M26,1021.1c0,1.6,0.2,3.2,0.4,4.6h-2.5c-0.5-1.4-0.8-2.9-0.8-4.6L26,1021.1z M22.5,1021.1
			c0,1.6,0.3,3.2,0.8,4.6h-2.5c-0.7-1.4-1.1-2.9-1.2-4.6L22.5,1021.1z M21.1,1026.3h2.3c0.4,0.9,0.8,1.8,1.3,2.5
			c0.6,0.9,1.3,1.6,2.1,2.2C24.4,1030.1,22.4,1028.5,21.1,1026.3z M24.1,1026.3h2.4c0.2,0.9,0.4,1.7,0.7,2.4c0.4,1,0.8,1.9,1.4,2.5
			c0,0,0,0,0,0c-1.3-0.5-2.4-1.4-3.4-2.8C24.8,1027.8,24.4,1027.1,24.1,1026.3z M27.2,1026.3h3v5.3c-0.4-0.1-0.7-0.3-1.1-0.7
			c-0.5-0.5-0.9-1.3-1.3-2.3C27.5,1027.9,27.3,1027.1,27.2,1026.3z M30.7,1026.3h3c-0.2,0.8-0.4,1.6-0.6,2.2c-0.4,1-0.8,1.8-1.3,2.3
			c-0.4,0.4-0.7,0.6-1.1,0.7V1026.3z M34.3,1026.3h2.4c-0.3,0.8-0.7,1.5-1.1,2.2c-0.9,1.3-2.1,2.3-3.4,2.8c0,0,0,0,0,0
			c0.5-0.6,1-1.4,1.4-2.5C33.9,1028,34.1,1027.2,34.3,1026.3z M37.4,1026.3h2.3c-1.3,2.2-3.3,3.8-5.7,4.7c0.8-0.6,1.5-1.3,2.1-2.2
			C36.6,1028.1,37,1027.2,37.4,1026.3z M46.6,1029.2c4.3,0,7.8,3.5,7.8,7.8c0,2.5-1.2,4.7-3.1,6.2v-4.5c0-1.3-1-2.3-2.3-2.3h-0.6
			c-0.1,0-0.2,0.1-0.3,0.2l-0.4,1.2l-0.2-0.7c0.1-0.1,0.3-0.2,0.4-0.4c0.2-0.3,0.3-0.6,0.3-0.9c0.9-0.6,1.5-1.5,1.5-2.7
			c0-1.7-1.4-3.1-3.1-3.1s-3.1,1.4-3.1,3.1c0,1.1,0.6,2.1,1.5,2.7c0,0.4,0.1,0.7,0.3,1c0.1,0.1,0.2,0.3,0.4,0.3l-0.2,0.7l-0.4-1.2
			c0-0.1-0.2-0.2-0.3-0.2h-0.6h0c-1.3,0-2.3,1-2.3,2.3v4.5c-1.9-1.4-3.1-3.6-3.1-6.2C38.8,1032.7,42.3,1029.2,46.6,1029.2z
			 M46.6,1030.7c1.4,0,2.5,1.1,2.5,2.5c0,1.4-1.1,2.5-2.5,2.5c-1.4,0-2.5-1.1-2.5-2.5C44.1,1031.8,45.2,1030.7,46.6,1030.7z
			 M29.5,1035.8h1.8c0.2,0,0.3,0.1,0.3,0.3v1.8c0,0.2-0.1,0.3-0.3,0.3h-1.8c-0.2,0-0.3-0.1-0.3-0.3v-1.8
			C29.2,1035.9,29.3,1035.8,29.5,1035.8z M45.6,1036.2c0.3,0.1,0.6,0.2,1,0.2c0.3,0,0.7-0.1,1-0.2c0,0.1-0.1,0.2-0.1,0.3
			c-0.1,0.2-0.3,0.2-0.3,0.3h-1c-0.1,0-0.2-0.1-0.3-0.2C45.7,1036.4,45.7,1036.3,45.6,1036.2z M44.2,1037h0.3l1.8,5.3
			c0.1,0.2,0.2,0.2,0.4,0.2c0.1,0,0.2-0.1,0.2-0.2l1.8-5.3h0.3c0.9,0,1.7,0.7,1.7,1.7v4.9c-1.2,0.7-2.6,1.2-4.1,1.2
			c-1.5,0-2.9-0.4-4.1-1.2v-4.9C42.5,1037.8,43.2,1037,44.2,1037z M46.2,1037.3H47l0.5,1.5l-0.9,2.5l-0.9-2.5L46.2,1037.3z"/>
	</g>
</g>
</svg>
