<?xml version="1.0" encoding="utf-8"?>
<!-- Generator: Adobe Illustrator 21.0.2, SVG Export Plug-In . SVG Version: 6.00 Build 0)  -->
<svg version="1.1" id="Layer_1" xmlns="http://www.w3.org/2000/svg" xmlns:xlink="http://www.w3.org/1999/xlink" x="0px" y="0px"
	 viewBox="0 0 74 74" style="enable-background:new 0 0 74 74;" xml:space="preserve">
<style type="text/css">
	.st0{fill:none;stroke:#006FAF;stroke-width:2;stroke-miterlimit:10;}
	.st1{fill:#006FAF;}
	.st2{fill:none;stroke:#FFFFFF;stroke-width:2;stroke-miterlimit:10;}
	.st3{fill:none;}
	.st4{fill-rule:evenodd;clip-rule:evenodd;fill:none;stroke:#FFFFFF;stroke-width:2;stroke-miterlimit:10;}
	.st5{fill:#FFFFFF;}
	.st6{fill:#FFFFFF;stroke:#FFFFFF;stroke-width:2;stroke-miterlimit:10;}
	.st7{fill:none;stroke:#FFFFFF;stroke-width:2;stroke-linejoin:round;}
</style>
<circle class="st0" cx="37" cy="37" r="36"/>
<g>
	<polygon class="st1" points="52,21.3 52,55 22,55 22,21.3 29.7,21.3 29.7,23.7 24.4,23.7 24.4,52.7 49.6,52.7 49.6,23.7 44.3,23.7 
		44.3,21.3 	"/>
	<path class="st1" d="M35.6,32.4l4.1,4.1c-2.3,2.3-5.9,2.3-8.1,0c-2.3-2.3-2.3-5.9,0-8.1c2.3-2.3,5.9-2.3,8.1,0L35.6,32.4z"/>
	<path class="st1" d="M38.8,32.4l4.1-4.1c1.1,1.1,1.7,2.5,1.7,4.1c0,1.5-0.6,3-1.7,4.1L38.8,32.4z"/>
	<path class="st1" d="M42.6,22.3v1.4c0,0.4-0.3,0.6-0.6,0.6h-9.3c-0.4,0-0.6-0.3-0.6-0.6v-1.4c0-0.4,0.3-0.6,0.6-0.6h2
		c0-1,0.5-1.8,1.3-2.3c0.8-0.5,1.8-0.5,2.7,0c0.8,0.5,1.3,1.4,1.3,2.3h2c0.2,0,0.3,0.1,0.5,0.2C42.5,21.9,42.6,22.1,42.6,22.3z"/>
	<rect x="29.3" y="46.4" class="st1" width="1.7" height="3.4"/>
	<rect x="36.2" y="44.7" class="st1" width="1.7" height="5.1"/>
	<rect x="40" y="42.9" class="st1" width="1.7" height="7"/>
	<rect x="43.4" y="41.5" class="st1" width="1.7" height="8.4"/>
	<rect x="32.9" y="40.5" class="st1" width="1.7" height="9.4"/>
</g>
</svg>
