<?xml version="1.0" encoding="utf-8"?>
<!-- Generator: Adobe Illustrator 21.0.2, SVG Export Plug-In . SVG Version: 6.00 Build 0)  -->
<svg version="1.1" id="Layer_1" xmlns="http://www.w3.org/2000/svg" xmlns:xlink="http://www.w3.org/1999/xlink" x="0px" y="0px"
	 viewBox="0 0 74 74" style="enable-background:new 0 0 74 74;" xml:space="preserve">
<style type="text/css">
	.st0{fill:none;stroke:#006FAF;stroke-width:2;stroke-miterlimit:10;}
	.st1{fill:none;}
	.st2{fill:#006FAF;}
</style>
<title>Cloud &amp;amp; Infrastructure Services</title>
<circle class="st0" cx="37" cy="37" r="36"/>
<polygon class="st1" points="11.2,48.8 11.2,45.1 8.2,47 "/>
<polygon class="st1" points="63.9,45.1 63.9,48.8 66.9,47 "/>
<g>
	<path class="st1" d="M36.6,56.4c0.3,0.2,0.6,0.3,1,0.3c0.4,0,0.7-0.1,1-0.3c-0.4,0-0.9,0-1.3,0C37,56.4,36.8,56.4,36.6,56.4z"/>
	<path class="st2" d="M64,46.5l-7.5-4.6v3.8h-6.2c-0.3-1.3-1.1-2.6-2.5-3.7l-1.1,1.4c0.9,0.7,1.9,1.8,1.9,3.1c0,1.2-0.8,2.4-2.2,3.4
		c-1.8,1.3-4.7,2.2-7.9,2.5c-0.6,0-1.2,0.1-1.8,0.1c-0.4,0-0.9,0-1.3,0c-3.2-0.2-6-1-7.9-2.2c-1.6-1-2.6-2.3-2.6-3.6
		c0-1.4,1-2.5,1.9-3.1L25.8,42c-1.4,1.1-2.2,2.3-2.5,3.7h-5.8v-3.8L10,46.5l7.5,4.6v-3.8h5.8c0.4,1.9,1.9,3.6,4.3,4.8
		c2.3,1.2,5.3,1.9,8.7,2c0.2,0,0.4,0,0.5,0c0.4,0,0.7,0,1.1,0c3.4-0.1,6.4-1,8.6-2.2c2.1-1.2,3.5-2.8,3.9-4.5h6.2v3.8L64,46.5z
		 M15.8,48l-2.4-1.5l2.4-1.5V48z M58.2,45l2.4,1.5L58.2,48V45z"/>
	<path class="st1" d="M35.4,36.1c0.6,0,1.2-0.6,1.2-1.2v-2.5c0-0.4-0.2-0.6-0.4-0.9c-0.2-0.2-0.5-0.4-0.9-0.4
		c-0.6,0-1.2,0.6-1.2,1.2c0,0,0,2.5,0.1,2.6C34.2,35.6,34.8,36.1,35.4,36.1z"/>
	<path class="st1" d="M42.4,39.6h-2.5c-0.4,0-0.8,0.3-0.8,0.8v2.4c0,0.4,0.3,0.8,0.8,0.8h2.5c0.4,0,0.8-0.3,0.8-0.8v-2.4
		C43.2,40,42.9,39.6,42.4,39.6z M41.5,41.5c0,0-0.2,0-0.1,0.2l0.2,0.8c0,0.1,0.1,0.2-0.1,0.2h-0.8c-0.2,0-0.1-0.2-0.1-0.2l0.2-0.8
		c0-0.2-0.1-0.2-0.1-0.2c-0.2-0.1-0.2-0.2-0.2-0.5c0-0.4,0.3-0.6,0.6-0.6c0.4,0,0.6,0.3,0.6,0.6C41.8,41.2,41.6,41.4,41.5,41.5z"/>
	<path class="st1" d="M42,38.4C41.7,38,41.3,38,41.1,38c-0.2,0-0.6,0-0.8,0.3c-0.2,0.2-0.2,0.3-0.2,0.5l2-0.1
		C42,38.6,42,38.5,42,38.4z"/>
	<path class="st1" d="M37.5,34.4v0.4c0,1.1-1,2.1-2.1,2.1c-1.1,0-2.1-1-2.1-2.1v-0.4V34h-0.8v0.4v0.4v0.4h0.1
		c0.2,1.3,1.2,2.3,2.5,2.5V39h0.6v-1.3c1.3-0.2,2.3-1.2,2.5-2.5h0.1v-0.4v-0.4V34h-0.8V34.4z"/>
	<path class="st1" d="M45.3,25.2H28.3v23.3h16.9V25.2z M37.3,39.9v0.5c-0.6,0.3-1.3,0.4-1.9,0.4c-3.2,0-5.9-2.7-5.9-5.9
		s2.7-5.9,5.9-5.9s5.9,2.7,5.9,5.9c0,0.4-0.1,0.8-0.2,1.2H41c-0.4,0-1.2,0-1.9,0.7c-0.4,0.5-0.5,1.1-0.5,1.4
		C37.9,38.4,37.4,39,37.3,39.9z M44,40v3.2c0,0.7-0.6,1.3-1.3,1.3h-3.2c-0.7,0-1.3-0.6-1.3-1.3V40c0-0.6,0.4-1.1,1-1.3
		c-0.1-0.2,0-0.7,0.4-1.1c0.6-0.6,1.1-0.6,1.5-0.6c0.3,0,1.2,0,1.7,0.8c0.2,0.4,0.2,0.6,0.2,0.9C43.6,38.9,44.1,39.4,44,40z"/>
	<path class="st2" d="M41.2,40.4c-0.3,0-0.6,0.2-0.6,0.6c0,0.2,0.1,0.4,0.2,0.5c0,0,0.1,0.1,0.1,0.2l-0.2,0.8c0,0-0.1,0.2,0.1,0.2
		h0.8c0.2,0,0.1-0.2,0.1-0.2l-0.2-0.8c-0.1-0.2,0.1-0.2,0.1-0.2c0.2-0.1,0.3-0.3,0.3-0.5C41.8,40.7,41.6,40.4,41.2,40.4z"/>
	<path class="st2" d="M43.1,19.8H30.4c-1.8,0-3.1,1.4-3.1,3.1v25.4c1.9,1.2,4.8,2,7.9,2.2c0.2-0.7,0.8-1.2,1.6-1.2
		c0.7,0,1.4,0.5,1.6,1.2c3.2-0.3,6-1.2,7.9-2.5V23C46.2,21.2,44.9,19.8,43.1,19.8z M34.1,21.9h5.3v1h-5.3V21.9z M45.3,48.4H28.3
		V25.2h16.9V48.4z"/>
	<path class="st2" d="M39.1,36.8c0.6-0.7,1.5-0.7,1.9-0.7h0.1c0.1-0.4,0.2-0.8,0.2-1.2c0-3.2-2.7-5.9-5.9-5.9s-5.9,2.7-5.9,5.9
		s2.7,5.9,5.9,5.9c0.6,0,1.4-0.1,1.9-0.4v-0.5c0.1-0.9,0.6-1.5,1.4-1.7C38.7,38,38.7,37.3,39.1,36.8z M35.4,31.1
		c0.4,0,0.6,0.2,0.9,0.4c0.2,0.2,0.4,0.5,0.4,0.9v2.5c0,0.6-0.6,1.2-1.2,1.2c-0.6,0-1.2-0.6-1.2-1.2c-0.1-0.1-0.1-2.6-0.1-2.6
		C34.1,31.7,34.7,31.1,35.4,31.1z M38.3,34.4v0.4v0.4h-0.1c-0.2,1.3-1.2,2.3-2.5,2.5V39h0.2h-0.2H35v-1.3c-1.3-0.2-2.3-1.2-2.5-2.5
		h-0.1v-0.4v-0.4V34h0.8v0.4v0.4c0,1.1,1,2.1,2.1,2.1c1.1,0,2.1-1,2.1-2.1v-0.4V34h0.8V34.4z"/>
	<path class="st2" d="M43,38.7c0-0.3-0.1-0.5-0.2-0.9C42.3,37,41.4,37,41.1,37c-0.4,0-1,0-1.5,0.6c-0.4,0.4-0.5,0.9-0.4,1.1
		c-0.6,0.2-1,0.6-1,1.3v3.2c0,0.7,0.6,1.3,1.3,1.3h3.2c0.7,0,1.3-0.6,1.3-1.3V40C44.1,39.4,43.6,38.9,43,38.7z M40.3,38.3
		c0.2-0.3,0.6-0.3,0.8-0.3c0.2,0,0.6,0,0.9,0.4c0.1,0.2,0.1,0.2,0.2,0.3l-2,0.1C40.1,38.6,40.1,38.5,40.3,38.3z M43.2,42.8
		c0,0.5-0.4,0.8-0.8,0.8h-2.5c-0.5,0-0.8-0.4-0.8-0.8v-2.4c0-0.5,0.4-0.8,0.8-0.8h2.5c0.5,0,0.8,0.4,0.8,0.8V42.8z"/>
</g>
</svg>
