<?xml version="1.0" encoding="utf-8"?>
<!-- Generator: Adobe Illustrator 21.0.2, SVG Export Plug-In . SVG Version: 6.00 Build 0)  -->
<svg version="1.1" id="Layer_1" xmlns="http://www.w3.org/2000/svg" xmlns:xlink="http://www.w3.org/1999/xlink" x="0px" y="0px"
	 viewBox="0 0 74 74" style="enable-background:new 0 0 74 74;" xml:space="preserve">
<style type="text/css">
	.st0{fill:none;stroke:#006FAF;stroke-width:2;stroke-miterlimit:10;}
	.st1{fill:none;}
	.st2{fill:#006FAF;}
</style>
<title>Cloud &amp;amp; Infrastructure Services</title>
<circle class="st0" cx="37" cy="37" r="36"/>
<g>
	<polygon class="st1" points="15.8,46.3 15.8,43.3 13.3,44.8 	"/>
	<path class="st2" d="M64,44.8l-7.5-4.6v3.8h-6.2c-0.2-1.2-1-2.4-2.2-3.4V43c0.3,0.5,0.6,1.1,0.6,1.7c0,1.2-0.8,2.4-2.2,3.4
		c-1.8,1.3-4.7,2.2-7.9,2.5c-0.6,0-1.2,0.1-1.8,0.1c-0.4,0-0.9,0-1.3,0c-3.2-0.2-6-1-7.9-2.2c-1.6-1-2.6-2.3-2.6-3.6
		c0-1.1,0.7-2.1,1.4-2.7l-1.2-0.4v-0.8c-1,0.9-1.6,2-1.8,3.1h-5.8v-3.8L10,44.8l7.5,4.6v-3.8h5.8c0.4,1.9,1.9,3.6,4.3,4.8
		c2.3,1.2,5.3,1.9,8.7,2c0.2,0,0.4,0,0.5,0c0.4,0,0.7,0,1.1,0c3.4-0.1,6.4-1,8.6-2.2c2.1-1.2,3.5-2.8,3.9-4.5h6.2v3.8L64,44.8z
		 M15.8,46.3l-2.4-1.5l2.4-1.5V46.3z M58.2,43.3l2.4,1.5l-2.4,1.5V43.3z"/>
	<g transform="translate(-216.07358,-549.28882)">
		<g transform="matrix(1.8232952,0,0,1.8232952,-597.71681,-124.12247)">
			<g transform="translate(0,-91.137241)">
				<g transform="matrix(0.74069815,0,0,0.74069815,98.5698,-8.2505871)">
					<path class="st2" d="M489.2,663.2v-10.9l9.6-3.5l5.2,1.7v14.6l-5.2,1.6L489.2,663.2l9.6,1.2v-12.6l-6.3,1.4v8.5L489.2,663.2z"
						/>
				</g>
			</g>
		</g>
	</g>
</g>
</svg>
