<?xml version="1.0" encoding="utf-8"?>
<!-- Generator: Adobe Illustrator 21.0.2, SVG Export Plug-In . SVG Version: 6.00 Build 0)  -->
<svg version="1.1" id="Layer_1" xmlns="http://www.w3.org/2000/svg" xmlns:xlink="http://www.w3.org/1999/xlink" x="0px" y="0px"
	 viewBox="0 0 74 74" style="enable-background:new 0 0 74 74;" xml:space="preserve">
<style type="text/css">
	.st0{fill:none;stroke:#006FAF;stroke-width:2;stroke-miterlimit:10;}
	.st1{fill:#006FAF;}
</style>
<g id="iot-connected-platform-deployment">
	<g id="Layer_13">
	</g>
</g>
<g id="core-iot-services">
</g>
<g id="Application-and-business-logic">
</g>
<g id="Device-connectivity-and-_security">
</g>
<g id="Device-management">
</g>
<g id="User-management">
</g>
<g id="Connected-products_1_">
</g>
<g id="Connected-systems_1_">
</g>
<g id="Data-driven-connected-business_1_">
</g>
<g id="Azure-iot-hub_1_">
</g>
<circle class="st0" cx="37.1" cy="37" r="36"/>
<g>
	<path class="st1" d="M58.9,41.8v-4.4l-2.5-0.5c-0.2-0.8-0.5-1.6-1-2.5l1.5-2.1l-3-3.2l-2.1,1.5c-0.7-0.3-1.6-0.7-2.6-0.9L48.8,27
		h-4.4l-0.5,2.5c-0.8,0.2-1.6,0.5-2.5,1L39.2,29l-3.2,3l1.4,2.2c-0.5,0.9-0.8,1.7-1.1,2.5l-2.6,0.4v4.4l2.5,0.5
		c0.2,0.8,0.5,1.6,1,2.5l-1.5,2.3L39,50l2.1-1.4c0.9,0.5,1.7,0.8,2.5,1.1l0.4,2.6h4.4l0.5-2.5c0.8-0.2,1.6-0.5,2.5-1l2.2,1.5
		l3.2-3.2l-1.5-2.3c0.5-0.9,0.8-1.7,1.1-2.5L58.9,41.8z M55,41.4c-0.2,0.9-0.6,2-1.2,2.8l-0.4,0.4l1.3,2l-1.4,1.4l-2-1.3L51.1,47
		c-0.8,0.5-1.8,0.9-2.8,1.1h-0.6l-0.4,2.3h-1.8l-0.4-2.2L44.6,48c-0.9-0.2-2-0.6-2.8-1.2l-0.4-0.4l-2,1.3L38,46.4l1.3-2L39,44.1
		c-0.5-0.8-0.9-1.8-1.2-2.9l-0.2-0.5l-2.2-0.5v-1.8l2.2-0.4l0.2-0.5c0.2-0.9,0.6-1.9,1.2-2.8l0.4-0.4l-1.3-2l1.4-1.4l2,1.3l0.3-0.3
		c0.8-0.5,1.8-0.9,2.9-1.2l0.5-0.2l0.4-2.2h1.8l0.4,2.2l0.5,0.2c0.9,0.2,1.9,0.6,2.8,1.2l0.4,0.4l2-1.3l1.4,1.4l-1.3,2l0.3,0.3
		c0.6,0.9,1,1.8,1.2,2.9l0.2,0.5l2.2,0.4v1.8l-2.2,0.5L55,41.4z"/>
	<path class="st1" d="M46.4,32.3c-3.9,0-7.1,3.2-7.1,7.1c0,1.9,0.7,3.7,2.1,5s3.1,2.1,5,2.1h0.1c3.9,0,7.1-3.2,7.1-7.1
		c0-1.9-0.7-3.7-2.1-5S48.3,32.3,46.4,32.3z M46.4,45.7v0.5V45.7c-1.7,0-3.2-0.7-4.4-1.8s-1.8-2.8-1.8-4.4c0-3.4,2.8-6.2,6.2-6.2
		c1.7,0,3.2,0.7,4.3,1.8s1.8,2.8,1.8,4.4C52.6,42.9,49.8,45.7,46.4,45.7z"/>
	<path class="st1" d="M31.7,30.5l1.6-0.9l-1.2-3.3l-1.9,0.2c-0.3-0.5-0.7-0.8-1.1-1.3l0.5-1.9l-3.1-1.5l-1.1,1.7
		c-0.4-0.1-0.9-0.1-1.3-0.1c-0.1,0-0.3,0-0.4,0l-0.9-1.6l-3.3,1.1l0.2,1.9c-0.5,0.4-0.9,0.7-1.2,1.1l-1.8-0.4l-1.5,3l1.6,1.1
		c-0.1,0.6-0.2,1.1-0.1,1.7l-1.6,0.9l1.2,3.3l1.9-0.2c0.3,0.5,0.7,0.8,1.1,1.3l-0.5,1.9l3.1,1.5l1.1-1.6c0.4,0.1,0.9,0.1,1.3,0.1
		c0.1,0,0.3,0,0.4,0l0.9,1.6l3.3-1.2l-0.2-2c0.5-0.3,0.8-0.7,1.3-1.1l1.9,0.5l1.3-3.1l-1.6-1.1C31.6,31.6,31.7,31.1,31.7,30.5z
		 M28.9,34.6c-0.4,0.5-0.9,1-1.7,1.5l-0.3,0.4l0.2,1.6l-0.8,0.3l-0.8-1.4h-0.6l0,0C24.6,37,24.3,37,24,37c-0.5,0-0.9-0.1-1.3-0.2
		l-0.5-0.2l-1,1.3l-0.9-0.4l0.3-1.7l-0.3-0.3c-0.5-0.4-1-0.9-1.4-1.6l-0.2-0.4l-1.7,0.2L16.8,33l1.5-0.8l-0.2-0.5
		c-0.1-0.9-0.1-1.5,0.1-2.2l0.2-0.5l-1.2-1l0.4-0.9l1.6,0.3l0.3-0.3c0.4-0.5,0.9-1,1.7-1.5l0.3-0.4l-0.2-1.6l0.8-0.3l0.8,1.5
		l0.5-0.2c0.3,0,0.6-0.1,0.9-0.1c0.5,0,0.9,0.1,1.3,0.1l0.5,0.2l1-1.3l0.9,0.4l-0.3,1.7l0.3,0.3c0.5,0.4,1,0.9,1.5,1.7l0.4,0.3
		l1.6-0.2l0.3,0.8l-1.5,0.9l0.2,0.5c0.1,0.8,0.1,1.5-0.1,2.2L30,32.8l1.3,1l-0.4,0.8l-1.7-0.5L28.9,34.6z"/>
	<path class="st1" d="M24.1,26.7c-0.4,0-0.9,0.1-1.3,0.2c-1,0.4-1.9,1.1-2.4,2.1s-0.6,2.1-0.2,3.2c0.6,1.7,2.1,2.8,4,2.8
		c0.4,0,0.9-0.1,1.3-0.2c1-0.4,1.9-1.1,2.4-2.1s0.6-2.1,0.2-3.2C27.5,27.9,26,26.7,24.1,26.7z M27.1,32.3c-0.4,0.8-1,1.3-1.9,1.7
		c-0.3,0.1-0.7,0.1-1,0.1c-1.4,0-2.6-0.9-3.1-2.2c-0.3-0.8-0.2-1.7,0.2-2.5c0.4-0.8,1-1.3,1.9-1.7c0.4-0.1,0.7-0.2,1-0.2
		c1.4,0,2.6,0.9,3.1,2.2C27.5,30.6,27.5,31.5,27.1,32.3z"/>
	<polygon class="st1" points="48.3,38.3 49.7,39.4 48.3,40.6 48.9,41.3 51.1,39.4 48.9,37.6 	"/>
	<polygon class="st1" points="43.9,37.6 41.7,39.4 43.9,41.3 44.5,40.6 43.1,39.4 44.5,38.3 	"/>
	<rect x="43.1" y="39" transform="matrix(0.4433 -0.8964 0.8964 0.4433 -9.5179 63.5775)" class="st1" width="6.6" height="0.9"/>
</g>
<g id="Domain-and-_subject">
</g>
</svg>
