<?xml version="1.0" encoding="utf-8"?>
<!-- Generator: Adobe Illustrator 21.0.0, SVG Export Plug-In . SVG Version: 6.00 Build 0)  -->
<svg version="1.1" id="Layer_1" xmlns="http://www.w3.org/2000/svg" xmlns:xlink="http://www.w3.org/1999/xlink" x="0px" y="0px"
	 viewBox="0 0 74 74" style="enable-background:new 0 0 74 74;" xml:space="preserve">
<style type="text/css">
	.st0{fill:none;stroke:#006FAF;stroke-width:2;stroke-miterlimit:10;}
	.st1{fill:#006FAF;}
</style>
<title>Azure_Site_Recovery</title>
<circle class="st0" cx="37.1" cy="37" r="36"/>
<g>
	<g>
		<path class="st1" d="M43.7,57c-3.3,0-6.6,0-9.9,0c-1.4,0-2.6-1-2.7-2.5c-0.1-1.2,0-2.3,0-3.5c0-0.7,0.4-1.4,0.9-1.8
			c0.5-0.4,1-0.7,1.6-0.9c1.7-0.6,3.4-1.2,5.1-1.8c0.1,0,0.1,0,0.2-0.1c0.4-0.1,0.7,0.1,0.8,0.4c0.1,0.3-0.1,0.7-0.5,0.8
			c-1,0.4-2.1,0.7-3.1,1.1c-0.7,0.2-1.3,0.5-2,0.7c-0.4,0.2-0.7,0.3-1.1,0.6c-0.5,0.4-0.8,0.9-0.7,1.5c0,0.9,0,1.8,0,2.7
			c0,0.2,0,0.5,0.1,0.7c0.2,0.6,0.6,0.9,1.3,0.9c1.8,0,3.6,0,5.4,0c4.7,0,9.5,0,14.2,0c1.1,0,1.6-0.5,1.6-1.6c0-0.9,0-1.8,0-2.7
			c0-0.5-0.2-1-0.6-1.3c-0.4-0.3-0.8-0.6-1.2-0.7c-1.7-0.6-3.4-1.2-5.1-1.8c-0.4-0.2-0.6-0.5-0.5-0.9c0.1-0.4,0.5-0.5,0.9-0.4
			c1.8,0.6,3.5,1.2,5.3,1.9c1.2,0.4,2.1,1.2,2.4,2.5c0,0,0,0,0,0.1c0,1.4,0.1,2.8-0.1,4.1c-0.1,1.3-1.2,2.2-2.6,2.1
			C50.2,57,46.9,57,43.7,57z"/>
		<path class="st1" d="M43.3,29.5c1.4,0,2.7,0.2,3.9,0.8c1.7,0.8,2.7,2.4,2.4,4.3c-0.1,0.6-0.2,1.1-0.3,1.7c0,0.2,0,0.3,0.2,0.4
			c0.4,0.2,0.6,0.6,0.6,1c0.1,0.7-0.1,1.5-0.3,2.2c-0.1,0.5-0.5,0.9-0.9,1.2c-0.2,0.1-0.3,0.4-0.4,0.6c-0.5,1.8-1.6,3-3.3,3.8
			c-2.1,1-4.3,0-5.6-1.5c-0.6-0.7-1-1.5-1.3-2.4c0-0.1-0.1-0.3-0.3-0.4c-0.5-0.4-0.8-0.8-1-1.4c-0.1-0.6-0.2-1.2-0.2-1.8
			c0-0.6,0.2-1,0.7-1.3c0.2-0.1,0.2-0.2,0.2-0.4c-0.2-1.1-0.3-2.1-0.1-3.2c0.1-0.7,0.5-1.3,1.2-1.6c0.3-0.1,0.5-0.4,0.7-0.6
			c0.6-0.8,1.4-1.1,2.4-1.3C42.5,29.6,43,29.5,43.3,29.5z M38.4,37.8c0.1,0.5,0.1,1,0.2,1.5c0.1,0.4,0.2,0.8,0.5,1
			c0.4,0.2,0.6,0.6,0.7,1c0.3,1.2,1,2.3,2.1,2.9c0.7,0.4,1.4,0.7,2.2,0.5c1.7-0.4,2.8-1.5,3.3-3.1c0.2-0.6,0.4-1.1,0.9-1.4
			c0.2-0.1,0.3-0.4,0.4-0.6c0.1-0.5,0.1-1,0.2-1.5c0-0.1-0.1-0.2-0.2-0.3c-0.5-0.2-0.8-0.6-0.7-1.1c0.1-0.6,0.2-1.2,0.3-1.7
			c0.3-1.8-0.4-3.1-2.2-3.7c-1.3-0.5-2.7-0.5-4.1-0.3c-0.6,0.1-1.1,0.4-1.5,0.9c-0.2,0.3-0.6,0.6-0.9,0.8c-0.4,0.2-0.5,0.5-0.6,0.9
			c0,0.2,0,0.5,0,0.7c0.1,0.8,0.2,1.6,0.2,2.4C39.4,37.4,39.2,37.7,38.4,37.8z"/>
		<path class="st1" d="M42.1,52.2c0.1-0.6,0.1-1.2,0.3-1.8c0.1-0.6-0.1-1.1-0.3-1.6c-0.2-0.5,0.2-1.2,0.8-1.2c0.5,0,1.1,0,1.6,0
			c0.3,0,0.5,0.1,0.6,0.4c0.2,0.3,0.3,0.7,0,1c-0.3,0.4-0.3,0.9-0.2,1.4C45,50.7,45,51,45,51.3c0,0.3,0.1,0.6,0.2,0.9
			c0-0.1,0.1-0.2,0.1-0.3c0.4-1.3,0.8-2.5,1.2-3.8c0-0.1,0-0.1,0.1-0.2c0.1-0.1,0.2-0.2,0.3-0.1c0.1,0,0.2,0.1,0.2,0.2
			c0,0.2,0,0.3-0.1,0.5c-0.5,1.6-1,3.2-1.5,4.8c-0.1,0.3-0.3,0.6-0.5,1c-0.1-0.9-0.2-1.8-0.4-2.6c-0.1-0.4-0.1-0.9-0.2-1.3
			c-0.1-0.6-0.1-1.1,0.2-1.6c0.2-0.4,0-0.7-0.4-0.7c-0.4,0-0.8,0-1.2,0c-0.3,0-0.5,0.3-0.4,0.6c0,0.1,0,0.1,0.1,0.1
			c0.2,0.5,0.3,0.9,0.2,1.5c-0.2,1.3-0.4,2.6-0.6,4c-0.1-0.3-0.3-0.6-0.4-0.9c-0.5-1.7-1.1-3.4-1.6-5.1c0-0.1,0-0.1,0-0.2
			c-0.1-0.2-0.1-0.4,0.1-0.4c0.2-0.1,0.3,0.1,0.3,0.3c0.4,1.3,0.8,2.6,1.2,3.9C42,52,42,52.1,42.1,52.2
			C42.1,52.2,42.1,52.2,42.1,52.2z"/>
	</g>
	<path class="st1" d="M34.4,24.6H32v-1.9h-1.2v1.9h-2.4c-1.6,0-3,1.3-3,3v0.5c0,1.6,1.3,3,3,3h6c1,0,1.9,0.8,1.9,1.9v0.5
		c0,1-0.8,1.9-1.9,1.9h-6c-1,0-1.9-0.8-1.9-1.9v-1.2h-1.2v1.2c0,1.6,1.3,3,3,3h2.4v1.9H32v-1.9h2.4c1.6,0,3-1.3,3-3V33
		c0-1.6-1.3-3-3-3h-6c-1,0-1.9-0.8-1.9-1.9v-0.7c0-1,0.8-1.9,1.9-1.9h6c1,0,1.9,0.8,1.9,1.9v1.2h1.2v-1.2
		C37.4,25.9,36.1,24.6,34.4,24.6z"/>
	<path class="st1" d="M36.8,37.8c-1.5,1.1-3.4,1.8-5.4,1.8c-5,0-9-4-9-9c0-5,4-9,9-9c4.7,0,8.6,3.6,9,8.2c0.4-0.2,0.8-0.3,1.2-0.4
		c-0.6-5.1-4.9-9-10.2-9c-5.7,0-10.2,4.6-10.2,10.2s4.6,10.2,10.2,10.2c2,0,3.8-0.6,5.4-1.5L36.8,37.8z"/>
	<path class="st1" d="M38.2,41.8l-0.9-1.1c-1.7,1-3.8,1.6-5.9,1.6c-6.6,0-11.9-5.3-11.9-11.9s5.3-11.9,11.9-11.9
		c6.2,0,11.2,4.7,11.8,10.7c0.1,0,0.1,0,0.1,0l0,0l1.5,0.1C44.3,22.5,38.5,17,31.4,17C24,17,18,23,18,30.5c0,7.4,6,13.4,13.4,13.4
		c2.5,0,4.9-0.7,6.9-1.9C38.3,41.9,38.2,41.8,38.2,41.8z"/>
</g>
</svg>
