<?xml version="1.0" encoding="utf-8"?>
<!-- Generator: Adobe Illustrator 21.0.2, SVG Export Plug-In . SVG Version: 6.00 Build 0)  -->
<svg version="1.1" id="Layer_1" xmlns="http://www.w3.org/2000/svg" xmlns:xlink="http://www.w3.org/1999/xlink" x="0px" y="0px"
	 viewBox="0 0 74 74" style="enable-background:new 0 0 74 74;" xml:space="preserve">
<style type="text/css">
	.st0{fill:none;stroke:#006FAF;stroke-width:2;stroke-miterlimit:10;}
	.st1{fill:none;stroke:#006FAF;stroke-width:2;stroke-linecap:round;stroke-miterlimit:10;}
	.st2{fill:none;stroke:#006FAF;stroke-width:2;stroke-linejoin:round;stroke-miterlimit:10;}
</style>
<circle class="st0" cx="37" cy="37" r="36"/>
<g>
	<path class="st1" d="M30.8,48.2v3.5c0,1,0.8,1.7,1.7,1.7h8.6c1,0,1.7-0.8,1.7-1.7v-3.5H30.8z"/>
	<path class="st2" d="M43,48.2c0-1,0-3.5,0-5.2c0-4.6,6.1-4.8,6.1-13c0-6.7-5.4-12.1-12.1-12.1S24.8,23.3,24.8,30
		c0,8.4,6.1,9.2,6.1,13c0,1.2,0,5.2,0,5.2"/>
	<path class="st1" d="M39.4,53.4c0,1.3-1.2,2.7-2.7,2.7c-1.3,0-2.7-1.2-2.7-2.7"/>
	<polyline class="st1" points="34.2,47.6 40.9,30 33.9,30 40.5,48.2 	"/>
</g>
</svg>
