<svg id="Layer_1" data-name="Layer 1" xmlns="http://www.w3.org/2000/svg" width="74" height="74" viewBox="0 0 74 74">
  <defs>
    <style>
      .cls-1, .cls-2 {
        fill: none;
      }

      .cls-1 {
        stroke: #006faf;
        stroke-miterlimit: 10;
        stroke-width: 2px;
      }

      .cls-3 {
        fill: #006faf;
        fill-rule: evenodd;
      }
    </style>
  </defs>
  <title>Dedicated-teams</title>
  <circle class="cls-1" cx="37" cy="37" r="36"/>
  <rect class="cls-2" x="20" y="20" width="34" height="34"/>
  <rect class="cls-2" x="20" y="20" width="34" height="34"/>
  <path class="cls-3" d="M44.59,37.88h4.08a4.19,4.19,0,0,1,4.19,4.24v2.54H50.6V42.11a.57.57,0,1,0-1.13,0v2.54H46.05V42.15a6.54,6.54,0,0,0-1.56-4.25Zm-19.26,0h4.08l.1,0a6.54,6.54,0,0,0-1.56,4.25v2.51H24.53V41.83a.57.57,0,1,0-1.13,0v2.83H21.13V42.11A4.19,4.19,0,0,1,25.33,37.88ZM37,36.74v0l.54,6.54-.55.55-.55-.55L37,36.76Zm-2.55,0h1.41l-.56,6.74a.57.57,0,0,0,.16.45l1.13,1.13a.57.57,0,0,0,.8,0l1.13-1.13a.57.57,0,0,0,.16-.45l-.56-6.74h1.41a5.32,5.32,0,0,1,3.3,1.16h0l.06.06a5.51,5.51,0,0,1,1.35,1.62c0,.09.1.17.14.26s.11.24.16.37a5.39,5.39,0,0,1,.23.77c0,.06,0,.12,0,.19a5.54,5.54,0,0,1,.1,1v3.62H42.66V42.48a.57.57,0,1,0-1.13,0v3.28h-9V42.48a.57.57,0,1,0-1.13,0v3.28H29.08V42.15a5.54,5.54,0,0,1,.1-1c0-.06,0-.12,0-.19a5.39,5.39,0,0,1,.23-.77c0-.13.1-.25.16-.37s.09-.18.14-.26A5.51,5.51,0,0,1,31.09,38l.07-.07A5.32,5.32,0,0,1,34.45,36.73ZM47.2,32.16a2.29,2.29,0,1,1-2.27,2.29A2.27,2.27,0,0,1,47.2,32.16Zm-20.4,0a2.29,2.29,0,1,1-2.27,2.29A2.27,2.27,0,0,1,26.8,32.16ZM37,28.24a3.68,3.68,0,0,1,.09,7.36H36.9A3.68,3.68,0,0,1,37,28.24Zm0-1.13a4.8,4.8,0,0,0-3,8.52,6.44,6.44,0,0,0-3.38,1.27,4.89,4.89,0,0,0-1.17-.15h-.1a3.39,3.39,0,1,0-4.93.1A5.36,5.36,0,0,0,20,42.11v3.11a.57.57,0,0,0,.57.57h7.38v.54a.57.57,0,0,0,.57.57h17a.57.57,0,0,0,.57-.57v-.54h7.38a.57.57,0,0,0,.57-.57V42.11a5.36,5.36,0,0,0-4.38-5.27,3.41,3.41,0,1,0-4.93-.1h-.1a4.91,4.91,0,0,0-1.17.15A6.44,6.44,0,0,0,40,35.62a4.8,4.8,0,0,0-3-8.52Z"/>
</svg>
