<?xml version="1.0" encoding="utf-8"?>
<!-- Generator: Adobe Illustrator 21.0.2, SVG Export Plug-In . SVG Version: 6.00 Build 0)  -->
<svg version="1.1" id="Layer_1" xmlns="http://www.w3.org/2000/svg" xmlns:xlink="http://www.w3.org/1999/xlink" x="0px" y="0px"
	 viewBox="0 0 74 74" style="enable-background:new 0 0 74 74;" xml:space="preserve">
<style type="text/css">
	.st0{fill:none;stroke:#006FAF;stroke-width:2;stroke-miterlimit:10;}
	.st1{fill:#006FAF;}
	.st2{fill:none;stroke:#FFFFFF;stroke-width:2;stroke-miterlimit:10;}
	.st3{fill:none;}
	.st4{fill-rule:evenodd;clip-rule:evenodd;fill:none;stroke:#FFFFFF;stroke-width:2;stroke-miterlimit:10;}
	.st5{fill:#FFFFFF;}
	.st6{fill:#FFFFFF;stroke:#FFFFFF;stroke-width:2;stroke-miterlimit:10;}
	.st7{fill:none;stroke:#FFFFFF;stroke-width:2;stroke-linejoin:round;}
</style>
<circle class="st0" cx="37" cy="37" r="36"/>
<path class="st1" d="M59.2,33.6l-6.4-10.2c-0.3-0.5-0.8-0.9-1.4-1c-0.6-0.1-1.2,0-1.7,0.3L49,23.1c-0.9,0.6-1.2,1.7-0.9,2.6
	l-1.3,0.5c-0.1,0-0.3,0.1-0.4,0l-3.6-0.8c-2.1-0.4-4.1-0.5-6.2-0.1l-3.4,0.6c-0.9,0.2-1.8,0.6-2.4,1.2l-3.2-0.5
	c-0.1,0-0.1,0-0.2-0.1L26,26c0.3-0.9-0.1-1.9-0.9-2.5l-0.7-0.4c-0.5-0.3-1.1-0.4-1.7-0.3c-0.6,0.1-1.1,0.5-1.4,1L14.8,34
	c-0.7,1-0.3,2.4,0.7,3.1l0.7,0.4c0.4,0.2,0.8,0.3,1.2,0.3c0.5,0,1.1-0.2,1.5-0.6l2.7,3.6l-1.1,1.6c-0.7,1-0.5,2.4,0.5,3.1l0.7,0.5
	c0.3,0.2,0.7,0.3,1,0.4c0,0.7,0.3,1.4,0.9,1.8l0.7,0.5c0.4,0.3,0.8,0.4,1.3,0.4c0.1,0,0.3,0,0.4,0c0.1,0,0.2-0.1,0.3-0.1
	c0.2,0.4,0.5,0.8,0.9,1l0.8,0.4c0.3,0.2,0.7,0.3,1.1,0.3c0.4,0,0.7-0.1,1-0.3c0.2,0.4,0.6,0.7,1,0.9l0.4,0.1
	c0.3,0.1,0.6,0.2,0.9,0.2c0.7,0,1.4-0.3,1.8-1l0,0l5.7,0.9c0.1,0,0.2,0,0.3,0c0.6,0,1.3-0.3,1.7-0.8l0.7-0.8
	c0.2,0.1,0.4,0.1,0.7,0.1c0.7,0,1.5-0.4,1.9-1c0.6-1,0.9-1.5,1.1-1.7c0,0,0,0,0.1,0c0.7,0,1.4-0.4,1.9-1l1.1-1.7c0.1,0,0.1,0,0.2,0
	c0.7,0,1.4-0.4,1.9-1l0.7-1.1c0.3-0.5,0.4-1.1,0.3-1.7c0-0.2-0.1-0.3-0.2-0.5l3.3-3.1c0.3,0.2,0.6,0.2,1,0.2c0.4,0,0.8-0.1,1.2-0.3
	l0.7-0.4v0C59.5,36,59.8,34.6,59.2,33.6z M33.6,27.7l3.4-0.6c1.9-0.3,3.7-0.3,5.6,0.1l3.6,0.8c0.4,0.1,0.9,0.1,1.3-0.1l1.5-0.6
	l5.6,8.9l-3.3,3.1l-13.4-8.7c-0.7-0.4-1.5-0.5-2.2-0.1l-6.1,3.2c-0.2,0.1-0.5,0.1-0.7-0.1c-0.1-0.1-0.2-0.3-0.3-0.4
	c0-0.2,0-0.3,0.1-0.5l2.9-3.7C32.1,28.2,32.8,27.8,33.6,27.7z M17,36.1l-0.7-0.4c-0.3-0.2-0.4-0.6-0.2-0.9l6.4-10.2
	c0.1-0.1,0.2-0.2,0.4-0.3c0,0,0.1,0,0.1,0c0.1,0,0.2,0,0.3,0.1l0.7,0.4c0,0,0,0,0,0c0.3,0.2,0.4,0.6,0.2,0.9l-6.4,10.2
	C17.7,36.2,17.3,36.3,17,36.1z M21.9,44.3c-0.3-0.2-0.4-0.6-0.2-0.9l2-2.9c0.1-0.2,0.3-0.3,0.5-0.3c0.1,0,0.2,0,0.3,0.1l0.7,0.4
	c0.2,0.1,0.3,0.2,0.3,0.4c0,0.2,0,0.3-0.1,0.5l-2.1,3c-0.1,0.1-0.2,0.2-0.4,0.2c-0.2,0-0.3,0-0.5-0.1L21.9,44.3z M25.8,47.6
	c-0.2,0-0.3,0-0.5-0.1L24.6,47c-0.3-0.2-0.4-0.6-0.2-0.9l0.4-0.5c0,0,0-0.1,0.1-0.1c0.6-0.9,1.4-2.1,2-3c0,0,0,0,0,0l1.3-2
	c0.1-0.2,0.3-0.3,0.5-0.3c0.1,0,0.2,0,0.4,0.1l0.7,0.5c0.1,0.1,0.2,0.2,0.3,0.4c0,0.2,0,0.3-0.1,0.5l-0.5,0.7c0,0,0,0,0,0l-3,4.4
	c0,0.1-0.1,0.1-0.1,0.2l-0.2,0.3C26.1,47.5,25.9,47.6,25.8,47.6z M29.6,48.8c-0.2,0.3-0.6,0.4-0.8,0.2L28,48.6
	c-0.2-0.1-0.3-0.2-0.3-0.4c0-0.1,0-0.3,0-0.4l3.1-4.5c0.1-0.1,0.3-0.2,0.4-0.3c0,0,0.1,0,0.1,0c0.1,0,0.3,0.1,0.4,0.1l0.7,0.5
	c0.3,0.2,0.3,0.6,0.1,0.9l-0.9,1.3c0,0,0,0,0,0.1L30.2,48c0,0.1-0.1,0.1-0.1,0.2L29.6,48.8C29.6,48.8,29.6,48.8,29.6,48.8z M32.1,50
	l-0.4-0.1c-0.3-0.1-0.3-0.3-0.4-0.4c0-0.1,0-0.2,0-0.4l1.6-2.3c0.1-0.1,0.2-0.2,0.4-0.2c0,0,0.1,0,0.1,0c0.2,0,0.3,0.1,0.4,0.1
	l0.3,0.2c0.3,0.2,0.3,0.6,0.1,0.9l-1.4,2C32.7,50,32.4,50.1,32.1,50z M50.9,41.6l-0.7,1.1c-0.2,0.3-0.6,0.4-0.9,0.2l-7.6-4.6
	c-0.4-0.2-0.9-0.1-1.1,0.3c-0.2,0.4-0.1,0.9,0.3,1.1l7.1,4.3L47,45.4c-0.2,0.3-0.6,0.4-0.9,0.2l-6.3-3.4c-0.4-0.2-0.9-0.1-1.1,0.3
	c-0.2,0.4-0.1,0.9,0.3,1.1l5.7,3.1c-0.2,0.3-0.5,0.8-0.9,1.4c-0.2,0.3-0.5,0.4-0.8,0.2l-4.9-2.5c-0.4-0.2-0.9,0-1.1,0.3
	c-0.2,0.4,0,0.9,0.3,1.1l3.8,1.9l-0.5,0.5c-0.1,0.2-0.4,0.3-0.6,0.2l-5-0.8l0.4-0.5c0.7-0.9,0.5-2.3-0.4-3l-0.3-0.2
	c-0.2-0.2-0.5-0.3-0.8-0.4c0.4-0.9,0.1-1.9-0.7-2.6l-0.7-0.5c-0.3-0.3-0.7-0.4-1.1-0.5c0-0.2,0-0.4,0-0.6c-0.1-0.6-0.5-1.1-1-1.4
	L30,39c-1-0.7-2.4-0.4-3.1,0.6l-0.2,0.3c-0.2-0.2-0.3-0.4-0.6-0.5l-0.7-0.4c-1-0.6-2.3-0.4-2.9,0.6l-2.7-3.6l5.4-8.5l1.6,0.8
	c0.2,0.1,0.4,0.2,0.7,0.2l2.2,0.4l-2.2,2.9c-0.4,0.5-0.5,1.1-0.4,1.7c0.1,0.6,0.4,1.1,0.9,1.5c0.7,0.5,1.6,0.6,2.4,0.2l6.1-3.2
	c0.2-0.1,0.5-0.1,0.7,0l13.7,8.9c0.1,0.1,0.2,0.2,0.3,0.4C51,41.3,51,41.4,50.9,41.6z M57.6,35.3C57.6,35.3,57.6,35.3,57.6,35.3
	L57,35.8c-0.3,0.2-0.7,0.1-0.9-0.2l-6.4-10.2c-0.2-0.3-0.1-0.7,0.2-0.9l0.7-0.4c0.1-0.1,0.2-0.1,0.3-0.1c0,0,0.1,0,0.1,0
	c0.2,0,0.3,0.1,0.4,0.3l6.4,10.2C58,34.8,57.9,35.2,57.6,35.3z"/>
</svg>
