<?xml version="1.0" encoding="utf-8"?>
<!-- Generator: Adobe Illustrator 21.0.2, SVG Export Plug-In . SVG Version: 6.00 Build 0)  -->
<svg version="1.1" id="Layer_1" xmlns="http://www.w3.org/2000/svg" xmlns:xlink="http://www.w3.org/1999/xlink" x="0px" y="0px"
	 viewBox="0 0 74 74" style="enable-background:new 0 0 74 74;" xml:space="preserve">
<style type="text/css">
	.st0{fill:#006FAF;}
</style>
<path class="st0" d="M37,74C16.6,74,0,57.4,0,37S16.6,0,37,0s37,16.6,37,37S57.4,74,37,74z M37,2C17.7,2,2,17.7,2,37s15.7,35,35,35
	s35-15.7,35-35S56.3,2,37,2z"/>
<g id="cloud-dr-and-bc-strategy">
</g>
<g id="cloud-workload-data-protection">
</g>
<g id="hybrid-workload-data-protection">
</g>
<g id="automated-disaster-recovery">
</g>
<g id="regulatory-compliance-management">
</g>
<g>
	<g>
		<path class="st0" d="M36.8,42h-4.3v-4.3h4.3V42z"/>
		<path class="st0" d="M41.5,42h-4.3v-4.3h4.3V42L41.5,42z"/>
		<path class="st0" d="M36.8,46.8h-4.3v-4.3h4.3V46.8z"/>
		<path class="st0" d="M41.5,46.8h-4.3v-4.3h4.3V46.8L41.5,46.8z"/>
	</g>
	<g>
		<path class="st0" d="M37,52.8c-3.5,0-6.8-1.8-8.8-4.7l-0.4-0.6l-1.3,1.3v-4.4h4.4L29.3,46l0.2,0.4c1.5,2.7,4.3,4.4,7.5,4.4
			c3.9,0,7.2-2.6,8.2-6.3h2.1C46.3,49.3,42,52.8,37,52.8z"/>
		<path class="st0" d="M43.1,40.1l1.5-1.5l-0.2-0.4c-1.5-2.7-4.3-4.4-7.5-4.4c-3.9,0-7.2,2.6-8.2,6.3h-2.1c1-4.8,5.3-8.3,10.3-8.3
			c3.5,0,6.8,1.8,8.8,4.7l0.4,0.6l1.3-1.3v4.4H43.1z"/>
	</g>
	<path class="st0" d="M48.5,47.3c0.3-0.6,0.5-1.2,0.6-1.9h1.3c3.2,0,5.8-2.6,5.8-5.8c0-3.1-2.4-5.6-5.5-5.8
		c-0.5-3.1-3.2-5.4-6.4-5.4c-1.3,0-2.5,0.4-3.6,1.1c-1.4-3.8-5.1-6.4-9.2-6.4c-5.4,0-9.8,4.4-9.8,9.8c0,0.4,0,0.8,0.1,1.2
		c-2.4,0.7-4.1,3-4.1,5.5c0,3.2,2.6,5.8,5.8,5.8h0.9v1.9h-0.9c-4.2,0-7.7-3.4-7.7-7.7c0-2.7,1.5-5.3,3.8-6.6l0.2-0.1l0-0.2
		c0.1-6.3,5.4-11.4,11.7-11.4c4.1,0,7.8,2.1,9.9,5.5l0.2,0.3l0.3-0.1c0.8-0.2,1.6-0.3,2.4-0.3c3.5,0,6.6,2.2,7.8,5.4l0.1,0.2
		l0.2,0.1c3.3,0.9,5.6,3.9,5.6,7.4c0,4.2-3.4,7.7-7.7,7.7H48.5z"/>
</g>
</svg>
