<?xml version="1.0" encoding="utf-8"?>
<!-- Generator: Adobe Illustrator 21.0.2, SVG Export Plug-In . SVG Version: 6.00 Build 0)  -->
<svg version="1.1" id="Layer_1" xmlns="http://www.w3.org/2000/svg" xmlns:xlink="http://www.w3.org/1999/xlink" x="0px" y="0px"
	 viewBox="0 0 74 74" style="enable-background:new 0 0 74 74;" xml:space="preserve">
<style type="text/css">
	.st0{fill:none;stroke:#006FAF;stroke-width:2;stroke-miterlimit:10;}
	.st1{fill:#006FAF;}
</style>
<title>Cloud &amp;amp; Infrastructure Services</title>
<circle class="st0" cx="37" cy="37" r="36"/>
<g>
	<path class="st1" d="M50.6,22.6H23.4c-0.4,0-0.8,0.4-0.8,0.8v27.2c0,0.4,0.4,0.8,0.8,0.8h6.8h9h11.3c0.1,0,0.2,0,0.3-0.1
		c0.3-0.1,0.5-0.4,0.5-0.7v0V39.2v-9v-6.8C51.4,22.9,51,22.6,50.6,22.6z M49.7,29.4H30.3c-0.4,0-0.8,0.4-0.8,0.8v19.6h-5.2V24.2
		h25.5V29.4z M49.7,40v9.8H40V40H49.7z M39.2,38.4c-0.4,0-0.8,0.4-0.8,0.8v10.6h-7.3V31h18.7v7.4H39.2z"/>
	<path class="st1" d="M45.5,42.6h-4.2c-0.2,0-0.3-0.1-0.3-0.3v-1c0-0.2,0.1-0.3,0.3-0.3h4.2c0.2,0,0.3,0.1,0.3,0.3v1
		C45.8,42.5,45.7,42.6,45.5,42.6z M41.6,42h3.6v-0.4h-3.6V42z"/>
	<path class="st1" d="M41.5,33.6h-9.3c-0.2,0-0.3-0.1-0.3-0.3v-1c0-0.2,0.1-0.3,0.3-0.3h9.3c0.2,0,0.3,0.1,0.3,0.3v1
		C41.8,33.5,41.7,33.6,41.5,33.6z M32.6,33h8.6v-0.4h-8.6V33z"/>
	<path class="st1" d="M37.8,26.9H25.6c-0.2,0-0.3-0.1-0.3-0.3v-1c0-0.2,0.1-0.3,0.3-0.3h12.2c0.2,0,0.3,0.1,0.3,0.3v1
		C38.1,26.7,38,26.9,37.8,26.9z M25.9,26.2h11.6v-0.4H25.9V26.2z"/>
</g>
</svg>
