<?xml version="1.0" encoding="utf-8"?>
<!-- Generator: Adobe Illustrator 21.0.2, SVG Export Plug-In . SVG Version: 6.00 Build 0)  -->
<svg version="1.1" id="Layer_1" xmlns="http://www.w3.org/2000/svg" xmlns:xlink="http://www.w3.org/1999/xlink" x="0px" y="0px"
	 viewBox="0 0 74 74" style="enable-background:new 0 0 74 74;" xml:space="preserve">
<style type="text/css">
	.st0{fill:none;stroke:#006FAF;stroke-width:2;stroke-miterlimit:10;}
	.st1{fill:#006FAF;stroke:#006FAF;stroke-width:0.5;stroke-miterlimit:10;}
</style>
<title>Cloud &amp;amp; Infrastructure Services</title>
<circle class="st0" cx="37" cy="37" r="36"/>
<path class="st1" d="M23.9,34.8h5.8v0.7h-5.8V34.8z M23.9,38.5h5.8v-0.7h-5.8V38.5z M28.3,45H29v-1.5h-0.7V45z M23.9,41.4h5.8v-0.7
	h-5.8V41.4z M51.6,34.1v12.4c0,0.4-0.3,0.7-0.7,0.7h-2.9v5.5c0,1-0.8,1.8-1.8,1.8H28.6c-1,0-1.8-0.8-1.8-1.8v-5.5h-3.6
	c-0.4,0-0.7-0.3-0.7-0.7V34.1c0-0.8,0.7-1.5,1.5-1.5h5.8c0.8,0,1.5,0.7,1.5,1.5v12.4c0,0.4-0.3,0.7-0.7,0.7h-2.9v5.5
	c0,0.6,0.5,1.1,1.1,1.1h8v-3.6h-3.3c-0.4,0-0.7-0.3-0.7-0.7V37c0-0.8,0.7-1.5,1.5-1.5h5.8c0.8,0,1.5,0.7,1.5,1.5v12.4
	c0,0.4-0.3,0.7-0.7,0.7h-3.3v3.6h8.8c0.6,0,1.1-0.5,1.1-1.1v-5.5h-3.6c-0.4,0-0.7-0.3-0.7-0.7V34.1c0-0.8,0.7-1.5,1.5-1.5h5.8
	C50.9,32.6,51.6,33.3,51.6,34.1z M40.6,49.4V37c0-0.4-0.3-0.7-0.7-0.7h-5.8c-0.4,0-0.7,0.3-0.7,0.7v12.4H40.6z M23.1,46.5h7.3V34.1
	c0-0.4-0.3-0.7-0.7-0.7h-5.8c-0.4,0-0.7,0.3-0.7,0.7V46.5z M50.9,34.1c0-0.4-0.3-0.7-0.7-0.7h-5.8c-0.4,0-0.7,0.3-0.7,0.7v12.4h7.3
	V34.1z M44.3,35.5h5.8v-0.7h-5.8V35.5z M44.3,38.5h5.8v-0.7h-5.8V38.5z M48.7,45h0.7v-1.5h-0.7V45z M44.3,41.4h5.8v-0.7h-5.8V41.4z
	 M34.1,38.5h5.8v-0.7h-5.8V38.5z M34.1,41.4h5.8v-0.7h-5.8V41.4z M38.5,47.9h0.7v-1.5h-0.7V47.9z M34.1,44.3h5.8v-0.7h-5.8V44.3z
	 M47.9,28.3c0-4.8-3.9-8.8-8.8-8.8c-3.4,0-6.4,2-7.8,4.9c-0.6-0.3-1.3-0.5-2-0.5c-2.4,0-4.4,2-4.4,4.4c0,0,0,0.1,0,0.1
	c-3.1,0.5-5.5,3.2-5.5,6.5c0,1.9,0.8,3.7,2.2,4.9v-1c-0.9-1-1.5-2.4-1.5-3.8c0-2.9,2-5.3,4.9-5.7l0.7-0.1l-0.1-0.7c0,0,0,0,0-0.1
	c0-2,1.6-3.6,3.6-3.6c0.6,0,1.1,0.1,1.7,0.4l0.7,0.3l0.3-0.7c1.4-2.8,4.1-4.5,7.2-4.5c4.4,0,8,3.6,8,8V29h0.7c3.2,0,5.8,2.6,5.8,5.8
	c0,1.5-0.6,2.8-1.5,3.8v1c1.3-1.2,2.2-2.9,2.2-4.9C54.5,31.2,51.6,28.3,47.9,28.3z"/>
</svg>
