<?xml version="1.0" encoding="utf-8"?>
<!-- Generator: Adobe Illustrator 21.0.2, SVG Export Plug-In . SVG Version: 6.00 Build 0)  -->
<svg version="1.1" id="Layer_1" xmlns="http://www.w3.org/2000/svg" xmlns:xlink="http://www.w3.org/1999/xlink" x="0px" y="0px"
	 viewBox="0 0 74 74" style="enable-background:new 0 0 74 74;" xml:space="preserve">
<style type="text/css">
	.st0{fill:none;stroke:#006FAF;stroke-width:2;stroke-miterlimit:10;}
	.st1{fill:#006FAF;}
</style>
<title>digital-transformation</title>
<circle class="st0" cx="37" cy="37" r="36"/>
<g>
	<path class="st0" d="M20.4,33.3c0.3,0.3,1.7-10.3,13.1-13.1"/>
	<polygon class="st1" points="17.6,32.1 19.9,37.7 23.6,33 	"/>
	<path class="st0" d="M33.5,53.6c0.3-0.3-10.4-1.2-13.7-12.4"/>
	<polygon class="st1" points="32.5,56.5 38,53.9 33,50.5 	"/>
	<path class="st0" d="M53.6,40.7c-0.3-0.3-1.8,10.3-13.1,13"/>
	<polygon class="st1" points="56.4,41.9 54.2,36.3 50.4,41 	"/>
	<path class="st0" d="M40.5,20.4c-0.3,0.3,10.4,1.3,13.7,12.5"/>
	<polygon class="st1" points="41.5,17.5 36,20 40.9,23.5 	"/>
	<g>
		<path class="st1" d="M45.2,42.3c-0.1-0.1-0.2-0.8-0.2-1c0-0.2,0-0.4-0.1-0.8c-0.2-0.9-0.8-1.8-1.1-2.2c-0.4-0.5-0.8-0.7-1.3-0.7
			c-0.2,0-0.4,0.1-0.7,0.2c0,0-0.1,0-0.1-0.1c-0.1,0-0.2-0.1-0.2-0.1c-0.2-0.1-0.3-0.1-0.5-0.1c-0.3,0-0.6,0.1-0.8,0.2
			c-0.2,0.1-0.3,0.2-0.4,0.3c-0.1,0-0.2,0-0.3,0c-0.1,0-0.3,0-0.4,0.1c0,0,0,0,0,0c0-0.1-0.1-0.2-0.1-0.2c1.2-1.2,2-2.8,2-4.6
			c0-3.5-2.9-6.4-6.4-6.4s-6.4,2.9-6.4,6.4s2.9,6.4,6.4,6.4c0.7,0,1.4-0.1,2-0.3l1,1.9c-0.3,0.1-0.7,0.2-0.9,0.3
			c-0.4,0.2-0.7,0.5-0.8,0.7c-0.3,0.5-0.2,1.1,0,1.4c0.3,0.5,0.9,0.8,1.6,0.8c0.2,0,0.3,0,0.4,0c0.1,0,0.2,0,0.3,0
			c1,0,1.6,0.5,1.8,0.7l1.8,1.9l4.4-2.3L45.2,42.3z M36.8,43c0,0,0.1-0.1,0.3-0.2c0.2-0.1,0.5-0.2,0.9-0.3l1.4-0.2l-1.7-3.4
			c0.1,0,0.1-0.1,0.2-0.1c0,0.1,0.1,0.2,0.1,0.3l0.6,1.1l1-0.7l0.7,0.2l0.5-0.5c0-0.1,0.1-0.1,0.2-0.1c0.1,0,0.2-0.1,0.3-0.1
			c0,0,0.1,0,0.1,0l0.1,0c0.1,0,0.2,0.1,0.3,0.1l0.4,0.1l0.3-0.2c0.2-0.1,0.2-0.1,0.3-0.1c0,0,0.1,0.1,0.3,0.3
			c0.2,0.2,0.7,0.9,0.8,1.6c0,0.2,0,0.4,0,0.6c0,0.2,0.1,1.1,0.3,1.4l0.5,1.4l-2.6,1.3l-1.1-1.1c-0.4-0.6-1.5-1.2-2.8-1.2
			c-0.1,0-0.3,0-0.5,0c0,0-0.1,0-0.2,0c-0.2,0-0.4,0-0.5-0.2C36.8,43.1,36.8,43,36.8,43z M37.1,37.6c-0.1-0.2-0.1-0.3-0.2-0.3
			l0.1-0.1c0,0,0.1,0,0.1,0.2c0,0,0.1,0.1,0.1,0.2C37.2,37.6,37.1,37.6,37.1,37.6L37.1,37.6z M38.2,36.7c-0.3-0.5-0.7-0.8-1.2-0.8
			c-0.1,0-0.3,0-0.4,0.1c-0.1,0-0.1,0.1-0.2,0.1l-0.2,0.1c-0.4,0.2-0.6,0.6-0.6,1.1c0,0.3,0.1,0.6,0.3,0.9c-0.5,0.1-0.9,0.2-1.4,0.2
			c-2.8,0-5.1-2.3-5.1-5.1s2.3-5.1,5.1-5.1c2.8,0,5.1,2.3,5.1,5.1C39.6,34.6,39.1,35.8,38.2,36.7z"/>
		<polygon class="st1" points="37.5,30.2 33.9,34.4 31.7,32.7 30.9,33.8 34,36.1 34.1,36.2 34.1,36.2 34.3,36.3 34.3,36 38.5,31 		
			"/>
	</g>
</g>
</svg>
