<?xml version="1.0" encoding="utf-8"?>
<!-- Generator: Adobe Illustrator 21.0.2, SVG Export Plug-In . SVG Version: 6.00 Build 0)  -->
<svg version="1.1" id="Layer_1" xmlns="http://www.w3.org/2000/svg" xmlns:xlink="http://www.w3.org/1999/xlink" x="0px" y="0px"
	 viewBox="0 0 74 74" style="enable-background:new 0 0 74 74;" xml:space="preserve">
<style type="text/css">
	.st0{fill:none;stroke:#006FAF;stroke-width:2;stroke-miterlimit:10;}
	.st1{fill:#006FAF;}
</style>
<title>Cloud &amp;amp; Infrastructure Services</title>
<circle class="st0" cx="37" cy="37" r="36"/>
<g>
	<g>
		<g>
			<g>
				<path class="st1" d="M37,53.6c-1.5,0-3.1-0.2-4.5-0.7v1.8l0.8,0.8c0.7,0.2,1.4,0.3,2.1,0.3c0.3,0.6,0.9,1,1.6,1
					c0.7,0,1.3-0.4,1.6-1c0.7-0.1,1.4-0.2,2.2-0.3l0.8-0.9v-1.7C40,53.3,38.5,53.6,37,53.6z"/>
			</g>
		</g>
	</g>
	<g>
		<path class="st1" d="M46.4,37.4c0-5.2-4.2-9.5-9.5-9.5s-9.5,4.2-9.5,9.5c0,2.9,1.3,5.5,3.4,7.3l0,0c1,0.8,1.8,1.8,2.4,2.9l0,0v0
			c1.1,0.5,2.3,0.7,3.6,0.7c1.3,0,2.6-0.3,3.8-0.8v0l0,0c0.6-1.1,1.4-2.1,2.4-2.9c0,0,0,0,0,0C45.1,42.9,46.4,40.3,46.4,37.4z
			 M40.3,39.5c0,1.5-1,2.4-2.4,2.6v1.1H36l0-1.2c-1.1-0.2-2.1-0.9-2.1-0.9l1.1-1.4c0,0,1,0.8,2.2,0.8c0.8,0,1.2-0.3,1.2-0.8v0
			c0-0.5-0.3-0.7-1.7-1.1c-1.7-0.4-2.8-0.9-2.8-2.6v0c0-1.3,0.9-2.2,2.1-2.5v-1l1.9,0v1c1,0.1,1.7,0.7,1.7,0.7l-0.9,1.5
			c0,0-0.7-0.6-1.8-0.6c-0.7,0-1.1,0.3-1.1,0.7v0c0,0.6,0.4,0.7,1.8,1.1C39.3,37.4,40.3,38,40.3,39.5L40.3,39.5z"/>
	</g>
	<g>
		<path class="st1" d="M36.9,50c-6.8,0-12.4-5.6-12.4-12.4c0,0,0,0,0,0l2,0l-2.9-3.4l-2.9,3.4h1.6c0,0,0,0,0,0
			c0,8.1,6.6,14.6,14.6,14.6c5.9,0,10.9-3.5,13.3-8.5l-1.7-1.7C46.7,46.7,42.2,50,36.9,50z"/>
	</g>
	<g>
		<path class="st1" d="M36.9,25.2c6.8,0,12.4,5.6,12.4,12.4c0,0,0,0,0,0l-2,0l2.9,3.4l2.9-3.4h-1.6c0,0,0,0,0,0v0
			C51.6,29.6,45,23,36.9,23c-5.9,0-11,3.5-13.3,8.5l1.7,1.7C27.2,28.6,31.7,25.2,36.9,25.2z"/>
	</g>
	<g>
		<g>
			<rect x="35.8" y="17.2" class="st1" width="2.4" height="2.4"/>
		</g>
	</g>
	<g>
		<g>
			
				<rect x="22.8" y="48.5" transform="matrix(0.7071 -0.7071 0.7071 0.7071 -28.1085 31.5459)" class="st1" width="2.4" height="2.4"/>
		</g>
	</g>
	<g>
		<g>
			
				<rect x="48.8" y="22.6" transform="matrix(0.7072 -0.7071 0.7071 0.7072 -2.1831 42.2794)" class="st1" width="2.4" height="2.4"/>
		</g>
	</g>
	<g>
		<g>
			
				<rect x="22.8" y="22.6" transform="matrix(0.7071 -0.7072 0.7072 0.7071 -9.776 23.9541)" class="st1" width="2.4" height="2.4"/>
		</g>
	</g>
	<g>
		<g>
			
				<rect x="48.8" y="48.5" transform="matrix(0.707 -0.7072 0.7072 0.707 -20.5153 49.8874)" class="st1" width="2.4" height="2.4"/>
		</g>
	</g>
	<g>
		<g>
			<rect x="17" y="35.6" class="st1" width="2.4" height="2.4"/>
		</g>
	</g>
	<g>
		<g>
			<rect x="54.6" y="35.6" class="st1" width="2.4" height="2.4"/>
		</g>
	</g>
</g>
</svg>
