<?xml version="1.0" encoding="utf-8"?>
<!-- Generator: Adobe Illustrator 21.0.2, SVG Export Plug-In . SVG Version: 6.00 Build 0)  -->
<svg version="1.1" id="Layer_1" xmlns="http://www.w3.org/2000/svg" xmlns:xlink="http://www.w3.org/1999/xlink" x="0px" y="0px"
	 viewBox="0 0 74 74" style="enable-background:new 0 0 74 74;" xml:space="preserve">
<style type="text/css">
	.st0{fill:none;stroke:#006FAF;stroke-width:2;stroke-miterlimit:10;}
	.st1{fill:#006FAF;}
</style>
<title>save-through-cost-effective-ux-delivery-model</title>
<circle class="st0" cx="37" cy="37" r="36"/>
<g>
	<path class="st1" d="M52.4,22.4H38.1L20.9,39.5c-0.5,0.5-0.5,1.2,0,1.7c0,0,0.1,0.1,0.2,0.1l9.9,9.9c0.5,0.5,1.4,0.6,1.9,0l0,0
		l0.8-1l1,1c0.4,0.5,1.2,0.6,1.7,0.1l0.1-0.1L53.6,34V23.5C53.5,22.8,53.2,22.4,52.4,22.4z M31.7,50.2l-9.9-9.9l16.7-16.5h1.9
		L24.9,39.4c-0.5,0.5-0.6,1.4,0,1.9l0,0l7.8,7.9L31.7,50.2z M51.8,33.3L51.8,33.3L35.4,49.6l-0.1-0.1l0,0l-9-8.9l0,0l-0.1-0.1
		l16.6-16.3l0,0l0,0h9v0.1l0,0L51.8,33.3L51.8,33.3z"/>
	<path class="st1" d="M45.1,33.5c1.5,0,2.8-1.2,2.8-2.8c0-1.5-1.2-2.8-2.8-2.8c-1.5,0-2.8,1.2-2.8,2.8l0,0
		C42.4,32.3,43.6,33.5,45.1,33.5z M45.1,29.4c0.8,0,1.4,0.6,1.4,1.4s-0.6,1.4-1.4,1.4c-0.8,0-1.4-0.6-1.4-1.4l0,0
		c0-0.7,0.5-1.3,1.2-1.4C45,29.4,45.1,29.4,45.1,29.4z"/>
	<rect x="33" y="38.7" transform="matrix(0.7071 -0.7071 0.7071 0.7071 -19.9672 36.21)" class="st1" width="1.4" height="7"/>
	<rect x="35" y="36.7" transform="matrix(0.7071 -0.7071 0.7071 0.7071 -17.9771 37.0212)" class="st1" width="1.4" height="7"/>
</g>
</svg>
