<?xml version="1.0" encoding="utf-8"?>
<!-- Generator: Adobe Illustrator 21.0.2, SVG Export Plug-In . SVG Version: 6.00 Build 0)  -->
<svg version="1.1" id="Layer_1" xmlns="http://www.w3.org/2000/svg" xmlns:xlink="http://www.w3.org/1999/xlink" x="0px" y="0px"
	 viewBox="0 0 144 100" style="enable-background:new 0 0 144 100;" xml:space="preserve">
<style type="text/css">
	.st0{fill:#777777;}
</style>
<g id="Layer_1_3_">
	<g id="Layer_1_1_">
	</g>
	<g id="Layer_1_2_">
	</g>
</g>
<g>
	<path class="st0" d="M67.8,32L67.8,32c-1.3,0.1-1.5,0.2-2.4,1l0,0c-1.3,1.3-2.6,5.9-3,7.6l0.5,0.2c0.1-0.2,0.2-0.5,0.4-0.8
		c0.7-1.6,1.9-4.5,2.9-5.6c-0.3,0.9-0.2,1.4,0,2.9l0.3,1.8l0.3-1.8c0.2-1.7,0.8-2.5,1.7-3.8l0.2-0.3c1.3-0.3,2.4-0.7,3.6-1.2
		l1.9-0.8l-2,0.2C70.6,31.7,69.2,31.8,67.8,32z"/>
	<path class="st0" d="M109.2,37.9c-0.3-1.7-0.8-4.1-1.8-6.1c-0.1-0.2-0.3-0.5-0.5-0.7c-0.3-0.3-0.7-0.6-1.2-0.8l0.2-0.8l-0.4,0.7
		c-0.1-0.1-0.3-0.1-0.4-0.2c-0.6-0.2-1.4-0.4-2.1,0c-0.2,0.1-0.4,0.2-0.5,0.4c-0.4,0.4-0.7,0.8-1,1.3v0.1c-0.3,0.5-0.6,0.9-1,1.3
		c-0.4,0.3-0.9,0.5-1.3,0.7c-0.2-0.5-0.5-1-0.8-1.4c-0.4-0.6-0.8-1.1-1.3-1.7c-0.4-0.5-0.8-0.8-1.3-1.2c-0.4-0.3-0.8-0.6-1.3-0.9
		c-1.3-0.8-2.4-1.8-3.5-2.8l-0.1-0.1c-0.5-0.4-1-0.9-1.4-1.3c-2.7-2.2-5.3-3.4-8.2-3.6c-2.5-0.2-5.3,0.5-9.1,2
		c-1.5,0.7-2.8,1.4-3.9,2.5c-1,0.9-1.7,1.9-2.7,3.2c-0.5,0-1,0.1-1.4,0.3c-0.6,0.2-1.2,0.6-1.8,1.2c-0.5,0.4-0.9,0.9-1.3,1.3
		c-0.4,0.4-0.8,0.8-1.2,1.2c-3.4,0.6-5.7,1.1-7.8,1.8c-2.3,0.9-4.3,2.1-6.4,3.9c-0.9,0.8-1.5,1.5-2.2,2.4c-0.6,0.8-1.2,1.6-1.6,2.6
		l-0.1,0.2c-0.1,0.1-0.3,0.3-0.4,0.4v-0.2c0.2-0.7,0.3-1.6,0.1-2.4c-0.1-0.5-0.4-1-0.7-1.3v-0.1c0.1-0.3,0.3-0.7,0.4-1l0.4-1.1
		l-1.1,0.2c-1,0.2-2.9,1.3-4.1,2.6c-0.6,0.6-1,1.2-1.3,1.7c-0.3,0.7-0.5,1.3-0.3,2c0.1,0.6,0.4,1.2,0.9,1.7c0.1,0.4,0.2,0.7,0.3,1
		c0.1,0.4,0.2,0.7,0.4,1c0.4,0.8,1.1,1.3,1.8,1.6c0.5,0.2,1.1,0.2,1.5,0.1c-0.1,0.6-0.1,1.3-0.2,1.8c0,1.1,0,2.2,0.1,3.6
		c0,0.3,0.1,0.6,0.1,1c0,0.3,0.1,0.6,0.1,0.9L39,58.4c-0.1,0.3-0.2,0.6-0.3,0.8l0.2,0.2c-0.4,0.4-0.7,0.7-1.1,1.1l-1.3,1.3
		c-0.8,0.8-1,1-0.8,2.3c0.1,0.8,0.4,1.6,0.8,2.4c0.4,0.8,0.9,1.4,1.5,2c0.8,0.8,2.1,1.8,3.5,2.3c0.7,0.3,1.4,0.4,2,0.4
		c-0.1,0.3-0.2,0.6-0.4,0.9c-0.9,1.8-0.3,3.2,1.6,4c0.8,0.3,1.6,0.6,2.4,0.8c0.2,0,0.3,0.1,0.6,0.2l0.2,0.1c1,0.3,2.5,0.7,3.9,0.8
		c2.1,0.1,3.4-0.5,3.8-1.9c0.2-0.6,0.3-1.1,0.3-1.5s0-0.8,0-1.3c0.4-1,0.6-1.3,1-1.7c0.1-0.1,0.2-0.2,0.2-0.3c0.4-0.6,0.6-1,0.7-1.4
		c0.1-0.4,0-0.9-0.1-1.4c0.9,0.1,1.6,0.2,2.5,0.2c0.1,0,0.2,0,0.4,0c-0.7,0.5-1.2,1.4-0.7,3.2c0.4,1.3,1.2,2.5,1.5,3.1
		c1.1,1.6,1.9,2.8,3.1,3.6c0.7,0.4,1.3,0.6,2,0.6c0.8,0,1.6-0.2,2.5-0.7c1-0.5,1.3-1.1,1.6-1.7l0.1-0.1c0.1-0.2,0.2-0.3,0.3-0.5
		c0.4-0.3,1.3-1.1,2.1-1.7l0.1-0.1c0.2-0.2,0.5-0.4,0.7-0.6c0.2,0.1,0.5,0.2,0.8,0.3c0.5,0.1,1.1,0.2,1.6,0.2s2,0,3.1,0h0.7
		c1.2,0,1.9-0.1,2.6-0.5c0.8-0.5,1.3-1.3,1.3-2.5c0-0.5,0.1-0.9,0-1.3s-0.2-0.7-0.4-1.1l-0.1-3.2c0-0.7-0.1-1.3-0.2-1.7
		c-0.1-0.6-0.4-1.1-0.6-1.6c-0.2-0.4-0.3-0.8-0.5-1.2c-0.2-0.4-0.3-0.8-0.5-1.3l0.8,0.8c0.7,0.7,1.3,1.3,2,1.6
		c0.9,0.5,1.7,0.7,2.7,0.7c1.2,0,2.4-0.5,3.4-1.3c1.1-0.8,1.8-1.7,2.1-2.8l0.4-1.3c1.5,0.3,3.2,0.3,4.6,0.1c1.7-0.2,3.2-0.6,4.4-1.3
		c1.8-1,3.4-2.5,4.4-4.3c1.1-1.8,1.8-4.2,2-6.7l0,0C109.7,43,109.6,40.3,109.2,37.9z M40,41.4L40,41.4L40,41.4L40,41.4z M38.7,41.1
		c-0.2,0.6-0.2,1.2-0.2,1.6c0,1-0.1,1.7-1,2.4l-0.2,0.1l0.1,0.2c0.1,0.2,0.2,0.4,0.2,0.5c0.5,1.2,0.8,1.5,2.4,1
		c0.3-0.1,0.6-0.3,0.9-0.5c-0.1,0.3-0.2,0.6-0.3,0.9l-0.1,0.2c-0.9,0.4-2.3,0.7-2.8-0.3c-0.3-0.6-0.4-1.2-0.7-1.8l-0.1-0.1
		c-0.5-0.5-0.6-1-0.6-1.5c0.2-1.1,1.3-2.2,2.2-3C38.8,40.8,38.7,41,38.7,41.1z M101,35.6c-0.7,0.4-1.2,0.3-1.9,0.2
		c0.2-0.2,0.6-0.3,1-0.4c0.5-0.2,1-0.4,1.4-0.7c0.5-0.4,1-1,1.3-1.5c0.3-0.4,0.6-0.8,1-1.1c0.2-0.2,0.4-0.2,0.6-0.2
		c0.1,0,0.1,0,0.2,0.1C103.8,33.7,102.6,34.9,101,35.6z M95.1,36L95.1,36c0.3,0,0.5,0.3,0.5,0.5l0,0c-0.3,0.1-0.5,0.1-0.9,0.2
		c-0.1-0.1-0.1-0.3-0.1-0.4C94.7,36.2,94.9,36,95.1,36z M95.7,31.8c0.6,0.8,1,1.4,1.4,2.3c-0.1,0-0.1,0-0.2-0.1
		c-0.2-0.1-0.4-0.2-0.7-0.2c-0.5-0.1-0.9,0.1-1.3,0.3c-0.6,0.3-1.3,0.5-1.8,0.6L92,35l1.1,0.4c0.2,0.1,0.6,0.1,1,0.1
		c0,0.1-0.1,0.2-0.1,0.4c0,0.4,0,0.8,0.2,1.2l0,0c-0.2,0.1-0.3,0.1-0.5,0.2l-1.9,0.9l2.1-0.3c1.2-0.2,2.1-0.2,3.2-0.1
		c0,0.2,0.1,0.5,0.1,0.7h-0.1c-0.7-0.5-1.3-0.4-2.2-0.2c-1.9,0.5-2.2,1.3-2.6,2.6c-0.2,0.5-0.4,1.2-0.7,1.7l0.5,0.3
		c0.5-0.6,0.7-1.1,1-1.5c0.5-0.9,0.9-1.6,2-1.9c-0.2,0.2-0.4,0.5-0.5,0.8c-0.3,0.8-0.3,1.5-0.4,2.2s-0.1,1.4-0.4,2.1l0.5,0.2
		c0.4-0.8,0.7-1.4,0.9-2.1c0.2-0.6,0.4-1.2,0.7-1.8c0.2-0.5,1.1-1.2,1.4-1.2h0.2c0.1,0.9,0.2,1.5,0.1,2.1c-0.1,1.3-0.4,3.2-0.6,3.9
		L96.6,47l0.9-1.1c0.6-0.8,1-2.2,1.3-3.6l0.1-0.6c0.3-1.3,0.3-2.9,0-4.5c-0.1-0.3-0.1-0.6,0-0.8c0.1,0,0.3,0.1,0.4,0.1
		c0.8,0.3,1.4,0.5,2.3,0.1c1.8-0.7,3.1-2,3.7-4.2c0.3,0.2,0.5,0.6,0.6,0.8c1.3,3.1,2,8.3,1.6,11.8c-0.4,3.3-1.9,7.6-5.4,9.5
		c-4,2.2-8.8,1-13.2-0.5c-0.8-0.3-1.3-0.6-2-1.1l-0.7-0.5h0.1c0.2-0.1,0.5-0.2,0.8-0.4c0.3-0.1,0.6-0.3,0.9-0.4l1.3-0.8L87.8,51
		c-0.3,0-0.7,0.1-1.1,0.2l-0.6,0.1c-1.3,0.2-1.4,0.7-1.6,1.7l-0.1,0.6c-0.1,0.4-0.1,0.8-0.2,1.1l-0.4,2.5l0.9-2.4
		c0.3-0.8,0.5-1.3,0.8-1.8c0.2-0.5,0.3-0.5,0.7-0.8l0.1,0.5c0.3,1.1,0.3,2,0,2.8c-0.4,1.2-0.9,2.8-0.2,3.9c0.3,0.5,0.7,0.8,1.3,0.9
		c0.9,0.2,1.3,0.2,2.4-0.5l1-0.5c-0.8,0.8-1.8,1.3-2.9,1.3c0,0,0,0-0.1,0c-1.3,0-2.3-0.9-3.3-1.7l-2.4-2.1L82,56.7
		c-2.1-0.7-3.6-1.4-5.2-2.6l-1.9-1.4l1.5,1.8c1.3,1.5,2.2,2.3,3.9,3.1c-0.2,1.8-0.7,3.3-1.3,4.8c-0.2,0.7-0.5,1.3-0.7,2
		c-0.4,1.2-3.1,5.7-3.9,6.1c-0.3,0.2-1.2,0.9-2.2,1.7c-1.1,0.8-2.2,1.7-2.5,1.9l-0.1,0.1c-0.1,0.2-0.3,0.4-0.4,0.6
		c-0.4,0.5-0.7,1.1-1.2,1.3c-2,1.1-3.4-1.1-4.5-2.9c-1.2-1.9-1.3-2.8-1.2-3.3c0.1-0.2,0.2-0.4,0.4-0.5c1.2-0.6,1.8-1.1,3-1.8h0.1
		c0.1,0.1,0.2,0.3,0.3,0.4c0.1,0.1,0.2,0.3,0.3,0.4l0.7,1.1l-0.3-2.3c-0.1-0.6-0.1-1.2,0-1.8l0.2-2l-0.4,0.3c-0.1,0.3-0.2,0.7-0.4,1
		c-0.2,0.3-0.3,0.7-0.4,1.1l-0.1,0.3c0,0.1-0.1,0.2-0.1,0.3c-2.7,0.6-5.4,0.6-8.2,0.1c-0.2-1.1-0.4-2-0.6-2.8l-0.4-1.8l-0.1,1.8
		c0,0.7,0,2.2,0,3.6v1.2c0,1.1-0.1,1.3-0.6,2.2c-0.2,0.2-0.3,0.4-0.4,0.6c-0.3,0.5-0.6,0.9-1.1,1.9v0.1v0.1c0.1,1,0.1,1.4-0.2,2.3
		c-0.1,0.3-0.7,1.1-5.2-0.2l-0.4-0.1c-1-0.3-2.4-0.7-2.8-1.3c-0.1-0.2-0.1-0.5,0-0.8c0.6-1.5,1-3.1,1.3-5.4v-0.1l-0.1-0.1
		c-2.8-3.9-4.6-8.7-5-12.3c-0.3-3.1-0.2-5.1,0.6-7.1c1.3-3.5,2.9-6,5.1-8.1c3-2.7,5.9-3.9,10.7-4.7c-0.9,1.1-1.8,2.1-2.8,3.3
		L55,38.7c-1.3,1.6-2.1,3.3-2.9,4.8c-1.3,2.4-1.2,3.4,0.4,5.5l0.5,0.7c1,1.3,1.5,2,2,3.5c-0.5,1-0.6,1.8-0.8,3.1v0.1l0.1,0.1
		c1.5,1.7,2.8,3,4.4,3.4c1.6,0.4,3,0.3,4.3-0.4c0.6-0.3,1.3-0.7,1.8-1c2.4-1.3,4.6-2.5,7.2-2.6h0.2l0.1-0.2
		c1.6-3.9,1.4-7.2,0.7-11.1c-0.5-2.5-0.7-4.8-0.9-7.6l-0.1-1.8l-0.4,1.7c-0.7,2.8-0.8,5.2-0.3,7.9c0.6,3.1,1,6.5-0.5,9.4
		c-2.4,0.2-4.6,1.4-6.7,2.6c-0.6,0.3-1.2,0.7-1.7,1c-1,0.5-2.1,0.6-3.3,0.3c-1.1-0.3-1.7-1-3-2.3c0-1.3,0.3-1.9,1-3.2
		c1.1-2.1,2.3-4.1,3.5-6.1l-0.5-0.3c-0.4,0.5-0.8,1-1.2,1.4c-1,1.2-1.9,2.3-2.8,3.6c-0.4-0.9-0.9-1.4-1.4-2.2
		c-0.2-0.3-0.4-0.6-0.7-0.9c-1.1-1.4-1.2-1.9-0.4-3.6l0.1-0.2c0.8-1.6,1.4-3.1,2.8-4.4c1-1.1,1.9-2.1,2.8-3.2
		c1.4-1.6,2.9-3.4,4.4-4.9c1.3-1.2,1.7-1.3,3.3-1.4l0.5-0.1c1.7-0.3,3.4-0.6,5.2-1l-0.1-0.6c-1.4,0.1-2.9,0.2-4.4,0.2
		c1.4-1.8,2.4-2.8,4.7-3.9c6.2-2.7,10.3-3.3,15.5,1.2c0.4,0.3,0.8,0.7,1.2,1c0.8,0.7,1.4,1.3,2.2,1.8c-0.3,0.1-0.6,0.2-0.9,0.3
		l0.2,0.5c0.6-0.1,1.3,0,2,0.1c0.2,0.1,0.4,0.2,0.5,0.3l0.1,0.1C94.6,30.6,95.1,30.9,95.7,31.8z M89.7,59.6c-0.1,0-0.2,0-0.3,0.1
		c1-0.2,1.7-0.8,1.9-1.6c0.1-0.2,0.1-0.4,0.1-0.6c0.1-0.3,0.1-0.6,0.3-1c0.2,0,0.3,0.1,0.5,0.1l-0.5,1.5c-0.1,0.4-0.3,0.8-0.6,1.1
		L89.7,59.6z M80.8,72.1h-0.5c-1,0-2.7,0-3.2-0.1c-0.5,0-0.9-0.1-1.2-0.2c1.4-1.3,3.5-5.1,3.9-6.5c0.2-0.6,0.4-1.2,0.6-1.7
		c0.2-0.6,0.4-1.1,0.6-1.6c0.1,0.3,0.2,0.6,0.4,1c0.5,1.1,0.7,1.6,0.7,2.7l0.1,3.6v0.1c0.4,0.6,0.4,0.7,0.3,1.3
		C82.4,72.1,82,72.1,80.8,72.1z M41.1,59.9c1.1,3.2,2.6,5.9,3.8,7.8c-0.1,0.4-0.2,0.7-0.4,1c-0.2,0.3-0.5,0.4-0.8,0.4
		c-1.3,0.1-3.2-1.3-3.9-2.1c-0.9-1-1.5-2-1.6-3.1c-0.1-0.6-0.1-0.6,0.3-1l0.1-0.1c0.8-0.8,1.4-1.5,2.2-2.2L41.1,59.9z M93.8,29.8
		L93.8,29.8L93.8,29.8L93.8,29.8z M40.7,44.5c-0.4,0.3-0.7,0.6-1.1,0.8c0.3-0.5,0.4-1.1,0.5-1.6c0.1,0.1,0.1,0.2,0.2,0.2L40.7,44.5
		L40.7,44.5z"/>
	<path class="st0" d="M87.5,38.5c0-0.2-0.1-0.4-0.2-0.6l0,0c-0.2-0.5-0.6-0.9-1-1.1c0.4-0.2,0.7-0.4,1-0.7l1.3-1.3l-1.7,0.8
		c-0.5,0.2-1.1,0.3-1.5,0.4c-0.7,0.1-1.3,0.3-1.9,0.7c-0.5,0.4-1.2,1.1-1.7,1.8c-0.5,0.6-0.9,1.1-1.3,1.4l-1.2,1l1.3-0.6
		c0.6-0.2,1.1-0.6,1.5-0.9c0,0.2,0.1,0.4,0.2,0.6c0.2,0.4,0.4,0.7,0.8,0.9l0.4-0.4c-0.1-0.1-0.1-0.1-0.1-0.2c-0.1-0.2-0.1-0.4,0-0.6
		c0.1-0.2,0.2-0.3,0.4-0.4c0.2-0.1,0.4-0.1,0.6,0c0.2,0.1,0.3,0.2,0.4,0.3c-0.5,0.4-0.9,0.8-1.2,1.2c-0.4,0.5-0.6,1-0.8,1.4
		l-0.5,1.4l1-1.2c1.6-1.9,3.9-3.4,6.3-4l1.8-0.5h-1.9C88.9,38.2,88.2,38.3,87.5,38.5z"/>
	<path class="st0" d="M82.7,31.8l2.4-1.2l-2.6,0.7c-3.4,0.9-4.4,2.3-3.9,4.9l0.3,1.3l0.3-1.3C79.4,34.9,80,33.2,82.7,31.8z"/>
</g>
</svg>
