<?xml version="1.0" encoding="utf-8"?>
<!-- Generator: Adobe Illustrator 21.0.2, SVG Export Plug-In . SVG Version: 6.00 Build 0)  -->
<svg version="1.1" id="Layer_1" xmlns="http://www.w3.org/2000/svg" xmlns:xlink="http://www.w3.org/1999/xlink" x="0px" y="0px"
	 viewBox="0 0 144 100" style="enable-background:new 0 0 144 100;" xml:space="preserve">
<style type="text/css">
	.st0{fill:#777777;}
</style>
<g id="Layer_1_3_">
	<g id="Layer_1_1_">
	</g>
	<g id="Layer_1_2_">
	</g>
</g>
<g>
	<path class="st0" d="M57.9,55.9l0,0.1c0.1,3.6-1.1,6.4-3.5,8.7c-2.4,2.2-5.6,3.3-9.6,3.3c-4.1,0-7.4-1.4-10-4.1
		c-2.6-2.8-3.8-6.3-3.8-10.6v-6.7c0-4.3,1.3-7.8,3.8-10.6c2.5-2.8,5.8-4.2,9.9-4.2c4.1,0,7.4,1.1,9.8,3.3c2.4,2.2,3.5,5.1,3.5,8.8
		l0,0.1h-5.7c0-2.4-0.6-4.2-1.9-5.5c-1.3-1.3-3.2-2-5.7-2c-2.4,0-4.3,0.9-5.7,2.8c-1.4,1.9-2.1,4.3-2.1,7.1v6.7
		c0,2.9,0.7,5.3,2.2,7.2s3.4,2.8,5.8,2.8c2.4,0,4.3-0.6,5.5-1.9s1.9-3.1,1.9-5.5H57.9z"/>
	<path class="st0" d="M76.3,48.2h9.2v5.3h-9.2V64h-5.7V53.6h-9.2v-5.3h9.2v-9.8h5.7V48.2z"/>
	<path class="st0" d="M103.8,48.2h9.2v5.3h-9.2V64h-5.7V53.6H89v-5.3h9.2v-9.8h5.7V48.2z"/>
</g>
</svg>
