<?xml version="1.0" encoding="utf-8"?>
<!-- Generator: Adobe Illustrator 21.0.2, SVG Export Plug-In . SVG Version: 6.00 Build 0)  -->
<svg version="1.1" id="Layer_1" xmlns="http://www.w3.org/2000/svg" xmlns:xlink="http://www.w3.org/1999/xlink" x="0px" y="0px"
	 viewBox="0 0 144 100" style="enable-background:new 0 0 144 100;" xml:space="preserve">
<style type="text/css">
	.st0{fill:#777777;}
</style>
<g id="Layer_1_3_">
	<g id="Layer_1_1_">
	</g>
	<g id="Layer_1_2_">
	</g>
</g>
<g>
	<path class="st0" d="M72.1,83.2c-0.8,0-1.8-0.2-2.5-0.6l-8-4.9c-1.2-0.6-0.6-0.8-0.2-1.1c1.7-0.6,2-0.6,3.7-1.7
		c0.2-0.1,0.4-0.1,0.6,0.1l6.2,3.7c0.2,0.1,0.6,0.1,0.7,0l24.4-14c0.2-0.1,0.4-0.4,0.4-0.6V35.9c0-0.3-0.1-0.5-0.4-0.6L72.6,21.1
		c-0.2-0.1-0.5-0.1-0.7,0L47.4,35.2c-0.2,0.1-0.4,0.4-0.4,0.6V64c0,0.3,0.1,0.5,0.4,0.6l6.6,3.9c3.6,1.9,5.9-0.3,5.9-2.4V38.3
		c0-0.4,0.3-0.6,0.6-0.6h3.2c0.4,0,0.6,0.3,0.6,0.6V66c0,4.9-2.6,7.6-7.2,7.6c-1.4,0-2.5,0-5.7-1.6L45,68.4
		c-1.6-0.8-2.5-2.6-2.5-4.4V35.9c0-1.9,0.9-3.5,2.5-4.4l24.4-14c1.6-0.8,3.6-0.8,5.2,0l24.4,14c1.6,0.8,2.5,2.6,2.5,4.4V64
		c0,1.9-0.9,3.5-2.5,4.4l-24.3,14C74,82.9,73,83.2,72.1,83.2z"/>
	<path class="st0" d="M79.7,63.9c-10.7,0-12.9-4.9-12.9-9c0-0.4,0.3-0.6,0.6-0.6h3.2c0.4,0,0.6,0.3,0.6,0.6c0.5,3.3,1.9,4.7,8.3,4.7
		c5.2,0,7.3-1.2,7.3-3.9c0-1.6-0.6-2.7-8.5-3.5c-6.6-0.6-10.8-2.1-10.8-7.5c0-4.9,4.2-7.8,11.2-7.8c7.8,0,11.7,2.7,12.2,8.5
		c0,0.2-0.1,0.4-0.2,0.6c-0.1,0.1-0.3,0.2-0.5,0.2H87c-0.3,0-0.6-0.2-0.6-0.6c-0.7-3.4-2.6-4.4-7.6-4.4c-5.6,0-6.2,2-6.2,3.4
		c0,1.8,0.7,2.2,8.3,3.3c7.5,0.9,11.1,2.4,11.1,7.6C91.8,60.8,87.4,63.9,79.7,63.9z"/>
</g>
</svg>
