<?xml version="1.0" encoding="utf-8"?>
<!-- Generator: Adobe Illustrator 21.0.2, SVG Export Plug-In . SVG Version: 6.00 Build 0)  -->
<svg version="1.1" id="Layer_1" xmlns="http://www.w3.org/2000/svg" xmlns:xlink="http://www.w3.org/1999/xlink" x="0px" y="0px"
	 viewBox="0 0 144 100" style="enable-background:new 0 0 144 100;" xml:space="preserve">
<style type="text/css">
	.st0{fill:#777777;}
</style>
<g id="Layer_1_3_">
	<g id="Layer_1_1_">
	</g>
	<g id="Layer_1_2_">
	</g>
</g>
<g>
	<g>
		<path class="st0" d="M67.7,69.3h-7.8v-15c0-3.2-0.2-5.2-0.5-6.1c-0.3-0.9-0.9-1.7-1.6-2.2s-1.6-0.8-2.7-0.8
			c-1.3,0-2.5,0.4-3.6,1.1c-1.1,0.7-1.8,1.7-2.2,2.9s-0.6,3.5-0.6,6.7v13.3h-7.8V40H48v4.3c2.6-3.3,5.8-5,9.7-5
			c1.7,0,3.3,0.3,4.7,0.9s2.5,1.4,3.2,2.4s1.2,2,1.5,3.3c0.3,1.2,0.4,3,0.4,5.2C67.7,51.1,67.7,69.3,67.7,69.3z"/>
		<path class="st0" d="M92.4,60l7.7,1.3c-1,2.8-2.6,5-4.7,6.5s-4.8,2.2-8,2.2c-5.1,0-8.9-1.7-11.3-5c-1.9-2.7-2.9-6-2.9-10.1
			c0-4.9,1.3-8.7,3.8-11.4s5.7-4.1,9.6-4.1c4.4,0,7.8,1.4,10.3,4.3c2.5,2.9,3.7,7.3,3.6,13.2H81.2c0.1,2.3,0.7,4.1,1.9,5.4
			s2.7,1.9,4.5,1.9c1.2,0,2.2-0.3,3.1-1C91.4,62.5,92,61.4,92.4,60z M92.9,52.1c-0.1-2.2-0.6-3.9-1.7-5.1s-2.4-1.8-4-1.8
			c-1.7,0-3.1,0.6-4.2,1.8s-1.6,2.9-1.6,5L92.9,52.1L92.9,52.1z"/>
		<path class="st0" d="M120.3,40v6.2H115V58c0,2.4,0.1,3.8,0.2,4.2s0.3,0.7,0.7,1s0.8,0.4,1.3,0.4c0.7,0,1.8-0.2,3.1-0.7l0.7,6
			c-1.8,0.8-3.8,1.2-6.1,1.2c-1.4,0-2.7-0.2-3.8-0.7s-1.9-1.1-2.5-1.8c-0.5-0.7-0.9-1.8-1.1-3c-0.2-0.9-0.2-2.7-0.2-5.5V46.3h-3.6
			V40h3.6v-5.8l7.8-4.5V40H120.3L120.3,40z"/>
	</g>
	
		<ellipse transform="matrix(0.9991 -4.339269e-02 4.339269e-02 0.9991 -2.761 1.3037)" class="st0" cx="28.6" cy="64.3" rx="5.6" ry="5.6"/>
</g>
</svg>
