<?xml version="1.0" encoding="utf-8"?>
<!-- Generator: Adobe Illustrator 21.0.2, SVG Export Plug-In . SVG Version: 6.00 Build 0)  -->
<svg version="1.1" id="Layer_1" xmlns="http://www.w3.org/2000/svg" xmlns:xlink="http://www.w3.org/1999/xlink" x="0px" y="0px"
	 viewBox="0 0 144 100" style="enable-background:new 0 0 144 100;" xml:space="preserve">
<style type="text/css">
	.st0{fill:#777777;}
</style>
<g id="Layer_1_3_">
	<g id="Layer_1_1_">
	</g>
	<g id="Layer_1_2_">
	</g>
</g>
<g id="__x0023_Layer_x0020_1">
	<path class="st0" d="M96.2,39.7c-0.4-1,0-2.1,1-2.5c1-0.4,2.1,0,2.5,1c0.5,1.1,0.9,2.2,1.2,3.4c0.2,0.6,0.4,1.3,0.5,1.9h2.9
		c1,0,1.8,0.8,1.9,1.8c0.1,0.8,0.2,1.5,0.2,2.3c0.1,0.7,0.1,1.5,0.1,2.4h0v0h0c0,0.8,0,1.6-0.1,2.4c-0.1,0.8-0.1,1.6-0.3,2.4
		c-0.1,1-0.9,1.6-1.9,1.6v0h-2.9c-0.4,1.8-0.9,3.5-1.6,5.1c-0.7,1.7-1.5,3.2-2.5,4.7l2,2c0.7,0.7,0.7,1.8,0.1,2.6
		c-1,1.3-2,2.4-3.1,3.5c-1.1,1.1-2.3,2.2-3.6,3.1c-0.8,0.6-1.8,0.5-2.5-0.2l0,0l-2-2c-1.5,1-3.1,1.8-4.7,2.5
		c-1.6,0.7-3.3,1.2-5.1,1.6v2.9c0,1-0.8,1.8-1.8,1.9c-0.8,0.1-1.5,0.2-2.3,0.2c-0.8,0.1-1.6,0.1-2.4,0.1s-1.6,0-2.4-0.1
		c-0.8-0.1-1.6-0.1-2.4-0.3c-1-0.1-1.6-0.9-1.6-1.9h0v-2.9c-1.8-0.4-3.5-0.9-5.1-1.6c-1.7-0.7-3.2-1.5-4.7-2.5l-2,2
		c-0.7,0.7-1.8,0.7-2.6,0.1c-1.3-1-2.4-2-3.5-3.1c-1.1-1.1-2.2-2.3-3.1-3.6c-0.6-0.8-0.5-1.8,0.2-2.5l0,0l11.4-11.4
		c0.2-0.2,0.3-0.3,0.5-0.4c0,0,0.1-0.1,0.1-0.1c0.9-0.5,2.1-0.2,2.6,0.7c1.3,2.3,3.1,4.1,5.4,5.5c2.1,1.3,4.6,2,7.3,2h0
		c4,0,7.6-1.6,10.3-4.3c2.6-2.6,4.3-6.3,4.3-10.3v0c0-0.3,0-0.5,0-0.6l0,0c0-0.1,0-0.3,0-0.6c-0.1-1.1,0.7-2,1.8-2
		c1.1-0.1,2,0.7,2,1.8c0,0.2,0,0.4,0,0.7l0,0c0,0.3,0,0.6,0,0.7v0c0,5.1-2.1,9.7-5.4,13c-3.3,3.3-7.9,5.4-13,5.4h0
		c-3.4,0-6.5-0.9-9.2-2.5c-2.1-1.2-4-2.9-5.4-4.9l-8.7,8.7c0.6,0.7,1.1,1.3,1.8,1.9c0.6,0.6,1.3,1.2,1.9,1.8l1.9-1.9l0,0
		c0.7-0.7,1.7-0.8,2.5-0.2c1.6,1.2,3.4,2.2,5.3,3c1.8,0.8,3.7,1.3,5.7,1.6c1,0.1,1.7,0.9,1.7,1.9v2.7c0.2,0,0.3,0,0.5,0
		c0.7,0,1.4,0.1,2.1,0.1s1.5,0,2.1-0.1c0.2,0,0.3,0,0.5,0v-2.7h0c0-0.9,0.7-1.7,1.6-1.9c2-0.3,4-0.9,5.8-1.7
		c1.9-0.8,3.6-1.8,5.2-2.9c0.7-0.6,1.9-0.6,2.5,0.1l1.9,1.9c0.7-0.6,1.3-1.1,1.9-1.8c0.6-0.6,1.2-1.3,1.8-1.9l-1.9-1.9l0,0
		c-0.7-0.7-0.8-1.7-0.2-2.5c1.2-1.6,2.2-3.4,3-5.3c0.8-1.8,1.3-3.7,1.6-5.7c0.1-1,0.9-1.7,1.9-1.7h2.7c0-0.2,0-0.3,0-0.5
		c0.1-0.7,0.1-1.5,0.1-2.1h0v0h0c0-0.7,0-1.4-0.1-2.1c0-0.2,0-0.3,0-0.5h-2.7v0c-0.9,0-1.7-0.7-1.9-1.6c-0.2-1.1-0.4-2.1-0.7-3.1
		C96.9,41.7,96.6,40.7,96.2,39.7z M47.8,60.3c0.4,1,0,2.1-1,2.5c-1,0.4-2.1,0-2.5-1c-0.5-1.1-0.9-2.3-1.2-3.4
		c-0.2-0.7-0.4-1.3-0.5-2h-2.9c-1,0-1.8-0.8-1.9-1.8c-0.1-0.8-0.2-1.5-0.2-2.3c-0.1-0.8-0.1-1.6-0.1-2.4c0-0.8,0-1.6,0.1-2.4
		c0.1-0.8,0.1-1.6,0.3-2.4c0.1-1,0.9-1.6,1.9-1.6v0h2.9c0.4-1.8,0.9-3.5,1.6-5.1c0.7-1.7,1.5-3.2,2.5-4.7l-2-2
		c-0.7-0.7-0.7-1.8-0.1-2.6c1-1.3,2-2.4,3.1-3.5c1.1-1.1,2.3-2.2,3.6-3.1c0.8-0.6,1.8-0.5,2.5,0.2l0,0l2,2c1.5-1,3.1-1.8,4.7-2.5
		c1.6-0.7,3.3-1.2,5.1-1.6v-2.9c0-1,0.8-1.8,1.8-1.9c0.8-0.1,1.5-0.2,2.3-0.2c0.7-0.1,1.5-0.1,2.4-0.1v0h0v0c0.8,0,1.6,0,2.4,0.1
		c0.8,0.1,1.6,0.1,2.4,0.3c1,0.1,1.6,0.9,1.6,1.9h0v2.9c1.8,0.4,3.5,0.9,5.1,1.6c1.7,0.7,3.2,1.5,4.7,2.5l2-2
		c0.7-0.7,1.8-0.7,2.6-0.1c1.3,1,2.4,2,3.5,3.1c1.1,1.1,2.2,2.3,3.1,3.6c0.6,0.8,0.5,1.8-0.2,2.5l0,0L87.9,43.2
		c-0.2,0.2-0.3,0.4-0.6,0.5c-0.9,0.5-2.1,0.2-2.6-0.7c-1.3-2.3-3.1-4.2-5.4-5.5c-2.2-1.3-4.7-2-7.3-2h0c-4,0-7.6,1.6-10.3,4.3
		c-2.6,2.6-4.3,6.3-4.3,10.3v0c0,0.3,0,0.4,0,0.5l0,0c0,0.1,0,0.3,0,0.5c0.1,1.1-0.7,2-1.8,2c-1.1,0.1-2-0.7-2-1.8
		c0-0.1,0-0.4,0-0.6l0,0c0-0.3,0-0.5,0-0.6v0c0-5.1,2.1-9.7,5.4-13c3.3-3.3,7.9-5.4,13-5.4h0c3.4,0,6.6,0.9,9.3,2.5
		c2.1,1.2,3.9,2.9,5.4,4.8l8.7-8.7c-0.6-0.7-1.1-1.3-1.8-1.9c-0.6-0.6-1.3-1.2-1.9-1.8l-1.9,1.9l0,0c-0.7,0.7-1.7,0.8-2.5,0.2
		c-1.6-1.2-3.4-2.2-5.3-3c-1.8-0.8-3.7-1.3-5.7-1.6c-1-0.1-1.7-0.9-1.7-1.9v-2.7c-0.2,0-0.3,0-0.5,0c-0.7-0.1-1.5-0.1-2.1-0.1v0h0v0
		c-0.7,0-1.4,0-2.1,0.1c-0.2,0-0.3,0-0.5,0v2.7h0c0,0.9-0.7,1.7-1.6,1.9c-2,0.3-4,0.9-5.8,1.7c-1.9,0.8-3.6,1.8-5.2,2.9
		c-0.7,0.6-1.9,0.6-2.5-0.1l-1.9-1.9c-0.7,0.6-1.3,1.1-1.9,1.8c-0.6,0.6-1.2,1.3-1.8,1.9l1.9,1.9l0,0c0.7,0.7,0.8,1.7,0.2,2.5
		c-1.2,1.6-2.2,3.4-3,5.3c-0.8,1.8-1.3,3.7-1.6,5.7c-0.1,1-0.9,1.7-1.9,1.7h-2.7c0,0.2,0,0.3,0,0.5c0,0.7-0.1,1.4-0.1,2.1
		c0,0.7,0,1.5,0.1,2.1c0,0.2,0,0.3,0,0.5h2.7v0c0.9,0,1.7,0.7,1.9,1.6c0.2,1.1,0.4,2.1,0.7,3.1C47.1,58.4,47.4,59.3,47.8,60.3z"/>
</g>
</svg>
