<?xml version="1.0" encoding="utf-8"?>
<!-- Generator: Adobe Illustrator 21.0.2, SVG Export Plug-In . SVG Version: 6.00 Build 0)  -->
<svg version="1.1" id="Layer_1" xmlns="http://www.w3.org/2000/svg" xmlns:xlink="http://www.w3.org/1999/xlink" x="0px" y="0px"
	 viewBox="0 0 144 100" style="enable-background:new 0 0 144 100;" xml:space="preserve">
<style type="text/css">
	.st0{fill:#777777;}
</style>
<g id="Layer_1_3_">
	<g id="Layer_1_1_">
	</g>
	<g id="Layer_1_2_">
	</g>
</g>
<g>
	<g>
		<path class="st0" d="M67.4,32.4c-7,0-15.1-1.5-15.1-5.9c0-4.2,8.1-5.9,15.1-5.9s15.1,1.5,15.1,5.9C82.5,31,74.4,32.4,67.4,32.4z
			 M56.2,26.6c0.9,0.9,4.8,2.2,11.2,2.2s10.3-1.3,11.2-2.2c-0.9-0.9-4.8-2.2-11.2-2.2S57.1,25.8,56.2,26.6z"/>
	</g>
	<g>
		<g>
			<polygon class="st0" points="78.8,51.9 78.8,42.6 76.4,42.6 76.4,53.8 84.3,53.8 84.5,51.9 			"/>
		</g>
		<g>
			<path class="st0" d="M60.8,49c-0.4-0.4-0.7-0.9-1.3-1.1c-0.9-0.4-1.7-0.7-2.6-0.9c-0.7-0.2-1.5-0.4-2-0.7c-0.4-0.4-0.4-1.1,0-1.5
				c0.6-0.2,1.1-0.4,1.7-0.4s1.1,0,1.5,0.4s0.6,0.7,0.6,1.3l2.4-0.2c0-1.1-0.4-1.8-1.1-2.6c-0.9-0.7-2.2-0.9-3.3-0.9
				c-0.7,0-1.5,0-2.2,0.4c-0.6,0.2-1.1,0.6-1.5,1.1c-0.4,0.6-0.6,1.1-0.6,1.7c0,0.9,0.4,1.7,1.1,2.2c0.7,0.6,1.7,0.9,2.6,1.1
				c0.9,0.4,1.3,0.4,1.8,0.6s0.7,0.4,0.9,0.6c0.2,0.2,0.2,0.6,0.2,0.7c0,0.6-0.2,0.9-0.6,1.1c-0.6,0.2-1.1,0.4-1.7,0.4
				s-1.3-0.2-1.7-0.6c-0.6-0.4-0.9-1.1-0.9-1.7L52,50.1c0.2,1.1,0.6,2,1.3,2.9c0.9,0.7,2.2,0.9,3.3,0.9c0.9,0.2,1.8,0,2.6-0.4
				c0.7-0.2,1.3-0.7,1.7-1.3c0.4-0.4,0.6-0.9,0.4-1.5C61.3,50.3,61.1,49.5,60.8,49z"/>
		</g>
		<g>
			<path class="st0" d="M73.7,50.6c0.2-0.7,0.4-1.7,0.4-2.6c0-1.5-0.4-2.9-1.5-4.2c-2.2-2-5.7-2-7.9,0c-1.1,1.3-1.7,2.8-1.8,4.2
				c0,1.5,0.4,2.9,1.5,4.2c1.1,1.1,2.6,1.8,4,1.7c0.9,0,1.8-0.2,2.6-0.6c0.6,0.4,1.1,0.7,1.7,1.1c0.4,0.2,0.7,0.2,1.1,0.4l0.9-1.7
				c-0.7-0.2-1.3-0.6-1.8-0.9C73.3,51.7,73.7,51.2,73.7,50.6z M71.4,49.9c0,0.6-0.2,0.9-0.6,1.3c-0.7-0.6-1.5-0.9-2.4-1.3L68,51.2
				c0.6,0.2,1.1,0.4,1.5,0.7c-0.4,0.2-0.6,0.2-0.9,0.2c-0.7,0-1.7-0.4-2.4-0.9c-0.7-0.9-0.9-1.8-0.9-2.9s0.2-2,0.9-2.9
				c1.3-1.3,3.3-1.3,4.6,0c0.7,0.9,0.9,1.8,0.9,2.9C71.6,48.8,71.6,49.4,71.4,49.9z"/>
		</g>
	</g>
	<g>
		<path class="st0" d="M70,72.3c0.4-6.1,5.3-11,11.6-11c3.7,0,7,1.7,9.2,4.4c0.6-0.2,1.1-0.2,1.5-0.4V25.8c-0.2-2.9-1.8-5.5-4.2-7
			c-4.4-3.1-11-4.6-20.6-4.6c-9.4,0-16.4,1.5-20.6,4.6c-2.6,1.7-4,4.2-4.4,7.2v45.2c0.2,2.8,2,5.1,4.4,6.4c3.7,2.2,9.4,3.5,17.1,3.5
			h1.8v-0.7c0-0.2,0-0.4,0-0.6C65.7,76.8,67.2,73.8,70,72.3z M62.3,77.5c-6.3-0.2-10.8-1.3-13.8-3.1c-1.5-0.7-2.4-2-2.4-3.3V26.2
			c0.2-1.8,1.1-3.3,2.8-4.4c3.7-2.6,9.9-3.9,18.6-3.9s14.7,1.3,18.6,3.9c1.7,0.9,2.6,2.6,2.6,4.2v34.8c-2.2-1.8-5.1-2.8-8.1-2.8
			c-7.2,0-12.9,5.7-13.2,12.7C64.6,72.2,63,74.5,62.3,77.5z"/>
	</g>
	<g>
		<path class="st0" d="M95.9,85.8H75.7c-3.3,0-6.1-2.8-6.1-6.1c0-2.4,1.5-4.6,3.5-5.5v-0.4c0-4.4,3.9-8.3,8.3-8.3
			c2.9,0,5.7,1.7,7.2,4c0.6-0.4,1.1-0.6,1.5-0.6c0.6-0.2,0.9-0.2,1.3-0.2c3.1,0,5.7,2.2,6.4,5.1c2.2,0.9,3.7,3.1,3.9,5.5
			C101.8,83,99.2,85.8,95.9,85.8z M81.6,68.8c-2.8,0-5,2.2-5,5v2.6l-2,0.9c-0.9,0.4-1.7,1.5-1.7,2.4c0,1.5,1.3,2.8,2.8,2.8h20
			c1.5,0,2.8-1.3,2.8-2.8c0-1.1-0.7-2.2-1.8-2.6l-1.5-0.7l-0.4-1.5c-0.4-1.5-1.7-2.6-3.1-2.6c0,0-0.2,0-0.6,0
			c-0.2,0-0.6,0.2-0.7,0.2l-2.9,1.7L86,71.4C85,69.9,83.4,68.8,81.6,68.8z"/>
	</g>
</g>
</svg>
