<?xml version="1.0" encoding="utf-8"?>
<!-- Generator: Adobe Illustrator 21.0.2, SVG Export Plug-In . SVG Version: 6.00 Build 0)  -->
<svg version="1.1" id="Layer_1" xmlns="http://www.w3.org/2000/svg" xmlns:xlink="http://www.w3.org/1999/xlink" x="0px" y="0px"
	 viewBox="0 0 144 100" style="enable-background:new 0 0 144 100;" xml:space="preserve">
<style type="text/css">
	.st0{fill:#777777;}
</style>
<g id="Layer_1_3_">
	<g id="Layer_1_1_">
	</g>
	<g id="Layer_1_2_">
	</g>
</g>
<g>
	<polygon class="st0" points="82.1,48.3 73.7,48.3 73.7,39.1 70.4,39.1 70.4,48.3 62,48.3 62,51.5 70.4,51.5 70.4,60.6 73.7,60.6 
		73.7,51.5 82.1,51.5 	"/>
	<polygon class="st0" points="65.3,63.1 57.7,63.1 57.7,54.9 54.9,54.9 54.9,63.1 47.4,63.1 47.4,65.6 54.9,65.6 54.9,73.8 
		57.7,73.8 57.7,65.6 65.3,65.6 	"/>
	<polygon class="st0" points="96.7,34 89.2,34 89.2,25.8 86.4,25.8 86.4,34 78.8,34 78.8,36.4 86.4,36.4 86.4,44.6 89.2,44.6 
		89.2,36.4 96.7,36.4 	"/>
	<polygon class="st0" points="78.4,72.1 73.3,72.1 73.3,66.5 70.9,66.5 70.9,72.1 65.8,72.1 65.8,74.4 70.9,74.4 70.9,80 73.3,80 
		73.3,74.4 78.4,74.4 	"/>
	<polygon class="st0" points="65.3,34 57.7,34 57.7,25.8 55,25.8 55,34 47.4,34 47.4,36.4 55,36.4 55,44.6 57.7,44.6 57.7,36.4 
		65.3,36.4 	"/>
	<polygon class="st0" points="102.4,48.8 97.4,48.8 97.4,43.1 95,43.1 95,48.8 89.8,48.8 89.8,51 95,51 95,56.6 97.4,56.6 97.4,51 
		102.4,51 	"/>
	<polygon class="st0" points="96.7,63.1 89.2,63.1 89.2,54.9 86.4,54.9 86.4,63.1 78.8,63.1 78.8,65.6 86.4,65.6 86.4,73.8 
		89.2,73.8 89.2,65.6 96.7,65.6 	"/>
	<polygon class="st0" points="71.2,20 71.2,25.5 66.2,25.5 66.2,27.2 71.2,27.2 71.2,32.8 73,32.8 73,27.2 78,27.2 78,25.5 73,25.5 
		73,20 	"/>
	<polygon class="st0" points="53.5,49 48.4,49 48.4,43.6 46.6,43.6 46.6,49 41.6,49 41.6,50.7 46.6,50.7 46.6,56.2 48.4,56.2 
		48.4,50.7 53.5,50.7 	"/>
</g>
</svg>
