<?xml version="1.0" encoding="utf-8"?>
<!-- Generator: Adobe Illustrator 21.0.2, SVG Export Plug-In . SVG Version: 6.00 Build 0)  -->
<svg version="1.1" id="Layer_1" xmlns="http://www.w3.org/2000/svg" xmlns:xlink="http://www.w3.org/1999/xlink" x="0px" y="0px"
	 viewBox="0 0 71.9 72.3" style="enable-background:new 0 0 71.9 72.3;" xml:space="preserve">
<style type="text/css">
	.st0{fill:#394148;}
	.st1{fill:#9E9E9E;}
	.st2{fill:#00AEEF;}
</style>
<title>forcing-businesses-to-embarkn</title>
<path class="st0" d="M24.7,8.2"/>
<path class="st1" d="M36,2.4c18.5,0,33.6,15.1,33.6,33.6h2c0-19.7-16-35.6-35.6-35.6S0.3,16.4,0.3,36.1h2C2.3,17.5,17.4,2.4,36,2.4z
	"/>
<path class="st1" d="M2.3,36.1h-2c0,19.7,16.1,35.7,35.7,35.7S71.6,55.7,71.6,36h-2c0,18.5-15.1,33.8-33.6,33.8
	C17.4,69.8,2.3,54.7,2.3,36.1z"/>
<path class="st2" d="M67.6,36.1C67.6,36.1,67.6,36.1,67.6,36.1L67.6,36.1C67.6,18.6,53.4,4.5,36,4.5c-11.3,0-21.2,5.9-26.8,14.8
	c0,0-0.1,0.1-0.1,0.1c-0.4,0.6-0.8,1.3-1.1,2c-0.1,0.1-0.1,0.2-0.2,0.3c-0.3,0.7-0.7,1.3-0.9,2c0,0,0,0.1,0,0.1
	c-0.3,0.7-0.5,1.4-0.8,2.1C6,26,5.9,26.1,5.9,26.3c-0.2,0.7-0.4,1.4-0.6,2.1c0,0.1-0.1,0.2-0.1,0.4c-0.2,0.6-0.3,1.3-0.4,2
	c0,0.1-0.1,0.3-0.1,0.4c-0.1,0.7-0.2,1.5-0.3,2.2c0,0.2,0,0.3,0,0.5c-0.1,0.8-0.1,1.5-0.1,2.3h0c0,0,0,0,0,0s0,0,0,0h0
	c0,17.5,14.2,31.6,31.7,31.6C53.4,67.8,67.6,53.6,67.6,36.1L67.6,36.1C67.6,36.1,67.6,36.1,67.6,36.1z"/>
</svg>
