<?xml version="1.0" encoding="utf-8"?>
<!-- Generator: Adobe Illustrator 21.0.2, SVG Export Plug-In . SVG Version: 6.00 Build 0)  -->
<svg version="1.1" id="Layer_1" xmlns="http://www.w3.org/2000/svg" xmlns:xlink="http://www.w3.org/1999/xlink" x="0px" y="0px"
	 viewBox="0 0 71.9 72.3" style="enable-background:new 0 0 71.9 72.3;" xml:space="preserve">
<style type="text/css">
	.st0{fill:#394148;}
	.st1{fill:#9E9E9E;}
	.st2{fill:#00AEEF;}
</style>
<title>forcing-businesses-to-embarkn</title>
<g>
	<path class="st0" d="M63.9,24.9"/>
	<path class="st1" d="M69.7,36.2c0,18.5-15.1,33.6-33.6,33.6v2c19.7,0,35.6-16,35.6-35.6S55.7,0.5,36,0.5v2
		C54.6,2.5,69.7,17.6,69.7,36.2z"/>
	<path class="st1" d="M36,2.5v-2C16.3,0.5,0.2,16.6,0.2,36.2s16.1,35.6,35.8,35.6v-2c-18.5,0-33.8-15.1-33.8-33.6
		C2.2,17.6,17.4,2.5,36,2.5z"/>
	<path class="st2" d="M54.4,61.6L54.4,61.6c10.8-7.8,16-21.8,11.6-35.2C61.9,13.7,50,4.5,35.9,4.5V36L17.1,61.4
		C28,69.3,43,69.8,54.4,61.6z"/>
</g>
</svg>
