<?xml version="1.0" encoding="utf-8"?>
<!-- Generator: Adobe Illustrator 20.0.0, SVG Export Plug-In . SVG Version: 6.00 Build 0)  -->
<svg version="1.1" id="Layer_1" xmlns="http://www.w3.org/2000/svg" xmlns:xlink="http://www.w3.org/1999/xlink" x="0px" y="0px"
	 viewBox="0 0 612 612" style="enable-background:new 0 0 612 612;" xml:space="preserve">
<style type="text/css">
	.st0{clip-path:url(#SVGID_2_);}
	.st1{fill-rule:evenodd;clip-rule:evenodd;fill:#5996CB;}
	.st2{fill:#65A0D3;}
	.st3{fill-rule:evenodd;clip-rule:evenodd;fill:#65A0D3;}
	.st4{fill:#5996CB;}
	
		.st5{fill-rule:evenodd;clip-rule:evenodd;fill:#65A0D3;stroke:#65A0D3;stroke-width:0.72;stroke-linecap:round;stroke-linejoin:round;stroke-miterlimit:22.9256;}
	
		.st6{fill-rule:evenodd;clip-rule:evenodd;fill:#5996CB;stroke:#65A0D3;stroke-width:0.72;stroke-linecap:round;stroke-linejoin:round;stroke-miterlimit:22.9256;}
	.st7{fill-rule:evenodd;clip-rule:evenodd;fill:none;stroke:#5996CB;stroke-width:0.9601;stroke-miterlimit:22.9256;}
	.st8{fill-rule:evenodd;clip-rule:evenodd;fill:none;stroke:#5996CB;stroke-width:0.72;stroke-miterlimit:22.9256;}
	
		.st9{fill-rule:evenodd;clip-rule:evenodd;fill:none;stroke:#FFFFFF;stroke-width:2.88;stroke-miterlimit:22.9256;stroke-dasharray:2.88,8.64;}
	.st10{opacity:0.2;fill-rule:evenodd;clip-rule:evenodd;fill:#191919;}
	.st11{fill-rule:evenodd;clip-rule:evenodd;fill:#FFFFFF;}
	.st12{fill-rule:evenodd;clip-rule:evenodd;fill:#356996;}
	.st13{fill-rule:evenodd;clip-rule:evenodd;fill:#CCCCCC;}
	.st14{fill:#FFFFFF;}
	.st15{fill:#CCCCCC;}
	.st16{fill:#356996;}
	.st17{fill:#A3C53A;}
</style>
<g>
	<g>
		<defs>
			<circle id="SVGID_1_" cx="306" cy="306" r="303.4"/>
		</defs>
		<clipPath id="SVGID_2_">
			<use xlink:href="#SVGID_1_"  style="overflow:visible;"/>
		</clipPath>
		<g class="st0">
			<rect x="-6.9" y="-12.3" class="st1" width="657.3" height="657.3"/>
			<g>
				<g>
					<polygon class="st2" points="525.6,317.9 525.4,322.4 538.4,322.4 538.2,317.9 					"/>
					<path class="st2" d="M538.1,316.8h12.1V294h-18.3v2.8h15V314H538h-6.1v2.8H538.1z M531.9,294h-18.3v22.8h12.1h6.2V314h-6.1
						h-8.9l0,0v-17.2h15V294z"/>
					<polygon class="st2" points="522.9,323.5 522.9,325.3 540.9,325.3 540.9,323.5 538.5,323.5 525.3,323.5 					"/>
				</g>
				<g>
					<path class="st2" d="M434.1,123.4c-11.3,0.1-20.5,9.3-20.5,20.6c0,3.4,0.9,6.8,2.5,9.8v-5.5c0-1,0.4-1.9,1-2.7
						c-0.1-0.5-0.1-1.1-0.1-1.6c0-9.5,7.7-17.2,17.1-17.2c9.5,0,17.1,7.8,17.1,17.2c0,0.6,0,1.2-0.1,1.8c0.5,0.8,0.9,1.6,0.9,2.6
						v5.7c1.7-3.1,2.6-6.6,2.6-10.1C454.6,132.7,445.4,123.5,434.1,123.4z"/>
					<path class="st2" d="M417.3,147.5c-0.1,0.3-0.1,0.6-0.1,0.9v5.3v2.4c0,2.4,2.8,4.3,6.3,4.3h2.7v-16.3h-2.7
						C420.4,144.1,417.9,145.6,417.3,147.5z"/>
					<path class="st2" d="M450.8,156.1v-2.5v-5.2c0-0.2,0-0.4-0.1-0.5c-0.4-2.1-3-3.8-6.3-3.8h-2.7v16.3h2.7
						C448,160.4,450.8,158.5,450.8,156.1z"/>
				</g>
				<g>
					<path class="st2" d="M129.5,302.3c1.2,0.8,2.6,1.2,4.1,1.2c4.1,0,7.4-3.3,7.4-7.4c0-4.1-3.3-7.4-7.4-7.4
						c-3.7,0-6.8,2.8-7.4,6.3h7.4h2.4l-1.6,1.8L129.5,302.3z"/>
					<path class="st2" d="M116.6,311.5v0.8v0.8v9.2c-2.1,0.3-3.6,1.3-3.6,2.5h10c0-1.1-1.3-2-3.1-2.4v-9.3v-0.8v-0.8l8.7-9.8
						l4.9-5.6h-7.4h-23.2L116.6,311.5z"/>
				</g>
				<g>
					<circle class="st3" cx="185.4" cy="131.7" r="17.1"/>
					<polygon class="st1" points="178.6,121.6 195.6,131.7 178.6,141.7 					"/>
				</g>
				<g>
					<circle class="st3" cx="379.4" cy="485.7" r="17.1"/>
					<polygon class="st1" points="372.6,475.6 389.6,485.7 372.6,495.7 					"/>
				</g>
				<g>
					<path class="st3" d="M306.2,107h1.9c5.5,0,5.7-6.2,0-6.2l-1.9,0v0.5c1.4,0,2.6,1.2,2.6,2.6c0,1.4-1.2,2.6-2.6,2.6V107z
						 M261,107h45.2v-0.5c-1.4,0-2.6-1.2-2.6-2.6c0-1.4,1.2-2.6,2.6-2.6v-0.5c-15.1,0-30.2,0-45.2,0v0.5c1.4,0,2.6,1.2,2.6,2.6
						c0,1.4-1.2,2.6-2.6,2.6V107z M259.1,107h1.9v-0.5l0,0c-1.4,0-2.6-1.2-2.6-2.6c0-1.4,1.2-2.6,2.6-2.6l0,0v-0.5l-1.9,0
						C253.3,100.8,253.6,107,259.1,107z"/>
					<circle class="st3" cx="287.1" cy="82.1" r="2.6"/>
					<path class="st3" d="M307.2,103.2l-17.8-19.9c-0.4-0.5-1.1-0.5-1.6-0.1l0,0c-0.5,0.4-0.5,1.1-0.1,1.6l17.8,19.9
						c0.4,0.5,1.1,0.5,1.6,0.1l0,0C307.6,104.3,307.6,103.6,307.2,103.2z"/>
					<circle class="st3" cx="280.1" cy="82.1" r="2.6"/>
					<path class="st3" d="M260,103.2l19.4-21.7c0.4-0.5,1.1-0.5,1.6-0.1l0,0c0.5,0.4,0.5,1.1,0.1,1.6l-19.4,21.7
						c-0.4,0.5-1.1,0.5-1.6,0.1l0,0C259.6,104.3,259.6,103.6,260,103.2z"/>
					<path class="st3" d="M298.7,108.8h9.1l-2.4,13.8c-0.5,3-2,5.2-6.5,5.2h-0.2v-4.1c0.6-0.3,1.2-1,1.3-1.7
						c0.2-1.6,0.4-3.1,0.6-4.7c0.2-1.6,0.4-3.1,0.6-4.7c0.1-1.1-0.7-1.9-1.8-1.9l0,0c-0.3,0-0.5,0-0.7,0.1V108.8z M291.2,108.8h7.5
						v1.9c-0.8,0.3-1.5,1-1.6,1.8c-0.2,1.6-0.3,3.1-0.5,4.7c-0.2,1.6-0.3,3.1-0.5,4.7c-0.1,1.1,0.6,1.9,1.7,1.9l0,0
						c0.3,0,0.6-0.1,0.9-0.2v4.1h-7.5v-4c0.8-0.2,1.5-1,1.5-1.9c0.1-1.6,0.2-3.1,0.4-4.7c0.1-1.6,0.2-3.1,0.4-4.7
						c0.1-1.1-0.8-1.9-1.9-1.9l0,0c-0.1,0-0.2,0-0.3,0V108.8z M283.6,108.8h7.6v1.8c-1,0.1-1.8,0.9-1.8,1.9
						c-0.1,1.6-0.1,3.1-0.2,4.7c-0.1,1.6-0.1,3.1-0.2,4.7c0,1.1,0.8,1.9,1.8,1.9l0,0c0.2,0,0.3,0,0.5-0.1v4h-7.6v-3.9
						c1,0,1.9-0.9,1.9-1.9c0-1.6,0.1-3.1,0.1-4.7c0-1.6,0-3.1,0.1-4.7c0-1.1-0.9-1.9-2-1.9l0,0h0V108.8z M276,108.8h7.6v1.8
						c-1.1,0-2.1,0.9-2,1.9c0,1.6,0,3.1,0.1,4.7c0,1.6,0,3.1,0.1,4.7c0,1.1,0.9,1.9,1.9,1.9l0,0h0v3.9H276v-4c0.2,0,0.3,0.1,0.5,0.1
						l0,0c1,0,1.8-0.9,1.8-1.9c-0.1-1.6-0.1-3.1-0.2-4.7c-0.1-1.6-0.1-3.1-0.2-4.7c0-1-0.8-1.8-1.8-1.9V108.8z M268.5,108.8h7.5v1.8
						c-0.1,0-0.2,0-0.3,0l0,0c-1.1,0-2,0.9-1.9,1.9c0.1,1.6,0.2,3.1,0.4,4.7c0.1,1.6,0.2,3.1,0.4,4.7c0.1,0.9,0.7,1.6,1.5,1.9v4
						h-7.5v-4.1c0.3,0.1,0.6,0.2,0.9,0.2l0,0c1,0,1.8-0.9,1.7-1.9c-0.2-1.6-0.3-3.1-0.5-4.7c-0.2-1.6-0.3-3.1-0.5-4.7
						c-0.1-0.8-0.7-1.5-1.6-1.8V108.8z M268.3,127.8c-4.5,0-6-2.2-6.5-5.2l-2.4-13.8h9.1v1.9c-0.2-0.1-0.5-0.1-0.7-0.1l0,0
						c-1.1,0-2,0.9-1.8,1.9c0.2,1.6,0.4,3.1,0.6,4.7c0.2,1.6,0.4,3.1,0.6,4.7c0.1,0.7,0.6,1.4,1.2,1.7v4.1H268.3z"/>
				</g>
				<g>
					<polygon class="st2" points="380.7,268.5 380.5,272.9 393.5,272.9 393.3,268.5 					"/>
					<path class="st2" d="M393.3,267.3h12.1v-22.8H387v2.8h15v17.2h-8.9H387v2.8H393.3z M387,244.6h-18.3v22.8h12.1h6.2v-2.8h-6.1
						H372l0,0v-17.2h15V244.6z"/>
					<polygon class="st2" points="378,274 378,275.8 396.1,275.8 396.1,274 393.6,274 380.5,274 					"/>
				</g>
				<g>
					<path class="st3" d="M238.5,316.8c6.8,0,12.4,5.5,12.4,12.4c0,4.5-2.4,8.4-5.9,10.6l-1.3,10.2h-10.4l-1.3-10.2
						c-3.5-2.2-5.9-6.1-5.9-10.6C226.1,322.4,231.6,316.8,238.5,316.8z"/>
					<g>
						<path class="st4" d="M236.5,344.7c0.1,0.3-0.1,0.5-0.4,0.6c-0.3,0.1-0.5-0.1-0.6-0.4l-2.1-8.6v-4l0,0.1c0,0,0-0.1,0-0.1v0
							c0.2,0.2,0.4,0.4,0.6,0.5c1.2,1,2.8,1.5,4.4,1.5c1.6,0,3.1-0.5,4.2-1.5c0.2-0.2,0.4-0.4,0.5-0.6c0.2-0.2,0.5-0.2,0.7-0.1
							c0.2,0.1,0.2,0.3,0.2,0.5l-3,12.3c-0.1,0.3-0.3,0.4-0.6,0.4c-0.3-0.1-0.4-0.3-0.4-0.6l2.6-10.7c-1.2,0.9-2.8,1.3-4.3,1.3
							c-1.6,0-3.2-0.5-4.5-1.4L236.5,344.7z M233.4,336.4l-0.9-3.7c-0.1-0.3,0.1-0.5,0.4-0.6c0.2,0,0.4,0,0.5,0.2l0,0.1v0
							c0,0,0,0,0-0.1l0,0.1V336.4z"/>
					</g>
					<path class="st3" d="M231.5,343.7h14.1l-0.7,6.6c-0.1,1.2-0.2,1.7-1.7,1.7h-9.2c-1.6,0-1.6-0.6-1.7-1.7L231.5,343.7z"/>
					<g>
						<path class="st2" d="M246,306.4c0.1-0.3,0.5-0.5,0.8-0.4c0.3,0.1,0.5,0.5,0.4,0.8l-2.7,7.5c-0.1,0.3-0.5,0.5-0.8,0.4
							c-0.3-0.1-0.5-0.5-0.4-0.8L246,306.4z"/>
						<path class="st2" d="M253.3,310.4c0.2-0.3,0.6-0.3,0.9-0.1c0.3,0.2,0.3,0.6,0.1,0.9l-5.1,6.1c-0.2,0.3-0.6,0.3-0.9,0.1
							c-0.3-0.2-0.3-0.6-0.1-0.9L253.3,310.4z"/>
						<path class="st2" d="M258.8,316.5c0.3-0.2,0.7-0.1,0.8,0.2c0.2,0.3,0.1,0.7-0.2,0.8l-6.9,4c-0.3,0.2-0.7,0.1-0.8-0.2
							c-0.2-0.3-0.1-0.7,0.2-0.8L258.8,316.5z"/>
						<path class="st2" d="M261.8,324.2c0.3-0.1,0.7,0.2,0.7,0.5c0.1,0.3-0.2,0.7-0.5,0.7l-7.8,1.4c-0.3,0.1-0.7-0.2-0.7-0.5
							c-0.1-0.3,0.2-0.7,0.5-0.7L261.8,324.2z"/>
						<path class="st2" d="M237.9,305.2c0-0.3,0.3-0.6,0.6-0.6c0.3,0,0.6,0.3,0.6,0.6v7.9c0,0.3-0.3,0.6-0.6,0.6
							c-0.3,0-0.6-0.3-0.6-0.6V305.2z"/>
						<path class="st2" d="M229.8,306.8c-0.1-0.3,0-0.7,0.4-0.8c0.3-0.1,0.7,0,0.8,0.4l2.7,7.5c0.1,0.3,0,0.7-0.4,0.8
							c-0.3,0.1-0.7,0-0.8-0.4L229.8,306.8z"/>
						<path class="st2" d="M222.8,311.1c-0.2-0.3-0.2-0.6,0.1-0.9c0.3-0.2,0.6-0.2,0.9,0.1l5.1,6.1c0.2,0.3,0.2,0.6-0.1,0.9
							c-0.3,0.2-0.6,0.2-0.9-0.1L222.8,311.1z"/>
						<path class="st2" d="M217.6,317.6c-0.3-0.2-0.4-0.5-0.2-0.8c0.2-0.3,0.5-0.4,0.8-0.2l6.9,4c0.3,0.2,0.4,0.5,0.2,0.8
							c-0.2,0.3-0.5,0.4-0.8,0.2L217.6,317.6z"/>
						<path class="st2" d="M215,325.4c-0.3-0.1-0.6-0.4-0.5-0.7c0.1-0.3,0.4-0.6,0.7-0.5l7.8,1.4c0.3,0.1,0.6,0.4,0.5,0.7
							c-0.1,0.3-0.4,0.6-0.7,0.5L215,325.4z"/>
					</g>
				</g>
				<g>
					<circle class="st2" cx="380.7" cy="387.4" r="3.6"/>
					<polygon class="st2" points="374.8,397.4 375.9,397.4 375.9,406.3 375.9,406.3 375.9,419.6 380.1,419.6 380.1,405.4 
						381.3,405.4 381.3,419.6 385.6,419.6 385.6,405.4 385.6,405.4 385.6,397.4 386.6,397.4 386.6,405.4 389.4,405.4 389.4,392.4 
						371.8,392.4 371.8,405.4 374.8,405.4 					"/>
					<circle class="st2" cx="400.6" cy="387.4" r="3.6"/>
					<polygon class="st2" points="407.9,405.4 410.8,405.4 407.2,392.4 394.3,392.4 390.5,405.4 393.4,405.4 395.5,397.4 
						396.4,397.4 392.6,411.8 395.8,411.8 395.8,419.6 400,419.6 400,411.8 401.2,411.8 401.2,419.6 405.5,419.6 405.5,411.8 
						408.7,411.8 404.7,397.5 405.7,397.6 					"/>
				</g>
				<g>
					<path class="st2" d="M543.2,220c1.9-2.4,3.1-5.4,3.1-8.7c0-3.3-1.1-6.3-3.1-8.7v7.9h1.9l0,0v1.6h-1.9V220z M540,223
						c1.2-0.8,2.3-1.8,3.2-3v-7.9h-1.9v-1.6h1.9v-7.9c-0.9-1.1-2-2.1-3.2-3v2.8l0.7-0.7l0,0l1.1,1.1l-1.9,1.9v13.2l1.9,1.9l-1.1,1.1
						l-0.7-0.7V223z M532.3,225.3c2.9,0,5.5-0.9,7.8-2.3v-2.8l-1.9-1.9l1.1-1.1l0,0l0.7,0.7v-13.2l-0.7,0.7l-1.1-1.1l1.9-1.9v-2.8
						c-2.2-1.5-4.9-2.3-7.8-2.3h0v1.2h0.8v3.7h-0.8v8l0.2,0.2l4.4-4.3l1.1,1.2l-5.5,5.4l-0.2-0.2v8h0.8v3.7l0,0h-0.8L532.3,225.3
						L532.3,225.3z M532.3,197.2c-2.9,0-5.5,0.9-7.8,2.3v2.8l1.9,1.9l-1.1,1.1l-0.7-0.7v13.2l0.7-0.7l1.1,1.1l-1.9,1.9v2.8
						c2.2,1.5,4.9,2.3,7.8,2.3v-1.2h-0.8v-3.7h0.8v-8l-3.4-3.3l1.1-1.2l0,0l2.3,2.2v-8h-0.8v-3.7l0,0h0.8V197.2z M524.5,199.6
						c-1.2,0.8-2.3,1.8-3.2,3v7.9h1.9l0,0v1.6h-1.9v7.9c0.9,1.1,2,2.1,3.2,3v-2.8l-0.7,0.7l0,0l-1.1-1.1l1.9-1.9v-13.2l-1.9-1.9
						l1.1-1.1l0,0l0.7,0.7V199.6z M521.3,202.5c-1.9,2.4-3.1,5.4-3.1,8.7c0,3.3,1.1,6.3,3.1,8.7v-7.9h-1.9v-1.6h1.9V202.5z"/>
				</g>
				<g>
					<path class="st2" d="M371,587.6c1.9-2.4,3.1-5.4,3.1-8.7c0-3.3-1.1-6.3-3.1-8.7v7.9h1.9l0,0v1.6H371V587.6z M367.8,590.5
						c1.2-0.8,2.3-1.8,3.2-3v-7.9h-1.9V578h1.9v-7.9c-0.9-1.1-2-2.1-3.2-3v2.8l0.7-0.7l0,0l1.1,1.1l-1.9,1.9v13.2l1.9,1.9l-1.1,1.1
						l-0.7-0.7V590.5z M360,592.9c2.9,0,5.5-0.9,7.8-2.3v-2.8l-1.9-1.9l1.1-1.1l0,0l0.7,0.7v-13.2L367,573l-1.1-1.1l1.9-1.9v-2.8
						c-2.2-1.5-4.9-2.3-7.8-2.3h0v1.2h0.8v3.7H360v8l0.2,0.2l4.4-4.3l1.1,1.2l-5.5,5.4L360,580v8h0.8v3.7l0,0H360L360,592.9
						L360,592.9z M360,564.8c-2.9,0-5.5,0.9-7.8,2.3v2.8l1.9,1.9L353,573l-0.7-0.7v13.2l0.7-0.7l1.1,1.1l-1.9,1.9v2.8
						c2.2,1.5,4.9,2.3,7.8,2.3v-1.2h-0.8V588h0.8v-8l-3.4-3.3l1.1-1.2l0,0l2.3,2.2v-8h-0.8V566l0,0h0.8V564.8z M352.2,567.2
						c-1.2,0.8-2.3,1.8-3.2,3v7.9h1.9l0,0v1.6H349v7.9c0.9,1.1,2,2.1,3.2,3v-2.8l-0.7,0.7l0,0l-1.1-1.1l1.9-1.9v-13.2l-1.9-1.9
						l1.1-1.1l0,0l0.7,0.7V567.2z M349,570.1c-1.9,2.4-3.1,5.4-3.1,8.7c0,3.3,1.1,6.3,3.1,8.7v-7.9h-1.9V578h1.9V570.1z"/>
				</g>
				<g>
					<path class="st2" d="M479.7,236.5c0.6,0,1.2,0,1.9,0.1l0.8-2.8l5.9,1.8l-0.8,2.8c2.1,1.1,3.9,2.6,5.4,4.4l2.6-1.4l2.9,5.4
						l-2.6,1.4c0.7,2.2,0.9,4.6,0.7,6.9l2.8,0.8l-1.8,5.9l-2.8-0.8c-1.1,2.1-2.6,3.9-4.4,5.4l1.4,2.6l-5.4,2.9l-1.4-2.6
						c-1.6,0.5-3.3,0.8-5.1,0.8v-4.4c5.3,0,10.2-3.4,11.9-8.8c2-6.6-1.7-13.5-8.3-15.5c-1.2-0.4-2.4-0.5-3.6-0.5V236.5z
						 M469.2,240.1l-1.4-2.6l5.4-2.9l1.4,2.6c1.6-0.5,3.3-0.8,5.1-0.8v4.4c-5.3,0-10.2,3.4-11.9,8.8c-2,6.6,1.7,13.5,8.3,15.5l0,0
						c1.2,0.4,2.4,0.5,3.6,0.5v4.4c-0.6,0-1.2,0-1.9-0.1l-0.8,2.8l-5.9-1.8l0.8-2.8c-2.1-1.1-3.9-2.6-5.4-4.4l-2.6,1.4l-2.9-5.4
						l2.6-1.4c-0.7-2.2-0.9-4.6-0.7-6.9l-2.8-0.8l1.8-5.9l2.8,0.8C465.9,243.4,467.4,241.6,469.2,240.1z"/>
					<path class="st2" d="M459.4,271.1c0.4,0,0.8,0,1.1,0.1l0.5-1.7l3.6,1.1l-0.5,1.7c1.3,0.7,2.4,1.6,3.3,2.7l1.6-0.8l1.8,3.3
						l-1.6,0.8c0.4,1.3,0.6,2.8,0.4,4.2l1.7,0.5l-1.1,3.6l-1.7-0.5c-0.7,1.3-1.6,2.4-2.7,3.3l0.8,1.6l-3.3,1.8l-0.8-1.6
						c-1,0.3-2,0.5-3.1,0.5v-2.7c3.2,0,6.2-2.1,7.2-5.3c1.2-4-1-8.2-5-9.4c-0.7-0.2-1.5-0.3-2.2-0.3V271.1z M453.1,273.3l-0.8-1.6
						l3.3-1.8l0.8,1.6c1-0.3,2-0.5,3.1-0.5v2.7c-3.2,0-6.2,2.1-7.2,5.3c-1.2,4,1,8.2,5,9.4l0,0c0.7,0.2,1.5,0.3,2.2,0.3v2.7
						c-0.4,0-0.8,0-1.1-0.1l-0.5,1.7l-3.6-1.1l0.5-1.7c-1.3-0.7-2.4-1.6-3.3-2.7l-1.6,0.8l-1.8-3.3l1.6-0.8
						c-0.4-1.3-0.6-2.8-0.4-4.2l-1.7-0.5l1.1-3.6l1.7,0.5C451.1,275.3,452,274.2,453.1,273.3z"/>
				</g>
				<g>
					<path class="st2" d="M161.9,452.1c-3.6-5.4-9.5-8.3-15.5-8.3v3.5c4.9,0,9.7,2.4,12.6,6.8c4.7,7,2.8,16.4-4.2,21.1
						c-2.6,1.7-5.5,2.6-8.4,2.5v3.5c3.6,0,7.2-1,10.4-3.1C165.3,472.3,167.6,460.7,161.9,452.1z M146.4,443.8c-3.6,0-7.2,1-10.4,3.1
						c-8.6,5.7-10.9,17.3-5.2,25.9c3.6,5.4,9.5,8.3,15.5,8.3v-3.5c-4.9,0-9.7-2.4-12.6-6.8l0,0c-4.7-7-2.8-16.4,4.2-21.1
						c2.6-1.7,5.5-2.6,8.4-2.5V443.8z"/>
					
						<rect x="115.9" y="474.2" transform="matrix(0.8322 -0.5544 0.5544 0.8322 -243.3467 149.2563)" class="st2" width="18.2" height="5"/>
					
						<rect x="116.9" y="475.3" transform="matrix(0.8323 -0.5544 0.5544 0.8323 -244.3687 148.3778)" class="st2" width="12.3" height="5.4"/>
					<path class="st2" d="M112.5,490.2c-2,1.3-4.6,0.8-6-1.2c-1.3-2-0.8-4.6,1.2-6l15.2-10.1c1.1-0.8,2.5-0.9,3.7-0.5l3,4.5
						c-0.1,1.3-0.8,2.4-1.9,3.2L112.5,490.2z"/>
					<path class="st2" d="M112.4,490c-1.9,1.2-4.4,0.7-5.6-1.1c-1.2-1.9-0.7-4.4,1.1-5.6l14.3-9.5c1.9-1.2,4.4-0.7,5.6,1.1
						c1.2,1.9,0.7,4.4-1.1,5.6L112.4,490z"/>
				</g>
				<g>
					<path class="st3" d="M274,414.1l-13.4-23.2c-1.3-2.3-2.2-5-2.2-7.9c0-8.6,7-15.6,15.6-15.6c8.6,0,15.6,7,15.6,15.6
						c0,2.9-0.8,5.6-2.2,7.9L274,414.1z"/>
					<path class="st1" d="M274,394c6.1,0,11-4.9,11-11c0-6.1-4.9-11-11-11c-6.1,0-11,4.9-11,11C263,389.1,267.9,394,274,394z"/>
				</g>
				<g>
					
						<rect x="321" y="171.7" transform="matrix(0.5462 -0.8376 0.8376 0.5462 -11.4601 358.5046)" class="st5" width="8.3" height="36.2"/>
					
						<rect x="322.6" y="173.4" transform="matrix(0.5462 -0.8377 0.8377 0.5462 -11.4554 358.5139)" class="st6" width="5.1" height="32.9"/>
					<path class="st5" d="M303,169.1c3.1-1.5,6.8-1.3,9.8,0.7c4.7,3,6,9.3,2.9,13.9c-3,4.7-9.3,6-13.9,2.9c-3-2-4.7-5.3-4.6-8.7
						l4.8,3.1l2.5,1.7l2.7-1.4l2.7-1.4l0.2-3l0.2-3l-2.5-1.7L303,169.1z"/>
					<path class="st5" d="M353,201.7c0.1-3.4-1.5-6.7-4.6-8.7c-4.7-3-10.9-1.7-13.9,2.9c-3,4.7-1.7,10.9,2.9,13.9
						c3,2,6.8,2.1,9.8,0.7l-4.8-3.1l-2.5-1.7l0.2-3l0.2-3l2.7-1.4l2.7-1.4l2.5,1.7L353,201.7z"/>
					<path class="st6" d="M350.8,198.4c-0.6-1.6-1.8-3-3.3-4c-3.9-2.5-9.1-1.4-11.7,2.5c-2.5,3.9-1.4,9.1,2.5,11.7
						c1.5,1,3.2,1.4,5,1.4l-5-3.3l0.4-7.9l7.1-3.6L350.8,198.4z"/>
					<path class="st6" d="M299.4,181.3c0.6,1.6,1.8,3,3.3,4c3.9,2.5,9.1,1.4,11.7-2.5c2.5-3.9,1.4-9.1-2.5-11.7
						c-1.5-1-3.2-1.4-5-1.4l5,3.3l-0.4,7.9l-7.1,3.6L299.4,181.3z"/>
				</g>
				<g>
					<path class="st2" d="M497.8,154.1c3.2,0,5.8-2.6,5.8-5.8c0,0,0,0,0,0v-19h18.8v13.5c-0.7-0.3-1.4-0.4-2.2-0.4
						c-3.2,0-5.8,2.6-5.8,5.8c0,3.2,2.6,5.8,5.8,5.8c3.2,0,5.8-2.6,5.8-5.8c0,0,0,0,0,0h0v-19v-7.3h-3.7h-18.8H500v7.3v13.5
						c-0.7-0.3-1.4-0.4-2.2-0.4c-3.2,0-5.8,2.6-5.8,5.8C492,151.5,494.6,154.1,497.8,154.1z"/>
				</g>
				<g>
					<path class="st2" d="M522.5,383.2c-0.6,0.6-1.7,0.6-2.3,0l-0.6-0.6c-0.6-0.6-1.9-1.2-2.8-1.2h-12.7c-0.9,0-1.9-0.7-2.2-1.5
						l-5.4-14.9c-0.7-2,0.4-3.6,2.5-3.6h10.5c0.5-1.5,0.2-2.8-0.2-3.4c-0.7-1-2.4-2.8-2.1-5.5c0.1-0.9,0.6-2.3,1.2-3
						c1.6-2.1,3.8-1.6,3.8,0.3c0,2.2-1.2,4.4,3,7.1c4.1,2.7,6.9,8,6.9,8c0,0,0.5,0.5,1.2,1.2l7,7c0.6,0.6,0.6,1.7,0,2.3L522.5,383.2
						z"/>
					
						<rect x="521.9" y="379.9" transform="matrix(0.7071 -0.7071 0.7071 0.7071 -114.935 485.3582)" class="st2" width="13.2" height="3"/>
				</g>
				<g>
					<path class="st3" d="M152.5,382.8h1.9c5.5,0,5.7-6.2,0-6.2l-1.9,0v0.5c1.4,0,2.6,1.2,2.6,2.6c0,1.4-1.2,2.6-2.6,2.6V382.8z
						 M107.3,382.8h45.2v-0.5c-1.4,0-2.6-1.2-2.6-2.6c0-1.4,1.2-2.6,2.6-2.6v-0.5c-15.1,0-30.2,0-45.2,0v0.5c1.4,0,2.6,1.2,2.6,2.6
						c0,1.4-1.2,2.6-2.6,2.6V382.8z M105.4,382.8h1.9v-0.5l0,0c-1.4,0-2.6-1.2-2.6-2.6c0-1.4,1.2-2.6,2.6-2.6l0,0v-0.5l-1.9,0
						C99.7,376.6,99.9,382.8,105.4,382.8z"/>
					<circle class="st3" cx="133.4" cy="357.9" r="2.6"/>
					<path class="st3" d="M153.6,379l-17.8-19.9c-0.4-0.5-1.1-0.5-1.6-0.1l0,0c-0.5,0.4-0.5,1.1-0.1,1.6l17.8,19.9
						c0.4,0.5,1.1,0.5,1.6,0.1l0,0C153.9,380.2,154,379.5,153.6,379z"/>
					<circle class="st3" cx="126.5" cy="357.9" r="2.6"/>
					<path class="st3" d="M106.3,379l19.4-21.7c0.4-0.5,1.1-0.5,1.6-0.1l0,0c0.5,0.4,0.5,1.1,0.1,1.6L108,380.5
						c-0.4,0.5-1.1,0.5-1.6,0.1l0,0C105.9,380.2,105.9,379.5,106.3,379z"/>
					<path class="st3" d="M145,384.7h9.1l-2.4,13.8c-0.5,3-2,5.2-6.5,5.2H145v-4.1c0.6-0.3,1.2-1,1.3-1.7c0.2-1.6,0.4-3.1,0.6-4.7
						c0.2-1.6,0.4-3.1,0.6-4.7c0.1-1.1-0.7-1.9-1.8-1.9l0,0c-0.3,0-0.5,0-0.7,0.1V384.7z M137.5,384.7h7.5v1.9
						c-0.8,0.3-1.5,1-1.6,1.8c-0.2,1.6-0.3,3.1-0.5,4.7c-0.2,1.6-0.3,3.1-0.5,4.7c-0.1,1.1,0.6,1.9,1.7,1.9l0,0
						c0.3,0,0.6-0.1,0.9-0.2v4.1h-7.5v-4c0.8-0.2,1.5-1,1.5-1.9c0.1-1.6,0.2-3.1,0.4-4.7c0.1-1.6,0.2-3.1,0.4-4.7
						c0.1-1.1-0.8-1.9-1.9-1.9l0,0c-0.1,0-0.2,0-0.3,0V384.7z M129.9,384.7h7.6v1.8c-1,0.1-1.8,0.9-1.8,1.9
						c-0.1,1.6-0.1,3.1-0.2,4.7c-0.1,1.6-0.1,3.1-0.2,4.7c0,1.1,0.8,1.9,1.8,1.9l0,0c0.2,0,0.3,0,0.5-0.1v4h-7.6v-3.9
						c1,0,1.9-0.9,1.9-1.9c0-1.6,0.1-3.1,0.1-4.7c0-1.6,0-3.1,0.1-4.7c0-1.1-0.9-1.9-2-1.9l0,0h0V384.7z M122.3,384.7h7.6v1.8
						c-1.1,0-2.1,0.9-2,1.9c0,1.6,0,3.1,0.1,4.7c0,1.6,0,3.1,0.1,4.7c0,1.1,0.9,1.9,1.9,1.9l0,0h0v3.9h-7.6v-4
						c0.2,0,0.3,0.1,0.5,0.1l0,0c1,0,1.8-0.9,1.8-1.9c-0.1-1.6-0.1-3.1-0.2-4.7c-0.1-1.6-0.1-3.1-0.2-4.7c0-1-0.8-1.8-1.8-1.9V384.7
						z M114.8,384.7h7.5v1.8c-0.1,0-0.2,0-0.3,0l0,0c-1.1,0-2,0.9-1.9,1.9c0.1,1.6,0.2,3.1,0.4,4.7c0.1,1.6,0.2,3.1,0.4,4.7
						c0.1,0.9,0.7,1.6,1.5,1.9v4h-7.5v-4.1c0.3,0.1,0.6,0.2,0.9,0.2l0,0c1,0,1.8-0.9,1.7-1.9c-0.2-1.6-0.3-3.1-0.5-4.7
						c-0.2-1.6-0.3-3.1-0.5-4.7c-0.1-0.8-0.7-1.5-1.6-1.8V384.7z M114.6,403.6c-4.5,0-6-2.2-6.5-5.2l-2.4-13.8h9.1v1.9
						c-0.2-0.1-0.5-0.1-0.7-0.1l0,0c-1.1,0-2,0.9-1.8,1.9c0.2,1.6,0.4,3.1,0.6,4.7c0.2,1.6,0.4,3.1,0.6,4.7c0.1,0.7,0.6,1.4,1.2,1.7
						v4.1H114.6z"/>
				</g>
				<g>
					<path class="st2" d="M542.8,429.2c3,0,5.5-2.5,5.5-5.5c0,0,0,0,0,0v-17.9H566v12.8c-0.6-0.3-1.3-0.4-2-0.4
						c-3,0-5.5,2.5-5.5,5.5c0,3,2.5,5.5,5.5,5.5s5.5-2.5,5.5-5.5c0,0,0,0,0,0l0,0v-17.9v-6.9H566h-17.7h-3.5v6.9v12.8
						c-0.6-0.3-1.3-0.4-2-0.4c-3,0-5.5,2.5-5.5,5.5C537.3,426.8,539.8,429.2,542.8,429.2z"/>
				</g>
				<g>
					<g>
						<g>
							<path class="st3" d="M62.2,317.9h0.3c3.7,0,6.8,3.1,6.8,6.8v25.5c0,3.7-3.1,6.8-6.8,6.8h-0.3v-29.4c1.4,0,2.6-1.2,2.6-2.6
								c0-1.4-1.2-2.6-2.6-2.6V317.9z M37.3,317.9h24.9v4.5h0c-1.4,0-2.6,1.2-2.6,2.6c0,1.4,1.2,2.6,2.6,2.6h0V357H37.3v-29.4
								c1.4,0,2.6-1.2,2.6-2.6c0-1.4-1.2-2.6-2.6-2.6V317.9z M37,317.9h0.3v4.5c-1.4,0-2.6,1.2-2.6,2.6c0,1.4,1.2,2.6,2.6,2.6V357
								H37c-3.7,0-6.8-3.1-6.8-6.8v-25.5C30.2,321,33.3,317.9,37,317.9z"/>
							<path class="st3" d="M37.3,316L37.3,316c0.6,0,1,0.5,1,1v6.9c0,0.6-0.5,1-1,1h0c-0.6,0-1-0.5-1-1V317
								C36.3,316.5,36.8,316,37.3,316z"/>
							<path class="st3" d="M62.2,316L62.2,316c0.6,0,1,0.5,1,1v6.9c0,0.6-0.5,1-1,1h0c-0.6,0-1-0.5-1-1V317
								C61.2,316.5,61.7,316,62.2,316z"/>
						</g>
						<g>
							<path class="st4" d="M45.3,352.8h-3.5v-13.3c-1.3,1.2-2.8,2.1-4.5,2.7V339c0.9-0.3,1.9-0.9,3-1.7c1.1-0.8,1.8-1.8,2.2-2.9
								h2.9V352.8z"/>
							<path class="st4" d="M50.6,348l3.5-0.4c0.1,0.8,0.4,1.4,0.9,1.9c0.5,0.5,1.1,0.7,1.7,0.7c0.7,0,1.4-0.3,1.9-0.9
								c0.5-0.6,0.8-1.5,0.8-2.7c0-1.1-0.3-2-0.8-2.5c-0.5-0.6-1.2-0.8-2-0.8c-1,0-1.9,0.4-2.7,1.3l-2.9-0.4l1.8-9.6h9.3v3.3h-6.6
								l-0.6,3.1c0.8-0.4,1.6-0.6,2.4-0.6c1.6,0,2.9,0.6,4,1.7c1.1,1.1,1.6,2.6,1.6,4.4c0,1.5-0.4,2.9-1.3,4c-1.2,1.6-2.9,2.4-5,2.4
								c-1.7,0-3.1-0.5-4.1-1.4C51.4,350.8,50.8,349.6,50.6,348z"/>
						</g>
					</g>
					<g>
						<line class="st7" x1="36.3" y1="315.2" x2="36.3" y2="325.8"/>
						<line class="st7" x1="38.3" y1="315.2" x2="38.3" y2="325.8"/>
						<line class="st7" x1="61.2" y1="315.2" x2="61.2" y2="325.8"/>
						<line class="st7" x1="63.2" y1="315.2" x2="63.2" y2="325.8"/>
						<line class="st7" x1="69.9" y1="330.2" x2="29.6" y2="330.2"/>
					</g>
				</g>
				<g>
					<g>
						<g>
							<path class="st3" d="M445,511.6h0.3c3.7,0,6.8,3.1,6.8,6.8v25.5c0,3.7-3.1,6.8-6.8,6.8H445v-29.4c1.4,0,2.6-1.2,2.6-2.6
								c0-1.4-1.2-2.6-2.6-2.6V511.6z M420.1,511.6H445v4.5h0c-1.4,0-2.6,1.2-2.6,2.6c0,1.4,1.2,2.6,2.6,2.6h0v29.4h-24.9v-29.4
								c1.4,0,2.6-1.2,2.6-2.6c0-1.4-1.2-2.6-2.6-2.6V511.6z M419.8,511.6h0.3v4.5c-1.4,0-2.6,1.2-2.6,2.6c0,1.4,1.2,2.6,2.6,2.6
								v29.4h-0.3c-3.7,0-6.8-3.1-6.8-6.8v-25.5C413,514.6,416,511.6,419.8,511.6z"/>
							<path class="st3" d="M420.1,509.7L420.1,509.7c0.6,0,1,0.5,1,1v6.9c0,0.6-0.5,1-1,1h0c-0.6,0-1-0.5-1-1v-6.9
								C419.1,510.2,419.5,509.7,420.1,509.7z"/>
							<path class="st3" d="M445,509.7L445,509.7c0.6,0,1,0.5,1,1v6.9c0,0.6-0.5,1-1,1h0c-0.6,0-1-0.5-1-1v-6.9
								C444,510.2,444.4,509.7,445,509.7z"/>
						</g>
						<g>
							<path class="st4" d="M428,546.4h-3.5v-13.3c-1.3,1.2-2.8,2.1-4.5,2.7v-3.2c0.9-0.3,1.9-0.9,3-1.7c1.1-0.8,1.8-1.8,2.2-2.9
								h2.9V546.4z"/>
							<path class="st4" d="M433.3,541.7l3.5-0.4c0.1,0.8,0.4,1.4,0.9,1.9c0.5,0.5,1.1,0.7,1.7,0.7c0.7,0,1.4-0.3,1.9-0.9
								c0.5-0.6,0.8-1.5,0.8-2.7c0-1.1-0.3-2-0.8-2.5c-0.5-0.6-1.2-0.8-2-0.8c-1,0-1.9,0.4-2.7,1.3l-2.9-0.4l1.8-9.6h9.3v3.3h-6.6
								l-0.6,3.1c0.8-0.4,1.6-0.6,2.4-0.6c1.6,0,2.9,0.6,4,1.7c1.1,1.1,1.6,2.6,1.6,4.4c0,1.5-0.4,2.9-1.3,4c-1.2,1.6-2.9,2.4-5,2.4
								c-1.7,0-3.1-0.5-4.1-1.4C434.2,544.5,433.5,543.3,433.3,541.7z"/>
						</g>
					</g>
					<g>
						<line class="st7" x1="419.1" y1="508.9" x2="419.1" y2="519.5"/>
						<line class="st7" x1="421.1" y1="508.9" x2="421.1" y2="519.5"/>
						<line class="st7" x1="444" y1="508.9" x2="444" y2="519.5"/>
						<line class="st7" x1="446" y1="508.9" x2="446" y2="519.5"/>
						<line class="st7" x1="452.7" y1="523.9" x2="412.4" y2="523.9"/>
					</g>
				</g>
				<g>
					<path class="st3" d="M170.8,215.7l-2,9.5l8.4-4.9l23.9-33.3c0.7-1,0.5-2.3-0.5-3l-2.9-2.1c-1-0.7-2.3-0.5-3,0.5L170.8,215.7z"
						/>
					<path class="st8" d="M172.4,224.2c-0.5-0.6-1.2-1.1-1.8-1.6c-0.7-0.5-1.4-0.9-2.1-1.2"/>
					<path class="st8" d="M178.1,221.2c-1.2-1.2-2.5-2.4-4-3.4c-1.5-1.1-3-1.9-4.5-2.7"/>
					<path class="st8" d="M200,190.7c-1.2-1.2-2.5-2.4-4-3.4c-1.5-1.1-3-1.9-4.5-2.7"/>
				</g>
				<g>
					<path class="st3" d="M312.8,441.7l-2,9.5l8.4-4.9l23.9-33.3c0.7-1,0.5-2.3-0.5-3l-2.9-2.1c-1-0.7-2.3-0.5-3,0.5L312.8,441.7z"
						/>
					<path class="st8" d="M314.4,450.2c-0.5-0.6-1.2-1.1-1.8-1.6c-0.7-0.5-1.4-0.9-2.1-1.2"/>
					<path class="st8" d="M320.1,447.2c-1.2-1.2-2.5-2.4-4-3.4c-1.5-1.1-3-1.9-4.5-2.7"/>
					<path class="st8" d="M342,416.7c-1.2-1.2-2.5-2.4-4-3.4c-1.5-1.1-3-1.9-4.5-2.7"/>
				</g>
				<g>
					<path class="st3" d="M207.9,253.5c9.8,0,17.7,6.8,17.7,15.3c0,5.1-2.9,9.6-7.3,12.3l2.5,6.3l-6.1-4.5c-2.1,0.8-4.4,1.2-6.8,1.2
						c-9.8,0-17.7-6.8-17.7-15.3C190.2,260.3,198.1,253.5,207.9,253.5z"/>
					<g>
						<circle class="st1" cx="215.6" cy="269.1" r="2.4"/>
						<circle class="st1" cx="207.9" cy="269.1" r="2.4"/>
						<circle class="st1" cx="200.1" cy="269.1" r="2.4"/>
					</g>
				</g>
				<g>
					<polygon class="st2" points="78,197.6 65.9,197.6 65.9,192.3 52.1,192.3 52.1,202.6 91.8,202.6 91.8,192.3 78,192.3 					"/>
					<rect x="68.2" y="192.3" class="st2" width="7.5" height="3.1"/>
					<path class="st2" d="M81.7,169.3H72v3.4h6.3v4.1H72V190h6h13.8v-13.2H81.7V169.3z M72,169.3h-9.7v7.5H52.1V190h13.8h6v-13.2
						h-6.3l0,0v-4.1H72V169.3z"/>
				</g>
				<g>
					<polygon class="st2" points="322,331.6 310,331.6 310,326.3 296.2,326.3 296.2,336.6 335.8,336.6 335.8,326.3 322,326.3 					
						"/>
					<rect x="312.2" y="326.3" class="st2" width="7.5" height="3.1"/>
					<path class="st2" d="M325.7,303.3H316v3.4h6.3v4.1H316V324h6h13.8v-13.2h-10.1V303.3z M316,303.3h-9.7v7.5h-10.1V324H310h6
						v-13.2h-6.3l0,0v-4.1h6.3V303.3z"/>
				</g>
				<path class="st2" d="M481.2,425.1c1,1.2,2.1,2.1,3.2,2.7c1.1,0.6,2.2,0.9,3.3,0.9c0.9,0,1.7-0.3,2.3-0.8c0.6-0.5,0.9-1.2,0.9-2
					c0-0.9-0.2-1.5-0.8-2c-0.5-0.5-1.7-0.9-3.5-1.4c-2.7-0.8-4.7-1.7-5.8-2.8c-1.1-1.1-1.7-2.7-1.7-4.6c0-2.4,0.8-4.4,2.3-5.9
					c1.5-1.5,3.6-2.4,6.4-2.7V404h2.4l0,2.5c1.1,0.1,2.1,0.4,3.1,0.7c1,0.4,2,0.9,3,1.6l-2.3,5.2c-0.8-0.7-1.7-1.2-2.5-1.6
					c-0.9-0.4-1.7-0.5-2.6-0.5c-0.9,0-1.6,0.2-2.1,0.6c-0.5,0.4-0.8,0.9-0.8,1.6c0,0.7,0.2,1.2,0.7,1.6c0.5,0.4,1.4,0.8,2.8,1.2
					l0.2,0.1c3,0.8,5,1.7,5.9,2.7c0.6,0.7,1.1,1.4,1.4,2.4c0.3,0.9,0.5,1.9,0.5,3c0,2.5-0.8,4.6-2.3,6.3c-1.5,1.7-3.6,2.6-6.2,2.9
					v4.4h-2.4v-4.4c-1.7,0-3.3-0.3-4.8-1c-1.4-0.6-2.8-1.6-4.2-2.9L481.2,425.1z"/>
				<path class="st2" d="M46.7,266.9c1,1.2,2.1,2.1,3.2,2.7c1.1,0.6,2.2,0.9,3.3,0.9c0.9,0,1.7-0.3,2.3-0.8c0.6-0.5,0.9-1.2,0.9-2
					c0-0.9-0.2-1.5-0.8-2c-0.5-0.5-1.7-0.9-3.5-1.4c-2.7-0.8-4.7-1.7-5.8-2.8c-1.1-1.1-1.7-2.7-1.7-4.6c0-2.4,0.8-4.4,2.3-5.9
					c1.5-1.5,3.6-2.4,6.4-2.7v-2.5h2.4l0,2.5c1.1,0.1,2.1,0.4,3.1,0.7c1,0.4,2,0.9,3,1.6l-2.3,5.2c-0.8-0.7-1.7-1.2-2.5-1.6
					c-0.9-0.4-1.7-0.5-2.6-0.5c-0.9,0-1.6,0.2-2.1,0.6c-0.5,0.4-0.8,0.9-0.8,1.6c0,0.7,0.2,1.2,0.7,1.6c0.5,0.4,1.4,0.8,2.8,1.2
					l0.2,0.1c3,0.8,5,1.7,5.9,2.7c0.6,0.7,1.1,1.4,1.4,2.4c0.3,0.9,0.5,1.9,0.5,3c0,2.5-0.8,4.6-2.3,6.3c-1.5,1.7-3.6,2.6-6.2,2.9
					v4.4h-2.4v-4.4c-1.7,0-3.3-0.3-4.8-1c-1.4-0.6-2.8-1.6-4.2-2.9L46.7,266.9z"/>
				<path class="st2" d="M325.1,535.1c1,1.2,2.1,2.1,3.2,2.7c1.1,0.6,2.2,0.9,3.3,0.9c0.9,0,1.7-0.3,2.3-0.8c0.6-0.5,0.9-1.2,0.9-2
					c0-0.9-0.2-1.5-0.8-2c-0.5-0.5-1.7-0.9-3.5-1.4c-2.7-0.8-4.7-1.7-5.8-2.8c-1.1-1.1-1.7-2.7-1.7-4.6c0-2.4,0.8-4.4,2.3-5.9
					c1.5-1.5,3.6-2.4,6.4-2.7V514h2.4l0,2.5c1.1,0.1,2.1,0.4,3.1,0.7c1,0.4,2,0.9,3,1.6L338,524c-0.8-0.7-1.7-1.2-2.5-1.6
					c-0.9-0.4-1.7-0.5-2.6-0.5c-0.9,0-1.6,0.2-2.1,0.6c-0.5,0.4-0.8,0.9-0.8,1.6c0,0.7,0.2,1.2,0.7,1.6c0.5,0.4,1.4,0.8,2.8,1.2
					l0.2,0.1c3,0.8,5,1.7,5.9,2.7c0.6,0.7,1.1,1.4,1.4,2.4c0.3,0.9,0.5,1.9,0.5,3c0,2.5-0.8,4.6-2.3,6.3c-1.5,1.7-3.6,2.6-6.2,2.9
					v4.4h-2.4v-4.4c-1.7,0-3.3-0.3-4.8-1c-1.4-0.6-2.8-1.6-4.2-2.9L325.1,535.1z"/>
				<path class="st2" d="M278.6,561.9c-1-2.6-8.6-2.1-11.2-1.1l-6.6,2.5l-13.3-13.8l-4.6,1.8l9.6,15.3l-9.1,3.5l-8-5.1l-4.6,1.8
					l8.6,10.1l0.3,13.1l4.6-1.8l2.5-8.7l9.3-3.6l3.1,17.4l4.6-1.8l0.7-18.9l6.6-2.5C273.6,569.2,279.6,564.5,278.6,561.9z"/>
				<g>
					<circle class="st3" cx="354.1" cy="143.7" r="6.7"/>
					<path class="st3" d="M362,135.6c2.1,2.1,3.4,4.9,3.4,8.1h4.5c0-5.9-3.2-11-7.9-13.7V135.6L362,135.6z M362,124.7v-4.7
						c9.9,3.3,17,12.6,17,23.7h-4.4C374.6,135.2,369.4,127.8,362,124.7z M354.1,132.4c3.1,0,5.9,1.2,7.9,3.2V130
						c-2.3-1.3-5-2.1-7.9-2.1V132.4L354.1,132.4z M362,120.1v4.7c-2.4-1-5.1-1.6-7.9-1.6v-4.4C356.9,118.8,359.5,119.2,362,120.1z"
						/>
				</g>
				<g>
					<rect x="206.5" y="85.6" class="st3" width="35.4" height="2.2"/>
					<rect x="206.5" y="39" class="st3" width="10.7" height="46.6"/>
					<rect x="218.9" y="56.6" class="st3" width="10.7" height="29"/>
					<rect x="231.2" y="66.4" class="st3" width="10.7" height="19.2"/>
				</g>
				<g>
					<polygon class="st2" points="451.6,355.6 451.6,353 457.9,353 457.9,343 442.8,343 442.8,353 449.1,353 449.1,355.6 
						440.3,355.6 440.3,354.3 436.5,354.3 436.5,355.6 434,355.6 434,375.7 466.7,375.7 466.7,355.6 					"/>
					<polygon class="st4" points="464.2,359.3 464.2,359.3 460.4,359.3 460.4,358.1 464.2,358.1 					"/>
					<path class="st4" d="M450.3,371.9L450.3,371.9c-3.5,0-6.3-2.8-6.3-6.3c0-3.5,2.8-6.3,6.3-6.3c3.5,0,6.3,2.8,6.3,6.3
						C456.6,369.1,453.8,371.9,450.3,371.9z"/>
					<polygon class="st4" points="444,351.8 444,351.8 444,344.2 456.6,344.2 456.6,351.8 					"/>
				</g>
				<g>
					<path class="st3" d="M436.6,50.2c6.8,0,12.4,5.5,12.4,12.4c0,4.5-2.4,8.4-5.9,10.6l-1.3,10.2h-10.4l-1.3-10.2
						c-3.5-2.2-5.9-6.1-5.9-10.6C424.2,55.8,429.7,50.2,436.6,50.2z"/>
					<g>
						<path class="st4" d="M434.5,78.1c0.1,0.3-0.1,0.5-0.4,0.6c-0.3,0.1-0.5-0.1-0.6-0.4l-2.1-8.6v-4l0,0.1c0,0,0-0.1,0-0.1v0
							c0.2,0.2,0.4,0.4,0.6,0.5c1.2,1,2.8,1.5,4.4,1.5c1.6,0,3.1-0.5,4.2-1.5c0.2-0.2,0.4-0.4,0.5-0.6c0.2-0.2,0.5-0.2,0.7-0.1
							c0.2,0.1,0.2,0.3,0.2,0.5l-3,12.3c-0.1,0.3-0.3,0.4-0.6,0.4c-0.3-0.1-0.4-0.3-0.4-0.6l2.6-10.7c-1.2,0.9-2.8,1.3-4.3,1.3
							c-1.6,0-3.2-0.5-4.5-1.4L434.5,78.1z M431.5,69.8l-0.9-3.7c-0.1-0.3,0.1-0.5,0.4-0.6c0.2,0,0.4,0,0.5,0.2l0,0.1v0
							c0,0,0,0,0-0.1l0,0.1V69.8z"/>
					</g>
					<path class="st3" d="M429.5,77.1h14.1l-0.7,6.6c-0.1,1.2-0.2,1.7-1.7,1.7H432c-1.6,0-1.6-0.6-1.7-1.7L429.5,77.1z"/>
					<g>
						<path class="st2" d="M444.1,39.8c0.1-0.3,0.5-0.5,0.8-0.4c0.3,0.1,0.5,0.5,0.4,0.8l-2.7,7.5c-0.1,0.3-0.5,0.5-0.8,0.4
							c-0.3-0.1-0.5-0.5-0.4-0.8L444.1,39.8z"/>
						<path class="st2" d="M451.4,43.7c0.2-0.3,0.6-0.3,0.9-0.1c0.3,0.2,0.3,0.6,0.1,0.9l-5.1,6.1c-0.2,0.3-0.6,0.3-0.9,0.1
							c-0.3-0.2-0.3-0.6-0.1-0.9L451.4,43.7z"/>
						<path class="st2" d="M456.8,49.9c0.3-0.2,0.7-0.1,0.8,0.2c0.2,0.3,0.1,0.7-0.2,0.8l-6.9,4c-0.3,0.2-0.7,0.1-0.8-0.2
							c-0.2-0.3-0.1-0.7,0.2-0.8L456.8,49.9z"/>
						<path class="st2" d="M459.9,57.6c0.3-0.1,0.7,0.2,0.7,0.5c0.1,0.3-0.2,0.7-0.5,0.7l-7.8,1.4c-0.3,0.1-0.7-0.2-0.7-0.5
							c-0.1-0.3,0.2-0.7,0.5-0.7L459.9,57.6z"/>
						<path class="st2" d="M435.9,38.6c0-0.3,0.3-0.6,0.6-0.6c0.3,0,0.6,0.3,0.6,0.6v7.9c0,0.3-0.3,0.6-0.6,0.6
							c-0.3,0-0.6-0.3-0.6-0.6V38.6z"/>
						<path class="st2" d="M427.9,40.2c-0.1-0.3,0-0.7,0.4-0.8c0.3-0.1,0.7,0,0.8,0.4l2.7,7.5c0.1,0.3,0,0.7-0.4,0.8
							c-0.3,0.1-0.7,0-0.8-0.4L427.9,40.2z"/>
						<path class="st2" d="M420.8,44.5c-0.2-0.3-0.2-0.6,0.1-0.9c0.3-0.2,0.6-0.2,0.9,0.1l5.1,6.1c0.2,0.3,0.2,0.6-0.1,0.9
							c-0.3,0.2-0.6,0.2-0.9-0.1L420.8,44.5z"/>
						<path class="st2" d="M415.7,51c-0.3-0.2-0.4-0.5-0.2-0.8c0.2-0.3,0.5-0.4,0.8-0.2l6.9,4c0.3,0.2,0.4,0.5,0.2,0.8
							c-0.2,0.3-0.5,0.4-0.8,0.2L415.7,51z"/>
						<path class="st2" d="M413.1,58.8c-0.3-0.1-0.6-0.4-0.5-0.7c0.1-0.3,0.4-0.6,0.7-0.5l7.8,1.4c0.3,0.1,0.6,0.4,0.5,0.7
							c-0.1,0.3-0.4,0.6-0.7,0.5L413.1,58.8z"/>
					</g>
				</g>
				<g>
					<path class="st3" d="M250.7,170.6c6.8,0,12.4,5.5,12.4,12.4c0,4.5-2.4,8.4-5.9,10.6l-1.3,10.2h-10.4l-1.3-10.2
						c-3.5-2.2-5.9-6.1-5.9-10.6C238.3,176.2,243.8,170.6,250.7,170.6z"/>
					<g>
						<path class="st4" d="M248.6,198.6c0.1,0.3-0.1,0.5-0.4,0.6c-0.3,0.1-0.5-0.1-0.6-0.4l-2.1-8.6v-4l0,0.1c0,0,0-0.1,0-0.1v0
							c0.2,0.2,0.4,0.4,0.6,0.5c1.2,1,2.8,1.5,4.4,1.5c1.6,0,3.1-0.5,4.2-1.5c0.2-0.2,0.4-0.4,0.5-0.6c0.2-0.2,0.5-0.2,0.7-0.1
							c0.2,0.1,0.2,0.3,0.2,0.5l-3,12.3c-0.1,0.3-0.3,0.4-0.6,0.4c-0.3-0.1-0.4-0.3-0.4-0.6l2.6-10.7c-1.2,0.9-2.8,1.3-4.3,1.3
							c-1.6,0-3.2-0.5-4.5-1.4L248.6,198.6z M245.6,190.2l-0.9-3.7c-0.1-0.3,0.1-0.5,0.4-0.6c0.2,0,0.4,0,0.5,0.2l0,0.1v0
							c0,0,0,0,0-0.1l0,0.1V190.2z"/>
					</g>
					<path class="st3" d="M243.6,197.6h14.1l-0.7,6.6c-0.1,1.2-0.2,1.7-1.7,1.7h-9.2c-1.6,0-1.6-0.6-1.7-1.7L243.6,197.6z"/>
					<g>
						<path class="st2" d="M258.2,160.2c0.1-0.3,0.5-0.5,0.8-0.4c0.3,0.1,0.5,0.5,0.4,0.8l-2.7,7.5c-0.1,0.3-0.5,0.5-0.8,0.4
							s-0.5-0.5-0.4-0.8L258.2,160.2z"/>
						<path class="st2" d="M265.5,164.2c0.2-0.3,0.6-0.3,0.9-0.1c0.3,0.2,0.3,0.6,0.1,0.9l-5.1,6.1c-0.2,0.3-0.6,0.3-0.9,0.1
							c-0.3-0.2-0.3-0.6-0.1-0.9L265.5,164.2z"/>
						<path class="st2" d="M270.9,170.4c0.3-0.2,0.7-0.1,0.8,0.2c0.2,0.3,0.1,0.7-0.2,0.8l-6.9,4c-0.3,0.2-0.7,0.1-0.8-0.2
							c-0.2-0.3-0.1-0.7,0.2-0.8L270.9,170.4z"/>
						<path class="st2" d="M274,178c0.3-0.1,0.7,0.2,0.7,0.5c0.1,0.3-0.2,0.7-0.5,0.7l-7.8,1.4c-0.3,0.1-0.7-0.2-0.7-0.5
							c-0.1-0.3,0.2-0.7,0.5-0.7L274,178z"/>
						<path class="st2" d="M250.1,159c0-0.3,0.3-0.6,0.6-0.6c0.3,0,0.6,0.3,0.6,0.6v7.9c0,0.3-0.3,0.6-0.6,0.6
							c-0.3,0-0.6-0.3-0.6-0.6V159z"/>
						<path class="st2" d="M242,160.7c-0.1-0.3,0-0.7,0.4-0.8c0.3-0.1,0.7,0,0.8,0.4l2.7,7.5c0.1,0.3,0,0.7-0.4,0.8
							c-0.3,0.1-0.7,0-0.8-0.4L242,160.7z"/>
						<path class="st2" d="M234.9,165c-0.2-0.3-0.2-0.6,0.1-0.9c0.3-0.2,0.6-0.2,0.9,0.1l5.1,6.1c0.2,0.3,0.2,0.6-0.1,0.9
							c-0.3,0.2-0.6,0.2-0.9-0.1L234.9,165z"/>
						<path class="st2" d="M229.8,171.4c-0.3-0.2-0.4-0.5-0.2-0.8c0.2-0.3,0.5-0.4,0.8-0.2l6.9,4c0.3,0.2,0.4,0.5,0.2,0.8
							c-0.2,0.3-0.5,0.4-0.8,0.2L229.8,171.4z"/>
						<path class="st2" d="M227.2,179.2c-0.3-0.1-0.6-0.4-0.5-0.7c0.1-0.3,0.4-0.6,0.7-0.5l7.8,1.4c0.3,0.1,0.6,0.4,0.5,0.7
							c-0.1,0.3-0.4,0.6-0.7,0.5L227.2,179.2z"/>
					</g>
				</g>
				<g>
					<path class="st3" d="M193.1,502.5c6.8,0,12.4,5.5,12.4,12.4c0,4.5-2.4,8.4-5.9,10.6l-1.3,10.2h-10.4l-1.3-10.2
						c-3.5-2.2-5.9-6.1-5.9-10.6C180.7,508.1,186.3,502.5,193.1,502.5z"/>
					<g>
						<path class="st4" d="M191.1,530.4c0.1,0.3-0.1,0.5-0.4,0.6c-0.3,0.1-0.5-0.1-0.6-0.4l-2.1-8.6v-4l0,0.1c0,0,0-0.1,0-0.1v0
							c0.2,0.2,0.4,0.4,0.6,0.5c1.2,1,2.8,1.5,4.4,1.5c1.6,0,3.1-0.5,4.2-1.5c0.2-0.2,0.4-0.4,0.5-0.6c0.2-0.2,0.5-0.2,0.7-0.1
							c0.2,0.1,0.2,0.3,0.2,0.5l-3,12.3c-0.1,0.3-0.3,0.4-0.6,0.4c-0.3-0.1-0.4-0.3-0.4-0.6l2.6-10.7c-1.2,0.9-2.8,1.3-4.3,1.3
							c-1.6,0-3.2-0.5-4.5-1.4L191.1,530.4z M188,522.1l-0.9-3.7c-0.1-0.3,0.1-0.5,0.4-0.6c0.2,0,0.4,0,0.5,0.2l0,0.1v0
							c0,0,0,0,0-0.1l0,0.1V522.1z"/>
					</g>
					<path class="st3" d="M186.1,529.4h14.1l-0.7,6.6c-0.1,1.2-0.2,1.7-1.7,1.7h-9.2c-1.6,0-1.6-0.6-1.7-1.7L186.1,529.4z"/>
					<g>
						<path class="st2" d="M200.6,492.1c0.1-0.3,0.5-0.5,0.8-0.4c0.3,0.1,0.5,0.5,0.4,0.8l-2.7,7.5c-0.1,0.3-0.5,0.5-0.8,0.4
							c-0.3-0.1-0.5-0.5-0.4-0.8L200.6,492.1z"/>
						<path class="st2" d="M207.9,496.1c0.2-0.3,0.6-0.3,0.9-0.1c0.3,0.2,0.3,0.6,0.1,0.9l-5.1,6.1c-0.2,0.3-0.6,0.3-0.9,0.1
							c-0.3-0.2-0.3-0.6-0.1-0.9L207.9,496.1z"/>
						<path class="st2" d="M213.4,502.2c0.3-0.2,0.7-0.1,0.8,0.2c0.2,0.3,0.1,0.7-0.2,0.8l-6.9,4c-0.3,0.2-0.7,0.1-0.8-0.2
							c-0.2-0.3-0.1-0.7,0.2-0.8L213.4,502.2z"/>
						<path class="st2" d="M216.4,509.9c0.3-0.1,0.7,0.2,0.7,0.5c0.1,0.3-0.2,0.7-0.5,0.7l-7.8,1.4c-0.3,0.1-0.7-0.2-0.7-0.5
							c-0.1-0.3,0.2-0.7,0.5-0.7L216.4,509.9z"/>
						<path class="st2" d="M192.5,490.9c0-0.3,0.3-0.6,0.6-0.6c0.3,0,0.6,0.3,0.6,0.6v7.9c0,0.3-0.3,0.6-0.6,0.6
							c-0.3,0-0.6-0.3-0.6-0.6V490.9z"/>
						<path class="st2" d="M184.4,492.5c-0.1-0.3,0-0.7,0.4-0.8c0.3-0.1,0.7,0,0.8,0.4l2.7,7.5c0.1,0.3,0,0.7-0.4,0.8
							c-0.3,0.1-0.7,0-0.8-0.4L184.4,492.5z"/>
						<path class="st2" d="M177.4,496.8c-0.2-0.3-0.2-0.6,0.1-0.9c0.3-0.2,0.6-0.2,0.9,0.1l5.1,6.1c0.2,0.3,0.2,0.6-0.1,0.9
							c-0.3,0.2-0.6,0.2-0.9-0.1L177.4,496.8z"/>
						<path class="st2" d="M172.2,503.3c-0.3-0.2-0.4-0.5-0.2-0.8c0.2-0.3,0.5-0.4,0.8-0.2l6.9,4c0.3,0.2,0.4,0.5,0.2,0.8
							c-0.2,0.3-0.5,0.4-0.8,0.2L172.2,503.3z"/>
						<path class="st2" d="M169.6,511.1c-0.3-0.1-0.6-0.4-0.5-0.7c0.1-0.3,0.4-0.6,0.7-0.5l7.8,1.4c0.3,0.1,0.6,0.4,0.5,0.7
							c-0.1,0.3-0.4,0.6-0.7,0.5L169.6,511.1z"/>
					</g>
				</g>
				<g>
					<path class="st2" d="M60.2,434.1c1-0.1,2-0.2,2.9-0.4c0.6-0.1,1.3-0.3,1.9-0.5c0.3-0.1,0.6-0.2,0.9-0.3
						c0.6-0.2,1.1-0.5,1.7-0.8c0.3-0.1,0.5-0.3,0.8-0.4c1.2-0.7,2.3-1.5,3.4-2.4c0.2-0.2,0.5-0.4,0.7-0.6c0.2-0.2,0.4-0.4,0.6-0.7
						c0.3-0.3,0.6-0.7,0.9-1.1c0.5-0.6,0.9-1.2,1.3-1.8c0.1-0.2,0.2-0.3,0.3-0.5c0.2-0.3,0.3-0.5,0.4-0.8c0.1-0.1,0.1-0.3,0.2-0.4
						c0.1-0.3,0.3-0.6,0.4-0.8c0.1-0.3,0.2-0.6,0.3-0.9c0.2-0.6,0.4-1.2,0.6-1.8c0.1-0.3,0.2-0.6,0.2-0.9c0.1-0.3,0.1-0.6,0.2-0.9
						c0-0.3,0.1-0.6,0.1-1c0.1-0.6,0.1-1.3,0.1-2c0-0.7,0-1.3-0.1-2c0-0.3-0.1-0.6-0.1-1c0-0.3-0.1-0.6-0.2-0.9
						c-0.1-0.3-0.1-0.6-0.2-0.9c-0.2-0.6-0.3-1.2-0.6-1.8c-0.1-0.1-0.1-0.3-0.2-0.4c-0.2-0.4-0.4-0.9-0.6-1.3
						c-0.1-0.1-0.1-0.3-0.2-0.4c-0.1-0.3-0.3-0.5-0.4-0.8c-0.5-0.8-1-1.6-1.6-2.3c-0.3-0.4-0.6-0.7-0.9-1.1
						c-0.2-0.2-0.4-0.4-0.6-0.7c-0.2-0.2-0.4-0.4-0.7-0.6c-0.4-0.4-0.9-0.8-1.4-1.1c-0.6-0.5-1.3-0.9-2-1.3
						c-0.3-0.2-0.5-0.3-0.8-0.4c-0.1-0.1-0.3-0.1-0.4-0.2c-0.2-0.1-0.3-0.1-0.5-0.2c-0.1,0-0.1-0.1-0.2-0.1
						c-0.2-0.1-0.4-0.2-0.7-0.3c0,0,0,0,0,0c-0.2-0.1-0.5-0.2-0.7-0.3c0,0-0.1,0-0.1-0.1c-0.6-0.2-1.1-0.4-1.7-0.5
						c-0.2,0-0.4-0.1-0.6-0.1c-0.1,0-0.3-0.1-0.4-0.1c-0.7-0.1-1.4-0.2-2.1-0.3v1c0.8,0.1,1.5,0.2,2.3,0.3c0,0.1-0.2,0.1-0.3,0.1
						c-0.1,0.1-0.2,0.2-0.3,0.2c-0.4,0.1-0.7-0.1-1-0.1c0,0.1,0.2,0.2,0.2,0.3c0.3,0.2,0.5,0.1,0.9,0.1c0.2,0,0.5,0.1,0.6-0.1
						c0.1-0.1,0.1-0.3,0.2-0.3c0,0,0.1-0.1,0.2-0.1c0.2,0,0.4,0.1,0.6,0.2c0,0.1-0.3,0.1-0.3,0.3c0.1,0.1,0.5,0,0.6-0.2
						c0,0,0.1,0,0.2,0c0.3,0.1,0.6,0.2,0.9,0.3c0.4,0.1,0.8,0.3,1.2,0.5c-0.1,0-0.2,0.1-0.2,0.1c-0.2,0-0.2-0.2-0.4-0.1
						c0,0.2,0.2,0.3,0.4,0.4c0.2,0.1,0.4,0.2,0.4,0.4c-0.2,0.4-0.4,0-0.7,0c-0.3,0-0.7,0.6-1,0.1c0.1-0.2,0.3-0.3,0.4-0.5
						c-0.1,0-0.1,0-0.2,0c-0.1,0-0.2,0.1-0.3,0.1c-0.1,0.1-0.3,0.1-0.4,0.2c-0.1,0-0.3,0-0.4,0.1c-0.2,0.1-0.4,0.3-0.7,0.3
						c-0.1,0-0.2,0-0.3,0.1c-0.2,0.1-0.5,0.2-0.8,0.4c-0.3,0.1-0.6,0.3-0.7,0.4c-0.1,0.1-0.3,0.3-0.3,0.4c0,0.1,0.2,0.2,0.2,0.3
						c0,0.1-0.1,0.2,0,0.3c0.1,0.1,0.3,0,0.4,0c0.3,0,0.5,0.3,0.8,0.4c0.2,0.1,0.5,0.2,0.7,0.2c0.3,0,0.6-0.1,0.6,0.1
						c0,0.2-0.3,0.3-0.3,0.4c0.2,0.2-0.1,0.3-0.1,0.5c0,0.1,0.2,0.4,0.3,0.4c0.2,0,0.5-0.2,0.6-0.4c0.1-0.2,0.1-0.6,0.2-0.8
						c1,0,1.8-0.4,1.7-1.4c0-0.1-0.1-0.2,0-0.3c0-0.2,0.3-0.3,0.3-0.5c0.1,0,0.2-0.1,0.2-0.2c0.1-0.1,0.1-0.3,0.3-0.4c0,0,0,0,0,0
						c0.1,0,0.2,0,0.3,0c0.2,0,0.3,0.1,0.5,0.1c0.1,0,0.2-0.1,0.3-0.1c0.2,0,0.3,0.3,0.5,0.4c0.1,0.1,0.3,0.1,0.3,0.2
						c0,0.2-0.2,0.2-0.2,0.4v0c0,0.2,0.2,0.3,0.3,0.4c0.2,0,0.4-0.1,0.5-0.1c0.2-0.1,0.3-0.2,0.5-0.4c0.2,0.2,0.4,0.3,0.6,0.5
						c0,0.1,0,0.2,0,0.2c0,0.2,0,0.4,0,0.6c0,0.3,0.5,0.3,0.7,0.5c0.1,0.1,0.1,0.2,0.1,0.3c0.1,0.1,0.2,0.1,0.2,0.3
						c0,0.4-0.3,0.4-0.3,0.8c-0.1,0.2-0.3,0.1-0.2,0.3c0,0.3,0.5,0.1,0.6,0.3c0.1,0.1,0,0.2-0.1,0.4c0.2,0.2,0.2,0.5-0.1,0.5
						c-0.2,0-0.2-0.2-0.4-0.2c-0.1,0-0.2,0-0.4,0c-0.1,0-0.2,0-0.3-0.1c-0.3,0-0.5,0-0.7-0.1c0.2-0.3,0.6-0.6,0.9-0.9
						c0.1-0.1,0.3-0.1,0.2-0.3c-0.2-0.2-0.4,0-0.6,0.1c-0.2,0.1-0.4,0.2-0.6,0.3c-0.3,0-0.8-0.1-1.1,0.1c0,0.2,0.3,0.1,0.3,0.3
						c-0.1,0-0.3,0-0.4-0.1c-0.1-0.1,0-0.2-0.1-0.3c-0.1-0.1-0.5-0.1-0.7-0.1c-0.2,0-0.4,0.2-0.4,0.3c0.3,0.1,0.7-0.1,0.8,0.2
						c-0.1,0.3-0.5,0.4-0.4,0.7c0,0.1,0.2,0.3,0.3,0.3c0.1,0,0.2-0.1,0.3-0.1c0.1,0,0.1,0.1,0.2,0.1c0.2-0.1,0.3-0.4,0.5-0.3
						c0.3,0.3-0.2,0.5-0.5,0.6c-0.3,0.1-0.8,0.2-1,0.3c-0.1,0.1-0.6,0.5-0.7,0.2c-0.1-0.3,0.2-0.2,0.3-0.4c-0.3-0.1-0.6,0.1-0.9,0.2
						c-0.4,0.2-1.1,0.3-1.2,0.7c0,0.1,0,0.3,0,0.3c0,0-0.3,0.1-0.5,0.1c-0.2,0.1-0.4,0.2-0.5,0.2c-0.1,0-0.2,0-0.3,0
						c-0.2,0.1-0.2,0.3-0.4,0.4c-0.1,0.1-0.2,0.1-0.3,0.2c-0.1,0.1-0.1,0.4-0.3,0.4c-0.1,0-0.2-0.1-0.3,0c0,0.3,0.1,0.6,0,0.9
						c-0.2,0.2-0.5,0.3-0.8,0.5c-0.2,0.1-0.3,0.1-0.5,0.2c-0.1,0.1-0.3,0.3-0.5,0.4c-0.1,0.1-0.2,0.1-0.3,0.2v9
						c0.1-0.1,0.2-0.2,0.3-0.3c0.1-0.2,0.1-0.4,0.3-0.5c0.2-0.1,0.4-0.1,0.7-0.2c0.1,0,0.2-0.1,0.4-0.2c0.1-0.1,0.2-0.2,0.3-0.1
						c0.2,0.2-0.2,0.3-0.1,0.4c0.3,0.2,0.4-0.3,0.6-0.3c0.1,0,0.3,0.1,0.4,0.2c0.2,0.1,0.2,0.3,0.4,0.3c0.1,0,0.3,0,0.5,0
						c0.2,0,0.3,0.2,0.5,0.2c0.2,0,0.3-0.2,0.5-0.2c0.4-0.1,0.5,0,0.7,0.3c0.2,0,0.2-0.2,0.4-0.1c-0.1,0.2,0,0.3,0.1,0.4
						c0,0.1,0,0.2,0.1,0.2c0.1,0.1,0.3,0.1,0.4,0.2c0.2,0.1,0.2,0.3,0.4,0.5c0.2,0.2,0.5,0.4,0.7,0.4c0.2,0,0.4-0.1,0.6,0
						c0.4,0.1,0.7,0.3,1,0.5c0.2,0.1,0.3,0.2,0.4,0.4c0,0.1,0,0.3,0.1,0.4c0.1,0.3,0.5,0.4,0.3,0.8c0.1,0.1,0.2,0.2,0.4,0.3
						c0.1,0.1,0.2,0.2,0.3,0.2c0.1,0,0.2,0,0.2,0c0.2,0,0.4,0.1,0.6,0.2c0.1,0,0.3,0.1,0.4,0.1c0.1,0.1,0.1,0.3,0.2,0.4
						c0.1,0,0.3,0,0.4,0c0.2,0,0.5,0.2,0.7,0.2c0.1,0,0.2,0,0.3,0c0.3,0,0.4,0.2,0.6,0.4c-2.5,4-6.5,7-11.2,8.1
						c0-0.2-0.1-0.4-0.1-0.5c0-0.4,0-0.7,0-1c0-0.3-0.1-0.7-0.2-0.9c-0.1-0.2-0.5-0.5-0.8-0.6c-0.1-0.1-0.3-0.1-0.5-0.2
						c-0.3-0.2-1-0.5-1.1-0.8c0-0.1,0-0.2-0.1-0.3c0-0.1-0.1-0.2-0.2-0.3V434.1z M40.1,411.1c-0.1,0.3-0.1,0.6-0.2,0.9
						c0,0.3-0.1,0.6-0.1,1c-0.1,0.6-0.1,1.3-0.1,2c0,0.7,0,1.3,0.1,2c0,0.3,0.1,0.6,0.1,1c0,0.3,0.1,0.6,0.2,0.9
						c0.1,0.3,0.1,0.6,0.2,0.9c0.2,0.6,0.3,1.2,0.6,1.8c0.1,0.3,0.2,0.6,0.3,0.9c0.1,0.3,0.2,0.6,0.4,0.8c0.1,0.1,0.1,0.3,0.2,0.4
						c0.1,0.3,0.3,0.5,0.4,0.8c0.5,0.8,1,1.6,1.5,2.3c0.3,0.4,0.6,0.7,0.9,1.1c0.2,0.2,0.4,0.4,0.6,0.7c0.2,0.2,0.4,0.4,0.7,0.6
						c1,0.9,2.1,1.7,3.3,2.4c0.3,0.2,0.5,0.3,0.8,0.4c0.6,0.3,1.1,0.5,1.7,0.8c0.3,0.1,0.6,0.2,0.9,0.3c1.9,0.7,4,1,6.2,1
						c0.4,0,0.9,0,1.3,0v-6.2c-0.1-0.1-0.2-0.2-0.2-0.3c-0.3-0.4-0.5-0.9-0.7-1.3c-0.1-0.2-0.2-0.4-0.4-0.6
						c-0.1-0.1-0.4-0.2-0.4-0.3c0-0.2-0.2-0.5-0.2-0.6c0-0.2,0.4-0.4,0.4-0.5c0-0.2-0.2-0.2-0.2-0.4c-0.1-0.3,0.1-0.5,0.2-0.8
						c0-0.1,0.1-0.2,0.1-0.3c0.1-0.1,0.2-0.1,0.3-0.3c0.1-0.1,0.1-0.2,0.2-0.3c0.2-0.2,0.4-0.3,0.5-0.5c0.1-0.2,0.1-0.9,0-1.2
						c0-0.1-0.2-0.3-0.2-0.4c-0.1-0.2-0.1-0.5-0.4-0.5c-0.2,0-0.3,0.2-0.4,0.3c0,0.1,0,0.3-0.2,0.3c-0.2,0.1-0.3-0.2-0.6-0.3
						c-0.1,0-0.3,0-0.3-0.1c-0.2-0.1-0.3-0.4-0.5-0.5c-0.2-0.1-0.3-0.1-0.4-0.2c0-0.1,0-0.3,0-0.4c-0.2-0.1-0.4-0.6-0.7-0.7
						c-0.2-0.1-0.4-0.1-0.7-0.1c-0.1,0-0.2-0.1-0.3-0.1c-0.1,0-0.3,0-0.4-0.1c-0.4-0.2-0.6-0.9-1.1-0.8c-0.2,0-0.4,0.2-0.6,0.2
						c-0.2,0-0.5-0.2-0.8-0.3c-0.3-0.1-0.5-0.2-0.7-0.3c-0.2-0.1-0.3-0.2-0.4-0.3c-0.1,0-0.3-0.1-0.4-0.1c-0.1-0.1-0.3-0.2-0.4-0.3
						c-0.2-0.1-0.3-0.3-0.3-0.4c0-0.2,0.1-0.3,0.2-0.5c0.1-0.5-0.3-0.8-0.5-1.1c-0.2-0.2-0.4-0.4-0.5-0.6c0-0.1,0-0.2,0-0.3
						c-0.1-0.1-0.2-0.3-0.4-0.5c-0.1-0.2-0.4-0.3-0.4-0.5c0-0.2,0.1-0.4,0-0.7c-0.1-0.4-0.7-0.2-0.6,0.3c0,0.1,0.2,0.3,0.3,0.5
						c0.1,0.1,0,0.3,0.1,0.5c0.1,0.2,0.2,0.3,0.3,0.5c0.1,0.3,0.1,0.6,0.2,0.8c0.1,0.2,0.3,0.3,0.2,0.5c-0.2,0-0.3-0.2-0.4-0.3
						c-0.1-0.1-0.3-0.2-0.4-0.3c0-0.1,0.1-0.3,0-0.4c-0.1-0.3-0.7-0.3-0.7-0.6c0-0.2,0.2-0.2,0.2-0.4c0-0.2-0.3-0.4-0.3-0.5
						c-0.1-0.2-0.1-0.4-0.1-0.6c0-0.2,0-0.4,0-0.6c0-0.1-0.3-0.3-0.4-0.4c-0.2-0.1-0.3-0.1-0.4-0.2c-0.1-0.1-0.1-0.4-0.1-0.5
						c0-0.2,0-0.5,0-0.8c0-0.3,0-0.5,0-0.8c0.1-0.2,0.3-0.3,0.4-0.5c0.1-0.1,0.1-0.3,0.2-0.5c0.2-0.3,0.5-0.5,0.7-0.8
						c0.2-0.3,0.5-0.6,0.6-0.9c0.1-0.1,0.2-0.4,0.2-0.5c0-0.2-0.4-0.4-0.4-0.6c0-0.1,0.2-0.1,0.3-0.3c0-0.1,0.1-0.3,0.1-0.4
						c0-0.2-0.1-0.4-0.1-0.6c0-0.2,0.3-0.3,0.2-0.5c-0.1-0.2-0.4,0.1-0.5,0c-0.1-0.1,0-0.3,0-0.5c0-0.1-0.1-0.2,0-0.2
						c0-0.1,0.2-0.2,0.1-0.3c-0.1-0.1-0.2-0.3-0.3-0.4c2.3-1.8,5.1-3.1,8.1-3.7l0,0c0,0.1,0.1,0.1,0.2,0.2c0.2-0.1,0.4,0,0.6,0
						c0.2,0,0.4-0.1,0.6-0.1c0.4,0.1,0.9,0.4,1.2,0.2c0.1-0.1,0.1-0.1,0.1-0.3c0.1-0.1,0.1-0.2,0.2-0.3c0.1,0,0.3,0,0.4,0
						c0.4,0,0.9,0,1.3,0v-1c-0.3,0-0.7,0-1,0c-0.1,0-0.2,0-0.4,0c-0.2,0-0.4,0-0.6,0c-1.9,0.1-3.8,0.4-5.6,1
						c-0.3,0.1-0.6,0.2-0.9,0.3c-0.1,0-0.2,0.1-0.3,0.1c-0.2,0.1-0.4,0.2-0.6,0.3c-0.3,0.1-0.6,0.3-0.8,0.4
						c-0.3,0.1-0.5,0.3-0.8,0.4c-1.1,0.6-2.1,1.3-3,2.2c-0.1,0.1-0.2,0.2-0.3,0.3c-0.2,0.2-0.4,0.4-0.7,0.6
						c-0.2,0.2-0.4,0.4-0.6,0.7c-0.3,0.3-0.6,0.7-0.9,1.1c-0.6,0.7-1.1,1.5-1.6,2.3c-0.2,0.3-0.3,0.5-0.4,0.8
						c-0.1,0.1-0.1,0.3-0.2,0.4c-0.2,0.4-0.4,0.8-0.6,1.3c-0.1,0.1-0.1,0.3-0.2,0.4c-0.2,0.6-0.4,1.2-0.6,1.8
						C40.3,410.5,40.2,410.8,40.1,411.1L40.1,411.1z M60.2,410.8v9c-0.1,0.1-0.1,0.1-0.2,0.1c-0.2,0-0.3-0.2-0.5-0.3
						c-0.5-0.2-0.7,0.2-1.1,0.2c-0.4,0-0.9-0.6-0.9-0.9c0-0.2,0.1-0.5,0.1-0.8c0-0.2,0.2-0.3,0.2-0.5c0-0.3-0.3-0.4-0.5-0.5
						c-0.4-0.1-0.9,0.2-1.4,0c-0.1-0.1,0.1-0.2,0.1-0.4c0-0.1,0-0.2,0-0.3c0-0.1,0.2-0.2,0.2-0.4c0-0.1,0.1-0.3,0.1-0.4
						c0.1-0.1,0.2-0.2,0.2-0.3c0-0.1,0-0.3-0.1-0.4c-0.3,0-0.6,0-0.8,0.1c-0.4,0.2-0.4,0.8-0.8,0.9c-0.2,0-0.4,0.1-0.5,0.1
						c-0.1,0-0.3,0.1-0.5,0.1c-0.2,0-0.5-0.2-0.6-0.3c-0.1-0.1-0.3-0.6-0.3-0.7c-0.2-0.6,0-1.2,0.2-1.6c0-0.1,0.1-0.2,0.2-0.3
						c0.1-0.1,0-0.4,0.1-0.5c0.1-0.3,0.5-0.5,0.7-0.6c0.3-0.2,0.6-0.4,0.9-0.4c0.2,0,0.4,0,0.6,0.1c0.2,0,0.3,0.1,0.4,0.1
						c0.4,0,0.5-0.3,0.8-0.4c0.3,0,0.5-0.1,0.8,0c0.2,0,0.3,0.2,0.5,0.2c0.1,0,0.2-0.1,0.4-0.1c0.1,0,0.3,0.3,0.4,0.4
						c0,0.2-0.1,0.4-0.1,0.6c0.2,0.2,0.5,0.2,0.8,0.3c0.2-0.1,0-0.4,0-0.6c0-0.1,0-0.2,0-0.3c0-0.1-0.1-0.3-0.1-0.4
						C59.7,411.2,59.9,411,60.2,410.8z"/>
				</g>
				<g>
					<path class="st2" d="M582,280.1h4.1v-31.6h-2.2v-0.6H582v2.7h1.9v18.2l0,0H582v2.3h1.9v2.6l0,0H582v1.8h1.9v2.6l0,0H582V280.1z
						 M580.1,247.9v0.6h-4v2h5.9v-2.7H580.1L580.1,247.9z M576.1,280.1h5.9V278h-1.9v-2.6h1.9v-1.8h-1.9V271h1.9v-2.3h-5.9v2.3h1.9
						v2.6l0,0h-1.9v1.8h1.9v2.6l0,0h-1.9V280.1z M576.1,248.6h-5.9v2h5.9V248.6L576.1,248.6z M570.1,280.1h5.9V278h-1.9v-2.6h1.9
						v-1.8h-1.9V271h1.9v-2.3h-5.9v2.3h1.9v2.6l0,0h-1.9v1.8h1.9v2.6l0,0h-1.9V280.1z M570.1,248.6H566v31.6h4.1V278h-1.9v-2.6h1.9
						v-1.8h-1.9V271h1.9v-2.3h-1.9v-18.2h1.9V248.6z"/>
				</g>
				<g>
					<path class="st2" d="M447.8,218h4.3l3.5,3.3h6.8c-5.4-2.9-9.1-10.5-11.4-18h1.2v-3.5h-2.3c-0.9-3.5-1.6-6.8-2.1-9.3v17.9
						l0.1-0.1c0.2,0.9,0.5,1.9,0.8,2.9l0,0l-0.9-0.9v3.1l1.6,1.5h-1.6V218z M445.3,218h2.5v-3.1h-2.5V218L445.3,218z M447.8,190.5
						c-0.5-3-0.7-4.9-0.7-4.9h-0.6l-1.1-6.3v12.5c0,0.2,0.3,6.1,0.7,7.9h-0.7v3.5h1.6c0,0,0.2,1,0.5,2.4l-2,2v3.1l2.5,2.5v-3.1
						l-0.9-0.9l0.9-0.9V190.5z M442.9,218h2.5h0v-3.1h0l0,0h-2.5V218L442.9,218z M445.3,179.4L445.3,179.4l-1.1,6.3h-0.6
						c0,0-0.2,1.9-0.7,4.9v17.9l0.9,0.9l-0.9,0.9v3.1l2.5-2.5h0v-3.1h0l-2-2c0.3-1.4,0.5-2.4,0.5-2.4h1.6l0,0h0v-3.5h0h-0.7
						c0.4-1.9,0.7-7.9,0.7-7.9l0,0l0,0V179.4z M428.3,221.3h6.8l3.5-3.3h4.3v-3.1h-1.5l1.5-1.6v-3.1l-0.9,0.9c0.3-1,0.5-2,0.8-2.9
						l0,0l0.1,0.1v-17.9c-0.4,2.5-1.1,5.8-2.1,9.3h-2.3v3.5h1.2C437.4,210.7,433.8,218.3,428.3,221.3z"/>
				</g>
				<g>
					<path class="st2" d="M220.7,424h5.7v-44.4h-3v-0.9h-2.7v3.7h2.7V408l0,0h-2.7v3.2h2.7v3.6l0,0h-2.7v2.6h2.7v3.6l0,0h-2.7V424z
						 M218,378.7v0.9h-5.6v2.8h8.4v-3.7H218L218,378.7z M212.4,424h8.4v-3H218v-3.6h2.7v-2.6H218v-3.6h2.7V408h-8.4v3.2h2.7v3.6l0,0
						h-2.7v2.6h2.7v3.6l0,0h-2.7V424z M212.4,379.6H204v2.8h8.4V379.6L212.4,379.6z M204,424h8.4v-3h-2.7v-3.6h2.7v-2.6h-2.7v-3.6
						h2.7V408H204v3.2h2.7v3.6l0,0H204v2.6h2.7v3.6l0,0H204V424z M204,379.6h-5.7V424h5.7v-3h-2.7v-3.6h2.7v-2.6h-2.7v-3.6h2.7V408
						h-2.7v-25.6h2.7V379.6z"/>
				</g>
				<g>
					<path class="st2" d="M401.1,357.2h5.7v-44.4h-3v-0.9h-2.7v3.7h2.7v25.6l0,0h-2.7v3.2h2.7v3.6l0,0h-2.7v2.6h2.7v3.6l0,0h-2.7
						V357.2z M398.4,311.9v0.9h-5.6v2.8h8.4v-3.7H398.4L398.4,311.9z M392.7,357.2h8.4v-3h-2.7v-3.6h2.7V348h-2.7v-3.6h2.7v-3.2
						h-8.4v3.2h2.7v3.6l0,0h-2.7v2.6h2.7v3.6l0,0h-2.7V357.2z M392.7,312.8h-8.4v2.8h8.4V312.8L392.7,312.8z M384.4,357.2h8.4v-3
						H390v-3.6h2.7V348H390v-3.6h2.7v-3.2h-8.4v3.2h2.7v3.6l0,0h-2.7v2.6h2.7v3.6l0,0h-2.7V357.2z M384.4,312.8h-5.7v44.4h5.7v-3
						h-2.7v-3.6h2.7V348h-2.7v-3.6h2.7v-3.2h-2.7v-25.6h2.7V312.8z"/>
				</g>
				<g>
					<polygon class="st2" points="92.5,128.4 103.6,115 92.5,106 					"/>
					<polygon class="st2" points="130.5,128.4 130.5,106 119.4,115 					"/>
					<polygon class="st2" points="130.4,129.3 130.5,129.3 130.5,129.2 					"/>
					<polygon class="st2" points="92.5,129.3 92.6,129.3 92.5,129.2 					"/>
					<polygon class="st2" points="129.9,129.3 129.8,129.2 118.5,115.7 111.5,121.3 104.5,115.7 93.2,129.2 93.1,129.3 					"/>
					<polygon class="st2" points="104.4,114.2 104.8,114.5 105.2,114.9 111.5,119.9 117.8,114.9 118.2,114.5 118.7,114.2 
						129.6,105.3 93.4,105.3 					"/>
				</g>
				<g>
					<path class="st2" d="M357.9,48.3c0-2.5-2-4.5-4.5-4.5h-7.5v3.6h7.5c0.5,0,0.9,0.4,0.9,0.9v7.5h-8.5v3.5h0
						c1.5,0,2.8,1.2,2.8,2.8c0,0.9-0.5,1.8-1.2,2.3c-0.1,0.1-0.3,0.2-0.4,0.2V68v0.8l0,0h-1.2v3.2h15.1V55.9h-3.1V48.3z M345.8,43.8
						h-7.5c-2.5,0-4.5,2-4.5,4.5v7.5h-3.1v16.1h15.1v-3.2h-1.2V68v-3.3c-0.1-0.1-0.3-0.1-0.4-0.2c-0.7-0.5-1.2-1.3-1.2-2.3
						c0-1.5,1.2-2.8,2.8-2.8v-3.5h-8.5l0,0v-7.5c0-0.5,0.4-0.9,0.9-0.9h7.5V43.8z"/>
				</g>
				<g>
					<path class="st2" d="M136.8,233.2c0-2.5-2-4.5-4.5-4.5h-7.5v3.6h7.5c0.5,0,0.9,0.4,0.9,0.9v7.5h-8.5v3.5h0
						c1.5,0,2.8,1.2,2.8,2.8c0,0.9-0.5,1.8-1.2,2.3c-0.1,0.1-0.3,0.2-0.4,0.2v3.3v0.8l0,0h-1.2v3.2h15.1v-16.1h-3.1V233.2z
						 M124.8,228.7h-7.5c-2.5,0-4.5,2-4.5,4.5v7.5h-3.1v16.1h15.1v-3.2h-1.2v-0.8v-3.3c-0.1-0.1-0.3-0.1-0.4-0.2
						c-0.7-0.5-1.2-1.3-1.2-2.3c0-1.5,1.2-2.8,2.8-2.8v-3.5h-8.5l0,0v-7.5c0-0.5,0.4-0.9,0.9-0.9h7.5V228.7z"/>
				</g>
				<g>
					<path class="st2" d="M283.3,503.7c0-2.5-2-4.5-4.5-4.5h-7.5v3.6h7.5c0.5,0,0.9,0.4,0.9,0.9v7.5h-8.5v3.5h0
						c1.5,0,2.8,1.2,2.8,2.8c0,0.9-0.5,1.8-1.2,2.3c-0.1,0.1-0.3,0.2-0.4,0.2v3.3v0.8l0,0h-1.2v3.2h15.1v-16.1h-3.1V503.7z
						 M271.2,499.2h-7.5c-2.5,0-4.5,2-4.5,4.5v7.5h-3.1v16.1h15.1v-3.2H270v-0.8V520c-0.1-0.1-0.3-0.1-0.4-0.2
						c-0.7-0.5-1.2-1.3-1.2-2.3c0-1.5,1.2-2.8,2.8-2.8v-3.5h-8.5l0,0v-7.5c0-0.5,0.4-0.9,0.9-0.9h7.5V499.2z"/>
				</g>
				<g>
					<path class="st2" d="M262.2,461.2l-3.4-3.7l-3-5.7v5.8l0.8,1.6h-0.8v7.5h3.4v3.5l0,0h-3.4v8.1h4.8c0.9,0,1.5-0.7,1.5-1.5v-3.8
						V461.2z M255.8,451.8l-0.2-0.3h-10.3v2.2h8.4l2,3.9V451.8L255.8,451.8z M245.4,472.8h8.8v3.8c0,0.9,0.7,1.5,1.5,1.5h0.1v-8.1
						h-3.4v-3.5h3.4v-7.5h-10.4V472.8z M245.4,451.5h-10.3l-0.2,0.3v5.8l2-3.9l0,0h8.4V451.5L245.4,451.5z M235,478.2L235,478.2
						c0.9,0,1.6-0.7,1.6-1.5v-3.8h8.8v-13.7H235v7.5h3.4v3.5l0,0H235V478.2z M235,451.8l-3,5.7l-3.4,3.7V472v0.8v3.8
						c0,0.9,0.7,1.5,1.5,1.5h4.8v-8.1h-3.4v-3.5h3.4v-7.5h-0.8l0.8-1.6V451.8z"/>
				</g>
				<g>
					<polygon class="st2" points="276.7,247.9 276.5,252.4 289.5,252.4 289.3,247.9 					"/>
					<path class="st2" d="M289.2,246.8h12.1V224H283v2.8h15V244h-8.9H283v2.8H289.2z M283,224h-18.3v22.8h12.1h6.2V244h-6.1H268l0,0
						v-17.2h15V224z"/>
					<polygon class="st2" points="274,253.5 274,255.3 292,255.3 292,253.5 289.6,253.5 276.4,253.5 					"/>
				</g>
				<g>
					<path class="st2" d="M443.4,444.2c1.2,0.8,2.6,1.2,4.1,1.2c4.1,0,7.4-3.3,7.4-7.4c0-4.1-3.3-7.4-7.4-7.4
						c-3.7,0-6.8,2.8-7.4,6.3h7.4h2.4l-1.6,1.8L443.4,444.2z"/>
					<path class="st2" d="M430.5,453.4v0.8v0.8v9.2c-2.1,0.3-3.6,1.3-3.6,2.5h10c0-1.1-1.3-2-3.1-2.4v-9.3v-0.8v-0.8l8.7-9.8
						l4.9-5.6H440h-23.2L430.5,453.4z"/>
				</g>
			</g>
		</g>
	</g>
	<g>
		<line class="st9" x1="481.9" y1="327.2" x2="99.1" y2="327.2"/>
		<line class="st9" x1="96.6" y1="246.3" x2="282.6" y2="144.3"/>
		<line class="st9" x1="499.5" y1="240.9" x2="277.9" y2="144.3"/>
		<path class="st10" d="M88.9,255.6h54.4c10.3,0,18.7,8.4,18.7,18.7l0,104.2c0,10.3-8.4,18.7-18.7,18.7l-54.4,0
			c-10.3,0-18.7-8.4-18.7-18.7l0-104.2C70.2,264,78.6,255.6,88.9,255.6z"/>
		<path class="st10" d="M546.1,231.2H427.5c-6.3,0-11.4,5.1-11.4,11.4v178.9c0,6.3,5.1,11.4,11.4,11.4h118.6
			c6.3,0,11.4-5.1,11.4-11.4V242.7C557.6,236.4,552.4,231.2,546.1,231.2z"/>
		<g>
			<g>
				<path class="st11" d="M73.2,242.1h54.4c10.3,0,18.7,8.4,18.7,18.7l0,104.2c0,10.3-8.4,18.7-18.7,18.7H73.2
					c-10.3,0-18.7-8.4-18.7-18.7l0-104.2C54.4,250.5,62.9,242.1,73.2,242.1z"/>
				<rect x="59.8" y="256.9" class="st12" width="81" height="107.2"/>
				<path class="st13" d="M86.7,249.9H114c0.7,0,1.3-0.6,1.3-1.3l0,0c0-0.7-0.6-1.3-1.3-1.3H86.7c-0.7,0-1.3,0.6-1.3,1.3v0
					C85.4,249.3,86,249.9,86.7,249.9z"/>
				<path class="st13" d="M77.4,376.1h45.9c1.1,0,2.1-0.9,2.1-2.1l0,0c0-1.1-0.9-2.1-2.1-2.1H77.4c-1.1,0-2.1,0.9-2.1,2.1l0,0
					C75.3,375.2,76.3,376.1,77.4,376.1z"/>
				<circle class="st11" cx="100.4" cy="374.1" r="8.2"/>
				<circle class="st13" cx="100.4" cy="374.1" r="5.8"/>
			</g>
		</g>
		<g>
			<g>
				<g>
					<path class="st14" d="M529.3,223.5H397.1c-5.3,0-9.6,4.3-9.6,9.6v174c0,5.3,4.3,9.6,9.6,9.6h132.2c5.3,0,9.6-4.3,9.6-9.6v-174
						C538.9,227.8,534.6,223.5,529.3,223.5z"/>
					<path class="st15" d="M463.2,411.9c-2.1,0-3.9-1.7-3.9-3.9c0-2.1,1.7-3.9,3.9-3.9c2.1,0,3.9,1.7,3.9,3.9
						C467,410.1,465.3,411.9,463.2,411.9z"/>
					<rect x="404.6" y="242.2" class="st16" width="117.1" height="155.9"/>
				</g>
			</g>
		</g>
	</g>
	<g>
		<path class="st14" d="M240.7,278l-1.4,4.2h-1.8l4.6-13.5h2.1l4.6,13.5h-1.9l-1.4-4.2H240.7z M245.1,276.7l-1.3-3.9
			c-0.3-0.9-0.5-1.7-0.7-2.5h0c-0.2,0.8-0.4,1.6-0.7,2.4l-1.3,3.9H245.1z"/>
		<path class="st14" d="M250.6,275.2c0-1,0-1.8-0.1-2.6h1.6l0.1,1.6h0c0.5-0.9,1.6-1.8,3.2-1.8c1.3,0,3.4,0.8,3.4,4.1v5.8h-1.8v-5.6
			c0-1.6-0.6-2.9-2.2-2.9c-1.2,0-2.1,0.8-2.4,1.8c-0.1,0.2-0.1,0.5-0.1,0.8v5.8h-1.8V275.2z"/>
		<path class="st14" d="M270.1,268.1v11.7c0,0.9,0,1.8,0.1,2.5h-1.6l-0.1-1.7h0c-0.5,1.1-1.7,1.9-3.3,1.9c-2.3,0-4.1-2-4.1-4.9
			c0-3.2,2-5.2,4.3-5.2c1.5,0,2.5,0.7,2.9,1.5h0v-5.8H270.1z M268.3,276.5c0-0.2,0-0.5-0.1-0.7c-0.3-1.1-1.2-2-2.5-2
			c-1.8,0-2.9,1.6-2.9,3.7c0,2,1,3.6,2.9,3.6c1.2,0,2.3-0.8,2.6-2.1c0.1-0.2,0.1-0.5,0.1-0.8V276.5z"/>
		<path class="st14" d="M273,275.6c0-1.1,0-2.1-0.1-3h1.5l0.1,1.9h0.1c0.4-1.3,1.5-2.1,2.7-2.1c0.2,0,0.3,0,0.5,0.1v1.7
			c-0.2,0-0.4-0.1-0.6-0.1c-1.2,0-2.1,0.9-2.4,2.3c0,0.2-0.1,0.5-0.1,0.8v5.2H273V275.6z"/>
		<path class="st14" d="M288.1,277.4c0,3.6-2.5,5.1-4.8,5.1c-2.6,0-4.6-1.9-4.6-5c0-3.2,2.1-5.1,4.8-5.1
			C286.2,272.4,288.1,274.4,288.1,277.4z M280.4,277.5c0,2.1,1.2,3.7,2.9,3.7c1.7,0,2.9-1.6,2.9-3.8c0-1.6-0.8-3.7-2.9-3.7
			C281.3,273.7,280.4,275.6,280.4,277.5z"/>
		<path class="st14" d="M292.3,269.9c0,0.6-0.4,1.1-1.1,1.1c-0.6,0-1.1-0.5-1.1-1.1c0-0.6,0.5-1.1,1.1-1.1
			C291.8,268.8,292.3,269.3,292.3,269.9z M290.3,282.3v-9.7h1.8v9.7H290.3z"/>
		<path class="st14" d="M303.3,268.1v11.7c0,0.9,0,1.8,0.1,2.5h-1.6l-0.1-1.7h0c-0.5,1.1-1.7,1.9-3.3,1.9c-2.3,0-4.1-2-4.1-4.9
			c0-3.2,2-5.2,4.3-5.2c1.5,0,2.5,0.7,2.9,1.5h0v-5.8H303.3z M301.6,276.5c0-0.2,0-0.5-0.1-0.7c-0.3-1.1-1.2-2-2.5-2
			c-1.8,0-2.9,1.6-2.9,3.7c0,2,1,3.6,2.9,3.6c1.2,0,2.3-0.8,2.6-2.1c0.1-0.2,0.1-0.5,0.1-0.8V276.5z"/>
		<path class="st14" d="M218.2,292.8h7.3v1.5H220v4.5h5.1v1.4H220v6.1h-1.7V292.8z"/>
		<path class="st14" d="M227.4,299.6c0-1.1,0-2.1-0.1-3h1.5l0.1,1.9h0.1c0.4-1.3,1.5-2.1,2.7-2.1c0.2,0,0.3,0,0.5,0.1v1.7
			c-0.2,0-0.4-0.1-0.6-0.1c-1.2,0-2.1,0.9-2.4,2.3c0,0.2-0.1,0.5-0.1,0.8v5.2h-1.7V299.6z"/>
		<path class="st14" d="M239.2,306.3l-0.1-1.2H239c-0.5,0.8-1.6,1.4-3,1.4c-2,0-3-1.4-3-2.8c0-2.3,2.1-3.6,5.8-3.6v-0.2
			c0-0.8-0.2-2.2-2.2-2.2c-0.9,0-1.8,0.3-2.5,0.7l-0.4-1.2c0.8-0.5,2-0.9,3.2-0.9c3,0,3.7,2,3.7,4v3.6c0,0.8,0,1.7,0.2,2.3H239.2z
			 M238.9,301.3c-1.9,0-4.1,0.3-4.1,2.2c0,1.1,0.8,1.7,1.7,1.7c1.3,0,2.1-0.8,2.3-1.6c0.1-0.2,0.1-0.4,0.1-0.6V301.3z"/>
		<path class="st14" d="M251.8,296.6c0,0.7-0.1,1.5-0.1,2.7v5.6c0,2.2-0.4,3.6-1.4,4.4c-0.9,0.9-2.3,1.2-3.5,1.2
			c-1.2,0-2.4-0.3-3.2-0.8l0.4-1.3c0.6,0.4,1.6,0.8,2.8,0.8c1.8,0,3.1-0.9,3.1-3.4v-1.1h0c-0.5,0.9-1.6,1.6-3.1,1.6
			c-2.4,0-4.1-2-4.1-4.7c0-3.3,2.1-5.1,4.4-5.1c1.7,0,2.6,0.9,3,1.7h0l0.1-1.5H251.8z M250,300.4c0-0.3,0-0.6-0.1-0.8
			c-0.3-1-1.2-1.9-2.5-1.9c-1.7,0-2.9,1.4-2.9,3.7c0,1.9,1,3.5,2.9,3.5c1.1,0,2.1-0.7,2.4-1.8c0.1-0.3,0.1-0.6,0.1-0.9V300.4z"/>
		<path class="st14" d="M254.5,299.2c0-1,0-1.8-0.1-2.6h1.5l0.1,1.6h0.1c0.5-0.9,1.4-1.8,3-1.8c1.3,0,2.3,0.8,2.7,1.9h0
			c0.3-0.5,0.7-1,1.1-1.3c0.6-0.4,1.2-0.7,2.1-0.7c1.3,0,3.2,0.8,3.2,4.2v5.7h-1.7v-5.5c0-1.9-0.7-3-2.1-3c-1,0-1.8,0.7-2.1,1.6
			c-0.1,0.2-0.1,0.6-0.1,0.9v6h-1.7v-5.8c0-1.5-0.7-2.7-2-2.7c-1.1,0-1.9,0.9-2.2,1.8c-0.1,0.3-0.1,0.6-0.1,0.9v5.8h-1.7V299.2z"/>
		<path class="st14" d="M272.2,301.8c0,2.4,1.6,3.4,3.3,3.4c1.3,0,2-0.2,2.7-0.5l0.3,1.3c-0.6,0.3-1.7,0.6-3.2,0.6
			c-3,0-4.8-2-4.8-4.9c0-2.9,1.7-5.2,4.5-5.2c3.2,0,4,2.8,4,4.6c0,0.4,0,0.6-0.1,0.8H272.2z M277.3,300.5c0-1.1-0.5-2.9-2.4-2.9
			c-1.8,0-2.6,1.6-2.7,2.9H277.3z"/>
		<path class="st14" d="M281.2,299.2c0-1,0-1.8-0.1-2.6h1.6l0.1,1.6h0c0.5-0.9,1.6-1.8,3.2-1.8c1.3,0,3.4,0.8,3.4,4.1v5.8h-1.8v-5.6
			c0-1.6-0.6-2.9-2.2-2.9c-1.2,0-2.1,0.8-2.4,1.8c-0.1,0.2-0.1,0.5-0.1,0.8v5.8h-1.8V299.2z"/>
		<path class="st14" d="M294.4,293.8v2.8h2.5v1.3h-2.5v5.2c0,1.2,0.3,1.9,1.3,1.9c0.5,0,0.8-0.1,1-0.1l0.1,1.3
			c-0.3,0.1-0.9,0.2-1.6,0.2c-0.8,0-1.5-0.3-1.9-0.7c-0.5-0.5-0.7-1.4-0.7-2.5v-5.3h-1.5v-1.3h1.5v-2.3L294.4,293.8z"/>
		<path class="st14" d="M305.3,302l-1.4,4.2h-1.8l4.6-13.5h2.1l4.6,13.5h-1.9l-1.4-4.2H305.3z M309.8,300.7l-1.3-3.9
			c-0.3-0.9-0.5-1.7-0.7-2.5h0c-0.2,0.8-0.4,1.6-0.7,2.4l-1.3,3.9H309.8z"/>
		<path class="st14" d="M315.4,293c0.8-0.1,1.9-0.3,3.3-0.3c1.7,0,3,0.4,3.8,1.1c0.7,0.6,1.2,1.6,1.2,2.8c0,1.2-0.4,2.2-1,2.9
			c-0.9,1-2.4,1.5-4.1,1.5c-0.5,0-1,0-1.4-0.1v5.4h-1.7V293z M317.1,299.5c0.4,0.1,0.9,0.1,1.4,0.1c2.1,0,3.4-1,3.4-2.9
			c0-1.8-1.3-2.6-3.2-2.6c-0.8,0-1.3,0.1-1.6,0.1V299.5z"/>
		<path class="st14" d="M327.8,292.8v13.5H326v-13.5H327.8z"/>
	</g>
	<g>
		<g>
			<path class="st17" d="M480.4,286.4h-33.9c-0.8,0-1.5,0.7-1.5,1.4v23c0,3.9,2.8,7.2,5.6,8.6v8c0,2.3,1.8,3.9,4.2,3.9
				s4.2-1.6,4.2-3.9v-7.2h8.5v7.2c0,2.3,1.8,3.9,4.2,3.9c2.5,0,4.2-1.6,4.2-3.9v-8c2.8-1.5,5.6-4.8,5.6-8.6v-23
				C481.8,287,481.2,286.4,480.4,286.4z"/>
			<path class="st17" d="M446.6,283.1c0.3,0.3,0.7,0.5,1.1,0.5h31.6c0.4,0,0.8-0.2,1.1-0.5c0.3-0.3,0.4-0.7,0.3-1.1
				c-0.6-4.8-2.6-8.4-5.7-10.9l2.1-2.8c0.5-0.6,0.4-1.5-0.3-2c-0.6-0.5-1.5-0.4-2,0.3l-2.3,3c-2.5-1.3-5.6-2-9.1-2
				c-3.7,0-6.9,0.8-9.6,2.2l-2.5-3.2c-0.5-0.6-1.4-0.7-2-0.3c-0.6,0.5-0.7,1.4-0.3,2l2.4,3.1c-2.9,2.5-4.7,6-5.3,10.6
				C446.2,282.4,446.4,282.8,446.6,283.1z"/>
			<path class="st17" d="M488.9,286.4c-2.3,0-4.2,1.9-4.2,4.2v14.1c0,2.3,1.9,4.2,4.2,4.2c2.3,0,4.2-1.9,4.2-4.2v-14.1
				C493.1,288.3,491.2,286.4,488.9,286.4z"/>
			<path class="st17" d="M438.1,286.4c-2.3,0-4.2,1.9-4.2,4.2v14.1c0,2.3,1.9,4.2,4.2,4.2c2.3,0,4.2-1.9,4.2-4.2v-14.1
				C442.3,288.3,440.4,286.4,438.1,286.4z"/>
		</g>
		<rect x="413.7" y="354.1" class="st14" width="98.5" height="2.9"/>
		<rect x="413.7" y="362.5" class="st14" width="98.5" height="2.9"/>
		<rect x="413.7" y="370.9" class="st14" width="98.5" height="2.9"/>
	</g>
	<g>
		<g>
			<path class="st17" d="M112.2,288H88.5c-0.5,0-1,0.5-1,1v16.2c0,2.7,2,5,4,6.1v5.6c0,1.6,1.2,2.7,3,2.7s3-1.1,3-2.7v-5.1h5.9v5.1
				c0,1.6,1.3,2.7,3,2.7c1.7,0,3-1.1,3-2.7v-5.6c2-1,4-3.3,4-6V289C113.2,288.5,112.8,288,112.2,288z"/>
			<path class="st17" d="M88.5,285.7c0.2,0.2,0.5,0.3,0.7,0.3h22.2c0.3,0,0.6-0.1,0.7-0.3c0.2-0.2,0.3-0.5,0.2-0.8
				c-0.4-3.3-1.8-5.9-4-7.6l1.5-2c0.3-0.4,0.3-1.1-0.2-1.4c-0.4-0.3-1.1-0.2-1.4,0.2l-1.6,2.1c-1.8-0.9-3.9-1.4-6.4-1.4
				c-2.6,0-4.9,0.5-6.7,1.5l-1.7-2.3c-0.3-0.4-1-0.5-1.4-0.2c-0.4,0.3-0.5,1-0.2,1.4l1.7,2.2c-2,1.7-3.3,4.2-3.7,7.4
				C88.2,285.2,88.3,285.5,88.5,285.7z"/>
			<path class="st17" d="M118.1,288.1c-1.6,0-3,1.3-3,3v9.9c0,1.6,1.3,3,3,3c1.6,0,3-1.3,3-3V291
				C121.1,289.4,119.8,288.1,118.1,288.1z"/>
			<path class="st17" d="M82.5,288.1c-1.6,0-3,1.3-3,3v9.9c0,1.6,1.3,3,3,3c1.6,0,3-1.3,3-3V291C85.5,289.4,84.1,288.1,82.5,288.1z"
				/>
		</g>
		<rect x="65.4" y="335.6" class="st14" width="69.1" height="2"/>
		<rect x="65.4" y="341.5" class="st14" width="69.1" height="2"/>
		<rect x="65.4" y="347.4" class="st14" width="69.1" height="2"/>
	</g>
</g>
</svg>
