<?xml version="1.0" encoding="utf-8"?>
<!-- Generator: Adobe Illustrator 19.2.1, SVG Export Plug-In . SVG Version: 6.00 Build 0)  -->
<svg version="1.1" id="Layer_1" xmlns="http://www.w3.org/2000/svg" xmlns:xlink="http://www.w3.org/1999/xlink" x="0px" y="0px"
	 viewBox="0 0 612 612" style="enable-background:new 0 0 612 612;" xml:space="preserve">
<style type="text/css">
	.st0{fill:#FDB913;}
	.st1{fill:#231F20;}
	.st2{fill:#424143;}
	.st3{fill:#595A5C;}
	.st4{fill:#FFFFFF;}
	.st5{fill:none;stroke:#8CC3CD;stroke-width:1.0527;stroke-miterlimit:10;}
	.st6{fill:#D6E03E;}
	.st7{fill:#7ECDC3;}
	.st8{fill:url(#SVGID_1_);}
	.st9{fill:#91742C;}
	.st10{fill:#5E9841;}
	.st11{fill:#588A3D;}
	.st12{fill:url(#SVGID_2_);}
	.st13{opacity:0.5;fill:url(#SVGID_3_);}
	.st14{fill:#D92027;}
	.st15{fill:#6E6F72;}
	.st16{fill:#67BBE9;}
	.st17{fill:url(#SVGID_4_);}
	.st18{fill:#F2F2F2;}
	.st19{fill:#11BCD2;}
	.st20{fill:#BDBEC0;}
	.st21{fill:#0DB259;}
	.st22{fill:#068643;}
	.st23{fill:#9B5CA5;}
	.st24{fill:#139CD8;}
	.st25{fill:#73CCF3;}
	.st26{fill:#1AB5E9;}
	.st27{fill:#EE4143;}
	.st28{fill:none;stroke:#7D7D7D;stroke-width:2;stroke-linejoin:round;}
	.st29{fill:none;stroke:#7D7D7D;stroke-width:2;stroke-linejoin:round;stroke-dasharray:6.445,6.445;}
	.st30{fill:none;stroke:#7D7D7D;stroke-width:2;stroke-linejoin:round;stroke-dasharray:6.1932,6.1932;}
	.st31{fill:none;stroke:#7D7D7D;stroke-width:2;stroke-linejoin:round;stroke-dasharray:6.0865,6.0865;}
	.st32{fill:none;stroke:#7D7D7D;stroke-width:2;stroke-linejoin:round;stroke-dasharray:5.7757,5.7757;}
	.st33{fill:none;stroke:#7D7D7D;stroke-width:2;stroke-linejoin:round;stroke-dasharray:5.5421,5.5421;}
	.st34{fill:none;stroke:#7D7D7D;stroke-width:2;stroke-linejoin:round;stroke-dasharray:6.5981,6.5981;}
	.st35{fill:none;stroke:#7D7D7D;stroke-width:2;stroke-linejoin:round;stroke-dasharray:6.404,6.404;}
	.st36{fill:none;stroke:#7D7D7D;stroke-width:2;stroke-linejoin:round;stroke-dasharray:5.7945,5.7945;}
	.st37{fill:none;stroke:#7D7D7D;stroke-width:2;stroke-linejoin:round;stroke-dasharray:6.0891,6.0891;}
	.st38{fill:none;stroke:#7D7D7D;stroke-width:2;stroke-linejoin:round;stroke-miterlimit:10;stroke-dasharray:6;}
</style>
<g>
	<circle class="st0" cx="306" cy="306" r="306"/>
	<g>
		<g>
			<path class="st1" d="M453.3,487.4l-50.1-197.6c0,0,0-0.1,0-0.1l-3.7-14.5c-1-4-5.3-7.3-9.4-7.3H375l-142.3,0h-15.1
				c-4.2,0-8.4,3.3-9.4,7.3l-3.7,14.6c0,0,0,0,0,0l-50.1,197.6c-3.1,12.1,4.6,22,17.1,22h264.6C448.7,509.4,456.3,499.5,453.3,487.4
				z"/>
			<path class="st2" d="M453.3,487.4l-1.4-5.6c0.1,0.8-0.6,4.4-22.3,4.4c-22.1,0-125.3,0-127,0c-16.2,0-102.2,0-124.3,0
				c-21.8,0-22.4-3.6-22.3-4.4l-1.4,5.6c-3.1,12.1,4.6,22,17.1,22h131h133.7C448.7,509.4,456.3,499.5,453.3,487.4z"/>
			<g>
				<path class="st3" d="M324.7,276.7c0,1.2-1.3,2.2-2.9,2.2h-30.1c-1.6,0-2.9-1-2.9-2.2c0-1.2,1.3-2.2,2.9-2.2h30.1
					C323.4,274.5,324.7,275.5,324.7,276.7z"/>
			</g>
			<g>
				<path class="st1" d="M355.8,496.9c0,1.4-1.3,2.6-2.9,2.6H169.1c-1.6,0-2.9-1.2-2.9-2.6c0-1.4,1.3-2.6,2.9-2.6h183.8
					C354.5,494.3,355.8,495.5,355.8,496.9z"/>
			</g>
			<g>
				<path class="st1" d="M437.5,496.9c0,1.4-1.3,2.6-2.9,2.6h-66.1c-1.6,0-2.9-1.2-2.9-2.6c0-1.4,1.3-2.6,2.9-2.6h66.1
					C436.2,494.3,437.5,495.5,437.5,496.9z"/>
			</g>
			<polygon class="st4" points="436.6,470.3 172,470.3 213.3,287.4 395.3,287.4 			"/>
			<ellipse class="st5" cx="304.1" cy="351.1" rx="66.4" ry="33.1"/>
			<path class="st6" d="M304.3,317.1c-36.8,0-66.6,15.1-66.6,33.8c0,18.6,29.8,33.8,66.6,33.8c36.8,0,66.6-15.1,66.6-33.8
				C370.9,332.2,341.1,317.1,304.3,317.1z M304.3,378.5c-30.2,0-54.6-12.4-54.6-27.7c0-15.3,24.4-27.7,54.6-27.7
				c30.2,0,54.6,12.4,54.6,27.7C358.9,366.2,334.5,378.5,304.3,378.5z"/>
		</g>
		<polygon class="st7" points="419.4,393.9 189.4,393.9 172,470.3 436.6,470.3 		"/>
	</g>
	<g>
		
			<radialGradient id="SVGID_1_" cx="346.1262" cy="885.6413" r="63.1617" gradientTransform="matrix(1.1672 0 0 0.1167 -104.9731 250.6043)" gradientUnits="userSpaceOnUse">
			<stop  offset="0" style="stop-color:#231F20"/>
			<stop  offset="4.817319e-002" style="stop-color:#342F30"/>
			<stop  offset="0.1625" style="stop-color:#5A5454"/>
			<stop  offset="0.2821" style="stop-color:#817B7B"/>
			<stop  offset="0.4055" style="stop-color:#A7A2A2"/>
			<stop  offset="0.5339" style="stop-color:#C8C4C4"/>
			<stop  offset="0.6697" style="stop-color:#E2E0E0"/>
			<stop  offset="0.8175" style="stop-color:#F5F4F4"/>
			<stop  offset="1" style="stop-color:#FFFFFF"/>
		</radialGradient>
		<ellipse class="st8" cx="299" cy="354" rx="73.7" ry="7.4"/>
		<g>
			<g>
				<g>
					<path class="st9" d="M341.2,287.4c-0.5,0-0.9-0.2-1.3-0.5c-0.8-0.7-0.8-1.9-0.1-2.7c5.7-6.1,19-24,11.9-33
						c-1.1-1.4-2.3-1.9-3.9-1.9c-7.9,0.4-20.3,17.6-24.4,24.1c-0.6,0.9-1.7,1.2-2.6,0.6c-0.9-0.6-1.2-1.8-0.6-2.6
						c1.6-2.6,16.2-25.3,27.5-25.9c2.7-0.2,5.2,1,7.1,3.3c10.6,13.4-11.1,37-12.1,38C342.2,287.2,341.7,287.4,341.2,287.4z"/>
				</g>
				<path class="st10" d="M336.8,270.4l15.4,9.6c0,0-21.6,55.7-19.7,74.9H321C321,354.8,325.8,287.2,336.8,270.4z"/>
				<path class="st11" d="M312.3,354.8h8.6c0,0,5.8-62.4,15.8-84.5l-17.8-23C319,247.3,303.7,304,312.3,354.8z"/>
				<linearGradient id="SVGID_2_" gradientUnits="userSpaceOnUse" x1="301.7731" y1="301.0862" x2="260.7397" y2="301.0862">
					<stop  offset="0" style="stop-color:#AAD03A"/>
					<stop  offset="1" style="stop-color:#6BB345"/>
				</linearGradient>
				<path class="st12" d="M319,247.3c0,0-13,72-6.7,107.5h-41.8c0,0-9.6-58.5-20.2-75.3C250.4,279.5,294.1,252.1,319,247.3z"/>
				<g>
					<circle class="st4" cx="291.4" cy="267.1" r="3.6"/>
					<circle class="st4" cx="269.7" cy="277.4" r="3.6"/>
				</g>
				<g>
					<path class="st9" d="M268.9,277.7c-0.7,0-1.3-0.3-1.7-1c-1.5-2.6-14.8-26.1-10.1-36.4c1.2-2.5,3.3-4.2,6.3-4.7
						c16.8-3.1,27.5,27.1,27.9,28.4c0.3,1-0.2,2.1-1.2,2.4c-1,0.3-2.1-0.2-2.4-1.2c-2.7-7.9-12.3-28-23.6-25.9
						c-1.7,0.3-2.8,1.1-3.5,2.5c-3.3,7.2,6,26.2,9.9,32.9c0.5,0.9,0.2,2.1-0.7,2.6C269.5,277.6,269.2,277.7,268.9,277.7z"/>
				</g>
			</g>
			<path class="st4" d="M311.5,255.2c0,0-11,64.3-4.4,91.7C307.1,346.9,296.2,303.8,311.5,255.2z"/>
			<linearGradient id="SVGID_3_" gradientUnits="userSpaceOnUse" x1="296.7458" y1="314.6043" x2="259.7296" y2="314.6043">
				<stop  offset="0" style="stop-color:#7BC144"/>
				<stop  offset="1" style="stop-color:#6BB345"/>
			</linearGradient>
			<path class="st13" d="M259.1,274.4c-4.7,2.8-8.7,5.1-8.7,5.1c10.6,16.8,20.2,75.3,20.2,75.3h41.8l-35.1-6.2
				C261.4,310.7,259.1,274.4,259.1,274.4z"/>
		</g>
	</g>
	<g>
		<g>
			<g>
				<path class="st14" d="M265.3,160.8h-53.4c-1.8,0-3.4-1.1-4.1-2.7L188.3,114h-15.2c-2.5,0-4.5-2-4.5-4.5c0-2.5,2-4.5,4.5-4.5
					h18.1c1.8,0,3.4,1.1,4.1,2.7l19.5,44.1h46.8l5.8-28.4h-50.1c-2.5,0-4.5-2-4.5-4.5c0-2.5,2-4.5,4.5-4.5H273
					c1.4,0,2.6,0.6,3.5,1.7c0.9,1.1,1.2,2.4,0.9,3.8l-7.6,37.4C269.3,159.3,267.5,160.8,265.3,160.8z"/>
			</g>
			<g>
				<path class="st14" d="M269.7,139.7h-38.7c-2.5,0-4.5-2-4.5-4.5c0-2.5,2-4.5,4.5-4.5h38.7c2.5,0,4.5,2,4.5,4.5
					C274.2,137.7,272.1,139.7,269.7,139.7z"/>
			</g>
		</g>
		<g>
			<g>
				<circle class="st3" cx="221.1" cy="174.7" r="9"/>
			</g>
			<g>
				<circle class="st3" cx="253.4" cy="174.7" r="9"/>
			</g>
		</g>
	</g>
	<g>
		<g>
			<path class="st15" d="M140.7,430.8c2.3,2.7,2,6.9-0.8,9.2l-2.6,2.2c-2.7,2.3-6.9,2-9.2-0.8l-19-22.3c-1.4-1.6,1.6-6.1,2.7-6.9
				l0.5-0.5c2.7-2.3,7.8-5.1,9.4-3.3L140.7,430.8z"/>
			
				<ellipse transform="matrix(0.7624 -0.6472 0.6472 0.7624 -240.4764 173.1625)" class="st2" cx="115.5" cy="414" rx="8.2" ry="4.1"/>
			<path class="st16" d="M112.5,403.6c14.4-15.2,15.4-39.1,1.6-55.4c-14.8-17.5-41-19.6-58.4-4.8c-17.5,14.8-19.6,41-4.8,58.4
				c13.9,16.3,37.6,19.2,54.9,7.4l4.4,5.2c1.5,1.7,4,1.9,5.7,0.5l0.5-0.4c1.7-1.4,1.9-4,0.5-5.7L112.5,403.6z"/>
			
				<linearGradient id="SVGID_4_" gradientUnits="userSpaceOnUse" x1="104.1031" y1="330.7376" x2="173.9191" y2="330.7376" gradientTransform="matrix(0.9967 8.150000e-002 -8.150000e-002 0.9967 -29.1385 34.0649)">
				<stop  offset="0" style="stop-color:#57BCEB"/>
				<stop  offset="1" style="stop-color:#0D76BD"/>
			</linearGradient>
			<path class="st17" d="M109.1,352.5c12.5,14.7,10.7,36.7-4,49.2c-14.7,12.5-36.7,10.7-49.2-4c-12.5-14.7-10.7-36.7,4-49.2
				C74.6,335.9,96.6,337.8,109.1,352.5z"/>
			
				<ellipse transform="matrix(0.7624 -0.6471 0.6471 0.7624 -223.1067 142.4804)" class="st18" cx="82.5" cy="375" rx="32.6" ry="32.6"/>
			<path class="st4" d="M110.4,405.6l1.4-1.3l4.3,5c0,0,1.2,1.2-0.1,2.4L110.4,405.6z"/>
		</g>
	</g>
	<g>
		<g>
			<rect x="84.4" y="190.8" class="st4" width="63.3" height="87.5"/>
			<rect x="84.4" y="190.8" class="st19" width="63.3" height="13.2"/>
			<g>
				<g>
					<rect x="96.1" y="211.6" class="st20" width="43.7" height="2.9"/>
					<rect x="96.1" y="222.9" class="st20" width="43.7" height="2.9"/>
					<rect x="96.1" y="234.8" class="st20" width="43.7" height="2.9"/>
				</g>
				<rect x="96.1" y="247.5" class="st20" width="43.7" height="21"/>
			</g>
		</g>
		<g>
			<g>
				<path class="st21" d="M112.5,276.8l12.5-13.4l12.2,17.5c0,0,13-32.4,42.3-49.7l1.9,1.2c0,0-25.8,19.2-38.2,67.1l-2.7,1
					L112.5,276.8z"/>
				<polygon class="st22" points="112.5,276.8 140.4,300.4 133.1,300.5 111.7,282.7 				"/>
				<path class="st22" d="M137.2,280.8c0,0,13-32.4,42.3-49.7c-25.2,13.4-43.7,43.8-44.7,46.3L137.2,280.8z"/>
			</g>
		</g>
	</g>
	<g>
		<g>
			<rect x="349.5" y="102.6" class="st23" width="63.6" height="58.7"/>
			<polygon class="st23" points="330.2,152.9 381.3,197.2 432.4,152.9 			"/>
		</g>
		<g>
			<g>
				<path class="st4" d="M379.9,162v-3.8c-2.2,0-4.4-0.7-5.7-1.6l0.9-2.5c1.3,0.9,3.3,1.6,5.4,1.6c2.7,0,4.4-1.5,4.4-3.7
					c0-2.1-1.5-3.3-4.2-4.4c-3.8-1.5-6.2-3.2-6.2-6.5c0-3.1,2.2-5.5,5.6-6v-3.8h2.3v3.6c2.2,0.1,3.8,0.7,4.9,1.3l-0.9,2.5
					c-0.8-0.4-2.3-1.3-4.7-1.3c-2.9,0-4,1.7-4,3.2c0,1.9,1.4,2.9,4.6,4.3c3.9,1.6,5.8,3.5,5.8,6.8c0,3-2.1,5.7-5.9,6.4v3.9H379.9z"
					/>
			</g>
			<g>
				<path class="st4" d="M381.3,126.4c4.3,0,8.3,1.3,11.5,3.6l3.1-3.1c-4.1-3-9.2-4.8-14.6-4.8c-6.6,0-12.5,2.6-17,6.8l3.1,3.1
					C371.1,128.5,376,126.4,381.3,126.4z"/>
				<path class="st4" d="M381.3,167.1c-5.2,0-10-2-13.6-5.2l-3.1,3.1c4.4,4,10.2,6.5,16.7,6.5c5.4,0,10.3-1.7,14.3-4.6l-3.1-3.1
					C389.3,165.9,385.5,167.1,381.3,167.1z"/>
				<path class="st4" d="M361,146.8c0-4.1,1.2-8,3.4-11.2l-3.1-3.1c-2.9,4-4.6,9-4.6,14.3c0,5.5,1.8,10.5,4.8,14.6l3.1-3.1
					C362.3,155,361,151.1,361,146.8z"/>
				<path class="st4" d="M401.7,146.8c0,5.4-2.1,10.2-5.5,13.9l3.1,3.1c4.2-4.4,6.8-10.4,6.8-17c0-6.4-2.5-12.3-6.5-16.7l-3.1,3.1
					C399.7,136.8,401.7,141.5,401.7,146.8z"/>
			</g>
		</g>
	</g>
	<g>
		<circle class="st24" cx="490.7" cy="230.7" r="24.5"/>
		<g>
			<path class="st25" d="M473.3,238.1c0.1,0.1,0,0.5,0.2,0.5c0.2,0,0.4,0,0.4-0.1c0-0.1,0-0.3,0-0.5c0-0.1,0.1-0.2,0.2-0.4
				c0.1-0.2,0.5-0.5,0.5-0.5s0.2-0.3,0.3-0.1c0,0.2,0.2,0.3,0.2,0.5c0,0.1,0.1,0.2,0.2,0.1c0.2-0.1,0.4,0,0.3-0.3
				c-0.1-0.2-0.1-0.2-0.2-0.5c-0.1-0.3-0.2,0.1-0.1-0.3c0.1-0.4,0.2-0.6,0.2-0.6s-0.3-0.3,0-0.3c0.3,0,0.4,0.2,0.4,0.2
				s0.1,0.1,0.2,0.1c0.1,0,0.3-0.1,0.3-0.3c0-0.2-0.1-0.4-0.1-0.4s-0.4-0.2-0.1-0.6c0.3-0.4,0.4-0.6,0.5-0.7
				c0.1-0.2,0.2-0.6,0.2-0.6l0.4-0.4c0,0,0.2,0,0.2,0.1c0,0.1-0.2,0.2,0,0.3c0.2,0.1,0.2,0,0.5,0c0.3,0,0.7,0.1,0.7,0.2
				c0,0.1,0.6,0.9,0.6,0.9s0.5,0.2,0.7,0.3c0.1,0.1,0.7,0.2,0.7,0.3c0,0.2,1,0.7,1.1,0.9c0.1,0.2,0.1,0.6,0.2,0.8
				c0.1,0.2,0.1,0.5,0.1,0.6c0.1,0.1,0.5,0.4,0.5,0.4s0.1,0.3,0.2,0.5c0,0.2,0.1,0.1,0.3,0.3c0.2,0.1,0.3,0.4,0.3,0.4
				s0.5,0.2,0.4-0.2c-0.1-0.4-0.1-0.4-0.1-0.6c0-0.2,0.4-0.7,0.4-0.9c-0.1-0.2,0-0.7-0.1-0.8c0-0.2,0-0.6,0-0.8
				c0.1-0.2,0.2-0.6,0.1-0.8c0-0.2-0.1-0.2,0-0.7c0-0.4,0.1-0.6,0.1-0.7c-0.1-0.1-0.2-0.4-0.3-0.7c-0.1-0.2,0.1-0.5,0.1-0.5
				s0.2,0.2,0.3,0.3c0.1,0.1,0.4,0.1,0.4,0.1l0.4-0.1l0.1-0.4l-0.2-0.2l-0.1-0.3l0.3-0.2c0,0,0.6-0.2,0.6-0.3c0-0.1,0.1-0.5,0.1-0.5
				s-0.1-0.3,0.1-0.4c0.2-0.1,0.7-0.2,0.9-0.2c0.1,0,1-0.1,1-0.1l0.5-0.2l1-0.5c0,0,0.2-0.2,0.2-0.5c0-0.3,0.5-0.5,0.5-0.5
				s0.1,0.1,0.3,0.1c0.3,0,0.4,0,0.7-0.2c0.2-0.2,0.5-0.3,0.5-0.6c0-0.2,0.1-0.4,0.1-0.7c0-0.3,0.1-0.6,0.1-0.6l0.4-0.3
				c0,0,0.2-0.1,0.3,0c0.1,0.2-0.2,0,0.1,0.2c0.3,0.2,0.4-0.1,0.4,0.2c0,0.3,0,0.6-0.1,0.9c-0.1,0.3-0.1,0.4-0.2,0.6
				c0,0.1,0,0.2,0,0.4c0,0.2,0,0.3-0.1,0.4c-0.1,0.1-0.3,0.2-0.3,0.3c0,0.1,0.2,0.3,0,0.4c-0.2,0.1-0.8,0.3-0.8,0.3s-0.1,0.1-0.3,0
				c-0.3-0.2-0.1,0-0.3-0.2c-0.2-0.2-0.4-0.3-0.4-0.3s-0.2-0.1-0.3,0.1c-0.1,0.2,0,0.4,0,0.4s0.1,0.1,0,0.2
				c-0.1,0.1-0.2,0.2-0.3,0.3c-0.2,0.1-0.2,0.3-0.2,0.3s-0.3,0.1-0.3,0.3c0,0.2-0.2,0.3,0.1,0.4c0.2,0.1,0.4,0.1,0.7,0.3
				c0.3,0.2,0.5,0.5,0.7,0.6c0.2,0.1,0.4,0.2,0.7,0.2c0.3,0.1,0.5,0.1,0.8,0.1c0.4,0,0.6-0.2,0.7-0.1c0.1,0.1,0.1,0.3,0.5,0.4
				c0.4,0.1,1.3,0,1.3,0s0.2,0.1,0.3,0.1c0.1,0,0.3,0.1,0.6,0c0.2-0.1,0.6-0.3,0.6-0.3s0.1,0.1,0.3,0c0.2,0,0.4-0.2,0.3-0.4
				c-0.1-0.2,0-0.7-0.1-0.9c-0.1-0.2-0.1-1.3-0.1-1.3s-0.1-0.1,0.1-0.5c0.1-0.4,0.1-0.6,0.1-0.6s0.3-0.8,0.2-1
				c-0.2-0.2-0.2-0.3-0.3-0.4c-0.1-0.1-0.1-0.4,0-0.5c0.1-0.1,0.4-0.6,0.4-0.6l-0.2-0.8c0,0,0-0.4,0-0.6c0-0.1,0-0.4,0-0.4
				s0.6,0.1,0.9,0.4c0,0,0.5,0.7,0.3,1c-0.2,0.3-0.2,0.5-0.1,0.8c0.1,0.3,0.3,0.3,0.2,0.6c-0.1,0.3-0.1-0.1-0.1,0.3
				c0,0.4,0,0.7,0.1,0.9c0.1,0.2,0.3,0.5,0.1,0.8c-0.2,0.3-0.1-0.1-0.2,0.3c-0.1,0.5,0,0.6,0,0.8c0,0.2,0.1-0.2,0,0.2
				c-0.1,0.4-0.3,0.7-0.1,0.8c0.2,0.1,0.6,0.3,0.5,0.6c-0.1,0.3-0.2,0.5-0.4,0.4c-0.2-0.1-0.3-0.4-0.3-0.4c-0.3,0.3-0.5,0.6-0.4,0.8
				c0.1,0.2-0.1-0.1,0.1,0.2c0.1,0.4,0,0.6-0.1,0.7c-0.1,0.1-0.1,0.1-0.5,0.2c-0.4,0.2-0.5,0.2-0.8,0.2c-0.3,0.1-0.5,0.2-0.7,0.3
				c-0.2,0.1-0.4,0.3-0.6,0.2c-0.2-0.1-0.3-0.4-0.5-0.1c-0.1,0.3-0.4,0-0.1,0.3c0.3,0.3,0.5,0.3,0.6,0.4c0.1,0.1,1.6,1.4,2,1.6
				c0.3,0.3,0.3,0.4,0.6,0.4c0.3,0,0.8,0,0.8,0s0-0.1,0.5,0.1c0.4,0.2,0.8,0.3,1,0.5c0.2,0.2,0.6,0.3,0.6,0.3s0.4,0.3,0.7,0.6
				c0.3,0.3,0.4,0.2,0.5,0.6c0,0.4-0.2,0.5-0.2,0.7c0,0.2,0,0.3,0,0.6c0,0.3,0,0.3,0,0.3l-0.2,0.6c0,0,0,0.3,0.2,0.7
				c0.3,0.4,0.1,0.5,0.4,0.6c0.2,0.1,0.3,0.2,0.6,0.1c0.3-0.1,0.2-0.3,0.6-0.1c0.4,0.2,0-0.1,0.4,0.2c0.4,0.2,0.4,0.6,0.4,0.6
				s-0.3,0.2-0.3,0.4c0.1,0.2-0.2,0.1,0.1,0.2c0.3,0.1-0.1-0.1,0.3,0.1c0.4,0.2,0.4,0.4,0.5,0.6c0.1,0.2,0.7,0.3,0.7,0.3
				s0.5,0,0.6-0.1c0.1-0.1,1.7-1.6,2.3-3.8c0.6-2.2,1.1-3.5,1-3.9c-0.1-0.5-0.1-0.9-0.2-1.4c-0.1-0.5,0.1-1.4,0-1.7
				c-0.1-0.3,0.6-1.7,0.3-2.9c-0.3-1.2-0.5-1.3-0.5-2c-0.1-0.7,0.2-1.5,0.3-1.7c0.1-0.2,0.5-0.6,0.7-0.9c0.2-0.3,1-1.5,0.9-1.8
				c-0.1-0.3-0.7-2.9-2-5c-1.4-2.1-2.7-2.5-3.5-2.9c-0.7-0.4-0.9-0.8-1.1-0.7c-0.2,0-0.1,0.1-0.6,0.4c-0.4,0.3-0.5,0.2-0.8,0.2
				c-0.3,0.1-0.6,0.5-0.8,0.6c-0.2,0.2-0.5-0.3-0.2,0.2c0.3,0.5-0.2,0.2,0.3,0.5c0.5,0.3,0.6,0.3,0.5,0.8c-0.1,0.5-0.3,0.6-0.3,0.8
				c-0.1,0.2,0,0.4-0.1,0.7c-0.1,0.2-0.2,0.4-0.4,0.6c-0.2,0.2-0.4,0.4-0.6,0.2c-0.2-0.1-0.3-0.6-0.3-0.6s-0.2-0.3-0.4-0.1
				c-0.2,0.2-0.4,0.4-0.5,0.8c-0.1,0.3-0.1,0.6-0.4,0.8c-0.3,0.2-0.3,0.2-0.3,0.2s-0.4,0.4-0.9,0.5c-0.4,0.1-0.8,0.5-1.2,0.4
				c-0.3,0-0.6-0.3-0.8-0.5c-0.3-0.3-0.7-0.8-0.7-0.9c0-0.2-0.4-0.5,0.2-0.6c0.6-0.1,0.8-0.1,1.1-0.2c0.3-0.1,1.1-0.1,0.8-0.6
				c-0.2-0.5-0.1-1.3-0.3-1.4c-0.2-0.1-0.5-0.1-0.7,0c-0.2,0.1-0.2,0.2-0.6,0.4c-0.4,0.2-0.4,0.1-0.8,0.2c-0.4,0.1-0.6,0.1-0.9,0.2
				c-0.3,0.1-0.4,0.3-0.6,0.3c-0.3,0.1-0.5,0.3-0.7,0.1c-0.2-0.2-0.5-0.2-0.2-0.6c0.3-0.4,0.9-0.5,0.9-1c0-0.4,0-0.9,0.2-1
				c0.2-0.1-0.3-0.4,0.5-0.3c0.9,0.1,1.2,0.3,1.4,0.4c0.2,0.2,0.4,0.1,0.6,0.4c0.2,0.3,0.4,0.2,0.6,0.2c0.2,0,0.1-0.2,0.4-0.3
				c0.3,0,0.6-0.1,0.6,0.1c0.1,0.2,0.1,0.5,0.3,0.7c0.2,0.2,0.2,0.6,0.5,0.3c0.3-0.2,0.3,0.1,0.3-0.2c0-0.3-0.2-0.5-0.3-0.7
				c-0.1-0.2-0.1-0.6-0.3-0.7c-0.2-0.1-0.3-0.2-0.4-0.3c-0.1-0.1-0.2-0.4-0.1-0.5c0.1-0.1,0.4-0.3,0.3-0.4c0-0.2-0.1-0.4-0.1-0.4
				c-0.3-0.3-0.3-0.3-0.3-0.3s0-0.4,0.3-0.3c0.4,0.1,0.3,0.1,0.5,0.3c0.1,0.1,0.2,0.2,0.3,0.5c0,0.4,0.1,0.5,0,0.7
				c-0.1,0.2-0.2,0.3-0.1,0.4c0.1,0.2,0.3,0.4,0.5,0.3c0.2-0.1,0.2-0.2,0.2-0.5c0-0.3,0.1-0.6,0-0.7c0-0.2,0-0.3-0.1-0.4
				c-0.1-0.2-0.1-0.5-0.1-0.5s0-0.4,0.2-0.2c0.2,0.2-0.1,0.2,0.2,0.2c0.4,0,0.4-0.1,0.6-0.1c0.2,0,0.1-0.3,0.3-0.1
				c0.3,0.2,0.4,0.2,0.7,0.3c0.2,0.1,0-0.2,0.6,0.2c0.6,0.4,0.9,0.4,0.9,0.4l0.4-0.2c0,0,0.2-0.1,0.1-0.4c-0.1-0.2,0-0.5-0.3-0.6
				c-0.3-0.1-0.5-0.4-0.9-0.5c-0.3-0.2-0.4-0.5-0.6-0.4c-0.2,0.1-0.6,0.2-0.9,0.3c-0.3,0.1-1.2-0.4-1.3-0.6
				c-0.2-0.3-0.1-0.4-0.5-0.3c-0.4,0.1-0.1,0.2-0.6,0.1c-0.4-0.1-0.9-0.2-0.9-0.2s-0.4,0-0.5,0c-0.1,0-0.4-0.2-0.5-0.2
				c-0.1,0-0.3,0-0.5,0.1c-0.2,0.1-0.6,0.5-0.8,0.5c-0.2,0.1-0.7-0.1-0.7,0.1c-0.1,0.2,0,0.3-0.3,0.3c-0.3,0.1-0.4,0.1-0.5-0.1
				c-0.1-0.2,0-0.4-0.2-0.4c-0.2,0-0.4-0.1-0.5,0c-0.1,0.1-0.2,0.4-0.5,0.3c-0.2-0.1-0.3-0.3-0.4-0.3c-0.1,0-0.5,0.1-0.6,0.1
				c-0.2,0-0.5,0.1-0.5,0c0-0.1-0.1-0.3,0.2-0.4c0.3-0.1,0.6-0.3,0.6-0.3l0-0.4l-0.3-0.1c0,0-0.4-0.1-0.5-0.1c-0.1,0-0.5,0-0.5,0
				s-0.1-0.4,0.2-0.4c0.2-0.1,0.8-0.1,1,0c0.2,0.1,0.5,0.1,0.7,0.2c0.2,0.1,0.4,0,0.7,0.2c0.2,0.2,0.5,0.4,0.5,0.4s0.3,0,0.4,0.1
				c0.1,0.1,0.2,0.3,0.4,0.3c0.1,0,0.6,0,0.5-0.2c-0.1-0.2-0.1-0.3-0.3-0.4c-0.2-0.1-0.4-0.3-0.4-0.3c0.3-0.1,0.4-0.4,0.4-0.4
				s-0.1-0.2-0.3-0.2c-0.3,0-0.6,0.2-1.1,0.1c-0.5-0.1-1,0-1.3-0.2c-0.3-0.1-0.7-0.2-0.9-0.2c-0.2,0-0.7-0.1-0.9-0.1
				c-0.1,0-0.4,0-0.8,0.1c-0.3,0.2-0.5,0.2-0.6,0.3c-0.1,0.1-0.3,0.3-0.4,0.4c-0.1,0.1-0.3,0.4-0.3,0.5c0,0.1,0,0.2,0.2,0.1
				c0.2-0.1,0.5-0.2,0.6-0.3c0.1,0,0.2-0.2,0.3,0c0.1,0.2,0,0.3,0.1,0.4c0.1,0.1,0.2,0.3,0.2,0.5c-0.1,0.2-0.1,0.3-0.4,0.3
				c-0.3,0-0.4,0-0.6-0.1c-0.2-0.1-0.2-0.2-0.5-0.1c-0.3,0-1.1-0.2-1.3-0.1c-0.1,0-0.6,0.1-0.8,0.2c-0.1,0.1-1,0.4-1.3,0.3
				c-0.4-0.1,0.1-0.5-0.4-0.3c-0.5,0.2-0.6,0.3-0.6,0.4c-0.1,0.1-0.1,0.4-0.3,0.3c-0.1-0.1-0.5,0.1-0.6,0c-0.1-0.1-0.2-0.4-0.2-0.4
				s0.3-0.4-0.1-0.3c-0.4,0.1-0.5,0.3-0.6,0.4c-0.1,0.2-0.1,0.3-0.3,0.3c-0.2,0-0.3,0.1-0.4-0.1c-0.1-0.2,0.1-0.7,0.1-0.7
				s0.1-0.3-0.2-0.4c-0.3-0.1-0.4-0.2-0.5-0.2c-0.1,0-0.5-0.1-0.5,0.2c-0.1,0.2,0,0.4-0.3,0.5c-0.2,0.1-0.4,0.1-0.5,0.2
				c-0.1,0-0.8,0-0.8,0l-0.4-0.2l-0.8-0.1c0,0-2.4,1.9-3.2,3c0,0-0.7,1.8-0.9,2.1c-0.2,0.4-0.4,0.9-0.4,0.9l-0.6,0.4
				c0,0-0.4,0.5-0.6,0.9c-0.2,0.4-0.5,1.6-0.6,2c-0.1,0.4-0.1,0.4-0.1,0.8c0,0.4,0,0.7,0,0.8c0,0.1,0,0.2-0.1,0.4
				c-0.1,0.2-0.4,0.8-0.5,1.1c0,0.3-0.2,1,0,0.7c0.2-0.3,0.3-0.5,0.4-0.8c0.1-0.2,0.1-0.4,0.2-0.6c0.1-0.2-0.2-0.1,0.1-0.2
				c0.3-0.1,0.5-0.4,0.5-0.1c0,0.3,0.1,0.6,0.1,0.8c0,0.2,0.1,0.4-0.1,0.6c-0.2,0.2-0.3,0.4-0.4,0.4c-0.1,0,0,0.5,0,0.8
				c0,0.3-0.3,1-0.3,1s-0.4,1.2-0.3,1.5c0.1,0.3,0.3,0.6,0.2,0.9c-0.1,0.3-0.1,0.5-0.1,0.5s0.3,0.8,0.5,1.1c0.2,0.3-0.1,0.5,0.5,0.8
				c0.6,0.3,0.7,0.1,1.1,0.2c0.4,0.1,0.5,0.4,0.6,0.5c0,0.2,0.2,0.9,0.1,1.2c-0.1,0.3-0.3,0.8-0.3,0.8s-0.4,0.2-0.3,0.5
				c0.1,0.3,0.2,0.8,0.2,1.1c0.1,0.3,0,0.3,0.2,0.4C473,238,473.2,238,473.3,238.1z M488.3,222.4c-0.1-0.1,0.3-0.4,0.4-0.5
				c0-0.1,0.2-0.3,0.2-0.3s0.2-0.3,0.3-0.6c0.1-0.3-0.1-0.3-0.2-0.4c-0.1-0.1-0.2-0.1-0.3-0.1c-0.1,0-0.2-0.1-0.3-0.3
				c-0.1-0.3-0.1-0.3,0-0.5c0.1-0.2,0.4,0,0.4,0l0.4,0.1c0,0,0.5,0.2,0.6,0.3c0.1,0,0.5,0.2,0.7,0.3c0.3,0.1,0,0,0.1,0.2
				c0.1,0.2,0,0.3,0,0.5c0,0.2-0.4,0.4-0.4,0.4s0.1,0.3,0.2,0.5c0.2,0.2,0.2,0.1,0.3,0.2c0.2,0.1,0.1,0.3,0.2,0.6
				c0.1,0.4-0.1,0.3-0.2,0.6c-0.2,0.2-0.6,0.6-0.6,0.6c-0.1,0.4-0.2,0.2-0.6,0.1c-0.3-0.1,0,0,0-0.2c0-0.2-0.1-0.1-0.3-0.3
				c-0.1-0.1,0-0.3,0-0.3s0.1-0.2,0.1-0.4c0-0.1-0.1-0.3-0.4-0.2c-0.3,0-0.2,0-0.4-0.1C488.1,222.4,488.3,222.6,488.3,222.4z
				 M485.8,221.2c0.1-0.2,0,0,0-0.2c0-0.2,0.3-0.2,0.3-0.2s0,0,0.1,0.1c0.1,0.1,0.3,0.1,0.5,0.1c0.2,0,0,0.2,0,0.4
				c0,0.2,0,0.4-0.1,0.6c-0.1,0.2-0.4,0.1-0.4,0.1s-0.1-0.2-0.2-0.3c-0.1-0.2-0.1,0-0.3-0.1C485.6,221.5,485.7,221.4,485.8,221.2z
				 M477.1,224.4c-0.1-0.3,0,0,0.1-0.3c0.1-0.2,0,0,0-0.2c0-0.2,0.4,0,0.4,0l0,0.4c0,0-0.1,0.3-0.4,0.2
				C476.9,224.6,477.2,224.6,477.1,224.4z"/>
			<path class="st25" d="M471.5,239.7c-0.1-0.2-0.1-0.4-0.1-0.5c0-0.1,0.2,0,0.2,0s0.3,0.4,0.9,1.2c0.6,0.7,0.3,0.3,0.4,0.5
				c0.2,0.1,0.2,0.3,0.4,0.5c0.2,0.2,0.3,0.2,0.5,0.3c0.2,0.1,0.2,0.7,0.2,1c0,0.4-0.6,0.3-0.9,0.1c-0.3-0.1-0.2-0.2-0.3-0.4
				c0-0.2-0.1-0.4-0.2-0.5c0-0.1-0.3-0.3-0.5-0.4c-0.2-0.1-0.1-0.3-0.1-0.6c0-0.2-0.2-0.3-0.2-0.5
				C471.8,240.2,471.6,239.9,471.5,239.7z"/>
			<path class="st25" d="M474.9,240.5c0-0.1,0-0.1,0.1-0.4c0.1-0.3,0.1-0.3,0.3-0.4c0.2-0.1,0.2,0.1,0.2-0.1c0-0.3,0-0.6,0-0.6
				s0-0.3,0.2-0.3c0.2,0.1,0.4,0.2,0.4,0.5c0,0.3-0.1,0.3-0.2,0.5c-0.1,0.2-0.1,0.2-0.2,0.4c0,0.2,0,0.3,0,0.6
				c0,0.3,0.1,0.6,0.1,0.6s-0.1,0.2-0.2,0.3c-0.1,0.1-0.3,0.2-0.3,0c-0.1-0.2-0.1-0.5-0.1-0.6C475,240.8,474.9,240.6,474.9,240.5z"
				/>
			<path class="st25" d="M475.5,242.8c0.1-0.2,0.2-0.2,0.2-0.5c0-0.3-0.5,0.1,0-0.3c0.4-0.3,0.2,0,0.4-0.3c0.2-0.3,0.3-0.4,0.4-0.5
				c0-0.1,0.2-0.3,0.2-0.3l0.1-0.2c0,0,0.2-0.2,0.2-0.1c0,0.2,0.1,0.2,0,0.4c-0.1,0.2,0,0.3-0.2,0.5c-0.2,0.3-0.1-0.2-0.2,0.3
				c-0.1,0.4-0.1,0.4-0.1,0.6c0,0.2,0.1,0.3,0.1,0.4c0,0.1,0.1,0.4,0,0.6c-0.1,0.2-0.3,0.5-0.3,0.5l-0.3,0.1
				c-0.2-0.3-0.2-0.6-0.4-0.7c-0.2-0.1-0.4-0.1-0.2-0.3C475.5,242.8,475.4,243,475.5,242.8z"/>
			<path class="st25" d="M481.9,239.1c0-0.2,0,0,0.1-0.3c0.1-0.3,0.2,0,0.3-0.1c0.1,0,0.2,0.3,0.2,0.3s0.1,0.2,0.3,0.3
				c0.2,0.2,0,0.3-0.1,0.7c-0.1,0.2-0.5,0-0.7-0.2l-0.2-0.2c0,0,0,0,0.1-0.2C482,239,481.9,239.3,481.9,239.1z"/>
			<path class="st25" d="M498.2,243.4c0.2,0,0.3,0,0.3,0l0.3,0.2c0,0,0.2,0.2,0.4,0.2c0.1,0,0.2,0,0.4,0c0.2-0.1,0.3-0.1,0.5-0.2
				c0.3,0,0,0,0.2,0c0.2,0,0.3,0.2,0.3,0.2l0.1,0.3l-0.3,0.3c0,0,0,0.3,0.1,0.4c0.1,0.1,0,0,0.1,0c0.1,0,0.3,0.2,0.3,0.2s0,0,0,0.3
				c0,0.3-0.4,0.3-0.4,0.6c0,0,0,0.3,0,0.4c0,0.2-0.3,0.1-1,0.1c-0.7,0,0,0-0.1-0.2c-0.1-0.2-0.2-0.2-0.3-0.4
				c-0.1-0.2-0.2-0.4-0.3-0.6c-0.1-0.2-0.1-0.3-0.2-0.4c-0.1-0.1-0.5-0.4-0.5-0.7c0-0.3,0-0.2-0.1-0.3c-0.1-0.2-0.1-0.2,0.1-0.6
				C498.1,243.2,498,243.5,498.2,243.4z"/>
		</g>
		<path class="st26" d="M538.4,230h-14.3c-0.4-18.1-15.2-32.7-33.4-32.7c0,0,0,0,0,0v-14c0-0.6-0.5-1.2-1.2-1.2
			c-0.6,0-1.2,0.5-1.2,1.2v14.1c-17.1,1.2-30.7,15.3-31,32.6h-14.1c-0.6,0-1.2,0.5-1.2,1.2s0.5,1.2,1.2,1.2h14.1
			c0.8,16.9,14.2,30.5,31,31.7v14.1c0,0.6,0.5,1.2,1.2,1.2c0.6,0,1.2-0.5,1.2-1.2v-14c0,0,0,0,0,0c17.9,0,32.5-14.1,33.4-31.8h14.3
			c0.6,0,1.2-0.5,1.2-1.2S539,230,538.4,230z M490.7,261.7c-17.1,0-31.1-13.9-31.1-31.1c0-17.1,13.9-31.1,31.1-31.1
			c17.1,0,31.1,13.9,31.1,31.1C521.8,247.8,507.8,261.7,490.7,261.7z"/>
	</g>
	<g>
		<g>
			<rect x="469" y="385.8" class="st2" width="65.8" height="39.9"/>
			<path class="st2" d="M477.8,439.3c0,4.6,3.7,8.4,8.4,8.4c4.6,0,8.4-3.7,8.4-8.4c0-4.6-3.7-8.4-8.4-8.4
				C481.5,431,477.8,434.7,477.8,439.3z M481.7,439.3c0-2.5,2-4.5,4.5-4.5c2.5,0,4.5,2,4.5,4.5s-2,4.5-4.5,4.5
				C483.7,443.8,481.7,441.8,481.7,439.3z"/>
			<g>
				<path class="st2" d="M466.3,422.8v12.9h9.6c1.5-4.2,5.5-7.2,10.2-7.2c4.7,0,8.7,3,10.2,7.2h36.8c1.5-4.2,5.5-7.2,10.2-7.2
					c4.7,0,8.7,3,10.2,7.2h13.7c0,0,3.7-2.3,3.7-5.8c0-3.5,0-13.6,0-13.6s-1.6-3.1-2.7-3.3c-1.2-0.2-6.6-17.1-6.6-17.1
					s-0.2-1.8-3.3-1.9c-3.1-0.2-20.8,0-20.8,0v29H466.3z M540.3,396.9h18.3l6,16h-24.3V396.9z"/>
				<path class="st2" d="M535.1,439.3c0,4.6,3.7,8.4,8.4,8.4c4.6,0,8.4-3.7,8.4-8.4c0-4.6-3.7-8.4-8.4-8.4
					C538.8,431,535.1,434.7,535.1,439.3z M539,439.3c0-2.5,2-4.5,4.5-4.5c2.5,0,4.5,2,4.5,4.5s-2,4.5-4.5,4.5
					C541,443.8,539,441.8,539,439.3z"/>
			</g>
		</g>
		<g>
			<g>
				<path class="st27" d="M545.8,330.6c-7-19-25.6-18.3-25.6-18.3s-18.6-0.8-25.6,18.3c-7,19,8,30,12.3,34.1
					c4.3,4.1,13.4,13.7,13.4,13.7s9.1-9.6,13.4-13.7C537.8,360.5,552.7,349.6,545.8,330.6z M520.1,358.5c-10.2,0-18.4-8.2-18.4-18.4
					c0-10.2,8.2-18.4,18.4-18.4c10.2,0,18.4,8.2,18.4,18.4C538.5,350.2,530.3,358.5,520.1,358.5z"/>
				<circle class="st27" cx="520.1" cy="340.1" r="11.3"/>
			</g>
		</g>
	</g>
	<g>
		<g>
			<g>
				<line class="st28" x1="131.4" y1="377.6" x2="134.4" y2="377.6"/>
				<line class="st29" x1="140.8" y1="377.6" x2="214.9" y2="377.6"/>
				<polyline class="st28" points="218.1,377.6 221.1,377.6 223.1,375.3 				"/>
				<line class="st30" x1="227.2" y1="370.6" x2="249.4" y2="344.9"/>
				<line class="st28" x1="251.5" y1="342.5" x2="253.4" y2="340.2"/>
			</g>
		</g>
	</g>
	<g>
		<g>
			<g>
				<line class="st28" x1="480.1" y1="372.9" x2="478.3" y2="370.5"/>
				<line class="st31" x1="474.6" y1="365.6" x2="461.8" y2="348.6"/>
				<polyline class="st28" points="460,346.2 458.2,343.8 455.2,343.8 				"/>
				<line class="st32" x1="449.4" y1="343.8" x2="348.3" y2="343.8"/>
				<line class="st28" x1="345.4" y1="343.8" x2="342.4" y2="343.8"/>
			</g>
		</g>
	</g>
	<g>
		<g>
			<g>
				<line class="st28" x1="503.3" y1="181.7" x2="501.6" y2="179.2"/>
				<line class="st33" x1="498.4" y1="174.7" x2="468.2" y2="131.6"/>
				<polyline class="st28" points="466.6,129.3 464.9,126.9 461.9,126.9 				"/>
				<line class="st34" x1="455.3" y1="126.9" x2="432.2" y2="126.9"/>
				<line class="st28" x1="428.9" y1="126.9" x2="425.9" y2="126.9"/>
			</g>
		</g>
	</g>
	<g>
		<g>
			<g>
				<line class="st28" x1="109.3" y1="185.3" x2="110.9" y2="182.8"/>
				<line class="st35" x1="114.4" y1="177.4" x2="140.1" y2="136.8"/>
				<polyline class="st28" points="141.8,134.1 143.4,131.5 146.4,131.5 				"/>
				<line class="st36" x1="152.2" y1="131.5" x2="184" y2="131.5"/>
				<line class="st28" x1="186.9" y1="131.5" x2="189.9" y2="131.5"/>
			</g>
		</g>
	</g>
	<g>
		<g>
			<g>
				<line class="st28" x1="290.3" y1="131.5" x2="293.3" y2="131.5"/>
				<line class="st37" x1="299.4" y1="131.5" x2="332.9" y2="131.5"/>
				<line class="st28" x1="335.9" y1="131.5" x2="338.9" y2="131.5"/>
			</g>
		</g>
	</g>
	<polyline class="st38" points="530.1,252.8 546.5,270.3 546.5,314.6 	"/>
</g>
</svg>
