<?xml version="1.0" encoding="utf-8"?>
<!-- Generator: Adobe Illustrator 20.0.0, SVG Export Plug-In . SVG Version: 6.00 Build 0)  -->
<svg version="1.1" id="Layer_1" xmlns="http://www.w3.org/2000/svg" xmlns:xlink="http://www.w3.org/1999/xlink" x="0px" y="0px"
	 viewBox="0 0 612 612" style="enable-background:new 0 0 612 612;" xml:space="preserve">
<style type="text/css">
	.st0{fill:#9DD5D0;}
	.st1{fill:#F1B3A1;}
	.st2{fill:#EB8D73;}
	.st3{fill:#F4F5F5;}
	.st4{fill:#DE4626;}
	.st5{clip-path:url(#SVGID_2_);fill:#ACDDDA;}
	.st6{clip-path:url(#SVGID_4_);fill:#ACDDDA;}
	.st7{opacity:0.74;clip-path:url(#SVGID_6_);fill:#ACDDDA;enable-background:new    ;}
	.st8{fill:#8BA4A5;}
	.st9{fill:#E6E6E5;}
	.st10{fill:#282827;}
	.st11{fill:#F08E20;}
	.st12{fill:#FFFFFF;}
</style>
<g>
	<circle class="st0" cx="306" cy="306" r="306"/>
	<g>
		<g>
			<circle class="st1" cx="306" cy="493" r="90.5"/>
			<path class="st2" d="M392.3,465.6c-7.2-3.1-54.9-25.1-60.9-27.9c-1.5,1.6-2.9,3.9-5.4,4.2c-2.6,0.2-5.2-0.2-7.8-0.3
				c-3.2-0.1-6.4,0.1-9.6,0.3c-5.2,0.2-10.1-0.1-15.2-0.7c-3.5-0.4-8.5-1.2-11.6,1c-2.4,1.6-2.2,4.8-2,7.4c0.2,2,0.2,4.5,1,6.4
				c0.6,1.5,3,2.6,4.5,3.3c2.4,1.4,5.1,2.1,7.9,2.2c12.4,0.8,24.5-1.4,36.8-3.1c0.4-0.1,0.8,0.2,0.7,0.7c-0.6,1.7-1.5,2.8-2.9,3.9
				c-2.1,1.9-3.9,3.9-5.7,6.3c-2.7,3.8-6.2,7-9.5,10.3c-1.8,1.9-3.7,3.8-5.3,6.1c-1.4,2.1-2.4,4.5-4.1,6.5c-2.8,3.6-6.1,6.8-9.2,10
				c-7.8,8.1-15,16.5-22.2,25.1c-3.4,4.2-1.2,8.7-5.4,12.3c-2.4,2.1-0.4,6.4-2.7,8.7c18.7,7.9,62.9,27.3,71.5,30.5
				c35.6-12.2,61.3-46,61.3-85.7C396.5,483.5,395.1,474.3,392.3,465.6z"/>
			<g>
				<path class="st3" d="M352.4,446.4c-14.5-17.3-36.7-3.8-46.4-3.8s-31.8-13.5-46.4,3.8c-14.5,17.3-13.8,41.5-6.1,56
					c7.6,14.5,8.4,36.1,8.7,45.4c0.3,9.2,5.9,23.7,14.9,23.7c9,0,16.9-41.5,29-41.5c11.9,0,19.8,41.5,29,41.5
					c9,0,14.7-14.5,14.9-23.7c0.3-9.2,1-30.8,8.7-45.4C366.1,488,366.9,463.8,352.4,446.4z"/>
				<polygon class="st4" points="330.2,494.7 311.3,494.7 311.3,513.7 300.7,513.7 300.7,494.7 281.8,494.7 281.8,484.3 
					300.7,484.3 300.7,465.3 311.3,465.3 311.3,484.3 330.2,484.3 				"/>
			</g>
		</g>
	</g>
	<g>
		<g>
			<defs>
				<circle id="SVGID_1_" cx="306" cy="306" r="306"/>
			</defs>
			<clipPath id="SVGID_2_">
				<use xlink:href="#SVGID_1_"  style="overflow:visible;"/>
			</clipPath>
			<path class="st5" d="M425.2-2.1c3.1,0,6.4,0.2,9.5,0.5l4.4-14.3l30,9.1l-4.4,14.3c10.8,5.7,20.2,13.4,27.5,22.7l13.2-7l14.8,27.6
				l-13.1,7c3.5,11.2,4.9,23.3,3.4,35.4l14.2,4.4l-9.1,30l-14.2-4.4c-5.7,10.9-13.4,20.2-22.7,27.5l7,13.2l-27.6,14.8l-7-13.2
				c-8.3,2.6-17,4.1-25.9,4.1v-22.5c27.2,0,52.4-17.6,60.7-45c10.2-33.5-8.7-69-42.2-79.1c-6.2-1.8-12.4-2.7-18.4-2.7L425.2-2.1
				L425.2-2.1z M371.6,16.6l-7-13.1l27.6-14.8l7,13.2c8.3-2.6,17-4.1,25.9-4.1v22.5c-27.2,0-52.4,17.6-60.7,45
				c-10.2,33.5,8.7,69,42.2,79.1l0,0c6.2,1.8,12.4,2.7,18.4,2.7v22.5c-3.1,0-6.4-0.2-9.5-0.5l-4.4,14.3l-30-9.1l4.4-14.2
				c-10.9-5.7-20.2-13.4-27.5-22.7l-13.2,7l-14.8-27.7l13.2-7c-3.5-11.2-4.9-23.3-3.4-35.4l-14.2-4.4l9.1-30l14.2,4.4
				C354.6,33.3,362.4,24,371.6,16.6z"/>
		</g>
		<g>
			<defs>
				<circle id="SVGID_3_" cx="306" cy="306" r="306"/>
			</defs>
			<clipPath id="SVGID_4_">
				<use xlink:href="#SVGID_3_"  style="overflow:visible;"/>
			</clipPath>
			<path class="st6" d="M141.6,251.3c3.1,0,6.4,0.2,9.5,0.5l4.4-14.3l30,9.1l-4.4,14.2c10.8,5.7,20.2,13.4,27.5,22.7l13.2-7
				l14.8,27.6l-13.1,7c3.5,11.2,4.9,23.3,3.4,35.5l14.2,4.4l-9.1,30l-14.2-4.4c-5.7,10.9-13.4,20.3-22.7,27.5l7,13.2l-27.6,14.8
				l-7-13.2c-8.3,2.6-17,4.1-25.9,4.1v-22.5c27.2,0,52.4-17.6,60.7-45c10.2-33.5-8.7-69-42.2-79.1c-6.2-1.8-12.4-2.7-18.4-2.7V251.3
				z M87.9,270.1l-7-13.1l27.6-14.8l7,13.2c8.3-2.6,17-4.1,25.9-4.1v22.5c-27.2,0-52.4,17.6-60.7,45c-10.2,33.5,8.7,69,42.2,79.1
				l0,0c6.2,1.8,12.4,2.7,18.4,2.7v22.5c-3.1,0-6.4-0.2-9.5-0.5l-4.4,14.2l-30-9.1l4.4-14.3C91,407.7,81.8,400,74.4,390.7l-13.2,7
				L46.5,370l13.2-7c-3.5-11.2-4.9-23.3-3.4-35.4L42,323.2l9.1-30l14.2,4.4C70.9,286.8,78.7,277.4,87.9,270.1z"/>
		</g>
		<g>
			<defs>
				<circle id="SVGID_5_" cx="306" cy="306" r="306"/>
			</defs>
			<clipPath id="SVGID_6_">
				<use xlink:href="#SVGID_5_"  style="overflow:visible;"/>
			</clipPath>
			<path class="st7" d="M548.6,277.1c3.1,0,6.4,0.2,9.5,0.5l4.4-14.3l30,9.1l-4.4,14.2c10.8,5.7,20.2,13.4,27.5,22.7l13.2-7
				l14.8,27.6l-13.1,7c3.5,11.2,4.9,23.3,3.4,35.5l14.2,4.4l-9.1,30l-14.2-4.4c-5.7,10.9-13.4,20.3-22.7,27.5l7,13.2L581.5,458
				l-7-13.2c-8.3,2.6-17,4.1-25.9,4.1v-22.4c27.2,0,52.4-17.6,60.7-45c10.2-33.5-8.7-69-42.2-79.1c-6.2-1.8-12.4-2.7-18.4-2.7V277.1
				z M494.9,295.9l-7-13.1l27.6-14.8l7,13.2c8.3-2.6,17-4.1,25.9-4.1v22.5c-27.2,0-52.4,17.6-60.7,45c-10.2,33.5,8.7,69,42.2,79.1
				l0,0c6.2,1.8,12.4,2.7,18.4,2.7v22.5c-3.1,0-6.4-0.2-9.5-0.5l-4.4,14.2l-30-9.1l4.4-14.3c-10.9-5.7-20.2-13.4-27.5-22.7l-13.2,7
				l-14.8-27.6l13.2-7c-3.5-11.2-4.9-23.3-3.4-35.4l-14.2-4.4l9.1-30l14.2,4.4C477.9,312.6,485.7,303.3,494.9,295.9z"/>
		</g>
	</g>
	<g>
		<path class="st8" d="M271,273.4c-3.1,13-6.4,26-9.5,39c29.7,0,59.3,0,89,0c-3.1-13-6.4-26-9.5-39
			C317.6,273.4,294.4,273.4,271,273.4z"/>
		<path class="st9" d="M356,311.8H256c-2.5,0-4.6,2.4-4.6,5.4v2h109.3v-2C360.7,314.2,358.6,311.8,356,311.8z"/>
		<path class="st9" d="M155.5,258.2v21.5c0,4.2,3.3,7.5,7.5,7.5h286c4.2,0,7.5-3.3,7.5-7.5v-21.5H155.5z"/>
		<path class="st10" d="M456.5,258.2v-182c0-4.2-3.3-7.5-7.5-7.5H163c-4.2,0-7.5,3.3-7.5,7.5v182.1h300.9V258.2z"/>
		<rect x="167.9" y="80.4" class="st11" width="276.3" height="165.4"/>
		<g>
			<g id="share-alt_3_">
				<path class="st12" d="M380.1,160.8c0,4.5-3.4,7.9-7.9,7.9c-2.1,0-3.9-0.8-5.3-2.1l-18.7,11c0.3,0.8,0.3,1.3,0.3,1.8
					c0,4.3-3.4,7.7-7.7,7.7c-4.3,0-7.7-3.4-7.7-7.7c0-4.3,3.4-7.7,7.7-7.7c2.1,0,3.9,0.8,5.3,2.1l18.7-11c-0.3-0.5-0.3-1.3-0.3-1.8
					s0-1.3,0.3-1.8l-18.7-10.8c-1.3,1.3-3.1,2.1-5.3,2.1c-4.5,0-7.9-3.4-7.9-7.9s3.4-7.9,7.9-7.9s7.9,3.4,7.9,7.9
					c0,0.5,0,1.3-0.3,1.8l18.7,10.8c1.3-1.3,3.1-2.1,5.3-2.1C377,153.1,380.1,156.2,380.1,160.8z"/>
			</g>
		</g>
		<g>
			<polygon class="st12" points="307.7,218 242.5,205.9 242.5,119.7 307.7,107.5 			"/>
			<g>
				<path class="st11" d="M258.4,185.8c2.9,1.9,8.1,3.9,13.1,3.9c7.2,0,10.6-3.6,10.6-8.1c0-4.8-2.8-7.3-10.1-10
					c-9.8-3.4-14.4-8.9-14.4-15.4c0-8.8,7.1-16,18.8-16c5.6,0,10.3,1.6,13.4,3.3l-2.4,7.2c-2.1-1.3-6.1-3.1-11.1-3.1
					c-5.9,0-9.1,3.3-9.1,7.4c0,4.5,3.2,6.6,10.3,9.2c9.4,3.6,14.3,8.3,14.3,16.4c0,9.6-7.4,16.3-20.4,16.3c-6,0-11.4-1.4-15.3-3.7
					L258.4,185.8z"/>
			</g>
		</g>
	</g>
	<polygon class="st10" points="303.5,372.8 294.8,386 286.3,372.8 291.4,372.8 291.5,337.1 297.7,337.1 297.6,372.8 	"/>
	<polygon class="st10" points="313.9,349.1 322.6,336 331.1,349.1 325.9,349.1 325.8,385 319.7,385 319.8,349.1 	"/>
</g>
</svg>
