<?xml version="1.0" encoding="utf-8"?>
<!-- Generator: Adobe Illustrator 20.0.0, SVG Export Plug-In . SVG Version: 6.00 Build 0)  -->
<svg version="1.1" id="Layer_1" xmlns="http://www.w3.org/2000/svg" xmlns:xlink="http://www.w3.org/1999/xlink" x="0px" y="0px"
	 viewBox="0 0 612 612" style="enable-background:new 0 0 612 612;" xml:space="preserve">
<style type="text/css">
	.st0{fill:#A2CC39;}
	.st1{opacity:0.7;}
	.st2{fill:#EB008B;}
	.st3{fill:#FFFFFF;}
	.st4{fill:#BE1E2D;}
	.st5{fill:#A1CC3A;}
	.st6{opacity:0.5;fill:#FFFFFF;}
	.st7{fill:#00A5C2;}
	.st8{fill:#231F20;}
	.st9{fill:none;stroke:#00A4C1;stroke-width:2;stroke-miterlimit:10;}
	.st10{fill:none;stroke:#00A4C1;stroke-width:2;stroke-miterlimit:10;stroke-dasharray:3.0931,3.0931;}
	.st11{fill:#0E80C2;stroke:#FFFFFF;stroke-miterlimit:10;}
	.st12{fill:none;stroke:#00A4C1;stroke-width:2;stroke-miterlimit:10;stroke-dasharray:3;}
	.st13{fill:#0E80C2;}
</style>
<symbol  id="Add_Favorite" viewBox="-32.4 -30.5 64.9 61">
	<g>
		<path class="st0" d="M-0.4-21.9c-15.7,11.7-24.1,22.3-25,31.5v3.1c0.7,7.3,5.2,10.4,8.1,10.7c0.8,0.1,1.5,0.1,2.2,0.1
			c4.2,0,5.9-1.3,9.3-5.4l5.4-6.4l5.4,6.4c3.4,4.1,5.2,5.4,9.3,5.4c0.7,0,1.4,0,2.2-0.1c2.9-0.3,7.4-3.4,8.1-10.7V9.6
			c0-0.1,0-0.1,0-0.2l0.4-7.1H30c0.9,2.5,1.4,4.8,1.6,7V13c-0.9,11-8.1,16.7-14.4,17.4c-1,0.1-2,0.1-2.9,0.1
			c-7.2,0-10.7-3.1-14.7-7.9c-4,4.7-7.5,7.9-14.7,7.9c-0.9,0-1.9,0-2.9-0.1C-24.3,29.7-31.6,24-32.4,13V9.3
			c0.8-10.5,8.8-23.5,32-39.8c2.7,1.9,5.1,3.7,7.4,5.5v4.7H1.6C0.9-20.8,0.3-21.3-0.4-21.9z"/>
	</g>
	<g class="st1">
		<polygon class="st2" points="21.3,-6.2 21.3,4.9 11.8,4.9 11.8,-6.2 0.7,-6.2 0.7,-15.7 11.8,-15.7 11.8,-26.8 21.3,-26.8 
			21.3,-15.7 32.4,-15.7 32.4,-6.2 		"/>
	</g>
</symbol>
<symbol  id="Checklist" viewBox="-31.9 -32 63.9 64">
	<path class="st3" d="M18.5-30h-39.8v44.5h39.8V6.6l2,1.7v8.2h-2.3v2.9c0,3.3-2.7,6-6,6H-0.1C-0.2,29.1-3.2,32-6.8,32
		c-3.7,0-6.6-2.9-6.8-6.6h-12.3c-3.3,0-6-2.7-6-6v-43.3c0-3.3,2.7-6,6-6h2.6V-32h43.8v16.9l-2-2V-30z M13.2,19.4v-2.9H5.2
		c0,1.5-0.8,2.8-1.9,3.9h9C12.8,20.4,13.2,20,13.2,19.4z M-6.8,28c1.5,0,2.8-1.2,2.8-2.8c0-1.5-1.2-2.8-2.8-2.8
		c-1.5,0-2.8,1.2-2.8,2.8C-9.6,26.8-8.4,28-6.8,28z M-25.9-24.8c-0.5,0-1,0.5-1,1v43.3c0,0.5,0.5,1,1,1h9c-1.1-1.1-1.9-2.4-1.9-3.9
		h-4.4v-41.4H-25.9z"/>
	<polygon class="st3" points="-0.2,-0.4 -8.1,-8.3 -8.1,-8.3 6.8,-23.2 31.9,2 26.2,7.8 7,-8.1 	"/>
</symbol>
<symbol  id="SMS" viewBox="-32 -31.7 64 63.4">
	<path class="st3" d="M-15.8,3.2v-34.7H32V3.2H-15.8z M23.3-1.8L8.1-12.8L-7.1-1.8H23.3z M28.4-27.9h-40.5v23.4L8.1-19L28.4-4.5
		V-27.9z"/>
	<path class="st3" d="M-25.3,0.9v12.4c0,1.1,0.9,2,2,2h20.4c1.1,0,2-0.9,2-2V6.8h6.6v7c0,5.5-4.5,9.9-9.9,9.9h-15.4l0,4.5
		c0,1.9-1.6,3.5-3.5,3.5c-1.9,0-3.5-1.6-3.5-3.5l0-5.6c-3.2-1.7-5.4-5-5.4-8.8V-4.7c0-5.5,0.9-13.8,2-18.5c1-4.2,5.4-7.8,10.2-8.5
		v30.6h-3.6C-24.5-1.1-25.3-0.2-25.3,0.9z"/>
</symbol>
<g>
	<circle class="st4" cx="306" cy="306" r="305.9"/>
	<circle class="st3" cx="306" cy="306" r="217.2"/>
	<g>
		<path class="st5" d="M224.6,163h-79c-3,0-5.5-2.5-5.5-5.5v-79c0-3,2.5-5.5,5.5-5.5h79c3,0,5.5,2.5,5.5,5.5v79
			C230.1,160.5,227.6,163,224.6,163z"/>
		<g>
			<path class="st3" d="M159.5,147.8c5.1-2.4,10.8-4,15-7.4c4.8-3.9,11.1-7.4,10.3-15.6c-0.4-4.2,0.4-8.5,0.8-12.8
				c0.1-0.9,0.5-2.1,1.1-2.6c4.8-3.7,5.9-8.5,4.8-14.2c-0.6-2.9-0.8-6-0.8-9c0-1.3,1-2.7,1.6-4c1.4,0,2.8,0,4.2,0
				c1,7.1,1.9,14.2,3,22.3c0.3-3.4,0.5-6,0.8-8.6c3.6,1.4,5.3,3.3,4.5,6.1c-0.4,1.6-1.5,3.5-2.8,4.4c-1.4,0.9-3.6,0.9-5.8,1.3
				c0.6,0.6,1.1,1.4,1.6,1.4c3.1,0.1,3.7,2.4,3.7,4.6c-0.2,5.1-0.8,10.1-1.3,15.4c1.2,0.4,2.7,0.8,4.1,1.2c2.2,0.6,4.4,1.1,6.6,1.7
				c0,1.1,0,2.2,0,3.4c-1.7,5-3.7,9.9-4.9,15c-0.8,3.5-3.1,3-5,2.4c-0.8-0.2-1.4-2.9-1.1-4.3c0.7-4,1.9-7.9,3-12.3
				c-3.6,0-6.6,0.5-9.4-0.1c-2.9-0.7-4.6,0.3-6.2,2.3c-4.3,5.2-9.6,9.2-15.8,11.7c-2.6,1.1-5.1,2.5-7.6,3.7c-1.4,0-2.8,0-4.2,0
				C159.5,151.7,159.5,149.8,159.5,147.8z"/>
		</g>
	</g>
	<g>
		<path class="st5" d="M137.5,408.5h-79c-3,0-5.5-2.5-5.5-5.5v-79c0-3,2.5-5.5,5.5-5.5h79c3,0,5.5,2.5,5.5,5.5v79
			C143,406,140.5,408.5,137.5,408.5z"/>
		<g id="nameplate_x5F_alt_1_">
			<g>
				<path class="st3" d="M134.3,375.6v-3v-36.4c0-3.3-2.7-6.1-6.1-6.1H67.6c-3.3,0-6.1,2.7-6.1,6.1v36.4v3H134.3z M104,342.2h21.2v3
					H104V342.2z M104,348.3h21.2v3H104V348.3z M104,354.4h21.2v3H104V354.4z M104,360.4h21.2v3H104V360.4z M104,366.5h15.2v3H104
					V366.5z M70.6,345c0-1.5,1.4-2.7,3-2.7h21.2c1.7,0,3,1.2,3,2.7v21.8c0,1.5-1.4,2.7-3,2.7H73.6c-1.7,0-3-1.2-3-2.7V345z"/>
				<path class="st3" d="M61.5,378.6v12.1c0,3.3,2.7,6.1,6.1,6.1h12.1v-6.1h-4.6c-0.8,0-1.5-0.7-1.5-1.5v-3c0-0.8,0.7-1.5,1.5-1.5
					h12.1c0.8,0,1.5,0.7,1.5,1.5v3c0,0.8-0.7,1.5-1.5,1.5h-4.6v6.1h30.3v-6.1h-4.6c-0.8,0-1.5-0.7-1.5-1.5v-3c0-0.8,0.7-1.5,1.5-1.5
					h12.1c0.8,0,1.5,0.7,1.5,1.5v3c0,0.8-0.7,1.5-1.5,1.5h-4.6v6.1h12.1c3.3,0,6.1-2.7,6.1-6.1v-12.1H61.5z"/>
				<path class="st3" d="M75,360.9c0-0.9,0.2-1.2,0.8-1.6c0.5-0.3,5-1.8,6.7-2.5v-1.7c-0.9-0.2-1.9-1.6-1.9-2.5c0-2,0-3.7,0-3.7
					c0-2,1.3-3.7,3.7-3.7c2.4,0,3.7,1.7,3.7,3.7c0,0,0,1.7,0,3.7c0,0.9-1,2.2-1.9,2.5v1.7c1.7,0.7,6.1,2.2,6.7,2.5
					c0.7,0.4,0.8,0.7,0.8,1.6c0,0.3,0,1.9,0,1.9c0,0.2-0.2,0.4-0.4,0.4h-8.9h-8.9c-0.2,0-0.4-0.2-0.4-0.4
					C75,362.8,75,361.2,75,360.9z"/>
			</g>
			<path class="st6" d="M134.3,378.6H61.5v-3h72.8V378.6z"/>
		</g>
	</g>
	<g>
		<g>
			<path class="st7" d="M137.5,275.7h-79c-3,0-5.5-2.5-5.5-5.5v-79c0-3,2.5-5.5,5.5-5.5h79c3,0,5.5,2.5,5.5,5.5v79
				C143,273.3,140.5,275.7,137.5,275.7z"/>
		</g>
		<g>
			<path id="XMLID_4_" class="st3" d="M63.9,256.5c0-19.6,0-39.3,0-58.9c17.6,0,35.2,0,53,0c0,6.2,0,11.7,0,17.3
				c6.6,1,6.8,1.3,5.1,7.8c-0.7,2.6-1,5.4-1.9,8c-0.9,2.8-0.5,3.6,2.7,4.1c8.3,1.5,10.6,3,8.3,12.2c-2.6,10.5-14.8,19.4-26.7,16.4
				c-3.9-1-7.9-2.4-11.9-2.5C82.8,260.4,72.9,261.4,63.9,256.5z M89.3,244.8c1.7,10.8,12.8,16.4,20.4,15.9
				c7.8-0.6,16.5-6.7,17.9-15.5C114.8,247.9,102.1,248.4,89.3,244.8z M89.1,240c0.1,0.4,0.1,0.8,0.2,1.2c12.8,3.8,25.7,4,38.5-1.1
				c-3.2-1.2-6.5-1.6-9.8-1.8c-0.8,0-1.7,0.7-2.5,1.1c-0.1-1.1-0.5-2.2-0.3-3.1c1.3-5.7,2.8-11.5,4.3-17.2c-0.3-0.1-0.7-0.2-1-0.3
				c-0.4,1.4-0.9,2.7-1.3,4.1c-1.7,6.5-3.3,13-5,19.8c-1.7,0-4.4,0-7,0c-0.2-0.3-0.3-0.7-0.5-1c1.7-1.3,3.4-2.6,5.5-4.2
				c-3.1,0-5.8,0-8,0c0.4,1.4,0.8,2.9,1.2,4.4c-2.9,0-5.2,0-7.6,0c0.1-1.3,0.2-2.4,0.4-4.3C93.7,238.4,91.4,239.2,89.1,240z
				 M81.8,217.2c-0.5,7.2,3.2,10.7,9.6,9.3C92.1,218.1,90.5,216.5,81.8,217.2z M110.8,217.2c-7.9-0.8-10.8,2.3-9.4,9.6
				C109,227.4,111.4,225.1,110.8,217.2z M95.9,220.4c6.3-5.4,6.2-8.4-0.3-12.6C90,211.1,90.2,217.2,95.9,220.4z"/>
			<path d="M89.3,244.8c12.8,3.6,25.5,3.1,38.2,0.4c-1.3,8.8-10,14.9-17.9,15.5C102.2,261.2,91,255.6,89.3,244.8z"/>
			<path d="M89.1,240c2.3-0.8,4.6-1.5,7.2-2.4c-0.2,1.8-0.3,3-0.4,4.3c2.5,0,4.7,0,7.6,0c-0.4-1.5-0.8-3-1.2-4.4c2.2,0,4.9,0,8,0
				c-2.1,1.6-3.8,2.9-5.5,4.2c0.2,0.3,0.3,0.7,0.5,1c2.7,0,5.3,0,7,0c1.7-6.7,3.3-13.3,5-19.8c0.4-1.4,0.8-2.7,1.3-4.1
				c0.3,0.1,0.7,0.2,1,0.3c-1.4,5.7-2.9,11.4-4.3,17.2c-0.2,1,0.2,2.1,0.3,3.1c0.8-0.4,1.7-1.2,2.5-1.1c3.3,0.2,6.6,0.6,9.8,1.8
				c-12.8,5.1-25.6,4.9-38.5,1.1C89.2,240.8,89.2,240.4,89.1,240z"/>
			<path d="M81.8,217.2c8.7-0.7,10.3,0.9,9.6,9.3C85,227.9,81.3,224.4,81.8,217.2z"/>
			<path d="M110.8,217.2c0.6,7.8-1.8,10.2-9.4,9.6C100,219.5,102.9,216.5,110.8,217.2z"/>
			<path d="M95.9,220.4c-5.8-3.2-5.9-9.3-0.3-12.6C102.1,212,102.2,214.9,95.9,220.4z"/>
		</g>
	</g>
	<g>
		<g>
			<path class="st7" d="M222.4,526.4h-79c-3,0-5.5-2.5-5.5-5.5v-79c0-3,2.5-5.5,5.5-5.5h79c3,0,5.5,2.5,5.5,5.5v79
				C227.9,523.9,225.4,526.4,222.4,526.4z"/>
		</g>
		
			<use xlink:href="#SMS"  width="64" height="63.4" id="XMLID_3_" x="-32" y="-31.7" transform="matrix(1.1565 0 0 -1.1565 182.8677 481.3859)" style="overflow:visible;"/>
	</g>
	<g>
		<g>
			<g>
				<path class="st8" d="M385.4,358c0,3.4-2.7,6.1-6.1,6.1H226.9c-3.4,0-6.1-2.7-6.1-6.1V250.7c0-3.4,2.7-6.1,6.1-6.1h152.4
					c3.4,0,6.1,2.7,6.1,6.1V358z"/>
				<path class="st8" d="M201,355.7v6.1c0,3.4,2.7,6.1,6.1,6.1H399c3.4,0,6.1-2.7,6.1-6.1v-6.1H201z"/>
				<path class="st3" d="M379.4,348c0,0.7-0.6,1.3-1.3,1.3h-150c-0.7,0-1.3-0.6-1.3-1.3v-96.1c0-0.7,0.6-1.3,1.3-1.3h150
					c0.7,0,1.3,0.6,1.3,1.3V348z"/>
				<rect x="235.7" y="361.5" class="st3" width="18.4" height="0.9"/>
				<circle class="st3" cx="221.8" cy="361.9" r="1.1"/>
				<circle class="st3" cx="227.1" cy="361.9" r="1.1"/>
			</g>
		</g>
		<g>
			
				<use xlink:href="#Add_Favorite"  width="64.9" height="61" id="XMLID_1_" x="-32.4" y="-30.5" transform="matrix(1.3246 0 0 -1.3246 302.6441 303.4305)" style="overflow:visible;"/>
		</g>
	</g>
	<g>
		<g>
			<g>
				<path class="st7" d="M363.2,127.7h-79c-3,0-5.5-2.5-5.5-5.5v-79c0-3,2.5-5.5,5.5-5.5h79c3,0,5.5,2.5,5.5,5.5v79
					C368.7,125.2,366.3,127.7,363.2,127.7z"/>
			</g>
		</g>
		<g>
			<g id="bell_1_">
				<path class="st3" d="M315.9,112.5c1.2,3.2,4.2,5.4,7.8,5.4c3.6,0,6.6-2.3,7.8-5.4c-2.5,0.2-5.1,0.3-7.8,0.3
					C321,112.8,318.4,112.7,315.9,112.5z"/>
				<path class="st3" d="M353.9,97.7h-1.1l-7.4-8.9l-3.9-20.7h0c-1.2-7.3-6.7-13-13.9-14.6c0,0,0-0.1,0-0.1l1.1-3.3
					c0.5-1.5-0.4-2.8-2-2.8h-5.9c-1.6,0-2.5,1.3-2,2.8l1.1,3.3c0,0,0,0.1,0,0.1c-7.1,1.6-12.7,7.3-13.9,14.6h0L302,88.9l-7.4,8.9
					h-1.1c-1.6,0-3,1.3-3,3c0,1.6,1.2,3.4,2.8,4c0,0,12.7,4.9,30.4,4.9s30.4-4.9,30.4-4.9c1.5-0.6,2.8-2.4,2.8-4
					C356.9,99.1,355.6,97.7,353.9,97.7z M310.8,69.3l-3.9,21.6l-8.6,9.8H296l8.8-10.5l4.1-21.5c0.6-3.4,2.3-6.4,4.8-8.6l1.1,1.4
					C312.8,63.3,311.3,66.5,310.8,69.3z"/>
			</g>
		</g>
	</g>
	<g>
		<g>
			<path class="st5" d="M353.5,574.9h-79c-3,0-5.5-2.5-5.5-5.5v-79c0-3,2.5-5.5,5.5-5.5h79c3,0,5.5,2.5,5.5,5.5v79
				C359,572.4,356.5,574.9,353.5,574.9z"/>
		</g>
		
			<use xlink:href="#Checklist"  width="63.9" height="64" id="XMLID_2_" x="-31.9" y="-32" transform="matrix(1.1523 0 0 -1.1523 313.9772 529.8848)" style="overflow:visible;"/>
	</g>
	<g>
		<g>
			<line class="st9" x1="221.4" y1="339.6" x2="220" y2="340.2"/>
			<line class="st10" x1="217.2" y1="341.5" x2="151.6" y2="372.8"/>
			<line class="st9" x1="150.2" y1="373.5" x2="148.9" y2="374.1"/>
		</g>
	</g>
	<g>
		<g>
			<line class="st9" x1="276.9" y1="362.4" x2="276.1" y2="363.7"/>
			<line class="st10" x1="274.7" y1="366.4" x2="239.8" y2="430.2"/>
			<line class="st9" x1="239" y1="431.6" x2="238.3" y2="432.9"/>
		</g>
	</g>
	<g>
		<g>
			<line class="st9" x1="221.4" y1="280.4" x2="220" y2="279.7"/>
			<line class="st10" x1="217.2" y1="278.4" x2="151.6" y2="247.1"/>
			<line class="st9" x1="150.2" y1="246.4" x2="148.9" y2="245.8"/>
		</g>
	</g>
	<g>
		<path class="st11" d="M494.2,128.8c3.6,0.5,7.2,1.1,10.7,2.4c7.2,2.5,13,7,18.2,12.5c0.5,0.5,0.6,1,0.3,1.7
			c-3.1,7.5-6.1,15.1-9.2,22.7c-0.5,1.2-0.9,0.4-1.3,0c-3.6-4.1-7.9-7.1-13-9c-12.4-4.6-25.9-1.2-35.1,8.7c-1.1,1.2-1.1,1.2-1.7-0.2
			c-3-7.3-5.9-14.6-8.9-21.9c-0.3-0.7-0.4-1.2,0.2-1.8c6.5-7,14.1-12.1,23.6-14c1.7-0.4,3.5-0.6,5.3-0.9
			C487,128.8,490.6,128.8,494.2,128.8z M492,137.1c0-0.9,0-1.5,0-2.1c0.1-1.3-0.5-1.8-1.8-1.8c-0.8,0-1.5,0-2.3,0
			c-1.9,0-2,0.2-2,2.1c0,1,0,2.1,0,3.1c0,0.9-0.3,1.3-1.3,1.3c-1.3,0-2.5,0-3.8,0c-0.9,0-1.4,0.5-1.4,1.4c0,1.2,0,2.3,0,3.5
			c0,0.9,0.5,1.4,1.4,1.4c1.2,0,2.3,0.1,3.5,0c1.2-0.1,1.6,0.5,1.5,1.6c-0.1,1.2,0,2.3,0,3.5c0,0.9,0.4,1.4,1.4,1.4
			c1.1,0,2.1,0,3.2,0c1,0,1.5-0.5,1.5-1.5c0-1.3,0-2.6,0-3.9c0-0.7,0.3-1.1,1-1c1.3,0,2.5,0,3.8,0c1.1,0,1.7-0.5,1.7-1.6
			c0-0.4,0-0.7,0-1.1c0-3.6,0.3-3.6-3.6-3.6C491.6,139.6,492,140.2,492,137.1z"/>
		<path class="st11" d="M487.8,245.7c-3.5-1.6-6.5-3.8-9.2-6.4c-3.3-3.3-5.2-7.1-5.4-11.8c-0.1-2.2,0.2-2.7,2.3-3.1
			c8.6-1.6,17.2-1.6,25.7,0c2.5,0.5,2.8,0.9,2.6,3.5c-0.5,6.8-4.6,11.2-9.7,15c-1.5,1.1-3.1,1.9-5,2.8c0.8,0.5,1.4,0.8,2,1.2
			c3.8,2.1,7.7,4.2,11.5,6.4c0.9,0.5,1.5,0.3,2.1-0.4c2.9-3.3,4.5-7.3,5.3-11.6c0.8-4.4,1.5-8.8,0.8-13.3c-0.1-0.8,0-1,0.8-0.7
			c9.3,3.6,17.4,8.7,22.1,17.9c1.6,3.1,2.4,6.3,2.3,9.8c0,2.4,0,4.7,0,7.1c0,2.6-1.8,4.4-4.4,4.4c-28.7,0-57.3,0-86,0
			c-2.6,0-4.4-1.8-4.4-4.4c0.1-3.9-0.4-7.8,0.4-11.6c1.5-6.6,5.3-11.5,10.4-15.7c3.9-3.2,8.4-5.6,13.2-7.4c0.9-0.4,1.3-0.4,1.2,0.9
			c-0.6,6.4,0.2,12.6,2.4,18.6c0.9,2.4,2.2,4.6,4,6.5c0.4,0.4,0.7,0.6,1.3,0.3c4.5-2.5,9-5,13.5-7.5
			C487.6,246,487.7,245.9,487.8,245.7z"/>
		<path class="st11" d="M517.9,215.7c-1.4,0.4-2.5,0.3-3.8,0.1c1.5,1.8,3.5,2.7,5.8,3.4c-1.8,0.9-3.5,0.5-5,0.2
			c-5-1.1-9.7-2.7-13-6.9c-0.5-0.7-1-0.4-1.5-0.1c-3.1,1.5-6.3,2.4-9.8,2.6c-4.5,0.3-8.8-0.5-12.9-2.5c-1.1-0.5-1.7-0.4-2.3,0.6
			c-1.3,1.8-3.1,3-5.1,3.9c-3,1.4-6.1,2.4-9.4,2.7c-1,0.1-2,0-3-0.4c2.1-0.7,4.1-1.5,5.7-3.4c-1.3,0.2-2.4,0.3-3.5,0
			c0-0.4,0.2-0.5,0.4-0.6c3.4-1.4,4.3-4.3,4.9-7.7c0.8-4.8-1.2-8.9-2.1-13.4c-2.9-15.2,7.3-28.7,21.5-30.8
			c12.6-1.8,23.8,4.7,28.3,16.6c2.2,5.7,2.4,11.7,0.3,17.5c-1.4,4-1.5,8-0.9,12c0.3,2.3,1.6,4.2,3.7,5.3
			C516.7,215,517.1,215.3,517.9,215.7z"/>
	</g>
	<g id="user_76_">
		<path id="user_77_" class="st11" d="M550.5,421c-3.2-1.8-24.2-14.3-35-18.6v-18.9c3.1-2.3,5-5.8,5-11.1v-14.9
			c0-12.4-7.5-22.5-22.5-22.5c-15,0-22.5,10.1-22.5,22.5c0,0,0,2.4,0,14.9c0,5.4,1.9,8.9,5,11.2v18.8c-10.2,4.4-31.8,16.8-35,18.6
			c-4,2.3-5,4.4-5,9.7c0,2.1,0,11.8,0,11.8c0,1.4,1.1,2.5,2.5,2.5h110c1.4,0,2.5-1.1,2.5-2.5c0,0,0-9.6,0-11.8
			C555.5,425.5,554.5,423.3,550.5,421z"/>
	</g>
	<g>
		<g>
			<line class="st9" x1="231.5" y1="171.3" x2="232.5" y2="172.4"/>
			<line class="st10" x1="234.4" y1="174.9" x2="279.8" y2="231.7"/>
			<line class="st9" x1="280.7" y1="232.9" x2="281.7" y2="234"/>
		</g>
	</g>
	<line class="st12" x1="323.7" y1="139.8" x2="323.7" y2="240.4"/>
	<line class="st12" x1="323.7" y1="372.6" x2="323.7" y2="473.2"/>
	<g>
		<g>
			<path class="st13" d="M362.4,368.7c0.2-0.2,0.5-0.3,0.8-0.3c0.3,0,0.6,0.1,0.8,0.3l7.5,7.5c0.4,0.4,0.4,1.1,0,1.6l-1,1
				c-0.4,0.4-1.1,0.4-1.6,0L365,375v35.6c0,0.6-0.5,1.1-1.1,1.1h-1.5c-0.6,0-1.1-0.5-1.1-1.1V375l-3.9,3.9c-0.4,0.4-1.1,0.4-1.6,0
				l-1-1c-0.4-0.4-0.4-1.1,0-1.6L362.4,368.7z"/>
		</g>
		<g>
			<path class="st13" d="M362.2,407.4h74.6c0.6,0,1.1,0.5,1.1,1.1v1.5c0,0.6-0.5,1.1-1.1,1.1h-74.6"/>
		</g>
	</g>
	<g>
		<g>
			<path class="st13" d="M362.4,243.3c0.2,0.2,0.5,0.3,0.8,0.3c0.3,0,0.6-0.1,0.8-0.3l7.5-7.5c0.4-0.4,0.4-1.1,0-1.6l-1-1
				c-0.4-0.4-1.1-0.4-1.6,0L365,237v-35.6c0-0.6-0.5-1.1-1.1-1.1h-1.5c-0.6,0-1.1,0.5-1.1,1.1V237l-3.9-3.9c-0.4-0.4-1.1-0.4-1.6,0
				l-1,1c-0.4,0.4-0.4,1.1,0,1.6L362.4,243.3z"/>
		</g>
		<g>
			<path class="st13" d="M362.2,204.6h74.6c0.6,0,1.1-0.5,1.1-1.1V202c0-0.6-0.5-1.1-1.1-1.1h-74.6"/>
		</g>
	</g>
</g>
</svg>
