<?xml version="1.0" encoding="utf-8"?>
<!-- Generator: Adobe Illustrator 20.0.0, SVG Export Plug-In . SVG Version: 6.00 Build 0)  -->
<svg version="1.1" id="Layer_1" xmlns="http://www.w3.org/2000/svg" xmlns:xlink="http://www.w3.org/1999/xlink" x="0px" y="0px"
	 viewBox="0 0 612 612" style="enable-background:new 0 0 612 612;" xml:space="preserve">
<style type="text/css">
	.st0{fill:#030303;}
	.st1{opacity:0.7;fill:#F6B584;enable-background:new    ;}
	.st2{opacity:0.5;}
	.st3{fill:#E69965;}
	
		.st4{opacity:0.3;fill:none;stroke:#F5F6F6;stroke-width:5;stroke-linecap:round;stroke-linejoin:round;stroke-miterlimit:10;stroke-dasharray:30;enable-background:new    ;}
	.st5{fill:#F5F6F6;}
	.st6{fill:none;stroke:#312E2D;stroke-width:3;stroke-linecap:round;stroke-linejoin:round;stroke-dasharray:11.9391,11.9391;}
	.st7{fill:#FFFFFF;stroke:#010101;stroke-width:2;stroke-miterlimit:10;}
	.st8{fill:#010101;}
	.st9{fill:#FFFFFF;}
	.st10{fill:#25BFD2;stroke:#312E2D;stroke-width:2;stroke-linecap:round;stroke-linejoin:round;stroke-miterlimit:10;}
	.st11{fill:none;stroke:#F5F6F6;stroke-width:3;stroke-miterlimit:10;stroke-dasharray:8;}
	.st12{fill:#6A7372;}
	.st13{fill:#F15C27;}
	.st14{fill:#FBB03C;}
	.st15{fill:#25BFD2;}
	.st16{fill:none;stroke:#312E2D;stroke-width:2;stroke-linecap:round;stroke-linejoin:round;stroke-miterlimit:10;}
	.st17{fill:#F5F6F6;stroke:#312E2D;stroke-width:2;stroke-linecap:round;stroke-linejoin:round;stroke-miterlimit:10;}
	.st18{fill:#312E2D;}
	.st19{font-family:'ArialMT';}
	.st20{font-size:23.8495px;}
	.st21{fill:#D3D3D3;}
	.st22{fill:#219B9E;}
	.st23{fill:#EE7047;}
	.st24{fill:#623C16;}
	.st25{fill:#E8CF6B;}
	.st26{fill:#EAB167;}
	.st27{fill:none;stroke:#312E2D;stroke-width:2;stroke-linecap:round;stroke-linejoin:round;}
	.st28{fill:#19B0BF;stroke:#312E2D;stroke-width:2;stroke-linecap:round;stroke-linejoin:round;stroke-miterlimit:10;}
	.st29{fill:#FBB03C;stroke:#312E2D;stroke-width:2;stroke-linecap:round;stroke-linejoin:round;stroke-miterlimit:10;}
	.st30{fill:#F15C27;stroke:#312E2D;stroke-width:2;stroke-linecap:round;stroke-linejoin:round;stroke-miterlimit:10;}
	.st31{font-family:'Arial-Black';}
	.st32{font-size:20.6288px;}
</style>
<g>
	<g id="Layer_1_1_">
		<g id="Arrow_7_1_">
		</g>
		<g>
			<polygon class="st0" points="313.3,184.2 304.7,197.3 296.1,184.1 301.2,184.1 301.3,148.3 307.5,148.3 307.4,184.1 			"/>
			<ellipse class="st1" cx="306" cy="306" rx="306" ry="306"/>
			<g>
				<g id="signs_1_">
					<g class="st2">
						<path class="st3" d="M308.6,608.7c-54.1,0-104.8-21.1-143-59.2s-59.2-89-59.2-143c0-54.1,21.1-104.8,59.2-143
							s89-59.2,143-59.2c54.1,0,104.8,21.1,143,59.2s59.2,89,59.2,143c0,54.1-21.1,104.8-59.2,143S362.7,608.7,308.6,608.7z"/>
					</g>
					<ellipse class="st4" cx="309.7" cy="406.5" rx="138.4" ry="138.4"/>
					<g class="st2">
						<path class="st5" d="M308.6,520.6c-30.5,0-59.1-11.8-80.7-33.4c-21.6-21.6-33.4-50.2-33.4-80.7s11.8-59.1,33.4-80.7
							c21.6-21.6,50.2-33.4,80.7-33.4c30.5,0,59.1,11.8,80.7,33.4c21.6,21.6,33.4,50.2,33.4,80.7c0,30.5-11.8,59.1-33.4,80.7
							C367.8,508.7,339.1,520.6,308.6,520.6z M308.6,320.5c-47.4,0-86,38.6-86,86c0,47.4,38.6,86,86,86s86-38.6,86-86
							S356,320.5,308.6,320.5z"/>
					</g>
					<g class="st2">
						<circle class="st6" cx="308.6" cy="406.5" r="100"/>
					</g>
					<g>
						<path class="st7" d="M352.3,455.5h-84.8c-6.7,0-12.2-5.5-12.2-12.2v-67.8c0-6.7,5.5-12.2,12.2-12.2h84.9
							c6.7,0,12.2,5.5,12.2,12.2v67.8C364.4,450,359,455.5,352.3,455.5z"/>
						<path class="st8" d="M364.4,379.9H255.4c0,0,0-3.7,0-8.3l0,0c0-4.6,3.7-8.3,8.3-8.3h92.4c4.6,0,8.3,3.7,8.3,8.3l0,0
							C364.4,376.2,364.4,379.9,364.4,379.9z"/>
						<circle class="st9" cx="355.9" cy="371.6" r="2.7"/>
						<circle class="st9" cx="348.1" cy="371.6" r="2.7"/>
						<circle class="st9" cx="340.3" cy="371.6" r="2.7"/>
						<rect x="259.7" y="383.8" class="st10" width="100.4" height="62.1"/>
					</g>
					<ellipse class="st11" cx="308.6" cy="406.5" rx="204.7" ry="204.7"/>
				</g>
				<g id="XMLID_65_">
					<g>
						<polygon class="st12" points="453.4,337.2 455.6,339.9 450.7,344.8 448.1,342.7 						"/>
						
							<rect x="441.5" y="326.8" transform="matrix(0.7071 -0.7071 0.7071 0.7071 -106.0834 412.8623)" class="st13" width="7.7" height="15.3"/>
						<polygon class="st12" points="442.6,326.5 437.2,331.8 435,329.1 435.8,328.3 439,325.2 439.9,324.2 						"/>
						<polygon class="st14" points="439,325.2 435.8,328.3 431.5,325.3 436,320.8 						"/>
						<path class="st5" d="M433.3,300.1c6.2,6.2,6.2,16.3,0,22.5c-6.2,6.2-16.3,6.2-22.5,0c-6.2-6.2-6.2-16.3,0-22.5
							C417.1,294,427.1,294,433.3,300.1z M430.1,319.5c4.5-4.5,4.5-11.7,0-16.2s-11.7-4.5-16.2,0s-4.5,11.7,0,16.2
							C418.4,324,425.7,324,430.1,319.5z"/>
						<path class="st15" d="M430.1,303.3c4.5,4.5,4.5,11.7,0,16.2c-4.5,4.5-11.7,4.5-16.2,0c-4.5-4.5-4.5-11.7,0-16.2
							S425.7,298.8,430.1,303.3z"/>
					</g>
					<g>
						<path class="st16" d="M413.9,319.5c-4.5-4.5-4.5-11.7,0-16.2s11.7-4.5,16.2,0s4.5,11.7,0,16.2
							C425.7,324,418.4,324,413.9,319.5z"/>
						<path class="st16" d="M413.5,311.4c0-2.3,0.9-4.7,2.6-6.4"/>
						
							<ellipse transform="matrix(0.7071 -0.7071 0.7071 0.7071 -96.5621 389.6022)" class="st16" cx="422" cy="311.4" rx="15.9" ry="15.9"/>
						<polyline class="st16" points="435.8,328.3 431.5,325.3 436,320.8 439,325.2 						"/>
						<polyline class="st16" points="437.2,331.8 435,329.1 435.8,328.3 439,325.2 439.9,324.2 442.6,326.5 						"/>
						<polyline class="st16" points="453.4,337.2 455.6,339.9 450.7,344.8 448.1,342.7 						"/>
						
							<rect x="441.5" y="326.8" transform="matrix(0.7071 -0.7071 0.7071 0.7071 -106.0834 412.8623)" class="st16" width="7.7" height="15.3"/>
					</g>
				</g>
				<g>
					<path class="st17" d="M183.2,369.3c0-5.7-8-10.3-17.8-10.3c-9.8,0-17.8,4.7-17.8,10.3s8,10.3,17.8,10.3c1.8,0,3.5-0.2,5.3-0.4
						l0,0c2,2.8,5.7,3,5.7,3s-1.2-1.4-1.2-4.3l0,0C179.9,376.1,183.2,372.9,183.2,369.3z"/>
					<path class="st17" d="M133,364.9c0-7.1,9.9-12.8,22.1-12.8c12.3,0,22.1,5.8,22.1,12.8c0,7.1-9.9,12.8-22.1,12.8
						c-2.2,0-4.5-0.2-6.5-0.6l0,0c-2.5,3.5-7.1,3.7-7.1,3.7s1.5-1.8,1.5-5.3l0,0C137,373.4,133,369.5,133,364.9z"/>
					<text transform="matrix(1 0 0 1 147.4502 366.5686)" class="st18 st19 st20">...</text>
				</g>
				<g id="XMLID_64_">
					<g>
						<path class="st5" d="M224,290.8c0,6.9-5.6,12.4-12.4,12.4c-6.9,0-12.4-5.6-12.4-12.4c0-6.9,5.6-12.4,12.4-12.4
							C218.4,278.4,224,283.9,224,290.8z M213.7,292.9l5.2-9.4l-9.4,5.3l-5.3,9.4L213.7,292.9z"/>
						<path class="st14" d="M211.6,273.8c9.3,0,16.9,7.6,16.9,16.9s-7.6,16.9-16.9,16.9c-9.3,0-16.9-7.6-16.9-16.9
							C194.6,281.4,202.2,273.8,211.6,273.8z M224,290.8c0-6.9-5.6-12.4-12.4-12.4c-6.9,0-12.4,5.6-12.4,12.4
							c0,6.9,5.6,12.4,12.4,12.4S224,297.6,224,290.8z"/>
						<polygon class="st15" points="218.9,283.5 213.7,292.9 209.5,288.7 						"/>
						<polygon class="st13" points="213.7,292.9 204.2,298.1 209.5,288.7 						"/>
					</g>
					<g>
						<circle class="st16" cx="211.6" cy="290.8" r="16.9"/>
						<circle class="st16" cx="211.6" cy="290.8" r="12.4"/>
						<polyline class="st16" points="209.5,288.7 218.9,283.5 213.7,292.9 						"/>
						<polygon class="st16" points="213.7,292.9 204.2,298.1 209.5,288.7 						"/>
						<line class="st16" x1="211.6" y1="278.4" x2="211.6" y2="281.7"/>
						<line class="st16" x1="211.6" y1="299.9" x2="211.6" y2="303.2"/>
						<line class="st16" x1="199.2" y1="290.8" x2="202.5" y2="290.8"/>
						<line class="st16" x1="220.7" y1="290.8" x2="224" y2="290.8"/>
					</g>
				</g>
				<g>
					<g>
						<g id="XMLID_63_">
							<g>
								<polygon class="st14" points="254.3,512.8 254.3,573.1 205,573.1 205,512.8 211.4,512.8 211.4,515.7 208.3,515.7 
									208.3,569.9 251,569.9 251,515.7 248,515.7 248,512.8 								"/>
								<polygon class="st21" points="251,515.7 251,569.9 208.3,569.9 208.3,515.7 211.4,515.7 211.4,566.9 248,566.9 248,515.7 
																	"/>
								<polygon class="st5" points="248,515.7 248,566.9 211.4,566.9 211.4,515.7 214,515.7 217.1,515.7 219.6,515.7 222.8,515.7 
									225.3,515.7 228.4,515.7 231,515.7 234.1,515.7 236.6,515.7 239.8,515.7 242.2,515.7 245.3,515.7 								"/>
								<rect x="245.3" y="512.8" class="st5" width="2.5" height="2.9"/>
								<rect x="242.2" y="512.8" class="st22" width="3.1" height="2.9"/>
								<rect x="242.2" y="510.8" class="st22" width="3.1" height="1.9"/>
								<rect x="239.8" y="512.8" class="st5" width="2.5" height="2.9"/>
								<rect x="236.6" y="512.8" class="st22" width="3.1" height="2.9"/>
								<rect x="236.6" y="510.8" class="st22" width="3.1" height="1.9"/>
								<rect x="234.1" y="512.8" class="st5" width="2.5" height="2.9"/>
								<rect x="231" y="512.8" class="st22" width="3.1" height="2.9"/>
								<rect x="231" y="510.8" class="st22" width="3.1" height="1.9"/>
								<rect x="228.4" y="512.8" class="st5" width="2.5" height="2.9"/>
								<rect x="225.3" y="512.8" class="st22" width="3.1" height="2.9"/>
								<rect x="225.3" y="510.8" class="st22" width="3.1" height="1.9"/>
								<rect x="222.8" y="512.8" class="st5" width="2.5" height="2.9"/>
								<rect x="219.6" y="512.8" class="st22" width="3.1" height="2.9"/>
								<rect x="219.6" y="510.8" class="st22" width="3.1" height="1.9"/>
								<rect x="217.1" y="512.8" class="st5" width="2.5" height="2.9"/>
								<rect x="214" y="512.8" class="st22" width="3.1" height="2.9"/>
								<rect x="214" y="510.8" class="st22" width="3.1" height="1.9"/>
								<rect x="211.4" y="512.8" class="st5" width="2.5" height="2.9"/>
							</g>
							<g>
								<polyline class="st16" points="248,512.8 254.3,512.8 254.3,573.1 205,573.1 205,512.8 211.4,512.8 								"/>
								<polyline class="st16" points="248,515.7 251,515.7 251,569.9 208.3,569.9 208.3,515.7 211.4,515.7 								"/>
								<polyline class="st16" points="248,512.8 248,515.7 248,566.9 211.4,566.9 211.4,515.7 211.4,512.8 								"/>
								<polyline class="st16" points="214,515.7 214,512.8 214,510.8 217.1,510.8 217.1,512.8 217.1,515.7 								"/>
								<polyline class="st16" points="219.6,515.7 219.6,512.8 219.6,510.8 222.8,510.8 222.8,512.8 222.8,515.7 								"/>
								<polyline class="st16" points="225.3,515.7 225.3,512.8 225.3,510.8 228.4,510.8 228.4,512.8 228.4,515.7 								"/>
								<polyline class="st16" points="231,515.7 231,512.8 231,510.8 234.1,510.8 234.1,512.8 234.1,515.7 								"/>
								<polyline class="st16" points="236.6,515.7 236.6,512.8 236.6,510.8 239.8,510.8 239.8,512.8 239.8,515.7 								"/>
								<polyline class="st16" points="242.2,515.7 242.2,512.8 242.2,510.8 245.3,510.8 245.3,512.8 245.3,515.7 								"/>
							</g>
						</g>
					</g>
					<line class="st16" x1="215.6" y1="522.7" x2="232.5" y2="522.7"/>
					<line class="st16" x1="215.6" y1="527.7" x2="232.5" y2="527.7"/>
					<line class="st16" x1="215.6" y1="532.5" x2="243.8" y2="532.5"/>
					<line class="st16" x1="215.6" y1="537.5" x2="243.8" y2="537.5"/>
					<line class="st16" x1="215.6" y1="542.4" x2="243.8" y2="542.4"/>
				</g>
				<g>
					<g id="XMLID_62_">
						<g>
							<rect x="267.5" y="529.9" class="st23" width="0" height="3.2"/>
							<polygon class="st24" points="267.5,525 267.5,529.9 267.5,529.9 261.6,529.9 261.6,525 							"/>
							<polygon class="st25" points="267.5,558.4 266.2,560.6 263,560.6 263,560.6 261.6,558.4 							"/>
							<rect x="261.6" y="533.1" class="st26" width="5.9" height="25.4"/>
							<rect x="261.6" y="529.9" class="st25" width="5.9" height="3.2"/>
							<polygon class="st24" points="266.2,560.6 264.6,563.2 263,560.6 							"/>
						</g>
						<g>
							<line class="st27" x1="267.5" y1="533.1" x2="267.5" y2="558.4"/>
							<line class="st27" x1="261.6" y1="558.4" x2="261.6" y2="533.1"/>
							<polyline class="st27" points="263,560.6 261.6,558.4 267.5,558.4 267.5,558.4 266.2,560.6 264.6,563.2 263,560.6 							"/>
							<polyline class="st27" points="263,560.6 263,560.6 266.2,560.6 							"/>
							<polyline class="st27" points="267.5,529.9 267.5,533.1 267.5,533.1 261.6,533.1 261.6,529.9 							"/>
							<polygon class="st27" points="267.5,529.9 267.5,529.9 261.6,529.9 261.6,525 267.5,525 							"/>
						</g>
					</g>
					<line class="st16" x1="264.6" y1="558.4" x2="264.6" y2="542"/>
					<line class="st16" x1="264.6" y1="538.2" x2="264.6" y2="533.1"/>
				</g>
				<g>
					<g id="share-alt_5_">
						<path class="st10" d="M308.3,243.7c1.1,2.8-0.1,5.8-2.9,7c-1.3,0.5-2.6,0.5-3.8,0l-8.8,11.6c0.4,0.4,0.5,0.7,0.6,1.1
							c1.1,2.6-0.2,5.7-2.8,6.7c-2.6,1-5.7-0.2-6.7-2.8c-1.1-2.6,0.2-5.7,2.8-6.7c1.3-0.5,2.6-0.5,3.8,0l8.8-11.6
							c-0.3-0.3-0.5-0.7-0.6-1.1c-0.1-0.3-0.3-0.8-0.3-1.2l-14.4-2c-0.5,1.1-1.4,2.1-2.7,2.6c-2.8,1.1-5.8-0.1-7-2.9
							c-1.2-2.8,0.1-5.8,2.9-7s5.8,0.1,7,2.9c0.1,0.3,0.3,0.8,0.3,1.2l14.4,2c0.5-1.1,1.4-2.1,2.7-2.6
							C304.4,239.8,307.1,240.9,308.3,243.7z"/>
					</g>
				</g>
				<g id="globe_2_">
					<path class="st28" d="M443.1,474.2c-0.5,0.3-0.9,0.9-1.3,1.2c-0.4,0.1-0.8-0.1-1-0.4c0,0.8-1,1.2-1.2,2
						c1.3,0.9,3.3,0.9,4.9,1.2C444.3,476.9,443.1,475.7,443.1,474.2z"/>
					<path class="st28" d="M442.6,467.3c-11.9,0-21.7,9.7-21.7,21.7c0,11.9,9.7,21.7,21.7,21.7s21.7-9.7,21.7-21.7
						C464.3,477,454.5,467.3,442.6,467.3z M454.4,503.6c-1.9,2.1-5.4,4.2-8.3,4.1c-0.6-0.7,0-1,0.1-1.7c-1.5-0.3-2.4-1.7-3.2-2.9
						c-0.2-1.6,1.9-2.9,1.3-4.3c-1,0.1-2-0.1-2.8-0.8c-0.4-0.3-0.7-0.7-1-1.2c-0.6-0.3-1.2-0.6-1.9-0.8c-2-0.8-4.2-1.5-5.7-3.1
						c0.1-1.5-0.7-2.3-1.7-3.3c-1-1-0.5-1.8-1-3.1c-0.3-0.9-0.8-1.6-0.7-2.6c0.1-1,0.3-1.9,0.6-2.8c0.6-1.7,1.6-3.3,1.7-5.2
						c0.1-0.8-1.1-1-0.2-1.9c1-1,2.3-2,3.7-2c0.7,0,1.2,0.4,1.9,0.2c0.7-0.2,1.4-0.3,2.1-0.4c1.5-0.2,2.9-0.5,4.2-1.4l0.1,0.1h1.2
						l0.1-0.1c1.6,1.3,5.7,0.8,5.2,3.9v0.3c-1.4,0.1-2.7-0.1-4.1-0.5c0,0.5,0.1,1.1-0.1,1.6c2.1,1.2,5,2.1,6.1,4.6
						c-0.9,1.1-2.1,0.6-3.3,0.6c-0.4,0.4-0.5,0.8-0.4,1.3c-1,0.5-1.9,1-2.2,2.2c-0.2,0.6,0,1.4-0.3,1.9c-0.3,0.7-1.1,1.2-1.4,2
						c-0.1,1,0.5,1.9-0.5,2.7c-1.5,0-1.6-1.2-2.7-1.6c-1-0.3-2.2,0-3.2-0.2c-1.4,0.5-1.3,4.2,0.7,3.5c0.9-0.3,1-1,2.1-0.8
						c0.9,0.5,0.4,1.6,0.3,2.3c0.6,0.4,1.5,0.1,1.9,0.9c0.1,0.5-0.2,1.5,0.1,1.9c0.7,1.1,2.8-0.7,3.4-0.9c1.6-0.6,3.5-0.4,5.3-0.5
						c1.3,1,3.3,0.5,4.5,1.8c0.7-0.1,1.4-0.5,2,0.1C458,500.1,456.2,501.9,454.4,503.6z"/>
				</g>
				<g id="usd_1_">
					<path class="st29" d="M381.2,266.1c-2.1-6.7-8.8-6.1-11-6c-0.7,0-0.7-0.1-2.1,0.1l-2.2-7c2.8-0.4,3.9,1,5,3.6l5.8-1.8
						c-2.1-6.7-6.9-8.1-12.5-7l-0.7-2.2l-2.7,0.9l0.7,2.1c-4.3,1.9-7.7,6.2-6,11.6c1.8,5.6,6.4,5.9,10.8,5.8c0.2,0,0.5,0,0.7,0
						l2.6,8.1c-2.3,0.1-4.3-0.9-5.1-3.5l-5.8,1.8c1.7,5.4,7.2,8,12.6,6.9l0.7,2.1l2.7-0.9l-0.7-2.1
						C380.6,276.1,382.9,271.2,381.2,266.1z M361.2,258.2c-0.6-2,0.5-3.4,1.9-4.2l2,6.2C362.4,260.1,361.7,259.7,361.2,258.2z
						 M372.4,273.7l-2.3-7.3c2.9-0.1,4.6,0.4,5.3,2.4C376.2,271.3,375.1,272.6,372.4,273.7z"/>
				</g>
				<g id="gbp_2_">
					<path class="st10" d="M178.8,456.5c-1.1,2.3-2.1,2.9-3.4,3.3c-1.2,0.4-2.5,0.5-3.7,0.6c-1.3,0.1-2.5,0.2-3.8,0.6
						c-0.9,0.3-1.6,0.7-2.8,2l-0.1-0.1c1.5-2.2,2.7-4.4,1.8-7.3c-0.3-0.8-0.7-2-0.9-1.9l5.5-1.7l-1.5-4.7l-7,2.2
						c-3.2-4.1-3.2-4.2-3.7-5.6c-0.8-2.6,0.4-5.1,3.1-5.9c4.7-1.5,6.2,2.8,6.9,4.4l6.2-1.9c-2.4-7.8-7.8-10.2-14.8-8.1
						c-7.7,2.4-10.3,8.4-8.7,13.4c0.8,2.6,2.6,4.8,4.1,6l-3,0.9l1.5,4.7l5-1.6c0.4-0.1,1.1,1.2,1.4,2c1.1,3.4-0.8,6.7-2.8,9.2
						l4.2,3.3c1.3-1.9,3-2.9,4.8-3.5c2-0.6,3.3-0.6,4.9-0.5c1.4,0.1,2.9,0,5.3-0.8c2.3-0.7,4.8-2.4,6.3-5.3L178.8,456.5z"/>
				</g>
				<g id="lock_2_">
					<path class="st30" d="M483.4,399.7h-1.9v-7.3c0-4.5-4.2-8.7-8.6-8.7h-7.4c-4.5,0-8.6,4.3-8.6,8.7v7.3h-2
						c-0.5,0-0.9,0.4-0.9,0.8v20c0,0.5,0.4,0.8,0.9,0.8h28.6c0.5,0,0.9-0.4,0.9-0.8v-20C484.4,400.1,483.9,399.7,483.4,399.7z
						 M462.6,392.5c0-2,0.9-2.9,2.9-2.9h7.3c2,0,2.9,0.9,2.9,2.9v7.3h-13.1v-7.3L462.6,392.5L462.6,392.5z M470.5,410.5v3.7
						c0,0.4-0.3,0.7-0.7,0.7h-1.4c-0.4,0-0.7-0.3-0.7-0.7v-3.7c-0.9-0.5-1.4-1.4-1.4-2.5c0-1.6,1.3-2.9,2.9-2.9
						c1.6,0,2.9,1.3,2.9,2.9C472.1,409.1,471.5,410,470.5,410.5z"/>
				</g>
				<g id="cloud_2_">
					<path class="st30" d="M381.8,542.9C381.8,542.8,381.8,542.8,381.8,542.9c0-7.7-6-13.8-13.4-13.8c-6,0-11,4.1-12.8,9.6
						c-0.7-0.1-1.3-0.2-2-0.2c-5.6,0-10,5.2-10,10.8c0,0.4,0-0.4,0.1,1.6l0,0c-3.2,0-6,2.7-6,6.1c0,2.9,1.9,6,4.9,6s42.8,0,42.8,0
						c3.4-2,5.9-5.6,5.9-9.6C391.2,548,387,543,381.8,542.9z"/>
				</g>
			</g>
			<g>
				<path class="st7" d="M367.8,146.9H244.2c-2.5,0-4.6-2-4.6-4.6v-103c0-2.5,2-4.6,4.6-4.6h123.5c2.5,0,4.6,2,4.6,4.6v103
					C372.3,144.9,370.3,146.9,367.8,146.9z"/>
				<rect x="244.9" y="44.2" class="st0" width="122.2" height="82"/>
				<text transform="matrix(1 0 0 1 253.7471 68.0037)" class="st9 st31 st32">&gt;_</text>
				<g>
					<circle class="st0" cx="251.8" cy="133.1" r="1.6"/>
					<circle class="st0" cx="257.8" cy="133.1" r="1.6"/>
					<circle class="st0" cx="263.8" cy="133.1" r="1.6"/>
					<circle class="st0" cx="269.9" cy="133.1" r="1.6"/>
					<circle class="st0" cx="275.8" cy="133.1" r="1.6"/>
					<circle class="st0" cx="281.8" cy="133.1" r="1.6"/>
					<circle class="st0" cx="287.8" cy="133.1" r="1.6"/>
					<circle class="st0" cx="293.7" cy="133.1" r="1.6"/>
					<circle class="st0" cx="299.7" cy="133.1" r="1.6"/>
					<circle class="st0" cx="305.7" cy="133.1" r="1.6"/>
					<circle class="st0" cx="311.7" cy="133.1" r="1.6"/>
					<circle class="st0" cx="317.6" cy="133.1" r="1.6"/>
					<circle class="st0" cx="323.6" cy="133.1" r="1.6"/>
					<circle class="st0" cx="329.6" cy="133.1" r="1.6"/>
					<circle class="st0" cx="335.7" cy="133.1" r="1.6"/>
					<circle class="st0" cx="341.6" cy="133.1" r="1.6"/>
					<circle class="st0" cx="347.6" cy="133.1" r="1.6"/>
					<circle class="st0" cx="353.6" cy="133.1" r="1.6"/>
					<circle class="st0" cx="359.6" cy="133.1" r="1.6"/>
				</g>
				<g>
					<circle class="st0" cx="254.9" cy="137.1" r="1.6"/>
					<circle class="st0" cx="260.8" cy="137.1" r="1.6"/>
					<circle class="st0" cx="266.8" cy="137.1" r="1.6"/>
					<circle class="st0" cx="272.9" cy="137.1" r="1.6"/>
					<circle class="st0" cx="278.9" cy="137.1" r="1.6"/>
					<circle class="st0" cx="284.8" cy="137.1" r="1.6"/>
					<circle class="st0" cx="290.8" cy="137.1" r="1.6"/>
					<circle class="st0" cx="296.8" cy="137.1" r="1.6"/>
					<circle class="st0" cx="302.8" cy="137.1" r="1.6"/>
					<circle class="st0" cx="308.7" cy="137.1" r="1.6"/>
					<circle class="st0" cx="314.7" cy="137.1" r="1.6"/>
					<circle class="st0" cx="320.7" cy="137.1" r="1.6"/>
					<circle class="st0" cx="326.7" cy="137.1" r="1.6"/>
					<circle class="st0" cx="332.6" cy="137.1" r="1.6"/>
					<circle class="st0" cx="338.7" cy="137.1" r="1.6"/>
					<circle class="st0" cx="344.7" cy="137.1" r="1.6"/>
					<circle class="st0" cx="350.7" cy="137.1" r="1.6"/>
					<circle class="st0" cx="356.6" cy="137.1" r="1.6"/>
				</g>
			</g>
		</g>
		<g id="Arrow_7_3_">
		</g>
	</g>
	<g id="Layer_5">
	</g>
</g>
</svg>
