<?xml version="1.0" encoding="utf-8"?>
<!-- Generator: Adobe Illustrator 20.0.0, SVG Export Plug-In . SVG Version: 6.00 Build 0)  -->
<svg version="1.1" id="Layer_1" xmlns="http://www.w3.org/2000/svg" xmlns:xlink="http://www.w3.org/1999/xlink" x="0px" y="0px"
	 viewBox="0 0 612 612" style="enable-background:new 0 0 612 612;" xml:space="preserve">
<style type="text/css">
	.st0{fill:#F79562;}
	.st1{clip-path:url(#SVGID_2_);}
	.st2{fill:#FBD3B2;}
	.st3{fill:#D2B197;}
	.st4{fill:#EDC4A2;}
	.st5{fill:#414242;}
	.st6{fill:#5A595C;}
	.st7{fill:#E6E5E5;}
	.st8{fill:#FFFFFF;}
	.st9{fill:#859677;}
	.st10{fill:#98D1AC;}
	.st11{fill:#ACBA74;}
	.st12{fill:#A15743;}
	.st13{fill:#5B594D;}
	.st14{fill:#806B51;}
	.st15{fill:#47A3AC;}
	.st16{fill:#529F76;}
	.st17{fill:#C88C8E;}
	.st18{fill:#E6E6E6;}
	.st19{fill:#393939;}
	.st20{fill:#EEC7A8;}
	.st21{clip-path:url(#SVGID_4_);}
	.st22{clip-path:url(#SVGID_6_);}
	.st23{clip-path:url(#SVGID_8_);}
	.st24{clip-path:url(#SVGID_10_);}
	.st25{clip-path:url(#SVGID_12_);}
	.st26{clip-path:url(#SVGID_14_);}
	.st27{clip-path:url(#SVGID_16_);}
</style>
<g>
	<ellipse class="st0" cx="306" cy="306" rx="306" ry="306"/>
	<g>
		<g>
			<defs>
				<circle id="SVGID_1_" cx="306" cy="306" r="306"/>
			</defs>
			<clipPath id="SVGID_2_">
				<use xlink:href="#SVGID_1_"  style="overflow:visible;"/>
			</clipPath>
			<g class="st1">
				<path class="st2" d="M369.3,304.3c5.1,3.8,6,10.9,2.3,16.1L304,414.1c-3.7,5.1-11,6.1-16,2.3c-5.1-3.8-6-10.9-2.3-16.1
					l67.7-93.7C357,301.5,364.3,300.5,369.3,304.3z"/>
				<polygon class="st2" points="250.1,472.6 313.4,475.2 315.5,425.3 349.3,356 255.2,352 				"/>
				<path class="st2" d="M375.4,335.2c5.1,3.8,6,11,2.3,16.1L310,445c-3.7,5.1-11,6.1-16,2.3c-5.1-3.8-6-10.9-2.3-16.1l67.7-93.7
					C363,332.5,370.3,331.5,375.4,335.2z"/>
				<path class="st3" d="M269.2,347l-4.3,7.3c0,0,8.6,56.7,13.2,66.4c4.5,9.6,16.6,12.7,24.3,12.4c7.7-0.3,26.3-12.1,26.3-12.1
					L269.2,347z"/>
				<path class="st4" d="M370.1,258.3c5.1,3.8,6,10.9,2.3,16.1l-65.3,90.2c-3.7,5.1-11,6.1-16,2.3c-5.1-3.8-6-10.9-2.3-16.1
					l65.3-90.2C357.7,255.5,365,254.5,370.1,258.3z"/>
				<path class="st5" d="M252.7,220l61.8-16.4c12-3.2,21.9-1.7,25.1,10.3l47.8,175.6c3.2,12.1-6.1,19.3-18.1,22.4l-61.8,16.4
					c-12,3.2-22.3,1.1-25.4-10.9l-47.8-175.6C231.2,229.9,240.8,223.1,252.7,220z"/>
				<path class="st6" d="M264.9,226.4l31.9-8.4c0.9-0.2,1.8,0.3,2,1.2l0,0c0.2,0.9-0.3,1.8-1.2,2l-31.9,8.4c-0.9,0.2-1.8-0.3-2-1.2
					l0,0C263.5,227.5,264,226.6,264.9,226.4z"/>
				<path class="st6" d="M306,213.7c1.8-0.5,3.7,0.6,4.2,2.4s-0.6,3.7-2.4,4.2s-3.7-0.6-4.2-2.4S304.2,214.2,306,213.7z"/>
				<path class="st7" d="M245.1,240.7l86.1-22.8c0.2,0,0.3,0.1,0.4,0.2l45,171c0,0.2-0.1,0.3-0.2,0.4l-86.1,22.8
					c-0.2,0-0.3-0.1-0.4-0.2l-45-171C244.9,240.9,245,240.7,245.1,240.7z"/>
				<path class="st8" d="M245.1,240.7l85.3-22.6l0,0l-40.1,194.3h-0.2c-0.1,0-0.2-0.1-0.2-0.2l-45-171
					C244.9,240.9,245,240.7,245.1,240.7z"/>
				<path class="st9" d="M256.8,261.4l16-4.4c1.3-0.3,2.6,0.4,2.9,1.7l4.3,15.7c0.3,1.3-0.4,2.6-1.7,2.9l-16,4.4
					c-1.3,0.3-2.6-0.4-2.9-1.7l-4.3-15.7C254.8,263.1,255.5,261.8,256.8,261.4z"/>
				<path class="st10" d="M284.6,253.8l16-4.4c1.3-0.3,2.6,0.4,2.9,1.7l4.3,15.7c0.3,1.3-0.4,2.6-1.7,2.9l-16,4.4
					c-1.3,0.3-2.6-0.4-2.9-1.7l-4.3-15.7C282.6,255.5,283.4,254.1,284.6,253.8z"/>
				<path class="st11" d="M264.4,289.2l16-4.4c1.3-0.3,2.6,0.4,2.9,1.7l4.3,15.7c0.3,1.3-0.4,2.6-1.7,2.9l-16,4.4
					c-1.3,0.3-2.6-0.4-2.9-1.7l-4.3-15.7C262.3,290.9,263.1,289.6,264.4,289.2z"/>
				<path class="st12" d="M292.2,281.6l16-4.4c1.3-0.3,2.6,0.4,2.9,1.7l4.3,15.7c0.3,1.3-0.4,2.6-1.7,2.9l-16,4.4
					c-1.3,0.3-2.6-0.4-2.9-1.7l-4.3-15.7C290.2,283.3,290.9,282,292.2,281.6z"/>
				<path class="st13" d="M271.9,317.1l16-4.4c1.3-0.3,2.6,0.4,2.9,1.7l4.3,15.7c0.3,1.3-0.4,2.6-1.7,2.9l-16,4.4
					c-1.3,0.3-2.6-0.4-2.9-1.7l-4.3-15.7C269.9,318.8,270.7,317.4,271.9,317.1z"/>
				<path class="st12" d="M299.8,309.5l16-4.4c1.3-0.3,2.6,0.4,2.9,1.7l4.3,15.7c0.3,1.3-0.4,2.6-1.7,2.9l-16,4.4
					c-1.3,0.3-2.6-0.4-2.9-1.7l-4.3-15.7C297.8,311.1,298.5,309.8,299.8,309.5z"/>
				<path class="st14" d="M279.5,345l16-4.4c1.3-0.3,2.6,0.4,2.9,1.7l4.3,15.7c0.3,1.3-0.4,2.6-1.7,2.9l-16,4.4
					c-1.3,0.3-2.6-0.4-2.9-1.7l-4.3-15.7C277.5,346.7,278.2,345.3,279.5,345z"/>
				<path class="st12" d="M307.4,337.3l16-4.4c1.3-0.3,2.6,0.4,2.9,1.7l4.3,15.7c0.3,1.3-0.4,2.6-1.7,2.9l-16,4.4
					c-1.3,0.3-2.6-0.4-2.9-1.7l-4.3-15.7C305.3,338.9,306.1,337.6,307.4,337.3z"/>
				<path class="st15" d="M312.8,246l16-4.4c1.3-0.3,2.6,0.4,2.9,1.7L336,259c0.3,1.3-0.4,2.6-1.7,2.9l-16,4.4
					c-1.3,0.3-2.6-0.4-2.9-1.7l-4.3-15.7C310.8,247.8,311.5,246.4,312.8,246z"/>
				<path class="st16" d="M320.4,273.9l16-4.4c1.3-0.3,2.6,0.4,2.9,1.7l4.3,15.7c0.3,1.3-0.4,2.6-1.7,2.9l-16,4.4
					c-1.3,0.3-2.6-0.4-2.9-1.7l-4.3-15.7C318.3,275.6,319.1,274.3,320.4,273.9z"/>
				<path class="st17" d="M327.9,301.8l16-4.4c1.3-0.3,2.6,0.4,2.9,1.7l4.3,15.7c0.3,1.3-0.4,2.6-1.7,2.9l-16,4.4
					c-1.3,0.3-2.6-0.4-2.9-1.7l-4.3-15.7C325.9,303.4,326.7,302.1,327.9,301.8z"/>
				<path class="st11" d="M335.5,329.6l16-4.4c1.3-0.3,2.6,0.4,2.9,1.7l4.3,15.7c0.3,1.3-0.4,2.6-1.7,2.9l-16,4.4
					c-1.3,0.3-2.6-0.4-2.9-1.7l-4.3-15.7C333.5,331.3,334.2,329.9,335.5,329.6z"/>
				<path class="st4" d="M376.6,294.5c5.1,3.8,6.1,11,2.3,16.1L368,325.2c-3.7,5.1-11,6.1-16,2.3c-5.1-3.8-6.1-11-2.3-16.1
					l10.9-14.7C364.3,291.6,371.6,290.6,376.6,294.5z"/>
				<path class="st6" d="M334.4,404.9c2.9-0.8,5.9,1,6.7,3.9s-1,6-3.9,6.8c-2.9,0.8-5.9-1-6.7-3.9S331.4,405.7,334.4,404.9z"/>
				<path class="st2" d="M258.9,433.8l8.1,0.3l-0.5-10l-2.7-91.9c-0.8-16.9-22.1-31.8-22.6-20.1l3.3,106.6
					C245,426.7,251.4,433.5,258.9,433.8z"/>
				<path class="st4" d="M382.4,327.6c5.1,3.8,6.1,11,2.3,16.1L372,361c-3.7,5.1-11,6.1-16,2.3c-5.1-3.8-6.1-11-2.3-16.1l12.8-17.3
					C370.1,324.9,377.3,323.9,382.4,327.6z"/>
				<polygon class="st8" points="236.5,488.6 240.2,450.8 321,454 319.7,490.6 				"/>
				<polygon class="st18" points="321,454 278.3,452.3 276.4,485.4 319.9,487 				"/>
				<polygon class="st5" points="227.4,473.4 219.8,619.6 322.3,619.6 327.2,473.4 				"/>
				<polygon class="st19" points="276.9,473.4 271,619.6 325,619.6 327.2,473.4 				"/>
				<g>
					<path class="st8" d="M304.9,270.1c-13.4,0-24.3,10.9-24.3,24.4c0,13.5,10.9,24.4,24.3,24.4s24.3-10.9,24.3-24.4
						C329.2,281.1,318.3,270.1,304.9,270.1z M304.9,318.3c-13,0-23.6-10.6-23.6-23.7c0-13.1,10.6-23.7,23.6-23.7
						s23.6,10.6,23.6,23.7C328.4,307.6,317.9,318.3,304.9,318.3z"/>
					<path class="st8" d="M304.9,244.2c-27.6,0-50.1,22.6-50.1,50.3c0,27.7,22.5,50.3,50.1,50.3s50.1-22.6,50.1-50.3
						C355,266.8,332.5,244.2,304.9,244.2z M304.9,344.1c-27.2,0-49.3-22.2-49.3-49.5s22.1-49.5,49.3-49.5s49.3,22.2,49.3,49.5
						C354.2,321.9,332.1,344.1,304.9,344.1z"/>
					<path class="st8" d="M304.9,248.7c-25.2,0-45.7,20.6-45.7,45.9s20.5,45.9,45.7,45.9s45.7-20.6,45.7-45.9
						S330.1,248.7,304.9,248.7z M304.9,339.7c-24.8,0-45-20.3-45-45.2s20.2-45.2,45-45.2s45,20.3,45,45.2S329.7,339.7,304.9,339.7z"
						/>
					<path class="st8" d="M304.9,223.2c-39.2,0-71,32-71,71.3c0,39.4,31.9,71.3,71,71.3c39.2,0,71-32,71-71.3
						S344.1,223.2,304.9,223.2z M304.9,365.2c-38.7,0-70.3-31.6-70.3-70.6c0-38.9,31.5-70.6,70.3-70.6c38.7,0,70.3,31.6,70.3,70.6
						C375.1,333.5,343.6,365.2,304.9,365.2z"/>
					<path class="st8" d="M382.7,294.6c0-2-0.1-3.9-0.2-5.9l77-3.3v-0.8l-77,3.3c-0.9-10.9-4.2-21.7-9.5-31.3
						c5.9-3.7,75.9-47.5,77.8-48.8l-0.4-0.6c-1.9,1.3-72.4,45.4-77.8,48.8c-12.9-22.6-36.1-37.3-61.7-39.3l7.2-47.1l-0.8-0.1
						l-7.3,47.2c-1.7-0.1-3.4-0.2-5.2-0.2c-18,0-34.7,6.2-48,16.7l-44.7-41.6l-0.4,0.4l44.8,41.5c-15.4,12.4-26.2,30.4-28.8,51.3
						l-71.5-18.9l-0.2,1l71.6,19c-0.3,2.9-0.5,5.9-0.5,8.7c0,16.3,5,31.3,13.4,43.8l-54.3,47l0.5,0.6l54.3-47
						c14.1,20.3,37.5,33.6,63.9,33.6c33.9,0,62.8-21.9,73.4-52.3l74.9,36.4l0.3-0.7l-75-36.4C381.2,311.7,382.7,303.3,382.7,294.6z
						 M304.9,371.9c-42.5,0-77-34.6-77-77.3c0-3.1,0.2-6.2,0.6-9.2l0,0l0,0c4.6-38.8,37.5-68.1,76.5-68.1
						c27.8,0,53.5,15.1,67.1,39.4c6.5,11.5,9.9,24.6,9.9,38C381.9,337.2,347.4,371.9,304.9,371.9z"/>
				</g>
				<g>
					<path class="st20" d="M292,361.9c5.2,8.6,42.3,78.1,58.5,70c16.1-8-24-53.4-29.6-60.2C308.2,353.1,297.8,355.8,292,361.9z"/>
					<path class="st2" d="M366.6,468.1l62.4-22l-9.1-24.9c3-22.1-6.3-51.8-16-74.9l-3.7-10.4c-5.2-14.9-26.6-10.3-19.9,7.6l1.8,4.9
						l-0.9,0.1l-4.2-11.7c-5.2-14.9-26.6-10.3-19.9,7.6l2.3,6.2l-0.7,0.1l-4.3-12.1c-5.2-14.9-26.6-10.3-19.9,7.6l2.4,6.5l-0.7,0.1
						l-6.8-19.5L315.2,293c-5.1-15-29.2-9.4-22.5,8.5L337,423.2c2.9,7.6,10.8,12.1,20.8,19.7C358,443.1,366.6,468.1,366.6,468.1z"/>
				</g>
				<polygon class="st8" points="367.3,496.1 351.6,457.9 429.5,432.8 443.3,471.3 				"/>
				<polygon class="st18" points="385.6,447 351.6,457.9 365.9,492.8 401.1,483.2 				"/>
				<polygon class="st19" points="353.1,476.3 410.3,619.6 512.7,619.6 441.8,447.6 				"/>
				<polygon class="st5" points="392.4,463.6 461.5,619.6 512.7,619.6 441.8,447.6 				"/>
			</g>
		</g>
		<g>
			<defs>
				<circle id="SVGID_3_" cx="306" cy="306" r="306"/>
			</defs>
			<clipPath id="SVGID_4_">
				<use xlink:href="#SVGID_3_"  style="overflow:visible;"/>
			</clipPath>
			<g class="st21">
				<path class="st8" d="M196.2,183.2c-2.6,4.2-5.8,7.3-9.8,9.5c-6.7,3.7-5.1,4-11.6-0.3c-16.9-11.3-20.2-35.1-7.1-50.8
					c0.2-0.3,0.5-0.5,0.9-1c0.2,1.6,0.4,3,0.6,4.4c0.7,4.6,2.4,8.7,5.1,12.6c0.8,1.2,0.9,2.2,0.8,3.6c-1.6,12.2,7.5,22.3,19.7,22.1
					C195.2,183.2,195.5,183.2,196.2,183.2z"/>
				<path class="st8" d="M187,197.5c2.4-1.8,5-3.5,7.4-5.4c3-2.5,5.1-5.6,6.6-9.2c0.2-0.5,0.7-1.2,1.2-1.4
					c10.1-4.6,14.8-17.8,8.1-28.1c-0.1-0.1-0.1-0.2-0.3-0.7c2.3,0.2,4.5,0,6.6,0.5c3.5,0.9,6.9,2.2,10.3,3.4
					c0.6,0.2,1.2,1.2,1.3,1.9c3.1,19.4-10.2,37.3-29.6,39.9C194.8,198.7,189.2,198.4,187,197.5z"/>
				<path class="st8" d="M226.3,151.6c-5-2.3-9.9-4-15.1-3.9c-3.7,0.1-7.1-0.6-10.6-2c-8.2-3.3-17-0.3-22.2,6.9
					c-0.2,0.3-0.4,0.6-0.8,1.2c-0.7-1.4-1.5-2.6-2-3.8c-1.7-4-2.3-8.3-2.1-12.7c0-0.7,0.5-1.5,1-1.9c18.3-12.9,43.4-5.1,51.6,15.4
					C226.2,151,226.2,151.2,226.3,151.6z"/>
				<path class="st8" d="M194.2,150c7.6,0,13.8,6.1,13.9,13.8c0,7.6-6.3,14-13.9,14c-7.6,0-14-6.4-13.9-14
					C180.4,156.2,186.6,150,194.2,150z"/>
			</g>
		</g>
		<g>
			<defs>
				<circle id="SVGID_5_" cx="306" cy="306" r="306"/>
			</defs>
			<clipPath id="SVGID_6_">
				<use xlink:href="#SVGID_5_"  style="overflow:visible;"/>
			</clipPath>
			<g class="st22">
				<path class="st8" d="M519.7,274.4c0,13.9-8.7,26-21.8,30.5c-18.3,6.3-38.2-5.3-41.8-24.3c-2.9-15.2,5.1-30,19.2-36.1
					c1-0.4,2-0.7,2.9-1.1c0.2-0.1,0.5-0.3,0.5-0.5s-0.2-0.5-0.4-0.6c-2-1-2.8-2.6-2.4-4.5c0.4-1.8,2.2-3,4.4-3c1.9,0,3.6,1.4,4,3.2
					c0.2,1,0,2-0.7,2.9c-0.3,0.3-0.3,0.6,0,0.9c0.2,0.2,0.5,0.3,0.7,0.3c3.8-0.3,7.6-0.1,11.2,0.9c10.4,2.8,17.7,9.2,21.9,19.3
					C519.1,266.3,519.7,270.1,519.7,274.4z M487.7,301.6c14.9,0,27-12.3,27-27.2s-12.2-27.1-27.1-27.1s-26.9,12.2-26.9,27.1
					C460.6,289.3,472.8,301.6,487.7,301.6z M482.6,240.8c0.9-1.2,1-2.4,0.3-3.5c-0.8-1.2-2.4-1.7-3.8-1.2c-1.3,0.4-2.2,1.5-2.2,2.8
					c0,1.3,0.8,2.4,2.2,2.8C480,240.4,481.2,240.2,482.6,240.8z"/>
				<path class="st8" d="M508.3,287c-0.6-0.4-1-0.7-1.5-0.9c-0.2-0.1-0.5-0.1-0.8-0.1c0.1,0.2,0.2,0.6,0.4,0.7c0.4,0.4,1,0.6,1.5,1
					c-3.5,5.2-8.3,8.6-14.4,10.2c-0.2-0.7-0.3-1.4-0.5-2c-0.1-0.2-0.3-0.4-0.5-0.6c-0.1,0.3-0.3,0.5-0.3,0.8c0.1,0.6,0.3,1.3,0.4,2
					c-6.2,1.2-12,0.2-17.5-3c0.5-0.7,0.9-1.4,1.3-2.1c0.1-0.2,0-0.5,0-0.8c-0.2,0.1-0.5,0.1-0.7,0.3c-0.5,0.6-0.9,1.3-1.3,2
					c-5.3-3.6-8.7-8.4-10.2-14.7c0.7-0.2,1.4-0.3,2-0.5c0.2-0.1,0.4-0.4,0.6-0.6c-0.2-0.1-0.5-0.3-0.7-0.2c-0.7,0.1-1.3,0.3-2.1,0.4
					c-1.1-6.3-0.1-12.2,3.2-17.7c0.6,0.4,1.2,0.8,1.8,1.1c0.2,0.1,0.5,0,0.8,0c-0.1-0.3-0.2-0.6-0.4-0.7c-0.5-0.4-1.1-0.7-1.7-1.1
					c3.7-5.2,8.5-8.5,14.7-10c0.2,0.7,0.3,1.4,0.5,2c0.1,0.2,0.4,0.4,0.6,0.6c0.1-0.2,0.3-0.5,0.2-0.7c-0.1-0.6-0.3-1.3-0.4-1.9
					c4.6-1.4,13.6,0.2,17.3,3.2c-0.4,0.6-0.8,1.2-1.1,1.8c-0.1,0.2,0,0.5,0.1,0.7c0.2-0.1,0.5-0.2,0.6-0.3c0.4-0.6,0.8-1.2,1.2-1.8
					c5.1,3.6,8.4,8.4,10,14.5c-0.6,0.1-1.2,0.2-1.7,0.4c-0.2,0.1-0.4,0.4-0.5,0.5c0.2,0.1,0.5,0.3,0.7,0.3c0.5-0.1,1.1-0.2,1.7-0.4
					C512.5,275.8,511.5,281.6,508.3,287z M473.6,291.3l0.1,0.1c0.1-0.1,0.3-0.2,0.4-0.4c5.1-4.8,10.2-9.6,15.4-14.5
					c0.2-0.2,0.4-0.4,0.5-0.7c3.7-6.2,7.4-12.5,11.2-18.6c0.1-0.1,0.1-0.3,0.2-0.6c-5.5,5.1-10.8,10.1-16.2,15.3
					c-0.2,0.2-0.4,0.4-0.5,0.7c-2.9,4.8-5.7,9.5-8.6,14.4C475.3,288.5,474.5,289.9,473.6,291.3z M485.9,281.3c0,0.1,0,0.2,0,0.3
					c0.3,0,0.6,0.1,0.8,0.1c0.6,0,1,0.3,1.2,0.9c0.7,1.7,1.5,3.4,2.2,5c0.3,0.6,0.6,1.3,0.9,1.9c0.1-0.2,0.2-0.3,0.2-0.5
					c0-2.3,0.1-4.6,0.1-7c0-0.9,0.1-1.6,0.9-2c0.3-0.1,0.5-0.4,0.7-0.6c0.3-0.4,0.6-0.4,1-0.2c1.1,0.5,2.3,0.9,3.4,1.3
					c-0.6-0.8-1.3-1.6-2-2.2c-0.7-0.6-1.1-1.2-0.6-2.2c0.1-0.3,0.2-0.6,0.2-0.9c0-0.5,0.3-0.7,0.7-0.9c2.3-1,4.5-2,6.8-3
					c0.1-0.1,0.3-0.2,0.4-0.2c0-0.1,0-0.1,0-0.2c-2.7,0-5.3,0-8,0c-0.9,0-1.2,0.3-0.9,1.2c1.7,4.7-2,9.5-7,9
					C486.6,281.1,486.2,281.2,485.9,281.3z M472.3,277.2c0,0.1,0,0.1,0,0.2c2.6,0,5.3,0,7.9,0c0.7,0,1.1-0.4,0.9-1.2
					c-0.1-0.5-0.2-0.9-0.2-1.4c-0.2-4,2.9-7.1,7-7c0.5,0,1,0,1.3-0.6c-0.8,0.1-0.9-0.4-1.2-0.9c-1-2.2-2-4.4-3.1-6.6
					c-0.1-0.2-0.2-0.4-0.4-0.8c0,2.7,0,5.1,0,7.6c0,0.8-0.1,1.4-1,1.7c-0.3,0.1-0.6,0.4-0.9,0.7c-0.3,0.3-0.6,0.3-1,0.2
					c-1.2-0.5-2.4-0.9-3.5-1.3c0.8,1,1.6,1.8,2.5,2.7c0.3,0.3,0.4,0.5,0.2,0.9c-0.2,0.5-0.4,1-0.5,1.6c-0.1,0.5-0.3,0.7-0.8,0.9
					C477.2,274.9,474.8,276.1,472.3,277.2z"/>
				<path class="st8" d="M487.7,276.5c-1.2,0-2.1-0.9-2.1-2.1c0-1.1,0.9-2.1,2.1-2.1c1.1,0,2.1,1,2.1,2.1
					C489.8,275.5,488.8,276.5,487.7,276.5z"/>
			</g>
		</g>
		<g>
			<defs>
				<circle id="SVGID_7_" cx="306" cy="306" r="306"/>
			</defs>
			<clipPath id="SVGID_8_">
				<use xlink:href="#SVGID_7_"  style="overflow:visible;"/>
			</clipPath>
			<g class="st23">
				<path class="st8" d="M288.3,142.7c-0.1,0.2-0.2,0.4-0.3,0.7c-0.1,0-0.1,0-0.2,0c0.3-3,0.6-6,0.9-9.2c-0.3,0.4-0.5,0.7-0.8,1
					c-0.1,0-0.1,0-0.2,0c0.4-1.3,0.6-2.6,1.1-3.8c0.8-1.9,1.8-3.8,2.7-5.7c0.2-0.5,0.3-1,0.3-1.5c0-2,0-4,0.6-6
					c0.5-1.5,1.3-2.9,2.5-4.2c0.3,0.9,0.6,1.7,1,2.5c0.5,1.2,1.4,2.2,2.5,3c0.3,0.2,0.8,0.3,1.1,0.2c2.3-0.5,4.5-0.5,6.7,0
					c0.6,0.1,1,0,1.4-0.3c1.5-1.2,3.1-2.4,5-2.9c0.8-0.2,1.6-0.4,2.4-0.5c-0.9,1.1-1.8,2.2-2.6,3.3c-0.4,0.6-0.6,1.4-1,2
					c-0.4,0.8-0.2,1.4,0.3,2c0.9,1.2,2.1,2,3.8,1.9c1.4,0,2.8,0,4.2,0.1c0.9,0.1,1.2,0.7,0.9,1.5c-0.3,1-0.9,1.9-1.9,2.5
					c-1.5,0.9-3,1.9-4.5,2.8c-0.7,0.4-0.9,0.9-0.8,1.7c0.1,0.9,0,1.8-0.1,2.7c0,0.5-0.3,0.5-0.8,0.3c-0.6-0.2-1.2-0.6-1.8-0.5
					c-1.4,0.1-2.2,1.2-2,2.7c0.4,2.8,3.1,5.3,6.1,5.7c2.1,0.3,4.1-0.4,6.1-0.9c1.1-0.3,2.3-0.6,3.5-0.6c1.8,0,3.2,0.8,4.2,2.2
					c0.5,0.7,0.4,1.1-0.5,1.2c-1.4,0.1-2.7,0.6-3.8,1.4c-3.2,2.5-6.9,3.4-10.9,3.1c-0.2,0-0.5,0-1,0c0.3,0.3,0.5,0.5,0.7,0.7
					c3.3,2.6,6.9,4.3,11.1,4.9c4.4,0.7,8.5-0.1,11.8-3.3c2.1-2.1,3.3-4.6,4.1-7.4c0.2-0.7,0.3-1.4,0.5-2.2c0.2,0.5,0.4,0.9,0.7,1.3
					c0.1,0,0.2,0,0.2,0c1.4-4.1,1.4-8.4,0.7-12.8c0.1,0,0.1,0,0.2-0.1c0.6,0.8,1.2,1.5,1.8,2.3c0.1,0,0.2-0.1,0.3-0.1
					c0-2.9-0.4-5.8-1.3-8.6c-0.9-2.9-2.6-5.3-4.7-7.5c0-0.1,0.1-0.1,0.1-0.2c1.8,1,3.5,2,5.4,3.1c-0.6-1.7-3.8-6-8-9.2
					c2.1,0.4,6.4,3,9,5.3c2.6,2.4,4.5,5.4,6.4,8.3c0.1,0,0.1,0,0.2-0.1c0-0.7,0-1.5,0-2.2c0.1,0,0.2,0,0.2,0
					c2.8,3.1,2.3,6.9,2.2,10.8c1.1-0.6,1.2-1.7,1.7-2.8c0.2,1.4,0.5,2.6,0.6,3.9c0.1,2.5,0.2,4.9,0,7.4c-0.3,4-1.6,7.7-3.5,11.2
					c-4.7,8.5-12,14-21.5,16.4c-5.5,1.4-11.1,1.4-16.6,0.1c-6-1.5-11.3-4.3-15.9-8.2c-5.6-4.7-8.4-10.8-9.7-17.8
					c-0.1-0.7-0.3-1.5-0.5-2.2C288.4,142.7,288.4,142.7,288.3,142.7z"/>
			</g>
		</g>
		<g>
			<defs>
				<circle id="SVGID_9_" cx="306" cy="306" r="306"/>
			</defs>
			<clipPath id="SVGID_10_">
				<use xlink:href="#SVGID_9_"  style="overflow:visible;"/>
			</clipPath>
			<g class="st24">
				<path class="st8" d="M483.3,184.7c-13.3,0-26.5,0-39.9,0c0.3,1.1,0.5,2,0.9,3c1.7,4.3,4.6,7.3,9.2,8.4
					c5.1,1.2,10.2-0.9,13.2-5.3c0.7-1.1,1.4-1.5,2.7-1.4c4,0.1,8.1,0,12.1,0c0.2,0,0.5,0,0.9,0c-0.5,1.2-0.9,2.3-1.4,3.4
					c-4.3,8.6-11.1,13.8-20.6,15.4c-4.5,0.7-8.9,0.3-13.2-1.3c-0.4-0.1-0.7-0.1-1,0.1c-3.3,1.7-6.8,3.1-10.5,3.7
					c-2.4,0.4-4.9,0.5-7.2-0.2c-3.5-1-5.8-4-6.2-7.6c-0.4-4.2,0.6-8.2,2.2-12.2c2.4-5.9,5.8-11.2,9.9-16.1c2.2-2.6,4.7-5,7-7.5
					c0.2-0.2,0.4-0.4,0.6-0.6c-4.6,2.4-8.6,5.6-12.4,9.3c0.4-2.4,1.1-4.5,2.1-6.5c4.1-8.2,10.7-13.4,19.7-15.2
					c2.8-0.6,5.7-0.6,8.6-0.2c0.3,0,0.7,0,1-0.2c3.1-1.3,6.4-2.3,9.8-2.4c2.5-0.1,4.8,0.3,6.9,1.7c2.3,1.6,3.4,3.9,3.7,6.6
					c0.3,2.7-0.2,5.3-0.8,7.9c-0.1,0.3,0,0.8,0.1,1.1c1.9,3.8,2.9,7.9,2.9,12.2C483.6,182.2,483.4,183.4,483.3,184.7z M468.5,177.5
					c-1.3-4.7-6.1-9.7-12.9-9.4c-5.1,0.2-10.9,5-11.4,9.4C452.3,177.5,460.4,177.5,468.5,177.5z M444.1,205.6
					c-6.7-3.5-11.2-8.8-13.7-16.1c-0.1,0.2-0.2,0.2-0.2,0.3c-1.6,3.2-2.9,6.4-3.3,10c-0.2,1.8-0.1,3.7,0.8,5.3
					c1.3,2.3,3.5,3.1,6,3.2C437.4,208.4,440.7,207.1,444.1,205.6z M478.7,165.4c0.3-1,0.4-2.5,0.1-4c-0.4-2.6-1.8-4.4-4.3-5.1
					c-2.1-0.6-4.2-0.4-6.4,0.1C472.5,158.5,475.9,161.5,478.7,165.4z"/>
			</g>
		</g>
		<g>
			<defs>
				<circle id="SVGID_11_" cx="306" cy="306" r="306"/>
			</defs>
			<clipPath id="SVGID_12_">
				<use xlink:href="#SVGID_11_"  style="overflow:visible;"/>
			</clipPath>
			<g class="st25">
				<path class="st8" d="M501.1,377.1c-2.3,6.5-5.6,12.2-10.7,16.7c-2.7,2.4-5.9,2.6-9.3,1.5c-2.3-0.8-4.7-1.6-7.1-2
					c-3.1-0.5-6,0.6-8.8,1.7c-5.3,2-8.4,1.3-12.1-2.9c-2.4-2.8-4.7-5.9-6.5-9.1c-3.3-5.8-5.1-12.2-5.2-18.8
					c-0.2-6.9,1.6-13.2,7-17.9c5-4.3,10.8-5.6,16.9-3c4.4,1.9,8.4,1.8,12.8,0c6.3-2.6,12.5-1.7,18.1,2.4c1.2,0.9,2.3,1.8,3.6,2.8
					c-6,3.7-8.9,8.5-8.5,15C491.7,369.9,495.3,374.2,501.1,377.1z"/>
				<path class="st8" d="M485.9,325c1.9,7.1-6.8,17.3-14.3,16.6C469.8,334.4,477.9,325.1,485.9,325z"/>
			</g>
		</g>
		<g>
			<defs>
				<circle id="SVGID_13_" cx="306" cy="306" r="306"/>
			</defs>
			<clipPath id="SVGID_14_">
				<use xlink:href="#SVGID_13_"  style="overflow:visible;"/>
			</clipPath>
			<g class="st26">
				<path class="st8" d="M187.5,383.9h-39.2c-0.9,0-1.7,0.8-1.7,1.7v26.7c0,4.5,3.3,8.3,6.5,10v9.2c0,2.6,2.1,4.5,4.9,4.5
					c2.8,0,4.9-1.9,4.9-4.5v-8.3h9.8v8.3c0,2.6,2.1,4.5,4.9,4.5c2.8,0,4.9-1.9,4.9-4.5v-9.3c3.3-1.7,6.5-5.5,6.5-10v-26.7
					C189.1,384.6,188.4,383.9,187.5,383.9z"/>
				<path class="st8" d="M148.3,380.1c0.3,0.3,0.8,0.5,1.2,0.5H186c0.5,0,0.9-0.2,1.2-0.5c0.3-0.3,0.5-0.8,0.4-1.3
					c-0.7-5.5-3-9.8-6.6-12.7l2.5-3.2c0.6-0.7,0.4-1.7-0.3-2.3c-0.7-0.6-1.7-0.4-2.3,0.3l-2.6,3.5c-2.9-1.5-6.4-2.3-10.5-2.3
					c-4.3,0-8,0.9-11.1,2.6l-2.9-3.7c-0.5-0.7-1.6-0.8-2.3-0.3s-0.8,1.6-0.3,2.3l2.7,3.6c-3.4,2.8-5.5,7-6.1,12.3
					C147.9,379.3,148,379.7,148.3,380.1z"/>
				<path class="st8" d="M197.2,383.9c-2.7,0-4.9,2.2-4.9,4.9v16.4c0,2.7,2.2,4.9,4.9,4.9s4.9-2.2,4.9-4.9v-16.4
					C202.1,386.1,199.9,383.9,197.2,383.9z"/>
				<path class="st8" d="M138.5,383.9c-2.7,0-4.9,2.2-4.9,4.9v16.4c0,2.7,2.2,4.9,4.9,4.9s4.9-2.2,4.9-4.9v-16.4
					C143.4,386.1,141.2,383.9,138.5,383.9z"/>
			</g>
		</g>
		<g>
			<defs>
				<circle id="SVGID_15_" cx="306" cy="306" r="306"/>
			</defs>
			<clipPath id="SVGID_16_">
				<use xlink:href="#SVGID_15_"  style="overflow:visible;"/>
			</clipPath>
			<g class="st27">
				<path class="st8" d="M124.8,257.3c12,0.1,23.9,0.3,35.8,0.4c0,10.6,0,21.2,0,31.8c-0.5-0.1-1-0.2-1.5-0.3
					c-3.2-0.6-6.4-1.3-9.6-1.9c-3.1-0.6-6.2-1.2-9.3-1.8c-2.7-0.5-5.5-1.1-8.2-1.6c-2-0.4-3.9-0.8-5.9-1.2c-0.4-0.1-0.8-0.2-1.2-0.2
					c-0.2,0-0.2-0.1-0.2-0.2s0-0.1,0-0.2c0-8.1,0-16.3,0-24.4C124.8,257.5,124.8,257.4,124.8,257.3z"/>
				<path class="st8" d="M160.6,222c0,10.6,0,21.2,0,31.8c-11.9,0.1-23.9,0.3-35.8,0.4c0-0.1,0-0.2,0-0.3c0-8.1,0-16.4,0-24.5
					c0-0.2,0.1-0.3,0.3-0.4c3-0.6,6-1.2,9-1.8c3.5-0.7,7.1-1.4,10.6-2.1c3.6-0.7,7.1-1.4,10.7-2.1
					C157.1,222.7,158.8,222.3,160.6,222C160.5,222,160.6,222,160.6,222z"/>
				<path class="st8" d="M121.8,257.2c0,8.2,0,16.4,0,24.6c-7.5-1.5-14.9-3-22.4-4.4c0-6.8,0-13.6,0-20.4
					C106.9,257.1,114.3,257.2,121.8,257.2z"/>
				<path class="st8" d="M121.8,254.4c-7.5,0.1-14.9,0.2-22.4,0.3c0-6.8,0-13.6,0-20.4c7.4-1.5,14.9-3,22.4-4.4
					C121.8,238,121.8,246.1,121.8,254.4z"/>
			</g>
		</g>
	</g>
	<g>
		<path class="st8" d="M65,339.6l-4.1-16.3h2.2l1.9,8.2c0.5,2,0.9,4,1.2,5.6l0,0c0.3-1.6,0.8-3.5,1.3-5.6l2.2-8.2H72l2,8.2
			c0.5,1.9,0.9,3.8,1.1,5.5l0,0c0.3-1.8,0.8-3.6,1.3-5.6l2.1-8.2h2.1L76,339.5h-2.2l-2-8.4c-0.5-2.1-0.8-3.6-1.1-5.3l0,0
			c-0.3,1.6-0.6,3.2-1.2,5.3l-2.3,8.4H65V339.6z"/>
		<path class="st8" d="M84.6,324.7c0,0.7-0.5,1.3-1.3,1.3c-0.7,0-1.3-0.6-1.3-1.3c0-0.7,0.6-1.3,1.3-1.3
			C84.1,323.4,84.6,324,84.6,324.7z M82.2,339.6V328h2.1v11.6H82.2z"/>
		<path class="st8" d="M87.9,331.1c0-1.2,0-2.2-0.1-3.1h1.9l0.1,1.9l0,0c0.6-1.1,1.9-2.2,3.8-2.2c1.6,0,4.1,1,4.1,4.9v6.9h-2.1v-6.7
			c0-1.9-0.7-3.4-2.7-3.4c-1.4,0-2.5,1-2.8,2.2c-0.1,0.3-0.1,0.6-0.1,1v7h-2.1C87.9,339.6,87.9,331.1,87.9,331.1z"/>
		<path class="st8" d="M111.2,322.5v14.1c0,1,0,2.2,0.1,3h-1.9l-0.1-2l0,0c-0.6,1.3-2.1,2.3-4,2.3c-2.8,0-5-2.4-5-5.9
			c0-3.9,2.4-6.2,5.2-6.2c1.8,0,3,0.8,3.5,1.8l0,0v-6.9h2.2V322.5z M109.1,332.7c0-0.3,0-0.6-0.1-0.9c-0.3-1.3-1.5-2.4-3-2.4
			c-2.2,0-3.5,1.9-3.5,4.5c0,2.4,1.2,4.3,3.4,4.3c1.4,0,2.7-0.9,3.1-2.5c0.1-0.3,0.1-0.6,0.1-0.9V332.7z"/>
		<path class="st8" d="M125.2,333.7c0,4.3-3,6.2-5.8,6.2c-3.1,0-5.6-2.3-5.6-6c0-3.9,2.5-6.2,5.8-6.2
			C123,327.7,125.2,330.1,125.2,333.7z M116,333.8c0,2.5,1.5,4.5,3.5,4.5s3.5-1.9,3.5-4.5c0-2-1-4.5-3.5-4.5
			C117.1,329.3,116,331.6,116,333.8z"/>
		<path class="st8" d="M128.6,328l1.5,5.9c0.3,1.3,0.6,2.5,0.9,3.7h0.1c0.3-1.2,0.6-2.4,1-3.7l1.9-5.9h1.8l1.8,5.8
			c0.4,1.4,0.8,2.6,1,3.8h0.1c0.2-1.2,0.5-2.4,0.9-3.8l1.7-5.8h2.1l-3.7,11.6h-1.9l-1.8-5.5c-0.4-1.3-0.7-2.4-1-3.8l0,0
			c-0.3,1.4-0.6,2.6-1.1,3.8l-1.9,5.5h-1.9l-3.5-11.6H128.6z"/>
		<path class="st8" d="M145,337.4c0.6,0.4,1.7,0.8,2.8,0.8c1.5,0,2.3-0.8,2.3-1.7c0-1-0.6-1.6-2.2-2.1c-2.1-0.7-3.1-1.9-3.1-3.3
			c0-1.9,1.5-3.4,4-3.4c1.2,0,2.2,0.3,2.9,0.7l-0.5,1.5c-0.5-0.3-1.3-0.7-2.4-0.7c-1.2,0-1.9,0.7-1.9,1.6c0,1,0.7,1.4,2.2,2
			c2,0.8,3,1.8,3,3.5c0,2-1.6,3.5-4.3,3.5c-1.3,0-2.4-0.3-3.3-0.8L145,337.4z"/>
	</g>
	<path class="st8" d="M277.4,59.2c1.3-0.2,2.8-0.3,4.4-0.3c3,0,5.1,0.7,6.6,2c1.4,1.3,2.3,3.2,2.3,5.8s-0.8,4.8-2.3,6.3
		s-4,2.3-7.2,2.3c-1.5,0-2.7-0.1-3.8-0.2V59.2z M279.5,73.6c0.5,0.1,1.3,0.1,2.1,0.1c4.5,0,6.9-2.5,6.9-6.9c0-3.8-2.1-6.2-6.6-6.2
		c-1.1,0-1.9,0.1-2.4,0.2V73.6z"/>
	<path class="st8" d="M294.6,69.8c0,2.9,1.9,4,4,4c1.5,0,2.4-0.3,3.2-0.6l0.4,1.5c-0.7,0.3-2,0.7-3.9,0.7c-3.6,0-5.7-2.4-5.7-5.9
		c0-3.5,2.1-6.3,5.4-6.3c3.8,0,4.8,3.3,4.8,5.5c0,0.4,0,0.8-0.1,1h-8.1V69.8z M300.7,68.3c0-1.3-0.6-3.4-2.9-3.4
		c-2.1,0-3.1,2-3.2,3.4H300.7z"/>
	<path class="st8" d="M305.1,73c0.6,0.4,1.7,0.8,2.8,0.8c1.5,0,2.3-0.8,2.3-1.7c0-1-0.6-1.6-2.2-2.1c-2.1-0.7-3.1-1.9-3.1-3.3
		c0-1.9,1.5-3.4,4-3.4c1.2,0,2.2,0.3,2.9,0.7l-0.5,1.5c-0.5-0.3-1.3-0.7-2.4-0.7c-1.2,0-1.9,0.7-1.9,1.6c0,1,0.7,1.4,2.2,2
		c2,0.8,3,1.8,3,3.5c0,2-1.6,3.5-4.3,3.5c-1.3,0-2.4-0.3-3.3-0.8L305.1,73z"/>
	<path class="st8" d="M317,68.9L317,68.9c0.3-0.4,0.7-0.9,1.1-1.3l3.4-4h2.5l-4.5,4.8l5.1,6.8H322l-4-5.6l-1.1,1.2v4.4h-2.1V58.1
		h2.1v10.7H317z"/>
	<path class="st8" d="M328.7,60.3v3.3h3v1.6h-3v6.3c0,1.4,0.4,2.3,1.6,2.3c0.6,0,1-0.1,1.2-0.1l0.1,1.6c-0.4,0.2-1.1,0.3-1.9,0.3
		c-1,0-1.8-0.3-2.3-0.9c-0.6-0.6-0.8-1.7-0.8-3v-6.3h-1.8v-1.6h1.8V61L328.7,60.3z"/>
	<path class="st8" d="M344.5,69.3c0,4.3-3,6.2-5.8,6.2c-3.1,0-5.6-2.3-5.6-6c0-3.9,2.5-6.2,5.8-6.2
		C342.2,63.3,344.5,65.8,344.5,69.3z M335.3,69.4c0,2.5,1.5,4.5,3.5,4.5s3.5-1.9,3.5-4.5c0-2-1-4.5-3.5-4.5S335.3,67.2,335.3,69.4z"
		/>
	<path class="st8" d="M347.1,67.4c0-1.5,0-2.7-0.1-3.8h1.9l0.1,2l0,0c0.9-1.4,2.2-2.3,4.1-2.3c2.8,0,4.9,2.4,4.9,5.9
		c0,4.2-2.5,6.2-5.3,6.2c-1.5,0-2.9-0.7-3.6-1.8l0,0v6.3H347V67.4H347.1z M349.2,70.5c0,0.3,0,0.6,0.1,0.9c0.4,1.5,1.7,2.5,3.2,2.5
		c2.2,0,3.5-1.8,3.5-4.5c0-2.3-1.2-4.3-3.5-4.3c-1.4,0-2.8,1-3.2,2.6c-0.1,0.3-0.1,0.6-0.1,0.9V70.5z"/>
	<path class="st8" d="M526.4,315.3c0,0.7-0.5,1.3-1.3,1.3c-0.7,0-1.3-0.6-1.3-1.3c0-0.7,0.6-1.3,1.3-1.3
		C525.9,313.9,526.4,314.5,526.4,315.3z M524,330.2v-11.6h2.1v11.6H524z"/>
	<path class="st8" d="M543.6,322c0,5.6-3.4,8.5-7.5,8.5c-4.3,0-7.3-3.3-7.3-8.2c0-5.1,3.2-8.5,7.5-8.5
		C540.7,313.7,543.6,317.1,543.6,322z M531,322.2c0,3.5,1.9,6.6,5.2,6.6s5.2-3,5.2-6.7c0-3.2-1.7-6.6-5.2-6.6S531,318.7,531,322.2z"
		/>
	<path class="st8" d="M546,327.7c0.9,0.6,2.3,1.1,3.7,1.1c2.1,0,3.4-1.1,3.4-2.8c0-1.5-0.9-2.4-3-3.2c-2.6-0.9-4.3-2.3-4.3-4.6
		c0-2.5,2.1-4.4,5.2-4.4c1.7,0,2.9,0.4,3.6,0.8l-0.6,1.7c-0.5-0.3-1.6-0.8-3.1-0.8c-2.2,0-3,1.3-3,2.4c0,1.5,1,2.3,3.2,3.1
		c2.7,1.1,4.1,2.4,4.1,4.8c0,2.5-1.8,4.7-5.7,4.7c-1.6,0-3.3-0.5-4.1-1L546,327.7z"/>
</g>
</svg>
