<?xml version="1.0" encoding="utf-8"?>
<!-- Generator: Adobe Illustrator 20.0.0, SVG Export Plug-In . SVG Version: 6.00 Build 0)  -->
<svg version="1.1" id="Layer_1" xmlns="http://www.w3.org/2000/svg" xmlns:xlink="http://www.w3.org/1999/xlink" x="0px" y="0px"
	 viewBox="0 0 612 612" style="enable-background:new 0 0 612 612;" xml:space="preserve">
<style type="text/css">
	.st0{fill:#52B9D6;}
	.st1{fill:#42AAC3;}
	.st2{fill:#4FC3CF;}
	.st3{fill:#00B0B6;}
	.st4{fill:#5BC6D0;}
	.st5{fill:#E0EEF9;}
	.st6{fill:#CDE1F0;}
	.st7{fill:#F2F8FC;}
	.st8{fill:#50677E;}
	.st9{fill:#FFFFFF;}
	.st10{fill:#F05626;}
	.st11{fill:#FFC540;}
	.st12{fill:#31BEC6;}
	.st13{fill:#F26D40;}
	.st14{fill:#B7D0E4;}
	.st15{fill:#1D5063;}
	.st16{fill:#0E303F;}
	.st17{fill:#2A445E;}
	.st18{fill:#FCB532;}
	.st19{fill:#FFD45C;}
	.st20{fill:#EADACD;}
	.st21{fill:#FDF49F;}
	.st22{fill:#C5BC76;}
	.st23{enable-background:new    ;}
</style>
<g>
	<circle class="st0" cx="306" cy="306" r="306"/>
	<g>
		<g>
			<path class="st1" d="M328.8,494.6l-0.1-2.9c6.3-0.1,12.7-0.6,19-1.3l0.3,2.9C341.8,494,335.3,494.4,328.8,494.6z M309.5,493.9
				c-6.4-0.5-12.9-1.4-19.2-2.6l0.5-2.8c6.2,1.2,12.6,2,18.9,2.6L309.5,493.9z M367.2,489.8l-0.6-2.8c6.2-1.4,12.3-3.2,18.3-5.2
				l0.9,2.7C379.7,486.6,373.5,488.4,367.2,489.8z M271.4,486.8c-6.2-1.8-12.3-4-18.3-6.5l1.1-2.7c5.9,2.4,11.9,4.6,18,6.4
				L271.4,486.8z M403.8,477.3l-1.2-2.6c5.7-2.7,11.4-5.7,16.9-8.9l1.5,2.5C415.4,471.6,409.6,474.6,403.8,477.3z M235.7,471.9
				c-5.7-3.1-11.2-6.5-16.5-10.1l1.6-2.4c5.2,3.6,10.7,6.9,16.3,10L235.7,471.9z M437,457.5l-1.7-2.3c5.1-3.8,10-7.9,14.7-12.2
				l2,2.1C447.2,449.5,442.2,453.7,437,457.5z M203.8,450c-4.9-4.2-9.6-8.6-14.1-13.3l2.1-2c4.4,4.6,9.1,9,13.9,13.1L203.8,450z
				 M465.5,431.3l-2.2-1.9c4.2-4.7,8.2-9.8,11.9-14.9l2.3,1.7C473.8,421.4,469.8,426.5,465.5,431.3z M177.1,422.1
				c-3.9-5.1-7.7-10.4-11.1-15.9l2.4-1.5c3.4,5.4,7,10.6,10.9,15.6L177.1,422.1z M488,399.9l-2.5-1.4c3.1-5.5,6-11.2,8.6-17l2.6,1.2
				C494.1,388.4,491.2,394.3,488,399.9z M156.6,389.2c-2.8-5.8-5.4-11.8-7.6-17.8l2.7-1c2.2,6,4.7,11.9,7.5,17.6L156.6,389.2z
				 M503.6,364.4l-2.7-0.9c1.9-6,3.6-12.2,4.9-18.4l2.8,0.6C507.2,352,505.6,358.3,503.6,364.4z M143.4,352.9
				c-1.6-6.2-2.8-12.6-3.7-19l2.9-0.4c0.9,6.3,2.1,12.6,3.7,18.7L143.4,352.9z M511.5,326.6l-2.9-0.3c0.6-6.3,1-12.7,1-19
				c0-4.8-0.2-9.7-0.6-14.5l2.9-0.2c0.4,4.9,0.6,9.8,0.6,14.7C512.5,313.7,512.2,320.2,511.5,326.6z M137.9,314.6
				c-0.1-2.4-0.1-4.9-0.1-7.4c0-4,0.1-8,0.4-12l2.9,0.2c-0.2,3.9-0.4,7.9-0.4,11.8c0,2.4,0,4.9,0.1,7.3L137.9,314.6z M143.2,276.5
				l-2.8-0.5c1.1-6.3,2.5-12.7,4.2-18.9l2.8,0.8C145.6,264,144.2,270.2,143.2,276.5z M506.6,273.8c-1.1-6.2-2.6-12.5-4.4-18.6
				l2.8-0.8c1.8,6.2,3.3,12.5,4.5,18.8L506.6,273.8z M153.4,239.8l-2.7-1.1c2.4-6,5-11.9,8-17.6l2.6,1.3
				C158.3,228,155.7,233.9,153.4,239.8z M495.9,237.3c-2.4-5.9-5.1-11.7-8.1-17.2l2.5-1.4c3.1,5.7,5.8,11.6,8.3,17.5L495.9,237.3z
				 M170.9,205.9l-2.4-1.6c3.5-5.4,7.4-10.6,11.5-15.6l2.2,1.8C178.2,195.5,174.4,200.6,170.9,205.9z M477.8,203.7
				c-3.6-5.2-7.4-10.4-11.5-15.2l2.2-1.9c4.1,4.9,8.1,10.1,11.7,15.4L477.8,203.7z M195,176.4l-2-2c4.6-4.5,9.4-8.9,14.4-12.9
				l1.8,2.2C204.3,167.7,199.5,172,195,176.4z M453.3,174.6c-4.6-4.4-9.4-8.6-14.4-12.5l1.8-2.3c5.1,4,10,8.3,14.6,12.7L453.3,174.6
				z M224.6,152.5l-1.6-2.4c5.4-3.5,11-6.8,16.8-9.7l1.3,2.6C235.5,145.8,229.9,149,224.6,152.5z M423.4,151
				c-5.4-3.4-11-6.5-16.6-9.3l1.3-2.6c5.8,2.8,11.5,6,16.9,9.5L423.4,151z M258.5,135.1l-1-2.7c6-2.3,12.2-4.4,18.4-6l0.8,2.8
				C270.5,130.8,264.4,132.8,258.5,135.1z M389.2,134.2c-5.9-2.2-12.1-4.1-18.2-5.7l0.7-2.8c6.2,1.6,12.5,3.5,18.5,5.8L389.2,134.2z
				 M295.3,125.1l-0.5-2.8c6.3-1,12.8-1.7,19.3-2.1l0.2,2.9C307.9,123.4,301.5,124.1,295.3,125.1z M352.3,124.7
				c-6.3-0.9-12.7-1.5-19-1.8l0.1-2.9c6.4,0.3,12.9,0.9,19.3,1.8L352.3,124.7z"/>
			<path class="st1" d="M325,431.5c-1,0-2,0-2.9,0l-2.5-0.1c-29.8-1.3-58.3-13.4-80-34c-1.5-1.4-3-2.9-4.5-4.5
				c-21.3-22.4-33.4-51.7-34.2-82.5c0-1,0-2.1,0-3.1c0-1.1,0-2.1,0-3.1c0.8-30.9,12.9-60.2,34.2-82.5c1.4-1.4,2.8-2.9,4.5-4.5
				c21.7-20.7,50.2-32.7,80-34c0.7,0,1.5-0.1,2.2-0.1c1.2,0,2.2,0,3.3,0c1.2,0,2.2,0,3.2,0h0.3c0.7,0,1.4,0,2.1,0.1
				c29.9,1.3,58.3,13.4,80,34c1.9,1.8,3.2,3.1,4.5,4.5c21.3,22.4,33.5,51.7,34.2,82.6v0.2c0,1,0,1.9,0,2.9s0,1.9,0,2.9v0.2
				c-0.8,30.8-12.9,60.2-34.2,82.5c-1.3,1.4-2.8,2.8-4.5,4.5c-21.7,20.6-50.1,32.7-80,34.1l-2.4,0.1c-1.1,0-2,0-3.1,0
				C325.2,431.5,325,431.5,325,431.5z M321.1,372c-13,0.3-26,2.1-38.4,5.4l-2.3,0.6l1.1,2.1c9.6,18.7,22.9,34.8,38.5,46.4l3.1,2.3
				v-56.9L321.1,372z M327.1,428.7l3.1-2.3c15.6-11.5,28.9-27.5,38.5-46.3l1.1-2.1l-2.3-0.6c-12.4-3.3-25.3-5.1-38.4-5.4h-2
				L327.1,428.7L327.1,428.7z M372.9,380.7c-8.2,16.5-18.9,30.7-31.8,42.2l-4.8,4.3l6.4-0.9c23.6-3.4,45.5-13.8,63.2-30l1.9-1.8
				l-2.3-1.3c-9.4-5.5-19.6-10.1-30.3-13.5l-1.6-0.5L372.9,380.7z M275,379.7c-10.7,3.4-20.9,8-30.3,13.5l-2.3,1.3l1.9,1.8
				c17.8,16.2,39.7,26.5,63.2,30l6.4,0.9l-4.8-4.3c-12.9-11.5-23.6-25.7-31.9-42.2l-0.7-1.5L275,379.7z M204.9,311.2
				c1,29.6,12.9,57.8,33.5,79.2l1.1,1.1l1.3-0.8c9.9-6,20.6-10.9,32-14.6l2-0.7l-0.8-1.9c-8.4-19.3-13.1-40.8-13.6-62.4v-1.9h-55.5
				V311.2z M389.8,311.1c-0.5,21.6-5.2,43.2-13.6,62.4l-0.8,1.9l2,0.7c11.3,3.7,22.1,8.6,32,14.6l1.3,0.8l1.1-1.1
				c20.6-21.5,32.5-49.6,33.5-79.2l0.1-2h-55.5L389.8,311.1z M327.1,367.9h1.9c13.9,0.3,27.7,2.3,40.9,6l1.6,0.4l0.7-1.5
				c8.4-18.9,13.1-40.2,13.6-61.6v-2h-58.7V367.9z M264.5,311.2c0.5,21.4,5.2,42.7,13.6,61.6l0.7,1.5l1.6-0.4
				c13.2-3.6,27-5.6,40.9-6h1.9v-58.7h-58.7V311.2z M409.4,223.7c-9.9,6-20.7,10.9-32,14.6l-2,0.7l0.8,1.9
				c8.4,19.2,13.1,40.8,13.6,62.5v1.9h55.5l-0.1-2c-1-29.6-12.9-57.8-33.5-79.3l-1.1-1.1L409.4,223.7z M369.9,240.5
				c-13.2,3.6-27,5.6-40.9,6h-1.9v58.7h58.7v-2c-0.5-21.4-5.2-42.7-13.6-61.6l-0.7-1.5L369.9,240.5z M278,241.6
				c-8.4,18.9-13.1,40.2-13.6,61.6v2h58.7v-58.7h-1.9c-13.9-0.3-27.7-2.3-40.9-6l-1.6-0.4L278,241.6z M238.4,224
				c-20.6,21.5-32.5,49.6-33.5,79.3l-0.1,2h55.5v-1.9c0.5-21.6,5.2-43.2,13.6-62.5l0.8-1.9l-2-0.7c-11.3-3.7-22.1-8.6-32-14.6
				l-1.3-0.8L238.4,224z M327.1,242.5h2c13.1-0.3,26-2.1,38.4-5.4l2.3-0.6l-1.1-2.1c-9.6-18.8-22.9-34.8-38.5-46.4l-3.1-2.3
				L327.1,242.5L327.1,242.5z M320,187.9c-15.6,11.6-28.9,27.6-38.5,46.4l-1.1,2.1l2.3,0.6c12.4,3.3,25.3,5.1,38.4,5.4h2v-56.9
				L320,187.9z M307.6,188.2c-23.6,3.4-45.5,13.8-63.2,30l-1.9,1.8l2.3,1.3c9.4,5.5,19.6,10,30.3,13.5l1.6,0.5l0.7-1.5
				c8.2-16.5,18.9-30.7,31.9-42.2l4.8-4.3L307.6,188.2z M341.1,191.6c12.9,11.5,23.6,25.7,31.9,42.2l0.7,1.5l1.6-0.5
				c10.7-3.4,20.9-8,30.3-13.5l2.3-1.3l-1.9-1.8c-17.8-16.1-39.6-26.5-63.2-29.9l-6.4-0.9L341.1,191.6z"/>
			<g>
				<path class="st1" d="M325.1,143.4c-12.2,0-22.1-9.9-22.1-22.1s9.9-22.1,22.1-22.1s22.1,9.9,22.1,22.1S337.3,143.4,325.1,143.4z"
					/>
				<path class="st1" d="M193.7,190.8c-4,0-7.8-1.6-10.6-4.4c-5.9-5.9-5.9-15.4,0-21.2c2.8-2.8,6.6-4.4,10.6-4.4s7.8,1.6,10.6,4.4
					c5.9,5.9,5.9,15.4,0,21.2C201.4,189.2,197.7,190.8,193.7,190.8z"/>
				<path class="st1" d="M139.2,339c-17.5,0-31.8-14.3-31.8-31.8s14.3-31.8,31.8-31.8s31.8,14.3,31.8,31.8
					C171,324.8,156.7,339,139.2,339L139.2,339z"/>
				<path class="st1" d="M193.7,461.2c-6,0-11.7-2.3-16-6.6c-4.3-4.3-6.6-9.9-6.6-15.9s2.3-11.7,6.6-15.9c4.3-4.3,9.9-6.6,15.9-6.6
					s11.7,2.3,15.9,6.6c4.3,4.3,6.6,9.9,6.6,15.9s-2.3,11.7-6.6,15.9C205.3,458.9,199.7,461.2,193.7,461.2z"/>
				<path class="st1" d="M325.1,501.8c-4.8,0-8.6-3.9-8.6-8.6s3.9-8.6,8.6-8.6c4.8,0,8.6,3.9,8.6,8.6S329.9,501.8,325.1,501.8z"/>
				<path class="st1" d="M456.6,445.2c-1.7,0-3.4-0.7-4.6-1.9c-1.2-1.2-1.9-2.9-1.9-4.6s0.7-3.4,1.9-4.6c1.2-1.2,2.9-1.9,4.6-1.9
					s3.4,0.7,4.6,1.9c1.2,1.2,1.9,2.9,1.9,4.6s-0.7,3.4-1.9,4.6C460,444.5,458.3,445.2,456.6,445.2z"/>
				<path class="st1" d="M511.1,332.3c-13.8,0-25.1-11.3-25.1-25.1c0-13.8,11.3-25.1,25.1-25.1s25.1,11.3,25.1,25.1
					C536.1,321.1,524.9,332.3,511.1,332.3z"/>
				<path class="st1" d="M456.6,187.5c-3.2,0-6.1-1.2-8.3-3.5c-2.2-2.2-3.5-5.2-3.5-8.3s1.2-6.1,3.5-8.3c2.2-2.2,5.2-3.4,8.3-3.4
					c3.2,0,6.1,1.2,8.3,3.5c2.2,2.2,3.5,5.2,3.5,8.3s-1.2,6.1-3.5,8.3C462.7,186.3,459.7,187.5,456.6,187.5z"/>
			</g>
		</g>
		<g>
			<polygon class="st2" points="429.1,208.3 429.1,292.9 578.6,292.9 578.6,208.3 			"/>
			<g>
				<g>
					<path class="st3" d="M487.5,241h-18.7v2.8h17.8C486.8,242.8,487.1,241.9,487.5,241z"/>
					<path class="st3" d="M522.1,249.2c0,0.5,0,0.9,0,1.4s0,0.9,0,1.4h23.4v-2.8L522.1,249.2L522.1,249.2z"/>
					<path class="st3" d="M485.6,250.6c0-0.5,0-0.9,0.1-1.4h-23.4v2.8h23.4C485.7,251.6,485.6,251.1,485.6,250.6z"/>
					<path class="st3" d="M539,243.8V241h-18.7c0.4,0.9,0.7,1.8,0.9,2.8H539z"/>
					<path class="st3" d="M520.3,260.3H539v-2.8h-17.8C521,258.5,520.6,259.4,520.3,260.3z"/>
					<path class="st3" d="M486.5,257.5h-17.8v2.8h18.7C487.1,259.4,486.8,258.5,486.5,257.5z"/>
				</g>
			</g>
			<path class="st3" d="M502.9,240v8.1c-2.7-0.8-4.8-1.7-4.8-3.9C498.2,241.9,500.1,240.2,502.9,240z M505.4,252.3v9
				c3.8-0.4,5-2.7,5-4.6C510.4,254.2,508.1,253.2,505.4,252.3z M527.3,250.6c0,15.1-10.5,27.4-23.5,27.4s-23.5-12.3-23.5-27.4
				c0-15.1,10.5-27.4,23.5-27.4C516.8,223.3,527.3,235.5,527.3,250.6z M513.8,256.5c0-5.2-4.4-6.7-8.4-7.8V240
				c2.2,0.3,4.3,1.3,5.9,3.1l2-2.4c-1.9-2-4.5-3.4-7.8-3.6v-3.6H503v3.6c-4.7,0.3-8.2,3.2-8.2,7.3c0,4.9,4.2,6.2,8.2,7.3v9.6
				c-3.1-0.4-5.5-1.9-7-3.7l-2,2.5c2,2.2,5,3.9,9,4.2v3.5h2.4v-3.5C511.5,263.8,513.8,260.1,513.8,256.5z"/>
			<path class="st3" d="M553.5,212.8h-99.2h-20.6v20.7v34.3v20.6h20.7h99.2h20.7v-20.7v-34.3v-20.6L553.5,212.8z M569.6,267.3
				c-3.9,0.3-8,2.2-11.2,5.4c-3.2,3.2-5.1,7.3-5.4,11.2h-98.3c-0.3-3.9-2.2-8-5.4-11.2c-3.2-3.2-7.2-5.1-11.2-5.4v-33.4
				c4-0.3,8-2.2,11.2-5.4s5.1-7.3,5.4-11.2H553c0.3,3.9,2.2,8,5.4,11.2s7.2,5.1,11.2,5.4V267.3z"/>
		</g>
		<g>
			<g>
				<path class="st0" d="M325,130.1c-0.2,0-0.4-0.1-0.6-0.2c-0.2-0.2-0.2-0.4-0.2-0.6v-0.9c-1.4-0.1-2.6-0.7-3.6-1.5
					c0,0,0,0-0.2-0.3c-0.1-0.1-0.2-0.3-0.2-0.5s0.1-0.4,0.2-0.5l0.2-0.2c0.1-0.2,0.3-0.3,0.6-0.3l0,0c0.2,0,0.4,0.1,0.6,0.2l0,0
					l0.1,0.1c0.5,0.5,1.3,1,2.4,1.2v-4.5c-1.8-0.5-3.8-1.2-3.8-3.6c0-1.9,1.5-3.4,3.8-3.6V114c0-0.2,0.1-0.4,0.2-0.6
					c0.2-0.2,0.4-0.2,0.6-0.2l0,0c0.2,0,0.4,0.1,0.6,0.2c0.2,0.2,0.2,0.4,0.2,0.6v0.9c1.1,0.1,2,0.5,2.8,1.1c0,0,0,0,0.5,0.4
					c0.1,0.1,0.2,0.3,0.2,0.5s-0.1,0.4-0.2,0.5l-0.2,0.2c-0.1,0.2-0.3,0.2-0.5,0.3l0,0c-0.2,0-0.4-0.1-0.5-0.2
					c-0.2-0.1-0.3-0.3-0.4-0.4c-0.5-0.3-1-0.6-1.6-0.7v3.9c1.6,0.5,3.9,1.3,3.9,3.9c0,1.7-1,3.5-3.9,3.8v0.9c0,0.2-0.1,0.4-0.2,0.6
					C325.5,130,325.3,130.1,325,130.1L325,130.1z M325.9,126.7c1.9-0.3,2-1.6,2-2c0-1-0.7-1.5-2-2V126.7z M324.2,116.7
					c-1.1,0.2-1.9,0.9-1.9,1.8s0.7,1.3,1.9,1.7V116.7z"/>
				<path class="st0" d="M325,134.7c-7.2,0-13-5.8-13-13s5.9-13,13-13c7.2,0,13,5.8,13,13S332.2,134.7,325,134.7z M325,110.2
					c-6.4,0-11.5,5.2-11.5,11.5c0,6.4,5.2,11.5,11.5,11.5c6.4,0,11.5-5.2,11.5-11.5C336.5,115.3,331.3,110.2,325,110.2z"/>
				<path class="st0" d="M325,138.8c-9.4,0-17.1-7.7-17.1-17.1s7.7-17.1,17.1-17.1s17.1,7.7,17.1,17.1S334.4,138.8,325,138.8z
					 M325,106.1c-8.6,0-15.6,7-15.6,15.6s7,15.6,15.6,15.6s15.6-7,15.6-15.6S333.6,106.1,325,106.1z"/>
			</g>
		</g>
		<g>
			<g>
				<path class="st0" d="M192.9,132c-0.2,0-0.4-0.1-0.6-0.2c-0.2-0.2-0.2-0.4-0.2-0.6v-0.9c-1.4-0.1-2.6-0.7-3.6-1.5
					c0,0,0,0-0.2-0.3c-0.1-0.1-0.2-0.3-0.2-0.5s0.1-0.4,0.2-0.5l0.2-0.2c0.1-0.2,0.3-0.3,0.6-0.3l0,0c0.2,0,0.4,0.1,0.6,0.2l0,0
					l0.1,0.1c0.5,0.5,1.3,1,2.4,1.2V124c-1.8-0.5-3.8-1.2-3.8-3.6c0-1.9,1.5-3.4,3.8-3.6V116c0-0.2,0.1-0.4,0.2-0.6
					c0.2-0.2,0.4-0.2,0.6-0.2l0,0c0.2,0,0.4,0.1,0.6,0.2c0.2,0.2,0.2,0.4,0.2,0.6v0.9c1.1,0.1,2,0.5,2.8,1.1c0,0,0,0,0.5,0.4
					c0.1,0.1,0.2,0.3,0.2,0.5s-0.1,0.4-0.2,0.5l-0.2,0.2c-0.1,0.2-0.3,0.2-0.5,0.3l0,0c-0.2,0-0.4-0.1-0.5-0.2
					c-0.2-0.1-0.3-0.3-0.4-0.4c-0.5-0.3-1-0.6-1.6-0.7v3.9c1.6,0.5,3.9,1.3,3.9,3.9c0,1.7-1,3.5-3.9,3.8v0.9c0,0.2-0.1,0.4-0.2,0.6
					C193.4,131.9,193.2,132,192.9,132L192.9,132z M193.7,128.6c1.9-0.3,2-1.6,2-2c0-1-0.7-1.5-2-2V128.6z M192.1,118.6
					c-1.1,0.2-1.9,0.9-1.9,1.8s0.7,1.3,1.9,1.7V118.6z"/>
				<path class="st0" d="M192.9,136.6c-7.2,0-13-5.8-13-13s5.8-13,13-13s13,5.8,13,13S200.1,136.6,192.9,136.6z M192.9,112
					c-6.4,0-11.5,5.2-11.5,11.5c0,6.4,5.2,11.5,11.5,11.5c6.4,0,11.5-5.2,11.5-11.5S199.2,112,192.9,112z"/>
				<path class="st0" d="M192.9,140.7c-9.4,0-17.1-7.7-17.1-17.1s7.7-17.1,17.1-17.1c9.4,0,17.1,7.7,17.1,17.1
					S202.3,140.7,192.9,140.7z M192.9,108c-8.6,0-15.6,7-15.6,15.6s7,15.6,15.6,15.6s15.6-7,15.6-15.6S201.5,108,192.9,108z"/>
			</g>
		</g>
		<g>
			<g>
				<path class="st4" d="M519.6,185.6c-0.2,0-0.4-0.1-0.6-0.2c-0.2-0.2-0.2-0.4-0.2-0.6v-0.9c-1.4-0.1-2.6-0.7-3.6-1.5
					c0,0,0,0-0.2-0.3c-0.1-0.1-0.2-0.3-0.2-0.5s0.1-0.4,0.2-0.5l0.2-0.2c0.1-0.2,0.3-0.3,0.6-0.3l0,0c0.2,0,0.4,0.1,0.6,0.2l0,0
					l0.1,0.1c0.5,0.5,1.3,1,2.4,1.2v-4.5c-1.8-0.5-3.8-1.2-3.8-3.6c0-1.9,1.5-3.4,3.8-3.6v-0.9c0-0.2,0.1-0.4,0.2-0.6
					c0.2-0.2,0.4-0.2,0.6-0.2l0,0c0.2,0,0.4,0.1,0.6,0.2c0.2,0.2,0.2,0.4,0.2,0.6v0.9c1.1,0.1,2,0.5,2.8,1.1c0,0,0,0,0.5,0.4
					c0.1,0.1,0.2,0.3,0.2,0.5s-0.1,0.4-0.2,0.5l-0.2,0.2c-0.1,0.2-0.3,0.2-0.5,0.3l0,0c-0.2,0-0.4-0.1-0.5-0.2
					c-0.2-0.1-0.3-0.3-0.4-0.4c-0.5-0.3-1-0.6-1.6-0.7v3.9c1.6,0.5,3.9,1.3,3.9,3.9c0,1.7-1,3.5-3.9,3.8v0.9c0,0.2-0.1,0.4-0.2,0.6
					C520,185.5,519.8,185.6,519.6,185.6L519.6,185.6z M520.4,182.2c1.9-0.3,2-1.6,2-2c0-1-0.7-1.5-2-2V182.2z M518.8,172.2
					c-1.1,0.2-1.9,0.9-1.9,1.8c0,0.9,0.7,1.3,1.9,1.7V172.2z"/>
				<path class="st4" d="M519.5,190.2c-7.2,0-13-5.8-13-13s5.9-13,13-13c7.2,0,13,5.8,13,13C532.6,184.4,526.7,190.2,519.5,190.2z
					 M519.5,165.6c-6.4,0-11.5,5.2-11.5,11.5c0,6.4,5.2,11.5,11.5,11.5c6.4,0,11.5-5.2,11.5-11.5
					C531.1,170.8,525.9,165.6,519.5,165.6z"/>
				<path class="st4" d="M519.5,194.3c-9.4,0-17.1-7.7-17.1-17.1c0-9.4,7.7-17.1,17.1-17.1c9.4,0,17.1,7.7,17.1,17.1
					C536.7,186.6,529,194.3,519.5,194.3z M519.5,161.5c-8.6,0-15.6,7-15.6,15.6s7,15.6,15.6,15.6c8.6,0,15.6-7,15.6-15.6
					C535.2,168.5,528.1,161.5,519.5,161.5z"/>
			</g>
		</g>
		<g>
			<g>
				<path class="st4" d="M448.1,156.2c-0.4,0-0.7-0.1-0.9-0.4c-0.3-0.3-0.4-0.6-0.4-0.9v-1.5c-2.3-0.2-4.4-1.1-6-2.6
					c0,0-0.1-0.1-0.4-0.4c-0.2-0.2-0.3-0.5-0.3-0.9c0-0.3,0.1-0.6,0.3-0.9l0.3-0.4c0.2-0.3,0.6-0.4,0.9-0.4l0,0
					c0.4,0,0.7,0.1,0.9,0.4l0,0l0.2,0.2c0.8,0.8,2.2,1.7,4,2v-7.5c-2.9-0.8-6.3-2-6.3-6c0-3.2,2.6-5.7,6.3-6.1v-1.5
					c0-0.4,0.1-0.7,0.4-0.9c0.3-0.3,0.6-0.4,0.9-0.4l0,0c0.4,0,0.7,0.1,0.9,0.4c0.3,0.3,0.4,0.6,0.4,0.9v1.5
					c1.8,0.2,3.3,0.9,4.6,1.8c0,0,0.1,0.1,0.8,0.7c0.2,0.2,0.4,0.6,0.4,0.9c0,0.3-0.1,0.7-0.3,0.9l-0.3,0.3
					c-0.2,0.3-0.6,0.4-0.9,0.4l0,0c-0.3,0-0.7-0.1-0.9-0.4c-0.3-0.2-0.6-0.5-0.6-0.6c-0.8-0.6-1.6-1-2.6-1.2v6.6
					c2.6,0.8,6.5,2.1,6.5,6.5c0,2.8-1.7,5.9-6.5,6.4v1.5c0,0.4-0.1,0.7-0.4,1C448.8,156.1,448.5,156.2,448.1,156.2L448.1,156.2z
					 M449.5,150.5c3.1-0.5,3.4-2.7,3.4-3.4c0-1.7-1.2-2.6-3.4-3.3V150.5z M446.8,133.9c-1.9,0.3-3.2,1.5-3.2,3.1
					c0,1.4,1.1,2.1,3.2,2.8V133.9z"/>
				<path class="st4" d="M448,163.9c-12,0-21.8-9.8-21.8-21.8s9.8-21.8,21.8-21.8s21.8,9.8,21.8,21.8
					C469.8,154.2,460,163.9,448,163.9z M448,122.9c-10.6,0-19.3,8.6-19.3,19.3c0,10.6,8.6,19.3,19.3,19.3c10.6,0,19.3-8.6,19.3-19.3
					S458.6,122.9,448,122.9z"/>
				<path class="st4" d="M448,170.8c-15.8,0-28.6-12.8-28.6-28.6s12.8-28.6,28.6-28.6c15.8,0,28.6,12.8,28.6,28.6
					C476.6,157.9,463.8,170.8,448,170.8z M448,116.1c-14.4,0-26.1,11.7-26.1,26.1s11.7,26.1,26.1,26.1s26.1-11.7,26.1-26.1
					C474.1,127.8,462.4,116.1,448,116.1z"/>
			</g>
		</g>
		<g>
			<g>
				<path class="st4" d="M122.7,181.9c-0.4,0-0.7-0.1-0.9-0.4c-0.3-0.3-0.4-0.6-0.4-0.9v-1.5c-2.3-0.2-4.4-1.1-6-2.6
					c0,0-0.1-0.1-0.4-0.4c-0.2-0.2-0.3-0.5-0.3-0.9c0-0.3,0.1-0.6,0.3-0.9l0.3-0.4c0.2-0.3,0.6-0.4,0.9-0.4l0,0
					c0.4,0,0.7,0.1,0.9,0.4l0,0l0.2,0.2c0.8,0.8,2.2,1.7,4,2v-7.5c-2.9-0.8-6.3-2-6.3-6c0-3.3,2.6-5.7,6.3-6.1V155
					c0-0.4,0.1-0.7,0.4-0.9c0.3-0.3,0.6-0.4,0.9-0.4l0,0c0.4,0,0.7,0.1,0.9,0.4c0.3,0.3,0.4,0.6,0.4,0.9v1.5
					c1.8,0.2,3.3,0.9,4.6,1.8c0,0,0.1,0.1,0.8,0.7c0.2,0.2,0.4,0.5,0.4,0.9c0,0.3-0.1,0.7-0.3,0.9l-0.3,0.3
					c-0.2,0.3-0.6,0.4-0.9,0.4l0,0c-0.3,0-0.7-0.1-0.9-0.4c-0.3-0.2-0.6-0.5-0.6-0.6c-0.8-0.6-1.6-1-2.6-1.2v6.6
					c2.6,0.8,6.5,2.1,6.5,6.5c0,2.8-1.7,5.9-6.5,6.4v1.5c0,0.4-0.1,0.7-0.4,0.9C123.4,181.8,123.1,181.9,122.7,181.9L122.7,181.9z
					 M124.1,176.2c3.1-0.5,3.4-2.7,3.4-3.4c0-1.7-1.2-2.6-3.4-3.3V176.2z M121.4,159.5c-1.9,0.3-3.2,1.5-3.2,3.1
					c0,1.4,1.1,2.1,3.2,2.8V159.5z"/>
				<path class="st4" d="M122.6,189.6c-12,0-21.8-9.8-21.8-21.8s9.8-21.8,21.8-21.8s21.8,9.8,21.8,21.8
					C144.4,179.8,134.6,189.6,122.6,189.6z M122.6,148.6c-10.6,0-19.3,8.6-19.3,19.3c0,10.6,8.6,19.3,19.3,19.3
					c10.6,0,19.3-8.6,19.3-19.3C141.9,157.2,133.2,148.6,122.6,148.6z"/>
				<path class="st4" d="M122.6,196.4c-15.8,0-28.6-12.8-28.6-28.6s12.8-28.6,28.6-28.6s28.6,12.8,28.6,28.6
					S138.4,196.4,122.6,196.4z M122.6,141.7c-14.4,0-26.1,11.7-26.1,26.1c0,14.4,11.7,26.1,26.1,26.1s26.1-11.7,26.1-26.1
					S137,141.7,122.6,141.7z"/>
			</g>
		</g>
		<g>
			<g>
				<polygon class="st5" points="354.1,441.3 262.9,441.3 274.4,384.9 342.5,384.9 				"/>
				<polygon class="st6" points="354.1,441.3 342.5,384.9 274.4,384.9 330.8,441.3 				"/>
				<rect x="238.5" y="441.3" class="st7" width="140" height="6.8"/>
			</g>
			<path class="st8" d="M142,152.9c-4.7,0-8.5,3.8-8.5,8.5v215c0,4.7,3.8,8.5,8.5,8.5h333c4.7,0,8.5-3.8,8.5-8.5v-215
				c0-4.7-3.8-8.5-8.5-8.5H142z"/>
			<rect x="151.2" y="170.6" class="st6" width="314.6" height="196.6"/>
			<rect x="155.1" y="190.4" class="st9" width="306.7" height="172.8"/>
			<rect x="151.2" y="170.6" class="st6" width="314.6" height="19.8"/>
			<g>
				<circle class="st10" cx="169.5" cy="180.5" r="4"/>
				<circle class="st11" cx="189.3" cy="180.5" r="4"/>
				<ellipse class="st12" cx="209" cy="180.5" rx="4" ry="4"/>
			</g>
			<path class="st9" d="M448.5,180.5c0,2.2-1.8,4-4,4H230.3c-2.2,0-4-1.8-4-4l0,0c0-2.2,1.8-4,4-4h214.2
				C446.7,176.5,448.5,178.3,448.5,180.5L448.5,180.5z"/>
			<g>
				<g>
					<rect x="184.3" y="204.9" class="st13" width="117.7" height="66.3"/>
					<rect x="184.3" y="283.3" class="st2" width="117.7" height="23.1"/>
					<rect x="314.9" y="283.3" class="st2" width="117.7" height="23.1"/>
					<g>
						<rect x="318.5" y="204.9" class="st14" width="114.2" height="5"/>
						<rect x="318.5" y="217.6" class="st14" width="114.2" height="5"/>
						<rect x="318.5" y="230.2" class="st14" width="37.5" height="5"/>
					</g>
					<g>
						<rect x="184.3" y="318.4" class="st8" width="248.4" height="5"/>
						<rect x="184.3" y="331.1" class="st14" width="248.4" height="5"/>
						<rect x="184.3" y="343.7" class="st14" width="124.2" height="5"/>
					</g>
					<path class="st9" d="M262,249.4h-23.6c-0.8,0-1.6-0.3-2.3-0.8s-1.1-1.2-1.4-1.9l-7.6-25.1h-11.8V217h12.3
						c0.8,0,1.6,0.3,2.3,0.7c0.7,0.5,1.1,1.2,1.4,1.9l7.6,25.1h22.4l4.7-15.5h-28.7l-1.4-4.6H267c1.2,0,2.3,0.6,3,1.5
						c0.7,1,0.9,2.2,0.6,3.4l-5.2,17c-0.2,0.8-0.7,1.5-1.4,1.9C263.6,249.2,262.8,249.4,262,249.4z M262,232.5h-23.6l0.9,3.1H261
						L262,232.5z M260.1,238.7l-0.9,3.1h-18l-0.9-3.1H260.1z M241.8,250.9c-2.3,0-4.1,1.8-4.1,4.1s1.8,4.1,4.1,4.1s4.1-1.9,4.1-4.1
						C245.9,252.7,244,250.9,241.8,250.9z M258.6,250.9c-2.3,0-4.1,1.8-4.1,4.1s1.9,4.1,4.1,4.1c2.3,0,4.1-1.9,4.1-4.1
						C262.7,252.7,260.9,250.9,258.6,250.9z"/>
				</g>
			</g>
		</g>
		<g>
			<path class="st9" d="M455.8,451.2c1.8-3.2,2.7-6.6,2.7-10.2c0-14.6-15.9-26.5-35.4-26.5c-19.6,0-35.4,11.9-35.4,26.5
				c0,3.6,1,7.1,2.7,10.2H455.8z"/>
			<path class="st5" d="M388.1,444.8c0.4,2.3,1.2,4.4,2.4,6.5h65.4c1.1-2,1.9-4.2,2.4-6.5H388.1z"/>
		</g>
		<g>
			<rect x="455.2" y="312.9" class="st15" width="99.5" height="94.1"/>
			<polygon class="st16" points="554.7,312.9 554.7,343.1 536.2,343.1 536.2,318.1 			"/>
			<polygon class="st15" points="536.2,374.1 561.3,374.1 561.3,323.3 536.2,318.1 			"/>
			<polygon class="st16" points="455.2,312.9 455.2,343.1 473.7,343.1 473.7,318.1 			"/>
			<polygon class="st15" points="473.7,374.1 448.6,374.1 448.6,323.3 473.7,318.1 			"/>
			<rect x="448.5" y="323.3" class="st16" width="112.8" height="127.9"/>
			<g>
				<g>
					<g>
						<path class="st9" d="M504.9,421.6c-18.9,0-34.3-15.4-34.3-34.3S486,353,504.9,353v2.1c-17.8,0-32.2,14.5-32.2,32.2
							c0,17.8,14.5,32.2,32.2,32.2V421.6z"/>
						<path class="st9" d="M504.9,421.6c-4.9,0-9.4-3.7-12.7-10.3c-3.2-6.4-5-14.9-5-24s1.8-17.6,5-24c3.3-6.7,7.8-10.3,12.7-10.3
							v2.1c-4,0-7.9,3.3-10.8,9.2c-3.1,6.1-4.8,14.3-4.8,23.1c0,8.7,1.7,16.9,4.8,23.1c2.9,5.9,6.8,9.2,10.8,9.2V421.6z"/>
						<rect x="503.9" y="354" class="st9" width="2.1" height="66.6"/>
						<path class="st9" d="M504.9,421.6v-2.1c4,0,7.9-3.2,10.8-9.2c3.1-6.1,4.8-14.3,4.8-23.1c0-8.7-1.7-16.9-4.8-23.1
							c-3-5.9-6.8-9.2-10.8-9.2V353c4.9,0,9.4,3.7,12.7,10.3c3.2,6.4,5,14.9,5,24s-1.8,17.6-5,24
							C514.3,417.9,509.8,421.6,504.9,421.6z"/>
						<path class="st9" d="M504.9,421.6v-2.1c17.8,0,32.2-14.5,32.2-32.2c0-17.8-14.5-32.2-32.2-32.2V353
							c18.9,0,34.3,15.4,34.3,34.3C539.3,406.2,523.9,421.6,504.9,421.6z"/>
					</g>
					<g>
						<rect x="476.1" y="369.6" class="st9" width="57.6" height="2.1"/>
						<rect x="471.7" y="386.2" class="st9" width="66.6" height="2.1"/>
						<rect x="476.1" y="402.9" class="st9" width="57.6" height="2.1"/>
					</g>
				</g>
			</g>
			<g>
				<path class="st17" d="M532.3,342.1c0-2.5,2-4.6,4.6-4.6c2.5,0,4.6,2,4.6,4.6c0,2.5-2,4.6-4.6,4.6
					C534.4,346.6,532.3,344.6,532.3,342.1z"/>
				<path class="st17" d="M468.4,342.1c0-2.5,2.1-4.6,4.6-4.6s4.6,2,4.6,4.6c0,2.5-2.1,4.6-4.6,4.6
					C470.4,346.6,468.4,344.6,468.4,342.1z"/>
				<path class="st5" d="M503.5,277.9h2.9c8.6,0,16.7,3.4,22.8,9.5c6.1,6.1,9.4,14.2,9.4,22.8v31.9c0,0.4-0.1,0.8-0.5,1.1
					c-0.3,0.3-0.7,0.5-1.1,0.5h-0.2c-0.4,0-0.8-0.2-1.1-0.5s-0.5-0.7-0.5-1.1v-31.9c0-7.7-3-14.9-8.4-20.4
					c-5.5-5.5-12.7-8.5-20.4-8.5h-2.9c-7.7,0-14.9,3-20.4,8.5c-5.5,5.4-8.5,12.7-8.5,20.4v31.9c0,0.4-0.2,0.8-0.5,1.1
					c-0.3,0.3-0.7,0.5-1.1,0.5h-0.2c-0.4,0-0.8-0.2-1.1-0.5c-0.3-0.3-0.5-0.7-0.5-1.1v-31.9c0-8.6,3.4-16.7,9.5-22.8
					C486.8,281.2,494.9,277.9,503.5,277.9z"/>
			</g>
		</g>
		<g>
			<g>
				<g>
					<rect x="153.4" y="438.5" class="st11" width="60.6" height="12.7"/>
					<rect x="153.4" y="437.3" class="st18" width="60.6" height="12.7"/>
				</g>
				<g>
					<g>
						<rect x="148.4" y="424.6" class="st11" width="60.6" height="12.7"/>
						<rect x="148.4" y="423.4" class="st11" width="60.6" height="12.6"/>
					</g>
				</g>
				<g>
					<rect x="163.6" y="410.7" class="st11" width="60.6" height="12.7"/>
					<rect x="163.6" y="409.4" class="st19" width="60.6" height="12.7"/>
				</g>
				<g>
					<g>
						<rect x="157.9" y="396.8" class="st11" width="60.6" height="12.7"/>
						<rect x="157.9" y="395.5" class="st11" width="60.6" height="12.7"/>
						<rect x="156.6" y="368.9" class="st11" width="60.6" height="12.7"/>
					</g>
				</g>
				<g>
					<rect x="166" y="382.9" class="st11" width="60.6" height="12.7"/>
					<rect x="166" y="381.6" class="st19" width="60.6" height="12.6"/>
				</g>
			</g>
			<g>
				<g>
					<rect x="75.1" y="438.5" class="st11" width="60.6" height="12.7"/>
					<rect x="75.1" y="437.3" class="st19" width="60.6" height="12.7"/>
				</g>
				<g>
					<rect x="66.6" y="424.6" class="st18" width="60.6" height="12.7"/>
					<rect x="66.6" y="423.4" class="st11" width="60.6" height="12.6"/>
				</g>
				<g>
					<rect x="80" y="410.7" class="st11" width="60.6" height="12.7"/>
					<rect x="80" y="409.4" class="st19" width="60.6" height="12.7"/>
				</g>
				<g>
					<rect x="81.9" y="396.8" class="st11" width="60.6" height="12.7"/>
					<rect x="81.9" y="395.5" class="st18" width="60.6" height="12.7"/>
				</g>
				<g>
					<rect x="76.5" y="382.9" class="st18" width="60.6" height="12.7"/>
					<rect x="76.5" y="381.6" class="st11" width="60.6" height="12.6"/>
				</g>
				<g>
					<rect x="78.6" y="369" class="st18" width="60.6" height="12.7"/>
					<rect x="78.6" y="367.7" class="st11" width="60.6" height="12.7"/>
				</g>
				<g>
					<rect x="75.1" y="355" class="st11" width="60.6" height="12.6"/>
					<rect x="75.1" y="353.8" class="st19" width="60.6" height="12.7"/>
				</g>
				<g>
					<rect x="86.4" y="341.1" class="st18" width="60.6" height="12.7"/>
					<rect x="86.4" y="339.9" class="st11" width="60.6" height="12.7"/>
				</g>
			</g>
			<path class="st20" d="M142.5,395.5v13.9h-1.9v13.9h-13.5v13.9h8.6v13.9h-21.2l-1.3-1.3l-6-6c-1.2-1.3-2.4-2.6-3.4-4.1
				c-0.3-0.5-0.6-0.9-0.9-1.3c0,0,0-0.1-0.1-0.1c-0.2-0.3-0.5-0.7-0.7-1.2c0-0.1-0.1-0.1-0.1-0.2c-0.2-0.4-0.4-0.7-0.6-1.1
				c-1.8-3.4-3-7.2-3.5-11.1c0-0.1,0-0.2,0-0.3c0-0.3-0.1-0.7-0.1-1.1c0-0.1,0-0.1,0-0.2c0-0.4,0-0.8-0.1-1.2l0,0c0-0.4,0-0.8,0-1.2
				c0-0.2,0-0.4,0-0.5V420c0-0.2,0-0.4,0-0.5c0-3,0.4-6,1.2-8.9c0.1-0.2,0.1-0.5,0.2-0.7c0-0.2,0.1-0.4,0.2-0.6s0.2-0.5,0.2-0.7
				c0.1-0.2,0.1-0.3,0.2-0.5c0.1-0.3,0.2-0.6,0.3-0.9c1.6-3.9,4-7.5,7-10.5c0.4-0.4,0.9-0.8,1.3-1.3c0.2-0.2,0.3-0.3,0.5-0.4
				c0.3-0.3,0.6-0.6,1-0.8c0.2-0.1,0.4-0.3,0.7-0.5c0.7-0.5,1.3-1,2-1.4c1.7-1.1,3.5-2.1,5.4-2.9c0.3-0.1,0.6-0.2,0.9-0.3
				c3.6-1.3,7.5-2.1,11.4-2.1h0.3c0.6,0,1.1,0,1.7,0.1c0.1,0,0.1,0,0.1,0c0.7,0.1,1.5,0.1,2.2,0.2c0.1,0,0.2,0,0.3,0
				c0.7,0.1,1.5,0.2,2.2,0.4v7.7h5.5V395.5z M207.4,450.9l-0.9-0.9l-12.7-12.7l-1.3-1.3l-1.9-1.9l-9.5-9.5l-1.3-1.3l-1.3-1.3
				l-1.6-1.5l-6.7-6.7l-2.1-2.1l-0.3-0.3l-0.7-0.7l-1.3-1.3l-3.8-3.8l-4.3-4.3v8.1h5.7v13.9h-15.2v13.9h5v13.9h54.4L207.4,450.9z"/>
			<g>
				<path class="st11" d="M160.5,420.9c0,16.7-13.5,30.3-30.3,30.3c-16.7,0-30.3-13.5-30.3-30.3c0-16.7,13.6-30.3,30.3-30.3
					S160.5,404.2,160.5,420.9z"/>
				<path class="st19" d="M160.5,419.6c0,16.7-13.5,30.3-30.3,30.3c-16.7,0-30.3-13.6-30.3-30.3c0-16.7,13.6-30.3,30.3-30.3
					C146.9,389.4,160.5,402.9,160.5,419.6z"/>
				<path class="st18" d="M130.2,445.1c-14,0-25.4-11.4-25.4-25.5c0-14,11.4-25.4,25.4-25.4s25.4,11.4,25.4,25.4
					C155.6,433.7,144.2,445.1,130.2,445.1z M130.2,396.7c-12.7,0-23,10.3-23,23s10.3,23,23,23s23-10.3,23-23
					S142.9,396.7,130.2,396.7z"/>
				<path class="st18" d="M138.8,419.4c-1.2-1.3-3.6-2.3-7-3.1V409c1.4,0.5,2.2,1.5,2.6,3l5.4-0.6c-0.4-1.8-1.2-3.3-2.6-4.4
					c-1.3-1.1-3.1-1.8-5.4-2v-1.8h-3.1v1.8c-2.5,0.2-4.4,1-5.9,2.4s-2.2,3.1-2.2,5.1s0.6,3.7,2,5.1c1.3,1.4,3.3,2.4,6.2,3.1v7.7
					c-0.8-0.3-1.5-0.8-2.1-1.5s-1.1-1.6-1.3-2.6l-5.6,0.5c0.4,2.4,1.4,4.3,3,5.6c1.5,1.3,3.5,2.1,6,2.4v3.4h3.1v-3.4
					c2.8-0.4,5-1.3,6.5-2.8c1.6-1.5,2.3-3.4,2.3-5.7C140.7,422.3,140.1,420.7,138.8,419.4z M128.7,415.4c-0.9-0.3-1.6-0.8-2.1-1.4
					c-0.4-0.6-0.7-1.2-0.7-1.8c0-0.7,0.3-1.4,0.8-2s1.2-1,2-1.3L128.7,415.4L128.7,415.4z M134.4,427.4c-0.7,0.7-1.5,1.1-2.6,1.3
					v-7.2c1.3,0.3,2.2,0.8,2.8,1.4s0.8,1.3,0.8,2.1C135.4,425.9,135.1,426.7,134.4,427.4z"/>
			</g>
		</g>
		<polygon class="st17" points="297.3,237.7 307.9,277.2 316.8,268.3 339.1,290.6 350.2,279.5 327.9,257.2 336.8,248.3 		"/>
		<g>
			<path class="st13" d="M173,326.8c0,4.7-3.3,8.2-8.2,8.2H34.6c-4.9,0-9.6-3.5-9.6-8.2v-81.3c0-4.7,4.7-8.6,9.6-8.6h130.2
				c4.9,0,8.2,3.9,8.2,8.6L173,326.8L173,326.8z"/>
			<path class="st21" d="M75,265.9c0,4.5-3.6,8.1-8.1,8.1H45.1c-4.5,0-8.1-3.6-8.1-8.1V253c0-4.5,3.6-8.1,8.1-8.1H67
				c4.5,0,8.1,3.6,8.1,8.1L75,265.9L75,265.9z"/>
			<g>
				<g>
					<rect x="44" y="245" class="st22" width="5" height="30"/>
				</g>
				<g>
					<rect x="37" y="253" class="st22" width="12" height="3"/>
				</g>
				<g>
					<rect x="37" y="256" class="st22" width="12" height="3"/>
				</g>
				<g>
					<polygon class="st22" points="47.5,259 36.1,259 36.1,259 					"/>
				</g>
				<g>
					<polygon class="st22" points="47.5,262 36.1,262 36.1,262 					"/>
				</g>
			</g>
			<g>
				<g>
					<rect x="50" y="245" class="st22" width="0" height="29.3"/>
				</g>
				<g>
					<rect x="50" y="252" class="st22" width="25" height="1"/>
				</g>
				<g>
					<polygon class="st22" points="49.4,256 74.1,256 74.1,256 					"/>
				</g>
				<g>
					<polygon class="st22" points="50.9,259 74.8,259 74.8,259 					"/>
				</g>
				<g>
					<rect x="50" y="259" class="st22" width="25" height="3"/>
				</g>
			</g>
			<g class="st23">
				<path class="st21" d="M121.1,255.4v0.3c0,0.9-0.3,1.5-0.9,1.7v0c0.7,0.3,1,0.9,1,1.9v0.7c0,1.3-0.7,2.1-2.1,2.1H117v-8.7h2.1
					C120.4,253.4,121.1,254.1,121.1,255.4z M118.3,254.6v2.3h0.5c0.5,0,0.8-0.2,0.8-0.9v-0.5c0-0.6-0.2-0.9-0.7-0.9H118.3z
					 M118.3,258.2v2.7h0.8c0.5,0,0.7-0.2,0.7-0.9v-0.8c0-0.8-0.3-1.1-0.9-1.1H118.3z"/>
				<path class="st21" d="M126.4,262.1h-1.4l-0.2-1.6h-1.7l-0.2,1.6h-1.3l1.4-8.7h2L126.4,262.1z M123.3,259.3h1.3l-0.6-4.4h0
					L123.3,259.3z"/>
				<path class="st21" d="M128.3,255.8L128.3,255.8l0,6.3h-1.2v-8.7h1.7l1.4,5.2h0v-5.2h1.2v8.7H130L128.3,255.8z"/>
				<path class="st21" d="M134.2,258.6l-0.4,0.8v2.7h-1.4v-8.7h1.4v3.8h0l1.8-3.8h1.4l-1.9,3.9l1.9,4.8h-1.4L134.2,258.6z"/>
				<path class="st21" d="M140.7,255.8L140.7,255.8l0,6.3h-1.2v-8.7h1.7l1.4,5.2h0v-5.2h1.2v8.7h-1.4L140.7,255.8z"/>
				<path class="st21" d="M149.2,262.1h-1.4l-0.2-1.6h-1.7l-0.2,1.6h-1.3l1.4-8.7h2L149.2,262.1z M146.1,259.3h1.3l-0.6-4.4h0
					L146.1,259.3z"/>
				<path class="st21" d="M152.7,259.6L152.7,259.6l0.9-6.2h1.9v8.7h-1.3v-6.2h0l-0.9,6.2H152l-1-6.2h0v6.2h-1.2v-8.7h1.9
					L152.7,259.6z"/>
				<path class="st21" d="M157.9,257.1h1.9v1.2h-1.9v2.5h2.4v1.2h-3.7v-8.7h3.7v1.2h-2.4V257.1z"/>
			</g>
			<g class="st23">
				<path class="st21" d="M35.9,299.7c1.1,0,1.3-0.5,1.5-1.1h0.9v8.7h-1.4v-6.6h-1.1V299.7z"/>
				<path class="st21" d="M42,299.8c-0.4,0-0.7,0.2-0.7,0.9v0.9h-1.3v-0.8c0-1.4,0.7-2.2,2-2.2c1.3,0,2,0.8,2,2.2
					c0,1.2-0.4,2.1-1.7,3.4c-0.8,0.9-1,1.3-1,1.7c0,0.1,0,0.1,0,0.2h2.6v1.2h-4v-1.1c0-1,0.3-1.7,1.4-2.8c1-1.1,1.3-1.8,1.3-2.7
					C42.7,300,42.4,299.8,42,299.8z"/>
				<path class="st21" d="M47.5,300.8c0-0.8-0.3-1-0.7-1c-0.4,0-0.7,0.2-0.7,0.9v0.6h-1.3v-0.5c0-1.4,0.7-2.2,2-2.2
					c1.3,0,2,0.8,2,2.2v0.2c0,0.9-0.3,1.5-1,1.8v0c0.7,0.3,1,0.9,1,1.8v0.7c0,1.4-0.7,2.2-2,2.2c-1.3,0-2-0.8-2-2.2v-0.7h1.3v0.8
					c0,0.6,0.3,0.9,0.7,0.9c0.4,0,0.7-0.2,0.7-1v-0.7c0-0.8-0.3-1.1-0.9-1.1h-0.5v-1.2h0.5c0.5,0,0.8-0.2,0.8-0.9V300.8z"/>
				<path class="st21" d="M49.5,304.5l2.5-5.9h1.5v5.9h0.6v1.2h-0.6v1.6h-1.4v-1.6h-2.6V304.5z M52.1,304.5v-3.2h0l-1.3,3.2H52.1z"
					/>
				<path class="st21" d="M63.7,304.5v0.8c0,0.6,0.3,0.8,0.7,0.8c0.4,0,0.7-0.2,0.7-0.8v-1.9c0-0.6-0.3-0.9-0.7-0.9
					c-0.4,0-0.7,0.2-0.7,0.9v0.3h-1.3l0.2-5h3.6v1.2h-2.4l-0.1,2.1h0c0.2-0.4,0.6-0.6,1.2-0.6c1,0,1.5,0.7,1.5,2v1.9
					c0,1.4-0.7,2.2-2,2.2c-1.3,0-2-0.8-2-2.2v-0.7H63.7z"/>
				<path class="st21" d="M67.3,300.8c0-1.5,0.7-2.3,2.1-2.3c1.3,0,2,0.8,2,2.2v0.2h-1.3v-0.3c0-0.6-0.3-0.9-0.7-0.9
					c-0.5,0-0.8,0.2-0.8,1.1v1.6h0c0.2-0.5,0.6-0.8,1.2-0.8c1,0,1.5,0.7,1.5,2v1.6c0,1.4-0.7,2.2-2.1,2.2c-1.3,0-2.1-0.8-2.1-2.2
					V300.8z M68.7,303.7v1.6c0,0.6,0.3,0.8,0.7,0.8c0.4,0,0.7-0.2,0.7-0.8v-1.6c0-0.6-0.3-0.9-0.7-0.9
					C68.9,302.9,68.7,303.1,68.7,303.7z"/>
				<path class="st21" d="M76.3,298.6v1.2l-2,7.5h-1.4l2-7.5h-2.7v-1.2H76.3z"/>
				<path class="st21" d="M79.2,307.4c-1.4,0-2.1-0.8-2.1-2.2v-0.7c0-0.8,0.2-1.5,0.8-1.8v0c-0.6-0.3-0.8-0.9-0.8-1.7v-0.3
					c0-1.4,0.8-2.2,2.1-2.2s2.1,0.8,2.1,2.2v0.3c0,0.9-0.3,1.4-0.8,1.7v0c0.6,0.3,0.8,1,0.8,1.8v0.7
					C81.3,306.6,80.6,307.4,79.2,307.4z M78.4,301.2c0,0.7,0.3,0.9,0.8,0.9c0.4,0,0.8-0.2,0.8-0.9v-0.5c0-0.8-0.3-1-0.8-1
					c-0.4,0-0.8,0.2-0.8,1V301.2z M79.2,306.2c0.4,0,0.8-0.2,0.8-1v-0.8c0-0.7-0.3-1-0.8-1s-0.8,0.3-0.8,1v0.8
					C78.4,306,78.8,306.2,79.2,306.2z"/>
				<path class="st21" d="M90.6,300.8c0-0.8-0.3-1-0.7-1c-0.4,0-0.7,0.2-0.7,0.9v0.6h-1.3v-0.5c0-1.4,0.7-2.2,2-2.2
					c1.3,0,2,0.8,2,2.2v0.2c0,0.9-0.3,1.5-1,1.8v0c0.7,0.3,1,0.9,1,1.8v0.7c0,1.4-0.7,2.2-2,2.2c-1.3,0-2-0.8-2-2.2v-0.7h1.3v0.8
					c0,0.6,0.3,0.9,0.7,0.9c0.4,0,0.7-0.2,0.7-1v-0.7c0-0.8-0.3-1.1-0.9-1.1h-0.5v-1.2h0.5c0.5,0,0.8-0.2,0.8-0.9V300.8z"/>
				<path class="st21" d="M92.5,304.5l2.5-5.9h1.5v5.9h0.6v1.2h-0.6v1.6h-1.4v-1.6h-2.6V304.5z M95.2,304.5v-3.2h0l-1.3,3.2H95.2z"
					/>
				<path class="st21" d="M99,304.5v0.8c0,0.6,0.3,0.8,0.7,0.8c0.4,0,0.7-0.2,0.7-0.8v-1.9c0-0.6-0.3-0.9-0.7-0.9
					c-0.4,0-0.7,0.2-0.7,0.9v0.3h-1.3l0.2-5h3.6v1.2h-2.4l-0.1,2.1h0c0.2-0.4,0.6-0.6,1.2-0.6c1,0,1.5,0.7,1.5,2v1.9
					c0,1.4-0.7,2.2-2,2.2c-1.3,0-2-0.8-2-2.2v-0.7H99z"/>
				<path class="st21" d="M102.6,300.8c0-1.5,0.7-2.3,2.1-2.3c1.3,0,2,0.8,2,2.2v0.2h-1.3v-0.3c0-0.6-0.3-0.9-0.7-0.9
					c-0.5,0-0.8,0.2-0.8,1.1v1.6h0c0.2-0.5,0.6-0.8,1.2-0.8c1,0,1.5,0.7,1.5,2v1.6c0,1.4-0.7,2.2-2.1,2.2c-1.3,0-2.1-0.8-2.1-2.2
					V300.8z M104,303.7v1.6c0,0.6,0.3,0.8,0.7,0.8c0.4,0,0.7-0.2,0.7-0.8v-1.6c0-0.6-0.3-0.9-0.7-0.9
					C104.3,302.9,104,303.1,104,303.7z"/>
			</g>
		</g>
	</g>
</g>
</svg>
