<?xml version="1.0" encoding="utf-8"?>
<!-- Generator: Adobe Illustrator 20.0.0, SVG Export Plug-In . SVG Version: 6.00 Build 0)  -->
<svg version="1.1" id="Layer_1" xmlns="http://www.w3.org/2000/svg" xmlns:xlink="http://www.w3.org/1999/xlink" x="0px" y="0px"
	 viewBox="0 0 612 612" style="enable-background:new 0 0 612 612;" xml:space="preserve">
<style type="text/css">
	.st0{clip-path:url(#SVGID_2_);fill:#2CA1C6;}
	.st1{clip-path:url(#SVGID_2_);}
	.st2{fill:#FFFFFF;}
	.st3{fill:#F1F1F1;}
	.st4{fill:#F7BA78;}
	.st5{opacity:0.2;fill:#FDC887;}
	.st6{fill:#BDD3DE;}
	.st7{fill:#FDD095;}
	.st8{fill:#4AC3D2;}
	.st9{fill:#414042;}
	.st10{fill:#5B5B5C;}
	.st11{fill:#76878B;}
	.st12{fill:#A5A6AA;}
	.st13{fill-rule:evenodd;clip-rule:evenodd;fill:#F7F9F7;}
	.st14{fill:#DAD9D8;}
	.st15{fill:#E6E5E7;}
	.st16{opacity:0.1;fill:#F7F9F7;}
	.st17{opacity:0.35;fill:#FCC383;}
	.st18{fill:#221F1F;}
	.st19{fill:#FDD095;stroke:#221F1F;stroke-miterlimit:10;}
	.st20{fill:#3D3D40;}
	.st21{fill:#88A3B0;}
	.st22{fill:#0F1517;}
	.st23{opacity:0.7;fill:#FFFFFF;}
	.st24{fill:#1A6EA5;}
	.st25{opacity:0.4;fill:#FFFFFF;}
	.st26{opacity:0.6;fill:#FFFFFF;}
	.st27{opacity:0.3;fill:#FFFFFF;}
	.st28{fill:#41BBD7;}
	.st29{opacity:0.5;fill:#FFFFFF;}
	.st30{fill:#2FC1E2;}
	.st31{fill:none;stroke:#FFFFFF;stroke-width:2;stroke-miterlimit:10;}
	.st32{fill:none;stroke:#FFFFFF;stroke-width:2;stroke-miterlimit:10;stroke-dasharray:6.1575,6.1575;}
	.st33{fill:none;stroke:#FFFFFF;stroke-width:2;stroke-miterlimit:10;stroke-dasharray:6.0252,6.0252;}
	.st34{fill:none;stroke:#FFFFFF;stroke-width:2;stroke-miterlimit:10;stroke-dasharray:5.9967,5.9967;}
	.st35{fill:none;stroke:#FFFFFF;stroke-width:2;stroke-miterlimit:10;stroke-dasharray:6.024,6.024;}
	.st36{fill:none;stroke:#FFFFFF;stroke-width:2;stroke-miterlimit:10;stroke-dasharray:5.9466,5.9466;}
	.st37{fill:none;stroke:#FFFFFF;stroke-width:2;stroke-miterlimit:10;stroke-dasharray:5.9368,5.9368;}
	.st38{fill:none;stroke:#FFFFFF;stroke-width:2;stroke-miterlimit:10;stroke-dasharray:6.0514,6.0514;}
</style>
<g>
	<defs>
		<circle id="SVGID_1_" cx="306" cy="306" r="306"/>
	</defs>
	<clipPath id="SVGID_2_">
		<use xlink:href="#SVGID_1_"  style="overflow:visible;"/>
	</clipPath>
	<rect x="-16" y="-16" class="st0" width="644" height="644"/>
	<g id="social_flat" class="st1">
		<g id="cloud_2_">
			<circle class="st2" cx="53.6" cy="436.8" r="18.8"/>
			<circle class="st2" cx="88" cy="462.1" r="18.8"/>
			<circle class="st2" cx="82.3" cy="425.1" r="25.5"/>
			<circle class="st2" cx="112.1" cy="456" r="25.5"/>
			<circle class="st2" cx="62.4" cy="455.4" r="25.5"/>
			<circle class="st2" cx="34.9" cy="456" r="20.1"/>
			<circle class="st2" cx="112.7" cy="435.5" r="18.8"/>
			<circle class="st2" cx="135.8" cy="454" r="21.2"/>
			<rect x="46.1" y="442.4" class="st2" width="80.9" height="31.7"/>
			<rect x="74.1" y="427.6" class="st2" width="41.9" height="21.1"/>
		</g>
		<g id="cloud">
			<circle class="st2" cx="520.3" cy="375.5" r="14.4"/>
			<circle class="st2" cx="573.7" cy="391" r="15.5"/>
			<circle class="st2" cx="544.4" cy="367.2" r="19.6"/>
			<circle class="st2" cx="530.5" cy="391" r="19.6"/>
			<circle class="st2" cx="505.9" cy="389.9" r="15.4"/>
			<circle class="st2" cx="569.2" cy="369.7" r="12.7"/>
			<circle class="st2" cx="555.6" cy="398.1" r="12.7"/>
			<circle class="st2" cx="581" cy="388.4" r="16.2"/>
			<rect x="519" y="380.3" class="st2" width="62" height="24.3"/>
			<rect x="540.5" y="368.9" class="st2" width="32.1" height="16.2"/>
		</g>
		<g id="cloud_1_">
			<g>
				<circle class="st2" cx="508.6" cy="546.9" r="23.9"/>
				<circle class="st2" cx="487.9" cy="551.8" r="23.9"/>
				<circle class="st2" cx="325.6" cy="540.7" r="30.2"/>
				<circle class="st2" cx="462.3" cy="517.8" r="38.5"/>
				<circle class="st2" cx="459.6" cy="549" r="38.5"/>
				<circle class="st2" cx="360.9" cy="546.9" r="38.5"/>
				<circle class="st2" cx="408.7" cy="540.7" r="38.5"/>
				<circle class="st2" cx="359.7" cy="508.3" r="38.5"/>
				<circle class="st2" cx="409.7" cy="496.8" r="50"/>
				<rect x="321.2" y="532.8" class="st2" width="187.4" height="38.1"/>
			</g>
			<path class="st3" d="M367.1,470.6C367.1,470.6,367.1,470.6,367.1,470.6c-0.1,0-0.1,0-0.1,0c-1.8,6.5-2.8,13.4-2.8,20.5
				c0,10.9,2.3,21.3,6.5,30.7c-7.6,8.5-12.3,19.7-12.3,32c0,5.5,0.9,24.3,2.7,31.8c10.9,0,20.7-4.6,27.6-11.9
				c5.8,3.6,12.7,5.6,20,5.6c1.5,0,3-0.1,4.4-0.3c-2.2-11-3.5-27.2-3.9-34.3c-20.5-6.2-30.8-25.3-30.8-47.8
				c0-25.2,14.1-46,38.3-49.5c-1.1-0.2-2.3-0.3-3.4-0.4c-0.1,0-0.3,0-0.4,0c-0.5,0-0.9-0.1-1.4-0.1c-0.6,0-1.2,0-1.9,0
				C391.7,446.8,375.9,456.3,367.1,470.6z"/>
		</g>
		<g id="people">
			<path d="M340.7,561.1c0,0-3.2,4.7-8.5,5.7c-5.3,1-9,2.9-10,6.9c5.9,0.2,15.8,0,15.8,0l6.6-4.5l1.4,3.8l8.1-0.7l-1.5-11.2
				C352.6,561.1,343.2,561.8,340.7,561.1z"/>
			<path d="M359.7,560.7c0,0-2.3,5.2-7.3,7.1c-5.1,1.9-8.3,4.5-8.6,8.6c5.8-0.8,15.5-2.8,15.5-2.8l5.7-5.6l2,3.5l7.8-2.1l-3.4-10.7
				C371.4,558.6,362.3,560.9,359.7,560.7z"/>
			<path class="st4" d="M406.3,371.3c0,0-4.9-3.6-5.1-9.3c0-5.7,0-4.1,0-4.1h-12.3c0,0,0,1.5,0,4.1c0,2.6-2.7,9.3-4.9,10.4
				c2.3,5.9,6,14.2,6,14.2l5.1,18.4v-18.2C395.1,386.8,405,380.3,406.3,371.3z"/>
			<path class="st5" d="M388.8,361.9c0-2.6,0-4.1,0-4.1h12.3c0,0.4,0,1.5,0,4.1c0.1,2.5,1.1,4.6,2.2,6.2c-3.4,2.5-11.1,7-19.3,4.1
				C386.3,370.9,388.8,364.5,388.8,361.9z"/>
			<g>
				<path class="st6" d="M360.9,458.1c0,0,13.2-16,17.7-31c5.1-17.1-7.9-35.9,2.4-37c10.3-1.1,14.6,25.9,10.9,40.3
					c-3.7,14.4-21.5,34.1-21.5,34.1L360.9,458.1z"/>
				<path class="st7" d="M367.4,462.5c0,0-1.7,4.9-5.7,7c-1.1,0.8-1.3,0-0.7-0.7c0.7-0.7,1.4-1.7,1.5-1.8c0.1-0.1-1.9,1.5-2.7,2.1
					c-0.7,0.7-1.6,0-0.8-0.8c0.8-0.8,2.4-2.3,2.4-2.3s-2.8,2.3-3.6,2.8c-0.8,0.4-1.5-0.3-0.7-1c0.9-0.8,3.1-2.7,3.1-2.7
					s-2.3,2-3.3,2.4c-1,0.4-1.5-0.4-0.7-1.1c0.8-0.7,2.5-1.9,2.5-1.9s-1.3-0.1-2.3,0.6c-1.2,0.8-2.4,0-0.8-1.5c1-0.9,4.4-4.3,7.5-4
					C366.1,461.4,367.4,462.5,367.4,462.5z"/>
			</g>
			<g>
				<path class="st2" d="M377.7,377.6l13.2,6.3l1.4,2.4l2.2,15.1l-0.5-14.6l5.9-5.6l-0.2-0.3l16-5.4c0,0,18.7,2.9,26.5,24.1
					c7.9,21.1,5.4,63.1,5.4,63.1h-47.9c0,0-8.8-40.5-17.4-49.9C373.4,397.4,377.7,377.6,377.7,377.6z"/>
				<path class="st3" d="M399.8,462.7c0,0-6.6-30.2-13.9-44.5c0,0,0,0,0,0c17.1,12.9,36.8-5.1,36.8-5.1s0.9,5.9,0.9,15.3
					c0,22.6,13,34.3,13,34.3H399.8z"/>
				<path class="st8" d="M401.7,394.7l-7.6-7.9c0,0,12.3-10.9,12.4-16.9c4.8,1.6,9.8,5.5,9.8,5.5L401.7,394.7z"/>
				<path class="st8" d="M392.3,386.3c0,0-4.2,6.9-4.4,7.5c0,0-8.2-10.7-10.2-16.2c1.7-3.6,6.3-5.3,6.3-5.3L392.3,386.3z"/>
			</g>
			<path class="st9" d="M399.8,462.7c0,0,0.9,6.2-7.2,6.8c-5,0.3-29.6,2.7-41.6,13.5c-12,10.8-12.2,45.3-10.7,78.4
				c9.1,0,12.5,0,12.5,0s-1.7-63.2,10.8-67.8c12.5-4.5,52.1-7.4,55-7.7c2.9-0.3,28.7-10.8,29.1-23.2
				C427.2,462.7,399.8,462.7,399.8,462.7z"/>
			<path class="st9" d="M447.6,462.7c0,0,4.9,22.1-11.3,31.7c-20.3,12.1-58.2,6.6-63.7,15.9c-3.9,6.6,0.8,51,0.8,51h-15
				c0,0-6.4-54.5,1-65.1c7.4-10.6,37.8-15.7,46.7-16.2c8.9-0.5,13.5-17.3,13.5-17.3H447.6z"/>
			<path class="st10" d="M359.4,496.3c7.4-10.6,37.8-15.7,46.7-16.2c8.9-0.5,13.5-17.3,13.5-17.3h20.6c-0.3,3.4-7,22.4-24.2,25.7
				c-18.8,3.7-44.5-3.3-57.1,8.7C359.1,496.9,359.2,496.5,359.4,496.3z"/>
			<g>
				<path class="st11" d="M393.1,494.5c0,0,45.9-22.3,46.9-22.8c0.9-0.5,1.1-1.2,1.1-1.9c0-0.8,0-2.2,0-2.2l-48,20.7V494.5z"/>
				<path class="st12" d="M329.1,490.8c-2,1.1-1.9,2.1,0.3,2.1h62.2c2.2,0,3.7-1.9,3.7-1.9l44.2-22c2-1.1,1.9-2.1-0.3-2.1H376
					c-2.2,0-5.7,0.9-7.8,2.1L329.1,490.8z"/>
				<g>
					<path class="st13" d="M385.5,488.9l1.8,0c0.2,0,0.7-0.1,1-0.3l2.3-1.1c0.4-0.2,0.5-0.3,0.3-0.3l-1.8,0c-0.2,0-0.7,0.1-1,0.3
						l-2.3,1.1C385.4,488.7,385.3,488.9,385.5,488.9z"/>
					<path class="st13" d="M390,486.8l1.7,0c0.3,0,0.8-0.2,1.3-0.4l3.2-1.5c0.4-0.2,0.6-0.4,0.3-0.4l-1.7,0c-0.3,0-0.8,0.2-1.3,0.4
						l-3.2,1.5C389.9,486.7,389.8,486.8,390,486.8z"/>
					<path class="st13" d="M395.6,484.2l1.6,0c0.3,0,0.8-0.2,1.3-0.4l3.2-1.5c0.4-0.2,0.6-0.4,0.3-0.4l-1.6,0
						c-0.3,0-0.8,0.2-1.3,0.4l-3.2,1.5C395.5,484.1,395.4,484.2,395.6,484.2z"/>
					<path class="st13" d="M401.2,481.6l1.6,0c0.3,0,0.8-0.2,1.3-0.4l3.2-1.5c0.4-0.2,0.6-0.4,0.3-0.4l-1.7,0
						c-0.3,0-0.8,0.2-1.3,0.4l-3.2,1.5C401.1,481.5,401,481.6,401.2,481.6z"/>
					<path class="st13" d="M406.8,479.1l1.7,0c0.3,0,0.8-0.2,1.3-0.4l3.2-1.5c0.4-0.2,0.6-0.4,0.3-0.4l-1.6,0
						c-0.3,0-0.8,0.2-1.3,0.4l-3.2,1.5C406.7,478.9,406.6,479.1,406.8,479.1z"/>
					<path class="st13" d="M412.5,476.5l1.6,0c0.3,0,0.8-0.2,1.3-0.4l3.2-1.5c0.4-0.2,0.6-0.4,0.3-0.4l-1.7,0
						c-0.3,0-0.8,0.2-1.3,0.4l-3.2,1.5C412.4,476.3,412.2,476.5,412.5,476.5z"/>
					<path class="st13" d="M382.3,488.9l1.8,0c0.2,0,0.7-0.1,1-0.3l2.4-1.1c0.4-0.2,0.5-0.3,0.3-0.3l-1.8,0c-0.2,0-0.7,0.1-1,0.3
						l-2.3,1.1C382.2,488.8,382,488.9,382.3,488.9z"/>
					<path class="st13" d="M383.9,486.9l4.6,0c0.3,0,0.9-0.2,1.3-0.4l3.1-1.4c0.5-0.2,0.6-0.4,0.4-0.4l-4.6,0
						c-0.3,0-0.9,0.2-1.3,0.4l-3.1,1.4C383.8,486.7,383.6,486.9,383.9,486.9z"/>
					<path class="st13" d="M391.6,484.3l2.5,0c0.3,0,0.9-0.2,1.3-0.4l3.1-1.4c0.5-0.2,0.6-0.4,0.4-0.4l-2.5,0
						c-0.3,0-0.9,0.2-1.3,0.4l-3.1,1.4C391.5,484.1,391.3,484.3,391.6,484.3z"/>
					<path class="st13" d="M394.7,481.7l4.9,0c0.3,0,0.9-0.2,1.3-0.4l3.1-1.4c0.5-0.2,0.6-0.4,0.4-0.4l-4.9,0
						c-0.3,0-0.9,0.2-1.3,0.4l-3.1,1.4C394.6,481.5,394.5,481.7,394.7,481.7z"/>
					<path class="st13" d="M403.6,479.1l1.7,0c0.2,0,0.8-0.2,1.3-0.4l3.2-1.5c0.4-0.2,0.6-0.4,0.3-0.4l-1.7,0
						c-0.3,0-0.8,0.2-1.3,0.4l-3.2,1.5C403.5,478.9,403.4,479.1,403.6,479.1z"/>
					<path class="st13" d="M409.2,476.5l1.7,0c0.3,0,0.8-0.2,1.3-0.4l3.2-1.5c0.4-0.2,0.6-0.4,0.3-0.4l-1.7,0
						c-0.3,0-0.8,0.2-1.3,0.4l-3.2,1.5C409.1,476.3,409,476.5,409.2,476.5z"/>
					<path class="st13" d="M379.3,488.9l1.6,0c0.2,0,0.7-0.1,1-0.3l2.3-1.1c0.4-0.2,0.5-0.3,0.3-0.3l-1.6,0c-0.2,0-0.7,0.1-1,0.3
						l-2.4,1.1C379.2,488.8,379.1,488.9,379.3,488.9z"/>
					<path class="st13" d="M376.3,489l1.6,0c0.2,0,0.7-0.1,1-0.3l2.4-1.1c0.4-0.2,0.5-0.3,0.3-0.3l-1.6,0c-0.2,0-0.7,0.1-1,0.3
						l-2.4,1.1C376.2,488.8,376.1,489,376.3,489z"/>
					<path class="st13" d="M380.6,486.9l1.6,0c0.2,0,0.8-0.2,1.2-0.4l3.2-1.5c0.4-0.2,0.6-0.4,0.3-0.4l-1.6,0
						c-0.2,0-0.8,0.2-1.2,0.4l-3.2,1.5C380.5,486.7,380.4,486.9,380.6,486.9z"/>
					<path class="st13" d="M377.4,486.9l1.6,0c0.2,0,0.8-0.2,1.2-0.4l3.2-1.5c0.4-0.2,0.6-0.4,0.3-0.4l-1.6,0
						c-0.2,0-0.8,0.2-1.2,0.4l-3.2,1.5C377.3,486.8,377.1,486.9,377.4,486.9z"/>
					<path class="st13" d="M378.4,484.4l1.7,0c0.3,0,0.9-0.2,1.3-0.4l3.1-1.4c0.5-0.2,0.6-0.4,0.4-0.4l-1.7,0
						c-0.3,0-0.9,0.2-1.3,0.4l-3.1,1.4C378.2,484.2,378.1,484.4,378.4,484.4z"/>
					<path class="st13" d="M381.7,484.3l1.7,0c0.3,0,0.9-0.2,1.3-0.4l3.1-1.4c0.5-0.2,0.6-0.4,0.4-0.4l-1.7,0
						c-0.3,0-0.9,0.2-1.3,0.4L382,484C381.6,484.2,381.4,484.3,381.7,484.3z"/>
					<path class="st13" d="M385,484.3l1.7,0c0.3,0,0.9-0.2,1.3-0.4l3.1-1.4c0.5-0.2,0.6-0.4,0.4-0.4l-1.7,0c-0.3,0-0.9,0.2-1.3,0.4
						l-3.1,1.4C384.9,484.1,384.8,484.3,385,484.3z"/>
					<path class="st13" d="M388.3,484.3l1.7,0c0.3,0,0.9-0.2,1.3-0.4l3.1-1.4c0.5-0.2,0.6-0.4,0.4-0.4l-1.7,0
						c-0.3,0-0.9,0.2-1.3,0.4l-3.1,1.4C388.2,484.1,388.1,484.3,388.3,484.3z"/>
					<path class="st13" d="M378.2,481.8l1.7,0c0.3,0,0.9-0.2,1.3-0.4l3.1-1.4c0.5-0.2,0.6-0.4,0.4-0.4l-1.7,0
						c-0.3,0-0.9,0.2-1.3,0.4l-3.1,1.4C378.1,481.7,378,481.8,378.2,481.8z"/>
					<path class="st13" d="M381.5,481.8l1.7,0c0.3,0,0.9-0.2,1.3-0.4l3.1-1.4c0.5-0.2,0.6-0.4,0.4-0.4l-1.7,0
						c-0.3,0-0.9,0.2-1.3,0.4l-3.1,1.4C381.4,481.6,381.3,481.8,381.5,481.8z"/>
					<path class="st13" d="M384.9,481.8l1.7,0c0.3,0,0.9-0.2,1.3-0.4l3.1-1.4c0.5-0.2,0.6-0.4,0.4-0.4l-1.7,0
						c-0.3,0-0.9,0.2-1.3,0.4l-3.1,1.4C384.8,481.6,384.6,481.8,384.9,481.8z"/>
					<path class="st13" d="M388.2,481.8l1.7,0c0.3,0,0.9-0.2,1.3-0.4l3.1-1.4c0.5-0.2,0.6-0.4,0.4-0.4l-1.7,0
						c-0.3,0-0.9,0.2-1.3,0.4l-3.1,1.4C388.1,481.6,388,481.8,388.2,481.8z"/>
					<path class="st13" d="M391.5,481.7l1.7,0c0.3,0,0.9-0.2,1.3-0.4l3.1-1.4c0.5-0.2,0.6-0.4,0.4-0.4l-1.7,0
						c-0.3,0-0.9,0.2-1.3,0.4l-3.1,1.4C391.4,481.6,391.3,481.7,391.5,481.7z"/>
					<path class="st13" d="M375.6,479.3l1.7,0c0.3,0,0.9-0.2,1.3-0.4l3.1-1.4c0.5-0.2,0.6-0.4,0.4-0.4l-1.7,0
						c-0.3,0-0.9,0.2-1.3,0.4l-3.1,1.4C375.5,479.2,375.3,479.3,375.6,479.3z"/>
					<path class="st13" d="M378.9,479.3l1.7,0c0.3,0,0.9-0.2,1.3-0.4l3.1-1.4c0.5-0.2,0.6-0.4,0.4-0.4l-1.7,0
						c-0.3,0-0.9,0.2-1.3,0.4l-3.1,1.4C378.8,479.1,378.6,479.3,378.9,479.3z"/>
					<path class="st13" d="M382.2,479.3l1.7,0c0.3,0,0.9-0.2,1.3-0.4l3.1-1.4c0.5-0.2,0.6-0.4,0.4-0.4l-1.7,0
						c-0.3,0-0.9,0.2-1.3,0.4l-3.1,1.4C382.1,479.1,382,479.3,382.2,479.3z"/>
					<path class="st13" d="M385.6,479.2l1.7,0c0.3,0,0.9-0.2,1.3-0.4l3.1-1.4c0.5-0.2,0.6-0.4,0.4-0.4l-1.7,0
						c-0.3,0-0.9,0.2-1.3,0.4l-3.1,1.4C385.5,479.1,385.3,479.2,385.6,479.2z"/>
					<path class="st13" d="M388.9,479.2l1.7,0c0.3,0,0.9-0.2,1.3-0.4l3.1-1.4c0.5-0.2,0.6-0.4,0.4-0.4l-1.7,0
						c-0.3,0-0.9,0.2-1.3,0.4l-3.1,1.4C388.8,479,388.6,479.2,388.9,479.2z"/>
					<path class="st13" d="M392.2,479.2l1.7,0c0.3,0,0.9-0.2,1.3-0.4l3.1-1.4c0.5-0.2,0.6-0.4,0.4-0.4l-1.7,0
						c-0.3,0-0.9,0.2-1.3,0.4l-3.1,1.4C392.1,479,392,479.2,392.2,479.2z"/>
					<path class="st13" d="M395.6,479.2l1.7,0c0.3,0,0.9-0.2,1.3-0.4l3.1-1.4c0.5-0.2,0.6-0.4,0.4-0.4l-1.7,0
						c-0.3,0-0.9,0.2-1.3,0.4l-3.1,1.4C395.5,479,395.3,479.2,395.6,479.2z"/>
					<path class="st13" d="M398.9,479.1l3.1,0c0.3,0,0.9-0.2,1.3-0.4l3.1-1.4c0.5-0.2,0.6-0.4,0.4-0.4l-3.1,0
						c-0.3,0-0.9,0.2-1.3,0.4l-3.1,1.4C398.8,478.9,398.6,479.1,398.9,479.1z"/>
					<path class="st13" d="M377.8,476.8l1.7,0c0.3,0,0.9-0.2,1.3-0.4l3.1-1.4c0.5-0.2,0.6-0.4,0.4-0.4l-1.7,0
						c-0.3,0-0.9,0.2-1.3,0.4l-3.1,1.4C377.7,476.6,377.5,476.8,377.8,476.8z"/>
					<path class="st13" d="M381.1,476.7l1.7,0c0.3,0,0.9-0.2,1.3-0.4l3.1-1.4c0.5-0.2,0.6-0.4,0.4-0.4l-1.7,0
						c-0.3,0-0.9,0.2-1.3,0.4l-3.1,1.4C381,476.6,380.9,476.7,381.1,476.7z"/>
					<path class="st13" d="M384.5,476.7l1.7,0c0.3,0,0.9-0.2,1.3-0.4l3.1-1.4c0.5-0.2,0.6-0.4,0.4-0.4l-1.7,0
						c-0.3,0-0.9,0.2-1.3,0.4l-3.1,1.4C384.4,476.5,384.2,476.7,384.5,476.7z"/>
					<path class="st13" d="M387.8,476.7l1.7,0c0.3,0,0.9-0.2,1.3-0.4l3.1-1.4c0.5-0.2,0.6-0.4,0.4-0.4l-1.7,0
						c-0.3,0-0.9,0.2-1.3,0.4l-3.1,1.4C387.7,476.5,387.5,476.7,387.8,476.7z"/>
					<path class="st13" d="M391.1,476.7l1.7,0c0.3,0,0.9-0.2,1.3-0.4l3.1-1.4c0.5-0.2,0.6-0.4,0.4-0.4l-1.7,0
						c-0.3,0-0.9,0.2-1.3,0.4l-3.1,1.4C391,476.5,390.9,476.7,391.1,476.7z"/>
					<path class="st13" d="M394.5,476.6l1.7,0c0.3,0,0.9-0.2,1.3-0.4l3.1-1.4c0.5-0.2,0.6-0.4,0.4-0.4l-1.7,0
						c-0.3,0-0.9,0.2-1.3,0.4l-3.1,1.4C394.3,476.5,394.2,476.6,394.5,476.6z"/>
					<path class="st13" d="M397.8,476.6l1.7,0c0.3,0,0.9-0.2,1.3-0.4l3.1-1.4c0.5-0.2,0.6-0.4,0.4-0.4l-1.7,0
						c-0.3,0-0.9,0.2-1.3,0.4l-3.1,1.4C397.7,476.4,397.5,476.6,397.8,476.6z"/>
					<path class="st13" d="M401.1,476.6l3.1,0c0.3,0,0.9-0.2,1.3-0.4l3.1-1.4c0.5-0.2,0.6-0.4,0.4-0.4l-3.1,0
						c-0.3,0-0.9,0.2-1.3,0.4l-3.1,1.4C401,476.4,400.9,476.6,401.1,476.6z"/>
					<path class="st13" d="M406,476.5l1.7,0c0.2,0,0.8-0.2,1.3-0.4l3.2-1.5c0.4-0.2,0.6-0.4,0.3-0.4l-1.7,0c-0.3,0-0.8,0.2-1.3,0.4
						l-3.2,1.5C405.9,476.4,405.8,476.5,406,476.5z"/>
					<path class="st13" d="M388.8,472.7l17.3-0.2c0.3,0,0.9-0.2,1.3-0.4l7.3-3.1c0.5-0.2,0.6-0.4,0.4-0.4l-17.3,0.1
						c-0.3,0-0.9,0.2-1.3,0.4l-7.3,3.1C388.7,472.5,388.5,472.7,388.8,472.7z"/>
				</g>
				<polygon class="st11" points="393.1,494.5 328.3,494.5 326.8,491.7 393.1,492.5 				"/>
				<g>
					<path class="st14" d="M322.7,487.4c1.5,3,5,5.5,7.8,5.5h61.2c2.8,0,3.9-2.5,2.4-5.5l-23.3-47.5c-1.5-3-5-5.5-7.8-5.5h-61.2
						c-2.8,0-3.9,2.5-2.4,5.5L322.7,487.4z"/>
					<path class="st15" d="M392.5,489.9l-23.3-47.5c-1.5-3-5-5.5-7.8-5.5h-61.2c-0.6,0-1.1,0.1-1.5,0.3c0-1.7,1.1-2.9,3-2.9h61.2
						c2.8,0,6.3,2.5,7.8,5.5l23.3,47.5c1.2,2.4,0.7,4.4-0.9,5.2C393.1,491.8,392.9,490.9,392.5,489.9z"/>
				</g>
				<path class="st16" d="M301.7,434.4h61.2c1,0,2.1,0.3,3.1,0.9l-37.5,57.2c-2.3-0.8-4.7-2.8-5.9-5.1l-23.3-47.5
					C297.9,436.9,298.9,434.4,301.7,434.4z"/>
			</g>
			<g>
				<path class="st6" d="M399.7,464.5c0,0,15.1-16.3,20.7-32c6.4-17.9-6.3-38.7,4.8-39.3c11.1-0.6,14,28.5,9.2,43.6
					c-4.8,15.1-24.9,35.1-24.9,35.1L399.7,464.5z"/>
				<path class="st4" d="M408.7,471.1c0,0-3,7.5-9.6,10.5c-1.7,1.1-2.1-0.1-1-1.2c1.1-1.1,2.4-2.5,2.5-2.6c0.1-0.1-3.1,2.1-4.3,3.1
					c-1.2,0.9-2.5-0.1-1.2-1.3c1.3-1.2,3.9-3.3,3.9-3.3s-4.6,3.4-5.8,4c-1.2,0.6-2.3-0.5-0.9-1.7c1.4-1.1,5.1-4,5.1-4
					s-3.7,2.9-5.3,3.4c-1.6,0.6-2.3-0.8-1-1.8c1.3-1.1,4-2.7,4-2.7s-2-0.2-3.7,0.7c-2,1.1-3.7-0.3-1.2-2.3c1.6-1.2,7.3-6.3,12-5.6
					C406.6,469.3,408.7,471.1,408.7,471.1z"/>
			</g>
			<path class="st7" d="M398.9,368.2c0,0-16.1,2.8-23.2-10.2c-7.1-13-15.4-42.5-15.4-42.5s19.3-0.4,32.7-9.1
				c16.5,9.1,24.4,10.2,24.4,10.2S424.9,362.7,398.9,368.2z"/>
			<path class="st17" d="M382.2,311.5c1.6,4,2.8,7.2,2.8,7.2s0.1,4.7,0,13.2c-0.1,8.5-1.4,18.5,1.2,24.8c2.6,6.2,2.9,10.4,7.7,11.8
				c-5.3-0.2-13.7-2-18.3-10.5c-7.1-13-15.4-42.5-15.4-42.5S371.1,315.2,382.2,311.5z"/>
			<path class="st18" d="M417.7,341.9c0,0,7.2-16.7,5.7-32.2c-1.5-15.4-21.1-28.6-37.1-21.3c-22.6,10.3-39.7,6.7-39.7,6.7
				s6,23.3,15.4,25.8c29,7.8,39.7-6.3,39.7-6.3s4.1,12.5,10.5,18.9c3-9.8-0.5-17.8-0.5-17.8S420.1,335.9,417.7,341.9z"/>
			<path class="st19" d="M379.7,354.5c0,0,8.8,9.5,16.5,0"/>
			<path class="st19" d="M385.3,352.3c-2.9,0-8.4-2.8-4.6-6.9c3.4-3.8,4.3-11.8,4.3-11.8"/>
			<path class="st20" d="M392.9,302.7c-22.1,15.1-40.5,5.6-42,4.8c-2.8-6.3-4.3-12.3-4.3-12.3s17.1,3.6,39.7-6.7
				c16-7.3,35.6,5.9,37.1,21.3c1.5,15.4-5.7,32.2-5.7,32.2c0.2-0.6,0.3-3.3,0.4-4.2C426.8,287.7,395.4,301,392.9,302.7z"/>
			<g>
				<circle class="st2" cx="375.4" cy="334.7" r="3.5"/>
				<circle class="st21" cx="376.1" cy="335.3" r="2.6"/>
				<circle class="st22" cx="376.1" cy="335.7" r="1.4"/>
			</g>
			<g>
				<circle class="st2" cx="396.2" cy="334.7" r="3.5"/>
				<circle class="st21" cx="395.6" cy="335.3" r="2.6"/>
				<circle class="st22" cx="395.6" cy="335.7" r="1.4"/>
			</g>
		</g>
		<g id="icon">
			<g>
				<circle class="st23" cx="210.6" cy="168.6" r="30.7"/>
				<g>
					<g>
						<g>
							<polygon class="st24" points="215.5,152.5 205.7,152.5 205.7,167 199,167 210.7,178.7 222.3,167 215.5,167 							"/>
						</g>
					</g>
					<g>
						<rect x="197.6" y="182.1" class="st24" width="26.1" height="2.7"/>
						<rect x="197.6" y="180.1" class="st24" width="2.1" height="4.6"/>
						<rect x="221.6" y="180.1" class="st24" width="2.1" height="4.6"/>
					</g>
				</g>
			</g>
			<g>
				<circle class="st25" cx="280" cy="216.8" r="23.4"/>
				<g>
					<g>
						<path class="st24" d="M289.4,228.8L289.4,228.8l-1.1-2.9l2-2.3l3,0.6l0,0.1c0.6-1,1-2.1,1.4-3.3l0,0l-2.5-1.7l0.2-3l2.7-1.3
							l0,0c-0.1-1.1-0.4-2.2-0.8-3.3l0,0.1l-3,0.1l-1.6-2.6l1.5-2.6h0.1c-0.8-0.9-1.7-1.7-2.7-2.3v0l-2.4,1.8l-2.8-1.2l-0.4-3l0,0
							c-1.1-0.2-2.3-0.3-3.5-0.3l0,0l-0.9,2.9l-2.9,0.7l-2.1-2.2l0-0.1c-0.5,0.2-1.1,0.5-1.6,0.9c-0.5,0.3-0.9,0.6-1.4,0.9l0,0
							l1,2.9l-2,2.3l-3-0.6l0-0.1c-0.6,1-1,2.1-1.4,3.2l0.1,0l2.5,1.7l-0.3,3l-2.7,1.3l-0.1,0c0.1,1.2,0.4,2.3,0.8,3.4l0,0l3-0.1
							l1.6,2.6l-1.4,2.7h-0.1c0.8,0.9,1.7,1.7,2.7,2.3l0,0l2.4-1.9l2.8,1.2l0.4,3l0,0c1.2,0.2,2.3,0.3,3.5,0.3l0,0l0.9-2.9l2.9-0.7
							l2.1,2.2l0,0c0.5-0.2,1.1-0.5,1.6-0.9C288.5,229.4,288.9,229.1,289.4,228.8z M272.3,221.4c-2.6-4.2-1.2-9.8,3-12.3
							c4.3-2.6,9.8-1.2,12.4,3c2.6,4.2,1.2,9.8-3,12.4C280.5,227,274.9,225.7,272.3,221.4z"/>
						<path class="st24" d="M285.2,216.8c0,2.8-2.3,5.1-5.1,5.1c-2.8,0-5.1-2.3-5.1-5.1c0-2.8,2.3-5.1,5.1-5.1
							C282.9,211.6,285.2,213.9,285.2,216.8z"/>
					</g>
				</g>
			</g>
			<g>
				<circle class="st26" cx="420.2" cy="186.7" r="30.7"/>
				<path class="st24" d="M437.6,174.2h-34.7c-0.9,0-1.6,0.8-1.6,1.8v21.3c0,1,0.7,1.8,1.6,1.8h34.7c0.9,0,1.6-0.8,1.6-1.8V176
					C439.2,175,438.5,174.2,437.6,174.2z M420.2,188.6c0,0-16.8-12.5-18.1-13.6c1.4,0.9,18.1,10.6,18.1,10.6s16.3-9.7,17.7-10.5
					C436.7,176.2,420.2,188.6,420.2,188.6z"/>
			</g>
			<g>
				<circle class="st26" cx="206.7" cy="302" r="30.7"/>
				<g>
					<g>
						<g>
							<path class="st24" d="M200.5,304.3C200.5,304.3,200.5,304.3,200.5,304.3c-1-0.4-3.5-1.3-5-1.7c-0.1,0-0.1,0-0.1-0.6
								c0-0.4,0.2-0.9,0.4-1.3c0.2-0.4,0.4-1.1,0.5-1.7c0.2-0.3,0.5-0.8,0.7-1.8c0.2-0.9,0.1-1.2,0-1.5c0,0,0-0.1,0-0.1
								c0-0.2,0-1.3,0.2-2.1c0.1-0.6,0-1.8-0.8-2.8c-0.5-0.6-1.4-1.4-3.2-1.5l-0.9,0c-1.7,0.1-2.7,0.9-3.1,1.5
								c-0.8,1-0.9,2.2-0.8,2.8c0.2,0.8,0.2,1.9,0.2,2.1c0,0,0,0.1,0,0.1c-0.1,0.3-0.2,0.6,0,1.5c0.2,1,0.5,1.5,0.7,1.8
								c0.1,0.6,0.3,1.3,0.5,1.7c0.1,0.3,0.2,0.7,0.2,1.3c0,0.5,0,0.5-0.1,0.6c-1.6,0.5-4,1.4-5,1.8c0,0,0,0,0,0v3.9h15.9V304.3z"/>
						</g>
					</g>
					<g>
						<g>
							<path class="st24" d="M230.6,304.3C230.6,304.3,230.6,304.3,230.6,304.3c-1-0.4-3.5-1.3-5-1.7c-0.1,0-0.1,0-0.1-0.6
								c0-0.4,0.2-0.9,0.4-1.3c0.2-0.4,0.4-1.1,0.5-1.7c0.2-0.3,0.5-0.8,0.7-1.8c0.2-0.9,0.1-1.2,0-1.5c0,0,0-0.1,0-0.1
								c0-0.2,0-1.3,0.2-2.1c0.1-0.6,0-1.8-0.8-2.8c-0.5-0.6-1.4-1.4-3.2-1.5l-0.9,0c-1.7,0.1-2.7,0.9-3.1,1.5
								c-0.8,1-0.9,2.2-0.8,2.8c0.2,0.8,0.2,1.9,0.2,2.1c0,0,0,0.1,0,0.1c-0.1,0.3-0.2,0.6,0,1.5c0.2,1,0.5,1.5,0.7,1.8
								c0.1,0.6,0.3,1.3,0.5,1.7c0.1,0.3,0.2,0.7,0.2,1.3c0,0.5,0,0.5-0.1,0.6c-1.6,0.5-4,1.4-5,1.8c0,0,0,0,0,0v3.9h15.9V304.3z"/>
						</g>
					</g>
					<g>
						<g>
							<path class="st24" d="M218.6,309.8C218.6,309.8,218.6,309.8,218.6,309.8c-1.4-0.6-4.9-1.8-7-2.4c-0.2-0.1-0.2-0.1-0.2-0.8
								c0-0.6,0.3-1.2,0.5-1.8c0.3-0.6,0.6-1.5,0.7-2.4c0.3-0.4,0.8-1.1,1-2.5c0.2-1.2,0.1-1.7,0-2.1c0,0,0-0.1,0-0.1
								c-0.1-0.3,0-1.8,0.2-3c0.1-0.8,0-2.5-1.1-3.9c-0.7-0.9-2-2-4.5-2.1l-1.3,0c-2.4,0.2-3.7,1.2-4.4,2.1
								c-1.1,1.4-1.3,3.1-1.1,3.9c0.2,1.2,0.3,2.7,0.2,3c0,0,0,0.1,0,0.1c-0.2,0.4-0.3,0.9,0,2.1c0.3,1.4,0.7,2.1,1,2.5
								c0.1,0.9,0.4,1.8,0.7,2.4c0.2,0.4,0.3,1,0.3,1.8c0,0.7,0,0.8-0.2,0.8c-2.2,0.6-5.7,1.9-7,2.5c0,0,0,0,0,0v5.5h22.3V309.8z"/>
						</g>
					</g>
				</g>
			</g>
			<g>
				<circle class="st27" cx="384" cy="122.1" r="23.4"/>
				<path class="st24" d="M399.5,120.2c-0.3-2.6-1.3-5-2.8-7.2c-2.5-3.4-5.9-5.6-10.1-6.3c-0.8-0.1-1.7-0.2-2.5-0.3h-0.2
					c-0.8,0.1-1.6,0.1-2.4,0.3c-8.1,1.2-13.9,8.9-13,17.1c0.4,3.9,2.1,7.2,5,9.9c3.4,3.1,7.5,4.5,12.2,4.1c3.6-0.3,6.7-1.8,9.2-4.3
					C398.5,129.8,400.1,125.3,399.5,120.2 M396.2,128.2c-0.4-0.7-0.9-1.7-1.1-2.5c-0.3-1.2-1.1,0-1.2,0.7c-0.1,0.8-0.6,1.4-1.6,0.2
					c-1-1.2-1.2-0.9-1.6-0.9c-0.3,0-0.9,0.8-0.8,4.4c0.1,2.6,1.1,3,1.8,3.2c-1.2,0.9-2.7,1.5-4.3,1.9c-6.1,1.6-12.4-1.3-15.3-6.9
					c-2.7-5.2-1.4-11.1,1.4-14.4c0.1,0.6,0.1,1.1,0.2,1.6c0.2,1.4,0,2.9-0.3,4.3c-0.1,0.3,0,0.6,0,0.9c0,0.2,0.3,0.4,0.5,0.4
					c0.1,0,0.4-0.2,0.4-0.4c0.1-0.3,0.1-0.6,0.1-0.9c0-0.2,0-0.4,0-0.8c0.2,0.2,0.4,0.3,0.5,0.4c0.3,0.3,0.7,0.7,1,1
					c0.1,0.2,0.3,0.4,0.3,0.6c0,0.4,0.2,0.7,0.4,1c0.2,0.4,0.4,0.8,0.5,1.3c0.1,0.2,0.1,0.4,0.2,0.5c0.2,0.4,0.4,0.6,0.9,0.6
					c0.5,0,0.6,0.2,0.7,0.7c-0.1,0-0.2,0-0.4,0c-0.6,0.1-0.9,0.3-0.8,0.9c0,1.1,0.5,2.1,1.3,2.9c0.2,0.2,0.5,0.4,0.7,0.6
					c0.5,0.5,0.7,1.1,0.5,1.8c-0.1,0.3-0.3,0.7-0.3,1c-0.1,0.4-0.1,0.7,0,1.1c0.1,0.4,0,1.2,0.4,1.1c0.7-0.1,1,0,1.1-0.7
					c0-0.1,0-0.2,0-0.3c-0.2-0.7,0.7-2.7,1.2-3c0.5-0.3,0.9-0.6,1.3-1c0.6-0.5,0.9-1.2,0.6-2c-0.2-0.7,0-1.3,0.6-1.7
					c0.5-0.5,0.9-1,0.8-1.8c0-0.7-0.5-1.3-1.2-1.2c-0.3,0-0.6,0.2-0.9,0.3c-0.4,0.1-0.9,0.4-1.3,0.4c-0.6,0.1-1-0.3-1.3-0.8
					c-0.2-0.4-0.3-0.4-0.7-0.2c-0.3,0.2-0.7,0.4-1,0.6c-0.4,0.2-0.6,0.1-0.8-0.2c-0.2-0.2-0.4-0.3-0.6-0.4c-0.2-0.1-0.4-0.1-0.5-0.2
					c-0.2-0.2-0.4-0.4-0.4-0.6c0-0.2,0.3-0.5,0.5-0.5c0.3-0.1,0.7-0.2,1.1-0.2c0.2,0,0.4-0.1,0.6-0.2c0.3-0.1,0.2-0.3,0-0.4
					c-0.1-0.1-0.2-0.1-0.3-0.2c-0.6-0.2-1.1-0.4-1.7-0.7c-0.1-0.1-0.3-0.1-0.4-0.2c-0.4-0.2-0.4-0.5-0.1-0.8c1.3-1.1,2.8-1.5,4.1,0
					c0.4,0.5,0.7,1,1.1,1.5c0.3,0.4,0.7,0.7,1,1c0.2,0.1,0.5,0.1,0.7,0c0.3-0.1,0.3-0.5,0.1-0.8c-0.1-0.2-0.3-0.5-0.4-0.7
					c-0.8-1-0.7-2.9,0.8-3.7c0.5-0.3,1-0.5,1.2-1.3c-0.3,0.1-0.5,0.1-0.7,0.2c-1.1,0.3-0.3-0.5,0.2-0.6c0.3-0.1-0.3-0.3-0.3-0.3
					c0,0,0.4-0.1,0.8-0.3c0.3-0.1,0.6-0.3,0.8-0.5c0.2-0.1,0.2-0.4,0.3-0.6c0,0-0.1-0.1-0.1-0.1c-0.3,0-0.6,0.1-0.9,0.1
					c-0.5,0.1-0.6,0-0.7-0.6c0-0.3-0.4-0.5-0.7-0.4c-0.2,0.1-0.4,0.3-0.6,0.4c-0.5,0.3-0.9,0.2-1.1-0.4c-0.1-0.3-0.3-0.4-0.6-0.2
					c-0.2,0.1-0.3,0.2-0.4,0.3c-0.3,0.1-0.5,0.3-0.8,0.4c-0.3,0.1-0.6,0.2-0.8-0.1c-0.2-0.3,0-0.6,0.2-0.8c0.3-0.2,0.7-0.4,1-0.6
					c0.5-0.3,1-0.5,1.5-0.8c0.3-0.2,0.5-0.6,0.4-1c-0.1-0.4-0.3-0.5-0.7-0.3c-0.3,0.1-0.5,0.3-0.8,0.5c-0.2,0.1-0.5,0.1-0.7,0
					c-0.1,0-0.2-0.2-0.2-0.4c0-0.1,0.2-0.2,0.2-0.2c0.7-0.1,1.4-0.2,2.1-0.3c0.1,0,0.2,0,0.3,0.1c0.5,0.6,1.1,0.8,1.7,1
					c0.6,0.2,0.6,0.1,0.7-0.5c0.7-0.2,1.4-0.5,2.2,0c0.4,0.3,0.8,0.6,1.1,0.9c0.1,0.1,0,0.3,0,0.5c-0.1,0.2-0.2,0.4-0.2,0.6
					c-0.1,0.4,0.2,0.8,0.6,0.8c0.1,0,0.3,0,0.4,0c0.4,0,0.6,0.1,0.5,0.6c-0.1,0.6,0,0.7,0.6,0.6c0.2,0,0.4,0,0.5,0.1
					c0.1,0,0.2,0.1,0.3,0.2c0.6,0.4,1,0.3,1.1-0.4c0-0.1,0-0.2,0-0.2c0.1-0.3,0.2-0.4,0.4-0.2c0.4,0.5,0.8,1,1.3,1.5
					c-0.5,0.4-0.5,1-0.4,1.5c0.1,0.6,0,1.1-0.3,1.6c-0.2,0.5-0.5,1-0.6,1.5c-0.2,0.8,0,1.1,0.8,1.3c0.7,0.2,0.9,0.3,0.9,1
					c0,1,0.5,1.7,1.4,2.1c0.2,0.1,0.4,0.2,0.6,0.3C397.4,125.1,396.9,126.7,396.2,128.2"/>
			</g>
			<g>
				<g>
					<path class="st28" d="M289.2,131.8c2.9-2.9,7.3-3.3,10.7-1.3c-1.1,1.1-2.4,2.4-2.4,2.4c-0.9,1.1,0.1,1.7,0.6,1.7l6.1,0
						c0.3,0,0.6,0,0.6,0h0.6h1.2c0.3,0,0.6-0.3,0.6-0.6v-8.4c0-0.8-0.8-1.5-1.7-0.7c0,0-1.4,1.4-2.4,2.4c-5.1-3.7-12.3-3.3-16.9,1.3
						c-2.7,2.7-3.9,6.3-3.8,9.8h4.4C286.5,136.1,287.3,133.6,289.2,131.8"/>
					<path class="st28" d="M303.7,137c0.2,2.4-0.7,4.9-2.5,6.7c-2.9,2.9-7.3,3.3-10.7,1.3c1.1-1.1,2.4-2.4,2.4-2.4
						c0.9-1.1-0.1-1.7-0.6-1.7l-6.1,0c-0.3,0-0.6,0-0.6,0h-0.6h-1.2c-0.3,0-0.6,0.3-0.6,0.6v8.4c0,0.8,0.8,1.5,1.7,0.7
						c0,0,1.4-1.4,2.4-2.4c5.1,3.7,12.3,3.3,16.9-1.3c2.7-2.7,3.9-6.3,3.8-9.8L303.7,137L303.7,137z"/>
				</g>
			</g>
			<g>
				<g>
					<path class="st28" d="M499.7,169.1c1.9-0.6,3.9,0.3,4.6,2.2c0.6,1.9-0.3,3.9-2.2,4.6c-1.9,0.6-3.9-0.3-4.6-2.2
						C496.9,171.8,497.9,169.7,499.7,169.1"/>
					<path class="st28" d="M506.2,161.5c-0.1,0-0.1-0.1-0.2-0.1l-0.2-0.1c0,0-0.1,0-0.1,0c-5.8-2.5-12.4,0-15.1,5.6l-0.3,0.7
						l-0.4,0.9c-0.5,1.1-0.1,2.5,1,3c1.1,0.5,2.5,0.1,3-1l0.8-1.6c1.7-3.6,6.1-5.1,9.6-3.3l1.1,0.5c1.1,0.5,2.4,0.1,3-1
						c0.3-0.5,0.3-1.1,0.1-1.7c-0.2-0.6-0.6-1-1.1-1.3L506.2,161.5z"/>
					<path class="st28" d="M510.5,155.3l-0.9-0.5c0,0,0,0,0,0l-0.7-0.4c-0.1-0.1-0.3-0.1-0.4-0.1c-9.3-3.8-20.1,0.2-24.7,9.2
						c0,0-0.1,0.1-0.1,0.1l-0.8,1.7c-0.5,1-0.1,2.2,1,2.7c1,0.5,2.2,0.1,2.7-0.9l0.8-1.7c0,0,0,0,0,0c3.7-7.3,12.6-10.4,20-7.1
						l1.3,0.7c1,0.5,2.2,0.1,2.7-1C511.9,157.1,511.5,155.8,510.5,155.3"/>
				</g>
			</g>
			<path class="st28" d="M418.8,253.7c-0.3,0.2-0.4,0.4-0.4,0.7c0,0.3,0.2,0.6,0.4,0.7l2.5,2.7c0,8.4,5.6,13.6,13.7,13.6
				c7,0,12.5-7.4,12.5-12.5c0-2.3-0.9,0.3-2.7,1.4c-1.9,1.2-7.3,2-7.1-3.6c0.1-0.4,0.1-0.9,0.1-1.4c0-4.6-2.9-8.6-7.4-8.6
				c-4.1,0-7.2,2.4-7.9,5.2L418.8,253.7 M425.9,255.1c-0.7,0-1.2-0.5-1.2-1.2c0-0.7,0.5-1.2,1.2-1.2c0.7,0,1.2,0.5,1.2,1.2
				C427.1,254.6,426.5,255.1,425.9,255.1"/>
			<path class="st28" d="M230.9,236.9l-12.8-5.7l10.3-24.1L213.1,229l-11.1-5l29.6-21.9L230.9,236.9z M214.4,240.7l-1.9-8.2l7.1,2.7
				L214.4,240.7z"/>
			<g>
				<g>
					<path class="st28" d="M255.2,291.9l-1.4,1.5l3.1,3l1.4-1.5c1.4,0.9,2.9,1.5,4.6,1.8l0,2.1l4.3-0.1l0-2.1c1.7-0.3,3.2-1,4.5-2
						l1.5,1.4l3-3.1l-1.5-1.4c0.9-1.4,1.5-2.9,1.8-4.6l2.1,0l-0.1-4.3l-2.1,0c-0.3-1.7-1-3.2-1.9-4.5l1.4-1.5l-3.1-3l-1.4,1.5
						c-1.4-0.9-2.9-1.5-4.6-1.8l0-2.1l-4.3,0.1l0,2.1c-1.7,0.3-3.2,1-4.5,2l-1.5-1.4l-3,3.1l1.5,1.4c-0.9,1.4-1.5,2.9-1.8,4.6
						l-2.1,0l0.1,4.3l2.1,0C253.6,289,254.3,290.6,255.2,291.9 M264.8,276.3c4.8-0.1,8.8,3.8,8.9,8.6c0.1,4.8-3.8,8.8-8.6,8.9
						c-4.8,0.1-8.8-3.8-8.9-8.6C256.1,280.3,259.9,276.3,264.8,276.3"/>
					<path class="st28" d="M289.2,266.3l1.3-0.6l-1.4-3.2l-1.3,0.6c-0.6-0.8-1.3-1.4-2.1-2l0.5-1.3l-3.2-1.2l-0.5,1.3
						c-0.9-0.1-1.9-0.1-2.8,0.1l-0.6-1.3l-3.2,1.4l0.6,1.3c-0.8,0.6-1.4,1.3-2,2.1l-1.3-0.5l-1.2,3.2l1.3,0.5
						c-0.1,1-0.1,1.9,0.1,2.8l-1.3,0.6l1.4,3.2l1.3-0.6c0.6,0.8,1.3,1.4,2.1,2l-0.5,1.3l3.2,1.2l0.5-1.3c0.9,0.1,1.9,0.1,2.8-0.1
						l0.6,1.3l3.2-1.4l-0.6-1.3c0.8-0.6,1.4-1.3,2-2.1l1.3,0.5l1.2-3.2l-1.3-0.5C289.5,268.2,289.4,267.2,289.2,266.3 M283.5,272.9
						c-0.7,0.3-1.4,0.5-2.1,0.5c-2.2,0-4.2-1.2-5-3.2c-1.2-2.7,0-5.9,2.8-7.2c0.7-0.3,1.4-0.5,2.1-0.5c2.2,0,4.2,1.2,5,3.2
						C287.5,268.5,286.3,271.7,283.5,272.9"/>
				</g>
			</g>
			<polygon class="st28" points="475.7,343 463.7,355 459.2,350.5 454.5,355.2 459,359.7 463.7,364.4 468.4,359.7 480.4,347.7 			
				"/>
			<path class="st28" d="M139.1,173.3l0.8,0.6c1.2,0.9,2.8,0.6,3.7-0.5l7.1-9.5c0.2-0.2,0.3-0.5,0.4-0.7c2.5,0.9,5.4,0.8,8.1-0.5
				c5.3-2.5,7.6-8.7,5.2-13.9c-2.4-5.1-8.7-7.3-14-4.8c-5.3,2.5-7.6,8.7-5.2,13.9c0.3,0.6,0.6,1.2,1,1.7c-0.2,0.1-0.3,0.3-0.5,0.5
				l-7.1,9.5C137.7,170.8,137.9,172.5,139.1,173.3z M151.7,147.1c3.6-1.7,7.9-0.3,9.6,3.2c1.7,3.5,0,7.7-3.6,9.5
				c-3.6,1.7-7.9,0.3-9.6-3.2C146.4,153.1,148,148.8,151.7,147.1z"/>
			<path class="st28" d="M132.2,288h-23.6c-2,0-3.6,1.6-3.6,3.6v12.7c0,2,1.6,3.6,3.6,3.6h1.8v6.4c0,0.2,0.1,0.5,0.3,0.6
				c0.4,0.4,0.9,0.4,1.3,0l7.5-7h12.7c2,0,3.6-1.6,3.6-3.6v-12.7C135.8,289.6,134.2,288,132.2,288 M111.3,293.4h14.5
				c0.5,0,0.9,0.4,0.9,0.9c0,0.5-0.4,0.9-0.9,0.9h-14.5c-0.5,0-0.9-0.4-0.9-0.9C110.4,293.8,110.8,293.4,111.3,293.4 M118.6,302.5
				h-7.3c-0.5,0-0.9-0.4-0.9-0.9c0-0.5,0.4-0.9,0.9-0.9h7.3c0.5,0,0.9,0.4,0.9,0.9C119.5,302.1,119.1,302.5,118.6,302.5
				 M129.5,298.9h-18.2c-0.5,0-0.9-0.4-0.9-0.9c0-0.5,0.4-0.9,0.9-0.9h18.2c0.5,0,0.9,0.4,0.9,0.9
				C130.4,298.5,130,298.9,129.5,298.9"/>
			<g>
				<g>
					<path class="st28" d="M206.7,89.8c-6.3,0-11.4,5.1-11.4,11.4c0,6.3,11.4,21,11.4,21s11.4-14.7,11.4-21
						C218.1,94.9,213,89.8,206.7,89.8z M206.7,103c-2,0-3.5-1.6-3.5-3.5c0-2,1.6-3.5,3.5-3.5c2,0,3.5,1.6,3.5,3.5
						C210.2,101.4,208.6,103,206.7,103z"/>
				</g>
			</g>
			<path class="st28" d="M442.5,128.3l6.4-12c1.8-3.4,0.9-6.9-2.1-8.6l-2.4-1.3c-3-1.6-6.3-0.4-8.2,3.1l-7.1,13.4
				c-1.4,2.7-0.5,6.1,2.2,7.5c0,0,0.1,0,0.1,0.1c2.7,1.4,6,0.4,7.5-2.2l5-9.4c1-2,0.4-4.3-1.5-5.3l-0.4-0.2c-1.9-1-4.1-0.2-5.1,1.8
				l-4.1,7.8l1.8,1l4.1-7.8c0.4-0.8,1.3-1.4,2.3-0.9l0.4,0.2c0.9,0.5,1.2,1.5,0.7,2.5l-4.9,9.2c-0.9,1.7-3,2.4-4.7,1.4
				c-0.9-0.5-1.5-1.3-1.8-2.3c-0.1-0.8,0-1.9,0.8-3.4l6.7-12.5c1.6-2.9,3.8-3.1,5.3-2.2l2.4,1.3c2.3,1.2,2.3,3.8,1.2,5.8l-6.4,12.1
				L442.5,128.3z"/>
			<g>
				<circle class="st29" cx="482.6" cy="81.7" r="30.7"/>
				<g>
					<g>
						<polygon class="st24" points="466.6,98.2 471.4,93.1 490.9,93.1 490.9,87.7 473.2,87.7 472.2,87.7 472.2,86.7 472.2,74.9 
							463.7,74.9 463.7,93.1 466.6,93.1 						"/>
						<path class="st24" d="M493.5,86.6l4.9,5.4v-5.4h3V67.8h-28.2v7.1v11.8h17.6H493.5z M496.8,75.3c1.2,0,2.1,1,2.1,2.1
							c0,1.2-1,2.1-2.1,2.1c-1.2,0-2.1-1-2.1-2.1C494.6,76.2,495.6,75.3,496.8,75.3 M478.7,79.5c-1.2,0-2.1-1-2.1-2.1
							c0-1.2,1-2.1,2.1-2.1c1.2,0,2.1,1,2.1,2.1C480.9,78.6,479.9,79.5,478.7,79.5 M484.8,79.5c-1.2,0-2.1-1-2.1-2.1
							c0-1.2,1-2.1,2.1-2.1c1.2,0,2.1,1,2.1,2.1C486.9,78.6,485.9,79.5,484.8,79.5 M490.8,79.5c-1.2,0-2.1-1-2.1-2.1
							c0-1.2,1-2.1,2.1-2.1c0,0,0.1,0,0.1,0c1.1,0.1,2,1,2,2.1c0,1.1-0.9,2.1-2,2.1C490.8,79.5,490.8,79.5,490.8,79.5"/>
					</g>
				</g>
			</g>
			<g>
				<circle class="st23" cx="527.8" cy="228.5" r="30.7"/>
				<path class="st24" d="M551.1,234c0-2.9-1.4-5.4-3.6-6.9c-0.1-10.8-8.9-19.6-19.7-19.6c-10.8,0-19.6,8.8-19.7,19.6
					c-2.2,1.5-3.6,4-3.6,6.9c0,4.6,3.6,8.3,8.1,8.4c0,0.7,0.5,1.2,1.2,1.2h3.5c0.7,0,1.2-0.5,1.2-1.2v-16.9c0-0.7-0.5-1.2-1.2-1.2
					h-3.5c-0.7,0-1.2,0.5-1.2,1.2c-0.4,0-0.9,0.1-1.3,0.2c0.8-8.4,7.8-15,16.4-15c8.6,0,15.7,6.6,16.4,15c-0.4-0.1-0.9-0.2-1.3-0.2
					c0-0.7-0.5-1.2-1.2-1.2h-3.5c-0.7,0-1.2,0.5-1.2,1.2v16.9c0,0.7,0.5,1.2,1.2,1.2h3.5c0.7,0,1.2-0.5,1.2-1.2
					c0.9,0,1.8-0.2,2.6-0.5l1.7-0.8C549.5,239.6,551.1,237,551.1,234"/>
			</g>
			<g>
				<circle class="st23" cx="170" cy="64.9" r="32.4"/>
				<g>
					<polygon class="st24" points="169.6,77.7 170,73.5 160.3,73.5 160.6,77.7 					"/>
					<polygon class="st24" points="171.4,72.1 180.2,72.1 182.1,64.9 172,64.9 					"/>
					<polygon class="st24" points="150.4,73.5 151.5,77.7 159.3,77.7 158.9,73.5 					"/>
					<polygon class="st24" points="179.9,73.5 171.3,73.5 171,77.7 178.8,77.7 					"/>
					<path class="st24" d="M186.8,52.1c-0.4,0-0.8,0.2-1.1,0.4c-0.2,0.1-0.3,0.2-0.5,0.4c-1.8,1.8-3.7,3.7-5.5,5.5
						c-0.2,0.2-0.3,0.4-0.4,0.6h-6.8l-0.4,4.5h10.3l0.8-2.9c1.5-1.5,2.9-3,4.4-4.3h3.5c2.7,0,2.7-4.3,0-4.3H186.8z"/>
					<polygon class="st24" points="159.5,63.6 170.8,63.6 171.1,59.1 159.1,59.1 					"/>
					<polygon class="st24" points="158.8,72.1 158.2,64.9 148.2,64.9 150,72.1 					"/>
					<polygon class="st24" points="146.6,59.1 147.8,63.6 158.1,63.6 157.7,59.1 					"/>
					<polygon class="st24" points="170.6,64.9 159.6,64.9 160.2,72.1 170.1,72.1 					"/>
					<path class="st24" d="M155.6,78.9c2,0,3.6,1.6,3.6,3.6c0,2-1.6,3.6-3.6,3.6c-2,0-3.6-1.6-3.6-3.6
						C152,80.5,153.6,78.9,155.6,78.9"/>
					<path class="st24" d="M174.6,78.9c2,0,3.6,1.6,3.6,3.6c0,2-1.6,3.6-3.6,3.6c-2,0-3.6-1.6-3.6-3.6
						C171.1,80.5,172.7,78.9,174.6,78.9"/>
				</g>
			</g>
			<g>
				<circle class="st27" cx="104.9" cy="248.6" r="30.7"/>
				<path class="st24" d="M112.1,249.1l1.5-7.4l0.2-1.2l-1.2,0c-0.7,0-1.3,0-1.9,0c-7,0-9.6,1.3-11.5,3.2c-2.1,2.2-3.5,5.6-3.5,8.5
					c0,3.1,2.7,5.4,6.5,5.4c2.5,0,3.9-0.7,5.4-1.7c1.4,1.1,2.5,1.7,5,1.7c3.3,0,6-1.5,7.9-4.4c1.4-2.1,2.2-5.1,2.2-7.8
					c0-5.9-3.1-9.4-5.7-11.2c-2.9-2.1-6.9-3.4-10.6-3.4c-7.5,0-12.1,3.7-14.6,6.8c-3,3.7-4.8,8.7-4.8,13.7c0,4.8,1.9,8.8,5.4,11.5
					c3,2.3,7,3.5,11.2,3.5c5.2,0,10.5-1.3,15.2-3.9l0.9-0.5l-0.4-0.9l-1.4-3.1l-0.5-1l-1,0.5c-3.6,1.9-7.6,3.6-12.5,3.6
					c-3.2,0-5.9-0.9-7.8-2.6c-1.9-1.7-2.9-4.2-2.9-7.2c0-10.1,6.4-15.4,12.7-15.4c3.1,0,5.7,0.9,7.6,2.7c1.9,1.7,2.8,4.2,2.8,7
					c0,1.1-0.2,2.9-0.9,4.4c-0.7,1.6-1.7,2.4-2.9,2.4c-0.7,0-1-0.3-1-0.9c0-0.4,0.2-1.4,0.3-2C112.1,249.4,112.1,249.2,112.1,249.1
					 M106.6,245.9c-1.3,5.4-3,6.6-4.1,6.6c-0.2,0-0.5,0-0.5-0.5c0-1.6,1.1-3.9,2.4-5.2C104.9,246.3,105.7,246,106.6,245.9"/>
			</g>
			<g>
				<circle class="st27" cx="467.4" cy="301.6" r="23.4"/>
				<path class="st24" d="M469.5,285.5h-2.2v21.1c-1.2-0.7-2.7-1.1-4.4-1.1c-3.7,0-6.7,2-6.7,4.4c0,2.5,3,4.4,6.7,4.4
					c3.7,0,6.7-2,6.7-4.4v-17.8c5.5-0.9,8.9,5.5,11.1,8.9C479.2,285.5,469.5,285.5,469.5,285.5"/>
			</g>
			<g>
				<rect x="407.9" y="34" class="st30" width="5.1" height="2.2"/>
				<path class="st30" d="M389.2,56.7h26.9V37h-26.9V56.7z M407.7,39.2h5.6v3.3h-5.6V39.2z M391.5,46.8c0-0.3,0-0.5,0-0.8
					c0-0.3,0.1-0.5,0.1-0.8c0.1-0.5,0.3-1,0.4-1.4c0.1-0.2,0.2-0.5,0.3-0.7c0.1-0.2,0.2-0.4,0.4-0.6c0.1-0.2,0.3-0.4,0.4-0.6
					c0.1-0.1,0.2-0.3,0.4-0.4c1.4-1.5,3.4-2.4,5.6-2.4c2.3,0,4.3,1,5.7,2.5c0.2,0.3,0.5,0.6,0.7,0.9c0.1,0.2,0.3,0.4,0.4,0.6
					c0.1,0.2,0.2,0.4,0.3,0.7c0.2,0.5,0.3,0.9,0.4,1.4c0.1,0.3,0.1,0.5,0.1,0.8c0,0.3,0,0.5,0,0.8c0,0.9-0.2,1.8-0.5,2.7
					c-0.2,0.6-0.5,1.1-0.9,1.7c-0.2,0.3-0.4,0.6-0.7,0.9c-1.4,1.6-3.4,2.5-5.7,2.5c-0.8,0-1.6-0.1-2.3-0.3c-0.6-0.2-1.2-0.4-1.7-0.8
					c-0.2-0.1-0.4-0.3-0.6-0.4c-0.1-0.1-0.2-0.1-0.3-0.2c-0.2-0.2-0.4-0.3-0.5-0.5c-0.1-0.1-0.3-0.3-0.4-0.4
					c-0.1-0.1-0.2-0.2-0.3-0.4c-0.1-0.1-0.2-0.2-0.3-0.4c-0.1-0.2-0.3-0.4-0.4-0.6c-0.2-0.3-0.3-0.7-0.5-1
					C391.7,48.7,391.5,47.8,391.5,46.8"/>
				<path class="st30" d="M399.2,52.4c3.1,0,5.6-2.5,5.6-5.6c0-3.1-2.5-5.6-5.6-5.6c-3.1,0-5.6,2.5-5.6,5.6
					C393.7,49.9,396.2,52.4,399.2,52.4"/>
			</g>
			<g>
				<path class="st30" d="M67.2,204.4c5.2,0,9.8-2.4,12.7-6.2c0.9,0.4,1.9,0.6,2.9,0.6c3.8,0,6.9-3.1,6.9-6.9c0-3.7-2.9-6.7-6.6-6.8
					c0,0,0,0,0,0H51.3c-0.2,1-0.3,2-0.3,3C51,197.1,58.3,204.4,67.2,204.4 M83.4,188.2C83.4,188.2,83.4,188.2,83.4,188.2
					c1.9,0.3,3.3,1.9,3.3,3.8c0,2.1-1.7,3.9-3.9,3.9c-0.4,0-0.9-0.1-1.2-0.2C82.8,193.4,83.4,190.9,83.4,188.2"/>
				<path class="st30" d="M61.2,180.2c-2,0.7-1.1,3.9,0.9,3.2c2.4-0.8,3.2-3.2,2.6-5.6c-0.3-1.2-1-2.2-1.5-3.3
					c-0.3-0.6-0.9-2-0.1-2.5c1.8-1.1,0.2-4-1.7-2.9c-2,1.2-2.4,3.6-1.7,5.6C59.9,175.6,62.7,179.7,61.2,180.2"/>
				<path class="st30" d="M70.3,180.2c-2,0.7-1.1,3.9,0.9,3.2c2.4-0.8,3.2-3.2,2.6-5.6c-0.3-1.2-1-2.2-1.5-3.3
					c-0.3-0.6-0.9-2-0.1-2.5c1.8-1.1,0.2-4-1.7-2.9c-2,1.2-2.4,3.6-1.7,5.6C69.1,175.6,71.8,179.7,70.3,180.2"/>
			</g>
			<g>
				<polygon class="st30" points="523.9,301.2 530.3,301.2 530.3,304 548,311.3 548,293.9 548,276.6 530.3,283.9 530.3,286.7 
					523.9,286.7 				"/>
				<path class="st30" d="M549.7,284.1c1.5,2.7,2.3,6.2,2.3,9.8c0,3.6-0.8,7.1-2.3,9.8l2.8,1.5c1.7-3.2,2.7-7.2,2.7-11.3
					c0-4.1-1-8.1-2.7-11.3L549.7,284.1z"/>
				<path class="st30" d="M558.2,293.9c0,5-1.1,9.8-3.2,13.6l2.8,1.5c2.3-4.3,3.6-9.7,3.6-15.2c0-5.5-1.3-10.9-3.6-15.2l-2.8,1.5
					C557,284.1,558.2,288.9,558.2,293.9"/>
			</g>
			<path class="st30" d="M257.4,347.4c1.6,1,2.7,2.7,2.9,4.6c0.6,0.3,1.4,0.5,2.1,0.5c2.8,0,5-2.2,5-5c0-2.8-2.2-5-5-5
				C259.6,342.5,257.4,344.7,257.4,347.4 M254.1,357.7c2.8,0,5-2.2,5-5c0-2.8-2.2-5-5-5c-2.8,0-5,2.2-5,5
				C249.1,355.4,251.4,357.7,254.1,357.7 M256.2,358H252c-3.5,0-6.4,2.9-6.4,6.4v5.2l0,0.1l0.4,0.1c3.4,1.1,6.3,1.4,8.7,1.4
				c4.7,0,7.4-1.3,7.6-1.4l0.3-0.2h0v-5.2C262.6,360.9,259.8,358,256.2,358 M264.5,352.9h-4.2c0,1.7-0.8,3.2-1.9,4.3
				c3.1,0.9,5.4,3.8,5.4,7.3v1.6c4.2-0.2,6.5-1.3,6.7-1.4l0.3-0.2h0v-5.2C270.9,355.7,268,352.9,264.5,352.9 M245.4,352.5
				c1,0,1.9-0.3,2.7-0.8c0.2-1.6,1.1-3,2.3-3.9c0-0.1,0-0.2,0-0.3c0-2.8-2.2-5-5-5c-2.8,0-5,2.2-5,5
				C240.4,350.3,242.6,352.5,245.4,352.5 M249.8,357.1c-1.1-1.1-1.8-2.6-1.9-4.3c-0.2,0-0.3,0-0.5,0h-4.2c-3.5,0-6.4,2.9-6.4,6.4
				v5.2l0,0.1l0.4,0.1c2.7,0.8,5.1,1.2,7.2,1.4v-1.6C244.4,361,246.7,358.1,249.8,357.1"/>
			<g>
				<path class="st30" d="M386.7,215.7h-32.6v3h32.6V215.7z M385.3,217.6h-2.6v-0.7h2.6V217.6z"/>
				<path class="st30" d="M385.2,196.4h-29.6v18.4h29.6V196.4z M381.9,212.2h-23V199h23V212.2z"/>
			</g>
			<path class="st30" d="M173.3,325.6h-16.2c-1.5,0-2.8,1.3-2.8,2.8v32.8c0,1.5,1.3,2.8,2.8,2.8h16.2c1.5,0,2.8-1.3,2.8-2.8v-32.8
				C176.1,326.9,174.8,325.6,173.3,325.6 M171.5,327.4c0.4,0,0.7,0.3,0.7,0.7c0,0.4-0.3,0.7-0.7,0.7c-0.4,0-0.7-0.3-0.7-0.7
				C170.7,327.7,171.1,327.4,171.5,327.4 M161.5,327.7h7.5v0.8h-7.5V327.7z M165.2,362.3c-1,0-1.9-0.8-1.9-1.9c0-1,0.8-1.9,1.9-1.9
				c1,0,1.9,0.8,1.9,1.9C167.1,361.5,166.3,362.3,165.2,362.3 M174,356.8h-17.6v-26.4H174V356.8z"/>
			<g>
				<g>
					<line class="st31" x1="303.2" y1="432.5" x2="303.2" y2="429.5"/>
					<path class="st32" d="M303.2,423.4V316.8c0-5.3-1.8-10.1-9-10.1H247"/>
					<line class="st31" x1="243.9" y1="306.7" x2="240.9" y2="306.7"/>
				</g>
			</g>
			<g>
				<g>
					<line class="st31" x1="310.8" y1="432.5" x2="310.8" y2="429.5"/>
					<path class="st33" d="M310.8,423.5V257.9c0-5.3-1.8-10.1-9-10.1H148.5"/>
					<line class="st31" x1="145.5" y1="247.8" x2="142.5" y2="247.8"/>
				</g>
			</g>
			<g>
				<g>
					<line class="st31" x1="319.7" y1="432.5" x2="319.7" y2="429.5"/>
					<path class="st34" d="M319.7,423.6V179.2c0-5.3-1.8-10.1-9-10.1h-60.9"/>
					<line class="st31" x1="246.8" y1="169.1" x2="243.8" y2="169.1"/>
				</g>
			</g>
			<g>
				<g>
					<line class="st31" x1="340.1" y1="432.5" x2="340.1" y2="429.5"/>
					<path class="st35" d="M340.1,423.5V194.9c0-5.3,1.8-10.1,9-10.1H379"/>
					<line class="st31" x1="382" y1="184.8" x2="385" y2="184.8"/>
				</g>
			</g>
			<g>
				<g>
					<line class="st31" x1="346.7" y1="432.5" x2="346.7" y2="429.5"/>
					<path class="st36" d="M346.7,423.6V246.2c0-5.3,1.8-10.1,9-10.1h125.2"/>
					<line class="st31" x1="483.9" y1="236.1" x2="486.9" y2="236.1"/>
				</g>
			</g>
			<g>
				<g>
					<line class="st31" x1="335.4" y1="432.5" x2="335.4" y2="429.5"/>
					<path class="st37" d="M335.4,423.6V88.2c0-5.3,1.8-10.1,9-10.1h97.3"/>
					<line class="st31" x1="444.6" y1="78.1" x2="447.6" y2="78.1"/>
				</g>
			</g>
			<g>
				<g>
					<line class="st31" x1="328.9" y1="432.5" x2="328.9" y2="429.5"/>
					<path class="st38" d="M328.9,423.5v-355c0-5.3-1.8-10.1-9-10.1H197.2"/>
					<line class="st31" x1="194.2" y1="58.4" x2="191.2" y2="58.4"/>
				</g>
			</g>
			<g>
				<circle class="st27" cx="256.6" cy="100.5" r="24.8"/>
				<g>
					<g>
						<path class="st24" d="M270.8,105.1l0-6.9c0-1.8-0.8-2.8-1.4-3.3c-0.7-0.6-1.4-0.7-1.5-0.7l-0.1,0l-3.7,0c0-1.8,0-3.8-0.1-4.5
							c-0.2-0.9-0.9-1.4-1.7-1.4c-0.7,0-1.2,0.3-1.4,0.4l-0.2,0.1l-3.7,5.4l-6,2.2l0,9.6l6.9,4l10.3,0l0.2-0.1
							C270.9,108.9,270.8,105.6,270.8,105.1z M267.9,109.2L267.9,109.2l-9.9,0.1l-6.2-3.6l0-8.4l5.6-2.1l3.8-5.5l0,0
							c0,0,0.4-0.3,0.9-0.3c0.4,0,0.7,0.2,0.8,0.7c0.2,0.9,0.1,4.3,0.1,5.2l4.6-0.1l0,0c0,0,0.6,0.1,1.1,0.5
							c0.5,0.4,1.1,1.1,1.1,2.5l0,6.9C269.9,105.4,270,108.2,267.9,109.2z"/>
						<rect x="243.7" y="95.9" class="st24" width="6" height="11.4"/>
					</g>
				</g>
			</g>
		</g>
	</g>
</g>
</svg>
