<?xml version="1.0" encoding="utf-8"?>
<!-- Generator: Adobe Illustrator 20.0.0, SVG Export Plug-In . SVG Version: 6.00 Build 0)  -->
<svg version="1.1" id="Layer_1" xmlns="http://www.w3.org/2000/svg" xmlns:xlink="http://www.w3.org/1999/xlink" x="0px" y="0px"
	 viewBox="0 0 612 612" style="enable-background:new 0 0 612 612;" xml:space="preserve">
<style type="text/css">
	.st0{fill:#99D3CD;}
	.st1{enable-background:new    ;}
	.st2{clip-path:url(#SVGID_2_);}
	
		.st3{fill:none;stroke:#FFFFFF;stroke-width:3;stroke-linecap:round;stroke-linejoin:round;stroke-miterlimit:10;stroke-dasharray:8;}
	.st4{opacity:0.1;}
	.st5{fill:#102223;}
	.st6{fill:#F2D1BB;}
	.st7{fill:#3C3C3B;}
	.st8{fill:#FFFFFF;}
	.st9{fill:#858485;}
	.st10{fill:#E7BFA7;}
	.st11{fill:#F3E1D5;}
	.st12{fill:#F0533C;}
	.st13{opacity:0.5;fill:#3C3C3B;enable-background:new    ;}
	.st14{opacity:0.15;}
	.st15{fill:#64AAAE;}
	.st16{clip-path:url(#SVGID_4_);}
	.st17{clip-path:url(#SVGID_6_);}
	.st18{fill:#81B8BF;}
	.st19{opacity:0.3;fill:#81B8BF;enable-background:new    ;}
	.st20{opacity:0.5;fill:#81B8BF;enable-background:new    ;}
	.st21{clip-path:url(#SVGID_8_);}
	.st22{fill:#006D72;}
</style>
<g>
	<g>
		<circle class="st0" cx="306" cy="306" r="306"/>
	</g>
	<g class="st1">
		<path d="M260.5,453.8v-12.9h4.9c0.9,0,1.5,0,2,0.1c0.6,0.1,1.2,0.3,1.6,0.6s0.8,0.7,1,1.2c0.3,0.5,0.4,1.1,0.4,1.8
			c0,1.1-0.3,2-1,2.8s-2,1.1-3.8,1.1h-3.3v5.3H260.5z M262.2,447h3.3c1.1,0,1.9-0.2,2.3-0.6s0.7-1,0.7-1.7c0-0.5-0.1-1-0.4-1.4
			c-0.3-0.4-0.6-0.6-1.1-0.8c-0.3-0.1-0.8-0.1-1.6-0.1h-3.3V447z"/>
		<path d="M278.4,452.6c-0.6,0.5-1.1,0.9-1.7,1.1c-0.5,0.2-1.1,0.3-1.7,0.3c-1,0-1.8-0.3-2.4-0.8s-0.8-1.1-0.8-1.9
			c0-0.5,0.1-0.9,0.3-1.3s0.5-0.7,0.8-0.9s0.7-0.4,1.1-0.5c0.3-0.1,0.8-0.2,1.4-0.2c1.3-0.2,2.2-0.3,2.8-0.5c0-0.2,0-0.4,0-0.4
			c0-0.6-0.1-1.1-0.4-1.4c-0.4-0.4-1-0.5-1.8-0.5c-0.7,0-1.3,0.1-1.6,0.4c-0.4,0.3-0.6,0.7-0.8,1.4l-1.5-0.2
			c0.1-0.7,0.4-1.2,0.7-1.6c0.3-0.4,0.8-0.7,1.4-0.9s1.3-0.3,2.1-0.3c0.8,0,1.4,0.1,1.9,0.3s0.9,0.4,1.1,0.7
			c0.2,0.3,0.4,0.6,0.5,1.1c0.1,0.3,0.1,0.8,0.1,1.5v2.1c0,1.5,0,2.4,0.1,2.8c0.1,0.4,0.2,0.8,0.4,1.1h-1.7
			C278.6,453.4,278.5,453.1,278.4,452.6z M278.3,449.1c-0.6,0.2-1.4,0.4-2.6,0.6c-0.7,0.1-1.1,0.2-1.4,0.3c-0.3,0.1-0.5,0.3-0.6,0.5
			s-0.2,0.5-0.2,0.8c0,0.4,0.2,0.8,0.5,1.1c0.3,0.3,0.8,0.4,1.4,0.4c0.6,0,1.2-0.1,1.6-0.4s0.8-0.6,1-1.1c0.2-0.4,0.3-0.9,0.3-1.6
			V449.1z"/>
		<path d="M285.8,452.3l0.2,1.4c-0.4,0.1-0.8,0.1-1.2,0.1c-0.6,0-1-0.1-1.3-0.3c-0.3-0.2-0.5-0.4-0.7-0.7c-0.1-0.3-0.2-0.9-0.2-1.9
			v-5.4h-1.2v-1.2h1.2v-2.3l1.6-1v3.3h1.6v1.2h-1.6v5.5c0,0.5,0,0.7,0.1,0.9c0.1,0.1,0.1,0.2,0.3,0.3c0.1,0.1,0.3,0.1,0.5,0.1
			C285.3,452.4,285.5,452.4,285.8,452.3z"/>
		<path d="M287.3,442.7v-1.8h1.6v1.8H287.3z M287.3,453.8v-9.4h1.6v9.4H287.3z"/>
		<path d="M297.7,450.7l1.6,0.2c-0.3,1-0.7,1.7-1.4,2.2c-0.7,0.5-1.6,0.8-2.7,0.8c-1.4,0-2.4-0.4-3.2-1.3s-1.2-2-1.2-3.6
			c0-1.6,0.4-2.8,1.2-3.7s1.9-1.3,3.1-1.3c1.2,0,2.3,0.4,3.1,1.3s1.2,2.1,1.2,3.6c0,0.1,0,0.2,0,0.4h-7c0.1,1,0.3,1.8,0.9,2.4
			c0.5,0.5,1.2,0.8,2,0.8c0.6,0,1.1-0.2,1.5-0.5S297.5,451.4,297.7,450.7z M292.5,448.2h5.2c-0.1-0.8-0.3-1.4-0.6-1.8
			c-0.5-0.6-1.2-0.9-2-0.9c-0.7,0-1.3,0.2-1.8,0.7C292.8,446.7,292.6,447.4,292.5,448.2z"/>
		<path d="M301.3,453.8v-9.4h1.4v1.3c0.7-1,1.7-1.5,3-1.5c0.6,0,1.1,0.1,1.6,0.3s0.8,0.5,1.1,0.8c0.2,0.3,0.4,0.7,0.5,1.2
			c0.1,0.3,0.1,0.8,0.1,1.5v5.8h-1.6v-5.7c0-0.6-0.1-1.1-0.2-1.5c-0.1-0.3-0.3-0.6-0.7-0.8s-0.7-0.3-1.1-0.3c-0.7,0-1.3,0.2-1.7,0.6
			c-0.5,0.4-0.7,1.2-0.7,2.4v5.1H301.3z"/>
		<path d="M314.8,452.3l0.2,1.4c-0.4,0.1-0.8,0.1-1.2,0.1c-0.6,0-1-0.1-1.3-0.3c-0.3-0.2-0.5-0.4-0.7-0.7c-0.1-0.3-0.2-0.9-0.2-1.9
			v-5.4h-1.2v-1.2h1.2v-2.3l1.6-1v3.3h1.6v1.2h-1.6v5.5c0,0.5,0,0.7,0.1,0.9c0.1,0.1,0.1,0.2,0.3,0.3c0.1,0.1,0.3,0.1,0.5,0.1
			C314.3,452.4,314.5,452.4,314.8,452.3z"/>
		<path d="M321,447.5c0-2.1,0.6-3.8,1.7-5s2.6-1.8,4.4-1.8c1.2,0,2.3,0.3,3.2,0.9c1,0.6,1.7,1.4,2.2,2.4c0.5,1,0.8,2.2,0.8,3.5
			c0,1.3-0.3,2.5-0.8,3.5s-1.3,1.8-2.2,2.4s-2,0.8-3.1,0.8c-1.2,0-2.3-0.3-3.3-0.9c-1-0.6-1.7-1.4-2.2-2.4
			C321.3,449.7,321,448.6,321,447.5z M322.8,447.5c0,1.6,0.4,2.8,1.3,3.7c0.8,0.9,1.9,1.3,3.1,1.3c1.3,0,2.3-0.5,3.2-1.4
			s1.2-2.2,1.2-3.9c0-1.1-0.2-2-0.5-2.8c-0.4-0.8-0.9-1.4-1.6-1.8s-1.4-0.6-2.3-0.6c-1.2,0-2.2,0.4-3.1,1.2
			C323.2,444.2,322.8,445.5,322.8,447.5z"/>
		<path d="M335.3,453.8v-9.4h1.4v1.4c0.4-0.7,0.7-1.1,1-1.3s0.6-0.3,1-0.3c0.5,0,1.1,0.2,1.6,0.5l-0.5,1.5c-0.4-0.2-0.8-0.3-1.2-0.3
			c-0.3,0-0.7,0.1-0.9,0.3c-0.3,0.2-0.5,0.5-0.6,0.9c-0.2,0.6-0.3,1.2-0.3,1.9v4.9H335.3z"/>
		<path d="M347.4,453.8v-1.2c-0.6,0.9-1.5,1.4-2.6,1.4c-0.7,0-1.4-0.2-2.1-0.6c-0.6-0.4-1.1-1-1.4-1.7c-0.3-0.7-0.5-1.6-0.5-2.5
			c0-0.9,0.2-1.8,0.5-2.5c0.3-0.8,0.8-1.3,1.4-1.8c0.6-0.4,1.3-0.6,2.1-0.6c0.6,0,1.1,0.1,1.5,0.4s0.8,0.5,1.1,0.9v-4.6h1.6v12.9
			H347.4z M342.4,449.1c0,1.2,0.3,2.1,0.8,2.7c0.5,0.6,1.1,0.9,1.8,0.9c0.7,0,1.3-0.3,1.8-0.9c0.5-0.6,0.7-1.4,0.7-2.6
			c0-1.3-0.2-2.2-0.7-2.8c-0.5-0.6-1.1-0.9-1.8-0.9c-0.7,0-1.3,0.3-1.8,0.9C342.6,446.9,342.4,447.8,342.4,449.1z"/>
		<path d="M357.7,450.7l1.6,0.2c-0.3,1-0.7,1.7-1.4,2.2c-0.7,0.5-1.6,0.8-2.7,0.8c-1.4,0-2.4-0.4-3.2-1.3s-1.2-2-1.2-3.6
			c0-1.6,0.4-2.8,1.2-3.7s1.9-1.3,3.1-1.3c1.2,0,2.3,0.4,3.1,1.3s1.2,2.1,1.2,3.6c0,0.1,0,0.2,0,0.4h-7c0.1,1,0.3,1.8,0.9,2.4
			c0.5,0.5,1.2,0.8,2,0.8c0.6,0,1.1-0.2,1.5-0.5S357.5,451.4,357.7,450.7z M352.5,448.2h5.2c-0.1-0.8-0.3-1.4-0.6-1.8
			c-0.5-0.6-1.2-0.9-2-0.9c-0.7,0-1.3,0.2-1.8,0.7C352.9,446.7,352.6,447.4,352.5,448.2z"/>
		<path d="M361.3,453.8v-9.4h1.4v1.4c0.4-0.7,0.7-1.1,1-1.3c0.3-0.2,0.6-0.3,1-0.3c0.5,0,1.1,0.2,1.6,0.5l-0.5,1.5
			c-0.4-0.2-0.8-0.3-1.2-0.3c-0.3,0-0.7,0.1-0.9,0.3s-0.5,0.5-0.6,0.9c-0.2,0.6-0.3,1.2-0.3,1.9v4.9H361.3z"/>
	</g>
	<g class="st1">
		<path d="M172.5,175.6v-12.9h2.6l3,9.2c0.3,0.9,0.5,1.5,0.6,1.9c0.1-0.5,0.4-1.2,0.7-2.1l3.1-9h2.3v12.9h-1.6v-10.8l-3.7,10.8h-1.5
			l-3.7-11v11H172.5z"/>
		<path d="M193.7,172.5l1.6,0.2c-0.3,1-0.7,1.7-1.4,2.2s-1.6,0.8-2.7,0.8c-1.4,0-2.4-0.4-3.2-1.3c-0.8-0.8-1.2-2-1.2-3.6
			c0-1.6,0.4-2.8,1.2-3.7c0.8-0.9,1.9-1.3,3.1-1.3c1.2,0,2.3,0.4,3.1,1.3c0.8,0.9,1.2,2.1,1.2,3.6c0,0.1,0,0.2,0,0.4h-7
			c0.1,1,0.3,1.8,0.9,2.4s1.2,0.8,2,0.8c0.6,0,1.1-0.2,1.5-0.5C193.1,173.7,193.5,173.2,193.7,172.5z M188.5,170h5.2
			c-0.1-0.8-0.3-1.4-0.6-1.8c-0.5-0.6-1.2-0.9-2-0.9c-0.7,0-1.3,0.2-1.8,0.7S188.6,169.1,188.5,170z"/>
		<path d="M203.4,174.4c-0.6,0.5-1.1,0.9-1.7,1.1s-1.1,0.3-1.7,0.3c-1,0-1.8-0.3-2.4-0.8c-0.6-0.5-0.8-1.1-0.8-1.9
			c0-0.5,0.1-0.9,0.3-1.3c0.2-0.4,0.5-0.7,0.8-0.9s0.7-0.4,1.1-0.5c0.3-0.1,0.8-0.2,1.4-0.2c1.3-0.2,2.2-0.3,2.8-0.5
			c0-0.2,0-0.4,0-0.4c0-0.6-0.1-1.1-0.4-1.4c-0.4-0.4-1-0.5-1.8-0.5c-0.7,0-1.3,0.1-1.6,0.4c-0.4,0.3-0.6,0.7-0.8,1.4l-1.5-0.2
			c0.1-0.7,0.4-1.2,0.7-1.6s0.8-0.7,1.4-0.9s1.3-0.3,2.1-0.3c0.8,0,1.4,0.1,1.9,0.3c0.5,0.2,0.9,0.4,1.1,0.7
			c0.2,0.3,0.4,0.6,0.5,1.1c0.1,0.3,0.1,0.8,0.1,1.5v2.1c0,1.5,0,2.4,0.1,2.8c0.1,0.4,0.2,0.8,0.4,1.1h-1.7
			C203.6,175.2,203.4,174.8,203.4,174.4z M203.3,170.8c-0.6,0.2-1.4,0.4-2.6,0.6c-0.7,0.1-1.1,0.2-1.4,0.3c-0.3,0.1-0.5,0.3-0.6,0.5
			s-0.2,0.5-0.2,0.8c0,0.4,0.2,0.8,0.5,1.1c0.3,0.3,0.8,0.4,1.4,0.4c0.6,0,1.2-0.1,1.6-0.4c0.5-0.3,0.8-0.6,1-1.1
			c0.2-0.4,0.3-0.9,0.3-1.6V170.8z"/>
		<path d="M207.3,175.6v-12.9h1.6v12.9H207.3z"/>
		<path d="M216.5,175.6v-12.9h4.4c1,0,1.8,0.1,2.3,0.2c0.7,0.2,1.4,0.5,1.9,0.9c0.7,0.6,1.2,1.3,1.5,2.2c0.3,0.9,0.5,1.9,0.5,3.1
			c0,1-0.1,1.9-0.3,2.6s-0.5,1.4-0.9,1.9c-0.4,0.5-0.7,0.9-1.2,1.2c-0.4,0.3-0.9,0.5-1.5,0.6s-1.3,0.2-2.1,0.2H216.5z M218.2,174
			h2.8c0.8,0,1.5-0.1,2-0.2c0.5-0.2,0.9-0.4,1.2-0.7c0.4-0.4,0.7-1,0.9-1.6s0.3-1.5,0.3-2.5c0-1.4-0.2-2.4-0.7-3.1
			c-0.4-0.7-1-1.2-1.6-1.5c-0.5-0.2-1.2-0.3-2.2-0.3h-2.7V174z"/>
		<path d="M235.7,172.5l1.6,0.2c-0.3,1-0.7,1.7-1.4,2.2s-1.6,0.8-2.7,0.8c-1.4,0-2.4-0.4-3.2-1.3c-0.8-0.8-1.2-2-1.2-3.6
			c0-1.6,0.4-2.8,1.2-3.7c0.8-0.9,1.9-1.3,3.1-1.3c1.2,0,2.3,0.4,3.1,1.3c0.8,0.9,1.2,2.1,1.2,3.6c0,0.1,0,0.2,0,0.4h-7
			c0.1,1,0.3,1.8,0.9,2.4s1.2,0.8,2,0.8c0.6,0,1.1-0.2,1.5-0.5C235.1,173.7,235.5,173.2,235.7,172.5z M230.5,170h5.2
			c-0.1-0.8-0.3-1.4-0.6-1.8c-0.5-0.6-1.2-0.9-2-0.9c-0.7,0-1.3,0.2-1.8,0.7S230.6,169.1,230.5,170z"/>
		<path d="M239.3,175.6v-12.9h1.6v12.9H239.3z"/>
		<path d="M243.3,164.4v-1.8h1.6v1.8H243.3z M243.3,175.6v-9.4h1.6v9.4H243.3z"/>
		<path d="M249.9,175.6l-3.6-9.4h1.7l2,5.6c0.2,0.6,0.4,1.2,0.6,1.9c0.1-0.5,0.3-1.1,0.6-1.8l2.1-5.7h1.6l-3.5,9.4H249.9z"/>
		<path d="M262.7,172.5l1.6,0.2c-0.3,1-0.7,1.7-1.4,2.2s-1.6,0.8-2.7,0.8c-1.4,0-2.4-0.4-3.2-1.3c-0.8-0.8-1.2-2-1.2-3.6
			c0-1.6,0.4-2.8,1.2-3.7c0.8-0.9,1.9-1.3,3.1-1.3c1.2,0,2.3,0.4,3.1,1.3c0.8,0.9,1.2,2.1,1.2,3.6c0,0.1,0,0.2,0,0.4h-7
			c0.1,1,0.3,1.8,0.9,2.4s1.2,0.8,2,0.8c0.6,0,1.1-0.2,1.5-0.5C262.2,173.7,262.5,173.2,262.7,172.5z M257.5,170h5.2
			c-0.1-0.8-0.3-1.4-0.6-1.8c-0.5-0.6-1.2-0.9-2-0.9c-0.7,0-1.3,0.2-1.8,0.7S257.6,169.1,257.5,170z"/>
		<path d="M266.3,175.6v-9.4h1.4v1.4c0.4-0.7,0.7-1.1,1-1.3c0.3-0.2,0.6-0.3,1-0.3c0.5,0,1.1,0.2,1.6,0.5l-0.5,1.5
			c-0.4-0.2-0.8-0.3-1.2-0.3c-0.3,0-0.7,0.1-0.9,0.3c-0.3,0.2-0.5,0.5-0.6,0.9c-0.2,0.6-0.3,1.2-0.3,1.9v4.9H266.3z"/>
		<path d="M278.7,172.5l1.6,0.2c-0.3,1-0.7,1.7-1.4,2.2s-1.6,0.8-2.7,0.8c-1.4,0-2.4-0.4-3.2-1.3c-0.8-0.8-1.2-2-1.2-3.6
			c0-1.6,0.4-2.8,1.2-3.7c0.8-0.9,1.9-1.3,3.1-1.3c1.2,0,2.3,0.4,3.1,1.3c0.8,0.9,1.2,2.1,1.2,3.6c0,0.1,0,0.2,0,0.4h-7
			c0.1,1,0.3,1.8,0.9,2.4s1.2,0.8,2,0.8c0.6,0,1.1-0.2,1.5-0.5C278.2,173.7,278.5,173.2,278.7,172.5z M273.5,170h5.2
			c-0.1-0.8-0.3-1.4-0.6-1.8c-0.5-0.6-1.2-0.9-2-0.9c-0.7,0-1.3,0.2-1.8,0.7S273.6,169.1,273.5,170z"/>
		<path d="M288.4,175.6v-1.2c-0.6,0.9-1.5,1.4-2.6,1.4c-0.7,0-1.4-0.2-2.1-0.6c-0.6-0.4-1.1-1-1.5-1.7c-0.3-0.7-0.5-1.6-0.5-2.5
			c0-0.9,0.2-1.8,0.5-2.5s0.8-1.3,1.4-1.8c0.6-0.4,1.3-0.6,2.1-0.6c0.6,0,1.1,0.1,1.5,0.4s0.8,0.5,1.1,0.9v-4.6h1.6v12.9H288.4z
			 M283.4,170.9c0,1.2,0.3,2.1,0.8,2.7c0.5,0.6,1.1,0.9,1.8,0.9c0.7,0,1.3-0.3,1.8-0.9s0.7-1.4,0.7-2.6c0-1.3-0.2-2.2-0.7-2.8
			c-0.5-0.6-1.1-0.9-1.8-0.9c-0.7,0-1.3,0.3-1.8,0.9C283.6,168.7,283.4,169.6,283.4,170.9z"/>
	</g>
	<g class="st1">
		<path d="M363.5,175.6v-12.9h5.7c1.1,0,2,0.1,2.6,0.3s1.1,0.6,1.4,1.2s0.5,1.2,0.5,2c0,0.9-0.3,1.7-0.9,2.3s-1.5,1-2.7,1.2
			c0.5,0.2,0.8,0.4,1,0.6c0.5,0.5,1,1,1.4,1.7l2.2,3.5h-2.1l-1.7-2.7c-0.5-0.8-0.9-1.4-1.2-1.8c-0.3-0.4-0.6-0.7-0.9-0.9
			c-0.3-0.2-0.5-0.3-0.8-0.3c-0.2,0-0.5-0.1-0.9-0.1h-2v5.7H363.5z M365.2,168.3h3.7c0.8,0,1.4-0.1,1.8-0.2c0.4-0.2,0.8-0.4,1-0.8
			c0.2-0.4,0.3-0.7,0.3-1.2c0-0.6-0.2-1.1-0.7-1.5c-0.4-0.4-1.1-0.6-2.1-0.6h-4.1V168.3z"/>
		<path d="M382.7,172.5l1.6,0.2c-0.3,1-0.7,1.7-1.4,2.2s-1.6,0.8-2.7,0.8c-1.4,0-2.4-0.4-3.2-1.3c-0.8-0.8-1.2-2-1.2-3.6
			c0-1.6,0.4-2.8,1.2-3.7c0.8-0.9,1.9-1.3,3.1-1.3c1.2,0,2.3,0.4,3.1,1.3c0.8,0.9,1.2,2.1,1.2,3.6c0,0.1,0,0.2,0,0.4h-7
			c0.1,1,0.3,1.8,0.9,2.4s1.2,0.8,2,0.8c0.6,0,1.1-0.2,1.5-0.5C382.1,173.7,382.5,173.2,382.7,172.5z M377.5,170h5.2
			c-0.1-0.8-0.3-1.4-0.6-1.8c-0.5-0.6-1.2-0.9-2-0.9c-0.7,0-1.3,0.2-1.8,0.7C377.8,168.5,377.6,169.1,377.5,170z"/>
		<path d="M386.3,179.1v-13h1.4v1.2c0.3-0.5,0.7-0.8,1.2-1.1s0.9-0.4,1.6-0.4c0.8,0,1.5,0.2,2.1,0.6c0.6,0.4,1.1,1,1.4,1.7
			c0.3,0.8,0.5,1.6,0.5,2.5c0,1-0.2,1.8-0.5,2.6s-0.8,1.4-1.5,1.8c-0.7,0.4-1.3,0.6-2.1,0.6c-0.5,0-1-0.1-1.4-0.3
			c-0.4-0.2-0.8-0.5-1-0.8v4.6H386.3z M387.8,170.9c0,1.2,0.2,2.1,0.7,2.7c0.5,0.6,1.1,0.9,1.8,0.9c0.7,0,1.3-0.3,1.8-0.9
			c0.5-0.6,0.8-1.5,0.8-2.8c0-1.2-0.2-2.1-0.7-2.7c-0.5-0.6-1.1-0.9-1.8-0.9c-0.7,0-1.3,0.3-1.8,0.9
			C388,168.8,387.8,169.7,387.8,170.9z"/>
		<path d="M395.7,170.9c0-1.7,0.5-3,1.4-3.9c0.8-0.7,1.8-1,2.9-1c1.3,0,2.3,0.4,3.1,1.3c0.8,0.8,1.2,2,1.2,3.5
			c0,1.2-0.2,2.2-0.5,2.8c-0.4,0.7-0.9,1.2-1.6,1.6c-0.7,0.4-1.4,0.6-2.3,0.6c-1.3,0-2.4-0.4-3.2-1.3
			C396.1,173.7,395.7,172.5,395.7,170.9z M397.4,170.9c0,1.2,0.3,2.1,0.8,2.7c0.5,0.6,1.2,0.9,2,0.9c0.8,0,1.4-0.3,2-0.9
			c0.5-0.6,0.8-1.5,0.8-2.7c0-1.2-0.3-2-0.8-2.6c-0.5-0.6-1.2-0.9-2-0.9c-0.8,0-1.4,0.3-2,0.9C397.6,168.8,397.4,169.7,397.4,170.9z
			"/>
		<path d="M406.3,175.6v-9.4h1.4v1.4c0.4-0.7,0.7-1.1,1-1.3c0.3-0.2,0.6-0.3,1-0.3c0.5,0,1.1,0.2,1.6,0.5l-0.5,1.5
			c-0.4-0.2-0.8-0.3-1.2-0.3c-0.3,0-0.7,0.1-0.9,0.3c-0.3,0.2-0.5,0.5-0.6,0.9c-0.2,0.6-0.3,1.2-0.3,1.9v4.9H406.3z"/>
		<path d="M415.8,174.1l0.2,1.4c-0.4,0.1-0.8,0.1-1.2,0.1c-0.6,0-1-0.1-1.3-0.3c-0.3-0.2-0.5-0.4-0.7-0.7c-0.1-0.3-0.2-0.9-0.2-1.9
			v-5.4h-1.2v-1.2h1.2v-2.3l1.6-1v3.3h1.6v1.2h-1.6v5.5c0,0.5,0,0.7,0.1,0.9c0.1,0.1,0.1,0.2,0.3,0.3c0.1,0.1,0.3,0.1,0.5,0.1
			C415.3,174.2,415.5,174.2,415.8,174.1z"/>
		<path d="M416.7,172.8l1.6-0.2c0.1,0.6,0.3,1.1,0.7,1.4c0.4,0.3,1,0.5,1.7,0.5c0.7,0,1.3-0.1,1.6-0.4c0.4-0.3,0.5-0.6,0.5-1
			c0-0.4-0.2-0.6-0.5-0.8c-0.2-0.1-0.8-0.3-1.6-0.5c-1.2-0.3-2-0.5-2.4-0.8s-0.8-0.5-1-0.9s-0.3-0.8-0.3-1.3c0-0.4,0.1-0.8,0.3-1.2
			c0.2-0.4,0.5-0.7,0.8-0.9c0.2-0.2,0.6-0.3,1-0.5c0.4-0.1,0.9-0.2,1.4-0.2c0.7,0,1.4,0.1,1.9,0.3c0.6,0.2,1,0.5,1.2,0.9
			s0.4,0.8,0.5,1.5l-1.5,0.2c-0.1-0.5-0.3-0.9-0.6-1.1c-0.3-0.3-0.8-0.4-1.4-0.4c-0.7,0-1.2,0.1-1.6,0.4c-0.3,0.2-0.5,0.5-0.5,0.8
			c0,0.2,0.1,0.4,0.2,0.6c0.1,0.2,0.3,0.3,0.6,0.4c0.2,0.1,0.6,0.2,1.4,0.4c1.1,0.3,1.9,0.5,2.3,0.7c0.4,0.2,0.8,0.5,1,0.8
			c0.3,0.4,0.4,0.8,0.4,1.4c0,0.5-0.2,1-0.5,1.5c-0.3,0.5-0.8,0.8-1.3,1.1c-0.6,0.3-1.2,0.4-2,0.4c-1.2,0-2.1-0.3-2.8-0.8
			C417.3,174.5,416.9,173.8,416.7,172.8z"/>
	</g>
	<g class="st1">
		<path d="M68.9,278v-12.9h1.7v6.4l6.4-6.4h2.3l-5.4,5.2l5.6,7.7h-2.3l-4.6-6.5l-2.1,2.1v4.5H68.9z"/>
		<path d="M80.8,266.9v-1.8h1.6v1.8H80.8z M80.8,278v-9.4h1.6v9.4H80.8z"/>
		<path d="M88.3,276.6l0.2,1.4c-0.4,0.1-0.8,0.1-1.2,0.1c-0.6,0-1-0.1-1.3-0.3c-0.3-0.2-0.5-0.4-0.7-0.7c-0.1-0.3-0.2-0.9-0.2-1.9
			v-5.4h-1.2v-1.2h1.2v-2.3l1.6-1v3.3h1.6v1.2h-1.6v5.5c0,0.5,0,0.7,0.1,0.9c0.1,0.1,0.1,0.2,0.3,0.3c0.1,0.1,0.3,0.1,0.5,0.1
			C87.8,276.6,88,276.6,88.3,276.6z"/>
		<path d="M95.9,274.6l1.6,0.2c-0.2,1.1-0.6,1.9-1.3,2.5c-0.7,0.6-1.6,0.9-2.6,0.9c-1.3,0-2.3-0.4-3.1-1.3c-0.8-0.8-1.2-2-1.2-3.6
			c0-1,0.2-1.9,0.5-2.7s0.8-1.3,1.5-1.7c0.7-0.4,1.4-0.6,2.2-0.6c1,0,1.8,0.3,2.5,0.8c0.6,0.5,1.1,1.2,1.2,2.2l-1.5,0.2
			c-0.1-0.6-0.4-1.1-0.8-1.4c-0.4-0.3-0.8-0.5-1.3-0.5c-0.8,0-1.4,0.3-1.9,0.9c-0.5,0.6-0.7,1.5-0.7,2.7c0,1.3,0.2,2.2,0.7,2.7
			c0.5,0.6,1.1,0.9,1.9,0.9c0.6,0,1.1-0.2,1.6-0.6C95.5,276,95.8,275.4,95.9,274.6z"/>
		<path d="M98.8,278v-12.9h1.6v4.6c0.7-0.9,1.7-1.3,2.8-1.3c0.7,0,1.3,0.1,1.8,0.4c0.5,0.3,0.9,0.7,1.1,1.1c0.2,0.5,0.3,1.2,0.3,2.1
			v5.9h-1.6v-5.9c0-0.8-0.2-1.4-0.5-1.7c-0.3-0.4-0.8-0.5-1.5-0.5c-0.5,0-0.9,0.1-1.3,0.4s-0.7,0.6-0.9,1s-0.3,1-0.3,1.7v5.1H98.8z"
			/>
		<path d="M115.2,275l1.6,0.2c-0.3,1-0.7,1.7-1.4,2.2s-1.6,0.8-2.7,0.8c-1.4,0-2.4-0.4-3.2-1.3c-0.8-0.8-1.2-2-1.2-3.6
			c0-1.6,0.4-2.8,1.2-3.7c0.8-0.9,1.9-1.3,3.1-1.3c1.2,0,2.3,0.4,3.1,1.3c0.8,0.9,1.2,2.1,1.2,3.6c0,0.1,0,0.2,0,0.4h-7
			c0.1,1,0.3,1.8,0.9,2.4s1.2,0.8,2,0.8c0.6,0,1.1-0.2,1.5-0.5C114.7,276.1,115,275.7,115.2,275z M110,272.4h5.2
			c-0.1-0.8-0.3-1.4-0.6-1.8c-0.5-0.6-1.2-0.9-2-0.9c-0.7,0-1.3,0.2-1.8,0.7S110.1,271.6,110,272.4z"/>
		<path d="M118.8,278v-9.4h1.4v1.3c0.7-1,1.7-1.5,3-1.5c0.6,0,1.1,0.1,1.6,0.3c0.5,0.2,0.8,0.5,1.1,0.8c0.2,0.3,0.4,0.7,0.5,1.2
			c0.1,0.3,0.1,0.8,0.1,1.5v5.8h-1.6v-5.7c0-0.6-0.1-1.1-0.2-1.5c-0.1-0.3-0.3-0.6-0.7-0.8c-0.3-0.2-0.7-0.3-1.1-0.3
			c-0.7,0-1.3,0.2-1.7,0.6c-0.5,0.4-0.7,1.2-0.7,2.4v5.1H118.8z"/>
	</g>
	<g class="st1">
		<path d="M57.1,299.7v-12.9h4.9c0.9,0,1.5,0,2,0.1c0.6,0.1,1.2,0.3,1.6,0.6c0.4,0.3,0.8,0.7,1,1.2c0.3,0.5,0.4,1.1,0.4,1.8
			c0,1.1-0.3,2-1,2.8s-2,1.1-3.8,1.1h-3.3v5.3H57.1z M58.8,292.9h3.3c1.1,0,1.9-0.2,2.3-0.6c0.5-0.4,0.7-1,0.7-1.7
			c0-0.5-0.1-1-0.4-1.4c-0.3-0.4-0.6-0.6-1.1-0.8c-0.3-0.1-0.8-0.1-1.6-0.1h-3.3V292.9z"/>
		<path d="M68.9,299.7v-9.4h1.4v1.4c0.4-0.7,0.7-1.1,1-1.3c0.3-0.2,0.6-0.3,1-0.3c0.5,0,1.1,0.2,1.6,0.5l-0.5,1.5
			c-0.4-0.2-0.8-0.3-1.2-0.3c-0.3,0-0.7,0.1-0.9,0.3c-0.3,0.2-0.5,0.5-0.6,0.9c-0.2,0.6-0.3,1.2-0.3,1.9v4.9H68.9z"/>
		<path d="M74.3,295c0-1.7,0.5-3,1.4-3.9c0.8-0.7,1.8-1,2.9-1c1.3,0,2.3,0.4,3.1,1.3c0.8,0.8,1.2,2,1.2,3.5c0,1.2-0.2,2.2-0.5,2.8
			c-0.4,0.7-0.9,1.2-1.6,1.6c-0.7,0.4-1.4,0.6-2.3,0.6c-1.3,0-2.4-0.4-3.2-1.3C74.7,297.8,74.3,296.6,74.3,295z M75.9,295
			c0,1.2,0.3,2.1,0.8,2.7c0.5,0.6,1.2,0.9,2,0.9c0.8,0,1.4-0.3,2-0.9c0.5-0.6,0.8-1.5,0.8-2.7c0-1.2-0.3-2-0.8-2.6
			c-0.5-0.6-1.2-0.9-2-0.9c-0.8,0-1.4,0.3-2,0.9C76.2,292.9,75.9,293.8,75.9,295z"/>
		<path d="M91,296.3l1.6,0.2c-0.2,1.1-0.6,1.9-1.3,2.5c-0.7,0.6-1.6,0.9-2.6,0.9c-1.3,0-2.3-0.4-3.1-1.3c-0.8-0.8-1.2-2-1.2-3.6
			c0-1,0.2-1.9,0.5-2.7s0.8-1.3,1.5-1.7c0.7-0.4,1.4-0.6,2.2-0.6c1,0,1.8,0.3,2.5,0.8c0.6,0.5,1.1,1.2,1.2,2.2l-1.5,0.2
			c-0.1-0.6-0.4-1.1-0.8-1.4c-0.4-0.3-0.8-0.5-1.3-0.5c-0.8,0-1.4,0.3-1.9,0.9c-0.5,0.6-0.7,1.5-0.7,2.7c0,1.3,0.2,2.2,0.7,2.7
			c0.5,0.6,1.1,0.9,1.9,0.9c0.6,0,1.1-0.2,1.6-0.6C90.6,297.7,90.9,297.1,91,296.3z"/>
		<path d="M100.3,296.7l1.6,0.2c-0.3,1-0.7,1.7-1.4,2.2s-1.6,0.8-2.7,0.8c-1.4,0-2.4-0.4-3.2-1.3c-0.8-0.8-1.2-2-1.2-3.6
			c0-1.6,0.4-2.8,1.2-3.7c0.8-0.9,1.9-1.3,3.1-1.3c1.2,0,2.3,0.4,3.1,1.3c0.8,0.9,1.2,2.1,1.2,3.6c0,0.1,0,0.2,0,0.4h-7
			c0.1,1,0.3,1.8,0.9,2.4s1.2,0.8,2,0.8c0.6,0,1.1-0.2,1.5-0.5C99.7,297.8,100,297.4,100.3,296.7z M95.1,294.1h5.2
			c-0.1-0.8-0.3-1.4-0.6-1.8c-0.5-0.6-1.2-0.9-2-0.9c-0.7,0-1.3,0.2-1.8,0.7S95.1,293.3,95.1,294.1z"/>
		<path d="M103.3,296.9l1.6-0.2c0.1,0.6,0.3,1.1,0.7,1.4c0.4,0.3,1,0.5,1.7,0.5c0.7,0,1.3-0.1,1.6-0.4c0.4-0.3,0.5-0.6,0.5-1
			c0-0.4-0.2-0.6-0.5-0.8c-0.2-0.1-0.8-0.3-1.6-0.5c-1.2-0.3-2-0.5-2.4-0.8s-0.8-0.5-1-0.9s-0.3-0.8-0.3-1.3c0-0.4,0.1-0.8,0.3-1.2
			c0.2-0.4,0.4-0.7,0.8-0.9c0.2-0.2,0.6-0.3,1-0.5c0.4-0.1,0.9-0.2,1.4-0.2c0.7,0,1.4,0.1,1.9,0.3c0.6,0.2,1,0.5,1.2,0.9
			s0.4,0.8,0.5,1.5l-1.5,0.2c-0.1-0.5-0.3-0.9-0.6-1.1s-0.8-0.4-1.4-0.4c-0.7,0-1.2,0.1-1.6,0.4c-0.3,0.2-0.5,0.5-0.5,0.8
			c0,0.2,0.1,0.4,0.2,0.6c0.1,0.2,0.3,0.3,0.6,0.4c0.2,0.1,0.6,0.2,1.4,0.4c1.1,0.3,1.9,0.5,2.3,0.7s0.8,0.5,1,0.8
			c0.3,0.4,0.4,0.8,0.4,1.4c0,0.5-0.2,1-0.5,1.5s-0.8,0.8-1.3,1.1c-0.6,0.3-1.2,0.4-2,0.4c-1.2,0-2.1-0.3-2.8-0.8
			C103.8,298.6,103.4,297.9,103.3,296.9z"/>
		<path d="M112.3,296.9l1.6-0.2c0.1,0.6,0.3,1.1,0.7,1.4c0.4,0.3,1,0.5,1.7,0.5c0.7,0,1.3-0.1,1.6-0.4c0.4-0.3,0.5-0.6,0.5-1
			c0-0.4-0.2-0.6-0.5-0.8c-0.2-0.1-0.8-0.3-1.6-0.5c-1.2-0.3-2-0.5-2.4-0.8s-0.8-0.5-1-0.9s-0.3-0.8-0.3-1.3c0-0.4,0.1-0.8,0.3-1.2
			c0.2-0.4,0.4-0.7,0.8-0.9c0.2-0.2,0.6-0.3,1-0.5c0.4-0.1,0.9-0.2,1.4-0.2c0.7,0,1.4,0.1,1.9,0.3c0.6,0.2,1,0.5,1.2,0.9
			s0.4,0.8,0.5,1.5l-1.5,0.2c-0.1-0.5-0.3-0.9-0.6-1.1s-0.8-0.4-1.4-0.4c-0.7,0-1.2,0.1-1.6,0.4c-0.3,0.2-0.5,0.5-0.5,0.8
			c0,0.2,0.1,0.4,0.2,0.6c0.1,0.2,0.3,0.3,0.6,0.4c0.2,0.1,0.6,0.2,1.4,0.4c1.1,0.3,1.9,0.5,2.3,0.7s0.8,0.5,1,0.8
			c0.3,0.4,0.4,0.8,0.4,1.4c0,0.5-0.2,1-0.5,1.5s-0.8,0.8-1.3,1.1c-0.6,0.3-1.2,0.4-2,0.4c-1.2,0-2.1-0.3-2.8-0.8
			C112.8,298.6,112.4,297.9,112.3,296.9z"/>
		<path d="M121.9,288.6v-1.8h1.6v1.8H121.9z M121.9,299.7v-9.4h1.6v9.4H121.9z"/>
		<path d="M125.9,299.7v-9.4h1.4v1.3c0.7-1,1.7-1.5,3-1.5c0.6,0,1.1,0.1,1.6,0.3c0.5,0.2,0.8,0.5,1.1,0.8c0.2,0.3,0.4,0.7,0.5,1.2
			c0.1,0.3,0.1,0.8,0.1,1.5v5.8h-1.6V294c0-0.6-0.1-1.1-0.2-1.5c-0.1-0.3-0.3-0.6-0.7-0.8c-0.3-0.2-0.7-0.3-1.1-0.3
			c-0.7,0-1.3,0.2-1.7,0.6c-0.5,0.4-0.7,1.2-0.7,2.4v5.1H125.9z"/>
		<path d="M135.6,300.5l1.5,0.2c0.1,0.5,0.2,0.8,0.5,1c0.4,0.3,0.9,0.4,1.6,0.4c0.7,0,1.3-0.1,1.7-0.4s0.7-0.7,0.8-1.2
			c0.1-0.3,0.1-1,0.1-2c-0.7,0.8-1.6,1.2-2.6,1.2c-1.3,0-2.3-0.5-3-1.4c-0.7-0.9-1.1-2-1.1-3.3c0-0.9,0.2-1.7,0.5-2.5
			s0.8-1.3,1.4-1.8c0.6-0.4,1.3-0.6,2.2-0.6c1.1,0,2,0.4,2.7,1.3v-1.1h1.5v8.1c0,1.5-0.1,2.5-0.4,3.1c-0.3,0.6-0.8,1.1-1.4,1.4
			s-1.4,0.5-2.4,0.5c-1.1,0-2-0.3-2.7-0.8C135.9,302.2,135.6,301.5,135.6,300.5z M136.9,294.8c0,1.2,0.2,2.1,0.7,2.7
			s1.1,0.8,1.8,0.8c0.7,0,1.3-0.3,1.8-0.8s0.7-1.4,0.7-2.6c0-1.1-0.3-2-0.8-2.6s-1.1-0.9-1.8-0.9c-0.7,0-1.3,0.3-1.8,0.9
			S136.9,293.7,136.9,294.8z"/>
	</g>
	<g class="st1">
		<path d="M495.4,273.5l1.7,0.4c-0.4,1.4-1,2.5-1.9,3.2c-0.9,0.7-2.1,1.1-3.4,1.1c-1.4,0-2.5-0.3-3.4-0.9c-0.9-0.6-1.5-1.4-2-2.5
			c-0.5-1.1-0.7-2.2-0.7-3.5c0-1.3,0.3-2.5,0.8-3.5s1.2-1.8,2.2-2.3c0.9-0.5,2-0.8,3.1-0.8c1.3,0,2.4,0.3,3.3,1s1.5,1.6,1.8,2.8
			l-1.7,0.4c-0.3-0.9-0.7-1.6-1.3-2.1s-1.3-0.6-2.1-0.6c-1,0-1.8,0.2-2.5,0.7s-1.1,1.1-1.4,1.9c-0.3,0.8-0.4,1.6-0.4,2.5
			c0,1.1,0.2,2.1,0.5,2.9s0.8,1.4,1.5,1.8c0.7,0.4,1.4,0.6,2.2,0.6c1,0,1.8-0.3,2.4-0.8S495.2,274.6,495.4,273.5z"/>
		<path d="M498.4,273.3c0-1.7,0.5-3,1.4-3.9c0.8-0.7,1.8-1,2.9-1c1.3,0,2.3,0.4,3.1,1.3c0.8,0.8,1.2,2,1.2,3.5
			c0,1.2-0.2,2.2-0.5,2.8c-0.4,0.7-0.9,1.2-1.6,1.6c-0.7,0.4-1.4,0.6-2.3,0.6c-1.3,0-2.4-0.4-3.2-1.3
			C498.8,276.1,498.4,274.9,498.4,273.3z M500,273.3c0,1.2,0.3,2.1,0.8,2.7c0.5,0.6,1.2,0.9,2,0.9c0.8,0,1.4-0.3,2-0.9
			c0.5-0.6,0.8-1.5,0.8-2.7c0-1.2-0.3-2-0.8-2.6c-0.5-0.6-1.2-0.9-2-0.9c-0.8,0-1.4,0.3-2,0.9C500.3,271.2,500,272.1,500,273.3z"/>
		<path d="M509,278v-9.4h1.4v1.3c0.7-1,1.7-1.5,3-1.5c0.6,0,1.1,0.1,1.6,0.3c0.5,0.2,0.8,0.5,1.1,0.8c0.2,0.3,0.4,0.7,0.5,1.2
			c0.1,0.3,0.1,0.8,0.1,1.5v5.8H515v-5.7c0-0.6-0.1-1.1-0.2-1.5c-0.1-0.3-0.3-0.6-0.7-0.8c-0.3-0.2-0.7-0.3-1.1-0.3
			c-0.7,0-1.3,0.2-1.7,0.6c-0.5,0.4-0.7,1.2-0.7,2.4v5.1H509z"/>
		<path d="M519.4,278v-8.1H518v-1.2h1.4v-1c0-0.6,0.1-1.1,0.2-1.4c0.2-0.4,0.4-0.7,0.8-1c0.4-0.3,0.9-0.4,1.6-0.4
			c0.4,0,0.9,0.1,1.5,0.2l-0.2,1.4c-0.3-0.1-0.6-0.1-0.9-0.1c-0.5,0-0.8,0.1-1,0.3c-0.2,0.2-0.3,0.6-0.3,1.2v0.9h1.8v1.2H521v8.1
			H519.4z"/>
		<path d="M524,266.9v-1.8h1.6v1.8H524z M524,278v-9.4h1.6v9.4H524z"/>
		<path d="M527.7,278.8l1.5,0.2c0.1,0.5,0.2,0.8,0.5,1c0.4,0.3,0.9,0.4,1.6,0.4c0.7,0,1.3-0.1,1.7-0.4s0.7-0.7,0.8-1.2
			c0.1-0.3,0.1-1,0.1-2c-0.7,0.8-1.6,1.2-2.6,1.2c-1.3,0-2.3-0.5-3-1.4c-0.7-0.9-1.1-2-1.1-3.3c0-0.9,0.2-1.7,0.5-2.5
			s0.8-1.3,1.4-1.8c0.6-0.4,1.3-0.6,2.2-0.6c1.1,0,2,0.4,2.7,1.3v-1.1h1.5v8.1c0,1.5-0.1,2.5-0.4,3.1c-0.3,0.6-0.8,1.1-1.4,1.4
			s-1.4,0.5-2.4,0.5c-1.1,0-2-0.3-2.7-0.8C528,280.5,527.7,279.8,527.7,278.8z M529,273.1c0,1.2,0.2,2.1,0.7,2.7s1.1,0.8,1.8,0.8
			c0.7,0,1.3-0.3,1.8-0.8s0.7-1.4,0.7-2.6c0-1.1-0.3-2-0.8-2.6s-1.1-0.9-1.8-0.9c-0.7,0-1.3,0.3-1.8,0.9S529,272,529,273.1z"/>
		<path d="M544.1,278v-1.4c-0.7,1.1-1.7,1.6-3,1.6c-0.6,0-1.1-0.1-1.5-0.3s-0.8-0.5-1.1-0.8s-0.4-0.7-0.5-1.2
			c-0.1-0.3-0.1-0.8-0.1-1.5v-5.8h1.6v5.2c0,0.8,0,1.4,0.1,1.7c0.1,0.4,0.3,0.7,0.6,1c0.3,0.2,0.7,0.4,1.2,0.4s0.9-0.1,1.3-0.4
			c0.4-0.2,0.7-0.6,0.9-1c0.2-0.4,0.3-1,0.3-1.8v-5h1.6v9.4H544.1z"/>
		<path d="M548,278v-9.4h1.4v1.4c0.4-0.7,0.7-1.1,1-1.3c0.3-0.2,0.6-0.3,1-0.3c0.5,0,1.1,0.2,1.6,0.5l-0.5,1.5
			c-0.4-0.2-0.8-0.3-1.2-0.3c-0.3,0-0.7,0.1-0.9,0.3c-0.3,0.2-0.5,0.5-0.6,0.9c-0.2,0.6-0.3,1.2-0.3,1.9v4.9H548z"/>
		<path d="M560.4,275l1.6,0.2c-0.3,1-0.7,1.7-1.4,2.2s-1.6,0.8-2.7,0.8c-1.4,0-2.4-0.4-3.2-1.3c-0.8-0.8-1.2-2-1.2-3.6
			c0-1.6,0.4-2.8,1.2-3.7c0.8-0.9,1.9-1.3,3.1-1.3c1.2,0,2.3,0.4,3.1,1.3c0.8,0.9,1.2,2.1,1.2,3.6c0,0.1,0,0.2,0,0.4h-7
			c0.1,1,0.3,1.8,0.9,2.4s1.2,0.8,2,0.8c0.6,0,1.1-0.2,1.5-0.5C559.9,276.1,560.2,275.7,560.4,275z M555.2,272.4h5.2
			c-0.1-0.8-0.3-1.4-0.6-1.8c-0.5-0.6-1.2-0.9-2-0.9c-0.7,0-1.3,0.2-1.8,0.7C555.6,270.9,555.3,271.6,555.2,272.4z"/>
	</g>
	<g class="st1">
		<path d="M489.8,299.7v-12.9h4.4c1,0,1.8,0.1,2.3,0.2c0.7,0.2,1.4,0.5,1.9,0.9c0.7,0.6,1.2,1.3,1.5,2.2c0.3,0.9,0.5,1.9,0.5,3.1
			c0,1-0.1,1.9-0.3,2.6s-0.5,1.4-0.9,1.9c-0.4,0.5-0.7,0.9-1.2,1.2c-0.4,0.3-0.9,0.5-1.5,0.6c-0.6,0.1-1.3,0.2-2.1,0.2H489.8z
			 M491.5,298.2h2.8c0.8,0,1.5-0.1,2-0.2c0.5-0.2,0.9-0.4,1.2-0.7c0.4-0.4,0.7-1,0.9-1.6c0.2-0.7,0.3-1.5,0.3-2.5
			c0-1.4-0.2-2.4-0.7-3.1c-0.4-0.7-1-1.2-1.6-1.5c-0.5-0.2-1.2-0.3-2.2-0.3h-2.7V298.2z"/>
		<path d="M502.6,288.6v-1.8h1.6v1.8H502.6z M502.6,299.7v-9.4h1.6v9.4H502.6z"/>
		<path d="M513,296.7l1.6,0.2c-0.3,1-0.7,1.7-1.4,2.2s-1.6,0.8-2.7,0.8c-1.4,0-2.4-0.4-3.2-1.3c-0.8-0.8-1.2-2-1.2-3.6
			c0-1.6,0.4-2.8,1.2-3.7c0.8-0.9,1.9-1.3,3.1-1.3c1.2,0,2.3,0.4,3.1,1.3c0.8,0.9,1.2,2.1,1.2,3.6c0,0.1,0,0.2,0,0.4h-7
			c0.1,1,0.3,1.8,0.9,2.4s1.2,0.8,2,0.8c0.6,0,1.1-0.2,1.5-0.5C512.4,297.8,512.7,297.4,513,296.7z M507.8,294.1h5.2
			c-0.1-0.8-0.3-1.4-0.6-1.8c-0.5-0.6-1.2-0.9-2-0.9c-0.7,0-1.3,0.2-1.8,0.7S507.8,293.3,507.8,294.1z"/>
		<path d="M520,298.3l0.2,1.4c-0.4,0.1-0.8,0.1-1.2,0.1c-0.6,0-1-0.1-1.3-0.3c-0.3-0.2-0.5-0.4-0.7-0.7c-0.1-0.3-0.2-0.9-0.2-1.9
			v-5.4h-1.2v-1.2h1.2V288l1.6-1v3.3h1.6v1.2h-1.6v5.5c0,0.5,0,0.7,0.1,0.9c0.1,0.1,0.1,0.2,0.3,0.3c0.1,0.1,0.3,0.1,0.5,0.1
			C519.5,298.3,519.8,298.3,520,298.3z"/>
		<path d="M526.8,299.7v-12.9h4.9c0.9,0,1.5,0,2,0.1c0.6,0.1,1.2,0.3,1.6,0.6c0.4,0.3,0.8,0.7,1,1.2c0.3,0.5,0.4,1.1,0.4,1.8
			c0,1.1-0.3,2-1,2.8s-2,1.1-3.8,1.1h-3.3v5.3H526.8z M528.5,292.9h3.3c1.1,0,1.9-0.2,2.3-0.6c0.5-0.4,0.7-1,0.7-1.7
			c0-0.5-0.1-1-0.4-1.4c-0.3-0.4-0.6-0.6-1.1-0.8c-0.3-0.1-0.8-0.1-1.6-0.1h-3.3V292.9z"/>
		<path d="M538.6,299.7v-12.9h1.6v12.9H538.6z"/>
		<path d="M548.7,298.5c-0.6,0.5-1.2,0.9-1.7,1.1c-0.5,0.2-1.1,0.3-1.7,0.3c-1,0-1.8-0.3-2.4-0.8c-0.6-0.5-0.8-1.1-0.8-1.9
			c0-0.5,0.1-0.9,0.3-1.3c0.2-0.4,0.5-0.7,0.8-0.9s0.7-0.4,1.1-0.5c0.3-0.1,0.8-0.2,1.4-0.2c1.3-0.2,2.2-0.3,2.8-0.5
			c0-0.2,0-0.4,0-0.4c0-0.6-0.1-1.1-0.4-1.4c-0.4-0.4-1-0.5-1.8-0.5c-0.7,0-1.3,0.1-1.6,0.4s-0.6,0.7-0.8,1.4l-1.5-0.2
			c0.1-0.7,0.4-1.2,0.7-1.6s0.8-0.7,1.4-0.9s1.3-0.3,2.1-0.3c0.8,0,1.4,0.1,1.9,0.3c0.5,0.2,0.9,0.4,1.1,0.7
			c0.2,0.3,0.4,0.6,0.5,1.1c0.1,0.3,0.1,0.8,0.1,1.5v2.1c0,1.5,0,2.4,0.1,2.8c0.1,0.4,0.2,0.8,0.4,1.1H549
			C548.8,299.4,548.7,299,548.7,298.5z M548.6,295c-0.6,0.2-1.4,0.4-2.6,0.6c-0.7,0.1-1.1,0.2-1.4,0.3c-0.3,0.1-0.5,0.3-0.6,0.5
			s-0.2,0.5-0.2,0.8c0,0.4,0.2,0.8,0.5,1.1c0.3,0.3,0.8,0.4,1.4,0.4c0.6,0,1.2-0.1,1.6-0.4c0.5-0.3,0.8-0.6,1-1.1
			c0.2-0.4,0.3-0.9,0.3-1.6V295z"/>
		<path d="M552.6,299.7v-9.4h1.4v1.3c0.7-1,1.7-1.5,3-1.5c0.6,0,1.1,0.1,1.6,0.3c0.5,0.2,0.8,0.5,1.1,0.8c0.2,0.3,0.4,0.7,0.5,1.2
			c0.1,0.3,0.1,0.8,0.1,1.5v5.8h-1.6V294c0-0.6-0.1-1.1-0.2-1.5c-0.1-0.3-0.3-0.6-0.7-0.8c-0.3-0.2-0.7-0.3-1.1-0.3
			c-0.7,0-1.3,0.2-1.7,0.6c-0.5,0.4-0.7,1.2-0.7,2.4v5.1H552.6z"/>
	</g>
	<g>
		<g>
			<defs>
				<circle id="SVGID_1_" cx="306" cy="306" r="306"/>
			</defs>
			<clipPath id="SVGID_2_">
				<use xlink:href="#SVGID_1_"  style="overflow:visible;"/>
			</clipPath>
			<g class="st2">
				<path class="st3" d="M128,172.4c179-189.8,371,4,371,4"/>
				<line class="st3" x1="136.8" y1="231" x2="180.2" y2="258.5"/>
				<line class="st3" x1="480.2" y1="231" x2="436.8" y2="258.5"/>
				<g>
					<g>
						<g class="st4">
							<path class="st5" d="M255.6,363.1c-19.4-24.3-49.1-8.8-74.4,9.8c-25.3,18.6-30.2,53.4-10.8,77.8c1.4,1.8,2.9,3.4,4.5,5
								l-2.5,19.1l-7.7-1.1L147,609h92.2l17.6-122.1l-7.2-1l4.5-33.9C272.4,429.3,272.9,384.8,255.6,363.1z"/>
							<path class="st5" d="M465.2,473.6l-7.7,1.1l-3.5-26.1c3.3-3.4,6.1-7.3,8.2-11.5c2.2-4.3,3.4-8.5,3.6-12.3
								c3.6-2.6,5.7-8.6,5.2-12.8l-9.5-69.5c-0.4-3-3.2-5.1-6.3-4.7c-6.6,0.8-12.9,8.5-11.9,16.8l6.1,51
								c-14.1-0.8-31.4,10.6-39.1,25.9c-1.9,3.7-3,7.3-3.5,10.7l-31.8,6l5,37.6l-7.2,1L384.3,609h100.4L465.2,473.6z"/>
						</g>
						<path class="st6" d="M443.3,372.7c25.3,18.6,30.2,53.4,10.8,77.8c-19.4,24.3-51,27.1-76.3,8.5s-28.3-71.7-8.9-96
							C388.3,338.5,418,354,443.3,372.7z"/>
						<path class="st6" d="M175.9,372.7c-25.3,18.6-30.2,53.4-10.8,77.8c19.4,24.3,51,27.1,76.3,8.5s28.2-71.7,8.9-96
							C230.9,338.5,201.2,354,175.9,372.7z"/>
						<g>
							<g class="st4">
								<path d="M196.7,239h229c8.6,0,15.7,6.8,15.7,15.1v147.2c0,8.3-7.1,15.1-15.7,15.1h-229c-8.6,0-15.7-6.8-15.7-15.1V254.1
									C181,245.8,188.1,239,196.7,239z"/>
							</g>
							<g>
								<path class="st7" d="M194.4,236.7h229c8.6,0,15.7,6.8,15.7,15.1V399c0,8.3-7.1,15.1-15.7,15.1h-229
									c-8.6,0-15.7-6.8-15.7-15.1V251.8C178.7,243.5,185.8,236.7,194.4,236.7z"/>
							</g>
						</g>
						<g>
							<path class="st8" d="M200.2,402.7V248.1c0-0.3,0.2-0.5,0.4-0.5h213.8c0.2,0,0.4,0.2,0.4,0.5v154.5c0,0.3-0.2,0.5-0.4,0.5
								H200.6C200.4,403.2,200.2,403,200.2,402.7z"/>
							<path class="st9" d="M184.8,344.6v-38.4c0-1,0.9-1.9,2-1.9l0,0c1.1,0,2,0.9,2,1.9v38.4c0,1-0.9,1.9-2,1.9l0,0
								C185.7,346.5,184.8,345.6,184.8,344.6z"/>
							<ellipse class="st9" cx="426.4" cy="325.4" rx="6.7" ry="6.4"/>
						</g>
						<polygon class="st6" points="172.5,433.5 159.3,532.7 238.1,532.7 249.4,448 						"/>
						<polygon class="st7" points="159.3,473.3 141.7,608.7 234,608.7 251.6,486.6 						"/>
						<path class="st10" d="M175.4,404.6c-16.3,0.8-19,15.5-10.8,30.3s24,24.2,40.4,23.4c16.3-0.8,23-13.5,14.8-28.3
							C211.6,415.1,191.7,403.8,175.4,404.6z"/>
						<path class="st10" d="M169.2,337.5c-3.5-0.4-4.1,2.5-4.5,5.8l-9.4,62.1c-0.7,5.8,3.1,15,9.2,15.7l0,0c6,0.7,12.7-3.4,13.4-9.2
							l7.3-55C186.5,347.6,176.6,338.4,169.2,337.5z"/>
						<path class="st6" d="M169.2,337.5c-3.1-0.4-5.9,1.8-6.3,4.7l-9.5,69.5c-0.6,5.1,2.8,13.3,8.1,13.9l0,0
							c5.3,0.6,11.4-3.1,12-8.2l7.6-63.1C182.1,346,175.8,338.3,169.2,337.5z"/>
						<path class="st6" d="M173.8,405.5c-14.3,1.5-19.5,15.6-11.5,31.3c7.9,15.8,26,27.3,40.3,25.8s19.5-15.5,11.5-31.3
							C206.2,415.5,188.1,404,173.8,405.5z"/>
						<path class="st11" d="M164.7,339c-0.9,0.8-1.6,2-1.7,3.3l-1.9,14.2c3.7-0.4,6.4-1,10.1-2.4C172.2,348.2,171,339,164.7,339z"/>
						<polygon class="st6" points="446.7,433.5 459.9,532.7 381.1,532.7 369.8,448 						"/>
						<polygon class="st7" points="459.9,473.3 479.5,608.7 379,608.7 367.6,486.6 						"/>
						<path class="st10" d="M443.8,404.6c16.3,0.8,19,15.5,10.8,30.3s-24,24.2-40.4,23.4c-16.3-0.8-23-13.5-14.8-28.3
							C407.6,415.1,427.5,403.8,443.8,404.6z"/>
						<path class="st10" d="M450,337.5c3.5-0.4,4.1,2.5,4.5,5.8l9.4,62.1c0.7,5.8-3.1,15-9.2,15.7l0,0c-6,0.7-12.7-3.4-13.4-9.2
							l-7.3-55C432.7,347.6,442.5,338.4,450,337.5z"/>
						<path class="st6" d="M450,337.5c3.1-0.4,5.9,1.8,6.3,4.7l9.5,69.5c0.6,5.1-2.8,13.3-8.1,13.9l0,0c-5.3,0.6-11.4-3.1-12-8.2
							l-7.6-63.1C437.1,346,443.4,338.3,450,337.5z"/>
						<path class="st6" d="M445.4,405.5c14.3,1.5,19.5,15.6,11.5,31.3c-7.9,15.8-26,27.3-40.3,25.8s-19.5-15.5-11.5-31.3
							C413,415.5,431.1,404,445.4,405.5z"/>
						<path class="st11" d="M454.5,339c0.9,0.8,1.6,2,1.7,3.3l1.9,14.2c-3.7-0.4-6.4-1-10.1-2.4C447,348.2,448.2,339,454.5,339z"/>
					</g>
				</g>
				<g>
					<rect x="200.6" y="247.6" class="st12" width="214.1" height="156.1"/>
					<rect x="288.6" y="336" class="st8" width="34.8" height="3.8"/>
					<rect x="246.7" y="344.6" class="st8" width="118.5" height="3.8"/>
					<rect x="246.7" y="353.2" class="st8" width="118.5" height="3.8"/>
					<rect x="246.7" y="361.8" class="st8" width="118.5" height="3.8"/>
					<g>
						<path class="st8" d="M267.9,307.3C267.9,307.2,268,307.2,267.9,307.3c1.3-3.7,3-4.9,6.9-4.9c1.8,0,3.6,0,5.3,0
							c3.4-12.7,11.2-20.4,24.4-21.5c10.6-0.9,20.7,5.2,25.4,15.2c1.5-0.8,3.1-1.6,4.6-2.3c2-1,4-2,6-3c1.4-0.7,2.8-0.3,3.5,0.9
							c0.6,1.3,0.1,2.6-1.3,3.3c-3.4,1.7-6.9,3.5-10.3,5.2c-0.7,0.4-1,0.7-0.7,1.5c0.1,0.2,0.1,0.4,0.2,0.7c2.1,0,4.2,0,6.3,0
							c3.5,0,6.1,2.7,6,6.2c0,1.3-0.6,2.3-1.4,3.2c-2.5,2.8-5.1,5.7-7.6,8.6c-0.4,0.4-0.6,0.9-0.5,1.5c0.1,1.4-0.1,2.8-0.9,4
							c-1.2,1.8-2.8,2.9-5,2.9c-15.2,0-30.4,0-45.5,0c-3.2,0-5.9-2.7-5.9-5.9c0-1.4-0.4-2.3-1.3-3.3c-2.4-2.6-4.7-5.2-7-7.9
							c-0.6-0.7-0.9-1.6-1.3-2.4C267.9,308.6,267.9,307.9,267.9,307.3z M306.1,307.1c-10.5,0-21,0-31.5,0c-0.3,0-0.6-0.1-0.8,0
							c-0.4,0.2-0.8,0.4-1,0.8c-0.1,0.2,0.1,0.7,0.3,0.9c2.3,2.7,4.6,5.4,7.1,8c1.5,1.5,2.2,3.1,2,5.3c-0.2,1.4,0.3,1.8,1.8,1.8
							c9.3,0,18.7,0,28,0c5.4,0,10.9,0,16.3,0c1.2,0,1.6-0.4,1.6-1.7c0-0.8,0-1.7,0-2.5c0-0.4,0.2-0.9,0.4-1.2
							c2.9-3.3,5.8-6.5,8.7-9.8c0.6-0.7,0.4-1.4-0.5-1.6c-0.3-0.1-0.6-0.1-1-0.1C327.2,307.1,316.7,307.1,306.1,307.1z M285.1,302.3
							c2.7-9.2,8.5-15.1,17.9-16.5c10.3-1.5,17.8,3.2,22.8,12.3c0.6-0.3,1.3-0.7,2-1c-4.2-9.3-14.6-15.8-26.2-13.6
							c-11.3,2.2-17.7,11.5-18.8,18.7C283.6,302.3,284.4,302.3,285.1,302.3z M290.1,302.3c2.5-6.8,7.2-11.1,14.4-11.8
							c7.8-0.8,13.4,2.9,17.1,9.8c0.7-0.3,1.3-0.7,2-1c-2.6-6.3-10-12.4-19.8-11.2c-7.4,0.9-15.4,8-15.9,14.2
							C288.5,302.3,289.3,302.3,290.1,302.3z M319.2,301.4c-1.8-5.2-8-9-13.8-8.6c-7.2,0.5-11.5,5.7-12.6,9.6c0.6,0,1.1,0,1.6,0
							c0.6,0.1,0.9-0.2,1.2-0.7c2.1-3.9,5.4-6.2,9.8-6.4c4.7-0.3,8.4,1.7,11,5.7c0.3,0.5,0.7,1.3,1.1,1.4c0.5,0.1,1.1-0.5,1.7-0.7
							C319.2,301.5,319.2,301.4,319.2,301.4z M297.9,302.3c0.8,0,1.4,0,2,0s1-0.1,1.5-0.6c2.7-2.5,6.9-2.5,9.6,0.1
							c0.2,0.2,0.4,0.4,0.6,0.4c0.9,0,1.8,0,2.8,0c-2.1-3.2-4.9-4.9-8.5-4.8C302.4,297.6,299.9,299.3,297.9,302.3z"/>
						<path class="st8" d="M307.3,251.9c1.2,0.8,1.3,2.2,1.3,3.4c-0.1,1.5-0.5,3-0.9,4.4c-0.5,1.7-1.2,3.3-1.8,4.9
							c-0.4,1.2-0.4,2.3,0,3.5c0.3,0.8,0,1.4-0.7,1.7c-0.7,0.2-1.3-0.1-1.6-0.9c-0.7-1.8-0.6-3.6,0-5.4c0.5-1.6,1.2-3.1,1.8-4.7
							c0.7-1.8,1.2-3.6,0.4-5.4c-0.3-0.7,0.2-1.1,0.6-1.5C306.7,251.9,307,251.9,307.3,251.9z"/>
						<path class="st8" d="M292,266.3c-0.1,1.9-0.8,3.5-1.4,5.2c-0.6,1.6-1.2,3.2-1.6,4.9c-0.2,0.8,0,1.7,0.2,2.6
							c0.2,0.8,0,1.5-0.7,1.7s-1.3-0.1-1.6-0.9c-0.7-1.7-0.6-3.5,0-5.2c0.6-1.8,1.4-3.6,2-5.5c0.6-1.6,0.8-3.1,0.1-4.7
							c-0.3-0.7,0.1-1.3,0.7-1.5s1.3,0,1.5,0.7C291.5,264.4,291.7,265.4,292,266.3z"/>
						<path class="st8" d="M315.4,276.8c0.1-1.9,0.8-3.5,1.4-5.2c0.6-1.5,1.1-3,1.6-4.5c0.3-1,0.2-2-0.2-2.9
							c-0.3-0.8-0.1-1.5,0.6-1.7s1.3,0.1,1.6,0.9c0.9,2.2,0.4,4.4-0.3,6.6c-0.6,1.8-1.3,3.5-1.9,5.3c-0.4,1.1-0.3,2.3,0.1,3.5
							c0.3,0.8,0,1.4-0.7,1.6c-0.7,0.3-1.3,0-1.5-0.9C315.7,278.6,315.6,277.7,315.4,276.8z"/>
					</g>
					<g>
						<path class="st13" d="M335,397.1h-56c-2.9,0-5.2-2.3-5.2-5.2v-14.5c0-2.9,2.3-5.2,5.2-5.2h56c2.9,0,5.2,2.3,5.2,5.2v14.5
							C340.3,394.7,337.9,397.1,335,397.1z"/>
						<path class="st7" d="M334,396.1h-56c-2.9,0-5.2-2.3-5.2-5.2v-14.5c0-2.9,2.3-5.2,5.2-5.2h56c2.9,0,5.2,2.3,5.2,5.2v14.5
							C339.3,393.7,336.9,396.1,334,396.1z"/>
						<g class="st1">
							<path class="st8" d="M284.8,384.7l1.6-0.1c0.1,0.6,0.2,1.1,0.5,1.5c0.3,0.4,0.7,0.7,1.3,1s1.2,0.4,1.9,0.4
								c0.6,0,1.2-0.1,1.7-0.3s0.8-0.4,1.1-0.8c0.2-0.3,0.4-0.7,0.4-1.1c0-0.4-0.1-0.7-0.3-1c-0.2-0.3-0.6-0.5-1.1-0.7
								c-0.3-0.1-1.1-0.3-2.2-0.6c-1.1-0.3-1.9-0.5-2.4-0.8c-0.6-0.3-1-0.7-1.3-1.2c-0.3-0.5-0.4-1-0.4-1.6c0-0.6,0.2-1.2,0.5-1.8
								s0.9-1,1.6-1.3c0.7-0.3,1.4-0.4,2.3-0.4c0.9,0,1.7,0.2,2.4,0.4c0.7,0.3,1.2,0.7,1.6,1.3c0.4,0.6,0.6,1.2,0.6,2l-1.6,0.1
								c-0.1-0.8-0.4-1.4-0.9-1.8s-1.2-0.6-2.2-0.6c-1,0-1.7,0.2-2.2,0.6c-0.5,0.4-0.7,0.8-0.7,1.3c0,0.5,0.2,0.8,0.5,1.1
								c0.3,0.3,1.1,0.6,2.5,0.9s2.3,0.6,2.8,0.8c0.7,0.3,1.3,0.8,1.6,1.3c0.3,0.5,0.5,1.1,0.5,1.8c0,0.7-0.2,1.3-0.6,1.9
								c-0.4,0.6-0.9,1-1.6,1.4c-0.7,0.3-1.5,0.5-2.4,0.5c-1.1,0-2.1-0.2-2.8-0.5c-0.8-0.3-1.4-0.8-1.8-1.5
								C285,386.3,284.8,385.5,284.8,384.7z"/>
							<path class="st8" d="M302.9,385.8l1.6,0.2c-0.2,0.9-0.7,1.6-1.4,2.2c-0.7,0.5-1.5,0.8-2.6,0.8c-1.3,0-2.4-0.4-3.1-1.2
								c-0.8-0.8-1.2-2-1.2-3.4c0-1.5,0.4-2.7,1.2-3.6c0.8-0.8,1.8-1.3,3-1.3c1.2,0,2.2,0.4,3,1.2c0.8,0.8,1.1,2,1.1,3.5
								c0,0.1,0,0.2,0,0.4h-6.7c0.1,1,0.3,1.8,0.8,2.3s1.1,0.8,1.9,0.8c0.6,0,1-0.1,1.4-0.4C302.4,386.9,302.7,386.4,302.9,385.8z
								 M297.9,383.3h5c-0.1-0.8-0.3-1.3-0.6-1.7c-0.5-0.6-1.1-0.9-1.9-0.9c-0.7,0-1.3,0.2-1.8,0.7
								C298.2,381.9,297.9,382.5,297.9,383.3z"/>
							<path class="st8" d="M306.4,388.7v-12.5h1.5v12.5H306.4z"/>
							<path class="st8" d="M316.5,385.8l1.6,0.2c-0.2,0.9-0.7,1.6-1.4,2.2c-0.7,0.5-1.5,0.8-2.6,0.8c-1.3,0-2.4-0.4-3.1-1.2
								c-0.8-0.8-1.2-2-1.2-3.4c0-1.5,0.4-2.7,1.2-3.6c0.8-0.8,1.8-1.3,3-1.3c1.2,0,2.2,0.4,3,1.2s1.1,2,1.1,3.5c0,0.1,0,0.2,0,0.4
								h-6.7c0.1,1,0.3,1.8,0.8,2.3c0.5,0.5,1.1,0.8,1.9,0.8c0.6,0,1-0.1,1.4-0.4C315.9,386.9,316.2,386.4,316.5,385.8z
								 M311.5,383.3h5c-0.1-0.8-0.3-1.3-0.6-1.7c-0.5-0.6-1.1-0.9-1.9-0.9c-0.7,0-1.3,0.2-1.8,0.7S311.5,382.5,311.5,383.3z"/>
							<path class="st8" d="M325.9,385.4l1.5,0.2c-0.2,1-0.6,1.9-1.3,2.4c-0.7,0.6-1.5,0.9-2.5,0.9c-1.2,0-2.2-0.4-3-1.2
								c-0.8-0.8-1.1-2-1.1-3.5c0-1,0.2-1.8,0.5-2.6c0.3-0.7,0.8-1.3,1.5-1.7c0.7-0.4,1.4-0.6,2.2-0.6c1,0,1.8,0.2,2.4,0.7
								c0.6,0.5,1,1.2,1.2,2.1l-1.5,0.2c-0.1-0.6-0.4-1.1-0.8-1.4c-0.4-0.3-0.8-0.5-1.3-0.5c-0.8,0-1.4,0.3-1.9,0.8
								c-0.5,0.6-0.7,1.4-0.7,2.6c0,1.2,0.2,2.1,0.7,2.7c0.5,0.6,1.1,0.8,1.8,0.8c0.6,0,1.1-0.2,1.5-0.6S325.8,386.2,325.9,385.4z"
								/>
							<path class="st8" d="M332,387.3l0.2,1.4c-0.4,0.1-0.8,0.1-1.2,0.1c-0.6,0-1-0.1-1.3-0.3c-0.3-0.2-0.5-0.4-0.6-0.7
								c-0.1-0.3-0.2-0.9-0.2-1.8v-5.2h-1.1v-1.2h1.1v-2.2l1.5-0.9v3.2h1.5v1.2h-1.5v5.3c0,0.4,0,0.7,0.1,0.8
								c0.1,0.1,0.1,0.2,0.3,0.3c0.1,0.1,0.3,0.1,0.5,0.1C331.5,387.4,331.8,387.4,332,387.3z"/>
						</g>
					</g>
				</g>
				<g>
					<g>
						<g>
							<g class="st14">
								<ellipse cx="228.1" cy="102.2" rx="47.7" ry="47.9"/>
							</g>
							<g>
								<g>
									<ellipse class="st15" cx="226.2" cy="100.3" rx="47.7" ry="47.9"/>
								</g>
							</g>
						</g>
					</g>
				</g>
				<g>
					<g>
						<g>
							<g class="st14">
								<ellipse cx="400.5" cy="103.5" rx="47.7" ry="47.9"/>
							</g>
							<g>
								<g>
									<ellipse class="st15" cx="398.6" cy="101.6" rx="47.7" ry="47.9"/>
								</g>
							</g>
						</g>
					</g>
				</g>
				<g>
					<g>
						<g>
							<g class="st14">
								<ellipse cx="522.9" cy="205.9" rx="47.7" ry="47.9"/>
							</g>
							<g>
								<g>
									<ellipse class="st15" cx="521" cy="204" rx="47.7" ry="47.9"/>
								</g>
							</g>
						</g>
					</g>
				</g>
				<g>
					<g>
						<g>
							<g class="st14">
								<ellipse cx="100" cy="205.2" rx="47.7" ry="47.9"/>
							</g>
							<g>
								<g>
									<ellipse class="st15" cx="98.1" cy="203.2" rx="47.7" ry="47.9"/>
								</g>
							</g>
						</g>
					</g>
				</g>
				<g>
					<path class="st8" d="M101,199.5c0.4-0.4,0.8-0.7,1.3-1.2c-1-1.2-2.1-2.3-3.1-3.6c1.2-1.2,2.3-2.4,3.5-3.5
						c0.3-0.2,0.9-0.2,1.4-0.1c8.2,1,13.4,7.2,13.7,16.2c0,1.2,0,2.5-0.1,3.7c-0.2,2.4-2.2,4.2-4.5,4.2s-3.6-1.4-3.6-3.8
						c0.1-1.8,0.2-3.6,0.1-5.3c-0.1-1.9-0.7-3.6-2.5-5.2c0,9.8,0,19.2,0,28.8c-1.9,0-3.7,0-5.7,0c0-1.9,0-3.9,0-5.9
						c0-0.2,0.4-0.5,0.7-0.7c0.5-0.6,1.2-1.1,1.3-1.7c0-0.5-0.7-1.1-1.1-1.7c-1.9-2.4-4.6-1.1-6.9-1.4c-1.2-0.1-2.4,0-3.8,0
						c0.5-1.2,0.8-2.2,2.3-2c2.8,0.4,4.9-1,5.7-3.6c0.8-2.9-0.3-5.7-2.8-6.8c-1.5-0.7-3.1-1-4.5-1.7c-2-1-3.9-2.2-5.8-3.3
						c-0.4-0.2-0.9-0.1-1.7-0.2c1.5,2.3,3.4,3.1,5.3,4c1.7,0.8,3.5,1.3,5.3,2c3,1.2,3.7,5.2,1.1,7.2c-0.9,0.7-2.3,0.7-3.5,1
						c-0.1-0.2-0.1-0.3-0.2-0.5c-0.5,0.8-1,1.6-1.4,2.5c-0.5,0.8-0.9,1.6-1.5,2.7c3,0,5.7-0.1,8.4,0c1,0,2.3-0.7,2.7,1.1
						c0,0.1,0.2,0.1,0.3,0.1c0.5,0.3,1,0.6,1.6,0.9c-0.6,0.4-1.1,0.7-2,1.3c0,1.9,0,4.2,0,6.5c-6.6,0-12.9,0-19.4,0
						c0-2.3,0-4.5,0-6.8c-0.4-0.1-0.6-0.1-0.8-0.2c-0.4-0.3-0.9-0.6-1.3-0.9c0.4-0.3,0.8-0.5,1.2-0.8c0.1-0.1,0.4,0,0.5-0.1
						c1-2.3,3.1-1.2,4.6-1.1c2.5,0.2,4.1-0.6,5-3c0.3-0.8,0.9-1.6,1.4-2.5c-1.4-0.5-2.7-1-4-1.6c-3.5-1.5-7-3.2-9.2-6.4
						c-3-4.3-2.3-8.4,2-11.4c3.6-2.5,7.9-3.3,12.1-4c0.4-0.1,0.9,0.4,1.3,0.8C96,194.1,98.4,196.8,101,199.5z"/>
					<path class="st8" d="M121.6,231.1c0,2.5,0,5,0,7.6c-16.2,0-32.3,0-48.6,0c0-2.5,0-5,0-7.6C89.2,231.1,105.3,231.1,121.6,231.1z
						"/>
					<path class="st8" d="M103.1,182c-3.9,0-7.8,0-12.1,0c0-2,0-4,0-5.9c0-0.9-0.1-1.6-1-2.1c-1.6-1-2.3-2.7-1.9-4.6
						c0.4-1.9,1.6-3.2,3.5-3.8c0.8-0.3,1.6-0.7,2.2-1.3c2.1-1.9,5.3-1.6,7.1,0.6c0.4,0.5,1,0.9,1.6,1.1c1.9,0.4,3,1.6,3.6,3.3
						c0.5,1.6-0.2,3.6-1.8,4.5c-0.9,0.5-1.1,1.2-1.1,2.1c0,1.9,0,3.9,0,5.8C103.3,181.7,103.2,181.8,103.1,182z"/>
					<path class="st8" d="M103,182.9c0.1,3.3-2.4,5.9-5.7,6c-3.4,0.1-6.1-2.5-6-6C95.1,182.9,99,182.9,103,182.9z"/>
					<path class="st8" d="M86.6,214c1.2,0.5,2.1,0.8,3.3,1.3c-1.2,1.1-1,3.2-3.3,3C86.6,216.9,86.6,215.6,86.6,214z"/>
					<path class="st8" d="M100.5,190.6c-1.1,1.1-1.9,1.9-2.8,2.8c-0.8-0.9-1.6-1.8-2.5-2.8C97,190.6,98.6,190.6,100.5,190.6z"/>
					<path class="st8" d="M80,211.3c0.5,1,0.9,2.1,1.5,3.2c0.6,1,1,1.9,0.2,2.6c-0.5-0.8-0.8-1.6-1.4-2.3
						C79.1,213.2,79,212.3,80,211.3z"/>
					<path class="st8" d="M84.6,217.8c0-1.4-2.2-2.1-1.1-3.9c0.6,1.3,1.1,2.5,1.6,3.7C84.9,217.7,84.7,217.8,84.6,217.8z"/>
				</g>
			</g>
		</g>
		<g>
			<defs>
				<circle id="SVGID_3_" cx="306" cy="306" r="306"/>
			</defs>
			<clipPath id="SVGID_4_">
				<use xlink:href="#SVGID_3_"  style="overflow:visible;"/>
			</clipPath>
			<g class="st16">
				<path class="st8" d="M208.2,121.5c0.1,0.1,0.2,0.1,0.3,0.2c1.2-2.6,3.3-2.7,5.6-2.6c4.5,0.1,9.1,0.1,13.6,0
					c0.8,0,1.8-0.1,2.4-0.5c4.7-2.9,9.4-5.9,14-8.9c0.4-0.3,0.7-1.5,0.5-2.1c-0.2-0.5-1.1-0.9-1.8-1.1c-0.4-0.1-1,0.2-1.5,0.4
					c-3.3,1.3-6.6,2.6-9.9,3.9c-0.6,0.2-1.2,0.6-1.8,0.6c-3.4-0.1-6.9-0.4-10.3-0.5c2.6-1,5.3-1.7,7.9-2.4c1-0.3,1.7-0.8,1.5-2
					s-1-1.5-2.2-1.5c-1.6,0.1-3.3,0.2-4.9,0.2c-4.8,0-9.5,0.5-14,2.5c-1.2,0.6-1.8,1-1.3,2.4c0.2,0.6,0.2,1.3,0.3,2
					C207.2,115.3,207.7,118.4,208.2,121.5z M210.5,103.3c17.8,0,35.5,0,53.1,0c0-1.6,0-3.1,0-4.6c-17.8,0-35.4,0-53.1,0
					C210.5,100.3,210.5,101.8,210.5,103.3z"/>
				<path class="st8" d="M238.1,65.7c2.9,1.8,3.4,3.5,1.7,6.4c1.1,0.3,2.2,0.5,3.3,0.8c8.6,2.4,15.4,10.6,16.3,19.5
					c0.1,1.1,0.1,2.2,0.2,3.3c0.1,1.2-0.3,1.7-1.6,1.7c-9.9-0.1-19.8-0.1-29.7-0.1c-2.1,0-4.2,0-6.2,0c0.3-7.4,2.2-16.3,11.9-23.2
					c-6.4,1.8-14.3,8.1-15.4,23.1c-1.3,0-2.5,0-4,0c-0.4-6.1,1.2-11.6,4.9-16.4c3.7-4.9,8.7-7.7,14.8-8.7c-1.5-3.2-1.1-4.7,1.8-6.5
					C236.7,65.7,237.4,65.7,238.1,65.7z"/>
				<path class="st8" d="M195.5,109.8c3-0.5,6-1,9.1-1.5c1,5.5,2,11,3,16.6c-4.1,0.8-8.1,1.5-12.2,2.3
					C195.5,121.4,195.5,115.6,195.5,109.8z"/>
				<path class="st8" d="M208.2,121.5c-0.5-3.1-1-6.2-1.5-9.3c-0.1-0.7-0.1-1.4-0.3-2c-0.5-1.4,0.1-1.8,1.3-2.4
					c4.5-2,9.2-2.5,14-2.5c1.6,0,3.3-0.1,4.9-0.2c1.1-0.1,2,0.2,2.2,1.5c0.2,1.2-0.5,1.7-1.5,2c-2.6,0.7-5.3,1.4-7.9,2.4
					c3.4,0.2,6.9,0.4,10.3,0.5c0.6,0,1.2-0.3,1.8-0.6c3.3-1.3,6.6-2.6,9.9-3.9c0.5-0.2,1.1-0.5,1.5-0.4c0.7,0.2,1.6,0.5,1.8,1.1
					s0,1.8-0.5,2.1c-4.6,3.1-9.3,6-14,8.9c-0.7,0.4-1.6,0.5-2.4,0.5c-4.5,0-9.1,0.1-13.6,0c-2.3-0.1-4.5,0-5.6,2.6
					C208.4,121.6,208.3,121.5,208.2,121.5z"/>
				<path class="st8" d="M210.5,103.3c0-1.5,0-3,0-4.6c17.7,0,35.3,0,53.1,0c0,1.5,0,3,0,4.6C245.9,103.3,228.3,103.3,210.5,103.3z"
					/>
			</g>
		</g>
		<g>
			<defs>
				<circle id="SVGID_5_" cx="306" cy="306" r="306"/>
			</defs>
			<clipPath id="SVGID_6_">
				<use xlink:href="#SVGID_5_"  style="overflow:visible;"/>
			</clipPath>
			<g class="st17">
				<g>
					<g id="file_3_">
						<path class="st18" d="M431,86.2V119c0,0.5-0.4,1-1,1h-35.6c-0.5,0-1-0.4-1-1V73.3c0-0.5,0.4-1,1-1h22.7v12.9c0,0.5,0.4,1,1,1
							C418.1,86.2,431,86.2,431,86.2z M419.2,72.4v10.9c0,0.5,0.4,1,1,1H431L419.2,72.4z"/>
					</g>
					<g id="pie_x5F_chart_2_">
						<g>
							<path class="st18" d="M401.9,101.2c0-5.3,4.3-9.5,9.5-9.5c2.6,0,5,1.1,6.7,2.8l-6.7,6.7v9.5
								C406.3,110.7,401.9,106.4,401.9,101.2z"/>
						</g>
						<path class="st19" d="M413.1,101.2l6.7-6.7c3.7,3.7,3.7,9.7,0,13.5L413.1,101.2z"/>
						<path class="st20" d="M412.2,102v9.5c2.5,0,4.8-0.9,6.7-2.8L412.2,102z"/>
					</g>
				</g>
				<g>
					<g id="file_2_">
						<path class="st8" d="M412.3,97.5v32.7c0,0.5-0.4,1-1,1h-35.6c-0.5,0-1-0.4-1-1V84.6c0-0.5,0.4-1,1-1h22.7v12.9
							c0,0.5,0.4,1,1,1H412.3z M400.4,83.7v10.9c0,0.5,0.4,1,1,1h10.9L400.4,83.7z"/>
					</g>
					<g id="charts_3_">
						<path class="st15" d="M402.7,123.8v-12.4c0-0.2-0.2-0.4-0.4-0.4h-3.4c-0.2,0-0.4,0.2-0.4,0.4v12.4h-0.9v-18.5
							c0-0.2-0.2-0.4-0.4-0.4h-3.4c-0.2,0-0.4,0.2-0.4,0.4v18.5h-0.9v-9c0-0.2-0.2-0.4-0.4-0.4h-3.4c-0.2,0-0.4,0.2-0.4,0.4v9h-0.9
							v-3.9c0-0.2-0.2-0.4-0.4-0.4h-3.4c-0.2,0-0.4,0.2-0.4,0.4v0.4v3.4h-1.7v1.7h23.1v-0.9v-0.9h-1.9V123.8z"/>
					</g>
					<rect x="401.5" y="95.6" class="st8" width="10.8" height="2"/>
				</g>
			</g>
		</g>
		<g>
			<defs>
				<circle id="SVGID_7_" cx="306" cy="306" r="306"/>
			</defs>
			<clipPath id="SVGID_8_">
				<use xlink:href="#SVGID_7_"  style="overflow:visible;"/>
			</clipPath>
			<g class="st21">
				<g>
					<g>
						<path class="st8" d="M517.8,175.5c0.2,0,0.4,0,0.5,0s0.2,0.1,0.3,0.1c2.2,0.3,3.9,2.1,3.9,4.3c0,0.7-0.2,1.5-0.3,2.2l0,0
							c1.2,0,2.4,0,3.6,0c1.6,0,2.6,1,2.6,2.6c0,0.3,0,0.6,0,1c0.3,0,0.5,0,0.6,0c1.5,0,3,0,4.5,0c0.9,0,1.8,0.2,2.5,0.8
							c1,0.8,1.4,2,1.4,3.3c0,4.9,0,9.8,0,14.8c0,7,0,13.9,0,20.9c0,1.1-0.2,2.2-1.1,3c-0.6,0.5-1.3,0.8-2,1.2
							c-10.7,0-21.5,0-32.2,0l-0.1-0.1c-1.8-0.4-2.9-2-2.9-4c0-11.9,0-23.8,0-35.8c0-2.5,1.5-4.1,4.1-4.1c1.5,0,3,0,4.4,0
							c0.2,0,0.4,0,0.6,0c0-0.3,0-0.6,0-0.9c0-1.8,1-2.7,2.7-2.7c1,0,1.9,0,2.9,0c-0.1-0.1-0.1-0.2-0.1-0.3
							c-0.9-2.3-0.1-4.7,2.1-5.8C516.6,175.8,517.3,175.7,517.8,175.5z M528.5,189.6c-0.3,1.3-0.9,1.8-2.2,1.8c-4.4,0-8.7,0-13.1,0
							c-0.9,0-1.9,0-2.8,0c-1.1,0-1.7-0.5-2-1.5c0-0.1-0.3-0.3-0.4-0.3c-0.8,0-1.6,0-2.4,0c-1.8,0-2.7,0.9-2.7,2.7c0,2.7,0,5.3,0,8
							c0,7.7,0,15.5,0,23.2c0,0.7,0.1,1.4,0.7,2s1.2,0.7,2,0.7c4.7,0,9.3,0,14,0c3.9,0,7.7,0,11.6,0c0.8,0,1.6-0.2,2.2-0.9
							c0.4-0.5,0.5-1.1,0.5-1.7c0-10.4,0-20.9,0-31.3c0-0.2,0-0.3,0-0.5c-0.1-1.1-0.9-2-1.9-2.1
							C530.8,189.5,529.7,189.6,528.5,189.6z M518.1,182.2c0.5,0,0.9,0,1.4,0c0.2,0,0.4-0.1,0.5-0.2c0.6-0.5,0.9-1.2,0.8-2
							c-0.1-1.2-0.8-2.2-2-2.5c-1-0.3-2.2,0.1-2.8,1c-0.7,0.9-0.7,2.1,0,3.1c0.3,0.4,0.5,0.6,1,0.6
							C517.3,182.2,517.7,182.2,518.1,182.2z"/>
						<path class="st8" d="M522.5,208.8c-1.8,0-3.5,0-5.3,0c-1.3,0-2.2-1-1.9-2.2c0.1-0.7,0.7-1.3,1.4-1.4c0.2,0,0.5-0.1,0.7-0.1
							c3.4,0,6.8,0,10.3,0c1.1,0,1.8,0.5,2.1,1.4s-0.3,2-1.3,2.2c-0.3,0.1-0.6,0.1-0.8,0.1C526,208.8,524.2,208.8,522.5,208.8z"/>
						<path class="st8" d="M522.5,218.5c-1.8,0-3.5,0-5.3,0c-0.9,0-1.6-0.5-1.9-1.3c-0.2-0.7,0-1.6,0.6-2c0.3-0.2,0.8-0.4,1.2-0.4
							c3.6,0,7.1,0,10.7,0c1.1,0,2,0.8,2,1.8c0,1.1-0.8,1.9-2,1.9C526.1,218.5,524.3,218.5,522.5,218.5z"/>
						<path class="st8" d="M522.6,196c1.8,0,3.7,0,5.5,0c0.9,0,1.6,0.7,1.8,1.6c0.1,0.8-0.4,1.7-1.2,1.9c-0.3,0.1-0.6,0.1-0.8,0.1
							c-3.5,0-7,0-10.5,0c-1.4,0-2.2-0.9-2-2.1c0.1-0.9,0.8-1.5,1.8-1.5C518.9,196,520.7,196,522.6,196z"/>
						<path class="st8" d="M509.8,213.4c1.8,0,3.2,1.4,3.2,3.2s-1.5,3.2-3.2,3.2s-3.2-1.5-3.2-3.2
							C506.6,214.9,508,213.4,509.8,213.4z"/>
						<path class="st8" d="M509.8,201c-1.8,0-3.2-1.4-3.2-3.2s1.5-3.2,3.2-3.2s3.2,1.4,3.2,3.2C513,199.5,511.6,201,509.8,201z"/>
						<path class="st8" d="M513,206.9c0,1.8-1.5,3.2-3.2,3.2s-3.2-1.5-3.2-3.2c0-1.8,1.4-3.2,3.2-3.2S513,205.1,513,206.9z"/>
					</g>
				</g>
				<g id="old_x5F_man_1_">
					<path class="st22" d="M549.2,228.3c-0.7-0.4-5.4-3.2-7.7-4.1v-2.8c0.7-0.5,1.1-1.3,1.1-2.5V217c1.3-0.5,2.2-1.1,2.2-1.3
						c0-0.5-0.3-1-0.6-1H543l-1.6-7.4c0-0.4-0.2-0.4-0.5-0.3l-2.6,0.8c-0.3,0.1-0.8,0.1-1.1,0l-2.6-0.8c-0.3-0.1-0.5,0-0.5,0.4
						l-1.6,7.3H531c-0.3,0-0.6,0.5-0.6,1c0,0.2,0.9,0.8,2.2,1.3c0,0.5,0,1.1,0,1.8c0,1.2,0.4,2,1.1,2.5v2.8c-2.2,1-7,3.7-7.7,4.1
						c-0.9,0.5-1.1,1-1.1,2.2c0,0.7,0,2.7,0,2.7c0,0.3,0.2,0.6,0.6,0.6h24.3c0.3,0,0.6-0.2,0.6-0.6c0,0,0-2,0-2.7
						C550.3,229.2,550.1,228.8,549.2,228.3z"/>
				</g>
			</g>
		</g>
	</g>
</g>
</svg>
