<?xml version="1.0" encoding="utf-8"?>
<!-- Generator: Adobe Illustrator 20.0.0, SVG Export Plug-In . SVG Version: 6.00 Build 0)  -->
<svg version="1.1" id="Layer_1" xmlns="http://www.w3.org/2000/svg" xmlns:xlink="http://www.w3.org/1999/xlink" x="0px" y="0px"
	 viewBox="0 0 612 612" style="enable-background:new 0 0 612 612;" xml:space="preserve">
<style type="text/css">
	.st0{fill:#439BA3;}
	.st1{clip-path:url(#SVGID_2_);}
	.st2{fill:#EDF5F2;}
	.st3{fill:#DFDCD7;}
	.st4{fill:#39434B;}
	.st5{fill:#C2B579;}
	.st6{fill:none;stroke:#39434B;stroke-width:9;stroke-miterlimit:10;}
	.st7{fill:none;stroke:#39434B;stroke-width:3;stroke-miterlimit:10;}
	.st8{fill:#9F9687;}
	.st9{fill:#CED0D1;}
	.st10{fill:#CEC293;}
	.st11{fill:#B5A45D;}
	.st12{fill:#706027;}
	.st13{fill:#BEB8AE;}
	.st14{fill:#E7E7E7;}
	.st15{fill:#565E65;}
	.st16{fill:#FFFFFF;}
	.st17{fill:url(#SVGID_3_);}
	.st18{fill:#A9A092;}
	.st19{fill:#BDC0C3;}
	.st20{fill:#576067;}
	.st21{fill:#999DA2;}
	.st22{fill:#B4B6BA;}
	.st23{fill:#7C705B;}
	.st24{fill:#DFDDDB;}
	.st25{fill:#1F3656;}
	.st26{fill:#C6E7EB;}
	.st27{fill:#F16D64;}
	.st28{opacity:0.4;}
	.st29{opacity:0.6;fill:#F16D64;}
	.st30{opacity:0.2;fill:#F16D64;}
</style>
<g>
	<circle class="st0" cx="306" cy="306" r="306"/>
	<g>
		<defs>
			<circle id="SVGID_1_" cx="306" cy="306" r="306"/>
		</defs>
		<clipPath id="SVGID_2_">
			<use xlink:href="#SVGID_1_"  style="overflow:visible;"/>
		</clipPath>
		<g class="st1">
			<path class="st2" d="M831.6,282c0,5-5,9.1-11.2,9.1h-971.8c-6.2,0-11.2-4.1-11.2-9.1V8.6c0-5,5-9.1,11.2-9.1h971.8
				c6.2,0,11.2,4.1,11.2,9.1V282z"/>
			<g>
				<g>
					<g>
						<polygon class="st3" points="261.8,205.9 254.4,205.9 256.5,146.1 259.7,146.1 						"/>
						<g>
							<polygon class="st3" points="260,147.6 255.9,147.6 256.9,117.1 258.9,117.1 							"/>
							<polygon class="st3" points="255.1,148.1 256.7,144.3 284.1,157.9 283.3,159.7 							"/>
							<polygon class="st3" points="259.5,144.7 260.9,148.5 232,158.2 231.3,156.4 							"/>
						</g>
					</g>
				</g>
			</g>
			<g>
				<g>
					<g>
						<polygon class="st3" points="327.2,205.9 319.8,205.9 321.9,146.1 325.1,146.1 						"/>
						<g>
							<polygon class="st3" points="325.3,147.6 321.2,147.6 322.3,117.1 324.3,117.1 							"/>
							<polygon class="st3" points="320.4,148.1 322.1,144.3 349.4,157.9 348.6,159.7 							"/>
							<polygon class="st3" points="324.9,144.7 326.3,148.5 297.4,158.2 296.7,156.4 							"/>
						</g>
					</g>
				</g>
			</g>
			<path class="st0" d="M737,301.5c0,6.6-5.4,12-12,12H-58.2c-6.6,0-12-5.4-12-12v-15.3c0-6.6,5.4-12,12-12H725c6.6,0,12,5.4,12,12
				V301.5z"/>
			<path class="st0" d="M773,333.1c0,6.6-5.4,12-12,12H-22.2c-6.6,0-12-5.4-12-12v-15.3c0-6.6,5.4-12,12-12H761c6.6,0,12,5.4,12,12
				V333.1z"/>
			<path class="st0" d="M425.6,365.4c0,6.6-5.4,12-12,12H99.4c-6.6,0-12-5.4-12-12v-15.3c0-6.6,5.4-12,12-12h314.2
				c6.6,0,12,5.4,12,12V365.4z"/>
			<path class="st0" d="M698.3,386.1c0,6.6-5.4,12-12,12H372.1c-6.6,0-12-5.4-12-12v-15.3c0-6.6,5.4-12,12-12h314.2
				c6.6,0,12,5.4,12,12V386.1z"/>
			<path class="st4" d="M63.5,199.2L29.9,185l-71.6,14v7.9h1.1v27.7h-2.2v2.3h2.1l-0.3,2.9c-0.7,0.4-2.3,1.5-2.4,3
				c0,1,0.6,1.8,1.8,2.6c0.4,0.2,1.3,0.8,2.2,0.8c0.3,0,0.7-0.1,0.9-0.3c1.2-1,0.3-3.7,0.1-4.3l-1,0.4c0.4,1.2,0.6,2.8,0.3,3.1
				c-0.1,0.1-0.5,0.3-1.8-0.6c-0.9-0.5-1.3-1.1-1.3-1.6c0-1,1.5-1.9,2.1-2.2l0.3-0.1l0.4-3.6h1.7v-2.3h-1.6v-27.7h48v3.3h5.3v48.5
				H9.5v2.7H5.2v3.8h39.3v-3.8h-3.3v-2.7h-4.6v-51.8h16.1v9.8h9.8v-9.8h1.1V199.2z M-41.7,235.6h1.1v0.1h-1.1V235.6z M-39.1,235.6
				v0.1h-0.5v-0.1H-39.1z M24.9,191.1l-23.4,2.7l24.8-4.8L24.9,191.1z M25.8,194.3l6.1,1.3l-17,7.1v-7.2L25.8,194.3z M18.1,242.8
				l14-0.2v0.2l-7.8,7.2l-6.3-5.8V242.8z M32.2,241.5l-14,0.2v-1.6l6.6-6.6l7.4,7.6V241.5z M18.1,238.7v-11.8l5.9,6L18.1,238.7z
				 M18.1,225.3v-1.5h14v0.9l-7.4,7.4L18.1,225.3z M18.1,221.3l6.9-6.4l7.1,6.9v0.8h-14V221.3z M25.9,214.2l6.3-5.8v11.9L25.9,214.2
				z M25.1,213.4l-6.1-6h12.6L25.1,213.4z M24.3,214.1l-6.2,5.6v-11.6L24.3,214.1z M23.6,250.8l-5.5,5v-10.1L23.6,250.8z
				 M24.4,251.5l6.8,6.3H18.1v-0.5L24.4,251.5z M25.2,250.8l7-6.4v12.9L25.2,250.8z M32.2,239.6l-6.6-6.8l6.6-6.6V239.6z M17,203.1
				l15.7-6.6v6.6H17z M28.5,191.5l1.8-2.8l15.2,6.5L28.5,191.5z M-38.5,201.8l52.3-6.1v7.4h-0.1v0.5h-52.2V201.8z M36,203.1v-6.6
				l24.3,5.1v1.9H36.5v-0.5H36z"/>
			<rect x="-37.5" y="263.3" class="st5" width="152.7" height="32.7"/>
			<polyline class="st6" points="512.9,241.8 512.9,227.1 500.1,227.1 500.1,212.5 489.4,212.5 489.4,199.8 478.3,199.8 478.3,187 
				460.1,187 			"/>
			<polyline class="st7" points="385.6,175.8 385.6,151.4 448.6,151.4 448.6,177.5 			"/>
			<g>
				<polygon class="st5" points="624.1,269.5 607.3,269.5 609.7,165.9 622.2,165.9 				"/>
				<path class="st5" d="M624.1,166.3c0,0.6-0.5,1-1,1h-14.4c-0.6,0-1-0.5-1-1l0,0c0-0.6,0.5-1,1-1h14.4
					C623.7,165.2,624.1,165.7,624.1,166.3L624.1,166.3z"/>
				<ellipse class="st8" cx="615.1" cy="212.2" rx="23.7" ry="21.9"/>
				<rect x="562.2" y="214.6" class="st5" width="90" height="57.2"/>
				<rect x="582.9" y="203.6" class="st5" width="62" height="41.4"/>
				<rect x="568.3" y="223.1" class="st4" width="8.5" height="8.5"/>
				<rect x="581.7" y="223.1" class="st4" width="8.5" height="8.5"/>
				<rect x="595.1" y="223.1" class="st4" width="8.5" height="8.5"/>
				<rect x="608.4" y="223.1" class="st4" width="8.5" height="8.5"/>
				<rect x="621.8" y="223.1" class="st4" width="8.5" height="8.5"/>
				<rect x="635.2" y="223.1" class="st4" width="8.5" height="8.5"/>
				<rect x="568.3" y="237.7" class="st4" width="8.5" height="8.5"/>
				<rect x="581.7" y="237.7" class="st4" width="8.5" height="8.5"/>
				<rect x="595.1" y="237.7" class="st4" width="8.5" height="8.5"/>
				<rect x="608.4" y="237.7" class="st4" width="8.5" height="8.5"/>
				<rect x="621.8" y="237.7" class="st4" width="8.5" height="8.5"/>
				<rect x="635.2" y="237.7" class="st4" width="8.5" height="8.5"/>
				<rect x="568.3" y="252.3" class="st4" width="8.5" height="8.5"/>
				<rect x="581.7" y="252.3" class="st4" width="8.5" height="8.5"/>
				<rect x="595.1" y="252.3" class="st4" width="8.5" height="8.5"/>
				<rect x="608.4" y="252.3" class="st4" width="8.5" height="8.5"/>
				<rect x="621.8" y="252.3" class="st4" width="8.5" height="8.5"/>
				<rect x="635.2" y="252.3" class="st4" width="8.5" height="8.5"/>
				<g>
					<circle class="st9" cx="618.6" cy="151.5" r="6.9"/>
					<circle class="st9" cx="624.3" cy="144.9" r="7.3"/>
					<circle class="st9" cx="622.8" cy="139.6" r="6.5"/>
					<circle class="st9" cx="630.5" cy="135.7" r="5.8"/>
					
						<ellipse transform="matrix(0.3474 -0.9377 0.9377 0.3474 287.1296 678.1289)" class="st9" cx="630.8" cy="132.8" rx="6.9" ry="6.9"/>
					
						<ellipse transform="matrix(0.3475 -0.9377 0.9377 0.3475 295.9536 682.6043)" class="st9" cx="638.4" cy="128.7" rx="7.3" ry="7.3"/>
					
						<ellipse transform="matrix(0.3474 -0.9377 0.9377 0.3474 284.1585 686.1285)" class="st9" cx="635.1" cy="138.9" rx="7.3" ry="7.3"/>
					
						<ellipse transform="matrix(0.3475 -0.9377 0.9377 0.3475 288.0252 673.8273)" class="st9" cx="628.2" cy="130" rx="7.3" ry="7.3"/>
					
						<ellipse transform="matrix(0.3474 -0.9377 0.9377 0.3474 301.511 679.4003)" class="st9" cx="638.9" cy="123.1" rx="6.5" ry="6.5"/>
					
						<ellipse transform="matrix(0.3473 -0.9377 0.9377 0.3473 307.9793 686.8079)" class="st9" cx="647.4" cy="122.2" rx="5.8" ry="5.8"/>
				</g>
			</g>
			<g>
				<path class="st5" d="M401.7,221.4c0,9-7.3,16.4-16.4,16.4l0,0c-9,0-16.4-7.3-16.4-16.4v-28.8c0-9,7.3-16.4,16.4-16.4l0,0
					c9,0,16.4,7.3,16.4,16.4V221.4z"/>
				<g>
					<path class="st4" d="M359.4,254.7l-0.5-2.6c17-3,16-32.4,16-32.7l2.6-0.1c0,0.3,0.3,8-1.7,16.2
						C373.1,246.7,367.4,253.3,359.4,254.7z"/>
				</g>
				<g>
					<path class="st4" d="M412.2,254.7c-8-1.4-13.7-8.1-16.4-19.2c-2-8.2-1.7-15.8-1.7-16.2l2.6,0.1c0,0.3-1,29.7,15.9,32.7
						L412.2,254.7z"/>
				</g>
				<rect x="367.7" y="216.8" class="st4" width="35.6" height="6.6"/>
				<rect x="355.6" y="250.8" class="st4" width="59.6" height="3.9"/>
				<rect x="382.9" y="173.5" class="st5" width="5.2" height="4.6"/>
				<rect x="368.8" y="201.4" class="st8" width="33.5" height="3"/>
				<rect x="368.8" y="205.8" class="st8" width="33.5" height="2.2"/>
			</g>
			<g>
				<path class="st5" d="M465,221.4c0,9-7.3,16.4-16.4,16.4l0,0c-9,0-16.4-7.3-16.4-16.4v-28.8c0-9,7.3-16.4,16.4-16.4l0,0
					c9,0,16.4,7.3,16.4,16.4V221.4z"/>
				<g>
					<path class="st4" d="M422.6,254.7l-0.5-2.6c17-3,16-32.4,16-32.7l2.6-0.1c0,0.3,0.3,8-1.7,16.2
						C436.4,246.7,430.7,253.3,422.6,254.7z"/>
				</g>
				<g>
					<path class="st4" d="M475.5,254.7c-8.1-1.4-13.7-8.1-16.4-19.2c-2-8.2-1.7-15.8-1.7-16.2l2.6,0.1c0,0.3-1,29.7,15.9,32.7
						L475.5,254.7z"/>
				</g>
				<rect x="430.9" y="216.8" class="st4" width="35.6" height="6.6"/>
				<rect x="418.9" y="250.8" class="st4" width="59.6" height="3.9"/>
				<rect x="446.2" y="173.5" class="st5" width="5.2" height="4.6"/>
				<rect x="432" y="201.4" class="st8" width="33.5" height="3"/>
				<rect x="432" y="205.8" class="st8" width="33.5" height="2.2"/>
			</g>
			<g>
				<path class="st8" d="M574.2,271.1h-78.6c0,0,18.4-17.2,22.6-67.2c1.3-15.8,1.7-65.8,1.7-65.8h29.2c0,0-1.4,47.9-0.6,64.1
					C551.6,257.7,574.2,271.1,574.2,271.1z"/>
				<rect x="517.8" y="134.7" class="st8" width="32.9" height="6"/>
				<rect x="519.3" y="142.8" class="st5" width="30.7" height="3.4"/>
				<rect x="519.3" y="148.7" class="st5" width="30.7" height="3.4"/>
				<rect x="492.7" y="268.4" class="st8" width="83.3" height="3.4"/>
			</g>
			<rect x="353.9" y="222.2" class="st4" width="128.7" height="72.3"/>
			<rect x="477.1" y="270.3" class="st4" width="174.9" height="24.2"/>
			<g>
				<g>
					<g>
						<polygon class="st3" points="-21.7,301.4 -28.4,301.4 -26.5,247.3 -23.6,247.3 						"/>
						<g>
							<polygon class="st3" points="-23.4,248.7 -27.1,248.7 -26.1,221.2 -24.4,221.2 							"/>
							<polygon class="st3" points="-27.8,249.2 -26.3,245.8 -1.6,258 -2.3,259.7 							"/>
							<polygon class="st3" points="-23.8,246.1 -22.5,249.6 -48.7,258.3 -49.3,256.7 							"/>
						</g>
					</g>
				</g>
			</g>
			<g>
				<g>
					<ellipse class="st10" cx="716.7" cy="252.7" rx="8.7" ry="11.2"/>
					<rect x="715.7" y="260.6" class="st10" width="3.1" height="24.8"/>
				</g>
				<g>
					<ellipse class="st11" cx="695.6" cy="256.5" rx="10.3" ry="10.3"/>
					<rect x="694.1" y="260.6" class="st11" width="3.1" height="23.2"/>
				</g>
				<g>
					<ellipse class="st12" cx="673.8" cy="246.9" rx="8.7" ry="19.3"/>
					<rect x="672.4" y="254.4" class="st12" width="3.1" height="29.4"/>
				</g>
			</g>
			<polygon class="st8" points="331.4,243.7 311.1,243.7 314.1,178.2 329.1,178.2 			"/>
			<g>
				<rect x="254.4" y="180.5" class="st8" width="7.1" height="16.3"/>
				<rect x="232.4" y="201.5" class="st5" width="66.2" height="83.5"/>
				<rect x="291.4" y="218.2" class="st5" width="66.2" height="66.9"/>
				<rect x="241.5" y="210.1" class="st4" width="21" height="6.2"/>
				<rect x="241.5" y="218.7" class="st4" width="21" height="6.2"/>
				<rect x="241.5" y="227.3" class="st4" width="21" height="6.2"/>
				<rect x="241.5" y="235.9" class="st4" width="21" height="6.2"/>
				<rect x="241.5" y="244.5" class="st4" width="21" height="6.2"/>
				<rect x="241.5" y="253.1" class="st4" width="21" height="6.2"/>
				<rect x="267.1" y="210.1" class="st4" width="21" height="6.2"/>
				<rect x="267.1" y="218.7" class="st4" width="21" height="6.2"/>
				<rect x="267.1" y="227.3" class="st4" width="21" height="6.2"/>
				<rect x="267.1" y="235.9" class="st4" width="21" height="6.2"/>
				<rect x="267.1" y="244.5" class="st4" width="21" height="6.2"/>
				<rect x="267.1" y="253.1" class="st4" width="21" height="6.2"/>
				<ellipse class="st5" cx="329.2" cy="218.6" rx="21.7" ry="14.3"/>
				<rect x="309.8" y="231.4" class="st8" width="9.1" height="25.8"/>
				<rect x="323.6" y="231.4" class="st8" width="9.1" height="25.8"/>
				<rect x="336.9" y="231.4" class="st8" width="9.1" height="25.8"/>
				<rect x="238.3" y="192.1" class="st5" width="31.8" height="15.1"/>
			</g>
			<g>
				<g>
					<path class="st13" d="M194.7,263c-4.1-7.2-4.9-16.5-4.9-16.5v-18h-11.3h-1.6h-11.3v18c0,0-0.9,9.3-4.9,16.5
						c-4.1,7.2-6.5,12.8-6.5,27.7v3.1h23.1h0.9h23.1v-3.1C201.3,275.8,198.8,270.3,194.7,263z"/>
					<path class="st14" d="M189.8,246.6C189.8,246.6,189.8,246.5,189.8,246.6l0-10h-24.1v10c0,0,0,0,0,0H189.8z"/>
					<g>
						<path class="st13" d="M159.6,261.6c-2.7-4.9-3.3-11.2-3.3-11.2v-12.2h-7.6h-1.1H140v12.2c0,0-0.6,6.3-3.3,11.2
							c-2.7,4.9-4.4,8.6-4.4,18.7v2.1h15.6h0.6H164v-2.1C164,270.3,162.4,266.5,159.6,261.6z"/>
						<path class="st14" d="M157.3,255.6H139c-0.5,1.9-1.3,4.1-2.3,6c-0.3,0.5-0.5,0.9-0.7,1.3h24.5c-0.2-0.4-0.5-0.9-0.7-1.3
							C158.5,259.7,157.8,257.5,157.3,255.6z"/>
						<path class="st13" d="M218.8,261.6c-2.7-4.9-3.3-11.2-3.3-11.2v-12.2h-7.6h-1.1h-7.6v12.2c0,0-0.6,6.3-3.3,11.2
							c-2.7,4.9-4.4,8.6-4.4,18.7v2.1h15.6h0.6h15.6v-2.1C223.2,270.3,221.6,266.5,218.8,261.6z"/>
						<path class="st14" d="M215.5,249.6h-16.3v0.8c0,0-0.3,2.9-1.3,6.3h18.9c-1-3.4-1.3-6.3-1.3-6.3V249.6z"/>
					</g>
					<rect x="94.7" y="280.2" class="st15" width="143.4" height="16.1"/>
					<rect x="122.9" y="276" class="st15" width="109.6" height="8.5"/>
				</g>
				<path class="st0" d="M217.3,213.4c0-2.2-1.8-3.9-3.9-3.9c-0.2,0-0.4,0-0.6,0c-0.3-0.8-0.7-1.4-1.4-1.9c0.1-0.3,0.1-0.6,0.1-0.9
					c0-2.3-1.9-4.2-4.2-4.2c-1.5,0-2.9,0.9-3.6,2.2c-0.1,0-0.2,0-0.4,0c-2.2,0-3.9,1.8-3.9,3.9c0,0.1,0,0.2,0,0.3
					c-1.1,0-2.1,0.6-2.8,1.4c-0.7-0.5-1.4-0.7-2.3-0.7c-2.2,0-3.9,1.8-3.9,3.9c0,1.7,1,3,2.4,3.6c0.1,1,1.1,6.4,8.3,6.6
					c0,0-2.8,4.3,3,6.3c0,0,3.9,1,4.1,6.6h1.6c0,0,1.7-5-1.1-7.7c-2.9-2.8,4.3-3.1,3-6.5c0,0,4.2-2,3.7-5.7
					C216.6,216,217.3,214.8,217.3,213.4z"/>
				<path class="st0" d="M156.9,214.2c0-1.8-1.5-3.2-3.2-3.2c-0.1,0-0.3,0-0.5,0c-0.2-0.6-0.6-1.2-1.1-1.6c0.1-0.3,0.1-0.5,0.1-0.8
					c0-1.9-1.6-3.5-3.5-3.5c-1.3,0-2.4,0.7-3,1.8c-0.1,0-0.2,0-0.3,0c-1.8,0-3.2,1.5-3.2,3.2c0,0.1,0,0.2,0,0.3
					c-0.9,0-1.8,0.5-2.3,1.1c-0.5-0.4-1.2-0.6-1.9-0.6c-1.8,0-3.2,1.4-3.2,3.2c0,1.4,0.8,2.5,2,3c0.1,0.8,0.9,5.3,6.8,5.5
					c0,0-2.3,3.5,2.5,5.2c0,0,3.2,0.9,3.3,5.4h1.4c0,0,1.4-4.1-0.9-6.3c-2.3-2.3,3.6-2.6,2.5-5.3c0,0,3.5-1.7,3.1-4.7
					C156.4,216.3,156.9,215.3,156.9,214.2z"/>
				<path class="st0" d="M188.3,202.5c0-2.2-1.7-3.9-3.9-3.9c-0.2,0-0.4,0-0.6,0c-0.2-0.8-0.7-1.4-1.3-1.9c0.1-0.3,0.1-0.7,0.1-1
					c0-2.3-1.8-4.2-4.2-4.2c-1.6,0-2.9,0.9-3.6,2.2c-0.1,0-0.3,0-0.4,0c-2.2,0-3.9,1.8-3.9,4c0,0.1,0,0.2,0,0.3
					c-1.2,0-2.1,0.6-2.8,1.4c-0.6-0.5-1.4-0.7-2.3-0.7c-2.1,0-3.9,1.7-3.9,3.9c0,1.6,1,3,2.4,3.6c0.1,1,1.1,6.4,8.3,6.6
					c0,0-2.8,4.3,3,6.3c0,0,3.9,1,4.1,6.6h1.6c0,0,1.7-5-1.1-7.7c-2.9-2.7,4.3-3.1,3-6.4c0,0,4.3-2,3.7-5.7
					C187.6,205,188.3,203.8,188.3,202.5z"/>
			</g>
			<g>
				<polygon class="st16" points="277.2,312.4 273.1,324.5 292.8,325.1 292.5,312.8 				"/>
				<g>
					<linearGradient id="SVGID_3_" gradientUnits="userSpaceOnUse" x1="274.8746" y1="335.4304" x2="274.8746" y2="335.4304">
						<stop  offset="0" style="stop-color:#FFFFFF"/>
						<stop  offset="6.949991e-03" style="stop-color:#F5F9F9"/>
						<stop  offset="5.831394e-02" style="stop-color:#AFCDD0"/>
						<stop  offset="0.1068" style="stop-color:#74A9AE"/>
						<stop  offset="0.151" style="stop-color:#468D94"/>
						<stop  offset="0.1901" style="stop-color:#257981"/>
						<stop  offset="0.2226" style="stop-color:#116C75"/>
						<stop  offset="0.2446" style="stop-color:#0A6871"/>
						<stop  offset="0.4057" style="stop-color:#165A5B"/>
						<stop  offset="0.8041" style="stop-color:#323928"/>
						<stop  offset="1" style="stop-color:#3D2C14"/>
					</linearGradient>
					<polygon class="st17" points="274.9,335.4 274.9,335.4 274.9,335.4 					"/>
					<polygon class="st18" points="293.3,304.6 293.3,335.2 340.8,335.1 341.1,304.6 					"/>
					<g>
						<path class="st4" d="M276.8,311.6l-5.5,13.6v9.9h22.5v-23.5H276.8z M291.9,323.2l-17.9,0l3.6-9.8h14.3L291.9,323.2z"/>
					</g>
					<g>
						<path class="st4" d="M283.3,332.2c-3.6,0-6.5,2.9-6.5,6.5c0,3.6,2.9,6.5,6.5,6.5c3.6,0,6.5-2.9,6.5-6.5
							C289.8,335.1,286.9,332.2,283.3,332.2z M283.3,341.5c-1.6,0-2.8-1.3-2.8-2.8c0-1.6,1.3-2.8,2.8-2.8c1.6,0,2.8,1.3,2.8,2.8
							C286.1,340.3,284.8,341.5,283.3,341.5z"/>
					</g>
					<g>
						<path class="st4" d="M325.6,331.2c-3.6,0-6.5,2.9-6.5,6.5c0,3.6,2.9,6.5,6.5,6.5c3.6,0,6.5-2.9,6.5-6.5
							C332,334.1,329.1,331.2,325.6,331.2z M325.6,340.5c-1.6,0-2.8-1.3-2.8-2.8c0-1.6,1.3-2.8,2.8-2.8c1.6,0,2.8,1.3,2.8,2.8
							S327.1,340.5,325.6,340.5z"/>
					</g>
				</g>
			</g>
			<g>
				<rect x="381.8" y="270.9" class="st19" width="31.6" height="26.2"/>
				<path class="st8" d="M417,270.8h6.4l-9.6-16.1h-16.1v-6.4H388v6.4h-6.4l-9.7,16.1h6.4v25.7H372v3.2h51.5v-3.2H417V270.8z
					 M394.5,283.6h-9.7V274h9.7V283.6z M410.6,296.5h-9.7v-19.3h9.7V296.5z"/>
				<polygon class="st20" points="417,296.3 410.6,296.3 410.6,296.5 400.9,296.5 400.9,296.3 378.4,296.3 378.4,296.5 372,296.5 
					372,299.7 423.4,299.7 423.4,296.5 417,296.5 				"/>
				<polygon class="st13" points="378.4,270.8 417,270.8 417,270.8 423.4,270.8 413.8,254.7 397.7,254.7 397.7,248.2 388,248.2 
					388,254.7 381.6,254.7 372,270.8 378.4,270.8 				"/>
			</g>
			<g>
				<rect x="440.8" y="270.9" class="st19" width="31.6" height="26.2"/>
				<path class="st8" d="M476,270.8h6.4l-9.7-16.1h-16.1v-6.4h-9.7v6.4h-6.4l-9.7,16.1h6.4v25.7H431v3.2h51.5v-3.2H476V270.8z
					 M453.5,283.6h-9.7V274h9.7V283.6z M469.6,296.5h-9.7v-19.3h9.7V296.5z"/>
				<polygon class="st20" points="476,296.3 469.6,296.3 469.6,296.5 459.9,296.5 459.9,296.3 437.4,296.3 437.4,296.5 431,296.5 
					431,299.7 482.5,299.7 482.5,296.5 476,296.5 				"/>
				<polygon class="st13" points="437.4,270.8 476,270.8 476,270.8 482.5,270.8 472.8,254.7 456.7,254.7 456.7,248.2 447.1,248.2 
					447.1,254.7 440.6,254.7 431,270.8 437.4,270.8 				"/>
			</g>
			<rect x="504.2" y="246.2" class="st14" width="19.6" height="30.5"/>
			<g>
				<g>
					<rect x="502.7" y="258.2" class="st21" width="23.9" height="6"/>
					<rect x="502.7" y="240.3" class="st21" width="23.9" height="12"/>
					<path class="st21" d="M574.4,294.1v-17.9l-23.9,17.9v-17.9l-23.9,17.9v-23.9h-23.9V336h23.9h71.8v-59.8L574.4,294.1z
						 M544.5,318h-12v-6h12V318z M544.5,306.1h-12v-6h12V306.1z M568.4,318h-12v-6h12V318z M568.4,306.1h-12v-6h12V306.1z
						 M592.4,318h-12v-6h12V318z M592.4,306.1h-12v-6h12V306.1z"/>
				</g>
				<g>
					<polygon class="st14" points="598.4,293.8 598.4,276.2 574.8,293.8 					"/>
					<polygon class="st14" points="574.4,293.8 574.4,276.2 550.9,293.8 					"/>
					<rect x="502.7" y="270.2" class="st14" width="23.9" height="23.6"/>
					<polygon class="st14" points="550.5,293.8 550.5,276.2 527,293.8 					"/>
				</g>
				<g>
					<rect x="502.7" y="326.7" class="st22" width="95.7" height="9.3"/>
				</g>
			</g>
			<g>
				<g>
					<ellipse class="st10" cx="333" cy="271.5" rx="6.1" ry="7.9"/>
					<rect x="332.3" y="277.1" class="st10" width="2.2" height="17.5"/>
				</g>
				<g>
					<ellipse class="st11" cx="318.1" cy="274.2" rx="7.3" ry="7.3"/>
					<rect x="317" y="277.1" class="st11" width="2.2" height="16.4"/>
				</g>
				<g>
					<ellipse class="st12" cx="302.8" cy="267.4" rx="6.1" ry="13.6"/>
					<rect x="301.8" y="272.7" class="st12" width="2.2" height="20.7"/>
				</g>
			</g>
			<g>
				<path class="st18" d="M81.3,213.3c-0.4-0.6-0.5-1-0.5-1l0.2-0.2c0,0,0.4,0.2,1,0.4c0.3,0.1,0.7,0.3,1.1,0.4
					c0.4,0.2,0.9,0.3,1.4,0.4c0.2,0.1,0.5,0.1,0.7,0.2c0.1,0,0.3,0.1,0.4,0.1c0.1,0,0.3,0,0.4,0c0.5,0.1,1,0,1.5,0
					c0.2-0.1,0.5-0.1,0.8-0.2c0.2-0.1,0.5-0.2,0.8-0.4c0.1-0.1,0.2-0.2,0.4-0.2c0.1-0.1,0.3-0.1,0.4-0.3l0.9-0.8c0,0-0.1,0.1,0,0
					l0,0l0,0l0,0l0.1-0.1l0.1-0.1l0.2-0.2l0.4-0.4c0.3-0.3,0.6-0.5,0.9-0.8c0.3-0.3,0.7-0.5,1-0.7c0.3-0.3,0.7-0.4,1.1-0.7
					c0.8-0.4,1.6-0.6,2.4-0.5c0.2,0,0.4,0.1,0.6,0.1c0.2,0.1,0.4,0.1,0.5,0.2c0.3,0.1,0.7,0.3,0.9,0.4c0.6,0.3,1,0.7,1.4,1.1
					c0.4,0.4,0.6,0.7,0.8,1c0.2,0.3,0.3,0.6,0.4,0.8c0.1,0.2,0.1,0.3,0.1,0.3l-0.2,0.2c0,0-0.4-0.1-1-0.4c-0.3-0.1-0.7-0.3-1.1-0.4
					c-0.4-0.2-0.9-0.4-1.3-0.5c-0.2-0.1-0.5-0.2-0.7-0.2c-0.1,0-0.2-0.1-0.4-0.1c-0.1,0-0.3-0.1-0.4-0.1c-0.5-0.2-1-0.3-1.7-0.4
					c-0.3,0-0.7,0-1,0.2c-0.3,0.2-0.6,0.3-0.9,0.5c-0.2,0.3-0.5,0.5-0.7,0.8L92,212l-0.1,0.2l-0.1,0.1l0,0.1l0,0l0,0l0,0
					c0,0,0,0.1,0,0.1l-0.5,1.1c-0.2,0.3-0.5,0.7-0.8,1.1c-0.3,0.4-0.7,0.6-1.1,0.9c-0.4,0.3-0.8,0.4-1.3,0.6
					c-0.9,0.3-1.8,0.3-2.6,0.1c-0.4-0.1-0.8-0.2-1.1-0.4c-0.3-0.1-0.6-0.3-0.9-0.5c-0.6-0.4-1-0.8-1.3-1.1
					C81.8,213.9,81.5,213.6,81.3,213.3z M120.2,274.2v22.1H27.5v-22.1h6.3v-24.8l17.8-12.5v12.5l17.8-12.5v12.5l17.8-12.5v24.6h6.1
					l3.3-43.4h10.2l2.9,43.4h6.8v12.8L120.2,274.2L120.2,274.2z M56.5,264.6h-14v12.9h14V264.6z M80.7,264.6h-14v12.9h14V264.6z
					 M105.1,264.6h-14v12.9h14V264.6z"/>
				<polygon class="st3" points="51.6,249 51.6,236.9 34.2,249 				"/>
				<polygon class="st3" points="87.2,249 87.2,236.9 69.9,249 				"/>
				<polygon class="st3" points="69.4,249 69.4,236.9 52,249 				"/>
				<path class="st3" d="M82.1,214.3c0.3,0.4,0.8,0.8,1.3,1.1c0.3,0.2,0.6,0.4,0.9,0.5c0.3,0.2,0.7,0.3,1.1,0.4
					c0.8,0.2,1.7,0.2,2.6-0.1c0.4-0.2,0.9-0.3,1.3-0.6c0.4-0.3,0.8-0.5,1.1-0.9c0.3-0.3,0.7-0.7,0.8-1.1l0.5-1.1c0,0,0.1-0.1,0-0.1
					l0,0l0,0l0,0l0-0.1l0.1-0.1L92,212l0.2-0.5c0.2-0.3,0.4-0.6,0.7-0.8c0.2-0.3,0.6-0.4,0.9-0.5c0.3-0.1,0.7-0.1,1-0.2
					c0.7,0.1,1.2,0.2,1.7,0.4c0.1,0,0.3,0.1,0.4,0.1c0.1,0,0.2,0.1,0.4,0.1c0.2,0.1,0.5,0.2,0.7,0.2c0.5,0.2,0.9,0.3,1.3,0.5
					c0.4,0.2,0.8,0.3,1.1,0.4c0.6,0.3,1,0.4,1,0.4l0.2-0.2c0,0,0-0.1-0.1-0.3c-0.1-0.2-0.2-0.5-0.4-0.8c-0.2-0.3-0.5-0.7-0.8-1
					c-0.4-0.4-0.8-0.7-1.4-1.1c-0.3-0.2-0.6-0.3-0.9-0.4c-0.2-0.1-0.3-0.1-0.5-0.2c-0.2,0-0.4-0.1-0.6-0.1c-0.8-0.1-1.7,0.2-2.4,0.5
					c-0.4,0.2-0.7,0.4-1.1,0.7c-0.3,0.3-0.7,0.5-1,0.7c-0.3,0.3-0.6,0.5-0.9,0.8l-0.4,0.4l-0.2,0.2l-0.1,0.1l-0.1,0.1l0,0l0,0l0,0
					c0,0,0,0,0,0l-0.9,0.8c-0.1,0.2-0.3,0.2-0.4,0.3c-0.1,0.1-0.2,0.2-0.4,0.2c-0.2,0.2-0.5,0.3-0.8,0.4c-0.3,0.1-0.5,0.1-0.8,0.2
					c-0.5,0-1,0.1-1.5,0c-0.1,0-0.3,0-0.4,0c-0.1,0-0.2-0.1-0.4-0.1c-0.3,0-0.5-0.1-0.7-0.2c-0.5-0.1-1-0.3-1.4-0.4
					c-0.4-0.2-0.8-0.3-1.1-0.4c-0.6-0.3-1-0.4-1-0.4l-0.2,0.2c0,0,0.1,0.4,0.5,1C81.5,213.6,81.8,213.9,82.1,214.3z"/>
				<polygon class="st3" points="95.7,230.8 94.6,245.5 108.7,245.5 107.7,230.8 				"/>
				<rect x="27.5" y="282" class="st23" width="92.8" height="14.3"/>
			</g>
			<rect x="107.1" y="348.3" class="st16" width="12.8" height="4.3"/>
			<rect x="128.9" y="348.3" class="st16" width="12.8" height="4.3"/>
			<rect x="150.7" y="348.3" class="st16" width="12.8" height="4.3"/>
			<rect x="172.5" y="348.3" class="st16" width="12.8" height="4.3"/>
			<rect x="194.3" y="348.3" class="st16" width="12.8" height="4.3"/>
			<rect x="216.1" y="348.3" class="st16" width="12.8" height="4.3"/>
			<rect x="237.9" y="348.3" class="st16" width="12.8" height="4.3"/>
			<rect x="259.7" y="348.3" class="st16" width="12.8" height="4.3"/>
			<rect x="281.6" y="348.3" class="st16" width="12.8" height="4.3"/>
			<rect x="303.4" y="348.3" class="st16" width="12.8" height="4.3"/>
			<rect x="325.2" y="348.3" class="st16" width="12.8" height="4.3"/>
			<rect x="347" y="348.3" class="st16" width="12.8" height="4.3"/>
			<rect x="368.8" y="348.3" class="st16" width="12.8" height="4.3"/>
			<rect x="390.6" y="348.3" class="st16" width="12.8" height="4.3"/>
			<path class="st9" d="M537.7,95.1c0.1-0.6,0.1-1.1,0.1-1.7c0-6.3-5.1-11.5-11.5-11.5c-1.4,0-2.7,0.2-3.9,0.7c0-0.2,0-0.4,0-0.7
				c0-5.2-3.3-9.7-7.9-11.4c0.1-0.9,0.2-1.8,0.2-2.7c0-9.9-8-18-18-18c0,0,0,0,0,0c-0.1-8.5-7-15.3-15.5-15.3
				c-4.3,0-8.3,1.8-11.1,4.7c-1.5-12.1-11.8-21.5-24.3-21.5c-9.7,0-18.2,5.7-22.1,13.9c-2.5-3.8-6.7-6.3-11.6-6.3
				c-6.3,0-11.6,4.2-13.2,9.9c-3.4-4.2-8.5-6.9-14.3-6.9c-5.7,0-10.7,2.6-14.1,6.6c-2.4-1.3-5.2-2-8.1-2c-2.7,0-5.2,0.6-7.5,1.7
				c0.4-1.8,0.6-3.6,0.6-5.5c0-13.9-11.3-25.2-25.2-25.2c-11.6,0-21.4,7.9-24.3,18.6c-3.1-3.9-7.8-6.3-13.1-6.3
				c-9.3,0-16.8,7.5-16.8,16.8c0,9.3,7.5,16.8,16.8,16.8c1.7,0,3.3-0.3,4.8-0.7c1.1,7.3,7.5,12.9,15.1,12.9c5.8,0,10.9-3.2,13.4-8
				c1.3,0.2,2.7,0.3,4.1,0.3c5.4,0,10.5-1.7,14.6-4.6c0,0.3,0,0.5,0,0.8c0,9.7,7.9,17.6,17.6,17.6c5.1,0,9.7-2.2,12.9-5.6
				c2.7,1.6,5.9,2.6,9.3,2.6c4.2,0,8-1.4,11.1-3.8c-0.3,1.2-0.4,2.5-0.4,3.8c0,10.1,8.2,18.4,18.4,18.4s18.4-8.2,18.4-18.4
				c0-1-0.1-1.9-0.2-2.9c4,2.8,8.8,4.4,14,4.4c8.8,0,16.4-4.6,20.8-11.5c0.1,0.3,0.2,0.5,0.3,0.8c-1.2,1.7-2,3.6-2.4,5.6
				c-4.8,3-7.9,8.2-7.9,14.3c0,9.3,7.5,16.8,16.8,16.8c6.5,0,12.1-3.6,14.9-9c2.5,1.3,5.4,2.1,8.4,2.1c0.6,0,1.2,0,1.7-0.1
				c1.6,4.9,6.2,8.5,11.6,8.5c1.6,0,3.2-0.3,4.6-0.9c0,0,0,0.1,0,0.1c0,5,3.2,9.2,7.7,10.8c0,0.2,0,0.4,0,0.7
				c0,5.9,4.8,10.7,10.7,10.7c5.9,0,10.7-4.8,10.7-10.7C544,100.5,541.4,96.8,537.7,95.1z M403.1,49.1c0.2,0.2,0.5,0.4,0.7,0.6
				c-0.3,0.2-0.6,0.5-0.9,0.7C403,50,403,49.6,403.1,49.1z"/>
		</g>
		<g class="st1">
			<g>
				<polygon class="st16" points="332.3,577.3 279.6,577.3 286.3,544.8 325.6,544.8 				"/>
				<polygon class="st24" points="332.3,577.3 325.6,544.8 286.3,544.8 318.9,577.3 				"/>
				<path class="st16" d="M346.5,581.3h-80.9v-1.5c0-0.6,0.2-1.3,0.7-1.7c0.5-0.5,1.1-0.7,1.7-0.7h76c0.6,0,1.3,0.2,1.7,0.7
					c0.5,0.5,0.7,1.1,0.7,1.7V581.3z"/>
			</g>
			<path class="st25" d="M209.8,410.7c-2.7,0-4.9,2.2-4.9,4.9v124.2c0,2.7,2.2,4.9,4.9,4.9h192.4c2.7,0,4.9-2.2,4.9-4.9V415.6
				c0-2.7-2.2-4.9-4.9-4.9H209.8z"/>
			<rect x="215.1" y="420.9" class="st26" width="181.8" height="113.6"/>
			<g id="stats_10_">
				<g>
					<path class="st27" d="M298.3,458.5c3.9,0,7.1-3.2,7.1-7.1s-3.2-7.1-7.1-7.1s-7.1,3.2-7.1,7.1c0,1.7,0.6,3.3,1.7,4.5l-9.4,14.3
						c-0.7-0.2-1.4-0.4-2.2-0.4c-3.9,0-7.1,3.2-7.1,7.1c0,0.3,0.1,0.6,0.1,0.9l-13.2,5.8c-1.3-1.5-3.2-2.4-5.3-2.4
						c-3.9,0-7.1,3.2-7.1,7.1c0,1.3,0.4,2.6,1,3.6l-12.4,14.3v-61.9h-2.8h-2.8v70.8h2.8h68v-2.8v-2.8h-62.4l12.7-14.7
						c0.9,0.4,1.8,0.6,2.9,0.6c3.9,0,7.1-3.2,7.1-7.1c0-0.3,0-0.5-0.1-0.7l13.3-5.9c1.3,1.4,3.2,2.3,5.2,2.3c3.9,0,7.1-3.2,7.1-7.1
						c0-1.6-0.5-3-1.4-4.2l9.5-14.4C297,458.4,297.6,458.5,298.3,458.5z"/>
				</g>
				<g class="st28">
					<path class="st27" d="M241.9,501h-4.5v-2.8h7L241.9,501z M245.9,489.6h-8.5v-2.8h8.5v-8.5h-8.5v-2.8h8.5V467h-8.5v-2.8h8.5
						v-8.5h-8.5v-2.8h8.5v-8.5h2.8v8.5h8.5v-8.5h2.8v8.5h8.5v-8.5h2.8v8.5h8.5v-8.5h2.8v8.5h8.5v-1.4c0,1.7,0.6,3.3,1.7,4.5
						l-1.7,2.6v-2.9h-8.5v8.5h4.8l-1.9,2.8h-2.9v3.1c-0.5-0.1-0.9-0.2-1.4-0.2c-0.5,0-1,0-1.4,0.1v-3h-8.5v8.5h3
						c-0.1,0.5-0.2,1-0.2,1.5c0,0.3,0.1,0.6,0.1,0.9l-1.1,0.5h-1.8v0.8l-2.8,1.3v-2.1H260v4.3c-0.8-0.6-1.8-1.1-2.8-1.3v-3h-8.5v8.5
						h0.2c-0.1,0.5-0.2,1-0.2,1.5c0,0.5,0.1,0.9,0.2,1.4h-0.2v3.5l-2.8,3.3V489.6z M271.4,464.1h8.5v-8.5h-8.5V464.1z M260,464.1
						h8.5v-8.5H260V464.1z M260,475.5h8.5V467H260V475.5z M248.7,464.1h8.5v-8.5h-8.5V464.1z M248.7,475.5h8.5V467h-8.5V475.5z
						 M294,445.8v-1.5h-2.8v7.1C291.2,449.1,292.3,447.1,294,445.8z M294,464.1h8.5v2.8H294v8.5h8.5v2.8H294v8.5h8.5v2.8H294v8.5
						h8.5v2.8H294v8.5h-2.8V501h-8.5v8.5h-2.8V501h-8.5v8.5h-2.8V501H260v8.5h-2.8V501h-8.5v8.5h-2.8v-6.6l4.1-4.8h7.2v-2.9
						c1.1-0.2,2-0.7,2.8-1.3v4.2h8.5v-8.5h-5.8c0.1-0.4,0.1-0.9,0.1-1.4c0-0.3,0-0.5-0.1-0.7l1.7-0.7h4.1V485l2.8-1.3v3.1h8.5v-2.9
						c0.5,0.1,0.9,0.2,1.4,0.2c0.5,0,1,0,1.4-0.1v2.9h8.5v-8.5h-3c0.1-0.4,0.1-0.9,0.1-1.4c0-0.5-0.1-1-0.2-1.5h3V467h-0.5l3.3-5
						V464.1z M279.9,489.6h-8.5v8.5h8.5V489.6z M291.2,489.6h-8.5v8.5h8.5V489.6z"/>
				</g>
			</g>
			<g id="pie_x5F_chart_18_">
				<g>
					<path class="st27" d="M325.9,479.5c0-15.5,12.6-28,28.1-28c7.7,0,14.7,3.1,19.8,8.2l-19.9,19.8v28
						C338.8,507.5,325.9,495,325.9,479.5z"/>
				</g>
				<path class="st29" d="M359,479.5l19.8-19.8c10.9,10.9,10.9,28.7,0,39.6L359,479.5z"/>
				<path class="st30" d="M356.4,481.9v28c7.5,0,14.3-2.7,19.8-8.2L356.4,481.9z"/>
			</g>
		</g>
	</g>
</g>
</svg>
