<?xml version="1.0" encoding="utf-8"?>
<!-- Generator: Adobe Illustrator 20.0.0, SVG Export Plug-In . SVG Version: 6.00 Build 0)  -->
<svg version="1.1" id="Layer_1" xmlns="http://www.w3.org/2000/svg" xmlns:xlink="http://www.w3.org/1999/xlink" x="0px" y="0px"
	 viewBox="0 0 612 612" style="enable-background:new 0 0 612 612;" xml:space="preserve">
<style type="text/css">
	.st0{fill:#0DAB6F;}
	.st1{fill:#FFFFFF;}
	.st2{fill:#DFDDDB;}
	.st3{fill:#102F55;}
	.st4{fill:#F4BF17;}
	.st5{opacity:0.5;}
	.st6{fill:#F06666;}
	.st7{fill:#72CACF;}
	.st8{fill:#F16D64;}
	.st9{opacity:0.6;fill:#F16D64;}
	.st10{opacity:0.2;fill:#F16D64;}
	.st11{fill:#F48220;}
	.st12{fill:none;stroke:#FFFFFF;stroke-width:2;stroke-miterlimit:10;stroke-dasharray:3;}
</style>
<g>
	<circle class="st0" cx="306" cy="306" r="306"/>
	<g>
		<g>
			<g>
				<polygon class="st1" points="185.6,216.1 156,216.1 159.8,197.8 181.8,197.8 				"/>
				<polygon class="st2" points="185.6,216.1 181.8,197.8 159.8,197.8 178,216.1 				"/>
				<path class="st1" d="M193.5,218.3h-45.4v-0.8c0-0.4,0.1-0.7,0.4-1c0.3-0.3,0.6-0.4,1-0.4h42.6c0.4,0,0.7,0.1,1,0.4
					c0.3,0.3,0.4,0.6,0.4,1V218.3z"/>
			</g>
			<path class="st3" d="M116.8,122.6c-1.5,0-2.8,1.2-2.8,2.8v69.7c0,1.5,1.2,2.8,2.8,2.8h108c1.5,0,2.8-1.2,2.8-2.8v-69.7
				c0-1.5-1.2-2.8-2.8-2.8H116.8z"/>
			<rect x="119.8" y="128.3" class="st1" width="102" height="63.7"/>
		</g>
		<g>
			<path class="st3" d="M115.5,276.1v60c0,3.5,2.8,6.3,6.3,6.3h83.4c3.5,0,6.3-2.8,6.3-6.3v-60c0-3.5-2.8-6.3-6.3-6.3h-83.4
				C118.3,269.8,115.5,272.6,115.5,276.1z M119.5,286.2c0-0.4,0.3-0.7,0.7-0.7c0.4,0,0.7,0.3,0.7,0.7c0,0.4-0.3,0.7-0.7,0.7
				C119.8,286.9,119.5,286.6,119.5,286.2z M119.1,307c0-0.6,0.5-1.1,1.1-1.1c0.6,0,1.1,0.5,1.1,1.1c0,0.6-0.5,1.1-1.1,1.1
				C119.6,308.1,119.1,307.6,119.1,307z M207.6,307c0,1.4-1.2,2.6-2.6,2.6c-1.4,0-2.6-1.2-2.6-2.6c0-1.4,1.2-2.6,2.6-2.6
				C206.4,304.4,207.6,305.5,207.6,307z M198.8,277.4v57.8h-75.4v-57.8H198.8z"/>
			<rect x="123.4" y="277.4" class="st1" width="75.4" height="57.8"/>
		</g>
		<g>
			<path class="st3" d="M115.5,402.1v60c0,3.5,2.8,6.3,6.3,6.3h83.4c3.5,0,6.3-2.8,6.3-6.3v-60c0-3.5-2.8-6.3-6.3-6.3h-83.4
				C118.3,395.8,115.5,398.7,115.5,402.1z M119.5,412.2c0-0.4,0.3-0.7,0.7-0.7c0.4,0,0.7,0.3,0.7,0.7c0,0.4-0.3,0.7-0.7,0.7
				C119.8,412.9,119.5,412.6,119.5,412.2z M119.1,433c0-0.6,0.5-1.1,1.1-1.1c0.6,0,1.1,0.5,1.1,1.1c0,0.6-0.5,1.1-1.1,1.1
				C119.6,434.1,119.1,433.6,119.1,433z M207.6,433c0,1.4-1.2,2.6-2.6,2.6c-1.4,0-2.6-1.2-2.6-2.6c0-1.4,1.2-2.6,2.6-2.6
				C206.4,430.4,207.6,431.6,207.6,433z M198.8,403.5v57.8h-75.4v-57.8H198.8z"/>
			<rect x="123.4" y="403.5" class="st1" width="75.4" height="57.8"/>
		</g>
		<g id="ipad_4_">
			<g id="stats_9_">
				<g>
					<path class="st4" d="M179,296c1.7,0,3.1-1.4,3.1-3.1s-1.4-3.1-3.1-3.1c-1.7,0-3.1,1.4-3.1,3.1c0,0.8,0.3,1.5,0.7,2l-4.2,6.3
						c-0.3-0.1-0.6-0.2-1-0.2c-1.7,0-3.1,1.4-3.1,3.1c0,0.1,0,0.3,0,0.4l-5.8,2.6c-0.6-0.7-1.4-1.1-2.4-1.1c-1.7,0-3.1,1.4-3.1,3.1
						c0,0.6,0.2,1.1,0.5,1.6l-5.5,6.3v-27.4h-1.3h-1.3v31.4h1.3h30.1v-1.3v-1.3h-27.6l5.6-6.5c0.4,0.2,0.8,0.3,1.3,0.3
						c1.7,0,3.1-1.4,3.1-3.1c0-0.1,0-0.2,0-0.3l5.9-2.6c0.6,0.6,1.4,1,2.3,1c1.7,0,3.1-1.4,3.1-3.1c0-0.7-0.2-1.4-0.6-1.9l4.2-6.4
						C178.4,295.9,178.7,296,179,296z"/>
				</g>
				<g class="st5">
					<path class="st4" d="M154,314.8h-2v-1.3h3.1L154,314.8z M155.7,309.8H152v-1.3h3.8v-3.8H152v-1.3h3.8v-3.8H152v-1.3h3.8v-3.8
						H152v-1.3h3.8v-3.8h1.3v3.8h3.8v-3.8h1.3v3.8h3.8v-3.8h1.3v3.8h3.8v-3.8h1.3v3.8h3.8v-0.6c0,0.8,0.3,1.5,0.7,2l-0.7,1.1v-1.3
						H172v3.8h2.1l-0.8,1.3H172v1.4c-0.2,0-0.4-0.1-0.6-0.1c-0.2,0-0.4,0-0.6,0.1v-1.3H167v3.8h1.3c0,0.2-0.1,0.4-0.1,0.7
						c0,0.1,0,0.3,0,0.4l-0.5,0.2H167v0.4l-1.3,0.6v-0.9H162v1.9c-0.4-0.3-0.8-0.5-1.3-0.6v-1.4H157v3.8h0.1c0,0.2-0.1,0.4-0.1,0.7
						c0,0.2,0,0.4,0.1,0.6H157v1.5l-1.3,1.4V309.8z M167,298.5h3.8v-3.8H167V298.5z M162,298.5h3.8v-3.8H162V298.5z M162,303.5h3.8
						v-3.8H162V303.5z M157,298.5h3.8v-3.8H157V298.5z M157,303.5h3.8v-3.8H157V303.5z M177.1,290.4v-0.7h-1.3v3.2
						C175.8,291.8,176.3,290.9,177.1,290.4z M177.1,298.5h3.8v1.3h-3.8v3.8h3.8v1.3h-3.8v3.8h3.8v1.3h-3.8v3.8h3.8v1.3h-3.8v3.8
						h-1.3v-3.8H172v3.8h-1.3v-3.8H167v3.8h-1.3v-3.8H162v3.8h-1.3v-3.8H157v3.8h-1.3v-2.9l1.8-2.1h3.2v-1.3
						c0.5-0.1,0.9-0.3,1.3-0.6v1.9h3.8v-3.8h-2.6c0-0.2,0.1-0.4,0.1-0.6c0-0.1,0-0.2,0-0.3l0.7-0.3h1.8v-0.8l1.3-0.6v1.4h3.8v-1.3
						c0.2,0,0.4,0.1,0.6,0.1s0.4,0,0.6-0.1v1.3h3.8v-3.8h-1.3c0-0.2,0.1-0.4,0.1-0.6c0-0.2,0-0.4-0.1-0.7h1.3v-3.8h-0.2l1.5-2.2
						V298.5z M170.8,309.8H167v3.8h3.8V309.8z M175.8,309.8H172v3.8h3.8V309.8z"/>
				</g>
			</g>
		</g>
		<g id="signal_2_">
			<path class="st6" d="M153.4,439.8h-4.4c-0.4,0-0.7,0.3-0.7,0.7c0,3.2,0,6.4,0,9.6h5.9c0-3.2,0-6.4,0-9.6
				C154.1,440.1,153.8,439.8,153.4,439.8z"/>
			<path class="st6" d="M160.8,435.3h-4.4c-0.4,0-0.7,0.3-0.7,0.7c0,4.7,0,9.4,0,14.1h5.9c0-4.7,0-9.4,0-14.1
				C161.5,435.7,161.2,435.3,160.8,435.3z"/>
			<path class="st6" d="M168.2,430.9h-4.4c-0.4,0-0.7,0.3-0.7,0.7c0,6.2,0,12.4,0,18.5h5.9c0-6.2,0-12.4,0-18.5
				C169,431.2,168.6,430.9,168.2,430.9z"/>
			<path class="st6" d="M175.6,423.5h-4.4c-0.4,0-0.7,0.3-0.7,0.7c0,8.6,0,17.3,0,25.9h5.9c0-8.6,0-17.3,0-25.9
				C176.4,423.8,176,423.5,175.6,423.5z"/>
			<path class="st6" d="M183,414.6h-4.4c-0.4,0-0.7,0.3-0.7,0.7c0,11.6,0,23.2,0,34.8h5.9c0-11.6,0-23.2,0-34.8
				C183.8,414.9,183.4,414.6,183,414.6z"/>
		</g>
		<g>
			<circle class="st3" cx="110.5" cy="464.9" r="32.8"/>
			<circle class="st1" cx="110.5" cy="464.9" r="29.4"/>
			<g id="old_x5F_man_8_">
				<path class="st6" d="M124.2,474.3c-0.8-0.5-6.4-3.7-9.2-4.9v-3.3c0.8-0.6,1.3-1.5,1.3-2.9v-2.2c1.6-0.6,2.6-1.3,2.6-1.6
					c0-0.5-0.3-1.2-0.7-1.2h-1.5l-1.9-8.8c0-0.4-0.2-0.5-0.6-0.4l-3.1,1c-0.4,0.1-1,0.1-1.3,0l-3.1-0.9c-0.4-0.1-0.6,0-0.6,0.4
					l-1.9,8.6h-1.5c-0.4,0-0.7,0.6-0.7,1.2c0,0.3,1,1,2.6,1.6c0,0.5,0,1.2,0,2.2c0,1.4,0.5,2.3,1.3,2.9v3.3
					c-2.7,1.1-8.4,4.4-9.2,4.9c-1.1,0.6-1.3,1.2-1.3,2.5c0,0.8,0,3.1,0,3.1c0,0.4,0.3,0.7,0.7,0.7h28.9c0.4,0,0.7-0.3,0.7-0.7
					c0,0,0-2.3,0-3.1C125.6,475.5,125.3,474.9,124.2,474.3z"/>
			</g>
		</g>
		<g>
			<g>
				<path class="st1" d="M144,227.3c0.7-0.1,1.6-0.2,2.6-0.2c1.8,0,3,0.4,3.8,1.2c0.8,0.8,1.3,1.9,1.3,3.4c0,1.5-0.5,2.8-1.4,3.7
					c-0.9,0.9-2.3,1.4-4.2,1.4c-0.9,0-1.6,0-2.2-0.1V227.3z M145.2,235.6c0.3,0.1,0.8,0.1,1.2,0.1c2.6,0,4-1.5,4-4
					c0-2.2-1.2-3.6-3.8-3.6c-0.6,0-1.1,0.1-1.4,0.1V235.6z"/>
				<path class="st1" d="M154,233.4c0,1.7,1.1,2.4,2.3,2.4c0.9,0,1.4-0.2,1.9-0.4l0.2,0.9c-0.4,0.2-1.2,0.4-2.3,0.4
					c-2.1,0-3.3-1.4-3.3-3.4c0-2,1.2-3.7,3.2-3.7c2.2,0,2.8,1.9,2.8,3.2c0,0.3,0,0.4,0,0.6H154z M157.6,232.5c0-0.8-0.3-2-1.7-2
					c-1.2,0-1.8,1.1-1.9,2H157.6z"/>
				<path class="st1" d="M160.2,235.3c0.4,0.2,1,0.5,1.6,0.5c0.9,0,1.3-0.4,1.3-1c0-0.6-0.4-0.9-1.3-1.2c-1.2-0.4-1.8-1.1-1.8-1.9
					c0-1.1,0.9-2,2.3-2c0.7,0,1.3,0.2,1.7,0.4l-0.3,0.9c-0.3-0.2-0.8-0.4-1.4-0.4c-0.7,0-1.1,0.4-1.1,0.9c0,0.6,0.4,0.8,1.3,1.1
					c1.2,0.4,1.8,1,1.8,2c0,1.2-0.9,2-2.5,2c-0.7,0-1.4-0.2-1.9-0.5L160.2,235.3z"/>
				<path class="st1" d="M167.3,227.9c0,0.4-0.3,0.8-0.8,0.8c-0.4,0-0.7-0.3-0.7-0.8c0-0.4,0.3-0.8,0.8-0.8
					C167,227.1,167.3,227.5,167.3,227.9z M165.9,236.6v-6.8h1.2v6.8H165.9z"/>
				<path class="st1" d="M175,229.8c0,0.5-0.1,1-0.1,1.9v3.9c0,1.6-0.3,2.5-1,3.1c-0.7,0.6-1.6,0.8-2.5,0.8c-0.8,0-1.7-0.2-2.3-0.6
					l0.3-0.9c0.4,0.3,1.1,0.5,2,0.5c1.3,0,2.2-0.7,2.2-2.4v-0.8h0c-0.4,0.6-1.1,1.1-2.2,1.1c-1.7,0-2.9-1.4-2.9-3.3
					c0-2.3,1.5-3.6,3.1-3.6c1.2,0,1.8,0.6,2.1,1.2h0l0.1-1H175z M173.7,232.5c0-0.2,0-0.4-0.1-0.6c-0.2-0.7-0.8-1.3-1.7-1.3
					c-1.2,0-2,1-2,2.6c0,1.3,0.7,2.4,2,2.4c0.8,0,1.4-0.5,1.7-1.3c0.1-0.2,0.1-0.4,0.1-0.7V232.5z"/>
				<path class="st1" d="M176.9,231.6c0-0.7,0-1.3-0.1-1.8h1.1l0.1,1.1h0c0.3-0.6,1.1-1.3,2.2-1.3c0.9,0,2.4,0.6,2.4,2.9v4h-1.2
					v-3.9c0-1.1-0.4-2-1.6-2c-0.8,0-1.4,0.6-1.7,1.3c-0.1,0.2-0.1,0.4-0.1,0.6v4.1h-1.2V231.6z"/>
				<path class="st1" d="M187.5,235.1c0.5,0.3,1.3,0.6,2.2,0.6c1.2,0,2-0.7,2-1.6c0-0.9-0.5-1.4-1.8-1.9c-1.5-0.5-2.5-1.3-2.5-2.7
					c0-1.5,1.2-2.6,3.1-2.6c1,0,1.7,0.2,2.1,0.5l-0.3,1c-0.3-0.2-0.9-0.4-1.8-0.4c-1.3,0-1.8,0.8-1.8,1.4c0,0.9,0.6,1.3,1.9,1.8
					c1.6,0.6,2.4,1.4,2.4,2.8c0,1.5-1.1,2.7-3.3,2.7c-0.9,0-1.9-0.3-2.4-0.6L187.5,235.1z"/>
				<path class="st1" d="M196,227.9v1.9h1.8v0.9H196v3.7c0,0.8,0.2,1.3,0.9,1.3c0.3,0,0.6,0,0.7-0.1l0.1,0.9
					c-0.2,0.1-0.6,0.2-1.1,0.2c-0.6,0-1-0.2-1.3-0.5c-0.4-0.4-0.5-1-0.5-1.8v-3.7h-1.1v-0.9h1.1v-1.6L196,227.9z"/>
				<path class="st1" d="M204.8,234.7c0,0.7,0,1.3,0.1,1.8h-1.1l-0.1-1.1h0c-0.3,0.5-1,1.3-2.2,1.3c-1.1,0-2.3-0.6-2.3-3v-4h1.2v3.8
					c0,1.3,0.4,2.2,1.5,2.2c0.8,0,1.4-0.6,1.6-1.1c0.1-0.2,0.1-0.4,0.1-0.6v-4.2h1.2V234.7z"/>
				<path class="st1" d="M212.7,226.6v8.2c0,0.6,0,1.3,0.1,1.8h-1.1l-0.1-1.2h0c-0.4,0.8-1.2,1.3-2.3,1.3c-1.6,0-2.9-1.4-2.9-3.4
					c0-2.3,1.4-3.6,3-3.6c1,0,1.7,0.5,2,1h0v-4H212.7z M211.5,232.6c0-0.2,0-0.4-0.1-0.5c-0.2-0.8-0.9-1.4-1.8-1.4
					c-1.3,0-2,1.1-2,2.6c0,1.4,0.7,2.5,2,2.5c0.8,0,1.6-0.5,1.8-1.5c0-0.2,0.1-0.3,0.1-0.5V232.6z"/>
				<path class="st1" d="M216.1,227.9c0,0.4-0.3,0.8-0.8,0.8c-0.4,0-0.7-0.3-0.7-0.8c0-0.4,0.3-0.8,0.8-0.8
					C215.8,227.1,216.1,227.5,216.1,227.9z M214.7,236.6v-6.8h1.2v6.8H214.7z"/>
				<path class="st1" d="M224.1,233.1c0,2.5-1.7,3.6-3.4,3.6c-1.8,0-3.3-1.3-3.3-3.5c0-2.3,1.5-3.6,3.4-3.6
					C222.8,229.7,224.1,231.1,224.1,233.1z M218.8,233.2c0,1.5,0.9,2.6,2.1,2.6c1.2,0,2.1-1.1,2.1-2.6c0-1.1-0.6-2.6-2-2.6
					C219.4,230.6,218.8,231.9,218.8,233.2z"/>
			</g>
		</g>
		<g>
			<path class="st1" d="M300.7,142.2v-8.6h3c0.7,0,1.2,0,1.5,0.1c0.5,0.1,0.9,0.3,1.3,0.6c0.5,0.4,0.8,0.9,1,1.5s0.3,1.3,0.3,2
				c0,0.7-0.1,1.2-0.2,1.7s-0.3,0.9-0.6,1.3s-0.5,0.6-0.8,0.8s-0.6,0.3-1,0.4s-0.9,0.1-1.4,0.1H300.7z M301.8,141.2h1.8
				c0.6,0,1-0.1,1.3-0.2s0.6-0.3,0.8-0.4c0.3-0.3,0.5-0.6,0.6-1.1s0.2-1,0.2-1.7c0-0.9-0.1-1.6-0.4-2.1s-0.7-0.8-1.1-1
				c-0.3-0.1-0.8-0.2-1.5-0.2h-1.8V141.2z"/>
			<path class="st1" d="M313.3,141.4c-0.4,0.3-0.8,0.6-1.1,0.7s-0.7,0.2-1.2,0.2c-0.7,0-1.2-0.2-1.6-0.5s-0.6-0.8-0.6-1.3
				c0-0.3,0.1-0.6,0.2-0.8s0.3-0.5,0.5-0.6s0.5-0.3,0.8-0.3c0.2-0.1,0.5-0.1,0.9-0.2c0.9-0.1,1.5-0.2,1.9-0.4c0-0.1,0-0.2,0-0.3
				c0-0.4-0.1-0.7-0.3-0.9c-0.3-0.2-0.7-0.4-1.2-0.4c-0.5,0-0.9,0.1-1.1,0.3s-0.4,0.5-0.5,0.9l-1-0.1c0.1-0.4,0.2-0.8,0.5-1.1
				s0.5-0.5,0.9-0.6s0.9-0.2,1.4-0.2c0.5,0,1,0.1,1.3,0.2s0.6,0.3,0.7,0.5s0.3,0.4,0.3,0.7c0,0.2,0.1,0.5,0.1,1v1.4
				c0,1,0,1.6,0.1,1.9s0.1,0.5,0.3,0.7h-1.1C313.4,142,313.3,141.7,313.3,141.4z M313.2,139.1c-0.4,0.2-1,0.3-1.7,0.4
				c-0.4,0.1-0.7,0.1-0.9,0.2s-0.3,0.2-0.4,0.3s-0.1,0.3-0.1,0.5c0,0.3,0.1,0.5,0.3,0.7s0.5,0.3,0.9,0.3c0.4,0,0.8-0.1,1.1-0.3
				s0.5-0.4,0.7-0.7c0.1-0.2,0.2-0.6,0.2-1.1V139.1z"/>
			<path class="st1" d="M318.2,141.3l0.2,0.9c-0.3,0.1-0.6,0.1-0.8,0.1c-0.4,0-0.7-0.1-0.9-0.2s-0.4-0.3-0.4-0.5s-0.1-0.6-0.1-1.2
				v-3.6h-0.8V136h0.8v-1.5l1-0.6v2.2h1.1v0.8h-1.1v3.6c0,0.3,0,0.5,0.1,0.6s0.1,0.2,0.2,0.2s0.2,0.1,0.4,0.1
				C317.9,141.3,318,141.3,318.2,141.3z"/>
			<path class="st1" d="M323.3,141.4c-0.4,0.3-0.8,0.6-1.1,0.7s-0.7,0.2-1.2,0.2c-0.7,0-1.2-0.2-1.6-0.5s-0.6-0.8-0.6-1.3
				c0-0.3,0.1-0.6,0.2-0.8s0.3-0.5,0.5-0.6s0.5-0.3,0.8-0.3c0.2-0.1,0.5-0.1,0.9-0.2c0.9-0.1,1.5-0.2,1.9-0.4c0-0.1,0-0.2,0-0.3
				c0-0.4-0.1-0.7-0.3-0.9c-0.3-0.2-0.7-0.4-1.2-0.4c-0.5,0-0.9,0.1-1.1,0.3s-0.4,0.5-0.5,0.9l-1-0.1c0.1-0.4,0.2-0.8,0.5-1.1
				s0.5-0.5,0.9-0.6s0.9-0.2,1.4-0.2c0.5,0,1,0.1,1.3,0.2s0.6,0.3,0.7,0.5s0.3,0.4,0.3,0.7c0,0.2,0.1,0.5,0.1,1v1.4
				c0,1,0,1.6,0.1,1.9s0.1,0.5,0.3,0.7h-1.1C323.4,142,323.3,141.7,323.3,141.4z M323.2,139.1c-0.4,0.2-1,0.3-1.7,0.4
				c-0.4,0.1-0.7,0.1-0.9,0.2s-0.3,0.2-0.4,0.3s-0.1,0.3-0.1,0.5c0,0.3,0.1,0.5,0.3,0.7s0.5,0.3,0.9,0.3c0.4,0,0.8-0.1,1.1-0.3
				s0.5-0.4,0.7-0.7c0.1-0.2,0.2-0.6,0.2-1.1V139.1z"/>
			<path class="st1" d="M329,139.5l1.1-0.1c0.1,0.4,0.2,0.8,0.4,1.1s0.5,0.5,0.9,0.7s0.8,0.3,1.3,0.3c0.4,0,0.8-0.1,1.1-0.2
				s0.6-0.3,0.7-0.5s0.2-0.5,0.2-0.7c0-0.3-0.1-0.5-0.2-0.7s-0.4-0.4-0.8-0.5c-0.2-0.1-0.7-0.2-1.5-0.4s-1.3-0.4-1.7-0.5
				c-0.4-0.2-0.7-0.5-0.9-0.8s-0.3-0.7-0.3-1.1c0-0.4,0.1-0.8,0.4-1.2s0.6-0.7,1.1-0.9s1-0.3,1.6-0.3c0.6,0,1.2,0.1,1.7,0.3
				s0.9,0.5,1.1,0.9s0.4,0.8,0.4,1.4l-1.1,0.1c-0.1-0.5-0.3-1-0.6-1.2s-0.8-0.4-1.5-0.4c-0.7,0-1.2,0.1-1.5,0.4s-0.5,0.6-0.5,0.9
				c0,0.3,0.1,0.6,0.3,0.8c0.2,0.2,0.8,0.4,1.7,0.6s1.6,0.4,1.9,0.5c0.5,0.2,0.9,0.5,1.1,0.9s0.4,0.8,0.4,1.2c0,0.5-0.1,0.9-0.4,1.3
				s-0.6,0.7-1.1,0.9s-1,0.3-1.7,0.3c-0.8,0-1.4-0.1-2-0.3s-0.9-0.6-1.2-1S329,140,329,139.5z"/>
			<path class="st1" d="M337.2,142.2V136h0.9v0.9c0.5-0.7,1.1-1,2-1c0.4,0,0.7,0.1,1,0.2s0.5,0.3,0.7,0.5s0.3,0.5,0.3,0.8
				c0,0.2,0.1,0.5,0.1,1v3.8h-1.1v-3.8c0-0.4,0-0.8-0.1-1s-0.2-0.4-0.4-0.5s-0.5-0.2-0.7-0.2c-0.4,0-0.8,0.1-1.2,0.4
				s-0.5,0.8-0.5,1.6v3.4H337.2z"/>
			<path class="st1" d="M348,141.4c-0.4,0.3-0.8,0.6-1.1,0.7s-0.7,0.2-1.2,0.2c-0.7,0-1.2-0.2-1.6-0.5s-0.6-0.8-0.6-1.3
				c0-0.3,0.1-0.6,0.2-0.8s0.3-0.5,0.5-0.6s0.5-0.3,0.8-0.3c0.2-0.1,0.5-0.1,0.9-0.2c0.9-0.1,1.5-0.2,1.9-0.4c0-0.1,0-0.2,0-0.3
				c0-0.4-0.1-0.7-0.3-0.9c-0.3-0.2-0.7-0.4-1.2-0.4c-0.5,0-0.9,0.1-1.1,0.3s-0.4,0.5-0.5,0.9l-1-0.1c0.1-0.4,0.2-0.8,0.5-1.1
				s0.5-0.5,0.9-0.6s0.9-0.2,1.4-0.2c0.5,0,1,0.1,1.3,0.2s0.6,0.3,0.7,0.5s0.3,0.4,0.3,0.7c0,0.2,0.1,0.5,0.1,1v1.4
				c0,1,0,1.6,0.1,1.9s0.1,0.5,0.3,0.7h-1.1C348.1,142,348,141.7,348,141.4z M347.9,139.1c-0.4,0.2-1,0.3-1.7,0.4
				c-0.4,0.1-0.7,0.1-0.9,0.2s-0.3,0.2-0.4,0.3s-0.1,0.3-0.1,0.5c0,0.3,0.1,0.5,0.3,0.7s0.5,0.3,0.9,0.3c0.4,0,0.8-0.1,1.1-0.3
				s0.5-0.4,0.7-0.7c0.1-0.2,0.2-0.6,0.2-1.1V139.1z"/>
			<path class="st1" d="M350.6,144.6V136h1v0.8c0.2-0.3,0.5-0.6,0.8-0.7s0.6-0.2,1-0.2c0.5,0,1,0.1,1.4,0.4s0.7,0.7,0.9,1.2
				s0.3,1,0.3,1.6c0,0.6-0.1,1.2-0.3,1.7s-0.6,0.9-1,1.2s-0.9,0.4-1.4,0.4c-0.4,0-0.7-0.1-0.9-0.2s-0.5-0.3-0.7-0.6v3H350.6z
				 M351.5,139.1c0,0.8,0.2,1.4,0.5,1.8s0.7,0.6,1.2,0.6c0.5,0,0.9-0.2,1.2-0.6s0.5-1,0.5-1.8c0-0.8-0.2-1.4-0.5-1.8
				s-0.7-0.6-1.2-0.6c-0.4,0-0.8,0.2-1.2,0.6S351.5,138.3,351.5,139.1z"/>
			<path class="st1" d="M356.8,140.4l1-0.2c0.1,0.4,0.2,0.7,0.5,1s0.6,0.3,1.1,0.3c0.5,0,0.8-0.1,1.1-0.3s0.4-0.4,0.4-0.7
				c0-0.2-0.1-0.4-0.3-0.6c-0.1-0.1-0.5-0.2-1.1-0.4c-0.8-0.2-1.3-0.4-1.6-0.5s-0.5-0.3-0.7-0.6s-0.2-0.5-0.2-0.8
				c0-0.3,0.1-0.5,0.2-0.8s0.3-0.4,0.5-0.6c0.2-0.1,0.4-0.2,0.7-0.3s0.6-0.1,0.9-0.1c0.5,0,0.9,0.1,1.3,0.2s0.6,0.3,0.8,0.6
				s0.3,0.6,0.4,1l-1,0.1c0-0.3-0.2-0.6-0.4-0.8s-0.5-0.3-1-0.3c-0.5,0-0.8,0.1-1,0.2s-0.3,0.3-0.3,0.6c0,0.1,0,0.3,0.1,0.4
				c0.1,0.1,0.2,0.2,0.4,0.3c0.1,0,0.4,0.1,0.9,0.3c0.7,0.2,1.3,0.4,1.6,0.5s0.5,0.3,0.7,0.6s0.3,0.5,0.3,0.9c0,0.4-0.1,0.7-0.3,1
				s-0.5,0.6-0.9,0.7s-0.8,0.3-1.3,0.3c-0.8,0-1.4-0.2-1.8-0.5S357,141,356.8,140.4z"/>
			<path class="st1" d="M363.3,142.2v-8.6h1.1v3.1c0.5-0.6,1.1-0.9,1.9-0.9c0.5,0,0.9,0.1,1.2,0.3s0.6,0.4,0.7,0.8s0.2,0.8,0.2,1.4
				v3.9h-1.1v-3.9c0-0.5-0.1-0.9-0.3-1.2s-0.6-0.4-1-0.4c-0.3,0-0.6,0.1-0.9,0.2s-0.5,0.4-0.6,0.7s-0.2,0.7-0.2,1.1v3.4H363.3z"/>
			<path class="st1" d="M369.5,139.1c0-1.2,0.3-2,1-2.6c0.5-0.5,1.2-0.7,2-0.7c0.9,0,1.6,0.3,2.1,0.8s0.8,1.3,0.8,2.3
				c0,0.8-0.1,1.4-0.4,1.9s-0.6,0.8-1,1.1s-1,0.4-1.5,0.4c-0.9,0-1.6-0.3-2.1-0.8S369.5,140.2,369.5,139.1z M370.6,139.1
				c0,0.8,0.2,1.4,0.5,1.8s0.8,0.6,1.3,0.6c0.5,0,1-0.2,1.3-0.6s0.5-1,0.5-1.8c0-0.8-0.2-1.4-0.5-1.7s-0.8-0.6-1.3-0.6
				c-0.5,0-1,0.2-1.3,0.6S370.6,138.3,370.6,139.1z"/>
			<path class="st1" d="M378.9,141.3l0.2,0.9c-0.3,0.1-0.6,0.1-0.8,0.1c-0.4,0-0.7-0.1-0.9-0.2s-0.4-0.3-0.4-0.5s-0.1-0.6-0.1-1.2
				v-3.6H376V136h0.8v-1.5l1-0.6v2.2h1.1v0.8h-1.1v3.6c0,0.3,0,0.5,0.1,0.6s0.1,0.2,0.2,0.2s0.2,0.1,0.4,0.1
				C378.6,141.3,378.7,141.3,378.9,141.3z"/>
			<path class="st1" d="M308.4,156.6V148h5.8v1h-4.7v2.7h4v1h-4v3.9H308.4z"/>
			<path class="st1" d="M315.2,153.5c0-1.2,0.3-2,1-2.6c0.5-0.5,1.2-0.7,2-0.7c0.9,0,1.6,0.3,2.1,0.8s0.8,1.3,0.8,2.3
				c0,0.8-0.1,1.4-0.4,1.9s-0.6,0.8-1,1.1s-1,0.4-1.5,0.4c-0.9,0-1.6-0.3-2.1-0.8S315.2,154.6,315.2,153.5z M316.3,153.5
				c0,0.8,0.2,1.4,0.5,1.8s0.8,0.6,1.3,0.6c0.5,0,1-0.2,1.3-0.6s0.5-1,0.5-1.8c0-0.8-0.2-1.4-0.5-1.7s-0.8-0.6-1.3-0.6
				c-0.5,0-1,0.2-1.3,0.6S316.3,152.7,316.3,153.5z"/>
			<path class="st1" d="M322.2,156.6v-6.2h0.9v0.9c0.2-0.4,0.5-0.7,0.7-0.9s0.4-0.2,0.7-0.2c0.4,0,0.7,0.1,1.1,0.3l-0.4,1
				c-0.3-0.2-0.5-0.2-0.8-0.2c-0.2,0-0.4,0.1-0.6,0.2s-0.3,0.3-0.4,0.6c-0.1,0.4-0.2,0.8-0.2,1.2v3.3H322.2z"/>
			<path class="st1" d="M329.7,156.6V148h3.2c0.6,0,1,0,1.3,0.1c0.4,0.1,0.8,0.2,1.1,0.4s0.5,0.5,0.7,0.8s0.3,0.7,0.3,1.2
				c0,0.7-0.2,1.3-0.7,1.9s-1.3,0.8-2.5,0.8h-2.2v3.5H329.7z M330.9,152.1h2.2c0.7,0,1.3-0.1,1.6-0.4s0.5-0.7,0.5-1.2
				c0-0.4-0.1-0.7-0.3-0.9s-0.4-0.4-0.7-0.5c-0.2-0.1-0.5-0.1-1.1-0.1h-2.2V152.1z"/>
			<path class="st1" d="M337.6,156.6v-6.2h0.9v0.9c0.2-0.4,0.5-0.7,0.7-0.9s0.4-0.2,0.7-0.2c0.4,0,0.7,0.1,1.1,0.3l-0.4,1
				c-0.3-0.2-0.5-0.2-0.8-0.2c-0.2,0-0.4,0.1-0.6,0.2s-0.3,0.3-0.4,0.6c-0.1,0.4-0.2,0.8-0.2,1.2v3.3H337.6z"/>
			<path class="st1" d="M345.8,154.6l1.1,0.1c-0.2,0.6-0.5,1.1-1,1.5s-1.1,0.5-1.8,0.5c-0.9,0-1.6-0.3-2.2-0.8s-0.8-1.3-0.8-2.4
				c0-1,0.3-1.9,0.8-2.4s1.2-0.9,2.1-0.9c0.8,0,1.5,0.3,2,0.8s0.8,1.4,0.8,2.4c0,0.1,0,0.2,0,0.3h-4.6c0,0.7,0.2,1.2,0.6,1.6
				s0.8,0.5,1.3,0.5c0.4,0,0.7-0.1,1-0.3S345.7,155.1,345.8,154.6z M342.4,152.9h3.5c0-0.5-0.2-0.9-0.4-1.2
				c-0.3-0.4-0.8-0.6-1.3-0.6c-0.5,0-0.9,0.2-1.2,0.5S342.4,152.4,342.4,152.9z"/>
			<path class="st1" d="M350,156.6l-2.4-6.2h1.1l1.3,3.7c0.1,0.4,0.3,0.8,0.4,1.3c0.1-0.3,0.2-0.7,0.4-1.2l1.4-3.8h1.1l-2.4,6.2H350
				z"/>
			<path class="st1" d="M354.3,149.2V148h1.1v1.2H354.3z M354.3,156.6v-6.2h1.1v6.2H354.3z"/>
			<path class="st1" d="M361.2,154.6l1.1,0.1c-0.2,0.6-0.5,1.1-1,1.5s-1.1,0.5-1.8,0.5c-0.9,0-1.6-0.3-2.2-0.8s-0.8-1.3-0.8-2.4
				c0-1,0.3-1.9,0.8-2.4s1.2-0.9,2.1-0.9c0.8,0,1.5,0.3,2,0.8s0.8,1.4,0.8,2.4c0,0.1,0,0.2,0,0.3h-4.6c0,0.7,0.2,1.2,0.6,1.6
				s0.8,0.5,1.3,0.5c0.4,0,0.7-0.1,1-0.3S361,155.1,361.2,154.6z M357.7,152.9h3.5c0-0.5-0.2-0.9-0.4-1.2c-0.3-0.4-0.8-0.6-1.3-0.6
				c-0.5,0-0.9,0.2-1.2,0.5S357.8,152.4,357.7,152.9z"/>
			<path class="st1" d="M364.7,156.6l-1.9-6.2h1.1l1,3.6l0.4,1.3c0-0.1,0.1-0.5,0.3-1.3l1-3.6h1.1l0.9,3.6l0.3,1.2l0.4-1.2l1.1-3.6
				h1l-1.9,6.2h-1.1l-1-3.7l-0.2-1.1l-1.3,4.8H364.7z"/>
		</g>
		<g>
			<path class="st1" d="M280.6,326.9l1.1-0.1c0.1,0.4,0.2,0.8,0.4,1.1s0.5,0.5,0.9,0.7s0.8,0.3,1.3,0.3c0.4,0,0.8-0.1,1.1-0.2
				s0.6-0.3,0.7-0.5s0.2-0.5,0.2-0.7c0-0.3-0.1-0.5-0.2-0.7s-0.4-0.4-0.8-0.5c-0.2-0.1-0.7-0.2-1.5-0.4s-1.3-0.4-1.7-0.5
				c-0.4-0.2-0.7-0.5-0.9-0.8s-0.3-0.7-0.3-1.1c0-0.4,0.1-0.8,0.4-1.2s0.6-0.7,1.1-0.9s1-0.3,1.6-0.3c0.6,0,1.2,0.1,1.7,0.3
				s0.9,0.5,1.1,0.9s0.4,0.8,0.4,1.4l-1.1,0.1c-0.1-0.5-0.3-1-0.6-1.2s-0.8-0.4-1.5-0.4c-0.7,0-1.2,0.1-1.5,0.4s-0.5,0.6-0.5,0.9
				c0,0.3,0.1,0.6,0.3,0.8c0.2,0.2,0.8,0.4,1.7,0.6s1.6,0.4,1.9,0.5c0.5,0.2,0.9,0.5,1.1,0.9s0.4,0.8,0.4,1.2c0,0.5-0.1,0.9-0.4,1.3
				s-0.6,0.7-1.1,0.9s-1,0.3-1.7,0.3c-0.8,0-1.4-0.1-2-0.3s-0.9-0.6-1.2-1S280.7,327.5,280.6,326.9z"/>
			<path class="st1" d="M293,327.4l1,0.1c-0.1,0.7-0.4,1.3-0.9,1.7s-1,0.6-1.7,0.6c-0.9,0-1.5-0.3-2.1-0.8s-0.8-1.4-0.8-2.4
				c0-0.7,0.1-1.3,0.3-1.8s0.6-0.9,1-1.1s1-0.4,1.5-0.4c0.7,0,1.2,0.2,1.7,0.5s0.7,0.8,0.8,1.5l-1,0.2c-0.1-0.4-0.3-0.7-0.5-0.9
				s-0.5-0.3-0.9-0.3c-0.5,0-1,0.2-1.3,0.6s-0.5,1-0.5,1.8c0,0.8,0.2,1.4,0.5,1.8s0.7,0.6,1.3,0.6c0.4,0,0.8-0.1,1-0.4
				S292.9,327.9,293,327.4z"/>
			<path class="st1" d="M294.9,329.7v-6.2h0.9v0.9c0.2-0.4,0.5-0.7,0.7-0.9s0.4-0.2,0.7-0.2c0.4,0,0.7,0.1,1.1,0.3l-0.4,1
				c-0.3-0.2-0.5-0.2-0.8-0.2c-0.2,0-0.4,0.1-0.6,0.2s-0.3,0.3-0.4,0.6c-0.1,0.4-0.2,0.8-0.2,1.2v3.3H294.9z"/>
			<path class="st1" d="M303.2,327.7l1.1,0.1c-0.2,0.6-0.5,1.1-1,1.5s-1.1,0.5-1.8,0.5c-0.9,0-1.6-0.3-2.2-0.8s-0.8-1.3-0.8-2.4
				c0-1,0.3-1.9,0.8-2.4s1.2-0.9,2.1-0.9c0.8,0,1.5,0.3,2,0.8s0.8,1.4,0.8,2.4c0,0.1,0,0.2,0,0.3h-4.6c0,0.7,0.2,1.2,0.6,1.6
				s0.8,0.5,1.3,0.5c0.4,0,0.7-0.1,1-0.3S303,328.1,303.2,327.7z M299.7,326h3.5c0-0.5-0.2-0.9-0.4-1.2c-0.3-0.4-0.8-0.6-1.3-0.6
				c-0.5,0-0.9,0.2-1.2,0.5S299.7,325.4,299.7,326z"/>
			<path class="st1" d="M309.8,327.7l1.1,0.1c-0.2,0.6-0.5,1.1-1,1.5s-1.1,0.5-1.8,0.5c-0.9,0-1.6-0.3-2.2-0.8s-0.8-1.3-0.8-2.4
				c0-1,0.3-1.9,0.8-2.4s1.2-0.9,2.1-0.9c0.8,0,1.5,0.3,2,0.8s0.8,1.4,0.8,2.4c0,0.1,0,0.2,0,0.3h-4.6c0,0.7,0.2,1.2,0.6,1.6
				s0.8,0.5,1.3,0.5c0.4,0,0.7-0.1,1-0.3S309.7,328.1,309.8,327.7z M306.4,326h3.5c0-0.5-0.2-0.9-0.4-1.2c-0.3-0.4-0.8-0.6-1.3-0.6
				c-0.5,0-0.9,0.2-1.2,0.5S306.4,325.4,306.4,326z"/>
			<path class="st1" d="M312.2,329.7v-6.2h0.9v0.9c0.5-0.7,1.1-1,2-1c0.4,0,0.7,0.1,1,0.2s0.5,0.3,0.7,0.5s0.3,0.5,0.3,0.8
				c0,0.2,0.1,0.5,0.1,1v3.8h-1.1v-3.8c0-0.4,0-0.8-0.1-1s-0.2-0.4-0.4-0.5s-0.5-0.2-0.7-0.2c-0.4,0-0.8,0.1-1.2,0.4
				s-0.5,0.8-0.5,1.6v3.4H312.2z"/>
			<path class="st1" d="M322.4,329.7v-8.6h3c0.7,0,1.2,0,1.5,0.1c0.5,0.1,0.9,0.3,1.3,0.6c0.5,0.4,0.8,0.9,1,1.5s0.3,1.3,0.3,2
				c0,0.7-0.1,1.2-0.2,1.7s-0.3,0.9-0.6,1.3s-0.5,0.6-0.8,0.8s-0.6,0.3-1,0.4s-0.9,0.1-1.4,0.1H322.4z M323.5,328.7h1.8
				c0.6,0,1-0.1,1.3-0.2s0.6-0.3,0.8-0.4c0.3-0.3,0.5-0.6,0.6-1.1s0.2-1,0.2-1.7c0-0.9-0.1-1.6-0.4-2.1s-0.7-0.8-1.1-1
				c-0.3-0.1-0.8-0.2-1.5-0.2h-1.8V328.7z"/>
			<path class="st1" d="M335.2,327.7l1.1,0.1c-0.2,0.6-0.5,1.1-1,1.5s-1.1,0.5-1.8,0.5c-0.9,0-1.6-0.3-2.2-0.8s-0.8-1.3-0.8-2.4
				c0-1,0.3-1.9,0.8-2.4s1.2-0.9,2.1-0.9c0.8,0,1.5,0.3,2,0.8s0.8,1.4,0.8,2.4c0,0.1,0,0.2,0,0.3h-4.6c0,0.7,0.2,1.2,0.6,1.6
				s0.8,0.5,1.3,0.5c0.4,0,0.7-0.1,1-0.3S335,328.1,335.2,327.7z M331.7,326h3.5c0-0.5-0.2-0.9-0.4-1.2c-0.3-0.4-0.8-0.6-1.3-0.6
				c-0.5,0-0.9,0.2-1.2,0.5S331.8,325.4,331.7,326z"/>
			<path class="st1" d="M337.2,327.8l1-0.2c0.1,0.4,0.2,0.7,0.5,1s0.6,0.3,1.1,0.3c0.5,0,0.8-0.1,1.1-0.3s0.4-0.4,0.4-0.7
				c0-0.2-0.1-0.4-0.3-0.6c-0.1-0.1-0.5-0.2-1.1-0.4c-0.8-0.2-1.3-0.4-1.6-0.5s-0.5-0.3-0.7-0.6s-0.2-0.5-0.2-0.8
				c0-0.3,0.1-0.5,0.2-0.8s0.3-0.4,0.5-0.6c0.2-0.1,0.4-0.2,0.7-0.3s0.6-0.1,0.9-0.1c0.5,0,0.9,0.1,1.3,0.2s0.6,0.3,0.8,0.6
				s0.3,0.6,0.4,1l-1,0.1c0-0.3-0.2-0.6-0.4-0.8s-0.5-0.3-1-0.3c-0.5,0-0.8,0.1-1,0.2s-0.3,0.3-0.3,0.6c0,0.1,0,0.3,0.1,0.4
				c0.1,0.1,0.2,0.2,0.4,0.3c0.1,0,0.4,0.1,0.9,0.3c0.7,0.2,1.3,0.4,1.6,0.5s0.5,0.3,0.7,0.6s0.3,0.5,0.3,0.9c0,0.4-0.1,0.7-0.3,1
				s-0.5,0.6-0.9,0.7s-0.8,0.3-1.3,0.3c-0.8,0-1.4-0.2-1.8-0.5S337.3,328.5,337.2,327.8z"/>
			<path class="st1" d="M343.6,322.3v-1.2h1.1v1.2H343.6z M343.6,329.7v-6.2h1.1v6.2H343.6z"/>
			<path class="st1" d="M346.1,330.2l1,0.2c0,0.3,0.2,0.5,0.4,0.7c0.3,0.2,0.6,0.3,1.1,0.3c0.5,0,0.9-0.1,1.1-0.3s0.4-0.5,0.5-0.8
				c0.1-0.2,0.1-0.7,0.1-1.4c-0.5,0.5-1,0.8-1.7,0.8c-0.9,0-1.5-0.3-2-0.9s-0.7-1.4-0.7-2.2c0-0.6,0.1-1.1,0.3-1.6s0.5-0.9,0.9-1.2
				s0.9-0.4,1.4-0.4c0.7,0,1.3,0.3,1.8,0.9v-0.8h1v5.4c0,1-0.1,1.7-0.3,2.1s-0.5,0.7-0.9,1s-1,0.4-1.6,0.4c-0.7,0-1.3-0.2-1.8-0.5
				S346.1,330.9,346.1,330.2z M346.9,326.5c0,0.8,0.2,1.4,0.5,1.8s0.7,0.6,1.2,0.6c0.5,0,0.9-0.2,1.2-0.6s0.5-1,0.5-1.8
				c0-0.8-0.2-1.3-0.5-1.7s-0.7-0.6-1.2-0.6c-0.5,0-0.9,0.2-1.2,0.6S346.9,325.7,346.9,326.5z"/>
			<path class="st1" d="M352.9,329.7v-6.2h0.9v0.9c0.5-0.7,1.1-1,2-1c0.4,0,0.7,0.1,1,0.2s0.5,0.3,0.7,0.5s0.3,0.5,0.3,0.8
				c0,0.2,0.1,0.5,0.1,1v3.8h-1.1v-3.8c0-0.4,0-0.8-0.1-1s-0.2-0.4-0.4-0.5s-0.5-0.2-0.7-0.2c-0.4,0-0.8,0.1-1.2,0.4
				s-0.5,0.8-0.5,1.6v3.4H352.9z"/>
		</g>
		<g>
			<g>
				<path class="st3" d="M488.7,169.9v-8.6h1.1v8.6H488.7z"/>
				<path class="st3" d="M491.7,169.9v-6.2h0.9v0.9c0.5-0.7,1.1-1,2-1c0.4,0,0.7,0.1,1,0.2s0.5,0.3,0.7,0.5s0.3,0.5,0.3,0.8
					c0,0.2,0.1,0.5,0.1,1v3.8h-1.1v-3.8c0-0.4,0-0.8-0.1-1s-0.2-0.4-0.4-0.5s-0.5-0.2-0.7-0.2c-0.4,0-0.8,0.1-1.2,0.4
					s-0.5,0.8-0.5,1.6v3.4H491.7z"/>
				<path class="st3" d="M500.7,168.9l0.2,0.9c-0.3,0.1-0.6,0.1-0.8,0.1c-0.4,0-0.7-0.1-0.9-0.2s-0.4-0.3-0.4-0.5s-0.1-0.6-0.1-1.2
					v-3.6h-0.8v-0.8h0.8v-1.5l1-0.6v2.2h1.1v0.8h-1.1v3.6c0,0.3,0,0.5,0.1,0.6s0.1,0.2,0.2,0.2s0.2,0.1,0.4,0.1
					C500.4,168.9,500.5,168.9,500.7,168.9z"/>
				<path class="st3" d="M501.7,169.9v-6.2h0.9v0.9c0.2-0.4,0.5-0.7,0.7-0.9s0.4-0.2,0.7-0.2c0.4,0,0.7,0.1,1.1,0.3l-0.4,1
					c-0.3-0.2-0.5-0.2-0.8-0.2c-0.2,0-0.4,0.1-0.6,0.2s-0.3,0.3-0.4,0.6c-0.1,0.4-0.2,0.8-0.2,1.2v3.3H501.7z"/>
				<path class="st3" d="M509.8,169.1c-0.4,0.3-0.8,0.6-1.1,0.7s-0.7,0.2-1.2,0.2c-0.7,0-1.2-0.2-1.6-0.5s-0.6-0.8-0.6-1.3
					c0-0.3,0.1-0.6,0.2-0.8s0.3-0.5,0.5-0.6s0.5-0.3,0.8-0.3c0.2-0.1,0.5-0.1,0.9-0.2c0.9-0.1,1.5-0.2,1.9-0.4c0-0.1,0-0.2,0-0.3
					c0-0.4-0.1-0.7-0.3-0.9c-0.3-0.2-0.7-0.4-1.2-0.4c-0.5,0-0.9,0.1-1.1,0.3s-0.4,0.5-0.5,0.9l-1-0.1c0.1-0.4,0.2-0.8,0.5-1.1
					s0.5-0.5,0.9-0.6s0.9-0.2,1.4-0.2c0.5,0,1,0.1,1.3,0.2s0.6,0.3,0.7,0.5s0.3,0.4,0.3,0.7c0,0.2,0.1,0.5,0.1,1v1.4
					c0,1,0,1.6,0.1,1.9s0.1,0.5,0.3,0.7H510C509.9,169.6,509.8,169.4,509.8,169.1z M509.7,166.7c-0.4,0.2-1,0.3-1.7,0.4
					c-0.4,0.1-0.7,0.1-0.9,0.2s-0.3,0.2-0.4,0.3s-0.1,0.3-0.1,0.5c0,0.3,0.1,0.5,0.3,0.7s0.5,0.3,0.9,0.3c0.4,0,0.8-0.1,1.1-0.3
					s0.5-0.4,0.7-0.7c0.1-0.2,0.2-0.6,0.2-1.1V166.7z"/>
				<path class="st3" d="M512.4,169.9v-6.2h0.9v0.9c0.5-0.7,1.1-1,2-1c0.4,0,0.7,0.1,1,0.2s0.5,0.3,0.7,0.5s0.3,0.5,0.3,0.8
					c0,0.2,0.1,0.5,0.1,1v3.8h-1.1v-3.8c0-0.4,0-0.8-0.1-1s-0.2-0.4-0.4-0.5s-0.5-0.2-0.7-0.2c-0.4,0-0.8,0.1-1.2,0.4
					s-0.5,0.8-0.5,1.6v3.4H512.4z"/>
				<path class="st3" d="M523.3,167.8l1.1,0.1c-0.2,0.6-0.5,1.1-1,1.5s-1.1,0.5-1.8,0.5c-0.9,0-1.6-0.3-2.2-0.8s-0.8-1.3-0.8-2.4
					c0-1,0.3-1.9,0.8-2.4s1.2-0.9,2.1-0.9c0.8,0,1.5,0.3,2,0.8s0.8,1.4,0.8,2.4c0,0.1,0,0.2,0,0.3h-4.6c0,0.7,0.2,1.2,0.6,1.6
					s0.8,0.5,1.3,0.5c0.4,0,0.7-0.1,1-0.3S523.2,168.3,523.3,167.8z M519.9,166.1h3.5c0-0.5-0.2-0.9-0.4-1.2
					c-0.3-0.4-0.8-0.6-1.3-0.6c-0.5,0-0.9,0.2-1.2,0.5S519.9,165.6,519.9,166.1z"/>
				<path class="st3" d="M528.1,168.9l0.2,0.9c-0.3,0.1-0.6,0.1-0.8,0.1c-0.4,0-0.7-0.1-0.9-0.2s-0.4-0.3-0.4-0.5s-0.1-0.6-0.1-1.2
					v-3.6h-0.8v-0.8h0.8v-1.5l1-0.6v2.2h1.1v0.8H527v3.6c0,0.3,0,0.5,0.1,0.6s0.1,0.2,0.2,0.2s0.2,0.1,0.4,0.1
					C527.7,168.9,527.9,168.9,528.1,168.9z"/>
			</g>
		</g>
		<g>
			<g>
				<path class="st3" d="M488.7,307v-8.6h1.1v8.6H488.7z"/>
				<path class="st3" d="M491.7,307v-6.2h0.9v0.9c0.5-0.7,1.1-1,2-1c0.4,0,0.7,0.1,1,0.2s0.5,0.3,0.7,0.5s0.3,0.5,0.3,0.8
					c0,0.2,0.1,0.5,0.1,1v3.8h-1.1v-3.8c0-0.4,0-0.8-0.1-1s-0.2-0.4-0.4-0.5s-0.5-0.2-0.7-0.2c-0.4,0-0.8,0.1-1.2,0.4
					s-0.5,0.8-0.5,1.6v3.4H491.7z"/>
				<path class="st3" d="M500.7,306l0.2,0.9c-0.3,0.1-0.6,0.1-0.8,0.1c-0.4,0-0.7-0.1-0.9-0.2s-0.4-0.3-0.4-0.5s-0.1-0.6-0.1-1.2
					v-3.6h-0.8v-0.8h0.8v-1.5l1-0.6v2.2h1.1v0.8h-1.1v3.6c0,0.3,0,0.5,0.1,0.6s0.1,0.2,0.2,0.2s0.2,0.1,0.4,0.1
					C500.4,306.1,500.5,306,500.7,306z"/>
				<path class="st3" d="M501.7,307v-6.2h0.9v0.9c0.2-0.4,0.5-0.7,0.7-0.9s0.4-0.2,0.7-0.2c0.4,0,0.7,0.1,1.1,0.3l-0.4,1
					c-0.3-0.2-0.5-0.2-0.8-0.2c-0.2,0-0.4,0.1-0.6,0.2s-0.3,0.3-0.4,0.6c-0.1,0.4-0.2,0.8-0.2,1.2v3.3H501.7z"/>
				<path class="st3" d="M509.8,306.2c-0.4,0.3-0.8,0.6-1.1,0.7s-0.7,0.2-1.2,0.2c-0.7,0-1.2-0.2-1.6-0.5s-0.6-0.8-0.6-1.3
					c0-0.3,0.1-0.6,0.2-0.8s0.3-0.5,0.5-0.6s0.5-0.3,0.8-0.3c0.2-0.1,0.5-0.1,0.9-0.2c0.9-0.1,1.5-0.2,1.9-0.4c0-0.1,0-0.2,0-0.3
					c0-0.4-0.1-0.7-0.3-0.9c-0.3-0.2-0.7-0.4-1.2-0.4c-0.5,0-0.9,0.1-1.1,0.3s-0.4,0.5-0.5,0.9l-1-0.1c0.1-0.4,0.2-0.8,0.5-1.1
					s0.5-0.5,0.9-0.6s0.9-0.2,1.4-0.2c0.5,0,1,0.1,1.3,0.2s0.6,0.3,0.7,0.5s0.3,0.4,0.3,0.7c0,0.2,0.1,0.5,0.1,1v1.4
					c0,1,0,1.6,0.1,1.9s0.1,0.5,0.3,0.7H510C509.9,306.7,509.8,306.5,509.8,306.2z M509.7,303.8c-0.4,0.2-1,0.3-1.7,0.4
					c-0.4,0.1-0.7,0.1-0.9,0.2s-0.3,0.2-0.4,0.3s-0.1,0.3-0.1,0.5c0,0.3,0.1,0.5,0.3,0.7s0.5,0.3,0.9,0.3c0.4,0,0.8-0.1,1.1-0.3
					s0.5-0.4,0.7-0.7c0.1-0.2,0.2-0.6,0.2-1.1V303.8z"/>
				<path class="st3" d="M512.4,307v-6.2h0.9v0.9c0.5-0.7,1.1-1,2-1c0.4,0,0.7,0.1,1,0.2s0.5,0.3,0.7,0.5s0.3,0.5,0.3,0.8
					c0,0.2,0.1,0.5,0.1,1v3.8h-1.1v-3.8c0-0.4,0-0.8-0.1-1s-0.2-0.4-0.4-0.5s-0.5-0.2-0.7-0.2c-0.4,0-0.8,0.1-1.2,0.4
					s-0.5,0.8-0.5,1.6v3.4H512.4z"/>
				<path class="st3" d="M523.3,305l1.1,0.1c-0.2,0.6-0.5,1.1-1,1.5s-1.1,0.5-1.8,0.5c-0.9,0-1.6-0.3-2.2-0.8s-0.8-1.3-0.8-2.4
					c0-1,0.3-1.9,0.8-2.4s1.2-0.9,2.1-0.9c0.8,0,1.5,0.3,2,0.8s0.8,1.4,0.8,2.4c0,0.1,0,0.2,0,0.3h-4.6c0,0.7,0.2,1.2,0.6,1.6
					s0.8,0.5,1.3,0.5c0.4,0,0.7-0.1,1-0.3S523.2,305.4,523.3,305z M519.9,303.2h3.5c0-0.5-0.2-0.9-0.4-1.2c-0.3-0.4-0.8-0.6-1.3-0.6
					c-0.5,0-0.9,0.2-1.2,0.5S519.9,302.7,519.9,303.2z"/>
				<path class="st3" d="M528.1,306l0.2,0.9c-0.3,0.1-0.6,0.1-0.8,0.1c-0.4,0-0.7-0.1-0.9-0.2s-0.4-0.3-0.4-0.5s-0.1-0.6-0.1-1.2
					v-3.6h-0.8v-0.8h0.8v-1.5l1-0.6v2.2h1.1v0.8H527v3.6c0,0.3,0,0.5,0.1,0.6s0.1,0.2,0.2,0.2s0.2,0.1,0.4,0.1
					C527.7,306.1,527.9,306,528.1,306z"/>
			</g>
		</g>
		<g>
			<g>
				<path class="st3" d="M483.1,416.2v-8.6h1.1v8.6H483.1z"/>
				<path class="st3" d="M486.1,416.2v-6.2h0.9v0.9c0.5-0.7,1.1-1,2-1c0.4,0,0.7,0.1,1,0.2s0.6,0.3,0.7,0.5s0.3,0.5,0.3,0.8
					c0,0.2,0.1,0.5,0.1,1v3.8h-1.1v-3.8c0-0.4,0-0.8-0.1-1s-0.2-0.4-0.4-0.5s-0.5-0.2-0.7-0.2c-0.4,0-0.8,0.1-1.2,0.4
					s-0.5,0.8-0.5,1.6v3.4H486.1z"/>
				<path class="st3" d="M495,415.2l0.2,0.9c-0.3,0.1-0.6,0.1-0.8,0.1c-0.4,0-0.7-0.1-0.9-0.2s-0.4-0.3-0.4-0.5s-0.1-0.6-0.1-1.2
					v-3.6h-0.8v-0.8h0.8v-1.5l1-0.6v2.2h1.1v0.8H494v3.6c0,0.3,0,0.5,0.1,0.6s0.1,0.2,0.2,0.2s0.2,0.1,0.4,0.1
					C494.7,415.3,494.9,415.2,495,415.2z"/>
				<path class="st3" d="M500.3,414.2l1.1,0.1c-0.2,0.6-0.5,1.1-1,1.5s-1.1,0.5-1.8,0.5c-0.9,0-1.6-0.3-2.2-0.8s-0.8-1.3-0.8-2.4
					c0-1,0.3-1.9,0.8-2.4s1.2-0.9,2.1-0.9c0.8,0,1.5,0.3,2,0.8s0.8,1.4,0.8,2.4c0,0.1,0,0.2,0,0.3h-4.6c0,0.7,0.2,1.2,0.6,1.6
					s0.8,0.5,1.3,0.5c0.4,0,0.7-0.1,1-0.3S500.2,414.6,500.3,414.2z M496.9,412.5h3.5c0-0.5-0.2-0.9-0.4-1.2
					c-0.3-0.4-0.8-0.6-1.3-0.6c-0.5,0-0.9,0.2-1.2,0.5S496.9,411.9,496.9,412.5z"/>
				<path class="st3" d="M502.7,416.2v-6.2h0.9v0.9c0.2-0.4,0.5-0.7,0.7-0.9s0.4-0.2,0.7-0.2c0.4,0,0.7,0.1,1.1,0.3l-0.4,1
					c-0.3-0.2-0.5-0.2-0.8-0.2c-0.2,0-0.4,0.1-0.6,0.2s-0.3,0.3-0.4,0.6c-0.1,0.4-0.2,0.8-0.2,1.2v3.3H502.7z"/>
				<path class="st3" d="M506.7,416.2v-6.2h0.9v0.9c0.5-0.7,1.1-1,2-1c0.4,0,0.7,0.1,1,0.2s0.6,0.3,0.7,0.5s0.3,0.5,0.3,0.8
					c0,0.2,0.1,0.5,0.1,1v3.8h-1.1v-3.8c0-0.4,0-0.8-0.1-1s-0.2-0.4-0.4-0.5s-0.5-0.2-0.7-0.2c-0.4,0-0.8,0.1-1.2,0.4
					s-0.5,0.8-0.5,1.6v3.4H506.7z"/>
				<path class="st3" d="M517.7,414.2l1.1,0.1c-0.2,0.6-0.5,1.1-1,1.5s-1.1,0.5-1.8,0.5c-0.9,0-1.6-0.3-2.2-0.8s-0.8-1.3-0.8-2.4
					c0-1,0.3-1.9,0.8-2.4s1.2-0.9,2.1-0.9c0.8,0,1.5,0.3,2,0.8s0.8,1.4,0.8,2.4c0,0.1,0,0.2,0,0.3h-4.6c0,0.7,0.2,1.2,0.6,1.6
					s0.8,0.5,1.3,0.5c0.4,0,0.7-0.1,1-0.3S517.5,414.6,517.7,414.2z M514.2,412.5h3.5c0-0.5-0.2-0.9-0.4-1.2
					c-0.3-0.4-0.8-0.6-1.3-0.6c-0.5,0-0.9,0.2-1.2,0.5S514.3,411.9,514.2,412.5z"/>
				<path class="st3" d="M522.4,415.2l0.2,0.9c-0.3,0.1-0.6,0.1-0.8,0.1c-0.4,0-0.7-0.1-0.9-0.2s-0.4-0.3-0.4-0.5s-0.1-0.6-0.1-1.2
					v-3.6h-0.8v-0.8h0.8v-1.5l1-0.6v2.2h1.1v0.8h-1.1v3.6c0,0.3,0,0.5,0.1,0.6s0.1,0.2,0.2,0.2s0.2,0.1,0.4,0.1
					C522.1,415.3,522.2,415.2,522.4,415.2z"/>
				<path class="st3" d="M531.7,415.1c-0.3,0.4-0.7,0.7-1.1,0.9s-0.9,0.3-1.3,0.3c-0.9,0-1.6-0.3-2.1-0.9c-0.4-0.5-0.6-1-0.6-1.6
					c0-0.5,0.2-1,0.5-1.4s0.9-0.8,1.5-1.1c-0.4-0.4-0.6-0.8-0.8-1.1s-0.2-0.5-0.2-0.8c0-0.5,0.2-1,0.6-1.3s0.9-0.6,1.5-0.6
					c0.6,0,1.1,0.2,1.4,0.5s0.6,0.8,0.6,1.3c0,0.8-0.5,1.5-1.6,2.1l1.5,2c0.2-0.3,0.3-0.7,0.4-1.2l1.1,0.2c-0.2,0.8-0.4,1.4-0.8,1.9
					c0.4,0.5,0.8,1,1.3,1.3l-0.7,0.8C532.6,416.1,532.1,415.7,531.7,415.1z M531,414.3l-1.9-2.4c-0.6,0.3-1,0.7-1.2,0.9
					s-0.3,0.6-0.3,0.9c0,0.3,0.1,0.7,0.4,1.1s0.7,0.6,1.2,0.6c0.3,0,0.6-0.1,1-0.3S530.8,414.6,531,414.3z M529.5,410.7
					c0.5-0.3,0.8-0.5,0.9-0.7s0.2-0.4,0.2-0.7c0-0.3-0.1-0.5-0.3-0.7s-0.4-0.3-0.7-0.3c-0.3,0-0.5,0.1-0.7,0.3s-0.3,0.4-0.3,0.7
					c0,0.1,0,0.3,0.1,0.4s0.2,0.3,0.3,0.5L529.5,410.7z"/>
				<path class="st3" d="M488.7,430.6V422h1.1v8.6H488.7z"/>
				<path class="st3" d="M491.7,430.6v-6.2h0.9v0.9c0.5-0.7,1.1-1,2-1c0.4,0,0.7,0.1,1,0.2s0.5,0.3,0.7,0.5s0.3,0.5,0.3,0.8
					c0,0.2,0.1,0.5,0.1,1v3.8h-1.1v-3.8c0-0.4,0-0.8-0.1-1s-0.2-0.4-0.4-0.5s-0.5-0.2-0.7-0.2c-0.4,0-0.8,0.1-1.2,0.4
					s-0.5,0.8-0.5,1.6v3.4H491.7z"/>
				<path class="st3" d="M500.7,429.6l0.2,0.9c-0.3,0.1-0.6,0.1-0.8,0.1c-0.4,0-0.7-0.1-0.9-0.2s-0.4-0.3-0.4-0.5s-0.1-0.6-0.1-1.2
					v-3.6h-0.8v-0.8h0.8v-1.5l1-0.6v2.2h1.1v0.8h-1.1v3.6c0,0.3,0,0.5,0.1,0.6s0.1,0.2,0.2,0.2s0.2,0.1,0.4,0.1
					C500.4,429.7,500.5,429.6,500.7,429.6z"/>
				<path class="st3" d="M501.7,430.6v-6.2h0.9v0.9c0.2-0.4,0.5-0.7,0.7-0.9s0.4-0.2,0.7-0.2c0.4,0,0.7,0.1,1.1,0.3l-0.4,1
					c-0.3-0.2-0.5-0.2-0.8-0.2c-0.2,0-0.4,0.1-0.6,0.2s-0.3,0.3-0.4,0.6c-0.1,0.4-0.2,0.8-0.2,1.2v3.3H501.7z"/>
				<path class="st3" d="M509.8,429.8c-0.4,0.3-0.8,0.6-1.1,0.7s-0.8,0.2-1.2,0.2c-0.7,0-1.2-0.2-1.6-0.5s-0.6-0.8-0.6-1.3
					c0-0.3,0.1-0.6,0.2-0.8s0.3-0.5,0.5-0.6s0.5-0.3,0.8-0.3c0.2-0.1,0.5-0.1,0.9-0.2c0.9-0.1,1.5-0.2,1.9-0.4c0-0.1,0-0.2,0-0.3
					c0-0.4-0.1-0.7-0.3-0.9c-0.3-0.2-0.7-0.4-1.2-0.4c-0.5,0-0.9,0.1-1.1,0.3s-0.4,0.5-0.5,0.9l-1-0.1c0.1-0.4,0.2-0.8,0.5-1.1
					s0.5-0.5,0.9-0.6s0.9-0.2,1.4-0.2c0.5,0,1,0.1,1.3,0.2s0.6,0.3,0.7,0.5s0.3,0.4,0.3,0.7c0,0.2,0.1,0.5,0.1,1v1.4
					c0,1,0,1.6,0.1,1.9s0.1,0.5,0.3,0.7H510C509.9,430.3,509.8,430.1,509.8,429.8z M509.7,427.4c-0.4,0.2-1,0.3-1.7,0.4
					c-0.4,0.1-0.7,0.1-0.9,0.2s-0.3,0.2-0.4,0.3s-0.1,0.3-0.1,0.5c0,0.3,0.1,0.5,0.3,0.7s0.5,0.3,0.9,0.3c0.4,0,0.8-0.1,1.1-0.3
					s0.5-0.4,0.7-0.7c0.1-0.2,0.2-0.6,0.2-1.1V427.4z"/>
				<path class="st3" d="M512.4,430.6v-6.2h0.9v0.9c0.5-0.7,1.1-1,2-1c0.4,0,0.7,0.1,1,0.2s0.5,0.3,0.7,0.5s0.3,0.5,0.3,0.8
					c0,0.2,0.1,0.5,0.1,1v3.8h-1.1v-3.8c0-0.4,0-0.8-0.1-1s-0.2-0.4-0.4-0.5s-0.5-0.2-0.7-0.2c-0.4,0-0.8,0.1-1.2,0.4
					s-0.5,0.8-0.5,1.6v3.4H512.4z"/>
				<path class="st3" d="M523.3,428.6l1.1,0.1c-0.2,0.6-0.5,1.1-1,1.5s-1.1,0.5-1.8,0.5c-0.9,0-1.6-0.3-2.2-0.8s-0.8-1.3-0.8-2.4
					c0-1,0.3-1.9,0.8-2.4s1.2-0.9,2.1-0.9c0.8,0,1.5,0.3,2,0.8s0.8,1.4,0.8,2.4c0,0.1,0,0.2,0,0.3h-4.6c0,0.7,0.2,1.2,0.6,1.6
					s0.8,0.5,1.3,0.5c0.4,0,0.7-0.1,1-0.3S523.2,429,523.3,428.6z M519.9,426.9h3.5c0-0.5-0.2-0.9-0.4-1.2c-0.3-0.4-0.8-0.6-1.3-0.6
					c-0.5,0-0.9,0.2-1.2,0.5S519.9,426.3,519.9,426.9z"/>
				<path class="st3" d="M528.1,429.6l0.2,0.9c-0.3,0.1-0.6,0.1-0.8,0.1c-0.4,0-0.7-0.1-0.9-0.2s-0.4-0.3-0.4-0.5s-0.1-0.6-0.1-1.2
					v-3.6h-0.8v-0.8h0.8v-1.5l1-0.6v2.2h1.1v0.8H527v3.6c0,0.3,0,0.5,0.1,0.6s0.1,0.2,0.2,0.2s0.2,0.1,0.4,0.1
					C527.7,429.7,527.9,429.6,528.1,429.6z"/>
			</g>
		</g>
		<g>
			<path class="st1" d="M275.3,462.2l1.1-0.1c0.1,0.4,0.2,0.8,0.4,1.1s0.5,0.5,0.9,0.7s0.8,0.3,1.3,0.3c0.4,0,0.8-0.1,1.1-0.2
				s0.6-0.3,0.7-0.5s0.2-0.5,0.2-0.7c0-0.3-0.1-0.5-0.2-0.7s-0.4-0.4-0.8-0.5c-0.2-0.1-0.7-0.2-1.5-0.4s-1.3-0.4-1.7-0.5
				c-0.4-0.2-0.7-0.5-0.9-0.8s-0.3-0.7-0.3-1.1c0-0.4,0.1-0.8,0.4-1.2s0.6-0.7,1.1-0.9s1-0.3,1.6-0.3c0.6,0,1.2,0.1,1.7,0.3
				s0.9,0.5,1.1,0.9s0.4,0.8,0.4,1.4l-1.1,0.1c-0.1-0.5-0.3-1-0.6-1.2s-0.8-0.4-1.5-0.4c-0.7,0-1.2,0.1-1.5,0.4s-0.5,0.6-0.5,0.9
				c0,0.3,0.1,0.6,0.3,0.8c0.2,0.2,0.8,0.4,1.7,0.6s1.6,0.4,1.9,0.5c0.5,0.2,0.9,0.5,1.1,0.9s0.4,0.8,0.4,1.2c0,0.5-0.1,0.9-0.4,1.3
				s-0.6,0.7-1.1,0.9s-1,0.3-1.7,0.3c-0.8,0-1.4-0.1-2-0.3s-0.9-0.6-1.2-1S275.3,462.7,275.3,462.2z"/>
			<path class="st1" d="M287.6,462.6l1,0.1c-0.1,0.7-0.4,1.3-0.9,1.7s-1,0.6-1.7,0.6c-0.9,0-1.5-0.3-2.1-0.8s-0.8-1.4-0.8-2.4
				c0-0.7,0.1-1.3,0.3-1.8s0.6-0.9,1-1.1s1-0.4,1.5-0.4c0.7,0,1.2,0.2,1.7,0.5s0.7,0.8,0.8,1.5l-1,0.2c-0.1-0.4-0.3-0.7-0.5-0.9
				s-0.5-0.3-0.9-0.3c-0.5,0-1,0.2-1.3,0.6s-0.5,1-0.5,1.8c0,0.8,0.2,1.4,0.5,1.8s0.7,0.6,1.3,0.6c0.4,0,0.8-0.1,1-0.4
				S287.5,463.2,287.6,462.6z"/>
			<path class="st1" d="M289.5,464.9v-8.6h1.1v3.1c0.5-0.6,1.1-0.9,1.9-0.9c0.5,0,0.9,0.1,1.2,0.3s0.6,0.4,0.7,0.8s0.2,0.8,0.2,1.4
				v3.9h-1.1V461c0-0.5-0.1-0.9-0.3-1.2s-0.6-0.4-1-0.4c-0.3,0-0.6,0.1-0.9,0.2s-0.5,0.4-0.6,0.7s-0.2,0.7-0.2,1.1v3.4H289.5z"/>
			<path class="st1" d="M300.5,462.9l1.1,0.1c-0.2,0.6-0.5,1.1-1,1.5s-1.1,0.5-1.8,0.5c-0.9,0-1.6-0.3-2.2-0.8s-0.8-1.3-0.8-2.4
				c0-1,0.3-1.9,0.8-2.4s1.2-0.9,2.1-0.9c0.8,0,1.5,0.3,2,0.8s0.8,1.4,0.8,2.4c0,0.1,0,0.2,0,0.3h-4.6c0,0.7,0.2,1.2,0.6,1.6
				s0.8,0.5,1.3,0.5c0.4,0,0.7-0.1,1-0.3S300.3,463.4,300.5,462.9z M297,461.2h3.5c0-0.5-0.2-0.9-0.4-1.2c-0.3-0.4-0.8-0.6-1.3-0.6
				c-0.5,0-0.9,0.2-1.2,0.5S297,460.7,297,461.2z"/>
			<path class="st1" d="M306.9,464.9v-0.8c-0.4,0.6-1,0.9-1.7,0.9c-0.5,0-1-0.1-1.4-0.4s-0.7-0.7-1-1.1s-0.3-1.1-0.3-1.7
				c0-0.6,0.1-1.2,0.3-1.7s0.5-0.9,0.9-1.2s0.9-0.4,1.4-0.4c0.4,0,0.7,0.1,1,0.2s0.5,0.4,0.7,0.6v-3.1h1v8.6H306.9z M303.6,461.8
				c0,0.8,0.2,1.4,0.5,1.8s0.7,0.6,1.2,0.6c0.5,0,0.9-0.2,1.2-0.6s0.5-1,0.5-1.7c0-0.9-0.2-1.5-0.5-1.9s-0.7-0.6-1.2-0.6
				c-0.5,0-0.9,0.2-1.2,0.6S303.6,461,303.6,461.8z"/>
			<path class="st1" d="M313.6,464.9V464c-0.5,0.7-1.1,1.1-2,1.1c-0.4,0-0.7-0.1-1-0.2s-0.6-0.3-0.7-0.5s-0.3-0.5-0.3-0.8
				c0-0.2-0.1-0.5-0.1-1v-3.9h1.1v3.5c0,0.6,0,0.9,0.1,1.1c0.1,0.3,0.2,0.5,0.4,0.7s0.5,0.2,0.8,0.2s0.6-0.1,0.9-0.2
				s0.5-0.4,0.6-0.7s0.2-0.7,0.2-1.2v-3.3h1.1v6.2H313.6z"/>
			<path class="st1" d="M316.2,464.9v-8.6h1.1v8.6H316.2z"/>
			<path class="st1" d="M323.1,462.9l1.1,0.1c-0.2,0.6-0.5,1.1-1,1.5s-1.1,0.5-1.8,0.5c-0.9,0-1.6-0.3-2.2-0.8s-0.8-1.3-0.8-2.4
				c0-1,0.3-1.9,0.8-2.4s1.2-0.9,2.1-0.9c0.8,0,1.5,0.3,2,0.8s0.8,1.4,0.8,2.4c0,0.1,0,0.2,0,0.3h-4.6c0,0.7,0.2,1.2,0.6,1.6
				s0.8,0.5,1.3,0.5c0.4,0,0.7-0.1,1-0.3S323,463.4,323.1,462.9z M319.7,461.2h3.5c0-0.5-0.2-0.9-0.4-1.2c-0.3-0.4-0.8-0.6-1.3-0.6
				c-0.5,0-0.9,0.2-1.2,0.5S319.7,460.7,319.7,461.2z"/>
			<path class="st1" d="M324.8,465.1l2.5-8.9h0.8l-2.5,8.9H324.8z"/>
			<path class="st1" d="M335.2,461.9l1.1,0.3c-0.2,0.9-0.7,1.6-1.3,2.1s-1.4,0.7-2.3,0.7c-0.9,0-1.7-0.2-2.3-0.6s-1-0.9-1.3-1.6
				s-0.5-1.5-0.5-2.3c0-0.9,0.2-1.7,0.5-2.3s0.8-1.2,1.5-1.5s1.3-0.5,2.1-0.5c0.9,0,1.6,0.2,2.2,0.7s1,1.1,1.2,1.8l-1.1,0.3
				c-0.2-0.6-0.5-1.1-0.9-1.4s-0.9-0.4-1.4-0.4c-0.7,0-1.2,0.2-1.7,0.5s-0.8,0.7-0.9,1.3s-0.3,1.1-0.3,1.6c0,0.7,0.1,1.4,0.3,1.9
				s0.5,1,1,1.2s0.9,0.4,1.5,0.4c0.6,0,1.2-0.2,1.6-0.6S335,462.6,335.2,461.9z"/>
			<path class="st1" d="M337.2,461.8c0-1.2,0.3-2,1-2.6c0.5-0.5,1.2-0.7,2-0.7c0.9,0,1.6,0.3,2.1,0.8s0.8,1.3,0.8,2.3
				c0,0.8-0.1,1.4-0.4,1.9s-0.6,0.8-1,1.1s-1,0.4-1.5,0.4c-0.9,0-1.6-0.3-2.1-0.8S337.2,462.9,337.2,461.8z M338.2,461.8
				c0,0.8,0.2,1.4,0.5,1.8s0.8,0.6,1.3,0.6c0.5,0,1-0.2,1.3-0.6s0.5-1,0.5-1.8c0-0.8-0.2-1.4-0.5-1.7s-0.8-0.6-1.3-0.6
				c-0.5,0-1,0.2-1.3,0.6S338.2,461,338.2,461.8z"/>
			<path class="st1" d="M344.2,464.9v-6.2h0.9v0.9c0.5-0.7,1.1-1,2-1c0.4,0,0.7,0.1,1,0.2s0.5,0.3,0.7,0.5s0.3,0.5,0.3,0.8
				c0,0.2,0.1,0.5,0.1,1v3.8h-1.1v-3.8c0-0.4,0-0.8-0.1-1s-0.2-0.4-0.4-0.5s-0.5-0.2-0.7-0.2c-0.4,0-0.8,0.1-1.2,0.4
				s-0.5,0.8-0.5,1.6v3.4H344.2z"/>
			<path class="st1" d="M351.2,464.9v-5.4h-0.9v-0.8h0.9V458c0-0.4,0-0.7,0.1-0.9c0.1-0.3,0.3-0.5,0.5-0.7s0.6-0.3,1.1-0.3
				c0.3,0,0.6,0,1,0.1l-0.2,0.9c-0.2,0-0.4-0.1-0.6-0.1c-0.3,0-0.5,0.1-0.7,0.2s-0.2,0.4-0.2,0.8v0.6h1.2v0.8h-1.2v5.4H351.2z"/>
			<path class="st1" d="M354.2,457.5v-1.2h1.1v1.2H354.2z M354.2,464.9v-6.2h1.1v6.2H354.2z"/>
			<path class="st1" d="M356.7,465.4l1,0.2c0,0.3,0.2,0.5,0.4,0.7c0.3,0.2,0.6,0.3,1.1,0.3c0.5,0,0.9-0.1,1.1-0.3s0.4-0.5,0.5-0.8
				c0.1-0.2,0.1-0.7,0.1-1.4c-0.5,0.5-1,0.8-1.7,0.8c-0.9,0-1.5-0.3-2-0.9s-0.7-1.4-0.7-2.2c0-0.6,0.1-1.1,0.3-1.6s0.5-0.9,0.9-1.2
				s0.9-0.4,1.4-0.4c0.7,0,1.3,0.3,1.8,0.9v-0.8h1v5.4c0,1-0.1,1.7-0.3,2.1s-0.5,0.7-0.9,1s-1,0.4-1.6,0.4c-0.7,0-1.3-0.2-1.8-0.5
				S356.7,466.1,356.7,465.4z M357.6,461.7c0,0.8,0.2,1.4,0.5,1.8s0.7,0.6,1.2,0.6c0.5,0,0.9-0.2,1.2-0.6s0.5-1,0.5-1.8
				c0-0.8-0.2-1.3-0.5-1.7s-0.7-0.6-1.2-0.6c-0.5,0-0.9,0.2-1.2,0.6S357.6,460.9,357.6,461.7z"/>
			<path class="st1" d="M373.2,461.9l1.1,0.3c-0.2,0.9-0.7,1.6-1.3,2.1s-1.4,0.7-2.3,0.7c-0.9,0-1.7-0.2-2.3-0.6s-1-0.9-1.3-1.6
				s-0.5-1.5-0.5-2.3c0-0.9,0.2-1.7,0.5-2.3s0.8-1.2,1.5-1.5s1.3-0.5,2.1-0.5c0.9,0,1.6,0.2,2.2,0.7s1,1.1,1.2,1.8l-1.1,0.3
				c-0.2-0.6-0.5-1.1-0.9-1.4s-0.9-0.4-1.4-0.4c-0.7,0-1.2,0.2-1.7,0.5s-0.8,0.7-0.9,1.3s-0.3,1.1-0.3,1.6c0,0.7,0.1,1.4,0.3,1.9
				s0.5,1,1,1.2s0.9,0.4,1.5,0.4c0.6,0,1.2-0.2,1.6-0.6S373,462.6,373.2,461.9z"/>
			<path class="st1" d="M375.6,464.9v-8.6h1.1v3.1c0.5-0.6,1.1-0.9,1.9-0.9c0.5,0,0.9,0.1,1.2,0.3s0.6,0.4,0.7,0.8s0.2,0.8,0.2,1.4
				v3.9h-1.1V461c0-0.5-0.1-0.9-0.3-1.2s-0.6-0.4-1-0.4c-0.3,0-0.6,0.1-0.9,0.2s-0.5,0.4-0.6,0.7s-0.2,0.7-0.2,1.1v3.4H375.6z"/>
			<path class="st1" d="M386.3,464.1c-0.4,0.3-0.8,0.6-1.1,0.7s-0.7,0.2-1.2,0.2c-0.7,0-1.2-0.2-1.6-0.5s-0.6-0.8-0.6-1.3
				c0-0.3,0.1-0.6,0.2-0.8s0.3-0.5,0.5-0.6s0.5-0.3,0.8-0.3c0.2-0.1,0.5-0.1,0.9-0.2c0.9-0.1,1.5-0.2,1.9-0.4c0-0.1,0-0.2,0-0.3
				c0-0.4-0.1-0.7-0.3-0.9c-0.3-0.2-0.7-0.4-1.2-0.4c-0.5,0-0.9,0.1-1.1,0.3s-0.4,0.5-0.5,0.9l-1-0.1c0.1-0.4,0.2-0.8,0.5-1.1
				s0.5-0.5,0.9-0.6s0.9-0.2,1.4-0.2c0.5,0,1,0.1,1.3,0.2s0.6,0.3,0.7,0.5s0.3,0.4,0.3,0.7c0,0.2,0.1,0.5,0.1,1v1.4
				c0,1,0,1.6,0.1,1.9s0.1,0.5,0.3,0.7h-1.1C386.4,464.7,386.3,464.4,386.3,464.1z M386.2,461.8c-0.4,0.2-1,0.3-1.7,0.4
				c-0.4,0.1-0.7,0.1-0.9,0.2s-0.3,0.2-0.4,0.3s-0.1,0.3-0.1,0.5c0,0.3,0.1,0.5,0.3,0.7s0.5,0.3,0.9,0.3c0.4,0,0.8-0.1,1.1-0.3
				s0.5-0.4,0.7-0.7c0.1-0.2,0.2-0.6,0.2-1.1V461.8z"/>
			<path class="st1" d="M388.9,464.9v-6.2h0.9v0.9c0.5-0.7,1.1-1,2-1c0.4,0,0.7,0.1,1,0.2s0.5,0.3,0.7,0.5s0.3,0.5,0.3,0.8
				c0,0.2,0.1,0.5,0.1,1v3.8h-1.1v-3.8c0-0.4,0-0.8-0.1-1s-0.2-0.4-0.4-0.5s-0.5-0.2-0.7-0.2c-0.4,0-0.8,0.1-1.2,0.4
				s-0.5,0.8-0.5,1.6v3.4H388.9z"/>
			<path class="st1" d="M395.4,465.4l1,0.2c0,0.3,0.2,0.5,0.4,0.7c0.3,0.2,0.6,0.3,1.1,0.3c0.5,0,0.9-0.1,1.1-0.3s0.4-0.5,0.5-0.8
				c0.1-0.2,0.1-0.7,0.1-1.4c-0.5,0.5-1,0.8-1.7,0.8c-0.9,0-1.5-0.3-2-0.9s-0.7-1.4-0.7-2.2c0-0.6,0.1-1.1,0.3-1.6s0.5-0.9,0.9-1.2
				s0.9-0.4,1.4-0.4c0.7,0,1.3,0.3,1.8,0.9v-0.8h1v5.4c0,1-0.1,1.7-0.3,2.1s-0.5,0.7-0.9,1s-1,0.4-1.6,0.4c-0.7,0-1.3-0.2-1.8-0.5
				S395.4,466.1,395.4,465.4z M396.3,461.7c0,0.8,0.2,1.4,0.5,1.8s0.7,0.6,1.2,0.6c0.5,0,0.9-0.2,1.2-0.6s0.5-1,0.5-1.8
				c0-0.8-0.2-1.3-0.5-1.7s-0.7-0.6-1.2-0.6c-0.5,0-0.9,0.2-1.2,0.6S396.3,460.9,396.3,461.7z"/>
			<path class="st1" d="M406.5,462.9l1.1,0.1c-0.2,0.6-0.5,1.1-1,1.5s-1.1,0.5-1.8,0.5c-0.9,0-1.6-0.3-2.2-0.8s-0.8-1.3-0.8-2.4
				c0-1,0.3-1.9,0.8-2.4s1.2-0.9,2.1-0.9c0.8,0,1.5,0.3,2,0.8s0.8,1.4,0.8,2.4c0,0.1,0,0.2,0,0.3H403c0,0.7,0.2,1.2,0.6,1.6
				s0.8,0.5,1.3,0.5c0.4,0,0.7-0.1,1-0.3S406.4,463.4,406.5,462.9z M403.1,461.2h3.5c0-0.5-0.2-0.9-0.4-1.2
				c-0.3-0.4-0.8-0.6-1.3-0.6c-0.5,0-0.9,0.2-1.2,0.5S403.1,460.7,403.1,461.2z"/>
			<path class="st1" d="M408.5,463.1l1-0.2c0.1,0.4,0.2,0.7,0.5,1s0.6,0.3,1.1,0.3c0.5,0,0.8-0.1,1.1-0.3s0.4-0.4,0.4-0.7
				c0-0.2-0.1-0.4-0.3-0.6c-0.1-0.1-0.5-0.2-1.1-0.4c-0.8-0.2-1.3-0.4-1.6-0.5s-0.5-0.3-0.7-0.6s-0.2-0.5-0.2-0.8
				c0-0.3,0.1-0.5,0.2-0.8s0.3-0.4,0.5-0.6c0.2-0.1,0.4-0.2,0.7-0.3s0.6-0.1,0.9-0.1c0.5,0,0.9,0.1,1.3,0.2s0.6,0.3,0.8,0.6
				s0.3,0.6,0.4,1l-1,0.1c0-0.3-0.2-0.6-0.4-0.8s-0.5-0.3-1-0.3c-0.5,0-0.8,0.1-1,0.2s-0.3,0.3-0.3,0.6c0,0.1,0,0.3,0.1,0.4
				c0.1,0.1,0.2,0.2,0.4,0.3c0.1,0,0.4,0.1,0.9,0.3c0.7,0.2,1.3,0.4,1.6,0.5s0.5,0.3,0.7,0.6s0.3,0.5,0.3,0.9c0,0.4-0.1,0.7-0.3,1
				s-0.5,0.6-0.9,0.7s-0.8,0.3-1.3,0.3c-0.8,0-1.4-0.2-1.8-0.5S408.6,463.7,408.5,463.1z"/>
		</g>
		<g>
			<path class="st1" d="M246,277.4l-2.7-8.8l1-0.8l8.1,4.6l-1,0.8l-2.4-1.4l-2.8,2.2l0.9,2.6L246,277.4z M245.8,273.1l2.3-1.8
				l-2.2-1.3c-0.7-0.4-1.2-0.7-1.6-1c0.3,0.5,0.5,1,0.7,1.6L245.8,273.1z"/>
			<path class="st1" d="M254.7,267.6l0.9-0.5c0.4,0.6,0.5,1.3,0.4,1.9c-0.1,0.6-0.4,1.1-1,1.5c-0.7,0.5-1.4,0.7-2.1,0.6
				c-0.8-0.1-1.4-0.6-2.1-1.4c-0.4-0.5-0.7-1.1-0.8-1.6c-0.1-0.5-0.1-1,0.1-1.5c0.2-0.5,0.5-0.9,0.9-1.2c0.5-0.4,1.1-0.6,1.6-0.6
				c0.5,0,1.1,0.2,1.5,0.6l-0.7,0.8c-0.3-0.3-0.7-0.4-1-0.4c-0.3,0-0.6,0.1-0.9,0.3c-0.4,0.3-0.6,0.7-0.7,1.2c0,0.5,0.2,1.1,0.7,1.7
				c0.5,0.7,1,1,1.5,1.1c0.5,0.1,0.9,0,1.3-0.3c0.3-0.3,0.5-0.6,0.6-0.9C255.1,268.5,255,268.1,254.7,267.6z"/>
			<path class="st1" d="M258.9,266l0.7,0.6c-0.2,0.2-0.4,0.4-0.6,0.6c-0.3,0.2-0.6,0.4-0.8,0.4c-0.2,0-0.5,0-0.6-0.1
				c-0.2-0.1-0.5-0.4-0.9-0.9l-2.2-2.8l-0.6,0.5l-0.5-0.6l0.6-0.5l-1-1.2l0.4-1.1l1.3,1.7l0.8-0.7l0.5,0.6l-0.8,0.7l2.3,2.9
				c0.2,0.2,0.3,0.4,0.4,0.4c0.1,0,0.2,0.1,0.3,0c0.1,0,0.2-0.1,0.3-0.2C258.6,266.3,258.7,266.2,258.9,266z"/>
			<path class="st1" d="M263.5,263.6l-0.6-0.7c0.1,0.9-0.2,1.5-0.9,2.1c-0.3,0.2-0.6,0.4-0.9,0.5c-0.3,0.1-0.6,0.1-0.9,0
				c-0.3-0.1-0.5-0.2-0.7-0.4c-0.2-0.1-0.4-0.4-0.7-0.7l-2.4-3l0.8-0.7l2.1,2.7c0.3,0.4,0.6,0.7,0.7,0.8c0.2,0.2,0.5,0.3,0.7,0.3
				c0.3,0,0.5-0.1,0.8-0.3c0.2-0.2,0.4-0.4,0.5-0.7c0.1-0.3,0.1-0.6,0.1-0.9c-0.1-0.3-0.3-0.6-0.6-1.1l-2.1-2.6l0.8-0.7l3.9,4.9
				L263.5,263.6z"/>
			<path class="st1" d="M268.2,258.9c-0.1,0.5-0.3,0.9-0.5,1.3c-0.2,0.3-0.5,0.6-0.8,0.9c-0.5,0.4-1.1,0.6-1.5,0.6
				c-0.5,0-0.9-0.3-1.2-0.7c-0.2-0.2-0.3-0.5-0.4-0.8c0-0.3,0-0.6,0.1-0.8c0.1-0.3,0.2-0.5,0.4-0.7c0.1-0.2,0.3-0.4,0.6-0.7
				c0.6-0.6,1-1.1,1.3-1.4c-0.1-0.1-0.1-0.2-0.2-0.2c-0.3-0.3-0.5-0.5-0.8-0.5c-0.4,0-0.7,0.1-1.2,0.5c-0.4,0.3-0.6,0.6-0.7,0.9
				c-0.1,0.3,0,0.6,0.2,1l-0.9,0.5c-0.2-0.4-0.3-0.8-0.3-1.1c0-0.3,0.1-0.7,0.3-1.1c0.2-0.4,0.6-0.7,1-1c0.4-0.3,0.8-0.5,1.1-0.7
				c0.3-0.1,0.6-0.1,0.9-0.1c0.2,0.1,0.5,0.2,0.7,0.4c0.1,0.1,0.4,0.4,0.6,0.7l0.9,1.1c0.6,0.8,1,1.2,1.2,1.4
				c0.2,0.2,0.4,0.3,0.7,0.4l-0.9,0.7C268.7,259.2,268.4,259.1,268.2,258.9z M266.7,257.1c-0.2,0.4-0.6,0.8-1.1,1.4
				c-0.3,0.3-0.5,0.6-0.6,0.7c-0.1,0.2-0.1,0.3-0.1,0.5c0,0.2,0.1,0.3,0.2,0.5c0.2,0.2,0.4,0.3,0.7,0.4c0.3,0,0.6-0.1,0.9-0.4
				c0.3-0.3,0.5-0.5,0.7-0.9c0.1-0.3,0.2-0.7,0.1-1c-0.1-0.3-0.2-0.6-0.5-0.9L266.7,257.1z"/>
			<path class="st1" d="M270.7,257.9l-5.3-6.7l0.8-0.7l5.3,6.7L270.7,257.9z"/>
			<path class="st1" d="M275.6,254.1l-5.3-6.7l2.3-1.8c0.5-0.4,1-0.7,1.3-0.9c0.5-0.2,0.9-0.3,1.4-0.3c0.6,0,1.2,0.2,1.7,0.5
				c0.5,0.3,1.1,0.8,1.5,1.4c0.4,0.5,0.7,1,0.9,1.5c0.2,0.5,0.3,0.9,0.3,1.3c0,0.4,0,0.8-0.1,1.1c-0.1,0.3-0.3,0.6-0.5,1
				c-0.3,0.3-0.6,0.6-1,1L275.6,254.1z M275.8,252.6l1.4-1.1c0.4-0.4,0.8-0.7,0.9-0.9s0.3-0.6,0.3-0.8c0-0.4,0-0.8-0.2-1.2
				c-0.2-0.5-0.4-0.9-0.8-1.4c-0.6-0.7-1.1-1.2-1.6-1.4c-0.5-0.2-1-0.2-1.4-0.1c-0.3,0.1-0.7,0.4-1.3,0.8l-1.4,1.1L275.8,252.6z"/>
			<path class="st1" d="M285,245.7c-0.1,0.5-0.3,0.9-0.5,1.3c-0.2,0.3-0.5,0.6-0.8,0.9c-0.5,0.4-1.1,0.6-1.5,0.6
				c-0.5,0-0.9-0.3-1.2-0.7c-0.2-0.2-0.3-0.5-0.4-0.8c0-0.3,0-0.6,0.1-0.8c0.1-0.3,0.2-0.5,0.4-0.7c0.1-0.2,0.3-0.4,0.6-0.7
				c0.6-0.6,1-1.1,1.3-1.4c-0.1-0.1-0.1-0.2-0.2-0.2c-0.3-0.3-0.5-0.5-0.8-0.5c-0.4,0-0.7,0.1-1.2,0.5c-0.4,0.3-0.6,0.6-0.7,0.9
				c-0.1,0.3,0,0.6,0.2,1l-0.9,0.5c-0.2-0.4-0.3-0.8-0.3-1.1c0-0.3,0.1-0.7,0.3-1.1c0.2-0.4,0.6-0.7,1-1c0.4-0.3,0.8-0.5,1.1-0.7
				c0.3-0.1,0.6-0.1,0.9-0.1c0.2,0.1,0.5,0.2,0.7,0.4c0.1,0.1,0.4,0.4,0.6,0.7l0.9,1.1c0.6,0.8,1,1.2,1.2,1.4
				c0.2,0.2,0.4,0.3,0.7,0.4l-0.9,0.7C285.4,246,285.2,245.9,285,245.7z M283.5,243.9c-0.2,0.4-0.6,0.8-1.1,1.4
				c-0.3,0.3-0.5,0.6-0.6,0.7c-0.1,0.2-0.1,0.3-0.1,0.5c0,0.2,0.1,0.3,0.2,0.5c0.2,0.2,0.4,0.3,0.7,0.4c0.3,0,0.6-0.1,0.9-0.4
				c0.3-0.3,0.5-0.5,0.7-0.9c0.1-0.3,0.2-0.7,0.1-1c-0.1-0.3-0.2-0.6-0.5-0.9L283.5,243.9z"/>
			<path class="st1" d="M288.7,242.5l0.7,0.6c-0.2,0.2-0.4,0.4-0.6,0.6c-0.3,0.2-0.6,0.4-0.8,0.4c-0.2,0-0.5,0-0.6-0.1
				c-0.2-0.1-0.5-0.4-0.9-0.9l-2.2-2.8l-0.6,0.5l-0.5-0.6l0.6-0.5l-1-1.2l0.4-1.1l1.3,1.7l0.8-0.7l0.5,0.6l-0.8,0.7l2.3,2.9
				c0.2,0.2,0.3,0.4,0.4,0.4c0.1,0,0.2,0.1,0.3,0c0.1,0,0.2-0.1,0.3-0.2C288.5,242.7,288.6,242.6,288.7,242.5z"/>
			<path class="st1" d="M292.9,239.5c-0.1,0.5-0.3,0.9-0.5,1.3c-0.2,0.3-0.5,0.6-0.8,0.9c-0.5,0.4-1.1,0.6-1.5,0.6
				c-0.5,0-0.9-0.3-1.2-0.7c-0.2-0.2-0.3-0.5-0.4-0.8c0-0.3,0-0.6,0.1-0.8c0.1-0.3,0.2-0.5,0.4-0.7c0.1-0.2,0.3-0.4,0.6-0.7
				c0.6-0.6,1-1.1,1.3-1.4c-0.1-0.1-0.1-0.2-0.2-0.2c-0.3-0.3-0.5-0.5-0.8-0.5c-0.4,0-0.7,0.1-1.2,0.5c-0.4,0.3-0.6,0.6-0.7,0.9
				c-0.1,0.3,0,0.6,0.2,1l-0.9,0.5c-0.2-0.4-0.3-0.8-0.3-1.1c0-0.3,0.1-0.7,0.3-1.1c0.2-0.4,0.6-0.7,1-1c0.4-0.3,0.8-0.5,1.1-0.7
				c0.3-0.1,0.6-0.1,0.9-0.1c0.2,0.1,0.5,0.2,0.7,0.4c0.1,0.1,0.4,0.4,0.6,0.7l0.9,1.1c0.6,0.8,1,1.2,1.2,1.4
				c0.2,0.2,0.4,0.3,0.7,0.4l-0.9,0.7C293.3,239.8,293.1,239.7,292.9,239.5z M291.3,237.7c-0.2,0.4-0.6,0.8-1.1,1.4
				c-0.3,0.3-0.5,0.6-0.6,0.7s-0.1,0.3-0.1,0.5c0,0.2,0.1,0.3,0.2,0.5c0.2,0.2,0.4,0.3,0.7,0.4c0.3,0,0.6-0.1,0.9-0.4
				c0.3-0.3,0.5-0.5,0.7-0.9c0.1-0.3,0.2-0.7,0.1-1c-0.1-0.3-0.2-0.6-0.5-0.9L291.3,237.7z"/>
		</g>
		<g>
			<path class="st1" d="M259.9,195l1,0.5c-0.2,0.4-0.3,0.8-0.3,1.1c0,0.3,0.1,0.7,0.4,1s0.6,0.7,1,0.9c0.4,0.2,0.7,0.4,1.1,0.4
				c0.4,0.1,0.7,0,0.9-0.1c0.3-0.1,0.5-0.3,0.6-0.5c0.1-0.2,0.2-0.5,0.2-0.7s-0.2-0.5-0.4-0.8c-0.1-0.2-0.5-0.6-1.1-1.2
				c-0.6-0.6-0.9-1-1.1-1.3c-0.2-0.4-0.4-0.8-0.4-1.2c0-0.4,0.1-0.7,0.3-1.1c0.2-0.4,0.5-0.6,1-0.8s0.9-0.2,1.4-0.2s1,0.3,1.5,0.6
				c0.5,0.3,1,0.7,1.3,1.2c0.3,0.4,0.5,0.9,0.5,1.4c0,0.5-0.1,0.9-0.4,1.4l-1-0.5c0.2-0.5,0.3-0.9,0.1-1.4s-0.5-0.8-1.1-1.1
				c-0.6-0.4-1.1-0.5-1.5-0.5c-0.4,0-0.7,0.2-0.9,0.5c-0.2,0.3-0.2,0.5-0.1,0.8c0.1,0.3,0.5,0.8,1.1,1.4s1.1,1.2,1.3,1.5
				c0.3,0.5,0.5,0.9,0.5,1.3c0,0.4-0.1,0.8-0.3,1.2c-0.2,0.4-0.6,0.7-1,0.9s-0.9,0.3-1.5,0.2c-0.5-0.1-1.1-0.3-1.6-0.6
				c-0.7-0.4-1.2-0.9-1.5-1.3c-0.3-0.5-0.5-1-0.5-1.5C259.4,196,259.6,195.5,259.9,195z"/>
			<path class="st1" d="M270.1,201.9l0.8,0.7c-0.5,0.5-1,0.9-1.6,1c-0.6,0.1-1.2,0-1.8-0.4c-0.7-0.5-1.2-1-1.3-1.8
				c-0.1-0.7,0.1-1.6,0.6-2.4c0.4-0.6,0.8-1,1.2-1.3c0.5-0.3,0.9-0.5,1.5-0.4c0.5,0,1,0.2,1.5,0.5c0.6,0.4,1,0.8,1.1,1.3
				c0.2,0.5,0.2,1.1-0.1,1.7l-1-0.4c0.1-0.4,0.2-0.8,0.1-1.1c-0.1-0.3-0.3-0.6-0.6-0.7c-0.5-0.3-0.9-0.3-1.4-0.2
				c-0.5,0.1-0.9,0.6-1.4,1.3c-0.4,0.7-0.6,1.3-0.6,1.8c0.1,0.5,0.3,0.9,0.8,1.1c0.4,0.2,0.7,0.3,1.1,0.2
				C269.4,202.6,269.7,202.3,270.1,201.9z"/>
			<path class="st1" d="M270.5,204.9l4.5-7.3l0.9,0.6l-1.6,2.6c0.7-0.2,1.4-0.1,2,0.3c0.4,0.2,0.7,0.5,0.9,0.9
				c0.2,0.3,0.3,0.7,0.2,1c0,0.3-0.2,0.8-0.6,1.3l-2.1,3.3l-0.9-0.6l2.1-3.3c0.3-0.4,0.4-0.8,0.3-1.2c-0.1-0.3-0.3-0.6-0.6-0.8
				c-0.3-0.2-0.6-0.3-0.9-0.3s-0.6,0.1-0.8,0.2c-0.2,0.2-0.5,0.5-0.8,0.9l-1.8,2.9L270.5,204.9z"/>
			<path class="st1" d="M280.9,209l0.9,0.7c-0.5,0.4-1,0.7-1.6,0.8c-0.6,0.1-1.2-0.1-1.8-0.5c-0.8-0.5-1.2-1.1-1.4-1.9
				s0-1.6,0.6-2.4c0.6-0.9,1.2-1.4,2-1.6c0.8-0.2,1.5-0.1,2.2,0.4c0.7,0.4,1.1,1,1.3,1.8c0.1,0.8-0.1,1.6-0.6,2.4
				c0,0.1-0.1,0.1-0.2,0.2l-3.9-2.5c-0.3,0.6-0.4,1.1-0.3,1.6c0.1,0.5,0.4,0.9,0.8,1.2c0.3,0.2,0.7,0.3,1,0.3S280.5,209.3,280.9,209
				z M278.8,205.7l2.9,1.8c0.2-0.5,0.3-0.9,0.3-1.2c-0.1-0.5-0.3-0.9-0.8-1.2c-0.4-0.3-0.8-0.3-1.3-0.2
				C279.5,205,279.1,205.3,278.8,205.7z"/>
			<path class="st1" d="M285.3,214.1l0.4-0.7c-0.7,0.3-1.3,0.3-2-0.1c-0.4-0.3-0.7-0.6-0.9-1.1c-0.2-0.5-0.3-0.9-0.2-1.5
				c0.1-0.5,0.3-1.1,0.6-1.6c0.3-0.5,0.7-1,1.2-1.3c0.4-0.3,0.9-0.5,1.4-0.5c0.5,0,1,0.1,1.4,0.4c0.3,0.2,0.6,0.4,0.7,0.7
				c0.2,0.3,0.3,0.6,0.3,0.9l1.6-2.6l0.9,0.6l-4.5,7.3L285.3,214.1z M284.1,209.7c-0.4,0.7-0.6,1.3-0.5,1.8s0.3,0.9,0.7,1.1
				c0.4,0.2,0.8,0.3,1.3,0.1c0.5-0.1,0.9-0.6,1.3-1.2c0.5-0.7,0.6-1.3,0.6-1.9c-0.1-0.5-0.3-0.9-0.7-1.1c-0.4-0.2-0.8-0.3-1.3-0.1
				C285,208.6,284.5,209,284.1,209.7z"/>
			<path class="st1" d="M291,217.6l0.5-0.8c-0.8,0.3-1.5,0.3-2.2-0.2c-0.3-0.2-0.6-0.4-0.8-0.7c-0.2-0.3-0.3-0.6-0.3-0.8
				c0-0.3,0-0.5,0.1-0.8c0.1-0.2,0.2-0.5,0.5-0.9l2-3.3l0.9,0.6l-1.8,2.9c-0.3,0.5-0.5,0.8-0.5,1c-0.1,0.3-0.1,0.5,0,0.8
				s0.3,0.5,0.6,0.6c0.3,0.2,0.6,0.3,0.9,0.3c0.3,0,0.6-0.1,0.9-0.3c0.2-0.2,0.5-0.5,0.8-0.9l1.8-2.8l0.9,0.6l-3.3,5.3L291,217.6z"
				/>
			<path class="st1" d="M293.1,219l4.5-7.3l0.9,0.6l-4.5,7.3L293.1,219z"/>
			<path class="st1" d="M300.1,221l0.9,0.7c-0.5,0.5-1,0.7-1.6,0.8c-0.6,0.1-1.2-0.1-1.8-0.5c-0.8-0.5-1.2-1.1-1.4-1.9
				c-0.2-0.8,0-1.6,0.6-2.4c0.6-0.9,1.2-1.4,2-1.6c0.8-0.2,1.5-0.1,2.2,0.4c0.7,0.4,1.1,1,1.3,1.8c0.1,0.8-0.1,1.6-0.6,2.4
				c0,0.1-0.1,0.1-0.2,0.2l-3.9-2.5c-0.3,0.6-0.4,1.1-0.3,1.6c0.1,0.5,0.4,0.9,0.8,1.2c0.3,0.2,0.7,0.3,1,0.3
				C299.4,221.4,299.7,221.3,300.1,221z M298.1,217.7l2.9,1.8c0.2-0.5,0.3-0.9,0.3-1.2c-0.1-0.5-0.3-0.9-0.8-1.2
				c-0.4-0.3-0.8-0.3-1.3-0.2C298.8,217,298.4,217.3,298.1,217.7z"/>
			<path class="st1" d="M308.6,227.5c-0.5,0.1-1,0.2-1.4,0.1s-0.9-0.2-1.3-0.5c-0.7-0.5-1.2-1.1-1.3-1.9c-0.1-0.6,0-1.2,0.3-1.7
				c0.3-0.5,0.7-0.8,1.2-0.9s1.1-0.2,1.9-0.1c-0.1-0.6-0.1-1-0.1-1.3c0-0.3,0.1-0.6,0.3-0.8c0.3-0.4,0.7-0.7,1.2-0.8
				c0.5-0.1,1.1,0,1.6,0.3c0.5,0.3,0.8,0.7,0.9,1.2s0.1,1-0.2,1.4c-0.4,0.7-1.3,1-2.5,0.9l0.3,2.5c0.3-0.2,0.7-0.5,1-0.8l0.8,0.8
				c-0.6,0.5-1.1,0.9-1.6,1.2c0.1,0.7,0.2,1.3,0.4,1.8l-1,0.3C308.9,228.7,308.7,228.1,308.6,227.5z M308.5,226.4l-0.4-3.1
				c-0.7,0-1.2,0.1-1.5,0.2c-0.3,0.1-0.6,0.3-0.7,0.6c-0.2,0.3-0.3,0.7-0.2,1.1s0.3,0.8,0.7,1.1c0.3,0.2,0.6,0.3,1,0.3
				C307.8,226.6,308.2,226.6,308.5,226.4z M309.2,222.5c0.5,0,0.9,0,1.1-0.1c0.2-0.1,0.4-0.3,0.5-0.5c0.2-0.2,0.2-0.5,0.1-0.8
				c-0.1-0.3-0.2-0.5-0.4-0.6c-0.2-0.2-0.5-0.2-0.8-0.1s-0.5,0.2-0.6,0.4c-0.1,0.1-0.1,0.2-0.1,0.4c0,0.2,0,0.3,0,0.6L309.2,222.5z"
				/>
		</g>
		<g>
			<path class="st1" d="M320.5,233.3l1,0.5c-0.2,0.4-0.3,0.8-0.3,1.1s0.1,0.7,0.4,1c0.2,0.4,0.6,0.7,1,0.9c0.4,0.2,0.7,0.4,1.1,0.4
				c0.4,0.1,0.7,0,0.9-0.1c0.3-0.1,0.5-0.3,0.6-0.5c0.1-0.2,0.2-0.5,0.2-0.7c0-0.3-0.2-0.5-0.4-0.8c-0.1-0.2-0.5-0.6-1.1-1.2
				c-0.6-0.6-0.9-1-1.1-1.3c-0.2-0.4-0.4-0.8-0.4-1.2c0-0.4,0.1-0.7,0.3-1.1c0.2-0.4,0.5-0.6,1-0.8c0.4-0.2,0.9-0.2,1.4-0.2
				c0.5,0.1,1,0.3,1.5,0.6c0.5,0.3,1,0.7,1.3,1.2c0.3,0.4,0.5,0.9,0.5,1.4c0,0.5-0.1,0.9-0.4,1.4l-1-0.5c0.2-0.5,0.3-0.9,0.1-1.4
				c-0.1-0.4-0.5-0.8-1.1-1.1c-0.6-0.4-1.1-0.5-1.5-0.5c-0.4,0-0.7,0.2-0.9,0.5c-0.2,0.3-0.2,0.5-0.1,0.8c0.1,0.3,0.5,0.8,1.1,1.4
				c0.7,0.7,1.1,1.2,1.3,1.5c0.3,0.5,0.5,0.9,0.5,1.3c0,0.4-0.1,0.8-0.3,1.2c-0.2,0.4-0.6,0.7-1,0.9c-0.4,0.2-0.9,0.3-1.5,0.2
				c-0.5-0.1-1.1-0.3-1.6-0.6c-0.7-0.4-1.2-0.9-1.5-1.3s-0.5-1-0.5-1.5C320.1,234.3,320.2,233.8,320.5,233.3z"/>
			<path class="st1" d="M330.7,240.2l0.8,0.7c-0.5,0.5-1,0.9-1.6,1c-0.6,0.1-1.2,0-1.8-0.4c-0.7-0.5-1.2-1-1.3-1.8
				c-0.1-0.7,0.1-1.6,0.6-2.4c0.4-0.6,0.8-1,1.2-1.3c0.5-0.3,0.9-0.5,1.5-0.4s1,0.2,1.5,0.5c0.6,0.4,1,0.8,1.1,1.3
				c0.2,0.5,0.2,1.1-0.1,1.7l-1-0.4c0.1-0.4,0.2-0.8,0.1-1.1c-0.1-0.3-0.3-0.6-0.6-0.7c-0.5-0.3-0.9-0.3-1.4-0.2
				c-0.5,0.1-0.9,0.6-1.4,1.3c-0.4,0.7-0.6,1.3-0.6,1.8c0.1,0.5,0.3,0.9,0.8,1.1c0.4,0.2,0.7,0.3,1.1,0.2
				C330,240.8,330.4,240.6,330.7,240.2z"/>
			<path class="st1" d="M331.2,243.1l3.3-5.3l0.8,0.5l-0.5,0.8c0.4-0.2,0.8-0.4,1-0.4s0.5,0,0.7,0.2c0.3,0.2,0.5,0.5,0.7,0.9
				l-0.8,0.6c-0.1-0.3-0.3-0.5-0.5-0.6c-0.2-0.1-0.4-0.2-0.6-0.2s-0.4,0.1-0.6,0.3c-0.3,0.3-0.6,0.6-0.8,1l-1.7,2.8L331.2,243.1z"/>
			<path class="st1" d="M339.2,245.8l0.9,0.7c-0.5,0.4-1,0.7-1.6,0.8c-0.6,0.1-1.2-0.1-1.8-0.5c-0.8-0.5-1.2-1.1-1.4-1.9
				c-0.2-0.8,0-1.6,0.6-2.4c0.6-0.9,1.2-1.4,2-1.6c0.8-0.2,1.5-0.1,2.2,0.4c0.7,0.4,1.1,1,1.3,1.8c0.1,0.8,0,1.6-0.6,2.4
				c0,0.1-0.1,0.1-0.2,0.2l-3.9-2.5c-0.3,0.6-0.4,1.1-0.3,1.6s0.4,0.9,0.8,1.2c0.3,0.2,0.7,0.3,1,0.3
				C338.5,246.3,338.9,246.1,339.2,245.8z M337.2,242.5l2.9,1.8c0.2-0.5,0.3-0.9,0.3-1.2c-0.1-0.5-0.3-0.9-0.8-1.2
				c-0.4-0.3-0.8-0.3-1.3-0.2S337.5,242.1,337.2,242.5z"/>
			<path class="st1" d="M344.9,249.3l0.9,0.7c-0.5,0.4-1,0.7-1.6,0.8c-0.6,0.1-1.2-0.1-1.8-0.5c-0.8-0.5-1.2-1.1-1.4-1.9
				s0-1.6,0.6-2.4c0.6-0.9,1.2-1.4,2-1.6c0.8-0.2,1.5-0.1,2.2,0.4c0.7,0.4,1.1,1,1.3,1.8c0.1,0.8,0,1.6-0.6,2.4
				c0,0.1-0.1,0.1-0.2,0.2l-3.9-2.5c-0.3,0.6-0.4,1.1-0.3,1.6c0.1,0.5,0.4,0.9,0.8,1.2c0.3,0.2,0.7,0.3,1,0.3
				S344.5,249.6,344.9,249.3z M342.9,246.1l2.9,1.8c0.2-0.5,0.3-0.9,0.3-1.2c-0.1-0.5-0.3-0.9-0.8-1.2c-0.4-0.3-0.8-0.3-1.3-0.2
				C343.6,245.4,343.2,245.6,342.9,246.1z"/>
			<path class="st1" d="M345.9,252.3l3.3-5.3l0.8,0.5l-0.5,0.8c0.7-0.3,1.5-0.3,2.2,0.2c0.3,0.2,0.6,0.4,0.8,0.7
				c0.2,0.3,0.3,0.6,0.3,0.8c0,0.3,0,0.5-0.1,0.8c-0.1,0.2-0.2,0.5-0.5,0.9l-2,3.2l-0.9-0.6l2-3.2c0.2-0.4,0.4-0.7,0.4-0.9
				c0-0.2,0-0.4-0.1-0.7c-0.1-0.2-0.3-0.4-0.5-0.6c-0.4-0.2-0.8-0.3-1.2-0.3c-0.4,0.1-0.9,0.4-1.3,1.1l-1.8,2.9L345.9,252.3z"/>
			<path class="st1" d="M354.5,257.7l4.5-7.3l2.5,1.6c0.6,0.4,1,0.7,1.2,0.9c0.4,0.4,0.6,0.8,0.7,1.2c0.2,0.6,0.2,1.2,0.1,1.8
				c-0.1,0.6-0.4,1.3-0.8,1.9c-0.3,0.6-0.7,1-1.1,1.4c-0.4,0.3-0.8,0.6-1.2,0.8c-0.4,0.2-0.7,0.2-1.1,0.2c-0.3,0-0.7,0-1.1-0.2
				c-0.4-0.1-0.8-0.3-1.2-0.6L354.5,257.7z M356,257.4l1.6,1c0.5,0.3,0.9,0.5,1.2,0.6c0.3,0.1,0.6,0.1,0.9,0
				c0.4-0.1,0.7-0.3,1.1-0.6s0.7-0.7,1.1-1.3c0.5-0.8,0.7-1.4,0.7-2s-0.1-1-0.4-1.4c-0.2-0.3-0.6-0.6-1.2-0.9l-1.5-1L356,257.4z"/>
			<path class="st1" d="M366.4,262.8l0.9,0.7c-0.5,0.5-1,0.7-1.6,0.8c-0.6,0.1-1.2-0.1-1.8-0.5c-0.8-0.5-1.2-1.1-1.4-1.9
				c-0.2-0.8,0-1.6,0.6-2.4c0.6-0.9,1.2-1.4,2-1.6c0.8-0.2,1.5-0.1,2.2,0.4c0.7,0.4,1.1,1,1.3,1.8c0.1,0.8,0,1.6-0.6,2.4
				c0,0.1-0.1,0.1-0.2,0.2l-3.9-2.5c-0.3,0.6-0.4,1.1-0.3,1.6c0.1,0.5,0.4,0.9,0.8,1.2c0.3,0.2,0.7,0.3,1,0.3
				C365.7,263.2,366,263.1,366.4,262.8z M364.4,259.5l2.9,1.8c0.2-0.5,0.3-0.9,0.3-1.2c-0.1-0.5-0.3-0.9-0.8-1.2
				c-0.4-0.3-0.8-0.3-1.3-0.2C365.1,258.8,364.7,259,364.4,259.5z"/>
			<path class="st1" d="M368,263.9l1,0.4c-0.2,0.4-0.2,0.7-0.1,1.1s0.4,0.6,0.8,0.9c0.4,0.3,0.8,0.4,1.1,0.3c0.3,0,0.5-0.2,0.7-0.4
				c0.1-0.2,0.1-0.4,0-0.6c-0.1-0.2-0.3-0.4-0.7-0.9c-0.6-0.6-0.9-1-1.1-1.3c-0.2-0.3-0.3-0.6-0.3-0.9c0-0.3,0.1-0.6,0.2-0.8
				c0.1-0.2,0.3-0.4,0.6-0.6c0.2-0.1,0.5-0.2,0.8-0.2c0.2,0,0.4,0,0.7,0.1c0.3,0.1,0.6,0.2,0.8,0.4c0.4,0.3,0.7,0.5,1,0.9
				c0.2,0.3,0.4,0.6,0.4,0.9c0,0.3,0,0.6-0.2,1l-1-0.4c0.1-0.3,0.1-0.6,0.1-0.9c-0.1-0.3-0.3-0.5-0.7-0.7c-0.4-0.3-0.7-0.4-1-0.3
				c-0.3,0-0.4,0.1-0.6,0.3c-0.1,0.1-0.1,0.2-0.1,0.4c0,0.1,0.1,0.3,0.2,0.5c0.1,0.1,0.3,0.3,0.6,0.7c0.5,0.6,0.9,1,1.1,1.2
				c0.2,0.3,0.3,0.5,0.3,0.8c0,0.3-0.1,0.6-0.3,0.9c-0.2,0.3-0.4,0.5-0.8,0.7c-0.3,0.2-0.7,0.2-1.1,0.1s-0.8-0.2-1.2-0.5
				c-0.7-0.4-1.1-0.9-1.3-1.4C367.7,265.1,367.8,264.6,368,263.9z"/>
			<path class="st1" d="M372.5,268.9l3.3-5.3l0.9,0.6l-3.3,5.3L372.5,268.9z M376.4,262.7l0.6-1l0.9,0.6l-0.6,1L376.4,262.7z"/>
			<path class="st1" d="M374.3,270.7l0.8,0.7c-0.1,0.3-0.2,0.6-0.1,0.8c0.1,0.3,0.4,0.6,0.8,0.8c0.4,0.3,0.8,0.4,1.1,0.4
				c0.3,0,0.6-0.2,0.9-0.4c0.2-0.2,0.4-0.5,0.8-1.1c-0.7,0.2-1.3,0.1-1.9-0.2c-0.7-0.5-1.1-1.1-1.2-1.8c-0.1-0.8,0.1-1.5,0.6-2.3
				c0.3-0.5,0.7-0.9,1.1-1.2c0.4-0.3,0.9-0.5,1.4-0.5c0.5,0,1,0.1,1.4,0.4c0.6,0.4,1,1,1.1,1.7l0.4-0.6l0.8,0.5l-2.8,4.6
				c-0.5,0.8-1,1.4-1.3,1.6c-0.4,0.2-0.8,0.3-1.3,0.3s-1-0.2-1.5-0.5c-0.6-0.4-1.1-0.9-1.3-1.4S373.9,271.2,374.3,270.7z M377,267.9
				c-0.4,0.7-0.6,1.3-0.5,1.8c0.1,0.5,0.3,0.9,0.7,1.1c0.4,0.3,0.9,0.3,1.3,0.2c0.5-0.1,0.9-0.6,1.3-1.2c0.4-0.6,0.6-1.2,0.5-1.7
				s-0.3-0.9-0.7-1.1c-0.4-0.2-0.8-0.3-1.3-0.1C377.9,266.9,377.4,267.3,377,267.9z"/>
			<path class="st1" d="M380.4,273.9l3.3-5.3l0.8,0.5l-0.5,0.8c0.7-0.3,1.5-0.3,2.2,0.2c0.3,0.2,0.6,0.4,0.8,0.7
				c0.2,0.3,0.3,0.6,0.3,0.8s0,0.5-0.1,0.8c-0.1,0.2-0.2,0.5-0.5,0.9l-2,3.2l-0.9-0.6l2-3.2c0.2-0.4,0.4-0.7,0.4-0.9
				c0-0.2,0-0.4-0.1-0.7c-0.1-0.2-0.3-0.4-0.5-0.6c-0.4-0.2-0.8-0.3-1.2-0.3s-0.9,0.4-1.3,1.1l-1.8,2.9L380.4,273.9z"/>
		</g>
		<g>
			<path class="st1" d="M144,351.8c0.7-0.1,1.6-0.2,2.6-0.2c1.8,0,3,0.4,3.8,1.2c0.8,0.8,1.3,1.9,1.3,3.4c0,1.5-0.5,2.8-1.4,3.7
				c-0.9,0.9-2.3,1.4-4.2,1.4c-0.9,0-1.6,0-2.2-0.1V351.8z M145.2,360.1c0.3,0.1,0.8,0.1,1.2,0.1c2.6,0,4-1.5,4-4
				c0-2.2-1.2-3.6-3.8-3.6c-0.6,0-1.1,0.1-1.4,0.1V360.1z"/>
			<path class="st1" d="M154.6,352.4c0,0.4-0.3,0.8-0.8,0.8c-0.4,0-0.7-0.3-0.7-0.8c0-0.4,0.3-0.8,0.8-0.8
				C154.3,351.6,154.6,352,154.6,352.4z M153.3,361.1v-6.8h1.2v6.8H153.3z"/>
			<path class="st1" d="M156.4,359.8c0.4,0.2,1,0.5,1.6,0.5c0.9,0,1.3-0.4,1.3-1c0-0.6-0.4-0.9-1.3-1.2c-1.2-0.4-1.8-1.1-1.8-1.9
				c0-1.1,0.9-2,2.3-2c0.7,0,1.3,0.2,1.7,0.4l-0.3,0.9c-0.3-0.2-0.8-0.4-1.4-0.4c-0.7,0-1.1,0.4-1.1,0.9c0,0.6,0.4,0.8,1.3,1.1
				c1.2,0.4,1.8,1,1.8,2c0,1.2-0.9,2-2.5,2c-0.7,0-1.4-0.2-1.9-0.5L156.4,359.8z"/>
			<path class="st1" d="M162.1,356.5c0-0.9,0-1.6-0.1-2.2h1.1l0.1,1.2h0c0.5-0.8,1.3-1.3,2.4-1.3c1.6,0,2.9,1.4,2.9,3.4
				c0,2.4-1.5,3.6-3.1,3.6c-0.9,0-1.7-0.4-2.1-1.1h0v3.7h-1.2V356.5z M163.3,358.3c0,0.2,0,0.3,0.1,0.5c0.2,0.9,1,1.4,1.8,1.4
				c1.3,0,2.1-1.1,2.1-2.6c0-1.4-0.7-2.5-2-2.5c-0.8,0-1.6,0.6-1.9,1.5c0,0.2-0.1,0.3-0.1,0.5V358.3z"/>
			<path class="st1" d="M170.1,351.2h1.2v9.9h-1.2V351.2z"/>
			<path class="st1" d="M177.1,361.1l-0.1-0.9h0c-0.4,0.5-1.1,1-2.1,1c-1.4,0-2.1-1-2.1-1.9c0-1.6,1.5-2.5,4.1-2.5v-0.1
				c0-0.6-0.2-1.6-1.5-1.6c-0.6,0-1.3,0.2-1.8,0.5l-0.3-0.8c0.6-0.4,1.4-0.6,2.2-0.6c2.1,0,2.6,1.4,2.6,2.8v2.5c0,0.6,0,1.2,0.1,1.6
				H177.1z M176.9,357.6c-1.3,0-2.9,0.2-2.9,1.5c0,0.8,0.5,1.2,1.2,1.2c0.9,0,1.4-0.6,1.6-1.1c0-0.1,0.1-0.3,0.1-0.4V357.6z"/>
			<path class="st1" d="M180.4,354.3l1.5,4c0.2,0.4,0.3,1,0.4,1.4h0c0.1-0.4,0.3-0.9,0.4-1.4l1.3-4h1.3l-1.8,4.8
				c-0.9,2.3-1.5,3.5-2.3,4.2c-0.6,0.5-1.2,0.7-1.5,0.8l-0.3-1c0.3-0.1,0.7-0.3,1.1-0.6c0.3-0.3,0.8-0.7,1-1.4
				c0.1-0.1,0.1-0.2,0.1-0.3s0-0.2-0.1-0.3l-2.5-6.2H180.4z"/>
			<path class="st1" d="M189.4,359.6c0.5,0.3,1.3,0.6,2.2,0.6c1.2,0,2-0.7,2-1.6c0-0.9-0.5-1.4-1.8-1.9c-1.5-0.5-2.5-1.3-2.5-2.7
				c0-1.5,1.2-2.6,3.1-2.6c1,0,1.7,0.2,2.1,0.5l-0.3,1c-0.3-0.2-0.9-0.4-1.8-0.4c-1.3,0-1.8,0.8-1.8,1.4c0,0.9,0.6,1.3,1.9,1.8
				c1.6,0.6,2.4,1.4,2.4,2.8c0,1.5-1.1,2.7-3.3,2.7c-0.9,0-1.9-0.3-2.4-0.6L189.4,359.6z"/>
			<path class="st1" d="M201.4,360.8c-0.3,0.2-1,0.4-1.9,0.4c-2,0-3.4-1.4-3.4-3.5c0-2.1,1.4-3.6,3.6-3.6c0.7,0,1.4,0.2,1.7,0.4
				l-0.3,1c-0.3-0.2-0.8-0.3-1.4-0.3c-1.6,0-2.4,1.1-2.4,2.6c0,1.6,1,2.5,2.4,2.5c0.7,0,1.2-0.2,1.5-0.3L201.4,360.8z"/>
			<path class="st1" d="M202.8,356.4c0-0.8,0-1.5-0.1-2.1h1.1l0,1.3h0.1c0.3-0.9,1.1-1.5,1.9-1.5c0.1,0,0.2,0,0.4,0v1.2
				c-0.1,0-0.3,0-0.4,0c-0.9,0-1.5,0.7-1.7,1.6c0,0.2-0.1,0.4-0.1,0.6v3.6h-1.2V356.4z"/>
			<path class="st1" d="M207.9,357.9c0,1.7,1.1,2.4,2.3,2.4c0.9,0,1.4-0.2,1.9-0.3l0.2,0.9c-0.4,0.2-1.2,0.4-2.3,0.4
				c-2.1,0-3.3-1.4-3.3-3.4s1.2-3.7,3.2-3.7c2.2,0,2.8,1.9,2.8,3.2c0,0.3,0,0.4,0,0.6H207.9z M211.5,357c0-0.8-0.3-2-1.7-2
				c-1.2,0-1.8,1.1-1.9,2H211.5z"/>
			<path class="st1" d="M214.9,357.9c0,1.7,1.1,2.4,2.3,2.4c0.9,0,1.4-0.2,1.9-0.3l0.2,0.9c-0.4,0.2-1.2,0.4-2.3,0.4
				c-2.1,0-3.3-1.4-3.3-3.4s1.2-3.7,3.2-3.7c2.2,0,2.8,1.9,2.8,3.2c0,0.3,0,0.4,0,0.6H214.9z M218.6,357c0-0.8-0.3-2-1.7-2
				c-1.2,0-1.8,1.1-1.9,2H218.6z"/>
			<path class="st1" d="M221.3,356.2c0-0.7,0-1.3-0.1-1.8h1.1l0.1,1.1h0c0.3-0.6,1.1-1.3,2.2-1.3c0.9,0,2.4,0.6,2.4,2.9v4h-1.2v-3.9
				c0-1.1-0.4-2-1.6-2c-0.8,0-1.4,0.6-1.7,1.3c-0.1,0.2-0.1,0.4-0.1,0.6v4.1h-1.2V356.2z"/>
		</g>
		<g>
			<g>
				<path class="st1" d="M146.4,489.3l-2.4-9.4h1.3l1.1,4.8c0.3,1.2,0.5,2.4,0.7,3.3h0c0.2-0.9,0.4-2.1,0.8-3.3l1.3-4.8h1.3l1.1,4.8
					c0.3,1.1,0.5,2.2,0.7,3.2h0c0.2-1,0.5-2.1,0.8-3.3l1.2-4.8h1.2l-2.7,9.4h-1.3l-1.2-4.9c-0.3-1.2-0.5-2.1-0.6-3.1h0
					c-0.2,0.9-0.4,1.9-0.7,3.1l-1.3,4.9H146.4z"/>
				<path class="st1" d="M156.9,486.1c0,1.7,1.1,2.4,2.3,2.4c0.9,0,1.4-0.2,1.9-0.4l0.2,0.9c-0.4,0.2-1.2,0.4-2.3,0.4
					c-2.1,0-3.3-1.4-3.3-3.4c0-2,1.2-3.7,3.2-3.7c2.2,0,2.8,1.9,2.8,3.2c0,0.3,0,0.4,0,0.6H156.9z M160.5,485.2c0-0.8-0.3-2-1.7-2
					c-1.2,0-1.8,1.1-1.9,2H160.5z"/>
				<path class="st1" d="M163.1,489.3c0-0.5,0.1-1.1,0.1-1.8v-8.2h1.2v4.3h0c0.4-0.8,1.2-1.2,2.3-1.2c1.7,0,2.9,1.4,2.9,3.5
					c0,2.4-1.5,3.6-3,3.6c-1,0-1.8-0.4-2.3-1.3h0l-0.1,1.1H163.1z M164.4,486.6c0,0.2,0,0.3,0.1,0.4c0.2,0.9,1,1.4,1.8,1.4
					c1.3,0,2.1-1,2.1-2.6c0-1.4-0.7-2.5-2-2.5c-0.8,0-1.6,0.6-1.9,1.5c0,0.1-0.1,0.3-0.1,0.5V486.6z"/>
				<path class="st1" d="M175.7,486.3l-1,3h-1.3l3.2-9.4h1.5l3.2,9.4h-1.3l-1-3H175.7z M178.8,485.4l-0.9-2.7
					c-0.2-0.6-0.4-1.2-0.5-1.7h0c-0.1,0.6-0.3,1.1-0.5,1.7l-0.9,2.7H178.8z"/>
				<path class="st1" d="M182.7,484.7c0-0.9,0-1.6-0.1-2.2h1.1l0.1,1.2h0c0.5-0.8,1.3-1.3,2.4-1.3c1.6,0,2.9,1.4,2.9,3.4
					c0,2.4-1.5,3.6-3.1,3.6c-0.9,0-1.7-0.4-2.1-1.1h0v3.7h-1.2V484.7z M183.9,486.5c0,0.2,0,0.4,0.1,0.5c0.2,0.9,1,1.4,1.8,1.4
					c1.3,0,2.1-1.1,2.1-2.6c0-1.4-0.7-2.5-2-2.5c-0.8,0-1.6,0.6-1.9,1.5c0,0.2-0.1,0.3-0.1,0.5V486.5z"/>
				<path class="st1" d="M190.6,484.7c0-0.9,0-1.6-0.1-2.2h1.1l0.1,1.2h0c0.5-0.8,1.3-1.3,2.4-1.3c1.6,0,2.9,1.4,2.9,3.4
					c0,2.4-1.5,3.6-3.1,3.6c-0.9,0-1.7-0.4-2.1-1.1h0v3.7h-1.2V484.7z M191.8,486.5c0,0.2,0,0.4,0.1,0.5c0.2,0.9,1,1.4,1.8,1.4
					c1.3,0,2.1-1.1,2.1-2.6c0-1.4-0.7-2.5-2-2.5c-0.8,0-1.6,0.6-1.9,1.5c0,0.2-0.1,0.3-0.1,0.5V486.5z"/>
			</g>
		</g>
		<g>
			<g>
				<path class="st1" d="M428.2,203.8v-9.4h1.3l3,4.8c0.7,1.1,1.2,2.1,1.7,3.1l0,0c-0.1-1.3-0.1-2.4-0.1-3.9v-3.9h1.1v9.4h-1.2
					l-3-4.8c-0.7-1.1-1.3-2.1-1.8-3.2l0,0c0.1,1.2,0.1,2.3,0.1,3.9v4H428.2z"/>
				<path class="st1" d="M438.1,200.6c0,1.7,1.1,2.4,2.3,2.4c0.9,0,1.4-0.2,1.9-0.4l0.2,0.9c-0.4,0.2-1.2,0.4-2.3,0.4
					c-2.1,0-3.3-1.4-3.3-3.4c0-2,1.2-3.7,3.2-3.7c2.2,0,2.8,1.9,2.8,3.2c0,0.3,0,0.4,0,0.6H438.1z M441.7,199.7c0-0.8-0.3-2-1.7-2
					c-1.2,0-1.8,1.1-1.9,2H441.7z"/>
				<path class="st1" d="M444.9,197l1,1.5c0.3,0.4,0.5,0.7,0.7,1.1h0c0.2-0.4,0.4-0.8,0.7-1.1l1-1.4h1.3l-2.3,3.3l2.4,3.5h-1.4
					l-1-1.5c-0.3-0.4-0.5-0.8-0.7-1.2h0c-0.2,0.4-0.5,0.8-0.7,1.2l-1,1.5h-1.4l2.4-3.5l-2.3-3.3H444.9z"/>
				<path class="st1" d="M456.7,200.3c0,2.5-1.7,3.6-3.4,3.6c-1.8,0-3.3-1.3-3.3-3.5c0-2.3,1.5-3.6,3.4-3.6
					C455.4,196.8,456.7,198.2,456.7,200.3z M451.4,200.4c0,1.5,0.9,2.6,2.1,2.6c1.2,0,2.1-1.1,2.1-2.6c0-1.1-0.6-2.6-2-2.6
					S451.4,199.1,451.4,200.4z"/>
				<path class="st1" d="M458.3,199.1c0-0.8,0-1.5-0.1-2.1h1.1l0,1.3h0.1c0.3-0.9,1.1-1.5,1.9-1.5c0.1,0,0.2,0,0.3,0v1.2
					c-0.1,0-0.3,0-0.4,0c-0.9,0-1.5,0.7-1.7,1.6c0,0.2-0.1,0.4-0.1,0.6v3.6h-1.2V199.1z"/>
				<path class="st1" d="M467.6,203.5c-0.3,0.2-1,0.4-1.9,0.4c-2,0-3.4-1.4-3.4-3.5c0-2.1,1.4-3.6,3.6-3.6c0.7,0,1.4,0.2,1.7,0.4
					l-0.3,1c-0.3-0.2-0.8-0.3-1.4-0.3c-1.6,0-2.4,1.1-2.4,2.6c0,1.6,1,2.5,2.4,2.5c0.7,0,1.2-0.2,1.5-0.3L467.6,203.5z"/>
				<path class="st1" d="M469.6,200.6c0,1.7,1.1,2.4,2.3,2.4c0.9,0,1.4-0.2,1.9-0.4l0.2,0.9c-0.4,0.2-1.2,0.4-2.3,0.4
					c-2.1,0-3.3-1.4-3.3-3.4c0-2,1.2-3.7,3.2-3.7c2.2,0,2.8,1.9,2.8,3.2c0,0.3,0,0.4,0,0.6H469.6z M473.2,199.7c0-0.8-0.3-2-1.7-2
					c-1.2,0-1.8,1.1-1.9,2H473.2z"/>
				<path class="st1" d="M415.1,220.6l-2.4-9.4h1.3l1.1,4.8c0.3,1.2,0.5,2.4,0.7,3.3h0c0.2-0.9,0.4-2.1,0.8-3.3l1.3-4.8h1.3l1.1,4.8
					c0.3,1.1,0.5,2.2,0.7,3.2h0c0.2-1,0.5-2.1,0.8-3.3l1.2-4.8h1.2l-2.7,9.4h-1.3l-1.2-4.9c-0.3-1.2-0.5-2.1-0.6-3.1h0
					c-0.2,0.9-0.4,1.9-0.7,3.1l-1.3,4.9H415.1z"/>
				<path class="st1" d="M425.6,217.4c0,1.7,1.1,2.4,2.3,2.4c0.9,0,1.4-0.2,1.9-0.4l0.2,0.9c-0.4,0.2-1.2,0.4-2.3,0.4
					c-2.1,0-3.3-1.4-3.3-3.4c0-2,1.2-3.7,3.2-3.7c2.2,0,2.8,1.9,2.8,3.2c0,0.3,0,0.4,0,0.6H425.6z M429.2,216.5c0-0.8-0.3-2-1.7-2
					c-1.2,0-1.8,1.1-1.9,2H429.2z"/>
				<path class="st1" d="M431.9,220.6c0-0.5,0.1-1.1,0.1-1.8v-8.2h1.2v4.3h0c0.4-0.8,1.2-1.2,2.3-1.2c1.7,0,2.9,1.4,2.9,3.5
					c0,2.4-1.5,3.6-3,3.6c-1,0-1.8-0.4-2.3-1.3h0l-0.1,1.1H431.9z M433.2,217.8c0,0.2,0,0.3,0.1,0.4c0.2,0.9,1,1.4,1.8,1.4
					c1.3,0,2.1-1.1,2.1-2.6c0-1.4-0.7-2.5-2-2.5c-0.8,0-1.6,0.6-1.9,1.5c0,0.1-0.1,0.3-0.1,0.5V217.8z"/>
				<path class="st1" d="M442.7,219.1c0.5,0.3,1.3,0.6,2.2,0.6c1.2,0,2-0.7,2-1.6c0-0.9-0.5-1.4-1.8-1.9c-1.5-0.5-2.5-1.3-2.5-2.7
					c0-1.5,1.2-2.6,3.1-2.6c1,0,1.7,0.2,2.1,0.5l-0.3,1c-0.3-0.2-0.9-0.4-1.8-0.4c-1.3,0-1.8,0.8-1.8,1.4c0,0.9,0.6,1.3,1.9,1.8
					c1.6,0.6,2.4,1.4,2.4,2.8c0,1.5-1.1,2.7-3.3,2.7c-0.9,0-1.9-0.3-2.4-0.6L442.7,219.1z"/>
				<path class="st1" d="M450.5,217.4c0,1.7,1.1,2.4,2.3,2.4c0.9,0,1.4-0.2,1.9-0.4l0.2,0.9c-0.4,0.2-1.2,0.4-2.3,0.4
					c-2.1,0-3.3-1.4-3.3-3.4c0-2,1.2-3.7,3.2-3.7c2.2,0,2.8,1.9,2.8,3.2c0,0.3,0,0.4,0,0.6H450.5z M454.2,216.5c0-0.8-0.3-2-1.7-2
					c-1.2,0-1.8,1.1-1.9,2H454.2z"/>
				<path class="st1" d="M456.9,215.9c0-0.8,0-1.5-0.1-2.1h1.1l0,1.3h0.1c0.3-0.9,1.1-1.5,1.9-1.5c0.1,0,0.2,0,0.3,0v1.2
					c-0.1,0-0.3,0-0.4,0c-0.9,0-1.5,0.7-1.7,1.6c0,0.2-0.1,0.4-0.1,0.6v3.6h-1.2V215.9z"/>
				<path class="st1" d="M462.3,213.8l1.3,3.8c0.2,0.6,0.4,1.2,0.5,1.7h0c0.2-0.6,0.4-1.1,0.6-1.7l1.3-3.8h1.3l-2.7,6.8h-1.2
					l-2.6-6.8H462.3z"/>
				<path class="st1" d="M469.9,211.9c0,0.4-0.3,0.8-0.8,0.8c-0.4,0-0.7-0.3-0.7-0.8c0-0.4,0.3-0.8,0.8-0.8
					C469.6,211.1,469.9,211.4,469.9,211.9z M468.5,220.6v-6.8h1.2v6.8H468.5z"/>
				<path class="st1" d="M476.6,220.3c-0.3,0.2-1,0.4-1.9,0.4c-2,0-3.4-1.4-3.4-3.5c0-2.1,1.4-3.6,3.6-3.6c0.7,0,1.4,0.2,1.7,0.4
					l-0.3,1c-0.3-0.2-0.8-0.3-1.4-0.3c-1.6,0-2.4,1.1-2.4,2.6c0,1.6,1,2.5,2.4,2.5c0.7,0,1.2-0.2,1.5-0.3L476.6,220.3z"/>
				<path class="st1" d="M478.7,217.4c0,1.7,1.1,2.4,2.3,2.4c0.9,0,1.4-0.2,1.9-0.4l0.2,0.9c-0.4,0.2-1.2,0.4-2.3,0.4
					c-2.1,0-3.3-1.4-3.3-3.4c0-2,1.2-3.7,3.2-3.7c2.2,0,2.8,1.9,2.8,3.2c0,0.3,0,0.4,0,0.6H478.7z M482.3,216.5c0-0.8-0.3-2-1.7-2
					c-1.2,0-1.8,1.1-1.9,2H482.3z"/>
				<path class="st1" d="M484.8,219.3c0.4,0.2,1,0.5,1.6,0.5c0.9,0,1.3-0.4,1.3-1c0-0.6-0.3-0.9-1.3-1.2c-1.2-0.4-1.8-1.1-1.8-1.9
					c0-1.1,0.9-2,2.3-2c0.7,0,1.3,0.2,1.7,0.4l-0.3,0.9c-0.3-0.2-0.8-0.4-1.4-0.4c-0.7,0-1.1,0.4-1.1,0.9c0,0.6,0.4,0.8,1.3,1.1
					c1.2,0.4,1.8,1,1.8,2c0,1.2-0.9,2-2.5,2c-0.7,0-1.4-0.2-1.9-0.5L484.8,219.3z"/>
			</g>
		</g>
		<g id="global_3_">
			<path class="st1" d="M451,142c-12.3,0-22.2,10-22.2,22.2c0,12.3,10,22.2,22.2,22.2s22.2-10,22.2-22.2
				C473.3,151.9,463.3,142,451,142z M443.8,147.7c-1.2,1.4-2.5,3.1-3.6,5.5h-3.4C438.7,150.8,441.1,148.9,443.8,147.7z M434.7,156.7
				h4.3c-0.5,1.7-0.8,3.6-0.9,5.7h-4.9C433.4,160.4,433.9,158.5,434.7,156.7z M434.8,171.7c-0.8-1.8-1.4-3.7-1.6-5.7h4.9
				c0.1,2.1,0.4,4,0.9,5.7H434.8z M436.9,175.2h3.3c1,2.2,2.3,4,3.5,5.3C441.1,179.4,438.7,177.5,436.9,175.2z M449.3,181
				c-1-0.6-3.4-2.4-5.2-5.7h5.2V181z M449.3,171.7h-6.8c-0.5-1.7-0.9-3.6-1-5.7h7.8V171.7z M449.3,162.5h-7.8c0.1-2.2,0.5-4.1,1-5.7
				h6.8V162.5z M449.3,153.2H444c1.9-3.4,4.2-5.1,5.2-5.7V153.2z M467.4,156.7c0.8,1.8,1.4,3.7,1.6,5.7h-5c-0.1-2.1-0.4-4-0.9-5.7
				H467.4z M465.2,153.2h-3.5c-1.1-2.3-2.4-4.1-3.6-5.5C461,148.9,463.4,150.8,465.2,153.2z M452.8,147.4c1,0.6,3.4,2.4,5.2,5.7
				h-5.2V147.4z M452.8,156.7h6.8c0.5,1.7,0.9,3.6,1,5.7h-7.8V156.7z M452.8,166h7.8c-0.1,2.2-0.5,4.1-1,5.7h-6.8V166z M452.8,181
				v-5.7h5.2C456.1,178.6,453.8,180.4,452.8,181z M458.3,180.6c1.2-1.4,2.5-3.1,3.5-5.4h3.4C463.4,177.6,461,179.4,458.3,180.6z
				 M467.3,171.7H463c0.5-1.7,0.8-3.6,0.9-5.7h5C468.7,168,468.2,169.9,467.3,171.7z"/>
		</g>
		<g>
			<g>
				<path class="st1" d="M435.8,353.7l-3.1-9.4h1.3l1.5,4.7c0.4,1.3,0.8,2.4,1,3.5h0c0.3-1.1,0.7-2.3,1.1-3.5l1.6-4.7h1.3l-3.4,9.4
					H435.8z"/>
				<path class="st1" d="M441.7,350.5c0,1.7,1.1,2.4,2.3,2.4c0.9,0,1.4-0.2,1.9-0.3l0.2,0.9c-0.4,0.2-1.2,0.4-2.3,0.4
					c-2.1,0-3.3-1.4-3.3-3.4s1.2-3.7,3.2-3.7c2.2,0,2.8,1.9,2.8,3.2c0,0.3,0,0.4,0,0.6H441.7z M445.3,349.6c0-0.8-0.3-2-1.7-2
					c-1.2,0-1.8,1.1-1.9,2H445.3z"/>
				<path class="st1" d="M452.9,353.4c-0.3,0.2-1,0.4-1.9,0.4c-2,0-3.4-1.4-3.4-3.5c0-2.1,1.4-3.6,3.6-3.6c0.7,0,1.4,0.2,1.7,0.4
					l-0.3,1c-0.3-0.2-0.8-0.3-1.4-0.3c-1.6,0-2.4,1.1-2.4,2.6c0,1.6,1,2.5,2.4,2.5c0.7,0,1.2-0.2,1.5-0.3L452.9,353.4z"/>
				<path class="st1" d="M456,344.9v1.9h1.8v0.9H456v3.7c0,0.8,0.2,1.3,0.9,1.3c0.3,0,0.6,0,0.7-0.1l0.1,0.9
					c-0.2,0.1-0.6,0.2-1.1,0.2c-0.6,0-1-0.2-1.3-0.5c-0.3-0.4-0.5-1-0.5-1.8v-3.7h-1.1v-0.9h1.1v-1.6L456,344.9z"/>
				<path class="st1" d="M459.1,349c0-0.8,0-1.5-0.1-2.1h1.1l0,1.3h0.1c0.3-0.9,1.1-1.5,1.9-1.5c0.1,0,0.2,0,0.4,0v1.2
					c-0.1,0-0.3,0-0.4,0c-0.9,0-1.5,0.7-1.7,1.6c0,0.2-0.1,0.4-0.1,0.6v3.6h-1.2V349z"/>
				<path class="st1" d="M467.4,353.7l-0.1-0.9h0c-0.4,0.5-1.1,1-2.1,1c-1.4,0-2.1-1-2.1-1.9c0-1.6,1.5-2.5,4.1-2.5v-0.1
					c0-0.6-0.2-1.6-1.5-1.6c-0.6,0-1.3,0.2-1.8,0.5l-0.3-0.8c0.6-0.4,1.4-0.6,2.2-0.6c2.1,0,2.6,1.4,2.6,2.8v2.5
					c0,0.6,0,1.2,0.1,1.6H467.4z M467.2,350.2c-1.3,0-2.9,0.2-2.9,1.5c0,0.8,0.5,1.2,1.2,1.2c0.9,0,1.4-0.6,1.6-1.1
					c0-0.1,0.1-0.3,0.1-0.4V350.2z"/>
				<path class="st1" d="M411.3,370.5l-3.1-9.4h1.3l1.5,4.7c0.4,1.3,0.8,2.4,1,3.5h0c0.3-1.1,0.7-2.3,1.1-3.5l1.6-4.7h1.3l-3.4,9.4
					H411.3z"/>
				<path class="st1" d="M418.1,361.8c0,0.4-0.3,0.8-0.8,0.8c-0.4,0-0.7-0.3-0.7-0.8c0-0.4,0.3-0.8,0.8-0.8
					C417.8,361,418.1,361.4,418.1,361.8z M416.7,370.5v-6.8h1.2v6.8H416.7z"/>
				<path class="st1" d="M420.7,367.3c0,1.7,1.1,2.4,2.3,2.4c0.9,0,1.4-0.2,1.9-0.3l0.2,0.9c-0.4,0.2-1.2,0.4-2.3,0.4
					c-2.1,0-3.3-1.4-3.3-3.4s1.2-3.7,3.2-3.7c2.2,0,2.8,1.9,2.8,3.2c0,0.3,0,0.4,0,0.6H420.7z M424.3,366.4c0-0.8-0.3-2-1.7-2
					c-1.2,0-1.8,1.1-1.9,2H424.3z"/>
				<path class="st1" d="M427.5,363.7l0.9,3.4c0.2,0.8,0.4,1.5,0.5,2.2h0c0.2-0.7,0.4-1.4,0.6-2.1l1.1-3.5h1l1.1,3.4
					c0.3,0.8,0.4,1.5,0.6,2.2h0c0.1-0.7,0.3-1.4,0.5-2.2l1-3.4h1.2l-2.2,6.8h-1.1l-1-3.2c-0.2-0.8-0.4-1.4-0.6-2.2h0
					c-0.2,0.8-0.4,1.5-0.6,2.2l-1.1,3.2h-1.1l-2-6.8H427.5z"/>
				<path class="st1" d="M440.3,361.2c0.7-0.1,1.6-0.2,2.6-0.2c1.8,0,3,0.4,3.8,1.2c0.8,0.8,1.3,1.9,1.3,3.4c0,1.5-0.5,2.8-1.4,3.7
					c-0.9,0.9-2.3,1.4-4.2,1.4c-0.9,0-1.6,0-2.2-0.1V361.2z M441.5,369.5c0.3,0.1,0.8,0.1,1.2,0.1c2.6,0,4-1.5,4-4
					c0-2.2-1.2-3.6-3.8-3.6c-0.6,0-1.1,0.1-1.4,0.1V369.5z"/>
				<path class="st1" d="M453.4,370.5l-0.1-0.9h0c-0.4,0.5-1.1,1-2.1,1c-1.4,0-2.1-1-2.1-1.9c0-1.6,1.5-2.5,4.1-2.5V366
					c0-0.6-0.2-1.6-1.5-1.6c-0.6,0-1.3,0.2-1.8,0.5l-0.3-0.8c0.6-0.4,1.4-0.6,2.2-0.6c2.1,0,2.6,1.4,2.6,2.8v2.5
					c0,0.6,0,1.2,0.1,1.6H453.4z M453.2,367c-1.3,0-2.9,0.2-2.9,1.5c0,0.8,0.5,1.2,1.2,1.2c0.9,0,1.4-0.6,1.6-1.1
					c0-0.1,0.1-0.3,0.1-0.4V367z"/>
				<path class="st1" d="M457.8,361.7v1.9h1.8v0.9h-1.8v3.7c0,0.8,0.2,1.3,0.9,1.3c0.3,0,0.6,0,0.7-0.1l0.1,0.9
					c-0.2,0.1-0.6,0.2-1.1,0.2c-0.6,0-1-0.2-1.3-0.5c-0.3-0.4-0.5-1-0.5-1.8v-3.7h-1.1v-0.9h1.1v-1.6L457.8,361.7z"/>
				<path class="st1" d="M464.7,370.5l-0.1-0.9h0c-0.4,0.5-1.1,1-2.1,1c-1.4,0-2.1-1-2.1-1.9c0-1.6,1.5-2.5,4.1-2.5V366
					c0-0.6-0.2-1.6-1.5-1.6c-0.6,0-1.3,0.2-1.8,0.5l-0.3-0.8c0.6-0.4,1.4-0.6,2.2-0.6c2.1,0,2.6,1.4,2.6,2.8v2.5
					c0,0.6,0,1.2,0.1,1.6H464.7z M464.5,367c-1.3,0-2.9,0.2-2.9,1.5c0,0.8,0.5,1.2,1.2,1.2c0.9,0,1.4-0.6,1.6-1.1
					c0-0.1,0.1-0.3,0.1-0.4V367z"/>
				<path class="st1" d="M467.6,370.5c0-0.5,0.1-1.1,0.1-1.8v-8.2h1.2v4.3h0c0.4-0.8,1.2-1.2,2.3-1.2c1.7,0,2.9,1.4,2.9,3.5
					c0,2.4-1.5,3.6-3,3.6c-1,0-1.8-0.4-2.3-1.3h0l-0.1,1.1H467.6z M468.9,367.8c0,0.2,0,0.3,0.1,0.4c0.2,0.9,1,1.4,1.8,1.4
					c1.3,0,2.1-1.1,2.1-2.6c0-1.4-0.7-2.5-2-2.5c-0.8,0-1.6,0.6-1.9,1.5c0,0.1-0.1,0.3-0.1,0.5V367.8z"/>
				<path class="st1" d="M479.4,370.5l-0.1-0.9h0c-0.4,0.5-1.1,1-2.1,1c-1.4,0-2.1-1-2.1-1.9c0-1.6,1.5-2.5,4.1-2.5V366
					c0-0.6-0.2-1.6-1.5-1.6c-0.6,0-1.3,0.2-1.8,0.5l-0.3-0.8c0.6-0.4,1.4-0.6,2.2-0.6c2.1,0,2.6,1.4,2.6,2.8v2.5
					c0,0.6,0,1.2,0.1,1.6H479.4z M479.2,367c-1.3,0-2.9,0.2-2.9,1.5c0,0.8,0.5,1.2,1.2,1.2c0.9,0,1.4-0.6,1.6-1.1
					c0-0.1,0.1-0.3,0.1-0.4V367z"/>
				<path class="st1" d="M482.2,369.2c0.4,0.2,1,0.5,1.6,0.5c0.9,0,1.3-0.4,1.3-1c0-0.6-0.4-0.9-1.3-1.2c-1.2-0.4-1.8-1.1-1.8-1.9
					c0-1.1,0.9-2,2.3-2c0.7,0,1.3,0.2,1.7,0.4l-0.3,0.9c-0.3-0.2-0.8-0.4-1.4-0.4c-0.7,0-1.1,0.4-1.1,0.9c0,0.6,0.4,0.8,1.3,1.1
					c1.2,0.4,1.8,1,1.8,2c0,1.2-0.9,2-2.5,2c-0.7,0-1.4-0.2-1.9-0.5L482.2,369.2z"/>
				<path class="st1" d="M488.6,367.3c0,1.7,1.1,2.4,2.3,2.4c0.9,0,1.4-0.2,1.9-0.3l0.2,0.9c-0.4,0.2-1.2,0.4-2.3,0.4
					c-2.1,0-3.3-1.4-3.3-3.4s1.2-3.7,3.2-3.7c2.2,0,2.8,1.9,2.8,3.2c0,0.3,0,0.4,0,0.6H488.6z M492.2,366.4c0-0.8-0.3-2-1.7-2
					c-1.2,0-1.8,1.1-1.9,2H492.2z"/>
			</g>
		</g>
		<g id="database_x5F_lock_41_">
			<path class="st1" d="M468.1,317.4c0.2,0.3,0.3,0.5,0.3,0.8v6.9c0,2.6-7.8,4.6-17.3,4.6c-9.6,0-17.3-2.1-17.3-4.6v-6.9
				c0-0.3,0.1-0.5,0.3-0.8c4.7,2.9,14.6,3.1,17.1,3.1C453.5,320.5,463.3,320.3,468.1,317.4z M451,308.9c-2.5,0-12.3-0.2-17.1-3.1
				c-0.2,0.3-0.3,0.5-0.3,0.8v6.9c0,2.6,7.8,4.6,17.3,4.6c9.6,0,17.3-2.1,17.3-4.6v-6.9c0-0.3-0.1-0.5-0.3-0.8
				C463.3,308.7,453.5,308.9,451,308.9z M451,297.4c-2.5,0-12.3-0.2-17.1-3.1c-0.2,0.3-0.3,0.5-0.3,0.8v6.9c0,2.6,7.8,4.6,17.3,4.6
				c9.6,0,17.3-2.1,17.3-4.6V295c0-0.3-0.1-0.5-0.3-0.8C463.3,297.2,453.5,297.4,451,297.4z M468.4,283.5v6.9
				c0,2.6-7.8,4.6-17.3,4.6c-9.6,0-17.3-2.1-17.3-4.6v-6.9c0-2.6,7.8-4.6,17.3-4.6C460.6,278.9,468.4,280.9,468.4,283.5z
				 M458.5,282.3c0-0.8-3.3-1.5-7.5-1.5c-4.1,0-7.5,0.7-7.5,1.5c0,0.8,3.3,1.5,7.5,1.5C455.1,283.8,458.5,283.2,458.5,282.3z"/>
		</g>
		<g>
			<rect x="122.7" y="130.7" class="st7" width="97.1" height="8"/>
			<g>
				<g id="pie_x5F_chart_26_">
					<g>
						<path class="st8" d="M125.4,150.1c0-4.4,3.6-7.9,8-7.9c2.2,0,4.2,0.9,5.6,2.3l-5.6,5.6v7.9C129.1,158,125.4,154.5,125.4,150.1
							z"/>
					</g>
					<path class="st9" d="M134.8,150.1l5.6-5.6c3.1,3.1,3.1,8.1,0,11.2L134.8,150.1z"/>
					<path class="st10" d="M134.1,150.8v7.9c2.1,0,4.1-0.8,5.6-2.3L134.1,150.8z"/>
				</g>
				<rect x="146" y="142.2" class="st7" width="24.4" height="1.7"/>
				<rect x="146" y="145.8" class="st7" width="24.4" height="1.7"/>
				<rect x="146" y="150.1" class="st7" width="24.4" height="1.7"/>
				<rect x="146" y="153.7" class="st7" width="24.4" height="1.7"/>
				<rect x="146" y="157.2" class="st7" width="24.4" height="1.7"/>
			</g>
			<rect x="126.2" y="169" class="st7" width="12.8" height="1.7"/>
			<rect x="126.2" y="172.6" class="st7" width="12.8" height="1.7"/>
			<rect x="126.2" y="176.1" class="st7" width="12.8" height="1.7"/>
			<rect x="141.3" y="169" class="st7" width="12.8" height="1.7"/>
			<rect x="141.3" y="172.6" class="st7" width="12.8" height="1.7"/>
			<rect x="141.3" y="176.1" class="st7" width="12.8" height="1.7"/>
			<rect x="156.9" y="169" class="st7" width="12.8" height="1.7"/>
			<rect x="156.9" y="172.6" class="st7" width="12.8" height="1.7"/>
			<rect x="156.9" y="176.1" class="st7" width="12.8" height="1.7"/>
			<rect x="173" y="169" class="st7" width="12.8" height="1.7"/>
			<rect x="173" y="172.6" class="st7" width="12.8" height="1.7"/>
			<rect x="173" y="176.1" class="st7" width="12.8" height="1.7"/>
			<rect x="190.1" y="169" class="st7" width="12.8" height="1.7"/>
			<rect x="190.1" y="172.6" class="st7" width="12.8" height="1.7"/>
			<rect x="190.1" y="176.1" class="st7" width="12.8" height="1.7"/>
			<rect x="206.5" y="169" class="st7" width="12.8" height="1.7"/>
			<rect x="206.5" y="172.6" class="st7" width="12.8" height="1.7"/>
			<rect x="206.5" y="176.1" class="st7" width="12.8" height="1.7"/>
			<rect x="126.2" y="179.9" class="st7" width="12.8" height="1.7"/>
			<rect x="141.3" y="179.9" class="st7" width="12.8" height="1.7"/>
			<rect x="156.9" y="179.9" class="st7" width="12.8" height="1.7"/>
			<rect x="173" y="179.9" class="st7" width="12.8" height="1.7"/>
			<rect x="190.1" y="179.9" class="st7" width="12.8" height="1.7"/>
			<rect x="206.5" y="179.9" class="st7" width="12.8" height="1.7"/>
			<rect x="126.2" y="183.8" class="st7" width="12.8" height="1.7"/>
			<rect x="141.3" y="183.8" class="st7" width="12.8" height="1.7"/>
			<rect x="156.9" y="183.8" class="st7" width="12.8" height="1.7"/>
			<rect x="173" y="183.8" class="st7" width="12.8" height="1.7"/>
			<rect x="190.1" y="183.8" class="st7" width="12.8" height="1.7"/>
			<rect x="206.5" y="183.8" class="st7" width="12.8" height="1.7"/>
			<g>
				<rect x="195.3" y="142.2" class="st7" width="24" height="1.7"/>
				<rect x="195.3" y="145.8" class="st7" width="24" height="1.7"/>
				<rect x="195.3" y="150.1" class="st7" width="24" height="1.7"/>
				<rect x="195.3" y="153.7" class="st7" width="24" height="1.7"/>
				<rect x="195.3" y="157.2" class="st7" width="24" height="1.7"/>
			</g>
			<g id="charts_19_">
				<path class="st11" d="M189.1,156.6v-8.2c0-0.2-0.1-0.3-0.3-0.3h-2.3c-0.2,0-0.3,0.1-0.3,0.3v8.2h-0.6v-12.2
					c0-0.2-0.1-0.3-0.3-0.3h-2.3c-0.2,0-0.3,0.1-0.3,0.3v12.2h-0.6v-6c0-0.2-0.1-0.3-0.3-0.3h-2.3c-0.2,0-0.3,0.1-0.3,0.3v6h-0.6
					v-2.6c0-0.2-0.1-0.3-0.3-0.3h-2.3c-0.2,0-0.3,0.1-0.3,0.3v0.3v2.3h-1.1v1.1h15.3v-0.6v-0.6H189.1z"/>
			</g>
			<rect x="125.4" y="161.2" class="st7" width="94.3" height="3.9"/>
		</g>
		<g>
			<circle class="st3" cx="110.2" cy="335.5" r="32.8"/>
			<circle class="st1" cx="110.2" cy="335.5" r="29.4"/>
			<g id="parents_6_">
				<path class="st4" d="M117.2,342.8c-0.8-0.4-5.7-3.3-8.2-4.4V334c0.7-0.5,1.2-1.4,1.2-2.6v-3.5c0-2.9-1.8-5.3-5.3-5.3
					c-3.5,0-5.3,2.4-5.3,5.3c0,0,0,0.6,0,3.5c0,1.3,0.4,2.1,1.2,2.6v4.4c-2.4,1-7.5,3.9-8.2,4.4c-0.9,0.5-1.2,1-1.2,2.3
					c0,0.5,0,2.8,0,2.8c0,0.3,0.3,0.6,0.6,0.6h25.8c0.3,0,0.6-0.3,0.6-0.6c0,0,0-2.3,0-2.8C118.4,343.8,118.2,343.3,117.2,342.8z
					 M127.7,345c-0.7-0.4-3.5-1.7-5.8-2.8c0,0,0-1.7,0-2.3c2.3-0.1,3.9-1.3,4.6-2.1c0.7-0.7-0.6-1.4-1.6-2.6c-1-1.2-1.2-2.2-1.2-4.5
					c0-2.2-1.8-4.6-4.6-4.6c-2.8,0-4.6,2.4-4.6,4.6c0,2.3-0.2,3.3-1.2,4.5c-1,1.2-2.4,1.9-1.7,2.6c0.2,0.2,0.5,0.5,0.9,0.8
					c0.5,0.3,1.1,0.6,1.7,0.9c0.5,0.2,1.2,0.3,1.9,0.4c0,0.2,0,0.1,0,0.4c0.6,0.3,1.1,0.6,1.5,0.9c1.7,0.9,2,1.9,2,3.4v3.8h8.8
					c0.3,0,0.5-0.3,0.5-0.6v-1.2C128.9,345.9,128.4,345.4,127.7,345z"/>
			</g>
		</g>
		<g>
			<circle class="st3" cx="110.5" cy="203.3" r="32.8"/>
			<circle class="st1" cx="110.5" cy="203.3" r="29.4"/>
			<g id="old_x5F_man_13_">
				<path class="st6" d="M124.2,212.7c-0.8-0.5-6.4-3.7-9.2-4.9v-3.3c0.8-0.6,1.3-1.5,1.3-2.9v-2.2c1.6-0.6,2.6-1.3,2.6-1.6
					c0-0.5-0.3-1.2-0.7-1.2h-1.5l-1.9-8.8c0-0.4-0.2-0.5-0.6-0.4l-3.1,1c-0.4,0.1-1,0.1-1.3,0l-3.1-0.9c-0.4-0.1-0.6,0-0.6,0.4
					l-1.9,8.6h-1.5c-0.4,0-0.7,0.6-0.7,1.2c0,0.3,1,1,2.6,1.6c0,0.5,0,1.2,0,2.2c0,1.4,0.5,2.3,1.3,2.9v3.3
					c-2.7,1.1-8.4,4.4-9.2,4.9c-1.1,0.6-1.3,1.2-1.3,2.5c0,0.8,0,3.1,0,3.1c0,0.4,0.3,0.7,0.7,0.7h28.9c0.4,0,0.7-0.3,0.7-0.7
					c0,0,0-2.3,0-3.1C125.6,213.9,125.3,213.3,124.2,212.7z"/>
			</g>
		</g>
		<g>
			<line class="st12" x1="244.7" y1="165" x2="416.5" y2="165"/>
			<polyline class="st1" points="250.4,175 240.4,165 250.4,155 			"/>
			<polyline class="st1" points="410.4,175 420.4,165 410.4,155 			"/>
		</g>
		<g>
			<line class="st12" x1="237.8" y1="315.7" x2="409.6" y2="315.7"/>
			<polyline class="st1" points="243.5,325.7 233.5,315.7 243.5,305.7 			"/>
			<polyline class="st1" points="403.5,325.7 413.5,315.7 403.5,305.7 			"/>
		</g>
		<g>
			<line class="st12" x1="237.8" y1="444.3" x2="449.3" y2="444.3"/>
			<polyline class="st1" points="243.5,454.3 233.5,444.3 243.5,434.3 			"/>
			<polyline class="st1" points="459.3,400.3 449.3,390.3 439.3,400.3 			"/>
			<line class="st12" x1="449.3" y1="395.3" x2="449.3" y2="445.3"/>
		</g>
		<g>
			<line class="st12" x1="240.3" y1="286.6" x2="378.3" y2="184.3"/>
			<polyline class="st1" points="250.8,291.3 236.8,289.2 238.9,275.2 			"/>
			<polyline class="st1" points="379.3,196 381.4,182 367.4,179.9 			"/>
		</g>
		<g>
			<line class="st12" x1="387.9" y1="286.1" x2="243.8" y2="192.4"/>
			<polyline class="st1" points="377.6,291.4 391.5,288.4 388.5,274.6 			"/>
			<polyline class="st1" points="243.5,204.1 240.6,190.3 254.4,187.4 			"/>
		</g>
	</g>
</g>
</svg>
