<?xml version="1.0" encoding="utf-8"?>
<!-- Generator: Adobe Illustrator 20.0.0, SVG Export Plug-In . SVG Version: 6.00 Build 0)  -->
<svg version="1.1" id="Layer_1" xmlns="http://www.w3.org/2000/svg" xmlns:xlink="http://www.w3.org/1999/xlink" x="0px" y="0px"
	 viewBox="0 0 612 612" style="enable-background:new 0 0 612 612;" xml:space="preserve">
<style type="text/css">
	.st0{fill:#FAAC18;}
	.st1{fill:none;stroke:#F1F1F1;stroke-width:4.3694;stroke-miterlimit:10;stroke-dasharray:6.5417,6.5417;}
	.st2{fill:#BBE5F4;}
	.st3{fill:#F16124;}
	.st4{fill:#FFFFFF;}
	.st5{fill:#002C3B;}
	.st6{fill:#0296C8;}
	.st7{fill:#002C3C;}
	.st8{fill:#F1F1F1;}
	.st9{fill:#FBFCFA;}
	.st10{opacity:0.5;fill:#027AA6;enable-background:new    ;}
</style>
<g>
	<g>
		<ellipse class="st0" cx="306" cy="306" rx="306" ry="306"/>
	</g>
	<g>
		<g>
			<ellipse class="st1" cx="310.9" cy="311.5" rx="206.1" ry="207"/>
		</g>
		<g>
			<ellipse class="st2" cx="175.1" cy="132.8" rx="45" ry="45.2"/>
			<g>
				<g id="calendar_7_">
					<path class="st3" d="M152.3,123.2v29.8c0,1,0.8,1.9,1.9,1.9h39c1,0,1.9-0.8,1.9-1.9v-29.8H152.3z M161.6,151.2H156v-5.6h5.6
						V151.2z M161.6,143.7H156v-5.6h5.6V143.7z M161.6,136.3H156v-5.6h5.6V136.3z M169.1,151.2h-5.6v-5.6h5.6V151.2z M169.1,143.7
						h-5.6v-5.6h5.6V143.7z M169.1,136.3h-5.6v-5.6h5.6V136.3z M176.5,151.2h-5.6v-5.6h5.6V151.2z M176.5,143.7h-5.6v-5.6h5.6V143.7
						z M176.5,136.3h-5.6v-5.6h5.6V136.3z M183.9,151.2h-5.6v-5.6h5.6V151.2z M183.9,143.7h-5.6v-5.6h5.6V143.7z M183.9,136.3h-5.6
						v-5.6h5.6V136.3z M191.4,151.2h-5.6v-5.6h5.6V151.2z M191.4,143.7h-5.6v-5.6h5.6V143.7z M191.4,136.3h-5.6v-5.6h5.6V136.3z
						 M195.1,115.8v5.6h-42.8v-5.6c0-1,0.8-1.9,1.9-1.9h3.7V112c0-1,0.8-1.9,1.9-1.9h1.9c1,0,1.9,0.8,1.9,1.9v1.9H184V112
						c0-1,0.8-1.9,1.9-1.9h1.9c1,0,1.9,0.8,1.9,1.9v1.9h3.7C194.3,113.9,195.1,114.7,195.1,115.8z"/>
				</g>
				<rect x="163.5" y="138.2" class="st3" width="5.6" height="5.6"/>
			</g>
		</g>
		<g>
			<ellipse class="st2" cx="495.3" cy="390.5" rx="45" ry="45.2"/>
		</g>
		<g>
			<ellipse class="st3" cx="100.2" cy="277.3" rx="45" ry="45.2"/>
			<g id="alarm_1_">
				<path class="st4" d="M99.1,260.1c-11.5,0-20.8,9.4-20.8,20.9s9.3,21,20.8,21s20.8-9.4,20.8-20.9S110.6,260.1,99.1,260.1z
					 M99.1,296.4c-8.4,0-15.2-6.8-15.2-15.3s6.8-15.3,15.2-15.3s15.2,6.8,15.2,15.3S107.4,296.4,99.1,296.4z M76.8,268.7l-2.4-2.8
					c-1-1.2-0.9-3,0.4-4.1l8-6.8c1.2-1,3.2-0.8,4.2,0.4l2.8,3.3c-5.2,2-9.6,5.8-12.5,10.5L76.8,268.7z M123.8,265.8l-3,3.5
					c-2.8-4.7-7.2-8.5-12.4-10.6l2.7-3.3c1-1.2,3-1.5,4.2-0.5l8,6.7C124.7,262.8,124.8,264.6,123.8,265.8z M102.9,281.1
					c0,2.1-1.7,3.8-3.8,3.8c-1.4,0-2.6-0.8-3.3-1.9h-3.4c-0.5,0-0.9-0.4-0.9-0.9v-1.8c0-0.5,0.4-1,0.9-1h3.3
					c0.3-0.9,0.8-1.1,1.4-1.4v-7.1c0-0.5,0.4-1,0.9-1h1.9c0.5,0,1,0.5,1,1v7.1C101.9,278.5,102.9,279.7,102.9,281.1z"/>
			</g>
		</g>
		<ellipse class="st3" cx="510.9" cy="235.1" rx="45" ry="45.2"/>
		<g>
			<g>
				<path class="st5" d="M407.2,537.4c0,9.1-7.4,16.6-16.5,16.6H229.5c-9.1,0-16.5-7.4-16.5-16.6V193.6c0-9.1,7.4-16.6,16.5-16.6
					h161.2c9.1,0,16.5,7.4,16.5,16.6V537.4z"/>
				<path class="st4" d="M341.5,193.5c0,1.3-1.1,2.4-2.4,2.4h-58c-1.3,0-2.4-1.1-2.4-2.4l0,0c0-1.3,1.1-2.4,2.4-2.4h58
					C340.4,191.1,341.5,192.2,341.5,193.5L341.5,193.5z"/>
				<rect x="226.9" y="204.3" class="st6" width="166.3" height="299.7"/>
				<g>
					<path class="st7" d="M310.1,542.3c-7.9,0-14.3-6.4-14.3-14.4c0-7.9,6.4-14.4,14.3-14.4s14.3,6.4,14.3,14.4
						C324.4,535.9,318,542.3,310.1,542.3z"/>
					<path class="st8" d="M310.1,514.2c7.6,0,13.7,6.1,13.7,13.8c0,7.6-6.1,13.8-13.7,13.8s-13.7-6.1-13.7-13.8
						C296.3,520.3,302.5,514.2,310.1,514.2 M310.1,513.1c-8.2,0-14.8,6.7-14.8,14.9c0,8.2,6.6,14.9,14.8,14.9
						c8.2,0,14.8-6.6,14.8-14.9S318.3,513.1,310.1,513.1L310.1,513.1z"/>
				</g>
				<g>
					<path class="st8" d="M267,521.6c0,1-0.8,1.7-1.7,1.7H241c-1,0-1.7-0.8-1.7-1.7l0,0c0-1,0.8-1.7,1.7-1.7h24.3
						C266.2,519.9,267,520.7,267,521.6L267,521.6z"/>
					<path class="st8" d="M267,527.9c0,1-0.8,1.7-1.7,1.7H241c-1,0-1.7-0.8-1.7-1.7l0,0c0-1,0.8-1.7,1.7-1.7h24.3
						C266.2,526.2,267,527,267,527.9L267,527.9z"/>
					<path class="st8" d="M267,534.3c0,1-0.8,1.7-1.7,1.7H241c-1,0-1.7-0.8-1.7-1.7l0,0c0-1,0.8-1.7,1.7-1.7h24.3
						C266.2,532.6,267,533.3,267,534.3L267,534.3z"/>
				</g>
				<path class="st8" d="M373.1,521.4v-3.2l-8.2,4.7l8.2,4.7v-3.1c2.7,0.1,4.8,2.3,4.8,4.9c0,2.7-2.2,5-5,5h-14.1v3.2h14.1
					c4.5,0,8.1-3.6,8.1-8.1C381.1,525.1,377.5,521.4,373.1,521.4z"/>
				<g>
					<path class="st9" d="M367.4,446.1c0,7.4-2,13.4-4.5,13.4H248c-2.5,0-4.5-6-4.5-13.4l0,0c0-7.4,2-13.4,4.5-13.4h114.9
						C365.3,432.6,367.4,438.7,367.4,446.1L367.4,446.1z"/>
					<g id="group_2_">
						<path class="st4" d="M338.1,286.5c0,2.9,0,7,0,7c0,0.4-0.3,0.9-0.7,0.9h-62.7c-0.4,0-0.7-0.5-0.7-0.9c0,0,0-4,0-7
							c0-2.9,0.6-4.1,2.8-5.4c1.8-1,13.9-8,19.5-10.4v-10.5c-1.7-1.3-2.8-3.2-2.8-6.2c0-7,0-8.3,0-8.3c0-6.9,4.2-12.7,12.6-12.7
							s12.6,5.7,12.6,12.7v8.3c0,3-1,4.9-2.8,6.2v10.5c6,2.4,17.7,9.4,19.5,10.4C337.5,282.4,338.1,283.6,338.1,286.5z M274.6,277.5
							l0.4-0.2c6.4-3.6,11.4-6.4,15.2-8.3c-1.7-0.9-3.5-1.6-5.2-2.1v-7.3c2.8-0.9,2.8-2.2,2.8-4.3v-5c0-4.8-2.5-8.7-8.4-8.7
							c-5.8,0-8.4,3.9-8.4,8.7c0,0,0,0.1,0,5c0,2.1,0,3.5,2.8,4.3v7.3c-5.6,1.7-12.9,6.5-14.2,7.2c-1.6,0.9-2.5,1.7-2.5,3.8
							c0,2,0,4.9,0,4.9c0,0.3,0.2,0.7,0.5,0.7H270C270.5,281,271.8,279.1,274.6,277.5z M352.3,274c-1.3-0.7-8.6-5.5-14.2-7.2v-7.3
							c2.8-0.9,2.8-2.2,2.8-4.3v-5c0-4.8-2.5-8.7-8.4-8.7s-8.4,3.9-8.4,8.7c0,0,0,0.1,0,5c0,2.1,0,3.5,2.8,4.3v7.3
							c-1.6,0.5-3.4,1.3-5.1,2.1c5.3,2.7,11.7,6.4,14.5,8l1,0.6c2.8,1.6,4.1,3.6,4.6,5.8h12.4c0.3,0,0.5-0.4,0.5-0.7
							c0,0,0-2.8,0-4.9C354.8,275.8,353.8,274.9,352.3,274z"/>
					</g>
					<rect x="239.1" y="339.7" class="st4" width="133.7" height="5.7"/>
					<rect x="239.1" y="352.3" class="st4" width="133.7" height="5.7"/>
					<rect x="239.1" y="364.3" class="st4" width="133.7" height="5.7"/>
				</g>
				<polygon class="st10" points="393.2,503.9 226.9,503.9 393.2,204.3 				"/>
			</g>
		</g>
		<ellipse class="st6" cx="370.9" cy="109.8" rx="45" ry="45.2"/>
		<g>
			<ellipse class="st6" cx="142.9" cy="424.5" rx="45" ry="45.2"/>
			<g>
				<g id="envelope_1_">
					<path class="st4" d="M140.1,435.3l-19.6-19.7h39.2L140.1,435.3z M140.1,438.6l-8.2-8.2l-11.4,11.4h39.2l-11.4-11.4L140.1,438.6
						z M150,428.7l9.8,9.8v-19.7L150,428.7z M120.5,418.9v19.7l9.8-9.8L120.5,418.9z"/>
				</g>
				<path class="st4" d="M174.8,408.6h-7.4v-7.4c0-0.6-0.5-1.1-1.1-1.1h-2.1c-0.6,0-1.1,0.5-1.1,1.1v7.4h-7.4
					c-0.6,0-1.1,0.5-1.1,1.1v2.1c0,0.6,0.5,1.1,1.1,1.1h7.4v7.4c0,0.6,0.5,1.1,1.1,1.1h2.1c0.6,0,1.1-0.5,1.1-1.1V413h7.4
					c0.6,0,1.1-0.5,1.1-1.1v-2.1C175.9,409,175.4,408.6,174.8,408.6z"/>
			</g>
		</g>
		<g id="briefcase_2_">
			<g>
				<path class="st4" d="M531.7,219.1h-6.1v-2h-4.1c0-3.4-2.8-6.1-6.1-6.1h-8.2c-3.4,0-6.1,2.8-6.1,6.1H497v2h-6.1
					c-2.3,0-4.1,1.8-4.1,4.1v9.2l7.2,5.1h13.3v-3h8.2v3h13.3l7.2-5.1v-9.2C535.8,220.9,533.9,219.1,531.7,219.1z M507.1,215h8.2
					c1.1,0,2,0.9,2,2v2H505v-2C505,215.9,506,215,507.1,215z"/>
				<path class="st4" d="M515.3,239.7v2h-8.2v-2h-14.2l-6.3-4.1V250c0,2.3,1.8,4.1,4.1,4.1h41c2.3,0,4.1-1.8,4.1-4.1v-14.4l-6.1,4.1
					H515.3z"/>
			</g>
		</g>
		<g>
			<path class="st3" d="M507.5,372.5v-1.2c0-1.4-1.1-2.5-2.5-2.5h-4.1c0.3-0.6,0.5-1.4,0.5-2.2c0-2.6-2.1-4.7-4.7-4.7
				s-4.6,2.1-4.6,4.7c0,0.8,0.2,1.5,0.5,2.2h-3.4c-1.4,0-2.5,1.1-2.5,2.5v1.2h-5.6c-2.1,0-3.8,1.7-3.8,3.8V414
				c0,2.1,1.7,3.8,3.8,3.8H513c2.1,0,3.8-1.7,3.8-3.8v-37.7c0-2.1-1.7-3.8-3.8-3.8H507.5z M494,366.6c0-1.5,1.2-2.8,2.8-2.8
				c1.5,0,2.8,1.2,2.8,2.8c0,0.9-0.4,1.6-1,2.2H495C494.4,368.3,494,367.5,494,366.6z M513.1,411.7c0,1.3-1,2.3-2.3,2.3h-27.3
				c-1.3,0-2.3-1-2.3-2.3v-33c0-1.3,1-2.3,2.3-2.3h3.3c0,1,0.8,1.9,1.9,1.9h17c1,0,1.9-0.8,1.9-1.9h3.3c1.3,0,2.3,1,2.3,2.3
				L513.1,411.7L513.1,411.7z"/>
			<ellipse class="st3" cx="488.1" cy="384.8" rx="3.3" ry="3.3"/>
			<path class="st3" d="M507,382.9h-11.3c-1,0-1.9,0.8-1.9,1.9c0,1,0.8,1.9,1.9,1.9H507c1,0,1.9-0.8,1.9-1.9
				C508.8,383.8,508,382.9,507,382.9z"/>
			<ellipse class="st3" cx="488.1" cy="394.3" rx="3.3" ry="3.3"/>
			<path class="st3" d="M507,392.4h-11.3c-1,0-1.9,0.9-1.9,1.9c0,1,0.8,1.9,1.9,1.9H507c1,0,1.9-0.9,1.9-1.9
				C508.8,393.2,508,392.4,507,392.4z"/>
			<ellipse class="st3" cx="488.1" cy="404.3" rx="3.3" ry="3.3"/>
			<path class="st3" d="M507,402.4h-11.3c-1,0-1.9,0.9-1.9,1.9s0.8,1.9,1.9,1.9H507c1,0,1.9-0.9,1.9-1.9
				C508.8,403.3,508,402.4,507,402.4z"/>
		</g>
		<g>
			<path class="st4" d="M364.9,85.4c-1.2,0-2.1,0.9-2.1,2.1v2.9h3.7v-0.2c0-0.7,0.6-1.3,1.3-1.3h24.1c0.7,0,1.3,0.6,1.3,1.3v17.5
				c0,0.5-0.4,0.8-0.8,0.8v3.7h2.2c1.2,0,2.1-0.9,2.1-2.1V87.5c0-1.2-0.9-2.1-2.1-2.1L364.9,85.4L364.9,85.4z"/>
			<path class="st4" d="M355.8,97.4h3.5c0-0.7,0.6-1.3,1.3-1.3h23.5c1,0,1.9,0.8,1.9,1.9v16.9c0,0.5-0.4,0.8-0.8,0.8h-0.3v3.5h2.6
				c1.2,0,2.1-0.9,2.1-2.1V94.3c0-1.1-0.9-1.9-1.9-1.9H358c-1.2,0-2.1,0.9-2.1,2.1v2.9H355.8z"/>
			<path class="st4" d="M382.5,109.4c0-2.4-1.9-4.3-4.3-4.3h-12.9l0,0l-1.3-2.9c-0.7-1.5-2.3-2.5-4-2.5h-10.6
				c-2.4,0-4.3,1.9-4.3,4.3v1v7.2v15.4c0,1.3,1.1,2.4,2.4,2.4l33,0.1c1.2,0,2.3-0.7,2.8-1.8l2.4-5.2c0.2-0.4,0.2-0.9-0.1-1.2
				c-0.2-0.4-0.6-0.6-1.1-0.6h-2L382.5,109.4L382.5,109.4z M370,119.2h-3.5v3.7h-3.7v-3.7h-3.5v-3.5h3.5v-3.5c0,0,0-0.1,0.1-0.1h3.6
				h0.1v3.5h3.5v3.6H370z"/>
		</g>
	</g>
</g>
</svg>
