<?xml version="1.0" encoding="utf-8"?>
<!-- Generator: Adobe Illustrator 20.0.0, SVG Export Plug-In . SVG Version: 6.00 Build 0)  -->
<svg version="1.1" id="Layer_1" xmlns="http://www.w3.org/2000/svg" xmlns:xlink="http://www.w3.org/1999/xlink" x="0px" y="0px"
	 viewBox="0 0 612 612" style="enable-background:new 0 0 612 612;" xml:space="preserve">
<style type="text/css">
	.st0{fill:#546E7A;}
	.st1{fill:#5EC5D2;}
	.st2{opacity:0.2;fill:url(#SVGID_1_);}
	.st3{fill:#F16D64;}
	.st4{fill:#102F55;}
	.st5{fill:#FFFFFF;}
	.st6{opacity:0.5;fill:#102F55;}
	.st7{fill:#29A9E1;}
	.st8{fill:#F2F2F2;}
	.st9{clip-path:url(#SVGID_3_);}
	.st10{fill:#5E5E5E;}
	.st11{fill:#EAEAEA;}
	.st12{fill:#F6D3B3;}
	.st13{fill:#484848;}
	.st14{fill:#855F4C;}
	.st15{fill:#CBDBDF;}
	.st16{fill:#7AA7B4;}
	.st17{fill:#E2F3F7;}
</style>
<g>
	<path class="st0" d="M182.3,356.7c-6.4-15.6-10-32.8-10-50.7c0-73.1,58.6-132.4,131.4-133.7l47-86.7L303.8,0
		C135.8,1.2,0,137.7,0,306c0,48.4,11.3,94.3,31.3,135l49.5-81.5L182.3,356.7z"/>
	<path class="st1" d="M322.5,173.3c66.1,8.1,117.3,64.4,117.3,132.7c0,24.6-6.7,47.6-18.3,67.4l50.8,82.8l99.1,2.2
		C597.2,413.5,612,361.5,612,306C612,142.8,484.3,9.5,323.4,0.5l46.7,85L322.5,173.3z"/>
	<linearGradient id="SVGID_1_" gradientUnits="userSpaceOnUse" x1="271.3027" y1="430.925" x2="389.2021" y2="430.925">
		<stop  offset="0" style="stop-color:#000000"/>
		<stop  offset="1" style="stop-color:#FFFFFF;stop-opacity:0"/>
	</linearGradient>
	<path class="st2" d="M374.4,387l14.8,25.1c0,0-24.1,42.6-56.6,62.7L271.3,387H374.4z"/>
	<path class="st3" d="M411,388.8c-24.5,31-62.4,50.9-105,50.9c-49.2,0-92.2-26.6-115.4-66.2l-100.1,2.7l-49.9,82.2
		C93.4,550.2,192.5,612,306,612c106.4,0,200.2-54.4,255-136.8l-98.4-2.1L411,388.8z"/>
	<g>
		<g>
			<path class="st4" d="M401.2,226.6H210.7c-2.6,0-5.2,1.5-5.2,4.1v131.5c0,2.6,2.6,4.6,5.2,4.6h71.2c0,0,0,12.1,0.1,12.1h-9.8
				c-2.4,0-4.3,1.8-4.3,4.2c0,2.4,1.9,4.2,4.3,4.2h70.1c2.4,0,4.3-1.8,4.3-4.2c0-2.4-1.9-4.2-4.3-4.2H332c0,0-0.1-12.1-0.1-12.1
				h69.3c2.6,0,5.1-2,5.1-4.6V230.7C406.4,228.1,403.8,226.6,401.2,226.6z"/>
			<path class="st5" d="M398,345c0,2.7-2.2,5-5,5H219c-2.7,0-5-2.2-5-5V240c0-2.7,2.2-5,5-5H393c2.7,0,5,2.2,5,5V345z"/>
		</g>
		<g>
			<circle class="st6" cx="360.6" cy="309.4" r="40.8"/>
			<circle class="st7" cx="358.2" cy="304" r="40.8"/>
			<path class="st8" d="M358.2,263.2v81.6c22.5,0,40.8-18.3,40.8-40.8C399,281.5,380.8,263.2,358.2,263.2z"/>
			<g>
				<defs>
					<circle id="SVGID_2_" cx="358.2" cy="304" r="40.8"/>
				</defs>
				<clipPath id="SVGID_3_">
					<use xlink:href="#SVGID_2_"  style="overflow:visible;"/>
				</clipPath>
				<g class="st9">
					<polygon class="st5" points="386.2,319.4 368.5,311.6 359.5,311.6 350.6,311.6 332.8,319.4 328.9,345 359.5,345 390.1,345 
											"/>
					<polygon class="st10" points="360.8,314.7 359.5,314.7 358.3,314.7 355,326.5 359.5,337 364,326.5 					"/>
					<g>
						<polygon class="st11" points="350.6,311.6 359.5,337 347.8,326.1 351.5,321.5 344.2,321.4 344.2,314.4 						"/>
						<polygon class="st11" points="368.5,311.6 359.5,337 371.2,326.1 367.5,321.5 374.9,321.4 374.9,314.4 						"/>
					</g>
					<g>
						<polygon class="st5" points="350.5,311.6 353.9,308.7 359.5,308.7 353,318.7 						"/>
						<polygon class="st5" points="368.5,311.6 365.1,308.7 359.5,308.7 366,318.7 						"/>
					</g>
					<polygon class="st10" points="359.5,308.7 355.8,314.4 359.5,317.8 363.2,314.4 					"/>
					<g>
						<ellipse class="st12" cx="346.7" cy="295.2" rx="2.5" ry="3.8"/>
						<ellipse class="st12" cx="372.7" cy="295.2" rx="2.5" ry="3.8"/>
					</g>
					<path class="st12" d="M372.7,291.7c0,9.1-5.9,19.9-13.2,19.9c-7.3,0-13.2-10.7-13.2-19.9c0-9.1,5.9-13.2,13.2-13.2
						C366.8,278.5,372.7,282.6,372.7,291.7z"/>
					<g>
						<polygon class="st13" points="371.6,296.1 367.8,297 367.8,295.6 371.6,294.8 						"/>
						<polygon class="st13" points="347.4,296.1 351.2,297 351.2,295.6 347.4,294.8 						"/>
					</g>
					<path class="st14" d="M372.1,298.1h-1c0,0,0-4.7,0-5.9c0-1.3,0.5-2.4,0.5-5s-2.7-5.1-4.2-5l0.5-5.3c0,0,11.3,3.6,6.9,16.3
						C374.9,293.1,372.1,293.1,372.1,298.1z"/>
					<path class="st14" d="M344.2,280.8c1.7-3.6,6.1-7.5,13.2-7.9c9.9-0.6,10.6,3.9,10.6,3.9l-0.5,5.3c0,0-0.3,4-7.5,4.2
						c-7.2,0.1-13-0.7-12.6,2.2c0,0,0,0,0,0c0.2,1.1,0.2,1.8,0.3,2.3c0,0.2,0.1,0.4,0.1,0.5l0,0l0,0c0,0.1,0,0.2,0,0.3l0,0l0,0
						c0,0.2,0,0.4,0,0.6c0,1.3,0,5.9,0,5.9h-1c0-5-2.3-5-2.3-5C343.8,291,341.9,285.5,344.2,280.8z"/>
					<rect x="356.2" y="295.9" class="st13" width="6.4" height="1.3"/>
					<circle class="st5" cx="353.7" cy="296.4" r="4.3"/>
					<circle class="st5" cx="365.3" cy="296.4" r="4.3"/>
					<circle class="st5" cx="365.3" cy="296.4" r="4.3"/>
					<rect x="370.3" y="331.2" class="st15" width="9" height="4.5"/>
					<rect x="370.3" y="331.2" class="st16" width="9" height="1.4"/>
					<path class="st17" d="M353.7,292.1c-2.4,0-4.3,1.9-4.3,4.3c0,1.2,0.5,2.3,1.3,3l6.2-6.1C356,292.6,354.9,292.1,353.7,292.1z"/>
					<path class="st17" d="M365.3,292.1c-2.4,0-4.3,1.9-4.3,4.3c0,1.2,0.5,2.3,1.3,3.1l6.2-6.1C367.6,292.6,366.5,292.1,365.3,292.1
						z"/>
					<g>
						<g>
							<path class="st13" d="M353.7,301.1c-2.6,0-4.7-2.1-4.7-4.7c0-2.6,2.1-4.7,4.7-4.7c2.6,0,4.7,2.1,4.7,4.7
								C358.4,299,356.3,301.1,353.7,301.1z M353.7,292.4c-2.2,0-4,1.8-4,4s1.8,4,4,4c2.2,0,4-1.8,4-4S355.9,292.4,353.7,292.4z"/>
						</g>
						<g>
							<path class="st13" d="M365.3,301.1c-2.6,0-4.7-2.1-4.7-4.7c0-2.6,2.1-4.7,4.7-4.7c2.6,0,4.7,2.1,4.7,4.7
								C370,299,367.9,301.1,365.3,301.1z M365.3,292.4c-2.2,0-4,1.8-4,4s1.8,4,4,4c2.2,0,4-1.8,4-4S367.5,292.4,365.3,292.4z"/>
						</g>
					</g>
				</g>
			</g>
		</g>
		<g>
			<g>
				<path class="st4" d="M256.5,292c-1,0.5-2.9,1-5.4,1c-5.8,0-10.1-3.7-10.1-10.4c0-6.4,4.4-10.8,10.7-10.8c2.6,0,4.2,0.5,4.9,0.9
					l-0.6,2.2c-1-0.5-2.4-0.9-4.1-0.9c-4.8,0-8,3.1-8,8.5c0,5,2.9,8.2,7.9,8.2c1.6,0,3.3-0.3,4.3-0.9L256.5,292z"/>
				<path class="st4" d="M259.9,272.4c1.3-0.3,3.3-0.4,5.1-0.4c2.8,0,4.7,0.5,5.9,1.7c1,0.9,1.6,2.3,1.6,3.9c0,2.7-1.7,4.5-3.9,5.2
					v0.1c1.6,0.5,2.5,2,3,4.1c0.7,2.9,1.2,4.8,1.6,5.6h-2.7c-0.3-0.6-0.8-2.3-1.4-4.9c-0.6-2.8-1.7-3.9-4.1-4h-2.5v8.9h-2.6V272.4z
					 M262.5,281.8h2.7c2.8,0,4.6-1.6,4.6-3.9c0-2.6-1.9-3.8-4.7-3.8c-1.3,0-2.2,0.1-2.6,0.2V281.8z"/>
				<path class="st4" d="M293.5,283.7c-0.2-2.9-0.3-6.3-0.3-8.9h-0.1c-0.7,2.4-1.6,5-2.6,7.8l-3.6,9.9h-2l-3.3-9.8
					c-1-2.9-1.8-5.5-2.4-8h-0.1c-0.1,2.6-0.2,6-0.4,9.1l-0.5,8.8h-2.5l1.4-20.5h3.4l3.5,9.9c0.9,2.5,1.6,4.8,2.1,6.9h0.1
					c0.5-2.1,1.2-4.3,2.2-6.9l3.7-9.9h3.4l1.3,20.5H294L293.5,283.7z"/>
				<path class="st4" d="M246.7,320.6L240,300h2.9l3.2,10.1c0.9,2.8,1.6,5.3,2.2,7.7h0.1c0.6-2.4,1.4-5,2.3-7.6l3.5-10.1h2.8
					l-7.3,20.5H246.7z"/>
				<path class="st4" d="M265.3,317.5c0.8,0.5,2.5,1.2,4.4,1.2c3.4,0,4.5-2.2,4.5-3.8c0-2.8-2.5-4-5.1-4h-1.5v-2h1.5
					c1.9,0,4.4-1,4.4-3.3c0-1.6-1-3-3.5-3c-1.6,0-3.1,0.7-4,1.3l-0.7-1.9c1-0.8,3-1.5,5.2-1.5c3.9,0,5.7,2.3,5.7,4.7
					c0,2-1.2,3.8-3.7,4.7v0.1c2.4,0.5,4.4,2.3,4.4,5.1c0,3.2-2.5,5.9-7.2,5.9c-2.2,0-4.2-0.7-5.1-1.3L265.3,317.5z"/>
				<path class="st4" d="M280.5,319c0-1.1,0.8-1.9,1.8-1.9s1.8,0.8,1.8,1.9c0,1.1-0.7,1.9-1.8,1.9
					C281.2,320.9,280.5,320.1,280.5,319z"/>
				<path class="st4" d="M299.7,310.5c0,6.7-2.5,10.4-6.9,10.4c-3.9,0-6.5-3.6-6.5-10.2c0-6.6,2.9-10.3,6.9-10.3
					C297.4,300.4,299.7,304.2,299.7,310.5z M289,310.8c0,5.1,1.6,8.1,4,8.1c2.7,0,4-3.2,4-8.2c0-4.9-1.2-8.1-4-8.1
					C290.7,302.5,289,305.4,289,310.8z"/>
			</g>
		</g>
	</g>
	<g>
		<g id="building_54_">
			<path class="st5" d="M200.5,89.2h-67l6.7-6.7h16.8l3.4-3.4h13.4l3.4,3.4h16.8L200.5,89.2z M207.2,162.9v3.4h-33.5v-10.1h-13.4
				v10.1h-33.5v-3.4h3.4v-3.4h3.4v-67h67v67h3.4v3.4H207.2z M156.9,142.8h-13.4v6.7h13.4V142.8z M156.9,129.4h-13.4v6.7h13.4V129.4z
				 M156.9,116h-13.4v6.7h13.4V116z M156.9,102.6h-13.4v6.7h13.4V102.6z M173.7,142.8h-13.4v6.7h13.4V142.8z M173.7,129.4h-13.4v6.7
				h13.4V129.4z M173.7,116h-13.4v6.7h13.4V116z M173.7,102.6h-13.4v6.7h13.4V102.6z M190.5,142.8h-13.4v6.7h13.4V142.8z
				 M190.5,129.4h-13.4v6.7h13.4V129.4z M190.5,116h-13.4v6.7h13.4V116z M190.5,102.6h-13.4v6.7h13.4V102.6z"/>
		</g>
		<g>
			<path class="st5" d="M84.9,210.2c-0.7,0.4-2.2,0.7-4,0.7c-4.3,0-7.5-2.7-7.5-7.7c0-4.8,3.2-8,7.9-8c1.9,0,3.1,0.4,3.6,0.7
				l-0.5,1.6c-0.7-0.4-1.8-0.6-3.1-0.6c-3.6,0-5.9,2.3-5.9,6.3c0,3.7,2.1,6.1,5.8,6.1c1.2,0,2.4-0.2,3.2-0.6L84.9,210.2z"/>
			<path class="st5" d="M87.3,194.7h2v16h-2V194.7z"/>
			<path class="st5" d="M101.7,207.7c0,1.1,0,2.1,0.1,3h-1.8l-0.1-1.8h0c-0.5,0.9-1.7,2-3.6,2c-1.7,0-3.8-0.9-3.8-4.8v-6.4h2v6
				c0,2.1,0.6,3.5,2.4,3.5c1.3,0,2.3-0.9,2.6-1.8c0.1-0.3,0.2-0.7,0.2-1v-6.7h2V207.7z"/>
			<path class="st5" d="M104.9,210.7c0-0.7,0.1-1.8,0.1-2.8v-13.2h2v6.9h0c0.7-1.2,2-2,3.7-2c2.7,0,4.6,2.3,4.6,5.6
				c0,3.9-2.5,5.8-4.9,5.8c-1.6,0-2.8-0.6-3.7-2.1h-0.1l-0.1,1.8H104.9z M107,206.3c0,0.2,0,0.5,0.1,0.7c0.4,1.4,1.5,2.3,3,2.3
				c2.1,0,3.3-1.7,3.3-4.2c0-2.2-1.1-4.1-3.2-4.1c-1.4,0-2.6,0.9-3,2.4c0,0.2-0.1,0.5-0.1,0.8V206.3z"/>
			<path class="st5" d="M48.1,231.1c-0.1-2.1-0.2-4.7-0.2-6.6h-0.1c-0.5,1.8-1.1,3.7-1.9,5.8l-2.7,7.4h-1.5l-2.5-7.2
				c-0.7-2.1-1.3-4.1-1.8-5.9h0c0,1.9-0.2,4.4-0.3,6.7l-0.4,6.5h-1.9l1.1-15.2h2.5l2.6,7.4c0.6,1.9,1.2,3.5,1.5,5.1h0.1
				c0.4-1.5,0.9-3.2,1.6-5.1l2.7-7.4h2.5l0.9,15.2h-1.9L48.1,231.1z"/>
			<path class="st5" d="M59.5,237.7l-0.2-1.4h-0.1c-0.6,0.9-1.8,1.6-3.3,1.6c-2.2,0-3.3-1.6-3.3-3.1c0-2.6,2.3-4.1,6.6-4.1v-0.2
				c0-0.9-0.2-2.5-2.5-2.5c-1,0-2.1,0.3-2.8,0.8l-0.5-1.3c0.9-0.6,2.2-1,3.6-1c3.3,0,4.1,2.3,4.1,4.5v4.1c0,0.9,0,1.9,0.2,2.6H59.5z
				 M59.2,232.2c-2.2,0-4.6,0.3-4.6,2.5c0,1.3,0.9,1.9,1.9,1.9c1.4,0,2.3-0.9,2.6-1.8c0.1-0.2,0.1-0.4,0.1-0.6V232.2z"/>
			<path class="st5" d="M64.4,229.8c0-1.1,0-2.1-0.1-3H66l0.1,1.8h0c0.5-1,1.8-2.1,3.6-2.1c1.5,0,3.9,0.9,3.9,4.6v6.5h-2v-6.3
				c0-1.8-0.7-3.2-2.5-3.2c-1.3,0-2.3,0.9-2.7,2c-0.1,0.2-0.1,0.6-0.1,0.9v6.6h-2V229.8z"/>
			<path class="st5" d="M82.9,237.7l-0.2-1.4h-0.1c-0.6,0.9-1.8,1.6-3.3,1.6c-2.2,0-3.3-1.6-3.3-3.1c0-2.6,2.3-4.1,6.6-4.1v-0.2
				c0-0.9-0.2-2.5-2.5-2.5c-1,0-2.1,0.3-2.8,0.8l-0.5-1.3c0.9-0.6,2.2-1,3.6-1c3.3,0,4.1,2.3,4.1,4.5v4.1c0,0.9,0,1.9,0.2,2.6H82.9z
				 M82.6,232.2c-2.2,0-4.6,0.3-4.6,2.5c0,1.3,0.9,1.9,1.9,1.9c1.4,0,2.3-0.9,2.6-1.8c0.1-0.2,0.1-0.4,0.1-0.6V232.2z"/>
			<path class="st5" d="M97.1,226.8c0,0.8-0.1,1.7-0.1,3v6.3c0,2.5-0.5,4-1.6,5c-1.1,1-2.6,1.3-4,1.3c-1.3,0-2.8-0.3-3.6-0.9
				l0.5-1.5c0.7,0.5,1.8,0.9,3.2,0.9c2,0,3.5-1.1,3.5-3.8v-1.2h0c-0.6,1-1.8,1.8-3.5,1.8c-2.7,0-4.6-2.3-4.6-5.3
				c0-3.7,2.4-5.8,4.9-5.8c1.9,0,2.9,1,3.4,1.9h0l0.1-1.6H97.1z M95.1,231.1c0-0.3,0-0.6-0.1-0.9c-0.4-1.2-1.3-2.1-2.8-2.1
				c-1.9,0-3.2,1.6-3.2,4.1c0,2.1,1.1,3.9,3.2,3.9c1.2,0,2.3-0.8,2.8-2c0.1-0.3,0.2-0.7,0.2-1.1V231.1z"/>
			<path class="st5" d="M101.4,232.6c0,2.7,1.8,3.8,3.7,3.8c1.4,0,2.3-0.2,3-0.6l0.3,1.4c-0.7,0.3-1.9,0.7-3.6,0.7
				c-3.4,0-5.4-2.2-5.4-5.5c0-3.3,1.9-5.9,5.1-5.9c3.6,0,4.5,3.1,4.5,5.1c0,0.4,0,0.7-0.1,0.9H101.4z M107.3,231.2
				c0-1.3-0.5-3.2-2.8-3.2c-2,0-2.9,1.8-3,3.2H107.3z"/>
			<path class="st5" d="M111.6,229.8c0-1.1,0-2.1-0.1-3h1.7l0.1,1.8h0.1c0.6-1,1.6-2,3.4-2c1.5,0,2.6,0.9,3.1,2.2h0
				c0.3-0.6,0.8-1.1,1.2-1.4c0.7-0.5,1.4-0.8,2.4-0.8c1.4,0,3.6,0.9,3.6,4.7v6.4h-1.9v-6.2c0-2.1-0.8-3.4-2.4-3.4
				c-1.1,0-2,0.8-2.3,1.8c-0.1,0.3-0.2,0.6-0.2,1v6.7h-1.9v-6.5c0-1.7-0.8-3-2.3-3c-1.2,0-2.1,1-2.5,2c-0.1,0.3-0.2,0.6-0.2,1v6.6
				h-1.9V229.8z"/>
			<path class="st5" d="M131.5,232.6c0,2.7,1.8,3.8,3.7,3.8c1.4,0,2.3-0.2,3-0.6l0.3,1.4c-0.7,0.3-1.9,0.7-3.6,0.7
				c-3.4,0-5.4-2.2-5.4-5.5c0-3.3,1.9-5.9,5.1-5.9c3.6,0,4.5,3.1,4.5,5.1c0,0.4,0,0.7-0.1,0.9H131.5z M137.4,231.2
				c0-1.3-0.5-3.2-2.8-3.2c-2,0-2.9,1.8-3,3.2H137.4z"/>
			<path class="st5" d="M141.7,229.8c0-1.1,0-2.1-0.1-3h1.8l0.1,1.8h0c0.5-1,1.8-2.1,3.6-2.1c1.5,0,3.9,0.9,3.9,4.6v6.5h-2v-6.3
				c0-1.8-0.7-3.2-2.5-3.2c-1.3,0-2.3,0.9-2.7,2c-0.1,0.2-0.1,0.6-0.1,0.9v6.6h-2V229.8z"/>
			<path class="st5" d="M156.6,223.7v3.1h2.8v1.5h-2.8v5.9c0,1.4,0.4,2.1,1.5,2.1c0.5,0,0.9-0.1,1.2-0.1l0.1,1.5
				c-0.4,0.2-1,0.3-1.8,0.3c-0.9,0-1.7-0.3-2.1-0.8c-0.6-0.6-0.8-1.6-0.8-2.8v-6h-1.7v-1.5h1.7v-2.6L156.6,223.7z"/>
		</g>
	</g>
	<g>
		<g id="group_7_">
			<path class="st5" d="M522.5,201.3c0,3.5,0,8.3,0,8.3c0,0.5-0.4,1.1-0.9,1.1H447c-0.5,0-0.9-0.6-0.9-1.1c0,0,0-4.8,0-8.3
				c0-3.5,0.7-4.9,3.3-6.4c2.1-1.2,16.5-9.5,23.2-12.4V170c-2.1-1.5-3.3-3.8-3.3-7.4c0-8.3,0-9.9,0-9.9c0-8.2,5-14.9,14.9-14.9
				s14.9,6.7,14.9,14.9v9.9c0,3.5-1.2,5.9-3.3,7.4v12.5c7.2,2.9,21.1,11.1,23.2,12.4C521.8,196.3,522.5,197.8,522.5,201.3z
				 M447,190.5l0.5-0.3c7.6-4.3,13.6-7.6,18.1-9.9c-2.1-1-4.2-1.9-6.1-2.5v-8.7c3.3-1,3.3-2.7,3.3-5.1v-5.9c0-5.7-3-10.4-10-10.4
				c-6.9,0-10,4.7-10,10.4c0,0,0,0.1,0,5.9c0,2.5,0,4.1,3.3,5.2v8.7c-6.6,2-15.4,7.8-16.9,8.6c-1.8,1-3,2-3,4.5c0,2.4,0,5.8,0,5.8
				c0,0.3,0.3,0.8,0.6,0.8h14.7C442.1,194.7,443.6,192.4,447,190.5z M539.3,186.4c-1.5-0.8-10.2-6.6-16.9-8.6v-8.7
				c3.3-1,3.3-2.7,3.3-5.1v-5.9c0-5.7-3-10.4-10-10.4c-6.9,0-10,4.7-10,10.4c0,0,0,0.1,0,5.9c0,2.5,0,4.1,3.3,5.2v8.7
				c-1.9,0.6-4,1.5-6.1,2.5c6.4,3.2,13.9,7.6,17.3,9.5l1.2,0.7c3.4,1.9,4.9,4.2,5.5,7h14.7c0.3,0,0.6-0.4,0.6-0.8c0,0,0-3.3,0-5.8
				C542.4,188.5,541.2,187.5,539.3,186.4z"/>
		</g>
		<g>
			<g>
				<path class="st5" d="M504.1,249.3c-0.1-2.1-0.2-4.7-0.2-6.6h-0.1c-0.5,1.8-1.2,3.7-1.9,5.8l-2.7,7.4h-1.5l-2.5-7.2
					c-0.7-2.1-1.3-4.1-1.8-5.9h0c0,1.9-0.2,4.4-0.3,6.7l-0.4,6.5h-1.9l1.1-15.2h2.5l2.6,7.4c0.6,1.9,1.2,3.5,1.5,5.1h0.1
					c0.4-1.5,0.9-3.2,1.6-5.1l2.7-7.4h2.5l0.9,15.2h-1.9L504.1,249.3z"/>
				<path class="st5" d="M510.6,250.9c0,2.7,1.8,3.8,3.7,3.8c1.4,0,2.3-0.2,3-0.6l0.3,1.4c-0.7,0.3-1.9,0.7-3.6,0.7
					c-3.4,0-5.4-2.2-5.4-5.5c0-3.3,1.9-5.9,5.1-5.9c3.6,0,4.5,3.1,4.5,5.1c0,0.4,0,0.7-0.1,0.9H510.6z M516.4,249.5
					c0-1.3-0.5-3.2-2.8-3.2c-2,0-2.9,1.8-3,3.2H516.4z"/>
				<path class="st5" d="M520.8,248c0-1.1,0-2.1-0.1-3h1.7l0.1,1.8h0.1c0.6-1,1.6-2,3.4-2c1.5,0,2.6,0.9,3.1,2.2h0
					c0.3-0.6,0.8-1.1,1.2-1.4c0.7-0.5,1.4-0.8,2.4-0.8c1.4,0,3.6,0.9,3.6,4.7v6.4h-1.9v-6.2c0-2.1-0.8-3.4-2.4-3.4
					c-1.1,0-2,0.8-2.3,1.8c-0.1,0.3-0.2,0.6-0.2,1v6.7h-1.9v-6.5c0-1.7-0.8-3-2.3-3c-1.2,0-2.1,1-2.5,2c-0.1,0.3-0.2,0.6-0.2,1v6.6
					h-1.9V248z"/>
				<path class="st5" d="M539.5,256c0-0.7,0.1-1.8,0.1-2.8V240h2v6.9h0c0.7-1.2,2-2,3.7-2c2.7,0,4.6,2.3,4.6,5.6
					c0,3.9-2.5,5.8-4.9,5.8c-1.6,0-2.8-0.6-3.7-2.1h-0.1l-0.1,1.8H539.5z M541.6,251.6c0,0.2,0,0.5,0.1,0.7c0.4,1.4,1.5,2.3,3,2.3
					c2.1,0,3.3-1.7,3.3-4.2c0-2.2-1.1-4.1-3.2-4.1c-1.4,0-2.6,0.9-3,2.4c0,0.2-0.1,0.5-0.1,0.8V251.6z"/>
				<path class="st5" d="M553.5,250.9c0,2.7,1.8,3.8,3.7,3.8c1.4,0,2.3-0.2,3-0.6l0.3,1.4c-0.7,0.3-1.9,0.7-3.6,0.7
					c-3.4,0-5.4-2.2-5.4-5.5c0-3.3,1.9-5.9,5.1-5.9c3.6,0,4.5,3.1,4.5,5.1c0,0.4,0,0.7-0.1,0.9H553.5z M559.3,249.5
					c0-1.3-0.5-3.2-2.8-3.2c-2,0-2.9,1.8-3,3.2H559.3z"/>
				<path class="st5" d="M563.7,248.5c0-1.3,0-2.4-0.1-3.4h1.7l0.1,2.1h0.1c0.5-1.5,1.7-2.4,3-2.4c0.2,0,0.4,0,0.6,0.1v1.9
					c-0.2,0-0.4-0.1-0.7-0.1c-1.4,0-2.4,1.1-2.7,2.5c0,0.3-0.1,0.6-0.1,0.9v5.8h-2V248.5z"/>
				<path class="st5" d="M483.2,276.4c-0.1-2.1-0.2-4.7-0.2-6.6h-0.1c-0.5,1.8-1.2,3.7-1.9,5.8l-2.7,7.4h-1.5l-2.5-7.2
					c-0.7-2.1-1.3-4.1-1.8-5.9h0c0,1.9-0.2,4.4-0.3,6.7l-0.4,6.5H470l1.1-15.2h2.5l2.6,7.4c0.6,1.9,1.2,3.5,1.5,5.1h0.1
					c0.4-1.5,0.9-3.2,1.6-5.1l2.7-7.4h2.5l0.9,15.2h-1.9L483.2,276.4z"/>
				<path class="st5" d="M494.7,283.1l-0.2-1.4h-0.1c-0.6,0.9-1.8,1.6-3.3,1.6c-2.2,0-3.3-1.6-3.3-3.1c0-2.6,2.3-4.1,6.6-4.1v-0.2
					c0-0.9-0.2-2.5-2.5-2.5c-1,0-2.1,0.3-2.8,0.8l-0.5-1.3c0.9-0.6,2.2-1,3.6-1c3.3,0,4.2,2.3,4.2,4.5v4.1c0,0.9,0,1.9,0.2,2.6
					H494.7z M494.4,277.5c-2.2,0-4.6,0.3-4.6,2.5c0,1.3,0.9,1.9,1.9,1.9c1.4,0,2.3-0.9,2.6-1.8c0.1-0.2,0.1-0.4,0.1-0.6V277.5z"/>
				<path class="st5" d="M499.5,275.1c0-1.1,0-2.1-0.1-3h1.8l0.1,1.8h0c0.5-1,1.8-2.1,3.6-2.1c1.5,0,3.9,0.9,3.9,4.6v6.5h-2v-6.3
					c0-1.8-0.7-3.2-2.5-3.2c-1.3,0-2.3,0.9-2.7,2c-0.1,0.2-0.1,0.6-0.1,0.9v6.6h-2V275.1z"/>
				<path class="st5" d="M518,283.1l-0.2-1.4h-0.1c-0.6,0.9-1.8,1.6-3.3,1.6c-2.2,0-3.3-1.6-3.3-3.1c0-2.6,2.3-4.1,6.6-4.1v-0.2
					c0-0.9-0.2-2.5-2.5-2.5c-1,0-2.1,0.3-2.8,0.8l-0.5-1.3c0.9-0.6,2.2-1,3.6-1c3.3,0,4.2,2.3,4.2,4.5v4.1c0,0.9,0,1.9,0.2,2.6H518z
					 M517.7,277.5c-2.2,0-4.6,0.3-4.6,2.5c0,1.3,0.9,1.9,1.9,1.9c1.4,0,2.3-0.9,2.6-1.8c0.1-0.2,0.1-0.4,0.1-0.6V277.5z"/>
				<path class="st5" d="M532.3,272.1c0,0.8-0.1,1.7-0.1,3v6.3c0,2.5-0.5,4-1.6,5c-1.1,1-2.6,1.3-4,1.3c-1.3,0-2.8-0.3-3.6-0.9
					l0.5-1.5c0.7,0.5,1.8,0.9,3.2,0.9c2,0,3.5-1.1,3.5-3.8v-1.2h0c-0.6,1-1.8,1.8-3.5,1.8c-2.7,0-4.6-2.3-4.6-5.3
					c0-3.7,2.4-5.8,4.9-5.8c1.9,0,2.9,1,3.4,1.9h0l0.1-1.6H532.3z M530.2,276.4c0-0.3,0-0.6-0.1-0.9c-0.4-1.2-1.3-2.1-2.8-2.1
					c-1.9,0-3.2,1.6-3.2,4.1c0,2.1,1.1,3.9,3.2,3.9c1.2,0,2.3-0.8,2.8-2c0.1-0.3,0.2-0.7,0.2-1.1V276.4z"/>
				<path class="st5" d="M536.6,278c0,2.7,1.8,3.8,3.7,3.8c1.4,0,2.3-0.2,3-0.6l0.3,1.4c-0.7,0.3-1.9,0.7-3.6,0.7
					c-3.4,0-5.4-2.2-5.4-5.5c0-3.3,1.9-5.9,5.1-5.9c3.6,0,4.5,3.1,4.5,5.1c0,0.4,0,0.7-0.1,0.9H536.6z M542.4,276.5
					c0-1.3-0.5-3.2-2.8-3.2c-2,0-2.9,1.8-3,3.2H542.4z"/>
				<path class="st5" d="M546.8,275.1c0-1.1,0-2.1-0.1-3h1.7l0.1,1.8h0.1c0.6-1,1.6-2,3.4-2c1.5,0,2.6,0.9,3.1,2.2h0
					c0.3-0.6,0.8-1.1,1.2-1.4c0.7-0.5,1.4-0.8,2.4-0.8c1.4,0,3.6,0.9,3.6,4.7v6.4h-1.9v-6.2c0-2.1-0.8-3.4-2.4-3.4
					c-1.1,0-2,0.8-2.3,1.8c-0.1,0.3-0.2,0.6-0.2,1v6.7h-1.9v-6.5c0-1.7-0.8-3-2.3-3c-1.2,0-2.1,1-2.5,2c-0.1,0.3-0.2,0.6-0.2,1v6.6
					h-1.9V275.1z"/>
				<path class="st5" d="M566.7,278c0,2.7,1.8,3.8,3.7,3.8c1.4,0,2.3-0.2,3-0.6l0.3,1.4c-0.7,0.3-1.9,0.7-3.6,0.7
					c-3.4,0-5.4-2.2-5.4-5.5c0-3.3,1.9-5.9,5.1-5.9c3.6,0,4.5,3.1,4.5,5.1c0,0.4,0,0.7-0.1,0.9H566.7z M572.5,276.5
					c0-1.3-0.5-3.2-2.8-3.2c-2,0-2.9,1.8-3,3.2H572.5z"/>
				<path class="st5" d="M576.9,275.1c0-1.1,0-2.1-0.1-3h1.8l0.1,1.8h0c0.5-1,1.8-2.1,3.6-2.1c1.5,0,3.9,0.9,3.9,4.6v6.5h-2v-6.3
					c0-1.8-0.7-3.2-2.5-3.2c-1.3,0-2.3,0.9-2.7,2c-0.1,0.2-0.1,0.6-0.1,0.9v6.6h-2V275.1z"/>
				<path class="st5" d="M591.7,269v3.1h2.8v1.5h-2.8v5.9c0,1.4,0.4,2.1,1.5,2.1c0.5,0,0.9-0.1,1.2-0.1l0.1,1.5
					c-0.4,0.2-1,0.3-1.8,0.3c-0.9,0-1.7-0.3-2.1-0.8c-0.6-0.6-0.8-1.6-0.8-2.8v-6H588v-1.5h1.7v-2.6L591.7,269z"/>
			</g>
		</g>
	</g>
	<g>
		<g>
			<g id="tags">
				<path class="st5" d="M272.7,539.3l-29.1,29.1c-0.6,0.6-1.7,0.4-2.3-0.3l-5.2-5.3l23.6-23.6c1.7-1.7,1.6-3,0-4.6l-44-43.9h9.9
					c0.9,0,3,0.3,3.5,0.6c0.5,0.3,1.5,1.1,2.1,1.7l41.6,41.6C273.9,535.8,274.1,537.9,272.7,539.3z"/>
				<path class="st5" d="M210.3,491.9c-0.6-0.6-1.9-1.2-2.8-1.2h-29.2c-0.9,0-1.6,0.7-1.6,1.6v29.2c0,0.9,0.5,2.2,1.2,2.8l43.9,43.9
					c0.6,0.6,1.7,0.6,2.3,0l30.2-30.2c0.6-0.6,0.6-1.7,0-2.3L210.3,491.9z M197.7,511.8c-2.6,2.6-6.7,2.6-9.3,0
					c-2.6-2.6-2.6-6.7,0-9.3c2.6-2.6,6.7-2.6,9.3,0C200.2,505,200.2,509.2,197.7,511.8z"/>
			</g>
			<g id="usd_8_">
				<path class="st3" d="M230.6,528.5c-5.1-5.1-10.9-1.3-12.8-0.2c-0.6,0.4-0.7,0.2-1.8,1.1l-5.4-5.3c2.4-1.7,4-1,6.2,1l4.4-4.4
					c-5.1-5.1-10.1-4.2-14.6-0.5l-1.7-1.7l-2,2.1l1.6,1.6c-3,3.8-4.1,9.3,0.1,13.4c4.2,4.2,8.6,2.4,12.5,0.1
					c0.2-0.1,0.4-0.2,0.6-0.4l6.2,6.1c-2.1,1.1-4.2,1.2-6.3-0.9l-4.4,4.4c4.1,4.1,10.2,3.9,14.7,0.4l1.7,1.6l2-2.1l-1.6-1.6
					C234.7,537.9,234.4,532.4,230.6,528.5z M208.6,530.8c-1.5-1.5-1.2-3.3-0.2-4.7l4.7,4.7C210.7,532,209.8,531.9,208.6,530.8z
					 M226.2,539.6l-5.6-5.6c2.6-1.5,4.3-1.8,5.9-0.3C228.4,535.7,228,537.4,226.2,539.6z"/>
			</g>
		</g>
		<g>
			<g>
				<path class="st5" d="M304.1,509.8c0.9-0.2,2.2-0.3,3.8-0.3c1.9,0,3.4,0.5,4.3,1.3c0.8,0.7,1.3,1.8,1.3,3.2
					c0,1.4-0.4,2.5-1.2,3.2c-1,1.1-2.7,1.7-4.6,1.7c-0.6,0-1.1,0-1.6-0.1v6.1h-2V509.8z M306.1,517.2c0.4,0.1,1,0.2,1.6,0.2
					c2.4,0,3.8-1.2,3.8-3.2c0-2-1.4-3-3.6-3c-0.9,0-1.5,0.1-1.8,0.2V517.2z"/>
				<path class="st5" d="M321.5,524.9l-0.2-1.4h-0.1c-0.6,0.9-1.8,1.6-3.3,1.6c-2.2,0-3.3-1.6-3.3-3.1c0-2.6,2.3-4.1,6.6-4.1v-0.2
					c0-0.9-0.2-2.5-2.5-2.5c-1,0-2.1,0.3-2.8,0.8l-0.5-1.3c0.9-0.6,2.2-1,3.6-1c3.3,0,4.2,2.3,4.2,4.5v4.1c0,0.9,0,1.9,0.2,2.6
					H321.5z M321.2,519.3c-2.2,0-4.6,0.3-4.6,2.5c0,1.3,0.9,1.9,1.9,1.9c1.4,0,2.3-0.9,2.6-1.8c0.1-0.2,0.1-0.4,0.1-0.6V519.3z"/>
				<path class="st5" d="M326.9,513.9l2.4,6.4c0.2,0.7,0.5,1.6,0.7,2.2h0c0.2-0.7,0.4-1.5,0.7-2.3l2.2-6.4h2.1l-3,7.8
					c-1.4,3.7-2.4,5.7-3.7,6.8c-1,0.9-1.9,1.2-2.4,1.3l-0.5-1.7c0.5-0.2,1.2-0.5,1.7-1c0.5-0.4,1.2-1.2,1.7-2.2
					c0.1-0.2,0.2-0.4,0.2-0.5c0-0.1,0-0.3-0.1-0.5l-4-10.1H326.9z"/>
				<path class="st5" d="M336.8,516.9c0-1.1,0-2.1-0.1-3h1.7l0.1,1.8h0.1c0.6-1,1.6-2,3.4-2c1.5,0,2.6,0.9,3.1,2.2h0
					c0.3-0.6,0.8-1.1,1.2-1.4c0.7-0.5,1.4-0.8,2.4-0.8c1.4,0,3.6,0.9,3.6,4.7v6.4h-1.9v-6.2c0-2.1-0.8-3.4-2.4-3.4
					c-1.1,0-2,0.8-2.3,1.8c-0.1,0.3-0.2,0.6-0.2,1v6.7h-1.9v-6.5c0-1.7-0.8-3-2.3-3c-1.2,0-2.1,1-2.5,2c-0.1,0.3-0.2,0.6-0.2,1v6.6
					h-1.9V516.9z"/>
				<path class="st5" d="M356.7,519.8c0,2.7,1.8,3.8,3.7,3.8c1.4,0,2.3-0.2,3-0.6l0.3,1.4c-0.7,0.3-1.9,0.7-3.6,0.7
					c-3.4,0-5.4-2.2-5.4-5.5s1.9-5.9,5.1-5.9c3.6,0,4.5,3.1,4.5,5.1c0,0.4,0,0.7-0.1,0.9H356.7z M362.5,518.3c0-1.3-0.5-3.2-2.8-3.2
					c-2,0-2.9,1.8-3,3.2H362.5z"/>
				<path class="st5" d="M366.9,516.9c0-1.1,0-2.1-0.1-3h1.8l0.1,1.8h0c0.5-1,1.8-2.1,3.6-2.1c1.5,0,3.9,0.9,3.9,4.6v6.5h-2v-6.3
					c0-1.8-0.7-3.2-2.5-3.2c-1.3,0-2.3,0.9-2.7,2c-0.1,0.2-0.1,0.6-0.1,0.9v6.6h-2V516.9z"/>
				<path class="st5" d="M381.7,510.8v3.1h2.8v1.5h-2.8v5.9c0,1.4,0.4,2.1,1.5,2.1c0.5,0,0.9-0.1,1.2-0.1l0.1,1.5
					c-0.4,0.2-1,0.3-1.8,0.3c-0.9,0-1.7-0.3-2.1-0.8c-0.6-0.6-0.8-1.6-0.8-2.8v-6h-1.7v-1.5h1.7v-2.6L381.7,510.8z"/>
				<path class="st5" d="M297.5,536.9c0.9-0.2,2.2-0.3,3.8-0.3c1.9,0,3.4,0.5,4.3,1.3c0.8,0.7,1.3,1.8,1.3,3.2
					c0,1.4-0.4,2.5-1.2,3.2c-1,1.1-2.7,1.7-4.6,1.7c-0.6,0-1.1,0-1.6-0.1v6.1h-2V536.9z M299.5,544.2c0.4,0.1,1,0.2,1.6,0.2
					c2.4,0,3.8-1.2,3.8-3.2c0-2-1.4-3-3.6-3c-0.9,0-1.5,0.1-1.8,0.2V544.2z"/>
				<path class="st5" d="M309.1,544.4c0-1.3,0-2.4-0.1-3.4h1.7l0.1,2.1h0.1c0.5-1.5,1.7-2.4,3-2.4c0.2,0,0.4,0,0.6,0.1v1.9
					c-0.2,0-0.4-0.1-0.7-0.1c-1.4,0-2.4,1.1-2.7,2.5c0,0.3-0.1,0.6-0.1,0.9v5.8h-2V544.4z"/>
				<path class="st5" d="M326.1,546.4c0,4-2.8,5.8-5.4,5.8c-3,0-5.2-2.2-5.2-5.6c0-3.7,2.4-5.8,5.4-5.8
					C324,540.8,326.1,543,326.1,546.4z M317.5,546.5c0,2.4,1.4,4.2,3.3,4.2c1.9,0,3.3-1.8,3.3-4.2c0-1.8-0.9-4.2-3.3-4.2
					S317.5,544.4,317.5,546.5z"/>
				<path class="st5" d="M336.4,551.5c-0.5,0.3-1.7,0.6-3.1,0.6c-3.3,0-5.4-2.2-5.4-5.6c0-3.4,2.3-5.8,5.9-5.8
					c1.2,0,2.2,0.3,2.8,0.6l-0.5,1.5c-0.5-0.3-1.2-0.5-2.3-0.5c-2.5,0-3.9,1.8-3.9,4.1c0,2.5,1.6,4.1,3.8,4.1c1.1,0,1.9-0.3,2.4-0.5
					L336.4,551.5z"/>
				<path class="st5" d="M339.7,546.8c0,2.7,1.8,3.8,3.7,3.8c1.4,0,2.3-0.2,3-0.6l0.3,1.4c-0.7,0.3-1.9,0.7-3.6,0.7
					c-3.4,0-5.4-2.2-5.4-5.5s1.9-5.9,5.1-5.9c3.6,0,4.5,3.1,4.5,5.1c0,0.4,0,0.7-0.1,0.9H339.7z M345.5,545.4c0-1.3-0.5-3.2-2.8-3.2
					c-2,0-2.9,1.8-3,3.2H345.5z"/>
				<path class="st5" d="M349.6,549.9c0.6,0.4,1.6,0.8,2.6,0.8c1.4,0,2.1-0.7,2.1-1.6c0-0.9-0.6-1.5-2-2c-2-0.7-2.9-1.8-2.9-3.1
					c0-1.8,1.4-3.2,3.8-3.2c1.1,0,2.1,0.3,2.7,0.7l-0.5,1.4c-0.4-0.3-1.2-0.6-2.2-0.6c-1.2,0-1.8,0.7-1.8,1.5c0,0.9,0.7,1.3,2.1,1.8
					c1.9,0.7,2.9,1.7,2.9,3.3c0,1.9-1.5,3.3-4.1,3.3c-1.2,0-2.3-0.3-3.1-0.7L349.6,549.9z"/>
				<path class="st5" d="M358.6,549.9c0.6,0.4,1.6,0.8,2.6,0.8c1.4,0,2.1-0.7,2.1-1.6c0-0.9-0.6-1.5-2-2c-2-0.7-2.9-1.8-2.9-3.1
					c0-1.8,1.4-3.2,3.8-3.2c1.1,0,2.1,0.3,2.7,0.7l-0.5,1.4c-0.4-0.3-1.2-0.6-2.2-0.6c-1.2,0-1.8,0.7-1.8,1.5c0,0.9,0.7,1.3,2.1,1.8
					c1.9,0.7,2.9,1.7,2.9,3.3c0,1.9-1.5,3.3-4.1,3.3c-1.2,0-2.3-0.3-3.1-0.7L358.6,549.9z"/>
				<path class="st5" d="M370,537.9c0,0.7-0.5,1.2-1.3,1.2c-0.7,0-1.2-0.5-1.2-1.2c0-0.7,0.5-1.2,1.2-1.2
					C369.5,536.7,370,537.2,370,537.9z M367.8,551.9V541h2v10.9H367.8z"/>
				<path class="st5" d="M373,544c0-1.1,0-2.1-0.1-3h1.8l0.1,1.8h0c0.5-1,1.8-2.1,3.6-2.1c1.5,0,3.9,0.9,3.9,4.6v6.5h-2v-6.3
					c0-1.8-0.7-3.2-2.5-3.2c-1.3,0-2.3,0.9-2.7,2c-0.1,0.2-0.1,0.6-0.1,0.9v6.6h-2V544z"/>
				<path class="st5" d="M394.9,541c0,0.8-0.1,1.7-0.1,3v6.3c0,2.5-0.5,4-1.6,5c-1.1,1-2.6,1.3-4,1.3c-1.3,0-2.8-0.3-3.6-0.9
					l0.5-1.5c0.7,0.5,1.8,0.9,3.2,0.9c2,0,3.5-1.1,3.5-3.8V550h0c-0.6,1-1.8,1.8-3.5,1.8c-2.7,0-4.6-2.3-4.6-5.3
					c0-3.7,2.4-5.8,4.9-5.8c1.9,0,2.9,1,3.4,1.9h0l0.1-1.6H394.9z M392.9,545.3c0-0.3,0-0.6-0.1-0.9c-0.4-1.2-1.3-2.1-2.8-2.1
					c-1.9,0-3.2,1.6-3.2,4.1c0,2.1,1.1,3.9,3.2,3.9c1.2,0,2.3-0.8,2.8-2c0.1-0.3,0.2-0.7,0.2-1.1V545.3z"/>
			</g>
		</g>
	</g>
</g>
</svg>
