<?xml version="1.0" encoding="utf-8"?>
<!-- Generator: Adobe Illustrator 20.0.0, SVG Export Plug-In . SVG Version: 6.00 Build 0)  -->
<svg version="1.1" id="Layer_1" xmlns="http://www.w3.org/2000/svg" xmlns:xlink="http://www.w3.org/1999/xlink" x="0px" y="0px"
	 viewBox="0 0 612 612" style="enable-background:new 0 0 612 612;" xml:space="preserve">
<style type="text/css">
	.st0{fill:#4B6A83;}
	.st1{clip-path:url(#SVGID_2_);}
	.st2{fill:#F06666;}
	.st3{fill:#FFFFFF;}
	.st4{opacity:0.12;clip-path:url(#SVGID_2_);}
	.st5{clip-path:url(#SVGID_5_);}
	.st6{fill-rule:evenodd;clip-rule:evenodd;fill:#F06666;}
	.st7{fill-rule:evenodd;clip-rule:evenodd;fill:#20A99F;}
	.st8{fill:#F4BF17;}
	.st9{fill:none;stroke:#FFFFFF;stroke-width:8;stroke-miterlimit:10;}
	.st10{fill:#F4BF17;stroke:#FFFFFF;stroke-width:4;stroke-miterlimit:10;}
	.st11{fill:#20A99F;}
	.st12{fill:#102F55;}
	.st13{clip-path:url(#SVGID_2_);fill:none;stroke:#FFFFFF;stroke-width:8;stroke-miterlimit:10;}
	.st14{clip-path:url(#SVGID_2_);fill:none;stroke:#FFFFFF;stroke-width:2;stroke-miterlimit:10;stroke-dasharray:3;}
</style>
<g>
	<circle class="st0" cx="306" cy="306" r="306"/>
	<g>
		<defs>
			<circle id="SVGID_1_" cx="306" cy="306" r="306"/>
		</defs>
		<clipPath id="SVGID_2_">
			<use xlink:href="#SVGID_1_"  style="overflow:visible;"/>
		</clipPath>
		<g class="st1">
			<g>
				<path class="st2" d="M135.5,342.9c-17.7,0-32.1-14.4-32.1-32.1s14.4-32.1,32.1-32.1c17.7,0,32.1,14.4,32.1,32.1
					S153.3,342.9,135.5,342.9z"/>
				<path class="st3" d="M135.5,280.6c16.6,0,30.1,13.5,30.1,30.1s-13.5,30.1-30.1,30.1s-30.1-13.5-30.1-30.1
					S118.9,280.6,135.5,280.6 M135.5,276.6c-18.9,0-34.1,15.3-34.1,34.1c0,18.9,15.3,34.1,34.1,34.1s34.1-15.3,34.1-34.1
					C169.7,291.9,154.4,276.6,135.5,276.6L135.5,276.6z"/>
			</g>
		</g>
		<g class="st4">
			<g>
				<path class="st3" d="M451.5,478.6H160.4c-9.1,0-16.5-7-16.5-15.6V237.4c0-8.6,7.4-15.6,16.5-15.6c9.1,0,16.5,7,16.5,15.6v210.1
					h258.1V237.4c0-8.6,7.4-15.6,16.5-15.6c9.1,0,16.5,7,16.5,15.6V463C468,471.6,460.7,478.6,451.5,478.6z"/>
			</g>
			<g>
				<g>
					<path class="st3" d="M106,299.6c-4.4,0-8.7-1.6-12-4.8c-6.3-6.2-6-16.1,0.6-22L294.6,93c6.6-5.9,17.1-5.7,23.3,0.6
						c6.3,6.2,6,16.1-0.6,22l-200,179.7C114.2,298.2,110.1,299.6,106,299.6z"/>
				</g>
				<g>
					<path class="st3" d="M506,299.6c-4.1,0-8.2-1.4-11.4-4.3l-200-179.7c-6.6-5.9-6.9-15.8-0.6-22c6.3-6.2,16.7-6.5,23.3-0.6
						l200,179.7c6.6,5.9,6.9,15.8,0.6,22C514.7,298,510.3,299.6,506,299.6z"/>
				</g>
			</g>
		</g>
		<g class="st1">
			<defs>
				<rect id="SVGID_3_" x="39.6" y="0" width="573.3" height="573.3"/>
			</defs>
			<clipPath id="SVGID_5_">
				<use xlink:href="#SVGID_3_"  style="overflow:visible;"/>
			</clipPath>
			<g class="st5">
				<path class="st6" d="M523.9,455.8c-82.7,0-149.9-65-149.9-144.8c0-79.8,67.3-144.8,149.9-144.8s149.9,65,149.9,144.8
					C673.9,390.9,606.6,455.8,523.9,455.8z"/>
				<path class="st3" d="M523.9,171.2c38.8,0,75.2,14.6,102.6,41.1c27.3,26.4,42.3,61.5,42.3,98.7c0,37.3-15,72.3-42.3,98.7
					c-27.4,26.5-63.8,41.1-102.6,41.1c-38.8,0-75.2-14.6-102.6-41.1C394,383.4,379,348.3,379,311c0-37.3,15-72.3,42.3-98.7
					C448.7,185.8,485.2,171.2,523.9,171.2 M523.9,161.2C438.4,161.2,369,228.3,369,311c0,82.7,69.4,149.8,154.9,149.8
					S678.9,393.8,678.9,311C678.9,228.3,609.5,161.2,523.9,161.2L523.9,161.2z"/>
			</g>
		</g>
		<g class="st1">
			<g>
				<g>
					<path class="st7" d="M155.2,531.4c-23.3,0-42.3-19-42.3-42.3s19-42.3,42.3-42.3c23.3,0,42.3,19,42.3,42.3
						S178.6,531.4,155.2,531.4z"/>
					<path class="st3" d="M155.2,448.8c22.2,0,40.3,18.1,40.3,40.3s-18.1,40.3-40.3,40.3c-22.2,0-40.3-18.1-40.3-40.3
						S133,448.8,155.2,448.8 M155.2,444.8c-24.5,0-44.3,19.8-44.3,44.3c0,24.5,19.8,44.3,44.3,44.3c24.5,0,44.3-19.8,44.3-44.3
						C199.6,464.6,179.7,444.8,155.2,444.8L155.2,444.8z"/>
				</g>
				<g>
					<g>
						<g>
							<g>
								<path class="st3" d="M170.2,500.1h-29.9c-0.9,0-1.7-0.7-1.7-1.6v-23.2c0-0.9,0.8-1.6,1.7-1.6c0.9,0,1.7,0.7,1.7,1.6v21.6
									h26.5v-21.6c0-0.9,0.8-1.6,1.7-1.6c0.9,0,1.7,0.7,1.7,1.6v23.2C171.9,499.3,171.1,500.1,170.2,500.1z"/>
							</g>
							<g>
								<g>
									<path class="st3" d="M134.7,481.7c-0.4,0-0.9-0.2-1.2-0.5c-0.6-0.6-0.6-1.7,0.1-2.3l20.5-18.4c0.7-0.6,1.7-0.6,2.4,0.1
										c0.6,0.6,0.6,1.7-0.1,2.3l-20.5,18.4C135.6,481.5,135.2,481.7,134.7,481.7z"/>
								</g>
								<g>
									<path class="st3" d="M175.8,481.7c-0.4,0-0.8-0.1-1.2-0.4l-20.5-18.4c-0.7-0.6-0.7-1.6-0.1-2.3c0.6-0.6,1.7-0.7,2.4-0.1
										l20.5,18.4c0.7,0.6,0.7,1.6,0.1,2.3C176.7,481.5,176.2,481.7,175.8,481.7z"/>
								</g>
							</g>
						</g>
						<g id="old_x5F_man_12_">
							<path class="st8" d="M171.3,507.3c-1-0.6-7.4-4.4-10.7-5.7v-3.8c1-0.7,1.5-1.8,1.5-3.4v-2.5c1.8-0.7,3-1.5,3-1.8
								c0-0.6-0.4-1.3-0.8-1.3h-1.7l-2.2-10.2c0.1-0.5-0.3-0.6-0.7-0.5l-3.7,1.2c-0.4,0.2-1.1,0.2-1.6,0l-3.7-1
								c-0.4-0.2-0.7,0-0.7,0.5l-2.2,10.1h-1.7c-0.5,0-0.8,0.7-0.8,1.3c0,0.3,1.2,1.1,3,1.8c0,0.6,0,1.5,0,2.5
								c0,1.6,0.6,2.7,1.5,3.4v3.8c-3.1,1.3-9.7,5.1-10.7,5.7c-1.2,0.7-1.5,1.4-1.5,3c0,1,0,3.7,0,3.7c0,0.4,0.3,0.8,0.8,0.8h33.7
								c0.4,0,0.8-0.3,0.8-0.8c0,0,0-2.7,0-3.7C172.9,508.6,172.6,508,171.3,507.3z"/>
						</g>
					</g>
				</g>
			</g>
			<line class="st9" x1="395.1" y1="387.6" x2="197" y2="484.1"/>
			<g>
				<circle class="st10" cx="260" cy="451.4" r="27.5"/>
			</g>
			<g>
				<path class="st11" d="M337.9,438c-12.4,0-22.5-10.1-22.5-22.5c0-12.4,10.1-22.5,22.5-22.5s22.5,10.1,22.5,22.5
					C360.4,427.9,350.3,438,337.9,438z"/>
				<path class="st3" d="M337.9,394.9c11.3,0,20.5,9.2,20.5,20.5s-9.2,20.5-20.5,20.5c-11.3,0-20.5-9.2-20.5-20.5
					S326.6,394.9,337.9,394.9 M337.9,390.9c-13.5,0-24.5,11-24.5,24.5s11,24.5,24.5,24.5s24.5-11,24.5-24.5S351.5,390.9,337.9,390.9
					L337.9,390.9z"/>
			</g>
			<g id="notes_x5F_2_5_">
				<path class="st8" d="M332.3,406v-2c0-0.5,0.5-1,1-1h2V402c0-0.5,0.5-1.1,1-1.1h4c0.5,0,1,0.5,1,1.1v0.9h2c0.6,0,1,0.5,1,1v2
					c0,0.5-0.5,1-1,1h-10C332.8,407,332.3,406.5,332.3,406z"/>
				<path class="st3" d="M348.3,404.5v23c0,0.3-0.2,0.5-0.5,0.5h-19c-0.3,0-0.5-0.2-0.5-0.5v-23c0-0.3,0.2-0.5,0.5-0.5h2.5v3
					c0,0.5,0.5,1,1,1h12c0.5,0,1-0.5,1-1v-3h2.5C348.1,404,348.3,404.2,348.3,404.5z"/>
				<rect x="331.3" y="414" class="st8" width="10" height="1"/>
				<rect x="331.3" y="424" class="st8" width="5" height="1"/>
				<rect x="331.3" y="422" class="st8" width="14" height="1"/>
				<rect x="331.3" y="420" class="st8" width="14" height="1"/>
				<rect x="331.3" y="418" class="st8" width="14" height="1"/>
				<rect x="332.3" y="416" class="st8" width="13" height="1"/>
				<rect x="331.3" y="412" class="st8" width="14" height="1"/>
				<rect x="332.3" y="410" class="st8" width="13" height="1"/>
			</g>
			<path class="st3" d="M275.6,440.7h-31.2c-0.8,0-1.2,0.4-1.2,1.3v1.3l12.4,8.1c0.1,0,0.1,0,0.1,0.1l1.3,0.8c2,1.3,4,1.3,6,0
				l1.2-0.8c0.1,0,0.2,0,0.2-0.1l12.4-8.1V442C276.8,441.2,276.4,440.7,275.6,440.7z M263.7,453.1c-2.4,1.6-4.8,1.6-7.3,0l-1-0.6
				l-12.1,7.8v0.5c0,0.9,0.4,1.3,1.2,1.3h31.2c0.8,0,1.2-0.4,1.2-1.3v-0.5l-12.1-7.8L263.7,453.1z M276.8,458.9v-14.2l-10.9,7.1
				L276.8,458.9z M243.3,444.7v14.2l10.9-7.1L243.3,444.7z"/>
		</g>
		<g class="st1">
			<g>
				<path class="st12" d="M579.8,266.2H436.4c-2,0-3.6,1.3-3.6,3.3v99c0,2,1.6,3.8,3.6,3.8h143.4c2,0,3.2-1.8,3.2-3.8v-99
					C583.1,267.5,581.8,266.2,579.8,266.2z"/>
				<path class="st3" d="M575,360c0,2.2-0.9,3-2.9,3H444.7c-2,0-4.7-0.8-4.7-3v-82.2c0-2.2,2.7-1.8,4.7-1.8h127.4
					c2,0,2.9-0.3,2.9,1.8V360z"/>
				<path class="st12" d="M595.8,382.8c0,0.8-0.7,1.5-1.5,1.5H421c-0.8,0-1.5-0.7-1.5-1.5V377c0-0.8,0.7-1.5,1.5-1.5h173.3
					c0.8,0,1.5,0.7,1.5,1.5V382.8z"/>
			</g>
		</g>
		<g id="building_3_" class="st1">
			<g>
				<path class="st12" d="M547.8,229.6h-75.2l7.5-7.5h18.8l3.8-3.8h15l3.8,3.8h18.8L547.8,229.6z M555.3,312.3v3.8h-37.6v-11.3h-15
					v11.3h-37.6v-3.8h3.8v-3.8h3.8v-75.2h75.2v75.2h3.8v3.8H555.3z M498.9,289.8h-15v7.5h15V289.8z M498.9,274.7h-15v7.5h15V274.7z
					 M498.9,259.7h-15v7.5h15V259.7z M498.9,244.7h-15v7.5h15V244.7z M517.7,289.8h-15v7.5h15V289.8z M517.7,274.7h-15v7.5h15V274.7
					z M517.7,259.7h-15v7.5h15V259.7z M517.7,244.7h-15v7.5h15V244.7z M536.5,289.8h-15v7.5h15V289.8z M536.5,274.7h-15v7.5h15
					V274.7z M536.5,259.7h-15v7.5h15V259.7z M536.5,244.7h-15v7.5h15V244.7z"/>
			</g>
		</g>
		<g class="st1">
			<g>
				<g>
					<path class="st7" d="M159.5,164.7c-21.2,0-38.4-17.2-38.4-38.4s17.2-38.4,38.4-38.4s38.4,17.2,38.4,38.4
						S180.7,164.7,159.5,164.7z"/>
					<path class="st3" d="M159.5,89.9c20.1,0,36.4,16.3,36.4,36.4s-16.3,36.4-36.4,36.4s-36.4-16.3-36.4-36.4S139.4,89.9,159.5,89.9
						 M159.5,85.9c-22.3,0-40.4,18.1-40.4,40.4c0,22.3,18.1,40.4,40.4,40.4c22.3,0,40.4-18.1,40.4-40.4
						C199.9,104,181.8,85.9,159.5,85.9L159.5,85.9z"/>
				</g>
				<g>
					<g>
						<g>
							<circle class="st8" cx="157.7" cy="113.5" r="8.3"/>
							<rect x="154.6" y="117.8" class="st8" width="6.3" height="8.8"/>
							<path class="st8" d="M145.8,141.2v-12.5c0-3.1,1.7-5.6,5.1-5.6h13.8c3.4,0,5.1,2.5,5.1,5.6v12.5"/>
						</g>
						<g>
							<circle class="st3" cx="149.5" cy="116.8" r="8.3"/>
							<rect x="146.4" y="121.1" class="st3" width="6.3" height="8.8"/>
							<path class="st3" d="M137.5,144.5V132c0-3.1,1.7-5.6,5.1-5.6h13.8c3.4,0,5.1,2.5,5.1,5.6v12.5"/>
						</g>
					</g>
					<g>
						<path class="st8" d="M180.6,128.6c0,0.7-0.6,1.3-1.3,1.3l0,0c-0.7,0-1.3-0.6-1.3-1.3v-13.7c0-0.7,0.6-1.3,1.3-1.3l0,0
							c0.7,0,1.3,0.6,1.3,1.3V128.6z"/>
						<path class="st8" d="M186.1,120.4c0.7,0,1.3,0.6,1.3,1.3l0,0c0,0.7-0.6,1.3-1.3,1.3h-13.7c-0.7,0-1.3-0.6-1.3-1.3l0,0
							c0-0.7,0.6-1.3,1.3-1.3H186.1z"/>
					</g>
				</g>
			</g>
		</g>
		<line class="st13" x1="191" y1="145.4" x2="389.1" y2="241.9"/>
		<g class="st1">
			<circle class="st10" cx="256.5" cy="177" r="27.5"/>
			<g>
				<g>
					<path class="st3" d="M258,157.3l-5.5,2.2c-2.3,0.9-3.4,3.5-2.5,5.8l2,5c0.9,2.3,3.5,3.4,5.8,2.5l5.5-2.2
						c2.3-0.9,3.4-3.5,2.5-5.8l-2-5C262.9,157.5,260.3,156.4,258,157.3z M257.3,164c-2.1,0.9-3.5-2.5-1.3-3.3
						C258.1,159.8,259.5,163.1,257.3,164z"/>
					<path class="st3" d="M260.2,165.3l10.7,25.2c0.5,1.1,0.3,2.3-0.8,2.7l-1.3,0.5c-1.1,0.5-2.5-0.1-2.9-1.2l-10.3-25.4"/>
					<path class="st3" d="M260.6,163.9l3.7,9.2c0.5,1.1-0.1,2.5-1.2,2.9l-1.3,0.5c-1.1,0.5-2.5-0.1-2.9-1.2l-3.7-9.2"/>
					<path class="st2" d="M268,191.3c0.1,0.3,0,0.7-0.4,0.9l0,0c-0.3,0.1-0.7,0-0.9-0.4L260,175c-0.1-0.3,0-0.7,0.4-0.9l0,0
						c0.3-0.1,0.7,0,0.9,0.4L268,191.3z"/>
					<path class="st3" d="M265.8,174.8c0.3,0.6,0,1.3-0.7,1.6l0,0c-0.6,0.3-1.3,0-1.6-0.7l-0.1-0.3c-0.3-0.6,0-1.3,0.7-1.6l0,0
						c0.6-0.3,1.3,0,1.6,0.7L265.8,174.8z"/>
					<path class="st3" d="M266.8,177.3c0.3,0.6,0,1.3-0.7,1.6l0,0c-0.6,0.3-1.3,0-1.6-0.7l-0.1-0.3c-0.3-0.6,0.1-1.3,0.7-1.6l0,0
						c0.6-0.3,1.3,0,1.6,0.7L266.8,177.3z"/>
					<path class="st3" d="M267.8,179.8c0.3,0.6,0,1.3-0.7,1.6l0,0c-0.6,0.3-1.3,0-1.6-0.7l-0.1-0.3c-0.3-0.6,0.1-1.3,0.7-1.6l0,0
						c0.6-0.3,1.3,0,1.6,0.7L267.8,179.8z"/>
					<path class="st3" d="M268.8,182.3c0.3,0.6,0,1.3-0.7,1.6l0,0c-0.6,0.3-1.3-0.1-1.6-0.7l-0.1-0.3c-0.3-0.6,0-1.3,0.7-1.6l0,0
						c0.6-0.3,1.3,0,1.6,0.7L268.8,182.3z"/>
					<path class="st3" d="M269.8,184.8c0.3,0.6,0,1.3-0.7,1.6l0,0c-0.6,0.3-1.3,0-1.6-0.7l-0.1-0.3c-0.3-0.6,0-1.3,0.7-1.6l0,0
						c0.6-0.3,1.3,0.1,1.6,0.7L269.8,184.8z"/>
					<path class="st3" d="M270.8,187.3c0.3,0.6,0,1.3-0.7,1.6l0,0c-0.6,0.3-1.3,0-1.6-0.7l-0.1-0.3c-0.3-0.6,0-1.3,0.7-1.6l0,0
						c0.6-0.3,1.3,0,1.6,0.7L270.8,187.3z"/>
					<path class="st3" d="M271.9,189.8c0.3,0.6,0,1.3-0.7,1.6l0,0c-0.6,0.3-1.3,0-1.6-0.7l-0.1-0.3c-0.3-0.6,0-1.3,0.7-1.6l0,0
						c0.6-0.3,1.3,0,1.6,0.7L271.9,189.8z"/>
				</g>
				<g>
					<path class="st3" d="M254.6,167.8l0.4,27.4c0,1.2-0.6,2.2-1.8,2.2h-1.4c-1.2,0-2.2-1-2.2-2.2v-27.4"/>
					<path class="st3" d="M255.5,166.6v9.9c0,1.2-1,2.2-2.2,2.2h-1.4c-1.2,0-2.2-1-2.2-2.2v-9.9"/>
					<path class="st2" d="M252,194.8c0,0.4-0.3,0.7-0.7,0.7l0,0c-0.4,0-0.7-0.3-0.7-0.7v-18.2c0-0.4,0.3-0.7,0.7-0.7l0,0
						c0.4,0,0.7,0.3,0.7,0.7V194.8z"/>
					<path class="st3" d="M256.2,178.7c0,0.7-0.6,1.2-1.2,1.2l0,0c-0.7,0-1.2-0.6-1.2-1.2v-0.3c0-0.7,0.6-1.2,1.2-1.2l0,0
						c0.7,0,1.2,0.6,1.2,1.2V178.7z"/>
					<path class="st3" d="M256.2,181.3c0,0.7-0.6,1.2-1.2,1.2l0,0c-0.7,0-1.2-0.6-1.2-1.2V181c0-0.7,0.6-1.2,1.2-1.2l0,0
						c0.7,0,1.2,0.6,1.2,1.2V181.3z"/>
					<path class="st3" d="M256.2,184c0,0.7-0.6,1.2-1.2,1.2l0,0c-0.7,0-1.2-0.6-1.2-1.2v-0.3c0-0.7,0.6-1.2,1.2-1.2l0,0
						c0.7,0,1.2,0.6,1.2,1.2V184z"/>
					<path class="st3" d="M256.2,186.7c0,0.7-0.6,1.2-1.2,1.2l0,0c-0.7,0-1.2-0.6-1.2-1.2v-0.3c0-0.7,0.6-1.2,1.2-1.2l0,0
						c0.7,0,1.2,0.6,1.2,1.2V186.7z"/>
					<path class="st3" d="M256.2,189.4c0,0.7-0.6,1.2-1.2,1.2l0,0c-0.7,0-1.2-0.6-1.2-1.2v-0.3c0-0.7,0.6-1.2,1.2-1.2l0,0
						c0.7,0,1.2,0.6,1.2,1.2V189.4z"/>
					<path class="st3" d="M256.2,192.1c0,0.7-0.6,1.2-1.2,1.2l0,0c-0.7,0-1.2-0.6-1.2-1.2v-0.3c0-0.7,0.6-1.2,1.2-1.2l0,0
						c0.7,0,1.2,0.6,1.2,1.2V192.1z"/>
					<path class="st3" d="M256.2,194.8c0,0.7-0.6,1.2-1.2,1.2l0,0c-0.7,0-1.2-0.6-1.2-1.2v-0.3c0-0.7,0.6-1.2,1.2-1.2l0,0
						c0.7,0,1.2,0.6,1.2,1.2V194.8z"/>
					<path class="st2" d="M255.5,159.5h-6c-2.5,0-4.5,2-4.5,4.5v5.4c0,2.5,2,4.5,4.5,4.5h6c2.5,0,4.5-2,4.5-4.5V164
						C260,161.5,258,159.5,255.5,159.5z M252.4,165.4c-2.3,0-2.3-3.6,0-3.6C254.7,161.8,254.7,165.4,252.4,165.4z"/>
				</g>
			</g>
		</g>
		<g id="user_73_" class="st1">
			<path id="user_74_" class="st3" d="M151.5,317.6c-1-0.6-7.4-4.3-10.7-5.7v-5.7c0.9-0.7,1.5-1.8,1.5-3.4v-4.5
				c0-3.8-2.3-6.8-6.8-6.8s-6.8,3.1-6.8,6.8c0,0,0,0.7,0,4.5c0,1.6,0.6,2.7,1.5,3.4v5.7c-3.1,1.3-9.7,5.1-10.7,5.7
				c-1.2,0.7-1.5,1.4-1.5,3c0,0.7,0,3.6,0,3.6c0,0.4,0.3,0.8,0.8,0.8h33.5c0.4,0,0.8-0.3,0.8-0.8c0,0,0-2.9,0-3.6
				C153,318.9,152.7,318.3,151.5,317.6z"/>
		</g>
		<g class="st1">
			<g>
				<path class="st11" d="M341.5,242.1c-12.4,0-22.5-10.1-22.5-22.5s10.1-22.5,22.5-22.5c12.4,0,22.5,10.1,22.5,22.5
					S353.9,242.1,341.5,242.1z"/>
				<path class="st3" d="M341.5,199c11.3,0,20.5,9.2,20.5,20.5c0,11.3-9.2,20.5-20.5,20.5c-11.3,0-20.5-9.2-20.5-20.5
					C321,208.2,330.2,199,341.5,199 M341.5,195c-13.5,0-24.5,11-24.5,24.5s11,24.5,24.5,24.5s24.5-11,24.5-24.5S355,195,341.5,195
					L341.5,195z"/>
			</g>
			<g>
				<g>
					<g>
						<path class="st8" d="M348.5,224.4h-7.3c-0.3,0-0.3-0.1-0.3-0.4c0,0,0-2.6,0-3s0.1-0.5,0.3-0.5h7.3v-2.7c0-0.1,0.2-0.2,0.3-0.1
							l5.5,4.6c0.1,0,0.1,0.1,0.1,0.1c0,0.1,0,0.1-0.1,0.2l-5.4,4.6c-0.1,0.1-0.3,0-0.3-0.1V224.4z"/>
					</g>
				</g>
				<g>
					<g>
						<path class="st3" d="M349.1,228c-0.3,0.2-0.5,0.4-0.8,0.4c-0.8,0-1.3-0.7-1.3-1.5v-1.8h-6.4c-1,0-1.3-0.3-1.3-1.3v-3.2
							c0-1,0.6-1.2,1.3-1.2c0.7,0,6.4,0,6.4,0v-1.7c0-0.8,0.5-1.5,1.3-1.5c0.3,0,0.6,0.1,0.8,0.3l1.7,1.5v-3.4h-6.2
							c-0.3,0-0.5-0.2-0.5-0.5v-6.2h-11c-0.3,0-0.5,0.2-0.5,0.5v22c0,0.3,0.2,0.5,0.5,0.5h17.2c0.3,0,0.5-0.2,0.5-0.5v-3.8
							L349.1,228z"/>
					</g>
					<g>
						<path class="st3" d="M345.6,213.6h5.3l-5.7-5.7v5.3C345.1,213.4,345.3,213.6,345.6,213.6z"/>
					</g>
				</g>
			</g>
		</g>
		<g class="st1">
			<g>
				<path class="st3" d="M94.7,419.2v5.3h6.2v-5.3h1.7V432h-1.7v-6h-6.2v6h-1.7v-12.8H94.7z"/>
				<path class="st3" d="M113.7,427.4c0,3.4-2.4,4.9-4.6,4.9c-2.5,0-4.4-1.8-4.4-4.7c0-3.1,2-4.9,4.6-4.9
					C111.9,422.6,113.7,424.6,113.7,427.4z M106.4,427.5c0,2,1.2,3.5,2.8,3.5c1.6,0,2.8-1.5,2.8-3.6c0-1.6-0.8-3.5-2.8-3.5
					C107.3,423.9,106.4,425.7,106.4,427.5z"/>
				<path class="st3" d="M115.8,425.3c0-0.9,0-1.7-0.1-2.5h1.5l0.1,1.5h0.1c0.5-0.9,1.4-1.7,2.9-1.7c1.3,0,2.2,0.8,2.6,1.8h0
					c0.3-0.5,0.6-0.9,1-1.2c0.5-0.4,1.2-0.6,2-0.6c1.2,0,3,0.8,3,4v5.4h-1.6v-5.2c0-1.8-0.6-2.8-2-2.8c-0.9,0-1.7,0.7-2,1.5
					c-0.1,0.2-0.1,0.5-0.1,0.8v5.7h-1.6v-5.5c0-1.5-0.6-2.5-1.9-2.5c-1,0-1.8,0.8-2.1,1.7c-0.1,0.2-0.1,0.5-0.1,0.8v5.5h-1.6V425.3z
					"/>
				<path class="st3" d="M132.5,427.7c0,2.3,1.5,3.2,3.1,3.2c1.2,0,1.9-0.2,2.5-0.5l0.3,1.2c-0.6,0.3-1.6,0.6-3.1,0.6
					c-2.8,0-4.5-1.9-4.5-4.6c0-2.8,1.6-5,4.3-5c3,0,3.8,2.6,3.8,4.3c0,0.3,0,0.6-0.1,0.8H132.5z M137.4,426.5c0-1.1-0.4-2.7-2.3-2.7
					c-1.7,0-2.4,1.6-2.6,2.7H137.4z"/>
				<path class="st3" d="M145,430c0.7,0.5,1.8,0.8,3,0.8c1.7,0,2.7-0.9,2.7-2.2c0-1.2-0.7-1.9-2.4-2.5c-2.1-0.7-3.4-1.8-3.4-3.6
					c0-2,1.6-3.5,4.1-3.5c1.3,0,2.3,0.3,2.8,0.6l-0.5,1.3c-0.4-0.2-1.3-0.6-2.4-0.6c-1.7,0-2.4,1-2.4,1.9c0,1.2,0.8,1.8,2.5,2.5
					c2.2,0.8,3.3,1.9,3.3,3.8c0,2-1.5,3.7-4.5,3.7c-1.2,0-2.6-0.4-3.3-0.8L145,430z"/>
				<path class="st3" d="M155.5,427.7c0,2.3,1.5,3.2,3.1,3.2c1.2,0,1.9-0.2,2.5-0.5l0.3,1.2c-0.6,0.3-1.6,0.6-3.1,0.6
					c-2.8,0-4.5-1.9-4.5-4.6c0-2.8,1.6-5,4.3-5c3,0,3.8,2.6,3.8,4.3c0,0.3,0,0.6-0.1,0.8H155.5z M160.4,426.5c0-1.1-0.4-2.7-2.3-2.7
					c-1.7,0-2.4,1.6-2.6,2.7H160.4z"/>
				<path class="st3" d="M164.1,418.6h1.7V432h-1.7V418.6z"/>
				<path class="st3" d="M168.6,418.6h1.7V432h-1.7V418.6z"/>
				<path class="st3" d="M174,427.7c0,2.3,1.5,3.2,3.1,3.2c1.2,0,1.9-0.2,2.5-0.5l0.3,1.2c-0.6,0.3-1.6,0.6-3.1,0.6
					c-2.8,0-4.5-1.9-4.5-4.6c0-2.8,1.6-5,4.3-5c3,0,3.8,2.6,3.8,4.3c0,0.3,0,0.6-0.1,0.8H174z M178.9,426.5c0-1.1-0.4-2.7-2.3-2.7
					c-1.7,0-2.4,1.6-2.6,2.7H178.9z"/>
				<path class="st3" d="M182.6,425.7c0-1.1,0-2-0.1-2.9h1.5l0.1,1.8h0.1c0.4-1.2,1.4-2,2.5-2c0.2,0,0.3,0,0.5,0.1v1.6
					c-0.2,0-0.3-0.1-0.6-0.1c-1.2,0-2,0.9-2.2,2.1c0,0.2-0.1,0.5-0.1,0.8v4.9h-1.6V425.7z"/>
			</g>
		</g>
		<g class="st1">
			<g>
				<path class="st3" d="M108.8,254.5c0.7-0.2,1.9-0.3,3-0.3c1.7,0,2.7,0.3,3.5,0.9c0.7,0.5,1.1,1.3,1.1,2.3c0,1.2-0.8,2.3-2.2,2.8
					v0c1.2,0.3,2.6,1.3,2.6,3.2c0,1.1-0.4,1.9-1.1,2.6c-0.9,0.8-2.3,1.2-4.4,1.2c-1.1,0-2-0.1-2.6-0.2V254.5z M110.4,259.8h1.5
					c1.7,0,2.8-0.9,2.8-2.1c0-1.5-1.1-2.1-2.8-2.1c-0.8,0-1.2,0.1-1.5,0.1V259.8z M110.4,265.9c0.3,0.1,0.8,0.1,1.4,0.1
					c1.7,0,3.3-0.6,3.3-2.5c0-1.7-1.5-2.5-3.3-2.5h-1.4V265.9z"/>
				<path class="st3" d="M119,260.8c0-1.1,0-2-0.1-2.9h1.5l0.1,1.8h0.1c0.4-1.2,1.4-2,2.5-2c0.2,0,0.3,0,0.5,0.1v1.6
					c-0.2,0-0.3-0.1-0.6-0.1c-1.2,0-2,0.9-2.2,2.1c0,0.2-0.1,0.5-0.1,0.8v4.9H119V260.8z"/>
				<path class="st3" d="M133.3,262.5c0,3.4-2.4,4.9-4.6,4.9c-2.5,0-4.4-1.8-4.4-4.7c0-3.1,2-4.9,4.6-4.9
					C131.5,257.7,133.3,259.7,133.3,262.5z M126,262.6c0,2,1.2,3.5,2.8,3.5c1.6,0,2.8-1.5,2.8-3.6c0-1.6-0.8-3.5-2.8-3.5
					C126.9,259,126,260.8,126,262.6z"/>
				<path class="st3" d="M137.1,262.2L137.1,262.2c0.3-0.3,0.6-0.7,0.9-1l2.7-3.2h2l-3.5,3.8l4,5.4h-2l-3.2-4.4l-0.9,0.9v3.5h-1.6
					v-13.5h1.6V262.2z"/>
				<path class="st3" d="M145.3,262.8c0,2.3,1.5,3.2,3.1,3.2c1.2,0,1.9-0.2,2.5-0.5l0.3,1.2c-0.6,0.3-1.6,0.6-3.1,0.6
					c-2.8,0-4.5-1.9-4.5-4.6c0-2.8,1.6-5,4.3-5c3,0,3.8,2.6,3.8,4.3c0,0.3,0,0.6-0.1,0.8H145.3z M150.2,261.6c0-1.1-0.4-2.7-2.3-2.7
					c-1.7,0-2.4,1.6-2.6,2.7H150.2z"/>
				<path class="st3" d="M153.8,260.8c0-1.1,0-2-0.1-2.9h1.5l0.1,1.8h0.1c0.4-1.2,1.4-2,2.5-2c0.2,0,0.3,0,0.5,0.1v1.6
					c-0.2,0-0.3-0.1-0.6-0.1c-1.2,0-2,0.9-2.2,2.1c0,0.2-0.1,0.5-0.1,0.8v4.9h-1.7V260.8z"/>
			</g>
		</g>
		<g class="st1">
			<g>
				<path class="st3" d="M91.3,178.5v5.3h6.2v-5.3h1.7v12.8h-1.7v-6h-6.2v6h-1.7v-12.8H91.3z"/>
				<path class="st3" d="M110.2,186.6c0,3.4-2.4,4.9-4.6,4.9c-2.5,0-4.4-1.8-4.4-4.7c0-3.1,2-4.9,4.6-4.9
					C108.4,181.9,110.2,183.8,110.2,186.6z M102.9,186.7c0,2,1.2,3.5,2.8,3.5c1.6,0,2.8-1.5,2.8-3.6c0-1.6-0.8-3.5-2.8-3.5
					C103.8,183.1,102.9,185,102.9,186.7z"/>
				<path class="st3" d="M112.3,184.6c0-0.9,0-1.7-0.1-2.5h1.5l0.1,1.5h0.1c0.5-0.9,1.4-1.7,2.9-1.7c1.3,0,2.2,0.8,2.6,1.8h0
					c0.3-0.5,0.6-0.9,1-1.2c0.5-0.4,1.2-0.6,2-0.6c1.2,0,3,0.8,3,4v5.4h-1.6v-5.2c0-1.8-0.6-2.8-2-2.8c-0.9,0-1.7,0.7-2,1.5
					c-0.1,0.2-0.1,0.5-0.1,0.8v5.7h-1.6v-5.5c0-1.5-0.6-2.5-1.9-2.5c-1,0-1.8,0.8-2.1,1.7c-0.1,0.2-0.1,0.5-0.1,0.8v5.5h-1.6V184.6z
					"/>
				<path class="st3" d="M129.1,187c0,2.3,1.5,3.2,3.1,3.2c1.2,0,1.9-0.2,2.5-0.5l0.3,1.2c-0.6,0.3-1.6,0.6-3.1,0.6
					c-2.8,0-4.5-1.9-4.5-4.6c0-2.8,1.6-5,4.3-5c3,0,3.8,2.6,3.8,4.3c0,0.3,0,0.6-0.1,0.8H129.1z M134,185.8c0-1.1-0.4-2.7-2.3-2.7
					c-1.7,0-2.4,1.6-2.6,2.7H134z"/>
				<path class="st3" d="M152.7,184.7c0,4.4-2.7,6.7-5.9,6.7c-3.4,0-5.7-2.6-5.7-6.5c0-4.1,2.5-6.7,5.9-6.7
					C150.4,178.3,152.7,181,152.7,184.7z M142.7,185c0,2.7,1.5,5.2,4.1,5.2c2.6,0,4.1-2.4,4.1-5.3c0-2.5-1.3-5.2-4.1-5.2
					C144.1,179.6,142.7,182.1,142.7,185z"/>
				<path class="st3" d="M155.7,182.1l1.2,4.7c0.3,1,0.5,2,0.7,2.9h0.1c0.2-0.9,0.5-1.9,0.8-2.9l1.5-4.7h1.4l1.4,4.6
					c0.3,1.1,0.6,2.1,0.8,3h0.1c0.2-0.9,0.4-1.9,0.7-3l1.3-4.6h1.7l-3,9.2h-1.5l-1.4-4.4c-0.3-1-0.6-1.9-0.8-3h0
					c-0.2,1.1-0.5,2-0.8,3l-1.5,4.4h-1.5l-2.8-9.2H155.7z"/>
				<path class="st3" d="M169,184.6c0-0.9,0-1.7-0.1-2.5h1.5l0.1,1.5h0c0.5-0.9,1.5-1.7,3-1.7c1.3,0,3.2,0.8,3.2,3.9v5.5h-1.7V186
					c0-1.5-0.5-2.7-2.1-2.7c-1.1,0-2,0.8-2.2,1.7c-0.1,0.2-0.1,0.5-0.1,0.8v5.5H169V184.6z"/>
				<path class="st3" d="M180.4,187c0,2.3,1.5,3.2,3.1,3.2c1.2,0,1.9-0.2,2.5-0.5l0.3,1.2c-0.6,0.3-1.6,0.6-3.1,0.6
					c-2.8,0-4.5-1.9-4.5-4.6c0-2.8,1.6-5,4.3-5c3,0,3.8,2.6,3.8,4.3c0,0.3,0,0.6-0.1,0.8H180.4z M185.3,185.8c0-1.1-0.4-2.7-2.3-2.7
					c-1.7,0-2.4,1.6-2.6,2.7H185.3z"/>
				<path class="st3" d="M189,185c0-1.1,0-2-0.1-2.9h1.5l0.1,1.8h0.1c0.4-1.2,1.4-2,2.5-2c0.2,0,0.3,0,0.5,0.1v1.6
					c-0.2,0-0.3-0.1-0.6-0.1c-1.2,0-2,0.9-2.2,2.1c0,0.2-0.1,0.5-0.1,0.8v4.9H189V185z"/>
			</g>
		</g>
		<line class="st14" x1="168.1" y1="311.3" x2="369.5" y2="311.3"/>
		<g class="st1">
			<circle class="st3" cx="326.1" cy="311.3" r="12.1"/>
			<g id="conversation_1_">
				<path class="st2" d="M333.5,314.2c0,0.2,0,0.2-0.2,0.2l-2.4-1.2c-0.7,0.2-1.5,0.4-2.4,0.4c-3.3,0-5.9-1.8-5.9-4.1
					c0-2.3,2.7-4.1,5.9-4.1c3.3,0,5.9,1.8,5.9,4.1c0,1.1-0.6,2-1.5,2.8L333.5,314.2z M328.3,314.8c-3.9,0-7-2.3-7-5.2
					c0-0.4,0.1-0.9,0.2-1.3c-2.2,0.6-3.8,2.1-3.8,3.9c0,1.1,0.6,2.1,1.6,2.8l-0.6,2.1c0,0.2,0,0.2,0.2,0.2l2.4-1.3
					c0.7,0.2,1.6,0.4,2.4,0.4c1.9,0,3.7-0.6,4.8-1.6C328.4,314.8,328.4,314.8,328.3,314.8z"/>
			</g>
		</g>
		<g class="st1">
			<circle class="st3" cx="266.8" cy="311.3" r="12.1"/>
			<g id="circle_x5F_exclamation_x5F_mark_1_">
				<path class="st2" d="M266.8,303.3c-4.4,0-8,3.6-8,8c0,4.4,3.6,8,8,8s8-3.6,8-8C274.8,306.9,271.3,303.3,266.8,303.3z
					 M268.1,316.2c0,0.2-0.1,0.3-0.3,0.3h-2c-0.2,0-0.3-0.1-0.3-0.3v-2c0-0.2,0.1-0.3,0.3-0.3h2c0.2,0,0.3,0.1,0.3,0.3V316.2z
					 M268.1,309c0,0.2,0,0.5-0.1,0.6l-0.6,3.1c0,0.2-0.2,0.5-0.4,0.5h-0.5c-0.2,0-0.4-0.3-0.4-0.5l-0.6-3c0-0.2-0.1-0.5-0.1-0.7
					v-2.6c0-0.2,0.1-0.3,0.3-0.3h2c0.2,0,0.3,0.1,0.3,0.3V309z"/>
			</g>
		</g>
		<g class="st1">
			<circle class="st3" cx="207.6" cy="311.3" r="12.1"/>
			<g id="file_17_">
				<path class="st2" d="M212.8,308.6v9c0,0.2-0.1,0.3-0.3,0.3h-9.8c-0.2,0-0.3-0.1-0.3-0.3V305c0-0.2,0.1-0.3,0.3-0.3h6.3v3.5
					c0,0.2,0.1,0.3,0.3,0.3H212.8z M209.5,304.8v3c0,0.2,0.1,0.3,0.3,0.3h3L209.5,304.8z"/>
			</g>
		</g>
	</g>
</g>
</svg>
