<?xml version="1.0" encoding="utf-8"?>
<!-- Generator: Adobe Illustrator 20.0.0, SVG Export Plug-In . SVG Version: 6.00 Build 0)  -->
<svg version="1.1" id="Layer_1" xmlns="http://www.w3.org/2000/svg" xmlns:xlink="http://www.w3.org/1999/xlink" x="0px" y="0px"
	 viewBox="0 0 612 612" style="enable-background:new 0 0 612 612;" xml:space="preserve">
<style type="text/css">
	.st0{fill:#6BCDEE;}
	.st1{opacity:0.48;}
	.st2{fill:url(#SVGID_1_);}
	.st3{fill:none;stroke:#676767;stroke-width:2;stroke-linecap:round;stroke-linejoin:round;stroke-dasharray:5.0102,5.0102;}
	.st4{fill:none;stroke:#CCCBCB;stroke-width:2;stroke-linecap:round;stroke-linejoin:round;stroke-dasharray:5.0102,5.0102;}
	.st5{fill:none;stroke:#D2D2D2;stroke-width:2;stroke-linecap:round;stroke-linejoin:round;stroke-dasharray:5.0102,5.0102;}
	.st6{fill:#333333;}
	.st7{fill:#4D4E4E;}
	.st8{fill:#808080;}
	.st9{fill:#1A1A1A;}
	.st10{fill:#676767;}
	.st11{fill:#F69220;}
	.st12{fill:#8BC540;}
	.st13{fill:#9C1F60;}
	.st14{fill:#F2F2F2;}
	.st15{fill:#29A9E1;}
	.st16{opacity:5.000000e-02;fill:#F2F2F2;}
	.st17{clip-path:url(#SVGID_3_);}
	.st18{fill:#FFFFFF;}
	.st19{fill:#5E5E5E;}
	.st20{fill:#EAEAEA;}
	.st21{fill:#F6D3B3;}
	.st22{fill:#484848;}
	.st23{fill:#855F4C;}
	.st24{fill:#CBDBDF;}
	.st25{fill:#7AA7B4;}
	.st26{fill:#F05A5A;}
	.st27{fill:#E2F3F7;}
</style>
<g>
	<g>
		<ellipse class="st0" cx="306" cy="306" rx="306" ry="304.7"/>
	</g>
	<g class="st1">
		
			<linearGradient id="SVGID_1_" gradientUnits="userSpaceOnUse" x1="1671.8904" y1="2135.8904" x2="2283.8896" y2="2135.8904" gradientTransform="matrix(4.489700e-11 -1 1 4.489700e-11 -1829.89 2283.8899)">
			<stop  offset="0" style="stop-color:#FFFFFF;stop-opacity:0"/>
			<stop  offset="1" style="stop-color:#FFFFFF"/>
		</linearGradient>
		<ellipse class="st2" cx="306" cy="306" rx="304.7" ry="306"/>
	</g>
	<g>
		<g>
			<circle class="st3" cx="306" cy="305.7" r="220.1"/>
		</g>
		<g>
			<circle class="st4" cx="254.9" cy="301.7" r="220.1"/>
		</g>
		<g>
			<circle class="st4" cx="357.1" cy="301.7" r="220.1"/>
		</g>
		<g>
			<circle class="st5" cx="311.2" cy="254.9" r="220.1"/>
		</g>
		<g>
			<circle class="st5" cx="311.2" cy="357.1" r="220.1"/>
		</g>
	</g>
	<g>
		<g>
			<g>
				<path class="st6" d="M358.2,174.1H243.4c-8.4,0-15.2,7.6-15.2,16.9v243c0,9.3,6.8,16.9,15.2,16.9h114.8
					c8.4,0,15.2-7.6,15.2-16.9V191C373.4,181.7,366.6,174.1,358.2,174.1z"/>
			</g>
			<g>
				<circle class="st7" cx="345.4" cy="184" r="4.6"/>
				<path class="st8" d="M345.4,189.1c-2.9,0-5.2-2.3-5.2-5.2c0-2.8,2.3-5.2,5.2-5.2s5.2,2.3,5.2,5.2
					C350.5,186.8,348.2,189.1,345.4,189.1z M345.4,179.9c-2.3,0-4.1,1.8-4.1,4.1c0,2.3,1.8,4.1,4.1,4.1c2.3,0,4.1-1.8,4.1-4.1
					C349.4,181.7,347.6,179.9,345.4,179.9z"/>
			</g>
			<g>
				<path class="st9" d="M319.3,184c0,1.1-0.9,2-2,2h-34.2c-1.1,0-2-0.9-2-2l0,0c0-1.1,0.9-2,2-2h34.2
					C318.4,181.9,319.3,182.8,319.3,184L319.3,184z"/>
				<path class="st7" d="M317.3,186.6h-34.2c-1.4,0-2.6-1.2-2.6-2.6c0-1.4,1.2-2.6,2.6-2.6h34.2c1.4,0,2.6,1.2,2.6,2.6
					C319.9,185.4,318.7,186.6,317.3,186.6z M283.1,182.5c-0.8,0-1.5,0.7-1.5,1.5c0,0.8,0.7,1.5,1.5,1.5h34.2c0.8,0,1.5-0.7,1.5-1.5
					c0-0.8-0.7-1.5-1.5-1.5H283.1z"/>
			</g>
			<g>
				<circle class="st9" cx="345.4" cy="184" r="2.7"/>
			</g>
		</g>
		<g>
			<rect x="240.5" y="196.5" class="st10" width="120.5" height="218.4"/>
		</g>
		<g>
			<polygon class="st8" points="361,414.9 240.5,414.9 361,196.5 			"/>
		</g>
		<g>
			<path class="st10" d="M300.8,443.5c-6.1,0-11.2-5-11.2-11.2c0-6.1,5-11.2,11.2-11.2c6.2,0,11.2,5,11.2,11.2
				C311.9,438.5,306.9,443.5,300.8,443.5z M300.8,422.3c-5.6,0-10.1,4.5-10.1,10.1c0,5.5,4.5,10.1,10.1,10.1
				c5.6,0,10.1-4.5,10.1-10.1C310.9,426.8,306.3,422.3,300.8,422.3z"/>
		</g>
		<rect x="240.5" y="397.5" class="st11" width="40.2" height="17.5"/>
		<rect x="280.7" y="397.4" class="st12" width="40.2" height="17.5"/>
		<rect x="320.9" y="397.4" class="st13" width="40.2" height="17.5"/>
		<g>
			<path class="st14" d="M343.5,400.9c-1,0-1.9,0.4-2.5,1.1c-0.6-0.7-1.5-1.1-2.5-1.1c-1.9,0-3.5,1.6-3.5,3.5c0,0.5,0.1,1,0.3,1.5
				c0,0,0.1,0.4,0.3,0.7c1.5,3,5.5,5,5.5,5s4-2,5.5-5c0,0,0.2-0.4,0.3-0.7c0.2-0.5,0.2-1,0.2-1.5C347,402.4,345.4,400.9,343.5,400.9
				L343.5,400.9z M343.5,400.9"/>
		</g>
		<g>
			<rect x="295.6" y="404.4" class="st14" width="10.4" height="3.6"/>
			<rect x="299" y="401" class="st14" width="3.6" height="10.4"/>
		</g>
		<path class="st14" d="M260.4,401.1l-2.9,5c-0.6,1.1-0.7,2.4,0,3.6c1,1.7,3.2,2.3,4.9,1.3c1.7-1,2.3-3.2,1.3-4.9l-2.9-5
			C260.7,400.9,260.5,400.9,260.4,401.1z"/>
	</g>
	<g>
		<circle class="st15" cx="251.3" cy="305.7" r="70.1"/>
		<path class="st16" d="M251.3,235.6v140.3c38.7,0,70.1-31.4,70.1-70.1C321.5,267,290.1,235.6,251.3,235.6z"/>
		<g>
			<defs>
				<circle id="SVGID_2_" cx="251.3" cy="305.7" r="70.1"/>
			</defs>
			<clipPath id="SVGID_3_">
				<use xlink:href="#SVGID_2_"  style="overflow:visible;"/>
			</clipPath>
			<g class="st17">
				<polygon class="st18" points="299.5,332.2 268.9,318.8 253.5,318.8 238.1,318.8 207.5,332.2 200.9,376.2 253.5,376.2 
					306.1,376.2 				"/>
				<polygon class="st19" points="255.7,324.2 253.5,324.2 251.4,324.2 245.8,344.3 253.5,362.5 261.2,344.3 				"/>
				<g>
					<polygon class="st20" points="238.1,318.8 253.5,362.5 233.4,343.8 239.7,335.9 227.1,335.6 227.1,323.6 					"/>
					<polygon class="st20" points="268.9,318.8 253.5,362.5 273.6,343.8 267.3,335.9 279.9,335.6 279.9,323.6 					"/>
				</g>
				<g>
					<polygon class="st18" points="238.1,318.8 243.9,313.8 253.5,313.8 242.4,331 					"/>
					<polygon class="st18" points="268.9,318.8 263.1,313.8 253.5,313.8 264.7,331 					"/>
				</g>
				<polygon class="st19" points="253.5,313.8 247.2,323.6 253.5,329.4 259.9,323.6 				"/>
				<g>
					<ellipse class="st21" cx="231.4" cy="290.5" rx="4.3" ry="6.5"/>
					<ellipse class="st21" cx="276.3" cy="290.5" rx="4.3" ry="6.5"/>
				</g>
				<path class="st21" d="M276.3,284.6c0,15.7-10.2,34.2-22.8,34.2c-12.6,0-22.8-18.5-22.8-34.2c0-15.7,10.2-22.7,22.8-22.7
					C266.1,261.9,276.3,268.9,276.3,284.6z"/>
				<g>
					<polygon class="st22" points="274.4,292.1 267.8,293.6 267.8,291.2 274.4,289.8 					"/>
					<polygon class="st22" points="232.7,292.1 239.3,293.6 239.3,291.2 232.7,289.8 					"/>
				</g>
				<path class="st23" d="M275.2,295.5h-1.8c0,0,0-8,0-10.2c0-2.2,0.9-4.2,0.9-8.6s-4.7-8.8-7.2-8.7l0.9-9.1c0,0,19.5,6.1,11.9,28.1
					C280,287,275.2,287,275.2,295.5z"/>
				<path class="st23" d="M227.1,265.8c3-6.2,10.6-12.9,22.8-13.6c17-1,18.3,6.7,18.3,6.7l-0.8,9.1c0,0-0.5,7-12.9,7.2
					c-12.3,0.2-22.3-1.1-21.7,3.7c0,0,0,0,0,0c0.3,1.9,0.4,3.1,0.5,3.9c0,0.3,0.1,0.6,0.1,0.9l0,0l0,0c0,0.2,0,0.4,0.1,0.5l0,0l0,0
					c0,0.3,0.1,0.6,0.1,1c0,2.2,0,10.2,0,10.2h-1.8c0-8.5-3.9-8.5-3.9-8.5C226.5,283.3,223.2,273.8,227.1,265.8z"/>
				<rect x="247.8" y="291.7" class="st22" width="11" height="2.2"/>
				<circle class="st18" cx="243.5" cy="292.7" r="7.5"/>
				<circle class="st18" cx="263.5" cy="292.7" r="7.5"/>
				<circle class="st18" cx="263.5" cy="292.7" r="7.5"/>
				<rect x="272.1" y="352.5" class="st24" width="15.4" height="7.8"/>
				<rect x="272.1" y="352.5" class="st25" width="15.4" height="2.3"/>
				<polygon class="st26" points="233.6,355 230,355 230,351.4 227,351.4 227,355 223.4,355 223.4,358 227,358 227,361.6 230,361.6 
					230,358 233.6,358 				"/>
				<path class="st27" d="M243.5,285.2c-4.1,0-7.5,3.3-7.5,7.5c0,2,0.8,3.9,2.2,5.2l10.6-10.5C247.5,286,245.6,285.2,243.5,285.2z"
					/>
				<path class="st27" d="M263.5,285.2c-4.1,0-7.5,3.3-7.5,7.5c0,2,0.8,3.9,2.2,5.3l10.6-10.5C267.4,286,265.6,285.2,263.5,285.2z"
					/>
				<g>
					<g>
						<path class="st22" d="M243.5,300.7c-4.4,0-8-3.6-8-8c0-4.4,3.6-8,8-8c4.4,0,8,3.6,8,8C251.6,297.1,248,300.7,243.5,300.7z
							 M243.5,285.7c-3.8,0-6.9,3.1-6.9,6.9s3.1,6.9,6.9,6.9c3.8,0,6.9-3.1,6.9-6.9S247.4,285.7,243.5,285.7z"/>
					</g>
					<g>
						<path class="st22" d="M263.5,300.7c-4.4,0-8-3.6-8-8c0-4.4,3.6-8,8-8c4.4,0,8,3.6,8,8C271.5,297.1,267.9,300.7,263.5,300.7z
							 M263.5,285.7c-3.8,0-6.9,3.1-6.9,6.9s3.1,6.9,6.9,6.9c3.8,0,6.9-3.1,6.9-6.9S267.3,285.7,263.5,285.7z"/>
					</g>
				</g>
			</g>
		</g>
	</g>
	<g>
		<circle class="st13" cx="85.9" cy="301.7" r="51.1"/>
		<g id="file_1_">
			<path class="st18" d="M105,290.4v35c0,0.6-0.5,1.1-1.1,1.1H65.7c-0.6,0-1.1-0.5-1.1-1.1v-48.8c0-0.6,0.5-1.1,1.1-1.1h24.4v13.8
				c0,0.6,0.5,1.1,1.1,1.1H105z M92.2,275.6v11.7c0,0.6,0.5,1.1,1.1,1.1H105L92.2,275.6z"/>
		</g>
		<path class="st16" d="M137.1,301.7c0-28.2-22.9-51.1-51.1-51.1v102.3C114.2,352.8,137.1,329.9,137.1,301.7z"/>
	</g>
	<g>
		<circle class="st7" cx="361" cy="241.9" r="40.6"/>
		<g id="message_x5F_out_3_">
			<path class="st18" d="M383.1,259.3l-11.4-11.4l11.4-11.4V259.3z M355.5,247.9l-11.4-11.4v22.7L355.5,247.9z M370.1,249.6h-13
				l-13,13h39L370.1,249.6z M363.6,217.1l-19.5,19.5h3.2l11.4,11.4h9.7l11.4-11.4h3.2L363.6,217.1z M371.5,235h-4.6v7.5
				c0,0.5-0.3,0.6-0.7,0.6h-5.1c-0.5,0-0.7-0.2-0.7-0.6V235h-4.6c-0.2,0-0.3-0.3-0.2-0.5l7.7-9.3c0.1-0.2,0.4-0.1,0.5,0l7.8,9.2
				C371.8,234.6,371.7,235,371.5,235z"/>
		</g>
		<path class="st16" d="M401.7,241.9c0-22.4-18.2-40.6-40.6-40.6v81.2C383.5,282.5,401.7,264.3,401.7,241.9z"/>
	</g>
	<g>
		<circle class="st6" cx="306" cy="525.8" r="51.1"/>
		<g id="facetime_x5F_video_1_">
			<path class="st18" d="M335.6,515.2v28.5c0,0.7-0.4,0.8-0.9,0.4l-15.7-12.6v13.4c0,2-1.6,3.6-3.6,3.6h-33.2c-2,0-3.6-1.6-3.6-3.6
				v-30.9c0-2,1.6-3.6,3.6-3.6h33.2c2,0,3.6,1.6,3.6,3.6v13.4l15.7-12.6C335.1,514.4,335.6,514.6,335.6,515.2z"/>
		</g>
		<path class="st16" d="M357.1,525.8c0-28.2-22.9-51.1-51.1-51.1v102.3C334.2,576.9,357.1,554,357.1,525.8z"/>
	</g>
	<g>
		<circle class="st11" cx="526.1" cy="306" r="51.1"/>
		<path class="st16" d="M577.2,305.7c0-28.2-22.9-51.1-51.1-51.1v102.3C554.3,356.8,577.2,333.9,577.2,305.7z"/>
		<g id="picture_1_">
			<path class="st18" d="M554.3,286.2h-52c-1.1,0-2,0.9-2,2v42.7c0,1.1,0.9,2,2,2h52c1.1,0,2-0.9,2-2v-42.7
				C556.3,287.1,555.4,286.2,554.3,286.2z M551.7,313.2l-8.2-8.4c0,0-2.3-2.3-4.5-2.3c-2.3,0-4.5,2.3-4.5,2.3s-6.2,7-8.5,9.4
				c3.7,1.6,9.4,10.8,5.1,8.1c-4.3-2.8-11.9-5.7-11.9-5.7l-14.2,9.4v-35.1h46.8V313.2z M509.1,300.2c0-2.8,2.3-5.1,5.1-5.1
				s5.1,2.3,5.1,5.1s-2.3,5.1-5.1,5.1S509.1,303,509.1,300.2z"/>
		</g>
	</g>
	<circle class="st11" cx="134.4" cy="443.5" r="13.4"/>
	<circle class="st15" cx="134.4" cy="165.4" r="13.4"/>
	<circle class="st13" cx="474.9" cy="443.5" r="13.4"/>
	<circle class="st12" cx="474.9" cy="165.4" r="13.4"/>
	<g>
		<circle class="st8" cx="306" cy="85.6" r="51.1"/>
		<g id="notes_x5F_2_1_">
			<g>
				<path class="st18" d="M291.8,62.4V58c0-1.2,1.1-2.3,2.3-2.3h4.4v-2.1c0-1.2,1-2.4,2.2-2.4h9c1.2,0,2.2,1.2,2.2,2.4v2.1h4.4
					c1.2,0,2.3,1.1,2.3,2.3v4.4c0,1.2-1.1,2.2-2.3,2.2h-22.4C292.8,64.7,291.8,63.7,291.8,62.4z M327.8,59.1v51.7
					c0,0.6-0.5,1.1-1.1,1.1h-42.7c-0.6,0-1.1-0.5-1.1-1.1V59.1c0-0.6,0.5-1.1,1.1-1.1h5.6v6.7c0,1.2,1,2.2,2.2,2.2h27
					c1.2,0,2.2-1,2.2-2.2v-6.7h5.6C327.2,57.9,327.8,58.4,327.8,59.1z M289.5,82.7H312v-2.2h-22.5V82.7z M300.8,102.9h-11.2v2.2
					h11.2V102.9z M321,98.4h-31.5v2.2H321V98.4z M321,93.9h-31.5v2.2H321V93.9z M321,89.4h-31.5v2.2H321V89.4z M321,84.9h-29.2v2.2
					H321V84.9z M321,75.9h-31.5v2.2H321V75.9z M321,71.4h-29.2v2.2H321V71.4z"/>
			</g>
		</g>
		<path class="st16" d="M357.4,85.6c0-28.2-22.9-51.1-51.1-51.1v102.3C334.5,136.8,357.4,113.9,357.4,85.6z"/>
	</g>
</g>
</svg>
