<?xml version="1.0" encoding="utf-8"?>
<!-- Generator: Adobe Illustrator 20.0.0, SVG Export Plug-In . SVG Version: 6.00 Build 0)  -->
<svg version="1.1" id="Layer_1" xmlns="http://www.w3.org/2000/svg" xmlns:xlink="http://www.w3.org/1999/xlink" x="0px" y="0px"
	 viewBox="0 0 612 612" style="enable-background:new 0 0 612 612;" xml:space="preserve">
<style type="text/css">
	.st0{fill:#138FCE;}
	.st1{fill:#FFFFFF;}
	.st2{fill:#0E80C2;}
	.st3{fill:#F05A5A;}
	.st4{opacity:0.3;fill:#FFFFFF;enable-background:new    ;}
	.st5{opacity:0.5;fill:#FFFFFF;enable-background:new    ;}
	.st6{fill:#1DB5E9;}
	.st7{fill:none;stroke:#A4D8EC;stroke-width:7;stroke-linecap:round;stroke-linejoin:round;stroke-miterlimit:10;}
	.st8{clip-path:url(#SVGID_2_);fill:#1DB5E9;}
	
		.st9{clip-path:url(#SVGID_4_);fill:none;stroke:#A4D8EC;stroke-width:7;stroke-linecap:round;stroke-linejoin:round;stroke-miterlimit:10;}
	.st10{clip-path:url(#SVGID_6_);}
	.st11{clip-path:url(#SVGID_8_);}
	
		.st12{fill:none;stroke:#FFFFFF;stroke-width:3;stroke-linecap:round;stroke-linejoin:round;stroke-miterlimit:10;stroke-dasharray:8;}
	.st13{fill:none;stroke:#F05A5A;stroke-width:2;stroke-miterlimit:10;}
</style>
<g>
	<g>
		<ellipse class="st0" cx="306" cy="306" rx="306" ry="306"/>
	</g>
	<g>
		<path class="st1" d="M55.4,294.4c0.7-0.1,1.8-0.3,2.9-0.3c1.6,0,2.6,0.3,3.3,0.9c0.6,0.5,1,1.2,1,2.1c0,1.2-0.8,2.2-2.1,2.7l0,0
			c1.2,0.3,2.5,1.2,2.5,3c0,1-0.4,1.8-1,2.4c-0.8,0.8-2.2,1.1-4.2,1.1c-1.1,0-1.9-0.1-2.4-0.1V294.4z M57,299.4h1.4
			c1.7,0,2.6-0.9,2.6-2c0-1.4-1.1-2-2.7-2c-0.7,0-1.1,0.1-1.4,0.1v3.9H57z M57,305.2c0.3,0.1,0.8,0.1,1.3,0.1c1.6,0,3.1-0.6,3.1-2.4
			c0-1.7-1.4-2.3-3.1-2.3H57V305.2z"/>
		<path class="st1" d="M72.4,304c0,0.9,0,1.7,0.1,2.4h-1.4L71,305l0,0c-0.4,0.7-1.3,1.6-2.9,1.6c-1.4,0-3-0.8-3-3.8v-5.1h1.6v4.8
			c0,1.7,0.5,2.8,1.9,2.8c1.1,0,1.8-0.7,2.1-1.4c0.1-0.2,0.1-0.5,0.1-0.8v-5.3h1.6C72.4,297.8,72.4,304,72.4,304z"/>
		<path class="st1" d="M74.8,304.8c0.5,0.3,1.3,0.6,2.1,0.6c1.2,0,1.7-0.6,1.7-1.3c0-0.8-0.5-1.2-1.6-1.6c-1.6-0.6-2.3-1.4-2.3-2.5
			c0-1.4,1.1-2.6,3-2.6c0.9,0,1.7,0.3,2.1,0.5l-0.4,1.2c-0.3-0.2-1-0.5-1.8-0.5c-0.9,0-1.5,0.5-1.5,1.2s0.5,1,1.7,1.5
			c1.5,0.6,2.3,1.3,2.3,2.6c0,1.5-1.2,2.6-3.3,2.6c-1,0-1.8-0.2-2.4-0.6L74.8,304.8z"/>
		<path class="st1" d="M83.9,295.3c0,0.5-0.4,1-1,1s-1-0.4-1-1s0.4-1,1-1S83.9,294.7,83.9,295.3z M82.1,306.4v-8.7h1.6v8.7H82.1z"/>
		<path class="st1" d="M86.4,300.1c0-0.9,0-1.6-0.1-2.4h1.4l0.1,1.4l0,0c0.4-0.8,1.4-1.6,2.9-1.6c1.2,0,3.1,0.7,3.1,3.7v5.2h-1.6v-5
			c0-1.4-0.5-2.6-2-2.6c-1,0-1.9,0.7-2.1,1.6c-0.1,0.2-0.1,0.5-0.1,0.7v5.2h-1.6C86.4,306.3,86.4,300.1,86.4,300.1z"/>
		<path class="st1" d="M97.2,302.3c0,2.1,1.4,3,3,3c1.1,0,1.8-0.2,2.4-0.5l0.3,1.1c-0.6,0.3-1.5,0.5-2.9,0.5c-2.7,0-4.3-1.8-4.3-4.4
			s1.5-4.7,4.1-4.7c2.8,0,3.6,2.5,3.6,4.1c0,0.3,0,0.6-0.1,0.7h-6.1V302.3z M101.9,301.2c0-1-0.4-2.6-2.2-2.6
			c-1.6,0-2.3,1.5-2.4,2.6H101.9z"/>
		<path class="st1" d="M105.2,304.8c0.5,0.3,1.3,0.6,2.1,0.6c1.2,0,1.7-0.6,1.7-1.3c0-0.8-0.5-1.2-1.6-1.6c-1.6-0.6-2.3-1.4-2.3-2.5
			c0-1.4,1.1-2.6,3-2.6c0.9,0,1.7,0.3,2.1,0.5l-0.4,1.2c-0.3-0.2-1-0.5-1.8-0.5c-0.9,0-1.5,0.5-1.5,1.2s0.5,1,1.7,1.5
			c1.5,0.6,2.3,1.3,2.3,2.6c0,1.5-1.2,2.6-3.3,2.6c-1,0-1.8-0.2-2.4-0.6L105.2,304.8z"/>
		<path class="st1" d="M112.3,304.8c0.5,0.3,1.3,0.6,2.1,0.6c1.2,0,1.7-0.6,1.7-1.3c0-0.8-0.5-1.2-1.6-1.6c-1.6-0.6-2.3-1.4-2.3-2.5
			c0-1.4,1.1-2.6,3-2.6c0.9,0,1.7,0.3,2.1,0.5l-0.4,1.2c-0.3-0.2-1-0.5-1.8-0.5c-0.9,0-1.5,0.5-1.5,1.2s0.5,1,1.7,1.5
			c1.5,0.6,2.3,1.3,2.3,2.6c0,1.5-1.2,2.6-3.3,2.6c-1,0-1.8-0.2-2.4-0.6L112.3,304.8z"/>
		<path class="st1" d="M123.3,304.5c0.7,0.4,1.7,0.8,2.8,0.8c1.6,0,2.5-0.8,2.5-2.1c0-1.1-0.6-1.8-2.3-2.4c-2-0.7-3.2-1.7-3.2-3.4
			c0-1.9,1.6-3.3,3.9-3.3c1.2,0,2.1,0.3,2.7,0.6l-0.4,1.3c-0.4-0.2-1.2-0.6-2.3-0.6c-1.7,0-2.3,1-2.3,1.8c0,1.1,0.7,1.7,2.4,2.3
			c2.1,0.8,3.1,1.8,3.1,3.6c0,1.9-1.4,3.5-4.2,3.5c-1.2,0-2.4-0.3-3.1-0.8L123.3,304.5z"/>
		<path class="st1" d="M133.3,302.3c0,2.1,1.4,3,3,3c1.1,0,1.8-0.2,2.4-0.5l0.3,1.1c-0.6,0.3-1.5,0.5-2.9,0.5
			c-2.7,0-4.3-1.8-4.3-4.4s1.5-4.7,4.1-4.7c2.8,0,3.6,2.5,3.6,4.1c0,0.3,0,0.6-0.1,0.7h-6.1V302.3z M137.9,301.2
			c0-1-0.4-2.6-2.2-2.6c-1.6,0-2.3,1.5-2.4,2.6H137.9z"/>
		<path class="st1" d="M141.4,300.4c0-1,0-1.9-0.1-2.7h1.4l0.1,1.7h0.1c0.4-1.2,1.4-1.9,2.4-1.9c0.2,0,0.3,0,0.5,0.1v1.5
			c-0.2,0-0.3-0.1-0.5-0.1c-1.1,0-1.9,0.8-2.1,2c0,0.2-0.1,0.5-0.1,0.7v4.6h-1.6L141.4,300.4L141.4,300.4z"/>
		<path class="st1" d="M148.4,297.7l1.7,4.9c0.3,0.8,0.5,1.5,0.7,2.2h0.1c0.2-0.7,0.5-1.4,0.7-2.2l1.7-4.9h1.7l-3.4,8.7H150
			l-3.3-8.7H148.4z"/>
		<path class="st1" d="M158.2,295.3c0,0.5-0.4,1-1,1s-1-0.4-1-1s0.4-1,1-1S158.2,294.7,158.2,295.3z M156.4,306.4v-8.7h1.6v8.7
			H156.4z"/>
		<path class="st1" d="M166.9,306.1c-0.4,0.2-1.3,0.5-2.5,0.5c-2.6,0-4.3-1.8-4.3-4.4c0-2.7,1.8-4.6,4.7-4.6c0.9,0,1.8,0.2,2.2,0.5
			l-0.4,1.2c-0.4-0.2-1-0.4-1.8-0.4c-2,0-3.1,1.5-3.1,3.3c0,2,1.3,3.3,3,3.3c0.9,0,1.5-0.2,1.9-0.4L166.9,306.1z"/>
		<path class="st1" d="M169.5,302.3c0,2.1,1.4,3,3,3c1.1,0,1.8-0.2,2.4-0.5l0.3,1.1c-0.6,0.3-1.5,0.5-2.9,0.5
			c-2.7,0-4.3-1.8-4.3-4.4s1.5-4.7,4.1-4.7c2.8,0,3.6,2.5,3.6,4.1c0,0.3,0,0.6-0.1,0.7h-6.1V302.3z M174.1,301.2
			c0-1-0.4-2.6-2.2-2.6c-1.6,0-2.3,1.5-2.4,2.6H174.1z"/>
		<path class="st1" d="M177.4,304.8c0.5,0.3,1.3,0.6,2.1,0.6c1.2,0,1.7-0.6,1.7-1.3c0-0.8-0.5-1.2-1.6-1.6c-1.6-0.6-2.3-1.4-2.3-2.5
			c0-1.4,1.1-2.6,3-2.6c0.9,0,1.7,0.3,2.1,0.5l-0.4,1.2c-0.3-0.2-1-0.5-1.8-0.5c-0.9,0-1.5,0.5-1.5,1.2s0.5,1,1.7,1.5
			c1.5,0.6,2.3,1.3,2.3,2.6c0,1.5-1.2,2.6-3.3,2.6c-1,0-1.8-0.2-2.4-0.6L177.4,304.8z"/>
	</g>
	<g>
		<path class="st1" d="M452.6,306.6l-3.1-12.1h1.7l1.4,6.1c0.4,1.5,0.7,3,0.9,4.2l0,0c0.2-1.2,0.6-2.6,1-4.2l1.6-6.1h1.6l1.5,6.2
			c0.3,1.4,0.7,2.9,0.8,4.2l0,0c0.3-1.3,0.6-2.7,1-4.2l1.6-6.1h1.6l-3.4,12.1h-1.6l-1.5-6.3c-0.4-1.5-0.6-2.7-0.8-4l0,0
			c-0.2,1.2-0.5,2.4-0.9,4l-1.7,6.3h-1.7V306.6z"/>
		<path class="st1" d="M474.4,306.2c-0.6,0.3-1.7,0.6-3.2,0.6c-3.4,0-6-2.2-6-6.1c0-3.8,2.6-6.4,6.3-6.4c1.5,0,2.5,0.3,2.9,0.5
			l-0.4,1.3c-0.6-0.3-1.4-0.5-2.4-0.5c-2.8,0-4.7,1.8-4.7,5c0,3,1.7,4.9,4.7,4.9c1,0,1.9-0.2,2.6-0.5L474.4,306.2z"/>
		<path class="st1" d="M476.3,294.5h6.5v1.3h-5v4h4.6v1.3h-4.6v5.5h-1.6v-12.1H476.3z"/>
		<path class="st1" d="M488.7,304.7c0.7,0.4,1.7,0.8,2.8,0.8c1.6,0,2.5-0.8,2.5-2.1c0-1.1-0.6-1.8-2.3-2.4c-2-0.7-3.2-1.7-3.2-3.4
			c0-1.9,1.6-3.3,3.9-3.3c1.2,0,2.1,0.3,2.7,0.6l-0.4,1.3c-0.4-0.2-1.2-0.6-2.3-0.6c-1.7,0-2.3,1-2.3,1.8c0,1.1,0.7,1.7,2.4,2.3
			c2.1,0.8,3.1,1.8,3.1,3.6c0,1.9-1.4,3.5-4.3,3.5c-1.2,0-2.4-0.3-3.1-0.8L488.7,304.7z"/>
		<path class="st1" d="M498.7,302.6c0,2.1,1.4,3,3,3c1.1,0,1.8-0.2,2.4-0.5l0.3,1.1c-0.6,0.3-1.5,0.5-2.9,0.5
			c-2.7,0-4.3-1.8-4.3-4.4s1.5-4.7,4.1-4.7c2.8,0,3.6,2.5,3.6,4.1c0,0.3,0,0.6-0.1,0.7h-6.1V302.6z M503.4,301.4
			c0-1-0.4-2.6-2.2-2.6c-1.6,0-2.3,1.5-2.4,2.6H503.4z"/>
		<path class="st1" d="M506.9,300.6c0-1,0-1.9-0.1-2.7h1.4l0.1,1.7h0.1c0.4-1.2,1.4-1.9,2.4-1.9c0.2,0,0.3,0,0.5,0.1v1.5
			c-0.2,0-0.3-0.1-0.5-0.1c-1.1,0-1.9,0.8-2.1,2c0,0.2-0.1,0.5-0.1,0.7v4.6H507L506.9,300.6L506.9,300.6z"/>
		<path class="st1" d="M513.8,297.9l1.7,4.9c0.3,0.8,0.5,1.5,0.7,2.2h0.1c0.2-0.7,0.5-1.4,0.7-2.2l1.7-4.9h1.7l-3.4,8.7h-1.5
			l-3.3-8.7H513.8z"/>
		<path class="st1" d="M523.6,295.5c0,0.5-0.4,1-1,1s-1-0.4-1-1s0.4-1,1-1C523.2,294.5,523.6,294.9,523.6,295.5z M521.8,306.6v-8.7
			h1.6v8.7H521.8z"/>
		<path class="st1" d="M532.3,306.3c-0.4,0.2-1.3,0.5-2.5,0.5c-2.6,0-4.3-1.8-4.3-4.4c0-2.7,1.8-4.6,4.7-4.6c0.9,0,1.8,0.2,2.2,0.5
			l-0.4,1.2c-0.4-0.2-1-0.4-1.8-0.4c-2,0-3.1,1.5-3.1,3.3c0,2,1.3,3.3,3,3.3c0.9,0,1.5-0.2,1.9-0.4L532.3,306.3z"/>
		<path class="st1" d="M534.9,302.6c0,2.1,1.4,3,3,3c1.1,0,1.8-0.2,2.4-0.5l0.3,1.1c-0.6,0.3-1.5,0.5-2.9,0.5
			c-2.7,0-4.3-1.8-4.3-4.4s1.5-4.7,4.1-4.7c2.8,0,3.6,2.5,3.6,4.1c0,0.3,0,0.6-0.1,0.7h-6.1V302.6z M539.5,301.4
			c0-1-0.4-2.6-2.2-2.6c-1.6,0-2.3,1.5-2.4,2.6H539.5z"/>
		<path class="st1" d="M542.8,305c0.5,0.3,1.3,0.6,2.1,0.6c1.2,0,1.7-0.6,1.7-1.3c0-0.8-0.5-1.2-1.6-1.6c-1.6-0.6-2.3-1.4-2.3-2.5
			c0-1.4,1.1-2.6,3-2.6c0.9,0,1.7,0.3,2.1,0.5l-0.4,1.2c-0.3-0.2-1-0.5-1.8-0.5c-0.9,0-1.5,0.5-1.5,1.2s0.5,1,1.7,1.5
			c1.5,0.6,2.3,1.3,2.3,2.6c0,1.5-1.2,2.6-3.3,2.6c-1,0-1.8-0.2-2.4-0.6L542.8,305z"/>
	</g>
	<g>
		<path class="st1" d="M436.4,139.4c0.8-0.1,1.7-0.2,3-0.2c1.5,0,2.7,0.4,3.4,1c0.7,0.6,1.1,1.5,1.1,2.5c0,1.1-0.3,2-0.9,2.6
			c-0.8,0.9-2.2,1.3-3.7,1.3c-0.5,0-0.9,0-1.3-0.1v4.9h-1.6V139.4z M438,145.3c0.3,0.1,0.8,0.1,1.3,0.1c1.9,0,3-0.9,3-2.6
			c0-1.6-1.1-2.4-2.9-2.4c-0.7,0-1.2,0.1-1.5,0.1v4.8H438z"/>
		<path class="st1" d="M445.6,145.4c0-1,0-1.9-0.1-2.7h1.4l0.1,1.7h0.1c0.4-1.2,1.3-1.9,2.4-1.9c0.2,0,0.3,0,0.5,0.1v1.5
			c-0.2,0-0.3-0.1-0.5-0.1c-1.1,0-1.9,0.8-2.1,2c0,0.2-0.1,0.5-0.1,0.7v4.6h-1.6L445.6,145.4L445.6,145.4z"/>
		<path class="st1" d="M452.2,147.4c0,2.1,1.4,3,3,3c1.1,0,1.8-0.2,2.4-0.5l0.3,1.1c-0.6,0.3-1.5,0.5-2.9,0.5
			c-2.7,0-4.3-1.8-4.3-4.4s1.5-4.7,4.1-4.7c2.8,0,3.6,2.5,3.6,4.1c0,0.3,0,0.6-0.1,0.7h-6.1V147.4z M456.9,146.2
			c0-1-0.4-2.6-2.2-2.6c-1.6,0-2.3,1.5-2.4,2.6H456.9z"/>
		<path class="st1" d="M460.2,149.8c0.5,0.3,1.3,0.6,2.1,0.6c1.2,0,1.7-0.6,1.7-1.3c0-0.8-0.5-1.2-1.6-1.6c-1.6-0.6-2.3-1.4-2.3-2.5
			c0-1.4,1.1-2.6,3-2.6c0.9,0,1.7,0.3,2.1,0.5l-0.4,1.2c-0.3-0.2-1-0.5-1.8-0.5c-0.9,0-1.5,0.5-1.5,1.2s0.5,1,1.7,1.5
			c1.5,0.6,2.3,1.3,2.3,2.6c0,1.5-1.2,2.6-3.3,2.6c-1,0-1.8-0.2-2.4-0.6L460.2,149.8z"/>
		<path class="st1" d="M468.4,147.4c0,2.1,1.4,3,3,3c1.1,0,1.8-0.2,2.4-0.5l0.3,1.1c-0.6,0.3-1.5,0.5-2.9,0.5
			c-2.7,0-4.3-1.8-4.3-4.4s1.5-4.7,4.1-4.7c2.8,0,3.6,2.5,3.6,4.1c0,0.3,0,0.6-0.1,0.7h-6.1V147.4z M473,146.2c0-1-0.4-2.6-2.2-2.6
			c-1.6,0-2.3,1.5-2.4,2.6H473z"/>
		<path class="st1" d="M476.5,145.1c0-0.9,0-1.6-0.1-2.4h1.4l0.1,1.4l0,0c0.4-0.8,1.4-1.6,2.9-1.6c1.2,0,3.1,0.7,3.1,3.7v5.2h-1.6
			v-5c0-1.4-0.5-2.6-2-2.6c-1,0-1.9,0.7-2.1,1.6c-0.1,0.2-0.1,0.5-0.1,0.7v5.2h-1.6L476.5,145.1L476.5,145.1z"/>
		<path class="st1" d="M488.3,140.2v2.5h2.3v1.2h-2.3v4.7c0,1.1,0.3,1.7,1.2,1.7c0.4,0,0.7-0.1,0.9-0.1l0.1,1.2
			c-0.3,0.1-0.8,0.2-1.4,0.2c-0.7,0-1.3-0.2-1.7-0.7c-0.5-0.5-0.6-1.2-0.6-2.3v-4.8h-1.4v-1.2h1.4v-2.1L488.3,140.2z"/>
		<path class="st1" d="M497.2,151.4l-0.1-1.1H497c-0.5,0.7-1.4,1.3-2.7,1.3c-1.8,0-2.7-1.2-2.7-2.5c0-2.1,1.9-3.3,5.2-3.2v-0.2
			c0-0.7-0.2-2-2-2c-0.8,0-1.7,0.3-2.3,0.6l-0.4-1c0.7-0.5,1.8-0.8,2.9-0.8c2.7,0,3.3,1.8,3.3,3.6v3.3c0,0.8,0,1.5,0.1,2.1
			L497.2,151.4L497.2,151.4z M497,147c-1.7,0-3.7,0.3-3.7,2c0,1,0.7,1.5,1.5,1.5c1.1,0,1.9-0.7,2.1-1.5c0.1-0.2,0.1-0.3,0.1-0.5V147
			z"/>
		<path class="st1" d="M502.9,140.2v2.5h2.3v1.2h-2.3v4.7c0,1.1,0.3,1.7,1.2,1.7c0.4,0,0.7-0.1,0.9-0.1l0.1,1.2
			c-0.3,0.1-0.8,0.2-1.4,0.2c-0.7,0-1.3-0.2-1.7-0.7c-0.5-0.5-0.6-1.2-0.6-2.3v-4.8H500v-1.2h1.3v-2.1L502.9,140.2z"/>
		<path class="st1" d="M508.7,140.3c0,0.5-0.4,1-1,1s-1-0.4-1-1s0.4-1,1-1C508.3,139.3,508.7,139.7,508.7,140.3z M506.9,151.4v-8.7
			h1.6v8.7H506.9z"/>
		<path class="st1" d="M519,147c0,3.2-2.2,4.6-4.3,4.6c-2.4,0-4.2-1.7-4.2-4.5c0-2.9,1.9-4.6,4.3-4.6C517.4,142.5,519,144.3,519,147
			z M512.1,147.1c0,1.9,1.1,3.3,2.6,3.3s2.6-1.4,2.6-3.4c0-1.5-0.7-3.3-2.6-3.3C512.9,143.7,512.1,145.4,512.1,147.1z"/>
		<path class="st1" d="M521,145.1c0-0.9,0-1.6-0.1-2.4h1.4l0.1,1.4l0,0c0.4-0.8,1.4-1.6,2.9-1.6c1.2,0,3.1,0.7,3.1,3.7v5.2h-1.6v-5
			c0-1.4-0.5-2.6-2-2.6c-1,0-1.9,0.7-2.1,1.6c-0.1,0.2-0.1,0.5-0.1,0.7v5.2H521V145.1z"/>
		<path class="st1" d="M438.7,160.9h1.6v10.8h5.2v1.3h-6.8L438.7,160.9L438.7,160.9z"/>
		<path class="st1" d="M452,173l-0.1-1.1h-0.1c-0.5,0.7-1.4,1.3-2.7,1.3c-1.8,0-2.7-1.2-2.7-2.5c0-2.1,1.9-3.3,5.2-3.2v-0.2
			c0-0.7-0.2-2-2-2c-0.8,0-1.7,0.3-2.3,0.6l-0.4-1c0.7-0.5,1.8-0.8,2.9-0.8c2.7,0,3.3,1.8,3.3,3.6v3.3c0,0.8,0,1.5,0.1,2.1L452,173
			L452,173z M451.8,168.6c-1.7,0-3.7,0.3-3.7,2c0,1,0.7,1.5,1.5,1.5c1.1,0,1.9-0.7,2.1-1.5c0.1-0.2,0.1-0.3,0.1-0.5V168.6z"/>
		<path class="st1" d="M456.3,164.3l1.9,5.1c0.2,0.6,0.4,1.3,0.6,1.8l0,0c0.2-0.5,0.3-1.2,0.6-1.8l1.7-5.1h1.7l-2.4,6.2
			c-1.1,3-1.9,4.5-3,5.5c-0.8,0.7-1.5,1-1.9,1l-0.4-1.3c0.4-0.1,0.9-0.4,1.4-0.8c0.4-0.3,1-1,1.3-1.8c0.1-0.2,0.1-0.3,0.1-0.4
			s0-0.2-0.1-0.4l-3.2-8L456.3,164.3L456.3,164.3z"/>
		<path class="st1" d="M464.9,169c0,2.1,1.4,3,3,3c1.1,0,1.8-0.2,2.4-0.5l0.3,1.1c-0.6,0.3-1.5,0.5-2.9,0.5c-2.7,0-4.3-1.8-4.3-4.4
			s1.5-4.7,4.1-4.7c2.8,0,3.6,2.5,3.6,4.1c0,0.3,0,0.6-0.1,0.7h-6.1V169z M469.5,167.8c0-1-0.4-2.6-2.2-2.6c-1.6,0-2.3,1.5-2.4,2.6
			H469.5z"/>
		<path class="st1" d="M473,167c0-1,0-1.9-0.1-2.7h1.4l0.1,1.7h0.1c0.4-1.2,1.3-1.9,2.4-1.9c0.2,0,0.3,0,0.5,0.1v1.5
			c-0.2,0-0.3-0.1-0.5-0.1c-1.1,0-1.9,0.8-2.1,2c0,0.2-0.1,0.5-0.1,0.7v4.6H473V167z"/>
		<path class="st1" d="M482.8,161c0.8-0.1,1.7-0.2,3-0.2c1.5,0,2.7,0.4,3.4,1c0.7,0.6,1.1,1.5,1.1,2.5c0,1.1-0.3,2-0.9,2.6
			c-0.8,0.9-2.2,1.3-3.7,1.3c-0.5,0-0.9,0-1.3-0.1v4.9h-1.6V161z M484.3,166.9c0.3,0.1,0.8,0.1,1.3,0.1c1.9,0,3-0.9,3-2.6
			c0-1.6-1.1-2.4-2.9-2.4c-0.7,0-1.2,0.1-1.5,0.1v4.8H484.3z"/>
		<path class="st1" d="M499.3,170.7c0,0.9,0,1.7,0.1,2.4H498l-0.1-1.4l0,0c-0.4,0.7-1.3,1.6-2.9,1.6c-1.4,0-3-0.8-3-3.8v-5.1h1.6
			v4.8c0,1.7,0.5,2.8,1.9,2.8c1.1,0,1.8-0.7,2.1-1.4c0.1-0.2,0.1-0.5,0.1-0.8v-5.3h1.6L499.3,170.7L499.3,170.7z"/>
		<path class="st1" d="M501.9,173c0-0.6,0.1-1.5,0.1-2.3v-10.5h1.6v5.5l0,0c0.6-1,1.6-1.6,3-1.6c2.2,0,3.7,1.8,3.7,4.4
			c0,3.1-2,4.7-3.9,4.7c-1.3,0-2.3-0.5-2.9-1.6h-0.1l-0.1,1.4H501.9z M503.5,169.5c0,0.2,0,0.4,0.1,0.6c0.3,1.1,1.2,1.9,2.4,1.9
			c1.7,0,2.6-1.4,2.6-3.3c0-1.7-0.9-3.2-2.6-3.2c-1.1,0-2.1,0.7-2.4,1.9c0,0.2-0.1,0.4-0.1,0.6V169.5z"/>
		<path class="st1" d="M512.2,160.3h1.6V173h-1.6V160.3z"/>
		<path class="st1" d="M518.2,161.9c0,0.5-0.4,1-1,1s-1-0.4-1-1s0.4-1,1-1S518.2,161.3,518.2,161.9z M516.4,173v-8.7h1.6v8.7H516.4z
			"/>
		<path class="st1" d="M526.9,172.7c-0.4,0.2-1.3,0.5-2.5,0.5c-2.6,0-4.3-1.8-4.3-4.4c0-2.7,1.8-4.6,4.7-4.6c0.9,0,1.8,0.2,2.2,0.5
			l-0.4,1.2c-0.4-0.2-1-0.4-1.8-0.4c-2,0-3.1,1.5-3.1,3.3c0,2,1.3,3.3,3,3.3c0.9,0,1.5-0.2,1.9-0.4L526.9,172.7z"/>
	</g>
	<g>
		<path class="st1" d="M280.3,44.1c0.8-0.2,1.9-0.3,3-0.3c1.7,0,2.8,0.3,3.5,1c0.6,0.5,1,1.4,1,2.3c0,1.6-1,2.7-2.3,3.1v0.1
			c0.9,0.3,1.5,1.2,1.8,2.4c0.4,1.7,0.7,2.9,0.9,3.3h-1.6c-0.2-0.3-0.5-1.4-0.8-2.9c-0.4-1.7-1-2.3-2.4-2.4h-1.5V56h-1.6V44.1z
			 M281.9,49.7h1.6c1.7,0,2.7-0.9,2.7-2.3c0-1.6-1.1-2.3-2.8-2.3c-0.8,0-1.3,0.1-1.5,0.1L281.9,49.7L281.9,49.7z"/>
		<path class="st1" d="M290.9,52.1c0,2.1,1.4,3,3,3c1.1,0,1.8-0.2,2.4-0.5l0.3,1.1c-0.6,0.3-1.5,0.5-2.9,0.5c-2.7,0-4.3-1.8-4.3-4.4
			s1.5-4.7,4.1-4.7c2.8,0,3.6,2.5,3.6,4.1c0,0.3,0,0.6-0.1,0.7h-6.1V52.1z M295.5,50.9c0-1-0.4-2.6-2.2-2.6c-1.6,0-2.3,1.5-2.4,2.6
			H295.5z"/>
		<path class="st1" d="M299,50.3c0-1.1,0-2-0.1-2.8h1.4l0.1,1.5l0,0c0.6-1.1,1.7-1.7,3.1-1.7c2.1,0,3.7,1.8,3.7,4.4
			c0,3.1-1.9,4.7-4,4.7c-1.2,0-2.2-0.5-2.7-1.4l0,0v4.7H299V50.3z M300.6,52.6c0,0.2,0,0.5,0.1,0.6c0.3,1.1,1.2,1.9,2.4,1.9
			c1.7,0,2.6-1.4,2.6-3.4c0-1.7-0.9-3.2-2.6-3.2c-1.1,0-2.1,0.8-2.4,2c-0.1,0.2-0.1,0.4-0.1,0.6V52.6z"/>
		<path class="st1" d="M317.1,51.7c0,3.2-2.2,4.6-4.3,4.6c-2.4,0-4.2-1.7-4.2-4.5c0-2.9,1.9-4.6,4.3-4.6
			C315.4,47.2,317.1,49,317.1,51.7z M310.2,51.8c0,1.9,1.1,3.3,2.6,3.3s2.6-1.4,2.6-3.4c0-1.5-0.7-3.3-2.6-3.3
			C311,48.4,310.2,50.1,310.2,51.8z"/>
		<path class="st1" d="M319.1,50.1c0-1,0-1.9-0.1-2.7h1.4l0.1,1.7h0.1c0.4-1.2,1.4-1.9,2.4-1.9c0.2,0,0.3,0,0.5,0.1v1.5
			c-0.2,0-0.3-0.1-0.5-0.1c-1.1,0-1.9,0.8-2.1,2c0,0.2-0.1,0.5-0.1,0.7V56h-1.6L319.1,50.1L319.1,50.1z"/>
		<path class="st1" d="M327.4,44.9v2.5h2.3v1.2h-2.3v4.7c0,1.1,0.3,1.7,1.2,1.7c0.4,0,0.7-0.1,0.9-0.1l0.1,1.2
			c-0.3,0.1-0.8,0.2-1.4,0.2c-0.7,0-1.3-0.2-1.7-0.7c-0.5-0.5-0.6-1.2-0.6-2.3v-4.8h-1.4v-1.2h1.4v-2.1L327.4,44.9z"/>
		<path class="st1" d="M331.2,54.5c0.5,0.3,1.3,0.6,2.1,0.6c1.2,0,1.7-0.6,1.7-1.3c0-0.8-0.5-1.2-1.6-1.6c-1.6-0.6-2.3-1.4-2.3-2.5
			c0-1.4,1.1-2.6,3-2.6c0.9,0,1.7,0.3,2.1,0.5l-0.4,1.2c-0.3-0.2-1-0.5-1.8-0.5c-0.9,0-1.5,0.5-1.5,1.2s0.5,1,1.7,1.5
			c1.5,0.6,2.3,1.3,2.3,2.6c0,1.5-1.2,2.6-3.3,2.6c-1,0-1.8-0.2-2.4-0.6L331.2,54.5z"/>
	</g>
	<g>
		<path class="st1" d="M75.1,137.4c0.8-0.1,1.7-0.2,3-0.2c1.5,0,2.7,0.4,3.4,1c0.7,0.6,1.1,1.5,1.1,2.5c0,1.1-0.3,2-0.9,2.6
			c-0.8,0.9-2.2,1.3-3.7,1.3c-0.5,0-0.9,0-1.3-0.1v4.9h-1.6V137.4z M76.7,143.3c0.3,0.1,0.8,0.1,1.3,0.1c1.9,0,3-0.9,3-2.6
			c0-1.6-1.1-2.4-2.9-2.4c-0.7,0-1.2,0.1-1.5,0.1L76.7,143.3L76.7,143.3z"/>
		<path class="st1" d="M84.4,143.4c0-1,0-1.9-0.1-2.7h1.4l0.1,1.7h0.1c0.4-1.2,1.3-1.9,2.4-1.9c0.2,0,0.3,0,0.5,0.1v1.5
			c-0.2,0-0.3-0.1-0.5-0.1c-1.1,0-1.9,0.8-2.1,2c0,0.2-0.1,0.5-0.1,0.7v4.6h-1.6v-5.9H84.4z"/>
		<path class="st1" d="M90.9,145.4c0,2.1,1.4,3,3,3c1.1,0,1.8-0.2,2.4-0.5l0.3,1.1c-0.6,0.3-1.5,0.5-2.9,0.5c-2.7,0-4.3-1.8-4.3-4.4
			s1.5-4.7,4.1-4.7c2.8,0,3.6,2.5,3.6,4.1c0,0.3,0,0.6-0.1,0.7h-6.1V145.4z M95.6,144.2c0-1-0.4-2.6-2.2-2.6c-1.6,0-2.3,1.5-2.4,2.6
			H95.6z"/>
		<path class="st1" d="M98.9,147.8c0.5,0.3,1.3,0.6,2.1,0.6c1.2,0,1.7-0.6,1.7-1.3c0-0.8-0.5-1.2-1.6-1.6c-1.6-0.6-2.3-1.4-2.3-2.5
			c0-1.4,1.1-2.6,3-2.6c0.9,0,1.7,0.3,2.1,0.5l-0.4,1.2c-0.3-0.2-1-0.5-1.8-0.5c-0.9,0-1.5,0.5-1.5,1.2s0.5,1,1.7,1.5
			c1.5,0.6,2.3,1.3,2.3,2.6c0,1.5-1.2,2.6-3.3,2.6c-1,0-1.8-0.2-2.4-0.6L98.9,147.8z"/>
		<path class="st1" d="M107.1,145.4c0,2.1,1.4,3,3,3c1.1,0,1.8-0.2,2.4-0.5l0.3,1.1c-0.6,0.3-1.5,0.5-2.9,0.5
			c-2.7,0-4.3-1.8-4.3-4.4s1.5-4.7,4.1-4.7c2.8,0,3.6,2.5,3.6,4.1c0,0.3,0,0.6-0.1,0.7h-6.1V145.4z M111.7,144.2
			c0-1-0.4-2.6-2.2-2.6c-1.6,0-2.3,1.5-2.4,2.6H111.7z"/>
		<path class="st1" d="M115.2,143.1c0-0.9,0-1.6-0.1-2.4h1.4l0.1,1.4l0,0c0.4-0.8,1.4-1.6,2.9-1.6c1.2,0,3.1,0.7,3.1,3.7v5.2H121v-5
			c0-1.4-0.5-2.6-2-2.6c-1,0-1.9,0.7-2.1,1.6c-0.1,0.2-0.1,0.5-0.1,0.7v5.2h-1.6C115.2,149.3,115.2,143.1,115.2,143.1z"/>
		<path class="st1" d="M127.1,138.2v2.5h2.3v1.2h-2.3v4.7c0,1.1,0.3,1.7,1.2,1.7c0.4,0,0.7-0.1,0.9-0.1l0.1,1.2
			c-0.3,0.1-0.8,0.2-1.4,0.2c-0.7,0-1.3-0.2-1.7-0.7c-0.5-0.5-0.6-1.2-0.6-2.3v-4.8h-1.4v-1.2h1.4v-2.1L127.1,138.2z"/>
		<path class="st1" d="M135.9,149.4l-0.1-1.1h-0.1c-0.5,0.7-1.4,1.3-2.7,1.3c-1.8,0-2.7-1.2-2.7-2.5c0-2.1,1.9-3.3,5.2-3.2v-0.2
			c0-0.7-0.2-2-2-2c-0.8,0-1.7,0.3-2.3,0.6l-0.4-1c0.7-0.5,1.8-0.8,2.9-0.8c2.7,0,3.3,1.8,3.3,3.6v3.3c0,0.8,0,1.5,0.1,2.1
			L135.9,149.4L135.9,149.4z M135.7,145c-1.7,0-3.7,0.3-3.7,2c0,1,0.7,1.5,1.5,1.5c1.1,0,1.9-0.7,2.1-1.5c0.1-0.2,0.1-0.3,0.1-0.5
			L135.7,145L135.7,145z"/>
		<path class="st1" d="M141.6,138.2v2.5h2.3v1.2h-2.3v4.7c0,1.1,0.3,1.7,1.2,1.7c0.4,0,0.7-0.1,0.9-0.1l0.1,1.2
			c-0.3,0.1-0.8,0.2-1.4,0.2c-0.7,0-1.3-0.2-1.7-0.7c-0.5-0.5-0.6-1.2-0.6-2.3v-4.8h-1.3v-1.2h1.3v-2.1L141.6,138.2z"/>
		<path class="st1" d="M147.4,138.3c0,0.5-0.4,1-1,1s-1-0.4-1-1s0.4-1,1-1S147.4,137.7,147.4,138.3z M145.7,149.4v-8.7h1.6v8.7
			H145.7z"/>
		<path class="st1" d="M157.8,145c0,3.2-2.2,4.6-4.3,4.6c-2.4,0-4.2-1.7-4.2-4.5c0-2.9,1.9-4.6,4.3-4.6
			C156.1,140.5,157.8,142.3,157.8,145z M150.8,145.1c0,1.9,1.1,3.3,2.6,3.3s2.6-1.4,2.6-3.4c0-1.5-0.7-3.3-2.6-3.3
			C151.7,141.7,150.8,143.4,150.8,145.1z"/>
		<path class="st1" d="M159.8,143.1c0-0.9,0-1.6-0.1-2.4h1.4l0.1,1.4l0,0c0.4-0.8,1.4-1.6,2.9-1.6c1.2,0,3.1,0.7,3.1,3.7v5.2h-1.6
			v-5c0-1.4-0.5-2.6-2-2.6c-1,0-1.9,0.7-2.1,1.6c-0.1,0.2-0.1,0.5-0.1,0.7v5.2h-1.6L159.8,143.1L159.8,143.1z"/>
		<path class="st1" d="M75.4,158.9H77v10.8h5.2v1.3h-6.8C75.4,171,75.4,158.9,75.4,158.9z"/>
		<path class="st1" d="M88.6,171l-0.1-1.1h-0.1c-0.5,0.7-1.4,1.3-2.7,1.3c-1.8,0-2.7-1.2-2.7-2.5c0-2.1,1.9-3.3,5.2-3.2v-0.2
			c0-0.7-0.2-2-2-2c-0.8,0-1.7,0.3-2.3,0.6l-0.4-1c0.7-0.5,1.8-0.8,2.9-0.8c2.7,0,3.3,1.8,3.3,3.6v3.3c0,0.8,0,1.5,0.1,2.1L88.6,171
			L88.6,171z M88.4,166.6c-1.7,0-3.7,0.3-3.7,2c0,1,0.7,1.5,1.5,1.5c1.1,0,1.9-0.7,2.1-1.5c0.1-0.2,0.1-0.3,0.1-0.5V166.6z"/>
		<path class="st1" d="M92.9,162.3l1.9,5.1c0.2,0.6,0.4,1.3,0.6,1.8l0,0c0.2-0.5,0.3-1.2,0.6-1.8l1.7-5.1h1.7l-2.4,6.2
			c-1.1,3-1.9,4.5-3,5.5c-0.8,0.7-1.5,1-1.9,1l-0.4-1.3c0.4-0.1,0.9-0.4,1.4-0.8c0.4-0.3,1-1,1.3-1.8c0.1-0.2,0.1-0.3,0.1-0.4
			s0-0.2-0.1-0.4l-3.2-8L92.9,162.3L92.9,162.3z"/>
		<path class="st1" d="M101.5,167c0,2.1,1.4,3,3,3c1.1,0,1.8-0.2,2.4-0.5l0.3,1.1c-0.6,0.3-1.5,0.5-2.9,0.5c-2.7,0-4.3-1.8-4.3-4.4
			s1.5-4.7,4.1-4.7c2.8,0,3.6,2.5,3.6,4.1c0,0.3,0,0.6-0.1,0.7h-6.1V167z M106.2,165.8c0-1-0.4-2.6-2.2-2.6c-1.6,0-2.3,1.5-2.4,2.6
			H106.2z"/>
		<path class="st1" d="M109.6,165c0-1,0-1.9-0.1-2.7h1.4l0.1,1.7h0.1c0.4-1.2,1.4-1.9,2.4-1.9c0.2,0,0.3,0,0.5,0.1v1.5
			c-0.2,0-0.3-0.1-0.5-0.1c-1.1,0-1.9,0.8-2.1,2c0,0.2-0.1,0.5-0.1,0.7v4.6h-1.6V165H109.6z"/>
		<path class="st1" d="M121.4,167.2l-1.3,3.8h-1.6l4.1-12.1h1.9l4.1,12.1H127l-1.3-3.8H121.4z M125.3,166l-1.2-3.5
			c-0.3-0.8-0.4-1.5-0.6-2.2l0,0c-0.2,0.7-0.4,1.5-0.6,2.2l-1.2,3.5H125.3z"/>
		<path class="st1" d="M137.7,158.3v10.5c0,0.8,0,1.7,0.1,2.3h-1.4l-0.1-1.5l0,0c-0.5,1-1.5,1.7-3,1.7c-2.1,0-3.7-1.8-3.7-4.4
			c0-2.9,1.8-4.7,3.9-4.7c1.3,0,2.2,0.6,2.6,1.3l0,0v-5.2L137.7,158.3L137.7,158.3z M136.1,165.9c0-0.2,0-0.5-0.1-0.7
			c-0.2-1-1.1-1.8-2.3-1.8c-1.6,0-2.6,1.4-2.6,3.4c0,1.8,0.9,3.2,2.6,3.2c1.1,0,2-0.7,2.3-1.9c0.1-0.2,0.1-0.4,0.1-0.7V165.9z"/>
		<path class="st1" d="M140.3,164.7c0-0.9,0-1.6-0.1-2.4h1.4l0.1,1.4h0.1c0.5-0.8,1.3-1.6,2.7-1.6c1.2,0,2.1,0.7,2.5,1.7l0,0
			c0.3-0.5,0.6-0.9,1-1.1c0.5-0.4,1.1-0.6,1.9-0.6c1.2,0,2.9,0.8,2.9,3.8v5.1h-1.5v-4.9c0-1.7-0.6-2.7-1.9-2.7
			c-0.9,0-1.6,0.7-1.9,1.4c-0.1,0.2-0.1,0.5-0.1,0.8v5.4h-1.5v-5.2c0-1.4-0.6-2.4-1.8-2.4c-1,0-1.7,0.8-2,1.6
			c-0.1,0.2-0.1,0.5-0.1,0.8v5.3h-1.5v-6.4H140.3z"/>
		<path class="st1" d="M157.1,159.9c0,0.5-0.4,1-1,1s-1-0.4-1-1s0.4-1,1-1C156.7,158.9,157.1,159.3,157.1,159.9z M155.3,171v-8.7
			h1.6v8.7H155.3z"/>
		<path class="st1" d="M159.5,164.7c0-0.9,0-1.6-0.1-2.4h1.4l0.1,1.4l0,0c0.4-0.8,1.4-1.6,2.9-1.6c1.2,0,3.1,0.7,3.1,3.7v5.2h-1.6
			v-5c0-1.4-0.5-2.6-2-2.6c-1,0-1.9,0.7-2.1,1.6c-0.1,0.2-0.1,0.5-0.1,0.7v5.2h-1.6L159.5,164.7L159.5,164.7z"/>
	</g>
	<g>
		<g>
			<g id="file_21_">
				<path class="st2" d="M347.4,92.6V131c0,0.6-0.5,1.2-1.2,1.2h-41.9c-0.6,0-1.2-0.5-1.2-1.2V77.5c0-0.6,0.5-1.2,1.2-1.2h26.8v15.1
					c0,0.6,0.5,1.2,1.2,1.2H347.4z M333.5,76.4v12.8c0,0.6,0.5,1.2,1.2,1.2h12.8L333.5,76.4z"/>
			</g>
			<g id="pie_x5F_chart_17_">
				<g>
					<path class="st3" d="M313.2,110.2c0-6.2,5-11.2,11.2-11.2c3.1,0,5.9,1.2,7.9,3.3l-7.9,7.9v11.2
						C318.3,121.3,313.2,116.3,313.2,110.2z"/>
				</g>
				<path class="st4" d="M326.3,110.2l7.9-7.9c4.4,4.4,4.4,11.4,0,15.8L326.3,110.2z"/>
				<path class="st5" d="M325.3,111.1v11.2c3,0,5.7-1.1,7.9-3.3L325.3,111.1z"/>
			</g>
		</g>
		<g>
			<g id="file_20_">
				<path class="st1" d="M325.3,105.9v38.4c0,0.6-0.5,1.2-1.2,1.2h-41.9c-0.6,0-1.2-0.5-1.2-1.2V90.8c0-0.6,0.5-1.2,1.2-1.2H309
					v15.1c0,0.6,0.5,1.2,1.2,1.2H325.3z M311.4,89.6v12.8c0,0.6,0.5,1.2,1.2,1.2h12.8L311.4,89.6z"/>
			</g>
			<g id="charts_20_">
				<path class="st3" d="M314,136.7v-14.6c0-0.3-0.2-0.5-0.5-0.5h-4c-0.3,0-0.5,0.2-0.5,0.5v14.6h-1V115c0-0.3-0.2-0.5-0.5-0.5h-4
					c-0.3,0-0.5,0.2-0.5,0.5v21.6h-1V126c0-0.3-0.2-0.5-0.5-0.5h-4c-0.3,0-0.5,0.2-0.5,0.5v10.6h-1v-4.5c0-0.3-0.2-0.5-0.5-0.5h-4
					c-0.3,0-0.5,0.2-0.5,0.5v0.5v4h-2v2h27v-1v-1h-2V136.7z"/>
			</g>
			<rect x="312.7" y="103.6" class="st1" width="12.7" height="2.3"/>
		</g>
	</g>
	<g id="old_x5F_man_7_">
		<path class="st1" d="M135.4,228.9c-1.4-0.8-10.8-6.3-15.6-8.3V215c1.4-1,2.2-2.6,2.2-4.9v-3.7c2.6-1,4.4-2.2,4.4-2.7
			c0-0.9-0.5-2-1.2-2h-2.5l-3.3-14.9c0.1-0.7-0.4-0.9-1-0.7l-5.3,1.7c-0.6,0.2-1.7,0.2-2.3,0l-5.3-1.5c-0.6-0.2-1.1,0-1,0.7
			l-3.2,14.6h-2.5c-0.7,0-1.2,1-1.2,2c0,0.5,1.8,1.6,4.4,2.7c0,0.9,0,2.1,0,3.7c0,2.4,0.8,4,2.2,5v5.5c-4.5,1.9-14.1,7.5-15.6,8.3
			c-1.8,1-2.2,2-2.2,4.3c0,1.4,0,5.3,0,5.3c0,0.6,0.5,1.1,1.1,1.1h48.9c0.6,0,1.1-0.5,1.1-1.1c0,0,0-3.9,0-5.3
			C137.6,230.8,137.2,229.9,135.4,228.9z"/>
	</g>
	<g id="group_5_">
		<path class="st1" d="M515.6,232.2c0,2.5,0,5.9,0,5.9c0,0.3-0.3,0.8-0.6,0.8h-53.1c-0.3,0-0.6-0.5-0.6-0.8c0,0,0-3.4,0-5.9
			s0.5-3.5,2.4-4.6c1.5-0.9,11.8-6.7,16.6-8.8v-8.9c-1.5-1.1-2.4-2.7-2.4-5.3c0-5.9,0-7.1,0-7.1c0-5.9,3.5-10.6,10.6-10.6
			s10.6,4.8,10.6,10.6v7.1c0,2.5-0.9,4.2-2.4,5.3v8.9c5.1,2.1,15,7.9,16.6,8.8C515.1,228.7,515.6,229.7,515.6,232.2z M461.8,224.5
			l0.3-0.2c5.4-3.1,9.7-5.4,12.9-7c-1.5-0.7-3-1.4-4.4-1.8v-6.2c2.4-0.7,2.4-1.9,2.4-3.7v-4.2c0-4.1-2.2-7.4-7.1-7.4
			s-7.1,3.3-7.1,7.4c0,0,0,0.1,0,4.2c0,1.8,0,2.9,2.4,3.7v6.2c-4.7,1.4-11,5.5-12,6.1c-1.3,0.7-2.2,1.5-2.2,3.2s0,4.1,0,4.1
			c0,0.2,0.2,0.6,0.4,0.6h10.5C458.3,227.5,459.4,225.9,461.8,224.5z M527.6,221.6c-1.1-0.6-7.3-4.7-12-6.1v-6.2
			c2.4-0.7,2.4-1.9,2.4-3.7v-4.2c0-4.1-2.2-7.4-7.1-7.4s-7.1,3.3-7.1,7.4c0,0,0,0.1,0,4.2c0,1.8,0,2.9,2.4,3.7v6.2
			c-1.4,0.4-2.9,1.1-4.3,1.8c4.5,2.3,9.9,5.4,12.3,6.8l0.8,0.5c2.4,1.4,3.5,3,3.9,5h10.5c0.2,0,0.4-0.3,0.4-0.6c0,0,0-2.4,0-4.1
			C529.8,223.1,528.9,222.3,527.6,221.6z"/>
	</g>
	<g>
		<path class="st1" d="M227.8,225.2c0.7,0.4,1.7,0.8,2.8,0.8c1.6,0,2.5-0.8,2.5-2.1c0-1.1-0.6-1.8-2.3-2.4c-2-0.7-3.2-1.7-3.2-3.4
			c0-1.9,1.6-3.3,3.9-3.3c1.2,0,2.1,0.3,2.7,0.6l-0.4,1.3c-0.4-0.2-1.2-0.6-2.3-0.6c-1.7,0-2.3,1-2.3,1.8c0,1.1,0.7,1.7,2.4,2.3
			c2.1,0.8,3.1,1.8,3.1,3.6c0,1.9-1.4,3.5-4.2,3.5c-1.2,0-2.4-0.3-3.1-0.8L227.8,225.2z"/>
		<path class="st1" d="M236.6,225.2c0.7,0.4,1.7,0.8,2.8,0.8c1.6,0,2.5-0.8,2.5-2.1c0-1.1-0.6-1.8-2.3-2.4c-2-0.7-3.2-1.7-3.2-3.4
			c0-1.9,1.6-3.3,3.9-3.3c1.2,0,2.1,0.3,2.7,0.6l-0.4,1.3c-0.4-0.2-1.2-0.6-2.3-0.6c-1.7,0-2.3,1-2.3,1.8c0,1.1,0.7,1.7,2.4,2.3
			c2.1,0.8,3.1,1.8,3.1,3.6c0,1.9-1.4,3.5-4.2,3.5c-1.2,0-2.4-0.3-3.1-0.8L236.6,225.2z"/>
		<path class="st1" d="M245.7,215.2c0.8-0.2,1.9-0.3,3-0.3c1.7,0,2.8,0.3,3.5,1c0.6,0.5,1,1.4,1,2.3c0,1.6-1,2.7-2.3,3.1v0.1
			c0.9,0.3,1.5,1.2,1.8,2.4c0.4,1.7,0.7,2.9,0.9,3.3H252c-0.2-0.3-0.5-1.4-0.8-2.9c-0.4-1.7-1-2.3-2.4-2.4h-1.5v5.3h-1.6V215.2z
			 M247.3,220.7h1.6c1.7,0,2.7-0.9,2.7-2.3c0-1.6-1.1-2.3-2.8-2.3c-0.8,0-1.3,0.1-1.5,0.1V220.7z"/>
		<path class="st1" d="M255.2,225.2c0.7,0.4,1.7,0.8,2.8,0.8c1.6,0,2.5-0.8,2.5-2.1c0-1.1-0.6-1.8-2.3-2.4c-2-0.7-3.2-1.7-3.2-3.4
			c0-1.9,1.6-3.3,3.9-3.3c1.2,0,2.1,0.3,2.7,0.6l-0.4,1.3c-0.4-0.2-1.2-0.6-2.3-0.6c-1.7,0-2.3,1-2.3,1.8c0,1.1,0.7,1.7,2.4,2.3
			c2.1,0.8,3.1,1.8,3.1,3.6c0,1.9-1.4,3.5-4.2,3.5c-1.2,0-2.4-0.3-3.1-0.8L255.2,225.2z"/>
		<path class="st1" d="M268.1,215.2c0.8-0.2,1.9-0.3,3-0.3c1.7,0,2.8,0.3,3.5,1c0.6,0.5,1,1.4,1,2.3c0,1.6-1,2.7-2.3,3.1v0.1
			c0.9,0.3,1.5,1.2,1.8,2.4c0.4,1.7,0.7,2.9,0.9,3.3h-1.6c-0.2-0.3-0.5-1.4-0.8-2.9c-0.4-1.7-1-2.3-2.4-2.4h-1.5v5.3h-1.6V215.2z
			 M269.7,220.7h1.6c1.7,0,2.7-0.9,2.7-2.3c0-1.6-1.1-2.3-2.8-2.3c-0.8,0-1.3,0.1-1.5,0.1L269.7,220.7L269.7,220.7z"/>
		<path class="st1" d="M278.7,223.1c0,2.1,1.4,3,3,3c1.1,0,1.8-0.2,2.4-0.5l0.3,1.1c-0.6,0.3-1.5,0.5-2.9,0.5
			c-2.7,0-4.3-1.8-4.3-4.4s1.5-4.7,4.1-4.7c2.8,0,3.6,2.5,3.6,4.1c0,0.3,0,0.6-0.1,0.7h-6.1V223.1z M283.3,221.9
			c0-1-0.4-2.6-2.2-2.6c-1.6,0-2.3,1.5-2.4,2.6H283.3z"/>
		<path class="st1" d="M286.8,221.3c0-1.1,0-2-0.1-2.8h1.4l0.1,1.5l0,0c0.6-1.1,1.7-1.7,3.1-1.7c2.1,0,3.7,1.8,3.7,4.4
			c0,3.1-1.9,4.7-4,4.7c-1.2,0-2.2-0.5-2.7-1.4l0,0v4.7h-1.6v-9.4H286.8z M288.4,223.6c0,0.2,0,0.5,0.1,0.6c0.3,1.1,1.2,1.9,2.4,1.9
			c1.7,0,2.6-1.4,2.6-3.4c0-1.7-0.9-3.2-2.6-3.2c-1.1,0-2.1,0.8-2.4,2c-0.1,0.2-0.1,0.4-0.1,0.6V223.6z"/>
		<path class="st1" d="M304.9,222.7c0,3.2-2.2,4.6-4.3,4.6c-2.4,0-4.2-1.7-4.2-4.5c0-2.9,1.9-4.6,4.3-4.6
			C303.3,218.2,304.9,220,304.9,222.7z M298,222.8c0,1.9,1.1,3.3,2.6,3.3s2.6-1.4,2.6-3.4c0-1.5-0.7-3.3-2.6-3.3
			C298.8,219.4,298,221.1,298,222.8z"/>
		<path class="st1" d="M306.9,221.1c0-1,0-1.9-0.1-2.7h1.4l0.1,1.7h0.1c0.4-1.2,1.3-1.9,2.4-1.9c0.2,0,0.3,0,0.5,0.1v1.5
			c-0.2,0-0.3-0.1-0.5-0.1c-1.1,0-1.9,0.8-2.1,2c0,0.2-0.1,0.5-0.1,0.7v4.6H307L306.9,221.1L306.9,221.1z"/>
		<path class="st1" d="M315.2,215.9v2.5h2.3v1.2h-2.3v4.7c0,1.1,0.3,1.7,1.2,1.7c0.4,0,0.7-0.1,0.9-0.1l0.1,1.2
			c-0.3,0.1-0.8,0.2-1.4,0.2c-0.7,0-1.3-0.2-1.7-0.7c-0.5-0.5-0.6-1.2-0.6-2.3v-4.8h-1.3v-1.2h1.3v-2.1L315.2,215.9z"/>
		<path class="st1" d="M321,216c0,0.5-0.4,1-1,1s-1-0.4-1-1s0.4-1,1-1S321,215.4,321,216z M319.2,227.1v-8.7h1.6v8.7H319.2z"/>
		<path class="st1" d="M323.4,220.8c0-0.9,0-1.6-0.1-2.4h1.4l0.1,1.4l0,0c0.4-0.8,1.4-1.6,2.9-1.6c1.2,0,3.1,0.7,3.1,3.7v5.2h-1.6
			v-5c0-1.4-0.5-2.6-2-2.6c-1,0-1.9,0.7-2.1,1.6c-0.1,0.2-0.1,0.5-0.1,0.7v5.2h-1.6L323.4,220.8L323.4,220.8z"/>
		<path class="st1" d="M340.9,218.4c0,0.6-0.1,1.3-0.1,2.4v5.1c0,2-0.4,3.2-1.2,4c-0.8,0.8-2.1,1-3.2,1c-1,0-2.2-0.3-2.9-0.7
			l0.4-1.2c0.6,0.4,1.5,0.7,2.6,0.7c1.6,0,2.8-0.8,2.8-3v-1l0,0c-0.5,0.8-1.4,1.5-2.8,1.5c-2.2,0-3.7-1.8-3.7-4.2
			c0-3,1.9-4.6,3.9-4.6c1.5,0,2.3,0.8,2.7,1.5l0,0l0.1-1.3h1.4V218.4z M339.3,221.9c0-0.3,0-0.5-0.1-0.7c-0.3-0.9-1.1-1.7-2.2-1.7
			c-1.5,0-2.6,1.3-2.6,3.3c0,1.7,0.9,3.1,2.6,3.1c1,0,1.9-0.6,2.2-1.6c0.1-0.3,0.1-0.6,0.1-0.8V221.9z"/>
		<path class="st1" d="M353.6,221.4h-4.7v4.4h5.3v1.3h-6.8V215h6.6v1.3h-5v3.8h4.7v1.3H353.6z"/>
		<path class="st1" d="M356.2,220.8c0-0.9,0-1.6-0.1-2.4h1.4l0.1,1.4l0,0c0.4-0.8,1.4-1.6,2.9-1.6c1.2,0,3.1,0.7,3.1,3.7v5.2H362v-5
			c0-1.4-0.5-2.6-2-2.6c-1,0-1.9,0.7-2.1,1.6c-0.1,0.2-0.1,0.5-0.1,0.7v5.2h-1.6L356.2,220.8L356.2,220.8z"/>
		<path class="st1" d="M373.7,218.4c0,0.6-0.1,1.3-0.1,2.4v5.1c0,2-0.4,3.2-1.2,4c-0.8,0.8-2.1,1-3.2,1c-1,0-2.2-0.3-2.9-0.7
			l0.4-1.2c0.6,0.4,1.5,0.7,2.6,0.7c1.6,0,2.8-0.8,2.8-3v-1l0,0c-0.5,0.8-1.4,1.5-2.8,1.5c-2.2,0-3.7-1.8-3.7-4.2
			c0-3,1.9-4.6,3.9-4.6c1.5,0,2.3,0.8,2.7,1.5l0,0l0.1-1.3h1.4V218.4z M372,221.9c0-0.3,0-0.5-0.1-0.7c-0.3-0.9-1.1-1.7-2.2-1.7
			c-1.5,0-2.6,1.3-2.6,3.3c0,1.7,0.9,3.1,2.6,3.1c1,0,1.9-0.6,2.2-1.6c0.1-0.3,0.1-0.6,0.1-0.8V221.9z"/>
		<path class="st1" d="M377.9,216c0,0.5-0.4,1-1,1s-1-0.4-1-1s0.4-1,1-1S377.9,215.4,377.9,216z M376.1,227.1v-8.7h1.6v8.7H376.1z"
			/>
		<path class="st1" d="M380.3,220.8c0-0.9,0-1.6-0.1-2.4h1.4l0.1,1.4l0,0c0.4-0.8,1.4-1.6,2.9-1.6c1.2,0,3.1,0.7,3.1,3.7v5.2h-1.6
			v-5c0-1.4-0.5-2.6-2-2.6c-1,0-1.9,0.7-2.1,1.6c-0.1,0.2-0.1,0.5-0.1,0.7v5.2h-1.6L380.3,220.8L380.3,220.8z"/>
		<path class="st1" d="M391.2,223.1c0,2.1,1.4,3,3,3c1.1,0,1.8-0.2,2.4-0.5l0.3,1.1c-0.6,0.3-1.5,0.5-2.9,0.5
			c-2.7,0-4.3-1.8-4.3-4.4s1.5-4.7,4.1-4.7c2.8,0,3.6,2.5,3.6,4.1c0,0.3,0,0.6-0.1,0.7h-6.1V223.1z M395.8,221.9
			c0-1-0.4-2.6-2.2-2.6c-1.6,0-2.3,1.5-2.4,2.6H395.8z"/>
	</g>
	<g>
		<circle class="st6" cx="309.9" cy="300" r="57.9"/>
		<circle class="st7" cx="309.9" cy="300" r="57.9"/>
	</g>
	<g>
		<g>
			<defs>
				<ellipse id="SVGID_1_" cx="306" cy="306" rx="306" ry="304.7"/>
			</defs>
			<clipPath id="SVGID_2_">
				<use xlink:href="#SVGID_1_"  style="overflow:visible;"/>
			</clipPath>
			<circle class="st8" cx="315.1" cy="610.7" r="159"/>
		</g>
		<g>
			<defs>
				<ellipse id="SVGID_3_" cx="306" cy="306" rx="306" ry="304.7"/>
			</defs>
			<clipPath id="SVGID_4_">
				<use xlink:href="#SVGID_3_"  style="overflow:visible;"/>
			</clipPath>
			<circle class="st9" cx="315.1" cy="610.7" r="159"/>
		</g>
		<g>
			<defs>
				<ellipse id="SVGID_5_" cx="306" cy="306" rx="306" ry="304.7"/>
			</defs>
			<clipPath id="SVGID_6_">
				<use xlink:href="#SVGID_5_"  style="overflow:visible;"/>
			</clipPath>
			<g class="st10">
				<path class="st1" d="M248.6,571.6c1-0.1,2.1-0.3,3.3-0.3c2.3,0,3.9,0.5,4.9,1.5c1.1,1,1.7,2.4,1.7,4.4s-0.6,3.6-1.7,4.7
					c-1.1,1.1-3,1.7-5.4,1.7c-1.1,0-2.1-0.1-2.8-0.1L248.6,571.6L248.6,571.6z M250.1,582.3c0.4,0.1,1,0.1,1.6,0.1
					c3.3,0,5.2-1.9,5.2-5.1c0-2.9-1.6-4.7-4.9-4.7c-0.8,0-1.4,0.1-1.8,0.2v9.5H250.1z"/>
				<path class="st1" d="M265.3,583.6l-0.1-1.1h-0.1c-0.5,0.7-1.4,1.3-2.7,1.3c-1.8,0-2.7-1.2-2.7-2.5c0-2.1,1.9-3.3,5.2-3.2v-0.2
					c0-0.7-0.2-2-2-2c-0.8,0-1.7,0.3-2.3,0.6l-0.4-1c0.7-0.5,1.8-0.8,2.9-0.8c2.7,0,3.3,1.8,3.3,3.6v3.3c0,0.8,0,1.5,0.1,2.1
					L265.3,583.6L265.3,583.6z M265.1,579.1c-1.7,0-3.7,0.3-3.7,2c0,1,0.7,1.5,1.5,1.5c1.1,0,1.9-0.7,2.1-1.5
					c0.1-0.2,0.1-0.3,0.1-0.5V579.1z"/>
				<path class="st1" d="M271,572.4v2.5h2.3v1.2H271v4.7c0,1.1,0.3,1.7,1.2,1.7c0.4,0,0.7-0.1,0.9-0.1l0.1,1.2
					c-0.3,0.1-0.8,0.2-1.4,0.2c-0.7,0-1.3-0.2-1.7-0.7c-0.5-0.5-0.6-1.2-0.6-2.3V576h-1.4v-1.2h1.4v-2.1L271,572.4z"/>
				<path class="st1" d="M279.9,583.6l-0.1-1.1h-0.1c-0.5,0.7-1.4,1.3-2.7,1.3c-1.8,0-2.7-1.2-2.7-2.5c0-2.1,1.9-3.3,5.2-3.2v-0.2
					c0-0.7-0.2-2-2-2c-0.8,0-1.7,0.3-2.3,0.6l-0.4-1c0.7-0.5,1.8-0.8,2.9-0.8c2.7,0,3.3,1.8,3.3,3.6v3.3c0,0.8,0,1.5,0.1,2.1
					L279.9,583.6L279.9,583.6z M279.6,579.1c-1.7,0-3.7,0.3-3.7,2c0,1,0.7,1.5,1.5,1.5c1.1,0,1.9-0.7,2.1-1.5
					c0.1-0.2,0.1-0.3,0.1-0.5V579.1z"/>
				<path class="st1" d="M289.6,579.8l-1.3,3.8h-1.6l4.1-12.1h1.9l4.1,12.1h-1.7l-1.3-3.8H289.6z M293.5,578.5l-1.2-3.5
					c-0.3-0.8-0.4-1.5-0.6-2.2l0,0c-0.2,0.7-0.4,1.5-0.6,2.2l-1.2,3.5H293.5z"/>
				<path class="st1" d="M304.6,583.3c-0.4,0.2-1.3,0.5-2.5,0.5c-2.6,0-4.3-1.8-4.3-4.4c0-2.7,1.8-4.6,4.7-4.6
					c0.9,0,1.8,0.2,2.2,0.5l-0.4,1.2c-0.4-0.2-1-0.4-1.8-0.4c-2,0-3.1,1.5-3.1,3.3c0,2,1.3,3.3,3,3.3c0.9,0,1.5-0.2,1.9-0.4
					L304.6,583.3z"/>
				<path class="st1" d="M312.5,583.3c-0.4,0.2-1.3,0.5-2.5,0.5c-2.6,0-4.3-1.8-4.3-4.4c0-2.7,1.8-4.6,4.7-4.6
					c0.9,0,1.8,0.2,2.2,0.5l-0.4,1.2c-0.4-0.2-1-0.4-1.8-0.4c-2,0-3.1,1.5-3.1,3.3c0,2,1.3,3.3,3,3.3c0.9,0,1.5-0.2,1.9-0.4
					L312.5,583.3z"/>
				<path class="st1" d="M315.1,579.5c0,2.1,1.4,3,3,3c1.1,0,1.8-0.2,2.4-0.5l0.3,1.1c-0.6,0.3-1.5,0.5-2.9,0.5
					c-2.7,0-4.3-1.8-4.3-4.4s1.5-4.7,4.1-4.7c2.8,0,3.6,2.5,3.6,4.1c0,0.3,0,0.6-0.1,0.7h-6.1V579.5z M319.8,578.4
					c0-1-0.4-2.6-2.2-2.6c-1.6,0-2.3,1.5-2.4,2.6H319.8z"/>
				<path class="st1" d="M323.1,582c0.5,0.3,1.3,0.6,2.1,0.6c1.2,0,1.7-0.6,1.7-1.3c0-0.8-0.5-1.2-1.6-1.6c-1.6-0.6-2.3-1.4-2.3-2.5
					c0-1.4,1.1-2.6,3-2.6c0.9,0,1.7,0.3,2.1,0.5l-0.4,1.2c-0.3-0.2-1-0.5-1.8-0.5c-0.9,0-1.5,0.5-1.5,1.2s0.5,1,1.7,1.5
					c1.5,0.6,2.3,1.3,2.3,2.6c0,1.5-1.2,2.6-3.3,2.6c-1,0-1.8-0.2-2.4-0.6L323.1,582z"/>
				<path class="st1" d="M330.2,582c0.5,0.3,1.3,0.6,2.1,0.6c1.2,0,1.7-0.6,1.7-1.3c0-0.8-0.5-1.2-1.6-1.6c-1.6-0.6-2.3-1.4-2.3-2.5
					c0-1.4,1.1-2.6,3-2.6c0.9,0,1.7,0.3,2.1,0.5l-0.4,1.2c-0.3-0.2-1-0.5-1.8-0.5c-0.9,0-1.5,0.5-1.5,1.2s0.5,1,1.7,1.5
					c1.5,0.6,2.3,1.3,2.3,2.6c0,1.5-1.2,2.6-3.3,2.6c-1,0-1.8-0.2-2.4-0.6L330.2,582z"/>
				<path class="st1" d="M341.4,571.4h1.6v10.8h5.2v1.3h-6.8L341.4,571.4L341.4,571.4z"/>
				<path class="st1" d="M354.7,583.6l-0.1-1.1h-0.1c-0.5,0.7-1.4,1.3-2.7,1.3c-1.8,0-2.7-1.2-2.7-2.5c0-2.1,1.9-3.3,5.2-3.2v-0.2
					c0-0.7-0.2-2-2-2c-0.8,0-1.7,0.3-2.3,0.6l-0.4-1c0.7-0.5,1.8-0.8,2.9-0.8c2.7,0,3.3,1.8,3.3,3.6v3.3c0,0.8,0,1.5,0.1,2.1
					L354.7,583.6L354.7,583.6z M354.4,579.1c-1.7,0-3.7,0.3-3.7,2c0,1,0.7,1.5,1.5,1.5c1.1,0,1.9-0.7,2.1-1.5
					c0.1-0.2,0.1-0.3,0.1-0.5V579.1z"/>
				<path class="st1" d="M359,574.9l1.9,5.2c0.2,0.6,0.4,1.3,0.6,1.8l0,0c0.2-0.5,0.3-1.2,0.6-1.8l1.7-5.1h1.7l-2.4,6.2
					c-1.1,3-1.9,4.5-3,5.5c-0.8,0.7-1.5,1-1.9,1l-0.4-1.3c0.4-0.1,0.9-0.4,1.4-0.8c0.4-0.3,1-1,1.3-1.8c0.1-0.2,0.1-0.3,0.1-0.4
					s0-0.2-0.1-0.4l-3.2-8h1.7V574.9z"/>
				<path class="st1" d="M367.6,579.5c0,2.1,1.4,3,3,3c1.1,0,1.8-0.2,2.4-0.5l0.3,1.1c-0.6,0.3-1.5,0.5-2.9,0.5
					c-2.7,0-4.3-1.8-4.3-4.4s1.5-4.7,4.1-4.7c2.8,0,3.6,2.5,3.6,4.1c0,0.3,0,0.6-0.1,0.7h-6.1V579.5z M372.2,578.4
					c0-1-0.4-2.6-2.2-2.6c-1.6,0-2.3,1.5-2.4,2.6H372.2z"/>
				<path class="st1" d="M375.7,577.6c0-1,0-1.9-0.1-2.7h1.4l0.1,1.7h0.1c0.4-1.2,1.4-1.9,2.4-1.9c0.2,0,0.3,0,0.5,0.1v1.5
					c-0.2,0-0.3-0.1-0.5-0.1c-1.1,0-1.9,0.8-2.1,2c0,0.2-0.1,0.5-0.1,0.7v4.6h-1.6L375.7,577.6L375.7,577.6z"/>
			</g>
		</g>
		<g>
			<defs>
				<ellipse id="SVGID_7_" cx="306" cy="306" rx="306" ry="304.7"/>
			</defs>
			<clipPath id="SVGID_8_">
				<use xlink:href="#SVGID_7_"  style="overflow:visible;"/>
			</clipPath>
			<g id="database_x5F_lock_24_" class="st11">
				<path class="st1" d="M338.7,537.2c0.2,0.4,0.4,0.8,0.4,1.2v10.5c0,3.9-11.8,7-26.3,7s-26.3-3.1-26.3-7v-10.5
					c0-0.4,0.2-0.8,0.4-1.2c7.2,4.4,22.1,4.7,25.9,4.7S331.5,541.6,338.7,537.2z M312.8,524.4c-3.7,0-18.7-0.3-25.9-4.7
					c-0.2,0.4-0.4,0.8-0.4,1.2v10.5c0,3.9,11.8,7,26.3,7s26.3-3.1,26.3-7v-10.5c0-0.4-0.2-0.8-0.4-1.2
					C331.5,524.1,316.5,524.4,312.8,524.4z M312.8,506.9c-3.7,0-18.7-0.3-25.9-4.7c-0.2,0.4-0.4,0.8-0.4,1.2v10.5
					c0,3.9,11.8,7,26.3,7s26.3-3.1,26.3-7v-10.5c0-0.4-0.2-0.8-0.4-1.2C331.5,506.6,316.5,506.9,312.8,506.9z M339.1,485.8v10.5
					c0,3.9-11.8,7-26.3,7s-26.3-3.1-26.3-7v-10.5c0-3.9,11.8-7,26.3-7S339.1,481.9,339.1,485.8z M324.1,484.1
					c0-1.2-5.1-2.3-11.3-2.3s-11.3,1-11.3,2.3s5.1,2.3,11.3,2.3S324.1,485.3,324.1,484.1z"/>
			</g>
		</g>
	</g>
	<line class="st12" x1="309.9" y1="368.1" x2="309.9" y2="443.7"/>
	<line class="st12" x1="309.9" y1="157.4" x2="309.9" y2="196.6"/>
	<line class="st12" x1="114.2" y1="252.5" x2="114.2" y2="281.9"/>
	<line class="st12" x1="492.4" y1="252.5" x2="492.4" y2="281.9"/>
	<line class="st12" x1="157.1" y1="426.6" x2="208.9" y2="481.7"/>
	<g>
		<circle class="st6" cx="121.1" cy="378.9" r="57.9"/>
		<circle class="st7" cx="121.1" cy="378.9" r="57.9"/>
	</g>
	<line class="st12" x1="467.9" y1="426.6" x2="416.1" y2="481.7"/>
	<g>
		<circle class="st6" cx="503.9" cy="378.9" r="57.9"/>
		<circle class="st7" cx="503.9" cy="378.9" r="57.9"/>
	</g>
	<g>
		<g id="briefcase">
			<g>
				<path class="st1" d="M142.5,363.6h-7v-2.3h-4.7c0-3.9-3.2-7-7-7h-9.4c-3.9,0-7,3.2-7,7h-4.7v2.3h-7c-2.6,0-4.7,2.1-4.7,4.7v14.5
					h56.2v-14.5C147.2,365.7,145.1,363.6,142.5,363.6z M114.4,359h9.4c1.3,0,2.3,1.1,2.3,2.3v2.3H112v-2.3
					C112.1,360,113.1,359,114.4,359z"/>
				<path class="st1" d="M91,382.4v16.4c0,2.6,2.1,4.7,4.7,4.7h46.9c2.6,0,4.7-2.1,4.7-4.7v-16.4H91z"/>
			</g>
		</g>
		<g id="cogwheels_11_">
			<g id="cogwheel_29_">
				<path class="st3" d="M126,384c0.1-0.5,0.1-1,0.1-1.5s0-1-0.1-1.5l-3.2-0.8c-0.2-0.8-0.5-1.5-0.9-2.2l1.7-2.8
					c-0.6-0.8-1.4-1.5-2.2-2.2l-2.8,1.7c-0.7-0.4-1.4-0.7-2.2-0.9l-0.8-3.2c-0.5-0.1-1-0.1-1.5-0.1s-1,0-1.5,0.1l-0.8,3.2
					c-0.8,0.2-1.5,0.5-2.2,0.9l-2.8-1.7c-0.8,0.6-1.5,1.4-2.2,2.2l1.7,2.8c-0.4,0.7-0.7,1.4-0.9,2.2l-3.2,0.8
					c-0.1,0.5-0.1,1-0.1,1.5s0,1,0.1,1.5l3.2,0.8c0.2,0.8,0.5,1.5,0.9,2.2l-1.7,2.8c0.6,0.8,1.4,1.5,2.2,2.2l2.8-1.7
					c0.7,0.4,1.4,0.7,2.2,0.9l0.8,3.2c0.5,0.1,1,0.1,1.5,0.1s1,0,1.5-0.1l0.8-3.2c0.8-0.2,1.5-0.5,2.2-0.9l2.8,1.7
					c0.8-0.6,1.5-1.4,2.2-2.2L122,387c0.4-0.7,0.7-1.4,0.9-2.2L126,384z M114.2,386.7c-2.3,0-4.2-1.9-4.2-4.2s1.9-4.2,4.2-4.2
					c2.3,0,4.2,1.9,4.2,4.2S116.5,386.7,114.2,386.7z"/>
			</g>
			<path class="st3" d="M130.2,397.2c-0.3,0-0.5,0-0.7-0.1l-0.4-1.5H129c-0.3-0.1-0.6-0.2-0.9-0.4H128l-1.3,0.8
				c-0.4-0.3-0.8-0.7-1-1l0.8-1.3v-0.1c-0.2-0.3-0.3-0.6-0.4-0.9v-0.1l-1.5-0.4c0-0.3-0.1-0.5-0.1-0.7c0-0.3,0-0.5,0.1-0.7l1.5-0.4
				v-0.1c0.1-0.3,0.2-0.6,0.4-0.9v-0.1l-0.8-1.3c0.3-0.4,0.7-0.8,1-1l1.3,0.8h0.1c0.3-0.2,0.6-0.3,0.9-0.4h0.1l0.4-1.5
				c0.3,0,0.5-0.1,0.7-0.1c0.3,0,0.5,0,0.7,0.1l0.4,1.5h0.1c0.3,0.1,0.6,0.2,0.9,0.4h0.1l1.3-0.8c0.4,0.3,0.8,0.7,1,1l-0.8,1.3v0.1
				c0.2,0.3,0.3,0.6,0.4,0.9v0.1l1.5,0.4c0,0.3,0.1,0.5,0.1,0.7c0,0.3,0,0.5-0.1,0.7l-1.5,0.4v0.1c-0.1,0.3-0.2,0.6-0.4,0.9v0.1
				l0.8,1.3c-0.3,0.4-0.7,0.8-1,1l-1.3-0.8h-0.1c-0.3,0.2-0.6,0.3-0.9,0.4h-0.1l-0.4,1.5C130.7,397.2,130.4,397.2,130.2,397.2z
				 M130.2,389.3c-1.2,0-2.1,1-2.1,2.1c0,1.2,1,2.1,2.1,2.1c1.2,0,2.1-1,2.1-2.1C132.4,390.3,131.4,389.3,130.2,389.3z"/>
		</g>
	</g>
	<g>
		<path class="st1" d="M499.8,380.1c9.6,0.1,19.2,0.2,28.8,0.3c0,8.5,0,17,0,25.5c-0.4-0.1-0.8-0.2-1.2-0.2c-2.6-0.5-5.1-1-7.7-1.5
			c-2.5-0.5-5-1-7.4-1.5c-2.2-0.4-4.4-0.9-6.6-1.3c-1.6-0.3-3.2-0.6-4.8-0.9c-0.3-0.1-0.6-0.1-0.9-0.2c-0.1,0-0.2-0.1-0.2-0.2
			c0-0.1,0-0.1,0-0.2c0-6.5,0-13,0-19.5C499.8,380.3,499.8,380.2,499.8,380.1z"/>
		<path class="st1" d="M528.5,351.9c0,8.5,0,17,0,25.5c-9.6,0.1-19.2,0.2-28.8,0.3c0-0.1,0-0.2,0-0.3c0-6.5,0-13.1,0-19.6
			c0-0.2,0.1-0.3,0.2-0.3c2.4-0.5,4.8-0.9,7.2-1.4c2.8-0.6,5.7-1.1,8.5-1.7c2.9-0.6,5.7-1.1,8.6-1.7
			C525.7,352.5,527.1,352.2,528.5,351.9L528.5,351.9z"/>
		<path class="st1" d="M497.3,380.1c0,6.6,0,13.1,0,19.6c-6-1.2-12-2.4-18-3.6c0-5.4,0-10.8,0-16.3
			C485.4,379.9,491.3,380,497.3,380.1z"/>
		<path class="st1" d="M497.3,377.8c-6,0.1-12,0.1-18,0.2c0-5.4,0-10.8,0-16.3c6-1.2,12-2.4,18-3.6
			C497.3,364.7,497.3,371.2,497.3,377.8z"/>
	</g>
	<g id="adjust_x5F_alt_1_">
		<path class="st1" d="M297.6,306.4h-2.2v-31.1h-6.7v31.1h-2.2c-1.2,0-2.2,1-2.2,2.2v6.7c0,1.2,1,2.2,2.2,2.2h2.2h6.7h2.2
			c1.2,0,2.2-1,2.2-2.2v-6.7C299.9,307.4,298.9,306.4,297.6,306.4z M297.6,313.1h-11.1V312h11.1V313.1z"/>
		<path class="st1" d="M315.4,295.3h-2.2v-20h-6.7v20h-2.2c-1.2,0-2.2,1-2.2,2.2v6.7c0,1.2,1,2.2,2.2,2.2h2.2h6.7h2.2
			c1.2,0,2.2-1,2.2-2.2v-6.7C317.6,296.3,316.6,295.3,315.4,295.3z M315.4,302h-11.1v-1.1h11.1V302z"/>
		<path class="st1" d="M333.2,284.2H331v-8.9h-6.7v8.9h-2.2c-1.2,0-2.2,1-2.2,2.2v6.7c0,1.2,1,2.2,2.2,2.2h2.2h6.7h2.2
			c1.2,0,2.2-1,2.2-2.2v-6.7C335.4,285.2,334.4,284.2,333.2,284.2z M333.2,290.9h-11.1v-1.1h11.1V290.9z"/>
		<rect x="306.5" y="308.6" class="st1" width="6.7" height="20"/>
		<rect x="324.3" y="297.5" class="st1" width="6.7" height="31.1"/>
		<rect x="288.8" y="319.7" class="st1" width="6.7" height="8.9"/>
		<line class="st13" x1="304.3" y1="301.9" x2="315.4" y2="301.9"/>
		<line class="st13" x1="286.5" y1="312.5" x2="297.6" y2="312.5"/>
		<line class="st13" x1="321.6" y1="290.3" x2="333.7" y2="290.3"/>
	</g>
</g>
</svg>
