<?xml version="1.0" encoding="utf-8"?>
<!-- Generator: Adobe Illustrator 20.0.0, SVG Export Plug-In . SVG Version: 6.00 Build 0)  -->
<svg version="1.1" id="Layer_1" xmlns="http://www.w3.org/2000/svg" xmlns:xlink="http://www.w3.org/1999/xlink" x="0px" y="0px"
	 viewBox="0 0 612 612" style="enable-background:new 0 0 612 612;" xml:space="preserve">
<style type="text/css">
	.st0{fill:url(#SVGID_1_);}
	.st1{fill:none;stroke:#78909C;stroke-width:2;stroke-linecap:round;stroke-linejoin:round;stroke-miterlimit:10;}
	.st2{fill:#00A89C;}
	.st3{fill:#A7DDEA;}
	.st4{fill:#FFFFFF;}
	.st5{fill:none;stroke:#4A5153;stroke-width:13;stroke-miterlimit:10;}
	.st6{fill:#4A5153;}
	.st7{fill:#989898;}
	.st8{fill:url(#SVGID_2_);}
	.st9{fill:#F1C8A4;}
	.st10{fill:#E3B590;}
	.st11{fill:#FDDAB6;}
	.st12{opacity:0.1;}
	.st13{clip-path:url(#SVGID_6_);fill:#DCAB8B;}
	.st14{fill:#F7E3CB;}
	.st15{fill:#06253F;}
	.st16{fill:#F1F1F1;}
	.st17{fill:#A86B29;}
	.st18{fill:#BF2F2D;}
	.st19{fill:#AD2D2A;}
	.st20{fill:#03455C;}
	.st21{fill:#955A24;}
	.st22{fill:url(#SVGID_7_);}
	.st23{fill-rule:evenodd;clip-rule:evenodd;fill:#1A1A1A;}
	.st24{fill-rule:evenodd;clip-rule:evenodd;fill:#28557D;}
	.st25{fill-rule:evenodd;clip-rule:evenodd;fill:#333333;}
	.st26{fill-rule:evenodd;clip-rule:evenodd;fill:#FFFFFF;}
	.st27{fill-rule:evenodd;clip-rule:evenodd;fill:#D1A886;}
	.st28{fill-rule:evenodd;clip-rule:evenodd;fill:#FBAF22;}
	.st29{fill-rule:evenodd;clip-rule:evenodd;fill:#CCCBCB;}
	.st30{fill-rule:evenodd;clip-rule:evenodd;fill:#4073A0;}
	.st31{fill-rule:evenodd;clip-rule:evenodd;fill:#F1CAA8;}
	.st32{fill-rule:evenodd;clip-rule:evenodd;fill:#DE9226;}
	.st33{fill-rule:evenodd;clip-rule:evenodd;fill:#E5E5E4;}
	.st34{fill-rule:evenodd;clip-rule:evenodd;fill:#4D4E4E;}
	.st35{fill:url(#SVGID_10_);}
	.st36{fill:#3C3C3B;}
	.st37{fill:#C6C5C4;}
	.st38{fill:#DAD9D8;}
	.st39{fill:#BC2126;}
	.st40{fill:none;stroke:#716F6F;stroke-width:1.35;stroke-linecap:round;stroke-linejoin:round;stroke-miterlimit:10;}
	.st41{fill:#059748;}
</style>
<g>
	<radialGradient id="SVGID_1_" cx="306" cy="306" r="306" gradientUnits="userSpaceOnUse">
		<stop  offset="0" style="stop-color:#FFFFFF"/>
		<stop  offset="1" style="stop-color:#7AC8A5"/>
	</radialGradient>
	<circle class="st0" cx="306" cy="306" r="306"/>
	<g>
		<g>
			<line class="st1" x1="321.3" y1="528.2" x2="382.7" y2="528.2"/>
		</g>
		<g>
			<line class="st1" x1="295.8" y1="411.2" x2="295.8" y2="467.2"/>
		</g>
		<g>
			<g>
				<circle class="st2" cx="252.4" cy="508.7" r="23.8"/>
				<circle class="st3" cx="252.4" cy="508.7" r="19.8"/>
				<g id="cogwheel_16_">
					<path class="st4" d="M264.7,511.1c0.1-0.5,0.1-1,0.1-1.5c0-0.5,0-1-0.1-1.5l-3.2-0.8c-0.2-0.8-0.5-1.5-0.9-2.2l1.7-2.8
						c-0.6-0.8-1.4-1.5-2.2-2.2l-2.8,1.7c-0.7-0.4-1.4-0.7-2.2-0.9l-0.8-3.2c-0.5-0.1-1-0.1-1.5-0.1c-0.5,0-1,0-1.5,0.1l-0.8,3.2
						c-0.8,0.2-1.5,0.5-2.2,0.9l-2.8-1.7c-0.8,0.6-1.5,1.4-2.2,2.2l1.7,2.8c-0.4,0.7-0.7,1.4-0.9,2.2L241,508
						c-0.1,0.5-0.1,1-0.1,1.5c0,0.5,0,1,0.1,1.5l3.2,0.8c0.2,0.8,0.5,1.5,0.9,2.2l-1.7,2.8c0.6,0.8,1.4,1.5,2.2,2.2l2.8-1.7
						c0.7,0.4,1.4,0.7,2.2,0.9l0.8,3.2c0.5,0.1,1,0.1,1.5,0.1c0.5,0,1,0,1.5-0.1l0.8-3.2c0.8-0.2,1.5-0.5,2.2-0.9l2.8,1.7
						c0.8-0.6,1.5-1.4,2.2-2.2l-1.7-2.8c0.4-0.7,0.7-1.4,0.9-2.2L264.7,511.1z M252.9,513.7c-2.3,0-4.2-1.9-4.2-4.2
						c0-2.3,1.9-4.2,4.2-4.2c2.3,0,4.2,1.9,4.2,4.2C257.1,511.8,255.2,513.7,252.9,513.7z"/>
				</g>
			</g>
			<g>
				<circle class="st2" cx="297.2" cy="484.8" r="18.3"/>
				<g>
					<circle class="st3" cx="297.2" cy="484.8" r="15.6"/>
				</g>
				<g id="pencil_2_">
					<path class="st4" d="M302.2,475.8l0.4,0.4l2.6,2.6l0.4,0.4l0.4-0.4l0.9-0.9l0.4-0.4c0.2-0.2,0.2-0.6,0-0.9l-2.6-2.6
						c-0.2-0.2-0.6-0.2-0.9,0l-0.4,0.4l-0.9,0.9L302.2,475.8z"/>
					
						<rect x="289.4" y="481.7" transform="matrix(0.7071 -0.7071 0.7071 0.7071 -255.3273 352.0535)" class="st4" width="15.7" height="5"/>
					<path class="st4" d="M288.9,489.1l-2,5.3c-0.1,0.2,0,0.3,0.3,0.3l5.3-2L288.9,489.1z"/>
				</g>
			</g>
			<g>
				<circle class="st2" cx="300.1" cy="532.5" r="21.8"/>
				<circle class="st3" cx="300.1" cy="532.5" r="18.4"/>
				<g>
					<path class="st4" d="M308.8,539.9c0.1,0.1,0.1,0.2,0.1,0.4v3.4c0,1.3-3.8,2.3-8.5,2.3c-4.7,0-8.5-1-8.5-2.3v-3.4
						c0-0.1,0.1-0.3,0.1-0.4c2.3,1.4,7.2,1.5,8.4,1.5S306.5,541.3,308.8,539.9z"/>
					<path class="st4" d="M300.5,535.8c-1.2,0-6.1-0.1-8.4-1.5c-0.1,0.1-0.1,0.2-0.1,0.4v3.4c0,1.3,3.8,2.3,8.5,2.3
						c4.7,0,8.5-1,8.5-2.3v-3.4c0-0.1-0.1-0.3-0.1-0.4C306.5,535.7,301.7,535.8,300.5,535.8z"/>
					<path class="st4" d="M300.5,530.1c-1.2,0-6.1-0.1-8.4-1.5c-0.1,0.1-0.1,0.2-0.1,0.4v3.4c0,1.3,3.8,2.3,8.5,2.3
						c4.7,0,8.5-1,8.5-2.3v-3.4c0-0.1-0.1-0.3-0.1-0.4C306.5,530,301.7,530.1,300.5,530.1z"/>
					<path class="st4" d="M309,523.3v3.4c0,1.3-3.8,2.3-8.5,2.3c-4.7,0-8.5-1-8.5-2.3v-3.4c0-1.3,3.8-2.3,8.5-2.3
						C305.2,521,309,522,309,523.3z"/>
					<ellipse class="st4" cx="300.5" cy="522.7" rx="3.7" ry="0.7"/>
				</g>
			</g>
		</g>
		<g>
			<path class="st5" d="M414.8,458.6c20,0,36.2,15.3,36.2,34.1c0,18.9-16.2,34.1-36.2,34.1"/>
			<rect x="359.9" y="520.4" class="st6" width="66.7" height="12.6"/>
			<rect x="376.6" y="514.8" class="st2" width="33.4" height="3.8"/>
			<path class="st6" d="M377.8,541.7c0-8.5,6.9-15.4,15.4-15.4c8.5,0,15.4,6.9,15.4,15.4"/>
			<path class="st7" d="M385.5,541.7c0-4.3,3.4-7.7,7.7-7.7c4.3,0,7.7,3.4,7.7,7.7"/>
			<rect x="414.8" y="524.3" class="st6" width="11.8" height="21.3"/>
			<rect x="350.4" y="541" class="st6" width="96.8" height="9.2"/>
			<ellipse class="st2" cx="440.3" cy="440.2" rx="6.9" ry="6.5"/>
			
				<rect x="382.5" y="481.1" transform="matrix(0.6869 -0.7268 0.7268 0.6869 -229.6807 435.8749)" class="st2" width="16.9" height="6.8"/>
			
				<rect x="390.5" y="488.7" transform="matrix(0.6867 -0.7269 0.7269 0.6867 -232.681 444.189)" class="st2" width="16.9" height="6.8"/>
			
				<rect x="387.5" y="446.9" transform="matrix(0.6868 -0.7268 0.7268 0.6868 -205.3631 449.4122)" class="st6" width="62.7" height="32.2"/>
			
				<rect x="393.9" y="466.7" transform="matrix(0.6869 -0.7268 0.7268 0.6869 -228.1048 441.3263)" class="st7" width="8.5" height="37.3"/>
			<g>
				<g>
					<path class="st2" d="M437.6,470.1c5,0,5-7.7,0-7.7C432.7,462.4,432.7,470.1,437.6,470.1L437.6,470.1z"/>
				</g>
			</g>
		</g>
	</g>
	<g>
		<radialGradient id="SVGID_2_" cx="155.3187" cy="442.2506" r="114.5712" gradientUnits="userSpaceOnUse">
			<stop  offset="0" style="stop-color:#FCFDFF"/>
			<stop  offset="1" style="stop-color:#AEC9D3"/>
		</radialGradient>
		<path class="st8" d="M204.9,442.3c0,27.4-22.2,49.6-49.6,49.6c-27.4,0-49.6-22.2-49.6-49.6c0-27.4,22.2-49.6,49.6-49.6
			C182.7,392.7,204.9,414.9,204.9,442.3"/>
		<g>
			<defs>
				<path id="SVGID_3_" d="M103.1,442.3c0,28.9,23.4,52.2,52.2,52.2s52.2-23.4,52.2-52.2c0-28.9-23.4-52.2-52.2-52.2
					S103.1,413.4,103.1,442.3"/>
			</defs>
			<clipPath id="SVGID_4_">
				<use xlink:href="#SVGID_3_"  style="overflow:visible;"/>
			</clipPath>
		</g>
		<path class="st9" d="M179.3,453.3c-3.2-6.1-24-10-24-10s-20.8,3.8-24,10c-2.4,8.5-4.4,19.3-4.4,19.3h28.4h28.4
			C183.7,472.6,182.3,461,179.3,453.3"/>
		<path class="st10" d="M155.3,443.3c0,0,20.8,3.8,24,10c3,7.7,4.4,19.3,4.4,19.3h-28.4V443.3z"/>
		<rect x="149.6" y="432.1" class="st11" width="11.3" height="17.8"/>
		<rect x="155.3" y="432.1" class="st11" width="5.7" height="17.8"/>
		<g class="st12">
			<g>
				<defs>
					<rect id="SVGID_5_" x="149.6" y="432.1" width="11.3" height="12.2"/>
				</defs>
				<clipPath id="SVGID_6_">
					<use xlink:href="#SVGID_5_"  style="overflow:visible;"/>
				</clipPath>
				<path class="st13" d="M149.6,440c1,2.9,5.7,4.3,8.1,4.3c1.1,0,2.2-0.2,3.2-0.5v-11.7h-11.3V440z"/>
			</g>
		</g>
		<path class="st14" d="M169.8,420.1c0-11.8-6.5-18.6-14.6-18.6c-8,0-14.6,6.7-14.6,18.6c0,15.9,6.5,21.4,14.6,21.4
			C163.3,441.6,169.8,435.4,169.8,420.1"/>
		<path class="st14" d="M167.6,428.3c-2.4-0.3-4-3.1-3.6-6.3c0.4-3.2,2.7-5.6,5.1-5.4c2.4,0.3,4,3.1,3.6,6.3
			C172.3,426.2,170,428.6,167.6,428.3"/>
		<path class="st14" d="M138,423c-0.4-3.2,1.2-6.1,3.6-6.3c2.4-0.3,4.7,2.1,5.1,5.4c0.4,3.2-1.2,6.1-3.6,6.4
			C140.7,428.6,138.4,426.2,138,423"/>
		<path class="st14" d="M169.8,420.1c0-11.8-6.5-18.6-14.6-18.6v40C163.3,441.6,169.8,435.4,169.8,420.1"/>
		<path class="st15" d="M164,445.8c0,0,13.3,2,15.3,4c1.7,1.8,5.3,19,6.1,22.8h-30.1v-24.5L164,445.8z"/>
		<path class="st15" d="M146.5,445.8c0,0-13.3,2-15.3,4c-1.7,1.8-5.3,19-6.1,22.8h30.1v-24.5L146.5,445.8z"/>
		<polygon class="st16" points="146.9,445.2 155.3,472.6 163.3,445.2 155.3,447.3 		"/>
		<path class="st17" d="M163,402.7c-10.8-4.9-19.1,2-21,5c-2,3.2-3.2,11.1,1,16.6c0,0,12.6-5.1,14.6-10.5c-0.1,3.4-2,6.6-2,6.6
			s5.8-1.9,8.8-7.1c1.8,2.1,3.6,5.5,4,11C172,419,174.2,404.8,163,402.7"/>
		<polygon class="st18" points="157.8,449.8 155.3,447.3 152.7,449.8 154.4,451.5 152.7,469.6 155.3,472.6 157.8,469.6 156.1,451.5 
					"/>
		<polygon class="st19" points="155.3,447.3 155.3,447.3 155.3,472.6 155.3,472.6 157.8,469.6 156.1,451.5 157.8,449.8 		"/>
		<polygon class="st20" points="155.3,472.6 167.5,458.9 163.3,457.3 170.7,447.3 163.3,445.2 		"/>
		<polygon class="st20" points="155.3,472.6 143,458.9 147.2,457.3 139.8,447.3 147,445.2 		"/>
		<polygon class="st4" points="155.3,447.3 149.6,443.3 145.3,445.7 151.9,452.4 		"/>
		<polygon class="st16" points="155.3,447.3 160.9,443.3 164.9,445.6 158.6,452.4 		"/>
		<path class="st21" d="M163,402.7c-2.8-1.2-5.4-1.7-7.7-1.7v16c1.1-1,1.9-2.1,2.3-3.1c-0.1,3.4-2,6.6-2,6.6s5.8-1.9,8.8-7.1
			c1.8,2.1,3.6,5.5,4,11C172,419,174.4,405.3,163,402.7"/>
	</g>
	<g>
		<g>
			<path d="M132.2,510.2l-1.3,4h-1.7l4.3-12.8h2l4.4,12.8h-1.8l-1.4-4H132.2z M136.4,509l-1.3-3.7c-0.3-0.8-0.5-1.6-0.7-2.3h0
				c-0.2,0.8-0.4,1.5-0.6,2.3l-1.3,3.7H136.4z"/>
			<path d="M149.4,500.8v11.1c0,0.8,0,1.7,0.1,2.4H148l-0.1-1.6h0c-0.5,1-1.6,1.8-3.1,1.8c-2.2,0-3.9-1.9-3.9-4.7
				c0-3.1,1.9-4.9,4.1-4.9c1.4,0,2.4,0.7,2.8,1.4h0v-5.5H149.4z M147.7,508.8c0-0.2,0-0.5-0.1-0.7c-0.2-1.1-1.2-1.9-2.4-1.9
				c-1.7,0-2.8,1.5-2.8,3.5c0,1.9,0.9,3.4,2.7,3.4c1.1,0,2.1-0.7,2.4-2c0.1-0.2,0.1-0.5,0.1-0.7V508.8z"/>
			<path d="M152.2,507.6c0-0.9,0-1.7-0.1-2.5h1.5l0.1,1.5h0.1c0.5-0.9,1.4-1.7,2.9-1.7c1.3,0,2.2,0.8,2.6,1.8h0
				c0.3-0.5,0.6-0.9,1-1.2c0.5-0.4,1.2-0.6,2-0.6c1.2,0,3,0.8,3,4v5.4h-1.6v-5.2c0-1.8-0.6-2.8-2-2.8c-0.9,0-1.7,0.7-2,1.5
				c-0.1,0.2-0.1,0.5-0.1,0.8v5.7h-1.6v-5.5c0-1.5-0.6-2.5-1.9-2.5c-1,0-1.8,0.8-2.1,1.7c-0.1,0.2-0.1,0.5-0.1,0.8v5.5h-1.6V507.6z"
				/>
			<path d="M169.9,502.5c0,0.6-0.4,1-1.1,1c-0.6,0-1-0.5-1-1c0-0.6,0.4-1,1-1C169.5,501.5,169.9,501.9,169.9,502.5z M168,514.3v-9.2
				h1.7v9.2H168z"/>
			<path d="M172.4,507.6c0-0.9,0-1.7-0.1-2.5h1.5l0.1,1.5h0c0.5-0.9,1.5-1.7,3-1.7c1.3,0,3.2,0.8,3.2,3.9v5.5h-1.7V509
				c0-1.5-0.5-2.7-2.1-2.7c-1.1,0-2,0.8-2.2,1.7c-0.1,0.2-0.1,0.5-0.1,0.8v5.5h-1.7V507.6z"/>
		</g>
	</g>
	<g>
		<g>
			<path d="M383.5,145.6c0.8-0.1,1.8-0.2,3.2-0.2c1.6,0,2.8,0.4,3.6,1.1c0.7,0.6,1.1,1.5,1.1,2.7c0,1.2-0.3,2.1-1,2.7
				c-0.9,0.9-2.3,1.4-3.9,1.4c-0.5,0-0.9,0-1.3-0.1v5.1h-1.7V145.6z M385.1,151.8c0.4,0.1,0.8,0.1,1.4,0.1c2,0,3.2-1,3.2-2.7
				c0-1.7-1.2-2.5-3-2.5c-0.7,0-1.3,0.1-1.6,0.1V151.8z"/>
			<path d="M398.1,158.3l-0.1-1.2h-0.1c-0.5,0.7-1.5,1.4-2.8,1.4c-1.9,0-2.8-1.3-2.8-2.6c0-2.2,2-3.4,5.5-3.4v-0.2
				c0-0.8-0.2-2.1-2.1-2.1c-0.9,0-1.7,0.3-2.4,0.7l-0.4-1.1c0.8-0.5,1.9-0.8,3-0.8c2.8,0,3.5,1.9,3.5,3.8v3.4c0,0.8,0,1.6,0.2,2.2
				H398.1z M397.9,153.6c-1.8,0-3.9,0.3-3.9,2.1c0,1.1,0.7,1.6,1.6,1.6c1.2,0,2-0.8,2.2-1.5c0.1-0.2,0.1-0.4,0.1-0.5V153.6z"/>
			<path d="M404.1,146.4v2.6h2.4v1.3h-2.4v5c0,1.1,0.3,1.8,1.3,1.8c0.4,0,0.8-0.1,1-0.1l0.1,1.3c-0.3,0.1-0.8,0.2-1.5,0.2
				c-0.8,0-1.4-0.2-1.8-0.7c-0.5-0.5-0.6-1.3-0.6-2.4v-5H401v-1.3h1.4v-2.2L404.1,146.4z"/>
			<path d="M410.2,146.5c0,0.6-0.4,1-1.1,1c-0.6,0-1-0.5-1-1c0-0.6,0.4-1,1-1C409.8,145.5,410.2,145.9,410.2,146.5z M408.4,158.3
				v-9.2h1.7v9.2H408.4z"/>
			<path d="M413.7,154c0,2.3,1.5,3.2,3.1,3.2c1.2,0,1.9-0.2,2.5-0.5l0.3,1.2c-0.6,0.3-1.6,0.6-3.1,0.6c-2.8,0-4.5-1.9-4.5-4.6
				c0-2.8,1.6-5,4.3-5c3,0,3.8,2.6,3.8,4.3c0,0.3,0,0.6-0.1,0.8H413.7z M418.6,152.8c0-1.1-0.4-2.7-2.3-2.7c-1.7,0-2.4,1.6-2.6,2.7
				H418.6z"/>
			<path d="M422.3,151.6c0-0.9,0-1.7-0.1-2.5h1.5l0.1,1.5h0c0.5-0.9,1.5-1.7,3-1.7c1.3,0,3.2,0.8,3.2,3.9v5.5h-1.7V153
				c0-1.5-0.5-2.7-2.1-2.7c-1.1,0-2,0.8-2.2,1.7c-0.1,0.2-0.1,0.5-0.1,0.8v5.5h-1.7V151.6z"/>
			<path d="M434.8,146.4v2.6h2.4v1.3h-2.4v5c0,1.1,0.3,1.8,1.3,1.8c0.4,0,0.8-0.1,1-0.1l0.1,1.3c-0.3,0.1-0.8,0.2-1.5,0.2
				c-0.8,0-1.4-0.2-1.8-0.7c-0.5-0.5-0.6-1.3-0.6-2.4v-5h-1.4v-1.3h1.4v-2.2L434.8,146.4z"/>
		</g>
	</g>
	<g>
		<line class="st1" x1="303.6" y1="79.7" x2="374.5" y2="79.7"/>
	</g>
	<g>
		<line class="st1" x1="275.6" y1="110.9" x2="275.6" y2="166.9"/>
	</g>
	<g>
		<circle class="st2" cx="278.8" cy="80.2" r="34.8"/>
		<circle class="st3" cx="278.8" cy="80.2" r="28.9"/>
		<g>
			<g id="share-alt_4_">
				<path class="st4" d="M299,80.4c0,3.3-2.5,5.9-5.9,5.9c-1.6,0-2.9-0.6-3.9-1.6l-13.9,8.2c0.2,0.6,0.2,1,0.2,1.4
					c0,3.1-2.5,5.7-5.7,5.7s-5.7-2.5-5.7-5.7s2.5-5.7,5.7-5.7c1.6,0,2.9,0.6,3.9,1.6l13.9-8.2c-0.2-0.4-0.2-1-0.2-1.4
					c0-0.4,0-1,0.2-1.4l-13.9-8c-1,1-2.3,1.6-3.9,1.6c-3.3,0-5.9-2.5-5.9-5.9c0-3.3,2.5-5.9,5.9-5.9s5.9,2.5,5.9,5.9
					c0,0.4,0,1-0.2,1.4l13.9,8c1-1,2.3-1.6,3.9-1.6C296.7,74.7,299,77.1,299,80.4z"/>
			</g>
		</g>
	</g>
	<g>
		<radialGradient id="SVGID_7_" cx="413.8091" cy="94.1182" r="96.0688" gradientUnits="userSpaceOnUse">
			<stop  offset="0" style="stop-color:#FCFDFF"/>
			<stop  offset="1" style="stop-color:#AEC9D3"/>
		</radialGradient>
		<path class="st22" d="M455.4,94.1c0,23-18.6,41.6-41.6,41.6c-23,0-41.6-18.6-41.6-41.6c0-23,18.6-41.6,41.6-41.6
			C436.8,52.5,455.4,71.1,455.4,94.1"/>
		<g>
			<defs>
				<path id="SVGID_8_" d="M370,94.1c0,24.2,19.6,43.8,43.8,43.8s43.8-19.6,43.8-43.8c0-24.2-19.6-43.8-43.8-43.8S370,69.9,370,94.1
					"/>
			</defs>
			<clipPath id="SVGID_9_">
				<use xlink:href="#SVGID_8_"  style="overflow:visible;"/>
			</clipPath>
		</g>
		<g>
			<path class="st23" d="M422.4,94.5c4.9-1.2,11.7-3.9,12.6,0c1.1,4.7,2.4,15.9,3.7,26.8c0.3,2.3-2.7,3.6-3.5,3.8
				c-3.3,1-6.2,1.3-9.9,1.8L422.4,94.5C422.4,94.5,422.4,94.5,422.4,94.5z"/>
			<path class="st23" d="M407.5,94.5c-6.2-1.5-11.1-4.9-12.2-0.1c-1.1,5.1-2.4,16.3-3.7,26.7c-0.3,2.7,2.4,3.8,3.3,4.1
				c3.2,0.8,6,1.2,9.5,1.7L407.5,94.5C407.5,94.5,407.5,94.5,407.5,94.5z"/>
			<path class="st24" d="M402.6,126.3l-0.2,0.4c7.6,1,17,1,24.7,0.1c-0.1-0.2-0.1-0.3-0.2-0.4H402.6z"/>
			<path class="st25" d="M399.6,126.2c1.7-4.9-2.2-27.7-4.3-32c1.2-4.3,12.5-5.3,15.5-7.7c1.4,1.3,2.4,1.5,4.1,1.5
				c1.6,0,2.7-0.3,4.1-1.6c2.2,1.8,13.9,3.2,15.9,7.5c-2.3,4.8-6.4,27.8-4.6,32.1C422.6,127.7,407.4,127.8,399.6,126.2z"/>
			<polygon class="st26" points="407.2,88.6 406.9,98.2 414.9,118.6 422.9,98.2 422.4,88.3 419,86.5 410.8,86.5 			"/>
			<rect x="410.8" y="83.2" class="st27" width="8" height="8.3"/>
			<path class="st28" d="M416.2,96.6l0.6-1.2l-1.9-4.6l-1.9,4.5l0.6,1.3C414.5,96.6,415.3,96.6,416.2,96.6z"/>
			<polygon class="st29" points="410.8,86.5 414.9,90.9 412,98.6 408.4,88.1 			"/>
			<polygon class="st29" points="419,86.5 414.9,90.9 417.8,98.6 421.4,88.1 			"/>
			<polygon class="st28" points="413.6,99.5 416.2,99.5 417.6,112.6 414.9,118.8 412.3,112.6 			"/>
			<polygon class="st26" points="410.8,86.5 414.9,90.9 411.9,96.7 408.4,88.1 			"/>
			<polygon class="st30" points="408.4,87.9 414.9,118.8 405.3,100.5 406.9,98.2 403.8,95.8 406.7,88.9 			"/>
			<polygon class="st23" points="421.5,87.9 414.9,118.8 425.5,101.8 424.1,98.9 427.1,96.5 423.9,89 			"/>
			<polygon class="st30" points="421.5,87.9 414.9,118.8 424.4,100.5 422.9,98.2 425.9,95.8 423.9,89 			"/>
			<polygon class="st26" points="419,86.5 414.9,90.9 417.8,96.7 421.4,88.1 			"/>
			<path class="st28" d="M413.6,96.4h2.6c0.6,1.2,0.5,2.3,0,3.3h-2.6C413.1,98.7,413,97.6,413.6,96.4z"/>
			<path class="st24" d="M414.5,127.4c0.1-2.3,0.2-5,0.5-9c0.3,4,0.5,6.7,0.5,9C415.2,127.4,414.9,127.4,414.5,127.4z"/>
			<polygon class="st26" points="406,88.9 407,98.1 415,118.4 422.9,98.1 423.9,88.9 420.1,86.4 409.8,86.4 			"/>
			<rect x="409.8" y="83.1" class="st27" width="10.2" height="8.3"/>
			<path class="st31" d="M415,88c4,0,7.7-4.6,9.7-10.2c0.1,0.1,0.2,0.2,0.4,0.2c0.8,0.1,1.7-1.4,2-3.3c0.3-2,0-3.7-0.8-3.8
				c-0.1,0-0.1,0-0.2,0c0.4-7-2.5-13.4-11.1-13.4c-8.6,0-11.5,6.4-11.1,13.4c-0.1,0-0.2,0-0.3,0c-0.8,0.1-1.2,1.8-0.8,3.8
				c0.3,2,1.2,3.5,2,3.3c0.2,0,0.3-0.1,0.5-0.3C407.2,83.4,411,88,415,88z"/>
			<path class="st25" d="M426.1,70.8c0.4-7-2.5-13.4-11.1-13.4c-8.6,0-11.5,6.4-11.1,13.4c0.7,0.2,1.4,1.4,1.7,3.1
				c0.6,0.4,1,0.2,1-1.2c0-4.1,0.5-7.8,3.2-8.7c2.6-0.8,3.2,1,5.1,1c2,0,2.6-1.7,5.1-1c2.6,0.8,3.2,4.5,3.2,8.7
				c0,1.3,0.4,1.6,0.9,1.3C424.5,72.2,425.3,70.9,426.1,70.8z"/>
			<path class="st32" d="M416.3,96.5l0.6-1.2l-1.9-4.6l-1.9,4.5l0.6,1.3C414.6,96.5,415.4,96.5,416.3,96.5z"/>
			<polygon class="st29" points="409.8,86.4 415,90.8 412.1,98.5 407.5,88 			"/>
			<polygon class="st23" points="407.5,88 415,118.5 404.4,101.7 405.8,98.7 402.8,96.3 406,88.9 			"/>
			<polygon class="st29" points="420.1,86.4 415,90.8 417.9,98.5 422.5,88 			"/>
			<polygon class="st32" points="413.7,99.4 416.3,99.4 417.6,112.3 415,118.5 412.4,112.3 			"/>
			<path class="st25" d="M424.2,64c-1.1,2.2-10.3,7.6-14,7.9c1.7-1.5,5.6-6.1,5.1-6.4c-0.6-0.3-6.5,4.3-9.6,5.4
				C405,57.5,414.7,58,424.2,64z"/>
			<path class="st25" d="M419,61.8c0.5,2.2,3.7,8.8,5.3,9.1C425.9,71.1,426,56,419,61.8z"/>
			<polygon class="st26" points="409.8,86.4 415,90.8 412,96.6 407.5,88 			"/>
			<polygon class="st33" points="407.5,88 415,118.5 405.4,100.3 407,98.1 404,95.7 406,88.9 			"/>
			<polygon class="st33" points="422.5,88 415,118.5 424.5,100.3 422.9,98.1 426,95.7 423.9,88.9 			"/>
			<polygon class="st26" points="420.1,86.4 415,90.8 417.9,96.6 422.5,88 			"/>
			<path class="st32" d="M413.7,96.3h2.6c0.6,1.2,0.5,2.2,0,3.3h-2.6C413.2,98.5,413.1,97.5,413.7,96.3z"/>
			<path class="st34" d="M414.3,127.4c0.4,0,0.8,0,1.3,0c0.2-2.2-0.3-8-0.6-9C414.6,119.2,414.2,125.1,414.3,127.4z"/>
		</g>
	</g>
	<g>
		<radialGradient id="SVGID_10_" cx="306" cy="293.9991" r="141.1392" gradientUnits="userSpaceOnUse">
			<stop  offset="0" style="stop-color:#FFFFFF"/>
			<stop  offset="1" style="stop-color:#7AC8A5"/>
		</radialGradient>
		<circle class="st35" cx="306" cy="294" r="141.1"/>
		<g>
			<path class="st36" d="M338.9,370.6c0,3.3-2.7,6.1-6.1,6.1h-53.8c-3.3,0-6.1-2.7-6.1-6.1v-7.4c0-3.3,2.7-6.1,6.1-6.1h53.8
				c3.3,0,6.1,2.7,6.1,6.1V370.6z"/>
			<path class="st36" d="M402.1,359.1c0,3.3-2.7,6.1-6.1,6.1H215.9c-3.3,0-6.1-2.7-6.1-6.1V236.5c0-3.3,2.7-6.1,6.1-6.1h180.2
				c3.3,0,6.1,2.7,6.1,6.1V359.1z"/>
			<path class="st37" d="M379.8,326.9c0,3.3-2.7,6.1-6.1,6.1H238.3c-3.3,0-6.1-2.7-6.1-6.1V252c0-3.3,2.7-6.1,6.1-6.1h135.5
				c3.3,0,6.1,2.7,6.1,6.1V326.9z"/>
			<path class="st4" d="M377.2,324.6c0,3.1-2.6,5.7-5.8,5.7H240.7c-3.2,0-5.8-2.5-5.8-5.7v-70.4c0-3.1,2.6-5.7,5.8-5.7h130.6
				c3.2,0,5.8,2.5,5.8,5.7V324.6z"/>
			<circle class="st4" cx="365.3" cy="350.4" r="10.6"/>
			<circle class="st38" cx="365.3" cy="350.4" r="7.4"/>
			<circle class="st4" cx="339.6" cy="350.4" r="8.5"/>
			<circle class="st38" cx="339.6" cy="350.4" r="5.9"/>
			<circle class="st4" cx="316.8" cy="350.4" r="8.5"/>
			<circle class="st38" cx="316.8" cy="350.4" r="5.9"/>
			<circle class="st4" cx="294.1" cy="350.4" r="8.5"/>
			<circle class="st38" cx="294.1" cy="350.4" r="5.9"/>
			<circle class="st39" cx="247.6" cy="319.4" r="6.4"/>
			<rect x="334.1" y="313.9" class="st38" width="36.5" height="3"/>
			<rect x="334.1" y="321.4" class="st38" width="36.5" height="3"/>
			<g>
				<line class="st40" x1="238.1" y1="289.7" x2="249.7" y2="289.7"/>
				<line class="st40" x1="278.7" y1="289.7" x2="297.7" y2="289.7"/>
				<line class="st40" x1="319.2" y1="289.7" x2="339.8" y2="289.7"/>
				<line class="st40" x1="249.7" y1="289.7" x2="255.5" y2="282.9"/>
				<line class="st40" x1="255.5" y1="282.9" x2="260.3" y2="296"/>
				<line class="st40" x1="260.3" y1="296" x2="266.9" y2="266"/>
				<line class="st40" x1="266.9" y1="266" x2="272.4" y2="311.4"/>
				<line class="st40" x1="272.4" y1="311.4" x2="278.7" y2="289.7"/>
				<line class="st40" x1="297.7" y1="289.7" x2="301.7" y2="297.8"/>
				<line class="st40" x1="301.7" y1="297.8" x2="309" y2="263.7"/>
				<line class="st40" x1="309" y1="263.7" x2="311.8" y2="308.9"/>
				<line class="st40" x1="311.8" y1="308.9" x2="319.2" y2="289.7"/>
				<line class="st40" x1="339.8" y1="289.7" x2="343.8" y2="284.9"/>
				<line class="st40" x1="343.8" y1="284.9" x2="348.4" y2="302.1"/>
				<line class="st40" x1="348.4" y1="302.1" x2="353.2" y2="263.7"/>
				<line class="st40" x1="353.2" y1="263.7" x2="356.7" y2="305.9"/>
				<line class="st40" x1="356.7" y1="305.9" x2="362.1" y2="289.7"/>
				<line class="st40" x1="362.3" y1="289.7" x2="373.9" y2="289.7"/>
			</g>
			<circle class="st41" cx="390" cy="281.9" r="5.3"/>
			<circle class="st39" cx="390" cy="297" r="4.5"/>
			<path class="st36" d="M245.8,229.3c0,3.3-2.7,6.1-6.1,6.1h-10.5c-3.3,0-6.1-2.7-6.1-6.1v-0.8c0-3.3,2.7-6.1,6.1-6.1h10.5
				c3.3,0,6.1,2.7,6.1,6.1V229.3z"/>
			<path class="st36" d="M266.6,228.9c0,2.8-2.3,5.1-5.1,5.1h-3.4c-2.8,0-5.1-2.3-5.1-5.1l0,0c0-2.8,2.3-5.1,5.1-5.1h3.4
				C264.4,223.8,266.6,226.1,266.6,228.9L266.6,228.9z"/>
		</g>
	</g>
</g>
</svg>
