<?xml version="1.0" encoding="utf-8"?>
<!-- Generator: Adobe Illustrator 20.0.0, SVG Export Plug-In . SVG Version: 6.00 Build 0)  -->
<svg version="1.1" id="Layer_1" xmlns="http://www.w3.org/2000/svg" xmlns:xlink="http://www.w3.org/1999/xlink" x="0px" y="0px"
	 viewBox="0 0 612 612" style="enable-background:new 0 0 612 612;" xml:space="preserve">
<style type="text/css">
	.st0{clip-path:url(#SVGID_4_);fill-rule:evenodd;clip-rule:evenodd;fill:#97D9F7;}
	.st1{fill:none;stroke:#FFFFFF;stroke-width:2;stroke-miterlimit:10;stroke-dasharray:6;}
	.st2{fill:#214287;}
	.st3{fill:#97D9F7;}
	.st4{fill:none;}
	.st5{fill:#474E5E;stroke:#4B6F80;stroke-linecap:round;stroke-linejoin:round;stroke-miterlimit:10;}
	.st6{fill:#474E5E;}
	.st7{fill:#F16D64;}
	.st8{opacity:0.4;}
	.st9{fill:#7F56C5;}
	.st10{fill-rule:evenodd;clip-rule:evenodd;fill:#E94250;}
	.st11{opacity:0.4;fill:url(#SVGID_7_);}
	.st12{fill:#4B6F80;}
	.st13{fill:#FAAF3A;}
	.st14{fill:#F4D881;}
	.st15{fill:#EF654C;}
	.st16{opacity:0.1;clip-path:url(#SVGID_9_);}
	.st17{fill:#EF654C;stroke:#EF654C;stroke-width:4.4477;stroke-linecap:round;stroke-linejoin:round;stroke-miterlimit:10;}
	.st18{opacity:0.1;clip-path:url(#SVGID_11_);fill:#FFFFFF;}
	.st19{fill:#FDF6EA;}
	.st20{fill:#8B8B8B;}
	.st21{fill:none;stroke:#C4C4CB;stroke-width:1.2348;stroke-linecap:round;stroke-linejoin:round;stroke-miterlimit:10;}
	.st22{fill:#1A78B9;}
	.st23{fill:#AFD8A8;}
	.st24{opacity:0.1;clip-path:url(#SVGID_13_);}
	.st25{fill:#414242;}
	.st26{fill:#4B6F80;stroke:#4B6F80;stroke-linecap:round;stroke-linejoin:round;stroke-miterlimit:10;}
	.st27{fill:none;stroke:#4B6F80;stroke-width:0.75;stroke-linecap:round;stroke-linejoin:round;stroke-miterlimit:10;}
	.st28{fill:none;stroke:#4B6F80;stroke-width:4;stroke-linecap:round;stroke-linejoin:round;stroke-miterlimit:10;}
	.st29{fill:none;stroke:#4B6F80;stroke-width:2;stroke-linecap:round;stroke-linejoin:round;stroke-miterlimit:10;}
	.st30{opacity:0.1;fill:#FFFFFF;}
	.st31{fill:#676767;}
	.st32{fill-rule:evenodd;clip-rule:evenodd;fill:#414242;}
	.st33{fill-rule:evenodd;clip-rule:evenodd;fill:#AFC9D8;}
	.st34{fill-rule:evenodd;clip-rule:evenodd;fill:#D0E1EA;}
	.st35{fill-rule:evenodd;clip-rule:evenodd;fill:#627F90;}
	.st36{fill-rule:evenodd;clip-rule:evenodd;fill:#7F96A4;}
	.st37{opacity:0.2;}
	.st38{fill:#FFFFFF;}
	.st39{fill:#8A8B8B;}
	.st40{fill:#C5C5C5;}
	.st41{display:none;fill:#FFFFFF;stroke:#59595C;stroke-width:0.75;stroke-miterlimit:10;}
	.st42{fill:#414141;}
</style>
<g>
	<g>
		<g>
			<g>
				<defs>
					<circle id="SVGID_1_" cx="306" cy="306" r="306"/>
				</defs>
				<clipPath id="SVGID_2_">
					<use xlink:href="#SVGID_1_"  style="overflow:visible;"/>
				</clipPath>
			</g>
			<g>
				<defs>
					<circle id="SVGID_3_" cx="306" cy="306" r="306"/>
				</defs>
				<use xlink:href="#SVGID_3_"  style="overflow:visible;fill:#97D9F7;"/>
				<clipPath id="SVGID_4_">
					<use xlink:href="#SVGID_3_"  style="overflow:visible;"/>
				</clipPath>
				<rect x="-28.2" y="-28.3" class="st0" width="668.4" height="668.4"/>
			</g>
			<g>
				<defs>
					<circle id="SVGID_5_" cx="306" cy="306" r="306"/>
				</defs>
				<clipPath id="SVGID_6_">
					<use xlink:href="#SVGID_5_"  style="overflow:visible;"/>
				</clipPath>
			</g>
		</g>
	</g>
	<g>
		<polygon class="st1" points="178.4,258.9 137.6,177.8 219.1,96.9 334,79.8 432.2,135.7 492.6,205.6 423,262 		"/>
		<g>
			<path class="st2" d="M473.3,220.1v-25.7c0-0.9,0.2-1.7,0.5-2.4c0.4-0.8,0.8-1.5,1.4-2c0.6-0.6,1.3-1.1,2-1.4
				c0.8-0.4,1.6-0.5,2.4-0.5h25.7c0.9,0,1.7,0.2,2.4,0.5c0.8,0.4,1.5,0.8,2,1.4c0.6,0.6,1.1,1.3,1.4,2c0.4,0.8,0.5,1.6,0.5,2.4v25.7
				c0,0.9-0.2,1.7-0.5,2.4c-0.4,0.8-0.8,1.5-1.4,2c-0.6,0.6-1.3,1.1-2,1.4c-0.8,0.4-1.6,0.5-2.4,0.5h-6.9V212h6.4v-6.4h-6.4V203
				c0-0.5,0.1-0.9,0.4-1.3c0.3-0.3,0.5-0.5,0.8-0.5h5.2v-6.5h-5.2c-1,0-1.9,0.2-2.8,0.7c-0.9,0.5-1.6,1.1-2.3,1.8
				c-0.7,0.8-1.2,1.6-1.5,2.6c-0.4,1-0.6,2-0.6,3.1v2.5h-4.7v6.4h4.7v14.6h-12.9c-0.9,0-1.7-0.2-2.4-0.5c-0.8-0.4-1.5-0.8-2-1.4
				c-0.6-0.6-1.1-1.3-1.4-2C473.5,221.8,473.3,221,473.3,220.1z"/>
		</g>
		<ellipse class="st3" cx="141.8" cy="155" rx="23.9" ry="26.1"/>
		<ellipse class="st3" cx="418.3" cy="129" rx="23.9" ry="26.1"/>
		<ellipse class="st3" cx="210.8" cy="110.2" rx="23.9" ry="26.1"/>
		<ellipse class="st3" cx="323.4" cy="83.2" rx="23.9" ry="26.1"/>
		<g>
			<polygon class="st4" points="159.7,200.9 163.5,199.9 160.8,197.2 			"/>
			<path class="st4" d="M122.8,158c2.3,5.1,6,8.8,10.3,10c0.5,0.1,1,0.2,1.4,0.3c0.5,0.1,1,0.1,1.5,0.1c2.5,0,5-0.9,7.1-2.4
				c0.3-0.2,0.6-0.4,0.9-0.7c4.2-3.6,7.2-10,7.8-17.5c0.1-0.7,0.2-1.5,0.2-2.3l-2.5,2.9c0.2-0.4,0.3-0.9,0.2-1.4
				c0-3.6-3.8-9.7-3.8-9.7c-8.4,6.1-21,0-21,0c-0.9,0.4-1.5,1.2-1.8,2.3c-0.7,2.1-0.6,5-0.5,7.2c0.1,1.5,0.3,2.6,0.3,2.6
				c-0.9-0.7-1.8-1-2.5-1.2C120.6,151.9,121.5,155.2,122.8,158z"/>
			<path class="st4" d="M169.8,189.3c-0.3-0.3-0.8-0.3-1.1,0l-7.4,7.4l2.7,2.7l7.4-7.4c0.3-0.3,0.3-0.8,0-1.1L169.8,189.3z"/>
			<path class="st5" d="M165.7,179.1c0.9,0,1.8,0.1,2.7,0.3c-3.4-5.6-9.1-9.7-15.8-10.9c-0.7-0.1-1.5-0.2-2.2-0.3c0,0,0,0.1,0,0.1
				c0,0,0,0,0,0c0,0.1,0,0.2,0,0.2c0,0,0,0,0,0c-0.1,0.7-0.3,1.5-0.8,2.1c-2.1,4.4-7.8,12.1-11.3,16.7l-0.7-9.6
				c0.9-0.5,1.7-1.2,2.2-2.1c0.4-0.7,0.7-1.5,0.7-2.4c0,0-2.5,1.1-5,1.1c-2.5,0-5-1.1-5-1.1c0,0.8,0.2,1.5,0.6,2.2
				c0.5,1,1.4,1.8,2.3,2.3l-0.7,9.8c-3.3-4.7-9-13-10.7-17.4c-0.3-0.5-0.4-1.1-0.5-1.6c0-0.1,0-0.2,0-0.3c0,0,0-0.1,0-0.1
				c-0.3,0-0.7,0.1-1,0.1c0,0-0.1,0-0.1,0c-11.5,1.6-20.4,11.5-20.4,23.5c0,13.1,10.6,13.1,23.7,13.1h24.4c1.8,0,3.5,0,5.1,0
				c-2.2-2.7-3.5-6.1-3.5-9.9C149.9,186.3,157,179.1,165.7,179.1z"/>
			<path class="st5" d="M118.1,147.7c0,0.2,0,0.3,0,0.5c1.1,13,8.7,23,17.9,23c9.3,0,17-10.3,17.9-23.5c0.1-0.9,0.2-1.9,0.2-2.9
				c0-1-0.1-2-0.2-2.9c-1.3-9.2-8.9-16.2-17.9-16.2c-9.1,0-16.6,7-17.9,16.2c-0.1,0.9-0.2,1.9-0.2,2.9c0,0.4,0,0.8,0,1.2
				C117.9,146.6,118,147.2,118.1,147.7z M122.5,146.9c-0.2-2.1-0.2-5.1,0.5-7.2c0.4-1.1,0.9-2,1.8-2.3c0,0,12.5,6.1,21,0
				c0,0,3.8,6.1,3.8,9.7c0,0.5-0.1,1-0.2,1.4l2.5-2.9c0,0.8-0.1,1.5-0.2,2.3c-0.6,7.5-3.6,13.9-7.8,17.5c-0.3,0.2-0.6,0.5-0.9,0.7
				c-2.1,1.6-4.5,2.4-7.1,2.4c-0.5,0-1,0-1.5-0.1c-0.5-0.1-1-0.2-1.4-0.3c-4.3-1.2-8-4.9-10.3-10c-1.3-2.8-2.2-6.1-2.5-9.7
				c0.7,0.2,1.6,0.5,2.5,1.2C122.8,149.6,122.6,148.5,122.5,146.9z"/>
			<path class="st6" d="M165.7,181.1c-7.6,0-13.9,6.2-13.9,13.9c0,7.6,6.2,13.9,13.9,13.9c7.6,0,13.9-6.2,13.9-13.9
				C179.5,187.3,173.3,181.1,165.7,181.1z M159.7,200.9l1-3.7l2.7,2.7L159.7,200.9z M171.4,192l-7.4,7.4l-2.7-2.7l7.4-7.4
				c0.3-0.3,0.8-0.3,1.1,0l1.5,1.5C171.7,191.1,171.7,191.6,171.4,192z"/>
		</g>
		<g id="stats_10_">
			<g>
				<path class="st7" d="M238.4,82.1c3.1,0,5.7-2.5,5.7-5.7c0-3.1-2.5-5.7-5.7-5.7s-5.7,2.5-5.7,5.7c0,1.4,0.5,2.7,1.4,3.6
					l-7.6,11.5c-0.6-0.2-1.1-0.3-1.8-0.3c-3.1,0-5.7,2.5-5.7,5.7c0,0.2,0,0.5,0.1,0.7l-10.6,4.7c-1-1.2-2.6-2-4.3-2
					c-3.1,0-5.7,2.5-5.7,5.7c0,1.1,0.3,2.1,0.8,2.9l-9.9,11.5V70.7h-2.3h-2.3v56.9h2.3h54.6v-2.3V123h-50.1l10.2-11.8
					c0.7,0.3,1.5,0.5,2.3,0.5c3.1,0,5.7-2.5,5.7-5.7c0-0.2,0-0.4-0.1-0.6l10.6-4.7c1,1.1,2.5,1.9,4.2,1.9c3.1,0,5.7-2.5,5.7-5.7
					c0-1.3-0.4-2.4-1.1-3.4l7.7-11.6C237.4,82,237.9,82.1,238.4,82.1z"/>
			</g>
			<g class="st8">
				<path class="st7" d="M193.1,116.2h-3.7v-2.3h5.6L193.1,116.2z M196.3,107.1h-6.8v-2.3h6.8V98h-6.8v-2.3h6.8v-6.8h-6.8v-2.3h6.8
					v-6.8h-6.8v-2.3h6.8v-6.8h2.3v6.8h6.8v-6.8h2.3v6.8h6.8v-6.8h2.3v6.8h6.8v-6.8h2.3v6.8h6.8v-1.1c0,1.4,0.5,2.7,1.4,3.6l-1.4,2
					v-2.3h-6.8v6.8h3.9l-1.5,2.3h-2.4v2.5c-0.4-0.1-0.7-0.1-1.1-0.1c-0.4,0-0.8,0-1.1,0.1v-2.4h-6.8v6.8h2.4
					c-0.1,0.4-0.1,0.8-0.1,1.2c0,0.2,0,0.5,0.1,0.7l-0.9,0.4h-1.5v0.6l-2.3,1V98h-6.8v3.5c-0.7-0.5-1.4-0.9-2.3-1V98h-6.8v6.8h0.1
					c-0.1,0.4-0.1,0.8-0.1,1.2c0,0.4,0.1,0.7,0.2,1.1h-0.2v2.8l-2.3,2.6V107.1z M216.8,86.6h6.8v-6.8h-6.8V86.6z M207.7,86.6h6.8
					v-6.8h-6.8V86.6z M207.7,95.7h6.8v-6.8h-6.8V95.7z M198.6,86.6h6.8v-6.8h-6.8V86.6z M198.6,95.7h6.8v-6.8h-6.8V95.7z M235,71.9
					v-1.2h-2.3v5.7C232.7,74.6,233.6,73,235,71.9z M235,86.6h6.8v2.3H235v6.8h6.8V98H235v6.8h6.8v2.3H235v6.8h6.8v2.3H235v6.8h-2.3
					v-6.8h-6.8v6.8h-2.3v-6.8h-6.8v6.8h-2.3v-6.8h-6.8v6.8h-2.3v-6.8h-6.8v6.8h-2.3v-5.3l3.3-3.8h5.8v-2.3c0.8-0.2,1.6-0.5,2.3-1
					v3.4h6.8v-6.8h-4.7c0.1-0.4,0.1-0.7,0.1-1.1c0-0.2,0-0.4-0.1-0.6l1.3-0.6h3.3v-1.4l2.3-1v2.5h6.8v-2.4c0.4,0.1,0.7,0.1,1.1,0.1
					c0.4,0,0.8,0,1.1-0.1v2.3h6.8V98h-2.4c0.1-0.4,0.1-0.7,0.1-1.1c0-0.4-0.1-0.8-0.1-1.2h2.4v-6.8h-0.4l2.7-4V86.6z M223.6,107.1
					h-6.8v6.8h6.8V107.1z M232.7,107.1h-6.8v6.8h6.8V107.1z"/>
			</g>
		</g>
		<g>
			<g>
				<path class="st9" d="M334.7,52.8v-1.7c0-1.9-1.5-3.4-3.4-3.4h-5.6c0.5-0.8,0.7-1.9,0.7-3c0-3.5-2.8-6.4-6.3-6.4
					c-3.5,0-6.3,2.9-6.3,6.4c0,1.1,0.3,2.1,0.7,3l-4.6,0c-1.9,0-3.4,1.5-3.4,3.4v1.7h-7.6c-2.9,0-5.2,2.3-5.2,5.2l0,51.2
					c0,2.9,2.3,5.2,5.2,5.2l43.4,0c2.9,0,5.2-2.3,5.2-5.2V58c0-2.9-2.3-5.2-5.2-5.2H334.7z M316.4,44.8c0-2.1,1.7-3.8,3.8-3.8
					c2.1,0,3.8,1.7,3.8,3.8c0,1.2-0.6,2.2-1.4,3h-4.7C316.9,47,316.4,46,316.4,44.8z M342.3,106.2c0,1.8-1.4,3.2-3.2,3.2l-37,0
					c-1.8,0-3.2-1.4-3.2-3.2l0-44.9c0-1.8,1.4-3.2,3.2-3.2l4.4,0c0,1.4,1.1,2.5,2.5,2.5l23.1,0c1.4,0,2.5-1.1,2.5-2.5h4.4
					c1.8,0,3.2,1.4,3.2,3.2L342.3,106.2L342.3,106.2z"/>
				<ellipse class="st9" cx="308.5" cy="69.6" rx="4.5" ry="4.5"/>
				<path class="st9" d="M334,67.1h-15.3c-1.4,0-2.6,1.1-2.6,2.5s1.1,2.5,2.6,2.5l15.3,0c1.4,0,2.6-1.1,2.6-2.5
					C336.6,68.2,335.5,67.1,334,67.1z"/>
				<ellipse class="st9" cx="308.5" cy="82.4" rx="4.5" ry="4.5"/>
				<path class="st9" d="M334,79.8l-15.3,0c-1.4,0-2.6,1.2-2.6,2.6c0,1.4,1.1,2.6,2.6,2.6l15.3,0c1.4,0,2.6-1.2,2.6-2.6
					C336.6,81,335.5,79.8,334,79.8z"/>
				<ellipse class="st9" cx="308.5" cy="96.1" rx="4.5" ry="4.5"/>
				<path class="st9" d="M334,93.5h-15.3c-1.4,0-2.6,1.2-2.6,2.6c0,1.4,1.1,2.6,2.6,2.6h15.3c1.4,0,2.6-1.2,2.6-2.6
					C336.6,94.6,335.5,93.5,334,93.5z"/>
			</g>
		</g>
		<g>
			<path class="st10" d="M415.6,94.6c22.3-6.2,16.3,32.7,24.8,27.1c0.4,2.4-3.3,5.1-6.8,5.6c1.1,1,2.2,1.4,5.1,1
				c-2.8,5-6.8,5.1-9.2,5.2c0.2,0.8,0.8,1.8,2.7,2.2c-1.5,1.6-3.8,2.8-6.5,3.7c0.7,0.9,1.8,1.7,3.2,2.3c7.5,3.1,18,4,17.7,13.3
				c-0.1,2-0.9,4.1-2.1,6.2H443h-0.3c2.7-4.7,1.9-12-3.8-13.9l0,0.1c-1.3,2.4-3,5.4-6.5,7.8c-3.5,2.4-8.7,4.3-16.8,4.3V158
				c4.3,0,8.5-1,12.4-2.8c5.5-2.5,8.2-6.1,8.9-8.4c-3.1-1.1-6.7-1.9-10-3.4c-2.5-1.1-4-3.7-4.7-6.7c-1.9,1.1-4.2,1.8-6.6,1.8v-2
				c5.9-0.1,10.2-4.3,12.5-9.8c4.1-0.7,5.3-9.4,2.1-12.5c-0.8,0.1-1.4,1.2-1.8,2.3c-0.7,2.2-1,3.3-0.9-0.9c0.1-1.2,0-2.5-0.3-3.8
				c-1.2-0.4-2.8-1.1-4.7-1.7c-0.1-1.5-0.7-3.3-3.4-5.9c0.3,1,1.1,2.9,1.3,5.3c-1.6-0.4-3.3-0.6-4.9-0.6V94.6L415.6,94.6z
				 M415.6,161.3h26.3c2.4-4.1,2.3-10.8-2.6-12.9c-1.3,2.4-3.1,5.2-6.4,7.6c-3.6,2.5-8.9,4.4-17.2,4.4V161.3z M398.6,135.7
				c1.9-0.4,2.6-1.4,2.7-2.2c-2.4,0-6.5-0.2-9.2-5.2c2.9,0.4,4,0,5.1-1c-3.5-0.6-7.2-3.3-6.8-5.6c8.5,5.6,2.9-31.7,25-27.1
				c0.1,0,0.1,0,0.2-0.1v14.5c-1.6,0-3.1,0.1-4.6,0.5c0.2-2.4,1-4.2,1.3-5.2c-2.7,2.5-3.3,4.2-3.4,5.7c-2.4,0.7-4.1,1.6-5.4,1.9
				c-0.2,1.2-0.3,2.5-0.3,3.7c0.2,4.2-0.2,3.1-0.9,0.9c-0.4-1.2-0.9-2.3-1.8-2.3c-3.2,3.1-2,11.8,2.1,12.5c2.4,5.6,6.7,9.8,12.7,9.8
				l0.2,0v2l-0.2,0c-2.6,0-4.8-0.7-6.9-1.9c-0.8,3.1-2.4,5.8-5.1,6.8c-3.2,1.2-6.7,2.1-9.6,3.2c0.6,2.1,3.1,5.6,8.2,8.2
				c4.2,2.1,8.9,3.1,13.6,3.1v1.5h0c-8.2,0-13.4-1.8-16.9-4.3c-3.4-2.4-5.2-5.4-6.5-7.8l0-0.1c-5.7,1.9-6.5,9.2-3.8,13.9h-0.6h-1.6
				c-1.2-2.1-2.1-4.2-2.1-6.2c-0.2-9.4,10.3-10.2,17.7-13.3c1.5-0.6,2.5-1.4,3.2-2.3C402.3,138.5,400.1,137.3,398.6,135.7
				L398.6,135.7z M415.6,160.3L415.6,160.3c-8.4,0-13.7-1.9-17.3-4.4c-3.3-2.3-5.2-5.2-6.4-7.6c-4.9,2.1-4.9,8.8-2.5,12.9h26.3
				V160.3z"/>
			<path class="st10" d="M438.2,160.9c-4.6,0-8.4-3.7-8.4-6.6c0-2.9,1.3-4.1,3.3-5.3c-0.1-0.5-0.2-0.9-0.2-1.4
				c0-4.3,4.5-7.8,9.9-7.8c0.9,0,1.8,0.1,2.7,0.3c0-0.2,0-0.4,0-0.6c0-4.3,4.5-7.8,9.9-7.8c5.5,0,9.9,3.5,9.9,7.8c0,0.2,0,0.4,0,0.5
				c0.7-0.1,1.4-0.2,2.2-0.2c5.5,0,9.9,3.5,9.9,7.8c0,0.5-0.1,0.9-0.2,1.4c2,1.2,3.3,2.4,3.3,5.3c0,2.9-3.7,6.6-8.4,6.6h-13.1v-11.5
				h5.3l-9.3-11.6l-9.3,11.6h5.3v11.5H438.2z"/>
		</g>
	</g>
	<g>
		<g>
			
				<radialGradient id="SVGID_7_" cx="306.9023" cy="496.4931" r="158.6265" gradientTransform="matrix(2.4812 0 0 0.6054 -454.7536 166.8658)" gradientUnits="userSpaceOnUse">
				<stop  offset="0" style="stop-color:#000000"/>
				<stop  offset="0.1384" style="stop-color:#000000;stop-opacity:0.8616"/>
				<stop  offset="1" style="stop-color:#000000;stop-opacity:0"/>
			</radialGradient>
			<ellipse class="st11" cx="304.6" cy="465.3" rx="231" ry="56.3"/>
			<g>
				<g>
					<rect x="476" y="276" class="st12" width="24" height="158"/>
					<rect x="476" y="282" class="st13" width="24" height="8"/>
					<rect x="476" y="408" class="st13" width="24" height="8"/>
				</g>
				<g>
					<rect x="443" y="270" class="st14" width="33" height="160"/>
					<rect x="443" y="410" class="st15" width="33" height="6"/>
					<rect x="443" y="401" class="st15" width="33" height="6"/>
					<rect x="443" y="285" class="st15" width="33" height="10"/>
				</g>
				<g>
					<defs>
						<polygon id="SVGID_8_" points="341.3,292.1 606.6,441.5 341.3,441.5 						"/>
					</defs>
					<clipPath id="SVGID_9_">
						<use xlink:href="#SVGID_8_"  style="overflow:visible;"/>
					</clipPath>
					<path class="st16" d="M403.4,255.9v125.4h3.4V378c1.9-1.1,6.9-3.6,15.5-3.6c8.7,0,13.9,1.9,16.3,3.1v3.7h4.3v19.8v6v2.6v6v14.6
						h33.6v-14.6V414h24.1V396v-0.6c0,0.1,0,0.2,0.1,0.3c0.7,9.6,7.6,16.6,17,16.6h2.5c10.3,0,19.2-8.4,19.2-18.4V267.8H535v4.8
						c-2.8,1.2-8,2.8-15.9,2.8c-8.7,0-14-2.5-16-3.6v-4h-2.6v-5.2v-6.9h-24.1v6.9v7.7H443v-14.4c0-10-9.2-18.3-19.5-18.3H421
						C411,237.6,403.4,245.4,403.4,255.9z"/>
				</g>
			</g>
			<g>
				<path class="st17" d="M574,360.7c0,0,3.5,1,4.1,6.1v49.8c0,0-5.4,12.4-14,15.6h-44.7c0,0-8.6-4.8-11.8-16.9v-49.4
					c0,0,0.6-2.9,3.5-5.1H574z"/>
				<path class="st15" d="M510.8,373.1c-12.9-14.1-25.8-1.3-25.8-1.3c-7.9,8-5,24.2,1.6,32c4.6,7.6,24.7,13.1,27.1,0.6
					c-1.7-0.6-2.6-1.5-4.4-1.7c-19.3,6.5-23.4-11.6-23.6-16.9c-0.2-6.1,4.5-12.3,10.8-12.1c0,0,12.1-1.6,15,9.9"/>
				<g>
					<defs>
						<polygon id="SVGID_10_" points="663,460.4 397.7,311.1 663,311.1 						"/>
					</defs>
					<clipPath id="SVGID_11_">
						<use xlink:href="#SVGID_10_"  style="overflow:visible;"/>
					</clipPath>
					<path class="st18" d="M580.1,366.5c-0.8-6.3-5.3-7.6-5.5-7.7c-0.2,0-0.3-0.1-0.5-0.1h-62.8c-0.4,0-0.8,0.1-1.2,0.4
						c-3.4,2.6-4.2,6.1-4.2,6.2c0,0.1,0,0.3,0,0.4v3.1c-11-6.7-20.8,2.9-20.8,2.9c-7.9,8-5,24.2,1.6,32c3,4.9,12.3,8.9,19.2,7.8v3.6
						c0,0.2,0,0.3,0.1,0.5c3.4,12.8,12.3,17.9,12.7,18.1c0.3,0.2,0.6,0.2,0.9,0.2h44.7c0.2,0,0.5,0,0.7-0.1
						c9.3-3.4,14.9-16.1,15.1-16.7c0.1-0.2,0.2-0.5,0.2-0.8v-49.8C580.1,366.7,580.1,366.6,580.1,366.5z M485.7,385.9
						c-0.2-6.1,4.5-12.3,10.8-12.1c0,0,4.9-0.6,9.3,1.9v28.1C489.5,407,485.9,390.9,485.7,385.9z"/>
				</g>
				<polygon class="st4" points="617.8,350 617.8,446.4 449.1,349.6 				"/>
			</g>
			<g>
				<g>
					<g>
						<g>
							<path class="st19" d="M185.8,437H63.5c-9.2,0-17.5-8.8-17.5-18v-2.5c0-9.2,8.4-15.5,17.5-15.5h122.3c0,0-4.1,6-4.1,17.2
								C181.7,431,185.8,437,185.8,437z"/>
						</g>
						<g>
							<path class="st20" d="M65.1,437.8c-9.8,0-18.1-8.3-18.1-18.4v-2.5c0-9.9,8.5-17.9,18.6-17.9c0.9,0,1.7,0.7,1.7,1.6
								c0,0.9-1,1.6-1.9,1.6c-8.3,0-15.4,6.6-15.4,14.7v2.5c0,8.4,6.9,15.2,15,15.2c0.9,0,1.7,0.7,1.7,1.6
								C66.6,437.1,66,437.8,65.1,437.8z"/>
						</g>
						<g>
							<path class="st15" d="M189,438H63.1c-10,0-19.1-8.7-19.1-19v-2.5c0-9.9,8.6-16.5,19.1-16.5H189v2H63.1
								c-8.5,0-16.1,6.7-16.1,14.5v2.5c0,8.3,8,15,16.1,15H189V438z"/>
						</g>
					</g>
					<line class="st21" x1="65.2" y1="427.1" x2="179.4" y2="427.1"/>
					<line class="st21" x1="63.6" y1="430.3" x2="172.2" y2="430.3"/>
					<line class="st21" x1="75.8" y1="423.1" x2="178.1" y2="423.1"/>
					<line class="st21" x1="72.1" y1="414.8" x2="154.6" y2="414.8"/>
					<line class="st21" x1="59.9" y1="410.1" x2="178.1" y2="410.1"/>
					<line class="st21" x1="70.4" y1="406.3" x2="178.1" y2="406.3"/>
				</g>
				<g>
					<rect x="43" y="375" class="st14" width="158" height="25"/>
					<rect x="186" y="375" class="st13" width="8" height="25"/>
					<rect x="61" y="375" class="st13" width="8" height="25"/>
				</g>
				<g>
					<g>
						<g>
							<path class="st19" d="M78.4,339h122.3c9.2,0,16.3-7.5,16.3-16.7v-2.5c0-9.2-7.1-14.8-16.3-14.8H78.4c0,0,4.1,5,4.1,16.2
								C82.5,334,78.4,339,78.4,339z"/>
						</g>
						<g>
							<path class="st20" d="M199,341.2c9.8,0,18-8.3,18-18.4v-2.5c0-9.9-8.4-17.9-18.5-17.9c-0.9,0-1.7,0.7-1.7,1.6
								c0,0.9,0.4,1.6,1.3,1.6c8.3,0,14.8,6.6,14.8,14.7v2.5c0,8.4-6.3,15.2-14.4,15.2c-0.9,0-1.4,0.7-1.4,1.6
								C197.2,340.4,198.1,341.2,199,341.2z"/>
						</g>
						<g>
							<path class="st22" d="M75,342h126.1c10,0,17.9-9.4,17.9-19.7v-2.5c0-9.9-7.3-17.8-17.9-17.8H75v4h126.1
								c8.5,0,15.9,6,15.9,13.8v2.5c0,8.3-7.8,15.7-15.9,15.7H75V342z"/>
						</g>
					</g>
					<line class="st21" x1="199" y1="330.4" x2="84.8" y2="330.4"/>
					<line class="st21" x1="200.6" y1="333.6" x2="92" y2="333.6"/>
					<line class="st21" x1="188.4" y1="326.4" x2="86.1" y2="326.4"/>
					<line class="st21" x1="192.1" y1="318.1" x2="109.6" y2="318.1"/>
					<line class="st21" x1="204.4" y1="313.4" x2="86.1" y2="313.4"/>
					<line class="st21" x1="193.8" y1="309.6" x2="86.1" y2="309.6"/>
				</g>
				<g>
					<rect x="26" y="342" class="st23" width="160" height="33"/>
					<rect x="41" y="342" class="st15" width="6" height="33"/>
					<rect x="50" y="342" class="st15" width="6" height="33"/>
					<rect x="161" y="342" class="st15" width="11" height="33"/>
				</g>
				<g>
					<defs>
						<polygon id="SVGID_12_" points="214.3,447.5 -51,298.2 214.3,298.2 						"/>
					</defs>
					<clipPath id="SVGID_13_">
						<use xlink:href="#SVGID_12_"  style="overflow:visible;"/>
					</clipPath>
					<path class="st24" d="M201.1,302.2H75.7v3.4H79c1.1,1.9,3.6,6.9,3.6,15.5c0,8.7-1.9,13.9-3.1,16.3h-3.7v4.3H55.9h-6h-2.6h-6
						H26.6v33.6h14.6H43v24.1H61h0.6c-0.1,0-0.2,0-0.3,0.1c-9.6,0.7-16.6,7.6-16.6,17v2.5c0,10.3,8.4,19.2,18.4,19.2h126.2v-4.3
						h-4.8c-1.2-2.8-2.8-8-2.8-15.9c0-8.7,2.5-14,3.6-16h4v-2.6h5.2h6.9v-24.1h-6.9h-7.7v-33.6h14.4c10,0,18.3-9.2,18.3-19.5v-2.5
						C219.4,309.9,211.7,302.2,201.1,302.2z"/>
				</g>
			</g>
			<g>
				<rect x="258" y="424.1" class="st25" width="93.1" height="20.8"/>
				<rect x="172.7" y="262" class="st3" width="265.3" height="149.4"/>
				<g>
					<g>
						<path class="st26" d="M332.4,346.9h0.6l0.6,7.4h-5.7l0.6-7.4h0.6c-0.3-0.3-0.4-0.7-0.4-1.2c0-0.9,0.6-1.6,1.5-1.9v-10.5h1.4
							v10.5c0.8,0.3,1.3,1,1.3,1.8C332.8,346.2,332.6,346.6,332.4,346.9L332.4,346.9z"/>
						<path class="st26" d="M284.5,343.6l18.2,9.7l19.2-9.7c0,0-0.3-3.2-2.5-10.8h13.5V329h-57.3v3.8H287L284.5,343.6z"/>
					</g>
					<g>
						<path class="st12" d="M287.1,383c-0.5-1.8-4.6-4-9.8-4.3c-0.3,0-0.5,0-0.8,0c-3.6,0-6.1,1.3-7,1.9c1.2,1.4,2.9,2.2,2.9,2.2
							c3,1.5,6,2.3,8.8,2.3c2.4,0,4-0.6,4.5-0.8C287,383.7,287.1,383.2,287.1,383z"/>
						<path class="st12" d="M287.6,372.2c-1.8-2.8-4.2-4-5.2-4.4c-0.5,1.5-0.3,3-0.3,3c0.8,6.8,4.6,9.3,5.3,9.7
							c0.4,0.3,0.9,0.4,1.2,0.4c0.2,0,0.4-0.1,0.4-0.1C290.2,379.6,289.9,375.8,287.6,372.2z"/>
						<path class="st12" d="M260.4,371.6c5,4.6,9.6,5.1,11.3,5.1c0.4,0,0.7,0,1-0.1c1.3-0.2,1.7-0.7,1.7-0.8c0.1-1.9-3.1-5.1-8-6.8
							c-1.6-0.5-3.2-0.8-4.8-0.8c-1.5,0-2.7,0.2-3.3,0.4C259.1,370.3,260.4,371.5,260.4,371.6z"/>
						<path class="st12" d="M275.5,373.5c0.6,0.7,1.1,0.8,1.3,0.8c0.1,0,0.1,0,0.1,0c1.5-0.8,2.4-4.5,1.3-8.6
							c-0.8-3.2-2.7-5-3.5-5.6c-0.9,1.3-1.2,2.8-1.2,2.8C272.1,369.5,274.9,372.9,275.5,373.5z"/>
						<path class="st12" d="M260.4,365.1c0.2,0,0.4,0,0.6,0c0.9,0,1.2-0.3,1.3-0.4c0.7-1.8-1.5-5.7-5.6-8.6
							c-3.3-2.3-6.4-2.5-7.6-2.5c0,0,0,0,0,0c0.2,1.8,1.1,3.3,1.1,3.3C254.2,363.9,259.4,365,260.4,365.1z"/>
						<path class="st12" d="M264,362.8c0.5,1,1,1.1,1.2,1.1c1.7-0.4,3.7-3.7,3.9-8c0.2-3.2-1.1-5.4-1.7-6.3c-1.3,1-2,2.3-2,2.4
							C262,358,263.7,362.1,264,362.8z"/>
						<path class="st12" d="M254.5,350.5c0.4,0.1,0.8,0.2,1.2,0.2c0.5,0,0.8-0.2,0.8-0.2c1-1.6-0.2-5.8-3.6-9.5
							c-2.7-2.9-5.8-3.7-7-3.9c-0.2,1.8,0.3,3.5,0.3,3.5C248.7,348.1,253.6,350.2,254.5,350.5z"/>
						<path class="st12" d="M258.5,349c0.3,1,0.8,1.2,0.9,1.3c1.7-0.1,4.4-2.9,5.6-7.1c0.9-3.1,0.1-5.5-0.3-6.5
							c-1.5,0.8-2.5,1.9-2.5,1.9C257.6,343.9,258.3,348.2,258.5,349z"/>
						<path class="st12" d="M251.1,334.8c0.7,0.6,1.2,0.7,1.6,0.7c0.2,0,0.3,0,0.3,0c1.6-1.2,2-5.5,0.1-10.1c-1.5-3.6-4-5.3-5.1-5.9
							c-0.8,1.6-1,3.4-1,3.4C246.5,330.7,250.3,334.2,251.1,334.8z"/>
						<path class="st12" d="M265.8,325.2c-1.7,0.2-3,1-3.1,1c-6.3,3.5-7.1,7.7-7.3,8.6c-0.1,1,0.3,1.4,0.3,1.4
							c0.2,0.1,0.4,0.1,0.6,0.1c1.8,0,4.9-1.7,7.3-4.9C265.6,328.7,265.8,326.2,265.8,325.2z"/>
						<path class="st12" d="M253.9,320.4c0.7,0.9,1.3,1,1.6,1c0,0,0,0,0.1,0c1.8-0.8,3.4-4.9,2.7-9.8c-0.5-3.8-2.5-6.1-3.4-6.9
							c-1.3,1.4-1.9,3.1-1.9,3.1C250.6,315.3,253.3,319.6,253.9,320.4z"/>
						<path class="st12" d="M269.9,314.3c-1.3,0-2.4,0.3-2.4,0.3c-7,1.9-9,5.9-9.3,6.6c-0.4,0.9-0.1,1.4-0.1,1.5
							c0.3,0.2,0.8,0.3,1.4,0.3c2.1,0,5.1-1.3,7.5-3.2c2.6-2.1,3.4-4.4,3.7-5.5C270.4,314.3,270.1,314.3,269.9,314.3v-0.3l0,0V314.3
							z"/>
						<path class="st12" d="M260.1,305.9c0.4,1.2,1.1,1.4,1.2,1.4c2-0.2,4.8-3.8,5.8-8.6c0.7-3.7-0.5-6.5-1-7.5
							c-1.7,1-2.8,2.4-2.8,2.5C258.5,300.2,259.8,305,260.1,305.9z"/>
						<path class="st12" d="M278,304.9c-1.5-0.6-3.1-0.6-3.1-0.6c-0.1,0-0.3,0-0.4,0c-7,0-10,3.1-10.6,3.7c-0.7,0.8-0.6,1.3-0.5,1.4
							c0.6,0.6,1.9,1,3.5,1c1.8,0,3.9-0.4,5.9-1.2C275.8,307.8,277.4,305.8,278,304.9z"/>
						<path class="st12" d="M271,295.2c0.1,1.3,0.7,1.6,0.8,1.6c0.1,0,0.1,0,0.2,0c2,0,5.4-2.8,7.4-7.3c1.5-3.5,1-6.4,0.7-7.5
							c-1.9,0.6-3.3,1.8-3.3,1.9C270.8,289.3,270.9,294.3,271,295.2z"/>
						<path class="st12" d="M281.5,296c-4.3,0-6.6,1.5-7.2,2c-0.8,0.6-0.8,1.1-0.8,1.3c0.6,0.9,2.8,1.9,6,1.9c1.1,0,2.2-0.1,3.2-0.3
							c3.3-0.6,5.3-2.3,6.1-3.1c-1.4-0.9-2.9-1.2-2.9-1.2C284.3,296.1,282.9,296,281.5,296l0-0.3h0L281.5,296z"/>
						<path class="st12" d="M284.9,292c2,0,5.5-1.2,8.6-4c2.9-2.6,3.8-5.4,4-6.5c-0.2,0-0.4,0-0.6,0c-1.7,0-3.1,0.4-3.1,0.4
							c-8,2.5-10,7.1-10.4,8c-0.4,1.2-0.1,1.7,0,1.8C283.7,291.9,284.3,292,284.9,292z"/>
						<path class="st12" d="M297.7,385.8c-1.9,0-3.9,0.3-5.9,1c-3.8,1.3-5.7,3.5-6.5,4.5c1.7,0.8,3.6,1,3.6,1
							c0.7,0.1,1.5,0.1,2.2,0.1c6.9,0,10.2-3,10.8-3.6c0.9-0.9,0.8-1.5,0.7-1.6C301.9,386.3,300,385.8,297.7,385.8L297.7,385.8v-0.3
							l0,0V385.8z"/>
						<path class="st12" d="M292,374.9c0.2,1.5,0.9,2.8,0.9,2.8c3.5,6,8,7,8.9,7.1c0.2,0,0.4,0,0.6,0c0.7,0,1-0.2,1.1-0.3
							c0.6-1.5-1.3-4.9-4.9-7.4C295.8,375.1,293.1,374.9,292,374.9z"/>
						<path class="st12" d="M322,383c0,0.1,0.2,0.7,1.4,1.3c0.6,0.2,2.1,0.8,4.5,0.8c2.8,0,5.8-0.8,8.8-2.3c0,0,1.6-0.8,2.9-2.2
							c-1-0.6-3.5-1.9-7-1.9c-0.3,0-0.5,0-0.8,0C326.6,379,322.5,381.2,322,383z"/>
						<path class="st12" d="M320.1,380.8c0.1,0,0.2,0.1,0.4,0.1c0.4,0,0.8-0.1,1.2-0.4c0.8-0.4,4.5-2.9,5.3-9.7c0,0,0.1-1.5-0.3-3
							c-1,0.4-3.4,1.6-5.2,4.4C319.3,375.8,318.9,379.6,320.1,380.8z"/>
						<path class="st12" d="M347.4,368.2c-1.6,0-3.2,0.3-4.8,0.8c-4.9,1.7-8.1,4.9-8,6.8c0.1,0.1,0.4,0.7,1.7,0.8
							c0.3,0,0.6,0.1,1,0.1c1.8,0,6.4-0.5,11.3-5.1c0,0,1.3-1.2,2.1-2.9C350.1,368.5,348.9,368.2,347.4,368.2z"/>
						<path class="st12" d="M335.6,362.8c0,0-0.3-1.5-1.2-2.8c-0.8,0.7-2.7,2.5-3.5,5.6c-1,4.1-0.1,7.8,1.3,8.6c0,0,0.1,0,0.1,0
							c0.2,0,0.7-0.1,1.3-0.8C334.2,372.9,337,369.5,335.6,362.8z"/>
						<path class="st12" d="M359,357c0,0,0.9-1.5,1.1-3.3c0,0,0,0,0,0c-1.2,0-4.4,0.2-7.6,2.5c-4.2,2.9-6.3,6.8-5.6,8.6
							c0.1,0.1,0.4,0.4,1.3,0.4c0.2,0,0.4,0,0.6,0C349.7,365,354.9,363.9,359,357z"/>
						<path class="st12" d="M340,355.9c0.2,4.2,2.2,7.6,3.9,8c0.1,0,0.7-0.1,1.2-1.1c0.4-0.7,2-4.8-1.3-10.8c0,0-0.8-1.3-2-2.3
							C341.1,350.5,339.9,352.7,340,355.9z"/>
						<path class="st12" d="M362.9,340.6c0,0,0.5-1.7,0.3-3.5c-1.2,0.2-4.3,1.1-7,3.9c-3.4,3.6-4.7,7.9-3.6,9.5
							c0.1,0.1,0.3,0.2,0.8,0.2c0.3,0,0.7-0.1,1.2-0.2C355.5,350.2,360.4,348.1,362.9,340.6z"/>
						<path class="st12" d="M344.1,343.2c1.1,4.1,3.8,7,5.6,7.1c0.1,0,0.6-0.2,0.9-1.3c0.2-0.8,1-5.1-3.7-10.4c0,0-1-1.2-2.5-1.9
							C344,337.7,343.3,340.1,344.1,343.2z"/>
						<path class="st12" d="M356.1,335.4c0,0,0.2,0,0.3,0c0.3,0,0.9-0.1,1.6-0.7c0.8-0.6,4.6-4.1,4.1-12c0,0-0.1-1.8-1-3.4
							c-1,0.6-3.6,2.4-5.1,5.9C354.1,329.9,354.6,334.3,356.1,335.4z"/>
						<path class="st12" d="M352.7,336.2c0.2,0,0.4,0,0.6-0.1c0.1-0.1,0.5-0.4,0.3-1.4c-0.1-0.8-1-5.1-7.3-8.6c0,0-1.4-0.7-3.1-1
							c0,1.1,0.2,3.5,2.1,6.2C347.8,334.5,351,336.2,352.7,336.2z"/>
						<path class="st12" d="M353.6,321.4C353.6,321.4,353.6,321.4,353.6,321.4c0.3,0,0.9-0.1,1.6-1c0.6-0.8,3.3-5.1,0.9-12.5
							c0,0-0.6-1.7-1.9-3.1c-0.8,0.8-2.9,3.1-3.4,6.9C350.2,316.5,351.7,320.6,353.6,321.4z"/>
						<path class="st12" d="M342.1,319.8c2.4,1.9,5.3,3.2,7.5,3.2c0.6,0,1.1-0.1,1.4-0.3c0.1-0.1,0.3-0.5-0.1-1.5
							c-0.3-0.8-2.3-4.7-9.3-6.6c0,0-1.1-0.3-2.4-0.3c-0.3,0-0.5,0-0.8,0C338.7,315.4,339.6,317.8,342.1,319.8z"/>
						<path class="st12" d="M342,298.8c0.9,4.8,3.8,8.4,5.8,8.6c0.1,0,0.8-0.2,1.2-1.4c0.3-0.9,1.6-5.8-3.2-12.2
							c0,0-1.1-1.5-2.8-2.5C342.5,292.3,341.3,295.1,342,298.8z"/>
						<path class="st12" d="M336.4,309.1c1.9,0.8,4,1.2,5.9,1.2c1.7,0,3-0.4,3.5-1c0-0.1,0.1-0.6-0.5-1.4c-0.5-0.6-3.6-3.7-10.6-3.7
							c-0.1,0-0.3,0-0.4,0c0,0-1.6,0.1-3.1,0.6C331.7,305.8,333.3,307.8,336.4,309.1z"/>
						<path class="st12" d="M329.7,289.6c2,4.5,5.4,7.3,7.4,7.3c0.1,0,0.1,0,0.2,0c0.1-0.1,0.7-0.4,0.8-1.6
							c0.1-0.9,0.3-5.9-5.9-11.3c0,0-1.4-1.2-3.3-1.9C328.7,283.2,328.1,286.1,329.7,289.6z"/>
						<path class="st12" d="M326.5,300.8c1.1,0.2,2.2,0.3,3.2,0.3c3.2,0,5.4-0.9,6-1.9c0-0.1,0-0.6-0.8-1.3c-0.6-0.5-2.9-2-7.2-2
							c-1.4,0-2.9,0.2-4.4,0.5c0,0-1.5,0.4-2.9,1.2C321.2,298.5,323.1,300.2,326.5,300.8z"/>
						<path class="st12" d="M315.6,288.1c3.1,2.7,6.6,4,8.6,4c0.6,0,1.1-0.1,1.5-0.3c0.1-0.1,0.5-0.6,0-1.8c-0.3-0.9-2.4-5.5-10.4-8
							c0,0-1.4-0.4-3.1-0.4c-0.2,0-0.4,0-0.6,0C311.9,282.7,312.7,285.5,315.6,288.1z"/>
						<path class="st12" d="M318,392.4c0.7,0,1.4,0,2.2-0.1c0,0,1.9-0.2,3.6-1c-0.7-1-2.7-3.3-6.5-4.5c-2-0.7-4-1-5.9-1
							c-2.4,0-4.2,0.5-4.9,1.4c0,0.1-0.2,0.7,0.7,1.6C307.8,389.4,311.1,392.4,318,392.4z"/>
						<path class="st12" d="M305.7,384.5c0.1,0.1,0.4,0.3,1.1,0.3c0.2,0,0.4,0,0.6,0c0.9-0.1,5.4-1.1,8.9-7.1c0,0,0.7-1.3,0.9-2.8
							c-1.1,0-3.8,0.3-6.6,2.2C306.9,379.6,305.1,383,305.7,384.5z"/>
					</g>
					<g>
						<g>
							<path class="st12" d="M185.9,355.6v-5.5h0.7v4.9h2.7v0.7H185.9z"/>
							<path class="st12" d="M190.1,352.9c0-0.9,0.2-1.6,0.7-2.2c0.5-0.5,1.1-0.8,1.9-0.8c0.5,0,1,0.1,1.4,0.4
								c0.4,0.2,0.7,0.6,0.9,1c0.2,0.4,0.3,0.9,0.3,1.5c0,0.6-0.1,1.1-0.3,1.5s-0.5,0.8-1,1s-0.9,0.3-1.3,0.3c-0.5,0-1-0.1-1.4-0.4
								c-0.4-0.3-0.7-0.6-0.9-1C190.2,353.8,190.1,353.4,190.1,352.9z M190.8,352.9c0,0.7,0.2,1.2,0.5,1.6c0.4,0.4,0.8,0.6,1.4,0.6
								c0.6,0,1-0.2,1.4-0.6c0.4-0.4,0.5-0.9,0.5-1.7c0-0.5-0.1-0.8-0.2-1.2c-0.2-0.3-0.4-0.6-0.7-0.8c-0.3-0.2-0.6-0.3-1-0.3
								c-0.5,0-1,0.2-1.3,0.5C191,351.5,190.8,352.1,190.8,352.9z"/>
							<path class="st12" d="M198.9,353.4v-0.7l2.3,0v2.1c-0.4,0.3-0.7,0.5-1.1,0.6c-0.4,0.1-0.8,0.2-1.2,0.2c-0.5,0-1-0.1-1.5-0.3
								s-0.8-0.6-1-1s-0.3-0.9-0.3-1.5c0-0.5,0.1-1,0.3-1.5c0.2-0.5,0.6-0.8,1-1c0.4-0.2,0.9-0.3,1.5-0.3c0.4,0,0.8,0.1,1.1,0.2
								c0.3,0.1,0.6,0.3,0.8,0.5s0.3,0.5,0.4,0.9l-0.7,0.2c-0.1-0.3-0.2-0.5-0.3-0.7c-0.1-0.2-0.3-0.3-0.5-0.4
								c-0.2-0.1-0.5-0.1-0.8-0.1c-0.3,0-0.6,0.1-0.9,0.2c-0.2,0.1-0.4,0.2-0.6,0.4s-0.3,0.3-0.3,0.5c-0.1,0.3-0.2,0.7-0.2,1.1
								c0,0.5,0.1,0.9,0.3,1.2c0.2,0.3,0.4,0.6,0.7,0.7c0.3,0.2,0.7,0.2,1,0.2c0.3,0,0.6-0.1,0.9-0.2c0.3-0.1,0.5-0.3,0.7-0.4v-1
								H198.9z"/>
							<path class="st12" d="M202.5,355.6v-5.5h0.7v5.5H202.5z"/>
							<path class="st12" d="M204.5,355.6v-5.5h0.8l2.9,4.4v-4.4h0.7v5.5h-0.8l-2.9-4.4v4.4H204.5z"/>
						</g>
						<g>
							<path class="st12" d="M186,379.7v-5.5h2.1c0.4,0,0.6,0,0.8,0.1c0.3,0,0.5,0.1,0.7,0.3c0.2,0.1,0.3,0.3,0.4,0.5
								c0.1,0.2,0.2,0.5,0.2,0.8c0,0.5-0.1,0.9-0.4,1.2c-0.3,0.3-0.8,0.5-1.6,0.5h-1.4v2.3H186z M186.7,376.8h1.4
								c0.5,0,0.8-0.1,1-0.3c0.2-0.2,0.3-0.4,0.3-0.7c0-0.2-0.1-0.4-0.2-0.6c-0.1-0.2-0.3-0.3-0.5-0.3c-0.1,0-0.4,0-0.7,0h-1.4
								V376.8z"/>
							<path class="st12" d="M190,379.7l2.1-5.5h0.8l2.3,5.5h-0.8l-0.6-1.7h-2.3l-0.6,1.7H190z M191.6,377.4h1.9l-0.6-1.5
								c-0.2-0.5-0.3-0.8-0.4-1.1c-0.1,0.4-0.2,0.7-0.3,1.1L191.6,377.4z"/>
							<path class="st12" d="M195.5,377.9l0.7-0.1c0,0.3,0.1,0.5,0.2,0.7c0.1,0.2,0.3,0.3,0.6,0.4c0.3,0.1,0.5,0.2,0.9,0.2
								c0.3,0,0.5,0,0.7-0.1c0.2-0.1,0.4-0.2,0.5-0.3c0.1-0.1,0.2-0.3,0.2-0.5c0-0.2-0.1-0.3-0.2-0.5c-0.1-0.1-0.3-0.2-0.5-0.3
								c-0.1-0.1-0.5-0.1-1-0.3c-0.5-0.1-0.9-0.2-1.1-0.3c-0.3-0.1-0.5-0.3-0.6-0.5c-0.1-0.2-0.2-0.4-0.2-0.7c0-0.3,0.1-0.5,0.2-0.8
								c0.2-0.2,0.4-0.4,0.7-0.6c0.3-0.1,0.6-0.2,1-0.2c0.4,0,0.8,0.1,1.1,0.2c0.3,0.1,0.6,0.3,0.7,0.6c0.2,0.3,0.3,0.5,0.3,0.9
								l-0.7,0.1c0-0.4-0.2-0.6-0.4-0.8c-0.2-0.2-0.5-0.3-1-0.3c-0.4,0-0.8,0.1-1,0.2c-0.2,0.2-0.3,0.4-0.3,0.6
								c0,0.2,0.1,0.4,0.2,0.5c0.1,0.1,0.5,0.3,1.1,0.4c0.6,0.1,1,0.3,1.2,0.4c0.3,0.1,0.6,0.3,0.7,0.6c0.2,0.2,0.2,0.5,0.2,0.8
								c0,0.3-0.1,0.6-0.3,0.8s-0.4,0.5-0.7,0.6c-0.3,0.1-0.7,0.2-1.1,0.2c-0.5,0-0.9-0.1-1.3-0.2c-0.3-0.1-0.6-0.4-0.8-0.7
								C195.6,378.6,195.5,378.3,195.5,377.9z"/>
							<path class="st12" d="M200.6,377.9l0.7-0.1c0,0.3,0.1,0.5,0.2,0.7c0.1,0.2,0.3,0.3,0.6,0.4c0.3,0.1,0.5,0.2,0.9,0.2
								c0.3,0,0.5,0,0.7-0.1c0.2-0.1,0.4-0.2,0.5-0.3c0.1-0.1,0.2-0.3,0.2-0.5c0-0.2-0.1-0.3-0.2-0.5c-0.1-0.1-0.3-0.2-0.5-0.3
								c-0.1-0.1-0.5-0.1-1-0.3c-0.5-0.1-0.9-0.2-1.1-0.3c-0.3-0.1-0.5-0.3-0.6-0.5c-0.1-0.2-0.2-0.4-0.2-0.7c0-0.3,0.1-0.5,0.2-0.8
								c0.2-0.2,0.4-0.4,0.7-0.6c0.3-0.1,0.6-0.2,1-0.2c0.4,0,0.8,0.1,1.1,0.2c0.3,0.1,0.6,0.3,0.7,0.6c0.2,0.3,0.3,0.5,0.3,0.9
								l-0.7,0.1c0-0.4-0.2-0.6-0.4-0.8c-0.2-0.2-0.5-0.3-1-0.3c-0.4,0-0.8,0.1-1,0.2c-0.2,0.2-0.3,0.4-0.3,0.6
								c0,0.2,0.1,0.4,0.2,0.5c0.1,0.1,0.5,0.3,1.1,0.4c0.6,0.1,1,0.3,1.2,0.4c0.3,0.1,0.6,0.3,0.7,0.6c0.2,0.2,0.2,0.5,0.2,0.8
								c0,0.3-0.1,0.6-0.3,0.8s-0.4,0.5-0.7,0.6c-0.3,0.1-0.7,0.2-1.1,0.2c-0.5,0-0.9-0.1-1.3-0.2c-0.3-0.1-0.6-0.4-0.8-0.7
								C200.8,378.6,200.7,378.3,200.6,377.9z"/>
							<path class="st12" d="M207,379.7l-1.5-5.5h0.8l0.8,3.6c0.1,0.4,0.2,0.8,0.2,1.1c0.1-0.6,0.2-0.9,0.2-1l1.1-3.7h0.9l0.8,2.8
								c0.2,0.7,0.3,1.3,0.4,2c0.1-0.4,0.2-0.8,0.3-1.2l0.9-3.6h0.7l-1.5,5.5h-0.7l-1.2-4.2c-0.1-0.4-0.2-0.6-0.2-0.7
								c-0.1,0.3-0.1,0.5-0.2,0.7l-1.2,4.2H207z"/>
							<path class="st12" d="M213.2,377c0-0.9,0.2-1.6,0.7-2.2c0.5-0.5,1.1-0.8,1.9-0.8c0.5,0,1,0.1,1.4,0.4c0.4,0.2,0.7,0.6,0.9,1
								c0.2,0.4,0.3,0.9,0.3,1.5c0,0.6-0.1,1.1-0.3,1.5s-0.5,0.8-1,1s-0.9,0.3-1.3,0.3c-0.5,0-1-0.1-1.4-0.4c-0.4-0.3-0.7-0.6-0.9-1
								C213.3,377.9,213.2,377.5,213.2,377z M213.9,377c0,0.7,0.2,1.2,0.5,1.6c0.4,0.4,0.8,0.6,1.4,0.6c0.6,0,1-0.2,1.4-0.6
								c0.4-0.4,0.5-0.9,0.5-1.7c0-0.5-0.1-0.8-0.2-1.2c-0.2-0.3-0.4-0.6-0.7-0.8c-0.3-0.2-0.6-0.3-1-0.3c-0.5,0-1,0.2-1.3,0.5
								C214.1,375.6,213.9,376.2,213.9,377z"/>
							<path class="st12" d="M219.4,379.7v-5.5h2.5c0.5,0,0.9,0,1.1,0.1c0.3,0.1,0.5,0.3,0.6,0.5s0.2,0.5,0.2,0.8
								c0,0.4-0.1,0.7-0.4,1c-0.3,0.3-0.6,0.4-1.2,0.5c0.2,0.1,0.3,0.2,0.4,0.3c0.2,0.2,0.4,0.4,0.6,0.7l1,1.5h-0.9l-0.7-1.2
								c-0.2-0.3-0.4-0.6-0.5-0.8c-0.1-0.2-0.3-0.3-0.4-0.4c-0.1-0.1-0.2-0.1-0.3-0.1c-0.1,0-0.2,0-0.4,0h-0.9v2.5H219.4z
								 M220.1,376.6h1.6c0.3,0,0.6,0,0.8-0.1c0.2-0.1,0.3-0.2,0.4-0.3c0.1-0.2,0.1-0.3,0.1-0.5c0-0.3-0.1-0.5-0.3-0.6
								c-0.2-0.2-0.5-0.3-0.9-0.3h-1.8V376.6z"/>
							<path class="st12" d="M225,379.7v-5.5h1.9c0.4,0,0.8,0,1,0.1c0.3,0.1,0.6,0.2,0.8,0.4c0.3,0.2,0.5,0.6,0.7,0.9
								s0.2,0.8,0.2,1.3c0,0.4,0,0.8-0.1,1.1c-0.1,0.3-0.2,0.6-0.4,0.8s-0.3,0.4-0.5,0.5c-0.2,0.1-0.4,0.2-0.7,0.3s-0.6,0.1-0.9,0.1
								H225z M225.7,379h1.2c0.4,0,0.7,0,0.9-0.1c0.2-0.1,0.4-0.2,0.5-0.3c0.2-0.2,0.3-0.4,0.4-0.7c0.1-0.3,0.1-0.6,0.1-1.1
								c0-0.6-0.1-1-0.3-1.3c-0.2-0.3-0.4-0.5-0.7-0.6c-0.2-0.1-0.5-0.1-0.9-0.1h-1.2V379z"/>
						</g>
						<rect x="186.2" y="361.2" class="st27" width="39.6" height="7.3"/>
						<rect x="186.2" y="385.3" class="st27" width="39.6" height="7.3"/>
						<line class="st27" x1="419.9" y1="394.9" x2="377.4" y2="394.9"/>
						<line class="st27" x1="419.8" y1="388.3" x2="371.1" y2="388.3"/>
						<line class="st27" x1="419.9" y1="381.7" x2="380.8" y2="381.7"/>
						<line class="st28" x1="187.6" y1="287.7" x2="230.1" y2="287.7"/>
						<line class="st29" x1="187" y1="278.4" x2="212" y2="278.4"/>
					</g>
				</g>
				<polygon class="st30" points="438,411.4 172.7,262 438,262 				"/>
				<g id="Laptop_1_">
					<g>
						<path class="st31" d="M426.2,246.3H182.9c-15.5,0-28.1,12.6-28.1,28.1V396c0,15.5,12.6,28.1,28.1,28.1h243.3
							c15.5,0,28.1-12.6,28.1-28.1V274.4C454.3,258.9,441.7,246.3,426.2,246.3z M435.6,396c0,5.2-4.2,9.4-9.4,9.4H182.9
							c-5.2,0-9.4-4.2-9.4-9.4V274.4c0-5.2,4.2-9.4,9.4-9.4h243.3c5.2,0,9.4,4.2,9.4,9.4V396z"/>
					</g>
				</g>
			</g>
			<g>
				<path class="st32" d="M469.1,432.3c17.8-3.3,81.4-7.7,91.3-6.9c9.9,0.8,12.7,13.6,13.3,18.8c0.7,5.2-4.9,7.6-6-1.2
					c-1.1-8.9-2.5-13.6-8.2-13.2c-5.8,0.4-83.5,8.2-88.9,8.9C465.3,439.3,465.5,432.6,469.1,432.3z"/>
				<path class="st32" d="M571.5,415.8c-17.9,2.5-80,18.2-89.4,22.1c-9.3,3.9-8.8,17-8.1,22.3c0.7,5.2,6.6,5.8,5.4-3.1
					c-1.1-8.9-1-13.8,4.6-15.3c5.6-1.5,82.2-18.4,87.5-19.4C576.9,421.4,575,415,571.5,415.8z"/>
				<path class="st32" d="M552.8,456c0.5-0.1,1-0.2,1.5-0.3c14.2-3.5,16.7-10.5,17.1-19c0.4-9.3,0-12.4,2.2-13.6
					c1.6-0.9,1.7-3,1.3-5.3c-0.4-2.3-0.5-2.6-3.5-3.1c-2.3-0.4-14.8,0.4-24,2.4l0.3,2.4c7.2-1.5,14.4-1.8,16.6-0.8
					c5.1,2.3,6,16.9,3.3,24.7c-1.9,5.4-8.7,9.1-15.1,10.2L552.8,456z M520.5,426.3c-3.2,0.6-16.8-1.1-26.2-0.5
					c-0.7,0-1.3,0.1-2.1,0.2l0.3,2.4c7.6-0.8,15.6-0.4,18.9,3.2c5.4,5.9,0.1,23.3-6.4,28c-2,1.4-4.7,2.4-7.7,3l0.3,2.3
					c12.5-2,15.7-11.7,16.7-14.9c2-6.1,0.2-13.8,7.3-14.9c7.1-1.1,7.4,6.6,10.8,11.9c1.9,2.8,7.4,11.5,20.3,9.1l-0.3-2.3
					c-3.2,0.6-6.3,0.5-8.7-0.3c-7.5-2.5-16.9-17.5-13.2-24.8c2.2-4.4,9.7-7.4,17.1-9l-0.3-2.4c-0.6,0.1-1.1,0.3-1.7,0.4
					C537.5,419.7,527.9,424.9,520.5,426.3z M492.2,426c-9.2,1-21.1,4-23.3,5.2c-2.7,1.4-2.8,1.7-2.6,4.1c0.2,2.4,0.8,4.3,2.5,4.7
					c2.4,0.5,2.8,3.6,5.5,12.4c2.4,8,6.6,14,21.1,12.8c0.7-0.1,1.5-0.1,2.1-0.2l-0.3-2.3c-6.6,1.1-14.3-0.2-17.6-4.9
					c-4.6-6.6-7.4-21-3-24.8c1.9-1.6,8.6-3.6,15.8-4.4L492.2,426z"/>
				<path class="st33" d="M476.7,432.9c3.8-3.4,28.3-8.2,34.8-1.2c5.4,5.9,0.1,23.3-6.4,28c-6.4,4.6-20.6,4.9-25.3-2
					C475.2,451.1,472.4,436.7,476.7,432.9L476.7,432.9z M564.3,418.8c-4.5-2-29.3,1-33.7,9.8c-3.7,7.4,5.7,22.4,13.2,24.8
					c7.2,2.4,20.9-1.8,23.8-9.9C570.3,435.8,569.4,421.1,564.3,418.8z"/>
				<g>
					<path class="st34" d="M479,431.6c7.3-3.1,26.9-6.1,32.6,0c3.8,4.1,2.3,13.9-1.2,21L479,431.6z"/>
					<path class="st34" d="M534.1,424.8l32,21.4c0.6-0.9,1.1-1.8,1.5-2.7c2.8-7.8,1.8-22.5-3.3-24.7
						C560.5,417.1,542.4,419,534.1,424.8z"/>
				</g>
				<path class="st35" d="M558.3,418.3c-6.1,1.3-13.4,2.9-20.9,4.7c-2,1-3.7,2.1-5,3.3l0,0l0,0l0,0l0,0l0,0l0,0l0,0l0,0l0,0l0,0l0,0
					l-0.1,0.1l0,0l0,0l0,0l0,0l0,0l0,0l0,0l0,0v0l0,0l0,0l0,0l0,0l0,0l0,0l0,0l0,0l0,0l0,0l-0.1,0.1l0,0l0,0l0,0l0,0l0,0l0,0l0,0
					l0,0l0,0l0,0l0,0l0,0l0,0h0l0,0l0,0l0,0l0,0l0,0l0,0l0,0l0,0l0,0l0,0l0,0l0,0.1l0,0l0,0v0l0,0.1l0,0l0,0l0,0l0,0l0,0l0,0l0,0
					l0,0l0,0l0,0l0,0l0,0l0,0l0,0l-0.1,0.1l0,0l0,0l0,0.1l0,0l-0.1,0.1l0,0l0,0l0,0l0,0l0,0l0,0v0l0,0l0,0l0,0l0,0l0,0l0,0l0,0l0,0
					l0,0l0,0l0,0l0,0l0,0l0,0l0,0c-0.4,1-0.6,2.2-0.6,3.4c15-1.5,27.6-2.7,29.8-2.8c5.8-0.4,7.1,4.3,8.2,13.2l0,0
					c1.1-3.5,1.5-8.1,1.2-12.4c-2-2.7-4.7-4.8-8.6-5.2c-0.6-0.1-1.3-0.1-2.3-0.1c3.8-0.8,7.1-1.5,9.4-2c-0.8-2.1-1.9-3.7-3.3-4.4
					C563.2,418.4,561,418.2,558.3,418.3L558.3,418.3z M482.4,430.4c6.2-0.7,13.5-1.4,21.2-2.1c2.2,0.3,4.1,0.8,5.7,1.6l0,0l0,0h0
					c0.1,0,0.1,0.1,0.2,0.1l0,0l0,0l0,0l0,0l0,0l0,0l0,0l0,0l0,0l0,0l0,0l0,0l0,0l0,0l0,0l0,0l0,0l0,0l0,0l0,0l0,0l0,0l0,0l0,0l0,0
					l0,0l0,0l0,0l0,0l0,0l0,0l0,0l0,0l0,0l0,0l0,0l0,0h0l0,0l0,0l0,0l0,0l0,0l0,0l0,0l0,0l0,0l0,0l0,0l0,0l0,0l0,0v0l0,0l0,0l0,0
					l0,0l0,0l0,0l0,0l0,0l0,0l0,0l0,0l0,0l0,0l0,0l0,0l0,0l0,0l0,0l0.1,0.1l0,0l0,0l0.1,0.1l0,0l0,0l0,0l0,0l0,0l0,0v0l0,0l0,0l0,0
					l0,0l0,0l0,0l0,0l0,0v0l0,0l0.1,0.1l0,0l0,0l0,0c0.6,0.8,1.1,1.9,1.4,3c-14.8,3.3-27.1,6.1-29.3,6.6c-5.6,1.5-5.7,6.4-4.6,15.3
					l0,0.1c-1.9-3-3.5-7.3-4.3-11.6c1.2-3.3,3.3-6.2,7-7.7c0.5-0.2,1.3-0.5,2.1-0.8c-3.9,0.4-7.2,0.7-9.6,1c0.2-2.3,0.9-4.2,2.1-5.2
					C477.6,432.1,479.7,431.2,482.4,430.4z"/>
				<g>
					<path class="st36" d="M479,431.6l12.6,8.4c5.4-1.2,13.2-3,21.8-4.9c-0.3-1.2-0.8-2.2-1.4-3l0,0l0,0l0,0l-0.1-0.1l0,0v0l0,0l0,0
						l0,0l0,0l0,0l0,0l0,0l0,0v0l0,0l0,0l0,0l0,0l0,0l0,0l-0.1-0.1l0,0l0,0l-0.1-0.1l0,0l0,0l0,0l0,0l0,0l0,0l0,0l0,0l0,0l0,0l0,0
						l0,0l0,0l0,0l0,0l0,0l0,0l0,0v0l0,0l0,0l0,0l0,0l0,0l0,0l0,0l0,0l0,0l0,0l0,0l0,0l0,0l0,0h0l0,0l0,0l0,0l0,0l0,0l0,0l0,0l0,0
						l0,0l0,0l0,0l0,0l0,0l0,0l0,0l0,0l0,0l0,0l0,0l0,0l0,0l0,0l0,0l0,0l0,0l0,0l0,0l0,0l0,0l0,0l0,0l0,0l0,0l0,0l0,0l0,0l0,0
						c-0.1,0-0.1-0.1-0.2-0.1h0l0,0l0,0c-1.6-0.8-3.5-1.3-5.7-1.6c-7.7,0.6-15,1.4-21.2,2.1C481.1,430.8,479.9,431.2,479,431.6z"/>
					<path class="st36" d="M558.3,418.3c-6.1,1.3-13.4,2.9-20.9,4.7c-1.2,0.6-2.3,1.2-3.3,1.9l9.4,6.3c8.4-0.8,14.5-1.4,16-1.5
						c5.8-0.4,7.1,4.3,8.2,13.2l0,0c1.1-3.5,1.5-8.1,1.2-12.4c-2-2.7-4.7-4.8-8.6-5.2c-0.6-0.1-1.3-0.1-2.3-0.1
						c3.8-0.8,7.1-1.5,9.4-2c-0.8-2.1-1.9-3.7-3.3-4.4C563.2,418.4,561,418.2,558.3,418.3z"/>
				</g>
			</g>
			<g>
				<g class="st37">
					<path class="st38" d="M392,254.8c0,0,5.5-0.1,13.8-0.3c4.2-0.1,9-0.1,14.2-0.2c1.3,0,2.6-0.1,4,0c0.7,0,1.3,0,2,0.1
						c0.7,0.1,1.4,0.2,2.1,0.3c2.8,0.6,5.5,1.7,7.9,3.2c2.4,1.6,4.5,3.6,6.2,5.9c1.7,2.3,2.8,4.9,3.5,7.5c0.6,2.6,0.7,5.4,0.6,7.7
						c0,2.4-0.1,4.6-0.2,6.7c-0.1,2.1-0.2,4-0.2,5.7c-0.1,1.7-0.1,3.2-0.2,4.4c-0.1,2.4-0.3,3.8-0.3,3.8c0,0.1-0.1,0.1-0.1,0.1
						c0,0-0.1,0-0.1-0.1c0,0-0.1-1.4-0.3-3.8c-0.1-1.2-0.2-2.7-0.2-4.4c-0.1-1.7-0.2-3.6-0.2-5.7c-0.1-2.1-0.1-4.3-0.2-6.7
						c0-2.4-0.1-4.8-0.7-7.2c-0.6-2.4-1.6-4.8-3-7c-1.4-2.2-3.3-4.1-5.5-5.6c-2.2-1.5-4.7-2.6-7.3-3.2c-0.6-0.2-1.3-0.2-1.9-0.3
						c-0.6-0.1-1.3-0.1-2-0.2c-1.3-0.1-2.6-0.1-3.9-0.1c-5.2-0.1-10-0.2-14.2-0.2c-8.3-0.1-13.8-0.3-13.8-0.3
						C392,255,391.9,255,392,254.8C391.9,254.9,392,254.8,392,254.8z"/>
				</g>
				<g class="st37">
					<path class="st38" d="M521.8,363.1c0,0,5.9-0.1,14.8-0.3c4.4-0.1,9.6-0.1,15.2-0.2c2.8,0,5.6-0.1,8.5-0.1c1.5,0,2.9,0,4.4-0.1
						l2.2,0c0.5,0,0.8,0,1.2,0c0.4,0.1,0.9,0.1,1.2,0.2c3.2,0.7,5.8,3.4,6.6,6.6c0.1,0.4,0.2,0.8,0.2,1.2c0,0.4,0.1,0.8,0.1,1.2
						c0,0.7,0,1.4,0,2.2c0,1.4,0,2.8,0,4.2c0,2.8,0,5.5-0.1,8c0,2.5-0.1,4.9-0.2,7.2c-0.1,2.2-0.2,4.3-0.2,6.1
						c-0.1,1.8-0.1,3.4-0.2,4.7c-0.1,2.6-0.3,4.1-0.3,4.1c0,0.1-0.1,0.1-0.1,0.1c0,0-0.1,0-0.1-0.1c0,0-0.1-1.5-0.3-4.1
						c-0.1-1.3-0.2-2.9-0.2-4.7c-0.1-1.8-0.2-3.8-0.2-6.1c-0.1-2.2-0.1-4.6-0.2-7.2c-0.1-2.5,0-5.2-0.1-8c0-1.4,0-2.8,0-4.2
						c0-0.7,0-1.4,0-2.2c0-0.7,0-1.3-0.1-2c-0.5-2.5-2.5-4.8-5.1-5.4c-1.2-0.4-2.8-0.2-4.2-0.3c-1.5,0-2.9,0-4.4-0.1
						c-2.9,0-5.8-0.1-8.5-0.1c-5.5-0.1-10.7-0.2-15.2-0.2c-8.9-0.2-14.8-0.3-14.8-0.3C521.8,363.3,521.7,363.3,521.8,363.1
						C521.7,363.1,521.8,363.1,521.8,363.1z"/>
				</g>
				<g class="st37">
					<path class="st38" d="M53.4,370.7c0,0-2.6,0.1-6.5,0.3c-2,0.1-4.2,0.2-6.7,0.2c-1.2,0-2.5,0.1-3.8,0.1c-0.6,0-1.3,0-1.9,0.1
						l-0.5,0l-0.3,0l-0.2,0c-0.1,0-0.4,0-0.6-0.1c-0.2,0-0.4-0.1-0.6-0.1c-1.5-0.4-2.8-1.7-3.3-3.2c-0.1-0.4-0.2-0.8-0.2-1.2
						c0-0.4,0-0.7,0-1c0-0.6,0-1.3,0-1.9c0-2.5,0.1-4.7,0.2-6.7c0.3-3.9,0.7-6.5,0.7-6.5c0-0.1,0.1-0.1,0.1-0.1c0,0,0.1,0,0.1,0.1
						c0,0,0.4,2.6,0.7,6.5c0.1,2,0.2,4.2,0.2,6.7c0,0.6,0,1.2,0,1.9c0,0.3,0,0.6,0,0.9c0,0.2,0,0.5,0.1,0.7c0.2,1,1,1.8,2,2.2
						c0.1,0,0.3,0.1,0.4,0.1c0.1,0,0.2,0.1,0.4,0.1l0.2,0l0.2,0l0.5,0c0.7,0,1.3,0,1.9,0.1c1.3,0,2.6,0.1,3.8,0.1
						c2.5,0.1,4.7,0.2,6.7,0.2c3.9,0.1,6.5,0.3,6.5,0.3C53.5,370.5,53.5,370.5,53.4,370.7C53.5,370.6,53.5,370.7,53.4,370.7z"/>
				</g>
				<g class="st37">
					<path class="st38" d="M69.8,396.8c0,0-2.6,0.1-6.5,0.3c-2,0.1-4.2,0.2-6.7,0.2c-1.2,0-2.5,0.1-3.8,0.1c-0.6,0-1.3,0-1.9,0.1
						l-0.5,0l-0.3,0l-0.2,0c-0.1,0-0.4,0-0.6-0.1c-0.2,0-0.4-0.1-0.6-0.1c-1.5-0.4-2.8-1.7-3.3-3.2c-0.1-0.4-0.2-0.8-0.2-1.2
						c0-0.4,0-0.7,0-1c0-0.6,0-1.3,0-1.9c0-2.5,0.1-4.7,0.2-6.7c0.3-3.9,0.7-6.5,0.7-6.5c0-0.1,0.1-0.1,0.1-0.1c0,0,0.1,0,0.1,0.1
						c0,0,0.4,2.6,0.7,6.5c0.1,2,0.2,4.2,0.2,6.7c0,0.6,0,1.2,0,1.9c0,0.3,0,0.6,0,0.9c0,0.2,0,0.5,0.1,0.7c0.2,1,1,1.8,2,2.2
						c0.1,0,0.3,0.1,0.4,0.1c0.1,0,0.2,0.1,0.4,0.1l0.2,0l0.2,0l0.5,0c0.7,0,1.3,0,1.9,0.1c1.3,0,2.6,0.1,3.8,0.1
						c2.5,0.1,4.7,0.2,6.7,0.2c3.9,0.1,6.5,0.3,6.5,0.3C69.8,396.6,69.9,396.6,69.8,396.8C69.9,396.7,69.8,396.8,69.8,396.8z"/>
				</g>
				<g class="st37">
					<path class="st38" d="M101,339.4c0,0-1.5,0.1-3.7,0.3c-2.2,0.2-5.2,0.3-8.1,0.4c-1.5,0.1-3,0.2-4.3,0.2c-1.4,0-2.7-0.1-3.8-0.2
						c-2.2-0.3-3.7-0.7-3.7-0.7c-0.1,0-0.1-0.1-0.1-0.1c0,0,0-0.1,0.1-0.1c0,0,1.5-0.4,3.7-0.7c1.1-0.1,2.4-0.2,3.8-0.2
						c1.4,0,2.9,0.2,4.3,0.2c3,0.2,5.9,0.3,8.1,0.4c2.2,0.2,3.7,0.3,3.7,0.3C101.1,339.2,101.1,339.3,101,339.4
						C101.1,339.4,101.1,339.4,101,339.4z"/>
				</g>
				<g class="st37">
					<path class="st38" d="M84.7,436.7c0,0-1.5,0.1-3.7,0.3c-2.2,0.2-5.2,0.3-8.1,0.4c-1.5,0.1-3,0.2-4.3,0.2
						c-1.4,0-2.7-0.1-3.8-0.2c-2.2-0.3-3.7-0.7-3.7-0.7c-0.1,0-0.1-0.1-0.1-0.1c0,0,0-0.1,0.1-0.1c0,0,1.5-0.4,3.7-0.7
						c1.1-0.1,2.4-0.2,3.8-0.2c1.4,0,2.9,0.2,4.3,0.2c3,0.2,5.9,0.3,8.1,0.4c2.2,0.2,3.7,0.3,3.7,0.3
						C84.7,436.5,84.8,436.5,84.7,436.7C84.8,436.6,84.7,436.7,84.7,436.7z"/>
				</g>
				<g class="st37">
					<path class="st38" d="M175,448.4c0,0-1.5,0.1-3.7,0.3c-2.2,0.2-5.2,0.3-8.1,0.4c-1.5,0.1-3,0.2-4.3,0.2c-1.4,0-2.7-0.1-3.8-0.2
						c-2.2-0.3-3.7-0.7-3.7-0.7c-0.1,0-0.1-0.1-0.1-0.1c0,0,0-0.1,0.1-0.1c0,0,1.5-0.4,3.7-0.7c1.1-0.1,2.4-0.2,3.8-0.2
						c1.4,0,2.9,0.2,4.3,0.2c3,0.2,5.9,0.3,8.1,0.4c2.2,0.2,3.7,0.3,3.7,0.3C175.1,448.2,175.1,448.3,175,448.4
						C175.1,448.4,175.1,448.4,175,448.4z"/>
				</g>
				<g class="st37">
					<path class="st38" d="M175.3,426.3c0,0-1.5,0.1-3.7,0.3c-2.2,0.2-5.2,0.3-8.1,0.4c-1.5,0.1-3,0.2-4.3,0.2
						c-1.4,0-2.7-0.1-3.8-0.2c-2.2-0.3-3.7-0.7-3.7-0.7c-0.1,0-0.1-0.1-0.1-0.1c0,0,0-0.1,0.1-0.1c0,0,1.5-0.4,3.7-0.7
						c1.1-0.1,2.4-0.2,3.8-0.2c1.4,0,2.9,0.2,4.3,0.2c3,0.2,5.9,0.3,8.1,0.4c2.2,0.2,3.7,0.3,3.7,0.3
						C175.4,426.1,175.4,426.2,175.3,426.3C175.4,426.3,175.4,426.3,175.3,426.3z"/>
				</g>
				<g class="st37">
					<path class="st38" d="M450.6,272.3c0,0,3.4-0.1,8.6-0.3c2.6-0.1,5.6-0.2,8.8-0.2c0.8,0,1.6,0,2.5,0c0.9,0,1.9,0.3,2.7,0.9
						c0.8,0.6,1.4,1.4,1.7,2.4c0.2,0.5,0.2,1,0.2,1.5l0,1.3c0.1,3.4,0.2,6.8,0.2,10c0,3.2-0.1,6.2-0.2,8.8c-0.3,5.1-0.7,8.6-0.7,8.6
						c0,0.1-0.1,0.1-0.1,0.1c0,0-0.1,0-0.1-0.1c0,0-0.4-3.4-0.7-8.6c-0.1-2.6-0.2-5.6-0.2-8.8c0-3.2,0.2-6.6,0.2-10l0-1.3
						c0-0.4,0-0.7-0.1-1c-0.2-0.7-0.6-1.3-1.1-1.7c-0.3-0.2-0.6-0.4-0.9-0.5c-0.2-0.1-0.3-0.1-0.5-0.1l-0.2,0l-0.3,0
						c-0.8,0-1.6,0-2.4-0.1c-3.2-0.1-6.2-0.2-8.8-0.2c-5.1-0.1-8.6-0.3-8.6-0.3C450.5,272.5,450.5,272.5,450.6,272.3
						C450.5,272.4,450.5,272.3,450.6,272.3z"/>
				</g>
				<path class="st39" d="M114.9,488.3h379.8c2.8,0,4.7-0.6,5-1.4c-0.3,1.7-1.1,3.2-2.1,4.4c-1.4,1.6-3.3,2.7-5.5,2.7H117.2
					c-3.8,0-6.8-3.2-7.6-7.3L114.9,488.3z"/>
				<g class="st37">
					<path class="st38" d="M474.4,278.9c0,0,4.9-0.1,12.2-0.3c1.8,0,3.8-0.1,5.9-0.1c0.5,0,1.1,0,1.6,0l0.4,0l0.5,0.1
						c0.3,0.1,0.6,0.1,0.9,0.3c1.2,0.5,2.1,1.5,2.6,2.7c0.1,0.3,0.2,0.6,0.2,1l0,0.5l0,0.4c0,0.6,0,1.2,0,1.8c0,1.2,0,2.4,0.1,3.6
						c0,2.4,0.1,4.8,0.1,7.3c0.1,4.9,0.2,9.7,0.2,14.3c0,2.3,0,4.5-0.1,6.6c0,2.1-0.1,4.1-0.2,5.9c-0.1,1.8-0.2,3.5-0.2,5
						c-0.1,1.5-0.1,2.8-0.2,3.8c-0.1,2.1-0.3,3.3-0.3,3.3c0,0.1-0.1,0.1-0.1,0.1c0,0-0.1,0-0.1-0.1c0,0-0.1-1.2-0.3-3.3
						c-0.1-1.1-0.2-2.4-0.2-3.8c-0.1-1.5-0.2-3.2-0.2-5c-0.1-1.8-0.1-3.8-0.2-5.9c-0.1-2.1,0-4.3-0.1-6.6c0-4.6,0.2-9.4,0.2-14.3
						c0-2.4,0.1-4.9,0.1-7.3c0-1.2,0-2.4,0.1-3.6c0-0.6,0-1.2,0-1.8l0-0.4l0-0.4c0-0.2-0.1-0.5-0.1-0.7c-0.3-0.9-1-1.7-1.9-2.1
						c-0.2-0.1-0.4-0.2-0.7-0.2l-0.3-0.1l-0.4,0c-0.5,0-1.1,0-1.6,0c-2.1,0-4.1-0.1-5.9-0.1c-7.3-0.2-12.2-0.3-12.2-0.3
						C474.3,279.1,474.3,279.1,474.4,278.9C474.3,279,474.3,278.9,474.4,278.9z"/>
				</g>
			</g>
			<g>
				<g>
					<path class="st40" d="M447.8,423.5h-26.3h-57.7h-12.7h-13.7h-12.7h-44.3h-13.4h-13h-13.4h-57h-26.3c-2.4,0-5.7,2.1-7.5,4.7
						l-3.3,4.8l-0.3,0.4l-36.5,52.7c-0.8,1.2,1.4,2.2,5,2.2h109.5h50.4h60h49.5h110.4c3.6,0,5.8-1,4.9-2.2l-40-52.7l-0.3-0.4
						l-3.6-4.8C453.7,425.6,450.2,423.5,447.8,423.5z"/>
					<g>
						<g id="keys_9_">
							<g>
								<path class="st38" d="M187.1,443.6c-0.3,0.6-1.8,1.2-3.3,1.2h-14.4c-1.5,0-2.4-0.5-2.1-1.2l3.5-6.2c0.4-0.6,1.8-1.2,3.3-1.2
									H188c1.4,0,2.4,0.5,2.1,1.2L187.1,443.6z"/>
								<path class="st41" d="M183.8,444.8h-14.4c-1.6,0-2.6-0.6-2.2-1.3l3.5-6.2c0.4-0.7,2-1.3,3.6-1.3h13.8c1.6,0,2.6,0.6,2.2,1.3
									l-3,6.2C187,444.2,185.4,444.8,183.8,444.8z M174.1,436.3c-1.3,0-2.7,0.5-3,1.1l-3.5,6.2c-0.3,0.6,0.5,1.1,1.9,1.1h14.4
									c1.4,0,2.7-0.5,3-1.1l3-6.2c0.3-0.6-0.6-1.1-1.9-1.1H174.1z"/>
							</g>
							<g>
								<path class="st38" d="M165.2,443.6c-0.4,0.6-1.9,1.2-3.4,1.2h-14.4c-1.5,0-2.4-0.5-1.9-1.2l4.1-6.2c0.4-0.6,1.9-1.2,3.4-1.2
									h13.8c1.4,0,2.3,0.5,1.9,1.2L165.2,443.6z"/>
								<path class="st41" d="M161.7,444.8h-14.4c-1.6,0-2.6-0.6-2.1-1.3l4.1-6.2c0.5-0.7,2.1-1.3,3.7-1.3h13.8
									c1.6,0,2.5,0.6,2.1,1.3l-3.6,6.2C165,444.2,163.3,444.8,161.7,444.8z M152.9,436.3c-1.3,0-2.7,0.5-3.1,1.1l-4.1,6.2
									c-0.4,0.6,0.4,1.1,1.8,1.1h14.4c1.4,0,2.8-0.5,3.1-1.1l3.6-6.2c0.3-0.6-0.5-1.1-1.8-1.1H152.9z"/>
							</g>
							<g>
								<path class="st38" d="M231.1,443.6c-0.2,0.6-1.6,1.2-3.1,1.2h-14.4c-1.5,0-2.5-0.5-2.3-1.2l2.3-6.2c0.2-0.6,1.6-1.2,3.1-1.2
									h13.8c1.4,0,2.5,0.5,2.3,1.2L231.1,443.6z"/>
								<path class="st41" d="M228,444.8h-14.4c-1.6,0-2.7-0.6-2.5-1.3l2.3-6.2c0.3-0.7,1.7-1.3,3.3-1.3h13.8c1.6,0,2.7,0.6,2.5,1.3
									l-1.8,6.2C231.1,444.2,229.6,444.8,228,444.8z M216.7,436.3c-1.3,0-2.6,0.5-2.8,1.1l-2.3,6.2c-0.2,0.6,0.7,1.1,2.1,1.1h14.4
									c1.4,0,2.6-0.5,2.8-1.1l1.8-6.2c0.2-0.6-0.8-1.1-2.1-1.1H216.7z"/>
							</g>
							<g>
								<path class="st38" d="M209.1,443.6c-0.2,0.6-1.7,1.2-3.2,1.2h-14.4c-1.5,0-2.5-0.5-2.2-1.2l2.9-6.2c0.3-0.6,1.7-1.2,3.2-1.2
									h13.8c1.4,0,2.4,0.5,2.2,1.2L209.1,443.6z"/>
								<path class="st41" d="M205.9,444.8h-14.4c-1.6,0-2.7-0.6-2.4-1.3l2.9-6.2c0.3-0.7,1.9-1.3,3.4-1.3h13.8
									c1.6,0,2.6,0.6,2.4,1.3l-2.4,6.2C209.1,444.2,207.5,444.8,205.9,444.8z M195.4,436.3c-1.3,0-2.6,0.5-2.9,1.1l-2.9,6.2
									c-0.3,0.6,0.6,1.1,2,1.1H206c1.4,0,2.7-0.5,2.9-1.1l2.4-6.2c0.2-0.6-0.7-1.1-2-1.1H195.4z"/>
							</g>
							<g>
								<path class="st38" d="M275.2,443.6c-0.1,0.6-1.3,1.2-2.8,1.2H258c-1.5,0-2.6-0.5-2.5-1.2l1.1-6.2c0.1-0.6,1.4-1.2,2.8-1.2
									h13.8c1.4,0,2.6,0.5,2.5,1.2L275.2,443.6z"/>
								<path class="st41" d="M272.3,444.8H258c-1.6,0-2.8-0.6-2.7-1.3l1.1-6.2c0.1-0.7,1.5-1.3,3.1-1.3h13.8c1.6,0,2.8,0.6,2.7,1.3
									l-0.6,6.2C275.3,444.2,274,444.8,272.3,444.8z M259.4,436.3c-1.3,0-2.5,0.5-2.6,1.1l-1.1,6.2c-0.1,0.6,0.9,1.1,2.3,1.1h14.4
									c1.4,0,2.5-0.5,2.6-1.1l0.6-6.2c0.1-0.6-1-1.1-2.3-1.1H259.4z"/>
							</g>
							<g>
								<path class="st38" d="M253.2,443.6c-0.1,0.6-1.4,1.2-2.9,1.2h-14.4c-1.5,0-2.6-0.5-2.4-1.2l1.7-6.2c0.2-0.6,1.5-1.2,2.9-1.2
									H252c1.4,0,2.5,0.5,2.4,1.2L253.2,443.6z"/>
								<path class="st41" d="M250.2,444.8h-14.4c-1.6,0-2.8-0.6-2.6-1.3l1.7-6.2c0.2-0.7,1.6-1.3,3.2-1.3H252
									c1.6,0,2.7,0.6,2.6,1.3l-1.2,6.2C253.3,444.2,251.9,444.8,250.2,444.8z M238.1,436.3c-1.3,0-2.5,0.5-2.7,1.1l-1.7,6.2
									c-0.2,0.6,0.8,1.1,2.2,1.1h14.4c1.4,0,2.6-0.5,2.7-1.1l1.2-6.2c0.1-0.6-0.9-1.1-2.2-1.1H238.1z"/>
							</g>
							<g>
								<path class="st38" d="M319.1,443.6c0.1,0.6-1.1,1.2-2.6,1.2h-14.4c-1.5,0-2.7-0.5-2.7-1.2l-0.1-6.2c0-0.6,1.2-1.2,2.6-1.2
									h13.8c1.4,0,2.7,0.5,2.7,1.2L319.1,443.6z"/>
								<path class="st41" d="M316.5,444.8h-14.4c-1.6,0-3-0.6-3-1.3l-0.1-6.2c0-0.7,1.3-1.3,2.8-1.3h13.8c1.6,0,2.9,0.6,3,1.3
									l0.6,6.2C319.4,444.2,318.2,444.8,316.5,444.8z M301.9,436.3c-1.3,0-2.4,0.5-2.4,1.1l0.1,6.2c0,0.6,1.1,1.1,2.5,1.1h14.4
									c1.4,0,2.4-0.5,2.4-1.1l-0.6-6.2c-0.1-0.6-1.2-1.1-2.5-1.1H301.9z"/>
							</g>
							<g>
								<path class="st38" d="M297.2,443.6c0,0.6-1.2,1.2-2.7,1.2h-14.4c-1.5,0-2.7-0.5-2.6-1.2l0.5-6.2c0.1-0.6,1.3-1.2,2.7-1.2
									h13.8c1.4,0,2.6,0.5,2.6,1.2L297.2,443.6z"/>
								<path class="st41" d="M294.4,444.8h-14.4c-1.6,0-2.9-0.6-2.8-1.3l0.5-6.2c0.1-0.7,1.4-1.3,2.9-1.3h13.8
									c1.6,0,2.8,0.6,2.8,1.3l0,6.2C297.4,444.2,296.1,444.8,294.4,444.8z M280.6,436.3c-1.3,0-2.4,0.5-2.5,1.1l-0.5,6.2
									c0,0.6,1,1.1,2.4,1.1h14.4c1.4,0,2.5-0.5,2.5-1.1l0-6.2c0-0.6-1.1-1.1-2.4-1.1H280.6z"/>
							</g>
							<g>
								<path class="st38" d="M341.2,443.6c0.1,0.6-1,1.2-2.5,1.2h-14.4c-1.5,0-2.8-0.5-2.9-1.2l-0.7-6.2c-0.1-0.6,1-1.2,2.5-1.2
									h13.8c1.4,0,2.7,0.5,2.9,1.2L341.2,443.6z"/>
								<path class="st41" d="M338.8,444.8h-14.4c-1.6,0-3-0.6-3.1-1.3l-0.7-6.2c-0.1-0.7,1.1-1.3,2.7-1.3h13.8c1.6,0,3,0.6,3.1,1.3
									l1.2,6.2C341.6,444.2,340.4,444.8,338.8,444.8z M323.3,436.3c-1.3,0-2.3,0.5-2.3,1.1l0.7,6.2c0.1,0.6,1.2,1.1,2.6,1.1h14.4
									c1.4,0,2.4-0.5,2.3-1.1l-1.2-6.2c-0.1-0.6-1.3-1.1-2.6-1.1H323.3z"/>
							</g>
							<g>
								<path class="st38" d="M385.3,443.6c0.3,0.6-0.8,1.2-2.3,1.2h-14.4c-1.5,0-2.9-0.5-3.1-1.2l-1.9-6.2
									c-0.2-0.6,0.8-1.2,2.3-1.2h13.8c1.4,0,2.8,0.5,3.1,1.2L385.3,443.6z"/>
								<path class="st41" d="M383.1,444.8h-14.4c-1.6,0-3.1-0.6-3.3-1.3l-1.9-6.2c-0.2-0.7,0.9-1.3,2.5-1.3h13.8
									c1.6,0,3.1,0.6,3.3,1.3l2.4,6.2C385.9,444.2,384.8,444.8,383.1,444.8z M366,436.3c-1.3,0-2.3,0.5-2.1,1.1l1.9,6.2
									c0.2,0.6,1.4,1.1,2.8,1.1h14.4c1.4,0,2.3-0.5,2.1-1.1l-2.4-6.2c-0.2-0.6-1.5-1.1-2.8-1.1H366z"/>
							</g>
							<g>
								<path class="st38" d="M363.4,443.6c0.2,0.6-0.9,1.2-2.4,1.2h-14.4c-1.5,0-2.8-0.5-3-1.2l-1.3-6.2c-0.1-0.6,0.9-1.2,2.4-1.2
									h13.8c1.4,0,2.8,0.5,3,1.2L363.4,443.6z"/>
								<path class="st41" d="M361,444.8h-14.4c-1.6,0-3.1-0.6-3.2-1.3l-1.3-6.2c-0.1-0.7,1-1.3,2.6-1.3h13.8c1.6,0,3,0.6,3.2,1.3
									l1.8,6.2C363.8,444.2,362.7,444.8,361,444.8z M344.8,436.3c-1.3,0-2.3,0.5-2.2,1.1l1.3,6.2c0.1,0.6,1.3,1.1,2.7,1.1H361
									c1.4,0,2.4-0.5,2.2-1.1l-1.8-6.2c-0.2-0.6-1.4-1.1-2.7-1.1H344.8z"/>
							</g>
							<g>
								<path class="st38" d="M429.3,443.6c0.4,0.6-0.5,1.2-2,1.2h-14.4c-1.5,0-3-0.5-3.3-1.2l-3.1-6.2c-0.3-0.6,0.6-1.2,2-1.2h13.8
									c1.4,0,2.9,0.5,3.3,1.2L429.3,443.6z"/>
								<path class="st41" d="M427.3,444.8h-14.4c-1.6,0-3.2-0.6-3.6-1.3l-3.1-6.2c-0.3-0.7,0.6-1.3,2.2-1.3h13.8
									c1.6,0,3.2,0.6,3.6,1.3l3.6,6.2C429.9,444.2,428.9,444.8,427.3,444.8z M408.6,436.3c-1.3,0-2.2,0.5-1.9,1.1l3.1,6.2
									c0.3,0.6,1.7,1.1,3,1.1h14.4c1.4,0,2.2-0.5,1.9-1.1l-3.6-6.2c-0.3-0.6-1.7-1.1-3-1.1H408.6z"/>
							</g>
							<g>
								<path class="st38" d="M407.3,443.6c0.3,0.6-0.6,1.2-2.1,1.2h-14.4c-1.5,0-2.9-0.5-3.2-1.2l-2.5-6.2
									c-0.3-0.6,0.7-1.2,2.2-1.2h13.8c1.4,0,2.9,0.5,3.2,1.2L407.3,443.6z"/>
								<path class="st38" d="M405.2,444.8h-14.4c-1.6,0-3.2-0.6-3.5-1.3l-2.5-6.2c-0.3-0.7,0.8-1.3,2.3-1.3H401
									c1.6,0,3.1,0.6,3.5,1.3l3,6.2C407.9,444.2,406.8,444.8,405.2,444.8z M387.3,436.3c-1.3,0-2.2,0.5-2,1.1l2.5,6.2
									c0.2,0.6,1.6,1.1,2.9,1.1h14.4c1.4,0,2.3-0.5,2-1.1l-3-6.2c-0.3-0.6-1.6-1.1-2.9-1.1H387.3z"/>
							</g>
							<g>
								<path class="st38" d="M357.7,445.5c-1.4,0-2.4,0.5-2.2,1.1l1.6,6.2c0.2,0.6,1.4,1.1,2.9,1.1h14.9c1.4,0,2.4-0.5,2.2-1.1
									l-2.1-6.2c-0.2-0.6-1.5-1.1-2.9-1.1H357.7z"/>
							</g>
							<g>
								<path class="st38" d="M423.3,452.7c0.3,0.6-0.6,1.2-2.2,1.2h-15c-1.6,0-3.1-0.5-3.4-1.2l-2.8-6.2c-0.3-0.6,0.7-1.2,2.2-1.2
									h14.4c1.5,0,3,0.5,3.4,1.2L423.3,452.7z"/>
								<path class="st41" d="M421.1,454h-15c-1.7,0-3.3-0.6-3.6-1.3l-2.8-6.2c-0.3-0.7,0.8-1.3,2.4-1.3h14.4c1.6,0,3.3,0.6,3.6,1.3
									l3.3,6.2C423.9,453.4,422.8,454,421.1,454z M402.2,445.5c-1.4,0-2.3,0.5-2,1.1l2.8,6.2c0.3,0.6,1.7,1.1,3.1,1.1H421
									c1.4,0,2.3-0.5,2-1.1l-3.3-6.2c-0.3-0.6-1.7-1.1-3.1-1.1H402.2z"/>
							</g>
							<g>
								<path class="st38" d="M400.4,452.7c0.3,0.6-0.7,1.2-2.3,1.2h-14.9c-1.6,0-3-0.5-3.3-1.2l-2.2-6.2c-0.2-0.6,0.8-1.2,2.3-1.2
									h14.4c1.5,0,3,0.5,3.3,1.2L400.4,452.7z"/>
								<path class="st41" d="M398.1,454h-15c-1.7,0-3.3-0.6-3.5-1.3l-2.2-6.2c-0.2-0.7,0.9-1.3,2.5-1.3h14.4c1.6,0,3.2,0.6,3.5,1.3
									l2.7,6.2C400.9,453.4,399.8,454,398.1,454z M380,445.5c-1.4,0-2.3,0.5-2.1,1.1l2.2,6.2c0.2,0.6,1.5,1.1,3,1.1H398
									c1.4,0,2.4-0.5,2.1-1.1l-2.7-6.2c-0.3-0.6-1.6-1.1-3-1.1H380z"/>
							</g>
							<g>
								<path class="st38" d="M469,452.7c0.5,0.6-0.4,1.2-2,1.2h-14.9c-1.6,0-3.2-0.5-3.6-1.2l-4-6.2c-0.4-0.6,0.5-1.2,2-1.2h14.4
									c1.5,0,3.1,0.5,3.6,1.2L469,452.7z"/>
								<path class="st41" d="M467.1,454h-15c-1.7,0-3.4-0.6-3.9-1.3l-4-6.2c-0.5-0.7,0.5-1.3,2.1-1.3h14.4c1.6,0,3.4,0.6,3.9,1.3
									l4.5,6.2C469.7,453.4,468.8,454,467.1,454z M446.5,445.5c-1.4,0-2.2,0.5-1.8,1.1l4,6.2c0.4,0.6,1.9,1.1,3.3,1.1h14.9
									c1.4,0,2.2-0.5,1.8-1.1l-4.5-6.2c-0.4-0.6-1.9-1.1-3.3-1.1H446.5z"/>
							</g>
							<g>
								<path class="st38" d="M446.1,452.7c0.4,0.6-0.5,1.2-2.1,1.2h-15c-1.6,0-3.1-0.5-3.5-1.2l-3.4-6.2c-0.4-0.6,0.6-1.2,2.1-1.2
									h14.4c1.5,0,3.1,0.5,3.5,1.2L446.1,452.7z"/>
								<path class="st41" d="M444.1,454h-15c-1.7,0-3.4-0.6-3.8-1.3l-3.4-6.2c-0.4-0.7,0.6-1.3,2.3-1.3h14.4c1.6,0,3.3,0.6,3.8,1.3
									l3.9,6.2C446.8,453.4,445.8,454,444.1,454z M424.4,445.5c-1.4,0-2.2,0.5-1.9,1.1l3.4,6.2c0.3,0.6,1.8,1.1,3.2,1.1H444
									c1.4,0,2.3-0.5,1.9-1.1l-3.9-6.2c-0.4-0.6-1.8-1.1-3.2-1.1H424.4z"/>
							</g>
							<g>
								<path class="st38" d="M262.8,452.7c-0.1,0.6-1.4,1.2-3,1.2h-15c-1.6,0-2.7-0.5-2.6-1.2l1.4-6.2c0.1-0.6,1.5-1.2,3-1.2h14.4
									c1.5,0,2.7,0.5,2.6,1.2L262.8,452.7z"/>
								<path class="st41" d="M259.7,454h-15c-1.7,0-2.9-0.6-2.8-1.3l1.4-6.2c0.2-0.7,1.6-1.3,3.2-1.3h14.4c1.6,0,2.9,0.6,2.8,1.3
									l-0.9,6.2C262.9,453.4,261.4,454,259.7,454z M246.6,445.5c-1.4,0-2.6,0.5-2.7,1.1l-1.4,6.2c-0.1,0.6,0.9,1.1,2.4,1.1h14.9
									c1.4,0,2.7-0.5,2.7-1.1l0.9-6.2c0.1-0.6-1-1.1-2.4-1.1H246.6z"/>
							</g>
							<g>
								<path class="st38" d="M308.6,452.7c0,0.6-1.2,1.2-2.8,1.2h-15c-1.6,0-2.8-0.5-2.8-1.2l0.2-6.2c0-0.6,1.3-1.2,2.8-1.2h14.4
									c1.5,0,2.8,0.5,2.8,1.2L308.6,452.7z"/>
								<path class="st41" d="M305.9,454h-15c-1.7,0-3-0.6-3-1.3l0.2-6.2c0-0.7,1.4-1.3,3-1.3h14.4c1.6,0,3,0.6,3,1.3l0.3,6.2
									C308.9,453.4,307.6,454,305.9,454z M291.1,445.5c-1.4,0-2.5,0.5-2.5,1.1l-0.2,6.2c0,0.6,1.1,1.1,2.6,1.1h14.9
									c1.4,0,2.6-0.5,2.5-1.1l-0.3-6.2c0-0.6-1.2-1.1-2.6-1.1H291.1z"/>
							</g>
							<g>
								<path class="st38" d="M285.8,452.7c0,0.6-1.3,1.2-2.9,1.2h-14.9c-1.6,0-2.8-0.5-2.7-1.2l0.8-6.2c0.1-0.6,1.4-1.2,2.9-1.2
									h14.4c1.5,0,2.7,0.5,2.7,1.2L285.8,452.7z"/>
								<path class="st41" d="M282.9,454h-15c-1.7,0-3-0.6-2.9-1.3l0.8-6.2c0.1-0.7,1.5-1.3,3.1-1.3h14.4c1.6,0,2.9,0.6,2.9,1.3
									l-0.3,6.2C286,453.4,284.6,454,282.9,454z M268.9,445.5c-1.4,0-2.6,0.5-2.6,1.1l-0.8,6.2c-0.1,0.6,1,1.1,2.5,1.1h14.9
									c1.4,0,2.6-0.5,2.6-1.1l0.3-6.2c0-0.6-1.1-1.1-2.5-1.1H268.9z"/>
							</g>
							<g>
								<path class="st38" d="M194.2,452.7c-0.3,0.6-1.8,1.2-3.3,1.2h-15c-1.6,0-2.6-0.5-2.2-1.2l3.2-6.2c0.3-0.6,1.8-1.2,3.3-1.2
									h14.4c1.5,0,2.5,0.5,2.2,1.2L194.2,452.7z"/>
								<path class="st41" d="M190.8,454h-15c-1.7,0-2.8-0.6-2.4-1.3l3.2-6.2c0.4-0.7,2-1.3,3.6-1.3h14.4c1.6,0,2.7,0.6,2.4,1.3
									l-2.7,6.2C194.1,453.4,192.5,454,190.8,454z M180.1,445.5c-1.4,0-2.8,0.5-3.1,1.1l-3.2,6.2c-0.3,0.6,0.6,1.1,2,1.1h14.9
									c1.4,0,2.8-0.5,3.1-1.1l2.7-6.2c0.3-0.6-0.7-1.1-2-1.1H180.1z"/>
							</g>
							<g>
								<path class="st38" d="M240,452.7c-0.2,0.6-1.5,1.2-3.1,1.2h-15c-1.6,0-2.7-0.5-2.5-1.2l2-6.2c0.2-0.6,1.6-1.2,3.1-1.2h14.4
									c1.5,0,2.6,0.5,2.5,1.2L240,452.7z"/>
								<path class="st41" d="M236.9,454h-15c-1.7,0-2.9-0.6-2.7-1.3l2-6.2c0.2-0.7,1.7-1.3,3.4-1.3h14.4c1.6,0,2.8,0.6,2.7,1.3
									l-1.5,6.2C240.1,453.4,238.6,454,236.9,454z M224.6,445.5c-1.4,0-2.7,0.5-2.9,1.1l-2,6.2c-0.2,0.6,0.8,1.1,2.2,1.1H237
									c1.4,0,2.7-0.5,2.8-1.1l1.5-6.2c0.1-0.6-0.9-1.1-2.2-1.1H224.6z"/>
							</g>
							<g>
								<path class="st38" d="M217.2,452.7c-0.2,0.6-1.7,1.2-3.2,1.2H199c-1.6,0-2.6-0.5-2.3-1.2l2.6-6.2c0.3-0.6,1.7-1.2,3.2-1.2
									h14.4c1.5,0,2.6,0.5,2.3,1.2L217.2,452.7z"/>
								<path class="st41" d="M213.9,454h-15c-1.7,0-2.8-0.6-2.5-1.3l2.6-6.2c0.3-0.7,1.9-1.3,3.5-1.3h14.4c1.6,0,2.8,0.6,2.5,1.3
									l-2.1,6.2C217.2,453.4,215.6,454,213.9,454z M202.5,445.5c-1.4,0-2.7,0.5-3,1.1l-2.6,6.2c-0.2,0.6,0.7,1.1,2.1,1.1H214
									c1.4,0,2.8-0.5,3-1.1l2.1-6.2c0.2-0.6-0.8-1.1-2.1-1.1H202.5z"/>
							</g>
							<g>
								<path class="st38" d="M354.4,452.7c0.2,0.6-1,1.2-2.5,1.2h-14.9c-1.6,0-2.9-0.5-3-1.2l-1-6.2c-0.1-0.6,1-1.2,2.5-1.2h14.4
									c1.5,0,2.9,0.5,3,1.2L354.4,452.7z"/>
								<path class="st41" d="M351.8,454h-15c-1.7,0-3.2-0.6-3.3-1.3l-1-6.2c-0.1-0.7,1.1-1.3,2.8-1.3h14.4c1.6,0,3.1,0.6,3.3,1.3
									l1.5,6.2C354.8,453.4,353.5,454,351.8,454z M335.4,445.5c-1.4,0-2.4,0.5-2.3,1.1l1,6.2c0.1,0.6,1.3,1.1,2.8,1.1h14.9
									c1.4,0,2.5-0.5,2.3-1.1l-1.5-6.2c-0.1-0.6-1.4-1.1-2.8-1.1H335.4z"/>
							</g>
							<g>
								<path class="st38" d="M331.5,452.7c0.1,0.6-1.1,1.2-2.7,1.2h-15c-1.6,0-2.9-0.5-2.9-1.2l-0.4-6.2c0-0.6,1.1-1.2,2.7-1.2
									h14.4c1.5,0,2.8,0.5,2.9,1.2L331.5,452.7z"/>
								<path class="st41" d="M328.9,454h-15c-1.7,0-3.1-0.6-3.1-1.3l-0.4-6.2c0-0.7,1.2-1.3,2.9-1.3h14.4c1.6,0,3,0.6,3.2,1.3
									l0.9,6.2C331.8,453.4,330.5,454,328.9,454z M313.3,445.5c-1.4,0-2.5,0.5-2.4,1.1l0.4,6.2c0,0.6,1.2,1.1,2.7,1.1h14.9
									c1.4,0,2.5-0.5,2.4-1.1l-0.9-6.2c-0.1-0.6-1.3-1.1-2.7-1.1H313.3z"/>
							</g>
							<g>
								<path class="st38" d="M386.4,462c0.2,0.6-0.9,1.2-2.5,1.2h-15.5c-1.6,0-3.1-0.5-3.3-1.2l-1.7-6.2c-0.2-0.6,0.9-1.2,2.5-1.2
									h15c1.6,0,3,0.5,3.3,1.2L386.4,462z"/>
								<path class="st41" d="M383.9,463.3h-15.5c-1.8,0-3.4-0.6-3.5-1.3l-1.7-6.2c-0.2-0.7,1-1.3,2.7-1.3h15c1.7,0,3.3,0.6,3.5,1.3
									l2.3,6.2C386.9,462.7,385.7,463.3,383.9,463.3z M365.9,454.8c-1.4,0-2.5,0.5-2.3,1.1l1.8,6.2c0.2,0.6,1.5,1.1,3,1.1h15.5
									c1.5,0,2.5-0.5,2.3-1.1l-2.3-6.2c-0.2-0.6-1.6-1.1-3-1.1H365.9z"/>
							</g>
							<g>
								<path class="st38" d="M434.1,462c0.4,0.6-0.7,1.2-2.3,1.2h-15.5c-1.6,0-3.2-0.5-3.5-1.2l-2.9-6.2c-0.3-0.6,0.7-1.2,2.3-1.2
									h15c1.6,0,3.1,0.5,3.5,1.2L434.1,462z"/>
								<path class="st41" d="M431.9,463.3h-15.5c-1.8,0-3.5-0.6-3.8-1.3l-2.9-6.2c-0.3-0.7,0.8-1.3,2.5-1.3h15
									c1.7,0,3.4,0.6,3.8,1.3l3.5,6.2C434.7,462.7,433.6,463.3,431.9,463.3z M412.2,454.8c-1.4,0-2.4,0.5-2.1,1.1l3,6.2
									c0.3,0.6,1.7,1.1,3.2,1.1h15.5c1.5,0,2.4-0.5,2.1-1.1l-3.5-6.2c-0.3-0.6-1.8-1.1-3.2-1.1H412.2z"/>
							</g>
							<g>
								<path class="st38" d="M410.3,462c0.3,0.6-0.8,1.2-2.4,1.2h-15.5c-1.6,0-3.1-0.5-3.4-1.2l-2.3-6.2c-0.2-0.6,0.8-1.2,2.4-1.2
									h15c1.6,0,3.1,0.5,3.4,1.2L410.3,462z"/>
								<path class="st41" d="M408,463.3h-15.5c-1.8,0-3.4-0.6-3.7-1.3l-2.3-6.2c-0.3-0.7,0.9-1.3,2.6-1.3h15c1.7,0,3.3,0.6,3.7,1.3
									l2.9,6.2C410.9,462.7,409.7,463.3,408,463.3z M389.1,454.8c-1.4,0-2.4,0.5-2.2,1.1l2.4,6.2c0.2,0.6,1.6,1.1,3.1,1.1h15.5
									c1.5,0,2.5-0.5,2.2-1.1l-2.9-6.2c-0.3-0.6-1.7-1.1-3.1-1.1H389.1z"/>
							</g>
							<g>
								<path class="st38" d="M267.2,462c-0.1,0.6-1.5,1.2-3.1,1.2h-15.5c-1.6,0-2.8-0.5-2.7-1.2l1.3-6.2c0.1-0.6,1.5-1.2,3.1-1.2
									h15c1.6,0,2.8,0.5,2.7,1.2L267.2,462z"/>
								<path class="st41" d="M264.1,463.3h-15.5c-1.8,0-3.1-0.6-2.9-1.3l1.3-6.2c0.1-0.7,1.6-1.3,3.3-1.3h15c1.7,0,3,0.6,2.9,1.3
									l-0.7,6.2C267.4,462.7,265.9,463.3,264.1,463.3z M250.2,454.8c-1.4,0-2.7,0.5-2.8,1.1l-1.3,6.2c-0.1,0.6,1,1.1,2.5,1.1h15.5
									c1.5,0,2.8-0.5,2.8-1.1l0.7-6.2c0.1-0.6-1-1.1-2.5-1.1H250.2z"/>
							</g>
							<g>
								<path class="st38" d="M314.9,462c0.1,0.6-1.2,1.2-2.9,1.2h-15.5c-1.6,0-2.9-0.5-2.9-1.2l0.1-6.2c0-0.6,1.3-1.2,2.9-1.2h15
									c1.6,0,2.9,0.5,2.9,1.2L314.9,462z"/>
								<path class="st41" d="M312.1,463.3h-15.5c-1.8,0-3.2-0.6-3.2-1.3l0.1-6.2c0-0.7,1.4-1.3,3.1-1.3h15c1.7,0,3.1,0.6,3.2,1.3
									l0.5,6.2C315.2,462.7,313.8,463.3,312.1,463.3z M296.5,454.8c-1.4,0-2.6,0.5-2.6,1.1l-0.1,6.2c0,0.6,1.2,1.1,2.7,1.1h15.5
									c1.5,0,2.7-0.5,2.6-1.1l-0.5-6.2c0-0.6-1.3-1.1-2.7-1.1H296.5z"/>
							</g>
							<g>
								<path class="st38" d="M291.2,462c0,0.6-1.3,1.2-3,1.2h-15.5c-1.6,0-2.9-0.5-2.8-1.2l0.7-6.2c0.1-0.6,1.4-1.2,3-1.2h15
									c1.6,0,2.8,0.5,2.8,1.2L291.2,462z"/>
								<path class="st41" d="M288.2,463.3h-15.5c-1.8,0-3.1-0.6-3.1-1.3l0.7-6.2c0.1-0.7,1.5-1.3,3.2-1.3h15c1.7,0,3.1,0.6,3.1,1.3
									l-0.1,6.2C291.4,462.7,289.9,463.3,288.2,463.3z M273.4,454.8c-1.4,0-2.7,0.5-2.7,1.1l-0.6,6.2c-0.1,0.6,1.1,1.1,2.6,1.1
									h15.5c1.5,0,2.7-0.5,2.7-1.1l0.1-6.2c0-0.6-1.1-1.1-2.6-1.1H273.4z"/>
							</g>
							<g>
								<path class="st38" d="M195.9,462c-0.3,0.6-1.8,1.2-3.4,1.2h-15.5c-1.6,0-2.7-0.5-2.4-1.2l3.1-6.2c0.3-0.6,1.8-1.2,3.4-1.2
									h15c1.6,0,2.6,0.5,2.4,1.2L195.9,462z"/>
								<path class="st41" d="M192.4,463.3h-15.5c-1.8,0-2.9-0.6-2.6-1.3l3.1-6.2c0.3-0.7,2-1.3,3.7-1.3h15c1.7,0,2.8,0.6,2.6,1.3
									l-2.5,6.2C195.9,462.7,194.2,463.3,192.4,463.3z M181,454.8c-1.4,0-2.8,0.5-3.1,1.1l-3,6.2c-0.3,0.6,0.7,1.1,2.2,1.1h15.5
									c1.5,0,2.9-0.5,3.1-1.1l2.5-6.2c0.2-0.6-0.7-1.1-2.2-1.1H181z"/>
							</g>
							<g>
								<path class="st38" d="M243.6,462c-0.1,0.6-1.6,1.2-3.2,1.2h-15.5c-1.6,0-2.8-0.5-2.6-1.2l1.9-6.2c0.2-0.6,1.6-1.2,3.2-1.2
									h15c1.6,0,2.7,0.5,2.6,1.2L243.6,462z"/>
								<path class="st41" d="M240.4,463.3h-15.5c-1.8,0-3-0.6-2.8-1.3l1.9-6.2c0.2-0.7,1.8-1.3,3.5-1.3h15c1.7,0,3,0.6,2.8,1.3
									l-1.3,6.2C243.7,462.7,242.2,463.3,240.4,463.3z M227.3,454.8c-1.4,0-2.8,0.5-2.9,1.1l-1.8,6.2c-0.2,0.6,0.9,1.1,2.4,1.1
									h15.5c1.5,0,2.8-0.5,2.9-1.1l1.3-6.2c0.1-0.6-0.9-1.1-2.4-1.1H227.3z"/>
							</g>
							<g>
								<path class="st38" d="M219.8,462c-0.2,0.6-1.7,1.2-3.3,1.2H201c-1.6,0-2.7-0.5-2.5-1.2l2.5-6.2c0.3-0.6,1.7-1.2,3.3-1.2h15
									c1.6,0,2.7,0.5,2.5,1.2L219.8,462z"/>
								<path class="st41" d="M216.5,463.3H201c-1.8,0-3-0.6-2.7-1.3l2.5-6.2c0.3-0.7,1.9-1.3,3.6-1.3h15c1.7,0,2.9,0.6,2.7,1.3
									l-1.9,6.2C219.9,462.7,218.3,463.3,216.5,463.3z M204.2,454.8c-1.4,0-2.8,0.5-3,1.1l-2.4,6.2c-0.2,0.6,0.8,1.1,2.3,1.1h15.5
									c1.5,0,2.8-0.5,3-1.1l1.9-6.2c0.2-0.6-0.8-1.1-2.3-1.1H204.2z"/>
							</g>
							<g>
								<path class="st38" d="M362.5,462c0.2,0.6-1,1.2-2.6,1.2h-15.5c-1.6,0-3-0.5-3.2-1.2l-1.1-6.2c-0.1-0.6,1.1-1.2,2.6-1.2h15
									c1.6,0,3,0.5,3.2,1.2L362.5,462z"/>
								<path class="st41" d="M359.9,463.3h-15.5c-1.8,0-3.3-0.6-3.4-1.3l-1.1-6.2c-0.1-0.7,1.2-1.3,2.8-1.3h15
									c1.7,0,3.2,0.6,3.4,1.3l1.7,6.2C362.9,462.7,361.6,463.3,359.9,463.3z M342.6,454.8c-1.4,0-2.5,0.5-2.4,1.1l1.1,6.2
									c0.1,0.6,1.4,1.1,2.9,1.1h15.5c1.5,0,2.6-0.5,2.4-1.1l-1.7-6.2c-0.2-0.6-1.5-1.1-2.9-1.1H342.6z"/>
							</g>
							<g>
								<path class="st38" d="M338.7,462c0.1,0.6-1.1,1.2-2.7,1.2h-15.5c-1.6,0-3-0.5-3-1.2l-0.5-6.2c-0.1-0.6,1.2-1.2,2.7-1.2h15
									c1.6,0,2.9,0.5,3,1.2L338.7,462z"/>
								<path class="st41" d="M336,463.3h-15.5c-1.8,0-3.2-0.6-3.3-1.3l-0.5-6.2c-0.1-0.7,1.3-1.3,3-1.3h15c1.7,0,3.2,0.6,3.3,1.3
									l1.1,6.2C339.1,462.7,337.7,463.3,336,463.3z M319.6,454.8c-1.4,0-2.6,0.5-2.5,1.1l0.5,6.2c0.1,0.6,1.3,1.1,2.8,1.1h15.5
									c1.5,0,2.6-0.5,2.5-1.1l-1.1-6.2c-0.1-0.6-1.4-1.1-2.8-1.1H319.6z"/>
							</g>
							<g>
								<path class="st38" d="M402.1,471.3c0.3,0.6-0.9,1.2-2.6,1.2h-16.1c-1.7,0-3.2-0.5-3.4-1.2l-2-6.2c-0.2-0.6,0.9-1.2,2.6-1.2
									H396c1.6,0,3.2,0.5,3.4,1.2L402.1,471.3z"/>
								<path class="st41" d="M399.5,472.5h-16.1c-1.8,0-3.5-0.6-3.7-1.3l-2-6.2c-0.2-0.7,1-1.3,2.8-1.3H396c1.8,0,3.4,0.6,3.7,1.3
									l2.6,6.2C402.6,472,401.4,472.5,399.5,472.5z M380.5,464c-1.5,0-2.5,0.5-2.4,1.1l2,6.2c0.2,0.6,1.6,1.1,3.2,1.1h16.1
									c1.5,0,2.6-0.5,2.4-1.1l-2.6-6.2c-0.2-0.6-1.7-1.1-3.2-1.1H380.5z"/>
							</g>
							<g>
								<path class="st38" d="M426.9,471.3c0.3,0.6-0.8,1.2-2.5,1.2h-16.1c-1.7,0-3.3-0.5-3.6-1.2l-2.6-6.2
									c-0.3-0.6,0.8-1.2,2.5-1.2h15.6c1.6,0,3.2,0.5,3.6,1.2L426.9,471.3z"/>
								<path class="st41" d="M424.5,472.5h-16.1c-1.8,0-3.6-0.6-3.9-1.3l-2.6-6.2c-0.3-0.7,0.9-1.3,2.7-1.3h15.6
									c1.8,0,3.5,0.6,3.9,1.3l3.2,6.2C427.5,472,426.3,472.5,424.5,472.5z M404.6,464c-1.5,0-2.5,0.5-2.2,1.1l2.7,6.2
									c0.3,0.6,1.7,1.1,3.3,1.1h16.1c1.5,0,2.6-0.5,2.2-1.1l-3.2-6.2c-0.3-0.6-1.8-1.1-3.3-1.1H404.6z"/>
							</g>
							<g>
								<path class="st38" d="M278.4,471.3c0,0.6-1.4,1.2-3.1,1.2h-16.1c-1.7,0-3-0.5-2.9-1.2l1-6.2c0.1-0.6,1.5-1.2,3.1-1.2h15.6
									c1.6,0,2.9,0.5,2.9,1.2L278.4,471.3z"/>
								<path class="st41" d="M275.2,472.5h-16.1c-1.8,0-3.2-0.6-3.1-1.3l1-6.2c0.1-0.7,1.6-1.3,3.4-1.3h15.6c1.8,0,3.2,0.6,3.1,1.3
									l-0.4,6.2C278.6,472,277.1,472.5,275.2,472.5z M260.3,464c-1.5,0-2.8,0.5-2.9,1.1l-1,6.2c-0.1,0.6,1.1,1.1,2.6,1.1h16.1
									c1.5,0,2.8-0.5,2.9-1.1l0.4-6.2c0-0.6-1.1-1.1-2.6-1.1H260.3z"/>
							</g>
							<g>
								<path class="st38" d="M327.9,471.3c0.1,0.6-1.2,1.2-2.9,1.2h-16.1c-1.7,0-3.1-0.5-3.1-1.2l-0.2-6.2c0-0.6,1.3-1.2,2.9-1.2
									H324c1.6,0,3,0.5,3.1,1.2L327.9,471.3z"/>
								<path class="st41" d="M325,472.5h-16.1c-1.8,0-3.3-0.6-3.4-1.3l-0.2-6.2c0-0.7,1.4-1.3,3.2-1.3H324c1.8,0,3.3,0.6,3.4,1.3
									l0.8,6.2C328.2,472,326.8,472.5,325,472.5z M308.4,464c-1.5,0-2.7,0.5-2.7,1.1l0.2,6.2c0,0.6,1.3,1.1,2.8,1.1H325
									c1.5,0,2.7-0.5,2.7-1.1l-0.8-6.2c-0.1-0.6-1.3-1.1-2.8-1.1H308.4z"/>
							</g>
							<g>
								<path class="st38" d="M303.2,471.3c0,0.6-1.3,1.2-3,1.2h-16.1c-1.7,0-3-0.5-3-1.2l0.4-6.2c0-0.6,1.4-1.2,3-1.2h15.6
									c1.6,0,3,0.5,3,1.2L303.2,471.3z"/>
								<path class="st41" d="M300.2,472.5h-16.1c-1.8,0-3.3-0.6-3.2-1.3l0.4-6.2c0-0.7,1.5-1.3,3.3-1.3h15.6c1.8,0,3.2,0.6,3.2,1.3
									l0.2,6.2C303.5,472,302,472.5,300.2,472.5z M284.5,464c-1.5,0-2.7,0.5-2.8,1.1l-0.4,6.2c0,0.6,1.2,1.1,2.7,1.1h16.1
									c1.5,0,2.8-0.5,2.8-1.1l-0.2-6.2c0-0.6-1.2-1.1-2.7-1.1H284.5z"/>
							</g>
							<g>
								<path class="st38" d="M204.4,471.3c-0.2,0.6-1.8,1.2-3.5,1.2h-16.1c-1.7,0-2.8-0.5-2.5-1.2l2.8-6.2c0.3-0.6,1.8-1.2,3.5-1.2
									h15.6c1.6,0,2.8,0.5,2.5,1.2L204.4,471.3z"/>
								<path class="st41" d="M200.9,472.5h-16.1c-1.8,0-3.1-0.6-2.7-1.3l2.8-6.2c0.3-0.7,2-1.3,3.8-1.3h15.6c1.8,0,3,0.6,2.7,1.3
									l-2.2,6.2C204.4,472,202.7,472.5,200.9,472.5z M188.4,464c-1.5,0-2.9,0.5-3.2,1.1l-2.8,6.2c-0.3,0.6,0.8,1.1,2.3,1.1h16.1
									c1.5,0,3-0.5,3.2-1.1l2.2-6.2c0.2-0.6-0.8-1.1-2.3-1.1H188.4z"/>
							</g>
							<g>
								<path class="st38" d="M143.2,481.5c-0.4,0.7-2.2,1.3-3.9,1.3h-16.8c-1.8,0-2.8-0.6-2.3-1.3l4.6-7c0.5-0.7,2.3-1.3,3.9-1.3
									h16.2c1.7,0,2.7,0.6,2.3,1.3L143.2,481.5z"/>
								<path class="st41" d="M139.2,483h-16.8c-1.9,0-3-0.6-2.5-1.4l4.7-7c0.5-0.8,2.4-1.4,4.3-1.4H145c1.8,0,2.9,0.6,2.5,1.4l-4,7
									C143,482.3,141.1,483,139.2,483z M128.7,473.3c-1.5,0-3.2,0.6-3.6,1.2l-4.6,7c-0.4,0.7,0.5,1.2,2.1,1.2h16.8
									c1.6,0,3.2-0.6,3.6-1.2l4-7c0.4-0.7-0.6-1.2-2.1-1.2H128.7z"/>
							</g>
							<g>
								<path class="st38" d="M168.9,481.5c-0.4,0.7-2.1,1.3-3.8,1.3h-16.8c-1.8,0-2.8-0.6-2.4-1.3l4-7c0.4-0.7,2.1-1.3,3.8-1.3
									h16.2c1.7,0,2.8,0.6,2.4,1.3L168.9,481.5z"/>
								<path class="st41" d="M165,483h-16.8c-1.9,0-3.1-0.6-2.6-1.4l4-7c0.4-0.8,2.3-1.4,4.1-1.4h16.2c1.8,0,3,0.6,2.6,1.4l-3.4,7
									C168.8,482.3,166.9,483,165,483z M153.6,473.3c-1.5,0-3.1,0.6-3.5,1.2l-4,7c-0.4,0.7,0.6,1.2,2.2,1.2h16.8
									c1.6,0,3.2-0.6,3.5-1.2l3.4-7c0.3-0.7-0.7-1.2-2.2-1.2H153.6z"/>
							</g>
							<g>
								<path class="st38" d="M194.5,481.5c-0.3,0.7-1.9,1.3-3.7,1.3h-16.8c-1.8,0-2.9-0.6-2.6-1.3l3.3-7c0.3-0.7,2-1.3,3.7-1.3
									h16.2c1.7,0,2.8,0.6,2.6,1.3L194.5,481.5z"/>
								<path class="st41" d="M190.8,483H174c-1.9,0-3.1-0.6-2.8-1.4l3.3-7c0.4-0.8,2.2-1.4,4-1.4h16.2c1.8,0,3.1,0.6,2.8,1.4
									l-2.7,7C194.5,482.3,192.7,483,190.8,483z M178.4,473.3c-1.6,0-3.1,0.6-3.4,1.2l-3.3,7c-0.3,0.7,0.7,1.2,2.3,1.2h16.8
									c1.6,0,3.1-0.6,3.4-1.2l2.7-7c0.3-0.7-0.8-1.2-2.3-1.2H178.4z"/>
							</g>
							<g>
								<path class="st38" d="M413.2,481.5c0.3,0.7-0.8,1.3-2.6,1.3h-16.8c-1.8,0-3.4-0.6-3.7-1.3l-2.5-7c-0.3-0.7,0.9-1.3,2.6-1.3
									h16.2c1.7,0,3.3,0.6,3.7,1.3L413.2,481.5z"/>
								<path class="st41" d="M410.7,483h-16.8c-1.9,0-3.7-0.6-4-1.4l-2.5-7c-0.3-0.8,1-1.4,2.8-1.4h16.2c1.8,0,3.6,0.6,4,1.4l3.1,7
									C413.8,482.3,412.6,483,410.7,483z M390.3,473.3c-1.6,0-2.6,0.6-2.4,1.2l2.5,7c0.2,0.7,1.7,1.2,3.4,1.2h16.8
									c1.6,0,2.7-0.6,2.4-1.2l-3.1-7c-0.3-0.7-1.8-1.2-3.4-1.2H390.3z"/>
							</g>
							<g>
								<path class="st38" d="M253.9,471.3c-0.1,0.6-1.6,1.2-3.2,1.2h-16.1c-1.7,0-2.9-0.5-2.8-1.2l1.6-6.2c0.2-0.6,1.6-1.2,3.2-1.2
									h15.6c1.6,0,2.9,0.5,2.8,1.2L253.9,471.3z"/>
								<path class="st41" d="M250.6,472.5h-16.1c-1.8,0-3.2-0.6-3-1.3l1.6-6.2c0.2-0.7,1.8-1.3,3.5-1.3h15.6c1.8,0,3.1,0.6,3,1.3
									l-1,6.2C254,472,252.5,472.5,250.6,472.5z M236.5,464c-1.5,0-2.8,0.5-3,1.1l-1.5,6.2c-0.1,0.6,1,1.1,2.5,1.1h16.1
									c1.5,0,2.9-0.5,3-1.1l1-6.2c0.1-0.6-1-1.1-2.5-1.1H236.5z"/>
							</g>
							<g>
								<path class="st38" d="M229.2,471.3c-0.2,0.6-1.7,1.2-3.4,1.2h-16.1c-1.7,0-2.9-0.5-2.6-1.2l2.2-6.2c0.2-0.6,1.7-1.2,3.4-1.2
									h15.6c1.6,0,2.8,0.5,2.6,1.2L229.2,471.3z"/>
								<path class="st41" d="M225.8,472.5h-16.1c-1.8,0-3.1-0.6-2.9-1.3l2.2-6.2c0.2-0.7,1.9-1.3,3.6-1.3h15.6
									c1.8,0,3.1,0.6,2.9,1.3l-1.6,6.2C229.3,472,227.7,472.5,225.8,472.5z M212.6,464c-1.5,0-2.9,0.5-3.1,1.1l-2.1,6.2
									c-0.2,0.6,0.9,1.1,2.4,1.1h16.1c1.5,0,2.9-0.5,3.1-1.1l1.6-6.2c0.2-0.6-0.9-1.1-2.4-1.1H212.6z"/>
							</g>
							<g>
								<path class="st38" d="M377.2,471.3c0.2,0.6-1,1.2-2.7,1.2h-16.1c-1.7,0-3.2-0.5-3.3-1.2l-1.4-6.2c-0.2-0.6,1.1-1.2,2.7-1.2
									h15.6c1.6,0,3.1,0.5,3.3,1.2L377.2,471.3z"/>
								<path class="st41" d="M374.6,472.5h-16.1c-1.8,0-3.4-0.6-3.6-1.3l-1.4-6.2c-0.2-0.7,1.1-1.3,2.9-1.3h15.6
									c1.8,0,3.4,0.6,3.6,1.3l2,6.2C377.7,472,376.4,472.5,374.6,472.5z M356.4,464c-1.5,0-2.6,0.5-2.5,1.1l1.4,6.2
									c0.1,0.6,1.5,1.1,3,1.1h16.1c1.5,0,2.6-0.5,2.5-1.1l-2-6.2c-0.2-0.6-1.6-1.1-3.1-1.1H356.4z"/>
							</g>
							<g>
								<path class="st38" d="M352.6,471.3c0.1,0.6-1.1,1.2-2.8,1.2h-16.1c-1.7,0-3.1-0.5-3.2-1.2l-0.8-6.2
									c-0.1-0.6,1.2-1.2,2.8-1.2H348c1.6,0,3.1,0.5,3.2,1.2L352.6,471.3z"/>
								<path class="st41" d="M349.8,472.5h-16.1c-1.8,0-3.4-0.6-3.5-1.3l-0.8-6.2c-0.1-0.7,1.3-1.3,3-1.3H348
									c1.8,0,3.3,0.6,3.5,1.3l1.4,6.2C353,472,351.6,472.5,349.8,472.5z M332.4,464c-1.5,0-2.6,0.5-2.6,1.1l0.8,6.2
									c0.1,0.6,1.4,1.1,2.9,1.1h16.1c1.5,0,2.7-0.5,2.6-1.1l-1.4-6.2c-0.1-0.6-1.5-1.1-2.9-1.1H332.4z"/>
							</g>
							<g>
								<path class="st38" d="M170.6,434.2c-0.4,0.6-1.8,1.2-3.3,1.2h-13.8c-1.4,0-2.3-0.5-1.8-1.2l1.7-2.6c0.4-0.6,1.9-1.2,3.3-1.2
									h13.5c1.4,0,2.2,0.5,1.9,1.2L170.6,434.2z"/>
								<path class="st41" d="M167.2,435.5h-13.8c-1.6,0-2.5-0.6-2-1.3l1.7-2.6c0.5-0.7,2.1-1.3,3.6-1.3h13.5c1.5,0,2.4,0.6,2,1.3
									l-1.5,2.6C170.4,434.9,168.8,435.5,167.2,435.5z M156.7,430.5c-1.3,0-2.7,0.5-3,1.1l-1.7,2.6c-0.4,0.6,0.4,1.1,1.7,1.1h13.8
									c1.3,0,2.7-0.5,3-1.1l1.5-2.6c0.3-0.6-0.4-1.1-1.7-1.1H156.7z"/>
							</g>
							<g>
								<path class="st38" d="M192.7,434.2c-0.3,0.6-1.7,1.2-3.2,1.2h-13.8c-1.4,0-2.3-0.5-2-1.2l1.5-2.6c0.4-0.6,1.8-1.2,3.2-1.2
									H192c1.4,0,2.3,0.5,2,1.2L192.7,434.2z"/>
								<path class="st41" d="M189.5,435.5h-13.8c-1.6,0-2.5-0.6-2.1-1.3l1.5-2.6c0.4-0.7,2-1.3,3.5-1.3H192c1.5,0,2.5,0.6,2.2,1.3
									l-1.2,2.6C192.6,434.9,191.1,435.5,189.5,435.5z M178.4,430.5c-1.3,0-2.6,0.5-2.9,1.1l-1.5,2.6c-0.3,0.6,0.5,1.1,1.8,1.1
									h13.8c1.3,0,2.6-0.5,2.9-1.1l1.3-2.6c0.3-0.6-0.5-1.1-1.8-1.1H178.4z"/>
							</g>
							<g>
								<path class="st38" d="M214.4,434.2c-0.2,0.6-1.6,1.2-3.1,1.2h-13.8c-1.4,0-2.4-0.5-2.1-1.2l1.2-2.6c0.3-0.6,1.7-1.2,3.1-1.2
									h13.5c1.4,0,2.4,0.5,2.1,1.2L214.4,434.2z"/>
								<path class="st41" d="M211.3,435.5h-13.8c-1.6,0-2.6-0.6-2.2-1.3l1.2-2.6c0.3-0.7,1.8-1.3,3.3-1.3h13.5
									c1.5,0,2.5,0.6,2.3,1.3l-1,2.6C214.3,434.9,212.8,435.5,211.3,435.5z M199.7,430.5c-1.3,0-2.6,0.5-2.8,1.1l-1.2,2.6
									c-0.3,0.6,0.6,1.1,1.9,1.1h13.8c1.3,0,2.6-0.5,2.8-1.1l1-2.6c0.2-0.6-0.6-1.1-1.9-1.1H199.7z"/>
							</g>
							<g>
								<path class="st38" d="M236.5,434.2c-0.2,0.6-1.5,1.2-2.9,1.2h-13.8c-1.4,0-2.4-0.5-2.2-1.2l0.9-2.6c0.2-0.6,1.6-1.2,3-1.2
									H235c1.4,0,2.4,0.5,2.2,1.2L236.5,434.2z"/>
								<path class="st41" d="M233.5,435.5h-13.8c-1.6,0-2.6-0.6-2.4-1.3l1-2.6c0.3-0.7,1.7-1.3,3.2-1.3H235c1.5,0,2.6,0.6,2.4,1.3
									l-0.7,2.6C236.5,434.9,235.1,435.5,233.5,435.5z M221.5,430.5c-1.3,0-2.5,0.5-2.7,1.1l-0.9,2.6c-0.2,0.6,0.7,1.1,2,1.1h13.8
									c1.3,0,2.5-0.5,2.7-1.1l0.7-2.6c0.2-0.6-0.8-1.1-2-1.1H221.5z"/>
							</g>
							<g>
								<path class="st38" d="M258,434.2c-0.1,0.6-1.4,1.2-2.8,1.2h-13.8c-1.4,0-2.5-0.5-2.3-1.2l0.7-2.6c0.2-0.6,1.4-1.2,2.9-1.2
									h13.5c1.4,0,2.5,0.5,2.3,1.2L258,434.2z"/>
								<path class="st41" d="M255.1,435.5h-13.8c-1.6,0-2.7-0.6-2.5-1.3l0.7-2.6c0.2-0.7,1.6-1.3,3.1-1.3h13.5
									c1.5,0,2.7,0.6,2.5,1.3l-0.5,2.6C258.1,434.9,256.7,435.5,255.1,435.5z M242.6,430.5c-1.3,0-2.5,0.5-2.6,1.1l-0.7,2.6
									c-0.2,0.6,0.8,1.1,2.1,1.1h13.8c1.3,0,2.5-0.5,2.6-1.1l0.5-2.6c0.1-0.6-0.9-1.1-2.2-1.1H242.6z"/>
							</g>
							<g>
								<path class="st38" d="M280.1,434.2c0,0.6-1.3,1.2-2.7,1.2h-13.8c-1.4,0-2.5-0.5-2.4-1.2l0.4-2.6c0.1-0.6,1.3-1.2,2.7-1.2
									h13.5c1.4,0,2.5,0.5,2.5,1.2L280.1,434.2z"/>
								<path class="st41" d="M277.4,435.5h-13.8c-1.6,0-2.7-0.6-2.6-1.3l0.4-2.6c0.1-0.7,1.4-1.3,3-1.3h13.5c1.5,0,2.7,0.6,2.7,1.3
									l-0.2,2.6C280.3,434.9,279,435.5,277.4,435.5z M264.4,430.5c-1.3,0-2.4,0.5-2.5,1.1l-0.4,2.6c-0.1,0.6,0.9,1.1,2.2,1.1h13.8
									c1.3,0,2.4-0.5,2.5-1.1l0.2-2.6c0-0.6-1-1.1-2.3-1.1H264.4z"/>
							</g>
							<g>
								<path class="st38" d="M301.9,434.2c0,0.6-1.1,1.2-2.6,1.2h-13.8c-1.4,0-2.6-0.5-2.5-1.2l0.2-2.6c0-0.6,1.2-1.2,2.6-1.2h13.5
									c1.4,0,2.6,0.5,2.6,1.2L301.9,434.2z"/>
								<path class="st41" d="M299.4,435.5h-13.8c-1.6,0-2.8-0.6-2.8-1.3l0.2-2.6c0-0.7,1.3-1.3,2.8-1.3h13.5c1.5,0,2.8,0.6,2.8,1.3
									l0.1,2.6C302.2,434.9,300.9,435.5,299.4,435.5z M285.8,430.5c-1.3,0-2.4,0.5-2.4,1.1l-0.2,2.6c0,0.6,1,1.1,2.3,1.1h13.8
									c1.3,0,2.4-0.5,2.4-1.1l-0.1-2.6c0-0.6-1.1-1.1-2.4-1.1H285.8z"/>
							</g>
							<g>
								<path class="st38" d="M324.1,434.2c0.1,0.6-1,1.2-2.5,1.2h-13.8c-1.4,0-2.6-0.5-2.7-1.2l-0.1-2.6c0-0.6,1.1-1.2,2.5-1.2H321
									c1.4,0,2.6,0.5,2.7,1.2L324.1,434.2z"/>
								<path class="st41" d="M321.6,435.5h-13.8c-1.6,0-2.9-0.6-2.9-1.3l-0.1-2.6c0-0.7,1.2-1.3,2.7-1.3H321c1.5,0,2.8,0.6,2.9,1.3
									l0.3,2.6C324.4,434.9,323.2,435.5,321.6,435.5z M307.6,430.5c-1.3,0-2.3,0.5-2.3,1.1l0.1,2.6c0,0.6,1.1,1.1,2.4,1.1h13.8
									c1.3,0,2.3-0.5,2.3-1.1l-0.3-2.6c-0.1-0.6-1.2-1.1-2.5-1.1H307.6z"/>
							</g>
							<g>
								<path class="st38" d="M345.7,434.2c0.1,0.6-0.9,1.2-2.3,1.2h-13.8c-1.4,0-2.7-0.5-2.8-1.2l-0.4-2.6c-0.1-0.6,1-1.2,2.4-1.2
									h13.5c1.4,0,2.7,0.5,2.8,1.2L345.7,434.2z"/>
								<path class="st41" d="M343.4,435.5h-13.8c-1.6,0-2.9-0.6-3-1.3l-0.4-2.6c-0.1-0.7,1.1-1.3,2.6-1.3h13.5
									c1.5,0,2.9,0.6,3.1,1.3l0.6,2.6C346.1,434.9,345,435.5,343.4,435.5z M328.8,430.5c-1.3,0-2.3,0.5-2.2,1.1l0.4,2.6
									c0.1,0.6,1.2,1.1,2.5,1.1h13.8c1.3,0,2.3-0.5,2.1-1.1l-0.6-2.6c-0.1-0.6-1.3-1.1-2.6-1.1H328.8z"/>
							</g>
							<g>
								<path class="st38" d="M367.9,434.2c0.2,0.6-0.8,1.2-2.2,1.2h-13.8c-1.4,0-2.7-0.5-2.9-1.2l-0.6-2.6
									c-0.2-0.6,0.9-1.2,2.3-1.2h13.5c1.4,0,2.7,0.5,2.9,1.2L367.9,434.2z"/>
								<path class="st41" d="M365.7,435.5h-13.8c-1.6,0-3-0.6-3.1-1.3l-0.6-2.6c-0.2-0.7,0.9-1.3,2.5-1.3H364c1.5,0,3,0.6,3.2,1.3
									l0.9,2.6C368.3,434.9,367.2,435.5,365.7,435.5z M350.6,430.5c-1.3,0-2.2,0.5-2.1,1.1l0.6,2.6c0.1,0.6,1.3,1.1,2.7,1.1h13.8
									c1.3,0,2.2-0.5,2-1.1l-0.9-2.6c-0.2-0.6-1.4-1.1-2.7-1.1H350.6z"/>
							</g>
							<g>
								<path class="st38" d="M389.3,434.2c0.3,0.6-0.7,1.2-2.1,1.2h-13.8c-1.4,0-2.8-0.5-3-1.2l-0.9-2.6c-0.2-0.6,0.7-1.2,2.1-1.2
									h13.5c1.4,0,2.8,0.5,3.1,1.2L389.3,434.2z"/>
								<path class="st41" d="M387.3,435.5h-13.8c-1.6,0-3-0.6-3.3-1.3l-0.9-2.6c-0.2-0.7,0.8-1.3,2.3-1.3h13.5c1.5,0,3,0.6,3.3,1.3
									l1.1,2.6C389.9,434.9,388.8,435.5,387.3,435.5z M371.7,430.5c-1.3,0-2.2,0.5-2,1.1l0.9,2.6c0.2,0.6,1.4,1.1,2.8,1.1h13.8
									c1.3,0,2.2-0.5,1.9-1.1l-1.1-2.6c-0.3-0.6-1.5-1.1-2.8-1.1H371.7z"/>
							</g>
							<g>
								<path class="st38" d="M411.5,434.2c0.3,0.6-0.6,1.2-2,1.2h-13.8c-1.4,0-2.8-0.5-3.1-1.2l-1.2-2.6c-0.3-0.6,0.6-1.2,2-1.2
									h13.5c1.4,0,2.8,0.5,3.2,1.2L411.5,434.2z"/>
								<path class="st41" d="M409.5,435.5h-13.8c-1.6,0-3.1-0.6-3.4-1.3l-1.2-2.6c-0.3-0.7,0.7-1.3,2.2-1.3h13.5
									c1.5,0,3.1,0.6,3.4,1.3l1.4,2.6C412.1,434.9,411.1,435.5,409.5,435.5z M393.5,430.5c-1.3,0-2.1,0.5-1.9,1.1l1.2,2.6
									c0.3,0.6,1.6,1.1,2.9,1.1h13.8c1.3,0,2.1-0.5,1.8-1.1l-1.4-2.6c-0.3-0.6-1.6-1.1-2.9-1.1H393.5z"/>
							</g>
							<g>
								<path class="st38" d="M433.2,434.2c0.4,0.6-0.4,1.2-1.9,1.2h-13.8c-1.4,0-2.9-0.5-3.2-1.2l-1.4-2.6
									c-0.4-0.6,0.5-1.2,1.9-1.2h13.5c1.4,0,2.9,0.5,3.3,1.2L433.2,434.2z"/>
								<path class="st41" d="M431.4,435.5h-13.8c-1.6,0-3.1-0.6-3.5-1.3l-1.4-2.6c-0.4-0.7,0.5-1.3,2.1-1.3h13.5
									c1.5,0,3.1,0.6,3.6,1.3l1.7,2.6C433.9,434.9,433,435.5,431.4,435.5z M414.9,430.5c-1.3,0-2.1,0.5-1.8,1.1l1.4,2.6
									c0.3,0.6,1.7,1.1,3,1.1h13.8c1.3,0,2.1-0.5,1.7-1.1l-1.7-2.6c-0.4-0.6-1.7-1.1-3-1.1H414.9z"/>
							</g>
							<g>
								<path class="st38" d="M455.4,434.2c0.5,0.6-0.3,1.2-1.8,1.2h-13.8c-1.4,0-2.9-0.5-3.4-1.2l-1.7-2.6
									c-0.4-0.6,0.4-1.2,1.8-1.2H450c1.4,0,2.9,0.5,3.4,1.2L455.4,434.2z"/>
								<path class="st41" d="M453.7,435.5h-13.8c-1.6,0-3.2-0.6-3.7-1.3l-1.7-2.6c-0.5-0.7,0.4-1.3,1.9-1.3H450
									c1.5,0,3.2,0.6,3.7,1.3l1.9,2.6C456.1,434.9,455.3,435.5,453.7,435.5z M436.6,430.5c-1.3,0-2,0.5-1.6,1.1l1.7,2.6
									c0.4,0.6,1.8,1.1,3.1,1.1h13.8c1.3,0,2-0.5,1.6-1.1l-1.9-2.6c-0.4-0.6-1.8-1.1-3.1-1.1H436.6z"/>
							</g>
							<g>
								<path class="st38" d="M171.1,452.7c-0.3,0.6-1.9,1.2-3.5,1.2h-26.2c-1.6,0-2.5-0.5-2.1-1.2l4.1-6.2c0.4-0.6,2-1.2,3.5-1.2
									h25.3c1.5,0,2.5,0.5,2.1,1.2L171.1,452.7z"/>
								<path class="st41" d="M167.6,454h-26.2c-1.7,0-2.7-0.6-2.2-1.3l4.1-6.2c0.5-0.7,2.2-1.3,3.8-1.3h25.3c1.6,0,2.7,0.6,2.3,1.3
									l-3.3,6.2C170.9,453.4,169.3,454,167.6,454z M146.9,445.5c-1.4,0-2.8,0.5-3.2,1.1l-4.1,6.2c-0.4,0.6,0.5,1.1,1.9,1.1h26.2
									c1.4,0,2.8-0.5,3.2-1.1l3.3-6.2c0.3-0.6-0.6-1.1-1.9-1.1H146.9z"/>
							</g>
							<g>
								<path class="st38" d="M172.2,462c-0.3,0.6-1.9,1.2-3.5,1.2h-33.4c-1.6,0-2.6-0.5-2.2-1.2l4.1-6.2c0.4-0.6,2-1.2,3.6-1.2
									h32.2c1.6,0,2.6,0.5,2.3,1.2L172.2,462z"/>
								<path class="st41" d="M168.6,463.3h-33.4c-1.8,0-2.8-0.6-2.3-1.3l4.1-6.2c0.5-0.7,2.2-1.3,3.9-1.3h32.2
									c1.7,0,2.8,0.6,2.4,1.3l-3.1,6.2C172.1,462.7,170.4,463.3,168.6,463.3z M140.8,454.8c-1.4,0-2.9,0.5-3.3,1.1l-4.1,6.2
									c-0.4,0.6,0.5,1.1,2,1.1h33.4c1.5,0,2.9-0.5,3.2-1.1l3.1-6.2c0.3-0.6-0.6-1.1-2.1-1.1H140.8z"/>
							</g>
							<g>
								<path class="st38" d="M180.2,471.3c-0.3,0.6-1.9,1.2-3.6,1.2h-47.4c-1.7,0-2.7-0.5-2.3-1.2l4.1-6.2c0.4-0.6,2.1-1.2,3.7-1.2
									h45.8c1.6,0,2.7,0.5,2.4,1.2L180.2,471.3z"/>
								<path class="st41" d="M176.6,472.5h-47.4c-1.8,0-2.9-0.6-2.5-1.3l4.1-6.2c0.5-0.7,2.3-1.3,4-1.3h45.8c1.8,0,2.9,0.6,2.6,1.3
									l-2.8,6.2C180.2,472,178.4,472.5,176.6,472.5z M134.8,464c-1.5,0-3,0.5-3.4,1.1l-4.1,6.2c-0.4,0.6,0.5,1.1,2.1,1.1h47.3
									c1.5,0,3-0.5,3.3-1.1l2.8-6.2c0.3-0.6-0.7-1.1-2.2-1.1H134.8z"/>
							</g>
							<g>
								<path class="st38" d="M226.5,481.7c-0.2,0.6-1.7,1.2-3.5,1.2h-23.1c-1.8,0-3-0.5-2.7-1.2l2.7-7.3c0.2-0.6,1.8-1.2,3.5-1.2
									h22.3c1.7,0,2.9,0.5,2.8,1.2L226.5,481.7z"/>
								<path class="st41" d="M223,483h-23.2c-1.9,0-3.2-0.6-3-1.3l2.7-7.3c0.3-0.7,2-1.3,3.8-1.3h22.3c1.8,0,3.2,0.6,3,1.3
									l-1.9,7.3C226.6,482.4,224.9,483,223,483z M203.3,473.3c-1.5,0-3,0.5-3.2,1.1l-2.7,7.3c-0.2,0.6,0.9,1.1,2.5,1.1H223
									c1.6,0,3-0.5,3.2-1.1l1.9-7.3c0.2-0.6-1-1.1-2.5-1.1H203.3z"/>
							</g>
							<g>
								<path class="st38" d="M386.8,481.7c0.2,0.6-1,1.2-2.8,1.2h-23.1c-1.8,0-3.3-0.5-3.5-1.2l-1.7-7.3c-0.2-0.6,1.1-1.2,2.8-1.2
									h22.3c1.7,0,3.2,0.5,3.5,1.2L386.8,481.7z"/>
								<path class="st41" d="M384.1,483h-23.2c-1.9,0-3.6-0.6-3.7-1.3l-1.7-7.3c-0.2-0.7,1.2-1.3,3-1.3h22.3c1.8,0,3.5,0.6,3.8,1.3
									l2.5,7.3C387.3,482.4,386,483,384.1,483z M358.6,473.3c-1.6,0-2.7,0.5-2.6,1.1l1.7,7.3c0.1,0.6,1.6,1.1,3.2,1.1H384
									c1.6,0,2.7-0.5,2.5-1.1l-2.5-7.3c-0.2-0.6-1.6-1.1-3.2-1.1H358.6z"/>
							</g>
							<g>
								<path class="st38" d="M462.3,443.6c0.5,0.6-0.4,1.2-1.9,1.2h-25.9c-1.5,0-3-0.5-3.4-1.2l-3.7-6.2c-0.4-0.6,0.5-1.2,1.9-1.2
									h24.9c1.4,0,3,0.5,3.5,1.2L462.3,443.6z"/>
								<path class="st41" d="M460.5,444.8h-25.9c-1.6,0-3.3-0.6-3.7-1.3l-3.7-6.2c-0.4-0.7,0.5-1.3,2.1-1.3h24.9
									c1.6,0,3.3,0.6,3.8,1.3l4.5,6.2C463,444.2,462.1,444.8,460.5,444.8z M429.4,436.3c-1.3,0-2.1,0.5-1.8,1.1l3.7,6.2
									c0.4,0.6,1.8,1.1,3.1,1.1h25.9c1.4,0,2.1-0.5,1.7-1.1l-4.5-6.2c-0.4-0.6-1.9-1.1-3.2-1.1H429.4z"/>
							</g>
							<g>
								<path class="st38" d="M475.9,462c0.5,0.6-0.5,1.2-2.1,1.2h-33.7c-1.6,0-3.2-0.5-3.6-1.2l-3.5-6.2c-0.4-0.6,0.6-1.2,2.2-1.2
									h32.5c1.6,0,3.2,0.5,3.7,1.2L475.9,462z"/>
								<path class="st41" d="M473.8,463.3h-33.7c-1.8,0-3.5-0.6-3.9-1.3l-3.5-6.2c-0.4-0.7,0.7-1.3,2.4-1.3h32.5
									c1.7,0,3.5,0.6,4,1.3l4.5,6.2C476.6,462.7,475.6,463.3,473.8,463.3z M435.1,454.8c-1.4,0-2.3,0.5-2,1.1l3.5,6.2
									c0.3,0.6,1.8,1.1,3.3,1.1h33.7c1.5,0,2.3-0.5,1.9-1.1l-4.5-6.2c-0.4-0.6-2-1.1-3.4-1.1H435.1z"/>
							</g>
							<g>
								<path class="st38" d="M482.7,471.3c0.5,0.6-0.5,1.2-2.2,1.2h-47.2c-1.7,0-3.3-0.5-3.7-1.2l-3.2-6.2
									c-0.3-0.6,0.7-1.2,2.3-1.2h45.6c1.6,0,3.3,0.5,3.8,1.2L482.7,471.3z"/>
								<path class="st41" d="M480.5,472.5h-47.2c-1.8,0-3.6-0.6-4-1.3l-3.2-6.2c-0.4-0.7,0.8-1.3,2.5-1.3h45.6
									c1.8,0,3.6,0.6,4.1,1.3l4.5,6.2C483.4,472,482.4,472.5,480.5,472.5z M428.8,464c-1.5,0-2.5,0.5-2.1,1.1l3.3,6.2
									c0.3,0.6,1.8,1.1,3.4,1.1h47.2c1.5,0,2.4-0.5,2-1.1l-4.5-6.2c-0.4-0.6-2-1.1-3.5-1.1H428.8z"/>
							</g>
							<g>
								<path class="st38" d="M439,481.7c0.3,0.6-0.8,1.2-2.5,1.2h-16.8c-1.8,0-3.4-0.5-3.7-1.2l-1.1-2.5c-0.3-0.6,0.9-1.2,2.6-1.2
									h16.5c1.7,0,3.4,0.5,3.8,1.2L439,481.7z"/>
								<path class="st41" d="M436.5,483h-16.8c-1.9,0-3.7-0.6-4-1.3l-1.1-2.5c-0.3-0.7,0.9-1.3,2.8-1.3h16.5c1.9,0,3.7,0.6,4.1,1.3
									l1.3,2.5C439.6,482.4,438.4,483,436.5,483z M417.4,478.1c-1.6,0-2.6,0.5-2.4,1.1l1.1,2.5c0.3,0.6,1.8,1.1,3.4,1.1h16.8
									c1.6,0,2.7-0.5,2.3-1.1l-1.3-2.5c-0.3-0.6-1.9-1.1-3.4-1.1H417.4z"/>
							</g>
							<g>
								<path class="st38" d="M490.3,481.7c0.5,0.6-0.6,1.2-2.3,1.2h-16.8c-1.8,0-3.5-0.5-3.9-1.2l-1.6-2.5
									c-0.4-0.6,0.6-1.2,2.4-1.2h16.5c1.7,0,3.5,0.5,4,1.2L490.3,481.7z"/>
								<path class="st41" d="M488.1,483h-16.8c-1.9,0-3.8-0.6-4.3-1.3l-1.6-2.5c-0.5-0.7,0.7-1.3,2.6-1.3h16.5
									c1.9,0,3.8,0.6,4.3,1.3l1.8,2.5C491.1,482.4,490,483,488.1,483z M468.1,478.1c-1.6,0-2.6,0.5-2.2,1.1l1.6,2.5
									c0.4,0.6,2,1.1,3.6,1.1h16.8c1.6,0,2.6-0.5,2.1-1.1l-1.8-2.5c-0.4-0.6-2.1-1.1-3.7-1.1H468.1z"/>
							</g>
							<g>
								<path class="st38" d="M464.6,481.7c0.4,0.6-0.7,1.2-2.4,1.2h-16.8c-1.8,0-3.5-0.5-3.8-1.2l-4-7.3c-0.4-0.6,0.7-1.2,2.4-1.2
									h16.2c1.7,0,3.4,0.5,3.8,1.2L464.6,481.7z"/>
								<path class="st41" d="M462.3,483h-16.8c-1.9,0-3.8-0.6-4.1-1.3l-4-7.3c-0.4-0.7,0.8-1.3,2.6-1.3h16.2c1.8,0,3.7,0.6,4.1,1.3
									l4.7,7.3C465.4,482.4,464.2,483,462.3,483z M440.1,473.3c-1.5,0-2.5,0.5-2.2,1.1l4,7.3c0.3,0.6,1.9,1.1,3.5,1.1h16.8
									c1.6,0,2.6-0.5,2.2-1.1l-4.7-7.3c-0.4-0.6-1.9-1.1-3.5-1.1H440.1z"/>
							</g>
							<g>
								<path class="st38" d="M354.9,481.7c0.1,0.6-1.2,1.2-2.9,1.2H232c-1.8,0-3-0.5-2.9-1.2l1.8-7.3c0.2-0.6,1.7-1.2,3.4-1.2
									h115.6c1.7,0,3.2,0.5,3.3,1.2L354.9,481.7z"/>
							</g>
						</g>
					</g>
					<path class="st42" d="M138.7,459.6c-0.1,0.2-0.5,0.3-0.9,0.3c-0.4,0-0.6-0.1-0.5-0.3c0.1-0.2,0.5-0.3,0.9-0.3
						C138.6,459.3,138.8,459.4,138.7,459.6z"/>
				</g>
			</g>
		</g>
	</g>
</g>
</svg>
