<?xml version="1.0" encoding="utf-8"?>
<!-- Generator: Adobe Illustrator 20.0.0, SVG Export Plug-In . SVG Version: 6.00 Build 0)  -->
<svg version="1.1" id="Layer_1" xmlns="http://www.w3.org/2000/svg" xmlns:xlink="http://www.w3.org/1999/xlink" x="0px" y="0px"
	 viewBox="0 0 612 612" style="enable-background:new 0 0 612 612;" xml:space="preserve">
<style type="text/css">
	.st0{fill:#328ECD;}
	.st1{fill:none;stroke:#335FAB;stroke-miterlimit:10;}
	.st2{opacity:0.2;fill:#CCCCCC;}
	.st3{fill:#08162C;}
	.st4{fill:#EE3E25;}
	.st5{fill:#F2F2F2;}
	.st6{fill:#FBFCFA;}
	.st7{fill:#808080;}
	.st8{fill:none;}
	.st9{font-family:'OpenSans-Bold';}
	.st10{font-size:3.1438px;}
	.st11{fill:#D02027;}
	.st12{fill:#FFFFFF;}
	.st13{opacity:0.2;}
	.st14{fill:#CCCCCC;}
	.st15{clip-path:url(#SVGID_2_);fill:#EE3E25;}
	.st16{clip-path:url(#SVGID_2_);fill:#F4F5F5;}
	.st17{clip-path:url(#SVGID_2_);fill:#08162C;}
	.st18{clip-path:url(#SVGID_2_);fill:none;stroke:#08162C;stroke-width:0.5;stroke-miterlimit:10;}
	.st19{clip-path:url(#SVGID_4_);fill:#EE3E25;}
	.st20{clip-path:url(#SVGID_4_);}
	.st21{opacity:0.5;fill:#FFFFFF;}
	.st22{opacity:0.3;}
</style>
<g>
	<ellipse class="st0" cx="305" cy="306" rx="306" ry="304.7"/>
</g>
<g>
	<g>
		<circle class="st1" cx="226.4" cy="308.3" r="173.5"/>
		<circle class="st1" cx="376.5" cy="308.3" r="173.5"/>
		<circle class="st1" cx="306.2" cy="308.3" r="173.5"/>
	</g>
	<polygon class="st2" points="133.3,375.8 116.8,375.8 116.8,359.3 98.4,359.3 98.4,375.8 81.8,375.8 81.8,394.2 98.4,394.2 
		98.4,410.8 116.8,410.8 116.8,394.2 133.3,394.2 	"/>
	<g>
		<g>
			<path class="st3" d="M376.7,440.8c0,7.5-6.1,13.6-13.6,13.6H247.8c-7.5,0-13.6-6.1-13.6-13.6V175.6c0-7.5,6.1-13.6,13.6-13.6
				h115.3c7.5,0,13.6,6.1,13.6,13.6V440.8z"/>
		</g>
		<g>
			<rect x="242.9" y="199.7" class="st4" width="124.4" height="220.8"/>
		</g>
		<path class="st5" d="M304.9,427.4c-5.7,0-10.4,4.6-10.4,10.4c0,5.7,4.6,10.4,10.4,10.4c5.7,0,10.4-4.6,10.4-10.4
			C315.3,432.1,310.6,427.4,304.9,427.4z M304.9,447.1c-5.1,0-9.3-4.2-9.3-9.3c0-5.1,4.2-9.3,9.3-9.3c5.1,0,9.3,4.2,9.3,9.3
			C314.2,442.9,310,447.1,304.9,447.1z"/>
		<g>
			<path class="st0" d="M316.7,182.5c0,0.8-0.7,1.5-1.5,1.5h-20.8c-0.8,0-1.5-0.7-1.5-1.5l0,0c0-0.8,0.7-1.5,1.5-1.5h20.8
				C316.1,181.1,316.7,181.7,316.7,182.5L316.7,182.5z"/>
		</g>
		<g>
			<circle class="st0" cx="282.9" cy="183" r="2.9"/>
		</g>
		<g>
			<circle class="st0" cx="305.7" cy="173.6" r="2.1"/>
		</g>
		<circle class="st6" cx="250.4" cy="204.6" r="1"/>
		<circle class="st7" cx="253.8" cy="204.6" r="1"/>
		<circle class="st6" cx="253.8" cy="204.6" r="1"/>
		<circle class="st7" cx="257.2" cy="204.6" r="1"/>
		<circle class="st6" cx="257.2" cy="204.6" r="1"/>
		<circle class="st6" cx="260.6" cy="204.6" r="1"/>
		<rect x="349.1" y="203.1" class="st6" width="5.2" height="2.5"/>
		<rect x="348.4" y="203.7" class="st6" width="4.2" height="1.4"/>
		<rect x="349.8" y="203.1" class="st8" width="19.4" height="13.4"/>
		<text transform="matrix(1 0 0 1 355.3958 205.4795)" class="st6 st9 st10">100%</text>
		<polygon class="st11" points="242.9,420.5 367.3,199.7 367.3,420.5 		"/>
		<g>
			<path class="st6" d="M351.2,397.2c0,5.5-1.5,10-3.4,10h-86.5c-1.9,0-3.4-4.5-3.4-10l0,0c0-5.5,1.5-10.1,3.4-10.1h86.5
				C349.7,387.2,351.2,391.7,351.2,397.2L351.2,397.2z"/>
			<g id="group_1_">
				<path class="st12" d="M329.2,277.5c0,2.2,0,5.3,0,5.3c0,0.3-0.3,0.7-0.6,0.7h-47.2c-0.3,0-0.6-0.4-0.6-0.7c0,0,0-3,0-5.3
					c0-2.2,0.4-3.1,2.1-4.1c1.4-0.8,10.4-6,14.7-7.8v-7.9c-1.3-1-2.1-2.4-2.1-4.7c0-5.3,0-6.3,0-6.3c0-5.2,3.2-9.5,9.5-9.5
					s9.5,4.3,9.5,9.5v6.3c0,2.2-0.8,3.7-2.1,4.7v7.9c4.5,1.8,13.4,7.1,14.7,7.8C328.8,274.4,329.2,275.3,329.2,277.5z M281.4,270.7
					l0.3-0.2c4.8-2.7,8.6-4.8,11.5-6.3c-1.3-0.6-2.7-1.2-3.9-1.6v-5.5c2.1-0.7,2.1-1.7,2.1-3.2v-3.7c0-3.6-1.9-6.6-6.3-6.6
					s-6.3,3-6.3,6.6c0,0,0,0.1,0,3.7c0,1.6,0,2.6,2.1,3.3v5.5c-4.2,1.3-9.8,4.9-10.7,5.4c-1.2,0.7-1.9,1.3-1.9,2.8
					c0,1.5,0,3.7,0,3.7c0,0.2,0.2,0.5,0.4,0.5h9.3C278.3,273.4,279.2,271.9,281.4,270.7z M339.9,268.1c-0.9-0.5-6.5-4.2-10.7-5.4
					v-5.5c2.1-0.7,2.1-1.7,2.1-3.2v-3.7c0-3.6-1.9-6.6-6.3-6.6c-4.4,0-6.3,3-6.3,6.6c0,0,0,0.1,0,3.7c0,1.6,0,2.6,2.1,3.3v5.5
					c-1.2,0.4-2.5,0.9-3.8,1.6c4,2,8.8,4.8,11,6l0.8,0.4c2.1,1.2,3.1,2.7,3.5,4.4h9.3c0.2,0,0.4-0.3,0.4-0.5c0,0,0-2.1,0-3.7
					C341.8,269.4,341,268.8,339.9,268.1z"/>
			</g>
			<rect x="254.6" y="317.5" class="st12" width="100.7" height="4.3"/>
			<rect x="254.6" y="326.8" class="st12" width="100.7" height="4.3"/>
			<rect x="254.6" y="335.9" class="st12" width="100.7" height="4.3"/>
		</g>
	</g>
	<polygon class="st2" points="437.4,312.8 423.8,304.2 437,295.9 427.3,280.6 415.7,288 415.7,274.2 397.6,274.2 397.6,287.7 
		386.3,280.6 376.7,295.9 389.9,304.2 376.3,312.8 385.9,328.1 397.6,320.7 397.6,334.5 415.7,334.5 415.7,320.5 427.8,328.1 	"/>
	<g class="st13">
		<path class="st14" d="M562,199.7c0,4.6-1,9-2.9,12.9l22.9,13.2c4.1-7.8,6.4-16.7,6.4-26.2c0-9.4-2.3-18.3-6.4-26.2l-22.9,13.2
			C561,190.7,562,195.1,562,199.7z"/>
		<path class="st14" d="M474.1,199.7c0,26.1,17.5,48.1,41.4,54.9l6.1-25.7c-12.2-4.1-21.1-15.6-21.1-29.2c0-17,13.8-30.8,30.8-30.8
			c10.4,0,19.6,5.2,25.2,13.1l22.9-13.2c-10.2-15.8-27.9-26.3-48.1-26.3C499.7,142.6,474.1,168.2,474.1,199.7z"/>
		<path class="st14" d="M531.3,256.9c3.6,0,7-0.3,10.4-1l-6.1-25.7c-1.4,0.2-2.9,0.3-4.3,0.3c-1.5,0-2.9-0.1-4.3-0.3l-6.1,25.7
			C524.2,256.6,527.7,256.9,531.3,256.9z"/>
		<path class="st14" d="M579.3,230.7l-22.9-13.2c-3.8,5.3-9.2,9.4-15.5,11.5l6.1,25.7C560.4,250.8,571.9,242.2,579.3,230.7z"/>
	</g>
	<g class="st13">
		<rect x="21.6" y="238.2" class="st14" width="7.5" height="13.7"/>
		<rect x="81.8" y="229.9" class="st14" width="7.5" height="21.9"/>
		<rect x="36.6" y="231.1" class="st14" width="7.5" height="20.8"/>
		<rect x="66.7" y="233.1" class="st14" width="7.5" height="18.7"/>
		<rect x="51.7" y="225.5" class="st14" width="7.5" height="26.3"/>
		<rect x="158.1" y="240.9" class="st14" width="7.5" height="13.7"/>
		<rect x="97.9" y="240.9" class="st14" width="7.5" height="21.9"/>
		<rect x="143" y="240.9" class="st14" width="7.5" height="20.8"/>
		<rect x="112.9" y="240.9" class="st14" width="7.5" height="18.7"/>
		<rect x="128" y="240.9" class="st14" width="7.5" height="26.3"/>
	</g>
	<path class="st2" d="M193,285.6h-0.6h-11.3h-0.6c-1,0-1.7,0.8-1.7,1.7c0,1,0.8,1.7,1.7,1.7h0.6v29.4v15.1v9.4
		c0,3.1,2.5,5.6,5.6,5.6c3.1,0,5.6-2.5,5.6-5.6v-9.4v-15.1v-29.4h0.6c1,0,1.7-0.8,1.7-1.7C194.7,286.4,193.9,285.6,193,285.6z"/>
	<path class="st5" d="M462,347.4h-0.4h-7.8h-0.4c-0.7,0-1.2,0.5-1.2,1.2c0,0.7,0.5,1.2,1.2,1.2h0.4v20.4v10.5v6.5
		c0,2.2,1.8,3.9,3.9,3.9c2.2,0,3.9-1.8,3.9-3.9v-6.5v-10.5v-20.4h0.4c0.7,0,1.2-0.5,1.2-1.2C463.2,347.9,462.7,347.4,462,347.4z"/>
	<g class="st13">
		<path class="st14" d="M416.5,434.3c-3.8,0-7.2,1.6-9.6,4.2c-2.4-2.6-5.8-4.2-9.6-4.2c-7.3,0-13.1,5.9-13.1,13.2c0,2,0.3,3.8,1,5.6
			c0,0,0.5,1.6,1,2.5c5.5,11.4,20.8,18.8,20.8,18.8s15.2-7.4,20.8-18.8c0,0,0.7-1.5,1-2.5c0.6-1.8,0.9-3.7,0.9-5.6
			C429.6,440.2,423.7,434.3,416.5,434.3L416.5,434.3z M416.5,434.3"/>
	</g>
	<g class="st13">
		<path class="st14" d="M228.3,377.6c0-3-0.9-5.3-2.8-7c-1.8-1.6-4.5-2.5-7.8-2.5c-3,0-6.4,0.7-10,1.9c-3.4-6.6-8-10.7-13-10.7
			c-5,0-9.6,4.1-13,10.7c-3.6-1.2-7-1.9-10-1.9c-3.3,0-5.9,0.8-7.8,2.5c-1.9,1.7-2.8,4-2.8,7c0,5.6,3.4,12.9,9.2,20.3
			c-5.8,7.4-9.2,14.7-9.2,20.3c0,3,0.9,5.3,2.8,7c1.8,1.6,4.5,2.5,7.8,2.5c3,0,6.4-0.7,10-1.9c3.4,6.6,7.9,10.7,13,10.7
			c5,0,9.6-4.1,13-10.7c3.6,1.2,7,1.9,10,1.9c3.3,0,5.9-0.8,7.8-2.5c1.9-1.7,2.8-4,2.8-7c0-5.6-3.4-12.9-9.2-20.3
			C224.9,390.5,228.3,383.2,228.3,377.6z M217.7,369.3c3.1,0,5.4,0.7,7.1,2.2c1.6,1.4,2.4,3.5,2.4,6.2c0,5.3-3.2,12.3-8.8,19.5
			c-1.6-2-3.4-4-5.3-5.9c-0.7-7.7-2.5-14.7-5-20.1C211.6,369.9,214.9,369.3,217.7,369.3z M201.8,419c-1.3,0-2.4,0.7-2.9,1.8
			c-1-0.6-2.1-1.2-3.1-1.8c4.1-2.6,8.3-5.7,12.2-9.2c1.4-1.2,2.7-2.5,4-3.8c-0.7,7.1-2.4,13.5-4.8,18.5c-0.8-0.3-1.6-0.6-2.4-0.9
			c0.2-0.4,0.3-0.9,0.3-1.3C205.1,420.4,203.6,419,201.8,419z M207.3,409c-4.1,3.6-8.3,6.7-12.5,9.4c-4.2-2.6-8.5-5.8-12.5-9.4
			c-1.7-1.5-3.4-3.1-4.9-4.7c-0.2-2.1-0.3-4.2-0.3-6.3c0-2.2,0.1-4.3,0.3-6.3c1.5-1.6,3.2-3.1,4.9-4.7c4.1-3.6,8.3-6.7,12.5-9.4
			c4.2,2.6,8.5,5.8,12.5,9.4c1.7,1.5,3.4,3.1,4.9,4.7c0.2,2.1,0.3,4.2,0.3,6.3c0,2.2-0.1,4.3-0.3,6.3
			C210.6,405.9,209,407.4,207.3,409z M178.8,382.6c1.8,0,3.3-1.5,3.3-3.3c0-1.3-0.7-2.4-1.8-2.9c0.6-1.8,1.3-3.5,2-5
			c3.6,1.3,7.5,3.2,11.5,5.6c-4.1,2.6-8.3,5.7-12.2,9.2c-1.4,1.2-2.7,2.5-4,3.8c0.3-2.5,0.6-5,1.1-7.3
			C178.6,382.6,178.7,382.6,178.8,382.6z M193.7,419c-3.9,2.4-7.8,4.2-11.5,5.6c-2.4-5-4.1-11.4-4.8-18.5c1.3,1.3,2.6,2.5,4,3.8
			C185.4,413.3,189.5,416.4,193.7,419z M176.1,403.1c-1.6-1.7-3.1-3.4-4.4-5.1c1.4-1.7,2.8-3.4,4.4-5.1c-0.1,1.7-0.2,3.4-0.2,5.1
			C175.9,399.7,176,401.4,176.1,403.1z M195.7,377c3.9-2.4,7.8-4.2,11.5-5.6c2.4,5,4.1,11.4,4.8,18.5c-1.3-1.3-2.6-2.5-4-3.8
			C204,382.7,199.9,379.6,195.7,377z M213.3,392.9c1.6,1.7,3.1,3.4,4.4,5.1c-1.4,1.7-2.8,3.4-4.4,5.1c0.1-1.7,0.2-3.4,0.2-5.1
			C213.5,396.2,213.4,394.5,213.3,392.9z M194.7,360.5c4.6,0,8.9,3.8,12,10c-3.8,1.4-7.9,3.4-12,5.9c-4.1-2.5-8.2-4.5-12-5.9
			C185.9,364.3,190.1,360.5,194.7,360.5z M162.2,377.6c0-2.7,0.8-4.7,2.4-6.2c1.6-1.5,4-2.2,7.1-2.2c2.8,0,6.1,0.6,9.5,1.8
			c-0.7,1.6-1.4,3.2-2,5c-0.2,0-0.3,0-0.5,0c-1.8,0-3.3,1.5-3.3,3.3c0,1.4,0.8,2.5,2,3c-0.6,2.8-1,5.7-1.3,8.8c-1.9,2-3.7,4-5.3,5.9
			C165.4,389.9,162.2,383,162.2,377.6z M171.7,426.7c-3.1,0-5.4-0.7-7.1-2.2c-1.6-1.4-2.4-3.5-2.4-6.2c0-5.3,3.2-12.3,8.8-19.5
			c1.6,2,3.4,4,5.3,5.9c0.7,7.7,2.5,14.7,5,20.1C177.8,426,174.5,426.7,171.7,426.7z M194.7,435.5c-4.6,0-8.9-3.8-12-10
			c3.8-1.4,7.9-3.4,12-5.9c1.3,0.8,2.6,1.5,3.8,2.2c0,0.1,0,0.3,0,0.4c0,1.8,1.5,3.3,3.3,3.3c0.9,0,1.8-0.4,2.4-1
			c0.9,0.4,1.7,0.7,2.5,1C203.6,431.7,199.3,435.5,194.7,435.5z M227.2,418.3c0,2.7-0.8,4.7-2.4,6.2c-1.6,1.5-4,2.2-7.1,2.2
			c-2.8,0-6.1-0.6-9.5-1.8c2.6-5.4,4.4-12.3,5-20.1c1.9-2,3.7-4,5.3-5.9C224,406,227.2,413,227.2,418.3z"/>
		<circle class="st14" cx="194.7" cy="398" r="7.9"/>
	</g>
	<g>
		<g>
			<defs>
				<circle id="SVGID_1_" cx="303.4" cy="71.9" r="44.9"/>
			</defs>
			<clipPath id="SVGID_2_">
				<use xlink:href="#SVGID_1_"  style="overflow:visible;"/>
			</clipPath>
			<circle class="st15" cx="303.4" cy="71.9" r="44.9"/>
			<path class="st16" d="M336.1,99.8c-4-1.9-19.3-8.5-22.5-10.5l0-7.8c0,0,4.5-5.4,5.2-10.9c0,0,1.9,2,2.6-1.7c0.6-3,1-6.5-0.5-6.6
				c0-0.5-0.1-0.9-0.1-1.3c0-0.2,0-0.4,0-0.5c0-8.8-3.9-19.6-17.1-19.6c-12.4,0-17.1,10.8-17.1,19.6c0,0.7,0,1.4,0.1,2
				c-2.4-0.8-1.9,3.1-1.2,6.5c0.7,3.7,2.6,1.7,2.6,1.7c0.7,5.5,5.2,10.9,5.2,10.9l0,7.8c-3.1,2-18.5,8.6-22.4,10.5
				c-4,1.9-4.4,20.7-4.4,20.7l39.2,11.3l34.9-11.3C340.5,120.5,340.1,101.7,336.1,99.8z"/>
			<path class="st17" d="M293.2,89.3c-1.7-1.2,10.2,21.9,10.2,21.9l10.2-21.9C313.7,89.3,303.5,96.4,293.2,89.3z"/>
			<path class="st17" d="M303.8,40.4c0,0-18.3-1.4-17.1,22.1l2.9,2.3l3.5-11.3c0,0,2.4,0.7,8.6,0.8v0h1c0.3,0,0.5,0,0.8,0v0l0,0v0
				c0.3,0,0.5,0,0.8,0h0.7v0c6.5-0.1,9.7-0.8,9.7-0.8l3.5,11.3l2.8-2.4C322.7,38.8,303.8,40.4,303.8,40.4z"/>
			<path class="st18" d="M301.2,64.8c0,1.5-1.2,2.7-2.7,2.7h-2.7c-1.5,0-2.7-1.2-2.7-2.7l0,0c0-1.5,1.2-2.7,2.7-2.7h2.7
				C300,62,301.2,63.3,301.2,64.8L301.2,64.8z"/>
			<path class="st18" d="M313.7,64.8c0,1.5-1.2,2.7-2.7,2.7h-2.7c-1.5,0-2.7-1.2-2.7-2.7l0,0c0-1.5,1.2-2.7,2.7-2.7h2.7
				C312.5,62,313.7,63.3,313.7,64.8L313.7,64.8z"/>
			<line class="st18" x1="301.2" y1="64.8" x2="304.9" y2="64.8"/>
			<line class="st18" x1="313.7" y1="64.8" x2="319.7" y2="60.4"/>
			<line class="st18" x1="293" y1="64.8" x2="288.3" y2="60.4"/>
			<polygon class="st15" points="325.5,101.9 321.8,101.9 321.8,98.2 317.7,98.2 317.7,101.9 314,101.9 314,106 317.7,106 
				317.7,109.7 321.8,109.7 321.8,106 325.5,106 			"/>
		</g>
	</g>
	<g>
		<g>
			<defs>
				<circle id="SVGID_3_" cx="303.4" cy="538.3" r="44.9"/>
			</defs>
			<clipPath id="SVGID_4_">
				<use xlink:href="#SVGID_3_"  style="overflow:visible;"/>
			</clipPath>
			<circle class="st19" cx="303.4" cy="538.3" r="44.9"/>
			<polygon class="st19" points="325.5,568.4 321.8,568.4 321.8,564.7 317.7,564.7 317.7,568.4 314,568.4 314,572.5 317.7,572.5 
				317.7,576.2 321.8,576.2 321.8,572.5 325.5,572.5 			"/>
			<g id="user_1_" class="st20">
				<path id="user_2_" class="st12" d="M336.6,570.4c-2-1.1-15.1-8.9-21.8-11.6v-11.7c1.9-1.4,3.1-3.6,3.1-6.9v-9.3
					c0-7.7-4.7-14-14-14c-9.3,0-14,6.3-14,14c0,0,0,1.5,0,9.3c0,3.3,1.2,5.5,3.1,6.9v11.7c-6.3,2.7-19.8,10.4-21.8,11.6
					c-2.5,1.4-3.1,2.8-3.1,6c0,1.3,0,7.3,0,7.3c0,0.9,0.7,1.6,1.6,1.6h68.4c0.9,0,1.6-0.7,1.6-1.6c0,0,0-6,0-7.3
					C339.7,573.1,339.1,571.8,336.6,570.4z"/>
			</g>
		</g>
	</g>
	<g>
		<path class="st12" d="M127,360.3V394c0,1.2,0.9,2.1,2.1,2.1h44.3c1.2,0,2.1-0.9,2.1-2.1v-33.7H127z"/>
		<rect x="131.3" y="385.6" class="st4" width="6.3" height="6.3"/>
		<rect x="131.3" y="377.2" class="st4" width="6.3" height="6.3"/>
		<rect x="131.3" y="368.7" class="st4" width="6.3" height="6.3"/>
		<rect x="139.7" y="385.6" class="st4" width="6.3" height="6.3"/>
		<rect x="139.7" y="377.2" class="st4" width="6.3" height="6.3"/>
		<rect x="139.7" y="368.7" class="st4" width="6.3" height="6.3"/>
		<rect x="148.1" y="385.6" class="st4" width="6.3" height="6.3"/>
		<rect x="148.1" y="377.2" class="st4" width="6.3" height="6.3"/>
		<rect x="148.1" y="368.7" class="st4" width="6.3" height="6.3"/>
		<rect x="156.6" y="385.6" class="st4" width="6.3" height="6.3"/>
		<rect x="156.6" y="377.2" class="st4" width="6.3" height="6.3"/>
		<rect x="156.6" y="368.7" class="st4" width="6.3" height="6.3"/>
		<rect x="165" y="385.6" class="st4" width="6.3" height="6.3"/>
		<rect x="165" y="377.2" class="st4" width="6.3" height="6.3"/>
		<rect x="165" y="368.7" class="st4" width="6.3" height="6.3"/>
	</g>
	<path class="st12" d="M175.6,351.9v6.3H127v-6.3c0-1.2,0.9-2.1,2.1-2.1h4.2v-2.1c0-1.2,0.9-2.1,2.1-2.1h2.1c1.2,0,2.1,0.9,2.1,2.1
		v2.1h23.2v-2.1c0-1.2,0.9-2.1,2.1-2.1h2.1c1.2,0,2.1,0.9,2.1,2.1v2.1h4.2C174.6,349.7,175.6,350.7,175.6,351.9z"/>
	<g id="bell_3_">
		<path class="st4" d="M87,246.9c0.9,2.4,3.2,4.1,5.9,4.1c2.7,0,5-1.7,5.9-4.1c-1.9,0.1-3.8,0.2-5.9,0.2
			C90.8,247.1,88.8,247.1,87,246.9z"/>
		<path class="st12" d="M115.5,235.8h-0.8l-5.6-6.7l-3-15.6h0c-0.9-5.4-5.1-9.8-10.4-10.9c0,0,0,0,0-0.1l0.8-2.4
			c0.4-1.2-0.3-2.1-1.5-2.1h-4.4c-1.2,0-1.9,0.9-1.5,2.1l0.8,2.4c0,0,0,0,0,0.1c-5.3,1.2-9.5,5.5-10.4,10.9h0l-3,15.6l-5.6,6.7h-0.8
			c-1.2,0-2.2,1-2.2,2.2c0,1.2,0.9,2.6,2.1,3c0,0,9.5,3.6,22.8,3.6s22.8-3.6,22.8-3.6c1.1-0.4,2.1-1.8,2.1-3
			C117.8,236.8,116.8,235.8,115.5,235.8z M83.2,214.4l-2.9,16.2l-6.5,7.4H72l6.6-7.9l3.1-16.1c0.4-2.5,1.8-4.8,3.6-6.5l0.8,1.1
			C84.7,210,83.5,212.3,83.2,214.4z"/>
	</g>
	<g id="nameplate_x5F_alt_2_">
		<g>
			<path class="st12" d="M548.4,223.4V221v-29.6c0-2.7-2.2-4.9-4.9-4.9h-49.4c-2.7,0-4.9,2.2-4.9,4.9V221v2.5H548.4z M523.7,196.3
				H541v2.5h-17.3V196.3z M523.7,201.2H541v2.5h-17.3V201.2z M523.7,206.2H541v2.5h-17.3V206.2z M523.7,211.1H541v2.5h-17.3V211.1z
				 M523.7,216H536v2.5h-12.3V216z M496.6,198.5c0-1.2,1.1-2.2,2.5-2.2h17.3c1.4,0,2.5,1,2.5,2.2v17.8c0,1.2-1.1,2.2-2.5,2.2H499
				c-1.4,0-2.5-1-2.5-2.2V198.5z"/>
			<path class="st12" d="M489.2,225.9v9.9c0,2.7,2.2,4.9,4.9,4.9h9.9v-4.9h-3.7c-0.7,0-1.2-0.6-1.2-1.2v-2.5c0-0.7,0.6-1.2,1.2-1.2
				h9.9c0.7,0,1.2,0.6,1.2,1.2v2.5c0,0.7-0.6,1.2-1.2,1.2h-3.7v4.9h24.7v-4.9h-3.7c-0.7,0-1.2-0.6-1.2-1.2v-2.5
				c0-0.7,0.6-1.2,1.2-1.2h9.9c0.7,0,1.2,0.6,1.2,1.2v2.5c0,0.7-0.6,1.2-1.2,1.2h-3.7v4.9h9.9c2.7,0,4.9-2.2,4.9-4.9v-9.9H489.2z"/>
			<path class="st4" d="M500.2,211.5c0-0.7,0.1-1,0.7-1.3c0.4-0.2,4.1-1.4,5.4-2v-1.4c-0.7-0.2-1.5-1.3-1.5-2c0-1.7,0-3,0-3
				c0-1.6,1.1-3,3-3c2,0,3,1.3,3,3c0,0,0,1.4,0,3c0,0.7-0.8,1.8-1.5,2v1.4c1.3,0.6,5,1.8,5.4,2c0.5,0.3,0.7,0.6,0.7,1.3
				c0,0.3,0,1.6,0,1.6c0,0.2-0.1,0.3-0.3,0.3h-7.3h-7.3c-0.2,0-0.3-0.1-0.3-0.3C500.2,213,500.2,211.7,500.2,211.5z"/>
		</g>
		<path class="st21" d="M548.4,225.9h-59.2v-2.5h59.2V225.9z"/>
	</g>
	<g id="stats_3_">
		<g>
			<path class="st12" d="M503.6,353.4c2.8,0,5-2.2,5-5c0-2.8-2.2-5-5-5c-2.8,0-5,2.2-5,5c0,1.2,0.5,2.3,1.2,3.2l-6.7,10.1
				c-0.5-0.2-1-0.3-1.6-0.3c-2.8,0-5,2.2-5,5c0,0.2,0,0.4,0.1,0.6l-9.3,4.1c-0.9-1.1-2.3-1.7-3.8-1.7c-2.8,0-5,2.2-5,5
				c0,0.9,0.3,1.8,0.7,2.6l-8.8,10.1v-43.8h-2h-2v50.1h2h48.1v-2v-2h-44.1l9-10.4c0.6,0.3,1.3,0.4,2,0.4c2.8,0,5-2.2,5-5
				c0-0.2,0-0.3-0.1-0.5l9.4-4.1c0.9,1,2.2,1.7,3.7,1.7c2.8,0,5-2.2,5-5c0-1.1-0.4-2.2-1-3l6.7-10.2
				C502.8,353.4,503.2,353.4,503.6,353.4z"/>
		</g>
		<g class="st22">
			<path class="st12" d="M463.7,383.5h-3.2v-2h5L463.7,383.5z M466.5,375.5h-6v-2h6v-6h-6v-2h6v-6h-6v-2h6v-6h-6v-2h6v-6h2v6h6v-6h2
				v6h6v-6h2v6h6v-6h2v6h6v-1c0,1.2,0.5,2.3,1.2,3.2l-1.2,1.8v-2h-6v6h3.4l-1.3,2h-2.1v2.2c-0.3-0.1-0.7-0.1-1-0.1
				c-0.3,0-0.7,0-1,0.1v-2.1h-6v6h2.1c-0.1,0.3-0.1,0.7-0.1,1c0,0.2,0,0.4,0.1,0.6l-0.8,0.3h-1.3v0.6l-2,0.9v-1.5h-6v3.1
				c-0.6-0.4-1.3-0.8-2-0.9v-2.2h-6v6h0.1c-0.1,0.3-0.1,0.7-0.1,1c0,0.3,0.1,0.6,0.1,1h-0.1v2.5l-2,2.3V375.5z M484.6,357.4h6v-6h-6
				V357.4z M476.6,357.4h6v-6h-6V357.4z M476.6,365.4h6v-6h-6V365.4z M468.5,357.4h6v-6h-6V357.4z M468.5,365.4h6v-6h-6V365.4z
				 M500.6,344.4v-1.1h-2v5.1C498.6,346.8,499.4,345.4,500.6,344.4z M500.6,357.4h6v2h-6v6h6v2h-6v6h6v2h-6v6h6v2h-6v6h-2v-6h-6v6
				h-2v-6h-6v6h-2v-6h-6v6h-2v-6h-6v6h-2v-4.7l2.9-3.4h5.1v-2.1c0.7-0.2,1.4-0.5,2-0.9v3h6v-6h-4.1c0.1-0.3,0.1-0.6,0.1-1
				c0-0.2,0-0.3-0.1-0.5l1.2-0.5h2.9v-1.3l2-0.9v2.2h6v-2.1c0.3,0.1,0.7,0.1,1,0.1s0.7,0,1-0.1v2.1h6v-6h-2.1c0.1-0.3,0.1-0.6,0.1-1
				c0-0.4-0.1-0.7-0.1-1h2.1v-6h-0.3l2.3-3.5V357.4z M490.6,375.5h-6v6h6V375.5z M498.6,375.5h-6v6h6V375.5z"/>
		</g>
		<circle class="st4" cx="473.6" cy="374.6" r="5.1"/>
		<circle class="st4" cx="491.4" cy="366.6" r="5.1"/>
		<circle class="st4" cx="503.6" cy="348.6" r="5.1"/>
	</g>
</g>
</svg>
