<?xml version="1.0" encoding="utf-8"?>
<!-- Generator: Adobe Illustrator 20.0.0, SVG Export Plug-In . SVG Version: 6.00 Build 0)  -->
<svg version="1.1" id="Layer_1" xmlns="http://www.w3.org/2000/svg" xmlns:xlink="http://www.w3.org/1999/xlink" x="0px" y="0px"
	 viewBox="0 0 612 612" style="enable-background:new 0 0 612 612;" xml:space="preserve">
<style type="text/css">
	.st0{fill:#FCB415;}
	.st1{opacity:0.22;fill:#FFDB91;enable-background:new    ;}
	.st2{opacity:0.3;fill:#FFDB91;enable-background:new    ;}
	.st3{fill:none;stroke:#1D1C1A;stroke-miterlimit:10;}
	.st4{opacity:0.4;fill:#DFDFDF;enable-background:new    ;}
	.st5{fill:#BCBCBC;}
	.st6{fill:#DFDFDF;}
	.st7{fill:#151515;}
	.st8{fill:#1FAFE5;}
	.st9{fill:#EAEAEA;}
	.st10{fill:#504F58;}
	.st11{fill:#FFCE55;}
	.st12{opacity:0.4;fill:#151515;enable-background:new    ;}
	
		.st13{opacity:0.4;fill:none;stroke:#151515;stroke-width:3;stroke-linecap:round;stroke-linejoin:round;stroke-miterlimit:10;enable-background:new    ;}
	.st14{fill:#DBDADA;}
	.st15{fill:#737374;}
	.st16{fill:#A6A5A5;}
	.st17{fill:#ED3159;}
	.st18{fill:#FDBD27;}
	.st19{fill:#37B34A;}
	.st20{fill:#F0EFEF;}
	
		.st21{opacity:0.2;fill:none;stroke:#151515;stroke-width:3;stroke-linecap:round;stroke-linejoin:round;stroke-miterlimit:10;enable-background:new    ;}
	.st22{fill:#CECECE;}
	.st23{fill:#388FCD;}
	.st24{opacity:0.24;fill:url(#SVGID_1_);enable-background:new    ;}
	.st25{fill:#FFFFFF;}
	.st26{fill:#E34825;}
	.st27{fill:#B5C7C9;}
	.st28{fill:#E6E6E5;}
	.st29{opacity:0.24;fill:url(#SVGID_2_);enable-background:new    ;}
	.st30{fill:#D4453B;}
	.st31{fill:#E75D25;}
	.st32{opacity:0.4;fill:url(#SVGID_3_);enable-background:new    ;}
	.st33{opacity:8.000000e-02;enable-background:new    ;}
	.st34{opacity:0.6;}
	.st35{fill:#F79225;}
	.st36{fill:#78909C;}
	.st37{fill:#546E7A;}
	.st38{opacity:0.2;fill:url(#SVGID_4_);enable-background:new    ;}
	.st39{opacity:0.2;fill:url(#SVGID_5_);enable-background:new    ;}
</style>
<g>
	<circle class="st0" cx="306" cy="306" r="306"/>
	<path class="st1" d="M351.9,402.5h-45.5c-2.4-9.6-6.3-18.7-11.2-27.1l32.2-32.2c0.9-0.9,0.9-2.5,0-3.4l-31.9-31.9
		c-0.9-0.9-2.5-0.9-3.4,0L259.8,340c-8.3-5-17.4-8.8-27.1-11.2v-45.5c0-1.3-1.1-2.4-2.4-2.4h-45.2c-1.3,0-2.4,1.1-2.4,2.4v45.5
		c-9.6,2.4-18.7,6.3-27.1,11.2l-32.2-32.2c-0.9-0.9-2.5-0.9-3.4,0l-31.9,31.9c-0.9,0.9-0.9,2.5,0,3.4l32.2,32.2
		c-5,8.3-8.8,17.4-11.2,27.1H63.6c-1.3,0-2.4,1.1-2.4,2.4V450c0,1.3,1.1,2.4,2.4,2.4h45.5c2.4,9.6,6.3,18.7,11.2,27.1l-32.2,32.2
		c-0.9,0.9-0.9,2.5,0,3.4L120,547c0.9,0.9,2.5,0.9,3.4,0l32.2-32.2c8.3,5,17.4,8.8,27.1,11.2v45.5c0,1.3,1.1,2.4,2.4,2.4h45.2
		c1.3,0,2.4-1.1,2.4-2.4V526c9.6-2.4,18.7-6.3,27.1-11.2L292,547c0.9,0.9,2.5,0.9,3.4,0l31.9-31.9c0.9-0.9,0.9-2.5,0-3.4l-32.2-32.2
		c5-8.3,8.8-17.4,11.2-27.1h45.5c1.3,0,2.4-1.1,2.4-2.4v-45.2C354.4,403.6,353.3,402.5,351.9,402.5z M207.8,471.1
		c-24.1,0-43.6-19.5-43.6-43.6s19.5-43.6,43.6-43.6s43.6,19.5,43.6,43.6C251.4,451.6,231.8,471.1,207.8,471.1z"/>
	<path class="st2" d="M575.9,198.1h-53c-2.8-11.2-7.3-21.8-13.1-31.5l37.5-37.5c1.1-1.1,1.1-2.9,0-4l-37.2-37.2
		c-1.1-1.1-2.9-1.1-4,0l-37.5,37.5c-9.7-5.8-20.3-10.2-31.5-13.1v-53c0-1.6-1.3-2.8-2.8-2.8h-52.6c-1.6,0-2.8,1.3-2.8,2.8v53
		c-11.2,2.8-21.8,7.3-31.5,13.1l-37.5-37.5c-1.1-1.1-2.9-1.1-4,0l-37.2,37.2c-1.1,1.1-1.1,2.9,0,4l37.5,37.5
		c-5.8,9.7-10.2,20.3-13.1,31.5h-53c-1.6,0-2.8,1.3-2.8,2.8v52.6c0,1.6,1.3,2.8,2.8,2.8h53c2.8,11.2,7.3,21.8,13.1,31.5l-37.5,37.5
		c-1.1,1.1-1.1,2.9,0,4l37.2,37.2c1.1,1.1,2.9,1.1,4,0l37.5-37.5c9.7,5.8,20.3,10.2,31.5,13.1v53c0,1.6,1.3,2.8,2.8,2.8h52.6
		c1.6,0,2.8-1.3,2.8-2.8v-53c11.2-2.8,21.8-7.3,31.5-13.1l37.5,37.5c1.1,1.1,2.9,1.1,4,0l37.2-37.2c1.1-1.1,1.1-2.9,0-4l-37.5-37.5
		c5.8-9.7,10.2-20.3,13.1-31.5h53c1.6,0,2.8-1.3,2.8-2.8v-52.6C578.7,199.3,577.5,198.1,575.9,198.1z M407.9,278
		c-28.1,0-50.8-22.7-50.8-50.8s22.7-50.8,50.8-50.8c28.1,0,50.8,22.7,50.8,50.8C458.8,255.3,436,278,407.9,278z"/>
	<g>
		<path class="st3" d="M197.9,204.6"/>
		<ellipse class="st4" cx="197.9" cy="102.9" rx="1.2" ry="1.2"/>
		<path class="st5" d="M201.5,200.2H106c0,0,0.1,4.4,9.3,4.4h86.2h79.1c9.2,0,9.3-4.4,9.3-4.4H201.5z"/>
		<path class="st6" d="M269.2,197.6v-94.7c0-2.7-2.1-4.9-4.8-4.9h-133c-2.6,0-4.8,2.2-4.8,4.9v94.7H269.2z"/>
		<path class="st7" d="M267.8,197.6v-93.5c0-2.6-2.1-4.8-4.7-4.8H132.7c-2.6,0-4.7,2.1-4.7,4.8v93.5H267.8z"/>
		<rect x="135.2" y="107.4" class="st8" width="125.5" height="82.7"/>
		<path class="st6" d="M289.9,200.2c0,0.7-0.5,1.2-1.2,1.2H107.2c-0.7,0-1.2-0.5-1.2-1.2v-3.6c0-0.7,0.5-1.2,1.2-1.2h181.6
			c0.7,0,1.2,0.5,1.2,1.2v3.6H289.9z"/>
		<path class="st5" d="M197.9,195.3h-14c0,0,0.2,2,2.4,2s11.6,0,11.6,0s9.4,0,11.6,0c2.2,0,2.4-2,2.4-2H197.9z"/>
		<rect x="135.2" y="107.4" class="st9" width="125.5" height="4.3"/>
		<path class="st10" d="M254.2,121.4c0,0.4-0.3,0.7-0.7,0.7h-4.6c-0.4,0-0.7-0.3-0.7-0.7v-4.3c0-0.4,0.3-0.7,0.7-0.7h4.6
			c0.4,0,0.7,0.3,0.7,0.7V121.4z"/>
		<path class="st11" d="M253.9,126.9H251v-0.4c0-0.2-0.2-0.4-0.4-0.4h-2c-0.2,0-0.4,0.2-0.4,0.4v0.8v0.8v2.4c0,0.2,0.2,0.4,0.4,0.4
			h5.3c0.2,0,0.4-0.2,0.4-0.4v-3.2C254.2,127,254.1,126.9,253.9,126.9z"/>
		<path class="st11" d="M253.9,134.7H251v-0.4c0-0.2-0.2-0.4-0.4-0.4h-2c-0.2,0-0.4,0.2-0.4,0.4v0.8v0.8v2.4c0,0.2,0.2,0.4,0.4,0.4
			h5.3c0.2,0,0.4-0.2,0.4-0.4v-3.2C254.2,134.9,254.1,134.7,253.9,134.7z"/>
		<path class="st11" d="M253.9,141.9H251v-0.4c0-0.2-0.2-0.4-0.4-0.4h-2c-0.2,0-0.4,0.2-0.4,0.4v0.8v0.8v2.4c0,0.2,0.2,0.4,0.4,0.4
			h5.3c0.2,0,0.4-0.2,0.4-0.4v-3.2C254.2,142.1,254.1,141.9,253.9,141.9z"/>
		<path class="st11" d="M253.9,149.2H251v-0.4c0-0.2-0.2-0.4-0.4-0.4h-2c-0.2,0-0.4,0.2-0.4,0.4v0.8v0.8v2.4c0,0.2,0.2,0.4,0.4,0.4
			h5.3c0.2,0,0.4-0.2,0.4-0.4v-3.2C254.2,149.4,254.1,149.2,253.9,149.2z"/>
		<path class="st11" d="M253.9,156.5H251v-0.4c0-0.2-0.2-0.4-0.4-0.4h-2c-0.2,0-0.4,0.2-0.4,0.4v0.8v0.8v2.4c0,0.2,0.2,0.4,0.4,0.4
			h5.3c0.2,0,0.4-0.2,0.4-0.4v-3.2C254.2,156.6,254.1,156.5,253.9,156.5z"/>
		<ellipse class="st12" cx="137.8" cy="109.5" rx="1.2" ry="1.2"/>
		<line class="st13" x1="141.8" y1="109.5" x2="149.2" y2="109.5"/>
		<line class="st13" x1="152.8" y1="109.5" x2="160.2" y2="109.5"/>
		<line class="st13" x1="163.7" y1="109.5" x2="171.2" y2="109.5"/>
		<line class="st13" x1="174.7" y1="109.5" x2="182.1" y2="109.5"/>
		<line class="st13" x1="185.6" y1="109.5" x2="193.1" y2="109.5"/>
		<line class="st13" x1="234.7" y1="109.5" x2="242.1" y2="109.5"/>
		<line class="st13" x1="247.8" y1="109.5" x2="255.2" y2="109.5"/>
		<g>
			<g>
				<g>
					<g>
						<path class="st14" d="M229.9,180c0,0.3-0.3,0.6-0.6,0.6h-84.9c-0.3,0-0.6-0.3-0.6-0.6v-51.2c0-0.3,0.3-0.6,0.6-0.6h84.9
							c0.3,0,0.6,0.3,0.6,0.6V180z"/>
						<rect x="146.9" y="135.5" class="st15" width="80.7" height="42.5"/>
						<rect x="143.8" y="135.1" class="st16" width="86.1" height="0.4"/>
						<g>
							<ellipse class="st17" cx="147.1" cy="131.2" rx="1.2" ry="1.3"/>
							<ellipse class="st18" cx="151.3" cy="131.2" rx="1.2" ry="1.3"/>
							<ellipse class="st19" cx="155.6" cy="131.2" rx="1.2" ry="1.3"/>
						</g>
					</g>
					<g>
						<rect x="159.6" y="144.5" class="st20" width="51.6" height="33.5"/>
						<g>
							<path class="st16" d="M206.1,152c0,0.5-0.4,1-1,1h-39.4c-0.5,0-1-0.4-1-1l0,0c0-0.5,0.4-1,1-1h39.4
								C205.6,151,206.1,151.4,206.1,152L206.1,152z"/>
							<path class="st16" d="M206.1,158.6c0,0.5-0.4,1-1,1h-39.4c-0.5,0-1-0.4-1-1l0,0c0-0.5,0.4-1,1-1h39.4
								C205.6,157.6,206.1,158,206.1,158.6L206.1,158.6z"/>
							<path class="st16" d="M206.1,165.1c0,0.5-0.4,1-1,1h-39.4c-0.5,0-1-0.4-1-1l0,0c0-0.5,0.4-1,1-1h39.4
								C205.6,164.2,206.1,164.6,206.1,165.1L206.1,165.1z"/>
							<path class="st16" d="M206.1,171.7c0,0.5-0.4,1-1,1h-39.4c-0.5,0-1-0.4-1-1l0,0c0-0.5,0.4-1,1-1h39.4
								C205.6,170.7,206.1,171.2,206.1,171.7L206.1,171.7z"/>
						</g>
					</g>
					<line class="st21" x1="161.1" y1="131.2" x2="168.5" y2="131.2"/>
					<line class="st21" x1="174.2" y1="131.2" x2="181.6" y2="131.2"/>
					<line class="st21" x1="187.3" y1="131.2" x2="194.7" y2="131.2"/>
				</g>
			</g>
		</g>
		<g>
			<g>
				<g>
					<path class="st14" d="M238.9,161c0,0.3-0.3,0.6-0.6,0.6h-41c-0.3,0-0.6-0.3-0.6-0.6v-42.6c0-0.3,0.3-0.6,0.6-0.6h41
						c0.3,0,0.6,0.3,0.6,0.6V161z"/>
					<g>
						<path class="st22" d="M212.8,157.1c0,0.8-0.7,1.5-1.5,1.5h-6.9c-0.8,0-1.5-0.7-1.5-1.5V156c0-0.8,0.7-1.5,1.5-1.5h6.9
							c0.8,0,1.5,0.7,1.5,1.5V157.1z"/>
						<path class="st23" d="M231.1,157.1c0,0.8-0.7,1.5-1.5,1.5h-6.9c-0.8,0-1.5-0.7-1.5-1.5V156c0-0.8,0.7-1.5,1.5-1.5h6.9
							c0.8,0,1.5,0.7,1.5,1.5V157.1z"/>
					</g>
					<rect x="196.8" y="124.6" class="st16" width="42.1" height="0.4"/>
					<g>
						<ellipse class="st17" cx="200" cy="120.7" rx="1.2" ry="1.3"/>
						<ellipse class="st18" cx="204.3" cy="120.7" rx="1.2" ry="1.3"/>
						<ellipse class="st19" cx="208.5" cy="120.7" rx="1.2" ry="1.3"/>
					</g>
					<rect x="200.7" y="127.5" class="st20" width="35.1" height="23.6"/>
					<g>
						<path class="st16" d="M232.3,132.6c0,0.4-0.3,0.7-0.7,0.7h-26.8c-0.4,0-0.7-0.3-0.7-0.7l0,0c0-0.4,0.3-0.7,0.7-0.7h26.8
							C232,132,232.3,132.3,232.3,132.6L232.3,132.6z"/>
						<path class="st16" d="M232.3,137.1c0,0.4-0.3,0.7-0.7,0.7h-26.8c-0.4,0-0.7-0.3-0.7-0.7l0,0c0-0.4,0.3-0.7,0.7-0.7h26.8
							C232,136.4,232.3,136.7,232.3,137.1L232.3,137.1z"/>
						<path class="st16" d="M232.3,141.6c0,0.4-0.3,0.7-0.7,0.7h-26.8c-0.4,0-0.7-0.3-0.7-0.7l0,0c0-0.4,0.3-0.7,0.7-0.7h26.8
							C232,140.9,232.3,141.2,232.3,141.6L232.3,141.6z"/>
						<path class="st16" d="M232.3,146c0,0.4-0.3,0.7-0.7,0.7h-26.8c-0.4,0-0.7-0.3-0.7-0.7l0,0c0-0.4,0.3-0.7,0.7-0.7h26.8
							C232,145.4,232.3,145.7,232.3,146L232.3,146z"/>
					</g>
				</g>
			</g>
		</g>
		
			<linearGradient id="SVGID_1_" gradientUnits="userSpaceOnUse" x1="234.5" y1="416.59" x2="234.5" y2="512.59" gradientTransform="matrix(1 0 0 -1 0 611.89)">
			<stop  offset="0" style="stop-color:#FFFFFF;stop-opacity:0"/>
			<stop  offset="0.1281" style="stop-color:#FFFFFF;stop-opacity:0.1281"/>
			<stop  offset="1" style="stop-color:#FFFFFF"/>
		</linearGradient>
		<path class="st24" d="M267.8,104.1c0-2.6-2.1-4.8-4.7-4.8h-35.3l-26.6,96h66.6L267.8,104.1L267.8,104.1z"/>
	</g>
	<g>
		<g>
			<path class="st25" d="M253.2,251.6c0.6,0.1,1.2,0,1.7-0.3s0.8-0.8,0.9-1.4l4.1-20.9c0.2-1.2-0.5-2.3-1.7-2.6l-2.9-0.6
				c-1.2-0.2-2.3,0.5-2.6,1.7l-2.1,10.8l-16.2-24.1c-0.7-1-2.1-1.3-3.1-0.6l-2.4,1.6c-1,0.7-1.3,2-0.6,3.1l16.3,24.1l-10.8-2.1
				c-1.2-0.2-2.3,0.6-2.6,1.7l-0.6,2.9c-0.2,1.2,0.6,2.3,1.7,2.6L253.2,251.6z"/>
		</g>
		<g>
			<path class="st25" d="M278.9,289.6c-0.6-0.1-1.2,0-1.7,0.3s-0.8,0.8-0.9,1.4l-4.1,20.9c-0.2,1.2,0.5,2.3,1.7,2.6l2.9,0.6
				c1.2,0.2,2.3-0.5,2.6-1.7l2.1-10.8l16.2,24.1c0.7,1,2.1,1.3,3.1,0.6l2.4-1.6c1-0.7,1.3-2,0.6-3.1l-16.3-24.1l10.8,2.1
				c1.2,0.2,2.3-0.6,2.6-1.7l0.6-2.9c0.2-1.2-0.6-2.3-1.7-2.6L278.9,289.6z"/>
		</g>
		<g id="refresh_2_">
			<path class="st26" d="M263.4,258.5l-0.3-3.8c4.3-1.3,9.1-0.8,13.1,1.8c7,4.5,9.2,13.8,5,21v0.1l2.8,1.8c0.3,0.2,0.3,0.5-0.1,0.6
				l-8,2.9c-0.3,0.1-0.6-0.1-0.7-0.4l-0.6-8.5c0-0.4,0.2-0.5,0.5-0.3l2.7,1.8c3.1-5.4,1.4-12.3-3.8-15.7c-3.3-2.1-7.3-2.4-10.7-1
				L263.4,258.5z M272.3,284.6l-0.3-4c-3.4,1.3-7.4,1.1-10.7-1.1c-5.2-3.4-6.9-10.3-3.8-15.7l2.7,1.8c0.3,0.2,0.5,0.1,0.5-0.3
				l-0.6-8.5c0-0.4-0.3-0.5-0.7-0.4l-8,2.9c-0.3,0.1-0.4,0.4-0.1,0.6l2.8,1.8v0.1c-4.2,7.2-2,16.5,5,21
				C263.3,285.4,268,285.9,272.3,284.6z"/>
		</g>
	</g>
	<g>
		<g>
			<g>
				<path class="st27" d="M278.4,554.7c-2.5,10.1-5,20.3-7.4,30.4c23.1,0,46.3,0,69.4,0c-2.5-10.1-5-20.3-7.4-30.4
					C314.7,554.7,296.5,554.7,278.4,554.7z"/>
				<path class="st28" d="M344.6,584.6h-78c-2,0-3.6,1.9-3.6,4.2v1.6h85.2v-1.6C348.2,586.5,346.6,584.6,344.6,584.6z"/>
				<path class="st28" d="M188.3,542.9v16.8c0,3.2,2.6,5.8,5.8,5.8H417c3.2,0,5.8-2.6,5.8-5.8v-16.8H188.3z"/>
				<path class="st7" d="M422.9,542.9V401c0-3.2-2.6-5.8-5.8-5.8H194.2c-3.2,0-5.8,2.6-5.8,5.8v141.9H422.9z"/>
				<rect x="197.9" y="404.3" class="st8" width="215.3" height="128.9"/>
			</g>
			<path class="st10" d="M403,425.8c0,0.7-0.5,1.2-1.2,1.2h-7.6c-0.7,0-1.2-0.6-1.2-1.2v-7.1c0-0.7,0.5-1.2,1.2-1.2h7.6
				c0.7,0,1.2,0.6,1.2,1.2V425.8z"/>
			<path class="st11" d="M402.4,434.9h-4.8v-0.7c0-0.4-0.3-0.7-0.6-0.7h-3.3c-0.4,0-0.6,0.3-0.6,0.7v1.3v1.3v3.9
				c0,0.4,0.3,0.7,0.6,0.7h8.7c0.4,0,0.6-0.3,0.6-0.7v-5.2C403,435.2,402.8,434.9,402.4,434.9z"/>
			<path class="st11" d="M402.4,447.9h-4.8v-0.7c0-0.4-0.3-0.7-0.6-0.7h-3.3c-0.4,0-0.6,0.3-0.6,0.7v1.3v1.3v3.9
				c0,0.4,0.3,0.7,0.6,0.7h8.7c0.4,0,0.6-0.3,0.6-0.7v-5.2C403,448.2,402.8,447.9,402.4,447.9z"/>
			<path class="st11" d="M402.4,459.9h-4.8v-0.7c0-0.4-0.3-0.7-0.6-0.7h-3.3c-0.4,0-0.6,0.3-0.6,0.7v1.3v1.3v3.9
				c0,0.4,0.3,0.7,0.6,0.7h8.7c0.4,0,0.6-0.3,0.6-0.7v-5.2C403,460.2,402.8,459.9,402.4,459.9z"/>
			<path class="st11" d="M402.4,472h-4.8v-0.7c0-0.4-0.3-0.7-0.6-0.7h-3.3c-0.4,0-0.6,0.3-0.6,0.7v1.3v1.3v3.9
				c0,0.4,0.3,0.7,0.6,0.7h8.7c0.4,0,0.6-0.3,0.6-0.7v-5.2C403,472.3,402.8,472,402.4,472z"/>
			<path class="st11" d="M402.4,484h-4.8v-0.7c0-0.4-0.3-0.7-0.6-0.7h-3.3c-0.4,0-0.6,0.3-0.6,0.7v1.3v1.3v3.9
				c0,0.4,0.3,0.7,0.6,0.7h8.7c0.4,0,0.6-0.3,0.6-0.7v-5.2C403,484.3,402.8,484,402.4,484z"/>
			<g>
				<g>
					<g>
						<g>
							<path class="st14" d="M362.7,523c0,0.5-0.4,1-0.9,1H221.1c-0.5,0-0.9-0.4-0.9-1v-84.8c0-0.5,0.4-1,0.9-1h140.6
								c0.5,0,0.9,0.4,0.9,1V523H362.7z"/>
							<rect x="225.3" y="449.3" class="st15" width="133.7" height="70.3"/>
							<rect x="220.2" y="448.6" class="st16" width="142.5" height="0.7"/>
							<g>
								<ellipse class="st17" cx="225.6" cy="442.1" rx="2" ry="2.1"/>
								<ellipse class="st18" cx="232.6" cy="442.1" rx="2" ry="2.1"/>
								<ellipse class="st19" cx="239.6" cy="442.1" rx="2" ry="2.1"/>
							</g>
						</g>
						<g>
							<rect x="246.3" y="464.1" class="st20" width="85.5" height="55.5"/>
							<g>
								<path class="st16" d="M323.3,476.5c0,0.9-0.7,1.6-1.6,1.6h-65.3c-0.9,0-1.6-0.7-1.6-1.6l0,0c0-0.9,0.7-1.6,1.6-1.6h65.3
									C322.6,474.9,323.3,475.6,323.3,476.5L323.3,476.5z"/>
								<path class="st16" d="M323.3,487.4c0,0.9-0.7,1.6-1.6,1.6h-65.3c-0.9,0-1.6-0.7-1.6-1.6l0,0c0-0.9,0.7-1.6,1.6-1.6h65.3
									C322.6,485.8,323.3,486.5,323.3,487.4L323.3,487.4z"/>
								<path class="st16" d="M323.3,498.3c0,0.9-0.7,1.6-1.6,1.6h-65.3c-0.9,0-1.6-0.7-1.6-1.6l0,0c0-0.9,0.7-1.6,1.6-1.6h65.3
									C322.6,496.7,323.3,497.4,323.3,498.3L323.3,498.3z"/>
								<path class="st16" d="M323.3,509.2c0,0.9-0.7,1.6-1.6,1.6h-65.3c-0.9,0-1.6-0.7-1.6-1.6l0,0c0-0.9,0.7-1.6,1.6-1.6h65.3
									C322.6,507.6,323.3,508.3,323.3,509.2L323.3,509.2z"/>
							</g>
						</g>
						<line class="st21" x1="248.7" y1="442.1" x2="261" y2="442.1"/>
						<line class="st21" x1="270.4" y1="442.1" x2="282.7" y2="442.1"/>
						<line class="st21" x1="292.1" y1="442.1" x2="304.4" y2="442.1"/>
					</g>
				</g>
			</g>
			<g>
				<g>
					<g>
						<path class="st14" d="M377.6,491.5c0,0.5-0.4,1-0.9,1h-67.9c-0.5,0-0.9-0.4-0.9-1v-70.6c0-0.5,0.4-1,0.9-1h67.9
							c0.5,0,0.9,0.4,0.9,1V491.5z"/>
						<g>
							<path class="st22" d="M334.4,485c0,1.4-1.1,2.5-2.4,2.5h-11.5c-1.3,0-2.4-1.1-2.4-2.5v-1.9c0-1.4,1.1-2.5,2.4-2.5H332
								c1.3,0,2.4,1.1,2.4,2.5V485z"/>
							<path class="st23" d="M364.7,485c0,1.4-1.1,2.5-2.4,2.5h-11.5c-1.3,0-2.4-1.1-2.4-2.5v-1.9c0-1.4,1.1-2.5,2.4-2.5h11.5
								c1.3,0,2.4,1.1,2.4,2.5V485z"/>
						</g>
						<rect x="307.8" y="431.2" class="st16" width="69.7" height="0.7"/>
						<g>
							<ellipse class="st17" cx="313.2" cy="424.8" rx="2" ry="2.1"/>
							<ellipse class="st18" cx="320.3" cy="424.8" rx="2" ry="2.1"/>
							<ellipse class="st19" cx="327.3" cy="424.8" rx="2" ry="2.1"/>
						</g>
						<rect x="314.4" y="436" class="st20" width="58.1" height="39.1"/>
						<g>
							<path class="st16" d="M366.7,444.5c0,0.6-0.5,1.1-1.1,1.1h-44.4c-0.6,0-1.1-0.5-1.1-1.1l0,0c0-0.6,0.5-1.1,1.1-1.1h44.4
								C366.2,443.4,366.7,443.9,366.7,444.5L366.7,444.5z"/>
							<path class="st16" d="M366.7,451.9c0,0.6-0.5,1.1-1.1,1.1h-44.4c-0.6,0-1.1-0.5-1.1-1.1l0,0c0-0.6,0.5-1.1,1.1-1.1h44.4
								C366.2,450.8,366.7,451.3,366.7,451.9L366.7,451.9z"/>
							<path class="st16" d="M366.7,459.3c0,0.6-0.5,1.1-1.1,1.1h-44.4c-0.6,0-1.1-0.5-1.1-1.1l0,0c0-0.6,0.5-1.1,1.1-1.1h44.4
								C366.2,458.2,366.7,458.7,366.7,459.3L366.7,459.3z"/>
							<path class="st16" d="M366.7,466.7c0,0.6-0.5,1.1-1.1,1.1h-44.4c-0.6,0-1.1-0.5-1.1-1.1l0,0c0-0.6,0.5-1.1,1.1-1.1h44.4
								C366.2,465.6,366.7,466.1,366.7,466.7L366.7,466.7z"/>
						</g>
					</g>
				</g>
			</g>
			
				<linearGradient id="SVGID_2_" gradientUnits="userSpaceOnUse" x1="372.8" y1="69.79" x2="372.8" y2="216.59" gradientTransform="matrix(1 0 0 -1 0 611.89)">
				<stop  offset="0" style="stop-color:#FFFFFF;stop-opacity:0"/>
				<stop  offset="0.1281" style="stop-color:#FFFFFF;stop-opacity:0.1281"/>
				<stop  offset="1" style="stop-color:#FFFFFF"/>
			</linearGradient>
			<path class="st29" d="M423.7,402.6c0-4-3.2-7.3-7.1-7.3h-54l-40.7,146.8l101.8-0.1V402.6z"/>
		</g>
		<g>
			<g>
				<g>
					<g>
						<path class="st25" d="M369.6,350.7c-39.1,3.3-61.3-19.3-61.3-19.3S286.1,354,247,350.7c0,0-12.3,104.1,61.3,127.4
							C381.9,454.9,369.6,350.7,369.6,350.7z"/>
						<path class="st30" d="M359.5,362.9c-28,0-51.2-16.3-51.2-16.3s-23.2,16.3-51.2,16.3c0,0-3.7,83.8,51.2,102.9
							C363.2,446.6,359.5,362.9,359.5,362.9z"/>
						<path class="st31" d="M356.9,365.1c-26.5,0-48.6-15.4-48.6-15.4s-22,15.4-48.6,15.4c0,0-3.5,79.4,48.6,97.6
							C360.4,444.6,356.9,365.1,356.9,365.1z"/>
						<g>
							
								<linearGradient id="SVGID_3_" gradientUnits="userSpaceOnUse" x1="219.3337" y1="207.14" x2="311.6399" y2="207.14" gradientTransform="matrix(1 0 0 -1 0 611.89)">
								<stop  offset="0" style="stop-color:#FFFFFF;stop-opacity:0"/>
								<stop  offset="0.8529" style="stop-color:#FFFFFF;stop-opacity:0.8529"/>
								<stop  offset="1" style="stop-color:#FFFFFF"/>
							</linearGradient>
							<path class="st32" d="M308,331.4L308,331.4c0,0-22.2,22.6-61.3,19.3c0,0-12.3,104.1,61.3,127.4l0,0V331.4z"/>
							<path class="st33" d="M308,331.4L308,331.4c0,0,22.2,22.6,61.3,19.3c0,0,12.3,104.1-61.3,127.4l0,0V331.4z"/>
						</g>
						<g class="st34">
							<path class="st35" d="M262.1,404.8c5.7,23.9,18.4,51.1,46.8,61v-61H262.1z"/>
							<path class="st35" d="M360.1,362.9c-28,0-51.2-16.3-51.2-16.3v58.1h46.8C360.9,382.4,360.1,362.9,360.1,362.9z"/>
						</g>
						<g>
							<path class="st25" d="M327.9,426.1c0,1.6-1.3,3-2.9,3h-33.3c-1.6,0-2.9-1.3-2.9-3v-32.6c0-1.6,1.3-3,2.9-3H325
								c1.6,0,2.9,1.3,2.9,3V426.1z"/>
							<g>
								<path class="st25" d="M320.9,398.9h-25.2v-15.4c0-7.1,5.6-12.9,12.6-12.9c6.9,0,12.6,5.8,12.6,12.9V398.9z M301.3,393.2
									h14.1v-9.7c0-4-3.2-7.2-7.1-7.2s-7.1,3.2-7.1,7.2v9.7H301.3z"/>
							</g>
							<g>
								<ellipse class="st31" cx="308.3" cy="405.9" rx="5.4" ry="5.5"/>
								<polygon class="st31" points="310.4,407.6 308.3,407.6 306.3,407.6 303.7,420.1 308.3,420.1 313,420.1 								"/>
							</g>
						</g>
					</g>
				</g>
			</g>
		</g>
	</g>
	<g>
		<g>
			<path class="st36" d="M320.5,85.2v28.1h18.2c0-4.2,5.2-10,11.6-10s11.6,5.8,11.6,10H380V85.2H320.5z"/>
			<g>
				<g>
					<rect x="325.4" y="92.1" class="st25" width="17.6" height="3.7"/>
					<rect x="325.4" y="95.8" class="st37" width="17.6" height="2"/>
				</g>
				<g>
					<rect x="357.6" y="92.1" class="st25" width="17.6" height="3.7"/>
					<rect x="357.6" y="95.8" class="st37" width="17.6" height="2"/>
				</g>
			</g>
			<rect x="326.5" y="32" class="st37" width="47.5" height="5.3"/>
			<rect x="316.9" y="83.3" class="st37" width="66.8" height="3.7"/>
			<rect x="326.5" y="35.3" class="st36" width="47.5" height="48"/>
			<g>
				<g>
					<rect x="331.6" y="39.4" class="st25" width="6" height="6.2"/>
					<rect x="330.8" y="45.7" class="st37" width="7.6" height="1.7"/>
				</g>
				<g>
					<rect x="342" y="39.4" class="st25" width="6" height="6.2"/>
					<rect x="341.3" y="45.7" class="st37" width="7.6" height="1.7"/>
				</g>
				<g>
					<rect x="352.5" y="39.4" class="st25" width="6" height="6.2"/>
					<rect x="351.7" y="45.7" class="st37" width="7.6" height="1.7"/>
				</g>
				<g>
					<rect x="363" y="39.4" class="st25" width="6" height="6.2"/>
					<rect x="362.2" y="45.7" class="st37" width="7.6" height="1.7"/>
				</g>
				<g>
					<rect x="331.6" y="50.4" class="st25" width="6" height="6.2"/>
					<rect x="330.8" y="56.6" class="st37" width="7.6" height="1.7"/>
				</g>
				<g>
					<rect x="342" y="50.4" class="st25" width="6" height="6.2"/>
					<rect x="341.3" y="56.6" class="st37" width="7.6" height="1.7"/>
				</g>
				<g>
					<rect x="352.5" y="50.4" class="st25" width="6" height="6.2"/>
					<rect x="351.7" y="56.6" class="st37" width="7.6" height="1.7"/>
				</g>
				<g>
					<rect x="363" y="50.4" class="st25" width="6" height="6.2"/>
					<rect x="362.2" y="56.6" class="st37" width="7.6" height="1.7"/>
				</g>
				<g>
					<rect x="331.6" y="61.4" class="st25" width="6" height="6.2"/>
					<rect x="330.8" y="67.6" class="st37" width="7.6" height="1.7"/>
				</g>
				<g>
					<rect x="342" y="61.4" class="st25" width="6" height="6.2"/>
					<rect x="341.3" y="67.6" class="st37" width="7.6" height="1.7"/>
				</g>
				<g>
					<rect x="352.5" y="61.4" class="st25" width="6" height="6.2"/>
					<rect x="351.7" y="67.6" class="st37" width="7.6" height="1.7"/>
				</g>
				<g>
					<rect x="363" y="61.4" class="st25" width="6" height="6.2"/>
					<rect x="362.2" y="67.6" class="st37" width="7.6" height="1.7"/>
				</g>
				<g>
					<rect x="331.6" y="72.4" class="st25" width="6" height="6.2"/>
					<rect x="330.8" y="78.6" class="st37" width="7.6" height="1.7"/>
				</g>
				<g>
					<rect x="342" y="72.4" class="st25" width="6" height="6.2"/>
					<rect x="341.3" y="78.6" class="st37" width="7.6" height="1.7"/>
				</g>
				<g>
					<rect x="352.5" y="72.4" class="st25" width="6" height="6.2"/>
					<rect x="351.7" y="78.6" class="st37" width="7.6" height="1.7"/>
				</g>
				<g>
					<rect x="363" y="72.4" class="st25" width="6" height="6.2"/>
					<rect x="362.2" y="78.6" class="st37" width="7.6" height="1.7"/>
				</g>
			</g>
		</g>
		
			<linearGradient id="SVGID_4_" gradientUnits="userSpaceOnUse" x1="320.1" y1="478.09" x2="388.1" y2="478.09" gradientTransform="matrix(1 0 0 -1 0 611.89)">
			<stop  offset="0" style="stop-color:#000000"/>
			<stop  offset="1" style="stop-color:#FFFFFF;stop-opacity:0"/>
		</linearGradient>
		<path class="st38" d="M379.6,113l8.5,14.2c0,0-16,15.8-34.8,27.4L320.1,113H379.6z"/>
	</g>
	<g>
		<g>
			<path class="st36" d="M483.5,446.6v28.1h18.2c0-4.2,5.2-10,11.6-10c6.4,0,11.6,5.8,11.6,10H543v-28.1H483.5z"/>
			<g>
				<g>
					<rect x="488.4" y="453.6" class="st25" width="17.6" height="3.7"/>
					<rect x="488.4" y="457.3" class="st37" width="17.6" height="2"/>
				</g>
				<g>
					<rect x="520.6" y="453.6" class="st25" width="17.6" height="3.7"/>
					<rect x="520.6" y="457.3" class="st37" width="17.6" height="2"/>
				</g>
			</g>
			<rect x="489.5" y="393.4" class="st37" width="47.5" height="5.3"/>
			<rect x="479.9" y="444.7" class="st37" width="66.8" height="3.7"/>
			<rect x="489.5" y="396.7" class="st36" width="47.5" height="48"/>
			<g>
				<g>
					<rect x="494.6" y="400.9" class="st25" width="6" height="6.2"/>
					<rect x="493.8" y="407.1" class="st37" width="7.6" height="1.7"/>
				</g>
				<g>
					<rect x="505" y="400.9" class="st25" width="6" height="6.2"/>
					<rect x="504.2" y="407.1" class="st37" width="7.6" height="1.7"/>
				</g>
				<g>
					<rect x="515.5" y="400.9" class="st25" width="6" height="6.2"/>
					<rect x="514.7" y="407.1" class="st37" width="7.6" height="1.7"/>
				</g>
				<g>
					<rect x="526" y="400.9" class="st25" width="6" height="6.2"/>
					<rect x="525.2" y="407.1" class="st37" width="7.6" height="1.7"/>
				</g>
				<g>
					<rect x="494.6" y="411.8" class="st25" width="6" height="6.2"/>
					<rect x="493.8" y="418" class="st37" width="7.6" height="1.7"/>
				</g>
				<g>
					<rect x="505" y="411.8" class="st25" width="6" height="6.2"/>
					<rect x="504.2" y="418" class="st37" width="7.6" height="1.7"/>
				</g>
				<g>
					<rect x="515.5" y="411.8" class="st25" width="6" height="6.2"/>
					<rect x="514.7" y="418" class="st37" width="7.6" height="1.7"/>
				</g>
				<g>
					<rect x="526" y="411.8" class="st25" width="6" height="6.2"/>
					<rect x="525.2" y="418" class="st37" width="7.6" height="1.7"/>
				</g>
				<g>
					<rect x="494.6" y="422.8" class="st25" width="6" height="6.2"/>
					<rect x="493.8" y="429" class="st37" width="7.6" height="1.7"/>
				</g>
				<g>
					<rect x="505" y="422.8" class="st25" width="6" height="6.2"/>
					<rect x="504.2" y="429" class="st37" width="7.6" height="1.7"/>
				</g>
				<g>
					<rect x="515.5" y="422.8" class="st25" width="6" height="6.2"/>
					<rect x="514.7" y="429" class="st37" width="7.6" height="1.7"/>
				</g>
				<g>
					<rect x="526" y="422.8" class="st25" width="6" height="6.2"/>
					<rect x="525.2" y="429" class="st37" width="7.6" height="1.7"/>
				</g>
				<g>
					<rect x="494.6" y="433.8" class="st25" width="6" height="6.2"/>
					<rect x="493.8" y="440" class="st37" width="7.6" height="1.7"/>
				</g>
				<g>
					<rect x="505" y="433.8" class="st25" width="6" height="6.2"/>
					<rect x="504.2" y="440" class="st37" width="7.6" height="1.7"/>
				</g>
				<g>
					<rect x="515.5" y="433.8" class="st25" width="6" height="6.2"/>
					<rect x="514.7" y="440" class="st37" width="7.6" height="1.7"/>
				</g>
				<g>
					<rect x="526" y="433.8" class="st25" width="6" height="6.2"/>
					<rect x="525.2" y="440" class="st37" width="7.6" height="1.7"/>
				</g>
			</g>
		</g>
		
			<linearGradient id="SVGID_5_" gradientUnits="userSpaceOnUse" x1="483.1" y1="112.59" x2="551.1" y2="112.59" gradientTransform="matrix(1 0 0 -1 0 611.89)">
			<stop  offset="0" style="stop-color:#000000"/>
			<stop  offset="1" style="stop-color:#FFFFFF;stop-opacity:0"/>
		</linearGradient>
		<path class="st39" d="M542.6,474l8.5,14.4c0,0-13.9,24.6-32.6,36.2L483.1,474H542.6z"/>
	</g>
	<polygon class="st25" points="423.7,474.1 479.9,431.6 422.6,492.5 	"/>
	<polygon class="st25" points="267.8,119.7 324,77.3 266.7,138.1 	"/>
</g>
</svg>
