<?xml version="1.0" encoding="utf-8"?>
<!-- Generator: Adobe Illustrator 19.2.1, SVG Export Plug-In . SVG Version: 6.00 Build 0)  -->
<svg version="1.1" id="Layer_1" xmlns="http://www.w3.org/2000/svg" xmlns:xlink="http://www.w3.org/1999/xlink" x="0px" y="0px"
	 viewBox="0 0 612 612" style="enable-background:new 0 0 612 612;" xml:space="preserve">
<style type="text/css">
	.st0{fill:#146487;}
	.st1{opacity:0.4;}
	.st2{fill:#1D84AA;}
	.st3{fill:#FEE100;}
	.st4{fill:#67451B;}
	.st5{opacity:0.4;fill:#1D84AA;}
	.st6{fill:#19B0BF;}
	.st7{fill:#F99B1F;}
	.st8{fill:#1895A4;}
	.st9{fill:#FDC015;}
	.st10{fill:#A7DAE9;}
	.st11{fill:#FFFFFF;}
	.st12{fill:#0F303F;}
	.st13{fill:#2D5972;}
	.st14{fill:#4C4D4F;}
	.st15{fill:#020202;}
	.st16{fill:#777779;}
	.st17{fill:#99AA89;}
	.st18{fill:#ABBDA2;}
	.st19{fill:#C1282D;}
	.st20{fill:#F2CEA9;}
	.st21{fill:#FFEEDF;}
	.st22{fill:#4E4E4E;}
	.st23{fill:#333333;}
	.st24{fill:#D1EBFA;}
	.st25{fill:#EE6A55;}
	.st26{fill:#CA4B3A;}
	.st27{fill:#F58D7E;}
	.st28{fill:#F0CA68;}
	.st29{fill:#F4DA80;}
	.st30{fill:#FAD4B4;}
	.st31{fill:#FED718;}
	.st32{fill:#FEE44F;}
	.st33{fill:#F7BE2B;}
	.st34{fill:url(#SVGID_1_);}
	.st35{fill:#F9CBA4;}
	.st36{fill:#B2252E;}
	.st37{fill:#F28B45;}
	.st38{fill:#F1C337;}
	.st39{fill:#151515;}
	.st40{fill:#F5F6F6;}
	.st41{fill:#426C86;}
	.st42{fill:url(#SVGID_2_);}
</style>
<g>
	<circle class="st0" cx="306" cy="306" r="306"/>
	<g>
		<g class="st1">
			<g>
				<rect x="101.1" y="294.3" class="st2" width="16.9" height="21.4"/>
				<rect x="134.9" y="237.3" class="st2" width="16.9" height="78.4"/>
				<rect x="168.6" y="227.5" class="st2" width="16.9" height="88.2"/>
				<rect x="202.4" y="236.4" class="st2" width="16.9" height="79.3"/>
				<rect x="236.2" y="204.7" class="st2" width="16.9" height="111"/>
				<rect x="269.9" y="215.3" class="st2" width="16.9" height="100.4"/>
				<rect x="303.7" y="193.4" class="st2" width="16.9" height="122.4"/>
				<rect x="337.5" y="266.1" class="st2" width="16.9" height="49.6"/>
				<rect x="371.2" y="290.5" class="st2" width="16.9" height="25.3"/>
			</g>
			<g>
				<rect x="270" y="329" class="st2" width="16.9" height="19.2"/>
				<rect x="303.8" y="329" class="st2" width="16.9" height="78.4"/>
				<rect x="337.5" y="329" class="st2" width="16.9" height="88.2"/>
				<rect x="371.3" y="329" class="st2" width="16.9" height="41"/>
				<rect x="405.1" y="329" class="st2" width="16.9" height="111"/>
				<rect x="438.8" y="329" class="st2" width="16.9" height="66.7"/>
				<rect x="472.6" y="329" class="st2" width="16.9" height="122.4"/>
				<rect x="506.4" y="329" class="st2" width="16.9" height="82.1"/>
				<rect x="540.1" y="329" class="st2" width="16.9" height="33.3"/>
			</g>
		</g>
		<g>
			<g>
				
					<rect x="89" y="326.6" transform="matrix(2.803254e-003 -1 1 2.803254e-003 -289.8336 482.6964)" class="st3" width="16.2" height="120.2"/>
				<g>
					<g>
						
							<rect x="153.8" y="380.7" transform="matrix(3.923077e-003 -1 1 3.923077e-003 -225.593 535.3242)" class="st4" width="4.3" height="0.4"/>
					</g>
					<g>
						<rect x="154.4" y="378.7" class="st4" width="0.4" height="2.6"/>
					</g>
					<g>
						<polygon class="st4" points="153.6,381.4 153.2,381.4 153.2,378.7 153.6,378.7 						"/>
					</g>
					<g>
						
							<rect x="150.8" y="379.8" transform="matrix(3.938528e-003 -1 1 3.938528e-003 -228.5314 530.6658)" class="st4" width="2.6" height="0.4"/>
					</g>
					<g>
						
							<rect x="149.5" y="379.8" transform="matrix(1.137574e-002 -0.9999 0.9999 1.137574e-002 -230.8911 526.5595)" class="st4" width="2.6" height="0.4"/>
					</g>
					<g>
						<polygon class="st4" points="149.6,383 149.2,383 149.2,378.7 149.6,378.7 						"/>
					</g>
					<g>
						<polygon class="st4" points="148.3,381.3 147.9,381.3 147.9,378.7 148.3,378.7 						"/>
					</g>
					<g>
						
							<rect x="145.5" y="379.8" transform="matrix(3.938528e-003 -1 1 3.938528e-003 -233.761 525.3868)" class="st4" width="2.6" height="0.4"/>
					</g>
					<g>
						
							<rect x="144.3" y="379.8" transform="matrix(3.938714e-003 -1 1 3.938714e-003 -235.0209 524.1159)" class="st4" width="2.6" height="0.4"/>
					</g>
					<g>
						<rect x="144.1" y="378.7" class="st4" width="0.4" height="2.6"/>
					</g>
					<g>
						<polygon class="st4" points="143.1,383 142.6,383 142.6,378.7 143.1,378.7 						"/>
					</g>
					<g>
						<polygon class="st4" points="141.8,381.3 141.4,381.3 141.4,378.7 141.8,378.7 						"/>
					</g>
					<g>
						<polygon class="st4" points="140.5,381.3 140.1,381.3 140.1,378.7 140.5,378.7 						"/>
					</g>
					<g>
						<polygon class="st4" points="139.3,381.3 138.8,381.3 138.8,378.7 139.3,378.7 						"/>
					</g>
					<g>
						
							<rect x="136.5" y="379.8" transform="matrix(3.938344e-003 -1 1 3.938344e-003 -242.7695 516.291)" class="st4" width="2.6" height="0.4"/>
					</g>
					<g>
						
							<rect x="134.2" y="380.6" transform="matrix(3.909274e-003 -1 1 3.909274e-003 -245.0605 515.6719)" class="st4" width="4.3" height="0.4"/>
					</g>
					<g>
						<polygon class="st4" points="135.3,381.3 134.8,381.3 134.8,378.7 135.3,378.7 						"/>
					</g>
					<g>
						<polygon class="st4" points="134,381.3 133.6,381.3 133.6,378.7 134,378.7 						"/>
					</g>
					<g>
						<polygon class="st4" points="132.7,381.3 132.3,381.3 132.3,378.7 132.7,378.7 						"/>
					</g>
					<g>
						
							<rect x="129.9" y="379.8" transform="matrix(3.923077e-003 -1 1 3.923077e-003 -249.2571 509.7437)" class="st4" width="2.6" height="0.4"/>
					</g>
					<g>
						<polygon class="st4" points="130,383 129.6,383 129.6,378.7 130,378.7 						"/>
					</g>
					<g>
						<polygon class="st4" points="128.7,381.3 128.3,381.3 128.3,378.7 128.7,378.7 						"/>
					</g>
					<g>
						
							<rect x="125.9" y="379.8" transform="matrix(3.544681e-003 -1 1 3.544681e-003 -253.1813 505.8799)" class="st4" width="2.6" height="0.4"/>
					</g>
					<g>
						<polygon class="st4" points="126.2,381.3 125.8,381.3 125.8,378.7 126.2,378.7 						"/>
					</g>
					<g>
						
							<rect x="123.4" y="379.8" transform="matrix(3.938709e-003 -1 1 3.938709e-003 -255.75 503.1865)" class="st4" width="2.6" height="0.4"/>
					</g>
					<g>
						<rect x="123" y="378.7" class="st4" width="0.4" height="4.3"/>
					</g>
					<g>
						<polygon class="st4" points="122.2,381.3 121.8,381.3 121.8,378.7 122.2,378.7 						"/>
					</g>
					<g>
						
							<rect x="119.4" y="379.7" transform="matrix(3.938528e-003 -1 1 3.938528e-003 -259.7203 499.1785)" class="st4" width="2.6" height="0.4"/>
					</g>
					<g>
						<polygon class="st4" points="119.7,381.3 119.2,381.3 119.2,378.6 119.7,378.6 						"/>
					</g>
					<g>
						<polygon class="st4" points="118.4,381.3 118,381.3 118,378.6 118.4,378.6 						"/>
					</g>
					<g>
						<polygon class="st4" points="116.9,382.9 116.5,382.9 116.5,378.6 116.9,378.6 						"/>
					</g>
					<g>
						<polygon class="st4" points="115.7,381.3 115.2,381.3 115.2,378.6 115.7,378.6 						"/>
					</g>
					<g>
						<rect x="114" y="378.6" class="st4" width="0.4" height="2.6"/>
					</g>
					<g>
						<rect x="112.7" y="378.6" class="st4" width="0.4" height="2.6"/>
					</g>
					<g>
						<polygon class="st4" points="111.9,381.2 111.4,381.2 111.4,378.6 111.9,378.6 						"/>
					</g>
					<g>
						<polygon class="st4" points="110.4,382.9 110,382.9 110,378.6 110.4,378.6 						"/>
					</g>
					<g>
						
							<rect x="107.6" y="379.7" transform="matrix(3.544681e-003 -1 1 3.544681e-003 -271.3975 487.4948)" class="st4" width="2.6" height="0.4"/>
					</g>
					<g>
						<polygon class="st4" points="107.9,381.2 107.4,381.2 107.4,378.6 107.9,378.6 						"/>
					</g>
					<g>
						<polygon class="st4" points="106.6,381.2 106.2,381.2 106.2,378.6 106.6,378.6 						"/>
					</g>
					<g>
						
							<rect x="103.8" y="379.7" transform="matrix(3.938528e-003 -1 1 3.938528e-003 -275.2173 483.5291)" class="st4" width="2.6" height="0.4"/>
					</g>
					<g>
						<rect x="103.4" y="378.6" class="st4" width="0.4" height="4.3"/>
					</g>
					<g>
						
							<rect x="101.1" y="379.7" transform="matrix(3.938528e-003 -1 1 3.938528e-003 -277.9294 480.7927)" class="st4" width="2.6" height="0.4"/>
					</g>
					<g>
						<polygon class="st4" points="101.3,381.2 100.9,381.2 100.9,378.6 101.3,378.6 						"/>
					</g>
					<g>
						<polygon class="st4" points="100.1,381.2 99.6,381.2 99.6,378.6 100.1,378.6 						"/>
					</g>
					<g>
						<rect x="98.4" y="378.6" class="st4" width="0.4" height="2.6"/>
					</g>
					<g>
						<polygon class="st4" points="97.3,382.9 96.9,382.9 96.9,378.6 97.3,378.6 						"/>
					</g>
					<g>
						<rect x="95.6" y="378.6" class="st4" width="0.4" height="2.6"/>
					</g>
					<g>
						<polygon class="st4" points="94.8,381.2 94.4,381.2 94.4,378.6 94.8,378.6 						"/>
					</g>
					<g>
						<polygon class="st4" points="93.5,381.2 93.1,381.2 93.1,378.6 93.5,378.6 						"/>
					</g>
					<g>
						<polygon class="st4" points="92.3,381.2 91.8,381.2 91.8,378.6 92.3,378.6 						"/>
					</g>
					<g>
						<polygon class="st4" points="90.8,382.9 90.4,382.9 90.4,378.6 90.8,378.6 						"/>
					</g>
					<g>
						
							<rect x="88" y="379.7" transform="matrix(7.453697e-003 -1 1 7.453697e-003 -291.2166 466.3509)" class="st4" width="2.6" height="0.4"/>
					</g>
					<g>
						
							<rect x="86.7" y="379.6" transform="matrix(7.876873e-003 -1 1 7.876873e-003 -292.5059 464.9186)" class="st4" width="2.6" height="0.4"/>
					</g>
					<g>
						
							<rect x="85.5" y="379.6" transform="matrix(3.909274e-003 -1 1 3.909274e-003 -293.4259 465.1548)" class="st4" width="2.6" height="0.4"/>
					</g>
					<g>
						
							<rect x="84.2" y="379.6" transform="matrix(3.530928e-003 -1 1 3.530928e-003 -294.6541 464.0286)" class="st4" width="2.6" height="0.4"/>
					</g>
					<g>
						
							<rect x="81.9" y="380.5" transform="matrix(3.544681e-003 -1 1 3.544681e-003 -296.9486 463.3922)" class="st4" width="4.3" height="0.4"/>
					</g>
					<g>
						<rect x="82.6" y="378.5" class="st4" width="0.4" height="2.6"/>
					</g>
					<g>
						
							<rect x="80.2" y="379.6" transform="matrix(3.938528e-003 -1 1 3.938528e-003 -298.6588 459.8639)" class="st4" width="2.6" height="0.4"/>
					</g>
					<g>
						<rect x="80" y="378.5" class="st4" width="0.4" height="2.6"/>
					</g>
					<g>
						
							<rect x="77.7" y="379.6" transform="matrix(3.544681e-003 -1 1 3.544681e-003 -301.147 457.4698)" class="st4" width="2.6" height="0.4"/>
					</g>
					<g>
						<polygon class="st4" points="77.7,382.8 77.3,382.8 77.3,378.5 77.7,378.5 						"/>
					</g>
					<g>
						
							<rect x="74.9" y="379.6" transform="matrix(3.923077e-003 -1 1 3.923077e-003 -303.8872 454.5899)" class="st4" width="2.6" height="0.4"/>
					</g>
					<g>
						<polygon class="st4" points="75.2,381.1 74.8,381.1 74.8,378.5 75.2,378.5 						"/>
					</g>
					<g>
						<polygon class="st4" points="73.9,381.1 73.5,381.1 73.5,378.5 73.9,378.5 						"/>
					</g>
					<g>
						
							<rect x="71.1" y="379.6" transform="matrix(3.938697e-003 -1 1 3.938697e-003 -307.6683 450.7688)" class="st4" width="2.6" height="0.4"/>
					</g>
					<g>
						
							<rect x="68.8" y="380.4" transform="matrix(3.544681e-003 -1 1 3.544681e-003 -309.9345 450.2874)" class="st4" width="4.3" height="0.4"/>
					</g>
					<g>
						<polygon class="st4" points="69.9,381.1 69.5,381.1 69.5,378.5 69.9,378.5 						"/>
					</g>
					<g>
						
							<rect x="67.1" y="379.6" transform="matrix(3.544681e-003 -1 1 3.544681e-003 -311.6111 446.91)" class="st4" width="2.6" height="0.4"/>
					</g>
					<g>
						<polygon class="st4" points="67.4,381.1 66.9,381.1 67,378.5 67.4,378.5 						"/>
					</g>
					<g>
						
							<rect x="64.6" y="379.6" transform="matrix(3.938528e-003 -1 1 3.938528e-003 -314.1569 444.2165)" class="st4" width="2.6" height="0.4"/>
					</g>
					<g>
						
							<rect x="62.3" y="380.4" transform="matrix(3.954101e-003 -1 1 3.954101e-003 -316.4533 443.5799)" class="st4" width="4.3" height="0.4"/>
					</g>
					<g>
						
							<rect x="61.9" y="379.6" transform="matrix(3.558696e-003 -1 1 3.558696e-003 -316.8435 441.6241)" class="st4" width="2.6" height="0.4"/>
					</g>
					<g>
						
							<rect x="60.6" y="379.6" transform="matrix(3.924617e-003 -1 1 3.924617e-003 -318.1262 440.2125)" class="st4" width="2.6" height="0.4"/>
					</g>
					<g>
						
							<rect x="59.3" y="379.6" transform="matrix(3.544681e-003 -1 1 3.544681e-003 -319.3637 439.0851)" class="st4" width="2.6" height="0.4"/>
					</g>
					<g>
						
							<rect x="58.1" y="379.6" transform="matrix(3.909438e-003 -1 1 3.909438e-003 -320.6441 437.6752)" class="st4" width="2.6" height="0.4"/>
					</g>
					<g>
						
							<rect x="55.8" y="380.4" transform="matrix(3.923077e-003 -1 1 3.923077e-003 -322.9406 437.0398)" class="st4" width="4.3" height="0.4"/>
					</g>
					<g>
						<polygon class="st4" points="56.9,381.1 56.4,381.1 56.4,378.5 56.9,378.5 						"/>
					</g>
					<g>
						
							<rect x="54.1" y="379.6" transform="matrix(3.530774e-003 -1 1 3.530774e-003 -324.5954 433.8105)" class="st4" width="2.6" height="0.4"/>
					</g>
					<g>
						
							<rect x="52.8" y="379.6" transform="matrix(3.938528e-003 -1 1 3.938528e-003 -325.8769 432.3835)" class="st4" width="2.6" height="0.4"/>
					</g>
					<g>
						<rect x="52.6" y="378.5" class="st4" width="0.4" height="2.6"/>
					</g>
					<g>
						<polygon class="st4" points="51.6,382.8 51.1,382.8 51.2,378.5 51.6,378.5 						"/>
					</g>
					<g>
						
							<rect x="48.8" y="379.5" transform="matrix(3.557290e-003 -1 1 3.557290e-003 -329.8288 428.5202)" class="st4" width="2.6" height="0.4"/>
					</g>
					<g>
						<polygon class="st4" points="49.1,381.1 48.6,381.1 48.6,378.4 49.1,378.4 						"/>
					</g>
					<g>
						<rect x="47.4" y="378.4" class="st4" width="0.4" height="2.6"/>
					</g>
					<g>
						<polygon class="st4" points="46.5,381.1 46.1,381.1 46.1,378.4 46.5,378.4 						"/>
					</g>
					<g>
						
							<rect x="42.7" y="380.4" transform="matrix(3.518352e-003 -1 1 3.518352e-003 -335.9039 424.0899)" class="st4" width="4.3" height="0.4"/>
					</g>
					<g>
						<polygon class="st4" points="43.8,381.1 43.3,381.1 43.4,378.4 43.8,378.4 						"/>
					</g>
					<g>
						
							<rect x="41" y="379.5" transform="matrix(3.923077e-003 -1 1 3.923077e-003 -337.5959 420.5558)" class="st4" width="2.6" height="0.4"/>
					</g>
					<g>
						
							<rect x="39.7" y="379.5" transform="matrix(3.923077e-003 -1 1 3.923077e-003 -338.8563 419.2838)" class="st4" width="2.6" height="0.4"/>
					</g>
					<g>
						<rect x="39.6" y="378.4" class="st4" width="0.4" height="2.6"/>
					</g>
					<g>
						<rect x="38.1" y="378.4" class="st4" width="0.4" height="4.3"/>
					</g>
				</g>
			</g>
		</g>
		<path class="st5" d="M465.5,172.3l20.3-5.2l-6.8-26.4l-20.6,5.3c-2.5-4.4-5.7-8.6-9.4-12.2l11.5-19.4L437,100.4L425.4,120
			c-5.6-1.6-11.3-2.2-17-2l-5.8-22.5l-26.4,6.8l6,23.4c-4,2.4-7.6,5.3-10.9,8.7l-20.2-11.9L337.3,146l20.4,12.1
			c-1.3,4.7-2,9.5-2.1,14.4l-21.8,5.6l6.8,26.4l21.6-5.6c2.5,4.6,5.6,8.8,9.3,12.6l-10.7,18.1l23.5,13.9l10.5-17.9
			c4.5,1.4,9.2,2.2,13.8,2.3l5.1,19.7l26.4-6.8l-4.8-18.7c5.1-2.5,9.8-5.9,13.9-10l17.3,10.2l13.9-23.5l-17.1-10.1
			C464.8,183.3,465.6,177.8,465.5,172.3z M409.8,209.3c-20.8,0-37.7-16.9-37.7-37.7s16.9-37.7,37.7-37.7c20.8,0,37.7,16.9,37.7,37.7
			S430.6,209.3,409.8,209.3z"/>
		<g>
			<rect x="145.7" y="186.4" class="st6" width="35.2" height="37.8"/>
			<polygon class="st7" points="150.7,188.4 145.7,186.4 145.7,224.2 150.7,226.2 			"/>
			<polygon class="st8" points="150.7,226.2 142.2,228.9 142.2,191.1 150.7,188.4 			"/>
			<polygon class="st7" points="174.7,188.4 180.9,186.4 180.9,224.2 174.7,226.2 			"/>
			<polygon class="st8" points="174.7,226.2 177.3,229.2 177.1,191.1 174.7,188.4 			"/>
			<rect x="142.2" y="191.1" class="st9" width="35.2" height="37.8"/>
			<circle class="st8" cx="151.4" cy="195.7" r="1.3"/>
			<circle class="st8" cx="169.2" cy="195.7" r="1.3"/>
			<g>
				<path class="st7" d="M161.8,209.4h-3.1c-4.5,0-8.1-4-8.1-8.9v-4.7c0-0.4,0.3-0.7,0.7-0.7c0.4,0,0.7,0.3,0.7,0.7v4.7
					c0,4.1,3,7.5,6.7,7.5h3.1c3.7,0,6.7-3.4,6.7-7.5v-4.7c0-0.4,0.3-0.7,0.7-0.7c0.4,0,0.7,0.3,0.7,0.7v4.7
					C169.9,205.4,166.3,209.4,161.8,209.4L161.8,209.4z"/>
			</g>
			<g>
				<path class="st7" d="M158.5,222.3v-2.8c-2-0.1-3.9-0.6-5-1.3l0.9-3.4c1.2,0.7,2.9,1.3,4.8,1.3c1.7,0,2.8-0.7,2.8-1.8
					c0-1.1-0.9-1.8-3.1-2.5c-3.1-1.1-5.3-2.5-5.3-5.3c0-2.6,1.8-4.6,4.9-5.2v-2.8h2.9v2.6c1.9,0.1,3.2,0.5,4.3,1l-0.9,3.3
					c-0.7-0.4-2.1-1-4.2-1c-1.9,0-2.5,0.8-2.5,1.7c0,0.9,1,1.6,3.5,2.5c3.5,1.2,4.8,2.8,4.8,5.5c0,2.6-1.8,4.8-5.2,5.4v3H158.5z"/>
			</g>
			<g>
				<path class="st10" d="M163.5,188.3v-1.5c-1.1,0-2.1-0.4-2.7-0.7l0.5-1.9c0.7,0.4,1.6,0.7,2.6,0.7c0.9,0,1.5-0.4,1.5-1
					c0-0.6-0.5-1-1.7-1.4c-1.7-0.6-2.9-1.4-2.9-2.9c0-1.4,1-2.5,2.7-2.8v-1.5h1.6v1.4c1.1,0,1.8,0.3,2.3,0.5L167,179
					c-0.4-0.2-1.1-0.6-2.3-0.6c-1,0-1.4,0.5-1.4,0.9c0,0.5,0.6,0.9,1.9,1.4c1.9,0.7,2.6,1.5,2.6,3c0,1.4-1,2.6-2.8,2.9v1.6H163.5z"
					/>
			</g>
			<g>
				<path class="st10" d="M156.4,178.4v-0.9c-0.6,0-1.2-0.2-1.5-0.4l0.3-1.1c0.4,0.2,0.9,0.4,1.5,0.4c0.5,0,0.9-0.2,0.9-0.6
					c0-0.3-0.3-0.6-1-0.8c-1-0.3-1.6-0.8-1.6-1.7c0-0.8,0.6-1.4,1.5-1.6V171h0.9v0.8c0.6,0,1,0.2,1.3,0.3l-0.3,1
					c-0.2-0.1-0.6-0.3-1.3-0.3c-0.6,0-0.8,0.3-0.8,0.5c0,0.3,0.3,0.5,1.1,0.8c1.1,0.4,1.5,0.9,1.5,1.7c0,0.8-0.6,1.5-1.6,1.7v0.9
					H156.4z"/>
			</g>
			<g>
				<path class="st11" d="M161.8,208h-3.1c-4.4,0-8-3.6-8-8v-4.2c0-0.4,0.3-0.7,0.7-0.7c0.4,0,0.7,0.3,0.7,0.7v4.2
					c0,3.7,3,6.7,6.7,6.7h3.1c3.7,0,6.7-3,6.7-6.7v-4.2c0-0.4,0.3-0.7,0.7-0.7c0.4,0,0.7,0.3,0.7,0.7v4.2
					C169.9,204.4,166.3,208,161.8,208L161.8,208z"/>
			</g>
		</g>
		<g>
			<g>
				<path class="st12" d="M507,256.3c0,1.2-1,2.2-2.2,2.2h-44.7c-1.2,0-2.2-1-2.2-2.2v-57.7c0-1.2,1-2.2,2.2-2.2h44.7
					c1.2,0,2.2,1,2.2,2.2V256.3z"/>
				<path class="st13" d="M507,254.6c0,1.2-1,2.2-2.2,2.2h-44.7c-1.2,0-2.2-1-2.2-2.2V197c0-1.2,1-2.2,2.2-2.2h44.7
					c1.2,0,2.2,1,2.2,2.2V254.6z"/>
				<rect x="461.9" y="198.7" class="st11" width="41.2" height="54.1"/>
				<rect x="461.9" y="251.1" class="st10" width="41.2" height="1.8"/>
				<path class="st7" d="M492,201.6v-2.2c0-0.7-0.6-1.3-1.3-1.3h-16.5c-0.7,0-1.3,0.6-1.3,1.3v2.2H492z"/>
				<path class="st9" d="M492,200.6v-2.2c0-0.7-0.6-1.3-1.3-1.3h-16.5c-0.7,0-1.3,0.6-1.3,1.3v2.2H492z"/>
				<circle class="st9" cx="482.5" cy="197" r="3.1"/>
				<circle class="st12" cx="482.5" cy="197" r="1.3"/>
				<g>
					<rect x="471.9" y="213.2" class="st10" width="25.7" height="1.4"/>
					<rect x="471.9" y="218.7" class="st10" width="25.7" height="1.3"/>
					<rect x="471.9" y="224.3" class="st10" width="25.7" height="1.3"/>
					<rect x="471.9" y="229.8" class="st10" width="25.7" height="1.3"/>
				</g>
				<g>
					<path class="st6" d="M467.1,215.5c-0.2,0-0.3-0.1-0.4-0.2l-1-1.1c-0.2-0.2-0.2-0.6,0-0.9c0.2-0.2,0.6-0.2,0.9,0l0.5,0.6
						l1.8-2.2c0.2-0.3,0.6-0.3,0.9-0.1c0.3,0.2,0.3,0.6,0.1,0.9l-2.2,2.7C467.5,215.4,467.3,215.5,467.1,215.5
						C467.1,215.5,467.1,215.5,467.1,215.5L467.1,215.5z"/>
				</g>
				<g>
					<path class="st6" d="M467.1,220.8c-0.2,0-0.3-0.1-0.4-0.2l-1-1.1c-0.2-0.2-0.2-0.6,0-0.9c0.2-0.2,0.6-0.2,0.9,0l0.5,0.6
						l1.8-2.2c0.2-0.3,0.6-0.3,0.9-0.1c0.3,0.2,0.3,0.6,0.1,0.9l-2.2,2.7C467.5,220.7,467.3,220.8,467.1,220.8
						C467.1,220.8,467.1,220.8,467.1,220.8L467.1,220.8z"/>
				</g>
				<g>
					<path class="st6" d="M467.1,226.1c-0.2,0-0.3-0.1-0.4-0.2l-1-1.1c-0.2-0.2-0.2-0.6,0-0.9c0.2-0.2,0.6-0.2,0.9,0l0.5,0.6
						l1.8-2.2c0.2-0.3,0.6-0.3,0.9-0.1c0.3,0.2,0.3,0.6,0.1,0.9l-2.2,2.7C467.5,226,467.3,226.1,467.1,226.1
						C467.1,226.1,467.1,226.1,467.1,226.1L467.1,226.1z"/>
				</g>
				<g>
					<path class="st6" d="M483.6,245.6C483.6,245.6,483.6,245.6,483.6,245.6c-0.4-0.1-0.6-0.5-0.7-0.8c-0.3-1.1-0.1-2.2,0.5-3.2
						c-0.1-0.3-0.2-0.6-0.4-0.9c-0.1-0.2,0-0.4,0.1-0.5c0.2-0.1,0.4,0,0.5,0.1c0.1,0.2,0.2,0.4,0.3,0.6c0.6-0.6,1.5-1,2.3-1
						c1.1,0,2.2,1,2.8,2c0,0,0,0.1,0.1,0.1c1.1-0.7,2.5-1.2,3.2-1.2c1,0.1,1.1,1.1,1.1,1.7c0.3-0.4,0.4-0.6,0.4-0.8
						c0.3-0.8,0.5-0.7,2.2-0.4l0.4,0.1c0.2,0,0.3,0.2,0.3,0.4c0,0.2-0.2,0.3-0.4,0.3l-0.4-0.1c-0.7-0.1-1.2-0.2-1.4-0.2
						c0,0,0,0.1-0.1,0.1c-0.1,0.2-0.2,0.6-0.6,1.1c-0.3,0.4-0.5,0.6-0.8,0.5c-0.3-0.1-0.3-0.4-0.3-0.8c0-0.8-0.1-1.2-0.5-1.3
						c-0.7-0.1-1.9,0.5-2.8,1.1c0.3,0.6,0.4,1.3,0.1,1.7c-0.1,0.2-0.4,0.4-1,0.2c-0.8-0.2-0.8-0.8-0.7-1c0.1-0.3,0.4-0.7,0.8-1.1
						c0-0.1-0.1-0.1-0.1-0.2c-0.5-0.8-1.4-1.7-2.2-1.7c-0.8,0-1.6,0.4-2.1,1.1c0.4,1.5,0.3,3.1-0.1,3.6
						C483.9,245.6,483.7,245.6,483.6,245.6L483.6,245.6z M483.6,242.7c-0.2,0.6-0.2,1.3,0,1.9c0,0,0,0,0,0.1
						C483.7,244.2,483.7,243.5,483.6,242.7L483.6,242.7z M488.9,243.1c-0.2,0.2-0.4,0.4-0.4,0.6c0,0,0,0.1,0.3,0.2
						c0.2,0.1,0.3,0,0.3,0C489,243.9,489,243.6,488.9,243.1L488.9,243.1z"/>
				</g>
			</g>
			<g>
				<polyline class="st6" points="516.7,209.6 516.7,241.1 522.7,241.1 522.7,209.6 				"/>
				<path class="st9" d="M522.7,241.6c0,0.3-0.2,0.6-0.5,0.7c-1.6,0.4-3.3,0.4-4.9,0c-0.3-0.1-0.5-0.4-0.5-0.7c0-0.5,0-0.5,0-0.5
					h5.9C522.7,241.1,522.7,241.1,522.7,241.6z"/>
				<rect x="516.7" y="209.6" class="st8" width="1" height="31.6"/>
				<rect x="519.7" y="209.6" class="st8" width="2" height="31.6"/>
				<polygon class="st11" points="522.7,209.6 521.7,210.4 520.7,209.6 519.7,210.4 518.7,209.6 517.7,210.4 516.7,209.6 
					519.7,205.8 				"/>
				<path class="st6" d="M518.5,207.3l1.2-1.5l1.2,1.5c-0.4,0.1-0.8,0.2-1.2,0.2C519.3,207.5,518.9,207.4,518.5,207.3z"/>
			</g>
		</g>
		<g>
			<g>
				<path class="st14" d="M269.8,171.7c0-1.8,1.5-3.2,3.3-3.2H401c1.8,0,3.3,1.4,3.3,3.2V365c0,1.8-1.5,3.2-3.3,3.2H273.1
					c-1.8,0-3.3-1.4-3.3-3.2V171.7z"/>
				<path class="st15" d="M399.2,236.3c0,1.8-1.4,3.2-3.2,3.2H278c-1.8,0-3.2-1.4-3.2-3.2v-60.9c0-1.8,1.4-3.2,3.2-3.2h118
					c1.8,0,3.2,1.4,3.2,3.2V236.3z"/>
				<path class="st16" d="M395.5,356c0,1.8-1.4,3.2-3.2,3.2H281.6c-1.8,0-3.2-1.4-3.2-3.2V253.9c0-1.8,1.4-3.2,3.2-3.2h110.7
					c1.8,0,3.2,1.4,3.2,3.2V356z"/>
				<path class="st17" d="M383.2,230.1h-96.3c-0.9,0-1.6-0.7-1.6-1.6v-29.4c0-0.9,0.7-1.6,1.6-1.6h1.6
					C288.5,197.5,345.5,203,383.2,230.1z"/>
				<path class="st18" d="M390.2,199.1v29.4c0,0.9-0.7,1.6-1.6,1.6h-5.3c-37.7-27.1-94.7-32.6-94.7-32.6h100.1
					C389.5,197.5,390.2,198.2,390.2,199.1z"/>
				<g>
					<path class="st19" d="M302.6,263.9c0,0.9-0.7,1.6-1.6,1.6h-14c-0.9,0-1.6-0.7-1.6-1.6v-6.7c0-0.9,0.7-1.6,1.6-1.6h14
						c0.9,0,1.6,0.7,1.6,1.6V263.9z"/>
					<path class="st15" d="M324.1,263.9c0,0.9-0.7,1.6-1.6,1.6h-14c-0.9,0-1.6-0.7-1.6-1.6v-6.7c0-0.9,0.7-1.6,1.6-1.6h14
						c0.9,0,1.6,0.7,1.6,1.6V263.9z"/>
					<path class="st15" d="M345.6,263.9c0,0.9-0.7,1.6-1.6,1.6h-14c-0.9,0-1.6-0.7-1.6-1.6v-6.7c0-0.9,0.7-1.6,1.6-1.6h14
						c0.9,0,1.6,0.7,1.6,1.6V263.9z"/>
					<path class="st15" d="M367,263.9c0,0.9-0.7,1.6-1.6,1.6h-14c-0.9,0-1.6-0.7-1.6-1.6v-6.7c0-0.9,0.7-1.6,1.6-1.6h14
						c0.9,0,1.6,0.7,1.6,1.6V263.9z"/>
					<path class="st15" d="M388.5,263.9c0,0.9-0.7,1.6-1.6,1.6h-14c-0.9,0-1.6-0.7-1.6-1.6v-6.7c0-0.9,0.7-1.6,1.6-1.6h14
						c0.9,0,1.6,0.7,1.6,1.6V263.9z"/>
					<path class="st15" d="M302.6,282.9c0,0.9-0.7,1.6-1.6,1.6h-14c-0.9,0-1.6-0.7-1.6-1.6v-11.2c0-0.9,0.7-1.6,1.6-1.6h14
						c0.9,0,1.6,0.7,1.6,1.6V282.9z"/>
					<path class="st15" d="M324.1,282.9c0,0.9-0.7,1.6-1.6,1.6h-14c-0.9,0-1.6-0.7-1.6-1.6v-11.2c0-0.9,0.7-1.6,1.6-1.6h14
						c0.9,0,1.6,0.7,1.6,1.6V282.9z"/>
					<path class="st15" d="M345.6,282.9c0,0.9-0.7,1.6-1.6,1.6h-14c-0.9,0-1.6-0.7-1.6-1.6v-11.2c0-0.9,0.7-1.6,1.6-1.6h14
						c0.9,0,1.6,0.7,1.6,1.6V282.9z"/>
					<path class="st15" d="M367,282.9c0,0.9-0.7,1.6-1.6,1.6h-14c-0.9,0-1.6-0.7-1.6-1.6v-11.2c0-0.9,0.7-1.6,1.6-1.6h14
						c0.9,0,1.6,0.7,1.6,1.6V282.9z"/>
					<path class="st15" d="M388.5,282.9c0,0.9-0.7,1.6-1.6,1.6h-14c-0.9,0-1.6-0.7-1.6-1.6v-11.2c0-0.9,0.7-1.6,1.6-1.6h14
						c0.9,0,1.6,0.7,1.6,1.6V282.9z"/>
					<path class="st15" d="M302.6,300.3c0,0.9-0.7,1.6-1.6,1.6h-14c-0.9,0-1.6-0.7-1.6-1.6v-11.2c0-0.9,0.7-1.6,1.6-1.6h14
						c0.9,0,1.6,0.7,1.6,1.6V300.3z"/>
					<path class="st15" d="M324.1,300.3c0,0.9-0.7,1.6-1.6,1.6h-14c-0.9,0-1.6-0.7-1.6-1.6v-11.2c0-0.9,0.7-1.6,1.6-1.6h14
						c0.9,0,1.6,0.7,1.6,1.6V300.3z"/>
					<path class="st15" d="M345.6,300.3c0,0.9-0.7,1.6-1.6,1.6h-14c-0.9,0-1.6-0.7-1.6-1.6v-11.2c0-0.9,0.7-1.6,1.6-1.6h14
						c0.9,0,1.6,0.7,1.6,1.6V300.3z"/>
					<path class="st15" d="M367,300.3c0,0.9-0.7,1.6-1.6,1.6h-14c-0.9,0-1.6-0.7-1.6-1.6v-11.2c0-0.9,0.7-1.6,1.6-1.6h14
						c0.9,0,1.6,0.7,1.6,1.6V300.3z"/>
					<path class="st15" d="M388.5,300.3c0,0.9-0.7,1.6-1.6,1.6h-14c-0.9,0-1.6-0.7-1.6-1.6v-11.2c0-0.9,0.7-1.6,1.6-1.6h14
						c0.9,0,1.6,0.7,1.6,1.6V300.3z"/>
					<path class="st15" d="M302.6,317.8c0,0.9-0.7,1.6-1.6,1.6h-14c-0.9,0-1.6-0.7-1.6-1.6v-11.2c0-0.9,0.7-1.6,1.6-1.6h14
						c0.9,0,1.6,0.7,1.6,1.6V317.8z"/>
					<path class="st15" d="M324.1,317.8c0,0.9-0.7,1.6-1.6,1.6h-14c-0.9,0-1.6-0.7-1.6-1.6v-11.2c0-0.9,0.7-1.6,1.6-1.6h14
						c0.9,0,1.6,0.7,1.6,1.6V317.8z"/>
					<path class="st15" d="M345.6,317.8c0,0.9-0.7,1.6-1.6,1.6h-14c-0.9,0-1.6-0.7-1.6-1.6v-11.2c0-0.9,0.7-1.6,1.6-1.6h14
						c0.9,0,1.6,0.7,1.6,1.6V317.8z"/>
					<path class="st15" d="M367,317.8c0,0.9-0.7,1.6-1.6,1.6h-14c-0.9,0-1.6-0.7-1.6-1.6v-11.2c0-0.9,0.7-1.6,1.6-1.6h14
						c0.9,0,1.6,0.7,1.6,1.6V317.8z"/>
					<path class="st15" d="M388.5,317.8c0,0.9-0.7,1.6-1.6,1.6h-14c-0.9,0-1.6-0.7-1.6-1.6v-11.2c0-0.9,0.7-1.6,1.6-1.6h14
						c0.9,0,1.6,0.7,1.6,1.6V317.8z"/>
					<path class="st15" d="M302.6,335.2c0,0.9-0.7,1.6-1.6,1.6h-14c-0.9,0-1.6-0.7-1.6-1.6V324c0-0.9,0.7-1.6,1.6-1.6h14
						c0.9,0,1.6,0.7,1.6,1.6V335.2z"/>
					<path class="st15" d="M324.1,335.2c0,0.9-0.7,1.6-1.6,1.6h-14c-0.9,0-1.6-0.7-1.6-1.6V324c0-0.9,0.7-1.6,1.6-1.6h14
						c0.9,0,1.6,0.7,1.6,1.6V335.2z"/>
					<path class="st15" d="M345.6,335.2c0,0.9-0.7,1.6-1.6,1.6h-14c-0.9,0-1.6-0.7-1.6-1.6V324c0-0.9,0.7-1.6,1.6-1.6h14
						c0.9,0,1.6,0.7,1.6,1.6V335.2z"/>
					<path class="st15" d="M388.5,335.2c0,0.9-0.7,1.6-1.6,1.6h-14c-0.9,0-1.6-0.7-1.6-1.6V324c0-0.9,0.7-1.6,1.6-1.6h14
						c0.9,0,1.6,0.7,1.6,1.6V335.2z"/>
					<path class="st15" d="M302.6,352.7c0,0.9-0.7,1.6-1.6,1.6h-14c-0.9,0-1.6-0.7-1.6-1.6v-11.2c0-0.9,0.7-1.6,1.6-1.6h14
						c0.9,0,1.6,0.7,1.6,1.6V352.7z"/>
					<path class="st15" d="M324.1,352.7c0,0.9-0.7,1.6-1.6,1.6h-14c-0.9,0-1.6-0.7-1.6-1.6v-11.2c0-0.9,0.7-1.6,1.6-1.6h14
						c0.9,0,1.6,0.7,1.6,1.6V352.7z"/>
					<path class="st15" d="M345.6,352.7c0,0.9-0.7,1.6-1.6,1.6h-14c-0.9,0-1.6-0.7-1.6-1.6v-11.2c0-0.9,0.7-1.6,1.6-1.6h14
						c0.9,0,1.6,0.7,1.6,1.6V352.7z"/>
					<path class="st15" d="M388.5,352.7c0,0.9-0.7,1.6-1.6,1.6h-14c-0.9,0-1.6-0.7-1.6-1.6v-11.2c0-0.9,0.7-1.6,1.6-1.6h14
						c0.9,0,1.6,0.7,1.6,1.6V352.7z"/>
					<path class="st15" d="M349.9,352.7c0,0.9,0.7,1.6,1.6,1.6h14c0.9,0,1.6-0.7,1.6-1.6V324c0-0.9-0.7-1.6-1.6-1.6h-14
						c-0.9,0-1.6,0.7-1.6,1.6V352.7z"/>
				</g>
			</g>
			<g>
				<g>
					<path class="st20" d="M300.6,364c1.2,3.3,4.9,5,8.2,3.8l0,0c3.3-1.2,5-4.9,3.8-8.2l-22.8-53c-1.2-3.3-4.9-5-8.2-3.8l0,0
						c-3.3,1.2-5,4.9-3.8,8.2L300.6,364z"/>
					<path class="st21" d="M281.3,314.2l-1-2.7c-0.9-2.4-0.6-5.8,1.8-6.7l0.4-0.2c2.4-0.9,4.8,1.5,5.7,3.9l1,2.7L281.3,314.2z"/>
				</g>
				<path class="st20" d="M351.7,308.4c-0.6-6.6-5.2-11.6-10.4-11.2l-36.2,3.1c-5.2,0.4-8.9,6.2-8.3,12.8l3.8,44
					c0.6,6.6,5.2,11.6,10.4,11.2l36.2-3.1c5.2-0.4,8.9-6.2,8.3-12.8L351.7,308.4z"/>
				<rect x="309" y="363" class="st20" width="43" height="21"/>
				<g>
					<path class="st20" d="M304,262.5c-0.3-3.2-3.1-5.6-6.3-5.3l0,0c-3.2,0.3-5.6,3.1-5.3,6.3l8.2,95.5c0.3,3.2,3.1,5.6,6.3,5.3l0,0
						c3.2-0.3,5.6-3.1,5.3-6.3L304,262.5z"/>
					<path class="st21" d="M302.6,263.4c-0.2-2-2.2-3.5-4.4-3.3l-0.5,0c-2.3,0.2-4,2-3.8,4l0.1,1.4c0.2,2,2.1,3.5,4.4,3.3l0.5,0
						c2.3-0.2,4-2,3.8-4L302.6,263.4z"/>
				</g>
				<path class="st20" d="M321.4,294.6c-0.3-3.2-3.1-5.6-6.3-5.3l0,0c-3.2,0.3-5.6,3.1-5.3,6.3l5.4,62.2c0.3,3.2,3.1,5.6,6.3,5.3
					l0,0c3.2-0.3,5.6-3.1,5.3-6.3L321.4,294.6z"/>
				<path class="st20" d="M335.8,293.3c-0.3-3.2-3.1-5.6-6.3-5.3l0,0c-3.2,0.3-5.6,3.1-5.3,6.3l5.4,62.2c0.3,3.2,3.1,5.6,6.3,5.3
					l0,0c3.2-0.3,5.6-3.1,5.3-6.3L335.8,293.3z"/>
				<path class="st20" d="M350.3,292.1c-0.3-3.2-3.1-5.6-6.3-5.3l0,0c-3.2,0.3-5.6,3.1-5.3,6.3l5.4,62.2c0.3,3.2,3.1,5.6,6.3,5.3
					l0,0c3.2-0.3,5.6-3.1,5.3-6.3L350.3,292.1z"/>
				<g>
					<rect x="299" y="391" class="st22" width="62" height="111"/>
					<rect x="331" y="391" class="st23" width="30" height="111"/>
					<rect x="305" y="382" class="st11" width="55" height="9"/>
				</g>
			</g>
		</g>
		<g>
			<g>
				<path class="st6" d="M537.5,406.7v0.8c0.5,0.1,0.9,0.2,1.3,0.3c0.4,0.2,0.7,0.4,0.9,0.7c0.2,0.2,0.4,0.5,0.5,0.7
					c0.1,0.2,0.2,0.5,0.2,0.7c0,0.2-0.1,0.4-0.3,0.6c-0.2,0.2-0.4,0.2-0.6,0.2c-0.5,0-0.7-0.2-0.9-0.7c-0.2-0.6-0.5-1-1.1-1.2v2.9
					c0.6,0.2,1,0.3,1.4,0.4c0.3,0.1,0.6,0.3,0.9,0.6c0.3,0.2,0.5,0.6,0.7,0.9c0.2,0.4,0.2,0.7,0.2,1.2c0,0.5-0.1,1-0.4,1.5
					c-0.3,0.5-0.6,0.8-1.1,1.1c-0.5,0.3-1.1,0.5-1.7,0.5v0.7c0,0.3,0,0.5-0.1,0.6c0,0.1-0.2,0.2-0.3,0.2c-0.2,0-0.3-0.1-0.4-0.2
					c-0.1-0.1-0.1-0.3-0.1-0.5V418c-0.5-0.1-1-0.2-1.4-0.4c-0.4-0.2-0.7-0.4-1-0.7c-0.3-0.3-0.5-0.6-0.6-0.9
					c-0.1-0.3-0.2-0.6-0.2-0.9c0-0.2,0.1-0.4,0.3-0.6c0.2-0.2,0.4-0.3,0.6-0.3c0.2,0,0.4,0,0.5,0.1c0.1,0.1,0.2,0.2,0.3,0.4
					c0.1,0.4,0.2,0.7,0.3,0.9c0.1,0.2,0.2,0.4,0.4,0.6c0.2,0.2,0.4,0.3,0.7,0.4v-3.2c-0.6-0.2-1.1-0.4-1.6-0.6
					c-0.4-0.2-0.8-0.5-1-0.9c-0.3-0.4-0.4-0.9-0.4-1.5c0-0.8,0.3-1.5,0.8-2c0.5-0.5,1.2-0.8,2.2-0.9v-0.7c0-0.4,0.1-0.6,0.4-0.6
					C537.3,406.1,537.5,406.3,537.5,406.7z M536.6,411.5v-2.7c-0.4,0.1-0.7,0.3-0.9,0.5c-0.2,0.2-0.3,0.5-0.3,0.9
					c0,0.4,0.1,0.6,0.3,0.8C535.8,411.2,536.2,411.3,536.6,411.5z M537.5,413.5v3c0.5-0.1,0.8-0.3,1.1-0.6c0.2-0.3,0.4-0.6,0.4-1
					c0-0.4-0.1-0.7-0.4-0.9C538.3,413.9,537.9,413.7,537.5,413.5z"/>
			</g>
			<g>
				<polygon class="st6" points="508,415.3 506.2,413.5 513,406.7 514.8,408.5 508,415.3 				"/>
			</g>
			<g>
				<path class="st6" d="M506.4,416.4l-1.3-1.3l1.5-12.5l7.2-2.5l2.6-2.6l7.5,7.5l-2.6,2.6l-2.5,7.2L506.4,416.4L506.4,416.4z
					 M508.9,404.5l-1.1,9.2l9.2-1.1l2.2-6.3l1.2-1.2l-4-4l-1.2,1.2L508.9,404.5L508.9,404.5z"/>
			</g>
			<g>
				<path class="st6" d="M523.1,407.2l-8.8-8.8l1-0.9c7.6-7,15.2-14.1,22.8-21.1l4.6-4.2c2-1.8,5.1-2,6.8-0.4l0.4,0.4
					c1.7,1.7,1.5,4.7-0.4,6.7l-1.7,1.8c-7.9,8.5-15.8,17.1-23.7,25.6L523.1,407.2L523.1,407.2z M517.9,398.5l5.1,5.1
					c7.6-8.2,15.2-16.4,22.8-24.6l1.7-1.8c1-1,1.2-2.5,0.4-3.3l-0.4-0.4c-0.3-0.3-0.8-0.4-1.2-0.4c-0.7,0-1.5,0.3-2.1,0.9l-4.6,4.2
					C532.4,385,525.1,391.7,517.9,398.5L517.9,398.5z"/>
			</g>
			<g>
				<path class="st6" d="M541,423.5h-39.2c-0.7,0-1.3-0.6-1.3-1.3c0-0.7,0.6-1.3,1.3-1.3H541c0.7,0,1.3,0.6,1.3,1.3
					C542.3,422.9,541.7,423.5,541,423.5L541,423.5z"/>
			</g>
			<g>
				<path class="st6" d="M550.3,431.6h-57c-0.7,0-1.3-0.6-1.3-1.3v-34.4c0-0.7,0.6-1.3,1.3-1.3h25.5c0.7,0,1.3,0.6,1.3,1.3
					c0,0.7-0.6,1.3-1.3,1.3h-24.3v31.9H549v-31.9h-17.2c-0.7,0-1.3-0.6-1.3-1.3c0-0.7,0.6-1.3,1.3-1.3h18.4c0.7,0,1.3,0.6,1.3,1.3
					v34.4C551.5,431,551,431.6,550.3,431.6L550.3,431.6z"/>
			</g>
		</g>
		<g>
			<circle class="st6" cx="216.9" cy="215.5" r="28.2"/>
			<path class="st8" d="M216.9,187.3c15.6,0,28.2,12.6,28.2,28.2c0,15.5-12.6,28.2-28.2,28.2"/>
			<circle class="st11" cx="216.9" cy="215.5" r="21.9"/>
			<path class="st24" d="M197.4,217c0-12.1,9.8-21.9,21.9-21.9c4,0,7.7,1.1,10.9,2.9c-3.7-2.8-8.3-4.5-13.3-4.5
				c-12.1,0-21.9,9.8-21.9,21.9c0,8.1,4.4,15.2,11,19C200.7,230.4,197.4,224.1,197.4,217z"/>
			<circle class="st12" cx="216.9" cy="215.5" r="3.9"/>
			<g>
				<g>
					<g>
						<g>
							<path class="st12" d="M226.2,199.6c-0.1,0-0.1,0-0.2,0c-0.2-0.1-0.2-0.3-0.1-0.4l0.6-1c0.1-0.2,0.3-0.2,0.4-0.1
								c0.2,0.1,0.2,0.3,0.1,0.4l-0.6,1C226.4,199.6,226.3,199.6,226.2,199.6L226.2,199.6z"/>
						</g>
						<g>
							<path class="st12" d="M207,233c-0.1,0-0.1,0-0.2,0c-0.2-0.1-0.2-0.3-0.1-0.4l0.6-1c0.1-0.2,0.3-0.2,0.4-0.1
								c0.2,0.1,0.2,0.3,0.1,0.4l-0.6,1C207.2,232.9,207.1,233,207,233L207,233z"/>
						</g>
						<g>
							<path class="st12" d="M234.1,225.7c-0.1,0-0.1,0-0.2,0l-1-0.6c-0.2-0.1-0.2-0.3-0.1-0.4c0.1-0.2,0.3-0.2,0.4-0.1l1,0.6
								c0.1,0.1,0.2,0.3,0.1,0.4C234.3,225.6,234.2,225.7,234.1,225.7L234.1,225.7z"/>
						</g>
						<g>
							<path class="st12" d="M200.8,206.5c-0.1,0-0.1,0-0.2,0l-1-0.6c-0.2-0.1-0.2-0.3-0.1-0.4c0.1-0.2,0.3-0.2,0.4-0.1l1,0.6
								c0.2,0.1,0.2,0.3,0.1,0.4C201,206.4,200.9,206.5,200.8,206.5L200.8,206.5z"/>
						</g>
					</g>
					<g>
						<g>
							<path class="st12" d="M207.6,199.6c-0.1,0-0.2-0.1-0.3-0.2l-0.6-1c-0.1-0.2,0-0.3,0.1-0.4c0.2-0.1,0.3,0,0.4,0.1l0.6,1
								c0.1,0.2,0,0.3-0.1,0.4C207.7,199.6,207.7,199.6,207.6,199.6L207.6,199.6z"/>
						</g>
						<g>
							<path class="st12" d="M226.8,233c-0.1,0-0.2-0.1-0.3-0.2l-0.6-1c-0.1-0.1,0-0.3,0.1-0.4c0.2-0.1,0.3,0,0.4,0.1l0.6,1
								c0.1,0.2,0,0.3-0.1,0.4C226.9,232.9,226.9,233,226.8,233L226.8,233z"/>
						</g>
						<g>
							<path class="st12" d="M199.7,225.7c-0.1,0-0.2-0.1-0.3-0.2c-0.1-0.2,0-0.3,0.1-0.4l1-0.6c0.2-0.1,0.3,0,0.4,0.1
								c0.1,0.2,0,0.3-0.1,0.4l-1,0.6C199.8,225.7,199.8,225.7,199.7,225.7L199.7,225.7z"/>
						</g>
						<g>
							<path class="st12" d="M233,206.5c-0.1,0-0.2-0.1-0.3-0.2c-0.1-0.2,0-0.3,0.1-0.4l1-0.6c0.2-0.1,0.3,0,0.4,0.1
								c0.1,0.2,0,0.3-0.1,0.4l-1,0.6C233.2,206.5,233.1,206.5,233,206.5L233,206.5z"/>
						</g>
					</g>
					<g>
						<g>
							<path class="st12" d="M198.3,215.8L198.3,215.8l-1.2,0c-0.2,0-0.3-0.1-0.3-0.3c0-0.2,0.1-0.3,0.3-0.3l0,0l1.2,0
								c0.2,0,0.3,0.1,0.3,0.3C198.6,215.6,198.5,215.8,198.3,215.8L198.3,215.8z"/>
						</g>
						<g>
							<path class="st12" d="M235.5,215.8c-0.2,0-0.3-0.1-0.3-0.3c0-0.2,0.1-0.3,0.3-0.3l1.2,0h0c0.2,0,0.3,0.1,0.3,0.3
								c0,0.2-0.1,0.3-0.3,0.3L235.5,215.8L235.5,215.8L235.5,215.8z"/>
						</g>
						<g>
							<path class="st12" d="M216.9,235.6C216.9,235.6,216.9,235.6,216.9,235.6c-0.2,0-0.3-0.1-0.3-0.3l0-1.2c0-0.2,0.1-0.3,0.3-0.3
								l0,0c0.2,0,0.3,0.1,0.3,0.3l0,1.2C217.2,235.5,217.1,235.6,216.9,235.6L216.9,235.6z"/>
						</g>
						<g>
							<path class="st12" d="M216.9,197.1c-0.2,0-0.3-0.1-0.3-0.3v-1.2c0-0.2,0.1-0.3,0.3-0.3c0.2,0,0.3,0.1,0.3,0.3v1.2
								C217.2,197,217.1,197.1,216.9,197.1L216.9,197.1z"/>
						</g>
					</g>
				</g>
				<g>
					<g>
						<path class="st12" d="M216.9,216.5c-0.6,0-1-0.5-1-1v-15.5c0-0.6,0.5-1,1-1c0.6,0,1,0.5,1,1v15.5
							C218,216,217.5,216.5,216.9,216.5L216.9,216.5z"/>
					</g>
					<g>
						<path class="st12" d="M210.1,223.3c-0.3,0-0.5-0.1-0.7-0.3c-0.4-0.4-0.4-1.1,0-1.5l6.5-6.5c0.4-0.4,1.1-0.4,1.5,0
							c0.4,0.4,0.4,1.1,0,1.5l-6.5,6.5C210.7,223.2,210.4,223.3,210.1,223.3L210.1,223.3z"/>
					</g>
				</g>
			</g>
			<circle class="st11" cx="216.9" cy="215.5" r="2.4"/>
			<circle class="st9" cx="216.9" cy="215.5" r="1.2"/>
			<g>
				<path class="st9" d="M216.9,216c-0.2,0-0.4-0.1-0.5-0.4c-0.1-0.3,0.1-0.6,0.3-0.6l13.5-4.1c0.3-0.1,0.6,0.1,0.6,0.3
					c0.1,0.3-0.1,0.6-0.3,0.6l-13.5,4.1C217,216,217,216,216.9,216L216.9,216z"/>
			</g>
		</g>
		<g>
			<path class="st6" d="M390.7,162.9h5.8c0.4-3.1,1.1-5.9,2.2-8.4c1.1-2.5,2.4-4.6,4-6.3c1.6-1.7,3.5-3,5.7-4
				c2.1-0.9,4.5-1.4,7.1-1.4c1.5,0,2.9,0.1,4.2,0.4c1.3,0.3,2.5,0.7,3.6,1.2c1.1,0.5,2.1,1.2,3.1,1.9c1,0.8,1.9,1.7,2.7,2.7
				l-1.1,1.2c-0.1,0.1-0.2,0.2-0.3,0.3c-0.1,0.1-0.3,0.1-0.5,0.1c-0.2,0-0.4-0.1-0.7-0.4c-0.3-0.2-0.6-0.5-1-0.9
				c-0.4-0.4-0.9-0.7-1.5-1.2c-0.6-0.4-1.3-0.8-2-1.2c-0.8-0.4-1.7-0.7-2.8-0.9c-1-0.2-2.3-0.4-3.6-0.4c-2.1,0-4.1,0.4-5.8,1.1
				c-1.8,0.7-3.3,1.8-4.6,3.3c-1.3,1.4-2.4,3.2-3.3,5.3c-0.9,2.1-1.5,4.6-1.8,7.3h21.3v1.1c0,0.3-0.1,0.5-0.3,0.7
				c-0.2,0.2-0.5,0.3-0.9,0.3h-20.3c-0.1,1.1-0.1,2.3-0.1,3.4c0,0.5,0,1,0,1.4c0,0.5,0,0.9,0.1,1.4h18.3v1.1c0,0.3-0.1,0.5-0.3,0.7
				c-0.2,0.2-0.5,0.3-0.8,0.3h-17c0.3,2.9,0.9,5.5,1.7,7.7c0.8,2.2,1.9,4.1,3.2,5.5c1.3,1.5,2.9,2.6,4.6,3.4
				c1.8,0.8,3.7,1.1,5.8,1.1c1.5,0,2.7-0.1,3.9-0.4c1.1-0.3,2.1-0.6,2.9-1.1c0.8-0.4,1.6-0.9,2.2-1.4c0.6-0.5,1.1-1,1.6-1.4
				c0.4-0.4,0.8-0.8,1.1-1.1c0.3-0.3,0.5-0.4,0.8-0.4c0.2,0,0.5,0.1,0.7,0.3l1.3,1.2c-0.8,1.1-1.8,2.1-2.8,2.9
				c-1,0.9-2.1,1.6-3.3,2.3c-1.2,0.6-2.5,1.1-3.9,1.4c-1.4,0.3-2.9,0.5-4.6,0.5c-2.7,0-5.1-0.5-7.2-1.4c-2.2-0.9-4-2.3-5.6-4
				c-1.6-1.8-2.9-3.9-3.9-6.5c-1-2.6-1.6-5.5-2-8.7h-5.7v-2.1h5.5c0-0.5,0-0.9-0.1-1.4c0-0.5,0-0.9,0-1.4c0-1.2,0-2.3,0.1-3.4h-5.6
				V162.9z"/>
		</g>
		<g>
			<path class="st6" d="M269.2,403.3h8.8l-10.8-20.4h2c0.4,0,0.8,0.2,1,0.6l8.8,17c0.1,0.3,0.3,0.7,0.4,1c0.1,0.3,0.2,0.6,0.3,0.9
				c0.2-0.6,0.4-1.2,0.7-1.8l8.8-17c0.1-0.2,0.2-0.3,0.4-0.5c0.2-0.1,0.4-0.2,0.6-0.2h2l-10.8,20.4h8.9v1.5H281v3h9.4v1.5H281v9.8
				h-2.4v-9.8h-9.4v-1.5h9.4v-3h-9.4V403.3z"/>
		</g>
		<g>
			<path class="st25" d="M134.1,316.1c0-2-0.8-3.9-2.1-5.2c0.1,0.4,0.1,0.8,0.1,1.2c0,2.9-1.7,5.4-4.1,6.6
				c-2.8-12.6-16.7-22.2-33.3-22.2c-5,0-9.7,0.9-13.9,2.4c-1.4-1.7-3.5-2.8-5.9-2.8c-1.3,0-2.5,0.3-3.5,0.9v7
				c-4.4,3.4-7.7,7.6-9.3,12.5h-2c-2.5,0-4.5,2-4.5,4.5v5.3c0,2.5,2,4.5,4.5,4.5h2c1.6,4.8,4.9,9.1,9.3,12.5v8.6
				c0,2.5,2,4.5,4.5,4.5h5.3c2.5,0,4.5-2,4.5-4.5v-2.1c2.9,0.6,5.9,1,9,1c3.7,0,7.2-0.5,10.5-1.3v2.5c0,2.5,2,4.5,4.5,4.5h5.3
				c2.5,0,4.5-2,4.5-4.5v-9.8c5.6-4.8,9-11.3,9-18.4c0-0.1,0-0.2,0-0.2C131.8,322.4,134.1,319.5,134.1,316.1z"/>
			<path class="st26" d="M72.4,315c-1.1,1.4-2.5,2.1-3.2,1.6c-0.7-0.5-0.3-2.1,0.8-3.5c1.1-1.4,2.5-2.1,3.2-1.6
				C73.9,312,73.5,313.6,72.4,315z"/>
			<g>
				<path class="st26" d="M111.8,310.6c-0.3,0-0.6-0.1-0.9-0.2c-6-3.3-13.4-4.8-20.9-4.2c-1,0.1-1.9-0.7-2-1.7c-0.1-1,0.7-1.9,1.7-2
					c8.1-0.7,16.3,1,22.9,4.6c0.9,0.5,1.2,1.6,0.7,2.5C113,310.2,112.4,310.6,111.8,310.6L111.8,310.6z"/>
			</g>
			<g>
				<circle class="st9" cx="102.3" cy="290.4" r="15.6"/>
				<circle class="st7" cx="102.3" cy="290.4" r="15.1"/>
				<circle class="st9" cx="102.3" cy="290.4" r="11.9"/>
				<g>
					<path class="st7" d="M101.5,297.4c-0.8-0.1-1.5-0.3-2.2-0.6c-0.7-0.3-1.2-0.7-1.7-1.2l0.5-0.8c0-0.1,0.1-0.1,0.2-0.2
						c0.1-0.1,0.2-0.1,0.3-0.1c0.1,0,0.3,0.1,0.4,0.2c0.2,0.1,0.4,0.3,0.6,0.4c0.2,0.2,0.5,0.3,0.8,0.5c0.3,0.1,0.7,0.2,1.1,0.3
						l0.4-5.2c-0.5-0.1-0.9-0.3-1.3-0.5c-0.4-0.2-0.8-0.4-1.2-0.7c-0.3-0.3-0.6-0.6-0.8-1.1c-0.2-0.4-0.3-1-0.3-1.6
						c0-0.5,0.1-0.9,0.3-1.4c0.2-0.5,0.5-0.9,0.8-1.2c0.4-0.4,0.8-0.6,1.3-0.9c0.5-0.2,1.1-0.3,1.8-0.3l0.1-1.4
						c0-0.1,0.1-0.2,0.1-0.3c0.1-0.1,0.2-0.1,0.3-0.1h0.6l-0.1,1.9c0.7,0.1,1.3,0.3,1.8,0.5c0.5,0.3,0.9,0.6,1.3,1l-0.4,0.6
						c-0.1,0.2-0.3,0.3-0.5,0.3c-0.1,0-0.2,0-0.3-0.1c-0.1-0.1-0.3-0.2-0.5-0.3c-0.2-0.1-0.4-0.2-0.7-0.3c-0.2-0.1-0.5-0.2-0.9-0.2
						l-0.3,4.7c0.5,0.1,0.9,0.3,1.4,0.5c0.5,0.2,0.9,0.4,1.2,0.7c0.4,0.3,0.7,0.6,0.9,1c0.2,0.4,0.3,0.9,0.3,1.5
						c0,0.6-0.1,1.1-0.3,1.7c-0.2,0.5-0.5,1-0.9,1.4c-0.4,0.4-0.8,0.7-1.4,1c-0.6,0.2-1.2,0.4-1.9,0.4l-0.1,1.8
						c0,0.1-0.1,0.2-0.2,0.3c-0.1,0.1-0.2,0.1-0.3,0.1h-0.6L101.5,297.4z M99.9,286.8c0,0.3,0.1,0.6,0.2,0.8
						c0.1,0.2,0.3,0.4,0.5,0.6c0.2,0.2,0.4,0.3,0.7,0.5c0.3,0.1,0.5,0.2,0.9,0.4l0.3-4.4c-0.4,0-0.8,0.1-1.1,0.3
						c-0.3,0.1-0.6,0.3-0.8,0.5c-0.2,0.2-0.3,0.4-0.4,0.7C100,286.3,99.9,286.5,99.9,286.8z M105.4,293.3c0-0.3-0.1-0.6-0.2-0.8
						c-0.1-0.2-0.3-0.4-0.5-0.6c-0.2-0.2-0.5-0.3-0.7-0.4c-0.3-0.1-0.6-0.2-0.9-0.3l-0.3,4.9c0.4,0,0.8-0.1,1.1-0.3
						c0.3-0.1,0.6-0.3,0.8-0.6c0.2-0.2,0.4-0.5,0.5-0.8C105.3,294,105.4,293.7,105.4,293.3z"/>
				</g>
			</g>
			<path class="st27" d="M55.7,323.7v2.4c0,2.5,2,4.5,4.5,4.5h2c1.6,4.8,4.9,9.1,9.3,12.5v8.6c0,2.5,2,4.5,4.5,4.5h5.3
				c2.5,0,4.5-2,4.5-4.5v-2.1c2.9,0.6,5.9,1,9,1c3.7,0,7.2-0.5,10.5-1.3v2.5c0,2.5,2,4.5,4.5,4.5h5.3c2.5,0,4.5-2,4.5-4.5v-9.8
				c5.5-4.8,8.9-11.2,9-18.2H55.7z"/>
		</g>
		<g>
			<g>
				<rect x="423.5" y="413" class="st28" width="6" height="2"/>
				<path class="st28" d="M420.4,394.5c-0.3,1.1-0.5,2.3-0.5,3.5c0,4.8,2.8,8.9,6.8,10.8c4-1.9,6.8-6,6.8-10.8
					c0-1.2-0.2-2.4-0.5-3.5H420.4z"/>
				<g>
					<g>
						<path class="st29" d="M423.8,406.8l-0.7-0.1c-4.9-0.5-8.7-5-8.7-10.4c0-0.2,0-0.4,0-0.6l0-0.6h9.3V406.8L423.8,406.8z
							 M415.7,396.5c0,4.4,2.9,8.1,6.8,8.9v-8.9H415.7L415.7,396.5z"/>
					</g>
					<g>
						<path class="st28" d="M429.6,406.8v-11.7h9.3l0,0.6c0,0.2,0,0.4,0,0.6c0,5.4-3.7,9.8-8.7,10.4L429.6,406.8L429.6,406.8z
							 M430.9,396.5v8.9c3.9-0.8,6.8-4.5,6.8-8.9H430.9L430.9,396.5z"/>
					</g>
				</g>
				<rect x="425.6" y="406.3" class="st28" width="1.9" height="8.1"/>
				<path class="st28" d="M431.8,415.1v-0.6c0-0.4-0.3-0.8-0.6-0.8h-9.2c-0.4,0-0.6,0.4-0.6,0.8v0.6H431.8z"/>
				<path class="st29" d="M420.3,394.5c-0.3,1.1-0.5,2.3-0.5,3.5c0,4.4,2.3,8.2,5.8,10.3v4.7h0.9v-6.7v-11.8H420.3z"/>
				<path class="st29" d="M423.5,413.7h-1.6c-0.4,0-0.6,0.4-0.6,0.8v0.6h5.2v-1.4h-0.9H423.5z"/>
				<rect x="419.1" y="415" class="st8" width="14.8" height="6.5"/>
				<rect x="420.9" y="416.6" class="st28" width="11.3" height="3.4"/>
				<rect x="418.5" y="421.2" class="st6" width="16" height="1.6"/>
			</g>
		</g>
		<g>
			<polygon class="st29" points="211.2,155.4 221.5,147.7 221.5,151.7 245.4,151.7 245.4,159 221.5,159 221.5,163 			"/>
			<polygon class="st29" points="245.4,137.3 235.1,144.9 235.1,140.9 211.2,140.9 211.2,133.7 235.1,133.7 235.1,129.7 			"/>
		</g>
		<g>
			<g>
				<path class="st20" d="M231.2,302.3c0,0-3.7-13.1-4.4-16.9c-0.7-3.8-1-7.3-1.6-8.3c-0.7-0.9-8.6-15.2-11.1-21.9
					c0,0-5.3-1.9-5.2,4.5c0.1,6.4,4.1,13.5,6.8,17C215.7,276.7,224.5,302.5,231.2,302.3z"/>
				<path class="st20" d="M233.7,305.3c0,0-1.5-10.1-1.4-11.8c0.1-1.7,0.7-4.8,0.2-6.1c-0.5-1.3-2.3-6.9-2.8-21.6c0,0-4.5-2.4-5.9,2
					c-1.4,4.4-0.9,8.2-0.9,8.2S227.8,302.9,233.7,305.3z"/>
				<path class="st20" d="M234,382.3l1.5-8.9c0,0,1-3,1.8-5.6c0.8-2.6-2.8-6.2-2.5-9.7c0.4-3.5,2.4-48.3-1.2-52.9
					c-3.6-4.6-9.3-9.7-13.4-20.4c-4.1-10.7-5.1-9.1-9-10.9c-3.9-1.8-18.2-9-18.2-9s-8.9,10.3,7,12.8c0,0,4.4,4.5,9.4,7.1
					c0,0,4.4,14.2,7,17.6c0,0-8.3-4.3-11.2-8c-2.9-3.7-6.9-3.3-9.1-2.8c-2.2,0.5-6.1,2.6-9.2,3.1c-3.1,0.5-5.8,0.9-6.9,2
					c-1.1,1.1-11,12.7-11,12.7s1.9,4.5,7.2,2.4c5.3-2.1,7.9-6.8,7.9-6.8s8.2-0.6,11.7-3.1c0,0,6.2,7.8,9,9.4c0,0,0.6,5.7,4.9,10.1
					c0,0-8.8,7.5-15.2,5.1c-6.4-2.4-15.8-12.4-22.2-13.7c-6.3-1.3-8,0.7-7.8,2.9c0.2,2.2,8.8,8.5,11.4,11.4
					c2.6,2.9,11.1,9.2,11.9,13.5c0.9,4.4-1.7,15.9,18.1,26.3c0,0,1.5,8-0.7,14.2L234,382.3z"/>
				<path class="st30" d="M199.7,268.3c0,0-1.8,1.6-3.8,1.2c-2-0.5-4.1-2.6-4.1-2.6l1.4-1.8L199.7,268.3z"/>
			</g>
			<path class="st30" d="M170.2,311c0,0,7.4-3.1,3.2-6.5l-4.3,5L170.2,311z"/>
			<path class="st30" d="M169.4,321.4c0,0,1.5-1.7,0.1-4.1c-1.3-2.3-5-2.3-5-2.3S164.1,316.7,169.4,321.4z"/>
			<g>
				<circle class="st31" cx="159.6" cy="309.1" r="16"/>
				<circle class="st32" cx="159.6" cy="309.1" r="11.8"/>
				<g>
					<path class="st33" d="M153.5,308.3c0.1-0.9,0.3-1.8,0.6-2.6c0.3-0.8,0.7-1.6,1.2-2.3l2.4,1.6c-0.4,0.6-0.7,1.2-1,1.7
						c-0.2,0.6-0.4,1.1-0.5,1.7h2.2c0.2-0.7,0.4-1.4,0.6-1.9c0.2-0.6,0.5-1,0.8-1.4c0.3-0.4,0.7-0.7,1.1-0.8
						c0.4-0.2,0.9-0.3,1.5-0.3h0c0.5,0,1,0.1,1.5,0.3c0.5,0.2,0.8,0.5,1.2,0.8c0.3,0.4,0.6,0.8,0.8,1.4c0.2,0.5,0.3,1.2,0.4,1.9h1
						v1.9h-1.1c-0.1,0.8-0.3,1.4-0.5,2.1c-0.2,0.6-0.6,1.2-0.9,1.8l-2.4-1.5c0.3-0.4,0.5-0.8,0.7-1.2c0.2-0.4,0.3-0.8,0.4-1.3h-2.1
						c-0.2,0.7-0.4,1.4-0.6,1.9c-0.2,0.5-0.5,1-0.8,1.4c-0.3,0.4-0.7,0.6-1.1,0.8c-0.4,0.2-0.9,0.3-1.5,0.3h0
						c-0.6,0-1.1-0.1-1.5-0.3c-0.4-0.2-0.8-0.5-1.2-0.9c-0.3-0.4-0.6-0.8-0.8-1.4c-0.2-0.5-0.3-1.1-0.4-1.8h-1.8v-1.9H153.5z
						 M163.6,308.4c0-0.4-0.1-0.8-0.3-1c-0.2-0.2-0.4-0.3-0.6-0.3h0c-0.2,0-0.4,0.1-0.6,0.2c-0.2,0.2-0.3,0.5-0.4,1H163.6z
						 M156.2,310.1c0.1,0.8,0.4,1.2,0.9,1.2h0c0.2,0,0.4-0.1,0.6-0.3c0.2-0.2,0.3-0.5,0.4-1H156.2z"/>
				</g>
			</g>
			
				<radialGradient id="SVGID_1_" cx="432.2523" cy="699.0797" r="8.1042" gradientTransform="matrix(0 0.948 -0.948 0 831.1138 -94.2342)" gradientUnits="userSpaceOnUse">
				<stop  offset="0" style="stop-color:#F05224"/>
				<stop  offset="7.034886e-002" style="stop-color:#C54C28;stop-opacity:0.9297"/>
				<stop  offset="0.2023" style="stop-color:#8A4028;stop-opacity:0.7977"/>
				<stop  offset="0.3365" style="stop-color:#5E3324;stop-opacity:0.6635"/>
				<stop  offset="0.4703" style="stop-color:#40271E;stop-opacity:0.5297"/>
				<stop  offset="0.6037" style="stop-color:#291C16;stop-opacity:0.3963"/>
				<stop  offset="0.7367" style="stop-color:#16100D;stop-opacity:0.2633"/>
				<stop  offset="0.8689" style="stop-color:#070504;stop-opacity:0.1311"/>
				<stop  offset="1" style="stop-color:#010101;stop-opacity:0"/>
			</radialGradient>
			<circle class="st34" cx="168.4" cy="315.5" r="7.7"/>
			<path class="st35" d="M175.6,324.8c0.1-0.3,0.4-0.7,0.4-0.8c1.2-2.5,2.3-5,3.3-7.6c-2.5-1.7-4.9-3.1-7-3.5
				c-6.3-1.3-8,0.7-7.8,2.9c0.1,1.9,6.9,7.1,10.3,10.3C175.1,325.7,175.4,325.3,175.6,324.8z"/>
			<path class="st30" d="M169.4,321.4c0,0,1.5-1.7,0.1-4.1c-1.3-2.3-5-2.3-5-2.3S164.1,316.7,169.4,321.4z"/>
			<g>
				<rect x="185" y="390" class="st22" width="63" height="110"/>
				<rect x="219" y="390" class="st23" width="29" height="110"/>
				<rect x="191" y="381" class="st11" width="56" height="9"/>
			</g>
		</g>
		<g>
			<g>
				<path class="st20" d="M423.9,302.3c0,0,3.7-13.1,4.4-16.9c0.7-3.8,1-7.3,1.6-8.3c0.7-0.9,8.6-15.2,11.1-21.9
					c0,0,5.3-1.9,5.2,4.5c-0.1,6.4-4.1,13.5-6.8,17C439.4,276.7,430.6,302.5,423.9,302.3z"/>
				<path class="st20" d="M421.4,305.3c0,0,1.5-10.1,1.4-11.8c-0.1-1.7-0.7-4.8-0.2-6.1c0.5-1.3,2.3-6.9,2.8-21.6c0,0,4.5-2.4,5.9,2
					c1.4,4.4,0.9,8.2,0.9,8.2S427.3,302.9,421.4,305.3z"/>
				<path class="st20" d="M421.1,382.3l-1.5-8.9c0,0-1-3-1.8-5.6c-0.8-2.6,2.8-6.2,2.5-9.7c-0.4-3.5-2.4-48.3,1.2-52.9
					c3.6-4.6,9.3-9.7,13.4-20.4c4.1-10.7,5.1-9.1,9-10.9c3.9-1.8,18.2-9,18.2-9s8.9,10.3-7,12.8c0,0-4.4,4.5-9.4,7.1
					c0,0-4.4,14.2-7,17.6c0,0,8.3-4.3,11.2-8c2.9-3.7,6.9-3.3,9.1-2.8c2.2,0.5,6.1,2.6,9.2,3.1c3.1,0.5,5.8,0.9,6.9,2
					c1.1,1.1,11,12.7,11,12.7s-1.9,4.5-7.2,2.4c-5.3-2.1-7.9-6.8-7.9-6.8s-8.2-0.6-11.7-3.1c0,0-6.2,7.8-9,9.4c0,0-0.6,5.7-4.9,10.1
					c0,0,8.8,7.5,15.2,5.1c6.4-2.4,15.8-12.4,22.2-13.7c6.3-1.3,8,0.7,7.8,2.9c-0.2,2.2-8.8,8.5-11.4,11.4
					c-2.6,2.9-11.1,9.2-11.9,13.5c-0.9,4.4,1.7,15.9-18.1,26.3c0,0-1.5,8,0.7,14.2L421.1,382.3z"/>
				<path class="st30" d="M455.5,268.3c0,0,1.8,1.6,3.8,1.2c2-0.5,4.1-2.6,4.1-2.6L462,265L455.5,268.3z"/>
			</g>
			<path class="st30" d="M484.9,311c0,0-7.4-3.1-3.2-6.5l4.3,5L484.9,311z"/>
			<g>
				<g>
					<path class="st19" d="M556.8,300.3l-12.5,37c-0.4,1.2-1.7,1.8-2.9,1.4L480.2,318c-1.2-0.4-1.8-1.7-1.4-2.9l1.4-4.1
						c0,0,22.6-27,69.5-15.7l5.8,1.9C556.6,297.8,557.2,299.1,556.8,300.3z"/>
					<path class="st36" d="M549.6,295.4c-46.8-11.3-69.5,15.7-69.5,15.7l11.1-32.9c0.4-1.2,1.7-1.8,2.9-1.4L549.6,295.4z"/>
				</g>
				
					<rect x="531.6" y="276.8" transform="matrix(0.3193 -0.9476 0.9476 0.3193 81.8892 709.9967)" class="st37" width="7.1" height="42.4"/>
				<g>
					<g>
						<g>
							<path class="st38" d="M498,290.9l-0.7,2.1l-3.2-1.1l0.5-1.5c0.1-0.2,0.2-0.4,0.3-0.6L498,290.9z"/>
						</g>
						<g>
							<path class="st39" d="M497.4,293.3l-3.6-1.2l0.6-1.7c0.1-0.2,0.2-0.4,0.3-0.6l0.1-0.1l3.5,1.2L497.4,293.3z M494.3,291.8
								l2.8,0.9l0.6-1.7l-2.8-0.9c-0.1,0.1-0.1,0.2-0.2,0.4L494.3,291.8z"/>
						</g>
					</g>
					<g>
						<g>
							<path class="st38" d="M498.5,289.4l-0.5,1.6l-3.1-1.1c0.6-0.8,1.6-1.2,2.6-0.9L498.5,289.4z"/>
						</g>
						<g>
							<path class="st39" d="M498.1,291.2l-3.6-1.2l0.2-0.2c0.6-0.9,1.8-1.3,2.8-1l1.3,0.4L498.1,291.2z M495.2,289.8l2.7,0.9
								l0.4-1.2l-0.9-0.3C496.6,289,495.8,289.2,495.2,289.8z"/>
						</g>
					</g>
					<g>
						<g>
							<path class="st38" d="M496.6,295.2l-0.7,2.1l-3.1-1.1c0-0.2,0-0.4,0.1-0.6l0.5-1.5L496.6,295.2z"/>
						</g>
						<g>
							<path class="st39" d="M496,297.6l-3.5-1.2l0-0.2c0-0.2,0.1-0.5,0.1-0.7l0.6-1.7l3.6,1.2L496,297.6z M492.9,296.1l2.8,0.9
								l0.6-1.7l-2.8-1l-0.4,1.3C493,295.8,493,296,492.9,296.1z"/>
						</g>
					</g>
					<g>
						<g>
							
								<rect x="494.2" y="291.9" transform="matrix(0.3178 -0.9482 0.9482 0.3178 59.5454 669.9333)" class="st38" width="2.3" height="3.4"/>
						</g>
						<g>
							<path class="st39" d="M496.7,295.5l-3.6-1.2l0.9-2.6l3.6,1.2L496.7,295.5z M493.6,294l2.8,0.9l0.6-1.7l-2.8-0.9L493.6,294z"
								/>
						</g>
					</g>
					<g>
						<g>
							<path class="st38" d="M495.9,297.3l-0.5,1.6l-1.1-0.4c-1-0.3-1.6-1.3-1.5-2.3L495.9,297.3z"/>
						</g>
						<g>
							<path class="st39" d="M495.5,299.1l-1.3-0.4c-1-0.4-1.7-1.4-1.7-2.5l0-0.3l3.6,1.2L495.5,299.1z M492.9,296.6
								c0.1,0.8,0.6,1.5,1.4,1.8l0.9,0.3l0.4-1.2L492.9,296.6z"/>
						</g>
					</g>
					<g>
						<g>
							
								<rect x="496.5" y="296.8" transform="matrix(0.3187 -0.9479 0.9479 0.3187 55.7378 674.9095)" class="st38" width="1.6" height="3.7"/>
						</g>
						<g>
							<path class="st39" d="M499,300.3l-3.9-1.3l0.7-2l3.9,1.3L499,300.3z M495.6,298.7l3.1,1l0.4-1.2l-3.1-1L495.6,298.7z"/>
						</g>
					</g>
					<g>
						<g>
							<path class="st38" d="M502.1,299.4c-0.6,0.8-1.6,1.2-2.6,0.9l-0.7-0.2l0.5-1.6L502.1,299.4z"/>
						</g>
						<g>
							<path class="st39" d="M499.5,300.5l-0.9-0.3l0.7-2l3.3,1.1l-0.2,0.2C501.7,300.5,500.5,300.8,499.5,300.5z M499.1,299.9
								l0.5,0.2c0.8,0.3,1.6,0,2.2-0.6l-2.3-0.8L499.1,299.9z"/>
						</g>
					</g>
					<g>
						<g>
							
								<rect x="500.7" y="294.3" transform="matrix(0.3194 -0.9476 0.9476 0.3194 61.2713 676.8892)" class="st38" width="2.3" height="3"/>
						</g>
						<g>
							<path class="st39" d="M503.1,297.6l-3.3-1.1l0.9-2.6l3.3,1.1L503.1,297.6z M500.3,296.2l2.5,0.8l0.6-1.7l-2.5-0.8
								L500.3,296.2z"/>
						</g>
					</g>
					<g>
						<g>
							<path class="st38" d="M502.9,297.3l-0.5,1.5c-0.1,0.2-0.2,0.4-0.3,0.6l-2.8-0.9l0.7-2.1L502.9,297.3z"/>
						</g>
						<g>
							<path class="st39" d="M502.2,299.7l-3.1-1.1l0.8-2.5l3.3,1.1l-0.6,1.7c-0.1,0.2-0.2,0.4-0.3,0.6L502.2,299.7z M499.6,298.4
								l2.4,0.8c0.1-0.1,0.1-0.2,0.2-0.4l0.4-1.3l-2.5-0.8L499.6,298.4z"/>
						</g>
					</g>
					<g>
						<g>
							<path class="st38" d="M504.3,293.1l-2.8-0.9l0.5-1.6l0.7,0.2C503.7,291.1,504.3,292.1,504.3,293.1z"/>
						</g>
						<g>
							<path class="st39" d="M504.5,293.4l-3.3-1.1l0.7-2l0.9,0.3c1,0.4,1.7,1.4,1.7,2.5L504.5,293.4z M501.8,292l2.3,0.8
								c-0.1-0.8-0.6-1.5-1.4-1.8l-0.5-0.2L501.8,292z"/>
						</g>
					</g>
					<g>
						<g>
							<path class="st38" d="M504.2,293.7l-0.5,1.5l-2.9-1l0.7-2.1l2.8,0.9C504.3,293.3,504.2,293.5,504.2,293.7z"/>
						</g>
						<g>
							<path class="st39" d="M503.8,295.5l-3.3-1.1l0.8-2.5l3.1,1.1l0,0.2c0,0.2-0.1,0.5-0.1,0.7L503.8,295.5z M501.1,294.1l2.5,0.8
								l0.4-1.3c0-0.1,0.1-0.3,0.1-0.4l-2.4-0.8L501.1,294.1z"/>
						</g>
					</g>
					<g>
						<g>
							
								<rect x="499.2" y="288.9" transform="matrix(0.3187 -0.9479 0.9479 0.3187 65.071 672.0399)" class="st38" width="1.7" height="3.7"/>
						</g>
						<g>
							<path class="st39" d="M501.6,292.4l-3.9-1.3l0.7-2l3.9,1.3L501.6,292.4z M498.3,290.8l3.1,1l0.4-1.2l-3.1-1L498.3,290.8z"/>
						</g>
					</g>
					<g>
						<g>
							
								<rect x="495.3" y="292.9" transform="matrix(0.3194 -0.9476 0.9476 0.3194 60.117 673.1423)" class="st38" width="6.7" height="3.7"/>
						</g>
						<g>
							<path class="st39" d="M499.5,298.8l-3.9-1.3l2.3-6.8l3.9,1.3L499.5,298.8z M496.1,297.2l3.1,1l2-6l-3.1-1L496.1,297.2z"/>
						</g>
					</g>
				</g>
				<g>
					<g>
						<path class="st40" d="M522,294.9c0.1,0,0.2,0.1,0.1,0.3c0,0.1-0.2,0.2-0.3,0.1l-1.7-0.6l1-2.8c0-0.1,0.1-0.2,0.3-0.1
							c0.1,0,0.2,0.1,0.1,0.3l-0.8,2.4L522,294.9z"/>
						<path class="st40" d="M525.4,294.4c0,0.2,0,0.3,0,0.5c-0.1,0.2-0.2,0.3-0.3,0.4l-0.6,0.6c-0.2,0.2-0.4,0.2-0.6,0.2
							c-0.2-0.1-0.3-0.3-0.4-0.5l-0.1-0.8c0-0.2,0-0.3,0-0.5c0.1-0.2,0.1-0.3,0.2-0.4l0.6-0.6c0.2-0.2,0.4-0.2,0.6-0.2
							c0.2,0.1,0.3,0.3,0.4,0.5L525.4,294.4z M524.9,293.5c0-0.1,0-0.1-0.1-0.2c-0.1,0-0.1,0-0.2,0.1L524,294
							c-0.1,0.1-0.2,0.2-0.2,0.3c0,0.1,0,0.2,0,0.3l0.1,0.9c0,0.1,0,0.1,0.1,0.2c0.1,0,0.1,0,0.2-0.1l0.6-0.6
							c0.1-0.1,0.1-0.1,0.2-0.2c0-0.1,0-0.2,0-0.3L524.9,293.5z"/>
						<path class="st40" d="M526.2,296.6c0,0.1-0.1,0.2-0.3,0.1c-0.1,0-0.2-0.1-0.1-0.3l1-2.8l1.3,0.4c0.3,0.1,0.5,0.4,0.4,0.8
							l-0.1,0.3c-0.1,0.4-0.5,0.5-0.8,0.3l-0.4-0.1l0.5,1.6c0,0.1,0.1,0.2,0,0.2c0,0.1-0.2,0.2-0.3,0.1c-0.1,0-0.1-0.1-0.1-0.2
							l-0.6-1.9l-0.1,0L526.2,296.6z M526.8,294.7l0.9,0.3c0.1,0,0.3,0.1,0.3-0.1l0.1-0.3c0.1-0.2-0.1-0.2-0.2-0.3l-0.9-0.3
							L526.8,294.7z"/>
						<path class="st40" d="M530.4,297.8c0.1,0,0.2,0.1,0.1,0.3c0,0.1-0.2,0.2-0.3,0.1l-1.7-0.6l1-3l1.7,0.6c0.1,0,0.2,0.1,0.1,0.3
							c0,0.1-0.2,0.2-0.3,0.1l-1.3-0.5l-0.3,0.9l0.6,0.2c0.1,0,0.2,0.1,0.1,0.3c0,0.1-0.2,0.2-0.3,0.1l-0.6-0.2l-0.3,0.9
							L530.4,297.8z"/>
						<path class="st40" d="M533.8,296l0.5,0.2l-1,2.8c0,0.1-0.1,0.2-0.3,0.1c-0.1,0-0.2-0.1-0.1-0.3l0.8-2.3l0,0l-0.6,0.4l0,0.1
							c0,0.1-0.1,0.2-0.3,0.2c-0.1,0-0.2-0.2-0.1-0.3l0-0.1l-0.2-0.7l0,0l-0.8,2.3c0,0.1-0.1,0.2-0.3,0.1c-0.1,0-0.2-0.1-0.1-0.3
							l1-2.8l0.5,0.2l0.2,0.8L533.8,296z"/>
						<path class="st40" d="M538.3,300.4l0.6,0.2c0.1,0,0.2,0.1,0.1,0.3c0,0.1-0.2,0.2-0.3,0.1l-1.5-0.5c-0.1,0-0.2-0.1-0.1-0.3
							c0-0.1,0.2-0.2,0.3-0.1l0.6,0.2l0.8-2.3l-0.6-0.2c-0.1,0-0.2-0.1-0.1-0.3c0-0.1,0.2-0.2,0.3-0.1l1.5,0.5
							c0.1,0,0.2,0.1,0.1,0.3c0,0.1-0.2,0.2-0.3,0.1l-0.6-0.2L538.3,300.4z"/>
						<path class="st40" d="M540.2,301.3c0,0.1-0.1,0.2-0.3,0.1c-0.1,0-0.2-0.1-0.1-0.3l1-2.8l1.3,0.4c0.2,0.1,0.3,0.1,0.4,0.3
							c0.1,0.2,0.1,0.4,0,0.6l-0.2,0.5c-0.1,0.2-0.1,0.3-0.3,0.4c-0.2,0.1-0.4,0.1-0.6,0l-0.9-0.3L540.2,301.3z M540.7,299.9
							l0.9,0.3c0.2,0.1,0.3,0,0.4-0.2l0.2-0.5c0.1-0.2,0-0.3-0.2-0.4l-0.9-0.3L540.7,299.9z"/>
						<path class="st40" d="M544.6,302.1c0,0.1,0.1,0.2,0,0.4c-0.1,0.3-0.4,0.4-0.6,0.3l-0.9-0.3c-0.1,0-0.3-0.1-0.4-0.3
							c-0.1-0.1-0.1-0.3-0.1-0.4c0-0.1,0.1-0.2,0.3-0.2c0.1,0,0.1,0.2,0.1,0.3c0,0.1,0,0.2,0.1,0.2l0.8,0.3c0,0,0.1,0.1,0.1,0
							c0,0,0-0.1,0-0.1l-0.8-2.2c0-0.1-0.1-0.2,0-0.4c0.1-0.2,0.2-0.3,0.3-0.3c0.1,0,0.2,0,0.3,0l0.8,0.3c0.1,0,0.3,0.1,0.3,0.3
							c0.1,0.1,0.1,0.3,0.1,0.4c0,0.1-0.1,0.2-0.3,0.2c-0.1,0-0.2-0.1-0.1-0.2c0-0.1,0-0.2-0.1-0.2l-0.8-0.3c0,0-0.1-0.1-0.2,0
							c0,0,0,0.1,0,0.1L544.6,302.1z"/>
						<path class="st40" d="M546,303.5c-0.2-0.1-0.3-0.2-0.4-0.4c-0.1-0.2-0.1-0.3,0-0.5l0.7-2.2c0-0.1,0.1-0.2,0.3-0.1
							c0.1,0,0.2,0.1,0.1,0.3l-0.7,2.2c-0.1,0.2,0,0.3,0.2,0.4l0.7,0.2c0.2,0.1,0.3,0,0.3-0.2l0.7-2.2c0-0.1,0.1-0.2,0.3-0.1
							c0.1,0,0.2,0.1,0.1,0.3l-0.7,2.2c-0.1,0.2-0.1,0.3-0.3,0.4c-0.2,0.1-0.4,0.1-0.5,0L546,303.5z"/>
						<path class="st40" d="M550.7,301.6l0.5,0.2l-1,2.8c0,0.1-0.1,0.2-0.3,0.1c-0.1,0-0.2-0.1-0.1-0.3l0.8-2.3l0,0l-0.6,0.4l0,0.1
							c0,0.1-0.1,0.2-0.3,0.2c-0.1,0-0.2-0.2-0.1-0.3l0-0.1l-0.2-0.7l0,0l-0.8,2.3c0,0.1-0.1,0.2-0.3,0.1c-0.1,0-0.2-0.1-0.1-0.3
							l1-2.8l0.5,0.2l0.2,0.8L550.7,301.6z"/>
					</g>
				</g>
				<g>
					<path class="st40" d="M491.8,304.6l0.3-0.8c0-0.1,0.1-0.2,0.3-0.1c0.1,0.1,0.2,0.2,0.1,0.3l-0.3,1c0,0.1-0.2,0.2-0.3,0.1
						l-1.6-0.5c-0.1,0-0.2-0.1-0.1-0.3c0-0.1,0.2-0.2,0.3-0.1l0.6,0.2l0.8-2.3l-0.6-0.2c-0.1,0-0.2-0.1-0.1-0.3
						c0-0.1,0.2-0.2,0.3-0.1l1,0.3l-0.9,2.7L491.8,304.6z"/>
					<path class="st40" d="M493.5,305.2l1.4,0.5c0.1,0,0.2,0.1,0.1,0.3c0,0.1-0.2,0.2-0.3,0.1l-1.8-0.6l0.4-1.3
						c0.1-0.3,0.3-0.4,0.6-0.3l1.1,0.4l0.3-1l-1.4-0.5c-0.1,0-0.2-0.1-0.1-0.3c0-0.1,0.2-0.2,0.3-0.1l1.3,0.4c0.1,0,0.2,0.1,0.3,0.2
						c0.1,0.1,0.1,0.3,0,0.4l-0.3,0.8c0,0.1-0.1,0.2-0.2,0.3c-0.1,0.1-0.2,0-0.4,0l-1.1-0.4L493.5,305.2z"/>
					<path class="st40" d="M497,303.8c-0.1,0-0.2-0.1-0.1-0.3c0-0.1,0.2-0.2,0.3-0.1l1.4,0.5c0.2,0.1,0.3,0.3,0.3,0.5l-0.3,0.8
						c-0.1,0.2-0.1,0.3-0.3,0.3c0.1,0.2,0.1,0.3,0,0.4l-0.3,0.8c-0.1,0.2-0.3,0.3-0.5,0.3l-1.4-0.5c-0.1,0-0.2-0.1-0.1-0.3
						c0-0.1,0.2-0.2,0.3-0.1l1.4,0.5l0.2-0.7c0.1-0.2,0-0.3-0.1-0.4l-0.8-0.3c-0.1,0-0.2-0.1-0.1-0.3c0-0.1,0.2-0.2,0.3-0.1l0.8,0.3
						c0.1,0,0.2,0,0.3-0.2l0.2-0.7L497,303.8z"/>
					<path class="st40" d="M500.6,306.5l0.4-1.2c0-0.1,0.1-0.2,0.3-0.1c0.2,0.1,0.2,0.2,0.1,0.3l-0.4,1.2c0.1,0,0.2,0.1,0.1,0.3
						c0,0.1-0.2,0.2-0.3,0.1l-0.3,0.8c0,0.1-0.1,0.2-0.3,0.1c-0.1,0-0.2-0.1-0.1-0.3l0.3-0.8l-1.2-0.4l0.6-1.9
						c0-0.1,0.1-0.2,0.3-0.1c0.2,0.1,0.2,0.2,0.1,0.3l-0.5,1.5L500.6,306.5z"/>
					<path class="st40" d="M506,307.9l0.7,0.2c0.1,0,0.2,0.1,0.3,0.2c0.1,0.1,0.1,0.2,0,0.4l-0.3,0.9c0,0.1-0.1,0.2-0.2,0.3
						c-0.1,0.1-0.3,0.1-0.4,0l-0.9-0.3c-0.1,0-0.2-0.1-0.2-0.2l-0.1-0.1c-0.1-0.1-0.2-0.2-0.2-0.3c0-0.1,0.2-0.2,0.3-0.1
						c0,0,0.1,0,0.1,0.1l0.1,0.1c0.1,0,0.1,0.1,0.2,0.2l0.9,0.3l0.3-1l-1.2-0.4l0.6-1.8l1.4,0.5c0.1,0,0.2,0.1,0.1,0.3
						c0,0.1-0.2,0.2-0.3,0.1l-1-0.3L506,307.9z"/>
					<path class="st40" d="M508.3,309.1l1.3,0.5c0.2,0.1,0.2,0.2,0.1,0.4l-0.3,0.9c-0.1,0.2-0.2,0.2-0.3,0.2l-1.5-0.5
						c-0.2-0.1-0.2-0.2-0.2-0.3l0.9-2.7c0-0.1,0.1-0.2,0.2-0.1l0.2,0.1c0.1,0,0.2,0.2,0.1,0.3c0,0.1-0.2,0.2-0.3,0.1L508.3,309.1z
						 M508.2,309.5l-0.2,0.6l1.2,0.4l0.2-0.6L508.2,309.5z"/>
					<path class="st40" d="M511.7,308.7c0,0.1-0.1,0.2-0.3,0.1c-0.1,0-0.2-0.2-0.1-0.3l0.1-0.2c0-0.1,0.1-0.2,0.3-0.1l1.8,0.6
						L513,310c0,0.1,0,0.2-0.2,0.2l-0.7,0.3c-0.1,0.1-0.1,0.1-0.2,0.2l-0.3,0.8c0,0.1-0.1,0.2-0.3,0.1c-0.1,0-0.2-0.1-0.1-0.3l0.3-1
						c0-0.1,0.1-0.1,0.2-0.2l0.7-0.3c0.2-0.1,0.2-0.1,0.2-0.2l0.2-0.6L511.7,308.7z"/>
					<path class="st40" d="M515.7,309.6c0.1,0,0.2,0.2,0.1,0.3l-0.4,1.2c0.1,0,0.2,0.1,0.3,0.2c0,0.1,0.1,0.2,0,0.3l-0.3,1
						c-0.1,0.2-0.3,0.3-0.5,0.3l-1.2-0.4c-0.3-0.1-0.4-0.3-0.3-0.5l0.3-1c0-0.1,0.1-0.2,0.2-0.3c0.1,0,0.2-0.1,0.3,0l0.4-1.2
						c0-0.1,0.1-0.2,0.3-0.1L515.7,309.6z M515,312.4l0.3-1l-1.2-0.4l-0.3,1L515,312.4z M515,310.9l0.3-1l-0.4-0.1l-0.3,1L515,310.9
						z"/>
					<path class="st40" d="M521.2,313.1l-1.4-0.5c-0.1,0-0.2-0.2-0.1-0.3l0.3-1c0-0.1,0.2-0.2,0.3-0.1l1.6,0.5
						c0.1,0,0.2,0.2,0.1,0.3l-0.9,2.7c0,0.1-0.1,0.2-0.3,0.1l-0.2-0.1c-0.1,0-0.2-0.2-0.1-0.3c0-0.1,0.2-0.2,0.3-0.1L521.2,313.1z
						 M521.3,312.7l0.2-0.6l-1.2-0.4l-0.2,0.6L521.3,312.7z"/>
					<path class="st40" d="M524.5,312.6c0.2,0.1,0.3,0.3,0.3,0.5l-0.8,2.3c-0.1,0.2-0.3,0.3-0.5,0.3l-1.2-0.4
						c-0.2-0.1-0.3-0.3-0.3-0.5l0.8-2.3c0.1-0.2,0.3-0.3,0.5-0.3L524.5,312.6z M523.6,315.3l0.8-2.3l-1.2-0.4l-0.8,2.3L523.6,315.3z
						"/>
					<path class="st40" d="M526.5,316.3l0.3-0.8c0-0.1,0.1-0.2,0.3-0.1c0.1,0.1,0.2,0.2,0.1,0.3l-0.3,1c0,0.1-0.2,0.2-0.3,0.1
						l-1.6-0.5c-0.1,0-0.2-0.1-0.1-0.3c0-0.1,0.2-0.2,0.3-0.1l0.6,0.2l0.8-2.3l-0.6-0.2c-0.1,0-0.2-0.1-0.1-0.3
						c0-0.1,0.2-0.2,0.3-0.1l1,0.3l-0.9,2.7L526.5,316.3z"/>
					<path class="st40" d="M528.2,316.9l1.4,0.5c0.1,0,0.2,0.1,0.1,0.3c-0.1,0.1-0.2,0.2-0.3,0.1l-1.8-0.6l0.4-1.3
						c0.1-0.3,0.3-0.4,0.6-0.3l1.1,0.4l0.3-1l-1.4-0.5c-0.1,0-0.2-0.1-0.1-0.3c0-0.1,0.2-0.2,0.3-0.1l1.3,0.4c0.1,0,0.2,0.1,0.3,0.2
						c0.1,0.1,0.1,0.3,0,0.4l-0.3,0.8c0,0.1-0.1,0.3-0.2,0.3c-0.1,0.1-0.2,0.1-0.4,0l-1.1-0.4L528.2,316.9z"/>
					<path class="st40" d="M534.6,316.5c-0.1,0-0.2-0.1-0.1-0.3c0-0.1,0.2-0.2,0.3-0.1l1.4,0.5c0.2,0.1,0.3,0.3,0.3,0.5l-0.3,0.8
						c-0.1,0.2-0.1,0.3-0.3,0.3c0.1,0.2,0.1,0.3,0,0.4l-0.3,0.8c-0.1,0.2-0.3,0.3-0.5,0.3l-1.4-0.5c-0.1,0-0.2-0.1-0.1-0.3
						c0.1-0.1,0.2-0.2,0.3-0.1l1.4,0.5l0.2-0.7c0.1-0.2,0-0.3-0.1-0.4l-0.8-0.3c-0.1,0-0.2-0.1-0.1-0.3c0-0.1,0.2-0.2,0.3-0.1
						l0.8,0.3c0.1,0,0.2,0,0.3-0.2l0.2-0.7L534.6,316.5z"/>
					<path class="st40" d="M538.2,319.1l0.4-1.2c0-0.1,0.1-0.2,0.3-0.1c0.2,0.1,0.2,0.2,0.1,0.3l-0.4,1.2c0.1,0,0.2,0.1,0.1,0.3
						c0,0.1-0.2,0.2-0.3,0.1l-0.3,0.8c0,0.1-0.1,0.2-0.3,0.1c-0.1-0.1-0.2-0.1-0.1-0.3l0.3-0.8l-1.2-0.4l0.6-1.9
						c0-0.1,0.1-0.2,0.3-0.1c0.2,0.1,0.2,0.2,0.1,0.3l-0.5,1.5L538.2,319.1z"/>
					<path class="st40" d="M540.6,319.6l0.7,0.3c0.1,0,0.2,0.1,0.3,0.2c0.1,0.1,0.1,0.2,0,0.4l-0.3,0.9c0,0.1-0.1,0.2-0.2,0.3
						c-0.1,0.1-0.3,0.1-0.4,0l-0.9-0.3c-0.1,0-0.2-0.1-0.2-0.2l-0.1-0.1c-0.1-0.1-0.2-0.2-0.2-0.3c0-0.1,0.2-0.2,0.3-0.1
						c0,0,0.1,0,0.1,0.1l0.1,0.1c0,0,0.1,0.1,0.2,0.2l0.9,0.3l0.3-1l-1.2-0.4l0.6-1.8l1.4,0.5c0.1,0,0.2,0.1,0.1,0.3
						c0,0.1-0.2,0.2-0.3,0.1l-1-0.3L540.6,319.6z"/>
					<path class="st40" d="M543,320.7l1.3,0.5c0.2,0.1,0.2,0.2,0.1,0.4l-0.3,0.9c-0.1,0.2-0.2,0.2-0.3,0.2l-1.5-0.5
						c-0.2-0.1-0.2-0.2-0.2-0.3l0.9-2.7c0-0.1,0.1-0.2,0.2-0.1l0.2,0.1c0.1,0,0.2,0.2,0.1,0.3c0,0.1-0.2,0.2-0.3,0.1L543,320.7z
						 M542.9,321.1l-0.2,0.6l1.2,0.4l0.2-0.6L542.9,321.1z"/>
				</g>
				<g>
					<path class="st40" d="M489.7,308.4l-0.3-0.1l0.6-1.7c-0.1,0-0.2,0.1-0.3,0.1c-0.1,0-0.2,0-0.3,0l0.1-0.3c0.2,0,0.3-0.1,0.5-0.1
						c0.1-0.1,0.3-0.1,0.3-0.2l0.2,0.1L489.7,308.4z"/>
					<path class="st40" d="M491.9,308.8l-0.1,0.3l-1.4-0.5c0-0.1,0.1-0.1,0.1-0.2c0.1-0.1,0.2-0.2,0.3-0.2c0.1-0.1,0.3-0.1,0.4-0.2
						c0.3-0.1,0.5-0.2,0.6-0.3c0.1-0.1,0.2-0.2,0.2-0.3c0-0.1,0-0.2,0-0.3c-0.1-0.1-0.1-0.2-0.3-0.2c-0.1,0-0.2,0-0.3,0
						c-0.1,0-0.2,0.1-0.2,0.3l-0.3-0.1c0.1-0.2,0.2-0.3,0.4-0.4c0.2-0.1,0.3-0.1,0.5,0c0.2,0.1,0.3,0.2,0.4,0.3
						c0.1,0.2,0.1,0.3,0,0.5c0,0.1-0.1,0.2-0.1,0.2c-0.1,0.1-0.2,0.1-0.3,0.2c-0.1,0.1-0.3,0.1-0.5,0.2c-0.2,0.1-0.3,0.1-0.4,0.2
						c-0.1,0-0.1,0.1-0.2,0.1L491.9,308.8z"/>
					<path class="st40" d="M492.2,308.6l0.3,0.1c0,0.2,0,0.3,0,0.4c0,0.1,0.1,0.2,0.2,0.2c0.1,0,0.2,0,0.4,0
						c0.1-0.1,0.2-0.1,0.2-0.3c0-0.1,0-0.2,0-0.3c-0.1-0.1-0.1-0.2-0.3-0.2c0,0-0.1,0-0.2,0l0.1-0.2c0,0,0,0,0,0c0.1,0,0.2,0,0.3,0
						c0.1,0,0.2-0.1,0.2-0.2c0-0.1,0-0.2,0-0.3c0-0.1-0.1-0.1-0.2-0.2c-0.1,0-0.2,0-0.3,0c-0.1,0-0.2,0.1-0.2,0.2l-0.2-0.1
						c0.1-0.2,0.2-0.3,0.4-0.3c0.1-0.1,0.3-0.1,0.5,0c0.1,0,0.2,0.1,0.3,0.2c0.1,0.1,0.1,0.2,0.2,0.3c0,0.1,0,0.2,0,0.3
						c0,0.1-0.1,0.2-0.2,0.2c-0.1,0.1-0.2,0.1-0.3,0.1c0.1,0.1,0.2,0.2,0.2,0.3c0,0.1,0,0.2,0,0.4c-0.1,0.2-0.2,0.3-0.4,0.4
						c-0.2,0.1-0.4,0.1-0.6,0c-0.2-0.1-0.3-0.2-0.4-0.3C492.2,309,492.2,308.8,492.2,308.6z"/>
					<path class="st40" d="M494.5,310l0.2-0.5l-0.9-0.3l0.1-0.2l1.4-1l0.2,0.1l-0.5,1.4l0.3,0.1l-0.1,0.2l-0.3-0.1l-0.2,0.5
						L494.5,310z M494.8,309.3l0.3-1l-1,0.7L494.8,309.3z"/>
				</g>
				<g>
					<path class="st40" d="M488.3,314.7l0.3,0.2c-0.2,0.2-0.3,0.4-0.6,0.5c-0.2,0.1-0.5,0.1-0.7,0c-0.3-0.1-0.5-0.2-0.6-0.4
						c-0.1-0.2-0.2-0.4-0.2-0.6c0-0.2,0-0.5,0.1-0.7c0.1-0.3,0.2-0.5,0.4-0.6c0.2-0.2,0.3-0.2,0.5-0.3c0.2,0,0.4,0,0.6,0.1
						c0.2,0.1,0.4,0.2,0.5,0.4c0.1,0.2,0.2,0.4,0.2,0.6l-0.3,0c0-0.2,0-0.4-0.1-0.5c-0.1-0.1-0.2-0.2-0.4-0.3
						c-0.2-0.1-0.4-0.1-0.5,0c-0.2,0-0.3,0.1-0.4,0.3c-0.1,0.1-0.2,0.3-0.2,0.4c-0.1,0.2-0.1,0.4-0.1,0.6c0,0.2,0.1,0.3,0.2,0.4
						c0.1,0.1,0.2,0.2,0.4,0.3c0.2,0.1,0.3,0.1,0.5,0C488.1,315,488.2,314.9,488.3,314.7z"/>
					<path class="st40" d="M488.5,315.7l1.7-2.1l0.3,0.1l0.2,2.7l-0.4-0.1l0-0.8l-1-0.3l-0.5,0.6L488.5,315.7z M489.5,314.9l0.8,0.3
						l0-0.8c0-0.2,0-0.4,0-0.6c-0.1,0.1-0.2,0.3-0.3,0.4L489.5,314.9z"/>
					<path class="st40" d="M491,316.5l0.8-2.4l1.1,0.4c0.2,0.1,0.4,0.1,0.5,0.2c0.1,0.1,0.2,0.2,0.2,0.3c0,0.1,0,0.3,0,0.4
						c-0.1,0.2-0.2,0.3-0.3,0.4c-0.1,0.1-0.3,0.1-0.6,0.1c0.1,0.1,0.1,0.1,0.2,0.2c0.1,0.1,0.1,0.3,0.2,0.4l0.2,0.8l-0.4-0.1
						l-0.1-0.6c0-0.2-0.1-0.3-0.1-0.4c0-0.1-0.1-0.2-0.1-0.2c0,0-0.1-0.1-0.1-0.1c0,0-0.1,0-0.2-0.1l-0.4-0.1l-0.4,1.1L491,316.5z
						 M491.7,315.3l0.7,0.2c0.1,0.1,0.3,0.1,0.4,0.1c0.1,0,0.2,0,0.2-0.1c0.1-0.1,0.1-0.1,0.1-0.2c0-0.1,0-0.2,0-0.3
						c-0.1-0.1-0.2-0.2-0.4-0.2l-0.8-0.3L491.7,315.3z"/>
					<path class="st40" d="M493.4,317.3l0.8-2.4l0.8,0.3c0.2,0.1,0.3,0.1,0.4,0.2c0.1,0.1,0.2,0.2,0.3,0.3c0.1,0.1,0.1,0.3,0.1,0.5
						c0,0.2,0,0.4-0.1,0.6c-0.1,0.2-0.1,0.3-0.2,0.5c-0.1,0.1-0.2,0.2-0.3,0.3c-0.1,0.1-0.2,0.1-0.3,0.1c-0.1,0-0.2,0-0.3,0
						c-0.1,0-0.3,0-0.4-0.1L493.4,317.3z M493.8,317.2l0.5,0.2c0.2,0.1,0.3,0.1,0.4,0.1c0.1,0,0.2,0,0.3-0.1c0.1,0,0.2-0.1,0.3-0.2
						c0.1-0.1,0.2-0.3,0.2-0.4c0.1-0.3,0.1-0.5,0.1-0.6c0-0.2-0.1-0.3-0.2-0.4c-0.1-0.1-0.2-0.1-0.4-0.2l-0.5-0.2L493.8,317.2z"/>
					<path class="st40" d="M496.7,318.5l0.8-2.4l0.3,0.1l-0.3,1l1.2,0.4l0.3-1l0.3,0.1l-0.8,2.4l-0.3-0.1l0.4-1.1l-1.2-0.4l-0.4,1.1
						L496.7,318.5z"/>
					<path class="st40" d="M499.4,318.1c0.1-0.4,0.3-0.7,0.6-0.8c0.3-0.2,0.6-0.2,0.9-0.1c0.2,0.1,0.4,0.2,0.5,0.4
						c0.1,0.2,0.2,0.4,0.3,0.6c0,0.2,0,0.5-0.1,0.7c-0.1,0.2-0.2,0.4-0.4,0.6c-0.2,0.2-0.4,0.3-0.6,0.3c-0.2,0-0.4,0-0.6,0
						c-0.2-0.1-0.4-0.2-0.6-0.4c-0.1-0.2-0.2-0.4-0.3-0.6C499.4,318.5,499.4,318.3,499.4,318.1z M499.8,318.2
						c-0.1,0.3-0.1,0.5,0,0.8c0.1,0.2,0.3,0.4,0.5,0.4c0.2,0.1,0.5,0.1,0.7-0.1c0.2-0.1,0.4-0.3,0.5-0.6c0.1-0.2,0.1-0.4,0.1-0.5
						c0-0.2-0.1-0.3-0.2-0.4c-0.1-0.1-0.2-0.2-0.4-0.3c-0.2-0.1-0.4-0.1-0.7,0C500.1,317.6,499.9,317.8,499.8,318.2z"/>
					<path class="st40" d="M501.7,320.2l0.8-2.4l0.3,0.1l-0.7,2.1l1.2,0.4l-0.1,0.3L501.7,320.2z"/>
					<path class="st40" d="M503.6,320.8l0.8-2.4l0.8,0.3c0.2,0.1,0.3,0.1,0.4,0.2c0.1,0.1,0.2,0.2,0.3,0.3c0.1,0.1,0.1,0.3,0.1,0.5
						c0,0.2,0,0.4-0.1,0.6c-0.1,0.2-0.1,0.3-0.2,0.5c-0.1,0.1-0.2,0.2-0.3,0.3c-0.1,0.1-0.2,0.1-0.3,0.1c-0.1,0-0.2,0-0.3,0
						c-0.1,0-0.3,0-0.4-0.1L503.6,320.8z M504,320.6l0.5,0.2c0.2,0.1,0.3,0.1,0.4,0.1c0.1,0,0.2,0,0.3-0.1c0.1,0,0.2-0.1,0.3-0.2
						c0.1-0.1,0.2-0.3,0.2-0.4c0.1-0.3,0.1-0.5,0.1-0.6c0-0.2-0.1-0.3-0.2-0.4c-0.1-0.1-0.2-0.1-0.4-0.2l-0.5-0.2L504,320.6z"/>
					<path class="st40" d="M506,321.6l0.8-2.4l1.7,0.6l-0.1,0.3l-1.4-0.5l-0.2,0.7l1.3,0.4l-0.1,0.3l-1.3-0.4l-0.3,0.8l1.5,0.5
						l-0.1,0.3L506,321.6z"/>
					<path class="st40" d="M508.3,322.4l0.8-2.4l1.1,0.4c0.2,0.1,0.4,0.1,0.5,0.2c0.1,0.1,0.2,0.2,0.2,0.3c0,0.1,0,0.3,0,0.4
						c-0.1,0.2-0.2,0.3-0.3,0.4c-0.2,0.1-0.3,0.1-0.6,0.1c0.1,0.1,0.1,0.1,0.2,0.2c0.1,0.1,0.1,0.3,0.2,0.4l0.2,0.8l-0.4-0.1
						l-0.1-0.6c0-0.2-0.1-0.3-0.1-0.4c0-0.1-0.1-0.2-0.1-0.2c0,0-0.1-0.1-0.1-0.1c0,0-0.1,0-0.2-0.1l-0.4-0.1l-0.4,1.1L508.3,322.4z
						 M509,321.1l0.7,0.2c0.1,0,0.3,0.1,0.4,0.1c0.1,0,0.2,0,0.2-0.1c0.1,0,0.1-0.1,0.1-0.2c0-0.1,0-0.2,0-0.3
						c-0.1-0.1-0.2-0.2-0.4-0.2l-0.8-0.3L509,321.1z"/>
				</g>
				<g>
					<path class="st40" d="M510.8,315.5l0.2-0.5c0-0.1,0.1-0.1,0.2-0.1c0.1,0,0.1,0.1,0.1,0.2l-0.2,0.7c0,0.1-0.1,0.1-0.2,0.1
						l-1-0.3c-0.1,0-0.1-0.1-0.1-0.2c0-0.1,0.1-0.1,0.2-0.1l0.4,0.1l0.5-1.5l-0.4-0.1c-0.1,0-0.1-0.1-0.1-0.2c0-0.1,0.1-0.1,0.2-0.1
						l0.6,0.2l-0.6,1.8L510.8,315.5z"/>
					<path class="st40" d="M512,315.9l0.9,0.3c0.1,0,0.1,0.1,0.1,0.2c0,0.1-0.1,0.1-0.2,0.1l-1.2-0.4l0.3-0.9
						c0.1-0.2,0.2-0.3,0.4-0.2l0.7,0.2l0.2-0.6l-0.9-0.3c-0.1,0-0.1-0.1-0.1-0.2c0-0.1,0.1-0.1,0.2-0.1l0.9,0.3
						c0.1,0,0.1,0.1,0.2,0.1c0.1,0.1,0,0.2,0,0.3l-0.2,0.5c0,0.1-0.1,0.2-0.2,0.2c-0.1,0-0.1,0-0.2,0l-0.7-0.2L512,315.9z"/>
					<path class="st40" d="M513.8,316.7c0,0-0.1,0.1-0.2,0c-0.1,0-0.1-0.1-0.1-0.2c0,0,0.1-0.1,0.1-0.1l1.5-1.3c0,0,0.1-0.1,0.2-0.1
						c0.1,0,0.1,0.1,0.1,0.2c0,0,0,0.1-0.1,0.1L513.8,316.7z"/>
					<path class="st40" d="M516.5,317.4l0.2-0.5c0-0.1,0.1-0.1,0.2-0.1c0.1,0,0.1,0.1,0.1,0.2l-0.2,0.7c0,0.1-0.1,0.1-0.2,0.1
						l-1-0.3c-0.1,0-0.1-0.1-0.1-0.2c0-0.1,0.1-0.1,0.2-0.1l0.4,0.1l0.5-1.5l-0.4-0.1c-0.1,0-0.1-0.1-0.1-0.2c0-0.1,0.1-0.1,0.2-0.1
						l0.6,0.2l-0.6,1.8L516.5,317.4z"/>
					<path class="st40" d="M518.6,317.2l-0.9-0.3c-0.1,0-0.1-0.1-0.1-0.2l0.2-0.7c0-0.1,0.1-0.1,0.2-0.1l1,0.3
						c0.1,0,0.1,0.1,0.1,0.2l-0.6,1.8c0,0.1-0.1,0.1-0.2,0.1l-0.1,0c-0.1,0-0.1-0.1-0.1-0.2c0-0.1,0.1-0.1,0.2-0.1L518.6,317.2z
						 M518.7,317l0.1-0.4l-0.8-0.3l-0.1,0.4L518.7,317z"/>
				</g>
				
					<rect x="529.5" y="318.9" transform="matrix(0.3194 -0.9476 0.9476 0.3194 51.1009 729.0079)" class="st40" width="7.2" height="20.1"/>
				<g>
					<g>
						<path class="st41" d="M524.3,327.1l1.1-1.8l0.7,0.2c0.1,0,0.2,0.1,0.3,0.1c0.1,0,0.2,0.1,0.2,0.2c0.1,0.1,0.1,0.1,0.1,0.2
							c0,0.1,0,0.2,0,0.2c0,0.1-0.1,0.2-0.2,0.3c-0.1,0.1-0.2,0.1-0.3,0.1c0.1,0.1,0.2,0.1,0.2,0.2c0,0.1,0,0.2,0,0.3
							c0,0.1-0.1,0.2-0.2,0.3c-0.1,0.1-0.2,0.1-0.4,0.1c-0.1,0-0.3,0-0.5-0.1L524.3,327.1z M524.9,326.9l0.4,0.1
							c0.2,0.1,0.3,0.1,0.3,0.1c0.1,0,0.1,0,0.2-0.1c0.1,0,0.1-0.1,0.1-0.1c0-0.1,0-0.1,0-0.2c0-0.1-0.1-0.1-0.2-0.1l-0.5-0.2
							L524.9,326.9z M525.4,326.1l0.3,0.1c0.1,0,0.2,0.1,0.3,0.1c0.1,0,0.1,0,0.2-0.1c0,0,0.1-0.1,0.1-0.1c0-0.1,0-0.1,0-0.1
							c0,0-0.1-0.1-0.1-0.1c0,0-0.1,0-0.2-0.1l-0.3-0.1L525.4,326.1z"/>
						<path class="st41" d="M527.7,327.7l-0.8-0.3l-0.4,0.4l-0.4-0.1l1.8-1.6l0.5,0.1l-0.3,2.1l-0.4-0.1L527.7,327.7z M527.8,327.4
							l0.2-0.8l-0.7,0.6L527.8,327.4z"/>
						<path class="st41" d="M529.9,328.9l-0.4-0.1l-0.1-1.5l-0.7,1.2l-0.4-0.1l1.1-1.8l0.4,0.1l0.1,1.5l0.7-1.2l0.4,0.1L529.9,328.9
							z"/>
						<path class="st41" d="M530.3,329.1l1.1-1.8l0.4,0.1l-0.5,0.8l1.2-0.5l0.5,0.2l-1.1,0.5l0.2,1.4l-0.5-0.2l-0.2-1.1l-0.5,0.2
							l-0.3,0.6L530.3,329.1z"/>
						<path class="st41" d="M534.6,330.5l-0.4-0.1l-0.1-1.5l-0.7,1.2L533,330l1.1-1.8l0.4,0.1l0.1,1.5l0.7-1.2l0.4,0.1L534.6,330.5z
							"/>
						<path class="st41" d="M536.4,330.7l-0.8-0.3l-0.4,0.4l-0.4-0.1l1.8-1.6l0.5,0.1l-0.3,2.1l-0.4-0.1L536.4,330.7z M536.5,330.3
							l0.2-0.8l-0.7,0.6L536.5,330.3z"/>
						<path class="st41" d="M538.1,331.7l-0.4-0.1l0.5-1.7l-0.9,1.5l-0.4-0.1l1.1-1.8l0.6,0.2l-0.4,1.4l1.1-1.2l0.6,0.2l-1.1,1.8
							l-0.4-0.1l0.9-1.5L538.1,331.7z"/>
						<path class="st41" d="M539.3,332.1l1.1-1.8l1.5,0.5l-0.2,0.3l-1.1-0.4l-0.2,0.4l1,0.3l-0.2,0.3l-1-0.3l-0.3,0.5l1.1,0.4
							l-0.2,0.3L539.3,332.1z"/>
					</g>
				</g>
			</g>
			<path class="st30" d="M485.7,321.4c0,0-1.5-1.7-0.1-4.1c1.3-2.3,5-2.3,5-2.3S491,316.7,485.7,321.4z"/>
			
				<radialGradient id="SVGID_2_" cx="432.2523" cy="31.549" r="8.1042" gradientTransform="matrix(0 0.948 0.948 0 456.8054 -94.2342)" gradientUnits="userSpaceOnUse">
				<stop  offset="0" style="stop-color:#F05224"/>
				<stop  offset="7.034886e-002" style="stop-color:#C54C28;stop-opacity:0.9297"/>
				<stop  offset="0.2023" style="stop-color:#8A4028;stop-opacity:0.7977"/>
				<stop  offset="0.3365" style="stop-color:#5E3324;stop-opacity:0.6635"/>
				<stop  offset="0.4703" style="stop-color:#40271E;stop-opacity:0.5297"/>
				<stop  offset="0.6037" style="stop-color:#291C16;stop-opacity:0.3963"/>
				<stop  offset="0.7367" style="stop-color:#16100D;stop-opacity:0.2633"/>
				<stop  offset="0.8689" style="stop-color:#070504;stop-opacity:0.1311"/>
				<stop  offset="1" style="stop-color:#010101;stop-opacity:0"/>
			</radialGradient>
			<circle class="st42" cx="486.7" cy="315.5" r="7.7"/>
			<path class="st20" d="M479.5,324.8c-0.1-0.3-0.4-0.7-0.4-0.8c-1.2-2.5-2.3-5-3.3-7.6c2.5-1.7,4.9-3.1,7-3.5
				c6.3-1.3,8,0.7,7.8,2.9c-0.1,1.9-6.9,7.1-10.3,10.3C480,325.7,479.8,325.3,479.5,324.8z"/>
			<path class="st30" d="M485.7,321.4c0,0-1.5-1.7-0.1-4.1c1.3-2.3,5-2.3,5-2.3S491,316.7,485.7,321.4z"/>
			<g>
				<rect x="408" y="390" class="st22" width="62" height="110"/>
				<rect x="408" y="390" class="st23" width="29" height="110"/>
				<rect x="410" y="381" class="st11" width="55" height="9"/>
			</g>
		</g>
	</g>
</g>
</svg>
