<?xml version="1.0" encoding="utf-8"?>
<!-- Generator: Adobe Illustrator 20.0.0, SVG Export Plug-In . SVG Version: 6.00 Build 0)  -->
<svg version="1.1" id="Layer_1" xmlns="http://www.w3.org/2000/svg" xmlns:xlink="http://www.w3.org/1999/xlink" x="0px" y="0px"
	 viewBox="0 0 612 612" style="enable-background:new 0 0 612 612;" xml:space="preserve">
<style type="text/css">
	.st0{clip-path:url(#SVGID_5_);}
	.st1{fill:#72CACF;}
	.st2{fill:#D1D2D3;}
	.st3{fill:#FFFFFF;}
	.st4{fill:none;}
	.st5{fill:#F6EB1F;}
	.st6{fill:#F16D64;}
	.st7{opacity:0.6;fill:#F16D64;}
	.st8{opacity:0.2;fill:#F16D64;}
	.st9{fill:#F48220;}
	.st10{fill:#5EC5D2;}
	.st11{fill:#39B44A;}
</style>
<g>
	<defs>
		<circle id="SVGID_1_" cx="306" cy="306" r="306"/>
	</defs>
	<defs>
		<circle id="SVGID_2_" cx="306" cy="306" r="306"/>
	</defs>
	<linearGradient id="SVGID_3_" gradientUnits="userSpaceOnUse" x1="0" y1="306" x2="612" y2="306">
		<stop  offset="0" style="stop-color:#345E59"/>
		<stop  offset="0.3077" style="stop-color:#32615C"/>
		<stop  offset="0.5172" style="stop-color:#2C6A64"/>
		<stop  offset="0.6973" style="stop-color:#217972"/>
		<stop  offset="0.8598" style="stop-color:#128F85"/>
		<stop  offset="1" style="stop-color:#00A89C"/>
	</linearGradient>
	<use xlink:href="#SVGID_2_"  style="overflow:visible;fill:url(#SVGID_3_);"/>
	<clipPath id="SVGID_5_">
		<use xlink:href="#SVGID_1_"  style="overflow:visible;"/>
	</clipPath>
	<clipPath id="SVGID_6_" class="st0">
		<use xlink:href="#SVGID_2_"  style="overflow:visible;"/>
	</clipPath>
</g>
<g>
	<g>
		<path class="st1" d="M178.2,523h-9.9c-6.2,0-11.2-5.2-11.2-11.6V361.7c0-6.4,5.2-11.6,11.6-11.6h93.8c5,0,9-4,9-9v-64.3h2.6v64.3
			c0,6.4-5.2,11.6-11.6,11.6h-93.8c-5,0-9,4-9,9v149.7c0,5,3.9,9,8.6,9h9.9V523z"/>
	</g>
	<g>
		<path class="st1" d="M198.4,392.1h-5.8v-2.7h5.8c2.1,0,4.5-3.9,4.5-9.6v-60.9c0-6.8,5.2-12.3,11.6-12.3h16.8c5,0,9-4.3,9-9.6
			v-27.6h2.6v27.6c0,6.8-5.2,12.3-11.6,12.3h-16.8c-5,0-9,4.3-9,9.6v60.9C205.5,386.7,202.4,392.1,198.4,392.1z"/>
	</g>
	<g>
		<path class="st1" d="M489.3,493.1h-28.4c-6.4,0-11.6-5.2-11.6-11.6V324.1c0-5-4-9-9-9h-126c-6.4,0-11.6-5.2-11.6-11.6v-26.7h2.6
			v26.7c0,5,4,9,9,9h126c6.4,0,11.6,5.2,11.6,11.6v157.5c0,5,4,9,9,9h28.4c4.9,0,9-3,9-6.5v-7.8h2.6v7.8
			C500.9,489,495.7,493.1,489.3,493.1z"/>
	</g>
	<g>
		<path class="st2" d="M179.2,365.8h-76.4c-4.4,0-8,3.6-8,8v106.2c0,4.4,3.6,8,8,8h76.4c4.4,0,8-3.6,8-8V373.8
			C187.2,369.4,183.6,365.8,179.2,365.8z M166.3,371c0.5,0,0.8,0.4,0.8,0.8c0,0.5-0.4,0.8-0.8,0.8c-0.5,0-0.8-0.4-0.8-0.8
			C165.5,371.4,165.9,371,166.3,371z M139.9,370.4c0.8,0,1.4,0.6,1.4,1.4c0,0.8-0.6,1.4-1.4,1.4c-0.8,0-1.4-0.6-1.4-1.4
			C138.4,371,139.1,370.4,139.9,370.4z M139.9,483.3c-1.8,0-3.3-1.5-3.3-3.3c0-1.8,1.5-3.3,3.3-3.3c1.8,0,3.3,1.5,3.3,3.3
			C143.2,481.8,141.7,483.3,139.9,483.3z M177.5,472h-73.7V376h73.7V472z"/>
		<rect x="103.8" y="376" class="st3" width="73.7" height="96.1"/>
	</g>
	<g>
		<rect x="463.2" y="381.9" class="st3" width="51.1" height="77.4"/>
		<g>
			<path class="st4" d="M497.4,375.2c0.3,0.1,0.6,0.2,0.6,0.2s0.4-0.1,0.6-0.2c0.3-0.1,0.5-0.9,0.5-0.9s-0.1-0.4-0.2-0.6
				c-0.1-0.3-0.9-0.5-0.9-0.5s-0.4,0.1-0.6,0.2s-0.5,0.9-0.5,0.9S497.1,375.1,497.4,375.2z"/>
			<path class="st4" d="M500.7,376.6c0.3,0.1,1.2,0.2,2.1,0.2c0.9,0,1.8-0.1,2.1-0.2c0.3-0.1,0.5-1.5,0.5-2.3c0-0.9-0.1-1.8-0.2-2.1
				c-0.1-0.3-1.5-0.5-2.3-0.5c-0.9,0-1.8,0.1-2.1,0.2c-0.3,0.1-0.5,1.5-0.5,2.3C500.1,375.1,500.4,376.5,500.7,376.6z"/>
			<path class="st4" d="M463.2,448.9c0,5.7,4.6,10.3,10.3,10.3H504c5.7,0,10.3-4.6,10.3-10.3v-56.7c0-5.7-4.6-10.3-10.3-10.3h-30.5
				c-5.7,0-10.3,4.6-10.3,10.3V448.9z"/>
			<path class="st2" d="M509.9,365.8h-42.3c-4,0-7.3,3.3-7.3,7.3v92c0,4,3.3,7.3,7.3,7.3h42.3c4,0,7.3-3.3,7.3-7.3v-92
				C517.2,369.1,513.9,365.8,509.9,365.8z M500.1,372.7c0-0.6,0.5-1,1-1h3.1c0.6,0,1,0.5,1,1v3.1c0,0.6-0.5,1-1,1h-3.1
				c-0.6,0-1-0.5-1-1V372.7z M496.9,374.1c0-0.6,0.5-1,1-1h0.3c0.6,0,1,0.5,1,1v0.3c0,0.6-0.5,1-1,1h-0.3c-0.6,0-1-0.5-1-1V374.1z
				 M481.2,466.6h-13.9c-0.3,0-0.5-0.2-0.5-0.5v-1.7c0.8,0,7,0,14.4,0V466.6z M495.8,465.9h-14.2V465c4.6,0,9.6,0,14.2,0V465.9z
				 M510.8,466c0,0.3-0.2,0.5-0.5,0.5h-13.9v-2.2c7.5,0,13.7,0,14.4,0V466z M514.3,459.2h-51.1v-77.4h51.1V459.2z"/>
		</g>
	</g>
	<rect x="215.1" y="395.2" class="st3" width="218" height="114.4"/>
	<path class="st2" d="M440.3,517.3c0,0,0-118,0-124.3c0-5.8-5.3-5.5-5.3-5.5H212.1c0,0-4.8-0.2-4.8,4.5c0,4.7,0,125.4,0,125.4h-25.3
		v8.2c0,0-0.4,5.7,8,5.7c7.7,0,239.9,0,275.1,0c4.5,0,4.6-4.1,4.6-4.1v-9.8H440.3z M215.1,395.2h218v114.4h-218V395.2z"/>
	<g>
		<path class="st5" d="M187.2,394.2c0-0.2,0-6.5,0-6.8h2.5c1.9,0,4.1,1.2,4.1,3.4c0,2.2-2.1,3.4-4.1,3.4H187.2z"/>
		<path class="st5" d="M238.3,262.7c0.2,0,6.5,0,6.8,0v2.5c0,1.9-1.2,4.1-3.4,4.1c-2.2,0-3.4-2.1-3.4-4.1V262.7z"/>
		<path class="st5" d="M269.4,274.7c0.2,0,6.5,0,6.8,0v2.5c0,1.9-1.2,4.1-3.4,4.1c-2.2,0-3.4-2.1-3.4-4.1V274.7z"/>
		<path class="st5" d="M300.6,276.7c0.2,0,6.5,0,6.8,0v2.5c0,1.9-1.2,4.1-3.4,4.1c-2.2,0-3.4-2.1-3.4-4.1V276.7z"/>
		<path class="st5" d="M496.2,472.4c0.2,0,6.5,0,6.8,0v2c0,1.9-1.2,4.1-3.4,4.1c-2.2,0-3.4-2.1-3.4-4.1V472.4z"/>
		<path class="st5" d="M182.1,518.4c0,0.2,0,6.5,0,6.8h-2.3c-1.9,0-4.1-1.2-4.1-3.4s2.1-3.4,4.1-3.4H182.1z"/>
	</g>
	<path class="st3" d="M343.8,518.7c0,2-1.6,3.5-3.5,3.5h-35.3c-2,0-3.5-1.6-3.5-3.5v-1.4c2.3,0,39.6,0,42.4,0V518.7z"/>
	<g>
		<rect x="221.4" y="400.3" class="st3" width="187.5" height="109.4"/>
	</g>
	<rect x="221.4" y="400.3" class="st1" width="204.8" height="16.8"/>
	<g>
		<g id="pie_x5F_chart_20_">
			<g>
				<path class="st6" d="M227.3,441.1c0-9.2,7.5-16.7,16.8-16.7c4.6,0,8.8,1.9,11.8,4.9L244,441.1v16.7
					C235,457.8,227.3,450.4,227.3,441.1z"/>
			</g>
			<path class="st7" d="M247,441.1l11.8-11.8c6.5,6.5,6.5,17.1,0,23.7L247,441.1z"/>
			<path class="st8" d="M245.5,442.5v16.7c4.5,0,8.6-1.6,11.8-4.9L245.5,442.5z"/>
		</g>
		<rect x="270.7" y="424.4" class="st1" width="51.4" height="3.5"/>
		<rect x="270.7" y="432" class="st1" width="51.4" height="3.5"/>
		<rect x="270.7" y="441.1" class="st1" width="51.4" height="3.5"/>
		<rect x="270.7" y="448.8" class="st1" width="51.4" height="3.5"/>
		<rect x="270.7" y="456.1" class="st1" width="51.4" height="3.5"/>
	</g>
	<rect x="228.8" y="481" class="st1" width="27.1" height="3.5"/>
	<rect x="228.8" y="488.7" class="st1" width="27.1" height="3.5"/>
	<rect x="228.8" y="496" class="st1" width="27.1" height="3.5"/>
	<rect x="260.8" y="481" class="st1" width="27.1" height="3.5"/>
	<rect x="260.8" y="488.7" class="st1" width="27.1" height="3.5"/>
	<rect x="260.8" y="496" class="st1" width="27.1" height="3.5"/>
	<rect x="293.6" y="481" class="st1" width="27.1" height="3.5"/>
	<rect x="293.6" y="488.7" class="st1" width="27.1" height="3.5"/>
	<rect x="293.6" y="496" class="st1" width="27.1" height="3.5"/>
	<rect x="327.7" y="481" class="st1" width="27.1" height="3.5"/>
	<rect x="327.7" y="488.7" class="st1" width="27.1" height="3.5"/>
	<rect x="327.7" y="496" class="st1" width="27.1" height="3.5"/>
	<rect x="363.7" y="481" class="st1" width="27.1" height="3.5"/>
	<rect x="363.7" y="488.7" class="st1" width="27.1" height="3.5"/>
	<rect x="363.7" y="496" class="st1" width="27.1" height="3.5"/>
	<rect x="398.2" y="481" class="st1" width="27.1" height="3.5"/>
	<rect x="398.2" y="488.7" class="st1" width="27.1" height="3.5"/>
	<rect x="398.2" y="496" class="st1" width="27.1" height="3.5"/>
	<g>
		<rect x="374.7" y="424.4" class="st1" width="50.6" height="3.5"/>
		<rect x="374.7" y="432" class="st1" width="50.6" height="3.5"/>
		<rect x="374.7" y="441.1" class="st1" width="50.6" height="3.5"/>
		<rect x="374.7" y="448.8" class="st1" width="50.6" height="3.5"/>
		<rect x="374.7" y="456.1" class="st1" width="50.6" height="3.5"/>
	</g>
	<g id="charts_22_">
		<path class="st9" d="M361.5,454.9v-17.4c0-0.3-0.3-0.6-0.6-0.6h-4.8c-0.3,0-0.6,0.3-0.6,0.6v17.4h-1.2v-25.7
			c0-0.3-0.3-0.6-0.6-0.6h-4.8c-0.3,0-0.6,0.3-0.6,0.6v25.7h-1.2v-12.6c0-0.3-0.3-0.6-0.6-0.6h-4.8c-0.3,0-0.6,0.3-0.6,0.6v12.6
			h-1.2v-5.4c0-0.3-0.3-0.6-0.6-0.6h-4.8c-0.3,0-0.6,0.3-0.6,0.6v0.6v4.8h-2.4v2.4h32.3V456v-1.2H361.5z"/>
	</g>
	<rect x="227.3" y="464.4" class="st1" width="198.9" height="8.2"/>
	<g>
		<g id="pie_x5F_chart_22_">
			<g>
				<path class="st6" d="M474.4,401.5c0-8.3,6.8-15,15-15c4.1,0,7.9,1.7,10.6,4.4l-10.7,10.6v15
					C481.3,416.5,474.4,409.7,474.4,401.5z"/>
			</g>
			<path class="st7" d="M492.1,401.5l10.6-10.6c5.9,5.9,5.9,15.4,0,21.2L492.1,401.5z"/>
			<path class="st8" d="M490.7,402.7v15c4,0,7.7-1.5,10.6-4.4L490.7,402.7z"/>
		</g>
		<g>
			<rect x="466.6" y="423.8" class="st1" width="44.3" height="3"/>
			<rect x="466.6" y="430.4" class="st1" width="44.3" height="3"/>
			<rect x="466.6" y="438.2" class="st1" width="44.3" height="3"/>
			<rect x="466.6" y="444.8" class="st1" width="44.3" height="3"/>
			<rect x="466.6" y="451.1" class="st1" width="44.3" height="3"/>
		</g>
	</g>
	<g>
		<g id="pie_x5F_chart_24_">
			<g>
				<path class="st6" d="M124.6,402.4c0-9.7,7.9-17.5,17.6-17.5c4.8,0,9.2,2,12.4,5.1l-12.4,12.4v17.5
					C132.7,419.9,124.6,412,124.6,402.4z"/>
			</g>
			<path class="st7" d="M145.3,402.4l12.4-12.4c6.8,6.8,6.8,17.9,0,24.8L145.3,402.4z"/>
			<path class="st8" d="M143.6,403.8v17.5c4.7,0,9-1.7,12.4-5.1L143.6,403.8z"/>
		</g>
		<g>
			<rect x="115.5" y="428.4" class="st1" width="51.7" height="3.6"/>
			<rect x="115.5" y="436.1" class="st1" width="51.7" height="3.6"/>
			<rect x="115.5" y="445.3" class="st1" width="51.7" height="3.6"/>
			<rect x="115.5" y="453" class="st1" width="51.7" height="3.6"/>
			<rect x="115.5" y="460.3" class="st1" width="51.7" height="3.6"/>
		</g>
	</g>
	<g>
		<g>
			<path class="st3" d="M271.3,373.1l-3.6-14.2h1.9l1.7,7.2c0.4,1.8,0.8,3.5,1,4.9h0c0.2-1.4,0.7-3.1,1.2-4.9l1.9-7.1h1.9l1.7,7.2
				c0.4,1.7,0.8,3.4,1,4.8h0c0.3-1.6,0.7-3.1,1.1-4.9l1.9-7.1h1.9l-4,14.2h-1.9l-1.8-7.4c-0.4-1.8-0.7-3.2-0.9-4.6h0
				c-0.3,1.4-0.6,2.8-1.1,4.6l-2,7.4H271.3z"/>
			<path class="st3" d="M287,368.4c0,2.5,1.6,3.5,3.5,3.5c1.3,0,2.1-0.2,2.8-0.5l0.3,1.3c-0.7,0.3-1.8,0.6-3.4,0.6
				c-3.1,0-5-2.1-5-5.1s1.8-5.5,4.8-5.5c3.3,0,4.2,2.9,4.2,4.8c0,0.4,0,0.7-0.1,0.9H287z M292.4,367c0-1.2-0.5-3-2.6-3
				c-1.9,0-2.7,1.7-2.8,3H292.4z"/>
			<path class="st3" d="M296.4,373.1c0-0.7,0.1-1.7,0.1-2.6v-12.3h1.8v6.4h0c0.7-1.1,1.8-1.9,3.5-1.9c2.5,0,4.3,2.1,4.3,5.2
				c0,3.6-2.3,5.4-4.6,5.4c-1.5,0-2.6-0.6-3.4-1.9h-0.1l-0.1,1.7H296.4z M298.3,369c0,0.2,0,0.5,0.1,0.7c0.4,1.3,1.4,2.2,2.8,2.2
				c1.9,0,3.1-1.6,3.1-3.9c0-2-1-3.8-3-3.8c-1.3,0-2.4,0.9-2.8,2.3c0,0.2-0.1,0.5-0.1,0.8V369z"/>
			<path class="st3" d="M313.1,366.7v1.4h-5.2v-1.4H313.1z"/>
			<path class="st3" d="M315.1,373.1c0-0.7,0.1-1.7,0.1-2.6v-12.3h1.8v6.4h0c0.7-1.1,1.8-1.9,3.5-1.9c2.5,0,4.3,2.1,4.3,5.2
				c0,3.6-2.3,5.4-4.6,5.4c-1.5,0-2.6-0.6-3.4-1.9h-0.1l-0.1,1.7H315.1z M317.1,369c0,0.2,0,0.5,0.1,0.7c0.4,1.3,1.4,2.2,2.8,2.2
				c1.9,0,3.1-1.6,3.1-3.9c0-2-1-3.8-3-3.8c-1.3,0-2.4,0.9-2.8,2.3c0,0.2-0.1,0.5-0.1,0.8V369z"/>
			<path class="st3" d="M332.8,373.1l-0.1-1.3h-0.1c-0.6,0.8-1.7,1.5-3.1,1.5c-2.1,0-3.1-1.4-3.1-2.9c0-2.5,2.2-3.8,6.1-3.8v-0.2
				c0-0.8-0.2-2.4-2.3-2.4c-0.9,0-1.9,0.3-2.6,0.8l-0.4-1.2c0.8-0.5,2.1-0.9,3.3-0.9c3.1,0,3.9,2.1,3.9,4.2v3.8c0,0.9,0,1.7,0.2,2.4
				H332.8z M332.5,367.9c-2,0-4.3,0.3-4.3,2.3c0,1.2,0.8,1.8,1.7,1.8c1.3,0,2.2-0.8,2.5-1.7c0.1-0.2,0.1-0.4,0.1-0.6V367.9z"/>
			<path class="st3" d="M337,371.2c0.5,0.4,1.5,0.7,2.4,0.7c1.3,0,2-0.7,2-1.5c0-0.9-0.5-1.4-1.9-1.9c-1.8-0.7-2.7-1.7-2.7-2.9
				c0-1.6,1.3-3,3.5-3c1,0,1.9,0.3,2.5,0.6l-0.5,1.3c-0.4-0.3-1.1-0.6-2.1-0.6c-1.1,0-1.7,0.6-1.7,1.4c0,0.8,0.6,1.2,1.9,1.7
				c1.8,0.7,2.7,1.6,2.7,3.1c0,1.8-1.4,3-3.8,3c-1.1,0-2.1-0.3-2.9-0.7L337,371.2z"/>
			<path class="st3" d="M346.6,368.4c0,2.5,1.6,3.5,3.5,3.5c1.3,0,2.1-0.2,2.8-0.5l0.3,1.3c-0.7,0.3-1.8,0.6-3.4,0.6
				c-3.1,0-5-2.1-5-5.1s1.8-5.5,4.8-5.5c3.3,0,4.2,2.9,4.2,4.8c0,0.4,0,0.7-0.1,0.9H346.6z M352.1,367c0-1.2-0.5-3-2.6-3
				c-1.9,0-2.7,1.7-2.8,3H352.1z"/>
			<path class="st3" d="M364.9,358.2v12.3c0,0.9,0,1.9,0.1,2.6h-1.7l-0.1-1.8h0c-0.6,1.1-1.8,2-3.5,2c-2.5,0-4.3-2.1-4.3-5.2
				c0-3.4,2.1-5.5,4.6-5.5c1.6,0,2.6,0.7,3.1,1.6h0v-6.1H364.9z M363.1,367.1c0-0.2,0-0.5-0.1-0.8c-0.3-1.2-1.3-2.1-2.7-2.1
				c-1.9,0-3,1.7-3,3.9c0,2.1,1,3.8,3,3.8c1.2,0,2.4-0.8,2.7-2.2c0.1-0.3,0.1-0.5,0.1-0.8V367.1z"/>
			<path class="st3" d="M382.4,372.6c-0.7,0.3-2,0.7-3.7,0.7c-4,0-7-2.5-7-7.2c0-4.4,3-7.4,7.4-7.4c1.8,0,2.9,0.4,3.4,0.6l-0.4,1.5
				c-0.7-0.3-1.7-0.6-2.9-0.6c-3.3,0-5.5,2.1-5.5,5.8c0,3.5,2,5.7,5.4,5.7c1.1,0,2.2-0.2,3-0.6L382.4,372.6z"/>
			<path class="st3" d="M384.7,359.1c0.9-0.2,2.2-0.3,3.5-0.3c2,0,3.2,0.4,4.1,1.2c0.7,0.6,1.1,1.6,1.1,2.7c0,1.9-1.2,3.1-2.7,3.6
				v0.1c1.1,0.4,1.7,1.4,2.1,2.9c0.5,2,0.8,3.3,1.1,3.9H392c-0.2-0.4-0.5-1.6-0.9-3.4c-0.4-2-1.2-2.7-2.8-2.8h-1.7v6.1h-1.8V359.1z
				 M386.5,365.6h1.9c2,0,3.2-1.1,3.2-2.7c0-1.8-1.3-2.6-3.3-2.6c-0.9,0-1.5,0.1-1.8,0.2V365.6z"/>
			<path class="st3" d="M407.9,366.9c-0.1-2-0.2-4.3-0.2-6.1h-0.1c-0.5,1.7-1.1,3.4-1.8,5.4l-2.5,6.9H402l-2.3-6.7
				c-0.7-2-1.2-3.8-1.6-5.5h0c0,1.8-0.1,4.1-0.3,6.3l-0.4,6.1h-1.7l1-14.2h2.3l2.4,6.8c0.6,1.7,1.1,3.3,1.4,4.8h0.1
				c0.4-1.4,0.9-3,1.5-4.8l2.5-6.8h2.3l0.9,14.2h-1.8L407.9,366.9z"/>
		</g>
	</g>
</g>
<g>
	<g>
		<path class="st10" d="M312.7,99c26.6,3.3,47.3,25.7,47.7,53.1l35.3,19.2l34.8-19.1c-0.5-66-52.3-119.8-117.5-123.5l19,34.6
			L312.7,99z"/>
		<path class="st11" d="M252,146.4c3.3-26.6,25.7-47.3,53.1-47.7l19.2-35.3l-19.1-34.8c-66,0.5-119.8,52.3-123.5,117.5l34.6-19
			L252,146.4z"/>
		<path class="st6" d="M430.4,160.2l-34.6,19L360,159.8c-3.3,26.6-25.7,47.3-53.1,47.7l-19.2,35.3l19.1,34.8
			C372.9,277.2,426.8,225.4,430.4,160.2z"/>
		<path class="st9" d="M299.3,207.1c-26.6-3.3-47.3-25.7-47.7-53.1l-35.3-19.2L181.4,154c0.5,66,52.3,119.8,117.5,123.5l-19-34.6
			L299.3,207.1z"/>
	</g>
	<g>
		<g>
			<path class="st3" d="M226.4,117.9c5.6,0,10.2-4.6,10.2-10.2c0-1.7-0.4-3.4-1.2-4.8c-0.1,0-0.2,0-0.3,0c0,0-0.1,0-0.1,0l-1.3-0.1
				l-0.9,0.9c0.7,1.1,1.1,2.5,1.1,4c0,4.1-3.4,7.5-7.5,7.5c-4.1,0-7.5-3.4-7.5-7.5c0-4.1,3.4-7.5,7.5-7.5c1.5,0,2.8,0.4,4,1.1
				l0.8-0.8l-0.1-1.5c0-0.1,0-0.2,0-0.4c-1.4-0.7-3-1.1-4.7-1.1c-5.6,0-10.2,4.6-10.2,10.2C216.2,113.3,220.8,117.9,226.4,117.9
				L226.4,117.9z M226.4,117.9"/>
			<path class="st3" d="M226.4,105c0.1,0,0.1,0,0.2,0l1.9-1.9l0,0c-0.6-0.3-1.4-0.5-2.1-0.5c-2.8,0-5,2.3-5,5c0,2.8,2.3,5,5,5
				c2.8,0,5-2.3,5-5c0-0.8-0.2-1.5-0.5-2.1l0,0l-1.9,1.9c0,0.1,0,0.1,0,0.2c0,1.5-1.2,2.6-2.6,2.6s-2.6-1.2-2.6-2.6
				C223.8,106.2,225,105,226.4,105L226.4,105z M226.4,105"/>
			<path class="st3" d="M237,98.4l0.6-0.6c0.3-0.3,0.3-0.7,0-0.9l-0.4-0.4c-0.1-0.1-0.3-0.2-0.5-0.2c-0.2,0-0.3,0.1-0.5,0.2
				l-0.6,0.6l-0.1-1.7c0-0.1-0.1-0.2-0.2-0.2c-0.1,0-0.1,0-0.2,0.1l-2.5,2.5c-0.2,0.2-0.3,0.5-0.3,0.9l0,0.1l0.1,1.6l-0.9,0.9
				l-1.6,1.6l0,0l-1.6,1.6l-0.7,0.7c-0.1,0.1-0.1,0.2-0.2,0.3l0,0.5c0,0.3,0.2,0.6,0.5,0.6h0l0.6,0c0.1,0,0.3-0.1,0.4-0.2l4.9-4.9
				l1.4,0.1l0.1,0c0,0,0.1,0,0.1,0c0.3,0,0.6-0.1,0.8-0.3l2.5-2.5c0.1-0.1,0-0.4-0.1-0.4L237,98.4z M237,98.4"/>
		</g>
	</g>
	<g>
		<g>
			<path class="st3" d="M284,147.5c-1.7,0-3,0.6-3.9,1.9s-1.4,3-1.4,5.3c0,4.7,1.8,7,5.3,7c1.5,0,3.3-0.4,5.4-1.1v3.7
				c-1.7,0.7-3.7,1.1-5.8,1.1c-3.1,0-5.4-0.9-7-2.8c-1.6-1.9-2.4-4.5-2.4-8c0-2.2,0.4-4.1,1.2-5.8s1.9-2.9,3.4-3.8
				c1.5-0.9,3.2-1.3,5.3-1.3c2,0,4.1,0.5,6.2,1.5l-1.4,3.6c-0.8-0.4-1.6-0.7-2.4-1C285.5,147.7,284.8,147.5,284,147.5z"/>
			<path class="st3" d="M298.3,157.1v8.1h-4.5v-21.1h6.1c2.9,0,5,0.5,6.4,1.6c1.4,1,2.1,2.6,2.1,4.7c0,1.2-0.3,2.3-1,3.3
				s-1.6,1.7-2.9,2.3c3.2,4.7,5.2,7.8,6.2,9.2h-5l-5-8.1H298.3z M298.3,153.5h1.4c1.4,0,2.5-0.2,3.1-0.7s1-1.2,1-2.2
				c0-1-0.3-1.7-1-2.1c-0.7-0.4-1.8-0.6-3.2-0.6h-1.4V153.5z"/>
			<path class="st3" d="M322.2,165.2l-5.1-16.5H317c0.2,3.4,0.3,5.6,0.3,6.7v9.8h-4v-21.1h6.1l5,16.1h0.1l5.3-16.1h6.1v21.1h-4.2
				v-10c0-0.5,0-1,0-1.6c0-0.6,0.1-2.2,0.2-4.9h-0.1l-5.4,16.5H322.2z"/>
		</g>
	</g>
	<path class="st3" d="M376,87.3c-0.3,0.5-0.5,0.9-0.8,1.3c-0.2,0.4-0.3,0.4-0.7,0.2c-1.5-0.9-3-1.8-4.5-2.6
		c-4.6-2.7-9.2-5.4-13.9-8.1c-0.3-0.2-0.6-0.2-0.9,0c-0.8,0.4-1.5,0.7-2.3,1.1c-0.1,0.1-0.3,0.2-0.5,0.3c7.1,4,14.1,7.9,21.1,11.9
		c-0.4,0.6-0.7,1.1-1.1,1.7c2.7,0.3,5.3,0.6,7.9,0.9c0,0,0-0.1,0.1-0.1C378.9,91.6,377.5,89.5,376,87.3z M372.7,91.7
		c-0.1-0.1-0.1-0.2-0.1-0.2c-1.3-0.8-2.7-1.6-4-2.3c-0.1-0.1-0.4-0.1-0.5,0c-3.9,1.9-7.8,3.7-11.7,5.6c-0.3,0.2-0.4,0.3-0.2,0.7
		c0.5,0.9,0.9,1.9,1.4,2.8c0.3,0.6,0.3,0.6,0.8,0.3c4.7-2.2,9.3-4.4,14-6.7C372.4,91.9,372.5,91.8,372.7,91.7z M367.2,88.6
		c-0.1-0.1-0.1-0.2-0.2-0.2c-1.3-0.8-2.7-1.5-4-2.2c-0.1-0.1-0.4-0.1-0.6,0c-2.8,1.3-5.6,2.7-8.4,4c-0.4,0.2-0.4,0.4-0.2,0.7
		c0.5,0.9,0.9,1.9,1.4,2.9c0.2,0.5,0.4,0.5,0.8,0.3c3.6-1.7,7.1-3.4,10.7-5.1C366.8,88.8,367,88.7,367.2,88.6z M361.7,85.5
		c-0.1-0.1-0.1-0.2-0.2-0.2c-1.3-0.7-2.7-1.5-4-2.2c-0.1-0.1-0.4,0-0.5,0c-1.7,0.8-3.5,1.7-5.2,2.5c-0.3,0.2-0.3,0.3-0.2,0.6
		c0.5,1,1,1.9,1.4,2.9c0.2,0.4,0.3,0.4,0.7,0.2c2.5-1.2,5-2.4,7.6-3.6C361.4,85.7,361.5,85.6,361.7,85.5z M355.9,82.3
		c-0.1-0.1-0.1-0.1-0.2-0.2c-1.3-0.7-2.7-1.5-4-2.2c-0.1-0.1-0.4,0-0.6,0c-0.6,0.2-1.1,0.5-1.7,0.8c-0.4,0.2-0.4,0.3-0.2,0.7
		c0.5,0.9,0.9,1.9,1.4,2.8c0.1,0.2,0.2,0.3,0.2,0.5C352.6,83.9,354.2,83.1,355.9,82.3z"/>
	<g>
		<path class="st3" d="M257.5,231.1c-0.8-0.9-2.1-1-3-0.2l-4,3.4c-0.9,0.8-1,2.1-0.2,3c0.8,0.9,2.1,1,3,0.2l1.9-1.7l2.1-1.8
			c0.8-0.7,0.9-1.7,0.5-2.6C257.7,231.4,257.7,231.3,257.5,231.1z"/>
		<path class="st3" d="M259.5,229.4c-0.3,0.4-0.6,0.9-1,1.3c0.4,0.6,0.6,1.3,0.5,2c0.7-0.8,1.4-1.6,1.9-2.4
			c2.9-4.5,2.6-9.9-0.7-13.7c-3.5-3.9-9-4.8-14.1-2.3c-0.6,0.3-1.2,0.6-1.8,1c0.6,0.1,1.2,0.5,1.7,1c0.3-0.2,0.6-0.3,0.8-0.4
			c4.4-2.1,9.1-1.4,12,1.9C261.2,220.4,262.5,224.7,259.5,229.4z"/>
		<path class="st3" d="M245.3,217.1c0,0-0.1-0.1-0.1-0.1c-0.6-0.6-1.6-0.8-2.4-0.4l0,0c-0.2,0.1-0.3,0.2-0.5,0.3l-4,3.4
			c-0.9,0.8-1,2.1-0.2,3c0.8,0.9,2.1,1,3,0.2l4-3.4C246,219.4,246.1,218,245.3,217.1z"/>
		<path class="st3" d="M256.4,237.6c0.2-0.2,0.2-0.5,0-0.7c-0.2-0.2-0.5-0.2-0.7,0c-2.3,2.2-5.6,3.5-8.8,3.3c-2.2-0.1-4.1-0.8-5.6-2
			c0.1-0.3,0.1-0.7-0.2-1l-2.1-2.5c-0.4-0.4-1-0.5-1.5-0.1c-0.4,0.4-0.5,1-0.1,1.5l2.1,2.5c0,0,0,0,0,0c0.3,0.3,0.6,0.4,1,0.3
			c1.6,1.4,3.8,2.3,6.3,2.4C250.4,241.3,254,240,256.4,237.6z"/>
	</g>
	<g>
		<path class="st3" d="M247.1,93.8l-5.4-4.5l0,0c0.6,0.8,1.1,1.6,1.5,2.3l2,3.3l-1,0.6l-4.1-6.8l1.6-0.9l5.2,4.3l0,0l-1.3-6.6
			l1.6-0.9l4.1,6.8l-1.1,0.6l-2-3.4c-0.2-0.3-0.5-0.8-0.8-1.3c-0.3-0.6-0.5-0.9-0.5-1l0,0l1.4,6.9L247.1,93.8z"/>
		<path class="st3" d="M256.1,88.4l-0.6-0.6l0,0c-0.1,0.5-0.2,0.8-0.4,1.1c-0.2,0.3-0.5,0.5-0.9,0.8c-0.5,0.3-1,0.4-1.4,0.3
			c-0.4-0.1-0.8-0.4-1.1-0.9c-0.3-0.5-0.4-1.1-0.1-1.6c0.2-0.5,0.7-1,1.5-1.5l0.9-0.6l-0.2-0.3c-0.2-0.3-0.4-0.5-0.7-0.6
			c-0.3-0.1-0.5,0-0.9,0.2c-0.3,0.2-0.5,0.3-0.7,0.6c-0.2,0.2-0.4,0.5-0.5,0.7l-0.8-0.6c0.2-0.3,0.4-0.6,0.7-0.9
			c0.3-0.3,0.6-0.5,0.9-0.7c0.7-0.4,1.2-0.5,1.7-0.5c0.5,0.1,0.9,0.4,1.3,1l2.1,3.5L256.1,88.4z M254,88.6c0.4-0.2,0.7-0.5,0.8-0.9
			c0.1-0.4,0-0.8-0.2-1.2l-0.3-0.4l-0.6,0.4c-0.5,0.3-0.8,0.6-1,0.9c-0.1,0.3-0.1,0.6,0.1,0.9c0.1,0.2,0.3,0.4,0.5,0.4
			C253.5,88.9,253.7,88.8,254,88.6z"/>
		<path class="st3" d="M257.9,80.2c0.2-0.1,0.4-0.2,0.6-0.3l0.5,1.1c-0.2,0.1-0.4,0.1-0.5,0.2c-0.4,0.3-0.7,0.6-0.8,1.1
			c-0.1,0.4,0,0.9,0.3,1.4l1.6,2.7l-1.1,0.7l-3.1-5.2l0.9-0.5l0.7,0.8l0.1,0c0-0.4,0.1-0.8,0.2-1.1
			C257.3,80.6,257.5,80.4,257.9,80.2z"/>
		<path class="st3" d="M261.9,81.2l0.2-1.1l0.6-2.6l1.3-0.8l-0.8,3.5l4,1.6l-1.3,0.8l-3-1.3l-0.3,0.9l1.1,1.8l-1.1,0.7l-4.4-7.3
			l1.1-0.7l2.1,3.5L261.9,81.2L261.9,81.2z"/>
		<path class="st3" d="M270.3,80c-0.8,0.5-1.6,0.6-2.3,0.4c-0.7-0.2-1.3-0.7-1.8-1.5c-0.5-0.8-0.7-1.6-0.6-2.4
			c0.1-0.7,0.6-1.3,1.3-1.8c0.7-0.4,1.3-0.5,2-0.3c0.6,0.2,1.2,0.6,1.6,1.4l0.4,0.6l-3.4,2.1c0.3,0.5,0.7,0.8,1.1,0.9
			c0.4,0.1,0.9,0,1.3-0.2c0.3-0.2,0.6-0.4,0.8-0.6s0.5-0.5,0.7-0.8l0.5,0.9c-0.2,0.3-0.4,0.5-0.7,0.8C271,79.6,270.7,79.8,270.3,80z
			 M267.4,75.6c-0.3,0.2-0.6,0.5-0.6,0.8c-0.1,0.3,0,0.7,0.2,1.2l2.3-1.4c-0.3-0.4-0.6-0.7-0.9-0.8
			C268.1,75.3,267.7,75.4,267.4,75.6z"/>
		<path class="st3" d="M275,76c0.3-0.2,0.5-0.4,0.7-0.6l0.5,0.8c-0.1,0.1-0.2,0.3-0.4,0.4c-0.2,0.1-0.4,0.3-0.6,0.4
			c-1,0.6-1.9,0.4-2.5-0.7l-1.7-2.8l-0.7,0.4l-0.3-0.5l0.5-0.9l-0.3-1.3l0.7-0.4l0.7,1.2l1.5-0.9l0.5,0.8l-1.5,0.9l1.7,2.8
			c0.2,0.3,0.3,0.4,0.5,0.5C274.5,76.2,274.7,76.1,275,76z"/>
		<path class="st3" d="M273.3,69.2c-0.1-0.2-0.2-0.4-0.1-0.6s0.2-0.3,0.4-0.4c0.2-0.1,0.4-0.2,0.5-0.1s0.3,0.2,0.4,0.4
			c0.1,0.2,0.1,0.4,0.1,0.5c0,0.2-0.2,0.3-0.4,0.4c-0.2,0.1-0.4,0.2-0.6,0.1C273.5,69.5,273.4,69.4,273.3,69.2z M278.4,75.1
			l-1.1,0.7l-3.1-5.2l1.1-0.7L278.4,75.1z"/>
		<path class="st3" d="M284.5,71.4l-1.1,0.7l-1.9-3.2c-0.2-0.4-0.5-0.6-0.8-0.8c-0.3-0.1-0.6,0-0.9,0.2c-0.5,0.3-0.7,0.6-0.8,1
			c-0.1,0.4,0.1,0.9,0.5,1.6l1.5,2.6l-1.1,0.7l-3.1-5.2l0.9-0.5l0.6,0.6l0.1,0c0-0.3,0.1-0.7,0.3-1c0.2-0.3,0.5-0.6,0.8-0.8
			c1.2-0.7,2.2-0.5,3,0.8L284.5,71.4z"/>
		<path class="st3" d="M287.3,62.7l0.4,0.6l-0.8,0.7c0.1,0.1,0.3,0.2,0.4,0.3c0.1,0.1,0.3,0.3,0.4,0.5c0.3,0.5,0.4,1.1,0.2,1.6
			c-0.2,0.5-0.6,1-1.2,1.4c-0.2,0.1-0.3,0.2-0.5,0.2c-0.1,0.3-0.2,0.5,0,0.7c0.1,0.1,0.2,0.2,0.3,0.2c0.1,0,0.4-0.1,0.7-0.3L288,68
			c0.6-0.3,1.1-0.5,1.5-0.4c0.4,0.1,0.8,0.3,1.1,0.8c0.4,0.6,0.4,1.2,0.1,1.8c-0.3,0.6-0.9,1.2-1.8,1.7c-0.7,0.4-1.3,0.6-1.8,0.6
			c-0.5,0-0.9-0.3-1.2-0.7c-0.2-0.3-0.3-0.6-0.2-1c0.1-0.3,0.3-0.7,0.6-1c-0.2,0-0.4,0-0.5-0.1c-0.2-0.1-0.3-0.2-0.4-0.4
			c-0.1-0.2-0.2-0.4-0.1-0.6c0-0.2,0.1-0.4,0.2-0.7c-0.3,0-0.7,0-1-0.2c-0.3-0.2-0.6-0.4-0.8-0.8c-0.3-0.6-0.4-1.1-0.3-1.6
			s0.6-1,1.2-1.4c0.1-0.1,0.3-0.2,0.5-0.2c0.2-0.1,0.3-0.1,0.4-0.2L287.3,62.7z M284.7,66.5c0.2,0.3,0.4,0.5,0.7,0.6
			c0.3,0.1,0.6,0,0.9-0.2c0.6-0.4,0.8-0.9,0.3-1.6c-0.2-0.3-0.4-0.5-0.7-0.6c-0.3-0.1-0.6,0-0.9,0.2c-0.3,0.2-0.5,0.4-0.6,0.7
			C284.4,65.9,284.5,66.2,284.7,66.5z M286.8,71.1c0.1,0.2,0.4,0.4,0.6,0.4c0.3,0,0.6-0.1,1-0.3c0.6-0.4,1-0.7,1.2-1.1
			c0.2-0.3,0.2-0.7,0-0.9c-0.1-0.2-0.3-0.3-0.5-0.3c-0.2,0-0.5,0.1-1,0.4l-0.8,0.5c-0.3,0.2-0.5,0.4-0.6,0.7
			C286.6,70.6,286.6,70.8,286.8,71.1z"/>
	</g>
	<g>
		<path class="st3" d="M217.3,177.9c-0.6,0.4-1.2,0.5-1.8,0.3c-0.6-0.2-1.2-0.7-1.7-1.4c-0.5-0.8-0.8-1.4-0.9-2.1l1-0.7
			c0.1,0.4,0.2,0.8,0.3,1.2c0.1,0.4,0.3,0.7,0.5,1c0.3,0.4,0.6,0.7,0.9,0.8c0.3,0.1,0.6,0.1,0.9-0.1c0.2-0.2,0.4-0.4,0.4-0.7
			c0.1-0.3,0-0.8-0.1-1.6c-0.2-0.8-0.2-1.4,0-1.8c0.2-0.5,0.5-0.8,0.9-1.1c0.6-0.4,1.1-0.5,1.7-0.3c0.6,0.2,1.1,0.6,1.5,1.3
			c0.4,0.6,0.7,1.4,0.8,2.2l-1.1,0.2c-0.1-0.8-0.4-1.4-0.7-1.8c-0.2-0.4-0.5-0.6-0.8-0.7c-0.3-0.1-0.5,0-0.8,0.1
			c-0.2,0.1-0.3,0.2-0.4,0.4c-0.1,0.2-0.1,0.3-0.1,0.6c0,0.2,0.1,0.6,0.2,1.2c0.1,0.6,0.2,1.1,0.1,1.4c0,0.3-0.1,0.6-0.3,0.9
			C217.8,177.5,217.6,177.7,217.3,177.9z"/>
		<path class="st3" d="M218.6,183.8l0.6-0.6l0-0.1c-0.3,0-0.7-0.1-1-0.3c-0.3-0.2-0.6-0.5-0.8-0.8c-0.4-0.6-0.5-1.2-0.4-1.7
			c0.1-0.5,0.5-1,1.1-1.4l3.3-2.2l0.7,1.1l-3.1,2c-0.4,0.3-0.6,0.5-0.7,0.8c-0.1,0.3,0,0.6,0.2,0.9c0.3,0.5,0.6,0.7,1.1,0.7
			c0.4,0,0.9-0.2,1.6-0.6l2.5-1.6l0.7,1.1l-5,3.3L218.6,183.8z"/>
		<path class="st3" d="M221.7,188.8c-0.4-0.6-0.5-1.3-0.3-1.9l0-0.1c-0.4,0.3-0.6,0.5-0.7,0.6l-2.1,1.3l-0.7-1.1l7.3-4.8l0.6,0.9
			c-0.1,0.1-0.3,0.3-0.6,0.6l0,0.1c0.7,0,1.3,0.3,1.7,1c0.4,0.6,0.5,1.3,0.3,1.9c-0.2,0.6-0.8,1.2-1.6,1.8c-0.8,0.5-1.6,0.8-2.3,0.7
			C222.6,189.8,222.1,189.4,221.7,188.8z M225.9,185.7c-0.3-0.4-0.6-0.7-1-0.7s-0.8,0.1-1.4,0.5l-0.2,0.1c-0.6,0.4-1,0.8-1.1,1.2
			s-0.1,0.8,0.2,1.2c0.2,0.4,0.6,0.6,1,0.6c0.4,0,0.9-0.2,1.5-0.5c0.6-0.4,0.9-0.8,1.1-1.1C226.2,186.5,226.1,186.1,225.9,185.7z"/>
		<path class="st3" d="M225.5,194.6c-0.4-0.6-0.5-1.3-0.3-1.9l0-0.1c-0.4,0.3-0.6,0.5-0.7,0.6l-2.1,1.3l-0.7-1.1l7.3-4.8l0.6,0.9
			c-0.1,0.1-0.3,0.3-0.6,0.6l0,0.1c0.7,0,1.3,0.3,1.7,1c0.4,0.6,0.5,1.3,0.3,1.9c-0.2,0.6-0.8,1.2-1.6,1.8c-0.8,0.5-1.6,0.8-2.3,0.7
			C226.4,195.6,225.9,195.3,225.5,194.6z M229.7,191.5c-0.3-0.4-0.6-0.7-1-0.7c-0.4,0-0.8,0.1-1.4,0.5l-0.2,0.1
			c-0.6,0.4-1,0.8-1.1,1.2c-0.1,0.4-0.1,0.8,0.2,1.2c0.2,0.4,0.6,0.6,1,0.6c0.4,0,0.9-0.2,1.5-0.5c0.6-0.4,0.9-0.7,1.1-1.1
			C230,192.3,229.9,191.9,229.7,191.5z"/>
		<path class="st3" d="M233.2,200.6c-0.8,0.5-1.6,0.7-2.3,0.6c-0.7-0.1-1.4-0.6-1.8-1.3c-0.3-0.5-0.5-1-0.5-1.5s0.1-1,0.4-1.4
			c0.3-0.5,0.7-0.9,1.2-1.2c0.8-0.5,1.6-0.7,2.3-0.6c0.7,0.1,1.3,0.6,1.8,1.3c0.5,0.7,0.6,1.5,0.4,2.2
			C234.5,199.5,234,200.1,233.2,200.6z M230.8,197c-1.2,0.8-1.5,1.6-0.9,2.4c0.6,0.9,1.4,0.9,2.6,0.1c1.2-0.8,1.4-1.6,0.9-2.4
			c-0.3-0.4-0.7-0.7-1.1-0.7C231.8,196.4,231.3,196.6,230.8,197z"/>
		<path class="st3" d="M238.2,202.7c0.1,0.2,0.2,0.4,0.3,0.6l-1.1,0.5c-0.1-0.2-0.1-0.3-0.3-0.5c-0.3-0.4-0.6-0.7-1.1-0.8
			c-0.5-0.1-0.9,0-1.4,0.3l-2.6,1.7l-0.7-1.1l5-3.3l0.5,0.8l-0.8,0.7l0,0.1c0.4,0,0.8,0,1.1,0.2C237.8,202.2,238,202.4,238.2,202.7z
			"/>
		<path class="st3" d="M236.1,208.9c0.2,0.3,0.4,0.5,0.6,0.7l-0.8,0.5c-0.1-0.1-0.3-0.2-0.4-0.4c-0.2-0.2-0.3-0.3-0.4-0.5
			c-0.7-1-0.5-1.9,0.6-2.6l2.7-1.8l-0.5-0.7l0.5-0.3l0.9,0.5l1.3-0.3l0.4,0.7l-1.1,0.7l0.9,1.4l-0.8,0.5l-0.9-1.4l-2.7,1.8
			c-0.3,0.2-0.4,0.4-0.4,0.6C235.9,208.5,235.9,208.7,236.1,208.9z"/>
	</g>
	<g>
		<path class="st3" d="M327,252.3l-1.1,0.7l-4.2-6.8l3.8-2.4l0.6,0.9l-2.7,1.7l1.3,2.1l2.5-1.6l0.6,0.9l-2.5,1.6L327,252.3z"/>
		<path class="st3" d="M333.1,248.6c-0.8,0.5-1.6,0.7-2.3,0.5c-0.7-0.2-1.4-0.7-1.9-1.5c-0.5-0.8-0.7-1.6-0.6-2.4
			c0.1-0.7,0.5-1.3,1.3-1.8c0.7-0.4,1.3-0.5,2-0.4s1.2,0.6,1.6,1.3l0.4,0.6l-3.4,2.1c0.3,0.5,0.7,0.8,1.1,0.9c0.4,0.1,0.9,0,1.3-0.3
			c0.3-0.2,0.6-0.4,0.8-0.6c0.2-0.2,0.4-0.5,0.7-0.8l0.6,0.9c-0.2,0.3-0.4,0.5-0.6,0.8C333.7,248.2,333.4,248.4,333.1,248.6z
			 M330.1,244.2c-0.3,0.2-0.6,0.5-0.6,0.8c-0.1,0.3,0,0.7,0.2,1.2l2.3-1.4c-0.3-0.4-0.6-0.7-0.9-0.8
			C330.8,244,330.5,244,330.1,244.2z"/>
		<path class="st3" d="M338.6,245.2c-0.8,0.5-1.6,0.7-2.3,0.5c-0.7-0.2-1.4-0.7-1.9-1.5c-0.5-0.8-0.7-1.6-0.6-2.4
			c0.1-0.7,0.5-1.3,1.3-1.8c0.7-0.4,1.3-0.5,2-0.4s1.2,0.6,1.6,1.3l0.4,0.6l-3.4,2.1c0.3,0.5,0.7,0.8,1.1,0.9c0.4,0.1,0.9,0,1.3-0.3
			c0.3-0.2,0.6-0.4,0.8-0.6c0.2-0.2,0.4-0.5,0.7-0.8l0.6,0.9c-0.2,0.3-0.4,0.5-0.6,0.8C339.2,244.8,338.9,245,338.6,245.2z
			 M335.6,240.8c-0.3,0.2-0.6,0.5-0.6,0.8c-0.1,0.3,0,0.7,0.2,1.2l2.3-1.4c-0.3-0.4-0.6-0.7-0.9-0.8
			C336.2,240.6,335.9,240.6,335.6,240.8z"/>
		<path class="st3" d="M343.5,242.1c-0.6,0.4-1.3,0.5-1.9,0.2c-0.6-0.2-1.2-0.8-1.8-1.6c-0.5-0.8-0.8-1.6-0.7-2.3
			c0.1-0.7,0.4-1.2,1.1-1.6c0.7-0.4,1.3-0.5,2-0.2l0.1,0c-0.3-0.3-0.5-0.6-0.6-0.8l-1.2-1.9l1.1-0.7l4.5,7.2l-0.8,0.5l-0.6-0.6
			l-0.1,0C344.5,241.1,344.2,241.7,343.5,242.1z M343.2,241c0.4-0.3,0.7-0.6,0.7-1c0-0.4-0.1-0.9-0.4-1.4l-0.1-0.2
			c-0.4-0.6-0.8-1-1.2-1.2c-0.4-0.1-0.8-0.1-1.2,0.2c-0.4,0.2-0.6,0.6-0.6,1c0,0.4,0.2,0.9,0.5,1.5c0.4,0.6,0.7,0.9,1.1,1.1
			C342.4,241.3,342.8,241.3,343.2,241z"/>
		<path class="st3" d="M347,232.6c0.6-0.4,1.3-0.5,1.9-0.2s1.2,0.8,1.7,1.6c0.5,0.8,0.8,1.6,0.7,2.3c-0.1,0.7-0.4,1.2-1.1,1.6
			c-0.6,0.4-1.3,0.5-1.9,0.2l-0.1,0l0.2,0.7l-0.8,0.5l-4.5-7.2l1.1-0.7l1.1,1.7c0.1,0.1,0.2,0.3,0.3,0.6c0.1,0.3,0.2,0.4,0.3,0.5
			l0,0C345.9,233.6,346.3,233,347,232.6z M347.2,233.6c-0.4,0.3-0.7,0.6-0.7,1c0,0.4,0.1,0.9,0.5,1.5l0,0.1c0.4,0.6,0.8,1,1.1,1.2
			c0.4,0.2,0.8,0.1,1.2-0.2c0.4-0.2,0.6-0.6,0.6-1c0-0.4-0.2-0.9-0.5-1.5C348.8,233.5,348,233.1,347.2,233.6z"/>
		<path class="st3" d="M356.7,233.7l-0.7-0.6l0,0c-0.1,0.5-0.2,0.8-0.3,1.1s-0.5,0.5-0.9,0.8c-0.5,0.3-1,0.4-1.4,0.3
			c-0.5-0.1-0.8-0.4-1.1-0.9c-0.3-0.5-0.4-1-0.2-1.6c0.2-0.5,0.7-1,1.5-1.6l0.9-0.6l-0.2-0.3c-0.2-0.3-0.4-0.5-0.7-0.6
			s-0.5,0-0.9,0.2c-0.3,0.2-0.5,0.4-0.7,0.6c-0.2,0.2-0.4,0.5-0.5,0.7l-0.8-0.6c0.2-0.3,0.4-0.6,0.7-0.9c0.3-0.3,0.6-0.5,0.9-0.7
			c0.7-0.4,1.2-0.6,1.7-0.5c0.5,0.1,1,0.4,1.3,1l2.1,3.4L356.7,233.7z M354.6,234c0.4-0.2,0.6-0.6,0.7-0.9c0.1-0.4,0-0.8-0.2-1.2
			l-0.3-0.4l-0.6,0.4c-0.5,0.3-0.8,0.7-1,1c-0.1,0.3-0.1,0.6,0.1,0.9c0.1,0.2,0.3,0.4,0.5,0.4C354.1,234.2,354.3,234.2,354.6,234z"
			/>
		<path class="st3" d="M361.1,231.1c-0.8,0.5-1.5,0.6-2.2,0.4c-0.7-0.2-1.3-0.7-1.8-1.6c-0.5-0.9-0.7-1.7-0.6-2.4
			c0.1-0.7,0.6-1.3,1.4-1.8c0.5-0.3,1.1-0.5,1.6-0.6l0.2,1.1c-0.6,0.1-1,0.3-1.3,0.4c-0.9,0.6-1,1.4-0.2,2.6
			c0.4,0.6,0.7,0.9,1.1,1.1c0.4,0.2,0.8,0.1,1.2-0.2c0.5-0.3,0.9-0.7,1.2-1.2l0.6,0.9c-0.1,0.2-0.3,0.4-0.5,0.6
			C361.7,230.7,361.4,230.9,361.1,231.1z"/>
		<path class="st3" d="M363,226l0.1-1.1l0.5-2.6l1.3-0.8l-0.7,3.5l4,1.6l-1.3,0.8l-3-1.2l-0.3,0.9l1.1,1.8l-1.1,0.7l-4.5-7.2
			l1.1-0.7l2.2,3.5L363,226L363,226z"/>
	</g>
	<g>
		<path class="st3" d="M375.4,108.6c-0.6,0.3-1.3,0.3-1.8,0c-0.6-0.3-1-0.9-1.4-1.7c-0.4-0.8-0.5-1.6-0.5-2.2l1.1-0.5
			c0,0.4,0,0.8,0.1,1.2c0.1,0.4,0.2,0.8,0.3,1.1c0.2,0.5,0.5,0.8,0.7,0.9c0.3,0.1,0.6,0.2,0.9,0c0.3-0.1,0.5-0.3,0.6-0.6
			c0.1-0.3,0.1-0.8,0.1-1.6c0-0.8,0.1-1.4,0.3-1.8c0.2-0.4,0.6-0.7,1.1-1c0.6-0.3,1.2-0.3,1.7,0c0.5,0.3,1,0.8,1.3,1.5
			c0.3,0.7,0.5,1.5,0.5,2.3l-1.1,0c0-0.8-0.1-1.4-0.4-1.9c-0.2-0.4-0.4-0.6-0.6-0.8c-0.3-0.1-0.5-0.1-0.8,0
			c-0.2,0.1-0.3,0.2-0.4,0.3c-0.1,0.1-0.2,0.3-0.2,0.6c0,0.2-0.1,0.6,0,1.2c0,0.6,0,1.1-0.1,1.5c-0.1,0.3-0.2,0.6-0.4,0.8
			C376,108.3,375.7,108.4,375.4,108.6z"/>
		<path class="st3" d="M375.5,114.2l0.7-0.6l0,0c-0.5-0.1-0.8-0.3-1-0.5c-0.2-0.2-0.5-0.5-0.6-1c-0.2-0.5-0.3-1-0.1-1.5
			c0.2-0.4,0.5-0.8,1-1c0.6-0.3,1.1-0.2,1.6,0.1c0.5,0.3,0.9,0.9,1.3,1.7l0.4,0.9l0.3-0.1c0.4-0.2,0.6-0.4,0.7-0.6
			c0.1-0.2,0.1-0.5-0.1-0.9c-0.1-0.3-0.3-0.5-0.5-0.8c-0.2-0.2-0.4-0.4-0.6-0.6l0.7-0.7c0.3,0.2,0.6,0.5,0.8,0.8s0.4,0.6,0.6,1
			c0.3,0.7,0.4,1.3,0.2,1.8c-0.1,0.5-0.5,0.9-1.2,1.2l-3.7,1.6L375.5,114.2z M375.5,112.1c0.2,0.4,0.5,0.7,0.8,0.9
			c0.4,0.2,0.7,0.1,1.2-0.1l0.5-0.2l-0.3-0.7c-0.3-0.5-0.5-0.9-0.8-1.1c-0.3-0.2-0.6-0.2-0.9,0c-0.2,0.1-0.4,0.3-0.5,0.5
			C375.4,111.6,375.4,111.8,375.5,112.1z"/>
		<path class="st3" d="M377.1,117.8l-0.5-1.2l7.8-3.4l0.5,1.2L377.1,117.8z"/>
		<path class="st3" d="M378.8,122c-0.4-0.9-0.4-1.6-0.1-2.3s0.9-1.3,1.7-1.6c0.9-0.4,1.7-0.5,2.4-0.3s1.2,0.7,1.6,1.5
			c0.3,0.7,0.4,1.4,0.1,2c-0.3,0.6-0.8,1.1-1.5,1.4l-0.6,0.3l-1.6-3.7c-0.5,0.3-0.9,0.6-1,1c-0.2,0.4-0.1,0.8,0.1,1.3
			c0.1,0.3,0.3,0.6,0.5,0.9c0.2,0.3,0.4,0.5,0.7,0.8l-1,0.4c-0.3-0.2-0.5-0.5-0.7-0.7C379.1,122.7,379,122.3,378.8,122z
			 M383.5,119.6c-0.2-0.4-0.4-0.6-0.7-0.7c-0.3-0.1-0.7-0.1-1.2,0.1l1.1,2.5c0.5-0.2,0.7-0.5,0.9-0.8
			C383.7,120.3,383.7,120,383.5,119.6z"/>
		<path class="st3" d="M383.6,128.4c-0.5,0.2-1,0.2-1.5,0c-0.5-0.3-0.8-0.8-1.2-1.5c-0.3-0.7-0.5-1.4-0.4-1.9l1-0.4
			c0,0.8,0.1,1.4,0.3,2c0.3,0.7,0.7,1,1.1,0.8c0.1-0.1,0.2-0.2,0.3-0.3c0.1-0.1,0.1-0.3,0.1-0.5c0-0.2,0-0.5,0-0.9
			c0-0.7,0-1.3,0.2-1.6c0.1-0.3,0.4-0.6,0.8-0.8c0.5-0.2,0.9-0.2,1.4,0.1c0.4,0.3,0.8,0.7,1.1,1.4c0.3,0.6,0.4,1.3,0.4,2l-1,0
			c0-0.7-0.1-1.3-0.3-1.7c-0.3-0.6-0.6-0.9-0.9-0.7c-0.2,0.1-0.3,0.2-0.3,0.4s-0.1,0.6,0,1.3c0,0.5,0,0.9,0,1.2
			c-0.1,0.3-0.2,0.5-0.3,0.7C384.1,128.1,383.9,128.3,383.6,128.4z"/>
	</g>
	<g>
		<path class="st3" d="M368.2,216.2c1.6-0.4,2.3-1.6,2.7-3.1c0-0.2,0-0.2-0.1-0.3c-1-0.7-1.9-1.5-2.5-2.6c-1.1-2.1-0.8-4.6,0.9-6.4
			c0.4-0.5,0.9-0.8,1.4-1.3c0,0,0,0,0.1,0.1c0,0,0,0.1,0,0.1c-0.7,1.8-0.7,3.6-0.1,5.3c0.5,1.4,1.4,2.6,2.6,3.6
			c1.4,1.2,3,1.9,4.8,2.4c0,0,0.1,0,0.1,0c0,0,0,0,0,0.1c-0.5,0-1.1,0.1-1.6,0.1c-0.6,0-1.1-0.1-1.7-0.1c-0.1,0-0.2,0-0.3,0.1
			C372.5,215.8,370.5,216.3,368.2,216.2z"/>
		<path class="st3" d="M388.7,214.1c-0.7-0.7-1.1-1.7-1.3-2.7c0-0.2,0.1-0.2,0.2-0.3c0.8-0.5,1.5-1.1,2.1-1.8
			c1.7-2.1,2.2-4.4,1.1-6.9c-0.8-1.8-2.2-3-3.9-3.8c-3-1.5-6.2-1.7-9.4-0.7c-1.9,0.6-3.6,1.7-4.8,3.4c-1.5,2.1-1.7,4.3-0.5,6.6
			c0.8,1.7,2.2,2.8,3.9,3.6c2.2,1.1,4.6,1.4,7.1,1.1c0.1,0,0.2,0,0.3,0.1c2.1,1.7,4.5,2.4,7.1,2.2c-0.1,0-0.1,0-0.2-0.1
			C389.7,214.9,389.2,214.6,388.7,214.1z"/>
	</g>
</g>
</svg>
