<?xml version="1.0" encoding="utf-8"?>
<!-- Generator: Adobe Illustrator 19.2.1, SVG Export Plug-In . SVG Version: 6.00 Build 0)  -->
<svg version="1.1" id="Layer_1" xmlns="http://www.w3.org/2000/svg" xmlns:xlink="http://www.w3.org/1999/xlink" x="0px" y="0px"
	 viewBox="0 0 612 612" style="enable-background:new 0 0 612 612;" xml:space="preserve">
<style type="text/css">
	.st0{fill:#9AD9E7;}
	.st1{fill:#04544B;}
	.st2{fill:#D7EDE5;}
	.st3{fill:#FFFFFF;}
	.st4{fill:#A6C7C3;}
	.st5{fill:#09B89C;}
	.st6{fill:#F37344;}
	.st7{fill:#EE3658;}
	.st8{fill:#CDE2DD;}
	.st9{fill:#D9E6E2;}
	.st10{fill:#91B8B0;}
	.st11{fill:#C1D8D2;}
	.st12{fill:#F15F35;}
	.st13{fill:#1AB99E;}
	.st14{fill:#9ED4B4;}
	.st15{fill:#F26A37;}
	.st16{fill:#EE2A55;}
	.st17{fill:#FFFEFE;}
	.st18{fill:#E0B3AA;}
	.st19{fill:#0F8E75;}
	.st20{fill:#6E624B;}
</style>
<g>
	<circle class="st0" cx="306" cy="306" r="306"/>
	<g>
		<g>
			<rect x="310.6" y="403.4" class="st1" width="144.2" height="98.8"/>
			<polygon class="st2" points="450.2,497.6 315.3,497.6 315.3,408.1 450.2,408.1 450.2,497.6 			"/>
			<polygon class="st3" points="440.3,487.6 325.2,487.6 325.2,418 440.3,418 440.3,487.6 			"/>
			<path class="st4" d="M294.8,502.2c0.5,5.9,5.4,10.6,11.4,10.6H461c6,0,11-4.7,11.4-10.6H294.8z"/>
			<path class="st3" d="M469.6,508.8c1-1.1,1.8-2.5,2.2-4H295.3c0.5,1.5,1.2,2.8,2.2,4H469.6z"/>
			<rect x="371.8" y="505.3" class="st1" width="29.1" height="3.1"/>
			<g>
				<rect x="331.6" y="445.9" class="st5" width="29.9" height="27.6"/>
			</g>
			<g>
				<rect x="367.4" y="445.9" class="st6" width="29.9" height="27.6"/>
			</g>
			<g>
				<rect x="403.8" y="445.9" class="st7" width="29.9" height="27.6"/>
			</g>
			<rect x="328.7" y="420.6" class="st5" width="27.1" height="2.6"/>
			<rect x="328.7" y="480.2" class="st5" width="107.1" height="2.6"/>
		</g>
		<g>
			<g>
				<g>
					<path class="st8" d="M143.2,483.5h186.1c2.1-0.9,3.5-3,3.5-5.4v-75.3H139.7V478C139.7,480.5,141.1,482.5,143.2,483.5z"/>
				</g>
				<g>
					<rect x="205.6" y="479.6" class="st9" width="45.9" height="21.6"/>
				</g>
				<g>
					<rect x="205.6" y="464.4" class="st10" width="45.9" height="21.6"/>
				</g>
				<g>
					<path class="st3" d="M328.2,477.4c0,3.3-2.7,6-6,6H141c-3.3,0-6-2.7-6-6v-121c0-3.3,2.7-6,6-6h181.2c3.3,0,6,2.7,6,6V477.4z"/>
				</g>
				<g>
					<path class="st1" d="M328.2,469.9c0,3.3-2.7,6-6,6H141c-3.3,0-6-2.7-6-6v-121c0-3.3,2.7-6,6-6h181.2c3.3,0,6,2.7,6,6V469.9z"/>
				</g>
				<g>
					<path class="st2" d="M322.2,472.5H141c-1.5,0-2.6-1.2-2.6-2.6v-121c0-1.5,1.2-2.6,2.6-2.6h181.2c1.5,0,2.6,1.2,2.6,2.6v121
						C324.9,471.3,323.7,472.5,322.2,472.5L322.2,472.5z"/>
				</g>
				<g>
					<polygon class="st3" points="318.3,465.9 145,465.9 145,352.8 318.3,352.8 318.3,465.9 					"/>
				</g>
				<g>
					<polygon class="st11" points="205.6,501.2 175.2,512.2 230.7,512.2 230.7,501.2 					"/>
				</g>
				<g>
					<polygon class="st11" points="250.8,501.2 281.2,512.2 225.7,512.2 225.7,501.2 					"/>
				</g>
				<g>
					<rect x="175.2" y="512.2" class="st3" width="105.4" height="2.2"/>
				</g>
			</g>
			<g>
				<g>
					<rect x="151.4" y="452.7" class="st11" width="159.2" height="1.3"/>
				</g>
				<g>
					<rect x="151.4" y="452.7" class="st1" width="38.8" height="1.3"/>
				</g>
			</g>
			<g>
				<rect x="152.3" y="384.3" class="st5" width="46.9" height="43.2"/>
			</g>
			<g>
				<rect x="208.3" y="384.3" class="st6" width="46.9" height="43.2"/>
			</g>
			<g>
				<rect x="265.4" y="384.3" class="st7" width="46.9" height="43.2"/>
			</g>
			<g>
				<g>
					<path class="st6" d="M149,516.9c0,1.2-1,2.3-2.2,2.3l0,0c-1.2,0-2.2-1-2.2-2.3V465c0-1.2,1-2.3,2.2-2.3l0,0
						c1.2,0,2.2,1,2.2,2.3V516.9z"/>
				</g>
				<g>
					<path class="st6" d="M168.7,469.6h-21.8v4.4h21.8c1.2,0,2.2-1,2.2-2.2C170.9,470.6,169.9,469.6,168.7,469.6z"/>
				</g>
				<g>
					<path class="st6" d="M168.7,483.7h-21.8v4.4h21.8c1.2,0,2.2-1,2.2-2.2C170.9,484.7,169.9,483.7,168.7,483.7z"/>
				</g>
				<g>
					<path class="st6" d="M168.7,497.3h-21.8v4.4h21.8c1.2,0,2.2-1,2.2-2.2C170.9,498.3,169.9,497.3,168.7,497.3z"/>
				</g>
				<g>
					<path class="st6" d="M168.7,509.3h-21.8v4.4h21.8c1.2,0,2.2-1,2.2-2.2C170.9,510.2,169.9,509.3,168.7,509.3z"/>
				</g>
				<g>
					<path class="st6" d="M171.1,516.9c0,1.2-1,2.3-2.2,2.3l0,0c-1.2,0-2.2-1-2.2-2.3V465c0-1.2,1-2.3,2.2-2.3l0,0
						c1.2,0,2.2,1,2.2,2.3V516.9z"/>
				</g>
			</g>
			<g>
				<g>
					<path class="st6" d="M235.6,332.5h15.9c0.1-1.3,0.1-2.7,0.1-4.2l7.9-67c0-7.7-6.2-13.9-13.9-13.9h-3.5
						c-7.7,0-13.9,6.2-13.9,13.9l7.3,67C235.6,329.8,235.6,331.2,235.6,332.5z"/>
				</g>
				<g>
					<path class="st12" d="M245.7,247.4h-1.5v85.1h7.4c0.1-1.3,0.1-2.7,0.1-4.2l7.9-67C259.6,253.7,253.4,247.4,245.7,247.4z"/>
				</g>
				<g>
					<path class="st1" d="M254.8,333c0,1.2-1,2.2-2.2,2.2h-17.6c-1.2,0-2.2-1-2.2-2.2l0,0c0-1.2,1-2.2,2.2-2.2h17.6
						C253.8,330.8,254.8,331.8,254.8,333L254.8,333z"/>
				</g>
				<g>
					<path class="st1" d="M250,333h-12.5c0,0-4.8,4.4-4.8,10.1c0,5.7,11,17.3,11,17.3s10.1-10.7,11-16.4
						C255.6,338.3,250,333,250,333z"/>
				</g>
				<g>
					<g>
						<circle class="st3" cx="244" cy="342.9" r="1.8"/>
					</g>
					<g>
						<g>
							<polyline class="st3" points="244.2,359.9 244.2,343.4 243.6,343.4 243.6,360.3 							"/>
						</g>
					</g>
				</g>
			</g>
			<g>
				<g>
					<path class="st1" d="M240.5,366.7v-6.6h6.6v6v0.7H240.5L240.5,366.7z M246.5,366v-0.7V366L246.5,366z M241.9,365.4h4v-4h-4
						V365.4L241.9,365.4z"/>
				</g>
				<g>
					<path class="st1" d="M214,383.6V377h6.6v6v0.7H214L214,383.6z M219.9,382.9v-0.7V382.9L219.9,382.9z M215.3,382.2h4l0-4h-4
						V382.2L215.3,382.2z"/>
				</g>
				<g>
					<path class="st1" d="M267.7,383.9v-6.6h6.6v6v0.7H267.7L267.7,383.9z M273.6,383.2v-0.7V383.2L273.6,383.2z M269,382.6h4v-4h-4
						V382.6L269,382.6z"/>
				</g>
				<g>
					<g>
						<polygon class="st1" points="213.8,364.1 213.8,362.7 241.2,362.7 241.2,364.1 213.8,364.1 						"/>
					</g>
					<g>
						<path class="st1" d="M208.1,362.7c0-1.8,1.5-3.3,3.3-3.3l0,0c1.8,0,3.3,1.5,3.3,3.3l0,0c0,1.8-1.5,3.3-3.3,3.3l0,0
							C209.6,366,208.1,364.6,208.1,362.7L208.1,362.7z M209.5,362.7c0,1.1,0.9,2,2,2l0,0c1.1,0,2-0.9,2-2l0,0c0-1.1-0.9-2-2-2l0,0
							C210.4,360.8,209.5,361.6,209.5,362.7L209.5,362.7z"/>
					</g>
				</g>
				<g>
					<g>
						<polygon class="st1" points="246.5,364.1 246.5,362.7 273.9,362.7 273.9,364.1 246.5,364.1 						"/>
					</g>
					<g>
						<path class="st1" d="M272.9,362.7c0-1.8,1.5-3.3,3.3-3.3l0,0c1.8,0,3.3,1.5,3.3,3.3l0,0c0,1.8-1.5,3.3-3.3,3.3l0,0
							C274.4,366,272.9,364.6,272.9,362.7L272.9,362.7z M276.3,364.7c1.1,0,2-0.9,2-2l0,0c0-1.1-0.9-2-2-2l0,0c-1.1,0-2,0.9-2,2l0,0
							C274.3,363.8,275.2,364.7,276.3,364.7L276.3,364.7z"/>
					</g>
				</g>
				<g>
					<path class="st1" d="M246.4,364.2l0.1-1.3c9.6,1.1,20.8,5.8,25,14.5l0,0l-1.2,0.6C266.6,370,255.7,365.2,246.4,364.2
						L246.4,364.2z"/>
				</g>
				<g>
					<path class="st1" d="M216.5,377.1c3.5-8.3,15-13.3,24.7-14.3l0,0l0.1,1.3c-9.4,0.9-20.5,5.9-23.6,13.5l0,0L216.5,377.1
						L216.5,377.1z"/>
				</g>
			</g>
		</g>
		<g>
			<g>
				<g>
					<path class="st1" d="M403.9,347.5c0,2.9-2.1,5.3-4.7,5.3h-65c-2.6,0-4.7-2.4-4.7-5.3V236.2c0-2.9,2.1-5.3,4.7-5.3h65
						c2.6,0,4.7,2.4,4.7,5.3V347.5z"/>
				</g>
				<g>
					<polygon class="st3" points="398.4,347.3 335,347.3 335,236.4 398.4,236.4 398.4,347.3 					"/>
				</g>
				<g>
					<rect x="340.5" y="241.3" class="st13" width="28.4" height="7.1"/>
				</g>
				<g>
					<g>
						<g>
							<path class="st14" d="M340.2,292.4v-35.5h52.5v35.2v0.3H340.2L340.2,292.4z M392.4,292.1v-0.3V292.1L392.4,292.1z
								 M340.7,291.8h51.4l0-34.4h-51.4V291.8L340.7,291.8z"/>
						</g>
					</g>
					<g>
						<g>
							<polygon class="st14" points="340.3,291.9 392.2,256.9 392.5,257.4 340.6,292.3 340.3,291.9 							"/>
						</g>
					</g>
					<g>
						<g>
							<polygon class="st14" points="340.3,257.4 340.6,256.9 392.5,291.9 392.2,292.3 340.3,257.4 							"/>
						</g>
					</g>
				</g>
				<g>
					<rect x="339.4" y="298.1" class="st13" width="53" height="7.1"/>
				</g>
				<g>
					<rect x="339.4" y="314.5" class="st15" width="53" height="7.1"/>
				</g>
				<g>
					<rect x="339.4" y="332" class="st16" width="53" height="7.1"/>
				</g>
				<g>
					<rect x="340.5" y="334.2" class="st3" width="19.1" height="1.6"/>
				</g>
				<g>
					<rect x="340.5" y="317.2" class="st3" width="19.1" height="1.6"/>
				</g>
				<g>
					<rect x="340.5" y="301.2" class="st3" width="19.1" height="1.6"/>
				</g>
			</g>
			<g>
				<g>
					<path class="st1" d="M434.6,368.4V367h6.6v1.3H434.6L434.6,368.4z M421.4,368.4V367h6.6v1.3H421.4L421.4,368.4z M408.1,368.4
						V367h6.6v1.3H408.1L408.1,368.4z M394.9,368.4V367h6.6v1.3H394.9L394.9,368.4z M381.7,368.4V367h6.6v1.3H381.7L381.7,368.4z
						 M368.4,368.4V367h6.6v1.3H368.4L368.4,368.4z M355.2,368.4V367h6.6v1.3H355.2L355.2,368.4z M342,368.4V367h6.6v1.3H342
						L342,368.4z M328.8,368.4V367h6.6v1.3H328.8L328.8,368.4z M315.5,368.4V367h6.6v1.3H315.5L315.5,368.4z M302.3,368.4V367h6.6
						v1.3H302.3L302.3,368.4z M291.5,368.4l0-3.8h1.3v2.4h2.9v1.3H291.5L291.5,368.4z M440.5,362.5v-6.6h1.3v6.6H440.5L440.5,362.5z
						 M291.5,358v-6.6h1.3v6.6H291.5L291.5,358z M440.5,349.3v-6.6h1.3v6.6H440.5L440.5,349.3z M291.5,344.8v-6.6h1.3v6.6H291.5
						L291.5,344.8z M440.5,336.1v-6.6h1.3v6.6H440.5L440.5,336.1z M291.5,331.5v-6.6h1.3v6.6H291.5L291.5,331.5z M440.5,322.9v-6.6
						h1.3v6.6H440.5L440.5,322.9z M291.5,318.3v-6.6h1.3v6.6H291.5L291.5,318.3z M440.5,309.6V303h1.3v6.6H440.5L440.5,309.6z
						 M291.5,305.1v-6.6h1.3v6.6H291.5L291.5,305.1z M440.5,296.4v-6.6h1.3v6.6H440.5L440.5,296.4z M291.5,291.9v-6.6h1.3v6.6H291.5
						L291.5,291.9z M440.5,283.2v-6.6h1.3v6.6H440.5L440.5,283.2z M291.5,278.6V272h1.3v6.6H291.5L291.5,278.6z M440.5,270v-6.6h1.3
						v6.6H440.5L440.5,270z M291.5,265.4v-6.6h1.3v6.6H291.5L291.5,265.4z M440.5,256.7v-6.6h1.3v6.6H440.5L440.5,256.7z
						 M291.5,252.2v-6.6h1.3v6.6H291.5L291.5,252.2z M440.5,243.5v-6.6h1.3v6.6H440.5L440.5,243.5z M291.5,239v-6.6h1.3v6.6H291.5
						L291.5,239z M440.5,230.3v-6.6h1.3v6.6H440.5L440.5,230.3z M291.5,225.7v-6.6h1.3v6.6H291.5L291.5,225.7z M440.5,217.1v-3.2
						h-2.1v-1.3h3.4v4.5H440.5L440.5,217.1z M425.2,213.9v-1.3h6.6v1.3H425.2L425.2,213.9z M412,213.9v-1.3h6.6v1.3H412L412,213.9z
						 M398.7,213.9v-1.3h6.6v1.3H398.7L398.7,213.9z M385.5,213.9v-1.3h6.6v1.3H385.5L385.5,213.9z M372.3,213.9v-1.3h6.6v1.3H372.3
						L372.3,213.9z M359,213.9v-1.3h6.6v1.3H359L359,213.9z M345.8,213.9v-1.3h6.6v1.3H345.8L345.8,213.9z M332.6,213.9v-1.3h6.6
						v1.3H332.6L332.6,213.9z M319.4,213.9v-1.3h6.6v1.3H319.4L319.4,213.9z M306.1,213.9v-1.3h6.6v1.3H306.1L306.1,213.9z
						 M292.9,213.9v-1.3h6.6v1.3H292.9L292.9,213.9z"/>
				</g>
				<g>
					<rect x="286" y="208.5" class="st17" width="14.6" height="14.6"/>
					<path class="st1" d="M285.7,223.4v-15.2h15.2v14.9v0.3H285.7L285.7,223.4z M300.6,223.1v-0.3V223.1L300.6,223.1z M286.3,222.7
						h13.9v-13.9h-13.9V222.7L286.3,222.7z"/>
				</g>
				<g>
					<rect x="286" y="357.5" class="st17" width="14.6" height="14.6"/>
					<path class="st1" d="M285.7,372.4v-15.2h15.2v14.9v0.3H285.7L285.7,372.4z M300.6,372.1v-0.3V372.1L300.6,372.1z M286.3,371.7
						h13.9v-13.9h-13.9V371.7L286.3,371.7z"/>
				</g>
				<g>
					<rect x="433.4" y="210.7" class="st17" width="14.6" height="14.6"/>
					<path class="st1" d="M433,225.6v-15.2h15.2v14.9v0.3H433L433,225.6z M447.9,225.3v-0.3V225.3L447.9,225.3z M433.7,224.9h13.9
						V211h-13.9V224.9L433.7,224.9z"/>
				</g>
				<g>
					<polygon class="st1" points="443.9,361.6 435.4,362.6 436.5,371.1 438.4,368.7 451.7,379.1 455.1,374.8 441.7,364.3 					"/>
				</g>
			</g>
		</g>
		<g>
			<polygon class="st18" points="463.4,401.7 470.7,384.3 477.5,402.6 470.5,405.9 			"/>
			<polygon class="st1" points="472.2,388.4 470.7,384.3 468.9,388.4 			"/>
			<polygon class="st6" points="470.5,476.1 470.5,404.1 463.4,401.7 463.4,476.1 			"/>
			<polygon class="st12" points="477.5,476.1 477.5,402.6 470.5,404.1 470.5,476.1 			"/>
			<rect x="463.4" y="476.1" class="st3" width="14.1" height="7.2"/>
			<rect x="463.4" y="483.2" class="st7" width="14.2" height="9.6"/>
		</g>
		<g>
			<rect x="134.1" y="524.2" class="st6" width="343.9" height="32.6"/>
			<rect x="134.1" y="551.6" class="st12" width="343.9" height="5.3"/>
			<circle class="st3" cx="147.7" cy="537" r="6.2"/>
			<g>
				<rect x="145.2" y="551.6" class="st3" width="1" height="5.3"/>
				<rect x="160.5" y="551.6" class="st3" width="1" height="5.3"/>
				<rect x="175.9" y="551.6" class="st3" width="1" height="5.3"/>
				<rect x="191.2" y="551.6" class="st3" width="1" height="5.3"/>
				<rect x="206.6" y="551.6" class="st3" width="1" height="5.3"/>
				<rect x="221.9" y="551.6" class="st3" width="1" height="5.3"/>
				<rect x="237.3" y="551.6" class="st3" width="1" height="5.3"/>
				<rect x="252.6" y="551.6" class="st3" width="1" height="5.3"/>
				<rect x="267.9" y="551.6" class="st3" width="1" height="5.3"/>
				<rect x="283.3" y="551.6" class="st3" width="1" height="5.3"/>
				<rect x="298.6" y="551.6" class="st3" width="1" height="5.3"/>
				<rect x="314" y="551.6" class="st3" width="1" height="5.3"/>
				<rect x="329.3" y="551.6" class="st3" width="1" height="5.3"/>
				<rect x="344.7" y="551.6" class="st3" width="1" height="5.3"/>
				<rect x="360" y="551.6" class="st3" width="1" height="5.3"/>
				<rect x="375.4" y="551.6" class="st3" width="1" height="5.3"/>
				<rect x="390.7" y="551.6" class="st3" width="1" height="5.3"/>
				<rect x="406" y="551.6" class="st3" width="1" height="5.3"/>
				<rect x="421.4" y="551.6" class="st3" width="1" height="5.3"/>
				<rect x="436.7" y="551.6" class="st3" width="1" height="5.3"/>
				<rect x="452.1" y="551.6" class="st3" width="1" height="5.3"/>
				<rect x="467.4" y="551.6" class="st3" width="1" height="5.3"/>
			</g>
		</g>
	</g>
	<path class="st12" d="M537.4,146.9l-8.7-6.3c-1.5-1.1-4.2-1.9-6.1-1.9h-27.3c-0.4,0-0.8,0.1-1.2,0.2l-5.2-5.2h-11.4v6.7h8.6
		l5.9,5.9v51.5c0,1.8,1.5,3.3,3.3,3.3h41.4c1.8,0,3.3-1.5,3.3-3.3v-45.6C540.1,150.3,538.9,147.9,537.4,146.9z M501.4,164
		c0.3-0.3,0.7-0.3,0.9,0l4.6,4.6c0.3,0.3,0.3,0.7,0,0.9c-0.1,0.1-0.3,0.2-0.5,0.2s-0.3-0.1-0.5-0.2l-4.6-4.6
		C501.1,164.6,501.1,164.2,501.4,164z M506.9,188.8l-4.6,4.6c-0.1,0.1-0.3,0.2-0.5,0.2c-0.2,0-0.3-0.1-0.5-0.2
		c-0.3-0.3-0.3-0.7,0-0.9l4.6-4.6c0.3-0.3,0.7-0.3,0.9,0C507.1,188.1,507.1,188.5,506.9,188.8z M523.4,188h-14.6c-1.1,0-2-0.9-2-2
		v-14.6c0-1.1,0.9-2,2-2h14.6c1.1,0,2,0.9,2,2v14.6C525.4,187.1,524.5,188,523.4,188z M530.7,193.3c-0.1,0.1-0.3,0.2-0.5,0.2
		c-0.2,0-0.3-0.1-0.5-0.2l-4.6-4.6c-0.3-0.3-0.3-0.7,0-0.9c0.3-0.3,0.7-0.3,0.9,0l4.6,4.6C531,192.6,531,193.1,530.7,193.3z
		 M530.7,164.9l-4.6,4.6c-0.1,0.1-0.3,0.2-0.5,0.2c-0.2,0-0.3-0.1-0.5-0.2c-0.3-0.3-0.3-0.7,0-0.9l4.6-4.6c0.3-0.3,0.7-0.3,0.9,0
		C531,164.2,531,164.6,530.7,164.9z M532.6,152h-21c-0.7,0-1.3-0.6-1.3-1.3v-5.2c0-0.7,0.6-1.3,1.3-1.3h8.9c0.7,0,1.8,0.3,2.5,0.7
		l9.8,6.4C533.4,151.7,533.4,152,532.6,152z M523.4,170.7h-14.6c-0.4,0-0.7,0.3-0.7,0.7v14.6c0,0.4,0.3,0.7,0.7,0.7h14.6
		c0.4,0,0.7-0.3,0.7-0.7v-14.6C524,171,523.7,170.7,523.4,170.7z"/>
	<path class="st1" d="M391.2,117.8v-5.2h-8.1v5.2h-9.2c-0.8-1.5-1.7-2.8-2.8-4h-1.8v-2.3h-2.9v-2.3h-6.6v-1.7h3.3v-5.2h4.4v-4.4h-3
		l9.4-9.4h3.3c1.1,0,2.1-0.9,2.1-2.1V85c0-1.1-0.9-2.1-2.1-2.1h-42.7c-1.1,0-2.1,0.9-2.1,2.1v1.4c0,1.1,0.9,2.1,2.1,2.1h3.3l9.4,9.4
		h-3v4.4h4.4v5.2h3.3v1.7h-6.6v2.3h-2.9v2.3h-1.8c-1.1,1.2-2,2.6-2.8,4h-9.2v-5.2h-8.1v5.2h-10.4v18.7h10.4v4.6h8.1v-4.6h9.1
		c3.4,6.7,10.3,11.2,18.2,11.2c8,0,14.9-4.6,18.2-11.2h9.1v4.6h8.1v-4.6h10.4v-18.7H391.2z M355.8,96.3c-1.2,0-2.3,0.2-3.3,0.5
		l-8.4-8.4h23.5l-8.4,8.4C358.1,96.5,357,96.3,355.8,96.3z"/>
	<path class="st7" d="M153,113.6c0,0-10.5,8.1-10.5,17.9c0,5.8,4.7,10,10.5,10c5.8,0,10.5-4.2,10.5-10
		C163.5,121.7,153,113.6,153,113.6z M251,109.9v-1.1c0-2.8-2.3-5-5-5h-1.1v-1.1h-1.7v1.1h-9.8V81.6c0-2.8-2.3-5-5-5H197
		c-2.8,0-5,2.3-5,5v16.6h-55.8c-2.8,0-5,2.3-5,5v22.2h-9.8v-1.1h-1.7v1.1h-1.1c-2.8,0-5,2.3-5,5v1.1h-1.3v1.7h1.3V154h4.3v-20.9h0.9
		v-1.7h-0.9v-1.1c0-0.4,0.3-0.7,0.7-0.7h1.1v1.1h1.7v-1.1h9.8V154h102.3v-46h9.8v1.1h1.7v-1.1h1.1c0.4,0,0.7,0.3,0.7,0.7v1.1h-0.9
		v1.7h0.9V154h4.3v-42.5h1.3v-1.7H251z M180.6,149.7h-8.3v-3.4h8.3V149.7z M180.6,143.8h-8.3v-4.4h8.3V143.8z M180.6,136.9h-8.3
		v-4.4h8.3V136.9z M180.6,130h-8.3v-4.4h8.3V130z M180.6,123.1h-8.3v-4.4h8.3V123.1z M180.6,116.2h-8.3v-4.4h8.3V116.2z
		 M200.6,149.7h-17.2v-44.7h-2.8v4.2h-8.3v-4.2h-2.8v44.7h-34.1v-46.6c0-0.4,0.3-0.7,0.7-0.7h63.8c0.4,0,0.7,0.3,0.7,0.7V149.7z
		 M229.1,149.7h-24.2v-46.6c0-2.8-2.3-5-5-5h-3.6V81.6c0-0.4,0.3-0.7,0.7-0.7h31.4c0.4,0,0.7,0.3,0.7,0.7V149.7z"/>
	<path class="st19" d="M582.1,366v-1.9h-3.8V361h3.8v-4.4h-5.7v-22.4l2.3-1.9l-16.9-30.9l-12.9-7.9l-7.3,5.8l5.8,13.3l-39.8,32.2
		c-0.5-0.1-0.9-0.2-1.4-0.2c-3.6,0-6.5,2.9-6.5,6.5c0,1.5,0.5,2.9,1.4,4.1v5.9h-2v2.4h-4.1v2.5h-4.6v4.5h96.2V366H582.1z
		 M534.3,333.2l3-2.4l2.8,8.8l-6.3-2.5L534.3,333.2z M533.3,341l8.3,3.3l0.1,0.2l-9.6,6.5L533.3,341z M506.2,349.1
		c1.1,0,2.1,0.9,2.1,2.1c0,1.1-0.9,2.1-2.1,2.1s-2.1-0.9-2.1-2.1C504.1,350.1,505,349.1,506.2,349.1z M508.7,361.1h-5.1v-3.9
		c0.8,0.3,1.6,0.5,2.5,0.5c0.9,0,1.8-0.2,2.5-0.5V361.1z M523.1,366h-10.5v-4.9h-1.4v-5.9c0.9-1.1,1.4-2.5,1.4-4.1
		c0-0.2,0-0.3,0-0.5l14-11.3L523.1,366z M530.1,366l0.9-7.1l12,7.1H530.1z M532.4,355.3l10.5-7l5.2,16.3L532.4,355.3z M574.2,356.6
		h-5.7v4.4h3.8v3.1h-3.8v1.9h-12.7l-12.7-39.9l10.2-8.2l20.9,18V356.6z"/>
	<g>
		<path class="st3" d="M152,300c-10.4-1.4-14.3-9.5-14.3-9.5s-5.7,7.2-15.2,7.2c-10.3,0-14.9-9.5-14.9-9.5v0c0,0-4.5,9.5-14.9,9.5
			c-9.5,0-15.2-7.2-15.2-7.2s-3.9,8.1-14.3,9.5c-8.8,1.2-14.6-2.9-14.6-2.9s4.5,9.3,14.6,9.1c10.4-0.1,14.3-4.9,14.3-4.9
			s4.9,6.9,14.4,7.6c10.2,0.7,15.7-5.6,15.7-5.6v0c0,0,5.5,6.3,15.7,5.6c9.4-0.6,14.4-7.6,14.4-7.6s4,4.7,14.3,4.9
			c10.1,0.1,14.6-9.1,14.6-9.1S160.8,301.2,152,300z"/>
		<path class="st20" d="M164.2,209.1c-0.5-0.4-1.2-0.6-1.8-0.4c-0.8,0.2-18.8,4.7-29.9,18.9c-5.8,7.4-8.7,16.2-10,22.9l-6.2-34.6
			h-12.4l-2.7,15.3l-26.9-19.3l-6.2,5.6l3.6,4.1v21.9h-7.7v5.3h2.6v4.8h-2.6v4.4h-4.7v17.7h23.7v15c2.1,1.6,5.5,3.5,9.8,3.5
			c0.6,0,1.3-0.1,1.8-0.1v-18.3h27.8v18.5c0,0,0.1,0,0.1,0c5.7,0,9.8-3.3,11.5-4.9v-13.5h9.8v-17.7h-6.6c5.5-3,11.6-7.3,16.4-13.4
			c11.1-14.1,11.3-32.8,11.3-33.6C165,210.2,164.7,209.5,164.2,209.1z M80.2,253.5h-8.5v-4.8h8.5V253.5z M96.4,257.9H88v-4.4h-2.6
			v-4.8H88v-5.3H73.8v-19.3l23.7,27.6L96.4,257.9z M153.5,216.6l3.4,5.8l-12.3-0.5C147.7,219.7,150.7,217.9,153.5,216.6z
			 M135.8,230.2c0.9-1.1,1.8-2.2,2.8-3.2l8.9,13.2l-16.2-2.8C132.5,235,134,232.5,135.8,230.2z M126.8,257.9h-1.2
			c0.3-3,1-7.7,2.7-12.9l4.3,10.5C130.4,256.5,128.4,257.3,126.8,257.9z M136.3,253.5l-4.7-11.7l16.4,2.8
			C144.4,248.4,140.2,251.3,136.3,253.5z M152.1,239.4l-9-13.4l15,0.6C156.7,230.8,154.8,235.3,152.1,239.4z M159.8,218.9l-2.4-4.1
			c1.2-0.5,2.3-0.9,3.1-1.2C160.4,215.1,160.2,216.9,159.8,218.9z"/>
	</g>
</g>
</svg>
