<?xml version="1.0" encoding="utf-8"?>
<!-- Generator: Adobe Illustrator 19.2.1, SVG Export Plug-In . SVG Version: 6.00 Build 0)  -->
<svg version="1.1" id="Layer_1" xmlns="http://www.w3.org/2000/svg" xmlns:xlink="http://www.w3.org/1999/xlink" x="0px" y="0px"
	 viewBox="0 0 612 612" style="enable-background:new 0 0 612 612;" xml:space="preserve">
<style type="text/css">
	.st0{fill:#8BBAA4;}
	.st1{fill:#FBC6B0;}
	.st2{fill:#D54127;}
	.st3{fill:#E34527;}
	.st4{fill-rule:evenodd;clip-rule:evenodd;fill:#FFFFFF;}
	.st5{fill:#FFFFFF;}
	.st6{fill:#049658;}
	.st7{clip-path:url(#SVGID_2_);fill:#FFFFFF;}
	.st8{clip-path:url(#SVGID_4_);fill:#FFFFFF;}
	.st9{clip-path:url(#SVGID_6_);fill:#EEEEEE;}
	.st10{clip-path:url(#SVGID_8_);fill:#EEEEEE;}
	.st11{fill:#424143;}
	.st12{opacity:0.1;fill:#424143;}
</style>
<g>
	<circle class="st0" cx="306" cy="306" r="306"/>
	<g>
		<path class="st1" d="M358.6,367.7c0,0-5.7-3-10,12.7c-4.3,15.7-1.6,12.7-8,24.7c-6.4,12-7.1,25.4-6.6,31.6
			c0.5,6.2-1.2,6.6,6.1,18.3c7.4,11.8,2.1,26,2.1,26l35.1,22c-0.3-1.2-13.1-53.9-7.5-67.8c6-14.8,9.1-24.5,9.4-29.5
			c0.3-5-2.7-26.5-4.4-30.7c-1.7-4.2-11,1-11,1S365.2,368.8,358.6,367.7z"/>
		<path class="st1" d="M256.7,369.4c0,0,5.7-3,9.9,12.8c4.2,15.7,1.5,12.7,7.8,24.8c6.3,12.1,6.9,25.5,6.4,31.7
			c-0.6,6.2,1.2,6.6-6.3,18.3c-7.5,11.7-2.2,26-2.2,26l-35.2,21.8c0.3-1.2,13.5-53.8,7.9-67.8c-5.9-14.8-11.3-23.8-11.5-28.8
			c-0.3-5,3.7-25,5.4-29.1c1.7-4.2,12.6-1.3,12.6-1.3S250.2,370.5,256.7,369.4z"/>
		<g>
			<path class="st2" d="M304.2,267.1c-12.6-14.3-30.9-23.3-51.4-23.3c-37.9,0-68.6,30.7-68.6,68.6c0,20.9,9.4,39.7,24.2,52.3h0
				l97.2,92.6l-1-190.5C304.5,266.8,304.4,266.9,304.2,267.1z"/>
			<path class="st3" d="M424.2,312.4c0-37.9-30.7-68.6-68.6-68.6c-20.3,0-38.5,8.9-51,22.9l1,190.5l0,0l94.4-92.6h0
				C414.8,352,424.2,333.3,424.2,312.4z"/>
		</g>
		<g>
			<path class="st4" d="M371.7,276.7l3.1-1.9c-1.5-2.6-3.6-4.8-6-6.6l-2.2,2.9c-2-1.5-4.3-2.6-6.7-3.2l0.9-3.5
				c-2.8-0.7-5.8-0.9-8.9-0.4l0.5,3.6c-2.1,0.3-4.1,1-5.8,1.9c-0.4,0.2-0.8,0.4-1.2,0.7l-1.9-3.1c-2.6,1.5-4.8,3.6-6.6,6l2.9,2.2
				c-1.5,2-2.6,4.3-3.2,6.7l-3.5-0.9c-0.7,2.8-0.9,5.8-0.4,8.9l3.6-0.5c0.4,2.6,1.3,4.9,2.5,7l-3.1,1.9c1.5,2.6,3.6,4.8,6,6.6
				l2.2-2.9c2,1.5,4.3,2.6,6.7,3.2l-0.9,3.5c2.8,0.7,5.8,0.9,8.9,0.4l-0.5-3.6c2.1-0.3,4.1-1,5.8-1.9c0.4-0.2,0.8-0.4,1.2-0.7
				l1.9,3.1c2.6-1.5,4.8-3.6,6.6-6l-2.9-2.2c1.5-2,2.6-4.3,3.2-6.7l3.5,0.9c0.7-2.8,0.9-5.8,0.4-8.9l-3.6,0.5
				C373.8,281.2,372.9,278.8,371.7,276.7z M364.4,285.2c0.6,4-1.5,7.9-5,9.6c-0.9,0.4-1.8,0.7-2.8,0.9c-5.1,0.8-9.8-2.7-10.5-7.8
				c-0.6-4,1.5-7.9,5-9.6c0.9-0.4,1.8-0.7,2.8-0.9C359,276.6,363.7,280.1,364.4,285.2z"/>
			<path class="st4" d="M410.8,302.3l3.1-1.9c-1.5-2.6-3.6-4.8-6-6.6l-2.2,2.9c-2-1.5-4.3-2.6-6.7-3.2l0.9-3.5
				c-2.8-0.7-5.8-0.9-8.9-0.4l0.5,3.6c-2.1,0.3-4.1,1-5.8,1.9c-0.4,0.2-0.8,0.4-1.2,0.7l-1.9-3.1c-2.6,1.6-4.8,3.6-6.6,6l2.9,2.2
				c-1.5,2-2.6,4.3-3.2,6.7l-3.5-0.9c-0.7,2.8-0.9,5.8-0.4,8.9l3.6-0.5c0.4,2.6,1.3,4.9,2.5,7l-3.1,1.9c1.5,2.6,3.6,4.8,6,6.6
				l2.2-2.9c2,1.5,4.3,2.6,6.7,3.2l-0.9,3.5c2.8,0.7,5.8,0.9,8.9,0.4l-0.5-3.6c2.1-0.3,4.1-1,5.8-1.9c0.4-0.2,0.8-0.4,1.2-0.7
				l1.9,3.1c2.6-1.5,4.8-3.6,6.6-6l-2.9-2.2c1.5-2,2.6-4.3,3.2-6.7l3.5,0.9c0.7-2.8,0.9-5.8,0.4-8.9l-3.6,0.5
				C412.9,306.8,412,304.4,410.8,302.3z M403.5,310.8c0.6,4-1.5,7.9-5,9.6c-0.9,0.4-1.8,0.7-2.8,0.9c-5.1,0.8-9.8-2.7-10.5-7.8
				c-0.6-4,1.5-7.9,5-9.6c0.9-0.4,1.8-0.7,2.8-0.9C398.1,302.3,402.8,305.8,403.5,310.8z"/>
			<path class="st4" d="M371.2,320.7l1.9-1.1c-0.9-1.6-2.2-2.9-3.6-4l-1.3,1.8c-1.2-0.9-2.6-1.6-4.1-1.9l0.5-2.1
				c-1.7-0.4-3.5-0.5-5.4-0.3l0.3,2.2c-1.3,0.2-2.5,0.6-3.6,1.1c-0.2,0.1-0.5,0.3-0.7,0.4l-1.1-1.9c-1.6,0.9-2.9,2.2-4,3.6l1.8,1.3
				c-0.9,1.2-1.6,2.6-1.9,4.1l-2.1-0.5c-0.4,1.7-0.5,3.5-0.3,5.4l2.2-0.3c0.2,1.6,0.8,3,1.5,4.3l-1.9,1.1c0.9,1.6,2.2,2.9,3.6,4
				l1.3-1.8c1.2,0.9,2.6,1.6,4.1,1.9l-0.5,2.1c1.7,0.4,3.5,0.5,5.4,0.3l-0.3-2.2c1.3-0.2,2.5-0.6,3.6-1.1c0.2-0.1,0.5-0.3,0.7-0.4
				l1.1,1.9c1.6-0.9,2.9-2.2,4-3.6l-1.8-1.3c0.9-1.2,1.6-2.6,1.9-4.1l2.1,0.5c0.4-1.7,0.5-3.5,0.3-5.4l-2.2,0.3
				C372.5,323.5,372,322,371.2,320.7z M366.8,325.9c0.4,2.5-0.9,4.8-3,5.9c-0.5,0.3-1.1,0.5-1.7,0.6c-3.1,0.5-6-1.7-6.4-4.8
				c-0.4-2.5,0.9-4.8,3-5.9c0.5-0.3,1.1-0.5,1.7-0.6C363.4,320.7,366.3,322.8,366.8,325.9z"/>
		</g>
		<g>
			<g>
				<path class="st3" d="M189.8,133.6c5.2,0,9.5,4.2,9.5,9.5c0,5.2-4.2,9.5-9.5,9.5l-14.3,0l0-18.9H189.8z"/>
				<path class="st5" d="M162,133.6l13.5,0l0,18.9l-13.5,0c-5.2,0-9.5-4.2-9.5-9.5C152.5,137.8,156.7,133.6,162,133.6z"/>
			</g>
			<g>
				<path class="st6" d="M195.8,124c-5.2,0-9.5-4.2-9.5-9.5c0-5.2,4.2-9.5,9.5-9.5l14.3,0V124H195.8z"/>
				<path class="st5" d="M223.6,124h-13.5v-18.9l13.5,0c5.2,0,9.5,4.2,9.5,9.5C233,119.8,228.8,124,223.6,124z"/>
			</g>
		</g>
		<g>
			<path class="st3" d="M384,136c0,12.3-10,22.3-22.3,22.3c-12.3,0-22.3-10-22.3-22.3c0-12.3,20.6-29,22.3-46.4
				C372.5,99.5,384,123.7,384,136z"/>
		</g>
		<g>
			<g>
				<g>
					
						<ellipse transform="matrix(0.5061 -0.8625 0.8625 0.5061 -132.2207 205.0844)" class="st5" cx="113" cy="218" rx="14.9" ry="14.9"/>
					<g>
						<defs>
							
								<ellipse id="SVGID_1_" transform="matrix(0.5061 -0.8625 0.8625 0.5061 -132.2207 205.0844)" cx="113" cy="218" rx="14.9" ry="14.9"/>
						</defs>
						<use xlink:href="#SVGID_1_"  style="overflow:visible;fill:#FFFFFF;"/>
						<clipPath id="SVGID_2_">
							<use xlink:href="#SVGID_1_"  style="overflow:visible;"/>
						</clipPath>
						
							<rect x="94.1" y="214.2" transform="matrix(0.5061 -0.8625 0.8625 0.5061 -131.6858 205.0225)" class="st7" width="38" height="6.6"/>
					</g>
				</g>
				<g>
					
						<ellipse transform="matrix(0.9563 -0.2925 0.2925 0.9563 -56.9228 55.3229)" class="st5" cx="156.5" cy="218" rx="14.9" ry="14.9"/>
					<g>
						<defs>
							
								<ellipse id="SVGID_3_" transform="matrix(0.9563 -0.2925 0.2925 0.9563 -56.9228 55.3229)" cx="156.5" cy="218" rx="14.9" ry="14.9"/>
						</defs>
						<use xlink:href="#SVGID_3_"  style="overflow:visible;fill:#FFFFFF;"/>
						<clipPath id="SVGID_4_">
							<use xlink:href="#SVGID_3_"  style="overflow:visible;"/>
						</clipPath>
						
							<rect x="153" y="198.5" transform="matrix(0.9563 -0.2925 0.2925 0.9563 -56.7878 55.2318)" class="st8" width="6.6" height="38"/>
					</g>
				</g>
			</g>
			<g>
				<g>
					
						<ellipse transform="matrix(0.5061 -0.8625 0.8625 0.5061 -132.2207 205.0844)" class="st5" cx="113" cy="218" rx="14.9" ry="14.9"/>
					<g>
						<defs>
							
								<ellipse id="SVGID_5_" transform="matrix(0.5061 -0.8625 0.8625 0.5061 -132.2207 205.0844)" cx="113" cy="218" rx="14.9" ry="14.9"/>
						</defs>
						<clipPath id="SVGID_6_">
							<use xlink:href="#SVGID_5_"  style="overflow:visible;"/>
						</clipPath>
						
							<rect x="94.1" y="214.2" transform="matrix(0.5061 -0.8625 0.8625 0.5061 -131.6858 205.0225)" class="st9" width="38" height="6.6"/>
					</g>
				</g>
				<g>
					
						<ellipse transform="matrix(0.9563 -0.2925 0.2925 0.9563 -56.9228 55.3229)" class="st5" cx="156.5" cy="218" rx="14.9" ry="14.9"/>
					<g>
						<defs>
							
								<ellipse id="SVGID_7_" transform="matrix(0.9563 -0.2925 0.2925 0.9563 -56.9228 55.3229)" cx="156.5" cy="218" rx="14.9" ry="14.9"/>
						</defs>
						<clipPath id="SVGID_8_">
							<use xlink:href="#SVGID_7_"  style="overflow:visible;"/>
						</clipPath>
						
							<rect x="153" y="198.5" transform="matrix(0.9563 -0.2925 0.2925 0.9563 -56.7878 55.2318)" class="st10" width="6.6" height="38"/>
					</g>
				</g>
			</g>
		</g>
		<g>
			<path class="st6" d="M182.7,493.8c-9.6,0-22.7,0-33.2,0s-9.5-8.1-9.5-8.1v-43.2c0-2,1.7-3.7,3.7-3.7h43.9c2,0,3.7,1.7,3.7,3.7
				v42.7C191.3,485.2,192.4,493.8,182.7,493.8z"/>
			<rect x="134.7" y="432.7" class="st3" width="63.1" height="10.7"/>
			<rect x="160.9" y="455" class="st5" width="30.4" height="23.9"/>
			<g>
				<rect x="167.6" y="470.2" class="st11" width="23.7" height="2.8"/>
				<rect x="167.6" y="460.8" class="st11" width="23.7" height="2.8"/>
			</g>
		</g>
		<g>
			<rect x="488.2" y="397.3" class="st11" width="16.2" height="10.1"/>
			<rect x="491.7" y="405.8" class="st11" width="9.3" height="5.8"/>
			<rect x="481.5" y="288.5" class="st11" width="29.7" height="4.2"/>
			<rect x="486.7" y="290.6" class="st11" width="19.2" height="19.4"/>
			<polygon class="st5" points="497.6,442.6 496.3,446.5 495,442.6 495,411.6 497.6,411.6 			"/>
			<rect x="482" y="311.6" class="st5" width="28.7" height="88.9"/>
			<rect x="485.2" y="357" class="st6" width="22.2" height="39.1"/>
			<rect x="477.2" y="309.4" class="st11" width="38.3" height="6.1"/>
			<rect x="493.9" y="314.2" class="st11" width="5" height="39.6"/>
			<rect x="485.2" y="353.8" class="st11" width="22.2" height="3.2"/>
		</g>
		<g>
			<circle class="st5" cx="449.7" cy="459.4" r="21.9"/>
			<path class="st5" d="M439.1,357v93.8c0,5.8,4.7,10.6,10.6,10.6c5.8,0,10.6-4.7,10.6-10.6V357H439.1z"/>
			<circle class="st3" cx="449.7" cy="459.4" r="16.4"/>
			<path class="st3" d="M443.9,386.9v57.3c0,3.6,2.5,6.5,5.7,6.5c3.1,0,5.7-2.9,5.7-6.5v-57.3H443.9z"/>
		</g>
		<g>
			<path class="st5" d="M359.5,219.6l44.4-0.1c5.5,0,10.1-3.8,11.5-8.9l8.7-0.4c1.4-0.1,2.5-1.3,2.5-2.7c0-0.7-0.3-1.3-0.8-1.7
				c-0.5-0.5-1.2-0.8-2-0.8l-8.2,0.4c-0.4-2.4-1.6-4.6-3.3-6.3c-2.2-2.2-5.1-3.5-8.4-3.5l-41.6,0.1L359.5,219.6z"/>
			<path class="st11" d="M364.7,187.7l-6.6-0.4l-0.4,8.2l-22.7-0.5c-6.6,0-11.9,5.4-11.9,11.9c0,6.6,5.3,11.9,11.9,11.9l21.3,0.5
				l0,7.3l6.9-0.3L364.7,187.7z"/>
		</g>
		<g>
			<path class="st3" d="M265.5,225.3c-5.9,0-11.3-4.4-15.3-12.3c-3.9-7.7-6-17.9-6-28.7c0-10.8,2.1-21,6-28.7
				c4-8,9.4-12.3,15.3-12.3c5.9,0,11.3,4.4,15.3,12.3c3.9,7.7,6,17.9,6,28.7c0,10.8-2.1,21-6,28.7
				C276.8,220.9,271.4,225.3,265.5,225.3z M265.5,145.8c-4.9,0-9.5,3.9-13,11c-3.7,7.3-5.7,17.1-5.7,27.5c0,10.4,2,20.2,5.7,27.5
				c3.6,7.1,8.2,11,13,11c4.9,0,9.5-3.9,13-11c3.7-7.3,5.7-17.1,5.7-27.5c0-10.4-2-20.2-5.7-27.5C275,149.7,270.4,145.8,265.5,145.8
				z"/>
			<path class="st5" d="M284.3,217.5c-10.1,0-23.1-6.8-34.1-17.8c-16.4-16.4-22.6-36.1-13.9-44.7c2.5-2.5,6.2-3.9,10.6-3.9
				c10.1,0,23.1,6.8,34.1,17.8c16.4,16.4,22.6,36.1,13.9,44.7C292.3,216.1,288.7,217.5,284.3,217.5z M246.8,154.5
				c-3.5,0-6.3,1-8.2,2.9c-7,7-0.7,25.3,13.9,39.9c10.2,10.2,22.7,16.8,31.7,16.8c3.5,0,6.3-1,8.2-2.9c7-7,0.7-25.3-13.9-39.9
				C268.3,161.1,255.9,154.5,246.8,154.5z"/>
			<path class="st5" d="M246.8,217.5c-4.4,0-8-1.3-10.6-3.9c-8.6-8.6-2.5-28.2,13.9-44.7c11-11,24.1-17.8,34.1-17.8
				c4.4,0,8,1.3,10.6,3.9c4.3,4.3,5,11.4,2.2,20c-2.7,8.2-8.4,17-16.1,24.7C269.9,210.6,256.9,217.5,246.8,217.5z M284.3,154.5
				c-9.1,0-21.5,6.6-31.7,16.8c-14.6,14.6-21,32.9-13.9,39.9c1.9,1.9,4.7,2.9,8.2,2.9c9.1,0,21.5-6.6,31.7-16.8
				c7.3-7.3,12.8-15.6,15.3-23.4c2.4-7.4,1.9-13.2-1.4-16.5C290.6,155.4,287.8,154.5,284.3,154.5z"/>
			<path class="st3" d="M265.5,205.6c-10.8,0-21-2.1-28.7-6c-8-4-12.3-9.4-12.3-15.3s4.4-11.3,12.3-15.3c7.7-3.9,17.9-6,28.7-6
				c10.8,0,21,2.1,28.7,6c8,4,12.3,9.4,12.3,15.3s-4.4,11.3-12.3,15.3C286.6,203.5,276.4,205.6,265.5,205.6z M265.5,165.5
				c-10.4,0-20.2,2-27.5,5.7c-7.1,3.6-11,8.2-11,13c0,4.9,3.9,9.5,11,13c7.3,3.7,17.1,5.7,27.5,5.7c10.4,0,20.2-2,27.5-5.7
				c7.1-3.6,11-8.2,11-13c0-4.9-3.9-9.5-11-13C285.8,167.5,276,165.5,265.5,165.5z"/>
			<circle class="st6" cx="266.3" cy="183.8" r="6.8"/>
			<circle class="st3" cx="253" cy="214.6" r="5.6"/>
			<circle class="st11" cx="285.6" cy="182.9" r="4.4"/>
			<circle class="st11" cx="257.4" cy="164.2" r="4.4"/>
			<circle class="st3" cx="236.6" cy="157" r="5.6"/>
		</g>
		<path class="st5" d="M101.3,313.6c0,0-6.4-0.4-9.9,1.9l-1.3,0.5l-1.3-0.5c-3.4-2.4-9.9-1.9-9.9-1.9c-22.1,1.1-8.1,27.9-8.1,27.9
			c3.2,3.9,3,10.4,3,10.4c-4.1,24.9,12,31.1,12,31.1c-2.7-17.1,1.7-22.2,4.3-23.7c2.5,1.5,7,6.5,4.3,23.7c0,0,16.1-6.2,12-31.1
			c0,0-0.2-6.6,3-10.4C109.4,341.4,123.4,314.6,101.3,313.6z"/>
		<g>
			
				<rect x="453.1" y="196.6" transform="matrix(1.327590e-002 -0.9999 0.9999 1.327590e-002 258.2735 662.3073)" class="st6" width="23.3" height="7.4"/>
			<g>
				
					<ellipse transform="matrix(1.340306e-002 -0.9999 0.9999 1.340306e-002 306.8267 617.1177)" class="st5" cx="466.1" cy="153.1" rx="33.8" ry="33.8"/>
				<path class="st11" d="M436.9,181.5c-7.6-7.8-11.7-18.1-11.6-29c0.3-22.5,18.8-40.5,41.3-40.2c10.9,0.1,21.1,4.5,28.7,12.3
					c7.6,7.8,11.7,18.1,11.6,29c-0.3,22.5-18.8,40.5-41.3,40.2C454.7,193.7,444.5,189.3,436.9,181.5z M485.4,134.3
					c-5-5.1-11.7-8-18.9-8.1c-14.8-0.2-27,11.7-27.2,26.5c-0.1,7.2,2.6,14,7.6,19.1c5,5.1,11.7,8,18.9,8.1
					c14.8,0.2,27-11.7,27.2-26.5C493.1,146.3,490.4,139.5,485.4,134.3z"/>
			</g>
			<path class="st11" d="M473.1,256.7c-0.1,8.8-17.6,7.1-17.6-0.2c0-7.4,0.2-49.6,0.2-49.6l17.6,0.2
				C473.3,207.2,473.2,249.1,473.1,256.7z"/>
		</g>
		<rect x="239.3" y="458.5" class="st5" width="36.5" height="130"/>
		<path class="st1" d="M280.5,444.7c1-11,1.5-31.4-8.8-44.7c-3.2-4.1-9.5-28-16.3-27.9c-10.8,0.1-1.4,15.5-0.7,24
			c2.1,29.1,14.4,24.9,17,30.6C274.3,432.4,280.5,444.7,280.5,444.7z"/>
		<rect x="234" y="468.4" class="st11" width="47.2" height="130"/>
		<circle class="st12" cx="245.2" cy="464.3" r="2.7"/>
		<rect x="338.3" y="457.6" class="st5" width="36.5" height="130"/>
		<path class="st1" d="M335.2,442.9c-0.9-11-1.3-31.4,9.1-44.7c3.2-4.1,9.7-27.9,16.4-27.8c10.8,0.2,1.2,15.5,0.6,24
			c-2.3,29.1-14.6,24.8-17.2,30.5C341.4,430.6,335.2,442.9,335.2,442.9z"/>
		<rect x="333" y="467.4" class="st11" width="47.2" height="130"/>
		<circle class="st12" cx="369" cy="463.4" r="2.7"/>
		<g>
			<g>
				<path class="st11" d="M182.2,404.6c12.7,0,24.4-2.6,33.2-7.2c10.8-5.8,16.5-14.3,16.5-24.7v-52c0-2.7-2.2-4.9-4.9-4.9
					c-2.7,0-4.9,2.2-4.9,4.9v52c0,6.7-3.8,12.1-11.4,16.1c-7.3,3.9-17.5,6.1-28.6,6.1c-20.5,0-42.2-7.8-42.2-22.2
					c0-34.6-3.1-87.3-3.1-87.9c-0.1-2.7-2.4-4.8-5.1-4.6c-2.7,0.1-4.8,2.4-4.6,5.1c0,0.6,3.1,53.1,3.1,87.4c0,10,6.2,18.8,17.4,24.5
					C157,401.9,169.3,404.6,182.2,404.6z"/>
				<path class="st11" d="M72.7,226.8c0-15.5,1.6-25.9,5.2-33.4c4.5-9.6,12.4-14.4,23.5-14.4v4.9c-9.3,0-15.4,3.7-19.1,11.6
					c-3.2,6.8-4.7,16.8-4.7,31.4c0,37.6,18.8,55.8,57.4,55.9c35.4-1.5,52.6-19.8,52.6-55.8c0-14.6-1.5-24.6-4.7-31.4
					c-3.7-7.9-9.8-11.6-19.1-11.6v-4.9c11.1,0,19,4.8,23.5,14.4c3.6,7.6,5.2,17.9,5.2,33.4c0,38.6-19.3,59-57.3,60.6v0
					c0,0-0.1,0-0.1,0c-1.6,0.1-3.3,0.1-5,0.1v-0.2C92,285.8,72.7,265.4,72.7,226.8z"/>
				<g>
					<path class="st11" d="M153.2,185.2c0,1.3,1,2.3,2.3,2.3h17.3c1.3,0,2.3-1,2.3-2.3v-7.4c0-1.3-1-2.3-2.3-2.3h-17.3
						c-1.3,0-2.3,1-2.3,2.3V185.2z"/>
					<path class="st11" d="M112,185.1c0,1.3-1,2.3-2.3,2.3H92.5c-1.3,0-2.3-1-2.3-2.3v-7.4c0-1.3,1-2.3,2.3-2.3h17.3
						c1.3,0,2.3,1,2.3,2.3V185.1z"/>
				</g>
				<path class="st3" d="M78.5,252c2.5-1.1,5.3,0.1,6.4,2.5c7.5,17.3,23.9,25.7,50.1,25.7c23.3-1,38.2-9.4,45.2-25.6
					c1.1-2.5,3.9-3.6,6.4-2.5c2.5,1.1,3.6,3.9,2.5,6.4c-8.6,19.7-26.7,30.3-53.9,31.5c-0.1,0-0.1,0-0.2,0c0,0,0,0-0.1,0
					c-1.6,0.1-3.3,0.1-5,0.1c-0.6,0-1.1-0.1-1.7-0.3c-26.3-1.5-44-12-52.4-31.4C74.9,255.9,76.1,253.1,78.5,252z"/>
				<path class="st11" d="M201.8,304c0-13.9,11.3-25.2,25.2-25.2c13.9,0,25.2,11.3,25.2,25.2c0,13.9-11.3,25.2-25.2,25.2
					C213.1,329.3,201.8,318,201.8,304z M216.7,304c0,5.7,4.6,10.3,10.3,10.3c5.7,0,10.3-4.6,10.3-10.3c0-5.7-4.6-10.3-10.3-10.3
					C221.3,293.7,216.7,298.3,216.7,304z"/>
			</g>
			<path class="st5" d="M216.7,304c0,5.7,4.6,10.3,10.3,10.3c5.7,0,10.3-4.6,10.3-10.3c0-5.7-4.6-10.3-10.3-10.3
				C221.3,293.7,216.7,298.3,216.7,304z"/>
		</g>
	</g>
</g>
</svg>
