<?xml version="1.0" encoding="utf-8"?>
<!-- Generator: Adobe Illustrator 19.2.1, SVG Export Plug-In . SVG Version: 6.00 Build 0)  -->
<svg version="1.1" id="Layer_1" xmlns="http://www.w3.org/2000/svg" xmlns:xlink="http://www.w3.org/1999/xlink" x="0px" y="0px"
	 viewBox="0 0 612 612" style="enable-background:new 0 0 612 612;" xml:space="preserve">
<style type="text/css">
	.st0{fill:url(#SVGID_1_);}
	.st1{opacity:0.8;}
	.st2{fill:#F2F4EF;}
	.st3{fill:#29190D;}
	.st4{fill:#E44527;}
	.st5{fill:#37454A;}
	.st6{fill:#303E44;}
	.st7{fill:#F1F0F0;}
	.st8{fill:#E6E6E5;}
	.st9{fill:#425157;}
	.st10{fill:#3C4A50;}
	.st11{fill:#FFFFFF;}
	.st12{fill:#F5F6F6;}
	.st13{fill:#B4B934;}
	.st14{fill:#858C36;}
	.st15{fill:#737A33;}
	.st16{fill:#1C0D0C;}
	.st17{fill:#9EA438;}
	.st18{fill:#8C9337;}
	.st19{fill:#432D1B;}
	.st20{fill:#301D10;}
	.st21{fill:#328C90;}
	.st22{fill:#C7CB35;}
	.st23{fill:#764E2A;}
	.st24{clip-path:url(#SVGID_3_);}
	.st25{fill:none;}
	.st26{fill:#37979B;}
	.st27{fill:#CF3F27;}
	.st28{fill:#424143;}
	.st29{fill:#003C4F;}
	.st30{fill:#013447;}
	.st31{fill:#E9EAE6;}
	.st32{fill:none;stroke:#0E6666;stroke-width:3;stroke-miterlimit:10;}
	.st33{fill:none;stroke:#0E6666;stroke-width:3;stroke-miterlimit:10;stroke-dasharray:5.9911,5.9911;}
	.st34{fill:#FFC62B;}
	.st35{fill:#F8A02C;}
	.st36{fill:#EEEDEE;}
	.st37{fill:#925729;}
	.st38{fill:#79461E;}
	.st39{fill:#333333;}
	.st40{fill:#232323;}
	.st41{fill:#FEC670;}
	.st42{fill:#FFDB8F;}
	.st43{fill:#F16F64;}
	.st44{fill:#F58A76;}
	.st45{fill:#F05058;}
	.st46{fill:#D2D2CD;}
	.st47{fill:#4B9DD6;}
	.st48{fill:#458EC0;}
	.st49{fill:#FBB14F;}
	.st50{fill:#FFDE00;}
	.st51{fill:#FBBF15;}
	.st52{fill:#D22036;}
	.st53{fill:#E4203C;}
	.st54{fill:#61C1C1;}
</style>
<g>
	
		<linearGradient id="SVGID_1_" gradientUnits="userSpaceOnUse" x1="306.8511" y1="-5662.7705" x2="303.3936" y2="-6274.7607" gradientTransform="matrix(1 0 0 1 0 6119.4214)">
		<stop  offset="0" style="stop-color:#FFFFFF"/>
		<stop  offset="0.6968" style="stop-color:#EF9F20"/>
	</linearGradient>
	<circle class="st0" cx="306" cy="306" r="306"/>
	<g>
		<g class="st1">
			<path class="st2" d="M383.2,385c0-6.9-7.2-12.5-16-12.5c-2,0-3.9,0.3-5.6,0.8c1.9-2.1,3-4.6,3-7.3c0-6.9-7.2-12.5-16-12.5
				c-4,0-7.6,1.1-10.4,3c-0.7-4.6-4.5-8.4-9.7-10.2c0.7-1.4,1-2.9,1-4.4c0-2.1-0.7-4-1.8-5.8c6.2-1.7,10.6-6.4,10.6-11.8
				c0-3-1.3-5.7-3.6-7.9c4-2.3,6.6-6,6.6-10.2c0-6.9-7.2-12.5-16-12.5l0,0c0-6.9-7.2-12.5-16-12.5c-1.5,0-2.9,0.2-4.3,0.5
				c-1.7-3.3-5.2-5.8-9.5-7c1.2-1.8,1.9-3.8,1.9-5.9c0-6.9-7.2-12.5-16-12.5c-0.4,0-0.8,0-1.2,0c0.7-1.4,1.2-3,1.2-4.7
				c0-6.9-7.2-12.5-16-12.5c-2.7,0-5.3,0.5-7.5,1.5c-1.8-5.4-8.1-9.4-15.5-9.4c-8.8,0-16,5.6-16,12.5c0,5.6,4.7,10.4,11.2,12
				c-2.6,2.2-4.2,5.2-4.2,8.5c0,4.2,2.7,8,6.8,10.3c-4.1,2.3-6.8,6-6.8,10.3c0,0.6,0.1,1.3,0.2,1.9c-0.1,0-0.1,0-0.2,0
				c-8.8,0-16,5.6-16,12.5c0,2.1,0.7,4.1,1.8,5.8c-8.2,0.6-14.6,5.9-14.6,12.5c0,6.9,7.2,12.5,16,12.5c1,0,1.9-0.1,2.9-0.2
				c-1.8,2-2.9,4.5-2.9,7.2c0,2,0.6,3.8,1.6,5.5c-6.8,1.4-11.9,6.3-11.9,12.1c0,2.3,0.8,4.4,2.1,6.2c-6.5,1.6-11.1,6.4-11.1,12
				c0,5.3,4.3,9.9,10.2,11.7c-0.8,1.5-1.2,3.1-1.2,4.8c0,3.1,1.5,6,3.9,8.2h156.5C377.9,395.9,383.2,390.9,383.2,385z"/>
			<path class="st2" d="M570.6,383.7c3.9-2.1,6.5-5.6,6.5-9.6c0-1.9-0.6-3.6-1.6-5.2h0.1c2.3-2,3.6-4.7,3.6-7.6
				c0-4.9-3.8-9-9.2-10.8c0.8-1.4,1.2-2.9,1.2-4.6c0-6.4-6.7-11.7-14.9-11.7c-0.2,0-0.4,0-0.6,0c1.8-1.9,2.9-4.3,2.9-7
				c0-6.2-6.2-11.3-14-11.7c3.2-2.1,5.2-5.3,5.2-8.9c0-4.5-3.3-8.4-8-10.4c2-2,3.1-4.5,3.1-7.1c0-6.4-6.7-11.7-14.9-11.7
				s-14.9,5.2-14.9,11.7c0,2.2,0.8,4.2,2.1,6c-6.9,1-12.1,5.8-12.1,11.5c0,0.7,0.1,1.5,0.3,2.2c-0.2,0-0.5,0-0.7,0
				c-8.1,0-14.6,5-14.9,11.3c-2.7-2.3-6.6-3.8-11-3.8c-8.2,0-14.9,5.2-14.9,11.7c0,0.3,0,0.6,0.1,0.9c0,0,0,0-0.1,0
				c-8.2,0-14.9,5.2-14.9,11.7c0,4,2.6,7.5,6.5,9.6c-5.2,1.8-8.9,5.9-8.9,10.7c0,3.1,1.5,5.8,3.9,7.9h12.6
				c-4.9,1.9-8.3,5.9-8.3,10.5c0,1.6,0.4,3.2,1.2,4.6c-5.4,1.8-9.2,5.9-9.2,10.8c0,2.9,1.4,5.6,3.6,7.6h125c2.4-2.1,3.9-4.9,3.9-7.9
				C579.5,389.6,575.8,385.5,570.6,383.7z"/>
			<path class="st2" d="M519.9,188.6L519.9,188.6L519.9,188.6c0-3.4-3.5-6.2-7.9-6.2c-0.9,0-1.8,0.1-2.7,0.4
				c-0.4-3.1-3.8-5.6-7.9-5.6c-4.2,0-7.6,2.5-7.9,5.7c-1-0.3-2-0.5-3.1-0.5c-4.4,0-7.9,2.8-7.9,6.2c-4.4,0-7.9,2.8-7.9,6.2
				s3.5,6.2,7.9,6.2c1.7,0,3.3-0.4,4.6-1.2c0.5,3,3.8,5.4,7.8,5.4c3.7,0,6.8-2,7.7-4.7c1.4,1.7,3.9,2.9,6.7,2.9
				c2.9,0,5.5-1.3,6.9-3.1c1.1,0.5,2.4,0.7,3.7,0.7c4.4,0,7.9-2.8,7.9-6.2C527.8,191.4,524.3,188.6,519.9,188.6z"/>
			<path class="st2" d="M339.4,163L339.4,163L339.4,163c0-3.7-3.8-6.7-8.5-6.7c-1,0-2,0.1-2.9,0.4c-0.4-3.4-4.1-6-8.5-6
				c-4.5,0-8.1,2.7-8.5,6.1c-1-0.3-2.2-0.5-3.4-0.5c-4.7,0-8.5,3-8.5,6.7c-4.7,0-8.5,3-8.5,6.7s3.8,6.7,8.5,6.7c1.9,0,3.6-0.5,5-1.3
				c0.6,3.3,4.1,5.8,8.4,5.8c4,0,7.3-2.1,8.3-5c1.5,1.9,4.2,3.1,7.2,3.1c3.2,0,5.9-1.4,7.4-3.4c1.2,0.5,2.5,0.8,4,0.8
				c4.7,0,8.5-3,8.5-6.7C347.9,165.9,344.1,163,339.4,163z"/>
		</g>
		<g>
			<rect x="300.4" y="225.1" class="st3" width="2" height="30.3"/>
			<polygon class="st4" points="323.8,236.4 302.3,236.4 302.3,225.1 323.8,225.1 315.5,230.8 			"/>
		</g>
		<g>
			<g>
				<g>
					<polygon class="st5" points="351.3,239.2 295.1,366.1 389.8,366.1 389.8,239.2 					"/>
					<polygon class="st6" points="427.5,239.2 389.3,239.2 389.3,366.1 483.7,366.1 					"/>
				</g>
				<g>
					<path class="st7" d="M346.1,250.8c16.7,4,27.1-10,27.1-10s3.4,10,16.6,10.5l-0.5-98.5L346.1,250.8z"/>
					<path class="st8" d="M389.4,152.7l-0.1,0.1v98.5c0.3,0,0.6,0,0.9,0c14,0,16.9-9.6,16.9-9.6s7.3,12.9,25.4,8.6L389.4,152.7z"/>
				</g>
			</g>
			<g>
				<g>
					<polygon class="st9" points="442.9,294.6 398.1,395.9 473.3,395.9 473.8,294.6 					"/>
					<polygon class="st10" points="503.8,294.6 473.3,294.6 473.3,395.9 548.6,395.9 					"/>
				</g>
				<g>
					<path class="st11" d="M438.8,303.9c13.4,3.2,21.6-8,21.6-8s2.8,8,13.4,8.4l-0.5-78.6L438.8,303.9z"/>
					<path class="st12" d="M473.4,225.5v0.1v78.6c0.2,0,0.5,0,0.7,0c11.2,0,13.5-7.6,13.5-7.6s5.8,10.3,20.2,6.9L473.4,225.5z"/>
				</g>
			</g>
			<g>
				<g>
					<polygon class="st9" points="261.9,296.7 217,397.9 292.8,397.9 292.8,296.7 					"/>
					<polygon class="st10" points="322.8,296.7 292.3,296.7 292.3,397.9 367.6,397.9 					"/>
				</g>
				<g>
					<path class="st11" d="M257.8,305.9c13.4,3.2,21.6-8,21.6-8s2.8,8,13.4,8.4l-0.5-78.6L257.8,305.9z"/>
					<path class="st12" d="M292.3,227.6v0.1v78.6c0.2,0,0,0,0.2,0c11.2,0,14-7.6,14-7.6s5.8,10.3,20.2,6.9L292.3,227.6z"/>
				</g>
			</g>
		</g>
		<path class="st13" d="M557.4,403.1H284.7c0,0,64.5-69.8,139.8-69.8C499.9,333.3,557.4,403.1,557.4,403.1z"/>
		<g>
			<g>
				<polygon class="st14" points="357,306.3 346.3,352.8 357,352.8 357,306.4 				"/>
				<polygon class="st15" points="357,306.4 357,352.8 367.8,352.8 				"/>
				<polygon class="st3" points="357,322.2 356.6,333.1 353.3,329.9 356.6,334.4 356.5,339.2 351.3,334.3 356.4,341 356.3,346.1 
					350.1,340.1 356.2,347.9 355.7,361.7 357,361.7 357,324.6 				"/>
				<polygon class="st16" points="357.7,348 364,340.1 357.7,346.3 357.5,341.2 362.7,334.3 357.5,339.3 357.3,334.3 360.5,329.7 
					357.3,333.2 357,324.6 357,361.7 358.2,361.7 				"/>
			</g>
			<g>
				<polygon class="st14" points="389.3,299 378.6,345.5 389.3,345.5 				"/>
				<polygon class="st15" points="389.3,299 389.3,345.5 400.1,345.5 				"/>
				<polygon class="st3" points="389.3,314.8 388.9,325.7 385.6,322.5 388.9,327 388.8,331.9 383.6,326.9 388.7,333.6 388.6,338.8 
					382.4,332.7 388.5,340.5 388,354.3 389.3,354.3 389.3,317.2 				"/>
				<polygon class="st16" points="390,340.7 396.3,332.7 390,338.9 389.8,333.8 395,326.9 389.8,332 389.6,326.9 392.8,322.3 
					389.6,325.8 389.3,317.2 389.3,354.3 390.5,354.3 				"/>
			</g>
			<g>
				<polygon class="st14" points="414,300.5 404.4,342 414,342 				"/>
				<polygon class="st15" points="414,300.5 414,342 423.6,342 				"/>
				<polygon class="st3" points="413.9,314.6 413.6,324.3 410.7,321.5 413.6,325.5 413.5,329.8 408.9,325.4 413.4,331.4 413.3,336 
					407.8,330.6 413.2,337.5 412.8,349.9 414,349.9 414,316.8 				"/>
				<polygon class="st16" points="414.6,337.7 420.2,330.6 414.6,336.1 414.4,331.5 419.1,325.4 414.4,329.9 414.2,325.4 
					417.1,321.3 414.2,324.4 414,316.8 414,349.9 415.1,349.9 				"/>
			</g>
			<g>
				<polygon class="st14" points="465.7,307.6 456.5,347.4 465.7,347.4 				"/>
				<polygon class="st15" points="465.7,307.6 465.7,347.4 474.9,347.4 				"/>
				<polygon class="st3" points="465.6,321.1 465.4,330.5 462.5,327.7 465.3,331.6 465.2,335.7 460.8,331.5 465.2,337.3 465,341.7 
					459.7,336.5 465,343.2 464.5,355 465.7,355 465.7,323.2 				"/>
				<polygon class="st16" points="466.3,343.3 471.6,336.5 466.2,341.8 466.1,337.4 470.6,331.5 466.1,335.8 465.9,331.5 
					468.7,327.6 465.9,330.5 465.7,323.2 465.7,355 466.7,355 				"/>
			</g>
			<g>
				<polygon class="st14" points="439.1,316.1 430.1,354.7 439.1,354.7 				"/>
				<polygon class="st15" points="439.1,316.1 439.1,354.7 448,354.7 				"/>
				<polygon class="st3" points="439,329.3 438.7,338.3 436,335.6 438.7,339.4 438.6,343.4 434.3,339.3 438.6,344.9 438.4,349.2 
					433.3,344.2 438.4,350.6 438,362.1 439.1,362.1 439.1,331.2 				"/>
				<polygon class="st16" points="439.6,350.7 444.8,344.2 439.6,349.2 439.5,345 443.8,339.3 439.4,343.5 439.3,339.3 442,335.5 
					439.3,338.4 439.1,331.2 439.1,362.1 440.1,362.1 				"/>
			</g>
			<g>
				<polygon class="st17" points="422.9,342.6 412.1,389.1 422.9,389.1 				"/>
				<polygon class="st18" points="422.9,342.6 422.9,389.1 433.6,389.1 				"/>
				<polygon class="st19" points="422.8,358.4 422.5,369.3 419.1,366.1 422.4,370.6 422.3,375.5 417.2,370.5 422.2,377.2 
					422.1,382.4 415.9,376.4 422,384.1 421.5,397.9 422.9,397.9 422.9,360.8 				"/>
				<polygon class="st20" points="423.6,384.3 429.8,376.4 423.5,382.5 423.3,377.4 428.5,370.5 423.3,375.6 423.1,370.5 
					426.4,365.9 423.1,369.4 422.9,360.8 422.9,397.9 424.1,397.9 				"/>
			</g>
			<g>
				<polygon class="st17" points="455.2,343.8 446.6,380.8 455.2,380.8 				"/>
				<polygon class="st18" points="455.2,343.8 455.2,380.8 463.8,380.8 				"/>
				<polygon class="st19" points="455.2,356.4 454.9,365.1 452.2,362.5 454.9,366.1 454.8,370 450.7,366 454.7,371.4 454.6,375.5 
					449.7,370.7 454.6,376.9 454.1,387.9 455.2,387.9 455.2,358.3 				"/>
				<polygon class="st20" points="455.8,377 460.8,370.7 455.7,375.6 455.6,371.5 459.7,366 455.6,370.1 455.4,366 458,362.4 
					455.4,365.2 455.2,358.3 455.2,387.9 456.2,387.9 				"/>
			</g>
			<g>
				<polygon class="st17" points="404,322.6 393.2,369.1 404,369.1 404,322.7 				"/>
				<polygon class="st18" points="404,322.7 404,369.1 414.7,369.1 				"/>
				<polygon class="st19" points="403.9,338.5 403.6,349.3 400.3,346.1 403.6,350.7 403.4,355.5 398.3,350.5 403.4,357.3 
					403.2,362.4 397,356.4 403.2,364.2 402.6,378 404,378 404,340.8 				"/>
				<polygon class="st20" points="404.7,364.3 410.9,356.4 404.6,362.5 404.5,357.4 409.7,350.5 404.4,355.6 404.3,350.6 407.5,346 
					404.2,349.4 404,340.8 404,378 405.2,378 				"/>
			</g>
			<g>
				<polygon class="st17" points="375,318.2 364.3,364.7 375,364.7 				"/>
				<polygon class="st18" points="375,318.2 375,364.7 385.8,364.7 				"/>
				<polygon class="st19" points="375,334 374.7,344.9 371.3,341.7 374.6,346.2 374.5,351.1 369.3,346.1 374.4,352.9 374.3,358 
					368.1,352 374.2,359.7 373.7,373.6 375,373.6 375,336.4 				"/>
				<polygon class="st20" points="375.7,359.9 382,352 375.7,358.1 375.5,353 380.7,346.1 375.5,351.2 375.3,346.1 378.6,341.5 
					375.3,345 375,336.4 375,373.6 376.3,373.6 				"/>
			</g>
		</g>
		<path class="st21" d="M505.3,358.7c-16.8,3.2-36.6,24.2-43.8,44.4l17.7,0.2c6-17,15-32,30.3-41.8
			C507.4,360,507.5,360.1,505.3,358.7z"/>
		<path class="st22" d="M439.1,409.3H199.5c0,0,53.6-48.6,119.8-48.6S439.1,409.3,439.1,409.3z"/>
		<path class="st22" d="M314,360.8c-63.7,2.5-114.5,48.5-114.5,48.5h75.2c3.2-7,6.9-13.8,11.3-20.5
			C293.8,377.5,303.1,368.3,314,360.8z"/>
		<path class="st23" d="M395.4,380.4c-20.7-10.4-47.2-19.7-76.1-19.7c-1.8,0-3.5,0-5.3,0.1c-10.8,7.5-20.2,16.7-28,28.1
			c-4.4,6.7-8.1,13.5-11.3,20.5h101.1C380,397.9,385.2,387,395.4,380.4z"/>
		<path class="st22" d="M395.4,380.4c-10.1,6.6-15.4,17.6-19.5,28.9h63.3C439.1,409.3,422,393.8,395.4,380.4z"/>
		<g>
			<g>
				<defs>
					<path id="SVGID_2_" d="M395.4,380.4c-20.7-10.4-47.2-19.7-76.1-19.7c-1.8,0-3.5,0-5.3,0.1c-10.8,7.5-20.2,16.7-28,28.1
						c-4.4,6.7-8.1,13.5-11.3,20.5h101.1C380,397.9,385.2,387,395.4,380.4z"/>
				</defs>
				<clipPath id="SVGID_3_">
					<use xlink:href="#SVGID_2_"  style="overflow:visible;"/>
				</clipPath>
				<g class="st24">
					<path class="st25" d="M388.6,377.1c0,0-0.8,0.4-2,1.3c-0.6,0.4-1.4,1-2.2,1.7c-0.8,0.7-1.7,1.5-2.6,2.4s-1.9,1.9-2.8,3.1
						c-0.5,0.6-0.9,1.2-1.4,1.8c-0.5,0.6-0.9,1.3-1.4,1.9c-0.2,0.3-0.4,0.7-0.7,1c-0.2,0.3-0.4,0.7-0.6,1.1
						c-0.4,0.7-0.8,1.4-1.3,2.2c-0.4,0.7-0.8,1.5-1.2,2.3c-0.4,0.8-0.7,1.5-1.1,2.3c-0.7,1.6-1.2,3.2-1.7,4.8
						c-0.2,0.8-0.5,1.6-0.7,2.4s-0.4,1.6-0.6,2.3c-0.2,0.8-0.5,1.5-0.7,2.3c-0.2,0.7-0.4,1.5-0.7,2.2c-0.2,0.7-0.4,1.4-0.6,2.1
						c-0.1,0.3-0.2,0.7-0.3,1c-0.1,0.3-0.2,0.6-0.3,1c-0.4,1.3-0.7,2.4-1.1,3.4c-0.3,1-0.6,1.9-0.9,2.7c-0.3,0.8-0.5,1.3-0.6,1.7
						c-0.2,0.4-0.3,0.6-0.3,0.6h-0.6c0,0-0.1-0.2-0.2-0.7c-0.1-0.4-0.2-1-0.4-1.8c-0.2-0.8-0.3-1.8-0.3-2.9c0-0.6-0.1-1.2-0.1-1.8
						c0-0.6,0-1.3,0-2c0-1.4,0.2-2.9,0.4-4.5c0.1-0.8,0.3-1.6,0.4-2.4c0.2-0.8,0.4-1.6,0.6-2.5c0.2-0.8,0.6-1.7,0.9-2.5
						s0.7-1.7,1.1-2.5s0.8-1.6,1.2-2.5c0.4-0.8,0.9-1.6,1.3-2.4s0.9-1.6,1.4-2.4s1-1.5,1.5-2.3c0.5-0.7,1-1.5,1.6-2.2
						c0.3-0.3,0.6-0.7,0.8-1c0.3-0.3,0.6-0.7,0.9-1c1.1-1.3,2.3-2.5,3.5-3.5c1.2-1.1,2.3-2,3.4-2.8s2.2-1.5,3.1-2
						c1-0.6,1.8-1,2.5-1.3c1.4-0.7,2.3-0.9,2.3-0.9L388.6,377.1z"/>
					<path class="st25" d="M376.5,371.8c0,0-0.8,0.6-2,1.8c-0.6,0.6-1.4,1.3-2.2,2.2c-0.8,0.9-1.7,1.9-2.6,3s-1.9,2.4-2.9,3.7
						c-1,1.4-2,2.8-2.9,4.3c-0.5,0.8-0.9,1.6-1.4,2.4c-0.4,0.8-0.9,1.6-1.4,2.5c-0.4,0.8-0.9,1.7-1.3,2.5l-0.6,1.3l-0.6,1.3
						c-0.8,1.8-1.4,3.6-2,5.4c-0.5,1.8-1,3.6-1.5,5.3c-0.5,1.7-1,3.3-1.5,4.9c-0.1,0.4-0.2,0.8-0.4,1.2c-0.1,0.4-0.2,0.8-0.3,1.1
						c-0.2,0.7-0.5,1.5-0.7,2.2c-0.4,1.4-0.8,2.7-1.2,3.8c-0.3,1.1-0.7,2.1-0.9,3c-0.3,0.8-0.5,1.5-0.7,1.9
						c-0.2,0.5-0.3,0.7-0.3,0.7h-0.6c0,0-0.1-0.3-0.2-0.7c-0.1-0.5-0.2-1.2-0.4-2.1c-0.2-0.9-0.2-2-0.3-3.2c-0.1-1.2-0.1-2.6,0-4.2
						c0-0.8,0.1-1.6,0.2-2.4c0-0.4,0.1-0.8,0.1-1.3c0.1-0.4,0.1-0.8,0.2-1.3c0.3-1.7,0.7-3.6,1.2-5.4c0.3-0.9,0.6-1.8,1-2.7
						c0.4-0.9,0.8-1.8,1.2-2.7c0.9-1.8,1.8-3.6,2.8-5.4l0.7-1.3l0.8-1.3c0.5-0.9,1.1-1.7,1.6-2.6c0.5-0.8,1.1-1.6,1.7-2.4
						s1.2-1.6,1.8-2.3c1.2-1.5,2.4-2.9,3.6-4.1c1.2-1.3,2.3-2.4,3.5-3.4c1.1-1,2.2-1.9,3.1-2.7c1-0.8,1.8-1.4,2.5-1.9
						c1.4-1,2.3-1.5,2.3-1.5L376.5,371.8z"/>
					<path class="st25" d="M365.2,368.5c0,0-0.1,0-0.2,0.1c-0.1,0-0.3,0.1-0.5,0.2c-0.5,0.2-1.1,0.5-1.9,1s-1.7,1.1-2.7,1.9
						s-2.1,1.8-3.2,2.9s-2.2,2.4-3.4,3.8c-1.1,1.5-2.2,3-3.2,4.7c-0.5,0.8-1,1.7-1.5,2.6s-1,1.8-1.4,2.7c-0.9,1.9-1.8,3.8-2.6,5.7
						c-0.4,1-0.8,2-1.1,3c-0.3,1-0.7,2-1,3s-0.6,2-0.9,3s-0.6,1.9-0.9,2.9c-0.6,1.9-1.2,3.7-1.8,5.4c-0.6,1.7-1.2,3.4-1.7,4.9
						c-0.6,1.5-1,2.9-1.5,4.1s-0.9,2.3-1.3,3.2c-0.4,0.9-0.7,1.6-0.9,2.1c-0.2,0.5-0.3,0.7-0.3,0.7l-0.5-0.1c0,0,0-0.3-0.1-0.8
						c0-0.5-0.1-1.3-0.1-2.3s0-2.2,0.1-3.5s0.2-2.9,0.4-4.5c0.1-0.8,0.2-1.7,0.4-2.6c0.1-0.9,0.3-1.8,0.5-2.7
						c0.3-1.9,0.9-3.8,1.5-5.8c0.7-2,1.5-4,2.4-5.9c0.4-1,0.9-2,1.4-3s1-2,1.5-3c1-2,2.1-3.9,3.3-5.8c0.6-0.9,1.2-1.8,1.8-2.7
						c0.6-0.9,1.2-1.7,1.9-2.5c0.3-0.4,0.6-0.8,1-1.2c0.3-0.4,0.7-0.8,1-1.2c0.6-0.8,1.3-1.5,2-2.2c1.4-1.4,2.7-2.6,4-3.6
						s2.6-1.9,3.7-2.6c1.2-0.7,2.2-1.2,3.1-1.6c1.8-0.8,2.9-0.9,2.9-0.9L365.2,368.5z"/>
					<path class="st25" d="M352,364.7c0,0-0.1,0-0.2,0.1c-0.1,0-0.3,0.1-0.6,0.2c-0.5,0.2-1.2,0.6-2.1,1.1s-1.9,1.2-3.1,2.1
						c-1.1,0.9-2.3,2-3.6,3.2c-1.2,1.3-2.5,2.7-3.7,4.3c-1.2,1.6-2.5,3.4-3.6,5.3c-0.1,0.2-0.3,0.5-0.4,0.7s-0.3,0.5-0.4,0.7
						c-0.3,0.5-0.6,1-0.8,1.5c-0.5,1-1.1,2-1.6,3.1c-1,2.1-2,4.2-2.8,6.5c-0.4,1.1-0.9,2.2-1.2,3.3c-0.4,1.1-0.7,2.2-1,3.4
						c-0.7,2.2-1.2,4.5-1.9,6.6c-0.6,2.1-1.3,4.2-1.8,6.1c-0.6,2-1.2,3.8-1.7,5.5c-0.6,1.7-1,3.3-1.5,4.7c-0.5,1.4-0.9,2.6-1.3,3.6
						s-0.7,1.8-0.9,2.3c-0.2,0.5-0.3,0.8-0.3,0.8l-0.5-0.1c0,0,0-0.3-0.1-0.9c0-0.6-0.1-1.4-0.1-2.5c0-0.5,0-1.1,0-1.8
						c0-0.7,0-1.4,0.1-2.1c0.1-1.5,0.1-3.2,0.4-5c0.1-0.9,0.2-1.9,0.3-2.9c0.1-1,0.3-2,0.5-3c0.3-2.1,0.9-4.3,1.5-6.5
						c0.4-1.1,0.7-2.2,1.1-3.3c0.2-0.6,0.4-1.1,0.7-1.7c0.2-0.6,0.5-1.1,0.7-1.7c0.5-1.1,1-2.2,1.5-3.4c0.5-1.1,1-2.2,1.6-3.4
						c1.1-2.2,2.2-4.4,3.5-6.5c0.6-1,1.3-2.1,1.9-3.1c0.3-0.5,0.7-1,1-1.5c0.2-0.2,0.3-0.5,0.5-0.7s0.4-0.5,0.5-0.7
						c0.4-0.5,0.7-0.9,1-1.4c0.4-0.4,0.7-0.9,1.1-1.3c0.7-0.9,1.5-1.7,2.2-2.5c1.5-1.5,3-2.9,4.4-4.1s2.8-2.2,4.1-3
						c1.3-0.8,2.5-1.4,3.4-1.8c2-0.9,3.2-1.1,3.2-1.1L352,364.7z"/>
					<path class="st25" d="M338.8,362c0,0-0.1,0-0.2,0.1s-0.3,0.1-0.6,0.2c-0.5,0.2-1.3,0.6-2.2,1.2c-0.9,0.6-2,1.3-3.2,2.2
						c-1.2,0.9-2.5,2.1-3.8,3.4s-2.6,2.9-3.9,4.6s-2.6,3.5-3.8,5.5c-1.2,2-2.4,4.1-3.5,6.3c-0.3,0.5-0.6,1.1-0.8,1.6
						c-0.3,0.5-0.5,1.1-0.8,1.7s-0.5,1.1-0.8,1.7l-0.7,1.7l-0.7,1.7c-0.2,0.6-0.4,1.2-0.7,1.7c-0.2,0.6-0.4,1.2-0.6,1.7
						c-0.2,0.6-0.4,1.2-0.6,1.8c-0.4,1.2-0.8,2.3-1.1,3.5c-0.3,1.2-0.8,2.3-1.1,3.4c-0.4,1.1-0.7,2.2-1.1,3.3
						c-0.4,1.1-0.7,2.1-1.1,3.1c-0.7,2-1.4,4-2.1,5.7c-0.3,0.9-0.7,1.7-0.9,2.5c-0.3,0.8-0.6,1.6-0.9,2.3c-0.6,1.4-1.1,2.7-1.5,3.7
						s-0.8,1.9-1,2.4c-0.3,0.6-0.4,0.8-0.4,0.8l-0.5-0.1c0,0,0-0.3,0-0.9s0-1.5,0-2.6c0-0.6,0.1-1.2,0.1-1.9c0-0.7,0.1-1.4,0.2-2.2
						c0.1-0.8,0.2-1.6,0.3-2.5c0.1-0.4,0.1-0.9,0.2-1.3c0.1-0.5,0.2-0.9,0.2-1.4c0.3-1.9,0.7-4,1.2-6.1c0.3-1.1,0.5-2.2,0.8-3.3
						c0.3-1.1,0.7-2.3,1.1-3.4c0.8-2.3,1.8-4.6,2.9-6.9c0.3-0.6,0.5-1.2,0.8-1.7c0.3-0.6,0.6-1.2,0.9-1.7c0.3-0.6,0.6-1.2,0.8-1.7
						l0.9-1.7l0.9-1.7c0.3-0.6,0.6-1.1,0.9-1.7s0.6-1.1,1-1.7c0.3-0.6,0.7-1.1,1-1.6c0.6-1.1,1.4-2.1,2.1-3.2c0.7-1,1.4-2,2.2-3
						c0.8-1,1.5-1.9,2.2-2.8c0.4-0.4,0.7-0.9,1.1-1.3s0.8-0.8,1.2-1.2c1.5-1.6,3.1-3.1,4.6-4.3c1.5-1.2,2.9-2.3,4.3-3.1
						c1.3-0.8,2.6-1.5,3.6-1.9c1-0.5,1.9-0.7,2.5-0.9c0.3-0.1,0.5-0.1,0.7-0.2c0.2,0,0.2,0,0.2,0L338.8,362z"/>
					<path class="st25" d="M326.1,359.9c0,0-0.3,0.1-0.8,0.4s-1.2,0.8-2.1,1.4s-2,1.4-3.1,2.4c-1.2,1-2.5,2.1-3.8,3.4
						c-1.4,1.3-2.7,2.8-4.2,4.4c-1.4,1.6-2.9,3.4-4.2,5.3c-0.7,0.9-1.4,1.9-2.1,2.9s-1.4,2-2,3s-1.3,2.1-1.9,3.2
						c-0.3,0.5-0.6,1.1-0.9,1.6s-0.6,1.1-0.9,1.6l-0.9,1.6c-0.3,0.6-0.5,1.1-0.8,1.7s-0.5,1.1-0.8,1.7c-0.2,0.6-0.5,1.1-0.7,1.7
						s-0.5,1.1-0.7,1.7s-0.5,1.1-0.7,1.7s-0.5,1.1-0.7,1.6s-0.4,1.1-0.7,1.6c-0.9,2.1-1.8,4.2-2.7,6.2c-0.8,2-1.7,3.8-2.4,5.6
						c-0.4,0.9-0.7,1.7-1.1,2.5c-0.3,0.8-0.7,1.6-1,2.3c-0.6,1.4-1.2,2.7-1.7,3.7s-0.8,1.8-1.1,2.4c-0.3,0.5-0.4,0.8-0.4,0.8
						l-0.5-0.1c0,0,0-0.3,0-0.9s0.1-1.5,0.1-2.6c0-0.6,0.1-1.2,0.2-1.9c0.1-0.7,0.2-1.4,0.3-2.2c0.1-0.8,0.2-1.6,0.4-2.5
						c0.2-0.9,0.4-1.8,0.6-2.7c0.4-1.9,1-3.9,1.6-6.1c0.7-2.1,1.4-4.4,2.4-6.6c0.2-0.6,0.5-1.1,0.8-1.7s0.6-1.1,0.8-1.7
						c0.6-1.1,1.2-2.2,1.8-3.3c0.6-1.1,1.3-2.2,2-3.3c0.3-0.6,0.7-1.1,1-1.7l1-1.6c0.4-0.5,0.7-1.1,1-1.6c0.4-0.5,0.7-1.1,1.1-1.6
						c0.7-1.1,1.5-2.1,2.2-3.1c0.8-1,1.6-2,2.3-3c0.8-0.9,1.6-1.9,2.4-2.8c0.4-0.5,0.8-0.9,1.2-1.3c0.4-0.4,0.8-0.9,1.2-1.3
						c0.8-0.9,1.6-1.6,2.4-2.4c1.6-1.5,3.2-2.9,4.7-4.1s3-2.2,4.3-3.1s2.5-1.6,3.5-2.1c2-1.1,3.2-1.5,3.2-1.5L326.1,359.9z"/>
				</g>
			</g>
		</g>
	</g>
	<g>
		<path class="st26" d="M583.2,400.7c-12.1,0-22.1-6.3-22.8-14.3h-0.1c-0.8,8-10.7,14.3-22.8,14.3s-22.1-6.3-22.8-14.3h-0.1
			c-0.8,8-10.7,14.3-22.8,14.3s-22.1-6.3-22.8-14.3h-0.1c-0.8,8-10.7,14.3-22.8,14.3c-12.1,0-22.1-6.3-22.8-14.3h-0.1
			c-0.8,8-10.7,14.3-22.8,14.3s-22.1-6.3-22.8-14.3H377c-0.8,8-10.7,14.3-22.8,14.3s-22.1-6.3-22.8-14.3h-0.1
			c-0.8,8-10.7,14.3-22.8,14.3c-12.1,0-22.1-6.3-22.8-14.3h-0.1c-0.8,8-10.7,14.3-22.8,14.3s-22.1-6.3-22.8-14.3h-0.1
			c-0.8,8-10.7,14.3-22.8,14.3s-22.1-6.3-22.8-14.3h-0.1c-0.8,8-10.7,14.3-22.8,14.3s-22.1-6.3-22.8-14.3h-0.1
			c-0.8,8-10.7,14.3-22.8,14.3s-22.1-6.3-22.8-14.3h-0.1c-0.8,8-10.7,14.3-22.8,14.3s-22.1-6.3-22.8-14.3h-0.1
			c-0.8,8-10.7,14.3-22.8,14.3c-11,0-20.2-5.2-22.4-12.1C47.3,517.5,165.6,612,306,612c137.3,0,253.5-90.5,292.3-215.1
			C594.2,399.3,588.9,400.7,583.2,400.7z"/>
		<path class="st26" d="M10.7,386.5c0.1,0.4,0.2,0.8,0.3,1.1c-0.1-0.4-0.2-0.8-0.2-1.1H10.7z"/>
	</g>
	<g>
		<g>
			<path class="st27" d="M467.7,441.4c0,0-11.2,0.3-12.2,1.9c-0.5,0.9,2.6,2.4,4.4,4.7c1.7,2.1,2.1,5.1,3.1,4.8
				C465,452.3,467.7,441.4,467.7,441.4z"/>
			<path class="st4" d="M464.5,443.2c2.1,2.7,6.1,3.1,9.5,0.4s4.3-8.5,2.9-10.2s-7.2-2.2-10.6,0.5S462.4,440.5,464.5,443.2z"/>
		</g>
		<g>
			<circle class="st11" cx="472" cy="435.3" r="1.6"/>
			<g>
				<circle class="st28" cx="472" cy="435.3" r="0.9"/>
				<circle class="st11" cx="471.4" cy="435.2" r="0.5"/>
			</g>
		</g>
	</g>
	<g>
		<polygon class="st29" points="324.7,420.4 333.9,435.2 355.2,435.2 355.4,420.4 		"/>
		<polygon class="st30" points="388,420.4 355.2,420.4 355.2,435.2 375.8,435.2 		"/>
		<path class="st2" d="M329.2,418.6h25.9c0,0,0-38.3,0-44.2C332.9,390.6,329.2,418.6,329.2,418.6z"/>
		<path class="st31" d="M356.9,380.1c0,5.1,0,38.4,0,38.4h22.5C379.4,418.5,376.3,394.1,356.9,380.1z"/>
		<polygon class="st7" points="326.4,423.1 328.1,425.8 355.4,425.8 355.4,423.1 		"/>
		<polygon class="st31" points="385.8,423.1 355.2,423.1 355.2,425.8 383.6,425.8 		"/>
	</g>
	<g>
		<g>
			<path class="st27" d="M372.2,470c0,0,18.1,0.5,19.7,3.1c0.8,1.4-4.1,3.8-7.1,7.5c-2.7,3.4-3.4,8.2-5,7.8
				C376.6,487.5,372.2,470,372.2,470z"/>
			<path class="st4" d="M377.4,472.8c-3.4,4.3-9.8,5.1-15.3,0.7s-6.9-13.7-4.7-16.5c2.2-2.8,11.6-3.6,17.1,0.7
				C380,462.1,380.8,468.4,377.4,472.8z"/>
		</g>
		<g>
			<circle class="st11" cx="365.2" cy="460.1" r="2.6"/>
			<g>
				<circle class="st28" cx="365.2" cy="460.1" r="1.4"/>
				<circle class="st11" cx="366.2" cy="459.9" r="0.8"/>
			</g>
		</g>
	</g>
	<g>
		<g>
			<path class="st32" d="M321.8,52.4c-1,0.1-2,0.2-3,0.3"/>
			<path class="st33" d="M312.9,53.5C168.7,73.9,65.3,203.6,78,349.1"/>
			<path class="st32" d="M78.3,352.1c0.1,1,0.2,2,0.3,3"/>
		</g>
	</g>
	<g>
		<path class="st34" d="M108,194.5c-0.5-0.3-3.3-3.6-2.6-7.8s-1.8-4.9-2.4-0.7c-0.5,3.4-0.8,5.1,1.3,9.5c0,0-2.3-1.3-3.4-3.9
			c-2.2-5.4-1.8-6.1-1.8-8.4c0-2.3-2.4,0.2-1.7,5.6c0.7,5.4,2.4,7.1,2.4,7.1s-1.6-3.7-5-6.5c-3.5-2.8-6-3-6.3-1.6
			c-0.1,0.6,3.4,1.3,5.5,3.9c2,2.5,3.4,4.9,3.4,4.9s-6.3-5-9.4-4.3c-2.4,0.5,4,2.1,5.7,4c0,0-5.9-0.8-7.5,1.6
			c-1,1.6,4.3-0.7,6.9,0.7c0,0-6.8,2.6-5.9,5.2c0.9,2.6,8.9-0.5,9.4-0.5s7.8-0.7,8.3-0.9s4.3-1.2,4.3-1.2L108,194.5z"/>
		<path class="st35" d="M106.9,194.9c0,0-2-2.7-2.5-5.3c-0.6-2.7-1.2,4.7,2.4,8.1c0,0-2,0.2-4.3-2.3s-3-5.1-3.5-5.3
			s-0.8,3.8,1.9,6.6c0,0-1.5-1-3.4-3.2s-2.4-3.1-2.8-2.8c-0.3,0.3,3.8,4.4,4.4,7.4c0,0-3.7-2.4-4.2-2.2s0.9,1.6,0.9,1.6
			s-2-0.7-2.1-0.2s1.2,1.2,1.2,1.2s-5.7,2.4-5.9,3.9c-0.2,1.5,2.8,2.9,3.1,2.8c0.3-0.1,13.7-2.1,13.7-2.1s4.4-2.4,4.2-2.8
			C109.8,199.9,106.9,194.9,106.9,194.9z"/>
		<path class="st11" d="M111,206.7c-1.8-6.2-12.1-10.4-21.3-4.4s-17.2,43.6-13.5,54.1s28,11.3,31.6,0.7c3.6-10.6-0.1-25.3-0.6-32.9
			C106.6,216.6,111,206.7,111,206.7z"/>
		<path class="st34" d="M102.7,211.7c0,0-4.9-3.6-7.5,1.4c-2.6,4.9,3.9,9.9,11.4,7s0.5-7,0.5-7L102.7,211.7z"/>
		<path class="st36" d="M111,210.3c0,0-4.3-7.2-8.2-4.8c-3.9,2.4-3.9,5.1-1.4,6.8c2.6,1.7,7.7,2.4,7.7,2.4L111,210.3z"/>
		<path class="st11" d="M92.7,250c0,0,1.9,17.8-6.3,33.5c-2.4,4.6-3.1-2.5-3.1-2.5s-4.5,13.2-10.7,13.3c-2.5,0.1-0.3-8.2-0.3-8.2
			s-2,9.6-6.9,9.7c-5,0.1,1.6-15.4,1.6-15.4s-2.9,2.4-4.7,1.5s9.4-15.8,15.8-35.1C84.5,227.7,92.7,250,92.7,250z"/>
		<path class="st36" d="M62.2,282.1c-0.8-0.4,1-3.6,3.9-8.8c0,1.8,0,4.5,0.9,4.9c1.3,0.6,3.6-4,3.6-4s-2.9,11.3-1.1,12
			s4.4-6.2,4.4-6.2s-1.7,5.5,1.2,6.6c2.9,1.1,8.2-12.5,8.2-12.5s0.7,4,3.3,4.3c1,0.1,2-1,3-2.4c-0.8,2.5-1.9,5.1-3.2,7.6
			c-2.4,4.6-3.1-2.5-3.1-2.5s-4.5,13.2-10.7,13.3c-1.9,0-1-5-0.5-7.2c-0.7,2.5-2.7,8.7-6.7,8.7c-5,0.1,1.6-15.4,1.6-15.4
			S64,283,62.2,282.1z"/>
		<path class="st37" d="M122.9,257.2c0,0-24.6,6-33,7.6s-23.3,4.2-24,4.6c-0.7,0.4,0.3,1.7-0.5,2.1s-0.9,1.3-1.3,2.1
			c-0.4,0.8,0.1,1.6,0.1,1.6S119,263.3,120,263s0.8-1.3,1.5-1.6s0.8-0.2,1.3-1.3c0.4-1.1,1.4-0.5,1.5-1.2
			C124.4,258,123.5,257.3,122.9,257.2z"/>
		<path class="st38" d="M66.5,272.8c0.5-0.1,6.1-0.7,7.9-1.1s42.7-9.4,43.9-9.7c1.2-0.3,1.4-1.6,2.3-1.6c0.9-0.1,2.1-0.3,2.1-0.3
			c-0.4,1.1-0.6,1-1.3,1.3s-0.5,1.3-1.5,1.6s-55.8,12.2-55.8,12.2s-0.5-0.8-0.1-1.6c0.4-0.8,0.5-1.7,1.3-2.1
			C66,272,66,272.9,66.5,272.8z"/>
		<path class="st34" d="M102.6,261.2c1.6,0.1,4.3,3.3,3.8,5.4c-0.2,0.6-1,1.3-1.5,0.7c0,0-0.8,1.3-1.6,1c-0.8-0.3-1-0.6-1-0.6
			s-0.2,1-1,0.9s-0.7-4.1-2.3-5.2C99,263.4,100.8,261.1,102.6,261.2z"/>
		<path class="st35" d="M101.6,268.5c-0.1,0-0.2,0-0.3,0c-0.8-0.1-0.7-4.1-2.3-5.2c0,0,1.8-2.3,3.6-2.2c0.8,0.1,1.8,0.8,2.6,1.9
			c-0.5-0.3-1.1-0.6-1.3-0.4c-0.4,0.4,0.8,1.9,0.8,3c0,0-1.5-2.3-2.1-1.7s-0.2,2.1-0.2,2.1s-0.8-1.5-1.3-1.2s0,2.1,0.1,2.6
			C101.2,267.7,101.3,268.2,101.6,268.5z"/>
		<path class="st34" d="M92.9,263.2c1.6,0.5,3.5,4.1,2.6,6.1c-0.3,0.6-1.2,1.1-1.6,0.4c0,0-1.1,1.1-1.7,0.6
			c-0.7-0.4-0.8-0.8-0.8-0.8s-0.4,0.9-1.1,0.7c-0.7-0.2,0.2-4.1-1.2-5.5C88.9,264.6,91.1,262.7,92.9,263.2z"/>
		<path class="st35" d="M90.4,270.2c-0.1,0-0.2,0-0.3,0c-0.7-0.2,0.2-4.1-1.2-5.5c0,0,2.2-1.9,4-1.4c0.8,0.2,1.6,1.2,2.2,2.3
			c-0.4-0.4-0.9-0.8-1.2-0.6c-0.5,0.3,0.4,2,0.2,3.2c0,0-1-2.6-1.7-2.1c-0.7,0.4-0.6,2-0.6,2s-0.5-1.6-1-1.5c-0.6,0.2-0.4,2-0.5,2.5
			C90.2,269.3,90.3,269.8,90.4,270.2z"/>
		<path class="st36" d="M76.2,256.4c-3.7-10.5,4.3-48.1,13.5-54.1c2.8-1.8,5.7-2.7,8.4-2.9c-3,1.3-7.2,4.6-9.6,13.4
			c-4.1,14.9-3,29.1,3.6,36.4c5.5,6.1,14,4.7,17.1,0c-0.2,2.7-0.6,5.4-1.5,7.8C104.1,267.7,79.8,266.9,76.2,256.4z"/>
		<path class="st39" d="M111,206.7c-1.4,0.7-7,8.7-3.9,17.5c0,0,2.6-3.3,5.9-3.5c3.3-0.1,2.7,4,2.7,4s3.8-1.7,3.5-9.2
			C118.8,208,111,206.7,111,206.7z"/>
		<path class="st40" d="M107.1,224.2c-1.1-3.1-1.1-6-0.6-8.6c1.7,0.6,4.1,0.2,7.8,2.8c4.7,3.3,1.4,6.4,1.4,6.4s0.6-4.2-2.7-4
			C109.7,220.9,107.1,224.2,107.1,224.2z"/>
		<path class="st40" d="M116.3,214.3c-0.1,0.6-1.3-0.2-1.4-0.8C114.8,213,116.3,213.9,116.3,214.3z"/>
		<circle class="st39" cx="103.3" cy="208.7" r="1.8"/>
		<circle class="st11" cx="104.3" cy="208.2" r="0.4"/>
		<path class="st11" d="M111,206.7c0,0,2-6.6-3.1-13.1c-2.6-3.2-2.7,1.5-1.2,3.1c1.5,1.5,1.7,4.1,1.7,4.1s-1.9-3.9-3.2-3.4
			c-1.4,0.5,1.7,4.9,1.5,6.5C106.6,205.4,111,206.7,111,206.7z"/>
		<path class="st36" d="M97.6,223c0,0,6.2,1.4,6.1,11.8c-0.2,10.4-4.2,18.7-3.3,22.7c0.9,4-9-1-9-1s-4-14.4-3.8-16.1
			C87.7,238.6,97.6,223,97.6,223z"/>
		<path class="st11" d="M96.6,222.6c9.7,2.7,3.7,27.8-1.3,35.8c-5.1,8-11.7,11.8-13.5,10.9s-0.3-4-0.3-4s-4.2,5.2-7.5,4.9
			c-3.3-0.3-0.6-5.6-0.6-5.6s-5.8,5.6-9.2,2.7c-2-1.7,7.5-6.4,9.8-16.6C76.3,240.6,81.3,218.3,96.6,222.6z"/>
		<path class="st36" d="M81.8,269.4c-1.8-0.9-0.3-4-0.3-4s-4.2,5.2-7.5,4.9c-3.3-0.3-0.6-5.6-0.6-5.6s-5.8,5.6-9.2,2.7
			c-2-1.7,7.5-6.4,9.8-16.6c2-8.9,6.1-27.1,17.5-28.6c-2.9,1.5-6.8,5.1-9,13.4c-3.7,14.2-9.1,21.2-9.6,23.7c-0.6,2.5,2.7,2.4,6.2-2
			c0,0-3.6,5.7-2.2,8.4c1.4,2.7,10-8.8,10-8.8s-3.7,5.5-2.1,7.6c1.4,1.8,8.6-3.4,13.3-11.7c-0.9,2.3-1.8,4.3-2.7,5.7
			C90.2,266.4,83.6,270.3,81.8,269.4z"/>
		<path class="st34" d="M75.7,243.4c-0.1,3.6,0.2,7.4,2.2,7.9c1.8,0.5,4.2-4.7,4.2-4.7s-2.5,8.4,0.3,9.3c2.8,0.9,8.5-8.8,8.5-8.8
			s-3.3,6.8,0.9,8.5c2.4,1,4.8-1.2,6.3-3.3c-0.9,2.5-1.9,4.6-2.9,6.1c-5.1,8-11.7,11.8-13.5,10.9s-0.3-4-0.3-4s-4.2,5.2-7.5,4.9
			c-3.3-0.3-0.6-5.6-0.6-5.6s-5.8,5.6-9.2,2.7c-2-1.7,7.5-6.4,9.8-16.6C74.4,248.7,75,246.2,75.7,243.4z"/>
		<path class="st35" d="M73.9,250.7c0.1-0.3,0.1-0.5,0.2-0.8c0-0.1,0-0.2,0.1-0.3c0-0.2,0.1-0.4,0.1-0.6c0-0.1,0.1-0.3,0.1-0.4
			c0-0.2,0.1-0.3,0.1-0.5c0-0.1,0.1-0.3,0.1-0.4c0-0.2,0.1-0.4,0.1-0.5c0-0.2,0.1-0.3,0.1-0.5s0.1-0.4,0.1-0.5
			c0-0.2,0.1-0.3,0.1-0.5s0.1-0.4,0.1-0.5c0-0.2,0.1-0.3,0.1-0.5s0.1-0.4,0.1-0.6c0-0.2,0.1-0.3,0.1-0.5c0-0.1,0-0.1,0.1-0.2
			c-0.1,2.9,0.1,5.9,1.2,7.2c-2.1,4.5-3.9,7.3-4.2,8.6c-0.6,2.5,2.7,2.4,6.2-2c0,0-3.6,5.7-2.2,8.4c1.4,2.7,10-8.8,10-8.8
			s-3.7,5.5-2.1,7.6c1.4,1.8,8.6-3.4,13.3-11.7c0,0.1-0.1,0.1-0.1,0.2c-0.1,0.2-0.1,0.3-0.2,0.5c0,0.1-0.1,0.2-0.1,0.4
			c-0.1,0.2-0.1,0.3-0.2,0.5c0,0.1-0.1,0.2-0.1,0.3c-0.1,0.2-0.1,0.3-0.2,0.5c-0.1,0.1-0.1,0.2-0.2,0.3s-0.1,0.3-0.2,0.4
			c-0.1,0.1-0.1,0.2-0.2,0.4c-0.1,0.1-0.1,0.2-0.2,0.4c-0.1,0.1-0.1,0.2-0.2,0.4c-0.1,0.1-0.1,0.2-0.2,0.3c-0.1,0.1-0.1,0.3-0.2,0.4
			c0,0.1-0.1,0.2-0.1,0.2c-0.1,0.2-0.2,0.4-0.4,0.6c-5.1,8-11.7,11.8-13.5,10.9s-0.3-4-0.3-4s-4.2,5.2-7.5,4.9
			c-3.3-0.3-0.6-5.6-0.6-5.6s-5.8,5.6-9.2,2.7C62.2,265.6,71.6,260.9,73.9,250.7z"/>
	</g>
	<g>
		<path class="st41" d="M92,397.4c0,0-3.3,11.7-5.2,14.8c-1.9,3.1-2.4,7.2-2.3,9.6s9,23.3,9.1,25c0.1,1.6-2,3.8-1.8,6.5
			c0.3,2.7,1.4,5,1.9,6.6s0.4,3.3,0.4,3.3s1.2,0.3,1.5-2.6c0.3-2.8-0.5-4.3-1.1-6.1c-0.5-1.8,1.2-3.7,1.2-5.6s-8.7-24.7-8.8-27.1
			s6.8-20.2,7.7-22.3C95.6,397.6,92,397.4,92,397.4z"/>
		<path class="st42" d="M98.8,399.2c0,0-0.7,19-1.4,21.6c-0.7,2.6-2,6.1-1.5,7.6s-0.5,21.3-0.5,25.2c0,3.9,0.1,7.7-0.3,8.5
			s-2.2,1.4-2.3,1.9c-0.1,0.5,1.6,0,4.2,0.1s7.9,0.3,7.9,0.3s-0.9-1.8-2.6-1.8s-4.7-0.8-4.7-0.8s0.9-33.2,1.2-35.3
			c0.3-2,3.5-27.3,3.5-27.3L98.8,399.2z"/>
		<path class="st43" d="M98.2,401.9c0,0,0,3.1-1.4,4.7c-1.3,1.6-2.3-1.6-2.3-1.6s-1.4,1.3-2.4,0.9c-0.9-0.4-1.4-2.3-1.4-2.3
			s-1.2,2-2.5,0.5c-1.3-1.4,3.6-5.3,3.6-5.3L98.2,401.9z"/>
		<path class="st44" d="M103.8,400.3c0,0,1.3,2.8,0.8,4.8s-2.8-0.5-2.8-0.5s-0.8,1.8-1.8,1.8s-2.3-1.5-2.3-1.5s-0.3,2.3-2,1.5
			c-1.8-0.8,1-6.3,1-6.3L103.8,400.3z"/>
		<path class="st43" d="M129,336.9c-0.8-9.9-15.2-12.9-23.2-4.8c-8.1,8.1-5.6,16.4,2,23.5s8.6,8.8,6.8,12.4
			c-1.8,3.5-9.1-19.5-33.1-15.7s-28,22.2-27,28.3c1,6.1,16.7,2.8,22.7,13.1s29.6,11.1,41.9-0.5c12.4-11.6,10.9-25.3,4.5-32.3
			s-11.6-11.6-9.6-15.2c2-3.5,7.1,1.8,7.1,1.8L129,336.9z"/>
		<g>
			<path class="st45" d="M121.1,347.5c0,0-5.1-5.3-7.1-1.8c-1.3,2.2,0.3,4.8,3.2,8.1c-5.1-3-11-9.6-6.5-13.9
				c4.8-4.6,12.3,1.8,13.7,3.1L121.1,347.5z"/>
			<path class="st45" d="M54.4,380.6c-0.1-0.6-0.1-1.3-0.1-2c0.2,0.1,0.4,0.3,0.6,0.5c5.8,5.6,13.6-1.3,19.2,4.5
				c5.6,5.8,13.1,9.6,33.1,8.8c13.7-0.5,19.1-10.2,21.1-16.2c-0.6,5.5-3.3,11.5-9.2,17c-12.4,11.6-35.9,10.9-41.9,0.5
				C71.1,383.4,55.4,386.7,54.4,380.6z"/>
		</g>
		<path class="st44" d="M127.3,340.6c0,0-2.9-2.4-4.2-5.9c-1.3-3.5-5.2-4.3-7.2-1.3s9.2,9.1,9.2,9.1L127.3,340.6z"/>
		<path class="st45" d="M81.5,352.3c24-3.8,31.3,19.2,33.1,15.7c1.8-3.5,0.8-5.3-6.8-12.4c-6.9-6.5-9.6-14-3.8-21.4
			c-2.4,4.3-3.5,9.9,2.1,15.1c11.1,10.4,14.4,15.4,11.1,20.7c-3.3,5.3-5.3,1-7.3,1s-10.6,7.8-17.4,7.3s-15.7,8.5-7.2,12.6
			c0.6,0.3-14.3-3.9-15.3-3.5c-6.8-3-14.7-2.7-15.4-6.9C53.4,374.6,57.5,356.1,81.5,352.3z"/>
		<path class="st11" d="M129,336.9c0,0,9.3,7.8,10.4,15.9c1,8.1-8.3,14.7-8.3,14.7s1-7.1-1.8-11.1s-8.1-8.8-8.1-8.8
			S124.4,339.4,129,336.9z"/>
		<path class="st39" d="M128.8,355.8c3.2-2.7,7.7-3.3,10.5-3.4c0,0.2,0.1,0.3,0.1,0.5c1,8.1-8.3,14.7-8.3,14.7s1-7.1-1.8-11.1
			C129.1,356.2,128.9,356,128.8,355.8z"/>
		<path class="st46" d="M121.1,347.5c0,0,1-2.5,2.7-5.1c3.4,3,8,7.6,9.7,11.4c2.8,6.3-2.5,13.6-2.5,13.6s1-7.1-1.8-11.1
			C126.4,352.3,121.1,347.5,121.1,347.5z"/>
		<path class="st40" d="M128.8,355.8c1.4-1.1,2.9-1.9,4.5-2.4c0.1,0.2,0.2,0.3,0.2,0.5c2.8,6.3-2.5,13.6-2.5,13.6s1-7.1-1.8-11.1
			C129.1,356.2,128.9,356,128.8,355.8z"/>
		<path class="st44" d="M103.1,357.4c-13.2-9.1-29.8-6.3-40.9-1.2c-11.1,5.1-19.5,14.4-19.5,16.9s5.6-2.3,5.6-2.3S40,384.3,41.5,389
			s7.3-7.6,7.3-7.6s-4,15.7-2.5,17.7s5.3-13.9,7.9-16.9c0,0-1.7,8.6,0,9.9s2.7-8.8,8.7-14.7c0,0-6.8,10.2-2.8,11.7s3.5-9,17.2-13.6
			c0,0-7.1,5.3-5.2,6.8s9.2-5,21.1-6.8C105.2,373.6,114.5,365.2,103.1,357.4z"/>
		<path class="st43" d="M52.7,377.1c-1,3-5.3-2.5,1.8-10.9c3.8-4.5,9-10.3,17.1-13.3c9.4-2.3,20.4-2.3,29.9,3.4
			c1.4,2.1,2.3,5.2-1.3,8.2c-6.3,5.3-19.4,4.2-26.3,7.1c-4.3,1.8-1.8-3.8,2.3-5.1c0,0-12.1,3.8-15.4,9.1c-3,4.8-3.8-1-0.3-6.6
			C60.5,369,53.7,374.1,52.7,377.1z"/>
		<path class="st45" d="M93.6,356.4c0.6,4.5-5.6,2.3-13.4,4c-7.8,1.8-12.1,7.1-13.9,7.1s0.5-3.5,0.5-3.5s-4.5,4.8-6.8,2.5
			s5.4-8,19-11.6C87.5,352.6,93.3,354.6,93.6,356.4z"/>
		<circle class="st39" cx="119.6" cy="334.6" r="1.4"/>
		<circle class="st11" cx="120.3" cy="334.2" r="0.3"/>
	</g>
	<g>
		<path class="st47" d="M195.7,112.1c0,0,1.8,16.6-5.9,31.4c-2.2,4.3-2.9-2.3-2.9-2.3s-4.2,12.4-10,12.5c-2.3,0-0.3-7.7-0.3-7.7
			s-1.8,9-6.5,9.1s1.5-14.4,1.5-14.4s-2.8,2.2-4.4,1.4c-1.7-0.8,8.8-14.8,14.8-32.8C188,91.2,195.7,112.1,195.7,112.1z"/>
		<path class="st48" d="M167.2,142.1c-0.7-0.4,1-3.4,3.6-8.3c0,1.7,0,4.2,0.9,4.5c1.3,0.5,3.4-3.7,3.4-3.7s-2.7,10.5-1,11.2
			s4.1-5.8,4.1-5.8s-1.6,5.1,1.1,6.2c2.7,1,7.7-11.7,7.7-11.7s0.7,3.7,3.1,4.1c0.9,0.1,1.9-0.9,2.8-2.3c-0.8,2.4-1.8,4.8-3,7.1
			c-2.2,4.3-2.9-2.3-2.9-2.3s-4.2,12.4-10,12.5c-1.8,0-1-4.7-0.5-6.7c-0.6,2.3-2.5,8.1-6.3,8.2c-4.7,0.1,1.5-14.4,1.5-14.4
			S168.9,143,167.2,142.1z"/>
		<path class="st37" d="M224,118.8c0,0-23,5.6-30.9,7.1c-7.8,1.5-21.8,4-22.5,4.3s0.3,1.6-0.5,1.9c-0.7,0.4-0.8,1.3-1.2,2
			s0.1,1.5,0.1,1.5s51.3-11.2,52.2-11.5s0.8-1.2,1.4-1.5c0.6-0.2,0.8-0.2,1.2-1.2c0.4-1.1,1.3-0.5,1.4-1.2
			C225.4,119.6,224.6,118.9,224,118.8z"/>
		<path class="st38" d="M171.2,133.4c0.5-0.1,5.7-0.7,7.4-1.1c1.7-0.4,40-8.8,41.1-9.1c1.1-0.2,1.3-1.5,2.2-1.5c0.9-0.1,2-0.3,2-0.3
			c-0.4,1.1-0.6,1-1.2,1.2c-0.6,0.2-0.5,1.2-1.4,1.5s-52.2,11.5-52.2,11.5s-0.5-0.8-0.1-1.5s0.5-1.6,1.2-2
			C170.8,132.7,170.8,133.5,171.2,133.4z"/>
		<path class="st41" d="M204.9,122.6c1.5,0.1,4,3.1,3.5,5.1c-0.1,0.6-0.9,1.2-1.4,0.6c0,0-0.8,1.2-1.5,0.9s-0.9-0.6-0.9-0.6
			s-0.2,0.9-0.9,0.8c-0.7-0.1-0.6-3.8-2.2-4.9C201.6,124.6,203.3,122.4,204.9,122.6z"/>
		<path class="st49" d="M204,129.4c-0.1,0-0.2,0-0.3,0c-0.7-0.1-0.6-3.8-2.2-4.9c0,0,1.7-2.2,3.4-2c0.7,0.1,1.7,0.8,2.4,1.7
			c-0.5-0.3-1-0.5-1.2-0.3c-0.4,0.4,0.8,1.8,0.8,2.8c0,0-1.4-2.2-2-1.6c-0.6,0.5-0.2,2-0.2,2s-0.7-1.4-1.2-1.2c-0.5,0.3,0,2,0.1,2.4
			C203.6,128.7,203.8,129.1,204,129.4z"/>
		<path class="st41" d="M195.9,124.5c1.5,0.4,3.3,3.8,2.4,5.7c-0.3,0.5-1.1,1-1.5,0.3c0,0-1,1-1.6,0.6s-0.8-0.7-0.8-0.7
			s-0.4,0.9-1.1,0.6c-0.7-0.2,0.2-3.8-1.1-5.2C192.2,125.8,194.3,124,195.9,124.5z"/>
		<path class="st49" d="M193.6,131c-0.1,0-0.2,0-0.3,0c-0.7-0.2,0.2-3.8-1.1-5.2c0,0,2.1-1.8,3.7-1.3c0.7,0.2,1.5,1.1,2,2.2
			c-0.4-0.4-0.9-0.7-1.1-0.6c-0.4,0.3,0.4,1.9,0.2,2.9c0,0-1-2.4-1.6-2c-0.7,0.4-0.6,1.9-0.6,1.9s-0.4-1.5-1-1.4
			c-0.5,0.2-0.4,1.9-0.4,2.4C193.4,130.2,193.4,130.6,193.6,131z"/>
		<path class="st47" d="M212.9,71.5c-1.7-5.8-11.3-9.8-20-4.1c-8.6,5.7-16.1,40.8-12.7,50.7c3.4,9.8,26.2,10.5,29.5,0.6
			c3.4-9.9-0.1-23.7-0.6-30.8S212.9,71.5,212.9,71.5z"/>
		<path class="st48" d="M180.3,118.1c-3.4-9.8,4-45,12.7-50.7c2.6-1.7,5.3-2.5,7.9-2.7c-2.8,1.2-6.7,4.3-9,12.6
			c-3.9,14-2.8,27.2,3.4,34.1c5.1,5.7,13.1,4.4,16,0c-0.2,2.6-0.6,5-1.4,7.3C206.4,128.6,183.7,127.9,180.3,118.1z"/>
		<path class="st50" d="M195.4,83.4c-0.1-1.4,0.8-1,2.4-2.3c1.6-1.4,0.8-4,2.6-8.8s9.7-2.1,9.7-2.1l2.6,0.7c0.1,0.2,0.2,0.4,0.2,0.7
			c0,0-4.1,9.3-3.7,16.4c0.5,7.1,4,20.8,0.6,30.8c-0.8,2.3-2.7,4.1-5.1,5.3c-4.3-5.5-6.5-8.4-4.5-13.7c2.2-5.8,2.5-17.3-0.3-20.6
			C197.1,86.4,195.4,84.7,195.4,83.4z"/>
		<path class="st11" d="M213.2,72.7c0,0-5.4-3.4-9-1.5s-0.1,5.7-1,8.2s3.3,7.3,6.6,6.9C213,85.9,213.2,72.7,213.2,72.7z"/>
		<path class="st51" d="M209.5,119.5c-0.1,0.3-0.3,0.5-0.4,0.7v0.1c-0.1,0.2-0.3,0.5-0.5,0.7c0,0,0,0.1-0.1,0.1
			c-0.2,0.2-0.4,0.4-0.6,0.6c0,0,0,0.1-0.1,0.1c-0.2,0.2-0.4,0.4-0.6,0.6c0,0-0.1,0-0.1,0.1c-0.2,0.2-0.5,0.4-0.7,0.5c0,0,0,0-0.1,0
			c-0.2,0.2-0.5,0.3-0.8,0.5l0,0c-0.3,0.2-0.6,0.3-0.9,0.5l0,0c-3-3.9-5-6.5-5.2-9.6c4.6,1.9,9.6,0.3,11.7-3c0,0.3,0,0.6-0.1,0.9
			v0.1c0,0.3-0.1,0.5-0.1,0.8c0,0.1,0,0.1,0,0.2c0,0.2-0.1,0.5-0.1,0.7c0,0.1,0,0.2,0,0.3c0,0.2-0.1,0.4-0.1,0.7
			c0,0.1,0,0.2-0.1,0.3c0,0.2-0.1,0.4-0.1,0.6c0,0.1-0.1,0.3-0.1,0.4c0,0.2-0.1,0.3-0.1,0.5s-0.1,0.4-0.1,0.5s-0.1,0.2-0.1,0.4
			c-0.1,0.3-0.2,0.6-0.3,0.9C209.7,119,209.6,119.2,209.5,119.5L209.5,119.5z"/>
		<path class="st47" d="M199.4,86.5c9,2.6,3.5,26.1-1.3,33.5c-4.7,7.5-10.9,11.1-12.6,10.2c-1.7-0.9-0.3-3.8-0.3-3.8
			s-3.9,4.9-7.1,4.6c-3.1-0.3-0.5-5.2-0.5-5.2s-5.4,5.3-8.6,2.5c-1.8-1.6,7-6,9.1-15.5C180.3,103.3,185,82.4,199.4,86.5z"/>
		<path class="st39" d="M212.9,71.5c-1.3,0.7-6.6,8.1-3.7,16.4c0,0,2.4-3.1,5.5-3.2s2.5,3.8,2.5,3.8s3.6-1.6,3.3-8.7
			C220.2,72.8,212.9,71.5,212.9,71.5z"/>
		<path class="st40" d="M209.2,87.9c-1-2.9-1-5.6-0.6-8.1c1.6,0.6,3.9,0.2,7.3,2.6c4.4,3.1,1.3,6,1.3,6s0.6-3.9-2.5-3.8
			C211.6,84.8,209.2,87.9,209.2,87.9z"/>
		<path class="st40" d="M217.8,78.7c-0.1,0.6-1.3-0.2-1.3-0.7C216.4,77.5,217.8,78.3,217.8,78.7z"/>
		<path class="st48" d="M185.5,130.2c-1.7-0.9-0.3-3.8-0.3-3.8s-3.9,4.9-7.1,4.6c-3.1-0.3-0.5-5.2-0.5-5.2s-5.4,5.3-8.6,2.5
			c-1.8-1.6,7-6,9.1-15.5c1.9-8.3,5.8-25.4,16.3-26.7c-2.7,1.4-6.4,4.8-8.4,12.5c-3.5,13.3-8.5,19.9-9,22.2
			c-0.5,2.3,2.5,2.3,5.8-1.9c0,0-3.3,5.3-2,7.8c1.3,2.5,9.4-8.2,9.4-8.2s-3.5,5.1-2,7.1c1.3,1.7,8.1-3.2,12.5-11
			c-0.8,2.2-1.7,4-2.5,5.4C193.4,127.5,187.2,131.1,185.5,130.2z"/>
		<path class="st50" d="M179.8,105.9c-0.1,3.3,0.2,6.9,2.1,7.4c1.6,0.4,3.9-4.4,3.9-4.4s-2.3,7.8,0.3,8.7c2.6,0.9,8-8.3,8-8.3
			s-3.1,6.4,0.9,8c2.3,0.9,4.4-1.1,5.9-3.1c-0.9,2.3-1.8,4.3-2.7,5.7c-4.7,7.5-10.9,11.1-12.6,10.2c-1.7-0.9-0.3-3.8-0.3-3.8
			s-3.9,4.9-7.1,4.6c-3.1-0.3-0.5-5.2-0.5-5.2s-5.4,5.3-8.6,2.5c-1.8-1.6,7-6,9.1-15.5C178.6,110.9,179.1,108.5,179.8,105.9z"/>
		<path class="st51" d="M178.2,112.8c0.1-0.2,0.1-0.5,0.2-0.8c0-0.1,0-0.2,0.1-0.3c0-0.2,0.1-0.4,0.1-0.6c0-0.1,0.1-0.2,0.1-0.4
			c0-0.2,0.1-0.3,0.1-0.5c0-0.1,0.1-0.3,0.1-0.4c0-0.2,0.1-0.3,0.1-0.5c0-0.1,0.1-0.3,0.1-0.4c0-0.2,0.1-0.3,0.1-0.5
			c0-0.1,0.1-0.3,0.1-0.4c0-0.2,0.1-0.3,0.1-0.5s0.1-0.3,0.1-0.5s0.1-0.3,0.1-0.5s0.1-0.3,0.1-0.5c0-0.1,0-0.1,0.1-0.2
			c-0.1,2.7,0.1,5.5,1.1,6.7c-2,4.2-3.6,6.8-3.9,8.1c-0.5,2.3,2.5,2.3,5.8-1.9c0,0-3.3,5.3-2,7.8c1.3,2.5,9.4-8.2,9.4-8.2
			s-3.5,5.1-2,7.1c1.3,1.7,8.1-3.2,12.4-11c0,0.1,0,0.1-0.1,0.2c-0.1,0.2-0.1,0.3-0.2,0.5c0,0.1-0.1,0.2-0.1,0.3
			c-0.1,0.2-0.1,0.3-0.2,0.5c0,0.1-0.1,0.2-0.1,0.3c-0.1,0.1-0.1,0.3-0.2,0.4c0,0.1-0.1,0.2-0.1,0.3c-0.1,0.1-0.1,0.3-0.2,0.4
			c-0.1,0.1-0.1,0.2-0.2,0.3c-0.1,0.1-0.1,0.2-0.2,0.3c-0.1,0.1-0.1,0.2-0.2,0.3c-0.1,0.1-0.1,0.2-0.2,0.3c-0.1,0.1-0.1,0.3-0.2,0.4
			c0,0.1-0.1,0.1-0.1,0.2c-0.1,0.2-0.2,0.4-0.3,0.5c-4.7,7.5-10.9,11.1-12.6,10.2c-1.7-0.9-0.3-3.8-0.3-3.8s-3.9,4.9-7.1,4.6
			c-3.1-0.3-0.5-5.2-0.5-5.2s-5.4,5.3-8.6,2.5C167.2,126.7,176,122.3,178.2,112.8z"/>
		<circle class="st39" cx="205.7" cy="73.5" r="1.7"/>
		<circle class="st11" cx="206.5" cy="72.9" r="0.4"/>
	</g>
	<g>
		<path class="st52" d="M354.4,60c0.8-1.9,3.6-21.1,2.3-25.4c-1.3-4.3-4.4-12.7-5.3-12.6s-1,3-1,3s-0.8-0.5-1.4,0.4s0.1,2.3,0.1,2.3
			s-1.2-0.2-1.7,0.6c-0.5,0.8,0.5,3.5,0.5,3.5s-1.5-0.6-1.9,0.4c-0.4,0.9,0,2,0.2,3.3s-1.1,5.5-0.9,5.8s-1.2-1.3-1.7-0.7
			s-0.4,2.7,0.3,3.7c0,0-1.3,0.4-1.6,1c-0.3,0.5,0.3,2.3,0.8,3.2c0,0-1.2,0.1-1.5,0.6s1.3,2,1.5,2.7c0,0-1.1,0.2-1.5,0.7
			c-0.5,0.6,1.6,1.9,2.1,2.7c0,0-1.4-0.2-1.6,0.7s1.1,1,1.5,1.9c0,0-1.4,0.4-1.3,1c0.2,0.7,1.4,0.5,1.8,1.3s1.2,2.5,1.9,3
			C346.7,63.3,354.4,60,354.4,60z"/>
		<path class="st53" d="M351.4,59.1c-0.9-1.9-17.3-17.2-23.5-19.1c-6.2-2-19-5.4-20.1-4.6c-1.1,0.8,1.8,2.8,1.8,2.8
			s-1.6,0.2-1.4,1.3s2.6,1.4,2.6,1.4s-1.7,0.8-1.6,1.7c0.1,1,4.2,2,4.2,2s-2.6,0.8-2.1,1.7s2.1,1.4,3.6,2.1c1.6,0.7,4.4,4.6,4.9,4.6
			s-2.9,0.1-2.9,0.8s2.3,2.1,4.2,2.3c0,0-1.3,1.3-1.1,1.9c0.2,0.6,2.8,1.4,4.4,1.5c0,0-1.4,1-1.4,1.6c0.1,0.6,3.7,0.4,4.8,0.7
			c0,0-1.2,0.9-1.2,1.7c0,0.7,4.1,0.1,5.6,0.2c0,0-1.9,0.9-1.3,1.7c0.6,0.8,2.6-0.2,3.9,0.1c0,0-1.5,1.3-0.6,1.7
			c0.9,0.3,2.3-0.7,3.7-0.5c1.4,0.3,4.2,0.8,5.5,0.6S351.4,59.1,351.4,59.1z"/>
		<path class="st52" d="M313.6,38.4c0,0-1.5,0.1-0.9,1.1c0.5,1,2.4,1.1,2.4,1.1s-2.1,1.6-1.3,2.2c0.8,0.6,4.4,2,4.4,2
			s-2.6,1.4-0.9,2s6.9,3.3,6.9,3.3s-1.8,1-1.1,2.1c0.7,1.1,4.7,1.7,4.7,1.7s-3,1.8-1.8,3.1s6.8,1,6.8,1s-3.8,1.5-2.6,2.4
			c1.2,0.9,4.7-0.8,4.7-0.8s-1.4,2.3-0.4,2.8c0.9,0.5,2.6-0.4,2.6-0.4s-1,1.5,0.1,2.2s2-1.3,4.4-0.8c1.8,0.4,6.6-1.7,8.8-2.7
			c-2,2.4-5.7,6.7-6.6,6.8c-1.3,0.2-4.1-0.3-5.5-0.6c-1.4-0.3-2.8,0.8-3.7,0.5c-0.9-0.3,0.6-1.7,0.6-1.7c-1.4-0.3-3.3,0.6-3.9-0.1
			c-0.6-0.8,1.3-1.7,1.3-1.7c-1.5-0.1-5.6,0.5-5.6-0.2s1.2-1.7,1.2-1.7c-1-0.3-4.7-0.1-4.8-0.7c-0.1-0.6,1.4-1.6,1.4-1.6
			c-1.6-0.1-4.2-0.9-4.4-1.5c-0.2-0.6,1.1-1.9,1.1-1.9c-1.9-0.2-4.2-1.6-4.2-2.3s3.4-0.8,2.9-0.8s-3.3-3.9-4.9-4.6
			c-1.6-0.7-3.1-1.2-3.6-2.1c-0.5-0.9,2.1-1.7,2.1-1.7s-4.1-1.1-4.2-2c-0.1-1,1.6-1.7,1.6-1.7s-2.4-0.4-2.6-1.4
			c-0.2-1.1,1.4-1.3,1.4-1.3s-2.9-2-1.8-2.8C309,37.3,313.6,38.4,313.6,38.4z"/>
		<path class="st53" d="M365.5,52.7c7.9,0.2,7.7,7.6,7,9.3c-0.7,1.7-6.3,1.4-8.2,1.8c-1.9,0.4-1.7,6.4-8.9,10
			c-7.2,3.6-10.9,4.8-12.6,9.9s-3.2,7.6-4.6,7.7c-1.3,0.1-1.2-3-1.2-3s-2.9,4.4-4.4,4s-0.9-3.5-0.9-3.5s-2,2.4-3.5,1.4
			s1.2-4.4,1.2-4.4s-3.5,3.4-5.1,1.7c-1.6-1.7,2.9-4.1,2.9-4.1s-3.8,1.1-4.3-0.8s3.5-3,3.5-3s-3.8,0.1-4-1.8s12.9-3.6,16.1-5.2
			C341.7,71,344.9,52.2,365.5,52.7z"/>
		<path class="st52" d="M322.9,82.6c-0.5-1.9,3.5-3,3.5-3s-3.8,0.1-4-1.8c-0.1-1,3.2-1.9,6.9-2.7c-1.8,1-3.8,2.3-3.4,2.9
			c0.7,1.1,4,0.2,4,0.2s-3.2,1.7-2.7,3.1s3,0.1,3,0.1s-1.7,1.1-0.9,2.2c0.8,1.1,2.5-0.5,2.5-0.5s-1.4,2.1-0.3,2.9s2.5-1.2,2.5-1.2
			s-0.4,2.9,0.9,3.2c1.3,0.3,2.6-3.8,2.6-3.8s0.7,2.2,1.8,2.2c1.1,0,1-8.3,3.6-8.9c2.6-0.7,5.9-6.2,8.7-11.2
			c2.8-5,10.5-6.3,13.6-5.6c2.8,0.7,7,0.3,7.6,0.3c-0.1,0.4-0.1,0.8-0.2,1c-0.7,1.7-6.3,1.4-8.2,1.8c-1.9,0.4-1.7,6.4-8.9,10
			s-10.9,4.8-12.6,9.9c-1.6,5.2-3.2,7.6-4.6,7.7c-1.3,0.1-1.2-3-1.2-3s-2.9,4.4-4.4,4s-0.9-3.5-0.9-3.5s-2,2.4-3.5,1.4
			s1.2-4.4,1.2-4.4s-3.5,3.4-5.1,1.7c-1.6-1.7,2.9-4.1,2.9-4.1S323.5,84.5,322.9,82.6z"/>
		<path class="st39" d="M380.9,70.7c0,0-3.7-7.4-7.6-9.9c-1.4-0.9-2.9,1.3-2.2,2C371.8,63.6,377.7,67,380.9,70.7z"/>
		<path class="st40" d="M371.4,61.2c0.5,0.7,1.3,1.7,3.2,2.9c3,1.9,6.3,6.5,6.3,6.5c-3.2-3.7-9.1-7.1-9.8-7.9
			C370.8,62.4,371,61.7,371.4,61.2z"/>
		<ellipse transform="matrix(0.2742 -0.9617 0.9617 0.2742 212.7477 397.6781)" class="st39" cx="369.8" cy="57.9" rx="1" ry="1"/>
		
			<ellipse transform="matrix(0.2742 -0.9617 0.9617 0.2742 213.3405 398.0315)" class="st11" cx="370.4" cy="57.7" rx="0.2" ry="0.2"/>
	</g>
	<path class="st54" d="M117.8,462.8c-4.2-0.6-5.8-3.8-5.8-3.8s-2.3,2.9-6.1,2.9c-4.2,0-6-3.8-6-3.8l0,0c0,0-1.8,3.8-6,3.8
		c-3.8,0-6.1-2.9-6.1-2.9s-1.6,3.3-5.8,3.8c-3.5,0.5-5.9-1.2-5.9-1.2s1.8,3.7,5.9,3.7c4.2-0.1,5.8-2,5.8-2s2,2.8,5.8,3
		c4.1,0.3,6.3-2.3,6.3-2.3l0,0c0,0,2.2,2.5,6.3,2.3c3.8-0.3,5.8-3,5.8-3s1.6,1.9,5.8,2c4,0.1,5.9-3.7,5.9-3.7
		S121.4,463.3,117.8,462.8z"/>
	<path class="st54" d="M220.8,485.5c-7.3-1-10-6.6-10-6.6s-4,5-10.6,5c-7.2,0-10.4-6.6-10.4-6.6l0,0c0,0-3.2,6.6-10.4,6.6
		c-6.6,0-10.6-5-10.6-5s-2.7,5.6-10,6.6c-6.1,0.8-10.2-2-10.2-2s3.2,6.5,10.2,6.4c7.2-0.1,10-3.4,10-3.4s3.4,4.8,10,5.3
		c7.1,0.5,10.9-3.9,10.9-3.9l0,0c0,0,3.8,4.4,10.9,3.9c6.6-0.4,10-5.3,10-5.3s2.8,3.3,10,3.4c7,0.1,10.2-6.4,10.2-6.4
		S226.9,486.4,220.8,485.5z"/>
	<path class="st54" d="M377.6,437.5c-4-0.5-5.5-3.7-5.5-3.7s-2.2,2.8-5.8,2.8c-4,0-5.7-3.6-5.7-3.6l0,0c0,0-1.7,3.6-5.7,3.6
		c-3.6,0-5.8-2.8-5.8-2.8s-1.5,3.1-5.5,3.7c-3.4,0.5-5.6-1.1-5.6-1.1s1.7,3.6,5.6,3.5c4-0.1,5.5-1.9,5.5-1.9s1.9,2.7,5.5,2.9
		c3.9,0.3,6-2.2,6-2.2l0,0c0,0,2.1,2.4,6,2.2c3.6-0.2,5.5-2.9,5.5-2.9s1.5,1.8,5.5,1.9c3.9,0.1,5.6-3.5,5.6-3.5
		S381,437.9,377.6,437.5z"/>
	<path class="st54" d="M392.1,448.1c-1.9-0.3-2.6-1.7-2.6-1.7s-1,1.3-2.8,1.3c-1.9,0-2.7-1.7-2.7-1.7l0,0c0,0-0.8,1.7-2.7,1.7
		c-1.7,0-2.8-1.3-2.8-1.3s-0.7,1.5-2.6,1.7c-1.6,0.2-2.7-0.5-2.7-0.5s0.8,1.7,2.7,1.7c1.9,0,2.6-0.9,2.6-0.9s0.9,1.3,2.6,1.4
		c1.9,0.1,2.9-1,2.9-1l0,0c0,0,1,1.2,2.9,1c1.7-0.1,2.6-1.4,2.6-1.4s0.7,0.9,2.6,0.9c1.8,0,2.7-1.7,2.7-1.7S393.7,448.3,392.1,448.1
		z"/>
</g>
</svg>
