<?xml version="1.0" encoding="utf-8"?>
<!-- Generator: Adobe Illustrator 19.2.1, SVG Export Plug-In . SVG Version: 6.00 Build 0)  -->
<svg version="1.1" id="Layer_1" xmlns="http://www.w3.org/2000/svg" xmlns:xlink="http://www.w3.org/1999/xlink" x="0px" y="0px"
	 viewBox="0 0 612 612" style="enable-background:new 0 0 612 612;" xml:space="preserve">
<style type="text/css">
	.st0{fill:#1BB177;}
	.st1{fill:#57C2B1;}
	.st2{fill:#B12A37;}
	.st3{fill:#F05765;}
	.st4{fill:#F37684;}
	.st5{fill:#640E17;}
	.st6{fill:#86D5F7;}
	.st7{fill:#FFD35B;}
	.st8{fill:#FFC935;}
	.st9{fill:#EF3747;}
	.st10{fill:#E9ECF0;}
	.st11{fill:#354A60;}
	.st12{fill:#F3F3F3;}
	.st13{fill:#DFDFDF;}
	.st14{fill:#FFFFFF;}
	.st15{fill:#388175;}
	.st16{fill:#363B48;}
	.st17{fill:#374251;}
	.st18{fill:#FFD55C;}
	.st19{fill:#424143;}
	.st20{fill:#525355;}
	.st21{fill:#3F4B5A;}
	.st22{fill:#040305;}
	.st23{fill:#1E7F66;}
	.st24{fill:#010101;}
</style>
<g>
	<circle class="st0" cx="306" cy="306" r="306"/>
	<g>
		<path class="st1" d="M535.3,306.7c0-0.1,0-0.3,0-0.4c0-2.2,0-4.5-0.1-6.7c0-0.9-0.8-1.6-1.7-1.6c-0.9,0-1.6,0.8-1.6,1.7
			c0.1,2.2,0.1,4.4,0.1,6.6c0,0.1,0,0.3,0,0.4c0,0.9,0.7,1.7,1.7,1.7C534.6,308.3,535.3,307.6,535.3,306.7L535.3,306.7 M534.9,320
			c0.1-2.2,0.2-4.4,0.3-6.7c0-0.9-0.7-1.7-1.6-1.7c-0.9,0-1.7,0.7-1.7,1.6c-0.1,2.2-0.2,4.4-0.3,6.6c-0.1,0.9,0.6,1.7,1.6,1.8
			C534.1,321.6,534.9,320.9,534.9,320 M533.8,333.3c0.3-2.2,0.5-4.4,0.7-6.6c0.1-0.9-0.6-1.7-1.5-1.8c-0.9-0.1-1.7,0.6-1.8,1.5
			c-0.2,2.2-0.4,4.4-0.7,6.6c-0.1,0.9,0.5,1.7,1.5,1.8C532.8,334.9,533.7,334.2,533.8,333.3 M531.8,346.5c0.4-2.2,0.7-4.4,1.1-6.6
			c0.1-0.9-0.5-1.8-1.4-1.9c-0.9-0.1-1.8,0.5-1.9,1.4c-0.3,2.2-0.7,4.3-1.1,6.5c-0.2,0.9,0.4,1.8,1.3,1.9
			C530.8,348,531.7,347.4,531.8,346.5 M529.1,359.6c0.5-2.2,1-4.3,1.5-6.5c0.2-0.9-0.4-1.8-1.3-2c-0.9-0.2-1.8,0.4-2,1.3
			c-0.4,2.2-0.9,4.3-1.4,6.4c-0.2,0.9,0.3,1.8,1.2,2C528,361.1,528.9,360.5,529.1,359.6 M525.6,372.5c0.6-2.1,1.3-4.3,1.8-6.4
			c0.2-0.9-0.3-1.8-1.2-2c-0.9-0.2-1.8,0.3-2,1.2c-0.6,2.1-1.2,4.2-1.8,6.3c-0.3,0.9,0.2,1.8,1.1,2.1
			C524.4,373.9,525.4,373.4,525.6,372.5 M521.4,385.2c0.8-2.1,1.5-4.2,2.2-6.3c0.3-0.9-0.2-1.8-1.1-2.1c-0.9-0.3-1.8,0.2-2.1,1.1
			c-0.7,2.1-1.4,4.2-2.2,6.2c-0.3,0.9,0.1,1.8,1,2.1C520.1,386.5,521.1,386.1,521.4,385.2 M516.5,397.6c0.9-2,1.7-4.1,2.6-6.1
			c0.3-0.9-0.1-1.8-0.9-2.2c-0.9-0.3-1.8,0.1-2.2,0.9c-0.8,2-1.7,4.1-2.5,6.1c-0.4,0.8,0,1.8,0.9,2.2
			C515.1,398.8,516.1,398.4,516.5,397.6L516.5,397.6 M510.8,409.7c1-2,2-4,2.9-6c0.4-0.8,0-1.8-0.8-2.2c-0.8-0.4-1.8,0-2.2,0.8
			c-0.9,2-1.9,4-2.9,5.9c-0.4,0.8-0.1,1.8,0.7,2.2C509.4,410.8,510.4,410.5,510.8,409.7 M504.4,421.4c1.1-1.9,2.2-3.9,3.3-5.8
			c0.4-0.8,0.1-1.8-0.7-2.3c-0.8-0.4-1.8-0.1-2.3,0.7c-1,1.9-2.1,3.8-3.2,5.7c-0.5,0.8-0.2,1.8,0.6,2.3
			C503,422.4,504,422.2,504.4,421.4 M497.4,432.7c1.2-1.9,2.4-3.7,3.6-5.6c0.5-0.8,0.2-1.8-0.5-2.3c-0.8-0.5-1.8-0.2-2.3,0.5
			c-1.2,1.9-2.3,3.7-3.5,5.5c-0.5,0.8-0.3,1.8,0.5,2.3C495.9,433.7,496.9,433.5,497.4,432.7 M489.7,443.6c1.3-1.8,2.6-3.6,3.9-5.4
			c0.5-0.8,0.3-1.8-0.4-2.3c-0.8-0.5-1.8-0.3-2.3,0.4c-1.3,1.8-2.5,3.6-3.9,5.3c-0.5,0.7-0.4,1.8,0.3,2.3
			C488.2,444.5,489.2,444.4,489.7,443.6 M481.4,454.1c1.4-1.7,2.8-3.4,4.2-5.2c0.6-0.7,0.5-1.8-0.3-2.3c-0.7-0.6-1.8-0.5-2.3,0.3
			c-1.4,1.7-2.8,3.4-4.2,5.1c-0.6,0.7-0.5,1.8,0.2,2.3C479.8,454.9,480.9,454.8,481.4,454.1 M472.6,464c1.5-1.6,3-3.3,4.5-4.9
			c0.6-0.7,0.6-1.7-0.1-2.3c-0.7-0.6-1.7-0.6-2.3,0.1c-1.5,1.6-2.9,3.3-4.5,4.8c-0.6,0.7-0.6,1.7,0.1,2.4
			C470.9,464.7,471.9,464.7,472.6,464L472.6,464 M463.1,473.5c1.6-1.5,3.2-3.1,4.8-4.7c0.6-0.6,0.7-1.7,0-2.4
			c-0.6-0.7-1.7-0.7-2.4,0c-1.6,1.6-3.1,3.1-4.7,4.6c-0.7,0.6-0.7,1.7-0.1,2.4C461.4,474.1,462.4,474.1,463.1,473.5 M453.1,482.4
			c1.7-1.4,3.4-2.9,5.1-4.4c0.7-0.6,0.7-1.7,0.1-2.3c-0.6-0.7-1.7-0.7-2.3-0.1c-1.6,1.5-3.3,2.9-5,4.3c-0.7,0.6-0.8,1.6-0.2,2.3
			C451.4,482.9,452.4,483,453.1,482.4L453.1,482.4 M442.6,490.7c1.8-1.3,3.6-2.7,5.3-4.1c0.7-0.6,0.8-1.6,0.3-2.3
			c-0.6-0.7-1.6-0.8-2.3-0.3c-1.7,1.4-3.5,2.7-5.2,4c-0.7,0.5-0.9,1.6-0.3,2.3C440.8,491.1,441.9,491.2,442.6,490.7L442.6,490.7
			 M431.7,498.3c1.9-1.2,3.7-2.5,5.5-3.8c0.8-0.5,0.9-1.6,0.4-2.3c-0.5-0.8-1.6-0.9-2.3-0.4c-1.8,1.3-3.6,2.5-5.5,3.7
			c-0.8,0.5-1,1.5-0.5,2.3C429.9,498.6,430.9,498.8,431.7,498.3L431.7,498.3 M420.3,505.4c1.9-1.1,3.8-2.3,5.7-3.4
			c0.8-0.5,1-1.5,0.5-2.3c-0.5-0.8-1.5-1-2.3-0.5c-1.9,1.2-3.8,2.3-5.7,3.4c-0.8,0.5-1.1,1.5-0.6,2.3
			C418.5,505.5,419.5,505.8,420.3,505.4 M408.5,511.7c2-1,4-2,5.9-3.1c0.8-0.4,1.1-1.4,0.7-2.3c-0.4-0.8-1.4-1.1-2.3-0.7
			c-1.9,1-3.9,2.1-5.9,3c-0.8,0.4-1.2,1.4-0.7,2.2C406.7,511.8,407.7,512.1,408.5,511.7 M396.3,517.4c2.1-0.9,4.1-1.8,6.1-2.7
			c0.8-0.4,1.2-1.4,0.8-2.2c-0.4-0.8-1.4-1.2-2.2-0.8c-2,0.9-4,1.8-6,2.7c-0.8,0.4-1.2,1.3-0.9,2.2
			C394.5,517.3,395.5,517.7,396.3,517.4 M383.9,522.3c2.1-0.8,4.2-1.6,6.3-2.4c0.9-0.3,1.3-1.3,0.9-2.2c-0.3-0.9-1.3-1.3-2.2-0.9
			c-2,0.8-4.1,1.6-6.2,2.3c-0.9,0.3-1.3,1.3-1,2.1C382.1,522.2,383,522.6,383.9,522.3 M371.2,526.5c2.1-0.6,4.3-1.3,6.4-2
			c0.9-0.3,1.3-1.2,1.1-2.1c-0.3-0.9-1.2-1.3-2.1-1.1c-2.1,0.7-4.2,1.3-6.3,2c-0.9,0.3-1.4,1.2-1.1,2.1
			C369.4,526.2,370.3,526.7,371.2,526.5 M358.3,529.9c2.2-0.5,4.3-1.1,6.5-1.6c0.9-0.2,1.4-1.1,1.2-2c-0.2-0.9-1.1-1.4-2-1.2
			c-2.1,0.6-4.2,1.1-6.4,1.6c-0.9,0.2-1.4,1.1-1.2,2C356.5,529.6,357.4,530.1,358.3,529.9 M345.2,532.6c2.2-0.4,4.4-0.8,6.6-1.2
			c0.9-0.2,1.5-1.1,1.3-2c-0.2-0.9-1.1-1.5-2-1.3c-2.1,0.4-4.3,0.8-6.5,1.2c-0.9,0.2-1.5,1-1.4,1.9
			C343.4,532.1,344.3,532.7,345.2,532.6 M331.9,534.5c2.2-0.3,4.4-0.5,6.6-0.9c0.9-0.1,1.5-1,1.4-1.9c-0.1-0.9-1-1.5-1.9-1.4
			c-2.2,0.3-4.3,0.6-6.5,0.8c-0.9,0.1-1.6,0.9-1.5,1.8C330.2,533.9,331,534.6,331.9,534.5L331.9,534.5 M318.6,535.6
			c2.2-0.1,4.5-0.3,6.7-0.5c0.9-0.1,1.6-0.9,1.5-1.8c-0.1-0.9-0.9-1.6-1.8-1.5c-2.2,0.2-4.4,0.3-6.6,0.5c-0.9,0.1-1.6,0.8-1.6,1.8
			C316.9,535,317.7,535.7,318.6,535.6 M305.3,536c0.1,0,0.2,0,0.3,0c2.1,0,4.2,0,6.4-0.1c0.9,0,1.6-0.8,1.6-1.7
			c0-0.9-0.8-1.6-1.7-1.6c-2.1,0.1-4.2,0.1-6.3,0.1c-0.1,0-0.2,0-0.3,0c-0.9,0-1.7,0.7-1.7,1.7C303.6,535.2,304.4,536,305.3,536
			 M291.9,535.6c2.2,0.1,4.4,0.2,6.7,0.3c0.9,0,1.7-0.7,1.7-1.6c0-0.9-0.7-1.7-1.6-1.7c-2.2-0.1-4.4-0.2-6.6-0.3
			c-0.9-0.1-1.7,0.6-1.8,1.6C290.3,534.7,291,535.5,291.9,535.6L291.9,535.6 M278.6,534.4c2.2,0.3,4.4,0.5,6.6,0.7
			c0.9,0.1,1.7-0.6,1.8-1.5c0.1-0.9-0.6-1.7-1.5-1.8c-2.2-0.2-4.4-0.4-6.6-0.7c-0.9-0.1-1.7,0.5-1.8,1.5
			C277,533.5,277.7,534.3,278.6,534.4 M265.4,532.5c2.2,0.4,4.4,0.7,6.6,1.1c0.9,0.1,1.8-0.5,1.9-1.4c0.1-0.9-0.5-1.8-1.4-1.9
			c-2.2-0.3-4.3-0.7-6.5-1c-0.9-0.2-1.8,0.4-1.9,1.3C263.9,531.4,264.5,532.3,265.4,532.5 M252.3,529.8c2.2,0.5,4.3,1,6.5,1.4
			c0.9,0.2,1.8-0.4,2-1.3c0.2-0.9-0.4-1.8-1.3-2c-2.2-0.4-4.3-0.9-6.4-1.4c-0.9-0.2-1.8,0.3-2,1.2
			C250.9,528.7,251.4,529.5,252.3,529.8 M239.4,526.3c2.1,0.6,4.3,1.2,6.4,1.8c0.9,0.2,1.8-0.3,2-1.2c0.2-0.9-0.3-1.8-1.2-2
			c-2.1-0.6-4.2-1.2-6.3-1.8c-0.9-0.3-1.8,0.2-2.1,1.1C238,525.1,238.5,526,239.4,526.3 M226.7,522.1c2.1,0.8,4.2,1.5,6.3,2.2
			c0.9,0.3,1.8-0.2,2.1-1.1c0.3-0.9-0.2-1.8-1.1-2.1c-2.1-0.7-4.2-1.4-6.2-2.2c-0.9-0.3-1.8,0.1-2.1,1
			C225.4,520.8,225.9,521.8,226.7,522.1L226.7,522.1 M214.3,517.1c2,0.9,4.1,1.7,6.1,2.6c0.9,0.3,1.8-0.1,2.2-0.9
			c0.3-0.9-0.1-1.8-0.9-2.2c-2-0.8-4.1-1.7-6.1-2.5c-0.8-0.4-1.8,0-2.2,0.9C213.1,515.8,213.5,516.8,214.3,517.1 M202.3,511.5
			c2,1,4,2,6,2.9c0.8,0.4,1.8,0,2.2-0.8c0.4-0.8,0-1.8-0.8-2.2c-2-0.9-4-1.9-5.9-2.9c-0.8-0.4-1.8-0.1-2.2,0.7
			C201.1,510.1,201.4,511.1,202.3,511.5 M190.5,505.1c1.9,1.1,3.9,2.2,5.8,3.3c0.8,0.4,1.8,0.1,2.3-0.7c0.4-0.8,0.1-1.8-0.7-2.3
			c-1.9-1-3.8-2.1-5.7-3.2c-0.8-0.5-1.8-0.2-2.3,0.6C189.5,503.7,189.7,504.7,190.5,505.1 M179.2,498.1c1.9,1.2,3.7,2.4,5.6,3.6
			c0.8,0.5,1.8,0.2,2.3-0.5c0.5-0.8,0.2-1.8-0.5-2.3c-1.9-1.2-3.7-2.3-5.5-3.5c-0.8-0.5-1.8-0.3-2.3,0.5
			C178.2,496.6,178.4,497.6,179.2,498.1 M168.3,490.4c1.8,1.3,3.6,2.6,5.4,3.9c0.8,0.5,1.8,0.3,2.3-0.4c0.5-0.8,0.3-1.8-0.4-2.3
			c-1.8-1.3-3.6-2.5-5.3-3.9c-0.7-0.6-1.8-0.4-2.3,0.3C167.4,488.8,167.5,489.9,168.3,490.4 M157.8,482.1c1.7,1.4,3.4,2.8,5.2,4.2
			c0.7,0.6,1.8,0.4,2.3-0.3c0.6-0.7,0.4-1.8-0.3-2.3c-1.7-1.4-3.4-2.7-5.1-4.2c-0.7-0.6-1.8-0.5-2.3,0.2
			C157,480.5,157.1,481.6,157.8,482.1L157.8,482.1 M147.9,473.3c1.6,1.5,3.3,3,4.9,4.5c0.7,0.6,1.7,0.6,2.3-0.1
			c0.6-0.7,0.6-1.7-0.1-2.3c-1.6-1.5-3.3-2.9-4.9-4.4c-0.7-0.6-1.7-0.6-2.4,0.1C147.2,471.6,147.2,472.6,147.9,473.3 M138.4,463.8
			c1.5,1.6,3.1,3.2,4.7,4.8c0.6,0.7,1.7,0.7,2.4,0s0.7-1.7,0-2.4c-1.6-1.6-3.1-3.1-4.6-4.7c-0.6-0.7-1.7-0.7-2.4-0.1
			C137.8,462.1,137.8,463.1,138.4,463.8 M129.5,453.8c1.4,1.7,2.9,3.4,4.4,5.1c0.6,0.7,1.7,0.7,2.3,0.1c0.7-0.6,0.7-1.7,0.1-2.4
			c-1.5-1.6-2.9-3.3-4.3-5c-0.6-0.7-1.6-0.8-2.3-0.2C129,452.1,128.9,453.1,129.5,453.8L129.5,453.8 M121.2,443.3
			c1.3,1.8,2.7,3.6,4.1,5.3c0.6,0.7,1.6,0.8,2.3,0.3c0.7-0.6,0.8-1.6,0.3-2.3c-1.4-1.7-2.7-3.5-4-5.2c-0.5-0.7-1.6-0.9-2.3-0.3
			C120.8,441.6,120.7,442.6,121.2,443.3 M113.6,432.4c1.2,1.9,2.5,3.7,3.8,5.5c0.5,0.8,1.6,0.9,2.3,0.4c0.8-0.5,0.9-1.6,0.4-2.3
			c-1.3-1.8-2.5-3.6-3.7-5.5c-0.5-0.8-1.5-1-2.3-0.5C113.3,430.6,113.1,431.6,113.6,432.4 M106.5,421c1.1,1.9,2.3,3.8,3.4,5.7
			c0.5,0.8,1.5,1,2.3,0.5c0.8-0.5,1-1.5,0.5-2.3c-1.2-1.9-2.3-3.8-3.4-5.7c-0.5-0.8-1.5-1.1-2.3-0.6
			C106.3,419.2,106.1,420.2,106.5,421 M100.2,409.2c1,2,2,4,3.1,5.9c0.4,0.8,1.4,1.1,2.3,0.7c0.8-0.4,1.1-1.4,0.7-2.3
			c-1-1.9-2.1-3.9-3-5.9c-0.4-0.8-1.4-1.2-2.2-0.7C100.1,407.4,99.8,408.4,100.2,409.2 M94.5,397.1c0.9,2.1,1.8,4.1,2.7,6.1
			c0.4,0.8,1.4,1.2,2.2,0.8c0.8-0.4,1.2-1.4,0.8-2.2c-0.9-2-1.8-4-2.7-6c-0.4-0.8-1.3-1.2-2.2-0.9C94.5,395.3,94.1,396.2,94.5,397.1
			 M89.6,384.6c0.8,2.1,1.6,4.2,2.4,6.3c0.3,0.9,1.3,1.3,2.2,0.9c0.9-0.3,1.3-1.3,0.9-2.2c-0.8-2-1.6-4.1-2.3-6.2
			c-0.3-0.9-1.3-1.3-2.1-1C89.7,382.8,89.3,383.8,89.6,384.6 M85.4,371.9c0.6,2.1,1.3,4.3,2,6.4c0.3,0.9,1.2,1.3,2.1,1.1
			c0.9-0.3,1.3-1.2,1.1-2.1c-0.7-2.1-1.3-4.2-2-6.3c-0.3-0.9-1.2-1.4-2.1-1.1C85.6,370.1,85.1,371,85.4,371.9L85.4,371.9 M81.9,359
			c0.5,2.2,1.1,4.3,1.6,6.5c0.2,0.9,1.1,1.4,2,1.2c0.9-0.2,1.4-1.1,1.2-2c-0.6-2.1-1.1-4.2-1.6-6.4c-0.2-0.9-1.1-1.4-2-1.2
			C82.3,357.2,81.7,358.1,81.9,359 M79.3,345.9c0.4,2.2,0.8,4.4,1.2,6.6c0.2,0.9,1.1,1.5,2,1.3c0.9-0.2,1.5-1.1,1.3-2
			c-0.4-2.1-0.8-4.3-1.2-6.5c-0.2-0.9-1-1.5-1.9-1.4C79.7,344.1,79.1,345,79.3,345.9 M77.4,332.7c0.3,2.2,0.5,4.4,0.9,6.6
			c0.1,0.9,1,1.5,1.9,1.4c0.9-0.1,1.5-1,1.4-1.9c-0.3-2.2-0.6-4.3-0.8-6.5c-0.1-0.9-0.9-1.6-1.8-1.5
			C77.9,330.9,77.3,331.8,77.4,332.7 M76.2,319.4c0.1,2.2,0.3,4.5,0.5,6.7c0.1,0.9,0.9,1.6,1.8,1.5c0.9-0.1,1.6-0.9,1.5-1.8
			c-0.2-2.2-0.3-4.4-0.5-6.6c-0.1-0.9-0.8-1.6-1.8-1.6C76.9,317.7,76.2,318.4,76.2,319.4 M75.9,306v0.2c0,2.2,0,4.3,0.1,6.5
			c0,0.9,0.8,1.6,1.7,1.6c0.9,0,1.6-0.8,1.6-1.7c-0.1-2.1-0.1-4.2-0.1-6.4V306c0-0.9-0.7-1.7-1.7-1.7
			C76.6,304.3,75.9,305.1,75.9,306L75.9,306 M76.2,292.7c-0.1,2.2-0.2,4.4-0.3,6.7c0,0.9,0.7,1.7,1.6,1.7c0.9,0,1.7-0.7,1.7-1.6
			c0.1-2.2,0.2-4.4,0.3-6.6c0.1-0.9-0.6-1.7-1.6-1.8C77.1,291,76.3,291.7,76.2,292.7 M77.4,279.3c-0.3,2.2-0.5,4.4-0.7,6.6
			c-0.1,0.9,0.6,1.7,1.5,1.8c0.9,0.1,1.7-0.6,1.8-1.5c0.2-2.2,0.4-4.4,0.7-6.6c0.1-0.9-0.5-1.7-1.5-1.8
			C78.3,277.8,77.5,278.4,77.4,279.3L77.4,279.3 M79.3,266.1c-0.4,2.2-0.7,4.4-1.1,6.6c-0.1,0.9,0.5,1.8,1.4,1.9
			c0.9,0.1,1.8-0.5,1.9-1.4c0.3-2.2,0.7-4.3,1-6.5c0.2-0.9-0.4-1.8-1.3-1.9C80.4,264.6,79.5,265.2,79.3,266.1 M82,253
			c-0.5,2.2-1,4.3-1.4,6.5c-0.2,0.9,0.4,1.8,1.3,2c0.9,0.2,1.8-0.4,2-1.3c0.4-2.2,0.9-4.3,1.4-6.4c0.2-0.9-0.3-1.8-1.2-2
			C83.1,251.6,82.3,252.1,82,253 M85.5,240.1c-0.6,2.1-1.2,4.3-1.8,6.4c-0.2,0.9,0.3,1.8,1.2,2c0.9,0.2,1.8-0.3,2-1.2
			c0.6-2.1,1.2-4.2,1.8-6.3c0.3-0.9-0.2-1.8-1.1-2.1C86.7,238.8,85.8,239.3,85.5,240.1 M89.7,227.5c-0.8,2.1-1.5,4.2-2.2,6.3
			c-0.3,0.9,0.2,1.8,1.1,2.1c0.9,0.3,1.8-0.2,2.1-1.1c0.7-2.1,1.4-4.2,2.2-6.2c0.3-0.9-0.1-1.8-1-2.1C91,226.1,90,226.6,89.7,227.5
			 M94.7,215.1c-0.9,2-1.7,4.1-2.6,6.2c-0.3,0.9,0.1,1.8,0.9,2.2c0.9,0.3,1.8-0.1,2.2-0.9c0.8-2,1.7-4.1,2.5-6.1
			c0.4-0.8,0-1.8-0.9-2.2C96,213.8,95,214.2,94.7,215.1 M100.3,203c-1,2-2,4-2.9,6c-0.4,0.8,0,1.8,0.8,2.2c0.8,0.4,1.8,0,2.2-0.8
			c0.9-2,1.9-4,2.9-5.9c0.4-0.8,0.1-1.8-0.7-2.2C101.7,201.8,100.7,202.2,100.3,203L100.3,203 M106.6,191.3
			c-1.1,1.9-2.2,3.9-3.3,5.8c-0.4,0.8-0.1,1.8,0.7,2.3c0.8,0.4,1.8,0.1,2.3-0.7c1-1.9,2.1-3.8,3.2-5.7c0.5-0.8,0.2-1.8-0.6-2.3
			C108.1,190.2,107.1,190.5,106.6,191.3L106.6,191.3 M113.7,179.9c-1.2,1.9-2.4,3.7-3.6,5.6c-0.5,0.8-0.2,1.8,0.5,2.3
			c0.8,0.5,1.8,0.2,2.3-0.5c1.2-1.9,2.3-3.7,3.5-5.5c0.5-0.8,0.3-1.8-0.5-2.3C115.2,178.9,114.2,179.2,113.7,179.9 M121.3,169
			c-1.3,1.8-2.6,3.6-3.9,5.4c-0.5,0.8-0.3,1.8,0.4,2.3c0.8,0.5,1.8,0.3,2.3-0.4c1.3-1.8,2.5-3.6,3.9-5.3c0.5-0.7,0.4-1.8-0.3-2.3
			C122.9,168.1,121.9,168.3,121.3,169 M129.6,158.5c-1.4,1.7-2.8,3.4-4.2,5.2c-0.6,0.7-0.4,1.8,0.3,2.3c0.7,0.6,1.8,0.4,2.3-0.3
			c1.4-1.7,2.7-3.4,4.2-5.1c0.6-0.7,0.5-1.8-0.2-2.3C131.3,157.7,130.2,157.8,129.6,158.5L129.6,158.5 M138.5,148.6
			c-1.5,1.6-3,3.3-4.5,4.9c-0.6,0.7-0.5,1.7,0.1,2.3c0.7,0.6,1.7,0.5,2.3-0.1c1.5-1.6,2.9-3.3,4.4-4.9c0.6-0.7,0.6-1.7-0.1-2.4
			C140.2,147.9,139.1,147.9,138.5,148.6L138.5,148.6 M147.9,139.1c-1.6,1.5-3.2,3.1-4.8,4.7c-0.6,0.6-0.6,1.7,0,2.4
			c0.6,0.6,1.7,0.6,2.4,0c1.6-1.6,3.1-3.1,4.7-4.6c0.7-0.6,0.7-1.7,0.1-2.4C149.7,138.5,148.6,138.5,147.9,139.1 M157.9,130.2
			c-1.7,1.4-3.4,2.9-5.1,4.4c-0.7,0.6-0.7,1.7-0.1,2.3c0.6,0.7,1.7,0.7,2.3,0.1c1.6-1.5,3.3-2.9,5-4.3c0.7-0.6,0.8-1.6,0.2-2.3
			C159.7,129.7,158.6,129.6,157.9,130.2 M168.4,121.9c-1.8,1.3-3.6,2.7-5.3,4.1c-0.7,0.6-0.8,1.6-0.3,2.3c0.6,0.7,1.6,0.8,2.3,0.3
			c1.7-1.4,3.5-2.7,5.2-4c0.7-0.5,0.9-1.6,0.3-2.3C170.2,121.5,169.1,121.4,168.4,121.9 M179.4,114.2c-1.9,1.2-3.7,2.5-5.5,3.8
			c-0.8,0.5-0.9,1.6-0.4,2.3c0.5,0.8,1.6,0.9,2.3,0.4c1.8-1.3,3.6-2.5,5.5-3.7c0.8-0.5,1-1.5,0.5-2.3
			C181.2,113.9,180.1,113.7,179.4,114.2 M190.7,107.2c-1.9,1.1-3.8,2.3-5.7,3.4c-0.8,0.5-1,1.5-0.5,2.3c0.5,0.8,1.5,1,2.3,0.5
			c1.9-1.2,3.8-2.3,5.7-3.4c0.8-0.5,1.1-1.5,0.6-2.3C192.5,107,191.5,106.7,190.7,107.2L190.7,107.2 M202.5,100.8c-2,1-4,2-5.9,3.1
			c-0.8,0.4-1.1,1.4-0.7,2.3c0.4,0.8,1.4,1.1,2.3,0.7c1.9-1,3.9-2.1,5.9-3c0.8-0.4,1.2-1.4,0.7-2.2
			C204.3,100.8,203.3,100.4,202.5,100.8 M214.7,95.2c-2.1,0.9-4.1,1.8-6.1,2.7c-0.8,0.4-1.2,1.4-0.8,2.2c0.4,0.8,1.4,1.2,2.2,0.8
			c2-0.9,4-1.8,6-2.7c0.8-0.4,1.2-1.3,0.9-2.2C216.5,95.2,215.5,94.8,214.7,95.2 M227.1,90.2c-2.1,0.8-4.2,1.6-6.3,2.4
			c-0.9,0.3-1.3,1.3-0.9,2.2c0.3,0.9,1.3,1.3,2.2,0.9c2-0.8,4.1-1.6,6.2-2.3c0.9-0.3,1.3-1.3,1-2.1C228.9,90.4,228,89.9,227.1,90.2
			 M239.8,86c-2.1,0.6-4.3,1.3-6.4,2c-0.9,0.3-1.3,1.2-1.1,2.1c0.3,0.9,1.2,1.3,2.1,1.1c2.1-0.7,4.2-1.3,6.3-2
			c0.9-0.3,1.4-1.2,1.1-2.1C241.6,86.3,240.7,85.8,239.8,86 M252.7,82.6c-2.2,0.5-4.3,1.1-6.5,1.6c-0.9,0.2-1.4,1.1-1.2,2
			c0.2,0.9,1.1,1.4,2,1.2c2.1-0.6,4.2-1.1,6.4-1.6c0.9-0.2,1.4-1.1,1.2-2C254.5,82.9,253.6,82.4,252.7,82.6L252.7,82.6 M265.8,79.9
			c-2.2,0.4-4.4,0.8-6.6,1.2c-0.9,0.2-1.5,1.1-1.3,2c0.2,0.9,1.1,1.5,2,1.3c2.1-0.4,4.3-0.8,6.5-1.2c0.9-0.2,1.5-1,1.4-1.9
			C267.6,80.4,266.7,79.8,265.8,79.9 M279,78c-2.2,0.3-4.4,0.5-6.6,0.9c-0.9,0.1-1.5,1-1.4,1.9s1,1.5,1.9,1.4
			c2.2-0.3,4.3-0.6,6.5-0.8c0.9-0.1,1.6-0.9,1.5-1.8C280.8,78.5,280,77.9,279,78 M292.4,76.9c-2.2,0.1-4.5,0.3-6.7,0.5
			c-0.9,0.1-1.6,0.9-1.5,1.8c0.1,0.9,0.9,1.6,1.8,1.5c2.2-0.2,4.4-0.3,6.6-0.5c0.9-0.1,1.6-0.8,1.6-1.8
			C294.1,77.5,293.3,76.8,292.4,76.9 M305.7,76.5h-0.1c-2.2,0-4.4,0-6.6,0.1c-0.9,0-1.6,0.8-1.6,1.7c0,0.9,0.8,1.6,1.7,1.6
			c2.2-0.1,4.3-0.1,6.5-0.1h0.1c0.9,0,1.7-0.7,1.7-1.7C307.4,77.2,306.6,76.5,305.7,76.5L305.7,76.5 M319.1,76.9
			c-2.2-0.1-4.4-0.2-6.7-0.3c-0.9,0-1.7,0.7-1.7,1.6c0,0.9,0.7,1.7,1.6,1.7c2.2,0.1,4.4,0.2,6.6,0.3c0.9,0.1,1.7-0.6,1.8-1.6
			C320.7,77.7,320,76.9,319.1,76.9 M332.4,78c-2.2-0.3-4.4-0.5-6.6-0.7c-0.9-0.1-1.7,0.6-1.8,1.5c-0.1,0.9,0.6,1.7,1.5,1.8
			c2.2,0.2,4.4,0.4,6.6,0.7c0.9,0.1,1.7-0.5,1.8-1.5C333.9,79,333.3,78.1,332.4,78L332.4,78 M345.6,79.9c-2.2-0.4-4.4-0.7-6.6-1.1
			c-0.9-0.1-1.8,0.5-1.9,1.4c-0.1,0.9,0.5,1.8,1.4,1.9c2.2,0.3,4.3,0.7,6.5,1c0.9,0.2,1.8-0.4,1.9-1.4
			C347.1,81,346.5,80.1,345.6,79.9L345.6,79.9 M358.7,82.6c-2.2-0.5-4.3-1-6.5-1.4c-0.9-0.2-1.8,0.4-2,1.3c-0.2,0.9,0.4,1.8,1.3,2
			c2.2,0.4,4.3,0.9,6.4,1.4c0.9,0.2,1.8-0.3,2-1.2C360.1,83.7,359.6,82.9,358.7,82.6 M371.6,86.1c-2.1-0.6-4.3-1.2-6.4-1.8
			c-0.9-0.2-1.8,0.3-2,1.2c-0.2,0.9,0.3,1.8,1.2,2c2.1,0.6,4.2,1.2,6.3,1.8c0.9,0.3,1.8-0.2,2.1-1.1C373,87.3,372.5,86.4,371.6,86.1
			 M384.3,90.3c-2.1-0.8-4.2-1.5-6.3-2.2c-0.9-0.3-1.8,0.2-2.1,1.1c-0.3,0.9,0.2,1.8,1.1,2.1c2.1,0.7,4.2,1.4,6.2,2.2
			c0.9,0.3,1.8-0.1,2.1-1C385.6,91.6,385.1,90.6,384.3,90.3 M396.7,95.2c-2-0.9-4.1-1.7-6.2-2.6c-0.9-0.3-1.8,0.1-2.2,0.9
			c-0.3,0.9,0.1,1.8,0.9,2.2c2,0.8,4.1,1.6,6.1,2.5c0.8,0.4,1.8,0,2.2-0.9C397.9,96.6,397.5,95.6,396.7,95.2 M408.7,100.9
			c-2-1-4-2-6-2.9c-0.8-0.4-1.8,0-2.2,0.8c-0.4,0.8,0,1.8,0.8,2.2c2,0.9,4,1.9,5.9,2.9c0.8,0.4,1.8,0.1,2.2-0.7
			C409.9,102.3,409.6,101.3,408.7,100.9 M420.5,107.2c-1.9-1.1-3.9-2.2-5.8-3.3c-0.8-0.4-1.8-0.1-2.3,0.7c-0.4,0.8-0.1,1.8,0.7,2.3
			c1.9,1,3.8,2.1,5.7,3.2c0.8,0.5,1.8,0.2,2.3-0.6C421.5,108.7,421.3,107.7,420.5,107.2L420.5,107.2 M431.8,114.2
			c-1.9-1.2-3.7-2.4-5.6-3.6c-0.8-0.5-1.8-0.2-2.3,0.5c-0.5,0.8-0.2,1.8,0.5,2.3c1.9,1.2,3.7,2.3,5.5,3.5c0.8,0.5,1.8,0.3,2.3-0.5
			C432.8,115.8,432.6,114.7,431.8,114.2L431.8,114.2 M442.7,121.9c-1.8-1.3-3.6-2.6-5.4-3.9c-0.8-0.5-1.8-0.3-2.3,0.4
			c-0.5,0.8-0.3,1.8,0.4,2.3c1.8,1.3,3.6,2.5,5.3,3.9c0.7,0.5,1.8,0.4,2.3-0.3C443.6,123.5,443.5,122.4,442.7,121.9L442.7,121.9
			 M453.2,130.2c-1.7-1.4-3.4-2.8-5.2-4.2c-0.7-0.6-1.8-0.4-2.3,0.3c-0.6,0.7-0.4,1.8,0.3,2.3c1.7,1.4,3.4,2.7,5.1,4.2
			c0.7,0.6,1.8,0.5,2.3-0.2C454,131.8,453.9,130.8,453.2,130.2L453.2,130.2 M463.2,139c-1.6-1.5-3.3-3-4.9-4.5
			c-0.7-0.6-1.7-0.5-2.3,0.1c-0.6,0.7-0.6,1.7,0.1,2.3c1.6,1.5,3.3,2.9,4.9,4.4c0.7,0.6,1.7,0.6,2.4-0.1
			C463.9,140.7,463.9,139.7,463.2,139 M472.6,148.5c-1.5-1.6-3.1-3.2-4.7-4.8c-0.7-0.6-1.7-0.6-2.4,0c-0.6,0.6-0.6,1.7,0,2.4
			c1.6,1.6,3.1,3.1,4.6,4.7c0.6,0.7,1.7,0.7,2.4,0.1C473.2,150.2,473.3,149.2,472.6,148.5 M481.5,158.5c-1.4-1.7-2.9-3.4-4.4-5.1
			c-0.6-0.7-1.7-0.7-2.3-0.1c-0.7,0.6-0.7,1.7-0.1,2.3c1.5,1.6,2.9,3.3,4.3,5c0.6,0.7,1.6,0.8,2.3,0.2
			C482,160.2,482.1,159.2,481.5,158.5L481.5,158.5 M489.8,168.9c-1.3-1.8-2.7-3.6-4.1-5.3c-0.6-0.7-1.6-0.8-2.3-0.3
			c-0.7,0.6-0.8,1.6-0.3,2.3c1.4,1.7,2.7,3.5,4,5.2c0.5,0.7,1.6,0.9,2.3,0.3C490.2,170.7,490.4,169.7,489.8,168.9 M497.5,179.9
			c-1.2-1.9-2.5-3.7-3.8-5.5c-0.5-0.8-1.6-0.9-2.3-0.4c-0.8,0.5-0.9,1.6-0.4,2.3c1.3,1.8,2.5,3.6,3.7,5.4c0.5,0.8,1.5,1,2.3,0.5
			C497.8,181.7,498,180.7,497.5,179.9 M504.6,191.3c-1.1-1.9-2.3-3.8-3.4-5.7c-0.5-0.8-1.5-1-2.3-0.5c-0.8,0.5-1,1.5-0.5,2.3
			c1.2,1.9,2.3,3.8,3.4,5.7c0.5,0.8,1.5,1.1,2.3,0.6C504.8,193.1,505,192.1,504.6,191.3 M510.9,203c-1-2-2-4-3.1-5.9
			c-0.4-0.8-1.4-1.1-2.3-0.7c-0.8,0.4-1.1,1.4-0.7,2.3c1,1.9,2.1,3.9,3.1,5.8c0.4,0.8,1.4,1.2,2.2,0.7
			C511,204.9,511.3,203.9,510.9,203 M516.6,215.2c-0.9-2.1-1.8-4.1-2.7-6.1c-0.4-0.8-1.4-1.2-2.2-0.8c-0.8,0.4-1.2,1.4-0.8,2.2
			c0.9,2,1.8,4,2.7,6c0.4,0.8,1.3,1.2,2.2,0.9C516.6,217,517,216,516.6,215.2 M521.6,227.6c-0.8-2.1-1.6-4.2-2.4-6.3
			c-0.3-0.9-1.3-1.3-2.2-0.9c-0.9,0.3-1.3,1.3-0.9,2.2c0.8,2,1.6,4.1,2.4,6.2c0.3,0.9,1.3,1.3,2.1,1
			C521.4,229.4,521.9,228.5,521.6,227.6 M525.8,240.3c-0.6-2.1-1.3-4.3-2-6.4c-0.3-0.9-1.2-1.3-2.1-1.1c-0.9,0.3-1.3,1.2-1.1,2.1
			c0.7,2.1,1.3,4.2,2,6.3c0.3,0.9,1.2,1.4,2.1,1.1C525.5,242.1,526,241.2,525.8,240.3 M529.2,253.2c-0.5-2.2-1.1-4.3-1.6-6.5
			c-0.2-0.9-1.1-1.4-2-1.2c-0.9,0.2-1.4,1.1-1.2,2c0.6,2.1,1.1,4.2,1.6,6.4c0.2,0.9,1.1,1.4,2,1.2
			C528.9,255,529.4,254.1,529.2,253.2 M531.9,266.3c-0.4-2.2-0.8-4.4-1.2-6.6c-0.2-0.9-1.1-1.5-2-1.3c-0.9,0.2-1.5,1.1-1.3,2
			c0.4,2.1,0.9,4.3,1.2,6.5c0.2,0.9,1,1.5,1.9,1.4C531.4,268.1,532.1,267.2,531.9,266.3 M533.8,279.6c-0.3-2.2-0.5-4.4-0.9-6.6
			c-0.1-0.9-1-1.5-1.9-1.4c-0.9,0.1-1.5,1-1.4,1.9c0.3,2.2,0.6,4.3,0.8,6.5c0.1,0.9,0.9,1.6,1.8,1.5
			C533.3,281.3,533.9,280.5,533.8,279.6 M535,292.9c-0.1-2.2-0.3-4.5-0.5-6.7c-0.1-0.9-0.9-1.6-1.8-1.5c-0.9,0.1-1.6,0.9-1.5,1.8
			c0.2,2.2,0.3,4.4,0.5,6.6c0.1,0.9,0.8,1.6,1.8,1.6C534.3,294.6,535,293.8,535,292.9"/>
		<polygon class="st2" points="218.2,259.9 387.3,259.9 375.3,244 400.9,234.4 237,234.4 252.1,247.2 		"/>
		<polygon class="st3" points="237,234.4 236.8,253.3 252.1,247.2 		"/>
		<polygon class="st4" points="400.9,234.5 409.3,409.9 392.8,415.7 387.3,260.6 375.3,244.4 		"/>
		<polygon class="st5" points="252.1,246.9 251.6,259.9 218.2,259.9 		"/>
		<polygon class="st5" points="375.3,243.7 374.8,259.9 387.3,259.9 		"/>
		<path class="st1" d="M378.4,84.5c0,20.3-16.5,36.8-36.8,36.8c-20.3,0-36.8-16.5-36.8-36.8c0-20.3,16.5-36.8,36.8-36.8
			C361.9,47.7,378.4,64.2,378.4,84.5"/>
		<circle class="st6" cx="94.5" cy="400.8" r="46.9"/>
		<polygon class="st3" points="106.8,393 82.3,393 81.9,426.3 107.1,426.3 		"/>
		<rect x="82.3" y="383.1" class="st7" width="24.5" height="9.9"/>
		<rect x="85.7" y="377.3" class="st8" width="17.6" height="5.8"/>
		<polygon class="st3" points="88.5,364.8 88.5,350.4 98.3,342.9 101.6,352.4 101.6,364.8 		"/>
		<path class="st9" d="M98.3,342.9c0,0-2.7,1.2-5.6,3.1c-2.9,1.9-4.3,4.4-4.3,4.4s3,1.7,6.5-0.8C98.6,347.1,98.3,342.9,98.3,342.9z"
			/>
		<rect x="85.7" y="364.2" class="st10" width="17.6" height="13.1"/>
		<circle class="st11" cx="514.6" cy="225.3" r="44.8"/>
		<path class="st3" d="M540.2,205.5l-49.1-0.5c-1.6,0-3,1.2-3.2,2.8h55.3C542.8,206.4,541.6,205.5,540.2,205.5z"/>
		<path class="st9" d="M487.8,207.7c0,0.1,0,0.2,0,0.3l-0.2,16.9c0,1.8,1.4,3.2,3.2,3.2l49.1,0.5c1.8,0,3.2-1.4,3.2-3.2l0.2-16.9
			c0-0.3,0-0.7-0.1-1H487.8z"/>
		<path class="st7" d="M534.3,235.6c0,2-1.6,3.7-3.7,3.7h-30.2c-2,0-3.7-1.6-3.7-3.7v-14.2c0-2,1.6-3.7,3.7-3.7h30.2
			c2,0,3.7,1.6,3.7,3.7V235.6z"/>
		<path class="st3" d="M543.1,243.6c0,1.8-1.5,3.2-3.2,3.2l-49.1-0.5c-1.8,0-3.2-1.5-3.2-3.2l0.2-16.9c0-1.8,1.5-3.2,3.2-3.2
			l49.1,0.5c1.8,0,3.2,1.5,3.2,3.2L543.1,243.6z"/>
		
			<ellipse transform="matrix(0.9386 -0.345 0.345 0.9386 -49.151 192.2047)" class="st12" cx="515.5" cy="234.2" rx="2.7" ry="2.7"/>
		
			<ellipse transform="matrix(0.9387 -0.3447 0.3447 0.9387 -49.1409 192.0672)" class="st13" cx="515.5" cy="234.2" rx="1.4" ry="1.4"/>
		
			<ellipse transform="matrix(0.9387 -0.3448 0.3448 0.9387 -41.5354 190.8272)" class="st13" cx="515.7" cy="212.2" rx="2.7" ry="2.7"/>
		
			<ellipse transform="matrix(0.9388 -0.3443 0.3443 0.9388 -41.5253 190.5649)" class="st12" cx="515.7" cy="212.2" rx="1.4" ry="1.4"/>
		<circle class="st3" cx="296.1" cy="534.7" r="36.8"/>
		<path class="st6" d="M310.8,543.6h-24.4c-0.7,0-1.3-0.6-1.3-1.3s0.6-1.3,1.3-1.3h23.4l5.4-19.1c0.2-0.7,0.9-1.1,1.6-0.9
			c0.7,0.2,1.1,0.9,0.9,1.7l-5.7,20C311.9,543.2,311.4,543.6,310.8,543.6z"/>
		<path class="st6" d="M311.5,538.4h-26.2c-0.6,0-1.1-0.5-1.1-1.1c0-0.6,0.5-1.1,1.1-1.1h26.2c0.6,0,1.1,0.5,1.1,1.1
			C312.5,537.9,312.1,538.4,311.5,538.4z"/>
		<path class="st6" d="M313.3,533.5h-29.1c-0.6,0-1.1-0.5-1.1-1.1c0-0.6,0.5-1.1,1.1-1.1h29.1c0.6,0,1.1,0.5,1.1,1.1
			C314.3,533.1,313.9,533.5,313.3,533.5z"/>
		<path class="st6" d="M314.9,528.6h-31.8c-0.6,0-1.1-0.5-1.1-1.1c0-0.6,0.5-1.1,1.1-1.1h31.8c0.6,0,1.1,0.5,1.1,1.1
			C316,528.2,315.5,528.6,314.9,528.6z"/>
		<path class="st6" d="M291.1,542.7c-0.5,0-1-0.4-1.1-0.9l-2.6-18.8c-0.1-0.6,0.3-1.1,0.9-1.2c0.6-0.1,1.1,0.3,1.2,0.9l2.6,18.8
			c0.1,0.6-0.3,1.1-0.9,1.2L291.1,542.7z"/>
		<path class="st6" d="M296.2,542.9c-0.6,0-1-0.5-1.1-1l-0.7-18.8c0-0.6,0.4-1.1,1-1.1c0.6,0,1.1,0.4,1.1,1l0.7,18.8
			C297.3,542.4,296.8,542.9,296.2,542.9L296.2,542.9z"/>
		<path class="st6" d="M300.6,542.8L300.6,542.8c-0.7-0.1-1.1-0.6-1.1-1.2l1.6-19.1c0-0.6,0.6-1,1.2-1c0.6,0.1,1,0.6,1,1.2
			l-1.6,19.1C301.7,542.4,301.2,542.8,300.6,542.8z"/>
		<path class="st6" d="M306.1,542.7l-0.2,0c-0.6-0.1-1-0.6-0.9-1.2l2.9-19.5c0.1-0.6,0.6-1,1.2-0.9c0.6,0.1,1,0.6,0.9,1.2l-2.9,19.5
			C307,542.3,306.6,542.7,306.1,542.7z"/>
		<path class="st6" d="M316.7,523.5h-33.6c-0.7,0-1.3-0.6-1.3-1.3c0-0.7,0.6-1.3,1.3-1.3h33.6c0.7,0,1.3,0.6,1.3,1.3
			C318.1,522.9,317.5,523.5,316.7,523.5z"/>
		<path class="st6" d="M312.4,550.6h-29.1c-0.6,0-1.2-0.4-1.3-1c-1-4.3,1.1-6.9,2.9-8l-4-19.1l-8.8-3.6c-0.7-0.3-1-1.1-0.7-1.7
			c0.3-0.7,1.1-1,1.7-0.7l9.4,3.9c0.4,0.2,0.7,0.5,0.8,1l4.4,20.8c0.1,0.7-0.2,1.3-0.8,1.5c-0.3,0.1-2.7,1.2-2.5,4.4h28
			c0.7,0,1.3,0.6,1.3,1.3C313.7,550,313.1,550.6,312.4,550.6z"/>
		<path class="st6" d="M278.2,521.2c-0.2,0-0.3,0-0.5-0.1l-5.6-2.3c-0.7-0.3-1-1.1-0.7-1.7c0.3-0.7,1.1-1,1.7-0.7l5.6,2.3
			c0.7,0.3,1,1.1,0.7,1.7C279.2,520.9,278.7,521.2,278.2,521.2z"/>
		<circle class="st6" cx="309" cy="554.3" r="4"/>
		<circle class="st14" cx="309" cy="554.3" r="2"/>
		<circle class="st6" cx="287.5" cy="554.3" r="4"/>
		<circle class="st14" cx="287.5" cy="554.3" r="2"/>
		<path class="st11" d="M317.2,99.5c0,2.2,1.8,3.9,3.9,3.9h41.3c2.2,0,3.9-1.8,3.9-3.9v-30c0-2.2-1.8-3.9-3.9-3.9h-41.3
			c-2.2,0-3.9,1.8-3.9,3.9V99.5"/>
		<path class="st14" d="M366.4,69.5c0-2.4-2.1-4-3.7-4l-41.5,0c-2.2,0-3.9,1.8-3.9,3.9v0.4h49.2V69.5z"/>
		<path class="st14" d="M317.2,98.9v0.6c0,2.2,1.8,3.9,3.9,3.9h41.3c2.2,0,3.9-1.8,3.9-3.9v-0.6H317.2z"/>
		<polyline class="st15" points="317.2,78.1 317.2,78.1 317.2,86.4 317.2,86.4 317.2,78.1 		"/>
		<path class="st16" d="M331.1,78.1h-13.9v8.3h17.5v-4.7C334.7,79.8,333.1,78.1,331.1,78.1"/>
		<path class="st17" d="M313.6,86.4c0,1.7,1.4,3.1,3.1,3.1h14.9c1.7,0,3.1-1.4,3.1-3.1v-4.1c0-1.7-1.4-3.1-3.1-3.1h-14.9
			c-1.7,0-3.1,1.4-3.1,3.1V86.4z"/>
		<circle class="st18" cx="328.4" cy="84.2" r="3.8"/>
		<polygon class="st14" points="352.9,69.6 352.8,69.6 351.1,69.6 350.9,69.8 351,69.9 351.1,69.9 352.8,69.9 352.9,69.8 		"/>
		<polygon class="st14" points="346,69.6 344.3,69.6 344.1,69.8 344.3,69.9 346,69.9 346.1,69.8 		"/>
		<polygon class="st14" points="349.4,69.6 347.7,69.6 347.5,69.8 347.7,69.9 349.4,69.9 349.5,69.8 		"/>
		<polygon class="st14" points="335.8,69.6 334.1,69.6 333.9,69.8 334.1,69.9 335.8,69.9 335.9,69.8 		"/>
		<polygon class="st14" points="342.6,69.6 340.9,69.6 340.7,69.8 340.9,69.9 342.6,69.9 342.7,69.8 		"/>
		<polygon class="st14" points="318.8,69.6 317.2,69.6 317.2,69.9 318.8,69.9 318.9,69.8 		"/>
		<polygon class="st14" points="322.2,69.6 320.5,69.6 320.3,69.8 320.5,69.9 322.2,69.9 322.3,69.8 		"/>
		<polygon class="st14" points="332.4,69.6 330.7,69.6 330.5,69.8 330.7,69.9 332.4,69.9 332.5,69.8 		"/>
		<polygon class="st14" points="325.6,69.6 323.9,69.6 323.7,69.8 323.9,69.9 325.6,69.9 325.7,69.8 		"/>
		<polygon class="st14" points="329,69.6 327.3,69.6 327.1,69.8 327.3,69.9 329,69.9 329.1,69.8 		"/>
		<polygon class="st14" points="339.2,69.6 337.5,69.6 337.3,69.8 337.5,69.9 339.2,69.9 339.3,69.8 		"/>
		<polygon class="st14" points="359.6,69.6 357.9,69.6 357.7,69.8 357.9,69.9 359.6,69.9 359.7,69.8 		"/>
		<polygon class="st14" points="356.2,69.6 354.5,69.6 354.3,69.8 354.5,69.9 356.2,69.9 356.3,69.8 		"/>
		<polygon class="st14" points="363,69.6 361.3,69.6 361.1,69.8 361.3,69.9 363,69.9 363.1,69.8 		"/>
		<polygon class="st14" points="366.4,69.6 364.7,69.6 364.5,69.8 364.7,69.9 366.4,69.9 		"/>
		<polygon class="st14" points="352.8,98.8 352.7,98.7 351,98.7 350.9,98.9 350.9,99 351,99.1 352.7,99.1 352.9,98.9 		"/>
		<polygon class="st14" points="345.9,98.8 344.2,98.8 344.1,98.9 344.2,99.1 345.9,99.1 346.1,98.9 		"/>
		<polygon class="st14" points="349.3,98.8 347.6,98.8 347.5,98.9 347.6,99.1 349.3,99.1 349.5,98.9 		"/>
		<polygon class="st14" points="335.7,98.8 334,98.8 333.9,98.9 334,99.1 335.7,99.1 335.9,98.9 		"/>
		<polygon class="st14" points="342.5,98.8 340.8,98.8 340.7,98.9 340.8,99.1 342.5,99.1 342.7,98.9 		"/>
		<polygon class="st14" points="318.7,98.8 317.1,98.8 317.1,99.1 318.7,99.1 318.9,98.9 		"/>
		<polygon class="st14" points="322.1,98.8 320.4,98.8 320.2,98.9 320.4,99.1 322.1,99.1 322.3,98.9 		"/>
		<polygon class="st14" points="332.3,98.8 330.6,98.8 330.5,98.9 330.6,99.1 332.3,99.1 332.5,98.9 		"/>
		<polygon class="st14" points="325.5,98.8 323.8,98.8 323.7,98.9 323.8,99.1 325.5,99.1 325.7,98.9 		"/>
		<polygon class="st14" points="328.9,98.8 327.2,98.8 327.1,98.9 327.2,99.1 328.9,99.1 329.1,98.9 		"/>
		<polygon class="st14" points="339.1,98.8 337.4,98.8 337.3,98.9 337.4,99.1 339.1,99.1 339.3,98.9 		"/>
		<polygon class="st14" points="359.5,98.7 357.8,98.7 357.7,98.9 357.8,99.1 359.5,99.1 359.7,98.9 		"/>
		<polygon class="st14" points="356.1,98.7 354.4,98.7 354.3,98.9 354.4,99.1 356.1,99.1 356.3,98.9 		"/>
		<polygon class="st14" points="362.9,98.7 361.2,98.7 361.1,98.9 361.2,99.1 362.9,99.1 363.1,98.9 		"/>
		<polygon class="st14" points="366.3,98.7 364.6,98.7 364.5,98.9 364.6,99.1 366.3,99.1 		"/>
		<circle class="st11" cx="84.3" cy="238.6" r="36.8"/>
		<path class="st14" d="M106.3,233.6h-22h-22c-2.3,0-3.6,1.8-3,4l4.6,20.6c0.6,2.2,3,4,5.3,4h15.1h15.1c2.3,0,4.7-1.8,5.3-4
			l4.6-20.6C110,235.4,108.6,233.6,106.3,233.6z M70.7,258.6l-0.3,0c-0.8,0-1.4-0.5-1.6-1.3l-2.8-15.5c-0.2-0.9,0.4-1.7,1.3-1.9
			c0.9-0.2,1.7,0.4,1.9,1.3l2.8,15.5C72.2,257.6,71.6,258.5,70.7,258.6z M77.5,258.6l-0.1,0c-0.8,0-1.5-0.6-1.6-1.5l-1.3-15.5
			c-0.1-0.9,0.6-1.7,1.5-1.7c0.9-0.1,1.7,0.6,1.7,1.5l1.3,15.5C79.1,257.8,78.4,258.6,77.5,258.6z M86,257.1c0,0.9-0.7,1.6-1.6,1.6
			l0,0l0,0c-0.9,0-1.6-0.7-1.6-1.6v-15.5c0-0.9,0.7-1.6,1.6-1.6l0,0l0,0c0.9,0,1.6,0.7,1.6,1.6V257.1z M92.9,257.2
			c-0.1,0.8-0.8,1.5-1.6,1.5l-0.1,0c-0.9-0.1-1.5-0.9-1.5-1.7l1.3-15.5c0.1-0.9,0.9-1.5,1.7-1.5c0.9,0.1,1.5,0.9,1.5,1.7L92.9,257.2
			z M102.6,241.8l-2.8,15.5c-0.1,0.8-0.8,1.3-1.6,1.3l-0.3,0c-0.9-0.2-1.5-1-1.3-1.9l2.8-15.5c0.2-0.9,1-1.5,1.9-1.3
			C102.2,240.1,102.8,241,102.6,241.8z"/>
		<path class="st6" d="M95.4,233.1c-0.8,0-1.5-0.4-1.9-1.2l-8.8-16.3l-10.2,16.4c-0.6,1-2,1.3-3,0.7c-1-0.6-1.3-2-0.7-3L83,210.1
			c0.4-0.7,1.1-1.1,1.9-1c0.8,0,1.5,0.5,1.9,1.2l10.5,19.7c0.6,1.1,0.2,2.4-0.9,3C96.1,233,95.8,233.1,95.4,233.1z"/>
		<circle class="st19" cx="96.7" cy="232.8" r="1.8"/>
		<path class="st14" d="M111.1,228.4H84.3H57.5c-1,0-1.7,0.8-1.7,1.7v5.5c0,1,0.8,1.7,1.7,1.7h26.8h26.8c1,0,1.7-0.8,1.7-1.7v-5.5
			C112.9,229.2,112.1,228.4,111.1,228.4z"/>
		<path class="st20" d="M73.8,232.8c0,1-0.8,1.8-1.8,1.8c-1,0-1.8-0.8-1.8-1.8"/>
		<circle class="st21" cx="72" cy="233" r="1.8"/>
		<circle class="st21" cx="96.5" cy="233.2" r="1.8"/>
		
			<ellipse transform="matrix(0.7071 -0.7071 0.7071 0.7071 -33.2888 230.1443)" class="st7" cx="261.2" cy="155.3" rx="32.7" ry="32.7"/>
		<path class="st11" d="M240.9,149.8c0,2.3,1.6,4.3,3.8,4.9v16.5h-2.5c-0.7,0-1.3,0.6-1.3,1.3c0,0.7,0.6,1.3,1.3,1.3h37.7
			c0.7,0,1.3-0.6,1.3-1.3c0-0.7-0.6-1.3-1.3-1.3h-2.5v-16.5c2.2-0.6,3.8-2.5,3.8-4.9v-1.3h-40.2V149.8z M266,154.8c2.8,0,5-2.2,5-5
			c0,2.3,1.6,4.3,3.8,4.9v16.5H256v-16.3c2.8,0,5-2.2,5-5C261,152.5,263.2,154.8,266,154.8z M254.7,154.6v16.5h-7.5v-16.5
			c2.2-0.6,3.8-2.5,3.8-4.9C250.9,152.1,252.5,154,254.7,154.6z M276.1,137.2h-30.2l-5,10.1h40.2L276.1,137.2z M251.5,140l-2.5,5
			c-0.1,0.2-0.3,0.3-0.6,0.3l-0.3-0.1c-0.3-0.2-0.4-0.5-0.3-0.8l2.5-5c0.2-0.3,0.5-0.4,0.8-0.3C251.5,139.3,251.6,139.7,251.5,140z
			 M256.5,140l-2.5,5c-0.1,0.2-0.3,0.3-0.6,0.3l-0.3-0.1c-0.3-0.2-0.4-0.5-0.3-0.8l2.5-5c0.2-0.3,0.5-0.4,0.8-0.3
			C256.6,139.3,256.7,139.7,256.5,140z M261.6,144.7c0,0.3-0.3,0.6-0.6,0.6c-0.3,0-0.6-0.3-0.6-0.6v-5c0-0.3,0.3-0.6,0.6-0.6
			c0.3,0,0.6,0.3,0.6,0.6V144.7z M268.8,145.3c-0.1,0.1-0.2,0.1-0.3,0.1c-0.2,0-0.4-0.1-0.6-0.3l-2.7-5c-0.2-0.3-0.1-0.7,0.3-0.9
			c0.3-0.2,0.7-0.1,0.9,0.2l2.7,5C269.2,144.7,269.1,145.1,268.8,145.3z M273.8,145.3l-0.3,0.1c-0.2,0-0.5-0.1-0.6-0.3l-2.5-5
			c-0.2-0.3,0-0.7,0.3-0.8c0.3-0.2,0.7,0,0.8,0.3l2.5,5C274.3,144.8,274.1,145.1,273.8,145.3z M251.6,163.8v-2.9
			c-0.4-0.2-0.6-0.6-0.6-1.1c0-0.7,0.6-1.3,1.3-1.3c0.7,0,1.3,0.6,1.3,1.3c0,0.5-0.3,0.8-0.6,1.1v2.9c0.4,0.2,0.6,0.6,0.6,1.1
			c0,0.7-0.6,1.3-1.3,1.3c-0.7,0-1.3-0.6-1.3-1.3C250.9,164.4,251.2,164,251.6,163.8z M245.9,134.7c0-0.7,0.6-1.3,1.3-1.3h27.6
			c0.7,0,1.3,0.6,1.3,1.3c0,0.7-0.6,1.3-1.3,1.3h-27.6C246.5,135.9,245.9,135.4,245.9,134.7z M262.9,161.5l-0.9-0.9l3.6-3.6l0.9,0.9
			L262.9,161.5z M262.9,165.1l-0.9-0.9l7.1-7.1l0.9,0.9L262.9,165.1z M269.1,160.6l0.9,0.9l-3.6,3.6l-0.9-0.9L269.1,160.6z"/>
		
			<ellipse transform="matrix(0.7071 -0.7071 0.7071 0.7071 40.3475 351.4217)" class="st3" cx="444.4" cy="127" rx="29.6" ry="29.6"/>
		<path class="st11" d="M457.1,142.7c0,1.4-1.1,2.5-2.5,2.5h-21.2c-1.4,0-2.5-1.1-2.5-2.5v-35.1c0-1.4,1.1-2.5,2.5-2.5h21.2
			c1.4,0,2.5,1.1,2.5,2.5V142.7z"/>
		<rect x="441.5" y="140.1" class="st14" width="6.7" height="3.2"/>
		<rect x="433.9" y="109.3" class="st14" width="20.5" height="19.4"/>
		<path class="st11" d="M460,55.2c-0.2-2-1.8-3.5-3.8-3.5c-2.1,0-3.8,1.7-3.8,3.8c0,2.1,1.7,3.8,3.8,3.8c0.6,0,1.2-0.2,1.8-0.4
			c0.3,1.1,0.5,2.3,0.5,3.4c0,1.9-0.5,3.7-1.6,5.8c-2.2,4.1-6.2,6.7-9.7,10.8c-3.2,3.8-3.9,8.3-4,12.7c-0.1-0.2-0.2-0.3-0.3-0.5
			c-1.4-2.2-3.4-3.7-5.5-4.6c-3.2-1.4-6.7-1.8-9.9-2.4c-3.2-0.6-6.1-1.4-8.1-3.2c-2.6-2.3-4.1-6.8-4-11.1c0-2,0.3-4,0.9-5.6
			c1-2.9,3.1-5.9,5-9.2c1.9-3.2,3.6-6.7,3.7-10.7c0-0.1,0-0.2,0-0.3c0-0.2,0-0.3-0.1-0.5c-0.4-1.7-1.9-3-3.7-3
			c-2.1,0-3.8,1.7-3.8,3.8c0,2.1,1.7,3.8,3.7,3.8c-0.6,1.7-1.5,3.5-2.5,5.3c-1.8,3.1-4,6.3-5.2,9.7c-0.7,2-1,4.3-1,6.6
			c0,4.9,1.5,10.2,5.1,13.4c3.7,3.3,8.6,3.7,12.9,4.5c2.2,0.4,4.2,0.8,5.9,1.6c1.7,0.8,3.1,1.8,4.1,3.4c1.6,2.5,2.4,5.3,2.4,8.2
			c0,0.1,0,0.2,0,0.4c0,0.8-0.5,2-0.5,3.6c0,0.2,0,0.4,0,0.6c0.1,0.8,0.8,1.4,1.6,1.4l0.2,0c0.3,0,0.6-0.2,0.8-0.3
			c0.7-0.1,1.3-0.6,1.4-1.3v0c0.3-1.7,0.4-3.5,0.4-5.3c0-2.5-0.1-4.9-0.1-7.3c0-4.5,0.5-8.6,3.3-11.8c3-3.6,7.3-6.3,10.1-11.3
			c1.4-2.5,2-4.9,2-7.3C461.6,59.8,461,57.5,460,55.2z"/>
		<circle class="st11" cx="444" cy="104.1" r="3.9"/>
		<path class="st6" d="M280.3,214.2c-0.5,1.8-0.7,3.6-0.9,4.9c0.2,2.2,0.2,3.7,0.5,5.3c0.5,3.1,1.1,6.1,3.4,8.4
			c3.3,3.2,8.1,2.4,9.9-1.9c0.7-1.6,1-3.4,1.1-5.2c0.3-6.2-4.3-12.4-10-13.7C282.2,211.5,280.9,212.1,280.3,214.2z"/>
		<path class="st6" d="M281.2,249.2c-1.3,3-1.6,6.2-1.8,9.5c0.3,1.9,0.5,3.9,1,5.7c0.6,2.1,1.9,2.7,4,2.1c3.4-0.9,5.9-3,7.7-5.9
			c2.7-4.1,3.1-8.6,1.1-13.1c-1.8-4.2-6.4-5.1-9.7-1.9C282.5,246.6,281.7,247.9,281.2,249.2z"/>
		<path class="st11" d="M279.6,206c-1.4,4.9-2.4,9.9-2,15c0.3,4.3,1.1,8.6,3.9,12.1c0.1,0.2,0.3,0.4,0.3,0.5c0,0.9-0.1,1.8-0.1,2.7
			c0,2.8,0,5.7,0,8.5c0,0.2-0.2,0.3-0.3,0.5c-0.9,2-2.2,3.9-2.8,6c-2,7-1,13.9,1,20.8c0.5,1.9,1.1,2,2.6,0.6
			c2.3-2.1,4.5-4.3,6.9-6.4c4.7-4.1,7-9.1,6.3-15.4c-0.4-3.7-1.7-7.1-5.6-8.4c-1.6-0.5-3.3-0.7-5.3-1.1c-0.4-1.5-0.4-3.3,0.1-5.1
			c3.7,0.3,8.6-1,10-5.6c1.9-6.2,1.2-12-3.3-16.8c-2.9-3.1-6.2-5.9-9.4-8.9C280.6,204.3,280,204.5,279.6,206z M293.2,247.6
			c1.9,4.5,1.6,9-1.1,13.1c-1.9,2.8-4.4,4.9-7.7,5.9c-2.1,0.6-3.4-0.1-4-2.1c-0.5-1.9-0.7-3.8-1-5.7c0.3-3.3,0.6-6.5,1.8-9.5
			c0.5-1.3,1.3-2.6,2.4-3.6C286.8,242.5,291.4,243.4,293.2,247.6z M284.3,212c5.7,1.4,10.2,7.6,10,13.7c-0.1,1.7-0.4,3.6-1.1,5.2
			c-1.8,4.3-6.6,5.1-9.9,1.9c-2.3-2.3-3-5.3-3.4-8.4c-0.2-1.5-0.3-3.1-0.5-5.3c0.2-1.3,0.4-3.1,0.9-4.9
			C280.9,212.1,282.2,211.5,284.3,212z"/>
		<g>
			<circle class="st3" cx="474.3" cy="391" r="27.1"/>
			<path class="st14" d="M489.4,380.9h-30.1c-1.9,0-3.4,1.5-3.4,3.3v13.5c0,1,0.7,2.2,1.2,2.6c0.4,0.4,1.4,0.8,2.2,0.8h30.1
				c1.9,0,3.4-1.5,3.4-3.4v-13.5C492.8,382.4,491.3,380.9,489.4,380.9z M490.3,394c-2,0.7-3.8,2.3-4.6,4.7h-22.7
				c-0.8-2.2-2.7-3.9-4.6-4.6v-6c1.9-0.7,3.7-2.3,4.5-4.6h22.8c0.8,2.4,2.5,4,4.6,4.7L490.3,394L490.3,394z"/>
			<path class="st14" d="M474.3,385c-3.3,0-6,2.7-6,6c0,3.3,2.7,6,6,6c3.3,0,6-2.7,6-6C480.3,387.7,477.6,385,474.3,385z
				 M474.8,394.4v1.1h-1.1v-1c-0.8,0-1.5-0.2-1.9-0.5l0.3-1.3c0.5,0.3,1.1,0.5,1.8,0.5c0.6,0,1.1-0.2,1.1-0.7c0-0.4-0.4-0.7-1.2-1
				c-1.2-0.4-2-1-2-2c0-1,0.7-1.7,1.9-2v-1.1h1.1v1c0.7,0,1.2,0.2,1.6,0.4l-0.3,1.2c-0.3-0.1-0.8-0.4-1.6-0.4c-0.7,0-1,0.3-1,0.6
				c0,0.4,0.4,0.6,1.3,1c1.3,0.5,1.8,1.1,1.8,2.1C476.8,393.4,476.1,394.2,474.8,394.4z"/>
		</g>
		<path class="st22" d="M186,110.2c-0.3-0.3-0.7-0.5-1-0.6c-0.3-0.1-0.7-0.1-1-0.1c-0.3,0-0.7,0.1-1,0.2c-0.3,0.1-0.7,0.3-1,0.4
			c-0.5-0.6-1.1-1.2-1.6-1.8c0.2-0.2,0.5-0.3,0.7-0.3c0.2,0,0.4,0,0.7,0.1c0.2,0.1,0.4,0.1,0.6,0.1c0.2,0,0.3,0,0.5-0.1
			c0.1-0.1,0.2-0.3,0.2-0.5c0-0.2-0.1-0.4-0.2-0.6c-0.2-0.2-0.5-0.4-0.8-0.4c-0.3-0.1-0.6-0.1-0.9,0c-0.3,0.1-0.6,0.2-0.9,0.4
			c-0.3,0.2-0.5,0.3-0.7,0.5l-0.2-0.2c-0.1-0.1-0.2-0.1-0.3-0.1c-0.1,0-0.2,0-0.3,0.1c-0.1,0.1-0.1,0.2-0.1,0.3
			c0,0.1,0.1,0.2,0.1,0.3l0.2,0.2c-0.3,0.3-0.5,0.7-0.6,1c-0.2,0.4-0.3,0.7-0.3,1.1c0,0.4,0,0.7,0.1,1c0.1,0.3,0.3,0.6,0.6,0.8
			c0.5,0.4,1,0.6,1.7,0.5c0.6,0,1.3-0.2,2.1-0.6c0.6,0.7,1.2,1.4,1.8,2c-0.3,0.2-0.5,0.3-0.7,0.4c-0.2,0-0.4,0-0.5,0
			c-0.2-0.1-0.3-0.1-0.4-0.2c-0.1-0.1-0.3-0.2-0.4-0.2c-0.1-0.1-0.3-0.1-0.4-0.1c-0.1,0-0.3,0.1-0.4,0.2c-0.2,0.1-0.2,0.3-0.2,0.5
			c0,0.2,0.1,0.4,0.3,0.6c0.2,0.2,0.4,0.4,0.7,0.5c0.3,0.1,0.6,0.2,0.9,0.2c0.3,0,0.7,0,1.1-0.2c0.4-0.1,0.7-0.4,1.1-0.8
			c0.2,0.2,0.4,0.3,0.5,0.5c0.1,0.1,0.2,0.1,0.3,0.1c0.1,0,0.2-0.1,0.3-0.1c0.1-0.1,0.1-0.2,0.1-0.3c0-0.1-0.1-0.2-0.1-0.2
			c-0.2-0.1-0.4-0.3-0.5-0.4c0.3-0.4,0.5-0.8,0.7-1.2c0.2-0.4,0.3-0.8,0.3-1.1c0-0.4,0-0.7-0.1-1C186.5,110.7,186.3,110.4,186,110.2
			z M180.4,110.9c-0.3,0-0.5-0.1-0.8-0.3c-0.1-0.1-0.2-0.2-0.2-0.3c0-0.1-0.1-0.3,0-0.4c0-0.2,0.1-0.3,0.1-0.5
			c0.1-0.2,0.2-0.3,0.3-0.5c0.5,0.5,1,1.1,1.5,1.6C181,110.7,180.7,110.9,180.4,110.9z M185.2,112.9c-0.1,0.2-0.2,0.3-0.3,0.4
			c-0.6-0.6-1.1-1.2-1.7-1.8c0.1-0.1,0.3-0.1,0.5-0.2c0.2-0.1,0.3-0.1,0.5-0.1c0.2,0,0.3,0,0.5,0c0.2,0,0.3,0.1,0.5,0.3
			c0.1,0.1,0.2,0.3,0.3,0.4c0,0.2,0,0.3,0,0.5C185.3,112.6,185.2,112.7,185.2,112.9z"/>
		<path class="st22" d="M181.1,117.5L181.1,117.5c-0.6,0.5-1.3,1-1.8,1.6c-0.5,0.5-1,1.1-1.5,1.7l-0.7,0.9l0,0
			c-0.1,0.2-0.1,0.5,0.1,0.6c0.2,0.2,0.5,0.2,0.7,0l0.1-0.1l0.6-0.9c0.4-0.5,0.9-1.1,1.4-1.6c0.6-0.6,1.1-1,1.7-1.5l0,0l0.1,0
			c0.2-0.2,0.2-0.5,0-0.7C181.6,117.4,181.3,117.4,181.1,117.5z"/>
		
			<ellipse transform="matrix(0.7071 -0.7071 0.7071 0.7071 -25.1114 162.3385)" class="st3" cx="183.4" cy="111.5" rx="24.6" ry="24.6"/>
		<path class="st22" d="M198,105.8l-10.1-10.1c-0.5-0.5-1.2-0.7-1.9-0.5c-0.4,0.1-0.7,0.3-0.9,0.5c-0.2,0.2-0.4,0.5-0.5,0.8
			c-0.5,1.5-1.3,2.8-2.4,3.9c-1.6,1.6-3.6,2.8-5.8,4c-2.3,1.3-4.7,2.7-6.6,4.6c-1.6,1.7-2.8,3.5-3.4,5.6c-0.2,0.7,0,1.5,0.5,2
			l10.1,10.1c0.5,0.5,1.2,0.7,1.9,0.5c0.4-0.1,0.7-0.3,0.9-0.5c0.2-0.2,0.4-0.5,0.5-0.8c0.5-1.5,1.3-2.8,2.4-4
			c1.6-1.6,3.6-2.7,5.8-4c2.3-1.3,4.7-2.7,6.6-4.6c1.6-1.6,2.8-3.5,3.4-5.6C198.8,107.1,198.6,106.3,198,105.8z M178.4,125.5
			c-3.4-3.4-6.8-6.8-10.1-10.1c2.9-9.3,15.3-8.9,18.2-18.2c3.4,3.4,6.8,6.8,10.1,10.1C193.7,116.6,181.3,116.2,178.4,125.5z"/>
		<path class="st22" d="M184.8,102.9c-0.5,0.5-1.1,1-1.7,1.5l-0.1,0.1c-0.2,0.2-0.2,0.5,0,0.7c0.2,0.2,0.5,0.2,0.7,0l0,0
			c0.6-0.5,1.2-1,1.8-1.6c0.5-0.5,1-1.1,1.5-1.7l0.7-1l0,0c0.2-0.2,0.2-0.5,0-0.7c-0.2-0.2-0.5-0.2-0.7,0l-0.1,0.1l-0.7,0.9
			C185.8,101.9,185.4,102.4,184.8,102.9z"/>
		
			<ellipse transform="matrix(0.7071 -0.7071 0.7071 0.7071 -14.11 316.4355)" class="st23" cx="374.9" cy="175.3" rx="25.5" ry="25.5"/>
		<path class="st10" d="M389.7,186.7c0,2.2-1.8,4-4,4h-21.1c-2.2,0-4-1.8-4-4v-15c0-2.2,1.8-4,4-4h21.1c2.2,0,4,1.8,4,4V186.7z"/>
		<path class="st6" d="M362,179.3v6.6c0,2,1.6,3.6,3.6,3.6h19.1c2,0,3.6-1.6,3.6-3.6v-6.6H362z"/>
		<path class="st11" d="M381.3,155.7h-12.2c-0.5,0-0.9,0.4-0.9,0.9h14.1C382.2,156.1,381.8,155.7,381.3,155.7z"/>
		<path class="st10" d="M368.1,156.6L368.1,156.6l0,8c0,0.5,0.4,0.9,0.9,0.9h12.2c0.5,0,0.9-0.4,0.9-0.9v-8l0,0H368.1z"/>
		<rect x="370.2" y="165.6" class="st7" width="9.9" height="2.1"/>
		<rect x="374.6" y="167.7" class="st11" width="1.8" height="11.6"/>
		<rect x="374.6" y="179.3" class="st11" width="1.8" height="6.3"/>
		<polygon class="st7" points="217.6,527.9 217.4,532.5 212.8,531.8 211.6,536.2 207.4,534.6 205.3,538.7 201.4,536.2 198.5,539.8 
			195.3,536.5 191.7,539.4 189.2,535.5 185.1,537.6 183.5,533.3 179,534.5 178.3,530 173.7,530.2 174,525.6 169.4,524.9 
			170.6,520.5 166.3,518.8 168.4,514.7 164.5,512.2 167.4,508.7 164.2,505.4 167.8,502.5 165.3,498.7 169.4,496.6 167.7,492.3 
			172.2,491.1 171.4,486.6 176,486.3 176.3,481.7 180.8,482.5 182,478 186.3,479.7 188.4,475.6 192.2,478.1 195.1,474.5 
			198.4,477.8 201.9,474.9 204.4,478.7 208.5,476.6 210.2,480.9 214.6,479.7 215.3,484.3 219.9,484 219.7,488.6 224.2,489.3 
			223,493.8 227.3,495.4 225.2,499.5 229.1,502 226.2,505.6 229.4,508.8 225.9,511.7 228.4,515.6 224.3,517.7 225.9,522 
			221.5,523.1 222.2,527.7 		"/>
		<path class="st11" d="M197.8,505.6c-2.3-0.9-3-1.5-3-2.5c0-0.8,0.6-1.8,2.3-1.8c1.5,0,2.7,0.6,2.7,0.6c0.1,0.1,0.3,0.1,0.4,0.1
			c0.3,0,0.6-0.2,0.8-0.5l0.4-1.1c0.1-0.4-0.1-0.7-0.4-0.9c-0.9-0.4-2.8-0.7-2.8-0.7c0,0-0.1,0-0.1-0.1l0-1.6c0-0.5-0.4-0.9-0.9-0.9
			h-0.8c-0.5,0-0.9,0.4-0.9,0.9l0,1.6c0,0.1-0.1,0.2-0.2,0.2c-2.3,0.6-3.8,2.3-3.8,4.4c0,2.7,2.2,3.9,4.6,4.8
			c1.9,0.8,2.7,1.5,2.7,2.6c0,1.2-1.1,2.1-2.7,2.1c-1.3,0-3.2-0.9-3.2-0.9c-0.1-0.1-0.2-0.1-0.4-0.1c-0.3,0-0.6,0.2-0.8,0.5
			l-0.4,1.1c-0.1,0.4,0.1,0.7,0.4,0.9c1.1,0.6,3.3,0.9,3.4,0.9c0,0,0.2,0,0.2,0.2v1.6c0,0.5,0.4,0.9,0.9,0.9h0.8
			c0.5,0,0.9-0.4,0.9-0.9v-1.7c0-0.2,0.1-0.2,0.1-0.2c2.5-0.6,4-2.4,4-4.6C202.1,508.3,200.8,506.8,197.8,505.6z"/>
		<path class="st11" d="M196.8,486.7c-11.3,0-20.4,9.2-20.4,20.4c0,11.3,9.2,20.4,20.4,20.4c11.3,0,20.4-9.2,20.4-20.4
			C217.3,495.8,208.1,486.7,196.8,486.7z M196.8,522.8c-8.7,0-15.7-7-15.7-15.7c0-8.7,7-15.7,15.7-15.7c8.7,0,15.7,7,15.7,15.7
			C212.5,515.8,205.5,522.8,196.8,522.8z"/>
		
			<ellipse transform="matrix(0.7071 -0.7071 0.7071 0.7071 -70.7324 311.9766)" class="st7" cx="341.2" cy="241.4" rx="26.4" ry="26.4"/>
		<path class="st14" d="M353.8,231.4h-25.1c-2.2,0-3.9,1.8-3.9,3.9v14.2c0,2.2,1.8,3.9,3.9,3.9h25.1c2.2,0,3.9-1.8,3.9-3.9v-14.2
			C357.8,233.2,356,231.4,353.8,231.4z M355.6,249.6c0,1-0.8,1.8-1.8,1.8h-25.1c-1,0-1.8-0.8-1.8-1.8v-9.5h28.7V249.6z M355.6,236.9
			l-28.7,0v-1.6c0-1,0.8-1.8,1.8-1.8h25.1c1,0,1.8,0.8,1.8,1.8V236.9z"/>
		<path class="st14" d="M329.6,249.3h6c0.2,0,0.4-0.2,0.4-0.4v-1.2c0-0.2-0.2-0.4-0.4-0.4h-6c-0.2,0-0.4,0.2-0.4,0.4v1.2
			C329.2,249.1,329.4,249.3,329.6,249.3z"/>
		<path class="st14" d="M347.2,243.9c0.6,0,1.2,0.2,1.7,0.6c0.5-0.3,1-0.6,1.7-0.6c1.5,0,2.7,1.2,2.7,2.7c0,1.5-1.2,2.7-2.7,2.7
			c-0.6,0-1.2-0.2-1.7-0.6c-0.5,0.4-1,0.6-1.7,0.6c-1.5,0-2.7-1.2-2.7-2.7C344.4,245.1,345.7,243.9,347.2,243.9z"/>
		<polygon class="st7" points="200.8,287.5 141.8,327.1 119.7,294.3 178.7,254.7 201.6,262.9 		"/>
		<path class="st24" d="M140.3,309c0.1-0.6,0.6-1,1.2-1c1.2,0.1,3,0,4.3-0.9c0.9-0.6,1.5-1.4,1.8-2.1c0.3-0.7,0.2-1.3-0.1-1.8
			c-0.2-0.2-0.3-0.4-0.5-0.5c-0.2-0.1-0.5-0.2-0.9-0.2c-0.7,0-1.8,0.3-3,0.8l0,0c-0.9,0.4-1.9,0.7-2.8,0.8c-0.9,0.1-1.8,0.1-2.6-0.3
			c-0.5-0.3-1-0.7-1.4-1.2c-0.7-1.1-0.7-2.4-0.3-3.5c0.4-1.2,1.3-2.2,2.5-3c1.7-1.1,3.5-1.1,4.8-1.1c0.6,0,1.1,0.5,1.1,1.1
			c0,0.6-0.5,1.1-1.1,1.1c-1.3,0-2.5,0-3.6,0.7c-0.8,0.5-1.3,1.2-1.6,1.9c-0.2,0.7-0.2,1.2,0.1,1.6c0.1,0.2,0.3,0.3,0.5,0.4
			c0.2,0.1,0.4,0.1,0.8,0.1c0.7,0,1.7-0.2,2.7-0.7l0,0c1-0.4,2-0.7,2.9-0.9c1-0.1,1.9-0.1,2.8,0.3c0.5,0.3,1.1,0.7,1.4,1.2
			c0.8,1.1,0.8,2.5,0.3,3.8c-0.4,1.2-1.4,2.4-2.6,3.2c-1.9,1.2-4.2,1.4-5.7,1.2C140.7,310.1,140.3,309.6,140.3,309z"/>
		<path class="st24" d="M158.8,297.1l-4.3,2.8l0.7,2.9c0.1,0.5-0.1,1-0.5,1.2c-0.1,0.1-0.2,0.1-0.4,0.2c-0.6,0.1-1.3-0.3-1.4-0.9
			l-3-13.1c-0.1-0.5,0.1-1,0.5-1.2c0.4-0.3,0.9-0.3,1.4,0l10.8,7.9c0.5,0.4,0.6,1.1,0.3,1.7c-0.1,0.1-0.2,0.2-0.3,0.3
			c-0.4,0.3-0.9,0.3-1.3,0L158.8,297.1z M156.8,295.6l-4-2.9l1.1,4.8L156.8,295.6z"/>
		<path class="st24" d="M165.2,295.7l-6.9-10.5c-0.4-0.5-0.2-1.3,0.3-1.6c0.6-0.4,1.3-0.2,1.6,0.3l6.3,9.5l4.8-3.2
			c0.5-0.3,1.3-0.2,1.6,0.4c0.4,0.5,0.2,1.3-0.3,1.6l-5.8,3.8l0,0l0,0C166.3,296.3,165.6,296.2,165.2,295.7z"/>
		<path class="st24" d="M175.2,289.1l-6.9-10.5c-0.4-0.6-0.2-1.3,0.3-1.6l0,0l0,0l5.8-3.8c0.5-0.3,1.3-0.2,1.6,0.3
			c0.4,0.6,0.2,1.3-0.3,1.6l-4.8,3.2l2.1,3.3l4.1-2.7c0.5-0.4,1.3-0.2,1.6,0.3c0.4,0.6,0.2,1.3-0.3,1.6l-4.1,2.7l2.2,3.3l4.8-3.2
			c0.5-0.3,1.3-0.2,1.6,0.4c0.4,0.5,0.2,1.3-0.3,1.6l-5.8,3.8l0,0l0,0C176.3,289.8,175.6,289.6,175.2,289.1z"/>
		<path class="st24" d="M183.4,278.9l-4.7-7.2c-0.4-0.5-0.2-1.3,0.3-1.6c0.5-0.4,1.3-0.2,1.6,0.3l4.7,7.2c0.4,0.6,0.2,1.3-0.3,1.6
			C184.5,279.6,183.8,279.5,183.4,278.9z M187.2,282.6c-0.5,0.4-1.3,0.2-1.6-0.3l-0.2-0.4c-0.4-0.5-0.2-1.3,0.3-1.6
			c0.5-0.4,1.3-0.2,1.6,0.3l0.2,0.4C187.9,281.5,187.7,282.2,187.2,282.6z"/>
		<circle class="st14" cx="192.9" cy="268.8" r="3"/>
		<path class="st21" d="M194.5,268.5L194.5,268.5c-0.1-0.5-0.8-4.5-0.8-10.1c0-6.7,1.1-15.4,5.5-22.7c2.2-3.6,5.2-6.9,9.4-9.5
			c4.2-2.5,9.5-4.4,16.4-5c1.9-0.2,3.7-0.3,5.4-0.3c6.6,0,11.7,1.2,15.7,3.2c6,3,9.5,7.6,11.7,12.9c2.1,5.3,2.8,11.1,2.8,16.1
			c0,3.5-0.3,6.6-0.6,8.8c-0.2,1.1-0.3,2-0.4,2.6c-0.1,0.3-0.1,0.5-0.1,0.7l0,0.2l0,0c-0.2,0.9,0.3,1.8,1.2,2c0.9,0.2,1.8-0.3,2-1.2
			c0-0.1,1.3-5.6,1.3-13c0-3.5-0.3-7.5-1.2-11.5c-1.3-5.9-4-12-9.2-16.5c-2.6-2.3-5.7-4.2-9.6-5.5c-3.8-1.3-8.3-2-13.6-2
			c-1.8,0-3.7,0.1-5.7,0.3c-7.3,0.7-13.2,2.6-17.8,5.5c-7,4.3-11.1,10.5-13.5,16.8c-2.4,6.4-3,12.9-3,18.2c0,6.2,0.9,10.6,0.9,10.7
			c0.2,0.9,1.1,1.5,2,1.3C194.1,270.3,194.7,269.4,194.5,268.5z"/>
		<polygon class="st3" points="218.2,259.9 211.9,438.5 393.6,438.5 387.3,259.9 		"/>
		<path class="st2" d="M314.2,338.7h-17.8c-18.7,0-34.1-15.5-34.1-34.2v-22.4h4.4v22.4c0,15.9,13.9,28.7,29.7,28.7h17.8
			c15.5,0,28-12.5,28-28.7v-22.4h4.4v22.4C346.6,323.5,332.7,338.7,314.2,338.7z"/>
		<path class="st14" d="M312.2,335.3h-19.8c-18.7,0-33.3-16.4-33.3-35v-22.6h5.5v22.6c0,15.9,11.9,30.6,27.7,30.6h19.8
			c15.5,0,26.7-14.5,26.7-30.6v-22.6h5.5v22.6C344.4,319.3,330.6,335.3,312.2,335.3z"/>
		
			<ellipse transform="matrix(0.7071 -0.7071 0.7071 0.7071 -215.2013 304.6771)" class="st11" cx="260.2" cy="412.1" rx="35.7" ry="35.7"/>
		<path class="st14" d="M271.5,422L271.5,422c-3.1-1.1-6.5-0.2-9.2-2.6c-2.7-2.4-4.7-6.2-6.9-9c-2.4-3.1-5-6.2-7.5-9.3
			c-1.8-2.2-3.5-4.7-5.8-6.3c-0.3-0.6-0.6-0.9-1.2-0.5c-0.2,0.1-0.4,0.3-0.5,0.5c-0.3,0.3-0.7,0.8-1.1,1.5c-3,4.4-3.5,8.3-1.9,12.7
			c1.6,4.4,1.3,20,1.3,20s0.7,0.9,1.4,0.5c0.7-0.5-0.9-15.3,0.4-17c0,0,5.5-3,10.1,7.3c4.7,10.4,6.9,10.6,10.1,10.6
			c3.3,0,12.8,0.2,19.8-1C287.5,427.9,283.3,425.4,271.5,422z M260.9,423.7c-4.2-4.9-14.3-21.8-16.9-25.3l-0.1-0.2
			c1.4,1.5,2.6,3.3,3.8,4.8c3.1,3.7,6.1,7.5,9,11.3c1.7,2.3,3.2,4.8,5.4,6.7c2.3,2.1,5.4,1.3,8.2,2.1
			C268.2,424.8,264,427.3,260.9,423.7z"/>
		<polygon class="st7" points="550.9,312.4 550.6,317.6 545.5,316.8 544.1,321.9 539.2,320 536.8,324.7 532.4,321.8 529.1,325.9 
			525.4,322.2 521.3,325.5 518.5,321.1 513.8,323.5 511.9,318.6 506.9,319.9 506,314.7 500.8,315 501.1,309.8 495.9,309 
			497.3,303.9 492.3,302 494.7,297.3 490.3,294.5 493.6,290.4 489.9,286.7 494,283.4 491.1,279 495.8,276.6 493.9,271.7 499,270.4 
			498.2,265.2 503.4,264.9 503.7,259.7 508.9,260.5 510.2,255.4 515.1,257.3 517.5,252.6 521.9,255.5 525.2,251.4 528.9,255.1 
			533,251.8 535.9,256.2 540.5,253.8 542.4,258.7 547.5,257.4 548.3,262.6 553.6,262.3 553.3,267.5 558.5,268.3 557.1,273.4 
			562,275.3 559.6,280 564,282.8 560.7,286.9 564.4,290.6 560.3,293.9 563.2,298.3 558.5,300.7 560.4,305.6 555.3,306.9 
			556.2,312.1 		"/>
		<path class="st11" d="M529.1,286.4c-4.7-1.9-6-3-6-5c0-1.6,1.2-3.5,4.7-3.5c3.1,0,5.4,1.2,5.5,1.2c0.2,0.1,0.5,0.2,0.8,0.2
			c0.7,0,1.3-0.4,1.5-1l0.8-2.2c0.3-0.8-0.2-1.5-0.7-1.7c-1.9-0.8-5.6-1.5-5.6-1.5c-0.1,0-0.3-0.1-0.3-0.3l0-3.1
			c0-0.9-0.8-1.7-1.8-1.7h-1.5c-1,0-1.8,0.8-1.8,1.7l0,3.3c0,0.3-0.3,0.4-0.4,0.4c-4.7,1.1-7.6,4.5-7.6,8.9c0,5.4,4.5,7.8,9.3,9.7
			c3.8,1.5,5.4,3,5.4,5.3c0,2.4-2.2,4.1-5.4,4.1c-2.7,0-6.4-1.7-6.4-1.7c-0.2-0.1-0.5-0.2-0.7-0.2c-0.7,0-1.3,0.4-1.6,1.1l-0.8,2.2
			c-0.3,0.8,0.2,1.5,0.7,1.8c2.3,1.2,6.6,1.9,6.8,1.9c0.1,0,0.3,0.1,0.3,0.3v3.3c0,0.9,0.8,1.7,1.8,1.7h1.6c1,0,1.8-0.8,1.8-1.7
			v-3.5c0-0.3,0.2-0.4,0.3-0.4c5-1.1,8.1-4.8,8.1-9.3C537.9,291.9,535.3,288.8,529.1,286.4z"/>
		
			<ellipse transform="matrix(0.7071 -0.7071 0.7071 0.7071 -208.8983 460.183)" class="st7" cx="451" cy="482.3" rx="36.8" ry="36.8"/>
		<path class="st3" d="M470.6,502.8c0,0.9-0.7,1.6-1.6,1.6h-35.9c-0.9,0-1.6-0.7-1.6-1.6v-34c0-0.9,0.7-1.6,1.6-1.6H469
			c0.9,0,1.6,0.7,1.6,1.6V502.8z"/>
		<rect x="431.5" y="483.9" class="st11" width="39.1" height="3.9"/>
		<path class="st11" d="M471.5,470.3c0,0.9-0.7,1.6-1.6,1.6h-37.8c-0.9,0-1.6-0.7-1.6-1.6v-2.6c0-0.9,0.7-1.6,1.6-1.6H470
			c0.9,0,1.6,0.7,1.6,1.6V470.3z"/>
		<rect x="449.1" y="463.2" class="st11" width="3.9" height="41.1"/>
		<path class="st3" d="M448.8,462.6c0,0-9-8.9-13.4-4.1c-2.1,2.3,1.5,3.8,2,4.1c-2.6-0.7-3.9,4-1.4,4c2.5,0,12.8,0,12.8,0V462.6z"/>
		<path class="st3" d="M453.3,462.6c0,0,9-8.9,13.4-4.1c2.1,2.3-1.5,3.8-2,4.1c2.6-0.7,3.9,4,1.4,4c-2.5,0-12.8,0-12.8,0V462.6z"/>
	</g>
</g>
</svg>
