<?xml version="1.0" encoding="utf-8"?>
<!-- Generator: Adobe Illustrator 20.0.0, SVG Export Plug-In . SVG Version: 6.00 Build 0)  -->
<svg version="1.1" id="Layer_1" xmlns="http://www.w3.org/2000/svg" xmlns:xlink="http://www.w3.org/1999/xlink" x="0px" y="0px"
	 viewBox="0 0 612 612" style="enable-background:new 0 0 612 612;" xml:space="preserve">
<style type="text/css">
	.st0{clip-path:url(#SVGID_2_);fill:#93CB7B;}
	.st1{clip-path:url(#SVGID_2_);}
	.st2{fill:#E94250;}
	.st3{fill:#FFFFFF;}
	.st4{fill:#5AC7DA;}
	.st5{fill:#D3D1CE;}
	.st6{fill:#F48563;}
	.st7{fill:#DFDDDB;}
	.st8{fill:none;stroke:#FFFFFF;stroke-width:3;stroke-linecap:round;stroke-linejoin:round;}
	.st9{fill:none;stroke:#FFFFFF;stroke-width:3;stroke-linecap:round;stroke-linejoin:round;stroke-dasharray:0,8;}
	.st10{fill:none;stroke:#FFFFFF;stroke-width:3;stroke-linecap:round;stroke-linejoin:round;stroke-dasharray:0,9;}
	.st11{fill:#FFE200;}
	.st12{fill:#6F479C;}
	.st13{fill:#B399C3;}
	.st14{fill:none;stroke:#FFFFFF;stroke-width:3;stroke-linecap:round;stroke-linejoin:round;stroke-dasharray:9.805683e-03,7.8445;}
	.st15{fill:#EC6081;}
	.st16{fill:#B03D25;}
	.st17{fill:#FCB316;}
	.st18{fill:#E2F3F9;}
	.st19{fill-rule:evenodd;clip-rule:evenodd;fill:#E65D87;}
	.st20{fill:#FAD3A5;}
	.st21{fill:#39A2CC;}
	.st22{fill:#333333;}
	.st23{fill:#58595B;}
	.st24{fill-rule:evenodd;clip-rule:evenodd;fill:#FFFFFF;}
	.st25{fill:none;stroke:#FFFFFF;stroke-width:2.3931;stroke-miterlimit:10;}
	.st26{fill-rule:evenodd;clip-rule:evenodd;fill:#72CACF;}
	.st27{fill-rule:evenodd;clip-rule:evenodd;fill:#263A44;}
	.st28{fill:none;stroke:#FFFFFF;stroke-width:2;stroke-miterlimit:10;}
	.st29{opacity:0.3;}
	.st30{opacity:0.3;fill:#FFFFFF;}
	.st31{opacity:0.5;fill:#FFFFFF;}
	.st32{fill:#DF62A0;}
</style>
<g>
	<defs>
		<circle id="SVGID_1_" cx="306" cy="306" r="306"/>
	</defs>
	<use xlink:href="#SVGID_1_"  style="overflow:visible;fill:#5CB747;"/>
	<clipPath id="SVGID_2_">
		<use xlink:href="#SVGID_1_"  style="overflow:visible;"/>
	</clipPath>
	<rect x="0.1" y="-17.9" class="st0" width="647.8" height="647.8"/>
	<g class="st1">
		<g id="paper">
			<g>
				<g>
					<path class="st2" d="M374.5,161.7c-33.3,0-60.3-27.1-60.3-60.3c0-33.3,27.1-60.3,60.3-60.3s60.3,27.1,60.3,60.3
						C434.8,134.6,407.7,161.7,374.5,161.7z"/>
					<path class="st3" d="M374.5,42.5c32.4,0,58.8,26.4,58.8,58.8c0,32.4-26.4,58.8-58.8,58.8c-32.4,0-58.8-26.4-58.8-58.8
						C315.6,68.9,342,42.5,374.5,42.5 M374.5,39.5c-34.1,0-61.8,27.7-61.8,61.8s27.7,61.8,61.8,61.8c34.1,0,61.8-27.7,61.8-61.8
						S408.6,39.5,374.5,39.5L374.5,39.5z"/>
				</g>
			</g>
			<g>
				<path class="st4" d="M346.3,57.5c-1.2,0-2.1,0.9-2.1,2.1v83c0,1.2,0.9,2.1,2.1,2.1h57.4c1.2,0,2.1-0.9,2.1-2.1v-83
					c0-1.2-0.9-2.1-2.1-2.1H346.3z"/>
				<rect x="347.7" y="62.4" class="st3" width="54.7" height="77.3"/>
				<g>
					<g>
						<rect x="354.6" y="123.1" class="st5" width="40.8" height="1.2"/>
						<rect x="354.6" y="126.2" class="st5" width="40.8" height="1.2"/>
						<rect x="354.6" y="129.2" class="st5" width="20.4" height="1.2"/>
					</g>
				</g>
				<g>
					<g>
						<rect x="354.6" y="114" class="st5" width="40.8" height="1.2"/>
						<rect x="354.6" y="117" class="st5" width="40.8" height="1.2"/>
						<rect x="354.6" y="120.1" class="st5" width="40.6" height="1.2"/>
					</g>
				</g>
				<g>
					<g>
						<g>
							<rect x="365.5" y="76.3" class="st5" width="29.7" height="1.3"/>
							<rect x="365.5" y="85.3" class="st5" width="29.7" height="1.3"/>
							<rect x="365.5" y="94.3" class="st5" width="29.7" height="1.3"/>
							<rect x="365.5" y="103.2" class="st5" width="29.7" height="1.3"/>
						</g>
					</g>
					<g>
						<g>
							<path class="st5" d="M358.4,80.6c-2,0-3.6-1.6-3.6-3.6c0-2,1.6-3.6,3.6-3.6c2,0,3.6,1.6,3.6,3.6
								C362,79,360.4,80.6,358.4,80.6z M358.4,74.1c-1.6,0-2.9,1.3-2.9,2.9c0,1.6,1.3,2.9,2.9,2.9c1.6,0,2.9-1.3,2.9-2.9
								C361.3,75.4,360,74.1,358.4,74.1z"/>
							<path class="st5" d="M358.4,89.6c-2,0-3.6-1.6-3.6-3.6c0-2,1.6-3.6,3.6-3.6c2,0,3.6,1.6,3.6,3.6
								C362,88,360.4,89.6,358.4,89.6z M358.4,83.1c-1.6,0-2.9,1.3-2.9,2.9c0,1.6,1.3,2.9,2.9,2.9c1.6,0,2.9-1.3,2.9-2.9
								C361.3,84.4,360,83.1,358.4,83.1z"/>
							<path class="st5" d="M358.4,98.5c-2,0-3.6-1.6-3.6-3.6s1.6-3.6,3.6-3.6c2,0,3.6,1.6,3.6,3.6S360.4,98.5,358.4,98.5z
								 M358.4,92c-1.6,0-2.9,1.3-2.9,2.9c0,1.6,1.3,2.9,2.9,2.9c1.6,0,2.9-1.3,2.9-2.9C361.3,93.3,360,92,358.4,92z"/>
							<path class="st5" d="M358.4,107.5c-2,0-3.6-1.6-3.6-3.6c0-2,1.6-3.6,3.6-3.6c2,0,3.6,1.6,3.6,3.6
								C362,105.9,360.4,107.5,358.4,107.5z M358.4,101c-1.6,0-2.9,1.3-2.9,2.9c0,1.6,1.3,2.9,2.9,2.9c1.6,0,2.9-1.3,2.9-2.9
								C361.3,102.3,360,101,358.4,101z"/>
						</g>
					</g>
					<polygon class="st6" points="356.1,85.3 356.7,84.7 358.4,86.4 362,82.9 362.6,83.5 358.4,87.7 					"/>
				</g>
				<g>
					<path class="st7" d="M379.7,57.6c0-2.6-2.1-4.7-4.7-4.7c-2.6,0-4.7,2.1-4.7,4.7h-5.9v9.6h21.2v-9.6H379.7z M375,56
						c0.9,0,1.6,0.7,1.6,1.6c0,0.9-0.7,1.6-1.6,1.6c-0.9,0-1.6-0.7-1.6-1.6C373.4,56.8,374.1,56,375,56z"/>
					<path class="st5" d="M379.7,57.6c0-2.6-2.1-4.7-4.7-4.7c-2.6,0-4.7,2.1-4.7,4.7h-5.9v4.8h21.2v-4.8H379.7z M375,56
						c0.9,0,1.6,0.7,1.6,1.6c0,0.9-0.7,1.6-1.6,1.6c-0.9,0-1.6-0.7-1.6-1.6C373.4,56.8,374.1,56,375,56z"/>
					<rect x="364.4" y="61.4" class="st3" width="21.2" height="1"/>
					<rect x="364.4" y="62.4" class="st5" width="21.2" height="1"/>
				</g>
			</g>
		</g>
		<g>
			<g>
				<line class="st8" x1="432" y1="133.5" x2="432" y2="133.5"/>
				<line class="st9" x1="431.5" y1="141" x2="431.5" y2="214"/>
				<line class="st8" x1="432" y1="217.9" x2="432" y2="217.9"/>
			</g>
		</g>
		<g>
			<g>
				<line class="st8" x1="442.2" y1="231.1" x2="442.2" y2="231.1"/>
				<line class="st9" x1="450" y1="231.5" x2="559" y2="231.5"/>
				<line class="st8" x1="562.7" y1="231.1" x2="562.7" y2="231.1"/>
				<g>
					<polygon class="st3" points="443,225.6 443,236.5 437.5,231.1 					"/>
				</g>
				<g>
					<circle class="st3" cx="562.6" cy="231.1" r="3.4"/>
				</g>
			</g>
		</g>
		<g>
			<g>
				<line class="st8" x1="82.8" y1="133.1" x2="82.8" y2="133.1"/>
				<line class="st9" x1="91" y1="133.5" x2="183" y2="133.5"/>
				<line class="st8" x1="187.3" y1="133.1" x2="187.3" y2="133.1"/>
			</g>
		</g>
		<g>
			<g>
				<line class="st8" x1="80.7" y1="260.3" x2="80.7" y2="260.3"/>
				<line class="st9" x1="80.5" y1="268" x2="80.5" y2="296"/>
				<line class="st8" x1="80.7" y1="300.3" x2="80.7" y2="300.3"/>
				<g>
					<circle class="st3" cx="80.7" cy="300.1" r="3.4"/>
				</g>
			</g>
		</g>
		<g>
			<g>
				<line class="st8" x1="80.7" y1="148.9" x2="80.7" y2="148.9"/>
				<line class="st10" x1="80.5" y1="158" x2="80.5" y2="171"/>
				<line class="st8" x1="80.7" y1="175.8" x2="80.7" y2="175.8"/>
			</g>
		</g>
		<g>
			<g>
				<line class="st8" x1="523.5" y1="487.4" x2="523.5" y2="487.4"/>
				<line class="st9" x1="523.5" y1="495" x2="523.5" y2="514"/>
				<line class="st8" x1="523.5" y1="518" x2="523.5" y2="518"/>
				<line class="st9" x1="516" y1="517.5" x2="274" y2="517.5"/>
				<line class="st8" x1="269.9" y1="518" x2="269.9" y2="518"/>
				<g>
					<circle class="st3" cx="523.5" cy="487.6" r="3.4"/>
				</g>
				<g>
					<polygon class="st3" points="271,523.4 271,512.5 265.5,518 					"/>
				</g>
			</g>
		</g>
		<g>
			<path class="st11" d="M56.2,234.5l-3.6,3.7l7.8,7.6L64,242c3.4,2.3,7.3,3.8,11.5,4.6l0.1,5.1l10.9-0.2l-0.1-5.1
				c4.2-0.8,8-2.5,11.3-4.9l3.7,3.6l7.6-7.8l-3.7-3.6c2.3-3.4,3.8-7.3,4.6-11.5l5.1-0.1l-0.2-10.9l-5.1,0.1c-0.8-4.2-2.5-8-4.9-11.3
				l3.6-3.7l-7.8-7.6l-3.6,3.7c-3.4-2.3-7.3-3.8-11.5-4.6l-0.1-5.1L74.6,183l0.1,5.1c-4.2,0.8-8,2.5-11.3,4.9l-3.7-3.6l-7.6,7.8
				l3.7,3.6c-2.3,3.4-3.8,7.3-4.6,11.5l-5.1,0.1l0.2,10.9l5.2-0.1C52.2,227.3,53.9,231.1,56.2,234.5 M80.2,195.3
				c12.1-0.2,22.1,9.5,22.3,21.6c0.2,12.1-9.5,22.1-21.6,22.3c-12.1,0.2-22.1-9.5-22.3-21.6C58.4,205.5,68.1,195.5,80.2,195.3"/>
			<path class="st11" d="M141.5,170.4l3.2-1.4l-3.5-8l-3.2,1.4c-1.4-1.9-3.2-3.6-5.2-4.9l1.3-3.3l-8.1-3.1l-1.3,3.3
				c-2.4-0.4-4.8-0.3-7.1,0.2l-1.4-3.2l-8,3.5l1.4,3.2c-1.9,1.4-3.6,3.2-4.9,5.2l-3.3-1.3l-3.1,8.1l3.3,1.3
				c-0.4,2.4-0.3,4.8,0.2,7.1l-3.2,1.4l3.5,8l3.2-1.4c1.4,1.9,3.2,3.6,5.2,4.9l-1.3,3.3l8.1,3.1l1.3-3.3c2.4,0.4,4.8,0.3,7.1-0.2
				l1.4,3.2l8-3.5l-1.4-3.2c1.9-1.4,3.6-3.2,4.9-5.2l3.3,1.3l3.1-8.1l-3.3-1.3C142,175.1,142,172.7,141.5,170.4 M127.1,186.9
				c-1.7,0.7-3.5,1.1-5.3,1.2c-5.5,0.1-10.4-3.1-12.6-8.1c-3-6.9,0.1-14.9,6.9-18c1.7-0.7,3.5-1.1,5.3-1.2
				c5.5-0.1,10.4,3.1,12.6,8.1C137.1,175.8,134,183.8,127.1,186.9"/>
		</g>
		<g>
			<path class="st12" d="M451.7,200.5l-1.9,1.9l4.1,3.9l1.9-1.9c1.8,1.2,3.8,2,6,2.4l0,2.7l5.7-0.1l0-2.7c2.2-0.4,4.2-1.3,5.9-2.5
				l1.9,1.9l3.9-4.1l-1.9-1.9c1.2-1.8,2-3.8,2.4-6l2.7,0l-0.1-5.7l-2.7,0c-0.4-2.2-1.3-4.2-2.5-5.9l1.9-1.9l-4.1-3.9l-1.9,1.9
				c-1.8-1.2-3.8-2-6-2.4l0-2.7l-5.7,0.1l0,2.7c-2.2,0.4-4.2,1.3-5.9,2.5l-1.9-1.9l-3.9,4.1l1.9,1.9c-1.2,1.8-2,3.8-2.4,6l-2.7,0
				l0.1,5.7l2.7,0C449.6,196.8,450.5,198.8,451.7,200.5 M464.2,180.1c6.3-0.1,11.5,5,11.6,11.3c0.1,6.3-5,11.5-11.3,11.6
				c-6.3,0.1-11.5-5-11.6-11.3C452.9,185.4,457.9,180.2,464.2,180.1"/>
			<path class="st12" d="M496.2,167.1l1.7-0.7l-1.8-4.1l-1.7,0.7c-0.7-1-1.6-1.9-2.7-2.6l0.7-1.7l-4.2-1.6l-0.7,1.7
				c-1.2-0.2-2.5-0.2-3.7,0.1l-0.7-1.7l-4.1,1.8l0.7,1.7c-1,0.7-1.9,1.6-2.6,2.7l-1.7-0.7l-1.6,4.2l1.7,0.7
				c-0.2,1.2-0.2,2.5,0.1,3.7l-1.7,0.7l1.8,4.1l1.7-0.7c0.7,1,1.6,1.9,2.7,2.6l-0.7,1.7l4.2,1.6l0.7-1.7c1.2,0.2,2.5,0.2,3.7-0.1
				l0.7,1.7l4.1-1.8l-0.7-1.7c1-0.7,1.9-1.6,2.6-2.7l1.7,0.7l1.6-4.2l-1.7-0.7C496.4,169.6,496.4,168.3,496.2,167.1 M488.7,175.7
				c-0.9,0.4-1.8,0.6-2.8,0.6c-2.8,0-5.4-1.6-6.6-4.2c-1.6-3.6,0-7.8,3.6-9.4c0.9-0.4,1.8-0.6,2.8-0.6c2.8,0,5.4,1.6,6.6,4.2
				C493.9,169.9,492.2,174.1,488.7,175.7"/>
		</g>
		<path class="st13" d="M235.4,204h-34.1c-2.9,0-5.3,2.4-5.3,5.3v18.4c0,2.9,2.4,5.3,5.3,5.3h2.6v9.2c0,0.3,0.1,0.7,0.4,0.9
			c0.5,0.5,1.3,0.5,1.9,0l10.9-10.1h18.4c2.9,0,5.3-2.4,5.3-5.3v-18.4C240.7,206.3,238.3,204,235.4,204 M205.2,211.8h21
			c0.7,0,1.3,0.6,1.3,1.3c0,0.7-0.6,1.3-1.3,1.3h-21c-0.7,0-1.3-0.6-1.3-1.3C203.9,212.4,204.5,211.8,205.2,211.8 M215.7,225h-10.5
			c-0.7,0-1.3-0.6-1.3-1.3c0-0.7,0.6-1.3,1.3-1.3h10.5c0.7,0,1.3,0.6,1.3,1.3C217,224.4,216.5,225,215.7,225 M231.5,219.7h-26.3
			c-0.7,0-1.3-0.6-1.3-1.3c0-0.7,0.6-1.3,1.3-1.3h26.3c0.7,0,1.3,0.6,1.3,1.3C232.8,219.1,232.2,219.7,231.5,219.7"/>
		<g>
			<g>
				<g>
					<line class="st8" x1="307.2" y1="211.5" x2="307.2" y2="211.5"/>
					<line class="st9" x1="307.5" y1="219" x2="307.5" y2="253"/>
					<line class="st8" x1="307.2" y1="256.7" x2="307.2" y2="256.7"/>
					<line class="st14" x1="315" y1="256.7" x2="350.4" y2="256.3"/>
					<line class="st8" x1="354.3" y1="256.3" x2="354.3" y2="256.3"/>
				</g>
			</g>
			<g>
				<g>
					<line class="st8" x1="230" y1="159.3" x2="230" y2="159.3"/>
					<line class="st9" x1="238" y1="159.5" x2="302" y2="159.5"/>
					<line class="st8" x1="306.1" y1="159.3" x2="306.1" y2="159.3"/>
				</g>
			</g>
			<g>
				<g>
					<path class="st15" d="M294.7,179.7c3.5-3.5,9-4,13.1-1.5c-1.4,1.4-3,3-3,3c-1.1,1.3,0.1,2.1,0.8,2.1l7.5,0c0.4,0,0.7,0,0.7,0
						h0.7h1.5c0.4,0,0.7-0.3,0.7-0.7v-10.3c0-0.9-1-1.9-2.1-0.8c0,0-1.8,1.7-3,2.9c-6.2-4.6-15-4-20.7,1.6
						c-3.3,3.3-4.8,7.6-4.6,11.9h5.3C291.5,184.9,292.5,181.9,294.7,179.7"/>
					<path class="st15" d="M312.4,186.1c0.2,2.9-0.8,5.9-3.1,8.2c-3.5,3.5-9,4-13.1,1.5c1.4-1.4,3-3,3-3c1.1-1.3-0.1-2.1-0.8-2.1
						l-7.5,0c-0.4,0-0.7,0-0.7,0h-0.7h-1.5c-0.4,0-0.7,0.3-0.7,0.7v10.3c0,0.9,1,1.9,2.1,0.8c0,0,1.8-1.7,3-2.9
						c6.2,4.6,15,4,20.7-1.6c3.3-3.3,4.8-7.6,4.6-12L312.4,186.1L312.4,186.1z"/>
				</g>
			</g>
			<g>
				<path class="st2" d="M211,137.7c-7.7,0-13.9,6.2-13.9,13.9c0,7.7,13.9,25.6,13.9,25.6s13.9-17.9,13.9-25.6
					C224.9,143.9,218.7,137.7,211,137.7z M211,153.9c-2.4,0-4.3-1.9-4.3-4.3c0-2.4,1.9-4.3,4.3-4.3c2.4,0,4.3,1.9,4.3,4.3
					C215.3,151.9,213.4,153.9,211,153.9z"/>
			</g>
			<g>
				<path class="st16" d="M402.9,261.8h-39.8v3.7h39.8V261.8z M401.1,264h-3.2v-0.9h3.2V264z"/>
				<path class="st16" d="M401,238.2h-36.1v22.4H401V238.2z M397,257.4h-28.1v-16.1H397V257.4z"/>
			</g>
		</g>
		<g>
			<circle class="st17" cx="441.9" cy="471.4" r="23.4"/>
			<g>
				<g>
					<g>
						<polygon class="st18" points="445.6,459.1 438.1,459.1 438.1,470.2 433,470.2 442,479.1 450.8,470.2 445.6,470.2 						"/>
					</g>
				</g>
				<g>
					<rect x="432" y="481.7" class="st18" width="19.9" height="2"/>
					<rect x="432" y="480.1" class="st18" width="1.6" height="3.5"/>
					<rect x="450.3" y="480.1" class="st18" width="1.6" height="3.5"/>
				</g>
			</g>
		</g>
		<g>
			<g>
				<g>
					<rect x="463.5" y="263.8" class="st19" width="96.2" height="137.3"/>
					<path class="st3" d="M465,265.3l93.2,0.1l-0.1,134.3l-93.2-0.1L465,265.3 M462,262.2L462,402.5l99.2,0.1l0.1-140.3L462,262.2
						L462,262.2z"/>
				</g>
				<g>
					<rect x="471.9" y="362.8" class="st3" width="79.4" height="4.1"/>
					<rect x="471.9" y="375" class="st3" width="79.4" height="4.1"/>
					<rect x="471.9" y="387.1" class="st3" width="79.4" height="4.1"/>
					<rect x="471.9" y="381" class="st3" width="79.4" height="4.1"/>
					<rect x="471.9" y="368.9" class="st3" width="79.4" height="4.1"/>
				</g>
				<g>
					<circle class="st3" cx="511.6" cy="282.5" r="9.5"/>
					<path class="st3" d="M504.2,310.8l-13.3,9.7l-13.3-9.7l13.3-9.7L504.2,310.8z"/>
					<path class="st3" d="M545.6,310.8l-13.3,9.7l-13.3-9.7l13.3-9.7L545.6,310.8z"/>
					<path class="st3" d="M545.6,344.2l-13.3,9.7l-13.3-9.7l13.3-9.7L545.6,344.2z"/>
					<rect x="479.6" y="335.2" class="st3" width="22.7" height="17"/>
					<polyline class="st3" points="490.9,298.2 490.9,298.2 532.3,298.2 532.3,298.2 					"/>
					<line class="st3" x1="490.9" y1="298.2" x2="490.9" y2="336.1"/>
					<line class="st3" x1="532.3" y1="298.2" x2="532.3" y2="334.6"/>
					<line class="st3" x1="511.6" y1="282.5" x2="511.6" y2="298.2"/>
				</g>
			</g>
			<g>
				<path class="st20" d="M507.4,391.2v-16.6c0-3.5-2.9-6.4-6.4-6.4h-2.1c-0.1,0-0.2,0-0.3,0v14.1L507.4,391.2z"/>
				<path class="st20" d="M512.9,388.8l-10.8-10.8c-1-1-2.3-1.6-3.6-1.8v10.7l14.4,14.4V388.8z"/>
				<path class="st20" d="M524.5,351.9c2.4,0,4.3,1.9,4.3,4.3v32c0,2.4-1.9,4.3-4.3,4.3l0,0c-2.4,0-4.3-1.9-4.3-4.3v-32
					C520.2,353.9,522.1,351.9,524.5,351.9L524.5,351.9z"/>
				<path class="st20" d="M509.4,392.8c0,6.2,5,11.3,11.3,11.3H539c6.2,0,11.3-5,11.3-11.3v-18.3c0-6.2-5-11.3-11.3-11.3h-18.3
					c-6.2,0-11.3,5-11.3,11.3V392.8z"/>
				<path class="st20" d="M545.9,355.5c2.4,0,4.3,1.9,4.3,4.3v20.5c0,2.4-1.9,4.3-4.3,4.3l0,0c-2.4,0-4.3-1.9-4.3-4.3v-20.5
					C541.6,357.5,543.5,355.5,545.9,355.5L545.9,355.5z"/>
				<path class="st20" d="M535.3,351.9c2.4,0,4.3,1.9,4.3,4.3v32c0,2.4-1.9,4.3-4.3,4.3l0,0c-2.4,0-4.3-1.9-4.3-4.3v-32
					C531,353.9,532.9,351.9,535.3,351.9L535.3,351.9z"/>
				<path class="st20" d="M513.8,341.3c2.4,0,4.3,1.9,4.3,4.3v29.7c0,2.4-1.9,4.3-4.3,4.3l0,0c-2.4,0-4.3-1.9-4.3-4.3v-29.7
					C509.4,343.2,511.4,341.3,513.8,341.3L513.8,341.3z"/>
				<path class="st20" d="M545.7,430.2v-40.8c0-4.2-3.4-7.6-7.6-7.6h-12.4c-4.2,0-7.6,3.4-7.6,7.6l0,40.8H545.7z"/>
				<rect x="513" y="411.3" class="st3" width="37.7" height="19.2"/>
				<rect x="511.6" y="417.8" class="st21" width="40.6" height="65.5"/>
			</g>
		</g>
		<g>
			<g>
				<g>
					<path class="st22" d="M256.7,515.8c0,0-4.2-4.7-9.5-9.9c-5.3-5.1-4.5-8.9-4.5-8.9l-1.4-20.5h-32.5h-1.6h-32.5l-1.4,20.5
						c0,0,0.7,3.8-4.5,8.9c-5.3,5.1-9.5,9.9-9.5,9.9s-0.6,1.1-0.6,2.8c0,1.6,0.9,1.7,4.5,1.7c3.2,0,36.3,0,44,0c1,0,1.6,0,1.6,0
						c7.7,0,40.8,0,44,0c3.7,0,4.5-0.1,4.5-1.7C257.3,517,256.7,515.8,256.7,515.8z"/>
					<path class="st22" d="M256.7,515.5c0,0-4.2-4.7-9.5-9.9c-5.3-5.1-4.5-8.9-4.5-8.9l-1.4-20.5h-32.5h-1.6h-32.5l-1.4,20.5
						c0,0,0.7,3.8-4.5,8.9c-5.3,5.1-9.5,9.9-9.5,9.9s-0.6,1.1-0.6,2.8c0,1.6,0.9,1.7,4.5,1.7c3.2,0,36.3,0,44,0c1,0,1.6,0,1.6,0
						c7.7,0,40.8,0,44,0c3.7,0,4.5-0.1,4.5-1.7C257.3,516.6,256.7,515.5,256.7,515.5z"/>
				</g>
				<path class="st23" d="M347.3,469.3c0,5.8-5.4,10.5-12,10.5H80.6c-6.7,0-12-4.7-12-10.5V291c0-5.8,5.4-10.5,12-10.5h254.6
					c6.6,0,12,4.7,12,10.5V469.3z"/>
				<rect x="77.9" y="294.5" class="st18" width="260" height="160.9"/>
				<g>
					<g id="Shape_9_6_">
						<g>
							<rect x="77.6" y="293.1" class="st24" width="260.7" height="162.2"/>
						</g>
					</g>
					<line class="st25" x1="221.3" y1="385.5" x2="321.8" y2="385.5"/>
					<line class="st25" x1="221.3" y1="397.1" x2="321.8" y2="397.1"/>
					<line class="st25" x1="221.3" y1="410.2" x2="321.8" y2="410.2"/>
					<line class="st25" x1="221.3" y1="423.2" x2="321.8" y2="423.2"/>
					<rect x="77.6" y="293.1" class="st26" width="260.7" height="14.9"/>
					<rect x="77.6" y="310.2" class="st27" width="76.2" height="145.2"/>
					<ellipse class="st24" cx="90.5" cy="321" rx="6.3" ry="5.6"/>
					<line class="st28" x1="104.5" y1="321" x2="145.7" y2="321"/>
					<ellipse class="st24" cx="90.5" cy="339.3" rx="6.3" ry="5.6"/>
					<line class="st28" x1="104.5" y1="339.3" x2="145.7" y2="339.3"/>
					<ellipse class="st24" cx="90.5" cy="357.2" rx="6.3" ry="5.6"/>
					<line class="st28" x1="104.5" y1="357.2" x2="145.7" y2="357.2"/>
					<ellipse class="st24" cx="90.5" cy="375.1" rx="6.3" ry="5.6"/>
					<line class="st28" x1="104.5" y1="375.1" x2="145.7" y2="375.1"/>
					<ellipse class="st24" cx="90.5" cy="391.5" rx="6.3" ry="5.6"/>
					<line class="st28" x1="104.5" y1="391.5" x2="145.7" y2="391.5"/>
					<rect x="158.6" y="313.4" class="st26" width="170.8" height="4"/>
					<ellipse class="st26" cx="187.4" cy="348.5" rx="23.2" ry="20.6"/>
					<g id="charts_24_">
						<path class="st3" d="M198.5,357v-12.4c0-0.2-0.2-0.4-0.5-0.4h-3.9c-0.3,0-0.5,0.2-0.5,0.4V357h-1v-18.5c0-0.2-0.2-0.4-0.5-0.4
							h-3.9c-0.3,0-0.5,0.2-0.5,0.4V357h-1v-9c0-0.2-0.2-0.4-0.5-0.4h-3.9c-0.3,0-0.5,0.2-0.5,0.4v9h-1v-3.9c0-0.2-0.2-0.4-0.5-0.4
							h-3.9c-0.3,0-0.5,0.2-0.5,0.4v0.4v3.4h-1.9v1.7h26.1v-0.9V357H198.5z"/>
					</g>
					<ellipse class="st26" cx="244.3" cy="348.5" rx="23.2" ry="20.6"/>
					<g id="stats_13_">
						<g>
							<path class="st3" d="M254.4,342c1.3,0,2.4-1,2.4-2.1c0-1.2-1.1-2.1-2.4-2.1c-1.3,0-2.4,1-2.4,2.1c0,0.5,0.2,1,0.6,1.4
								l-3.2,4.3c-0.2-0.1-0.5-0.1-0.7-0.1c-1.3,0-2.4,1-2.4,2.1c0,0.1,0,0.2,0,0.3l-4.5,1.8c-0.4-0.5-1.1-0.7-1.8-0.7
								c-1.3,0-2.4,1-2.4,2.1c0,0.4,0.1,0.8,0.4,1.1l-4.2,4.3v-18.8h-1h-1v21.5h1h23.2v-0.9v-0.9h-21.3l4.3-4.5
								c0.3,0.1,0.6,0.2,1,0.2c1.3,0,2.4-1,2.4-2.1c0-0.1,0-0.1,0-0.2l4.5-1.8c0.4,0.4,1.1,0.7,1.8,0.7c1.3,0,2.4-1,2.4-2.1
								c0-0.5-0.2-0.9-0.5-1.3l3.2-4.4C254,342,254.2,342,254.4,342z"/>
						</g>
						<g class="st29">
							<path class="st3" d="M235.2,354.9h-1.5V354h2.4L235.2,354.9z M236.6,351.5h-2.9v-0.9h2.9V348h-2.9v-0.9h2.9v-2.6h-2.9v-0.9
								h2.9v-2.6h-2.9v-0.9h2.9v-2.6h1v2.6h2.9v-2.6h1v2.6h2.9v-2.6h1v2.6h2.9v-2.6h1v2.6h2.9v-0.4c0,0.5,0.2,1,0.6,1.4L252,342
								v-0.9h-2.9v2.6h1.6l-0.6,0.9h-1v0.9c-0.2,0-0.3-0.1-0.5-0.1c-0.2,0-0.3,0-0.5,0v-0.9h-2.9v2.6h1c0,0.1-0.1,0.3-0.1,0.4
								c0,0.1,0,0.2,0,0.3l-0.4,0.1h-0.6v0.2l-1,0.4V348h-2.9v1.3c-0.3-0.2-0.6-0.3-1-0.4V348h-2.9v2.6h0.1c0,0.1-0.1,0.3-0.1,0.4
								c0,0.1,0,0.3,0.1,0.4h-0.1v1.1l-1,1V351.5z M245.2,343.7h2.9v-2.6h-2.9V343.7z M241.4,343.7h2.9v-2.6h-2.9V343.7z
								 M241.4,347.2h2.9v-2.6h-2.9V347.2z M237.5,343.7h2.9v-2.6h-2.9V343.7z M237.5,347.2h2.9v-2.6h-2.9V347.2z M253,338.2v-0.5
								h-1v2.2C252,339.2,252.4,338.6,253,338.2z M253,343.7h2.9v0.9H253v2.6h2.9v0.9H253v2.6h2.9v0.9H253v2.6h2.9v0.9H253v2.6h-1
								v-2.6h-2.9v2.6h-1v-2.6h-2.9v2.6h-1v-2.6h-2.9v2.6h-1v-2.6h-2.9v2.6h-1v-2l1.4-1.4h2.5v-0.9c0.4-0.1,0.7-0.2,1-0.4v1.3h2.9
								v-2.6h-2c0-0.1,0-0.3,0-0.4c0-0.1,0-0.1,0-0.2l0.6-0.2h1.4v-0.5l1-0.4v0.9h2.9v-0.9c0.2,0,0.3,0,0.5,0s0.3,0,0.5,0v0.9h2.9
								V348h-1c0-0.1,0-0.3,0-0.4c0-0.2,0-0.3-0.1-0.4h1v-2.6h-0.2l1.1-1.5V343.7z M248.1,351.5h-2.9v2.6h2.9V351.5z M252,351.5
								h-2.9v2.6h2.9V351.5z"/>
						</g>
					</g>
					<ellipse class="st26" cx="301.1" cy="348.5" rx="23.2" ry="20.6"/>
					<g id="pie_x5F_chart_21_">
						<g>
							<path class="st3" d="M289.3,348.1c0-5.3,4.9-9.6,10.8-9.6c3,0,5.7,1.1,7.6,2.8l-7.7,6.8v9.6
								C294.3,357.6,289.3,353.3,289.3,348.1z"/>
						</g>
						<path class="st30" d="M302.1,348.1l7.6-6.8c4.2,3.7,4.2,9.8,0,13.5L302.1,348.1z"/>
						<path class="st31" d="M301.1,348.9v9.6c2.9,0,5.5-0.9,7.6-2.8L301.1,348.9z"/>
					</g>
					<g>
						<rect x="172.9" y="375.1" class="st26" width="29.8" height="2.6"/>
						<rect x="162" y="384.4" class="st26" width="50.9" height="2.9"/>
						<rect x="162" y="391.3" class="st26" width="50.9" height="2.9"/>
						<rect x="162" y="398.2" class="st26" width="50.9" height="2.9"/>
						<rect x="162" y="405.1" class="st26" width="50.9" height="2.9"/>
						<rect x="162" y="412" class="st26" width="50.9" height="2.9"/>
					</g>
					<g>
						<rect x="229.8" y="375.1" class="st26" width="29.8" height="2.6"/>
						<rect x="218.8" y="384.4" class="st26" width="50.9" height="2.9"/>
						<rect x="218.8" y="391.3" class="st26" width="50.9" height="2.9"/>
						<rect x="218.8" y="398.2" class="st26" width="50.9" height="2.9"/>
						<rect x="218.8" y="405.1" class="st26" width="50.9" height="2.9"/>
						<rect x="218.8" y="412" class="st26" width="50.9" height="2.9"/>
					</g>
					<g>
						<rect x="286.6" y="375.1" class="st26" width="29.8" height="2.6"/>
						<rect x="275.7" y="384.4" class="st26" width="50.9" height="2.9"/>
						<rect x="275.7" y="391.3" class="st26" width="50.9" height="2.9"/>
						<rect x="275.7" y="398.2" class="st26" width="50.9" height="2.9"/>
						<rect x="275.7" y="405.1" class="st26" width="50.9" height="2.9"/>
						<rect x="275.7" y="412" class="st26" width="50.9" height="2.9"/>
					</g>
					<ellipse class="st24" cx="328" cy="300.3" rx="3.8" ry="3.4"/>
					<ellipse class="st24" cx="312.4" cy="300.3" rx="3.8" ry="3.4"/>
					<ellipse class="st24" cx="296.8" cy="300.3" rx="3.8" ry="3.4"/>
					<rect x="153.8" y="431" class="st26" width="184.5" height="3.3"/>
					<rect x="77.6" y="293.3" class="st27" width="18.4" height="14.7"/>
					<g>
						<rect x="80.5" y="296.1" class="st24" width="12.6" height="1.7"/>
						<rect x="80.5" y="299.8" class="st24" width="12.6" height="1.7"/>
						<rect x="80.5" y="303.5" class="st24" width="12.6" height="1.7"/>
					</g>
				</g>
				<path class="st18" d="M214.3,467.6c0-3.6-2.9-6.5-6.5-6.5c-3.6,0-6.5,2.9-6.5,6.5c0,3.6,2.9,6.5,6.5,6.5
					C211.4,474.1,214.3,471.2,214.3,467.6z"/>
			</g>
		</g>
		<g>
			<path class="st3" d="M409.7,395.1c-10.9-1.9-21.5-3.8-32.2-5.7c0-14.1,0-28.2,0-42.4c10.7-1.9,21.4-3.8,32.2-5.7
				c0,1.8,0,3.5,0,5.4c0.5,0,0.9,0,1.4,0c6.8,0,13.5,0,20.3,0c2.2,0,2.7,0.6,2.7,2.8c0,12.5,0,25,0,37.5c0,2.1-0.6,2.7-2.7,2.7
				c-6.8,0-13.5,0-20.3,0c-0.4,0-0.8,0-1.4,0C409.7,391.5,409.7,393.2,409.7,395.1z M409.8,372.5c2.5,0,5,0,7.5,0c0,1.7,0,3.2,0,4.9
				c-2.6,0-5,0-7.5,0c0,0.6,0,1.2,0,1.9c2.6,0,5.1,0,7.5,0c0,1.6,0,3,0,4.6c-2.6,0-5.1,0-7.5,0c0,1.4,0,2.6,0,3.9
				c7.5,0,14.9,0,22.4,0c0-13.1,0-26.1,0-39.2c-7.5,0-15,0-22.4,0c0,1.2,0,2.4,0,3.7c2.6,0,5.1,0,7.5,0c0,1.7,0,3.2,0,4.9
				c-2.6,0-5.1,0-7.5,0c0,0.7,0,1.2,0,1.8c2.5,0,5,0,7.5,0c0,1.7,0,3.2,0,4.9c-2.6,0-5,0-7.5,0c0,0.6,0,1.2,0,1.9c2.6,0,5.1,0,7.5,0
				c0,1.7,0,3.2,0,4.9c-2.6,0-5.1,0-7.5,0C409.8,371.3,409.8,371.9,409.8,372.5z M399.3,358.8c-1.1,0-2.1-0.1-3.1,0
				c-0.4,0.1-1,0.4-1.2,0.8c-0.9,1.9-1.7,3.9-2.6,6c-0.5-1.2-0.9-2.4-1.3-3.5c-1.2-3.1-1.2-3.1-4.5-2.7c-0.1,0-0.2,0.1-0.4,0.2
				c1.2,2.6,2.4,5.2,3.6,7.8c0.2,0.5,0.2,1.2,0,1.7c-1.1,2.3-2.2,4.5-3.3,6.8c-0.2,0.4-0.3,0.7-0.6,1.2c1,0,1.9,0,2.7,0.1
				c0.7,0.1,1.1-0.2,1.4-0.9c0.8-1.9,1.6-3.8,2.4-5.6c0.9,2.1,1.8,4.2,2.7,6.3c0.1,0.2,0.4,0.5,0.6,0.5c1.2,0.1,2.4,0.2,3.8,0.3
				c-0.2-0.5-0.3-0.8-0.5-1.1c-1.3-2.6-2.5-5.1-3.8-7.7c-0.4-0.7-0.3-1.2,0-1.9C396.6,364.4,397.9,361.6,399.3,358.8z"/>
			<path class="st32" d="M399.3,358.8c-1.4,2.8-2.7,5.6-4.1,8.4c-0.4,0.7-0.4,1.2,0,1.9c1.3,2.5,2.6,5.1,3.8,7.7
				c0.2,0.3,0.3,0.6,0.5,1.1c-1.4-0.1-2.6-0.1-3.8-0.3c-0.2,0-0.5-0.3-0.6-0.5c-0.9-2.1-1.8-4.2-2.7-6.3c-0.8,1.9-1.6,3.7-2.4,5.6
				c-0.3,0.7-0.6,1-1.4,0.9c-0.8-0.1-1.7-0.1-2.7-0.1c0.2-0.5,0.4-0.9,0.6-1.2c1.1-2.2,2.3-4.5,3.3-6.8c0.2-0.5,0.2-1.2,0-1.7
				c-1.1-2.6-2.3-5.2-3.6-7.8c0.2-0.1,0.3-0.1,0.4-0.2c3.3-0.4,3.3-0.4,4.5,2.7c0.4,1.1,0.9,2.3,1.3,3.5c0.9-2.1,1.7-4.1,2.6-6
				c0.2-0.4,0.7-0.8,1.2-0.8C397.2,358.7,398.2,358.8,399.3,358.8z"/>
			<path class="st3" d="M419.3,352.4c3,0,5.9,0,8.9,0c0,1.6,0,3.1,0,4.7c-3,0-5.9,0-8.9,0C419.3,355.5,419.3,354,419.3,352.4z"/>
			<path class="st3" d="M428.3,359.1c0,1.6,0,3.1,0,4.7c-3,0-5.9,0-8.9,0c0-1.5,0-3.1,0-4.7C422.3,359.1,425.2,359.1,428.3,359.1z"
				/>
			<path class="st3" d="M428.2,370.6c-3,0-5.9,0-8.9,0c0-1.6,0-3.1,0-4.8c2.9,0,5.8,0,8.9,0C428.2,367.4,428.2,368.9,428.2,370.6z"
				/>
			<path class="st3" d="M419.3,377.3c0-1.6,0-3.1,0-4.7c3,0,5.9,0,8.9,0c0,1.6,0,3.1,0,4.7C425.3,377.3,422.3,377.3,419.3,377.3z"/>
			<path class="st3" d="M419.3,379.3c3,0,5.9,0,8.9,0c0,1.5,0,2.9,0,4.5c-2.9,0-5.9,0-8.9,0C419.3,382.4,419.3,380.9,419.3,379.3z"
				/>
		</g>
	</g>
	<g class="st1">
	</g>
</g>
</svg>
