<?xml version="1.0" encoding="utf-8"?>
<!-- Generator: Adobe Illustrator 20.0.0, SVG Export Plug-In . SVG Version: 6.00 Build 0)  -->
<svg version="1.1" id="Layer_1" xmlns="http://www.w3.org/2000/svg" xmlns:xlink="http://www.w3.org/1999/xlink" x="0px" y="0px"
	 viewBox="0 0 612 612" style="enable-background:new 0 0 612 612;" xml:space="preserve">
<style type="text/css">
	.st0{fill:#F3806D;}
	.st1{opacity:0.2;}
	.st2{fill:#FFFFFF;}
	.st3{fill:none;stroke:#FFFFFF;stroke-miterlimit:10;}
	.st4{fill:none;stroke:#FFFFFF;stroke-miterlimit:10;stroke-dasharray:2.9959,2.9959;}
	.st5{fill:none;stroke:#FFFFFF;stroke-miterlimit:10;stroke-dasharray:2.9988,2.9988;}
	.st6{fill:none;stroke:#FFFFFF;stroke-miterlimit:10;stroke-dasharray:3;}
	.st7{fill:#CCCBCB;}
	.st8{clip-path:url(#SVGID_2_);fill:#FCFCFC;}
	.st9{fill:#1A1A1A;}
	.st10{fill:#28557D;}
	.st11{fill:#333333;}
	.st12{fill:#D1A886;}
	.st13{fill:#FBAF22;}
	.st14{fill:#4073A0;}
	.st15{fill:#F1CAA8;}
	.st16{fill:#57291E;}
	.st17{fill:#272361;}
	.st18{fill:#E5E5E4;}
	.st19{fill:#DE9226;}
	.st20{fill:#4D4E4E;}
	.st21{fill:#29A9E1;}
	.st22{fill:#544741;}
	.st23{fill:#7EC247;}
	.st24{fill:#2A445E;}
	.st25{fill:#CDE1F0;}
	.st26{fill:#50677E;}
	.st27{fill:#F26D40;}
	.st28{fill:#E34825;}
	.st29{fill:#B7D0E4;}
	.st30{fill:#20364D;}
	.st31{fill:#E0EEF9;}
	.st32{fill:#F05626;}
	.st33{fill:#00B1B6;}
	.st34{opacity:0.3;fill:#CDE1F0;enable-background:new    ;}
	.st35{fill:#F2F8FC;}
	.st36{fill:#FFC540;}
	.st37{fill:#FCB532;}
	.st38{fill:#FFD45C;}
	.st39{fill:#F5DDA5;}
	.st40{opacity:0.7;fill:#F26D40;enable-background:new    ;}
</style>
<g>
	<g>
		<circle class="st0" cx="306" cy="306" r="306"/>
	</g>
	<g>
		<g class="st1">
			<path class="st2" d="M161.5,320.1c-5.3,8.6-2.6,19.8,5.9,25.1c4,2.5,8.6,3.2,13,2.4l3.5,15c0.1,0.6,0.5,1.1,1,1.4
				c0.5,0.3,1.1,0.4,1.7,0.3c1.2-0.3,1.9-1.5,1.6-2.7l-3.7-15.4c3.2-1.5,5.9-3.8,7.9-7c5.3-8.6,2.6-19.8-5.9-25.1
				C178,308.9,166.7,311.5,161.5,320.1z M164.2,321.8c4.3-7,13.6-9.2,20.6-4.9c7,4.3,9.2,13.6,4.9,20.6s-13.6,9.2-20.6,4.9
				S159.9,328.8,164.2,321.8z"/>
			<path class="st2" d="M185.5,167.8v20.5c0,2.2,1.8,3.9,3.9,3.9h33.4c2.2,0,3.9-1.8,3.9-3.9v-20.5c0-2.2-1.8-3.9-3.9-3.9h-33.4
				C187.3,163.9,185.5,165.7,185.5,167.8z M188,188.3v-20.4l13,10.8L188,188.3C188.1,188.3,188,188.3,188,188.3z M224.3,188.5
				l-13-9.8l13-10.8v20.4C224.3,188.3,224.3,188.4,224.3,188.5z M190.2,166.4h32l-14.8,12.2c-0.7,0.6-1.9,0.6-2.5,0L190.2,166.4z
				 M221.7,189.7h-31.3l12.6-9.4l0.2,0.2c0.8,0.7,1.9,1,2.9,1s2.1-0.3,2.9-1l0.2-0.2L221.7,189.7z"/>
			<g>
				<g>
					<path class="st2" d="M150,259.3c0.4,2.2,2.1,3.7,3.8,3.7c1.8,0,3.4-1.6,3.9-3.8c0.2-0.1,0.4-0.5,0.4-0.9c0.1-0.5-0.1-1-0.4-1
						c0,0,0,0-0.1,0c-0.4-1.7-1.8-3.1-3.5-3.2c0.4-0.2,0.7-0.3,0.7-0.3c-0.5,0-0.8,0.1-1.1,0.2c-0.2-0.1-0.5-0.1-0.9-0.2
						c0.1,0,0.3,0,0.6,0.2h-0.1c-0.4,0-0.8,0-1.4,0.2c0,0,0.3-0.1,0.7,0c-1.3,0.4-2.3,1.6-2.6,3.1c-0.1,0-0.1-0.1-0.2-0.1
						c-0.3,0-0.5,0.5-0.4,1C149.5,258.9,149.8,259.3,150,259.3z"/>
					<path class="st2" d="M165.7,268.1c-0.6-0.5-1.5-0.5-2.1,0.1l-1.9,2.1l-1.1-3l-0.6-1.6c-0.1-0.4-0.4-0.6-0.7-0.8l0,0
						c-0.6-0.3-1.3-0.5-2-0.5h-1.1c0.1,0.4,0.1,0.8,0.1,1.3c0,1.5-0.4,2.8-1.1,3.6l-0.5-3c0-0.1,0-0.1-0.1-0.2l0.1-0.1l0.5-1.5
						c0-0.1,0-0.1-0.1-0.1h-2.6c-0.1,0-0.1,0-0.1,0.1l0.5,1.5c0,0,0,0.1,0.1,0.1c0,0.1-0.1,0.1-0.1,0.2l-0.5,3
						c-0.6-0.8-1.1-2.1-1.1-3.6c0-0.5,0-0.9,0.1-1.3h-1.1c-0.8,0-1.5,0.2-2.1,0.6l0,0c-0.3,0.2-0.6,0.5-0.7,0.8l-0.6,1.6l-3.7,9.9
						c-0.3,0.8,0.2,1.7,1.2,2c1,0.3,2-0.2,2.3-1l2.3-6v3.6l0,0c0,0,0,0,0,0.1v18.1c0,1.3,0.9,2.3,2.1,2.3c1.2,0,2.1-1,2.1-2.3v-14.5
						h1.1v14.5c0,1.3,0.9,2.3,2.1,2.3c1.2,0,2.1-1,2.1-2.3V276c0,0,0,0,0-0.1l0,0V272l0.8,2c0.2,0.4,0.3,0.5,0.5,0.8
						c0.5,0.6,1.5,0.5,2.1-0.1l1-1.2l2.9-3.3C166.4,269.6,166.4,268.6,165.7,268.1z"/>
				</g>
				<g>
					<path class="st2" d="M173.1,259.3c0.4,2.2,2.1,3.7,3.8,3.7c1.8,0,3.4-1.6,3.9-3.8c0.2-0.1,0.4-0.5,0.4-0.9c0-0.5-0.1-1-0.4-1
						c0,0,0,0-0.1,0c-0.4-1.7-1.8-3.1-3.5-3.2c0.4-0.2,0.7-0.3,0.7-0.3c-0.5,0-0.8,0.1-1.1,0.2c-0.2-0.1-0.5-0.1-0.9-0.2
						c0,0,0.3,0,0.6,0.2h-0.1c-0.4,0-0.8,0-1.4,0.2c0,0,0.3-0.1,0.7,0c-1.3,0.4-2.3,1.6-2.6,3.1c-0.1,0-0.1-0.1-0.2-0.1
						c-0.3,0-0.5,0.5-0.4,1C172.6,258.9,172.9,259.3,173.1,259.3z"/>
					<path class="st2" d="M188.8,268.1c-0.6-0.5-1.5-0.5-2.1,0.1l-1.9,2.1l-1.1-3l-0.6-1.6c-0.1-0.4-0.4-0.6-0.7-0.8l0,0
						c-0.6-0.3-1.3-0.5-2-0.5h-1.1c0.1,0.4,0.1,0.8,0.1,1.3c0,1.5-0.4,2.8-1.1,3.6l-0.5-3c0-0.1,0-0.1-0.1-0.2l0.1-0.1l0.5-1.5
						c0-0.1,0-0.1-0.1-0.1h-2.6c-0.1,0-0.1,0-0.1,0.1l0.5,1.5l0.1,0.1c0,0.1-0.1,0.1-0.1,0.2l-0.5,3c-0.6-0.8-1.1-2.1-1.1-3.6
						c0-0.5,0-0.9,0.1-1.3h-1.1c-0.8,0-1.5,0.2-2.1,0.6l0,0c-0.3,0.2-0.6,0.5-0.8,0.8l-0.6,1.6l-3.7,9.9c-0.3,0.8,0.2,1.7,1.2,2
						c1,0.3,2-0.2,2.3-1l2.3-6v3.6l0,0c0,0,0,0,0,0.1v18.1c0,1.3,0.9,2.3,2.1,2.3s2.1-1,2.1-2.3v-14.5h1.1v14.5
						c0,1.3,0.9,2.3,2.1,2.3c1.2,0,2.1-1,2.1-2.3V276c0,0,0,0,0-0.1l0,0V272l0.8,2c0.2,0.4,0.3,0.5,0.5,0.8c0.5,0.6,1.5,0.5,2.1-0.1
						l1-1.2l2.9-3.3C189.5,269.6,189.4,268.6,188.8,268.1z"/>
				</g>
				<g>
					<path class="st2" d="M126.9,259.3c0.4,2.2,2.1,3.7,3.8,3.7c1.8,0,3.4-1.6,3.9-3.8c0.2-0.1,0.4-0.5,0.4-0.9c0-0.5-0.1-1-0.4-1
						c0,0,0,0-0.1,0c-0.4-1.7-1.8-3.1-3.5-3.2c0.4-0.2,0.7-0.3,0.7-0.3c-0.5,0-0.8,0.1-1.1,0.2c-0.2-0.1-0.5-0.1-0.9-0.2
						c0,0,0.3,0,0.6,0.2h-0.1c-0.4,0-0.8,0-1.4,0.2c0,0,0.3-0.1,0.7,0c-1.3,0.4-2.3,1.6-2.6,3.1c-0.1,0-0.1-0.1-0.2-0.1
						c-0.3,0-0.5,0.5-0.4,1C126.4,258.9,126.7,259.3,126.9,259.3z"/>
					<path class="st2" d="M142.6,268.1c-0.6-0.5-1.5-0.5-2.1,0.1l-1.9,2.1l-1.1-3l-0.6-1.6c-0.1-0.4-0.4-0.6-0.7-0.8l0,0
						c-0.6-0.3-1.3-0.5-2.1-0.5H133c0.1,0.4,0.1,0.8,0.1,1.3c0,1.5-0.4,2.8-1.1,3.6l-0.5-3c0-0.1,0-0.1-0.1-0.2l0.1-0.1l0.5-1.5
						c0-0.1,0-0.1-0.1-0.1h-2.6c-0.1,0-0.1,0-0.1,0.1l0.5,1.5c0,0,0,0.1,0.1,0.1c0,0.1-0.1,0.1-0.1,0.2l-0.5,3
						c-0.6-0.8-1.1-2.1-1.1-3.6c0-0.5,0-0.9,0.1-1.3h-1.1c-0.8,0-1.5,0.2-2.1,0.6l0,0c-0.3,0.2-0.6,0.5-0.7,0.8l-0.6,1.6l-3.8,9.9
						c-0.3,0.8,0.2,1.7,1.2,2c1,0.3,2-0.2,2.3-1l2.3-6v3.6l0,0c0,0,0,0,0,0.1v18.1c0,1.3,0.9,2.3,2.1,2.3c1.2,0,2.1-1,2.1-2.3v-14.5
						h1.1v14.5c0,1.3,0.9,2.3,2.1,2.3c1.2,0,2.1-1,2.1-2.3V276c0,0,0,0,0-0.1l0,0V272l0.8,2c0.2,0.4,0.3,0.5,0.5,0.8
						c0.5,0.6,1.5,0.5,2.1-0.1l1-1.2l2.9-3.3C143.3,269.6,143.3,268.6,142.6,268.1z"/>
				</g>
			</g>
			<path class="st2" d="M198.7,220.4c0.6-0.8,1-1.8,1-2.9c0-2.7-2.3-4.9-5.1-4.9c-1.5,0-2.9,0.6-3.8,1.6c-1.6-3.8-5.5-6.4-10.1-6.5
				c-4.9,0-9.1,3.1-10.5,7.3c-0.5-0.1-1-0.1-1.5-0.1c-4.9,0-8.9,3.7-8.9,8.4c0,0.3,0,0.6,0.1,0.9c-2.4,0.8-4.1,2.9-4.1,5.3
				c0,1.9,1,3.6,2.7,4.6l45,0.1c1.7-1.5,2.8-3.6,2.8-5.9C206.1,224.3,202.9,220.9,198.7,220.4z"/>
			<g>
				<path class="st2" d="M379.5,177.4c3.1-2.4,4.7-5.3,4.7-8.7c0-3.4-1.6-6.3-4.7-8.6c-3.1-2.4-6.9-3.6-11.4-3.6
					c-4.4,0-8.2,1.2-11.3,3.6c-3.1,2.4-4.7,5.3-4.7,8.6c0,3.2,1.5,6,4.4,8.3c0,0.3,0,0.6,0,0.8c0,1.8-0.5,3.1-1.4,4.2
					c-0.9,1.1-2.2,1.8-3.7,2c0.9,1.4,1.9,2.2,3.2,2.2c1.9,0,3.6-0.6,5.1-1.8c1.4-1.2,2.2-2.7,2.4-4.5c2,0.6,4,0.9,6.1,0.9
					C372.6,180.9,376.3,179.7,379.5,177.4z"/>
				<path class="st2" d="M387.3,189.9c-0.6-0.8-1-1.8-1-3c0-0.2,0-0.4,0-0.6c2-1.6,3-3.5,3-5.7c0-2.3-1.1-4.3-3.2-5.9
					c-0.8-0.6-1.6-1.1-2.5-1.4c0,0.1-0.1,0.2-0.1,0.3c-0.8,1.5-2,2.8-3.6,4.1c-1.6,1.2-3.4,2.2-5.3,2.7c-1.9,0.6-4,0.9-6.3,0.9
					c-0.3,0-0.7,0-1,0c0.2,2.1,1.2,3.9,3.2,5.4c2.1,1.7,4.8,2.5,7.8,2.5c1.5,0,2.9-0.2,4.2-0.6c0.1,1.2,0.6,2.3,1.6,3.1
					c1,0.8,2.2,1.2,3.5,1.2c0.9,0,1.6-0.5,2.2-1.5C388.8,191.2,387.9,190.7,387.3,189.9z"/>
				<path class="st2" d="M395.6,174c-0.9-1.1-1.4-2.5-1.4-4.3c0-0.3,0-0.5,0-0.8c2.9-2.3,4.4-5.1,4.4-8.4c0-3.4-1.6-6.2-4.7-8.6
					c-3.1-2.4-6.9-3.6-11.3-3.6c-4.5,0-8.2,1.2-11.4,3.6c-1.7,1.2-2.9,2.7-3.6,4.2c0.2,0,0.5,0,0.7,0c2.3,0,4.4,0.3,6.3,0.9
					s3.7,1.5,5.3,2.7c1.6,1.2,2.8,2.6,3.6,4c0.8,1.5,1.2,3.2,1.2,4.9c0,1.4-0.3,2.8-0.8,4.1c1.7-0.1,3.3-0.4,4.8-0.9
					c0.1,1.8,0.9,3.3,2.3,4.5c1.5,1.2,3.1,1.8,5.1,1.8c1.2,0,2.3-0.7,3.2-2.2C397.8,175.8,396.5,175.2,395.6,174z"/>
			</g>
			<g id="idea_1_">
				<g>
					<g>
						<path class="st2" d="M476.5,331.9c-0.5-0.1-0.7-0.6-0.6-1.1c1.5-5.1-1.5-10.5-6.6-12c-0.5-0.1-0.7-0.6-0.6-1.1
							c0.1-0.5,0.6-0.7,1.1-0.6c6,1.8,9.5,8.1,7.8,14.1C477.5,331.8,477,332.1,476.5,331.9z"/>
					</g>
				</g>
				<g>
					<g>
						<g>
							<polygon class="st2" points="463.5,350.8 462.3,350.2 469.1,336 470.3,336.5 							"/>
						</g>
						<g>
							<polygon class="st2" points="457.2,348.9 459.1,333.3 460.4,333.4 458.5,349.1 							"/>
						</g>
					</g>
					<g>
						<path class="st2" d="M469.1,338.2c-0.5-0.2-0.6-0.7-0.7-1.1c0-0.2-0.1-0.5-0.2-0.6c-0.1,0-0.3,0.3-0.4,0.4
							c-0.3,0.3-0.6,0.8-1.2,0.6c-0.5-0.2-0.6-0.7-0.7-1.1c0-0.2-0.1-0.5-0.2-0.6c-0.1,0-0.3,0.3-0.4,0.4c-0.3,0.3-0.7,0.8-1.2,0.6
							c-0.5-0.2-0.6-0.7-0.7-1.1c0-0.2-0.1-0.5-0.2-0.6c-0.1,0-0.3,0.3-0.4,0.4c-0.3,0.3-0.6,0.8-1.2,0.6c-0.5-0.1-0.6-0.7-0.7-1.1
							c0-0.2-0.1-0.5-0.2-0.6c-0.1,0-0.3,0.3-0.4,0.4c-0.3,0.3-0.6,0.8-1.2,0.6l0.2-0.7c0.1,0,0.3-0.3,0.4-0.4
							c0.3-0.3,0.6-0.8,1.2-0.6c0.5,0.2,0.6,0.7,0.7,1.1c0,0.2,0.1,0.5,0.2,0.6c0.1,0,0.3-0.3,0.4-0.4c0.3-0.3,0.6-0.8,1.2-0.6
							c0.5,0.2,0.6,0.7,0.7,1.1c0,0.2,0.1,0.5,0.2,0.6c0.1,0,0.3-0.3,0.4-0.4c0.3-0.3,0.6-0.8,1.2-0.6c0.5,0.1,0.6,0.7,0.7,1.1
							c0,0.2,0.1,0.5,0.1,0.6c0.1,0,0.3-0.3,0.4-0.4c0.3-0.3,0.6-0.8,1.2-0.6c0.5,0.2,0.6,0.7,0.6,1.1c0,0.2,0.1,0.5,0.2,0.6V338.2
							L469.1,338.2z"/>
					</g>
				</g>
				<g>
					<path class="st2" d="M472,309.8c-0.5-0.1-0.7-0.6-0.6-1.1l2.5-8.7c0.1-0.5,0.6-0.7,1.1-0.6s0.7,0.6,0.6,1.1l-2.5,8.7
						C472.9,309.7,472.5,310,472,309.8z"/>
				</g>
				<g>
					<path class="st2" d="M481.2,315.4c-0.1,0-0.3-0.1-0.4-0.2c-0.3-0.3-0.3-0.9,0-1.2l6.5-6.3c0.3-0.3,0.9-0.3,1.2,0
						c0.3,0.4,0.3,0.9,0,1.2l-6.5,6.3C481.8,315.4,481.4,315.5,481.2,315.4z"/>
				</g>
				<g>
					<path class="st2" d="M486.3,324.8c-0.3-0.1-0.5-0.3-0.6-0.6c-0.1-0.5,0.2-0.9,0.6-1l8.8-2.2c0.5-0.1,0.9,0.2,1,0.6
						c0.1,0.5-0.2,0.9-0.6,1l-8.8,2.2C486.6,324.8,486.5,324.8,486.3,324.8z"/>
				</g>
				<g>
					<path class="st2" d="M495.1,338.1l-9-2.6c-0.5-0.1-0.7-0.6-0.6-1.1c0.1-0.5,0.6-0.7,1.1-0.6l9,2.6c0.5,0.1,0.7,0.6,0.6,1.1
						C496,338,495.5,338.2,495.1,338.1z"/>
				</g>
				<g>
					<path class="st2" d="M486.8,351.2c-0.2,0-0.3-0.1-0.4-0.2l-6.3-6.5c-0.3-0.3-0.3-0.9,0-1.2c0.3-0.3,0.9-0.3,1.2,0l6.3,6.5
						c0.3,0.3,0.3,0.9,0,1.2C487.4,351.2,487.1,351.3,486.8,351.2z"/>
				</g>
				<g>
					<path class="st2" d="M461.3,309.6c-0.3-0.1-0.5-0.3-0.6-0.6l-2.2-8.8c-0.1-0.5,0.2-0.9,0.6-1c0.5-0.1,0.9,0.2,1,0.6l2.1,8.8
						c0.1,0.5-0.2,0.9-0.6,1C461.6,309.7,461.4,309.7,461.3,309.6z"/>
				</g>
				<g>
					<path class="st2" d="M451.9,314.8c-0.1,0-0.3-0.1-0.4-0.2l-6.3-6.5c-0.3-0.3-0.3-0.9,0-1.2c0.3-0.3,0.9-0.3,1.2,0l6.3,6.5
						c0.3,0.3,0.3,0.9,0,1.2C452.5,314.8,452.2,314.8,451.9,314.8z"/>
				</g>
				<g>
					<path class="st2" d="M446.4,323.9l-8.7-2.5c-0.5-0.1-0.7-0.6-0.6-1.1c0.1-0.5,0.6-0.7,1.1-0.6l8.7,2.5c0.5,0.1,0.7,0.6,0.6,1.1
						C447.3,323.8,446.8,324.1,446.4,323.9z"/>
				</g>
				<g>
					<path class="st2" d="M437.3,336.8c-0.3-0.1-0.5-0.3-0.6-0.6c-0.1-0.5,0.2-0.9,0.6-1l8.8-2.2c0.5-0.1,0.9,0.2,1,0.6
						c0.1,0.5-0.2,0.9-0.6,1l-8.8,2.2C437.6,336.8,437.5,336.8,437.3,336.8z"/>
				</g>
				<g>
					<g>
						<path class="st2" d="M467.6,352.2L467.6,352.2l-14.7-4.3c-0.8-0.2-1.2-1-1-1.8c0-0.1,0-0.1,0.1-0.2c0.4-1,1.2-4,0.5-5.6
							c-3.7-9.3-1.7-16.7-1.7-16.8c2.5-8.7,11.7-13.8,20.4-11.2c8.7,2.5,13.8,11.7,11.2,20.4c0,0.1-2.3,7.3-10.5,13.2
							c-1.5,1.1-2.4,4.1-2.6,5c0,0.1,0,0.2,0,0.2C469.2,352,468.4,352.4,467.6,352.2z M453.7,345.2c-0.8-0.2-1.5,0.2-1.7,0.8
							C452.3,345.3,453,345,453.7,345.2z M468.7,349.5c0.2,0.1,0.3,0.2,0.5,0.4C469,349.8,468.9,349.6,468.7,349.5z M455.1,345.6
							l11.9,3.5c0.2-0.6,0.4-1.1,0.4-1.1c0.8-2,1.8-3.4,2.9-4.2c7.3-5.3,9.4-11.7,9.4-11.7c2.1-7.2-2.1-14.8-9.3-16.9
							s-14.8,2.1-16.9,9.3c0,0.1-1.7,6.5,1.6,14.9c0.5,1.3,0.6,3.1,0.2,5.1C455.4,344.4,455.3,344.9,455.1,345.6z"/>
					</g>
					<g>
						<path class="st2" d="M466.3,355l-13.8-4c-0.8-0.2-1.2-1-1-1.8c0.2-0.8,1-1.2,1.8-1l13.7,4c0.8,0.2,1.2,1,1,1.8
							C467.9,354.8,467.1,355.3,466.3,355z"/>
					</g>
					<g>
						<path class="st2" d="M464.4,357.7l-11.7-3.4c-0.8-0.2-1.2-1-1-1.8c0.2-0.8,1-1.2,1.8-1l11.7,3.4c0.8,0.2,1.2,1,1,1.8
							C466,357.5,465.2,357.9,464.4,357.7z"/>
					</g>
					<g>
						<path class="st2" d="M461.9,360.1l-8.3-2.4c-0.8-0.2-1.2-1-1-1.8s1-1.2,1.8-1l8.3,2.4c0.8,0.2,1.2,1,1,1.8
							C463.4,359.9,462.6,360.3,461.9,360.1z"/>
					</g>
				</g>
			</g>
			<g>
				<path class="st2" d="M258.5,424.6c-4.6,0-8.4,10.2-8.4,22.8s3.8,22.8,8.4,22.8c4.6,0,8.4-10.2,8.4-22.8
					C266.9,434.8,263.2,424.5,258.5,424.6z M258.6,466.5c-3.9,0-7.1-8.5-7.1-19.1s3.1-19.1,7-19.1c3.9,0,7.1,8.5,7.1,19.1
					C265.6,457.9,262.5,466.5,258.6,466.5z"/>
				<path class="st2" d="M281.4,447.3c0-4.6-10.2-8.4-22.8-8.4c-12.6,0-22.8,3.8-22.8,8.4c0,4.6,10.2,8.4,22.8,8.4
					C271.2,455.8,281.4,452,281.4,447.3z M239.4,447.4c0-3.9,8.6-7.1,19.1-7.1s19.1,3.1,19.1,7s-8.5,7.1-19.1,7.1
					C248,454.4,239.4,451.3,239.4,447.4z"/>
				<path class="st2" d="M274.7,431.2c-3.3-3.3-13.2,1.3-22.1,10.2c-8.9,8.9-13.5,18.8-10.2,22.1c3.3,3.3,13.2-1.3,22.1-10.2
					C273.4,444.4,277.9,434.5,274.7,431.2z M245,460.9c-2.8-2.7,1.1-11,8.5-18.5c7.5-7.5,15.7-11.3,18.5-8.6
					c2.8,2.7-1.1,11-8.5,18.5C256.1,459.8,247.8,463.7,245,460.9z"/>
				<path class="st2" d="M274.7,463.5c3.3-3.3-1.3-13.2-10.2-22.1c-8.9-8.9-18.8-13.5-22.1-10.2c-3.3,3.3,1.3,13.2,10.2,22.1
					C261.5,462.2,271.4,466.8,274.7,463.5z M245,433.9c2.7-2.7,11,1.1,18.5,8.5c7.5,7.5,11.3,15.7,8.6,18.5
					c-2.7,2.8-11-1.1-18.5-8.5C246.1,444.9,242.3,436.6,245,433.9z"/>
				
					<ellipse transform="matrix(1 -1.316276e-03 1.316276e-03 1 -0.5887 0.3407)" class="st2" cx="258.6" cy="447.4" rx="3.5" ry="3.5"/>
			</g>
			<g>
				<polygon class="st2" points="432,405.7 432,390.4 423.4,398.4 422.6,397.7 422.6,405.7 				"/>
				<polygon class="st2" points="443.1,405.7 443.1,392.9 436.3,385.8 433.7,388.2 433.7,405.7 				"/>
				<polygon class="st2" points="454.1,405.7 454.1,389 446.1,396 444.7,394.5 444.7,405.7 				"/>
				<polygon class="st2" points="465.2,405.7 465.2,379.2 455.8,387.5 455.8,405.7 				"/>
				<path class="st2" d="M465,370.4l-18.5,15.9l-8.6-8.4c-0.4-0.4-0.9-0.6-1.5-0.6c-0.5,0-1.1,0.2-1.5,0.6l-12.3,11.9v4.1l0.8,0.7
					l12.9-12.5l8.5,8.3c0.8,0.8,2,0.8,2.9,0.1l17.4-15v-4.9L465,370.4z"/>
			</g>
			<g>
				<polygon class="st2" points="221.8,412.3 222,409.6 216,409.6 216.2,412.3 				"/>
				<polygon class="st2" points="223,408.7 228.5,408.7 229.7,404.2 223.3,404.2 				"/>
				<polygon class="st2" points="209.7,409.6 210.4,412.3 215.3,412.3 215.1,409.6 				"/>
				<polygon class="st2" points="228.3,409.6 222.9,409.6 222.7,412.3 227.6,412.3 				"/>
				<path class="st2" d="M232.7,396.2c-0.3,0-0.5,0.1-0.7,0.2c-0.1,0.1-0.2,0.2-0.3,0.3c-1.2,1.2-2.3,2.3-3.5,3.5
					c-0.1,0.1-0.2,0.2-0.3,0.4h-4.3l-0.2,2.9h6.5l0.5-1.8c0.9-0.9,1.8-1.9,2.8-2.7h2.2c1.7,0,1.7-2.7,0-2.7h-2.7V396.2z"/>
				<polygon class="st2" points="215.5,403.4 222.5,403.4 222.8,400.5 215.2,400.5 				"/>
				<polygon class="st2" points="215,408.7 214.7,404.2 208.3,404.2 209.5,408.7 				"/>
				<polygon class="st2" points="207.4,400.5 208.1,403.4 214.6,403.4 214.4,400.5 				"/>
				<polygon class="st2" points="222.5,404.2 215.5,404.2 215.9,408.7 222.1,408.7 				"/>
				<path class="st2" d="M213,413c1.2,0,2.3,1,2.3,2.3c0,1.2-1,2.3-2.3,2.3c-1.2,0-2.3-1-2.3-2.3C210.8,414,211.8,413,213,413"/>
				<path class="st2" d="M225,413c1.2,0,2.3,1,2.3,2.3c0,1.2-1,2.3-2.3,2.3c-1.2,0-2.3-1-2.3-2.3S223.7,413,225,413"/>
			</g>
			<g>
				<path class="st2" d="M264.2,158c-0.9,0.5-1.7,1.1-2.4,1.9c-0.4-0.4-0.9-0.7-1.5-0.7c-0.9,0-1.7,0.6-1.9,1.5
					c-1.2-0.9-2.6-1.4-4.2-1.4c-4,0-7.3,3.2-7.3,7.2c0,4,3.2,7.3,7.2,7.3c1.6,0,3-0.5,4.2-1.3c0.2,0.9,1,1.5,1.9,1.5
					c0.6,0,1.1-0.3,1.5-0.7c0.7,0.8,1.5,1.4,2.4,1.9c3,5.1,8.2,8.7,14.6,8.7c7.1,0,13.1-4.2,15.8-10.3c0.3,0.2,0.6,0.5,1.1,0.5
					c0.4,0,0.7-0.2,1-0.4c1.8,1.9,4.3,3.1,7.2,3.1c2.9,0,5.6-1.2,7.4-3.3c0.4,0.4,0.9,0.7,1.5,0.7c0.9,0,1.7-0.6,1.9-1.5
					c1.2,0.8,2.6,1.4,4.2,1.4c4,0,7.3-3.2,7.3-7.2c0-4-3.2-7.3-7.2-7.3c-1.6,0-3,0.5-4.2,1.3c-0.2-0.9-1-1.5-1.9-1.5
					c-0.6,0-1.1,0.3-1.5,0.7c-1.8-2-4.5-3.3-7.4-3.3c-2.8,0-5.3,1.1-7.1,2.9c-0.3-0.2-0.6-0.4-1-0.4c-0.5,0-0.8,0.2-1.2,0.5
					c-2.7-6-8.6-10.3-15.7-10.3C272.6,149.4,267.2,153,264.2,158z M249,166.6c0-2.9,2.3-5.2,5.2-5.2c1.7,0,3.2,0.9,4.1,2.1v6.2
					c-1,1.3-2.5,2.1-4.2,2.1C251.3,171.8,248.9,169.4,249,166.6z M324,166.9c0,2.9-2.4,5.2-5.2,5.2c-1.7,0-3.2-0.8-4.1-2.1v-6.2
					c1-1.3,2.5-2.1,4.2-2.1C321.7,161.7,324,164.1,324,166.9z M303.8,159.7c3.4,0,6.1,2.3,6.9,5.4v3.6c-0.8,3.1-3.6,5.4-7,5.4
					c-2.7,0-4.9-1.6-6.2-3.8v-6.9C298.9,161.2,301.1,159.6,303.8,159.7z M289.4,159.2l-0.9,0.6c-0.5,0.3-0.7,1-0.4,1.5
					c0.3,0.5,1,0.7,1.6,0.4l1-0.6c0.7,1.4,1,2.9,1.1,4.6h-1.5c-0.6,0-1.1,0.5-1.1,1.1s0.5,1.1,1.1,1.1h1.5c-0.1,1.6-0.5,3-1.1,4.4
					l-0.8-0.4c-0.5-0.3-1.2-0.1-1.5,0.4c-0.3,0.5-0.1,1.2,0.4,1.5l0.6,0.3c-0.9,1.2-1.9,2.2-3.1,3.1l-0.6-0.9
					c-0.3-0.5-1-0.7-1.6-0.4c-0.5,0.3-0.7,1-0.4,1.5l0.6,1c-1.4,0.7-2.9,1-4.6,1.1V178c0-0.6-0.5-1.1-1.1-1.1s-1.1,0.5-1.1,1.1v1.5
					c-1.6-0.2-3-0.5-4.4-1.1l0.4-0.8c0.3-0.5,0.1-1.2-0.4-1.5s-1.2-0.1-1.5,0.4l-0.3,0.6c-1.2-0.9-2.2-1.9-3.1-3.1l0.9-0.6
					c0.5-0.3,0.7-1,0.4-1.5c-0.3-0.5-1-0.7-1.5-0.4l-1,0.6c-0.7-1.4-1-2.9-1.1-4.6h1.5c0.6,0,1.1-0.5,1.1-1.1s-0.5-1.1-1.1-1.1h-1.5
					c0.1-1.6,0.5-3,1.1-4.4l0.8,0.4c0.5,0.3,1.2,0.1,1.5-0.4c0.3-0.5,0.1-1.2-0.4-1.5l-0.6-0.3c0.9-1.2,1.9-2.2,3.1-3.1l0.6,0.9
					c0.3,0.5,1,0.7,1.5,0.4c0.5-0.3,0.7-1,0.4-1.5l-0.6-1c1.4-0.7,2.9-1,4.6-1.1v1.5c0,0.6,0.5,1.1,1.1,1.1s1.1-0.5,1.1-1.1v-1.5
					c1.5,0.1,3,0.5,4.4,1.1l-0.4,0.8c-0.3,0.5-0.1,1.2,0.4,1.5s1.2,0.1,1.5-0.4l0.3-0.6C287.5,157,288.5,158,289.4,159.2z"/>
				<path class="st2" d="M276.7,165.9h-6.4c-0.4,0-0.8,0.3-0.8,0.8c0,0.4,0.3,0.8,0.8,0.8h6.3c0.3,0.8,1,1.5,1.9,1.5
					c1.3,0,2.3-1,2.3-2.2c0-1.2-1-2.3-2.2-2.3C277.7,164.4,277.1,165.1,276.7,165.9z"/>
				<path class="st2" d="M277.4,174.3c0,0.7,0.5,1.2,1.2,1.2s1.2-0.5,1.2-1.2v-4.5c-0.4,0.2-0.8,0.2-1.2,0.2c-0.4,0-0.9-0.1-1.2-0.2
					V174.3z"/>
				<path class="st2" d="M275.7,145.7v0.5c0,1.2,1,2.2,2.2,2.2h2.7c1.2,0,2.2-1,2.2-2.2v-0.6c0-1.2-1-2.2-2.2-2.2h-2.7
					C276.7,143.5,275.7,144.5,275.7,145.7z"/>
			</g>
			<path class="st2" d="M361.5,460.7l-1.9-2.8c1.1-1.1,1.9-2.5,1.9-4.2v-1.3c0-4.4-0.6-7.9-7.9-7.9h-5.9c-0.9,0-1.7,0.1-2.4,0.4
				h-13.2c-0.8-0.3-1.6-0.4-2.4-0.4h-5.9c-7.3,0-7.9,3.5-7.9,7.9v1.3c0,1.7,0.7,3.1,1.9,4.2l-1.9,2.8c-0.3,0.4-0.2,1,0.2,1.3
				s1,0.2,1.3-0.2l1.9-2.7c2.5,1.7,5.8,2.5,8.2,2.5h2.2c2.6,0,5-1.3,6.4-3.3c0.2,0.3,0.5,0.5,0.8,0.5c0.5,0,1-0.4,1-1v-3.2
				c0-0.3-0.1-0.5-0.3-0.7c0-0.1,0-0.1,0-0.2v-1.3c0-0.4,0-0.9-0.1-1.3h2.6c-0.1,0.4-0.1,0.8-0.1,1.3v1.3c0,0.1,0,0.1,0,0.2
				c-0.3,0.2-0.4,0.5-0.4,0.8v3.2c0,0.5,0.4,1,1,1c0.4,0,0.7-0.2,0.9-0.6c1.4,2,3.8,3.4,6.4,3.4h2.2c2.4,0,5.8-0.9,8.2-2.5l1.8,2.7
				c0.3,0.4,0.9,0.5,1.3,0.2C361.7,461.6,361.8,461.1,361.5,460.7z M338.6,449.1c-0.8,0-1.4-0.6-1.4-1.4c0-0.8,0.6-1.4,1.4-1.4
				s1.4,0.6,1.4,1.4C340,448.4,339.4,449.1,338.6,449.1z M334.2,446h2.5c-0.4,0.5-0.6,1-0.6,1.7c0,0.1,0,0.1,0,0.2
				C335.6,447.1,334.9,446.5,334.2,446z M337,449.7L337,449.7L337,449.7L337,449.7z M340.3,449.7l0.1-0.1
				C340.4,449.6,340.4,449.6,340.3,449.7L340.3,449.7z M341.2,448c0-0.1,0-0.2,0-0.3c0-0.6-0.3-1.2-0.6-1.7h2.6
				C342.4,446.5,341.7,447.2,341.2,448z"/>
			<g>
				<path class="st2" d="M441.1,283.8c-5-3.7-8.9-13-9.6-24.4c-0.8-11.4,1.8-21.1,6.3-25.4l-10.1-0.2c-2.8,0.2-4.9,2.6-4.7,5.3
					l2.8,41.6c0.2,2.8,2.6,4.8,5.3,4.7L441.1,283.8z"/>
				<path class="st2" d="M445.5,283.1c2.8-0.2,4.8-2.6,4.7-5.3l-0.5-6.9l1.5-0.1c5.9-0.4,10.5-4.5,10.2-9.2l-0.6-9.2
					c-0.3-4.7-5.4-8.1-11.3-7.7l-1.5,0.1l-0.4-6.2c-0.2-2.8-2.6-4.9-5.3-4.7H441c-5,2.5-8.3,13.2-7.5,25.3
					c0.8,12.1,5.5,22.3,10.8,24L445.5,283.1z M436.4,259.1c-0.1-1.1,0.8-2.1,1.9-2.1c1.1-0.1,2.1,0.8,2.1,1.9
					c0.1,1.1-0.8,2.1-1.9,2.1C437.5,261,436.5,260.2,436.4,259.1z M449.5,268.4l-1.4-21l1.5-0.1c4.5-0.3,8.4,2.1,8.6,5.4l0.6,9.2
					c0.2,3.3-3.3,6.2-7.8,6.5H449.5z"/>
			</g>
			<path class="st2" d="M425.5,194.3l3.6-4.3l-4.2-5.3h-8.4l-4.2,5.3l3.4,4c-4.3,1.8-7.3,6-7.3,11c0,6.5,5.3,11.9,11.9,11.9
				c6.5,0,11.9-5.3,11.9-11.9C432.2,200.3,429.4,196.2,425.5,194.3z M423.2,186.1l2.5,3.8h-2.5V186.1z M414.8,189.6h2.5l0.4,4
				L414.8,189.6z M420.3,213.6c-4.8,0-8.7-3.9-8.7-8.7c0-4.8,3.9-8.7,8.7-8.7c4.8,0,8.7,3.9,8.7,8.7
				C428.9,209.7,425.1,213.6,420.3,213.6z"/>
			<path class="st2" d="M399.3,409.2c0,0-10.6,10.6-13.7,18.6c-2.4,6.2-3.5,8.1-6.1,8.7c0.2-0.2,0.4-0.4,0.7-0.7
				c0.3-0.3,0.7-0.7,1-1.1c0.9-1.1,1.3-2.4,1.2-3.5c-0.1-0.7-0.4-1.6-1.1-2c-0.4-0.3-0.9-0.3-1.4-0.1c-1.6,0.6-2.2,2.3-2.5,4
				c-0.8-1.5-1.9-2.9-3.9-2.9h-0.1c-0.9,0-1.3,0.4-1.6,0.8c-0.4,0.6-0.4,1.5,0,2.3c0.5,1.2,1.5,1.9,2.3,2.4c0.5,0.3,1.1,0.6,1.7,0.9
				c-4.8-0.1-11-0.9-11-0.9s-3.1,3.1,1.3,5.3s8.8,3.5,12,3.5c2.4,0,7.5,0,9.3-1.3c1.3-1,6.2-13.6,11.4-17.7l0.7,18.6
				c1.1,0.5,1.6-0.3,1.6-0.3l2.6-18.9c0,0,0,0,0.1,0C403.7,425.1,406.8,414.9,399.3,409.2z M380.1,430.3c0.1,0,0.1,0,0.2,0
				c0.1,0,0.1,0,0.2,0c0.2,0.2,0.5,0.6,0.5,1.1c0.1,0.9-0.4,2-1,2.6c-0.2,0.3-0.5,0.6-0.9,0.9c-0.3,0.3-0.5,0.5-0.8,0.8
				c0-0.1-0.1-0.1-0.1-0.2C378.3,433.6,378.5,430.9,380.1,430.3z M372.8,432.8c-0.2-0.5-0.2-0.9-0.1-1.1c0,0,0.1-0.2,0.5-0.2
				c0,0,0,0,0.1,0c1.7,0,2.5,1.4,3.4,3.6c0.1,0.2,0.2,0.4,0.3,0.6c0,0.1,0,0.2,0,0.2c-0.8-0.4-1.7-0.9-2.4-1.3
				C373.6,434.1,373.1,433.6,372.8,432.8z"/>
		</g>
		<g>
			<g>
				<g>
					<path class="st3" d="M454.9,478.4c-0.4,0.3-0.8,0.6-1.2,0.9"/>
					<path class="st4" d="M451.4,481.1C355.8,553,219.9,535.5,145.9,441c-75-95.7-58.2-234.1,37.4-309
						c94.9-74.3,231.8-58.5,307.2,35"/>
					<path class="st3" d="M491.4,168.2c0.3,0.4,0.6,0.8,0.9,1.2"/>
				</g>
			</g>
			<g>
				<g>
					<path class="st3" d="M318,114.2c0.5,0,1,0,1.5,0"/>
					<path class="st5" d="M322.5,114.2c103.5,1.8,187,86,187.6,189.9c0.6,104.5-82.9,189.8-186.9,192"/>
					<path class="st3" d="M321.7,496.2c-0.5,0-1,0-1.5,0"/>
				</g>
			</g>
			<path class="st6" d="M320.5,552.8c-136.7,0.8-248.2-109.5-249-246.2C70.7,169.9,181,58.4,317.7,57.6"/>
			
				<ellipse transform="matrix(1 -5.641650e-03 5.641650e-03 1 -0.9621 2.7825)" class="st2" cx="492.7" cy="171.9" rx="12.3" ry="12.3"/>
			<polygon class="st2" points="444.4,473.4 466.9,469.1 459.5,490.7 			"/>
			<polygon class="st2" points="318,543 338.8,552.5 320.2,565.7 			"/>
			<polygon class="st2" points="319.3,506.3 300.8,492.8 321.8,483.6 			"/>
			<polygon class="st2" points="310.2,47.5 329.7,59.3 309.7,70.3 			"/>
			<polygon class="st2" points="326.3,128.7 307.7,115.4 328.5,105.9 			"/>
		</g>
		<g>
			<circle class="st7" cx="245.3" cy="88.3" r="30.4"/>
			<g>
				<g>
					<g>
						<defs>
							<rect id="SVGID_1_" x="222.3" y="66.7" width="48.3" height="42.1"/>
						</defs>
						<clipPath id="SVGID_2_">
							<use xlink:href="#SVGID_1_"  style="overflow:visible;"/>
						</clipPath>
						<path class="st8" d="M265.2,86.8l-7.5-14c-0.1-0.1-0.2-0.2-0.3-0.2l-3.6-1h-0.1h-14.8l-4.2,0.8c-0.1,0-0.3,0.1-0.3,0.3
							l-6.5,13c0,0.1-0.1,0.2-0.1,0.3l0.8,11.8c0,0.2,0.1,0.3,0.3,0.4l2.5,1.3c0.1,0.1,0.3,0.1,0.4,0c0.1-0.1,0.2-0.2,0.3-0.4
							l1.2-9.5l1.4-2.7l-0.2,14.2c0,0.2,0.1,0.4,0.3,0.5c3.2,1.3,6.9,2,11,2h0.7c5.3-0.3,10.9-1.7,11-1.7c0.2-0.1,0.4-0.2,0.4-0.5
							l0.2-14.1l1.1,1.5l0.4,9.1c0,0.2,0.2,0.4,0.4,0.5l2.7,0.4c0.3,0,0.5-0.1,0.6-0.4l1.9-10.9C265.2,87,265.2,86.9,265.2,86.8
							L265.2,86.8z M245.6,100.9c-0.4,0-0.8-0.3-0.8-0.8c0-0.4,0.3-0.8,0.8-0.8c0.4,0,0.8,0.3,0.8,0.8
							C246.3,100.6,246,100.9,245.6,100.9L245.6,100.9z M245.6,97.5c-0.4,0-0.8-0.3-0.8-0.8c0-0.4,0.3-0.8,0.8-0.8
							c0.4,0,0.8,0.3,0.8,0.8C246.3,97.2,246,97.5,245.6,97.5L245.6,97.5z M245.6,94.2c-0.4,0-0.8-0.3-0.8-0.8
							c0-0.4,0.3-0.8,0.8-0.8c0.4,0,0.8,0.3,0.8,0.8C246.3,93.8,246,94.2,245.6,94.2L245.6,94.2z M248,77.5
							c-0.1,0.1-0.3,0.2-0.3,0.4l-2.1,12.6l-2.2-13c0-0.1-0.1-0.3-0.2-0.3c-1.3-0.8-2.1-2.2-2.2-3.7h9.9
							C250.7,75.1,249.6,76.8,248,77.5L248,77.5z"/>
					</g>
				</g>
			</g>
		</g>
		<g>
			<path class="st9" d="M144.8,406.9c12.5-3,30-10.1,32.3,0.1c2.7,12.1,6.1,40.6,9.6,68.4c0.8,6-6.9,9.1-8.8,9.7
				c-8.5,2.6-15.9,3.4-25.3,4.7L144.8,406.9C144.7,406.9,144.7,406.9,144.8,406.9z"/>
			<path class="st9" d="M106.7,406.9c-15.8-3.8-28.4-12.6-31.2-0.1c-2.9,13-6.1,41.5-9.4,68.2c-0.9,6.8,6.2,9.8,8.5,10.4
				c8.2,2.1,15.3,3.2,24.4,4.4L106.7,406.9L106.7,406.9z"/>
			<path class="st10" d="M94.3,488.1l-0.4,1c19.5,2.5,43.5,2.5,63.1,0.1c-0.2-0.4-0.4-0.8-0.5-1.1H94.3z"/>
			<path class="st11" d="M86.5,487.9c4.3-12.5-5.5-70.9-11-81.7c3.1-11,32-13.5,39.7-19.7c3.6,3.2,6.2,3.9,10.4,3.9
				c4.1,0,6.9-0.8,10.5-4c5.7,4.6,35.5,8.3,40.6,19.3c-5.8,12.3-16.5,70.9-11.8,82.2C145.4,491.6,106.5,491.9,86.5,487.9z"/>
			<polygon class="st2" points="106.1,391.8 105.2,416.4 125.7,468.5 146,416.4 144.7,391.1 136.1,386.4 115.2,386.5 			"/>
			<rect x="115.2" y="377.8" class="st12" width="20.5" height="21.3"/>
			<path class="st13" d="M129,412.3l1.4-3l-4.8-11.7l-4.8,11.5l1.5,3.2C124.5,412.3,126.8,412.3,129,412.3z"/>
			<polygon class="st7" points="115.2,386.5 125.6,397.6 118.2,417.4 109,390.6 			"/>
			<polygon class="st7" points="136.1,386.4 125.6,397.6 132.9,417.4 142.2,390.5 			"/>
			<polygon class="st13" points="122.3,419.7 129,419.7 132.4,453 125.6,468.8 119,453 			"/>
			<polygon class="st2" points="115.2,386.5 125.6,397.6 118,412.5 109,390.6 			"/>
			<polygon class="st14" points="109.1,390 125.6,468.8 101.1,422.2 105.2,416.4 97.3,410.3 104.8,392.4 			"/>
			<polygon class="st9" points="142.4,389.9 125.6,468.8 152.7,425.6 149.1,418.1 156.8,411.9 148.5,392.7 			"/>
			<polygon class="st14" points="142.4,389.9 125.6,468.8 150,422.2 146,416.4 153.8,410.3 148.5,392.7 			"/>
			<polygon class="st2" points="136.1,386.4 125.6,397.6 133.1,412.5 142.2,390.5 			"/>
			<path class="st13" d="M122.3,411.8h6.6c1.5,3.1,1.4,5.8,0,8.4h-6.6C121,417.6,120.8,414.9,122.3,411.8z"/>
			<path class="st9" d="M127.3,490.9c-0.9,0-1.8,0-2.7,0c0.2-5.8,0.6-12.7,1.3-23"/>
			<polygon class="st2" points="103,392.4 105.5,416 126,467.9 146.1,416 148.7,392.4 138.9,386.2 112.7,386.2 			"/>
			<rect x="112.7" y="377.6" class="st12" width="26" height="21.2"/>
			<path class="st15" d="M125.8,390.2c10.2,0,19.7-11.7,24.7-26c0.3,0.3,0.6,0.5,1,0.6c2,0.3,4.4-3.5,5.2-8.5
				c0.8-5.1-0.1-9.4-2.2-9.8c-0.1,0-0.3,0-0.4,0c1-17.8-6.4-34.2-28.3-34.2c-22,0-29.3,16.4-28.3,34.2c-0.2-0.1-0.4-0.1-0.7,0
				c-2,0.3-3,4.7-2.2,9.8c0.8,5.1,3.2,8.9,5.2,8.5c0.4-0.1,0.8-0.3,1.1-0.7C106,378.3,115.5,390.2,125.8,390.2z"/>
			<path class="st16" d="M154.1,346.3c1-17.8-6.4-34.2-28.3-34.2c-22,0-29.3,16.4-28.3,34.2c1.8,0.4,3.6,3.7,4.4,7.9
				c1.4,1,2.5,0.4,2.5-3.2c0-10.6,1.3-19.9,8.2-22.2c6.6-2.1,8.1,2.5,13.1,2.5c5,0,6.6-4.4,13.1-2.5c6.7,1.9,8.2,11.6,8.2,22.2
				c0,3.4,1,4.1,2.3,3.3C150.3,349.9,152.3,346.5,154.1,346.3z"/>
			<path class="st17" d="M129.2,412l1.4-3l-4.8-11.7l-4.7,11.5l1.5,3.2C124.8,412,127,412,129.2,412z"/>
			<polygon class="st7" points="112.7,386.2 125.8,397.3 118.5,417 106.6,390.2 			"/>
			<polygon class="st9" points="106.6,390.2 125.8,468.2 98.9,425.2 102.4,417.7 94.7,411.5 103,392.4 			"/>
			<polygon class="st7" points="138.9,386.2 125.8,397.3 133.2,417 145,390.2 			"/>
			<polygon class="st17" points="122.6,419.3 129.2,419.3 132.6,452.4 125.8,468.2 119.3,452.4 			"/>
			<path class="st16" d="M145.6,323.7c-2.8,5.7-31.4,21.9-40.8,22.6C95.3,347,104.3,309,145.6,323.7z"/>
			<path class="st16" d="M132,323.7c1.2,5.7,13.5,21.9,17.6,22.6C153.6,347,149.8,309,132,323.7z"/>
			<polygon class="st2" points="112.7,386.2 125.8,397.3 118.3,412.1 106.6,390.2 			"/>
			<polygon class="st18" points="106.6,390.2 125.8,468.2 101.5,421.7 105.5,416 97.7,409.9 103,392.4 			"/>
			<polygon class="st18" points="145,390.2 125.8,468.2 150.2,421.7 146.1,416 153.9,409.9 148.7,392.4 			"/>
			<polygon class="st2" points="138.9,386.2 125.8,397.3 133.3,412.1 145,390.2 			"/>
			<path class="st17" d="M122.6,411.4h6.6c1.5,3.1,1.4,5.7,0,8.3h-6.6C121.2,417.2,121.1,414.5,122.6,411.4z"/>
		</g>
		<g>
			<path class="st9" d="M508.8,181.5c8.3-2,19.9-6.7,21.4,0c1.8,8,4,27,6.3,45.4c0.5,4-4.6,6-5.9,6.4c-5.7,1.7-10.5,2.2-16.8,3.1
				L508.8,181.5C508.7,181.5,508.8,181.5,508.8,181.5z"/>
			<path class="st9" d="M483.5,181.5c-10.5-2.5-18.9-8.4-20.7-0.1c-1.9,8.6-4,27.6-6.2,45.3c-0.6,4.5,4.2,6.5,5.7,6.9
				c5.4,1.4,10.1,2.1,16.2,2.9L483.5,181.5L483.5,181.5z"/>
			<path class="st10" d="M475.3,235.4L475,236c12.9,1.6,28.9,1.7,41.9,0.1c-0.1-0.3-0.2-0.5-0.4-0.7H475.3z"/>
			<path class="st11" d="M470.1,235.3c2.9-8.3-3.7-47-7.3-54.2c2.1-7.3,21.2-8.9,26.3-13.1c2.4,2.1,4.1,2.6,6.9,2.6
				c2.7,0,4.6-0.6,7-2.7c3.8,3.1,23.6,5.5,27,12.8c-3.9,8.2-10.9,47.1-7.9,54.5C509.2,237.8,483.4,238,470.1,235.3z"/>
			<polygon class="st2" points="483.1,171.5 482.5,187.8 496.1,222.4 509.6,187.8 508.7,171 503,167.9 489.1,167.9 			"/>
			<rect x="489.1" y="162.2" class="st12" width="13.6" height="14.1"/>
			<path class="st13" d="M498.3,185.1l0.9-2l-3.2-7.8l-3.2,7.7l1,2.1C495.3,185.1,496.8,185.1,498.3,185.1z"/>
			<polygon class="st7" points="489.1,167.9 496,175.3 491.1,188.4 485.1,170.6 			"/>
			<polygon class="st7" points="503,167.9 496,175.3 500.9,188.4 507.1,170.6 			"/>
			<polygon class="st13" points="493.9,190 498.3,190 500.6,212.1 496,222.6 491.6,212.1 			"/>
			<polygon class="st2" points="489.1,167.9 496,175.3 491,185.2 485.1,170.6 			"/>
			<polygon class="st14" points="485.1,170.3 496,222.6 479.8,191.6 482.5,187.8 477.3,183.7 482.2,171.9 			"/>
			<polygon class="st9" points="507.2,170.2 496,222.6 514,193.9 511.6,188.9 516.8,184.8 511.3,172 			"/>
			<polygon class="st14" points="507.2,170.2 496,222.6 512.3,191.6 509.6,187.8 514.8,183.7 511.3,172 			"/>
			<polygon class="st2" points="503,167.9 496,175.3 501,185.2 507.1,170.6 			"/>
			<path class="st13" d="M493.9,184.7h4.4c1,2,0.9,3.8,0,5.6h-4.4C493,188.5,492.9,186.8,493.9,184.7z"/>
			<path class="st10" d="M495.4,237.3c0.1-3.8,0.4-8.4,0.9-15.2c0.5,6.8,0.8,11.4,0.9,15.2C496.6,237.3,496,237.3,495.4,237.3z"/>
			<polygon class="st2" points="481,171.9 482.7,187.5 496.3,221.9 509.7,187.5 511.4,171.9 504.9,167.7 487.5,167.7 			"/>
			<rect x="487.5" y="162.1" class="st12" width="17.2" height="14"/>
			<path class="st15" d="M496.2,170.4c6.8,0,13.1-7.8,16.4-17.3c0.2,0.2,0.4,0.3,0.7,0.4c1.4,0.2,2.9-2.3,3.5-5.7
				c0.6-3.4-0.1-6.3-1.4-6.5c-0.1,0-0.2,0-0.3,0c0.7-11.8-4.2-22.7-18.8-22.7s-19.4,10.9-18.8,22.7c-0.1,0-0.3,0-0.4,0
				c-1.4,0.2-2,3.1-1.4,6.5c0.6,3.4,2.1,5.9,3.5,5.7c0.3,0,0.5-0.2,0.8-0.5C483.1,162.6,489.4,170.4,496.2,170.4z"/>
			<path class="st11" d="M515,141.3c0.7-11.8-4.2-22.7-18.8-22.7c-14.6,0-19.5,10.9-18.8,22.7c1.2,0.3,2.4,2.5,3,5.3
				c0.9,0.6,1.6,0.3,1.6-2.1c0-7,0.9-13.2,5.5-14.7c4.4-1.4,5.3,1.7,8.7,1.7c3.3,0,4.4-2.9,8.7-1.7c4.5,1.3,5.5,7.7,5.5,14.7
				c0,2.3,0.6,2.7,1.5,2.2C512.4,143.7,513.7,141.5,515,141.3z"/>
			<path class="st19" d="M498.4,184.8l0.9-2l-3.2-7.7l-3.1,7.6l1,2.1C495.5,184.8,497,184.8,498.4,184.8z"/>
			<polygon class="st7" points="487.5,167.7 496.2,175.1 491.3,188.2 483.5,170.4 			"/>
			<polygon class="st9" points="483.5,170.4 496.2,222.1 478.3,193.6 480.7,188.6 475.6,184.5 481,171.9 			"/>
			<polygon class="st7" points="504.9,167.7 496.2,175.1 501.1,188.2 508.9,170.4 			"/>
			<polygon class="st19" points="494.1,189.7 498.4,189.7 500.7,211.7 496.2,222.1 491.8,211.7 			"/>
			<path class="st11" d="M511.8,129.7c-1.9,3.8-17.4,12.8-23.7,13.3c2.8-2.6,9.4-10.4,8.6-10.8c-0.9-0.5-10.9,7.4-16.3,9.2
				C479.4,118.8,495.8,119.5,511.8,129.7z"/>
			<path class="st11" d="M503,125.9c0.8,3.8,6.3,14.9,9,15.4C514.7,141.8,514.8,116.2,503,125.9z"/>
			<polygon class="st2" points="487.5,167.7 496.2,175.1 491.2,184.9 483.5,170.4 			"/>
			<polygon class="st18" points="483.5,170.4 496.2,222.1 480,191.3 482.7,187.5 477.6,183.5 481,171.9 			"/>
			<polygon class="st18" points="508.9,170.4 496.2,222.1 512.4,191.3 509.7,187.5 514.8,183.5 511.4,171.9 			"/>
			<polygon class="st2" points="504.9,167.7 496.2,175.1 501.2,184.9 508.9,170.4 			"/>
			<path class="st19" d="M494.1,184.5h4.4c1,2,0.9,3.8,0,5.5h-4.4C493.2,188.3,493.1,186.5,494.1,184.5z"/>
			<path class="st20" d="M495.1,237.3c0.7,0,1.4,0,2.2,0c0.3-3.7-0.5-13.6-1.1-15.2C495.6,223.3,494.8,233.4,495.1,237.3z"/>
		</g>
		<g>
			<ellipse class="st21" cx="248.2" cy="504.6" rx="27.5" ry="27.5"/>
			<g>
				<g>
					<path class="st2" d="M232.9,513.6c0,0.6,0.5,1.1,1.2,1.1h24.1c0.6,0,1.2-0.5,1.2-1.1v-7.4H233v7.4H232.9z"/>
					<path class="st2" d="M258.1,498.3H234c-0.7,0-1.2,0.5-1.2,1.1v1.7h26.4v-1.7C259.2,498.8,258.7,498.3,258.1,498.3z"/>
				</g>
				<path class="st2" d="M263.5,495.6v13.9c0,0.7-0.6,1.2-1.2,1.2h-1.2V497h-25.2v-1.4c0-0.6,0.6-1.2,1.2-1.2h25.2
					C262.9,494.4,263.5,494.9,263.5,495.6z"/>
			</g>
		</g>
		<g>
			<path class="st22" d="M448.6,104.3c0,12.6-10.3,22.9-22.9,22.9s-22.9-10.3-22.9-22.9c0-12.7,10.3-22.9,22.9-22.9
				S448.6,91.6,448.6,104.3z"/>
			<g>
				<path class="st2" d="M442.7,105c0,0-2.2-0.5-4.1-1.7c-0.6-0.4-1.1-0.8-1.4-1.2c-1.8-2.2-3.1-5-3.1-5l-0.3-0.6l-0.6,0.2
					c-0.1,0-6.1,2.3-9.3,2.3c-1.5,0-3.7-0.9-6.3-2.7c-0.7-0.5-1.4-0.9-1.9-1.3c-0.3-0.2-0.6-0.4-0.8-0.5c-0.9-0.6-2.1-0.1-2.9,0.4
					s-1.3,1.1-1.4,1.1l-0.3,0.4l0.2,0.4c0.1,0.2,2.8,5.4,8.6,9.1c2.2,1.4,3.7,1.8,5.4,2.3c1.1,0.3,2.4,0.6,4.1,1.4l-1,1.5l8.7,5.6
					l7.4-11.4L442.7,105z M435.9,114.7l-6.4-4.1l0.3-0.5c1.7,0.8,3.8,2,6.6,3.7L435.9,114.7z M437.2,112.7c-3.1-2-5.4-3.2-7.2-4.1
					c-0.1,0-0.1-0.1-0.2-0.1c-2.1-1-3.6-1.4-4.9-1.7c-1.6-0.4-2.9-0.8-5-2.1c-4.5-2.9-7.1-6.8-7.9-8.1c0.7-0.6,1.8-1.2,2.2-1
					c0.2,0.1,0.4,0.3,0.7,0.5c0.5,0.3,1.2,0.8,1.9,1.3c2.6,1.7,4.7,2.6,6.4,2.8l-0.6,4.5h0.8c1.3,0,4.9,0.1,6.2,0.9
					c0.3,0.2,0.7,0.1,0.9-0.2c0.2-0.3,0.1-0.7-0.2-0.9c-1.5-1-4.6-1.1-6.2-1.1l0.4-3c1-0.1,2.1-0.3,3.2-0.5l-0.5,0.8
					c-0.2,0.3-0.1,0.7,0.2,0.9c0.3,0.2,0.7,0.1,0.9-0.2l1.3-2l0,0c0.4-0.1,0.7-0.2,1.1-0.3l-0.3,0.5c-0.2,0.3-0.1,0.7,0.2,0.9
					c0.3,0.2,0.7,0.1,0.9-0.2l1.3-2c0.1,0,0.1,0,0.1-0.1c0.5,1,1.6,3.1,3,4.8c0.5,0.5,1,1,1.7,1.5c1.3,0.8,2.7,1.3,3.6,1.6
					L437.2,112.7z"/>
			</g>
		</g>
		<g>
			<circle class="st23" cx="516.3" cy="298.8" r="29.7"/>
			<g id="pants_4_">
				<path class="st2" d="M507.6,284.6l-4.3,31.7h10.1l2.9-23.1h1.4l2.9,23.1h10.1l-4.3-31.7v-2.9h-18.7v2.9H507.6z"/>
			</g>
		</g>
		<g>
			<circle class="st24" cx="123.5" cy="157.7" r="46.3"/>
			<g>
				<path class="st25" d="M149.6,138.4c0.7,0,1.4,0.3,2,0.8c0.5,0.6,0.8,1.3,0.8,2V174c0,0.7-0.3,1.4-0.8,2c-0.6,0.6-1.3,0.8-2,0.8
					H97.5c-0.7,0-1.4-0.3-2-0.8c-0.5-0.6-0.8-1.3-0.8-2v-32.8c0-0.7,0.3-1.5,0.8-2c0.6-0.6,1.3-0.8,2-0.8H149.6z"/>
				<path class="st26" d="M152.4,173.2v0.9c0,0.7-0.3,1.4-0.8,2c-0.6,0.6-1.3,0.8-2,0.8h-7.2l-38.5-38.5h13.7L152.4,173.2z
					 M104.3,176.9h34.4l-38.5-38.5h-2.8c-0.7,0-1.4,0.3-2,0.8c-0.5,0.6-0.8,1.3-0.8,2v26L104.3,176.9z"/>
				<g>
					<g>
						<g>
							<g>
								<path class="st26" d="M138.9,164.2c-3.6,0-6.5-2.9-6.5-6.5s2.9-6.5,6.5-6.5v0.4c-3.4,0-6.1,2.8-6.1,6.1
									c0,3.4,2.8,6.1,6.1,6.1V164.2z"/>
								<path class="st26" d="M138.9,164.2c-0.9,0-1.8-0.7-2.4-2c-0.6-1.2-1-2.8-1-4.6c0-1.7,0.3-3.4,1-4.6c0.6-1.3,1.5-2,2.4-2v0.4
									c-0.8,0-1.5,0.6-2.1,1.7c-0.6,1.2-0.9,2.7-0.9,4.4c0,1.7,0.3,3.2,0.9,4.4c0.6,1.1,1.3,1.7,2.1,1.7V164.2z"/>
								<rect x="138.7" y="151.3" class="st26" width="0.4" height="12.7"/>
								<path class="st26" d="M138.9,164.2v-0.4c0.8,0,1.5-0.6,2.1-1.7c0.6-1.2,0.9-2.7,0.9-4.4c0-1.7-0.3-3.2-0.9-4.4
									c-0.6-1.1-1.3-1.7-2.1-1.7v-0.4c0.9,0,1.8,0.7,2.4,2c0.6,1.2,0.9,2.8,0.9,4.6c0,1.7-0.3,3.4-0.9,4.6
									C140.6,163.5,139.8,164.2,138.9,164.2z"/>
								<path class="st26" d="M138.9,164.2v-0.4c3.4,0,6.1-2.8,6.1-6.1c0-3.4-2.8-6.1-6.1-6.1v-0.4c3.6,0,6.5,2.9,6.5,6.5
									C145.4,161.3,142.5,164.2,138.9,164.2z"/>
							</g>
							<g>
								<rect x="133.4" y="154.3" class="st26" width="11" height="0.4"/>
								<rect x="132.5" y="157.5" class="st26" width="12.7" height="0.4"/>
								<rect x="133.4" y="160.6" class="st26" width="11" height="0.4"/>
							</g>
						</g>
					</g>
					<path class="st27" d="M131.8,157.7c0-2.8,1.6-5.3,4-6.4c-0.4-0.1-0.9-0.1-1.4-0.1c-3.6,0-6.5,2.9-6.5,6.5s2.9,6.5,6.5,6.5
						c0.5,0,0.9,0,1.4-0.1C133.4,162.9,131.8,160.5,131.8,157.7z"/>
				</g>
				<path class="st27" d="M110.1,160.7c0,0.4-0.3,0.8-0.8,0.8h-8c-0.4,0-0.8-0.3-0.8-0.8v-6.1c0-0.4,0.3-0.8,0.8-0.8h8
					c0.4,0,0.8,0.3,0.8,0.8V160.7z"/>
				<rect x="100.5" y="155.7" class="st28" width="9.6" height="3.9"/>
				<g>
					<g>
						<rect x="100.5" y="169.5" class="st29" width="9.6" height="1.2"/>
						<rect x="112.6" y="169.5" class="st29" width="9.6" height="1.2"/>
						<rect x="124.8" y="169.5" class="st29" width="9.6" height="1.2"/>
						<rect x="137" y="169.5" class="st29" width="9.6" height="1.2"/>
					</g>
				</g>
				<rect x="100.5" y="143" class="st26" width="21.8" height="2.7"/>
				<rect x="94.7" y="147" class="st2" width="57.7" height="0.5"/>
			</g>
		</g>
		<g>
			<g>
				<path class="st24" d="M413.7,359.3c0,1.8-0.7,3.6-2.1,5s-3.2,2.1-5,2.1H206.7c-1.8,0-3.6-0.7-5-2.1c-1.4-1.4-2.1-3.2-2.1-5
					V231.7c0-1.8,0.7-3.6,2.1-5c1.4-1.4,3.2-2.1,5-2.1h199.8c1.8,0,3.6,0.7,5,2.1s2.1,3.2,2.1,5V359.3z"/>
				<path class="st30" d="M309.1,230.2c0,1.3-1.1,2.4-2.4,2.4s-2.4-1.1-2.4-2.4c0-1.3,1.1-2.4,2.4-2.4S309.1,228.8,309.1,230.2z"/>
				<path class="st26" d="M307.7,230.2c0,0.5-0.4,1-1,1c-0.5,0-1-0.4-1-1c0-0.5,0.4-1,1-1C307.2,229.1,307.7,229.7,307.7,230.2z"/>
				<path class="st29" d="M438,370.6c-3.8,4.4-9.5,7.2-15.7,7.2H191.1c-6.3,0-11.9-2.8-15.7-7.2H438z"/>
				<path class="st2" d="M437.9,370.6H175.4v-3c0-0.3,0.1-0.6,0.4-0.8c0.2-0.2,0.5-0.3,0.8-0.3h260.2c0.3,0,0.6,0.1,0.8,0.3
					c0.2,0.2,0.3,0.5,0.3,0.8V370.6z"/>
				<path class="st29" d="M331,367.1c0,0.4-0.1,0.7-0.4,1c-0.3,0.3-0.6,0.4-1,0.4h-45.9c-0.4,0-0.7-0.1-1-0.4
					c-0.3-0.3-0.4-0.6-0.4-1v-0.7H331V367.1z"/>
				<rect x="210.8" y="235.5" class="st2" width="191.7" height="119.8"/>
				<polygon class="st31" points="402.6,355.3 210.8,235.5 402.6,235.5 				"/>
				<g>
					<path class="st32" d="M289.6,335.2H260c-1,0-2-0.3-2.8-0.9s-1.4-1.5-1.7-2.4l-9.6-31.5h-14.8v-5.8h15.5c1,0,2,0.3,2.8,0.9
						c0.8,0.6,1.4,1.5,1.7,2.4l9.6,31.5h28.2l5.9-19.4h-36l-1.7-5.7h39c1.5,0,2.9,0.7,3.8,1.9c0.9,1.2,1.2,2.8,0.7,4.2l-6.5,21.3
						c-0.3,1-0.9,1.8-1.7,2.4C291.6,334.9,290.6,335.2,289.6,335.2z M289.6,313.9H260l1.2,3.9h27.3L289.6,313.9z M287.2,321.7
						l-1.2,3.9h-22.6l-1.2-3.9H287.2z M264.2,337c-2.9,0-5.2,2.3-5.2,5.2s2.3,5.2,5.2,5.2c2.9,0,5.2-2.3,5.2-5.2
						C269.4,339.3,267.1,337,264.2,337z M285.3,337c-2.9,0-5.2,2.3-5.2,5.2s2.3,5.2,5.2,5.2s5.2-2.3,5.2-5.2
						C290.5,339.3,288.2,337,285.3,337z"/>
					<g>
						<g>
							<g>
								<rect x="316.3" y="320.4" class="st33" width="7.6" height="1.1"/>
								<polygon class="st33" points="323.9,318.3 318.5,313 319.3,312.2 324.6,317.6 								"/>
								
									<rect x="317.8" y="326.2" transform="matrix(0.7074 -0.7068 0.7068 0.7074 -136.8185 322.9254)" class="st33" width="7.6" height="1.1"/>
							</g>
							<g>
								<rect x="374.7" y="320.4" class="st33" width="7.6" height="1.1"/>
								<polygon class="st33" points="374.7,318.3 380,313 379.3,312.2 373.9,317.6 								"/>
								<polygon class="st33" points="374.7,323.6 380,329 379.3,329.7 373.9,324.4 								"/>
							</g>
						</g>
						<path class="st33" d="M370.1,327.7c0,1.2-0.9,2.1-2.1,2.1h-37.4c-1.1,0-2.1-0.9-2.1-2.1v-13.4c0-1.1,0.9-2.1,2.1-2.1H368
							c1.2,0,2.1,0.9,2.1,2.1V327.7z"/>
						<path class="st2" d="M344,320.7c0.3-0.1,0.5-0.3,0.7-0.6c0.2-0.3,0.3-0.6,0.3-0.9c0-0.3-0.1-0.6-0.2-0.8
							c-0.1-0.2-0.3-0.4-0.5-0.6c-0.2-0.1-0.5-0.2-0.7-0.3c-0.3,0-0.7-0.1-1.2-0.1h-2.7v6.8h2.3c0.9,0,1.4,0,1.7,0
							c0.4,0,0.7-0.1,0.9-0.3c0.2-0.2,0.5-0.4,0.6-0.7c0.1-0.3,0.2-0.6,0.2-0.9c0-0.4-0.1-0.7-0.3-1
							C344.7,321,344.4,320.8,344,320.7z M341,318.6h0.8c0.6,0,1,0,1.2,0s0.4,0.1,0.5,0.2s0.2,0.3,0.2,0.5c0,0.2-0.1,0.4-0.2,0.5
							s-0.3,0.2-0.5,0.2c-0.1,0-0.5,0-1,0h-1V318.6z M343.7,322.9c-0.1,0.1-0.3,0.2-0.5,0.3c-0.1,0-0.4,0-0.9,0H341v-1.8h1.1
							c0.6,0,1,0,1.2,0.1c0.2,0.1,0.3,0.2,0.4,0.3c0.1,0.1,0.1,0.3,0.1,0.5C343.9,322.5,343.8,322.7,343.7,322.9z M350.5,317.5h1.4
							v3.6c0,0.8,0,1.4-0.1,1.7c-0.1,0.3-0.2,0.6-0.4,0.9c-0.2,0.2-0.5,0.4-0.8,0.6c-0.3,0.1-0.8,0.2-1.3,0.2
							c-0.7,0-1.2-0.1-1.5-0.2c-0.3-0.2-0.6-0.3-0.8-0.6c-0.2-0.2-0.3-0.5-0.4-0.7c-0.1-0.4-0.1-1-0.1-1.7v-3.6h1.4v3.7
							c0,0.6,0,1,0,1.1c0.1,0.3,0.2,0.5,0.4,0.7s0.5,0.2,0.9,0.2c0.4,0,0.7-0.1,0.9-0.2c0.2-0.2,0.3-0.4,0.4-0.6
							c0-0.2,0.1-0.6,0.1-1.2v-3.9H350.5z M359,317.5l-2.5,3.9v2.9h-1.4v-2.9l-2.5-3.9h1.6l1.6,2.7l1.6-2.7H359z"/>
						<path class="st34" d="M370.1,321v-6.7c0-1.1-0.9-2.1-2.1-2.1h-37.4c-1.1,0-2.1,0.9-2.1,2.1v6.7H370.1z"/>
					</g>
					<polygon class="st24" points="363.2,341.8 363.2,339.5 362.1,339.5 362.1,338.3 360.9,338.3 360.9,337.2 359.8,337.2 
						359.8,336 358.6,336 358.6,334.9 357.4,334.9 357.4,333.7 356.3,333.7 356.3,332.5 355.1,332.5 355.1,331.3 353.9,331.3 
						353.9,330.2 352.8,330.2 352.8,329 351.6,329 351.6,327.9 350.5,327.9 350.5,326.7 349.3,326.7 349.3,346.5 351.6,346.5 
						351.6,345.3 352.8,345.3 352.8,344.1 353.9,344.1 353.9,343 355.1,343 355.1,345.3 356.3,345.3 356.3,347.6 357.4,347.6 
						357.4,348.8 359.8,348.8 359.8,347.6 360.9,347.6 360.9,345.3 359.8,345.3 359.8,343 358.6,343 358.6,341.8 					"/>
				</g>
				<g>
					<polygon class="st35" points="253.5,240.8 232.2,240.8 210.8,270.4 238.2,270.4 					"/>
					<polygon class="st27" points="274.7,240.8 253.5,240.8 238.2,270.4 265.6,270.4 					"/>
					<polygon class="st35" points="296,240.8 274.7,240.8 265.6,270.4 293,270.4 					"/>
					<polygon class="st27" points="317.3,240.8 296,240.8 293,270.4 320.4,270.4 					"/>
					<polygon class="st35" points="338.6,240.8 317.3,240.8 320.4,270.4 347.7,270.4 					"/>
					<polygon class="st27" points="359.9,240.8 338.6,240.8 347.7,270.4 375.1,270.4 					"/>
					<path class="st29" d="M238.2,270.4c0,7.6-6.1,13.7-13.7,13.7c-7.6,0-13.7-6.1-13.7-13.7C218.5,270.4,230.1,270.4,238.2,270.4z"
						/>
					<path class="st28" d="M265.6,270.4c0,7.6-6.1,13.7-13.7,13.7c-7.6,0-13.7-6.1-13.7-13.7C246,270.4,257.5,270.4,265.6,270.4z"/>
					<polygon class="st27" points="232.2,240.8 210.8,240.8 183.4,270.4 210.8,270.4 					"/>
					<path class="st28" d="M210.8,270.4c0,7.6-6.1,13.7-13.7,13.7s-13.7-6.1-13.7-13.7C191.2,270.4,202.7,270.4,210.8,270.4z"/>
					<path class="st29" d="M293,270.4c0,7.6-6.1,13.7-13.7,13.7s-13.7-6.1-13.7-13.7C273.4,270.4,284.9,270.4,293,270.4z"/>
					<path class="st28" d="M320.4,270.4c0,7.6-6.1,13.7-13.7,13.7S293,278,293,270.4C300.7,270.4,312.2,270.4,320.4,270.4z"/>
					<path class="st29" d="M347.7,270.4c0,7.6-6.1,13.7-13.7,13.7s-13.7-6.1-13.7-13.7C328.1,270.4,339.6,270.4,347.7,270.4z"/>
					<path class="st28" d="M375.1,270.4c0,7.6-6.1,13.7-13.7,13.7s-13.7-6.1-13.7-13.7C355.5,270.4,367,270.4,375.1,270.4z"/>
					<polygon class="st27" points="402.6,240.8 381.2,240.8 402.6,270.4 429.9,270.4 					"/>
					<path class="st28" d="M429.9,270.4c0,7.6-6.1,13.7-13.7,13.7s-13.7-6.1-13.7-13.7C410.3,270.4,421.8,270.4,429.9,270.4z"/>
					<polygon class="st35" points="381.2,240.8 359.9,240.8 375.1,270.4 402.6,270.4 					"/>
					<path class="st29" d="M402.6,270.4c0,7.6-6.1,13.7-13.7,13.7c-7.6,0-13.7-6.1-13.7-13.7C382.9,270.4,394.4,270.4,402.6,270.4z"
						/>
					<g>
						<rect x="210.8" y="235.5" class="st28" width="21.3" height="5.2"/>
						<rect x="232.2" y="235.5" class="st29" width="21.3" height="5.2"/>
						<rect x="253.5" y="235.5" class="st28" width="21.3" height="5.2"/>
						<rect x="274.7" y="235.5" class="st29" width="21.3" height="5.2"/>
						<rect x="296" y="235.5" class="st28" width="21.3" height="5.2"/>
						<rect x="317.3" y="235.5" class="st29" width="21.3" height="5.2"/>
						<rect x="338.6" y="235.5" class="st28" width="21.3" height="5.2"/>
						<rect x="359.9" y="235.5" class="st29" width="21.3" height="5.2"/>
						<rect x="381.2" y="235.5" class="st28" width="21.3" height="5.2"/>
					</g>
				</g>
			</g>
			<g>
				<g>
					<g>
						<rect x="419.4" y="360.3" class="st36" width="29.7" height="6.2"/>
						<rect x="419.4" y="359.6" class="st37" width="29.7" height="6.2"/>
					</g>
					<g>
						<g>
							<rect x="416.9" y="353.4" class="st36" width="29.7" height="6.2"/>
							<rect x="416.9" y="352.8" class="st36" width="29.7" height="6.2"/>
						</g>
					</g>
					<g>
						<rect x="424.4" y="346.6" class="st36" width="29.7" height="6.2"/>
						<rect x="424.4" y="346" class="st38" width="29.7" height="6.2"/>
					</g>
					<g>
						<g>
							<rect x="421.6" y="339.8" class="st36" width="29.7" height="6.2"/>
							<rect x="421.6" y="339.2" class="st36" width="29.7" height="6.2"/>
						</g>
					</g>
					<g>
						<rect x="425.6" y="332.9" class="st36" width="29.7" height="6.2"/>
						<rect x="425.6" y="332.3" class="st38" width="29.7" height="6.2"/>
					</g>
				</g>
				<g>
					<g>
						<rect x="380.9" y="360.3" class="st36" width="29.7" height="6.2"/>
						<rect x="380.9" y="359.6" class="st38" width="29.7" height="6.2"/>
					</g>
					<g>
						<rect x="376.7" y="353.4" class="st37" width="29.7" height="6.2"/>
						<rect x="376.7" y="352.8" class="st36" width="29.7" height="6.2"/>
					</g>
					<g>
						<rect x="383.4" y="346.6" class="st36" width="29.7" height="6.2"/>
						<rect x="383.4" y="346" class="st38" width="29.7" height="6.2"/>
					</g>
					<g>
						<rect x="384.3" y="339.8" class="st36" width="29.7" height="6.2"/>
						<rect x="384.3" y="339.2" class="st37" width="29.7" height="6.2"/>
					</g>
					<g>
						<rect x="381.6" y="332.9" class="st37" width="29.7" height="6.2"/>
						<rect x="381.6" y="332.3" class="st36" width="29.7" height="6.2"/>
					</g>
					<g>
						<rect x="382.7" y="326.1" class="st37" width="29.7" height="6.2"/>
						<rect x="382.7" y="325.5" class="st36" width="29.7" height="6.2"/>
					</g>
					<g>
						<rect x="380.9" y="319.3" class="st36" width="29.7" height="6.2"/>
						<rect x="380.9" y="318.7" class="st38" width="29.7" height="6.2"/>
					</g>
					<g>
						<rect x="386.5" y="312.5" class="st37" width="29.7" height="6.2"/>
						<rect x="386.5" y="311.8" class="st36" width="29.7" height="6.2"/>
					</g>
				</g>
				<path class="st39" d="M414,339.2v6.8h-0.9v6.8h-6.6v6.8h4.2v6.8h-10.4l-0.6-0.6l-2.9-2.9c-0.6-0.6-1.2-1.3-1.7-2
					c-0.2-0.2-0.3-0.4-0.4-0.6l0,0c-0.1-0.2-0.2-0.4-0.4-0.6c0,0,0-0.1-0.1-0.1c-0.1-0.2-0.2-0.4-0.3-0.5c-0.9-1.7-1.5-3.5-1.7-5.5
					v-0.1c0-0.2,0-0.4-0.1-0.5v-0.1c0-0.2,0-0.4,0-0.6l0,0c0-0.2,0-0.4,0-0.6c0-0.1,0-0.2,0-0.3v-0.1c0-0.1,0-0.2,0-0.3
					c0-1.5,0.2-3,0.6-4.4c0-0.1,0.1-0.2,0.1-0.3c0-0.1,0.1-0.2,0.1-0.3c0-0.1,0.1-0.2,0.1-0.4c0-0.1,0.1-0.2,0.1-0.3
					c0.1-0.1,0.1-0.3,0.2-0.4c0.8-1.9,2-3.7,3.4-5.2c0.2-0.2,0.4-0.4,0.6-0.6c0.1-0.1,0.2-0.2,0.2-0.2c0.2-0.1,0.3-0.3,0.5-0.4
					c0.1-0.1,0.2-0.2,0.3-0.2c0.3-0.3,0.7-0.5,1-0.7c0.8-0.5,1.7-1,2.7-1.4c0.1-0.1,0.3-0.1,0.4-0.2c1.8-0.7,3.7-1,5.6-1h0.2
					c0.3,0,0.6,0,0.8,0c0,0,0,0,0.1,0c0.4,0,0.7,0.1,1.1,0.1c0.1,0,0.1,0,0.2,0c0.4,0,0.7,0.1,1.1,0.2v3.8h2.5V339.2z M445.9,366.3
					l-0.4-0.4l-6.2-6.2l-0.6-0.6l-0.9-0.9l-4.7-4.7l-0.6-0.6l-0.6-0.6l-0.8-0.8l-3.3-3.3l-1-1l-0.2-0.2l-0.3-0.3l-0.6-0.6l-1.9-1.9
					l-2.1-2.1v4h2.8v6.8H417v6.8h2.4v6.8h26.7L445.9,366.3z"/>
				<g>
					<path class="st36" d="M422.9,351.6c0,8.2-6.6,14.9-14.9,14.9c-8.2,0-14.9-6.6-14.9-14.9c0-8.2,6.7-14.9,14.9-14.9
						C416.2,336.8,422.9,343.4,422.9,351.6z"/>
					<path class="st38" d="M422.9,351c0,8.2-6.6,14.9-14.9,14.9c-8.2,0-14.9-6.7-14.9-14.9c0-8.2,6.7-14.8,14.9-14.8
						C416.2,336.1,422.9,342.8,422.9,351z"/>
					<path class="st37" d="M408,363.5c-6.9,0-12.5-5.6-12.5-12.5s5.6-12.5,12.5-12.5s12.5,5.6,12.5,12.5S414.9,363.5,408,363.5z
						 M408,339.7c-6.2,0-11.3,5.1-11.3,11.3c0,6.2,5.1,11.3,11.3,11.3c6.2,0,11.3-5.1,11.3-11.3C419.3,344.8,414.2,339.7,408,339.7z
						"/>
					<path class="st37" d="M412.2,350.8c-0.6-0.6-1.8-1.1-3.4-1.5v-3.5c0.7,0.3,1.1,0.7,1.3,1.5l2.6-0.3c-0.2-0.9-0.6-1.6-1.3-2.2
						c-0.7-0.5-1.5-0.9-2.7-1v-0.9h-1.5v0.9c-1.2,0.1-2.2,0.5-2.9,1.2c-0.7,0.7-1.1,1.5-1.1,2.5s0.3,1.8,1,2.5
						c0.6,0.7,1.6,1.2,3,1.5v3.8c-0.4-0.2-0.7-0.4-1-0.8c-0.3-0.3-0.5-0.8-0.6-1.3l-2.7,0.3c0.2,1.2,0.7,2.1,1.4,2.8
						c0.8,0.7,1.7,1,2.9,1.2v1.7h1.5v-1.7c1.4-0.2,2.4-0.6,3.2-1.4c0.8-0.8,1.2-1.7,1.2-2.8C413.1,352.3,412.8,351.5,412.2,350.8z
						 M407.3,348.9c-0.5-0.2-0.8-0.4-1-0.7c-0.2-0.3-0.3-0.6-0.3-0.9c0-0.3,0.1-0.7,0.4-1c0.2-0.3,0.6-0.5,1-0.6v3.2H407.3z
						 M410.1,354.8c-0.3,0.3-0.8,0.5-1.3,0.6v-3.5c0.6,0.2,1.1,0.4,1.4,0.7c0.3,0.3,0.4,0.6,0.4,1
						C410.6,354,410.4,354.4,410.1,354.8z"/>
				</g>
			</g>
		</g>
		<g>
			<circle class="st35" cx="439.2" cy="466.4" r="41.7"/>
			<g>
				<path class="st28" d="M445.3,449.3l-30.1,30.1l17.9,17.9l30.1-30.1l-2.9-15L445.3,449.3z M456.2,459c-0.7,0.7-2,0.7-2.7,0
					s-0.7-2,0-2.7c0.8-0.7,2-0.7,2.7,0C456.9,457.1,456.9,458.3,456.2,459z"/>
				<g>
					<g>
						<path class="st31" d="M430.7,486.5l-0.1-1.1c0.9,0.1,2.1-0.2,3-1.1c1.2-1.2,0.9-2.2,0.4-2.7c-1.7-1.7-4.6,3.1-7,0.8
							c-1.1-1.1-0.9-2.8,0.4-4.1c1-1,2.1-1.4,3.2-1.4l0.1,1.1c-1-0.1-2,0.4-2.7,1.1c-0.8,0.8-0.9,1.8-0.3,2.4c1.5,1.5,4.5-3.3,7-0.8
							c0.9,0.9,1.3,2.6-0.5,4.3C433.1,486.2,431.9,486.6,430.7,486.5z"/>
						<path class="st31" d="M442.4,476.7l-2-0.9l-3.3,3.3l0.9,2l-0.9,0.9l-3.9-9.2l1-1l9.2,3.9L442.4,476.7z M434.4,473.2l2.2,4.9
							l2.8-2.8L434.4,473.2z"/>
						<path class="st31" d="M444,475l-6.6-6.6l0.8-0.8l5.8,5.8l3-3l0.7,0.7L444,475z"/>
						<path class="st31" d="M449,470.1l-6.6-6.6l4.3-4.3l0.7,0.7l-3.5,3.5l2.1,2.1l3.4-3.4l0.7,0.7l-3.4,3.4l2.3,2.3l3.5-3.5
							l0.7,0.7L449,470.1z"/>
					</g>
				</g>
				<path class="st40" d="M460.3,452.2l-4.1,4.1c-0.7-0.7-2-0.7-2.7,0s-0.7,2,0,2.7l-29.3,29.3l-9-9l30.1-30.1L460.3,452.2z"/>
				<path class="st30" d="M452.9,455.7c-1.1,1.1-1.1,2.8,0,3.9c1.1,1.1,2.8,1.1,3.9,0c1.1-1.1,1.1-2.8,0-3.9
					C455.7,454.6,454,454.6,452.9,455.7z M456.2,459c-0.7,0.7-2,0.7-2.7,0s-0.7-2,0-2.7c0.8-0.7,2-0.7,2.7,0
					C456.9,457.1,456.9,458.3,456.2,459z"/>
				<path class="st26" d="M451.9,449.7c0-1.4,0.7-2.2,1.5-3.1c0.9-1,1.9-2.1,1.9-4.2c0-4.2-3.5-6.9-3.6-7l-0.6,0.8
					c0,0,3.2,2.4,3.2,6.2c0,1.7-0.8,2.5-1.6,3.5c-0.8,0.9-1.8,2-1.8,3.8c0,1.9,0.9,3,1.7,4c0.9,1,1.7,2,1.7,4c0,0.3,0.2,0.5,0.5,0.5
					s0.5-0.2,0.5-0.5c0-2.3-1-3.6-1.9-4.7C452.6,452.1,451.9,451.2,451.9,449.7z"/>
			</g>
		</g>
	</g>
</g>
</svg>
