<?xml version="1.0" encoding="utf-8"?>
<!-- Generator: Adobe Illustrator 19.2.1, SVG Export Plug-In . SVG Version: 6.00 Build 0)  -->
<svg version="1.1" id="Layer_1" xmlns="http://www.w3.org/2000/svg" xmlns:xlink="http://www.w3.org/1999/xlink" x="0px" y="0px"
	 viewBox="0 0 612 612" style="enable-background:new 0 0 612 612;" xml:space="preserve">
<style type="text/css">
	.st0{fill:#E43B3E;}
	.st1{opacity:0.1;fill:#010101;}
	.st2{fill:#003C4F;}
	.st3{fill:#C7CB35;}
	.st4{fill:#2272B9;}
	.st5{fill:#FFFFFF;}
	.st6{fill:#003244;}
	.st7{fill:#C6CA36;}
	.st8{opacity:0.5;fill:#F1F3EE;}
	.st9{opacity:5.000000e-002;fill:#231F20;}
	.st10{fill:#F2F4EF;}
	.st11{fill:#102F41;}
</style>
<g>
	<circle class="st0" cx="306" cy="306" r="306"/>
	<ellipse class="st1" cx="306.5" cy="527.3" rx="54.3" ry="6"/>
	<ellipse class="st1" cx="184.3" cy="468.6" rx="36.7" ry="4.7"/>
	<ellipse class="st1" cx="119.7" cy="428.6" rx="29.1" ry="3.7"/>
	<ellipse class="st1" cx="466.6" cy="438.2" rx="83.8" ry="6.9"/>
	<path class="st2" d="M120.9,367.2c-1.4,0-2.6-1.2-2.6-2.6v-84.7c0-1.4,1.2-2.6,2.6-2.6h76.7V231c0-1.4,1.2-2.6,2.6-2.6
		c1.4,0,2.6,1.2,2.6,2.6v48.9c0,1.4-1.2,2.6-2.6,2.6h-76.7v82.1C123.5,366,122.3,367.2,120.9,367.2z"/>
	<path class="st2" d="M184.7,394.5c-1.4,0-2.6-1.2-2.6-2.6v-84.1c0-0.7,0.3-1.3,0.8-1.8c0.5-0.5,1.1-0.8,1.8-0.8c0,0,0,0,0,0
		l165.8,0.1v-74.3c0-1.4,1.2-2.6,2.6-2.6c1.4,0,2.6,1.2,2.6,2.6V308c0,0.7-0.3,1.3-0.8,1.8c-0.5,0.5-1.1,0.8-1.8,0.8c0,0,0,0,0,0
		l-165.8-0.1V392C187.3,393.4,186.1,394.5,184.7,394.5z"/>
	<path class="st2" d="M308.1,395.7c-1.4,0-2.6-1.2-2.6-2.6V288.9h-48.8c-1.4,0-2.6-1.2-2.6-2.6V231c0-1.4,1.2-2.6,2.6-2.6
		c1.4,0,2.6,1.2,2.6,2.6v52.7h48.8c1.4,0,2.6,1.2,2.6,2.6v106.7C310.6,394.5,309.5,395.7,308.1,395.7z"/>
	<path class="st2" d="M459.3,356.3c-1.4,0-2.6-1.2-2.6-2.6v-25.9h-31c-1.4,0-2.6-1.2-2.6-2.6V231c0-1.4,1.2-2.6,2.6-2.6
		c1.4,0,2.6,1.2,2.6,2.6v91.7h31c1.4,0,2.6,1.2,2.6,2.6v28.4C461.9,355.1,460.7,356.3,459.3,356.3z"/>
	<g>
		<g>
			<g>
				<path class="st3" d="M358.9,233.2c0,1.7-1.4,3.1-3.1,3.1h-5.6c-1.7,0-3.1-1.4-3.1-3.1v-12.9c0-1.7,1.4-3.1,3.1-3.1h5.6
					c1.7,0,3.1,1.4,3.1,3.1V233.2z"/>
			</g>
		</g>
		<g>
			<g>
				<path class="st3" d="M431.5,233.2c0,1.7-1.4,3.1-3.1,3.1h-5.6c-1.7,0-3.1-1.4-3.1-3.1v-12.9c0-1.7,1.4-3.1,3.1-3.1h5.6
					c1.7,0,3.1,1.4,3.1,3.1V233.2z"/>
			</g>
		</g>
		<g>
			<g>
				<path class="st3" d="M262.4,233.2c0,1.7-1.4,3.1-3.1,3.1h-5.6c-1.7,0-3.1-1.4-3.1-3.1v-12.9c0-1.7,1.4-3.1,3.1-3.1h5.6
					c1.7,0,3.1,1.4,3.1,3.1V233.2z"/>
			</g>
		</g>
		<g>
			<g>
				<path class="st3" d="M206,232.4c0,1.7-1.4,3.1-3.1,3.1h-5.6c-1.7,0-3.1-1.4-3.1-3.1v-12.9c0-1.7,1.4-3.1,3.1-3.1h5.6
					c1.7,0,3.1,1.4,3.1,3.1V232.4z"/>
			</g>
		</g>
	</g>
	<g>
		<g>
			<path class="st3" d="M188.9,396.6c0,1.2-1,2.2-2.2,2.2h-3.9c-1.2,0-2.2-1-2.2-2.2v-9.2c0-1.2,1-2.2,2.2-2.2h3.9
				c1.2,0,2.2,1,2.2,2.2V396.6z"/>
		</g>
	</g>
	<g>
		<g>
			<path class="st3" d="M463.8,359.8c0,1.2-1,2.2-2.2,2.2h-3.9c-1.2,0-2.2-1-2.2-2.2v-9.2c0-1.2,1-2.2,2.2-2.2h3.9
				c1.2,0,2.2,1,2.2,2.2V359.8z"/>
		</g>
	</g>
	<g>
		<g>
			<path class="st3" d="M312.2,396.7c0,1.2-1,2.2-2.2,2.2h-3.9c-1.2,0-2.2-1-2.2-2.2v-9.2c0-1.2,1-2.2,2.2-2.2h3.9
				c1.2,0,2.2,1,2.2,2.2V396.7z"/>
		</g>
	</g>
	<g>
		<g>
			<path class="st3" d="M125.1,369.2c0,1.2-1,2.2-2.2,2.2h-3.9c-1.2,0-2.2-1-2.2-2.2V360c0-1.2,1-2.2,2.2-2.2h3.9
				c1.2,0,2.2,1,2.2,2.2V369.2z"/>
		</g>
	</g>
	<path class="st4" d="M202.3,81.5c15.4,0,29.7,5,41.2,13.6c5.5-21.9,25.4-38.1,49-38.1c26,0,47.4,19.6,50.2,44.8
		c3.8-0.9,7.8-1.4,11.8-1.4c20.3,0,37.9,12,45.9,29.3c8.5-6.4,19-10.2,30.5-10.2c27.9,0,50.5,22.6,50.5,50.6
		c0,27.9-22.6,50.5-50.5,50.5l-228.7-0.3c-38.3,0-69.4-31.1-69.4-69.4C132.9,112.5,163.9,81.5,202.3,81.5z"/>
	<g>
		<path class="st5" d="M341,140.7c-1.8-0.1-2.6-0.7-3.4-2.2c-1.9-4.1-5-7.3-8.9-9.5c-1.3-0.8-1.9-1.6-2.1-3.2c-0.5-5-4.1-8.6-9-9.6
			l-4.5,0c-2.2-0.2-2.7,1-2.6,3c0.1,4.8,0,9.7,0,14.5c0,4.2,1,5.3,5.3,5c2.7-0.2,5.2-1.2,7.3-3.1c3.5-3.2,4.2-3.2,7.4,0.4
			c1.1,1.2,1.9,2.6,2.8,3.9c0.9,1.3,1,2.2-0.4,3.5c-5.7,5.3-5.6,12.4,0.4,17.7c1,0.9,1.6,1.7,1.1,3c-1.3,3-2.9,5.8-5.4,7.9
			c-1.6,1.4-2.7,1.5-4.2-0.4c-2.7-3.6-6.7-4.5-10.9-4.3c-2.1,0.1-3.5,0.9-3.4,3.6c0.2,5.2,0.2,10.3,0,15.5c-0.1,2.4,1,3.2,3,3.5
			c7.1,1.3,12.9-2.7,13.8-9.9c0.2-1.2,0.4-2,1.5-2.6c4.8-2.4,7.5-6.7,9.5-11.4c0.7-1.6,1.3-2.5,3.4-2.7c5.8-0.5,10.2-5.8,9.9-11.6
			C351.4,145.8,346.9,141,341,140.7z"/>
		<path class="st5" d="M305.3,98.1c-0.5,0-1.1-0.1-1.6,0c-17.5,3.1-35.1,6.1-52.6,9.3c-3.3,0.6-8.2,1-9.2,2.1c-0.4,0-0.3,2.1-0.3,3
			c0,27.1,0,54.1,0,81.2c0,0.9,0,1.5,0.1,2.5c0.1,0.7,2.5,0.9,3.1,1c8,1.4,14.3,2.5,22.3,3.9c13,2.2,25.9,4.4,38.9,6.7
			c0.4-0.6,0.3-1.2,0.3-1.9c0-35,0-70.1,0-105.1C306.3,99.9,306.6,98.7,305.3,98.1z M285.5,160.9c-0.3,5.2-3,8.7-8,10.1
			c-4.4,1.3-8.9,1-13.4,0c-2.4-0.6-3.7-1.8-3.3-4.5c0.2-1.6,0-3.2,0-4.8c1.1-0.6,1.6,0.4,2.3,0.8c2.6,1.6,5.3,2.4,8.3,2.2
			c2.3-0.1,4.7-0.5,5.4-3.2c0.6-2.5-1.1-4-3-5.2c-2.1-1.2-4.4-2.2-6.6-3.4c-3.6-2-6-4.9-6.4-9.1c-0.7-6.3,2.8-11.2,8.9-12.7
			c3.7-0.9,7.5-0.7,11.2-0.1c2.3,0.4,3.4,1.4,3.1,3.9c-0.2,1.6,0,3.2,0,5.1c-2.3-0.8-4.1-1.9-6.3-2.2c-1.4-0.2-2.8-0.3-4.2,0
			c-1.9,0.4-3.6,1.1-4.1,3.2c-0.5,2.1,0.8,3.5,2.4,4.5c2.5,1.5,5.1,2.7,7.6,4.2C283.9,152.1,285.9,155.9,285.5,160.9z"/>
	</g>
	<g>
		<g>
			<g>
				
					<rect x="293.5" y="491.5" transform="matrix(1.390426e-002 -0.9999 0.9999 1.390426e-002 -202.2969 805.0607)" class="st6" width="27.1" height="27.1"/>
				<g>
					<path class="st2" d="M378.8,394l-140.5-2c-6.1-0.1-11,4.8-11.1,10.8l-0.1,10.2l-1,69.9l-0.1,6.5c-0.1,6.1,4.8,11,10.8,11.1
						l140.5,2c6.1,0.1,11-4.8,11.1-10.8l0.1-6.5l1-69.9l0.1-10.2C389.7,399.1,384.9,394.1,378.8,394z M237.1,483.2l1.1-80.2l140.5,2
						l-0.1,10.2h0l-1,70.5l-140.5-2L237.1,483.2L237.1,483.2z"/>
					<g>
						<g>
							<g>
								
									<rect x="267.2" y="374.4" transform="matrix(1.391365e-002 -0.9999 0.9999 1.391365e-002 -141.0884 746.35)" class="st7" width="81.4" height="140.5"/>
								
									<ellipse transform="matrix(1.390056e-002 -0.9999 0.9999 1.390056e-002 -190.2458 793.5073)" class="st8" cx="307.2" cy="493.2" rx="3.4" ry="3.4"/>
								
									<ellipse transform="matrix(1.390186e-002 -0.9999 0.9999 1.390186e-002 -94.4689 701.6473)" class="st8" cx="308.5" cy="398.7" rx="1.7" ry="1.7"/>
							</g>
							
								<rect x="307.7" y="334.4" transform="matrix(1.391363e-002 -0.9999 0.9999 1.391363e-002 -100.5157 707.4368)" class="st9" width="1.4" height="140.5"/>
							
								<rect x="306.6" y="414.5" transform="matrix(1.391365e-002 -0.9999 0.9999 1.391365e-002 -181.6393 785.2423)" class="st9" width="1.4" height="140.5"/>
						</g>
					</g>
				</g>
				<path class="st2" d="M336.9,525.2c0,2.6-2.2,4.7-4.8,4.7l-50.8-0.7c-2.6,0-4.7-2.2-4.7-4.8l0.1-6.8c0-2.6,2.2-4.7,4.8-4.7
					l50.8,0.7c2.6,0,4.7,2.2,4.7,4.8L336.9,525.2z"/>
			</g>
			<g>
				
					<ellipse transform="matrix(1.392243e-002 -0.9999 0.9999 1.392243e-002 -161.2521 765.7291)" class="st10" cx="307.6" cy="464.6" rx="9" ry="9"/>
				<path class="st10" d="M329.4,443.3c-0.1-0.1-0.3-0.3-0.4-0.4l-0.4-0.4c-0.1-0.1-0.1-0.1-0.2-0.2c-11.5-10.7-29.2-10.5-40.5,0.4
					l-1.3,1.3l-1.8,1.8c-2.2,2.2-2.3,5.7-0.1,8c2.2,2.2,5.7,2.3,8,0.1l3.1-3.1c7.1-6.9,18.6-6.8,25.5,0.4l2.2,2.2
					c2.1,2.2,5.7,2.2,7.9,0.1c1.1-1,1.7-2.4,1.7-3.9c0-1.5-0.5-2.9-1.6-4L329.4,443.3z"/>
				<path class="st10" d="M344.8,432.4l-1.8-1.9c0,0,0,0,0,0l-1.4-1.5c-0.3-0.3-0.5-0.5-0.8-0.7c-18.7-16.9-47.5-16.8-66,0.6
					c-0.1,0.1-0.2,0.1-0.3,0.2l-3.4,3.3c-2,2-2.1,5.2-0.1,7.2c2,2,5.2,2.1,7.2,0.1l3.4-3.3c0,0,0-0.1,0.1-0.1
					c15-14.1,38.5-13.9,53.2,0.4l2.6,2.7c2,2,5.2,2.1,7.2,0.1C346.7,437.7,346.8,434.4,344.8,432.4z"/>
			</g>
		</g>
		<g>
			<g>
				<g>
					<g>
						<g>
							
								<rect x="439.2" y="342.8" transform="matrix(1.391651e-002 -0.9999 0.9999 1.391651e-002 69.2169 854.0788)" class="st7" width="56.9" height="98.2"/>
							<path class="st6" d="M524,421.2l0.8-56.9c0.1-4.2-3.3-7.7-7.6-7.8l-98.2-1.4c-4.2-0.1-7.7,3.3-7.8,7.6l-0.8,56.9l0,0
								l-0.1,9.8l113.6,1.6L524,421.2L524,421.2z M418.9,362.8l98.2,1.4l-0.8,56.9l-98.2-1.4L418.9,362.8z"/>
							
								<ellipse transform="matrix(1.387080e-002 -0.9999 0.9999 1.387080e-002 35.5326 886.4256)" class="st8" cx="467.2" cy="425.2" rx="2.4" ry="2.4"/>
							
								<ellipse transform="matrix(1.385740e-002 -0.9999 0.9999 1.385740e-002 101.8226 822.8553)" class="st8" cx="468.1" cy="359.8" rx="1.2" ry="1.2"/>
							<path class="st2" d="M538.3,436.4c-0.6,2-2.7,3.6-4.7,3.5l-133.2-1.9c-2,0-4.1-1.7-4.6-3.7l-1-4c-0.5-2,0.8-3.6,2.8-3.5
								l139.2,1.9c2,0,3.3,1.7,2.7,3.6L538.3,436.4z"/>
						</g>
						
							<rect x="467.5" y="314.9" transform="matrix(1.391650e-002 -0.9999 0.9999 1.391650e-002 97.5717 826.8835)" class="st9" width="1" height="98.2"/>
						
							<rect x="466.8" y="370.8" transform="matrix(1.391641e-002 -0.9999 0.9999 1.391641e-002 40.8769 881.259)" class="st9" width="1" height="98.2"/>
					</g>
				</g>
			</g>
			<g>
				<g>
					
						<ellipse transform="matrix(1.392138e-002 -0.9999 0.9999 1.392138e-002 56.0052 865.7976)" class="st10" cx="467" cy="404.5" rx="5.2" ry="5.2"/>
					<path class="st10" d="M479.5,392.2c-0.1-0.1-0.2-0.2-0.2-0.2l-0.2-0.2c0,0-0.1-0.1-0.1-0.1c-6.6-6.2-16.9-6.1-23.4,0.2
						l-0.8,0.7l-1.1,1c-1.3,1.2-1.3,3.3-0.1,4.6c1.3,1.3,3.3,1.3,4.6,0.1l1.8-1.8c4.1-4,10.7-3.9,14.8,0.2l1.3,1.3
						c1.2,1.3,3.3,1.3,4.6,0.1c0.6-0.6,1-1.4,1-2.3c0-0.9-0.3-1.7-0.9-2.3L479.5,392.2z"/>
					<path class="st10" d="M488.5,385.9l-1.1-1.1c0,0,0,0,0,0l-0.8-0.9c-0.1-0.1-0.3-0.3-0.5-0.4c-10.8-9.8-27.4-9.7-38.2,0.3
						c-0.1,0-0.1,0.1-0.2,0.1l-2,1.9c-1.2,1.1-1.2,3,0,4.2c1.1,1.2,3,1.2,4.2,0.1l2-1.9c0,0,0,0,0,0c8.7-8.2,22.3-8,30.8,0.3
						l1.5,1.6c1.1,1.2,3,1.2,4.2,0C489.6,388.9,489.6,387.1,488.5,385.9z"/>
				</g>
			</g>
		</g>
		<g>
			<g>
				<g>
					<g>
						<g>
							<path class="st7" d="M212,464.9c0,1.8-1.5,3.3-3.4,3.3l-50.5-0.7c-1.8,0-3.3-1.5-3.3-3.4l0.9-66.1c0-1.8,1.5-3.3,3.4-3.3
								l50.5,0.7c1.8,0,3.3,1.5,3.3,3.4L212,464.9z"/>
							<path class="st2" d="M210.8,393.8l-52.9-0.7c-1.9,0-3.5,1.5-3.6,3.5l-1,69.2c0,1.9,1.5,3.5,3.5,3.6l52.9,0.7
								c1.9,0,3.5-1.5,3.6-3.5l1-69.2C214.3,395.4,212.7,393.8,210.8,393.8z M207.9,400l-0.8,56.2l-47.3-0.7l0.8-56.2L207.9,400z"/>
							
								<ellipse transform="matrix(1.390033e-002 -0.9999 0.9999 1.390033e-002 -281.4135 639.2557)" class="st8" cx="183.4" cy="462.3" rx="3.8" ry="3.8"/>
							
								<ellipse transform="matrix(1.391110e-002 -0.9999 0.9999 1.391110e-002 -215.2361 575.778)" class="st11" cx="184.3" cy="397" rx="1.3" ry="1.3"/>
						</g>
						
							<rect x="183.9" y="376.6" transform="matrix(1.391009e-002 -0.9999 0.9999 1.391009e-002 -218.4032 578.8859)" class="st9" width="0.8" height="47.2"/>
						
							<rect x="183.1" y="431.9" transform="matrix(1.392236e-002 -0.9999 0.9999 1.392236e-002 -274.4625 632.6548)" class="st9" width="0.8" height="47.2"/>
					</g>
				</g>
			</g>
			<g>
				<g>
					
						<ellipse transform="matrix(1.391167e-002 -0.9999 0.9999 1.391167e-002 -256.051 614.9025)" class="st10" cx="183.7" cy="437.3" rx="3.8" ry="3.8"/>
					<path class="st10" d="M193,428.2c-0.1-0.1-0.1-0.1-0.2-0.2l-0.2-0.2c0,0-0.1-0.1-0.1-0.1c-4.9-4.5-12.4-4.5-17.2,0.2l-0.6,0.5
						l-0.8,0.8c-0.9,0.9-1,2.4,0,3.4c0.9,0.9,2.4,1,3.4,0.1l1.3-1.3c3-3,7.9-2.9,10.9,0.1l0.9,0.9c0.9,0.9,2.4,1,3.3,0
						c0.5-0.4,0.7-1,0.7-1.7c0-0.6-0.2-1.2-0.7-1.7L193,428.2z"/>
					<path class="st10" d="M199.5,423.6l-0.8-0.8c0,0,0,0,0,0l-0.6-0.6c-0.1-0.1-0.2-0.2-0.4-0.3c-7.9-7.2-20.2-7.1-28.1,0.3
						c0,0-0.1,0.1-0.1,0.1l-1.4,1.4c-0.9,0.8-0.9,2.2,0,3.1c0.8,0.9,2.2,0.9,3.1,0.1l1.5-1.4c0,0,0,0,0,0c6.4-6,16.4-5.9,22.6,0.2
						l1.1,1.1c0.8,0.9,2.2,0.9,3.1,0C200.3,425.8,200.4,424.4,199.5,423.6z"/>
				</g>
			</g>
		</g>
		<g>
			<g>
				<g>
					<g>
						<g>
							<g>
								<path class="st7" d="M142.4,425.5c0,1.5-1.5,2.8-3.3,2.7l-37.2-0.5c-1.8,0-3.2-1.3-3.2-2.8l0.8-54.7c0-1.5,1.5-2.7,3.3-2.7
									l37.2,0.5c1.8,0,3.2,1.3,3.2,2.8L142.4,425.5z"/>
								<path class="st2" d="M141,366.2l-39.3-0.5c-1.9,0-3.5,1.3-3.5,2.9l-0.8,57.8c0,1.6,1.5,3,3.4,3l39.3,0.5
									c1.9,0,3.5-1.3,3.5-2.9l0.8-57.8C144.4,367.6,142.9,366.3,141,366.2z M137.5,373l-0.6,45.5l-32.6-0.5l0.6-45.5L137.5,373z"
									/>
								
									<ellipse transform="matrix(1.393733e-002 -0.9999 0.9999 1.393733e-002 -304.8967 538.3973)" class="st8" cx="120.5" cy="423.8" rx="2.8" ry="2.8"/>
								<path class="st11" d="M128.8,370.3c0,0.4-0.3,0.8-0.8,0.7l-13.6-0.2c-0.4,0-0.8-0.3-0.7-0.8l0,0c0-0.4,0.3-0.8,0.8-0.7
									l13.6,0.2C128.5,369.5,128.8,369.9,128.8,370.3L128.8,370.3z"/>
							</g>
							
								<rect x="120.8" y="357" transform="matrix(1.392870e-002 -0.9999 0.9999 1.392870e-002 -253.6758 489.3155)" class="st9" width="0.9" height="32.6"/>
							
								<rect x="120.2" y="401.5" transform="matrix(1.390840e-002 -0.9999 0.9999 1.390840e-002 -298.8202 532.5845)" class="st9" width="0.9" height="32.6"/>
						</g>
					</g>
				</g>
			</g>
			<g>
				<g>
					
						<ellipse transform="matrix(1.391184e-002 -0.9999 0.9999 1.391184e-002 -283.256 517.6375)" class="st10" cx="120.8" cy="402.4" rx="3.1" ry="3.1"/>
					<path class="st10" d="M128.3,395.1c0,0-0.1-0.1-0.1-0.1l-0.1-0.1c0,0,0,0-0.1-0.1c-3.9-3.7-10-3.6-13.8,0.1l-0.5,0.4L113,396
						c-0.8,0.7-0.8,2,0,2.7c0.7,0.8,2,0.8,2.7,0l1.1-1c2.4-2.4,6.4-2.3,8.7,0.1l0.8,0.8c0.7,0.8,1.9,0.8,2.7,0
						c0.4-0.4,0.6-0.8,0.6-1.3c0-0.5-0.2-1-0.5-1.4L128.3,395.1z"/>
					<path class="st10" d="M133.5,391.4l-0.6-0.6c0,0,0,0,0,0l-0.5-0.5c-0.1-0.1-0.2-0.2-0.3-0.2c-6.4-5.8-16.2-5.7-22.6,0.2
						c0,0-0.1,0-0.1,0.1l-1.2,1.1c-0.7,0.7-0.7,1.8,0,2.5c0.7,0.7,1.8,0.7,2.5,0l1.2-1.1c0,0,0,0,0,0c5.1-4.8,13.2-4.7,18.2,0.2
						l0.9,0.9c0.7,0.7,1.8,0.7,2.5,0C134.2,393.2,134.2,392.1,133.5,391.4z"/>
				</g>
			</g>
		</g>
	</g>
</g>
</svg>
