<?xml version="1.0" encoding="utf-8"?>
<!-- Generator: Adobe Illustrator 20.0.0, SVG Export Plug-In . SVG Version: 6.00 Build 0)  -->
<svg version="1.1" id="Layer_1" xmlns="http://www.w3.org/2000/svg" xmlns:xlink="http://www.w3.org/1999/xlink" x="0px" y="0px"
	 viewBox="0 0 612 612" style="enable-background:new 0 0 612 612;" xml:space="preserve">
<style type="text/css">
	.st0{fill:#F36E4E;}
	.st1{clip-path:url(#SVGID_2_);}
	.st2{fill:#DFECE0;}
	.st3{fill:#3FBDC4;}
	.st4{fill:#FFFFFF;}
	.st5{fill:#E94250;}
	.st6{fill:#065382;}
	.st7{clip-path:url(#XMLID_4_);fill:#00A551;}
	.st8{fill:#D0D1D2;}
	.st9{fill:#BABCBE;}
	.st10{fill:#DB4126;}
	.st11{fill:#F16227;}
	.st12{fill:#C4C6C2;}
	.st13{fill:#353537;}
	.st14{fill:#C4C3C5;}
	.st15{fill:#6B6A6F;}
	.st16{fill:#FBAE3A;}
	.st17{fill:#15B687;}
	
		.st18{clip-path:url(#XMLID_6_);fill:#FFFFFF;stroke:#FBAE3A;stroke-width:6.0304;stroke-linecap:round;stroke-linejoin:round;stroke-miterlimit:10;}
	.st19{clip-path:url(#SVGID_4_);}
	.st20{opacity:0.4;fill:#A8C5BD;}
	.st21{opacity:0.4;fill:#6B6A6F;}
	.st22{fill:#B3B4B4;}
	.st23{fill:#E6E6E6;}
	.st24{fill:none;stroke:#FFFFFF;stroke-width:1.5787;stroke-miterlimit:10;}
	
		.st25{clip-path:url(#XMLID_10_);fill:#FFFFFF;stroke:#FBAE3A;stroke-width:2.7902;stroke-linecap:round;stroke-linejoin:round;stroke-miterlimit:10;}
	.st26{clip-path:url(#XMLID_11_);fill:#FFFFFF;}
	.st27{fill:#FCBE61;}
	.st28{clip-path:url(#XMLID_13_);fill:#FBAE3A;}
	.st29{fill:#F5BEAA;}
	.st30{fill:#CE6456;}
	.st31{fill:#494645;}
</style>
<g>
	<circle class="st0" cx="306" cy="306" r="306"/>
	<g>
		<defs>
			<circle id="SVGID_1_" cx="306" cy="306" r="306"/>
		</defs>
		<clipPath id="SVGID_2_">
			<use xlink:href="#SVGID_1_"  style="overflow:visible;"/>
		</clipPath>
		<g class="st1">
			<g>
				<g>
					<g>
						<path class="st2" d="M123,270.9c0-5.5-4.4-9.9-9.9-9.9H72.9c-5.5,0-9.9,4.4-9.9,9.9v40.2c0,5.5,4.4,9.9,9.9,9.9h40.2
							c5.5,0,9.9-4.4,9.9-9.9V270.9z"/>
						<path class="st2" d="M544,270.9c0-5.5-4.4-9.9-9.9-9.9h-40.2c-5.5,0-9.9,4.4-9.9,9.9v40.2c0,5.5,4.4,9.9,9.9,9.9h40.2
							c5.5,0,9.9-4.4,9.9-9.9V270.9z"/>
						<path class="st2" d="M502,173.9c0-5.5-4.4-9.9-9.9-9.9h-40.2c-5.5,0-9.9,4.4-9.9,9.9v40.2c0,5.5,4.4,9.9,9.9,9.9h40.2
							c5.5,0,9.9-4.4,9.9-9.9V173.9z"/>
						<path class="st2" d="M165,173.9c0-5.5-4.4-9.9-9.9-9.9h-40.2c-5.5,0-9.9,4.4-9.9,9.9v40.2c0,5.5,4.4,9.9,9.9,9.9h40.2
							c5.5,0,9.9-4.4,9.9-9.9V173.9z"/>
						<path class="st2" d="M269,85.9c0-5.5-4.4-9.9-9.9-9.9h-40.2c-5.5,0-9.9,4.4-9.9,9.9v40.2c0,5.5,4.4,9.9,9.9,9.9h40.2
							c5.5,0,9.9-4.4,9.9-9.9V85.9z"/>
						<path class="st2" d="M398,85.9c0-5.5-4.4-9.9-9.9-9.9h-40.2c-5.5,0-9.9,4.4-9.9,9.9v40.2c0,5.5,4.4,9.9,9.9,9.9h40.2
							c5.5,0,9.9-4.4,9.9-9.9V85.9z"/>
						<path class="st2" d="M154,372.9c0-5.5-4.4-9.9-9.9-9.9h-40.2c-5.5,0-9.9,4.4-9.9,9.9v40.2c0,5.5,4.4,9.9,9.9,9.9h40.2
							c5.5,0,9.9-4.4,9.9-9.9V372.9z"/>
						<path class="st2" d="M514,372.9c0-5.5-4.4-9.9-9.9-9.9h-40.2c-5.5,0-9.9,4.4-9.9,9.9v40.2c0,5.5,4.4,9.9,9.9,9.9h40.2
							c5.5,0,9.9-4.4,9.9-9.9V372.9z"/>
					</g>
				</g>
				<g>
					<g>
						<path class="st3" d="M124,269.9c0-5.5-4.4-9.9-9.9-9.9H73.9c-5.5,0-9.9,4.4-9.9,9.9v40.2c0,5.5,4.4,9.9,9.9,9.9h40.2
							c5.5,0,9.9-4.4,9.9-9.9V269.9z M75.7,301c1-0.5,2-0.8,3.1-1.1c0-0.4,0-0.7,0-1.1c0.1-0.9,0.3-1.7,0.6-2.4"/>
						<path class="st4" d="M106.1,287.5v6h-4.6v-6.2H85.9v-9.1c0-3.3,2.6-5.9,5.9-5.9h3.8c3.3,0,5.9,2.6,5.9,5.9v4.1h4.2v-5.4
							c0-4.5-3.6-8.1-8.1-8.1h-7.8c-4.5,0-8.1,3.6-8.1,8.1v10.5c-1.7,0.3-3,1.8-3,3.5v16.3c0,2,1.7,3.5,3.7,3.5H105
							c2.1,0,3.7-1.6,3.7-3.5V306v-2v-2.7v-2v-2.9v-2V294v-3.2C108.7,289.2,107.6,287.9,106.1,287.5z M95.1,300.8v2.5
							c0,0.6-0.6,1-1.3,1c-0.7,0-1.3-0.5-1.3-1v-2.5c-1-0.5-1.7-1.5-1.7-2.7c0-1.7,1.4-3,3-3c1.7,0,3,1.4,3,3
							C96.8,299.3,96.1,300.4,95.1,300.8z"/>
					</g>
					<g>
						<path class="st5" d="M545,269.9c0-5.5-4.4-9.9-9.9-9.9h-40.2c-5.5,0-9.9,4.4-9.9,9.9v40.2c0,5.5,4.4,9.9,9.9,9.9h40.2
							c5.5,0,9.9-4.4,9.9-9.9V269.9z M533,272.4v0.8v34.6v1.6v1.6h-36v-1.6v-1.6v-34.6v-0.8V270h36V272.4z"/>
						<path class="st4" d="M497,308h36v-35h-36V308z M509,281.4l14.7,9.5l-14.7,9.5V281.4z"/>
						<polygon class="st6" points="497,272.4 497,273 533,273 533,272.4 533,270 497,270 						"/>
						<polygon class="st6" points="497,309.4 497,311 533,311 533,309.4 533,308 497,308 						"/>
						<polygon class="st5" points="509,281.4 509,300.3 523.7,290.9 						"/>
					</g>
					<g>
						<g>
							<defs>
								<path id="XMLID_9_" d="M504,214.1c0,5.5-4.4,9.9-9.9,9.9h-40.2c-5.5,0-9.9-4.4-9.9-9.9v-40.2c0-5.5,4.4-9.9,9.9-9.9h40.2
									c5.5,0,9.9,4.4,9.9,9.9V214.1z"/>
							</defs>
							<use xlink:href="#XMLID_9_"  style="overflow:visible;fill:#00A551;"/>
							<clipPath id="XMLID_4_">
								<use xlink:href="#XMLID_9_"  style="overflow:visible;"/>
							</clipPath>
							<polygon class="st7" points="491,150 491,199.7 495,196.7 490.7,199.7 457,225.1 457,138 453,138 453,183 438,183 438,188 
								453,188 453,229.3 433.8,243.7 437.2,248 453,236.1 453,237 457,237 457,231.9 490.8,206.5 498.1,201 491,206.5 491,240 
								499,240 499,150 							"/>
						</g>
						<g>
							<path class="st8" d="M481.9,184.9c8.5,0,15.4,5.4,15.4,12.1c0,4.8-3.6,9-8.8,10.9c0.1,0.2,0.2,0.4,0.3,0.6
								c1,1.7,2.5,3,4.3,3.9c-3.9,0.3-7.5-0.9-9.9-3.4c-0.4,0-0.8,0-1.2,0c-8.5,0-15.4-5.4-15.4-12.1
								C466.6,190.3,473.4,184.9,481.9,184.9z"/>
							<path class="st9" d="M471.3,205.8c9.5-0.2,17.1-6.3,17.1-13.9c0-2.3-0.7-4.5-2-6.5c-1.4-0.3-2.9-0.5-4.5-0.5
								c-8.5,0-15.4,5.4-15.4,12.1C466.6,200.5,468.4,203.6,471.3,205.8z"/>
							<path class="st4" d="M468.8,175c-9.7,0-17.6,6.2-17.6,13.9c0,5.5,4.1,10.3,10.1,12.5c-0.1,0.2-0.2,0.5-0.4,0.7
								c-1.2,2-2.9,3.4-4.9,4.4c4.5,0.3,8.7-1,11.4-3.9c0.5,0,0.9,0.1,1.4,0.1c9.7,0,17.6-6.2,17.6-13.9
								C486.4,181.2,478.5,175,468.8,175z"/>
							<g>
								<g>
									<circle class="st10" cx="461.3" cy="189.1" r="2.5"/>
									<circle class="st10" cx="468.8" cy="189.1" r="2.5"/>
									<circle class="st10" cx="476.4" cy="189.1" r="2.5"/>
								</g>
								<g>
									<path class="st11" d="M458.8,188.9h4.9c-0.1-1.3-1.2-2.3-2.5-2.3C460,186.6,458.9,187.6,458.8,188.9z"/>
									<path class="st11" d="M466.4,188.9h4.9c-0.1-1.3-1.2-2.3-2.5-2.3C467.6,186.6,466.5,187.6,466.4,188.9z"/>
									<path class="st11" d="M474,188.9h4.9c-0.1-1.3-1.2-2.3-2.5-2.3C475.1,186.6,474.1,187.6,474,188.9z"/>
								</g>
							</g>
						</g>
					</g>
					<g>
						<path class="st12" d="M166,173.9c0-5.5-4.4-9.9-9.9-9.9h-40.2c-5.5,0-9.9,4.4-9.9,9.9v40.2c0,5.5,4.4,9.9,9.9,9.9h40.2
							c5.5,0,9.9-4.4,9.9-9.9V173.9z M156,204c0,4-3.4,7-7.4,7h-25.9c-4,0-6.7-3.1-6.7-7v-17.8c0-3.7,2-6.8,6-7.2v-6h8v6h18.6
							c4,0,7.4,3.2,7.4,7.2V204z"/>
						<path class="st13" d="M148.6,179H130v-6h-8v6c-4,0.4-6,3.4-6,7.2V204c0,4,2.7,7,6.7,7h25.9c4,0,7.4-3.1,7.4-7v-17.8
							C156,182.2,152.6,179,148.6,179z M136.4,203.4c-5,0-9-4-9-9c0-5,4-9,9-9c5,0,9,4,9,9C145.4,199.4,141.4,203.4,136.4,203.4z"/>
						<path class="st14" d="M136.4,185.4c-5,0-9,4-9,9c0,5,4,9,9,9c5,0,9-4,9-9C145.4,189.4,141.4,185.4,136.4,185.4z M136.4,200.6
							c-3.4,0-6.2-2.8-6.2-6.2c0-3.4,2.8-6.2,6.2-6.2c3.4,0,6.2,2.8,6.2,6.2C142.6,197.8,139.8,200.6,136.4,200.6z"/>
						<circle class="st15" cx="136.4" cy="194.4" r="6.2"/>
					</g>
					<g>
						<path class="st5" d="M270,85.9c0-5.5-4.4-9.9-9.9-9.9h-40.2c-5.5,0-9.9,4.4-9.9,9.9v40.2c0,5.5,4.4,9.9,9.9,9.9h40.2
							c5.5,0,9.9-4.4,9.9-9.9V85.9z M254.1,116.2c-0.2,2-0.9,4-2.8,5.5c-3.3,2.6-7.9,2.5-10-0.3c-2.2-2.8-1.4-7.1,1.9-9.7
							c2.2-1.8,4.8-2.3,6.8-1.6V91h-13.7l-0.4,23.1c-0.1,2.8-0.6,5.5-3.2,7.6c-3.3,2.6-7.9,2.5-10.1-0.3c-2.2-2.8-1.4-7.1,2-9.7
							c2.2-1.7,4.4-2.2,6.4-1.6V88.5l23.7-0.2L254.1,116.2z"/>
						<path class="st4" d="M231,110.1c-2-0.6-4.3,0-6.4,1.6c-3.3,2.6-4,6.9-1.9,9.7c2.2,2.8,6.7,2.9,10.1,0.3c2.6-2,3.1-4.9,3.2-7.6
							l0.4-23.1H250v19.2c-2-0.7-4.6-0.2-6.8,1.6c-3.3,2.6-4.1,6.9-1.9,9.7c2.2,2.8,6.7,2.9,10,0.3c1.9-1.5,2.6-3.5,2.8-5.5
							l0.6-27.9L231,88.5V110.1z"/>
					</g>
					<g>
						<path class="st16" d="M400,85.9c0-5.5-4.4-9.9-9.9-9.9h-40.2c-5.5,0-9.9,4.4-9.9,9.9v40.2c0,5.5,4.4,9.9,9.9,9.9h40.2
							c5.5,0,9.9-4.4,9.9-9.9V85.9z M345.8,106"/>
						<g id="parents_6_">
							<path class="st4" d="M379.1,113.2c-0.9-0.5-6.9-4.1-10-5.3v-5.4c0.9-0.7,1.4-1.7,1.4-3.2V95c0-3.5-2.2-6.5-6.5-6.5
								s-6.5,2.9-6.5,6.5c0,0,0,0.7,0,4.3c0,1.5,0.5,2.6,1.4,3.2v5.4c-2.9,1.3-9.1,4.8-10,5.3c-1.1,0.7-1.4,1.3-1.4,2.8
								c0,0.6,0,3.4,0,3.4c0,0.4,0.3,0.7,0.7,0.7h31.5c0.4,0,0.7-0.3,0.7-0.7c0,0,0-2.8,0-3.4C380.5,114.5,380.2,113.9,379.1,113.2z
								 M392,115.9c-0.9-0.5-4.3-2.1-7.1-3.4c0,0,0-2.1,0-2.8c2.9-0.2,4.8-1.6,5.6-2.5c0.8-0.9-0.7-1.8-1.9-3.2
								c-1.2-1.4-1.4-2.6-1.4-5.5c0-2.7-2.2-5.6-5.7-5.6c-3.5,0-5.7,3-5.7,5.6c0,2.8-0.2,4.1-1.4,5.5c-1.2,1.4-2.9,2.3-2.1,3.2
								c0.3,0.3,0.6,0.6,1,0.9c0.7,0.4,1.3,0.7,2,1.1c0.7,0.2,1.4,0.4,2.3,0.5c0,0.2,0,0.2,0,0.5c0.7,0.4,1.3,0.8,1.9,1.1
								c2,1.2,2.4,2.3,2.4,4.1v4.7h10.8c0.4,0,0.7-0.3,0.7-0.7v-1.4C393.4,117,392.8,116.4,392,115.9z"/>
						</g>
					</g>
					<g>
						<path class="st17" d="M125.1,372.6c-11.1,0-20.2,9.1-20.2,20.2c0,11.1,9.1,20.2,20.2,20.2c11.1,0,20.2-9.1,20.2-20.2
							C145.3,381.6,136.3,372.6,125.1,372.6z M130.2,399.9c-9.7,11.8-18.4,3.7-18.4,3.7l5-6.6l4,2.8c0,0,3.1-0.9,5.8-4.3
							c2.7-3.5,2.8-6.5,2.8-6.5l-2.7-2.7l5.5-7.7C132.1,378.7,141.5,386.2,130.2,399.9z"/>
						<path class="st17" d="M155,371.9c0-5.5-4.4-9.9-9.9-9.9h-40.2c-5.5,0-9.9,4.4-9.9,9.9v40.2c0,5.5,4.4,9.9,9.9,9.9h40.2
							c5.5,0,9.9-4.4,9.9-9.9V371.9z M125.1,415.6c-12.6,0-22.9-10.3-22.9-22.9s10.3-22.9,22.9-22.9c12.6,0,22.9,10.3,22.9,22.9
							S137.8,415.6,125.1,415.6z"/>
						<path class="st4" d="M132.1,378.7l-5.5,7.7l2.7,2.7c0,0,0,3-2.8,6.5c-2.7,3.5-5.8,4.3-5.8,4.3l-4-2.8l-5,6.6
							c0,0,8.7,8,18.4-3.7C141.5,386.2,132.1,378.7,132.1,378.7z"/>
						<path class="st4" d="M125.1,369.9c-12.6,0-22.9,10.3-22.9,22.9s10.3,22.9,22.9,22.9c12.6,0,22.9-10.3,22.9-22.9
							S137.8,369.9,125.1,369.9z M125.1,412.9c-11.1,0-20.2-9.1-20.2-20.2c0-11.1,9.1-20.2,20.2-20.2c11.1,0,20.2,9.1,20.2,20.2
							C145.3,403.9,136.3,412.9,125.1,412.9z"/>
					</g>
					<g>
						<path class="st3" d="M515,412.1c0,5.5-4.4,9.9-9.9,9.9h-40.2c-5.5,0-9.9-4.4-9.9-9.9v-40.2c0-5.5,4.4-9.9,9.9-9.9h40.2
							c5.5,0,9.9,4.4,9.9,9.9V412.1z"/>
						<g>
							<defs>
								<path id="XMLID_8_" d="M506,409.4c0,0.9-0.7,1.6-1.6,1.6h-37.8c-0.9,0-1.6-0.7-1.6-1.6v-31.8c0-0.9,0.7-1.6,1.6-1.6h37.8
									c0.9,0,1.6,0.7,1.6,1.6V409.4z"/>
							</defs>
							<use xlink:href="#XMLID_8_"  style="overflow:visible;fill:#FFFFFF;"/>
							<clipPath id="XMLID_6_">
								<use xlink:href="#XMLID_8_"  style="overflow:visible;"/>
							</clipPath>
							<path class="st18" d="M459.4,371.6c1.6,0,25.5,21.6,25.5,21.6l27.1-22.7"/>
						</g>
					</g>
				</g>
			</g>
			<g>
				<defs>
					<rect id="SVGID_3_" x="-7" y="-17" width="644" height="644"/>
				</defs>
				<clipPath id="SVGID_4_">
					<use xlink:href="#SVGID_3_"  style="overflow:visible;"/>
				</clipPath>
				<g class="st19">
					<g>
						<g>
							<path class="st4" d="M358.3,170H234.7c-8.4,0-14.7,7.5-14.7,15.8v124.3v31.8v19.7v38.1v58.7c0,8.4,6.3,14.5,14.7,14.5h0.2
								H266h92.3c8.4,0,15.7-6.2,15.7-14.5V185.8C374,177.5,366.6,170,358.3,170z"/>
							<g>
								<g>
									<circle class="st20" cx="295.8" cy="452.9" r="13.3"/>
								</g>
								<circle class="st21" cx="295.8" cy="452.9" r="8.4"/>
							</g>
							<g>
								<path class="st22" d="M314,196.5c0,0.8-0.7,1.5-1.5,1.5h-33c-0.8,0-1.5-0.7-1.5-1.5l0,0c0-0.8,0.7-1.5,1.5-1.5h33
									C313.3,195,314,195.7,314,196.5L314,196.5z"/>
								<circle class="st22" cx="295.8" cy="186.1" r="4.6"/>
								<circle class="st22" cx="270.6" cy="196.6" r="2.1"/>
							</g>
							<g>
								<g>
									<rect x="230" y="209" class="st22" width="133" height="223"/>
									<rect x="230" y="386" class="st23" width="133" height="46"/>
									<rect x="230" y="209" class="st23" width="133" height="12"/>
								</g>
								<g>
									<g>
										<path class="st5" d="M350,419.3c0,2.6-2.1,4.7-4.7,4.7h-19.7c-2.6,0-4.7-2.1-4.7-4.7v-19.7c0-2.6,2.1-4.7,4.7-4.7h19.7
											c2.6,0,4.7,2.1,4.7,4.7V419.3z"/>
										<path class="st4" d="M341.6,401.2l-11.6,0.1v10.2c-1-0.3-1.5,0-2.6,0.8c-1.6,1.2-1.7,3.3-0.7,4.6c1,1.3,3.3,1.4,4.8,0.1
											c1.2-1,1.5-2.5,1.5-3.8l0.2-11.1h6.6v9.5c-2-0.3-2.2-0.1-3.3,0.7c-1.6,1.2-2,3.3-1,4.6c1,1.3,3.1,1.4,4.7,0.1
											c0.9-0.7,1-1.7,1.1-2.6L341.6,401.2z"/>
									</g>
									<g>
										<path class="st17" d="M310,418.3c0,2.6-2.1,4.7-4.7,4.7h-19.7c-2.6,0-4.7-2.1-4.7-4.7v-19.7c0-2.6,2.1-4.7,4.7-4.7h19.7
											c2.6,0,4.7,2.1,4.7,4.7V418.3z"/>
										<g>
											<path class="st4" d="M297.5,406.9c0,0,0,1.4-1.3,3c-1.3,1.6-2.7,2-2.7,2l-1.9-1.3l-2.4,3.1c0,0,4.1,3.8,8.6-1.8
												c5.3-6.5,0.9-10,0.9-10l-2.6,3.6L297.5,406.9z"/>
											<circle class="st24" cx="295.5" cy="408.7" r="10.1"/>
										</g>
									</g>
									<g>
										<path class="st3" d="M271,417.4c0,2.5-2.1,4.6-4.6,4.6h-18.8c-2.5,0-4.6-2.1-4.6-4.6v-18.8c0-2.5,2.1-4.6,4.6-4.6h18.8
											c2.5,0,4.6,2.1,4.6,4.6V417.4z"/>
										<g>
											<defs>
												<path id="XMLID_7_" d="M266,416.3c0,0.4-0.3,0.7-0.7,0.7h-17.5c-0.4,0-0.7-0.3-0.7-0.7v-14.5c0-0.4,0.3-0.7,0.7-0.7
													h17.5c0.4,0,0.7,0.3,0.7,0.7V416.3z"/>
											</defs>
											<use xlink:href="#XMLID_7_"  style="overflow:visible;fill:#FFFFFF;"/>
											<clipPath id="XMLID_10_">
												<use xlink:href="#XMLID_7_"  style="overflow:visible;"/>
											</clipPath>
											<path class="st25" d="M244.5,399.1c0.7,0,11.8,10,11.8,10l12.5-10.5"/>
										</g>
									</g>
								</g>
								<g>
									<g>
										<path class="st16" d="M271,255.5c0,2.5-2,4.5-4.5,4.5h-18.9c-2.5,0-4.5-2-4.5-4.5v-18.9c0-2.5,2-4.5,4.5-4.5h18.9
											c2.5,0,4.5,2,4.5,4.5V255.5z"/>
										<circle class="st4" cx="256.4" cy="245.8" r="10.7"/>
										<circle class="st5" cx="256.4" cy="245.8" r="0.9"/>
										<g>
											<rect x="256" y="236" class="st15" width="2" height="4"/>
											
												<rect x="252.3" y="237.1" transform="matrix(0.8663 -0.4995 0.4995 0.8663 -85.5729 158.173)" class="st15" width="0.8" height="3.7"/>
											
												<rect x="249.3" y="239.9" transform="matrix(0.4997 -0.8662 0.8662 0.4997 -84.4475 337.2786)" class="st15" width="0.8" height="3.7"/>
											<rect x="246" y="245" class="st15" width="5" height="1"/>
											
												<rect x="247.7" y="249.2" transform="matrix(0.8662 -0.4997 0.4997 0.8662 -91.3332 158.0869)" class="st15" width="3.7" height="0.8"/>
											
												<rect x="250.5" y="252.1" transform="matrix(0.4997 -0.8662 0.8662 0.4997 -92.5135 344.9061)" class="st15" width="3.7" height="0.8"/>
											<rect x="256" y="251" class="st15" width="1" height="5"/>
											
												<rect x="259.8" y="250.9" transform="matrix(0.8658 -0.5004 0.5004 0.8658 -91.5569 164.1158)" class="st15" width="0.8" height="3.7"/>
											
												<rect x="262.7" y="248.1" transform="matrix(0.5001 -0.866 0.866 0.5001 -84.9083 352.8188)" class="st15" width="0.8" height="3.7"/>
											<rect x="262" y="245" class="st15" width="5" height="2"/>
											
												<rect x="261.5" y="241.7" transform="matrix(0.8656 -0.5007 0.5007 0.8656 -85.8305 164.3861)" class="st15" width="3.7" height="0.8"/>
											
												<rect x="258.7" y="238.7" transform="matrix(0.5005 -0.8657 0.8657 0.5005 -76.8997 345.0152)" class="st15" width="3.7" height="0.8"/>
										</g>
										
											<rect x="255.7" y="243.5" transform="matrix(0.8794 -0.4761 0.4761 0.8794 -84.9149 153.0691)" class="st5" width="7.9" height="1.2"/>
										
											<rect x="253.3" y="240.3" transform="matrix(0.5269 -0.8499 0.8499 0.5269 -87.4995 331.1624)" class="st5" width="0.9" height="7.9"/>
									</g>
									<g>
										<g>
											<defs>
												<path id="XMLID_2_" d="M272,330.9c0,2.5-3.3,4.1-5.8,4.1h-18.8c-2.5,0-4.3-1.6-4.3-4.1V312c0-2.5,1.8-5,4.3-5h18.8
													c2.5,0,5.8,2.5,5.8,5V330.9z"/>
											</defs>
											<use xlink:href="#XMLID_2_"  style="overflow:visible;fill:#15B687;"/>
											<clipPath id="XMLID_11_">
												<use xlink:href="#XMLID_2_"  style="overflow:visible;"/>
											</clipPath>
											<polygon class="st26" points="266,301 266,324 267.2,322.6 265.3,324 250,335.7 250,295 247,295 247,316 240,316 
												240,318 247,318 247,337.6 238.3,344.2 239.8,346.2 247,340.7 247,340 250,340 250,338.8 265,327.1 268.8,324.6 
												266,327.1 266,342 269,342 269,301 											"/>
										</g>
										<g>
											<path class="st6" d="M262.9,317.4c0,3.4-6,14-6,14s-6.3-10.4-6.3-13.8c0-3.4,2.7-6.2,6.1-6.3
												C260,311.3,262.8,314,262.9,317.4z"/>
											
												<ellipse transform="matrix(0.9999 -1.189170e-02 1.189170e-02 0.9999 -3.7572 3.0747)" class="st4" cx="256.7" cy="317.5" rx="3.4" ry="3.4"/>
										</g>
									</g>
									<g>
										<g>
											<defs>
												<path id="XMLID_1_" d="M349,293c0,2.5-2.8,4-5.3,4h-18.8c-2.5,0-3.9-1.5-3.9-4v-18.8c0-2.5,1.4-4.1,3.9-4.1h18.8
													c2.5,0,5.3,1.6,5.3,4.1V293z"/>
											</defs>
											<use xlink:href="#XMLID_1_"  style="overflow:visible;fill:#15B687;"/>
											<clipPath id="XMLID_12_">
												<use xlink:href="#XMLID_1_"  style="overflow:visible;"/>
											</clipPath>
										</g>
										<g>
											<path class="st4" d="M343.8,282.5c0,4.7-4.2,8.5-9.4,8.5c-2.4,0-4.5-0.8-6.2-2.1c-1.9-1.6-3.2-3.8-3.2-6.4
												c0-4.7,4.2-8.5,9.4-8.5C339.6,273.9,343.8,277.7,343.8,282.5z"/>
											<path class="st4" d="M329.6,286c0,0-1.9,5.6-4.6,6.1c-2.6,0.5,7.5,0.2,9-3.6"/>
										</g>
									</g>
									<g>
										<path class="st12" d="M310,255.4c0,2.5-2,4.6-4.6,4.6h-18.9c-2.5,0-4.6-2-4.6-4.6v-18.9c0-2.5,2-4.6,4.6-4.6h18.9
											c2.5,0,4.6,2,4.6,4.6V255.4z"/>
										<path class="st13" d="M306,249.7c0,1.8-1.5,3.3-3.3,3.3h-12.4c-1.8,0-3.3-1.5-3.3-3.3v-8.4c0-1.8,1.5-3.3,3.3-3.3h12.4
											c1.8,0,3.3,1.5,3.3,3.3V249.7z"/>
										<circle class="st14" cx="295.5" cy="245.8" r="4.1"/>
										<circle class="st15" cx="295.5" cy="245.8" r="2.9"/>
										<rect x="288" y="236" class="st13" width="4" height="4"/>
									</g>
									<g>
										<path class="st5" d="M270,292.6c0,2.5-2,4.4-4.4,4.4h-18.1c-2.5,0-4.4-2-4.4-4.4v-18.1c0-2.5,2-4.4,4.4-4.4h18.1
											c2.5,0,4.4,2,4.4,4.4V292.6z"/>
										<path class="st4" d="M263.3,276.1l-10.3,0.1v9.7c-1-0.3-2.2,0-3.2,0.7c-1.5,1.2-1.9,3.1-1,4.3c1,1.2,2.9,1.3,4.4,0.1
											c1.2-0.9,1.3-1.8,1.4-3l0.1-10h6.2v7.9c-1-0.3-2.1-0.1-3.1,0.7c-1.5,1.2-1.8,3.1-0.9,4.3c1,1.2,3,1.3,4.5,0.1
											c0.9-0.7,1.3-1.6,1.4-2.5L263.3,276.1z"/>
									</g>
									<g>
										<path class="st3" d="M309,292.5c0,2.5-2,4.5-4.5,4.5h-18c-2.5,0-4.5-2-4.5-4.5v-18c0-2.5,2-4.5,4.5-4.5h18
											c2.5,0,4.5,2,4.5,4.5V292.5z"/>
										<g>
											<path class="st27" d="M300,282.1c0,3.6-3,6.6-6.6,6.6c-3.6,0-6.6-3-6.6-6.6c0-3.6,3-6.6,6.6-6.6
												C297,275.5,300,278.4,300,282.1z"/>
											<path class="st4" d="M305.1,292c0.6-0.4,1-1.1,1-1.9c0.1-1.5-1-2.7-2.5-2.9c-0.2,0-0.5,0-0.7,0c0-0.3,0-0.5-0.1-0.8
												c-0.1-0.6-0.4-1.1-0.7-1.5c-0.5-0.6-1.3-1-2.2-1.1c-0.4,0-0.7,0-1.1,0.1c-0.1-1.5-1.4-3.1-3-3.1c-1.8,0-3.3,1.1-3.5,3
												c0,0.3,0,0.6,0.1,0.9c-0.2-0.1-0.4-0.1-0.7-0.1c-1.8,0-3.5,1.2-3.6,3.1c0,0.2,0,0.3,0,0.5c-0.5,0.1-1,0.3-1.4,0.6
												c-1.2,0.7-1.4,2.2-0.6,3.2H305.1z"/>
										</g>
									</g>
									<g>
										<path class="st16" d="M309,330.5c0,2.5-2,4.5-4.5,4.5h-18c-2.5,0-4.5-2-4.5-4.5v-18c0-2.5,2-4.5,4.5-4.5h18
											c2.5,0,4.5,2,4.5,4.5V330.5z"/>
										<path class="st15" d="M298,330.4c0,0.9-0.7,1.6-1.6,1.6h-2.9c-0.9,0-1.6-0.7-1.6-1.6v-3.9c0-0.9,0.7-1.6,1.6-1.6h2.9
											c0.9,0,1.6,0.7,1.6,1.6V330.4z"/>
										<g>
											<defs>
												<path id="XMLID_5_" d="M302.7,319c0-4.2-3.4-7.7-7.7-7.7s-7.7,3.4-7.7,7.7c0,2.8,1.5,5.2,3.7,6.6c0,2.5,0.6,4.4,3.9,4.4
													c3.3,0,3.9-2,3.9-4.4C301.3,324.3,302.7,321.8,302.7,319z"/>
											</defs>
											<use xlink:href="#XMLID_5_"  style="overflow:visible;fill:#FFFFFF;"/>
											<clipPath id="XMLID_13_">
												<use xlink:href="#XMLID_5_"  style="overflow:visible;"/>
											</clipPath>
											<path class="st28" d="M297.3,318.1c-0.1-0.2-0.3-0.3-0.6-0.3c-0.9,0.2-1.5,0.7-1.9,1.4c-0.2-0.5-0.4-1-0.8-1.5
												c-0.2-0.2-0.6-0.2-0.7,0c-2,3.7-0.7,9,0.5,12.8c0,0.2,0.3,0.2,0.3,0c0-3.8-1.9-8-0.3-11.6c0.4,0.8,0.5,1.8,0.5,2.8
												c0,0.6,0.9,0.7,1,0.1c0-0.2,1-3.7,1.4-2.8c0.3,0.7,0.4,1.5,0.4,2.2c0,1.2-0.2,2.4-0.4,3.5c-0.3,2-1.1,4.1-1.1,6.2
												c0,0.7,1,0.8,1.1,0.1C297,326.9,299.3,322,297.3,318.1z"/>
										</g>
									</g>
									<g>
										<path class="st5" d="M350,235.6c0-2.5-2.1-4.6-4.6-4.6h-19.8c-2.5,0-4.6,2.1-4.6,4.6v19.8c0,2.5,2.1,4.6,4.6,4.6h19.8
											c2.5,0,4.6-2.1,4.6-4.6V235.6z M344,236.6v0.4v15.9v0.8v0.2h-18v-0.2v-0.8V237v-0.4V235h18V236.6z"/>
										<path class="st4" d="M326,253h18v-17h-18V253z M333,240.8l6.8,4.4l-6.8,4.4V240.8z"/>
										<polygon class="st6" points="326,236.6 326,236 344,236 344,236.6 344,235 326,235 										"/>
										<polygon class="st6" points="326,253.8 326,254 344,254 344,253.8 344,253 326,253 										"/>
										<polygon class="st5" points="333,240.8 333,249.6 339.8,245.2 										"/>
									</g>
								</g>
							</g>
						</g>
						<g>
							<g>
								<path class="st29" d="M233.3,492.1c7.7,2.3,19.8-6.1,32.6-19.1h-31.1C228,481,224,489.3,233.3,492.1z"/>
								<path class="st29" d="M199.3,334c4.5,6.1,12.7,7.9,20.7,7.9v-31.8C209,314.2,191.5,323.4,199.3,334z"/>
								<path class="st29" d="M195.8,399.3c6.7,4.9,15.2,3.4,24.2,0.4v-38.1C205,370.1,180.7,388.3,195.8,399.3z"/>
							</g>
							<g>
								<path class="st29" d="M401.7,317.8c-9-19.6-14.2-43.3-28.1-43.5l-0.8,114.8c0,0-29.4-71.5-30.9-80.4
									c-1.5-8.9-7.7-35.5-20.5-37c-12.8-1.4-17.3,21.7-13,37.2c8.2,29.7,15.9,46.9,17.3,69.7c1.2,21.1-19.1,36.2,4.9,95.1
									l-14.3-0.2c0,0-3.4,9.1,10.6,28.8c6.2,8.7,5.8,38.6,4.9,56.7l85.7,1.9c1-35.9,6.9-131.2,11.8-160.9
									C435.4,362.5,409.1,334,401.7,317.8z"/>
								<polygon class="st30" points="325.8,558.9 323.6,578.8 418.8,582.3 418.7,561 417.3,561 331.6,559 								"/>
								<polygon class="st31" points="319.3,578.6 309.2,665.9 424.5,670.9 424.1,582.5 418.8,582.3 323.6,578.8 								"/>
							</g>
						</g>
					</g>
				</g>
			</g>
		</g>
	</g>
</g>
</svg>
