<?xml version="1.0" encoding="utf-8"?>
<!-- Generator: Adobe Illustrator 20.0.0, SVG Export Plug-In . SVG Version: 6.00 Build 0)  -->
<svg version="1.1" id="Layer_1" xmlns="http://www.w3.org/2000/svg" xmlns:xlink="http://www.w3.org/1999/xlink" x="0px" y="0px"
	 viewBox="0 0 612 612" style="enable-background:new 0 0 612 612;" xml:space="preserve">
<style type="text/css">
	.st0{clip-path:url(#SVGID_2_);fill:#1576AF;}
	.st1{opacity:0.4;fill:#1B88C0;}
	.st2{opacity:0.5;fill:#1B88C0;}
	.st3{fill:#FFFFFF;}
	.st4{fill:#D1DA27;}
	.st5{font-family:'Rockwell';}
	.st6{font-size:24px;}
	.st7{fill:#D2DB26;}
	.st8{fill:#B0AEB4;}
	.st9{fill:#C2C3C9;}
	.st10{fill:#252626;}
	.st11{fill:#72CCDD;}
	.st12{fill:#3DBFC3;}
	.st13{fill:#231F20;}
	.st14{font-family:'MyriadPro-Regular';}
	.st15{font-size:12px;}
	.st16{fill:#184A9E;}
	.st17{fill:#D45E27;stroke:#66C1CD;stroke-miterlimit:10;}
	.st18{fill:#C61D66;stroke:#66C1CD;stroke-miterlimit:10;}
	.st19{fill:#83C341;stroke:#66C1CD;stroke-miterlimit:10;}
	.st20{clip-path:url(#SVGID_4_);}
	.st21{fill:#4C4C4C;}
	.st22{clip-path:url(#SVGID_6_);fill:#575756;}
	.st23{clip-path:url(#SVGID_6_);fill:#B2B2B2;}
	.st24{clip-path:url(#SVGID_6_);}
	.st25{fill:#D4D4D6;}
	.st26{clip-path:url(#SVGID_6_);fill:#3C3C3B;}
	.st27{clip-path:url(#SVGID_6_);fill:#D4D4D6;}
	.st28{fill:#B2B2B2;}
	.st29{fill:#58595B;}
	.st30{fill:#404041;}
	.st31{fill:#4B4B43;}
	.st32{fill:#EC584A;}
	.st33{fill:#F37F7B;}
	.st34{fill:#E6E7E8;}
	.st35{fill:#6D6E70;}
</style>
<g>
	<g>
		<defs>
			<circle id="SVGID_1_" cx="300.4" cy="306" r="296.6"/>
		</defs>
		<clipPath id="SVGID_2_">
			<use xlink:href="#SVGID_1_"  style="overflow:visible;"/>
		</clipPath>
		<rect x="1.7" y="7.6" class="st0" width="595.3" height="595.3"/>
	</g>
	<ellipse class="st1" cx="173.5" cy="192.7" rx="82.3" ry="79.5"/>
	<ellipse class="st2" cx="484.5" cy="231.4" rx="83.8" ry="80.9"/>
	<ellipse class="st1" cx="290.9" cy="397.2" rx="75.6" ry="73"/>
	<path class="st3" d="M321.9,110.4h7v2.2h-7V110.4z"/>
	<path class="st3" d="M330.4,110.4h7v2.2h-7V110.4z"/>
	<path class="st3" d="M338.9,110.4h7v2.2h-7V110.4z"/>
	<path class="st3" d="M347.4,110.4h7v2.2h-7V110.4z"/>
	<path class="st3" d="M362.3,115.2c0.7,0.4,1.7,0.8,2.8,0.8c1.6,0,2.5-0.8,2.5-2.1c0-1.1-0.6-1.8-2.3-2.4c-2-0.7-3.2-1.7-3.2-3.4
		c0-1.9,1.6-3.3,3.9-3.3c1.2,0,2.1,0.3,2.7,0.6l-0.4,1.3c-0.4-0.2-1.2-0.6-2.3-0.6c-1.7,0-2.3,1-2.3,1.8c0,1.1,0.7,1.7,2.4,2.3
		c2.1,0.8,3.1,1.8,3.1,3.6c0,1.9-1.4,3.5-4.2,3.5c-1.2,0-2.4-0.3-3.1-0.8L362.3,115.2z"/>
	<path class="st3" d="M373.2,105.9v2.5h2.3v1.2h-2.3v4.7c0,1.1,0.3,1.7,1.2,1.7c0.4,0,0.7-0.1,0.9-0.1l0.1,1.2
		c-0.3,0.1-0.8,0.2-1.4,0.2c-0.7,0-1.3-0.2-1.7-0.7c-0.5-0.5-0.6-1.2-0.6-2.3v-4.8h-1.4v-1.2h1.4v-2.1L373.2,105.9z"/>
	<path class="st3" d="M378,113c0,2.1,1.4,3,3,3c1.1,0,1.8-0.2,2.4-0.5l0.3,1.1c-0.6,0.3-1.5,0.5-2.9,0.5c-2.7,0-4.3-1.8-4.3-4.4
		c0-2.6,1.5-4.7,4.1-4.7c2.8,0,3.6,2.5,3.6,4.1c0,0.3,0,0.6-0.1,0.7H378z M382.6,111.9c0-1-0.4-2.6-2.2-2.6c-1.6,0-2.3,1.5-2.4,2.6
		H382.6z"/>
	<path class="st3" d="M386.1,111.2c0-1.1,0-2-0.1-2.8h1.4l0.1,1.5h0c0.6-1.1,1.7-1.7,3.1-1.7c2.1,0,3.7,1.8,3.7,4.4
		c0,3.1-1.9,4.7-4,4.7c-1.2,0-2.2-0.5-2.7-1.4h0v4.7h-1.6V111.2z M387.7,113.5c0,0.2,0,0.5,0.1,0.6c0.3,1.1,1.2,1.9,2.4,1.9
		c1.7,0,2.6-1.4,2.6-3.4c0-1.7-0.9-3.2-2.6-3.2c-1.1,0-2.1,0.8-2.4,2c-0.1,0.2-0.1,0.4-0.1,0.6V113.5z"/>
	<path class="st3" d="M403.8,111.6v1.2h-4.4v-1.2H403.8z"/>
	<path class="st3" d="M412.4,106.9L412.4,106.9l-2.1,1.1l-0.3-1.2l2.6-1.4h1.3v11.7h-1.5V106.9z"/>
	<path class="st3" d="M425.8,110.4h7v2.2h-7V110.4z"/>
	<path class="st3" d="M434.3,110.4h7v2.2h-7V110.4z"/>
	<path class="st3" d="M442.8,110.4h7v2.2h-7V110.4z"/>
	<text transform="matrix(1 0 0 1 101.7952 288.5523)" class="st4 st5 st6">------------------------------</text>
	<text transform="matrix(0 -1 1 0 450.1497 233.1279)" class="st3 st5 st6">------     -----</text>
	<g>
		<text transform="matrix(0 -1 1 0 104.7956 284.4756)" class="st4 st5 st6">--      --------</text>
	</g>
	<text transform="matrix(0 -1 1 0 454.8163 442.5908)" class="st3 st5 st6">--------</text>
	<g>
		<text transform="matrix(0 -1 1 0 231.3807 427.3252)" class="st4 st5 st6">--------------</text>
	</g>
	<g>
		<path class="st3" d="M323.9,440.6h7v2.2h-7V440.6z"/>
		<path class="st3" d="M332.4,440.6h7v2.2h-7V440.6z"/>
		<path class="st3" d="M340.9,440.6h7v2.2h-7V440.6z"/>
		<path class="st3" d="M349.4,440.6h7v2.2h-7V440.6z"/>
		<path class="st3" d="M357.9,440.6h7v2.2h-7V440.6z"/>
		<path class="st3" d="M366.8,445.4c0.7,0.4,1.7,0.8,2.8,0.8c1.6,0,2.5-0.8,2.5-2.1c0-1.1-0.6-1.8-2.3-2.4c-2-0.7-3.2-1.7-3.2-3.4
			c0-1.9,1.6-3.3,3.9-3.3c1.2,0,2.1,0.3,2.7,0.6l-0.4,1.3c-0.4-0.2-1.2-0.6-2.3-0.6c-1.7,0-2.3,1-2.3,1.8c0,1.1,0.7,1.7,2.4,2.3
			c2.1,0.8,3.1,1.8,3.1,3.6c0,1.9-1.4,3.5-4.2,3.5c-1.2,0-2.4-0.3-3.1-0.8L366.8,445.4z"/>
		<path class="st3" d="M377.7,436.1v2.5h2.3v1.2h-2.3v4.7c0,1.1,0.3,1.7,1.2,1.7c0.4,0,0.7-0.1,0.9-0.1l0.1,1.2
			c-0.3,0.1-0.8,0.2-1.4,0.2c-0.7,0-1.3-0.2-1.7-0.7c-0.5-0.5-0.6-1.2-0.6-2.3v-4.8h-1.4v-1.2h1.4v-2.1L377.7,436.1z"/>
		<path class="st3" d="M382.5,443.2c0,2.1,1.4,3,3,3c1.1,0,1.8-0.2,2.4-0.5l0.3,1.1c-0.6,0.3-1.5,0.5-2.9,0.5
			c-2.7,0-4.3-1.8-4.3-4.4c0-2.6,1.5-4.7,4.1-4.7c2.8,0,3.6,2.5,3.6,4.1c0,0.3,0,0.6-0.1,0.7H382.5z M387.1,442.1
			c0-1-0.4-2.6-2.2-2.6c-1.6,0-2.3,1.5-2.4,2.6H387.1z"/>
		<path class="st3" d="M390.6,441.4c0-1.1,0-2-0.1-2.8h1.4l0.1,1.5h0c0.6-1.1,1.7-1.7,3.1-1.7c2.1,0,3.7,1.8,3.7,4.4
			c0,3.1-1.9,4.7-4,4.7c-1.2,0-2.2-0.5-2.7-1.4h0v4.7h-1.6V441.4z M392.2,443.8c0,0.2,0,0.5,0.1,0.6c0.3,1.1,1.2,1.9,2.4,1.9
			c1.7,0,2.6-1.4,2.6-3.4c0-1.7-0.9-3.2-2.6-3.2c-1.1,0-2.1,0.8-2.4,2c-0.1,0.2-0.1,0.4-0.1,0.6V443.8z"/>
		<path class="st3" d="M408.3,441.8v1.2h-4.4v-1.2H408.3z"/>
		<path class="st3" d="M413.9,445.5c0.5,0.3,1.5,0.7,2.6,0.7c2,0,2.7-1.3,2.6-2.3c0-1.6-1.5-2.3-3-2.3h-0.9v-1.2h0.9
			c1.2,0,2.6-0.6,2.6-2c0-0.9-0.6-1.8-2.1-1.8c-0.9,0-1.8,0.4-2.3,0.8l-0.4-1.2c0.6-0.4,1.8-0.9,3.1-0.9c2.3,0,3.3,1.4,3.3,2.8
			c0,1.2-0.7,2.2-2.2,2.8v0c1.4,0.3,2.6,1.4,2.6,3c0,1.9-1.5,3.5-4.3,3.5c-1.3,0-2.5-0.4-3-0.8L413.9,445.5z"/>
		<path class="st3" d="M422.7,440.6h7v2.2h-7V440.6z"/>
		<path class="st3" d="M431.2,440.6h7v2.2h-7V440.6z"/>
		<path class="st3" d="M439.7,440.6h7v2.2h-7V440.6z"/>
	</g>
	<g>
		<g>
			<path class="st4" d="M224.7,304.8h7v2.2h-7V304.8z"/>
			<path class="st4" d="M233.2,304.8h7v2.2h-7V304.8z"/>
			<path class="st4" d="M241.7,304.8h7v2.2h-7V304.8z"/>
			<path class="st4" d="M250.2,304.8h7v2.2h-7V304.8z"/>
			<path class="st4" d="M258.7,304.8h7v2.2h-7V304.8z"/>
			<path class="st7" d="M273.6,309.7c0.7,0.4,1.7,0.8,2.8,0.8c1.6,0,2.5-0.8,2.5-2.1c0-1.1-0.6-1.8-2.3-2.4c-2-0.7-3.2-1.7-3.2-3.4
				c0-1.9,1.6-3.3,3.9-3.3c1.2,0,2.1,0.3,2.7,0.6l-0.4,1.3c-0.4-0.2-1.2-0.6-2.3-0.6c-1.7,0-2.3,1-2.3,1.8c0,1.1,0.7,1.7,2.4,2.3
				c2.1,0.8,3.1,1.8,3.1,3.6c0,1.9-1.4,3.5-4.2,3.5c-1.2,0-2.4-0.3-3.1-0.8L273.6,309.7z"/>
			<path class="st7" d="M284.5,300.3v2.5h2.3v1.2h-2.3v4.7c0,1.1,0.3,1.7,1.2,1.7c0.4,0,0.7-0.1,0.9-0.1l0.1,1.2
				c-0.3,0.1-0.8,0.2-1.4,0.2c-0.7,0-1.3-0.2-1.7-0.7c-0.5-0.5-0.6-1.2-0.6-2.3v-4.8h-1.4v-1.2h1.4v-2.1L284.5,300.3z"/>
			<path class="st7" d="M289.3,307.5c0,2.1,1.4,3,3,3c1.1,0,1.8-0.2,2.4-0.5l0.3,1.1c-0.6,0.3-1.5,0.5-2.9,0.5
				c-2.7,0-4.3-1.8-4.3-4.4s1.5-4.7,4.1-4.7c2.8,0,3.6,2.5,3.6,4.1c0,0.3,0,0.6-0.1,0.7H289.3z M294,306.4c0-1-0.4-2.6-2.2-2.6
				c-1.6,0-2.3,1.5-2.4,2.6H294z"/>
			<path class="st7" d="M297.5,305.7c0-1.1,0-2-0.1-2.8h1.4l0.1,1.5h0c0.6-1.1,1.7-1.7,3.1-1.7c2.1,0,3.7,1.8,3.7,4.4
				c0,3.1-1.9,4.7-4,4.7c-1.2,0-2.2-0.5-2.7-1.4h0v4.7h-1.6V305.7z M299,308c0,0.2,0,0.5,0.1,0.6c0.3,1.1,1.2,1.9,2.4,1.9
				c1.7,0,2.6-1.4,2.6-3.4c0-1.7-0.9-3.2-2.6-3.2c-1.1,0-2.1,0.8-2.4,2c-0.1,0.2-0.1,0.4-0.1,0.6V308z"/>
			<path class="st7" d="M315.2,306.1v1.2h-4.4v-1.2H315.2z"/>
			<path class="st7" d="M325.3,311.6v-3.2h-5.4v-1l5.2-7.5h1.7v7.3h1.6v1.2h-1.6v3.2H325.3z M325.3,307.1v-3.9c0-0.6,0-1.2,0.1-1.8
				h-0.1c-0.4,0.7-0.6,1.2-1,1.7l-2.9,4v0H325.3z"/>
			<path class="st4" d="M333.4,304.8h7v2.2h-7V304.8z"/>
			<path class="st4" d="M341.9,304.8h7v2.2h-7V304.8z"/>
			<path class="st4" d="M350.3,304.8h7v2.2h-7V304.8z"/>
			<path class="st4" d="M358.8,304.8h7v2.2h-7V304.8z"/>
		</g>
	</g>
	<g>
		<path class="st3" d="M422.3,171.4c0.7,0.4,1.7,0.8,2.8,0.8c1.6,0,2.5-0.8,2.5-2.1c0-1.1-0.6-1.8-2.3-2.4c-2-0.7-3.2-1.7-3.2-3.4
			c0-1.9,1.6-3.3,3.9-3.3c1.2,0,2.1,0.3,2.7,0.6l-0.4,1.3c-0.4-0.2-1.2-0.6-2.3-0.6c-1.7,0-2.3,1-2.3,1.8c0,1.1,0.7,1.7,2.4,2.3
			c2.1,0.8,3.1,1.8,3.1,3.6c0,1.9-1.4,3.5-4.2,3.5c-1.2,0-2.4-0.3-3.1-0.8L422.3,171.4z"/>
		<path class="st3" d="M433.2,162v2.5h2.3v1.2h-2.3v4.7c0,1.1,0.3,1.7,1.2,1.7c0.4,0,0.7-0.1,0.9-0.1l0.1,1.2
			c-0.3,0.1-0.8,0.2-1.4,0.2c-0.7,0-1.3-0.2-1.7-0.7c-0.5-0.5-0.6-1.2-0.6-2.3v-4.8h-1.4v-1.2h1.4v-2.1L433.2,162z"/>
		<path class="st3" d="M438,169.2c0,2.1,1.4,3,3,3c1.1,0,1.8-0.2,2.4-0.5l0.3,1.1c-0.6,0.3-1.5,0.5-2.9,0.5c-2.7,0-4.3-1.8-4.3-4.4
			c0-2.6,1.5-4.7,4.1-4.7c2.8,0,3.6,2.5,3.6,4.1c0,0.3,0,0.6-0.1,0.7H438z M442.7,168.1c0-1-0.4-2.6-2.2-2.6c-1.6,0-2.3,1.5-2.4,2.6
			H442.7z"/>
		<path class="st3" d="M446.2,167.4c0-1.1,0-2-0.1-2.8h1.4l0.1,1.5h0c0.6-1.1,1.7-1.7,3.1-1.7c2.1,0,3.7,1.8,3.7,4.4
			c0,3.1-1.9,4.7-4,4.7c-1.2,0-2.2-0.5-2.7-1.4h0v4.7h-1.6V167.4z M447.7,169.7c0,0.2,0,0.5,0.1,0.6c0.3,1.1,1.2,1.9,2.4,1.9
			c1.7,0,2.6-1.4,2.6-3.4c0-1.7-0.9-3.2-2.6-3.2c-1.1,0-2.1,0.8-2.4,2c-0.1,0.2-0.1,0.4-0.1,0.6V169.7z"/>
		<path class="st3" d="M463.9,167.8v1.2h-4.4v-1.2H463.9z"/>
		<path class="st3" d="M469.1,173.3v-1l1.2-1.2c3-2.8,4.3-4.4,4.4-6.1c0-1.2-0.6-2.3-2.3-2.3c-1.1,0-1.9,0.5-2.5,1l-0.5-1.1
			c0.8-0.7,2-1.2,3.3-1.2c2.5,0,3.6,1.7,3.6,3.4c0,2.2-1.6,3.9-4,6.3l-0.9,0.9v0h5.3v1.3H469.1z"/>
	</g>
	<text transform="matrix(1 0 0 1 97.7952 168.9915)" class="st4 st5 st6">---------</text>
	<g>
		<path class="st7" d="M69.1,254.2c0.7,0.4,1.7,0.8,2.8,0.8c1.6,0,2.5-0.8,2.5-2.1c0-1.1-0.6-1.8-2.3-2.4c-2-0.7-3.2-1.7-3.2-3.4
			c0-1.9,1.6-3.3,3.9-3.3c1.2,0,2.1,0.3,2.7,0.6l-0.4,1.3c-0.4-0.2-1.2-0.6-2.3-0.6c-1.7,0-2.3,1-2.3,1.8c0,1.1,0.7,1.7,2.4,2.3
			C75,250,76,251,76,252.8c0,1.9-1.4,3.5-4.2,3.5c-1.2,0-2.4-0.3-3.1-0.8L69.1,254.2z"/>
		<path class="st7" d="M80,244.9v2.5h2.3v1.2H80v4.7c0,1.1,0.3,1.7,1.2,1.7c0.4,0,0.7-0.1,0.9-0.1l0.1,1.2c-0.3,0.1-0.8,0.2-1.4,0.2
			c-0.7,0-1.3-0.2-1.7-0.7c-0.5-0.5-0.6-1.2-0.6-2.3v-4.8h-1.4v-1.2h1.4v-2.1L80,244.9z"/>
		<path class="st7" d="M84.8,252c0,2.1,1.4,3,3,3c1.1,0,1.8-0.2,2.4-0.5l0.3,1.1c-0.6,0.3-1.5,0.5-2.9,0.5c-2.7,0-4.3-1.8-4.3-4.4
			c0-2.6,1.5-4.7,4.1-4.7c2.8,0,3.6,2.5,3.6,4.1c0,0.3,0,0.6-0.1,0.7H84.8z M89.5,250.9c0-1-0.4-2.6-2.2-2.6c-1.6,0-2.3,1.5-2.4,2.6
			H89.5z"/>
		<path class="st7" d="M92.9,250.2c0-1.1,0-2-0.1-2.8h1.4l0.1,1.5h0c0.6-1.1,1.7-1.7,3.1-1.7c2.1,0,3.7,1.8,3.7,4.4
			c0,3.1-1.9,4.7-4,4.7c-1.2,0-2.2-0.5-2.7-1.4h0v4.7h-1.6V250.2z M94.5,252.5c0,0.2,0,0.5,0.1,0.6c0.3,1.1,1.2,1.9,2.4,1.9
			c1.7,0,2.6-1.4,2.6-3.4c0-1.7-0.9-3.2-2.6-3.2c-1.1,0-2.1,0.8-2.4,2c-0.1,0.2-0.1,0.4-0.1,0.6V252.5z"/>
		<path class="st7" d="M110.7,250.6v1.2h-4.4v-1.2H110.7z"/>
		<path class="st7" d="M122.8,245.7h-4.5l-0.5,3c0.3,0,0.5-0.1,1-0.1c0.9,0,1.8,0.2,2.5,0.6c0.9,0.5,1.7,1.5,1.7,3
			c0,2.3-1.8,4-4.4,4c-1.3,0-2.4-0.4-2.9-0.7l0.4-1.2c0.5,0.3,1.4,0.6,2.5,0.6c1.5,0,2.8-1,2.8-2.5c0-1.5-1-2.6-3.4-2.6
			c-0.7,0-1.2,0.1-1.6,0.1l0.8-5.6h5.6V245.7z"/>
	</g>
	<g>
		<path class="st3" d="M261.5,249.8"/>
		<path class="st3" d="M385.2,249.8"/>
		<path class="st3" d="M385.2,251.8"/>
		<path class="st3" d="M261.5,251.8"/>
		<g id="screen">
			<g>
				<path class="st8" d="M204.4,222.4c-2.1,8.5-4.1,16.9-6.2,25.4c19.3,0,38.7,0,58,0c-2.1-8.5-4.1-16.9-6.2-25.4
					C234.8,222.4,219.6,222.4,204.4,222.4z"/>
				<path class="st9" d="M226.8,247.8c9.8,0,19.6,0,29.3,0c-2.1-8.5-4.1-16.9-6.2-25.4c-7.7,0-15.4,0-23.1,0V247.8z"/>
				<path class="st3" d="M259.7,247.4h-65.1c-1.7,0-3,1.6-3,3.5v1.3h71.1v-1.3C262.7,248.9,261.4,247.4,259.7,247.4z"/>
				<path class="st3" d="M129.2,212.5v14c0,2.7,2.2,4.9,4.9,4.9h186.2c2.7,0,4.9-2.2,4.9-4.9v-14H129.2z"/>
				<path class="st10" d="M325.1,212.5V94c0-2.7-2.2-4.9-4.9-4.9H134.1c-2.7,0-4.9,2.2-4.9,4.9v118.5H325.1z"/>
				<rect x="137.2" y="96.8" class="st11" width="179.9" height="107.7"/>
			</g>
		</g>
	</g>
	<g>
		<path class="st3" d="M484.5,387.7"/>
		<path class="st3" d="M608.2,387.7"/>
		<path class="st3" d="M608.2,389.8"/>
		<path class="st3" d="M484.5,389.8"/>
		<g id="screen_4_">
			<g>
				<path class="st8" d="M427.4,360.4c-2.1,8.5-4.1,16.9-6.2,25.4c19.3,0,38.7,0,58,0c-2.1-8.5-4.1-16.9-6.2-25.4
					C457.7,360.4,442.6,360.4,427.4,360.4z"/>
				<path class="st9" d="M449.8,385.8c9.8,0,19.6,0,29.3,0c-2.1-8.5-4.1-16.9-6.2-25.4c-7.7,0-15.4,0-23.1,0V385.8z"/>
				<path class="st3" d="M482.7,385.3h-65.1c-1.7,0-3,1.6-3,3.5v1.3h71.1v-1.3C485.7,386.9,484.4,385.3,482.7,385.3z"/>
				<path class="st3" d="M352.2,350.5v14c0,2.7,2.2,4.9,4.9,4.9h186.2c2.7,0,4.9-2.2,4.9-4.9v-14H352.2z"/>
				<path class="st10" d="M548.1,350.5V232c0-2.7-2.2-4.9-4.9-4.9H357.1c-2.7,0-4.9,2.2-4.9,4.9v118.5H548.1z"/>
				<rect x="360.2" y="234.7" class="st12" width="179.9" height="107.7"/>
			</g>
		</g>
	</g>
	<g>
		<path class="st3" d="M261.5,527.9"/>
		<path class="st3" d="M385.2,528"/>
		<path class="st3" d="M385.2,530"/>
		<path class="st3" d="M261.5,530"/>
		<g id="screen_2_">
			<g>
				<path class="st8" d="M204.4,500.6c-2.1,8.5-4.1,16.9-6.2,25.4c19.3,0,38.7,0,58,0c-2.1-8.5-4.1-16.9-6.2-25.4
					C234.8,500.6,219.6,500.6,204.4,500.6z"/>
				<path class="st9" d="M226.8,526c9.8,0,19.6,0,29.3,0c-2.1-8.5-4.1-16.9-6.2-25.4c-7.7,0-15.4,0-23.1,0V526z"/>
				<path class="st3" d="M259.7,525.6h-65.1c-1.7,0-3,1.6-3,3.5v1.3h71.1v-1.3C262.7,527.1,261.4,525.6,259.7,525.6z"/>
				<path class="st3" d="M129.2,490.7v14c0,2.7,2.2,4.9,4.9,4.9h186.2c2.7,0,4.9-2.2,4.9-4.9v-14H129.2z"/>
				<path class="st10" d="M325.1,490.7V372.2c0-2.7-2.2-4.9-4.9-4.9H134.1c-2.7,0-4.9,2.2-4.9,4.9v118.5H325.1z"/>
				<rect x="137.2" y="374.9" class="st11" width="179.9" height="107.7"/>
			</g>
		</g>
	</g>
	<text transform="matrix(1 0 0 1 160.8545 131.4019)" class="st13 st14 st15">-------------------------------------</text>
	<text transform="matrix(0 1 -1 0 278.5874 126.2081)" class="st13 st14 st15">--------------</text>
	<text transform="matrix(1 0 0 1 227.3582 181.4019)" class="st13 st14 st15">---------------</text>
	<circle class="st16" cx="170" cy="128" r="18.5"/>
	<circle class="st17" cx="226.6" cy="128.2" r="18.5"/>
	<circle class="st18" cx="227.5" cy="178.2" r="18.5"/>
	<circle class="st19" cx="282.2" cy="128" r="18.5"/>
	<g id="Page-1">
		<g id="icon-132-cloud">
			<path id="cloud" class="st3" d="M180,126.1c1.8,0.7,3.1,2.5,3.1,4.6c0,2.8-2.2,5-5,5h-17c-2.8,0-5-2.2-5-5c0-2.1,1.2-3.8,3-4.6
				l0,0c0-0.1,0-0.3,0-0.4c0-3.9,3.1-7,7-7c2.6,0,4.9,1.4,6.1,3.6c0.7-0.4,1.5-0.6,2.4-0.6C177.3,121.7,179.5,123.6,180,126.1z"/>
		</g>
	</g>
	<path class="st3" d="M226.5,137.7c-4.5,0-8.1-1.2-8.1-2.7c0-0.8,0-1.7,0-2.7c0-0.2,0.1-0.5,0.3-0.7c0.9,1.2,4,2,7.8,2
		s6.9-0.9,7.8-2c0.2,0.2,0.3,0.4,0.3,0.7c0,0.8,0,1.6,0,2.7C234.6,136.5,231,137.7,226.5,137.7z M226.5,132.3
		c-4.5,0-8.1-1.2-8.1-2.7c0-0.8,0-1.7,0-2.7c0-0.1,0.1-0.3,0.1-0.4l0,0c0-0.1,0.1-0.2,0.2-0.3c0.9,1.2,4,2,7.8,2s6.9-0.9,7.8-2
		c0.1,0.1,0.1,0.2,0.2,0.3l0,0c0.1,0.1,0.1,0.3,0.1,0.4c0,0.8,0,1.6,0,2.7C234.6,131.1,231,132.3,226.5,132.3z M226.5,126.9
		c-4.5,0-8.1-1.2-8.1-2.7c0-0.4,0-0.9,0-1.4c0-0.4,0-0.9,0-1.4c0-1.5,3.6-2.7,8.1-2.7c4.5,0,8.1,1.2,8.1,2.7c0,0.4,0,0.9,0,1.4
		c0,0.4,0,0.8,0,1.4C234.6,125.7,231,126.9,226.5,126.9z M226.5,120.1c-3,0-5.4,0.6-5.4,1.4c0,0.7,2.4,1.4,5.4,1.4s5.4-0.6,5.4-1.4
		C231.9,120.7,229.5,120.1,226.5,120.1z"/>
	<g>
		<path class="st3" d="M290.5,128.4h-0.8c-0.2,0-0.5-0.2-0.5-0.4c-0.1-0.2-0.2-0.4-0.3-0.6c-0.1-0.2-0.1-0.5,0.1-0.7l0.5-0.5
			c0.4-0.4,0.4-1,0-1.4l-0.9-0.9c-0.2-0.2-0.4-0.3-0.7-0.3c-0.3,0-0.5,0.1-0.7,0.3l-0.5,0.5c-0.1,0.1-0.2,0.1-0.4,0.1
			c-0.1,0-0.2,0-0.3-0.1c-0.2-0.1-0.4-0.2-0.6-0.3c-0.2-0.1-0.4-0.3-0.4-0.5v-0.8c0-0.5-0.4-1-1-1h-1.3c-0.5,0-1,0.4-1,1v0.8
			c0,0.2-0.2,0.5-0.4,0.5c-0.2,0.1-0.4,0.2-0.6,0.3c-0.1,0-0.2,0.1-0.3,0.1c-0.2,0-0.3-0.1-0.4-0.1l-0.5-0.5
			c-0.2-0.2-0.4-0.3-0.7-0.3c-0.3,0-0.5,0.1-0.7,0.3l-0.9,0.9c-0.2,0.2-0.3,0.4-0.3,0.7c0,0.3,0.1,0.5,0.3,0.7l0.5,0.5
			c0.1,0.1,0.2,0.5,0.1,0.7c-0.1,0.2-0.2,0.4-0.3,0.6c-0.1,0.2-0.3,0.4-0.5,0.4h-0.8c-0.5,0-1,0.4-1,1v1.3c0,0.5,0.4,1,1,1h0.8
			c0.2,0,0.5,0.2,0.5,0.4c0.1,0.2,0.2,0.4,0.3,0.6c0.1,0.2,0.1,0.5-0.1,0.7l-0.5,0.5c-0.4,0.4-0.4,1,0,1.4l0.9,0.9
			c0.2,0.2,0.4,0.3,0.7,0.3c0.3,0,0.5-0.1,0.7-0.3l0.5-0.5c0.1-0.1,0.2-0.1,0.4-0.1c0.1,0,0.2,0,0.3,0.1c0.2,0.1,0.4,0.2,0.6,0.3
			c0.2,0.1,0.4,0.3,0.4,0.5v0.8c0,0.5,0.4,1,1,1h1.3c0.5,0,1-0.4,1-1v-0.8c0-0.2,0.2-0.5,0.4-0.5c0.2-0.1,0.4-0.2,0.6-0.3
			c0.1,0,0.2-0.1,0.3-0.1c0.2,0,0.3,0.1,0.4,0.1l0.5,0.5c0.2,0.2,0.4,0.3,0.7,0.3c0.3,0,0.5-0.1,0.7-0.3l0.9-0.9
			c0.4-0.4,0.4-1,0-1.4l-0.5-0.5c-0.1-0.1-0.2-0.5-0.1-0.7c0.1-0.2,0.2-0.4,0.3-0.6c0.1-0.2,0.3-0.4,0.5-0.4h0.8c0.5,0,1-0.4,1-1
			v-1.3C291.4,128.8,291,128.4,290.5,128.4L290.5,128.4z M286.3,130c0,1.6-1.3,2.9-2.9,2.9c-1.6,0-2.9-1.3-2.9-2.9
			c0-1.6,1.3-2.9,2.9-2.9C285,127.1,286.3,128.4,286.3,130L286.3,130z M286.3,130"/>
		<path class="st3" d="M277.4,122c0-0.1,0.1-0.1,0.1-0.1h0.4c0.4,0,0.7-0.3,0.7-0.7v-0.6c0-0.4-0.3-0.7-0.7-0.7h-0.4
			c0,0-0.1,0-0.1-0.1c0-0.1-0.1-0.2-0.1-0.3c0,0,0-0.1,0-0.1l0.3-0.3c0.3-0.3,0.3-0.7,0-0.9l-0.4-0.4c-0.1-0.1-0.3-0.2-0.5-0.2
			c-0.2,0-0.3,0.1-0.5,0.2l-0.3,0.3c0,0,0,0-0.1,0c0,0,0,0-0.1,0c-0.1-0.1-0.2-0.1-0.3-0.1c-0.1,0-0.1-0.1-0.1-0.1v-0.4
			c0-0.4-0.3-0.7-0.7-0.7h-0.6c-0.4,0-0.7,0.3-0.7,0.7v0.4c0,0,0,0.1-0.1,0.1c-0.1,0-0.2,0.1-0.3,0.1c0,0,0,0-0.1,0c0,0-0.1,0-0.1,0
			l-0.3-0.3c-0.1-0.1-0.3-0.2-0.5-0.2c-0.2,0-0.3,0.1-0.5,0.2l-0.4,0.4c-0.3,0.3-0.3,0.7,0,0.9l0.3,0.3c0,0,0,0.1,0,0.1
			c-0.1,0.1-0.1,0.2-0.1,0.3c0,0.1-0.1,0.1-0.1,0.1h-0.4c-0.4,0-0.7,0.3-0.7,0.7v0.6c0,0.4,0.3,0.7,0.7,0.7h0.4c0,0,0.1,0,0.1,0.1
			c0,0.1,0.1,0.2,0.1,0.3c0,0,0,0.1,0,0.1l-0.3,0.3c-0.1,0.1-0.2,0.3-0.2,0.5c0,0.2,0.1,0.3,0.2,0.5l0.4,0.4
			c0.1,0.1,0.3,0.2,0.5,0.2c0.2,0,0.3-0.1,0.5-0.2l0.3-0.3c0,0,0,0,0.1,0c0,0,0,0,0.1,0c0.1,0.1,0.2,0.1,0.3,0.1
			c0.1,0,0.1,0.1,0.1,0.1v0.4c0,0.4,0.3,0.7,0.7,0.7h0.6c0.4,0,0.7-0.3,0.7-0.7v-0.4c0,0,0-0.1,0.1-0.1c0.1,0,0.2-0.1,0.3-0.1
			c0,0,0,0,0.1,0c0,0,0.1,0,0.1,0l0.3,0.3c0.1,0.1,0.3,0.2,0.5,0.2c0.2,0,0.3-0.1,0.5-0.2l0.4-0.4c0.3-0.3,0.3-0.7,0-0.9l-0.3-0.3
			c0,0,0-0.1,0-0.1C277.4,122.3,277.4,122.1,277.4,122L277.4,122z M275.7,121c0,0.7-0.6,1.3-1.3,1.3c-0.7,0-1.3-0.6-1.3-1.3
			c0-0.7,0.6-1.3,1.3-1.3C275.1,119.7,275.7,120.3,275.7,121L275.7,121z M275.7,121"/>
	</g>
	<g>
		<defs>
			<path id="SVGID_3_" d="M237,189.2v-10h-9.7v8.7L237,189.2z M227.3,177.3h9.7v-9.8l-9.7,1.3V177.3z M225.4,177.3V169l-9.2,1.2v7.1
				H225.4z M225.4,187.7v-8.4h-9.1v7.3L225.4,187.7z"/>
		</defs>
		<use xlink:href="#SVGID_3_"  style="overflow:visible;fill:#FFFFFF;"/>
		<clipPath id="SVGID_4_">
			<use xlink:href="#SVGID_3_"  style="overflow:visible;"/>
		</clipPath>
		<g class="st20">
			<rect x="213.7" y="165" class="st3" width="25.7" height="26.6"/>
		</g>
	</g>
	<g>
		<path class="st13" d="M159.6,184.1c0.9,0.6,2.3,1.1,3.7,1.1c2.1,0,3.4-1.1,3.4-2.8c0-1.5-0.9-2.4-3-3.2c-2.6-0.9-4.3-2.3-4.3-4.6
			c0-2.5,2.1-4.4,5.2-4.4c1.7,0,2.9,0.4,3.6,0.8l-0.6,1.7c-0.5-0.3-1.6-0.8-3.1-0.8c-2.2,0-3,1.3-3,2.4c0,1.5,1,2.3,3.2,3.1
			c2.7,1.1,4.1,2.4,4.1,4.8c0,2.5-1.8,4.7-5.7,4.7c-1.6,0-3.3-0.5-4.1-1L159.6,184.1z"/>
		<path class="st13" d="M174.4,181.6l-1.7,5.1h-2.2l5.5-16.2h2.5l5.5,16.2h-2.2l-1.7-5.1H174.4z M179.7,179.9l-1.6-4.7
			c-0.4-1.1-0.6-2-0.8-3h0c-0.2,1-0.5,1.9-0.8,2.9l-1.6,4.7H179.7z"/>
		<path class="st13" d="M186.4,170.7c1-0.2,2.3-0.3,4-0.3c2.1,0,3.6,0.5,4.5,1.3c0.9,0.8,1.4,1.9,1.4,3.4c0,1.5-0.4,2.6-1.2,3.5
			c-1.1,1.2-2.9,1.8-4.9,1.8c-0.6,0-1.2,0-1.7-0.1v6.5h-2.1V170.7z M188.5,178.5c0.5,0.1,1,0.2,1.7,0.2c2.5,0,4.1-1.2,4.1-3.5
			c0-2.1-1.5-3.2-3.8-3.2c-0.9,0-1.6,0.1-2,0.2V178.5z"/>
	</g>
	<path class="st13" d="M377.5,79"/>
	<polyline class="st21" points="196.4,123.3 201.5,128.1 196.2,132.7 	"/>
	<polyline class="st21" points="251.7,123.3 256.8,128 251.5,132.7 	"/>
	<polyline class="st21" points="268.7,173.5 263.6,178.3 268.9,182.9 	"/>
	<polyline class="st21" points="286,155 281.1,160.1 276.6,154.8 	"/>
	<g>
		<defs>
			<rect id="SVGID_5_" x="373.2" y="235" width="153" height="107.1"/>
		</defs>
		<clipPath id="SVGID_6_">
			<use xlink:href="#SVGID_5_"  style="overflow:visible;"/>
		</clipPath>
		<path class="st22" d="M485.6,275.6c0-1,0.8-1.8,1.8-1.8h4.1c1,0,1.8,0.8,1.8,1.8l0,0c0,1-0.8,1.8-1.8,1.8h-4.1
			C486.5,277.4,485.6,276.6,485.6,275.6L485.6,275.6z"/>
		<polygon class="st23" points="382.4,250.9 382.4,259.1 385.4,259.1 385.8,260.8 387.2,261 387.4,262.2 389.4,262.2 391.1,262.2 
			391.4,260.9 392.8,260.9 393.1,259.4 394.1,259 395.9,258.8 396.2,251.8 395.6,250.7 		"/>
		<circle class="st23" cx="513.1" cy="267.8" r="2.3"/>
		<rect x="413.7" y="320.6" class="st23" width="17.2" height="6.8"/>
		<polygon class="st23" points="448.5,253 448.5,256.9 452,259 464.3,259 467.7,256.6 467.5,253 		"/>
		<g class="st24">
			<path class="st25" d="M464.5,259.6h-12.7c-0.1,0-0.3-0.1-0.4-0.2c-1-1-2.3-2-2.8-2c-0.3,0-0.5-0.2-0.5-0.5V253
				c0-0.3,0.2-0.5,0.5-0.5h19.1c0.3,0,0.5,0.2,0.5,0.5v3.9c0,0.3-0.2,0.5-0.5,0.5c-0.5,0-1.8,1-2.8,2
				C464.7,259.5,464.6,259.6,464.5,259.6z M452,258.5h12.3c0.6-0.6,1.8-1.7,2.9-2v-2.9h-18v2.9C450.1,256.8,451.4,257.9,452,258.5z"
				/>
		</g>
		<g class="st24">
			<circle class="st25" cx="451.5" cy="255.5" r="0.5"/>
		</g>
		<g class="st24">
			<circle class="st25" cx="452.6" cy="255.5" r="0.5"/>
		</g>
		<g class="st24">
			<circle class="st25" cx="453.7" cy="255.5" r="0.5"/>
		</g>
		<g class="st24">
			<circle class="st25" cx="454.8" cy="255.5" r="0.5"/>
		</g>
		<g class="st24">
			<circle class="st25" cx="455.9" cy="255.5" r="0.5"/>
		</g>
		<g class="st24">
			<circle class="st25" cx="457" cy="255.5" r="0.5"/>
		</g>
		<g class="st24">
			<circle class="st25" cx="458.1" cy="255.5" r="0.5"/>
		</g>
		<g class="st24">
			<circle class="st25" cx="459.2" cy="255.5" r="0.5"/>
		</g>
		<g class="st24">
			<circle class="st25" cx="460.2" cy="255.5" r="0.5"/>
		</g>
		<g class="st24">
			<circle class="st25" cx="461.3" cy="255.5" r="0.5"/>
		</g>
		<g class="st24">
			<circle class="st25" cx="462.4" cy="255.5" r="0.5"/>
		</g>
		<g class="st24">
			<circle class="st25" cx="463.5" cy="255.5" r="0.5"/>
		</g>
		<g class="st24">
			<circle class="st25" cx="464.6" cy="255.5" r="0.5"/>
		</g>
		<g class="st24">
			<circle class="st25" cx="511.2" cy="267.8" r="0.5"/>
		</g>
		<g class="st24">
			<circle class="st25" cx="515" cy="267.8" r="0.5"/>
		</g>
		<polygon class="st26" points="389.4,288.8 382.2,295.8 385,305.2 389.4,305.2 393.7,305.2 396.6,295.8 		"/>
		<path class="st22" d="M420.5,234.3c0-0.9,0.7-1.7,1.7-1.7l0,0c0.9,0,1.7,0.7,1.7,1.7v62.5c0,0.9-0.7,1.7-1.7,1.7l0,0
			c-0.9,0-1.7-0.7-1.7-1.7V234.3z"/>
		<path class="st22" d="M391,345.6c0,0.9-0.7,1.7-1.7,1.7l0,0c-0.9,0-1.7-0.7-1.7-1.7v-62.5c0-0.9,0.7-1.7,1.7-1.7l0,0
			c0.9,0,1.7,0.7,1.7,1.7V345.6z"/>
		<rect x="414.3" y="291.3" class="st27" width="15.9" height="15.9"/>
		<g class="st24">
			<polygon class="st28" points="423.4,294 423.6,294 423.6,296.8 421.1,296.8 421.1,299.2 423.6,299.2 423.6,301.9 421.1,301.9 
				421.1,304.8 423.6,304.8 423.6,307.2 423.4,307.2 423.4,305 420.9,305 420.9,301.7 423.4,301.7 423.4,299.4 420.9,299.4 
				420.9,296.6 423.4,296.6 			"/>
		</g>
		<path class="st22" d="M416.8,268.1c0-1.4,1.1-2.5,2.5-2.5h5.8c1.4,0,2.5,1.1,2.5,2.5l0,0c0,1.4-1.1,2.5-2.5,2.5h-5.8
			C417.9,270.6,416.8,269.5,416.8,268.1L416.8,268.1z"/>
		<polygon class="st23" points="395.1,276.5 395.1,277.6 394,277.6 394,276.5 393,276.5 393,277.6 392,277.6 392,276.5 390.9,276.5 
			390.9,277.6 389.9,277.6 389.9,276.5 388.9,276.5 388.9,277.6 387.8,277.6 387.8,276.5 386.8,276.5 386.8,277.6 385.7,277.6 
			385.7,276.5 384.7,276.5 384.7,277.6 383.7,277.6 383.7,276.5 382.5,276.5 382.5,294.6 396.2,294.6 396.2,276.5 		"/>
		<path class="st26" d="M422.2,294.1h10.2v-12.3v-1.4v-6.9c0-3-2.4-5.4-5.4-5.4h-9.5c-3,0-5.4,2.4-5.4,5.4v6.9v1.4v12.3H422.2z"/>
		<g class="st24">
			<rect x="416.3" y="298.7" class="st28" width="3.1" height="3.1"/>
			<rect x="425" y="298.7" class="st28" width="3.1" height="3.1"/>
		</g>
		<path class="st22" d="M459.5,345.2c0,0.9-0.7,1.7-1.7,1.7l0,0c-0.9,0-1.7-0.7-1.7-1.7v-62.5c0-0.9,0.7-1.7,1.7-1.7l0,0
			c0.9,0,1.7,0.7,1.7,1.7V345.2z"/>
		<rect x="449.9" y="275.4" class="st27" width="15.9" height="12.8"/>
		<g class="st24">
			<polygon class="st28" points="456.8,286.9 456.6,286.9 456.6,284.5 458.8,284.5 458.8,282.3 456.6,282.3 456.6,280 458.8,280 
				458.8,277.4 456.6,277.4 456.6,275.3 456.8,275.3 456.8,277.3 459,277.3 459,280.1 456.8,280.1 456.8,282.1 459,282.1 459,284.7 
				456.8,284.7 			"/>
		</g>
		<g class="st24">
			<rect x="463.2" y="275.4" class="st28" width="2.5" height="15.2"/>
			<rect x="449.9" y="275.4" class="st28" width="2.5" height="15.2"/>
		</g>
		<g class="st24">
			<rect x="460" y="279.7" class="st28" width="2.3" height="2.3"/>
			<rect x="453.3" y="279.7" class="st28" width="2.3" height="2.3"/>
		</g>
		<path class="st22" d="M461.3,312.3c0,0.9-0.7,1.6-1.6,1.6h-3.8c-0.9,0-1.6-0.7-1.6-1.6l0,0c0-0.9,0.7-1.6,1.6-1.6h3.8
			C460.6,310.7,461.3,311.4,461.3,312.3L461.3,312.3z"/>
		<path class="st22" d="M487.9,234.4c0-0.9,0.7-1.7,1.7-1.7l0,0c0.9,0,1.7,0.7,1.7,1.7V297c0,0.9-0.7,1.7-1.7,1.7l0,0
			c-0.9,0-1.7-0.7-1.7-1.7V234.4z"/>
		<path class="st22" d="M514.8,357c0,0.9-0.7,1.7-1.7,1.7l0,0c-0.9,0-1.7-0.7-1.7-1.7v-62.5c0-0.9,0.7-1.7,1.7-1.7l0,0
			c0.9,0,1.7,0.7,1.7,1.7V357z"/>
		<polygon class="st27" points="514.9,285.4 513.1,284.4 511.2,285.4 511.2,286.5 512.4,288.8 511.2,288.8 511.2,305.7 514.9,305.7 
			514.9,288.8 513.8,288.8 514.9,286.5 		"/>
		<rect x="484.1" y="289.7" class="st27" width="10.8" height="12.8"/>
		<g class="st24">
			<polygon class="st28" points="490.5,290.9 490.7,290.9 490.7,293.4 488.5,293.4 488.5,295.6 490.7,295.6 490.7,297.9 
				488.5,297.9 488.5,300.5 490.7,300.5 490.7,302.6 490.5,302.6 490.5,300.6 488.3,300.6 488.3,297.7 490.5,297.7 490.5,295.8 
				488.3,295.8 488.3,293.2 490.5,293.2 			"/>
		</g>
		<g class="st24">
			<rect x="484.1" y="287.3" class="st28" width="1.7" height="15.2"/>
			<rect x="493.2" y="287.3" class="st28" width="1.7" height="15.2"/>
		</g>
		<path class="st26" d="M489.5,294.3h7.3v-8.8v-1v-5c0-2.2-1.7-3.9-3.9-3.9h-6.8c-2.2,0-3.9,1.7-3.9,3.9v5v1v8.8H489.5z"/>
		<path class="st22" d="M457.8,285.4h-10.2v3.9c0.2,5.4,1.3,15.1,6.4,22.1h7.6c5.1-7,6.2-16.7,6.4-22.1v-3.9H457.8z"/>
		<path class="st22" d="M517.7,320.1c0,0.6-0.5,1.2-1.2,1.2h-6.9c-0.6,0-1.2-0.5-1.2-1.2l0,0c0-0.6,0.5-1.2,1.2-1.2h6.9
			C517.2,318.9,517.7,319.4,517.7,320.1L517.7,320.1z"/>
		<path class="st26" d="M517,322.4c0,0.6-0.5,1.2-1.2,1.2h-5.5c-0.6,0-1.2-0.5-1.2-1.2l0,0c0-0.6,0.5-1.2,1.2-1.2h5.5
			C516.5,321.2,517,321.7,517,322.4L517,322.4z"/>
		<path class="st22" d="M516.3,324.7c0,0.6-0.5,1.2-1.2,1.2H511c-0.6,0-1.2-0.5-1.2-1.2l0,0c0-0.6,0.5-1.2,1.2-1.2h4.1
			C515.8,323.5,516.3,324.1,516.3,324.7L516.3,324.7z"/>
		<path class="st22" d="M508.8,297.2v4.3v1.9v14.4c0,2.3,1.9,0.1,4.3,0.1c2.3,0,4.3,2.2,4.3-0.1v-14.3v-1.9v-4.3H508.8z"/>
		<rect x="511.2" y="294.7" class="st23" width="3.7" height="0.9"/>
		<rect x="511.2" y="292.6" class="st23" width="3.7" height="0.9"/>
		<rect x="511.2" y="290.6" class="st23" width="3.7" height="0.9"/>
		<path class="st22" d="M397.8,294.7c0,0.6-0.5,1.1-1.1,1.1h-14.4c-0.6,0-1.1-0.5-1.1-1.1v-7.3c0-0.6,0.5-1.1,1.1-1.1h14.4
			c0.6,0,1.1,0.5,1.1,1.1V294.7z"/>
		<path class="st22" d="M395.9,305.2c0,0.8-0.6,1.4-1.4,1.4h-10.2c-0.8,0-1.4-0.6-1.4-1.4l0,0c0-0.8,0.6-1.4,1.4-1.4h10.2
			C395.3,303.8,395.9,304.4,395.9,305.2L395.9,305.2z"/>
		<path class="st22" d="M395.9,301.8c0,0.3-0.3,0.6-0.6,0.6h-11.9c-0.3,0-0.6-0.3-0.6-0.6l0,0c0-0.3,0.3-0.6,0.6-0.6h11.9
			C395.6,301.2,395.9,301.5,395.9,301.8L395.9,301.8z"/>
		<path class="st22" d="M396.4,299.6c0,0.3-0.3,0.6-0.6,0.6h-12.9c-0.3,0-0.6-0.3-0.6-0.6l0,0c0-0.3,0.3-0.6,0.6-0.6h12.9
			C396.2,299.1,396.4,299.3,396.4,299.6L396.4,299.6z"/>
		<path class="st22" d="M396.9,297.6c0,0.3-0.3,0.6-0.6,0.6h-14c-0.3,0-0.6-0.3-0.6-0.6l0,0c0-0.3,0.3-0.6,0.6-0.6h14
			C396.7,297,396.9,297.3,396.9,297.6L396.9,297.6z"/>
		<rect x="383.7" y="277.6" class="st27" width="1.1" height="5.3"/>
		<rect x="385.7" y="277.6" class="st27" width="1.1" height="5.3"/>
		<rect x="387.8" y="277.6" class="st27" width="1.1" height="5.3"/>
		<rect x="389.9" y="277.6" class="st27" width="1.1" height="5.3"/>
		<rect x="392" y="277.6" class="st27" width="1.1" height="5.3"/>
		<rect x="394.1" y="277.6" class="st27" width="1.1" height="5.3"/>
		<g class="st24">
			<path class="st25" d="M430.9,327.8h-17.3c-0.3,0-0.5-0.2-0.5-0.5v-6.8c0-0.3,0.2-0.5,0.5-0.5h17.3c0.3,0,0.5,0.2,0.5,0.5v6.8
				C431.4,327.6,431.1,327.8,430.9,327.8z M414,326.8h16.3v-5.7H414V326.8z"/>
		</g>
		<rect x="415.1" y="322.3" class="st27" width="14.1" height="1.9"/>
		<g class="st24">
			<polygon class="st25" points="418.3,325.9 416,325.9 417.3,325.4 419.6,325.4 			"/>
			<polygon class="st25" points="428.4,325.9 426.1,325.9 424.8,325.4 427.2,325.4 			"/>
		</g>
		<g class="st24">
			<polygon class="st28" points="483.7,321.3 495.6,321.3 493.1,326.1 485.7,326 			"/>
			<g>
				<circle class="st25" cx="493.9" cy="322" r="0.5"/>
			</g>
			<g>
				<circle class="st25" cx="492.8" cy="322" r="0.5"/>
			</g>
			<g>
				<circle class="st25" cx="491.7" cy="322" r="0.5"/>
			</g>
			<g>
				<circle class="st25" cx="490.6" cy="322" r="0.5"/>
			</g>
			<g>
				<circle class="st25" cx="489.5" cy="322" r="0.5"/>
			</g>
			<g>
				<circle class="st25" cx="488.4" cy="322" r="0.5"/>
			</g>
			<g>
				<circle class="st25" cx="487.3" cy="322" r="0.5"/>
			</g>
			<g>
				<circle class="st25" cx="486.3" cy="322" r="0.5"/>
			</g>
			<g>
				<circle class="st25" cx="485.2" cy="322" r="0.5"/>
			</g>
			<path class="st25" d="M485.8,325.5v-1l-1.7-2.7h10.8l-1.7,2.7v1H485.8 M485.8,326.6h7.4c0.6,0,1-0.5,1-1v-0.7l1.6-2.5
				c0.2-0.3,0.2-0.7,0-1c-0.2-0.3-0.5-0.5-0.9-0.5h-10.8c-0.4,0-0.7,0.2-0.9,0.5c-0.2,0.3-0.2,0.7,0,1l1.6,2.5v0.7
				C484.8,326.1,485.3,326.6,485.8,326.6L485.8,326.6z"/>
		</g>
		<g class="st24">
			<path class="st25" d="M513.1,266c1,0,1.8,0.8,1.8,1.8c0,1-0.8,1.8-1.8,1.8c-1,0-1.8-0.8-1.8-1.8C511.2,266.8,512.1,266,513.1,266
				 M513.1,260c-4.3,0-7.8,3.5-7.8,7.8c0,4.3,3.5,7.8,7.8,7.8s7.8-3.5,7.8-7.8C520.9,263.5,517.4,260,513.1,260L513.1,260z"/>
		</g>
		<g class="st24">
			<path class="st25" d="M391.4,262.7h-4.2c-0.3,0-0.5-0.2-0.5-0.5v-0.8h-1.1c-0.3,0-0.5-0.2-0.5-0.5v-1.3h-2.7
				c-0.3,0-0.5-0.2-0.5-0.5v-8.3c0-0.3,0.2-0.5,0.5-0.5h13.9c0.3,0,0.5,0.2,0.5,0.5v8.3c0,0.3-0.2,0.5-0.5,0.5h-2.7v1.3
				c0,0.3-0.2,0.5-0.5,0.5h-1.1v0.8C391.9,262.5,391.6,262.7,391.4,262.7z M387.7,261.7h3.2v-0.8c0-0.3,0.2-0.5,0.5-0.5h1.1v-1.3
				c0-0.3,0.2-0.5,0.5-0.5h2.7v-7.3h-12.8v7.3h2.7c0.3,0,0.5,0.2,0.5,0.5v1.3h1.1c0.3,0,0.5,0.2,0.5,0.5V261.7z"/>
		</g>
		<path class="st27" d="M384.7,253.3c0,0.3-0.2,0.5-0.5,0.5l0,0c-0.3,0-0.5-0.2-0.5-0.5v-1.9c0-0.3,0.2-0.5,0.5-0.5l0,0
			c0.3,0,0.5,0.2,0.5,0.5V253.3z"/>
		<path class="st27" d="M386.8,253.3c0,0.3-0.2,0.5-0.5,0.5l0,0c-0.3,0-0.5-0.2-0.5-0.5v-1.9c0-0.3,0.2-0.5,0.5-0.5l0,0
			c0.3,0,0.5,0.2,0.5,0.5V253.3z"/>
		<path class="st27" d="M389,253.3c0,0.3-0.2,0.5-0.5,0.5l0,0c-0.3,0-0.5-0.2-0.5-0.5v-1.9c0-0.3,0.2-0.5,0.5-0.5l0,0
			c0.3,0,0.5,0.2,0.5,0.5V253.3z"/>
		<path class="st27" d="M390.9,253.3c0,0.3-0.2,0.5-0.5,0.5l0,0c-0.3,0-0.5-0.2-0.5-0.5v-1.9c0-0.3,0.2-0.5,0.5-0.5l0,0
			c0.3,0,0.5,0.2,0.5,0.5V253.3z"/>
		<path class="st27" d="M393,253.3c0,0.3-0.2,0.5-0.5,0.5l0,0c-0.3,0-0.5-0.2-0.5-0.5v-1.9c0-0.3,0.2-0.5,0.5-0.5l0,0
			c0.3,0,0.5,0.2,0.5,0.5V253.3z"/>
		<path class="st27" d="M395.1,253.3c0,0.3-0.2,0.5-0.5,0.5l0,0c-0.3,0-0.5-0.2-0.5-0.5v-1.9c0-0.3,0.2-0.5,0.5-0.5l0,0
			c0.3,0,0.5,0.2,0.5,0.5V253.3z"/>
		<polygon class="st26" points="387.7,306.7 391,306.7 391,311.7 		"/>
		<polygon class="st26" points="456.2,313.9 459.5,313.9 459.5,319 		"/>
		<polygon class="st26" points="511.4,325.9 514.8,325.9 514.8,330.9 		"/>
		<polygon class="st26" points="423.9,265.5 420.5,260.1 420.5,265.5 		"/>
		<polygon class="st26" points="491.2,273.8 487.9,268.4 487.9,273.8 		"/>
		<path class="st26" d="M518.4,317.8c0,0.6-0.5,1.2-1.2,1.2H509c-0.6,0-1.2-0.5-1.2-1.2l0,0c0-0.6,0.5-1.2,1.2-1.2h8.3
			C517.9,316.6,518.4,317.1,518.4,317.8L518.4,317.8z"/>
	</g>
	
		<rect x="244.1" y="409.7" transform="matrix(0.2189 -0.9757 0.9757 0.2189 -205.9834 562.4418)" class="st29" width="8.4" height="0.4"/>
	<path class="st30" d="M251.4,401c1.1,0.7,2,1.7,2.2,2.9c0.2,1.2,0.1,1.9-0.4,3c-0.4,0.8-1.1,1.4-1.9,1.7c-1.1,0.3-3.5,0.4-4.2-2.1
		c0.3-0.4,1-1.3,1-1.3s0.6,1.2,1,1.4c1.8,0.9,2.6-1,2.8-1.3c0.2-0.5,0.6-2.1-0.9-3.4C251.1,401.7,251.3,401.3,251.4,401z"/>
	<polygon class="st29" points="248.1,405.3 246.6,405.1 245.6,406.2 247.1,406.6 	"/>
	<path class="st31" d="M251.3,408.6c-1.1,0.3-3.5,0.4-4.2-2.1l-1.5-0.3c0,0,0,0.5,0.7,1.6c0.8,1.1,2,1.5,3.1,1.4
		c0.7-0.1,2.3-0.5,2.8-1.1c0,0-0.1,0-0.1,0.1C251.9,408.4,251.6,408.5,251.3,408.6z"/>
	<path class="st31" d="M249.1,406.7c1.8,0.9,2.6-1,2.8-1.3c0.2-0.5,0.6-2.1-0.9-3.4c0,0,0,0,0,0l-0.9-0.2l-0.4,0.7
		c0.5-0.3,0.9,0.7,0.9,1.1c0,0.6,0.2,1-0.6,2c-0.3,0.4-1.4,0.7-1.7,0.2l0,0C248.5,406.1,248.9,406.6,249.1,406.7z"/>
	<path class="st32" d="M259.2,414c0-2.1-1.5-3.7-3.3-3.7c-0.2,0-0.5,0-0.7,0.1l0,0l-0.3,0.1c-0.1,0-0.2,0.1-0.4,0.1l-11.9,4.9
		l1.9,7.2l12-4.9C258,417.3,259.2,415.8,259.2,414z"/>
	<ellipse class="st33" cx="243.4" cy="419" rx="3.3" ry="3.7"/>
	<ellipse class="st32" cx="243.4" cy="419" rx="1" ry="1.2"/>
	<polygon class="st29" points="253.7,419 250.8,406.7 249.1,406 249.3,405.6 251.2,406.4 254.2,418.9 	"/>
	<path class="st30" d="M203.8,438.5c0,0-1.7-0.6-3.9-1.3c-0.5-0.2-1.1-0.4-1.1-0.9c0-0.6,1-0.9,1.2-1c0,0,1.6-0.5,2.4-0.8l0.1,0
		c0.3-0.1,1-0.4,1-0.5c0,0,0-0.2-0.9-0.5c-0.6-0.2-2-0.7-3.6-1.3c-3.7-1.4-8.8-3.3-9.8-3.8c-0.7-0.4-1.1-1.2-0.8-1.9
		c0.3-0.6,1.2-1,2.8-0.2c1.6,0.8,3.8,1.7,5.7,2.5c1.2,0.5,2.4,1,3.2,1.4c0.9,0.4,2,0.3,2.4,0c0.1-0.1,0.2-0.2,0.2-0.3
		c0-0.1-0.1-0.4-1-0.8c-1.1-0.5-2.2-0.9-3.2-1.3c-1.3-0.5-2.5-1-3.5-1.5c-0.9-0.4-1-1.2-0.8-1.7c0.4-0.8,1.6-1.2,3.2-0.5
		c2.6,1.2,6.9,3.1,8.4,3.7c1.5,0.7,2.5,0.5,2.6,0.2c0.1-0.2-0.2-0.6-1.1-1.1c-1-0.5-1.9-0.9-2.8-1.2c-1-0.4-1.9-0.8-2.7-1.2
		c-0.6-0.3-0.8-0.6-0.8-0.9c0-0.6,0.9-0.9,1-1c0,0,0.7-0.3,1.9-0.8c1.1-0.5,1.1-0.7,1.1-0.7c0,0,0-0.1-0.5-0.3
		c-0.5-0.2-0.9-0.3-1.4-0.4c-0.7-0.2-1.6-0.4-3-0.9c-0.9-0.3-1.3-0.7-1.3-1.2c0-0.8,1.3-1.5,2.3-1.9c0.6-0.2,2.3-0.9,4.5-1.7
		c4.8-1.8,12-4.6,13-5.1c1.3-0.6,2.5-1.3,2.5-1.9c0-0.4-0.6-0.9-1.8-1.4c-1.6-0.7-4.5-1.7-7.3-2.6c-2.9-1-5.7-2-7.1-2.6
		c-0.8-0.4-1.2-0.7-1.2-1.2c0-0.9,1.7-1.4,2-1.5c0,0,1.8-0.8,3.1-1.4c0.9-0.4,1.4-0.9,1.4-1.3c0-0.3-0.4-0.7-1.1-1
		c-2.1-0.9-18.7-7.5-18.9-7.6l0.2-0.4c0.2,0.1,16.8,6.6,18.9,7.6c0.9,0.4,1.3,0.9,1.3,1.4c0,0.9-1.2,1.5-1.7,1.7
		c-1.3,0.6-3.1,1.4-3.1,1.4c-0.7,0.2-1.7,0.7-1.8,1.1c0,0.2,0.3,0.5,0.9,0.8c1.4,0.6,4.2,1.5,7.1,2.6c2.8,1,5.7,2,7.3,2.6
		c1.4,0.6,2.1,1.1,2.1,1.8c0,0.8-1,1.5-2.8,2.4c-1,0.5-7.9,3.2-13,5.1c-2.2,0.8-3.9,1.5-4.5,1.7c-1.3,0.5-2.1,1.1-2.1,1.5
		c0,0.3,0.4,0.6,1,0.8c1.3,0.5,2.2,0.7,2.9,0.9c0.5,0.1,0.9,0.2,1.4,0.4c0.2,0.1,0.8,0.3,0.8,0.7c0,0.4-0.4,0.7-1.4,1.2
		c-1.2,0.5-1.9,0.8-1.9,0.8c-0.3,0.1-0.7,0.4-0.8,0.6c0,0.1,0.2,0.3,0.5,0.5c0.8,0.4,1.7,0.8,2.7,1.2c0.9,0.4,1.9,0.8,2.9,1.2
		c1.3,0.6,1.6,1.3,1.4,1.7c-0.3,0.6-1.3,0.8-3.2,0c-1.4-0.6-5.7-2.5-8.4-3.7c-1.4-0.7-2.4-0.2-2.6,0.3c-0.2,0.4,0,0.8,0.6,1.1
		c1,0.5,2.2,1,3.5,1.5c1.1,0.4,2.1,0.8,3.3,1.3c0.8,0.3,1.2,0.7,1.2,1.1c0,0.3-0.1,0.5-0.4,0.7c-0.5,0.4-1.7,0.6-2.9,0
		c-0.8-0.4-2-0.8-3.2-1.4c-1.9-0.8-4.1-1.7-5.7-2.5c-1.3-0.6-2-0.4-2.2,0c-0.2,0.4,0,1,0.6,1.3c1,0.5,6,2.4,9.8,3.8
		c1.7,0.6,3,1.1,3.6,1.3c0.8,0.3,1.1,0.6,1.1,0.9c0,0.5-0.6,0.7-1.3,0.9l-0.1,0c-0.9,0.3-2.4,0.8-2.5,0.8c-0.4,0.1-0.9,0.4-0.9,0.6
		c0,0,0,0.2,0.8,0.5c2.2,0.7,3.9,1.3,3.9,1.3L203.8,438.5z"/>
	<rect x="228.5" y="476.3" class="st30" width="0.9" height="5"/>
	<rect x="237.3" y="472.5" class="st30" width="0.9" height="5"/>
	<rect x="246.5" y="468.6" class="st30" width="0.9" height="5"/>
	<rect x="215.6" y="475.4" class="st30" width="0.9" height="1.6"/>
	<path class="st31" d="M197.8,402c0,9.9-18.8,17.3-18.8,17.3h-3.3c0,0-19.4-6.8-19.4-17.3c0-5.4,9.3-9.9,20.7-9.9
		C188.5,392.2,197.8,396.6,197.8,402z"/>
	<g>
		<polygon class="st30" points="300.6,446.5 292.3,449.9 292.3,459.7 300.6,456.3 		"/>
		<polygon class="st29" points="283.8,446.7 292.3,449.9 300.7,446.4 292.2,443.2 		"/>
	</g>
	<polygon class="st32" points="263.8,426.4 235.6,437.8 235.6,460.4 263.8,449.1 	"/>
	<path class="st30" d="M221.9,380.9V392c0,0.4-0.3,0.7-0.7,0.7c-0.4,0-0.7-0.3-0.7-0.7v-11.1H221.9z"/>
	<polygon class="st30" points="292.3,437.1 264.2,448.4 264.2,471.1 292.3,459.8 	"/>
	<polygon class="st29" points="235.6,437.8 264.2,448.4 292.3,437.1 263.8,426 	"/>
	<path class="st31" d="M235.6,437.8v22.7l4.6,1.7c0-2.2,0.1-6.6,0.1-10.3c0-5.1,4.2-6.7,6.2-6c2,0.7,3.2,1.2,5.6,2.1
		c2.4,1,6.5,4.4,6.5,11.5c0,3.6,0,7.4,0,9.5l5.6,2.1v-22.7L235.6,437.8z"/>
	<ellipse class="st30" cx="264.2" cy="437" rx="3.7" ry="1.9"/>
	<path class="st32" d="M267.1,437.1l-0.4-5.2h-4.8l-0.4,4.9c0,0,0,0.1,0,0.1c0,0,0,0,0,0.1l0,0.1h0c0.2,0.5,1.4,0.9,2.8,0.9
		c1.4,0,2.6-0.4,2.8-0.9H267.1z"/>
	<g>
		<path class="st29" d="M211.6,468.7c-3,1.1-2.8,3.8-1.2,4.5c1.6,0.7,12.3,4.4,12.3,4.4s0.6,0.8,4.1-0.5c3.5-1.3,22.1-9.3,24.1-10.4
			c1.7-1,2.1-1.4,2.1-2.9c0-2-2.7-2.8-2.7-2.8s-5.8-2-8.4-3c-2.6-1-4.2,0.2-4.2,0.2S214.6,467.6,211.6,468.7z"/>
		<g>
			<path class="st34" d="M224.2,473.5c-3,1.1-2.4,4.7,0.3,4.4c0.6-0.1,1.4-0.3,2.4-0.7c3.5-1.3,22.1-9.3,24.1-10.4
				c1.7-0.9,2.1-1.4,2.1-2.9c0-2-1.7-1.8-3.2-1.2C248.5,463.3,227.1,472.4,224.2,473.5z"/>
			<path class="st30" d="M251.7,462.6c0.8,0,1.1,0.4,1.1,1.3c0,1.3-0.3,1.7-2,2.6c-2,1.1-20.8,9.2-24.1,10.4c-1,0.4-1.7,0.6-2.3,0.7
				c-0.1,0-0.2,0-0.3,0c-1,0-1.5-0.7-1.6-1.3c-0.1-0.5,0-1,0.3-1.4c0.3-0.5,0.8-0.9,1.5-1.1c2-0.7,12.4-5.1,19.2-8
				c3.4-1.4,6.1-2.6,6.6-2.8C250.7,462.7,251.3,462.6,251.7,462.6 M251.7,462.3c-0.5,0-1.2,0.2-1.8,0.4c-1.5,0.6-22.8,9.7-25.8,10.8
				c-2.8,1.1-2.4,4.4,0,4.4c0.1,0,0.2,0,0.3,0c0.6-0.1,1.4-0.3,2.4-0.7c3.5-1.3,22.1-9.3,24.1-10.4c1.7-0.9,2.1-1.4,2.1-2.9
				C253.1,462.7,252.5,462.3,251.7,462.3L251.7,462.3z"/>
		</g>
	</g>
	<g>
		<path class="st35" d="M220.3,475.5C220.3,475.5,220.3,475.5,220.3,475.5l-9.6-3.5c-0.1,0-0.2-0.2-0.1-0.3c0-0.1,0.2-0.2,0.3-0.1
			l9.5,3.5c0.1,0,0.2,0.2,0.1,0.3C220.5,475.4,220.4,475.5,220.3,475.5z"/>
		<path class="st35" d="M222.2,473.2C222.2,473.2,222.2,473.2,222.2,473.2l-9.6-3.5c-0.1,0-0.2-0.2-0.1-0.3c0-0.1,0.2-0.2,0.3-0.1
			l9.5,3.5c0.1,0,0.2,0.2,0.1,0.3C222.4,473.1,222.3,473.2,222.2,473.2z"/>
		<path class="st35" d="M225.5,471.7C225.5,471.7,225.4,471.7,225.5,471.7l-9.6-3.5c-0.1,0-0.2-0.2-0.1-0.3c0-0.1,0.2-0.2,0.3-0.1
			l9.5,3.5c0.1,0,0.2,0.2,0.1,0.3C225.7,471.7,225.6,471.7,225.5,471.7z"/>
		<path class="st35" d="M228.5,470.4C228.4,470.4,228.4,470.4,228.5,470.4l-9.6-3.5c-0.1,0-0.2-0.2-0.1-0.3c0-0.1,0.2-0.2,0.3-0.1
			l9.5,3.5c0.1,0,0.2,0.2,0.1,0.3C228.6,470.4,228.6,470.4,228.5,470.4z"/>
		<path class="st35" d="M231.9,469.3C231.8,469.3,231.8,469.3,231.9,469.3l-9.6-3.5c-0.1,0-0.2-0.2-0.1-0.3c0-0.1,0.2-0.2,0.3-0.1
			l9.5,3.5c0.1,0,0.2,0.2,0.1,0.3C232,469.2,232,469.3,231.9,469.3z"/>
		<path class="st35" d="M235.2,467.9C235.2,467.9,235.2,467.9,235.2,467.9l-9.6-3.5c-0.1,0-0.2-0.2-0.1-0.3c0-0.1,0.2-0.2,0.3-0.1
			l9.5,3.5c0.1,0,0.2,0.2,0.1,0.3C235.4,467.9,235.3,467.9,235.2,467.9z"/>
		<path class="st35" d="M238.4,466.7C238.4,466.7,238.3,466.7,238.4,466.7l-9.6-3.5c-0.1,0-0.2-0.2-0.1-0.3c0-0.1,0.2-0.2,0.3-0.1
			l9.5,3.5c0.1,0,0.2,0.2,0.1,0.3C238.6,466.6,238.5,466.7,238.4,466.7z"/>
		<path class="st35" d="M241.4,465.4C241.4,465.4,241.4,465.4,241.4,465.4l-9.6-3.5c-0.1,0-0.2-0.2-0.1-0.3c0-0.1,0.2-0.2,0.3-0.1
			l9.5,3.5c0.1,0,0.2,0.2,0.1,0.3C241.6,465.4,241.5,465.4,241.4,465.4z"/>
		<path class="st35" d="M244.4,464C244.4,464,244.3,464,244.4,464l-9.6-3.5c-0.1,0-0.2-0.2-0.1-0.3c0-0.1,0.2-0.2,0.3-0.1l9.5,3.5
			c0.1,0,0.2,0.2,0.1,0.3C244.6,463.9,244.5,464,244.4,464z"/>
		<path class="st35" d="M248,462.7C248,462.7,248,462.7,248,462.7l-9.6-3.5c-0.1,0-0.2-0.2-0.1-0.3c0-0.1,0.2-0.2,0.3-0.1l9.5,3.5
			c0.1,0,0.2,0.2,0.1,0.3C248.2,462.6,248.1,462.7,248,462.7z"/>
	</g>
	<path class="st30" d="M224.4,477.4c-0.7,0-1.3-0.7-1.3-1.6c0-0.9,0.6-1.6,1.3-1.6c0.7,0,1.3,0.7,1.3,1.6
		C225.7,476.7,225.1,477.4,224.4,477.4z M224.4,475.1c-0.2,0-0.4,0.3-0.4,0.7c0,0.4,0.2,0.7,0.4,0.7c0.2,0,0.4-0.3,0.4-0.7
		C224.8,475.4,224.6,475.1,224.4,475.1z"/>
	<path class="st30" d="M227.6,476c-0.7,0-1.3-0.7-1.3-1.6c0-0.9,0.6-1.6,1.3-1.6c0.7,0,1.3,0.7,1.3,1.6
		C229,475.3,228.4,476,227.6,476z M227.6,473.8c-0.2,0-0.4,0.3-0.4,0.7c0,0.4,0.2,0.7,0.4,0.7c0.2,0,0.4-0.3,0.4-0.7
		C228.1,474.1,227.9,473.8,227.6,473.8z"/>
	<path class="st30" d="M247.9,467.3c-0.7,0-1.3-0.7-1.3-1.6c0-0.9,0.6-1.6,1.3-1.6c0.7,0,1.3,0.7,1.3,1.6
		C249.3,466.6,248.7,467.3,247.9,467.3z M247.9,465.1c-0.2,0-0.4,0.3-0.4,0.7c0,0.4,0.2,0.7,0.4,0.7c0.2,0,0.4-0.3,0.4-0.7
		C248.4,465.4,248.2,465.1,247.9,465.1z"/>
	<path class="st30" d="M251.2,465.9c-0.7,0-1.3-0.7-1.3-1.6c0-0.9,0.6-1.6,1.3-1.6c0.7,0,1.3,0.7,1.3,1.6
		C252.5,465.3,251.9,465.9,251.2,465.9z M251.2,463.7c-0.2,0-0.4,0.3-0.4,0.7c0,0.4,0.2,0.7,0.4,0.7s0.4-0.3,0.4-0.7
		C251.6,464,251.4,463.7,251.2,463.7z"/>
	<path class="st30" d="M238.8,471.3c-0.7,0-1.3-0.7-1.3-1.6c0-0.9,0.6-1.6,1.3-1.6c0.7,0,1.3,0.7,1.3,1.6
		C240.2,470.6,239.6,471.3,238.8,471.3z M238.8,469c-0.2,0-0.4,0.3-0.4,0.7c0,0.4,0.2,0.7,0.4,0.7c0.2,0,0.4-0.3,0.4-0.7
		C239.3,469.4,239.1,469,238.8,469z"/>
	<g>
		<rect x="197.1" y="458.9" class="st30" width="0.9" height="6.9"/>
		<rect x="192" y="456.7" class="st30" width="0.9" height="17.7"/>
		<rect x="180.9" y="452.2" class="st30" width="0.9" height="17.7"/>
		<rect x="169.8" y="447.3" class="st30" width="0.9" height="17.7"/>
		<rect x="158.6" y="442.4" class="st30" width="0.9" height="17.7"/>
		<rect x="186.1" y="454.4" class="st30" width="0.9" height="7.2"/>
		<rect x="174.9" y="449.8" class="st30" width="0.9" height="7.4"/>
		<rect x="208.2" y="456.3" class="st30" width="0.9" height="8.8"/>
		<g>
			<path class="st29" d="M211.4,449.8c3,1.1,2.8,3.8,1.2,4.5c-1.6,0.7-12.3,4.4-12.3,4.4s-0.6,0.8-4.1-0.5
				c-3.5-1.3-36.9-15.6-39-16.8c-1.7-1-2.1-1.4-2.1-2.9c0-2,2.7-2.8,2.7-2.8s5.8-2,8.4-3c2.6-1,4.2,0.2,4.2,0.2
				S208.4,448.7,211.4,449.8z"/>
			<g>
				<path class="st34" d="M198.8,454.6c3,1.1,2.4,4.7-0.3,4.4c-0.6-0.1-1.4-0.3-2.4-0.7c-3.5-1.3-37-15.7-39-16.8
					c-1.7-0.9-2.1-1.4-2.1-2.9c0-2,1.7-1.8,3.2-1.2C159.7,438,195.9,453.5,198.8,454.6z"/>
				<path class="st30" d="M156.4,437.3L156.4,437.3c0.4,0,1,0.1,1.6,0.4c0.5,0.2,4.9,2.1,10.5,4.4c11.2,4.8,28.2,12,30.2,12.7
					c1.4,0.5,1.9,1.7,1.7,2.5c-0.1,0.6-0.6,1.3-1.6,1.3c-0.1,0-0.2,0-0.3,0c-0.6-0.1-1.3-0.3-2.3-0.7c-1.6-0.6-10.2-4.3-20-8.5
					c-8.5-3.6-17.9-7.7-18.9-8.3c-1.7-0.9-2-1.3-2-2.6C155.3,437.7,155.7,437.3,156.4,437.3 M156.4,437c-0.8,0-1.4,0.4-1.4,1.6
					c0,1.5,0.5,2,2.1,2.9c2,1.1,35.5,15.4,39,16.8c1,0.4,1.7,0.6,2.4,0.7c0.1,0,0.2,0,0.3,0c2.4,0,2.8-3.4,0-4.4
					c-3-1.1-39.1-16.6-40.6-17.1C157.6,437.2,157,437,156.4,437L156.4,437z"/>
			</g>
		</g>
		<g>
			<g>
				<path class="st35" d="M202.7,456.6c-0.1,0-0.2-0.1-0.2-0.1c0-0.1,0-0.2,0.1-0.3l9.5-3.5c0.1,0,0.2,0,0.3,0.1
					c0,0.1,0,0.2-0.1,0.3L202.7,456.6C202.7,456.6,202.7,456.6,202.7,456.6z"/>
				<path class="st35" d="M200.8,454.3c-0.1,0-0.2-0.1-0.2-0.1c0-0.1,0-0.2,0.1-0.3l9.5-3.5c0.1,0,0.2,0,0.3,0.1
					c0,0.1,0,0.2-0.1,0.3L200.8,454.3C200.8,454.3,200.8,454.3,200.8,454.3z"/>
				<path class="st35" d="M197.5,452.8c-0.1,0-0.2-0.1-0.2-0.1c0-0.1,0-0.2,0.1-0.3l9.5-3.5c0.1,0,0.2,0,0.3,0.1
					c0,0.1,0,0.2-0.1,0.3L197.5,452.8C197.5,452.8,197.5,452.8,197.5,452.8z"/>
				<path class="st35" d="M194.5,451.5c-0.1,0-0.2-0.1-0.2-0.1c0-0.1,0-0.2,0.1-0.3l9.5-3.5c0.1,0,0.2,0,0.3,0.1
					c0,0.1,0,0.2-0.1,0.3L194.5,451.5C194.6,451.5,194.6,451.5,194.5,451.5z"/>
				<path class="st35" d="M191.1,450.3c-0.1,0-0.2-0.1-0.2-0.1c0-0.1,0-0.2,0.1-0.3l9.5-3.5c0.1,0,0.2,0,0.3,0.1
					c0,0.1,0,0.2-0.1,0.3L191.1,450.3C191.2,450.3,191.2,450.3,191.1,450.3z"/>
				<path class="st35" d="M187.8,449c-0.1,0-0.2-0.1-0.2-0.1c0-0.1,0-0.2,0.1-0.3l9.5-3.5c0.1,0,0.2,0,0.3,0.1c0,0.1,0,0.2-0.1,0.3
					L187.8,449C187.8,449,187.8,449,187.8,449z"/>
				<path class="st35" d="M184.6,447.7c-0.1,0-0.2-0.1-0.2-0.1c0-0.1,0-0.2,0.1-0.3l9.5-3.5c0.1,0,0.2,0,0.3,0.1
					c0,0.1,0,0.2-0.1,0.3L184.6,447.7C184.7,447.7,184.6,447.7,184.6,447.7z"/>
				<path class="st35" d="M181.6,446.5c-0.1,0-0.2-0.1-0.2-0.1c0-0.1,0-0.2,0.1-0.3l9.5-3.5c0.1,0,0.2,0,0.3,0.1
					c0,0.1,0,0.2-0.1,0.3L181.6,446.5C181.6,446.5,181.6,446.5,181.6,446.5z"/>
				<path class="st35" d="M178.6,445.1c-0.1,0-0.2-0.1-0.2-0.1c0-0.1,0-0.2,0.1-0.3l9.5-3.5c0.1,0,0.2,0,0.3,0.1
					c0,0.1,0,0.2-0.1,0.3L178.6,445.1C178.7,445.1,178.6,445.1,178.6,445.1z"/>
				<path class="st35" d="M175,443.7c-0.1,0-0.2-0.1-0.2-0.1c0-0.1,0-0.2,0.1-0.3l9.5-3.5c0.1,0,0.2,0,0.3,0.1c0,0.1,0,0.2-0.1,0.3
					L175,443.7C175,443.7,175,443.7,175,443.7z"/>
				<path class="st35" d="M172,442.3c-0.1,0-0.2-0.1-0.2-0.1c0-0.1,0-0.2,0.1-0.3l9.5-3.5c0.1,0,0.2,0,0.3,0.1c0,0.1,0,0.2-0.1,0.3
					L172,442.3C172,442.3,172,442.3,172,442.3z"/>
				<path class="st35" d="M168.8,441c-0.1,0-0.2-0.1-0.2-0.1c0-0.1,0-0.2,0.1-0.3l9.5-3.5c0.1,0,0.2,0,0.3,0.1c0,0.1,0,0.2-0.1,0.3
					L168.8,441C168.8,441,168.8,441,168.8,441z"/>
				<path class="st35" d="M165.3,439.5c-0.1,0-0.2-0.1-0.2-0.1c0-0.1,0-0.2,0.1-0.3l9.5-3.5c0.1,0,0.2,0,0.3,0.1
					c0,0.1,0,0.2-0.1,0.3L165.3,439.5C165.4,439.5,165.3,439.5,165.3,439.5z"/>
				<path class="st35" d="M162.4,438.2c-0.1,0-0.2-0.1-0.2-0.1c0-0.1,0-0.2,0.1-0.3l9.5-3.5c0.1,0,0.2,0,0.3,0.1
					c0,0.1,0,0.2-0.1,0.3L162.4,438.2C162.5,438.2,162.5,438.2,162.4,438.2z"/>
				<path class="st35" d="M159.3,437c-0.1,0-0.2-0.1-0.2-0.1c0-0.1,0-0.2,0.1-0.3l9.5-3.5c0.1,0,0.2,0,0.3,0.1c0,0.1,0,0.2-0.1,0.3
					L159.3,437C159.4,437,159.3,437,159.3,437z"/>
			</g>
		</g>
		<path class="st30" d="M198.6,458.4c-0.7,0-1.3-0.7-1.3-1.6c0-0.9,0.6-1.6,1.3-1.6c0.7,0,1.3,0.7,1.3,1.6
			C199.9,457.7,199.3,458.4,198.6,458.4z M198.6,456.2c-0.2,0-0.4,0.3-0.4,0.7c0,0.4,0.2,0.7,0.4,0.7c0.2,0,0.4-0.3,0.4-0.7
			C199.1,456.5,198.8,456.2,198.6,456.2z"/>
		<path class="st30" d="M195.4,457.1c-0.7,0-1.3-0.7-1.3-1.6c0-0.9,0.6-1.6,1.3-1.6c0.7,0,1.3,0.7,1.3,1.6
			C196.7,456.4,196.1,457.1,195.4,457.1z M195.4,454.9c-0.2,0-0.4,0.3-0.4,0.7c0,0.4,0.2,0.7,0.4,0.7c0.2,0,0.4-0.3,0.4-0.7
			C195.8,455.2,195.6,454.9,195.4,454.9z"/>
		<path class="st30" d="M160.7,442.4c-0.7,0-1.3-0.7-1.3-1.6c0-0.9,0.6-1.6,1.3-1.6s1.3,0.7,1.3,1.6
			C162.1,441.7,161.5,442.4,160.7,442.4z M160.7,440.1c-0.2,0-0.4,0.3-0.4,0.7c0,0.4,0.2,0.7,0.4,0.7c0.2,0,0.4-0.3,0.4-0.7
			C161.2,440.4,161,440.1,160.7,440.1z"/>
		<path class="st30" d="M157.5,441c-0.7,0-1.3-0.7-1.3-1.6s0.6-1.6,1.3-1.6c0.7,0,1.3,0.7,1.3,1.6S158.2,441,157.5,441z
			 M157.5,438.8c-0.2,0-0.4,0.3-0.4,0.7c0,0.4,0.2,0.7,0.4,0.7c0.2,0,0.4-0.3,0.4-0.7C157.9,439.1,157.7,438.8,157.5,438.8z"/>
		<path class="st30" d="M176.2,449.2c-0.7,0-1.3-0.7-1.3-1.6c0-0.9,0.6-1.6,1.3-1.6c0.7,0,1.3,0.7,1.3,1.6
			C177.5,448.5,176.9,449.2,176.2,449.2z M176.2,447c-0.2,0-0.4,0.3-0.4,0.7c0,0.4,0.2,0.7,0.4,0.7c0.2,0,0.4-0.3,0.4-0.7
			C176.6,447.3,176.4,447,176.2,447z"/>
		<path class="st30" d="M182.5,451.9c-0.7,0-1.3-0.7-1.3-1.6c0-0.9,0.6-1.6,1.3-1.6c0.7,0,1.3,0.7,1.3,1.6
			C183.8,451.2,183.2,451.9,182.5,451.9z M182.5,449.7c-0.2,0-0.4,0.3-0.4,0.7c0,0.4,0.2,0.7,0.4,0.7c0.2,0,0.4-0.3,0.4-0.7
			C182.9,450,182.7,449.7,182.5,449.7z"/>
		<path class="st30" d="M169.6,446.3c-0.7,0-1.3-0.7-1.3-1.6c0-0.9,0.6-1.6,1.3-1.6c0.7,0,1.3,0.7,1.3,1.6
			C170.9,445.6,170.3,446.3,169.6,446.3z M169.6,444.1c-0.2,0-0.4,0.3-0.4,0.7c0,0.4,0.2,0.7,0.4,0.7c0.2,0,0.4-0.3,0.4-0.7
			C170.1,444.4,169.8,444.1,169.6,444.1z"/>
	</g>
	<ellipse class="st29" cx="177.1" cy="402" rx="20.7" ry="9.9"/>
	<ellipse class="st32" cx="177.1" cy="402" rx="18.2" ry="7.5"/>
	<path class="st31" d="M179,422.9c0,0.9-0.8,1.7-1.7,1.7l0,0c-0.9,0-1.7-0.8-1.7-1.7v-4.1c0-0.9,0.8-1.7,1.7-1.7l0,0
		c0.9,0,1.7,0.8,1.7,1.7V422.9z"/>
	<path class="st32" d="M178.4,428c0,0.7-0.5,1.2-1.2,1.2c-0.7,0-1.2-0.5-1.2-1.2c0-0.7,1.2-2.1,1.2-2.1S178.4,427.4,178.4,428z"/>
	<path class="st32" d="M178.4,432.6c0,0.7-0.5,1.2-1.2,1.2c-0.7,0-1.2-0.5-1.2-1.2c0-0.7,1.2-2.1,1.2-2.1S178.4,431.9,178.4,432.6z"
		/>
	<polygon class="st31" points="208.2,439.5 203.1,437.4 203.1,441.1 208.2,443.2 	"/>
	<polygon class="st29" points="208.2,439.5 203.1,437.4 206.5,436 211.6,438.1 	"/>
	<polygon class="st30" points="208.2,439.5 211.6,438.1 211.6,441.8 208.2,443.2 	"/>
	<g>
		<path class="st32" d="M208.8,437.9l0-1.2h-2.4l0,1c0,0,0,0,0,0.1c0,0,0,0,0,0l0,0h0c0.1,0.3,0.5,0.4,1.2,0.4
			C208.3,438.4,208.7,438.2,208.8,437.9L208.8,437.9z"/>
		<ellipse class="st33" cx="207.6" cy="436.8" rx="1.2" ry="0.4"/>
	</g>
	<polygon class="st31" points="248.1,399.1 249.6,399.5 249.6,402.4 248.1,402 	"/>
	<polygon class="st30" points="249.6,399.5 251.4,399.2 251.4,402 249.6,402.4 	"/>
	<polygon class="st29" points="248.1,399.1 249.6,399.5 251.3,399.2 249.8,398.7 	"/>
	<g>
		<rect x="249.6" y="398.3" class="st30" width="0.4" height="0.4"/>
		<path class="st30" d="M250,397.3h-0.4v-0.9h0.4V397.3z M250,395.5h-0.4v-0.9h0.4V395.5z M250,393.6h-0.4v-0.9h0.4V393.6z
			 M250,391.7h-0.4v-0.9h0.4V391.7z M250,389.9h-0.4v-0.9h0.4V389.9z M250,388h-0.4v-0.9h0.4V388z"/>
		<rect x="249.6" y="385.7" class="st30" width="0.4" height="0.4"/>
	</g>
	<path class="st31" d="M218.2,390c-2.4-0.4-2.7,3.5-1.1,3.9c1.6,0.4,2.2,0.7,2.2,0.7l6,3.3l0.7-9.3l-5.6,1.6
		C220.5,390.1,219.7,390.1,218.2,390z"/>
	<path class="st30" d="M219.1,380.9V392c0,0.4-0.3,0.7-0.7,0.7c-0.4,0-0.7-0.3-0.7-0.7v-11.1H219.1z"/>
	<polygon class="st30" points="276.9,416 276.9,407.8 270.1,411 270.1,419.2 	"/>
	<polygon class="st30" points="283.8,412.8 283.8,403.3 277,400.9 277,416 290.6,420.8 290.6,416.7 289.9,415 	"/>
	<polygon class="st29" points="285.2,403.8 276.9,400.9 270.1,404.1 278.3,407 	"/>
	<polygon class="st29" points="290.8,420.9 282.6,418 275.7,421.1 284,424 	"/>
	<path class="st29" d="M285,404.4l5.2,12.2l-5.6,2.7l-5.6-12.1L285,404.4 M285.2,403.8l-6.8,3.2l6,12.9l6.4-3.1L285.2,403.8
		L285.2,403.8z"/>
	<polygon class="st29" points="286.4,406.4 284.3,407.4 284.3,424.1 286.4,423.1 	"/>
	<polygon class="st29" points="290.7,404.3 288.6,405.3 288.6,422 290.7,421 	"/>
	<polygon class="st31" points="288.7,412.8 286.4,413.8 286.4,423.2 288.5,422.1 	"/>
	<g>
		<g>
			<polygon class="st29" points="299.8,428.7 297.7,429.7 284.3,424.1 286.4,423.1 			"/>
			<polygon class="st29" points="304.1,426.6 302,427.6 288.6,422 290.7,421 			"/>
			<g>
				<polygon class="st31" points="296.3,425.2 294.1,426.3 286.4,423.2 288.6,422 				"/>
			</g>
		</g>
	</g>
	<ellipse class="st33" cx="264.2" cy="431.9" rx="2.4" ry="0.9"/>
	
		<ellipse transform="matrix(3.626439e-02 -0.9993 0.9993 3.626439e-02 -174.8974 605.378)" class="st29" cx="226.4" cy="393.4" rx="4.9" ry="3.1"/>
	<path class="st30" d="M223.3,393.3c0-0.7,0.2-1.4,0.4-2.1c0.8,0.2,2.5,0.5,3.5,0.8c1.3,0.4,1,2.7-0.2,2.7c-0.9,0-2.7,0-3.5,0
		C223.3,394.2,223.3,393.7,223.3,393.3z"/>
	<path class="st32" d="M234.5,395.8c-0.5,0-0.7-0.4-0.9-0.6c-0.1-0.1-0.2-0.2-0.3-0.3c-0.2-0.2-0.5-0.3-0.9-0.4
		c-0.3,0-0.5,0.1-0.7,0.2c-0.1,0.1-0.3,0.2-0.5,0.2c-0.7,0.2-1.5-0.2-2.1-0.5c-0.1-0.1-0.2-0.1-0.4-0.2l0.2-0.4
		c0.1,0.1,0.2,0.1,0.4,0.2c0.6,0.3,1.3,0.6,1.8,0.5c0.1,0,0.3-0.1,0.4-0.2c0.2-0.1,0.5-0.3,0.9-0.2c0.3,0,0.8,0.1,1.2,0.5
		c0.1,0.1,0.2,0.3,0.3,0.4c0.3,0.4,0.4,0.5,0.8,0.4c0.2-0.1,0.3-0.2,0.5-0.4c0,0,0.1-0.1,0.1-0.1l0.1-0.1c0.2-0.3,0.6-0.7,1.2-0.5
		c0.2,0.1,0.3,0.3,0.4,0.4c0.1,0.1,0.1,0.2,0.2,0.2l-0.2,0.4c-0.2-0.1-0.3-0.3-0.4-0.4c-0.1-0.1-0.1-0.2-0.2-0.2
		c-0.3-0.1-0.4,0-0.7,0.3l-0.1,0.1c0,0-0.1,0.1-0.1,0.1c-0.2,0.2-0.3,0.5-0.7,0.6C234.7,395.8,234.6,395.8,234.5,395.8z"/>
	<path class="st32" d="M234.6,400.4c-0.1-0.2-0.1-0.4-0.1-0.5c0-0.1,0-0.2-0.1-0.3c-0.2-0.2-0.3-0.2-0.7,0l-0.1,0
		c-0.1,0-0.1,0-0.2,0.1c-0.2,0.1-0.5,0.2-0.9,0.2c-0.7-0.1-0.8-0.7-0.9-1.1c0-0.1,0-0.3-0.1-0.4c-0.1-0.3-0.3-0.5-0.7-0.7
		c-0.2-0.2-0.4-0.1-0.7-0.2c-0.2,0-0.3,0-0.5,0c-0.7-0.2-1.2-0.8-1.7-1.4c-0.1-0.1-0.2-0.2-0.2-0.3l0.4-0.3c0.1,0.1,0.2,0.2,0.2,0.3
		c0.4,0.5,0.8,1.1,1.4,1.3c0.2,0,0.3,0,0.4,0c0.3,0,0.6,0,0.9,0.2c0.2,0.2,0.7,0.5,0.8,1c0.1,0.2,0.1,0.3,0.1,0.5
		c0.1,0.4,0.1,0.7,0.5,0.7c0.2,0,0.4,0,0.6-0.1c0.1,0,0.1-0.1,0.2-0.1l0.1,0c0.4-0.2,0.9-0.4,1.3,0.1c0.1,0.2,0.2,0.4,0.2,0.5
		c0,0.1,0,0.2,0.1,0.3L234.6,400.4z"/>
	<path class="st32" d="M230.1,391.9c-0.3,0-0.7,0-1-0.1c-0.1,0-0.3,0-0.4-0.1l0-0.4c0.1,0,0.3,0,0.4,0.1c0.7,0.1,1.4,0.2,1.9-0.1
		c0.1-0.1,0.2-0.2,0.3-0.3c0.2-0.2,0.4-0.4,0.8-0.5c0.3-0.1,0.8-0.1,1.3,0.1c0.2,0.1,0.3,0.2,0.4,0.3c0.4,0.2,0.6,0.4,0.9,0.1
		c0.2-0.1,0.2-0.3,0.3-0.5c0-0.1,0-0.1,0.1-0.2l0-0.1c0.1-0.4,0.3-0.9,1-0.8c0.2,0,0.4,0.2,0.5,0.3c0.1,0.1,0.2,0.1,0.2,0.1
		l-0.1,0.4c-0.2,0-0.4-0.1-0.5-0.2c-0.1-0.1-0.2-0.1-0.2-0.1c-0.3,0-0.4,0.1-0.5,0.5l0,0.1c0,0.1,0,0.1-0.1,0.2
		c-0.1,0.3-0.2,0.5-0.5,0.7c-0.6,0.4-1,0.1-1.4-0.1c-0.1-0.1-0.2-0.2-0.4-0.2c-0.3-0.1-0.6-0.1-1,0c-0.3,0.1-0.4,0.2-0.6,0.4
		c-0.1,0.1-0.2,0.2-0.4,0.4C231,391.9,230.6,391.9,230.1,391.9z"/>
	<polygon class="st31" points="276.9,416 276.9,406.5 270.1,404.1 270.1,419.2 284.3,424.1 284.3,419.9 283.5,418.3 	"/>
	<g>
		<path class="st30" d="M283.1,422c0-1.2-0.8-2.3-1.9-2.3c-0.3,0-0.6,0.1-0.8,0.2l0,0l-0.2,0.1c0,0,0,0,0,0l-1,0.8l0.2,0.5
			c0,0.2-0.1,0.4-0.1,0.6c0,1,0.6,1.9,1.4,2.2l0.3,0.7l1.1-0.8l0,0C282.7,423.6,283.1,422.8,283.1,422z"/>
		<ellipse class="st31" cx="280.3" cy="422.7" rx="1.9" ry="2.3"/>
		<ellipse class="st30" cx="280.3" cy="422.7" rx="0.6" ry="0.8"/>
	</g>
	<g>
		<path class="st30" d="M274.8,419.9c0-1.2-0.8-2.3-1.9-2.3c-0.3,0-0.6,0.1-0.8,0.2l0,0l-0.2,0.1c0,0,0,0,0,0l-1,0.8l0.2,0.5
			c0,0.2-0.1,0.4-0.1,0.6c0,1,0.6,1.9,1.4,2.2l0.3,0.7l1.1-0.8l0,0C274.4,421.5,274.8,420.8,274.8,419.9z"/>
		<ellipse class="st31" cx="272" cy="420.6" rx="1.9" ry="2.3"/>
		<ellipse class="st30" cx="272" cy="420.6" rx="0.6" ry="0.8"/>
	</g>
</g>
</svg>
