<?xml version="1.0" encoding="utf-8"?>
<!-- Generator: Adobe Illustrator 20.0.0, SVG Export Plug-In . SVG Version: 6.00 Build 0)  -->
<svg version="1.1" id="Layer_1" xmlns="http://www.w3.org/2000/svg" xmlns:xlink="http://www.w3.org/1999/xlink" x="0px" y="0px"
	 viewBox="0 0 612 612" style="enable-background:new 0 0 612 612;" xml:space="preserve">
<style type="text/css">
	.st0{fill:#575756;}
	
		.st1{clip-path:url(#SVGID_4_);fill-rule:evenodd;clip-rule:evenodd;fill:#00848D;stroke:#FFFFFF;stroke-width:3;stroke-miterlimit:10;}
	.st2{fill:none;stroke:#FFFFFF;stroke-miterlimit:10;}
	.st3{fill:none;stroke:#FFFFFF;stroke-miterlimit:10;stroke-dasharray:3.9793,3.9793;}
	.st4{fill:none;stroke:#FFFFFF;stroke-miterlimit:10;stroke-dasharray:3.9976,3.9976;}
	.st5{fill:none;stroke:#FFFFFF;stroke-miterlimit:10;stroke-dasharray:3.9823,3.9823;}
	.st6{fill:#FFFFFF;}
	.st7{fill-rule:evenodd;clip-rule:evenodd;fill:#FFFFFF;}
	.st8{fill:#28A8E0;}
	.st9{fill:#B399C3;}
	.st10{fill:#354C5B;}
	.st11{fill:#FFF7DE;}
	.st12{fill:#E73F24;}
	.st13{fill:#00848D;stroke:#FFFFFF;stroke-width:3;stroke-miterlimit:10;}
	.st14{fill:none;stroke:#FFFFFF;stroke-width:2;stroke-miterlimit:10;}
	.st15{fill:#F06162;}
</style>
<path class="st0" d="M305.4,305.6l0,0.1c0,0.3,0.5,0.6,1.2,0.6"/>
<path class="st0" d="M305.4,306.4c0.7,0,1.2-0.3,1.2-0.6c0,0,0-0.1,0-0.1"/>
<g>
	<g>
		<g>
			<defs>
				<circle id="SVGID_1_" cx="306" cy="306" r="306"/>
			</defs>
			<clipPath id="SVGID_2_">
				<use xlink:href="#SVGID_1_"  style="overflow:visible;"/>
			</clipPath>
		</g>
		<g>
			<defs>
				<circle id="SVGID_3_" cx="306" cy="306" r="306"/>
			</defs>
			<use xlink:href="#SVGID_3_"  style="overflow:visible;fill:#00848D;"/>
			<clipPath id="SVGID_4_">
				<use xlink:href="#SVGID_3_"  style="overflow:visible;"/>
			</clipPath>
			<rect x="-28.2" y="-28.3" class="st1" width="668.4" height="668.4"/>
			<use xlink:href="#SVGID_3_"  style="overflow:visible;fill:none;stroke:#FFFFFF;stroke-width:3;stroke-miterlimit:10;"/>
		</g>
		<g>
			<defs>
				<circle id="SVGID_5_" cx="306" cy="306" r="306"/>
			</defs>
			<clipPath id="SVGID_6_">
				<use xlink:href="#SVGID_5_"  style="overflow:visible;"/>
			</clipPath>
		</g>
	</g>
	<g id="line_1_">
		<g>
			<g>
				<g>
					<path class="st2" d="M374.3,103.8c-0.6-0.2-1.3-0.5-1.9-0.7"/>
					<path class="st3" d="M368.6,101.9c-22.1-7.4-45.8-11.4-70.4-11.4c-122.6,0-222,99.4-222,222c0,89.9,53.4,167.3,130.2,202.2"/>
					<path class="st2" d="M208.3,515.5c0.6,0.3,1.2,0.5,1.8,0.8"/>
				</g>
			</g>
			<g>
				<g>
					<path class="st2" d="M461,224.3c-0.3-0.6-0.6-1.2-1-1.8"/>
					<path class="st4" d="M458.1,219.1c-32.1-54.8-91.7-91.6-159.8-91.6c-102.2,0-185.1,82.9-185.1,185.1c0,28.5,6.4,55.4,17.9,79.5
						"/>
					<path class="st2" d="M132,393.8c0.3,0.6,0.6,1.2,0.9,1.8"/>
				</g>
			</g>
			<g>
				<g>
					<path class="st2" d="M376,507.6c0.6-0.2,1.2-0.5,1.9-0.7"/>
					<path class="st5" d="M381.5,505.3c74.6-32.2,126.7-106.4,126.7-192.8c0-115.9-94-209.9-209.9-209.9
						c-75.1,0-140.9,39.4-178,98.6"/>
					<path class="st2" d="M119.2,202.9c-0.3,0.6-0.7,1.1-1,1.7"/>
				</g>
			</g>
		</g>
		<polygon class="st6" points="371.8,107.4 376.6,99.2 381.4,107.4 		"/>
		<polygon class="st6" points="456.3,226.5 464.9,222.3 464.3,231.8 		"/>
		<polygon class="st6" points="122.7,206.4 114.9,212 114,202.5 		"/>
		<circle class="st6" cx="210" cy="516.3" r="2.8"/>
		<circle class="st6" cx="132.9" cy="395.6" r="2.8"/>
		<circle class="st6" cx="375.5" cy="507.6" r="2.8"/>
	</g>
	<g>
		<path class="st7" d="M379.2,193.5c27.2,0,49.3-22.2,49.3-49.5c0-27.3-22.1-49.5-49.3-49.5c-1.4,0-2.9,0.1-4.3,0.2
			c-5.2-32.3-33.1-56.9-66.8-56.9c-33.8,0-61.8,24.9-66.8,57.5c-2.8-0.5-5.6-0.7-8.5-0.7c-27.2,0-49.3,22.2-49.3,49.5
			c0,27.3,22.1,49.5,49.3,49.5H379.2z"/>
		<g>
			<g>
				<path class="st8" d="M298.9,113.9c14.9,0.2,29.7,0.3,44.6,0.5c0,13.2,0,26.4,0,39.7c-0.6-0.1-1.2-0.2-1.9-0.4
					c-4-0.8-8-1.6-11.9-2.4c-3.8-0.8-7.7-1.5-11.5-2.3c-3.4-0.7-6.8-1.3-10.2-2c-2.5-0.5-4.9-1-7.4-1.5c-0.5-0.1-1-0.2-1.4-0.3
					c-0.2,0-0.3-0.1-0.2-0.3c0-0.1,0-0.2,0-0.2c0-10.1,0-20.2,0-30.3C298.9,114.2,298.9,114.1,298.9,113.9z"/>
				<path class="st8" d="M343.5,70c0,13.2,0,26.4,0,39.6c-14.8,0.2-29.7,0.3-44.6,0.5c0-0.2,0-0.3,0-0.4c0-10.2,0-20.3,0-30.5
					c0-0.3,0.1-0.4,0.4-0.5c3.7-0.7,7.5-1.5,11.2-2.2c4.4-0.9,8.8-1.8,13.2-2.6c4.4-0.9,8.9-1.8,13.3-2.6c2.1-0.4,4.2-0.8,6.4-1.3
					C343.4,70,343.5,70,343.5,70z"/>
				<path class="st8" d="M295.2,113.8c0,10.2,0,20.4,0,30.6c-9.3-1.9-18.6-3.7-27.8-5.5c0-8.5,0-16.9,0-25.3
					C276.6,113.6,285.9,113.7,295.2,113.8z"/>
				<path class="st8" d="M295.2,110.2c-9.3,0.1-18.5,0.2-27.8,0.3c0-8.5,0-16.9,0-25.3c9.3-1.8,18.5-3.7,27.8-5.5
					C295.2,89.9,295.2,100,295.2,110.2z"/>
			</g>
		</g>
		<g>
			<g>
				<path class="st8" d="M253.9,172.9c-0.1-2-0.2-4.4-0.2-6.3h-0.1c-0.5,1.7-1.1,3.5-1.8,5.5l-2.6,7h-1.4l-2.3-6.9
					c-0.7-2-1.3-3.9-1.7-5.6h0c0,1.8-0.2,4.2-0.3,6.4l-0.4,6.2h-1.8l1-14.5h2.4l2.5,7c0.6,1.8,1.1,3.4,1.5,4.9h0.1
					c0.4-1.5,0.9-3.1,1.5-4.9l2.6-7h2.4l0.9,14.5h-1.8L253.9,172.9z"/>
				<path class="st8" d="M261.3,165.9c0,0.6-0.5,1.2-1.2,1.2c-0.7,0-1.1-0.5-1.1-1.2c0-0.7,0.5-1.2,1.2-1.2
					C260.8,164.7,261.3,165.2,261.3,165.9z M259.2,179.2v-10.4h1.9v10.4H259.2z"/>
				<path class="st8" d="M271.6,178.8c-0.5,0.3-1.6,0.6-3,0.6c-3.1,0-5.2-2.1-5.2-5.3c0-3.2,2.2-5.5,5.6-5.5c1.1,0,2.1,0.3,2.6,0.5
					l-0.4,1.5c-0.5-0.3-1.2-0.5-2.2-0.5c-2.4,0-3.7,1.8-3.7,3.9c0,2.4,1.5,3.9,3.6,3.9c1.1,0,1.8-0.3,2.3-0.5L271.6,178.8z"/>
				<path class="st8" d="M273.8,172.1c0-1.2,0-2.3-0.1-3.2h1.7l0.1,2h0.1c0.5-1.4,1.6-2.3,2.9-2.3c0.2,0,0.4,0,0.5,0.1v1.8
					c-0.2,0-0.4-0.1-0.6-0.1c-1.3,0-2.3,1-2.5,2.4c0,0.3-0.1,0.6-0.1,0.9v5.5h-1.9V172.1z"/>
				<path class="st8" d="M290,173.9c0,3.8-2.7,5.5-5.2,5.5c-2.8,0-5-2.1-5-5.3c0-3.5,2.3-5.5,5.2-5.5C288,168.6,290,170.7,290,173.9
					z M281.8,174c0,2.3,1.3,4,3.2,4c1.8,0,3.2-1.7,3.2-4c0-1.8-0.9-4-3.1-4S281.8,172.1,281.8,174z"/>
				<path class="st8" d="M292.2,177.3c0.6,0.4,1.5,0.8,2.5,0.8c1.4,0,2-0.7,2-1.5c0-0.9-0.5-1.4-1.9-1.9c-1.9-0.7-2.8-1.7-2.8-2.9
					c0-1.7,1.4-3.1,3.6-3.1c1.1,0,2,0.3,2.6,0.6l-0.5,1.4c-0.4-0.3-1.2-0.6-2.1-0.6c-1.1,0-1.7,0.6-1.7,1.4c0,0.9,0.6,1.2,2,1.8
					c1.8,0.7,2.7,1.6,2.7,3.1c0,1.8-1.4,3.1-3.9,3.1c-1.1,0-2.2-0.3-2.9-0.7L292.2,177.3z"/>
				<path class="st8" d="M310.3,173.9c0,3.8-2.7,5.5-5.2,5.5c-2.8,0-5-2.1-5-5.3c0-3.5,2.3-5.5,5.2-5.5
					C308.3,168.6,310.3,170.7,310.3,173.9z M302.1,174c0,2.3,1.3,4,3.2,4c1.8,0,3.2-1.7,3.2-4c0-1.8-0.9-4-3.1-4
					S302.1,172.1,302.1,174z"/>
				<path class="st8" d="M312.9,179.2v-9h-1.5v-1.4h1.5v-0.5c0-1.5,0.3-2.8,1.2-3.6c0.7-0.7,1.7-1,2.5-1c0.7,0,1.2,0.2,1.6,0.3
					l-0.3,1.5c-0.3-0.1-0.7-0.2-1.2-0.2c-1.6,0-2,1.4-2,3v0.6h2.5v1.4h-2.5v9H312.9z"/>
				<path class="st8" d="M321.5,165.8v3h2.7v1.4h-2.7v5.6c0,1.3,0.4,2,1.4,2c0.5,0,0.9-0.1,1.1-0.1l0.1,1.4
					c-0.4,0.2-0.9,0.3-1.7,0.3c-0.9,0-1.6-0.3-2-0.8c-0.5-0.6-0.7-1.5-0.7-2.7v-5.7H318v-1.4h1.6v-2.5L321.5,165.8z"/>
				<path class="st8" d="M333.3,174.7l-1.5,4.6h-1.9l4.9-14.5h2.3l4.9,14.5h-2l-1.5-4.6H333.3z M338,173.2l-1.4-4.2
					c-0.3-0.9-0.5-1.8-0.8-2.6h0c-0.2,0.9-0.5,1.7-0.7,2.6l-1.4,4.2H338z"/>
				<path class="st8" d="M343.2,178.1l4.7-6.1c0.5-0.6,0.9-1.1,1.4-1.6v0h-5.6v-1.5h7.9l0,1.2l-4.6,6c-0.4,0.6-0.9,1.1-1.3,1.6v0
					h6.1v1.5h-8.4V178.1z"/>
				<path class="st8" d="M362.2,176.4c0,1.1,0,2,0.1,2.8h-1.7l-0.1-1.7h0c-0.5,0.8-1.6,1.9-3.4,1.9c-1.6,0-3.6-0.9-3.6-4.6v-6.1h1.9
					v5.8c0,2,0.6,3.3,2.3,3.3c1.3,0,2.1-0.9,2.5-1.7c0.1-0.3,0.2-0.6,0.2-1v-6.4h1.9V176.4z"/>
				<path class="st8" d="M365.4,172.1c0-1.2,0-2.3-0.1-3.2h1.7l0.1,2h0.1c0.5-1.4,1.6-2.3,2.9-2.3c0.2,0,0.4,0,0.5,0.1v1.8
					c-0.2,0-0.4-0.1-0.6-0.1c-1.3,0-2.3,1-2.5,2.4c0,0.3-0.1,0.6-0.1,0.9v5.5h-1.9V172.1z"/>
				<path class="st8" d="M373.2,174.4c0,2.6,1.7,3.6,3.6,3.6c1.4,0,2.2-0.2,2.9-0.5l0.3,1.4c-0.7,0.3-1.8,0.6-3.5,0.6
					c-3.2,0-5.1-2.1-5.1-5.2s1.8-5.6,4.9-5.6c3.4,0,4.3,3,4.3,4.9c0,0.4,0,0.7-0.1,0.9H373.2z M378.8,173c0-1.2-0.5-3.1-2.6-3.1
					c-1.9,0-2.8,1.8-2.9,3.1H378.8z"/>
			</g>
		</g>
	</g>
	<path class="st9" d="M561.3,297.6c0-34.9-28.3-63.1-63.1-63.1c-34.9,0-63.1,28.3-63.1,63.1c0,34.9,28.3,63.1,63.1,63.1
		c1,0,1.9,0,2.9-0.1l-2.9,23.9l31.1-32C548.4,341.7,561.3,321.1,561.3,297.6z"/>
	<g id="group_1_">
		<g>
			<path class="st6" d="M532.5,321.9c0,3.2,0,7.5,0,7.5c0,0.4-0.4,1-0.8,1h-66.9c-0.4,0-0.8-0.6-0.8-1c0,0,0-4.3,0-7.5
				c0-3.1,0.6-4.4,3-5.8c1.9-1.1,14.8-8.5,20.8-11.1v-11.3c-1.9-1.4-3-3.5-3-6.7c0-7.5,0-8.9,0-8.9c0-7.4,4.5-13.5,13.4-13.5
				c8.9,0,13.4,6.1,13.4,13.5v8.9c0,3.2-1.1,5.3-3,6.6V305c6.4,2.6,18.9,10,20.8,11.1C531.9,317.5,532.5,318.8,532.5,321.9z
				 M464.7,312.2l0.4-0.2c6.8-3.9,12.2-6.9,16.2-8.9c-1.9-0.9-3.8-1.7-5.5-2.3v-7.9c3-0.9,3-2.4,3-4.6V283c0-5.1-2.7-9.4-8.9-9.4
				c-6.2,0-8.9,4.2-8.9,9.4c0,0,0,0.1,0,5.3c0,2.2,0,3.7,3,4.6v7.8c-6,1.8-13.8,7-15.2,7.7c-1.7,0.9-2.7,1.8-2.7,4
				c0,2.2,0,5.2,0,5.2c0,0.3,0.3,0.7,0.6,0.7h13.2C460.4,316,461.7,313.9,464.7,312.2z M547.6,308.5c-1.3-0.8-9.2-5.9-15.2-7.7v-7.9
				c3-0.9,3-2.4,3-4.6V283c0-5.1-2.7-9.4-8.9-9.4c-6.2,0-8.9,4.2-8.9,9.4c0,0,0,0.1,0,5.3c0,2.2,0,3.7,3,4.6v7.8
				c-1.7,0.5-3.6,1.3-5.4,2.2c5.7,2.9,12.5,6.8,15.5,8.6l1.1,0.6c3,1.7,4.4,3.8,4.9,6.3h13.2c0.3,0,0.6-0.4,0.6-0.7c0,0,0-3,0-5.2
				C550.3,310.4,549.3,309.5,547.6,308.5z"/>
		</g>
	</g>
	<g>
		<g>
			<g>
				<polygon class="st10" points="334.1,563.1 277.9,563.1 285,528.3 327,528.3 				"/>
				<polygon class="st11" points="334.1,563.1 327,528.3 285,528.3 319.8,563.1 				"/>
				<path class="st10" d="M349.2,567.3h-86.4v-1.6c0-0.7,0.3-1.3,0.8-1.9c0.5-0.5,1.2-0.8,1.9-0.8h81.1c0.7,0,1.3,0.3,1.9,0.8
					c0.5,0.5,0.8,1.2,0.8,1.9V567.3z"/>
			</g>
			<path class="st10" d="M203.3,385.2c-2.9,0-5.2,2.4-5.2,5.3V523c0,2.9,2.4,5.3,5.2,5.3h205.4c2.9,0,5.3-2.4,5.3-5.3V390.4
				c0-2.9-2.4-5.3-5.3-5.3H203.3z"/>
			<rect x="209" y="396.1" class="st6" width="194.1" height="121.3"/>
		</g>
		<g>
			<g>
				<path class="st12" d="M276.2,465.1c12.9,1.6,25.8,3.1,38.7,4.7c0.1-0.2,0.1-50.8,0-51.3c0,0,0,0,0,0c0,0,0,0,0,0
					c0,0-0.1,0-0.1,0c-8.4,1.9-16.7,3.9-25.1,5.8c-0.1,0-0.1,0-0.2,0.1c0,0,0,0,0,0c0,0,0,0,0,0c0,0,0,0,0,0c0,0,0,0,0,0
					c0,0,0,0,0,0.1c0,0,0,0,0,0.1c0,11.5,0,22.9,0,34.4c0,0,0,0,0,0.1c0,0,0,0,0,0.1c-4.5,2-9,3.9-13.5,5.9c0-14.7,0-29.4,0-44
					c0.1,0,0.3-0.1,0.4-0.1c12.8-4.7,25.5-9.4,38.3-14.1c0.2-0.1,0.4-0.1,0.6,0c6.9,2.2,13.7,4.4,20.6,6.6c0.1,0,0.2,0.1,0.3,0.1
					c0,19.8,0,39.5,0,59.3c-0.1,0-0.2,0.1-0.4,0.1c-4.7,1.4-9.3,2.8-14,4.2c-2.2,0.7-4.4,1.3-6.6,2c-0.2,0.1-0.4,0.1-0.6,0
					c-10.2-3.7-20.5-7.4-30.7-11c-2.5-0.9-5-1.8-7.5-2.7C276.4,465.2,276.3,465.2,276.2,465.1C276.2,465.2,276.2,465.1,276.2,465.1z
					"/>
			</g>
		</g>
		<g>
			<g>
				<path class="st12" d="M271.8,496.7c0,5-3,7.6-6.7,7.6c-3.8,0-6.5-3-6.5-7.3c0-4.6,2.9-7.6,6.7-7.6
					C269.2,489.4,271.8,492.4,271.8,496.7z M260.5,497c0,3.1,1.7,5.9,4.6,5.9c3,0,4.6-2.7,4.6-6c0-2.9-1.5-5.9-4.6-5.9
					C262.1,490.9,260.5,493.8,260.5,497z"/>
				<path class="st12" d="M287.5,490.7c-0.5-0.3-1.2-0.6-2.1-0.6c-2,0-2.6,1.4-2.6,3.1v0.5h6.1v10.4h-1.9v-9h-4.1v9h-1.9v-9h-4.4v9
					h-1.9v-9h-1.5v-1.4h1.5v-0.4c0-1.3,0.3-2.6,1.2-3.5c0.6-0.6,1.5-1,2.7-1c0.7,0,1.4,0.3,1.8,0.5l-0.5,1.4
					c-0.3-0.2-0.8-0.4-1.3-0.4c-0.6,0-1,0.2-1.4,0.6c-0.5,0.6-0.7,1.5-0.7,2.4v0.4h4.4v-0.6c0-2.8,1.6-4.5,4.6-4.5
					c0.9,0,2,0.3,2.6,0.7L287.5,490.7z"/>
				<path class="st12" d="M299.4,503.7c-0.5,0.3-1.6,0.6-3,0.6c-3.1,0-5.2-2.1-5.2-5.3c0-3.2,2.2-5.5,5.6-5.5c1.1,0,2.1,0.3,2.6,0.5
					l-0.4,1.5c-0.5-0.3-1.2-0.5-2.2-0.5c-2.4,0-3.7,1.8-3.7,3.9c0,2.4,1.5,3.9,3.6,3.9c1.1,0,1.8-0.3,2.3-0.5L299.4,503.7z"/>
				<path class="st12" d="M302.5,499.3c0,2.6,1.7,3.6,3.6,3.6c1.4,0,2.2-0.2,2.9-0.5l0.3,1.4c-0.7,0.3-1.8,0.6-3.5,0.6
					c-3.2,0-5.1-2.1-5.1-5.2s1.8-5.6,4.9-5.6c3.4,0,4.3,3,4.3,4.9c0,0.4,0,0.7-0.1,0.9H302.5z M308.1,497.9c0-1.2-0.5-3.1-2.6-3.1
					c-1.9,0-2.8,1.8-2.9,3.1H308.1z"/>
				<path class="st12" d="M316.6,501.9c0.5,0.3,1.8,0.9,3.1,0.9c2.4,0,3.2-1.5,3.2-2.7c0-2-1.8-2.8-3.6-2.8h-1.1v-1.4h1.1
					c1.4,0,3.1-0.7,3.1-2.4c0-1.1-0.7-2.1-2.4-2.1c-1.1,0-2.2,0.5-2.8,0.9l-0.5-1.4c0.7-0.5,2.1-1.1,3.7-1.1c2.8,0,4,1.6,4,3.3
					c0,1.4-0.9,2.7-2.6,3.3v0c1.7,0.3,3.1,1.6,3.1,3.6c0,2.2-1.7,4.2-5.1,4.2c-1.6,0-2.9-0.5-3.6-0.9L316.6,501.9z"/>
				<path class="st12" d="M335.2,491.5c-0.4,0-0.9,0-1.4,0.1c-3,0.5-4.5,2.7-4.9,5h0.1c0.7-0.9,1.8-1.6,3.4-1.6
					c2.5,0,4.2,1.8,4.2,4.5c0,2.6-1.7,4.9-4.6,4.9c-3,0-4.9-2.3-4.9-6c0-2.8,1-4.9,2.4-6.3c1.2-1.1,2.7-1.8,4.5-2.1
					c0.6-0.1,1-0.1,1.4-0.1V491.5z M334.6,499.5c0-2-1.1-3.2-2.9-3.2c-1.1,0-2.2,0.7-2.7,1.7c-0.1,0.2-0.2,0.5-0.2,0.8
					c0,2.3,1.1,4,3.1,4C333.5,502.9,334.6,501.5,334.6,499.5z"/>
				<path class="st12" d="M346.6,491.7h-5.3l-0.5,3.6c0.3,0,0.6-0.1,1.1-0.1c1.1,0,2.1,0.2,3,0.8c1.1,0.6,2,1.8,2,3.6
					c0,2.7-2.2,4.8-5.2,4.8c-1.5,0-2.8-0.4-3.5-0.9l0.5-1.4c0.6,0.3,1.7,0.8,3,0.8c1.8,0,3.3-1.2,3.3-3c0-1.8-1.2-3.1-4-3.1
					c-0.8,0-1.4,0.1-1.9,0.2l0.9-6.7h6.7V491.7z"/>
			</g>
		</g>
	</g>
	<g>
		<path class="st6" d="M308.2,223.5h-0.4c-1.7,0-3-1.3-3-3v-26c0-1.7,1.3-3,3-3h0.4c1.7,0,3,1.3,3,3v26
			C311.2,222.1,309.9,223.5,308.2,223.5z"/>
		<path class="st6" d="M271.3,251.8h-25.6c-0.1,0-0.2,0-0.4,0c-0.1,0-0.2,0-0.4,0c-1.8,0-3.2,1.4-3.2,3.2v13.3
			c0,1.8,1.4,3.2,3.2,3.2c1.8,0,3.2-1.4,3.2-3.2v-10.1h23.1c1.8,0,3.2-1.4,3.2-3.2S273.1,251.8,271.3,251.8z"/>
		<path class="st6" d="M343.2,251.8h25.6c0.1,0,0.2,0,0.4,0c0.1,0,0.2,0,0.4,0c1.8,0,3.2,1.4,3.2,3.2v13.3c0,1.8-1.4,3.2-3.2,3.2
			c-1.8,0-3.2-1.4-3.2-3.2v-10.1h-23.1c-1.8,0-3.2-1.4-3.2-3.2S341.4,251.8,343.2,251.8z"/>
		<path class="st13" d="M318.9,293.4h-21.9c-4.4,0-8-3.6-8-8V241c0-4.4,3.6-8,8-8h21.9c4.4,0,8,3.6,8,8v44.4
			C326.9,289.8,323.3,293.4,318.9,293.4z"/>
		<path class="st13" d="M250.2,342h-21.9c-4.4,0-8-3.6-8-8v-44.4c0-4.4,3.6-8,8-8h21.9c4.4,0,8,3.6,8,8V334
			C258.2,338.4,254.6,342,250.2,342z"/>
		<path class="st13" d="M383.6,342h-21.9c-4.4,0-8-3.6-8-8v-44.4c0-4.4,3.6-8,8-8h21.9c4.4,0,8,3.6,8,8V334
			C391.6,338.4,388,342,383.6,342z"/>
		<g>
			<circle class="st14" cx="308" cy="252.2" r="6.7"/>
			<line class="st14" x1="296.6" y1="267.8" x2="320.4" y2="267.8"/>
			<line class="st14" x1="296.6" y1="274.6" x2="320.4" y2="274.6"/>
			<line class="st14" x1="296.6" y1="281.7" x2="320.4" y2="281.7"/>
		</g>
		<g>
			<circle class="st14" cx="238.8" cy="299.5" r="6.7"/>
			<line class="st14" x1="227.4" y1="315.2" x2="251.2" y2="315.2"/>
			<line class="st14" x1="227.4" y1="322" x2="251.2" y2="322"/>
			<line class="st14" x1="227.4" y1="329.1" x2="251.2" y2="329.1"/>
		</g>
		<g>
			<circle class="st14" cx="372.2" cy="299.5" r="6.7"/>
			<line class="st14" x1="360.8" y1="315.2" x2="384.6" y2="315.2"/>
			<line class="st14" x1="360.8" y1="322" x2="384.6" y2="322"/>
			<line class="st14" x1="360.8" y1="329.1" x2="384.6" y2="329.1"/>
		</g>
	</g>
	<path class="st15" d="M178.3,274.8c0-32.7-26.5-59.1-59.1-59.1c-32.7,0-59.1,26.5-59.1,59.1c0,32.7,26.5,59.1,59.1,59.1
		c0.9,0,1.8,0,2.7-0.1l23.9,20.2l2.5-27.8C166.2,316.2,178.3,296.9,178.3,274.8z"/>
	<g>
		<g>
			<path class="st6" d="M102.5,252.1c0,9.5,7.7,17.2,17.2,17.2c9.5,0,17.2-7.7,17.2-17.2c0-9.5-7.7-17.2-17.2-17.2
				C110.2,234.9,102.5,242.6,102.5,252.1z M119.6,264.4c-6.8,0-12.3-5.5-12.3-12.3c0-2.3,0.7-4.5,1.8-6.4c2.8,2.8,6.6,3.9,10.4,4.7
				c4.8,1,10,1.5,11,7.2c0,0,0,0,0,0C128.5,261.7,124.4,264.4,119.6,264.4z M131.7,250c-5.2-4.2-14.3-2.7-19.3-7.9
				c2-1.5,4.5-2.4,7.2-2.4C125.7,239.8,130.7,244.2,131.7,250z"/>
			<path class="st6" d="M91.3,307.6h9.6h37.4h8.6c1.3,0,2.4-1.1,2.4-2.4c0-1.3-1.1-2.4-2.4-2.4h0c0.5-1,0.8-2.2,0.8-3.3l-3-20.7
				c-0.1-4.4-4.3-8-9.4-8h-10.8l-4.6,4.8l-0.1-0.2l-0.1,0.4l0,0l-5.2-5H104c-5.1,0-9.3,3.6-9.4,8l-3,20.3l0,0.4
				c0,1.2,0.3,2.3,0.8,3.3h-1c-1.3,0-2.4,1.1-2.4,2.4C88.9,306.5,90,307.6,91.3,307.6z M121.2,293.8l-1.4,0.9l-1.4-0.9l1.4-4
				L121.2,293.8z M96.4,299.5l3-20.3l0-0.4c0-1.8,2.1-3.3,4.6-3.3h8.4l5.4,5.2l-5.3,15l7.3,4.7l7.3-4.7l-5.4-15.2l4.9-5h8.8
				c2.5,0,4.6,1.5,4.6,3.3l3,20.6c-0.1,1.7-2.2,3.2-4.6,3.2h-37.4C98.5,302.7,96.5,301.3,96.4,299.5z"/>
		</g>
	</g>
</g>
</svg>
