<?xml version="1.0" encoding="utf-8"?>
<!-- Generator: Adobe Illustrator 20.0.0, SVG Export Plug-In . SVG Version: 6.00 Build 0)  -->
<svg version="1.1" id="Layer_1" xmlns="http://www.w3.org/2000/svg" xmlns:xlink="http://www.w3.org/1999/xlink" x="0px" y="0px"
	 viewBox="0 0 612 612" style="enable-background:new 0 0 612 612;" xml:space="preserve">
<style type="text/css">
	.st0{clip-path:url(#SVGID_2_);}
	.st1{fill:#E4E5E2;}
	.st2{fill:#FFFFFF;}
	.st3{fill:#2C5871;}
	.st4{fill:#A6D9E8;}
	.st5{fill:#D5D4D4;}
	.st6{fill:none;stroke:#FDFCF0;stroke-width:2;stroke-miterlimit:10;}
	.st7{fill:#AED2E1;}
	.st8{fill:#CEE8F8;}
	.st9{fill:#BFBFBF;}
	.st10{fill:#0E303F;}
	.st11{fill:none;}
	.st12{fill:#F79921;}
	.st13{fill:#204B5E;}
	.st14{fill:#FABE18;}
	.st15{fill:#8AC8D8;}
	.st16{fill:#F3F8EA;}
	.st17{fill:#DFDFDE;}
	.st18{fill:#C93548;}
	.st19{fill:#E94250;}
	.st20{fill:#FDFCF0;}
	.st21{fill:#D2D2D2;}
	.st22{fill:none;stroke:#FDFCF0;stroke-width:2.7475;stroke-linecap:round;stroke-miterlimit:10;}
	.st23{fill:#FDFCF0;stroke:#FDFCF0;stroke-width:2.7475;stroke-linecap:round;stroke-miterlimit:10;}
	.st24{fill:#082833;}
	.st25{fill:#585858;}
	.st26{fill:#CB4427;}
	.st27{fill:#EA6124;}
	.st28{fill:#CF3F73;}
	.st29{fill:#E65D87;}
	.st30{fill:#13AEBD;}
	.st31{fill:#D6A889;}
	.st32{fill:#F3C69F;}
	.st33{fill:#0D3754;}
</style>
<g>
	<defs>
		<circle id="SVGID_1_" cx="306" cy="306" r="306"/>
	</defs>
	<use xlink:href="#SVGID_1_"  style="overflow:visible;fill:#00A8B4;"/>
	<clipPath id="SVGID_2_">
		<use xlink:href="#SVGID_1_"  style="overflow:visible;"/>
	</clipPath>
	<g class="st0">
		<g>
			<rect x="181.3" y="227.6" class="st1" width="9.1" height="143.7"/>
			<rect x="83.4" y="227.6" class="st2" width="98" height="143.7"/>
			<rect x="114.2" y="242.7" class="st3" width="45.5" height="7.2"/>
			<rect x="89.9" y="283.2" class="st4" width="94" height="4.8"/>
			<rect x="89.9" y="290.7" class="st4" width="94" height="4.8"/>
			<rect x="89.9" y="298.2" class="st4" width="94" height="4.8"/>
			<rect x="89.9" y="305.8" class="st4" width="48" height="4.8"/>
			<rect x="89.9" y="312.6" class="st4" width="48" height="4.8"/>
			<rect x="135.6" y="326.5" class="st5" width="48" height="4.8"/>
		</g>
		<g>
			<g>
				<path class="st6" d="M234.4,386.5h-35.3c-6.5,0-11.8,5.5-11.8,12.2v13.3"/>
				<path class="st6" d="M187.3,400.7v14.9c0,6.7,5.3,12.2,11.8,12.2h12.8"/>
				<line class="st6" x1="454.4" y1="386.5" x2="197.9" y2="386.5"/>
			</g>
			<g>
				<path class="st7" d="M499.1,489.6h-8.6v17.6c0,1.6-1.3,2.9-2.8,2.9h11.4c1.6,0,2.8-1.3,2.8-2.9v-20.5
					C501.9,488.3,500.6,489.6,499.1,489.6z"/>
				<path class="st8" d="M499.1,399.8h-11.4c1.6,0,2.8,1.3,2.8,2.9v84v2.9h8.6c0.8,0,2.8,0,2.8,0s0-2.1,0-2.9v-84
					C501.9,401.1,500.6,399.8,499.1,399.8z"/>
				<path class="st8" d="M490.5,507.2v-17.6h-2.8H187.3h-2.8v17.6c0,1.6,1.3,2.9,2.8,2.9h300.4C489.2,510.2,490.5,508.8,490.5,507.2
					z"/>
				<path class="st9" d="M487.7,489.6h2.8v-2.9C490.5,488.3,489.2,489.6,487.7,489.6z"/>
				<path class="st2" d="M184.5,402.7v84c0,0.8,0,2.9,0,2.9s2,0,2.8,0h300.4c0.8,0,2.8,0,2.8,0s0-2.1,0-2.9v-84
					c0-1.6-1.3-2.9-2.8-2.9H187.3C185.8,399.8,184.5,401.1,184.5,402.7z"/>
				<g>
					<path class="st3" d="M211.3,435.6c0,1.2-1,2.2-2.1,2.2h-14.3c-1.2,0-2.1-1-2.1-2.2V429c0-1.2,1-2.2,2.1-2.2h14.3
						c1.2,0,2.1,1,2.1,2.2V435.6z"/>
					<path class="st3" d="M234.9,435.6c0,1.2-1,2.2-2.1,2.2h-14.3c-1.2,0-2.1-1-2.1-2.2V429c0-1.2,1-2.2,2.1-2.2h14.3
						c1.2,0,2.1,1,2.1,2.2V435.6z"/>
					<path class="st3" d="M258.5,435.6c0,1.2-1,2.2-2.1,2.2H242c-1.2,0-2.1-1-2.1-2.2V429c0-1.2,1-2.2,2.1-2.2h14.3
						c1.2,0,2.1,1,2.1,2.2V435.6z"/>
					<path class="st3" d="M282.1,435.6c0,1.2-1,2.2-2.1,2.2h-14.3c-1.2,0-2.1-1-2.1-2.2V429c0-1.2,1-2.2,2.1-2.2H280
						c1.2,0,2.1,1,2.1,2.2V435.6z"/>
					<path class="st3" d="M305.8,435.6c0,1.2-1,2.2-2.1,2.2h-14.3c-1.2,0-2.1-1-2.1-2.2V429c0-1.2,1-2.2,2.1-2.2h14.3
						c1.2,0,2.1,1,2.1,2.2V435.6z"/>
					<path class="st3" d="M329.4,435.6c0,1.2-1,2.2-2.1,2.2h-14.3c-1.2,0-2.1-1-2.1-2.2V429c0-1.2,1-2.2,2.1-2.2h14.3
						c1.2,0,2.1,1,2.1,2.2V435.6z"/>
					<path class="st3" d="M353,435.6c0,1.2-1,2.2-2.1,2.2h-14.3c-1.2,0-2.1-1-2.1-2.2V429c0-1.2,1-2.2,2.1-2.2h14.3
						c1.2,0,2.1,1,2.1,2.2V435.6z"/>
					<path class="st3" d="M376.6,435.6c0,1.2-1,2.2-2.1,2.2h-14.3c-1.2,0-2.1-1-2.1-2.2V429c0-1.2,1-2.2,2.1-2.2h14.3
						c1.2,0,2.1,1,2.1,2.2V435.6z"/>
					<path class="st3" d="M400.3,435.6c0,1.2-1,2.2-2.1,2.2h-14.3c-1.2,0-2.1-1-2.1-2.2V429c0-1.2,1-2.2,2.1-2.2h14.3
						c1.2,0,2.1,1,2.1,2.2V435.6z"/>
				</g>
				<g>
					<path class="st3" d="M211.3,449.3c0,1.2-1,2.2-2.1,2.2h-14.3c-1.2,0-2.1-1-2.1-2.2v-6.7c0-1.2,1-2.2,2.1-2.2h14.3
						c1.2,0,2.1,1,2.1,2.2V449.3z"/>
					<path class="st3" d="M234.9,449.3c0,1.2-1,2.2-2.1,2.2h-14.3c-1.2,0-2.1-1-2.1-2.2v-6.7c0-1.2,1-2.2,2.1-2.2h14.3
						c1.2,0,2.1,1,2.1,2.2V449.3z"/>
					<path class="st3" d="M258.5,449.3c0,1.2-1,2.2-2.1,2.2H242c-1.2,0-2.1-1-2.1-2.2v-6.7c0-1.2,1-2.2,2.1-2.2h14.3
						c1.2,0,2.1,1,2.1,2.2V449.3z"/>
					<path class="st3" d="M282.1,449.3c0,1.2-1,2.2-2.1,2.2h-14.3c-1.2,0-2.1-1-2.1-2.2v-6.7c0-1.2,1-2.2,2.1-2.2H280
						c1.2,0,2.1,1,2.1,2.2V449.3z"/>
					<path class="st3" d="M305.8,449.3c0,1.2-1,2.2-2.1,2.2h-14.3c-1.2,0-2.1-1-2.1-2.2v-6.7c0-1.2,1-2.2,2.1-2.2h14.3
						c1.2,0,2.1,1,2.1,2.2V449.3z"/>
					<path class="st3" d="M329.4,449.3c0,1.2-1,2.2-2.1,2.2h-14.3c-1.2,0-2.1-1-2.1-2.2v-6.7c0-1.2,1-2.2,2.1-2.2h14.3
						c1.2,0,2.1,1,2.1,2.2V449.3z"/>
					<path class="st3" d="M353,449.3c0,1.2-1,2.2-2.1,2.2h-14.3c-1.2,0-2.1-1-2.1-2.2v-6.7c0-1.2,1-2.2,2.1-2.2h14.3
						c1.2,0,2.1,1,2.1,2.2V449.3z"/>
					<path class="st3" d="M376.6,449.3c0,1.2-1,2.2-2.1,2.2h-14.3c-1.2,0-2.1-1-2.1-2.2v-6.7c0-1.2,1-2.2,2.1-2.2h14.3
						c1.2,0,2.1,1,2.1,2.2V449.3z"/>
					<path class="st3" d="M400.3,449.3c0,1.2-1,2.2-2.1,2.2h-14.3c-1.2,0-2.1-1-2.1-2.2v-6.7c0-1.2,1-2.2,2.1-2.2h14.3
						c1.2,0,2.1,1,2.1,2.2V449.3z"/>
					<path class="st3" d="M400.3,450.7c0,1.4-1,2.5-2.1,2.5h-14.3c-1.2,0-2.1-1.1-2.1-2.5v-7.6c0-1.4,1-2.5,2.1-2.5h14.3
						c1.2,0,2.1,1.1,2.1,2.5V450.7z"/>
					<path class="st3" d="M400.3,452.1c0,1.6-1,2.9-2.1,2.9h-14.3c-1.2,0-2.1-1.3-2.1-2.9v-8.6c0-1.6,1-2.9,2.1-2.9h14.3
						c1.2,0,2.1,1.3,2.1,2.9V452.1z"/>
					<path class="st3" d="M400.3,453.5c0,1.8-1,3.2-2.1,3.2h-14.3c-1.2,0-2.1-1.4-2.1-3.2V444c0-1.8,1-3.2,2.1-3.2h14.3
						c1.2,0,2.1,1.4,2.1,3.2V453.5z"/>
					<path class="st3" d="M400.3,454.9c0,1.9-1,3.5-2.1,3.5h-14.3c-1.2,0-2.1-1.6-2.1-3.5v-10.5c0-1.9,1-3.5,2.1-3.5h14.3
						c1.2,0,2.1,1.6,2.1,3.5V454.9z"/>
					<path class="st3" d="M400.3,456.3c0,2.1-1,3.8-2.1,3.8h-14.3c-1.2,0-2.1-1.7-2.1-3.8v-11.4c0-2.1,1-3.8,2.1-3.8h14.3
						c1.2,0,2.1,1.7,2.1,3.8V456.3z"/>
					<path class="st3" d="M400.3,457.7c0,2.3-1,4.1-2.1,4.1h-14.3c-1.2,0-2.1-1.8-2.1-4.1v-12.4c0-2.3,1-4.1,2.1-4.1h14.3
						c1.2,0,2.1,1.8,2.1,4.1V457.7z"/>
					<path class="st3" d="M400.3,459.1c0,2.5-1,4.4-2.1,4.4h-14.3c-1.2,0-2.1-2-2.1-4.4v-13.3c0-2.5,1-4.4,2.1-4.4h14.3
						c1.2,0,2.1,2,2.1,4.4V459.1z"/>
					<path class="st3" d="M400.3,460.5c0,2.6-1,4.8-2.1,4.8h-14.3c-1.2,0-2.1-2.1-2.1-4.8v-14.3c0-2.6,1-4.8,2.1-4.8h14.3
						c1.2,0,2.1,2.1,2.1,4.8V460.5z"/>
				</g>
				<g>
					<path class="st3" d="M211.3,463c0,1.2-1,2.2-2.1,2.2h-14.3c-1.2,0-2.1-1-2.1-2.2v-6.7c0-1.2,1-2.2,2.1-2.2h14.3
						c1.2,0,2.1,1,2.1,2.2V463z"/>
					<path class="st3" d="M234.9,463c0,1.2-1,2.2-2.1,2.2h-14.3c-1.2,0-2.1-1-2.1-2.2v-6.7c0-1.2,1-2.2,2.1-2.2h14.3
						c1.2,0,2.1,1,2.1,2.2V463z"/>
					<path class="st3" d="M258.5,463c0,1.2-1,2.2-2.1,2.2H242c-1.2,0-2.1-1-2.1-2.2v-6.7c0-1.2,1-2.2,2.1-2.2h14.3
						c1.2,0,2.1,1,2.1,2.2V463z"/>
					<path class="st3" d="M282.1,463c0,1.2-1,2.2-2.1,2.2h-14.3c-1.2,0-2.1-1-2.1-2.2v-6.7c0-1.2,1-2.2,2.1-2.2H280
						c1.2,0,2.1,1,2.1,2.2V463z"/>
					<path class="st3" d="M305.8,463c0,1.2-1,2.2-2.1,2.2h-14.3c-1.2,0-2.1-1-2.1-2.2v-6.7c0-1.2,1-2.2,2.1-2.2h14.3
						c1.2,0,2.1,1,2.1,2.2V463z"/>
					<path class="st3" d="M329.4,463c0,1.2-1,2.2-2.1,2.2h-14.3c-1.2,0-2.1-1-2.1-2.2v-6.7c0-1.2,1-2.2,2.1-2.2h14.3
						c1.2,0,2.1,1,2.1,2.2V463z"/>
					<path class="st3" d="M353,463c0,1.2-1,2.2-2.1,2.2h-14.3c-1.2,0-2.1-1-2.1-2.2v-6.7c0-1.2,1-2.2,2.1-2.2h14.3
						c1.2,0,2.1,1,2.1,2.2V463z"/>
					<path class="st3" d="M376.6,463c0,1.2-1,2.2-2.1,2.2h-14.3c-1.2,0-2.1-1-2.1-2.2v-6.7c0-1.2,1-2.2,2.1-2.2h14.3
						c1.2,0,2.1,1,2.1,2.2V463z"/>
					<path class="st3" d="M400.3,463c0,1.2-1,2.2-2.1,2.2h-14.3c-1.2,0-2.1-1-2.1-2.2v-6.7c0-1.2,1-2.2,2.1-2.2h14.3
						c1.2,0,2.1,1,2.1,2.2V463z"/>
				</g>
				<g>
					<path class="st3" d="M211.3,476.7c0,1.2-1,2.2-2.1,2.2h-14.3c-1.2,0-2.1-1-2.1-2.2v-6.7c0-1.2,1-2.2,2.1-2.2h14.3
						c1.2,0,2.1,1,2.1,2.2V476.7z"/>
					<path class="st3" d="M234.9,476.7c0,1.2-1,2.2-2.1,2.2h-14.3c-1.2,0-2.1-1-2.1-2.2v-6.7c0-1.2,1-2.2,2.1-2.2h14.3
						c1.2,0,2.1,1,2.1,2.2V476.7z"/>
					<path class="st3" d="M258.5,476.7c0,1.2-1,2.2-2.1,2.2H242c-1.2,0-2.1-1-2.1-2.2v-6.7c0-1.2,1-2.2,2.1-2.2h14.3
						c1.2,0,2.1,1,2.1,2.2V476.7z"/>
					<path class="st3" d="M282.1,476.7c0,1.2-1,2.2-2.1,2.2h-14.3c-1.2,0-2.1-1-2.1-2.2v-6.7c0-1.2,1-2.2,2.1-2.2H280
						c1.2,0,2.1,1,2.1,2.2V476.7z"/>
					<path class="st3" d="M305.8,476.7c0,1.2-1,2.2-2.1,2.2h-14.3c-1.2,0-2.1-1-2.1-2.2v-6.7c0-1.2,1-2.2,2.1-2.2h14.3
						c1.2,0,2.1,1,2.1,2.2V476.7z"/>
					<path class="st3" d="M329.4,476.7c0,1.2-1,2.2-2.1,2.2h-14.3c-1.2,0-2.1-1-2.1-2.2v-6.7c0-1.2,1-2.2,2.1-2.2h14.3
						c1.2,0,2.1,1,2.1,2.2V476.7z"/>
					<path class="st3" d="M353,476.7c0,1.2-1,2.2-2.1,2.2h-14.3c-1.2,0-2.1-1-2.1-2.2v-6.7c0-1.2,1-2.2,2.1-2.2h14.3
						c1.2,0,2.1,1,2.1,2.2V476.7z"/>
					<path class="st3" d="M376.6,476.7c0,1.2-1,2.2-2.1,2.2h-14.3c-1.2,0-2.1-1-2.1-2.2v-6.7c0-1.2,1-2.2,2.1-2.2h14.3
						c1.2,0,2.1,1,2.1,2.2V476.7z"/>
					<path class="st3" d="M400.3,476.7c0,1.2-1,2.2-2.1,2.2h-14.3c-1.2,0-2.1-1-2.1-2.2v-6.7c0-1.2,1-2.2,2.1-2.2h14.3
						c1.2,0,2.1,1,2.1,2.2V476.7z"/>
				</g>
				<path class="st3" d="M429.1,435.6c0,1.2-1,2.2-2.1,2.2h-14.3c-1.2,0-2.1-1-2.1-2.2V429c0-1.2,1-2.2,2.1-2.2H427
					c1.2,0,2.1,1,2.1,2.2V435.6z"/>
				<path class="st3" d="M450,435.6c0,1.2-1,2.2-2.1,2.2h-14.3c-1.2,0-2.1-1-2.1-2.2V429c0-1.2,1-2.2,2.1-2.2h14.3
					c1.2,0,2.1,1,2.1,2.2V435.6z"/>
				<path class="st10" d="M468.7,426.8h-2.2c1.2,0,2.1,1,2.1,2.2v6.7c0,1.2-1,2.2-2.1,2.2h2.2c1.2,0,2.1-1,2.1-2.2V429
					C470.8,427.8,469.9,426.8,468.7,426.8z"/>
				<path class="st3" d="M468.6,435.6V429c0-1.2-1-2.2-2.1-2.2h-12.1c-1.2,0-2.1,1-2.1,2.2v6.7c0,1.2,1,2.2,2.1,2.2h12.1
					C467.6,437.9,468.6,436.9,468.6,435.6z"/>
				<path class="st3" d="M429.1,449.3c0,1.2-1,2.2-2.1,2.2h-14.3c-1.2,0-2.1-1-2.1-2.2v-6.7c0-1.2,1-2.2,2.1-2.2H427
					c1.2,0,2.1,1,2.1,2.2V449.3z"/>
				<path class="st3" d="M450,449.3c0,1.2-1,2.2-2.1,2.2h-14.3c-1.2,0-2.1-1-2.1-2.2v-6.7c0-1.2,1-2.2,2.1-2.2h14.3
					c1.2,0,2.1,1,2.1,2.2V449.3z"/>
				<path class="st3" d="M450,463c0,1.2-1,2.2-2.1,2.2h-14.3c-1.2,0-2.1-1-2.1-2.2v-6.7c0-1.2,1-2.2,2.1-2.2h14.3
					c1.2,0,2.1,1,2.1,2.2V463z"/>
				<path class="st3" d="M450,476.7c0,1.2-1,2.2-2.1,2.2h-14.3c-1.2,0-2.1-1-2.1-2.2v-6.7c0-1.2,1-2.2,2.1-2.2h14.3
					c1.2,0,2.1,1,2.1,2.2V476.7z"/>
				<path class="st3" d="M322.2,467.8h-13.1h-1.2h-2.3h-9.7h-1.2h-2.3h-1.2h-6.2h-3.5h-2.3h-1.2h-7.4h-2.3H265h-10.8
					c-1.2,0-2.1,1-2.1,2.2v6.7c0,1.2,1,2.2,2.1,2.2H265h3.5h2.3h7.4h1.2h2.3h3.5h6.2h1.2h2.3h1.2h9.7h2.3h1.2h13.1
					c1.2,0,2.1-1,2.1-2.2v-6.7C324.3,468.8,323.4,467.8,322.2,467.8z"/>
				<path class="st3" d="M429.1,476.7c0,1.2-1,2.2-2.1,2.2h-14.3c-1.2,0-2.1-1-2.1-2.2v-6.7c0-1.2,1-2.2,2.1-2.2H427
					c1.2,0,2.1,1,2.1,2.2V476.7z"/>
				<path class="st3" d="M470.8,476.7c0,1.2-1,2.2-2.1,2.2h-14.3c-1.2,0-2.1-1-2.1-2.2v-6.7c0-1.2,1-2.2,2.1-2.2h14.3
					c1.2,0,2.1,1,2.1,2.2V476.7z"/>
				<path class="st3" d="M470.8,449.3c0,1.2-1,2.2-2.1,2.2h-14.3c-1.2,0-2.1-1-2.1-2.2v-6.7c0-1.2,1-2.2,2.1-2.2h14.3
					c1.2,0,2.1,1,2.1,2.2V449.3z"/>
				<line class="st11" x1="396" y1="413.1" x2="207" y2="413.1"/>
				<g>
				</g>
				<g>
				</g>
				<rect x="477" y="404.7" class="st12" width="2" height="8.4"/>
				<rect x="481.1" y="404.7" class="st4" width="2" height="8.4"/>
				<path class="st10" d="M468.7,440.5h-2.2c1.2,0,2.1,1,2.1,2.2v6.7c0,1.2-1,2.2-2.1,2.2h2.2c1.2,0,2.1-1,2.1-2.2v-6.7
					C470.8,441.4,469.9,440.5,468.7,440.5z"/>
				<path class="st10" d="M468.6,467.8h-2.2c1.2,0,2.1,1,2.1,2.2v6.7c0,1.2-1,2.2-2.1,2.2h2.2c1.2,0,2.1-1,2.1-2.2v-6.7
					C470.8,468.8,469.8,467.8,468.6,467.8z"/>
				<path class="st10" d="M447.7,467.8h-2.2c1.2,0,2.1,1,2.1,2.2v6.7c0,1.2-1,2.2-2.1,2.2h2.2c1.2,0,2.1-1,2.1-2.2v-6.7
					C449.9,468.8,448.9,467.8,447.7,467.8z"/>
				<path class="st10" d="M447.8,454.2h-2.2c1.2,0,2.1,1,2.1,2.2v6.7c0,1.2-1,2.2-2.1,2.2h2.2c1.2,0,2.1-1,2.1-2.2v-6.7
					C450,455.1,449,454.2,447.8,454.2z"/>
				<path class="st10" d="M447.8,440.5h-2.2c1.2,0,2.1,1,2.1,2.2v6.7c0,1.2-1,2.2-2.1,2.2h2.2c1.2,0,2.1-1,2.1-2.2v-6.7
					C450,441.4,449,440.5,447.8,440.5z"/>
				<path class="st10" d="M427,467.8h-2.2c1.2,0,2.1,1,2.1,2.2v6.7c0,1.2-1,2.2-2.1,2.2h2.2c1.2,0,2.1-1,2.1-2.2v-6.7
					C429.1,468.8,428.2,467.8,427,467.8z"/>
				<path class="st10" d="M398.2,467.8H396c1.2,0,2.1,1,2.1,2.2v6.7c0,1.2-1,2.2-2.1,2.2h2.2c1.2,0,2.1-1,2.1-2.2v-6.7
					C400.4,468.8,399.4,467.8,398.2,467.8z"/>
				<path class="st10" d="M398.2,426.8H396c1.2,0,2.1,1,2.1,2.2v6.7c0,1.2-1,2.2-2.1,2.2h2.2c1.2,0,2.1-1,2.1-2.2V429
					C400.4,427.8,399.4,426.8,398.2,426.8z"/>
				<path class="st10" d="M374.5,426.8h-2.2c1.2,0,2.1,1,2.1,2.2v6.7c0,1.2-1,2.2-2.1,2.2h2.2c1.2,0,2.1-1,2.1-2.2V429
					C376.7,427.8,375.7,426.8,374.5,426.8z"/>
				<path class="st10" d="M350.8,426.8h-2.2c1.2,0,2.1,1,2.1,2.2v6.7c0,1.2-1,2.2-2.1,2.2h2.2c1.2,0,2.1-1,2.1-2.2V429
					C352.9,427.8,352,426.8,350.8,426.8z"/>
				<path class="st10" d="M327.3,426.8h-2.2c1.2,0,2.1,1,2.1,2.2v6.7c0,1.2-1,2.2-2.1,2.2h2.2c1.2,0,2.1-1,2.1-2.2V429
					C329.5,427.8,328.5,426.8,327.3,426.8z"/>
				<path class="st10" d="M303.7,426.8h-2.2c1.2,0,2.1,1,2.1,2.2v6.7c0,1.2-1,2.2-2.1,2.2h2.2c1.2,0,2.1-1,2.1-2.2V429
					C305.9,427.8,304.9,426.8,303.7,426.8z"/>
				<path class="st10" d="M279.9,426.8h-2.2c1.2,0,2.1,1,2.1,2.2v6.7c0,1.2-1,2.2-2.1,2.2h2.2c1.2,0,2.1-1,2.1-2.2V429
					C282,427.8,281.1,426.8,279.9,426.8z"/>
				<path class="st10" d="M256.4,426.8h-2.2c1.2,0,2.1,1,2.1,2.2v6.7c0,1.2-1,2.2-2.1,2.2h2.2c1.2,0,2.1-1,2.1-2.2V429
					C258.5,427.8,257.5,426.8,256.4,426.8z"/>
				<path class="st10" d="M232.8,426.8h-2.2c1.2,0,2.1,1,2.1,2.2v6.7c0,1.2-1,2.2-2.1,2.2h2.2c1.2,0,2.1-1,2.1-2.2V429
					C235,427.8,234,426.8,232.8,426.8z"/>
				<path class="st10" d="M209.4,426.8h-2.2c1.2,0,2.1,1,2.1,2.2v6.7c0,1.2-1,2.2-2.1,2.2h2.2c1.2,0,2.1-1,2.1-2.2V429
					C211.6,427.8,210.6,426.8,209.4,426.8z"/>
				<path class="st10" d="M374.5,440.5h-2.2c1.2,0,2.1,1,2.1,2.2v6.7c0,1.2-1,2.2-2.1,2.2h2.2c1.2,0,2.1-1,2.1-2.2v-6.7
					C376.7,441.4,375.7,440.5,374.5,440.5z"/>
				<path class="st10" d="M350.8,440.5h-2.2c1.2,0,2.1,1,2.1,2.2v6.7c0,1.2-1,2.2-2.1,2.2h2.2c1.2,0,2.1-1,2.1-2.2v-6.7
					C352.9,441.4,352,440.5,350.8,440.5z"/>
				<path class="st10" d="M327.3,440.5h-2.2c1.2,0,2.1,1,2.1,2.2v6.7c0,1.2-1,2.2-2.1,2.2h2.2c1.2,0,2.1-1,2.1-2.2v-6.7
					C329.5,441.4,328.5,440.5,327.3,440.5z"/>
				<path class="st10" d="M303.7,440.5h-2.2c1.2,0,2.1,1,2.1,2.2v6.7c0,1.2-1,2.2-2.1,2.2h2.2c1.2,0,2.1-1,2.1-2.2v-6.7
					C305.9,441.4,304.9,440.5,303.7,440.5z"/>
				<path class="st10" d="M279.9,440.5h-2.2c1.2,0,2.1,1,2.1,2.2v6.7c0,1.2-1,2.2-2.1,2.2h2.2c1.2,0,2.1-1,2.1-2.2v-6.7
					C282,441.4,281.1,440.5,279.9,440.5z"/>
				<path class="st10" d="M256.4,440.5h-2.2c1.2,0,2.1,1,2.1,2.2v6.7c0,1.2-1,2.2-2.1,2.2h2.2c1.2,0,2.1-1,2.1-2.2v-6.7
					C258.5,441.4,257.5,440.5,256.4,440.5z"/>
				<path class="st10" d="M232.8,440.5h-2.2c1.2,0,2.1,1,2.1,2.2v6.7c0,1.2-1,2.2-2.1,2.2h2.2c1.2,0,2.1-1,2.1-2.2v-6.7
					C235,441.4,234,440.5,232.8,440.5z"/>
				<path class="st10" d="M209.4,440.5h-2.2c1.2,0,2.1,1,2.1,2.2v6.7c0,1.2-1,2.2-2.1,2.2h2.2c1.2,0,2.1-1,2.1-2.2v-6.7
					C211.6,441.4,210.6,440.5,209.4,440.5z"/>
				<path class="st10" d="M374.5,454.2h-2.2c1.2,0,2.1,1,2.1,2.2v6.7c0,1.2-1,2.2-2.1,2.2h2.2c1.2,0,2.1-1,2.1-2.2v-6.7
					C376.7,455.1,375.7,454.2,374.5,454.2z"/>
				<path class="st10" d="M374.5,467.8h-2.2c1.2,0,2.1,1,2.1,2.2v6.7c0,1.2-1,2.2-2.1,2.2h2.2c1.2,0,2.1-1,2.1-2.2v-6.7
					C376.7,468.8,375.7,467.8,374.5,467.8z"/>
				<path class="st10" d="M350.8,454.2h-2.2c1.2,0,2.1,1,2.1,2.2v6.7c0,1.2-1,2.2-2.1,2.2h2.2c1.2,0,2.1-1,2.1-2.2v-6.7
					C352.9,455.1,352,454.2,350.8,454.2z"/>
				<path class="st10" d="M350.8,467.8h-2.2c1.2,0,2.1,1,2.1,2.2v6.7c0,1.2-1,2.2-2.1,2.2h2.2c1.2,0,2.1-1,2.1-2.2v-6.7
					C352.9,468.8,352,467.8,350.8,467.8z"/>
				<path class="st10" d="M327.3,454.2h-2.2c1.2,0,2.1,1,2.1,2.2v6.7c0,1.2-1,2.2-2.1,2.2h2.2c1.2,0,2.1-1,2.1-2.2v-6.7
					C329.5,455.1,328.5,454.2,327.3,454.2z"/>
				<path class="st10" d="M327.3,467.8h-2.2c1.2,0,2.1,1,2.1,2.2v6.7c0,1.2-1,2.2-2.1,2.2h2.2c1.2,0,2.1-1,2.1-2.2v-6.7
					C329.5,468.8,328.5,467.8,327.3,467.8z"/>
				<path class="st10" d="M303.7,454.2h-2.2c1.2,0,2.1,1,2.1,2.2v6.7c0,1.2-1,2.2-2.1,2.2h2.2c1.2,0,2.1-1,2.1-2.2v-6.7
					C305.9,455.1,304.9,454.2,303.7,454.2z"/>
				<path class="st10" d="M279.9,454.2h-2.2c1.2,0,2.1,1,2.1,2.2v6.7c0,1.2-1,2.2-2.1,2.2h2.2c1.2,0,2.1-1,2.1-2.2v-6.7
					C282,455.1,281.1,454.2,279.9,454.2z"/>
				<path class="st10" d="M256.4,454.2h-2.2c1.2,0,2.1,1,2.1,2.2v6.7c0,1.2-1,2.2-2.1,2.2h2.2c1.2,0,2.1-1,2.1-2.2v-6.7
					C258.5,455.1,257.5,454.2,256.4,454.2z"/>
				<path class="st10" d="M232.8,454.2h-2.2c1.2,0,2.1,1,2.1,2.2v6.7c0,1.2-1,2.2-2.1,2.2h2.2c1.2,0,2.1-1,2.1-2.2v-6.7
					C235,455.1,234,454.2,232.8,454.2z"/>
				<path class="st10" d="M232.8,467.8h-2.2c1.2,0,2.1,1,2.1,2.2v6.7c0,1.2-1,2.2-2.1,2.2h2.2c1.2,0,2.1-1,2.1-2.2v-6.7
					C235,468.8,234,467.8,232.8,467.8z"/>
				<path class="st10" d="M209.4,454.2h-2.2c1.2,0,2.1,1,2.1,2.2v6.7c0,1.2-1,2.2-2.1,2.2h2.2c1.2,0,2.1-1,2.1-2.2v-6.7
					C211.6,455.1,210.6,454.2,209.4,454.2z"/>
				<path class="st10" d="M209.4,467.8h-2.2c1.2,0,2.1,1,2.1,2.2v6.7c0,1.2-1,2.2-2.1,2.2h2.2c1.2,0,2.1-1,2.1-2.2v-6.7
					C211.6,468.8,210.6,467.8,209.4,467.8z"/>
				<path class="st10" d="M447.8,426.8h-2.2c1.2,0,2.1,1,2.1,2.2v6.7c0,1.2-1,2.2-2.1,2.2h2.2c1.2,0,2.1-1,2.1-2.2V429
					C450,427.8,449,426.8,447.8,426.8z"/>
				<path class="st10" d="M427,426.8h-2.2c1.2,0,2.1,1,2.1,2.2v6.7c0,1.2-1,2.2-2.1,2.2h2.2c1.2,0,2.1-1,2.1-2.2V429
					C429.1,427.8,428.2,426.8,427,426.8z"/>
				<path class="st10" d="M427,440.5h-2.2c1.2,0,2.1,1,2.1,2.2v6.7c0,1.2-1,2.2-2.1,2.2h2.2c1.2,0,2.1-1,2.1-2.2v-6.7
					C429.1,441.4,428.2,440.5,427,440.5z"/>
				<path class="st10" d="M400.3,445.7L400.3,445.7l0-3c0-1.2-1-2.2-2.1-2.2h-2.2c1.2,0,2.1,1,2.1,2.2v3.3h0v13.7l0,3.3
					c0,1.2-1,2.2-2.1,2.2h2.2c1.2,0,2.1-1,2.1-2.2v-2.5h0V445.7z"/>
			</g>
			<path class="st6" d="M542.6,418.8V399c0-6.7-6.4-12.2-15.1-12.7l-51,0.2"/>
			<line class="st6" x1="418" y1="386.5" x2="479.1" y2="386.5"/>
			<g>
				<g>
					<path class="st8" d="M565.6,453.6c0-20.9-10.4-37.8-23.3-37.8c-2.9,0-5.7,0.9-8.2,2.4c1.3-0.4,2.6-0.6,4-0.6
						c12.9,0,23.3,16.9,23.3,37.8c0,16.2-6.3,29.9-15.1,35.3C557.3,487.8,565.6,472.3,565.6,453.6z"/>
					<path class="st2" d="M561.4,455.5c0-20.9-10.4-37.8-23.3-37.8c-1.4,0-2.7,0.2-4,0.6c-8.8,5.4-15.1,19.2-15.1,35.3
						c0,20.9,10.4,37.8,23.3,37.8c1.4,0,2.7-0.2,4-0.6C555.1,485.4,561.4,471.6,561.4,455.5z"/>
				</g>
				<path class="st10" d="M542.3,427.6c1.8,0,3.3,1.5,3.3,3.4v13.8h15.3c-2.4-14.4-9.8-24.9-18.6-24.9c-8.8,0-16.2,10.5-18.6,24.9
					H539V431C539,429.1,540.5,427.6,542.3,427.6z"/>
				<path class="st3" d="M545.6,431c0-1.9-1.5-3.4-3.3-3.4c-1.8,0-3.3,1.5-3.3,3.4v13.8h6.6V431z"/>
			</g>
		</g>
		<g>
			<g>
				<path class="st13" d="M476.9,358H468c5.5,0,10.3,3.2,12.8,7.9h8.8C487.2,361.3,482.4,358,476.9,358z"/>
				<path class="st3" d="M468,358h-160c-5.5,0-10.3,3.2-12.8,7.9h185.6C478.4,361.3,473.6,358,468,358z"/>
				<path class="st13" d="M528.4,151.3h-4c3.5,0,6.3,2.9,6.3,6.6v169.5h4V157.8C534.8,154.2,531.9,151.3,528.4,151.3z"/>
				<path class="st3" d="M524.5,151.3h-268c-3.5,0-6.3,2.9-6.3,6.6v169.5h280.6V157.8C530.8,154.2,528,151.3,524.5,151.3z"/>
				<polygon class="st12" points="254.1,327.3 530.8,327.3 530.8,170.5 				"/>
				<polygon class="st14" points="254.1,170.5 254.1,327.3 530.8,170.5 				"/>
				<path class="st8" d="M530.8,327.3V340c0,3.6-2.8,6.6-6.3,6.6h4c3.5,0,6.3-2.9,6.3-6.6v-12.7H530.8z"/>
				<path class="st2" d="M530.8,340v-12.7H250.2V340c0,3.6,2.8,6.6,6.3,6.6h268C528,346.6,530.8,343.7,530.8,340z"/>
				<polygon class="st15" points="435.9,349.1 435.9,346.6 349.1,346.6 349.1,358 349.1,358 349.1,349.1 				"/>
				<rect x="349.1" y="349.1" class="st4" width="86.8" height="8.9"/>
				<path class="st3" d="M404.7,337c0,1.3-1,2.3-2.3,2.3h-19.9c-1.3,0-2.3-1-2.3-2.3l0,0c0-1.3,1-2.3,2.3-2.3h19.9
					C403.7,334.7,404.7,335.7,404.7,337L404.7,337z"/>
			</g>
			<rect x="330.6" y="302.7" class="st16" width="119.7" height="11.8"/>
			<rect x="334.9" y="305.4" class="st4" width="12.2" height="6.3"/>
			<path class="st2" d="M319.4,267.3c0,0-0.1-0.1-0.3-0.4c-0.1,0.1-0.1,0.1-0.1,0.1s-1.2-1.6-3-4.1c-5.9-8.3-18.4-27-18.4-36.3
				c0-11.2,8-20.4,18.4-21.9c1-0.1,2-0.2,3-0.2c3.8,0,7.4,1,10.5,2.9c0.1,0.1,0.3,0.2,0.4,0.2l36.2,21.1
				c-1.4-25.6-22-45.9-47.1-45.9c-26.1,0-47.2,21.9-47.2,48.8c0,27,21.1,48.8,47.2,48.8c5.9,0,11.6-1.1,16.8-3.2
				c0.2-0.1,0.3-0.1,0.5-0.2l-16.7-9.9C319.5,267.2,319.4,267.3,319.4,267.3z"/>
			<path class="st17" d="M366.2,231.6c0-0.8,0-1.6-0.1-2.3c0-0.2,0-0.3,0-0.5L330,207.5c-0.1-0.1-0.3-0.2-0.4-0.2
				c-3.1-1.8-6.7-2.9-10.5-2.9c-1,0-2,0.1-3,0.2c-10.4,1.5-18.4,10.7-18.4,21.9c0,9.3,12.5,28,18.4,36.3c1.8,2.5,3,4.1,3,4.1
				s0-0.1,0.1-0.1c0.2,0.2,0.3,0.4,0.3,0.4s0-0.1,0.1-0.1l16.7,9.9C353.8,269.9,366.2,252.2,366.2,231.6z"/>
			<g>
				<g>
					<path class="st18" d="M340.4,226.6c0-12.2-9.6-22.1-21.4-22.1c-1,0-2,0.1-3,0.2c10.4,1.5,18.4,10.7,18.4,21.9
						c0,9.3-12.5,28-18.4,36.3c1.8,2.5,3,4.1,3,4.1S340.4,238.8,340.4,226.6z"/>
					<path class="st19" d="M316,204.7c-10.4,1.5-18.4,10.7-18.4,21.9c0,9.3,12.5,28,18.4,36.3c5.9-8.3,18.4-27,18.4-36.3
						C334.4,215.4,326.4,206.2,316,204.7z"/>
					<g>
						<ellipse class="st2" cx="319" cy="227.7" rx="9.9" ry="10.2"/>
					</g>
				</g>
			</g>
			<g>
				<path class="st17" d="M449.3,183.9c-0.1,0.9-0.4,1.7-1.1,2.4l-0.8,0.8c0,0.3,0.1,0.5,0.1,0.8v24c0,2.3-1.8,4.2-4.1,4.2h4.7
					c2.2,0,4.1-1.9,4.1-4.2v-24C452.1,186,450.9,184.4,449.3,183.9z"/>
				<path class="st20" d="M447.4,187.1l-18.7,19.4c-1.4,1.4-3.5,1.5-5,0.3c-0.1-0.1-0.2-0.2-0.3-0.3l-19.6-20.2
					c-0.5-0.5-0.8-1.2-1-1.9c-1.1,0.8-1.8,2-1.8,3.5v0.3v23.8c0,2.3,1.8,4.2,4.1,4.2h38.4c2.2,0,4.1-1.9,4.1-4.2v-24
					C447.5,187.6,447.4,187.4,447.4,187.1z"/>
				<path class="st21" d="M448.1,183.7h-43c-0.8,0-1.6,0.3-2.2,0.7c0.1,0.7,0.5,1.4,1,1.9l19.6,20.2c0.1,0.1,0.2,0.2,0.3,0.3
					c1.5,1.2,3.6,1.2,5-0.3l18.7-19.4l0.8-0.8c0.6-0.7,1-1.5,1.1-2.4C448.9,183.8,448.5,183.7,448.1,183.7z"/>
				<path class="st17" d="M489,224.6c-0.1,0.9-0.4,1.7-1.1,2.4l-0.8,0.8c0,0.2,0.1,0.5,0.1,0.8v24c0,2.3-1.8,4.2-4.1,4.2h4.7
					c2.2,0,4.1-1.9,4.1-4.2v-24C491.9,226.7,490.7,225.1,489,224.6z"/>
				<path class="st20" d="M487.1,227.8l-18.7,19.4c-1.4,1.4-3.5,1.5-5,0.3c-0.1-0.1-0.2-0.2-0.3-0.3L443.6,227
					c-0.5-0.5-0.8-1.2-1-1.9c-1.1,0.8-1.8,2-1.8,3.5v0.3v23.8c0,2.3,1.8,4.2,4.1,4.2h38.4c2.2,0,4.1-1.9,4.1-4.2v-24
					C487.2,228.3,487.2,228,487.1,227.8z"/>
				<path class="st21" d="M487.8,224.4h-43c-0.8,0-1.6,0.3-2.2,0.7c0.1,0.7,0.5,1.4,1,1.9l19.6,20.2c0.1,0.1,0.2,0.2,0.3,0.3
					c1.5,1.2,3.6,1.2,5-0.3l18.7-19.4l0.8-0.8c0.6-0.7,1-1.5,1.1-2.4C488.6,224.5,488.2,224.4,487.8,224.4z"/>
				<path class="st22" d="M435.6,253.2h-28c-2.1,0-3.7-1.7-3.7-3.9v-29"/>
				<path class="st22" d="M455.8,187.5h28c2.1,0,3.7,1.7,3.7,3.9v29"/>
				<polygon class="st23" points="399.5,226.6 403.8,218.9 408.1,226.6 				"/>
				<polygon class="st23" points="483.2,212.3 487.5,220 491.9,212.3 				"/>
			</g>
			<g>
				<path class="st24" d="M435.6,252.8c5.5-0.5,11.1,0.5,16.4,3.2c13.4,6.9,19.8,22.7,15.8,37.1l45.4,23.3l0.7-1.5l-45.7-23.5
					c4-14.4-2.4-30.2-15.8-37.1c-5.3-2.7-10.9-3.7-16.4-3.2c-10.2,1-19.7,7.2-24.6,17.4c-1,2-1.7,4.1-2.2,6.2c0.5-1.5,1.1-3,1.8-4.5
					C415.9,260,425.4,253.7,435.6,252.8z"/>
				<path class="st10" d="M425.3,311c3.5,1.8,7.2,2.8,10.9,3.2c9.6,0.9,19.1-3,25.6-10.5c0.5-0.6,1.1-1.3,1.6-2l41.3,21.3l4.3,2.2
					l4.2-8.7L467.9,293c4-14.4-2.4-30.2-15.8-37.1c-5.3-2.7-10.9-3.7-16.4-3.2c-10.2,1-19.7,7.2-24.6,17.4c-0.7,1.5-1.3,3-1.8,4.5
					C405.7,288.9,412.1,304.2,425.3,311z"/>
				<path class="st9" d="M450.1,259.2c-12.5-6.4-27.7-1.2-33.9,11.8c-0.6,1.2-1,2.3-1.4,3.5c6.7-11.7,21.1-16.3,33-10.1
					c11.4,5.9,16.6,19.4,12.8,31.5c0.3-0.5,0.6-1.1,0.9-1.6C467.7,281.3,462.7,265.6,450.1,259.2z"/>
				<path class="st2" d="M447.9,264.4c-12-6.1-26.3-1.6-33,10.1c-3.9,12.1,1.4,25.7,12.8,31.5c12,6.1,26.3,1.6,33-10.1
					C464.5,283.8,459.3,270.2,447.9,264.4z"/>
			</g>
		</g>
		<g>
			
				<rect x="139.5" y="419.1" transform="matrix(0.9998 -1.912342e-02 1.912342e-02 0.9998 -8.0406 2.9138)" class="st5" width="17.7" height="5.6"/>
			
				<rect x="139.3" y="406.3" transform="matrix(0.9998 -1.907309e-02 1.907309e-02 0.9998 -7.8462 2.9009)" class="st1" width="17.7" height="13"/>
			
				<rect x="140.8" y="409.1" transform="matrix(0.9998 -1.891102e-02 1.891102e-02 0.9998 -7.7312 2.8185)" class="st25" width="8.7" height="2.3"/>
			
				<rect x="140.9" y="415.2" transform="matrix(0.9998 -1.909841e-02 1.909841e-02 0.9998 -7.9244 2.8505)" class="st25" width="8.7" height="2.3"/>
			
				<rect x="134.3" y="421" transform="matrix(0.9998 -1.901581e-02 1.901581e-02 0.9998 -8.0403 2.6801)" class="st12" width="5.2" height="6.3"/>
			
				<rect x="134.1" y="403.7" transform="matrix(0.9998 -1.901763e-02 1.901763e-02 0.9998 -7.8175 2.674)" class="st14" width="5.2" height="17.2"/>
			<g>
				<path class="st26" d="M134.3,423.5l-47.7,0.9c-2.1,0-3.9-2-4-4.5l0.1,7.2c0,2.5,1.8,4.5,4,4.5l47.7-0.9L134.3,423.5z"/>
				<path class="st27" d="M86.6,424.4l47.7-0.9l-0.4-23.5L86.2,401c-2.1,0-3.8,2.1-3.8,4.6l0.3,14.4
					C82.7,422.5,84.5,424.5,86.6,424.4z"/>
			</g>
		</g>
		<g>
			<g>
				<polygon class="st28" points="220.8,209.9 230.8,209.9 230.8,109.2 84,109.2 84,109.2 220.8,109.2 				"/>
			</g>
			<g>
				<rect x="84" y="109.2" class="st29" width="136.8" height="100.7"/>
			</g>
			<rect x="96.5" y="119.3" class="st20" width="119.6" height="76.4"/>
			<path class="st10" d="M109.5,122.5c0,2.1-1.7,3.8-3.8,3.8l0,0c-2.1,0-3.8-1.7-3.8-3.8v-19.8c0-2.1,1.7-3.8,3.8-3.8l0,0
				c2.1,0,3.8,1.7,3.8,3.8V122.5z"/>
			<path class="st10" d="M130.4,122.5c0,2.1-1.7,3.8-3.8,3.8l0,0c-2.1,0-3.8-1.7-3.8-3.8v-19.8c0-2.1,1.7-3.8,3.8-3.8l0,0
				c2.1,0,3.8,1.7,3.8,3.8V122.5z"/>
			<path class="st10" d="M151.2,122.5c0,2.1-1.7,3.8-3.8,3.8l0,0c-2.1,0-3.8-1.7-3.8-3.8v-19.8c0-2.1,1.7-3.8,3.8-3.8l0,0
				c2.1,0,3.8,1.7,3.8,3.8V122.5z"/>
			<path class="st10" d="M172.1,122.5c0,2.1-1.7,3.8-3.8,3.8l0,0c-2.1,0-3.8-1.7-3.8-3.8v-19.8c0-2.1,1.7-3.8,3.8-3.8l0,0
				c2.1,0,3.8,1.7,3.8,3.8V122.5z"/>
			<path class="st10" d="M192.9,122.5c0,2.1-1.7,3.8-3.8,3.8l0,0c-2.1,0-3.8-1.7-3.8-3.8v-19.8c0-2.1,1.7-3.8,3.8-3.8l0,0
				c2.1,0,3.8,1.7,3.8,3.8V122.5z"/>
			<path class="st10" d="M213.8,122.5c0,2.1-1.7,3.8-3.8,3.8l0,0c-2.1,0-3.8-1.7-3.8-3.8v-19.8c0-2.1,1.7-3.8,3.8-3.8l0,0
				c2.1,0,3.8,1.7,3.8,3.8V122.5z"/>
			<rect x="114.6" y="136.3" class="st30" width="24.6" height="6.8"/>
			<rect x="144" y="136.3" class="st30" width="24.6" height="6.8"/>
			<rect x="173.4" y="136.3" class="st30" width="24.6" height="6.8"/>
			<rect x="114.6" y="148.5" class="st8" width="24.6" height="6.8"/>
			<rect x="144" y="148.5" class="st8" width="24.6" height="6.8"/>
			<rect x="173.4" y="148.5" class="st8" width="24.6" height="6.8"/>
			<rect x="114.6" y="160.7" class="st8" width="24.6" height="6.8"/>
			<rect x="144" y="160.7" class="st8" width="24.6" height="6.8"/>
			<rect x="173.4" y="160.7" class="st8" width="24.6" height="6.8"/>
			<rect x="114.6" y="172.9" class="st8" width="24.6" height="6.8"/>
			<rect x="144" y="172.9" class="st8" width="24.6" height="6.8"/>
			<rect x="173.4" y="172.9" class="st8" width="24.6" height="6.8"/>
		</g>
		<g>
			<g>
				<g>
					<path class="st31" d="M310.4,476.9c0-8.7-2.6-13.2-5.8-13.2c-3.2,0-5.8,4.4-5.8,13.2c0,0.2,0,0.4,0,0.6h0l1.4,35.8l2.9-2
						l7.3-33.8h0C310.4,477.3,310.4,477.1,310.4,476.9z"/>
					<path class="st32" d="M303.2,435.1c0-8.7-2.6-13.2-5.8-13.2c-3.2,0-5.8,4.4-5.8,13.2c0,0.2,0,0.4,0,0.6h0v29.1v0.6h0
						c0-0.2,0-0.4,0-0.6c0-8.7-2.6-13.2-5.8-13.2c-3.2,0-5.8,4.4-5.8,13.2c0,0.2,0,0.4,0,0.6h0v3.6v0.6h0c0-0.2,0-0.4,0-0.6
						c0-8.7-2.6-13.2-5.8-13.2c-3.2,0-5.8,4.4-5.8,13.2c0,0.2,0,0.4,0,0.6h0v5.5c-0.8-5.5-2.9-8.3-5.5-8.3c-3.2,0-5.8,4.4-5.8,13.2
						v0.6v30.5l24.3,15.2l21.6-15v-29.9v-1.1v-44.5h0C303.2,435.5,303.2,435.3,303.2,435.1z"/>
					<path class="st2" d="M297.4,426.3c2.2,0,4.1,2.7,4.4,6.2c0-0.4,0.1-0.7,0.1-1.1c0-4-2-7.3-4.5-7.3c-2.5,0-4.5,3.3-4.5,7.3
						c0,0.4,0,0.7,0.1,1.1C293.3,429,295.2,426.3,297.4,426.3z"/>
					<path class="st31" d="M297.4,438.6c2.2,0,4.1-2.7,4.4-6.2c-0.3-3.5-2.2-6.2-4.4-6.2c-2.2,0-4.1,2.7-4.4,6.2
						C293.3,435.9,295.2,438.6,297.4,438.6z"/>
				</g>
				<rect x="293" y="511.1" class="st9" width="10.2" height="28.4"/>
				<rect x="257.3" y="511.1" class="st2" width="35.7" height="28.4"/>
			</g>
			<rect x="297.6" y="539.5" class="st33" width="9.4" height="82.4"/>
			<rect x="253.4" y="539.5" class="st3" width="44.2" height="82.4"/>
		</g>
	</g>
</g>
</svg>
