<?xml version="1.0" encoding="utf-8"?>
<!-- Generator: Adobe Illustrator 20.0.0, SVG Export Plug-In . SVG Version: 6.00 Build 0)  -->
<svg version="1.1" id="Layer_1" xmlns="http://www.w3.org/2000/svg" xmlns:xlink="http://www.w3.org/1999/xlink" x="0px" y="0px"
	 viewBox="0 0 612 612" style="enable-background:new 0 0 612 612;" xml:space="preserve">
<style type="text/css">
	.st0{fill:#14E3ED;}
	.st1{fill:#012C44;}
	.st2{fill:#13CACE;}
	.st3{fill:#2D79AB;}
	.st4{fill:#001823;}
	.st5{fill:#FFFFFF;}
	.st6{fill:#515151;}
	.st7{display:none;opacity:0.1;}
	.st8{display:inline;}
	.st9{fill:#F8B57A;}
	.st10{fill:#0082C4;}
	.st11{fill:#9CB4C0;}
	.st12{fill:#48555A;}
	.st13{fill:#DBDCDD;}
	.st14{fill:#9EA0A3;}
	.st15{fill:#717275;}
	.st16{fill:#87898B;}
	.st17{fill:#4E4F51;}
	.st18{fill:#011E2B;}
	.st19{fill:#E5DCC4;}
	.st20{fill:none;stroke:#012C44;stroke-width:4;stroke-miterlimit:10;}
	.st21{font-family:'Oswald-Regular';}
	.st22{font-size:25.2525px;}
	.st23{fill:none;}
</style>
<g>
	<circle class="st0" cx="306" cy="306" r="306"/>
	<g>
		<g>
			<g>
				<path class="st1" d="M175,403.8H96.8V360c0-6.3,5.1-11.4,11.4-11.4h55.3c6.3,0,11.4,5.1,11.4,11.4V403.8z"/>
			</g>
			<g>
				<path class="st1" d="M175,403.9H96.7v-50.6c0-2.6,2.1-4.7,4.7-4.7h68.9c2.6,0,4.7,2.1,4.7,4.7V403.9z M96.9,403.7h78v-50.5
					c0-2.5-2-4.6-4.6-4.6h-68.9c-2.5,0-4.6,2-4.6,4.6V403.7z"/>
			</g>
		</g>
		<g>
			<polyline class="st2" points="103.8,398.8 103.8,353.5 168,353.5 168,398.8 			"/>
		</g>
		<g>
			<g>
				<polygon class="st1" points="96.8,403.8 77.2,425 194.6,425 175,403.8 				"/>
			</g>
			<g>
				<path class="st3" d="M194.8,425.1H77l19.8-21.4H175l0,0L194.8,425.1z M77.3,424.9h117.1l-19.5-21H96.8L77.3,424.9z"/>
			</g>
		</g>
		<g>
			<g>
				<path class="st4" d="M189.1,430.8H82.7c-3.1,0-5.5-2.5-5.5-5.5V425h117.5v0.3C194.6,428.3,192.2,430.8,189.1,430.8z"/>
			</g>
			<g>
				<path class="st3" d="M190.8,430.9H81c-2.2,0-4-1.8-4-4v-2h117.6v2C194.7,429.1,192.9,430.9,190.8,430.9z M77.2,425.1v1.9
					c0,2.1,1.7,3.8,3.8,3.8h109.7c2.1,0,3.8-1.7,3.8-3.8v-1.9H77.2z"/>
			</g>
		</g>
		<g>
			<g>
				<rect x="103.8" y="353.5" class="st5" width="63.9" height="45.1"/>
			</g>
			<g>
				<g>
					<rect x="108.8" y="360" class="st6" width="21.7" height="1.4"/>
				</g>
				<g>
					<rect x="108.8" y="363.3" class="st6" width="21.7" height="1.4"/>
				</g>
				<g>
					<rect x="108.8" y="366.6" class="st6" width="8.2" height="1.4"/>
				</g>
			</g>
			<g>
				<g>
					<rect x="142.7" y="360" class="st6" width="21.7" height="1.4"/>
				</g>
				<g>
					<rect x="142.7" y="363.3" class="st6" width="21.7" height="1.4"/>
				</g>
			</g>
			<g>
				<g>
					<rect x="108.8" y="371.6" class="st6" width="21.7" height="1.4"/>
				</g>
				<g>
					<rect x="109.1" y="386.4" class="st6" width="55.3" height="8.2"/>
				</g>
				<g>
					<rect x="108.8" y="374.8" class="st6" width="11.2" height="1.4"/>
				</g>
			</g>
			<g>
				<g>
					<rect x="142.7" y="371.6" class="st6" width="21.7" height="1.4"/>
				</g>
				<g>
					<rect x="142.7" y="374.8" class="st6" width="18.3" height="1.4"/>
				</g>
			</g>
			<g class="st7">
				<g class="st8">
					<path class="st5" d="M169,398.2v-41.7c0-1.7-1.5-3.1-3.2-3.1h-63.4l66.6,45.5C169,398.6,169,398.4,169,398.2z"/>
				</g>
			</g>
		</g>
	</g>
	<g>
		<g>
			<g>
				<g>
					<path class="st1" d="M237.5,340.9c0-3.7,3-6.7,6.7-6.7H375c3.7,0,6.7,3,6.7,6.7v90.4c0,3.7-3,6.7-6.7,6.7H244.2
						c-3.7,0-6.7-3-6.7-6.7V340.9z"/>
				</g>
				<g>
					<path class="st3" d="M375,438H244.2c-3.7,0-6.8-3-6.8-6.8v-90.4c0-3.7,3-6.7,6.8-6.7H375c3.7,0,6.7,3,6.7,6.7v90.4
						C381.7,435,378.7,438,375,438z M244.2,334.3c-3.6,0-6.6,3-6.6,6.6v90.4c0,3.6,3,6.6,6.6,6.6H375c3.6,0,6.6-3,6.6-6.6v-90.4
						c0-3.6-3-6.6-6.6-6.6H244.2z"/>
				</g>
			</g>
			<g>
				<g>
					<rect x="248.2" y="341.9" class="st5" width="122.8" height="88.4"/>
				</g>
				<g class="st7">
					<g class="st8">
						<path class="st5" d="M381.7,431.3v-90.4c0-3.7-3-6.7-6.7-6.7H244.2l137.3,98.5C381.6,432.3,381.7,431.8,381.7,431.3z"/>
					</g>
				</g>
			</g>
		</g>
		<g>
			<rect x="303.4" y="390.1" class="st6" width="17" height="14.6"/>
			<rect x="298.5" y="369" class="st6" width="26.7" height="7.8"/>
			<rect x="332.9" y="390.1" class="st6" width="17" height="14.6"/>
			<rect x="328" y="369" class="st6" width="26.7" height="7.8"/>
			<rect x="273.8" y="390.1" class="st6" width="17" height="14.6"/>
			<rect x="269" y="369" class="st6" width="26.7" height="7.8"/>
			<rect x="298.5" y="349.1" class="st6" width="26.7" height="7.8"/>
			<g>
				<polygon class="st6" points="343.1,374.6 340.5,374.6 340.5,363 283.2,363 283.2,374.6 280.6,374.6 280.6,360.7 343.1,360.7 
									"/>
			</g>
			<g>
				<rect x="310.5" y="353.6" class="st6" width="2.6" height="21"/>
			</g>
			<g>
				<polygon class="st6" points="343.1,413.6 280.6,413.6 280.6,399.7 283.2,399.7 283.2,411.3 340.5,411.3 340.5,399.7 
					343.1,399.7 				"/>
			</g>
			<g>
				<rect x="310.5" y="399.7" class="st6" width="2.6" height="21"/>
			</g>
			<polygon class="st6" points="308,419.6 311.7,424 315.6,419.6 			"/>
			<g>
				<rect x="275.8" y="378.7" class="st6" width="2.6" height="5.1"/>
			</g>
			<polygon class="st6" points="273.3,383.7 276.9,388.2 280.9,383.7 			"/>
			<g>
				<rect x="286.2" y="383.1" class="st6" width="2.6" height="5.1"/>
			</g>
			<polygon class="st6" points="291.3,383.2 287.7,378.7 283.7,383.2 			"/>
			<g>
				<rect x="305.3" y="378.7" class="st6" width="2.6" height="5.1"/>
			</g>
			<polygon class="st6" points="302.8,383.7 306.5,388.2 310.4,383.7 			"/>
			<g>
				<rect x="315.7" y="383.1" class="st6" width="2.6" height="5.1"/>
			</g>
			<polygon class="st6" points="320.9,383.2 317.2,378.7 313.2,383.2 			"/>
			<g>
				<rect x="334.9" y="378.7" class="st6" width="2.6" height="5.1"/>
			</g>
			<polygon class="st6" points="332.4,383.7 336,388.2 340,383.7 			"/>
			<g>
				<rect x="345.3" y="383.1" class="st6" width="2.6" height="5.1"/>
			</g>
			<polygon class="st6" points="350.4,383.2 346.7,378.7 342.8,383.2 			"/>
		</g>
	</g>
	<g>
		<g>
			<g>
				<path class="st9" d="M289.8,434.6l26-26c1.4-1.4,1.4-3.8,0-5.2l-1.6-1.6c-1.4-1.4-3.8-1.4-5.2,0l-21.1,21.1l-0.7-0.7l3.6-3.6
					c1.4-1.4,1.4-3.8,0-5.2l-1.6-1.6c-1.4-1.4-3.8-1.4-5.2,0l-3.6,3.6l-0.7-0.7l3.6-3.6c1.4-1.4,1.4-3.8,0-5.2l-1.6-1.6
					c-1.4-1.4-3.8-1.4-5.2,0l-3.6,3.6l-0.7-0.7l3.6-3.6c1.4-1.4,1.4-3.8,0-5.2l-1.6-1.6c-1.4-1.4-3.8-1.4-5.2,0l-15.3,15.3
					l-21.1,21.1c-2.7,2.7-2.9,7-0.4,9.5l-21.9,21.9l19.5,19.5l18-18l0,0l3.9-3.9l0.6,0.6c1.7,1.7,4.3,2.2,6.6,1.4
					c13.8-2.9,21.1-4.9,26.7-10.8c7.8-8.3,22.4-12.1,22.4-12.1c1.9-0.8,2.6-2.6,2.4-5.2c-0.8-8.5-22.9,0.7-22.9,0.7l1.5-1.5
					L289.8,434.6z"/>
			</g>
			<g>
				<g>
					<path class="st10" d="M222.8,500.6c0.2-0.3,17.5-18,17.5-18l-28.2-28.2l-45.3,45.7L222.8,500.6z"/>
				</g>
				<g>
					
						<rect x="224.2" y="446.2" transform="matrix(0.7071 -0.7071 0.7071 0.7071 -260.302 299.2071)" class="st5" width="13.6" height="35.1"/>
				</g>
				<g>
					<g>
						
							<ellipse transform="matrix(0.7071 -0.7071 0.7071 0.7071 -262.5486 306.9951)" class="st11" cx="239.3" cy="470.4" rx="2.8" ry="2.8"/>
					</g>
					<g>
						
							<ellipse transform="matrix(0.7071 -0.7071 0.7071 0.7071 -261.9512 307.258)" class="st12" cx="239.9" cy="469.8" rx="0.5" ry="0.5"/>
					</g>
					<g>
						
							<ellipse transform="matrix(0.7071 -0.7071 0.7071 0.7071 -263.1506 306.7456)" class="st12" cx="238.7" cy="471" rx="0.5" ry="0.5"/>
					</g>
				</g>
			</g>
		</g>
	</g>
	<g>
		<g>
			<g>
				<path class="st9" d="M371.8,432.7L371.8,432.7c2.8,0,4.9-2.6,4.9-5.7l0.1-40.2c0-3.1-0.9-5-5.2-5h0c-4.2,0-5.2,1.8-5.2,4.9
					l-0.1,40.2C366.4,430.1,369,432.7,371.8,432.7z"/>
			</g>
			<g>
				<path class="st9" d="M376.8,403.9c0,5,4,8.9,4.8,12.1l0-38.5c0,0,11.7,17,12.9,18.7c1.2,1.7,1.1,3.2,1.1,4.6s-2.2,30.2-2.5,35
					c-0.2,4.9,1.3,6.6,2.4,8.2c1.1,1.6,25.3,34.3,25.3,34.3L393.3,492c0,0-27.6-46.2-28.6-47.8c-1.1-1.6-4.9-6.5-4.9-19.1
					c0-10.9,6.6-13.6,6.7-19.2c0-2.1,0-3.3,0-3.3L376.8,403.9z"/>
			</g>
			<g>
				<polygon class="st5" points="400.2,444.6 406.9,454.2 376.9,472.3 370.9,462.4 				"/>
			</g>
			<g>
				<polygon class="st10" points="408.3,453.3 438.8,500.2 392.1,500.2 375,473.4 				"/>
			</g>
			<g>
				<g>
					<g>
						
							<ellipse transform="matrix(0.8969 -0.4423 0.4423 0.8969 -166.3746 216.4759)" class="st13" cx="381" cy="465" rx="2.6" ry="2.6"/>
					</g>
					<g>
						
							<ellipse transform="matrix(0.8969 -0.4423 0.4423 0.8969 -166.224 216.2957)" class="st14" cx="380.7" cy="464.6" rx="2.6" ry="2.6"/>
					</g>
					<g>
						
							<ellipse transform="matrix(0.8969 -0.4423 0.4423 0.8969 -166.2209 216.3017)" class="st15" cx="380.7" cy="464.6" rx="2.1" ry="2.1"/>
					</g>
					<g>
						
							<ellipse transform="matrix(0.8969 -0.4423 0.4423 0.8969 -166.2247 216.2974)" class="st16" cx="380.7" cy="464.6" rx="2.1" ry="2.1"/>
					</g>
				</g>
				<g>
					<g>
						
							<ellipse transform="matrix(0.8969 -0.4423 0.4423 0.8969 -165.9123 216.5644)" class="st17" cx="381.4" cy="464" rx="0.4" ry="0.4"/>
					</g>
					<g>
						
							<ellipse transform="matrix(0.8969 -0.4423 0.4423 0.8969 -166.4717 215.9857)" class="st17" cx="379.9" cy="464.9" rx="0.4" ry="0.4"/>
					</g>
					<g>
						<path class="st14" d="M381,463.9l-1.1,0.6c-0.2,0.1-0.3,0.3-0.2,0.5l0,0c0.1,0.2,0.3,0.2,0.5,0.1l1.1-0.6
							c0.2-0.1,0.3-0.3,0.2-0.5l0,0C381.5,463.8,381.2,463.8,381,463.9z"/>
					</g>
				</g>
			</g>
		</g>
	</g>
	<g>
		<g>
			<g>
				<g>
					<g>
						<g>
							<path class="st1" d="M444.4,345.5l-0.1,20.6l-0.1,19.6c0,2.3,1.8,4.2,4.1,4.2l80.1,0.5c2.3,0,4.1-1.9,4.1-4.2l0.1-20.2
								l0.1-20c0-2.3-1.8-4.2-4.1-4.2l-80.1-0.5C446.3,341.3,444.5,343.1,444.4,345.5z"/>
						</g>
						<g>
							<path class="st3" d="M532.8,346C532.8,346,532.8,346,532.8,346l-0.2,40.2c0,1.1-0.4,2.2-1.2,3c-0.8,0.8-1.8,1.2-2.9,1.2
								l-80.1-0.5c-2.3,0-4.1-1.9-4.1-4.3c0,0,0,0,0,0l0.2-40.2c0-1.1,0.4-2.2,1.2-3c0.8-0.8,1.8-1.2,2.9-1.2l80.1,0.5
								C530.9,341.7,532.8,343.6,532.8,346z M444.3,385.6c0,2.3,1.8,4.1,4,4.1l80.1,0.5c1.1,0,2.1-0.4,2.8-1.2
								c0.8-0.8,1.2-1.8,1.2-2.9l0.2-40.2c0,0,0,0,0,0c0-2.3-1.8-4.1-4-4.1l-80.1-0.5c-1.1,0-2.1,0.4-2.8,1.2
								c-0.8,0.8-1.2,1.8-1.2,2.9L444.3,385.6C444.3,385.6,444.3,385.6,444.3,385.6z"/>
						</g>
					</g>
					<g>
						<polygon class="st5" points="456.7,366 456.6,387.5 520.6,387.9 520.7,366 520.9,344.1 456.9,343.7 						"/>
					</g>
					<g>
						<g>
							<g>
								<path class="st18" d="M449.8,362.8l0,3.2l0,3.5c0,0.6,0.4,1,1,1c0.5,0,1-0.5,1-1l0-3.5l0-3.2c0-0.6-0.4-1-1-1
									C450.2,361.8,449.8,362.2,449.8,362.8z"/>
							</g>
							<g>
								<path class="st3" d="M451.8,362.8C451.8,362.8,451.8,362.8,451.8,362.8l0,6.7c0,0.3-0.1,0.6-0.3,0.8
									c-0.2,0.2-0.5,0.3-0.8,0.3c-0.6,0-1.1-0.5-1.1-1.1c0,0,0,0,0,0l0-6.7c0-0.3,0.1-0.6,0.3-0.8c0.2-0.2,0.5-0.3,0.8-0.3
									c0.3,0,0.6,0.1,0.8,0.3C451.7,362.2,451.8,362.5,451.8,362.8z M449.8,369.5c0,0.5,0.4,0.9,0.9,0.9c0.2,0,0.5-0.1,0.6-0.3
									c0.2-0.2,0.3-0.4,0.3-0.7l0-6.7c0,0,0,0,0,0c0-0.2-0.1-0.5-0.3-0.7c-0.2-0.2-0.4-0.3-0.6-0.3c-0.2,0-0.5,0.1-0.6,0.3
									c-0.2,0.2-0.3,0.4-0.3,0.7L449.8,369.5C449.8,369.5,449.8,369.5,449.8,369.5z"/>
							</g>
						</g>
						<g>
							<g>
								<ellipse class="st18" cx="450.7" cy="374.8" rx="1.1" ry="1.1"/>
							</g>
							<g>
								<path class="st3" d="M451.9,374.8c0,0.7-0.5,1.2-1.2,1.2c-0.6,0-1.2-0.5-1.2-1.2c0-0.7,0.5-1.2,1.2-1.2
									C451.4,373.6,451.9,374.2,451.9,374.8z M449.7,374.8c0,0.6,0.5,1,1,1c0.6,0,1-0.5,1-1c0-0.6-0.5-1-1-1
									C450.2,373.8,449.7,374.3,449.7,374.8z"/>
							</g>
						</g>
						<g>
							<g>
								<polygon class="st18" points="525.4,369.5 528.8,369.5 528.8,366 528.9,362.6 525.5,362.6 525.5,366 								"/>
							</g>
							<g>
								<path class="st3" d="M529,362.5l-0.1,7.1l-3.5,0l0.1-7.1L529,362.5z M528.7,369.4l0.1-6.7l-3.2,0l-0.1,6.7L528.7,369.4z"/>
							</g>
						</g>
					</g>
				</g>
			</g>
		</g>
	</g>
	<g>
		<rect x="137.9" y="317.9" class="st1" width="0.8" height="27.3"/>
		<polygon class="st5" points="336.2,217.5 336.2,230.8 296.3,230.8 296.3,217.5 289.7,217.5 289.7,237.5 342.9,237.5 342.9,217.5 
					"/>
		<polygon class="st5" points="329.6,204.2 322.9,204.2 322.9,184.3 309.6,184.3 309.6,204.2 303,204.2 316.3,224.2 		"/>
	</g>
	<g>
		<polygon class="st1" points="120.6,346.9 119.8,346.9 119.8,318.3 72.3,318.3 72.3,260.3 73.2,260.3 73.2,317.5 120.6,317.5 		"/>
	</g>
	<g>
		<polygon class="st1" points="156.7,346.9 155.9,346.9 155.9,317.5 206.9,317.5 206.9,256.3 207.7,256.3 207.7,318.3 156.7,318.3 
					"/>
	</g>
	<g>
		<rect x="312.3" y="243.2" class="st1" width="0.8" height="88.4"/>
	</g>
	<g>
		<rect x="488.3" y="309" class="st1" width="0.8" height="22.6"/>
	</g>
	<g>
		<polygon class="st1" points="285.3,331.5 284.4,331.5 284.4,303.9 247.8,303.9 247.8,213.7 248.6,213.7 248.6,303.3 285.3,303.3 
					"/>
	</g>
	<g>
		<polygon class="st1" points="474.4,331.5 473.6,331.5 473.6,309.4 407.7,309.4 407.7,247.2 408.5,247.2 408.5,308.6 474.4,308.6 
					"/>
	</g>
	<g>
		<polygon class="st1" points="345.6,331.5 344.8,331.5 344.8,303.3 381.4,303.3 381.4,213.7 382.2,213.7 382.2,303.9 345.6,303.9 
					"/>
	</g>
	<g>
		<polygon class="st1" points="504.3,331.5 503.4,331.5 503.4,308.6 556.6,308.6 556.6,247.2 557.4,247.2 557.4,309.4 504.3,309.4 
					"/>
	</g>
	<g>
		<g>
			<g>
				<rect x="465.5" y="131.6" class="st19" width="54.7" height="1.9"/>
			</g>
		</g>
		<g>
			<g>
				<rect x="535.8" y="131.6" class="st19" width="11.7" height="1.9"/>
			</g>
		</g>
		<g>
			<g>
				<rect x="465.5" y="139.5" class="st19" width="33.2" height="1.9"/>
			</g>
		</g>
		<g>
			<g>
				<rect x="55.8" y="378.3" class="st19" width="34.4" height="1.9"/>
			</g>
		</g>
		<g>
			<g>
				<rect x="48.1" y="386.2" class="st19" width="12.8" height="1.9"/>
			</g>
		</g>
		<g>
			<g>
				<rect x="557.8" y="146.3" class="st19" width="11.7" height="1.9"/>
			</g>
		</g>
		<g>
			<g>
				<rect x="563.6" y="154.5" class="st19" width="5.8" height="1.9"/>
			</g>
		</g>
		<g>
			<g>
				<rect x="69.1" y="142.1" class="st19" width="54.7" height="1.9"/>
			</g>
		</g>
		<g>
			<g>
				<rect x="405.9" y="347.5" class="st19" width="11.7" height="1.9"/>
			</g>
		</g>
		<g>
			<g>
				<rect x="69.1" y="150" class="st19" width="33.2" height="1.9"/>
			</g>
		</g>
		<g>
			<g>
				<rect x="428" y="362.2" class="st19" width="11.7" height="1.9"/>
			</g>
		</g>
		<g>
			<g>
				<rect x="433.8" y="370.4" class="st19" width="5.8" height="1.9"/>
			</g>
		</g>
		<g>
			<g>
				<rect x="480.3" y="457.9" class="st19" width="43" height="1.9"/>
			</g>
		</g>
		<g>
			<g>
				<rect x="513.4" y="472.7" class="st19" width="28.2" height="1.9"/>
			</g>
		</g>
		<g>
			<g>
				<rect x="535.8" y="480.8" class="st19" width="5.8" height="1.9"/>
			</g>
		</g>
		<g>
			<g>
				<rect x="91.3" y="462.7" class="st19" width="43.6" height="1.9"/>
			</g>
		</g>
		<g>
			<g>
				<rect x="147.2" y="462.7" class="st19" width="9.3" height="1.9"/>
			</g>
		</g>
	</g>
	<line class="st20" x1="70.9" y1="502.3" x2="540.3" y2="502.3"/>
	<g>
		<path class="st5" d="M485,259.2l-1.6-3.1c2.4-1.9,4.3-4.2,5.6-6.7l3.3,1c1.2,0.3,2.5-0.3,2.9-1.4l1.1-3.3c0.3-1.2-0.3-2.5-1.4-2.9
			l-3.3-1c0.3-2.9,0.1-5.9-0.8-8.8l3.1-1.6c1.1-0.6,1.5-2,0.9-3.1l-1.6-3.2c-0.6-1.1-2-1.5-3.1-0.9l-3.1,1.6
			c-1.9-2.4-4.2-4.3-6.7-5.6l1-3.3c0.3-1.2-0.3-2.5-1.4-2.9l-3.4-1.1c-1.2-0.3-2.5,0.3-2.9,1.4l-1,3.3c-2.9-0.3-5.9-0.2-8.8,0.7
			l-1.6-3.1c-0.6-1.1-2-1.5-3.1-0.9l-3.2,1.6c-1.1,0.6-1.5,2-0.9,3.1l1.5,3c-2.4,1.9-4.3,4.2-5.7,6.7l-3.2-1
			c-1.2-0.3-2.5,0.3-2.9,1.4l-1.1,3.3c-0.3,1.2,0.3,2.5,1.4,2.9l3.2,1c-0.3,2.9-0.2,6,0.8,8.9l-2.8,1.7c-1.1,0.6-1.5,2-0.9,3.1
			l1.6,3.2c0.6,1.1,2,1.5,3.1,0.9l3-1.5c1.9,2.4,4.2,4.3,6.8,5.7l-1,3.2c-0.3,1.2,0.3,2.5,1.4,2.9l3.3,1.1c1.2,0.3,2.5-0.3,2.9-1.4
			l1-3.2c2.9,0.3,5.9,0.1,8.8-0.8l1.5,3c0.6,1.1,2,1.5,3.1,0.9l3.2-1.6C485.1,261.8,485.5,260.3,485,259.2z M474.1,237
			c1.3,2.4,0.3,5.4-2.1,6.6c-2.4,1.3-5.4,0.3-6.6-2.1c-1.3-2.4-0.3-5.4,2.1-6.6C469.9,233.6,472.9,234.6,474.1,237z M463.3,226.2
			c1.4-0.8,2.9-1.2,4.3-1.4l-0.2,4.4c-0.9,0.2-1.6,0.5-2.5,0.9c-4.2,2.1-6.2,6.8-5.3,11.2l-3.7,1.9
			C454.1,236.7,457,229.5,463.3,226.2z M476.7,252c-6.3,3.3-14,1.4-18.2-4l3.7-2c3.1,3.3,8.1,4.3,12.3,2.1c0.8-0.4,1.5-0.9,2.2-1.5
			l3.8,2.5C479.5,250.3,478.2,251.4,476.7,252z M479.5,242.2c0.8-2.5,0.6-5.3-0.7-7.8c-1.3-2.5-3.5-4.3-6-5l0.2-4.6
			c4.1,0.9,7.8,3.5,9.9,7.6c2,4,2.1,8.4,0.5,12.3L479.5,242.2z M508.6,285.9l-0.3-2.5c2-0.6,3.9-1.5,5.6-2.9l2,1.6
			c0.7,0.6,1.7,0.5,2.3-0.2l1.6-2c0.6-0.7,0.5-1.7-0.2-2.3l-2-1.6c1-1.9,1.7-3.9,1.9-6.1l2.5-0.3c0.9-0.1,1.5-0.9,1.5-1.8l-0.3-2.6
			c-0.1-0.9-0.9-1.5-1.8-1.5l-2.5,0.2c-0.6-2-1.5-3.9-2.9-5.6l1.6-1.9c0.6-0.7,0.5-1.7-0.2-2.3l-2-1.6c-0.7-0.6-1.7-0.5-2.3,0.2
			l-1.5,1.9c-1.9-1.1-4-1.7-6.1-2l-0.2-2.4c-0.1-0.9-0.9-1.5-1.8-1.5l-2.6,0.3c-0.9,0.1-1.5,0.9-1.5,1.8l0.2,2.4
			c-2,0.6-4,1.5-5.7,2.9l-1.9-1.5c-0.7-0.6-1.7-0.5-2.3,0.2l-1.6,2c-0.6,0.7-0.5,1.7,0.2,2.3l1.9,1.5c-1.1,1.9-1.7,4-2,6.1l-2.3,0.4
			c-0.9,0.1-1.5,0.9-1.5,1.8l0.3,2.6c0.1,0.9,0.9,1.5,1.8,1.5l2.4-0.2c0.6,2,1.5,3.9,3,5.6l-1.5,1.8c-0.6,0.7-0.5,1.7,0.2,2.3l2,1.6
			c0.7,0.6,1.7,0.5,2.3-0.2l1.6-1.9c1.9,1,3.9,1.7,6.1,1.9l0.2,2.5c0.1,0.9,0.9,1.5,1.8,1.5l2.6-0.3
			C508,287.6,508.7,286.8,508.6,285.9z M498.7,274.9c-3.6-3-4-8.4-1-11.9c3-3.6,8.4-4,11.9-1c3.6,3,4,8.4,1,11.9
			C507.7,277.4,502.3,277.9,498.7,274.9z"/>
	</g>
	<g>
		<path class="st6" d="M502,365.2c-0.1-0.4-0.1-0.8-0.2-1.2c-0.3-1.1-0.7-2.2-1.3-3.2c-0.3-0.4-0.5-0.8-0.8-1.2
			c-2.1-2.7-5.4-4.4-9-4.4c-3.7,0-6.9,1.7-9,4.4c-0.3,0.4-0.6,0.8-0.8,1.2c-0.6,1-1,2-1.3,3.2c-0.1,0.4-0.2,0.8-0.2,1.2
			c-0.1,0.5-0.1,1-0.1,1.6s0,1.1,0.1,1.6c0.1,0.4,0.1,0.8,0.2,1.2c0.3,1.1,0.7,2.2,1.3,3.2c0.3,0.4,0.5,0.8,0.8,1.2
			c2.1,2.7,5.4,4.4,9,4.4s6.9-1.7,9-4.4c0.3-0.4,0.6-0.8,0.8-1.2c0.6-1,1-2,1.3-3.2c0.1-0.4,0.2-0.8,0.2-1.2c0.1-0.5,0.1-1,0.1-1.6
			S502,365.7,502,365.2z M487.3,357c-0.6,0.7-1.1,1.6-1.6,2.6h-2.6C484.3,358.4,485.7,357.5,487.3,357z M482.1,360.8h3.2
			c-0.3,1-0.5,2-0.7,3.2h-4C480.9,362.8,481.4,361.8,482.1,360.8z M480.2,366.8c0-0.5,0-1.1,0.1-1.6h4.2c0,0.5-0.1,1-0.1,1.6
			s0,1.1,0.1,1.6h-4.2C480.3,367.8,480.2,367.3,480.2,366.8z M482.1,372.7c-0.7-1-1.2-2-1.5-3.2h4c0.1,1.1,0.4,2.2,0.7,3.2H482.1z
			 M483.1,373.9h2.6c0.4,1,1,1.9,1.6,2.6C485.7,376.1,484.3,375.1,483.1,373.9z M489.9,377c-1.1-0.3-2.1-1.4-2.9-3.1h2.9
			C489.9,375.3,489.9,376.4,489.9,377z M489.9,372.7h-3.3c-0.3-1-0.6-2-0.7-3.2h4.1C489.9,370.7,489.9,371.8,489.9,372.7z
			 M489.9,366.8c0,0.5,0,1.1,0,1.6h-4.2c0-0.5-0.1-1-0.1-1.6c0-0.5,0-1.1,0.1-1.6h4.2C489.9,365.7,489.9,366.2,489.9,366.8z
			 M489.9,364h-4.1c0.2-1.1,0.4-2.2,0.7-3.2h3.3C489.9,361.8,489.9,362.9,489.9,364z M489.9,359.6h-2.9c0.8-1.6,1.8-2.8,2.9-3.1
			C489.9,357.2,489.9,358.3,489.9,359.6z M499,360.8c0.7,1,1.2,2,1.5,3.2h-4c-0.1-1.1-0.4-2.2-0.7-3.2H499z M498,359.6h-2.6
			c-0.4-1-1-1.9-1.6-2.6C495.4,357.5,496.8,358.4,498,359.6z M491.1,356.5c1.1,0.3,2.1,1.4,2.9,3.1h-2.9V356.5z M491.1,360.8h3.3
			c0.3,1,0.6,2,0.7,3.2h-4.1V360.8z M491.1,365.2h4.2c0,0.5,0.1,1,0.1,1.6s0,1.1-0.1,1.6h-4.2V365.2z M491.1,369.6h4.1
			c-0.2,1.1-0.4,2.2-0.7,3.2h-3.3V369.6z M491.1,377v-3.1h2.9C493.3,375.6,492.3,376.7,491.1,377z M493.8,376.6
			c0.6-0.7,1.1-1.6,1.6-2.6h2.6C496.8,375.1,495.4,376.1,493.8,376.6z M499,372.7h-3.2c0.3-1,0.5-2,0.7-3.2h4
			C500.2,370.7,499.6,371.8,499,372.7z M500.7,368.4h-4.2c0-0.5,0.1-1,0.1-1.6c0-0.5,0-1.1-0.1-1.6h4.2c0.1,0.5,0.1,1,0.1,1.6
			C500.9,367.3,500.8,367.8,500.7,368.4z"/>
	</g>
	<text transform="matrix(1 0 0 1 463.6596 375.5636)" class="st6 st21 st22">&lt;      &gt;</text>
	<g>
		<polygon class="st5" points="151.4,257.9 152.4,259.3 152.6,259.3 152.7,258.4 152.7,257.4 152.6,256.9 152.3,256.8 151.9,257.2 
			151.1,257.5 		"/>
		<path class="st5" d="M172,251.8c0-0.1-0.1-0.3-0.2-0.4c-0.2-0.5-0.4-1-0.6-1.5c-0.1-0.2-0.2-0.4-0.3-0.7c-0.1-0.2-0.1-0.3-0.2-0.5
			c-0.2-0.4-0.4-0.8-0.6-1.2c0,0,0-0.1-0.1-0.1c-0.3-0.6-0.7-1.2-1-1.8c0,0,0-0.1-0.1-0.1c-0.4-0.6-0.8-1.2-1.2-1.8c0,0,0,0,0,0
			c-2.6-3.8-5.9-6.9-9.6-9.3c0,0,0,0-0.1,0c-0.6-0.4-1.2-0.8-1.8-1.1c-0.1,0-0.1-0.1-0.2-0.1c-0.6-0.3-1.2-0.7-1.9-1
			c-0.1,0-0.1-0.1-0.2-0.1c-0.6-0.3-1.3-0.6-1.9-0.9c0,0-0.1,0-0.1,0c-0.7-0.3-1.3-0.5-2-0.7c0,0,0,0-0.1,0
			c-0.7-0.2-1.4-0.4-2.1-0.6c0,0,0,0-0.1,0c0,0,0,0,0,0c-2.8-0.7-5.7-1.1-8.7-1.1c-0.2,0-0.4,0-0.6,0c-0.1,0-0.3,0-0.4,0
			c-1.2,0-2.4,0.1-3.5,0.3c-0.2,0-0.3,0-0.5,0.1c-0.3,0-0.7,0.1-1,0.2c-0.2,0-0.5,0.1-0.7,0.1c-0.4,0.1-0.8,0.2-1.2,0.3
			c-0.4,0.1-0.7,0.2-1.1,0.3c-0.2,0.1-0.5,0.1-0.7,0.2c-0.4,0.1-0.7,0.2-1.1,0.3c-0.2,0.1-0.3,0.1-0.5,0.2c-0.5,0.2-1.1,0.4-1.6,0.6
			c-0.1,0-0.2,0.1-0.3,0.1c-0.5,0.2-0.9,0.4-1.4,0.6c-0.1,0-0.2,0.1-0.2,0.1c0,0-0.1,0-0.1,0.1c-0.5,0.2-1,0.5-1.4,0.7
			c-0.1,0-0.2,0.1-0.3,0.2c-0.4,0.2-0.7,0.4-1.1,0.6c-0.2,0.1-0.4,0.3-0.6,0.4c-0.2,0.1-0.4,0.3-0.6,0.4c-0.3,0.2-0.5,0.3-0.7,0.5
			c-0.1,0.1-0.2,0.2-0.3,0.2c-1,0.7-1.9,1.4-2.8,2.2c-0.1,0.1-0.1,0.1-0.2,0.2c-0.3,0.3-0.6,0.5-0.9,0.8c0,0-0.1,0.1-0.1,0.1
			c-0.9,0.9-1.8,1.8-2.6,2.7c-0.1,0.1-0.1,0.2-0.2,0.2c-0.2,0.3-0.4,0.5-0.6,0.8c-0.1,0.1-0.2,0.3-0.3,0.4c-0.2,0.2-0.4,0.5-0.6,0.8
			c-0.1,0.2-0.2,0.4-0.4,0.5c-0.2,0.2-0.3,0.5-0.5,0.7c-0.3,0.4-0.5,0.8-0.8,1.2c-0.1,0.2-0.2,0.3-0.3,0.5c-0.2,0.3-0.3,0.6-0.5,0.8
			c-0.1,0.2-0.2,0.4-0.3,0.6c-0.1,0.3-0.3,0.6-0.4,0.8c-0.1,0.2-0.2,0.4-0.3,0.6c-0.1,0.3-0.3,0.6-0.4,0.9c-0.1,0.2-0.2,0.4-0.2,0.5
			c0,0.1-0.1,0.1-0.1,0.2c0,0,0,0,0,0c-1.1,2.7-1.9,5.6-2.2,8.5c0,0,0,0,0,0c0,0.1,0,0.2,0,0.3c-0.1,0.5-0.1,1-0.2,1.6
			c0,0.2,0,0.3,0,0.5c0,0.5-0.1,1-0.1,1.5c0,0.1,0,0.3,0,0.4c0,0.5,0,1,0,1.5c0,0.1,0,0.3,0,0.4c0,0.5,0.1,1,0.1,1.6
			c0,0.1,0,0.2,0,0.3c0.1,0.5,0.1,1.1,0.2,1.6c0,0.1,0,0.2,0.1,0.3c0.1,0.5,0.2,1,0.3,1.6c0,0.1,0,0.2,0.1,0.4
			c0.1,0.5,0.2,1,0.4,1.5c0,0.1,0.1,0.3,0.1,0.4c0.1,0.5,0.3,0.9,0.4,1.4c0.1,0.2,0.1,0.4,0.2,0.5c0.1,0.4,0.3,0.8,0.4,1.2
			c0.1,0.2,0.2,0.5,0.3,0.7c0.1,0.3,0.3,0.7,0.4,1c0.1,0.3,0.2,0.5,0.3,0.8c0,0.1,0,0.1,0.1,0.2c0.2,0.5,0.4,0.9,0.7,1.3
			c0,0.1,0.1,0.2,0.1,0.3c0.3,0.5,0.5,1,0.8,1.4c0,0.1,0.1,0.1,0.1,0.2c0.3,0.5,0.7,1.1,1,1.6c0,0,0,0,0,0
			c6.6,9.8,17.6,15.4,29,15.4c5,0,10.1-1.1,14.9-3.3C170.4,287.6,178.1,268.6,172,251.8z M153.3,294.1c-4.5,2.1-9.3,3.2-14.3,3.2
			c-10.3,0-20-4.8-26.4-12.7c-0.1-0.2-0.2-0.5-0.3-0.7c0.4,0,0.8,0.1,1.2,0.1c0.2-0.1,0.4-0.1,0.6-0.2c0.1-0.5,0.1-0.9,0.2-1.4
			c-0.1-0.6-0.1-1.1-0.2-1.7c-0.1-0.3-0.2-0.5-0.3-0.8c0.1-0.1,0.3-0.2,0.4-0.3c0.1-0.3,0.1-0.5,0.2-0.8c0.2-0.1,0.4-0.3,0.6-0.4
			c0-0.5,0.1-0.9,0.1-1.4c-0.1-0.3-0.2-0.5-0.4-0.8c-0.3-0.1-0.5-0.3-0.8-0.4c-0.3-0.5-0.5-0.9-0.8-1.4c-0.4-0.2-0.7-0.4-1.1-0.6
			c-0.4-0.3-0.8-0.5-1.3-0.8c-0.2-0.4-0.5-0.9-0.7-1.3c-0.3-0.4-0.7-0.9-1-1.3c0-0.4,0-0.8,0-1.3c-0.1-0.4-0.2-0.8-0.4-1.2
			c-0.3-0.5-0.7-1-1-1.5c-0.2-0.6-0.5-1.2-0.7-1.8c-0.1-0.6-0.2-1.2-0.3-1.8c-0.1-0.4-0.2-0.8-0.3-1.2c-0.3-0.7-0.6-1.4-1-2
			c0.2-1.3,0.4-2.5,0.7-3.7l0.4,1.1l0.6,0.8l0.4,0.2l-0.5-1.1l-0.4-1.3l0-1.2l0-0.4c0.9-3,2.1-5.8,3.8-8.4c0.3-0.2,0.5-0.4,0.8-0.6
			c0.3-0.3,0.7-0.6,1-0.9c0.5-0.2,1-0.4,1.5-0.6c0.3-0.1,0.6-0.2,0.8-0.3c0,0.2,0.1,0.4,0.1,0.6c0.3,0,0.6,0,0.8,0
			c0.4-0.1,0.8-0.3,1.2-0.4c-0.4-0.1-0.7-0.3-1.1-0.4c0.2-0.2,0.5-0.4,0.7-0.7c0.2-0.2,0.4-0.4,0.6-0.6c-0.1-0.2-0.2-0.4-0.3-0.6
			c0.2,0,0.5,0,0.7-0.1c0.3,0.2,0.5,0.5,0.8,0.7c0.3,0,0.5,0,0.8,0c0.2,0,0.5,0,0.7,0c0.2-0.3,0.4-0.6,0.5-1
			c0.1-0.5,0.3-0.9,0.4-1.4c0.6-0.7,1.2-1.5,1.8-2.2c-0.4,0.1-0.8,0.2-1.3,0.3c0.3-0.4,0.6-0.8,0.9-1.2c0.2-0.3,0.4-0.7,0.6-1
			c-0.4,0.2-0.7,0.3-1.1,0.5c-0.5,0.4-1,0.8-1.5,1.2c-0.4,0.2-0.8,0.4-1.2,0.5c-0.5,0.2-1.1,0.4-1.7,0.7c0.5-0.4,1-0.9,1.5-1.3
			c0.1-0.2,0.3-0.4,0.4-0.6c1.3-1,2.7-1.8,4.2-2.6c0.2,0,0.5,0.1,0.7,0.1c0,0.3,0.1,0.5,0.1,0.8c-0.2,0.3-0.4,0.7-0.6,1
			c-0.2,0.3-0.3,0.6-0.5,0.8c0.4,0,0.9,0,1.3,0c0.5-0.2,0.9-0.5,1.4-0.7c0.5-0.3,1.1-0.5,1.6-0.8c0.5-0.2,1-0.4,1.5-0.6
			c-0.2-0.1-0.4-0.2-0.6-0.3c0-0.2,0-0.4-0.1-0.6c0.2-0.2,0.4-0.5,0.6-0.7c0.1-0.2,0.2-0.5,0.3-0.7c0.2,0.1,0.3,0.3,0.5,0.4
			c0.1-0.1,0.2-0.2,0.2-0.3c0.2,0.1,0.4,0.1,0.6,0.2c0.3,0,0.7,0.1,1,0.1c-0.2,0.3-0.4,0.6-0.7,0.9c-0.1,0.1-0.3,0.3-0.4,0.4
			c-0.3,0.3-0.5,0.6-0.8,0.9c-0.4,0.4-0.8,0.7-1.2,1.1c-0.3,0.1-0.5,0.2-0.8,0.3c-0.3,0.3-0.6,0.6-0.8,0.9c-0.3,0.1-0.6,0.3-0.8,0.4
			c-0.3,0.3-0.6,0.6-0.9,0.9c-0.1,0.2-0.3,0.5-0.4,0.7c0.1,0.1,0.1,0.1,0.2,0.2c-0.1,0.2-0.1,0.4-0.2,0.5c0.2,0.1,0.4,0.2,0.5,0.3
			c0.2-0.2,0.4-0.3,0.6-0.5c0.3-0.2,0.5-0.3,0.8-0.5c0.3-0.2,0.6-0.4,0.9-0.6c0.3,0,0.7-0.1,1-0.1c0.4-0.1,0.8-0.3,1.2-0.4
			c0.2-0.1,0.4-0.3,0.6-0.4c0.2,0,0.4,0.1,0.6,0.1c0.5-0.1,1-0.2,1.5-0.2c0.2-0.1,0.4-0.3,0.6-0.4c0.2-0.2,0.5-0.5,0.7-0.7
			c0.4-0.3,0.7-0.7,1.1-1c0.2-0.2,0.4-0.4,0.6-0.7c0.3-0.2,0.5-0.5,0.8-0.7c0.2-0.1,0.4-0.2,0.6-0.3c-0.1-0.3-0.3-0.5-0.4-0.8
			c0.3,0.1,0.5,0.3,0.8,0.4c0.5,0.1,1,0.2,1.5,0.2c0.5,0,0.9,0,1.4,0c0.6-0.1,1.2-0.2,1.8-0.3c0.2-0.2,0.3-0.4,0.5-0.6
			c0.3,0.1,0.7,0.2,1,0.3c0.2,0,0.3,0,0.5,0c0-0.2-0.1-0.5-0.1-0.7c0.2-0.1,0.4-0.3,0.6-0.4c0.3-0.1,0.6-0.2,0.9-0.3
			c0.3,0,0.7,0,1,0c0-0.1,0-0.3,0.1-0.4c0,0-0.1,0-0.1-0.1c0.6,0.1,1.3,0.3,1.9,0.5c0,0.1,0,0.2-0.1,0.3c-0.2-0.1-0.3-0.2-0.5-0.3
			c-0.3,0.1-0.6,0.1-1,0.2c0.1,0.2,0.2,0.5,0.3,0.7c0.4,0.4,0.8,0.8,1.2,1.2c0,0.3,0,0.7,0,1c0.3,0.2,0.6,0.4,0.8,0.7
			c-0.2,0.3-0.4,0.7-0.6,1c0.1,0,0.3,0,0.4,0.1c0.1,0.1,0.2,0.3,0.4,0.4c-0.4,0.1-0.7,0.2-1.1,0.3c-0.1,0.3-0.2,0.6-0.4,0.9
			c-0.1,0.1-0.2,0.2-0.4,0.3c-0.2,0.1-0.4,0.3-0.6,0.4c-0.1-0.1-0.3-0.2-0.4-0.3c-0.1-0.1-0.2-0.2-0.4-0.3c-0.2-0.1-0.4-0.1-0.6-0.2
			c-0.3,0-0.6,0-0.9-0.1c-0.2,0-0.3,0-0.5-0.1c-0.1,0-0.2,0-0.3,0c-0.1-0.1-0.2-0.2-0.3-0.3c-0.2,0-0.4,0-0.6,0
			c-0.2,0-0.4,0.1-0.6,0.1c-0.2,0.1-0.5,0.1-0.7,0.2c-0.2,0.2-0.3,0.4-0.5,0.6c-0.1,0.2-0.2,0.4-0.3,0.7c-0.1,0.2-0.2,0.3-0.4,0.5
			c-0.2,0.2-0.4,0.4-0.6,0.6c-0.2,0.1-0.4,0.2-0.5,0.4c-0.2,0.2-0.4,0.5-0.6,0.7c-0.2,0.2-0.4,0.4-0.6,0.6c0,0.2-0.1,0.4-0.1,0.6
			c0,0.1,0,0.3,0,0.4c0,0.1,0.1,0.3,0.1,0.4c0.1,0.1,0.1,0.2,0.2,0.4c0.1,0.1,0.2,0.1,0.3,0.2c0.2-0.1,0.4-0.2,0.5-0.2
			c0-0.1,0-0.2,0-0.4c0.2-0.1,0.5-0.1,0.7-0.2c0,0.1,0,0.2,0,0.3c0.1,0.2,0.2,0.4,0.3,0.6c0.1,0.1,0.2,0.3,0.2,0.4
			c0,0.1,0,0.2,0,0.2c0,0.1,0,0.2,0,0.4c0.2,0,0.3,0,0.5,0.1c0.1-0.1,0.2-0.2,0.3-0.3c0.2-0.1,0.4-0.2,0.5-0.4
			c-0.1-0.2-0.1-0.3-0.2-0.5c0-0.2,0-0.3-0.1-0.5c0.3-0.1,0.5-0.2,0.8-0.3c-0.1-0.1-0.2-0.3-0.3-0.4c-0.2-0.1-0.4-0.2-0.5-0.3
			c0-0.3,0-0.6,0-0.9c0.2-0.2,0.4-0.3,0.6-0.5c0.1-0.2,0.1-0.4,0.2-0.6c0.1-0.2,0.2-0.3,0.3-0.5c0.2,0,0.5,0,0.7,0
			c0,0.2,0.1,0.3,0.1,0.5c-0.2,0.2-0.4,0.3-0.6,0.5c-0.1,0.2-0.1,0.4-0.2,0.6c0.1,0.2,0.2,0.5,0.3,0.7c0.1,0.1,0.2,0.3,0.3,0.4
			c0.3,0,0.5,0,0.8,0c0.1-0.1,0.3-0.3,0.4-0.4c0.3,0.1,0.6,0.1,0.9,0.2c0,0.1,0,0.1,0,0.2c-0.1,0.1-0.2,0.1-0.4,0.2
			c-0.2,0.1-0.5,0.2-0.7,0.3c-0.2,0-0.4,0.1-0.5,0.1c-0.1,0.2-0.2,0.3-0.3,0.5c0.1,0.1,0.1,0.1,0.2,0.2c-0.1,0-0.2,0.1-0.3,0.1
			c0,0.2,0.1,0.5,0.1,0.7c0.1,0.1,0.2,0.3,0.3,0.4c-0.2,0.1-0.4,0.3-0.6,0.4c-0.1,0-0.2,0.1-0.4,0.1c-0.1-0.1-0.2-0.1-0.2-0.2
			c-0.1,0-0.1,0.1-0.2,0.1c-0.1,0.1-0.2,0.2-0.4,0.2c-0.1,0.1-0.3,0.1-0.4,0.2c0,0.1-0.1,0.2-0.1,0.3c-0.1-0.1-0.2-0.2-0.3-0.3
			c-0.1-0.1-0.1-0.2-0.2-0.4c-0.1,0.1-0.2,0.2-0.3,0.3c-0.2,0-0.5,0-0.7-0.1c-0.1-0.1-0.2-0.3-0.2-0.4c0-0.2,0.1-0.3,0.1-0.5
			c0.1-0.1,0.1-0.3,0.2-0.4c-0.1-0.2-0.2-0.3-0.3-0.5c-0.1,0.1-0.2,0.2-0.3,0.3c-0.1,0.1-0.2,0.3-0.4,0.4c0.1,0.2,0.1,0.5,0.2,0.7
			c0,0.2,0,0.3,0,0.5c-0.1,0.1-0.3,0.1-0.4,0.2c-0.2,0-0.4,0-0.6,0c-0.1,0.1-0.2,0.2-0.3,0.2c-0.1,0.2-0.2,0.3-0.3,0.5
			c-0.1,0.1-0.3,0.2-0.4,0.3c-0.2,0.1-0.5,0.2-0.7,0.2c0,0.1,0,0.2,0,0.4c-0.2,0.1-0.3,0.2-0.5,0.3c0,0.1,0,0.1,0,0.2
			c-0.2,0-0.5-0.1-0.7-0.1c0,0.1-0.1,0.2-0.1,0.3c-0.1,0-0.2,0.1-0.3,0.1c-0.2-0.1-0.4-0.1-0.6-0.2c-0.2,0.1-0.3,0.2-0.5,0.2
			c0.1,0.1,0.1,0.2,0.2,0.2c0.2,0.1,0.5,0.2,0.7,0.3c0,0.2,0.1,0.3,0.1,0.5c0.1,0.1,0.2,0.2,0.3,0.3c0,0.1,0,0.2-0.1,0.3
			c0,0.3-0.1,0.6-0.1,0.9c-0.1,0.1-0.2,0.2-0.3,0.4c-0.3,0-0.5,0-0.8,0c-0.4-0.1-0.8-0.2-1.2-0.2c-0.2,0-0.5,0-0.7,0.1
			c-0.1,0.2-0.3,0.4-0.4,0.5c-0.2,0.2-0.4,0.5-0.6,0.7c0,0.2,0,0.4,0.1,0.6c-0.1,0.2-0.1,0.4-0.2,0.6c0.1,0.2,0.1,0.4,0.2,0.6
			c0.1,0.1,0.2,0.2,0.3,0.3c0.2,0.1,0.4,0.1,0.6,0.2c0,0.2,0,0.4,0,0.5c0.1,0.1,0.2,0.1,0.3,0.2c0.2-0.1,0.4-0.2,0.5-0.2
			c0.4,0,0.8,0,1.2,0c0.1-0.1,0.2-0.1,0.3-0.2c0.2-0.1,0.3-0.2,0.5-0.3c0.1-0.1,0.2-0.2,0.3-0.3c-0.1-0.2-0.1-0.4-0.2-0.5
			c0-0.2,0.1-0.4,0.1-0.5c0.2-0.2,0.4-0.4,0.5-0.6c0.2-0.1,0.5-0.2,0.7-0.2c0.1-0.2,0.2-0.4,0.4-0.6c0-0.1,0-0.3,0.1-0.4
			c0.2,0,0.4-0.1,0.6-0.1c0.2,0.1,0.4,0.1,0.6,0.2c0.3-0.1,0.7-0.2,1-0.4c0.2-0.1,0.5-0.1,0.7-0.2c0.1,0.1,0.3,0.1,0.4,0.2
			c0.1,0.1,0.1,0.3,0.2,0.4c0.2,0.2,0.3,0.3,0.5,0.5c0.1,0.1,0.3,0.3,0.4,0.4c0.2,0.1,0.4,0.2,0.6,0.3c0.2,0.1,0.4,0.2,0.5,0.3
			c0.1,0.1,0.3,0.2,0.4,0.3c0.1,0.1,0.2,0.3,0.2,0.4c0,0.1,0,0.2,0,0.4c0,0.1-0.1,0.2-0.1,0.3c0.1,0.1,0.1,0.2,0.2,0.2
			c0.1-0.1,0.1-0.1,0.2-0.2c0.1-0.1,0.2-0.2,0.2-0.3c0-0.1,0.1-0.2,0.1-0.2c0-0.1-0.1-0.2-0.1-0.2c-0.1-0.1-0.1-0.1-0.2-0.2
			c0-0.1,0.1-0.1,0.1-0.2c0,0,0.1-0.1,0.1-0.1c0.1,0.1,0.2,0.1,0.3,0.2c0,0.1,0.1,0.1,0.1,0.2c0.1,0,0.1-0.1,0.2-0.1
			c-0.1-0.1-0.2-0.2-0.3-0.4c-0.1-0.1-0.3-0.2-0.4-0.3c-0.1-0.1-0.3-0.2-0.4-0.3c-0.1,0-0.2,0-0.2,0c-0.2,0-0.3-0.1-0.5-0.1
			c-0.1-0.1-0.2-0.3-0.3-0.4c-0.1-0.2-0.2-0.3-0.3-0.5c-0.1-0.1-0.3-0.1-0.4-0.2c-0.1-0.1-0.2-0.3-0.2-0.4c0-0.1,0-0.1,0.1-0.2
			c0-0.1-0.1-0.2-0.1-0.2c0-0.1,0.1-0.1,0.1-0.2c0.1,0,0.3-0.1,0.4-0.1c0.1,0.1,0.2,0.2,0.3,0.2c0.1,0.1,0.2,0.2,0.3,0.3
			c0.1,0.1,0.2,0.2,0.3,0.4c0.1,0.1,0.2,0.2,0.3,0.3c0.1,0,0.3,0.1,0.4,0.1c0.1,0.1,0.1,0.2,0.2,0.2c0.2,0.1,0.4,0.1,0.7,0.2
			c0.1,0.2,0.2,0.3,0.4,0.5c0,0.1-0.1,0.3-0.1,0.4c0.1,0.1,0.2,0.2,0.3,0.3c0.2,0.1,0.3,0.2,0.5,0.4c0.2,0,0.4,0.1,0.6,0.1
			c0.1,0.1,0.2,0.3,0.2,0.4c0.3,0.1,0.6,0.3,0.9,0.4c0.1-0.1,0.1-0.2,0.2-0.3c-0.2-0.1-0.4-0.2-0.5-0.4c-0.1-0.1-0.1-0.2-0.2-0.4
			c0-0.1-0.1-0.2-0.1-0.3c0.1-0.2,0.3-0.3,0.4-0.5c0.2,0,0.4,0,0.6,0c0.2,0,0.3,0,0.5,0c0.2-0.1,0.3-0.1,0.5-0.2
			c0.1-0.1,0.2-0.2,0.2-0.2c-0.2-0.3-0.3-0.6-0.5-1c0.3-0.1,0.5-0.2,0.8-0.3c0.3-0.2,0.7-0.5,1-0.8c0.2,0,0.5,0,0.8,0.1
			c0.2-0.2,0.4-0.3,0.6-0.5c0.3,0,0.6,0,0.9,0.1c0.3,0.1,0.6,0.3,1,0.4c0.2,0.1,0.5,0.3,0.7,0.4c0,0.2,0,0.4,0,0.6
			c-0.2,0.1-0.4,0.2-0.6,0.2c-0.3,0.1-0.5,0.1-0.8,0.2c-0.3-0.1-0.5-0.2-0.8-0.3c-0.3,0-0.6,0-1-0.1c-0.2,0.2-0.4,0.3-0.6,0.5
			c-0.2,0.1-0.5,0.1-0.7,0.2c-0.2,0.1-0.5,0.2-0.7,0.4c-0.3,0.1-0.5,0.3-0.8,0.4c0,0.2,0,0.5,0.1,0.7c0.2,0.2,0.5,0.5,0.7,0.7
			c0.2,0.3,0.5,0.6,0.8,0.9c0.2-0.1,0.4-0.1,0.6-0.2c0.1-0.1,0.2-0.3,0.2-0.4c0.1,0.1,0.3,0.2,0.4,0.3c0.3,0,0.6-0.1,0.9-0.1
			c0.1-0.1,0.2-0.3,0.3-0.4c0.3,0,0.6,0,1,0.1c0,0.2-0.1,0.4-0.1,0.5c0,0.5,0,0.9,0,1.4c0,0.3,0.1,0.6,0.1,1c0.1,0,0.2,0,0.3,0.1
			c0.1,0.3,0.2,0.6,0.2,0.9c0,0.2-0.1,0.4-0.1,0.5c0,0.3,0,0.5,0.1,0.8c0.1,0.1,0.2,0.2,0.3,0.2c0.2,0.3,0.5,0.6,0.7,0.9
			c0.2,0.3,0.4,0.6,0.6,0.9c0.1,0.1,0.3,0.2,0.4,0.3c0.2,0.4,0.3,0.7,0.5,1.1c0.2,0.3,0.3,0.5,0.5,0.7c0.2,0.1,0.5,0.2,0.7,0.3
			c0.1,0.2,0.2,0.5,0.4,0.7c0.3,0.3,0.5,0.5,0.8,0.8c0.3,0.8,0.7,1.7,1,2.5c0.6-0.4,1.2-0.9,1.8-1.3c0.5-0.5,1-0.9,1.4-1.4
			c0.2-0.2,0.3-0.3,0.5-0.5c0-0.2,0-0.5,0.1-0.7c0.2-0.2,0.4-0.4,0.6-0.6c0.1-0.1,0.3-0.3,0.4-0.4c0.1-0.3,0.1-0.5,0.2-0.8
			c0.1-0.1,0.3-0.2,0.4-0.3c-0.1-0.2-0.2-0.5-0.2-0.7c0.1-0.3,0.2-0.6,0.3-0.9c0-0.2,0.1-0.5,0.1-0.7c-0.2-0.2-0.5-0.3-0.7-0.5
			c-0.2,0-0.4,0.1-0.5,0.1c-0.1-0.1-0.3-0.2-0.4-0.3c-0.1-0.3-0.3-0.7-0.4-1c-0.1,0.3-0.2,0.7-0.3,1c-0.1,0.2-0.2,0.4-0.3,0.6
			c-0.2,0.1-0.4,0.2-0.6,0.3c-0.1,0-0.2-0.1-0.3-0.1c0-0.1,0-0.3,0-0.4c-0.1-0.2-0.1-0.4-0.2-0.6c-0.1,0.1-0.2,0.1-0.2,0.2
			c0,0.2,0,0.3,0,0.5c-0.1-0.1-0.2-0.3-0.3-0.4c-0.2-0.2-0.3-0.4-0.5-0.6c-0.3-0.3-0.6-0.5-0.9-0.8c0-0.2-0.1-0.5-0.1-0.7
			c0.2-0.1,0.4-0.2,0.6-0.3c0.2,0.3,0.5,0.5,0.8,0.8c0.1,0.1,0.2,0.3,0.3,0.4c0.1,0,0.3,0,0.4,0c0.2,0.1,0.4,0.2,0.6,0.3
			c0.1,0,0.3,0,0.4,0c0.2-0.2,0.4-0.5,0.5-0.7c0.1,0,0.2,0,0.3,0c0.1,0.2,0.2,0.5,0.3,0.7c0.5-0.1,0.9-0.3,1.4-0.4
			c0.3-0.2,0.6-0.3,1-0.5c0.2-0.1,0.4-0.3,0.6-0.4c0,0,0,0,0.1,0c0.2,0.2,0.5,0.4,0.7,0.6c0.2,0.1,0.5,0.2,0.7,0.2
			c0.2-0.1,0.3-0.3,0.5-0.4c0.2,0.2,0.5,0.5,0.7,0.7c0.3,0.6,0.5,1.3,0.8,1.9c0.3,0.5,0.5,0.9,0.8,1.4c0.3,0.5,0.6,1,0.9,1.5
			c0.2,0.5,0.3,1,0.5,1.5c0.1-0.5,0.1-1,0.2-1.5c0-0.8,0-1.6-0.1-2.4c-0.2-0.3-0.3-0.7-0.5-1c0.1-0.5,0.2-1.1,0.2-1.6
			c-0.1-0.7-0.2-1.3-0.3-2c0-0.4-0.1-0.8-0.1-1.1c0.1-0.2,0.1-0.4,0.2-0.6C176.1,269.3,168.8,286.8,153.3,294.1z"/>
		<polygon class="st5" points="133.6,239.6 133.3,238.9 132.8,238.8 132.2,238.8 131.5,238.7 131.2,238.9 131.4,239.3 131.1,239.6 
			131.4,239.9 132.2,240 132.8,239.8 		"/>
		<polygon class="st5" points="132.3,246.3 133,246.1 133.4,246 133.7,245.6 133.9,245.2 134.1,244.9 133.8,244.4 133.3,244.3 
			133,244.8 132.7,244.9 132.6,245.3 132.4,245.5 132.4,245.7 132.2,245.9 132.1,246.2 		"/>
		<polygon class="st5" points="133.7,247.2 134.1,247.1 134.3,247.1 134.8,246.9 135.5,246.9 136.2,246.8 136.5,246.7 136.3,246.4 
			136.6,246.1 136.3,245.8 136,245.4 135.8,245 135.6,244.7 135.5,244.4 135.2,244.2 135.3,243.8 135.6,243.6 135.7,243.2 
			135.6,242.7 134.2,242.8 134.1,243.4 134.2,244 134.3,244.5 134.7,244.8 135,245.3 134.6,245.5 134.4,245.5 134.4,246 
			134.1,246.2 134,246.4 134.2,246.6 		"/>
		<polygon class="st5" points="157.9,287.3 158.9,286.9 159.4,286 160.3,284.5 161,283.2 161.6,282 161.6,280.2 161.1,281.1 
			160.9,281.1 160.7,281.5 160.1,282.2 159.5,282.8 158.9,283.1 158.7,283.5 158.5,283.8 158.6,284.4 158.5,284.9 158.1,285.3 
			157.8,285.8 157.5,286.2 157.6,286.5 157.5,286.9 		"/>
		<polygon class="st5" points="144.8,292.9 143.9,292.4 144,292 143.3,290.7 142.9,290.6 142.4,288.5 141,286.3 141.2,284.9 
			142.4,283.4 141.8,282.3 142,281.5 141.2,280.2 139.4,277.8 140.1,275.6 139.4,274.5 137.6,274.6 137.1,274.3 136.3,273.3 
			133.3,273.8 132.6,274.2 131.6,273.8 129.1,274.2 126.7,272 125,270.8 123.6,270.3 124.5,267.4 125.3,265.5 125,263.4 
			125.6,262.1 126.4,261.5 126.6,260.6 127.7,259.6 129.6,258.7 130.2,256.8 131.2,256.2 132.1,255.4 132.8,255.8 133.7,256 
			134.8,255.5 136,255 137.8,255 139.1,255.2 139.8,254.9 140.5,255.1 140,256.6 140.5,257 142.4,257.7 143.2,258.3 144.6,258.8 
			145.2,258.4 145.1,257.7 145.4,257.2 147.4,257.6 149.5,257.8 150.4,257.7 151.4,257.9 153.3,261.1 154,262.1 154.6,262.6 
			155.3,264.4 156,264.9 156.8,266.1 157.8,266.9 159,268 159.4,268.6 159.9,268.1 160.6,268 161.1,267.4 162.3,266.6 162.3,268.6 
			161.2,271.6 159.4,274.3 157.3,277 156.8,278.7 157.1,280.8 157.2,283.2 155.9,284.3 154.5,285.2 153.7,286 153.9,287.3 
			153.5,288 152,288.8 151.8,289.7 150.7,290.5 149,292 147.4,292.8 145.7,293.5 		"/>
		<polyline class="st5" points="142.5,254.2 141.8,254.4 141.3,254.5 141.3,254.8 142,255 142.4,255.2 142.6,254.9 142.5,254.6 		
			"/>
		<polyline class="st5" points="149.6,255.5 150.1,255.4 150.5,255.2 151,254.8 151,254.9 150.8,255.1 150.8,255.3 150.8,255.4 
			151,255.6 150.8,255.7 150.6,255.8 150.3,256 149.6,256 149.5,255.8 		"/>
		<polyline class="st5" points="138.9,252.4 138.8,252.6 138.8,252.8 139,253 139,252.8 139.1,252.5 		"/>
	</g>
	<g>
		<rect x="314.6" y="149.7" class="st1" width="0.8" height="26.6"/>
	</g>
	<g>
		<g>
			<rect x="137.6" y="113.9" class="st1" width="0.8" height="103.9"/>
		</g>
		<g>
			<rect x="137.6" y="113.4" class="st1" width="53.8" height="0.8"/>
		</g>
	</g>
	<g>
		<g>
			<rect x="489.4" y="100.2" class="st1" width="0.8" height="103.9"/>
		</g>
		<g>
			<rect x="424.3" y="99.7" class="st1" width="65.9" height="0.8"/>
		</g>
	</g>
	<g>
		<polygon class="st1" points="237.2,400.6 237.2,401 217.4,401 217.4,375.7 176.1,375.7 176.1,375.3 217.9,375.3 217.9,400.6 		"/>
	</g>
	<g id="Page-1">
		<g id="icon-132-cloud">
			<path id="cloud" class="st10" d="M400.9,73.7c16,5.5,27.3,18.8,27.3,34.4c0,20.5-19.6,37.1-43.8,37.1H235.5
				c-24.2,0-43.8-16.6-43.8-37.1c0-15.2,10.9-28.3,26.4-34.1l0,0c-0.1-1-0.1-2-0.1-3.1c0-28.7,27.5-52,61.3-52
				c22.9,0,42.9,10.6,53.4,26.4c6.4-2.6,13.5-4.1,21.1-4.1C377,41.2,396.4,55.1,400.9,73.7z"/>
		</g>
	</g>
	<g id="_x33__stroke">
		<g id="Windows_Phone_1_">
			<rect x="282.4" y="55.4" class="st23" width="41.9" height="41.9"/>
			<path id="Windows_Phone" class="st5" d="M324.3,77.6l0,19.8l-22.7-3.2l0-16.6L324.3,77.6z M301.6,58.7l22.7-3.3v19.9l-22.7,0.2
				V58.7z M299.5,77.4l0,16.5l-17.1-2.3l0-14.2L299.5,77.4z M282.4,61.4l17.1-2.3l0,16.5l-17.1,0.1L282.4,61.4z"/>
		</g>
	</g>
	<g>
		<path class="st5" d="M277.6,123.1l-1.8,5.4h-2.3l5.8-17h2.7l5.8,17h-2.3l-1.8-5.4H277.6z M283.2,121.4l-1.7-4.9
			c-0.4-1.1-0.6-2.1-0.9-3.1h-0.1c-0.3,1-0.5,2-0.9,3.1l-1.7,4.9H283.2z"/>
		<path class="st5" d="M291.1,127.2l5.5-7.2c0.5-0.7,1-1.2,1.6-1.9V118h-6.6v-1.8h9.3l0,1.4l-5.5,7.1c-0.5,0.7-1,1.3-1.6,1.9v0.1
			h7.1v1.8h-9.9V127.2z"/>
		<path class="st5" d="M315.4,125.1c0,1.3,0,2.4,0.1,3.3h-2l-0.1-2h-0.1c-0.6,1-1.9,2.3-4,2.3c-1.9,0-4.2-1.1-4.2-5.4v-7.1h2.2v6.8
			c0,2.3,0.7,3.9,2.7,3.9c1.5,0,2.5-1,2.9-2c0.1-0.3,0.2-0.7,0.2-1.1v-7.5h2.2V125.1z"/>
		<path class="st5" d="M321,120.1c0-1.4,0-2.7-0.1-3.8h1.9l0.1,2.4h0.1c0.6-1.6,1.9-2.7,3.4-2.7c0.3,0,0.4,0,0.6,0.1v2.1
			c-0.2-0.1-0.5-0.1-0.8-0.1c-1.6,0-2.7,1.2-3,2.9c-0.1,0.3-0.1,0.7-0.1,1v6.5H321V120.1z"/>
		<path class="st5" d="M332.1,122.8c0.1,3,2,4.2,4.2,4.2c1.6,0,2.6-0.3,3.4-0.6l0.4,1.6c-0.8,0.4-2.1,0.8-4.1,0.8
			c-3.8,0-6-2.5-6-6.2c0-3.7,2.2-6.6,5.7-6.6c4,0,5.1,3.5,5.1,5.8c0,0.5-0.1,0.8-0.1,1H332.1z M338.6,121.2c0-1.4-0.6-3.6-3.1-3.6
			c-2.2,0-3.2,2.1-3.4,3.6H338.6z"/>
	</g>
	<g>
		<polygon class="st1" points="443.5,373.9 443.5,374.3 423.7,374.3 423.7,349 382.3,349 382.3,348.6 424.2,348.6 424.2,373.9 		"/>
	</g>
</g>
</svg>
