<?xml version="1.0" encoding="utf-8"?>
<!-- Generator: Adobe Illustrator 20.0.0, SVG Export Plug-In . SVG Version: 6.00 Build 0)  -->
<svg version="1.1" id="Layer_1" xmlns="http://www.w3.org/2000/svg" xmlns:xlink="http://www.w3.org/1999/xlink" x="0px" y="0px"
	 viewBox="0 0 612 612" style="enable-background:new 0 0 612 612;" xml:space="preserve">
<style type="text/css">
	.st0{fill:url(#SVGID_2_);}
	.st1{clip-path:url(#SVGID_4_);}
	.st2{fill:#DBE3E5;}
	.st3{fill:#E5E5E4;}
	.st4{fill:#FFFFFF;}
	.st5{fill:#0E303F;}
	.st6{fill:#DEF2FC;}
	.st7{opacity:0.3;fill:#FFFFFF;enable-background:new    ;}
	.st8{fill:#BBBDBF;}
	.st9{fill:#60A945;}
	.st10{enable-background:new    ;}
	.st11{fill:#231F20;}
	.st12{opacity:0.2;}
	.st13{fill:#603A17;}
	.st14{fill:#F3C79F;}
	.st15{fill:#009CB3;}
	.st16{fill:#E16049;}
	.st17{fill:#D3D1CE;}
	.st18{fill:#F48563;}
	.st19{fill:#DFDDDB;}
	.st20{opacity:0.8;}
	.st21{fill:none;stroke:#FFFFFF;stroke-width:5;stroke-miterlimit:10;}
	.st22{fill:none;stroke:#FFFFFF;stroke-width:2;stroke-miterlimit:10;}
	.st23{fill:none;stroke:#FFFFFF;stroke-width:2;stroke-miterlimit:10;stroke-dasharray:1.9734,1.9734;}
</style>
<g>
	<g>
		<g>
			
				<radialGradient id="SVGID_2_" cx="306" cy="306.55" r="306" gradientTransform="matrix(1 0 0 -1 0 612.5499)" gradientUnits="userSpaceOnUse">
				<stop  offset="0" style="stop-color:#F8CB55"/>
				<stop  offset="0.3298" style="stop-color:#F8C853"/>
				<stop  offset="0.5341" style="stop-color:#F7C04D"/>
				<stop  offset="0.7042" style="stop-color:#F6B143"/>
				<stop  offset="0.8546" style="stop-color:#F59D34"/>
				<stop  offset="0.9923" style="stop-color:#F38321"/>
				<stop  offset="1" style="stop-color:#F38120"/>
			</radialGradient>
			<circle id="SVGID_1_" class="st0" cx="306" cy="306" r="306"/>
		</g>
		<g>
			<defs>
				<circle id="SVGID_3_" cx="306" cy="306" r="306"/>
			</defs>
			<clipPath id="SVGID_4_">
				<use xlink:href="#SVGID_3_"  style="overflow:visible;"/>
			</clipPath>
			<g class="st1">
				<g>
					<path class="st2" d="M313.7,230.6h4.8c1.1,0,2.3-0.9,2.7-1.9l0.9-2.2c0.5-1,0.3-2.5-0.5-3.3l-3.4-3.4c-0.8-0.8-0.8-2.1,0-2.9
						l5.3-5.3c0.8-0.8,2.1-0.8,2.9,0l3.4,3.4c0.8,0.8,2.3,1,3.3,0.5l2.2-0.9c1-0.3,1.9-1.6,1.9-2.7v-4.8c0-1.1,0.9-2,2-2h7.5
						c1.1,0,2,0.9,2,2v4.8c0,1.1,0.9,2.3,1.9,2.7l2.2,0.9c1,0.5,2.5,0.3,3.3-0.5l3.4-3.4c0.8-0.8,2.1-0.8,2.9,0l5.3,5.3
						c0.8,0.8,0.8,2.1,0,2.9l-3.4,3.4c-0.8,0.8-1,2.2-0.5,3.3l0.9,2.2c0.4,1.1,1.6,1.9,2.7,1.9h4.8c1.1,0,2,0.9,2,2v7.4
						c0,1.1-0.9,2-2,2h-4.8c-1.1,0-2.3,0.9-2.7,1.9l-0.9,2.2c-0.5,1-0.3,2.5,0.5,3.3l3.4,3.4c0.8,0.8,0.8,2.1,0,2.9l-5.3,5.3
						c-0.8,0.8-2.1,0.8-2.9,0l-3.4-3.4c-0.8-0.8-2.2-1-3.3-0.5l-2.2,0.9c-1.1,0.3-1.9,1.6-1.9,2.7v4.8c0,1.1-0.9,2-2,2h-7.5
						c-1.1,0-2-0.9-2-2v-4.8c0-1.1-0.9-2.3-1.9-2.7l-2.3-1c-1-0.5-2.5-0.3-3.3,0.5l-3.4,3.4c-0.8,0.8-2.1,0.8-2.9,0l-5.3-5.3
						c-0.8-0.8-0.8-2.1,0-2.9l3.4-3.4c0.8-0.8,1-2.3,0.5-3.3l-0.9-2.2c-0.4-1.1-1.6-1.9-2.7-1.9h-4.8c-1.1,0-2-0.9-2-2v-7.4
						C311.7,231.5,312.6,230.6,313.7,230.6z M342.9,246.1c5.4,0,9.8-4.4,9.8-9.8c0-5.4-4.4-9.8-9.8-9.8s-9.8,4.4-9.8,9.8
						C333,241.7,337.4,246.1,342.9,246.1z"/>
					<g>
						<g>
							<path class="st3" d="M260.7,436.6c-4.5,13.4-9,26.9-13.5,40.3c39.2,0,78.4,0,117.6,0c-4.5-13.4-9-26.9-13.5-40.3
								C321.1,436.6,290.9,436.6,260.7,436.6z"/>
							<path class="st4" d="M371.5,473.1h-131c-3.3,0-6,3.2-6,7.1v2.7h143v-2.7C377.5,476.3,374.8,473.1,371.5,473.1z"/>
							<path class="st4" d="M109,403.1v28.1c0,5.4,4.4,9.8,9.8,9.8h374.3c5.4,0,9.8-4.4,9.8-9.8v-28.1H109z"/>
							<path class="st5" d="M503,403.1V164.8c0-5.4-4.4-9.8-9.8-9.8H118.8c-5.4,0-9.8,4.4-9.8,9.8v238.3H503z"/>
							<rect x="125.7" y="170.9" class="st6" width="360.5" height="215.4"/>
							<polygon class="st7" points="125.7,386.2 486.3,170.9 486.3,386.2 							"/>
						</g>
						<rect x="192.7" y="247.4" class="st4" width="226.7" height="79.3"/>
						<rect x="290" y="275.4" class="st8" width="79.3" height="27"/>
						<rect x="246" y="275.4" class="st9" width="79.3" height="27"/>
						<g class="st10">
							<path class="st11" d="M270,262.6c-0.5-0.2-0.9-0.4-1.1-0.8c-0.2-0.3-0.4-0.8-0.4-1.2c0-0.7,0.3-1.3,0.8-1.8s1.2-0.7,2.1-0.7
								c0.9,0,1.6,0.3,2.1,0.8c0.5,0.5,0.8,1.1,0.8,1.8c0,0.5-0.1,0.9-0.4,1.2c-0.2,0.3-0.6,0.6-1.1,0.8c0.6,0.2,1.1,0.5,1.4,1
								c0.3,0.4,0.5,1,0.5,1.6c0,0.8-0.3,1.6-0.9,2.1c-0.6,0.6-1.4,0.9-2.4,0.9s-1.8-0.3-2.4-0.9s-0.9-1.3-0.9-2.2
								c0-0.6,0.2-1.2,0.5-1.6C268.9,263.1,269.3,262.8,270,262.6z M269.3,265.2c0,0.3,0.1,0.7,0.2,1s0.4,0.6,0.7,0.8
								c0.3,0.2,0.7,0.3,1,0.3c0.6,0,1.1-0.2,1.4-0.6c0.4-0.4,0.6-0.8,0.6-1.4c0-0.6-0.2-1.1-0.6-1.5s-0.9-0.6-1.5-0.6
								c-0.6,0-1,0.2-1.4,0.6C269.5,264.1,269.3,264.6,269.3,265.2z M269.7,260.6c0,0.5,0.2,0.9,0.5,1.1c0.3,0.3,0.7,0.4,1.2,0.4
								c0.5,0,0.9-0.1,1.2-0.4c0.3-0.3,0.4-0.7,0.4-1.1c0-0.4-0.2-0.8-0.5-1.1s-0.7-0.5-1.2-0.5c-0.5,0-0.8,0.1-1.2,0.4
								C269.9,259.8,269.7,260.2,269.7,260.6z"/>
							<path class="st11" d="M275.8,263.1c0-1.2,0.1-2.1,0.4-2.8c0.2-0.7,0.6-1.3,1.1-1.7c0.5-0.4,1.1-0.6,1.8-0.6
								c0.5,0,1,0.1,1.4,0.3c0.4,0.2,0.7,0.5,1,0.9c0.3,0.4,0.5,0.9,0.6,1.5c0.1,0.6,0.2,1.4,0.2,2.3c0,1.2-0.1,2.1-0.4,2.8
								s-0.6,1.3-1.1,1.7c-0.5,0.4-1.1,0.6-1.8,0.6c-1,0-1.7-0.3-2.3-1C276.1,266.3,275.8,265,275.8,263.1z M277,263.1
								c0,1.6,0.2,2.7,0.6,3.2s0.9,0.8,1.4,0.8s1-0.3,1.4-0.8c0.4-0.5,0.6-1.6,0.6-3.2c0-1.6-0.2-2.7-0.6-3.3
								c-0.4-0.5-0.9-0.8-1.4-0.8c-0.6,0-1,0.2-1.3,0.7C277.2,260.4,277,261.5,277,263.1z"/>
							<path class="st11" d="M283.7,260.5c0-0.7,0.2-1.3,0.5-1.8c0.4-0.5,0.9-0.7,1.5-0.7c0.6,0,1.1,0.2,1.5,0.7s0.6,1.1,0.6,2
								c0,0.8-0.2,1.5-0.6,1.9c-0.4,0.5-0.9,0.7-1.5,0.7c-0.6,0-1.1-0.2-1.5-0.7C283.9,262.1,283.7,261.4,283.7,260.5z M285.8,258.8
								c-0.3,0-0.6,0.1-0.8,0.4c-0.2,0.3-0.3,0.7-0.3,1.4c0,0.6,0.1,1.1,0.3,1.3c0.2,0.3,0.5,0.4,0.8,0.4c0.3,0,0.6-0.1,0.8-0.4
								c0.2-0.3,0.3-0.7,0.3-1.4c0-0.6-0.1-1.1-0.3-1.3C286.4,258.9,286.1,258.8,285.8,258.8z M285.8,268.4l5.4-10.4h1l-5.4,10.4
								H285.8z M290.1,265.7c0-0.7,0.2-1.3,0.5-1.8c0.4-0.5,0.9-0.7,1.6-0.7c0.6,0,1.1,0.2,1.5,0.7c0.4,0.4,0.6,1.1,0.6,2
								c0,0.8-0.2,1.5-0.6,1.9c-0.4,0.5-0.9,0.7-1.5,0.7c-0.6,0-1.1-0.2-1.5-0.7S290.1,266.6,290.1,265.7z M292.2,264
								c-0.3,0-0.6,0.1-0.8,0.4c-0.2,0.3-0.3,0.7-0.3,1.4c0,0.6,0.1,1.1,0.3,1.3c0.2,0.3,0.5,0.4,0.8,0.4c0.3,0,0.6-0.1,0.8-0.4
								c0.2-0.3,0.3-0.7,0.3-1.4c0-0.6-0.1-1.1-0.3-1.3C292.8,264.1,292.5,264,292.2,264z"/>
						</g>
					</g>
					<g>
						<g class="st12">
							<g>
								<g>
									<path class="st13" d="M85,321.1c0,0-6.3,95.9-2,103.7c9.3,16.9,12.5,27.4,12.5,27.4l-3.7,8.4l59.9,31.3l8.6-19.2
										c0,0,12.5,6.2,28.4-27.8l-78.6-3.3l-3.3-103.8C106.7,337.9,100.9,323.2,85,321.1z"/>
								</g>
								<g>
									<path class="st13" d="M193.4,322.9c-4.6,4.6-12,4.6-16.6,0l0,0c-4.6-4.6-4.6-12,0-16.5l26-26c4.6-4.6,12-4.6,16.6,0l0,0
										c4.6,4.6,4.6,12,0,16.6L193.4,322.9z"/>
								</g>
								<g>
									<path class="st13" d="M193.4,356.3c-4.6,4.6-12,4.6-16.6,0l0,0c-4.6-4.6-4.6-12,0-16.5l26-26c4.6-4.6,12-4.6,16.6,0l0,0
										c4.6,4.6,4.6,12,0,16.6L193.4,356.3z"/>
								</g>
								<polygon class="st13" points="81.6,455.6 160.2,496.5 112,573 2.4,573 								"/>
								<g>
									<path class="st13" d="M202.4,375.8c-4.2,4.2-10.9,4.2-15,0l0,0c-4.1-4.2-4.1-10.9,0-15l23.6-23.6c4.2-4.2,10.9-4.2,15,0
										l0,0c4.1,4.1,4.1,10.9,0,15L202.4,375.8z"/>
								</g>
								<g>
									<path class="st13" d="M207.5,396.4c-3.8,3.8-10.1,3.8-13.9,0l0,0c-3.8-3.8-3.8-10.1,0-13.9l21.9-21.9
										c3.8-3.8,10.1-3.8,13.9,0l0,0c3.8,3.8,3.8,10.1,0,13.9L207.5,396.4z"/>
								</g>
							</g>
						</g>
						<path class="st14" d="M75,321.1c0,0-6.3,95.9-2,103.7c9.3,16.9,12.5,27.4,12.5,27.4l-3.7,8.4l59.9,31.3l8.6-19.2
							c0,0,12.5,6.2,28.4-27.8l-78.6-3.3l-3.3-103.8C96.7,337.9,90.9,323.2,75,321.1z"/>
						<path class="st14" d="M183.4,322.9c-4.6,4.6-12,4.6-16.6,0l0,0c-4.6-4.6-4.6-12,0-16.5l26-26c4.6-4.6,12-4.6,16.6,0l0,0
							c4.6,4.6,4.6,12,0,16.6L183.4,322.9z"/>
						<path class="st14" d="M183.4,356.3c-4.6,4.6-12,4.6-16.6,0l0,0c-4.6-4.6-4.6-12,0-16.5l26-26c4.6-4.6,12-4.6,16.6,0l0,0
							c4.6,4.6,4.6,12,0,16.6L183.4,356.3z"/>
						<polygon class="st15" points="71.6,455.6 150.2,496.5 102,573 -7.6,573 						"/>
						<path class="st14" d="M197.5,396.4c-3.8,3.8-10.1,3.8-13.9,0l0,0c-3.8-3.8-3.8-10.1,0-13.9l21.9-21.9c3.8-3.8,10.1-3.8,13.9,0
							l0,0c3.8,3.8,3.8,10.1,0,13.9L197.5,396.4z"/>
					</g>
					<g>
						<path class="st16" d="M104.3,224.6c-2.9,0-5.3,2.4-5.3,5.3v206.9c0,2.9,2.4,5.3,5.3,5.3h143.2c2.9,0,5.3-2.4,5.3-5.3v-207
							c0-2.9-2.4-5.3-5.3-5.3H104.3V224.6z"/>
						<rect x="107.7" y="236.9" class="st4" width="136.3" height="192.7"/>
						<g>
							<g>
								<rect x="125.1" y="388.2" class="st17" width="101.6" height="3"/>
								<rect x="125.1" y="395.7" class="st17" width="101.6" height="3"/>
								<rect x="125.1" y="403.3" class="st17" width="50.8" height="3"/>
							</g>
						</g>
						<g>
							<g>
								<rect x="125.1" y="365.4" class="st17" width="101.6" height="3"/>
								<rect x="125.1" y="373" class="st17" width="101.6" height="3"/>
								<rect x="125.1" y="380.5" class="st17" width="101.2" height="3"/>
							</g>
						</g>
						<g>
							<g>
								<g>
									<rect x="152.2" y="271.5" class="st17" width="74.1" height="3.3"/>
									<rect x="152.2" y="293.9" class="st17" width="74.1" height="3.3"/>
									<rect x="152.2" y="316.2" class="st17" width="74.1" height="3.3"/>
									<rect x="152.2" y="338.5" class="st17" width="74.1" height="3.3"/>
								</g>
							</g>
							<g>
								<g>
									<path class="st17" d="M134.4,282.2c-5,0-9-4-9-9s4-9,9-9s9,4,9,9S139.4,282.2,134.4,282.2z M134.4,266
										c-4,0-7.2,3.2-7.2,7.2s3.2,7.2,7.2,7.2s7.2-3.2,7.2-7.2C141.6,269.2,138.4,266,134.4,266z"/>
									<path class="st17" d="M134.4,304.5c-5,0-9-4-9-9s4-9,9-9s9,4,9,9S139.4,304.5,134.4,304.5z M134.4,288.3
										c-4,0-7.2,3.2-7.2,7.2s3.2,7.2,7.2,7.2s7.2-3.2,7.2-7.2C141.6,291.6,138.4,288.3,134.4,288.3z"/>
									<path class="st17" d="M134.4,326.9c-5,0-9-4-9-9s4-9,9-9s9,4,9,9S139.4,326.9,134.4,326.9z M134.4,310.7
										c-4,0-7.2,3.2-7.2,7.2s3.2,7.2,7.2,7.2s7.2-3.2,7.2-7.2C141.6,313.9,138.4,310.7,134.4,310.7z"/>
									<path class="st17" d="M134.4,349.2c-5,0-9-4-9-9s4-9,9-9s9,4,9,9C143.4,345.1,139.4,349.2,134.4,349.2z M134.4,333
										c-4,0-7.2,3.2-7.2,7.2s3.2,7.2,7.2,7.2s7.2-3.2,7.2-7.2C141.6,336.2,138.4,333,134.4,333z"/>
								</g>
							</g>
							<polygon class="st18" points="128.7,294 130.3,292.4 134.6,296.7 143.4,287.9 144.9,289.5 134.6,299.8 							"/>
						</g>
						<g>
							<path class="st19" d="M187.5,224.9c0-6.5-5.2-11.7-11.7-11.7s-11.7,5.2-11.7,11.7h-14.8v24h52.9v-24H187.5z M175.9,220.9
								c2.2,0,4,1.8,4,4s-1.8,4-4,4s-4-1.8-4-4S173.7,220.9,175.9,220.9z"/>
							<path class="st17" d="M187.5,224.9c0-6.5-5.2-11.7-11.7-11.7s-11.7,5.2-11.7,11.7h-14.8v12h52.9v-12H187.5z M175.9,220.9
								c2.2,0,4,1.8,4,4s-1.8,4-4,4s-4-1.8-4-4S173.7,220.9,175.9,220.9z"/>
							<rect x="149.4" y="234.4" class="st4" width="52.9" height="2.5"/>
							<rect x="149.4" y="236.9" class="st17" width="52.9" height="2.5"/>
						</g>
					</g>
				</g>
			</g>
		</g>
	</g>
	<g class="st20">
		<rect x="156" y="97.8" class="st21" width="36.5" height="38.8"/>
		<rect x="243.8" y="97.8" class="st21" width="36.5" height="38.8"/>
		<rect x="331.7" y="97.8" class="st21" width="36.5" height="38.8"/>
		<rect x="419.5" y="97.8" class="st21" width="36.5" height="38.8"/>
		<g>
			<g>
				<line class="st22" x1="192.5" y1="117.2" x2="193.5" y2="117.2"/>
				<line class="st23" x1="195.5" y1="117.2" x2="241.8" y2="117.2"/>
				<line class="st22" x1="242.8" y1="117.2" x2="243.8" y2="117.2"/>
			</g>
		</g>
		<g>
			<g>
				<line class="st22" x1="280.3" y1="117.2" x2="281.3" y2="117.2"/>
				<line class="st23" x1="283.3" y1="117.2" x2="329.7" y2="117.2"/>
				<line class="st22" x1="330.7" y1="117.2" x2="331.7" y2="117.2"/>
			</g>
		</g>
		<g>
			<g>
				<line class="st22" x1="368.2" y1="117.2" x2="369.2" y2="117.2"/>
				<line class="st23" x1="371.1" y1="117.2" x2="417.5" y2="117.2"/>
				<line class="st22" x1="418.5" y1="117.2" x2="419.5" y2="117.2"/>
			</g>
		</g>
		<polygon class="st4" points="159.2,112.3 163.2,106.9 177.6,118.7 200.4,87.3 205.5,91.6 178.7,128.4 		"/>
	</g>
</g>
</svg>
