<?xml version="1.0" encoding="utf-8"?>
<!-- Generator: Adobe Illustrator 19.2.1, SVG Export Plug-In . SVG Version: 6.00 Build 0)  -->
<svg version="1.1" id="Layer_1" xmlns="http://www.w3.org/2000/svg" xmlns:xlink="http://www.w3.org/1999/xlink" x="0px" y="0px"
	 viewBox="0 0 612 612" style="enable-background:new 0 0 612 612;" xml:space="preserve">
<style type="text/css">
	.st0{fill:#F5D1AE;}
	.st1{fill:#AB5656;}
	.st2{fill:#F2F2F2;}
	.st3{fill:#2E698E;}
	.st4{fill:#E4A025;}
	.st5{fill:#B4B4B5;}
	.st6{fill:#FFFFFF;}
	.st7{fill:#E4A026;}
	.st8{fill:#333333;}
	.st9{fill:#2AA7DF;}
</style>
<g>
	<circle class="st0" cx="306" cy="306" r="306"/>
	<g>
		<g>
			<path class="st1" d="M532.5,346.4c-0.6,3-3.5,4.9-6.5,4.3l-47.5-9.7c-3-0.6-4.9-3.5-4.3-6.5l19.4-94.7c0.6-3,3.5-4.9,6.5-4.3
				l47.5,9.7c3,0.6,4.9,3.5,4.3,6.5L532.5,346.4z"/>
			
				<rect x="467.4" y="264.7" transform="matrix(0.2003 -0.9797 0.9797 0.2003 126.8749 734.939)" class="st2" width="92.4" height="50"/>
			
				<ellipse transform="matrix(0.2002 -0.9798 0.9798 0.2002 69.118 765.3182)" class="st3" cx="503.3" cy="340.3" rx="3.3" ry="3.3"/>
			
				<rect x="477.8" y="265.7" transform="matrix(0.2003 -0.9797 0.9797 0.2003 136.9015 707.616)" class="st3" width="48.3" height="8.6"/>
			
				<rect x="499.4" y="282" transform="matrix(0.2003 -0.9797 0.9797 0.2003 126.522 727.6187)" class="st4" width="19.1" height="8.6"/>
			
				<rect x="506.5" y="280.4" transform="matrix(0.2003 -0.9797 0.9797 0.2003 136.6418 736.8531)" class="st3" width="26.5" height="8.6"/>
			
				<rect x="514.6" y="279" transform="matrix(0.2003 -0.9797 0.9797 0.2003 147.5152 747.3494)" class="st4" width="34" height="8.6"/>
			<g>
				
					<rect x="503.4" y="309" transform="matrix(0.2003 -0.9797 0.9797 0.2003 82.3229 758.0792)" class="st1" width="4.3" height="39.2"/>
				
					<rect x="505.1" y="300.6" transform="matrix(0.2003 -0.9797 0.9797 0.2003 91.9921 753.0341)" class="st1" width="4.3" height="39.2"/>
				
					<rect x="506.9" y="292.1" transform="matrix(0.2003 -0.9797 0.9797 0.2003 101.6345 747.9579)" class="st1" width="4.3" height="39.2"/>
				
					<rect x="508.6" y="283.7" transform="matrix(0.2004 -0.9797 0.9797 0.2004 111.2878 742.8928)" class="st1" width="4.3" height="39.2"/>
			</g>
		</g>
		<g>
			<path class="st2" d="M581.4,369.1l-41.5-16.5c-3-1.2-6.4,0.3-7.6,3.3L521,384.6c-1.2,3,0.3,6.4,3.3,7.6l27,10.7l0.3,16.6
				l11.6-11.8l2.5,1c3,1.2,6.4-0.3,7.6-3.3l11.4-28.6C585.8,373.7,584.4,370.3,581.4,369.1z"/>
			<g>
				
					<ellipse transform="matrix(0.369 -0.9294 0.9294 0.369 -16.3082 737.4395)" class="st1" cx="535" cy="380.7" rx="3.9" ry="3.9"/>
				
					<ellipse transform="matrix(0.3691 -0.9294 0.9294 0.3691 -12.325 755.5117)" class="st1" cx="550.3" cy="386.8" rx="3.9" ry="3.9"/>
				
					<ellipse transform="matrix(0.3691 -0.9294 0.9294 0.3691 -8.3043 773.6432)" class="st1" cx="565.7" cy="392.9" rx="3.9" ry="3.9"/>
			</g>
		</g>
		<g>
			<rect x="257.5" y="419" class="st5" width="105.5" height="34.8"/>
			<rect x="244" y="445.6" class="st2" width="132.6" height="8.2"/>
			<path class="st2" d="M447.5,417c0,4.5-3.7,8.2-8.2,8.2H181.1c-4.5,0-8.2-3.7-8.2-8.2V233.1c0-4.5,3.7-8.2,8.2-8.2h258.2
				c4.5,0,8.2,3.7,8.2,8.2V417z"/>
			<path class="st3" d="M447.5,399.2V233.1c0-4.5-3.7-8.2-8.2-8.2H181.1c-4.5,0-8.2,3.7-8.2,8.2v166.1H447.5z"/>
			<rect x="184.6" y="236.6" class="st2" width="251.2" height="155.7"/>
			<rect x="184.6" y="236.6" class="st1" width="251.2" height="13"/>
			<rect x="216.8" y="240.1" class="st2" width="187" height="6"/>
			<circle class="st2" cx="190.2" cy="243.1" r="3"/>
			<circle class="st0" cx="198.8" cy="243.1" r="3"/>
			<circle class="st3" cx="207.3" cy="243.1" r="3"/>
			<rect x="406.8" y="240.1" class="st0" width="14.1" height="0.8"/>
			<rect x="406.8" y="241.9" class="st0" width="14.1" height="0.8"/>
			<rect x="406.8" y="243.6" class="st0" width="14.1" height="0.8"/>
			<rect x="406.8" y="245.4" class="st0" width="14.1" height="0.8"/>
			<rect x="424" y="240.1" class="st0" width="7.8" height="6"/>
			<ellipse class="st1" cx="310.2" cy="413.4" rx="6.4" ry="6.4"/>
		</g>
		<path class="st3" d="M140.5,459.1l-6.4,7.1l6,8.8l9-3.3c1.9,1.6,3.9,3,6.1,4.1l0.5,9.5l10.5,2l4-8.7c2.4-0.2,4.8-0.7,7.2-1.5
			l7.1,6.4l8.8-6l-3.3-9c1.6-1.9,3-3.9,4.1-6.1l9.5-0.5l2-10.5l-8.7-4c-0.2-2.4-0.7-4.8-1.5-7.2l6.4-7.1l-6-8.8l-9,3.3
			c-1.9-1.6-3.9-3-6.1-4.1l-0.5-9.5l-10.5-2l-4,8.7c-2.4,0.2-4.8,0.7-7.2,1.5l-7.1-6.4l-8.8,6l3.3,9c-1.6,1.9-3,3.9-4.1,6.1
			l-9.5,0.4l-2,10.5l8.7,4C139.2,454.3,139.7,456.7,140.5,459.1z M154.5,447.1c1.4-7.4,8.6-12.2,16-10.8c7.4,1.4,12.2,8.6,10.8,16
			c-1.4,7.4-8.6,12.2-16,10.8C157.9,461.7,153,454.5,154.5,447.1z"/>
		<path class="st1" d="M439.5,464.8l0.2,3.5l3.8,0.7l1.4-3.2c0.9-0.1,1.8-0.3,2.6-0.6l2.6,2.3l3.2-2.2l-1.3-3.2
			c0.6-0.7,1.1-1.4,1.4-2.3l3.5-0.2l0.7-3.8l-3.2-1.4c-0.1-0.9-0.3-1.8-0.6-2.6l2.3-2.6L454,446l-3.2,1.3c-0.7-0.6-1.4-1.1-2.2-1.4
			l-0.2-3.5l-3.8-0.7l-1.4,3.2c-0.9,0.1-1.8,0.3-2.6,0.6l-2.6-2.3l-3.2,2.2l1.3,3.2c-0.6,0.7-1.1,1.4-1.4,2.2L431,451l-0.7,3.8
			l3.2,1.4c0.1,0.9,0.3,1.8,0.6,2.6l-2.3,2.6l2.2,3.2l3.2-1.3C437.9,463.9,438.7,464.4,439.5,464.8z M439.9,458.1
			c-1.6-2.3-1-5.3,1.2-6.9c2.3-1.6,5.3-1,6.9,1.3c1.6,2.2,1,5.3-1.3,6.9C444.6,461,441.5,460.4,439.9,458.1z"/>
		<g>
			<g>
				<path class="st6" d="M108.9,260.6c2.9-2.7,5.1-6.2,6.3-10.2c3.4-12-3.5-24.6-15.6-28c-12-3.4-24.6,3.5-28,15.6
					c-1.2,4.1-1.1,8.2-0.1,12l-0.1,0c5,16.4,2.2,22.5,2.2,22.5l10.8,3.1l10.8,3.1C95.2,278.5,96.1,271.9,108.9,260.6L108.9,260.6z"
					/>
				<path class="st7" d="M81.2,245.8c1.1-0.1,2.1-0.1,3.2-0.2l0.1,0l0.1,0.1c0.5,0.5,0.9,1,1.4,1.5l-0.5-0.1l2.4-1.6l0.4-0.3
					l0.3,0.4c0.8,1.2,1.6,2.4,2.4,3.5l-0.8-0.2c1.5-0.8,2.9-1.7,4.4-2.5l0.7-0.4l0.2,0.8c0.2,1,0.4,2.1,0.6,3.1l-0.9-0.3l1-0.8
					l0.5-0.4l0.3,0.5l0.9,1.4l-0.6-0.1l2.2-1.4l0.2-0.2l0.2,0.2c1,1,2.1,2,3.1,3c-1.2-0.8-2.3-1.7-3.5-2.5l0.4,0l-2.1,1.6l-0.3,0.3
					L97,251l-1-1.3l0.8,0.1l-0.9,0.8l-0.7,0.6l-0.2-0.9c-0.3-1-0.5-2.1-0.7-3.1l0.9,0.4c-1.5,0.8-2.9,1.6-4.4,2.5l-0.5,0.3l-0.3-0.5
					c-0.7-1.2-1.5-2.4-2.2-3.7l0.7,0.2l-2.5,1.3l-0.3,0.2l-0.2-0.2c-0.4-0.5-0.8-1.1-1.2-1.6l0.2,0.1C83.3,246,82.3,246,81.2,245.8z
					"/>
				<g>
					
						<rect x="65" y="260.5" transform="matrix(7.395384e-002 -0.9973 0.9973 7.395384e-002 -186.0061 321.4953)" class="st7" width="30.2" height="0.8"/>
				</g>
				
					<ellipse transform="matrix(0.2749 -0.9615 0.9615 0.2749 -177.4616 256.3454)" class="st7" cx="81.2" cy="245.8" rx="1.7" ry="1.7"/>
				<g>
					
						<rect x="80.6" y="265" transform="matrix(0.4637 -0.886 0.886 0.4637 -183.7661 227.1651)" class="st7" width="30.2" height="0.8"/>
				</g>
				
					<ellipse transform="matrix(0.2749 -0.9615 0.9615 0.2749 -167.7567 281.5383)" class="st7" cx="102.8" cy="252" rx="1.7" ry="1.7"/>
				<g>
					<polygon class="st1" points="84.4,275.5 73.6,272.4 72,277.9 73.2,282.6 81.7,285 90.2,287.4 93.6,284.1 95.2,278.5 					"/>
					<g>
						<path class="st2" d="M95.8,280.8c-0.1,0.5-0.7,0.8-1.1,0.7l-22.1-6.3c-0.5-0.1-0.8-0.7-0.6-1.2l0,0c0.1-0.5,0.7-0.8,1.1-0.7
							l22.1,6.3C95.7,279.7,95.9,280.3,95.8,280.8L95.8,280.8z"/>
						<path class="st2" d="M94.7,284.4c-0.1,0.5-0.7,0.8-1.1,0.7l-22.1-6.3c-0.5-0.1-0.8-0.7-0.6-1.2l0,0c0.1-0.5,0.7-0.8,1.1-0.7
							l22.1,6.3C94.6,283.4,94.9,283.9,94.7,284.4L94.7,284.4z"/>
						<path class="st2" d="M91.5,287.8c-0.1,0.4-0.5,0.7-0.9,0.6l-18.2-5.2c-0.4-0.1-0.6-0.5-0.5-1l0,0c0.1-0.4,0.5-0.7,0.9-0.6
							l18.2,5.2C91.4,286.9,91.6,287.4,91.5,287.8L91.5,287.8z"/>
					</g>
				</g>
			</g>
			<path class="st1" d="M44.6,258.3c0,0,1-0.6,2.6-1.2c1.6-0.7,3.8-1.4,6-2c2.2-0.6,4.4-1.1,6.2-1.3c1.7-0.3,2.9-0.3,2.9-0.3
				s-1,0.6-2.6,1.2c-1.6,0.7-3.8,1.4-6,2c-2.2,0.6-4.4,1.1-6.2,1.3C45.8,258.3,44.6,258.3,44.6,258.3z"/>
			<path class="st1" d="M43,236.3c0,0,1.2-0.1,2.9,0c1.7,0.1,4,0.3,6.3,0.7c2.3,0.4,4.5,0.9,6.1,1.4c1.7,0.5,2.7,1,2.7,1
				s-1.2,0.1-2.9,0c-1.7-0.1-4-0.3-6.3-0.7c-2.3-0.4-4.5-0.9-6.1-1.4C44.1,236.8,43,236.3,43,236.3z"/>
			<path class="st1" d="M50.9,215.7c0,0,1.1,0.4,2.6,1.2c1.5,0.8,3.5,2,5.4,3.3c1.9,1.3,3.7,2.7,5,3.9c1.3,1.1,2.1,2,2.1,2
				s-1.1-0.4-2.6-1.2c-1.5-0.8-3.5-2-5.4-3.3c-1.9-1.3-3.7-2.7-5-3.9C51.6,216.6,50.9,215.7,50.9,215.7z"/>
			<path class="st1" d="M66.7,200.3c0,0,0.8,0.8,1.8,2.2c1,1.4,2.3,3.3,3.5,5.2c1.1,2,2.2,4,2.9,5.6c0.7,1.6,1,2.7,1,2.7
				s-0.8-0.8-1.8-2.2c-1-1.4-2.3-3.3-3.5-5.2c-1.1-2-2.2-4-2.9-5.6C67,201.4,66.7,200.3,66.7,200.3z"/>
			<path class="st1" d="M87.5,193c0,0,0.4,1.1,0.7,2.8c0.4,1.7,0.7,4,0.9,6.2c0.2,2.3,0.3,4.6,0.2,6.3c0,1.7-0.2,2.9-0.2,2.9
				s-0.4-1.1-0.7-2.8c-0.4-1.7-0.7-3.9-0.9-6.2c-0.2-2.3-0.3-4.6-0.2-6.3C87.3,194.2,87.5,193,87.5,193z"/>
			<path class="st1" d="M109.4,195.3c0,0-0.1,1.2-0.5,2.8c-0.4,1.7-1,3.9-1.8,6c-0.8,2.1-1.7,4.3-2.5,5.8c-0.8,1.5-1.4,2.5-1.4,2.5
				s0.1-1.2,0.5-2.8c0.4-1.7,1-3.9,1.8-6c0.8-2.2,1.7-4.3,2.5-5.8C108.8,196.3,109.4,195.3,109.4,195.3z"/>
			<path class="st1" d="M128.4,206.6c0,0-0.6,1-1.7,2.4c-1.1,1.4-2.6,3.1-4.2,4.7c-1.6,1.6-3.3,3.1-4.7,4.2
				c-1.3,1.1-2.3,1.7-2.3,1.7s0.6-1,1.7-2.4c1.1-1.4,2.6-3.1,4.2-4.7c1.6-1.6,3.3-3.1,4.7-4.2C127.4,207.2,128.4,206.6,128.4,206.6z
				"/>
			<path class="st1" d="M140.8,224.8c0,0-1,0.7-2.5,1.4c-1.5,0.8-3.6,1.7-5.8,2.5c-2.1,0.8-4.3,1.4-6,1.8c-1.7,0.4-2.8,0.5-2.8,0.5
				s1-0.7,2.5-1.4c1.5-0.8,3.6-1.7,5.8-2.5c2.1-0.8,4.3-1.4,6-1.8C139.6,224.9,140.8,224.8,140.8,224.8z"/>
			<path class="st1" d="M144.3,246.6c0,0-1.2,0.2-2.9,0.2c-1.7,0.1-4,0-6.3-0.2c-2.3-0.2-4.5-0.5-6.2-0.9c-1.7-0.3-2.8-0.7-2.8-0.7
				s1.2-0.2,2.9-0.2c1.7-0.1,4,0,6.3,0.2c2.3,0.2,4.5,0.5,6.2,0.9C143.2,246.2,144.3,246.6,144.3,246.6z"/>
			<path class="st1" d="M138.3,267.8c0,0-1.1-0.3-2.7-1c-1.6-0.7-3.6-1.7-5.6-2.8c-2-1.1-3.9-2.4-5.3-3.4c-1.4-1-2.2-1.8-2.2-1.8
				s1.1,0.3,2.7,1c1.6,0.7,3.6,1.7,5.6,2.8c2,1.1,3.9,2.4,5.3,3.4C137.5,267,138.3,267.8,138.3,267.8z"/>
			<path class="st1" d="M123.9,284.5c0,0-0.9-0.8-2-2.1c-1.2-1.3-2.6-3.1-3.9-4.9c-1.3-1.9-2.5-3.8-3.3-5.3
				c-0.8-1.5-1.3-2.6-1.3-2.6s0.9,0.8,2,2.1c1.2,1.3,2.6,3.1,3.9,4.9c1.3,1.9,2.5,3.8,3.3,5.3C123.5,283.4,123.9,284.5,123.9,284.5z
				"/>
		</g>
		<g>
			<path class="st2" d="M436.2,191.8c1.2,5-1.8,10-6.8,11.3l-114,28.4c-5,1.2-10-1.8-11.3-6.8l0,0c-1.2-5,1.8-10,6.8-11.3l114-28.4
				C429.9,183.7,434.9,186.8,436.2,191.8L436.2,191.8z"/>
			<path class="st3" d="M431.1,198.5l-4.2-2.5c0,0-0.1,0-0.1,0c0-0.1,0-0.1-0.1-0.2c-0.1,0-0.2,0-0.2,0.1l0,0l-1.4-0.9v0
				c0-0.1,0-0.2-0.1-0.2c-0.1,0-0.2,0-0.2,0.1l0,0l0,0c0.7-1.8,0.1-4-1.7-5c-1.9-1.2-4.4-0.5-5.6,1.4c-1.2,1.9-0.5,4.4,1.4,5.6
				c1.7,1,4,0.6,5.2-0.9l0,0l0,0c0,0.1,0,0.2,0.1,0.2c0.1,0,0.2,0,0.2-0.1v0l1.4,0.9l0,0c0,0.1,0,0.2,0.1,0.2c0.1,0,0.1,0,0.2,0
				c0,0,0.1,0.1,0.1,0.1l4.2,2.5c0.3,0.2,0.7,0.1,0.9-0.2C431.5,199.1,431.4,198.7,431.1,198.5z M419.3,196.2
				c-1.6-1-2.1-3.1-1.2-4.7c1-1.6,3.1-2.1,4.7-1.2c1.6,1,2.1,3.1,1.2,4.7C423,196.7,420.9,197.2,419.3,196.2z"/>
		</g>
		<g>
			<polygon class="st1" points="118.9,184.7 123.5,187 126.7,180.4 122.2,178.2 122.2,178.2 111.9,177.2 118.9,184.7 			"/>
			<g>
				<path class="st1" d="M192.8,221.1c-1.7-0.8-2.4-2.9-1.6-4.6l0,0c0.8-1.7,2.9-2.4,4.6-1.6l3.1,1.6c1.7,0.8,2.4,2.9,1.6,4.6l0,0
					c-0.8,1.7-2.9,2.4-4.6,1.6L192.8,221.1z"/>
				<path class="st3" d="M121.2,180.1c1.3-0.7,0.9-1.9,0.9-1.9l71.5,35.4l-0.9,1.9L121.2,180.1z"/>
				<path class="st3" d="M118.9,184.7c0,0,1.6-0.2,0.9-1.9l71.5,35.4l-0.9,1.9L118.9,184.7z"/>
				<path class="st2" d="M119.8,182.8c2.8-0.5,1.4-2.8,1.4-2.8l71.5,35.4l-1.4,2.8L119.8,182.8z"/>
				
					<rect x="190.4" y="216.3" transform="matrix(0.444 -0.8961 0.8961 0.444 -87.39 295.0287)" class="st3" width="7.2" height="3.3"/>
				<path class="st2" d="M190.7,220.9c-0.3-0.1-0.4-0.5-0.3-0.8l3.2-6.4c0.1-0.3,0.5-0.4,0.8-0.3l0,0c0.3,0.1,0.4,0.5,0.3,0.8
					l-3.2,6.4C191.3,220.9,191,221,190.7,220.9L190.7,220.9z"/>
				<path class="st2" d="M194.1,222.5c-0.3-0.1-0.4-0.5-0.3-0.8l3.2-6.4c0.1-0.3,0.5-0.4,0.8-0.3l0,0c0.3,0.1,0.4,0.5,0.3,0.8
					l-3.2,6.4C194.7,222.5,194.4,222.7,194.1,222.5L194.1,222.5z"/>
			</g>
			<polygon class="st8" points="113.8,179.2 111.9,177.2 114.6,177.4 			"/>
		</g>
		<g>
			
				<ellipse transform="matrix(0.9692 -0.2463 0.2463 0.9692 -95.6028 28.7148)" class="st1" cx="67" cy="396.6" rx="20.4" ry="20.4"/>
			<path class="st0" d="M81.2,399.9L81.2,399.9l-4.7-18.7l0-0.1l0,0v0l0,0l-17.6,7.1l0,0l3.8,14.8c-0.8,0-1.6,0.1-2.4,0.4
				c-2.6,0.9-4.1,3.4-3.4,5.4c0.7,2,3.4,2.9,6.1,2c2.6-0.9,4.1-3.4,3.4-5.4c0,0,0-0.1,0-0.1l0,0l-3.3-12.8l12.1-5l2.6,10.3
				c-0.8,0-1.6,0.1-2.4,0.4c-2.6,0.9-4.1,3.4-3.4,5.4c0.7,2,3.4,2.9,6.1,2C80.4,404.5,82,402,81.2,399.9
				C81.2,400,81.2,399.9,81.2,399.9z"/>
		</g>
		<g>
			
				<ellipse transform="matrix(0.1935 -0.9811 0.9811 0.1935 -372.3211 388.5905)" class="st2" cx="50.2" cy="420.8" rx="13.8" ry="13.8"/>
			<path class="st3" d="M56.5,422.6c0.8-0.6,0.9-2-0.3-2.2l-3.2-0.6c0.3-0.6,0.6-1.7,0.7-1.8c0.1-1-0.3-2.3-0.3-2.4
				c-0.1-0.2-0.6-0.6-1.2-0.6c-0.8,0-1,0.5-1,0.6c0,0-0.2,1.3-0.3,1.7c-0.5,0.7-2.2,2.6-2.6,2.6c-0.1-0.1-0.2-0.1-0.3-0.1l-4-0.8
				c-0.3-0.1-0.7,0.1-0.7,0.5l-1.1,5.5c0,0.3,0.2,0.6,0.5,0.6l3.6,0.7c0.3,0.1,0.6-0.1,0.7-0.5l0-0.2c0,0,0.1,0,0.2,0.1
				c0.2,0.2,0.4,0.4,0.8,0.5l5.3,1.1c2,0.4,2.1-1.4,2-1.7c0.4-0.3,0.7-0.9,0.6-1.5C56.2,423.9,56.7,423.3,56.5,422.6L56.5,422.6z
				 M46.3,425.7l-3.5-0.7l1.1-5.5l3.5,0.7L46.3,425.7z M55.6,422.4l-0.1,0.1c0.9,0.4,0.2,1.4-0.5,1.3L55,424
				c0.8,0.4,0.2,1.4-0.5,1.3l-0.1,0.1c0.7,0.3,0.3,1.5-0.8,1.2l-5.4-1.1c-0.4-0.1-0.6-0.6-0.9-0.6l-0.2,0l0.8-4.2
				c0.3-0.1,0.8-0.3,1-0.4c0.5-0.3,2.6-2.6,2.7-2.9c0.1-0.3,0.3-1.8,0.3-1.8s0.4-0.3,1,0.1c0,0,0.4,1.2,0.3,2.1c0,0-0.6,1.8-0.9,2.3
				l3.8,0.7C56.9,421.1,56.5,422.4,55.6,422.4L55.6,422.4z M55.6,422.4"/>
		</g>
		<g>
			
				<rect x="93.5" y="358.3" transform="matrix(0.2872 -0.9579 0.9579 0.2872 -279.2281 409.3952)" class="st2" width="84" height="68"/>
			<g>
				
					<rect x="123.3" y="358.8" transform="matrix(0.2873 -0.9579 0.9579 0.2873 -264.2336 382.4429)" class="st3" width="3.1" height="20"/>
				
					<rect x="137.6" y="353" transform="matrix(0.2872 -0.9579 0.9579 0.2872 -264.6346 404.0863)" class="st3" width="3.1" height="53.8"/>
				
					<rect x="135.8" y="359.2" transform="matrix(0.2872 -0.9579 0.9579 0.2872 -271.9318 406.7367)" class="st3" width="3.1" height="53.8"/>
				
					<rect x="133.9" y="365.4" transform="matrix(0.2872 -0.9579 0.9579 0.2872 -279.2281 409.3968)" class="st3" width="3.1" height="53.8"/>
				
					<rect x="132" y="371.6" transform="matrix(0.2872 -0.9579 0.9579 0.2872 -286.5266 412.0335)" class="st3" width="3.1" height="53.8"/>
				
					<rect x="130.2" y="377.9" transform="matrix(0.2872 -0.9579 0.9579 0.2872 -293.8218 414.688)" class="st3" width="3.1" height="53.8"/>
				
					<rect x="143.7" y="404.9" transform="matrix(0.2872 -0.9579 0.9579 0.2872 -294.5475 435.4527)" class="st3" width="3.1" height="21.6"/>
			</g>
		</g>
		<g>
			
				<rect x="141.4" y="138.3" transform="matrix(0.5564 -0.8309 0.8309 0.5564 -62.3229 203.9197)" class="st3" width="36.8" height="44"/>
			<polygon class="st1" points="159.8,160.3 151.8,132.8 188.3,157.3 			"/>
			<polygon class="st2" points="159.8,160.3 167.8,187.8 131.3,163.4 			"/>
		</g>
		<g>
			<polygon class="st3" points="135.3,297.1 132.5,293.5 147.1,282.3 147.6,287.6 			"/>
			<path class="st2" d="M141.9,294.1l-0.5-0.6l1.7-1.3c0.6-0.5,0.7-1.4,0.3-2l-2.2-2.8c-0.5-0.6-1.4-0.7-2-0.3l-1.7,1.3l-0.5-0.6
				c-0.5-0.6-1.4-0.7-2-0.3l-43.5,33.5c-0.6,0.5-0.7,1.4-0.3,2l4.8,6.3c0.5,0.6,1.4,0.7,2,0.3l43.5-33.5
				C142.3,295.6,142.4,294.7,141.9,294.1z"/>
			
				<rect x="68.3" y="317.5" transform="matrix(0.7923 -0.6101 0.6101 0.7923 -177.5924 126.2594)" class="st1" width="56.6" height="13"/>
			<path class="st3" d="M82.7,348.6l-0.7-0.9c-0.5-0.6-1.4-0.7-2-0.3l-37.6,29l-0.6-0.8l39-30.1c0.6-0.5,0.7-1.4,0.3-2l-7.4-9.6
				c-0.5-0.6-1.4-0.7-2-0.3l-44.3,34.1c-0.6,0.5-0.7,1.4-0.3,2l7.4,9.6c0.5,0.6,1.4,0.7,2,0.3l2.4-1.9l1.5,1.9l0.7,0.9
				c0.5,0.6,1.4,0.7,2,0.3l0.6-0.4l38.7-29.8C83,350.1,83.1,349.2,82.7,348.6z"/>
		</g>
		<g>
			<rect x="234.2" y="277.2" class="st3" width="23.8" height="101.4"/>
			<polygon class="st3" points="226.5,381.8 226.5,277.2 222.2,277.2 222.2,381.8 222.2,386.1 226.5,386.1 398.3,386.1 398.3,381.8 
							"/>
			<rect x="269.1" y="312.1" class="st1" width="23.8" height="66.6"/>
			<rect x="304" y="339.1" class="st3" width="23.8" height="39.6"/>
			<rect x="338.9" y="304.9" class="st1" width="23.8" height="73.8"/>
			<rect x="373.8" y="290.5" class="st3" width="23.8" height="88.2"/>
		</g>
		<g>
			<path class="st4" d="M509.8,397.4c3.7,3.7,3.7,9.7,0,13.4l0,0c-3.7,3.7-9.7,3.7-13.4,0L448.6,363c-3.7-3.7-3.7-9.7,0-13.4l0,0
				c3.7-3.7,9.7-3.7,13.4,0L509.8,397.4z"/>
			
				<rect x="431.9" y="324.3" transform="matrix(0.7071 -0.7071 0.7071 0.7071 -112.5074 411.5105)" class="st4" width="17.2" height="34.6"/>
			<path class="st4" d="M358.3,259.3c18.6-18.6,48.9-18.6,67.6,0c18.6,18.6,18.6,48.9,0,67.6c-18.6,18.6-48.9,18.6-67.6,0
				C339.7,308.3,339.7,278,358.3,259.3 M352,253.1c-22.1,22.1-22.1,57.9,0,80c22.1,22.1,57.9,22.1,80,0c22.1-22.1,22.1-57.9,0-80
				C410,231,374.1,231,352,253.1L352,253.1z"/>
			<path class="st2" d="M440.8,326.6c0.9,0.8,0.8,2.2,0,3.1l-12.1,12.1c-0.8,0.8-2.2,0.8-3.1,0l0,0c-0.9-0.8-0.9-2.2,0-3.1
				l12.1-12.1C438.5,325.8,439.9,325.8,440.8,326.6L440.8,326.6z"/>
			<path class="st2" d="M460.3,346.2c0.9,0.8,0.9,2.2,0,3.1l-12.1,12.1c-0.8,0.8-2.2,0.8-3.1,0l0,0c-0.9-0.8-0.8-2.2,0-3.1
				l12.1-12.1C458.1,345.3,459.5,345.3,460.3,346.2L460.3,346.2z"/>
		</g>
		<g>
			<path class="st2" d="M378.9,142.3c-2.1,0-4,0.4-5.8,1.2c-1.7-7.7-8.5-13.4-16.7-13.4c-9,0-16.4,7-17,15.9
				c-6.5,0.7-11.6,6.2-11.6,12.9c0,7.2,5.8,13,13,13c1.1,0,2.1-0.1,3.1-0.4h35c8.1,0,14.6-6.5,14.6-14.6
				C393.5,148.8,387,142.3,378.9,142.3z"/>
			<polygon class="st1" points="368.6,174.9 368.6,164.4 351.1,164.4 351.1,174.9 348.4,174.9 359.8,188.4 371.2,174.9 			"/>
		</g>
		<g>
			<path id="Drupal" class="st9" d="M278.6,142.3c-4.8-3-9.4-4.2-13.9-7.2c-2.8-1.9-6.7-6.4-10-10.3c-0.6,6.3-2.5,8.8-4.7,10.6
				c-4.6,3.6-7.6,4.7-11.6,6.9c-3.4,1.7-21.7,12.6-21.7,36c0,23.4,19.8,40.7,41.7,40.7c22,0,41-15.9,41-39.9
				C299.3,155,281.5,144.1,278.6,142.3z M279,209.8c-0.5,0.5-4.6,3.4-9.6,3.8c-4.9,0.4-11.6,0.7-15.6-2.9c-0.6-0.6-0.5-1.5,0-1.9
				c0.5-0.4,0.8-0.6,1.4-0.6c0.5,0,0.5,0,0.7,0.2c1.8,1.5,4.6,2.6,10.4,2.6c5.8,0,9.9-1.6,11.8-3c0.8-0.6,1.2-0.1,1.3,0.3
				C279.4,208.6,279.6,209.2,279,209.8z M263.2,202.2c1-0.9,2.6-2.4,4.2-3c1.5-0.6,2.4-0.5,3.8-0.5c1.5,0,3,0.1,4.1,0.8
				c1.1,0.7,1.7,2.4,2.1,3.3c0.4,0.9,0,1.5-0.7,1.8c-0.6,0.4-0.7,0.2-1.4-1c-0.6-1.2-1.2-2.4-4.4-2.4c-3.2,0-4.2,1.1-5.7,2.4
				c-1.5,1.3-2.1,1.7-2.6,1C262,203.8,262.2,203.1,263.2,202.2z M296,184.9c0,2.8-0.9,7.9-3.1,11.1c-2.2,3.2-3.5,4.4-6.1,4.2
				c-3.3-0.3-9.8-10.4-14-10.6c-5.3-0.2-16.8,11-25.8,11c-5.5,0-7.1-0.8-8.9-2c-2.7-1.9-4.1-4.8-4-8.8c0.1-7.1,6.7-13.7,15.1-13.8
				c10.6-0.1,18,10.5,23.4,10.4c4.6-0.1,13.3-9,17.6-9C294.8,177.3,296,182,296,184.9z"/>
		</g>
	</g>
</g>
</svg>
