<?xml version="1.0" encoding="utf-8"?>
<!-- Generator: Adobe Illustrator 20.0.0, SVG Export Plug-In . SVG Version: 6.00 Build 0)  -->
<svg version="1.1" id="Layer_1" xmlns="http://www.w3.org/2000/svg" xmlns:xlink="http://www.w3.org/1999/xlink" x="0px" y="0px"
	 viewBox="0 0 612 612" style="enable-background:new 0 0 612 612;" xml:space="preserve">
<style type="text/css">
	.st0{clip-path:url(#SVGID_2_);}
	.st1{fill-rule:evenodd;clip-rule:evenodd;fill:#D8E7E1;}
	.st2{fill-rule:evenodd;clip-rule:evenodd;fill:none;stroke:#B8D7D0;stroke-width:8.3999;stroke-miterlimit:22.9256;}
	.st3{fill-rule:evenodd;clip-rule:evenodd;fill:#3C4241;}
	.st4{fill-rule:evenodd;clip-rule:evenodd;fill:#FFFFFF;}
	.st5{fill-rule:evenodd;clip-rule:evenodd;fill:#6A7673;}
	.st6{fill-rule:evenodd;clip-rule:evenodd;fill:#F9A81A;}
	.st7{fill-rule:evenodd;clip-rule:evenodd;fill:#76CABB;}
	.st8{fill-rule:evenodd;clip-rule:evenodd;fill:#328071;}
	.st9{fill-rule:evenodd;clip-rule:evenodd;fill:#B03D25;}
	.st10{fill-rule:evenodd;clip-rule:evenodd;fill:#DA4727;}
	.st11{fill-rule:evenodd;clip-rule:evenodd;fill:#CB8A2A;}
	.st12{fill-rule:evenodd;clip-rule:evenodd;fill:#8C8E8F;}
	.st13{fill-rule:evenodd;clip-rule:evenodd;fill:#EEEEEE;}
	.st14{fill-rule:evenodd;clip-rule:evenodd;fill:#707071;}
	.st15{fill:#FFFFFF;}
</style>
<g>
	<defs>
		<circle id="SVGID_1_" cx="306" cy="306" r="306"/>
	</defs>
	<use xlink:href="#SVGID_1_"  style="overflow:visible;fill:#D8E7E1;"/>
	<clipPath id="SVGID_2_">
		<use xlink:href="#SVGID_1_"  style="overflow:visible;"/>
	</clipPath>
	<g class="st0">
		<rect x="14.4" y="14.4" class="st1" width="583.2" height="583.2"/>
		<g>
			<polyline class="st2" points="178.7,428.1 178.7,330.6 111.8,330.6 			"/>
			<polyline class="st2" points="204.2,477.2 204.2,261.4 111.8,261.4 			"/>
			<polyline class="st2" points="232.1,448.7 232.1,224.8 165.3,224.8 165.3,183.1 			"/>
			<polyline class="st2" points="260.1,382.5 260.1,194.1 218.1,194.1 218.1,116.8 			"/>
			<line class="st2" x1="197.5" y1="420.1" x2="111.8" y2="420.1"/>
			<line class="st2" x1="515.7" y1="420.1" x2="430" y2="420.1"/>
			<polyline class="st2" points="426.9,428.1 426.9,330.6 527.4,330.6 			"/>
			<polyline class="st2" points="404.7,419.9 404.7,261.4 537.9,261.4 			"/>
			<polyline class="st2" points="381.3,408.1 381.3,224.8 446.9,224.8 446.9,183.1 			"/>
			<polyline class="st2" points="316.6,448.7 316.6,224.8 366.5,224.8 366.5,135.7 			"/>
			<polyline class="st2" points="288.4,382.5 288.4,194.1 304.5,194.1 304.5,116.8 			"/>
		</g>
		<g>
			<path class="st3" d="M444.5,364h-53c-10.3,0-18.7,8.4-18.7,18.7v91.5c0,10.3,8.4,18.7,18.7,18.7h53c10.3,0,18.7-8.4,18.7-18.7
				v-91.5C463.2,372.4,454.8,364,444.5,364z"/>
			<path class="st4" d="M456.5,374.8h-76.9c-0.1,0-0.3,0.1-0.3,0.3v105.6c0,0.1,0.1,0.3,0.3,0.3h76.9c0.1,0,0.3-0.1,0.3-0.3V375.1
				C456.8,374.9,456.6,374.8,456.5,374.8z"/>
			<path class="st5" d="M427.9,367.2h-19.8c-0.5,0-1,0.4-1,1l0,0c0,0.5,0.4,1,1,1h19.8c0.5,0,1-0.4,1-1l0,0
				C428.9,367.6,428.5,367.2,427.9,367.2z"/>
			<circle class="st5" cx="418" cy="486.7" r="3.3"/>
			<rect x="426.3" y="384" class="st6" width="5.5" height="1.2"/>
			<rect x="433.7" y="384" class="st6" width="5.5" height="1.2"/>
			<rect x="441" y="384" class="st6" width="5.5" height="1.2"/>
			<rect x="448.3" y="384" class="st6" width="5.5" height="1.2"/>
			<rect x="383.4" y="384" class="st7" width="29.7" height="5.1"/>
			<circle class="st8" cx="453.2" cy="406.5" r="0.6"/>
			<circle class="st9" cx="449.8" cy="406.5" r="0.6"/>
			<circle class="st7" cx="446.4" cy="406.5" r="0.6"/>
			<circle class="st6" cx="443" cy="406.5" r="0.6"/>
			<circle class="st10" cx="439.7" cy="406.5" r="0.6"/>
			<rect x="383.4" y="408.1" class="st7" width="70.4" height="1.2"/>
			<rect x="383.4" y="411.3" class="st6" width="21.3" height="8.6"/>
			<rect x="408" y="411.3" class="st7" width="21.3" height="8.6"/>
			<rect x="432.5" y="411.3" class="st10" width="21.3" height="8.6"/>
			<rect x="383.4" y="390.9" class="st10" width="70.4" height="14"/>
			<g>
				<polygon class="st7" points="401.6,390.9 406.1,390.9 412.5,404.9 408,404.9 				"/>
				<polygon class="st9" points="403.8,390.9 408.3,390.9 414.7,404.9 410.2,404.9 				"/>
				<polygon class="st6" points="406.9,390.9 411.4,390.9 417.8,404.9 413.3,404.9 				"/>
				<polygon class="st11" points="411,390.9 415.5,390.9 421.9,404.9 417.4,404.9 				"/>
				<polygon class="st8" points="413.3,390.9 417.8,390.9 424.2,404.9 419.7,404.9 				"/>
				<polygon class="st10" points="416.3,390.9 420.8,390.9 427.2,404.9 422.7,404.9 				"/>
				<polygon class="st6" points="419.5,390.9 424,390.9 430.4,404.9 425.9,404.9 				"/>
				<polygon class="st9" points="423,390.9 427.5,390.9 433.9,404.9 429.4,404.9 				"/>
				<polygon class="st7" points="383.4,397 387.1,404.9 383.4,404.9 				"/>
				<polygon class="st9" points="383.4,392.1 389.3,404.9 384.8,404.9 383.4,402 				"/>
				<polygon class="st6" points="383.4,390.9 386,390.9 392.4,404.9 387.9,404.9 383.4,395.2 				"/>
				<polygon class="st11" points="385.6,390.9 390.1,390.9 396.5,404.9 392,404.9 				"/>
				<polygon class="st8" points="387.9,390.9 392.4,390.9 398.8,404.9 394.3,404.9 				"/>
				<polygon class="st10" points="390.9,390.9 395.4,390.9 401.8,404.9 397.3,404.9 				"/>
				<polygon class="st6" points="394,390.9 398.5,390.9 405,404.9 400.5,404.9 				"/>
				<polygon class="st9" points="397.6,390.9 402.1,390.9 408.5,404.9 404,404.9 				"/>
				<polygon class="st7" points="450.7,390.9 453.8,390.9 453.8,397.7 				"/>
				<polygon class="st9" points="452.9,390.9 453.8,390.9 453.8,392.8 				"/>
				<polygon class="st7" points="425.3,390.9 429.8,390.9 436.2,404.9 431.7,404.9 				"/>
				<polygon class="st9" points="427.5,390.9 432,390.9 438.4,404.9 433.9,404.9 				"/>
				<polygon class="st6" points="430.6,390.9 435.1,390.9 441.5,404.9 437,404.9 				"/>
				<polygon class="st11" points="434.7,390.9 439.2,390.9 445.7,404.9 441.1,404.9 				"/>
				<polygon class="st8" points="437,390.9 441.5,390.9 447.9,404.9 443.4,404.9 				"/>
				<polygon class="st10" points="440,390.9 444.5,390.9 451,404.9 446.4,404.9 				"/>
				<polygon class="st6" points="443.2,390.9 447.7,390.9 453.8,404.3 453.8,404.9 449.6,404.9 				"/>
				<polygon class="st9" points="446.7,390.9 451.2,390.9 453.8,396.5 453.8,404.9 453.1,404.9 				"/>
			</g>
			<g>
				<rect x="383.4" y="422.8" class="st12" width="21.3" height="1.3"/>
				<rect x="383.4" y="425.7" class="st12" width="21.3" height="1.3"/>
				<rect x="383.4" y="428.7" class="st12" width="21.3" height="1.3"/>
				<rect x="383.4" y="431.6" class="st12" width="21.3" height="1.3"/>
				<rect x="383.4" y="434.5" class="st12" width="15" height="1.3"/>
				<rect x="383.4" y="437.5" class="st12" width="21.3" height="1.3"/>
				<rect x="383.4" y="440.4" class="st12" width="21.3" height="1.3"/>
				<rect x="383.4" y="443.3" class="st12" width="21.3" height="1.3"/>
				<rect x="383.4" y="446.3" class="st12" width="21.3" height="1.3"/>
				<rect x="383.4" y="449.2" class="st12" width="13.7" height="1.3"/>
			</g>
			<g>
				<rect x="408" y="422.8" class="st12" width="21.3" height="1.3"/>
				<rect x="408" y="425.7" class="st12" width="21.3" height="1.3"/>
				<rect x="408" y="428.7" class="st12" width="10.7" height="1.3"/>
				<rect x="408" y="431.6" class="st12" width="21.3" height="1.3"/>
				<rect x="408" y="434.5" class="st12" width="21.3" height="1.3"/>
				<rect x="408" y="437.5" class="st12" width="21.3" height="1.3"/>
				<rect x="408" y="440.4" class="st12" width="21.3" height="1.3"/>
				<rect x="408" y="443.3" class="st12" width="21.3" height="1.3"/>
				<rect x="408" y="446.3" class="st12" width="21.3" height="1.3"/>
				<rect x="408" y="449.2" class="st12" width="13.7" height="1.3"/>
			</g>
			<g>
				<rect x="432.5" y="422.8" class="st12" width="21.3" height="1.3"/>
				<rect x="432.5" y="425.7" class="st12" width="21.3" height="1.3"/>
				<rect x="432.5" y="428.7" class="st12" width="21.3" height="1.3"/>
				<rect x="432.5" y="431.6" class="st12" width="21.3" height="1.3"/>
				<rect x="432.5" y="434.5" class="st12" width="21.3" height="1.3"/>
				<rect x="432.5" y="437.5" class="st12" width="21.3" height="1.3"/>
				<rect x="432.5" y="440.4" class="st12" width="12.9" height="1.3"/>
				<rect x="432.5" y="443.3" class="st12" width="21.3" height="1.3"/>
				<rect x="432.5" y="446.3" class="st12" width="21.3" height="1.3"/>
				<rect x="432.5" y="449.2" class="st12" width="8" height="1.3"/>
			</g>
			<rect x="383.4" y="454.5" class="st7" width="70.4" height="1.2"/>
			<rect x="383.4" y="458.3" class="st6" width="9.6" height="15.5"/>
			<g>
				<rect x="395" y="459.5" class="st12" width="10.8" height="1.3"/>
				<rect x="395" y="462.5" class="st12" width="10.8" height="1.3"/>
				<rect x="395" y="465.4" class="st12" width="10.8" height="1.3"/>
				<rect x="395" y="468.3" class="st12" width="10.8" height="1.3"/>
				<rect x="395" y="471.3" class="st12" width="7.6" height="1.3"/>
			</g>
			<rect x="407.4" y="458.3" class="st7" width="9.6" height="15.5"/>
			<g>
				<rect x="419" y="459.5" class="st12" width="10.8" height="1.3"/>
				<rect x="419" y="462.5" class="st12" width="10.8" height="1.3"/>
				<rect x="419" y="465.4" class="st12" width="10.8" height="1.3"/>
				<rect x="419" y="468.3" class="st12" width="10.8" height="1.3"/>
				<rect x="419" y="471.3" class="st12" width="7.6" height="1.3"/>
			</g>
			<rect x="431.4" y="458.3" class="st10" width="9.6" height="15.5"/>
			<g>
				<rect x="443" y="459.5" class="st12" width="10.8" height="1.3"/>
				<rect x="443" y="462.5" class="st12" width="10.8" height="1.3"/>
				<rect x="443" y="465.4" class="st12" width="10.8" height="1.3"/>
				<rect x="443" y="468.3" class="st12" width="10.8" height="1.3"/>
				<rect x="443" y="471.3" class="st12" width="7.6" height="1.3"/>
			</g>
		</g>
		<g>
			<path class="st3" d="M156.3,359.7h162.5c3.3,0,6,2.7,6,6v102.7c0,3.3-2.7,6-6,6H156.3c-3.3,0-6-2.7-6-6V365.7
				C150.2,362.4,152.9,359.7,156.3,359.7z"/>
			<rect x="159.3" y="371.7" class="st13" width="156.5" height="84"/>
			<circle class="st5" cx="237.5" cy="365.9" r="2.2"/>
			<rect x="233.8" y="460.9" class="st5" width="7.4" height="7.4"/>
			<polygon class="st5" points="150.2,474.4 324.8,474.4 355.1,494.3 119.9,494.3 			"/>
			<path class="st3" d="M119.9,494.3h235.2v6.8c0,2.4-2,4.4-4.4,4.4H124.3c-2.4,0-4.4-2-4.4-4.4V494.3z"/>
			<rect x="213.8" y="500.1" class="st14" width="47.5" height="3"/>
			<rect x="119.9" y="494.3" class="st5" width="235.2" height="3.4"/>
		</g>
		<g>
			<rect x="250.7" y="381.4" class="st6" width="9.4" height="2.1"/>
			<rect x="263.3" y="381.4" class="st6" width="9.4" height="2.1"/>
			<rect x="275.9" y="381.4" class="st6" width="9.4" height="2.1"/>
			<rect x="288.4" y="381.4" class="st6" width="9.4" height="2.1"/>
			<rect x="177.2" y="381.4" class="st7" width="50.9" height="9.4"/>
			<ellipse class="st8" cx="296.7" cy="423.1" rx="1.1" ry="1.2"/>
			<ellipse class="st9" cx="290.9" cy="423.1" rx="1.1" ry="1.2"/>
			<ellipse class="st7" cx="285.1" cy="423.1" rx="1.1" ry="1.2"/>
			<ellipse class="st6" cx="279.4" cy="423.1" rx="1.1" ry="1.2"/>
			<ellipse class="st10" cx="273.6" cy="423.1" rx="1.1" ry="1.2"/>
			<rect x="177.2" y="426" class="st7" width="120.6" height="2.1"/>
			<rect x="177.2" y="431.9" class="st6" width="36.6" height="15.8"/>
			<rect x="219.2" y="431.9" class="st7" width="36.6" height="15.8"/>
			<rect x="261.2" y="431.9" class="st10" width="36.6" height="15.8"/>
			<rect x="177.2" y="394.2" class="st10" width="120.6" height="25.9"/>
			<g>
				<polygon class="st7" points="208.3,394.2 216,394.2 227,420.1 219.3,420.1 				"/>
				<polygon class="st9" points="212.1,394.2 219.9,394.2 230.9,420.1 223.1,420.1 				"/>
				<polygon class="st6" points="217.4,394.2 225.1,394.2 236.1,420.1 228.4,420.1 				"/>
				<polygon class="st11" points="224.5,394.2 232.2,394.2 243.2,420.1 235.5,420.1 				"/>
				<polygon class="st8" points="228.4,394.2 236.1,394.2 247.1,420.1 239.3,420.1 				"/>
				<polygon class="st10" points="233.6,394.2 241.3,394.2 252.3,420.1 244.6,420.1 				"/>
				<polygon class="st6" points="239,394.2 246.7,394.2 257.7,420.1 250,420.1 				"/>
				<polygon class="st9" points="245.1,394.2 252.8,394.2 263.8,420.1 256,420.1 				"/>
				<polygon class="st7" points="177.2,405.5 183.4,420.1 177.2,420.1 				"/>
				<polygon class="st9" points="177.2,396.4 187.3,420.1 179.6,420.1 177.2,414.6 				"/>
				<polygon class="st6" points="177.2,394.2 181.6,394.2 192.6,420.1 184.8,420.1 177.2,402.2 				"/>
				<polygon class="st11" points="180.9,394.2 188.6,394.2 199.6,420.1 191.9,420.1 				"/>
				<polygon class="st8" points="184.8,394.2 192.5,394.2 203.5,420.1 195.8,420.1 				"/>
				<polygon class="st10" points="190,394.2 197.7,394.2 208.7,420.1 201,420.1 				"/>
				<polygon class="st6" points="195.4,394.2 203.1,394.2 214.1,420.1 206.4,420.1 				"/>
				<polygon class="st9" points="201.5,394.2 209.2,394.2 220.2,420.1 212.5,420.1 				"/>
				<polygon class="st7" points="292.5,394.2 297.8,394.2 297.8,406.8 				"/>
				<polygon class="st9" points="296.3,394.2 297.8,394.2 297.8,397.7 				"/>
				<polygon class="st7" points="248.9,394.2 256.6,394.2 267.6,420.1 259.9,420.1 				"/>
				<polygon class="st9" points="252.8,394.2 260.5,394.2 271.5,420.1 263.7,420.1 				"/>
				<polygon class="st6" points="258,394.2 265.8,394.2 276.8,420.1 269,420.1 				"/>
				<polygon class="st11" points="265.1,394.2 272.8,394.2 283.8,420.1 276.1,420.1 				"/>
				<polygon class="st8" points="269,394.2 276.7,394.2 287.7,420.1 280,420.1 				"/>
				<polygon class="st10" points="274.2,394.2 281.9,394.2 292.9,420.1 285.2,420.1 				"/>
				<polygon class="st6" points="279.6,394.2 287.3,394.2 297.8,418.9 297.8,420.1 290.6,420.1 				"/>
				<polygon class="st9" points="285.7,394.2 293.4,394.2 297.8,404.6 297.8,420.1 296.7,420.1 				"/>
			</g>
		</g>
		<g>
			<g>
				<path class="st3" d="M311.6,480.8h17.7c3.4,0,6.1,2.7,6.1,6.1v47.6c0,3.4-2.7,6.1-6.1,6.1h-17.7c-3.4,0-6.1-2.7-6.1-6.1v-47.6
					C305.5,483.5,308.3,480.8,311.6,480.8z"/>
				<rect x="307.7" y="487" class="st4" width="25.5" height="45.2"/>
				<path class="st5" d="M314.7,484.1h11.5c0.3,0,0.6-0.3,0.6-0.6l0,0c0-0.3-0.3-0.6-0.6-0.6h-11.5c-0.3,0-0.6,0.3-0.6,0.6l0,0
					C314.2,483.8,314.4,484.1,314.7,484.1z"/>
				<path class="st5" d="M310.8,537.3h19.3c0.5,0,0.9-0.4,0.9-0.9l0,0c0-0.5-0.4-0.9-0.9-0.9h-19.3c-0.5,0-0.9,0.4-0.9,0.9l0,0
					C309.9,536.9,310.3,537.3,310.8,537.3z"/>
				<circle class="st3" cx="320.4" cy="536.4" r="3.4"/>
				<circle class="st5" cx="320.4" cy="536.4" r="2.4"/>
			</g>
			<g>
				<rect x="322.8" y="490.9" class="st6" width="1.6" height="0.5"/>
				<rect x="325" y="490.9" class="st6" width="1.6" height="0.5"/>
				<rect x="327.2" y="490.9" class="st6" width="1.6" height="0.5"/>
				<rect x="329.4" y="490.9" class="st6" width="1.6" height="0.5"/>
				<rect x="309.9" y="490.9" class="st7" width="9" height="2.2"/>
				<ellipse class="st8" cx="330.9" cy="500.6" rx="0.2" ry="0.3"/>
				<ellipse class="st9" cx="329.8" cy="500.6" rx="0.2" ry="0.3"/>
				<ellipse class="st7" cx="328.8" cy="500.6" rx="0.2" ry="0.3"/>
				<ellipse class="st6" cx="327.8" cy="500.6" rx="0.2" ry="0.3"/>
				<ellipse class="st10" cx="326.8" cy="500.6" rx="0.2" ry="0.3"/>
				<rect x="309.9" y="501.2" class="st7" width="21.2" height="0.5"/>
				<rect x="309.9" y="502.6" class="st6" width="6.4" height="3.7"/>
				<rect x="317.2" y="502.6" class="st7" width="6.4" height="3.7"/>
				<rect x="324.6" y="502.6" class="st10" width="6.4" height="3.7"/>
				<rect x="309.9" y="493.9" class="st10" width="21.2" height="6"/>
				<g>
					<polygon class="st7" points="315.3,493.9 316.7,493.9 318.6,499.9 317.2,499.9 					"/>
					<polygon class="st9" points="316,493.9 317.3,493.9 319.3,499.9 317.9,499.9 					"/>
					<polygon class="st6" points="316.9,493.9 318.3,493.9 320.2,499.9 318.8,499.9 					"/>
					<polygon class="st11" points="318.2,493.9 319.5,493.9 321.4,499.9 320.1,499.9 					"/>
					<polygon class="st8" points="318.8,493.9 320.2,493.9 322.1,499.9 320.8,499.9 					"/>
					<polygon class="st10" points="319.8,493.9 321.1,493.9 323,499.9 321.7,499.9 					"/>
					<polygon class="st6" points="320.7,493.9 322.1,493.9 324,499.9 322.6,499.9 					"/>
					<polygon class="st9" points="321.8,493.9 323.1,493.9 325.1,499.9 323.7,499.9 					"/>
					<polygon class="st7" points="309.9,496.5 310.9,499.9 309.9,499.9 					"/>
					<polygon class="st9" points="309.9,494.4 311.6,499.9 310.3,499.9 309.9,498.6 					"/>
					<polygon class="st6" points="309.9,493.9 310.6,493.9 312.5,499.9 311.2,499.9 309.9,495.7 					"/>
					<polygon class="st11" points="310.5,493.9 311.9,493.9 313.8,499.9 312.4,499.9 					"/>
					<polygon class="st8" points="311.2,493.9 312.5,493.9 314.5,499.9 313.1,499.9 					"/>
					<polygon class="st10" points="312.1,493.9 313.5,493.9 315.4,499.9 314,499.9 					"/>
					<polygon class="st6" points="313,493.9 314.4,493.9 316.3,499.9 315,499.9 					"/>
					<polygon class="st9" points="314.1,493.9 315.5,493.9 317.4,499.9 316,499.9 					"/>
					<polygon class="st7" points="330.1,493.9 331,493.9 331,496.8 					"/>
					<polygon class="st9" points="330.8,493.9 331,493.9 331,494.7 					"/>
					<polygon class="st7" points="322.4,493.9 323.8,493.9 325.7,499.9 324.4,499.9 					"/>
					<polygon class="st9" points="323.1,493.9 324.5,493.9 326.4,499.9 325.1,499.9 					"/>
					<polygon class="st6" points="324.1,493.9 325.4,493.9 327.3,499.9 326,499.9 					"/>
					<polygon class="st11" points="325.3,493.9 326.7,493.9 328.6,499.9 327.2,499.9 					"/>
					<polygon class="st8" points="326,493.9 327.3,493.9 329.3,499.9 327.9,499.9 					"/>
					<polygon class="st10" points="326.9,493.9 328.3,493.9 330.2,499.9 328.8,499.9 					"/>
					<polygon class="st6" points="327.8,493.9 329.2,493.9 331,499.6 331,499.9 329.8,499.9 					"/>
					<polygon class="st9" points="328.9,493.9 330.3,493.9 331,496.3 331,499.9 330.8,499.9 					"/>
				</g>
				<g>
					<rect x="309.9" y="507.5" class="st12" width="6.4" height="0.6"/>
					<rect x="309.9" y="508.7" class="st12" width="6.4" height="0.6"/>
					<rect x="309.9" y="510" class="st12" width="6.4" height="0.6"/>
					<rect x="309.9" y="511.3" class="st12" width="6.4" height="0.6"/>
					<rect x="309.9" y="512.5" class="st12" width="4.5" height="0.6"/>
					<rect x="309.9" y="513.8" class="st12" width="6.4" height="0.6"/>
					<rect x="309.9" y="515" class="st12" width="6.4" height="0.6"/>
					<rect x="309.9" y="516.3" class="st12" width="6.4" height="0.6"/>
					<rect x="309.9" y="517.5" class="st12" width="6.4" height="0.6"/>
					<rect x="309.9" y="518.8" class="st12" width="4.1" height="0.6"/>
				</g>
				<g>
					<rect x="317.2" y="507.5" class="st12" width="6.4" height="0.6"/>
					<rect x="317.2" y="508.7" class="st12" width="6.4" height="0.6"/>
					<rect x="317.2" y="510" class="st12" width="3.2" height="0.6"/>
					<rect x="317.2" y="511.3" class="st12" width="6.4" height="0.6"/>
					<rect x="317.2" y="512.5" class="st12" width="6.4" height="0.6"/>
					<rect x="317.2" y="513.8" class="st12" width="6.4" height="0.6"/>
					<rect x="317.2" y="515" class="st12" width="6.4" height="0.6"/>
					<rect x="317.2" y="516.3" class="st12" width="6.4" height="0.6"/>
					<rect x="317.2" y="517.5" class="st12" width="6.4" height="0.6"/>
					<rect x="317.2" y="518.8" class="st12" width="4.1" height="0.6"/>
				</g>
				<g>
					<rect x="324.6" y="507.5" class="st12" width="6.4" height="0.6"/>
					<rect x="324.6" y="508.7" class="st12" width="6.4" height="0.6"/>
					<rect x="324.6" y="510" class="st12" width="6.4" height="0.6"/>
					<rect x="324.6" y="511.3" class="st12" width="6.4" height="0.6"/>
					<rect x="324.6" y="512.5" class="st12" width="6.4" height="0.6"/>
					<rect x="324.6" y="513.8" class="st12" width="6.4" height="0.6"/>
					<rect x="324.6" y="515" class="st12" width="3.9" height="0.6"/>
					<rect x="324.6" y="516.3" class="st12" width="6.4" height="0.6"/>
					<rect x="324.6" y="517.5" class="st12" width="6.4" height="0.6"/>
					<rect x="324.6" y="518.8" class="st12" width="2.4" height="0.6"/>
				</g>
				<rect x="309.9" y="521" class="st7" width="21.2" height="0.5"/>
				<rect x="309.9" y="522.7" class="st6" width="2.9" height="6.6"/>
				<g>
					<rect x="313.3" y="523.2" class="st12" width="3.2" height="0.6"/>
					<rect x="313.3" y="524.4" class="st12" width="3.2" height="0.6"/>
					<rect x="313.3" y="525.7" class="st12" width="3.2" height="0.6"/>
					<rect x="313.3" y="526.9" class="st12" width="3.2" height="0.6"/>
					<rect x="313.3" y="528.2" class="st12" width="2.3" height="0.6"/>
				</g>
				<rect x="317.1" y="522.7" class="st7" width="2.9" height="6.6"/>
				<g>
					<rect x="320.6" y="523.2" class="st12" width="3.2" height="0.6"/>
					<rect x="320.6" y="524.4" class="st12" width="3.2" height="0.6"/>
					<rect x="320.6" y="525.7" class="st12" width="3.2" height="0.6"/>
					<rect x="320.6" y="526.9" class="st12" width="3.2" height="0.6"/>
					<rect x="320.6" y="528.2" class="st12" width="2.3" height="0.6"/>
				</g>
				<rect x="324.3" y="522.7" class="st10" width="2.9" height="6.6"/>
				<g>
					<rect x="327.8" y="523.2" class="st12" width="3.2" height="0.6"/>
					<rect x="327.8" y="524.4" class="st12" width="3.2" height="0.6"/>
					<rect x="327.8" y="525.7" class="st12" width="3.2" height="0.6"/>
					<rect x="327.8" y="526.9" class="st12" width="3.2" height="0.6"/>
					<rect x="327.8" y="528.2" class="st12" width="2.3" height="0.6"/>
				</g>
			</g>
		</g>
		<g>
			<path class="st3" d="M359.4,450.1h34.7c6.6,0,12,5.4,12,12l0,66.5c0,6.6-5.4,12-12,12h-34.7c-6.6,0-12-5.4-12-12l0-66.5
				C347.5,455.5,352.9,450.1,359.4,450.1z"/>
			<rect x="350.9" y="459.5" class="st4" width="51.7" height="68.4"/>
			<path class="st5" d="M368.1,455.1h17.4c0.5,0,0.9-0.4,0.9-0.9v0c0-0.5-0.4-0.9-0.9-0.9h-17.4c-0.5,0-0.9,0.4-0.9,0.9v0
				C367.3,454.7,367.6,455.1,368.1,455.1z"/>
			<path class="st5" d="M362.2,535.7h29.3c0.7,0,1.3-0.6,1.3-1.3l0,0c0-0.7-0.6-1.3-1.3-1.3h-29.3c-0.7,0-1.3,0.6-1.3,1.3l0,0
				C360.8,535.1,361.4,535.7,362.2,535.7z"/>
			<circle class="st3" cx="376.8" cy="534.3" r="5.2"/>
			<circle class="st5" cx="376.8" cy="534.3" r="3.7"/>
			<g>
				<rect x="381.7" y="465.5" class="st6" width="3.5" height="0.7"/>
				<rect x="386.4" y="465.5" class="st6" width="3.5" height="0.7"/>
				<rect x="391.1" y="465.5" class="st6" width="3.5" height="0.7"/>
				<rect x="395.8" y="465.5" class="st6" width="3.5" height="0.7"/>
				<rect x="354.3" y="465.5" class="st7" width="19" height="3.3"/>
				<ellipse class="st8" cx="398.9" cy="480.1" rx="0.4" ry="0.4"/>
				<ellipse class="st9" cx="396.7" cy="480.1" rx="0.4" ry="0.4"/>
				<ellipse class="st7" cx="394.6" cy="480.1" rx="0.4" ry="0.4"/>
				<ellipse class="st6" cx="392.4" cy="480.1" rx="0.4" ry="0.4"/>
				<ellipse class="st10" cx="390.2" cy="480.1" rx="0.4" ry="0.4"/>
				<rect x="354.3" y="481.1" class="st7" width="45" height="0.8"/>
				<rect x="354.3" y="483.2" class="st6" width="13.6" height="5.5"/>
				<rect x="370" y="483.2" class="st7" width="13.6" height="5.5"/>
				<rect x="385.6" y="483.2" class="st10" width="13.6" height="5.5"/>
				<rect x="354.3" y="470" class="st10" width="45" height="9.1"/>
				<g>
					<polygon class="st7" points="365.9,470 368.8,470 372.9,479 370,479 					"/>
					<polygon class="st9" points="367.3,470 370.2,470 374.3,479 371.4,479 					"/>
					<polygon class="st6" points="369.3,470 372.2,470 376.3,479 373.4,479 					"/>
					<polygon class="st11" points="371.9,470 374.8,470 378.9,479 376,479 					"/>
					<polygon class="st8" points="373.4,470 376.3,470 380.4,479 377.5,479 					"/>
					<polygon class="st10" points="375.3,470 378.2,470 382.3,479 379.4,479 					"/>
					<polygon class="st6" points="377.3,470 380.2,470 384.3,479 381.4,479 					"/>
					<polygon class="st9" points="379.6,470 382.5,470 386.6,479 383.7,479 					"/>
					<polygon class="st7" points="354.3,473.9 356.6,479 354.3,479 					"/>
					<polygon class="st9" points="354.3,470.8 358.1,479 355.2,479 354.3,477.1 					"/>
					<polygon class="st6" points="354.3,470 355.9,470 360,479 357.1,479 354.3,472.8 					"/>
					<polygon class="st11" points="355.7,470 358.6,470 362.7,479 359.8,479 					"/>
					<polygon class="st8" points="357.1,470 360,470 364.1,479 361.2,479 					"/>
					<polygon class="st10" points="359.1,470 362,470 366.1,479 363.2,479 					"/>
					<polygon class="st6" points="361.1,470 364,470 368.1,479 365.2,479 					"/>
					<polygon class="st9" points="363.4,470 366.2,470 370.3,479 367.5,479 					"/>
					<polygon class="st7" points="397.3,470 399.3,470 399.3,474.4 					"/>
					<polygon class="st9" points="398.7,470 399.3,470 399.3,471.2 					"/>
					<polygon class="st7" points="381,470 383.9,470 388,479 385.1,479 					"/>
					<polygon class="st9" points="382.5,470 385.4,470 389.5,479 386.6,479 					"/>
					<polygon class="st6" points="384.4,470 387.3,470 391.4,479 388.5,479 					"/>
					<polygon class="st11" points="387.1,470 390,470 394.1,479 391.2,479 					"/>
					<polygon class="st8" points="388.5,470 391.4,470 395.5,479 392.6,479 					"/>
					<polygon class="st10" points="390.5,470 393.4,470 397.5,479 394.6,479 					"/>
					<polygon class="st6" points="392.5,470 395.4,470 399.3,478.6 399.3,479 396.6,479 					"/>
					<polygon class="st9" points="394.8,470 397.6,470 399.3,473.6 399.3,479 398.9,479 					"/>
				</g>
				<g>
					<rect x="354.3" y="490.6" class="st12" width="13.6" height="0.9"/>
					<rect x="354.3" y="492.5" class="st12" width="13.6" height="0.9"/>
					<rect x="354.3" y="494.4" class="st12" width="13.6" height="0.9"/>
					<rect x="354.3" y="496.3" class="st12" width="13.6" height="0.9"/>
					<rect x="354.3" y="498.2" class="st12" width="9.6" height="0.9"/>
					<rect x="354.3" y="500" class="st12" width="13.6" height="0.9"/>
					<rect x="354.3" y="501.9" class="st12" width="13.6" height="0.9"/>
					<rect x="354.3" y="503.8" class="st12" width="13.6" height="0.9"/>
					<rect x="354.3" y="505.7" class="st12" width="13.6" height="0.9"/>
					<rect x="354.3" y="507.6" class="st12" width="8.8" height="0.9"/>
				</g>
				<g>
					<rect x="370" y="490.6" class="st12" width="13.6" height="0.9"/>
					<rect x="370" y="492.5" class="st12" width="13.6" height="0.9"/>
					<rect x="370" y="494.4" class="st12" width="6.8" height="0.9"/>
					<rect x="370" y="496.3" class="st12" width="13.6" height="0.9"/>
					<rect x="370" y="498.2" class="st12" width="13.6" height="0.9"/>
					<rect x="370" y="500" class="st12" width="13.6" height="0.9"/>
					<rect x="370" y="501.9" class="st12" width="13.6" height="0.9"/>
					<rect x="370" y="503.8" class="st12" width="13.6" height="0.9"/>
					<rect x="370" y="505.7" class="st12" width="13.6" height="0.9"/>
					<rect x="370" y="507.6" class="st12" width="8.8" height="0.9"/>
				</g>
				<g>
					<rect x="385.6" y="490.6" class="st12" width="13.6" height="0.9"/>
					<rect x="385.6" y="492.5" class="st12" width="13.6" height="0.9"/>
					<rect x="385.6" y="494.4" class="st12" width="13.6" height="0.9"/>
					<rect x="385.6" y="496.3" class="st12" width="13.6" height="0.9"/>
					<rect x="385.6" y="498.2" class="st12" width="13.6" height="0.9"/>
					<rect x="385.6" y="500" class="st12" width="13.6" height="0.9"/>
					<rect x="385.6" y="501.9" class="st12" width="8.2" height="0.9"/>
					<rect x="385.6" y="503.8" class="st12" width="13.6" height="0.9"/>
					<rect x="385.6" y="505.7" class="st12" width="13.6" height="0.9"/>
					<rect x="385.6" y="507.6" class="st12" width="5.1" height="0.9"/>
				</g>
				<rect x="354.3" y="511" class="st7" width="45" height="0.7"/>
				<rect x="354.3" y="513.5" class="st6" width="6.1" height="10"/>
				<g>
					<rect x="361.7" y="514.3" class="st12" width="6.9" height="0.9"/>
					<rect x="361.7" y="516.2" class="st12" width="6.9" height="0.9"/>
					<rect x="361.7" y="518.1" class="st12" width="6.9" height="0.9"/>
					<rect x="361.7" y="520" class="st12" width="6.9" height="0.9"/>
					<rect x="361.7" y="521.9" class="st12" width="4.9" height="0.9"/>
				</g>
				<rect x="369.6" y="513.5" class="st7" width="6.1" height="10"/>
				<g>
					<rect x="377.1" y="514.3" class="st12" width="6.9" height="0.9"/>
					<rect x="377.1" y="516.2" class="st12" width="6.9" height="0.9"/>
					<rect x="377.1" y="518.1" class="st12" width="6.9" height="0.9"/>
					<rect x="377.1" y="520" class="st12" width="6.9" height="0.9"/>
					<rect x="377.1" y="521.9" class="st12" width="4.9" height="0.9"/>
				</g>
				<rect x="385" y="513.5" class="st10" width="6.1" height="10"/>
				<g>
					<rect x="392.4" y="514.3" class="st12" width="6.9" height="0.9"/>
					<rect x="392.4" y="516.2" class="st12" width="6.9" height="0.9"/>
					<rect x="392.4" y="518.1" class="st12" width="6.9" height="0.9"/>
					<rect x="392.4" y="520" class="st12" width="6.9" height="0.9"/>
					<rect x="392.4" y="521.9" class="st12" width="4.9" height="0.9"/>
				</g>
			</g>
		</g>
		<circle class="st8" cx="517.4" cy="415.2" r="40.1"/>
		<circle class="st6" cx="534.7" cy="327.6" r="40.1"/>
		<circle class="st10" cx="517.2" cy="240.1" r="40.1"/>
		<circle class="st7" cx="467.4" cy="166" r="40.1"/>
		<circle class="st9" cx="393.1" cy="116.5" r="40.1"/>
		<circle class="st8" cx="305.6" cy="99.3" r="40.1"/>
		<circle class="st6" cx="218.1" cy="116.8" r="40.1"/>
		<circle class="st10" cx="144" cy="166.6" r="40.1"/>
		<circle class="st7" cx="94.5" cy="240.9" r="40.1"/>
		<circle class="st6" cx="77.3" cy="328.5" r="40.1"/>
		<circle class="st9" cx="94.9" cy="416" r="40.1"/>
		<g>
			<polygon class="st15" points="73.2,261.1 79.6,254.3 105.6,254.3 105.6,247.1 82,247.1 80.7,247.1 80.7,245.7 80.7,230.1 
				69.4,230.1 69.4,254.3 73.2,254.3 			"/>
			<polygon class="st15" points="119.6,220.6 82,220.6 82,230.1 82,245.7 105.6,245.7 109.1,245.7 115.7,252.9 115.7,245.7 
				119.6,245.7 			"/>
		</g>
		<g>
			<polygon class="st15" points="511.8,340.9 525.2,324.8 511.8,314 			"/>
			<polygon class="st15" points="557.5,340.9 557.5,314 544.1,324.8 			"/>
			<polygon class="st15" points="557.4,342 557.5,342 557.5,341.9 			"/>
			<polygon class="st15" points="511.8,342 511.9,342 511.8,341.9 			"/>
			<polygon class="st15" points="556.7,342 556.7,341.9 543.1,325.6 534.7,332.4 526.2,325.6 512.7,341.9 512.6,342 			"/>
			<polygon class="st15" points="526.1,323.8 526.6,324.2 527.1,324.6 534.7,330.7 542.2,324.6 542.7,324.2 543.3,323.8 
				556.5,313.2 512.9,313.2 			"/>
		</g>
		<g>
			<rect x="402.1" y="97.2" class="st15" width="8.6" height="3.6"/>
			<path class="st15" d="M393.1,135.7h23.4v-33.5h-23.4v3.7l0,0c7.2,0,13.1,5.9,13.1,13.1c0,7.2-5.9,13.1-13.1,13.1V135.7z
				 M369.7,135.7h23.4v-3.7c-7.2,0-13.1-5.9-13.1-13.1c0-7.2,5.9-13.1,13.1-13.1v-3.7h-23.4V135.7L369.7,135.7z M393.1,105.9"/>
			<path class="st15" d="M393.1,127.8c4.9,0,8.8-4,8.8-8.8c0-4.9-4-8.8-8.8-8.8c-4.9,0-8.8,4-8.8,8.8
				C384.3,123.8,388.3,127.8,393.1,127.8z"/>
		</g>
		<g>
			<polygon class="st15" points="86.5,431.1 86.2,437 103.6,437 103.3,431.1 			"/>
			<path class="st15" d="M103.2,429.6h16.1v-30.4H94.9v3.8h20v22.9H103h-8.1v3.8H103.2z M94.9,399.2H70.4v30.4h16.1h8.3v-3.8h-8.1
				H74.9l0,0v-22.9h20V399.2z"/>
			<polygon class="st15" points="82.8,438.5 82.8,440.9 107,440.9 107,438.5 103.7,438.5 86.1,438.5 			"/>
		</g>
		<g>
			<path class="st15" d="M305.8,98.5c0.8-3.6,3.9-6,7.6-6c0.6,0,1.2,0.1,1.7,0.2c2.1,0.5,3.9,1.8,4.9,3.6c1-0.6,2.1-1.1,3.3-1.2
				c0.6-4.2-0.2-6.9-0.2-6.9c-1.4-6.3-7.6-10.3-13.9-8.9c-4.2,0.9-7.4,4-8.6,7.9c-2.7-3-6.9-4.5-11.1-3.5
				c-6.3,1.4-10.3,7.6-8.9,13.9c0,0,2.6,15.5,27.1,21.9c1.7-1.4,3.3-2.8,4.6-4.2C303.9,106.8,305.6,99.2,305.8,98.5z"/>
			<path class="st15" d="M325.7,96.4c-0.5-0.1-1-0.2-1.4-0.2c-0.4,0-0.8,0-1.2,0.1c-1.4,0.3-2.6,1-3.5,2c-0.7-2.1-2.4-3.9-4.8-4.4
				c-0.5-0.1-1-0.2-1.4-0.2c-3,0-5.6,2-6.3,5c0,0-2,7.2,6.3,15.5c0.7,0.7,1.4,1.3,2.2,2c13.7-3.5,15.1-12.1,15.1-12.1
				C331.4,100.7,329.2,97.2,325.7,96.4z"/>
		</g>
		<g>
			<polygon class="st15" points="151.4,176.8 136.5,176.8 136.5,170.3 119.6,170.3 119.6,183 168.4,183 168.4,170.3 151.4,170.3 			
				"/>
			<rect x="139.3" y="170.3" class="st15" width="9.3" height="3.8"/>
			<path class="st15" d="M155.9,142H144v4.2h7.8v5.1H144v16.2h7.4h17v-16.2h-12.5V142z M144,142H132v9.2h-12.5v16.2h17h7.4v-16.2
				h-7.8l0,0v-5.1h7.8V142z"/>
		</g>
		<g>
			<path class="st15" d="M525.5,262.6h5.7v-44.1h-3v-0.9h-2.7v3.7h2.7v25.4l0,0h-2.7v3.2h2.7v3.6l0,0h-2.7v2.6h2.7v3.6l0,0h-2.7
				V262.6z M522.8,217.6v0.9h-5.6v2.8h8.3v-3.7H522.8L522.8,217.6z M517.2,262.6h8.3v-2.9h-2.7V256h2.7v-2.6h-2.7v-3.6h2.7v-3.2
				h-8.3v3.2h2.7v3.6l0,0h-2.7v2.6h2.7v3.6l0,0h-2.7V262.6z M517.2,218.5h-8.3v2.8h8.3V218.5L517.2,218.5z M508.8,262.6h8.3v-2.9
				h-2.7V256h2.7v-2.6h-2.7v-3.6h2.7v-3.2h-8.3v3.2h2.7v3.6l0,0h-2.7v2.6h2.7v3.6l0,0h-2.7V262.6z M508.8,218.5h-5.7v44.1h5.7v-2.9
				h-2.7V256h2.7v-2.6h-2.7v-3.6h2.7v-3.2h-2.7v-25.4h2.7V218.5z"/>
		</g>
		<g>
			<path class="st15" d="M524.7,430.9h14.5v-31.5h-14.5v13.2l10.5,14.6h-10.5V430.9z M515.4,430.9h9.2v-3.7h-6.4l-0.5-0.7l-2.3-3.2
				v2.1l1.3,1.8h-1.3V430.9L515.4,430.9z M524.7,399.4h-9.2v20.3l7.2-10l0,0l2,2.8V399.4z M508,430.9h7.4v-3.7h-5.4h-2V430.9
				L508,430.9z M515.4,399.4H508v5.4c0.5,0.6,0.8,1.3,0.8,2.1c0,0.8-0.3,1.6-0.8,2.1v6.1l0,0l5.3,7.4l2,2.8v-2.1l-1.3-1.8l1.3-1.8
				V399.4z M495.7,430.9H508v-3.7h-8.7l0,0l8.7-12v-6.1c-0.6,0.8-1.6,1.3-2.7,1.3c-1.9,0-3.4-1.5-3.4-3.4c0-1.9,1.5-3.4,3.4-3.4l0,0
				c1.1,0,2,0.5,2.7,1.3v-5.4h-12.3V430.9z"/>
		</g>
		<g>
			<path class="st15" d="M218,94c-14,0.1-25.3,11.5-25.3,25.4c0,4.2,1.1,8.4,3.1,12.1v-6.7c0-1.2,0.4-2.4,1.2-3.4
				c-0.1-0.7-0.1-1.3-0.1-2c0-11.7,9.5-21.2,21.1-21.3c11.7,0.1,21.2,9.6,21.2,21.3c0,0.7,0,1.5-0.1,2.2c0.7,0.9,1.1,2,1.1,3.2v7.1
				c2.1-3.8,3.3-8.1,3.3-12.5C243.4,105.5,232,94,218,94z"/>
			<path class="st15" d="M197.4,123.7c-0.1,0.4-0.2,0.7-0.2,1.1v6.5v3c0,2.9,3.5,5.3,7.8,5.3h3.3v-20.1H205
				C201.2,119.5,198.1,121.3,197.4,123.7z"/>
			<path class="st15" d="M238.7,134.3v-3.1v-6.4c0-0.2,0-0.5-0.1-0.7c-0.5-2.6-3.8-4.6-7.7-4.6h-3.3v20.1h3.3
				C235.2,139.6,238.7,137.2,238.7,134.3z"/>
		</g>
		<g>
			<path class="st15" d="M63.8,347.8c3.9,0,7-3.2,7-7c0,0,0,0,0,0v-22.9h22.6v16.3c-0.8-0.3-1.7-0.5-2.6-0.5c-3.9,0-7,3.2-7,7
				c0,3.9,3.2,7,7,7c3.9,0,7-3.2,7-7c0,0,0,0,0,0h0v-22.9v-8.9h-4.4H70.8h-4.4v8.9v16.3c-0.8-0.3-1.7-0.5-2.6-0.5c-3.9,0-7,3.2-7,7
				C56.8,344.7,59.9,347.8,63.8,347.8z"/>
		</g>
		<path class="st4" d="M462.2,179.1c10.2,0,18.5-8.3,18.5-18.5c0-10.2-8.3-18.5-18.5-18.5c-10.2,0-18.5,8.3-18.5,18.5
			C443.6,170.7,451.9,179.1,462.2,179.1z"/>
		<path class="st7" d="M462.2,173.2c7,0,12.6-5.7,12.6-12.6c0-7-5.7-12.6-12.6-12.6c-7,0-12.6,5.7-12.6,12.6
			C449.5,167.5,455.2,173.2,462.2,173.2z"/>
		<path class="st15" d="M473.6,178.1l11.6,11.6l6-6l-11.6-11.6C478,174.5,475.9,176.5,473.6,178.1z"/>
	</g>
</g>
</svg>
