<?xml version="1.0" encoding="utf-8"?>
<!-- Generator: Adobe Illustrator 20.0.0, SVG Export Plug-In . SVG Version: 6.00 Build 0)  -->
<svg version="1.1" id="Layer_1" xmlns="http://www.w3.org/2000/svg" xmlns:xlink="http://www.w3.org/1999/xlink" x="0px" y="0px"
	 viewBox="0 0 612 612" style="enable-background:new 0 0 612 612;" xml:space="preserve">
<style type="text/css">
	.st0{fill:#328ECD;}
	.st1{opacity:0.5;}
	.st2{fill:none;stroke:#D7D7D7;stroke-miterlimit:10;}
	.st3{fill:#D7D7D7;}
	.st4{fill:#E9E9E9;}
	.st5{fill:#F05A26;}
	.st6{fill:#E5E5E4;}
	.st7{fill:#FCFDFA;}
	.st8{fill:#EE3E25;}
	.st9{fill:none;stroke:#08162C;stroke-width:2;stroke-miterlimit:10;}
	.st10{fill:#08162C;}
	.st11{fill:#FFFFFF;}
	.st12{fill:#0E303F;}
	.st13{fill:#DEF2FC;}
	.st14{opacity:0.3;fill:#FFFFFF;enable-background:new    ;}
	.st15{fill:#F69220;}
	.st16{fill:none;stroke:#FFFFFF;stroke-miterlimit:10;}
	.st17{fill:#CCCCCC;}
	.st18{opacity:0.5;fill:#EE3E25;enable-background:new    ;}
	.st19{opacity:0.2;fill:#EE3E25;enable-background:new    ;}
</style>
<g>
	<g>
		<g>
			<g>
				<circle id="SVGID_1_" class="st0" cx="306" cy="306" r="306"/>
			</g>
		</g>
	</g>
	<g>
		<g class="st1">
			<circle class="st2" cx="227.3" cy="306" r="173.5"/>
			<circle class="st2" cx="377.3" cy="306" r="173.5"/>
			<circle class="st2" cx="307.1" cy="306" r="173.5"/>
		</g>
		<g>
			<rect x="190.8" y="442.4" class="st3" width="224" height="70"/>
			<g>
				<g>
					<rect x="196.5" y="449.1" class="st4" width="11.3" height="11.3"/>
					<rect x="212.5" y="449.1" class="st4" width="11.3" height="11.3"/>
					<rect x="227.8" y="449.1" class="st4" width="11.3" height="11.3"/>
					<rect x="243.1" y="449.1" class="st4" width="11.3" height="11.3"/>
					<rect x="258.5" y="449.1" class="st4" width="11.3" height="11.3"/>
					<rect x="273.8" y="449.1" class="st4" width="11.3" height="11.3"/>
					<rect x="289.1" y="449.1" class="st4" width="11.3" height="11.3"/>
					<rect x="304.5" y="449.1" class="st4" width="11.3" height="11.3"/>
					<rect x="319.8" y="449.1" class="st4" width="11.3" height="11.3"/>
					<rect x="335.1" y="449.1" class="st4" width="11.3" height="11.3"/>
					<rect x="350.5" y="449.1" class="st4" width="11.3" height="11.3"/>
					<rect x="365.8" y="449.1" class="st4" width="11.3" height="11.3"/>
					<rect x="381.1" y="449.1" class="st4" width="11.3" height="11.3"/>
					<rect x="396.5" y="449.1" class="st4" width="11.3" height="11.3"/>
				</g>
				<g>
					<rect x="196.5" y="464.4" class="st4" width="11.3" height="11.3"/>
					<rect x="212.5" y="464.4" class="st4" width="11.3" height="11.3"/>
					<rect x="227.8" y="464.4" class="st4" width="11.3" height="11.3"/>
					<rect x="243.1" y="464.4" class="st4" width="11.3" height="11.3"/>
					<rect x="258.5" y="464.4" class="st4" width="11.3" height="11.3"/>
					<rect x="273.8" y="464.4" class="st4" width="11.3" height="11.3"/>
					<rect x="289.1" y="464.4" class="st4" width="11.3" height="11.3"/>
					<rect x="304.5" y="464.4" class="st4" width="11.3" height="11.3"/>
					<rect x="319.8" y="464.4" class="st4" width="11.3" height="11.3"/>
					<rect x="335.1" y="464.4" class="st4" width="11.3" height="11.3"/>
					<rect x="350.5" y="464.4" class="st4" width="11.3" height="11.3"/>
					<rect x="365.8" y="464.4" class="st4" width="11.3" height="11.3"/>
					<rect x="381.1" y="464.4" class="st4" width="11.3" height="11.3"/>
					<rect x="396.5" y="464.4" class="st4" width="11.3" height="11.3"/>
				</g>
				<g>
					<rect x="196.5" y="479.1" class="st4" width="11.3" height="11.3"/>
					<rect x="212.5" y="479.1" class="st4" width="11.3" height="11.3"/>
					<rect x="227.8" y="479.1" class="st4" width="11.3" height="11.3"/>
					<rect x="243.1" y="479.1" class="st4" width="11.3" height="11.3"/>
					<rect x="258.5" y="479.1" class="st4" width="11.3" height="11.3"/>
					<rect x="273.8" y="479.1" class="st4" width="11.3" height="11.3"/>
					<rect x="289.1" y="479.1" class="st4" width="11.3" height="11.3"/>
					<rect x="304.5" y="479.1" class="st4" width="11.3" height="11.3"/>
					<rect x="319.8" y="479.1" class="st4" width="11.3" height="11.3"/>
					<rect x="335.1" y="479.1" class="st4" width="11.3" height="11.3"/>
					<rect x="350.5" y="479.1" class="st4" width="11.3" height="11.3"/>
					<rect x="365.8" y="479.1" class="st4" width="11.3" height="11.3"/>
					<rect x="381.1" y="479.1" class="st4" width="11.3" height="11.3"/>
					<rect x="396.5" y="479.1" class="st4" width="11.3" height="11.3"/>
				</g>
				<rect x="196.5" y="494.1" class="st4" width="11.3" height="11.3"/>
				<rect x="212.5" y="494.1" class="st4" width="11.3" height="11.3"/>
				<rect x="227.8" y="494.1" class="st5" width="88" height="11.3"/>
				<rect x="319.8" y="494.1" class="st4" width="11.3" height="11.3"/>
				<rect x="335.1" y="494.1" class="st4" width="11.3" height="11.3"/>
				<rect x="350.5" y="494.1" class="st4" width="11.3" height="11.3"/>
				<rect x="365.8" y="494.1" class="st4" width="26.7" height="11.3"/>
			</g>
		</g>
		<g>
			<rect x="58.4" y="254.6" class="st6" width="84.9" height="121.1"/>
			<rect x="65" y="301.6" class="st7" width="71" height="67.8"/>
			<rect x="104.6" y="267.6" class="st3" width="18.7" height="3.6"/>
			<rect x="126.6" y="267.6" class="st3" width="9.4" height="3.6"/>
			<rect x="109.2" y="274.2" class="st3" width="9.4" height="3.6"/>
			<rect x="99.9" y="274.2" class="st3" width="6.1" height="3.6"/>
			<rect x="120.5" y="274.2" class="st3" width="15.5" height="3.6"/>
			<rect x="82.6" y="313.7" class="st3" width="18.7" height="3.6"/>
			<rect x="69.9" y="313.7" class="st3" width="9.4" height="3.6"/>
			<rect x="113.2" y="313.7" class="st3" width="9.4" height="3.6"/>
			<rect x="87.3" y="307" class="st3" width="9.4" height="3.6"/>
			<rect x="99.9" y="307" class="st3" width="6.1" height="3.6"/>
			<rect x="103.9" y="313.7" class="st3" width="6.1" height="3.6"/>
			<rect x="69.9" y="307" class="st3" width="15.5" height="3.6"/>
			<rect x="79.3" y="326.9" class="st3" width="9.4" height="3.6"/>
			<rect x="87.3" y="320.3" class="st3" width="9.4" height="3.6"/>
			<rect x="69.9" y="326.9" class="st3" width="6.1" height="3.6"/>
			<rect x="90.8" y="326.9" class="st3" width="10.1" height="3.6"/>
			<rect x="117.6" y="359.8" class="st8" width="10.1" height="3.6"/>
			<rect x="109.2" y="359.8" class="st8" width="5" height="3.6"/>
			<rect x="110.7" y="320.3" class="st3" width="10.1" height="3.6"/>
			<rect x="99" y="320.3" class="st3" width="9.2" height="3.6"/>
			<rect x="69.9" y="320.3" class="st3" width="15.5" height="3.6"/>
			<rect x="79.3" y="340.6" class="st3" width="9.4" height="3.6"/>
			<rect x="87.3" y="333.9" class="st3" width="9.4" height="3.6"/>
			<rect x="69.9" y="340.6" class="st3" width="6.1" height="3.6"/>
			<rect x="90.8" y="340.6" class="st3" width="10.1" height="3.6"/>
			<rect x="110.7" y="333.9" class="st3" width="10.1" height="3.6"/>
			<rect x="99" y="333.9" class="st3" width="9.2" height="3.6"/>
			<rect x="69.9" y="333.9" class="st3" width="15.5" height="3.6"/>
			<rect x="109.2" y="307" class="st3" width="15.5" height="3.6"/>
			<path class="st9" d="M115.7,247.9c0,3.4,2.8,6.2,6.2,6.2l0,0c1.8,0,3.3,1.5,3.3,3.3c0,1.8-1.5,3.3-3.3,3.3H83.3
				c-1.8,0-3.3-1.5-3.3-3.3c0-1.8,1.5-3.3,3.3-3.3l0,0c3.4,0,6.2-2.8,6.2-6.2"/>
			<rect x="85.7" y="240.5" class="st7" width="34.4" height="7.8"/>
		</g>
		<g>
			<path class="st10" d="M80.8,356.4c-7.9-7.9-20.7-7.9-28.6,0s-7.9,20.7,0,28.6c7,7,17.9,7.8,25.8,2.3l5.2,5.2
				c-0.2,1.6,0.4,3.3,1.6,4.6l19.3,19.3c1.3,1.3,3,1.8,4.6,1.6c1.4,0.9,3.3,0.8,4.5-0.5c1.2-1.2,1.4-3.1,0.5-4.5
				c0.2-1.7-0.4-3.4-1.6-4.6l-19.3-19.3c-1.2-1.2-2.9-1.8-4.6-1.6l-5.2-5.2C88.6,374.3,87.8,363.4,80.8,356.4z M57.4,361.5
				c5.1-5.1,13.3-5.1,18.4,0s5.1,13.3,0,18.4s-13.3,5.1-18.4,0S52.3,366.5,57.4,361.5z"/>
			<path class="st7" d="M78,382.1c6.3-6.3,6.3-16.6,0-22.9s-16.6-6.3-22.9,0s-6.3,16.6,0,22.9S71.7,388.4,78,382.1z"/>
		</g>
		<g>
			<g>
				<g>
					<path class="st6" d="M276.2,392.3c-3,8.9-5.9,17.7-8.9,26.6c25.8,0,51.6,0,77.5,0c-3-8.9-5.9-17.7-8.9-26.6
						C315.9,392.3,296.1,392.3,276.2,392.3z"/>
					<path class="st11" d="M349.1,416.4h-86.3c-2.2,0-4,2.1-4,4.7v1.7H353v-1.7C353.1,418.5,351.3,416.4,349.1,416.4z"/>
					<path class="st11" d="M176.3,370.3v18.5c0,3.6,2.9,6.5,6.5,6.5h246.6c3.6,0,6.5-2.9,6.5-6.5v-18.5H176.3z"/>
					<path class="st12" d="M435.7,370.3v-157c0-3.6-2.9-6.5-6.5-6.5H182.7c-3.6,0-6.5,2.9-6.5,6.5v157H435.7z"/>
					<rect x="187.3" y="217.3" class="st13" width="237.5" height="141.9"/>
					<polygon class="st14" points="187.3,359.2 424.7,217.3 424.7,359.2 					"/>
				</g>
				<g>
					<g>
						<g>
							<g>
								<rect x="227.1" y="326.2" class="st15" width="21.5" height="11.3"/>
								<rect x="237.9" y="326.2" class="st5" width="10.8" height="11.3"/>
							</g>
							<g>
								<rect x="261.2" y="309.6" class="st15" width="21.5" height="27.8"/>
								<rect x="271.9" y="309.6" class="st5" width="10.8" height="27.8"/>
							</g>
							<g>
								<rect x="295.2" y="261.6" class="st15" width="21.5" height="75.8"/>
								<rect x="306" y="261.6" class="st5" width="10.8" height="75.8"/>
							</g>
							<g>
								<rect x="329.3" y="277.9" class="st15" width="21.5" height="59.5"/>
								<rect x="340.1" y="277.9" class="st5" width="10.7" height="59.5"/>
							</g>
							<g>
								<rect x="363.4" y="241.6" class="st15" width="21.5" height="95.8"/>
								<rect x="374.1" y="241.6" class="st5" width="10.8" height="95.8"/>
							</g>
						</g>
					</g>
					<polyline class="st16" points="236.7,333 271.5,330.8 305.5,295.8 339.6,300.8 373.7,268.2 					"/>
					<circle class="st11" cx="237.9" cy="333" r="1.4"/>
					<circle class="st11" cx="271.8" cy="330.7" r="1.4"/>
					<circle class="st11" cx="305.7" cy="295.7" r="1.4"/>
					<circle class="st11" cx="339.7" cy="300.2" r="1.4"/>
					<circle class="st11" cx="373.6" cy="268.5" r="1.4"/>
				</g>
			</g>
			<g>
				<path class="st11" d="M418.3,178.9c0,8.6-7.1,15.7-15.8,15.7H209.4c-8.7,0-15.8-7-15.8-15.7c0-8.6,7.1-15.7,15.8-15.7h193.1
					C411.2,163.2,418.3,170.2,418.3,178.9z"/>
				<g>
					<path class="st17" d="M399.4,171.2c-3.1,0-5.7,2.6-5.7,5.7c0,3.1,2.6,5.7,5.7,5.7s5.7-2.6,5.7-5.7S402.5,171.2,399.4,171.2z
						 M399.4,180.6c-2,0-3.6-1.6-3.6-3.7c0-2,1.6-3.6,3.6-3.6s3.6,1.6,3.6,3.6C403,178.9,401.4,180.6,399.4,180.6z"/>
					<g>
						<path class="st17" d="M407.1,185.9c-0.2,0-0.3-0.1-0.4-0.2l-4.4-4.6c-0.2-0.2-0.2-0.6,0-0.8s0.6-0.2,0.8,0l4.4,4.6
							c0.2,0.2,0.2,0.6,0,0.8C407.3,185.8,407.2,185.9,407.1,185.9L407.1,185.9z"/>
					</g>
					<g>
						<path class="st17" d="M407.1,186.5c-0.3,0-0.7-0.1-0.9-0.4l-2.7-2.9c-0.5-0.5-0.5-1.3,0-1.8s1.3-0.5,1.8,0l2.7,2.9
							c0.5,0.5,0.5,1.3,0,1.8C407.7,186.4,407.4,186.5,407.1,186.5L407.1,186.5z"/>
					</g>
				</g>
			</g>
		</g>
		<g>
			<path class="st6" d="M527.3,383.5c0,7.6,0,15.2,0,22.8c0,0.2-0.1,0.4-0.1,0.6c-0.4,1.9-2.1,3.3-4,3.3c-0.5,0-1.1,0-1.6,0
				c-0.1,0-0.2,0-0.2,0c0,0.2,0,0.3,0,0.4c0,2.2,0,4.5,0,6.7c0,2.7,0,5.3,0,8c0,1.4-0.9,2.5-2.2,2.9c-0.1,0-0.2,0.1-0.3,0.1
				c-16.4,0-32.8,0-49.2,0c-0.1,0-0.2-0.1-0.4-0.1c-1.1-0.3-1.8-1-2.1-2c-0.1-0.4-0.1-0.7-0.1-1.1c0-4.8,0-9.6,0-14.5
				c0-0.1,0-0.3,0-0.4c-0.1,0-0.2,0-0.3,0c-0.5,0-1,0-1.5,0c-1,0-1.8-0.3-2.6-0.9c-1.1-0.9-1.6-2.1-1.6-3.5c0-7.2,0-14.5,0-21.7
				c0-0.3,0-0.6,0.1-0.9c0.4-2.1,2.2-3.5,4.1-3.5c0.5,0,1,0,1.5,0c0.1,0,0.2,0,0.3,0c0-0.2,0-0.3,0-0.5c0-7.8,0-15.5,0-23.3
				c0-0.2,0-0.4,0-0.6c0.1-1.2,0.9-2.3,2.1-2.6c0.3-0.1,0.7-0.1,1-0.1c11.7,0,23.3,0,35,0c0.1,0,0.2,0,0.3,0c0.3,0,0.6,0.1,0.8,0.3
				c0.1,0.1,0.3,0.2,0.4,0.4c1.7,1.9,3.3,3.9,5,5.8c3.1,3.5,6.1,7.1,9.2,10.6c0.3,0.3,0.4,0.7,0.4,1.1c0,0.1,0,0.3,0,0.4
				c0,2.7,0,5.4,0,8.1c0,0.1,0,0.2,0,0.4c0.5,0,0.9,0,1.4,0c0.4,0,0.8,0,1.1,0.1c1.8,0.3,3.2,1.8,3.4,3.6
				C527.3,383.4,527.3,383.4,527.3,383.5z M504,355.5c-11.4,0-22.7,0-34,0c0,8,0,16.1,0,24.1c16.2,0,32.3,0,48.4,0
				c0.1-0.4,0.1-7.2,0-7.4c-0.1,0-0.2,0-0.4,0c-4.1,0-8.2,0-12.3,0c-0.1,0-0.2,0-0.3,0c-0.8,0-1.4-0.6-1.4-1.4c0-0.1,0-0.3,0-0.4
				c0-4.8,0-9.6,0-14.4C504,355.8,504,355.7,504,355.5z M518.4,424.4c0-4.8,0-9.5,0-14.3c-0.6-0.1-48.2,0-48.4,0c0,4.7,0,9.5,0,14.2
				C486.1,424.4,502.2,424.4,518.4,424.4z M486.6,406.5c0.1,0,0.2,0,0.3,0.1c0.8,0.1,1.7,0.2,2.5,0.2c1.8,0.1,3.7,0.1,5.5-0.1
				c1.5-0.2,2.9-0.4,4.3-1c3-1.1,5.1-3.2,6.1-6.3c0.7-2.3,0.8-4.6,0.4-6.9c-0.3-1.5-0.8-2.8-1.7-4c-1.3-1.7-3-2.8-5.1-3.5
				c-1.6-0.5-3.3-0.7-4.9-0.7c-2,0-4.1,0-6.1,0.3c-0.5,0-0.9,0.1-1.4,0.2C486.6,392,486.6,399.2,486.6,406.5z M472.6,398.7
				c0.1,0,0.1,0,0.1,0c1.1,0.1,2.3,0.1,3.4,0c1.2-0.1,2.3-0.4,3.4-0.9c1.5-0.7,2.6-1.7,3.2-3.3c0.4-0.9,0.6-1.8,0.6-2.7
				c0.1-1.3-0.1-2.5-0.7-3.6c-0.8-1.6-2.1-2.6-3.7-3.2c-1.3-0.5-2.7-0.6-4.1-0.6c-2,0-3.9,0-5.9,0.3c-0.4,0-0.9,0.1-1.3,0.2
				c-0.1,0.4-0.1,21.7,0,21.9c1.6,0,3.2,0,4.8,0C472.6,404,472.6,401.3,472.6,398.7z M514.2,406.6c0-3,0-5.9,0-8.9
				c2.6,0,5.2,0,7.8,0c0.1-0.5,0-3.8,0-4.1c-2.6,0-5.2,0-7.8,0c0-1.7,0-3.4,0-5.1c0.4,0,0.7,0,1.1,0c0.3,0,0.7,0,1,0
				c0.4,0,0.7,0,1.1,0c0.3,0,0.7,0,1,0c0.4,0,0.7,0,1.1,0c0.4,0,0.7,0,1.1,0c0.3,0,0.7,0,1,0s0.7,0,1,0c0-1.4,0-2.7,0-4.1
				c-4.5,0-8.9,0-13.3,0c-0.1,0.4-0.1,21.9,0,22.1C510.9,406.6,512.6,406.6,514.2,406.6z"/>
			<path class="st6" d="M491.6,402.8c0-4.8,0-9.7,0-14.5c0.4,0,0.7-0.1,1.1-0.1c1.2-0.1,2.3-0.1,3.5,0.2c2.4,0.7,3.9,2.3,4.4,4.7
				c0.4,1.8,0.3,3.6-0.3,5.3c-0.8,2.4-2.4,3.8-4.7,4.3c-1.2,0.3-2.4,0.2-3.5,0.2C491.8,402.9,491.7,402.8,491.6,402.8z"/>
			<path class="st6" d="M472.6,394.8c0-2.2,0-4.4,0-6.6c0.1,0,0.3-0.1,0.4-0.1c1.1-0.1,2.2-0.2,3.2,0.1c0.5,0.1,0.9,0.3,1.2,0.6
				c0.6,0.5,0.9,1.2,1,2c0,0.5,0,0.9-0.1,1.3c-0.3,1.2-1.1,2-2.2,2.4c-0.8,0.3-1.7,0.3-2.6,0.3C473.3,394.9,473,394.8,472.6,394.8z"
				/>
		</g>
		<g>
			<g>
				<g>
					<path class="st11" d="M192.8,93.2"/>
				</g>
				<g>
					<path class="st11" d="M181.6,82"/>
				</g>
				<g>
					<path class="st11" d="M194.2,95.5"/>
				</g>
				<g>
					<path class="st11" d="M183,84.2"/>
				</g>
				<g>
					<g>
						<path class="st11" d="M186.3,93.2h8.2l-9.3-9.3v8.2C185.2,92.7,185.7,93.2,186.3,93.2z"/>
					</g>
					<g>
						<path class="st11" d="M186.3,95.8c-2.1,0-3.7-1.7-3.7-3.7V83H147c-1.3,0-2.3,1-2.3,2.3v62.2c0,1.3,1,2.3,2.3,2.3h46.2
							c1.3,0,2.3-1,2.3-2.3V95.8H186.3z M150.7,91.5h27.6c0.5,0,1,0.4,1,1c0,0.5-0.4,1-1,1h-27.6c-0.5,0-1-0.4-1-1
							C149.7,92,150.2,91.5,150.7,91.5z M189.5,138.1h-38.8c-0.5,0-1-0.4-1-1s0.4-1,1-1h38.8c0.5,0,1,0.4,1,1S190,138.1,189.5,138.1
							z M189.5,130.6h-38.8c-0.5,0-1-0.4-1-1c0-0.5,0.4-1,1-1h38.8c0.5,0,1,0.4,1,1C190.5,130.2,190,130.6,189.5,130.6z
							 M189.5,123.2h-38.8c-0.5,0-1-0.4-1-1c0-0.5,0.4-1,1-1h38.8c0.5,0,1,0.4,1,1C190.5,122.8,190,123.2,189.5,123.2z M189.5,115.8
							h-38.8c-0.5,0-1-0.4-1-1c0-0.5,0.4-1,1-1h38.8c0.5,0,1,0.4,1,1C190.5,115.3,190,115.8,189.5,115.8z M189.5,108.4h-38.8
							c-0.5,0-1-0.4-1-1c0-0.5,0.4-1,1-1h38.8c0.5,0,1,0.4,1,1C190.5,107.9,190,108.4,189.5,108.4z M189.5,100.9h-38.8
							c-0.5,0-1-0.4-1-1c0-0.5,0.4-1,1-1h38.8c0.5,0,1,0.4,1,1S190,100.9,189.5,100.9z"/>
					</g>
				</g>
			</g>
			<g>
				<g>
					<path class="st15" d="M179.6,106"/>
				</g>
				<g>
					<path class="st15" d="M168.4,94.8"/>
				</g>
				<g>
					<path class="st15" d="M181,108.3"/>
				</g>
				<g>
					<path class="st15" d="M169.8,97"/>
				</g>
				<g>
					<g>
						<path class="st15" d="M173.1,106h8.2l-9.3-9.3v8.2C172,105.5,172.5,106,173.1,106z"/>
					</g>
					<g>
						<path class="st15" d="M173.1,108.6c-2.1,0-3.7-1.7-3.7-3.7v-9.1h-35.6c-1.3,0-2.3,1-2.3,2.3v62.2c0,1.3,1,2.3,2.3,2.3H180
							c1.3,0,2.3-1,2.3-2.3v-51.6h-9.2V108.6z M137.5,104.3h27.6c0.5,0,1,0.4,1,1c0,0.5-0.4,1-1,1h-27.6c-0.5,0-1-0.4-1-1
							C136.5,104.8,136.9,104.3,137.5,104.3z M176.3,150.9h-38.8c-0.5,0-1-0.4-1-1s0.4-1,1-1h38.8c0.5,0,1,0.4,1,1
							S176.8,150.9,176.3,150.9z M176.3,143.4h-38.8c-0.5,0-1-0.4-1-1c0-0.5,0.4-1,1-1h38.8c0.5,0,1,0.4,1,1
							S176.8,143.4,176.3,143.4z M176.3,136h-38.8c-0.5,0-1-0.4-1-1c0-0.5,0.4-1,1-1h38.8c0.5,0,1,0.4,1,1S176.8,136,176.3,136z
							 M176.3,128.6h-38.8c-0.5,0-1-0.4-1-1c0-0.5,0.4-1,1-1h38.8c0.5,0,1,0.4,1,1C177.3,128.1,176.8,128.6,176.3,128.6z
							 M176.3,121.2h-38.8c-0.5,0-1-0.4-1-1c0-0.5,0.4-1,1-1h38.8c0.5,0,1,0.4,1,1C177.3,120.7,176.8,121.2,176.3,121.2z
							 M176.3,113.7h-38.8c-0.5,0-1-0.4-1-1c0-0.5,0.4-1,1-1h38.8c0.5,0,1,0.4,1,1C177.3,113.3,176.8,113.7,176.3,113.7z"/>
					</g>
				</g>
			</g>
		</g>
		<g>
			<g>
				<g id="file_3_">
					<path class="st6" d="M539.2,144.3v54.3c0,0.9-0.7,1.6-1.6,1.6h-59.3c-0.9,0-1.6-0.7-1.6-1.6v-75.8c0-0.9,0.7-1.6,1.6-1.6h37.9
						v21.4c0,0.9,0.7,1.6,1.6,1.6L539.2,144.3L539.2,144.3z M519.5,121.3v18.1c0,0.9,0.7,1.6,1.6,1.6h18.1L519.5,121.3z"/>
				</g>
				<g id="pie_x5F_chart_2_">
					<g>
						<path class="st8" d="M490.7,169.1c0-8.7,7.1-15.8,15.8-15.8c4.4,0,8.3,1.8,11.1,4.6l-11.2,11.2v15.8
							C498,184.9,490.7,177.9,490.7,169.1z"/>
					</g>
					<path class="st18" d="M509.4,169.1l11.2-11.2c6.2,6.2,6.2,16.2,0,22.3L509.4,169.1z"/>
					<path class="st19" d="M507.9,170.5v15.8c4.2,0,8.1-1.5,11.2-4.6L507.9,170.5z"/>
				</g>
			</g>
			<g>
				<g id="file_2_">
					<path class="st11" d="M507.9,163.1v54.3c0,0.9-0.7,1.6-1.6,1.6H447c-0.9,0-1.6-0.7-1.6-1.6v-75.8c0-0.9,0.7-1.6,1.6-1.6h37.9
						v21.4c0,0.9,0.7,1.6,1.6,1.6h21.4V163.1z M488.2,140v18.1c0,0.9,0.7,1.6,1.6,1.6h18.1L488.2,140z"/>
				</g>
				<g id="charts_3_">
					<path class="st5" d="M491.9,206.6V186c0-0.4-0.3-0.7-0.7-0.7h-5.7c-0.4,0-0.7,0.3-0.7,0.7v20.7h-1.4V176c0-0.4-0.3-0.7-0.7-0.7
						H477c-0.4,0-0.7,0.3-0.7,0.7v30.6h-1.4v-15c0-0.4-0.3-0.7-0.7-0.7h-5.7c-0.4,0-0.7,0.3-0.7,0.7v15h-1.4v-6.4
						c0-0.4-0.3-0.7-0.7-0.7H460c-0.4,0-0.7,0.3-0.7,0.7v0.7v5.7h-2.9v2.9h38.5v-1.4v-1.4h-3V206.6z"/>
				</g>
				<rect x="490" y="159.8" class="st11" width="17.9" height="3.3"/>
			</g>
		</g>
		<g>
			<g>
				<path class="st15" d="M331.2,98.1c-0.4,0-0.7-0.1-1-0.4s-0.4-0.6-0.4-1v-1.6c-2.5-0.3-4.7-1.2-6.4-2.8c0,0-0.1-0.1-0.4-0.5
					c-0.2-0.3-0.4-0.6-0.4-0.9s0.1-0.7,0.3-0.9l0.3-0.4c0.3-0.3,0.6-0.5,1-0.5l0,0c0.4,0,0.7,0.2,1,0.4l0,0l0.2,0.2
					c0.9,0.8,2.3,1.8,4.3,2.1v-8c-3.2-0.9-6.8-2.2-6.8-6.5c0-3.5,2.8-6.1,6.8-6.6v-1.6c0-0.4,0.2-0.8,0.4-1c0.3-0.3,0.6-0.4,1-0.4
					l0,0c0.4,0,0.7,0.1,1,0.4s0.4,0.6,0.4,1v1.7c1.9,0.3,3.6,0.9,5,2c0,0,0.1,0.1,0.8,0.8c0.3,0.3,0.4,0.6,0.4,1s-0.1,0.7-0.4,1
					L338,76c-0.3,0.3-0.6,0.4-1,0.5l0,0c-0.4,0-0.7-0.1-1-0.4s-0.6-0.6-0.7-0.6c-0.8-0.6-1.8-1-2.9-1.3v7.1c2.8,0.8,7,2.3,7,7
					c0,3-1.9,6.3-7,6.9v1.6c0,0.4-0.2,0.8-0.4,1C332,98,331.6,98.1,331.2,98.1L331.2,98.1z M332.7,91.9c3.3-0.6,3.6-2.9,3.6-3.6
					c0-1.9-1.3-2.8-3.6-3.6V91.9z M329.8,74c-2,0.3-3.4,1.6-3.4,3.3c0,1.5,1.2,2.3,3.4,3V74z"/>
				<path class="st11" d="M331.1,106.4c-12.9,0-23.5-10.5-23.5-23.5c0-12.9,10.5-23.5,23.5-23.5c12.9,0,23.5,10.5,23.5,23.5
					S344.1,106.4,331.1,106.4z M331.1,62.2c-11.5,0-20.8,9.3-20.8,20.8s9.3,20.8,20.8,20.8s20.8-9.3,20.8-20.8
					S342.6,62.2,331.1,62.2z"/>
				<path class="st11" d="M331.1,113.8c-17,0-30.9-13.8-30.9-30.9c0-17,13.8-30.9,30.9-30.9c17,0,30.9,13.8,30.9,30.9
					C362,99.9,348.1,113.8,331.1,113.8z M331.1,54.8c-15.5,0-28.2,12.6-28.2,28.1s12.6,28.2,28.2,28.2c15.5,0,28.1-12.6,28.1-28.2
					C359.3,67.4,346.6,54.8,331.1,54.8z"/>
			</g>
		</g>
	</g>
</g>
</svg>
