<?xml version="1.0" encoding="utf-8"?>
<!-- Generator: Adobe Illustrator 20.0.0, SVG Export Plug-In . SVG Version: 6.00 Build 0)  -->
<svg version="1.1" id="Layer_1" xmlns="http://www.w3.org/2000/svg" xmlns:xlink="http://www.w3.org/1999/xlink" x="0px" y="0px"
	 viewBox="0 0 612 612" style="enable-background:new 0 0 612 612;" xml:space="preserve">
<style type="text/css">
	.st0{clip-path:url(#SVGID_2_);fill:#DB3D3A;}
	.st1{clip-path:url(#SVGID_4_);}
	.st2{opacity:0.2;}
	.st3{fill:#603A17;}
	.st4{font-family:'ArialMT';}
	.st5{font-size:18.9747px;}
	.st6{font-size:15.1013px;}
	.st7{fill:#F3C79F;}
	.st8{fill:#009CB3;}
	.st9{fill:#FFFFFF;}
	.st10{fill:#333333;}
	.st11{fill:#4D4E4E;}
	.st12{clip-path:url(#SVGID_6_);}
	.st13{fill:#EC6081;}
	.st14{fill:#FDF49F;}
	.st15{fill:#C5BC76;}
	.st16{font-family:'BebasNeue';}
	.st17{font-size:14.0754px;}
	.st18{fill:#2E2D2C;}
	.st19{clip-path:url(#SVGID_8_);fill:#F3C79F;}
	.st20{fill:#0F3754;}
	.st21{fill:#070807;}
	.st22{fill:#F16228;}
	.st23{fill:#D0EAF9;}
	.st24{fill:#F4F5F5;}
	.st25{fill:#FAAF3A;}
	.st26{fill:#00B0B6;}
	.st27{fill:#DE8C26;}
	.st28{opacity:0.6;fill:#FAAF3A;enable-background:new    ;}
	.st29{fill:#F4D881;}
	.st30{fill:#DB3D3A;}
	.st31{fill:#2C5871;}
	.st32{enable-background:new    ;}
	.st33{fill:#413D3A;}
</style>
<g>
	<g>
		<g>
			<defs>
				<circle id="SVGID_1_" cx="306" cy="306" r="306"/>
			</defs>
			<clipPath id="SVGID_2_">
				<use xlink:href="#SVGID_1_"  style="overflow:visible;"/>
			</clipPath>
			<rect x="-28.2" y="-28.3" class="st0" width="668.4" height="668.4"/>
		</g>
		<g>
			<defs>
				<circle id="SVGID_3_" cx="306" cy="306" r="306"/>
			</defs>
			<clipPath id="SVGID_4_">
				<use xlink:href="#SVGID_3_"  style="overflow:visible;"/>
			</clipPath>
			<g class="st1">
				<g class="st2">
					<g>
						<g>
							<path class="st3" d="M117.5,209.5c0,0-9.9,151.7-3.2,164c14.7,26.7,19.8,43.4,19.8,43.4l-5.9,13.3l94.6,49.5l13.6-30.3
								c0,0,19.8,9.9,44.9-43.9L157,400.2l-5.2-164.1C151.8,236.1,142.6,212.8,117.5,209.5z"/>
						</g>
						<g>
							<path class="st3" d="M288.9,212.3c-7.2,7.2-18.9,7.2-26.2,0l0,0c-7.2-7.2-7.2-18.9,0-26.2l41.1-41.1c7.2-7.2,18.9-7.2,26.2,0
								l0,0c7.2,7.2,7.2,18.9,0,26.2L288.9,212.3z"/>
						</g>
						<g>
							<path class="st3" d="M288.9,265.2c-7.2,7.2-18.9,7.2-26.2,0l0,0c-7.2-7.2-7.2-18.9,0-26.2l41.1-41.1c7.2-7.2,18.9-7.2,26.2,0
								l0,0c7.2,7.2,7.2,18.9,0,26.2L288.9,265.2z"/>
						</g>
						<polygon class="st3" points="112.1,422.3 236.5,486.9 160.2,608 -13.1,608 						"/>
						<g>
							<g>
								<path class="st3" d="M305.4,390.1c0,8.8-8.4,15.3-17.2,15.3H166.6c-8.8,0-16.1-6.5-16.1-15.3V120.5
									c0-8.8,7.4-15.5,16.1-15.5h121.6c8.8,0,17.2,6.7,17.2,15.5L305.4,390.1L305.4,390.1z"/>
								<rect x="159.1" y="131.9" class="st3" width="137.6" height="246.7"/>
								<polygon class="st3" points="159.1,378.5 159.1,131.9 296.7,131.9 								"/>
							</g>
							<g>
								<path class="st3" d="M258.7,115.3c0,1.3-1.1,2.4-2.4,2.4h-56.9c-1.3,0-2.4-1.1-2.4-2.4l0,0c0-1.3,1.1-2.4,2.4-2.4h56.9
									C257.7,112.9,258.7,113.9,258.7,115.3L258.7,115.3z"/>
								<g>
									<circle class="st3" cx="214.3" cy="114.9" r="1.1"/>
									<circle class="st3" cx="221.3" cy="114.9" r="1.1"/>
									<circle class="st3" cx="228.3" cy="114.9" r="1.1"/>
									<circle class="st3" cx="234.7" cy="114.9" r="1.1"/>
									<circle class="st3" cx="241.5" cy="114.9" r="1.1"/>
								</g>
							</g>
							<g>
								<text transform="matrix(1 0 0 1 214.6471 236.3433)" class="st3 st4 st5">MY</text>
								<text transform="matrix(1 0 0 1 179.191 258.4014)" class="st3 st4 st6">SMARTPHONE</text>
							</g>
						</g>
						<g>
							<path class="st3" d="M303.2,296.1c-6.6,6.6-17.2,6.6-23.8,0l0,0c-6.6-6.6-6.6-17.2,0-23.8l37.3-37.3c6.6-6.6,17.2-6.6,23.8,0
								l0,0c6.6,6.6,6.6,17.2,0,23.8L303.2,296.1z"/>
						</g>
						<g>
							<path class="st3" d="M311.2,328.6c-6.1,6.1-15.9,6.1-22,0l0,0c-6.1-6.1-6.1-15.9,0-22l34.6-34.6c6.1-6.1,15.9-6.1,22,0l0,0
								c6.1,6.1,6.1,15.9,0,22L311.2,328.6z"/>
						</g>
					</g>
				</g>
				<path class="st7" d="M101.6,209.5c0,0-9.9,151.7-3.2,164c14.7,26.7,19.8,43.4,19.8,43.4l-5.9,13.3l94.6,49.5l13.6-30.3
					c0,0,19.8,9.9,44.9-43.9l-124.2-5.3L136,236.1C136,236.1,126.8,212.8,101.6,209.5z"/>
				<path class="st7" d="M273.1,212.3c-7.2,7.2-18.9,7.2-26.2,0l0,0c-7.2-7.2-7.2-18.9,0-26.2L288,145c7.2-7.2,18.9-7.2,26.2,0l0,0
					c7.2,7.2,7.2,18.9,0,26.2L273.1,212.3z"/>
				<path class="st7" d="M273.1,265.2c-7.2,7.2-18.9,7.2-26.2,0l0,0c-7.2-7.2-7.2-18.9,0-26.2l41.1-41.1c7.2-7.2,18.9-7.2,26.2,0
					l0,0c7.2,7.2,7.2,18.9,0,26.2L273.1,265.2z"/>
				<polygon class="st8" points="96.3,422.3 220.6,486.9 144.4,608 -28.9,608 				"/>
				<g>
					<g>
						<path class="st9" d="M289.6,390.1c0,8.8-8.4,15.3-17.2,15.3H150.7c-8.8,0-16.1-6.5-16.1-15.3V120.5c0-8.8,7.4-15.5,16.1-15.5
							h121.6c8.8,0,17.2,6.7,17.2,15.5v269.6H289.6z"/>
						<rect x="143.3" y="131.9" class="st10" width="137.6" height="246.7"/>
						<polygon class="st11" points="143.3,378.5 143.3,131.9 280.9,131.9 						"/>
						<g>
							<g>
								<defs>
									<rect id="SVGID_5_" x="143.3" y="131.9" width="137.6" height="246.7"/>
								</defs>
								<clipPath id="SVGID_6_">
									<use xlink:href="#SVGID_5_"  style="overflow:visible;"/>
								</clipPath>
								<g class="st12">
									<path class="st13" d="M277,244.3c4.4,3,7.9,7.3,4.8,11.9l-82.6,121.9c-3.1,4.6-10.8,6.5-15.2,3.5L107.8,330
										c-4.4-3-3.3-9.4-0.2-14l82.6-121.9c3.1-4.6,6.3-4.4,10.7-1.4L277,244.3z"/>
									<path class="st14" d="M158,295.5c4.2,2.8,5.3,8.5,2.4,12.7L147,328c-2.8,4.2-8.5,5.3-12.7,2.4l-12.6-8.5
										c-4.2-2.8-5.3-8.5-2.4-12.7l13.4-19.8c2.8-4.2,8.5-5.3,12.7-2.4L158,295.5z"/>
									<g>
										<g>
											
												<rect x="131.4" y="300.7" transform="matrix(0.561 -0.8278 0.8278 0.561 -204.3964 250.8765)" class="st15" width="5.8" height="34.9"/>
										</g>
										<g>
											
												<rect x="122.1" y="317.2" transform="matrix(0.561 -0.8278 0.8278 0.561 -207.3336 246.3855)" class="st15" width="13.1" height="2.9"/>
										</g>
										<g>
											
												<rect x="124" y="319.2" transform="matrix(0.561 -0.8278 0.8278 0.561 -207.5679 248.4881)" class="st15" width="13.1" height="1.5"/>
										</g>
										<g>
											<polygon class="st15" points="133.8,316.3 126.6,326.9 126.6,326.9 											"/>
										</g>
										<g>
											<polygon class="st15" points="137.5,318.7 130.2,329.4 130.2,329.4 											"/>
										</g>
									</g>
									<g>
										<g>
											<polygon class="st15" points="151.1,324.2 151.1,324.2 123.6,305.6 123.6,305.6 											"/>
										</g>
										<g>
											
												<rect x="124.7" y="297.5" transform="matrix(0.561 -0.8278 0.8278 0.561 -186.6964 245.8805)" class="st15" width="27.6" height="2.9"/>
										</g>
										<g>
											<polygon class="st15" points="133.9,313.7 149.6,290.5 149.6,290.5 											"/>
										</g>
										<g>
											<polygon class="st15" points="136.1,313 151.2,290.7 151.2,290.7 											"/>
										</g>
										<g>
											
												<rect x="131.3" y="301.3" transform="matrix(0.561 -0.8278 0.8278 0.561 -187.5336 253.3885)" class="st15" width="27.6" height="4.4"/>
										</g>
									</g>
									<text transform="matrix(0.561 -0.8278 0.8278 0.561 181.7053 254.4163)" class="st14 st16 st17">BANK NAME</text>
									<text transform="matrix(0.561 -0.8278 0.8278 0.561 172.0341 359.8362)" class="st14 st16 st17">1234    5678   3456</text>
									<text transform="matrix(0.561 -0.8278 0.8278 0.561 218.1484 291.7913)" class="st14 st16 st17"> </text>
								</g>
							</g>
						</g>
						<g>
							<path class="st11" d="M242.9,115.3c0,1.3-1.1,2.4-2.4,2.4h-56.9c-1.3,0-2.4-1.1-2.4-2.4l0,0c0-1.3,1.1-2.4,2.4-2.4h56.9
								C241.9,112.9,242.9,113.9,242.9,115.3L242.9,115.3z"/>
							<g>
								<circle class="st18" cx="198.5" cy="114.9" r="1.1"/>
								<circle class="st18" cx="205.5" cy="114.9" r="1.1"/>
								<circle class="st18" cx="212.5" cy="114.9" r="1.1"/>
								<circle class="st18" cx="218.9" cy="114.9" r="1.1"/>
								<circle class="st18" cx="225.7" cy="114.9" r="1.1"/>
							</g>
						</g>
					</g>
					<path class="st7" d="M295.4,328.6c-6.1,6.1-15.9,6.1-22,0l0,0c-6.1-6.1-6.1-15.9,0-22L308,272c6.1-6.1,15.9-6.1,22,0l0,0
						c6.1,6.1,6.1,15.9,0,22L295.4,328.6z"/>
				</g>
				<g>
					<defs>
						<circle id="SVGID_7_" cx="306" cy="306" r="306"/>
					</defs>
					<clipPath id="SVGID_8_">
						<use xlink:href="#SVGID_7_"  style="overflow:visible;"/>
					</clipPath>
					<path class="st19" d="M278.4,301.8c-6.4,6.4-16.7,6.4-23.1,0l0,0c-6.4-6.4-6.4-16.7,0-23.1l36.2-36.2c6.4-6.4,16.7-6.4,23.1,0
						l0,0c6.4,6.4,6.4,16.7,0,23.1L278.4,301.8z"/>
				</g>
			</g>
			<g class="st1">
				<path class="st20" d="M335.6,479.1h-59.1c-3,0-5.4,2.4-5.4,5.4v80c0,3,2.4,5.4,5.4,5.4h59.1c3,0,5.4-2.4,5.4-5.4v-80
					C341,481.5,338.6,479.1,335.6,479.1z"/>
				<path class="st21" d="M335.6,479.1h-59.1c-3,0-5.4,2.4-5.4,5.4v26h70v-26C341,481.5,338.6,479.1,335.6,479.1z"/>
				<g>
					<g>
						<path class="st20" d="M333.8,544.3c0,1-0.8,1.8-1.8,1.8h-10.6c-1,0-1.8-0.8-1.8-1.8v-6.9c0-1,0.8-1.8,1.8-1.8H332
							c1,0,1.8,0.8,1.8,1.8V544.3z"/>
					</g>
					<g>
						<path class="st9" d="M292.4,559.4c0,1-0.8,1.8-1.8,1.8H280c-1,0-1.8-0.8-1.8-1.8v-6.9c0-1,0.8-1.8,1.8-1.8h10.6
							c1,0,1.8,0.8,1.8,1.8V559.4z"/>
						<path class="st9" d="M292.4,542.5c0,1-0.8,1.8-1.8,1.8H280c-1,0-1.8-0.8-1.8-1.8v-6.9c0-1,0.8-1.8,1.8-1.8h10.6
							c1,0,1.8,0.8,1.8,1.8V542.5z"/>
						<path class="st9" d="M292.4,525.6c0,1-0.8,1.8-1.8,1.8H280c-1,0-1.8-0.8-1.8-1.8v-6.9c0-1,0.8-1.8,1.8-1.8h10.6
							c1,0,1.8,0.8,1.8,1.8V525.6z"/>
						<path class="st9" d="M313.1,559.4c0,1-0.8,1.8-1.8,1.8h-10.6c-1,0-1.8-0.8-1.8-1.8v-6.9c0-1,0.8-1.8,1.8-1.8h10.6
							c1,0,1.8,0.8,1.8,1.8V559.4z"/>
						<path class="st9" d="M313.1,542.5c0,1-0.8,1.8-1.8,1.8h-10.6c-1,0-1.8-0.8-1.8-1.8v-6.9c0-1,0.8-1.8,1.8-1.8h10.6
							c1,0,1.8,0.8,1.8,1.8V542.5z"/>
						<path class="st9" d="M313.1,525.6c0,1-0.8,1.8-1.8,1.8h-10.6c-1,0-1.8-0.8-1.8-1.8v-6.9c0-1,0.8-1.8,1.8-1.8h10.6
							c1,0,1.8,0.8,1.8,1.8V525.6z"/>
						<path class="st22" d="M333.8,559.4c0,1-0.8,1.8-1.8,1.8h-10.6c-1,0-1.8-0.8-1.8-1.8V540c0-1,0.8-1.8,1.8-1.8H332
							c1,0,1.8,0.8,1.8,1.8V559.4z"/>
						<path class="st22" d="M333.8,542.5c0,1-0.8,1.8-1.8,1.8h-10.6c-1,0-1.8-0.8-1.8-1.8v-6.9c0-1,0.8-1.8,1.8-1.8H332
							c1,0,1.8,0.8,1.8,1.8V542.5z"/>
						<path class="st9" d="M333.8,525.6c0,1-0.8,1.8-1.8,1.8h-10.6c-1,0-1.8-0.8-1.8-1.8v-6.9c0-1,0.8-1.8,1.8-1.8H332
							c1,0,1.8,0.8,1.8,1.8V525.6z"/>
					</g>
				</g>
				<path class="st23" d="M333.8,503c0,1-0.8,1.8-1.8,1.8h-51.9c-1,0-1.8-0.8-1.8-1.8v-14.9c0-1,0.8-1.8,1.8-1.8H332
					c1,0,1.8,0.8,1.8,1.8V503z"/>
			</g>
			<g id="building_54_" class="st1">
				<g>
					<path class="st24" d="M520.5,166.4h-67l6.7-6.7H477l3.4-3.4h13.4l3.4,3.4H514L520.5,166.4z M527.2,240.2v3.4h-33.5v-10.1h-13.4
						v10.1h-33.5v-3.4h3.4v-3.4h3.4v-67h67v67h3.4v3.4H527.2z M476.9,220h-13.4v6.7h13.4V220z M476.9,206.6h-13.4v6.7h13.4V206.6z
						 M476.9,193.2h-13.4v6.7h13.4V193.2z M476.9,179.8h-13.4v6.7h13.4V179.8z M493.7,220h-13.4v6.7h13.4V220z M493.7,206.6h-13.4
						v6.7h13.4V206.6z M493.7,193.2h-13.4v6.7h13.4V193.2z M493.7,179.8h-13.4v6.7h13.4V179.8z M510.4,220H497v6.7h13.4V220z
						 M510.4,206.6H497v6.7h13.4V206.6z M510.4,193.2H497v6.7h13.4V193.2z M510.4,179.8H497v6.7h13.4V179.8z"/>
				</g>
			</g>
			<g class="st1">
				<polygon class="st25" points="329.2,60 329.1,123.1 440.9,123.1 440.8,59.9 				"/>
				<g>
					<g>
						<path class="st26" d="M372.8,84.3h-14v2.1h13.3C372.2,85.7,372.5,85,372.8,84.3z"/>
						<path class="st26" d="M398.6,90.5c0,0.3,0,0.7,0,1c0,0.4,0,0.7,0,1h17.5v-2.1L398.6,90.5L398.6,90.5z"/>
						<path class="st26" d="M371.4,91.5c0-0.3,0-0.7,0-1h-17.5v2.1h17.5C371.4,92.2,371.4,91.9,371.4,91.5z"/>
						<path class="st26" d="M411.2,86.4v-2.1h-14c0.3,0.7,0.5,1.4,0.7,2.1H411.2z"/>
						<path class="st26" d="M397.3,98.8h14v-2.1H398C397.8,97.4,397.5,98.1,397.3,98.8z"/>
						<path class="st26" d="M372.1,96.7h-13.3v2.1h14C372.5,98.1,372.2,97.4,372.1,96.7z"/>
					</g>
				</g>
				<polygon class="st27" points="422.1,63.3 347.9,63.3 332.5,63.3 332.5,78.7 332.5,104.4 332.5,119.8 348,119.8 422.1,119.8 
					437.5,119.8 437.5,104.3 437.5,78.7 437.5,63.3 				"/>
				<path class="st28" d="M434.1,104c-2.9,0.2-6,1.6-8.4,4.1c-2.4,2.4-3.8,5.5-4,8.4h-73.5c-0.2-2.9-1.7-6-4-8.4
					c-2.4-2.4-5.4-3.8-8.4-4v-25c3-0.2,6-1.7,8.4-4c2.4-2.4,3.8-5.5,4-8.4h73.5c0.2,2.9,1.7,6,4,8.4c2.4,2.4,5.4,3.8,8.4,4V104z"/>
				<g>
					<path class="st29" d="M402.5,91.5c0,11.3-7.8,20.4-17.5,20.4s-17.5-9.2-17.5-20.4c0-11.3,7.8-20.4,17.5-20.4
						S402.5,80.2,402.5,91.5z"/>
					<path class="st30" d="M392.4,96c0-3.8-3.3-5-6.3-5.8v-6.5c1.7,0.2,3.2,1,4.4,2.3l1.5-1.8c-1.4-1.5-3.4-2.5-5.9-2.7v-2.7h-1.8
						v2.7c-3.5,0.3-6.1,2.4-6.1,5.5c0,3.6,3.1,4.6,6.1,5.5v7.2c-2.3-0.3-4.1-1.5-5.3-2.8l-1.5,1.9c1.5,1.7,3.7,2.9,6.7,3.1v2.6h1.8
						v-2.6C390.7,101.4,392.4,98.7,392.4,96z"/>
				</g>
				<path class="st29" d="M384.3,83.6v6c-2-0.6-3.6-1.3-3.6-2.9C380.7,85,382.2,83.8,384.3,83.6z"/>
				<path class="st29" d="M386.1,92.8v6.8c2.8-0.3,3.8-2,3.8-3.4C389.9,94.2,388.2,93.4,386.1,92.8z"/>
			</g>
			<g class="st1">
				<path class="st31" d="M566.4,357.4c0,3.6-1.1,7.3-4.9,7.3H460.3c-3.8,0-7.9-3.7-7.9-7.3v-63.2c0-3.6,4.1-5.5,7.9-5.5h101.2
					c3.8,0,4.9,1.9,4.9,5.5V357.4z"/>
				<path class="st14" d="M491,309.7c0,3.5-2.8,6.3-6.3,6.3h-16.4c-3.5,0-6.3-2.8-6.3-6.3v-10.4c0-3.5,2.8-6.3,6.3-6.3h16.4
					c3.5,0,6.3,2.8,6.3,6.3V309.7z"/>
				<g>
					<g>
						<rect x="467" y="293" class="st15" width="4" height="24"/>
					</g>
					<g>
						<rect x="462" y="301" class="st15" width="9" height="2"/>
					</g>
					<g>
						<rect x="462" y="303" class="st15" width="9" height="1"/>
					</g>
					<g>
						<polygon class="st15" points="470.3,304 461.4,304 461.4,304 						"/>
					</g>
					<g>
						<polygon class="st15" points="470.3,307 461.4,307 461.4,307 						"/>
					</g>
				</g>
				<g>
					<g>
						<rect x="472" y="293.8" class="st15" width="0" height="22.8"/>
					</g>
					<g>
						<rect x="472" y="299" class="st15" width="19" height="2"/>
					</g>
					<g>
						<polygon class="st15" points="471.8,303 491,303 491,303 						"/>
					</g>
					<g>
						<polygon class="st15" points="473,304 491.5,304 491.5,304 						"/>
					</g>
					<g>
						<rect x="472" y="304" class="st15" width="19" height="3"/>
					</g>
				</g>
				<g class="st32">
					<path class="st14" d="M527.5,301.9v0.2c0,0.7-0.2,1.1-0.7,1.4v0c0.6,0.2,0.8,0.7,0.8,1.4v0.6c0,1-0.6,1.6-1.6,1.6h-1.7v-6.8
						h1.6C527,300.3,527.5,300.8,527.5,301.9z M525.4,301.3v1.8h0.4c0.4,0,0.6-0.2,0.6-0.7V302c0-0.5-0.2-0.7-0.5-0.7H525.4z
						 M525.4,304.1v2.1h0.6c0.4,0,0.6-0.2,0.6-0.7v-0.6c0-0.6-0.2-0.8-0.7-0.8H525.4z"/>
					<path class="st14" d="M531.7,307.1h-1.1l-0.2-1.2h-1.3l-0.2,1.2h-1l1.1-6.8h1.6L531.7,307.1z M529.3,305h1l-0.5-3.4h0
						L529.3,305z"/>
					<path class="st14" d="M533.1,302.2L533.1,302.2l0,4.9h-1v-6.8h1.3l1.1,4.1h0v-4.1h0.9v6.8h-1.1L533.1,302.2z"/>
					<path class="st14" d="M537.7,304.4l-0.3,0.6v2.1h-1.1v-6.8h1.1v2.9h0l1.4-2.9h1.1l-1.5,3l1.5,3.8h-1.1L537.7,304.4z"/>
					<path class="st14" d="M542.8,302.2L542.8,302.2l0,4.9h-1v-6.8h1.3l1.1,4.1h0v-4.1h0.9v6.8h-1.1L542.8,302.2z"/>
					<path class="st14" d="M549.4,307.1h-1.1l-0.2-1.2h-1.3l-0.2,1.2h-1l1.1-6.8h1.6L549.4,307.1z M547,305h1l-0.5-3.4h0L547,305z"
						/>
					<path class="st14" d="M552.1,305.1L552.1,305.1l0.7-4.8h1.5v6.8h-1v-4.9h0l-0.7,4.9h-1l-0.8-4.8h0v4.8h-0.9v-6.8h1.5
						L552.1,305.1z"/>
					<path class="st14" d="M556.2,303.2h1.5v1h-1.5v2h1.8v1h-2.9v-6.8h2.9v1h-1.8V303.2z"/>
				</g>
				<g class="st32">
					<path class="st14" d="M461.3,336.3c0.8,0,1-0.4,1.2-0.9h0.7v6.8h-1.1v-5.2h-0.8V336.3z"/>
					<path class="st14" d="M466,336.4c-0.3,0-0.6,0.2-0.6,0.7v0.7h-1v-0.7c0-1.1,0.5-1.7,1.6-1.7s1.6,0.6,1.6,1.7
						c0,0.9-0.3,1.6-1.3,2.7c-0.6,0.7-0.8,1-0.8,1.4c0,0,0,0.1,0,0.1h2v1h-3.1v-0.8c0-0.8,0.3-1.3,1.1-2.2c0.8-0.9,1-1.4,1-2.1
						C466.6,336.5,466.3,336.4,466,336.4z"/>
					<path class="st14" d="M470.3,337.1c0-0.6-0.2-0.8-0.6-0.8s-0.6,0.2-0.6,0.7v0.4h-1v-0.4c0-1.1,0.5-1.7,1.6-1.7s1.6,0.6,1.6,1.7
						v0.2c0,0.7-0.2,1.2-0.7,1.4v0c0.5,0.2,0.7,0.7,0.7,1.4v0.5c0,1.1-0.5,1.7-1.6,1.7s-1.6-0.6-1.6-1.7v-0.6h1v0.6
						c0,0.5,0.2,0.7,0.6,0.7s0.6-0.2,0.6-0.8v-0.5c0-0.6-0.2-0.9-0.7-0.9h-0.4v-1h0.4c0.4,0,0.6-0.2,0.6-0.7V337.1z"/>
					<path class="st14" d="M471.9,340.1l1.9-4.6h1.2v4.6h0.5v1h-0.5v1.2h-1.1V341h-2V340.1z M473.9,340.1v-2.5h0l-1,2.5H473.9z"/>
					<path class="st14" d="M482.9,340.1v0.6c0,0.5,0.2,0.7,0.6,0.7s0.6-0.2,0.6-0.7v-1.5c0-0.5-0.2-0.7-0.6-0.7s-0.6,0.2-0.6,0.7
						v0.2h-1l0.2-3.9h2.8v1H483l-0.1,1.6h0c0.2-0.3,0.5-0.5,0.9-0.5c0.8,0,1.2,0.6,1.2,1.5v1.5c0,1.1-0.5,1.7-1.6,1.7
						c-1,0-1.6-0.6-1.6-1.7v-0.6H482.9z"/>
					<path class="st14" d="M485.7,337.2c0-1.1,0.5-1.8,1.6-1.8c1,0,1.6,0.6,1.6,1.7v0.2h-1V337c0-0.5-0.2-0.7-0.6-0.7
						c-0.4,0-0.6,0.2-0.6,0.8v1.2h0c0.2-0.4,0.5-0.6,1-0.6c0.8,0,1.2,0.6,1.2,1.5v1.2c0,1.1-0.6,1.7-1.6,1.7s-1.6-0.6-1.6-1.7V337.2
						z M486.8,339.5v1.2c0,0.5,0.2,0.7,0.6,0.7s0.6-0.2,0.6-0.7v-1.2c0-0.5-0.2-0.7-0.6-0.7S486.8,339,486.8,339.5z"/>
					<path class="st14" d="M492.7,335.5v0.9l-1.6,5.8h-1.1l1.6-5.8h-2.1v-1H492.7z"/>
					<path class="st14" d="M495,342.3c-1.1,0-1.7-0.6-1.7-1.7v-0.5c0-0.6,0.2-1.1,0.7-1.4v0c-0.4-0.2-0.7-0.7-0.7-1.4v-0.2
						c0-1.1,0.6-1.7,1.7-1.7c1.1,0,1.7,0.6,1.7,1.7v0.2c0,0.7-0.2,1.1-0.7,1.4v0c0.5,0.3,0.7,0.8,0.7,1.4v0.5
						C496.6,341.7,496,342.3,495,342.3z M494.4,337.5c0,0.5,0.3,0.7,0.6,0.7c0.3,0,0.6-0.2,0.6-0.7v-0.4c0-0.6-0.3-0.8-0.6-0.8
						c-0.3,0-0.6,0.2-0.6,0.8V337.5z M495,341.4c0.3,0,0.6-0.2,0.6-0.8V340c0-0.5-0.2-0.8-0.6-0.8c-0.4,0-0.6,0.2-0.6,0.8v0.6
						C494.4,341.2,494.6,341.4,495,341.4z"/>
					<path class="st14" d="M503.8,337.1c0-0.6-0.2-0.8-0.6-0.8c-0.3,0-0.6,0.2-0.6,0.7v0.4h-1v-0.4c0-1.1,0.5-1.7,1.6-1.7
						s1.6,0.6,1.6,1.7v0.2c0,0.7-0.2,1.2-0.7,1.4v0c0.5,0.2,0.7,0.7,0.7,1.4v0.5c0,1.1-0.5,1.7-1.6,1.7s-1.6-0.6-1.6-1.7v-0.6h1v0.6
						c0,0.5,0.2,0.7,0.6,0.7c0.3,0,0.6-0.2,0.6-0.8v-0.5c0-0.6-0.2-0.9-0.7-0.9h-0.4v-1h0.4c0.4,0,0.6-0.2,0.6-0.7V337.1z"/>
					<path class="st14" d="M505.3,340.1l1.9-4.6h1.2v4.6h0.5v1h-0.5v1.2h-1.1V341h-2V340.1z M507.4,340.1v-2.5h0l-1,2.5H507.4z"/>
					<path class="st14" d="M510.4,340.1v0.6c0,0.5,0.2,0.7,0.6,0.7s0.6-0.2,0.6-0.7v-1.5c0-0.5-0.2-0.7-0.6-0.7s-0.6,0.2-0.6,0.7
						v0.2h-1l0.2-3.9h2.8v1h-1.9l-0.1,1.6h0c0.2-0.3,0.5-0.5,0.9-0.5c0.8,0,1.2,0.6,1.2,1.5v1.5c0,1.1-0.5,1.7-1.6,1.7
						c-1,0-1.6-0.6-1.6-1.7v-0.6H510.4z"/>
					<path class="st14" d="M513.2,337.2c0-1.1,0.5-1.8,1.6-1.8c1,0,1.6,0.6,1.6,1.7v0.2h-1V337c0-0.5-0.2-0.7-0.6-0.7
						c-0.4,0-0.6,0.2-0.6,0.8v1.2h0c0.2-0.4,0.5-0.6,1-0.6c0.8,0,1.2,0.6,1.2,1.5v1.2c0,1.1-0.6,1.7-1.6,1.7c-1,0-1.6-0.6-1.6-1.7
						V337.2z M514.2,339.5v1.2c0,0.5,0.2,0.7,0.6,0.7c0.3,0,0.6-0.2,0.6-0.7v-1.2c0-0.5-0.2-0.7-0.6-0.7
						C514.5,338.8,514.2,339,514.2,339.5z"/>
				</g>
			</g>
			<g class="st1">
				<g>
					<path class="st33" d="M483.1,428.5c1.3,1.5,1.8,3.3,1.6,5.3l0,0c-0.2,2-1,3.6-2.6,4.9l-22.8,19.1h21.3v7.2c-1,0-2-0.1-3.2-0.1
						c0,0,0,0-0.1,0h-14.9c-4.3,0-8,1.4-11.1,4.3c-0.2,0.2-0.4,0.3-0.6,0.5c-3.2,3.2-4.8,7.1-4.8,11.6l0,0c0,4.5,1.6,8.4,4.8,11.6
						c3.2,3.2,7.1,4.8,11.6,4.8h14.9c1.1,0,2.2-0.1,3.2-0.3c-0.2,1.3-0.7,2.4-1.7,3.3c-1.2,1.2-2.6,1.7-4.2,1.7H411
						c-1.6,0-3-0.6-4.2-1.7c-1.2-1.2-1.7-2.6-1.7-4.2v-45.3c0-1.4,0.4-2.7,1.3-3.7c0.1-0.2,0.3-0.3,0.4-0.5c0.9-0.9,1.9-1.4,3.1-1.6
						c0.4-0.7,1-1.4,1.7-2l43.8-36.8c1.5-1.3,3.3-1.8,5.3-1.6c2,0.2,3.6,1,4.9,2.5L483.1,428.5z M479.8,435.8
						c0.8-0.6,1.2-1.4,1.3-2.4l0,0c0.1-1-0.2-1.8-0.8-2.6l-9.2-11l-45.2,37.9h27.9L479.8,435.8z M460.3,408.7
						c-1-0.1-1.9,0.2-2.6,0.8l-43.8,36.8c-0.8,0.6-1.2,1.4-1.3,2.4l0,0c-0.1,1,0.2,1.8,0.8,2.6l1.2,1.4l49.3-41.3l-1.2-1.4
						C462.1,409.2,461.3,408.7,460.3,408.7z M453.7,473.2L453.7,473.2c0.8-0.8,1.6-1.4,2.4-1.9c1.8-1,3.7-1.6,5.9-1.6h14.8
						c2.3,0.1,4.2,0.2,5.7,0.2c0.4,0,0.8-0.1,1.2-0.3c0.4-0.2,0.7-0.5,0.9-0.9c0.2-0.4,0.3-0.8,0.3-1.2v-6.1c0.7,0.2,1.4,0.6,2,1.2
						c0.8,0.8,1.3,1.8,1.4,2.9c0,0.1,0,0.1,0,0.2v18.5c-0.5,2.1-1.5,3.9-3.1,5.5c-2.3,2.3-5.1,3.4-8.3,3.4H462c-3.2,0-6-1.1-8.3-3.4
						s-3.4-5.1-3.4-8.3l0,0C450.3,478.3,451.4,475.5,453.7,473.2z M480.7,450.9c0,0.1,0,0.2,0,0.3h-9.5l6.3-5.3
						c0.5,0.3,1,0.6,1.5,1.1C480.1,448.1,480.6,449.4,480.7,450.9z M454.2,481.6c0,1,0.4,1.9,1.1,2.7c0.7,0.7,1.6,1.1,2.7,1.1
						s1.9-0.4,2.7-1.1c0.7-0.7,1.1-1.6,1.1-2.7s-0.4-1.9-1.1-2.7c-0.7-0.7-1.6-1.1-2.7-1.1s-1.9,0.4-2.7,1.1
						C454.6,479.7,454.2,480.6,454.2,481.6z"/>
				</g>
			</g>
		</g>
	</g>
</g>
</svg>
