<?xml version="1.0" encoding="utf-8"?>
<!-- Generator: Adobe Illustrator 21.0.0, SVG Export Plug-In . SVG Version: 6.00 Build 0)  -->
<svg version="1.1" id="Layer_1" xmlns="http://www.w3.org/2000/svg" xmlns:xlink="http://www.w3.org/1999/xlink" x="0px" y="0px"
	 viewBox="0 0 612 612" style="enable-background:new 0 0 612 612;" xml:space="preserve">
<style type="text/css">
	.st0{fill:#263A44;}
	.st1{clip-path:url(#SVGID_3_);}
	.st2{opacity:0.2;}
	.st3{fill:#603917;}
	.st4{fill:#FFFFFF;}
	.st5{fill:#656768;}
	.st6{fill:none;stroke:#FFFFFF;stroke-width:2.3931;stroke-miterlimit:10;}
	.st7{fill:#72CACF;}
	.st8{fill:none;stroke:#FFFFFF;stroke-width:2;stroke-miterlimit:10;}
	.st9{opacity:0.3;}
	.st10{opacity:0.3;fill:#FFFFFF;enable-background:new    ;}
	.st11{opacity:0.5;fill:#FFFFFF;enable-background:new    ;}
	.st12{fill:#F3C69F;}
	.st13{fill:#F05A49;}
</style>
<g>
	<g>
		<circle id="SVGID_1_" class="st0" cx="306" cy="305.4" r="306"/>
	</g>
	<g>
		<defs>
			<circle id="SVGID_2_" cx="306" cy="305.4" r="306"/>
		</defs>
		<clipPath id="SVGID_3_">
			<use xlink:href="#SVGID_2_"  style="overflow:visible;"/>
		</clipPath>
		<g class="st1">
			<g class="st2">
				<g>
					<g>
						<path class="st3" d="M502.5,404.5c0,5.2-3.2,8.5-7.9,8.5H154c-4.7,0-8.5-3.3-8.5-8.5V148c0-5.2,3.8-10,8.5-10h340.6
							c4.7,0,7.9,4.9,7.9,10V404.5z"/>
						<g>
							<rect x="163" y="158.7" class="st3" width="322" height="226"/>
						</g>
						<g>
							<polygon class="st3" points="163,384.4 163,158.7 485.1,158.7 							"/>
						</g>
					</g>
					<g>
						<g>
							<path class="st3" d="M145.7,305.5c0,0-48.3,11.1-52.6,66.7v129.3h71v-17.7c0,0,30-1.3,19.9-146.3c0,0-14.5-5.2-22.3,36.1
								l-2.9,38.8c0,0-13.6,17.8-13.2-75.9C145.6,327.8,145.3,316.4,145.7,305.5z"/>
						</g>
						<rect x="87.7" y="491.6" class="st3" width="84.1" height="89.5"/>
					</g>
					<g>
						<g>
							<path class="st3" d="M503.6,305.5c0,0,48,11.1,52.4,66.7v129.3h-71v-17.7c0,0-29.7-1.3-19.7-146.3c0,0,14.6-5.2,22.4,36.1
								l3.1,38.8c0,0,13.5,17.8,13.1-75.9C503.8,327.8,504,316.4,503.6,305.5z"/>
						</g>
						<rect x="479.6" y="491.6" class="st3" width="81.9" height="81.9"/>
					</g>
				</g>
			</g>
			<g>
				<g>
					<path class="st4" d="M490.5,404.5c0,5.2-3.8,8.5-8.4,8.5H141.5c-4.7,0-7.9-3.3-7.9-8.5V148c0-5.2,3.2-10,7.9-10h340.6
						c4.7,0,8.4,4.9,8.4,10V404.5z"/>
					<rect x="150.8" y="159" class="st5" width="321.6" height="225.3"/>
				</g>
				<g id="Shape_9_6_">
					<g>
						<rect x="151" y="159.1" class="st4" width="320.6" height="224.5"/>
					</g>
				</g>
				<line class="st6" x1="327.8" y1="287.1" x2="451.5" y2="287.1"/>
				<line class="st6" x1="327.8" y1="303.1" x2="451.5" y2="303.1"/>
				<line class="st6" x1="327.8" y1="321.2" x2="451.5" y2="321.2"/>
				<line class="st6" x1="327.8" y1="339.1" x2="451.5" y2="339.1"/>
				<rect x="151" y="159.1" class="st7" width="320.6" height="20.5"/>
				<rect x="151" y="182.8" class="st0" width="93.8" height="200.9"/>
				<circle class="st4" cx="166.9" cy="197.8" r="7.8"/>
				<line class="st8" x1="184.2" y1="197.8" x2="234.8" y2="197.8"/>
				<circle class="st4" cx="166.9" cy="223.1" r="7.8"/>
				<line class="st8" x1="184.2" y1="223.1" x2="234.8" y2="223.1"/>
				<circle class="st4" cx="166.9" cy="247.9" r="7.8"/>
				<line class="st8" x1="184.2" y1="247.9" x2="234.8" y2="247.9"/>
				<circle class="st4" cx="166.9" cy="272.6" r="7.8"/>
				<line class="st8" x1="184.2" y1="272.6" x2="234.8" y2="272.6"/>
				<circle class="st4" cx="166.9" cy="295.4" r="7.8"/>
				<line class="st8" x1="184.2" y1="295.4" x2="234.8" y2="295.4"/>
				<rect x="250.8" y="187.2" class="st7" width="210.1" height="5.6"/>
				<circle class="st7" cx="286.1" cy="235.8" r="28.5"/>
				<g id="charts_24_">
					<path class="st4" d="M299.8,247.6v-17.2c0-0.3-0.2-0.5-0.5-0.5h-4.8c-0.3,0-0.5,0.2-0.5,0.5v17.2h-1.2v-25.5
						c0-0.3-0.2-0.5-0.5-0.5h-4.8c-0.3,0-0.5,0.2-0.5,0.5v25.5h-1.2v-12.6c0-0.3-0.2-0.5-0.5-0.5h-4.8c-0.3,0-0.5,0.2-0.5,0.5v12.4
						h-1.2v-5.3c0-0.3-0.2-0.5-0.5-0.5h-4.8c-0.3,0-0.5,0.2-0.5,0.5v0.5v4.8h-2.4v2.4h32.1v-1.2v-1.2h-2.5V247.6z"/>
				</g>
				<circle class="st7" cx="356.1" cy="235.8" r="28.5"/>
				<g id="stats_13_">
					<g>
						<path class="st4" d="M368.6,226.9c1.6,0,2.9-1.3,2.9-2.9s-1.3-2.9-2.9-2.9s-2.9,1.3-2.9,2.9c0,0.8,0.2,1.4,0.7,1.9l-3.9,6
							c-0.3-0.1-0.5-0.1-0.9-0.1c-1.6,0-2.9,1.3-2.9,2.9c0,0.1,0,0.2,0,0.3l-5.6,2.4c-0.5-0.7-1.3-1-2.2-1c-1.6,0-2.9,1.3-2.9,2.9
							c0,0.5,0.2,1.1,0.4,1.5l-5.2,6v-26h-1.2h-1.2v29.7h1.2h28.5v-1.2v-1.2h-26.1l5.3-6.2c0.3,0.1,0.8,0.2,1.2,0.2
							c1.6,0,2.9-1.3,2.9-2.9c0-0.1,0-0.2,0-0.3l5.6-2.5c0.5,0.5,1.3,1,2.2,1c1.6,0,2.9-1.3,2.9-2.9c0-0.7-0.2-1.3-0.5-1.7l4-6
							C368,226.8,368.3,226.9,368.6,226.9z"/>
					</g>
					<g class="st9">
						<path class="st4" d="M344.9,244.7H343v-1.2h2.9L344.9,244.7z M346.6,239.9H343v-1.2h3.6v-3.6H343V234h3.6v-3.6H343v-1.2h3.6
							v-3.6H343v-1.2h3.6v-3.5h1.2v3.6h3.6v-3.6h1.2v3.6h3.6v-3.6h1.2v3.6h3.6v-3.6h1.2v3.6h3.6V224c0,0.8,0.2,1.4,0.7,1.9l-0.7,1.1
							v-1.2h-3.6v3.6h2l-0.8,1.2h-1.2v1.3c-0.2,0-0.4-0.1-0.5-0.1c-0.2,0-0.4,0-0.5,0.1v-1.3h-3.8v3.6h1.2c0,0.2-0.1,0.4-0.1,0.7
							c0,0.1,0,0.2,0,0.3l-0.4,0.2h-0.7v0.3l-1.2,0.5v-1.1h-3.6v1.9c-0.3-0.2-0.8-0.4-1.2-0.5v-1.3h-3.6v3.6h0.1
							c0,0.2-0.1,0.4-0.1,0.7c0,0.2,0,0.4,0.1,0.5h-0.1v1.4l-1.2,1.4v-2.8H346.6z M357.3,229.2h3.6v-3.6h-3.6V229.2z M352.5,229.2
							h3.6v-3.6h-3.6V229.2z M352.5,234h3.6v-3.6h-3.6V234z M347.8,229.2h3.6v-3.6h-3.6V229.2z M347.8,234h3.6v-3.6h-3.6V234z
							 M366.8,221.6v-0.7h-1.2v2.9C365.6,222.9,366,222.1,366.8,221.6z M366.8,229.2h3.6v1.2h-3.6v3.6h3.6v1.2h-3.6v3.6h3.6v1.2
							h-3.6v3.6h3.6v1.2h-3.6v3.6h-1.2v-3.6H362v3.6h-1.2v-3.6h-3.5v3.6h-1.2v-3.6h-3.6v3.6h-1.2v-3.6h-3.6v3.6h-1.2v-2.7l1.7-2h3.1
							v-1.2c0.4-0.1,0.9-0.3,1.2-0.5v1.7h3.6v-3.6h-2.4c0-0.2,0.1-0.3,0.1-0.5c0-0.1,0-0.2,0-0.3l0.7-0.3h1.7v-0.8l1.2-0.5v1.3h3.6
							v-1.2c0.2,0,0.4,0.1,0.5,0.1c0.1,0,0.4,0,0.5-0.1v1.2h3.6v-3.8h-1.2c0-0.2,0.1-0.3,0.1-0.5s0-0.4-0.1-0.7h1.3v-3.6h-0.2
							l1.4-2.1v1H366.8z M360.8,239.9h-3.5v3.6h3.6v-3.6H360.8z M365.6,239.9H362v3.6h3.6V239.9z"/>
					</g>
				</g>
				<circle class="st7" cx="426" cy="235.8" r="28.5"/>
				<g id="pie_x5F_chart_21_">
					<g>
						<path class="st4" d="M411.5,235.2c0-7.3,6-13.2,13.3-13.2c3.7,0,7,1.5,9.4,3.9l-9.4,9.4v13.2
							C417.6,248.4,411.5,242.5,411.5,235.2z"/>
					</g>
					<path class="st10" d="M427.2,235.2l9.4-9.4c5.1,5.1,5.1,13.5,0,18.8L427.2,235.2z"/>
					<path class="st11" d="M425.9,236.3v13.2c3.6,0,6.8-1.3,9.4-3.9L425.9,236.3z"/>
				</g>
				<g>
					<rect x="268.3" y="272.6" class="st7" width="36.7" height="3.6"/>
					<rect x="254.9" y="285.4" class="st7" width="62.6" height="3.9"/>
					<rect x="254.9" y="294.9" class="st7" width="62.6" height="3.9"/>
					<rect x="254.9" y="304.5" class="st7" width="62.6" height="3.9"/>
					<rect x="254.9" y="314" class="st7" width="62.6" height="3.9"/>
					<rect x="254.9" y="323.6" class="st7" width="62.6" height="3.9"/>
				</g>
				<g>
					<rect x="338.3" y="272.6" class="st7" width="36.7" height="3.6"/>
					<rect x="324.8" y="285.4" class="st7" width="62.6" height="3.9"/>
					<rect x="324.8" y="294.9" class="st7" width="62.6" height="3.9"/>
					<rect x="324.8" y="304.5" class="st7" width="62.6" height="3.9"/>
					<rect x="324.8" y="314" class="st7" width="62.6" height="3.9"/>
					<rect x="324.8" y="323.6" class="st7" width="62.6" height="3.9"/>
				</g>
				<g>
					<rect x="408.2" y="272.6" class="st7" width="36.7" height="3.6"/>
					<rect x="394.6" y="285.4" class="st7" width="62.6" height="3.9"/>
					<rect x="394.6" y="294.9" class="st7" width="62.6" height="3.9"/>
					<rect x="394.6" y="304.5" class="st7" width="62.6" height="3.9"/>
					<rect x="394.6" y="314" class="st7" width="62.6" height="3.9"/>
					<rect x="394.6" y="323.6" class="st7" width="62.6" height="3.9"/>
				</g>
				<circle class="st4" cx="459.2" cy="169.2" r="4.7"/>
				<circle class="st4" cx="440" cy="169.2" r="4.7"/>
				<circle class="st4" cx="420.7" cy="169.2" r="4.7"/>
				<rect x="244.8" y="349.9" class="st7" width="226.9" height="4.6"/>
				<rect x="151" y="159.4" class="st0" width="22.7" height="20.3"/>
				<g>
					<rect x="154.6" y="163.3" class="st4" width="15.4" height="2.4"/>
					<rect x="154.6" y="168.4" class="st4" width="15.4" height="2.4"/>
					<rect x="154.6" y="173.5" class="st4" width="15.4" height="2.4"/>
				</g>
				<g>
					<path class="st12" d="M491.2,305.5c0,0,48.1,11.1,52.5,66.7v129.5h-71.2v-17.9c0,0-29.8-1.3-19.7-146.3c0,0,14.6-5.2,22.4,36.1
						l3.1,38.8c0,0,13.5,17.8,13.1-75.9C491.3,327.8,491.6,316.4,491.2,305.5z"/>
					<rect x="466.5" y="491.6" class="st13" width="83" height="87.3"/>
				</g>
				<g>
					<path class="st12" d="M133.2,305.5c0,0-48.1,11.1-52.5,66.7v129.5h71.2v-17.9c0,0,29.8-1.3,19.7-146.3c0,0-14.6-5.2-22.4,36.1
						l-3.1,38.8c0,0-13.5,17.8-13.1-75.9C133.1,327.8,132.7,316.4,133.2,305.5z"/>
					<rect x="74.6" y="491.6" class="st13" width="84.1" height="89.5"/>
				</g>
			</g>
		</g>
	</g>
</g>
</svg>
