<?xml version="1.0" encoding="utf-8"?>
<!-- Generator: Adobe Illustrator 20.0.0, SVG Export Plug-In . SVG Version: 6.00 Build 0)  -->
<svg version="1.1" id="Layer_1" xmlns="http://www.w3.org/2000/svg" xmlns:xlink="http://www.w3.org/1999/xlink" x="0px" y="0px"
	 viewBox="0 0 612 612" style="enable-background:new 0 0 612 612;" xml:space="preserve">
<style type="text/css">
	.st0{fill:#2DADB6;}
	.st1{opacity:0.8;fill:#116161;enable-background:new    ;}
	.st2{fill:#FFFFFF;}
	.st3{fill:#357D88;}
	.st4{fill:url(#SVGID_1_);}
</style>
<g>
	<g>
		<ellipse class="st0" cx="306" cy="307" rx="303.4" ry="304.7"/>
		<g>
			<path class="st1" d="M42.1,226.9c12.6-0.8,23.5,8.7,24.4,21.4c0.8,12.7-8.7,23.6-21.3,24.5c-12.6,0.8-23.5-8.7-24.4-21.4
				C19.9,238.7,29.5,227.8,42.1,226.9z"/>
			<path class="st2" d="M42.3,229.7c11.1-0.7,20.7,7.7,21.4,18.8c0.7,11.1-7.6,20.7-18.7,21.5c-11.1,0.7-20.7-7.7-21.4-18.8
				S31.2,230.5,42.3,229.7z"/>
			<polygon class="st1" points="73,201.1 61.1,235 47.6,228.6 43.3,228.3 			"/>
			<polygon class="st2" points="69.3,206.9 57.4,236.7 46.3,231.1 45.3,230.3 			"/>
		</g>
		<path class="st2" d="M519.3,450.6h7.9c0.7,0,1.3-0.6,1.3-1.3s-0.6-1.3-1.3-1.3h-7.9c-0.7,0-1.3,0.6-1.3,1.3
			S518.6,450.6,519.3,450.6z M503.6,450.6h7.9c0.7,0,1.3-0.6,1.3-1.3s-0.6-1.3-1.3-1.3h-7.9c-0.7,0-1.3,0.6-1.3,1.3
			S502.8,450.6,503.6,450.6z M487.8,450.6h7.9c0.7,0,1.3-0.6,1.3-1.3s-0.6-1.3-1.3-1.3h-7.9c-0.7,0-1.3,0.6-1.3,1.3
			S487.1,450.6,487.8,450.6z M472.1,450.6h7.9c0.7,0,1.3-0.6,1.3-1.3s-0.6-1.3-1.3-1.3h-7.9c-0.7,0-1.3,0.6-1.3,1.3
			S471.4,450.6,472.1,450.6z M456.4,450.6h7.9c0.7,0,1.3-0.6,1.3-1.3s-0.6-1.3-1.3-1.3h-7.9c-0.7,0-1.3,0.6-1.3,1.3
			S455.6,450.6,456.4,450.6z M440.6,450.6h7.9c0.7,0,1.3-0.6,1.3-1.3s-0.6-1.3-1.3-1.3h-7.9c-0.7,0-1.3,0.6-1.3,1.3
			S439.9,450.6,440.6,450.6z M424.9,450.6h7.9c0.7,0,1.3-0.6,1.3-1.3s-0.6-1.3-1.3-1.3h-7.9c-0.7,0-1.3,0.6-1.3,1.3
			S424.2,450.6,424.9,450.6z M409.2,450.6h7.9c0.7,0,1.3-0.6,1.3-1.3s-0.6-1.3-1.3-1.3h-7.9c-0.7,0-1.3,0.6-1.3,1.3
			S408.4,450.6,409.2,450.6z M393.4,450.6h7.9c0.7,0,1.3-0.6,1.3-1.3s-0.6-1.3-1.3-1.3h-7.9c-0.7,0-1.3,0.6-1.3,1.3
			S392.7,450.6,393.4,450.6z M377.7,450.6h7.9c0.7,0,1.3-0.6,1.3-1.3s-0.6-1.3-1.3-1.3h-7.9c-0.7,0-1.3,0.6-1.3,1.3
			S377,450.6,377.7,450.6z M362,450.6h7.9c0.7,0,1.3-0.6,1.3-1.3s-0.6-1.3-1.3-1.3H362c-0.7,0-1.3,0.6-1.3,1.3
			S361.2,450.6,362,450.6z M346.2,450.6h7.9c0.7,0,1.3-0.6,1.3-1.3s-0.6-1.3-1.3-1.3h-7.9c-0.7,0-1.3,0.6-1.3,1.3
			S345.5,450.6,346.2,450.6z M330.5,450.6h7.9c0.7,0,1.3-0.6,1.3-1.3s-0.6-1.3-1.3-1.3h-7.9c-0.7,0-1.3,0.6-1.3,1.3
			S329.8,450.6,330.5,450.6z M314.8,450.6h7.9c0.7,0,1.3-0.6,1.3-1.3s-0.6-1.3-1.3-1.3h-7.9c-0.7,0-1.3,0.6-1.3,1.3
			S314,450.6,314.8,450.6z M299,450.6h7.9c0.7,0,1.3-0.6,1.3-1.3s-0.6-1.3-1.3-1.3H299c-0.7,0-1.3,0.6-1.3,1.3
			S298.3,450.6,299,450.6z M284,451.9c2.1-0.8,4.3-1.3,6.7-1.3h0.5c0.7,0,1.3-0.6,1.3-1.3s-0.6-1.3-1.3-1.3h-0.5
			c-2.7,0-5.3,0.5-7.7,1.5c-0.7,0.3-1,1-0.7,1.7C282.5,451.9,283.3,452.2,284,451.9z M273.8,462.1c0.9-2.3,2.3-4.4,4-6.1
			c0.5-0.5,0.5-1.3,0-1.9c-0.5-0.5-1.3-0.5-1.9,0c-2,2-3.6,4.3-4.6,6.9c-0.3,0.7,0,1.4,0.7,1.7C272.8,463.1,273.5,462.8,273.8,462.1
			z M272.4,477.1v-7.9c0-0.7-0.6-1.3-1.3-1.3s-1.3,0.6-1.3,1.3v7.9c0,0.7,0.6,1.3,1.3,1.3S272.4,477.9,272.4,477.1z M272.4,493v-7.9
			c0-0.7-0.6-1.3-1.3-1.3s-1.3,0.6-1.3,1.3v7.9c0,0.7,0.6,1.3,1.3,1.3S272.4,493.7,272.4,493z M266.4,508.2c1.9-2,3.5-4.4,4.5-7
			c0.3-0.7-0.1-1.4-0.7-1.7c-0.7-0.3-1.4,0.1-1.7,0.7c-0.9,2.3-2.3,4.4-4,6.1c-0.5,0.5-0.5,1.4,0,1.9
			C265.1,508.8,265.9,508.8,266.4,508.2z M251.4,514.7c2.9,0,5.6-0.6,8.2-1.7c0.7-0.3,1-1.1,0.7-1.7c-0.3-0.7-1.1-1-1.7-0.7
			c-2.2,1-4.6,1.5-7.1,1.5c-0.7,0-1.3,0.6-1.3,1.3C250.1,514.1,250.7,514.7,251.4,514.7z M235.7,514.7h7.9c0.7,0,1.3-0.6,1.3-1.3
			s-0.6-1.3-1.3-1.3h-7.9c-0.7,0-1.3,0.6-1.3,1.3S235,514.7,235.7,514.7z M220,514.7h7.9c0.7,0,1.3-0.6,1.3-1.3s-0.6-1.3-1.3-1.3
			H220c-0.7,0-1.3,0.6-1.3,1.3S219.2,514.7,220,514.7z M204.2,514.7h7.9c0.7,0,1.3-0.6,1.3-1.3s-0.6-1.3-1.3-1.3h-7.9
			c-0.7,0-1.3,0.6-1.3,1.3S203.5,514.7,204.2,514.7z M188.2,513.5c2.2,0.8,4.6,1.2,7,1.2h1.1c0.7,0,1.3-0.6,1.3-1.3
			s-0.6-1.3-1.3-1.3h-1.1c-2.1,0-4.2-0.4-6.2-1.1c-0.7-0.2-1.4,0.1-1.7,0.8C187.1,512.5,187.5,513.2,188.2,513.5z M176,502.6
			c1.2,2.5,3,4.8,5.1,6.6c0.5,0.5,1.4,0.4,1.9-0.1s0.4-1.4-0.1-1.9c-1.8-1.6-3.4-3.6-4.4-5.8c-0.3-0.7-1.1-0.9-1.8-0.6
			C175.9,501.1,175.6,501.9,176,502.6z M173.9,486.6v7c0,0.3,0,0.6,0,0.9c0,0.7,0.6,1.3,1.4,1.3c0.7,0,1.3-0.6,1.3-1.4
			c0-0.3,0-0.5,0-0.8v-7c0-0.7-0.6-1.3-1.3-1.3S173.9,485.8,173.9,486.6z M173.9,470.7v7.9c0,0.7,0.6,1.3,1.3,1.3s1.3-0.6,1.3-1.3
			v-7.9c0-0.7-0.6-1.3-1.3-1.3S173.9,470,173.9,470.7z M169.4,456.9c1.6,1.8,2.8,4,3.6,6.4c0.2,0.7,1,1.1,1.7,0.8
			c0.7-0.2,1.1-1,0.8-1.7c-0.9-2.7-2.3-5.2-4.1-7.3c-0.5-0.6-1.3-0.6-1.9-0.1C169,455.5,168.9,456.3,169.4,456.9z M156.6,450.7
			c2.5,0.1,4.9,0.7,7,1.8c0.7,0.3,1.4,0,1.8-0.6c0.3-0.7,0-1.4-0.6-1.8c-2.5-1.2-5.2-1.9-8.1-2.1c-0.7,0-1.3,0.5-1.4,1.3
			C155.3,450,155.9,450.6,156.6,450.7z M140.9,450.6h7.9c0.7,0,1.3-0.6,1.3-1.3s-0.6-1.3-1.3-1.3h-7.9c-0.7,0-1.3,0.6-1.3,1.3
			S140.2,450.6,140.9,450.6z M125.2,450.6h7.9c0.7,0,1.3-0.6,1.3-1.3s-0.6-1.3-1.3-1.3h-7.9c-0.7,0-1.3,0.6-1.3,1.3
			S124.4,450.6,125.2,450.6z M109.4,450.6h7.9c0.7,0,1.3-0.6,1.3-1.3s-0.6-1.3-1.3-1.3h-7.9c-0.7,0-1.3,0.6-1.3,1.3
			S108.7,450.6,109.4,450.6z M93.6,447.4c2.3,1.5,5,2.5,7.8,3c0.7,0.1,1.4-0.4,1.5-1.1c0.1-0.7-0.4-1.4-1.1-1.5
			c-2.5-0.4-4.8-1.3-6.8-2.6c-0.6-0.4-1.4-0.2-1.8,0.4C92.8,446.2,93,447,93.6,447.4z M84.3,433.8c0.6,2.8,1.7,5.4,3.3,7.6
			c0.4,0.6,1.2,0.7,1.8,0.3c0.6-0.4,0.7-1.2,0.3-1.8c-1.4-2-2.4-4.2-2.9-6.7c-0.2-0.7-0.8-1.2-1.6-1
			C84.6,432.4,84.1,433.1,84.3,433.8z M83.8,417.9v7.9c0,0.7,0.6,1.3,1.3,1.3c0.7,0,1.3-0.6,1.3-1.3v-7.9c0-0.7-0.6-1.3-1.3-1.3
			C84.4,416.6,83.8,417.1,83.8,417.9z M83.8,402v7.9c0,0.7,0.6,1.3,1.3,1.3c0.7,0,1.3-0.6,1.3-1.3V402c0-0.7-0.6-1.3-1.3-1.3
			S83.8,401.3,83.8,402z M84.7,385.9c-0.6,1.9-0.9,3.9-0.9,5.9v2.2c0,0.7,0.6,1.3,1.3,1.3c0.7,0,1.3-0.6,1.3-1.3v-2.2
			c0-1.8,0.3-3.5,0.7-5.2c0.2-0.7-0.2-1.4-0.9-1.6C85.6,384.8,84.9,385.2,84.7,385.9z M95,373.3c-2.5,1.3-4.7,3.1-6.4,5.3
			c-0.5,0.6-0.4,1.4,0.2,1.8c0.6,0.5,1.4,0.4,1.8-0.2c1.6-1.9,3.5-3.5,5.6-4.6c0.6-0.3,0.9-1.1,0.5-1.8
			C96.4,373.2,95.6,372.9,95,373.3z M111,370.8h-6.1c-0.6,0-1.2,0-1.8,0.1c-0.7,0.1-1.3,0.7-1.2,1.4c0.1,0.7,0.7,1.3,1.4,1.2
			c0.5,0,1.1-0.1,1.6-0.1h6.1c0.7,0,1.3-0.6,1.3-1.3S111.7,370.8,111,370.8z M126.7,370.8h-7.9c-0.7,0-1.3,0.6-1.3,1.3
			s0.6,1.3,1.3,1.3h7.9c0.7,0,1.3-0.6,1.3-1.3S127.4,370.8,126.7,370.8z M142.4,370.8h-7.9c-0.7,0-1.3,0.6-1.3,1.3s0.6,1.3,1.3,1.3
			h7.9c0.7,0,1.3-0.6,1.3-1.3S143.2,370.8,142.4,370.8z M158.2,370.8h-7.9c-0.7,0-1.3,0.6-1.3,1.3s0.6,1.3,1.3,1.3h7.9
			c0.7,0,1.3-0.6,1.3-1.3S158.9,370.8,158.2,370.8z M173.9,370.8H166c-0.7,0-1.3,0.6-1.3,1.3s0.6,1.3,1.3,1.3h7.9
			c0.7,0,1.3-0.6,1.3-1.3S174.6,370.8,173.9,370.8z M189.6,370.8h-7.9c-0.7,0-1.3,0.6-1.3,1.3s0.6,1.3,1.3,1.3h7.9
			c0.7,0,1.3-0.6,1.3-1.3S190.4,370.8,189.6,370.8z M205.4,370.8h-7.9c-0.7,0-1.3,0.6-1.3,1.3s0.6,1.3,1.3,1.3h7.9
			c0.7,0,1.3-0.6,1.3-1.3S206.1,370.8,205.4,370.8z M221.1,370.8h-7.9c-0.7,0-1.3,0.6-1.3,1.3s0.6,1.3,1.3,1.3h7.9
			c0.7,0,1.3-0.6,1.3-1.3S221.8,370.8,221.1,370.8z M236.8,370.8H229c-0.7,0-1.3,0.6-1.3,1.3s0.6,1.3,1.3,1.3h7.9
			c0.7,0,1.3-0.6,1.3-1.3S237.6,370.8,236.8,370.8z M252.6,370.8h-7.9c-0.7,0-1.3,0.6-1.3,1.3s0.6,1.3,1.3,1.3h7.9
			c0.7,0,1.3-0.6,1.3-1.3S253.3,370.8,252.6,370.8z M268.3,370.8h-7.9c-0.7,0-1.3,0.6-1.3,1.3s0.6,1.3,1.3,1.3h7.9
			c0.7,0,1.3-0.6,1.3-1.3S269,370.8,268.3,370.8z M284,370.8h-7.9c-0.7,0-1.3,0.6-1.3,1.3s0.6,1.3,1.3,1.3h7.9
			c0.7,0,1.3-0.6,1.3-1.3S284.8,370.8,284,370.8z M299.8,370.8h-7.9c-0.7,0-1.3,0.6-1.3,1.3s0.6,1.3,1.3,1.3h7.9
			c0.7,0,1.3-0.6,1.3-1.3S300.5,370.8,299.8,370.8z M315.5,370.8h-7.9c-0.7,0-1.3,0.6-1.3,1.3s0.6,1.3,1.3,1.3h7.9
			c0.7,0,1.3-0.6,1.3-1.3S316.2,370.8,315.5,370.8z M331.2,370.8h-7.9c-0.7,0-1.3,0.6-1.3,1.3s0.6,1.3,1.3,1.3h7.9
			c0.7,0,1.3-0.6,1.3-1.3S332,370.8,331.2,370.8z M345,366.4c-1.8,1.6-4,2.8-6.3,3.6c-0.7,0.2-1.1,1-0.9,1.6c0.2,0.7,1,1.1,1.6,0.9
			c2.7-0.9,5.2-2.3,7.3-4.1c0.5-0.5,0.6-1.3,0.1-1.9C346.4,366,345.5,365.9,345,366.4z M351.3,353.5c-0.2,2.5-0.8,4.9-1.9,7.1
			c-0.3,0.7-0.1,1.4,0.6,1.8c0.7,0.3,1.4,0.1,1.8-0.6c1.2-2.5,1.9-5.2,2.1-8.1c0-0.7-0.5-1.3-1.2-1.4
			C351.9,352.2,351.3,352.8,351.3,353.5z M351.7,337.5c-0.2,1.2-0.4,2.5-0.4,3.8v4.3c0,0.7,0.6,1.3,1.3,1.3s1.3-0.6,1.3-1.3v-4.3
			c0-1.1,0.1-2.2,0.3-3.3c0.1-0.7-0.3-1.4-1-1.5C352.5,336.3,351.8,336.8,351.7,337.5z M360.6,323.8c-2.3,1.6-4.3,3.6-5.8,6
			c-0.4,0.6-0.2,1.4,0.4,1.8s1.4,0.2,1.8-0.4c1.3-2.1,3.1-3.8,5.1-5.2c0.6-0.4,0.7-1.2,0.3-1.8C362,323.6,361.2,323.4,360.6,323.8z
			 M376.3,320h-3.7c-1.5,0-3,0.2-4.4,0.5c-0.7,0.2-1.2,0.9-1,1.6s0.9,1.2,1.6,1c1.3-0.3,2.5-0.4,3.9-0.4h3.7c0.7,0,1.3-0.6,1.3-1.3
			S377.1,320,376.3,320z M392.1,320h-7.9c-0.7,0-1.3,0.6-1.3,1.3s0.6,1.3,1.3,1.3h7.9c0.7,0,1.3-0.6,1.3-1.3S392.8,320,392.1,320z
			 M407.8,320h-7.9c-0.7,0-1.3,0.6-1.3,1.3s0.6,1.3,1.3,1.3h7.9c0.7,0,1.3-0.6,1.3-1.3S408.5,320,407.8,320z M423.5,320h-7.9
			c-0.7,0-1.3,0.6-1.3,1.3s0.6,1.3,1.3,1.3h7.9c0.7,0,1.3-0.6,1.3-1.3S424.3,320,423.5,320z M439.3,320h-7.9c-0.7,0-1.3,0.6-1.3,1.3
			s0.6,1.3,1.3,1.3h7.9c0.7,0,1.3-0.6,1.3-1.3S440,320,439.3,320z M455,320h-7.9c-0.7,0-1.3,0.6-1.3,1.3s0.6,1.3,1.3,1.3h7.9
			c0.7,0,1.3-0.6,1.3-1.3S455.7,320,455,320z M470.7,320h-7.9c-0.7,0-1.3,0.6-1.3,1.3s0.6,1.3,1.3,1.3h7.9c0.7,0,1.3-0.6,1.3-1.3
			S471.5,320,470.7,320z M486.5,320h-7.9c-0.7,0-1.3,0.6-1.3,1.3s0.6,1.3,1.3,1.3h7.9c0.7,0,1.3-0.6,1.3-1.3S487.2,320,486.5,320z
			 M502.2,320h-7.9c-0.7,0-1.3,0.6-1.3,1.3s0.6,1.3,1.3,1.3h7.9c0.7,0,1.3-0.6,1.3-1.3S502.9,320,502.2,320z M517.6,319.5
			c-1.4,0.3-2.8,0.5-4.3,0.5h-3.2c-0.7,0-1.3,0.6-1.3,1.3s0.6,1.3,1.3,1.3h3.2c1.7,0,3.3-0.2,4.9-0.6c0.7-0.2,1.1-0.9,1-1.6
			C519,319.8,518.3,319.3,517.6,319.5z M529,310.9c-1.2,2.1-2.9,4-4.8,5.4c-0.6,0.4-0.7,1.3-0.3,1.8c0.4,0.6,1.3,0.7,1.8,0.3
			c2.2-1.7,4.1-3.8,5.5-6.2c0.4-0.6,0.1-1.4-0.5-1.8C530.2,310,529.4,310.2,529,310.9z M531.4,296.2v5.5c0,0.7,0,1.5-0.1,2.2
			c-0.1,0.7,0.4,1.4,1.2,1.5c0.7,0.1,1.4-0.4,1.5-1.2c0.1-0.8,0.1-1.6,0.1-2.5v-5.5c0-0.7-0.6-1.3-1.3-1.3S531.4,295.5,531.4,296.2z
			 M531.4,280.4v7.9c0,0.7,0.6,1.3,1.3,1.3s1.3-0.6,1.3-1.3v-7.9c0-0.7-0.6-1.3-1.3-1.3S531.4,279.7,531.4,280.4z M531.4,264.6v7.9
			c0,0.7,0.6,1.3,1.3,1.3s1.3-0.6,1.3-1.3v-7.9c0-0.7-0.6-1.3-1.3-1.3S531.4,263.9,531.4,264.6z M531.4,248.8v7.9
			c0,0.7,0.6,1.3,1.3,1.3s1.3-0.6,1.3-1.3v-7.9c0-0.7-0.6-1.3-1.3-1.3S531.4,248.1,531.4,248.8z M531.4,233v7.9
			c0,0.7,0.6,1.3,1.3,1.3s1.3-0.6,1.3-1.3V233c0-0.7-0.6-1.3-1.3-1.3S531.4,232.3,531.4,233z M531.4,217.2v7.9
			c0,0.7,0.6,1.3,1.3,1.3s1.3-0.6,1.3-1.3v-7.9c0-0.7-0.6-1.3-1.3-1.3S531.4,216.5,531.4,217.2z M531.4,201.4v7.9
			c0,0.7,0.6,1.3,1.3,1.3s1.3-0.6,1.3-1.3v-7.9c0-0.7-0.6-1.3-1.3-1.3S531.4,200.7,531.4,201.4z M531.4,185.6v7.9
			c0,0.7,0.6,1.3,1.3,1.3s1.3-0.6,1.3-1.3v-7.9c0-0.7-0.6-1.3-1.3-1.3S531.4,184.9,531.4,185.6z M527.3,171.6
			c1.5,1.9,2.7,4.1,3.3,6.5c0.2,0.7,0.9,1.1,1.6,0.9c0.7-0.2,1.1-0.9,0.9-1.6c-0.8-2.7-2.1-5.2-3.8-7.4c-0.5-0.6-1.3-0.7-1.8-0.2
			C527,170.2,526.9,171,527.3,171.6z M514.8,164.9c2.5,0.2,4.9,0.9,7,2c0.6,0.3,1.4,0.1,1.8-0.5c0.3-0.6,0.1-1.4-0.5-1.8
			c-2.4-1.3-5.1-2.1-8-2.3c-0.7-0.1-1.4,0.5-1.4,1.2C513.5,164.2,514,164.8,514.8,164.9z M499.1,164.8h7.9c0.7,0,1.3-0.6,1.3-1.3
			s-0.6-1.3-1.3-1.3h-7.9c-0.7,0-1.3,0.6-1.3,1.3S498.4,164.8,499.1,164.8z M483.4,164.8h7.9c0.7,0,1.3-0.6,1.3-1.3
			s-0.6-1.3-1.3-1.3h-7.9c-0.7,0-1.3,0.6-1.3,1.3S482.7,164.8,483.4,164.8z M467.7,164.8h7.9c0.7,0,1.3-0.6,1.3-1.3
			s-0.6-1.3-1.3-1.3h-7.9c-0.7,0-1.3,0.6-1.3,1.3S466.9,164.8,467.7,164.8z M452.3,165.4c1.5-0.4,3-0.6,4.6-0.6h2.9
			c0.7,0,1.3-0.6,1.3-1.3s-0.6-1.3-1.3-1.3h-2.9c-1.8,0-3.6,0.2-5.3,0.7c-0.7,0.2-1.1,0.9-0.9,1.6
			C450.9,165.2,451.6,165.6,452.3,165.4z M441.1,174.2c1.2-2.2,2.8-4,4.7-5.5c0.6-0.4,0.7-1.3,0.2-1.8c-0.4-0.6-1.3-0.7-1.8-0.2
			c-2.2,1.7-4,3.9-5.4,6.3c-0.4,0.6-0.1,1.4,0.5,1.8C439.9,175.1,440.7,174.9,441.1,174.2z M438.7,189v-5.6c0-0.7,0-1.4,0.1-2.1
			s-0.4-1.4-1.2-1.5c-0.7-0.1-1.4,0.4-1.5,1.2c-0.1,0.8-0.1,1.6-0.1,2.4v5.6c0,0.7,0.6,1.3,1.3,1.3
			C438.1,190.3,438.7,189.7,438.7,189z M434.8,204.8c1.6-2.2,2.8-4.8,3.4-7.6c0.2-0.7-0.3-1.4-1-1.6s-1.4,0.3-1.6,1
			c-0.5,2.4-1.6,4.7-3,6.6c-0.4,0.6-0.3,1.4,0.3,1.8C433.6,205.5,434.4,205.4,434.8,204.8z M420.9,213.4c2.8-0.5,5.5-1.5,7.8-2.9
			c0.6-0.4,0.8-1.2,0.4-1.8c-0.4-0.6-1.2-0.8-1.8-0.4c-2.1,1.3-4.4,2.2-6.8,2.6c-0.7,0.1-1.2,0.8-1.1,1.5
			C419.5,213,420.2,213.5,420.9,213.4z M405,213.7h7.9c0.7,0,1.3-0.6,1.3-1.3c0-0.7-0.6-1.3-1.3-1.3H405c-0.7,0-1.3,0.6-1.3,1.3
			C403.7,213.1,404.3,213.7,405,213.7z M389.2,213.7h7.9c0.7,0,1.3-0.6,1.3-1.3c0-0.7-0.6-1.3-1.3-1.3h-7.9c-0.7,0-1.3,0.6-1.3,1.3
			C387.9,213.1,388.5,213.7,389.2,213.7z M373.3,211.3c2.4,1.3,5.1,2.1,8,2.3c0.7,0.1,1.4-0.5,1.4-1.2c0.1-0.7-0.5-1.4-1.2-1.4
			c-2.5-0.2-4.9-0.9-7-2c-0.6-0.3-1.4-0.1-1.8,0.6C372.4,210.2,372.6,211,373.3,211.3z M362.7,198.7c0.8,2.7,2.2,5.2,4,7.3
			c0.5,0.6,1.3,0.6,1.9,0.2c0.6-0.5,0.6-1.3,0.2-1.9c-1.6-1.9-2.8-4-3.5-6.4c-0.2-0.7-1-1.1-1.6-0.9
			C362.9,197.3,362.5,198,362.7,198.7z M361.8,182.7v7.9c0,0.7,0.6,1.3,1.3,1.3c0.7,0,1.3-0.6,1.3-1.3v-7.9c0-0.7-0.6-1.3-1.3-1.3
			C362.4,181.3,361.8,181.9,361.8,182.7z M361.8,166.8v7.9c0,0.7,0.6,1.3,1.3,1.3c0.7,0,1.3-0.6,1.3-1.3v-7.9c0-0.7-0.6-1.3-1.3-1.3
			S361.8,166.1,361.8,166.8z M361.8,151v7.9c0,0.7,0.6,1.3,1.3,1.3c0.7,0,1.3-0.6,1.3-1.3V151c0-0.7-0.6-1.3-1.3-1.3
			C362.4,149.7,361.8,150.3,361.8,151z M361.8,135.3v7.9c0,0.7,0.6,1.3,1.3,1.3c0.7,0,1.3-0.6,1.3-1.3v-7.9c0-0.7-0.6-1.3-1.3-1.3
			C362.4,133.9,361.8,134.5,361.8,135.3z M359.7,120.4c1.1,2.1,1.8,4.5,2.1,7c0.1,0.7,0.7,1.3,1.4,1.2c0.7-0.1,1.3-0.7,1.2-1.4
			c-0.3-2.9-1.1-5.6-2.4-8c-0.3-0.6-1.1-0.9-1.8-0.5C359.6,119,359.4,119.8,359.7,120.4z M348.6,111.4c2.4,0.7,4.6,1.8,6.5,3.4
			c0.6,0.5,1.4,0.4,1.8-0.2c0.5-0.6,0.4-1.4-0.2-1.8c-2.1-1.7-4.7-3.1-7.4-3.8c-0.7-0.2-1.4,0.2-1.6,0.9
			C347.5,110.5,347.9,111.2,348.6,111.4z M333.3,110.7h7.9c0.7,0,1.3-0.6,1.3-1.3c0-0.7-0.6-1.3-1.3-1.3h-7.9
			c-0.7,0-1.3,0.6-1.3,1.3C332,110.2,332.6,110.7,333.3,110.7z M317.6,110.7h7.9c0.7,0,1.3-0.6,1.3-1.3c0-0.7-0.6-1.3-1.3-1.3h-7.9
			c-0.7,0-1.3,0.6-1.3,1.3C316.3,110.2,316.8,110.7,317.6,110.7z M301.8,110.7h7.9c0.7,0,1.3-0.6,1.3-1.3c0-0.7-0.6-1.3-1.3-1.3
			h-7.9c-0.7,0-1.3,0.6-1.3,1.3C300.5,110.2,301.1,110.7,301.8,110.7z M286.1,110.7h7.9c0.7,0,1.3-0.6,1.3-1.3
			c0-0.7-0.6-1.3-1.3-1.3h-7.9c-0.7,0-1.3,0.6-1.3,1.3C284.8,110.2,285.4,110.7,286.1,110.7z M270.4,110.7h7.9
			c0.7,0,1.3-0.6,1.3-1.3c0-0.7-0.6-1.3-1.3-1.3h-7.9c-0.7,0-1.3,0.6-1.3,1.3C269.1,110.2,269.6,110.7,270.4,110.7z M254.6,110.7
			h7.9c0.7,0,1.3-0.6,1.3-1.3c0-0.7-0.6-1.3-1.3-1.3h-7.9c-0.7,0-1.3,0.6-1.3,1.3C253.3,110.2,253.9,110.7,254.6,110.7z
			 M238.9,110.7h7.9c0.7,0,1.3-0.6,1.3-1.3c0-0.7-0.6-1.3-1.3-1.3h-7.9c-0.7,0-1.3,0.6-1.3,1.3C237.6,110.2,238.2,110.7,238.9,110.7
			z M223.2,110.8c0.3,0,0.5,0,0.8,0h7c0.7,0,1.3-0.6,1.3-1.3c0-0.7-0.6-1.3-1.3-1.3h-7c-0.3,0-0.6,0-0.9,0c-0.7,0-1.3,0.6-1.3,1.4
			C221.9,110.2,222.5,110.8,223.2,110.8z M210.2,116.8c1.7-1.8,3.7-3.3,5.9-4.3c0.7-0.3,0.9-1.1,0.6-1.7c-0.3-0.7-1.1-0.9-1.7-0.6
			c-2.5,1.2-4.8,2.9-6.7,4.9c-0.5,0.5-0.5,1.4,0.1,1.9C208.9,117.4,209.7,117.4,210.2,116.8z M205.4,130.4V129c0-2.1,0.4-4.1,1-6
			c0.2-0.7-0.1-1.4-0.8-1.7c-0.7-0.2-1.4,0.1-1.7,0.8c-0.8,2.2-1.2,4.5-1.2,6.9v1.3c0,0.7,0.6,1.3,1.3,1.3
			C204.8,131.8,205.4,131.2,205.4,130.4z M205.4,146.2v-7.9c0-0.7-0.6-1.3-1.3-1.3s-1.3,0.6-1.3,1.3v7.9c0,0.7,0.6,1.3,1.3,1.3
			C204.8,147.5,205.4,146.9,205.4,146.2z M205.4,161.3v-7.9c0-0.7-0.6-1.3-1.3-1.3s-1.3,0.6-1.3,1.3v7.9c0,0.7,0.6,1.3,1.3,1.3
			C204.8,162.6,205.4,162,205.4,161.3z M205.4,177.4v-7.9c0-0.7-0.6-1.3-1.3-1.3s-1.3,0.6-1.3,1.3v7.9c0,0.7,0.6,1.3,1.3,1.3
			C204.8,178.7,205.4,178.1,205.4,177.4z M205.4,191.4v-7.9c0-0.7-0.6-1.3-1.3-1.3s-1.3,0.6-1.3,1.3v7.9c0,0.7,0.6,1.3,1.3,1.3
			C204.8,192.7,205.4,192.1,205.4,191.4z M205.4,205.5v-7.9c0-0.7-0.6-1.3-1.3-1.3s-1.3,0.6-1.3,1.3v7.9c0,0.7,0.6,1.3,1.3,1.3
			C204.8,206.8,205.4,206.2,205.4,205.5z M199.7,221.7c1.9-2,3.4-4.4,4.4-7.1c0.2-0.7-0.1-1.4-0.8-1.7c-0.7-0.2-1.4,0.1-1.7,0.8
			c-0.9,2.3-2.2,4.4-3.8,6.2c-0.5,0.5-0.5,1.4,0.1,1.9C198.4,222.3,199.3,222.3,199.7,221.7z M184.8,228.4c2.9,0,5.7-0.6,8.2-1.7
			c0.7-0.3,1-1.1,0.7-1.7c-0.3-0.7-1.1-1-1.7-0.7c-2.2,1-4.6,1.5-7.1,1.5c-0.7,0-1.3,0.6-1.3,1.3
			C183.5,227.8,184.1,228.4,184.8,228.4z M169,228.4h7.9c0.7,0,1.3-0.6,1.3-1.3c0-0.7-0.6-1.3-1.3-1.3H169c-0.7,0-1.3,0.6-1.3,1.3
			S168.3,228.4,169,228.4z M153.3,228.4h7.9c0.7,0,1.3-0.6,1.3-1.3c0-0.7-0.6-1.3-1.3-1.3h-7.9c-0.7,0-1.3,0.6-1.3,1.3
			S152.6,228.4,153.3,228.4z M137.6,228.4h7.9c0.7,0,1.3-0.6,1.3-1.3c0-0.7-0.6-1.3-1.3-1.3h-7.9c-0.7,0-1.3,0.6-1.3,1.3
			S136.9,228.4,137.6,228.4z M121.8,228.4h7.9c0.7,0,1.3-0.6,1.3-1.3c0-0.7-0.6-1.3-1.3-1.3h-7.9c-0.7,0-1.3,0.6-1.3,1.3
			C120.5,227.8,121.1,228.4,121.8,228.4z M106.1,228.4h7.9c0.7,0,1.3-0.6,1.3-1.3c0-0.7-0.6-1.3-1.3-1.3h-7.9
			c-0.7,0-1.3,0.6-1.3,1.3C104.8,227.8,105.4,228.4,106.1,228.4z M90.4,228.4h7.9c0.7,0,1.3-0.6,1.3-1.3c0-0.7-0.6-1.3-1.3-1.3h-7.9
			c-0.7,0-1.3,0.6-1.3,1.3S89.7,228.4,90.4,228.4z"/>
		<path class="st1" d="M41.1,251.4c0,0.9-0.7,1.7-1.7,1.7c-0.9,0-1.7-0.7-1.7-1.7c0-1,0.7-1.7,1.7-1.7
			C40.3,249.8,41.1,250.5,41.1,251.4z M47.8,249.8c-0.9,0-1.7,0.7-1.7,1.7c0,0.9,0.7,1.7,1.7,1.7c0.9,0,1.7-0.7,1.7-1.7
			C49.4,250.5,48.7,249.8,47.8,249.8z M59.7,250.5v3.1c0,1.6-1.3,2.9-2.9,2.9h-2.1c-2.1,5.7-7.3,9.2-11.2,9.2s-9.1-3.5-11.2-9.2
			h-2.1c-1.6,0-2.9-1.3-2.9-2.9v-3.1c0-1.1,0.6-2,1.5-2.5c0-4.5,1.3-8,3.9-10.4c2.5-2.4,6.1-3.6,10.8-3.6s8.2,1.2,10.8,3.6
			c2.5,2.4,3.8,5.9,3.9,10.4C59.1,248.5,59.7,249.4,59.7,250.5z M53.7,251.5c0-0.7,0-1.4-0.1-2.1c-1.3-1.2-3.6-2-6.5-2.4
			c0.4,0.4,0.7,1,0.9,1.7c-1.8-1.4-5.3-1.1-7.9-4.2c-0.2-0.2-0.3-0.3-0.4-0.5l0,0l0,0c-0.5-0.6-0.6-1-0.6-0.6
			c-0.1,3.6-2.6,6.4-5.5,6.8c0,0.4,0,0.8,0,1.2c0,1.5,0.2,2.9,0.7,4.2c1.6,1.9,4.2,2.5,6.6,2.6c0.4-0.7,1.4-1.2,2.5-1.2
			c1.5,0,2.8,0.9,2.8,2s-1.2,2-2.8,2c-1.2,0-2.2-0.5-2.6-1.3c-1.6-0.1-3.4-0.4-5-1.1c2.2,3.3,5.7,5.1,7.9,5.1
			C47,263.7,53.7,259.4,53.7,251.5z M56.5,247.7c-0.2-7.8-4.6-12-12.9-12s-12.7,4.1-12.9,12h1.1c0.4-2.6,1.3-4.8,2.5-6.5
			c2.1-2.6,5.2-4,9.3-4s7.2,1.3,9.3,4c1.3,1.7,2.1,3.8,2.5,6.5H56.5L56.5,247.7z"/>
		<g>
			<ellipse class="st1" cx="311.6" cy="268.7" rx="40.2" ry="40.4"/>
			<ellipse class="st2" cx="311.6" cy="268.7" rx="35.3" ry="35.5"/>
			<polygon class="st1" points="231.5,321.8 276.3,281.6 289.5,299 			"/>
			<polygon class="st1" points="397.8,254.3 347.9,255.7 347.8,279 			"/>
			<polygon class="st2" points="380.6,258 338.6,262.5 338.1,279.2 			"/>
			<polygon class="st2" points="284.5,281.6 252,309.2 293.7,288.5 			"/>
		</g>
		<path class="st1" d="M320.8,270.1c-0.2,0.8-1,1.4-1.8,1.4c-0.2,0-0.3,0-0.5-0.1l-6.2-1.7c-0.8-0.2-1.4-1-1.4-1.8v-9.5
			c0-1.1,0.8-1.9,1.9-1.9s1.9,0.8,1.9,1.9v8l4.8,1.3C320.5,268.1,321.1,269.1,320.8,270.1z M313.3,249.1c-6.7,0-12.6,3.6-15.8,8.9
			l2,4.7c2-5.7,7.5-9.8,13.9-9.8c8.1,0,14.8,6.6,14.8,14.9c0,5.8-3.4,10.8-8.2,13.3v4.2c7.1-2.6,12.1-9.4,12.1-17.5
			C331.9,257.4,323.6,249.1,313.3,249.1z M314.2,287.6c-2.3,2.3-10.9,0.1-19.4-8.4c-8.5-8.5-10.7-17.2-8.4-19.5c2-2,4.4-5.5,8.1-0.9
			c3.7,4.5,1.9,5.8-0.2,7.9c-1.4,1.4,1.6,5.1,4.7,8.2s6.8,6.2,8.2,4.7c2.1-2.1,3.3-3.9,7.9-0.2C319.7,283.2,316.2,285.6,314.2,287.6
			z M291.3,261.2l-1.6-2.4c0,0,0,0-0.1,0.1c0,0-0.1,0.1-0.2,0.2c-0.2,0.1-0.5,0.4-0.8,0.7c-0.2,0.2-0.3,0.4-0.5,0.6
			s-0.3,0.5-0.5,0.8c-0.1,0.3-0.2,0.6-0.3,0.9c-0.1,0.3-0.1,0.6-0.1,0.9s0,0.6,0.1,0.9c0,0.3,0.1,0.5,0.2,0.8
			c0.2,0.5,0.4,0.9,0.6,1.3s0.4,0.6,0.5,0.8c0.1,0.2,0.2,0.3,0.2,0.3s0-0.1-0.1-0.4c0-0.2-0.1-0.5-0.2-0.9s-0.1-0.8-0.1-1.3
			c0-0.2,0-0.5,0.1-0.7s0.1-0.4,0.2-0.6s0.2-0.4,0.3-0.5c0.1-0.2,0.2-0.3,0.4-0.4c0.1-0.1,0.3-0.2,0.4-0.3c0.1-0.1,0.3-0.2,0.4-0.2
			c0.3-0.1,0.5-0.2,0.8-0.3C291.1,261.3,291.2,261.3,291.3,261.2C291.3,261.3,291.3,261.2,291.3,261.2z M314.9,284.3l-2.5-1.4
			c0,0,0,0.1-0.1,0.3c-0.1,0.2-0.2,0.5-0.3,0.7c-0.2,0.6-0.7,1.2-1.4,1.6l-0.3,0.1l-0.3,0.1c-0.2,0.1-0.4,0.1-0.7,0.1
			c-0.2,0-0.4,0-0.7,0c-0.2,0-0.4,0-0.6,0c-0.4,0-0.7-0.1-0.9-0.1c-0.2,0-0.4-0.1-0.4-0.1s0.1,0.1,0.3,0.2c0.2,0.1,0.5,0.3,0.8,0.4
			c0.2,0.1,0.4,0.2,0.6,0.2c0.2,0.1,0.5,0.2,0.7,0.2c0.3,0,0.5,0.1,0.8,0.1h0.4h0.4c0.3,0,0.6-0.1,0.9-0.2s0.6-0.2,0.8-0.4
			c0.3-0.1,0.5-0.3,0.7-0.5s0.4-0.3,0.6-0.5c0.3-0.3,0.6-0.6,0.7-0.8C314.8,284.4,314.9,284.3,314.9,284.3z"/>
		<path class="st1" d="M327.7,426.9v-36.2c0-2,1.6-3.6,3.6-3.6h36c2,0,3.6,1.6,3.6,3.6v36.2c0,0.7-0.5,1.2-1.2,1.2h-40.9
			C328.2,428.1,327.7,427.5,327.7,426.9z M356.8,439.3c0,4.2-3.4,7.5-7.5,7.5c-4.2,0-7.5-3.4-7.5-7.5c0-4.2,3.4-7.5,7.5-7.5
			S356.8,435,356.8,439.3z M353,439.3c0-2.1-1.7-3.8-3.8-3.8s-3.8,1.7-3.8,3.8c0,2.1,1.7,3.8,3.8,3.8S353,441.4,353,439.3z
			 M342.8,431.7h-16.9c-0.7,0-1.2,0.5-1.2,1.2v3.7c0,0.7,0.5,1.2,1.2,1.2h13.5C339.8,435.3,341,433.2,342.8,431.7z M396.1,439.3
			c0,4.2-3.4,7.5-7.5,7.5c-4.2,0-7.5-3.4-7.5-7.5c0-4.2,3.4-7.5,7.5-7.5C392.8,431.7,396.1,435,396.1,439.3z M392.4,439.3
			c0-2.1-1.7-3.8-3.8-3.8s-3.8,1.7-3.8,3.8c0,2.1,1.7,3.8,3.8,3.8S392.4,441.4,392.4,439.3z M409.4,432.9v3.7c0,0.7-0.5,1.2-1.2,1.2
			h-9.8c-0.7-4.8-4.8-8.5-9.8-8.5s-9.1,3.7-9.8,8.5h-19.7c-0.4-2.4-1.6-4.6-3.3-6.1h18.7V397c0-1.3,1.1-2.4,2.4-2.4h11.4
			c3.2,0,6.2,1.6,8,4.3l7.4,10.9c1.1,1.6,1.7,3.5,1.7,5.4v16.5h2.9C408.9,431.7,409.4,432.2,409.4,432.9z M397.2,410l-5.9-8.4
			c-0.2-0.3-0.6-0.5-1-0.5h-9.2c-0.7,0-1.2,0.5-1.2,1.2v8.4c0,0.7,0.5,1.2,1.2,1.2h15.1C397.1,412,397.7,410.8,397.2,410z"/>
		<path class="st1" d="M244.4,86.9V50.7c0-2,1.6-3.6,3.6-3.6h36c2,0,3.6,1.6,3.6,3.6v36.2c0,0.7-0.5,1.2-1.2,1.2h-40.9
			C244.9,88.1,244.4,87.6,244.4,86.9z M273.5,99.2c0,4.2-3.4,7.5-7.5,7.5c-4.2,0-7.5-3.4-7.5-7.5s3.4-7.5,7.5-7.5
			S273.5,95.1,273.5,99.2z M269.7,99.2c0-2.1-1.7-3.8-3.8-3.8s-3.8,1.7-3.8,3.8c0,2.1,1.7,3.8,3.8,3.8S269.7,101.3,269.7,99.2z
			 M259.5,91.7h-16.9c-0.7,0-1.2,0.5-1.2,1.2v3.7c0,0.7,0.5,1.2,1.2,1.2h13.5C256.5,95.4,257.7,93.2,259.5,91.7z M312.8,99.2
			c0,4.2-3.4,7.5-7.5,7.5c-4.2,0-7.5-3.4-7.5-7.5s3.4-7.5,7.5-7.5C309.5,91.7,312.8,95.1,312.8,99.2z M309.1,99.2
			c0-2.1-1.7-3.8-3.8-3.8s-3.8,1.7-3.8,3.8c0,2.1,1.7,3.8,3.8,3.8S309.1,101.3,309.1,99.2z M326.1,92.9v3.7c0,0.7-0.5,1.2-1.2,1.2
			h-9.8c-0.7-4.8-4.8-8.5-9.8-8.5s-9.1,3.7-9.8,8.5h-19.7c-0.4-2.4-1.6-4.6-3.3-6.1h18.7V56.9c0-1.3,1.1-2.4,2.4-2.4H305
			c3.2,0,6.2,1.6,8,4.3l7.4,10.9c1.1,1.6,1.7,3.5,1.7,5.4v16.5h2.9C325.6,91.7,326.1,92.3,326.1,92.9z M313.9,70l-5.9-8.4
			c-0.2-0.3-0.6-0.5-1-0.5h-9.2c-0.7,0-1.2,0.5-1.2,1.2v8.4c0,0.7,0.5,1.2,1.2,1.2h15.1C313.9,72,314.4,70.8,313.9,70z"/>
		<path class="st2" d="M509.3,371.1H507l0.7-2.3c0.2-0.7,0.5-2,0.5-2l0,0c0,0,0.3,1.3,0.5,2L509.3,371.1z M498,368
			c0-0.9-0.3-1.4-1.8-1.4h-1v2.8h1.2C497.4,369.5,498,368.9,498,368z M484.3,373.4c1.7,0,3.1-1.5,3.1-3.5c0-1.9-1.4-3.3-3.1-3.3
			s-3.1,1.4-3.1,3.3C481.2,371.9,482.6,373.4,484.3,373.4z M527.4,380.2v5.2h3.2c4.4,0,7.9,3.5,7.9,7.9v56.9h-15.2v-46.7h-54.2v46.7
			h-14.3v-56.9c0-4.4,3.5-7.9,7.9-7.9h3.2v-5.2h-7.1c-2.2,0-3.9-1.8-3.9-3.9v-12.6c0-2.2,1.8-3.9,3.9-3.9h75.9
			c2.2,0,3.9,1.8,3.9,3.9v12.6c0,2.2-1.8,3.9-3.9,3.9H527.4L527.4,380.2z M527.6,375.8h7.5v-2.4h-4.7v-2.2h3.6v-2.4h-3.6v-2.1h4.4
			v-2.4h-7.3L527.6,375.8L527.6,375.8z M502.7,375.8h2.9l0.7-2.4h3.6l0.7,2.4h2.9l-4-11.6h-3L502.7,375.8z M492.4,375.8h2.9v-3.9
			h1.3l2.1,3.9h3.2l-2.3-4.1c-0.3-0.5-0.4-0.7-0.4-0.7l0,0c1.2-0.6,1.7-1.9,1.7-3.2c0-1.7-0.8-2.9-2.2-3.4c-0.5-0.2-1.1-0.3-2.3-0.3
			h-4.1L492.4,375.8L492.4,375.8z M478.2,369.9c0,3.4,2.6,6.1,6.1,6.1s6.1-2.7,6.1-6.1c0-3.3-2.6-5.9-6.1-5.9
			S478.2,366.6,478.2,369.9z M466.7,372.4c0-3.7-5.2-3.4-5.2-4.9c0-0.7,0.7-0.9,1.2-0.9c1.4,0,2.6,1,2.6,1l1.2-2.3
			c0,0-1.2-1.3-3.7-1.3c-2.3,0-4.1,1.4-4.1,3.6c0,3.6,5.2,3.5,5.2,4.9c0,0.7-0.6,0.9-1.2,0.9c-1.5,0-2.8-1.2-2.8-1.2l-1.5,2.2
			c0,0,1.5,1.7,4.3,1.7C465.3,376,466.7,374.3,466.7,372.4z M474,366.6h3.5v-2.4h-9.9v2.4h3.5v9.2h2.9V366.6L474,366.6z
			 M518.1,380.2h-42.9v5.2h42.9V380.2z M525.2,369.2H521v2.4h1.6v0.9c0,0-1,0.8-2.4,0.8c-1.8,0-3.3-1.3-3.3-3.5c0-1.7,1-3.3,3.4-3.3
			c1.6,0,2.8,1.1,2.8,1.1l1.4-2.1c0,0-1.5-1.5-4.5-1.5c-3.6,0-6.1,2.6-6.1,6c0,3.8,2.7,6,5.7,6c1.9,0,3.1-1,3.1-1l0,0
			c0,0,0,0.2,0,0.5v0.3h2.4L525.2,369.2L525.2,369.2z M520.1,449v-2.4c0-0.7-0.6-1.3-1.3-1.3h-44.3c-0.7,0-1.3,0.6-1.3,1.3v2.4
			c0,0.7,0.6,1.3,1.3,1.3h44.3C519.5,450.3,520.1,449.7,520.1,449z M520.1,412.7v-2.4c0-0.7-0.6-1.3-1.3-1.3h-44.3
			c-0.7,0-1.3,0.6-1.3,1.3v2.4c0,0.7,0.6,1.3,1.3,1.3h44.3C519.5,414,520.1,413.4,520.1,412.7z M520.1,421.8v-2.4
			c0-0.7-0.6-1.3-1.3-1.3h-44.3c-0.7,0-1.3,0.6-1.3,1.3v2.4c0,0.7,0.6,1.3,1.3,1.3h44.3C519.5,423.1,520.1,422.5,520.1,421.8z
			 M520.1,430.8v-2.4c0-0.7-0.6-1.3-1.3-1.3h-44.3c-0.7,0-1.3,0.6-1.3,1.3v2.4c0,0.7,0.6,1.3,1.3,1.3h44.3
			C519.5,432.1,520.1,431.5,520.1,430.8z M520.1,439.9v-2.3c0-0.7-0.6-1.3-1.3-1.3h-44.3c-0.7,0-1.3,0.6-1.3,1.3v2.4
			c0,0.7,0.6,1.3,1.3,1.3h44.3C519.5,441.3,520.1,440.7,520.1,439.9z"/>
		<path class="st2" d="M171.1,163.5l-45.7-18.7c-1.6-0.6-3.3-0.6-4.9,0l-44.9,18.7c-1.2,0.5-2,1.7-2,3v6.7c0,1.8,1.4,3.2,3.2,3.2
			h2.4c0.4,0,0.8,0.4,0.8,0.8v42.7c0,4,3.2,7.2,7.2,7.2h2.1v-38.7h67.9v38.7h2.1c4,0,7.2-3.2,7.2-7.2v-42.7c0-0.4,0.4-0.8,0.8-0.8
			h2.4c1.8,0,3.2-1.4,3.2-3.2v-6.7C173.1,165.2,172.3,164,171.1,163.5z M105.8,176.3h-16v-7.2h16V176.3L105.8,176.3z M131.4,176.3
			h-16v-7.2h16V176.3z M157.1,176.3h-16v-7.2h16V176.3L157.1,176.3z M109.9,211h-4.6v6.3h-2.1V211h-4.6c-1.7,0-3,1.3-3,3v10
			c0,1.7,1.3,3,3,3h11.3c1.7,0,3-1.3,3-3v-10C112.9,212.3,111.6,211,109.9,211z M129,211h-4.6v6.3h-2.1V211h-4.6c-1.7,0-3,1.3-3,3
			v10c0,1.7,1.3,3,3,3H129c1.7,0,3-1.3,3-3v-10C132,212.3,130.7,211,129,211z M148.5,211h-4.6v6.3h-2.1V211h-4.6c-1.7,0-3,1.3-3,3
			v10c0,1.7,1.3,3,3,3h11.3c1.7,0,3-1.3,3-3v-10C151.5,212.3,150.2,211,148.5,211z M119.5,192.8H115v6.3h-2.1v-6.3h-4.6
			c-1.7,0-3,1.3-3,3v10c0,1.7,1.3,3,3,3h11.3c1.7,0,3-1.3,3-3v-10C122.5,194.2,121.2,192.8,119.5,192.8z M139.1,192.8h-4.6v6.3h-2.1
			v-6.3h-4.6c-1.7,0-3,1.3-3,3v10c0,1.7,1.3,3,3,3h11.3c1.7,0,3-1.3,3-3v-10C142.1,194.2,140.8,192.8,139.1,192.8z"/>
		<path class="st1" d="M126.5,357v3.3c0,0.6,0.5,1.1,1.1,1.1h8.9c0.6-4.3,4.4-7.7,8.9-7.7s8.3,3.4,8.9,7.7h17.9
			c0.3-2.2,1.4-4.1,3-5.5h-16.9v-31.4c0-1.2-1-2.2-2.2-2.2h-10.3c-2.9,0-5.6,1.4-7.3,3.9l-6.7,9.9c-1,1.4-1.5,3.2-1.5,4.9v15h-2.7
			C127,355.9,126.5,356.4,126.5,357z M137.6,336.3l5.3-7.6c0.2-0.3,0.5-0.5,0.9-0.5h8.3c0.6,0,1.1,0.5,1.1,1.1v7.6
			c0,0.6-0.5,1.1-1.1,1.1h-13.6C137.6,338,137.1,337,137.6,336.3z M138.5,362.7c0,3.8,3.1,6.8,6.8,6.8c3.8,0,6.8-3.1,6.8-6.8
			c0-3.8-3-6.8-6.8-6.8C141.6,355.9,138.5,358.9,138.5,362.7z M141.9,362.7c0-1.9,1.5-3.4,3.4-3.4s3.4,1.5,3.4,3.4
			c0,1.9-1.5,3.4-3.4,3.4C143.5,366.2,141.9,364.6,141.9,362.7z M202.1,355.9h-15.3c1.6,1.4,2.7,3.3,3,5.5H202
			c0.6,0,1.1-0.5,1.1-1.1V357C203.2,356.4,202.7,355.9,202.1,355.9L202.1,355.9z M174.2,362.7c0,3.8,3,6.8,6.8,6.8s6.8-3.1,6.8-6.8
			c0-3.8-3.1-6.8-6.8-6.8C177.2,355.9,174.2,358.9,174.2,362.7z M177.6,362.7c0-1.9,1.5-3.4,3.4-3.4s3.4,1.5,3.4,3.4
			c0,1.9-1.5,3.4-3.4,3.4S177.6,364.6,177.6,362.7z M161.3,318.8v32.8c0,0.6,0.5,1.1,1.1,1.1h37c0.6,0,1.1-0.5,1.1-1.1v-12.2
			c-1.7,0.5-3.5,0.8-5.4,0.8c-10.3,0-18.8-8.4-18.8-18.9c0-2,0.3-4,1-5.9h-12.7C162.8,315.4,161.3,316.8,161.3,318.8z M178.5,321.4
			c0,9.1,7.4,16.7,16.6,16.7s16.6-7.4,16.6-16.7c0-9.1-7.4-16.7-16.6-16.7S178.5,312.1,178.5,321.4z M182.3,321.4
			c0-7.1,5.7-12.9,12.8-12.9s12.8,5.7,12.8,12.9c0,7.1-5.7,12.9-12.8,12.9C188,334.1,182.3,328.4,182.3,321.4z M188.6,322.8
			c-0.2-0.9,0.3-1.8,1.2-2l4.1-1.1v-7c0-0.9,0.7-1.6,1.6-1.6s1.6,0.7,1.6,1.6v8.2c0,0.7-0.5,1.4-1.2,1.6l-5.3,1.4
			c-0.1,0-0.3,0.1-0.4,0.1C189.5,324.1,188.8,323.6,188.6,322.8z"/>
		<path class="st1" d="M502,307.2v3.3c0,0.6-0.5,1.1-1.1,1.1H492c-0.6-4.3-4.4-7.7-8.9-7.7s-8.3,3.4-8.9,7.7h-17.9
			c-0.3-2.2-1.4-4.1-3-5.5h16.9v-31.4c0-1.2,1-2.2,2.2-2.2h10.3c2.9,0,5.6,1.4,7.3,3.9l6.7,9.9c1,1.4,1.5,3.2,1.5,4.9v15h2.7
			C501.5,306.1,502,306.6,502,307.2z M490.9,286.5l-5.3-7.6c-0.2-0.3-0.5-0.5-0.9-0.5h-8.3c-0.6,0-1.1,0.5-1.1,1.1v7.6
			c0,0.6,0.5,1.1,1.1,1.1H490C490.9,288.2,491.4,287.2,490.9,286.5z M490,312.9c0,3.8-3.1,6.8-6.8,6.8c-3.8,0-6.8-3.1-6.8-6.8
			c0-3.8,3-6.8,6.8-6.8C486.9,306.1,490,309.2,490,312.9z M486.6,312.9c0-1.9-1.5-3.4-3.4-3.4s-3.4,1.5-3.4,3.4
			c0,1.9,1.5,3.4,3.4,3.4S486.6,314.8,486.6,312.9z M426.3,306.1h15.3c-1.6,1.4-2.7,3.3-3,5.5h-12.2c-0.6,0-1.1-0.5-1.1-1.1v-3.3
			C425.2,306.6,425.7,306.1,426.3,306.1L426.3,306.1z M454.3,312.9c0,3.8-3,6.8-6.8,6.8s-6.8-3.1-6.8-6.8c0-3.8,3.1-6.8,6.8-6.8
			C451.3,306.1,454.3,309.2,454.3,312.9z M450.9,312.9c0-1.9-1.5-3.4-3.4-3.4s-3.4,1.5-3.4,3.4c0,1.9,1.5,3.4,3.4,3.4
			C449.4,316.4,450.9,314.8,450.9,312.9z M467.2,268.9v32.8c0,0.6-0.5,1.1-1.1,1.1h-37c-0.6,0-1.1-0.5-1.1-1.1v-12.2
			c1.7,0.5,3.5,0.8,5.4,0.8c10.3,0,18.8-8.4,18.8-18.9c0-2-0.3-4-1-5.9h12.7C465.7,265.6,467.2,267.1,467.2,268.9z M449.9,271.6
			c0,9.1-7.4,16.7-16.6,16.7c-9.1,0-16.6-7.4-16.6-16.7c0-9.1,7.4-16.7,16.6-16.7S449.9,262.3,449.9,271.6z M446.2,271.6
			c0-7.1-5.7-12.9-12.8-12.9c-7.1,0-12.8,5.7-12.8,12.9s5.7,12.9,12.8,12.9C440.4,284.4,446.2,278.7,446.2,271.6z M439.8,273.1
			c0.2-0.9-0.3-1.8-1.2-2l-4.1-1.1v-7c0-0.9-0.7-1.6-1.6-1.6s-1.6,0.7-1.6,1.6v8.2c0,0.7,0.5,1.4,1.2,1.6l5.3,1.4
			c0.1,0,0.3,0.1,0.4,0.1C439,274.3,439.7,273.8,439.8,273.1z"/>
		<g>
			<path class="st1" d="M548.3,300.4c4.8-14.5,20.4-22.4,34.9-17.6c14.5,4.8,22.3,20.5,17.6,35c-4.8,14.5-20.4,22.4-34.9,17.6
				C551.3,330.7,543.5,315,548.3,300.4z"/>
			<path class="st2" d="M551.5,301.5c4.2-12.7,17.9-19.7,30.6-15.5c12.7,4.2,19.6,17.9,15.4,30.7c-4.2,12.7-17.9,19.7-30.6,15.5
				C554.2,328,547.3,314.3,551.5,301.5z"/>
			<polygon class="st1" points="519.7,350.2 548.2,317.6 560.4,331.1 565.1,333.3 			"/>
			<polygon class="st2" points="526.4,345.4 553.2,317.4 563,328.8 563.8,330.2 			"/>
		</g>
		<path class="st1" d="M559.1,316.4h-1.5c-0.3,0-0.5-0.2-0.5-0.5v-19.8c0-0.3,0.2-0.5,0.5-0.5h1.5c0.3,0,0.5,0.2,0.5,0.5v19.8
			C559.6,316.2,559.4,316.4,559.1,316.4z M565.3,295.6h-2.5c-0.3,0-0.5,0.2-0.5,0.5v19.8c0,0.3,0.2,0.5,0.5,0.5h2.5
			c0.3,0,0.5-0.2,0.5-0.5v-19.8C565.8,295.9,565.6,295.6,565.3,295.6z M570,295.6h-0.8c-0.3,0-0.5,0.2-0.5,0.5v19.8
			c0,0.3,0.2,0.5,0.5,0.5h0.8c0.3,0,0.5-0.2,0.5-0.5v-19.8C570.5,295.9,570.3,295.6,570,295.6z M576.3,295.6h-3.1
			c-0.3,0-0.5,0.2-0.5,0.5v10.3c1-1.5,2.5-2.7,4.2-3.5v-6.8C576.8,295.9,576.6,295.6,576.3,295.6z M580,295.6L580,295.6
			c-0.3,0-0.5,0.2-0.5,0.5v6c0.3-0.1,0.7-0.1,1-0.1v-5.9C580.5,295.9,580.3,295.6,580,295.6z M582.9,295.6h-0.3
			c-0.3,0-0.5,0.2-0.5,0.5v5.9c0.5,0,0.9,0.1,1.4,0.2V296C583.4,295.9,583.2,295.6,582.9,295.6z M586.7,295.6H585
			c-0.3,0-0.5,0.2-0.5,0.5v6.5c1,0.4,1.9,0.9,2.7,1.5v-8C587.2,295.9,587,295.6,586.7,295.6z M592.9,321.5l-4.3-4.3
			c0.9-1.4,1.4-3.1,1.4-4.9c0-5-4.1-9.1-9.1-9.1s-9.1,4.1-9.1,9.1s4.1,9.1,9.1,9.1c1.8,0,3.5-0.5,4.9-1.4l4.3,4.3
			c0.4,0.4,0.9,0.6,1.4,0.6s1-0.2,1.4-0.6C593.7,323.5,593.7,322.3,592.9,321.5z M574.8,312.2c0-3.4,2.8-6.2,6.2-6.2
			s6.2,2.8,6.2,6.2c0,3.4-2.8,6.2-6.2,6.2S574.8,315.7,574.8,312.2z"/>
		<g>
			<path class="st1" d="M395.5,506.3c2.1-14.6,15.6-24.7,30.2-22.6c14.5,2.1,24.6,15.7,22.5,30.3c-2.1,14.6-15.6,24.7-30.2,22.6
				S393.3,520.9,395.5,506.3z"/>
			<path class="st2" d="M398.7,506.8c1.9-12.8,13.7-21.6,26.4-19.8c12.7,1.9,21.5,13.8,19.7,26.5c-1.9,12.8-13.7,21.6-26.4,19.8
				S396.9,519.6,398.7,506.8z"/>
			<polygon class="st1" points="467,462 445.3,497.6 431.5,487 426.7,485.6 			"/>
			<polygon class="st2" points="461.4,467.7 440.6,498.6 429.4,489.5 428.4,488.4 			"/>
		</g>
		<path class="st3" d="M422.9,495.1h-0.7c-0.4,0-0.7-0.3-0.7-0.7l0,0c0-0.9-0.8-1.7-1.7-1.7l0,0c-0.9,0-1.7,0.8-1.7,1.7l0,0
			c0,0.4-0.3,0.7-0.7,0.7h-0.7c-0.8,0-1.4,0.6-1.4,1.4l0,0c0,0.8,0.6,1.4,1.4,1.4h6.3c0.8,0,1.4-0.6,1.4-1.4l0,0
			C424.4,495.7,423.7,495.1,422.9,495.1z M419.8,495.1c-0.4,0-0.7-0.3-0.7-0.7s0.3-0.7,0.7-0.7c0.4,0,0.7,0.3,0.7,0.7
			C420.5,494.7,420.2,495.1,419.8,495.1z M423,523.3h-12.2c-1.1,0-1.9-0.9-1.9-1.9V498c0-1.1,0.9-1.9,1.5-1.9h3.9
			c0,0.2-0.1,0.3-0.1,0.5c0,1.3,1.1,2.4,2.4,2.4h6.3c1.3,0,2.4-1.1,2.4-2.4c0-0.2,0-0.3,0-0.5h3c1.6,0,2.4,0.9,2.4,1.9v14.7
			c-0.2,0-0.3,0-0.5,0c-0.7,0-1.3,0.1-1.9,0.3v-11.4h-17v19.4h11.2C422.5,521.7,422.7,522.5,423,523.3z M430.2,514.1
			c-3.5,0-6.3,2.8-6.3,6.3s2.8,6.3,6.3,6.3s6.3-2.8,6.3-6.3S433.7,514.1,430.2,514.1z M434.3,519.1l-3.9,4.4
			c-0.2,0.2-0.5,0.3-0.7,0.3s-0.4-0.1-0.6-0.2l-2.4-1.9c-0.4-0.3-0.5-0.9-0.2-1.4c0.3-0.4,0.9-0.5,1.4-0.2l1.7,1.4l3.3-3.7
			c0.4-0.4,1-0.4,1.4-0.1S434.7,518.7,434.3,519.1z M425.8,509.7H418c-0.3,0-0.5-0.2-0.5-0.5v-0.5c0-0.3,0.2-0.5,0.5-0.5h7.8
			c0.3,0,0.5,0.2,0.5,0.5v0.5C426.3,509.5,426.1,509.7,425.8,509.7z M425.8,505.2H418c-0.3,0-0.5-0.2-0.5-0.5v-0.5
			c0-0.3,0.2-0.5,0.5-0.5h7.8c0.3,0,0.5,0.2,0.5,0.5v0.5C426.3,505,426.1,505.2,425.8,505.2z M423.4,513.6h-5.3
			c-0.3,0-0.5-0.2-0.5-0.5v-0.5c0-0.3,0.2-0.5,0.5-0.5h5.3c0.3,0,0.5,0.2,0.5,0.5v0.5C423.9,513.4,423.7,513.6,423.4,513.6z
			 M422.4,517.9H418c-0.3,0-0.5-0.2-0.5-0.5v-0.5c0-0.3,0.2-0.5,0.5-0.5h4.4c0.3,0,0.5,0.2,0.5,0.5v0.5
			C422.9,517.7,422.7,517.9,422.4,517.9z M416.7,503.5l-1.8,2c-0.1,0.1-0.2,0.1-0.3,0.1c-0.1,0-0.2,0-0.3-0.1l-1.1-0.9
			c-0.2-0.2-0.2-0.4-0.1-0.6c0.2-0.2,0.4-0.2,0.6-0.1l0.8,0.6l1.5-1.7c0.2-0.2,0.4-0.2,0.6,0C416.8,503,416.8,503.3,416.7,503.5z
			 M416.7,507.9l-1.8,2c-0.1,0.1-0.2,0.1-0.3,0.1c-0.1,0-0.2,0-0.3-0.1l-1.1-0.9c-0.2-0.2-0.2-0.4-0.1-0.6c0.2-0.2,0.4-0.2,0.6-0.1
			l0.8,0.6l1.5-1.7c0.2-0.2,0.4-0.2,0.6,0C416.8,507.4,416.8,507.7,416.7,507.9z M416.7,512l-1.8,2c-0.1,0.1-0.2,0.1-0.3,0.1
			c-0.1,0-0.2,0-0.3-0.1l-1.1-0.9c-0.2-0.2-0.2-0.4-0.1-0.6c0.2-0.2,0.4-0.2,0.6-0.1l0.8,0.6l1.5-1.7c0.2-0.2,0.4-0.2,0.6,0
			C416.8,511.5,416.8,511.8,416.7,512z M416.7,516.1l-1.8,2c-0.1,0.1-0.2,0.1-0.3,0.1c-0.1,0-0.2,0-0.3-0.1l-1.1-0.9
			c-0.2-0.2-0.2-0.4-0.1-0.6c0.2-0.2,0.4-0.2,0.6-0.1l0.8,0.6l1.5-1.7c0.2-0.2,0.4-0.2,0.6,0C416.8,515.7,416.8,516,416.7,516.1z"/>
	</g>
	<g>
		
			<radialGradient id="SVGID_1_" cx="306" cy="307.7578" r="305.3507" gradientTransform="matrix(1 0 0 -1.0043 0 615.0709)" gradientUnits="userSpaceOnUse">
			<stop  offset="0" style="stop-color:#FFFFFF;stop-opacity:0"/>
			<stop  offset="0.1272" style="stop-color:#FBFBFB;stop-opacity:3.814941e-02"/>
			<stop  offset="0.2597" style="stop-color:#EEEEEE;stop-opacity:7.791701e-02"/>
			<stop  offset="0.3948" style="stop-color:#DADAD9;stop-opacity:0.1184"/>
			<stop  offset="0.5315" style="stop-color:#BCBDBC;stop-opacity:0.1595"/>
			<stop  offset="0.6697" style="stop-color:#979796;stop-opacity:0.2009"/>
			<stop  offset="0.809" style="stop-color:#696A68;stop-opacity:0.2427"/>
			<stop  offset="0.9467" style="stop-color:#343533;stop-opacity:0.284"/>
			<stop  offset="1" style="stop-color:#1D1E1C;stop-opacity:0.3"/>
		</radialGradient>
		<ellipse class="st4" cx="306" cy="306" rx="306" ry="306"/>
	</g>
</g>
</svg>
