<?xml version="1.0" encoding="utf-8"?>
<!-- Generator: Adobe Illustrator 20.0.0, SVG Export Plug-In . SVG Version: 6.00 Build 0)  -->
<svg version="1.1" id="Layer_1" xmlns="http://www.w3.org/2000/svg" xmlns:xlink="http://www.w3.org/1999/xlink" x="0px" y="0px"
	 viewBox="0 0 612 612" style="enable-background:new 0 0 612 612;" xml:space="preserve">
<style type="text/css">
	.st0{fill:#006492;}
	.st1{fill:#CACAC9;}
	.st2{fill:#F1F1F1;}
	.st3{fill:#00445C;}
	.st4{fill:#ED2B2F;}
	.st5{fill:#F8EC1F;}
	.st6{fill:#8AC440;}
	.st7{fill:#808080;}
	.st8{fill:#F48559;}
	.st9{fill:#9FD2A3;}
	.st10{fill:#F9CC5E;}
	.st11{fill:#4D4E4E;}
	.st12{fill:none;stroke:#F1F1F1;stroke-width:3.4412;stroke-miterlimit:10;}
	.st13{fill:none;stroke:#F1F1F1;stroke-width:3.4412;stroke-miterlimit:10;stroke-dasharray:6.8523,6.8523;}
	.st14{fill:#F1AB1D;}
	.st15{fill:#51C4D2;}
	.st16{fill:#F16228;}
	.st17{fill:#4D8DB3;}
	.st18{fill:#F7A48D;}
	.st19{fill:#EC7B5C;}
	.st20{fill:#E56D4A;}
	.st21{fill:#D85430;}
	.st22{fill:#D44527;}
	.st23{fill:#FFFFFF;}
	.st24{fill:#FED500;}
	.st25{opacity:0.3;fill:#FFFFFF;enable-background:new    ;}
	.st26{opacity:0.5;fill:#FFFFFF;enable-background:new    ;}
	.st27{fill:#6FC4D1;}
	.st28{fill:#00A89C;}
	.st29{clip-path:url(#SVGID_2_);fill:#00A89C;stroke:#FFFFFF;stroke-width:3;stroke-miterlimit:10;stroke-dasharray:6.882;}
</style>
<g>
	<circle class="st0" cx="306" cy="306" r="306"/>
	<g>
		<g>
			<g>
				<rect x="252.1" y="351.8" class="st1" width="96" height="31.6"/>
				<rect x="239.8" y="376" class="st2" width="120.6" height="7.4"/>
				<path class="st2" d="M425,349.9c0,4.1-3.3,7.4-7.4,7.4h-235c-4.1,0-7.4-3.3-7.4-7.4V182.7c0-4.1,3.3-7.4,7.4-7.4h234.9
					c4.1,0,7.4,3.3,7.4,7.4v167.2H425z"/>
				<path d="M425,333.8V182.7c0-4.1-3.3-7.4-7.4-7.4h-235c-4.1,0-7.4,3.3-7.4,7.4v151.1H425z"/>
				<rect x="185.8" y="185.9" class="st3" width="228.6" height="141.6"/>
				<rect x="185.8" y="185.9" class="st1" width="228.6" height="11.8"/>
				<rect x="215" y="189" class="st2" width="170.1" height="5.5"/>
				<circle class="st4" cx="190.9" cy="191.8" r="2.7"/>
				<circle class="st5" cx="198.7" cy="191.8" r="2.7"/>
				<circle class="st6" cx="206.5" cy="191.8" r="2.7"/>
				<rect x="387.9" y="189" class="st7" width="12.8" height="0.7"/>
				<rect x="387.9" y="190.6" class="st7" width="12.8" height="0.7"/>
				<rect x="387.9" y="192.2" class="st7" width="12.8" height="0.7"/>
				<rect x="387.9" y="193.8" class="st7" width="12.8" height="0.7"/>
				<rect x="403.6" y="189" class="st7" width="7.1" height="5.5"/>
				<circle cx="300.1" cy="346.7" r="5.8"/>
			</g>
			<rect x="206.6" y="197.7" class="st2" width="186.9" height="129.8"/>
			<g>
				<g>
					<rect x="334.7" y="210.7" class="st8" width="50.6" height="30.1"/>
					<rect x="214.8" y="210.7" class="st9" width="110.5" height="30.1"/>
				</g>
				<g>
					<rect x="214.8" y="275" class="st10" width="170.3" height="30.1"/>
				</g>
				<g>
					<rect x="334.7" y="244.6" class="st11" width="50.6" height="1.4"/>
					<rect x="334.7" y="248.4" class="st11" width="50.6" height="1.4"/>
					<rect x="334.7" y="252.2" class="st11" width="50.6" height="1.4"/>
					<rect x="334.7" y="256" class="st11" width="50.6" height="1.4"/>
					<rect x="334.7" y="259.8" class="st11" width="50.6" height="1.4"/>
					<rect x="334.7" y="263.6" class="st11" width="50.6" height="1.4"/>
					<rect x="334.7" y="267.4" class="st11" width="50.6" height="1.4"/>
				</g>
				<g>
					<rect x="214.8" y="244.6" class="st11" width="110.5" height="1.4"/>
					<rect x="214.8" y="248.4" class="st11" width="110.5" height="1.4"/>
					<rect x="214.8" y="252.2" class="st11" width="110.5" height="1.4"/>
					<rect x="214.8" y="256" class="st11" width="110.5" height="1.4"/>
					<rect x="214.8" y="259.8" class="st11" width="110.5" height="1.4"/>
					<rect x="214.8" y="263.6" class="st11" width="110.5" height="1.4"/>
					<rect x="214.8" y="267.4" class="st11" width="110.5" height="1.4"/>
				</g>
				<g>
					<rect x="214.8" y="309.4" class="st11" width="170.3" height="1.4"/>
					<rect x="214.8" y="313.2" class="st11" width="170.3" height="1.4"/>
					<rect x="214.8" y="317" class="st11" width="170.3" height="1.4"/>
				</g>
			</g>
		</g>
		<g>
			<g>
				<path class="st12" d="M181,454.1c-0.9-0.7-1.8-1.4-2.7-2.1"/>
				<path class="st13" d="M172.9,447.8c-30.2-24.7-53.9-58-67.1-97.7C69.1,238.7,129.6,118.7,240.9,82
					C352.2,45.2,472.2,105.7,509,217c29.3,88.9-3.3,183.4-74.4,236.5"/>
				<path class="st12" d="M431.8,455.6c-0.9,0.7-1.9,1.3-2.8,2"/>
			</g>
		</g>
		<g>
			<g>
				<path class="st14" d="M364.4,225.6v-12.5c-6.1,0.4-10.9,5.5-10.9,11.7c0,6.5,5.2,11.7,11.7,11.7c6.2,0,11.3-4.8,11.7-10.9H364.4
					z"/>
				<path class="st15" d="M366.4,224.1h9.7c-0.3-3.7-2.4-7-5.5-8.7L366.4,224.1z"/>
				<path class="st16" d="M365.9,213.9v7.4l3.2-6.7C368.1,214.3,367,214,365.9,213.9L365.9,213.9z"/>
			</g>
		</g>
		<g>
			<rect x="218" y="233.1" class="st17" width="25.5" height="1.7"/>
			<rect x="218" y="213.2" class="st18" width="4.5" height="19.9"/>
			<rect x="223.3" y="220.7" class="st19" width="4.5" height="12.4"/>
			<rect x="228.5" y="224.9" class="st20" width="4.5" height="8.2"/>
			<rect x="233.7" y="221" class="st21" width="4.5" height="12"/>
			<rect x="239" y="224.5" class="st22" width="4.5" height="8.6"/>
		</g>
	</g>
	<g>
		<rect x="75.4" y="191.1" class="st23" width="57.3" height="36.7"/>
		<g>
			<g id="calendar_3_">
				<path class="st10" d="M69.4,182.4v48.5c0,1.7,1.4,3,3,3h63.4c1.7,0,3-1.4,3-3v-48.5H69.4z M84.5,227.8h-9.1v-9.1h9.1V227.8z
					 M84.5,215.7h-9.1v-9.1h9.1V215.7z M84.5,203.6h-9.1v-9.1h9.1V203.6z M96.5,227.8h-9.1v-9.1h9.1V227.8z M96.5,215.7h-9.1v-9.1
					h9.1V215.7z M96.5,203.6h-9.1v-9.1h9.1V203.6z M108.6,227.8h-9.1v-9.1h9.1V227.8z M108.6,215.7h-9.1v-9.1h9.1V215.7z
					 M108.6,203.6h-9.1v-9.1h9.1V203.6z M120.7,227.8h-9.1v-9.1h9.1V227.8z M120.7,215.7h-9.1v-9.1h9.1V215.7z M120.7,203.6h-9.1
					v-9.1h9.1V203.6z M132.7,227.8h-9.1v-9.1h9.1V227.8z M132.7,215.7h-9.1v-9.1h9.1V215.7z M132.7,203.6h-9.1v-9.1h9.1V203.6z
					 M138.8,170.3v9.1H69.4v-9.1c0-1.7,1.4-3,3-3h6v-3c0-1.7,1.4-3,3-3h3c1.7,0,3,1.4,3,3v3h33.2v-3c0-1.7,1.4-3,3-3h3
					c1.7,0,3,1.4,3,3v3h6C137.4,167.2,138.8,168.6,138.8,170.3z"/>
			</g>
			<rect x="87.5" y="206.6" class="st10" width="9.1" height="9.1"/>
		</g>
	</g>
	<g>
		<g>
			<g id="file_8_">
				<path class="st8" d="M293,56.8v43.6c0,0.7-0.6,1.3-1.3,1.3h-47.4c-0.7,0-1.3-0.6-1.3-1.3V39.6c0-0.7,0.6-1.3,1.3-1.3h30.3v17.2
					c0,0.7,0.6,1.3,1.3,1.3H293z M277.2,38.3v14.5c0,0.7,0.6,1.3,1.3,1.3H293L277.2,38.3z"/>
			</g>
			<g id="pie_x5F_chart_7_">
				<g>
					<path class="st24" d="M254.3,76.7c0-7,5.7-12.7,12.7-12.7c3.5,0,6.6,1.4,8.9,3.7l-9,9v12.7C260.1,89.4,254.3,83.7,254.3,76.7z"
						/>
				</g>
				<path class="st25" d="M269.2,76.7l8.9-9c4.9,5,4.9,13,0,17.9L269.2,76.7z"/>
				<path class="st26" d="M268,77.8v12.7c3.4,0,6.5-1.2,8.9-3.7L268,77.8z"/>
			</g>
		</g>
		<g>
			<g id="file_7_">
				<path class="st23" d="M268,71.8v43.6c0,0.7-0.6,1.3-1.3,1.3h-47.4c-0.7,0-1.3-0.6-1.3-1.3V54.7c0-0.7,0.6-1.3,1.3-1.3h30.3v17.2
					c0,0.7,0.6,1.3,1.3,1.3H268V71.8z M252.2,53.3v14.5c0,0.7,0.6,1.3,1.3,1.3H268L252.2,53.3z"/>
			</g>
			<g id="charts_9_">
				<path class="st8" d="M255.2,106.8V90.2c0-0.3-0.3-0.6-0.6-0.6H250c-0.3,0-0.6,0.3-0.6,0.6v16.6h-1.1V82.2c0-0.3-0.3-0.6-0.6-0.6
					h-4.6c-0.3,0-0.6,0.3-0.6,0.6v24.6h-1.1v-12c0-0.3-0.3-0.6-0.6-0.6h-4.6c-0.3,0-0.6,0.3-0.6,0.6v12h-1.1v-5.1
					c0-0.3-0.3-0.6-0.6-0.6h-4.6c-0.3,0-0.6,0.3-0.6,0.6v0.6v4.6h-2.3v2.3h30.7v-1.1V107h-1.9V106.8z"/>
			</g>
			<rect x="253.7" y="69.2" class="st23" width="14.3" height="2.6"/>
		</g>
	</g>
	<circle class="st23" cx="518.7" cy="264.3" r="26.7"/>
	<g>
		<g>
			<g>
				<path class="st23" d="M467.8,83.7"/>
			</g>
			<g>
				<path class="st23" d="M456.6,72.5"/>
			</g>
			<g>
				<path class="st23" d="M469.3,86"/>
			</g>
			<g>
				<path class="st23" d="M458.1,74.8"/>
			</g>
			<g>
				<g>
					<path class="st23" d="M461.4,83.7h8.2l-9.3-9.3v8.2C460.3,83.2,460.8,83.7,461.4,83.7z"/>
				</g>
				<g>
					<path class="st23" d="M461.4,86.3c-2.1,0-3.7-1.7-3.7-3.7v-9.1H422c-1.3,0-2.3,1-2.3,2.3V138c0,1.3,1,2.3,2.3,2.3h46.2
						c1.3,0,2.3-1,2.3-2.3V86.3H461.4z M425.8,82h27.6c0.5,0,1,0.4,1,1c0,0.5-0.4,1-1,1h-27.6c-0.5,0-1-0.4-1-1
						C424.8,82.5,425.2,82,425.8,82z M464.5,128.6h-38.8c-0.5,0-1-0.4-1-1s0.4-1,1-1h38.8c0.5,0,1,0.4,1,1
						C465.5,128.2,465.1,128.6,464.5,128.6z M464.5,121.2h-38.8c-0.5,0-1-0.4-1-1c0-0.5,0.4-1,1-1h38.8c0.5,0,1,0.4,1,1
						C465.5,120.7,465.1,121.2,464.5,121.2z M464.5,113.7h-38.8c-0.5,0-1-0.4-1-1c0-0.5,0.4-1,1-1h38.8c0.5,0,1,0.4,1,1
						C465.5,113.3,465.1,113.7,464.5,113.7z M464.5,106.3h-38.8c-0.5,0-1-0.4-1-1c0-0.5,0.4-1,1-1h38.8c0.5,0,1,0.4,1,1
						S465.1,106.3,464.5,106.3z M464.5,98.9h-38.8c-0.5,0-1-0.4-1-1c0-0.5,0.4-1,1-1h38.8c0.5,0,1,0.4,1,1
						C465.5,98.4,465.1,98.9,464.5,98.9z M464.5,91.4h-38.8c-0.5,0-1-0.4-1-1c0-0.5,0.4-1,1-1h38.8c0.5,0,1,0.4,1,1
						S465.1,91.4,464.5,91.4z"/>
				</g>
			</g>
		</g>
		<g>
			<g>
				<g>
					<path class="st27" d="M454.6,96.5"/>
				</g>
				<g>
					<path class="st27" d="M443.4,85.3"/>
				</g>
				<g>
					<path class="st27" d="M456.1,98.8"/>
				</g>
				<g>
					<path class="st27" d="M444.9,87.6"/>
				</g>
				<g>
					<g>
						<path class="st9" d="M448.2,96.5h8.2l-9.3-9.3v8.2C447.1,96,447.6,96.5,448.2,96.5z"/>
					</g>
					<g>
						<path class="st9" d="M448.2,99.1c-2.1,0-3.7-1.7-3.7-3.7v-9.1h-35.6c-1.3,0-2.3,1-2.3,2.3v62.2c0,1.3,1,2.3,2.3,2.3h46.2
							c1.3,0,2.3-1,2.3-2.3V99.1H448.2z M412.6,94.8h27.6c0.5,0,1,0.4,1,1c0,0.5-0.4,1-1,1h-27.6c-0.5,0-1-0.4-1-1
							C411.6,95.3,412,94.8,412.6,94.8z M451.3,141.4h-38.8c-0.5,0-1-0.4-1-1s0.4-1,1-1h38.8c0.5,0,1,0.4,1,1
							S451.9,141.4,451.3,141.4z M451.3,134h-38.8c-0.5,0-1-0.4-1-1c0-0.5,0.4-1,1-1h38.8c0.5,0,1,0.4,1,1
							C452.3,133.5,451.9,134,451.3,134z M451.3,126.5h-38.8c-0.5,0-1-0.4-1-1c0-0.5,0.4-1,1-1h38.8c0.5,0,1,0.4,1,1
							S451.9,126.5,451.3,126.5z M451.3,119.1h-38.8c-0.5,0-1-0.4-1-1c0-0.5,0.4-1,1-1h38.8c0.5,0,1,0.4,1,1
							S451.9,119.1,451.3,119.1z M451.3,111.7h-38.8c-0.5,0-1-0.4-1-1c0-0.5,0.4-1,1-1h38.8c0.5,0,1,0.4,1,1
							C452.3,111.2,451.9,111.7,451.3,111.7z M451.3,104.2h-38.8c-0.5,0-1-0.4-1-1c0-0.5,0.4-1,1-1h38.8c0.5,0,1,0.4,1,1
							C452.3,103.8,451.9,104.2,451.3,104.2z"/>
					</g>
				</g>
			</g>
		</g>
	</g>
	<g id="roundabout_1_">
		<path class="st28" d="M508.4,248.6c-1,0.3-13.2,3.3-15,3.7s-2.1,0.4-2.1-1.3c0.1-1.7,0.5-14.7,0.6-15.8s0.6-1.5,1.6-0.6
			s4.3,3.5,4.3,3.5c3.1-2.5,6.8-4.4,10.9-5.5c11.1-3.1,22.5,0.4,30.2,7.9l-7,4.1c-5.7-4.7-13.4-6.6-21-4.5c-2.4,0.7-4.7,1.7-6.7,3.1
			c0,0,3.7,3,4.5,3.7S509.4,248.4,508.4,248.6z M506.6,283.7c-5.8-2.9-10.4-8.1-12.2-14.7c-0.9-3.4-1.1-6.9-0.5-10.3l-7.1-4
			c-1.4,5.2-1.5,10.8,0,16.4c2.7,9.8,9.7,17.2,18.5,20.7c0,0-0.8,5.2-1,6.4c-0.2,1.2,0.3,1.2,1.4,0.6s13.3-7.3,14.2-7.8
			c0.9-0.5,1-0.9,0.1-1.9c-1-1-10.3-10.3-11.1-11.1c-0.8-0.8-1.4-0.6-1.6,0.4C507.1,279.8,506.6,283.7,506.6,283.7z M553.2,254.2
			c-3.6-2-14-7.9-14.6-8.2c-0.7-0.4-1.1-0.2-1.3,0.5c-0.1,0.5-2.7,11.7-3.8,16c-0.2,1.1,0.1,1.5,1,1.1c1-0.4,5.6-2.4,5.6-2.4
			c0.3,4.6-0.7,9.1-3,13.2c-2.8,4.9-7.2,8.6-12.6,10.5v8.1c0.2,0,0.3-0.1,0.5-0.1c8.3-2.3,14.9-7.7,18.8-14.6
			c3.4-6,4.8-13.1,3.7-20.2c0,0,5-2.2,5.6-2.4C553.8,255.3,553.9,254.6,553.2,254.2z"/>
	</g>
	<g>
		<g>
			<defs>
				<circle id="SVGID_1_" cx="306" cy="306" r="306"/>
			</defs>
			<clipPath id="SVGID_2_">
				<use xlink:href="#SVGID_1_"  style="overflow:visible;"/>
			</clipPath>
			<circle class="st29" cx="306" cy="585.2" r="178.5"/>
		</g>
	</g>
	<g>
		<path class="st2" d="M222.8,500.3c2.1,3.6,3.8,6.8,4,10.6c0.2,3.3,2.4,4.7,5.4,3.5c7-3,11.4-0.9,13.4,6.9c3-0.9,3.8-3.9,5.8-5.7
			c1.5-1.4,3.2-2.7,5-1c1.8,1.6,0.3,3.4-0.9,4.4c-5.9,4.7-7,13.3-14.6,17.5c2.8,2.1,5.9,3.7,8.1,6c6.5,7.1,9.9,15.6,10.2,25.2
			c0.1,4.5-1.6,7.9-6.4,8.1c-4.4,0.2-6.3-3-7-7.1c-0.4-2.5-0.7-5.2-1.4-7.6c-3.1-9.7-8.9-13.5-19-12.8c-8.3,0.5-11.8-1.6-15-9.2
			c-3.3-7.9-4.9-16.1-4.7-24.6c0.2-6.3,2-12,8.2-15.1c4.7-2.3,0.5-4.1-0.4-5.9c-2.8-5.4-2.8-10.5,1.2-15c3.7-4.2,8.6-5.7,14.1-3.5
			c5.4,2.2,8,6.4,8.2,12.1C237,493.8,232.6,498,222.8,500.3z"/>
		<path class="st2" d="M337.7,551.1c11.3,0.5,21.6,3,31.7,6.3c5.2,1.7,8.3,0.5,11.3-4.1c9.5-14.7,19.4-29.1,29.2-43.6
			c0.8-1.3,1.6-2.6,2.6-3.7c2.8-3.4,6.3-5,10.2-2.4c4.2,2.7,4.7,6.7,2.1,10.8c-4.8,7.7-10.1,15.1-14.9,22.7
			c-8.4,13.3-18.7,25.3-25.3,39.7c-1.5,3.4-5.2,3.6-6.8,1.2c-3-4.5-7.5-4.7-11.7-5.9c-5.2-1.5-10.5-2.4-15.7-4
			c-10.8-3.3-20.9-0.7-31,2.7c-2.4,0.8-4.3,2-4.7,4.7c-0.2,1.3-0.9,2.4-2.2,2.9c-2.7,1.2-12-3.4-13.7-6.9c-2.2-4.5-0.7-8.3,3.6-10.3
			C313.9,556.2,325.7,552,337.7,551.1z"/>
		<path class="st2" d="M345.5,457.6c6.8,0.2,13.2,1.9,18.8,6c9.4,6.9,11.2,17.9,4.1,27.1c-3.1,4-5.7,7.6-2.4,12.7
			c1.9,3,0,4.5-2.6,3.4c-10.4-4.5-21.8-5.1-32.2-9.2c-8.1-3.2-13.4-9.6-13-19c0.3-9.4,6.1-14.8,14.1-18.3
			C336.4,458.5,340.8,457.4,345.5,457.6z"/>
		<path class="st2" d="M203.5,523.7c-0.5,3.8-1.3,7.7-1.6,11.5c-0.7,8.6,2.2,12.4,10.7,13.9c3.4,0.6,6.9,0.3,10.3,0.7
			c12.4,1.2,20.9,10.7,20.4,22.5c-0.2,5.4-2.6,7.3-7.9,6.4c-10.9-1.9-21.9-2-32.7,0.1c-4.9,0.9-7.6-0.8-8.3-5.5
			c-3.1-19.8-6.5-39.6-8.4-59.6c-0.2-2.5-0.8-5.4,2.2-6.9c2.7-1.3,5.1,0.3,7.2,1.7C200.7,512,203.9,516.9,203.5,523.7z"/>
		<path class="st2" d="M391,511c5.1,6,5.2,12.4,1.9,19.3c-2.3,4.9-5,9.6-8.4,13.7c-6.9,8.3-13.7,13.6-26,8.5
			c-11.8-4.9-25-4-37.5,0.4c-3.6,1.2-7.1,2.3-10.3-0.9c-3.8-3.8-2.2-9.1,3.8-11.7c10.3-4.4,21.3-4.7,32.4-5
			c10.5-0.3,21.3-1.5,26.5-13.5c2.8-6.3,6.5-12.5,15.1-12C389.3,510.2,390.1,510.6,391,511z"/>
		<path class="st2" d="M270.7,460.4c2.7,0.6,5.5,1,8.1,1.9c7.8,2.6,12.9,8.7,12.9,15.3c0.1,6.8-4.5,12.9-12.7,15.3
			c-7,2.1-14.3,2.8-21.1,5.8c-2.7,1.2-4.4,0.3-3-3c1.2-2.9,0.7-5.3-1.1-7.8c-7.9-11-4-21.9,9.2-25.8
			C265.5,461.2,268.1,460.9,270.7,460.4z"/>
		<path class="st2" d="M391,511c-0.8-0.4-1.7-0.8-2.5-1.2c-1.4-2.4-3.2-4.7-4.1-7.2c-2.5-7.1,1.6-14.3,8.7-16.1
			c7.4-1.8,14.4,2.8,15.8,10.4c1.2,6.8-4.3,13.8-11.5,14.4C395.3,511.5,393.1,511.1,391,511z"/>
	</g>
</g>
</svg>
