<?xml version="1.0" encoding="utf-8"?>
<!-- Generator: Adobe Illustrator 20.0.0, SVG Export Plug-In . SVG Version: 6.00 Build 0)  -->
<svg version="1.1" id="Layer_1" xmlns="http://www.w3.org/2000/svg" xmlns:xlink="http://www.w3.org/1999/xlink" x="0px" y="0px"
	 viewBox="0 0 612 612" style="enable-background:new 0 0 612 612;" xml:space="preserve">
<style type="text/css">
	.st0{fill:#1C4E7C;}
	.st1{clip-path:url(#SVGID_3_);}
	.st2{opacity:0.2;}
	.st3{fill:#2B618D;}
	.st4{fill:#CCCCCC;}
	.st5{fill:#333333;}
	.st6{fill:#CCEAF1;}
	.st7{fill:#29A9E1;}
	.st8{fill:#FFFFFF;}
	.st9{fill:#EEF8FB;}
	.st10{fill:#0D72B9;}
	.st11{fill:#E8EBED;}
	.st12{fill:#96BF76;}
	.st13{fill:#8BC540;}
	.st14{enable-background:new    ;}
	.st15{font-family:'BebasNeue';}
	.st16{font-size:22.5945px;}
	.st17{letter-spacing:1;}
	.st18{opacity:0.1;fill:#2B618D;enable-background:new    ;}
</style>
<g>
	<g>
		<circle id="SVGID_1_" class="st0" cx="306" cy="306" r="306"/>
	</g>
	<g>
		<defs>
			<circle id="SVGID_2_" cx="306" cy="306" r="306"/>
		</defs>
		<clipPath id="SVGID_3_">
			<use xlink:href="#SVGID_2_"  style="overflow:visible;"/>
		</clipPath>
		<g class="st1">
			<g class="st2">
				<path class="st0" d="M245.4,211.9c1.4,0,0.9-2.1,2.9-1.5c2.7,1,4.2,3.2,7.9,3.1c2.4-1.8-3.4-3.4-1.4-4.6
					c1.1,0.4,1.8,1.1,2.9,1.5c0.6-2.6-0.8-3.2-1.4-4.6c5.9-0.3,4-8,2.9-12.3c1.8-0.6,3.8-1,6.4-0.8c-0.2-3.4-3.9-3-5.7-4.6
					c2.2,0.4,1.6-2.3,4.3-1.5c0.5-2.3-1.2-2.2-0.7-4.6c2.6,0.4,1.8-2.7,4.3-2.3c1.8-0.6,6.2,1.5,5.7-1.5c0.7-2.8-3.1-0.8-3.6-2.3
					c-1.7-0.2-1.3-2.6-3.6-2.3c-3.1-0.5-6.4,2.8-7.9,1.5c0.4-3.9,6.3-2,7.2-5.4c-1.5-2.2-4.6-2.7-8.6-2.3c-2.3-0.9-5.2-2-6.4,0
					c-0.6-1.1-2.3-1.1-3.6-1.6c-2.9,2-9.9-0.4-12.9,1.6c-3.3,0.1-7.3-0.6-8.6,1.5c-0.1,1.7,2,5,0.7,5.3c-5.2-0.9-8.1,0.5-12.9-0.8
					c-7.2,1.1-10.6,6.1-18,6.9c-0.7,2.8,3.2,0.6,2.8,3.1c-2.1,1.8-5.9,1.8-7.9,3.8c-1.8-1-4.1-0.8-5,2.3c2.3-0.7,2.2,1.2,3.6,1.5
					c0-2,3.6-2,3.6,0c1.7-0.5,4.9-3.4,5,0.8c-3.1,0.3-7.4-0.7-9.3,0.8c0.7,2.9,3.4,3.5,5.8,4.6c2.2,0.6,1.3-2.1,3.6-1.5
					c2.2,1.5,4.4,3,8.6,2.3c-0.6,3.4,0.5,5.1,1.4,6.9c-0.2,1.8-1.1,2.9-0.7,5.4c2.9,1.5,3.3-3.5,5-0.7c0.4,2.7-2.2,2.3-4.3,2.3
					c0.6,3.4,5.5,2.4,6.4,5.4c-1.6,1.3-3.6,2.2-5,3.8c2,1-2.2,1.6-1.4,3.8c5.1,3.7,1.2,12.5,5,17.6c1.7,0,3.4,0,5,0
					c2.1,0.1,1.3,3.3,3.6,3.1c0.7-1.5,1.2-3.3,2.9-3.8c-0.9-5.8,3.6-5.8,2.9-11.5c1.8-0.1,1-3,2.8-3.1c2.7,1.6,2.7-1.8,5.8,0
					c1.1-1.1,2.3-2.2,3.6-3c3.5-0.9,5-3.9,8.6-4.6c0.3-2.8,6.3-3.4,4.3-6.1C250.4,215.1,247.4,212.1,245.4,211.9z M252.6,208.8
					c-1.9-1.4,0-5.1,2.2-4.6C254.3,206.1,252.8,206.7,252.6,208.8z M257.6,172c-0.1,2.3-1.6,2.8-2.9,3.8c-2.2-1.5-5.4-1.8-9.3-1.5
					C247.8,171.2,254.5,172.5,257.6,172z"/>
				<path class="st0" d="M156.4,183.5c0,1.5,0,3,0,4.6c2.2-0.5,2.6,0.8,4.3,0.8c0.3-3.5,4.7-6.8,7.2-5.3c1.1,3.2-3.7,0.1-3.6,2.3
					c2.2,1.2-2.5,1.4-2.2,3.1c1.9-0.5,2.6,0.3,2.2,2.3c-1.7,0-2.1-1.3-4.3-0.7c0.1,2.2-2.4,1.5-1.4,4.6c4.3-0.6,7.4-1.1,9.3,2.3
					c-5.7,1.3-9.4-3-12.9-1.5c-0.6,3.7,4.3,1.5,4.3,4.6c5.4-0.8,12.7,3.4,14.3-2.3c1.9,0.2,3.1-0.3,2.9-2.3c0.5-2.1-3.3,0.6-2.9-1.5
					c1.7,0,3.4,0,5,0c0-4.1,4.4-3.5,3.6-8.4c3.7-0.1,4.1-3.8,8.7-3.1c0.9-1.8,2.3-3.1,5-3.1c0.9-1.9-1.6-3.7,0-3.8
					c3-1.5,7.4,0.8,8.6-3.8c0-1.3-2-0.4-2.1-1.5c-11.8,1.7-27.8-2.2-40.2,3.1c-1,4.6,3.1,3.9,3.6,6.9c-4.7,0.4-3.2-5.7-8.6-4.6
					c-0.2,1.1-1.1,1.5-0.7,3.1c-1.2,0.1-2.5-0.1-2.2,1.5C153.6,182.9,156.1,182,156.4,183.5z M171.5,197.3c0.4,0.4-0.5,1-0.7,0.8
					C170.4,197.7,171.3,197.1,171.5,197.3z"/>
				<path class="st0" d="M332.9,182c0.4-2.1,3.8-1.1,2.9-4.6c-6.6-1.1-12.8-1.4-18.7-1.5c0,1.4,0.2,2.4,0.7,3.1
					C322.3,180.5,326.1,182.9,332.9,182z"/>
				<path class="st0" d="M304.9,185.8c-0.1,1.9-1.3,2.4,0,3.8c2.9-0.2,3.1-3.4,6.4-3.1c-0.2,3.4-3.5,3.4-3.6,6.9c1.2,1,2.4,2,5,1.5
					c-0.3,2.4,1.5,2.5,3.6,2.3c0.6-2.9,1.2-5.8,2.1-8.4c1.9,2,3,5,7.9,3.8c0.6-5.8-3.8-6.2-5.7-9.2c-0.2,1.8-1.9-0.9-2.9-0.8
					c-1.7,0.1-2.9-0.4-3.5-1.5c1.7-2-0.6-4.5-3.6-3.8c-2.1,1.2,1.1,4-0.7,4.6c-1.5-3.6-8.4-7.2-8.6,0
					C301.7,184.2,304.4,183.8,304.9,185.8z"/>
				<path class="st0" d="M377.4,180.5c-0.1-4.8-6.7-3.2-6.4,0.8C373.4,183.6,374.7,180.2,377.4,180.5z"/>
				<path class="st0" d="M417.6,185c5.6-1,11.6,2.7,12.9-2.3c-1.7-3-8.2-4.2-12.2-2.3C416.7,180.5,418,183.7,417.6,185z"/>
				<path class="st0" d="M562.5,231c1.7-0.3,1.3-2.6,3.6-2.3c3.8,0.1,3.2,4.7,7.9,3.8c0.9-1.4-0.6-3.8,0.7-6.1
					c-1.9-0.9-4.7-5-6.4-1.5c0.2-1.8-0.1-2.9-0.7-3.8c-3.9-1.5-6-4.9-12.2-3.8c-0.8-1.4-2.8-1.6-3.6-3.1c-4.7,0.7-5.7-2.6-10.8-1.5
					c-1,2.3,2,3.9,0,4.6c-2.1-0.3-1.7-3.3-3.6-3.8c-2.1,2.4-6,0.2-10.1,1.5c-2.6-1.8-2.4-6.6-7.8-5.4c-1,0.2-0.2,2.3-1.5,2.3
					c-3-1.4-5.9-2.9-8.6-4.6c-0.3,0.7-0.6,1.3-1.4,1.5c0.9-3-1.7-2.3-3.6-2.3c1.8-1.8-0.8-1.7-1.4-3.1c-3.5,1.3-3.2-0.4-6.5-0.7
					c-0.3,1-1.8,0.6-2.9,0.7c-0.7,1.4,2.1,2.6,0,3.1c-6.2-1-14,1.4-19.4,0c-1.8-0.5-2.5-2.8-4.3-2.3c-3.3,0.8-5.5-0.8-7.9-1.5
					c-0.8-0.3-2,0.2-2.8,0c-1.8-0.4-3.2-2.4-7.2-1.6c0.3-2,2.1-2.3,2.1-4.6c-1-2.2-3.3-3.1-4.3-5.4c-2.2,1-5.5,0.8-8.6,0.8
					c-1.8-0.6-1.5-3.5-4.3-3.1c-1.7,0.8-2.3,2.6-2.2,5.4c-3.6-1.2-2.3,2.7-5,2.3c-1.4-0.3-0.6-3-2.9-2.3c-1.9,2.1-4.5,3.4-8.6,3.1
					c-1.3,1-1.9,2.6-4.3,2.3c-1,1-0.3,3.7-2.2,3.8c-1.5,0.5-5-1.2-4.3,1.5c0,2.8,4.2,1.1,3.6,4.6c-2.6-0.8-3.3-3.6-7.2-3.1
					c0,2,0.4,4.5-1.4,4.6c-0.8-0.9-0.8-2.7-0.7-4.6c-2.8-0.7-1.2,3.3-4.3,2.3c-1.1-1.4-1-4.1-4.3-3.1c-2,3.2-4.8,5.7-7.2,8.4
					c-4.6,0.4-4.3-1.4-9.3-1.5c-1.2,3.8,3.7,1.2,2.9,4.6c-3-0.7-6.2,0.4-10.8,0c-3.2,1.4-5,4.4-8.6,5.4c0-1.5,0-3,0-4.6
					c-1.8,0.1-3.5,0.1-4.3-0.8c0.2,4.3,0,8.2-4.3,7.7c0.2,2.8-2.6,2.3-4.3,3.1c-1.8,1,1.3,2.3-0.7,3.1c-4.2,0.9-4.4-5.5-4.3-6.9
					c3.3,0,7-0.3,9.3,0.7c1.9-4.8-4-7.3-8.6-7.7c-1.1-1.9-3.1-2.9-5.7-3.1c-1-1.8-2-3.4-3.6-4.6c-2.1,0-4.3,0-6.5,0
					c-1.9,1.4-3.8,3.1-5.7,4.6c-0.3-1.1-0.9,0.3-2.2,0c-2.6,2.9-5.8,5.1-8.6,7.7c-0.8,3.5-2.3,6.3-4.3,8.4c-0.1-0.9-1.3-0.6-2.2-0.8
					c0,1,0,2,0,3c-4.6,0.3-5,4.9-6.5,8.5c1.5,1.8,1.7,4.9,1.5,8.4c0.7,2.1,4.5,0.8,5.8,2.3c-1.6,2.3-2.9,3.1-2.9,5.4
					c1.5-0.4,1.3,1.1,1.4,2.3c-2.6,0-4.2,1.2-6.4,1.5c-0.7,1.4-2,2-1.5,4.6c-4.1-1.3-1.6,4.4-5,3.8c0.1,0.9-0.1,1.4-0.7,1.5
					c-3.1-0.3-3.8,2.1-5.7,3.1c-1.7,0.4-3.7,0.7-3.5,3.1c0.9,1,3.1,0.7,5,0.8c-0.3,3.5,3.3,2.6,2.9,6.1c-0.7,1-0.7,2.9-2.2,3.1
					c-3.3-1.8-6.3,0.7-10.7,0c-0.7,2.5,1.6,8.3-1.5,8.4c0.5,2.2,2.2,3.3,1.5,6.9c3.3-0.8,4.3,1,6.5,1.5c2.7-1.5,3-1.5,5.7,0
					c1.6-3.1,4.1-5.3,3.6-10.7c3.2-1,2.6-5.9,6.5-6.1c3,1.9,4.3-0.5,7.2-0.8c-2,3-1,7.8,0,11.5c4.5-0.4,1.7-4.3,2.1-8.4
					c-0.7,0-0.9-1.3,0-1.5c0,0.5,0,1,0,1.5c1.5,0.2,1.4,2.1,2.2,3.1c3.5,0.1,5.6,1.6,6.4,4.6c-0.1,1.7-1.8,1.6-3.6,1.5
					c-0.1,2.7,2.5,2.4,3.6,3.8c-0.3-3.5,1.9-4.1,3.6-5.4c0.4-1.7-1.4-1.1-1.4-2.3c1.3-2.4,2.4,2.6,3.6,0c-2-4.1-10.9-4.7-8.6-10.7
					c2.1,3.5,6.2,5.1,8.6,8.4c0.4,0.6,1,2.4,1.4,3.1c0.6,1,1.7,1.8,1.4,3c0,1.6,0,3.1,0,4.6c0.9,1,3.1,0.8,5,0.8
					c1.2-2.6-1.3-6.4,0.7-9.2c0.8,0,1.5,0,2.2,0c-0.8,3-0.1,2.9-0.7,6.1c1.6-0.3,1,2.2,2.1,3.1c2.6,2,7.4,1.4,9.3,0
					c2.2,1.1-1.9,4,1.4,3.8c3,0.6,0.2-5,3.6-3.8c0,1.5,0,3.1,0,4.6c-2.1,1.3-0.7,6.5-3.6,6.9c-5.2-2-11.7-2.8-18.7-3
					c-2.1,0.6-1.7,3.8-3.6,4.6c-3.3-3.6-9.8-3.8-12.9-7.7c0.5-2.7-0.8-3.3-1.4-4.6c1.7-0.2,1.6-2.1,0.7-3.1
					c-4.3-0.1-7.8,0.9-10.8,2.3c-5.8-0.4-10.9,0.1-13.6,3.1c-0.6-1.6-2.1-2.4-4.3-2.3c-0.6,2.7-3.2,3.2-5,4.6
					c-2,3.6-1.2,8.3-2.9,11.5c-1.1,2-4.9,4.1-6.5,6.1c-0.1,4.5-1.8,7.3-3.6,10c0,6.6,0,13.3,0,19.9c2.5,3,4.6,6.3,5.8,10.7
					c3.3,2.1,5.5,5.4,10,6.1c2.9-0.8,6.3-0.9,10-0.8c1.5-1.2,1.4-4.1,4.3-3.8c1.3,0.1,0.4,2.6,1.4,3.1c3.3-0.5,4.6,1.2,7.1,1.5
					c1.2-0.7,1.8-2.1,4.3-1.5c0.7,5.9-1.5,8.6-1.4,13.8c2,3.9,5.5,6.9,4.3,12.3c1.9,2.6,2,7,2.9,10.7c-1.8,3.5-1.4,9.2-2.9,13
					c3.1,3.1,5.3,7.1,6.5,12.3c0,2.3,0,4.6,0,6.9c3.2,4,3.1,11.5,6.4,15.3c6.9-0.5,10.4-4.7,16.5-6.1c1.1-4.2,3.3-7.2,6.4-9.2
					c-0.4-3,1.3-3.7,0.7-6.9c1.3-0.7,1.8-2.1,4.3-1.5c0.1-8.8,3-14.6,8.6-17.6c1-6.2,1-15.2,0-21.4c1.5-3,2.7-6.2,3.5-10
					c1.7-1.2,3.2-2.8,5-3.8c3.4-5.3,6.5-10.9,10.1-16.1c0.6-2.9,1.5-6.8-0.7-8.4c-3.1-0.5-2.9,2.5-5.7,2.3c-2.2,0-4.3,0-6.5,0
					c-0.3-5.3-3.9-7.1-6.5-10c0.6-5-4.3-4.1-2.9-10c-1.2-1.7-3.5-2.4-4.3-4.6c0.7-2.3-1-6,0-6.1c1.7,1.3,3.6,5.3,2.9,6.9
					c3,3.2,5,7.4,7.9,10.7c1.7,3.2,1.4,8,5,10.7c5-1.8,8.5-5.2,14.3-6.2c1-0.5,0.1-2.9,1.4-3c3.1-0.5,4.4-3,7.2-3.9
					c-0.5-3.3,2.1-3.4,2.2-6.1c-1.2-2.8-4.9-2.9-4.3-7.7c-2.7-0.4-4.6,0.2-5.7,1.5c-0.6-2.9-3.2-3.7-2.9-7.6
					c-2.3,0.2-2.1-2.4-3.6-3.1c1.1-0.4,1.8-1.1,2.9-1.5c4,2.6,2.8,10.8,10.1,10c0.3,1.5,2,1.4,1.4,3.8c3.5,0.4,4-2.4,7.2-2.3
					c0.7,0.5,0.7,1.7,2.2,1.5c5-0.8,6.2,2.5,9.3,3.8c-1.2-0.3-1.3,0.6-1.4,1.5c0.7,1.5,3.3,1,4.3,2.3c-0.4,2.4,1.3,2.7,0.7,5.4
					c2.2,2.5,3.1,6.4,4.3,10c1.5,1.5,3,2.9,3.6,5.3c0,1.5,0,3.1,0,4.6c0.9,1.1,3.1,0.7,5,0.7c0.9-4.9,3.5-8,2.9-14.6
					c1,0,1.9,0,2.9,0c0-1,0-2,0-3.1c2.7,1.1,1.4-2.1,3.6-1.5c-0.2-3.5,2.6-3.9,3.6-6.1c1.7-1.5,3.8-2.6,6.4-3.1
					c1.6,2.1,1.6,5.9,4.3,6.9c0.2,1.8-1.3,1.6-0.8,3.8c0.8,2.5,5.7,0.6,7.2,2.3c-1,1.6,0.4,2.3-0.7,4.6c1.9,0.8,3.2,2.2,3.6,4.6
					c-0.3,1.4-2,1.4-1.4,3.8c0.2,2.3,2.2,2.7,1.4,6.1c3.5,3.2,6.7,6.6,10.8,9.2c0.2-5.1-3.4-6.1-3.6-10.7c-2-1.5-3.9-3-5-5.4
					c0.3-2.5-0.9-6.6,1.4-6.9c1.6,2.2,2.7,4.8,5.8,5.4c0.5,0.7,0.8,1.7,0.7,3.1c7-1,8.7-7.6,7.9-16.8c-0.9-0.8-2.6-0.8-3.6-1.5
					c0.9-3.4-3.4-3.1-1.4-5.4c2.1-2.1,1.9,2.5,5,1.5c0.5-3.3,4.2-3.3,7.9-3.1c2.3-3.7,5.3-6.5,6.4-11.5c1.2,0.2,1.2-0.7,2.2-0.7
					c1.2-3.1-0.2-8.9,2.2-10.7c-1.5-0.7-2.2-2.3-2.2-4.6c-1.2-1-2.8-1.6-2.9-3.8c-0.3-1.8,1.3-1.7,0.7-3.8c1.5,0.2,2.3-0.2,2.2-1.6
					c2.1-1-3.2-4.6,1.5-4.6c0.8,2.4,3.3,3.1,4.3,5.4c-0.7,4,1.3,5.2,3.6,6.1c4.3-3.3-0.2-11.8,2.1-17.6c1.5-1.5,3.7-2.2,5.7-3.1
					c1.7-3.6,3.1-7.4,5.7-10c1-6.2-1.6-12.5,0-16.9c-1,4.4,1.7,4.9,2.2,7.7c0.1,4.8,0.4,9.3,3.6,10.7c1.3-1.4-0.6-1.9,0-4.6
					c2-0.1,1.4,1.3,2.9,0c0.1-2.4-1.9-2.6-1.4-5.4c-2.6-0.5-3.3-3.1-4.3-5.4c-0.3-2.8,0.3-6.4-2.1-6.9c-1.5,0.2-0.2,3.4-2.1,3.1
					c-1.2-5.6-6.1,3.5-7.9-2.3c0.5-1.8,1.8-2.6,2.9-3.8c0.8-2.4,0.5-6,2.9-6.9c1.6,1.9,1.3-1.1,3.5-0.8c3.4,0.5,6.5,2,10.8,1.5
					c-0.2,1.3,0.6,1.5,1.4,1.5c0.9-1.1,3.1-0.7,5-0.8c0.4-2.4-1.3-2.7-0.7-5.4c1.5-0.2,1.4-2.1,2.9-2.3c1.5,0.2,1.4,2.1,2.9,2.3
					c-0.3-1.7,2.1-4.2,2.8-2.3c-2.3,4.9-5.7,8.7-6.4,15.3c0.5,2.1,2,2.9,2.9,4.6c0.3,2.9,0.8,5.7,2.8,6.9c1.8-1.9,2.8-4.6,5-6.1
					c-0.7-3.8,2.3-3.2,0.8-6.1c0.2-1.6,1.9-1.5,2.1-3.1c-1.1-0.9-3.2-0.7-2.9-3.1c0.7-6.7,5.4-5.3,10.8-4.6c1-1.2,0.9-3.6,2.2-4.6
					c4.2-0.3,7.3-2.4,10-2.3C566.1,233.9,562.5,234.3,562.5,231z M321.5,239.4c1.3,1.6,3.2,2.6,5.7,3.1c0,2.5,0,5.1,0,7.7
					c-1.6-0.3,0.4-4.5-2.8-3.1c-1.6,2.6-0.6,8-2.9,10c-2.4,0.2-4.2-0.4-5.8,0c-2,0.4-2.4,2.2-4.3,2.3c0.2-0.9-2.1-2.7-2.1-0.8
					c-1.7-0.2-1.7-2.1,0-2.3c-1.6-1.8-2.8-4.2-2.9-7.7c3.6,0.3,2.2,10.8,8.6,7.7c1.6-3.1,2.7-6.8,4.3-10c-0.2-1.8-0.9-3.1-1.4-4.6
					c0.4-7.2,5.5-9.4,7.9-14.5c0.9-0.1,1.3,0.2,1.4,0.8C326.6,233.2,320.8,232.9,321.5,239.4z M329.3,244.8c0-2.3,2.5-1.9,4.3-2.3
					C333.7,244.9,331.5,244.8,329.3,244.8z M335.1,214.9c-0.4-0.4,0.5-1,0.7-0.8C336.1,214.6,335.3,215.1,335.1,214.9z M348,325.3
					c-0.4-0.4,0.5-1,0.7-0.8C349.1,324.9,348.2,325.5,348,325.3z M348.7,230.2c-0.4-0.4,0.5-1,0.7-0.8
					C349.8,229.9,348.9,230.5,348.7,230.2z M401.8,218c-1.4-0.3-3.1-0.2-2.9-2.3c-2.2-0.2,0.7-3.2,0,0
					C399.4,216.9,402.4,215.5,401.8,218z M446.2,204.2c-0.3-0.4,0.6-1,0.8-0.8C447.4,203.8,446.5,204.4,446.2,204.2z M448.4,203.4
					c-0.4-0.4,0.5-1,0.7-0.7C449.5,203,448.6,203.6,448.4,203.4z M450.6,201.9c-0.4-0.4,0.5-1,0.7-0.8
					C451.7,201.5,450.8,202.1,450.6,201.9z M482.9,298.4c1-1.5,1.6-3.4,4.3-3c0,1.2-0.4,2.9,0.7,3
					C486.8,300.7,484.7,297.8,482.9,298.4z"/>
				<path class="st0" d="M228.2,388.9c-1.3-1.4-2.1,0.3-3.6,0.8c-1.1-2.6-3.9-3.5-6.4-4.6c-1.7,0-3.4,0-5,0
					c-1.3-2.2-6.1-0.7-6.5-3.8c-1.9,0-4.2,0.4-4.3-1.5c2.1-3.6-2.1-13.4-8.6-9.9c-2.3-1.4-3.9-3.5-4.3-6.9
					c-3.8-1.1-6.4-3.4-10.1-4.6c-0.9,0.3-1.1,1.3-2.1,1.5c-1-2.8-4.5-2.9-5-6.1c-2.3-0.7-1.5,2-2.9,2.3c-1.7-0.5-1.9-2.6-3.6-3.1
					c-0.7,1.3-1.3,2.6-3.6,2.3c-1.1,3.2-4,4.4-5.7,6.9c0.2-2.5-0.9-3.7-2.9-3.8c-1.8,0.8-2.7,2.8-5.1,3.1c-1.7-3.7,0.8-7.3,0-12.3
					c-1.3-2.7-6.1-1.6-8.6-3c0.7-3.3,2.8-5.2,2.2-10c-3.5,0.5-3.7,0.5-7.2,0c-1.3,1.7-0.7,5.4-2.9,6.1c-9.6,0.6-3.6-13.1-5.7-19.2
					c2.5-0.6,4.1-2.3,6.5-3c3.9-0.4,4.8,2.5,8.6,2.3c-0.1-1.1-0.1-2.1,0.7-2.3c3.5,0.2,8.1-1,8.6,2.3c-0.3,4.4,1.6,6.5,5,6.9
					c-0.9-3.9-0.5-5.2,0-7.7c-0.8-1.1-2-1.9-2.1-3.8c1.2-5.1,4.4-8.1,9.3-9.2c0.7-2.2,0.7-2.3,0-4.6c1.7,0.2,2.8-0.1,3.6-0.8
					c-1.8-4.2,2.3-3.3,1.4-8.4c2.4-1,4.7-2.1,7.2-3.1c0.4-2.4-2.2-1.7-1.4-4.6c2.6-2.3,6.6-3.2,10.1-4.6c0.5,2.1-1.5,1.5-1.5,3.1
					c2.9-1.3,5.9-2.4,7.9-4.6c-1.8-1.2-5.3-0.5-5-3.8c0.4-2.1,2.8-2.1,4.3-3.1c0.3-1.9-1.3-1.7-0.7-3.8c3.5,2.5,7.5-3.7,10-2.3
					c-1.7,4.1-5.1,6.3-6.4,10.7c2.7,0.6,3.1-1.3,5.7-0.7c0.1,1.2-0.3,2.9,0.7,3.1c0.7-1.9,2.8,1,5,0c-0.3-1.8-1.4-3.9,0-5.4
					c-2.6-0.3-3.3-2.6-4.3-4.6c0.2-4.7,0.2-5.2,0-10c-1.4-1.4-1.8,0-3.6,0c0.1-3.6-3.3-3.6-3.6-6.9c0.5-0.7,0.8-1.7,0.7-3.1
					c-2.8-1.7-1.8-7.4-5.8-7.7c-0.4,1.1,0.9,4-0.7,3.8c-1.5-0.5-4.7,1-5-0.8c0-2.5,0-5.1,0-7.6c-3.8,1.8-3.1-1.8-6.5-2.3
					c-1.9,2.1-1.5-0.9-3.6-0.8c-1.7-0.3-1.5,1.4-3.6,0.8c1.1,7.6-1.9,11.9-0.7,17.6c-1.2,0.2-3.6-2.2-4.3,0c0.7,2.2,2.4,0.5,2.9,1.5
					c-2.5,1.7-2.6,5.9-3.6,9.2c-1.6-2.3-2-6.1-2.9-9.2c-1.5-1.5-1.4,0.4-2.9,0.8c-0.6-2.2-1.1-0.8-2.9-0.8c-2.1-2.3-4.6-4.3-7.9-5.4
					c1.1-3.8-2.5-2.4-2.2-5.4c1.6,0.4,1.4-1.1,1.5-2.3c2.4-1.3,3.4-4,5.7-5.4c1.6-2.7,2.7-5.8,6.5-6.1c0-1.4-0.9-1.6-0.7-3.1
					c4.8-1,7.5-1.7,10.7-3.1c-0.2-3,0-5.7,0.7-7.7c-0.8-1.1-2.7-1.2-3.6-2.3c2.9-0.3,5.3,0,6.4,1.5c1.3-2.3,3.4,0.9,5.7,0
					c-1,3.9,3.3,2.1,2.9,5.4c-0.7,5.6-8.5,3.7-9.3,9.2c1.2,1.8,4.2,1.7,7.2,1.5c4.5,2.2,6.2,7.2,12.2,7.7c-1.6-4,1.2-3.9,0.7-8.4
					c-0.3-2-2.2-2.3-2.2-4.6c2.7,0.2,3.5,2.4,5.8,3.1c-0.2-2-0.3-3.8,2.1-3.1c-0.5-2.4,0.7-2.8,0.7-4.6c-1.9,0.5-1.4-1.6-2.1-2.3
					c-2.4-0.4-4.3-1.5-6.5-2.3c0.2-1.6,2-1.5,2.2-3c-0.9-1.8-3.2-2.3-2.9-5.4c-2.1,0-4.3,0-6.4,0c0.3-2.4-1.9-2-2.2-3.9
					c-3.1-0.4-4.7,0.6-7.2,0.8c0.4-4.7-5.7-3.2-6.5-0.8c0.3-2.9-0.6-4.5-2.9-4.6c-3.7,2.4-8,10.3-3.6,14.6c1.1,0.4,3.7-0.9,3.6,0.8
					c-0.8,2.3-2.3,3.7-3.6,5.4c-1.8-1.9,1.5-1.7,0.7-4.6c-2.4-1.7-4.8-3.6-5.8-6.9c-2.7,0.4-2.3-2.6-5.7-1.5
					c0.3,1.8-1.4,1.7-0.8,3.8c2.5,1,1.6,7.1,0,8.4c-1-0.7-1.5-1.9-1.4-3.8c-3.6-0.5-3.6,2.8-6.5,3.1c-2.7-1.2-5.6-2.2-7.1-4.6
					c3.2-0.6,4.3,1,7.1,0.8c1.6-1.6-0.3-2.2,0-4.6c4-0.9,5.6-4.3,9.3-5.3c-1.3-2.4-1-4.2-1.4-6.1c-3.6,0-7.2,0-10.7,0
					c-1.6,2.1-5.2,2.1-5.8,5.3c-0.4-1.1-1.1-1.9-1.4-3c-1.9,0-4.5,0.7-3.6-2.3c5.3,1.2,11.6-2.8,16.5-4.6c0,3.5,6.1,2.6,7.2,0.8
					c-0.5-1.8-0.6-3.9-1.4-5.4c-4.2,0.6-6.3,3.5-10.8,3.8c0-1.5,0-3.1,0-4.6c-3.9-1.4-4.6,3.6-2.1,4.6c-4.1,0.5-6.4-0.8-10-0.8
					c1.1,4-3.3,2.1-3.6,4.6c1.8,1,2.2-0.4,2.8,0.8c-0.5,1-1.5,1.4-2.8,1.5c-1.2-4.4-6.8-3.9-12.2-3.8c-0.4,3.7-2.2,5.8-4.3,7.7
					c-0.1,2.4,1.9,2.6,1.5,5.4c3.5,0.2,5.3-1.4,7.9-2.3c-1.5,4.2,3.9,0.9,4.3,3.1c0.5,2.1-3.4-0.6-2.9,1.5c0,4.1,7.9-0.2,6.5,5.4
					c2.7-1.7,3.5-1.2,6.4,0c0.2,0,0.5,0,0.7,0c-0.2-0.9,2.1-2.6,2.2-0.8c-0.1,0.9-1.1,0.9-2.2,0.8c0.2,1.9,3.1,4.4,0,5.4
					c-0.8-0.2-0.6-1.4-0.7-2.3c-6.4-0.6-9.6-4.6-17.2-3.8c-2.2-0.7-2.3-3.7-5-3.8c-0.3,2.2-2.2,2.7-4.3,3.1c0.2-1.8-0.1-2.9-0.7-3.8
					c-2.8,0.2-2.8,3.3-5.7,3.1c-2.7,0.6-3.4-0.9-5.8-0.8c-0.8,0.2-0.5,1.5-1.4,1.5c-0.7,0-0.6-0.9-0.7-1.5c-1.7,0.3-2.7,1.2-5.1,0.8
					c-5.7-3.8-16.8-2-22.9-5.4c-5.4,2.5-12.3,3.2-15.8,3.8c-1.6,3,1.3,3,2.1,5.4c2.7-0.4,4.5,0.3,5,2.3c-2.9-1.1-2.6,1.4-3.6,2.3
					c-1.3-0.7-1.9-2-3.6-2.3c-2.7,3-9.3,1.9-11.5,5.3c4-0.1,5.4,2.5,5.7,6.2c3.8-1.5,6.7,0.2,10.1-0.8c-3.5,6.8-18.4,1.3-17.2,13
					c2.4,1.9,3,2.1,2.2,6.1c1.3,0.1,1.5-0.9,2.9-0.8c0.1,1.2-0.3,2.9,0.7,3.1c1-2.4,0.3,3.1,2.2,2.3c0.9-3,4.1-3.7,6.4-1.5
					c-3.1,2.6-4.2,7.2-7.9,9.2c-3.3,1.1-4.4,4.5-8.6,4.6c0.6,2.5-1.1,2.4-1.4,3.8c3.3,0.4,4.5-1.4,7.9-0.8c0.8-2.2,3.1-2.8,5.8-3.1
					c2.7-5.3,7.4-8.5,11.5-12.3c0.5,0,0.9,0,1.5,0c0.7-0.7,0.2-2.8,2.1-2.3c0.1-0.5,0.1-0.9,0.7-0.8c0,0.5-0.1,0.9-0.7,0.8
					c0.3,3.4-1.9,4.1-2.9,6.1c5.9,0.7,7.3-3.4,12.2-3.8c0.3-3.4-0.4-5.8-0.7-8.4c3.3,0.7,3.5-1.9,6.4-1.5c2,1.5,3.7,3.3,5,5.4
					c4.6,1.5,8.5,3.8,7.9,10.7c3.5-0.5,0.2-4.2,2.9-4.6c0.2,6.5-0.2,13.5,2.1,17.6c-2.2,2-0.7,2.8,0,5.4c0,1.5-2,1-1.4,3.1
					c-0.3,8.4-0.8,14,0,22.2c1.9,1.3,3.2,3.3,5,4.6c2,3,1.8,8.2,4.3,10.7c-0.8,0.1-0.6,1.4-0.7,2.3c3,1.2,3.7,4.7,5.1,7.7
					c2.2-0.6,2.1,1.3,4.3,0.7c0.1-3.3-1.4-2.6-1.4-6.9c-0.4,0-0.8-0.6,0-0.8c0,0.3,0,0.5,0,0.8c1.5-0.4,1.3,1.1,1.4,2.3
					c2.3,1.7,4.2,3.8,5.8,6.1c-0.5,5.4,1.4,8.2,2.8,11.5c5.9,1.6,9.4,5.5,16.5,3.8c0.8,2,1.8,3.7,2.9,5.4c2.7-0.6,3.4,0.9,5.7,0.8
					c0.7,1.8,2.1,2.9,3.6,3.8c0,0.8,0,1.5,0,2.3c4.1,0.5,5,4.4,8.6,5.4c0.7-1,0.7-2.8,2.1-3c0.3,2.8,1.5,4.6,2.1,6.9
					c0,1.5-1.9,1-1.4,3.1c0.3,3.9-2.3,4.7-2.9,7.7c-1.4,5.3,2.9,8.3,0,10.7c1.3,1.5,3.5,1.8,5,3.1c-0.6,1.1-2.3,1.1-3.6,1.5
					c-0.5,6.2,2.6,8.4,6.5,10c0.3,1.8-1.3,1.7-0.7,3.8c2.7,2.2,3.6,6.3,7.9,6.9c1.3,3.4,3.6,5.9,3.6,10.7c-0.7,1-0.7,2.8-1.4,3.8
					c0.9,0.5,1.3,1.7,1.4,3.1c-1.9,3.4,0.9,7.5,0,12.3c-3.9,2.5-2.1,11.1-3.6,16.1c1.1,2.1,2.9-1.3,3.6,0.8c0.7,3.8-2.4,3.5-3.6,5.3
					c-0.9,2.5,2.3,0.6,1.4,3.1c-1.4,1.9,0.8,3.7-0.7,6.1c0.7,5.2,3.1,7.9,1.5,12.3c2.1,1.8,1.9,6.1,4.3,7.7
					c-0.1,1.4,0.8,1.6,0.7,3.1c1.8,0.4,3,1.4,4.3,2.3c2.7-0.5,7.4,1.3,7.9-1.5c-1.9-0.5-3.3-1.5-4.3-3.1c0.5-2.6-2.9-1-2.1-3.8
					c-0.3-3.4,2.1-3.9,2.1-6.9c1.9-0.1,2.8-1.1,2.9-3c0.4-2.7-2.5-1.9-2.2-4.6c1.9-2.4,4.9-9.9,0-10.7c4.8,1.3,4.6-2.7,5.7-5.3
					c3.9,0.3,5.2-2.2,7.9-3.1c0.5-3.6-1.1-4.9-1.4-7.6c1.9,0,3.8,0,5.7,0c0-0.8,0.9-0.6,1.4-0.8c0.4-1.9,0.6-3.9,2.9-3.8
					c-0.3-4.3,2.7-5.3,4.3-7.7c0-1.8,0-3.6,0-5.3c1.4-1.4,2.2-3.2,3.6-4.6c3.4-1.1,3.4-1.1,6.5-2.3c0.3-4.9,3.8-9.2,1.4-14.6
					c1.1-0.6,1.5-1.9,1.4-3.8c1.2,0.2,1.3-0.7,2.2-0.7c0.3-2.5,2.1-3.4,2.9-5.3c1.9-2-0.1-3.7,2.1-4.6c-0.5-2.4,0.7-2.8,0.7-4.6
					C229.6,392.9,228.9,390.9,228.2,388.9z M195.2,261.7c0.4,0.4-0.5,1-0.7,0.7C194.1,262,194.9,261.4,195.2,261.7z M139.9,201.9
					c2.2,0.7-0.8,2.1-0.7,3.1C137,204.2,139.5,202.4,139.9,201.9z M137,205.7c2.3-0.4,2.5,1.4,5,0.8c0,3-2.8,3.1-5,3.8
					C137,208.8,137,207.3,137,205.7z M114.8,207.3c-0.4-0.4,0.5-1,0.7-0.8C115.9,206.9,115,207.5,114.8,207.3z M99.7,317.6
					c0.1-0.9,0.7-0.4,0.7,0C100.3,318.5,99.7,318,99.7,317.6z M100.4,319.1c1.7,0.3,1.6,2.4,2.9,3.1
					C102.4,324.1,99.8,321.4,100.4,319.1z"/>
				<path class="st0" d="M374.5,213.4c-1-3.5-4.4-4.5-3.6-10c5.1-0.5,7-4.3,10.8-6.1c4.5,0.5,6.8-1.4,7.2-5.3c-1.3,0-2.4,0-3.6,0
					c-0.2,0.6,0,1.5-0.7,1.5c-5.4,0.6-9.4,2.8-13.6,4.6c0.4,3.9-3.5,3.5-2.9,7.6c-0.9,1.6-2.7,2.3-2.8,4.6c2.3,1.6,4.5,3.3,7.1,4.6
					C372.7,214,373.3,213.3,374.5,213.4z"/>
				<path class="st0" d="M494.3,199.6c1.7-1.2,2.6-3.4,4.3-4.6c-2.7-0.4-3.3-3.5-5.8-3.1c-0.3,0-0.7,1.8-1.4,1.5c-1.4,0-2.9,0-4.3,0
					C486.2,199,492.3,197.2,494.3,199.6z"/>
				<path class="st0" d="M265.5,234.1c0.1-2,2.7-1.2,3.6-2.3c0.8-3.9-1.6-4.4-1.4-7.7c-3.1,1-4.2-0.5-7.2,0.7
					c-1.9-0.5-1.8-3.2-4.3-3c0.9,3.7-2.9,2.6-2.9,5.3c2,0.6,1.9-1.1,3.6-0.8c-0.4,1.9-2.8,1.6-2.1,4.6c3.6-1,2.8,2.6,5,3.1
					C260.3,232.5,264.7,233.3,265.5,234.1z"/>
				<path class="st0" d="M167.2,234.1c-2.8-0.8-1-1.9-2.9-3.8c-2.2,0.6-2.1-1.3-4.3-0.8c-1,1.5-0.4,4.7-3.6,3.9c0,2.7,2.4,3.1,5,3
					C161.2,230.4,166.3,238.9,167.2,234.1z"/>
				<path class="st0" d="M293.5,261.7c-1-0.8-2.2-1.3-2.9-2.3c0.9-4.5-4.8-5.3-2.1-9.2c-1-0.8-2.2-1.3-2.9-2.3
					c1-0.6,2.3-1.1,2.2-3.1c-2.6-0.2-4,0.9-5.7,1.5c0.5,4.2-1.1,6-0.7,10c1.7,1.1,2.6,1.2,3.6,1.5c0.3,2.7-2.4,4.2-3.6,3.1
					c-0.6,3.5,0.5,5.1,1.4,6.9c-1.3,0.7-3.9,0-3.6,2.3c3.6-0.6,7.2-1.1,11.5-0.8C291.2,266,290.8,263.9,293.5,261.7z"/>
				<path class="st0" d="M274,264.7c1.7-0.8,4.4-0.5,5.8-1.5c-0.8-3.2-0.2-3.4,0-6.9c-1.2,0-2.4,0-3.6,0c0,3.4-1.6,1-2.9,2.3
					C273.5,260.8,273,263.6,274,264.7z"/>
				<path class="st0" d="M520.2,287c1.4,0.1,0.5,2.5,2.2,2.3c1.6-1.9,1.3-5.7,4.3-6.1c-3.8-0.6-6.1-2.7-10-3.1
					c0.5,3.6-0.8,5.3-0.7,8.4C517.8,290.6,517.6,286.5,520.2,287z"/>
				<path class="st0" d="M503.7,310.7c-0.1,2.7,1.7,3.3,2.9,4.6c0.5-2.8,2.2-4.2,4.3-5.4c1,0,1.5,0.4,2.1,0.8c2.3-3,7-3.2,9.3-6.1
					c-0.1-5.5-1.6-9.6-1.4-15.3c-1,0-1.9,0-2.9,0c0.9,3.6-0.4,5.3,0.7,9.2c-0.6,0.2-0.8,0.7-0.7,1.6c-2.6,1.2-3.8,2.1-6.5,4.6
					c-2.5,1.4-7.1,0.6-7.2,4.6c-0.3,2.1,3.9-0.6,3.6,1.5C506.5,310.7,505.1,310.7,503.7,310.7z"/>
				<path class="st0" d="M328.6,304.6c0.2,2.1,2.4,0.6,4.3,2.3c0.5-2.9-1.1-3.4-3.6-3.1C329.4,304.4,329,304.5,328.6,304.6z"/>
				<path class="st0" d="M488.6,330.6c1.2,1.1,1.9,2.6,2.2,4.6c3-0.2,2.7-3.8,2.9-6.9C491.8,326.6,489.4,328.9,488.6,330.6z"/>
				<path class="st0" d="M156.4,328.3c0,1,0,2,0,3.1c0.9,0,1.9,0,2.9,0C159.2,329.5,158.3,328.4,156.4,328.3z"/>
				<path class="st0" d="M164.3,332.1c0.2-1.8-0.1-2.9-0.7-3.8c-0.7,0-1.4,0-2.2,0C161.2,331,161.6,332.7,164.3,332.1z"/>
				<path class="st0" d="M165,331.4c0,1.3,0,2.5,0,3.8c1.5,0.3,1.9-0.5,2.9-0.8C167.8,332.5,166.9,331.5,165,331.4z"/>
				<path class="st0" d="M163.6,343.7c2.6-0.4,3.5,0.9,5.1,1.5c0.1-2.2,3-1.4,5-1.5c-1-5.1-5-4.4-9.3-4.6c0.5-2.1-1.5-1.5-1.5-3.1
					c-1.6-0.9-3.9-0.9-4.3-3.1c-3.6,0-7.2,0-10.7,0c-0.3,1.5-1.6,1.9-1.5,3.8c2.9,0.3,2.9-2.5,6.5-1.5c3,0.6,3.4,4.1,6.5,4.6
					c1.7,0.5,5.2-1,5.7,0.8C162.4,340.7,163.2,341.7,163.6,343.7z"/>
				<path class="st0" d="M170.7,335.2c-0.2-1-1.8-0.6-2.9-0.8C166.4,337.3,171.5,337.9,170.7,335.2z"/>
				<path class="st0" d="M491.5,343.7c1.1,1.9,2.6,3.4,4.3,4.6c0.9-2.4,3.3-3.1,2.9-6.9C496.7,338.6,491.4,339.8,491.5,343.7z"/>
				<path class="st0" d="M474.2,346c2-0.4,2-3,2.9-4.6c-0.6-0.6-1.6-0.8-2.9-0.8C472.9,343.6,473.3,341.2,474.2,346z"/>
				<path class="st0" d="M155.7,342.1c0,1,0,2.1,0,3.1c2.4-0.8,2.5,0.2,5-0.8C161.2,341.4,158,342.2,155.7,342.1z"/>
				<path class="st0" d="M175,345.2c2.6,0.2,5,0.2,4.3-3.1c-1.4,0-2.9,0-4.3,0C175,343.1,175,344.2,175,345.2z"/>
				<path class="st0" d="M250.4,345.2c0,1.5-1.9,1-1.4,3.1c1,0,1.9,0,2.9,0C252,346.5,251.6,345.4,250.4,345.2z"/>
				<path class="st0" d="M497.2,357.5c1.5,1.6,2-0.4,4.3,0c-0.2,1.8-1.5,3.3,0.7,3.8c1-2.2,3-3.4,6.4-3.1c0.7-3.5-2.3-3.2-3.6-4.6
					c0.2-2.5-0.8-3.7-2.9-3.8c-1,1-0.7,3.3-0.7,5.4C499.1,353.8,498.4,355.6,497.2,357.5z"/>
				<path class="st0" d="M426.2,359.7c1,4.5-2.7,5.5,0,7.7c2.3,0.4,1.9-2,3.6-2.3C429.2,362.7,427.7,361.2,426.2,359.7z"/>
				<path class="st0" d="M473.5,380.5c0.7,3.1,3.8,3.6,3.6,7.6c4.6-1.1,3.9,3.4,8.6,2.3c-0.2-1.8,2.1-0.8,2.2-2.3
					c-0.5-0.2-1.4,0-1.4-0.8c2.3-1.1,1.2-5.8,3.6-6.9c-1.6-2.5,0.6-5.1-0.7-6.9c1.2-0.7,2.5-1.4,2.1-3.8c-1.7-1.5-3.1-3.3-6.5-3.1
					C484.3,374.6,474.8,373.1,473.5,380.5z"/>
				<path class="st0" d="M459.9,375.1c-1.1-1.8-3.4-3-2.8-5.3c-2,0.5-1.5-1.5-2.9-1.5c0.1,3.4-1.8-0.1-3.6,0.8
					c0,8.9,10.1,7.1,8.6,17.6c3.5,0.4,4.5,5.5,7.9,3.8c1.7-2.9-1.5-6.3-1.4-9.9C463.5,378.9,460.9,376.7,459.9,375.1z"/>
				<path class="st0" d="M500.1,381.2c-0.2-3.4-4.5-2.3-5.8-4.6c-3.7,3.2-6.2,11.7-0.7,14.5c-0.2-2.2,0.2-3.9,1.4-4.6
					c1.6,1.5,1.7,3.9,4.3,2.3c-0.4-3.2-2.8-4.2-2.9-7.7C497.4,382.2,499.1,382.2,500.1,381.2z"/>
				<path class="st0" d="M515.9,378.1c-2.3-1.6-8.1-1.3-7.9,2.3C510.4,382.1,515.7,381.3,515.9,378.1z"/>
				<path class="st0" d="M523.8,381.2c-1.7,0-3.4,0-5,0c-0.6,1.1-1.1,2.4-2.9,2.3c-2.2,0.6-1.3-2.1-3.5-1.5c0.2,2-2.8,0.6-2.2,3.1
					c0.1,1.7,1.8-1,3.5,0c3.2,2.8,7.4,4.4,10.1,7.7c0,1.5,0,3.1,0,4.6c3.8-2.5,5,1.6,7.9,2.3c2.5-0.1,1.7-3.8,5-3.1
					c1.7,1.1,3.6,5.8,6.4,3.1c-1.5-0.7-2.2-2.3-2.2-4.6c-1.9-1.8-4.5-2.8-5.7-5.4c0-0.8,0-1.5,0-2.3
					C529.7,387.1,528.2,382.6,523.8,381.2z"/>
				<path class="st0" d="M485.7,398.8c0.4-2.7-2.5-1.9-2.1-4.6c-5.9,0.2-10-1.6-14.4-3.1c-0.6,1.4-2,2-1.4,4.6
					C474.6,395.8,477.9,399.8,485.7,398.8z"/>
				<path class="st0" d="M538.8,428.7c0.3-3.6-1.2-5.3-0.7-9.2c-1.4-0.5-1.6-2.3-2.8-3.1c-0.3-5.9-5.1-6.8-4.3-13.8
					c-1.3,0.2-1.6-0.9-2.9-0.8c-1.8,3.2,0.8,11.1-2.2,13c-2.8,1-1.4-2.5-4.3-1.5c-0.1-2.1-3.4-0.9-2.9-3.8c-0.4-2.4,3.5-0.3,2.9-3
					c-2.5-3-9.8-0.8-13.6-2.3c-1.3,0.5,0,3.6-1.4,3.8c-2.7,0.5-5,1.2-7.2,2.3c-0.9,2.3-0.3,6.4-2.9,6.9c-1.7-1.8-3.5,0.1-5.8,0
					c-1.4,0.5,0.2,4.3-1.4,4.6c-1.5-0.4-1.4-2.3-2.9-0.8c-1.8,1.9-0.9,6.6-3.6,7.7c-1.6,1.1-4.8,0.5-5.7,2.3
					c0.8,3.4,2.5,7.7,0.7,11.5c1.4,0.5,1.9,2.1,2.2,3.8c0.4,3.5-1.3,4.8-0.7,8.4c2.1-0.2,2.2,1.7,4.3,1.5c3-1.4,4.8-4.1,10-3.1
					c2.5-3.4,7.6-4.2,13.6-3.8c2,1.6,3.4,4.1,4.3,6.9c2.8-1.4,1.9,1.8,5,0c0,2,0.3,4.4-0.7,5.4c4.6,2.9,7.3,3,14.4,3.1
					c1.8-1.4,3.1-3.3,5.7-3.9c-0.3-3.9,3.4-3.4,2.8-7.6c2.5-0.2,1.9-3.7,4.3-3.8c-0.8-2.7,1.2-4.3,1.4-6.9c0.4-4.7-1.4-9.5-2.1-13.8
					C540.6,427.7,539.4,431,538.8,428.7z"/>
				<path class="st0" d="M371.7,404.2c-1.3,2.2-2.4,4.6-2.9,7.7c-3.1,0.8-4.7,3.1-6.4,5.4c-0.6,2.6,1,3,0.7,5.4
					c-0.6,1.6-1.1,3.4-2.2,4.6c1.6,3.5-0.5,6.5,2.2,9.2c2.3,0.1,3-1.4,5.7-0.8c1.6-3.4,1-5,2.9-8.4c0-1.3,0-2.6,0-3.8
					c0.2-0.9,0.8-1.2,1.4-1.5c-1.3-3.4,1.3-6.5,1.5-12.3C371.9,409.6,374.6,403.8,371.7,404.2z"/>
				<path class="st0" d="M578.3,456.3c0.1-2.2,0.1-4.2-2.1-3.8c0,2,0,4.1,0,6.1c-0.6,2.3-3.4,2-2.9,5.4c4.8-0.8,1.6,2.3,1.4,4.6
					c4.5-0.2,4.7-5.2,6.5-8.4c1.1-1.1,3-1.4,3.6-3.1C583,454.7,581.7,456.6,578.3,456.3z"/>
				<path class="st0" d="M570.4,465.5c-0.6,1.6-2.2,2.3-2.1,4.6c-1.3-0.1-2.2,0.2-2.9,0.8c-1.2,1.5-1.7,3.8-3.6,4.6
					c-3,1.2-3.8,4.6-5,7.7c2.3-1.2,3.9-0.4,6.4,0c0.7-1.8,2.9-2,2.2-5.4c1,0,2,0,2.9,0c0.2-4.4,5.6-3.1,5.7-7.6
					C573.7,467.5,571.8,466.8,570.4,465.5z"/>
				<path class="st0" d="M521.6,467.8c-0.8,1.2,2.4,4.6,2.9,6.9c3.5-0.4,5.7-2,5-6.9C526.4,468.4,522.9,466.8,521.6,467.8z"/>
				<path class="st0" d="M196.6,491.5c1,0,1.9,0,2.9,0C199.9,488.5,196.5,489,196.6,491.5z"/>
			</g>
			<g>
				<g>
					<g>
						<path class="st3" d="M95.4,187.4H73.3c-1.8,0-3.3-1.5-3.3-3.3v-29.6c0-0.7,0.6-1.2,1.2-1.2s1.2,0.6,1.2,1.2v29.6
							c0,0.4,0.4,0.8,0.8,0.8h22.1c0.4,0,0.8-0.4,0.8-0.8v-25c0-0.4-0.4-0.8-0.8-0.8c-0.7,0-1.2-0.6-1.2-1.2c0-0.7,0.6-1.2,1.2-1.2
							c1.8,0,3.3,1.5,3.3,3.3v25C98.6,185.9,97.2,187.4,95.4,187.4z"/>
					</g>
					<g>
						<path class="st3" d="M95.1,158.3H74.6c-2.5,0-4.5-2-4.5-4.5s2-4.5,4.5-4.5h22.8c0.7,0,1.2,0.6,1.2,1.2c0,0.7-0.5,1.2-1.2,1.2
							H74.6c-1.1,0-2.1,0.9-2.1,2.1c0,1.1,0.9,2.1,2.1,2.1h20.5c0.7,0,1.2,0.6,1.2,1.2S95.7,158.3,95.1,158.3z"/>
					</g>
					<g>
						<path class="st3" d="M84.3,175.4c-0.2,0-0.3,0-0.5-0.1l-3-1.3l-3,1.3c-0.4,0.2-0.8,0.1-1.2-0.1c-0.3-0.2-0.6-0.6-0.6-1v-15.6
							c0-0.7,0.6-1.2,1.2-1.2c0.7,0,1.2,0.6,1.2,1.2v13.7l1.8-0.8c0.3-0.1,0.7-0.1,1,0l1.8,0.8v-13.7c0-0.7,0.6-1.2,1.2-1.2
							c0.7,0,1.2,0.6,1.2,1.2v15.6c0,0.4-0.2,0.8-0.6,1C84.7,175.3,84.5,175.4,84.3,175.4z"/>
					</g>
				</g>
				<g>
					<g>
						<g>
							<path class="st3" d="M398,114.5c-0.9,0-1.6-0.7-1.6-1.6v-3.3c0-0.9,0.7-1.6,1.6-1.6s1.6,0.7,1.6,1.6v3.3
								C399.6,113.8,398.9,114.5,398,114.5z"/>
						</g>
						<g>
							<path class="st3" d="M398,146.3c-0.9,0-1.6-0.7-1.6-1.6v-3.3c0-0.9,0.7-1.6,1.6-1.6s1.6,0.7,1.6,1.6v3.3
								C399.6,145.6,398.9,146.3,398,146.3z"/>
						</g>
					</g>
					<g>
						<g>
							<path class="st3" d="M415.6,128.8h-3.3c-0.9,0-1.6-0.7-1.6-1.6s0.7-1.6,1.6-1.6h3.3c0.9,0,1.6,0.7,1.6,1.6
								C417.1,128.1,416.5,128.8,415.6,128.8z"/>
						</g>
						<g>
							<path class="st3" d="M383.8,128.8h-3.3c-0.9,0-1.6-0.7-1.6-1.6s0.7-1.6,1.6-1.6h3.3c0.9,0,1.6,0.7,1.6,1.6
								C385.3,128.1,384.6,128.8,383.8,128.8z"/>
						</g>
					</g>
					<g>
						<g>
							<path class="st3" d="M408.1,118.7c-0.4,0-0.8-0.2-1.1-0.5c-0.6-0.6-0.6-1.6,0-2.2l2.3-2.3c0.6-0.6,1.6-0.6,2.2,0
								s0.6,1.6,0,2.2l-2.3,2.3C408.9,118.5,408.5,118.7,408.1,118.7z"/>
						</g>
						<g>
							<path class="st3" d="M385.6,141.2c-0.4,0-0.8-0.2-1.1-0.5c-0.6-0.6-0.6-1.6,0-2.2l2.3-2.3c0.6-0.6,1.6-0.6,2.2,0
								s0.6,1.6,0,2.2l-2.3,2.3C386.4,141,386,141.2,385.6,141.2z"/>
						</g>
					</g>
					<g>
						<g>
							<path class="st3" d="M410.5,141.2c-0.4,0-0.8-0.2-1.1-0.5l-2.3-2.3c-0.6-0.6-0.6-1.6,0-2.2s1.6-0.6,2.2,0l2.3,2.3
								c0.6,0.6,0.6,1.6,0,2.2C411.2,141,410.9,141.2,410.5,141.2z"/>
						</g>
						<g>
							<path class="st3" d="M387.9,118.7c-0.4,0-0.8-0.2-1.1-0.5l-2.3-2.3c-0.6-0.6-0.6-1.6,0-2.2s1.6-0.6,2.2,0l2.3,2.3
								c0.6,0.6,0.6,1.6,0,2.2C388.7,118.5,388.3,118.7,387.9,118.7z"/>
						</g>
					</g>
					<g>
						<path class="st3" d="M398,137.2c-5.5,0-10-4.5-10-10s4.5-10,10-10s10,4.5,10,10S403.5,137.2,398,137.2z M398,120.3
							c-3.8,0-6.9,3.1-6.9,6.9c0,3.8,3.1,6.9,6.9,6.9s6.9-3.1,6.9-6.9C404.9,123.4,401.8,120.3,398,120.3z"/>
					</g>
				</g>
				<g>
					<g>
						<path class="st3" d="M135.4,210.3c-6.4,0-11.7-5.2-11.7-11.7V188c0-0.7,0.6-1.2,1.2-1.2h20.9c0.7,0,1.2,0.6,1.2,1.2v10.7
							C147.1,205.1,141.8,210.3,135.4,210.3z M126.2,189.2v9.5c0,5.1,4.1,9.2,9.2,9.2c5.1,0,9.2-4.1,9.2-9.2v-9.5H126.2z"/>
					</g>
					<g>
						<g>
							<path class="st3" d="M124.3,199.3c-4.2,0-7.7-3.5-7.7-7.7V188c0-0.7,0.6-1.2,1.2-1.2h7.2c0.7,0,1.2,0.6,1.2,1.2
								c0,0.7-0.6,1.2-1.2,1.2h-6v2.4c0,2.9,2.3,5.2,5.2,5.2c0.7,0,1.2,0.6,1.2,1.2C125.6,198.8,125,199.3,124.3,199.3z"/>
						</g>
						<g>
							<path class="st3" d="M146.5,199.3c-0.7,0-1.2-0.6-1.2-1.2c0-0.7,0.6-1.2,1.2-1.2c2.9,0,5.2-2.3,5.2-5.2v-2.4h-6
								c-0.7,0-1.2-0.6-1.2-1.2c0-0.7,0.6-1.2,1.2-1.2h7.2c0.7,0,1.2,0.6,1.2,1.2v3.6C154.2,195.9,150.7,199.3,146.5,199.3z"/>
						</g>
					</g>
					<g>
						<path class="st3" d="M135.2,215.8c-0.7,0-1.2-0.6-1.2-1.2v-5c0-0.7,0.5-1.2,1.2-1.2s1.2,0.6,1.2,1.2v5
							C136.4,215.2,135.9,215.8,135.2,215.8z"/>
					</g>
					<g>
						<path class="st3" d="M146.9,220h-23.4c-0.7,0-1.2-0.6-1.2-1.2c0-0.7,0.6-1.2,1.2-1.2h23.4c0.7,0,1.2,0.6,1.2,1.2
							C148.1,219.5,147.6,220,146.9,220z"/>
					</g>
					<g>
						<path class="st3" d="M139.8,216.2h-9.2c-0.7,0-1.2-0.5-1.2-1.2s0.5-1.2,1.2-1.2h9.2c0.7,0,1.2,0.6,1.2,1.2
							C141,215.6,140.5,216.2,139.8,216.2z"/>
					</g>
				</g>
				<g>
					<g>
						<path class="st3" d="M176.5,150.7c-3.5,0-6.3-2.8-6.3-6.3s2.8-6.3,6.3-6.3s6.3,2.8,6.3,6.3S180,150.7,176.5,150.7z
							 M176.5,140.3c-2.2,0-4.1,1.8-4.1,4.1s1.8,4.1,4.1,4.1c2.2,0,4.1-1.8,4.1-4.1S178.7,140.3,176.5,140.3z"/>
					</g>
					<g>
						<path class="st3" d="M195.8,129.1c-3.7,0-6.7-3-6.7-6.7s3-6.7,6.7-6.7s6.7,3,6.7,6.7C202.4,126.1,199.4,129.1,195.8,129.1z
							 M195.8,118c-2.4,0-4.4,2-4.4,4.4s2,4.4,4.4,4.4s4.4-2,4.4-4.4S198.2,118,195.8,118z"/>
					</g>
					<g>
						<path class="st3" d="M185.4,137L185.4,137c-0.6,0-1.1-0.5-1.1-1.1v-6.6h-6.6c-0.6,0-1.1-0.5-1.1-1.1c0-0.6,0.5-1.1,1.1-1.1
							h7.8c0.3,0,0.6,0.1,0.8,0.3c0.2,0.2,0.3,0.5,0.3,0.8v7.8C186.6,136.5,186.1,137,185.4,137z"/>
					</g>
					<g>
						<path class="st3" d="M177.7,140.1c-0.1,0-0.2,0-0.3-0.1c-0.6-0.2-0.9-0.8-0.7-1.4c1.1-3.5,3-6.6,5.6-9.1
							c0.6-0.6,1.2-1.1,1.8-1.6c0.5-0.4,1.2-0.3,1.6,0.2c0.4,0.5,0.3,1.2-0.2,1.6c-0.6,0.5-1.1,0.9-1.6,1.4c-2.3,2.3-4,5.1-5,8.2
							C178.6,139.8,178.2,140.1,177.7,140.1z"/>
					</g>
					<g>
						<path class="st3" d="M185,161.9c-5.6,0-11.2-2.1-15.5-6.4c-8.6-8.6-8.6-22.5,0-31.1c5.7-5.7,14-7.8,21.7-5.6
							c0.6,0.2,0.9,0.8,0.8,1.4c-0.2,0.6-0.8,0.9-1.4,0.8c-6.9-2-14.4-0.1-19.4,5c-7.7,7.7-7.7,20.2,0,27.9s20.2,7.7,27.9,0
							c7.5-7.5,7.7-19.6,0.4-27.4c-0.4-0.5-0.4-1.2,0.1-1.6s1.2-0.4,1.6,0.1c8.1,8.7,7.9,22.1-0.5,30.5
							C196.2,159.8,190.6,161.9,185,161.9z"/>
					</g>
					<g>
						<path class="st3" d="M191.5,147.8c-0.3,0-0.6-0.1-0.8-0.3c-0.4-0.4-0.4-1.2,0-1.6l6-6c0.4-0.4,1.2-0.4,1.6,0
							c0.4,0.4,0.4,1.2,0,1.6l-6,6C192.1,147.7,191.8,147.8,191.5,147.8z"/>
					</g>
					<g>
						<path class="st3" d="M197.5,147.8c-0.3,0-0.6-0.1-0.8-0.3l-6-6c-0.4-0.4-0.4-1.2,0-1.6c0.4-0.4,1.2-0.4,1.6,0l6,6
							c0.4,0.4,0.4,1.2,0,1.6C198.1,147.7,197.8,147.8,197.5,147.8z"/>
					</g>
				</g>
				<g>
					<g>
						<path class="st3" d="M520.8,290.1c-7.5,0-13.6-6.1-13.6-13.6s6.1-13.6,13.6-13.6s13.6,6.1,13.6,13.6
							C534.3,284,528.2,290.1,520.8,290.1z M520.8,264.8c-6.5,0-11.7,5.3-11.7,11.7c0,6.5,5.3,11.7,11.7,11.7
							c6.5,0,11.7-5.3,11.7-11.7C532.5,270,527.2,264.8,520.8,264.8z"/>
					</g>
					<g>
						<path class="st3" d="M518.5,283.2c-0.3,0-0.5-0.1-0.7-0.3l-3.6-3.8c-0.4-0.4-0.3-1,0-1.3c0.4-0.4,1-0.3,1.3,0l2.9,3.1l7.4-9
							c0.3-0.4,0.9-0.5,1.3-0.1c0.4,0.3,0.5,0.9,0.1,1.3l-8,9.8C519.1,283,518.8,283.2,518.5,283.2L518.5,283.2z"/>
					</g>
					<g>
						<path class="st3" d="M517,250.4c-0.5,0-0.9-0.4-0.9-0.9v-7.4c0-0.5,0.4-0.9,0.9-0.9s0.9,0.4,0.9,0.9v7.4
							C517.9,250,517.5,250.4,517,250.4z"/>
					</g>
					<g>
						<path class="st3" d="M488.8,250.4c-0.5,0-0.9-0.4-0.9-0.9v-7.4c0-0.5,0.4-0.9,0.9-0.9s0.9,0.4,0.9,0.9v7.4
							C489.7,250,489.3,250.4,488.8,250.4z"/>
					</g>
					<g>
						<path class="st3" d="M525.4,258.7h-45.1c-0.5,0-0.9-0.4-0.9-0.9s0.4-0.9,0.9-0.9h45.1c0.5,0,0.9,0.4,0.9,0.9
							S525.9,258.7,525.4,258.7z"/>
					</g>
					<polygon class="st3" points="490.4,263.4 486.1,263.4 486.1,267.7 490.4,267.7 					"/>
					<polygon class="st3" points="497.8,263.4 493.5,263.4 493.5,267.7 497.8,267.7 					"/>
					<polygon class="st3" points="505.3,263.4 501,263.4 501,267.7 505.3,267.7 					"/>
					<polygon class="st3" points="512.7,263.4 508.4,263.4 508.4,267.7 512.7,267.7 					"/>
					<polygon class="st3" points="490.4,270.3 486.1,270.3 486.1,274.6 490.4,274.6 					"/>
					<polygon class="st3" points="497.8,270.3 493.5,270.3 493.5,274.6 497.8,274.6 					"/>
					<polygon class="st3" points="505.3,270.3 501,270.3 501,274.6 505.3,274.6 					"/>
					<g>
						<path class="st3" d="M509.3,282.9H480c-0.5,0-0.9-0.4-0.9-0.9v-36.2c0-0.5,0.4-0.9,0.9-0.9h45.5c0.5,0,0.9,0.4,0.9,0.9v19
							h-1.9v-18h-43.6v34.3h28.3v1.8H509.3z"/>
					</g>
				</g>
				<g>
					<g>
						<path class="st3" d="M316.5,147c-10.1,0-18.3-8.2-18.3-18.3s8.2-18.3,18.3-18.3c10.1,0,18.3,8.2,18.3,18.3
							S326.6,147,316.5,147L316.5,147z M300.2,128.7c0,9,7.3,16.3,16.3,16.3s16.3-7.3,16.3-16.3s-7.3-16.3-16.3-16.3
							C307.5,112.4,300.2,119.7,300.2,128.7z"/>
					</g>
					<g>
						<path class="st3" d="M304.4,128.7c0-6.7,5.4-12.1,12.1-12.1s12.1,5.4,12.1,12.1s-5.4,12.1-12.1,12.1S304.4,135.4,304.4,128.7z
							 M306.4,128.7c0,5.6,4.5,10.1,10.1,10.1s10.1-4.5,10.1-10.1c0-5.6-4.5-10.1-10.1-10.1S306.4,123.1,306.4,128.7z"/>
					</g>
					<g>
						<path class="st3" d="M289.6,157l-1.4-1.4c-0.8-0.8-1.2-1.8-1.2-2.9c0-1.1,0.4-2.1,1.2-2.9l6.3-6.4c1.5-1.5,4.2-1.5,5.8,0
							l1.4,1.4c1.6,1.6,1.6,4.2,0,5.8l-6.4,6.4c-0.8,0.8-1.8,1.2-2.9,1.2C291.4,158.2,290.4,157.8,289.6,157z M296,144.9l-6.3,6.4
							c-0.4,0.4-0.6,0.9-0.6,1.4s0.2,1.1,0.6,1.4l1.4,1.4c0.8,0.8,2.1,0.8,2.9,0l6.4-6.4c0.8-0.8,0.8-2.1,0-2.9l-1.4-1.4
							c-0.4-0.4-0.9-0.6-1.4-0.6C296.8,144.3,296.3,144.5,296,144.9z"/>
					</g>
					<g>
						<path class="st3" d="M301,145.2c0.3,0,0.5-0.1,0.7-0.3l3.2-3.2c0.4-0.4,0.4-1,0-1.4s-1-0.4-1.4,0l-3.2,3.2
							c-0.4,0.4-0.4,1,0,1.4C300.5,145.1,300.7,145.2,301,145.2z"/>
					</g>
				</g>
			</g>
			<g>
				<g>
					<path class="st4" d="M231.7,436.7c0.3,2.7,2.5,4.9,5.3,4.9h107.6c2.8,0,5-2.2,5.3-4.9H231.7z"/>
					<g>
						<path class="st5" d="M136.8,435.7h308h8V240c0-4.4-3.6-8.1-8-8.1h-308c-4.5,0-8.1,3.6-8.1,8.1v195.8L136.8,435.7L136.8,435.7z
							"/>
						<path class="st5" d="M452.8,436.4H128.7c-0.4,0-0.7-0.3-0.7-0.7V240c0-4.8,3.9-8.8,8.8-8.8h308c4.8,0,8.7,3.9,8.7,8.8v195.8
							C453.5,436.1,453.2,436.4,452.8,436.4z M129.4,435h322.7V240c0-4.1-3.3-7.4-7.3-7.4h-308c-4.1,0-7.4,3.3-7.4,7.4L129.4,435
							L129.4,435z"/>
					</g>
					<g>
						<rect x="148.8" y="251.3" class="st6" width="284" height="164.6"/>
					</g>
					<rect x="150" y="252.5" class="st7" width="281.6" height="16.9"/>
					<g>
						<path class="st8" d="M482.7,436.7H349.9c-0.3,2.7-2.5,4.9-5.3,4.9H237c-2.8,0-5-2.2-5.3-4.9H98.8c0,0.7-0.2,1.3-0.2,1.9v5.8
							c0,9.6,7.8,10.2,17.5,10.2h349.3c9.6,0,17.5-0.6,17.5-10.2v-5.8C482.9,438,482.8,437.3,482.7,436.7z"/>
					</g>
					<g>
						<g>
							<rect x="161.4" y="260.1" class="st8" width="25.8" height="2.8"/>
						</g>
						<g>
							<rect x="194.1" y="260.1" class="st8" width="25.8" height="2.8"/>
						</g>
						<g>
							<rect x="226.8" y="260.1" class="st8" width="25.8" height="2.8"/>
						</g>
						<g>
							<rect x="259.5" y="260.1" class="st8" width="25.8" height="2.8"/>
						</g>
						<g>
							<rect x="292.2" y="260.1" class="st8" width="25.8" height="2.8"/>
						</g>
						<g>
							<rect x="324.9" y="260.1" class="st8" width="25.8" height="2.8"/>
						</g>
					</g>
				</g>
				<rect x="168.9" y="299.2" class="st9" width="77.5" height="44.6"/>
				<rect x="254.4" y="299.2" class="st9" width="77.5" height="44.6"/>
				<rect x="168.9" y="352.7" class="st9" width="77.5" height="44.6"/>
				<rect x="254.4" y="352.7" class="st9" width="77.5" height="44.6"/>
				<rect x="338" y="352.7" class="st9" width="77.5" height="44.6"/>
				<rect x="338" y="299.2" class="st9" width="77.5" height="44.6"/>
			</g>
			<g>
				<g>
					<g>
						<g>
							<g>
								<path class="st5" d="M527.8,306.7h-118c-4.8,0-8.6,3.9-8.6,8.6v155.4c0,4.7,3.8,8.6,8.6,8.6h118c4.7,0,8.6-3.9,8.6-8.6
									V315.3C536.3,310.5,532.5,306.7,527.8,306.7z"/>
								<path class="st5" d="M527.8,479.8h-118c-5.1,0-9.2-4.1-9.2-9.2V315.3c0-5.1,4.1-9.2,9.2-9.2h118c5.1,0,9.2,4.1,9.2,9.2
									v155.4C536.9,475.7,532.8,479.8,527.8,479.8z M409.7,307.2c-4.4,0-8,3.6-8,8.1v155.4c0,4.4,3.6,8,8,8h118c4.4,0,8-3.6,8-8
									V315.3c0-4.4-3.6-8.1-8-8.1L409.7,307.2L409.7,307.2z"/>
							</g>
							<g>
								<rect x="408.4" y="316" class="st6" width="120.7" height="153.9"/>
							</g>
						</g>
					</g>
				</g>
			</g>
			<g>
				<path class="st7" d="M495.2,413.7h-7.6c0.1-0.2,0.1-0.4,0.2-0.5c0.5-1.2,0.9-2.3,0.2-3c-0.2-0.2-0.5-0.4-1-0.4
					c-0.6,0-1.3,0.3-2.1,0.6c-0.3,0.1-0.7,0.3-1,0.4c0-0.3,0.1-0.8,0.2-1.1c0.2-1.3,0.5-2.5-0.4-3c-0.7-0.5-1.8,0.1-2.9,0.8
					c-0.3,0.2-0.7,0.4-0.9,0.6c0-0.3,0-0.8,0-1.1c0-1.3,0-2.5-1-2.9c-0.1,0-0.3-0.1-0.4-0.1c-0.8,0-1.4,0.7-2.2,1.5
					c-0.2,0.2-0.6,0.6-0.8,0.8c-0.1-0.3-0.2-0.8-0.3-1.1c-0.3-1.3-0.5-2.5-1.5-2.7c-0.1,0-0.2,0-0.2,0c-0.9,0-1.4,0.9-2.1,1.9
					c-0.2,0.3-0.4,0.7-0.7,0.9c-0.2-0.3-0.3-0.7-0.5-1c-0.5-1.2-1-2.3-2-2.3s-1.4,1.1-2,2.3c-0.1,0.3-0.3,0.7-0.5,1
					c-0.2-0.3-0.5-0.6-0.7-0.9c-0.7-1-1.3-1.9-2.2-1.9c-0.1,0-0.2,0-0.2,0c-1,0.2-1.2,1.3-1.5,2.7c-0.1,0.3-0.2,0.8-0.2,1.1
					c-0.3-0.2-0.6-0.5-0.8-0.8c-0.8-0.8-1.5-1.5-2.2-1.5c-0.1,0-0.4,0-0.5,0.1c-0.9,0.4-0.9,1.5-0.9,2.9c0,0.3,0,0.8,0,1.1
					c-0.3-0.2-0.7-0.4-1-0.6c-1.2-0.7-2.2-1.3-2.9-0.8c-0.8,0.6-0.6,1.7-0.3,3c0.1,0.3,0.1,0.8,0.2,1.1c-0.3-0.1-0.7-0.3-1-0.4
					c-0.8-0.3-1.5-0.6-2.1-0.6c-0.5,0-0.8,0.2-1,0.4c-0.7,0.7-0.3,1.8,0.3,3c0.1,0.1,0.1,0.3,0.2,0.5h-9.1c-5.1,0-9.2,4.2-9.2,9.2
					l0.1,14.2c0,5.1,4.2,9.2,9.2,9.2h9.1c-0.1,0.2-0.1,0.4-0.2,0.5c-0.5,1.2-0.9,2.3-0.2,3c0.2,0.2,0.5,0.4,0.9,0.4
					c0.6,0,1.3-0.3,2.1-0.6c0.3-0.1,0.7-0.3,1-0.4c0,0.3-0.1,0.8-0.2,1.1c-0.2,1.3-0.5,2.5,0.4,3c0.7,0.5,1.8-0.1,2.9-0.8
					c0.3-0.2,0.7-0.4,1-0.6c0,0.3,0,0.8,0,1.1c0,1.3,0,2.5,1,2.9c0.1,0,0.3,0.1,0.5,0.1c0.8,0,1.4-0.7,2.2-1.5
					c0.2-0.2,0.6-0.6,0.8-0.8c0.1,0.3,0.2,0.8,0.3,1.1c0.3,1.3,0.5,2.5,1.5,2.7c0.1,0,0.2,0,0.2,0c0.9,0,1.5-0.9,2.1-1.9
					c0.2-0.3,0.4-0.7,0.7-0.9c0.2,0.3,0.3,0.7,0.5,1c0.5,1.2,1,2.3,2,2.3s1.5-1.1,2-2.3c0.1-0.3,0.3-0.7,0.5-1
					c0.2,0.3,0.5,0.7,0.7,0.9c0.7,1,1.3,1.9,2.1,1.9c0.1,0,0.2,0,0.2,0c1-0.2,1.2-1.3,1.5-2.7c0.1-0.3,0.2-0.8,0.2-1.1
					c0.3,0.2,0.6,0.5,0.8,0.8c0.8,0.8,1.5,1.5,2.2,1.5c0.1,0,0.4,0,0.5-0.1c0.9-0.4,0.9-1.5,0.9-2.9c0-0.3,0-0.8,0-1.1
					c0.3,0.2,0.7,0.4,1,0.6c1.2,0.8,2.2,1.3,2.9,0.8c0.8-0.6,0.6-1.7,0.3-3c-0.1-0.3-0.1-0.8-0.2-1.1c0.3,0.1,0.7,0.3,1,0.4
					c0.8,0.3,1.5,0.6,2.1,0.6c0.5,0,0.8-0.2,0.9-0.4c0.7-0.7,0.3-1.8-0.2-3c-0.1-0.1-0.1-0.3-0.2-0.5h7.6c5.1,0,9.2-4.2,9.2-9.2
					l-0.1-14.2C504.4,417.8,500.3,413.7,495.2,413.7z"/>
				<path class="st8" d="M450.8,412.2c1.2,0.5,2.3,0.8,2.9,0.3c0.7-0.6,0.5-1.7,0.3-2.9c0-0.3-0.1-0.6-0.2-0.9
					c0.3,0.2,0.6,0.4,0.8,0.5c1.1,0.7,2.1,1.3,2.8,0.9c0.8-0.4,0.8-1.5,0.8-2.8c0-0.3,0-0.6,0-0.9c0.2,0.2,0.5,0.5,0.7,0.6
					c0.8,0.8,1.5,1.5,2.3,1.5c0.1,0,0.3,0,0.3-0.1c0.9-0.3,1.1-1.4,1.4-2.6c0.1-0.3,0.1-0.6,0.2-0.9c0.2,0.2,0.4,0.5,0.5,0.8
					c0.7,1,1.3,1.9,2.3,1.9l0,0c0.9-0.1,1.3-1.1,1.8-2.3c0.1-0.3,0.3-0.6,0.4-0.9c0.1,0.3,0.3,0.6,0.4,0.9c0.5,1.2,0.9,2.2,2,2.3
					c0.9,0,1.5-0.9,2.2-1.9c0.1-0.2,0.3-0.5,0.5-0.8c0.1,0.3,0.2,0.7,0.2,0.9c0.3,1.3,0.5,2.3,1.4,2.6c0.1,0,0.3,0,0.3,0
					c0.8,0,1.4-0.7,2.2-1.5c0.2-0.2,0.5-0.5,0.7-0.7c0,0.3,0,0.7,0,1c0,1.3,0,2.4,0.8,2.8c0.7,0.4,1.7-0.2,2.8-0.9
					c0.2-0.1,0.5-0.4,0.8-0.5c0,0.3-0.1,0.7-0.2,0.9c-0.2,1.3-0.4,2.4,0.3,2.9c0.6,0.5,1.7,0.2,2.9-0.3c0.3-0.1,0.6-0.2,0.9-0.3
					c-0.1,0.3-0.2,0.6-0.3,0.9c-0.2,0.4-0.3,0.8-0.4,1.1l-35.1,0.1c-0.1-0.4-0.3-0.7-0.4-1.1c-0.1-0.2-0.2-0.6-0.3-0.9
					C450.2,411.9,450.5,412.1,450.8,412.2z"/>
				<path class="st8" d="M485.8,448c-1.2-0.5-2.3-0.8-2.9-0.3c-0.7,0.6-0.5,1.7-0.3,2.9c0,0.3,0.1,0.6,0.2,0.9
					c-0.3-0.2-0.6-0.4-0.8-0.5c-1.1-0.7-2.1-1.3-2.8-0.9c-0.8,0.4-0.8,1.5-0.8,2.8c0,0.3,0,0.6,0,0.9c-0.2-0.2-0.5-0.5-0.7-0.6
					c-0.8-0.8-1.5-1.5-2.3-1.5c-0.1,0-0.3,0-0.3,0.1c-0.9,0.3-1.1,1.4-1.4,2.6c-0.1,0.3-0.1,0.6-0.2,0.9c-0.2-0.2-0.4-0.5-0.5-0.8
					c-0.7-1-1.3-1.9-2.3-1.9l0,0c-0.9,0.1-1.3,1.1-1.8,2.3c-0.1,0.3-0.3,0.6-0.4,0.9c-0.1-0.3-0.3-0.6-0.4-0.9
					c-0.5-1.2-0.9-2.2-2-2.3c-0.9,0-1.5,0.9-2.2,1.9c-0.1,0.2-0.3,0.5-0.5,0.8c-0.1-0.3-0.2-0.7-0.2-0.9c-0.3-1.3-0.5-2.3-1.4-2.6
					c-0.1,0-0.3,0-0.4,0c-0.8,0-1.4,0.7-2.2,1.5c-0.2,0.2-0.5,0.5-0.7,0.7c0-0.3,0-0.7,0-1c0-1.3,0-2.4-0.8-2.8
					c-0.7-0.4-1.7,0.2-2.8,0.9c-0.2,0.1-0.5,0.3-0.8,0.5c0-0.3,0.1-0.7,0.2-0.9c0.2-1.3,0.4-2.4-0.3-2.9c-0.6-0.5-1.7-0.2-2.9,0.3
					c-0.3,0.1-0.6,0.2-0.9,0.3c0.1-0.3,0.2-0.6,0.3-0.9c0.2-0.4,0.3-0.8,0.4-1.1l35.1-0.1c0.1,0.4,0.3,0.7,0.4,1.1
					c0.1,0.2,0.2,0.6,0.3,0.9C486.4,448.2,486,448.1,485.8,448z"/>
			</g>
			<g>
				<g>
					<path class="st10" d="M374.5,362.7V387c0,6.5,5.3,11.8,11.8,11.8s11.8-5.3,11.8-11.8v-24.3H374.5z"/>
					<path class="st11" d="M398,362.7V387c0,6.5,5.3,11.8,11.8,11.8s11.8-5.3,11.8-11.8v-24.3H398z"/>
					<path class="st10" d="M421.6,362.7V387c0,6.5,5.3,11.8,11.8,11.8s11.8-5.3,11.8-11.8v-24.3H421.6z"/>
					<path class="st11" d="M445.2,362.7V387c0,6.5,5.3,11.8,11.8,11.8s11.8-5.3,11.8-11.8v-24.3H445.2z"/>
					<path class="st10" d="M468.7,362.7V387c0,6.5,5.3,11.8,11.8,11.8s11.8-5.3,11.8-11.8v-24.3H468.7z"/>
					<path class="st11" d="M492.3,362.7V387c0,6.5,5.3,11.8,11.8,11.8s11.8-5.3,11.8-11.8v-24.3H492.3z"/>
					<path class="st10" d="M515.9,362.7V387c0,6.5,5.3,11.8,11.8,11.8s11.8-5.3,11.8-11.8v-24.3H515.9z"/>
					<path class="st11" d="M539.4,362.7V387c0,6.5,5.3,11.8,11.8,11.8S563,393.5,563,387v-24.3H539.4z"/>
				</g>
				<g>
					<path class="st7" d="M408.5,324c-11.3,12.9-22.7,25.7-34,38.6c7.9,0,15.7,0,23.6,0c8.5-12.9,17-25.7,25.5-38.6
						C418.5,324,413.5,324,408.5,324z"/>
					<path class="st8" d="M423.5,324c-8.5,12.9-17,25.7-25.5,38.6c7.9,0,15.7,0,23.6,0c5.7-12.9,11.3-25.7,17-38.6
						C433.6,324,428.6,324,423.5,324z"/>
					<path class="st7" d="M438.6,324c-5.7,12.9-11.3,25.7-17,38.6c7.9,0,15.7,0,23.6,0c2.8-12.9,5.7-25.7,8.5-38.6
						C448.6,324,443.6,324,438.6,324z"/>
					<path class="st8" d="M453.7,324c-2.8,12.9-5.7,25.7-8.5,38.6c7.9,0,15.7,0,23.6,0c0-12.9,0-25.7,0-38.6
						C463.7,324,458.7,324,453.7,324z"/>
					<path class="st7" d="M468.7,324c0,12.9,0,25.7,0,38.6c7.9,0,15.7,0,23.6,0c-2.8-12.9-5.7-25.7-8.5-38.6
						C478.8,324,473.8,324,468.7,324z"/>
					<path class="st8" d="M483.8,324c2.8,12.9,5.7,25.7,8.5,38.6c7.9,0,15.7,0,23.6,0c-5.7-12.9-11.3-25.7-17-38.6
						C493.8,324,488.8,324,483.8,324z"/>
					<path class="st7" d="M498.9,324c5.7,12.9,11.3,25.7,17,38.6c7.9,0,15.7,0,23.6,0c-8.5-12.9-17-25.7-25.5-38.6
						C508.9,324,503.9,324,498.9,324z"/>
					<path class="st8" d="M539.4,362.5c7.9,0,15.7,0,23.6,0c-11.3-12.9-22.7-25.7-34-38.6c-5,0-10,0-15.1,0
						C522.4,336.8,530.9,349.7,539.4,362.5z"/>
				</g>
				<g>
					<rect x="408.4" y="316" class="st10" width="15.1" height="8"/>
					<rect x="423.4" y="316" class="st11" width="15.1" height="8"/>
					<rect x="438.5" y="316" class="st10" width="15.1" height="8"/>
					<rect x="453.6" y="316" class="st11" width="15.1" height="8"/>
					<rect x="468.7" y="316" class="st10" width="15.1" height="8"/>
					<rect x="483.8" y="316" class="st11" width="15.1" height="8"/>
					<rect x="498.9" y="316" class="st10" width="15.1" height="8"/>
					<rect x="514" y="316" class="st11" width="15.1" height="8"/>
				</g>
			</g>
			<g>
				<path class="st12" d="M530,156.8h-28.6v36.1c0,2.3-1.7,4.1-3.8,4.1H453v10.6c0,2.3,1.7,4.1,3.8,4.1h47.5l18.2,15.4v-15.4h7.4
					c2.1,0,3.8-1.8,3.8-4.1v-46.7C533.8,158.6,532.1,156.8,530,156.8z"/>
				<g>
					<path class="st8" d="M430,216.5v-17.6h-5.5c-3.2,0-5.7-2.7-5.7-6v-46.7c0-3.3,2.6-6,5.7-6h73.1c3.2,0,5.7,2.7,5.7,6v46.7
						c0,3.3-2.6,6-5.7,6h-46.8L430,216.5z M424.4,143.9c-1.1,0-1.9,1-1.9,2.2v46.7c0,1.2,0.9,2.2,1.9,2.2h9.3v13.2l15.6-13.2h48.2
						c1.1,0,1.9-1,1.9-2.2v-46.7c0-1.2-0.9-2.2-1.9-2.2H424.4z"/>
				</g>
				<g>
					<rect x="432.7" y="158.7" class="st8" width="56.6" height="3.8"/>
				</g>
				<g>
					<rect x="432.7" y="169.9" class="st8" width="56.6" height="3.8"/>
				</g>
				<g>
					<rect x="432.7" y="181.1" class="st8" width="44.1" height="3.8"/>
				</g>
			</g>
			<path class="st13" d="M204.6,325.6c0,4.9-4,8.9-8.9,8.9h-5.2v9.7l-13.5-9.7H93.5c-4.9,0-8.9-4-8.9-8.9v-18.1c0-4.9,4-8.9,8.9-8.9
				h102.3c4.9,0,8.9,4,8.9,8.9L204.6,325.6L204.6,325.6z"/>
			<g class="st14">
				<path class="st8" d="M101.6,323.5L101.6,323.5l2.4-16.3h2.9l-3.1,20h-4.7l-3.1-20h3.2L101.6,323.5z"/>
				<path class="st8" d="M117.7,311.8v0.7c0,2.1-0.6,3.3-2,4v0.1c1.7,0.7,2.3,2.1,2.3,4.3v1.6c0,3.1-1.6,4.7-4.8,4.7h-4.9v-20h4.7
					C116.3,307.2,117.7,308.7,117.7,311.8z M111.5,310.1v5.3h1.2c1.2,0,1.9-0.5,1.9-2.1v-1.1c0-1.4-0.5-2.1-1.6-2.1H111.5z
					 M111.5,318.2v6.1h1.8c1.1,0,1.6-0.5,1.6-2v-1.7c0-1.9-0.6-2.4-2-2.4H111.5z"/>
				<path class="st8" d="M122.8,324.2v3h-3v-3H122.8z"/>
				<path class="st8" d="M128,312.7L128,312.7l-0.1,14.5h-2.8v-20h3.9l3.2,12h0.1v-12h2.8v20h-3.2L128,312.7z"/>
				<path class="st8" d="M140.4,315.6h4.3v2.9h-4.3v5.9h5.4v2.9h-8.6v-20h8.6v2.9h-5.4V315.6z"/>
				<path class="st8" d="M146.9,307.2h9.7v2.9h-3.3v17.1h-3.1v-17.1h-3.3V307.2z"/>
				<path class="st8" d="M164.4,309.7c2.4,0,3-1.2,3.5-2.5h2.1v20h-3.1V312h-2.4V309.7z"/>
				<path class="st8" d="M176.7,324.2v3h-3v-3H176.7z"/>
				<path class="st8" d="M181,309.7c2.4,0,3-1.2,3.5-2.5h2.1v20h-3.1V312H181V309.7z"/>
			</g>
			<g class="st14">
				<path class="st8" d="M456.4,436.5L456.4,436.5l2.4-16.3h2.9l-3.1,20H454l-3.1-20h3.2L456.4,436.5z"/>
				<path class="st8" d="M472.6,424.8v0.7c0,2.1-0.6,3.3-2,4v0.1c1.7,0.7,2.3,2.1,2.3,4.3v1.6c0,3.1-1.6,4.7-4.8,4.7h-4.9v-20h4.7
					C471.2,420.2,472.6,421.7,472.6,424.8z M466.3,423v5.3h1.2c1.2,0,1.9-0.5,1.9-2.1v-1.1c0-1.4-0.5-2.1-1.6-2.1H466.3z
					 M466.3,431.1v6.1h1.8c1.1,0,1.6-0.5,1.6-2v-1.7c0-1.9-0.6-2.4-2-2.4H466.3z"/>
				<path class="st8" d="M474.6,425.1c0-3.4,1.5-5.2,4.8-5.2c3.1,0,4.7,1.8,4.7,5v0.5h-3v-0.7c0-1.4-0.6-2-1.6-2
					c-1.1,0-1.7,0.5-1.7,2.5v3.6h0.1c0.5-1.1,1.5-1.7,2.9-1.7c2.3,0,3.5,1.6,3.5,4.6v3.7c0,3.2-1.7,5-4.8,5s-4.8-1.8-4.8-5V425.1z
					 M477.7,431.9v3.6c0,1.4,0.6,1.9,1.6,1.9s1.6-0.5,1.6-1.9v-3.6c0-1.4-0.6-2-1.6-2S477.7,430.5,477.7,431.9z"/>
			</g>
			<g>
				<g>
					<path class="st3" d="M295.7,477.7h-3.9c-0.8,0-1.5-0.7-1.5-1.5v-1.9c-0.6-0.1-1.2-0.3-1.7-0.4l-1,1.7c-0.3,0.4-0.7,0.7-1.3,0.7
						c-0.3,0-0.5-0.1-0.7-0.2l-3.4-2c-0.3-0.2-0.6-0.5-0.7-0.9s0-0.8,0.1-1.1l0.9-1.6c-0.4-0.4-0.9-0.8-1.3-1.2l-1.7,1
						c-0.2,0.1-0.5,0.2-0.7,0.2c-0.5,0-1-0.3-1.3-0.7l-2-3.4c-0.4-0.7-0.2-1.6,0.5-2l1.6-0.9c-0.2-0.6-0.4-1.1-0.5-1.7h-2
						c-0.8,0-1.5-0.7-1.5-1.5v-3.9c0-0.8,0.7-1.5,1.5-1.5h1.9c0.1-0.6,0.3-1.2,0.4-1.7l-1.7-1c-0.3-0.2-0.6-0.5-0.7-0.9
						s0-0.8,0.1-1.1l2-3.4c0.3-0.5,0.8-0.7,1.3-0.7c0.3,0,0.5,0.1,0.7,0.2l1.6,0.9c0.4-0.4,0.8-0.9,1.2-1.3l-1-1.7
						c-0.2-0.3-0.2-0.7-0.1-1.1s0.3-0.7,0.7-0.9l3.4-2c0.2-0.1,0.5-0.2,0.7-0.2c0.5,0,1,0.3,1.3,0.7l0.9,1.6
						c0.6-0.2,1.1-0.4,1.7-0.5v-2c0-0.8,0.7-1.5,1.5-1.5h3.9c0.8,0,1.5,0.7,1.5,1.5v1.9c0.6,0.1,1.2,0.3,1.7,0.4l1-1.7
						c0.3-0.4,0.7-0.7,1.3-0.7c0.3,0,0.5,0.1,0.7,0.2l3.4,2c0.7,0.4,0.9,1.3,0.5,2l-0.9,1.6c0.4,0.4,0.9,0.8,1.3,1.2l1.7-1
						c0.2-0.1,0.5-0.2,0.7-0.2c0.5,0,1,0.3,1.3,0.7l2,3.4c0.4,0.7,0.2,1.6-0.5,2l-1.6,0.9c0.2,0.6,0.4,1.1,0.5,1.7h2
						c0.4,0,0.8,0.2,1,0.4c0.3,0.3,0.4,0.6,0.4,1v3.9c0,0.8-0.7,1.5-1.5,1.5h-1.9c-0.1,0.6-0.3,1.2-0.4,1.7l1.7,1
						c0.7,0.4,0.9,1.3,0.5,2l-2,3.4c-0.3,0.4-0.7,0.7-1.3,0.7c-0.3,0-0.5-0.1-0.7-0.2L306,469c-0.4,0.4-0.8,0.9-1.2,1.3l1,1.7
						c0.4,0.7,0.2,1.6-0.5,2l-3.4,2c-0.2,0.1-0.5,0.2-0.7,0.2c-0.5,0-1-0.3-1.3-0.7l-0.9-1.6c-0.6,0.2-1.1,0.3-1.7,0.5v2
						C297.1,477,296.5,477.7,295.7,477.7z M288.1,472.8l0.4,0.1c0.8,0.3,1.6,0.5,2.3,0.6l0.4,0.1v2.7c0,0.3,0.2,0.5,0.5,0.5h3.9
						c0.3,0,0.5-0.2,0.5-0.5v-2.7l0.4-0.1c0.8-0.2,1.6-0.4,2.3-0.7l0.4-0.1l1.3,2.3c0.1,0.2,0.5,0.3,0.7,0.2l3.4-2
						c0.2-0.1,0.3-0.5,0.2-0.7l-1.4-2.4l0.3-0.3c0.6-0.5,1.2-1.1,1.7-1.7l0.3-0.3l2.3,1.3c0.2,0.1,0.6,0,0.7-0.2l2-3.4
						c0.1-0.2,0.1-0.6-0.2-0.7l-2.4-1.4l0.1-0.4c0.3-0.7,0.5-1.5,0.6-2.3l0.1-0.4h2.7c0.3,0,0.5-0.2,0.5-0.5v-3.9
						c0-0.1-0.1-0.3-0.1-0.4c-0.1-0.1-0.2-0.1-0.4-0.1h-2.7l-0.1-0.4c-0.2-0.8-0.4-1.6-0.7-2.3l-0.1-0.4l2.3-1.3
						c0.2-0.1,0.3-0.5,0.2-0.7l-2-3.4c-0.1-0.2-0.5-0.3-0.7-0.2l-2.4,1.4l-0.3-0.3c-0.5-0.6-1.1-1.2-1.7-1.7l-0.3-0.3l1.3-2.3
						c0.1-0.2,0.1-0.6-0.2-0.7l-3.4-2c-0.2-0.1-0.6,0-0.7,0.2l-1.4,2.4l-0.4-0.1c-0.7-0.3-1.5-0.5-2.3-0.6l-0.4-0.1V440
						c0-0.3-0.2-0.5-0.5-0.5h-3.9c-0.3,0-0.5,0.2-0.5,0.5v2.7l-0.4,0.1c-0.8,0.2-1.6,0.4-2.3,0.7l-0.4,0.1l-1.3-2.3
						c-0.1-0.2-0.5-0.3-0.7-0.2l-3.4,2c-0.1,0.1-0.2,0.2-0.2,0.3c0,0.1,0,0.3,0.1,0.4l1.4,2.4l-0.3,0.3c-0.6,0.5-1.2,1.1-1.7,1.7
						l-0.3,0.3l-2.3-1.3c-0.2-0.1-0.6,0-0.7,0.2l-2,3.4c-0.1,0.1-0.1,0.3-0.1,0.4s0.1,0.2,0.2,0.3l2.4,1.4l-0.1,0.4
						c-0.3,0.8-0.5,1.5-0.6,2.3l-0.1,0.4h-2.7c-0.3,0-0.5,0.2-0.5,0.5v3.9c0,0.3,0.2,0.5,0.5,0.5h2.7l0.1,0.4
						c0.2,0.8,0.4,1.6,0.7,2.3l0.1,0.4l-2.3,1.3c-0.2,0.1-0.3,0.4-0.2,0.7l2,3.4c0.1,0.2,0.5,0.3,0.7,0.2l2.4-1.4l0.3,0.3
						c0.5,0.6,1.1,1.2,1.7,1.7l0.3,0.3l-1.3,2.3c-0.1,0.1-0.1,0.3-0.1,0.4s0.1,0.2,0.2,0.3l3.4,2c0.2,0.1,0.6,0,0.7-0.2L288.1,472.8
						z M293.5,468.8c-5.9,0-10.7-4.8-10.7-10.7c0-5.9,4.8-10.7,10.7-10.7c5.9,0,10.7,4.8,10.7,10.7S299.4,468.8,293.5,468.8z
						 M293.5,448.4c-5.4,0-9.7,4.4-9.7,9.7c0,5.4,4.4,9.7,9.7,9.7c5.4,0,9.7-4.4,9.7-9.7C303.2,452.7,298.8,448.4,293.5,448.4z"/>
				</g>
			</g>
			<text transform="matrix(1 0 0 1 337.9235 224.4406)" class="st3 st15 st16 st17">&lt;code&gt;</text>
			<g>
				<path class="st18" d="M89.3,350.5c0-4.5-3.7-8.2-8.2-8.2c-1,0-1.9,0.2-2.8,0.5c-1-4.2-4.8-7.4-9.3-7.4c-5.2,0-9.4,4.2-9.5,9.3
					c-0.5-0.1-0.9-0.1-1.4-0.1c-3.9,0-7,3.1-7,7c0,3.2,2.1,5.8,5,6.7c0.6,0.2,1.2,0.3,1.8,0.3h23.6c0.7,0,1.4-0.1,2-0.4
					C86.9,357.2,89.3,354.1,89.3,350.5z"/>
				<path class="st18" d="M104.6,349.5c0-3.2-2.6-5.8-5.8-5.8c-0.7,0-1.4,0.1-2,0.4c-0.7-3-3.4-5.3-6.6-5.3c-3.7,0-6.7,3-6.8,6.7
					c-0.3-0.1-0.7-0.1-1-0.1c-2.8,0-5,2.2-5,5c0,2.3,1.5,4.2,3.6,4.8c0.4,0.1,0.9,0.2,1.3,0.2h16.9c0.5,0,1-0.1,1.5-0.3
					C102.9,354.3,104.6,352.1,104.6,349.5z"/>
			</g>
			<g>
				<g>
					<path class="st3" d="M38.1,271.1c-3.5,0-6.4-2.9-6.4-6.4s2.9-6.4,6.4-6.4s6.4,2.9,6.4,6.4C44.4,268.3,41.6,271.1,38.1,271.1z
						 M38.1,261.7c-1.7,0-3.1,1.4-3.1,3.1s1.4,3.1,3.1,3.1c1.7,0,3.1-1.4,3.1-3.1C41.2,263.1,39.8,261.7,38.1,261.7z"/>
				</g>
				<g>
					<g>
						<path class="st3" d="M64.2,257.1c-3.5,0-6.4-2.9-6.4-6.4s2.9-6.4,6.4-6.4s6.4,2.9,6.4,6.4C70.6,254.2,67.7,257.1,64.2,257.1z
							 M64.2,247.6c-1.7,0-3.1,1.4-3.1,3.1c0,1.7,1.4,3.1,3.1,3.1s3.1-1.4,3.1-3.1C67.3,249,65.9,247.6,64.2,247.6z"/>
					</g>
					<g>
						<path class="st3" d="M64.2,285.2c-3.5,0-6.4-2.9-6.4-6.4s2.9-6.4,6.4-6.4s6.4,2.9,6.4,6.4C70.6,282.3,67.7,285.2,64.2,285.2z
							 M64.2,275.7c-1.7,0-3.1,1.4-3.1,3.1s1.4,3.1,3.1,3.1s3.1-1.4,3.1-3.1C67.3,277.1,65.9,275.7,64.2,275.7z"/>
					</g>
				</g>
				<g>
					<g>
						<path class="st3" d="M59.3,277.9c-0.3,0-0.6-0.1-0.8-0.2L41.8,268c-0.8-0.5-1.1-1.5-0.6-2.2c0.4-0.8,1.5-1.1,2.2-0.6l16.8,9.7
							c0.8,0.5,1.1,1.5,0.6,2.2C60.5,277.6,59.9,277.9,59.3,277.9z"/>
					</g>
					<g>
						<path class="st3" d="M42.6,264.5c-0.6,0-1.1-0.3-1.4-0.8c-0.5-0.8-0.2-1.8,0.6-2.2l16.8-9.7c0.8-0.5,1.8-0.2,2.2,0.6
							c0.5,0.8,0.2,1.8-0.6,2.2l-16.8,9.7C43.2,264.5,42.9,264.5,42.6,264.5z"/>
					</g>
				</g>
			</g>
			<g>
				<g>
					<path class="st3" d="M242.1,509.2H235c-0.7,0-1.3-0.6-1.3-1.3v-21.5c0-0.7,0.6-1.3,1.3-1.3h7.2c0.7,0,1.3,0.6,1.3,1.3v21.5
						C243.4,508.6,242.9,509.2,242.1,509.2z M236.3,506.6h4.5v-18.9h-4.5V506.6z"/>
				</g>
				<g>
					<path class="st3" d="M230.4,509.2h-7.2c-0.7,0-1.3-0.6-1.3-1.3v-12.3c0-0.7,0.6-1.3,1.3-1.3h7.2c0.7,0,1.3,0.6,1.3,1.3v12.3
						C231.7,508.6,231.1,509.2,230.4,509.2z M224.5,506.6h4.5v-9.7h-4.5V506.6z"/>
				</g>
				<g>
					<path class="st3" d="M218.6,509.2h-7.2c-0.7,0-1.3-0.6-1.3-1.3v-5.6c0-0.7,0.6-1.3,1.3-1.3h7.2c0.7,0,1.3,0.6,1.3,1.3v5.6
						C219.9,508.6,219.4,509.2,218.6,509.2z M212.8,506.6h4.5v-3h-4.5V506.6z"/>
				</g>
				<g>
					<path class="st3" d="M233,484.8c-0.3,0-0.7-0.1-0.9-0.4c-0.5-0.5-0.5-1.3,0-1.9l4.3-4.3l-4.3-4.3c-0.5-0.5-0.5-1.3,0-1.9
						c0.5-0.5,1.3-0.5,1.9,0l5.2,5.2c0.5,0.5,0.5,1.3,0,1.9l-5.2,5.2C233.7,484.6,233.4,484.8,233,484.8z"/>
				</g>
				<g>
					<path class="st3" d="M215.4,497c-0.1,0-0.2,0-0.3,0c-0.7-0.1-1.2-0.8-1-1.5c2.1-10.7,11.4-18.5,22.3-18.5
						c0.7,0,1.3,0.6,1.3,1.3c0,0.7-0.6,1.3-1.3,1.3c-9.6,0-17.9,6.9-19.7,16.4C216.5,496.6,216,497,215.4,497z"/>
				</g>
			</g>
			<g>
				<g>
					<path class="st3" d="M238.8,100c-1.7,0-3.2-1.2-3.5-2.9l-5-21.3c-0.2-1-0.1-2,0.5-2.8c0.5-0.8,1.3-1.4,2.3-1.7l32.5-7.6
						c0.3-0.1,0.6-0.1,0.9-0.1c1.7,0,3.2,1.2,3.6,2.9l5,21.3c0.2,1,0.1,2-0.5,2.8c-0.5,0.8-1.3,1.4-2.3,1.7l-32.5,7.6
						C239.4,100,239.1,100,238.8,100z M266.4,66.2c-0.1,0-0.2,0-0.3,0l-32.5,7.6c-0.3,0.1-0.6,0.3-0.8,0.6c-0.2,0.3-0.2,0.6-0.2,0.9
						l5,21.3c0.2,0.7,0.9,1.1,1.5,0.9l32.5-7.6c0.3-0.1,0.6-0.3,0.8-0.6c0.2-0.3,0.2-0.6,0.2-1l-5-21.3
						C267.5,66.6,267,66.2,266.4,66.2z"/>
				</g>
				<g>
					<path class="st3" d="M238.8,100c-1.2,0-2.3-0.6-3-1.6l-0.5-0.7l10.5-15l2,1.4l-9.4,13.4c0.2,0.1,0.5,0.1,0.7,0l32.5-7.6
						c0.2-0.1,0.5-0.2,0.6-0.4l-14.5-7.9l1.2-2.2l16.3,8.8l-0.1,0.8c-0.2,1.5-1.3,2.8-2.8,3.1l-32.5,7.6
						C239.4,100,239.1,100,238.8,100z"/>
				</g>
				<g>
					<path class="st3" d="M254.2,88.5l-24.1-13.1l0.1-0.8c0.2-1.5,1.3-2.8,2.8-3.1l32.5-7.6c1.5-0.4,3.1,0.3,3.9,1.6l0.5,0.7
						L254.2,88.5z M233,74.2l20.5,11.1l13.4-19.1c-0.2-0.1-0.5-0.1-0.7,0l-32.5,7.6C233.3,73.9,233.1,74,233,74.2z"/>
				</g>
			</g>
			<g>
				<g>
					<path class="st3" d="M106.4,396.7c-5.4-2.1-11.2-2.8-17-2l-0.3-2.1c6.1-0.8,12.3-0.1,18,2.1L106.4,396.7z"/>
				</g>
				<g>
					<path class="st3" d="M77.8,398.4l-1-1.9c1.3-0.7,2.7-1.3,4.1-1.9l0.8,2C80.3,397.1,79,397.7,77.8,398.4z"/>
				</g>
				<g>
					<path class="st3" d="M100.1,407.2h-2.2c0-11.5-5.6-22.2-15.1-28.7l1.2-1.8C94.2,383.6,100.2,395,100.1,407.2z"/>
				</g>
				<g>
					<path class="st3" d="M96.4,383.1c-3.4-2.3-6.4-5.1-8.8-8.4l1.7-1.3c2.3,3.1,5.1,5.8,8.3,7.9L96.4,383.1z"/>
				</g>
				<g>
					<path class="st3" d="M111.5,388.9c-2.7-0.4-5.4-1.1-8-2.2l0.8-2c2.4,1,5,1.6,7.5,2L111.5,388.9z"/>
				</g>
				<g>
					<path class="st3" d="M100.4,388.9c-2.7,0-4.9-2.2-4.9-4.9c0-2.7,2.2-4.9,4.9-4.9c2.7,0,4.9,2.2,4.9,4.9
						C105.3,386.7,103.1,388.9,100.4,388.9z M100.4,381.2c-1.5,0-2.8,1.2-2.8,2.8c0,1.5,1.2,2.8,2.8,2.8c1.5,0,2.8-1.2,2.8-2.8
						C103.1,382.5,101.9,381.2,100.4,381.2z"/>
				</g>
				<g>
					<path class="st3" d="M110.2,402.5c-2.7,0-4.9-2.2-4.9-4.9c0-2.7,2.2-4.9,4.9-4.9c2.7,0,4.9,2.2,4.9,4.9
						C115.2,400.3,113,402.5,110.2,402.5z M110.2,394.8c-1.5,0-2.8,1.2-2.8,2.8c0,1.5,1.2,2.8,2.8,2.8c1.5,0,2.8-1.2,2.8-2.8
						S111.8,394.8,110.2,394.8z"/>
				</g>
				<g>
					<path class="st3" d="M94,410.1c-10.5,0-19-8.5-19-19s8.5-19,19-19s19,8.5,19,19c0,0.9-0.1,1.9-0.3,3l-2.1-0.3
						c0.2-1,0.2-1.8,0.2-2.7c0-9.3-7.5-16.8-16.8-16.8s-16.8,7.5-16.8,16.8s7.5,16.8,16.8,16.8c5.6,0,10.8-2.8,13.9-7.4l1.8,1.2
						C106.2,407,100.3,410.1,94,410.1z"/>
				</g>
				<g>
					<path class="st3" d="M85.4,399.8c-2.7,0-4.9-2.2-4.9-4.9c0-2.7,2.2-4.9,4.9-4.9c2.7,0,4.9,2.2,4.9,4.9
						C90.3,397.6,88.1,399.8,85.4,399.8z M85.4,392.1c-1.5,0-2.8,1.2-2.8,2.8c0,1.5,1.2,2.8,2.8,2.8c1.5,0,2.8-1.2,2.8-2.8
						C88.1,393.4,86.9,392.1,85.4,392.1z"/>
				</g>
			</g>
			<g>
				<path class="st8" d="M270.2,195.2h3.9l-2.7,15.2c-0.3,1.7-0.3,3,0,3.8s0.9,1.2,1.9,1.2s1.9-0.2,2.8-0.7c0.9-0.4,1.8-1.1,2.5-2.1
					c0.7-0.9,1.4-2.1,1.8-3.5c0.5-1.4,0.7-3.1,0.7-5c0-2.8-0.5-5.2-1.4-7.2s-2.2-3.6-3.8-4.9c-1.6-1.3-3.5-2.2-5.7-2.8
					s-4.6-0.9-7.1-0.9c-2.9,0-5.6,0.5-8.1,1.6c-2.5,1-4.7,2.5-6.5,4.3s-3.3,4-4.3,6.5s-1.6,5.2-1.6,8.2c0,2.9,0.4,5.5,1.3,7.8
					c0.9,2.3,2.2,4.3,3.8,5.9c1.7,1.6,3.8,2.9,6.2,3.7c2.5,0.9,5.3,1.3,8.5,1.3c1.1,0,2.3-0.1,3.7-0.4c1.4-0.3,2.6-0.7,3.7-1.2
					l1.7,5.4c-1.5,0.7-3.1,1.3-4.7,1.6s-3.4,0.5-5.4,0.5c-3.6,0-7-0.5-10-1.6c-3.1-1-5.7-2.6-8-4.6c-2.3-2.1-4-4.6-5.3-7.6
					s-1.9-6.5-1.9-10.5c0-4.1,0.7-7.7,2.2-11s3.4-6.1,5.9-8.4c2.5-2.3,5.3-4.1,8.6-5.3c3.2-1.2,6.7-1.9,10.3-1.9
					c3.4,0,6.6,0.5,9.6,1.5c2.9,1,5.5,2.4,7.7,4.3c2.2,1.8,3.9,4.1,5.1,6.8s1.8,5.7,1.8,9.1c0,2.4-0.4,4.6-1.3,6.7
					c-0.8,2.1-2,3.9-3.5,5.4s-3.2,2.7-5.1,3.6c-2,0.9-4.1,1.3-6.3,1.3c-0.9,0-1.8-0.1-2.6-0.3c-0.8-0.2-1.5-0.6-2-1
					c-0.5-0.5-0.9-1.1-1.2-1.9c-0.3-0.8-0.3-1.8-0.2-2.9H265c-0.6,0.8-1.2,1.5-1.8,2.3c-0.7,0.7-1.4,1.4-2.2,2
					c-0.8,0.6-1.6,1-2.6,1.4c-0.9,0.3-2,0.5-3.1,0.5c-0.9,0-1.8-0.2-2.6-0.6c-0.8-0.4-1.5-0.9-2.1-1.7c-0.6-0.7-1.1-1.6-1.4-2.6
					c-0.4-1-0.5-2.1-0.5-3.4c0-2.3,0.4-4.6,1.1-6.7c0.7-2.2,1.8-4.1,3-5.8c1.3-1.7,2.8-3,4.5-4.1c1.7-1,3.5-1.5,5.4-1.5
					c1.3,0,2.4,0.2,3.3,0.6c0.9,0.4,1.7,0.9,2.5,1.5L270.2,195.2z M266.7,202c-0.5-0.4-1-0.7-1.5-1c-0.5-0.2-1.2-0.3-2-0.3
					c-1.1,0-2.2,0.3-3.1,1c-0.9,0.6-1.8,1.5-2.5,2.5s-1.2,2.1-1.6,3.4c-0.4,1.2-0.6,2.5-0.6,3.7s0.3,2.2,0.8,3
					c0.5,0.8,1.4,1.2,2.6,1.2c0.5,0,1.1-0.2,1.7-0.5s1.2-0.7,1.7-1.3c0.6-0.5,1.1-1.1,1.6-1.8s1-1.4,1.4-2.1L266.7,202z"/>
			</g>
		</g>
	</g>
</g>
</svg>
