<?xml version="1.0" encoding="utf-8"?>
<!-- Generator: Adobe Illustrator 20.1.0, SVG Export Plug-In . SVG Version: 6.00 Build 0)  -->
<svg version="1.1" id="Layer_1" xmlns="http://www.w3.org/2000/svg" xmlns:xlink="http://www.w3.org/1999/xlink" x="0px" y="0px"
	 viewBox="0 0 612 612" style="enable-background:new 0 0 612 612;" xml:space="preserve">
<style type="text/css">
	.st0{fill:#6FBDC4;}
	.st1{fill-rule:evenodd;clip-rule:evenodd;fill:#FFFFFF;}
	.st2{fill:#E73F24;}
	.st3{font-family:'MyriadPro-Regular';}
	.st4{font-size:28.422px;}
	.st5{fill:#FFFFFF;}
	.st6{fill:#FFD335;}
	.st7{font-size:21.6602px;}
	.st8{fill:none;stroke:#FFFFFF;stroke-width:2;stroke-miterlimit:10;}
	.st9{fill:none;stroke:#FFFFFF;stroke-miterlimit:10;}
	.st10{clip-path:url(#SVGID_2_);}
	.st11{fill:#78909C;}
	.st12{fill:#546E7A;}
	.st13{opacity:0.2;fill:url(#SVGID_3_);}
</style>
<g>
	<circle class="st0" cx="306" cy="306" r="306"/>
	<g>
		<path class="st1" d="M253.1,240.6c26.7,0,48.3-21.7,48.3-48.5c0-26.8-21.6-48.5-48.3-48.5c-1.4,0-2.8,0.1-4.2,0.2
			c-5.1-31.6-32.5-55.8-65.4-55.8c-33.1,0-60.6,24.4-65.5,56.3c-2.7-0.5-5.5-0.7-8.4-0.7c-26.7,0-48.3,21.7-48.3,48.5
			c0,26.8,21.6,48.5,48.3,48.5L253.1,240.6z"/>
		<g>
			<g>
				<g>
					<path class="st2" d="M142.9,180.5c17.1,2.1,34.1,4.1,51.2,6.2c0.1-0.3,0.1-67.2,0-67.8c0,0,0,0,0,0c0,0,0,0,0,0
						c-0.1,0-0.1,0-0.2,0c-11,2.6-22.1,5.1-33.1,7.7c-0.1,0-0.2,0.1-0.2,0.1c0,0,0,0,0,0c0,0,0,0,0,0c0,0,0,0,0,0c0,0,0,0,0,0
						c0,0,0,0.1,0,0.1s0,0.1,0,0.1c0,15.2,0,30.3,0,45.5c0,0,0,0.1,0,0.1c0,0,0,0,0,0.1c-5.9,2.6-11.8,5.2-17.8,7.8
						c0-19.4,0-38.8,0-58.3c0.2-0.1,0.3-0.1,0.5-0.2c16.9-6.2,33.7-12.5,50.6-18.7c0.3-0.1,0.5-0.1,0.8,0c9.1,2.9,18.1,5.8,27.2,8.7
						c0.1,0,0.3,0.1,0.4,0.1c0,26.1,0,52.3,0,78.5c-0.1,0.1-0.3,0.1-0.5,0.2c-6.2,1.9-12.3,3.7-18.5,5.6c-2.9,0.9-5.8,1.7-8.7,2.6
						c-0.3,0.1-0.5,0.1-0.7,0c-13.5-4.9-27.1-9.7-40.6-14.6c-3.3-1.2-6.6-2.4-9.9-3.5C143.1,180.6,143,180.5,142.9,180.5
						C142.9,180.5,142.9,180.5,142.9,180.5z"/>
				</g>
			</g>
			<g>
				<text transform="matrix(1 0 0 1 118.4878 232.0224)" class="st2 st3 st4">Office 365 </text>
			</g>
		</g>
	</g>
	<g>
		<circle class="st5" cx="478.1" cy="195.4" r="71.9"/>
		<path class="st6" d="M541.3,195.4v4.2h-0.2c-2.1,31.5-27.3,56.7-58.8,58.8v0.2h-4.2h-4.2v-0.2c-31.6-2.1-56.8-27.3-58.8-58.8h-0.2
			v-4.2v-4.2h0.2c2.1-31.5,27.3-56.7,58.8-58.8v-0.1h4.2h4.2v0.1c31.5,2.1,56.7,27.3,58.8,58.8h0.2V195.4z M450.9,216.5h23v-16.9
			h-25.2C449,205.6,449.7,211.2,450.9,216.5z M473.9,249.6v-24.7h-20.7C457.8,238,465.3,247.3,473.9,249.6z M448.7,191.2h25.2v-16.8
			h-23C449.7,179.6,449,185.3,448.7,191.2z M524.3,165.9c-5.5-8.6-13.3-15.5-22.5-19.9c4.1,5.4,7.4,12.2,9.9,19.9H524.3z
			 M453.3,165.9h20.7v-24.7C465.3,143.5,457.8,152.8,453.3,165.9z M432,224.9c5.5,8.6,13.3,15.5,22.5,19.9
			c-4.1-5.4-7.5-12.2-9.9-19.9H432z M442.4,174.3h-14.8c-2.2,5.2-3.6,10.9-4,16.8h16.8C440.5,185.3,441.3,179.7,442.4,174.3z
			 M440.3,199.6h-16.8c0.4,5.9,1.8,11.6,4,16.9h14.8C441.3,211.1,440.5,205.5,440.3,199.6z M454.5,146c-9.2,4.4-17,11.3-22.5,19.9
			h12.6C447,158.2,450.4,151.4,454.5,146z M513.9,174.3c1.2,5.3,1.9,11,2.1,16.8h16.8c-0.4-5.9-1.8-11.6-4-16.8H513.9z M501.8,244.8
			c9.2-4.4,17-11.4,22.5-19.9h-12.6C509.2,232.6,505.8,239.4,501.8,244.8z M513.9,216.5h14.8c2.2-5.3,3.6-10.9,4-16.9H516
			C515.7,205.5,515,211.1,513.9,216.5z M482.3,141.2v24.7H503C498.5,152.8,491,143.5,482.3,141.2z M505.3,174.3h-23v16.8h25.2
			C507.3,185.3,506.6,179.6,505.3,174.3z M507.5,199.6h-25.2v16.9h23C506.6,211.2,507.3,205.6,507.5,199.6z M482.3,224.9v24.7
			c8.6-2.3,16.1-11.6,20.7-24.7H482.3z"/>
	</g>
	<text transform="matrix(1 0 0 1 248.9043 299.3613)"><tspan x="0" y="0" class="st5 st3 st7">On-Premises</tspan><tspan x="13.2" y="26" class="st5 st3 st7">Exchange</tspan></text>
	<g>
		<line class="st8" x1="268.6" y1="443.9" x2="161.1" y2="266.5"/>
		<polygon class="st5" points="155.7,276.8 157.9,257.8 173.2,269.2 		"/>
		<path class="st9" d="M190.7,385l14.1,32.3c0.4,0.8,0.9,1,1.8,0.7l1.3-0.6l2.6-16.5c0-0.1,0-0.1,0-0.1l0.2-1.6
			c0.4-2.7-0.5-4.7-2.7-6.2l-1.3-0.9c0-0.1-0.1-0.2-0.2-0.1l-13.8-9.3l-1.3,0.6C190.6,383.6,190.3,384.2,190.7,385z M208.7,391.9
			c2.7,1.8,3.8,4.3,3.3,7.5l-0.2,1.3l13.4,9.1l0.6-0.2c0.9-0.4,1.1-1,0.7-1.8l-14.1-32.3c-0.4-0.8-0.9-1-1.8-0.7l-0.6,0.2l-2.5,16
			L208.7,391.9z M208.7,375.7l-14.5,6.3l12.2,8.2L208.7,375.7z M209.4,416.8l14.5-6.3l-12.2-8.2L209.4,416.8z"/>
		<path class="st9" d="M148.8,337.6l17,38.8c0.4,1,1.1,1.3,2.2,0.8l1.5-0.7l3.1-19.8c0-0.1,0-0.1,0.1-0.1l0.3-2
			c0.4-3.2-0.6-5.6-3.3-7.5l-1.6-1c0-0.1-0.1-0.2-0.2-0.2l-16.6-11.2l-1.5,0.7C148.8,335.9,148.4,336.6,148.8,337.6z M170.6,345.8
			c3.2,2.2,4.6,5.2,4,9.1l-0.2,1.6l16.2,10.9l0.7-0.3c1.1-0.5,1.3-1.2,0.9-2.1l-17-38.8c-0.4-1-1.1-1.3-2.2-0.8l-0.7,0.3l-3,19.3
			L170.6,345.8z M170.5,326.4l-17.4,7.6l14.7,9.8L170.5,326.4z M171.4,375.7l17.4-7.6l-14.7-9.8L171.4,375.7z"/>
	</g>
	<g>
		<line class="st8" x1="495" y1="263.4" x2="374.7" y2="445.4"/>
		<polygon class="st5" points="367.3,455.6 370,441.2 379.4,449.5 		"/>
		<path class="st9" d="M400.9,343.9l-18.5,29.5c-0.5,0.7-0.3,1.3,0.5,1.8l1.2,0.7l14.9-7.1c0-0.1,0-0.1,0.1,0l1.5-0.7
			c2.4-1.2,3.5-3,3.6-5.7l0-1.6c0-0.1,0.1-0.1,0-0.2l-0.1-16.5l-1.2-0.7C402,343.1,401.4,343.2,400.9,343.9z M405.4,362.5
			c0,3.2-1.4,5.5-4.3,6.9l-1.2,0.6l0.1,16l0.5,0.3c0.8,0.5,1.4,0.4,1.9-0.4l18.5-29.5c0.5-0.7,0.3-1.3-0.5-1.8l-0.5-0.3l-14.4,6.9
			L405.4,362.5z M418.5,353.4l-13.2-8.3l0.1,14.5L418.5,353.4z M385.4,376.9l13.2,8.3l-0.1-14.5L385.4,376.9z"/>
		<path class="st9" d="M433,309.9l-15.4,24.6c-0.4,0.6-0.3,1.1,0.4,1.5l1,0.6l12.4-5.9c0-0.1,0-0.1,0.1,0l1.2-0.6c2-1,2.9-2.5,3-4.7
			l0-1.3c0-0.1,0.1-0.1,0-0.2l-0.1-13.7l-1-0.6C434,309.2,433.4,309.3,433,309.9z M436.7,325.4c0,2.7-1.2,4.6-3.6,5.7l-1,0.5
			l0.1,13.3l0.4,0.3c0.7,0.4,1.2,0.3,1.5-0.3l15.4-24.6c0.4-0.6,0.3-1.1-0.4-1.5l-0.4-0.3l-12,5.8L436.7,325.4z M447.7,317.8
			l-11-6.9l0.1,12.1L447.7,317.8z M420.1,337.4l11,6.9l-0.1-12.1L420.1,337.4z"/>
	</g>
	<g>
		<defs>
			<circle id="SVGID_1_" cx="306" cy="306" r="306"/>
		</defs>
		<clipPath id="SVGID_2_">
			<use xlink:href="#SVGID_1_"  style="overflow:visible;"/>
		</clipPath>
		<g class="st10">
			<g>
				<path class="st11" d="M246.3,512v58.6h37.8c0-8.7,10.8-20.8,24.1-20.8c13.3,0,24.1,12,24.1,20.8h37.8V512H246.3z"/>
				<g>
					<g>
						<rect x="256.4" y="526.5" class="st5" width="36.7" height="7.7"/>
						<rect x="256.4" y="534.2" class="st12" width="36.7" height="4.1"/>
					</g>
					<g>
						<rect x="323.4" y="526.5" class="st5" width="36.7" height="7.7"/>
						<rect x="323.4" y="534.2" class="st12" width="36.7" height="4.1"/>
					</g>
				</g>
				<rect x="258.8" y="401.3" class="st12" width="98.8" height="11.1"/>
				<rect x="238.7" y="508.1" class="st12" width="139.1" height="7.7"/>
				<rect x="258.8" y="408.2" class="st11" width="98.8" height="99.9"/>
				<g>
					<g>
						<rect x="269.3" y="416.8" class="st5" width="12.5" height="12.9"/>
						<rect x="267.7" y="429.7" class="st12" width="15.8" height="3.5"/>
					</g>
					<g>
						<rect x="291.1" y="416.8" class="st5" width="12.5" height="12.9"/>
						<rect x="289.4" y="429.7" class="st12" width="15.8" height="3.5"/>
					</g>
					<g>
						<rect x="312.9" y="416.8" class="st5" width="12.5" height="12.9"/>
						<rect x="311.2" y="429.7" class="st12" width="15.8" height="3.5"/>
					</g>
					<g>
						<rect x="334.6" y="416.8" class="st5" width="12.5" height="12.9"/>
						<rect x="333" y="429.7" class="st12" width="15.8" height="3.5"/>
					</g>
					<g>
						<rect x="269.3" y="439.6" class="st5" width="12.5" height="12.9"/>
						<rect x="267.7" y="452.6" class="st12" width="15.8" height="3.5"/>
					</g>
					<g>
						<rect x="291.1" y="439.6" class="st5" width="12.5" height="12.9"/>
						<rect x="289.4" y="452.6" class="st12" width="15.8" height="3.5"/>
					</g>
					<g>
						<rect x="312.9" y="439.6" class="st5" width="12.5" height="12.9"/>
						<rect x="311.2" y="452.6" class="st12" width="15.8" height="3.5"/>
					</g>
					<g>
						<rect x="334.6" y="439.6" class="st5" width="12.5" height="12.9"/>
						<rect x="333" y="452.6" class="st12" width="15.8" height="3.5"/>
					</g>
					<g>
						<rect x="269.3" y="462.5" class="st5" width="12.5" height="12.9"/>
						<rect x="267.7" y="475.4" class="st12" width="15.8" height="3.5"/>
					</g>
					<g>
						<rect x="291.1" y="462.5" class="st5" width="12.5" height="12.9"/>
						<rect x="289.4" y="475.4" class="st12" width="15.8" height="3.5"/>
					</g>
					<g>
						<rect x="312.9" y="462.5" class="st5" width="12.5" height="12.9"/>
						<rect x="311.2" y="475.4" class="st12" width="15.8" height="3.5"/>
					</g>
					<g>
						<rect x="334.6" y="462.5" class="st5" width="12.5" height="12.9"/>
						<rect x="333" y="475.4" class="st12" width="15.8" height="3.5"/>
					</g>
					<g>
						<rect x="269.3" y="485.3" class="st5" width="12.5" height="12.9"/>
						<rect x="267.7" y="498.2" class="st12" width="15.8" height="3.5"/>
					</g>
					<g>
						<rect x="291.1" y="485.3" class="st5" width="12.5" height="12.9"/>
						<rect x="289.4" y="498.2" class="st12" width="15.8" height="3.5"/>
					</g>
					<g>
						<rect x="312.9" y="485.3" class="st5" width="12.5" height="12.9"/>
						<rect x="311.2" y="498.2" class="st12" width="15.8" height="3.5"/>
					</g>
					<g>
						<rect x="334.6" y="485.3" class="st5" width="12.5" height="12.9"/>
						<rect x="333" y="498.2" class="st12" width="15.8" height="3.5"/>
					</g>
				</g>
			</g>
			<linearGradient id="SVGID_3_" gradientUnits="userSpaceOnUse" x1="234.228" y1="606.9371" x2="370.9423" y2="606.9371">
				<stop  offset="0" style="stop-color:#FFFFFF;stop-opacity:0"/>
				<stop  offset="1" style="stop-color:#000000"/>
			</linearGradient>
			<path class="st13" d="M247.1,569l-12.9,30c0,0,9.2,20.7,33.9,45.9L370.9,569H247.1z"/>
		</g>
	</g>
</g>
</svg>
