<?xml version="1.0" encoding="utf-8"?>
<!-- Generator: Adobe Illustrator 20.0.0, SVG Export Plug-In . SVG Version: 6.00 Build 0)  -->
<svg version="1.1" id="Layer_1" xmlns="http://www.w3.org/2000/svg" xmlns:xlink="http://www.w3.org/1999/xlink" x="0px" y="0px"
	 viewBox="0 0 612 612" style="enable-background:new 0 0 612 612;" xml:space="preserve">
<style type="text/css">
	.st0{opacity:0.8;fill:#FFD57B;enable-background:new    ;}
	.st1{fill:#FFFFFF;}
	.st2{clip-path:url(#SVGID_2_);fill:#FDC560;}
	.st3{clip-path:url(#SVGID_4_);}
	.st4{opacity:0.4;fill:#F26327;enable-background:new    ;}
	.st5{opacity:0.34;clip-path:url(#SVGID_6_);}
	.st6{fill:#F26327;}
	.st7{fill:#98D3DA;}
	.st8{fill:#B6C8CA;}
	.st9{fill:#E7E7E7;}
	.st10{fill:#175079;}
	.st11{fill:#F19020;}
	.st12{fill:#DC4226;}
	.st13{fill:#F09022;}
	.st14{enable-background:new    ;}
	.st15{fill:#F2AC1D;}
	.st16{fill:#52C5D4;}
	.st17{fill:#F26328;}
	.st18{fill:#DBF0F1;}
	.st19{fill:#4E8EB4;}
	.st20{fill:#F8A58E;}
	.st21{fill:#ED7B5C;}
	.st22{fill:#E66D4B;}
	.st23{fill:#D95530;}
	.st24{fill:#D54527;}
</style>
<g id="Layer_1_1_">
	<g>
		<circle class="st0" cx="306" cy="306" r="306"/>
		<path class="st1" d="M307,55c0-10.1-8.2-18.3-18.3-18.3c-2.2,0-4.2,0.4-6.2,1.1c-2.2-9.4-10.7-16.4-20.7-16.4
			c-11.6,0-21.1,9.3-21.3,20.9c-1-0.2-2.1-0.3-3.2-0.3c-8.6,0-15.6,7-15.6,15.6c0,7.1,4.7,13,11.1,15c1.3,0.4,2.7,0.7,4.1,0.7h52.7
			c1.6,0,3.2-0.3,4.6-0.8C301.6,70.1,307,63.2,307,55z"/>
		<g>
			<g>
				<g>
					<defs>
						<circle id="SVGID_1_" cx="306" cy="306" r="306"/>
					</defs>
					<clipPath id="SVGID_2_">
						<use xlink:href="#SVGID_1_"  style="overflow:visible;"/>
					</clipPath>
					<rect x="10.5" y="368.6" class="st2" width="598.2" height="259.8"/>
				</g>
			</g>
			<g>
				<g>
					<defs>
						<circle id="SVGID_3_" cx="306" cy="306" r="306"/>
					</defs>
					<clipPath id="SVGID_4_">
						<use xlink:href="#SVGID_3_"  style="overflow:visible;"/>
					</clipPath>
					<g class="st3">
						<rect x="334.4" y="140.5" class="st4" width="70.3" height="17.6"/>
						<rect x="334.4" y="87.7" class="st4" width="70.3" height="35.2"/>
						<path class="st4" d="M545.4,245.9v-52.7l-70.3,52.7v-52.7l-70.3,52.7v-70.3h-70.3V369h70.3h210.9V193.2L545.4,245.9z
							 M457.5,316.2h-35.2v-17.6h35.2V316.2z M457.5,281.1h-35.2v-17.6h35.2V281.1z M527.8,316.2h-35.2v-17.6h35.2V316.2z
							 M527.8,281.1h-35.2v-17.6h35.2V281.1z M598.1,316.2H563v-17.6h35.2v17.6H598.1z M598.1,281.1H563v-17.6h35.2v17.6H598.1z"/>
					</g>
				</g>
			</g>
			<g>
				<g>
					<defs>
						<circle id="SVGID_5_" cx="306" cy="306" r="306"/>
					</defs>
					<clipPath id="SVGID_6_">
						<use xlink:href="#SVGID_5_"  style="overflow:visible;"/>
					</clipPath>
					<g class="st5">
						<rect x="28" y="357" class="st6" width="244" height="11.3"/>
						<path class="st6" d="M88.6,148h-1.8h-0.9h-39c-1.8,0-2.8,1.9-2.8,3.6v2.6l-0.4-0.2H44v208h9V157h29v28.3c0,1.9,2,3.7,3.9,3.7
							h2.8c1.9,0,3.4-1.9,3.4-3.7v-33.5C92,149.9,90.5,148,88.6,148z"/>
						<path class="st6" d="M173,205v-19c0-1.8,2-4,4.5-4h2.4h1.2h51.7c2.3,0,4.2,2.2,4.2,3.8v2.5v-0.2l0,0V289h-16v-93h-34v9"/>
						<path class="st6" d="M64.9,358.5V175.9c0-5.4,4.4-9.9,9.9-9.9h26.4c5.4,0,9.9,4.4,9.9,9.9v182.6c0,5.4-4.4,9.9-9.9,9.9H74.8
							C69.3,368.3,64.9,363.9,64.9,358.5z"/>
						<path class="st6" d="M150.4,356.8v-131c0-6.3,5.2-11.5,11.5-11.5h37.3c6.3,0,11.5,5.2,11.5,11.5v131c0,6.3-5.2,11.5-11.5,11.5
							h-37.3C155.5,368.3,150.4,363.2,150.4,356.8z"/>
						<path class="st6" d="M141.5,359.8H122V125.5h32.5c0-1.1,0,83.6,0,83.6s-8.3,3.4-7.9,14.8C146.5,228.2,141.5,359.8,141.5,359.8
							z"/>
						<path class="st6" d="M154.5,125.8H122c0,0-7.8-18.9-3.2-23.9h40.3C162.7,108.7,154.5,125.8,154.5,125.8z"/>
						<rect x="126" y="95.9" class="st6" width="26.5" height="9.8"/>
						<path class="st6" d="M246,312.7c-0.4-3.7-3.4-6.7-7.2-6.7h-33.3c-4.1,0-7.5,3.4-7.5,7.5s3.4,7.5,7.5,7.5H231v37
							c0,4.1,3.4,7.5,7.5,7.5s7.5-3.4,7.5-7.5v-43.3C246,314,246.1,313.3,246,312.7z"/>
						<path class="st6" d="M256,299.6c0-1.5-1.2-2.6-2.8-2.6h-45.5c-1.5,0-2.8,1-2.8,2.5s1.2,2.5,2.8,2.5H250v59.1
							c0,1.5,1.5,2.8,3,2.8s3-1.2,3-2.8v-60.4c0-0.2,0-0.4-0.1-0.6C256,300,256,299.8,256,299.6z"/>
					</g>
				</g>
			</g>
		</g>
		<path class="st7" d="M336.3,45.1c0-8.9-7.2-16.1-16.1-16.1c-1.9,0-3.7,0.4-5.4,1c-2-8.3-9.4-14.5-18.3-14.5
			c-10.3,0-18.6,8.2-18.8,18.4c-0.9-0.2-1.8-0.3-2.8-0.3c-7.6,0-13.8,6.2-13.8,13.8c0,6.2,4.1,11.5,9.8,13.2
			c1.1,0.4,2.4,0.6,3.6,0.6H321c1.4,0,2.8-0.3,4-0.7C331.6,58.4,336.3,52.3,336.3,45.1z"/>
		<g>
			<g>
				<g>
					<path class="st8" d="M253.8,405.3c-3.1,12.6-6.1,25.1-9.2,37.7c28.7,0,57.3,0,86,0c-3.1-12.6-6.1-25.1-9.2-37.7
						C298.8,405.3,276.3,405.3,253.8,405.3z"/>
					<path class="st9" d="M335.8,442.3h-96.6c-2.5,0-4.4,2.3-4.4,5.2v2h105.5v-2C340.3,444.6,338.3,442.3,335.8,442.3z"/>
					<path class="st9" d="M142.3,390.6v20.7c0,4,3.2,7.2,7.2,7.2h276c4,0,7.2-3.2,7.2-7.2v-20.7L142.3,390.6L142.3,390.6z"/>
					<path class="st10" d="M432.8,390.6V214.9c0-4-3.2-7.2-7.2-7.2h-276c-4,0-7.2,3.2-7.2,7.2v175.7L432.8,390.6L432.8,390.6z"/>
					<rect x="154.2" y="219" class="st1" width="266.7" height="159.6"/>
				</g>
				<g>
					<rect x="183.7" y="352.3" class="st11" width="12.2" height="16.3"/>
					<rect x="208.1" y="337.7" class="st11" width="12.2" height="30.9"/>
					<rect x="232.6" y="326.4" class="st11" width="12.2" height="42.2"/>
					<rect x="257" y="336.6" class="st11" width="12.2" height="32"/>
					<rect x="281.4" y="300.2" class="st11" width="12.2" height="68.4"/>
					<rect x="305.9" y="312.4" class="st11" width="12.2" height="56.2"/>
					<rect x="330.3" y="287.2" class="st11" width="12.2" height="81.4"/>
					<rect x="354.7" y="264.4" class="st11" width="12.2" height="104.2"/>
					<rect x="379.2" y="240.8" class="st11" width="12.2" height="127.9"/>
				</g>
				<g>
					<rect x="171.9" y="237.6" class="st12" width="49.8" height="4.7"/>
					<rect x="171.9" y="249.7" class="st7" width="90.1" height="2.9"/>
					<rect x="171.9" y="258.6" class="st7" width="76.6" height="2.9"/>
					<rect x="171.9" y="267.6" class="st7" width="84.8" height="2.9"/>
					<rect x="171.9" y="276.6" class="st7" width="66" height="2.9"/>
					<path class="st12" d="M171.9,287.9v8.5H201v-8.5H171.9z M196.2,293.7h-19.4v-2.9h19.4V293.7z"/>
				</g>
			</g>
			<g>
				<path class="st7" d="M128.6,355.7c-0.6,0-1.2-0.3-1.6-0.8c-0.6-0.9-0.3-2,0.5-2.6l98.1-63.5c0.6-0.4,1.3-0.4,1.9-0.1l29.3,16.4
					l36.1-56.5c0.3-0.4,0.7-0.7,1.2-0.8c0.5-0.1,1,0,1.4,0.4l30.9,23.8l101.7-87.7c0.8-0.7,1.9-0.6,2.6,0.2c0.7,0.8,0.6,1.9-0.2,2.6
					l-102.8,88.7c-0.7,0.6-1.6,0.6-2.3,0.1L295,252.3l-35.9,56.3c-0.5,0.8-1.6,1.1-2.5,0.6l-29.9-16.7l-97.1,62.9
					C129.3,355.6,129,355.7,128.6,355.7L128.6,355.7z"/>
			</g>
			<circle class="st12" cx="131.2" cy="353.1" r="7.2"/>
			<circle class="st12" cx="225.6" cy="291.1" r="7.2"/>
			<circle class="st12" cx="257.3" cy="307.1" r="7.2"/>
			<circle class="st12" cx="295" cy="250.1" r="7.2"/>
			<circle class="st12" cx="328" cy="275.1" r="7.2"/>
			<ellipse class="st12" cx="429.4" cy="185.6" rx="7.2" ry="7.2"/>
			<g>
				<g>
					<g>
						<g>
							<path class="st10" d="M216,350h-93.8c-3.8,0-6.8,3.1-6.8,6.8v123.5c0,3.8,3.1,6.8,6.8,6.8H216c3.8,0,6.8-3.1,6.8-6.8V356.9
								C222.9,353.1,219.8,350,216,350z"/>
							<path class="st1" d="M169.1,483.7c-1.5,0-2.8-1.2-2.8-2.7s1.2-2.7,2.8-2.7c1.5,0,2.7,1.2,2.7,2.7
								C171.9,482.5,170.6,483.7,169.1,483.7z"/>
							<rect x="127.6" y="363.3" class="st1" width="83.1" height="110.7"/>
						</g>
					</g>
				</g>
				<g>
					<g id="share-alt_1_">
						<path class="st13" d="M202.3,407.6c0,2.4-1.8,4.2-4.2,4.2c-1.1,0-2.1-0.4-2.8-1.1l-9.9,5.9c0.1,0.4,0.1,0.7,0.1,1
							c0,2.2-1.8,4.1-4.1,4.1s-4.1-1.8-4.1-4.1s1.8-4.1,4.1-4.1c1.1,0,2.1,0.4,2.8,1.1l9.9-5.9c-0.1-0.3-0.1-0.7-0.1-1s0-0.7,0.1-1
							l-9.9-5.7c-0.7,0.7-1.7,1.1-2.8,1.1c-2.4,0-4.2-1.8-4.2-4.2s1.8-4.2,4.2-4.2s4.2,1.8,4.2,4.2c0,0.3,0,0.7-0.1,1l9.9,5.7
							c0.7-0.7,1.7-1.1,2.8-1.1C200.6,403.5,202.3,405.2,202.3,407.6z"/>
					</g>
				</g>
				<g>
					<polygon class="st13" points="171.5,437.9 136.9,431.4 136.9,385.8 171.5,379.4 					"/>
					<g class="st14">
						<path class="st1" d="M168.2,417c0,3.1-1.1,5.6-3.4,7.2c-2.3,1.7-5.6,2.5-9.8,2.5c-4.3,0-7.7-0.6-10.3-2v-5.9
							c3.8,1.7,7.3,2.6,10.6,2.6c4.2,0,6.3-1.3,6.3-3.8c0-0.8-0.2-1.5-0.7-2s-1.2-1.1-2.3-1.7c-1.1-0.6-2.6-1.2-4.5-2
							c-3.7-1.4-6.2-2.9-7.5-4.3c-1.3-1.4-2-3.3-2-5.6c0-2.8,1.1-4.9,3.3-6.4s5.2-2.3,9.1-2.3c3.8,0,7.4,0.8,10.7,2.3l-2.2,5.2
							c-3.5-1.4-6.4-2.2-8.8-2.2c-3.6,0-5.4,1-5.4,3.1c0,1,0.5,1.9,1.4,2.6c0.9,0.7,3,1.7,6.2,2.9c2.7,1,4.6,2,5.8,2.8
							c1.2,0.9,2.1,1.8,2.7,3C167.9,414.1,168.2,415.5,168.2,417z"/>
					</g>
				</g>
			</g>
		</g>
		<g>
			<path class="st10" d="M209.8,417.1h40.3c7.6,0,13.9,6.3,13.9,13.9v77.2c0,7.6-6.3,13.9-13.9,13.9h-40.3
				c-7.6,0-13.9-6.3-13.9-13.9V431C195.9,423.4,202.2,417.1,209.8,417.1z"/>
			<rect x="200" y="428.1" class="st1" width="60.1" height="79.5"/>
			<path class="st1" d="M219.9,422.9h20.2c0.5,0,1-0.4,1-1l0,0c0-0.5-0.4-1-1-1h-20.2c-0.5,0-1,0.4-1,1l0,0
				C218.9,422.5,219.4,422.9,219.9,422.9z"/>
			<circle class="st1" cx="230" cy="515" r="4.3"/>
			<g>
				<g>
					<path class="st15" d="M228.8,470.9v-19.7c-9.7,0.6-17.3,8.7-17.3,18.5c0,10.3,8.3,18.6,18.6,18.6c9.8,0,17.9-7.7,18.5-17.3
						L228.8,470.9L228.8,470.9z"/>
					<path class="st16" d="M232,468.4h15.3c-0.4-5.9-3.8-11-8.8-13.8L232,468.4z"/>
					<path class="st17" d="M231.3,452.3v11.8l5.1-10.7C234.7,452.8,233,452.5,231.3,452.3L231.3,452.3z"/>
				</g>
			</g>
		</g>
		<g>
			<g>
				<path class="st10" d="M338.1,328.9h165.6c3.4,0,6.2,2.8,6.2,6.2v104.6c0,3.4-2.8,6.2-6.2,6.2H338.1c-3.4,0-6.2-2.8-6.2-6.2V335
					C331.9,331.7,334.7,328.9,338.1,328.9z"/>
				<rect x="341.1" y="341.1" class="st1" width="159.4" height="85.6"/>
				<circle class="st18" cx="420.9" cy="335.2" r="2.2"/>
				<rect x="417.1" y="432" class="st18" width="7.6" height="7.6"/>
				<polygon class="st1" points="331.9,445.8 509.8,445.8 540.7,466.1 301,466.1 				"/>
				<path class="st10" d="M301,466.1h239.7v6.9c0,2.4-2,4.4-4.4,4.4H305.5c-2.4,0-4.4-2-4.4-4.4v-6.9H301z"/>
				<rect x="396.7" y="472" class="st18" width="48.4" height="3.1"/>
				<rect x="301" y="466.1" class="st18" width="239.7" height="3.5"/>
			</g>
			<g>
				<polygon class="st10" points="336.5,449 505.3,449 526.1,462.7 315.7,462.7 				"/>
				<g>
					<rect x="419.4" y="447.7" class="st1" width="2.3" height="16.2"/>
					<polygon class="st1" points="443.3,447.4 447.4,463.7 445.2,464.2 441.1,448 					"/>
					
						<rect x="465.6" y="446.8" transform="matrix(0.8943 -0.4475 0.4475 0.8943 -154.6609 257.066)" class="st1" width="2.3" height="18.2"/>
					<polygon class="st1" points="483.7,447 496.5,463.2 494.7,464.7 481.9,448.4 					"/>
					<rect x="325.5" y="451.4" class="st1" width="190.2" height="2.3"/>
					<polygon class="st1" points="400,448 395.9,464.2 393.7,463.7 397.8,447.4 					"/>
					
						<rect x="365.3" y="454.6" transform="matrix(0.4474 -0.8943 0.8943 0.4474 -200.6548 586.6943)" class="st1" width="18.2" height="2.3"/>
					
						<rect x="341.6" y="454.7" transform="matrix(0.6172 -0.7868 0.7868 0.6172 -223.9414 451.3952)" class="st1" width="20.6" height="2.3"/>
					<rect x="318.5" y="457" class="st1" width="207.2" height="2.3"/>
				</g>
			</g>
		</g>
		<g>
			<rect x="369.6" y="412.2" class="st19" width="71.7" height="4.9"/>
			<rect x="369.6" y="356.2" class="st20" width="12.7" height="56"/>
			<rect x="384.4" y="377.3" class="st21" width="12.7" height="34.9"/>
			<rect x="399.1" y="389.1" class="st22" width="12.7" height="23.1"/>
			<rect x="413.8" y="378.3" class="st23" width="12.7" height="33.9"/>
			<rect x="428.6" y="387.9" class="st24" width="12.7" height="24.2"/>
		</g>
	</g>
	<g id="Arrow_7_1_">
	</g>
	<g id="Arrow_7_3_">
	</g>
</g>
<g id="Layer_5">
</g>
</svg>
