<?xml version="1.0" encoding="utf-8"?>
<!-- Generator: Adobe Illustrator 20.0.0, SVG Export Plug-In . SVG Version: 6.00 Build 0)  -->
<svg version="1.1" id="Layer_1" xmlns="http://www.w3.org/2000/svg" xmlns:xlink="http://www.w3.org/1999/xlink" x="0px" y="0px"
	 viewBox="0 0 612 612" style="enable-background:new 0 0 612 612;" xml:space="preserve">
<style type="text/css">
	.st0{fill:#F79B6E;}
	.st1{fill:#DB4126;}
	.st2{opacity:0.57;clip-path:url(#SVGID_4_);}
	.st3{fill:#F37E43;}
	.st4{fill:#FFFFFF;}
	.st5{fill:#DC4327;}
	.st6{opacity:0.2;fill:#19191A;enable-background:new    ;}
	.st7{fill:#CCCCCC;}
	.st8{fill:#F16227;}
	.st9{fill:#FFD81F;}
	.st10{fill:#EE3A4C;}
	.st11{fill:#6284C3;}
	.st12{fill:#763A1B;}
	.st13{fill:#FBFCFA;}
</style>
<g>
	<g>
		<g>
			<ellipse id="SVGID_1_" class="st0" cx="306" cy="306" rx="306" ry="306"/>
		</g>
	</g>
	<g>
		<g>
			<ellipse id="SVGID_3_" class="st0" cx="306" cy="306" rx="306" ry="306"/>
		</g>
	</g>
	<ellipse class="st0" cx="306" cy="306" rx="306" ry="306"/>
	<g>
		<path class="st1" d="M348.9,144l-0.6,4.6c-0.5-0.1-1.1-0.1-1.6-0.1l0,0h-1.4v-4.6h1.4l0,0C347.4,143.9,348.2,143.9,348.9,144z
			 M342,148.5h-3.3v-4.6h3.3V148.5z M335.4,148.5h-3.3v-4.6h3.3V148.5z M328.9,148.5h-3.3v-4.6h3.3V148.5z M322.3,148.5H319v-4.6
			h3.3V148.5z M315.7,148.5h-3.3v-4.6h3.3V148.5z M309.1,148.5h-3.3v-4.6h3.3V148.5z M302.6,148.5h-3.3v-4.6h3.3V148.5z M296,148.5
			h-3.3v-4.6h3.3V148.5z M289.4,148.5h-3.3v-4.6h3.3V148.5z M282.8,148.5h-3.3v-4.6h3.3V148.5z M276.3,148.5H273v-4.6h3.3V148.5z
			 M269.7,148.5h-1.4c-0.5,0-1.1,0-1.6,0.1l-0.6-4.6c0.7-0.1,1.4-0.1,2.1-0.1h1.4v4.6H269.7z M264,149.2c-0.9,0.3-1.7,0.7-2.5,1.2
			l-2.4-3.9c1.1-0.7,2.2-1.2,3.4-1.6L264,149.2z M356,146.5l-2.5,3.9c-0.8-0.5-1.6-0.9-2.5-1.2l1.6-4.3
			C353.7,145.3,354.9,145.9,356,146.5z M259.3,152.1c-0.7,0.6-1.3,1.4-1.8,2.1l-3.9-2.5c0.7-1.1,1.5-2,2.4-2.9L259.3,152.1z
			 M361.3,151.8l-3.9,2.5c-0.5-0.8-1.1-1.5-1.8-2.2l3.2-3.3C359.8,149.8,360.6,150.8,361.3,151.8z M256.3,156.9
			c-0.3,0.9-0.6,1.8-0.7,2.7l-4.6-0.7c0.2-1.3,0.5-2.5,0.9-3.7L256.3,156.9z M364,159l-4.6,0.6c-0.1-0.9-0.4-1.8-0.7-2.7l4.3-1.6
			C363.5,156.5,363.8,157.7,364,159z M255.4,165.8h-4.6v-3.3h4.6V165.8z M364.1,165.8h-4.6v-3.3h4.6V165.8z M255.4,172.4h-4.6v-3.3
			h4.6V172.4z M364.1,172.4h-4.6v-3.3h4.6V172.4z M255.4,179h-4.6v-3.3h4.6V179z M364.1,179.1h-4.6v-3.3h4.6V179.1z M255.4,185.6
			h-4.6v-3.3h4.6V185.6z M364.1,185.7h-4.6v-3.3h4.6V185.7z M255.4,192.2h-4.6v-3.3h4.6V192.2z M364.1,192.2h-4.6v-3.3h4.6V192.2z
			 M255.4,198.8h-4.6v-3.3h4.6V198.8z M364.1,198.8h-4.6v-3.3h4.6V198.8z M255.4,205.4h-4.6v-3.3h4.6V205.4z M364.1,205.5h-4.6v-3.3
			h4.6V205.5z M255.4,212h-4.6v-3.3h4.6V212z M364.1,212.1h-4.6v-3.3h4.6V212.1z M255.4,218.6h-4.6v-3.3h4.6V218.6z M364.1,218.6
			h-4.6v-3.3h4.6V218.6z M255.3,222.1c-0.1,1.3-0.4,2.5-0.9,3.7l-4.4-1.5c0.3-0.9,0.5-1.8,0.6-2.7L255.3,222.1z M364.9,224.5
			l-4.3,1.5c-0.4-1.2-0.7-2.4-0.9-3.7l4.6-0.6C364.3,222.6,364.6,223.5,364.9,224.5z M252.8,229.3c-0.7,1.1-1.4,2.1-2.3,3l-3.3-3.2
			c0.6-0.7,1.2-1.4,1.7-2.2L252.8,229.3z M367.8,229.1l-3.3,3.2c-0.9-0.9-1.7-1.9-2.3-3l3.9-2.4
			C366.6,227.7,367.1,228.5,367.8,229.1z M247.6,234.7c-1.1,0.7-2.2,1.3-3.4,1.7l-1.7-4.3c0.9-0.3,1.7-0.8,2.5-1.3L247.6,234.7z
			 M372.4,232.2l-1.6,4.3c-1.2-0.4-2.3-1-3.4-1.7l2.5-3.9C370.7,231.4,371.6,231.8,372.4,232.2z M240.6,237.4
			c-0.9,0.1-1.7,0.2-2.6,0.2h-1V233h1c0.6,0,1.3,0,1.9-0.1L240.6,237.4z M377,233h1.1v4.6H377c-0.8,0-1.7-0.1-2.5-0.2l0.7-4.6
			C375.7,233,376.3,233,377,233z M424.1,237.6h-3.3V233h3.3V237.6z M417.5,237.6h-3.3V233h3.3V237.6z M410.9,237.6h-3.3V233h3.3
			V237.6z M404.4,237.6h-3.3V233h3.3V237.6z M397.8,237.6h-3.3V233h3.3V237.6z M391.2,237.6h-3.3V233h3.3V237.6z M384.6,237.6h-3.3
			V233h3.3V237.6z M233.7,237.6h-3.3V233h3.3V237.6z M227.1,237.6h-3.3V233h3.3V237.6z M220.5,237.6h-3.3V233h3.3V237.6z
			 M213.9,237.6h-3.3V233h3.3V237.6z M207.3,237.6H204V233h3.3V237.6z M200.8,237.6h-3.3V233h3.3V237.6z M194.2,237.6h-3.3V233h3.3
			V237.6z"/>
	</g>
	<g>
		<g>
			<defs>
				<circle id="SVGID_2_" cx="306" cy="306" r="306"/>
			</defs>
			<clipPath id="SVGID_4_">
				<use xlink:href="#SVGID_2_"  style="overflow:visible;"/>
			</clipPath>
			<g class="st2">
				<ellipse class="st3" cx="332.9" cy="267.1" rx="41.5" ry="41.7"/>
				<ellipse class="st3" cx="55.2" cy="551.8" rx="37.2" ry="37.4"/>
				<ellipse class="st3" cx="522.8" cy="148.5" rx="54.9" ry="55.1"/>
				<ellipse class="st3" cx="316.4" cy="46.2" rx="54.9" ry="55.1"/>
				<ellipse class="st3" cx="569.8" cy="424.4" rx="70.1" ry="70.4"/>
				<ellipse class="st3" cx="97.1" cy="137.1" rx="68.1" ry="68.4"/>
				<ellipse class="st3" cx="594.9" cy="276.2" rx="29.5" ry="29.6"/>
				<ellipse class="st3" cx="266.2" cy="568.4" rx="52.2" ry="52.4"/>
				<ellipse class="st3" cx="29" cy="307.1" rx="52.2" ry="52.4"/>
				<ellipse class="st3" cx="221.5" cy="67.7" rx="12.5" ry="12.6"/>
				<ellipse class="st3" cx="475.2" cy="550.7" rx="22.3" ry="22.4"/>
				<ellipse class="st3" cx="33.4" cy="439.8" rx="24.3" ry="24.4"/>
				<ellipse class="st3" cx="350.4" cy="501.4" rx="24.3" ry="24.4"/>
			</g>
		</g>
	</g>
	<g>
		<ellipse class="st4" cx="305.8" cy="107.5" rx="70.2" ry="70.5"/>
		<path class="st5" d="M305.8,37L305.8,37L305.8,37L305.8,37L305.8,37c-0.1,0-0.1,0-0.1,0l0,0l0,0l0,0l0,0l0,0l0,0l0,0l0,0l0,0l0,0
			l0,0l0,0l0,0l0,0l0,0l0,0l0,0l0,0l0,0l0,0l0,0l0,0l0,0l0,0l0,0l0,0l0,0l0,0l0,0l0,0l0,0l0,0l0,0l0,0l0,0l0,0l0,0l0,0l0,0l0,0l0,0
			l0,0l0,0l0,0l0,0l0,0l0,0l0,0l0,0l0,0l0,0l0,0l0,0l0,0l0,0l0,0l0,0l0,0l0,0l0,0h-0.1l0,0l0,0l0,0h-0.1l0,0h-0.1l0,0h-0.1l0,0
			c-1.1,0-2.2,0.1-3.3,0.2l0.1,2c1.6-0.1,3.2-0.2,4.9-0.2v-2H305.8L305.8,37z M295.9,37.7c-0.8,0.1-1.6,0.2-2.4,0.4l0,0h-0.1l0,0
			c0,0,0,0-0.1,0l0,0l0,0l0,0c0,0,0,0-0.1,0l0,0l0,0l0,0l0,0l0,0l0,0l0,0l0,0l0,0l0,0l0,0l0,0l0,0l0,0l0,0l0,0l0,0l0,0l0,0l0,0l0,0
			l0,0l0,0l0,0l0,0l0,0l0,0l0,0l0,0l0,0l0,0l0,0l0,0l0,0l0,0l0,0l0,0l0,0l0,0l0,0l0,0l0,0l0,0l0,0c0,0,0,0-0.1,0l0,0c0,0,0,0-0.1,0
			l0,0c-0.4,0.1-0.9,0.2-1.3,0.3l0.4,2c1.6-0.3,3.2-0.6,4.8-0.9L295.9,37.7L295.9,37.7z M286.1,39.8c-0.4,0.1-0.7,0.2-1.1,0.3l0,0
			c0,0,0,0-0.1,0l0,0c0,0,0,0-0.1,0l0,0l0,0l0,0l0,0l0,0l0,0l0,0l0,0l0,0l0,0l0,0l0,0l0,0l0,0l0,0l0,0l0,0l0,0l0,0l0,0l0,0l0,0l0,0
			l0,0l0,0l0,0l0,0l0,0l0,0l0,0l0,0l0,0l0,0l0,0l0,0l0,0l0,0l0,0c0,0,0,0-0.1,0l0,0c0,0,0,0-0.1,0l0,0c-0.9,0.3-1.8,0.6-2.7,0.9
			l0.7,1.9c1.5-0.6,3.1-1.1,4.6-1.5L286.1,39.8L286.1,39.8z M276.7,43.3c-1.5,0.7-3,1.4-4.5,2.2l1,1.8c1.4-0.8,2.9-1.5,4.3-2.2
			L276.7,43.3L276.7,43.3z M268,48.1c-0.4,0.2-0.8,0.5-1.1,0.8l0,0l0,0l0,0c0,0,0,0-0.1,0l0,0c0,0,0,0-0.1,0l0,0c0,0,0,0-0.1,0l0,0
			c0,0,0,0-0.1,0l0,0c0,0,0,0-0.1,0l0,0c0,0,0,0-0.1,0l0,0c0,0,0,0-0.1,0l0,0c0,0,0,0-0.1,0l0,0c0,0,0,0-0.1,0l0,0c0,0,0,0-0.1,0
			l0,0l0,0l0,0l0,0l0,0l0,0l0,0l0,0l0,0l0,0l0,0l0,0l0,0l0,0l0,0l0,0l0,0l0,0l0,0l0,0l0,0l0,0l0,0c0,0,0,0-0.1,0l0,0c0,0,0,0-0.1,0
			l0,0c0,0,0,0-0.1,0l0,0c0,0,0,0-0.1,0l0,0c0,0,0,0-0.1,0l0,0c-0.5,0.4-1.1,0.8-1.6,1.2l1.2,1.6c1.3-1,2.6-1.9,4-2.8L268,48.1
			L268,48.1z M260,54c-0.2,0.2-0.5,0.4-0.7,0.6l0,0c0,0,0,0-0.1,0.1l0,0c0,0,0,0-0.1,0l0,0c0,0,0,0-0.1,0l0,0c0,0,0,0-0.1,0l0,0l0,0
			l0,0l0,0l0,0l0,0l0,0l0,0l0,0l0,0l0,0l0,0l0,0l0,0l0,0l0,0l0,0l0,0l0,0l0,0l0,0l0,0l0,0l0,0l0,0l0,0l0,0l0,0l0,0l0,0l0,0l0,0l0,0
			l0,0l0,0l0,0l0,0l0,0l0,0l0,0l0,0l0,0l0,0l0,0l0,0l0,0l0,0l0,0l0,0l0,0l0,0l0,0l0,0l0,0l0,0l0,0l0,0l0,0l0,0l0,0l0,0l0,0l0,0l0,0
			l0,0l0,0l0,0l0,0l0,0l0,0l0,0l0,0l0,0l0,0l0,0l0,0l0,0l0,0l0,0l0,0l0,0l0,0l0,0l0,0l0,0l0,0l0,0l0,0l0,0l0,0l0,0l0,0l0,0l0,0l0,0
			l0,0l0,0l0,0l0,0l0,0l0,0c0,0,0,0-0.1,0l0,0l0,0l0,0l0,0l0,0l0,0l0,0l0,0l0,0c0,0,0,0-0.1,0l0,0c0,0,0,0-0.1,0l0,0c0,0,0,0-0.1,0
			l0,0l0,0l0,0l0,0l0,0l0,0l0,0l0,0l0,0l0,0l0,0l0,0l0,0l0,0l0,0l0,0l0,0l0,0l0,0l0,0l0,0l0,0l0,0l0,0l0,0l0,0l0,0l0,0l0,0l0,0l0,0
			l0,0l0,0l0,0l0,0l0,0l0,0l0,0l0,0l0,0l0,0l0,0l0,0l0,0l0,0l0,0l0,0l0,0l0,0l0,0l0,0l0,0c-0.1,0.1-0.1,0.1-0.2,0.2l1.4,1.4
			c1.1-1.1,2.3-2.2,3.6-3.3L260,54L260,54z M252.9,61.2L252.9,61.2L252.9,61.2C252.9,61.2,252.8,61.2,252.9,61.2
			C252.8,61.2,252.8,61.2,252.9,61.2C252.8,61.3,252.8,61.3,252.9,61.2C252.8,61.3,252.8,61.3,252.9,61.2
			C252.8,61.3,252.8,61.3,252.9,61.2c-0.1,0.1-0.1,0.1-0.1,0.1l0,0l0,0l0,0l0,0l0,0l0,0l0,0l0,0l0,0l0,0l0,0l0,0l0,0l0,0l0,0l0,0
			l0,0l0,0l0,0l0,0l0,0l0,0l0,0l0,0l0,0l0,0l0,0l0,0l0,0l0,0l0,0l0,0l0,0l0,0l0,0l0,0l0,0l0,0l0,0l0,0l0,0l0,0l0,0l0,0l0,0l0,0l0,0
			l0,0l0,0l0,0l0,0l0,0l0,0l0,0l0,0c0,0,0,0,0,0.1l0,0c0,0,0,0,0,0.1l0,0c0,0,0,0,0,0.1l0,0c0,0,0,0,0,0.1l0,0c0,0,0,0,0,0.1l0,0
			c0,0,0,0,0,0.1l0,0c0,0,0,0,0,0.1l0,0c0,0,0,0,0,0.1l0,0c0,0,0,0,0,0.1l0,0l0,0l0,0c0,0,0,0,0,0.1l0,0c0,0,0,0,0,0.1l0,0
			c0,0,0,0,0,0.1l0,0c0,0,0,0,0,0.1l0,0c0,0,0,0,0,0.1l0,0c0,0,0,0,0,0.1l0,0c0,0,0,0,0,0.1l0,0c0,0,0,0,0,0.1l0,0c0,0,0,0,0,0.1
			l0,0c0,0,0,0,0,0.1l0,0l0,0l0,0l0,0l0,0l0,0l0,0l0,0l0,0l0,0l0,0l0,0l0,0l0,0l0,0l0,0l0,0l0,0l0,0l0,0l0,0l0,0l0,0l0,0l0,0l0,0
			l0,0l0,0l0,0l0,0l0,0l0,0l0,0l0,0l0,0l0,0l0,0l0,0l0,0l0,0l0,0l0,0l0,0l0,0l0,0l0,0l0,0l0,0l0,0l0,0l0,0l0,0l0,0l0,0l0,0l0,0l0,0
			l0,0l0,0l0,0l0,0l0,0l0,0l0,0l0,0l0,0l0,0l0,0l0,0l0,0l0,0l0,0c0,0,0,0,0,0.1l0,0c0,0,0,0,0,0.1l0,0c0,0,0,0,0,0.1l0,0
			c0,0,0,0,0,0.1l0,0l0,0l0,0l0,0l0,0l0,0l0,0l0,0l0,0l0,0l0,0l0,0l0,0c0,0,0,0,0,0.1l0,0l0,0l0,0l0,0l0,0l0,0l0,0c0,0,0,0,0,0.1
			l0,0l0,0l1.6,1.2c1-1.3,2-2.6,3.1-3.8L252.9,61.2L252.9,61.2z M246.9,69.2c-0.4,0.5-0.7,1.1-1,1.6l0,0c0,0,0,0,0,0.1l0,0l0,0l0,0
			l0,0l0,0l0,0l0,0l0,0l0,0l0,0l0,0l0,0l0,0l0,0l0,0l0,0l0,0l0,0l0,0l0,0l0,0l0,0l0,0l0,0l0,0l0,0l0,0l0,0l0,0l0,0l0,0l0,0l0,0l0,0
			l0,0l0,0l0,0l0,0l0,0l0,0l0,0l0,0l0,0l0,0l0,0l0,0l0,0l0,0l0,0l0,0l0,0l0,0l0,0l0,0l0,0l0,0l0,0l0,0l0,0l0,0l0,0l0,0l0,0l0,0l0,0
			l0,0l0,0l0,0l0,0l0,0l0,0l0,0l0,0l0,0l0,0l0,0l0,0l0,0l0,0l0,0l0,0l0,0l0,0l0,0l0,0l0,0l0,0l0,0l0,0l0,0l0,0l0,0l0,0l0,0l0,0
			c0,0,0,0,0,0.1l0,0c-0.2,0.3-0.4,0.6-0.5,0.9l1.8,1c0.8-1.4,1.6-2.8,2.5-4.2L246.9,69.2L246.9,69.2z M242,77.9
			c-0.1,0.2-0.2,0.4-0.3,0.7l0,0c0,0,0,0,0,0.1l0,0l0,0l0,0l0,0l0,0l0,0l0,0l0,0l0,0l0,0l0,0l0,0l0,0l0,0l0,0l0,0l0,0l0,0l0,0l0,0
			l0,0l0,0l0,0l0,0l0,0l0,0l0,0l0,0l0,0l0,0l0,0l0,0l0,0l0,0l0,0l0,0l0,0l0,0l0,0l0,0l0,0l0,0l0,0l0,0l0,0l0,0l0,0l0,0l0,0l0,0l0,0
			l0,0l0,0l0,0l0,0l0,0l0,0l0,0l0,0l0,0l0,0l0,0l0,0l0,0l0,0l0,0l0,0l0,0l0,0l0,0l0,0l0,0l0,0l0,0l0,0l0,0l0,0l0,0l0,0l0,0l0,0l0,0
			l0,0l0,0l0,0l0,0l0,0l0,0l0,0l0,0l0,0l0,0l0,0l0,0l0,0l0,0l0,0l0,0l0,0l0,0l0,0l0,0l0,0l0,0l0,0l0,0l0,0l0,0l0,0l0,0l0,0l0,0l0,0
			l0,0l0,0l0,0l0,0l0,0l0,0l0,0l0,0l0,0l0,0l0,0l0,0l0,0l0,0l0,0l0,0l0,0l0,0l0,0l0,0l0,0l0,0l0,0l0,0l0,0l0,0l0,0l0,0
			c0,0,0,0,0,0.1l0,0c0,0,0,0,0,0.1l0,0l0,0l0,0l0,0l0,0l0,0l0,0l0,0l0,0l0,0l0,0l0,0l0,0l0,0l0,0c0,0,0,0,0,0.1l0,0c0,0,0,0,0,0.1
			l0,0c0,0,0,0,0,0.1l0,0c0,0,0,0,0,0.1l0,0c0,0,0,0,0,0.1l0,0v0.1l0,0c0,0,0,0,0,0.1l0,0c0,0,0,0,0,0.1l0,0c0,0,0,0,0,0.1l0,0
			c0,0,0,0,0,0.1l0,0c0,0,0,0,0,0.1l0,0l0,0l0,0l0,0l0,0l0,0l0,0l0,0l1.9,0.7c0.6-1.5,1.2-3,1.9-4.5L242,77.9L242,77.9z M238.5,87.4
			c-0.2,0.6-0.3,1.2-0.5,1.8l0,0c0,0,0,0,0,0.1l0,0c0,0,0,0,0,0.1l0,0l0,0l0,0l0,0l0,0l0,0l0,0c0,0,0,0,0,0.1l0,0l0,0l0,0l0,0l0,0
			l0,0l0,0l0,0l0,0l0,0l0,0l0,0l0,0l0,0l0,0l0,0l0,0l0,0l0,0l0,0l0,0l0,0l0,0l0,0c0,0,0,0,0,0.1l0,0l0,0l0,0l0,0l0,0l0,0l0,0l0,0
			l0,0l0,0l0,0c0,0,0,0,0,0.1l0,0c-0.2,0.6-0.3,1.3-0.5,1.9l2,0.4c0.3-1.6,0.8-3.2,1.2-4.7L238.5,87.4L238.5,87.4z M236.4,97.1
			c0,0.3-0.1,0.5-0.1,0.8l0,0V98l0,0l0,0l0,0l0,0l0,0l0,0l0,0l0,0l0,0l0,0l0,0l0,0l0,0l0,0l0,0l0,0l0,0l0,0c0,0,0,0,0,0.1l0,0
			c-0.2,1.2-0.3,2.5-0.4,3.7l2,0.1c0.1-1.6,0.3-3.2,0.5-4.8L236.4,97.1L236.4,97.1z M235.6,107.2v0.1l0,0l0,0l0,0l0,0l0,0l0,0l0,0
			l0,0l0,0l0,0l0,0l0,0l0,0l0,0l0,0l0,0l0,0l0,0l0,0l0,0l0,0l0,0l0,0l0,0l0,0l0,0l0,0l0,0l0,0l0,0l0,0l0,0l0,0l0,0l0,0l0,0l0,0l0,0
			l0,0l0,0l0,0l0,0l0,0l0,0l0,0l0,0l0,0l0,0l0,0l0,0l0,0l0,0l0,0l0,0l0,0c0,0,0,0,0,0.1l0,0l0,0l0,0c0,0,0,0,0,0.1l0,0l0,0l0,0
			c0,0,0,0,0,0.1l0,0l0,0l0,0l0,0l0,0l0,0l0,0l0,0l0,0l0,0l0,0c0,0,0,0,0,0.1l0,0l0,0l0,0c0,0,0,0,0,0.1l0,0l0,0l0,0v0.1l0,0v0.1
			l0,0c0,1,0.1,2,0.1,3l0,0l2-0.1c-0.1-1.5-0.2-3.1-0.2-4.6V106L235.6,107.2L235.6,107.2z M238.3,116.9l-2,0.3
			c0,0.3,0.1,0.6,0.1,0.9l0,0c0,0,0,0,0,0.1l0,0l0,0l0,0l0,0l0,0l0,0l0,0l0,0l0,0l0,0l0,0l0,0l0,0l0,0l0,0l0,0c0,0,0,0,0,0.1l0,0
			c0.2,1.2,0.4,2.4,0.7,3.6l2-0.4C238.8,120.1,238.5,118.5,238.3,116.9L238.3,116.9z M240.3,126.4l-1.9,0.6c0.2,0.6,0.4,1.2,0.6,1.8
			l0,0c0,0,0,0,0,0.1l0,0l0,0l0,0l0,0l0,0l0,0l0,0l0,0l0,0l0,0l0,0l0,0l0,0l0,0l0,0l0,0l0,0l0,0l0,0l0,0l0,0l0,0
			c0.3,0.8,0.5,1.6,0.8,2.4l1.9-0.7C241.2,129.6,240.7,127.9,240.3,126.4L240.3,126.4z M243.6,135.6l-1.8,0.8
			c0.2,0.5,0.4,0.9,0.7,1.4l0,0c0,0,0,0,0,0.1l0,0c0,0,0,0,0,0.1l0,0c0,0,0,0,0,0.1l0,0l0,0l0,0l0,0l0,0l0,0l0,0l0,0l0,0l0,0l0,0
			c0,0,0,0,0,0.1l0,0c0,0,0,0,0,0.1l0,0c0,0,0,0,0,0.1l0,0c0,0,0,0,0,0.1l0,0c0,0,0,0,0,0.1l0,0c0.4,0.8,0.8,1.6,1.2,2.3l1.8-1
			C245,138.5,244.3,137.1,243.6,135.6L243.6,135.6z M248.2,144.1l-1.7,1.1c0.1,0.2,0.2,0.4,0.3,0.5l0,0c0,0,0,0,0,0.1l0,0
			c0,0,0,0,0,0.1l0,0l0,0l0,0l0,0l0,0l0,0l0,0l0,0l0,0l0,0l0,0l0,0l0,0l0,0l0,0l0,0l0,0l0,0l0,0l0,0l0,0l0,0l0,0l0,0l0,0l0,0l0,0
			l0,0l0,0l0,0l0,0l0,0l0,0l0,0l0,0l0,0l0,0l0,0l0,0l0,0l0,0l0,0l0,0l0,0l0,0l0,0l0,0l0,0c0,0,0,0,0,0.1l0,0c0,0,0,0,0,0.1l0,0
			c0,0,0,0,0,0.1l0,0c0,0,0,0,0,0.1l0,0c0,0,0,0,0,0.1l0,0c0,0,0,0,0,0.1l0,0c0,0,0,0,0,0.1l0,0c0,0,0,0,0,0.1l0,0c0,0,0,0,0,0.1
			l0,0c0,0,0,0,0,0.1l0,0l0,0l0,0l0,0l0,0l0,0l0,0l0,0l0,0l0,0l0,0l0,0l0,0l0,0l0,0l0,0l0,0l0,0l0,0l0,0l0,0l0,0l0,0l0,0l0,0l0,0
			l0,0l0,0l0,0l0,0l0,0l0,0l0,0l0,0l0,0l0,0l0,0l0,0l0,0l0,0l0,0l0,0l0,0l0,0l0,0l0,0l0,0l0,0l0,0l0,0l0,0l0,0c0,0,0,0,0,0.1l0,0
			c0,0,0,0,0,0.1l0,0c0.3,0.4,0.5,0.7,0.8,1.1l1.6-1.2C250,146.8,249.1,145.5,248.2,144.1L248.2,144.1z M254,151.9l-1.5,1.3
			c0,0.1,0.1,0.1,0.1,0.2l0,0l0,0l0,0l0,0l0,0l0,0l0,0l0,0l0,0l0,0l0,0l0,0l0,0l0,0l0,0l0,0l0,0l0,0l0,0l0,0l0,0l0,0l0,0l0,0l0,0
			l0,0l0,0l0,0l0,0l0,0c0,0,0,0,0,0.1l0,0c0,0,0,0,0,0.1l0,0c0,0,0,0,0,0.1l0,0c0,0,0,0,0.1,0.1l0,0c0.9,1,1.8,1.9,2.7,2.9l1.4-1.4
			C256.2,154.5,255.1,153.3,254,151.9L254,151.9z M260.9,158.9l-1.3,1.5l0,0l0,0l0,0l0,0l0,0l0,0l0,0l0,0l0,0l0,0l0,0l0,0l0,0l0,0
			l0,0l0,0c0,0,0,0,0.1,0l0,0c0,0,0,0,0.1,0l0,0c0,0,0,0,0.1,0.1l0,0c0.4,0.3,0.8,0.7,1.2,1l0,0c0,0,0,0,0.1,0l0,0c0,0,0,0,0.1,0
			l0,0c0,0,0,0,0.1,0l0,0l0,0l0,0l0,0l0,0l0,0l0,0l0,0l0,0l0,0l0,0l0,0l0,0l0,0l0,0l0,0l0,0l0,0l0,0l0,0l0,0l0,0l0,0l0,0l0,0l0,0
			l0,0l0,0l0,0l0,0l0,0l0,0l0,0l0,0c0,0,0,0,0.1,0l0,0c0,0,0,0,0.1,0l0,0c0,0,0,0,0.1,0l0,0c0,0,0,0,0.1,0l0,0c0,0,0,0,0.1,0l0,0
			c0.4,0.3,0.9,0.7,1.3,1l1.2-1.6C263.3,161,262.1,160,260.9,158.9L260.9,158.9z M268.6,164.8l-1.1,1.7c0.4,0.3,0.8,0.5,1.2,0.8l0,0
			l0,0l0,0l0,0l0,0l0,0l0,0l0,0l0,0l0,0l0,0l0,0l0,0l0,0l0,0l0,0l0,0l0,0l0,0l0,0l0,0l0,0l0,0l0,0l0,0l0,0l0,0l0,0l0,0l0,0l0,0l0,0
			l0,0l0,0l0,0l0,0c0,0,0,0,0.1,0l0,0c0,0,0,0,0.1,0l0,0c0,0,0,0,0.1,0l0,0c0.6,0.3,1.1,0.7,1.7,1l0,0c0,0,0,0,0.1,0l0,0l0,0l0,0
			l0,0l0,0l0,0l0,0l0,0l0,0l0,0l0,0l0,0l0,0l0,0l0,0l0,0l0,0l0,0l0,0l0,0l0,0l0,0l0,0l0,0l0,0l0,0l0,0l0,0l0,0l0,0l0,0l0,0l1-1.7
			C271.3,166.5,269.9,165.7,268.6,164.8L268.6,164.8z M277.1,169.5l-0.8,1.8c1.1,0.5,2.3,1,3.4,1.5l0,0c0,0,0,0,0.1,0l0,0
			c0,0,0,0,0.1,0l0,0l0,0l0,0l0,0l0,0l0,0l0,0l0,0l0,0l0,0l0,0l0,0l0,0l0,0l0,0l0,0l0,0l0,0l0,0l0,0l0,0l0,0l0,0l0,0l0,0l0,0l0,0
			l0,0c0,0,0,0,0.1,0l0,0c0.2,0.1,0.3,0.1,0.5,0.2l0.7-1.9C280,170.9,278.5,170.2,277.1,169.5L277.1,169.5z M286.1,173l-0.6,1.9l0,0
			l0,0l0,0l0,0l0,0l0,0l0,0l0,0l0,0l0,0l0,0l0,0l0,0l0,0l0,0l0,0l0,0l0,0l0,0l0,0l0,0l0,0l0,0l0,0l0,0l0,0l0,0l0,0l0,0l0,0l0,0l0,0
			l0,0l0,0l0,0l0,0l0,0l0,0l0,0l0,0l0,0l0,0l0,0l0,0l0,0l0,0l0,0l0,0c0,0,0,0,0.1,0l0,0l0,0l0,0l0,0l0,0l0,0l0,0l0,0l0,0l0,0l0,0
			l0,0l0,0l0,0l0,0l0,0l0,0l0,0l0,0l0,0l0,0l0,0l0,0l0,0l0,0l0,0l0,0l0,0l0,0l0,0l0,0l0,0l0,0l0,0l0,0l0,0l0,0l0,0l0,0l0,0l0,0l0,0
			l0,0l0,0l0,0l0,0l0,0l0,0l0,0l0,0l0,0l0,0l0,0l0,0l0,0l0,0l0,0l0,0l0,0l0,0l0,0l0,0l0,0l0,0l0,0l0,0l0,0l0,0l0,0l0,0
			c0,0,0,0,0.1,0l0,0c0,0,0,0,0.1,0l0,0c0,0,0,0,0.1,0l0,0c0.8,0.2,1.6,0.4,2.4,0.6l0.4-2C289.3,173.9,287.7,173.5,286.1,173
			L286.1,173z M295.6,175.1l-0.3,2c0.2,0,0.4,0.1,0.6,0.1l0,0c0,0,0,0,0.1,0l0,0l0,0l0,0l0,0l0,0l0,0l0,0l0,0l0,0l0,0l0,0l0,0l0,0
			l0,0l0,0l0,0l0,0l0,0l0,0l0,0l0,0l0,0c0,0,0,0,0.1,0l0,0c0.6,0.1,1.2,0.2,1.8,0.2l0,0h0.1l0,0h0.1l0,0l0,0l0,0l0,0l0,0l0,0l0,0
			l0,0l0,0l0,0l0,0l0,0l0,0l0,0l0,0l0,0l0,0l0,0l0,0l0,0l0,0l0,0c0,0,0,0,0.1,0l0,0l0,0l0,0l0,0l0,0l0,0l0,0c0.4,0,0.8,0.1,1.2,0.1
			l0.2-2C298.8,175.5,297.2,175.4,295.6,175.1L295.6,175.1z M310.1,175.7c-1.4,0.1-2.9,0.1-4.3,0.1h-0.6v2c0.1,0,0.1,0,0.2,0l0,0
			l0,0l0,0l0,0l0,0l0,0c0,0,0,0,0.1,0l0,0l0,0l0,0l0,0l0,0c0,0,0,0,0.1,0l0,0l0,0l0,0l0,0l0,0l0,0l0,0l0,0l0,0l0,0l0,0l0,0l0,0l0,0
			l0,0l0,0l0,0l0,0l0,0l0,0l0,0l0,0l0,0l0,0l0,0l0,0l0,0l0,0l0,0l0,0c0,0,0,0,0.1,0l0,0l0,0l0,0l0,0l0,0l0,0l0,0l0,0l0,0l0,0l0,0
			l0,0l0,0l0,0l0,0l0,0l0,0l0,0l0,0l0,0l0,0l0,0l0,0l0,0l0,0l0,0l0,0l0,0l0,0l0,0l0,0l0,0l0,0l0,0l0,0l0,0l0,0l0,0l0,0l0,0l0,0l0,0
			l0,0l0,0l0,0l0,0l0,0l0,0l0,0l0,0l0,0l0,0l0,0l0,0l0,0l0,0l0,0l0,0l0,0l0,0l0,0l0,0l0,0l0,0l0,0l0,0l0,0c0,0,0,0,0.1,0l0,0l0,0
			l0,0l0,0l0,0l0,0l0,0l0,0l0,0l0,0l0,0l0,0l0,0l0,0l0,0l0,0l0,0l0,0l0,0l0,0l0,0l0,0l0,0c0,0,0,0,0.1,0l0,0l0,0l0,0l0,0l0,0l0,0
			l0,0l0,0l0,0l0,0l0,0l0,0l0,0l0,0l0,0c0,0,0,0,0.1,0l0,0l0,0l0,0l0,0l0,0h0.1l0,0l0,0l0,0h0.1l0,0l0,0l0,0h0.1l0,0l0,0l0,0h0.1
			l0,0l0,0l0,0h0.1l0,0c0.4,0,0.8,0,1.2-0.1L310.1,175.7L310.1,175.7z M319.8,174.5c-1.6,0.3-3.2,0.6-4.8,0.8l0.3,2
			c1.7-0.2,3.3-0.5,4.9-0.8L319.8,174.5L319.8,174.5z M329.1,171.8c-1.5,0.5-3.1,1.1-4.6,1.5l0.5,1.9c1.6-0.5,3.2-1,4.8-1.5
			L329.1,171.8L329.1,171.8z M338,167.9c-1.4,0.8-2.9,1.5-4.4,2.1l0.8,1.8c1.5-0.7,3-1.4,4.5-2.2L338,167.9L338,167.9z M346.2,162.7
			c-1.3,1-2.7,1.9-4,2.7l1.1,1.7c0.1-0.1,0.3-0.2,0.4-0.3l0,0c0,0,0,0,0.1,0l0,0c0,0,0,0,0.1,0l0,0c0,0,0,0,0.1,0l0,0c0,0,0,0,0.1,0
			l0,0c0,0,0,0,0.1,0l0,0l0,0l0,0l0,0l0,0l0,0l0,0l0,0l0,0l0,0l0,0l0,0l0,0l0,0l0,0l0,0l0,0l0,0l0,0l0,0l0,0l0,0l0,0l0,0l0,0l0,0
			l0,0l0,0l0,0l0,0l0,0l0,0l0,0l0,0l0,0l0,0l0,0l0,0l0,0l0,0l0,0l0,0l0,0l0,0l0,0l0,0l0,0l0,0l0,0l0,0l0,0l0,0l0,0l0,0l0,0l0,0l0,0
			l0,0l0,0l0,0l0,0l0,0l0,0l0,0l0,0l0,0l0,0l0,0l0,0l0,0l0,0l0,0l0,0l0,0l0,0l0,0l0,0l0,0l0,0l0,0l0,0l0,0l0,0l0,0l0,0l0,0l0,0l0,0
			l0,0l0,0l0,0l0,0l0,0l0,0l0,0l0,0l0,0l0,0l0,0l0,0l0,0l0,0l0,0l0,0l0,0l0,0l0,0l0,0l0,0l0,0l0,0l0,0l0,0l0,0l0,0l0,0l0,0l0,0l0,0
			l0,0l0,0l0,0l0,0l0,0l0,0l0,0l0,0l0,0l0,0l0,0l0,0l0,0l0,0l0,0l0,0l0,0l0,0l0,0l0,0l0,0l0,0l0,0l0,0l0,0l0,0l0,0l0,0l0,0l0,0l0,0
			l0,0l0,0l0,0l0,0l0,0l0,0l0,0l0,0l0,0l0,0l0,0l0,0l0,0l0,0l0,0l0,0l0,0l0,0l0,0l0,0l0,0l0,0l0,0l0,0l0,0l0,0l0,0l0,0l0,0l0,0l0,0
			l0,0l0,0l0,0l0,0l0,0l0,0l0,0l0,0l0,0l0,0l0,0l0,0l0,0l0,0l0,0l0,0l0,0l0,0l0,0l0,0l0,0l0,0l0,0l0,0l0,0l0,0l0,0l0,0l0,0
			L346.2,162.7L346.2,162.7z M353.6,156.4c-1.2,1.1-2.4,2.2-3.6,3.3l1.3,1.5c0.3-0.3,0.7-0.6,1-0.9l0,0c0,0,0,0,0.1,0l0,0l0,0l0,0
			l0,0l0,0l0,0l0,0l0,0l0,0l0,0l0,0l0,0l0,0l0,0l0,0l0,0l0,0l0,0l0,0l0,0l0,0l0,0l0,0l0,0l0,0l0,0l0,0l0,0l0,0l0,0l0,0l0,0l0,0l0,0
			l0,0l0,0l0,0l0,0c0,0,0,0,0.1-0.1l0,0c0,0,0,0,0.1-0.1l0,0c0.3-0.3,0.7-0.6,1-1l0,0c0,0,0,0,0.1-0.1l0,0c0,0,0,0,0.1-0.1l0,0l0,0
			l0,0l0,0l0,0l0,0l0,0l0,0l0,0l0,0l0,0l0,0l0,0l0,0l0,0l0,0l0,0l0,0l0,0l0,0l0,0l0,0l0,0l0,0l0,0l0,0l0,0l0,0l0,0l0,0
			c0,0,0,0,0.1-0.1l0,0c0.1-0.1,0.3-0.2,0.4-0.4L353.6,156.4L353.6,156.4z M360,149c-1,1.3-2,2.5-3.1,3.7l1.5,1.3l0,0l0,0l0,0l0,0
			l0,0l0,0l0,0c0,0,0,0,0-0.1l0,0c1.1-1.2,2.1-2.4,3-3.7L360,149L360,149z M365.3,140.9c-0.8,1.4-1.6,2.8-2.5,4.1l1.7,1.1
			c0.9-1.4,1.8-2.8,2.6-4.3L365.3,140.9L365.3,140.9z M369.5,132.1c-0.6,1.5-1.2,3-1.9,4.5l1.8,0.9c0-0.1,0.1-0.1,0.1-0.2l0,0
			c0,0,0,0,0-0.1l0,0l0,0l0,0l0,0l0,0l0,0l0,0l0,0l0,0l0,0l0,0l0,0l0,0l0,0l0,0l0,0l0,0l0,0l0,0l0,0l0,0l0,0l0,0l0,0l0,0l0,0l0,0
			l0,0c0,0,0,0,0-0.1l0,0c0,0,0,0,0-0.1l0,0l0,0l0,0l0,0l0,0l0,0l0,0c0,0,0,0,0-0.1l0,0c0,0,0,0,0-0.1l0,0c0,0,0,0,0-0.1l0,0
			c0.1-0.3,0.3-0.6,0.4-0.9l0,0c0,0,0,0,0-0.1l0,0c0,0,0,0,0-0.1l0,0c0,0,0,0,0-0.1l0,0c0,0,0,0,0-0.1l0,0l0,0l0,0l0,0l0,0l0,0l0,0
			c0,0,0,0,0-0.1l0,0c0,0,0,0,0-0.1l0,0c0,0,0,0,0-0.1l0,0c0,0,0,0,0-0.1l0,0l0,0l0,0l0,0l0,0l0,0l0,0l0,0l0,0l0,0l0,0l0,0l0,0l0,0
			l0,0l0,0l0,0l0,0l0,0c0,0,0,0,0-0.1l0,0c0,0,0,0,0-0.1l0,0l0,0l0,0l0,0l0,0l0,0l0,0l0,0l0,0l0,0l0,0l0,0l0,0l0,0l0,0
			c0,0,0,0,0-0.1l0,0c0,0,0,0,0-0.1l0,0c0,0,0,0,0-0.1l0,0c0,0,0,0,0-0.1l0,0l0,0l0,0l0,0l0,0l0,0l0,0c0,0,0,0,0-0.1l0,0
			c0,0,0,0,0-0.1l0,0c0,0,0,0,0-0.1l0,0c0.1-0.1,0.1-0.3,0.2-0.4L369.5,132.1L369.5,132.1z M372.3,122.8c-0.4,1.6-0.8,3.2-1.3,4.7
			l1.9,0.6c0.5-1.6,0.9-3.2,1.3-4.8L372.3,122.8L372.3,122.8z M373.8,113.2c-0.1,1.6-0.3,3.2-0.6,4.8l2,0.3c0.1-0.5,0.1-1,0.2-1.5
			l0,0v-0.1l0,0l0,0l0,0c0,0,0,0,0-0.1l0,0l0,0l0,0c0,0,0,0,0-0.1l0,0l0,0l0,0l0,0l0,0l0,0l0,0l0,0l0,0l0,0l0,0l0,0l0,0l0,0l0,0l0,0
			l0,0l0,0l0,0l0,0l0,0l0,0l0,0l0,0l0,0l0,0l0,0l0,0l0,0l0,0l0,0l0,0l0,0l0,0l0,0l0,0l0,0l0,0l0,0l0,0l0,0l0,0l0,0l0,0l0,0l0,0
			c0,0,0,0,0-0.1l0,0v-0.1l0,0l0,0l0,0v-0.1l0,0v-0.1l0,0V116l0,0c0-0.1,0-0.1,0-0.2l0,0v-0.1l0,0v-0.1l0,0v-0.1l0,0v-0.1l0,0v-0.1
			l0,0v-0.1l0,0l0,0l0,0c0,0,0,0,0-0.1l0,0c0,0,0,0,0-0.1l0,0l0,0l0,0l0,0l0,0l0,0l0,0c0,0,0,0,0-0.1l0,0l0,0l0,0l0,0l0,0l0,0l0,0
			l0,0l0,0l0,0l0,0l0,0l0,0l0,0l0,0l0,0l0,0l0,0l0,0l0,0l0,0l0,0l0,0l0,0l0,0l0,0l0,0l0,0l0,0l0,0l0,0l0,0l0,0l0,0l0,0l0,0
			c0,0,0,0,0-0.1L373.8,113.2L373.8,113.2z M375.9,103.2l-2,0.1c0.1,1.3,0.1,2.7,0.1,4c0,0.3,0,0.6,0,0.8h2v-0.1l0,0l0,0l0,0l0,0
			l0,0l0,0l0,0l0,0l0,0l0,0l0,0l0,0l0,0l0,0c0-0.1,0-0.2,0-0.3l0,0l0,0l0,0l0,0l0,0l0,0l0,0l0,0l0,0l0,0l0,0l0,0l0,0l0,0l0,0l0,0
			l0,0l0,0l0,0l0,0l0,0l0,0l0,0l0,0l0,0l0,0l0,0l0,0l0,0l0,0l0,0l0,0l0,0l0,0l0,0l0,0l0,0l0,0l0,0l0,0l0,0l0,0l0,0l0,0l0,0l0,0l0,0
			l0,0l0,0l0,0l0,0l0,0l0,0l0,0l0,0l0,0l0,0l0,0l0,0l0,0l0,0l0,0l0,0l0,0l0,0l0,0l0,0l0,0l0,0l0,0l0,0l0,0l0,0l0,0l0,0l0,0l0,0l0,0
			l0,0l0,0l0,0l0,0l0,0l0,0l0,0l0,0l0,0l0,0l0,0l0,0l0,0l0,0l0,0l0,0l0,0l0,0l0,0l0,0l0,0l0,0l0,0l0,0l0,0c0,0,0,0,0-0.1l0,0l0,0
			l0,0l0,0l0,0l0,0l0,0l0,0l0,0l0,0l0,0l0,0l0,0l0,0l0,0l0,0l0,0l0,0l0,0l0,0l0,0l0,0l0,0c0,0,0,0,0-0.1l0,0l0,0l0,0l0,0l0,0l0,0
			l0,0l0,0l0,0l0,0l0,0l0,0l0,0l0,0l0,0l0,0l0,0l0,0l0,0l0,0l0,0l0,0l0,0l0,0l0,0l0,0l0,0l0,0l0,0l0,0l0,0l0,0l0,0l0,0l0,0l0,0l0,0
			l0,0l0,0l0,0l0,0l0,0l0,0l0,0l0,0l0,0l0,0l0,0l0,0l0,0l0,0l0,0l0,0l0,0l0,0l0,0l0,0l0,0l0,0l0,0l0,0l0,0l0,0l0,0v-0.1l0,0l0,0l0,0
			l0,0l0,0C376,104,375.9,103.6,375.9,103.2L375.9,103.2z M374.6,93.3l-2,0.4c0.3,1.6,0.6,3.2,0.8,4.8l2-0.3
			c-0.1-0.5-0.1-0.9-0.2-1.4l0,0v-0.1l0,0v-0.1l0,0v-0.1l0,0c0,0,0,0,0-0.1l0,0l0,0l0,0v-0.1l0,0c0,0,0,0,0-0.1l0,0c0,0,0,0,0-0.1
			l0,0l0,0l0,0c0,0,0,0,0-0.1l0,0c0,0,0,0,0-0.1l0,0c0,0,0,0,0-0.1l0,0l0,0l0,0c0,0,0,0,0-0.1l0,0c0,0,0,0,0-0.1l0,0l0,0l0,0l0,0
			l0,0l0,0l0,0c0,0,0,0,0-0.1l0,0c0,0,0,0,0-0.1l0,0l0,0l0,0c0,0,0,0,0-0.1l0,0c0,0,0,0,0-0.1l0,0v-0.1l0,0c0,0,0,0,0-0.1l0,0
			C374.9,94.5,374.7,93.9,374.6,93.3L374.6,93.3z M371.9,83.7l-1.9,0.7c0.5,1.5,1,3.1,1.5,4.6l1.9-0.5c0-0.1-0.1-0.3-0.1-0.4l0,0
			c0,0,0,0,0-0.1l0,0c0,0,0,0,0-0.1l0,0l0,0l0,0l0,0l0,0l0,0l0,0c0,0,0,0,0-0.1l0,0c0,0,0,0,0-0.1l0,0l0,0l0,0l0,0l0,0l0,0l0,0l0,0
			l0,0l0,0l0,0l0,0l0,0l0,0l0,0l0,0l0,0l0,0l0,0l0,0l0,0l0,0l0,0l0,0l0,0l0,0l0,0l0,0l0,0l0,0l0,0l0,0l0,0l0,0l0,0l0,0l0,0l0,0l0,0
			l0,0l0,0l0,0l0,0l0,0l0,0l0,0l0,0l0,0l0,0l0,0l0,0l0,0l0,0l0,0l0,0l0,0l0,0l0,0l0,0l0,0l0,0l0,0l0,0l0,0l0,0l0,0l0,0l0,0l0,0l0,0
			l0,0l0,0l0,0l0,0l0,0l0,0l0,0l0,0l0,0l0,0l0,0l0,0l0,0l0,0l0,0l0,0l0,0l0,0l0,0l0,0l0,0l0,0l0,0l0,0l0,0l0,0l0,0l0,0l0,0l0,0l0,0
			l0,0l0,0l0,0l0,0l0,0l0,0l0,0l0,0l0,0l0,0l0,0l0,0l0,0l0,0l0,0l0,0l0,0l0,0l0,0l0,0l0,0l0,0l0,0l0,0l0,0l0,0l0,0l0,0l0,0l0,0
			c0,0,0,0,0-0.1l0,0c0,0,0,0,0-0.1l0,0l0,0l0,0l0,0l0,0l0,0l0,0c0,0,0,0,0-0.1l0,0C372.2,84.5,372.1,84.1,371.9,83.7L371.9,83.7z
			 M367.9,74.5l-1.8,0.9c0.8,1.4,1.5,2.9,2.1,4.4L370,79l0,0l0,0l0,0l0,0l0,0l0,0l0,0l0,0l0,0c0,0,0,0,0-0.1l0,0c0,0,0,0,0-0.1l0,0
			c0,0,0,0,0-0.1l0,0c0,0,0,0,0-0.1l0,0c-0.3-0.7-0.6-1.3-0.9-2l0,0c0,0,0,0,0-0.1l0,0c0,0,0,0,0-0.1l0,0c0,0,0,0,0-0.1l0,0
			c0,0,0,0,0-0.1l0,0c0,0,0,0,0-0.1l0,0l0,0l0,0l0,0l0,0l0,0l0,0l0,0l0,0l0,0l0,0l0,0l0,0l0,0l0,0c0,0,0,0,0-0.1l0,0c0,0,0,0,0-0.1
			l0,0l0,0l0,0l0,0l0,0l0,0l0,0l0,0l0,0l0,0l0,0l0,0l0,0l0,0l0,0l0,0l0,0l0,0l0,0l0,0l0,0l0,0l0,0l0,0l0,0l0,0l0,0l0,0l0,0l0,0l0,0
			l0,0l0,0l0,0l0,0l0,0l0,0l0,0l0,0l0,0l0,0l0,0l0,0l0,0l0,0l0,0l0,0l0,0l0,0l0,0l0,0l0,0l0,0l0,0l0,0l0,0l0,0l0,0l0,0l0,0l0,0l0,0
			l0,0l0,0l0,0l0,0l0,0l0,0l0,0l0,0l0,0l0,0C368,74.6,368,74.6,367.9,74.5L367.9,74.5L367.9,74.5L367.9,74.5L367.9,74.5L367.9,74.5
			L367.9,74.5L367.9,74.5z M362.6,66l-1.6,1.2c1,1.3,1.9,2.7,2.7,4l1.7-1.1c-0.1-0.2-0.2-0.3-0.3-0.5l0,0l0,0l0,0l0,0l0,0l0,0l0,0
			l0,0l0,0l0,0l0,0l0,0l0,0l0,0l0,0l0,0l0,0l0,0l0,0l0,0l0,0l0,0l0,0l0,0l0,0l0,0c0,0,0,0,0-0.1l0,0c0,0,0,0,0-0.1l0,0
			c-0.5-0.8-1-1.5-1.5-2.2l0,0c0,0,0,0,0-0.1l0,0l0,0l0,0l0,0l0,0l0,0l0,0l0,0l0,0l0,0l0,0l0,0l0,0l0,0l0,0l0,0l0,0l0,0
			c0,0,0,0,0-0.1l0,0C362.8,66.3,362.7,66.1,362.6,66L362.6,66z M356.2,58.2l-1.4,1.4c1.1,1.2,2.2,2.4,3.3,3.6l1.5-1.3
			c-1-1.2-2.1-2.4-3.1-3.5l0,0c0,0,0,0-0.1-0.1l0,0C356.4,58.3,356.4,58.3,356.2,58.2L356.2,58.2C356.3,58.3,356.2,58.3,356.2,58.2
			L356.2,58.2C356.2,58.3,356.2,58.3,356.2,58.2L356.2,58.2L356.2,58.2z M348.7,51.6l-1.2,1.6c1.3,1,2.5,2,3.7,3.1l1.3-1.5l0,0l0,0
			l0,0l0,0l0,0l0,0c0,0,0,0-0.1,0l0,0c0,0,0,0-0.1,0l0,0c0,0,0,0-0.1,0l0,0c0,0,0,0-0.1,0l0,0c0,0,0,0-0.1,0l0,0c0,0,0,0-0.1,0l0,0
			c0,0,0,0-0.1-0.1l0,0c0,0,0,0-0.1-0.1l0,0C350.9,53.4,349.8,52.5,348.7,51.6L348.7,51.6z M340.4,46.1l-1,1.7
			c1.4,0.8,2.8,1.7,4.1,2.5l1.1-1.7c-1.3-0.9-2.7-1.7-4.1-2.5l0,0C340.5,46.1,340.5,46.1,340.4,46.1
			C340.5,46.1,340.5,46.1,340.4,46.1C340.5,46.1,340.4,46.1,340.4,46.1L340.4,46.1L340.4,46.1L340.4,46.1z M331.4,41.8l-0.7,1.9
			c1.5,0.6,3,1.2,4.5,1.9l0.9-1.8c-0.3-0.1-0.6-0.3-0.9-0.4l0,0c0,0,0,0-0.1,0l0,0c0,0,0,0-0.1,0l0,0l0,0l0,0l0,0l0,0l0,0l0,0l0,0
			l0,0l0,0l0,0l0,0l0,0l0,0l0,0l0,0l0,0l0,0l0,0l0,0l0,0l0,0l0,0l0,0l0,0l0,0l0,0l0,0l0,0l0,0l0,0l0,0l0,0l0,0l0,0l0,0l0,0l0,0l0,0
			l0,0l0,0l0,0l0,0l0,0l0,0l0,0l0,0l0,0l0,0l0,0l0,0l0,0l0,0l0,0l0,0l0,0l0,0l0,0l0,0l0,0l0,0l0,0l0,0l0,0l0,0l0,0l0,0l0,0l0,0l0,0
			l0,0l0,0l0,0l0,0l0,0l0,0l0,0l0,0l0,0l0,0l0,0l0,0l0,0l0,0l0,0l0,0l0,0l0,0l0,0l0,0l0,0l0,0l0,0l0,0l0,0l0,0l0,0l0,0l0,0l0,0l0,0
			l0,0l0,0l0,0l0,0l0,0l0,0l0,0l0,0l0,0l0,0l0,0l0,0l0,0l0,0l0,0l0,0l0,0l0,0l0,0l0,0l0,0l0,0c0,0,0,0-0.1,0l0,0c0,0,0,0-0.1,0l0,0
			c0,0,0,0-0.1,0l0,0c0,0,0,0-0.1,0l0,0c0,0,0,0-0.1,0l0,0l0,0l0,0l0,0l0,0l0,0l0,0l0,0l0,0l0,0l0,0c0,0,0,0-0.1,0l0,0
			c0,0,0,0-0.1,0l0,0l0,0l0,0l0,0l0,0l0,0l0,0l0,0l0,0l0,0l0,0l0,0l0,0l0,0l0,0l0,0l0,0l0,0l0,0l0,0l0,0l0,0l0,0l0,0l0,0l0,0l0,0
			l0,0l0,0l0,0l0,0l0,0l0,0C331.5,41.8,331.5,41.8,331.4,41.8L331.4,41.8L331.4,41.8L331.4,41.8L331.4,41.8L331.4,41.8L331.4,41.8z
			 M321.8,38.8l-0.5,1.9c1.6,0.4,3.1,0.8,4.7,1.3l0.6-1.9l0,0l0,0l0,0l0,0l0,0l0,0l0,0l0,0l0,0l0,0l0,0l0,0l0,0l0,0l0,0l0,0
			c0,0,0,0-0.1,0l0,0c0,0,0,0-0.1,0l0,0c-0.7-0.2-1.4-0.4-2.1-0.6l0,0c0,0,0,0-0.1,0l0,0c0,0,0,0-0.1,0l0,0l0,0l0,0l0,0l0,0l0,0l0,0
			l0,0l0,0l0,0l0,0l0,0l0,0l0,0l0,0l0,0l0,0l0,0l0,0l0,0l0,0l0,0l0,0l0,0l0,0l0,0l0,0l0,0l0,0l0,0l0,0l0,0l0,0l0,0c0,0,0,0-0.1,0
			l0,0c0,0,0,0-0.1,0l0,0h-0.1l0,0C322.6,39,322.2,38.9,321.8,38.8L321.8,38.8z M312,37.2l-0.2,2c1.6,0.1,3.2,0.3,4.8,0.6l0.3-2
			c-0.2,0-0.3,0-0.5-0.1l0,0h-0.1l0,0c0,0,0,0-0.1,0l0,0l0,0l0,0h-0.1l0,0l0,0l0,0l0,0l0,0l0,0l0,0l0,0l0,0l0,0l0,0l0,0l0,0l0,0l0,0
			l0,0l0,0l0,0l0,0l0,0l0,0l0,0l0,0l0,0l0,0l0,0l0,0l0,0l0,0l0,0l0,0l0,0l0,0l0,0l0,0l0,0l0,0l0,0l0,0l0,0l0,0l0,0l0,0l0,0l0,0l0,0
			l0,0l0,0l0,0l0,0l0,0l0,0l0,0l0,0l0,0l0,0l0,0l0,0l0,0l0,0l0,0l0,0l0,0l0,0l0,0l0,0l0,0l0,0l0,0l0,0l0,0l0,0l0,0l0,0l0,0l0,0l0,0
			l0,0l0,0l0,0l0,0l0,0l0,0l0,0l0,0l0,0l0,0l0,0l0,0l0,0l0,0l0,0l0,0l0,0c0,0,0,0-0.1,0l0,0l0,0l0,0l0,0l0,0l0,0l0,0l0,0l0,0l0,0
			l0,0l0,0l0,0l0,0l0,0l0,0l0,0l0,0l0,0l0,0l0,0l0,0l0,0l0,0l0,0l0,0l0,0l0,0l0,0l0,0l0,0c0,0,0,0-0.1,0l0,0l0,0l0,0l0,0l0,0l0,0
			l0,0c0,0,0,0-0.1,0l0,0l0,0l0,0l0,0l0,0l0,0l0,0l0,0l0,0l0,0l0,0l0,0l0,0l0,0l0,0l0,0l0,0l0,0l0,0l0,0l0,0c0,0,0,0-0.1,0l0,0l0,0
			l0,0l0,0l0,0l0,0l0,0c0,0,0,0-0.1,0l0,0l0,0l0,0l0,0l0,0l0,0l0,0l0,0l0,0l0,0l0,0l0,0l0,0l0,0l0,0l0,0l0,0l0,0l0,0l0,0l0,0l0,0
			l0,0l0,0l0,0l0,0l0,0l0,0l0,0l0,0l0,0c0,0,0,0-0.1,0l0,0l0,0l0,0C312.1,37.3,312,37.3,312,37.2C312,37.3,312,37.3,312,37.2
			C312,37.3,312,37.3,312,37.2C312,37.3,312,37.2,312,37.2L312,37.2L312,37.2L312,37.2z M305.8,37v2c0.4,0,0.7,0,1.1,0v-2
			c-0.1,0-0.1,0-0.2,0l0,0l0,0l0,0l0,0l0,0l0,0l0,0l0,0l0,0l0,0l0,0l0,0h-0.1l0,0l0,0l0,0h-0.1l0,0l0,0l0,0h-0.1l0,0l0,0l0,0l0,0
			l0,0l0,0l0,0l0,0l0,0l0,0l0,0l0,0l0,0l0,0l0,0l0,0l0,0C305.9,37,305.9,37,305.8,37C305.9,37,305.9,37,305.8,37
			C305.9,37,305.9,37,305.8,37C305.9,37,305.9,37,305.8,37C305.9,37,305.9,37,305.8,37C305.9,37,305.8,37,305.8,37L305.8,37
			L305.8,37z"/>
	</g>
	<g id="user_86_">
		<path id="user_87_" class="st1" d="M285.9,137.5c-0.8-0.4-5.8-3.4-8.4-4.5v-4.6c0.8-0.6,1.2-1.4,1.2-2.7V122c0-3-1.8-5.4-5.4-5.4
			s-5.4,2.4-5.4,5.4c0,0,0,0.6,0,3.6c0,1.3,0.5,2.1,1.2,2.7v4.5c-2.5,1.1-7.7,4.1-8.4,4.5c-1,0.5-1.2,1.1-1.2,2.3c0,0.5,0,2.8,0,2.8
			c0,0.3,0.3,0.6,0.6,0.6h26.6c0.3,0,0.6-0.3,0.6-0.6c0,0,0-2.3,0-2.8C287.1,138.5,286.9,138,285.9,137.5z"/>
	</g>
	<g id="group_8_">
		<path class="st1" d="M348.3,140.4c0,1.3,0,3,0,3c0,0.2-0.1,0.4-0.3,0.4h-27.1c-0.2,0-0.3-0.2-0.3-0.4c0,0,0-1.7,0-3
			c0-1.3,0.2-1.8,1.2-2.3c0.8-0.4,6-3.4,8.4-4.5V129c-0.8-0.5-1.2-1.4-1.2-2.7c0-3,0-3.6,0-3.6c0-3,1.8-5.4,5.4-5.4s5.4,2.4,5.4,5.4
			v3.6c0,1.3-0.5,2.1-1.2,2.7v4.6c2.6,1.1,7.7,4.1,8.4,4.5C348.1,138.6,348.3,139.2,348.3,140.4z M320.9,136.5l0.2-0.1
			c2.8-1.6,5-2.8,6.6-3.6c-0.8-0.4-1.5-0.7-2.2-0.9v-3.2c1.2-0.4,1.2-1,1.2-1.9v-2.2c0-2.1-1.1-3.8-3.6-3.8s-3.6,1.7-3.6,3.8
			c0,0,0,0.1,0,2.2c0,0.9,0,1.5,1.2,1.9v3.2c-2.4,0.7-5.6,2.8-6.1,3.1c-0.7,0.4-1.1,0.7-1.1,1.6c0,0.9,0,2.1,0,2.1
			c0,0.1,0.1,0.3,0.2,0.3h5.3C319.1,138,319.6,137.2,320.9,136.5z M354.5,135c-0.5-0.3-3.7-2.4-6.1-3.1v-3.2c1.2-0.4,1.2-1,1.2-1.9
			v-2.2c0-2.1-1.1-3.8-3.6-3.8s-3.6,1.7-3.6,3.8c0,0,0,0.1,0,2.2c0,0.9,0,1.5,1.2,1.9v3.2c-0.7,0.2-1.5,0.5-2.2,0.9
			c2.3,1.2,5.1,2.7,6.3,3.5l0.4,0.2c1.2,0.7,1.8,1.5,2,2.5h5.3c0.1,0,0.2-0.2,0.2-0.3c0,0,0-1.2,0-2.1
			C355.6,135.8,355.1,135.4,354.5,135z"/>
	</g>
	<g>
		<path class="st1" d="M305.9,71.6c0.2,0.1,0.4,0.1,0.5,0.1c7.2,0,14.4,0,21.6,0c2.1,0,3.8,1.4,4.1,3.5c0,0.2,0,0.4,0,0.6
			c0,10.5,0,21.1,0,31.6c0,2.3-1.8,4.1-4.1,4.1c-16,0-32,0-48.1,0c-2.1,0-4.1-1.8-4-4c0-10.5,0-21.1,0-31.7c0-2.3,1.7-4.1,4-4.1
			c3.3,0,6.6,0,9.9,0c4,0,7.9,0,11.9,0c0.1,0,0.3,0.1,0.4-0.1c0.1-0.1-0.1-0.2-0.2-0.3c-2.7-2.9-5.5-5.8-8.2-8.7
			c-0.6-0.7-0.5-1.6,0.2-2c0.5-0.3,1-0.2,1.4,0.2c1.4,1.4,2.7,2.9,4.1,4.3c1.4,1.5,2.9,3,4.3,4.5c0.2,0.2,0.3,0.2,0.5,0
			c2.7-2.9,5.5-5.8,8.3-8.7c0.6-0.6,1.3-0.7,1.8-0.2c0.6,0.5,0.6,1.3,0,1.9c-1.4,1.5-2.8,3-4.2,4.5c-1.4,1.4-2.7,2.9-4.1,4.3
			C306,71.4,305.9,71.5,305.9,71.6z M299.3,75.7c-4.3,0-8.6,0-13,0c-0.4,0-0.8,0-1.2,0.1c-2.9,0.5-5,3-5,5.8c0.1,6.6,0,13.3,0,19.9
			c0,1.2,0.3,2.2,1,3.2c1.3,1.8,3.1,2.6,5.3,2.6c8.2,0,16.3,0,24.5,0c0.7,0,1.4,0,2-0.1c3-0.2,5.4-2.8,5.4-5.8c0-6.6,0-13.3,0-19.9
			c0-0.7-0.1-1.4-0.4-2c-0.9-2.3-3.1-3.8-5.6-3.8C308,75.7,303.6,75.7,299.3,75.7z M324.9,75.7c-1.7,0-2.9,1.3-2.9,2.9
			c0,1.6,1.3,2.9,2.9,2.9s2.9-1.3,2.9-3C327.8,77.1,326.5,75.7,324.9,75.7z M321.9,87.3c0,1.6,1.3,3,2.9,3s3-1.3,3-2.9
			c0-1.6-1.3-2.9-2.9-2.9C323.2,84.4,322,85.7,321.9,87.3z"/>
	</g>
	<g>
		<path class="st6" d="M171,233.6h90.6c17.2,0,31.2,14.2,31.2,31.3v174.3c0,17.3-14.1,31.3-31.2,31.3H171
			c-17.2,0-31.2-14.2-31.2-31.3V264.9C139.7,247.8,153.8,233.6,171,233.6z"/>
		<g>
			<g>
				<path class="st4" d="M160,222.9h90.6c17.2,0,31.2,14.2,31.2,31.3v174.3c0,17.3-14.1,31.3-31.2,31.3H160
					c-17.2,0-31.2-14.2-31.2-31.3V254.3C128.8,237,142.8,222.9,160,222.9z"/>
				<path class="st7" d="M182.7,236H228c1.2,0,2.2-1,2.2-2.2l0,0c0-1.2-1-2.2-2.2-2.2h-45.4c-1.2,0-2.2,1-2.2,2.2l0,0
					C180.4,235,181.4,236,182.7,236z"/>
				<path class="st7" d="M167.1,447.3h76.4c1.9,0,3.5-1.6,3.5-3.5l0,0c0-1.9-1.6-3.5-3.5-3.5h-76.4c-1.9,0-3.5,1.6-3.5,3.5l0,0
					C163.6,445.8,165.2,447.3,167.1,447.3z"/>
				<ellipse class="st4" cx="205.3" cy="443.9" rx="13.6" ry="13.7"/>
				<ellipse class="st7" cx="205.3" cy="443.9" rx="9.6" ry="9.6"/>
				<g>
					<rect x="137.8" y="248.1" class="st8" width="135.1" height="179.1"/>
					<polygon class="st1" points="272.9,427.1 137.8,427.1 137.8,248.1 					"/>
				</g>
			</g>
		</g>
	</g>
	<g>
		<path class="st6" d="M377,224.2h77c14.6,0,26.6,15,26.6,33.3v185.4c0,18.4-12,33.3-26.6,33.3h-77c-14.6,0-26.6-15-26.6-33.3V257.5
			C350.4,239.2,362.4,224.2,377,224.2z"/>
		<g>
			<path class="st4" d="M448.3,214.5h-88c-10.7,0-19.3,8.7-19.3,19.4v211.5c0,10.7,8.7,19.4,19.3,19.4h88c10.7,0,19.3-8.6,19.3-19.4
				V233.9C467.6,223.2,459,214.5,448.3,214.5z"/>
			<path class="st7" d="M387.7,229.5h33.2c0.9,0,1.7,0.8,1.7,1.7c0,0.9-0.8,1.7-1.7,1.7h-33.2c-0.9,0-1.7-0.8-1.7-1.7
				C386,230.3,386.8,229.5,387.7,229.5z"/>
			<path class="st7" d="M404.3,450.5c-6.2,0-11.2-5-11.2-11.2s5-11.2,11.2-11.2s11.2,5,11.2,11.2S410.5,450.5,404.3,450.5z"/>
			<g>
				<rect x="349.5" y="253" class="st8" width="109.7" height="163.2"/>
				<polygon class="st1" points="459.1,416.2 349.5,416.2 349.5,253 				"/>
			</g>
		</g>
	</g>
	<path class="st4" d="M173.7,221c0-24.9-20.1-45.1-44.9-45.1S83.9,196.1,83.9,221s20.1,45.1,44.9,45.1c7.3,0,14.2-1.8,20.3-4.8
		l17.2,4.6l-3.5-15.4C169.6,242.6,173.7,232.3,173.7,221z"/>
	<g id="picture_8_">
		<path class="st9" d="M150.2,200.8h-45.8c-1,0-1.8,0.8-1.8,1.8v37.8c0,1,0.8,1.8,1.8,1.8h45.8c1,0,1.8-0.8,1.8-1.8v-37.8
			C152,201.6,151.2,200.8,150.2,200.8z M147.9,224.8l-7.3-7.4c0,0-2-2.1-4-2.1s-3.9,2.1-3.9,2.1s-5.4,6.2-7.5,8.3
			c3.3,1.4,8.3,9.6,4.5,7.1c-3.8-2.4-10.5-5.1-10.5-5.1l-12.5,8.2v-31h41.2V224.8z M110.4,213.2c0-2.5,2-4.5,4.5-4.5s4.5,2,4.5,4.5
			s-2,4.5-4.5,4.5S110.4,215.7,110.4,213.2z"/>
	</g>
	<path class="st4" d="M496.6,290.8c24.6-0.8,44-21.4,43.2-46.2c-0.8-24.7-21.3-44.2-45.9-43.4s-44,21.4-43.2,46.2
		c0.2,7.2,2.2,14.1,5.4,20.1l-4,17.3l15.1-3.9C475.2,287.3,485.5,291.1,496.6,290.8z"/>
	<g id="albums">
		<path class="st10" d="M472.9,233.7v26.7c-1.1,0-1.9-0.9-1.9-1.9v-22.9C471,234.5,471.9,233.7,472.9,233.7z"/>
		<path class="st10" d="M522.4,233.7v26.7c1.1,0,1.9-0.9,1.9-1.9v-22.9C524.3,234.5,523.4,233.7,522.4,233.7z"/>
		<path class="st10" d="M476.7,231.8h1.9v30.5h-1.9c-1.1,0-1.9-0.9-1.9-1.9v-26.7C474.8,232.6,475.7,231.8,476.7,231.8z"/>
		<path class="st10" d="M518.6,231.8h-1.9v30.5h1.9c1.1,0,1.9-0.9,1.9-1.9v-26.7C520.5,232.6,519.6,231.8,518.6,231.8z"/>
		<path class="st10" d="M512.9,229.9h-30.4c-1,0-1.9,0.9-1.9,1.9v30.5c0,1,0.9,1.9,1.9,1.9h30.4c1,0,1.9-0.9,1.9-1.9v-30.5
			C514.8,230.7,513.9,229.9,512.9,229.9z M507.1,252.8c0,2.8-3.8,3.3-4.4,3.3c-1.6,0-2.9-0.8-3.3-1.9c-0.5-1.6,0.9-3.4,3.1-4.2
			c1.2-0.5,2.7-0.3,2.7-0.3v-8.4l-11.4,2.6c0,0,0,7.4,0,10.9c0,3.5-4,3.9-4.6,3.9c-1.6,0-2.7-0.7-3.1-1.8c-0.5-1.6,0.8-3.4,3-4.1
			c1.2-0.4,2.7-0.3,2.7-0.2v-12.9c0-0.5,0.1-0.9,0.6-1l14.2-3.5h-0.1c0.4,0,0.5,0.3,0.5,0.7C507.1,235.9,507.1,250,507.1,252.8z"/>
	</g>
	<path class="st4" d="M440.8,462.1c-1.8-22,14.5-41.4,36.5-43.1c21.9-1.8,41.2,14.6,42.9,36.7c1.8,22-14.5,41.4-36.5,43.1
		c-6.5,0.5-12.7-0.5-18.3-2.8l-14.9,5.3l2-13.9C446,480.8,441.6,472,440.8,462.1z"/>
	<g id="facetime_x5F_video_6_">
		<path class="st11" d="M506.6,446.9v23.9c0,0.5-0.3,0.7-0.7,0.3l-13.1-10.5v11.2c0,1.6-1.3,3-3,3H462c-1.6,0-3-1.3-3-3v-25.9
			c0-1.6,1.3-3,3-3h27.7c1.6,0,3,1.3,3,3v11.2l13.1-10.5C506.2,446.2,506.6,446.4,506.6,446.9z"/>
	</g>
	<path class="st4" d="M92.9,468.7c-20.3-13.3-26-40.5-12.9-60.8s40.3-26.1,60.5-13c20.3,13.3,26,40.5,12.9,60.8
		c-3.9,6-9,10.7-14.7,14.1l-5.4,16.6l-10.7-11C112.7,476.7,102.1,474.7,92.9,468.7z"/>
	<g id="playlist_1_">
		<path class="st12" d="M136.3,431.3c-1.5,0.6-0.3-0.6-0.3-0.6s2.5-3.7,0.7-6.8c-1.4-2.4-6-1.9-7.9-3v25.4c0,0.1,0,0.1,0,0.2
			c-0.3,2.7-2.9,5.4-6.6,6.6c-4.6,1.5-9.1,0.1-10.1-3.1c-1-3.2,1.8-6.9,6.4-8.4c1.2-0.3,3.9-0.8,5-0.3v-28.6c0-0.6,0.5-1.1,1.1-1.1
			h3.2c0.6,0,1.1,0.5,1.1,1.1v1c2.8,1.8,11,2.6,12.2,7.4C142.4,426.8,137.8,430.7,136.3,431.3z M92.2,425.9h27.7v-5.4H92.2
			c-0.5,0-0.9,0.4-0.9,0.9v3.6C91.3,425.5,91.7,425.9,92.2,425.9z M92.2,436.7h27.7v-5.4H92.2c-0.5,0-0.9,0.4-0.9,0.9v3.6
			C91.3,436.3,91.7,436.7,92.2,436.7z M110.2,442h-18c-0.5,0-0.9,0.4-0.9,0.9v3.6c0,0.5,0.4,0.9,0.9,0.9h15.3
			C107.7,445.5,108.7,443.6,110.2,442z"/>
	</g>
	<g>
		<path class="st13" d="M443.2,391.2c0,4.4-1.2,8-2.7,8h-69c-1.5,0-2.7-3.6-2.7-8l0,0c0-4.4,1.2-8,2.7-8h69
			C442,383.1,443.2,386.7,443.2,391.2L443.2,391.2z"/>
		<g id="group_3_">
			<path class="st4" d="M425.6,295.5c0,1.8,0,4.2,0,4.2c0,0.2-0.2,0.6-0.4,0.6h-37.6c-0.2,0-0.4-0.3-0.4-0.6c0,0,0-2.4,0-4.2
				c0-1.8,0.3-2.5,1.7-3.3c1.1-0.6,8.3-4.8,11.7-6.2v-6.3c-1-0.8-1.7-1.9-1.7-3.7c0-4.2,0-5,0-5c0-4.1,2.5-7.5,7.5-7.5
				s7.5,3.4,7.5,7.5v5c0,1.8-0.6,3-1.7,3.7v6.3c3.6,1.5,10.6,5.6,11.7,6.2C425.3,292.9,425.6,293.6,425.6,295.5z M387.5,289.9
				l0.2-0.1c3.8-2.2,6.9-3.8,9.1-5c-1-0.5-2.1-1-3.1-1.3v-4.4c1.7-0.5,1.7-1.3,1.7-2.6v-3c0-2.9-1.5-5.2-5-5.2s-5,2.4-5,5.2
				c0,0,0,0.1,0,3c0,1.3,0,2.1,1.7,2.6v4.4c-3.3,1-7.8,3.9-8.5,4.3c-0.9,0.5-1.5,1-1.5,2.3c0,1.2,0,2.9,0,2.9c0,0.2,0.1,0.4,0.3,0.4
				h7.4C385.1,292.1,385.8,290.9,387.5,289.9z M434.1,287.9c-0.8-0.4-5.2-3.3-8.5-4.3v-4.4c1.7-0.5,1.7-1.3,1.7-2.6v-3
				c0-2.9-1.5-5.2-5-5.2s-5,2.4-5,5.2c0,0,0,0.1,0,3c0,1.3,0,2.1,1.7,2.6v4.4c-1,0.3-2,0.8-3.1,1.3c3.2,1.6,7,3.8,8.7,4.8l0.6,0.3
				c1.7,1,2.5,2.1,2.8,3.5h7.4c0.2,0,0.3-0.2,0.3-0.4c0,0,0-1.7,0-2.9C435.7,288.9,435.1,288.4,434.1,287.9z"/>
		</g>
		<rect x="366.2" y="327.4" class="st4" width="80.3" height="3.4"/>
		<rect x="366.2" y="334.9" class="st4" width="80.3" height="3.4"/>
		<rect x="366.2" y="342.2" class="st4" width="80.3" height="3.4"/>
	</g>
	<g>
		<path class="st13" d="M247.8,405.5c0,4.9-1.3,8.8-3,8.8h-75.7c-1.6,0-3-3.9-3-8.8l0,0c0-4.9,1.3-8.8,3-8.8h75.7
			C246.5,396.7,247.8,400.6,247.8,405.5L247.8,405.5z"/>
		<g id="group_4_">
			<path class="st4" d="M228.5,300.4c0,1.9,0,4.6,0,4.6c0,0.3-0.2,0.6-0.5,0.6h-41.3c-0.3,0-0.5-0.4-0.5-0.6c0,0,0-2.7,0-4.6
				s0.4-2.7,1.8-3.6c1.2-0.7,9.1-5.2,12.9-6.8v-7c-1.1-0.8-1.8-2.1-1.8-4.1c0-4.6,0-5.5,0-5.5c0-4.6,2.8-8.3,8.3-8.3
				s8.3,3.7,8.3,8.3v5.5c0,2-0.7,3.2-1.8,4.1v6.9c4,1.6,11.7,6.2,12.9,6.8C228.1,297.6,228.5,298.4,228.5,300.4z M186.7,294.4
				l0.3-0.1c4.2-2.4,7.5-4.2,10-5.5c-1.1-0.6-2.3-1.1-3.4-1.4v-4.8c1.8-0.6,1.8-1.5,1.8-2.8v-3.3c0-3.2-1.7-5.8-5.5-5.8
				s-5.5,2.6-5.5,5.8c0,0,0,0.1,0,3.3c0,1.4,0,2.3,1.8,2.9v4.8c-3.7,1.1-8.5,4.3-9.4,4.8c-1,0.6-1.7,1.1-1.7,2.5c0,1.3,0,3.2,0,3.2
				c0,0.2,0.2,0.4,0.3,0.4h8.1C184,296.7,184.8,295.5,186.7,294.4z M237.9,292.1c-0.8-0.5-5.7-3.6-9.4-4.8v-4.8
				c1.8-0.6,1.8-1.5,1.8-2.8v-3.3c0-3.2-1.7-5.8-5.5-5.8s-5.5,2.6-5.5,5.8c0,0,0,0.1,0,3.3c0,1.4,0,2.3,1.8,2.9v4.8
				c-1.1,0.3-2.2,0.8-3.4,1.4c3.5,1.8,7.7,4.2,9.6,5.3l0.7,0.4c1.9,1.1,2.7,2.3,3,3.9h8.1c0.2,0,0.3-0.2,0.3-0.4c0,0,0-1.9,0-3.2
				C239.5,293.2,238.9,292.6,237.9,292.1z"/>
		</g>
		<rect x="163.3" y="335.4" class="st4" width="88.1" height="3.8"/>
		<rect x="163.3" y="343.7" class="st4" width="88.1" height="3.8"/>
		<rect x="163.3" y="351.6" class="st4" width="88.1" height="3.8"/>
	</g>
</g>
</svg>
