<?xml version="1.0" encoding="utf-8"?>
<!-- Generator: Adobe Illustrator 20.0.0, SVG Export Plug-In . SVG Version: 6.00 Build 0)  -->
<svg version="1.1" id="Layer_1" xmlns="http://www.w3.org/2000/svg" xmlns:xlink="http://www.w3.org/1999/xlink" x="0px" y="0px"
	 viewBox="0 0 612 612" style="enable-background:new 0 0 612 612;" xml:space="preserve">
<style type="text/css">
	.st0{fill:#F27C54;}
	.st1{fill:#757678;}
	.st2{fill:#8A8F91;}
	.st3{fill:#ACAFB0;}
	.st4{fill:#9FA6AB;}
	.st5{fill:#C9C8CB;}
	.st6{fill:#E5F4F7;}
	.st7{fill:#67C7CA;}
	.st8{fill:#CE3B52;}
	.st9{fill:#E2516E;}
	.st10{fill:#509ACE;}
	.st11{fill:#F1BE6A;}
	.st12{fill:#8D949A;}
	.st13{fill:#B4B4B6;}
	.st14{fill:#C76747;}
	.st15{fill:#4BADAE;}
	.st16{fill:#A3DADE;}
	.st17{fill:#20A8DF;}
	.st18{fill:#F06789;}
	.st19{fill:#4280AC;}
	.st20{fill:#96C4E2;}
	.st21{fill:#D1D2D3;}
	.st22{fill:#C59D58;}
	.st23{fill:#F7B19A;}
	.st24{fill:#F7D8A7;}
	.st25{fill:#8F9092;}
	.st26{fill:#758082;}
	.st27{fill:#ADB4B5;}
	.st28{fill:#E4E3E3;}
	.st29{fill:#E84624;}
	.st30{fill:#FFFFFF;}
	.st31{fill:#C39C78;}
	.st32{fill:#495654;}
	.st33{fill:#6E8482;}
	.st34{fill:#5C6E6C;}
	.st35{fill:#3B4846;}
	.st36{fill:#262729;}
	.st37{fill:#7F56C5;}
	.st38{fill:#C2A9E3;}
	.st39{opacity:0.8;fill:#E8DBF3;}
	.st40{fill:#00A19B;}
	.st41{fill:#7C98AB;}
	.st42{fill:#A7BAC9;}
	.st43{fill:#5D7E95;}
	.st44{fill:#22ACAB;}
	.st45{fill:#E5E6E6;}
	.st46{fill:#D3D1D2;}
	.st47{fill:#A4DAE7;}
	.st48{fill:#D3ECF3;}
	.st49{fill:#C8858F;}
	.st50{fill:#446CA9;}
	.st51{opacity:0.5;fill:#446CA9;}
	.st52{fill:#1E428A;}
	.st53{opacity:0.25;fill:#959BC4;}
	.st54{fill:#E6E7E9;}
	.st55{fill:#AEB5BB;}
	.st56{fill:#543F37;}
	.st57{fill:#72594B;}
	.st58{fill:#FFFFFE;}
	.st59{fill:#D1CECA;}
	.st60{fill:#B09280;}
	.st61{fill:#9F8071;}
	.st62{fill:#008FBE;}
	.st63{fill:#00C1DE;}
	.st64{fill:#55565A;}
	.st65{fill:#342E1F;}
	.st66{fill:#6FD1E6;}
	.st67{fill:#EFCFB3;}
	.st68{fill:#222222;}
	.st69{fill:#77BC1F;}
	.st70{opacity:0.5;fill:#BDE087;}
	.st71{fill:#A4D55D;}
	.st72{fill:#BDE087;}
	.st73{fill:#FD5373;}
	.st74{fill:#CF0A2C;}
	.st75{fill:#F2F3F3;}
	.st76{fill:#E4615B;}
	.st77{fill:#768EBE;}
	.st78{fill:#1CCFC9;}
	.st79{fill:#8AE1DB;}
	.st80{fill:#00C4BC;}
	.st81{fill:#ECEDED;}
	.st82{fill:#F18B81;}
	.st83{fill:#5E6CA6;}
</style>
<g>
	<circle class="st0" cx="306" cy="306" r="306"/>
	<g>
		<g>
			<g>
				<polyline class="st1" points="399.8,430.5 351.1,458.6 351.1,463.7 399.8,435.6 399.8,430.5 				"/>
				<polyline class="st2" points="348.7,457.2 348.7,462.3 351.1,463.7 351.1,458.6 348.7,457.2 				"/>
				<polyline class="st3" points="397.4,429.1 397.4,429.1 348.7,457.2 351.1,458.6 399.8,430.5 397.4,429.1 				"/>
			</g>
			<g>
				<polyline class="st1" points="390.9,425.3 342.3,453.4 342.3,458.5 390.9,430.4 390.9,425.3 				"/>
				<polyline class="st2" points="339.9,452.1 339.9,457.1 342.3,458.5 342.3,453.4 339.9,452.1 				"/>
				<polyline class="st3" points="388.6,424 388.6,424 339.9,452.1 339.9,452.1 342.3,453.4 390.9,425.3 388.6,424 				"/>
			</g>
			<g>
				<polyline class="st1" points="382.2,420.3 333.5,448.4 333.5,453.5 382.2,425.4 382.2,420.3 				"/>
				<polyline class="st2" points="331.1,447 331.1,452.1 333.5,453.5 333.5,448.4 331.1,447 				"/>
				<polyline class="st3" points="379.8,418.9 331.1,447 333.5,448.4 382.2,420.3 379.8,418.9 				"/>
			</g>
			<path class="st4" d="M467.7,432.2L199.2,277.1c-6.2-3.6-10-10.1-10-17.2V89.3c0-7.7,8.3-12.5,14.9-8.6l268.5,154.7
				c6.2,3.6,10,10.1,10,17.3v170.9C482.7,431.2,474.4,436,467.7,432.2"/>
			<path class="st4" d="M297.5,340.9l0.1,25.8c0,6.1-3.2,11.8-8.5,14.8l-22.4,12.9l62,35.8l22.5-12.9c5.3-3,8.6-8.7,8.6-14.8v-25.9
				L297.5,340.9"/>
			<polygon class="st4" points="471.5,435.4 477.3,432.4 472.3,425.3 			"/>
			<polygon class="st4" points="194.1,80.8 188.1,83.8 191.1,83.8 			"/>
			<path class="st5" d="M461.4,435.4L192.9,280.4c-6.2-3.6-10-10.1-10-17.2V92.6c0-7.7,8.3-12.5,14.9-8.6l268.5,154.7
				c6.2,3.6,10,10.1,10,17.3v170.9C476.4,434.5,468.1,439.3,461.4,435.4"/>
			<polyline class="st6" points="196.2,98.6 196.2,261.8 462,415.2 462,251.5 196.2,98.6 			"/>
			<polyline class="st0" points="209.6,121.3 209.6,141.8 444,277.1 444.1,256.7 209.6,121.3 			"/>
			<polyline class="st7" points="209.6,152.1 209.6,213.4 258.2,241.4 258.3,180.2 209.6,152.1 			"/>
			<polyline class="st8" points="267,190.3 267,251.5 315.7,279.7 315.7,218.4 267,190.3 			"/>
			<path class="st9" d="M277.7,247.1L277.7,247.1l4.4,2.5v0L277.7,247.1 M267,190.3l-0.1,61.2l10.7,6.2l0-10.7l-0.2-0.1l-1.2,0.5
				l-0.2-0.5l0.7-0.4l4.4-2.6l0.9,0.5l3.1,1.8l0,0l0.6,0.3l0.7,0.4l5.8,3.4l2.9,1.7v0l0,0l3.6,3.8c0.3,0.3,0.7,0.4,1,0.4
				c0.2,0,0.5-0.1,0.7-0.2l3.4-2l4.5,2.5l-8,4.6c-0.2,0.1-0.5,0.2-0.7,0.2c-0.3,0-0.6-0.1-0.9-0.3l-3.7-3v0l3.7,3
				c0.3,0.2,0.6,0.3,0.9,0.3c0.2,0,0.5-0.1,0.7-0.2l8-4.6v3l-8,4.6c-0.2,0.1-0.5,0.2-0.7,0.2c-0.3,0-0.6-0.1-0.9-0.3l-3.7-3v6.7
				l20.4,11.8l0-61.3L267,190.3"/>
			<polyline class="st10" points="333.4,223.5 333.4,284.9 382.1,312.9 382.3,251.7 333.4,223.5 			"/>
			<polyline class="st11" points="395.4,259.3 395.4,366.6 444.1,394.7 444.3,287.5 395.4,259.3 			"/>
			<polyline class="st12" points="355.2,374.1 355.2,379.2 359.6,376.6 355.2,374.1 			"/>
			<polyline class="st13" points="355.2,374 355.2,374.1 359.6,376.6 359.6,376.6 355.2,374 			"/>
			<path class="st4" d="M327.5,348.9c0,2.5-2.1,3.4-4.6,1.9c-2.5-1.5-4.6-4.7-4.6-7.2s2.1-3.4,4.6-1.9
				C325.4,343.2,327.5,346.4,327.5,348.9z"/>
			<polyline class="st0" points="209.5,121.3 211.8,120 446.3,255.5 446.2,275.9 444.1,277.2 444.1,256.7 209.5,121.3 			"/>
			<polyline class="st14" points="446.3,255.5 444.1,256.7 444.1,277.2 446.2,275.9 446.3,255.5 			"/>
			<polygon class="st4" points="199.1,100.2 199.1,263.4 196.2,261.8 196.2,98.6 			"/>
			<polyline class="st4" points="199.1,260.2 462,412 462,415.2 196.2,261.8 199.1,260.2 			"/>
			<polyline class="st7" points="209.5,152 211.8,150.7 260.5,178.8 260.5,240.1 258.2,241.4 258.3,180.2 209.5,152 			"/>
			<polyline class="st15" points="260.5,178.8 258.3,180.2 258.2,241.4 260.5,240.1 260.5,178.8 			"/>
			<polyline class="st16" points="211.8,150.7 209.5,152 258.3,180.2 260.5,178.8 211.8,150.7 			"/>
			<polyline class="st17" points="267,190.3 273.7,186.4 322.4,214.6 322.4,275.9 315.7,279.7 315.7,218.4 267,190.3 			"/>
			<polyline class="st8" points="267,190.3 273.7,186.4 322.4,214.6 315.7,218.4 267,190.3 			"/>
			<polyline class="st18" points="273.7,186.4 267,190.3 315.7,218.4 322.4,214.6 273.7,186.4 			"/>
			<polygon class="st8" points="322.4,214.6 322.4,275.9 315.7,279.7 315.7,218.4 			"/>
			<polyline class="st10" points="333.4,223.5 335.7,222.2 384.4,250.3 384.4,311.6 382.1,312.9 382.3,251.7 333.4,223.5 			"/>
			<polyline class="st19" points="384.4,250.3 382.3,251.7 382.1,312.9 384.4,311.6 384.4,250.3 			"/>
			<polyline class="st20" points="335.7,222.2 333.4,223.5 382.3,251.7 384.4,250.3 335.7,222.2 			"/>
			<polyline class="st11" points="395.4,259.3 397.7,258 446.4,286.1 446.4,393.4 444.1,394.7 444,287.3 395.4,259.3 			"/>
			<polyline class="st6" points="446.4,286.1 446.4,286.1 446.4,393.4 446.4,393.4 446.4,286.1 			"/>
			<polyline class="st21" points="446.4,286.1 446.4,286.1 446.4,393.4 446.4,393.4 446.4,286.1 			"/>
			<polyline class="st22" points="446.4,286.1 444,287.3 444.1,394.7 446.4,393.4 446.4,286.1 			"/>
			<polyline class="st23" points="211.8,120 209.5,121.3 444.1,256.7 446.3,255.5 211.8,120 			"/>
			<polyline class="st24" points="397.7,258 395.4,259.3 444,287.3 446.4,286.1 397.7,258 			"/>
			<polyline class="st6" points="209.5,223.5 209.5,228.6 258.2,256.7 258.2,251.6 209.5,223.5 			"/>
			<polyline class="st25" points="209.5,223.5 209.5,228.6 258.2,256.7 258.2,251.6 209.5,223.5 			"/>
			<polyline class="st6" points="260.5,250.3 258.2,251.6 258.2,256.7 260.5,255.4 260.5,250.3 			"/>
			<polyline class="st26" points="260.5,250.3 258.2,251.6 258.2,256.7 260.5,255.4 260.5,250.3 			"/>
			<polyline class="st6" points="211.9,222.2 209.5,223.5 258.2,251.6 260.5,250.3 211.9,222.2 			"/>
			<polyline class="st27" points="211.9,222.2 209.5,223.5 258.2,251.6 260.5,250.3 211.9,222.2 			"/>
			<polyline class="st6" points="209.5,233.7 209.5,238.9 258.2,267 258.2,261.9 209.5,233.7 			"/>
			<polyline class="st25" points="209.5,233.7 209.5,238.9 258.2,267 258.2,261.9 209.5,233.7 			"/>
			<polyline class="st6" points="260.5,260.5 258.2,261.9 258.2,267 260.5,265.6 260.5,260.5 			"/>
			<polyline class="st26" points="260.5,260.5 258.2,261.9 258.2,267 260.5,265.6 260.5,260.5 			"/>
			<polyline class="st6" points="211.9,232.4 209.5,233.7 258.2,261.9 260.5,260.5 211.9,232.4 			"/>
			<polyline class="st27" points="211.9,232.4 209.5,233.7 258.2,261.9 260.5,260.5 211.9,232.4 			"/>
			<polyline class="st6" points="209.5,244 209.5,249.1 258.2,277.2 258.2,272.1 209.5,244 			"/>
			<polyline class="st25" points="209.5,244 209.5,249.1 258.2,277.2 258.2,272.1 209.5,244 			"/>
			<polyline class="st6" points="260.5,270.7 258.2,272.1 258.2,277.2 260.5,275.8 260.5,270.7 			"/>
			<polyline class="st26" points="260.5,270.7 258.2,272.1 258.2,277.2 260.5,275.8 260.5,270.7 			"/>
			<polyline class="st6" points="211.9,242.6 209.5,244 258.2,272.1 260.5,270.7 211.9,242.6 			"/>
			<polyline class="st27" points="211.9,242.6 209.5,244 258.2,272.1 260.5,270.7 211.9,242.6 			"/>
			<polyline class="st6" points="209.5,254.2 209.5,259.3 258.2,287.4 258.2,282.3 209.5,254.2 			"/>
			<polyline class="st25" points="209.5,254.2 209.5,259.3 258.2,287.4 258.2,282.3 209.5,254.2 			"/>
			<polyline class="st6" points="260.5,280.9 258.2,282.3 258.2,287.4 260.5,286 260.5,280.9 			"/>
			<polyline class="st26" points="260.5,280.9 258.2,282.3 258.2,287.4 260.5,286 260.5,280.9 			"/>
			<polyline class="st6" points="211.9,252.8 209.5,254.2 258.2,282.3 260.5,280.9 211.9,252.8 			"/>
			<polyline class="st27" points="211.9,252.8 209.5,254.2 258.2,282.3 260.5,280.9 211.9,252.8 			"/>
			<path class="st6" d="M295.3,273.1v5.1l11.4,6.6l1.7-1l4.4,2.6l-0.4,1.8l7.7,4.4v-5.1L295.3,273.1 M271.5,259.3l0,5.1l6.2,3.6
				l0-5.1L271.5,259.3"/>
			<path class="st25" d="M295.3,273.1v5.1l11.4,6.6l1.7-1l4.4,2.6l-0.4,1.8l7.7,4.4v-5.1L295.3,273.1 M271.5,259.3l0,5.1l6.2,3.6
				l0-5.1L271.5,259.3"/>
			<polyline class="st6" points="322.5,286 320.1,287.4 320.1,292.5 322.4,291.2 322.5,286 			"/>
			<polyline class="st26" points="322.5,286 320.1,287.4 320.1,292.5 322.4,291.2 322.5,286 			"/>
			<path class="st6" d="M295.3,270.3v2.7l24.8,14.3l2.4-1.4L295.3,270.3 M273.8,257.9l-2.4,1.4l6.2,3.6l0-2.7L273.8,257.9"/>
			<path class="st27" d="M295.3,270.3v2.7l24.8,14.3l2.4-1.4L295.3,270.3 M273.8,257.9l-2.4,1.4l6.2,3.6l0-2.7L273.8,257.9"/>
			<path class="st6" d="M311.4,292.6l-1,4.5l9.7,5.6v-5.1L311.4,292.6 M290.9,280.8v4.6l-6.9-4l-0.1,0.4l23.2,13.4l1-4.5
				L290.9,280.8 M271.5,269.5l0,5.1l4.6,2.7l1-4.5L271.5,269.5"/>
			<path class="st25" d="M311.4,292.6l-1,4.5l9.7,5.6v-5.1L311.4,292.6 M290.9,280.8v4.6l-6.9-4l-0.1,0.4l23.2,13.4l1-4.5
				L290.9,280.8 M271.5,269.5l0,5.1l4.6,2.7l1-4.5L271.5,269.5"/>
			<polyline class="st6" points="322.5,296.2 320.1,297.6 320.1,302.7 322.4,301.4 322.5,296.2 			"/>
			<polyline class="st26" points="322.5,296.2 320.1,297.6 320.1,302.7 322.4,301.4 322.5,296.2 			"/>
			<path class="st6" d="M312,290.2l-0.5,2.4l8.7,5l2.4-1.4L312,290.2 M290.9,280.3v0.5l17.1,9.9l0.4-1.8l-4.4-2.6l0.6-0.4l-9.3-5.4
				v2.2l0,0v0L290.9,280.3 M273.8,268.1l-2.4,1.4l5.6,3.2l0.4-1.8l0.2-0.1l0-0.5L273.8,268.1"/>
			<path class="st27" d="M312,290.2l-0.5,2.4l8.7,5l2.4-1.4L312,290.2 M290.9,280.3v0.5l17.1,9.9l0.4-1.8l-4.4-2.6l0.6-0.4l-9.3-5.4
				v2.2l0,0v0L290.9,280.3 M273.8,268.1l-2.4,1.4l5.6,3.2l0.4-1.8l0.2-0.1l0-0.5L273.8,268.1"/>
			<path class="st6" d="M305.1,303.8l-0.4,0.2l0.3,0.2L305.1,303.8 M309.4,301.7l-1,4.5l11.7,6.8v-5.1L309.4,301.7 M271.5,279.7
				l0,5.1l2.6,1.5l1-4.5L271.5,279.7"/>
			<path class="st25" d="M305.1,303.8l-0.4,0.2l0.3,0.2L305.1,303.8 M309.4,301.7l-1,4.5l11.7,6.8v-5.1L309.4,301.7 M271.5,279.7
				l0,5.1l2.6,1.5l1-4.5L271.5,279.7"/>
			<polyline class="st6" points="322.5,306.5 320.1,307.8 320.1,312.9 322.4,311.6 322.5,306.5 			"/>
			<polyline class="st26" points="322.5,306.5 320.1,307.8 320.1,312.9 322.4,311.6 322.5,306.5 			"/>
			<path class="st6" d="M310,299.2l-0.5,2.4l10.7,6.2l2.4-1.4L310,299.2 M283.4,283.9l-0.1,0.6l0,0l0,0l23.2,13.3l0.1-0.6
				L283.4,283.9 M273.8,278.4l-2.4,1.4l3.6,2.1l0.5-2.4L273.8,278.4"/>
			<path class="st27" d="M310,299.2l-0.5,2.4l10.7,6.2l2.4-1.4L310,299.2 M283.4,283.9l-0.1,0.6l0,0l0,0l23.2,13.3l0.1-0.6
				L283.4,283.9 M273.8,278.4l-2.4,1.4l3.6,2.1l0.5-2.4L273.8,278.4"/>
			<path class="st6" d="M307.4,310.7l-1,4.5l13.7,7.9v-5.1L307.4,310.7 M280.9,295.4l-1,4.5l23.2,13.4l1-4.5L280.9,295.4 M271.5,290
				l0,5.1l0.6,0.3l1-4.5L271.5,290"/>
			<path class="st25" d="M307.4,310.7l-1,4.5l13.7,7.9v-5.1L307.4,310.7 M280.9,295.4l-1,4.5l23.2,13.4l1-4.5L280.9,295.4
				 M271.5,290l0,5.1l0.6,0.3l1-4.5L271.5,290"/>
			<polyline class="st6" points="322.5,316.7 320.1,318.1 320.1,323.2 322.4,321.8 322.5,316.7 			"/>
			<polyline class="st26" points="322.5,316.7 320.1,318.1 320.1,323.2 322.4,321.8 322.5,316.7 			"/>
			<path class="st6" d="M308,308.3l-0.5,2.4l12.7,7.3l2.4-1.4L308,308.3 M281.3,293.5l-0.4,1.8l23.2,13.4l0.5-2.4l-1.9-1.1l-0.6,0.3
				l0-0.7l0,0.7L281.3,293.5 M273.5,288.8l-2,1.2l1.6,0.9L273.5,288.8"/>
			<path class="st27" d="M308,308.3l-0.5,2.4l12.7,7.3l2.4-1.4L308,308.3 M281.3,293.5l-0.4,1.8l23.2,13.4l0.5-2.4l-1.9-1.1
				l-0.6,0.3l0-0.7l0,0.7L281.3,293.5 M273.5,288.8l-2,1.2l1.6,0.9L273.5,288.8"/>
			<polyline class="st6" points="333.4,295.1 333.4,300.2 382.1,328.3 382.1,323.2 333.4,295.1 			"/>
			<polyline class="st25" points="333.4,295.1 333.4,300.2 382.1,328.3 382.1,323.2 333.4,295.1 			"/>
			<polyline class="st6" points="384.5,321.8 382.1,323.2 382.1,328.3 384.4,327 384.5,321.8 			"/>
			<polyline class="st26" points="384.5,321.8 382.1,323.2 382.1,328.3 384.4,327 384.5,321.8 			"/>
			<polyline class="st6" points="335.8,293.7 333.4,295.1 382.1,323.2 384.5,321.8 335.8,293.7 			"/>
			<polyline class="st27" points="335.8,293.7 333.4,295.1 382.1,323.2 384.5,321.8 335.8,293.7 			"/>
			<polyline class="st6" points="333.4,305.3 333.4,310.4 382.1,338.5 382.1,333.4 333.4,305.3 			"/>
			<polyline class="st25" points="333.4,305.3 333.4,310.4 382.1,338.5 382.1,333.4 333.4,305.3 			"/>
			<polyline class="st6" points="384.5,332 382.1,333.4 382.1,338.5 384.4,337.2 384.5,332 			"/>
			<polyline class="st26" points="384.5,332 382.1,333.4 382.1,338.5 384.4,337.2 384.5,332 			"/>
			<polyline class="st6" points="335.8,303.9 333.4,305.3 382.1,333.4 384.5,332 335.8,303.9 			"/>
			<polyline class="st27" points="335.8,303.9 333.4,305.3 382.1,333.4 384.5,332 335.8,303.9 			"/>
			<polyline class="st6" points="333.4,315.5 333.4,320.6 382.1,348.7 382.1,343.6 333.4,315.5 			"/>
			<polyline class="st25" points="333.4,315.5 333.4,320.6 382.1,348.7 382.1,343.6 333.4,315.5 			"/>
			<polyline class="st6" points="384.5,342.3 382.1,343.6 382.1,348.7 384.4,347.4 384.5,342.3 			"/>
			<polyline class="st26" points="384.5,342.3 382.1,343.6 382.1,348.7 384.4,347.4 384.5,342.3 			"/>
			<polyline class="st6" points="335.8,314.2 333.4,315.5 382.1,343.6 384.5,342.3 335.8,314.2 			"/>
			<polyline class="st27" points="335.8,314.2 333.4,315.5 382.1,343.6 384.5,342.3 335.8,314.2 			"/>
			<polyline class="st6" points="333.4,325.8 333.4,330.9 382.1,359 382.1,353.9 333.4,325.8 			"/>
			<polyline class="st25" points="333.4,325.8 333.4,330.9 382.1,359 382.1,353.9 333.4,325.8 			"/>
			<polyline class="st6" points="384.5,352.5 382.1,353.9 382.1,359 384.4,357.6 384.5,352.5 			"/>
			<polyline class="st26" points="384.5,352.5 382.1,353.9 382.1,359 384.4,357.6 384.5,352.5 			"/>
			<polyline class="st6" points="335.8,324.4 333.4,325.8 382.1,353.9 384.5,352.5 335.8,324.4 			"/>
			<polyline class="st27" points="335.8,324.4 333.4,325.8 382.1,353.9 384.5,352.5 335.8,324.4 			"/>
			<path class="st5" d="M293.1,338.3l0.1,27.4c0,5.1-2.7,9.8-7.1,12.4l-19.4,11.2l62,35.8l19.5-11.2c4.4-2.5,7.1-7.2,7.1-12.3V374
				L293.1,338.3"/>
			<polyline class="st4" points="266.6,389.3 266.6,394.4 271.1,391.9 266.6,389.3 			"/>
			<polyline class="st28" points="293.1,341.1 293.1,343.3 293.1,343.3 293.1,341.1 293.1,341.1 			"/>
			<path class="st13" d="M300.4,342.5l-0.6,2.7l-1.7,1l57.1,33V374L300.4,342.5 M294.1,338.9l0,2.8l-1-0.6l0,2.2l2.9,1.7l1-4.4
				l-0.5-0.3l-2.4,1.4L294.1,338.9"/>
			<polyline class="st29" points="185.3,405.1 77.4,342.8 77.4,322.4 185.3,384.7 185.3,405.1 			"/>
			<polyline class="st0" points="185.3,405.1 77.4,342.8 77.4,322.4 185.3,384.7 185.3,405.1 			"/>
			<polyline class="st30" points="80,331.1 79,330.5 79,323.3 80,323.9 80,331.1 			"/>
			<polyline class="st30" points="82.7,332.7 81.6,332.1 81.6,324.9 82.7,325.5 82.7,332.7 			"/>
			<polyline class="st30" points="85.4,334.2 84.3,333.6 84.3,326.4 85.4,327 85.4,334.2 			"/>
			<polyline class="st30" points="88,335.7 87,335.1 87,327.9 88,328.5 88,335.7 			"/>
			<polyline class="st30" points="93.3,338.8 92.3,338.2 92.3,331 93.3,331.6 93.3,338.8 			"/>
			<polyline class="st30" points="96,340.3 94.9,339.7 94.9,332.5 96,333.1 96,340.3 			"/>
			<polyline class="st30" points="98.7,341.9 97.6,341.3 97.6,334.1 98.7,334.7 98.7,341.9 			"/>
			<polyline class="st30" points="101.3,343.4 100.3,342.8 100.3,335.6 101.3,336.2 101.3,343.4 			"/>
			<polyline class="st30" points="106.6,346.5 105.6,345.9 105.6,338.7 106.6,339.3 106.6,346.5 			"/>
			<polyline class="st30" points="109.3,348 108.2,347.4 108.2,340.2 109.3,340.8 109.3,348 			"/>
			<polyline class="st30" points="111.9,349.5 110.9,348.9 110.9,341.7 111.9,342.3 111.9,349.5 			"/>
			<polyline class="st30" points="114.6,351.1 113.5,350.5 113.5,343.3 114.6,343.9 114.6,351.1 			"/>
			<polyline class="st30" points="119.9,354.1 118.9,353.5 118.9,346.3 119.9,346.9 119.9,354.1 			"/>
			<polyline class="st30" points="122.6,355.7 121.5,355.1 121.5,347.9 122.6,348.5 122.6,355.7 			"/>
			<polyline class="st30" points="125.2,357.2 124.2,356.6 124.2,349.4 125.2,350 125.2,357.2 			"/>
			<polyline class="st30" points="127.9,358.7 126.8,358.1 126.8,350.9 127.9,351.5 127.9,358.7 			"/>
			<polyline class="st30" points="133.2,361.8 132.1,361.2 132.1,354 133.2,354.6 133.2,361.8 			"/>
			<polyline class="st30" points="135.9,363.3 134.8,362.7 134.8,355.5 135.9,356.1 135.9,363.3 			"/>
			<polyline class="st30" points="138.5,364.9 137.5,364.3 137.5,357.1 138.5,357.7 138.5,364.9 			"/>
			<polyline class="st30" points="141.2,366.4 140.1,365.8 140.1,358.6 141.2,359.2 141.2,366.4 			"/>
			<polyline class="st30" points="146.5,369.5 145.4,368.9 145.4,361.7 146.5,362.3 146.5,369.5 			"/>
			<polyline class="st30" points="149.2,371 148.1,370.4 148.1,363.2 149.2,363.8 149.2,371 			"/>
			<polyline class="st30" points="151.8,372.5 150.8,371.9 150.8,364.7 151.8,365.3 151.8,372.5 			"/>
			<polyline class="st30" points="154.5,374.1 153.4,373.5 153.4,366.3 154.5,366.9 154.5,374.1 			"/>
			<polyline class="st30" points="159.8,377.1 158.7,376.5 158.7,369.3 159.8,369.9 159.8,377.1 			"/>
			<polyline class="st30" points="162.4,378.7 161.4,378.1 161.4,370.9 162.4,371.5 162.4,378.7 			"/>
			<polyline class="st30" points="165.1,380.2 164,379.6 164,372.4 165.1,373 165.1,380.2 			"/>
			<polyline class="st30" points="167.8,381.7 166.7,381.1 166.7,373.9 167.8,374.5 167.8,381.7 			"/>
			<polyline class="st30" points="173.1,384.8 172,384.2 172,377 173.1,377.6 173.1,384.8 			"/>
			<polyline class="st30" points="175.7,386.3 174.7,385.7 174.7,378.5 175.7,379.2 175.7,386.3 			"/>
			<polyline class="st30" points="178.4,387.9 177.3,387.3 177.3,380.1 178.4,380.7 178.4,387.9 			"/>
			<polyline class="st30" points="181.1,389.4 180,388.8 180,381.6 181.1,382.2 181.1,389.4 			"/>
			<polyline class="st30" points="90.7,340.3 89.6,339.7 89.6,329.5 90.7,330.1 90.7,340.3 			"/>
			<polyline class="st30" points="104,348 102.9,347.4 102.9,337.1 104,337.7 104,348 			"/>
			<polyline class="st30" points="117.3,355.6 116.2,355 116.2,344.8 117.3,345.4 117.3,355.6 			"/>
			<polyline class="st30" points="130.5,363.3 129.5,362.7 129.5,352.5 130.5,353.1 130.5,363.3 			"/>
			<polyline class="st30" points="143.8,371 142.8,370.4 142.8,360.1 143.8,360.7 143.8,371 			"/>
			<polyline class="st30" points="157.1,378.6 156.1,378 156.1,367.8 157.1,368.4 157.1,378.6 			"/>
			<polyline class="st30" points="170.4,386.3 169.4,385.7 169.4,375.5 170.4,376.1 170.4,386.3 			"/>
			<polyline class="st30" points="183.7,394 182.7,393.4 182.7,383.1 183.7,383.8 183.7,394 			"/>
			<polyline class="st0" points="189.9,382.3 189.9,402.7 185.3,405.1 185.3,384.7 189.9,382.3 			"/>
			<polyline class="st14" points="189.9,382.3 185.3,384.7 185.3,405.1 189.9,402.7 189.9,382.3 			"/>
			<polyline class="st0" points="77.4,322.4 81.9,319.7 189.9,382.3 185.3,384.7 77.4,322.4 			"/>
			<polyline class="st23" points="81.9,319.7 77.4,322.4 185.3,384.7 189.9,382.3 81.9,319.7 			"/>
			<path class="st31" d="M463.5,468c0,1.3-0.4,2.2-1.1,2.7l-0.5,0.3l0,0c-1,0.4-2.4,0.2-4-0.7c-1.4-0.8-2.7-2.1-3.7-3.5l0,0
				c-1.2-1.7-2-3.7-2-5.4c0-1.3,0.4-2.3,1.2-2.8l0,0l0.2-0.1l0,0c1-0.5,2.5-0.4,4.2,0.6c1.4,0.8,2.7,2.1,3.7,3.5l0,0
				C462.8,464.4,463.5,466.3,463.5,468"/>
			<path class="st32" d="M461.6,462.7l-0.4,0.1l0,0l-3.1,1.8l-3.9,2.3L405.7,495l-38.4,22.3l0,0l-0.6,0.3l-7.5-4.5l0.2-0.1
				l93.9-54.3l0,0l0.2-0.1l0,0c1-0.5,2.5-0.4,4.2,0.6C459.3,459.9,460.6,461.2,461.6,462.7L461.6,462.7"/>
			<path class="st33" d="M455,458.2c-0.5,0-0.9,0.1-1.3,0.3l0,0l-0.2,0.1l0,0L359.5,513c0.4-0.2,0.8-0.2,1.2-0.2
				c0.8,0,1.8,0.3,2.8,0.9c1.5,0.8,2.8,2.2,3.8,3.7l38.4-22.3l48.4-28.1l3.9-2.3l3.1-1.8l0,0l0.3-0.2c-1-1.4-2.3-2.7-3.7-3.5
				C456.8,458.5,455.9,458.2,455,458.2"/>
			<path class="st32" d="M463.5,468c0,1.3-0.4,2.2-1.1,2.7l-0.5,0.3l0,0l-94.1,54.3l-0.1,0.1v0l-0.4-8.2v0l38.4-22.3l48.4-28.1
				l3.9-2.3l3.1-1.8l0.3-0.2l0,0C462.8,464.4,463.5,466.3,463.5,468"/>
			<path class="st32" d="M353.3,524.3l1.1-2.2l0-0.1l3.7-7.7l0.1-0.3h0c0.9-1.5,2.8-1.8,5.2-0.4c1.5,0.8,2.8,2.2,3.8,3.7h0v0
				c1.1,1.7,1.8,3.6,1.8,5.2c0,2.1-1.1,3.2-2.8,3.2v0l-9.3-0.2H357l-0.2,0l-2.7-0.1c-0.2,0-0.4-0.1-0.6-0.3l-0.1-0.1l-0.1-0.1
				C353.2,524.7,353.2,524.5,353.3,524.3"/>
			<path class="st34" d="M366.5,525.7C366.4,525.7,366.4,525.7,366.5,525.7c-0.1,0-0.1,0-0.2,0v0c0,0,0,0,0,0
				C366.4,525.7,366.4,525.7,366.5,525.7 M367.7,525.4L367.7,525.4c-0.3,0.1-0.5,0.2-0.8,0.3C367.2,525.6,367.5,525.5,367.7,525.4
				 M368.5,519.5c0,0.1,0.1,0.2,0.1,0.3l0.1,0.1c0.2,0.5,0.3,1,0.4,1.5c0,0.2,0.1,0.4,0.1,0.5v0c0,0.2,0,0.4,0,0.6l0,0l0,0
				c0,0.9-0.2,1.6-0.5,2.1c0.3-0.5,0.5-1.2,0.5-2.1C369.2,521.5,368.9,520.5,368.5,519.5 M367.3,517.3L367.3,517.3l0.1,0.1
				c0.1,0.2,0.2,0.3,0.3,0.5l0,0.1c0.1,0.2,0.2,0.4,0.3,0.6c0.1,0.2,0.2,0.4,0.3,0.6l0,0C368.1,518.6,367.7,517.9,367.3,517.3
				L367.3,517.3 M360.7,512.7c-1,0-1.9,0.4-2.3,1.3h0l-0.1,0.3l-3.7,7.7l0,0.1l-1.1,2.2c-0.1,0.1-0.1,0.2-0.1,0.4
				c0,0.1,0,0.2,0.1,0.3l0.1,0.1l0,0l1.6-0.9l2-1.1l0.2-0.1l2.7-1.5l6.8-3.8l0.6-0.3h0v0h0c-1-1.5-2.3-2.8-3.8-3.7
				C362.5,513,361.5,512.7,360.7,512.7"/>
			<path class="st32" d="M353.4,525.1l0.1,0.1c0.1,0.2,0.4,0.3,0.6,0.3l0.7,0l2.2,0h0v0h0.1l9.3,0.2v0c0.5,0,1-0.1,1.3-0.3l0.1,0
				c0.9-0.5,1.4-1.5,1.4-2.9c0-0.2,0-0.4,0-0.6v0c0-0.2,0-0.3-0.1-0.5c-0.1-0.5-0.2-1-0.4-1.5l-0.1-0.1c-0.1-0.2-0.1-0.3-0.2-0.5
				l0,0c-0.1-0.2-0.2-0.4-0.3-0.6c-0.1-0.2-0.2-0.4-0.3-0.6l0-0.1c-0.1-0.2-0.2-0.3-0.3-0.5l-0.1-0.1v0h0l-0.6,0.3l-6.8,3.8
				l-2.7,1.5l-0.2,0.1l-2,1.1L353.4,525.1"/>
			<path class="st35" d="M367.3,517.3L367.3,517.3L367.3,517.3l-0.6,0.3l-6.8,3.8l-2.7,1.5l-0.2,0.1l-2,1.1l-1.6,0.9h0l0.1,0.1
				c0.1,0.2,0.4,0.3,0.6,0.3l0.7,0l2.2,0h0v0h0.1l9.3,0.2v0v0l0,0c0,0,0,0,0.1,0c0.5,0,0.9-0.1,1.3-0.3l0.1,0
				c0.9-0.5,1.4-1.5,1.4-2.9c0-0.2,0-0.4,0-0.6v0c0-0.2,0-0.3-0.1-0.5c-0.1-0.5-0.2-1-0.4-1.5l-0.1-0.1c-0.1-0.2-0.1-0.3-0.2-0.5
				l0,0c-0.1-0.2-0.2-0.4-0.3-0.6c-0.1-0.2-0.2-0.4-0.3-0.6l0-0.1c-0.1-0.2-0.2-0.3-0.3-0.5L367.3,517.3L367.3,517.3"/>
			<path class="st36" d="M353.3,525l0.1,0.1h0l0.1,0.1c0.1,0.2,0.4,0.3,0.6,0.3l0.7,0l2.2,0h0v0l0-2.5v0l-2.5-1l-1.1,2.2
				C353.2,524.5,353.2,524.7,353.3,525z"/>
			<path class="st36" d="M354.3,522.5c0,1,0.8,2.2,1.7,2.7c1,0.6,1.7,0.2,1.7-0.7c0-1-0.8-2.2-1.7-2.7
				C355.1,521.3,354.3,521.6,354.3,522.5z"/>
			<polyline class="st37" points="196.2,450.9 196.2,435.6 209.5,443.2 209.5,458.6 196.2,450.9 			"/>
			<polyline class="st38" points="196.2,435.6 196.2,450.9 209.5,458.6 209.5,443.2 196.2,435.6 			"/>
			<polyline class="st37" points="196.2,435.6 209.5,427.9 222.8,435.6 209.5,443.2 196.2,435.6 			"/>
			<polyline class="st39" points="209.5,427.9 196.2,435.6 209.5,443.2 222.8,435.6 209.5,427.9 			"/>
			<polygon class="st40" points="209.5,443.2 222.8,435.6 222.8,450.9 209.5,458.6 			"/>
			<polygon class="st37" points="209.5,443.2 222.8,435.6 222.8,450.9 209.5,458.6 			"/>
			<polygon class="st41" points="152.1,302.7 152.1,287.4 165.3,295 165.3,310.4 			"/>
			<polygon class="st42" points="152.1,287.4 165.3,279.7 178.6,287.4 165.3,295 			"/>
			<polygon class="st40" points="165.3,295 178.6,287.4 178.6,302.7 165.3,310.4 			"/>
			<polygon class="st43" points="165.3,295 178.6,287.4 178.6,302.7 165.3,310.4 			"/>
			<polyline class="st8" points="143.2,333.5 143.2,318.1 156.4,325.8 156.4,341.1 143.2,333.5 			"/>
			<polyline class="st9" points="143.2,318.1 143.2,333.5 156.4,341.1 156.4,325.8 143.2,318.1 			"/>
			<polyline class="st8" points="143.2,318.1 156.4,310.5 169.7,318.1 156.4,325.8 143.2,318.1 			"/>
			<polyline class="st18" points="156.4,310.5 143.2,318.1 156.4,325.8 169.7,318.1 156.4,310.5 			"/>
			<polygon class="st8" points="156.4,325.8 169.7,318.1 169.7,333.5 156.4,341.1 			"/>
			<polyline class="st7" points="121.1,249 85.8,269.5 85.8,310.4 121.1,289.9 121.1,249 			"/>
			<polyline class="st44" points="121.1,249 85.8,269.5 85.8,310.4 121.1,289.9 121.1,249 			"/>
			<path class="st30" d="M113.9,281.2c0-2.3-1.9-3.1-4.2-1.8c-2.3,1.3-4.2,4.3-4.2,6.7s1.9,3.1,4.2,1.8
				C112,286.5,113.9,283.5,113.9,281.2z"/>
			<path class="st30" d="M113.9,264.7c0-2.3-1.9-3.1-4.2-1.8c-2.3,1.3-4.2,4.3-4.2,6.7c0,2.3,1.9,3.1,4.2,1.8
				C112,270,113.9,267,113.9,264.7z"/>
			<path class="st30" d="M100.2,280.8c0-2.3-1.9-3.1-4.2-1.8c-2.3,1.3-4.2,4.3-4.2,6.7s1.9,3.1,4.2,1.8
				C98.3,286.1,100.2,283.1,100.2,280.8z"/>
			<polygon class="st30" points="96.9,281.7 95.5,284.7 108.8,285.1 110.1,282.1 			"/>
			<polygon class="st30" points="108.8,266.6 95.5,282.2 96.9,283.7 110.1,268.1 			"/>
			<polygon class="st30" points="143.1,491.7 178.6,471.3 213.9,491.7 178.6,512.2 			"/>
			<polygon class="st45" points="143.1,491.7 143.1,496.9 178.6,517.3 213.9,496.9 213.9,491.7 178.6,512.2 			"/>
			<polygon class="st46" points="178.6,512.2 178.6,517.3 213.9,496.9 213.9,491.7 			"/>
			<polyline class="st7" points="85.8,310.4 81.2,307.7 81.2,267 85.8,269.5 85.8,310.4 			"/>
			<polyline class="st2" points="339.9,452.1 339.9,457.1 339.9,452.1 339.9,452.1 			"/>
			<g>
				<polyline class="st47" points="388.6,424 339.9,452.1 339.9,457.1 342.3,458.5 390.9,430.4 390.9,425.3 388.6,424 				"/>
				<polyline class="st48" points="339.9,452.1 339.9,457.1 342.3,458.5 342.3,453.4 339.9,452.1 				"/>
				<polyline class="st48" points="388.6,424 388.6,424 339.9,452.1 339.9,452.1 342.3,453.4 390.9,425.3 388.6,424 				"/>
			</g>
			<g>
				<polyline class="st47" points="379.8,418.9 331.1,447 331.1,452.1 333.5,453.5 382.2,425.4 382.2,420.3 379.8,418.9 				"/>
				<polyline class="st48" points="331.1,447 331.1,452.1 333.5,453.5 333.5,448.4 331.1,447 				"/>
				<polyline class="st48" points="379.8,418.9 331.1,447 333.5,448.4 382.2,420.3 379.8,418.9 				"/>
			</g>
			<polyline class="st1" points="399.8,430.5 399.8,430.5 399.8,435.6 351.1,463.7 399.8,435.6 399.8,430.5 			"/>
			<g>
				<polyline class="st47" points="397.4,429.1 348.7,457.2 348.7,462.3 351.1,463.7 399.8,435.6 399.8,430.5 397.4,429.1 				"/>
				<polyline class="st48" points="348.7,457.2 348.7,462.3 351.1,463.7 351.1,458.6 348.7,457.2 				"/>
				<polyline class="st48" points="397.4,429.1 397.4,429.1 348.7,457.2 351.1,458.6 399.8,430.5 397.4,429.1 				"/>
			</g>
			<path class="st49" d="M463.5,468c0,1.3-0.4,2.2-1.1,2.7l0,0l-0.5,0.3l0,0l-5.9,3.4c0.7-0.5,1.1-1.5,1.1-2.7
				c0-1.7-0.7-3.6-1.9-5.3l0,0c-1-1.4-2.3-2.7-3.7-3.5c-1.6-1-3.1-1.1-4.2-0.6l6.6-3.8c1-0.4,2.4-0.2,4,0.7c1.4,0.8,2.7,2.1,3.7,3.5
				l0,0C462.8,464.4,463.5,466.4,463.5,468z"/>
			<polygon class="st42" points="455.9,474.5 456,474.5 455.6,474.7 			"/>
			<polygon class="st42" points="447.2,462.3 447,462.4 446.9,462.4 447.3,462.2 447.2,462.3 			"/>
			<polygon class="st42" points="455.4,474.8 455.6,474.7 455.4,474.8 			"/>
			<polygon class="st49" points="452.5,459.2 453.3,458.7 453.2,458.8 452.7,459.1 			"/>
			<polygon class="st49" points="461.2,471.4 462.1,470.9 461.2,471.4 			"/>
			<polygon class="st42" points="461.2,471.5 461.2,471.4 460.9,471.6 			"/>
			<polygon class="st42" points="452.5,459.2 452.3,459.3 452.2,459.4 452.5,459.2 452.5,459.2 			"/>
			<polygon class="st42" points="460.7,471.8 460.9,471.6 460.7,471.7 			"/>
			<polyline class="st8" points="248.9,481.3 284.4,460.9 319.8,481.3 284.4,501.8 248.9,481.3 			"/>
			<polyline class="st18" points="284.4,460.9 248.9,481.3 284.4,501.8 319.8,481.3 284.4,460.9 			"/>
			<polyline class="st8" points="248.9,481.3 248.9,486.4 284.4,506.9 319.8,486.4 319.8,481.3 284.4,501.8 248.9,481.3 			"/>
			<polygon class="st30" points="294.2,476.2 291.6,481.5 297.8,486.4 288.1,485.8 283,490.3 279.6,484.6 270.3,482.4 277.9,479.5 
				277.2,473.7 285.3,477.6 			"/>
			<polyline class="st9" points="248.9,481.3 248.9,486.4 284.4,506.9 284.4,501.8 248.9,481.3 			"/>
			<polyline class="st50" points="103.1,421.5 138.6,401.1 173.9,421.5 138.5,442 103.1,421.5 			"/>
			<polyline class="st51" points="138.6,401.1 103.1,421.5 138.5,442 173.9,421.5 138.6,401.1 			"/>
			<polyline class="st52" points="103.1,421.5 103.1,426.6 138.5,447.1 173.9,426.6 173.9,421.5 138.5,442 103.1,421.5 			"/>
			<path class="st30" d="M137.1,412.9l14.9,8.6c0.9,0.5,0.9,1.9,0,2.5l-10.4,6c-0.4,0.3-1,0.3-1.4,0l-7.9-4.6l-6.9-4
				c-0.9-0.5-0.9-1.9,0-2.5l10.4-6C136.1,412.7,136.7,412.7,137.1,412.9z"/>
			<polygon class="st30" points="132,430.4 136.4,427.9 132.2,425.4 			"/>
			<polyline class="st53" points="103.1,421.5 103.1,426.6 138.5,447.1 138.5,442 103.1,421.5 			"/>
			<polyline class="st54" points="271.1,391.9 266.6,394.4 328.6,430.2 266.6,394.4 271.1,391.9 271.1,391.9 			"/>
			<polyline class="st55" points="271.1,391.9 266.6,394.4 328.6,430.2 328.6,425.1 271.1,391.9 			"/>
			<polyline class="st55" points="266.6,389.3 266.6,394.4 271.1,391.9 266.6,389.3 			"/>
			<polyline class="st56" points="277.5,271 281.8,268.4 286.3,271 273.2,329.9 268.8,332.4 281.9,273.5 277.5,271 			"/>
			<polyline class="st57" points="275.5,285.1 275.5,290.2 302.1,305.6 302.1,300.4 275.5,285.1 			"/>
			<polyline class="st56" points="275.5,285.1 279.9,282.6 306.5,297.9 306.5,303 302.1,305.6 302.1,300.4 275.5,285.1 			"/>
			<polyline class="st58" points="283.3,284.5 283.3,284.5 306.4,297.9 283.3,284.5 			"/>
			<polyline class="st59" points="283.3,284.5 283.3,284.5 306.4,297.9 283.3,284.5 			"/>
			<polyline class="st60" points="278.9,287.1 278.9,287.1 302.1,300.4 278.9,287.1 			"/>
			<polyline class="st61" points="283.3,284.5 278.9,287.1 302.1,300.4 302.1,305.6 305.1,303.8 306.4,297.9 283.3,284.5 			"/>
			<polyline class="st57" points="271.5,303.2 271.5,308.3 298.1,323.6 298,318.5 271.5,303.2 			"/>
			<polyline class="st56" points="271.5,303.2 275.9,300.6 302.5,315.9 302.5,321 298.1,323.6 298,318.5 271.5,303.2 			"/>
			<polyline class="st58" points="279.3,302.6 279.3,302.6 302.4,315.9 302.4,315.9 279.3,302.6 			"/>
			<polyline class="st30" points="279.3,302.6 279.3,302.6 302.4,315.9 302.4,315.9 279.3,302.6 			"/>
			<polyline class="st61" points="279.3,302.6 279.3,302.6 279.3,302.6 279.3,302.6 279.3,302.6 			"/>
			<polyline class="st61" points="279.3,302.6 274.9,305.1 298,318.5 298.1,323.6 301.1,321.8 302.4,315.9 279.3,302.6 279.3,302.6 
							"/>
			<polyline class="st56" points="304,286.3 308.4,283.7 312.8,286.3 299.7,345.2 295.3,347.8 308.4,288.9 304,286.3 			"/>
			<polyline class="st57" points="264.4,329.9 268.8,332.4 281.9,273.5 277.5,271 264.4,329.9 			"/>
			<polyline class="st61" points="277.6,270.8 277.5,271 277.6,271.1 277.6,270.8 			"/>
			<polyline class="st61" points="308.4,283.7 304.6,285.9 304,286.3 308.4,288.9 312.8,286.3 308.4,283.7 			"/>
			<polyline class="st56" points="269.4,307 273.8,304.5 278.3,307.1 255.1,411.2 250.7,413.8 273.9,309.6 269.4,307 			"/>
			<polyline class="st57" points="267.5,321.2 267.5,326.3 294.1,341.7 294,336.5 267.5,321.2 			"/>
			<polyline class="st57" points="262.8,359.4 260.6,363.2 287.2,378.6 287.2,373.4 262.8,359.4 			"/>
			<polyline class="st57" points="258.8,377.5 256.2,381.2 282.8,396.5 282.7,391.4 258.8,377.5 			"/>
			<polyline class="st57" points="266.8,341.2 265.9,345.7 290,359.7 290,354.6 266.8,341.2 			"/>
			<polyline class="st57" points="254.8,395.6 251.8,399 278.3,414.3 278.3,409.2 254.8,395.6 			"/>
			<polyline class="st56" points="254.8,395.6 259.1,393 282.8,406.7 282.8,411.8 278.3,414.3 278.3,409.2 254.8,395.6 			"/>
			<polyline class="st56" points="267.5,321.2 271.9,318.7 298.5,334 298.5,339.1 294.1,341.7 294,336.5 267.5,321.2 			"/>
			<polyline class="st56" points="266.8,341.2 271.2,338.7 294.5,352 294.5,357.1 290,359.7 290,354.6 266.8,341.2 			"/>
			<polyline class="st56" points="262.8,359.4 267.2,356.8 291.6,370.9 291.6,376 287.2,378.6 287.2,373.4 262.8,359.4 			"/>
			<polyline class="st56" points="258.8,377.5 263.2,375 287.2,388.8 287.2,393.9 282.8,396.5 282.7,391.4 258.8,377.5 			"/>
			<polyline class="st61" points="275.2,320.6 270.8,323.1 294,336.5 294.1,341.7 298.5,339.1 298.5,334 275.2,320.6 			"/>
			<polyline class="st61" points="271.2,338.7 266.8,341.2 290,354.6 290,359.7 294.5,357.1 294.5,352 293.1,351.3 271.2,338.7 			
				"/>
			<polyline class="st61" points="267.2,356.8 267.2,356.8 262.8,359.4 287.2,373.4 287.2,378.6 291.6,376 291.6,372.3 291.6,370.9 
				267.2,356.8 			"/>
			<polyline class="st61" points="263.2,375 258.8,377.5 282.7,391.4 282.8,396.5 287.2,393.9 287.2,388.8 277.3,383.1 263.2,375 
							"/>
			<polyline class="st61" points="259.1,393 254.8,395.6 278.3,409.2 278.3,414.3 282.8,411.8 282.8,406.7 259.1,393 			"/>
			<polygon class="st56" points="296,322.4 300.4,319.8 304.8,322.4 281.7,426.5 277.3,429.1 300.4,325 			"/>
			<polygon class="st57" points="246.3,411.2 250.7,413.8 276.5,297.9 269.4,307 			"/>
			<polygon class="st57" points="272.3,303.6 272.3,308.7 298.9,324 298.8,318.9 			"/>
			<polygon class="st57" points="272.8,426.5 277.3,429.1 304.4,306.9 296,322.4 			"/>
			<polygon class="st56" points="274.2,321.2 275.2,320.6 275.4,319.8 271.9,318.6 271.6,319.7 			"/>
			<polygon class="st57" points="290.9,345.2 295.3,347.8 308.4,288.9 304,286.3 			"/>
			<polyline class="st62" points="276.1,247 276.8,246.5 281.2,244 282.1,244.5 286.5,247 282.1,249.6 277.7,247.1 277.7,247.1 
				277.5,246.9 276.3,247.5 276.1,247 			"/>
			<path class="st62" d="M285.8,246.6l0.7,0.4l0,0L285.8,246.6 M281.2,244l-4.4,2.6l-0.7,0.4l0.2,0.5l1.2-0.5l0.2,0.1l0,0l4.4,2.5
				l0-5.1l3.1,1.8l0,0l-3.1-1.8L281.2,244"/>
			<polyline class="st63" points="290.9,254.7 290.9,285.4 277.6,277.7 277.7,247.1 290.9,254.7 			"/>
			<polyline class="st63" points="295.3,252.1 295.3,282.8 282,275.1 282.1,244.5 295.3,252.1 			"/>
			<polygon class="st64" points="290.9,285.4 290.9,316 284.1,312.1 284.1,281.4 			"/>
			<polygon class="st64" points="284.1,281.4 284.1,312.1 277.6,308.3 277.6,277.7 			"/>
			<polyline class="st62" points="295.3,252.1 295.3,282.8 290.9,280.2 290.9,254.7 295.3,252.1 			"/>
			<polygon class="st62" points="290.9,280.3 290.9,280.3 295.3,282.8 290.9,285.4 			"/>
			<polygon class="st65" points="282.9,311.4 285.3,312.8 285.3,282.1 282.9,280.7 			"/>
			<path class="st63" d="M290.9,254.7l8.1,6.5c0.5,0.4,1.1,0.4,1.6,0.1l8-4.6v3l-8,4.6c-0.5,0.3-1.1,0.2-1.6-0.1l-8-6.5L290.9,254.7
				"/>
			<polyline class="st62" points="286.5,247 295.3,252.1 290.9,254.7 282.1,249.6 286.5,247 			"/>
			<path class="st62" d="M304.1,254.2l4.5,2.5l-8,4.6c-0.5,0.3-1.2,0.2-1.6-0.1l-8.1-6.5l4.4-2.6l3.6,3.8c0.5,0.5,1.2,0.6,1.7,0.3
				L304.1,254.2"/>
			<polyline class="st62" points="285.2,246.3 285.2,246.3 286.5,247.1 286.5,247 285.8,246.6 285.2,246.3 			"/>
			<polyline class="st66" points="285.2,246.3 282.1,249.6 286.5,247.1 285.2,246.3 			"/>
			<polyline class="st58" points="285.2,246.3 282.1,249.6 286.5,247.1 285.2,246.3 			"/>
			<polyline class="st62" points="286.5,247 286.5,247.1 282.1,249.6 290.9,254.7 290.9,254.7 290.9,254.7 295.3,252.1 286.5,247 
							"/>
			<path class="st62" d="M295.3,252.1L295.3,252.1l-4.4,2.6l8.1,6.5c0.3,0.2,0.6,0.3,0.9,0.3c0.2,0,0.5-0.1,0.7-0.2l8-4.6l-4.5-2.5
				l-3.4,2c-0.2,0.1-0.5,0.2-0.7,0.2c-0.4,0-0.8-0.2-1-0.4L295.3,252.1"/>
			<polygon class="st67" points="306.4,252.9 304.1,254.2 308.6,256.8 310.9,255.4 			"/>
			<polygon class="st67" points="308.6,256.8 310.9,255.4 310.9,258.4 308.6,259.7 			"/>
			<polygon class="st67" points="277.6,277.7 275.4,276.4 275.4,274.1 277.6,275.4 			"/>
			<polygon class="st65" points="294.2,310.3 298.6,307.8 294.2,305.2 			"/>
			<path class="st65" d="M296.3,307.8l-5.4,3.1v5.1l8.8-5.1v-1.1C299.7,308,297.8,306.9,296.3,307.8z"/>
			<polygon class="st65" points="295.3,282.8 295.3,313.5 290.9,316 290.9,285.4 			"/>
			<path class="st68" d="M294.4,238.8l-7.1-4l-5.4,3c-0.9,0.5-1.5,1.4-1.5,2.5l-0.1,8.4l7.3,4.3l4.2-2.4c1.5-0.9,2.5-2.5,2.5-4.3
				V238.8z"/>
			<path class="st67" d="M294.4,240.5l-3.7,2.2c-0.9,0.5-1.4,1.4-1.4,2.5v6.9l2.7-1.5c1.5-0.9,2.5-2.5,2.5-4.3V240.5z"/>
			<path class="st68" d="M288.7,233.9l7.1,4.1v0.1c0,1-0.5,1.9-1.4,2.4v-1.7l-7.1-4L288.7,233.9z"/>
			<path class="st63" d="M275.4,274.2l2.3,1.3v-28.4l-0.2-0.1c-0.9-0.6-2.1,0.1-2.1,1.2V274.2z"/>
			<polyline class="st7" points="81.2,267 116.8,246.5 121.1,249 85.8,269.5 81.2,267 			"/>
			<polyline class="st16" points="116.8,246.5 81.2,267 85.8,269.5 121.1,249 116.8,246.5 			"/>
			<polygon class="st8" points="191.8,305.3 205.1,297.6 218.4,305.3 205.1,312.9 			"/>
			<polygon class="st30" points="191.8,305.3 205.1,297.6 218.4,305.3 205.1,312.9 			"/>
			<polygon class="st46" points="205.1,312.9 218.4,305.3 218.4,320.6 205.1,328.3 			"/>
			<polygon class="st45" points="191.8,320.6 191.8,305.3 205.1,312.9 205.1,328.3 			"/>
			<polyline class="st69" points="386.6,468.7 386.6,453.4 399.8,461 399.8,476.4 386.6,468.7 			"/>
			<polyline class="st70" points="386.6,453.4 386.6,468.7 399.8,476.4 399.8,461 386.6,453.4 			"/>
			<polyline class="st71" points="386.6,453.4 399.8,445.7 413.1,453.4 399.8,461 386.6,453.4 			"/>
			<polyline class="st72" points="399.8,445.7 386.6,453.4 399.8,461 413.1,453.4 399.8,445.7 			"/>
			<polygon class="st40" points="399.8,461 413.1,453.4 413.1,468.7 399.8,476.4 			"/>
			<polygon class="st69" points="399.8,461 413.1,453.4 413.1,468.7 399.8,476.4 			"/>
			<polygon class="st69" points="399.8,461 413.1,453.4 413.1,468.7 399.8,476.4 			"/>
			<polyline class="st73" points="461.7,507.1 497.2,486.7 532.5,507.1 497.1,527.5 461.7,507.1 			"/>
			<polyline class="st74" points="461.7,507.1 461.7,512.2 497.1,532.7 532.5,512.2 532.5,507.1 497.1,527.5 461.7,507.1 			"/>
			<polyline class="st11" points="165.4,353.7 200.8,333.3 236.2,353.7 200.8,374.1 165.4,353.7 			"/>
			<polyline class="st24" points="200.8,333.3 165.4,353.7 200.8,374.1 236.2,353.7 200.8,333.3 			"/>
			<polyline class="st11" points="165.4,353.7 165.4,358.8 200.8,379.2 236.2,358.8 236.2,353.7 200.8,374.1 165.4,353.7 			"/>
			<path class="st30" d="M199.5,353l-12.3,2c0.1,0,0.1-0.1,0.2-0.1l15.6-9.6c0.1,0,0.1-0.1,0.2-0.1l-2.7,7.4
				C200.3,352.8,200,353,199.5,353z"/>
			<path class="st30" d="M205.3,345.4l8.1,4.7c0.8,0.4,0.7,1.2-0.2,1.8l-15,9.3c-0.8,0.5-2.2,0.6-2.9,0.2l-8.1-4.7
				c-0.2-0.1-0.3-0.2-0.4-0.3l12.5-1.9c0.7-0.1,1.3-0.3,1.7-0.6c0.5-0.3,0.8-0.7,1-1.1l2.7-7.5C204.9,345.3,205.1,345.3,205.3,345.4
				z"/>
			<polyline class="st22" points="236.2,353.7 236.2,353.7 200.8,374.1 200.8,379.2 236.2,358.8 236.2,353.7 			"/>
			<polyline class="st75" points="461.7,509.8 461.7,512.2 497.1,532.7 497.1,532.6 461.7,512.2 461.7,509.8 461.7,509.8 			"/>
			<polyline class="st76" points="461.7,509.8 461.7,512.2 497.1,532.6 497.1,527.6 494.8,528.9 494.8,528.9 494.8,528.9 
				461.7,509.8 			"/>
			<polyline class="st50" points="459.4,503.3 494.8,482.9 530.2,503.3 494.8,523.8 459.4,503.3 			"/>
			<polyline class="st77" points="463.9,500.7 459.4,503.3 494.8,523.8 530.2,503.3 530.2,503.3 499.3,521.2 463.9,500.7 			"/>
			<polyline class="st52" points="459.4,503.3 459.4,508.4 494.8,528.9 530.2,508.4 530.2,503.3 494.8,523.8 459.4,503.3 			"/>
			<polyline class="st78" points="463.8,495.6 499.3,475.2 534.6,495.6 499.3,516 463.8,495.6 			"/>
			<polyline class="st79" points="499.3,475.2 463.8,495.6 499.3,516 534.6,495.6 499.3,475.2 			"/>
			<polyline class="st40" points="463.8,495.6 463.8,500.7 499.3,521.2 534.6,500.7 534.6,495.6 499.3,516 463.8,495.6 			"/>
			<path class="st30" d="M512.5,497.9c-0.1-1.1-1-2.2-2.3-3c-1.3-0.8-3.1-1.4-5-1.5l-2-0.1l-0.1-1.2c-0.1-1.1-1-2.2-2.3-3
				c-1.3-0.8-3.1-1.4-5-1.5c-3.8-0.2-6.7,1.5-6.5,3.8l0.1,1.2l0.1,1l0.1,1.5l0.5,5.7l9.5,0.5l2.5,0.1l1.7,0.1l2,0.1
				C509.8,501.9,512.7,500.2,512.5,497.9z"/>
			<polyline class="st80" points="463.8,495.6 463.8,500.7 499.3,521.2 499.3,516 463.8,495.6 			"/>
			<polyline class="st75" points="459.4,503.3 459.4,508.4 461.7,509.8 461.7,509.7 459.4,508.4 459.4,503.3 459.4,503.3 			"/>
			<polyline class="st81" points="461.7,509.7 461.7,509.8 461.7,509.8 461.7,509.8 461.7,509.7 			"/>
			<polyline class="st82" points="461.7,509.8 461.7,509.8 494.8,528.9 494.8,528.9 461.7,509.8 			"/>
			<polyline class="st30" points="461.7,509.8 461.7,509.8 494.8,528.9 494.8,528.9 461.7,509.8 			"/>
			<polyline class="st83" points="459.4,503.3 459.4,508.4 461.7,509.7 461.7,509.8 494.8,528.9 494.8,523.8 459.4,503.3 			"/>
		</g>
		<polygon class="st57" points="295.3,347.8 290.9,345.2 304,286.3 308.4,288.9 		"/>
	</g>
</g>
</svg>
