<?xml version="1.0" encoding="utf-8"?>
<!-- Generator: Adobe Illustrator 19.2.1, SVG Export Plug-In . SVG Version: 6.00 Build 0)  -->
<svg version="1.1" id="Layer_1" xmlns="http://www.w3.org/2000/svg" xmlns:xlink="http://www.w3.org/1999/xlink" x="0px" y="0px"
	 viewBox="0 0 612 612" style="enable-background:new 0 0 612 612;" xml:space="preserve">
<style type="text/css">
	.st0{fill:#C23661;}
	.st1{fill:none;stroke:#FFFFFF;stroke-width:2;stroke-miterlimit:10;}
	.st2{fill:none;stroke:#FFFFFF;stroke-width:2;stroke-miterlimit:10;stroke-dasharray:7.5927,2.8473;}
	.st3{fill:#FFFFFF;}
	.st4{fill:none;stroke:#FFFFFF;stroke-width:2;stroke-miterlimit:10;stroke-dasharray:8.8797,3.3299;}
	.st5{fill:#D7E5D7;}
	.st6{clip-path:url(#XMLID_19_);fill:#989898;}
	.st7{fill:#642945;}
	.st8{fill:#9ED9D9;}
	.st9{fill:#F2EFF7;}
	.st10{fill:#18B0C0;}
	.st11{fill:none;stroke:#18B0C0;stroke-width:1.5428;stroke-miterlimit:10;stroke-dasharray:3.0549,3.0549;}
	.st12{fill:#633349;}
	.st13{fill:#FBC115;}
	.st14{fill:#EF403D;}
	.st15{clip-path:url(#SVGID_2_);fill-rule:evenodd;clip-rule:evenodd;fill:#E84235;}
	.st16{clip-path:url(#SVGID_4_);fill-rule:evenodd;clip-rule:evenodd;fill:#18B0C0;}
	.st17{clip-path:url(#SVGID_6_);fill-rule:evenodd;clip-rule:evenodd;fill:#FBC115;}
	.st18{fill-rule:evenodd;clip-rule:evenodd;fill:#DFE8E2;}
	.st19{fill-rule:evenodd;clip-rule:evenodd;fill:#837A53;}
	.st20{fill-rule:evenodd;clip-rule:evenodd;fill:#F7CE4E;}
	.st21{fill-rule:evenodd;clip-rule:evenodd;fill:#FCBB13;}
	.st22{fill-rule:evenodd;clip-rule:evenodd;fill:#EEC144;}
	.st23{fill-rule:evenodd;clip-rule:evenodd;fill:#F4D16C;}
	.st24{fill-rule:evenodd;clip-rule:evenodd;fill:#FDE688;}
	.st25{fill-rule:evenodd;clip-rule:evenodd;fill:#BD313D;}
	.st26{fill-rule:evenodd;clip-rule:evenodd;fill:#DC363E;}
	.st27{fill-rule:evenodd;clip-rule:evenodd;fill:#E63C2A;}
	.st28{fill-rule:evenodd;clip-rule:evenodd;fill:#EE3430;}
	.st29{fill-rule:evenodd;clip-rule:evenodd;fill:#E13D38;}
	.st30{fill-rule:evenodd;clip-rule:evenodd;fill:#F16260;}
	.st31{fill-rule:evenodd;clip-rule:evenodd;fill:#03726F;}
	.st32{fill-rule:evenodd;clip-rule:evenodd;fill:#0A879E;}
	.st33{fill-rule:evenodd;clip-rule:evenodd;fill:#18BFD5;}
	.st34{fill-rule:evenodd;clip-rule:evenodd;fill:#8CD5E7;}
	.st35{fill-rule:evenodd;clip-rule:evenodd;fill:#A4DCE7;}
	.st36{fill-rule:evenodd;clip-rule:evenodd;fill:#ABDEE7;}
	.st37{fill-rule:evenodd;clip-rule:evenodd;fill:#DEDDDD;}
	.st38{fill:#EFC54A;}
	.st39{fill:#CF5928;}
	.st40{fill:#6D5A6E;}
	.st41{fill-rule:evenodd;clip-rule:evenodd;fill:#18B0C0;}
	.st42{opacity:0.5;clip-path:url(#SVGID_8_);fill-rule:evenodd;clip-rule:evenodd;fill:#E1DCE2;}
	.st43{fill-rule:evenodd;clip-rule:evenodd;fill:#F0F3F9;}
	.st44{fill-rule:evenodd;clip-rule:evenodd;fill:none;stroke:#F3F7FC;stroke-width:3.9824;stroke-miterlimit:10;}
	.st45{clip-path:url(#SVGID_10_);fill-rule:evenodd;clip-rule:evenodd;fill:#DCD2D0;}
	.st46{clip-path:url(#SVGID_12_);fill-rule:evenodd;clip-rule:evenodd;fill:#18B0C0;}
	.st47{clip-path:url(#SVGID_14_);fill-rule:evenodd;clip-rule:evenodd;fill:#DCD2D0;}
	.st48{clip-path:url(#SVGID_14_);fill-rule:evenodd;clip-rule:evenodd;fill:#E84235;}
	.st49{clip-path:url(#SVGID_16_);fill-rule:evenodd;clip-rule:evenodd;fill:#18B0C0;}
</style>
<g>
	<circle class="st0" cx="306" cy="306" r="306"/>
	<g>
		<g>
			<line class="st1" x1="505.2" y1="300.6" x2="501.6" y2="302.4"/>
			<line class="st2" x1="499.1" y1="303.7" x2="435.4" y2="336.7"/>
			<line class="st1" x1="434.2" y1="337.3" x2="430.6" y2="339.2"/>
		</g>
	</g>
	
		<ellipse transform="matrix(0.715 -0.6991 0.6991 0.715 -47.551 454.7275)" class="st3" cx="533.9" cy="285.7" rx="51.9" ry="51.9"/>
	<g>
		<g>
			<line class="st1" x1="335.4" y1="503.7" x2="334.2" y2="499.9"/>
			<line class="st2" x1="333.3" y1="497.2" x2="311.3" y2="429"/>
			<line class="st1" x1="310.9" y1="427.6" x2="309.7" y2="423.8"/>
		</g>
	</g>
	
		<ellipse transform="matrix(0.6615 -0.7499 0.7499 0.6615 -279.101 437.8397)" class="st3" cx="345.5" cy="528.1" rx="51.9" ry="51.9"/>
	<g>
		<g>
			<line class="st1" x1="130.5" y1="291" x2="134.3" y2="292.1"/>
			<line class="st4" x1="137.5" y1="293" x2="159.4" y2="299.2"/>
			<line class="st1" x1="161" y1="299.7" x2="164.9" y2="300.8"/>
		</g>
	</g>
	
		<ellipse transform="matrix(0.998 -6.332433e-002 6.332433e-002 0.998 -17.675 5.5961)" class="st3" cx="79.4" cy="281.6" rx="51.9" ry="51.9"/>
	<g>
		<g>
			<line class="st1" x1="305.9" y1="128.2" x2="305.9" y2="132.2"/>
			<line class="st2" x1="305.9" y1="135.1" x2="305.9" y2="206.7"/>
			<line class="st1" x1="305.9" y1="208.2" x2="305.9" y2="212.2"/>
		</g>
	</g>
	<g id="monitor_1_">
		<g id="monitor">
			<path class="st5" d="M447.1,399.2c0,3.6-2.8,6.5-6.3,6.5H171.2c-3.5,0-6.3-2.9-6.3-6.5V205.6c0-3.6,2.8-6.5,6.3-6.5h269.5
				c3.5,0,6.3,2.9,6.3,6.5V399.2z"/>
			<g>
				<defs>
					<path id="XMLID_1_" d="M345,424.5V405h-84v19.5c0,0-12.8,3.5-11.6,11.5h12.5h81.4h12.1C355.4,436,356,424.8,345,424.5z"/>
				</defs>
				<use xlink:href="#XMLID_1_"  style="overflow:visible;fill:#D7E5D7;"/>
				<clipPath id="XMLID_19_">
					<use xlink:href="#XMLID_1_"  style="overflow:visible;"/>
				</clipPath>
				<polygon class="st6" points="267.4,400.6 289.7,424.6 343.3,424.5 346,397.5 				"/>
			</g>
			<path class="st7" d="M440.3,211.6c0-3.5-2.8-6.3-6.2-6.3H177.3c-3.4,0-6.2,2.8-6.2,6.3v165.9c0,3.5,2.8,6.3,6.2,6.3h256.8
				c3.4,0,6.2-2.8,6.2-6.3V211.6z"/>
			<rect x="180.4" y="217.9" class="st8" width="251.1" height="153.4"/>
		</g>
		<g id="ai">
			<g id="ui">
				<rect x="211.8" y="236.7" class="st9" width="162.8" height="109.6"/>
				<rect x="211.8" y="236.7" class="st10" width="162.8" height="8.2"/>
			</g>
			<g id="wip">
				<g>
					<path class="st11" d="M325.1,297.2c0,18.3-14.8,33.1-33.1,33.1c-18.3,0-33.1-14.8-33.1-33.1c0-18.3,14.8-33.1,33.1-33.1
						C310.3,264.1,325.1,278.9,325.1,297.2z"/>
				</g>
				<g id="pen">
					<g>
						<path class="st12" d="M284.6,308.7l11.4-9.1l2.1,2.6l-11.4,9.1L284.6,308.7L284.6,308.7z"/>
						<path class="st12" d="M288.3,311.5l9.7-7.7l2.7,3.4l-9.7,7.7L288.3,311.5L288.3,311.5z"/>
						<path class="st12" d="M268.3,275.7l8.2,10.3c1.7-1,3.8-0.6,5.1,0.9c1.4,1.7,1.1,4.2-0.6,5.6c-1.7,1.4-4.2,1.1-5.6-0.6
							c-1.2-1.6-1.1-3.8,0.2-5.2l-8.2-10.2l3.9,20c0,0,11.5,6.2,13.6,10.4c0.4-0.2,9-7.1,9.3-7.5c-3.2-2-7.4-15.5-7.4-15.5
							L268.3,275.7L268.3,275.7z"/>
						<path class="st12" d="M268.4,274.3c0.5,0.7,0.4,1.6-0.2,2.2c-0.7,0.5-1.6,0.4-2.2-0.2c-0.5-0.7-0.4-1.6,0.2-2.2
							C266.9,273.5,267.9,273.6,268.4,274.3z"/>
					</g>
				</g>
			</g>
			<g id="windows">
				<rect x="221.2" y="258.6" class="st13" width="18.8" height="78.3"/>
				<rect x="335.3" y="249.2" class="st14" width="30.9" height="37.3"/>
			</g>
		</g>
	</g>
	<g id="crayons">
		<g id="crayon">
			<g>
				<defs>
					<path id="SVGID_1_" d="M332,559.6c0,0.8-2.9,4.4-6.1,4.4h-0.6c-3.2,0-5.3-3.5-5.3-4.4V503h12V559.6z"/>
				</defs>
				<use xlink:href="#SVGID_1_"  style="overflow:visible;fill-rule:evenodd;clip-rule:evenodd;fill:#FBC115;"/>
				<clipPath id="SVGID_2_">
					<use xlink:href="#SVGID_1_"  style="overflow:visible;"/>
				</clipPath>
				<rect x="316.4" y="555.7" class="st15" width="17.7" height="3.4"/>
				<rect x="316.8" y="550.3" class="st15" width="17.7" height="3.4"/>
				<path class="st15" d="M317.3,503.3v43.2h16.2v-43.2H317.3z M325.7,541c-1.5,0-2.8-7.5-2.8-16.7c0-9.2,1.2-16.7,2.8-16.7
					c1.5,0,2.8,7.5,2.8,16.7C328.5,533.6,327.2,541,325.7,541z"/>
			</g>
			<g>
				<g>
					<defs>
						<polygon id="XMLID_24_" points="331.5,504 319.8,504 325.2,493.6 						"/>
					</defs>
					<use xlink:href="#XMLID_24_"  style="overflow:visible;fill-rule:evenodd;clip-rule:evenodd;fill:#FBC115;"/>
					<clipPath id="XMLID_20_">
						<use xlink:href="#XMLID_24_"  style="overflow:visible;"/>
					</clipPath>
				</g>
			</g>
		</g>
		<g id="crayon_1_">
			<g>
				<defs>
					<path id="SVGID_3_" d="M353,559.6c0,0.8-2.3,4.4-5.5,4.4h-0.6c-3.2,0-5.9-3.5-5.9-4.4V503h12V559.6z"/>
				</defs>
				<use xlink:href="#SVGID_3_"  style="overflow:visible;fill-rule:evenodd;clip-rule:evenodd;fill:#E84235;"/>
				<clipPath id="SVGID_4_">
					<use xlink:href="#SVGID_3_"  style="overflow:visible;"/>
				</clipPath>
				<rect x="337.9" y="555.7" class="st16" width="17.7" height="3.4"/>
				<rect x="338.4" y="550.3" class="st16" width="17.7" height="3.4"/>
				<path class="st16" d="M338.9,503.3v43.2h16.2v-43.2H338.9z M347.3,541c-1.5,0-2.8-7.5-2.8-16.7c0-9.2,1.2-16.7,2.8-16.7
					c1.5,0,2.8,7.5,2.8,16.7C350,533.6,348.8,541,347.3,541z"/>
			</g>
			<g>
				<g>
					<defs>
						<polygon id="XMLID_23_" points="353.1,503 341.4,503 346.8,492.6 						"/>
					</defs>
					<use xlink:href="#XMLID_23_"  style="overflow:visible;fill-rule:evenodd;clip-rule:evenodd;fill:#E84235;"/>
					<clipPath id="XMLID_21_">
						<use xlink:href="#XMLID_23_"  style="overflow:visible;"/>
					</clipPath>
				</g>
			</g>
		</g>
		<g id="crayon_2_">
			<g>
				<defs>
					<path id="SVGID_5_" d="M373.3,559.7c0,0.8-2.5,4.1-5.7,4.1l-0.6,0c-3.2,0-5.5-3.3-5.5-4.1l0.2-56.6l11.8,0L373.3,559.7z"/>
				</defs>
				<use xlink:href="#SVGID_5_"  style="overflow:visible;fill-rule:evenodd;clip-rule:evenodd;fill:#18B0C0;"/>
				<clipPath id="SVGID_6_">
					<use xlink:href="#SVGID_5_"  style="overflow:visible;"/>
				</clipPath>
				
					<rect x="365.3" y="548.7" transform="matrix(3.445926e-003 -1 1 3.445926e-003 -191.7157 922.4351)" class="st17" width="3.3" height="17.4"/>
				
					<rect x="365.6" y="543.3" transform="matrix(3.443269e-003 -1 1 3.443269e-003 -185.8191 917.5358)" class="st17" width="3.8" height="17.4"/>
				<path class="st17" d="M359.4,503l-0.1,43.3l16,0.1l0.1-43.3L359.4,503z M367.4,541c-1.5,0-2.8-7.5-2.7-16.7
					c0-9.2,1.3-16.7,2.8-16.7c1.5,0,2.8,7.5,2.7,16.7S369,541,367.4,541z"/>
			</g>
			<g>
				<g>
					<defs>
						<polygon id="XMLID_22_" points="373.4,503.1 361.7,503.1 367.1,492.7 						"/>
					</defs>
					<use xlink:href="#XMLID_22_"  style="overflow:visible;fill-rule:evenodd;clip-rule:evenodd;fill:#18B0C0;"/>
					<clipPath id="XMLID_25_">
						<use xlink:href="#XMLID_22_"  style="overflow:visible;"/>
					</clipPath>
				</g>
			</g>
		</g>
	</g>
	<g id="pantones">
		<g id="pantone_2_">
			
				<rect x="510.4" y="266.8" transform="matrix(0.6216 -0.7834 0.7834 0.6216 -35.1858 520.8629)" class="st18" width="22.2" height="60.2"/>
			
				<rect x="530" y="307.2" transform="matrix(0.6216 -0.7833 0.7833 0.6216 -39.5686 540.3245)" class="st19" width="19" height="7.9"/>
			
				<rect x="522.4" y="301.4" transform="matrix(0.6216 -0.7833 0.7833 0.6216 -37.679 532.1596)" class="st20" width="19.1" height="7.4"/>
			
				<rect x="515" y="295.5" transform="matrix(0.6216 -0.7833 0.7833 0.6216 -35.8624 524.1133)" class="st21" width="19.1" height="7.4"/>
			
				<rect x="507.5" y="289.6" transform="matrix(0.6216 -0.7833 0.7833 0.6216 -34.0513 516.0541)" class="st22" width="19.1" height="7.4"/>
			
				<rect x="500.1" y="283.7" transform="matrix(0.6216 -0.7833 0.7833 0.6216 -32.2503 507.9698)" class="st23" width="19.1" height="7.4"/>
			
				<rect x="492.7" y="277.8" transform="matrix(0.6216 -0.7834 0.7834 0.6216 -30.4235 499.9481)" class="st24" width="19.1" height="7.4"/>
		</g>
		<g id="pantone_1_">
			
				<rect x="523.1" y="258.9" transform="matrix(0.9583 -0.2859 0.2859 0.9583 -60.3124 164.7976)" class="st18" width="22.2" height="60.2"/>
			
				<rect x="531.2" y="307" transform="matrix(0.9582 -0.286 0.286 0.9582 -66.3382 167.6346)" class="st25" width="19" height="7.9"/>
			
				<rect x="528.5" y="298" transform="matrix(0.9582 -0.2859 0.2859 0.9582 -63.798 166.4447)" class="st26" width="19.1" height="7.4"/>
			
				<rect x="525.8" y="288.9" transform="matrix(0.9583 -0.2859 0.2859 0.9583 -61.3052 165.2724)" class="st27" width="19.1" height="7.4"/>
			
				<rect x="523.1" y="279.8" transform="matrix(0.9582 -0.2859 0.2859 0.9582 -58.8194 164.1328)" class="st28" width="19.1" height="7.4"/>
			
				<rect x="520.3" y="270.7" transform="matrix(0.9582 -0.286 0.286 0.9582 -56.3324 162.9885)" class="st29" width="19.1" height="7.4"/>
			
				<rect x="517.6" y="261.6" transform="matrix(0.9582 -0.286 0.286 0.9582 -53.8432 161.8341)" class="st30" width="19.1" height="7.4"/>
		</g>
		<g id="pantone">
			
				<rect x="521.5" y="276.3" transform="matrix(0.1498 -0.9887 0.9887 0.1498 184.8581 789.6754)" class="st18" width="60.2" height="22.2"/>
			
				<rect x="544.5" y="300.4" transform="matrix(0.1498 -0.9887 0.9887 0.1498 159.6661 805.54)" class="st31" width="7.4" height="19.1"/>
			
				<rect x="546" y="291" transform="matrix(0.1499 -0.9887 0.9887 0.1499 170.1472 798.9501)" class="st32" width="7.4" height="19.1"/>
			
				<rect x="547.4" y="281.6" transform="matrix(0.1498 -0.9887 0.9887 0.1498 180.6602 792.3849)" class="st33" width="7.4" height="19.1"/>
			
				<rect x="548.8" y="272.2" transform="matrix(0.1498 -0.9887 0.9887 0.1498 191.1517 785.8048)" class="st34" width="7.4" height="19.1"/>
			
				<rect x="550.2" y="262.8" transform="matrix(0.1498 -0.9887 0.9887 0.1498 201.6535 779.2302)" class="st35" width="7.4" height="19.1"/>
			
				<rect x="551.7" y="253.4" transform="matrix(0.1499 -0.9887 0.9887 0.1499 212.0937 772.6157)" class="st36" width="7.4" height="19.1"/>
		</g>
	</g>
	<circle class="st3" cx="309.9" cy="89.7" r="71.9"/>
	<g id="palette_1_">
		<path class="st37" d="M112,260.3c-5.2-12.4-17-20.1-30.6-20c-10.3,0.1-19.2,3.5-25.7,11.5c-11,13.6-15.5,29.1-11.7,46.4
			c1.3,6.1,4,11.7,8.2,16.4c4.8,5.3,10.7,7.4,17.8,5.9c1.1-0.2,2.2-0.6,3.4-1c2.1-0.8,3.7-2.3,4-2.6c4-3.7,5.7-8.4,5.9-13.7
			c0.1-3.7,0-7.4,0.1-11.1c0.1-4.2,3.1-7.3,7-7.4c3.5-0.1,6,1.7,7.8,4.6c0.7,1.1,1.4,2.2,2.3,3.2c2.9,3.1,6.8,3.1,9.8,0.2
			c2.4-2.4,4-5.3,4.5-8.6C116.1,275.9,115.2,267.9,112,260.3z M66.6,312.3c-2.9-0.8-4.1-5.6-2.7-10.7c1.4-5.2,4.9-8.7,7.8-7.9
			c2.9,0.8,4.1,5.6,2.7,10.7C73,309.5,69.5,313.1,66.6,312.3z"/>
		
			<ellipse transform="matrix(0.9837 -0.1796 0.1796 0.9837 -48.0926 23.2523)" class="st38" cx="104.4" cy="277.3" rx="5.1" ry="5.1"/>
		
			<ellipse transform="matrix(0.9837 -0.1796 0.1796 0.9837 -45.0356 21.6083)" class="st39" cx="96.8" cy="259.6" rx="5.1" ry="5.1"/>
		
			<ellipse transform="matrix(0.9838 -0.1795 0.1795 0.9838 -44.0271 18.0202)" class="st40" cx="77.5" cy="252.2" rx="5.1" ry="5.1"/>
		<ellipse transform="matrix(0.9837 -0.1795 0.1795 0.9837 -50.4304 14.7266)" class="st38" cx="56.1" cy="286" rx="5.1" ry="5.1"/>
		
			<ellipse transform="matrix(0.9837 -0.1796 0.1796 0.9837 -46.6087 15.3149)" class="st10" cx="61.3" cy="265.1" rx="5.1" ry="5.1"/>
	</g>
	<g id="pen_and_tablet">
		<g id="tablet">
			<path class="st41" d="M358.9,110.7c0,2.2-1.8,3.9-3.9,3.9h-90.6c-2.2,0-3.9-1.8-3.9-3.9V53.6c0-2.2,1.8-3.9,3.9-3.9H355
				c2.2,0,3.9,1.8,3.9,3.9V110.7z"/>
			<g>
				<defs>
					<rect id="SVGID_7_" x="268" y="56" width="69" height="53"/>
				</defs>
				<use xlink:href="#SVGID_7_"  style="overflow:visible;fill-rule:evenodd;clip-rule:evenodd;fill:#F4ECF5;"/>
				<clipPath id="SVGID_8_">
					<use xlink:href="#SVGID_7_"  style="overflow:visible;"/>
				</clipPath>
				<polygon class="st42" points="338.4,54.7 267.7,109.6 267.5,54.3 				"/>
			</g>
			<g id="buttons">
				<rect x="341.2" y="55.6" class="st43" width="11.8" height="5.9"/>
				<rect x="341.2" y="65.4" class="st43" width="11.8" height="5.9"/>
				<rect x="341.2" y="91.1" class="st43" width="11.8" height="5.9"/>
				<rect x="341.2" y="100.9" class="st43" width="11.8" height="5.9"/>
				<circle class="st44" cx="347.6" cy="80.3" r="6.4"/>
			</g>
		</g>
		<g id="pen_1_">
			<g>
				<defs>
					<path id="SVGID_9_" d="M360.2,129.2c0.6,0.5,0.2,2.1-1,3.5l-0.2,0.3c-1.2,1.4-2.6,2.1-3.2,1.6L311.4,98l4.4-5.4L360.2,129.2z"
						/>
				</defs>
				<use xlink:href="#SVGID_9_"  style="overflow:visible;fill-rule:evenodd;clip-rule:evenodd;fill:#FBC115;"/>
				<clipPath id="SVGID_10_">
					<use xlink:href="#SVGID_9_"  style="overflow:visible;"/>
				</clipPath>
				
					<rect x="346.9" y="122.1" transform="matrix(0.6358 -0.7718 0.7718 0.6358 30.4957 322.7017)" class="st45" width="20.6" height="13.8"/>
			</g>
			<g>
				<defs>
					<polygon id="SVGID_11_" points="315.8,92.6 311.4,98 305.6,89.1 					"/>
				</defs>
				<use xlink:href="#SVGID_11_"  style="overflow:visible;fill-rule:evenodd;clip-rule:evenodd;fill:#DCD2D0;"/>
				<clipPath id="SVGID_12_">
					<use xlink:href="#SVGID_11_"  style="overflow:visible;"/>
				</clipPath>
				
					<rect x="303.2" y="87.3" transform="matrix(0.6358 -0.7718 0.7718 0.6358 42.439 269.3978)" class="st46" width="7.1" height="4.9"/>
			</g>
		</g>
	</g>
	<g id="pencil">
		<g>
			<defs>
				<path id="SVGID_13_" d="M232.2,517.7c1.3,1,0.5,4.1-1.7,7l-0.4,0.5c-2.2,3-4.9,4.4-6.2,3.4l-91.2-68.1l8.2-11L232.2,517.7z"/>
			</defs>
			<use xlink:href="#SVGID_13_"  style="overflow:visible;fill-rule:evenodd;clip-rule:evenodd;fill:#18B0C0;"/>
			<clipPath id="SVGID_14_">
				<use xlink:href="#SVGID_13_"  style="overflow:visible;"/>
			</clipPath>
			
				<rect x="206" y="504" transform="matrix(0.5985 -0.8012 0.8012 0.5985 -323.8465 389.2067)" class="st47" width="40.7" height="27.3"/>
			
				<rect x="212.9" y="517.3" transform="matrix(0.5984 -0.8012 0.8012 0.5984 -326.6165 393.9814)" class="st48" width="33.7" height="10.9"/>
		</g>
		<g>
			<defs>
				<polygon id="SVGID_15_" points="141,449.6 132.8,460.6 120.5,443.6 				"/>
			</defs>
			<use xlink:href="#SVGID_15_"  style="overflow:visible;fill-rule:evenodd;clip-rule:evenodd;fill:#EFC54A;"/>
			<clipPath id="SVGID_16_">
				<use xlink:href="#SVGID_15_"  style="overflow:visible;"/>
			</clipPath>
			
				<rect x="115.8" y="439.8" transform="matrix(0.5984 -0.8012 0.8012 0.5984 -306.977 276.9617)" class="st49" width="14" height="9.7"/>
		</g>
	</g>
</g>
</svg>
