<?xml version="1.0" encoding="utf-8"?>
<!-- Generator: Adobe Illustrator 20.0.0, SVG Export Plug-In . SVG Version: 6.00 Build 0)  -->
<svg version="1.1" id="Layer_1" xmlns="http://www.w3.org/2000/svg" xmlns:xlink="http://www.w3.org/1999/xlink" x="0px" y="0px"
	 viewBox="0 0 612 612" style="enable-background:new 0 0 612 612;" xml:space="preserve">
<style type="text/css">
	.st0{fill:#00B4BD;}
	.st1{fill-rule:evenodd;clip-rule:evenodd;fill:#FFFFFF;}
	.st2{fill-rule:evenodd;clip-rule:evenodd;fill:#0C3249;}
	.st3{opacity:0.4;fill-rule:evenodd;clip-rule:evenodd;fill:#6B6A6F;}
	.st4{fill:#FBAE3A;}
	.st5{fill:#C4C6C2;}
	.st6{fill:#E94250;}
	.st7{fill:#79CABD;}
	.st8{fill:#5DC6CF;}
	.st9{fill:#70C49A;}
	.st10{fill:#FFFFFF;}
	.st11{fill-rule:evenodd;clip-rule:evenodd;fill:#FFCA07;}
	.st12{fill-rule:evenodd;clip-rule:evenodd;fill:#F38020;}
	.st13{fill-rule:evenodd;clip-rule:evenodd;fill:#45525A;}
	.st14{fill-rule:evenodd;clip-rule:evenodd;fill:#D1743F;}
	.st15{fill-rule:evenodd;clip-rule:evenodd;fill:#E7E5E4;}
	.st16{fill-rule:evenodd;clip-rule:evenodd;fill:#BABBBD;}
	.st17{fill-rule:evenodd;clip-rule:evenodd;fill:#221F1F;}
	.st18{fill-rule:evenodd;clip-rule:evenodd;fill:#808182;}
	.st19{fill-rule:evenodd;clip-rule:evenodd;fill:#909295;}
	.st20{fill-rule:evenodd;clip-rule:evenodd;fill:#4EA08F;}
	.st21{fill-rule:evenodd;clip-rule:evenodd;fill:#303C44;}
	.st22{fill-rule:evenodd;clip-rule:evenodd;fill:#F3C79D;}
	.st23{fill-rule:evenodd;clip-rule:evenodd;fill:#EECFB2;}
	.st24{fill-rule:evenodd;clip-rule:evenodd;fill:#835223;}
	.st25{fill-rule:evenodd;clip-rule:evenodd;fill:#414242;}
	.st26{fill-rule:evenodd;clip-rule:evenodd;fill:#B5DDEC;}
	.st27{fill-rule:evenodd;clip-rule:evenodd;fill:#CF9D78;}
	.st28{fill-rule:evenodd;clip-rule:evenodd;fill:#D1ECF2;}
	.st29{fill-rule:evenodd;clip-rule:evenodd;fill:#57C5CE;}
	.st30{fill-rule:evenodd;clip-rule:evenodd;fill:#3E8277;}
	.st31{fill-rule:evenodd;clip-rule:evenodd;fill:#CBE6D2;}
	.st32{fill-rule:evenodd;clip-rule:evenodd;fill:#A1CC3A;}
	.st33{fill-rule:evenodd;clip-rule:evenodd;fill:#91B43E;}
	.st34{fill-rule:evenodd;clip-rule:evenodd;fill:#C1E6EB;}
	.st35{clip-path:url(#SVGID_2_);}
	.st36{fill-rule:evenodd;clip-rule:evenodd;fill:#435847;}
	.st37{fill-rule:evenodd;clip-rule:evenodd;fill:#657A81;}
	.st38{fill-rule:evenodd;clip-rule:evenodd;fill:#889DA9;}
	.st39{fill-rule:evenodd;clip-rule:evenodd;fill:#354148;}
	.st40{fill-rule:evenodd;clip-rule:evenodd;fill:#13123B;}
	.st41{clip-path:url(#SVGID_4_);}
	.st42{fill-rule:evenodd;clip-rule:evenodd;fill:#E6E7E9;}
	.st43{fill-rule:evenodd;clip-rule:evenodd;fill:#8CD5F6;}
	.st44{fill-rule:evenodd;clip-rule:evenodd;fill:#F8A771;}
	.st45{fill-rule:evenodd;clip-rule:evenodd;fill:#529F76;}
	.st46{fill-rule:evenodd;clip-rule:evenodd;fill:#262C38;}
	.st47{fill-rule:evenodd;clip-rule:evenodd;fill:#333A43;}
	.st48{fill:#97AAB7;}
	.st49{fill-rule:evenodd;clip-rule:evenodd;fill:#E3DFDE;}
	.st50{fill-rule:evenodd;clip-rule:evenodd;fill:none;stroke:#313D46;stroke-width:1.4173;stroke-miterlimit:22.9256;}
	.st51{fill-rule:evenodd;clip-rule:evenodd;fill:#B2BBC8;}
	.st52{fill-rule:evenodd;clip-rule:evenodd;fill:#DAE0E6;}
	.st53{fill-rule:evenodd;clip-rule:evenodd;fill:#212D3A;}
	.st54{fill-rule:evenodd;clip-rule:evenodd;fill:#313D46;}
	.st55{fill:#214287;}
	.st56{clip-path:url(#SVGID_6_);}
	.st57{fill-rule:evenodd;clip-rule:evenodd;fill:#E7D1A7;}
	.st58{fill-rule:evenodd;clip-rule:evenodd;fill:#454546;}
	.st59{fill-rule:evenodd;clip-rule:evenodd;fill:#C4C4C4;}
	.st60{fill-rule:evenodd;clip-rule:evenodd;fill:#D5B275;}
	.st61{fill-rule:evenodd;clip-rule:evenodd;fill:#CFD0D4;}
	.st62{fill-rule:evenodd;clip-rule:evenodd;fill:#555556;}
	.st63{fill-rule:evenodd;clip-rule:evenodd;fill:#E0BF86;}
	.st64{fill-rule:evenodd;clip-rule:evenodd;fill:#F6ECD9;}
</style>
<g>
	<g>
		<g>
			<circle class="st0" cx="306" cy="306" r="306"/>
		</g>
	</g>
	<g>
		<g>
			<path class="st1" d="M231.4,228.4H346c21.7,0,39.5,17.8,39.5,39.5l0,219.6c0,21.7-17.8,39.5-39.5,39.5H231.4
				c-21.7,0-39.5-17.8-39.5-39.5l0-219.6C191.8,246.2,209.6,228.4,231.4,228.4z"/>
			<rect x="203.2" y="259.6" class="st2" width="170.8" height="226"/>
			<path class="st3" d="M260,244.9h57.4c1.6,0,2.8-1.3,2.8-2.8v0c0-1.6-1.3-2.8-2.8-2.8H260c-1.6,0-2.8,1.3-2.8,2.8v0
				C257.1,243.6,258.4,244.9,260,244.9z"/>
			<circle class="st3" cx="288.7" cy="506.7" r="12.1"/>
			<path class="st4" d="M254,314.9c0,3.4-2.7,6.1-6.1,6.1h-25.8c-3.4,0-6.1-2.7-6.1-6.1v-25.8c0-3.4,2.7-6.1,6.1-6.1h25.8
				c3.4,0,6.1,2.7,6.1,6.1V314.9z"/>
			<path class="st5" d="M306,314.9c0,3.4-2.7,6.1-6.1,6.1h-25.8c-3.4,0-6.1-2.7-6.1-6.1v-25.8c0-3.4,2.7-6.1,6.1-6.1h25.8
				c3.4,0,6.1,2.7,6.1,6.1V314.9z"/>
			<path class="st6" d="M254,366c0,3.3-2.7,6-6,6H222c-3.3,0-6-2.7-6-6V340c0-3.3,2.7-6,6-6H248c3.3,0,6,2.7,6,6V366z"/>
			<path class="st7" d="M254,417c0,3.3-2.7,6-6,6H222c-3.3,0-6-2.7-6-6V391c0-3.3,2.7-6,6-6H248c3.3,0,6,2.7,6,6V417z"/>
			<path class="st8" d="M306,364.8c0,3.3-2.7,6-6,6H275c-3.3,0-6-2.7-6-6v-24.9c0-3.3,2.7-6,6-6h24.9c3.3,0,6,2.7,6,6V364.8z"/>
			<path class="st9" d="M358,364.8c0,3.3-2.6,7.2-5.9,7.2h-24.9c-3.3,0-7.2-3.9-7.2-7.2v-24.9c0-3.3,3.8-5.9,7.2-5.9h24.9
				c3.3,0,5.9,2.6,5.9,5.9V364.8z"/>
			<path class="st4" d="M306,417c0,3.3-2.7,6-6,6H274c-3.3,0-6-2.7-6-6V391c0-3.3,2.7-6,6-6H300c3.3,0,6,2.7,6,6V417z"/>
			<path class="st6" d="M359,288.2c0-3.4-2.8-6.2-6.2-6.2h-27.6c-3.4,0-6.2,2.8-6.2,6.2v27.6c0,3.4,2.8,6.2,6.2,6.2h27.6
				c3.4,0,6.2-2.8,6.2-6.2V288.2z"/>
		</g>
		<g>
			<g>
				<path class="st10" d="M288.7,329.5c-12.9,0-23.5,10.5-23.5,23.4c0,12.9,10.5,23.5,23.5,23.5c12.9,0,23.4-10.5,23.4-23.5
					C312.2,340.1,301.7,329.5,288.7,329.5z M288.7,375.7c-12.5,0-22.7-10.2-22.7-22.7c0-12.5,10.2-22.7,22.7-22.7
					c12.5,0,22.7,10.2,22.7,22.7C311.4,365.5,301.3,375.7,288.7,375.7z"/>
				<path class="st10" d="M288.7,304.7c-26.6,0-48.3,21.7-48.3,48.3c0,26.6,21.7,48.3,48.3,48.3c26.6,0,48.3-21.7,48.3-48.3
					C337,326.4,315.4,304.7,288.7,304.7z M288.7,400.5c-26.2,0-47.5-21.3-47.5-47.5c0-26.2,21.3-47.5,47.5-47.5
					c26.2,0,47.5,21.3,47.5,47.5C336.3,379.2,315,400.5,288.7,400.5z"/>
				<path class="st10" d="M288.7,308.9c-24.3,0-44.1,19.8-44.1,44.1c0,24.3,19.8,44.1,44.1,44.1c24.3,0,44.1-19.8,44.1-44.1
					C332.8,328.7,313.1,308.9,288.7,308.9z M288.7,396.3c-23.9,0-43.4-19.4-43.4-43.3c0-23.9,19.4-43.4,43.4-43.4
					c23.9,0,43.4,19.4,43.4,43.4C332.1,376.9,312.6,396.3,288.7,396.3z"/>
				<path class="st10" d="M288.7,284.5c-37.8,0-68.5,30.7-68.5,68.5c0,37.8,30.7,68.5,68.5,68.5c37.8,0,68.5-30.7,68.5-68.5
					C357.2,315.2,326.5,284.5,288.7,284.5z M288.7,420.7c-37.4,0-67.7-30.4-67.7-67.7c0-37.3,30.4-67.7,67.7-67.7
					c37.3,0,67.7,30.4,67.7,67.7C356.5,390.3,326.1,420.7,288.7,420.7z"/>
				<path class="st10" d="M359.8,377c2.6-7.5,3.9-15.6,3.9-24c0-1.9-0.1-3.8-0.2-5.7l126.3-3.2l0-0.7l-126.4,3.2
					c-0.9-10.6-4-20.8-9.2-30.1c5.7-3.5,94-87.3,95.9-88.6l-0.4-0.6c-1.9,1.2-90.6,85.3-95.9,88.6c-12.4-21.7-34.8-35.8-59.5-37.6
					l7-159.9l-0.7-0.1l-7,160c-1.6-0.1-3.3-0.2-5-0.2c-17.3,0-33.4,5.9-46.2,16l-105.8-92l-0.4,0.4l105.7,92
					c-14.9,11.8-25.2,29.2-27.7,49.3l-91.8,24.1l-0.2,1l91.8-24.1c-0.3,2.8-0.5,5.6-0.5,8.4c0,15.6,4.8,30.1,12.9,42.1l-2-3.4
					l0.5,0.6l2,3.4c13.6,19.5,36.1,32.3,61.6,32.3c32.7,0,60.5-21,70.8-50.3 M288.7,427.2c-40.9,0-74.3-33.3-74.3-74.2
					c0-2.9,0.2-5.9,0.5-8.9l0,0l0,0c4.5-37.2,36.2-65.3,73.7-65.3c26.8,0,51.6,14.5,64.7,37.8c6.2,11.1,9.5,23.7,9.5,36.4
					C363,393.9,329.7,427.2,288.7,427.2z"/>
			</g>
			<g>
				<path class="st1" d="M118,192.5h-7.7v-27.3H90.7v27.3c-12.7-0.1-22.9-8.9-22.9-19.7c0-10.9,10.3-19.7,23-19.7
					c1.4,0,2.9,0.1,4.2,0.3c0.2-10.7,10.4-19.4,23-19.4c12.6,0,22.8,8.6,23,19.4c1.4-0.2,2.8-0.3,4.2-0.3c12.7,0,23,8.8,23,19.7
					c0,9.1-7.2,16.7-16.9,19l-15.8-29l-16.2,29.7H118z"/>
				<polygon class="st11" points="108.1,167.5 108.1,196.5 115.7,196.5 100.5,221.2 85.3,196.5 92.9,196.5 92.9,167.5 				"/>
				<polygon class="st12" points="143.1,219.9 143.1,195.3 150.7,195.3 135.5,167.5 120.4,195.3 128,195.3 128,219.9 				"/>
			</g>
			<g>
				<path class="st13" d="M283.9,86l9.9-0.7c0.4,0,0.7,0.3,0.7,0.7l0.2,2.6c0,0.4-0.3,0.8-0.6,0.8l-9.9,0.7c-0.4,0-0.7-0.3-0.7-0.7
					l-0.2-2.6C283.2,86.4,283.5,86.1,283.9,86z"/>
				<g>
					<path class="st12" d="M283.2,89.7l66.4-4.7c4.3-0.3,8,2.9,8.3,7.2l2.8,38.8c0.3,4.3-2.9,8-7.2,8.3l-66.4,4.7
						c-4.3,0.3-8-2.9-8.3-7.2L276,98C275.7,93.7,278.9,90,283.2,89.7z"/>
					<path class="st14" d="M360.3,133.9c-0.9,2.9-3.6,5.2-6.9,5.4l-66.4,4.7c-3.3,0.2-6.2-1.6-7.5-4.4L360.3,133.9z"/>
					<path class="st15" d="M332.2,96.5l9.7-0.7c0.4,0,0.7,0.3,0.8,0.7l0.3,4.6c0,0.4-0.3,0.7-0.7,0.8l-9.7,0.7
						c-0.4,0-0.7-0.3-0.8-0.7l-0.3-4.6C331.5,96.9,331.8,96.6,332.2,96.5z"/>
					
						<ellipse transform="matrix(0.9975 -7.094138e-02 7.094138e-02 0.9975 -7.318 22.8698)" class="st16" cx="318.3" cy="114.5" rx="20" ry="20.2"/>
					
						<ellipse transform="matrix(0.9975 -7.096264e-02 7.096264e-02 0.9975 -7.32 22.8768)" class="st17" cx="318.3" cy="114.5" rx="16.2" ry="16.4"/>
					
						<ellipse transform="matrix(0.9975 -7.094141e-02 7.094141e-02 0.9975 -7.318 22.8698)" class="st1" cx="318.3" cy="114.5" rx="14.4" ry="14.6"/>
					
						<ellipse transform="matrix(0.9975 -7.095087e-02 7.095087e-02 0.9975 -7.3189 22.8729)" class="st18" cx="318.3" cy="114.5" rx="13.1" ry="13.2"/>
					<path class="st19" d="M317.4,101.3c2.1-0.2,4.2,0.2,6,1l-10.9,24c-4-2-6.9-6.1-7.2-10.9C304.7,108.1,310.2,101.8,317.4,101.3z"
						/>
					<g>
						
							<rect x="239.7" y="94.1" transform="matrix(0.1183 -0.993 0.993 0.1183 119.1296 366.7314)" class="st15" width="52.8" height="44.4"/>
						
							<rect x="241.7" y="96.1" transform="matrix(0.1183 -0.993 0.993 0.1183 119.1286 366.7307)" class="st20" width="48.8" height="40.4"/>
						<g>
							<path class="st13" d="M253.4,124.6c-2.4-0.3-4.6,1.5-4.9,4.1l-1.2,10l5.1,0.6l3.6,0.4l6.8,0.8l6.8,0.8l3.6,0.4l5.1,0.6
								l1.2-10c0.3-2.5-1.4-4.8-3.8-5.1c-2.7-0.3-8.1-2.7-10.9-3.7C261.9,123.9,256.1,124.9,253.4,124.6z"/>
							<polygon class="st21" points="252.5,139.2 252.9,139.3 253.6,133.1 253.2,133.1 							"/>
							
								<rect x="270.4" y="138.4" transform="matrix(0.1176 -0.9931 0.9931 0.1176 103.6582 393.8532)" class="st21" width="6.2" height="0.4"/>
							<path class="st22" d="M261.5,117.8l8,1l-0.9,7.7c-0.1,1.1-2,1.8-4.2,1.5c-2.2-0.3-3.9-1.4-3.7-2.5L261.5,117.8z"/>
							<path class="st23" d="M258.8,107c0,2.1-0.2,8.3-0.3,10.7c0,0.6,0.2,1.2,0.6,1.7l4.3,4.4l1.4,0.2l1.4,0.1l5.2-3.2
								c0.5-0.3,0.9-0.9,1-1.5c0.5-2.4,1.7-8.4,2.2-10.4L258.8,107z"/>
							
								<ellipse transform="matrix(0.1185 -0.993 0.993 0.1185 115.2667 356.2654)" class="st23" cx="258.3" cy="113.2" rx="2.4" ry="2.1"/>
							
								<ellipse transform="matrix(0.1183 -0.993 0.993 0.1183 126.9302 373.0086)" class="st23" cx="273.5" cy="115" rx="2.4" ry="2.1"/>
							<path class="st24" d="M260.2,105.7l-1.4,1.3c0,0-0.4,0.7-0.6,1.8c-0.2,1.1,0.5,2,0.5,2l0.4,4l0.6,0.1c0,0,0-3.5,0-4.2
								c0-0.7,1.2-4.1,1.2-4.1S260.1,105.8,260.2,105.7z"/>
							<path class="st24" d="M273.7,107.3l1,1.5c0,0,0.2,0.8,0.1,1.9c-0.1,1.1-0.9,1.8-0.9,1.8l-1.3,3.8l-0.6,0c0,0,0.9-3.4,1-4
								c0.2-0.7-0.2-4.3-0.2-4.3S273.8,107.4,273.7,107.3z"/>
							<path class="st25" d="M272.2,116.4L272.2,116.4c-0.5,0.7-1.6,0.9-2.5,0.8c-0.5-0.1-0.9-0.2-1.2-0.4c-0.8-0.5-1.5-2.2-1.2-3.2
								c0-0.2,0.1-0.3,0.3-0.5c0.1-0.1,0.2-0.2,0.3-0.2c0.6-0.3,1.5-0.3,2.3-0.2c1,0.1,2,0.3,2.3,0.5c0.3,0.3,0.4,1,0.2,1.7
								C272.6,115.4,272.4,116,272.2,116.4L272.2,116.4z M263,116.1L263,116.1c-0.3,0.1-0.7,0.1-1.2,0.1c-0.9-0.1-2-0.6-2.2-1.3
								c-0.3-0.7-0.3-1.9,0-2.7c0.1-0.3,0.3-0.5,0.5-0.6c0.2-0.1,0.5-0.1,0.9-0.1c0.4,0,0.9,0.1,1.5,0.1c0.5,0.1,1.1,0.2,1.5,0.4
								c0.5,0.2,0.8,0.4,1,0.7c0.1,0.1,0.1,0.2,0.1,0.4C265,114.2,263.9,115.8,263,116.1L263,116.1z M273.6,112.9L273.6,112.9
								c-0.3-0.1-2.1-0.5-3.4-0.6c-0.1,0-0.2,0-0.2,0c-1.2-0.1-2.7,0.2-3.8,0.1c-0.5,0-2.3-0.8-3.6-1.1c-0.1,0-0.2,0-0.3-0.1
								c-1.3-0.2-3-0.3-3.4-0.3c-0.4,0.1-0.4,0.1-0.5,0.4c-0.1,0.3,0,0.6,0.2,0.7c0.3,0.2,0.3,0.6,0.3,1.8c0.1,1.1,0.4,2,2.5,2.5
								c0.1,0,0.2,0,0.3,0.1c1.8,0.2,2.6-0.9,2.8-1.2c0.5-0.7,0.5-1.7,1.5-1.6c1,0.1,0.8,1.1,1.1,1.9c0.2,0.4,0.6,1.7,2.5,1.9
								c0.1,0,0.1,0,0.2,0c1.2,0.1,1.9-0.2,2.3-0.5c0.4-0.3,0.5-0.7,0.7-1.2c0-0.1,0-0.1,0.1-0.2c0.3-1,0.4-1.4,0.7-1.4
								c0.3-0.1,0.3-0.3,0.4-0.6C274,113.2,274,113.1,273.6,112.9z"/>
							<path class="st26" d="M263,116.1c1-0.3,2.1-1.9,2-3c0-0.1-0.1-0.3-0.1-0.4c-0.2-0.3-0.5-0.5-1-0.7c-0.5-0.2-1-0.3-1.5-0.4
								c-0.5-0.1-1.1-0.1-1.5-0.1c-0.4,0-0.7,0-0.9,0.1c-0.2,0.1-0.4,0.3-0.5,0.6c-0.3,0.8-0.3,2,0,2.7c0.3,0.7,1.3,1.2,2.3,1.3
								C262.2,116.2,262.6,116.2,263,116.1z"/>
							<path class="st26" d="M267.2,113.6c-0.3,1,0.4,2.7,1.2,3.3c0.3,0.2,0.7,0.3,1.2,0.4c0.9,0.1,2-0.1,2.5-0.7l0-0.1
								c0.3-0.4,0.5-1,0.6-1.6c0.1-0.7,0.1-1.4-0.2-1.7c-0.3-0.2-1.3-0.5-2.4-0.6c-0.9-0.1-1.8,0-2.4,0.3c-0.1,0.1-0.2,0.1-0.3,0.2
								C267.4,113.2,267.3,113.4,267.2,113.6z"/>
							<polygon class="st27" points="265.5,118.8 267.5,118.5 263.6,118 							"/>
							<path class="st27" d="M257.2,112.4c-0.2,0.4-0.2,2.1,0.1,2.3c0.2,0.2,0.9,0.2,0.9,0.2l0-0.9c0,0-0.3-0.1-0.3-0.4
								c0-0.3-0.1-0.5,0.1-0.6c0.2-0.1,0.2-0.3,0.3-0.4C258.4,111.4,257.5,111.7,257.2,112.4z"/>
							<path class="st27" d="M275.1,114.4c0.1,0.5-0.3,2.1-0.6,2.2c-0.3,0.1-0.9-0.1-0.9-0.1l0.2-0.9c0,0,0.3,0,0.3-0.3
								c0.1-0.3,0.2-0.5,0.1-0.6c-0.1-0.2-0.2-0.4-0.1-0.5C274.2,113.1,274.9,113.7,275.1,114.4z"/>
							<path class="st28" d="M261.6,116.1l2.2-4.1l0,0c-0.5-0.2-1-0.3-1.5-0.4c0,0,0,0-0.1,0l0,0l-2.1,3.9l0,0
								C260.5,115.9,261.1,116.1,261.6,116.1L261.6,116.1z"/>
							<path class="st28" d="M270.2,112.6l-2.1,3.8l0,0c0.1,0.1,0.2,0.2,0.3,0.3c0.3,0.2,0.7,0.3,1.2,0.4l0,0l2.3-4.2l0,0
								C271.5,112.8,270.9,112.7,270.2,112.6L270.2,112.6z"/>
							<path class="st27" d="M265.4,120.4c0.9,0.1,1.6,0,2-0.3c0,0,0,0,0,0c0.1,0,0.1,0,0.1-0.1c0,0,0,0,0-0.1l0,0h0
								c0,0-0.1-0.1-0.1-0.1c-0.1,0-0.1,0-0.1,0.1C267.1,120.3,266.3,120.4,265.4,120.4c-0.9-0.2-1.6-0.5-1.8-0.9
								c0-0.1,0-0.1-0.1-0.1c-0.1,0-0.1,0-0.1,0.1c0,0.1,0,0.1,0.1,0.2c0,0,0,0,0,0C263.8,120,264.5,120.3,265.4,120.4z"/>
							<g>
								<g>
									<path class="st23" d="M273.6,108.8l-14.3-1.7c0,0.4,0.9,1.3,1,1.5c0,0,3.7,0.2,7.4,0.6
										C270.5,109.4,272.2,109.3,273.6,108.8z"/>
									<path class="st24" d="M260.2,105.7l-0.8,0.7c-0.1,0.2-0.1,0.4-0.2,0.6c-0.1,0.4,0.9,1.3,1,1.5h0c0.3-1,0.6-1.8,0.6-1.8
										S260.1,105.8,260.2,105.7z"/>
									<path class="st24" d="M273.7,107.3l0.7,1c-0.5,0.3-0.9,0.5-1.5,0.7c0-0.5-0.1-0.9-0.1-0.9S273.8,107.4,273.7,107.3z"/>
								</g>
								<g>
									<path class="st22" d="M272.3,126.4c-2.6-0.9-5.6-2.1-7.4-2.8c-2,0.2-5.4,0.7-8.1,1c0,0.1,0,0.1,0,0.2
										c-0.3,2.5,3,4.9,7.3,5.4c4.3,0.5,8-1.1,8.3-3.5C272.3,126.5,272.3,126.4,272.3,126.4z"/>
									<path class="st22" d="M269.1,122.4l-0.5,4.1c-0.1,1.1-2,1.8-4.2,1.5c-2.2-0.3-3.9-1.4-3.7-2.5l0.5-4.2
										c1.2-0.2,2.5-0.3,3.9-0.1C266.6,121.4,267.9,121.8,269.1,122.4z"/>
									<path class="st23" d="M261.1,121.3l2.3,2.4l1.4,0.2l1.4,0.1l2.7-1.7c-1.1-0.6-2.5-1-4-1.1
										C263.7,121.1,262.3,121.1,261.1,121.3z"/>
								</g>
							</g>
							<path class="st24" d="M260.2,108.5c-0.1-0.2-1.1-1.1-1-1.5c0.1-0.4,0.5-2,1.7-3c1.2-1,3.8-1.5,5.4-1.2c1.6,0.3,4.5,1.5,7,2.1
								c2.5,0.6,4.1,0.3,4.1,0.3s-1.2,1.7-2.8,2.9c-1.6,1.2-3.3,1.4-7,1C263.9,108.7,260.2,108.5,260.2,108.5z"/>
						</g>
					</g>
					<g>
						
							<rect x="251.7" y="124.9" transform="matrix(0.9792 -0.203 0.203 0.9792 -23.3189 58.4165)" class="st15" width="42.7" height="36"/>
						
							<rect x="253.3" y="126.5" transform="matrix(0.9792 -0.2031 0.2031 0.9792 -23.3252 58.4386)" class="st29" width="39.5" height="32.7"/>
						<polygon class="st30" points="295.7,154.9 257,162.9 253.8,147.3 263.6,136.9 276.6,143.6 284.8,131.2 291.6,135.2 						"/>
						<path class="st31" d="M255.2,145.8l8.5-8.9l7.3,3.8l-3.9-1.2c0,0,1.5,7.3,1.7,7.6c0.2,0.3-4.4-5.9-4.4-5.9l-2.5,7.2l0.7-7.8
							l-7.7,7.2L255.2,145.8L255.2,145.8z M278.2,141.3l6.6-10.1l6.8,3.9l0.4,1.9c-1.8-1-3.5-2.1-3.5-2.1l2,5.9l-5.5-6.7l-2,9
							l-0.6-6.5l-3.8,6.7L278.2,141.3z"/>
						<path class="st32" d="M295.7,154.9l-38.7,8l-1.4-6.9c5.7-2.6,13.3-5,21.8-6.8c5.9-1.2,11.6-2,16.7-2.3L295.7,154.9z"/>
						<path class="st33" d="M295.7,154.9l-38.7,8l-0.4-2c6-2.8,13.2-5.4,21.1-7.7c5.9-1.6,11.6-2.9,16.8-3.7L295.7,154.9z"/>
					</g>
				</g>
			</g>
			<ellipse class="st34" cx="474.6" cy="185.5" rx="41.7" ry="42"/>
			<g>
				<defs>
					<ellipse id="SVGID_1_" cx="474.6" cy="187.4" rx="41.7" ry="42"/>
				</defs>
				<clipPath id="SVGID_2_">
					<use xlink:href="#SVGID_1_"  style="overflow:visible;"/>
				</clipPath>
				<g class="st35">
					<g>
						<path class="st36" d="M476.8,152.4c-0.2,0.1-0.8,1-1.1,0.2c0-0.1,0.2,0,0.3,0C476.3,152.5,476.8,152.4,476.8,152.4z"/>
						<path class="st36" d="M467,147.6c-0.4,0.1-0.7,0.2-1.1,0.4c-0.1,0,0.3,0,0.2,0c-0.3,0.1-0.7,0.3-1,0.3c-0.2,0-0.3-0.1-0.5-0.1
							c-0.1,0-0.5,0-0.4,0C465.1,147.5,466.1,147.6,467,147.6z"/>
						<path class="st36" d="M467.9,148.5c-0.2,0.3-0.2,0.7-0.5,0.8c-0.8,0.1-1.5-0.3-2.3-0.4c-0.9-0.1,1,0.4-1.2,0.4
							c-0.2,0,0-0.4-0.2-0.4c-0.5-0.3-1.1,1.1-1.3,0.3c0-0.1,0.2,0,0.2,0c0.1-0.1,0.3-0.1,0.4-0.2c0.1-0.2-0.1-0.4,0.1-0.6
							c0.1-0.1,0.3,0,0.4,0c0.2,0,0.6-0.3,0.6-0.1c0,0.2-0.6,0.2-0.6,0.5c0,0.2,0.4,0,0.6,0c0.2,0,0.3-0.2,0.5-0.3
							c0.1,0,0.1-0.1,0.2-0.2c0.3-0.1,0.6-0.1,0.8-0.1c0.2,0,0.3-0.1,0.5-0.1c0.3,0.1-1.7,1-0.7,0.4c0.3-0.2,0.6-0.4,1-0.4
							c0.2,0,0.4,0.1,0.5,0.1c0.2-0.1,0.3-0.4,0.5-0.4c0.2,0,0.6,0.1,0.5,0.3c0,0.2-0.6,0.1-0.7,0.4
							C467.2,148.6,467.9,148.5,467.9,148.5z"/>
						<path class="st36" d="M485.4,149.1c-0.4-0.2-1-0.1-1.3-0.5c-0.2-0.2,0.5-0.2,0.8-0.1C485.1,148.6,485.4,149.1,485.4,149.1z"/>
						<path class="st36" d="M466.2,147.1c-0.2,0-0.7-0.1-0.7-0.1S465.9,147,466.2,147.1z"/>
						<path class="st36" d="M466.3,146.6c-0.1,0-0.2,0.1-0.3,0c0-0.1,0.1-0.1,0.2-0.1C466.3,146.5,466.3,146.6,466.3,146.6z"/>
						<path class="st36" d="M474.6,153c0.2-0.1,0.3-0.3,0.5-0.2c0.2,0.1,0.3,0.6,0.5,0.5c0.2-0.1-0.2-0.5-0.1-0.7
							c0-0.1,0.3,0.1,0.3,0.2c0,0.1-0.1,0.2,0,0.2c0.2,0.2,0.6,0.1,0.8,0.3c0.1,0.1-0.3,0.1-0.4,0.2c0,0.1,0.1,0.1,0.1,0.2
							c-0.1,0.3-0.2,0.7-0.4,1c-0.1,0.1-0.2-0.1-0.2-0.2c0-0.1,0.3,0,0.2-0.1c-0.1-0.1-1.1,0-0.7-0.6c0.1-0.2,0.9-0.1,0.7-0.2
							c-0.2-0.2-0.5,0.2-0.8,0.2c-0.1,0,0.1-0.1,0-0.2C474.9,153.3,474.6,153,474.6,153z"/>
						<path class="st36" d="M466.3,146.1c-0.2-0.1-0.6,0.1-0.7-0.2c-0.1-0.2,0.4-0.2,0.6-0.2C466.3,145.8,466.3,146.1,466.3,146.1z"
							/>
						<path class="st36" d="M463.8,147.4c-0.1,0.1-0.2,0.3-0.3,0.2c-0.1,0-0.4-0.3-0.3-0.4c0.1-0.1,0.4,0,0.6,0
							C463.8,147.3,463.8,147.4,463.8,147.4z"/>
						<path class="st36" d="M463.2,148.1c-0.2,0.1-0.3,0.2-0.5,0.3c-0.2,0.1-0.5,0-0.7,0.1c-0.2,0.2,0,0.6-0.2,0.8
							c-0.1,0.1-0.3,0.3-0.3,0.1c-0.5-1.6,0.5-1,1.5-1.4c0.2-0.1,0.4-0.4,0.6-0.4C463.8,147.7,463.2,148.1,463.2,148.1z"/>
						<path class="st36" d="M464.7,146.5c-0.5,0.3-0.6,0.5-1.2,0c-0.1-0.1,0.3,0.1,0.4,0.1c0.3-0.1,0.6-0.4,0.9-0.5
							C465,146.1,464.7,146.5,464.7,146.5z"/>
						<path class="st36" d="M484.6,146.1c-0.1,0.1-0.2,0.2-0.4,0.2c-0.2,0-0.9-0.4-0.9-0.5c0-0.2,0.4,0,0.6,0.1
							C484.2,145.9,484.6,146.1,484.6,146.1z"/>
						<path class="st36" d="M484.9,154c-0.1-0.1-0.2-0.3-0.3-0.4c-0.1-0.1-0.2-0.1-0.2-0.2c-0.2-0.7,0.4-0.8,0.9-1.1c0,0,0,0,0,0
							c0,0.3-0.1,0.6-0.1,0.9c0,0,0,0.1,0,0.1c0.1,0.2,0.4,0.4,0.3,0.5c0,0.1-0.3,0.1-0.2,0.1c0.1,0.2,0.4,0.1,0.4,0.3
							c0,0.3-0.1,0.8-0.3,0.7C484.9,154.8,484.9,154,484.9,154z"/>
						<path class="st36" d="M462,147.3c0.1-0.1,0.3-0.2,0.3-0.2S462,147.2,462,147.3z"/>
						<path class="st36" d="M461.3,148.1c-0.4,0.2-0.8,0.4-1.2,0.5c-0.2,0,0.2-0.3,0.4-0.4C460.8,148,461,148.1,461.3,148.1z"/>
						<path class="st36" d="M488.2,147.7c-0.3-0.1-0.6-0.1-0.8-0.3c-0.1,0,0-0.2,0.1-0.2C487.7,147.4,488.2,147.7,488.2,147.7z"/>
						<path class="st36" d="M464.5,146c-0.3,0.1-0.7,0.4-1,0.4c-0.2,0-0.2-0.4,0-0.5c0.2-0.2,1.5-0.3,1.7,0.1
							C465.1,146,464.5,146,464.5,146z"/>
						<path class="st36" d="M461.8,147.6c-0.3,0.1-0.6,0.2-0.9,0.3c-0.1,0-0.4,0-0.4-0.1C460.8,147.3,461.4,147.5,461.8,147.6z"/>
						<path class="st36" d="M485.7,156.1c-0.4-0.9-0.9-1.2,0.1-1.3c0,0-0.1,0.1-0.1,0.1c0.1,0.3,0.4,0.6,0.6,0.7
							c0.2,0.1,0.4,0.2,0.7,0.3c0.2,0.1,0.4,0,0.6,0.1c0.4,0.3-0.4,0.2-0.5,0.2C486.7,156.2,485.7,156.1,485.7,156.1z"/>
						<path class="st36" d="M458.4,158.8c-0.1-0.1-0.1-0.2-0.2-0.3c0-0.1,0-0.2-0.1-0.2c-0.2,0.1-0.4,0.4-0.6,0.5
							c-0.1,0-0.1-0.2-0.2-0.2c-0.1,0-0.1,0.1-0.1,0.1c-0.2,0-0.5-0.1-0.7,0c-0.2,0.1-0.2,0.5-0.4,0.6c-0.1,0.1-0.2-0.2-0.3-0.1
							c-0.1,0.1,0,0.4-0.2,0.5c-0.1,0.1,0-0.3-0.1-0.3c-0.4,0.2-0.8,0.6-1.2,0.8c-0.2,0.1-0.3,0.3-0.5,0.4c0,0,0-0.1-0.1-0.1
							c-0.1,0.1-0.1,0.3-0.3,0.4c-0.1,0-0.1-0.2-0.1-0.1c-0.3,0.2-0.4,0.7-0.8,0.8c-0.2,0.1-0.6-0.3-0.4-0.4c0.1,0,0.9-0.3,0.7-0.7
							c0-0.1-0.3,0.1-0.4,0c-0.2-0.1-0.4-0.2-0.5-0.4c0-0.1,0.2,0,0.2,0c0.1-0.1,0.1-0.2,0.1-0.3c0-0.1-0.1-0.1-0.1-0.2
							c0-0.3,0.2-0.1,0.3,0c0,0-0.1,0-0.1-0.1c0.1-0.1,0.3-0.2,0.4-0.3c0,0,0-0.1,0-0.1c0-0.1-0.1-0.2,0-0.3c0,0,1-0.8,1-0.9
							c0-0.1-0.2,0-0.2,0c0.2-0.2,0.4-0.4,0.6-0.6c0.1-0.1,0.2-0.3,0.4-0.4c0.2-0.1,0.5,0.3,0.6,0.1c0.1-0.2-0.2-0.4-0.2-0.6
							c0-0.1,0.2,0,0.3,0c0.2,0,0.5-0.1,0.7-0.1c0.1,0,0.2,0.1,0.3,0.1c0.1,0-0.2-0.2-0.3-0.1c-0.3,0-0.5,0-0.8,0.1
							c-0.1,0,0.1,0,0.2,0c0.2-0.2,0.3-0.5,0.5-0.5c0.2,0,0.3,0.6,0.5,0.5c0.2-0.1-0.5-0.3-0.4-0.6c0.1-0.2,0.4,0,0.6-0.1
							c0.1,0,0.1-0.3,0.1-0.2c0.2,0.1,0.2,0.6,0.3,0.5c0.2-0.1-0.3-0.5-0.1-0.7c0.1-0.1,0.3,0.3,0.5,0.2c0.4-0.1,0.9-0.3,1.2-0.6
							c0.1-0.1-0.3-0.2-0.2-0.3c0.2-0.1,0.4,0,0.6,0c0,0-0.2,0-0.1,0c0.1-0.2,0.2-0.3,0.4-0.4c0.3-0.2,1.1-0.1,0.9-0.8
							c-0.1-0.2-0.9,0.2-0.8,0c0.3-0.3,0.8-0.2,1.2-0.4c0,0-0.1-0.1,0-0.1c0.1-0.1,0.3-0.2,0.4-0.3c0.2-0.1,0.4-0.1,0.5-0.3
							c0.2-0.1,0.3-0.3,0.5-0.5c0.5-0.4,0.2,0.2,0.7-0.5c0.5-0.7-0.1-0.2-0.3-0.8c0-0.1,0.2-0.1,0.3-0.2c0.2-0.1,0.3-0.3,0.5-0.3
							c0.2,0,0.3,0.3,0.5,0.3c0.1,0,0.2,0,0.2-0.1c-0.1-0.1-0.2-0.1-0.3-0.1c0,0,0.2-0.5,0.9-0.5c0.9,0,0.4,0.6,1.1,0.3
							c0.8-0.3,0-0.6,1.4-0.3c0.2,0,0.3,0.4,0.4,0.4c0.2,0,0.4-0.4,0.6-0.3c0.5,0.2-0.5,1,0.5,0.8c0.3,0,0.4-0.4,0.7-0.4
							c0.2,0,0.3,0.3,0.5,0.3c0.6-0.1,1-0.4,1.4,0.2c0,0.1-0.1,0-0.2,0c-0.2,0-0.3-0.2-0.5-0.2c-0.1,0-0.6,0-0.4,0.1
							c0.4,0.1,0.8,0,1.1,0.2c0.1,0,0.1,0.3,0.1,0.4c-0.1,0.1-0.4,0.1-0.5,0.1c-0.2,0-0.4-0.2-0.7-0.2c-0.2,0-0.5,0-0.4,0.2
							c0.1,0.2,0.4-0.1,0.6,0c1,0.5,0,0.6-0.4,0.8c-0.1,0,0.1,0,0.2-0.1c0.1,0,0.2-0.1,0.2-0.1c0.4,0,0.8,0,1.2,0.2
							c0.1,0.1-0.3,0.1-0.4,0.1c-0.3,0.1-0.7,0.2-1,0.3c-0.1,0,0.4-0.2,0.3-0.1c-0.1,0-1.6,1-1.6,1.1c-0.1,0.2,0.3,0.4,0.3,0.6
							c0,0.1-0.1,0.1-0.2,0.1c-0.2,0-0.4-0.3-0.7-0.3c-0.1,0,0,0.2,0,0.2c0,0.3,0.1,0.6-0.1,0.8c-0.2,0.2-0.6-0.3-0.7,0
							c-0.1,0.2,0.5,0.4,0.4,0.6c-0.1,0.2-0.4-0.4-0.6-0.3c-0.2,0.1,0,0.6-0.2,0.8c-0.7,0.7-0.5-0.4-0.6-0.5
							c-0.1-0.1-0.2,0.1-0.2,0.1c-0.2,0-0.5-0.3-0.7-0.2c-0.2,0.2-0.1,0.5-0.2,0.8c0,0.1-0.2,0.2-0.2,0.2c0.1,0,0.3-0.2,0.4-0.1
							c0.6,0.4-0.2,1.3-0.3,1.5c0,0.1-0.2,0-0.2,0c0-0.1,0.3-0.2,0.2-0.3c-0.1-0.1-0.1,0.2-0.2,0.3c-0.3,0.1-0.3-0.5-0.4-1.1
							c0-0.2-0.1-0.7,0-0.5c0.8,1.4,0.1,0.5-0.5,0.8c-0.1,0.1,0.1,0.3,0,0.4c-0.2,0.1-0.9-0.1-0.7,0c0.4,0.4,1.1,0.3,1.5,0.7
							c0.2,0.1-0.4,0.2-0.6,0.2c-0.1,0-0.1-0.1-0.2-0.1c-0.3,0.1-0.5,0.3-0.8,0.4c-1.2,0.4-0.2-0.5-1.9-0.6c-0.2,0-0.2,0.4-0.4,0.5
							c-0.1,0.1-0.2-0.1-0.4,0c-0.1,0-0.1,0.1-0.2,0.2c0,0-0.1,0-0.1,0c-0.2,0.1-0.4,0.3-0.7,0.4
							C458.9,158.8,458.4,158.8,458.4,158.8z"/>
						<path class="st36" d="M459.2,153.7C459,153.7,458.8,153.7,459.2,153.7C459.3,153.7,459.2,153.7,459.2,153.7z"/>
						<path class="st36" d="M462.8,146.4c-0.3,0.2-0.6,0.4-1,0.5c-0.2,0.1-0.5,0.1-0.7,0.2c0,0,0.1,0,0.1,0c0.3,0,0.6-0.1,1-0.2
							c0,0,0.2-0.1,0.1,0c-0.8,0.5-1.8,0.4-2.6,0.8c-0.2,0.1-0.9,0.6-1.2,0.3c-0.1-0.1,0.3-0.2,0.4-0.3c0.2-0.1,0.4-0.1,0.6-0.2
							c0.2-0.2,0.3-0.5,0.5-0.6c0.1-0.1,0.3,0,0.5-0.1c0.2-0.1,0.5-0.2,0.7-0.3c0.2-0.1,0.6-0.3,0.5-0.1c-0.2,0.3-0.7,0.3-0.9,0.6
							c-0.2,0.2,0.4-0.2,0.7-0.3c0.2-0.1,0.4-0.3,0.6-0.3c0.2-0.1,0.4,0,0.6-0.1c0.1,0,0.3-0.2,0.3-0.1
							C463,146.2,462.8,146.4,462.8,146.4z"/>
						<path class="st36" d="M458.4,154c-0.3,0.2-0.5,0.4-0.8,0.6c-0.1,0,0-0.1,0.1-0.2C457.9,154.3,458.4,154,458.4,154z"/>
						<path class="st36" d="M457.1,150.7c-0.1,0-0.1,0.1-0.2,0.1C456.8,150.8,457,150.6,457.1,150.7z"/>
						<path class="st36" d="M458.5,148.4c-0.3,0.1-0.5,0.2-0.8,0.4c-0.1,0.1-0.4,0.3-0.4,0.2c0.2-0.2,0.4-0.4,0.6-0.5
							C458.2,148.3,458.4,148.4,458.5,148.4z"/>
						<path class="st36" d="M476,160.4c-0.4,0,0.1-0.2,0.2-0.1C476.2,160.3,476.1,160.4,476,160.4C476.1,160.4,476,160.4,476,160.4z
							"/>
						<path class="st36" d="M475.5,160.8c0.1,0,0.1-0.1,0.2-0.1C475.8,160.7,475.5,160.8,475.5,160.8z"/>
						<path class="st36" d="M455.8,153.1c-0.1,0.1-0.4,0.2-0.4,0.3c0,0.1,0.4-0.2,0.3-0.1c-0.1,0.3-0.4,0.4-0.6,0.7
							c-0.2,0.2-0.2,0.5-0.4,0.7c0,0,0-0.2-0.1-0.1c-0.3,0.1-1,0.6-1.5,0.6c-0.1,0,0.2-0.1,0.2-0.2c0.1-0.1,0.1-0.2,0.2-0.2
							c0.2-0.1,0.6-0.1,0.7-0.4c0.1-0.2,0-0.6-0.2-0.7c-0.3,0-0.4,0.3-0.6,0.5c-0.3,0.3-0.3,0.2-0.6,0.4c-0.4,0.4-0.8,1-1.4,1.2
							c-0.1,0-0.2,0-0.3,0.1c-0.2,0-0.5,0.3-0.6,0.2c-0.1-0.2,0.1-0.5,0.2-0.7c0.1-0.1,0.3-0.2,0.4-0.4c0.1-0.1,0.1-0.3,0.2-0.5
							c0.2-0.3,0.7-0.5,0.9-0.9c0.2-0.2,0.3-0.9,0.5-1c0.1-0.1,0.3,0.1,0.3,0.2c0,0.2-0.5,0.1-0.4,0.3c0.2,0.2,0.6,0.2,0.9,0.2
							c0.2,0,0.4,0.2,0.5,0.1c0.2-0.2,0-0.5,0.1-0.7c0.1-0.1,0.3,0,0.4-0.1c0.3-0.1,0.6-0.3,0.8-0.5c0.2-0.2,0.2-0.5,0.4-0.7
							c0.1-0.2,1.7-0.6,1.7-0.9c0-0.2-0.6,0.2-0.7,0c-0.1-0.2,0.4-0.2,0.6-0.4c0.1-0.2,0.1-0.4,0.2-0.6c0.1-0.3,0.5-0.3,0.8-0.4
							c0.6-0.3,1.2-0.3,1.8,0c0.2,0.1-0.4-0.1-0.6,0c-0.5,0.1-1,0.2-1.5,0.4c-0.1,0,0,0.2,0.1,0.2c0.6-0.1,0.8-0.5,1.4-0.5
							c0.2,0,0.5,0.1,0.5,0.3c0,0.2-0.3,0.2-0.5,0.2c-0.3,0.1-0.8,0-1,0.3c-0.1,0.2,0.6,0,0.6,0.2c0.1,0.2-0.3,0.3-0.4,0.4
							c-0.1,0-0.1-0.1-0.2-0.1c-0.3,0.1-0.5,0.2-0.7,0.4c-0.1,0.1-0.3,0.2-0.2,0.3c0.1,0.1,0.6-0.1,0.5,0c-0.4,0.3-0.9,0.2-1.3,0.6
							c-0.2,0.2,0.7-0.3,0.7-0.1c0.1,1-0.9,0.2-1.1,0.4c-0.1,0.1,0.1,0.4-0.1,0.5c-0.1,0.1-0.3-0.3-0.5-0.2
							C456,152.6,455.8,153.1,455.8,153.1z"/>
						<path class="st36" d="M454.4,151.1c-0.1,0-0.3,0.2-0.3,0.1C454.1,151.1,454.3,151.1,454.4,151.1
							C454.4,151.1,454.4,151.1,454.4,151.1z"/>
						<path class="st36" d="M461.3,162.3c-1.1-1.1,0.1-1,0.7-1.2c0.1,0-0.1,0-0.2-0.1c-0.2-0.1-0.5-0.2-0.7-0.3
							c-0.1,0,0.2,0.1,0.2,0.1c0.3-0.1,0.4-0.5,0.7-0.6c0.2,0,0.3,0.3,0.3,0.5c0,0.2-0.3,0.4-0.3,0.7c0,0.1,0.1-0.2,0.3-0.3
							c0,0,0,0.1,0.1,0.1c0.1,0,0.1-0.1,0.2-0.1c0.1,0,0.2,0.1,0.3,0c0.1,0,0.1-0.3,0.2-0.2c0.2,0.1,0.1,0.4,0.3,0.4
							c0.5,0.1,1.6-0.6,1.5,0.5c0,0.2-0.3,0.2-0.4,0.3c-0.1,0.1-0.2,0.4-0.4,0.5c-0.1,0.1-0.2-0.1-0.3-0.1c-0.5,0.1-0.9,0.4-1.4,0.4
							c-0.3,0-0.5-0.1-0.7-0.3C461.5,162.6,461.3,162.3,461.3,162.3z"/>
						<path class="st36" d="M453.4,151.8c-0.3,0.2-0.5,0.3-0.8,0.5c-0.2,0.1-0.3,0.5-0.5,0.4c-0.2-0.1,0-0.4,0.1-0.6
							c0.5-1,0.3-0.3,0.8-0.5c0.4-0.1,0.8-0.3,1.2-0.5c0,0,0.1,0,0.1,0c-0.2,0.1-0.4,0.2-0.6,0.3
							C453.6,151.5,453.4,151.8,453.4,151.8z"/>
						<path class="st36" d="M452,153.4c0-0.1,0.1-0.2,0.1-0.2S452,153.3,452,153.4z"/>
						<path class="st36" d="M451.9,153.3c0.1-0.1,0.2-0.2,0.2-0.2S451.9,153.2,451.9,153.3z"/>
						<path class="st36" d="M465,168.9c0,0.1-0.1,0.1-0.1,0.2c0,0,0,0,0-0.1C464.9,169,465,168.9,465,168.9z"/>
						<path class="st36" d="M475.5,171.3c-0.2,0.3-0.4,0.7-0.7,0.8c-0.2,0.1-0.2-0.3-0.2-0.5c0-0.1,0.2,0,0.3,0
							C475.1,171.5,475.5,171.3,475.5,171.3z"/>
						<path class="st36" d="M473.9,172.2c0,0,0,0.1,0,0.1S473.9,172.3,473.9,172.2z"/>
						<path class="st36" d="M473,172.5c0.1,0,0.2,0,0.2-0.1c0-0.1-0.1,0-0.2,0C473,172.5,473,172.5,473,172.5z"/>
						<path class="st36" d="M466.3,168.3c0.3,0.1,0.7,0.1,0.9,0.4c0.2,0.4-1.2,0.5-0.8,0.7c0.4,0.2,1-0.1,1.3,0.2
							c0.6,0.9-1.4,0.7-1.3,1.2c0,0.1,0.2,0.1,0.4,0.1c0.2,0.1,0.5,0.3,0.7,0.4c0,0,0,0.1,0,0.2c0.1,0.3,0.3,0.6,0.4,1
							c0.1,0.2,0.1,0.5,0.2,0.7c0.1,0.3,0,0.6,0.2,0.8c0.2,0.3,0.8-0.1,0.7,0.5c-0.3,1-0.4,0.2-1,0.9c-0.2,0.2-0.1,0.5-0.2,0.7
							c0,0-0.1-0.1-0.1-0.1c-0.3-0.1-0.6-0.3-0.9-0.2c-0.3,0-0.4,0.3-0.7,0.3c-0.2,0-0.4-0.3-0.6-0.3c-0.2,0-0.1,0.4-0.2,0.4
							c-0.1,0-0.2-0.1-0.3-0.2c-0.4-0.3-0.9-0.5,0.2-0.8c0.2-0.1,0.5,0.2,0.7,0.1c0.2-0.1,0.6-0.3,0.5-0.5c-0.1-0.2-0.4,0.3-0.6,0.3
							c-0.2,0-0.4-0.3-0.6-0.4c-0.2-0.1-0.6-0.1-0.6-0.3c0.1-0.2,0.5-0.1,0.7-0.3c0.8-0.4-0.3-0.2-0.1-0.6c0.2-0.8,0.9-0.2,1.3-0.3
							c0.1,0-0.1-0.1-0.2-0.2c-0.1-0.4-0.1-0.8-0.2-1.2c-0.1-0.2-0.2-0.5-0.2-0.7c0-0.2,0.1-0.5,0-0.8c-0.1-0.1-0.3,0.1-0.3,0.2
							c-0.2,0.2-0.3,0.4-0.4,0.6c-0.1,0.2,0.3-0.3,0.3-0.5c0,0-0.1,0-0.1,0c0-0.3,0.5-0.4,0.5-0.7c0-0.1-0.4,0.3-0.4,0.1
							c0-0.2,0.2-0.4,0.3-0.5c0-0.1,0.1-0.2,0.1-0.3c0-0.1-0.2-0.3-0.1-0.4c0.1-0.1,0.3,0.2,0.4,0.1
							C466.2,168.8,466.3,168.3,466.3,168.3z"/>
						<path class="st36" d="M464.5,172.3c0,0-0.1,0.1-0.1,0.1c0,0.1,0.1,0.2,0.1,0.4c-0.1,0.4-0.3,0.9-0.5,1.3
							c-0.1,0.1-0.2,0-0.3-0.1c-0.7-0.1-1.4-0.3-2-0.4c-0.1,0,0.3,0.1,0.4,0c0.2-0.1,0.7,0,0.7-0.3c0-0.2-0.7,0.2-0.7-0.1
							c0-0.3,0.7-0.2,0.8-0.5c0.3-2-1.8,1.4-0.4-1c0.3-0.5,0.5,0.1,0.9,0.1c0,0,1-0.9,1.4-0.8c0.2,0.1,0.4,0.3,0.3,0.5
							C464.9,172,464.5,172.3,464.5,172.3z"/>
						<path class="st36" d="M465.4,173.1C465.3,173.1,465.3,173.2,465.4,173.1C465.3,173.2,465.3,173.1,465.4,173.1z"/>
						<path class="st36" d="M471.2,174.1c-0.1,0.2,0,0.5-0.2,0.6c-0.2,0.1,0-0.3,0-0.5C471,174.2,471.2,174.1,471.2,174.1z"/>
						<path class="st36" d="M444.6,164.2c-0.3,0.2-1.4,0.9-1.4,1c-0.1,0.2-0.2,0.5-0.1,0.8c0.1,0.2,0.4,0.2,0.4,0.4
							c0,0.1-0.3,0-0.4,0.1c-0.1,0.1,0.1,0.2,0,0.2c-0.1,0.1-0.3-0.1-0.3,0c0,0.1,0.3,0.1,0.3,0.2c-0.1,0.4-1.2-1.2-0.7,0.5
							c0,0.2,0.3-0.2,0.5-0.2c0.1,0.1-0.3,0.1-0.4,0.2c0,0,0,0.1-0.1,0.2c-0.1,0.2-0.2,0.4-0.4,0.5c0,0-0.1-0.1-0.1-0.2
							c0.1-0.2,0.2-0.2,0.3-0.4c0.1-0.2,0.3-0.4,0.3-0.7c0-0.1-0.2,0.2-0.3,0.3c-0.1,0.1-0.3,0.1-0.5,0.1c-0.1,0-0.1-0.2,0-0.3
							c0.2-0.2,0.5-0.3,0.6-0.6c0-0.1-0.3,0.1-0.4,0c-0.4-0.6,0.2-0.7,0.4-1.1c0-0.1-0.1-0.2-0.1-0.3c0-0.1,0.2-0.1,0.2,0
							c0,0.1-0.2,0.2-0.1,0.2c0.3-0.1,1.1-0.7,1.4-0.9c0.2-0.1,0.3-0.3,0.5-0.3C444.4,164.1,444.5,164.2,444.6,164.2z"/>
						<path class="st36" d="M441.2,165.9c-0.2,0.2-0.6,0.2-0.7,0.5c-0.1,0.1,0.1,0.3,0.2,0.3C441,166.5,441.2,165.9,441.2,165.9z"/>
						<path class="st36" d="M490.2,179.2c0.3,0.1,0.7,0.2,1,0.3c0.1,0-0.2,0-0.2-0.1C490.7,179.4,490.2,179.2,490.2,179.2z"/>
						<path class="st36" d="M477.4,182.6c0.1,0.1,0.4,0.4,0.4,0.4S477.5,182.7,477.4,182.6z"/>
						<path class="st36" d="M473.4,184.4c-0.2,0.4-0.3,1-0.6,1.3c-0.2,0.1-0.2-0.5-0.1-0.7c0.1-0.2,0.4-0.2,0.6-0.3
							C473.4,184.7,473.4,184.4,473.4,184.4z"/>
						<path class="st36" d="M473.3,186.2c0.2,0.3,0.4,0.5,0.4,0.8c0,0.1-0.1,0.2-0.2,0.3c-0.1,0.1,0.1,0.1,0.1,0.2
							c0,0.7,0,1-0.7,1.2c-0.1,0-0.3-0.1-0.4-0.2c0,0,0.1,0,0.1-0.1C472.8,187.7,473.3,186.2,473.3,186.2z"/>
						<path class="st36" d="M486.8,187.2c0,0.1,0.2,0.4,0.1,0.4c-0.2,0-0.2-0.2-0.2-0.4C486.6,187.1,486.7,187.1,486.8,187.2z"/>
						<path class="st36" d="M478.4,189.2c-0.1,0.3-0.4,0.5-0.4,0.8c0,0.2,0.6,0.7,0,0.9c-0.6,0.2-0.4-0.2-0.7-0.4
							c-0.1-0.1-0.3,0-0.4-0.1c-0.2-0.1-0.3-0.2-0.5-0.3c-0.2-0.1-0.5-0.1-0.6-0.3c-0.1-0.1,0.1-0.3,0.3-0.4
							c0.5-0.3,0.5,0.1,0.9,0.2c0.1,0,0.1-0.1,0.2-0.1c0.2-0.1,0.5-0.1,0.7-0.2C478,189.3,478.4,189.2,478.4,189.2z"/>
						<path class="st36" d="M493.6,189.4c-0.1,0.3-0.1,0.6-0.2,0.8c-0.1,0.1-0.2,0-0.3,0.1c-0.2,0.2-0.6,1.2-1.1,0.2
							c-0.1-0.1,0.3-0.1,0.4-0.2c0.1-0.1-0.1-0.2,0-0.3c0.2-0.1,0.5-0.1,0.7-0.2C493.3,189.7,493.6,189.4,493.6,189.4z"/>
						<path class="st36" d="M509,190.6c-0.1,0.2-0.2,0.6-0.4,0.7c-0.1,0.1,0.1-0.4,0.1-0.5C508.8,190.7,509,190.6,509,190.6z"/>
						<path class="st36" d="M517.5,178.9c-0.1,0,0.1,0.2,0.1,0.2L517.5,178.9z"/>
						<path class="st36" d="M501.7,204.3c0,0,0,0.1,0,0.1S501.7,204.3,501.7,204.3z"/>
						<path class="st36" d="M517.9,193.6c0.1-0.5,0.1-1.1,0.2-1.6c0-0.1-0.1,0.1-0.1,0.2c0,0.2,0.1,0.4,0.1,0.6
							C518.1,192.8,518,193.5,517.9,193.6c0,0.3,0.1,0.9,0,0.7C517.7,194.1,517.9,193.8,517.9,193.6z"/>
						<path class="st36" d="M433.9,203.2c-0.1-0.2-0.4-0.6-0.4-0.6S433.8,203,433.9,203.2z"/>
						<path class="st36" d="M433.3,201.9c0,0.1,0,0.2,0,0.2S433.3,201.9,433.3,201.9z"/>
						<path class="st36" d="M497.9,224.5c0.1,0,1.2-0.8,1.2-0.9c0.1-0.1,0.2-0.3,0.3-0.5c0.2-0.2,0.4-0.4,0.7-0.6
							c0.4-0.3,0.9-0.5,1.3-0.8c0.2-0.1,0.3-0.3,0.5-0.4c0,0-0.1,0.1-0.1,0.1c0.3-0.2,0.5-0.4,0.8-0.7c0,0-0.1,0-0.1,0
							c0.2-0.3,0.6-0.5,0.9-0.8c0.1-0.1,0.6-0.8,0.6-0.8c0.4,0.5-0.5,1-0.7,1.2c-0.1,0.1-0.1,0.2-0.2,0.4c-1,1.1-2.3,2.1-3.5,3
							L497.9,224.5z"/>
						<path class="st36" d="M497.8,224.7c0-0.1,0.1-0.1,0.1-0.2L497.8,224.7z"/>
						<path class="st36" d="M435.1,168.5c5.2-10.7,14.7-19.1,26.1-22.7c3.8-1.2,7.7-1.9,11.7-2l0.1,0c-1.9,0.2-4.8,0.4-6.8,0.9
							c-0.4,0.1-0.9,0.2-1.3,0.4c-1.4,0.5,0.6,0-1,0.4c-0.2,0-0.4,0-0.6,0.1c-0.2,0.1-0.4,0.2-0.6,0.3c-1.7,0.6,0.1-0.1-1.7,0.6
							c-0.2,0.1-0.3,0.2-0.4,0.2c-0.2,0.1-0.4,0-0.6,0.1c-0.2,0-0.6,0.3-0.8,0.4c0,0,0,0.1-0.1,0.1c-0.2,0.1-0.4,0.1-0.6,0.2
							c-0.1,0,0.7-0.2,0.6,0.1c-0.1,0.1-1.2,0.5-1.5,0.7c-0.2,0.1-0.3,0.3-0.5,0.4c-0.1,0.1-0.4,0.3-0.3,0.2c0.3,0,0.5-0.2,0.7-0.3
							c0.1,0-0.2,0.2-0.3,0.2c-0.3,0.1-0.5,0.1-0.8,0.2c-0.2,0.1-0.7,0.2-0.5,0.2c0.5,0,1-0.1,1.5-0.3c0,0-0.2,0-0.1,0
							c0.3-0.1,0.6-0.2,0.9-0.3c0.1-0.1,0.2-0.2,0.4-0.2c0.1,0,0.3,0.2,0.2,0.3c-0.2,0.2-0.4,0.3-0.7,0.3c-0.1,0-0.2-0.1-0.2-0.1
							c-0.1,0-0.2,0.1-0.2,0.2c0,0,0,0,0,0c-0.2,0.1-0.4,0.2-0.6,0.3c-0.2,0.1-0.4,0.1-0.5,0.2c-0.1,0.1,0,0.2-0.1,0.3
							c0,0,0-0.1,0-0.1c-0.3,0.1-0.6,0.3-0.9,0.5c0,0,0.1,0,0.1,0c0.3-0.1,0.6-0.2,0.9-0.2c0,0-0.1,0.1-0.1,0.1
							c0.1,0,0.1-0.1,0.2-0.1c0.2-0.1,0.5-0.4,0.7-0.3c0.2,0.1-0.2,0.4-0.4,0.5c-0.1,0.1-0.7,0.4-0.8,0.4c-0.1,0,0-0.1-0.1-0.1
							c-0.1,0-0.2,0.1-0.2,0.1c-0.2,0.1-0.4,0.3-0.6,0.4c-0.1,0.1-0.3,0.2-0.4,0.1c-0.1-0.2,0.4-0.5,0.2-0.5c-0.8-0.2-0.5,1-1,0.1
							c-0.1-0.1,0.1,0,0.7-0.5c0.1-0.1,0.3-0.3,0.2-0.3c-0.1,0-0.2,0.2-0.3,0.3c-0.1,0.1-0.3,0.2-0.4,0.3c-0.1,0.1-0.1,0.3-0.3,0.3
							c-0.2,0.1-0.7,0.4-0.7,0.2c0-0.4,0.5-0.6,0.7-0.9c0-0.1-0.2,0.1-0.2,0.1c-0.1,0.1-0.2,0.2-0.3,0.3c-0.2,0.2-0.4,0.3-0.6,0.4
							c0,0-0.1,0-0.1,0c-0.5,0.1-0.9,0.1-1.4,0.2c-0.3,0.1-0.8,0.4-1,0.6c0,0,0.2-0.1,0.2-0.1c-0.3,0.3-0.8,0.6-1.2,0.8
							c-0.1,0-0.1,0-0.2,0.1c-0.1,0.1,0,0.2-0.1,0.3c-0.3,0.5-0.9,0.8-1.3,1.2c-0.1,0.1-0.3,0.3-0.4,0.5c-0.1,0.1-0.2,0.2-0.3,0.3
							c-0.1,0-0.2,0-0.2,0.1c-0.1,0.2-0.1,0.4-0.3,0.6c-0.1,0.2-0.4,0.2-0.6,0.4c-0.7,0.5-1.1,0.9-1.7,1.6c-0.2,0.3-0.6,0.3-0.7,0.8
							c-0.1,0.2,0.3-0.4,0.6-0.5c0.1,0,0.2,0,0.3,0c0.2-0.1,0.3-0.4,0.5-0.5c0.2-0.1,0.3-0.2,0.5-0.4c0.2-0.2,0.3-0.5,0.6-0.6
							c0.2,0,0.3,0.2,0.5,0.2c0.4-0.1,0.7-0.4,1-0.6c0.7-0.5,0.5-0.4,1.1-1c0.2-0.2,0.9-0.4,1-0.4c0.3-0.1,0.8-0.4,1.1-0.6
							c0.2-0.1,0.4-0.3,0.6-0.4c0.1,0,0.2,0,0.2,0c0,0.2-0.2,0.3-0.3,0.5c0,0-0.1,0-0.1,0c-0.2,0.3-0.2,0.6-0.4,0.9c0,0-0.1,0-0.1,0
							c-0.1,0.1-0.2,0.2-0.3,0.3c-0.1,0.2,0,0.4-0.2,0.6c-0.2,0.1-0.4-0.1-0.6,0c-0.1,0,0,0.2-0.1,0.3c-0.1,0.1-0.3,0.2-0.5,0.3
							c0,0,0,0.1,0,0.1c-0.2,0.2-0.3,0.5-0.5,0.6c-0.2,0.1-0.7,0-0.6,0.1c0.3,0.2,0.7,0.2,1,0.1c0.1,0,0.2-0.1,0.4-0.2
							c0.2-0.1,0.6-0.5,0.7-0.3c0.4,1.2-0.5,0.3-0.7,0.7c0,0.1,0,0.2,0,0.2c-0.2,0.2-0.5,0.3-0.7,0.5c-0.1,0.1,0.2,0.1,0.2,0.1
							c-0.1,0.1-0.3,0.2-0.4,0.3c-0.3,0.3-0.3,0.8-0.8,0.8c0,0,0-0.1,0-0.1c-0.1,0.2-0.2,0.4-0.3,0.6c-0.2,0.3-0.6,0.5-0.8,0.9
							c0,0.1,0.3-0.1,0.2,0c0,0.2-0.3,0.2-0.3,0.4c0,0.3,0.2,0.5,0.2,0.7c0,0.1-0.6-0.3-0.4,0.2c0,0.1,0.1-0.2,0.1-0.2
							c-0.2,0.2-0.4,0.4-0.4,0.7c-0.3,0.9,0.7,0.4-0.6,1.2c-1.2,0.8-0.3-0.1-1-0.2c-0.1,0-0.2,0.2-0.3,0.2c-0.1,0-0.3,0.1-0.5,0
							c-0.4-0.2-0.1-1.5-0.3-1.8c-0.1-0.2-0.4,0.3-0.6,0.3c-0.2-0.1-0.3-0.6-0.5-0.6c-0.2,0-0.1,0.4-0.2,0.6
							c-0.2,0.2-0.5,0.2-0.7,0.3c0,0,0.1,0.1,0.1,0.1c0.4,0.1,0.9,0,1.3,0.2c0.2,0.1-0.1,0.4-0.1,0.5c-0.1,0.1-0.1,0.3-0.3,0.3
							c-0.2-0.1-0.2-0.6-0.4-0.5c-0.2,0.2,0,0.6-0.1,0.8c-0.1,0.1-0.3,0.1-0.4,0.2c-0.2,0.2-0.3,0.4-0.4,0.7
							c-0.1,0.2-0.2,0.4-0.2,0.6c-0.1,0.4,0.1,0.9-0.1,1.2c-0.1,0.1-0.3-0.2-0.4-0.2c-0.3-0.1-0.6,0.1-0.8-0.1
							c-0.1-0.1,0.4-0.8,0.5-0.8c0.2,0,0.4,0.4,0.6,0.3c0.2-0.1-0.1-0.3-0.1-0.5c0.1-0.2,0.5-0.2,0.4-0.4c-0.1-0.2-0.3,0.3-0.5,0.2
							c-0.1-0.1,0.1-0.4-0.1-0.4c-0.1,0-0.1,0.3-0.3,0.3c-0.3,0-0.5-0.2-0.8-0.2c-0.1,0-0.7,0.7-0.7,0.8c0,0,0-0.1-0.1-0.1
							c-0.1-0.1-0.1-0.3-0.2-0.3c0,0,0,0.1-0.1,0.2c-0.2,0.2-0.4,0.8-0.6,0.5c-0.2-0.2,0.6-0.9,0.4-0.7c-0.9,1.1,0,0.1-0.6,0.9
							c-0.1,0.2-0.5,0.7-0.4,0.5c0-0.1,0.9-1.3,1-1.4c0,0,0-0.1-0.1-0.1c-0.2,0.2-0.3,0.4-0.4,0.6c0,0.1-0.2,0.3-0.1,0.2
							c0.1-0.2,0.2-0.4,0.4-0.7c0,0,0.1-0.1,0-0.1c-0.2,0.3-0.4,0.7-0.6,1c-0.1,0.1-0.2,0.4-0.2,0.3c0-0.2,0.1-0.3,0.2-0.5
							c0-0.1-0.1,0.2-0.1,0.3c-0.1,0.2-0.2,0.4-0.3,0.7c-0.1,0.2-0.4,0.8-0.3,0.6c0.1-0.2,0.3-0.4,0.4-0.7c0-0.1-0.2,0.1-0.2,0.2
							c-0.1,0.2-0.1,0.4-0.2,0.5c0,0.1-0.1,0.2-0.2,0.2c-0.1,0,0-0.2-0.1-0.2C435.5,167.9,435.4,168.2,435.1,168.5
							C435.2,168.5,435.1,168.5,435.1,168.5C435.1,168.6,435.1,168.6,435.1,168.5L435.1,168.5z"/>
						<path class="st36" d="M492.3,194c-0.2,0-0.5,0-0.7,0.1c-0.2,0.1-0.3,0.4-0.5,0.5c-0.1,0-0.2,0-0.3,0c-0.1,0-0.4,0.6-0.6,0.6
							c-0.8,0-1.6-0.1-2.3-0.2c-0.1,0-0.3-0.1-0.4,0c-0.2,0-0.3,0.2-0.5,0.2c-0.4,0-0.8-0.2-1.2-0.4c0,0,0,0,0-0.1
							c-0.2-0.1-0.4,0.1-0.6,0c-0.1-0.1-0.1-0.4-0.2-0.5c-0.2-0.2-0.6-0.2-0.8-0.2c-0.2,0-1.2,0.4-1.3,0.6c-0.5,1.5,0.2,1.5-0.9,2.4
							c-0.3,0.3-0.9-0.3-1-0.4c-0.2-0.1-0.5-0.2-0.7-0.2c-0.5-0.1-1.3,0.1-1.7-0.5c-0.1-0.2-0.1-0.6-0.3-0.7
							c-2.3-1.4-0.9-0.1-2.5-0.4c-0.6-0.1-0.9-0.6-1.4-0.9c-0.1-0.1-0.2,0.1-0.3,0c-0.9-0.7,0.7-0.8,0.7-1.6c0-0.2-0.6-0.8-0.6-0.9
							c0.3-1,1.4-0.8-0.5-1.3c-0.6-0.1-0.5,0.3-1,0.4c-0.2,0.1-0.5,0-0.7,0c-0.2,0-0.3,0-0.5,0c-0.2,0-0.4-0.2-0.6-0.2
							c-0.1,0-0.1,0.1-0.2,0.2c-0.2,0.1-0.5,0.3-0.8,0.2c-0.4,0-0.8-0.3-1.3-0.4c-0.6-0.1-2.3,0.1-2.8,0.4c-0.1,0.1-0.2,0.3-0.3,0.3
							c-0.2,0.1-0.5-0.1-0.7,0c-0.3,0.1-0.6,0.4-0.9,0.5c-0.4,0.2-0.6-0.4-0.9-0.5c-0.1,0-0.2,0.2-0.3,0.2c0,0-0.9,0-1.1-0.2
							c-0.1-0.1-0.3-0.3-0.4-0.5c-0.1-0.1,0-0.8-0.5-0.3c-0.3,0.3-0.6,1.5-1.1,1.7c-0.4,0.1-1,0.1-1.3,0.4c-0.1,0.1-0.2,0.2-0.4,0.3
							c-0.1,0.1-0.3,0.1-0.4,0.2c-0.1,0.1,0,0.3-0.1,0.4c-0.1,0.2-0.3,0.3-0.4,0.5c-0.5,1.4,0.3,1-0.7,2c-0.3,0.3-1.3,0.8-1.8,0.9
							c-0.5,0.1-0.6-0.3-0.9,0.1c-0.1,0.2-0.2,0.5-0.4,0.6c-0.2,0.2-0.7,0.1-0.9,0.4c-0.1,0.2-0.3,0.4-0.4,0.7
							c-0.1,0.2,0,0.4-0.1,0.6c-0.2,0.2-0.4,0.3-0.6,0.4c-0.1,0.1-0.5,0.1-0.3,0.2c0.1,0,0.2-0.2,0.2-0.1c-0.1,0.3-0.3,0.5-0.4,0.7
							c0,0-0.1,0.1-0.1,0.1c-0.1,0.1-0.1,0.2-0.2,0.3c-0.1,0.1-0.3,0.1-0.4,0.2c0,0,0,0.1-0.1,0.2c-0.1,0.3-0.2,0.5-0.2,0.8
							c0,0.1,0.2,0.1,0.3,0.2c0.1,0.2,0.3,0.3,0.3,0.6c0,0.2-0.3,0.4-0.3,0.6c0,0.5,0.4,1.1,0.3,1.5c-0.1,0.3-0.3,0.5-0.4,0.8
							c-0.2,0.5,0.1,0.6-0.4,1c-0.1,0.1-0.4,0-0.5,0.2c-0.1,0.1,0.2,0.1,0.3,0.2c0.2,0.2,0.4,0.4,0.6,0.6c0,0-0.1,0.1-0.1,0.1
							c0,0.1-0.1,0.2-0.1,0.3c0,0.1,0.1,0.2,0.1,0.2c0,0.1,0.2,0.1,0.2,0.1c-0.1,0.4-0.3-0.3-0.4-0.3c-0.1,0-0.1,0.2,0,0.3
							c0.2,0.3,0.6,0.5,0.9,0.7c0.1,0.1-0.2-0.1-0.3-0.2c-0.1,0-0.8-0.4-0.5,0c0.1,0.2,0.3,0.4,0.4,0.5c0.1,0.1,0.3-0.1,0.3,0
							c0.1,0.1-0.3,0.1-0.2,0.1c0.2,0.1,0.6-0.1,0.8,0.1c0.1,0.1-0.4,0.1-0.4,0.3c0,0.2,0.3,0.3,0.4,0.5c0.1,0.1,0.2,0.3,0.3,0.5
							c0.2,0.2,0.4,0.2,0.5,0.4c0.2,0.3,0.4,0.5,0.6,0.8c0,0.1,0,0.2,0,0.2c0.1,0.3,0.3,0.5,0.4,0.8c0,0-0.1,0.1-0.1,0.1
							c0.2,0.2,0.7,0.3,0.6,0.4c0,0.1-0.3,0-0.3,0.1c0.1,0.2,0.4,0.2,0.6,0.4c0.9,0.6-0.1,0,0.4,0.4c1.5,1.6-0.2-0.3,0.9,0.7
							c0.5,0.4,1.4,1.6,2.1,1.7c1.5,0.2,3.1,0.2,4.5,0.7c0.1,0-0.3,0-0.2,0c0.6,0.1,1.1,0.3,1.7,0.3c0.3,0,0.5-0.1,0.8-0.1
							c1.4-0.1,2.8-0.1,4.2-0.1c0.5,0,0.4,0.3,0.9,0.5c0.1,0,0.2-0.1,0.2-0.1c0.3,0.5-0.1,1.1,0.8,1.1c0.2,0,0.4-0.3,0.6-0.3
							c0.3,0,0.6,0.2,0.9,0.3c0.2,0,0.4,0.1,0.6,0c0.1-0.1-0.2-0.2-0.1-0.3c0.3-0.2,0.5,0.5,0.9,0.7c0.2,0.1,0.4-0.2,0.6-0.1
							c0.5,0.4,0.1,0.8,0.1,1.1c0,0.3,0.1,0.6,0,0.8c-1.4,3.8,0.5-3.1-1,0.9c-0.1,0.1,0.2,0.2,0.3,0.3c0.1,0.1,0.1,0.2,0.3,0.3
							c0.1,0.1,0.2,0.1,0.3,0.1c0.1,0-0.3-0.2-0.3-0.1c0.3,0.1,0.6,0.2,0.8,0.4c0.1,0.1-0.5-0.1-0.4,0c0.4,0.3,1.5,0.8,1.9,1.1
							c0.5,0.3,0,0.2,0.4,0.7c0.2,0.2,1,0.9,1,1.1c0,0.1-0.4,0-0.4,0.2c0,0.2,1,0.6,0.7,1c-0.2,0.2-0.5,0.3-0.8,0.4
							c-0.1,0.1-0.3,0.1-0.4,0.1c-0.1,0.1-0.2,0.4-0.3,0.5c-0.1,0.1-0.3,0.1-0.4,0.2c-0.1,0.1,0,0.2,0,0.4c0,0.1,0,0.2,0,0.2
							c0.2,0.1,0.4,0.1,0.6,0.2c0.5,0.2,0.9,0.4,1.4,0.6c0,0,0.1,0,0.1,0.1c0,0-0.1,0.1-0.1,0.1c0.7,0.2,1.5,0.3,2.3,0.5l-0.2,0
							c0.8-0.1,1.6-0.2,2.4-0.3c2.1-0.4,4.2-0.9,6.2-1.5l0.1,0c1.2-0.4,2.3-0.9,3.4-1.4c0.2-0.1,0.9-0.3,1-0.5
							c0.2-0.2,0.2-0.5,0.3-0.7c0.1-0.1,0.3-0.1,0.5-0.2c0.7-0.3,0.9-0.5,1.5-0.9c1-0.7,2.6-1.2,3.3-2.2c0.1-0.2,0.3-0.4,0.4-0.6
							c0.1-0.1,0-0.3,0.1-0.4c0.1-0.1,0.2-0.2,0.3-0.4c0,0-0.1,0-0.1,0c-0.1-0.2-0.4-0.5-0.4-0.7c0-0.2,0.4-0.3,0.3-0.5
							c0-0.1-0.4,0-0.4-0.2c0.1-0.5,0.7-1,1-1.3c0.1-0.1,0.2-0.3,0.3-0.4c0,0,0.1,0,0.1-0.1c0.1-0.1,0-0.2,0.1-0.3
							c0.2-0.2,0.4-0.3,0.6-0.5c0,0-0.1-0.1,0-0.2c0.1-0.1,0.2-0.1,0.3-0.2c0.3-0.2,0.4-0.6,0.6-0.8c0.6-0.8,1.3-1.5,1.9-2.3
							c0.4-0.5,0.8-0.8,1.2-1.3c0.5-0.6,1-1.4,1.4-2.1c0.3-0.5,0.6-1,0.8-1.6c0.2-0.5,0.3-1,0.6-1.5c0.2-0.5,0.5-1,0.6-1.5
							c0.1-0.2,0-0.5,0.1-0.7c0-0.1,0.2-0.2,0.3-0.3c0-0.1-0.2,0.3-0.2,0.2c-0.1-0.2,0-0.5,0-0.7c0-0.2,0.2-0.3,0.1-0.4
							c0-0.1-0.2,0-0.3,0.1c-0.2,0.2-0.3,0.4-0.4,0.6c-0.2,0.2-0.3,0.3-0.5,0.5c-0.6,0.6,0.5-0.5-0.4,0.3c-0.1,0.1-0.1,0.2-0.2,0.3
							c-0.1,0.1-0.3,0.1-0.5,0.3c-0.2,0.2-0.4,0.5-0.6,0.7c-0.1,0.1-0.3,0.1-0.5,0.1c-0.6,0.2-1.2,0.3-1.7,0.5
							c-0.2,0.1-0.6,0.4-0.5,0.3c0.1-0.3,0.5-0.4,0.6-0.7c0.1-0.3-1.5-1.2-1.7-1.2c-0.2-0.1-0.5,0.1-0.8,0.1c-0.1,0-0.1-0.4-0.2-0.3
							c-0.1,0,0,0.4-0.1,0.4c-0.5-0.2-0.5-1.6-1-2c-0.2-0.2-0.5-0.2-0.7-0.3c-0.1,0-0.2,0.1-0.3,0c-0.1-0.2-0.1-0.5-0.2-0.8
							c-0.1-0.3-0.2-0.6-0.3-1c0-0.1,0.2,0,0.2-0.1c-0.1-0.2-0.3-0.2-0.3-0.4c-0.1-0.1,0-0.3,0-0.4c-0.1-0.2-0.4-0.2-0.6-0.3
							c-0.2-0.1-0.5-0.1-0.5-0.3c-0.1-0.2,0.2-0.5,0.1-0.8c-0.1-0.2-0.4-0.2-0.6-0.4c-0.6-0.6-0.3-0.5-0.6-1
							c-0.3-0.4-0.3-0.1-0.6-0.7c0-0.1,0.1-0.2,0-0.3c-0.1-0.3-0.4-0.5-0.6-0.8c0,0,0.1,0,0.1,0c-0.5-0.6-1-0.5-1.2-1.4L492.3,194z"
							/>
						<path class="st36" d="M493,195.8c0-0.1,0.2-0.1,0.3-0.1c0.6,0.3,0.5,1.6,1.4,1.4c0.3-0.1,0.2-0.6,0.4-0.9
							c0.1-0.1-0.2,0.4-0.1,0.5c0.1,0.1,0.3-0.2,0.5-0.1c0.3,0.1,0.7,0.7,0.9,1c0.1,0.2,0.2,0.3,0.4,0.5c0,0,0.1,0,0.2,0
							c0.1,0.1,0,0.2,0.1,0.3c0.1,0.2,0.3,0.2,0.5,0.4c0.2,0.2,0.4,0.5,0.7,0.7c0.1,0.1,0.3,0.1,0.4,0.2c0.3,0.3,0.5,0.6,0.7,1
							c0.1,0.2-0.1,0.3-0.1,0.5c0,0.2,0.1,0.5,0.3,0.6c0.6,0.9,0.4,0.2,1.3,0.6c0.5,0.3,0.4,0.9,0.9,1.3c0.1,0.1,0.3,0,0.4,0.1
							c0.2,0.5,0.2,1.1,0.4,1.7c0,0.1,0.2,0,0.2,0.1c0.1,0.3,0.2,0.5,0.3,0.8c0,0-0.1,0.8,0.2,0.7c1.2-0.4,0.8-0.6,1.4-1.3
							c0.1-0.1,0.5-0.3,0.7-0.5c2.1-1.9-1.2,1.1,0.8-1c0.1-0.1,0.3-0.1,0.4-0.3c0.2-0.2,0.2-0.5,0.4-0.7c0.2-0.3,0.5-0.5,0.7-0.8
							c0.3-0.4,0.7-0.6,0.9-1.1c0.1-0.2-0.1-0.4,0-0.5c0.1-0.2,0.8-1.2,0.9-1.3c0.2-0.1,0.4-0.2,0.5-0.4c0.1-0.2,0-0.5,0.1-0.8
							c0.1-0.2,0.4-0.3,0.5-0.5c0.1-0.3,0.1-0.6,0.1-0.8c0.4-1.2,0.8-2.7,0.9-4c0-0.4-0.6,0.2-1.5-0.3c-0.4-0.2-0.5-1.3-0.8-1.1
							c-0.1,0.1-0.3,0.2-0.3,0.4c-0.1,0.1,0,0.3,0,0.4c-0.1,0.4-0.2,0.8-0.3,1.1c-0.1,0.3-1.3,1.1-1.4,1.2c-0.7,0.2-0.2-0.7-0.3-0.7
							c-0.1-0.2-0.5-0.2-0.6-0.1c-0.1,0.2,0.4,0.6,0.2,0.6c-0.6,0.1-0.5-1.2-0.8-1.4c-0.2-0.2-0.5-0.3-0.7-0.4
							c-0.1,0-0.2,0.1-0.3,0.1c-0.2-0.2-0.3-0.5-0.5-0.7c-0.2-0.2-0.5-0.2-0.6-0.5c-0.1-0.1,0.2-0.2,0.2-0.3c0-0.1-0.3-0.2-0.2-0.3
							c0-0.1,0.3-0.1,0.4-0.2c0.4-0.3,0.3-0.6,0.9-0.7c0.1,0,0.7,0.7,0.9,0.9c0.1,0.2,0.1,0.4,0.3,0.5c0.2,0.1,0.5-0.1,0.7-0.1
							c0.6,0.1,0.8,0.6,1.4,0.1c0.3-0.2,0.6-1.5,0.9-1.4c0.3,0.1,0.3,0.7,0.5,0.9c0,0,0.6-0.2,0.9-0.4c0.2-0.2,0.4-0.5,0.6-0.7
							c0.2-0.1,0.3-0.1,0.5-0.3c0,0,1.1-1.3,1.2-1.3c0,0,0-0.1,0-0.2c0.1-0.2,0.3-0.4,0.4-0.6c0.1-0.1,0-0.3,0.1-0.4
							c0.1,0,0.1,0.2,0.2,0.2c0.2,0.1,0.5,0.2,0.7,0.4c0.2,0.1,0.3,0.3,0.5,0.2c0.2-0.2,0.1-0.6,0.3-0.8c0.2-0.1,0,0.4,0,0.6
							c0,0.2-0.1,0.4-0.2,0.6c0,0-0.1,0.1-0.1,0.1c0.3-0.6,0.5-1.3,1-1.8c0.2-0.2,0,0.5,0.1,0.8c0.1,0.6,0.2,1.1,0.4,1.7
							c0,0.1,0-0.3,0-0.3c0.1,0.3,0.2,0.7,0.2,1c0,0.2,0.1,0.5,0.1,0.7c0.3,1,0.4,0.6,0.5,1.3c0.1,0.7,0.2,1.5,0.3,2.2
							c0,0,0,0.2,0,0.1c0.8-5,0.4-7.1,0.2-13c0-0.1-0.1-0.3-0.1-0.4c-0.1-0.6-0.1-1.2-0.1-1.8c0-0.1,0.1-0.4,0-0.6
							c0-0.2-0.1-0.3-0.1-0.5c-0.6-2.8-1.5-5.5-2.6-8.2c-2.1-4.8-5.1-9.3-8.7-13c-6-6.2-13.8-10.6-22.2-12.4
							c-2.8-0.6-4.8-0.7-7.4-0.9l0-0.1c2.1,0.2,4.3,0.3,6.4,1c0.2,0.1,1.4,0.3,1.6,0.4c0.2,0.1,0.3,0.3,0.4,0.4
							c0.4,0.4,1.1,0.5,1.6,0.6c0.1,0,0.1-0.1,0.2,0c0.2,0.1,0.4,0.2,0.6,0.4c0.1,0.1,0.2,0.2,0.3,0.3c0,0,1,0.2,1.1,0.3
							c0.1,0.3-0.3,0.4-0.3,0.7c0,0.1,0.2,0.2,0.1,0.3c0,0.1-0.3-0.1-0.3-0.1c0.2,0.2,0.7,0.3,0.8,0.6c0.1,0.2-0.4-0.1-0.6-0.1
							c-0.1,0,0.1,0.1,0.1,0.2c0.1,0.1,0.3,0.1,0.4,0.2c0.2,0.1,0.3,0.3,0.5,0.5c0.1,0.1,0.5,0.3,0.4,0.2c-0.6-0.3-2.1-1.3-2.6-1.4
							c0,0-1.8,0-1.5,0.5c0.5,0.9,1.6,0.5,2.3,0.8c0.1,0-0.2,0-0.3,0c-0.2,0-0.5-0.3-0.6-0.1c-0.1,0.2,0.2,0.3,0.3,0.5
							c0.1,0.2,0.1,0.4,0.3,0.6c0.2,0.2,0.5,0.3,0.7,0.5c0,0-0.2,0.1-0.1,0.1c0.5,0.2,1,0.3,1.5,0.5c0.1,0.1-0.3,0-0.5-0.1
							c-0.1-0.1-0.2-0.4-0.3-0.3c-0.2,0.2-0.2,0.6-0.1,0.8c0.1,0.2,0.3,0.2,0.5,0.2c0.4,0.1,0.9,0.1,1.3,0.2c0.1,0,0.2,0.2,0.4,0.3
							c0.3,0.2,0.6,0.2,0.9,0.4c0.1,0.1-0.3,0-0.5-0.1c-0.1,0-1.5-0.8-1.8-0.3c-0.4,0.8,1.2,0.6,1.2,0.6c0.1,0.2-0.4,0.2-0.6,0.2
							c-0.1,0-0.9-0.5-1-0.6c-0.1-0.1-0.4-0.1-0.3-0.1c0.2,0.2,0.4,0.2,0.6,0.3c0.2,0.1,0.2,0.4,0.3,0.5c0.2,0.1,0.5,0.1,0.7,0.2
							c0.1,0,0.1,0.1,0.2,0.1c0.2,0.1,0.7,0.7,1,0.7c0.2,0,0.4-0.4,0.6-0.4c0.8-0.1,0.4,0.4,0.9,0.6c0.1,0,0.4-0.2,0.3-0.1
							c-0.1,0.1-0.2,0.2-0.4,0.2c-0.1,0-0.8-0.6-1-0.5c-0.1,0.1-0.1,0.3,0,0.4c0.2,0.3,0.6,0.3,0.8,0.5c0.9,0.8,0.1,0.1,0.5,0.9
							c0,0.1,0.3,0.1,0.2,0.2c-0.4,0.5-0.9,0.3-0.9,0.2c0-0.2,0.3-0.3,0.3-0.4c0-0.4-0.5-1-0.9-1.1c-0.2-0.1-0.4,0-0.5-0.1
							c-0.4-0.2-0.7-0.4-1-0.6c-0.1-0.1-0.3-0.3-0.4-0.3c-0.2-0.1-0.4-0.1-0.6-0.2c-0.3-0.2-0.6-0.8-0.9-0.7c-1.1,0.4,0.1,0.7,0.2,1
							c0.1,0.2,0.1,0.4,0.2,0.5c0.1,0.1,0.2,0,0.3,0.1c0.5,0.2,1,0.6,1.5,0.8c0,0,0.2-0.1,0.1-0.1c-0.3,0.1-0.6,0.3-0.9,0.4
							c-0.7,0.2-0.5-0.3-1.2,0.2c-0.3,0.2,0.3,0.3,0.4,0.4c0.1,0.1,0.1,0.3,0.2,0.4c0.1,0.1,0.3,0.2,0.2,0.2
							c-0.2,0.1-0.4,0.1-0.7,0.2c-0.7,0.2-0.3,0.2-0.7,0.7c0,0,0.1-0.1,0-0.2c0-0.2-0.1-0.4-0.2-0.4c-0.1,0-0.2,0.1-0.2,0.2
							c-0.1,0.1,0,0.2-0.1,0.3c-0.2,0.4-0.4,0.7-0.6,1.1c-0.1,0.2,0.1,0.6-0.1,0.7c-0.2,0.1-0.5,0-0.6-0.2c-0.1-0.2,0.4-0.4,0.3-0.5
							c-0.2-0.1-0.6-0.1-0.8,0.2c-0.3,0.4,0.8,0.8,0.8,0.9c0.2,0.4-0.6,0.3-0.7,0.3c-0.1,0.1,0,0.2,0,0.3c-0.1,0.2-0.3,0.4-0.3,0.6
							c-0.1,0.3,0.7,0.3,0.6,0.6c-0.1,0.3-0.5,0.3-0.8,0.3c-0.1,0,0.1-0.2,0-0.2c-0.2-0.1-0.5-0.2-0.7-0.1c-0.1,0,0,0.3,0.1,0.4
							c0.2,0.1,0.5,0,0.7,0.2c0.1,0.1,0.2,0.4,0,0.4c-0.3,0.1-0.7-0.1-1-0.2c-0.1,0-0.3,0-0.3-0.1c-0.2-0.2-0.4-0.4-0.5-0.6
							c0-0.1,0.2-0.2,0.1-0.3c-0.1-0.2-0.6-0.2-0.5-0.3c0.2-0.3,0.7-0.2,1-0.3c0.1,0,0.1,0,0.2,0c0,0,0.1,0,0.1,0
							c0.5-0.7,1-1.1,0.2-1.5c-0.2-0.1-0.3-0.1-0.5-0.1c-0.6-0.2-1.1-0.5-1.7-0.5c-0.2,0-0.5,0-0.7,0c-0.1,0,0,0.2-0.1,0.2
							c-0.2,0-0.5-0.2-0.7-0.3c-0.1,0-0.3,0.1-0.3,0c-0.2-0.2-0.3-0.5-0.5-0.6c-0.1-0.1-0.2,0-0.3-0.1c-0.2,0-0.3-0.1-0.5-0.1
							c-1.5,0.1,0.3,0.2-1.1,1c-0.2,0.1-0.5-0.1-0.7-0.1c-0.3-0.1,0.9,0,0.4,0.3c-0.1,0.1-0.3-0.1-0.4-0.1c-0.1,0-0.2,0.1-0.4,0.1
							c-1,0.5,0,0.2-0.6,1.3c-0.1,0.1-0.3-0.1-0.4,0c-0.1,0,0.1,0.1,0.1,0.2c-0.1,1.2-0.1,0.4-0.7,0.7c-0.1,0,0,0.2-0.1,0.3
							c-0.1,0.1-0.3,0-0.3,0.1c0,0.1,0.2,0.2,0.2,0.3c0,0.3-0.1,0.5-0.2,0.8c-0.9,1.8,0.3-1.1-0.6,0.5c0,0.1,0.2,0.2,0.1,0.2
							c-0.6,0.3,0-0.5-0.5,0c-0.2,0.2-0.6,0.4-0.4,0.6c0.2,0.2,0.5-0.3,0.8-0.3c0.1,0,0.2,0.2,0.1,0.3c-0.2,0.1-0.5,0-0.8,0.1
							c-0.2,0.1-0.2,0.3-0.4,0.4c-0.1,0.1-0.2,0-0.4,0.1c0,0,0,0.1-0.1,0.1c-0.2,0-0.4-0.1-0.5,0c-0.2,0.2-0.1,0.6-0.3,0.7
							c-0.2,0.1-0.4-0.2-0.6-0.1c-0.1,0-0.1,0.2,0,0.2c0.2,0.1,0.7-0.2,0.8,0.1c0.2,0.5-0.8,0.4-0.9,0.5c0,0,0,0.1,0.1,0.1
							c0.7,0.1,0.5-0.1,1-0.1c0.1,0,0.3,0,0.2,0c-0.4,0.1-0.9,0.2-1.3,0.3c-0.1,0,0.3,0,0.2,0c-0.1,0-0.4,0-0.3,0
							c0.1,0.2,0.4,0.3,0.6,0.3c0.1,0,0.5-0.2,0.5,0c0,0.7-1.9,0.8-1,1.5c0.4,0.3,0.9,0.4,1.3,0.5c0,0,0.1,0.1,0.1,0.1
							c0.2-0.2,0.4-0.4,0.6-0.7c0.1-0.1,0.1-0.2,0.1-0.2c0.1-0.1,0.4-0.2,0.5-0.4c0.1-0.1,0-0.4,0.1-0.3c0.1,0.2,0,0.4,0.1,0.6
							c0.1,0.3,0.5,0.5,0.6,0.8c0.1,0.2-0.1,0.4-0.1,0.6c0.6,2.6,0.1-0.3,0.7,1c0.1,0.1,0.1,0.3,0,0.4c0,0.1-0.2-0.1-0.2-0.1
							c0,0.3,0.1,0.6,0.2,0.9c0.1,0.1,0.8,0,0.8,0c0.2-0.2,0.1-0.6,0.2-0.8c0.3-0.3,0.7-0.3,1-0.6c0.1-0.1-0.1-0.3-0.1-0.5
							c0-0.1,0.1-0.1,0.1-0.2c0-0.1-0.2-0.2-0.2-0.4c0-0.1,0.2,0.1,0.2,0c0.1-0.1,0-0.3,0-0.4c-0.1-0.1-0.4-0.1-0.4-0.3
							c0.1-0.2,0.4-0.1,0.6-0.1c0.2-0.1,0.4-0.2,0.5-0.4c0-0.1-0.2,0-0.3-0.1c-0.1-0.1-0.1-0.3-0.2-0.5c0-0.1,0,0.3,0.2,0.4
							c0.1,0.1,0.6-0.4,0.6-0.4c0.1-0.1-0.6-0.6-0.7-0.7c-0.1-0.1-0.6-1.4-0.5-1.6c0-0.2,0.3-0.2,0.4-0.3c0.2-0.2,0.2-0.5,0.4-0.7
							c0.1-0.1,0.4-0.1,0.5-0.2c0.9-0.9,0.1-0.3,0-0.9c0-0.1,0.2-0.2,0.2-0.3c0-0.1-0.2-0.1-0.2-0.1c0-0.6,0.8-0.6,1.1-0.5
							c0.3,0,0.8,0.2,0.7,0.6c0,0.1-0.3,0.1-0.3,0.2c-0.1,0.2-0.1,0.5-0.2,0.7c-0.1,0.1-0.2,0.3-0.3,0.4c-0.1,0.1-0.2,0-0.2,0.1
							c0,0.1,0.1,0.1,0.1,0.2c-0.1,0.2-0.5,0.3-0.5,0.5c0,0.5,0.2,1,0.4,1.5c0,0.1,0,0.3,0.1,0.4c0,0,1,0.4,1,0.4
							c0,0.1-0.3,0.2-0.2,0.2c0.3-0.1,0.5-0.3,0.7-0.4c0.1,0,0.2,0,0.3,0c0.2-0.1,0.4-0.4,0.6-0.5c0.1,0,0.1,0.2,0.1,0.2
							c0.2,0,0.3-0.2,0.5-0.2c0.4,0,0.9,0.1,1.3,0.3c0.2,0.1-0.4,0-0.6,0.1c-0.1,0-0.3,0.2-0.4,0.2c-0.8,0.3-1.1,0.2-1.7,0.6
							c-0.1,0,0,0.1-0.1,0.2c-0.1,0.1-0.3,0-0.3,0.1c0,0.1,0.2,0.7,0.3,0.8c0.1,0.1,0.3-0.1,0.4,0c0.1,0.1-0.1,0.3,0,0.5
							c0,0.2,0.3,0.4,0.2,0.5c-0.7,1-0.7-1-1.5-0.1c-0.1,0.1-0.1,0.2-0.1,0.4c0,0.3-0.1,0.5-0.1,0.8c0,0.4,0.2,0.7,0.3,1.1
							c0,0.1,0.2,0.2,0.1,0.2c-0.2,0.1-0.5-0.1-0.7,0.1c-0.1,0.1,0,0.4-0.1,0.5c-0.4,0.2-0.5-0.3-0.8-0.3c-0.3,0-0.5,0.2-0.8,0.3
							c-0.1,0-0.2,0-0.2,0.1c-0.1,0.1-0.1,0.2-0.2,0.3c-0.1,0.1-0.3,0.1-0.5,0.1c-0.2,0.1-0.5,0.2-0.6,0.3c0,0,0.1,0.2,0,0.1
							c-0.4-0.2-0.7-0.6-1.1-0.7c-0.1,0-0.1,0.3-0.2,0.4c-0.6,0.3-1,0.2-1.3-0.3c-0.1-0.1,0.1-0.2,0.1-0.3c-0.1-0.1-0.3,0-0.3-0.1
							c-0.1-0.3,0-0.6,0.1-0.8c0-0.1,0.2,0.1,0.3,0c0.1-0.1,0.1-0.4,0.2-0.5c0.1-0.1,0.1,0.1,0.2,0.1c0.3-0.2,0-1.3-0.1-1.5
							c-0.1-0.1-0.2,0.1-0.3,0.2c-0.1,0.1-0.3,0.2-0.3,0.4c0,0.1,0.4,0,0.3,0.1c-0.1,0.2-0.4,0.1-0.5,0.2c-0.1,0.1-0.7,0.8-0.6,1.2
							c0.1,0.4,0.4,0.8,0.5,1.2c0,0.1-0.1,0.3-0.1,0.4c0.1,0.2,0.8,0.3,0.6,0.4c-0.3,0.1-0.4-0.4-0.7-0.4c-0.2,0,0,0.5-0.1,0.5
							c-0.2,0.1-0.2-0.4-0.3-0.4c-0.2,0-0.3,0.4-0.5,0.5c-0.2,0.1-0.5-0.2-0.7-0.2c-0.2,0-0.4,0.3-0.6,0.4c-0.1,0-0.2-0.1-0.2,0
							c-0.1,0.2-0.2,0.5-0.3,0.7c-0.1,0.1-0.2,0.2-0.3,0.4c0,0.1,0.2,0.3,0.1,0.4c-0.2,0.1-0.4-0.1-0.5-0.1
							c-0.2,0.1-0.4,0.3-0.6,0.4c-0.2,0.1-0.5,0-0.6,0.2c-0.1,0.2,0.1,0.5,0,0.7c-0.2,0.2-0.5,0.1-0.7,0.2c-0.2,0.1-0.3,0.2-0.4,0.3
							c0,0,0,0.2-0.1,0.2c-0.2,0-0.5,0-0.7-0.1c-0.1-0.1,0.1-0.3,0-0.4c-0.1-0.1-0.4-0.2-0.4-0.1c-0.6,1,1.1,0.1-0.2,1
							c-0.1,0.1-0.4,0.2-0.5,0.1c-0.2-0.1-0.1-0.3-0.3-0.4c0,0-1.1,0.1-1.1,0.2c0.1,0.5,0.5,0.9,0.9,1.2c0.1,0.1,0.5-0.4,0.5,0
							c0,0.1-0.2,0.1-0.1,0.2c0.1,0.1,0.5,0,0.5,0.2c0.1,0.2-0.3,0.2-0.3,0.3c0,0.1,0.1,0.3,0.2,0.4c0.1,0.3,0.3,0.7,0.3,1
							c0.1,1-0.1,0.7-0.3,1.3c-0.1,0.2-0.1,0.5-0.3,0.7c-0.2,0.3-0.6,0-0.9-0.1c-0.1,0-0.1,0.1-0.2,0.1c-0.1,0-0.2-0.2-0.4-0.3
							c-0.2-0.1-0.4,0.1-0.7,0c-0.6-0.1-1.2-0.4-1.7-0.5c0,0,0,0.1,0,0.1c-0.2-0.1-0.3-0.4-0.5-0.4c-2,0.1-0.7,0.6-0.8,1.3
							c-0.1,0.5-0.3,1-0.4,1.5c0,0,0.1,0.1,0,0.1c-0.1,0.4-0.5,1-0.7,1.2c0,0-0.1,0-0.2,0c-0.1,0.2-0.2,0.4-0.2,0.6
							c0.1,0.9,0.5,1.4,1.2,1.9c0.1,0.1,0.3-0.1,0.4,0c0.2,0.1,0.1,0.4,0.2,0.6c0.2,0.3,0.5,0.5,0.7,0.8c0,0,0,0,0,0
							c0.8-0.1,1.6-0.2,2.5-0.3c0.1,0,0.1,0.2,0.2,0.1c0.2-0.2,0.3-0.5,0.5-0.6c0.2-0.1,0.6,0,0.8-0.1c0.1-0.1,0-0.4,0.1-0.5
							c0.1-0.2,0.4-0.2,0.6-0.4c0,0-0.2-0.9-0.2-0.9c0-0.2,0.2-0.3,0.3-0.4c0.4-0.5,0.6-0.9,1.3-1.1c0.6-0.2,0.5,0.3,1.2-0.5
							c0.2-0.2,0.2-0.5,0.3-0.7c0-0.2-0.2-0.6,0-0.7c0.4-0.3,1-0.3,1.5-0.3c0.1,0,0,0.1,0,0.2c0,0.1,0.2,0.1,0.2,0.2
							c0.2,0.1,0.4,0.3,0.6,0.2c0.4-0.1,0.6-0.4,1-0.7c0.1-0.1,0.4-0.1,0.5-0.2c0.2-0.1,0.3-0.5,0.5-0.5c0.8-0.1,1.1,0.7,1.3,1.3
							c0,0.1-0.1,0.2,0,0.3c0.1,0.2,0.3,0.4,0.5,0.6c0.1,0.1,0.3,0,0.4,0.1c0.1,0.1,0.1,0.2,0.2,0.3c0.3,0.2,0.6,0.4,0.9,0.7
							c0,0.1,0,0.2,0.1,0.2c0.2,0,0.4-0.1,0.5-0.1c0.2,0.1,0.1,0.4,0.3,0.5c0.2,0.1,0.4,0,0.6,0.1c0.2,0.2,0.2,0.5,0.4,0.6
							c0.1,0.1,0.3-0.1,0.3,0c0.2,0.3,0.4,0.7,0.5,1.1c0,0.2-0.6,0.8-0.4,1c0.4,0.3,0.6-0.2,0.7-0.5c0-0.1-0.1-0.3,0-0.4
							c0.1-0.1,0.4-0.1,0.5-0.3c0.4-0.7-0.9-0.2-0.5-1.1c0.2-0.5,0.4-0.6,1-0.3c0.1,0.1,0.1,0.3,0.2,0.4c0.1,0.1,0.5,0.2,0.3-0.2
							c-0.3-0.8-1.4-0.8-2.1-1.2c-0.5-0.3-1.1-0.7-1.5-1.1c-0.3-0.3-0.2-0.9-0.4-1c-0.3-0.2-1.2-0.6-1-1.2c0.1-0.5,0.6-0.8,0.9-1.1
							c0.1,0,0.1,0.1,0.1,0.2c0.2,0.1,0.5,0.1,0.6,0.3c0.2,0.2,0.2,0.5,0.3,0.7c0.1,0.1,0.4,0.1,0.4,0.3c0,0.1-0.3,0-0.3,0.1
							c0.6,1.3,1.7,0.2,2,1.3c0.1,0.2-0.7-0.2-0.6-0.1c0.4,0.2,0.9,0.3,1.3,0.4c0,0-0.1,0.1-0.1,0.1c0.3,0.7,0.6,1.3,0.9,1.9
							c0,0-0.2,0-0.2,0c0.1,0.2,0.4,0.2,0.5,0.4c0.1,0.1,0.1,0.2,0.2,0.3c0.1,0.1,0.2,0.2,0.3,0.4c0.1,0.2,0.2,0.3,0.3,0.5
							c0.2,0.2,0.4,0.4,0.7,0.4c0.2,0.1,0.5,0,0.7-0.1c0,0,0-0.1,0-0.1c0.2,0,0.5,0,0.7,0.2c0.1,0.1-0.1,0.3-0.3,0.3
							c-0.4,0-1.3-0.9-1.4,0.3c0,0.2,0.4,0.2,0.5,0.4c0.1,0.2-0.1,0.5,0.1,0.6c0.1,0.1,0.2-0.3,0.3-0.3c0.2,0.1,0.1,0.5,0.3,0.5
							c0.1,0,0.1-0.4,0.2-0.4c0.2,0,0.2,0.3,0.4,0.3c0.1,0-0.1-0.2-0.1-0.3c-0.1-0.3-0.4-0.5-0.4-0.8c-0.1-0.2,0.4-0.6,0.6-0.6
							c0.2,0,0.3,0.4,0.4,0.4c0.2-0.1,0.1-0.4-0.1-0.6c-0.1-0.1-0.6-0.4-0.9-0.4c-0.1,0-0.5,0.1-0.4,0c0.1-0.2,0.6-0.2,0.6-0.4
							c0.1-0.7-0.5-0.4-0.7-0.8c-0.1-0.1-0.2-0.4-0.1-0.5c0.4-0.1,0.9,0.6,1.1,0.4c0.1-0.1-0.3-0.3-0.2-0.4c0.1-0.1,0.5,0.3,0.4,0.2
							c-0.1-0.2-0.5-0.3-0.6-0.5c0-0.1,0.2,0,0.3,0c0.2-0.1,0.3-0.1,0.5-0.2c0.1-0.1,0.1-0.2,0.2-0.2c0.2,0,0.5,0,0.7,0.2
							c0.2,0.2,0,0.6,0.2,0.7c0.2,0.1,0.2-0.3,0.3-0.5c0.1-0.1,0.3-0.2,0.4-0.3c0.1-0.1,0-0.3,0.1-0.3c0.3-0.1,0.6-0.1,1-0.2
							c0,0,0.1,0,0.1-0.1c-0.2-0.2-0.5-0.2-0.7-0.4c-0.1-0.1-0.1-0.3-0.2-0.4c-0.1-0.2-0.4-0.2-0.5-0.4c-0.1-0.3,0.1-0.5,0.2-0.8
							c0.1-0.5,0.2-1,0.3-1.5c0-0.1-0.1-0.3,0-0.4c0.1-0.2,0.3-0.3,0.5-0.4c0,0,0.2-0.5,0.2-0.7c0.1-0.2,0.1-0.5,0.2-0.7
							c0.1-0.2,0.2-0.3,0.4-0.3c0.1,0,0.3,0.2,0.3,0.1c0-0.2-0.4-0.7-0.3-0.6c0.2,0.2,0.3,0.5,0.4,0.8c0,0.1-0.2,0.1-0.1,0.2
							c0.3,0.2,0.8,0.1,1.1,0c0,0,0-0.1,0.1-0.1c0.1,0,0.2,0.1,0.2,0.2c-0.1,0.1-0.9,0.4-0.7,0.7c0.2,0.2,0.6,0,0.8,0.1
							c0.1,0.1-0.1,0.8,0.2,0.6c0.2-0.1,0.3-0.3,0.4-0.4c0.1-0.1,0.3-0.1,0.4-0.2c0.1-0.1,0.1-0.3,0.2-0.4c0.2-0.1,0.7,0.1,0.6-0.1
							c-0.2-0.2-0.5-0.1-0.8-0.2c-0.1-0.1-0.6-0.6-0.5-0.7c0.5-1,0.3-0.3,1-0.8c0.1-0.1,0-0.2,0.1-0.3c0.2-0.2,0.4-0.3,0.6-0.5
							c0.2-0.1,0.5-0.4,0.7-0.2c0.5,0.5-0.8,0.7-0.8,0.7c-0.3,0.4,0.5,0,0.7,0.4c0.1,0.1-0.3,0-0.4,0.1c-0.1,0.2,0.2,0.5,0.1,0.7
							c-0.1,0.2-0.8,0.1-0.7,0.3c0.3,0.4,0.8,0.3,1.2,0.5c0.1,0,0.3,0,0.4,0c0.3,0.1,0.6,0.4,0.9,0.5c0.8,0.3,1.4,0.2,1.7,1.2
							c0,0.1,0,0.3,0,0.4c-0.2,0.3-0.4,0.7-0.6,0.9c-0.1,0.1-0.4,0-0.5,0c-0.8,0-1.6,0.1-2.3,0.2c-0.2,0-0.3,0.2-0.5,0.1
							c-0.1,0-0.2-0.3-0.3-0.3c-0.3,0-0.5,0.2-0.7,0.3c-0.1,0-0.2,0-0.3,0c-0.5,0.2-0.7,0.7-1.2,1c-0.3,0.2-0.6,0.3-0.9,0.4
							c-0.1,0-0.3-0.1-0.3,0c-0.2,0.2-0.2,0.6-0.5,0.8c-0.2,0.2-0.6,0.3-0.9,0.4c-0.3,0.1-1-0.2-1,0.5c0.1,1.5,0.6,0,0.9,1
							c0,0.1-0.3,0.2-0.2,0.3c0,0.1,0.5,0,0.4,0.1c-0.1,0.2-0.8,0.1-0.7,0.3c0.1,0.3,0.6,0,0.8,0.2c0.1,0.1-0.2,0.3-0.2,0.3
							c0.2,0.2,0.6,0.3,0.9,0.5c0.1,0,0.2-0.1,0.2,0c-0.2,0.2-0.6,0.2-0.7,0.5c0,0.2,0.4,0.1,0.5,0c0.1-0.1,0.1-0.4,0.3-0.4
							c3,0-1.4,0.7,1.1,0.6c1.1,0,0-1,0.9-1c0.3,0,0.5,0,0.8,0.1c0.2,0.1,0.3,0.5,0.7,0.4c2.2-0.9-0.6,0,1.2-1.2
							c0.2-0.1,0.4,0.2,0.5,0.1c0.2-0.1,0.2-0.6,0.4-0.5c0.2,0.1,0,0.4,0,0.7c0,0.2,0.1,0.5,0.1,0.7c0,0.1,0.1,0.1,0.2,0.1
							c0.5,1.1,0,1.8-0.1,3.2c0,0.3,0,1-0.3,1.2c-0.6,0.3-1.2,0.2-1.8,0.3L493,195.8z"/>
						<path class="st36" d="M440.7,215.2c-3.3-4-5.9-8.6-7.6-13.6c-0.6-1.8-1.1-3.7-1.5-5.5c-0.1-0.7-0.4-1.4-0.4-2.1
							c0-1.8-0.1-3.5-0.1-5.3l-0.1,0.1c0.1,1.3-0.6,1.8,0.6,7c0,0.1,0-0.2,0-0.1c0.3,0.9,0.7,2.5,0.9,3.3c0.1,0.6,0.3,1.2,0.4,1.7
							c0.1,0.3,0.4,0.6,0.3,1c0,0.1-0.2,0-0.2,0.1c0,0.2,0.7,1.6,0.8,1.8c0,0.1,0,0.3,0.1,0.4c0.1,0.2,0.3,0.2,0.4,0.4
							c0.1,0.1,0.2,0.4,0.2,0.5c0.2,0.4,0.4,0.8,0.6,1.2c0.1,0.2,0.1,0.5,0.2,0.8c0,0.1,0.2,0.1,0.3,0.2c0.2,0.2,0.3,0.6,0.5,0.8
							c0.3,0.4,0.6,0.8,0.8,1.1c0.6,0.8,1,1.7,1.6,2.5c0.9,1.2-0.4-0.7,0.8,1c0.2,0.3,0.9,1.5,0.9,1.8c0,1.1-0.5,0-0.6,0.1
							c-0.1,0.1,0.2,0.3,0.3,0.4c0,0-0.1-0.1-0.1-0.1c0.2,0.3,0.5,0.7,0.8,1L440.7,215.2z"/>
					</g>
				</g>
			</g>
			<g>
				
					<rect x="450.7" y="218.1" transform="matrix(0.7071 -0.7071 0.7071 0.7071 -22.3976 387.6995)" class="st37" width="12.2" height="5.5"/>
				<path class="st13" d="M496.9,180.8c-10.2-10.2-26.6-10.2-36.8,0c-10.2,10.2-10.2,26.6,0,36.8c10.2,10.2,26.6,10.2,36.8,0
					C507,207.5,507,191,496.9,180.8L496.9,180.8z M494.8,182.9c9,9,9,23.7,0,32.7c-9,9-23.7,9-32.7,0c-9-9-9-23.7,0-32.7
					C471.1,173.8,485.8,173.8,494.8,182.9z"/>
				<ellipse transform="matrix(0.707 -0.7072 0.7072 0.707 -48.8298 376.8178)" class="st37" cx="430.3" cy="247.3" rx="2" ry="3"/>
				<path class="st13" d="M456,226.1l-4.4-4.4c-0.5-0.5-1.4-0.5-2,0l-22.1,22.1c-0.5,0.5-0.5,1.4,0,2l4.4,4.4c0.5,0.5,1.4,0.5,2,0
					l22.1-22.1C456.5,227.5,456.5,226.6,456,226.1z"/>
				<path class="st38" d="M448.9,222.5l-0.9,0.9l6.4,6.4l0.9-0.9L448.9,222.5L448.9,222.5z M428.9,242.4l-0.9,0.9l6.4,6.4l0.9-0.9
					L428.9,242.4z"/>
				<path class="st39" d="M461.8,215.9c-9.2-9.2-9.2-24.2,0-33.4c9.2-9.2,24.2-9.2,33.4,0c9.2,9.2,9.2,24.2,0,33.4
					C485.9,225.1,471,225.1,461.8,215.9L461.8,215.9z M462.6,215.1c8.7,8.7,22.9,8.7,31.7,0c8.7-8.7,8.7-22.9,0-31.7
					c-8.7-8.7-22.9-8.7-31.7,0C453.9,192.1,453.9,206.3,462.6,215.1z"/>
				
					<ellipse transform="matrix(0.7071 -0.7071 0.7071 0.7071 -0.7378 396.6735)" class="st40" cx="478.5" cy="199.2" rx="22.9" ry="22.9"/>
				<g>
					<defs>
						
							<ellipse id="SVGID_3_" transform="matrix(0.7071 -0.7071 0.7071 0.7071 -0.7378 396.6735)" cx="478.5" cy="199.2" rx="22.9" ry="22.9"/>
					</defs>
					<clipPath id="SVGID_4_">
						<use xlink:href="#SVGID_3_"  style="overflow:visible;"/>
					</clipPath>
					<g class="st41">
						<g>
							<g>
								<polygon class="st42" points="505.9,237.7 505.9,204.3 505.9,158.8 476.2,158.7 449,158.7 448.9,192.3 448.9,237.7 
									471.8,237.7 								"/>
								<path class="st16" d="M487.4,158.7l-10.5,0l0.1,0.2c0.5,2.2,1,4.3,1.3,6.5c0.3,1.9,0.5,3.9,0.5,5.8c0,1.3-0.4,2.6-1,3.9
									l-8.7-4.3l0,0c0,0-5.4-2-11.2-4.1l3.1-8h-1l-2.9,7.7c-2.8-1-5.6-2-7.9-2.9v0.9c2.3,0.8,5.1,1.8,7.8,2.8l1.1,6.3l-8.9-4.8v1
									l15.1,8.1l5.6,5.2c-6.7,4.5-15.6,8-20.7,10v16.1l0.6-0.4c3.1-1.9,6.3-3.7,9.4-5.6l4.6,2.8l-13.8,13.2l0.7,0.6l13.9-13.3
									l17.3,10.4l0.5-0.7l-22.3-13.5c0.7-0.4,1.4-0.8,2.1-1.2c5.2-3.1,10.5-6.3,15.2-10c3.8-3,7.9-6.8,9.8-11.2
									C489.8,173.8,488.9,165.5,487.4,158.7L487.4,158.7z M477.3,175.9L477.3,175.9c-1.5,2.4-3.9,4.6-6.9,6.7l-5.7-5.3l-0.1-0.1
									l-5.7-3l-1.2-6.5c5.5,2,10.5,3.8,10.8,4L477.3,175.9z"/>
								<path class="st43" d="M486.2,158.7l-8.1,0c0.9,3.6,1.9,8.7,1.9,12.6c0,9.8-17.5,17.8-31,23v13.6c13.8-8.4,32.3-17.5,36.9-28
									C488.7,173.5,487.7,165.1,486.2,158.7z"/>
								<path class="st16" d="M448.9,176.3l9.2,6.7l20.9,15.3l-4.1,4.6l-7.9-5.4l-0.6,0.7l7.9,5.4l-16.3,18.3l0.7,0.6l20.9-23.5
									l26.1,19.1v-3.4l-46-33.7l-10.1-7.4l2.6-8.4l0,0l1.2-6.4h-1l-1.1,6.3l-2.5,8l0,0V176.3L448.9,176.3z M448.9,186.6
									L448.9,186.6v-0.9c3.1-1,7.3-2.6,10.6-4.9c8.4-5.8,11.6-13.1,11.9-22h1c-0.4,9.2-3.7,16.7-12.3,22.7
									C456.6,183.9,452.1,185.6,448.9,186.6z"/>
								<path class="st16" d="M464.3,187.5l8.2,6c0.8-0.6,1.6-1.1,2.3-1.7l-7.9-5.8C466.1,186.6,465.2,187.1,464.3,187.5z"/>
								<path class="st16" d="M496.8,158.7c0,2.4,0,4.7-0.1,7c-0.2,4.7-0.8,9.2-1.7,13.6l-4.2-1.4l-0.3,0.8l4.3,1.4
									c-5.3,26.6-20.2,47.3-28.2,56.9c-0.2,0.2-0.4,0.5-0.6,0.7h2.4c7.1-8.6,19.2-25.4,25.8-47.3l11.7,7.4v-1.1l-11.4-7.2
									c0.9-3,1.6-6.1,2.3-9.3c0.4-2.2,0.8-4.4,1.1-6.6l8,1.7v-0.9l-7.9-1.7c0.3-2.3,0.5-4.6,0.6-6.9c0-0.8,0.1-1.6,0.1-2.4
									l7.2-1.5V161l-7.2,1.5c0-1.2,0-2.5,0-3.8H496.8z"/>
								<path class="st16" d="M448.9,220c1.9,0.7,3.7,1.3,5.6,1.9l-3.2,5.1l-2.4-1.1v1l1.9,0.9l-1.9,3v1.7l2.7-4.3l11,5.2l0,0
									l5.9,2.9l0.4-0.8l-5.9-2.9l0,0l-11-5.2l3.3-5.2c11.1,3.3,22.6,5.1,34.2,6.5c0.6,1.5,2.6,5.9,4.2,9h2
									c-1.3-2.5-3.1-6.7-4.1-8.8c3.7,0.4,7.4,0.8,11.2,1.2c1,0.1,2,0.2,2.9,0.3v-1.8c-0.9-0.1-1.8-0.2-2.7-0.3
									c-3.8-0.4-7.7-0.8-11.5-1.2l6.6-15.8l7.6-9.9v-3l-9.3,12l-0.1,0.2l-6.8,16.4c-14-1.6-27.8-3.9-40.8-8.8V220z"/>
								<path class="st16" d="M491.8,158.7c0.3,4.8,0.2,10.2-0.7,15.7c-1.4,8.1-4.8,16.4-11.7,23.6l0.7,0.6c7-7.3,10.4-15.8,11.9-24
									c1-5.5,1.1-11,0.8-15.8H491.8z"/>
							</g>
							<path class="st44" d="M494.2,190.4l11.7,7.4v0.6l-8,10.4l-8.1-5.9C491.4,198.9,492.9,194.8,494.2,190.4z"/>
							<path class="st44" d="M471.5,158.7c-0.2,4.4-1,8.4-2.9,12l-10.9-4l3.1-8H471.5z"/>
							<path class="st44" d="M449.6,208.8c3.1-1.9,6.3-3.7,9.4-5.6l4.6,2.8l-13.2,12.6c-0.5-0.2-1-0.3-1.4-0.5v-8.9L449.6,208.8z"/>
							<path class="st44" d="M468.5,237.7c2.3-2.8,5.1-6.4,8.1-10.8c4.3,0.7,8.7,1.3,13.1,1.8c0.6,1.5,2.6,5.9,4.2,9h-22
								L468.5,237.7z"/>
							<path class="st44" d="M505.9,174.3l-7.9-1.7c0.3-2.3,0.5-4.6,0.6-6.9c0-0.8,0.1-1.6,0.1-2.4l7.2-1.5V174.3z"/>
							<path class="st45" d="M470,209.9l10.9,6.6c-1.7,3.1-3.5,5.9-5.2,8.5c-5.4-0.9-10.8-2-16-3.4L470,209.9z"/>
							<path class="st45" d="M470.4,182.6l-5.5-5.1c1.7-1.7,3.1-3.6,4.2-5.6l8.2,4.1C475.8,178.3,473.4,180.5,470.4,182.6z"/>
							<path class="st45" d="M477.1,191.5c3.8-3,7.9-6.8,9.8-11.2c2.8-6.5,2-14.8,0.5-21.6l4.4,0c0.3,4.8,0.2,10.2-0.7,15.7
								c-1.3,7.5-4.3,15.1-10.2,21.9l-5.1-3.7C476.2,192.2,476.7,191.9,477.1,191.5z"/>
						</g>
					</g>
				</g>
			</g>
			<g>
				<path class="st46" d="M100.5,337L100.5,337c12.9,0,23.4,10.6,23.4,23.4v19.4c0,12.9-10.6,23.4-23.4,23.4l0,0
					c-12.9,0-23.4-10.6-23.4-23.4v-19.4C77,347.6,87.6,337,100.5,337z"/>
				<path class="st47" d="M100.5,403.4c-12.9,0-23.4-10.6-23.4-23.4v-19.4c0-12.9,10.6-23.4,23.4-23.4V403.4z"/>
				<g>
					<path class="st48" d="M100.5,382.8L100.5,382.8c-7,0-12.6-5.7-12.6-12.6c0-7,5.7-12.6,12.6-12.6c7,0,12.6,5.7,12.6,12.6
						C113.1,377.2,107.5,382.8,100.5,382.8z M100.5,365.6c-2.5,0-4.6,2.1-4.6,4.6c0,2.5,2.1,4.6,4.6,4.6c2.5,0,4.6-2.1,4.6-4.6
						C105.1,367.7,103,365.6,100.5,365.6z"/>
				</g>
				<g>
					<g>
						<path class="st49" d="M100.5,361.6c4.8,0,8.6,3.9,8.6,8.6c0,4.7-3.9,8.6-8.6,8.6c-4.8,0-8.6-3.9-8.6-8.6
							C91.9,365.5,95.7,361.6,100.5,361.6z"/>
					</g>
				</g>
				<path class="st1" d="M100.5,361.6c-4.8,0-8.6,3.9-8.6,8.6c0,4.7,3.9,8.6,8.6,8.6V361.6z"/>
				<line class="st50" x1="100.5" y1="317.4" x2="100.5" y2="337.3"/>
				<path class="st51" d="M122.9,319.5c-3,9.6-11.9,16.6-22.4,16.6l0,0c-10.5,0-19.5-7-22.4-16.6H122.9z"/>
				<path class="st52" d="M100.5,336.1L100.5,336.1v-16.6H78.1C81,329.1,90,336.1,100.5,336.1z"/>
				<circle class="st53" cx="100.5" cy="315" r="3.6"/>
				<path class="st54" d="M100.5,318.5c-2,0-3.6-1.6-3.6-3.6c0-2,1.6-3.6,3.6-3.6V318.5z"/>
				<line class="st50" x1="100.5" y1="423" x2="100.5" y2="403.1"/>
				<path class="st51" d="M122.9,420.9c-3-9.6-11.9-16.6-22.4-16.6l0,0c-10.5,0-19.5,7-22.4,16.6H122.9z"/>
				<path class="st52" d="M100.5,404.3L100.5,404.3v16.6H78.1C81,411.3,90,404.3,100.5,404.3z"/>
				<circle class="st53" cx="100.5" cy="425.5" r="3.6"/>
				<path class="st54" d="M100.5,421.9c-2,0-3.6,1.6-3.6,3.6c0,2,1.6,3.6,3.6,3.6V421.9z"/>
			</g>
			<g>
				<path class="st55" d="M487.4,355.7v-37.9c0-1.3,0.3-2.5,0.8-3.6c0.5-1.1,1.2-2.1,2.1-3c0.9-0.9,1.9-1.6,3-2.1
					c1.1-0.5,2.3-0.8,3.6-0.8h37.9c1.3,0,2.5,0.3,3.6,0.8c1.1,0.5,2.1,1.2,3,2.1c0.9,0.9,1.6,1.9,2.1,3c0.5,1.1,0.8,2.3,0.8,3.6
					v37.9c0,1.3-0.3,2.5-0.8,3.6c-0.5,1.1-1.2,2.1-2.1,3c-0.9,0.9-1.9,1.6-3,2.1c-1.1,0.5-2.3,0.8-3.6,0.8h-10.1v-21.5h9.5v-9.5
					h-9.5v-3.8c0-0.8,0.2-1.4,0.6-1.8c0.4-0.5,0.8-0.7,1.2-0.7h7.7v-9.6h-7.7c-1.5,0-2.9,0.3-4.2,1s-2.4,1.6-3.4,2.7
					c-1,1.1-1.7,2.4-2.3,3.9c-0.6,1.5-0.8,3-0.8,4.6v3.7h-7v9.5h7v21.5h-18.9c-1.3,0-2.5-0.3-3.6-0.8c-1.1-0.5-2.1-1.2-3-2.1
					c-0.9-0.9-1.6-1.9-2.1-3C487.7,358.2,487.4,357,487.4,355.7z"/>
			</g>
		</g>
	</g>
	<g>
		<defs>
			<circle id="SVGID_5_" cx="306" cy="306" r="306"/>
		</defs>
		<clipPath id="SVGID_6_">
			<use xlink:href="#SVGID_5_"  style="overflow:visible;"/>
		</clipPath>
		<g class="st56">
			<polygon class="st57" points="386.2,427.3 445,476.7 507.3,464.7 505.6,442.1 432.2,380.7 			"/>
			<path class="st58" d="M427.5,470c-24.3-17.6,23-84.3,42.5-70.2C496.6,419,453.5,488.9,427.5,470z"/>
			<path class="st59" d="M419,459.5c-22.5-16.3,21.3-78.2,39.4-65.1C483.2,412.3,443.2,477,419,459.5z"/>
			<polygon class="st57" points="437.5,386.9 514.7,442.8 518.2,462.6 448.4,476 403.3,443.4 			"/>
			<path class="st60" d="M446.4,392.6l65.7,47.7l2.2,12.9L467.1,419l-35.5,44.2l-13.5-9.1c15.9-7.7,28.6-18.1,32.2-39.6
				C451.7,405.9,449.8,399.2,446.4,392.6z"/>
			<path class="st61" d="M458.5,394.4l52.2,37.8L516,463l-72.9,14L419,459.5c14-7.6,24.1-16.9,30.6-28
				C456,420.7,458.8,408.3,458.5,394.4z"/>
			<path class="st62" d="M470,399.8l111.2,78.9l-20.3,25.4l-42,43.5L427.5,470c15.1-8.2,26-18.3,32.9-30.2
				C467.3,428.2,470.4,414.8,470,399.8z"/>
		</g>
		<g class="st56">
			<g>
				<path class="st60" d="M317.8,405.9c-2.2,3.5-1.3,8.4,2.3,10.2l38.5,20c6.3,3.3,33.3,9.5,37.1,3.5c3.8-6-12.9-19.6-19.3-22.7
					l-31.1-15.2C335,396.5,322.4,398.5,317.8,405.9z"/>
				<path class="st63" d="M332.8,422.6c1.8-5.4,1.7-6.8,1.8-11.1c-5.7-3.5-14.3-1-15.5,3.8C320.9,417.6,330.1,421.8,332.8,422.6z"/>
			</g>
			<path class="st57" d="M300.3,344.7l26.8,22.2c-3-10.3,10.5-19.1,20.3-12.9c-4.5-10.1,7.5-19.5,17.4-15.6
				c-2.6-10,11.2-18.3,20.4-10.9l42,33.9c12.9,10.4,22.9,38.1,23.4,49.1c0.5,10.2-15.4,7.4-19.2,14c-6.5,11.2-7,22.6-23.9,20.7
				c-12.4-1.3-21.4-0.9-27.8-5.9l-95.6-75C269.1,352.5,288.2,334.7,300.3,344.7z"/>
			<path class="st64" d="M296.8,346l4.7,3.8c-2,5.3-6.3,11-12.4,14.9l-4.3-3.5C274,352.4,287.8,338.6,296.8,346z"/>
			<path class="st60" d="M380,349.7c0,0-8.2-6.9-15.5-13c0,0.6,0.1,1.1,0.3,1.7c-0.9-0.3-1.8-0.6-2.6-0.7
				C370.1,343.2,380,349.7,380,349.7L380,349.7z M345.7,380.8v-0.4c1.7,1.5,2.8,2.4,2.8,2.4S347.4,382,345.7,380.8L345.7,380.8z
				 M345.7,354.1v-1c0.5,0.2,1.1,0.5,1.6,0.9c-0.3-0.7-0.5-1.3-0.7-2c8.1,6.7,18.2,15,18.2,15S353.9,359.8,345.7,354.1z
				 M345.7,353.1v1c-1-0.7-1.9-1.3-2.8-1.9C343.9,352.4,344.8,352.7,345.7,353.1L345.7,353.1z M345.7,380.3v0.4
				c-4.7-3.4-14.1-10.2-18.6-13.8c0.1,0.1,0.1,0-0.1-0.3c-0.2-0.9-0.4-1.8-0.3-2.7C332.5,368.8,341.3,376.5,345.7,380.3z"/>
		</g>
	</g>
</g>
</svg>
