<?xml version="1.0" encoding="utf-8"?>
<!-- Generator: Adobe Illustrator 20.0.0, SVG Export Plug-In . SVG Version: 6.00 Build 0)  -->
<svg version="1.1" id="Layer_1" xmlns="http://www.w3.org/2000/svg" xmlns:xlink="http://www.w3.org/1999/xlink" x="0px" y="0px"
	 viewBox="0 0 612 612" style="enable-background:new 0 0 612 612;" xml:space="preserve">
<style type="text/css">
	.st0{clip-path:url(#SVGID_3_);}
	.st1{clip-path:url(#SVGID_5_);}
	.st2{opacity:0.2;}
	.st3{fill:#95A8B1;}
	.st4{fill:url(#SVGID_6_);}
	.st5{fill:#FFFFFF;}
	.st6{fill:url(#SVGID_7_);}
	.st7{fill:#1E8FC0;}
	.st8{fill:#F9A73D;}
	.st9{fill:#F79832;}
	.st10{fill:#F8D09A;}
	.st11{opacity:0.1;}
	.st12{clip-path:url(#SVGID_11_);fill:#DCAB8B;}
	.st13{fill:#FFE0A9;}
	.st14{fill:#06253F;}
	.st15{fill:#03455C;}
	.st16{fill:#0E303F;}
	.st17{clip-path:url(#SVGID_13_);fill:#FFFFFF;}
	.st18{fill:#2C5871;}
	.st19{clip-path:url(#SVGID_15_);fill:#FFFFFF;}
	.st20{clip-path:url(#SVGID_17_);fill:#DCAB8B;}
	.st21{clip-path:url(#SVGID_19_);fill:#FFFFFF;}
	.st22{clip-path:url(#SVGID_21_);fill:#FFFFFF;}
	.st23{fill:#F1C8A4;}
	.st24{fill:#E3B590;}
	.st25{fill:#FDDAB6;}
	.st26{clip-path:url(#SVGID_23_);fill:#DCAB8B;}
	.st27{fill:#F7E3CB;}
	.st28{fill:#F1F1F1;}
	.st29{fill:#A86B29;}
	.st30{fill:#BF2F2D;}
	.st31{fill:#AD2D2A;}
	.st32{fill:#955A24;}
	.st33{fill:none;stroke:#FFFFFF;stroke-miterlimit:10;}
	.st34{clip-path:url(#SVGID_27_);fill:#DCAB8B;}
	.st35{clip-path:url(#SVGID_31_);fill:#DCAB8B;}
	.st36{clip-path:url(#SVGID_33_);fill:#FFFFFF;}
	.st37{clip-path:url(#SVGID_35_);fill:#FFFFFF;}
	.st38{clip-path:url(#SVGID_37_);fill:#DCAB8B;}
	.st39{fill:url(#SVGID_38_);}
	.st40{fill:url(#SVGID_41_);}
	.st41{clip-path:url(#SVGID_45_);fill:#DCAB8B;}
	.st42{fill:url(#SVGID_46_);}
	.st43{fill:url(#SVGID_47_);}
	.st44{fill:url(#SVGID_48_);}
	.st45{fill:url(#SVGID_49_);}
	.st46{fill:#546E7A;}
	.st47{fill:url(#SVGID_50_);}
	.st48{fill:url(#SVGID_51_);}
	.st49{fill:#5AC7DA;}
	.st50{fill:#FFFFFF;stroke:#5AC7DA;stroke-miterlimit:10;}
	.st51{fill:#F37046;}
	.st52{fill:url(#SVGID_54_);}
	.st53{fill:#9EAAAB;}
	.st54{fill:url(#SVGID_55_);}
	.st55{fill:#FFFFFF;stroke:#1E8FC0;stroke-width:3;stroke-miterlimit:10;}
</style>
<g>
	<defs>
		<circle id="SVGID_1_" cx="306" cy="306" r="306"/>
	</defs>
	<radialGradient id="SVGID_2_" cx="306" cy="306" r="306" gradientUnits="userSpaceOnUse">
		<stop  offset="0" style="stop-color:#FCFDFF"/>
		<stop  offset="1" style="stop-color:#9DBECA"/>
	</radialGradient>
	<use xlink:href="#SVGID_1_"  style="overflow:visible;fill:url(#SVGID_2_);"/>
	<clipPath id="SVGID_3_">
		<use xlink:href="#SVGID_1_"  style="overflow:visible;"/>
	</clipPath>
	<g class="st0">
		<g>
			<defs>
				<circle id="SVGID_4_" cx="306" cy="306" r="306"/>
			</defs>
			<clipPath id="SVGID_5_">
				<use xlink:href="#SVGID_4_"  style="overflow:visible;"/>
			</clipPath>
			<g class="st1">
				<g class="st2">
					<path class="st3" d="M237.4,190c1.7,0,1.1-2.4,3.4-1.8c3.1,1.2,4.9,3.8,9.3,3.6c2.9-2.2-4.1-4-1.7-5.4c1.3,0.5,2.1,1.3,3.4,1.8
						c0.7-3.1-1-3.8-1.7-5.4c7-0.4,4.7-9.5,3.4-14.5c2.1-0.7,4.5-1.2,7.6-0.9c-0.2-4-4.6-3.6-6.8-5.5c2.6,0.4,1.9-2.8,5.1-1.8
						c0.6-2.8-1.5-2.6-0.8-5.4c3,0.5,2.1-3.2,5.1-2.7c2.1-0.7,7.3,1.8,6.8-1.8c0.8-3.3-3.7-0.9-4.2-2.7c-2-0.3-1.6-3.1-4.2-2.7
						c-3.7-0.5-7.6,3.3-9.3,1.8c0.5-4.6,7.5-2.3,8.5-6.3c-1.8-2.6-5.5-3.2-10.2-2.7c-2.7-1-6.1-2.4-7.6,0c-0.7-1.3-2.7-1.3-4.2-1.8
						c-3.4,2.4-11.7-0.4-15.2,1.8c-3.9,0.1-8.6-0.7-10.2,1.8c-0.1,2,2.3,5.9,0.8,6.3c-6.1-1-9.6,0.6-15.2-0.9
						c-8.5,1.3-12.5,7.2-21.2,8.2c-0.8,3.3,3.8,0.7,3.4,3.6c-2.4,2.2-7,2.1-9.3,4.5c-2.1-1.2-4.8-1-6,2.7c2.7-0.8,2.6,1.4,4.2,1.8
						c0-2.4,4.2-2.4,4.2,0c2.1-0.5,5.8-4,5.9,0.9c-3.6,0.4-8.7-0.9-11,0.9c0.8,3.4,4,4.2,6.8,5.4c2.6,0.7,1.6-2.5,4.2-1.8
						c2.6,1.8,5.2,3.5,10.2,2.7c-0.7,4,0.6,6,1.7,8.1c-0.3,2.1-1.4,3.4-0.8,6.3c3.4,1.8,3.9-4.2,6-0.9c0.5,3.2-2.6,2.7-5.1,2.7
						c0.7,4.1,6.4,2.8,7.6,6.3c-1.9,1.6-4.3,2.7-5.9,4.5c2.4,1.2-2.6,1.9-1.7,4.5c6,4.4,1.4,14.7,5.9,20.8h6
						c2.5,0.1,1.5,3.8,4.2,3.6c0.9-1.8,1.5-3.9,3.4-4.5c-1-6.8,4.2-6.9,3.4-13.6c2.2-0.1,1.2-3.5,3.4-3.6c3.2,1.8,3.2-2.1,6.8,0
						c1.3-1.2,2.7-2.6,4.3-3.6c4.1-1.1,5.9-4.6,10.2-5.4c0.3-3.3,7.5-4.1,5.1-7.3C243.3,193.9,239.7,190.3,237.4,190 M245.9,186.4
						c-2.3-1.6,0-6,2.5-5.4C248,183.2,246.1,184,245.9,186.4 M251.8,142.9c-0.1,2.7-1.9,3.4-3.4,4.5c-2.6-1.8-6.4-2.2-11-1.8
						C240.3,141.9,248.2,143.5,251.8,142.9"/>
					<path class="st3" d="M132.2,156.5v5.4c2.6-0.6,3.1,0.9,5.1,0.9c0.4-4.1,5.5-8,8.5-6.3c1.3,3.8-4.4,0.1-4.2,2.7
						c2.6,1.4-2.9,1.6-2.6,3.6c2.2-0.6,3,0.4,2.6,2.7c-2,0-2.5-1.6-5.1-0.9c0.1,2.6-2.9,1.8-1.7,5.4c5.1-0.7,8.7-1.3,11,2.7
						c-6.7,1.6-11.1-3.6-15.3-1.8c-0.7,4.4,5.1,1.8,5.1,5.5c6.4-1,15,4,16.9-2.7c2.2,0.3,3.6-0.3,3.4-2.7c0.6-2.5-4,0.7-3.4-1.8h6
						c0-4.8,5.2-4.2,4.2-10c4.4-0.1,4.8-4.5,10.2-3.6c1-2.2,2.7-3.7,5.9-3.6c1.1-2.2-1.9-4.4,0-4.5c3.6-1.7,8.8,0.9,10.2-4.5
						c0-1.5-2.4-0.5-2.5-1.8c-13.9,2-32.8-2.6-47.5,3.6c-1.1,5.5,3.7,4.6,4.2,8.2c-5.5,0.5-3.8-6.8-10.2-5.5
						c-0.3,1.3-1.2,1.7-0.9,3.7c-1.4,0.1-2.9-0.1-2.6,1.8C128.9,155.8,131.9,154.8,132.2,156.5 M150,172.8c0.4,0.5-0.6,1.2-0.9,0.9
						C148.7,173.3,149.8,172.6,150,172.8"/>
					<path class="st3" d="M340.9,154.7c0.4-2.5,4.4-1.3,3.4-5.4c-7.8-1.3-15.2-1.6-22.1-1.8c-0.1,1.6,0.2,2.8,0.8,3.7
						C328.4,152.9,332.8,155.8,340.9,154.7"/>
					<path class="st3" d="M307.8,159.2c-0.1,2.2-1.6,2.8,0,4.5c3.5-0.2,3.6-4,7.6-3.6c-0.2,4-4.2,4-4.2,8.2c1.4,1.2,2.8,2.4,6,1.8
						c-0.4,2.8,1.8,2.9,4.2,2.7c0.7-3.4,1.5-6.8,2.5-9.9c2.2,2.4,3.5,5.9,9.3,4.5c0.8-6.9-4.5-7.3-6.8-10.9
						c-0.3,2.1-2.3-1.1-3.4-0.9c-2.1,0.2-3.5-0.5-4.2-1.8c2-2.4-0.7-5.3-4.3-4.5c-2.5,1.5,1.3,4.7-0.9,5.4c-1.8-4.3-9.9-8.5-10.2,0
						C303.9,157.3,307.2,156.8,307.8,159.2"/>
					<path class="st3" d="M393.5,152.9c-0.1-5.7-7.9-3.8-7.6,0.9C388.7,156.6,390.3,152.5,393.5,152.9"/>
					<path class="st3" d="M441,158.3c6.7-1.2,13.7,3.2,15.2-2.7c-2-3.5-9.8-5-14.4-2.7C440,153,441.5,156.7,441,158.3"/>
					<path class="st3" d="M612.4,212.7c2-0.3,1.6-3.1,4.2-2.7c4.4,0.1,3.8,5.6,9.3,4.5c1.1-1.6-0.8-4.5,0.9-7.2
						c-2.3-1.1-5.6-6-7.6-1.8c0.3-2.1-0.2-3.5-0.8-4.5c-4.6-1.8-7.1-5.8-14.4-4.5c-1-1.7-3.3-1.9-4.2-3.6c-5.6,0.8-6.7-3.1-12.7-1.8
						c-1.2,2.7,2.3,4.6,0,5.5c-2.5-0.4-2-3.9-4.2-4.5c-2.5,2.8-7.1,0.3-11.9,1.8c-3-2.1-2.8-7.8-9.3-6.3c-1.2,0.2-0.3,2.7-1.7,2.7
						c-3.5-1.6-7-3.4-10.2-5.4c-0.4,0.8-0.7,1.6-1.7,1.8c1.1-3.6-2-2.7-4.3-2.7c2.1-2.2-0.9-2.1-1.7-3.7c-4.1,1.6-3.8-0.5-7.6-0.9
						c-0.3,1.2-2.2,0.7-3.4,0.9c-0.9,1.7,2.5,3,0,3.7c-7.3-1.2-16.6,1.6-22.9,0c-2.1-0.6-3-3.4-5.1-2.7c-3.9,1-6.5-0.9-9.4-1.8
						c-1-0.4-2.3,0.2-3.4,0c-2.1-0.4-3.7-2.9-8.5-1.9c0.3-2.3,2.5-2.7,2.5-5.4c-1.2-2.7-3.9-3.7-5.1-6.4c-2.6,1.2-6.5,1-10.2,0.9
						c-2.1-0.8-1.8-4.1-5.1-3.6c-2,0.9-2.7,3.1-2.5,6.3c-4.2-1.5-2.7,3.2-5.9,2.7c-1.6-0.4-0.7-3.5-3.4-2.7
						c-2.2,2.5-5.3,4.1-10.2,3.6c-1.5,1.2-2.3,3.1-5.1,2.7c-1.2,1.1-0.4,4.4-2.6,4.5c-1.7,0.6-5.9-1.5-5,1.8c0,3.3,4.9,1.3,4.2,5.5
						c-3.1-1-4-4.2-8.5-3.6c0,2.4,0.5,5.3-1.7,5.4c-1-1.1-1-3.2-0.8-5.4c-3.3-0.8-1.4,3.9-5.1,2.7c-1.3-1.6-1.2-4.8-5.1-3.6
						c-2.4,3.8-5.6,6.7-8.5,10c-5.5,0.4-5.1-1.7-11-1.8c-1.4,4.5,4.4,1.4,3.4,5.5c-3.5-0.9-7.3,0.5-12.7,0
						c-3.8,1.7-5.9,5.2-10.2,6.3v-5.4c-2.1,0.1-4.1,0.2-5.1-0.9c0.2,5.1,0,9.7-5.1,9.1c0.3,3.3-3.1,2.7-5.1,3.6
						c-2.1,1.2,1.5,2.7-0.9,3.6c-5,1.1-5.3-6.6-5.1-8.1c3.9,0,8.3-0.4,11,0.9c2.3-5.7-4.8-8.6-10.2-9.1c-1.3-2.2-3.6-3.4-6.8-3.6
						c-1.2-2.1-2.4-4.1-4.3-5.4h-7.7c-2.3,1.7-4.5,3.7-6.7,5.4c-0.4-1.3-1.1,0.4-2.6,0c-3,3.4-6.8,6-10.2,9.1
						c-1,4.1-2.7,7.4-5.1,9.9c-0.2-1-1.6-0.7-2.5-0.9v3.6c-5.4,0.4-5.9,5.7-7.7,10c1.7,2.1,2,5.8,1.7,10c0.8,2.4,5.4,1,6.8,2.7
						c-1.9,2.7-3.4,3.7-3.4,6.4c1.8-0.4,1.6,1.3,1.7,2.7c-3,0.1-4.9,1.4-7.6,1.8c-0.8,1.6-2.4,2.3-1.7,5.5c-4.8-1.5-1.9,5.2-5.9,4.5
						c0.1,1.1-0.2,1.6-0.9,1.8c-3.7-0.4-4.5,2.5-6.8,3.7c-2,0.5-4.3,0.8-4.2,3.6c1.1,1.2,3.7,0.9,5.9,0.9c-0.4,4.1,3.9,3.1,3.4,7.3
						c-0.9,1.2-0.9,3.4-2.6,3.6c-3.9-2.2-7.5,0.8-12.7,0c-0.9,3,1.9,9.9-1.7,10c0.6,2.7,2.6,3.9,1.7,8.1c3.9-0.9,5.1,1.2,7.6,1.8
						c3.2-1.7,3.6-1.7,6.8,0c1.9-3.7,4.8-6.3,4.2-12.7c3.7-1.2,3.1-7,7.6-7.2c3.6,2.3,5.1-0.6,8.5-0.9c-2.4,3.5-1.2,9.2,0,13.6
						c5.4-0.5,2-5.1,2.5-10c-0.9,0-1.1-1.6,0-1.8v1.8c1.8,0.3,1.7,2.4,2.6,3.6c4.1,0.1,6.7,1.8,7.6,5.4c-0.1,2-2.1,1.9-4.3,1.8
						c-0.1,3.2,3,2.9,4.3,4.6c-0.4-4.1,2.3-4.8,4.2-6.3c0.5-2-1.6-1.3-1.7-2.7c1.6-2.8,2.9,3.1,4.3,0c-2.3-4.8-12.9-5.6-10.2-12.7
						c2.5,4.1,7.3,6.1,10.2,10c0.5,0.7,1.2,2.8,1.7,3.6c0.7,1.1,2.1,2.2,1.7,3.6v5.4c1.1,1.2,3.7,0.9,5.9,0.9
						c1.4-3.1-1.5-7.6,0.8-10.9h2.5c-0.9,3.6-0.1,3.4-0.8,7.2c1.9-0.3,1.1,2.6,2.5,3.7c3.1,2.3,8.8,1.6,11,0
						c2.5,1.3-2.2,4.7,1.7,4.5c3.5,0.7,0.2-5.9,4.3-4.5v5.4c-2.5,1.6-0.8,7.7-4.3,8.2c-6.2-2.4-13.9-3.3-22.1-3.6
						c-2.4,0.7-2,4.5-4.2,5.5c-3.9-4.3-11.6-4.5-15.2-9.1c0.6-3.1-1-3.8-1.7-5.4c2-0.3,1.9-2.4,0.8-3.6c-5.1-0.1-9.2,1-12.7,2.7
						c-6.9-0.4-12.8,0.1-16.1,3.7c-0.7-1.9-2.5-2.8-5.1-2.7c-0.7,3.2-3.8,3.8-5.9,5.4c-2.3,4.3-1.4,9.8-3.4,13.6
						c-1.3,2.4-5.8,4.8-7.7,7.3c-0.1,5.3-2.1,8.6-4.3,11.8v23.5c2.9,3.5,5.5,7.5,6.8,12.7c3.9,2.5,6.5,6.3,11.9,7.2
						c3.4-0.9,7.5-1.1,11.9-0.9c1.8-1.5,1.6-4.9,5.1-4.5c1.5,0.1,0.5,3.1,1.7,3.6c3.9-0.6,5.4,1.5,8.4,1.8c1.5-0.8,2.2-2.5,5.1-1.8
						c0.9,7-1.8,10.2-1.7,16.3c2.4,4.6,6.6,8.2,5.1,14.5c2.2,3,2.4,8.3,3.4,12.7c-2.1,4.1-1.6,10.9-3.4,15.4
						c3.6,3.7,6.3,8.4,7.7,14.5v8.2c3.8,4.7,3.7,13.5,7.6,18.1c8.2-0.6,12.2-5.6,19.5-7.2c1.3-5,3.9-8.5,7.6-10.9
						c-0.4-3.5,1.5-4.4,0.8-8.2c1.5-0.8,2.2-2.5,5.1-1.8c0.1-10.4,3.6-17.3,10.2-20.8c1.2-7.4,1.2-18,0-25.4
						c1.8-3.5,3.2-7.4,4.2-11.8c2-1.5,3.7-3.3,6-4.5c4-6.3,7.7-12.9,11.9-19c0.6-3.4,1.8-8-0.9-10c-3.6-0.5-3.4,3-6.8,2.7h-7.7
						c-0.4-6.2-4.6-8.4-7.7-11.8c0.8-6-5-4.9-3.4-11.8c-1.4-2.1-4.1-2.9-5.1-5.4c0.8-2.7-1.2-7,0-7.2c2,1.6,4.3,6.3,3.4,8.1
						c3.6,3.8,5.9,8.8,9.3,12.7c2,3.8,1.7,9.4,6,12.7c5.9-2.1,10.1-6.1,16.9-7.3c1.2-0.5,0.1-3.5,1.7-3.6c3.7-0.6,5.2-3.5,8.5-4.6
						c-0.6-4,2.5-4,2.6-7.2c-1.5-3.3-5.8-3.5-5.1-9c-3.2-0.4-5.4,0.3-6.8,1.8c-0.7-3.4-3.8-4.3-3.4-9c-2.7,0.2-2.5-2.8-4.2-3.6
						c1.3-0.5,2.1-1.3,3.4-1.8c4.7,3.1,3.3,12.8,11.9,11.8c0.3,1.7,2.4,1.7,1.7,4.5c4.1,0.4,4.7-2.8,8.5-2.7
						c0.9,0.6,0.9,2.1,2.5,1.8c5.9-0.9,7.4,3,11,4.5c-1.4-0.3-1.6,0.7-1.6,1.8c0.9,1.7,3.9,1.2,5.1,2.7c-0.4,2.9,1.5,3.2,0.8,6.3
						c2.6,3,3.7,7.6,5.1,11.8c1.8,1.7,3.5,3.5,4.3,6.3v5.5c1.1,1.3,3.7,0.9,5.9,0.9c1.1-5.8,4.2-9.5,3.4-17.2h3.4v-3.6
						c3.2,1.4,1.6-2.5,4.2-1.8c-0.2-4.2,3.1-4.6,4.3-7.3c2.1-1.7,4.5-3.1,7.6-3.6c1.9,2.5,1.9,7,5.1,8.2c0.3,2.1-1.6,1.9-0.9,4.5
						c1,3,6.8,0.7,8.5,2.7c-1.1,1.9,0.4,2.7-0.9,5.5c2.2,0.9,3.8,2.6,4.2,5.4c-0.3,1.7-2.4,1.6-1.7,4.5c0.3,2.7,2.6,3.2,1.7,7.2
						c4.1,3.8,7.9,7.8,12.7,10.9c0.2-6-4-7.2-4.2-12.7c-2.4-1.7-4.6-3.5-6-6.3c0.4-2.9-1.1-7.8,1.7-8.1c1.9,2.6,3.2,5.7,6.8,6.3
						c0.6,0.8,0.9,2,0.8,3.6c8.2-1.2,10.3-9,9.3-19.9c-1.1-0.9-3.1-0.9-4.2-1.8c1.1-4-4.1-3.7-1.7-6.4c2.5-2.5,2.2,3,5.9,1.8
						c0.6-3.9,4.9-3.8,9.3-3.6c2.7-4.4,6.3-7.7,7.6-13.6c1.4,0.3,1.5-0.8,2.5-0.9c1.4-3.7-0.2-10.5,2.6-12.7
						c-1.8-0.8-2.6-2.7-2.6-5.5c-1.4-1.1-3.3-1.9-3.4-4.5c-0.4-2.2,1.6-2,0.8-4.5c1.8,0.3,2.7-0.2,2.5-1.9c2.4-1.1-3.8-5.4,1.7-5.4
						c1,2.9,3.9,3.6,5.1,6.3c-0.8,4.8,1.6,6.2,4.3,7.3c5.1-3.9-0.2-13.9,2.5-20.8c1.8-1.7,4.3-2.6,6.8-3.6c2-4.2,3.7-8.7,6.7-11.8
						c1.2-7.3-1.9-14.8,0-19.9c-1.2,5.2,2,5.8,2.6,9.1c0.2,5.6,0.4,11,4.3,12.7c1.6-1.6-0.7-2.3,0-5.4c2.3-0.1,1.7,1.5,3.4,0
						c0.1-2.9-2.3-3.1-1.7-6.4c-3.1-0.6-3.9-3.7-5.1-6.3c-0.3-3.3,0.3-7.6-2.5-8.2c-1.8,0.2-0.2,4-2.5,3.6c-1.4-6.7-7.2,4.2-9.4-2.7
						c0.6-2.1,2.1-3.1,3.4-4.5c1-2.9,0.6-7.1,3.4-8.2c1.9,2.2,1.5-1.3,4.2-0.9c4,0.6,7.7,2.4,12.8,1.8c-0.3,1.5,0.7,1.7,1.7,1.8
						c1.1-1.3,3.7-0.9,6-0.9c0.4-2.9-1.5-3.2-0.8-6.3c1.7-0.3,1.6-2.4,3.4-2.7c1.7,0.3,1.7,2.5,3.4,2.7c-0.4-2,2.5-5,3.4-2.7
						c-2.7,5.8-6.7,10.3-7.6,18.1c0.6,2.4,2.4,3.5,3.4,5.4c0.4,3.5,1,6.8,3.4,8.1c2.1-2.3,3.4-5.5,5.9-7.3c-0.8-4.5,2.7-3.8,0.9-7.2
						c0.2-1.8,2.2-1.8,2.5-3.6c-1.2-1.1-3.8-0.8-3.4-3.6c0.8-8,6.4-6.2,12.7-5.4c1.2-1.4,1.1-4.2,2.5-5.4c4.9-0.4,8.7-2.9,11.8-2.7
						C616.6,216,612.4,216.6,612.4,212.7 M327.3,222.7c1.6,1.9,3.8,3.1,6.7,3.6v9.1c-1.9-0.4,0.5-5.3-3.4-3.6
						c-1.9,3.1-0.7,9.5-3.4,11.8c-2.8,0.3-4.9-0.4-6.8,0c-2.4,0.5-2.9,2.6-5.1,2.7c0.3-1.1-2.4-3.1-2.5-0.9c-2-0.3-2-2.5,0-2.7
						c-1.9-2.2-3.3-5-3.4-9.1c4.2,0.4,2.6,12.8,10.2,9.1c1.9-3.7,3.2-8,5.1-11.8c-0.3-2.1-1-3.7-1.7-5.4c0.5-8.5,6.6-11.1,9.3-17.2
						c1-0.1,1.5,0.2,1.7,0.9C333.4,215.3,326.6,214.9,327.3,222.7 M336.7,229c-0.1-2.7,3-2.2,5.1-2.7
						C341.8,229.1,339.2,229,336.7,229 M343.4,193.7c-0.4-0.5,0.6-1.2,0.8-0.9C344.7,193.2,343.7,193.9,343.4,193.7 M358.7,324.2
						c-0.4-0.5,0.6-1.2,0.8-0.9C360,323.7,358.9,324.4,358.7,324.2 M359.5,211.8c-0.4-0.5,0.6-1.1,0.9-0.9
						C360.8,211.4,359.8,212,359.5,211.8 M422.3,197.3c-1.6-0.4-3.6-0.3-3.4-2.7c-2.5-0.2,0.8-3.8,0,0
						C419.5,196,423.1,194.4,422.3,197.3 M474.9,181c-0.4-0.5,0.7-1.2,0.9-0.9C476.2,180.6,475.2,181.2,474.9,181 M477.5,180.1
						c-0.4-0.5,0.6-1.1,0.8-0.9C478.7,179.6,477.7,180.3,477.5,180.1 M480,178.2c-0.4-0.5,0.6-1.2,0.9-0.9
						C481.3,177.8,480.2,178.5,480,178.2 M518.2,292.4c1.2-1.7,1.9-4,5.1-3.6c0,1.4-0.4,3.4,0.8,3.6
						C522.9,295.1,520.4,291.7,518.2,292.4"/>
					<path class="st3" d="M217,399.3c-1.5-1.7-2.5,0.4-4.2,0.9c-1.3-3.1-4.6-4.1-7.6-5.5h-5.9c-1.5-2.6-7.2-0.8-7.6-4.5
						c-2.3,0-5,0.5-5.1-1.8c2.4-4.2-2.5-15.8-10.2-11.7c-2.7-1.7-4.6-4.1-5.1-8.2c-4.4-1.3-7.6-4-11.9-5.4c-1.1,0.3-1.3,1.6-2.5,1.8
						c-1.1-3.3-5.3-3.4-6-7.2c-2.7-0.8-1.7,2.3-3.4,2.7c-2-0.6-2.2-3-4.2-3.6c-0.8,1.6-1.5,3.1-4.2,2.7c-1.3,3.8-4.7,5.2-6.8,8.2
						c0.2-3-1-4.4-3.4-4.5c-2.2,1-3.1,3.3-6,3.6c-2-4.4,0.9-8.6,0-14.5c-1.5-3.1-7.2-1.9-10.1-3.6c0.8-4,3.3-6.1,2.5-11.8
						c-4.1,0.5-4.3,0.5-8.5,0c-1.6,2-0.8,6.4-3.4,7.2c-11.4,0.7-4.3-15.5-6.8-22.6c3-0.8,4.8-2.7,7.6-3.6c4.6-0.4,5.7,2.9,10.2,2.7
						c-0.1-1.3-0.2-2.5,0.9-2.7c4.1,0.2,9.5-1.2,10.2,2.7c-0.4,5.3,1.9,7.7,5.9,8.2c-1-4.7-0.6-6.1,0-9.1c-1-1.4-2.4-2.2-2.5-4.5
						c1.4-6,5.2-9.6,11-10.9c0.8-2.6,0.8-2.8,0-5.4c2,0.3,3.3-0.1,4.3-0.9c-2.1-5,2.8-3.9,1.7-10c2.8-1.2,5.5-2.5,8.5-3.6
						c0.4-2.8-2.6-2.1-1.7-5.4c3.1-2.7,7.8-3.8,11.9-5.4c0.6,2.5-1.7,1.8-1.7,3.6c3.4-1.5,7-2.8,9.4-5.4c-2.1-1.4-6.3-0.6-6-4.5
						c0.5-2.5,3.3-2.5,5.1-3.6c0.3-2.2-1.6-2-0.9-4.5c4.1,3,8.9-4.4,11.9-2.7c-2,4.9-6,7.5-7.6,12.7c3.1,0.7,3.7-1.5,6.8-0.9
						c0.1,1.4-0.4,3.4,0.9,3.6c0.8-2.2,3.3,1.2,5.9,0c-0.4-2.1-1.7-4.6,0-6.4c-3.1-0.3-3.9-3.1-5.1-5.5c0.3-5.6,0.3-6.1,0-11.8
						c-1.6-1.7-2.1-0.1-4.2,0c0.1-4.3-3.9-4.3-4.2-8.1c0.7-0.8,0.9-2.1,0.8-3.6c-3.3-2-2.1-8.7-6.8-9.1c-0.4,1.3,1,4.7-0.8,4.5
						c-1.7-0.5-5.6,1.1-5.9-0.9v-9c-4.5,2.2-3.7-2.1-7.6-2.7c-2.2,2.5-1.8-1.1-4.2-0.9c-2.1-0.4-1.8,1.6-4.3,0.9
						c1.3,9-2.3,14.1-0.9,20.8c-1.4,0.3-4.2-2.6-5.1,0c0.9,2.6,2.8,0.6,3.4,1.8c-3,2-3,7-4.2,10.9c-1.9-2.8-2.3-7.2-3.4-10.9
						c-1.7-1.8-1.7,0.4-3.4,0.9c-0.7-2.6-1.3-1-3.4-0.9c-2.5-2.7-5.4-5.1-9.3-6.3c1.3-4.5-3-2.9-2.6-6.4c1.8,0.4,1.7-1.3,1.7-2.7
						c2.8-1.5,4-4.8,6.8-6.4c1.9-3.2,3.2-6.9,7.7-7.2c0.1-1.6-1-1.9-0.9-3.6c5.7-1.2,8.9-2,12.7-3.6c-0.2-3.5,0-6.7,0.9-9.1
						c-1-1.3-3.2-1.4-4.2-2.7c3.4-0.3,6.3,0,7.6,1.8c1.6-2.8,4.1,1.1,6.8,0c-1.2,4.6,3.9,2.5,3.4,6.4c-0.8,6.6-10.1,4.3-11,10.8
						c1.4,2.2,4.9,2,8.5,1.8c5.3,2.5,7.4,8.5,14.4,9.1c-1.9-4.7,1.4-4.6,0.9-10c-0.4-2.4-2.6-2.7-2.6-5.5c3.2,0.2,4.1,2.9,6.8,3.6
						c-0.2-2.4-0.3-4.5,2.5-3.6c-0.6-2.8,0.9-3.3,0.8-5.4c-2.3,0.6-1.6-1.9-2.5-2.7c-2.9-0.5-5.1-1.8-7.6-2.7
						c0.2-1.8,2.3-1.7,2.6-3.6c-1.1-2.2-3.7-2.7-3.4-6.3H161c0.4-2.9-2.3-2.4-2.5-4.6c-3.6-0.5-5.6,0.7-8.5,0.9
						c0.5-5.6-6.7-3.8-7.7-0.9c0.3-3.4-0.7-5.3-3.4-5.5c-4.4,2.9-9.5,12.1-4.2,17.2c1.2,0.5,4.4-1,4.2,0.9c-0.9,2.7-2.7,4.4-4.2,6.4
						c-2.2-2.2,1.8-2,0.9-5.5c-2.9-2-5.7-4.2-6.8-8.2c-3.2,0.4-2.7-3.1-6.7-1.8c0.3,2.2-1.6,1.9-0.9,4.5c2.9,1.2,1.8,8.4,0,10
						c-1.2-0.8-1.8-2.3-1.7-4.5c-4.3-0.6-4.3,3.4-7.7,3.6c-3.2-1.4-6.6-2.6-8.5-5.4c3.8-0.7,5.1,1.2,8.5,0.9c1.9-1.9-0.4-2.6,0-5.4
						c4.7-1,6.6-5.1,11-6.3c-1.5-2.8-1.2-5-1.7-7.2h-12.7c-1.9,2.5-6.1,2.5-6.8,6.3c-0.4-1.3-1.2-2.2-1.7-3.6
						c-2.2,0-5.3,0.8-4.2-2.7c6.3,1.4,13.8-3.3,19.5-5.5c0,4.2,7.3,3.1,8.5,0.9c-0.6-2.1-0.8-4.6-1.7-6.4c-5,0.7-7.5,4.2-12.8,4.6
						v-5.4c-4.6-1.7-5.5,4.3-2.5,5.4c-4.9,0.6-7.6-1-11.9-0.9c1.3,4.7-3.9,2.5-4.2,5.4c2.1,1.2,2.6-0.5,3.4,0.9
						c-0.5,1.2-1.8,1.7-3.4,1.8c-1.4-5.2-8.1-4.7-14.4-4.5c-0.4,4.4-2.6,6.9-5.1,9.1c-0.1,2.8,2.2,3.1,1.7,6.3
						c4.2,0.3,6.3-1.7,9.3-2.7c-1.7,4.9,4.7,1.1,5.1,3.6c0.6,2.4-4-0.7-3.4,1.8c0,4.9,9.3-0.2,7.7,6.3c3.2-2,4.1-1.4,7.6,0h0.9
						c-0.3-1.1,2.4-3.1,2.5-0.9c-0.1,1.1-1.3,1-2.5,0.9c0.2,2.3,3.6,5.2,0,6.4c-1-0.2-0.7-1.7-0.9-2.7c-7.5-0.7-11.3-5.4-20.3-4.5
						c-2.6-0.8-2.7-4.4-5.9-4.5c-0.4,2.6-2.6,3.2-5.1,3.6c0.3-2.1-0.1-3.5-0.8-4.5c-3.3,0.2-3.3,3.8-6.8,3.6
						c-3.2,0.7-4.1-1.1-6.8-0.9c-0.9,0.2-0.6,1.8-1.7,1.8c-0.8,0-0.7-1.1-0.8-1.8c-2,0.3-3.2,1.4-6,0.9c-6.8-4.5-19.8-2.4-27.1-6.4
						c-6.3,3-14.6,3.8-18.7,4.5c-1.9,3.5,1.5,3.6,2.5,6.4c3.2-0.4,5.3,0.4,6,2.7c-3.4-1.3-3,1.6-4.3,2.7c-1.6-0.8-2.3-2.3-4.2-2.7
						c-3.2,3.5-11,2.2-13.6,6.3c4.7-0.2,6.3,2.9,6.8,7.3c4.5-1.7,7.9,0.2,11.9-1c-4.2,8-21.8,1.5-20.4,15.4c2.8,2.2,3.5,2.5,2.6,7.3
						c1.5,0.1,1.8-1.1,3.4-0.9c0.1,1.4-0.4,3.4,0.9,3.6c1.2-2.9,0.4,3.7,2.6,2.7c1-3.5,4.8-4.3,7.6-1.8c-3.7,3.1-5,8.5-9.3,10.9
						c-3.9,1.3-5.2,5.3-10.2,5.4c0.7,2.9-1.4,2.8-1.7,4.5c3.9,0.5,5.3-1.6,9.3-0.9c1-2.6,3.6-3.4,6.8-3.6c3.2-6.2,8.7-10,13.6-14.5
						h1.7c0.9-0.8,0.3-3.3,2.5-2.7c0.1-0.5,0.1-1.1,0.8-0.9c0,0.5-0.1,1.1-0.8,0.9c0.4,4.1-2.3,4.8-3.4,7.3c7,0.8,8.7-4,14.4-4.5
						c0.4-4.1-0.4-6.8-0.9-10c3.9,0.9,4.1-2.3,7.6-1.8c2.4,1.8,4.3,3.9,6,6.4c5.4,1.8,10,4.4,9.3,12.7c4.1-0.6,0.2-5,3.4-5.4
						c0.2,7.7-0.3,15.9,2.5,20.8c-2.6,2.4-0.9,3.4,0,6.4c0,1.8-2.3,1.1-1.7,3.6c-0.4,9.9-1,16.6,0,26.3c2.2,1.5,3.7,3.8,5.9,5.4
						c2.3,3.5,2.2,9.7,5.1,12.7c-1,0.2-0.7,1.6-0.9,2.7c3.6,1.4,4.4,5.6,6,9.1c2.6-0.7,2.4,1.6,5,0.9c0.1-3.9-1.6-3-1.7-8.1
						c-0.5,0-1-0.8,0-0.9v0.9c1.8-0.5,1.6,1.3,1.7,2.7c2.7,2,5,4.4,6.8,7.3c-0.6,6.4,1.6,9.7,3.4,13.6c7,1.9,11.1,6.5,19.5,4.5
						c1,2.3,2.1,4.4,3.4,6.4c3.2-0.7,4.1,1.1,6.8,0.9c0.8,2.2,2.5,3.4,4.2,4.5v2.7c4.9,0.5,5.9,5.2,10.2,6.3
						c0.9-1.2,0.8-3.4,2.5-3.6c0.3,3.3,1.7,5.4,2.5,8.1c0,1.8-2.3,1.2-1.7,3.6c0.4,4.7-2.7,5.6-3.4,9.1c-1.6,6.3,3.4,9.8,0,12.7
						c1.5,1.7,4.2,2.2,5.9,3.6c-0.7,1.3-2.7,1.3-4.2,1.8c-0.6,7.3,3.1,10,7.6,11.8c0.3,2.2-1.6,1.9-0.9,4.5c3.2,2.6,4.3,7.5,9.4,8.2
						c1.5,4,4.2,6.9,4.2,12.7c-0.9,1.2-0.8,3.3-1.7,4.5c1.1,0.6,1.6,1.9,1.7,3.6c-2.3,4.1,1,8.8,0,14.5c-4.6,2.9-2.5,13.1-4.2,19
						c1.2,2.5,3.5-1.6,4.2,0.9c0.8,4.4-2.9,4.2-4.2,6.3c-1.1,2.9,2.7,0.7,1.7,3.7c-1.6,2.2,0.9,4.4-0.9,7.2
						c0.8,6.2,3.7,9.3,1.8,14.5c2.5,2.1,2.2,7.2,5.1,9.1c-0.1,1.6,1,1.9,0.8,3.6c2.1,0.5,3.5,1.7,5.1,2.7c3.2-0.6,8.7,1.5,9.3-1.8
						c-2.3-0.5-3.9-1.8-5.1-3.6c0.6-3.1-3.4-1.1-2.5-4.5c-0.3-4,2.5-4.7,2.5-8.2c2.2-0.1,3.3-1.3,3.4-3.6c0.4-3.2-3-2.2-2.5-5.5
						c2.3-2.8,5.8-11.7,0-12.7c5.7,1.5,5.5-3.2,6.8-6.3c4.6,0.3,6.1-2.6,9.3-3.6c0.6-4.2-1.4-5.8-1.7-9h6.8c0.1-0.9,1-0.7,1.7-0.9
						c0.5-2.2,0.7-4.6,3.4-4.5c-0.3-5.1,3.2-6.2,5.1-9.1v-6.3c1.6-1.6,2.6-3.8,4.2-5.5c4-1.3,4-1.3,7.6-2.7
						c0.4-5.8,4.5-10.9,1.7-17.2c1.3-0.8,1.8-2.3,1.7-4.5c1.4,0.3,1.5-0.8,2.6-0.9c0.3-3,2.5-4,3.4-6.3c2.3-2.4-0.1-4.4,2.5-5.4
						c-0.6-2.8,0.9-3.3,0.9-5.5C218.7,404.1,217.8,401.7,217,399.3 M178,248.9c0.4,0.5-0.6,1.1-0.9,0.9
						C176.7,249.4,177.8,248.7,178,248.9 M112.7,178.2c2.6,0.9-0.9,2.4-0.9,3.6C109.2,181,112.2,178.8,112.7,178.2 M109.3,182.8
						c2.7-0.4,3,1.7,5.9,0.9c0,3.6-3.3,3.7-5.9,4.5V182.8z M83,184.6c-0.5-0.5,0.6-1.2,0.8-0.9C84.3,184.2,83.2,184.9,83,184.6
						 M65.2,315.1c0.2-1,0.8-0.5,0.8,0C65.9,316.1,65.2,315.6,65.2,315.1 M66,316.9c2,0.3,1.9,2.8,3.4,3.6
						C68.3,322.8,65.3,319.5,66,316.9"/>
					<path class="st3" d="M390.1,191.9c-1.2-4.2-5.2-5.3-4.3-11.8c6-0.6,8.2-5.1,12.7-7.3c5.4,0.6,8.1-1.6,8.5-6.3h-4.3
						c-0.2,0.7,0,1.8-0.9,1.8c-6.4,0.8-11.1,3.3-16.1,5.4c0.4,4.7-4.1,4.1-3.4,9c-1,1.9-3.2,2.7-3.4,5.4c2.7,1.9,5.3,3.9,8.4,5.5
						C387.9,192.5,388.6,191.8,390.1,191.9"/>
					<path class="st3" d="M531.8,175.6c2-1.5,3-4,5.1-5.4c-3.2-0.4-3.9-4.2-6.8-3.6c-0.4,0.1-0.8,2.1-1.7,1.8h-5.1
						C522.2,174.9,529.4,172.7,531.8,175.6"/>
					<path class="st3" d="M261.1,216.3c0.1-2.3,3.2-1.4,4.2-2.7c0.9-4.6-1.9-5.2-1.7-9c-3.7,1.2-5-0.6-8.5,0.9
						c-2.3-0.6-2.1-3.8-5.1-3.6c1,4.4-3.4,3-3.4,6.3c2.4,0.8,2.2-1.3,4.2-0.9c-0.4,2.2-3.3,1.9-2.5,5.4c4.2-1.2,3.3,3.1,6,3.6
						C255.1,214.4,260.3,215.4,261.1,216.3"/>
					<path class="st3" d="M144.9,216.3c-3.4-1-1.2-2.3-3.4-4.5c-2.6,0.7-2.5-1.5-5.1-0.9c-1.2,1.7-0.4,5.5-4.2,4.6
						c0.1,3.2,2.8,3.6,5.9,3.6C137.8,211.9,143.9,222,144.9,216.3"/>
					<path class="st3" d="M294.3,248.9c-1.2-0.9-2.6-1.5-3.4-2.7c1.1-5.4-5.6-6.2-2.5-10.9c-1.1-0.9-2.6-1.5-3.4-2.7
						c1.2-0.8,2.7-1.3,2.6-3.6c-3.1-0.3-4.7,1-6.8,1.8c0.6,4.9-1.3,7-0.9,11.8c2,1.3,3.1,1.4,4.2,1.8c0.4,3.2-2.9,5-4.2,3.6
						c-0.7,4.1,0.6,6.1,1.7,8.2c-1.5,0.8-4.5-0.1-4.3,2.7c4.2-0.7,8.5-1.2,13.6-0.9C291.5,254.1,291.1,251.5,294.3,248.9"/>
					<path class="st3" d="M271.3,252.6c2-1,5.2-0.6,6.8-1.8c-0.9-3.8-0.2-4,0-8.2h-4.2c-0.1,4.1-1.9,1.1-3.4,2.7
						C270.6,247.9,270,251.2,271.3,252.6"/>
					<path class="st3" d="M562.3,278.8c1.6,0.1,0.6,3,2.6,2.7c1.9-2.2,1.6-6.7,5.1-7.2c-4.4-0.7-7.2-3.2-11.9-3.6
						c0.6,4.3-1,6.2-0.9,10C559.5,283.1,559.3,278.3,562.3,278.8"/>
					<path class="st3" d="M542.8,306.9c-0.1,3.2,2,3.9,3.4,5.4c0.6-3.3,2.6-5,5.1-6.3c1.1,0,1.8,0.4,2.5,0.9c2.7-3.5,8.3-3.8,11-7.3
						c-0.1-6.5-1.9-11.3-1.7-18.1h-3.4c1,4.2-0.4,6.3,0.9,10.9c-0.7,0.2-1,0.8-0.9,1.9c-3,1.4-4.5,2.4-7.6,5.4
						c-3,1.7-8.4,0.7-8.5,5.4c-0.4,2.5,4.6-0.7,4.3,1.8H542.8z"/>
					<path class="st3" d="M335.8,299.7c0.2,2.5,2.8,0.7,5.1,2.7c0.6-3.4-1.3-4-4.2-3.7C336.8,299.5,336.3,299.6,335.8,299.7"/>
					<path class="st3" d="M525,330.5c1.4,1.3,2.2,3.1,2.5,5.4c3.5-0.2,3.2-4.4,3.4-8.1C528.8,325.8,525.9,328.4,525,330.5"/>
					<path class="st3" d="M132.2,327.8v3.6h3.4C135.5,329.1,134.4,327.9,132.2,327.8"/>
					<path class="st3" d="M141.5,332.3c0.3-2.1-0.1-3.5-0.9-4.5h-2.6C137.8,330.9,138.4,332.9,141.5,332.3"/>
					<path class="st3" d="M142.4,331.4v4.5c1.8,0.4,2.3-0.6,3.4-0.9C145.7,332.7,144.5,331.5,142.4,331.4"/>
					<path class="st3" d="M140.7,345.9c3-0.5,4.1,1,6,1.8c0.1-2.6,3.5-1.7,5.9-1.8c-1.2-6-5.9-5.2-11-5.4c0.6-2.5-1.7-1.8-1.7-3.6
						c-1.8-1-4.7-1.1-5.1-3.6H122c-0.4,1.7-1.8,2.3-1.7,4.5c3.5,0.4,3.4-3,7.6-1.8c3.6,0.7,4,4.8,7.6,5.4c2,0.6,6.1-1.1,6.8,0.9
						C139.3,342.3,140.2,343.6,140.7,345.9"/>
					<path class="st3" d="M149.1,335.9c-0.3-1.2-2.1-0.8-3.4-0.9C144,338.3,150.1,339.1,149.1,335.9"/>
					<path class="st3" d="M528.4,345.9c1.3,2.2,3,4,5.1,5.4c1.1-2.8,3.9-3.6,3.4-8.2C534.6,339.9,528.3,341.4,528.4,345.9"/>
					<path class="st3" d="M508,348.6c2.4-0.5,2.4-3.5,3.4-5.4c-0.8-0.7-1.9-1-3.4-0.9C506.4,345.8,506.9,343,508,348.6"/>
					<path class="st3" d="M131.3,344v3.7c2.9-1,2.9,0.3,5.9-0.9C137.8,343.2,134,344.2,131.3,344"/>
					<path class="st3" d="M154.2,347.7c3.1,0.2,5.9,0.2,5.1-3.7h-5.1V347.7z"/>
					<path class="st3" d="M243.3,347.7c0,1.8-2.3,1.1-1.7,3.6h3.4C245.3,349.2,244.8,347.9,243.3,347.7"/>
					<path class="st3" d="M535.2,362.2c1.8,1.9,2.4-0.5,5.1,0c-0.3,2.1-1.8,3.9,0.9,4.5c1.2-2.7,3.6-4,7.6-3.6
						c0.8-4.2-2.7-3.7-4.2-5.4c0.2-3-1-4.4-3.4-4.5c-1.2,1.2-0.8,3.9-0.9,6.3C537.4,357.9,536.6,360,535.2,362.2"/>
					<path class="st3" d="M451.2,364.9c1.2,5.4-3.2,6.5,0,9.1c2.7,0.4,2.3-2.4,4.3-2.7C454.7,368.4,453,366.6,451.2,364.9"/>
					<path class="st3" d="M507.2,389.4c0.8,3.6,4.5,4.2,4.2,9c5.5-1.4,4.7,4.1,10.2,2.7c-0.2-2.1,2.4-1,2.6-2.7
						c-0.6-0.2-1.7,0-1.7-0.9c2.8-1.2,1.4-6.9,4.3-8.1c-2-2.9,0.7-6-0.9-8.2c1.5-0.8,2.9-1.7,2.5-4.5c-2-1.7-3.7-3.9-7.6-3.7
						C520,382.5,508.7,380.7,507.2,389.4"/>
					<path class="st3" d="M491,383c-1.3-2.1-4-3.6-3.4-6.3c-2.3,0.6-1.7-1.8-3.4-1.8c0.1,4-2.1-0.1-4.3,0.9
						c0,10.6,11.9,8.4,10.2,20.8c4.2,0.5,5.3,6.5,9.3,4.5c2-3.5-1.7-7.4-1.6-11.7C495.3,387.5,492.2,384.9,491,383"/>
					<path class="st3" d="M538.6,390.3c-0.2-4-5.4-2.8-6.8-5.4c-4.3,3.7-7.4,13.8-0.8,17.2c-0.2-2.6,0.2-4.6,1.7-5.4
						c1.9,1.7,2,4.6,5.1,2.7c-0.4-3.8-3.3-5-3.4-9.1C535.4,391.5,537.4,391.5,538.6,390.3"/>
					<path class="st3" d="M557.2,386.6c-2.8-1.8-9.5-1.5-9.3,2.7C550.8,391.3,557,390.4,557.2,386.6"/>
					<path class="st3" d="M566.6,390.3h-5.9c-0.8,1.3-1.3,2.9-3.4,2.7c-2.6,0.7-1.6-2.5-4.2-1.8c0.2,2.4-3.3,0.7-2.6,3.6
						c0.1,2,2.1-1.1,4.2,0c3.8,3.3,8.7,5.2,11.9,9.1v5.4c4.5-2.9,5.9,1.9,9.3,2.7c3-0.1,2-4.5,5.9-3.6c2,1.2,4.2,6.9,7.6,3.6
						c-1.8-0.8-2.6-2.7-2.5-5.4c-2.2-2.2-5.3-3.3-6.8-6.4v-2.7C573.6,397.3,571.8,391.9,566.6,390.3"/>
					<path class="st3" d="M521.6,411.1c0.5-3.2-3-2.2-2.5-5.4c-6.9,0.2-11.8-1.9-17-3.6c-0.7,1.6-2.4,2.3-1.7,5.4
						C508.5,407.6,512.3,412.2,521.6,411.1"/>
					<path class="st3" d="M584.3,446.4c0.3-4.3-1.5-6.2-0.8-10.9c-1.7-0.6-1.9-2.7-3.4-3.6c-0.3-6.9-6.1-8-5.1-16.3
						c-1.6,0.2-1.9-1-3.4-0.9c-2.2,3.7,0.9,13.1-2.6,15.4c-3.3,1.2-1.7-3-5.1-1.8c-0.1-2.5-4-1.1-3.4-4.5c-0.4-2.9,4.2-0.3,3.4-3.6
						c-2.9-3.5-11.6-0.9-16.1-2.7c-1.5,0.5,0,4.3-1.7,4.5c-3.2,0.6-6,1.5-8.5,2.7c-1.1,2.7-0.3,7.5-3.4,8.2c-2-2.2-4.2,0.1-6.8,0
						c-1.7,0.6,0.2,5.1-1.7,5.4c-1.8-0.5-1.7-2.7-3.4-0.9c-2.1,2.3-1.1,7.9-4.2,9.1c-1.9,1.3-5.7,0.6-6.8,2.7c0.9,4,3,9.1,0.9,13.6
						c1.7,0.6,2.2,2.4,2.5,4.5c0.5,4.1-1.5,5.6-0.9,10c2.5-0.2,2.7,2,5.1,1.8c3.5-1.7,5.6-4.8,11.9-3.6c3-4,8.9-4.9,16.1-4.5
						c2.4,1.9,4,4.8,5.1,8.2c3.3-1.7,2.3,2.1,6,0c0,2.4,0.3,5.2-0.9,6.3c5.4,3.4,8.6,3.6,17,3.6c2.1-1.6,3.7-3.9,6.8-4.6
						c-0.4-4.6,4-4.1,3.4-9c3-0.2,2.2-4.3,5.1-4.5c-1-3.2,1.5-5.1,1.7-8.2c0.5-5.5-1.6-11.2-2.5-16.3
						C586.5,445.2,585.1,449.1,584.3,446.4"/>
					<path class="st3" d="M386.7,417.5c-1.5,2.6-2.8,5.5-3.4,9.1c-3.7,0.9-5.6,3.7-7.6,6.3c-0.7,3.1,1.2,3.5,0.8,6.3
						c-0.8,1.9-1.3,4-2.6,5.4c1.9,4.1-0.6,7.7,2.6,10.9c2.7,0.2,3.6-1.6,6.8-0.9c1.8-4.1,1.1-5.9,3.4-10v-4.5c0.2-1,0.9-1.4,1.7-1.8
						c-1.5-4,1.6-7.7,1.7-14.5C386.9,423.8,390.2,417.1,386.7,417.5"/>
					<path class="st3" d="M631,479.1c0.2-2.6,0.1-5-2.5-4.5v7.2c-0.7,2.7-4,2.4-3.4,6.4c5.7-0.9,1.9,2.7,1.7,5.4
						c5.4-0.3,5.6-6.2,7.7-10c1.3-1.4,3.5-1.6,4.2-3.7C636.6,477.2,635.1,479.4,631,479.1"/>
					<path class="st3" d="M621.7,489.9c-0.7,1.9-2.5,2.7-2.5,5.4c-1.5-0.1-2.6,0.2-3.4,0.9c-1.4,1.8-2,4.5-4.2,5.4
						c-3.5,1.4-4.5,5.4-6,9.1c2.8-1.5,4.6-0.4,7.6,0c0.8-2.2,3.4-2.4,2.6-6.3h3.4c0.2-5.2,6.7-3.7,6.8-9.1
						C625.6,492.4,623.4,491.5,621.7,489.9"/>
					<path class="st3" d="M564,492.6c-0.9,1.4,2.8,5.5,3.4,8.2c4.1-0.4,6.8-2.4,5.9-8.2C569.6,493.4,565.5,491.5,564,492.6"/>
					<path class="st3" d="M179.7,520.7h3.4C183.7,517.2,179.5,517.8,179.7,520.7"/>
				</g>
			</g>
		</g>
		<g id="Design">
			<g>
				
					<linearGradient id="SVGID_6_" gradientUnits="userSpaceOnUse" x1="1060.1688" y1="-924.06" x2="1011.3412" y2="-950.4427" gradientTransform="matrix(0.451 0.8925 -0.8925 0.451 -1133.4432 2.0797)">
					<stop  offset="0" style="stop-color:#C5CED5"/>
					<stop  offset="0.5636" style="stop-color:#F4F5F7"/>
					<stop  offset="1" style="stop-color:#FFFFFF"/>
				</linearGradient>
				<path class="st4" d="M188.3,448.6c-12.9,24.7-2.8,51.8-2.8,51.8l-31.8-5.5c0,0,29.8-21.7,24.3-49L188.3,448.6z"/>
				
					<ellipse transform="matrix(0.8925 -0.451 0.451 0.8925 -215.6647 130.5954)" class="st5" cx="166.2" cy="517.8" rx="31.3" ry="31.3"/>
				
					<radialGradient id="SVGID_7_" cx="1015.2123" cy="2021.3665" r="59.559" gradientTransform="matrix(1.0752 -0.5433 0.5433 1.0752 -2021.8932 -1102.1465)" gradientUnits="userSpaceOnUse">
					<stop  offset="0" style="stop-color:#FCFDFF"/>
					<stop  offset="1" style="stop-color:#AEC9D3"/>
				</radialGradient>
				<circle class="st6" cx="166.2" cy="517.8" r="24"/>
			</g>
			<g>
				<path class="st7" d="M339.2,125.4c0,17.1-13.8,30.9-30.9,30.9c-17.1,0-30.9-13.8-30.9-30.9c0-17.1,13.8-30.9,30.9-30.9
					C325.4,94.5,339.2,108.3,339.2,125.4"/>
				<path class="st5" d="M335.4,125.4c0,14.9-12.1,27.1-27.1,27.1c-14.9,0-27.1-12.1-27.1-27.1c0-14.9,12.1-27.1,27.1-27.1
					C323.3,98.3,335.4,110.5,335.4,125.4"/>
				<g>
					<defs>
						<path id="SVGID_8_" d="M282.1,125.4c0,14.5,11.7,26.2,26.2,26.2c14.5,0,26.2-11.7,26.2-26.2c0-14.5-11.7-26.2-26.2-26.2
							C293.9,99.2,282.1,110.9,282.1,125.4"/>
					</defs>
					<clipPath id="SVGID_9_">
						<use xlink:href="#SVGID_8_"  style="overflow:visible;"/>
					</clipPath>
				</g>
				<g>
					<g>
						<path class="st8" d="M318.7,130.3c0,0,1-0.8,3.5-0.8v-9.9c0,0-3.5-0.5-4.8,3.1C316.3,125.9,318.7,130.3,318.7,130.3"/>
						<path class="st9" d="M325.7,130.3c0,0-1-0.8-3.5-0.8v-9.9c0,0,3.5-0.5,4.8,3.1C328.1,125.9,325.7,130.3,325.7,130.3"/>
						<path class="st10" d="M328.2,133.6c-0.8-1.5-6-2.5-6-2.5s-5.2,1-6,2.5c-0.6,2.1-1.1,4.9-1.1,4.9h7.1h7.1
							C329.3,138.5,329,135.6,328.2,133.6"/>
						<path class="st10" d="M322.2,131.1c0,0,5.2,1,6,2.5c0.8,1.9,1.1,4.9,1.1,4.9h-7.1V131.1z"/>
						<rect x="320.7" y="128" class="st10" width="2.8" height="4.8"/>
						<rect x="322.2" y="128" class="st10" width="1.4" height="4.8"/>
						<g class="st11">
							<g>
								<defs>
									<rect id="SVGID_10_" x="320.7" y="128" width="2.8" height="3.4"/>
								</defs>
								<clipPath id="SVGID_11_">
									<use xlink:href="#SVGID_10_"  style="overflow:visible;"/>
								</clipPath>
								<path class="st12" d="M320.7,130.2c0.3,0.7,1.3,1.2,2,1.2c0.3,0,0.5,0,0.8-0.1V128h-2.8V130.2z"/>
							</g>
						</g>
						<path class="st13" d="M325.8,125c0-3-1.6-4.7-3.7-4.7c-2,0-3.7,1.7-3.7,4.7c0,3,1.6,5.4,3.7,5.4
							C324.2,130.4,325.8,128,325.8,125"/>
						<path class="st13" d="M325.3,127.1c-0.7-0.1-1.1-0.8-1-1.7c0.1-0.9,0.7-1.5,1.4-1.4c0.7,0.1,1.1,0.8,1,1.7
							C326.5,126.5,325.9,127.1,325.3,127.1"/>
						<path class="st13" d="M317.7,125.6c-0.1-0.9,0.3-1.6,1-1.7c0.7-0.1,1.3,0.6,1.4,1.4c0.1,0.9-0.3,1.6-1,1.7
							C318.4,127.1,317.8,126.5,317.7,125.6"/>
						<path class="st13" d="M325.8,125c0-3-1.6-4.7-3.7-4.7v10.1C324.2,130.4,325.8,128,325.8,125"/>
						<polygon class="st5" points="317.7,138.5 322.2,138.5 326.6,138.5 326.6,133.7 317.7,133.7 						"/>
						<path class="st14" d="M321.3,138.5l-0.8-7c-1.9,0.3-3.9,1.3-4.4,2.1c-0.6,2.1-1.1,4.9-1.1,4.9H321.3z"/>
						<path class="st14" d="M323.4,138.5h5.9c0,0-0.3-2.9-1.1-4.9c-0.7-1.2-3.3-1.8-4.2-2.1L323.4,138.5z"/>
						<path class="st15" d="M318.9,131.9l0.2,2.1h1l-0.5,1.1l1.3,3.4h0.4l-0.8-7C320.5,131.5,319.3,131.8,318.9,131.9"/>
						<path class="st15" d="M325.5,131.9l-0.2,2.1h-1l0.5,1.1l-1.3,3.4h-0.4l0.8-7C324,131.5,325.1,131.8,325.5,131.9"/>
						<path class="st16" d="M318.6,125.2c0.1-0.2,0.2-0.3,0.4-0.3c0.8-0.1,1.6-0.1,2.4,0c0.2,0,0.3,0.2,0.4,0.3h0.1
							c-0.1-0.2-0.3-0.4-0.5-0.5c-0.4-0.1-0.8-0.1-1.2-0.1c-0.4,0-0.8,0-1.2,0.1c-0.2,0-0.6,0.3-0.6,0.3c0,0-0.1,0.1-0.1,0.1v0
							H318.6z"/>
						<g class="st11">
							<g>
								<defs>
									<rect id="SVGID_12_" x="318.6" y="124.9" width="3.3" height="1.9"/>
								</defs>
								<clipPath id="SVGID_13_">
									<use xlink:href="#SVGID_12_"  style="overflow:visible;"/>
								</clipPath>
								<path class="st17" d="M321.8,126.3c-0.1,0.2-0.3,0.4-0.5,0.4c-0.7,0-1.3,0-2,0c-0.2,0-0.4-0.2-0.5-0.4
									c-0.1-0.3-0.1-0.5-0.1-0.8c0-0.2,0.2-0.5,0.4-0.5c0.8-0.1,1.6-0.1,2.4,0c0.2,0,0.4,0.3,0.4,0.5
									C321.9,125.7,321.8,126,321.8,126.3"/>
							</g>
						</g>
						<path class="st16" d="M321.5,124.8c-0.4-0.1-0.8-0.1-1.2-0.1c-0.4,0-0.8,0-1.2,0.1c-0.2,0-0.6,0.3-0.6,0.3c0,0-0.1,0-0.1,0.1
							v0.5c0,0,0,0.1,0.1,0.1c0.1,0,0.1,0.1,0.1,0.2c0,0.1,0,0.2,0.1,0.3c0.1,0.3,0.4,0.5,0.6,0.6c0.3,0,0.7,0,1,0c0.3,0,0.7,0,1,0
							c0.3,0,0.5-0.3,0.6-0.5c0.1-0.3,0.1-0.6,0.1-0.8C322,125.2,321.8,124.9,321.5,124.8 M321.8,126.3c-0.1,0.2-0.3,0.4-0.5,0.4
							c-0.7,0-1.3,0-2,0c-0.2,0-0.4-0.2-0.5-0.4c-0.1-0.3-0.1-0.5-0.1-0.8c0-0.2,0.2-0.5,0.4-0.5c0.8-0.1,1.6-0.1,2.4,0
							c0.2,0,0.4,0.3,0.4,0.5C321.9,125.7,321.8,126,321.8,126.3"/>
						<path class="st18" d="M318.9,126.5c-0.1-0.1-0.1-0.1-0.1-0.2c-0.1-0.3-0.1-0.5-0.1-0.8c0-0.2,0.2-0.5,0.4-0.5
							c0.8-0.1,1.6-0.1,2.4,0c0.1,0,0.2,0.1,0.3,0.2c-0.1-0.1-0.2-0.2-0.3-0.2c-0.8-0.1-1.6-0.1-2.4,0c-0.2,0-0.4,0.3-0.4,0.5
							c0,0.3,0.1,0.5,0.1,0.8C318.7,126.3,318.8,126.4,318.9,126.5"/>
						<path class="st16" d="M325.8,125.2c-0.1-0.2-0.2-0.3-0.4-0.3c-0.8-0.1-1.6-0.1-2.4,0c-0.2,0-0.3,0.2-0.4,0.3h-0.1
							c0.1-0.2,0.3-0.4,0.5-0.5c0.4-0.1,0.8-0.1,1.2-0.1c0.4,0,0.8,0,1.2,0.1c0.2,0,0.6,0.3,0.6,0.3c0,0,0.1,0.1,0.1,0.1v0H325.8z"
							/>
						<g class="st11">
							<g>
								<defs>
									<rect id="SVGID_14_" x="322.6" y="124.9" width="3.3" height="1.9"/>
								</defs>
								<clipPath id="SVGID_15_">
									<use xlink:href="#SVGID_14_"  style="overflow:visible;"/>
								</clipPath>
								<path class="st19" d="M322.7,126.3c0.1,0.2,0.3,0.4,0.5,0.4c0.7,0,1.3,0,2,0c0.2,0,0.4-0.2,0.5-0.4c0.1-0.3,0.1-0.5,0.1-0.8
									c0-0.2-0.2-0.5-0.4-0.5c-0.8-0.1-1.6-0.1-2.4,0c-0.2,0-0.4,0.3-0.4,0.5C322.6,125.7,322.6,126,322.7,126.3"/>
							</g>
						</g>
						<path class="st16" d="M323,124.8c0.4-0.1,0.8-0.1,1.2-0.1c0.4,0,0.8,0,1.2,0.1c0.2,0,0.6,0.3,0.6,0.3c0,0,0.1,0,0.1,0.1v0.5
							c0,0,0,0.1-0.1,0.1c-0.1,0-0.1,0.1-0.1,0.2c0,0.1,0,0.2-0.1,0.3c-0.1,0.3-0.4,0.5-0.6,0.6c-0.3,0-0.7,0-1,0c-0.3,0-0.7,0-1,0
							c-0.3,0-0.5-0.3-0.6-0.5c-0.1-0.3-0.1-0.6-0.1-0.8C322.4,125.2,322.7,124.9,323,124.8 M322.7,126.3c0.1,0.2,0.3,0.4,0.5,0.4
							c0.7,0,1.3,0,2,0c0.2,0,0.4-0.2,0.5-0.4c0.1-0.3,0.1-0.5,0.1-0.8c0-0.2-0.2-0.5-0.4-0.5c-0.8-0.1-1.6-0.1-2.4,0
							c-0.2,0-0.4,0.3-0.4,0.5C322.6,125.7,322.6,126,322.7,126.3"/>
						<path class="st18" d="M325.6,126.5c0.1-0.1,0.1-0.1,0.1-0.2c0.1-0.3,0.1-0.5,0.1-0.8c0-0.2-0.2-0.5-0.4-0.5
							c-0.8-0.1-1.6-0.1-2.4,0c-0.1,0-0.2,0.1-0.3,0.2c0.1-0.1,0.2-0.2,0.3-0.2c0.8-0.1,1.6-0.1,2.4,0c0.2,0,0.4,0.3,0.4,0.5
							c0,0.3-0.1,0.5-0.1,0.8C325.7,126.3,325.7,126.4,325.6,126.5"/>
						<path class="st16" d="M322.3,125.1c-0.1,0-0.3,0-0.4-0.1c0.1,0.2,0.2,0.5,0.1,0.7c0-0.2,0.2-0.2,0.3-0.2V125.1z"/>
						<path class="st16" d="M322.2,125.1c0.1,0,0.3,0,0.4-0.1c-0.1,0.2-0.2,0.5-0.1,0.7c0-0.2-0.2-0.2-0.3-0.2V125.1z"/>
						<path class="st8" d="M319.8,122.4c0,0,1.8,3.7,6.1,2.6c0.6-0.3,1.3-3.8-2.2-4.5C320.1,119.8,319.3,121.2,319.8,122.4"/>
						<path class="st8" d="M318.3,125.8c0,0,0.6-2.6,2.1-3.6c-0.1-0.8,0-1.8,0-1.8S317.5,121.2,318.3,125.8"/>
						<path class="st9" d="M323.6,120.5c-0.5-0.1-1-0.2-1.4-0.2v4.4c0.9,0.4,2.1,0.7,3.7,0.3C326.5,124.7,327.1,121.2,323.6,120.5"
							/>
					</g>
					<g>
						<path class="st8" d="M290.4,129.1c0,0,1.1-0.9,4-0.9V117c0,0-4-0.6-5.4,3.5C287.7,124.2,290.4,129.1,290.4,129.1"/>
						<path class="st9" d="M298.4,129.1c0,0-1.1-0.9-4-0.9V117c0,0,4-0.6,5.4,3.5C301.1,124.2,298.4,129.1,298.4,129.1"/>
						<path class="st10" d="M301.2,133c-0.9-1.8-6.9-2.9-6.9-2.9s-6,1.1-6.9,2.9c-0.7,2.4-1.3,5.5-1.3,5.5h8.2h8.2
							C302.5,138.5,302.1,135.2,301.2,133"/>
						<path class="st10" d="M294.4,130.1c0,0,6,1.1,6.9,2.9c0.9,2.2,1.3,5.5,1.3,5.5h-8.2V130.1z"/>
						<rect x="292.7" y="126.5" class="st10" width="3.2" height="5.4"/>
						<rect x="294.4" y="126.5" class="st10" width="1.6" height="5.4"/>
						<g class="st11">
							<g>
								<defs>
									<rect id="SVGID_16_" x="292.7" y="126.5" width="3.2" height="3.8"/>
								</defs>
								<clipPath id="SVGID_17_">
									<use xlink:href="#SVGID_16_"  style="overflow:visible;"/>
								</clipPath>
								<path class="st20" d="M292.7,129.1c0.3,0.8,1.5,1.3,2.3,1.3c0.3,0,0.6-0.1,0.9-0.1v-3.7h-3.2V129.1z"/>
							</g>
						</g>
						<path class="st13" d="M298.5,123.1c0-3.4-1.9-5.3-4.2-5.3c-2.3,0-4.2,1.9-4.2,5.3c0,3.4,1.9,6.1,4.2,6.1
							C296.7,129.3,298.5,126.5,298.5,123.1"/>
						<path class="st13" d="M297.9,125.5c-0.8-0.1-1.3-1-1.1-1.9c0.1-1,0.8-1.7,1.6-1.6c0.8,0.1,1.3,1,1.1,1.9
							C299.4,124.8,298.6,125.5,297.9,125.5"/>
						<path class="st13" d="M289.2,123.8c-0.1-1,0.4-1.9,1.1-1.9c0.8-0.1,1.5,0.6,1.6,1.6c0.1,1-0.4,1.9-1.1,1.9
							C290.1,125.5,289.4,124.8,289.2,123.8"/>
						<path class="st13" d="M298.5,123.1c0-3.4-1.9-5.3-4.2-5.3v11.5C296.7,129.3,298.5,126.5,298.5,123.1"/>
						<polygon class="st5" points="289.3,138.5 294.4,138.5 299.4,138.5 299.4,133 289.3,133 						"/>
						<path class="st14" d="M293.4,138.5l-0.9-8c-2.1,0.3-4.5,1.5-5,2.4c-0.7,2.4-1.3,5.5-1.3,5.5H293.4z"/>
						<path class="st14" d="M295.7,138.5h6.8c0,0-0.4-3.3-1.3-5.5c-0.8-1.4-3.8-2.1-4.8-2.4L295.7,138.5z"/>
						<path class="st15" d="M290.7,131l0.2,2.4h1.1l-0.6,1.2l1.5,3.9h0.5l-0.9-8C292.4,130.5,291.2,130.8,290.7,131"/>
						<path class="st15" d="M298.2,131l-0.2,2.4h-1.1l0.6,1.2l-1.5,3.9h-0.5l0.9-8C296.4,130.5,297.7,130.8,298.2,131"/>
						<path class="st16" d="M290.4,123.3c0.1-0.2,0.3-0.3,0.4-0.4c0.9-0.1,1.8-0.1,2.8,0c0.2,0,0.3,0.2,0.4,0.3h0.2
							c-0.1-0.3-0.3-0.5-0.6-0.5c-0.5-0.1-0.9-0.1-1.4-0.1c-0.5,0-0.9,0-1.4,0.1c-0.2,0-0.7,0.4-0.7,0.4c0,0-0.1,0.1-0.1,0.1v0
							H290.4z"/>
						<g class="st11">
							<g>
								<defs>
									<rect id="SVGID_18_" x="290.3" y="123" width="3.7" height="2.1"/>
								</defs>
								<clipPath id="SVGID_19_">
									<use xlink:href="#SVGID_18_"  style="overflow:visible;"/>
								</clipPath>
								<path class="st21" d="M293.9,124.6c-0.1,0.3-0.3,0.5-0.6,0.5c-0.8,0-1.5,0-2.3,0c-0.2,0-0.5-0.2-0.6-0.5
									c-0.1-0.3-0.1-0.6-0.2-0.9c0-0.3,0.2-0.5,0.5-0.6c0.9-0.1,1.8-0.1,2.8,0c0.3,0,0.5,0.3,0.5,0.6
									C294,124,294,124.3,293.9,124.6"/>
							</g>
						</g>
						<path class="st16" d="M293.6,122.9c-0.5-0.1-0.9-0.1-1.4-0.1c-0.5,0-0.9,0-1.4,0.1c-0.2,0-0.7,0.4-0.7,0.4
							c0,0-0.1,0.1-0.1,0.1v0.6c0,0.1,0,0.1,0.1,0.1c0.1,0,0.1,0.1,0.2,0.2c0,0.1,0,0.2,0.1,0.3c0.1,0.3,0.4,0.6,0.7,0.6
							c0.4,0,0.8,0,1.2,0c0.4,0,0.8,0,1.2,0c0.3,0,0.6-0.3,0.7-0.6c0.1-0.3,0.1-0.6,0.2-1C294.2,123.3,293.9,123,293.6,122.9
							 M293.9,124.6c-0.1,0.3-0.3,0.5-0.6,0.5c-0.8,0-1.5,0-2.3,0c-0.2,0-0.5-0.2-0.6-0.5c-0.1-0.3-0.1-0.6-0.2-0.9
							c0-0.3,0.2-0.5,0.5-0.6c0.9-0.1,1.8-0.1,2.8,0c0.3,0,0.5,0.3,0.5,0.6C294,124,294,124.3,293.9,124.6"/>
						<path class="st18" d="M290.6,124.8c-0.1-0.1-0.1-0.2-0.1-0.3c-0.1-0.3-0.1-0.6-0.2-0.9c0-0.3,0.2-0.5,0.5-0.6
							c0.9-0.1,1.8-0.1,2.8,0c0.1,0,0.2,0.1,0.3,0.2c-0.1-0.1-0.2-0.2-0.4-0.3c-0.9-0.2-1.8-0.2-2.8,0c-0.3,0-0.5,0.3-0.5,0.6
							c0,0.3,0.1,0.6,0.2,0.9C290.4,124.6,290.5,124.7,290.6,124.8"/>
						<path class="st16" d="M298.5,123.3c-0.1-0.2-0.3-0.3-0.4-0.4c-0.9-0.1-1.8-0.1-2.8,0c-0.2,0-0.3,0.2-0.4,0.3h-0.2
							c0.1-0.3,0.3-0.5,0.6-0.5c0.5-0.1,0.9-0.1,1.4-0.1c0.5,0,0.9,0,1.4,0.1c0.2,0,0.7,0.4,0.7,0.4c0,0,0.1,0.1,0.1,0.1v0H298.5z"
							/>
						<g class="st11">
							<g>
								<defs>
									<rect id="SVGID_20_" x="294.8" y="123" width="3.7" height="2.1"/>
								</defs>
								<clipPath id="SVGID_21_">
									<use xlink:href="#SVGID_20_"  style="overflow:visible;"/>
								</clipPath>
								<path class="st22" d="M295,124.6c0.1,0.3,0.3,0.5,0.6,0.5c0.8,0,1.5,0,2.3,0c0.2,0,0.5-0.2,0.6-0.5c0.1-0.3,0.1-0.6,0.2-0.9
									c0-0.3-0.2-0.5-0.5-0.6c-0.9-0.1-1.8-0.1-2.8,0c-0.3,0-0.5,0.3-0.5,0.6C294.8,124,294.9,124.3,295,124.6"/>
							</g>
						</g>
						<path class="st16" d="M295.3,122.9c0.5-0.1,0.9-0.1,1.4-0.1c0.5,0,0.9,0,1.4,0.1c0.2,0,0.7,0.4,0.7,0.4c0,0,0.1,0.1,0.1,0.1
							v0.6c0,0.1,0,0.1-0.1,0.1c-0.1,0-0.1,0.1-0.2,0.2c0,0.1,0,0.2-0.1,0.3c-0.1,0.3-0.4,0.6-0.7,0.6c-0.4,0-0.8,0-1.2,0
							c-0.4,0-0.8,0-1.2,0c-0.3,0-0.6-0.3-0.7-0.6c-0.1-0.3-0.1-0.6-0.2-1C294.7,123.3,294.9,123,295.3,122.9 M295,124.6
							c0.1,0.3,0.3,0.5,0.6,0.5c0.8,0,1.5,0,2.3,0c0.2,0,0.5-0.2,0.6-0.5c0.1-0.3,0.1-0.6,0.2-0.9c0-0.3-0.2-0.5-0.5-0.6
							c-0.9-0.1-1.8-0.1-2.8,0c-0.3,0-0.5,0.3-0.5,0.6C294.8,124,294.9,124.3,295,124.6"/>
						<path class="st18" d="M298.3,124.8c0.1-0.1,0.1-0.2,0.1-0.3c0.1-0.3,0.1-0.6,0.2-0.9c0-0.3-0.2-0.5-0.5-0.6
							c-0.9-0.1-1.8-0.1-2.8,0c-0.1,0-0.2,0.1-0.3,0.2c0.1-0.1,0.2-0.2,0.4-0.3c0.9-0.2,1.8-0.2,2.8,0c0.3,0,0.5,0.3,0.5,0.6
							c0,0.3-0.1,0.6-0.2,0.9C298.4,124.6,298.4,124.7,298.3,124.8"/>
						<path class="st16" d="M294.5,123.2c-0.2,0-0.3,0-0.5-0.1c0.2,0.2,0.2,0.6,0.2,0.8c0-0.2,0.2-0.3,0.3-0.2V123.2z"/>
						<path class="st16" d="M294.4,123.2c0.2,0,0.3,0,0.5-0.1c-0.2,0.2-0.2,0.6-0.2,0.8c0-0.2-0.2-0.3-0.3-0.2V123.2z"/>
						<path class="st8" d="M291.6,120.1c0,0,2,4.2,6.9,3c0.7-0.4,1.4-4.4-2.5-5.2C292,117.2,291.1,118.7,291.6,120.1"/>
						<path class="st8" d="M290,124c0,0,0.7-3,2.4-4.2c-0.2-1,0-2.1,0-2.1S289,118.8,290,124"/>
						<path class="st9" d="M296,118c-0.6-0.1-1.2-0.2-1.6-0.2v5c1.1,0.5,2.4,0.8,4.2,0.3C299.3,122.8,300,118.7,296,118"/>
					</g>
					<g>
						<path class="st23" d="M318.6,130.5c-1.3-2.6-10-4.2-10-4.2s-8.7,1.6-10,4.2c-1,3.5-1.8,8-1.8,8h11.8h11.8
							C320.5,138.5,319.9,133.7,318.6,130.5"/>
						<path class="st24" d="M308.6,126.3c0,0,8.7,1.6,10,4.2c1.3,3.2,1.8,8,1.8,8h-11.8V126.3z"/>
						<rect x="306.3" y="121.6" class="st25" width="4.7" height="7.4"/>
						<rect x="308.6" y="121.6" class="st25" width="2.4" height="7.4"/>
						<g class="st11">
							<g>
								<defs>
									<rect id="SVGID_22_" x="306.3" y="121.6" width="4.7" height="5.1"/>
								</defs>
								<clipPath id="SVGID_23_">
									<use xlink:href="#SVGID_22_"  style="overflow:visible;"/>
								</clipPath>
								<path class="st26" d="M306.3,124.9c0.4,1.2,2.4,1.8,3.4,1.8c0.5,0,0.9-0.1,1.3-0.2v-4.9h-4.7V124.9z"/>
							</g>
						</g>
						<path class="st27" d="M314.7,116.7c0-4.9-2.7-7.7-6.1-7.7c-3.4,0-6.1,2.8-6.1,7.7c0,6.6,2.7,8.9,6.1,8.9
							C312,125.6,314.7,123,314.7,116.7"/>
						<path class="st27" d="M313.8,120.1c-1-0.1-1.7-1.3-1.5-2.6c0.2-1.3,1.1-2.3,2.1-2.2c1,0.1,1.7,1.3,1.5,2.6
							C315.7,119.2,314.8,120.2,313.8,120.1"/>
						<path class="st27" d="M301.4,117.8c-0.2-1.3,0.5-2.5,1.5-2.6c1-0.1,1.9,0.9,2.1,2.2c0.2,1.3-0.5,2.5-1.5,2.6
							C302.6,120.2,301.6,119.2,301.4,117.8"/>
						<path class="st27" d="M314.7,116.7c0-4.9-2.7-7.7-6.1-7.7v16.7C312,125.6,314.7,123,314.7,116.7"/>
						<path class="st14" d="M312.3,127.3c0,0,5.6,0.8,6.4,1.7c0.7,0.7,2.2,7.9,2.5,9.5h-12.6v-10.2L312.3,127.3z"/>
						<path class="st14" d="M305,127.3c0,0-5.6,0.8-6.4,1.7c-0.7,0.7-2.2,7.9-2.5,9.5h12.6v-10.2L305,127.3z"/>
						<polygon class="st28" points="305.2,127.1 308.6,138.5 312,127.1 308.6,128 						"/>
						<path class="st29" d="M311.8,109.4c-4.5-2-8,0.8-8.8,2.1c-0.8,1.3-1.3,4.6,0.4,6.9c0,0,5.2-2.1,6.1-4.4c0,1.4-0.8,2.7-0.8,2.7
							s2.4-0.8,3.7-3c0.7,0.9,1.5,2.3,1.7,4.6C315.6,116.2,316.5,110.3,311.8,109.4"/>
						<polygon class="st30" points="309.7,129 308.6,128 307.6,129 308.3,129.7 307.6,137.3 308.6,138.5 309.7,137.3 309,129.7 
													"/>
						<polygon class="st31" points="308.6,128 308.6,128 308.6,138.5 308.6,138.5 309.7,137.3 309,129.7 309.7,129 						"/>
						<polygon class="st15" points="308.6,138.5 313.7,132.8 312,132.2 315,128 312,127.1 						"/>
						<polygon class="st15" points="308.6,138.5 303.5,132.8 305.3,132.2 302.2,128 305.2,127.1 						"/>
						<polygon class="st5" points="308.6,128 306.3,126.3 304.5,127.3 307.2,130.1 						"/>
						<polygon class="st28" points="308.6,128 311,126.3 312.6,127.3 310,130.1 						"/>
						<path class="st32" d="M311.8,109.4c-1.1-0.5-2.2-0.7-3.2-0.7v6.7c0.4-0.4,0.8-0.9,1-1.3c0,1.4-0.8,2.7-0.8,2.7s2.4-0.8,3.7-3
							c0.7,0.9,1.5,2.3,1.7,4.6C315.6,116.2,316.6,110.5,311.8,109.4"/>
					</g>
				</g>
				<circle class="st33" cx="308.3" cy="125.4" r="36.3"/>
			</g>
			<g>
				<path class="st7" d="M426.4,125.4c0,17.1-13.8,30.9-30.9,30.9c-17.1,0-30.9-13.8-30.9-30.9c0-17.1,13.8-30.9,30.9-30.9
					C412.6,94.5,426.4,108.3,426.4,125.4"/>
				<path class="st5" d="M422.6,125.4c0,14.9-12.1,27.1-27.1,27.1c-14.9,0-27.1-12.1-27.1-27.1c0-14.9,12.1-27.1,27.1-27.1
					C410.5,98.3,422.6,110.5,422.6,125.4"/>
				<g>
					<defs>
						<path id="SVGID_24_" d="M369.3,125.4c0,14.5,11.7,26.2,26.2,26.2c14.5,0,26.2-11.7,26.2-26.2c0-14.5-11.7-26.2-26.2-26.2
							C381.1,99.2,369.3,110.9,369.3,125.4"/>
					</defs>
					<clipPath id="SVGID_25_">
						<use xlink:href="#SVGID_24_"  style="overflow:visible;"/>
					</clipPath>
				</g>
				<g>
					<path class="st23" d="M405.5,130.5c-1.3-2.6-10-4.2-10-4.2s-8.7,1.6-10,4.2c-1,3.5-1.8,8-1.8,8h11.8h11.8
						C407.4,138.5,406.8,133.7,405.5,130.5"/>
					<path class="st24" d="M395.5,126.3c0,0,8.7,1.6,10,4.2c1.3,3.2,1.8,8,1.8,8h-11.8V126.3z"/>
					<rect x="393.2" y="121.6" class="st25" width="4.7" height="7.4"/>
					<rect x="395.5" y="121.6" class="st25" width="2.4" height="7.4"/>
					<g class="st11">
						<g>
							<defs>
								<rect id="SVGID_26_" x="393.2" y="121.6" width="4.7" height="5.1"/>
							</defs>
							<clipPath id="SVGID_27_">
								<use xlink:href="#SVGID_26_"  style="overflow:visible;"/>
							</clipPath>
							<path class="st34" d="M393.2,124.9c0.4,1.2,2.4,1.8,3.4,1.8c0.5,0,0.9-0.1,1.3-0.2v-4.9h-4.7V124.9z"/>
						</g>
					</g>
					<path class="st27" d="M401.6,116.7c0-4.9-2.7-7.7-6.1-7.7c-3.4,0-6.1,2.8-6.1,7.7c0,6.6,2.7,8.9,6.1,8.9
						C398.9,125.6,401.6,123,401.6,116.7"/>
					<path class="st27" d="M400.7,120.1c-1-0.1-1.7-1.3-1.5-2.6c0.2-1.3,1.1-2.3,2.1-2.2c1,0.1,1.7,1.3,1.5,2.6
						C402.6,119.2,401.7,120.2,400.7,120.1"/>
					<path class="st27" d="M388.4,117.8c-0.2-1.3,0.5-2.5,1.5-2.6c1-0.1,1.9,0.9,2.1,2.2c0.2,1.3-0.5,2.5-1.5,2.6
						C389.5,120.2,388.5,119.2,388.4,117.8"/>
					<path class="st27" d="M401.6,116.7c0-4.9-2.7-7.7-6.1-7.7v16.7C398.9,125.6,401.6,123,401.6,116.7"/>
					<path class="st14" d="M399.2,127.3c0,0,5.6,0.8,6.4,1.7c0.7,0.7,2.2,7.9,2.5,9.5h-12.6v-10.2L399.2,127.3z"/>
					<path class="st14" d="M391.9,127.3c0,0-5.6,0.8-6.4,1.7c-0.7,0.7-2.2,7.9-2.5,9.5h12.6v-10.2L391.9,127.3z"/>
					<polygon class="st28" points="392.1,127.1 395.5,138.5 398.9,127.1 395.5,128 					"/>
					<path class="st29" d="M398.7,109.4c-4.5-2-8,0.8-8.8,2.1c-0.8,1.3-1.3,4.6,0.4,6.9c0,0,5.2-2.1,6.1-4.4c0,1.4-0.8,2.7-0.8,2.7
						s2.4-0.8,3.7-3c0.7,0.9,1.5,2.3,1.7,4.6C402.5,116.2,403.4,110.3,398.7,109.4"/>
					<polygon class="st30" points="396.6,129 395.5,128 394.5,129 395.2,129.7 394.5,137.3 395.5,138.5 396.6,137.3 395.9,129.7 
											"/>
					<polygon class="st31" points="395.5,128 395.5,128 395.5,138.5 395.5,138.5 396.6,137.3 395.9,129.7 396.6,129 					"/>
					<polygon class="st15" points="395.5,138.5 400.6,132.8 398.9,132.2 402,128 398.9,127.1 					"/>
					<polygon class="st15" points="395.5,138.5 390.4,132.8 392.2,132.2 389.1,128 392.1,127.1 					"/>
					<polygon class="st5" points="395.5,128 393.2,126.3 391.4,127.3 394.1,130.1 					"/>
					<polygon class="st28" points="395.5,128 397.9,126.3 399.5,127.3 396.9,130.1 					"/>
					<path class="st32" d="M398.7,109.4c-1.1-0.5-2.2-0.7-3.2-0.7v6.7c0.4-0.4,0.8-0.9,1-1.3c0,1.4-0.8,2.7-0.8,2.7s2.4-0.8,3.7-3
						c0.7,0.9,1.5,2.3,1.7,4.6C402.5,116.2,403.5,110.5,398.7,109.4"/>
				</g>
				<circle class="st33" cx="395.5" cy="125.4" r="36.3"/>
			</g>
			<g>
				<path class="st7" d="M252,125.4c0,17.1-13.8,30.9-30.9,30.9c-17.1,0-30.9-13.8-30.9-30.9c0-17.1,13.8-30.9,30.9-30.9
					C238.2,94.5,252,108.3,252,125.4"/>
				<path class="st5" d="M248.2,125.4c0,14.9-12.1,27.1-27.1,27.1c-14.9,0-27.1-12.1-27.1-27.1c0-14.9,12.1-27.1,27.1-27.1
					C236.1,98.3,248.2,110.5,248.2,125.4"/>
				<g>
					<defs>
						<path id="SVGID_28_" d="M195,125.4c0,14.5,11.7,26.2,26.2,26.2c14.5,0,26.2-11.7,26.2-26.2c0-14.5-11.7-26.2-26.2-26.2
							C206.7,99.2,195,110.9,195,125.4"/>
					</defs>
					<clipPath id="SVGID_29_">
						<use xlink:href="#SVGID_28_"  style="overflow:visible;"/>
					</clipPath>
				</g>
				<g>
					<path class="st8" d="M222.7,125.6c0,0,1.5-1.2,5.6-1.2v-15.6c0,0-5.6-0.8-7.5,4.8C219,118.8,222.7,125.6,222.7,125.6"/>
					<path class="st9" d="M233.8,125.6c0,0-1.5-1.2-5.5-1.2v-15.6c0,0,5.6-0.8,7.5,4.8C237.5,118.8,233.8,125.6,233.8,125.6"/>
					<path class="st10" d="M237.7,130.9c-1.3-2.4-9.5-3.9-9.5-3.9s-8.2,1.5-9.5,3.9c-0.9,3.4-1.7,7.6-1.7,7.6h11.3h11.3
						C239.5,138.5,238.9,133.9,237.7,130.9"/>
					<path class="st10" d="M228.2,126.9c0,0,8.2,1.5,9.5,3.9c1.2,3.1,1.7,7.6,1.7,7.6h-11.3V126.9z"/>
					<rect x="226" y="122" class="st10" width="4.5" height="7.5"/>
					<rect x="228.2" y="122" class="st10" width="2.2" height="7.5"/>
					<g class="st11">
						<g>
							<defs>
								<rect id="SVGID_30_" x="226" y="122" width="4.5" height="5.3"/>
							</defs>
							<clipPath id="SVGID_31_">
								<use xlink:href="#SVGID_30_"  style="overflow:visible;"/>
							</clipPath>
							<path class="st35" d="M226,125.5c0.4,1.2,2,1.8,3.2,1.8c0.4,0,0.9-0.1,1.3-0.2V122H226V125.5z"/>
						</g>
					</g>
					<path class="st13" d="M234,117.3c0-4.7-2.6-7.4-5.8-7.4c-3.2,0-5.8,2.7-5.8,7.4c0,4.7,2.6,8.5,5.8,8.5
						C231.4,125.8,234,122,234,117.3"/>
					<path class="st13" d="M233.1,120.5c-1-0.1-1.8-1.3-1.6-2.7c0.2-1.4,1.2-2.4,2.2-2.3c1,0.1,1.7,1.3,1.6,2.7
						C235.1,119.6,234.2,120.6,233.1,120.5"/>
					<path class="st13" d="M221.2,118.3c-0.2-1.4,0.5-2.6,1.6-2.7c1-0.1,2,0.9,2.2,2.3c0.2,1.4-0.5,2.6-1.6,2.7
						C222.3,120.6,221.3,119.6,221.2,118.3"/>
					<path class="st13" d="M234,117.3c0-4.7-2.6-7.4-5.8-7.4v15.8C231.4,125.8,234,122,234,117.3"/>
					<polygon class="st5" points="221.2,138.5 228.2,138.5 235.2,138.5 235.2,131 221.2,131 					"/>
					<path class="st14" d="M226.9,138.5l-1.3-11c-2.9,0.5-6.2,2.1-6.9,3.3c-0.9,3.4-1.7,7.6-1.7,7.6H226.9z"/>
					<path class="st14" d="M230.1,138.5h9.4c0,0-0.5-4.6-1.7-7.6c-1.1-1.9-5.2-2.9-6.7-3.3L230.1,138.5z"/>
					<path class="st15" d="M223.1,128.2l0.3,3.3h1.5l-0.8,1.7l2.1,5.4h0.7l-1.3-11C225.6,127.5,223.8,127.9,223.1,128.2"/>
					<path class="st15" d="M233.5,128.2l-0.3,3.3h-1.5l0.8,1.7l-2.1,5.4h-0.7l1.3-11C231.1,127.5,232.8,127.9,233.5,128.2"/>
					<path class="st16" d="M222.7,117.6c0.1-0.3,0.3-0.5,0.6-0.5c1.3-0.2,2.5-0.2,3.8,0c0.3,0,0.5,0.2,0.6,0.5h0.2
						c-0.1-0.4-0.4-0.7-0.8-0.7c-0.6-0.1-1.3-0.2-1.9-0.2c-0.6,0-1.3,0-1.9,0.2c-0.3,0.1-1,0.5-1,0.5c-0.1,0-0.1,0.1-0.1,0.2v0.1
						H222.7z"/>
					<g class="st11">
						<g>
							<defs>
								<rect id="SVGID_32_" x="222.6" y="117.1" width="5.2" height="3"/>
							</defs>
							<clipPath id="SVGID_33_">
								<use xlink:href="#SVGID_32_"  style="overflow:visible;"/>
							</clipPath>
							<path class="st36" d="M227.6,119.3c-0.1,0.4-0.5,0.7-0.8,0.7c-1.1,0.1-2.1,0.1-3.2,0c-0.3,0-0.7-0.3-0.8-0.7
								c-0.1-0.4-0.2-0.9-0.2-1.3c0-0.4,0.3-0.7,0.7-0.8c1.3-0.2,2.5-0.2,3.8,0c0.4,0.1,0.7,0.4,0.7,0.8
								C227.8,118.4,227.7,118.9,227.6,119.3"/>
						</g>
					</g>
					<path class="st16" d="M227.1,117c-0.6-0.1-1.3-0.2-1.9-0.2c-0.6,0-1.3,0-1.9,0.1c-0.3,0.1-1,0.5-1,0.5c-0.1,0-0.1,0.1-0.1,0.2
						v0.9c0,0.1,0.1,0.1,0.1,0.1c0.1,0,0.2,0.2,0.2,0.3c0,0.2,0.1,0.3,0.1,0.5c0.1,0.4,0.6,0.8,1,0.9c0.5,0,1.1,0,1.6,0
						c0.5,0,1.1,0,1.6,0c0.4,0,0.8-0.4,1-0.9c0.1-0.4,0.2-0.9,0.2-1.3C228,117.6,227.6,117.1,227.1,117 M227.6,119.3
						c-0.1,0.4-0.5,0.7-0.8,0.7c-1.1,0.1-2.1,0.1-3.2,0c-0.3,0-0.7-0.3-0.8-0.7c-0.1-0.4-0.2-0.9-0.2-1.3c0-0.4,0.3-0.7,0.7-0.8
						c1.3-0.2,2.5-0.2,3.8,0c0.4,0.1,0.7,0.4,0.7,0.8C227.8,118.4,227.7,118.9,227.6,119.3"/>
					<path class="st18" d="M223,119.6c-0.1-0.1-0.2-0.2-0.2-0.4c-0.1-0.4-0.2-0.9-0.2-1.3c0-0.4,0.3-0.7,0.7-0.8
						c1.3-0.2,2.5-0.2,3.8,0c0.2,0,0.3,0.1,0.5,0.3c-0.1-0.2-0.3-0.3-0.5-0.4c-1.3-0.2-2.5-0.2-3.8,0c-0.4,0.1-0.7,0.4-0.7,0.8
						c0,0.4,0.1,0.9,0.2,1.3C222.8,119.4,222.9,119.5,223,119.6"/>
					<path class="st16" d="M234,117.6c-0.1-0.3-0.3-0.5-0.6-0.5c-1.3-0.2-2.5-0.2-3.8,0c-0.3,0-0.5,0.2-0.6,0.5h-0.2
						c0.1-0.4,0.4-0.7,0.8-0.7c0.6-0.1,1.3-0.2,1.9-0.2c0.6,0,1.3,0,1.9,0.2c0.3,0.1,1,0.5,1,0.5c0.1,0,0.1,0.1,0.1,0.2v0.1H234z"/>
					<g class="st11">
						<g>
							<defs>
								<rect id="SVGID_34_" x="228.9" y="117.1" width="5.2" height="3"/>
							</defs>
							<clipPath id="SVGID_35_">
								<use xlink:href="#SVGID_34_"  style="overflow:visible;"/>
							</clipPath>
							<path class="st37" d="M229.1,119.3c0.1,0.4,0.5,0.7,0.8,0.7c1.1,0.1,2.1,0.1,3.2,0c0.3,0,0.7-0.3,0.8-0.7
								c0.1-0.4,0.2-0.9,0.2-1.3c0-0.4-0.3-0.7-0.7-0.8c-1.3-0.2-2.5-0.2-3.8,0c-0.4,0.1-0.7,0.4-0.7,0.8
								C228.9,118.4,229,118.9,229.1,119.3"/>
						</g>
					</g>
					<path class="st16" d="M229.5,117c0.6-0.1,1.3-0.2,1.9-0.2c0.6,0,1.3,0,1.9,0.1c0.3,0.1,1,0.5,1,0.5c0.1,0,0.1,0.1,0.1,0.2v0.9
						c0,0.1-0.1,0.1-0.1,0.1c-0.1,0-0.2,0.2-0.2,0.3c0,0.2-0.1,0.3-0.1,0.5c-0.1,0.4-0.6,0.8-1,0.9c-0.5,0-1.1,0-1.6,0
						c-0.5,0-1.1,0-1.6,0c-0.4,0-0.8-0.4-1-0.9c-0.1-0.4-0.2-0.9-0.2-1.3C228.6,117.6,229,117.1,229.5,117 M229.1,119.3
						c0.1,0.4,0.5,0.7,0.8,0.7c1.1,0.1,2.1,0.1,3.2,0c0.3,0,0.7-0.3,0.8-0.7c0.1-0.4,0.2-0.9,0.2-1.3c0-0.4-0.3-0.7-0.7-0.8
						c-1.3-0.2-2.5-0.2-3.8,0c-0.4,0.1-0.7,0.4-0.7,0.8C228.9,118.4,229,118.9,229.1,119.3"/>
					<path class="st18" d="M233.6,119.6c0.1-0.1,0.2-0.2,0.2-0.4c0.1-0.4,0.2-0.9,0.2-1.3c0-0.4-0.3-0.7-0.7-0.8
						c-1.3-0.2-2.5-0.2-3.8,0c-0.2,0-0.3,0.1-0.5,0.3c0.1-0.2,0.3-0.3,0.5-0.4c1.3-0.2,2.5-0.2,3.8,0c0.4,0.1,0.7,0.4,0.7,0.8
						c0,0.4-0.1,0.9-0.2,1.3C233.9,119.4,233.8,119.5,233.6,119.6"/>
					<path class="st16" d="M228.4,117.4c-0.2,0-0.5,0-0.7-0.1c0.2,0.3,0.3,0.8,0.2,1.1c0.1-0.3,0.3-0.4,0.5-0.3V117.4z"/>
					<path class="st16" d="M228.2,117.4c0.2,0,0.5,0,0.7-0.1c-0.2,0.3-0.3,0.8-0.2,1.1c-0.1-0.3-0.3-0.4-0.5-0.3V117.4z"/>
					<path class="st8" d="M224.5,113.1c0,0,2.8,5.8,9.6,4.1c1-0.5,2-6.1-3.5-7.1C225,109.1,223.7,111.2,224.5,113.1"/>
					<path class="st8" d="M222.2,118.5c0,0,0.9-4.1,3.4-5.7c-0.2-1.3,0-2.9,0-2.9S220.8,111.3,222.2,118.5"/>
					<path class="st9" d="M230.5,110.2c-0.8-0.2-1.6-0.3-2.3-0.3v7c1.5,0.7,3.4,1,5.8,0.4C235,116.8,236,111.2,230.5,110.2"/>
					<path class="st23" d="M221.2,130.5c-1.3-2.6-10-4.2-10-4.2s-8.7,1.6-10,4.2c-1,3.5-1.8,8-1.8,8h11.8h11.8
						C223.1,138.5,222.5,133.7,221.2,130.5"/>
					<path class="st24" d="M211.2,126.3c0,0,8.7,1.6,10,4.2c1.3,3.2,1.8,8,1.8,8h-11.8V126.3z"/>
					<rect x="208.9" y="121.6" class="st25" width="4.7" height="7.4"/>
					<rect x="211.2" y="121.6" class="st25" width="2.4" height="7.4"/>
					<g class="st11">
						<g>
							<defs>
								<rect id="SVGID_36_" x="208.9" y="121.6" width="4.7" height="5.1"/>
							</defs>
							<clipPath id="SVGID_37_">
								<use xlink:href="#SVGID_36_"  style="overflow:visible;"/>
							</clipPath>
							<path class="st38" d="M208.9,124.9c0.4,1.2,2.4,1.8,3.4,1.8c0.5,0,0.9-0.1,1.3-0.2v-4.9h-4.7V124.9z"/>
						</g>
					</g>
					<path class="st27" d="M217.3,116.7c0-4.9-2.7-7.7-6.1-7.7c-3.4,0-6.1,2.8-6.1,7.7c0,6.6,2.7,8.9,6.1,8.9
						C214.6,125.6,217.3,123,217.3,116.7"/>
					<path class="st27" d="M216.4,120.1c-1-0.1-1.7-1.3-1.5-2.6c0.2-1.3,1.1-2.3,2.1-2.2c1,0.1,1.7,1.3,1.5,2.6
						C218.3,119.2,217.4,120.2,216.4,120.1"/>
					<path class="st27" d="M204.1,117.8c-0.2-1.3,0.5-2.5,1.5-2.6c1-0.1,1.9,0.9,2.1,2.2c0.2,1.3-0.5,2.5-1.5,2.6
						C205.2,120.2,204.2,119.2,204.1,117.8"/>
					<path class="st27" d="M217.3,116.7c0-4.9-2.7-7.7-6.1-7.7v16.7C214.6,125.6,217.3,123,217.3,116.7"/>
					<path class="st14" d="M214.9,127.3c0,0,5.6,0.8,6.4,1.7c0.7,0.7,2.2,7.9,2.5,9.5h-12.6v-10.2L214.9,127.3z"/>
					<path class="st14" d="M207.6,127.3c0,0-5.6,0.8-6.4,1.7c-0.7,0.7-2.2,7.9-2.5,9.5h12.6v-10.2L207.6,127.3z"/>
					<polygon class="st28" points="207.8,127.1 211.2,138.5 214.6,127.1 211.2,128 					"/>
					<path class="st29" d="M214.5,109.4c-4.5-2-8,0.8-8.8,2.1c-0.8,1.3-1.3,4.6,0.4,6.9c0,0,5.2-2.1,6.1-4.4c0,1.4-0.8,2.7-0.8,2.7
						s2.4-0.8,3.7-3c0.7,0.9,1.5,2.3,1.7,4.6C218.2,116.2,219.1,110.3,214.5,109.4"/>
					<polygon class="st30" points="212.3,129 211.2,128 210.2,129 210.9,129.7 210.2,137.3 211.2,138.5 212.3,137.3 211.6,129.7 
											"/>
					<polygon class="st31" points="211.2,128 211.2,128 211.2,138.5 211.2,138.5 212.3,137.3 211.6,129.7 212.3,129 					"/>
					<polygon class="st15" points="211.2,138.5 216.4,132.8 214.6,132.2 217.7,128 214.6,127.1 					"/>
					<polygon class="st15" points="211.2,138.5 206.1,132.8 207.9,132.2 204.8,128 207.8,127.1 					"/>
					<polygon class="st5" points="211.2,128 208.9,126.3 207.1,127.3 209.9,130.1 					"/>
					<polygon class="st28" points="211.2,128 213.6,126.3 215.3,127.3 212.6,130.1 					"/>
					<path class="st32" d="M214.5,109.4c-1.1-0.5-2.2-0.7-3.2-0.7v6.7c0.4-0.4,0.8-0.9,1-1.3c0,1.4-0.8,2.7-0.8,2.7s2.4-0.8,3.7-3
						c0.7,0.9,1.5,2.3,1.7,4.6C218.2,116.2,219.2,110.5,214.5,109.4"/>
				</g>
				<circle class="st33" cx="221.1" cy="125.4" r="36.3"/>
			</g>
			<g>
				<path class="st5" d="M176.6,240c0,25.7-20.9,46.6-46.6,46.6c-25.7,0-46.6-20.9-46.6-46.6s20.9-46.6,46.6-46.6
					C155.8,193.4,176.6,214.3,176.6,240"/>
				<radialGradient id="SVGID_38_" cx="130.0107" cy="240.0257" r="68.9972" gradientUnits="userSpaceOnUse">
					<stop  offset="0" style="stop-color:#FCFDFF"/>
					<stop  offset="1" style="stop-color:#AEC9D3"/>
				</radialGradient>
				<path class="st39" d="M168.3,240c0,21.1-17.1,38.3-38.3,38.3c-21.1,0-38.3-17.1-38.3-38.3s17.1-38.3,38.3-38.3
					C151.2,201.7,168.3,218.9,168.3,240"/>
				<g>
					<defs>
						<path id="SVGID_39_" d="M90.5,240c0,21.8,17.7,39.5,39.5,39.5c21.8,0,39.5-17.7,39.5-39.5c0-21.8-17.7-39.5-39.5-39.5
							C108.2,200.5,90.5,218.2,90.5,240"/>
					</defs>
					<clipPath id="SVGID_40_">
						<use xlink:href="#SVGID_39_"  style="overflow:visible;"/>
					</clipPath>
				</g>
				<path class="st33" d="M185.4,240c0,30.6-24.8,55.4-55.4,55.4S74.6,270.6,74.6,240c0-30.6,24.8-55.4,55.4-55.4
					S185.4,209.4,185.4,240z"/>
			</g>
			<g>
				<path class="st5" d="M544.3,416.1c0,43.5-35.2,78.7-78.7,78.7c-43.5,0-78.7-35.2-78.7-78.7c0-43.5,35.2-78.7,78.7-78.7
					C509.1,337.4,544.3,372.6,544.3,416.1"/>
				<radialGradient id="SVGID_41_" cx="465.6424" cy="416.0502" r="156.1967" gradientUnits="userSpaceOnUse">
					<stop  offset="0" style="stop-color:#FCFDFF"/>
					<stop  offset="1" style="stop-color:#AEC9D3"/>
				</radialGradient>
				<path class="st40" d="M533.3,416.1c0,37.3-30.3,67.6-67.6,67.6c-37.3,0-67.6-30.3-67.6-67.6c0-37.3,30.3-67.6,67.6-67.6
					C503,348.4,533.3,378.7,533.3,416.1"/>
				<g>
					<defs>
						<path id="SVGID_42_" d="M394.4,416.1c0,39.3,31.9,71.2,71.2,71.2s71.2-31.9,71.2-71.2c0-39.3-31.9-71.2-71.2-71.2
							S394.4,376.7,394.4,416.1"/>
					</defs>
					<clipPath id="SVGID_43_">
						<use xlink:href="#SVGID_42_"  style="overflow:visible;"/>
					</clipPath>
				</g>
				<path class="st23" d="M498.3,431.1c-4.4-8.4-32.8-13.6-32.8-13.6s-28.4,5.2-32.8,13.6c-3.3,11.6-6,26.3-6,26.3h38.8h38.8
					C504.3,457.4,502.5,441.6,498.3,431.1"/>
				<path class="st24" d="M465.6,417.5c0,0,28.4,5.2,32.8,13.6c4.1,10.5,6,26.3,6,26.3h-38.8V417.5z"/>
				<rect x="457.8" y="402.2" class="st25" width="15.4" height="24.2"/>
				<rect x="465.6" y="402.2" class="st25" width="7.7" height="24.2"/>
				<g class="st11">
					<g>
						<defs>
							<rect id="SVGID_44_" x="457.8" y="402.2" width="15.4" height="16.6"/>
						</defs>
						<clipPath id="SVGID_45_">
							<use xlink:href="#SVGID_44_"  style="overflow:visible;"/>
						</clipPath>
						<path class="st41" d="M457.8,412.9c1.4,4,7.7,5.9,11.1,5.9c1.5,0,2.9-0.2,4.3-0.7v-15.9h-15.4V412.9z"/>
					</g>
				</g>
				<path class="st27" d="M485.4,385.9c0-16.1-8.9-25.3-19.9-25.3c-11,0-19.9,9.2-19.9,25.3c0,21.7,8.9,29.2,19.9,29.2
					C476.5,415.1,485.4,406.7,485.4,385.9"/>
				<path class="st27" d="M482.4,397.1c-3.3-0.4-5.5-4.3-4.9-8.7c0.5-4.4,3.6-7.7,6.9-7.3c3.3,0.4,5.5,4.3,4.9,8.7
					C488.8,394.2,485.7,397.4,482.4,397.1"/>
				<path class="st27" d="M442.1,389.8c-0.6-4.4,1.7-8.3,4.9-8.7c3.3-0.4,6.4,2.9,6.9,7.3c0.6,4.4-1.7,8.3-4.9,8.7
					C445.7,397.4,442.6,394.2,442.1,389.8"/>
				<path class="st27" d="M485.4,385.9c0-16.1-8.9-25.3-19.9-25.3v54.6C476.5,415.1,485.4,406.7,485.4,385.9"/>
				<path class="st14" d="M477.4,420.9c0,0,18.2,2.7,20.9,5.5c2.3,2.5,7.2,25.9,8.3,31.1h-41.1v-33.3L477.4,420.9z"/>
				<path class="st14" d="M453.7,420.9c0,0-18.2,2.7-20.9,5.5c-2.3,2.5-7.2,25.9-8.3,31.1h41.1v-33.3L453.7,420.9z"/>
				<polygon class="st28" points="454.2,420.1 465.6,457.4 476.6,420.1 465.6,422.9 				"/>
				<path class="st29" d="M476.1,362.1c-14.7-6.7-26.1,2.8-28.7,6.8c-2.7,4.3-4.3,15.1,1.3,22.6c0,0,17.2-7,19.9-14.3
					c-0.2,4.7-2.7,9-2.7,9s7.9-2.6,12-9.7c2.5,2.9,4.9,7.5,5.5,15C488.4,384.4,491.4,365,476.1,362.1"/>
				<polygon class="st30" points="469,426.4 465.6,422.9 462.1,426.4 464.4,428.7 462.1,453.4 465.6,457.4 469,453.4 466.7,428.7 
									"/>
				<polygon class="st31" points="465.6,422.9 465.6,422.9 465.6,457.4 465.6,457.4 469,453.4 466.7,428.7 469,426.4 				"/>
				<polygon class="st15" points="465.6,457.4 482.3,438.8 476.6,436.6 486.6,423 476.5,420.1 				"/>
				<polygon class="st15" points="465.6,457.4 448.8,438.8 454.5,436.6 444.5,423 454.3,420.1 				"/>
				<polygon class="st5" points="465.6,422.9 457.8,417.5 452,420.8 461,429.9 				"/>
				<polygon class="st28" points="465.6,422.9 473.3,417.5 478.7,420.7 470.2,429.9 				"/>
				<path class="st32" d="M476.1,362.1c-3.8-1.7-7.3-2.4-10.5-2.3v21.8c1.5-1.4,2.6-2.8,3.1-4.3c-0.2,4.7-2.7,9-2.7,9
					s7.9-2.6,12-9.7c2.5,2.9,4.9,7.5,5.5,15C488.4,384.4,491.7,365.7,476.1,362.1"/>
				<circle class="st33" cx="465.6" cy="416.1" r="86.2"/>
			</g>
			<g>
				
					<linearGradient id="SVGID_46_" gradientUnits="userSpaceOnUse" x1="-456.8528" y1="2359.1433" x2="-505.6804" y2="2332.7607" gradientTransform="matrix(-0.4747 0.8802 -0.8802 -0.4747 1946.1156 1996.3278)">
					<stop  offset="0" style="stop-color:#C5CED5"/>
					<stop  offset="0.5636" style="stop-color:#F4F5F7"/>
					<stop  offset="1" style="stop-color:#FFFFFF"/>
				</linearGradient>
				<path class="st42" d="M165.5,442.5c-27.7,3.6-44.1,27.4-44.1,27.4l-13.7-29.2c0,0,34.8,12.1,54.1-8.1L165.5,442.5z"/>
				
					<ellipse transform="matrix(0.4747 -0.8802 0.8802 0.4747 -357.8403 328.207)" class="st5" cx="96" cy="463.9" rx="31.3" ry="31.3"/>
				
					<radialGradient id="SVGID_47_" cx="-1751.3552" cy="108.7495" r="71.7381" gradientTransform="matrix(0.8802 0.4747 -0.4747 0.8802 1688.4563 1201.922)" gradientUnits="userSpaceOnUse">
					<stop  offset="0" style="stop-color:#FCFDFF"/>
					<stop  offset="1" style="stop-color:#AEC9D3"/>
				</radialGradient>
				<circle class="st43" cx="96" cy="463.9" r="24"/>
			</g>
			<g>
				
					<linearGradient id="SVGID_48_" gradientUnits="userSpaceOnUse" x1="1006.9529" y1="4528.0654" x2="958.1254" y2="4501.6826" gradientTransform="matrix(-0.9906 0.1366 -0.1366 -0.9906 1705.5566 4727.0146)">
					<stop  offset="0" style="stop-color:#C5CED5"/>
					<stop  offset="0.5636" style="stop-color:#F4F5F7"/>
					<stop  offset="1" style="stop-color:#FFFFFF"/>
				</linearGradient>
				<path class="st44" d="M161.8,423.8c-19.2-20.2-48.1-19.4-48.1-19.4l15.5-28.3c0,0,10.8,35.3,38.5,38.9L161.8,423.8z"/>
				
					<ellipse transform="matrix(0.9906 -0.1366 0.1366 0.9906 -50.9962 17.7104)" class="st5" cx="103.5" cy="380.4" rx="31.3" ry="31.3"/>
				
					<radialGradient id="SVGID_49_" cx="-3920.2773" cy="1572.5551" r="71.7339" gradientTransform="matrix(0.1366 0.9906 -0.9906 0.1366 2194.5496 4049.9956)" gradientUnits="userSpaceOnUse">
					<stop  offset="0" style="stop-color:#FCFDFF"/>
					<stop  offset="1" style="stop-color:#AEC9D3"/>
				</radialGradient>
				<circle class="st45" cx="103.5" cy="380.4" r="24"/>
			</g>
			<g>
				<g>
					<path class="st46" d="M96,464c-3.2,0-5.8-2.7-7.1-5.4c-1-0.4-1.9-1.5-2.3-2.4c-0.3-0.7-0.4-1.5-0.3-2.2
						c0.2-0.8,0.6-1.4,1.3-1.7c0.5-4.4,4.1-7.7,8.5-7.7c4.4,0,8,3.3,8.5,7.7c0.6,0.3,1.1,0.9,1.3,1.7c0.1,0.7,0.1,1.5-0.3,2.2
						c-0.4,0.9-1.3,2-2.3,2.4C101.8,461.2,99.3,464,96,464z M96,446.1c-3.7,0-6.8,3-6.9,6.8l0,0.7l-0.7,0c-0.1,0-0.1,0-0.1,0
						c-0.2,0.1-0.3,0.4-0.4,0.5c-0.1,0.4,0,0.8,0.2,1.2c0.4,0.8,1.1,1.6,1.6,1.7l0.4,0.1l0.2,0.3c1.1,2.3,3.2,4.8,5.8,4.8
						c2.6,0,4.7-2.5,5.8-4.8l0.2-0.3l0.4-0.1c0.5-0.1,1.2-0.8,1.6-1.7c0.2-0.4,0.2-0.9,0.2-1.2c0-0.2-0.1-0.4-0.4-0.5
						c0,0-0.1,0-0.2,0l-0.7,0l0-0.7C102.8,449.1,99.8,446.1,96,446.1z"/>
				</g>
				<g>
					<path class="st46" d="M102.3,464.4l-3.2,11.8H93l-3.2-11.8c-4.2,1.1-7.4,4.9-7.4,9.5v7.8h27.3v-7.8
						C109.7,469.3,106.5,465.4,102.3,464.4z"/>
				</g>
				<g>
					<path class="st46" d="M96,465.8L96,465.8c0.6,0,1,0.4,1.1,1l1,12.8c-0.2,0.2-0.5,0.3-0.7,0.3h-2.6c-0.2,0-0.5-0.1-0.7-0.3
						l1-12.8C95,466.2,95.5,465.8,96,465.8z"/>
				</g>
				<g>
					<path class="st46" d="M103.1,450.1c-1.2-2.8-3.9-4.8-7.1-4.8c-3.2,0-5.9,2-7.1,4.8H103.1z"/>
					<path class="st46" d="M103.6,450.5H88.4l0.2-0.4c1.3-3,4.2-5,7.4-5c3.2,0,6.1,2,7.4,5L103.6,450.5z M89.4,449.8h13.2
						c-1.2-2.5-3.8-4.2-6.6-4.2C93.2,445.7,90.7,447.3,89.4,449.8z"/>
				</g>
			</g>
			<g>
				
					<linearGradient id="SVGID_50_" gradientUnits="userSpaceOnUse" x1="5135.4331" y1="-1479.3527" x2="5086.6055" y2="-1505.7354" gradientTransform="matrix(0.9998 -1.781688e-02 1.781688e-02 0.9998 -4843.0024 2066.2996)">
					<stop  offset="0" style="stop-color:#C5CED5"/>
					<stop  offset="0.5636" style="stop-color:#F4F5F7"/>
					<stop  offset="1" style="stop-color:#FFFFFF"/>
				</linearGradient>
				<path class="st47" d="M198.8,442.6c16.7,22.4,45.5,25,45.5,25l-18.8,26.2c0,0-6.5-36.3-33.6-43.2L198.8,442.6z"/>
				
					<ellipse transform="matrix(0.9998 -1.781688e-02 1.781688e-02 0.9998 -8.7363 4.5584)" class="st5" cx="251.5" cy="492.6" rx="31.3" ry="31.3"/>
				
					<radialGradient id="SVGID_51_" cx="2087.1406" cy="5701.0352" r="71.7314" gradientTransform="matrix(-1.781688e-02 -0.9998 0.9998 -1.781688e-02 -5409.0483 2680.3528)" gradientUnits="userSpaceOnUse">
					<stop  offset="0" style="stop-color:#FCFDFF"/>
					<stop  offset="1" style="stop-color:#AEC9D3"/>
				</radialGradient>
				<circle class="st48" cx="251.5" cy="492.6" r="24"/>
			</g>
			<g>
				<g>
					<g>
						<path class="st49" d="M261.9,482.6"/>
					</g>
					<g>
						<path class="st49" d="M256.5,477.2"/>
					</g>
					<g>
						<path class="st49" d="M262.6,483.7"/>
					</g>
					<g>
						<path class="st49" d="M257.2,478.3"/>
					</g>
					<g>
						<g>
							<path class="st49" d="M258.8,482.6h4l-4.5-4.5v4C258.3,482.4,258.5,482.6,258.8,482.6z"/>
						</g>
						<g>
							<path class="st49" d="M258.8,483.9c-1,0-1.8-0.8-1.8-1.8v-4.4h-17.2c-0.6,0-1.1,0.5-1.1,1.1v30c0,0.6,0.5,1.1,1.1,1.1h22.3
								c0.6,0,1.1-0.5,1.1-1.1v-24.9H258.8z M241.6,481.9h13.3c0.3,0,0.5,0.2,0.5,0.5s-0.2,0.5-0.5,0.5h-13.3
								c-0.3,0-0.5-0.2-0.5-0.5S241.3,481.9,241.6,481.9z M260.3,504.3h-18.7c-0.3,0-0.5-0.2-0.5-0.5s0.2-0.5,0.5-0.5h18.7
								c0.3,0,0.5,0.2,0.5,0.5S260.6,504.3,260.3,504.3z M260.3,500.7h-18.7c-0.3,0-0.5-0.2-0.5-0.5c0-0.3,0.2-0.5,0.5-0.5h18.7
								c0.3,0,0.5,0.2,0.5,0.5C260.8,500.5,260.6,500.7,260.3,500.7z M260.3,497.1h-18.7c-0.3,0-0.5-0.2-0.5-0.5
								c0-0.3,0.2-0.5,0.5-0.5h18.7c0.3,0,0.5,0.2,0.5,0.5C260.8,496.9,260.6,497.1,260.3,497.1z M260.3,493.6h-18.7
								c-0.3,0-0.5-0.2-0.5-0.5c0-0.3,0.2-0.5,0.5-0.5h18.7c0.3,0,0.5,0.2,0.5,0.5C260.8,493.3,260.6,493.6,260.3,493.6z M260.3,490
								h-18.7c-0.3,0-0.5-0.2-0.5-0.5s0.2-0.5,0.5-0.5h18.7c0.3,0,0.5,0.2,0.5,0.5S260.6,490,260.3,490z M260.3,486.4h-18.7
								c-0.3,0-0.5-0.2-0.5-0.5s0.2-0.5,0.5-0.5h18.7c0.3,0,0.5,0.2,0.5,0.5S260.6,486.4,260.3,486.4z"/>
						</g>
					</g>
				</g>
				<g>
					<g>
						<path class="st50" d="M253.5,500.2"/>
					</g>
					<g>
						<path class="st50" d="M252.7,500.9"/>
					</g>
					<g>
						<path class="st50" d="M253.2,499.8"/>
					</g>
					<g>
						<path class="st50" d="M252.3,500.5"/>
					</g>
					<g>
						<path class="st50" d="M252.3,500.5"/>
					</g>
					<g>
						<path class="st50" d="M252.7,500.9"/>
					</g>
					<g>
						<polygon class="st50" points="257.2,493.5 260.4,497.4 258.4,498.8 255.4,495.3 						"/>
					</g>
					<g>
						<polygon class="st50" points="258,492.8 261.3,496.7 269.4,489.1 267,486.2 						"/>
					</g>
					<g>
						<path class="st50" d="M247.5,504c-0.1,0.2,0.1,0.4,0.3,0.2l3.9-3.3c-0.2-0.4-0.1-0.9,0.3-1.2c0.4-0.4,1.1-0.3,1.4,0.1
							c0.4,0.4,0.3,1.1-0.1,1.4c-0.4,0.3-0.9,0.3-1.3,0l-3.9,3.3c-0.2,0.1,0,0.4,0.2,0.3c3.2-1.4,5.5-1.5,5.5-1.5l3.7-3.9l-1.3-1.6
							l-0.3-0.4l-1.3-1.6l-4.5,2.9C250.1,498.9,249.5,501.1,247.5,504z"/>
					</g>
				</g>
			</g>
			<g>
				<g>
					<path class="st51" d="M155.9,518.2h-1.7c-0.1,0-0.3-0.1-0.3-0.3v-1.7c0-0.1,0.1-0.3,0.3-0.3h1.7c0.1,0,0.3,0.1,0.3,0.3v1.7
						C156.1,518.1,156,518.2,155.9,518.2z"/>
					<path class="st51" d="M155.9,518.6h-1.7c-0.4,0-0.7-0.3-0.7-0.7v-1.7c0-0.4,0.3-0.7,0.7-0.7h1.7c0.4,0,0.7,0.3,0.7,0.7v1.7
						C156.5,518.3,156.2,518.6,155.9,518.6z M154.3,517.8h1.5v-1.5h-1.5V517.8z"/>
				</g>
				<g>
					<path class="st51" d="M160.4,518.2h-1.7c-0.1,0-0.3-0.1-0.3-0.3v-1.7c0-0.1,0.1-0.3,0.3-0.3h1.7c0.1,0,0.3,0.1,0.3,0.3v1.7
						C160.7,518.1,160.6,518.2,160.4,518.2z"/>
					<path class="st51" d="M160.4,518.6h-1.7c-0.4,0-0.7-0.3-0.7-0.7v-1.7c0-0.4,0.3-0.7,0.7-0.7h1.7c0.4,0,0.7,0.3,0.7,0.7v1.7
						C161.1,518.3,160.8,518.6,160.4,518.6z M158.8,517.8h1.5v-1.5h-1.5V517.8z"/>
				</g>
				<g>
					<path class="st51" d="M165,518.2h-1.7c-0.1,0-0.3-0.1-0.3-0.3v-1.7c0-0.1,0.1-0.3,0.3-0.3h1.7c0.1,0,0.3,0.1,0.3,0.3v1.7
						C165.2,518.1,165.1,518.2,165,518.2z"/>
					<path class="st51" d="M165,518.6h-1.7c-0.4,0-0.7-0.3-0.7-0.7v-1.7c0-0.4,0.3-0.7,0.7-0.7h1.7c0.4,0,0.7,0.3,0.7,0.7v1.7
						C165.6,518.3,165.3,518.6,165,518.6z M163.4,517.8h1.5v-1.5h-1.5V517.8z"/>
				</g>
				<g>
					<path class="st51" d="M169.5,518.2h-1.7c-0.1,0-0.3-0.1-0.3-0.3v-1.7c0-0.1,0.1-0.3,0.3-0.3h1.7c0.1,0,0.3,0.1,0.3,0.3v1.7
						C169.8,518.1,169.7,518.2,169.5,518.2z"/>
					<path class="st51" d="M169.5,518.6h-1.7c-0.4,0-0.7-0.3-0.7-0.7v-1.7c0-0.4,0.3-0.7,0.7-0.7h1.7c0.4,0,0.7,0.3,0.7,0.7v1.7
						C170.2,518.3,169.9,518.6,169.5,518.6z M167.9,517.8h1.5v-1.5h-1.5V517.8z"/>
				</g>
				<g>
					<path class="st51" d="M174.1,518.2h-1.7c-0.1,0-0.3-0.1-0.3-0.3v-1.7c0-0.1,0.1-0.3,0.3-0.3h1.7c0.1,0,0.3,0.1,0.3,0.3v1.7
						C174.3,518.1,174.2,518.2,174.1,518.2z"/>
					<path class="st51" d="M174.1,518.6h-1.7c-0.4,0-0.7-0.3-0.7-0.7v-1.7c0-0.4,0.3-0.7,0.7-0.7h1.7c0.4,0,0.7,0.3,0.7,0.7v1.7
						C174.7,518.3,174.4,518.6,174.1,518.6z M172.5,517.8h1.5v-1.5h-1.5V517.8z"/>
				</g>
				<g>
					<path class="st51" d="M178.6,518.6h-1.7c-0.4,0-0.7-0.3-0.7-0.7v-1.7c0-0.4,0.3-0.7,0.7-0.7h1.7c0.4,0,0.7,0.3,0.7,0.7v1.7
						C179.3,518.3,179,518.6,178.6,518.6z M177,517.8h1.5v-1.5H177V517.8z"/>
				</g>
				<g>
					<path class="st51" d="M155.9,522.3h-1.7c-0.1,0-0.3-0.1-0.3-0.3v-1.7c0-0.1,0.1-0.3,0.3-0.3h1.7c0.1,0,0.3,0.1,0.3,0.3v1.7
						C156.1,522.2,156,522.3,155.9,522.3z"/>
					<path class="st51" d="M155.9,522.7h-1.7c-0.4,0-0.7-0.3-0.7-0.7v-1.7c0-0.4,0.3-0.7,0.7-0.7h1.7c0.4,0,0.7,0.3,0.7,0.7v1.7
						C156.5,522.4,156.2,522.7,155.9,522.7z M154.3,521.9h1.5v-1.5h-1.5V521.9z"/>
				</g>
				<g>
					<path class="st51" d="M160.4,522.3h-1.7c-0.1,0-0.3-0.1-0.3-0.3v-1.7c0-0.1,0.1-0.3,0.3-0.3h1.7c0.1,0,0.3,0.1,0.3,0.3v1.7
						C160.7,522.2,160.6,522.3,160.4,522.3z"/>
					<path class="st51" d="M160.4,522.7h-1.7c-0.4,0-0.7-0.3-0.7-0.7v-1.7c0-0.4,0.3-0.7,0.7-0.7h1.7c0.4,0,0.7,0.3,0.7,0.7v1.7
						C161.1,522.4,160.8,522.7,160.4,522.7z M158.8,521.9h1.5v-1.5h-1.5V521.9z"/>
				</g>
				<g>
					<path class="st51" d="M165,522.3h-1.7c-0.1,0-0.3-0.1-0.3-0.3v-1.7c0-0.1,0.1-0.3,0.3-0.3h1.7c0.1,0,0.3,0.1,0.3,0.3v1.7
						C165.2,522.2,165.1,522.3,165,522.3z"/>
					<path class="st51" d="M165,522.7h-1.7c-0.4,0-0.7-0.3-0.7-0.7v-1.7c0-0.4,0.3-0.7,0.7-0.7h1.7c0.4,0,0.7,0.3,0.7,0.7v1.7
						C165.6,522.4,165.3,522.7,165,522.7z M163.4,521.9h1.5v-1.5h-1.5V521.9z"/>
				</g>
				<g>
					<path class="st51" d="M169.5,522.3h-1.7c-0.1,0-0.3-0.1-0.3-0.3v-1.7c0-0.1,0.1-0.3,0.3-0.3h1.7c0.1,0,0.3,0.1,0.3,0.3v1.7
						C169.8,522.2,169.7,522.3,169.5,522.3z"/>
					<path class="st51" d="M169.5,522.7h-1.7c-0.4,0-0.7-0.3-0.7-0.7v-1.7c0-0.4,0.3-0.7,0.7-0.7h1.7c0.4,0,0.7,0.3,0.7,0.7v1.7
						C170.2,522.4,169.9,522.7,169.5,522.7z M167.9,521.9h1.5v-1.5h-1.5V521.9z"/>
				</g>
				<g>
					<path class="st51" d="M174.1,522.3h-1.7c-0.1,0-0.3-0.1-0.3-0.3v-1.7c0-0.1,0.1-0.3,0.3-0.3h1.7c0.1,0,0.3,0.1,0.3,0.3v1.7
						C174.3,522.2,174.2,522.3,174.1,522.3z"/>
					<path class="st51" d="M174.1,522.7h-1.7c-0.4,0-0.7-0.3-0.7-0.7v-1.7c0-0.4,0.3-0.7,0.7-0.7h1.7c0.4,0,0.7,0.3,0.7,0.7v1.7
						C174.7,522.4,174.4,522.7,174.1,522.7z M172.5,521.9h1.5v-1.5h-1.5V521.9z"/>
				</g>
				<g>
					<path class="st51" d="M178.6,522.7h-1.7c-0.4,0-0.7-0.3-0.7-0.7v-1.7c0-0.4,0.3-0.7,0.7-0.7h1.7c0.4,0,0.7,0.3,0.7,0.7v1.7
						C179.3,522.4,179,522.7,178.6,522.7z M177,521.9h1.5v-1.5H177V521.9z"/>
				</g>
				<g>
					<path class="st51" d="M155.9,526.3h-1.7c-0.1,0-0.3-0.1-0.3-0.3v-1.7c0-0.1,0.1-0.3,0.3-0.3h1.7c0.1,0,0.3,0.1,0.3,0.3v1.7
						C156.1,526.2,156,526.3,155.9,526.3z"/>
					<path class="st51" d="M155.9,526.7h-1.7c-0.4,0-0.7-0.3-0.7-0.7v-1.7c0-0.4,0.3-0.7,0.7-0.7h1.7c0.4,0,0.7,0.3,0.7,0.7v1.7
						C156.5,526.4,156.2,526.7,155.9,526.7z M154.3,526h1.5v-1.5h-1.5V526z"/>
				</g>
				<g>
					<path class="st51" d="M160.4,526.3h-1.7c-0.1,0-0.3-0.1-0.3-0.3v-1.7c0-0.1,0.1-0.3,0.3-0.3h1.7c0.1,0,0.3,0.1,0.3,0.3v1.7
						C160.7,526.2,160.6,526.3,160.4,526.3z"/>
					<path class="st51" d="M160.4,526.7h-1.7c-0.4,0-0.7-0.3-0.7-0.7v-1.7c0-0.4,0.3-0.7,0.7-0.7h1.7c0.4,0,0.7,0.3,0.7,0.7v1.7
						C161.1,526.4,160.8,526.7,160.4,526.7z M158.8,526h1.5v-1.5h-1.5V526z"/>
				</g>
				<g>
					<path class="st51" d="M165,526.3h-1.7c-0.1,0-0.3-0.1-0.3-0.3v-1.7c0-0.1,0.1-0.3,0.3-0.3h1.7c0.1,0,0.3,0.1,0.3,0.3v1.7
						C165.2,526.2,165.1,526.3,165,526.3z"/>
					<path class="st51" d="M165,526.7h-1.7c-0.4,0-0.7-0.3-0.7-0.7v-1.7c0-0.4,0.3-0.7,0.7-0.7h1.7c0.4,0,0.7,0.3,0.7,0.7v1.7
						C165.6,526.4,165.3,526.7,165,526.7z M163.4,526h1.5v-1.5h-1.5V526z"/>
				</g>
				<g>
					<path class="st51" d="M169.5,526.3h-1.7c-0.1,0-0.3-0.1-0.3-0.3v-1.7c0-0.1,0.1-0.3,0.3-0.3h1.7c0.1,0,0.3,0.1,0.3,0.3v1.7
						C169.8,526.2,169.7,526.3,169.5,526.3z"/>
					<path class="st51" d="M169.5,526.7h-1.7c-0.4,0-0.7-0.3-0.7-0.7v-1.7c0-0.4,0.3-0.7,0.7-0.7h1.7c0.4,0,0.7,0.3,0.7,0.7v1.7
						C170.2,526.4,169.9,526.7,169.5,526.7z M167.9,526h1.5v-1.5h-1.5V526z"/>
				</g>
				<g>
					<path class="st51" d="M174.1,526.3h-1.7c-0.1,0-0.3-0.1-0.3-0.3v-1.7c0-0.1,0.1-0.3,0.3-0.3h1.7c0.1,0,0.3,0.1,0.3,0.3v1.7
						C174.3,526.2,174.2,526.3,174.1,526.3z"/>
					<path class="st51" d="M174.1,526.7h-1.7c-0.4,0-0.7-0.3-0.7-0.7v-1.7c0-0.4,0.3-0.7,0.7-0.7h1.7c0.4,0,0.7,0.3,0.7,0.7v1.7
						C174.7,526.4,174.4,526.7,174.1,526.7z M172.5,526h1.5v-1.5h-1.5V526z"/>
				</g>
				<g>
					<path class="st51" d="M176.1,530.1c-0.4,0-0.6-0.3-0.6-0.6v-4.7c0-0.6,0.5-1.1,1.1-1.1h4.7c0.4,0,0.6,0.3,0.6,0.6
						c0,0.4-0.3,0.6-0.6,0.6h-4.5v4.5C176.7,529.8,176.4,530.1,176.1,530.1z"/>
				</g>
				<g>
					<line class="st51" x1="157.2" y1="505.8" x2="160.9" y2="505.8"/>
				</g>
				<g>
					<line class="st51" x1="172.3" y1="505.8" x2="176" y2="505.8"/>
				</g>
				<g>
					<path class="st51" d="M176,505.8"/>
				</g>
				<g>
					<path class="st51" d="M172.3,505.8"/>
				</g>
				<g>
					<path class="st51" d="M157.2,505.8v3.9c0,1,0.8,1.9,1.9,1.9c1,0,1.9-0.8,1.9-1.9v-3.9H157.2z M159.1,510
						c-0.4,0-0.8-0.3-0.8-0.8s0.3-0.8,0.8-0.8c0.4,0,0.8,0.3,0.8,0.8S159.5,510,159.1,510z"/>
				</g>
				<g>
					<path class="st51" d="M172.3,505.8v3.9c0,1,0.8,1.9,1.9,1.9l0,0c1,0,1.9-0.8,1.9-1.9v-3.9H172.3z M174.1,510
						c-0.4,0-0.8-0.3-0.8-0.8s0.3-0.8,0.8-0.8c0.4,0,0.8,0.3,0.8,0.8S174.5,510,174.1,510z"/>
				</g>
				<g>
					<path class="st51" d="M181.8,513.2v-3.5c0-0.7-0.5-1.2-1.2-1.2h-4.1v1.3c0,1.3-1.1,2.4-2.4,2.4c-1.3,0-2.4-1.1-2.4-2.4v-1.3
						h-10.3v1.3c0,1.3-1.1,2.4-2.4,2.4c-1.3,0-2.4-1.1-2.4-2.4v-1.3h-4.1c-0.7,0-1.2,0.5-1.2,1.2v3.5H181.8z"/>
				</g>
				<g>
					<path class="st51" d="M180.2,507.8h-3.7c0,0,0,0,0,0v1.3c0,0,0,0,0,0h3.7c0.4,0,0.8,0.4,0.8,0.8v14.5c0,0.2-0.1,0.4-0.2,0.6
						l-4.2,4.2c-0.2,0.2-0.4,0.2-0.6,0.2h-23.2c-0.4,0-0.8-0.4-0.8-0.8v-18.7c0-0.4,0.4-0.8,0.8-0.8h3.6c0.1,0,0.2,0,0.3-0.1v-1.2
						c-0.1,0-0.2-0.1-0.3-0.1h-3.6c-1.2,0-2.1,0.9-2.1,2.1v18.7c0,1.2,0.9,2.1,2.1,2.1H176c0.6,0,1.1-0.2,1.5-0.6l4.2-4.2
						c0.4-0.4,0.6-0.9,0.6-1.5v-14.5C182.3,508.8,181.4,507.8,180.2,507.8z"/>
				</g>
			</g>
			<g>
				<path class="st46" d="M118.7,380.4c0,0.4-0.1,0.8-0.4,1.2c-1.7,2.7-3.9,4.9-6.7,6.6s-5.8,2.5-8.9,2.5c-3.1,0-6.1-0.8-8.9-2.5
					c-2.8-1.7-5.1-3.8-6.7-6.6c-0.2-0.4-0.4-0.8-0.4-1.2c0-0.4,0.1-0.8,0.4-1.2c1.7-2.7,3.9-4.9,6.7-6.6c2.8-1.7,5.8-2.5,8.9-2.5
					c3.1,0,6.1,0.8,8.9,2.5c2.8,1.7,5.1,3.8,6.7,6.6C118.6,379.6,118.7,380,118.7,380.4z M116.4,380.4c-1.8-2.8-4.1-4.9-6.8-6.3
					c0.7,1.2,1.1,2.6,1.1,4c0,2.2-0.8,4.1-2.4,5.7c-1.6,1.6-3.5,2.4-5.7,2.4c-2.2,0-4.1-0.8-5.7-2.4c-1.6-1.6-2.4-3.5-2.4-5.7
					c0-1.4,0.4-2.8,1.1-4c-2.7,1.4-5,3.5-6.8,6.3c1.6,2.4,3.6,4.4,6,5.8c2.4,1.4,5,2.2,7.8,2.2s5.4-0.7,7.8-2.2
					C112.8,384.8,114.8,382.8,116.4,380.4z M103.3,374.1c0.2-0.2,0.3-0.4,0.3-0.6s-0.1-0.4-0.3-0.6c-0.2-0.2-0.4-0.2-0.6-0.2
					c-1.5,0-2.8,0.5-3.8,1.6c-1.1,1.1-1.6,2.3-1.6,3.8c0,0.2,0.1,0.4,0.3,0.6c0.2,0.2,0.4,0.3,0.6,0.3c0.2,0,0.4-0.1,0.6-0.3
					c0.2-0.2,0.3-0.4,0.3-0.6c0-1,0.4-1.9,1.1-2.6c0.7-0.7,1.6-1.1,2.6-1.1C102.9,374.4,103.1,374.3,103.3,374.1z"/>
			</g>
			<g>
				<g>
					<path d="M445.6,311.9l-1.2,3.5H443l3.8-11.2h1.7l3.8,11.2h-1.5l-1.2-3.5H445.6z M449.3,310.8l-1.1-3.2c-0.2-0.7-0.4-1.4-0.6-2
						h0c-0.2,0.7-0.3,1.3-0.6,2l-1.1,3.2H449.3z"/>
					<path d="M460.6,303.7v9.7c0,0.7,0,1.5,0.1,2.1h-1.3l-0.1-1.4h0c-0.4,0.9-1.4,1.6-2.7,1.6c-1.9,0-3.4-1.6-3.4-4.1
						c0-2.7,1.6-4.3,3.6-4.3c1.2,0,2.1,0.6,2.4,1.2h0v-4.8H460.6z M459.2,310.7c0-0.2,0-0.4-0.1-0.6c-0.2-0.9-1-1.7-2.1-1.7
						c-1.5,0-2.4,1.3-2.4,3.1c0,1.6,0.8,3,2.4,3c1,0,1.9-0.6,2.1-1.7c0-0.2,0.1-0.4,0.1-0.6V310.7z"/>
					<path d="M463.1,309.6c0-0.8,0-1.5-0.1-2.2h1.3l0.1,1.3h0c0.4-0.8,1.2-1.5,2.5-1.5c1.1,0,1.9,0.7,2.3,1.6h0
						c0.2-0.4,0.6-0.8,0.9-1c0.5-0.4,1-0.6,1.8-0.6c1.1,0,2.6,0.7,2.6,3.5v4.7h-1.4v-4.5c0-1.5-0.6-2.5-1.7-2.5
						c-0.8,0-1.5,0.6-1.7,1.3c-0.1,0.2-0.1,0.5-0.1,0.7v5h-1.4v-4.8c0-1.3-0.6-2.2-1.7-2.2c-0.9,0-1.6,0.7-1.8,1.5
						c-0.1,0.2-0.1,0.5-0.1,0.7v4.8h-1.4V309.6z"/>
					<path d="M478.5,305.2c0,0.5-0.3,0.9-0.9,0.9c-0.5,0-0.9-0.4-0.9-0.9c0-0.5,0.4-0.9,0.9-0.9
						C478.1,304.3,478.5,304.7,478.5,305.2z M476.9,315.4v-8h1.5v8H476.9z"/>
					<path d="M480.7,309.6c0-0.8,0-1.5-0.1-2.2h1.3l0.1,1.3h0c0.4-0.8,1.3-1.5,2.6-1.5c1.1,0,2.8,0.7,2.8,3.4v4.8h-1.5v-4.6
						c0-1.3-0.5-2.4-1.9-2.4c-1,0-1.7,0.7-2,1.5c-0.1,0.2-0.1,0.4-0.1,0.7v4.8h-1.5V309.6z"/>
				</g>
			</g>
			<g>
				<g>
					<defs>
						<path id="SVGID_52_" d="M111.7,429.5c0,38.6,31.3,69.9,69.9,69.9c38.6,0,69.9-31.3,69.9-69.9c0-38.6-31.3-69.9-69.9-69.9
							C143,359.6,111.7,390.9,111.7,429.5"/>
					</defs>
					<clipPath id="SVGID_53_">
						<use xlink:href="#SVGID_52_"  style="overflow:visible;"/>
					</clipPath>
				</g>
				<path class="st5" d="M226.7,429.5c0,24.9-20.2,45.1-45.1,45.1c-24.9,0-45.1-20.2-45.1-45.1c0-24.9,20.2-45.1,45.1-45.1
					C206.5,384.4,226.7,404.6,226.7,429.5"/>
				<radialGradient id="SVGID_54_" cx="181.6156" cy="429.501" r="72.6359" gradientUnits="userSpaceOnUse">
					<stop  offset="0" style="stop-color:#FCFDFF"/>
					<stop  offset="1" style="stop-color:#AEC9D3"/>
				</radialGradient>
				<path class="st52" d="M222,429.5c0,22.3-18.1,40.4-40.4,40.4c-22.3,0-40.4-18.1-40.4-40.4c0-22.3,18.1-40.4,40.4-40.4
					C203.9,389.1,222,407.2,222,429.5"/>
				<circle class="st33" cx="181.6" cy="429.5" r="51.3"/>
				<g>
					<g>
						<path class="st53" d="M191.6,438.2v-5.3l-4.1-0.9c-0.2-1.1-0.6-2.1-1-3.1l2.8-3.1l-3.1-4.3l-3.8,1.7c-0.8-0.7-1.7-1.4-2.7-1.9
							l0.4-4.2l-5.1-1.6l-2.1,3.6c-0.5-0.1-1.1-0.1-1.7-0.1c-0.6,0-1.1,0-1.7,0.1l-2.1-3.6l-5.1,1.7l0.4,4.2c-1,0.6-1.9,1.2-2.7,1.9
							l-3.8-1.7l-3.1,4.3l2.8,3.1c-0.4,1-0.8,2.1-1,3.1l-4.1,0.9l0,5.3l4.1,0.9c0.2,1.1,0.6,2.1,1,3.1l-2.8,3.1l3.1,4.3l3.8-1.7
							c0.8,0.7,1.7,1.4,2.7,1.9l-0.4,4.2l5.1,1.6l2.1-3.6c0.5,0.1,1.1,0.1,1.7,0.1c0.6,0,1.1,0,1.7-0.1l2.1,3.6l5.1-1.7l-0.4-4.2
							c1-0.6,1.9-1.2,2.7-2l3.8,1.7l3.1-4.3l-2.8-3.1c0.4-1,0.8-2.1,1-3.1L191.6,438.2z M171.2,447.4c-6.6,0-11.9-5.3-11.9-11.9
							c0-6.6,5.3-11.9,11.9-11.9c6.6,0,11.9,5.3,11.9,11.9C183.1,442.1,177.8,447.4,171.2,447.4z"/>
					</g>
					<g>
						<path class="st53" d="M212.4,422.7v-3.2l-2.4-0.5c-0.1-0.7-0.3-1.3-0.6-1.9l1.7-1.9l-1.9-2.6l-2.3,1c-0.5-0.4-1-0.8-1.6-1.2
							l0.3-2.5l-3-1l-1.3,2.2c-0.3,0-0.6,0-1,0c-0.3,0-0.7,0-1,0.1l-1.3-2.2l-3,1l0.3,2.5c-0.6,0.3-1.1,0.7-1.6,1.2l-2.3-1l-1.9,2.6
							l1.7,1.9c-0.3,0.6-0.5,1.2-0.6,1.9l-2.4,0.5l0,3.2l2.4,0.5c0.1,0.6,0.3,1.3,0.6,1.9l-1.7,1.9l1.9,2.6l2.3-1
							c0.5,0.4,1,0.8,1.6,1.2l-0.3,2.5l3,1l1.2-2.2c0.3,0,0.7,0,1,0c0.3,0,0.7,0,1,0l1.2,2.2l3-1l-0.3-2.5c0.6-0.3,1.1-0.7,1.6-1.2
							l2.3,1l1.9-2.6l-1.7-1.9c0.3-0.6,0.5-1.2,0.6-1.9L212.4,422.7z M200.3,428.2c-3.9,0-7.1-3.2-7.1-7.1c0-3.9,3.2-7.1,7.1-7.1
							c3.9,0,7.1,3.2,7.1,7.1C207.4,425,204.2,428.2,200.3,428.2z"/>
					</g>
				</g>
			</g>
			<line class="st33" x1="378.6" y1="425.8" x2="232.8" y2="425.8"/>
			<line class="st33" x1="175.6" y1="377.9" x2="142.7" y2="294"/>
			<g>
				<path class="st9" d="M155.8,242.4l-12.7,6.8c-0.6,0.3-1.4,0.6-2.3,0.6h-9.3c-1.7,0-2.8-1.1-2.8-2.8c0-1.7,1.1-2.8,2.8-2.8h5.7
					c1.7,0,2.8-1.1,2.8-2.8c0-1.7-1.1-2.8-2.8-2.8h-13.3c-0.6,0-1.1,0-1.7,0.3l-7.6,2.3v17l7.6-2.5c0.6-0.3,1.1-0.3,1.7-0.3h18.1
					c0.8,0,1.4-0.3,2.3-0.6l13.9-7.1c1.4-0.6,2-2.3,1.4-3.7S157.2,241.8,155.8,242.4z"/>
				<rect x="104.7" y="241" class="st9" width="5.7" height="19.8"/>
				<path class="st9" d="M161.3,230.8h-5.7c0-9.9-7.4-18.1-17-19.5c0,0,0,0,0-0.3c0-1.7-1.1-2.8-2.8-2.8c-1.7,0-2.8,1.1-2.8,2.8v0.3
					c-9.6,1.4-17,9.6-17,19.5h-5.7l2.8,5.7h45.3L161.3,230.8z"/>
			</g>
			<g>
				<g>
					<radialGradient id="SVGID_55_" cx="308.3354" cy="284.5885" r="46.6083" gradientUnits="userSpaceOnUse">
						<stop  offset="0" style="stop-color:#FCFDFF"/>
						<stop  offset="1" style="stop-color:#AEC9D3"/>
					</radialGradient>
					<path class="st54" d="M354.9,284.6c0,25.7-20.9,46.6-46.6,46.6c-25.7,0-46.6-20.9-46.6-46.6c0-25.7,20.9-46.6,46.6-46.6
						C334.1,238,354.9,258.8,354.9,284.6"/>
					<path class="st33" d="M363.7,284.6c0,30.6-24.8,55.4-55.4,55.4s-55.4-24.8-55.4-55.4c0-30.6,24.8-55.4,55.4-55.4
						S363.7,254,363.7,284.6z"/>
				</g>
				<g>
					<path class="st55" d="M331.7,312.4h-44.3c-2.7,0-4.9-2.2-4.9-4.9v-44.3c0-2.7,2.2-4.9,4.9-4.9h44.3c2.7,0,4.9,2.2,4.9,4.9v44.3
						C336.5,310.2,334.3,312.4,331.7,312.4z"/>
					<rect x="283.8" y="259.4" class="st7" width="52.7" height="12.6"/>
					<circle class="st5" cx="289" cy="264.6" r="3.4"/>
					<circle class="st5" cx="298.4" cy="264.6" r="3.4"/>
					<circle class="st5" cx="308.3" cy="264.6" r="3.4"/>
				</g>
			</g>
			<line class="st33" x1="184.6" y1="261.1" x2="251.4" y2="279.2"/>
			<line class="st33" x1="308.3" y1="228.4" x2="308.3" y2="161"/>
			<line class="st33" x1="219.6" y1="161.8" x2="219.6" y2="181.6"/>
			<line class="st33" x1="394.5" y1="161.8" x2="394.5" y2="181.6"/>
			<line class="st33" x1="219.6" y1="181.6" x2="394.5" y2="181.6"/>
		</g>
		<g>
			<g>
				<path d="M183.8,72.2h-4.3v4h4.8v1.2H178V66.3h6v1.2h-4.6V71h4.3V72.2z"/>
				<path d="M186.1,71.6c0-0.8,0-1.5-0.1-2.2h1.3l0.1,1.3h0c0.4-0.8,1.2-1.5,2.5-1.5c1.1,0,1.9,0.7,2.3,1.6h0c0.2-0.4,0.6-0.8,0.9-1
					c0.5-0.4,1-0.6,1.8-0.6c1.1,0,2.6,0.7,2.6,3.5v4.7h-1.4v-4.5c0-1.5-0.6-2.5-1.7-2.5c-0.8,0-1.5,0.6-1.7,1.3
					c-0.1,0.2-0.1,0.5-0.1,0.7v5h-1.4v-4.8c0-1.3-0.6-2.2-1.7-2.2c-0.9,0-1.6,0.7-1.8,1.5c-0.1,0.2-0.1,0.5-0.1,0.7v4.8h-1.4V71.6z"
					/>
				<path d="M199.9,72c0-1,0-1.9-0.1-2.6h1.3l0.1,1.4h0c0.6-1,1.5-1.6,2.8-1.6c1.9,0,3.4,1.6,3.4,4.1c0,2.9-1.8,4.3-3.6,4.3
					c-1.1,0-2-0.5-2.5-1.3h0v4.4h-1.4V72z M201.3,74.2c0,0.2,0,0.4,0.1,0.6c0.3,1,1.1,1.7,2.2,1.7c1.5,0,2.4-1.3,2.4-3.1
					c0-1.6-0.8-3-2.4-3c-1,0-1.9,0.7-2.2,1.8c0,0.2-0.1,0.4-0.1,0.6V74.2z"/>
				<path d="M209.3,65.7h1.5v11.8h-1.5V65.7z"/>
				<path d="M220.5,73.4c0,3-2.1,4.3-4,4.3c-2.2,0-3.8-1.6-3.8-4.1c0-2.7,1.8-4.3,4-4.3C218.9,69.2,220.5,70.9,220.5,73.4z
					 M214.1,73.5c0,1.8,1,3.1,2.4,3.1c1.4,0,2.4-1.3,2.4-3.1c0-1.4-0.7-3.1-2.4-3.1S214.1,71.9,214.1,73.5z"/>
				<path d="M222.7,69.4l1.8,4.7c0.2,0.5,0.4,1.2,0.5,1.6h0c0.1-0.5,0.3-1.1,0.5-1.7l1.6-4.7h1.5l-2.2,5.7c-1,2.7-1.8,4.2-2.7,5
					c-0.7,0.6-1.4,0.9-1.8,0.9l-0.4-1.2c0.4-0.1,0.8-0.3,1.3-0.7c0.4-0.3,0.9-0.9,1.2-1.6c0.1-0.1,0.1-0.3,0.1-0.3
					c0-0.1,0-0.2-0.1-0.4l-3-7.4H222.7z"/>
				<path d="M230.6,73.7c0,2,1.3,2.8,2.7,2.8c1,0,1.7-0.2,2.2-0.4l0.2,1c-0.5,0.2-1.4,0.5-2.7,0.5c-2.5,0-3.9-1.6-3.9-4
					s1.4-4.3,3.8-4.3c2.6,0,3.3,2.3,3.3,3.8c0,0.3,0,0.5,0,0.7H230.6z M234.9,72.7c0-0.9-0.4-2.4-2-2.4c-1.5,0-2.1,1.4-2.2,2.4
					H234.9z"/>
				<path d="M238.9,73.7c0,2,1.3,2.8,2.7,2.8c1,0,1.7-0.2,2.2-0.4l0.2,1c-0.5,0.2-1.4,0.5-2.7,0.5c-2.5,0-3.9-1.6-3.9-4
					s1.4-4.3,3.8-4.3c2.6,0,3.3,2.3,3.3,3.8c0,0.3,0,0.5,0,0.7H238.9z M243.2,72.7c0-0.9-0.4-2.4-2-2.4c-1.5,0-2.1,1.4-2.2,2.4
					H243.2z"/>
				<path d="M246.2,76c0.4,0.3,1.2,0.6,1.9,0.6c1.1,0,1.6-0.5,1.6-1.2c0-0.7-0.4-1.1-1.5-1.5c-1.4-0.5-2.1-1.3-2.1-2.3
					c0-1.3,1-2.4,2.8-2.4c0.8,0,1.5,0.2,2,0.5l-0.4,1.1c-0.3-0.2-0.9-0.5-1.6-0.5c-0.9,0-1.3,0.5-1.3,1.1c0,0.7,0.5,1,1.5,1.4
					c1.4,0.5,2.1,1.2,2.1,2.4c0,1.4-1.1,2.4-3,2.4c-0.9,0-1.7-0.2-2.3-0.5L246.2,76z"/>
			</g>
		</g>
		<g>
			<g>
				<path d="M369.2,66.4c0.7-0.1,1.6-0.2,2.8-0.2c1.4,0,2.5,0.3,3.1,0.9c0.6,0.5,1,1.3,1,2.3c0,1-0.3,1.8-0.9,2.4
					c-0.8,0.8-2,1.2-3.4,1.2c-0.4,0-0.8,0-1.2-0.1v4.5h-1.4V66.4z M370.6,71.8c0.3,0.1,0.7,0.1,1.2,0.1c1.7,0,2.8-0.8,2.8-2.4
					c0-1.5-1-2.2-2.6-2.2c-0.6,0-1.1,0-1.4,0.1V71.8z"/>
				<path d="M382,77.4l-0.1-1h0c-0.4,0.6-1.3,1.2-2.5,1.2c-1.6,0-2.5-1.1-2.5-2.3c0-1.9,1.7-3,4.8-3v-0.2c0-0.7-0.2-1.9-1.8-1.9
					c-0.7,0-1.5,0.2-2.1,0.6l-0.3-1c0.7-0.4,1.6-0.7,2.6-0.7c2.5,0,3,1.7,3,3.3v3c0,0.7,0,1.4,0.1,1.9H382z M381.7,73.4
					c-1.6,0-3.4,0.2-3.4,1.8c0,0.9,0.6,1.4,1.4,1.4c1,0,1.7-0.7,1.9-1.3c0-0.1,0.1-0.3,0.1-0.5V73.4z"/>
				<path d="M387.2,67.1v2.3h2.1v1.1h-2.1v4.3c0,1,0.3,1.6,1.1,1.6c0.4,0,0.7,0,0.8-0.1l0.1,1.1c-0.3,0.1-0.7,0.2-1.3,0.2
					c-0.7,0-1.2-0.2-1.6-0.6c-0.4-0.4-0.6-1.1-0.6-2.1v-4.4h-1.2v-1.1h1.2v-1.9L387.2,67.1z"/>
				<path d="M392.5,67.2c0,0.5-0.3,0.9-0.9,0.9c-0.5,0-0.9-0.4-0.9-0.9c0-0.5,0.4-0.9,0.9-0.9C392.2,66.3,392.5,66.7,392.5,67.2z
					 M390.9,77.4v-8h1.5v8H390.9z"/>
				<path d="M395.6,73.7c0,2,1.3,2.8,2.7,2.8c1,0,1.7-0.2,2.2-0.4l0.2,1c-0.5,0.2-1.4,0.5-2.7,0.5c-2.5,0-3.9-1.6-3.9-4
					s1.4-4.3,3.8-4.3c2.6,0,3.3,2.3,3.3,3.8c0,0.3,0,0.5,0,0.7H395.6z M399.9,72.7c0-0.9-0.4-2.4-2-2.4c-1.5,0-2.1,1.4-2.2,2.4
					H399.9z"/>
				<path d="M403.1,71.6c0-0.8,0-1.5-0.1-2.2h1.3l0.1,1.3h0c0.4-0.8,1.3-1.5,2.6-1.5c1.1,0,2.8,0.7,2.8,3.4v4.8h-1.5v-4.6
					c0-1.3-0.5-2.4-1.9-2.4c-1,0-1.7,0.7-2,1.5c-0.1,0.2-0.1,0.4-0.1,0.7v4.8h-1.5V71.6z"/>
				<path d="M414,67.1v2.3h2.1v1.1H414v4.3c0,1,0.3,1.6,1.1,1.6c0.4,0,0.7,0,0.8-0.1l0.1,1.1c-0.3,0.1-0.7,0.2-1.3,0.2
					c-0.7,0-1.2-0.2-1.6-0.6c-0.4-0.4-0.6-1.1-0.6-2.1v-4.4h-1.2v-1.1h1.2v-1.9L414,67.1z"/>
				<path d="M417.5,76c0.4,0.3,1.2,0.6,1.9,0.6c1.1,0,1.6-0.5,1.6-1.2c0-0.7-0.4-1.1-1.5-1.5c-1.4-0.5-2.1-1.3-2.1-2.3
					c0-1.3,1-2.4,2.8-2.4c0.8,0,1.5,0.2,2,0.5l-0.4,1.1c-0.3-0.2-0.9-0.5-1.6-0.5c-0.9,0-1.3,0.5-1.3,1.1c0,0.7,0.5,1,1.5,1.4
					c1.4,0.5,2.1,1.2,2.1,2.4c0,1.4-1.1,2.4-3,2.4c-0.9,0-1.7-0.2-2.3-0.5L417.5,76z"/>
			</g>
		</g>
		<g>
			<g>
				<path d="M278.4,61c-0.5,0.3-1.6,0.5-2.9,0.5c-3.1,0-5.5-2-5.5-5.6c0-3.5,2.4-5.9,5.8-5.9c1.4,0,2.3,0.3,2.6,0.5l-0.3,1.2
					c-0.5-0.3-1.3-0.5-2.3-0.5c-2.6,0-4.4,1.7-4.4,4.6c0,2.7,1.6,4.5,4.3,4.5c0.9,0,1.8-0.2,2.4-0.5L278.4,61z"/>
				<path d="M287.2,57.3c0,3-2.1,4.3-4,4.3c-2.2,0-3.8-1.6-3.8-4.1c0-2.7,1.8-4.3,4-4.3C285.6,53.2,287.2,54.9,287.2,57.3z
					 M280.8,57.4c0,1.8,1,3.1,2.4,3.1c1.4,0,2.4-1.3,2.4-3.1c0-1.4-0.7-3.1-2.4-3.1S280.8,55.9,280.8,57.4z"/>
				<path d="M289,55.5c0-0.8,0-1.5-0.1-2.2h1.3l0.1,1.3h0c0.4-0.8,1.2-1.5,2.5-1.5c1.1,0,1.9,0.7,2.3,1.6h0c0.2-0.4,0.6-0.8,0.9-1
					c0.5-0.4,1-0.6,1.8-0.6c1.1,0,2.6,0.7,2.6,3.5v4.7H299v-4.5c0-1.5-0.6-2.5-1.7-2.5c-0.8,0-1.5,0.6-1.7,1.3
					c-0.1,0.2-0.1,0.5-0.1,0.7v5H294v-4.8c0-1.3-0.6-2.2-1.7-2.2c-0.9,0-1.6,0.7-1.8,1.5c-0.1,0.2-0.1,0.5-0.1,0.7v4.8H289V55.5z"/>
				<path d="M302.8,55.5c0-0.8,0-1.5-0.1-2.2h1.3l0.1,1.3h0c0.4-0.8,1.2-1.5,2.5-1.5c1.1,0,1.9,0.7,2.3,1.6h0c0.2-0.4,0.6-0.8,0.9-1
					c0.5-0.4,1-0.6,1.8-0.6c1.1,0,2.6,0.7,2.6,3.5v4.7h-1.4v-4.5c0-1.5-0.6-2.5-1.7-2.5c-0.8,0-1.5,0.6-1.7,1.3
					c-0.1,0.2-0.1,0.5-0.1,0.7v5h-1.4v-4.8c0-1.3-0.6-2.2-1.7-2.2c-0.9,0-1.6,0.7-1.8,1.5c-0.1,0.2-0.1,0.5-0.1,0.7v4.8h-1.4V55.5z"
					/>
				<path d="M323.3,59.2c0,0.8,0,1.6,0.1,2.2h-1.3l-0.1-1.3h0c-0.4,0.6-1.2,1.5-2.6,1.5c-1.3,0-2.8-0.7-2.8-3.5v-4.7h1.5v4.4
					c0,1.5,0.5,2.5,1.8,2.5c1,0,1.7-0.7,1.9-1.3c0.1-0.2,0.1-0.5,0.1-0.7v-4.9h1.5V59.2z"/>
				<path d="M325.7,55.5c0-0.8,0-1.5-0.1-2.2h1.3l0.1,1.3h0c0.4-0.8,1.3-1.5,2.6-1.5c1.1,0,2.8,0.7,2.8,3.4v4.8h-1.5v-4.6
					c0-1.3-0.5-2.4-1.9-2.4c-1,0-1.7,0.7-2,1.5c-0.1,0.2-0.1,0.4-0.1,0.7v4.8h-1.5V55.5z"/>
				<path d="M336.5,51.1c0,0.5-0.3,0.9-0.9,0.9c-0.5,0-0.9-0.4-0.9-0.9c0-0.5,0.4-0.9,0.9-0.9C336.2,50.2,336.5,50.6,336.5,51.1z
					 M334.9,61.4v-8h1.5v8H334.9z"/>
				<path d="M340.6,51.1v2.3h2.1v1.1h-2.1v4.3c0,1,0.3,1.6,1.1,1.6c0.4,0,0.7,0,0.8-0.1l0.1,1.1c-0.3,0.1-0.7,0.2-1.3,0.2
					c-0.7,0-1.2-0.2-1.6-0.6c-0.4-0.4-0.6-1.1-0.6-2.1v-4.4h-1.2v-1.1h1.2v-1.9L340.6,51.1z"/>
				<path d="M345,53.4l1.8,4.7c0.2,0.5,0.4,1.2,0.5,1.6h0c0.1-0.5,0.3-1.1,0.5-1.7l1.6-4.7h1.5l-2.2,5.7c-1,2.7-1.8,4.2-2.7,5
					c-0.7,0.6-1.4,0.9-1.8,0.9l-0.4-1.2c0.4-0.1,0.8-0.3,1.3-0.7c0.4-0.3,0.9-0.9,1.2-1.6c0.1-0.1,0.1-0.3,0.1-0.3
					c0-0.1,0-0.2-0.1-0.4l-3-7.4H345z"/>
				<path d="M288.2,73c-0.1-1.6-0.2-3.4-0.2-4.8h0c-0.4,1.3-0.8,2.7-1.4,4.2l-2,5.4h-1.1l-1.8-5.3c-0.5-1.6-1-3-1.3-4.3h0
					c0,1.4-0.1,3.3-0.2,4.9l-0.3,4.8h-1.4l0.8-11.2h1.8l1.9,5.4c0.5,1.4,0.8,2.6,1.1,3.8h0c0.3-1.1,0.7-2.4,1.2-3.8l2-5.4h1.8
					l0.7,11.2h-1.4L288.2,73z"/>
				<path d="M293,74.2c0,2,1.3,2.8,2.7,2.8c1,0,1.7-0.2,2.2-0.4l0.2,1c-0.5,0.2-1.4,0.5-2.7,0.5c-2.5,0-3.9-1.6-3.9-4
					s1.4-4.3,3.8-4.3c2.6,0,3.3,2.3,3.3,3.8c0,0.3,0,0.5,0,0.7H293z M297.3,73.2c0-0.9-0.4-2.4-2-2.4c-1.5,0-2.1,1.4-2.2,2.4H297.3z
					"/>
				<path d="M300.5,72.1c0-0.8,0-1.5-0.1-2.2h1.3l0.1,1.3h0c0.4-0.8,1.2-1.5,2.5-1.5c1.1,0,1.9,0.7,2.3,1.6h0c0.2-0.4,0.6-0.8,0.9-1
					c0.5-0.4,1-0.6,1.8-0.6c1.1,0,2.6,0.7,2.6,3.5v4.7h-1.4v-4.5c0-1.5-0.6-2.5-1.7-2.5c-0.8,0-1.5,0.6-1.7,1.3
					c-0.1,0.2-0.1,0.5-0.1,0.7v5h-1.4v-4.8c0-1.3-0.6-2.2-1.7-2.2c-0.9,0-1.6,0.7-1.8,1.5c-0.1,0.2-0.1,0.5-0.1,0.7v4.8h-1.4V72.1z"
					/>
				<path d="M314.2,77.9c0-0.5,0.1-1.4,0.1-2.1v-9.7h1.4v5h0c0.5-0.9,1.4-1.5,2.7-1.5c2,0,3.4,1.7,3.4,4.1c0,2.9-1.8,4.3-3.6,4.3
					c-1.2,0-2.1-0.4-2.7-1.5h0l-0.1,1.3H314.2z M315.7,74.7c0,0.2,0,0.4,0.1,0.5c0.3,1,1.1,1.7,2.2,1.7c1.5,0,2.4-1.2,2.4-3.1
					c0-1.6-0.8-3-2.4-3c-1,0-1.9,0.7-2.2,1.8c0,0.2-0.1,0.4-0.1,0.6V74.7z"/>
				<path d="M324.5,74.2c0,2,1.3,2.8,2.7,2.8c1,0,1.7-0.2,2.2-0.4l0.2,1c-0.5,0.2-1.4,0.5-2.7,0.5c-2.5,0-3.9-1.6-3.9-4
					s1.4-4.3,3.8-4.3c2.6,0,3.3,2.3,3.3,3.8c0,0.3,0,0.5,0,0.7H324.5z M328.8,73.2c0-0.9-0.4-2.4-2-2.4c-1.5,0-2.1,1.4-2.2,2.4
					H328.8z"/>
				<path d="M332,72.4c0-0.9,0-1.8-0.1-2.5h1.3l0,1.6h0.1c0.4-1.1,1.2-1.8,2.2-1.8c0.2,0,0.3,0,0.4,0v1.4c-0.1,0-0.3,0-0.5,0
					c-1,0-1.8,0.8-2,1.9c0,0.2-0.1,0.4-0.1,0.7v4.3H332V72.4z"/>
				<path d="M337.2,76.4c0.4,0.3,1.2,0.6,1.9,0.6c1.1,0,1.6-0.5,1.6-1.2c0-0.7-0.4-1.1-1.5-1.5c-1.4-0.5-2.1-1.3-2.1-2.3
					c0-1.3,1-2.4,2.8-2.4c0.8,0,1.5,0.2,2,0.5l-0.4,1.1c-0.3-0.2-0.9-0.5-1.6-0.5c-0.9,0-1.3,0.5-1.3,1.1c0,0.7,0.5,1,1.5,1.4
					c1.4,0.5,2.1,1.2,2.1,2.4c0,1.4-1.1,2.4-3,2.4c-0.9,0-1.7-0.2-2.3-0.5L337.2,76.4z"/>
			</g>
		</g>
	</g>
</g>
</svg>
