<?xml version="1.0" encoding="utf-8"?>
<!-- Generator: Adobe Illustrator 20.0.0, SVG Export Plug-In . SVG Version: 6.00 Build 0)  -->
<svg version="1.1" id="Layer_1" xmlns="http://www.w3.org/2000/svg" xmlns:xlink="http://www.w3.org/1999/xlink" x="0px" y="0px"
	 viewBox="0 0 612 612" style="enable-background:new 0 0 612 612;" xml:space="preserve">
<style type="text/css">
	.st0{clip-path:url(#SVGID_2_);fill:#2CA1C6;}
	.st1{clip-path:url(#SVGID_4_);}
	.st2{fill:#5894CB;}
	.st3{fill:#73A8DA;stroke:#73A8DA;stroke-width:0.216;stroke-miterlimit:22.9256;}
	.st4{fill:#73A8DA;}
	.st5{fill:none;stroke:#73A8DA;stroke-width:0.216;stroke-miterlimit:22.9256;}
	.st6{fill:#FCD4B5;}
	.st7{fill:#E8B58A;}
	.st8{fill:#FFFFFF;}
	.st9{fill:#3B6286;}
	.st10{fill:#DA7C64;}
	.st11{fill:#83B7E2;}
	.st12{fill:#FAAC18;}
	.st13{fill:#CBCBCA;}
	.st14{fill:#FDE6D5;}
	.st15{fill:#F9CC7E;}
	.st16{fill:#AAD15E;}
	.st17{fill:#94C240;}
</style>
<g>
	<g>
		<defs>
			<circle id="SVGID_1_" cx="306" cy="306" r="306"/>
		</defs>
		<clipPath id="SVGID_2_">
			<use xlink:href="#SVGID_1_"  style="overflow:visible;"/>
		</clipPath>
		<rect x="-16" y="-16" class="st0" width="644" height="644"/>
	</g>
	<g>
		<defs>
			<circle id="SVGID_3_" cx="306" cy="306" r="306"/>
		</defs>
		<clipPath id="SVGID_4_">
			<use xlink:href="#SVGID_3_"  style="overflow:visible;"/>
		</clipPath>
		<g class="st1">
			<g>
				<rect x="-3.9" y="-3.9" class="st2" width="619.8" height="619.8"/>
				<path class="st3" d="M336.2,213.9c0.5,0,1.1,0,1.6,0.1c0-0.4-0.1-0.8-0.1-1.2c0-6,5.8-10.9,13-10.9s13,4.9,13,10.9
					c0,0.4,0,0.8-0.1,1.2c0.5-0.1,1.1-0.1,1.6-0.1c7.2,0,13,4.9,13,10.9s-5.8,10.9-13,10.9h-29c-7.2,0-13-4.9-13-10.9
					C323.2,218.8,329,213.9,336.2,213.9z"/>
				<path class="st3" d="M274.5,66.2c0.5,0,1.1,0,1.6,0.1c0-0.4-0.1-0.8-0.1-1.2c0-6,5.8-10.9,13-10.9s13,4.9,13,10.9
					c0,0.4,0,0.8-0.1,1.2c0.5-0.1,1.1-0.1,1.6-0.1c7.2,0,13,4.9,13,10.9s-5.8,10.9-13,10.9h-29c-7.2,0-13-4.9-13-10.9
					C261.6,71,267.4,66.2,274.5,66.2z"/>
				<path class="st3" d="M47.2,173c0.5,0,1.1,0,1.6,0.1c0-0.4-0.1-0.8-0.1-1.2c0-6,5.8-10.9,13-10.9s13,4.9,13,10.9
					c0,0.4,0,0.8-0.1,1.2c0.5-0.1,1.1-0.1,1.6-0.1c7.2,0,13,4.9,13,10.9s-5.8,10.9-13,10.9h-29c-7.2,0-13-4.9-13-10.9
					S40,173,47.2,173z"/>
				<path class="st3" d="M540.6,114.5c0.5,0,1.1,0,1.6,0.1c0-0.4-0.1-0.8-0.1-1.2c0-6,5.8-10.9,13-10.9s13,4.9,13,10.9
					c0,0.4,0,0.8-0.1,1.2c0.5-0.1,1.1-0.1,1.6-0.1c7.2,0,13,4.9,13,10.9c0,6-5.8,10.9-13,10.9h-29c-7.2,0-13-4.9-13-10.9
					C527.6,119.4,533.4,114.5,540.6,114.5z"/>
				<g>
					<g>
						<path class="st4" d="M83.4,148.4c-2.2,0-3.3,2.7-1.7,4.2c0.5,0.4,1.1,0.7,1.7,0.7h4.9c2.2,0,3.3-2.7,1.7-4.2
							c-0.5-0.4-1.1-0.7-1.7-0.7H83.4L83.4,148.4z M98,148.4L98,148.4c-2.2,0-3.3,2.7-1.7,4.2c0.5,0.4,1.1,0.7,1.7,0.7h4.9
							c2.2,0,3.3-2.7,1.7-4.2c-0.5-0.4-1.1-0.7-1.7-0.7H98L98,148.4z M112.7,148.4L112.7,148.4c-2.2,0-3.3,2.7-1.7,4.2
							c0.5,0.4,1.1,0.7,1.7,0.7h4.9c2.2,0,3.3-2.7,1.7-4.2c-0.5-0.4-1.1-0.7-1.7-0.7H112.7L112.7,148.4z M127.4,148.4L127.4,148.4
							c-2.2,0-3.3,2.7-1.7,4.2c0.5,0.4,1.1,0.7,1.7,0.7h4.9c2.2,0,3.3-2.7,1.7-4.2c-0.5-0.4-1.1-0.7-1.7-0.7H127.4L127.4,148.4z
							 M142.1,148.4L142.1,148.4c-2.2,0-3.3,2.7-1.7,4.2c0.5,0.4,1.1,0.7,1.7,0.7h4.9c2.2,0,3.3-2.7,1.7-4.2
							c-0.5-0.4-1.1-0.7-1.7-0.7H142.1L142.1,148.4z M156.7,148.4L156.7,148.4c-2.2,0-3.3,2.7-1.7,4.2c0.5,0.4,1.1,0.7,1.7,0.7h4.9
							c2.2,0,3.3-2.7,1.7-4.2c-0.5-0.4-1.1-0.7-1.7-0.7H156.7L156.7,148.4z M171.4,148.4L171.4,148.4c-2.2,0-3.3,2.7-1.7,4.2
							c0.5,0.4,1.1,0.7,1.7,0.7h4.9c2.2,0,3.3-2.7,1.7-4.2c-0.5-0.4-1.1-0.7-1.7-0.7H171.4L171.4,148.4z M186.1,148.4L186.1,148.4
							c-2.2,0-3.3,2.7-1.7,4.2c0.5,0.4,1.1,0.7,1.7,0.7h4.9c2.2,0,3.3-2.7,1.7-4.2c-0.5-0.4-1.1-0.7-1.7-0.7H186.1L186.1,148.4z
							 M200.8,148.4L200.8,148.4c-2.2,0-3.3,2.7-1.7,4.2c0.5,0.4,1.1,0.7,1.7,0.7h4.9c2.2,0,3.3-2.7,1.7-4.2
							c-0.5-0.4-1.1-0.7-1.7-0.7H200.8L200.8,148.4z M215.4,148.4L215.4,148.4c-2.2,0-3.3,2.7-1.7,4.2c0.5,0.4,1.1,0.7,1.7,0.7h4.9
							c2.2,0,3.3-2.7,1.7-4.2c-0.5-0.4-1.1-0.7-1.7-0.7H215.4L215.4,148.4z M230.1,148.4L230.1,148.4c-2.2,0-3.3,2.7-1.7,4.2
							c0.5,0.4,1.1,0.7,1.7,0.7h4.9c2.2,0,3.3-2.7,1.7-4.2c-0.5-0.4-1.1-0.7-1.7-0.7H230.1L230.1,148.4z M244.8,148.4L244.8,148.4
							c-2.2,0-3.3,2.7-1.7,4.2c0.5,0.4,1.1,0.7,1.7,0.7h4.9c2.2,0,3.3-2.7,1.7-4.2c-0.5-0.4-1.1-0.7-1.7-0.7H244.8L244.8,148.4z
							 M259.5,148.4L259.5,148.4c-2.2,0-3.3,2.7-1.7,4.2c0.5,0.4,1.1,0.7,1.7,0.7h4.9c2.2,0,3.3-2.7,1.7-4.2
							c-0.5-0.4-1.1-0.7-1.7-0.7H259.5L259.5,148.4z M274.1,148.4L274.1,148.4c-2.2,0-3.3,2.7-1.7,4.2c0.5,0.4,1.1,0.7,1.7,0.7h4.9
							c2.2,0,3.3-2.7,1.7-4.2c-0.5-0.4-1.1-0.7-1.7-0.7H274.1L274.1,148.4z M288.8,148.4L288.8,148.4c-2.2,0-3.3,2.7-1.7,4.2
							c0.5,0.4,1.1,0.7,1.7,0.7h4.9c2.2,0,3.3-2.7,1.7-4.2c-0.5-0.4-1.1-0.7-1.7-0.7H288.8L288.8,148.4z M303.5,148.4L303.5,148.4
							c-2.2,0-3.3,2.7-1.7,4.2c0.5,0.4,1.1,0.7,1.7,0.7h4.9c2.2,0,3.3-2.7,1.7-4.2c-0.5-0.4-1.1-0.7-1.7-0.7H303.5L303.5,148.4z
							 M318.2,148.4L318.2,148.4c-2.2,0-3.3,2.7-1.7,4.2c0.5,0.4,1.1,0.7,1.7,0.7h4.9c2.2,0,3.3-2.7,1.7-4.2
							c-0.5-0.4-1.1-0.7-1.7-0.7H318.2L318.2,148.4z M332.8,148.4L332.8,148.4c-2.2,0-3.3,2.7-1.7,4.2c0.5,0.4,1.1,0.7,1.7,0.7h4.9
							c2.2,0,3.3-2.7,1.7-4.2c-0.5-0.4-1.1-0.7-1.7-0.7H332.8L332.8,148.4z M347.5,148.4L347.5,148.4c-2.2,0-3.3,2.7-1.7,4.2
							c0.5,0.4,1.1,0.7,1.7,0.7h4.9c2.2,0,3.3-2.7,1.7-4.2c-0.5-0.4-1.1-0.7-1.7-0.7H347.5L347.5,148.4z M362.2,148.4L362.2,148.4
							c-2.2,0-3.3,2.7-1.7,4.2c0.5,0.4,1.1,0.7,1.7,0.7h4.9c2.2,0,3.3-2.7,1.7-4.2c-0.5-0.4-1.1-0.7-1.7-0.7H362.2L362.2,148.4z
							 M376.9,148.4L376.9,148.4c-2.2,0-3.3,2.7-1.7,4.2c0.5,0.4,1.1,0.7,1.7,0.7h4.9c2.2,0,3.3-2.7,1.7-4.2
							c-0.5-0.4-1.1-0.7-1.7-0.7H376.9L376.9,148.4z M391.5,148.4L391.5,148.4c-2.2,0-3.3,2.7-1.7,4.2c0.5,0.4,1.1,0.7,1.7,0.7h4.9
							c2.2,0,3.3-2.7,1.7-4.2c-0.5-0.4-1.1-0.7-1.7-0.7H391.5L391.5,148.4z M406.2,148.4L406.2,148.4c-2.2,0-3.3,2.7-1.7,4.2
							c0.5,0.4,1.1,0.7,1.7,0.7h4.9c2.2,0,3.3-2.7,1.7-4.2c-0.5-0.4-1.1-0.7-1.7-0.7H406.2L406.2,148.4z M420.9,148.4L420.9,148.4
							c-2.2,0-3.3,2.7-1.7,4.2c0.5,0.4,1.1,0.7,1.7,0.7h4.9c2.2,0,3.3-2.7,1.7-4.2c-0.5-0.4-1.1-0.7-1.7-0.7H420.9L420.9,148.4z
							 M435.6,148.4L435.6,148.4c-2.2,0-3.3,2.7-1.7,4.2c0.5,0.4,1.1,0.7,1.7,0.7h4.9c2.2,0,3.3-2.7,1.7-4.2
							c-0.5-0.4-1.1-0.7-1.7-0.7H435.6L435.6,148.4z M450.3,148.4L450.3,148.4c-2.2,0-3.3,2.7-1.7,4.2c0.5,0.4,1.1,0.7,1.7,0.7h4.9
							c2.2,0,3.3-2.7,1.7-4.2c-0.5-0.4-1.1-0.7-1.7-0.7H450.3L450.3,148.4z M464.9,148.4L464.9,148.4c-2.2,0-3.3,2.7-1.7,4.2
							c0.5,0.4,1.1,0.7,1.7,0.7h4.9c2.2,0,3.3-2.7,1.7-4.2c-0.5-0.4-1.1-0.7-1.7-0.7H464.9L464.9,148.4z M479.6,148.4L479.6,148.4
							c-2.2,0-3.3,2.7-1.7,4.2c0.5,0.4,1.1,0.7,1.7,0.7h4.9c2.2,0,3.3-2.7,1.7-4.2c-0.5-0.4-1.1-0.7-1.7-0.7H479.6L479.6,148.4z
							 M494.3,148.4L494.3,148.4c-2.2,0-3.3,2.7-1.7,4.2c0.5,0.4,1.1,0.7,1.7,0.7h4.9c2.2,0,3.3-2.7,1.7-4.2
							c-0.5-0.4-1.1-0.7-1.7-0.7H494.3L494.3,148.4z M509,148.4L509,148.4c-2.2,0-3.3,2.7-1.7,4.2c0.5,0.4,1.1,0.7,1.7,0.7h4.9
							c2.2,0,3.3-2.7,1.7-4.2c-0.5-0.4-1.1-0.7-1.7-0.7H509L509,148.4z M523.6,148.4L523.6,148.4c-2.2,0-3.3,2.7-1.7,4.2
							c0.5,0.4,1.1,0.7,1.7,0.7h4.9c2.2,0,3.3-2.7,1.7-4.2c-0.5-0.4-1.1-0.7-1.7-0.7H523.6z"/>
						<path class="st5" d="M83.4,148.4c-2.2,0-3.3,2.7-1.7,4.2c0.5,0.4,1.1,0.7,1.7,0.7"/>
						<line class="st5" x1="83.4" y1="153.3" x2="88.2" y2="153.3"/>
						<path class="st5" d="M88.2,153.3c2.2,0,3.3-2.7,1.7-4.2c-0.5-0.4-1.1-0.7-1.7-0.7"/>
						<line class="st5" x1="88.2" y1="148.4" x2="83.4" y2="148.4"/>
						<path class="st5" d="M98,148.4c-2.2,0-3.3,2.7-1.7,4.2c0.5,0.4,1.1,0.7,1.7,0.7"/>
						<line class="st5" x1="98" y1="153.3" x2="102.9" y2="153.3"/>
						<path class="st5" d="M102.9,153.3c2.2,0,3.3-2.7,1.7-4.2c-0.5-0.4-1.1-0.7-1.7-0.7"/>
						<line class="st5" x1="102.9" y1="148.4" x2="98" y2="148.4"/>
						<path class="st5" d="M112.7,148.4c-2.2,0-3.3,2.7-1.7,4.2c0.5,0.4,1.1,0.7,1.7,0.7"/>
						<line class="st5" x1="112.7" y1="153.3" x2="117.6" y2="153.3"/>
						<path class="st5" d="M117.6,153.3c2.2,0,3.3-2.7,1.7-4.2c-0.5-0.4-1.1-0.7-1.7-0.7"/>
						<line class="st5" x1="117.6" y1="148.4" x2="112.7" y2="148.4"/>
						<path class="st5" d="M127.4,148.4c-2.2,0-3.3,2.7-1.7,4.2c0.5,0.4,1.1,0.7,1.7,0.7"/>
						<line class="st5" x1="127.4" y1="153.3" x2="132.3" y2="153.3"/>
						<path class="st5" d="M132.3,153.3c2.2,0,3.3-2.7,1.7-4.2c-0.5-0.4-1.1-0.7-1.7-0.7"/>
						<line class="st5" x1="132.3" y1="148.4" x2="127.4" y2="148.4"/>
						<path class="st5" d="M142.1,148.4c-2.2,0-3.3,2.7-1.7,4.2c0.5,0.4,1.1,0.7,1.7,0.7"/>
						<line class="st5" x1="142.1" y1="153.3" x2="146.9" y2="153.3"/>
						<path class="st5" d="M146.9,153.3c2.2,0,3.3-2.7,1.7-4.2c-0.5-0.4-1.1-0.7-1.7-0.7"/>
						<line class="st5" x1="146.9" y1="148.4" x2="142.1" y2="148.4"/>
						<path class="st5" d="M156.7,148.4c-2.2,0-3.3,2.7-1.7,4.2c0.5,0.4,1.1,0.7,1.7,0.7"/>
						<line class="st5" x1="156.7" y1="153.3" x2="161.6" y2="153.3"/>
						<path class="st5" d="M161.6,153.3c2.2,0,3.3-2.7,1.7-4.2c-0.5-0.4-1.1-0.7-1.7-0.7"/>
						<line class="st5" x1="161.6" y1="148.4" x2="156.7" y2="148.4"/>
						<path class="st5" d="M171.4,148.4c-2.2,0-3.3,2.7-1.7,4.2c0.5,0.4,1.1,0.7,1.7,0.7"/>
						<line class="st5" x1="171.4" y1="153.3" x2="176.3" y2="153.3"/>
						<path class="st5" d="M176.3,153.3c2.2,0,3.3-2.7,1.7-4.2c-0.5-0.4-1.1-0.7-1.7-0.7"/>
						<line class="st5" x1="176.3" y1="148.4" x2="171.4" y2="148.4"/>
						<path class="st5" d="M186.1,148.4c-2.2,0-3.3,2.7-1.7,4.2c0.5,0.4,1.1,0.7,1.7,0.7"/>
						<line class="st5" x1="186.1" y1="153.3" x2="191" y2="153.3"/>
						<path class="st5" d="M191,153.3c2.2,0,3.3-2.7,1.7-4.2c-0.5-0.4-1.1-0.7-1.7-0.7"/>
						<line class="st5" x1="191" y1="148.4" x2="186.1" y2="148.4"/>
						<path class="st5" d="M200.8,148.4c-2.2,0-3.3,2.7-1.7,4.2c0.5,0.4,1.1,0.7,1.7,0.7"/>
						<line class="st5" x1="200.8" y1="153.3" x2="205.7" y2="153.3"/>
						<path class="st5" d="M205.7,153.3c2.2,0,3.3-2.7,1.7-4.2c-0.5-0.4-1.1-0.7-1.7-0.7"/>
						<line class="st5" x1="205.7" y1="148.4" x2="200.8" y2="148.4"/>
						<path class="st5" d="M215.4,148.4c-2.2,0-3.3,2.7-1.7,4.2c0.5,0.4,1.1,0.7,1.7,0.7"/>
						<line class="st5" x1="215.4" y1="153.3" x2="220.3" y2="153.3"/>
						<path class="st5" d="M220.3,153.3c2.2,0,3.3-2.7,1.7-4.2c-0.5-0.4-1.1-0.7-1.7-0.7"/>
						<line class="st5" x1="220.3" y1="148.4" x2="215.4" y2="148.4"/>
						<path class="st5" d="M230.1,148.4c-2.2,0-3.3,2.7-1.7,4.2c0.5,0.4,1.1,0.7,1.7,0.7"/>
						<line class="st5" x1="230.1" y1="153.3" x2="235" y2="153.3"/>
						<path class="st5" d="M235,153.3c2.2,0,3.3-2.7,1.7-4.2c-0.5-0.4-1.1-0.7-1.7-0.7"/>
						<line class="st5" x1="235" y1="148.4" x2="230.1" y2="148.4"/>
						<path class="st5" d="M244.8,148.4c-2.2,0-3.3,2.7-1.7,4.2c0.5,0.4,1.1,0.7,1.7,0.7"/>
						<line class="st5" x1="244.8" y1="153.3" x2="249.7" y2="153.3"/>
						<path class="st5" d="M249.7,153.3c2.2,0,3.3-2.7,1.7-4.2c-0.5-0.4-1.1-0.7-1.7-0.7"/>
						<line class="st5" x1="249.7" y1="148.4" x2="244.8" y2="148.4"/>
						<path class="st5" d="M259.5,148.4c-2.2,0-3.3,2.7-1.7,4.2c0.5,0.4,1.1,0.7,1.7,0.7"/>
						<line class="st5" x1="259.5" y1="153.3" x2="264.4" y2="153.3"/>
						<path class="st5" d="M264.4,153.3c2.2,0,3.3-2.7,1.7-4.2c-0.5-0.4-1.1-0.7-1.7-0.7"/>
						<line class="st5" x1="264.4" y1="148.4" x2="259.5" y2="148.4"/>
						<path class="st5" d="M274.1,148.4c-2.2,0-3.3,2.7-1.7,4.2c0.5,0.4,1.1,0.7,1.7,0.7"/>
						<line class="st5" x1="274.1" y1="153.3" x2="279" y2="153.3"/>
						<path class="st5" d="M279,153.3c2.2,0,3.3-2.7,1.7-4.2c-0.5-0.4-1.1-0.7-1.7-0.7"/>
						<line class="st5" x1="279" y1="148.4" x2="274.1" y2="148.4"/>
						<path class="st5" d="M288.8,148.4c-2.2,0-3.3,2.7-1.7,4.2c0.5,0.4,1.1,0.7,1.7,0.7"/>
						<line class="st5" x1="288.8" y1="153.3" x2="293.7" y2="153.3"/>
						<path class="st5" d="M293.7,153.3c2.2,0,3.3-2.7,1.7-4.2c-0.5-0.4-1.1-0.7-1.7-0.7"/>
						<line class="st5" x1="293.7" y1="148.4" x2="288.8" y2="148.4"/>
						<path class="st5" d="M303.5,148.4c-2.2,0-3.3,2.7-1.7,4.2c0.5,0.4,1.1,0.7,1.7,0.7"/>
						<line class="st5" x1="303.5" y1="153.3" x2="308.4" y2="153.3"/>
						<path class="st5" d="M308.4,153.3c2.2,0,3.3-2.7,1.7-4.2c-0.5-0.4-1.1-0.7-1.7-0.7"/>
						<line class="st5" x1="308.4" y1="148.4" x2="303.5" y2="148.4"/>
						<path class="st5" d="M318.2,148.4c-2.2,0-3.3,2.7-1.7,4.2c0.5,0.4,1.1,0.7,1.7,0.7"/>
						<line class="st5" x1="318.2" y1="153.3" x2="323.1" y2="153.3"/>
						<path class="st5" d="M323.1,153.3c2.2,0,3.3-2.7,1.7-4.2c-0.5-0.4-1.1-0.7-1.7-0.7"/>
						<line class="st5" x1="323.1" y1="148.4" x2="318.2" y2="148.4"/>
						<path class="st5" d="M332.8,148.4c-2.2,0-3.3,2.7-1.7,4.2c0.5,0.4,1.1,0.7,1.7,0.7"/>
						<line class="st5" x1="332.8" y1="153.3" x2="337.7" y2="153.3"/>
						<path class="st5" d="M337.7,153.3c2.2,0,3.3-2.7,1.7-4.2c-0.5-0.4-1.1-0.7-1.7-0.7"/>
						<line class="st5" x1="337.7" y1="148.4" x2="332.8" y2="148.4"/>
						<path class="st5" d="M347.5,148.4c-2.2,0-3.3,2.7-1.7,4.2c0.5,0.4,1.1,0.7,1.7,0.7"/>
						<line class="st5" x1="347.5" y1="153.3" x2="352.4" y2="153.3"/>
						<path class="st5" d="M352.4,153.3c2.2,0,3.3-2.7,1.7-4.2c-0.5-0.4-1.1-0.7-1.7-0.7"/>
						<line class="st5" x1="352.4" y1="148.4" x2="347.5" y2="148.4"/>
						<path class="st5" d="M362.2,148.4c-2.2,0-3.3,2.7-1.7,4.2c0.5,0.4,1.1,0.7,1.7,0.7"/>
						<line class="st5" x1="362.2" y1="153.3" x2="367.1" y2="153.3"/>
						<path class="st5" d="M367.1,153.3c2.2,0,3.3-2.7,1.7-4.2c-0.5-0.4-1.1-0.7-1.7-0.7"/>
						<line class="st5" x1="367.1" y1="148.4" x2="362.2" y2="148.4"/>
						<path class="st5" d="M376.9,148.4c-2.2,0-3.3,2.7-1.7,4.2c0.5,0.4,1.1,0.7,1.7,0.7"/>
						<line class="st5" x1="376.9" y1="153.3" x2="381.8" y2="153.3"/>
						<path class="st5" d="M381.8,153.3c2.2,0,3.3-2.7,1.7-4.2c-0.5-0.4-1.1-0.7-1.7-0.7"/>
						<line class="st5" x1="381.8" y1="148.4" x2="376.9" y2="148.4"/>
						<path class="st5" d="M391.5,148.4c-2.2,0-3.3,2.7-1.7,4.2c0.5,0.4,1.1,0.7,1.7,0.7"/>
						<line class="st5" x1="391.5" y1="153.3" x2="396.4" y2="153.3"/>
						<path class="st5" d="M396.4,153.3c2.2,0,3.3-2.7,1.7-4.2c-0.5-0.4-1.1-0.7-1.7-0.7"/>
						<line class="st5" x1="396.4" y1="148.4" x2="391.5" y2="148.4"/>
						<path class="st5" d="M406.2,148.4c-2.2,0-3.3,2.7-1.7,4.2c0.5,0.4,1.1,0.7,1.7,0.7"/>
						<line class="st5" x1="406.2" y1="153.3" x2="411.1" y2="153.3"/>
						<path class="st5" d="M411.1,153.3c2.2,0,3.3-2.7,1.7-4.2c-0.5-0.4-1.1-0.7-1.7-0.7"/>
						<line class="st5" x1="411.1" y1="148.4" x2="406.2" y2="148.4"/>
						<path class="st5" d="M420.9,148.4c-2.2,0-3.3,2.7-1.7,4.2c0.5,0.4,1.1,0.7,1.7,0.7"/>
						<line class="st5" x1="420.9" y1="153.3" x2="425.8" y2="153.3"/>
						<path class="st5" d="M425.8,153.3c2.2,0,3.3-2.7,1.7-4.2c-0.5-0.4-1.1-0.7-1.7-0.7"/>
						<line class="st5" x1="425.8" y1="148.4" x2="420.9" y2="148.4"/>
						<path class="st5" d="M435.6,148.4c-2.2,0-3.3,2.7-1.7,4.2c0.5,0.4,1.1,0.7,1.7,0.7"/>
						<line class="st5" x1="435.6" y1="153.3" x2="440.5" y2="153.3"/>
						<path class="st5" d="M440.5,153.3c2.2,0,3.3-2.7,1.7-4.2c-0.5-0.4-1.1-0.7-1.7-0.7"/>
						<line class="st5" x1="440.5" y1="148.4" x2="435.6" y2="148.4"/>
						<path class="st5" d="M450.3,148.4c-2.2,0-3.3,2.7-1.7,4.2c0.5,0.4,1.1,0.7,1.7,0.7"/>
						<line class="st5" x1="450.3" y1="153.3" x2="455.1" y2="153.3"/>
						<path class="st5" d="M455.1,153.3c2.2,0,3.3-2.7,1.7-4.2c-0.5-0.4-1.1-0.7-1.7-0.7"/>
						<line class="st5" x1="455.1" y1="148.4" x2="450.3" y2="148.4"/>
						<path class="st5" d="M464.9,148.4c-2.2,0-3.3,2.7-1.7,4.2c0.5,0.4,1.1,0.7,1.7,0.7"/>
						<line class="st5" x1="464.9" y1="153.3" x2="469.8" y2="153.3"/>
						<path class="st5" d="M469.8,153.3c2.2,0,3.3-2.7,1.7-4.2c-0.5-0.4-1.1-0.7-1.7-0.7"/>
						<line class="st5" x1="469.8" y1="148.4" x2="464.9" y2="148.4"/>
						<path class="st5" d="M479.6,148.4c-2.2,0-3.3,2.7-1.7,4.2c0.5,0.4,1.1,0.7,1.7,0.7"/>
						<line class="st5" x1="479.6" y1="153.3" x2="484.5" y2="153.3"/>
						<path class="st5" d="M484.5,153.3c2.2,0,3.3-2.7,1.7-4.2c-0.5-0.4-1.1-0.7-1.7-0.7"/>
						<line class="st5" x1="484.5" y1="148.4" x2="479.6" y2="148.4"/>
						<path class="st5" d="M494.3,148.4c-2.2,0-3.3,2.7-1.7,4.2c0.5,0.4,1.1,0.7,1.7,0.7"/>
						<line class="st5" x1="494.3" y1="153.3" x2="499.2" y2="153.3"/>
						<path class="st5" d="M499.2,153.3c2.2,0,3.3-2.7,1.7-4.2c-0.5-0.4-1.1-0.7-1.7-0.7"/>
						<line class="st5" x1="499.2" y1="148.4" x2="494.3" y2="148.4"/>
						<path class="st5" d="M509,148.4c-2.2,0-3.3,2.7-1.7,4.2c0.5,0.4,1.1,0.7,1.7,0.7"/>
						<line class="st5" x1="509" y1="153.3" x2="513.9" y2="153.3"/>
						<path class="st5" d="M513.9,153.3c2.2,0,3.3-2.7,1.7-4.2c-0.5-0.4-1.1-0.7-1.7-0.7"/>
						<line class="st5" x1="513.9" y1="148.4" x2="509" y2="148.4"/>
						<path class="st5" d="M523.6,148.4c-2.2,0-3.3,2.7-1.7,4.2c0.5,0.4,1.1,0.7,1.7,0.7"/>
						<line class="st5" x1="523.6" y1="153.3" x2="528.5" y2="153.3"/>
						<path class="st5" d="M528.5,153.3c2.2,0,3.3-2.7,1.7-4.2c-0.5-0.4-1.1-0.7-1.7-0.7"/>
						<line class="st5" x1="528.5" y1="148.4" x2="523.6" y2="148.4"/>
					</g>
					<g>
						<path class="st4" d="M303.5,325.7c0,2.2,2.7,3.3,4.2,1.7c0.4-0.5,0.7-1.1,0.7-1.7v-4.9c0-2.2-2.7-3.3-4.2-1.7
							c-0.4,0.5-0.7,1.1-0.7,1.7V325.7L303.5,325.7z M308.4,264.1L308.4,264.1c0-2.2-2.7-3.3-4.2-1.7c-0.4,0.5-0.7,1.1-0.7,1.7v3
							c0,2.2,2.7,3.3,4.2,1.7c0.4-0.5,0.7-1.1,0.7-1.7V264.1L308.4,264.1z M308.4,276.8L308.4,276.8c0-2.2-2.7-3.3-4.2-1.7
							c-0.4,0.5-0.7,1.1-0.7,1.7v4.9c0,2.2,2.7,3.3,4.2,1.7c0.4-0.5,0.7-1.1,0.7-1.7V276.8L308.4,276.8z M308.4,291.5L308.4,291.5
							c0-2.2-2.7-3.3-4.2-1.7c-0.4,0.5-0.7,1.1-0.7,1.7v4.9c0,2.2,2.7,3.3,4.2,1.7c0.4-0.5,0.7-1.1,0.7-1.7V291.5L308.4,291.5z
							 M308.4,306.2L308.4,306.2c0-2.2-2.7-3.3-4.2-1.7c-0.4,0.5-0.7,1.1-0.7,1.7v4.9c0,2.2,2.7,3.3,4.2,1.7
							c0.4-0.5,0.7-1.1,0.7-1.7V306.2z"/>
						<path class="st5" d="M303.5,325.7c0,2.2,2.7,3.3,4.2,1.7c0.4-0.5,0.7-1.1,0.7-1.7"/>
						<line class="st5" x1="308.4" y1="325.7" x2="308.4" y2="320.8"/>
						<path class="st5" d="M308.4,320.8c0-2.2-2.7-3.3-4.2-1.7c-0.4,0.5-0.7,1.1-0.7,1.7"/>
						<line class="st5" x1="303.5" y1="320.8" x2="303.5" y2="325.7"/>
						<path class="st5" d="M308.4,264.1c0-2.2-2.7-3.3-4.2-1.7c-0.4,0.5-0.7,1.1-0.7,1.7"/>
						<line class="st5" x1="303.5" y1="264.1" x2="303.5" y2="267"/>
						<path class="st5" d="M303.5,267c0,2.2,2.7,3.3,4.2,1.7c0.4-0.5,0.7-1.1,0.7-1.7"/>
						<line class="st5" x1="308.4" y1="267" x2="308.4" y2="264.1"/>
						<path class="st5" d="M308.4,276.8c0-2.2-2.7-3.3-4.2-1.7c-0.4,0.5-0.7,1.1-0.7,1.7"/>
						<line class="st5" x1="303.5" y1="276.8" x2="303.5" y2="281.7"/>
						<path class="st5" d="M303.5,281.7c0,2.2,2.7,3.3,4.2,1.7c0.4-0.5,0.7-1.1,0.7-1.7"/>
						<line class="st5" x1="308.4" y1="281.7" x2="308.4" y2="276.8"/>
						<path class="st5" d="M308.4,291.5c0-2.2-2.7-3.3-4.2-1.7c-0.4,0.5-0.7,1.1-0.7,1.7"/>
						<line class="st5" x1="303.5" y1="291.5" x2="303.5" y2="296.4"/>
						<path class="st5" d="M303.5,296.4c0,2.2,2.7,3.3,4.2,1.7c0.4-0.5,0.7-1.1,0.7-1.7"/>
						<line class="st5" x1="308.4" y1="296.4" x2="308.4" y2="291.5"/>
						<path class="st5" d="M308.4,306.2c0-2.2-2.7-3.3-4.2-1.7c-0.4,0.5-0.7,1.1-0.7,1.7"/>
						<line class="st5" x1="303.5" y1="306.2" x2="303.5" y2="311.1"/>
						<path class="st5" d="M303.5,311.1c0,2.2,2.7,3.3,4.2,1.7c0.4-0.5,0.7-1.1,0.7-1.7"/>
						<line class="st5" x1="308.4" y1="311.1" x2="308.4" y2="306.2"/>
					</g>
					<g>
						<path class="st4" d="M83.4,252.1c-2.2,0-3.3,2.7-1.7,4.2c0.5,0.4,1.1,0.7,1.7,0.7h4.9c2.2,0,3.3-2.7,1.7-4.2
							c-0.5-0.4-1.1-0.7-1.7-0.7L83.4,252.1L83.4,252.1z M98,252.1L98,252.1c-2.2,0-3.3,2.7-1.7,4.2c0.5,0.4,1.1,0.7,1.7,0.7h4.9
							c2.2,0,3.3-2.7,1.7-4.2c-0.5-0.4-1.1-0.7-1.7-0.7L98,252.1L98,252.1z M112.7,252.1L112.7,252.1c-2.2,0-3.3,2.7-1.7,4.2
							c0.5,0.4,1.1,0.7,1.7,0.7h4.9c2.2,0,3.3-2.7,1.7-4.2c-0.5-0.4-1.1-0.7-1.7-0.7L112.7,252.1L112.7,252.1z M127.4,252.1
							L127.4,252.1c-2.2,0-3.3,2.7-1.7,4.2c0.5,0.4,1.1,0.7,1.7,0.7h4.9c2.2,0,3.3-2.7,1.7-4.2c-0.5-0.4-1.1-0.7-1.7-0.7
							L127.4,252.1L127.4,252.1z M142.1,252.1L142.1,252.1c-2.2,0-3.3,2.7-1.7,4.2c0.5,0.4,1.1,0.7,1.7,0.7h4.9
							c2.2,0,3.3-2.7,1.7-4.2c-0.5-0.4-1.1-0.7-1.7-0.7L142.1,252.1L142.1,252.1z M156.7,252.1L156.7,252.1c-2.2,0-3.3,2.7-1.7,4.2
							c0.5,0.4,1.1,0.7,1.7,0.7h4.9c2.2,0,3.3-2.7,1.7-4.2c-0.5-0.4-1.1-0.7-1.7-0.7L156.7,252.1L156.7,252.1z M171.4,252.1
							L171.4,252.1c-2.2,0-3.3,2.7-1.7,4.2c0.5,0.4,1.1,0.7,1.7,0.7h4.9c2.2,0,3.3-2.7,1.7-4.2c-0.5-0.4-1.1-0.7-1.7-0.7
							L171.4,252.1L171.4,252.1z M186.1,252.1L186.1,252.1c-2.2,0-3.3,2.7-1.7,4.2c0.5,0.4,1.1,0.7,1.7,0.7h4.9
							c2.2,0,3.3-2.7,1.7-4.2c-0.5-0.4-1.1-0.7-1.7-0.7L186.1,252.1L186.1,252.1z M200.8,252.1L200.8,252.1c-2.2,0-3.3,2.7-1.7,4.2
							c0.5,0.4,1.1,0.7,1.7,0.7h4.9c2.2,0,3.3-2.7,1.7-4.2c-0.5-0.4-1.1-0.7-1.7-0.7L200.8,252.1L200.8,252.1z M215.4,252.1
							L215.4,252.1c-2.2,0-3.3,2.7-1.7,4.2c0.5,0.4,1.1,0.7,1.7,0.7h4.9c2.2,0,3.3-2.7,1.7-4.2c-0.5-0.4-1.1-0.7-1.7-0.7
							L215.4,252.1L215.4,252.1z M230.1,252.1L230.1,252.1c-2.2,0-3.3,2.7-1.7,4.2c0.5,0.4,1.1,0.7,1.7,0.7h4.9
							c2.2,0,3.3-2.7,1.7-4.2c-0.5-0.4-1.1-0.7-1.7-0.7L230.1,252.1L230.1,252.1z M244.8,252.1L244.8,252.1c-2.2,0-3.3,2.7-1.7,4.2
							c0.5,0.4,1.1,0.7,1.7,0.7h4.9c2.2,0,3.3-2.7,1.7-4.2c-0.5-0.4-1.1-0.7-1.7-0.7L244.8,252.1L244.8,252.1z M259.5,252.1
							L259.5,252.1c-2.2,0-3.3,2.7-1.7,4.2c0.5,0.4,1.1,0.7,1.7,0.7h4.9c2.2,0,3.3-2.7,1.7-4.2c-0.5-0.4-1.1-0.7-1.7-0.7
							L259.5,252.1L259.5,252.1z M274.1,252.1L274.1,252.1c-2.2,0-3.3,2.7-1.7,4.2c0.5,0.4,1.1,0.7,1.7,0.7h4.9
							c2.2,0,3.3-2.7,1.7-4.2c-0.5-0.4-1.1-0.7-1.7-0.7L274.1,252.1L274.1,252.1z M288.8,252.1L288.8,252.1c-2.2,0-3.3,2.7-1.7,4.2
							c0.5,0.4,1.1,0.7,1.7,0.7h4.9c2.2,0,3.3-2.7,1.7-4.2c-0.5-0.4-1.1-0.7-1.7-0.7L288.8,252.1L288.8,252.1z M303.5,252.1
							L303.5,252.1c-2.2,0-3.3,2.7-1.7,4.2c0.5,0.4,1.1,0.7,1.7,0.7h4.9c2.2,0,3.3-2.7,1.7-4.2c-0.5-0.4-1.1-0.7-1.7-0.7
							L303.5,252.1L303.5,252.1z M318.2,252.1L318.2,252.1c-2.2,0-3.3,2.7-1.7,4.2c0.5,0.4,1.1,0.7,1.7,0.7h4.9
							c2.2,0,3.3-2.7,1.7-4.2c-0.5-0.4-1.1-0.7-1.7-0.7L318.2,252.1L318.2,252.1z M332.8,252.1L332.8,252.1c-2.2,0-3.3,2.7-1.7,4.2
							c0.5,0.4,1.1,0.7,1.7,0.7h4.9c2.2,0,3.3-2.7,1.7-4.2c-0.5-0.4-1.1-0.7-1.7-0.7L332.8,252.1L332.8,252.1z M347.5,252.1
							L347.5,252.1c-2.2,0-3.3,2.7-1.7,4.2c0.5,0.4,1.1,0.7,1.7,0.7h4.9c2.2,0,3.3-2.7,1.7-4.2c-0.5-0.4-1.1-0.7-1.7-0.7
							L347.5,252.1L347.5,252.1z M362.2,252.1L362.2,252.1c-2.2,0-3.3,2.7-1.7,4.2c0.5,0.4,1.1,0.7,1.7,0.7h4.9
							c2.2,0,3.3-2.7,1.7-4.2c-0.5-0.4-1.1-0.7-1.7-0.7L362.2,252.1L362.2,252.1z M376.9,252.1L376.9,252.1c-2.2,0-3.3,2.7-1.7,4.2
							c0.5,0.4,1.1,0.7,1.7,0.7h4.9c2.2,0,3.3-2.7,1.7-4.2c-0.5-0.4-1.1-0.7-1.7-0.7L376.9,252.1L376.9,252.1z M391.5,252.1
							L391.5,252.1c-2.2,0-3.3,2.7-1.7,4.2c0.5,0.4,1.1,0.7,1.7,0.7h4.9c2.2,0,3.3-2.7,1.7-4.2c-0.5-0.4-1.1-0.7-1.7-0.7
							L391.5,252.1L391.5,252.1z M406.2,252.1L406.2,252.1c-2.2,0-3.3,2.7-1.7,4.2c0.5,0.4,1.1,0.7,1.7,0.7h4.9
							c2.2,0,3.3-2.7,1.7-4.2c-0.5-0.4-1.1-0.7-1.7-0.7L406.2,252.1L406.2,252.1z M420.9,252.1L420.9,252.1c-2.2,0-3.3,2.7-1.7,4.2
							c0.5,0.4,1.1,0.7,1.7,0.7h4.9c2.2,0,3.3-2.7,1.7-4.2c-0.5-0.4-1.1-0.7-1.7-0.7L420.9,252.1L420.9,252.1z M435.6,252.1
							L435.6,252.1c-2.2,0-3.3,2.7-1.7,4.2c0.5,0.4,1.1,0.7,1.7,0.7h4.9c2.2,0,3.3-2.7,1.7-4.2c-0.5-0.4-1.1-0.7-1.7-0.7
							L435.6,252.1L435.6,252.1z M450.3,252.1L450.3,252.1c-2.2,0-3.3,2.7-1.7,4.2c0.5,0.4,1.1,0.7,1.7,0.7h4.9
							c2.2,0,3.3-2.7,1.7-4.2c-0.5-0.4-1.1-0.7-1.7-0.7L450.3,252.1L450.3,252.1z M464.9,252.1L464.9,252.1c-2.2,0-3.3,2.7-1.7,4.2
							c0.5,0.4,1.1,0.7,1.7,0.7h4.9c2.2,0,3.3-2.7,1.7-4.2c-0.5-0.4-1.1-0.7-1.7-0.7L464.9,252.1L464.9,252.1z M479.6,252.1
							L479.6,252.1c-2.2,0-3.3,2.7-1.7,4.2c0.5,0.4,1.1,0.7,1.7,0.7h4.9c2.2,0,3.3-2.7,1.7-4.2c-0.5-0.4-1.1-0.7-1.7-0.7
							L479.6,252.1L479.6,252.1z M494.3,252.1L494.3,252.1c-2.2,0-3.3,2.7-1.7,4.2c0.5,0.4,1.1,0.7,1.7,0.7h4.9
							c2.2,0,3.3-2.7,1.7-4.2c-0.5-0.4-1.1-0.7-1.7-0.7L494.3,252.1L494.3,252.1z M509,252.1L509,252.1c-2.2,0-3.3,2.7-1.7,4.2
							c0.5,0.4,1.1,0.7,1.7,0.7h4.9c2.2,0,3.3-2.7,1.7-4.2c-0.5-0.4-1.1-0.7-1.7-0.7L509,252.1L509,252.1z M523.6,252.1L523.6,252.1
							c-2.2,0-3.3,2.7-1.7,4.2c0.5,0.4,1.1,0.7,1.7,0.7h4.9c2.2,0,3.3-2.7,1.7-4.2c-0.5-0.4-1.1-0.7-1.7-0.7L523.6,252.1
							L523.6,252.1z"/>
						<path class="st5" d="M83.4,252.1c-2.2,0-3.3,2.7-1.7,4.2c0.5,0.4,1.1,0.7,1.7,0.7"/>
						<line class="st5" x1="83.4" y1="257" x2="88.2" y2="257"/>
						<path class="st5" d="M88.2,257c2.2,0,3.3-2.7,1.7-4.2c-0.5-0.4-1.1-0.7-1.7-0.7"/>
						<line class="st5" x1="88.2" y1="252.1" x2="83.4" y2="252.1"/>
						<path class="st5" d="M98,252.1c-2.2,0-3.3,2.7-1.7,4.2c0.5,0.4,1.1,0.7,1.7,0.7"/>
						<line class="st5" x1="98" y1="257" x2="102.9" y2="257"/>
						<path class="st5" d="M102.9,257c2.2,0,3.3-2.7,1.7-4.2c-0.5-0.4-1.1-0.7-1.7-0.7"/>
						<line class="st5" x1="102.9" y1="252.1" x2="98" y2="252.1"/>
						<path class="st5" d="M112.7,252.1c-2.2,0-3.3,2.7-1.7,4.2c0.5,0.4,1.1,0.7,1.7,0.7"/>
						<line class="st5" x1="112.7" y1="257" x2="117.6" y2="257"/>
						<path class="st5" d="M117.6,257c2.2,0,3.3-2.7,1.7-4.2c-0.5-0.4-1.1-0.7-1.7-0.7"/>
						<line class="st5" x1="117.6" y1="252.1" x2="112.7" y2="252.1"/>
						<path class="st5" d="M127.4,252.1c-2.2,0-3.3,2.7-1.7,4.2c0.5,0.4,1.1,0.7,1.7,0.7"/>
						<line class="st5" x1="127.4" y1="257" x2="132.3" y2="257"/>
						<path class="st5" d="M132.3,257c2.2,0,3.3-2.7,1.7-4.2c-0.5-0.4-1.1-0.7-1.7-0.7"/>
						<line class="st5" x1="132.3" y1="252.1" x2="127.4" y2="252.1"/>
						<path class="st5" d="M142.1,252.1c-2.2,0-3.3,2.7-1.7,4.2c0.5,0.4,1.1,0.7,1.7,0.7"/>
						<line class="st5" x1="142.1" y1="257" x2="146.9" y2="257"/>
						<path class="st5" d="M146.9,257c2.2,0,3.3-2.7,1.7-4.2c-0.5-0.4-1.1-0.7-1.7-0.7"/>
						<line class="st5" x1="146.9" y1="252.1" x2="142.1" y2="252.1"/>
						<path class="st5" d="M156.7,252.1c-2.2,0-3.3,2.7-1.7,4.2c0.5,0.4,1.1,0.7,1.7,0.7"/>
						<line class="st5" x1="156.7" y1="257" x2="161.6" y2="257"/>
						<path class="st5" d="M161.6,257c2.2,0,3.3-2.7,1.7-4.2c-0.5-0.4-1.1-0.7-1.7-0.7"/>
						<line class="st5" x1="161.6" y1="252.1" x2="156.7" y2="252.1"/>
						<path class="st5" d="M171.4,252.1c-2.2,0-3.3,2.7-1.7,4.2c0.5,0.4,1.1,0.7,1.7,0.7"/>
						<line class="st5" x1="171.4" y1="257" x2="176.3" y2="257"/>
						<path class="st5" d="M176.3,257c2.2,0,3.3-2.7,1.7-4.2c-0.5-0.4-1.1-0.7-1.7-0.7"/>
						<line class="st5" x1="176.3" y1="252.1" x2="171.4" y2="252.1"/>
						<path class="st5" d="M186.1,252.1c-2.2,0-3.3,2.7-1.7,4.2c0.5,0.4,1.1,0.7,1.7,0.7"/>
						<line class="st5" x1="186.1" y1="257" x2="191" y2="257"/>
						<path class="st5" d="M191,257c2.2,0,3.3-2.7,1.7-4.2c-0.5-0.4-1.1-0.7-1.7-0.7"/>
						<line class="st5" x1="191" y1="252.1" x2="186.1" y2="252.1"/>
						<path class="st5" d="M200.8,252.1c-2.2,0-3.3,2.7-1.7,4.2c0.5,0.4,1.1,0.7,1.7,0.7"/>
						<line class="st5" x1="200.8" y1="257" x2="205.7" y2="257"/>
						<path class="st5" d="M205.7,257c2.2,0,3.3-2.7,1.7-4.2c-0.5-0.4-1.1-0.7-1.7-0.7"/>
						<line class="st5" x1="205.7" y1="252.1" x2="200.8" y2="252.1"/>
						<path class="st5" d="M215.4,252.1c-2.2,0-3.3,2.7-1.7,4.2c0.5,0.4,1.1,0.7,1.7,0.7"/>
						<line class="st5" x1="215.4" y1="257" x2="220.3" y2="257"/>
						<path class="st5" d="M220.3,257c2.2,0,3.3-2.7,1.7-4.2c-0.5-0.4-1.1-0.7-1.7-0.7"/>
						<line class="st5" x1="220.3" y1="252.1" x2="215.4" y2="252.1"/>
						<path class="st5" d="M230.1,252.1c-2.2,0-3.3,2.7-1.7,4.2c0.5,0.4,1.1,0.7,1.7,0.7"/>
						<line class="st5" x1="230.1" y1="257" x2="235" y2="257"/>
						<path class="st5" d="M235,257c2.2,0,3.3-2.7,1.7-4.2c-0.5-0.4-1.1-0.7-1.7-0.7"/>
						<line class="st5" x1="235" y1="252.1" x2="230.1" y2="252.1"/>
						<path class="st5" d="M244.8,252.1c-2.2,0-3.3,2.7-1.7,4.2c0.5,0.4,1.1,0.7,1.7,0.7"/>
						<line class="st5" x1="244.8" y1="257" x2="249.7" y2="257"/>
						<path class="st5" d="M249.7,257c2.2,0,3.3-2.7,1.7-4.2c-0.5-0.4-1.1-0.7-1.7-0.7"/>
						<line class="st5" x1="249.7" y1="252.1" x2="244.8" y2="252.1"/>
						<path class="st5" d="M259.5,252.1c-2.2,0-3.3,2.7-1.7,4.2c0.5,0.4,1.1,0.7,1.7,0.7"/>
						<line class="st5" x1="259.5" y1="257" x2="264.4" y2="257"/>
						<path class="st5" d="M264.4,257c2.2,0,3.3-2.7,1.7-4.2c-0.5-0.4-1.1-0.7-1.7-0.7"/>
						<line class="st5" x1="264.4" y1="252.1" x2="259.5" y2="252.1"/>
						<path class="st5" d="M274.1,252.1c-2.2,0-3.3,2.7-1.7,4.2c0.5,0.4,1.1,0.7,1.7,0.7"/>
						<line class="st5" x1="274.1" y1="257" x2="279" y2="257"/>
						<path class="st5" d="M279,257c2.2,0,3.3-2.7,1.7-4.2c-0.5-0.4-1.1-0.7-1.7-0.7"/>
						<line class="st5" x1="279" y1="252.1" x2="274.1" y2="252.1"/>
						<path class="st5" d="M288.8,252.1c-2.2,0-3.3,2.7-1.7,4.2c0.5,0.4,1.1,0.7,1.7,0.7"/>
						<line class="st5" x1="288.8" y1="257" x2="293.7" y2="257"/>
						<path class="st5" d="M293.7,257c2.2,0,3.3-2.7,1.7-4.2c-0.5-0.4-1.1-0.7-1.7-0.7"/>
						<line class="st5" x1="293.7" y1="252.1" x2="288.8" y2="252.1"/>
						<path class="st5" d="M303.5,252.1c-2.2,0-3.3,2.7-1.7,4.2c0.5,0.4,1.1,0.7,1.7,0.7"/>
						<line class="st5" x1="303.5" y1="257" x2="308.4" y2="257"/>
						<path class="st5" d="M308.4,257c2.2,0,3.3-2.7,1.7-4.2c-0.5-0.4-1.1-0.7-1.7-0.7"/>
						<line class="st5" x1="308.4" y1="252.1" x2="303.5" y2="252.1"/>
						<path class="st5" d="M318.2,252.1c-2.2,0-3.3,2.7-1.7,4.2c0.5,0.4,1.1,0.7,1.7,0.7"/>
						<line class="st5" x1="318.2" y1="257" x2="323.1" y2="257"/>
						<path class="st5" d="M323.1,257c2.2,0,3.3-2.7,1.7-4.2c-0.5-0.4-1.1-0.7-1.7-0.7"/>
						<line class="st5" x1="323.1" y1="252.1" x2="318.2" y2="252.1"/>
						<path class="st5" d="M332.8,252.1c-2.2,0-3.3,2.7-1.7,4.2c0.5,0.4,1.1,0.7,1.7,0.7"/>
						<line class="st5" x1="332.8" y1="257" x2="337.7" y2="257"/>
						<path class="st5" d="M337.7,257c2.2,0,3.3-2.7,1.7-4.2c-0.5-0.4-1.1-0.7-1.7-0.7"/>
						<line class="st5" x1="337.7" y1="252.1" x2="332.8" y2="252.1"/>
						<path class="st5" d="M347.5,252.1c-2.2,0-3.3,2.7-1.7,4.2c0.5,0.4,1.1,0.7,1.7,0.7"/>
						<line class="st5" x1="347.5" y1="257" x2="352.4" y2="257"/>
						<path class="st5" d="M352.4,257c2.2,0,3.3-2.7,1.7-4.2c-0.5-0.4-1.1-0.7-1.7-0.7"/>
						<line class="st5" x1="352.4" y1="252.1" x2="347.5" y2="252.1"/>
						<path class="st5" d="M362.2,252.1c-2.2,0-3.3,2.7-1.7,4.2c0.5,0.4,1.1,0.7,1.7,0.7"/>
						<line class="st5" x1="362.2" y1="257" x2="367.1" y2="257"/>
						<path class="st5" d="M367.1,257c2.2,0,3.3-2.7,1.7-4.2c-0.5-0.4-1.1-0.7-1.7-0.7"/>
						<line class="st5" x1="367.1" y1="252.1" x2="362.2" y2="252.1"/>
						<path class="st5" d="M376.9,252.1c-2.2,0-3.3,2.7-1.7,4.2c0.5,0.4,1.1,0.7,1.7,0.7"/>
						<line class="st5" x1="376.9" y1="257" x2="381.8" y2="257"/>
						<path class="st5" d="M381.8,257c2.2,0,3.3-2.7,1.7-4.2c-0.5-0.4-1.1-0.7-1.7-0.7"/>
						<line class="st5" x1="381.8" y1="252.1" x2="376.9" y2="252.1"/>
						<path class="st5" d="M391.5,252.1c-2.2,0-3.3,2.7-1.7,4.2c0.5,0.4,1.1,0.7,1.7,0.7"/>
						<line class="st5" x1="391.5" y1="257" x2="396.4" y2="257"/>
						<path class="st5" d="M396.4,257c2.2,0,3.3-2.7,1.7-4.2c-0.5-0.4-1.1-0.7-1.7-0.7"/>
						<line class="st5" x1="396.4" y1="252.1" x2="391.5" y2="252.1"/>
						<path class="st5" d="M406.2,252.1c-2.2,0-3.3,2.7-1.7,4.2c0.5,0.4,1.1,0.7,1.7,0.7"/>
						<line class="st5" x1="406.2" y1="257" x2="411.1" y2="257"/>
						<path class="st5" d="M411.1,257c2.2,0,3.3-2.7,1.7-4.2c-0.5-0.4-1.1-0.7-1.7-0.7"/>
						<line class="st5" x1="411.1" y1="252.1" x2="406.2" y2="252.1"/>
						<path class="st5" d="M420.9,252.1c-2.2,0-3.3,2.7-1.7,4.2c0.5,0.4,1.1,0.7,1.7,0.7"/>
						<line class="st5" x1="420.9" y1="257" x2="425.8" y2="257"/>
						<path class="st5" d="M425.8,257c2.2,0,3.3-2.7,1.7-4.2c-0.5-0.4-1.1-0.7-1.7-0.7"/>
						<line class="st5" x1="425.8" y1="252.1" x2="420.9" y2="252.1"/>
						<path class="st5" d="M435.6,252.1c-2.2,0-3.3,2.7-1.7,4.2c0.5,0.4,1.1,0.7,1.7,0.7"/>
						<line class="st5" x1="435.6" y1="257" x2="440.5" y2="257"/>
						<path class="st5" d="M440.5,257c2.2,0,3.3-2.7,1.7-4.2c-0.5-0.4-1.1-0.7-1.7-0.7"/>
						<line class="st5" x1="440.5" y1="252.1" x2="435.6" y2="252.1"/>
						<path class="st5" d="M450.3,252.1c-2.2,0-3.3,2.7-1.7,4.2c0.5,0.4,1.1,0.7,1.7,0.7"/>
						<line class="st5" x1="450.3" y1="257" x2="455.1" y2="257"/>
						<path class="st5" d="M455.1,257c2.2,0,3.3-2.7,1.7-4.2c-0.5-0.4-1.1-0.7-1.7-0.7"/>
						<line class="st5" x1="455.1" y1="252.1" x2="450.3" y2="252.1"/>
						<path class="st5" d="M464.9,252.1c-2.2,0-3.3,2.7-1.7,4.2c0.5,0.4,1.1,0.7,1.7,0.7"/>
						<line class="st5" x1="464.9" y1="257" x2="469.8" y2="257"/>
						<path class="st5" d="M469.8,257c2.2,0,3.3-2.7,1.7-4.2c-0.5-0.4-1.1-0.7-1.7-0.7"/>
						<line class="st5" x1="469.8" y1="252.1" x2="464.9" y2="252.1"/>
						<path class="st5" d="M479.6,252.1c-2.2,0-3.3,2.7-1.7,4.2c0.5,0.4,1.1,0.7,1.7,0.7"/>
						<line class="st5" x1="479.6" y1="257" x2="484.5" y2="257"/>
						<path class="st5" d="M484.5,257c2.2,0,3.3-2.7,1.7-4.2c-0.5-0.4-1.1-0.7-1.7-0.7"/>
						<line class="st5" x1="484.5" y1="252.1" x2="479.6" y2="252.1"/>
						<path class="st5" d="M494.3,252.1c-2.2,0-3.3,2.7-1.7,4.2c0.5,0.4,1.1,0.7,1.7,0.7"/>
						<line class="st5" x1="494.3" y1="257" x2="499.2" y2="257"/>
						<path class="st5" d="M499.2,257c2.2,0,3.3-2.7,1.7-4.2c-0.5-0.4-1.1-0.7-1.7-0.7"/>
						<line class="st5" x1="499.2" y1="252.1" x2="494.3" y2="252.1"/>
						<path class="st5" d="M509,252.1c-2.2,0-3.3,2.7-1.7,4.2c0.5,0.4,1.1,0.7,1.7,0.7"/>
						<line class="st5" x1="509" y1="257" x2="513.9" y2="257"/>
						<path class="st5" d="M513.9,257c2.2,0,3.3-2.7,1.7-4.2c-0.5-0.4-1.1-0.7-1.7-0.7"/>
						<line class="st5" x1="513.9" y1="252.1" x2="509" y2="252.1"/>
						<path class="st5" d="M523.6,252.1c-2.2,0-3.3,2.7-1.7,4.2c0.5,0.4,1.1,0.7,1.7,0.7"/>
						<line class="st5" x1="523.6" y1="257" x2="528.5" y2="257"/>
						<path class="st5" d="M528.5,257c2.2,0,3.3-2.7,1.7-4.2c-0.5-0.4-1.1-0.7-1.7-0.7"/>
						<line class="st5" x1="528.5" y1="252.1" x2="523.6" y2="252.1"/>
					</g>
					<g>
						<path class="st4" d="M407.2,166.2c0-2.2-2.7-3.3-4.2-1.7c-0.4,0.5-0.7,1.1-0.7,1.7v4.9c0,2.2,2.7,3.3,4.2,1.7
							c0.4-0.5,0.7-1.1,0.7-1.7V166.2L407.2,166.2z M402.3,244.4L402.3,244.4c0,2.2,2.7,3.3,4.2,1.7c0.4-0.5,0.7-1.1,0.7-1.7v-4.9
							c0-2.2-2.7-3.3-4.2-1.7c-0.4,0.5-0.7,1.1-0.7,1.7V244.4L402.3,244.4z M402.3,229.8L402.3,229.8c0,2.2,2.7,3.3,4.2,1.7
							c0.4-0.5,0.7-1.1,0.7-1.7v-4.9c0-2.2-2.7-3.3-4.2-1.7c-0.4,0.5-0.7,1.1-0.7,1.7V229.8L402.3,229.8z M402.3,215.1L402.3,215.1
							c0,2.2,2.7,3.3,4.2,1.7c0.4-0.5,0.7-1.1,0.7-1.7v-4.9c0-2.2-2.7-3.3-4.2-1.7c-0.4,0.5-0.7,1.1-0.7,1.7V215.1L402.3,215.1z
							 M402.3,200.4L402.3,200.4c0,2.2,2.7,3.3,4.2,1.7c0.4-0.5,0.7-1.1,0.7-1.7v-4.9c0-2.2-2.7-3.3-4.2-1.7
							c-0.4,0.5-0.7,1.1-0.7,1.7V200.4L402.3,200.4z M402.3,185.7L402.3,185.7c0,2.2,2.7,3.3,4.2,1.7c0.4-0.5,0.7-1.1,0.7-1.7v-4.9
							c0-2.2-2.7-3.3-4.2-1.7c-0.4,0.5-0.7,1.1-0.7,1.7V185.7z"/>
						<path class="st5" d="M407.2,166.2c0-2.2-2.7-3.3-4.2-1.7c-0.4,0.5-0.7,1.1-0.7,1.7"/>
						<line class="st5" x1="402.3" y1="166.2" x2="402.3" y2="171.1"/>
						<path class="st5" d="M402.3,171.1c0,2.2,2.7,3.3,4.2,1.7c0.4-0.5,0.7-1.1,0.7-1.7"/>
						<line class="st5" x1="407.2" y1="171.1" x2="407.2" y2="166.2"/>
						<path class="st5" d="M402.3,244.4c0,2.2,2.7,3.3,4.2,1.7c0.4-0.5,0.7-1.1,0.7-1.7"/>
						<line class="st5" x1="407.2" y1="244.4" x2="407.2" y2="239.6"/>
						<path class="st5" d="M407.2,239.6c0-2.2-2.7-3.3-4.2-1.7c-0.4,0.5-0.7,1.1-0.7,1.7"/>
						<line class="st5" x1="402.3" y1="239.6" x2="402.3" y2="244.4"/>
						<path class="st5" d="M402.3,229.8c0,2.2,2.7,3.3,4.2,1.7c0.4-0.5,0.7-1.1,0.7-1.7"/>
						<line class="st5" x1="407.2" y1="229.8" x2="407.2" y2="224.9"/>
						<path class="st5" d="M407.2,224.9c0-2.2-2.7-3.3-4.2-1.7c-0.4,0.5-0.7,1.1-0.7,1.7"/>
						<line class="st5" x1="402.3" y1="224.9" x2="402.3" y2="229.8"/>
						<path class="st5" d="M402.3,215.1c0,2.2,2.7,3.3,4.2,1.7c0.4-0.5,0.7-1.1,0.7-1.7"/>
						<line class="st5" x1="407.2" y1="215.1" x2="407.2" y2="210.2"/>
						<path class="st5" d="M407.2,210.2c0-2.2-2.7-3.3-4.2-1.7c-0.4,0.5-0.7,1.1-0.7,1.7"/>
						<line class="st5" x1="402.3" y1="210.2" x2="402.3" y2="215.1"/>
						<path class="st5" d="M402.3,200.4c0,2.2,2.7,3.3,4.2,1.7c0.4-0.5,0.7-1.1,0.7-1.7"/>
						<line class="st5" x1="407.2" y1="200.4" x2="407.2" y2="195.5"/>
						<path class="st5" d="M407.2,195.5c0-2.2-2.7-3.3-4.2-1.7c-0.4,0.5-0.7,1.1-0.7,1.7"/>
						<line class="st5" x1="402.3" y1="195.5" x2="402.3" y2="200.4"/>
						<path class="st5" d="M402.3,185.7c0,2.2,2.7,3.3,4.2,1.7c0.4-0.5,0.7-1.1,0.7-1.7"/>
						<line class="st5" x1="407.2" y1="185.7" x2="407.2" y2="180.9"/>
						<path class="st5" d="M407.2,180.9c0-2.2-2.7-3.3-4.2-1.7c-0.4,0.5-0.7,1.1-0.7,1.7"/>
						<line class="st5" x1="402.3" y1="180.9" x2="402.3" y2="185.7"/>
					</g>
					<g>
						<path class="st4" d="M216.2,166.2c0-2.2-2.7-3.3-4.2-1.7c-0.4,0.5-0.7,1.1-0.7,1.7v4.9c0,2.2,2.7,3.3,4.2,1.7
							c0.4-0.5,0.7-1.1,0.7-1.7V166.2L216.2,166.2z M211.3,244.4L211.3,244.4c0,2.2,2.7,3.3,4.2,1.7c0.4-0.5,0.7-1.1,0.7-1.7v-4.9
							c0-2.2-2.7-3.3-4.2-1.7c-0.4,0.5-0.7,1.1-0.7,1.7V244.4L211.3,244.4z M211.3,229.8L211.3,229.8c0,2.2,2.7,3.3,4.2,1.7
							c0.4-0.5,0.7-1.1,0.7-1.7v-4.9c0-2.2-2.7-3.3-4.2-1.7c-0.4,0.5-0.7,1.1-0.7,1.7V229.8L211.3,229.8z M211.3,215.1L211.3,215.1
							c0,2.2,2.7,3.3,4.2,1.7c0.4-0.5,0.7-1.1,0.7-1.7v-4.9c0-2.2-2.7-3.3-4.2-1.7c-0.4,0.5-0.7,1.1-0.7,1.7V215.1L211.3,215.1z
							 M211.3,200.4L211.3,200.4c0,2.2,2.7,3.3,4.2,1.7c0.4-0.5,0.7-1.1,0.7-1.7v-4.9c0-2.2-2.7-3.3-4.2-1.7
							c-0.4,0.5-0.7,1.1-0.7,1.7V200.4L211.3,200.4z M211.3,185.7L211.3,185.7c0,2.2,2.7,3.3,4.2,1.7c0.4-0.5,0.7-1.1,0.7-1.7v-4.9
							c0-2.2-2.7-3.3-4.2-1.7c-0.4,0.5-0.7,1.1-0.7,1.7V185.7z"/>
						<path class="st5" d="M216.2,166.2c0-2.2-2.7-3.3-4.2-1.7c-0.4,0.5-0.7,1.1-0.7,1.7"/>
						<line class="st5" x1="211.3" y1="166.2" x2="211.3" y2="171.1"/>
						<path class="st5" d="M211.3,171.1c0,2.2,2.7,3.3,4.2,1.7c0.4-0.5,0.7-1.1,0.7-1.7"/>
						<line class="st5" x1="216.2" y1="171.1" x2="216.2" y2="166.2"/>
						<path class="st5" d="M211.3,244.4c0,2.2,2.7,3.3,4.2,1.7c0.4-0.5,0.7-1.1,0.7-1.7"/>
						<line class="st5" x1="216.2" y1="244.4" x2="216.2" y2="239.6"/>
						<path class="st5" d="M216.2,239.6c0-2.2-2.7-3.3-4.2-1.7c-0.4,0.5-0.7,1.1-0.7,1.7"/>
						<line class="st5" x1="211.3" y1="239.6" x2="211.3" y2="244.4"/>
						<path class="st5" d="M211.3,229.8c0,2.2,2.7,3.3,4.2,1.7c0.4-0.5,0.7-1.1,0.7-1.7"/>
						<line class="st5" x1="216.2" y1="229.8" x2="216.2" y2="224.9"/>
						<path class="st5" d="M216.2,224.9c0-2.2-2.7-3.3-4.2-1.7c-0.4,0.5-0.7,1.1-0.7,1.7"/>
						<line class="st5" x1="211.3" y1="224.9" x2="211.3" y2="229.8"/>
						<path class="st5" d="M211.3,215.1c0,2.2,2.7,3.3,4.2,1.7c0.4-0.5,0.7-1.1,0.7-1.7"/>
						<line class="st5" x1="216.2" y1="215.1" x2="216.2" y2="210.2"/>
						<path class="st5" d="M216.2,210.2c0-2.2-2.7-3.3-4.2-1.7c-0.4,0.5-0.7,1.1-0.7,1.7"/>
						<line class="st5" x1="211.3" y1="210.2" x2="211.3" y2="215.1"/>
						<path class="st5" d="M211.3,200.4c0,2.2,2.7,3.3,4.2,1.7c0.4-0.5,0.7-1.1,0.7-1.7"/>
						<line class="st5" x1="216.2" y1="200.4" x2="216.2" y2="195.5"/>
						<path class="st5" d="M216.2,195.5c0-2.2-2.7-3.3-4.2-1.7c-0.4,0.5-0.7,1.1-0.7,1.7"/>
						<line class="st5" x1="211.3" y1="195.5" x2="211.3" y2="200.4"/>
						<path class="st5" d="M211.3,185.7c0,2.2,2.7,3.3,4.2,1.7c0.4-0.5,0.7-1.1,0.7-1.7"/>
						<line class="st5" x1="216.2" y1="185.7" x2="216.2" y2="180.9"/>
						<path class="st5" d="M216.2,180.9c0-2.2-2.7-3.3-4.2-1.7c-0.4,0.5-0.7,1.1-0.7,1.7"/>
						<line class="st5" x1="211.3" y1="180.9" x2="211.3" y2="185.7"/>
					</g>
					<g>
						<path class="st4" d="M531,166.2c0-2.2-2.7-3.3-4.2-1.7c-0.4,0.5-0.7,1.1-0.7,1.7v4.9c0,2.2,2.7,3.3,4.2,1.7
							c0.4-0.5,0.7-1.1,0.7-1.7V166.2L531,166.2z M526.1,244.4L526.1,244.4c0,2.2,2.7,3.3,4.2,1.7c0.4-0.5,0.7-1.1,0.7-1.7v-4.9
							c0-2.2-2.7-3.3-4.2-1.7c-0.4,0.5-0.7,1.1-0.7,1.7V244.4L526.1,244.4z M526.1,229.8L526.1,229.8c0,2.2,2.7,3.3,4.2,1.7
							c0.4-0.5,0.7-1.1,0.7-1.7v-4.9c0-2.2-2.7-3.3-4.2-1.7c-0.4,0.5-0.7,1.1-0.7,1.7V229.8L526.1,229.8z M526.1,215.1L526.1,215.1
							c0,2.2,2.7,3.3,4.2,1.7c0.4-0.5,0.7-1.1,0.7-1.7v-4.9c0-2.2-2.7-3.3-4.2-1.7c-0.4,0.5-0.7,1.1-0.7,1.7V215.1L526.1,215.1z
							 M526.1,200.4L526.1,200.4c0,2.2,2.7,3.3,4.2,1.7c0.4-0.5,0.7-1.1,0.7-1.7v-4.9c0-2.2-2.7-3.3-4.2-1.7
							c-0.4,0.5-0.7,1.1-0.7,1.7V200.4L526.1,200.4z M526.1,185.7L526.1,185.7c0,2.2,2.7,3.3,4.2,1.7c0.4-0.5,0.7-1.1,0.7-1.7v-4.9
							c0-2.2-2.7-3.3-4.2-1.7c-0.4,0.5-0.7,1.1-0.7,1.7V185.7z"/>
						<path class="st5" d="M531,166.2c0-2.2-2.7-3.3-4.2-1.7c-0.4,0.5-0.7,1.1-0.7,1.7"/>
						<line class="st5" x1="526.1" y1="166.2" x2="526.1" y2="171.1"/>
						<path class="st5" d="M526.1,171.1c0,2.2,2.7,3.3,4.2,1.7c0.4-0.5,0.7-1.1,0.7-1.7"/>
						<line class="st5" x1="531" y1="171.1" x2="531" y2="166.2"/>
						<path class="st5" d="M526.1,244.4c0,2.2,2.7,3.3,4.2,1.7c0.4-0.5,0.7-1.1,0.7-1.7"/>
						<line class="st5" x1="531" y1="244.4" x2="531" y2="239.6"/>
						<path class="st5" d="M531,239.6c0-2.2-2.7-3.3-4.2-1.7c-0.4,0.5-0.7,1.1-0.7,1.7"/>
						<line class="st5" x1="526.1" y1="239.6" x2="526.1" y2="244.4"/>
						<path class="st5" d="M526.1,229.8c0,2.2,2.7,3.3,4.2,1.7c0.4-0.5,0.7-1.1,0.7-1.7"/>
						<line class="st5" x1="531" y1="229.8" x2="531" y2="224.9"/>
						<path class="st5" d="M531,224.9c0-2.2-2.7-3.3-4.2-1.7c-0.4,0.5-0.7,1.1-0.7,1.7"/>
						<line class="st5" x1="526.1" y1="224.9" x2="526.1" y2="229.8"/>
						<path class="st5" d="M526.1,215.1c0,2.2,2.7,3.3,4.2,1.7c0.4-0.5,0.7-1.1,0.7-1.7"/>
						<line class="st5" x1="531" y1="215.1" x2="531" y2="210.2"/>
						<path class="st5" d="M531,210.2c0-2.2-2.7-3.3-4.2-1.7c-0.4,0.5-0.7,1.1-0.7,1.7"/>
						<line class="st5" x1="526.1" y1="210.2" x2="526.1" y2="215.1"/>
						<path class="st5" d="M526.1,200.4c0,2.2,2.7,3.3,4.2,1.7c0.4-0.5,0.7-1.1,0.7-1.7"/>
						<line class="st5" x1="531" y1="200.4" x2="531" y2="195.5"/>
						<path class="st5" d="M531,195.5c0-2.2-2.7-3.3-4.2-1.7c-0.4,0.5-0.7,1.1-0.7,1.7"/>
						<line class="st5" x1="526.1" y1="195.5" x2="526.1" y2="200.4"/>
						<path class="st5" d="M526.1,185.7c0,2.2,2.7,3.3,4.2,1.7c0.4-0.5,0.7-1.1,0.7-1.7"/>
						<line class="st5" x1="531" y1="185.7" x2="531" y2="180.9"/>
						<path class="st5" d="M531,180.9c0-2.2-2.7-3.3-4.2-1.7c-0.4,0.5-0.7,1.1-0.7,1.7"/>
						<line class="st5" x1="526.1" y1="180.9" x2="526.1" y2="185.7"/>
					</g>
					<g>
						<path class="st4" d="M85.8,166.2c0-2.2-2.7-3.3-4.2-1.7c-0.4,0.5-0.7,1.1-0.7,1.7v4.9c0,2.2,2.7,3.3,4.2,1.7
							c0.4-0.5,0.7-1.1,0.7-1.7V166.2L85.8,166.2z M80.9,244.4L80.9,244.4c0,2.2,2.7,3.3,4.2,1.7c0.4-0.5,0.7-1.1,0.7-1.7v-4.9
							c0-2.2-2.7-3.3-4.2-1.7c-0.4,0.5-0.7,1.1-0.7,1.7V244.4L80.9,244.4z M80.9,229.8L80.9,229.8c0,2.2,2.7,3.3,4.2,1.7
							c0.4-0.5,0.7-1.1,0.7-1.7v-4.9c0-2.2-2.7-3.3-4.2-1.7c-0.4,0.5-0.7,1.1-0.7,1.7V229.8L80.9,229.8z M80.9,215.1L80.9,215.1
							c0,2.2,2.7,3.3,4.2,1.7c0.4-0.5,0.7-1.1,0.7-1.7v-4.9c0-2.2-2.7-3.3-4.2-1.7c-0.4,0.5-0.7,1.1-0.7,1.7V215.1L80.9,215.1z
							 M80.9,200.4L80.9,200.4c0,2.2,2.7,3.3,4.2,1.7c0.4-0.5,0.7-1.1,0.7-1.7v-4.9c0-2.2-2.7-3.3-4.2-1.7c-0.4,0.5-0.7,1.1-0.7,1.7
							V200.4L80.9,200.4z M80.9,185.7L80.9,185.7c0,2.2,2.7,3.3,4.2,1.7c0.4-0.5,0.7-1.1,0.7-1.7v-4.9c0-2.2-2.7-3.3-4.2-1.7
							c-0.4,0.5-0.7,1.1-0.7,1.7V185.7z"/>
						<path class="st5" d="M85.8,166.2c0-2.2-2.7-3.3-4.2-1.7c-0.4,0.5-0.7,1.1-0.7,1.7"/>
						<line class="st5" x1="80.9" y1="166.2" x2="80.9" y2="171.1"/>
						<path class="st5" d="M80.9,171.1c0,2.2,2.7,3.3,4.2,1.7c0.4-0.5,0.7-1.1,0.7-1.7"/>
						<line class="st5" x1="85.8" y1="171.1" x2="85.8" y2="166.2"/>
						<path class="st5" d="M80.9,244.4c0,2.2,2.7,3.3,4.2,1.7c0.4-0.5,0.7-1.1,0.7-1.7"/>
						<line class="st5" x1="85.8" y1="244.4" x2="85.8" y2="239.6"/>
						<path class="st5" d="M85.8,239.6c0-2.2-2.7-3.3-4.2-1.7c-0.4,0.5-0.7,1.1-0.7,1.7"/>
						<line class="st5" x1="80.9" y1="239.6" x2="80.9" y2="244.4"/>
						<path class="st5" d="M80.9,229.8c0,2.2,2.7,3.3,4.2,1.7c0.4-0.5,0.7-1.1,0.7-1.7"/>
						<line class="st5" x1="85.8" y1="229.8" x2="85.8" y2="224.9"/>
						<path class="st5" d="M85.8,224.9c0-2.2-2.7-3.3-4.2-1.7c-0.4,0.5-0.7,1.1-0.7,1.7"/>
						<line class="st5" x1="80.9" y1="224.9" x2="80.9" y2="229.8"/>
						<path class="st5" d="M80.9,215.1c0,2.2,2.7,3.3,4.2,1.7c0.4-0.5,0.7-1.1,0.7-1.7"/>
						<line class="st5" x1="85.8" y1="215.1" x2="85.8" y2="210.2"/>
						<path class="st5" d="M85.8,210.2c0-2.2-2.7-3.3-4.2-1.7c-0.4,0.5-0.7,1.1-0.7,1.7"/>
						<line class="st5" x1="80.9" y1="210.2" x2="80.9" y2="215.1"/>
						<path class="st5" d="M80.9,200.4c0,2.2,2.7,3.3,4.2,1.7c0.4-0.5,0.7-1.1,0.7-1.7"/>
						<line class="st5" x1="85.8" y1="200.4" x2="85.8" y2="195.5"/>
						<path class="st5" d="M85.8,195.5c0-2.2-2.7-3.3-4.2-1.7c-0.4,0.5-0.7,1.1-0.7,1.7"/>
						<line class="st5" x1="80.9" y1="195.5" x2="80.9" y2="200.4"/>
						<path class="st5" d="M80.9,185.7c0,2.2,2.7,3.3,4.2,1.7c0.4-0.5,0.7-1.1,0.7-1.7"/>
						<line class="st5" x1="85.8" y1="185.7" x2="85.8" y2="180.9"/>
						<path class="st5" d="M85.8,180.9c0-2.2-2.7-3.3-4.2-1.7c-0.4,0.5-0.7,1.1-0.7,1.7"/>
						<line class="st5" x1="80.9" y1="180.9" x2="80.9" y2="185.7"/>
					</g>
				</g>
				<g>
					<polygon class="st6" points="159.9,499.6 218.6,524.2 180.3,615.9 111.3,615.9 					"/>
					<path class="st6" d="M173.2,438.6l87.4,36.5l-14.9,35.8c-11.5,27.6-34.6,42.8-51.9,35.6l-24.3-10.2
						c-17.3-7.2-25.6-27.4-18.4-44.7L173.2,438.6z"/>
					<path class="st6" d="M162.4,531.2c-15.1-3.7-30.9-22.7-26.3-40.9c5.9-3.3,35.9-7,72.7,12.6
						C203.8,523.6,182.9,536.3,162.4,531.2z"/>
					<path class="st7" d="M152.5,526.7c3.1,9.8,14.1,11.6,24,15.7c10.8,4.5,18.4,11,28.7,6.6c-9.1,2-16.3-5.2-27.2-9.7
						C168.2,535.2,158.5,535,152.5,526.7z"/>
					<g>
						<path class="st8" d="M449.9,301.8v169.5c0,6.9-5.6,12.5-12.5,12.5H175.5c-6.9,0-12.5-5.6-12.5-12.5V301.8
							c0-6.9,5.6-12.5,12.5-12.5h261.8C444.2,289.2,449.9,294.9,449.9,301.8z"/>
						<rect x="188.9" y="298.8" class="st8" width="231.9" height="175.5"/>
						<rect x="188.9" y="298.8" class="st9" width="231.9" height="175.5"/>
					</g>
					<g>
						<g>
							<rect x="200.6" y="308.2" class="st10" width="66" height="10.9"/>
							<rect x="200.6" y="328" class="st11" width="207.8" height="37.6"/>
							<path class="st8" d="M208.1,343c0.2-0.2,0.6-0.2,0.8,0s0.2,0.6,0,0.8l-3,3l3,3c0.2,0.2,0.2,0.6,0,0.8c-0.2,0.2-0.6,0.2-0.8,0
								l-3.4-3.4l0,0l0,0l0,0l0,0l0,0l0,0l0,0l0,0l0,0l0,0l0,0l0,0l0,0l0,0l0,0l0,0l0,0l0,0l0,0l0,0l0,0l0,0l0,0l0,0l0,0l0,0l0,0
								l0,0l0,0l0,0l0,0l0,0l0,0l0,0l0,0l0,0l0,0l0,0l0,0l0,0l0,0l0,0l0,0l0,0l0,0l0,0l0,0l0,0l0,0l0,0l0,0l0,0l0,0l0,0l0,0l0,0l0,0
								l0,0l0,0l0,0l0,0l0,0l0,0l0,0l0,0l0,0l0,0l0,0l0,0l0,0l0,0l0,0l0,0l0,0l0,0l0,0l0,0l0,0l0,0l0,0l0,0l0,0l0,0l0,0l0,0l0,0l0,0
								l0,0l0,0l0,0l0,0l0,0l0,0l0,0l0,0l0,0l0,0l0,0l0,0l0,0l0,0l0,0l0,0l0,0l0,0l0,0l0,0l0,0l0,0l0,0l0,0l0,0l0,0l0,0l0,0l0,0l0,0
								l0,0l0,0l0,0l0,0l0,0l0,0l0,0l0,0l0,0l0,0L208.1,343L208.1,343z M400.8,343L400.8,343c-0.2-0.2-0.6-0.2-0.8,0
								c-0.2,0.2-0.2,0.6,0,0.8l3,3l-3,3c-0.2,0.2-0.2,0.6,0,0.8c0.2,0.2,0.6,0.2,0.8,0l3.4-3.4l0,0l0,0l0,0l0,0l0,0l0,0l0,0l0,0
								l0,0l0,0l0,0l0,0l0,0l0,0l0,0l0,0l0,0l0,0l0,0l0,0l0,0l0,0l0,0l0,0l0,0l0,0l0,0l0,0l0,0l0,0l0,0l0,0l0,0l0,0l0,0l0,0l0,0l0,0
								l0,0l0,0l0,0l0,0l0,0l0,0l0,0l0,0l0,0l0,0l0,0l0,0l0,0l0,0l0,0l0,0l0,0l0,0l0,0l0,0l0,0l0,0l0,0l0,0l0,0l0,0l0,0l0,0l0,0l0,0
								l0,0l0,0l0,0l0,0l0,0l0,0l0,0l0,0l0,0l0,0l0,0l0,0l0,0l0,0l0,0l0,0l0,0l0,0l0,0l0,0l0,0l0,0l0,0l0,0l0,0l0,0l0,0l0,0l0,0l0,0
								l0,0l0,0l0,0l0,0l0,0l0,0l0,0l0,0l0,0l0,0l0,0l0,0l0,0l0,0l0,0l0,0l0,0l0,0l0,0l0,0l0,0l0,0l0,0l0,0l0,0l0,0l0,0l0,0l0,0
								L400.8,343z"/>
							<rect x="200.6" y="372.9" class="st12" width="60.7" height="10.6"/>
							<rect x="274.1" y="372.9" class="st11" width="60.7" height="10.6"/>
							<rect x="347.7" y="372.9" class="st10" width="60.7" height="10.6"/>
							<rect x="200.6" y="388" class="st10" width="60.7" height="76.9"/>
							<rect x="274.1" y="388" class="st12" width="60.7" height="36.1"/>
							<rect x="347.7" y="388" class="st11" width="60.7" height="76.9"/>
							<rect x="401.8" y="308.2" class="st12" width="6.5" height="4.3"/>
							<rect x="391.8" y="308.2" class="st11" width="6.5" height="4.3"/>
							<rect x="381.8" y="308.2" class="st8" width="6.5" height="4.3"/>
							<rect x="371.9" y="308.2" class="st10" width="6.5" height="4.3"/>
						</g>
						<g>
							<rect x="274.1" y="432.4" class="st13" width="20.9" height="5.3"/>
							<rect x="274.1" y="441.4" class="st13" width="60.7" height="5.3"/>
							<rect x="274.1" y="450.5" class="st13" width="60.7" height="5.3"/>
							<rect x="274.1" y="459.5" class="st13" width="60.7" height="5.3"/>
						</g>
					</g>
					<path class="st6" d="M157.4,495.4l13.1-55.5c3.9-16.3-14.5-33.7-17.9-19.5l-16.6,70L157.4,495.4z"/>
					<path class="st14" d="M158.2,433.4c3.4-10.8-1.3-16.1-4.4-16c-0.5,0.8-0.9,1.8-1.2,3l-3.4,14.4
						C153.3,436,157.3,436.1,158.2,433.4z"/>
					<path class="st6" d="M192.9,514.4c-31.5,15.3-45.7-3.7-30.1-40.4C188.6,471.5,200.7,499.2,192.9,514.4z"/>
					<path class="st7" d="M192.9,514.4c1.2-15.2-9.3-37.8-30.1-40.4C188.6,471.5,200.7,499.2,192.9,514.4z"/>
					<polygon class="st15" points="114.1,586.9 183.6,615.9 189.6,615.9 209.8,567.5 135.2,536.4 					"/>
					<polygon class="st12" points="151.4,602.4 183.6,615.9 189.6,615.9 209.8,567.5 172.5,551.9 					"/>
					<polygon class="st16" points="120.9,558.2 204.3,593 194.8,615.9 96.8,615.9 					"/>
					
						<ellipse transform="matrix(0.3855 -0.9227 0.9227 0.3855 -425.1695 465.3268)" class="st8" cx="136.8" cy="551.9" rx="3.6" ry="3.6"/>
					<polygon class="st17" points="162,577.2 204.3,593 194.8,615.9 145.8,615.9 					"/>
					<g>
						<g>
							<polygon class="st6" points="379.3,527.1 435.4,497 499.2,615.9 427,615.9 							"/>
							<path class="st6" d="M340.4,478.3l83.5-44.8l18.3,34.2c14.1,26.3,11.4,53.8-5.1,62.7l-23.3,12.5c-16.6,8.9-37.4,2.6-46.3-14
								L340.4,478.3z"/>
							<path class="st6" d="M308.9,396L308.9,396c5.4-2.9,12.2-0.9,15.1,4.6l49.7,92.7c2.9,5.4,0.9,12.2-4.6,15.1l0,0
								c-5.4,2.9-12.2,0.8-15.1-4.6l-49.7-92.7C301.5,405.7,303.5,398.9,308.9,396z"/>
							<path class="st6" d="M372.9,520.8l-43.4-37.1c-12.8-10.9-36.6-2.5-25.5,7l54.7,46.7L372.9,520.8z"/>
							<path class="st6" d="M406.7,546.7c-13.7,7.3-35.3,0.5-48-9.2c2.1-6.4,23.2-32.9,63.7-42.8
								C432.4,513.4,425.3,536.8,406.7,546.7z"/>
							<path class="st14" d="M317.5,489.2c-8.6-8.4-15.7-6-16.4-2.9c0.1,1.4,1,3,2.9,4.6l9.5,8.1C317,495.7,319.7,491.4,317.5,489.2
								z"/>
							<path class="st14" d="M305.4,404.5c3.6,7,7.1,8.2,11.4,6.1c4-2.4,5.1-6,1.2-12.9C315.3,393.1,302.9,399.7,305.4,404.5z"/>
							<path class="st6" d="M404.4,420.8L404.4,420.8c5.4-2.9,12.2-0.9,15.1,4.6l16.1,30.1c2.9,5.4,0.9,12.2-4.6,15.1l0,0
								c-5.4,2.9-12.2,0.9-15.1-4.6l-16.1-30.1C396.9,430.5,399,423.7,404.4,420.8z"/>
							<path class="st6" d="M379.6,425.7L379.6,425.7c5.4-2.9,12.2-0.9,15.1,4.6l16.1,30.1c2.9,5.4,0.8,12.2-4.6,15.1
								s-12.2,0.8-15.1-4.6L375,440.8C372.2,435.4,374.2,428.6,379.6,425.7z"/>
							<path class="st6" d="M356.2,433.1L356.2,433.1c5.4-2.9,12.2-0.9,15.1,4.6l16.1,30.1c2.9,5.4,0.9,12.2-4.6,15.1l0,0
								c-5.4,2.9-12.2,0.9-15.1-4.6l-16.1-30.1C348.8,442.8,350.8,436,356.2,433.1z"/>
						</g>
						
							<rect x="398.2" y="542.9" transform="matrix(0.8812 -0.4727 0.4727 0.8812 -217.443 275.083)" class="st15" width="80.9" height="54.7"/>
						
							<rect x="400.6" y="552.4" transform="matrix(0.8812 -0.4727 0.4727 0.8812 -224.0669 267.765)" class="st12" width="40.4" height="54.7"/>
						<polygon class="st16" points="477.6,547.4 398,590.1 411.8,615.9 514.4,615.9 						"/>
						
							<ellipse transform="matrix(0.8813 -0.4726 0.4726 0.8813 -223.2072 259.2937)" class="st8" cx="404.5" cy="573.9" rx="3.6" ry="3.6"/>
						<polygon class="st17" points="438.6,570.2 398,590.1 411.8,615.9 463.1,615.9 						"/>
					</g>
				</g>
				<g>
					<g>
						<path class="st8" d="M469.2,95.7H340.3c-2.1,0-3.9,1.7-3.9,3.9v87c0,2.1,1.7,3.9,3.9,3.9h128.9c2.1,0,3.9-1.7,3.9-3.9v-87
							C473.1,97.5,471.3,95.7,469.2,95.7z"/>
						<path class="st8" d="M327.3,190.5h154.8h3.1c9.2,0-20.3,3-21.7,3H460H349.3h-3.5c-1.4,0-30.8-3-21.7-3H327.3z"/>
						<path class="st13" d="M472.3,186.6L472.3,186.6c0,1.8-1.4,3.2-3.1,3.2H340.3c-1.7,0-3.1-1.4-3.1-3.1v-0.1L472.3,186.6
							L472.3,186.6z"/>
						<rect x="342" y="101.8" class="st9" width="125.6" height="79.3"/>
					</g>
					<g>
						<rect x="352" y="113.1" class="st10" width="33.5" height="5.6"/>
						<rect x="352" y="123.3" class="st11" width="105.6" height="19.4"/>
						<path class="st8" d="M355.8,131.1c0.1-0.1,0.3-0.1,0.4,0s0.1,0.3,0,0.4l-1.5,1.5l1.5,1.5c0.1,0.1,0.1,0.3,0,0.4
							c-0.1,0.1-0.3,0.1-0.4,0l-1.7-1.7l0,0l0,0l0,0l0,0l0,0l0,0l0,0l0,0l0,0l0,0l0,0l0,0l0,0l0,0l0,0l0,0l0,0l0,0l0,0l0,0l0,0l0,0
							l0,0l0,0l0,0l0,0l0,0l0,0l0,0l0,0l0,0l0,0l0,0l0,0l0,0l0,0l0,0l0,0l0,0l0,0l0,0l0,0l0,0l0,0l0,0l0,0l0,0l0,0l0,0l0,0l0,0l0,0
							l0,0l0,0l0,0l0,0l0,0l0,0l0,0l0,0l0,0l0,0l0,0l0,0l0,0l0,0l0,0l0,0l0,0l0,0l0,0l0,0l0,0l0,0l0,0l0,0l0,0l0,0l0,0l0,0l0,0l0,0
							l0,0l0,0l0,0l0,0l0,0l0,0l0,0l0,0l0,0l0,0l0,0l0,0l0,0l0,0l0,0l0,0l0,0l0,0l0,0l0,0l0,0l0,0l0,0l0,0l0,0l0,0l0,0l0,0l0,0l0,0
							l0,0l0,0l0,0l0,0l0,0l0,0l0,0l0,0l0,0l0,0l0,0l0,0l0,0l0,0l0,0L355.8,131.1L355.8,131.1z M453.7,131.1L453.7,131.1
							c-0.1-0.1-0.3-0.1-0.4,0s-0.1,0.3,0,0.4l1.5,1.5l-1.5,1.5c-0.1,0.1-0.1,0.3,0,0.4c0.1,0.1,0.3,0.1,0.4,0l1.7-1.7l0,0l0,0l0,0
							l0,0l0,0l0,0l0,0l0,0l0,0l0,0l0,0l0,0l0,0l0,0l0,0l0,0l0,0l0,0l0,0l0,0l0,0l0,0l0,0l0,0l0,0l0,0l0,0l0,0l0,0l0,0l0,0l0,0l0,0
							l0,0l0,0l0,0l0,0l0,0l0,0l0,0l0,0l0,0l0,0l0,0l0,0l0,0l0,0l0,0l0,0l0,0l0,0l0,0l0,0l0,0l0,0l0,0l0,0l0,0l0,0l0,0l0,0l0,0l0,0
							l0,0l0,0l0,0l0,0l0,0l0,0l0,0l0,0l0,0l0,0l0,0l0,0l0,0l0,0l0,0l0,0l0,0l0,0l0,0l0,0l0,0l0,0l0,0l0,0l0,0l0,0l0,0l0,0l0,0l0,0
							l0,0l0,0l0,0l0,0l0,0l0,0l0,0l0,0l0,0l0,0l0,0l0,0l0,0l0,0l0,0l0,0l0,0l0,0l0,0l0,0l0,0l0,0l0,0l0,0l0,0l0,0l0,0l0,0l0,0l0,0
							l0,0l0,0l0,0l0,0L453.7,131.1z"/>
						<rect x="352" y="147.4" class="st12" width="30.8" height="5.5"/>
						<rect x="389.3" y="147.4" class="st11" width="30.8" height="5.5"/>
						<rect x="426.7" y="147.4" class="st10" width="30.8" height="5.5"/>
						<rect x="352" y="155.7" class="st10" width="30.8" height="18.8"/>
						<rect x="389.3" y="155.7" class="st12" width="30.8" height="18.8"/>
						<rect x="426.7" y="155.7" class="st11" width="30.8" height="18.8"/>
						<rect x="454.2" y="113.1" class="st12" width="3.3" height="2.2"/>
						<rect x="449.1" y="113.1" class="st11" width="3.3" height="2.2"/>
						<rect x="444.1" y="113.1" class="st8" width="3.3" height="2.2"/>
						<rect x="439" y="113.1" class="st10" width="3.3" height="2.2"/>
					</g>
				</g>
				<rect x="198.8" y="175" class="st13" width="29.8" height="36.5"/>
				<path class="st8" d="M139,75.5h149.4c3.5,0,6.4,2.9,6.4,6.4v103.5c0,3.5-2.9,6.4-6.4,6.4H139c-3.5,0-6.4-2.9-6.4-6.4V81.9
					C132.7,78.4,135.5,75.5,139,75.5z"/>
				<rect x="140.5" y="83.3" class="st9" width="146.5" height="82.9"/>
				<g>
					<rect x="146.8" y="92.1" class="st10" width="42.5" height="7.1"/>
					<rect x="146.8" y="105.1" class="st11" width="133.8" height="24.6"/>
					<path class="st8" d="M151.7,114.9c0.1-0.1,0.4-0.1,0.5,0s0.1,0.4,0,0.5l-1.9,2l1.9,2c0.1,0.1,0.1,0.4,0,0.5s-0.4,0.1-0.5,0
						l-2.2-2.2l0,0l0,0l0,0l0,0l0,0l0,0l0,0l0,0l0,0l0,0l0,0l0,0l0,0l0,0l0,0l0,0l0,0l0,0l0,0l0,0l0,0l0,0l0,0l0,0l0,0l0,0l0,0l0,0
						l0,0l0,0l0,0l0,0l0,0l0,0l0,0l0,0l0,0l0,0l0,0l0,0l0,0l0,0l0,0l0,0l0,0l0,0l0,0l0,0l0,0l0,0l0,0l0,0l0,0l0,0l0,0l0,0l0,0l0,0
						l0,0l0,0l0,0l0,0l0,0l0,0l0,0l0,0l0,0l0,0l0,0l0,0l0,0l0,0l0,0l0,0l0,0l0,0l0,0l0,0l0,0l0,0l0,0l0,0l0,0l0,0l0,0l0,0l0,0l0,0
						l0,0l0,0l0,0l0,0l0,0l0,0l0,0l0,0l0,0l0,0l0,0l0,0l0,0l0,0l0,0l0,0l0,0l0,0l0,0l0,0l0,0l0,0l0,0l0,0l0,0l0,0l0,0l0,0l0,0l0,0
						l0,0l0,0l0,0l0,0l0,0l0,0l0,0l0,0l0,0L151.7,114.9L151.7,114.9z M275.8,114.9L275.8,114.9c-0.1-0.1-0.4-0.1-0.5,0
						s-0.1,0.4,0,0.5l1.9,2l-1.9,2c-0.1,0.1-0.1,0.4,0,0.5s0.4,0.1,0.5,0l2.2-2.2l0,0l0,0l0,0l0,0l0,0l0,0l0,0l0,0l0,0l0,0l0,0l0,0
						l0,0l0,0l0,0l0,0l0,0l0,0l0,0l0,0l0,0l0,0l0,0l0,0l0,0l0,0l0,0l0,0l0,0l0,0l0,0l0,0l0,0l0,0l0,0l0,0l0,0l0,0l0,0l0,0l0,0l0,0
						l0,0l0,0l0,0l0,0l0,0l0,0l0,0l0,0l0,0l0,0l0,0l0,0l0,0l0,0l0,0l0,0l0,0l0,0l0,0l0,0l0,0l0,0l0,0l0,0l0,0l0,0l0,0l0,0l0,0l0,0
						l0,0l0,0l0,0l0,0l0,0l0,0l0,0l0,0l0,0l0,0l0,0l0,0l0,0l0,0l0,0l0,0l0,0l0,0l0,0l0,0l0,0l0,0l0,0l0,0l0,0l0,0l0,0l0,0l0,0l0,0
						l0,0l0,0l0,0l0,0l0,0l0,0l0,0l0,0l0,0l0,0l0,0l0,0l0,0l0,0l0,0l0,0l0,0l0,0l0,0l0,0l0,0l0,0l0,0l0,0l0,0L275.8,114.9z"/>
					<rect x="146.8" y="135.6" class="st12" width="39.1" height="7"/>
					<rect x="194.2" y="135.6" class="st11" width="39.1" height="7"/>
					<rect x="241.6" y="135.6" class="st10" width="39.1" height="7"/>
					<rect x="146.8" y="146.1" class="st10" width="39.1" height="20.1"/>
					<rect x="194.2" y="146.1" class="st12" width="39.1" height="20.1"/>
					<rect x="241.6" y="146.1" class="st11" width="39.1" height="20.1"/>
					<rect x="276.4" y="92.1" class="st12" width="4.2" height="2.8"/>
					<rect x="270" y="92.1" class="st11" width="4.2" height="2.8"/>
					<rect x="263.6" y="92.1" class="st8" width="4.2" height="2.8"/>
					<rect x="257.1" y="92.1" class="st10" width="4.2" height="2.8"/>
				</g>
				<path class="st8" d="M188.9,205.1h49.7c3.5,0,6.3,2.8,6.3,6.3l0,0h-62.4l0,0C182.6,208,185.4,205.1,188.9,205.1z"/>
			</g>
		</g>
	</g>
</g>
</svg>
