<?xml version="1.0" encoding="utf-8"?>
<!-- Generator: Adobe Illustrator 20.0.0, SVG Export Plug-In . SVG Version: 6.00 Build 0)  -->
<svg version="1.1" id="Layer_1" xmlns="http://www.w3.org/2000/svg" xmlns:xlink="http://www.w3.org/1999/xlink" x="0px" y="0px"
	 viewBox="0 0 612 612" style="enable-background:new 0 0 612 612;" xml:space="preserve">
<style type="text/css">
	.st0{fill:url(#SVGID_1_);}
	.st1{opacity:0.2;}
	.st2{opacity:0;fill:#6D6E71;}
	.st3{opacity:3.846154e-02;fill:#6D6E71;}
	.st4{opacity:7.692308e-02;fill:#6D6E71;}
	.st5{opacity:0.1154;fill:#6D6E71;}
	.st6{opacity:0.1538;fill:#6D6E71;}
	.st7{opacity:0.1923;fill:#6D6E71;}
	.st8{opacity:0.2308;fill:#6D6E71;}
	.st9{opacity:0.2692;fill:#6D6E71;}
	.st10{opacity:0.3077;fill:#6D6E71;}
	.st11{opacity:0.3462;fill:#6D6E71;}
	.st12{opacity:0.3846;fill:#6D6E71;}
	.st13{opacity:0.4231;fill:#6D6E71;}
	.st14{opacity:0.4615;fill:#6D6E71;}
	.st15{opacity:0.5;fill:#6D6E71;}
	.st16{opacity:0.5385;fill:#6D6E71;}
	.st17{opacity:0.5769;fill:#6D6E71;}
	.st18{opacity:0.6154;fill:#6D6E71;}
	.st19{opacity:0.6538;fill:#6D6E71;}
	.st20{opacity:0.6923;fill:#6D6E71;}
	.st21{opacity:0.7308;fill:#6D6E71;}
	.st22{opacity:0.7692;fill:#6D6E71;}
	.st23{opacity:0.8077;fill:#6D6E71;}
	.st24{opacity:0.8462;fill:#6D6E71;}
	.st25{opacity:0.8846;fill:#6D6E71;}
	.st26{opacity:0.9231;fill:#6D6E71;}
	.st27{opacity:0.9615;fill:#6D6E71;}
	.st28{fill:#6D6E71;}
	.st29{fill:#008291;}
	.st30{fill:#2EBEC6;}
	.st31{fill:#CECECD;}
	.st32{fill:#FFFFFF;}
	.st33{opacity:0.5;}
	.st34{fill:#78909C;}
	.st35{fill:#FFFFFF;stroke:#78909C;stroke-width:0.6123;stroke-miterlimit:10;}
	.st36{fill:#CC7629;}
	.st37{fill:#FFC835;}
	.st38{fill:#808184;}
	.st39{fill:#929497;}
	.st40{fill:#726F69;}
	.st41{fill:#A54824;}
	.st42{fill:#ED6E23;}
	.st43{opacity:0.3;}
	.st44{fill:#676767;}
	.st45{fill:#333333;}
	.st46{fill:#E5E5E4;}
	.st47{fill:#CACDD2;}
	.st48{fill:#979797;}
	.st49{fill:#EC2024;}
	.st50{fill:#F5EA14;}
	.st51{fill:#69BC45;}
	.st52{clip-path:url(#SVGID_3_);fill:#333333;}
</style>
<g>
	
		<radialGradient id="SVGID_1_" cx="311.9857" cy="328.6855" r="276.2481" fx="587.2256" fy="352.2645" gradientTransform="matrix(1.0145 0 0 1.0145 -4.4189 -5.1288)" gradientUnits="userSpaceOnUse">
		<stop  offset="0" style="stop-color:#EF5133"/>
		<stop  offset="1" style="stop-color:#F2796B"/>
	</radialGradient>
	<circle class="st0" cx="306" cy="306" r="306"/>
	<g class="st1">
		<path class="st2" d="M307.1,156.7c0-12.2-9.9-22.2-22.2-22.2H150.7c-12.2,0-22.2,9.9-22.2,22.2v33.8c0,12.2,9.9,22.2,22.2,22.2
			h148.1h-20.2c15.1,0,27.4,11.7,28.4,26.5V156.7z"/>
		<path class="st3" d="M128.2,155.5v33.8c0,12.3,9.9,22.2,22.2,22.2h147.3h-10.2c0.1,0-8.7,0-8.6,0c15,0.1,27.1,11.8,28.1,26.5
			v-46.6l0-0.1c0,0,0-2,0-2.1v-33.9c0-12.3-9.9-22.2-22.2-22.2H150.4C138.1,133.3,128.2,143.3,128.2,155.5z"/>
		<path class="st4" d="M127.8,154.4v33.9c0,12.3,10,22.3,22.3,22.3h146.5h-9.4c0.2,0-8.1,0-7.9,0.1c14.8,0.3,26.9,11.9,27.9,26.6
			v-46.7l0-0.1c0-0.1,0-2,0-2.1v-34c0-12.3-10-22.3-22.3-22.3H150C137.7,132.2,127.8,142.1,127.8,154.4z"/>
		<path class="st5" d="M127.3,153.3v34c0,12.3,10,22.3,22.3,22.3h145.6h-8.6c0.3,0-7.5,0-7.2,0.1c14.7,0.4,26.7,12,27.7,26.6v-46.8
			l0-0.1c0-0.1,0-2,0-2.1v-34.1c0-12.3-10-22.3-22.3-22.3H149.7C137.3,131,127.3,141,127.3,153.3z"/>
		<path class="st6" d="M126.9,152.2v34.1c0,12.4,10,22.4,22.4,22.4h144.8h-7.8c0.4,0-7,0.1-6.6,0.2c14.6,0.5,26.4,12.1,27.4,26.6
			v-46.9l0-0.1c0-0.1,0-2,0-2.1v-34.1c0-12.4-10-22.4-22.4-22.4H149.3C136.9,129.8,126.9,139.9,126.9,152.2z"/>
		<path class="st7" d="M126.5,151.1v34.2c0,12.4,10,22.4,22.4,22.4h144h-7c0.5,0-6.4,0.1-5.9,0.2c14.5,0.6,26.2,12.2,27.2,26.6
			v-47.1l0,0c0-0.1,0-2,0-2.1v-34.2c0-12.4-10-22.4-22.4-22.4H148.9C136.5,128.7,126.5,138.7,126.5,151.1z"/>
		<path class="st8" d="M126.1,150v34.3c0,12.4,10.1,22.5,22.5,22.5h143.1h-6.2c0.6,0-5.8,0.1-5.3,0.2c14.4,0.8,26,12.3,27,26.7
			v-47.2l0,0c0-0.2,0-1.9,0-2.1V150c0-12.4-10.1-22.5-22.5-22.5H148.6C136.1,127.5,126.1,137.6,126.1,150z"/>
		<path class="st9" d="M125.7,148.9v34.3c0,12.4,10.1,22.5,22.5,22.5h142.3h-5.4c0.7,0-5.3,0.1-4.6,0.3
			c14.3,0.9,25.7,12.4,26.7,26.7v-47.3l0,0c0-0.2,0-1.9,0-2.1v-34.4c0-12.4-10.1-22.5-22.5-22.5H148.2
			C135.8,126.3,125.7,136.4,125.7,148.9z"/>
		<path class="st10" d="M125.2,147.8v34.4c0,12.5,10.1,22.6,22.6,22.6h141.5h-4.6c0.9,0-4.7,0.1-3.9,0.3c14.2,1,25.5,12.5,26.5,26.7
			v-47.4l0,0c0-0.2,0-1.9,0-2.1v-34.5c0-12.5-10.1-22.6-22.6-22.6H147.8C135.4,125.2,125.2,135.3,125.2,147.8z"/>
		<path class="st11" d="M124.8,146.7v34.5c0,12.5,10.1,22.6,22.6,22.6h140.6h-3.8c1,0-4.2,0.1-3.3,0.4c14.1,1.2,25.3,12.5,26.2,26.7
			v-47.5l0,0c0-0.3,0-1.9,0-2.1v-34.6c0-12.5-10.1-22.6-22.6-22.6H147.5C135,124,124.8,134.1,124.8,146.7z"/>
		<path class="st12" d="M124.4,145.5v34.6c0,12.5,10.2,22.7,22.7,22.7h139.8h-3c1.1,0-3.6,0.1-2.6,0.4c14,1.3,25,12.6,26,26.8v-47.7
			l0,0c0-0.3,0-1.8,0-2.1v-34.6c0-12.5-10.2-22.7-22.7-22.7H147.1C134.6,122.8,124.4,133,124.4,145.5z"/>
		<path class="st13" d="M124,144.4v34.7c0,12.6,10.2,22.8,22.8,22.8h139h-2.3c1.2,0-3,0.2-1.9,0.5c13.9,1.4,24.8,12.7,25.8,26.8
			v-47.8l0,0c0-0.3,0-1.8,0-2.1v-34.7c0-12.6-10.2-22.8-22.8-22.8H146.7C134.2,121.7,124,131.9,124,144.4z"/>
		<path class="st14" d="M123.6,143.3v34.8c0,12.6,10.2,22.8,22.8,22.8h138.1h-1.5c1.3,0-2.5,0.2-1.3,0.5
			c13.7,1.5,24.6,12.8,25.5,26.8v-47.9l-0.1,0c0-0.3,0.1-1.8,0.1-2.2v-34.8c0-12.6-10.2-22.8-22.8-22.8H146.4
			C133.8,120.5,123.6,130.7,123.6,143.3z"/>
		<path class="st15" d="M123.2,142.2V177c0,12.6,10.2,22.9,22.9,22.9h137.3h-0.7c1.4,0-1.9,0.2-0.6,0.5
			c13.6,1.7,24.3,12.9,25.3,26.8v-48l-0.1,0c0-0.4,0.1-1.8,0.1-2.2v-34.9c0-12.6-10.2-22.9-22.9-22.9H146
			C133.4,119.3,123.2,129.6,123.2,142.2z"/>
		<path class="st16" d="M122.7,141.1V176c0,12.7,10.3,22.9,22.9,22.9h136.5h0.1c1.5,0-1.3,0.2,0,0.6c13.5,1.8,24.1,13,25.1,26.9
			v-48.1l-0.1,0c0-0.4,0.1-1.8,0.1-2.2v-35c0-12.7-10.3-22.9-22.9-22.9H145.7C133,118.2,122.7,128.4,122.7,141.1z"/>
		<path class="st17" d="M122.3,140v35c0,12.7,10.3,23,23,23h135.6h0.9c1.6,0-0.8,0.2,0.7,0.6c13.4,1.9,23.9,13.1,24.8,26.9v-48.2
			l-0.1,0c0-0.4,0.1-1.7,0.1-2.2v-35c0-12.7-10.3-23-23-23H145.3C132.6,117,122.3,127.3,122.3,140z"/>
		<path class="st18" d="M121.9,138.9V174c0,12.7,10.3,23,23,23h134.8h1.7c1.7,0-0.2,0.2,1.4,0.7c13.3,2.1,23.6,13.2,24.6,26.9v-48.4
			l-0.1,0c0-0.5,0.1-1.7,0.1-2.2v-35.1c0-12.7-10.3-23-23-23H144.9C132.2,115.8,121.9,126.1,121.9,138.9z"/>
		<path class="st19" d="M121.5,137.8v35.2c0,12.7,10.3,23.1,23.1,23.1h134h2.5c1.8,0,0.4,0.2,2,0.7c13.2,2.2,23.4,13.3,24.3,26.9
			v-48.5l-0.1,0c0-0.5,0.1-1.7,0.1-2.2v-35.2c0-12.7-10.3-23.1-23.1-23.1H144.6C131.8,114.7,121.5,125,121.5,137.8z"/>
		<path class="st20" d="M121.1,136.6v35.3c0,12.8,10.4,23.1,23.1,23.1h133.1h3.3c1.9,0,0.9,0.3,2.7,0.7c13.1,2.3,23.2,13.4,24.1,27
			v-48.6l-0.1,0c0-0.5,0.1-1.7,0.1-2.2v-35.3c0-12.8-10.4-23.1-23.1-23.1H144.2C131.4,113.5,121.1,123.9,121.1,136.6z"/>
		<path class="st21" d="M120.6,135.5v35.3c0,12.8,10.4,23.2,23.2,23.2h132.3h4.1c2,0,1.5,0.3,3.4,0.8c13,2.4,23,13.5,23.9,27v-48.7
			l-0.1,0c0.1-0.5,0.1-1.6,0.1-2.2v-35.4c0-12.8-10.4-23.2-23.2-23.2H143.8C131,112.3,120.6,122.7,120.6,135.5z"/>
		<path class="st22" d="M120.2,134.4v35.4c0,12.8,10.4,23.2,23.2,23.2h131.5h4.9c2.1,0,2.1,0.3,4,0.8c12.9,2.6,22.7,13.6,23.6,27
			v-48.8l-0.1,0c0.1-0.6,0.1-1.6,0.1-2.2v-35.4c0-12.8-10.4-23.2-23.2-23.2H143.5C130.6,111.2,120.2,121.6,120.2,134.4z"/>
		<path class="st23" d="M119.8,133.3v35.5c0,12.9,10.4,23.3,23.3,23.3h130.6h5.7c2.2,0,2.6,0.3,4.7,0.9c12.8,2.7,22.5,13.7,23.4,27
			v-49l-0.1,0c0.1-0.6,0.1-1.6,0.1-2.2v-35.5c0-12.9-10.4-23.3-23.3-23.3H143.1C130.2,110,119.8,120.4,119.8,133.3z"/>
		<path class="st24" d="M119.4,132.2v35.6c0,12.9,10.5,23.4,23.4,23.4h129.8h6.5c2.3,0,3.2,0.3,5.3,0.9
			c12.6,2.8,22.3,13.7,23.2,27.1V170l-0.1,0c0.1-0.6,0.1-1.6,0.1-2.2v-35.6c0-12.9-10.5-23.4-23.4-23.4H142.7
			C129.8,108.8,119.4,119.3,119.4,132.2z"/>
		<path class="st25" d="M119,131.1v35.7c0,12.9,10.5,23.4,23.4,23.4h129h7.3c2.4,0,3.8,0.3,6,0.9c12.5,2.9,22,13.8,22.9,27.1V169
			l-0.1,0c0.1-0.7,0.1-1.6,0.1-2.2v-35.7c0-12.9-10.5-23.4-23.4-23.4H142.4C129.4,107.7,119,118.2,119,131.1z"/>
		<path class="st26" d="M118.6,130v35.8c0,13,10.5,23.5,23.5,23.5h128.1h8.1c2.6,0,4.3,0.3,6.7,1c12.4,3.1,21.8,13.9,22.7,27.1V168
			l-0.1,0c0.1-0.7,0.1-1.5,0.1-2.2V130c0-13-10.5-23.5-23.5-23.5H142C129.1,106.5,118.6,117,118.6,130z"/>
		<path class="st27" d="M118.1,128.9v35.8c0,13,10.5,23.5,23.5,23.5H269h8.9c2.7,0,4.9,0.4,7.3,1c12.3,3.2,21.6,14,22.4,27.1v-49.4
			l-0.1,0c0.1-0.7,0.1-1.5,0.1-2.2v-35.8c0-13-10.5-23.5-23.5-23.5H141.6C128.7,105.3,118.1,115.9,118.1,128.9z"/>
		<path class="st28" d="M307.6,127.7c0-13-10.6-23.6-23.6-23.6H141.3c-13,0-23.6,10.6-23.6,23.6v35.9c0,13,10.6,23.6,23.6,23.6
			h126.5h9.6c16,0,29.1,12.5,30.2,28.2v-49.5h-0.1c0.1-0.7,0.1-1.5,0.1-2.2V127.7z"/>
	</g>
	<path class="st29" d="M307.6,130.7c0-12.2-9.9-22.1-22.1-22.1H140.8c-12.2,0-22.1,9.9-22.1,22.1v33.7c0,12.2,9.9,22.1,22.1,22.1
		h129.4h9.1c15.1,0,27.4,11.7,28.4,26.5v-46.5h-0.1c0.1-0.7,0.1-1.4,0.1-2.1V130.7z"/>
	<path class="st30" d="M307.6,126.3c0-12.2-9.9-22.1-22.1-22.1H140.8c-12.2,0-22.1,9.9-22.1,22.1V160c0,12.2,9.9,22.1,22.1,22.1
		h129.4h9.1c15.1,0,27.4,11.7,28.4,26.5v-46.5h-0.1c0.1-0.7,0.1-1.4,0.1-2.1V126.3z"/>
	<g id="imac_2_">
		<g>
			<rect x="131" y="129.6" class="st31" width="41.2" height="22.5"/>
		</g>
		<g>
			<line x1="127.2" y1="155.8" x2="175.9" y2="155.8"/>
		</g>
		<g>
			<path class="st32" d="M173.1,125.8h-43.1c-1.5,0-2.8,1.3-2.8,2.8v27.2h48.7v-27.2C175.9,127.1,174.7,125.8,173.1,125.8z
				 M172.2,152H131v-22.5h41.2V152z"/>
		</g>
		<g class="st33">
			<path d="M127.2,156.2v2.6c0,1.7,1.3,2.6,2.8,2.6h43.1c1.5,0,2.8-0.9,2.8-2.6v-2.6H127.2z"/>
		</g>
		<g>
			<path d="M162.1,166.4c0.5,0,0.5,0.6,0,0.6h-20.9c-0.6,0-0.5-0.6,0-0.6c0.5,0,4.8,0.6,4.8-3.2c0-1.9,0-1.9,0-1.9h11.2
				c0,0,0,0,0,1.9C157.2,167,161.6,166.4,162.1,166.4z"/>
		</g>
		<rect x="131" y="129.6" class="st34" width="41.2" height="3.2"/>
		<circle class="st32" cx="170.5" cy="131.2" r="0.8"/>
		<circle class="st32" cx="168.4" cy="131.2" r="0.8"/>
		<circle class="st32" cx="166.3" cy="131.2" r="0.8"/>
		<rect x="131.7" y="133.5" class="st34" width="14" height="0.5"/>
		<rect x="148.1" y="133.5" class="st34" width="23.1" height="0.5"/>
		<rect x="131.7" y="145.2" class="st34" width="14" height="0.6"/>
		<rect x="132.5" y="138.8" class="st34" width="2.1" height="6.3"/>
		<rect x="135.9" y="135" class="st34" width="2.1" height="10.2"/>
		<rect x="139.7" y="140.4" class="st34" width="2.1" height="4.8"/>
		<rect x="142.9" y="143.3" class="st34" width="2.1" height="1.9"/>
		<rect x="131.7" y="147" class="st34" width="14" height="0.4"/>
		<rect x="131.7" y="148.5" class="st34" width="14" height="0.4"/>
		<rect x="131.7" y="149.9" class="st34" width="14" height="0.4"/>
		<rect x="148.1" y="135.3" class="st34" width="6.7" height="6.7"/>
		<rect x="155.7" y="135.3" class="st34" width="15.5" height="0.5"/>
		<rect x="155.7" y="136.9" class="st34" width="15.5" height="0.5"/>
		<rect x="155.7" y="138.4" class="st34" width="15.5" height="0.5"/>
		<rect x="155.7" y="139.9" class="st34" width="15.5" height="0.5"/>
		<rect x="155.7" y="141.5" class="st34" width="15.5" height="0.5"/>
		<rect x="147.6" y="143.3" class="st35" width="23.6" height="7.5"/>
	</g>
	<g>
		<path class="st32" d="M193.8,148.9l2.6,0.4c-0.3,1-0.9,1.7-1.6,2.2c-0.7,0.5-1.6,0.8-2.7,0.8c-1.7,0-3-0.6-3.8-1.7
			c-0.7-0.9-1-2-1-3.4c0-1.6,0.4-2.9,1.3-3.9s1.9-1.4,3.3-1.4c1.5,0,2.6,0.5,3.5,1.5s1.3,2.5,1.2,4.5h-6.6c0,0.8,0.2,1.4,0.6,1.8
			c0.4,0.4,0.9,0.6,1.5,0.6c0.4,0,0.8-0.1,1-0.3S193.6,149.4,193.8,148.9z M193.9,146.2c0-0.8-0.2-1.3-0.6-1.7s-0.8-0.6-1.4-0.6
			c-0.6,0-1,0.2-1.4,0.6c-0.4,0.4-0.6,1-0.6,1.7H193.9z"/>
		<path class="st32" d="M198.6,152v-13.7h4.1l2.5,9.3l2.5-9.3h4.1V152h-2.6v-10.8l-2.7,10.8h-2.7l-2.7-10.8V152H198.6z"/>
		<path class="st32" d="M214,146.9c0-0.9,0.2-1.7,0.6-2.5s1-1.4,1.8-1.9c0.8-0.4,1.7-0.6,2.6-0.6c1.5,0,2.7,0.5,3.7,1.5
			s1.4,2.2,1.4,3.7c0,1.5-0.5,2.7-1.5,3.7c-1,1-2.2,1.5-3.7,1.5c-0.9,0-1.8-0.2-2.6-0.6c-0.8-0.4-1.5-1-1.9-1.8S214,148.1,214,146.9
			z M216.7,147.1c0,1,0.2,1.7,0.7,2.3c0.5,0.5,1,0.8,1.7,0.8s1.3-0.3,1.7-0.8c0.5-0.5,0.7-1.3,0.7-2.3c0-1-0.2-1.7-0.7-2.2
			c-0.5-0.5-1-0.8-1.7-0.8s-1.3,0.3-1.7,0.8C216.9,145.3,216.7,146.1,216.7,147.1z"/>
		<path class="st32" d="M235.3,152h-2.6V147c0-1.1-0.1-1.8-0.2-2.1c-0.1-0.3-0.3-0.6-0.5-0.7c-0.3-0.2-0.6-0.3-0.9-0.3
			c-0.5,0-0.9,0.1-1.2,0.4c-0.4,0.2-0.6,0.6-0.7,1c-0.1,0.4-0.2,1.2-0.2,2.3v4.5h-2.6v-9.9h2.4v1.5c0.9-1.1,2-1.7,3.3-1.7
			c0.6,0,1.1,0.1,1.6,0.3s0.8,0.5,1.1,0.8c0.2,0.3,0.4,0.7,0.5,1.1c0.1,0.4,0.1,1,0.1,1.8V152z"/>
		<path class="st32" d="M238,140.8v-2.4h2.6v2.4H238z M238,152v-9.9h2.6v9.9H238z"/>
		<path class="st32" d="M247.8,142.1v2.1H246v4c0,0.8,0,1.3,0.1,1.4c0,0.1,0.1,0.2,0.2,0.3c0.1,0.1,0.3,0.1,0.4,0.1
			c0.2,0,0.6-0.1,1.1-0.3l0.2,2c-0.6,0.3-1.3,0.4-2.1,0.4c-0.5,0-0.9-0.1-1.3-0.2c-0.4-0.2-0.7-0.4-0.8-0.6c-0.2-0.3-0.3-0.6-0.4-1
			c-0.1-0.3-0.1-0.9-0.1-1.8v-4.3h-1.2v-2.1h1.2v-2l2.6-1.5v3.5H247.8z"/>
		<path class="st32" d="M249,146.9c0-0.9,0.2-1.7,0.6-2.5s1-1.4,1.8-1.9c0.8-0.4,1.7-0.6,2.6-0.6c1.5,0,2.7,0.5,3.7,1.5
			s1.4,2.2,1.4,3.7c0,1.5-0.5,2.7-1.5,3.7c-1,1-2.2,1.5-3.7,1.5c-0.9,0-1.8-0.2-2.6-0.6c-0.8-0.4-1.5-1-1.9-1.8S249,148.1,249,146.9
			z M251.7,147.1c0,1,0.2,1.7,0.7,2.3c0.5,0.5,1,0.8,1.7,0.8s1.3-0.3,1.7-0.8c0.5-0.5,0.7-1.3,0.7-2.3c0-1-0.2-1.7-0.7-2.2
			c-0.5-0.5-1-0.8-1.7-0.8s-1.3,0.3-1.7,0.8C252,145.3,251.7,146.1,251.7,147.1z"/>
		<path class="st32" d="M263.8,152h-2.6v-9.9h2.4v1.4c0.4-0.7,0.8-1.1,1.1-1.3c0.3-0.2,0.7-0.3,1.1-0.3c0.6,0,1.2,0.2,1.7,0.5
			l-0.8,2.3c-0.4-0.3-0.9-0.4-1.2-0.4c-0.4,0-0.7,0.1-0.9,0.3c-0.3,0.2-0.5,0.6-0.6,1.1c-0.1,0.5-0.2,1.6-0.2,3.3V152z"/>
		<path class="st32" d="M268.8,140.8v-2.4h2.6v2.4H268.8z M268.8,152v-9.9h2.6v9.9H268.8z"/>
		<path class="st32" d="M283.1,152h-2.6V147c0-1.1-0.1-1.8-0.2-2.1c-0.1-0.3-0.3-0.6-0.5-0.7c-0.3-0.2-0.6-0.3-0.9-0.3
			c-0.5,0-0.9,0.1-1.2,0.4c-0.4,0.2-0.6,0.6-0.7,1c-0.1,0.4-0.2,1.2-0.2,2.3v4.5h-2.6v-9.9h2.4v1.5c0.9-1.1,2-1.7,3.3-1.7
			c0.6,0,1.1,0.1,1.6,0.3s0.8,0.5,1.1,0.8c0.2,0.3,0.4,0.7,0.5,1.1c0.1,0.4,0.1,1,0.1,1.8V152z"/>
		<path class="st32" d="M285.5,152.7l3,0.4c0,0.3,0.2,0.6,0.3,0.7c0.2,0.2,0.6,0.3,1.2,0.3c0.7,0,1.2-0.1,1.5-0.3
			c0.2-0.1,0.4-0.4,0.5-0.7c0.1-0.2,0.1-0.6,0.1-1.2v-1.4c-0.8,1.1-1.8,1.6-3,1.6c-1.3,0-2.4-0.6-3.2-1.7c-0.6-0.9-0.9-2-0.9-3.3
			c0-1.7,0.4-2.9,1.2-3.8s1.8-1.3,3-1.3c1.2,0,2.2,0.5,3,1.6v-1.4h2.5v8.9c0,1.2-0.1,2-0.3,2.6c-0.2,0.6-0.5,1-0.8,1.4
			s-0.8,0.6-1.4,0.8c-0.6,0.2-1.3,0.3-2.2,0.3c-1.7,0-2.9-0.3-3.6-0.9c-0.7-0.6-1.1-1.3-1.1-2.2
			C285.5,152.9,285.5,152.8,285.5,152.7z M287.9,146.9c0,1.1,0.2,1.8,0.6,2.3s0.9,0.7,1.5,0.7c0.6,0,1.2-0.3,1.6-0.8
			c0.4-0.5,0.7-1.2,0.7-2.2c0-1-0.2-1.8-0.6-2.3c-0.4-0.5-1-0.7-1.6-0.7c-0.6,0-1.1,0.2-1.6,0.7S287.9,145.9,287.9,146.9z"/>
	</g>
	<g class="st1">
		<path class="st2" d="M308.1,247.8c0-14.6-11.8-26.4-26.4-26.4H101.9c-14.6,0-26.4,11.8-26.4,26.4v40.3c0,14.6,11.8,26.4,26.4,26.4
			h161.5h10.8c18,0,32.7,14,33.9,31.7V247.8z"/>
		<path class="st3" d="M75.1,246.8v40.3c0,14.6,11.9,26.5,26.5,26.5h161.7h10.8c18,0,32.7,14,33.9,31.7v-39.8l0,0c0,0,0-1.7,0-1.8
			v-28.9c0-0.6-0.5-29.1-1.1-29.1c0-14-12.8-25.4-26.8-25.4H109.1c-0.1,0-7.7,0-7.7,0C86.8,220.4,75.1,232.2,75.1,246.8z"/>
		<path class="st4" d="M74.8,245.7v40.4c0,14.6,11.9,26.5,26.5,26.5h162h10.8c18,0,32.8,14,34,31.7v-40.5l0,0c0-0.1,0-1.7,0-1.8
			v-29.4c0-1.2-0.9-29-2.1-29c0-13.5-13.7-24.4-27.2-24.4H108.5c-0.2,0-7.5,0-7.7,0.1C86.4,219.5,74.8,231.3,74.8,245.7z"/>
		<path class="st5" d="M74.5,244.7v40.4c0,14.7,11.9,26.5,26.5,26.5h162.2h10.9c18.1,0,32.8,14,34,31.8v-41.2l0,0c0-0.1,0-1.7,0-1.8
			v-29.9c0-1.7-1.4-29-3.2-29c0-12.9-14.6-23.4-27.6-23.4H107.9c-0.3,0-7.4,0-7.7,0.1C86,218.6,74.5,230.3,74.5,244.7z"/>
		<path class="st6" d="M74.2,243.6v40.5c0,14.7,11.9,26.6,26.6,26.6h162.4H274c18.1,0,32.8,14.1,34.1,31.8v-41.9l0,0
			c0-0.1,0-1.7,0-1.9v-30.4c0-2.3-1.9-28.9-4.2-28.9c0-12.4-15.6-22.4-27.9-22.4H107.4c-0.4,0-7.3,0-7.6,0.1
			C85.6,217.6,74.2,229.3,74.2,243.6z"/>
		<path class="st7" d="M73.9,242.6v40.6c0,14.7,11.9,26.6,26.6,26.6h162.6H274c18.1,0,32.9,14.1,34.1,31.9V299l0,0
			c0-0.2,0-1.7,0-1.9v-30.9c0-2.9-2.4-28.8-5.3-28.8c0-11.8-16.5-21.4-28.3-21.4H106.8c-0.4,0-7.2,0.1-7.6,0.2
			C85.1,216.7,73.9,228.3,73.9,242.6z"/>
		<path class="st8" d="M73.6,241.5v40.6c0,14.7,11.9,26.6,26.6,26.6H263h10.9c18.1,0,32.9,14.1,34.1,31.9v-43.3l0,0
			c0-0.2,0-1.7,0-1.9V264c0-3.5-2.8-28.7-6.3-28.7c0-11.2-17.5-20.3-28.7-20.3H106.2c-0.5,0-7,0.1-7.5,0.2
			C84.7,215.8,73.6,227.4,73.6,241.5z"/>
		<path class="st9" d="M73.3,240.5v40.7c0,14.7,11.9,26.7,26.7,26.7h163h10.9c18.1,0,33,14.1,34.2,31.9v-44l0,0c0-0.2,0-1.7,0-2
			v-31.9c0-4.1-3.3-28.7-7.4-28.7c0-10.7-18.4-19.3-29.1-19.3h-166c-0.6,0-6.9,0.1-7.5,0.2C84.3,214.8,73.3,226.4,73.3,240.5z"/>
		<path class="st10" d="M73,239.5v40.7c0,14.8,12,26.7,26.7,26.7h163.2h10.9c18.2,0,33,14.1,34.2,32v-44.7l0,0c0-0.3,0-1.7,0-2
			v-32.4c0-4.6-3.8-28.6-8.4-28.6c0-10.1-19.3-18.3-29.4-18.3H105.1c-0.7,0-6.8,0.1-7.4,0.3C83.9,213.9,73,225.4,73,239.5z"/>
		<path class="st11" d="M72.7,238.4v40.8c0,14.8,12,26.7,26.7,26.7h163.4h10.9c18.2,0,33.1,14.1,34.3,32v-45.4l0,0c0-0.3,0-1.7,0-2
			v-32.9c0-5.2-4.2-28.5-9.5-28.5c0-9.5-20.3-17.3-29.8-17.3H104.5c-0.8,0-6.7,0.1-7.4,0.3C83.5,213,72.7,224.4,72.7,238.4z"/>
		<path class="st12" d="M72.4,237.4v40.8c0,14.8,12,26.8,26.8,26.8h163.6h11c18.2,0,33.1,14.2,34.3,32.1v-46.1l-0.1,0
			c0-0.3,0.1-1.7,0.1-2.1v-33.5c0-5.8-4.7-28.5-10.5-28.5c0-9-21.2-16.3-30.2-16.3H103.9c-0.9,0-6.5,0.1-7.4,0.3
			C83,212.1,72.4,223.5,72.4,237.4z"/>
		<path class="st13" d="M72.1,236.3v40.9c0,14.8,12,26.8,26.8,26.8h163.8h11c18.2,0,33.1,14.2,34.4,32.1v-46.8l-0.1,0
			c0-0.4,0.1-1.7,0.1-2.1v-34c0-6.4-5.2-28.4-11.6-28.4c0-8.4-22.1-15.3-30.6-15.3H103.4c-1,0-6.4,0.1-7.3,0.4
			C82.6,211.1,72.1,222.5,72.1,236.3z"/>
		<path class="st14" d="M71.8,235.3v40.9c0,14.8,12,26.8,26.9,26.8h164h11c18.3,0,33.2,14.2,34.4,32.1v-47.6l-0.1,0
			c0-0.4,0.1-1.7,0.1-2.1V251c0-7-5.6-28.3-12.6-28.3c0-7.9-23.1-14.2-30.9-14.2H102.8c-1.1,0-6.3,0.1-7.3,0.4
			C82.2,210.2,71.8,221.5,71.8,235.3z"/>
		<path class="st15" d="M71.5,234.2v41c0,14.8,12,26.9,26.9,26.9h164.2h11c18.3,0,33.2,14.2,34.4,32.2V286l-0.1,0
			c0-0.4,0.1-1.7,0.1-2.2v-35c0-7.5-6.1-28.2-13.7-28.2c0-7.3-24-13.2-31.3-13.2H102.2c-1.2,0-6.2,0.1-7.2,0.4
			C81.8,209.3,71.5,220.5,71.5,234.2z"/>
		<path class="st16" d="M71.1,233.2v41c0,14.9,12.1,26.9,26.9,26.9h164.4h11c18.3,0,33.3,14.2,34.5,32.2v-49l-0.1,0
			c0-0.5,0.1-1.7,0.1-2.2v-35.5c0-8.1-6.6-28.2-14.7-28.2c0-6.7-25-12.2-31.7-12.2H101.7c-1.2,0-6,0.2-7.2,0.4
			C81.3,208.3,71.1,219.6,71.1,233.2z"/>
		<path class="st17" d="M70.8,232.2v41.1c0,14.9,12.1,27,27,27h164.6h11c18.3,0,33.3,14.2,34.5,32.3v-49.7l-0.1,0
			c0-0.5,0.1-1.7,0.1-2.2v-36c0-8.7-7.1-28.1-15.8-28.1c0-6.2-25.9-11.2-32.1-11.2H101.1c-1.3,0-5.9,0.2-7.2,0.5
			C80.9,207.4,70.8,218.6,70.8,232.2z"/>
		<path class="st18" d="M70.5,231.1v41.1c0,14.9,12.1,27,27,27h164.8h11c18.4,0,33.3,14.3,34.6,32.3v-50.4l-0.1,0
			c0.1-0.5,0.1-1.7,0.1-2.3v-36.5c0-9.3-7.5-28-16.8-28c0-5.6-26.8-10.2-32.4-10.2H100.5c-1.4,0-5.8,0.2-7.1,0.5
			C80.5,206.5,70.5,217.6,70.5,231.1z"/>
		<path class="st19" d="M70.2,230.1v41.2c0,14.9,12.1,27,27,27h165h11.1c18.4,0,33.4,14.3,34.6,32.4v-51.1l-0.1,0
			c0.1-0.6,0.1-1.7,0.1-2.3v-37c0-9.9-8-28-17.9-28c0-5.1-27.8-9.2-32.8-9.2H99.9c-1.5,0-5.7,0.2-7.1,0.5
			C80.1,205.5,70.2,216.7,70.2,230.1z"/>
		<path class="st20" d="M69.9,229v41.2c0,14.9,12.1,27.1,27.1,27.1h165.3h11.1c18.4,0,33.4,14.3,34.7,32.4v-51.8l-0.1,0
			c0.1-0.6,0.1-1.7,0.1-2.3V238c0-10.4-8.5-27.9-18.9-27.9c0-4.5-28.7-8.1-33.2-8.1H99.4c-1.6,0-5.6,0.2-7,0.6
			C79.6,204.6,69.9,215.7,69.9,229z"/>
		<path class="st21" d="M69.6,228v41.3c0,15,12.1,27.1,27.1,27.1h165.5h11.1c18.4,0,33.5,14.3,34.7,32.4v-52.5l-0.1,0
			c0.1-0.6,0.1-1.7,0.1-2.4v-38.1c0-11-8.9-27.8-20-27.8c0-3.9-29.6-7.1-33.6-7.1H98.8c-1.7,0-5.4,0.2-7,0.6
			C79.2,203.7,69.6,214.7,69.6,228z"/>
		<path class="st22" d="M69.3,226.9v41.3c0,15,12.1,27.1,27.1,27.1h165.7h11.1c18.4,0,33.5,14.3,34.7,32.5v-53.2l-0.1,0
			c0.1-0.7,0.1-1.7,0.1-2.4v-38.6c0-11.6-9.4-27.8-21-27.8c0-3.4-30.6-6.1-33.9-6.1H98.2c-1.8,0-5.3,0.2-7,0.6
			C78.8,202.7,69.3,213.7,69.3,226.9z"/>
		<path class="st23" d="M69,225.9v41.4c0,15,12.2,27.2,27.2,27.2H262h11.1c18.5,0,33.6,14.4,34.8,32.5V273l-0.1,0
			c0.1-0.7,0.1-1.7,0.1-2.4v-39.1c0-12.2-9.9-27.7-22.1-27.7c0-2.8-31.5-5.1-34.3-5.1H97.7c-1.9,0-5.2,0.2-6.9,0.7
			C78.4,201.8,69,212.8,69,225.9z"/>
		<path class="st24" d="M68.7,224.8v41.4c0,15,12.2,27.2,27.2,27.2H262h11.1c18.5,0,33.6,14.4,34.8,32.6v-54.6l-0.1,0
			c0.1-0.7,0.1-1.7,0.1-2.5v-39.6c0-12.8-10.3-27.6-23.1-27.6c0-2.2-32.4-4.1-34.7-4.1h-153c-2,0-5.1,0.2-6.9,0.7
			C77.9,200.9,68.7,211.8,68.7,224.8z"/>
		<path class="st25" d="M68.4,223.8v41.5c0,15,12.2,27.2,27.2,27.2h166.3H273c18.5,0,33.6,14.4,34.9,32.6v-55.3l-0.1,0
			c0.1-0.8,0.1-1.7,0.1-2.5v-40.1c0-13.3-10.8-27.5-24.2-27.5c0-1.7-33.4-3.1-35.1-3.1H96.5c-2,0-4.9,0.3-6.8,0.7
			C77.5,200,68.4,210.8,68.4,223.8z"/>
		<path class="st26" d="M68.1,222.8v41.5c0,15.1,12.2,27.3,27.3,27.3h166.5H273c18.5,0,33.7,14.4,34.9,32.6v-56l-0.1,0
			c0.1-0.8,0.1-1.7,0.1-2.5V225c0-13.9-11.3-27.5-25.2-27.5c0-1.1-34.3-2-35.4-2H95.9c-2.1,0-4.8,0.3-6.8,0.8
			C77.1,199,68.1,209.8,68.1,222.8z"/>
		<path class="st27" d="M67.8,221.7v41.6c0,15.1,12.2,27.3,27.3,27.3h166.7h11.2c18.6,0,33.7,14.4,35,32.7v-56.7l-0.1,0
			c0.1-0.8,0.1-1.7,0.1-2.6v-41.1c0-14.5-11.8-27.4-26.3-27.4c0-0.6-35.3-1-35.8-1H95.4c-2.2,0-4.7,0.3-6.7,0.8
			C76.7,198.1,67.8,208.9,67.8,221.7z"/>
		<path class="st28" d="M307.9,220.7c0-15.1-12.2-27.3-27.3-27.3H94.8c-15.1,0-27.3,12.2-27.3,27.3v41.6c0,15.1,12.2,27.3,27.3,27.3
			h166.9h11.2c18.6,0,33.8,14.4,35,32.7v-57.4h-0.1c0.1-0.9,0.1-1.7,0.1-2.6V220.7z"/>
	</g>
	<path class="st36" d="M307.9,220.7c0-15.1-12.2-27.3-27.3-27.3H94.8c-15.1,0-27.3,12.2-27.3,27.3v41.6c0,15.1,12.2,27.3,27.3,27.3
		h166.9h11.2c18.6,0,33.8,14.4,35,32.7v-57.4h-0.1c0.1-0.9,0.1-1.7,0.1-2.6V220.7z"/>
	<path class="st37" d="M307.9,216.4c0-15.1-12.2-27.3-27.3-27.3H94.8c-15.1,0-27.3,12.2-27.3,27.3V258c0,15.1,12.2,27.3,27.3,27.3
		h166.9h11.2c18.6,0,33.8,14.4,35,32.7v-57.4h-0.1c0.1-0.9,0.1-1.7,0.1-2.6V216.4z"/>
	<g>
	</g>
	<g>
		<path class="st32" d="M123,246.8c0,1.1,0,2.2,0,3.4c-0.8,0-1.7,0-2.6,0c0,4.7,0,9.3,0,14c-11.7,0-23.3,0-35,0c0-4.6,0-9.3,0-13.9
			c-0.9,0-1.7,0-2.6,0c0-1.2,0-2.3,0-3.5C96.3,246.8,109.6,246.8,123,246.8z"/>
		<path class="st32" d="M126.6,244.2c-4,0-8,0-12,0c0-1.2,0-2.4,0-3.7c7,0,14.1,0,21.2,0c0,1.2,0,2.4,0,3.7c-0.9,0-1.7,0-2.7,0
			c0,4.9,0,9.7,0,14.6c-3.1,0-6.1,0-9.2,0c0-2.4,0-4.8,0-7.3c0.9,0,1.7,0,2.6,0C126.6,249,126.6,246.6,126.6,244.2z"/>
		<path class="st32" d="M135,253.3c0-2.4,0-4.8,0-7.3c0.7,0,1.5,0,2.2,0c0.3,0,0.5,0,0.5-0.4c0-2.2,0-4.4,0-6.6c0-0.1,0-0.1-0.1-0.2
			c-4,0-7.9,0-12,0c0-1.3,0-2.5,0-3.7c0.2,0,0.3,0,0.5,0c6.7,0,13.4,0,20.1,0c0.5,0,0.6,0.1,0.6,0.6c0,1,0,2,0,3.1
			c-0.9,0-1.8,0-2.8,0c0,4.9,0,9.7,0,14.6C141,253.3,138,253.3,135,253.3z"/>
		<path class="st32" d="M111.5,245c-5.7,0-11.4,0-17.2,0c0.1-1.3,0-2.7,0.4-4c0.6-2.1,2.4-3.4,5-3.1c0.2,0,0.3,0.1,0.5,0.2
			c0.7,0.4,1.5,0.7,2.2,1.2c0.5,0.4,1,0.3,1.5,0c0.5-0.3,1-0.6,1.6-0.9c2.7-1.6,5.9,0.6,6.2,3.2C111.6,242.8,111.5,243.9,111.5,245z
			"/>
		<path class="st32" d="M118.7,229.4c1.2-1,2-2.1,2.4-3.4c0.1-0.4,1-0.4,1.6-0.1c0.9,0.5,1.8,0.9,2.6,1.4c0.4,0.3,0.8,0.2,1.2,0
			c0.6-0.4,1.2-0.6,1.8-1c2.6-1.7,6.3,0.4,6.6,3.6c0.1,1.1,0,2.1,0,3.3c-0.2,0-0.4,0-0.6,0c-2.9,0-5.7,0-8.6,0c-0.3,0-0.5,0-0.7-0.4
			c-1.3-2.2-3.1-3.4-5.7-3.4C119,229.5,118.9,229.5,118.7,229.4z"/>
		<path class="st32" d="M123.9,238.7c-3.2,0-6.4,0-9.5,0c-0.1,0-0.4-0.1-0.4-0.2c-1.3-2.3-3.2-3.5-5.9-3.5c0,0-0.1,0-0.1,0
			c0.2-0.2,0.4-0.4,0.5-0.6c0.5-0.8,1.1-1.5,1.5-2.4c0.4-0.8,0.9-1,1.7-0.6c0.9,0.5,1.9,1,2.8,1.5c0.3,0.2,0.6,0.2,0.9,0
			c0.6-0.4,1.3-0.7,1.9-1.1c2.4-1.6,5.4,0.2,6.1,2.1c0.3,0.7,0.4,1.4,0.5,2.1C123.9,236.8,123.9,237.7,123.9,238.7z"/>
		<path class="st32" d="M98.4,231.2c0-2.5,2.1-4.6,4.5-4.5c2.5,0,4.5,2.1,4.6,4.5c0,2.5-2.1,4.6-4.5,4.6
			C100.5,235.8,98.4,233.7,98.4,231.2z"/>
		<path class="st32" d="M130.5,218.7c0,2.7-2.1,4.7-4.7,4.7c-2.6,0-4.8-2.1-4.8-4.8c0-2.6,2.1-4.7,4.8-4.7
			C128.5,213.9,130.5,216,130.5,218.7z"/>
		<path class="st32" d="M108.9,225.9c0.1-2.6,2.1-4.5,4.7-4.5c2.5,0.1,4.4,2.2,4.4,4.7c-0.1,2.5-2.1,4.4-4.7,4.3
			C110.8,230.4,108.8,228.3,108.9,225.9z"/>
	</g>
	<g>
		<g>
			<path class="st32" d="M171.1,241.5l2.9,0.5c-0.4,1.1-1,1.9-1.8,2.4c-0.8,0.6-1.8,0.8-3,0.8c-1.9,0-3.3-0.6-4.2-1.9
				c-0.7-1-1.1-2.2-1.1-3.8c0-1.8,0.5-3.2,1.4-4.2c0.9-1,2.1-1.5,3.6-1.5c1.6,0,2.9,0.5,3.8,1.6c0.9,1.1,1.4,2.7,1.3,4.9h-7.2
				c0,0.9,0.3,1.5,0.7,2s1,0.7,1.7,0.7c0.5,0,0.8-0.1,1.1-0.4C170.7,242.4,171,242,171.1,241.5z M171.3,238.6c0-0.8-0.2-1.5-0.6-1.9
				c-0.4-0.4-0.9-0.7-1.5-0.7c-0.6,0-1.2,0.2-1.6,0.7c-0.4,0.5-0.6,1.1-0.6,1.9H171.3z"/>
			<path class="st32" d="M186.2,239.4l2.9,0.9c-0.5,1.6-1.2,2.9-2.3,3.7c-1.1,0.8-2.4,1.2-4,1.2c-2,0-3.6-0.7-4.9-2
				c-1.3-1.4-1.9-3.2-1.9-5.6c0-2.5,0.6-4.5,1.9-5.8c1.3-1.4,3-2.1,5.1-2.1c1.8,0,3.3,0.5,4.5,1.6c0.7,0.6,1.2,1.6,1.5,2.8l-3,0.7
				c-0.2-0.8-0.5-1.4-1.1-1.8s-1.3-0.7-2.1-0.7c-1.1,0-2,0.4-2.7,1.2s-1,2.1-1,3.9c0,1.9,0.3,3.3,1,4.1c0.7,0.8,1.6,1.2,2.7,1.2
				c0.8,0,1.5-0.3,2.1-0.8C185.5,241.3,185.9,240.5,186.2,239.4z"/>
			<path class="st32" d="M191.7,245v-15.1h2.9V245H191.7z"/>
			<path class="st32" d="M199.7,237.4l-2.6-0.5c0.3-1.1,0.8-1.8,1.5-2.3s1.8-0.8,3.2-0.8c1.3,0,2.2,0.2,2.9,0.5s1.1,0.7,1.3,1.2
				s0.4,1.3,0.4,2.6l0,3.4c0,1,0,1.7,0.1,2.1c0.1,0.5,0.3,0.9,0.5,1.5h-2.9c-0.1-0.2-0.2-0.5-0.3-0.9c0-0.2-0.1-0.3-0.1-0.3
				c-0.5,0.5-1,0.8-1.6,1.1c-0.6,0.2-1.2,0.4-1.8,0.4c-1.1,0-2-0.3-2.7-0.9c-0.6-0.6-1-1.4-1-2.3c0-0.6,0.1-1.2,0.4-1.6
				s0.7-0.9,1.2-1.1c0.5-0.3,1.3-0.5,2.3-0.7c1.3-0.3,2.3-0.5,2.8-0.7v-0.3c0-0.6-0.1-1-0.4-1.2c-0.3-0.2-0.8-0.4-1.6-0.4
				c-0.5,0-0.9,0.1-1.2,0.3C200.1,236.5,199.9,236.9,199.7,237.4z M203.6,239.7c-0.4,0.1-1,0.3-1.8,0.4s-1.3,0.3-1.6,0.5
				c-0.4,0.3-0.6,0.6-0.6,1c0,0.4,0.2,0.8,0.5,1s0.7,0.4,1.2,0.4c0.5,0,1-0.2,1.5-0.5c0.3-0.3,0.6-0.6,0.7-1
				c0.1-0.2,0.1-0.7,0.1-1.4V239.7z"/>
			<path class="st32" d="M208.2,241.9l2.9-0.4c0.1,0.6,0.4,1,0.8,1.3c0.4,0.3,0.9,0.4,1.6,0.4c0.7,0,1.3-0.1,1.7-0.4
				c0.3-0.2,0.4-0.4,0.4-0.8c0-0.2-0.1-0.4-0.2-0.5c-0.1-0.1-0.5-0.3-1-0.4c-2.3-0.5-3.8-1-4.4-1.4c-0.9-0.6-1.3-1.4-1.3-2.5
				c0-0.9,0.4-1.7,1.1-2.4c0.7-0.6,1.9-1,3.5-1c1.5,0,2.6,0.2,3.3,0.7c0.7,0.5,1.2,1.2,1.5,2.2l-2.7,0.5c-0.1-0.4-0.3-0.8-0.7-1
				c-0.3-0.2-0.8-0.3-1.4-0.3c-0.8,0-1.3,0.1-1.6,0.3c-0.2,0.2-0.3,0.3-0.3,0.6c0,0.2,0.1,0.4,0.3,0.5c0.3,0.2,1.2,0.5,2.7,0.8
				c1.5,0.3,2.6,0.8,3.2,1.3c0.6,0.5,0.9,1.2,0.9,2.1c0,1-0.4,1.9-1.3,2.6c-0.8,0.7-2.1,1.1-3.7,1.1c-1.5,0-2.7-0.3-3.5-0.9
				C209.1,243.7,208.5,242.9,208.2,241.9z"/>
			<path class="st32" d="M219.9,241.9l2.9-0.4c0.1,0.6,0.4,1,0.8,1.3c0.4,0.3,0.9,0.4,1.6,0.4c0.7,0,1.3-0.1,1.7-0.4
				c0.3-0.2,0.4-0.4,0.4-0.8c0-0.2-0.1-0.4-0.2-0.5c-0.1-0.1-0.5-0.3-1-0.4c-2.3-0.5-3.8-1-4.4-1.4c-0.9-0.6-1.3-1.4-1.3-2.5
				c0-0.9,0.4-1.7,1.1-2.4c0.7-0.6,1.9-1,3.5-1c1.5,0,2.6,0.2,3.3,0.7c0.7,0.5,1.2,1.2,1.5,2.2l-2.7,0.5c-0.1-0.4-0.3-0.8-0.7-1
				c-0.3-0.2-0.8-0.3-1.4-0.3c-0.8,0-1.3,0.1-1.6,0.3c-0.2,0.2-0.3,0.3-0.3,0.6c0,0.2,0.1,0.4,0.3,0.5c0.3,0.2,1.2,0.5,2.7,0.8
				c1.5,0.3,2.6,0.8,3.2,1.3c0.6,0.5,0.9,1.2,0.9,2.1c0,1-0.4,1.9-1.3,2.6c-0.8,0.7-2.1,1.1-3.7,1.1c-1.5,0-2.7-0.3-3.5-0.9
				C220.8,243.7,220.2,242.9,219.9,241.9z"/>
			<path class="st32" d="M235.4,245h-2.9v-10.9h2.7v1.6c0.5-0.7,0.9-1.2,1.2-1.4c0.4-0.2,0.8-0.3,1.2-0.3c0.7,0,1.3,0.2,1.9,0.5
				l-0.9,2.5c-0.5-0.3-0.9-0.5-1.4-0.5c-0.4,0-0.7,0.1-1,0.3c-0.3,0.2-0.5,0.6-0.7,1.2c-0.2,0.6-0.2,1.8-0.2,3.7V245z"/>
			<path class="st32" d="M240.2,239.4c0-1,0.2-1.9,0.7-2.8c0.5-0.9,1.1-1.6,2-2.1c0.9-0.5,1.8-0.7,2.9-0.7c1.7,0,3,0.5,4.1,1.6
				c1.1,1.1,1.6,2.4,1.6,4.1c0,1.7-0.5,3-1.6,4.1c-1.1,1.1-2.4,1.6-4,1.6c-1,0-2-0.2-2.9-0.7c-0.9-0.5-1.6-1.1-2.1-2
				C240.4,241.7,240.2,240.6,240.2,239.4z M243.1,239.5c0,1.1,0.3,1.9,0.8,2.5c0.5,0.6,1.1,0.9,1.9,0.9s1.4-0.3,1.9-0.9
				c0.5-0.6,0.8-1.4,0.8-2.5c0-1.1-0.3-1.9-0.8-2.5c-0.5-0.6-1.1-0.9-1.9-0.9s-1.4,0.3-1.9,0.9C243.4,237.6,243.1,238.4,243.1,239.5
				z"/>
			<path class="st32" d="M253,239.4c0-1,0.2-1.9,0.7-2.8c0.5-0.9,1.1-1.6,2-2.1c0.9-0.5,1.8-0.7,2.9-0.7c1.7,0,3,0.5,4.1,1.6
				c1.1,1.1,1.6,2.4,1.6,4.1c0,1.7-0.5,3-1.6,4.1c-1.1,1.1-2.4,1.6-4,1.6c-1,0-2-0.2-2.9-0.7c-0.9-0.5-1.6-1.1-2.1-2
				C253.3,241.7,253,240.6,253,239.4z M256,239.5c0,1.1,0.3,1.9,0.8,2.5c0.5,0.6,1.1,0.9,1.9,0.9s1.4-0.3,1.9-0.9
				c0.5-0.6,0.8-1.4,0.8-2.5c0-1.1-0.3-1.9-0.8-2.5c-0.5-0.6-1.1-0.9-1.9-0.9s-1.4,0.3-1.9,0.9C256.2,237.6,256,238.4,256,239.5z"/>
			<path class="st32" d="M266.3,234.1h2.7v1.5c1-1.2,2.1-1.7,3.4-1.7c0.7,0,1.3,0.1,1.8,0.4s0.9,0.7,1.3,1.3c0.5-0.6,1-1,1.6-1.3
				s1.1-0.4,1.8-0.4c0.8,0,1.5,0.2,2,0.5s1,0.8,1.2,1.4c0.2,0.5,0.3,1.2,0.3,2.3v7h-2.9v-6.2c0-1.1-0.1-1.8-0.3-2.1
				c-0.3-0.4-0.7-0.6-1.2-0.6c-0.4,0-0.8,0.1-1.1,0.4s-0.6,0.6-0.8,1.1s-0.2,1.2-0.2,2.3v5.2h-2.9v-6c0-1.1-0.1-1.7-0.2-2.1
				c-0.1-0.3-0.3-0.5-0.5-0.7c-0.2-0.2-0.5-0.2-0.9-0.2c-0.4,0-0.8,0.1-1.2,0.4c-0.4,0.2-0.6,0.6-0.8,1c-0.2,0.5-0.2,1.2-0.2,2.3
				v5.3h-2.9V234.1z"/>
		</g>
	</g>
	<g class="st1">
		<path class="st2" d="M307.6,179.4c0-13.2,10.7-23.9,23.9-23.9h143.8c13.2,0,23.9,10.7,23.9,23.9v36.4c0,13.2-10.7,23.9-23.9,23.9
			H348h-9.8c-16.2,0-29.5,12.6-30.6,28.6V179.4z"/>
		<path class="st3" d="M308.8,177.2c0-12.7,11.2-23,23.9-23h141.8c13.2,0,24,10.7,24,24v36.5c0,13.2-10.7,24-24,24H347.8H347
			c-0.1,0-8.7,0-8.8,0c-16.1,0.1-29.3,12.7-30.4,28.6v-36l0,0c0,0,0-1.6,0-1.6v-26.1C307.8,203,308.2,177.2,308.8,177.2z"/>
		<path class="st4" d="M310,175c0-12.2,11.7-22,23.9-22h139.9c13.3,0,24,10.8,24,24v36.6c0,13.3-10.8,24-24,24H347.7h-0.8
			c-0.2,0-8.6,0-8.8,0.1c-16.1,0.3-29.1,12.8-30.2,28.7v-36.8l0,0c0-0.1,0-1.6,0-1.6v-26.7C308,200.3,308.9,175,310,175z"/>
		<path class="st5" d="M311.1,172.8c0-11.7,12.3-21.1,23.9-21.1h138c13.3,0,24.1,10.8,24.1,24.1v36.7c0,13.3-10.8,24.1-24.1,24.1
			H347.6h-0.7c-0.3,0-8.4,0-8.7,0.1c-16,0.4-28.9,12.9-30,28.8v-37.5l0,0c0-0.1,0-1.6,0-1.7v-27.2
			C308.1,197.5,309.5,172.8,311.1,172.8z"/>
		<path class="st6" d="M312.3,170.6c0-11.2,12.8-20.2,24-20.2h136.1c13.4,0,24.2,10.8,24.2,24.2v36.9c0,13.4-10.8,24.2-24.2,24.2
			H347.4h-0.7c-0.4,0-8.3,0.1-8.7,0.1c-15.9,0.5-28.7,13.1-29.8,28.8v-38.3l0,0c0-0.1,0-1.6,0-1.7v-27.7
			C308.3,194.7,310.1,170.6,312.3,170.6z"/>
		<path class="st7" d="M313.5,168.4c0-10.6,13.3-19.3,24-19.3h134.1c13.4,0,24.3,10.9,24.3,24.3v37c0,13.4-10.9,24.3-24.3,24.3
			H347.3h-0.6c-0.5,0-8.2,0.1-8.7,0.2c-15.8,0.7-28.5,13.2-29.6,28.9v-39l0,0c0-0.2,0-1.6,0-1.7v-28.3
			C308.5,192,310.7,168.4,313.5,168.4z"/>
		<path class="st8" d="M314.7,166.3c0-10.1,13.9-18.4,24-18.4h132.2c13.5,0,24.4,10.9,24.4,24.4v37.1c0,13.5-10.9,24.4-24.4,24.4
			H347.2h-0.5c-0.6,0-8,0.1-8.6,0.2c-15.7,0.8-28.3,13.3-29.4,28.9v-39.7l0,0c0-0.2,0-1.6,0-1.8v-28.8
			C308.7,189.2,311.3,166.3,314.7,166.3z"/>
		<path class="st9" d="M315.8,164.1c0-9.6,14.4-17.4,24-17.4h130.3c13.5,0,24.4,10.9,24.4,24.4v37.2c0,13.5-10.9,24.4-24.4,24.4
			H347.1h-0.5c-0.7,0-7.9,0.1-8.6,0.3c-15.6,0.9-28.1,13.4-29.2,29v-40.5l0,0c0-0.2,0-1.6,0-1.8v-29.4
			C308.8,186.4,312,164.1,315.8,164.1z"/>
		<path class="st10" d="M317,161.9c0-9.1,14.9-16.5,24.1-16.5h128.4c13.5,0,24.5,11,24.5,24.5v37.4c0,13.5-11,24.5-24.5,24.5H346.9
			h-0.4c-0.8,0-7.8,0.1-8.6,0.3c-15.5,1-27.9,13.5-29,29.1v-41.2l0,0c0-0.3,0-1.6,0-1.9v-29.9C309,183.7,312.6,161.9,317,161.9z"/>
		<path class="st11" d="M318.2,159.7c0-8.6,15.5-15.6,24.1-15.6h126.4c13.6,0,24.6,11,24.6,24.6v37.5c0,13.6-11,24.6-24.6,24.6
			H346.8h-0.3c-1,0-7.7,0.1-8.5,0.3c-15.4,1.2-27.7,13.6-28.8,29.1v-42l0,0c0-0.3,0-1.6,0-1.9v-30.4
			C309.2,180.9,313.2,159.7,318.2,159.7z"/>
		<path class="st12" d="M319.4,157.5c0-8.1,16-14.7,24.1-14.7H468c13.6,0,24.7,11.1,24.7,24.7v37.6c0,13.6-11,24.7-24.7,24.7H346.7
			h-0.2c-1.1,0-7.5,0.1-8.5,0.4c-15.3,1.3-27.5,13.7-28.6,29.2v-42.7l0,0c0-0.3,0-1.6,0-1.9v-31
			C309.4,178.1,313.8,157.5,319.4,157.5z"/>
		<path class="st13" d="M320.5,155.3c0-7.6,16.5-13.8,24.1-13.8h122.6c13.7,0,24.8,11.1,24.8,24.8V204c0,13.7-11.1,24.8-24.8,24.8
			H346.5h-0.2c-1.2,0-7.4,0.1-8.5,0.4c-15.2,1.4-27.3,13.8-28.4,29.2v-43.5l0.1,0c0-0.3-0.1-1.6-0.1-2v-31.5
			C309.5,175.4,314.5,155.3,320.5,155.3z"/>
		<path class="st14" d="M321.7,153.1c0-7.1,17-12.9,24.1-12.9h120.7c13.7,0,24.8,11.1,24.8,24.8v37.9c0,13.7-11.1,24.8-24.8,24.8
			H346.4h-0.1c-1.3,0-7.3,0.2-8.4,0.4c-15.1,1.6-27.1,13.9-28.1,29.3v-44.2l0.1,0c0-0.4-0.1-1.6-0.1-2v-32.1
			C309.7,172.6,315.1,153.1,321.7,153.1z"/>
		<path class="st15" d="M322.9,150.9c0-6.6,17.6-11.9,24.2-11.9h118.8c13.8,0,24.9,11.2,24.9,24.9v38c0,13.8-11.2,24.9-24.9,24.9
			H346.3h0c-1.4,0-7.1,0.2-8.4,0.5c-15,1.7-26.9,14.1-27.9,29.4v-45l0.1,0c0-0.4-0.1-1.6-0.1-2V177
			C309.9,169.9,315.7,150.9,322.9,150.9z"/>
		<path class="st16" d="M324.1,148.7c0-6.1,18.1-11,24.2-11h116.8c13.8,0,25,11.2,25,25v38.1c0,13.8-11.2,25-25,25H346.2h0
			c-1.5,0-7,0.2-8.4,0.5c-15,1.8-26.7,14.2-27.7,29.4V210l0.1,0c0-0.4-0.1-1.6-0.1-2.1v-33.1C310.1,167.1,316.3,148.7,324.1,148.7z"
			/>
		<path class="st17" d="M325.2,146.5c0-5.6,18.6-10.1,24.2-10.1h114.9c13.9,0,25.1,11.2,25.1,25.1v38.2c0,13.9-11.2,25.1-25.1,25.1
			H346h0.1c-1.6,0-6.9,0.2-8.3,0.6c-14.9,2-26.5,14.3-27.5,29.5v-46.4l0.1,0c0-0.5-0.1-1.6-0.1-2.1v-33.7
			C310.2,164.3,317,146.5,325.2,146.5z"/>
		<path class="st18" d="M326.4,144.3c0-5.1,19.2-9.2,24.2-9.2h113c13.9,0,25.2,11.3,25.2,25.2v38.4c0,13.9-11.3,25.2-25.2,25.2
			H345.9h0.2c-1.7,0-6.7,0.2-8.3,0.6c-14.8,2.1-26.3,14.4-27.3,29.5v-47.2l0.1,0c0-0.5-0.1-1.6-0.1-2.1v-34.2
			C310.4,161.6,317.6,144.3,326.4,144.3z"/>
		<path class="st19" d="M327.6,142.1c0-4.6,19.7-8.3,24.3-8.3h111.1c13.9,0,25.3,11.3,25.3,25.3v38.5c0,13.9-11.3,25.3-25.3,25.3
			H345.8h0.2c-1.8,0-6.6,0.2-8.3,0.6c-14.7,2.2-26.1,14.5-27.1,29.6v-47.9l0.1,0c-0.1-0.5-0.1-1.6-0.1-2.2v-34.7
			C310.6,158.8,318.2,142.1,327.6,142.1z"/>
		<path class="st20" d="M328.8,139.9c0-4.1,20.2-7.3,24.3-7.3h109.1c14,0,25.3,11.3,25.3,25.3v38.6c0,14-11.3,25.3-25.3,25.3H345.6
			h0.3c-1.9,0-6.5,0.2-8.2,0.7c-14.6,2.4-25.9,14.6-26.9,29.7v-48.7l0.1,0c-0.1-0.6-0.1-1.6-0.1-2.2V166
			C310.8,156,318.8,139.9,328.8,139.9z"/>
		<path class="st21" d="M329.9,137.7c0-3.5,20.7-6.4,24.3-6.4h107.2c14,0,25.4,11.4,25.4,25.4v38.7c0,14-11.4,25.4-25.4,25.4H345.5
			h0.4c-2,0-6.3,0.2-8.2,0.7c-14.5,2.5-25.7,14.7-26.7,29.7v-49.4l0.1,0c-0.1-0.6-0.1-1.6-0.1-2.2v-35.8
			C311,153.3,319.5,137.7,329.9,137.7z"/>
		<path class="st22" d="M331.1,135.5c0-3,21.3-5.5,24.3-5.5h105.3c14.1,0,25.5,11.4,25.5,25.5v38.9c0,14.1-11.4,25.5-25.5,25.5
			H345.4h0.5c-2.1,0-6.2,0.3-8.2,0.7c-14.4,2.6-25.5,14.8-26.5,29.8v-50.2l0.1,0c-0.1-0.6-0.1-1.6-0.1-2.3v-36.4
			C311.1,150.5,320.1,135.5,331.1,135.5z"/>
		<path class="st23" d="M332.3,133.3c0-2.5,21.8-4.6,24.3-4.6H460c14.1,0,25.6,11.5,25.6,25.6v39c0,14.1-11.5,25.6-25.6,25.6H345.3
			h0.5c-2.2,0-6.1,0.3-8.2,0.8c-14.3,2.8-25.3,14.9-26.3,29.8v-50.9l0.1,0c-0.1-0.7-0.1-1.6-0.1-2.3v-36.9
			C311.3,147.7,320.7,133.3,332.3,133.3z"/>
		<path class="st24" d="M333.5,131.1c0-2,22.3-3.7,24.4-3.7h101.5c14.2,0,25.7,11.5,25.7,25.7v39.1c0,14.2-11.5,25.7-25.7,25.7
			H345.1h0.6c-2.3,0-6,0.3-8.1,0.8c-14.2,2.9-25.1,15-26.1,29.9v-51.6l0.1,0c-0.1-0.7-0.1-1.6-0.1-2.3v-37.4
			C311.5,145,321.3,131.1,333.5,131.1z"/>
		<path class="st25" d="M334.6,128.9c0-1.5,22.9-2.8,24.4-2.8h99.5c14.2,0,25.7,11.5,25.7,25.7v39.2c0,14.2-11.5,25.7-25.7,25.7H345
			h0.7c-2.4,0-5.8,0.3-8.1,0.9c-14.1,3-24.9,15.2-25.9,30v-52.4l0.1,0c-0.1-0.7-0.1-1.6-0.1-2.4v-38
			C311.7,142.2,321.9,128.9,334.6,128.9z"/>
		<path class="st26" d="M335.8,126.7c0-1,23.4-1.8,24.4-1.8h97.6c14.3,0,25.8,11.6,25.8,25.8V190c0,14.3-11.6,25.8-25.8,25.8h-113
			h0.7c-2.5,0-5.7,0.3-8.1,0.9c-14,3.1-24.7,15.3-25.7,30v-53.1l0.1,0c-0.1-0.8-0.1-1.6-0.1-2.4v-38.5
			C311.8,139.4,322.6,126.7,335.8,126.7z"/>
		<path class="st27" d="M337,124.5c0-0.5,23.9-0.9,24.4-0.9h95.7c14.3,0,25.9,11.6,25.9,25.9v39.5c0,14.3-11.6,25.9-25.9,25.9H344.7
			h0.8c-2.6,0-5.6,0.3-8,0.9c-14,3.3-24.5,15.4-25.5,30.1V192l0.1,0c-0.1-0.8-0.1-1.6-0.1-2.4v-39.1
			C312,136.7,323.2,124.5,337,124.5z"/>
		<path class="st28" d="M312.2,148.3c0-14.3,11.6-26,26-26h118.2c14.4,0,26,11.6,26,26v39.6c0,14.4-11.6,26-26,26H344.6h0.9
			c-17.7,0-32.1,13.7-33.3,31.1v-54.6h0.1c-0.1-0.8-0.1-1.6-0.1-2.5V148.3z"/>
	</g>
	<path class="st38" d="M307.9,150.5c0-13.8,11.2-25.1,25.1-25.1h154.6c13.8,0,25.1,11.2,25.1,25.1v38.2c0,13.8-11.2,25.1-25.1,25.1
		H350.2H340c-17,0-31,13.2-32.1,30V191h0.1c-0.1-0.8-0.1-1.6-0.1-2.4V150.5z"/>
	<path class="st39" d="M307.9,146.7c0-13.8,11.2-25.1,25.1-25.1h154.6c13.8,0,25.1,11.2,25.1,25.1v38.2c0,13.8-11.2,25.1-25.1,25.1
		H350.2H340c-17,0-31,13.2-32.1,30v-52.7h0.1c-0.1-0.8-0.1-1.6-0.1-2.4V146.7z"/>
	<g>
		<path class="st32" d="M349.7,186.9c-0.7,0-1.5,0-2.3,0c0,3.4,0,6.7,0,10c-1.4-0.3-2.7-1.7-2.8-3.3c-0.1-1.3-0.1-2.7-0.1-4
			c0-0.9,0-1.8,0-2.8c-1.8,0-3.4,0-5.1,0c-0.6,0-1.2-0.1-1.8-0.3c-0.7-0.3-1.3-0.6-1.9-1.1c-0.8-0.7-1.1-1.6-0.7-2.7
			c2-6.7,4-13.4,6-20.1c0.2-0.7,0.6-1.4,1-2.1c0.7-1,1.8-1.6,3-1.6c7.1,0,14.1,0,21.2,0c1.4,0,2.6,0.6,3.2,1.9
			c0.7,1.5,1.2,3,1.7,4.6c1.7,5.7,3.3,11.3,5,17c0.5,1.5,0.1,2.6-1.3,3.5c-0.9,0.6-1.8,0.9-2.8,0.9c-1.8,0-3.6,0-5.5,0
			c0,0.3,0,0.5,0,0.7c0,1.8,0,3.7,0,5.5c0,1.7-1.1,3.2-2.6,3.8c0-3.3,0-6.6,0-10c-0.8,0-1.6,0-2.3,0l0,0c0-0.5,0-1.1,0-1.6
			c0-1,0.4-1.5,1.2-1.5c0.7,0,1.1,0.5,1.1,1.5c0,0.5,0,1,0,1.5c0.7,0,1.4,0,2.1,0c0-2,0-4,0-6c0-2.9-1.7-4.6-4.5-4.6
			c-3.9,0-7.8,0-11.7,0c-1.5,0-2.8,0.5-3.8,1.8c-0.5,0.7-0.8,1.5-0.8,2.4c0,2.1,0,4.2,0,6.4c0.7,0,1.4,0,2.1,0c0-0.6,0-1.2,0-1.8
			c0-0.8,0.5-1.2,1.2-1.2c0.7,0,1.1,0.5,1.1,1.2C349.8,185.7,349.7,186.3,349.7,186.9L349.7,186.9z M350.4,169.2
			c0,3.1,2.4,5.4,5.4,5.4c3,0,5.2-2.5,5.2-5.6c0-2.9-2.4-5.3-5.3-5.3C352.7,163.7,350.4,166.2,350.4,169.2z"/>
		<path class="st32" d="M363.6,157.7c-0.7,0-1.3,0-1.9,0c0-1.1,0-2.2,0-3.3c0-0.8-0.2-1.1-0.8-1.1c-0.6,0-0.8,0.4-0.8,1.1
			c0,1.1,0,2.2,0,3.3c-2.9,0-5.8,0-8.7,0c0-1.1,0-2.2,0-3.3c0-0.8-0.3-1.1-0.8-1.1c-0.6,0-0.8,0.3-0.8,1.1c0,1.1,0,2.2,0,3.3
			c-0.7,0-1.4,0-2.1,0c0-0.2,0-0.3,0-0.5c0-2.3,0-4.5,0.1-6.8c0.1-1.6,1.4-2.8,3-2.8c3.3,0,6.6,0,10,0c1.6,0,2.9,1.3,3,2.9
			C363.7,152.9,363.6,155.3,363.6,157.7z"/>
		<path class="st32" d="M361.6,186.9c0,3.4,0,6.9,0,10.4c-4,0-7.9,0-11.9,0c0-3.5,0-6.9,0-10.4l0,0
			C353.7,186.9,357.7,186.9,361.6,186.9L361.6,186.9z"/>
		<path class="st32" d="M333.6,181.1c-0.8,0-1.5,0.1-2.3,0c-1.2-0.1-2.2-1.2-2.3-2.3c0-0.2,0-0.5,0-0.7c0-3.8,0-7.6,0-11.4
			c0-1.9,1.1-3.1,3.1-3.1c0.8,0,1.6,0,2.4,0.1c1.1,0.2,1.9,1.2,2,2.3c0.1,2,0.1,3.9,0,5.9c-0.1,1.1-0.6,2.2-0.9,3.3
			C334.8,177.3,334.2,179.2,333.6,181.1z"/>
		<path class="st32" d="M381.7,172.5c0,1.9,0,3.7,0,5.6c0,2.1-1.1,3.1-3.1,3.1c-1.1,0-1.1,0-1.4-1c-0.9-2.8-1.7-5.6-2.6-8.4
			c-0.2-0.8-0.3-1.6-0.4-2.5c-0.1-0.9,0-1.8,0-2.7c0-1.7,1.2-2.9,2.9-2.9c0.5,0,1.1,0,1.6,0c1.8,0,3,1.1,3,3
			C381.7,168.6,381.7,170.5,381.7,172.5z"/>
		<path class="st32" d="M355.5,146.4c-2.3-0.1-4.1-2-4-4.2c0.1-2.3,1.9-4,4.3-4c2.2,0,4,2,3.9,4.2
			C359.6,144.7,357.8,146.5,355.5,146.4z"/>
		<path class="st32" d="M332.7,154.7c2.2,0,3.9,1.7,3.9,3.8c0,2.1-1.7,3.8-3.9,3.8c-2.2,0-3.8-1.7-3.8-3.9
			C328.8,156.4,330.5,154.7,332.7,154.7z"/>
		<path class="st32" d="M378,154.7c2.1,0,3.8,1.7,3.8,3.8c0,2.1-1.7,3.9-3.9,3.9c-2.1,0-3.8-1.7-3.8-3.8
			C374.2,156.4,375.9,154.7,378,154.7z"/>
		<path class="st40" d="M361.6,186.9c-4,0-7.9,0-11.9,0c0-0.6,0-1.2,0-1.9c0-0.7-0.5-1.2-1.1-1.2c-0.7,0-1.1,0.4-1.2,1.2
			c0,0.6,0,1.2,0,1.8c-0.7,0-1.4,0-2.1,0c0-2.1,0-4.3,0-6.4c0-0.9,0.3-1.7,0.8-2.4c0.9-1.3,2.2-1.8,3.8-1.8c3.9,0,7.8,0,11.7,0
			c2.9,0,4.5,1.8,4.5,4.6c0,2,0,4,0,6c-0.7,0-1.3,0-2.1,0c0-0.5,0-1,0-1.5c0-1-0.4-1.5-1.1-1.5c-0.8,0-1.2,0.5-1.2,1.5
			C361.6,185.9,361.6,186.4,361.6,186.9z"/>
		<path class="st40" d="M350.4,169.2c0-3,2.3-5.5,5.3-5.5c2.9,0,5.3,2.4,5.3,5.3c0,3.1-2.3,5.6-5.2,5.6
			C352.8,174.6,350.4,172.3,350.4,169.2z"/>
	</g>
	<g>
		<path class="st32" d="M405.2,170.2l2.6,0.4c-0.3,1-0.9,1.7-1.6,2.2c-0.7,0.5-1.6,0.8-2.7,0.8c-1.7,0-3-0.6-3.8-1.7
			c-0.7-0.9-1-2-1-3.4c0-1.6,0.4-2.9,1.3-3.9s1.9-1.4,3.3-1.4c1.5,0,2.6,0.5,3.5,1.5s1.3,2.5,1.2,4.5h-6.6c0,0.8,0.2,1.4,0.6,1.8
			c0.4,0.4,0.9,0.6,1.5,0.6c0.4,0,0.8-0.1,1-0.3S405,170.7,405.2,170.2z M405.3,167.5c0-0.8-0.2-1.3-0.6-1.7s-0.8-0.6-1.4-0.6
			c-0.6,0-1,0.2-1.4,0.6c-0.4,0.4-0.6,1-0.6,1.7H405.3z"/>
		<path class="st32" d="M410.1,173.3v-13.7h4.1l2.5,9.3l2.5-9.3h4.1v13.7h-2.6v-10.8l-2.7,10.8h-2.7l-2.7-10.8v10.8H410.1z"/>
		<path class="st32" d="M431.8,170.2l2.6,0.4c-0.3,1-0.9,1.7-1.6,2.2c-0.7,0.5-1.6,0.8-2.7,0.8c-1.7,0-3-0.6-3.8-1.7
			c-0.7-0.9-1-2-1-3.4c0-1.6,0.4-2.9,1.3-3.9s1.9-1.4,3.3-1.4c1.5,0,2.6,0.5,3.5,1.5s1.3,2.5,1.2,4.5h-6.6c0,0.8,0.2,1.4,0.6,1.8
			c0.4,0.4,0.9,0.6,1.5,0.6c0.4,0,0.8-0.1,1-0.3S431.6,170.7,431.8,170.2z M431.9,167.5c0-0.8-0.2-1.3-0.6-1.7s-0.8-0.6-1.4-0.6
			c-0.6,0-1,0.2-1.4,0.6c-0.4,0.4-0.6,1-0.6,1.7H431.9z"/>
		<path class="st32" d="M442.4,170.2l2.6,0.4c-0.3,1-0.9,1.7-1.6,2.2c-0.7,0.5-1.6,0.8-2.7,0.8c-1.7,0-3-0.6-3.8-1.7
			c-0.7-0.9-1-2-1-3.4c0-1.6,0.4-2.9,1.3-3.9s1.9-1.4,3.3-1.4c1.5,0,2.6,0.5,3.5,1.5s1.3,2.5,1.2,4.5h-6.6c0,0.8,0.2,1.4,0.6,1.8
			c0.4,0.4,0.9,0.6,1.5,0.6c0.4,0,0.8-0.1,1-0.3S442.3,170.7,442.4,170.2z M442.5,167.5c0-0.8-0.2-1.3-0.6-1.7s-0.8-0.6-1.4-0.6
			c-0.6,0-1,0.2-1.4,0.6c-0.4,0.4-0.6,1-0.6,1.7H442.5z"/>
		<path class="st32" d="M451.8,163.4v2.1H450v4c0,0.8,0,1.3,0.1,1.4s0.1,0.2,0.2,0.3c0.1,0.1,0.3,0.1,0.4,0.1c0.2,0,0.6-0.1,1.1-0.3
			l0.2,2c-0.6,0.3-1.3,0.4-2.1,0.4c-0.5,0-0.9-0.1-1.3-0.2c-0.4-0.2-0.7-0.4-0.8-0.6c-0.2-0.3-0.3-0.6-0.4-1
			c-0.1-0.3-0.1-0.9-0.1-1.8v-4.3h-1.2v-2.1h1.2v-2l2.6-1.5v3.5H451.8z"/>
		<path class="st32" d="M453.7,162.1v-2.4h2.6v2.4H453.7z M453.7,173.3v-9.9h2.6v9.9H453.7z"/>
		<path class="st32" d="M468,173.3h-2.6v-5.1c0-1.1-0.1-1.8-0.2-2.1s-0.3-0.6-0.5-0.7c-0.3-0.2-0.6-0.3-0.9-0.3
			c-0.5,0-0.9,0.1-1.2,0.4c-0.4,0.2-0.6,0.6-0.7,1s-0.2,1.2-0.2,2.3v4.5H459v-9.9h2.4v1.5c0.9-1.1,2-1.7,3.3-1.7
			c0.6,0,1.1,0.1,1.6,0.3s0.8,0.5,1.1,0.8c0.2,0.3,0.4,0.7,0.5,1.1c0.1,0.4,0.1,1,0.1,1.8V173.3z"/>
		<path class="st32" d="M470.4,174l3,0.4c0,0.3,0.2,0.6,0.3,0.7c0.2,0.2,0.6,0.3,1.2,0.3c0.7,0,1.2-0.1,1.5-0.3
			c0.2-0.1,0.4-0.4,0.5-0.7c0.1-0.2,0.1-0.6,0.1-1.2v-1.4c-0.8,1.1-1.8,1.6-3,1.6c-1.3,0-2.4-0.6-3.2-1.7c-0.6-0.9-0.9-2-0.9-3.3
			c0-1.7,0.4-2.9,1.2-3.8c0.8-0.9,1.8-1.3,3-1.3c1.2,0,2.2,0.5,3,1.6v-1.4h2.5v8.9c0,1.2-0.1,2-0.3,2.6c-0.2,0.6-0.5,1-0.8,1.4
			s-0.8,0.6-1.4,0.8s-1.3,0.3-2.2,0.3c-1.7,0-2.9-0.3-3.6-0.9c-0.7-0.6-1.1-1.3-1.1-2.2C470.4,174.2,470.4,174.1,470.4,174z
			 M472.8,168.2c0,1.1,0.2,1.8,0.6,2.3c0.4,0.5,0.9,0.7,1.5,0.7c0.6,0,1.2-0.3,1.6-0.8c0.4-0.5,0.7-1.2,0.7-2.2c0-1-0.2-1.8-0.6-2.3
			c-0.4-0.5-1-0.7-1.6-0.7c-0.6,0-1.1,0.2-1.6,0.7C473,166.4,472.8,167.2,472.8,168.2z"/>
	</g>
	<g>
		<g class="st1">
			<path class="st2" d="M308.6,268.5c0-16,13-29,29-29h178.6c16,0,29,13,29,29v44.3c0,16-13,29-29,29H357.7h-11.9
				c-19.8,0-35.9,15.4-37.2,34.8V268.5z"/>
			<path class="st3" d="M308.6,267.7c0-13.1,8.7-24.2,20.6-27.8c2.6-0.8,5.9-1.3,8.8-1.3h143.1c0.6,0,36.5,0.5,36.5,1.1
				c15.4,0,27.9,13.4,27.9,28.8v43.4c0,16-13,29-29,29H357.8h-2.4h-9.5c-0.6,0-1.3,0-1.9,0c-18.9,0.9-34.1,15.9-35.3,34.7v-60.9
				l0-0.1c0,0,0-2.7,0-2.8V267.7z"/>
			<path class="st4" d="M308.6,266.8c0-13.2,8.9-24.4,21-27.8c2.5-0.8,6.1-1.2,8.9-1.2H483c1.2,0,36.2,1,36.2,2.2
				c14.8,0,26.8,13.7,26.8,28.5v42.5c0,16-13,29-29,29h-159h-2.4H346c-0.6,0-1.4,0-1.9,0c-18.9,0.9-34.1,15.9-35.4,34.7V314l0-0.1
				c0-0.1,0-2.7,0-2.8V266.8z"/>
			<path class="st5" d="M308.6,266c0-13.3,9.1-24.6,21.3-27.9c2.4-0.8,6.3-1.2,9-1.2h145.8c1.9,0,35.9,1.5,35.9,3.4
				c14.2,0,25.7,14.1,25.7,28.3v41.7c0,16-13,29-29,29H358h-2.4h-9.5c-0.6,0-1.4,0-1.9,0c-19,0.9-34.2,15.9-35.5,34.7v-60.9l0-0.1
				c0-0.1,0-2.7,0-2.8V266z"/>
			<path class="st6" d="M308.6,265.1c0-13.5,9.2-24.8,21.7-27.9c2.3-0.7,6.5-1.1,9.1-1.1h147.1c2.5,0,35.6,2,35.6,4.5
				c13.6,0,24.6,14.5,24.6,28v40.8c0,16-13,29-29,29H358.1h-2.4h-9.6c-0.5,0-1.4,0-2,0c-19,0.8-34.3,15.9-35.6,34.7v-60.9l0-0.1
				c0-0.1,0-2.6,0-2.8V265.1z"/>
			<path class="st7" d="M308.6,264.3c0-13.6,9.4-25,22-28c2.2-0.7,6.7-1.1,9.2-1.1h148.4c3.1,0,35.3,2.5,35.3,5.6
				c13,0,23.5,14.8,23.5,27.8v39.9c0,16-13,29-29,29H358.2h-2.4h-9.6c-0.5,0-1.4,0-2,0c-19,0.8-34.4,15.8-35.6,34.7v-60.9l0-0.1
				c0-0.2,0-2.6,0-2.8V264.3z"/>
			<path class="st8" d="M308.6,263.4c0-13.7,9.6-25.2,22.3-28c2.1-0.7,6.9-1,9.2-1h149.7c3.7,0,35,3,35,6.7
				c12.3,0,22.3,15.2,22.3,27.5v39.1c0,16-13,29-29,29H358.3h-2.4h-9.6c-0.5,0-1.5,0-2,0c-19.1,0.7-34.4,15.8-35.7,34.7v-61l0-0.1
				c0-0.2,0-2.5,0-2.8V263.4z"/>
			<path class="st9" d="M308.6,262.6c0-13.8,9.7-25.4,22.7-28.1c2-0.6,7.1-1,9.3-1h151c4.3,0,34.7,3.5,34.7,7.8
				c11.7,0,21.2,15.6,21.2,27.3v38.2c0,16-13,29-29,29H358.4H356h-9.6c-0.5,0-1.5,0-2,0c-19.1,0.7-34.5,15.8-35.8,34.7v-61l0-0.1
				c0-0.2,0-2.5,0-2.8V262.6z"/>
			<path class="st10" d="M308.6,261.7c0-13.9,9.9-25.6,23-28.1c1.9-0.6,7.3-0.9,9.4-0.9h152.4c4.9,0,34.4,4,34.4,8.9
				c11.1,0,20.1,15.9,20.1,27V306c0,16-13,29-29,29H358.5h-2.4h-9.6c-0.4,0-1.5,0-2,0c-19.1,0.7-34.6,15.8-35.9,34.7v-61l0-0.1
				c0-0.3,0-2.5,0-2.8V261.7z"/>
			<path class="st11" d="M308.6,260.9c0-14,10.1-25.7,23.3-28.2c1.8-0.6,7.5-0.9,9.5-0.9h153.7c5.6,0,34.1,4.5,34.1,10.1
				c10.5,0,19,16.3,19,26.8v36.5c0,16-13,29-29,29H358.6h-2.4h-9.6c-0.4,0-1.6,0-2,0c-19.2,0.6-34.6,15.7-35.9,34.7v-61l0-0.1
				c0-0.3,0-2.4,0-2.8V260.9z"/>
			<path class="st12" d="M308.6,260c0-14.2,10.3-25.9,23.7-28.2c1.7-0.5,7.7-0.8,9.6-0.8h155c6.2,0,33.8,5,33.8,11.2
				c9.9,0,17.9,16.7,17.9,26.5v35.6c0,16-13,29-29,29H358.7h-2.4h-9.6c-0.4,0-1.6,0-2,0c-19.2,0.6-34.7,15.7-36,34.7v-61l0.1-0.1
				c0-0.4-0.1-2.4-0.1-2.8V260z"/>
			<path class="st13" d="M308.6,259.1c0-14.3,10.4-26.1,24-28.3c1.6-0.5,7.9-0.8,9.7-0.8h156.3c6.8,0,33.5,5.5,33.5,12.3
				c9.3,0,16.8,17,16.8,26.3v34.7c0,16-13,29-29,29H358.8h-2.4h-9.6c-0.4,0-1.6,0-2,0c-19.2,0.6-34.8,15.7-36.1,34.7v-61l0.1-0.1
				c0-0.4-0.1-2.4-0.1-2.8V259.1z"/>
			<path class="st14" d="M308.6,258.3c0-14.4,10.6-26.3,24.3-28.3c1.5-0.5,8.1-0.7,9.8-0.7h157.6c7.4,0,33.2,6,33.2,13.4
				c8.6,0,15.6,17.4,15.6,26v33.9c0,16-13,29-29,29H358.9h-2.4h-9.7c-0.3,0-1.6,0-2,0c-19.3,0.5-34.9,15.7-36.2,34.7v-61l0.1-0.1
				c0-0.4-0.1-2.3-0.1-2.8V258.3z"/>
			<path class="st15" d="M308.6,257.4c0-14.5,10.8-26.5,24.7-28.4c1.4-0.4,8.3-0.7,9.9-0.7h158.9c8,0,32.9,6.5,32.9,14.5
				c8,0,14.5,17.8,14.5,25.8v33c0,16-13,29-29,29H359h-2.4h-9.7c-0.3,0-1.7,0-2,0c-19.3,0.5-34.9,15.6-36.2,34.7v-61l0.1,0
				c0-0.5-0.1-2.3-0.1-2.8V257.4z"/>
			<path class="st16" d="M308.7,256.6c0-14.6,10.9-26.7,25-28.4c1.3-0.4,8.5-0.6,9.9-0.6h160.2c8.6,0,32.6,7,32.6,15.6
				c7.4,0,13.4,18.1,13.4,25.5v32.1c0,16-13,29-29,29H359.1h-2.4H347c-0.3,0-1.7,0-2,0c-19.3,0.4-35,15.6-36.3,34.7v-61l0.1,0
				c0-0.5-0.1-2.3-0.1-2.8V256.6z"/>
			<path class="st17" d="M308.7,255.7c0-14.8,11.1-26.9,25.3-28.5c1.2-0.4,8.7-0.6,10-0.6h161.6c9.3,0,32.3,7.5,32.3,16.8
				c6.8,0,12.3,18.5,12.3,25.3V300c0,16-13,29-29,29h-162h-2.4H347c-0.3,0-1.7,0-2,0c-19.4,0.4-35.1,15.6-36.4,34.8v-61l0.1,0
				c-0.1-0.5-0.1-2.2-0.1-2.8V255.7z"/>
			<path class="st18" d="M308.7,254.9c0-14.9,11.3-27.1,25.7-28.5c1.1-0.3,8.9-0.5,10.1-0.5h162.9c9.9,0,32,8,32,17.9
				c6.2,0,11.2,18.9,11.2,25v30.4c0,16-13,29-29,29H359.3h-2.4h-9.7c-0.2,0-1.8,0-2,0c-19.4,0.4-35.2,15.6-36.5,34.8v-61l0.1,0
				c-0.1-0.6-0.1-2.2-0.1-2.8V254.9z"/>
			<path class="st19" d="M308.7,254c0-15,11.5-27.3,26-28.6c1-0.3,9.1-0.5,10.2-0.5h164.2c10.5,0,31.7,8.5,31.7,19
				c5.6,0,10.1,19.2,10.1,24.8v29.5c0,16-13,29-29,29H359.4h-2.4h-9.7c-0.2,0-1.8,0-2,0c-19.4,0.3-35.2,15.6-36.5,34.8v-61l0.1,0
				c-0.1-0.6-0.1-2.2-0.1-2.8V254z"/>
			<path class="st20" d="M308.7,253.2c0-15.1,11.6-27.5,26.4-28.6c0.8-0.3,9.3-0.4,10.3-0.4h165.5c11.1,0,31.4,9,31.4,20.1
				c4.9,0,8.9,19.6,8.9,24.5v28.7c0,16-13,29-29,29H359.5H357h-9.7c-0.2,0-1.8,0-2,0c-19.5,0.3-35.3,15.5-36.6,34.8v-61l0.1,0
				c-0.1-0.6-0.1-2.1-0.1-2.8V253.2z"/>
			<path class="st21" d="M308.7,252.3c0-15.2,11.8-27.7,26.7-28.7c0.7-0.2,9.6-0.4,10.4-0.4h166.8c11.7,0,31.1,9.5,31.1,21.2
				c4.3,0,7.8,19.9,7.8,24.3v27.8c0,16-13,29-29,29H359.6h-2.5h-9.8c-0.2,0-1.8,0-2,0c-19.5,0.3-35.4,15.5-36.7,34.8v-61l0.1,0
				c-0.1-0.7-0.1-2.1-0.1-2.8V252.3z"/>
			<path class="st22" d="M308.7,251.5c0-15.3,12-27.9,27-28.7c0.6-0.2,9.8-0.3,10.5-0.3h168.1c12.3,0,30.8,10,30.8,22.3
				c3.7,0,6.7,20.3,6.7,24v26.9c0,16-13,29-29,29H359.7h-2.5h-9.8c-0.1,0-1.9,0-2,0c-19.5,0.2-35.4,15.5-36.8,34.8v-61l0.1,0
				c-0.1-0.7-0.1-2-0.1-2.8V251.5z"/>
			<path class="st23" d="M308.7,250.6c0-15.5,12.1-28.1,27.4-28.8c0.5-0.2,10-0.3,10.5-0.3H516c13,0,30.5,10.5,30.5,23.5
				c3.1,0,5.6,20.7,5.6,23.8v26.1c0,16-13,29-29,29H359.8h-2.5h-9.8c-0.1,0-1.9,0-2,0c-19.6,0.2-35.5,15.5-36.8,34.8v-61l0.1,0
				c-0.1-0.7-0.1-2-0.1-2.8V250.6z"/>
			<path class="st24" d="M308.7,249.8c0-15.6,12.3-28.3,27.7-28.8c0.4-0.1,10.2-0.2,10.6-0.2h170.8c13.6,0,30.2,11,30.2,24.6
				c2.5,0,4.5,21,4.5,23.5V294c0,16-13,29-29,29H359.9h-2.5h-9.8c-0.1,0-1.9,0-2,0c-19.6,0.1-35.6,15.4-36.9,34.8v-61l0.1,0
				c-0.1-0.8-0.1-2-0.1-2.8V249.8z"/>
			<path class="st25" d="M308.7,248.9c0-15.7,12.5-28.5,28-28.9c0.3-0.1,10.4-0.2,10.7-0.2h172.1c14.2,0,29.9,11.5,29.9,25.7
				c1.9,0,3.4,21.4,3.4,23.3v24.3c0,16-13,29-29,29H360h-2.5h-9.8c-0.1,0-2,0-2,0c-19.7,0.1-35.7,15.4-37,34.8v-61l0.1,0
				c-0.1-0.8-0.1-1.9-0.1-2.8V248.9z"/>
			<path class="st26" d="M308.7,248.1c0-15.8,12.7-28.7,28.4-28.9c0.2-0.1,10.6-0.1,10.8-0.1h173.4c14.8,0,29.6,12,29.6,26.8
				c1.2,0,2.2,21.8,2.2,23v23.5c0,16-13,29-29,29h-164h-2.5h-9.8c0,0-2,0-2,0c-19.7,0.1-35.7,15.4-37.1,34.8v-61l0.1,0
				c-0.1-0.8-0.1-1.9-0.1-2.8V248.1z"/>
			<path class="st27" d="M308.7,247.2c0-15.9,12.8-28.8,28.7-29c0.1,0,10.8-0.1,10.9-0.1H523c15.4,0,29.3,12.5,29.3,27.9
				c0.6,0,1.1,22.1,1.1,22.8v22.6c0,16-13,29-29,29H360.1h-2.5h-9.8c0,0-2,0-2,0c-19.7,0-35.8,15.4-37.1,34.8v-61l0.1,0
				c-0.1-0.9-0.1-1.9-0.1-2.8V247.2z"/>
			<path class="st28" d="M308.7,246.3c0-16,13-29,29-29h187c16,0,29,13,29,29v44.3c0,16-13,29-29,29H357.8h-11.9
				c-19.8,0-35.9,15.4-37.2,34.8v-61h0.1c-0.1-0.9-0.1-1.8-0.1-2.8V246.3z"/>
		</g>
		<path class="st41" d="M308.3,249.3c0-14.8,12-26.7,26.7-26.7h192.7c14.8,0,26.8,12,26.8,26.7v40.8c0,14.8-12,26.7-26.8,26.7h1
			H342.5c-18.2,0-33.1,14.1-34.3,32v-56.2h0.1c-0.1-0.8-0.1-1.7-0.1-2.6V249.3z"/>
		<path class="st42" d="M308.3,244.6c0-14.8,12-26.7,26.7-26.7h192.7c14.8,0,26.8,12,26.8,26.7v40.8c0,14.8-12,26.8-26.8,26.8h1
			H342.5c-18.2,0-33.1,14.1-34.3,32v-56.2h0.1c-0.1-0.8-0.1-1.7-0.1-2.6V244.6z"/>
	</g>
	<g id="projector_1_">
		<g class="st43">
			<path class="st32" d="M351,264.2c0.6-1.1,1.8-1.8,3.1-1.8h16.4v1.8H351z M370.6,266h-20.1v1.8h20.1V266z M370.6,269.6h-20.1v1.8
				h20.1V269.6z M351,273.3c0.6,1.1,1.8,1.8,3.1,1.8h16.4v-1.8H351z"/>
		</g>
		<g>
			<path class="st32" d="M391,255.1c-2.2-2.3-5.2-3.7-8.6-3.7c-3.4,0-6.4,1.4-8.5,3.6h-23.4c-2,0-3.6,1.6-3.6,3.6v20.1
				c0,2,1.6,3.6,3.6,3.6v1.8l2.7,1.8l2.7-1.8v-1.8h29.2v1.8l2.7,1.8l2.7-1.8v-1.8c2,0,3.6-1.6,3.6-3.6v-20.1
				C394.3,256.8,392.8,255.3,391,255.1z M370.6,275.1h-16.4c-1.3,0-2.5-0.7-3.1-1.8h19.6V275.1z M370.6,271.5h-20.1v-1.8h20.1V271.5
				z M370.6,267.8h-20.1V266h20.1V267.8z M370.6,264.2H351c0.6-1.1,1.8-1.8,3.1-1.8h16.4V264.2z M382.4,271.3c-4.4,0-8-3.6-8-8
				s3.6-8,8-8s8,3.6,8,8S386.9,271.3,382.4,271.3z"/>
		</g>
		<g class="st33">
			<g>
				<path class="st32" d="M382.4,257.1c-0.8,0-1.5,0.2-2.2,0.4c0.7,0.5,1.1,1.2,1.1,2.1c0,1.4-1.1,2.6-2.6,2.6
					c-0.9,0-1.7-0.5-2.1-1.1c-0.3,0.7-0.4,1.4-0.4,2.2c0,3.4,2.8,6.2,6.2,6.2c3.4,0,6.2-2.8,6.2-6.2
					C388.6,259.8,385.9,257.1,382.4,257.1z"/>
			</g>
		</g>
		<g class="st33">
			<path class="st32" d="M376.2,249.2l-5-5l1.3-1.3l5.5,5.5C377.4,248.7,376.8,248.9,376.2,249.2z M388.6,249.2l5-5l-1.3-1.3
				l-5.5,5.5C387.4,248.7,388,248.9,388.6,249.2z M383.3,247.8v-7.3h-1.8v7.3C381.8,247.8,383,247.8,383.3,247.8z M373.1,251.4h-6.2
				v1.8h4.6C372,252.6,372.5,252,373.1,251.4z M391.7,251.4c0.6,0.6,1.2,1.2,1.6,1.8h4.6v-1.8H391.7z"/>
		</g>
	</g>
	<g>
		<path class="st32" d="M422.3,269.6l2.9,0.5c-0.4,1.1-1,1.9-1.8,2.4c-0.8,0.6-1.8,0.8-3,0.8c-1.9,0-3.3-0.6-4.2-1.9
			c-0.7-1-1.1-2.2-1.1-3.8c0-1.8,0.5-3.2,1.4-4.2c0.9-1,2.1-1.5,3.6-1.5c1.6,0,2.9,0.5,3.8,1.6c0.9,1.1,1.4,2.7,1.3,4.9h-7.2
			c0,0.9,0.3,1.5,0.7,2c0.4,0.5,1,0.7,1.7,0.7c0.5,0,0.8-0.1,1.1-0.4C421.9,270.6,422.1,270.2,422.3,269.6z M422.5,266.7
			c0-0.8-0.2-1.5-0.6-1.9s-0.9-0.7-1.5-0.7c-0.6,0-1.2,0.2-1.6,0.7c-0.4,0.5-0.6,1.1-0.6,1.9H422.5z"/>
		<path class="st32" d="M426.9,268.2l3-0.3c0.2,1,0.5,1.7,1.1,2.2c0.5,0.5,1.3,0.7,2.2,0.7c1,0,1.7-0.2,2.2-0.6
			c0.5-0.4,0.7-0.9,0.7-1.5c0-0.4-0.1-0.7-0.3-0.9s-0.6-0.5-1.1-0.7c-0.4-0.1-1.2-0.3-2.4-0.7c-1.6-0.4-2.8-0.9-3.4-1.5
			c-0.9-0.8-1.4-1.8-1.4-3c0-0.8,0.2-1.5,0.7-2.2c0.4-0.7,1.1-1.2,1.9-1.5c0.8-0.3,1.8-0.5,3-0.5c1.9,0,3.3,0.4,4.3,1.2
			c1,0.8,1.5,1.9,1.5,3.3l-3,0.1c-0.1-0.8-0.4-1.3-0.8-1.7c-0.4-0.3-1.1-0.5-1.9-0.5c-0.9,0-1.6,0.2-2.1,0.5
			c-0.3,0.2-0.5,0.5-0.5,0.9c0,0.4,0.2,0.7,0.5,0.9c0.4,0.3,1.3,0.7,2.8,1c1.5,0.3,2.6,0.7,3.3,1.1s1.3,0.9,1.7,1.5
			c0.4,0.6,0.6,1.4,0.6,2.4c0,0.9-0.2,1.7-0.7,2.4c-0.5,0.8-1.2,1.3-2,1.7s-2,0.5-3.3,0.5c-1.9,0-3.4-0.4-4.4-1.3
			C427.7,271.2,427.1,269.9,426.9,268.2z"/>
		<path class="st32" d="M448,269.6l2.9,0.5c-0.4,1.1-1,1.9-1.8,2.4c-0.8,0.6-1.8,0.8-3,0.8c-1.9,0-3.3-0.6-4.2-1.9
			c-0.7-1-1.1-2.2-1.1-3.8c0-1.8,0.5-3.2,1.4-4.2c0.9-1,2.1-1.5,3.6-1.5c1.6,0,2.9,0.5,3.8,1.6c0.9,1.1,1.4,2.7,1.3,4.9h-7.2
			c0,0.9,0.3,1.5,0.7,2c0.4,0.5,1,0.7,1.7,0.7c0.5,0,0.8-0.1,1.1-0.4C447.6,270.6,447.9,270.2,448,269.6z M448.2,266.7
			c0-0.8-0.2-1.5-0.6-1.9s-0.9-0.7-1.5-0.7c-0.6,0-1.2,0.2-1.6,0.7c-0.4,0.5-0.6,1.1-0.6,1.9H448.2z"/>
		<path class="st32" d="M453.2,262.2h2.7v1.5c1-1.2,2.1-1.7,3.4-1.7c0.7,0,1.3,0.1,1.8,0.4c0.5,0.3,0.9,0.7,1.3,1.3
			c0.5-0.6,1-1,1.6-1.3c0.6-0.3,1.1-0.4,1.8-0.4c0.8,0,1.5,0.2,2,0.5c0.6,0.3,1,0.8,1.2,1.4c0.2,0.5,0.3,1.2,0.3,2.3v7h-2.9v-6.2
			c0-1.1-0.1-1.8-0.3-2.1c-0.3-0.4-0.7-0.6-1.2-0.6c-0.4,0-0.8,0.1-1.1,0.4c-0.4,0.2-0.6,0.6-0.8,1.1c-0.2,0.5-0.2,1.2-0.2,2.3v5.2
			h-2.9v-6c0-1.1-0.1-1.7-0.2-2.1c-0.1-0.3-0.3-0.5-0.5-0.7c-0.2-0.2-0.5-0.2-0.9-0.2c-0.4,0-0.8,0.1-1.2,0.4
			c-0.4,0.2-0.6,0.6-0.8,1s-0.2,1.2-0.2,2.3v5.3h-2.9V262.2z"/>
		<path class="st32" d="M472.1,260.7V258h2.9v2.7H472.1z M472.1,273.1v-10.9h2.9v10.9H472.1z"/>
		<path class="st32" d="M487.9,273.1H485v-5.6c0-1.2-0.1-1.9-0.2-2.3c-0.1-0.3-0.3-0.6-0.6-0.8c-0.3-0.2-0.6-0.3-1-0.3
			c-0.5,0-0.9,0.1-1.3,0.4c-0.4,0.3-0.7,0.6-0.8,1.1s-0.2,1.3-0.2,2.5v4.9H478v-10.9h2.7v1.6c1-1.2,2.2-1.8,3.6-1.8
			c0.6,0,1.2,0.1,1.7,0.3s0.9,0.5,1.2,0.9c0.3,0.4,0.5,0.8,0.6,1.2s0.2,1.1,0.2,1.9V273.1z"/>
		<path class="st32" d="M493,265.5l-2.6-0.5c0.3-1.1,0.8-1.8,1.5-2.3c0.7-0.5,1.8-0.8,3.2-0.8c1.3,0,2.2,0.2,2.9,0.5
			s1.1,0.7,1.3,1.2c0.3,0.5,0.4,1.3,0.4,2.6l0,3.4c0,1,0,1.7,0.1,2.1c0.1,0.5,0.3,0.9,0.5,1.5h-2.9c-0.1-0.2-0.2-0.5-0.3-0.9
			c0-0.2-0.1-0.3-0.1-0.3c-0.5,0.5-1,0.8-1.6,1.1c-0.6,0.2-1.2,0.4-1.8,0.4c-1.1,0-2-0.3-2.7-0.9s-1-1.4-1-2.3
			c0-0.6,0.1-1.2,0.4-1.6c0.3-0.5,0.7-0.9,1.2-1.1c0.5-0.3,1.3-0.5,2.3-0.7c1.3-0.3,2.3-0.5,2.8-0.7v-0.3c0-0.6-0.1-1-0.4-1.2
			c-0.3-0.2-0.8-0.4-1.6-0.4c-0.5,0-0.9,0.1-1.2,0.3C493.4,264.7,493.2,265,493,265.5z M496.8,267.9c-0.4,0.1-1,0.3-1.8,0.4
			c-0.8,0.2-1.3,0.3-1.6,0.5c-0.4,0.3-0.6,0.6-0.6,1c0,0.4,0.2,0.8,0.5,1c0.3,0.3,0.7,0.4,1.2,0.4c0.5,0,1-0.2,1.5-0.5
			c0.3-0.3,0.6-0.6,0.7-1c0.1-0.2,0.1-0.7,0.1-1.4V267.9z"/>
		<path class="st32" d="M505.3,273.1h-2.9v-10.9h2.7v1.6c0.5-0.7,0.9-1.2,1.2-1.4c0.4-0.2,0.8-0.3,1.2-0.3c0.7,0,1.3,0.2,1.9,0.5
			l-0.9,2.5c-0.5-0.3-0.9-0.5-1.4-0.5c-0.4,0-0.7,0.1-1,0.3c-0.3,0.2-0.5,0.6-0.7,1.2c-0.2,0.6-0.2,1.8-0.2,3.7V273.1z"/>
	</g>
	<g>
		<rect x="275.9" y="539" class="st44" width="78.6" height="34.4"/>
		<path class="st45" d="M447.2,511.3V348.4c0-7.1-5.7-12.8-12.8-12.8h-238c-7.1,0-12.8,5.7-12.8,12.8v162.8H447.2z"/>
		<path class="st46" d="M183.6,511.3v15c0,7.1,5.7,12.8,12.8,12.8h238c7.1,0,12.8-5.7,12.8-12.8v-15H183.6z"/>
		<rect x="195.4" y="348.4" width="239.9" height="152.4"/>
		<path class="st46" d="M429.8,500.8V359.6c0-3.2-2.6-5.8-5.8-5.8H206.3c-3.2,0-5.8,2.6-5.8,5.8v141.2H429.8z"/>
		<path class="st47" d="M429.8,369.4v-9.8c0-3.2-2.6-5.8-5.8-5.8H206.3c-3.2,0-5.8,2.6-5.8,5.8v9.8H429.8z"/>
		<rect x="200.6" y="367.7" class="st48" width="229.2" height="1.7"/>
		<circle class="st49" cx="208.1" cy="361.7" r="1.6"/>
		<circle class="st50" cx="213.4" cy="361.7" r="1.6"/>
		<circle class="st51" cx="218.6" cy="361.7" r="1.6"/>
		<circle cx="315.2" cy="525.1" r="7.1"/>
		<rect x="258.8" y="566.5" class="st45" width="113.2" height="13.9"/>
		<g>
			<g>
				<defs>
					<rect id="SVGID_2_" x="264.4" y="396.3" width="95.5" height="85.5"/>
				</defs>
				<clipPath id="SVGID_3_">
					<use xlink:href="#SVGID_2_"  style="overflow:visible;"/>
				</clipPath>
				<path class="st52" d="M267.2,458.8c21.2,0.6,35.8,8.1,42.6,12.6c0,0,0.6,0.4,2.3,1.6c1.7-1.2,2.3-1.6,2.3-1.6
					c6.9-4.5,21.4-12,42.6-12.6c1.5,0,2.8-1.3,2.8-2.8v-56.8c0-1.6-1.3-2.9-2.9-2.8c-23.8,0.7-39.3,10.2-44.8,14.2
					c-5.5-4-20.9-13.4-44.8-14.2c-1.6,0-2.9,1.2-2.9,2.8v56.8C264.5,457.5,265.7,458.7,267.2,458.8L267.2,458.8z M314.6,414.5
					c1.9-1.4,5.5-3.8,10.6-6.2c4.6-2.1,9.5-3.8,14.7-5.1c4.9-1.2,10.1-1.9,15.3-2.2v53c-6.1,0.3-12,1.1-17.8,2.5
					c-5.8,1.4-11.4,3.4-16.6,5.8c-2.3,1.1-4.4,2.2-6.2,3.3V414.5z M269.2,401.1c5.2,0.3,10.4,1,15.3,2.2c5.1,1.2,10.1,2.9,14.7,5.1
					c5.1,2.4,8.7,4.8,10.6,6.2v51.2c-1.8-1-3.8-2.2-6.2-3.3c-5.2-2.5-10.8-4.4-16.6-5.8c-5.7-1.4-11.7-2.2-17.8-2.5V401.1z
					 M269.2,401.1"/>
				<path class="st52" d="M357.6,462.3L357.6,462.3c-6.9,0-13.7,0.8-20.1,2.3c-5.1,1.2-10.1,3-14.7,5.1c-4.8,2.2-8.5,5.1-10.7,7
					c-2.2-1.9-6-4.8-10.7-7c-4.6-2.2-9.5-3.9-14.6-5.1c-6.4-1.5-13.1-2.3-20-2.3h-0.1c-1.3,0-2.3,1-2.3,2.3v0.2c0,1.3,1,2.3,2.3,2.3
					h0.1c6.4,0,12.7,0.7,18.7,2.2c4.8,1.2,9.4,2.8,13.7,4.8c1.7,0.8,3.2,1.6,4.6,2.4c2,1.2,5.1,3.5,6.9,5c0.9,0.7,2.1,0.7,3,0
					c1.8-1.4,4.9-3.8,6.9-5c1.3-0.8,2.9-1.6,4.6-2.4c4.3-2,8.9-3.6,13.7-4.8c6-1.4,12.3-2.2,18.7-2.2h0.1c1.3,0,2.3-1,2.3-2.3v-0.2
					C359.9,463.3,358.9,462.3,357.6,462.3L357.6,462.3z M357.6,462.3"/>
			</g>
			<path class="st45" d="M277.8,414.5c0.1,0,12,1.6,23.8,7.7c0.3,0.2,0.7,0.2,1,0.2c0.8,0,1.6-0.5,2-1.2c0.6-1.1,0.1-2.5-1-3
				c-12.5-6.4-24.7-8.1-25.3-8.1c-1.2-0.2-2.4,0.7-2.5,1.9C275.7,413.2,276.5,414.3,277.8,414.5L277.8,414.5z M277.8,414.5"/>
			<path class="st45" d="M302.6,433.7c0.8,0,1.6-0.5,2-1.2c0.6-1.1,0.1-2.5-1-3c-12.5-6.4-24.7-8.1-25.3-8.1
				c-1.2-0.2-2.4,0.7-2.5,1.9c-0.2,1.2,0.7,2.4,1.9,2.5c0.1,0,12,1.6,23.8,7.7C301.9,433.6,302.2,433.7,302.6,433.7L302.6,433.7z
				 M302.6,433.7"/>
			<path class="st45" d="M319.7,421.2c0.4,0.8,1.2,1.2,2,1.2c0.3,0,0.7-0.1,1-0.2c11.7-6,23.6-7.6,23.8-7.7c1.2-0.2,2.1-1.3,2-2.5
				c-0.2-1.2-1.3-2.1-2.5-2c-0.5,0.1-12.8,1.7-25.3,8.1C319.6,418.7,319.1,420.1,319.7,421.2L319.7,421.2z M319.7,421.2"/>
			<path class="st45" d="M345.9,421.3c-0.5,0.1-12.8,1.7-25.3,8.1c-1.1,0.6-1.6,1.9-1,3c0.4,0.8,1.2,1.2,2,1.2c0.3,0,0.7-0.1,1-0.2
				c11.7-6,23.7-7.6,23.8-7.7c1.2-0.2,2.1-1.3,1.9-2.5C348.3,422,347.2,421.1,345.9,421.3L345.9,421.3z M345.9,421.3"/>
		</g>
	</g>
</g>
</svg>
