<?xml version="1.0" encoding="utf-8"?>
<!-- Generator: Adobe Illustrator 20.1.0, SVG Export Plug-In . SVG Version: 6.00 Build 0)  -->
<svg version="1.1" id="Layer_1" xmlns="http://www.w3.org/2000/svg" xmlns:xlink="http://www.w3.org/1999/xlink" x="0px" y="0px"
	 viewBox="0 0 612 612" style="enable-background:new 0 0 612 612;" xml:space="preserve">
<style type="text/css">
	.st0{fill:#F36E4E;}
	.st1{clip-path:url(#SVGID_2_);}
	.st2{fill:#333333;}
	.st3{opacity:0.82;fill:#333333;}
	.st4{fill:#BFBEBE;}
	.st5{fill:#FFFFFF;}
	.st6{fill:#AFD149;}
	.st7{fill-rule:evenodd;clip-rule:evenodd;fill:#50A3DA;}
	.st8{fill-rule:evenodd;clip-rule:evenodd;fill:#85C040;}
	.st9{fill-rule:evenodd;clip-rule:evenodd;fill:#734B9E;}
	.st10{fill:none;stroke:#FFFFFF;stroke-width:6;stroke-miterlimit:10;}
	.st11{fill:none;stroke:#FFFFFF;stroke-width:2;stroke-miterlimit:10;}
	.st12{fill-rule:evenodd;clip-rule:evenodd;fill:#333333;}
	.st13{fill-rule:evenodd;clip-rule:evenodd;fill:#EEA62C;}
	.st14{fill-rule:evenodd;clip-rule:evenodd;fill:#76CABB;}
	.st15{fill:none;stroke:#FFFFFF;stroke-miterlimit:10;}
	.st16{fill:#4DC3CE;}
	.st17{fill:#00AEB4;}
	.st18{fill:none;stroke:#EC1C24;stroke-width:2;stroke-miterlimit:10;}
</style>
<g>
	<circle class="st0" cx="306" cy="306" r="306"/>
	<g>
		<defs>
			<circle id="SVGID_1_" cx="306" cy="306" r="306"/>
		</defs>
		<clipPath id="SVGID_2_">
			<use xlink:href="#SVGID_1_"  style="overflow:visible;"/>
		</clipPath>
		<g class="st1">
			<path class="st2" d="M316.2,183.3c25,1.5,49.8,9.9,71.7,25.8c55.7,40.6,73.3,116,45.1,178l217,157.3l4.4-6.4L436.3,379.9
				c28.2-62.1,10.6-137.5-45.1-178c-21.9-15.9-46.7-24.3-71.7-25.8c-46.7-2.8-93.9,18.7-123.2,61.2c-5.8,8.4-10.6,17.3-14.4,26.4
				c3.2-6.6,6.9-13,11.2-19.2C222.3,202,269.5,180.5,316.2,183.3z"/>
			<path class="st3" d="M228.6,438.1c14.6,10.7,30.6,17.9,47,22c42.6,10.6,88.3-0.1,122.7-29.5c2.9-2.5,5.8-5.1,8.5-7.8l171.3,124.7
				l46.9,33.4l25.1-36.5L433,387.1c28.2-62.1,10.6-137.5-45.1-178c-21.9-15.9-46.7-24.3-71.7-25.8c-46.7-2.8-93.9,18.7-123.2,61.2
				c-4.3,6.2-8,12.6-11.2,19.2C155.9,325,174,398.3,228.6,438.1z"/>
			<path class="st4" d="M377,222.4c-51.8-37.7-123.9-24.6-161,29.2c-3.3,4.8-6.1,9.8-8.6,14.9c38.3-48.1,106.3-58.6,155.9-22.5
				c47.2,34.4,61.2,99,35.3,151c1.7-2.2,3.5-4.4,5.1-6.7C440.8,334.4,428.8,260.2,377,222.4z"/>
			<path class="st5" d="M363.3,244c-49.6-36.1-117.6-25.6-155.9,22.5c-25.9,52-11.9,116.6,35.3,151c49.6,36.1,117.6,25.6,155.9-22.5
				C424.5,343.1,410.5,278.4,363.3,244z"/>
		</g>
		<g class="st1">
			<g>
				<g>
					<g>
						<g>
							<g>
								<path class="st6" d="M313.5,305.4l6.9,7.2l-5.9,9l-9.2-3.5c-1.4,1.4-2.8,2.7-4.4,3.9l2.4,9.7l-9.6,4.8l-6.2-7.6
									c-1.9,0.5-3.8,1.1-5.8,1.4l-2.8,9.7l-10.7-0.7l-1.5-9.9c-2-0.5-3.8-1.2-5.7-1.9l-6.9,6.6l-9-5.9l3.4-8.8
									c-1.5-1.4-2.8-2.9-4-4.5l-9.3,2.3l-4.8-9.6l7.3-6c-0.6-1.9-1.6-3.9-1.8-6l-9.8-2.7l0.7-10.7l9.9-1.5c0.5-2,1.4-3.9,2.1-5.7
									l-6.5-6.9l6-9l8.9,3.4c1.4-1.5,2.9-2.8,4.5-4l-2.3-9.3l9.6-4.8l6,7.3c1.9-0.6,3.9-0.8,5.9-1l2.6-9l10.7,0.7l1.5,9.1
									c2,0.5,3.9,1,5.7,1.7l7.2-7l9,5.9l-3.5,9.2c1.4,1.4,2.7,2.8,3.9,4.3l9.7-2.4l4.8,9.6l-7.6,6.2c0.5,1.9,0.3,3.7,0.6,5.7
									l8.9,2.7l-0.7,10.7l-9.1,1.6C314.1,301.7,314.2,303.6,313.5,305.4z M277.4,274.9c-8.6-0.5-16,6-16.5,14.6
									c-0.5,8.6,6,16,14.6,16.5c8.6,0.5,16-6,16.5-14.6C292.5,282.8,286,275.4,277.4,274.9z"/>
							</g>
						</g>
					</g>
				</g>
				<g>
					<g>
						<g>
							<path class="st6" d="M381.2,332.9l4.7,4.9l-4,6.1l-6.2-2.4c-0.9,1-1.9,1.8-2.9,2.7l1.6,6.6l-6.5,3.2l-4.2-5.2
								c-1.3,0.4-2.6,0.7-3.9,0.9l-1.9,6.6l-7.2-0.4l-1-6.7c-1.3-0.3-2.6-0.8-3.8-1.3l-4.7,4.5l-6.1-4l2.3-6c-1-0.9-1.9-2-2.7-3
								l-6.3,1.6l-3.2-6.5l5-4c-0.4-1.3-1.1-2.7-1.2-4l-6.6-1.8l0.4-7.3l6.7-1c0.3-1.3,0.9-2.6,1.4-3.9l-4.4-4.7l4.1-6.1l6,2.3
								c0.9-1,2-1.9,3-2.7l-1.6-6.3l6.5-3.2l4,5c1.3-0.4,2.6-0.5,4-0.7l1.8-6.1l7.3,0.4l1,6.2c1.3,0.3,2.6,0.7,3.8,1.2l4.9-4.7
								l6.1,4l-2.4,6.2c1,0.9,1.8,1.9,2.7,2.9l6.6-1.6l3.2,6.5l-5.2,4.2c0.4,1.3,0.2,2.5,0.4,3.9l6,1.8l-0.4,7.3l-6.1,1.1
								C381.6,330.4,381.7,331.7,381.2,332.9z M356.8,312.3c-5.8-0.4-10.8,4.1-11.2,9.9c-0.4,5.8,4.1,10.8,9.9,11.2
								c5.8,0.4,10.8-4.1,11.2-9.9C367,317.6,362.6,312.7,356.8,312.3z"/>
							<g>
								<path class="st6" d="M357.3,304.9c-9.9-0.6-18.4,6.9-19,16.9c-0.6,9.9,6.9,18.4,16.9,19c9.9,0.6,18.4-6.9,19-16.9
									C374.7,314,367.2,305.5,357.3,304.9z M355.5,333.3c-5.8-0.4-10.2-5.3-9.9-11.2c0.4-5.8,5.3-10.2,11.2-9.9
									c5.8,0.4,10.2,5.3,9.9,11.2C366.3,329.3,361.3,333.7,355.5,333.3z"/>
							</g>
						</g>
					</g>
				</g>
				<g>
					<g>
						<g>
							<path class="st6" d="M330.6,387.7l5.5,5.7l-4.7,7.1l-7.3-2.8c-1.1,1.1-2.2,2.2-3.4,3.1l1.9,7.7l-7.6,3.8l-4.9-6
								c-1.5,0.4-3,0.9-4.5,1.1l-2.2,7.7l-8.5-0.5l-1.2-7.8c-1.5-0.4-3-0.9-4.5-1.5l-5.5,5.2l-7.1-4.7l2.7-7
								c-1.2-1.1-2.2-2.3-3.2-3.5l-7.4,1.8l-3.8-7.6l5.8-4.7c-0.4-1.5-1.2-3.1-1.4-4.7l-7.7-2.1l0.5-8.5l7.8-1.1
								c0.4-1.6,1.1-3.1,1.7-4.5l-5.2-5.4l4.7-7.1l7,2.7c1.1-1.2,2.3-2.2,3.6-3.2l-1.8-7.4l7.6-3.8l4.7,5.8c1.5-0.4,3.1-0.6,4.7-0.8
								l2.1-7.1l8.5,0.5l1.2,7.2c1.5,0.4,3,0.8,4.5,1.4l5.7-5.5l7.1,4.7l-2.8,7.3c1.1,1.1,2.2,2.2,3.1,3.4l7.7-1.9l3.8,7.6l-6,4.9
								c0.4,1.5,0.2,3,0.4,4.5l7.1,2.1l-0.5,8.5l-7.2,1.3C331.2,384.8,331.2,386.3,330.6,387.7z M302.1,363.6
								c-6.8-0.4-12.6,4.8-13,11.5c-0.4,6.8,4.8,12.6,11.5,13c6.8,0.4,12.6-4.8,13-11.5C314.1,369.9,308.9,364,302.1,363.6z"/>
							<g>
								<path class="st6" d="M302.7,354.9c-11.6-0.7-21.6,8.1-22.3,19.7c-0.7,11.6,8.1,21.6,19.7,22.3c11.6,0.7,21.6-8.1,22.3-19.7
									C323.1,365.6,314.3,355.6,302.7,354.9z M300.6,388.2c-6.8-0.4-12-6.3-11.5-13c0.4-6.8,6.3-12,13-11.5
									c6.8,0.4,12,6.3,11.5,13C313.3,383.4,307.4,388.6,300.6,388.2z"/>
							</g>
						</g>
					</g>
				</g>
			</g>
		</g>
	</g>
	<circle class="st7" cx="107.4" cy="383.1" r="59.7"/>
	<circle class="st8" cx="433.2" cy="133.7" r="59.7"/>
	<g>
		<circle class="st9" cx="527.7" cy="282.9" r="59.7"/>
		<g>
			<g>
				<path class="st10" d="M559.7,266.2v51.4c0,0.9-0.7,1.6-1.6,1.6h-55.8c-0.9,0-1.6-0.7-1.6-1.6V246c0-0.9,0.7-1.6,1.6-1.6H538
					v20.2c0,0.9,0.7,1.6,1.6,1.6H559.7z"/>
				<path class="st5" d="M543.9,242.3v17.1c0,0.9,0.7,1.6,1.6,1.6h17.1L543.9,242.3z"/>
				<line class="st11" x1="507.7" y1="253.6" x2="532" y2="253.6"/>
				<line class="st11" x1="507.7" y1="260.6" x2="532" y2="260.6"/>
				<line class="st11" x1="507.7" y1="266.6" x2="532" y2="266.6"/>
				<line class="st11" x1="507.7" y1="272.6" x2="532" y2="272.6"/>
				<line class="st11" x1="536" y1="272.6" x2="551.2" y2="272.6"/>
				<line class="st11" x1="507.7" y1="278.4" x2="532" y2="278.4"/>
				<line class="st11" x1="536" y1="278.4" x2="551.2" y2="278.4"/>
			</g>
			<g>
				<path class="st2" d="M545.6,307.9l14.7,15.7l4.5-4.5l-14.7-15.7C548.9,305.2,547.4,306.7,545.6,307.9z"/>
				<path class="st12" d="M539.3,282.8c-7.6,0-13.9,6.2-13.9,13.9c0,7.6,6.2,13.9,13.9,13.9c7.6,0,13.9-6.2,13.9-13.9
					C553.2,289,546.9,282.8,539.3,282.8z M539.3,306.5c-5.4,0-9.9-4.4-9.9-9.9c0-5.4,4.4-9.9,9.9-9.9c5.4,0,9.9,4.4,9.9,9.9
					C549.1,302.1,544.7,306.5,539.3,306.5z"/>
			</g>
		</g>
	</g>
	<g>
		<g>
			<path class="st5" d="M468.2,110.6c0-1.3-1.1-2.3-2.4-2.3h-65.3c-1.3,0-2.3,1-2.3,2.3v44.3h70V110.6z M432.8,109.1
				c0.7,0,1.2,0.6,1.2,1.3c0,0.7-0.6,1.3-1.2,1.3c-0.7,0-1.2-0.6-1.2-1.3C431.5,109.7,432.1,109.1,432.8,109.1z M464,150.8h-61.6
				v-38.3H464C464,112.5,464,150.8,464,150.8z M440.2,155.8c-0.1,0.6-0.5,0.8-1.1,0.8h-11.8c-0.6,0-1-0.2-1.1-0.8h-38v1.6
				c0,0.9,6.3,1.7,14,1.7h62c7.7,0,14-0.8,14-1.7v-1.6H440.2z M449,130.5l-11.6-4.9v3.2l8,3.1l-8,3.1v3.2l11.6-4.9
				C449,133.3,449,130.5,449,130.5z M431.4,140.3c0.3,0,0.5-0.1,0.7-0.2c0.2-0.1,0.3-0.3,0.4-0.6c0.1-0.2,0.2-0.6,0.3-1l3.1-12.9
				c0.2-0.6,0.2-1,0.2-1.3c0-0.3-0.1-0.6-0.3-0.7c-0.2-0.3-0.5-0.3-0.8-0.3c-0.4,0-0.7,0.1-0.9,0.4c-0.1,0.3-0.3,0.7-0.5,1.4
				l-3.1,12.9c-0.1,0.7-0.2,1.1-0.2,1.3C430.3,139.9,430.6,140.3,431.4,140.3z M429,134.9l-8-3.1l8-3v-3.2l-11.7,4.9v2.7l11.7,4.9
				V134.9z"/>
		</g>
	</g>
	<g>
		<circle class="st13" cx="112.4" cy="207.3" r="59.7"/>
		<g>
			<path class="st5" d="M123.8,179.9c10.6,4.4,18.1,14.8,18.4,26.9l-5.1-0.9l7.7,15.9l12.7-12.3l-4.7-0.8l0.3,0
				c0-0.5,0.1-0.9,0.1-1.4c0-17.9-11.7-33.1-27.8-38.5l6.8,7L123.8,179.9z"/>
			<path class="st5" d="M139.9,218.9c-4.5,10.6-14.9,18-27,18.2l0.9-5.1l-15.9,7.7l12.3,12.7l0.8-4.4c0.5,0,1,0.1,1.6,0.1
				c18,0,33.3-11.7,38.6-28l-7.3,7.1L139.9,218.9z"/>
			<path class="st5" d="M100.9,234.7c-10.5-4.5-17.9-14.8-18.1-27l5,0.9l-7.7-15.9L67.4,205l4.6,0.8c0,0.5-0.1,1-0.1,1.5
				c0,17.9,11.6,33.1,27.7,38.5l-6.9-7.1L100.9,234.7z"/>
			<path class="st5" d="M85,196c4.4-10.6,14.7-18.1,26.9-18.3l-0.9,5L127,175l-12.3-12.7l-0.8,4.6c-0.5,0-0.9-0.1-1.4-0.1
				c-17.8,0-32.9,11.5-38.4,27.5l6.9-6.7L85,196z"/>
		</g>
	</g>
	<g>
		<circle class="st14" cx="259.7" cy="99.9" r="59.7"/>
		<g>
			<path class="st5" d="M303.9,100c0,0.1,0,0.1,0,0.2c0,24.5-19.9,44.4-44.4,44.4c-20.6,0-38-14.2-43-33.3l3.7,3.7l6.2-6.2
				c3.8,14.7,17.2,25.5,33.1,25.5c18.8,0,34.2-15.3,34.2-34.2c0-0.1,0-0.1,0-0.2h-5.3L299,89.4l10.5,10.6"/>
			<path class="st5" d="M225.4,100c0.1-18.8,15.4-34,34.2-34c15.8,0,29.2,10.8,33,25.4l6.4-6.4l3.4,3.4
				c-5.2-18.8-22.4-32.6-42.8-32.6c-24.4,0-44.3,19.8-44.4,44.2h-5.4l10.6,10.6l10.5-10.6"/>
		</g>
		<g>
			<path class="st11" d="M274.6,92.2v27.3c0,0.5-0.4,0.8-0.8,0.8h-29.7c-0.5,0-0.8-0.4-0.8-0.8V81.4c0-0.5,0.4-0.8,0.8-0.8h19v10.8
				c0,0.5,0.4,0.8,0.8,0.8H274.6z"/>
			<path class="st5" d="M266.2,79.5v9.1c0,0.5,0.4,0.8,0.8,0.8h9.1L266.2,79.5z"/>
			<line class="st15" x1="246.9" y1="85.5" x2="259.8" y2="85.5"/>
			<line class="st15" x1="246.9" y1="89.2" x2="259.8" y2="89.2"/>
			<line class="st15" x1="246.9" y1="92.4" x2="259.8" y2="92.4"/>
			<line class="st15" x1="246.9" y1="95.6" x2="259.8" y2="95.6"/>
			<line class="st15" x1="262" y1="95.6" x2="270" y2="95.6"/>
			<line class="st15" x1="246.9" y1="98.7" x2="259.8" y2="98.7"/>
			<line class="st15" x1="262" y1="98.7" x2="270" y2="98.7"/>
			<line class="st15" x1="246.9" y1="102" x2="259.8" y2="102"/>
			<line class="st15" x1="246.9" y1="105.7" x2="259.8" y2="105.7"/>
			<line class="st15" x1="246.9" y1="108.9" x2="259.8" y2="108.9"/>
			<line class="st15" x1="246.9" y1="112.1" x2="259.8" y2="112.1"/>
			<line class="st15" x1="262" y1="112.1" x2="270" y2="112.1"/>
			<line class="st15" x1="262.1" y1="108.9" x2="270.2" y2="108.9"/>
			<line class="st15" x1="262" y1="105.7" x2="270" y2="105.7"/>
			<line class="st15" x1="262" y1="102" x2="270" y2="102"/>
			<line class="st15" x1="246.9" y1="115.1" x2="259.8" y2="115.1"/>
			<line class="st15" x1="262" y1="115.1" x2="270" y2="115.1"/>
		</g>
	</g>
	<g>
		<rect x="76.6" y="370.2" class="st16" width="61.7" height="35.8"/>
		<rect x="76.6" y="368.5" class="st5" width="61.7" height="35.8"/>
		<rect x="76.6" y="366.9" class="st16" width="61.7" height="35.8"/>
		<rect x="76.6" y="365.2" class="st5" width="61.7" height="35.8"/>
		<rect x="76.6" y="363.6" class="st16" width="61.7" height="35.8"/>
		<rect x="76.6" y="361.9" class="st5" width="61.7" height="35.8"/>
		<polygon class="st16" points="138.3,360.3 138.3,396.1 76.6,396.1 76.6,384.9 76.6,360.3 		"/>
		<g>
			<path class="st17" d="M107.4,366.9c-5.3,0-9.7,5.1-9.7,11.3c0,6.2,4.3,11.3,9.7,11.3s9.7-5.1,9.7-11.3
				C117.1,371.9,112.8,366.9,107.4,366.9z M108.1,383.8v1.4h-1v-1.4c-1.6-0.1-2.9-0.8-3.7-1.7l0.8-1.1c0.6,0.7,1.6,1.4,2.9,1.5v-4
				c-1.7-0.5-3.4-1-3.4-3c0-1.7,1.4-2.9,3.4-3v-1.5h1v1.5c1.4,0.1,2.4,0.7,3.2,1.5l-0.8,1c-0.7-0.7-1.5-1.1-2.4-1.3v3.6
				c1.7,0.5,3.5,1.1,3.5,3.2C111.5,382.1,110.6,383.6,108.1,383.8z"/>
			<path class="st17" d="M108.1,378.9v3.7c1.6-0.2,2.1-1.1,2.1-1.9C110.1,379.7,109.2,379.2,108.1,378.9z"/>
			<path class="st17" d="M105.1,375.5c0,0.9,0.9,1.3,2,1.6v-3.3C105.9,373.9,105.1,374.6,105.1,375.5z"/>
		</g>
		<path class="st5" d="M127.9,362.2H87h-8.5v8.5v16l1.9,1.9v-17.7c1.6-0.1,3.3-0.9,4.6-2.2c1.3-1.3,2.1-3,2.2-4.6h40.6
			c0.1,1.6,0.9,3.3,2.2,4.6c1.3,1.3,3,2.1,4.6,2.2v14.6c-1.6,0.1-3.3,0.9-4.6,2.2c-1.3,1.3-2.1,3-2.2,4.6H84.1l1.9,1.8h42h8.5v-8.5
			v-15v-8.5H127.9z"/>
		<polygon class="st5" points="85.9,386.7 85.9,394.2 78.4,386.7 		"/>
	</g>
	<polyline class="st18" points="58.2,349 84.3,386.1 100.1,367.6 123,401.1 135.3,384.5 158.7,414.6 	"/>
</g>
</svg>
