<?xml version="1.0" encoding="utf-8"?>
<!-- Generator: Adobe Illustrator 20.0.0, SVG Export Plug-In . SVG Version: 6.00 Build 0)  -->
<svg version="1.1" id="Layer_1" xmlns="http://www.w3.org/2000/svg" xmlns:xlink="http://www.w3.org/1999/xlink" x="0px" y="0px"
	 viewBox="0 0 612 612" style="enable-background:new 0 0 612 612;" xml:space="preserve">
<style type="text/css">
	.st0{fill:#DCECF6;}
	.st1{fill:#5CB747;}
	.st2{fill:#FFFFFF;}
	.st3{fill:#089DBF;}
	.st4{fill:#E65D87;}
	.st5{fill:#EF6925;}
	.st6{enable-background:new    ;}
	.st7{fill:#45B249;}
	.st8{fill:none;}
</style>
<g>
	<g>
		<circle class="st0" cx="306" cy="306" r="306"/>
		<g>
			<g>
				<path class="st1" d="M190.2,59.2c0,0-94.3-1.5-131.1,96l30.6-4.1l23.8,21c0,0,21.2-52,77.1-55.1L204,87.8L190.2,59.2z"/>
				<path class="st1" d="M328.4,154.4c0,0-27.9-90.1-132.1-94.8l13.5,27.8l-12.6,29.1c0,0,56,3.9,76.3,56.1l32,3.7L328.4,154.4z"/>
				<path class="st1" d="M280.8,315.9c0,0,77.2-54.2,49.6-154.8l-22.4,21.3l-31.6-3c0,0,13.4,54.5-30,89.9l6.3,31.6L280.8,315.9z"/>
				<path class="st1" d="M112.8,319.1c0,0,74.9,57.3,162.5,0.8L248.3,305l-6.6-31c0,0-47.9,29.2-94.7-1.6L118.8,288L112.8,319.1z"/>
				<path class="st1" d="M57.6,160.5c0,0-31.5,88.9,49.3,154.9l5.8-30.4l27.5-15.8c0,0-42.5-36.6-27.7-90.6l-23.5-22L57.6,160.5z"/>
				<g>
					<path class="st2" d="M92.3,137.7c0.5-1.2,1.2-2.6,2-4c1.6-2.6,3.3-4,5.1-4.5c1.9-0.5,3.9-0.3,6.1,1.1c2.3,1.4,3.7,3.2,4.2,5.3
						c0.5,2.1-0.1,4.6-1.7,7.3c-0.8,1.3-1.5,2.3-2.1,3.1L92.3,137.7z M105.6,143.4c0.4-0.4,0.8-1,1.2-1.7c2.3-3.8,1.5-7.2-2.3-9.5
						c-3.2-2-6.4-1.4-8.7,2.4c-0.6,0.9-0.9,1.7-1.1,2.2L105.6,143.4z"/>
					<path class="st2" d="M110.8,128.6c2.3,1.8,4.3,1.1,5.6-0.6c1-1.2,1.3-2.1,1.6-2.9l1.4,0.7c-0.2,0.8-0.7,2-1.9,3.5
						c-2.2,2.8-5.4,3-8.1,0.8c-2.7-2.2-3.6-5.5-1.4-8.2c2.4-2.9,5.6-1.6,7.3-0.3c0.3,0.3,0.6,0.5,0.7,0.7L110.8,128.6z M113.5,122.9
						c-1-0.9-3-1.7-4.5,0.1c-1.3,1.7-0.4,3.6,0.6,4.7L113.5,122.9z"/>
					<path class="st2" d="M116.2,118.5c-1-1.1-1.9-1.9-2.7-2.7l1.4-1.3l1.5,1.4l0,0c-0.4-1.6,0-3.2,1.4-4.5c2-2,5.2-1.7,7.6,0.8
						c2.9,3,2.5,6.3,0.6,8.2c-1.1,1.1-2.5,1.5-3.8,1.2l0,0l4.4,4.5l-1.5,1.5L116.2,118.5z M119.8,119.2c0.2,0.2,0.5,0.4,0.7,0.6
						c1.3,0.8,2.9,0.6,4-0.4c1.6-1.6,1.3-3.8-0.6-5.7c-1.6-1.7-3.9-2.2-5.5-0.7c-1,1-1.3,2.7-0.5,4.1c0.1,0.2,0.3,0.5,0.5,0.7
						L119.8,119.2z"/>
					<path class="st2" d="M120.7,101.8l1.6-1.3l10.7,13.2l-1.6,1.3L120.7,101.8z"/>
					<path class="st2" d="M140.9,100.9c2.4,3.6,1,6.8-1.4,8.3c-2.6,1.8-5.9,1.2-8-1.9c-2.2-3.2-1.3-6.5,1.3-8.3
						C135.7,97.2,138.9,98,140.9,100.9z M133.3,106.2c1.4,2.1,3.7,2.9,5.4,1.7c1.7-1.1,1.9-3.5,0.4-5.7c-1.1-1.6-3.3-3.2-5.4-1.8
						C131.7,101.8,132.1,104.3,133.3,106.2z"/>
					<path class="st2" d="M141.4,94.2l5.4,4.9c0.6,0.6,1.3,1.2,1.8,1.8l0,0c-0.1-0.7-0.3-1.6-0.5-2.5l-1.1-7.1l2-1l1,8.8
						c0.5,4.2,0.5,6.5-0.2,8.3c-0.5,1.3-1.2,2.1-1.7,2.4l-1.3-1.3c0.4-0.4,0.9-1,1.2-1.8c0.3-0.7,0.6-1.7,0.5-2.9
						c0-0.2,0-0.4-0.1-0.5c-0.1-0.1-0.2-0.2-0.4-0.4l-8.7-7.5L141.4,94.2z"/>
					<path class="st2" d="M152.3,85.4c0.3,0.7,0,1.4-0.7,1.7c-0.7,0.3-1.4,0-1.7-0.7c-0.3-0.7,0-1.4,0.7-1.7
						C151.3,84.4,152,84.7,152.3,85.4z M155.9,100l-4.5-10.7l1.9-0.8l4.5,10.7L155.9,100z"/>
					<path class="st2" d="M158.2,89.9c-0.4-1.1-0.7-2.1-1-3l1.8-0.6l0.7,1.8l0,0c0.2-1.2,1.2-2.7,3-3.2c1.5-0.5,4.2-0.3,5.4,3.5
						l2.1,6.6l-2,0.6l-2-6.4c-0.6-1.8-1.7-3.1-3.6-2.5c-1.3,0.4-2.1,1.7-2,2.9c0,0.3,0.1,0.6,0.2,1l2.1,6.7l-2,0.6L158.2,89.9z"/>
					<path class="st2" d="M180.8,81c0.1,0.8,0.2,1.8,0.5,3.2l1.2,6.6c0.5,2.6,0.3,4.3-0.7,5.5c-0.9,1.2-2.5,1.9-3.9,2.1
						c-1.4,0.3-2.9,0.2-4-0.2l0.2-1.7c0.8,0.3,2.1,0.5,3.5,0.3c2.1-0.4,3.5-1.8,2.9-4.7l-0.2-1.3l0,0c-0.4,1.2-1.5,2.3-3.3,2.6
						c-2.8,0.5-5.3-1.5-5.9-4.7c-0.7-3.9,1.4-6.5,4-7c2-0.4,3.3,0.5,3.9,1.3l0,0l-0.2-1.7L180.8,81z M179.4,85.9
						c-0.1-0.4-0.1-0.7-0.3-0.9c-0.6-1.1-1.8-1.9-3.3-1.7c-2,0.4-3.1,2.3-2.6,4.9c0.4,2.2,1.9,3.9,4.1,3.5c1.3-0.2,2.3-1.2,2.5-2.7
						c0.1-0.4,0-0.8,0-1.1L179.4,85.9z"/>
				</g>
				<g>
					<path class="st2" d="M223.9,94.2l-6.2-1.1l-1.1,5.7l6.9,1.3l-0.3,1.7l-8.9-1.6l2.9-15.9l8.6,1.6l-0.3,1.7l-6.5-1.2l-0.9,5
						l6.2,1.1L223.9,94.2z"/>
					<path class="st2" d="M227.9,94.2c0.4-1.1,0.6-2.1,0.8-3l1.8,0.6l-0.5,1.9l0,0c0.9-0.9,2.5-1.5,4.3-0.9c1.5,0.5,3.6,2.1,2.5,5.9
						l-2.1,6.6l-2-0.6l2-6.4c0.6-1.8,0.4-3.5-1.5-4.1c-1.3-0.4-2.7,0.2-3.3,1.2c-0.2,0.2-0.3,0.6-0.4,0.9l-2.1,6.7l-2-0.6
						L227.9,94.2z"/>
					<path class="st2" d="M242.7,95.9l-0.5,6.9c-0.1,1.1-0.2,2.1-0.3,3.1l0.1,0c0.6-0.8,1.3-1.5,2.1-2.3l4.7-5.1l2,0.9l-8.9,8.8
						l-1.8-0.8l0.6-12.4L242.7,95.9z"/>
					<path class="st2" d="M247.5,111l5.6-10.2l1.9,1l-5.6,10.2L247.5,111z M256.7,99.1c-0.3,0.6-1.1,0.9-1.8,0.5
						c-0.7-0.4-0.8-1.1-0.5-1.7c0.4-0.7,1.1-0.9,1.8-0.5C256.9,97.7,257.1,98.4,256.7,99.1z"/>
					<path class="st2" d="M253.1,111.6c0.3,0.7,1,1.6,1.9,2.2c1.3,0.8,2.3,0.6,2.8-0.3c0.5-0.9,0.3-1.6-0.7-3
						c-1.4-1.7-1.6-3.2-0.8-4.4c1-1.6,3.1-2.1,5.2-0.7c1,0.6,1.7,1.5,2,2.1l-1.3,1c-0.2-0.5-0.7-1.3-1.6-1.8c-1.1-0.7-2-0.4-2.5,0.3
						c-0.5,0.8-0.2,1.5,0.8,2.8c1.3,1.7,1.6,3.1,0.7,4.6c-1.1,1.7-3.2,2.1-5.5,0.6c-1.1-0.7-1.9-1.6-2.3-2.4L253.1,111.6z"/>
					<path class="st2" d="M259.8,118.7l6.9-9.3l1.7,1.3l-6.9,9.3L259.8,118.7z M270.6,108.1c-0.4,0.6-1.2,0.7-1.9,0.2
						c-0.6-0.4-0.7-1.2-0.3-1.8c0.4-0.6,1.2-0.7,1.8-0.3C271,106.7,271,107.5,270.6,108.1z"/>
					<path class="st2" d="M275.9,124.3c-2.8,3.2-6.3,2.6-8.4,0.8c-2.4-2.1-2.6-5.4-0.2-8.2c2.6-2.9,6-2.9,8.4-0.8
						C278.2,118.3,278.2,121.7,275.9,124.3z M268.9,118.3c-1.7,1.9-1.9,4.3-0.3,5.7c1.5,1.3,3.9,0.9,5.6-1c1.3-1.5,2.2-4,0.4-5.6
						C272.7,115.6,270.4,116.6,268.9,118.3z"/>
					<path class="st2" d="M279.8,124.7c0.9-0.8,1.6-1.5,2.3-2.1l1.2,1.4l-1.4,1.4l0,0c1.2-0.3,2.9,0,4.2,1.4c1.1,1.2,2,3.7-1,6.3
						l-5.2,4.6l-1.4-1.6l5-4.4c1.4-1.2,2.1-2.8,0.8-4.3c-0.9-1-2.4-1.2-3.5-0.7c-0.3,0.1-0.6,0.3-0.8,0.5l-5.2,4.6l-1.4-1.6
						L279.8,124.7z"/>
					<path class="st2" d="M281.8,140.2l9.4-6.8l1.2,1.7l-9.4,6.8L281.8,140.2z M295.2,133.3c-0.6,0.4-1.3,0.4-1.8-0.3
						c-0.4-0.6-0.3-1.4,0.3-1.8c0.6-0.4,1.4-0.3,1.8,0.3C295.9,132.2,295.8,132.9,295.2,133.3z"/>
					<path class="st2" d="M292.2,140.1c1-0.6,1.9-1.1,2.6-1.7l1,1.6l-1.6,1.1l0,0c1.2-0.1,2.9,0.5,3.8,2.2c0.8,1.4,1.3,4-2.1,6.1
						l-5.9,3.6l-1.1-1.8l5.7-3.5c1.6-1,2.6-2.4,1.6-4.1c-0.7-1.2-2.1-1.6-3.3-1.3c-0.3,0.1-0.6,0.2-0.9,0.4l-6,3.6l-1.1-1.8
						L292.2,140.1z"/>
					<path class="st2" d="M306,160c-0.8,0.3-1.7,0.6-3,1.2l-6.2,2.7c-2.4,1.1-4.1,1.3-5.5,0.6c-1.4-0.6-2.4-2-3-3.3
						c-0.6-1.3-0.9-2.8-0.7-3.9l1.7-0.2c-0.1,0.9,0,2.2,0.5,3.5c0.9,2,2.5,3,5.2,1.8l1.2-0.5l0,0c-1.2-0.2-2.5-0.9-3.3-2.6
						c-1.2-2.6,0.2-5.5,3.2-6.8c3.6-1.6,6.7-0.1,7.8,2.3c0.8,1.8,0.3,3.3-0.4,4.1l0,0l1.6-0.6L306,160z M300.9,159.9
						c0.3-0.1,0.6-0.3,0.8-0.5c1-0.8,1.5-2.2,0.8-3.6c-0.8-1.8-3-2.5-5.4-1.4c-2.1,0.9-3.4,2.7-2.4,4.8c0.5,1.2,1.7,1.9,3.2,1.8
						c0.4,0,0.8-0.2,1.1-0.3L300.9,159.9z"/>
				</g>
				<g>
					<path class="st2" d="M320,212.3c0.1,1,0.1,2.3-0.1,4c-0.2,2.1-0.9,3.5-1.8,4.4c-0.9,0.8-2.1,1.2-3.5,1
						c-1.5-0.2-2.6-0.7-3.3-1.6c-1-1.2-1.4-3.1-1.2-5.1c0.1-0.6,0.2-1.2,0.3-1.7l-6.4-0.7l0.2-2.1L320,212.3z M312,213.5
						c-0.2,0.4-0.3,1-0.4,1.7c-0.3,2.5,0.8,4.2,3,4.4c2.1,0.2,3.3-1.2,3.6-3.4c0.1-0.9,0.1-1.6,0.1-2L312,213.5z"/>
					<path class="st2" d="M319.1,226l-0.4,2.1l-16.7-3.3l0.4-2.1L319.1,226z"/>
					<path class="st2" d="M299.6,234.1l1.5,0.2l0-0.1c-0.7-0.9-1.1-2.3-0.7-3.9c0.6-2.3,2.6-3,4.2-2.5c2.7,0.8,3.5,3.6,2.2,7.9
						l0.2,0.1c0.9,0.3,2.7,0.5,3.3-1.8c0.3-1,0.3-2.2,0-3.1l1.5-0.1c0.3,1.1,0.3,2.5-0.1,4c-1,3.4-3.5,3.6-5.8,2.9l-4.2-1.2
						c-1-0.3-1.9-0.5-2.7-0.6L299.6,234.1z M305.4,235.4c0.7-2.2,1-4.8-1.2-5.5c-1.3-0.4-2.2,0.3-2.5,1.4c-0.4,1.5,0.2,2.6,1.1,3.2
						c0.2,0.1,0.4,0.2,0.6,0.3L305.4,235.4z"/>
					<path class="st2" d="M306,241.8c1.1,0.5,2,0.8,2.9,1.1l-0.7,1.7l-1.8-0.6l0,0c0.8,1,1.3,2.6,0.5,4.4c-0.6,1.5-2.5,3.4-6.1,1.9
						l-6.4-2.7l0.8-1.9l6.2,2.6c1.7,0.7,3.4,0.7,4.2-1.2c0.5-1.3,0-2.7-0.9-3.4c-0.2-0.2-0.5-0.4-0.9-0.5l-6.4-2.7l0.8-1.9
						L306,241.8z"/>
					<path class="st2" d="M300.4,254.5c1,0.6,1.9,1.1,2.8,1.5l-0.9,1.6l-1.7-0.8l0,0c0.7,1,0.9,2.8,0,4.4c-0.8,1.4-2.9,3.1-6.3,1.1
						l-6-3.4l1-1.8l5.8,3.3c1.6,0.9,3.3,1.1,4.3-0.6c0.7-1.2,0.4-2.6-0.5-3.5c-0.2-0.2-0.5-0.4-0.8-0.6l-6.1-3.5l1-1.8L300.4,254.5z
						"/>
					<path class="st2" d="M286.4,261.4l9.5,6.6l-1.2,1.7l-9.5-6.6L286.4,261.4z M297.2,271.8c-0.6-0.4-0.8-1.2-0.3-1.8
						c0.4-0.6,1.2-0.7,1.8-0.3c0.6,0.4,0.8,1.2,0.3,1.8C298.6,272.2,297.8,272.3,297.2,271.8z"/>
					<path class="st2" d="M289.9,271.2c0.9,0.8,1.7,1.4,2.5,1.9l-1.2,1.4l-1.5-1.1l0,0c0.5,1.2,0.4,2.9-0.8,4.3
						c-1,1.2-3.4,2.5-6.4,0l-5.3-4.5l1.4-1.6l5.1,4.3c1.4,1.2,3.1,1.7,4.4,0.1c0.9-1.1,0.8-2.5,0.2-3.6c-0.1-0.2-0.4-0.5-0.7-0.7
						l-5.3-4.5l1.4-1.6L289.9,271.2z"/>
					<path class="st2" d="M275.5,290.7c-0.5-0.6-1.1-1.4-2.1-2.4l-4.6-5c-1.8-2-2.5-3.5-2.4-5c0.1-1.5,1.1-2.9,2.2-3.9
						c1-0.9,2.4-1.7,3.5-1.9l0.7,1.5c-0.9,0.2-2.1,0.7-3.1,1.6c-1.6,1.5-2,3.4,0,5.5l0.9,1l0,0c-0.3-1.2,0.1-2.7,1.4-3.9
						c2.1-2,5.3-1.6,7.5,0.8c2.7,2.9,2.3,6.3,0.3,8.1c-1.5,1.4-3,1.3-4,1l0,0l1.1,1.4L275.5,290.7z M274,285.9
						c0.2,0.3,0.5,0.5,0.7,0.6c1.1,0.6,2.6,0.7,3.7-0.4c1.5-1.4,1.4-3.6-0.4-5.6c-1.5-1.7-3.7-2.3-5.4-0.7c-1,0.9-1.3,2.3-0.7,3.6
						c0.2,0.3,0.4,0.7,0.6,0.9L274,285.9z"/>
				</g>
				<g>
					<path class="st2" d="M240.3,315.4c-1.1,0.6-2.5,1.3-4,1.9c-2.8,1.1-5,1.2-6.8,0.5c-1.8-0.7-3.3-2.1-4.3-4.6
						c-1-2.5-1-4.8-0.2-6.7c0.8-2,2.9-3.6,5.8-4.8c1.4-0.5,2.6-0.9,3.6-1.2L240.3,315.4z M233.1,302.9c-0.5,0.1-1.2,0.4-2,0.7
						c-4.2,1.6-5.5,4.9-3.9,8.9c1.4,3.6,4.3,5,8.4,3.4c1-0.4,1.7-0.8,2.2-1.1L233.1,302.9z"/>
					<path class="st2" d="M220.1,311.5c-0.7-2.8-2.8-3.5-4.8-2.9c-1.5,0.4-2.3,0.8-3,1.4l-0.7-1.4c0.6-0.5,1.8-1.2,3.6-1.6
						c3.5-0.9,6.1,0.9,7,4.3c0.8,3.4-0.5,6.6-3.8,7.4c-3.7,0.9-5.5-2.1-6-4.1c-0.1-0.4-0.1-0.8-0.2-1L220.1,311.5z M214.4,314.5
						c0.3,1.3,1.4,3.2,3.7,2.6c2.1-0.5,2.5-2.7,2.3-4.1L214.4,314.5z"/>
					<path class="st2" d="M209.4,320.2l-3.1-6.2c-0.5-1-1-1.9-1.3-2.8l-0.1,0c-0.1,1-0.3,2-0.6,3.1l-1.4,6.8l-2.2,0.3l3-12.1l2-0.3
						l5.9,10.9L209.4,320.2z"/>
					<path class="st2" d="M196.8,315.4c-0.1-2.9-2-4-4.1-3.9c-1.5,0-2.4,0.3-3.2,0.7l-0.4-1.5c0.7-0.4,2-0.8,3.8-0.8
						c3.6-0.1,5.8,2.2,5.9,5.7c0.1,3.5-1.9,6.3-5.3,6.4c-3.8,0.1-4.9-3.2-4.9-5.3c0-0.4,0-0.8,0-1L196.8,315.4z M190.6,317.1
						c0,1.3,0.6,3.4,3,3.4c2.1-0.1,3-2,3.1-3.5L190.6,317.1z"/>
					<path class="st2" d="M185.2,327l-2.1-0.1l1-17l2.1,0.1L185.2,327z"/>
					<path class="st2" d="M169.6,314c0.6-4.3,3.8-5.7,6.6-5.3c3.1,0.5,5.2,3.1,4.6,6.7c-0.6,3.8-3.4,5.7-6.6,5.3
						C170.9,320.3,169.1,317.5,169.6,314z M178.7,315.2c0.4-2.5-0.8-4.6-2.8-4.9c-2-0.3-3.8,1.4-4.1,4c-0.3,1.9,0.3,4.6,2.8,4.9
						C177,319.5,178.4,317.4,178.7,315.2z"/>
					<path class="st2" d="M166.2,315.2c-0.4,1.4-0.7,2.6-0.9,3.7l-1.8-0.5l0.4-1.9l0,0c-1.2,1.1-2.8,1.6-4.6,1.1
						c-2.7-0.8-4.1-3.6-3.1-7c1.1-4,4.1-5.3,6.8-4.6c1.5,0.4,2.6,1.4,3,2.7l0,0l1.7-6.1l2,0.6L166.2,315.2z M165,311.7
						c0.1-0.3,0.1-0.6,0.1-0.9c0-1.5-0.9-2.8-2.4-3.2c-2.2-0.6-3.9,0.8-4.6,3.4c-0.6,2.2,0,4.5,2.2,5.1c1.4,0.4,3-0.2,3.8-1.7
						c0.1-0.2,0.3-0.5,0.4-0.8L165,311.7z"/>
					<path class="st2" d="M148.1,316.9c0.2-0.7,0.9-1,1.7-0.7c0.7,0.3,1,1,0.7,1.7c-0.3,0.7-1,1-1.7,0.8
						C148.1,318.3,147.8,317.6,148.1,316.9z M155.6,303.8l-4.1,10.9l-2-0.8l4.1-10.9L155.6,303.8z"/>
					<path class="st2" d="M147,309.6c-0.5,1.1-0.9,2-1.3,2.9l-1.7-0.8l0.7-1.8l0,0c-1,0.7-2.7,1.1-4.4,0.3c-1.4-0.7-3.3-2.7-1.5-6.2
						l3-6.2l1.9,0.9l-2.9,6c-0.8,1.7-0.9,3.4,0.9,4.3c1.3,0.6,2.7,0.2,3.5-0.7c0.2-0.2,0.4-0.5,0.6-0.8l3.1-6.3l1.9,0.9L147,309.6z"
						/>
					<path class="st2" d="M124.5,300.4c0.5-0.7,1.1-1.4,1.8-2.6l3.7-5.6c1.5-2.2,2.8-3.3,4.3-3.5c1.5-0.3,3.1,0.3,4.3,1.1
						c1.2,0.8,2.3,1.9,2.7,2.9l-1.3,1.1c-0.4-0.8-1.1-1.8-2.4-2.6c-1.8-1.2-3.8-1.1-5.4,1.3l-0.7,1.1l0,0c1.1-0.5,2.7-0.6,4.2,0.4
						c2.4,1.6,2.8,4.8,1,7.4c-2.2,3.3-5.5,3.8-7.8,2.3c-1.7-1.1-2-2.6-1.9-3.7l0,0l-1,1.4L124.5,300.4z M128.8,297.8
						c-0.2,0.3-0.3,0.6-0.4,0.9c-0.3,1.2,0,2.6,1.3,3.5c1.7,1.1,3.8,0.5,5.3-1.8c1.2-1.9,1.3-4.1-0.6-5.4c-1.1-0.7-2.5-0.7-3.6,0.2
						c-0.3,0.2-0.6,0.6-0.8,0.9L128.8,297.8z"/>
				</g>
				<g>
					<path class="st2" d="M102.8,270.1c-0.1-1.1-0.5-2.5-1.4-3.6c-1.3-1.7-2.9-2.1-4.2-1.1c-1.2,0.9-1.4,2.1-0.8,4.4
						c0.8,2.7,0.7,4.8-1.2,6.2c-2,1.5-4.8,0.9-6.6-1.6c-1-1.3-1.4-2.5-1.5-3.4l1.7-0.5c0.1,0.6,0.3,1.8,1.2,2.9
						c1.3,1.8,2.9,1.7,3.8,1c1.2-0.9,1.2-2.1,0.6-4.4c-0.8-2.8-0.5-4.7,1.4-6.1c2-1.5,4.9-1.3,7.1,1.8c0.9,1.3,1.6,2.9,1.6,3.9
						L102.8,270.1z"/>
					<path class="st2" d="M84.1,264.6l2.9-1.7l-1.6-2.6l1.4-0.8l1.6,2.6l5.4-3.2c1.2-0.7,1.7-1.5,1.1-2.5c-0.3-0.5-0.6-0.8-0.8-1
						l1.3-0.9c0.4,0.3,0.8,0.8,1.2,1.5c0.5,0.8,0.6,1.7,0.4,2.4c-0.2,0.8-1,1.5-2.2,2.3l-5.4,3.2l0.9,1.5l-1.4,0.8l-0.9-1.5
						l-2.4,1.4L84.1,264.6z"/>
					<path class="st2" d="M91.6,246.8l-1.2,0.8l0,0.1c1.1,0.2,2.4,1,3.1,2.5c1,2.1,0,3.9-1.5,4.6c-2.5,1.2-5-0.4-6.9-4.4l-0.2,0.1
						c-0.9,0.4-2.3,1.4-1.3,3.5c0.5,1,1.3,1.8,2.1,2.4l-1,1c-1-0.6-1.9-1.7-2.6-3c-1.5-3.2,0.3-5,2.4-6l3.9-1.9
						c0.9-0.4,1.8-0.9,2.4-1.4L91.6,246.8z M86.4,249.6c1,2.1,2.4,4.3,4.5,3.3c1.2-0.6,1.4-1.7,1-2.7c-0.7-1.4-1.9-1.8-3-1.7
						c-0.2,0-0.5,0.1-0.7,0.2L86.4,249.6z"/>
					<path class="st2" d="M89.8,242.6c-0.8,0.2-1.9,0.6-2.9,0.9l-13.2,4.7l-0.7-2l6.9-2.4l0,0c-1.5-0.3-2.7-1.3-3.3-3
						c-1-2.7,0.6-5.4,3.9-6.6c3.9-1.4,6.7,0.4,7.6,2.8c0.6,1.6,0.4,3.1-0.8,4.4l0,0.1l1.8-0.6L89.8,242.6z M84.7,242.1
						c0.2-0.1,0.5-0.2,0.7-0.3c1.2-0.9,1.8-2.4,1.3-3.8c-0.7-2.1-2.9-2.7-5.4-1.8c-2.2,0.8-3.7,2.6-2.9,4.7c0.5,1.4,1.9,2.3,3.5,2.2
						c0.2,0,0.5-0.1,0.9-0.2L84.7,242.1z"/>
					<path class="st2" d="M70.7,231.1c0.7-0.2,1.4,0.2,1.6,1c0.2,0.7-0.3,1.4-1,1.5c-0.7,0.2-1.4-0.2-1.6-1
						C69.6,231.9,70,231.3,70.7,231.1z M85.7,229.8l-11.3,2.8l-0.5-2.1l11.3-2.8L85.7,229.8z"/>
					<path class="st2" d="M67.8,227.7l-0.4-2.1l16.7-3.2l0.4,2.1L67.8,227.7z"/>
					<path class="st2" d="M68.5,218.8c0.7-0.1,1.4,0.3,1.5,1.2c0.1,0.7-0.4,1.3-1.1,1.4c-0.7,0.1-1.4-0.4-1.5-1.1
						C67.3,219.5,67.8,218.9,68.5,218.8z M83.6,219.2l-11.5,1.5l-0.3-2.1l11.5-1.5L83.6,219.2z"/>
					<path class="st2" d="M81.8,215.3l-7.1-4.9c-0.7-0.5-1.2-0.9-1.9-1.4l0,0l0.4,6.3l-1.7,0.1l-0.5-8.8l1.3-0.1l7,4.8
						c0.7,0.4,1.3,0.9,1.9,1.4l0,0l-0.4-6.8l1.7-0.1l0.5,9.4L81.8,215.3z"/>
					<path class="st2" d="M67.7,201.3c0.7,0,1.3,0.5,1.3,1.4c0,0.7-0.6,1.3-1.3,1.2c-0.7,0-1.3-0.6-1.3-1.3
						C66.4,201.8,67,201.3,67.7,201.3z M82.6,203.9L71,203.7l0-2.1l11.6,0.2L82.6,203.9z"/>
					<path class="st2" d="M74.2,197.8c-1.2-0.1-2.2-0.2-3.1-0.2l0.2-1.9l1.9,0.1l0,0c-1-0.7-2-2.1-1.8-4.1c0.2-1.6,1.4-4,5.4-3.6
						l6.9,0.7l-0.2,2.1l-6.7-0.7c-1.9-0.2-3.5,0.3-3.7,2.3c-0.1,1.4,0.7,2.6,1.8,3c0.3,0.1,0.6,0.2,1,0.2l6.9,0.7l-0.2,2.1
						L74.2,197.8z"/>
					<path class="st2" d="M75.2,173.5c0.8,0.2,1.7,0.5,3.1,0.8l6.6,1.6c2.6,0.6,4.1,1.5,4.8,2.8c0.8,1.3,0.7,3,0.4,4.4
						c-0.3,1.4-1,2.8-1.8,3.5l-1.4-0.9c0.6-0.6,1.3-1.7,1.7-3.1c0.5-2.1-0.2-3.9-3.1-4.6l-1.3-0.3l0,0c0.9,0.9,1.5,2.3,1,4
						c-0.7,2.8-3.5,4.2-6.7,3.5c-3.8-0.9-5.4-3.9-4.8-6.5c0.5-2,1.7-2.8,2.8-3.1l0,0l-1.7-0.5L75.2,173.5z M79.2,176.7
						c-0.4-0.1-0.7-0.1-1-0.1c-1.3,0.1-2.5,0.9-2.9,2.4c-0.5,2,0.9,3.8,3.5,4.4c2.2,0.5,4.3-0.2,4.9-2.4c0.3-1.3-0.2-2.6-1.4-3.3
						c-0.3-0.2-0.7-0.3-1.1-0.4L79.2,176.7z"/>
				</g>
			</g>
			<g>
				<g>
					<g>
						<g>
							<path class="st3" d="M280.6,458.2l-1.4-1.4l0.5-0.4l1.4,1.4L280.6,458.2z M283.9,454.8l-1.4-1.4l2.9-2.8l1.4,1.4L283.9,454.8
								z M289.8,449.1l-1.4-1.4l2.9-2.8l1.4,1.4L289.8,449.1z M295.6,443.3l-1.4-1.4l2.9-2.8l1.4,1.4L295.6,443.3z M301.3,437.5
								l-1.4-1.4l2.9-2.8l1.4,1.4L301.3,437.5z M307.1,431.7l-1.4-1.4l2.9-2.8l1.4,1.4L307.1,431.7z M313,426l-1.4-1.4l2.9-2.8
								l1.4,1.4L313,426z M318.8,420.3l-1.4-1.4l2.9-2.8l1.4,1.4L318.8,420.3z M324.6,414.5l-1.4-1.4l2.9-2.8l1.4,1.4L324.6,414.5z
								 M330.4,408.7l-1.4-1.4l2.9-2.8l1.4,1.4L330.4,408.7z"/>
						</g>
						
							<ellipse transform="matrix(0.1337 -0.991 0.991 0.1337 -212.7688 673.6046)" class="st3" cx="278.9" cy="458.5" rx="3.8" ry="3.8"/>
					</g>
					<g>
						
							<ellipse transform="matrix(0.1337 -0.991 0.991 0.1337 -227.3157 823.1924)" class="st3" cx="357.2" cy="541.6" rx="3.8" ry="3.8"/>
						
							<ellipse transform="matrix(0.1337 -0.991 0.991 0.1337 -204.7546 523.4445)" class="st3" cx="197" cy="378.8" rx="3.8" ry="3.8"/>
						<g>
							<g>
								<g>
									<path class="st3" d="M202.7,378.6l-0.7-1.9c0.6-0.2,1.3-0.4,2-0.6l0.7,1.9C204,378.2,203.3,378.4,202.7,378.6z"/>
								</g>
								<g>
									<path class="st3" d="M359.6,449.2c-0.5-1.3-1.1-2.5-1.6-3.7l1.8-0.9c0.5,1.3,1.2,2.5,1.6,3.7L359.6,449.2z M356.2,441.9
										c-0.6-1.2-1.2-2.4-1.8-3.6l1.8-1c0.6,1.2,1.3,2.4,1.9,3.7L356.2,441.9z M352.4,434.7c-0.6-1.2-1.4-2.3-2.1-3.5l1.8-1.1
										c0.7,1.2,1.4,2.3,2.1,3.5L352.4,434.7z M348,427.9c-0.8-1.1-1.5-2.2-2.4-3.3l1.7-1.2c0.8,1.1,1.6,2.2,2.4,3.3L348,427.9z
										 M343.3,421.4c-0.9-1-1.7-2.2-2.5-3.2l1.6-1.3c0.9,1,1.7,2.2,2.6,3.2L343.3,421.4z M338,415.1c-0.9-1-1.9-2-2.7-3l1.5-1.4
										c1,1,1.9,2,2.8,3L338,415.1z M208.5,376.8l-0.5-2c1.4-0.4,2.6-0.8,4-1.1l0.5,2C211.1,376,209.9,376.3,208.5,376.8z
										 M332.4,409.2c-1-0.9-2-1.9-2.9-2.8l1.4-1.5c1,0.9,2,1.9,2.9,2.8L332.4,409.2z M216.4,374.8l-0.4-2c1.4-0.3,2.7-0.5,4-0.8
										l0.3,2C219,374.2,217.8,374.5,216.4,374.8z M326.5,403.8c-1-0.8-2.1-1.8-3.1-2.6l1.3-1.5c1.1,0.9,2.1,1.7,3.2,2.6
										L326.5,403.8z M224.4,373.4l-0.3-2.1c1.3-0.2,2.8-0.3,4.1-0.6l0.2,2C227.1,373,225.8,373.1,224.4,373.4z M320.1,398.6
										c-1.1-0.9-2.2-1.6-3.3-2.4l1.2-1.7c1.1,0.8,2.2,1.6,3.3,2.5L320.1,398.6z M232.5,372.4l-0.1-2c1.3-0.1,2.8-0.2,4.2-0.2
										l0.1,2C235.2,372.3,233.8,372.3,232.5,372.4z M313.6,394c-1.1-0.8-2.2-1.5-3.4-2.2l1-1.8c1.2,0.8,2.3,1.4,3.4,2.2
										L313.6,394z M240.6,372.1l0-2c1.4,0,2.7,0,4.1,0.1l-0.1,2C243.3,372.1,241.9,372.1,240.6,372.1z M306.6,389.6
										c-1.2-0.7-2.3-1.3-3.6-2l0.9-1.8c1.2,0.7,2.4,1.3,3.6,2L306.6,389.6z M248.8,372.3l0.1-2c1.4,0.1,2.7,0.2,4.1,0.3l-0.2,2
										C251.5,372.5,250.1,372.4,248.8,372.3z M299.4,385.8c-1.2-0.6-2.5-1.2-3.7-1.7l0.9-1.9c1.2,0.6,2.5,1.1,3.7,1.8
										L299.4,385.8z M256.8,373l0.3-2c1.4,0.2,2.8,0.4,4.1,0.5l-0.3,2C259.5,373.3,258.2,373.2,256.8,373z M292.1,382.4
										c-1.2-0.6-2.5-1-3.7-1.5l0.8-1.9c1.2,0.5,2.6,1.1,3.8,1.5L292.1,382.4z M264.9,374.2l0.4-2c1.4,0.3,2.6,0.6,4,0.8l-0.5,2
										C267.5,374.7,266.2,374.5,264.9,374.2z M284.5,379.4c-1.2-0.5-2.6-0.9-3.9-1.3l0.6-1.9c1.4,0.4,2.6,0.9,4,1.3L284.5,379.4z
										 M272.8,375.9l0.5-2c1,0.2,1.9,0.5,2.7,0.8l1.2,0.4l-0.6,1.9l-1.2-0.4C274.7,376.4,273.8,376.2,272.8,375.9z"/>
								</g>
								<g>
									<path class="st3" d="M361.8,455.1c-0.2-0.6-0.4-1.3-0.8-1.9l1.9-0.8c0.2,0.6,0.4,1.3,0.8,1.9L361.8,455.1z"/>
								</g>
							</g>
							<g>
								<g>
									<path class="st3" d="M360.2,451.8l1.9-0.7c0.2,0.6,0.4,1.3,0.6,2l-1.9,0.7C360.7,453.1,360.5,452.5,360.2,451.8z"/>
								</g>
								<g>
									<path class="st3" d="M362.1,457.6l2-0.5c0.4,1.4,0.8,2.6,1.1,4l-2,0.5C362.7,460.2,362.4,458.9,362.1,457.6z M364,465.5
										l2-0.4c0.3,1.4,0.5,2.7,0.8,4l-2,0.3C364.6,468.1,364.3,466.8,364,465.5z M365.5,473.5l2.1-0.3c0.2,1.3,0.3,2.8,0.6,4.1
										l-2,0.2C365.8,476.2,365.6,474.8,365.5,473.5z M366.3,481.6l2-0.1c0.1,1.3,0.2,2.8,0.2,4.2l-2,0.1
										C366.6,484.3,366.4,482.9,366.3,481.6z M366.6,489.7l2,0c0,1.4,0,2.7-0.1,4.1l-2-0.1C366.7,492.3,366.7,491,366.6,489.7z
										 M366.5,497.8l2,0.1c-0.1,1.4-0.2,2.7-0.3,4.1l-2-0.2C366.3,500.5,366.5,499.2,366.5,497.8z M365.8,505.8l2,0.3
										c-0.2,1.4-0.4,2.8-0.5,4.1l-2-0.3C365.5,508.6,365.7,507.2,365.8,505.8z M364.6,514l2,0.4c-0.3,1.4-0.6,2.6-0.8,4l-2-0.5
										C364.1,516.6,364.3,515.2,364.6,514z M359.3,533.5c0.5-1.2,0.9-2.6,1.3-3.9l1.9,0.6c-0.4,1.4-0.9,2.6-1.3,4L359.3,533.5z
										 M362.9,521.9l2,0.5c-0.2,1-0.5,1.9-0.8,2.7l-0.4,1.2l-1.9-0.6l0.4-1.2C362.4,523.6,362.7,522.8,362.9,521.9z"/>
								</g>
							</g>
						</g>
					</g>
				</g>
				<g id="globe_1_">
					<path class="st3" d="M166.5,378.7c-0.9,0.3-1.6,1.2-2.4,1.7c-0.7,0.1-1.3-0.3-1.6-0.9c-0.1,1.3-1.9,1.8-2.4,3.2
						c1.9,1.7,5.2,2.2,7.6,3C168,383.5,166.3,381.2,166.5,378.7z"/>
					<path class="st3" d="M167.3,367.5c-19.5-2.6-37.5,11.1-40.1,30.6c-2.6,19.5,11.1,37.5,30.6,40.1c19.5,2.6,37.5-11.1,40.1-30.6
						C200.5,388,186.8,370.1,167.3,367.5z M178.7,429.3c-3.6,3-9.8,5.6-14.5,4.8c-0.8-1.4,0.3-1.6,0.5-2.8c-2.4-0.9-3.7-3.4-4.7-5.6
						c-0.1-2.7,3.7-4.4,3.1-6.6c-1.7,0-3.3-0.6-4.6-1.9c-0.6-0.7-1.1-1.4-1.4-2.2c-0.9-0.6-1.9-1.2-2.9-1.8
						c-3.1-1.7-6.5-3.4-8.6-6.4c0.5-2.4-0.7-4-2.1-5.7c-1.5-1.9-0.5-3.1-0.9-5.4c-0.3-1.5-0.9-2.9-0.6-4.5c0.3-1.5,0.9-3,1.7-4.5
						c1.4-2.7,3.3-5,4-8.1c0.4-1.3-1.7-1.9,0.2-3.2c1.9-1.3,4.2-2.8,6.6-2.5c1.2,0.2,1.8,0.9,3,0.7c1.2-0.2,2.4-0.2,3.7-0.2
						c2.5-0.1,4.9-0.2,7.1-1.4l0.1,0.2l2,0.3l0.2-0.1c2.4,2.6,9.2,2.6,7.5,7.6l-0.1,0.4c-2.3-0.1-4.4-0.8-6.5-1.8
						c-0.1,0.9-0.1,1.9-0.4,2.7c3.2,2.5,7.7,4.6,8.9,8.8c-1.8,1.7-3.6,0.6-5.6,0.3c-0.7,0.6-1.1,1.2-0.9,2.1
						c-1.7,0.6-3.4,1.3-4.1,3.1c-0.4,0.9-0.4,2.3-0.8,3.2c-0.7,1.2-2.1,1.8-2.8,2.9c-0.4,1.7,0.4,3.3-1.4,4.4
						c-2.4-0.3-2.4-2.3-4.2-3.2c-1.5-0.8-3.6-0.6-5.2-1.1c-2.4,0.6-3,6.5,0.4,5.9c1.5-0.3,1.8-1.4,3.8-0.8c1.4,1,0.3,2.7,0,4
						c1,0.8,2.5,0.5,3,1.9c0.1,0.8-0.7,2.4-0.3,3.1c0.9,1.9,4.8-0.5,5.8-0.7c2.8-0.5,5.9,0.1,8.6,0.4c1.9,1.9,5.3,1.5,6.9,4
						c1.3-0.1,2.4-0.6,3.3,0.5C185.3,424.5,181.8,427,178.7,429.3z"/>
				</g>
				<g id="usd_2_">
					<path class="st3" d="M263.1,498.4c2.2-16.2-12.5-21.5-17.1-23.4c-1.5-0.6-1.3-1-4.5-1.8l2.3-17c6.4,2,7.3,6,6.8,12.5l14,1.9
						c2.2-16.3-6.2-23.9-19-27l0.7-5.3l-6.5-0.9l-0.7,5.2c-11-0.2-22.3,5.3-24.1,18.5c-1.8,13.3,7.5,18.8,16.9,22.9
						c0.5,0.2,1,0.5,1.6,0.7l-2.6,19.5c-4.9-2.2-7.9-6.1-7-12.6l-14.1-1.9c-1.9,13,7,23.8,19.4,27l-0.7,5.3l6.5,0.9l0.7-5.1
						C251.8,518.7,261.5,510.6,263.1,498.4z M229,461.8c0.6-4.8,4.5-6.7,8.3-6.8l-2,15C229.8,467.1,228.5,465.4,229,461.8z
						 M237.1,505.6l2.4-17.7c6.3,2.7,9.2,5.4,8.5,10.3C247.2,504.2,243.6,505.9,237.1,505.6z"/>
				</g>
				<g>
					<g>
						<g id="cogwheel_7_">
							<path class="st3" d="M441.5,361.9c0.1-2.8,0-5.5-0.3-8.3c-0.3-2.8-0.8-5.5-1.5-8.2l-17.4-2.4c-1.5-4-3.6-7.7-6.1-11.1
								l7.3-15.9c-3.8-4-8.2-7.5-12.9-10.4l-13.9,10.6c-3.8-1.7-7.9-2.9-12.1-3.6l-6.1-16.4c-2.8-0.1-5.5,0-8.3,0.3
								c-2.8,0.3-5.5,0.8-8.2,1.5l-2.4,17.4c-4,1.5-7.7,3.6-11.1,6.1l-15.9-7.3c-4,3.8-7.5,8.2-10.4,12.9l10.6,13.9
								c-1.7,3.8-2.9,7.9-3.6,12.1l-16.4,6.1c-0.1,2.8,0,5.5,0.3,8.3c0.3,2.8,0.8,5.5,1.5,8.2l17.4,2.4c1.5,4,3.6,7.7,6.1,11.1
								l-7.3,15.9c3.8,4,8.2,7.5,12.9,10.4l13.9-10.6c3.8,1.7,7.9,2.9,12.1,3.6l6.1,16.4c2.8,0.1,5.5,0,8.3-0.3
								c2.8-0.3,5.5-0.8,8.2-1.5l2.4-17.4c4-1.5,7.7-3.6,11.1-6.1l15.9,7.3c4-3.8,7.5-8.2,10.4-12.9l-10.6-13.9
								c1.7-3.8,2.9-7.8,3.6-12.1L441.5,361.9z M381.6,400.5c-22,2.4-41.9-13.5-44.2-35.6c-2.3-22,13.5-41.9,35.6-44.2
								c22-2.4,41.9,13.5,44.2,35.6C419.4,378.3,403.6,398.1,381.6,400.5z M381,395.2c-19.1,2.1-36.3-11.8-38.3-30.8
								c-2.1-19.1,11.8-36.3,30.8-38.3c19.1-2.1,36.3,11.8,38.3,30.8C413.9,375.9,400.1,393.1,381,395.2z"/>
						</g>
						<g id="cogwheel_6_">
							<path class="st4" d="M577.9,374.7c0.6-2.7,1.2-5.3,1.4-8.2c0.3-2.8,0.4-5.5,0.3-8.3l-16.5-6c-0.7-4.2-1.9-8.3-3.7-12.1
								l10.5-14c-2.9-4.7-6.4-9-10.5-12.8l-15.9,7.4c-3.4-2.4-7.1-4.5-11.1-6l-2.5-17.4c-2.7-0.6-5.3-1.2-8.2-1.4
								c-2.8-0.3-5.5-0.4-8.3-0.3l-6,16.5c-4.2,0.7-8.3,1.9-12.1,3.7l-14-10.5c-4.7,2.9-9,6.4-12.8,10.5l7.4,15.9
								c-2.5,3.4-4.5,7.1-6,11.1l-17.4,2.5c-0.6,2.7-1.2,5.3-1.4,8.2c-0.3,2.8-0.4,5.5-0.3,8.3l16.5,6c0.7,4.2,1.9,8.3,3.7,12.1
								l-10.3,13.9c2.9,4.7,6.4,9,10.5,12.8l15.9-7.4c3.4,2.4,7.1,4.5,11.1,6l2.5,17.4c2.7,0.6,5.3,1.2,8.2,1.4
								c2.8,0.3,5.5,0.4,8.3,0.3l6-16.5c4.2-0.7,8.3-1.9,12.1-3.7l14,10.5c4.7-2.9,9-6.4,12.8-10.5l-7.5-15.9
								c2.4-3.4,4.5-7.1,6-11.1L577.9,374.7z M511.2,399.9c-22-2.2-38.1-21.9-35.8-44c2.2-22,21.9-38.1,44-35.8
								c22,2.2,38.1,21.9,35.8,44C552.9,386.2,533.3,402.1,511.2,399.9z M511.8,394.5c-19.1-2-33-19-31.1-38.1
								c2-19.1,19-33,38.1-31.1c19.1,2,33,19,31.1,38.1S530.9,396.4,511.8,394.5z"/>
						</g>
						<g id="cogwheel_5_">
							<path class="st5" d="M502.2,276.3c1.3-2.4,2.6-4.8,3.7-7.5c1.1-2.6,1.9-5.3,2.6-7.9l-14.2-10.3c0.5-4.3,0.5-8.5-0.1-12.7
								l14-10.5c-1.5-5.3-3.7-10.5-6.4-15.2l-17.3,2.7c-2.6-3.3-5.6-6.2-9-8.8l2.5-17.4c-2.4-1.3-4.8-2.6-7.5-3.7
								c-2.6-1.1-5.3-1.9-7.9-2.6l-10.3,14.2c-4.3-0.5-8.5-0.5-12.6,0.1l-10.5-14c-5.3,1.5-10.5,3.7-15.2,6.4l2.7,17.3
								c-3.3,2.6-6.3,5.6-8.9,9l-17.4-2.5c-1.3,2.4-2.6,4.8-3.7,7.5c-1.1,2.6-1.9,5.3-2.6,7.9l14.2,10.3c-0.5,4.3-0.5,8.5,0.1,12.7
								l-14,10.5c1.5,5.3,3.7,10.5,6.4,15.2l17.3-2.7c2.6,3.3,5.6,6.2,9,8.8l-2.5,17.4c2.4,1.3,4.8,2.6,7.5,3.7
								c2.6,1.1,5.3,1.9,7.9,2.6l10.3-14.2c4.3,0.5,8.5,0.5,12.7-0.1l10.5,14c5.3-1.5,10.5-3.7,15.2-6.4l-2.7-17.3
								c3.3-2.6,6.2-5.6,8.8-9L502.2,276.3z M431.2,281.8c-20.5-8.4-30.4-31.8-22-52.3c8.4-20.5,31.8-30.4,52.3-22
								s30.4,31.8,22,52.3S451.7,290.2,431.2,281.8z M433.2,276.8c-17.7-7.2-26.4-27.5-19.1-45.3c7.2-17.7,27.5-26.4,45.3-19.1
								s26.3,27.5,19.1,45.3C471.2,275.4,451,284,433.2,276.8z"/>
						</g>
						<g>
							<g>
								<path d="M489.4,346.9c1.1-1,2.6-1.8,3.9-1.1c3.8,2.3,7.9,1.7,11.9,1.8c1.4,0.1,3-0.1,3.5,1.6c0.6,1.7,0.1,3.2-1.3,4.3
									c-2.9,2.3-4.8,5.1-6.1,8.6c-0.3,1-1,2.1-2.3,1.7c-1.7-0.6-1-1.9-0.7-3.1c1-3.9,3.4-6.9,6.9-10.2c-4.1,0.1-7.4-0.7-10.5,1.3
									c-1.8,1.3-3.8,0.8-5.4-0.6C489.4,349.8,489.4,348.4,489.4,346.9z"/>
								<path d="M542.9,351.3c-1.6,1.5-3.5,1.8-5.4,0.6c-3.1-1.9-6.4-1.1-10.9-1.3c4.1,3.3,6.4,6.5,7.4,10.5c0.2,1,0.5,2.3-0.9,2.6
									c-1.3,0.3-1.9-0.6-2.3-1.7c-0.9-3.7-3.2-6.3-6.1-8.6c-1.4-1.1-1.8-2.6-1.4-4.2c0.6-1.8,2.2-1.6,3.5-1.6
									c4-0.2,8.1,0.5,11.9-1.8c1.3-0.8,2.7,0.2,3.9,1.1C542.9,348.4,542.9,349.8,542.9,351.3z"/>
								<path d="M516,355.6c-6.5,1.6-6.4-2.3-6.7-6.9c-0.5-5.9,2.5-6.3,7.3-6.6c5.9-0.3,6.4,2.5,6.5,7.3
									C523.2,355.1,521,357,516,355.6z"/>
								<path d="M498.7,378.2c-5.9,1.4-6.4-1.9-6.6-6.7c-0.2-5.7,2.2-6.6,7.1-6.7c5.7-0.2,6.6,2.2,6.7,7.2
									C506.1,377.4,504.1,379.3,498.7,378.2z"/>
								<path d="M539.8,372c1.5,6.1-2.2,6.3-6.9,6.5c-5.8,0.3-6.4-2.3-6.6-7.2c-0.2-5.8,2.3-6.5,7.2-6.6
									C539.2,364.4,540.9,366.7,539.8,372z"/>
							</g>
						</g>
						<g class="st6">
							<path d="M435.4,248.4H425l-2.4,6.4h-3.4l9.6-24.8h2.9l9.4,24.8h-3.4L435.4,248.4z M426.1,245.6h8.3l-4.1-11.3h-0.1
								L426.1,245.6z"/>
							<path d="M447.9,244.8v9.9h-3.4V230h9.5c2.6,0,4.7,0.7,6.2,2s2.2,3.2,2.2,5.4c0,2.3-0.7,4.1-2.2,5.4s-3.5,2-6.2,2H447.9z
								 M447.9,242.2h6.1c1.7,0,2.9-0.5,3.8-1.4c0.8-0.9,1.2-2,1.2-3.4c0-1.4-0.4-2.5-1.3-3.4c-0.8-0.9-2.1-1.4-3.8-1.4h-6.1V242.2z
								"/>
							<path d="M470.4,254.8h-3.4V230h3.4V254.8z"/>
						</g>
						<g>
							<g>
								<path d="M355.9,367.3c0.2-1.5,0.9-3,2-4.2c1.5-1.8,3.5-2.6,5.8-2.8c0.1,0,0.3,0,0.4,0c1.2,0,0.9-0.2,1.4,1
									c1.7,3.7,3.3,7.6,5,11.4c0,0.1,0.1,0.1,0.1,0.3c0.1-0.3,0.2-0.7,0.2-1c0.4-1.8,0.9-3.6,1.3-5.4c0.1-0.3,0-0.4-0.2-0.7
									c-0.9-0.9-1.8-1.8-2.6-2.6c-0.2-0.2-0.2-0.3,0.1-0.6c1.1-0.8,2.2-1.5,3.4-2.2c0.2-0.1,0.4-0.2,0.7,0
									c1.1,0.8,2.3,1.5,3.4,2.3c0.3,0.2,0.2,0.3,0,0.6c-0.9,0.9-1.8,1.8-2.6,2.6c-0.2,0.2-0.2,0.3-0.2,0.7c0.6,2.1,1,4.2,1.5,6.3
									c0,0,0,0.1,0.1,0.2c0.2-0.6,0.4-1.1,0.8-1.7c1.5-3.5,3.1-7.2,4.6-10.7c0.1-0.3,0.3-0.4,0.7-0.4c1.7-0.1,3.3,0.2,4.7,1
									c1.5,0.9,2.8,2.2,3.4,4c0.1,0.3,0,0.4-0.3,0.4c-0.4,0-0.9,0-1.3,0c-0.3,0-0.4,0.1-0.4,0.4c0,1.4,0,3,0,4.4
									c0,0.4-0.1,0.6-0.6,0.6c-1.4,0-2.9,0-4.3,0c-0.3,0-0.4,0.1-0.4,0.4c0,0.6,0,1.2,0,1.8c0,0.3-0.1,0.4-0.4,0.4
									c-1.4,0-3,0-4.4,0c-0.3,0-0.4,0.1-0.4,0.4c0,1.4,0,3,0,4.4c0,0.3-0.1,0.6-0.4,0.6c-5.7,0-11.4,0-17.2,0
									c-1.5,0-3.1-1.2-3.6-2.8c0-0.1-0.1-0.3-0.1-0.4C355.9,373.1,355.9,370.2,355.9,367.3z"/>
								<path d="M374.5,339.2c1.2,0.2,2.3,0.6,3.3,1.1c2.8,1.5,4.4,3.9,4.8,6.9c0.7,4.5-2,8.8-6.3,10.2c-3.4,1.1-6.5,0.4-9.2-1.9
									c-1.9-1.5-2.9-3.6-3.1-6.1c-0.4-5,2.8-9.1,7.5-10.2c0.2,0,0.4-0.1,0.8-0.1C372.8,339.2,373.7,339.2,374.5,339.2z"/>
								<path d="M392.3,339.2c0.7,0.3,1,0.8,1,1.5c0,1.1,0,1.2,1.2,1.1c0.9,0,1.5,0.7,1.5,1.4c0,0.8-0.6,1.3-1.3,1.3
									c-0.9,0-1.7,0-2.5,0c-0.7,0-1.2,0.3-1.4,0.9c-0.2,0.9,0.3,1.7,1.4,1.7c1.8,0.1,3.3,1.3,3.7,3.1c0.4,1.9-0.4,3.7-2.2,4.6
									c-0.3,0.1-0.4,0.3-0.4,0.7c0,0.3,0,0.8,0,1.1c0,0.8-0.6,1.3-1.3,1.3c-0.9,0-1.4-0.6-1.4-1.3c0-0.3,0-0.7,0-1
									c0-0.2-0.1-0.3-0.3-0.3c-0.3,0-0.7,0-1,0c-0.8,0-1.3-0.6-1.3-1.3s0.6-1.3,1.3-1.3c0.9,0,1.8,0,2.5,0c0.8,0,1.3-0.4,1.4-1
									c0.1-0.7-0.2-1.3-1-1.5c-0.3-0.1-0.8-0.1-1.1-0.1c-1.8-0.3-3-1.8-3.2-3.4c-0.2-1.8,0.7-3.4,2.3-4.2c0.2-0.1,0.4-0.2,0.3-0.6
									c0-0.3,0-0.7,0-1c0-0.8,0.3-1.2,1-1.5C391.8,339.2,392.1,339.2,392.3,339.2z"/>
								<path d="M395.9,381.9c0-1.4,0-3,0-4.4c0-5.5,0-10.9,0-16.4c0-0.7,0-0.7,0.7-0.7s1.4,0,2.1,0c0,7,0,14,0,21
									c0,0.3,0,0.3-0.3,0.3C397.5,381.8,396.7,381.9,395.9,381.9z"/>
								<path d="M390.7,381.9c0-1.2,0-2.5,0-3.7c0-3,0-6.1,0-9c0-0.4,0.1-0.6,0.6-0.6c0.6,0,1.1,0,1.8,0c0.4,0,0.6,0.1,0.4,0.6
									c0,2.6,0,5.4,0,8c0,1.4,0,2.9,0,4.3c0,0.2,0,0.3,0,0.6C392.4,381.9,391.5,381.9,390.7,381.9z"/>
								<path d="M385.3,381.9c0-1.2,0-2.3,0-3.5c0-1.3,0-2.6,0-4.1c0-0.3,0.1-0.4,0.4-0.4c0.7,0,1.3,0,1.9,0c0.2,0,0.3,0,0.3,0.3
									c0,2.5,0,5.2,0,7.7C387,381.9,386.1,381.9,385.3,381.9z"/>
								<path d="M380,381.9c0-1.7,0-3.4,0-5.1c0-0.2,0.1-0.3,0.3-0.3c0.7,0,1.4,0,2.1,0c0.2,0,0.3,0.1,0.3,0.3c0,1.7,0,3.4,0,5.1
									C381.7,381.9,380.9,381.9,380,381.9z"/>
							</g>
						</g>
					</g>
				</g>
				<g id="database_x5F_lock_1_">
					<path class="st3" d="M340.4,574.2c0.2,0.4,0.3,0.9,0.2,1.3l-1.4,10.7c-0.5,4-13,5.5-27.8,3.5c-14.8-2-26.4-6.8-25.9-10.8
						l1.4-10.7c0.1-0.4,0.3-0.8,0.6-1.2c6.7,5.5,22,7.8,25.8,8.4C317.1,575.9,332.4,577.7,340.4,574.2z M315.7,557.5
						c-3.8-0.5-19-2.9-25.8-8.4c-0.3,0.4-0.5,0.8-0.6,1.2l-1.4,10.7c-0.5,4,11.1,8.8,25.9,10.8s27.3,0.4,27.8-3.5l1.4-10.7
						c0.1-0.4-0.1-0.8-0.2-1.3C334.8,559.8,319.5,558,315.7,557.5z M318.1,539.6c-3.8-0.5-19-2.9-25.8-8.4c-0.3,0.4-0.5,0.8-0.6,1.2
						l-1.4,10.7c-0.5,4,11.1,8.8,25.9,10.8c14.8,2,27.3,0.4,27.8-3.5l1.4-10.7c0.1-0.4-0.1-0.8-0.2-1.3
						C337.3,541.9,321.9,540.1,318.1,539.6z M347.8,521.7l-1.4,10.7c-0.5,4-13,5.5-27.8,3.5c-14.8-2-26.4-6.8-25.9-10.8l1.4-10.7
						c0.5-4,13-5.5,27.8-3.5C336.9,513,348.4,517.8,347.8,521.7z M332.8,517.9c0.2-1.3-4.9-3-11.2-3.8s-11.7-0.5-11.9,0.7
						c-0.2,1.2,4.9,3,11.2,3.8C327.4,519.5,332.6,519.2,332.8,517.9z"/>
				</g>
			</g>
			<g class="st6">
				<path class="st7" d="M181,162.7c-0.2-4-0.5-8.8-0.4-12.4h-0.1c-1,3.4-2.2,6.9-3.6,10.9l-5.1,13.9H169l-4.6-13.6
					c-1.4-4-2.5-7.7-3.3-11.1h-0.1c-0.1,3.6-0.3,8.4-0.6,12.7l-0.8,12.3h-3.5l2-28.6h4.7l4.9,13.8c1.2,3.5,2.2,6.7,2.9,9.6h0.1
					c0.7-2.9,1.7-6,3-9.6l5.1-13.8h4.7l1.8,28.6h-3.6L181,162.7z"/>
				<path class="st7" d="M190.5,170.8c1.7,1,4.1,1.9,6.6,1.9c3.8,0,6-2,6-4.9c0-2.7-1.5-4.2-5.4-5.7c-4.7-1.7-7.6-4.1-7.6-8.1
					c0-4.5,3.7-7.8,9.3-7.8c2.9,0,5.1,0.7,6.3,1.4l-1,3c-0.9-0.5-2.8-1.4-5.4-1.4c-3.9,0-5.4,2.3-5.4,4.3c0,2.7,1.7,4,5.7,5.5
					c4.8,1.9,7.3,4.2,7.3,8.4c0,4.4-3.3,8.2-10,8.2c-2.8,0-5.8-0.8-7.3-1.8L190.5,170.8z"/>
				<path class="st7" d="M211.9,146.7h15.4v3.1h-11.7v9.5h10.8v3.1h-10.8v13h-3.7V146.7z"/>
			</g>
			<g class="st6">
				<path class="st8" d="M181,162.7c-0.2-4-0.5-8.8-0.4-12.4h-0.1c-1,3.4-2.2,6.9-3.6,10.9l-5.1,13.9H169l-4.6-13.6
					c-1.4-4-2.5-7.7-3.3-11.1h-0.1c-0.1,3.6-0.3,8.4-0.6,12.7l-0.8,12.3h-3.5l2-28.6h4.7l4.9,13.8c1.2,3.5,2.2,6.7,2.9,9.6h0.1
					c0.7-2.9,1.7-6,3-9.6l5.1-13.8h4.7l1.8,28.6h-3.6L181,162.7z"/>
				<path class="st8" d="M190.5,170.8c1.7,1,4.1,1.9,6.6,1.9c3.8,0,6-2,6-4.9c0-2.7-1.5-4.2-5.4-5.7c-4.7-1.7-7.6-4.1-7.6-8.1
					c0-4.5,3.7-7.8,9.3-7.8c2.9,0,5.1,0.7,6.3,1.4l-1,3c-0.9-0.5-2.8-1.4-5.4-1.4c-3.9,0-5.4,2.3-5.4,4.3c0,2.7,1.7,4,5.7,5.5
					c4.8,1.9,7.3,4.2,7.3,8.4c0,4.4-3.3,8.2-10,8.2c-2.8,0-5.8-0.8-7.3-1.8L190.5,170.8z"/>
				<path class="st8" d="M211.9,146.7h15.4v3.1h-11.7v9.5h10.8v3.1h-10.8v13h-3.7V146.7z"/>
			</g>
			<g class="st6">
				<path class="st7" d="M170.2,214.5v-17.7h-2.9v-2.8h2.9v-1c0-2.9,0.6-5.5,2.4-7.2c1.4-1.4,3.3-1.9,5-1.9c1.3,0,2.5,0.3,3.2,0.6
					l-0.5,2.9c-0.6-0.3-1.3-0.5-2.4-0.5c-3.2,0-4,2.8-4,5.9v1.1h5v2.8h-5v17.7H170.2z"/>
				<path class="st7" d="M200.2,204c0,7.6-5.3,10.9-10.2,10.9c-5.6,0-9.9-4.1-9.9-10.6c0-6.9,4.5-10.9,10.2-10.9
					C196.3,193.5,200.2,197.8,200.2,204z M183.9,204.3c0,4.5,2.6,7.9,6.2,7.9c3.6,0,6.2-3.4,6.2-8c0-3.5-1.7-7.9-6.2-7.9
					C185.9,196.3,183.9,200.3,183.9,204.3z"/>
				<path class="st7" d="M205,200.3c0-2.4,0-4.5-0.2-6.4h3.3l0.1,4h0.2c0.9-2.8,3.2-4.5,5.7-4.5c0.4,0,0.7,0,1.1,0.1v3.5
					c-0.4-0.1-0.8-0.1-1.3-0.1c-2.6,0-4.5,2-5,4.8c-0.1,0.5-0.2,1.1-0.2,1.7v11H205V200.3z"/>
			</g>
			<g class="st6">
				<path class="st8" d="M170.2,214.5v-17.7h-2.9v-2.8h2.9v-1c0-2.9,0.6-5.5,2.4-7.2c1.4-1.4,3.3-1.9,5-1.9c1.3,0,2.5,0.3,3.2,0.6
					l-0.5,2.9c-0.6-0.3-1.3-0.5-2.4-0.5c-3.2,0-4,2.8-4,5.9v1.1h5v2.8h-5v17.7H170.2z"/>
				<path class="st8" d="M200.2,204c0,7.6-5.3,10.9-10.2,10.9c-5.6,0-9.9-4.1-9.9-10.6c0-6.9,4.5-10.9,10.2-10.9
					C196.3,193.5,200.2,197.8,200.2,204z M183.9,204.3c0,4.5,2.6,7.9,6.2,7.9c3.6,0,6.2-3.4,6.2-8c0-3.5-1.7-7.9-6.2-7.9
					C185.9,196.3,183.9,200.3,183.9,204.3z"/>
				<path class="st8" d="M205,200.3c0-2.4,0-4.5-0.2-6.4h3.3l0.1,4h0.2c0.9-2.8,3.2-4.5,5.7-4.5c0.4,0,0.7,0,1.1,0.1v3.5
					c-0.4-0.1-0.8-0.1-1.3-0.1c-2.6,0-4.5,2-5,4.8c-0.1,0.5-0.2,1.1-0.2,1.7v11H205V200.3z"/>
			</g>
			<g class="st6">
				<path class="st7" d="M152.9,244.7l-3,9h-3.8l9.7-28.6h4.5l9.8,28.6h-3.9l-3.1-9H152.9z M162.3,241.8l-2.8-8.2
					c-0.6-1.9-1.1-3.6-1.5-5.2h-0.1c-0.4,1.7-0.9,3.4-1.4,5.2l-2.8,8.3H162.3z"/>
				<path class="st7" d="M191.3,233.1c-0.1,1.5-0.2,3.1-0.2,5.6v11.9c0,4.7-0.9,7.6-2.9,9.4c-2,1.9-4.9,2.5-7.5,2.5
					c-2.5,0-5.2-0.6-6.8-1.7l0.9-2.8c1.4,0.8,3.5,1.6,6,1.6c3.8,0,6.6-2,6.6-7.2v-2.3h-0.1c-1.1,1.9-3.4,3.4-6.5,3.4
					c-5.1,0-8.7-4.3-8.7-10c0-7,4.5-10.9,9.3-10.9c3.6,0,5.5,1.9,6.4,3.6h0.1l0.2-3.1H191.3z M187.5,241.2c0-0.6,0-1.2-0.2-1.7
					c-0.7-2.2-2.5-3.9-5.2-3.9c-3.6,0-6.1,3-6.1,7.8c0,4,2,7.4,6.1,7.4c2.3,0,4.4-1.4,5.2-3.8c0.2-0.6,0.3-1.4,0.3-2V241.2z"/>
				<path class="st7" d="M201.3,227.4c0,1.3-0.9,2.3-2.4,2.3c-1.3,0-2.3-1-2.3-2.3c0-1.3,1-2.3,2.3-2.3
					C200.4,225,201.3,226,201.3,227.4z M197.1,253.7v-20.6h3.7v20.6H197.1z"/>
				<path class="st7" d="M207,223.5h3.7v30.2H207V223.5z"/>
				<path class="st7" d="M219.1,244.1c0.1,5.1,3.3,7.1,7,7.1c2.7,0,4.3-0.5,5.7-1.1l0.6,2.7c-1.3,0.6-3.6,1.3-6.8,1.3
					c-6.3,0-10.1-4.2-10.1-10.4c0-6.2,3.7-11.1,9.6-11.1c6.7,0,8.5,5.9,8.5,9.7c0,0.8-0.1,1.4-0.1,1.7H219.1z M230.1,241.4
					c0-2.4-1-6.1-5.2-6.1c-3.8,0-5.4,3.5-5.7,6.1H230.1z"/>
			</g>
			<g class="st6">
				<path class="st8" d="M152.9,244.7l-3,9h-3.8l9.7-28.6h4.5l9.8,28.6h-3.9l-3.1-9H152.9z M162.3,241.8l-2.8-8.2
					c-0.6-1.9-1.1-3.6-1.5-5.2h-0.1c-0.4,1.7-0.9,3.4-1.4,5.2l-2.8,8.3H162.3z"/>
				<path class="st8" d="M191.3,233.1c-0.1,1.5-0.2,3.1-0.2,5.6v11.9c0,4.7-0.9,7.6-2.9,9.4c-2,1.9-4.9,2.5-7.5,2.5
					c-2.5,0-5.2-0.6-6.8-1.7l0.9-2.8c1.4,0.8,3.5,1.6,6,1.6c3.8,0,6.6-2,6.6-7.2v-2.3h-0.1c-1.1,1.9-3.4,3.4-6.5,3.4
					c-5.1,0-8.7-4.3-8.7-10c0-7,4.5-10.9,9.3-10.9c3.6,0,5.5,1.9,6.4,3.6h0.1l0.2-3.1H191.3z M187.5,241.2c0-0.6,0-1.2-0.2-1.7
					c-0.7-2.2-2.5-3.9-5.2-3.9c-3.6,0-6.1,3-6.1,7.8c0,4,2,7.4,6.1,7.4c2.3,0,4.4-1.4,5.2-3.8c0.2-0.6,0.3-1.4,0.3-2V241.2z"/>
				<path class="st8" d="M201.3,227.4c0,1.3-0.9,2.3-2.4,2.3c-1.3,0-2.3-1-2.3-2.3c0-1.3,1-2.3,2.3-2.3
					C200.4,225,201.3,226,201.3,227.4z M197.1,253.7v-20.6h3.7v20.6H197.1z"/>
				<path class="st8" d="M207,223.5h3.7v30.2H207V223.5z"/>
				<path class="st8" d="M219.1,244.1c0.1,5.1,3.3,7.1,7,7.1c2.7,0,4.3-0.5,5.7-1.1l0.6,2.7c-1.3,0.6-3.6,1.3-6.8,1.3
					c-6.3,0-10.1-4.2-10.1-10.4c0-6.2,3.7-11.1,9.6-11.1c6.7,0,8.5,5.9,8.5,9.7c0,0.8-0.1,1.4-0.1,1.7H219.1z M230.1,241.4
					c0-2.4-1-6.1-5.2-6.1c-3.8,0-5.4,3.5-5.7,6.1H230.1z"/>
			</g>
		</g>
	</g>
</g>
</svg>
