<?xml version="1.0" encoding="utf-8"?>
<!-- Generator: Adobe Illustrator 20.0.0, SVG Export Plug-In . SVG Version: 6.00 Build 0)  -->
<svg version="1.1" id="Layer_1" xmlns="http://www.w3.org/2000/svg" xmlns:xlink="http://www.w3.org/1999/xlink" x="0px" y="0px"
	 viewBox="0 0 612 612" style="enable-background:new 0 0 612 612;" xml:space="preserve">
<style type="text/css">
	.st0{opacity:0.8;fill:#7CC8A8;enable-background:new    ;}
	.st1{fill:none;stroke:#FFFFFF;stroke-width:4;stroke-miterlimit:10;}
	.st2{fill:none;stroke:#FFFFFF;stroke-miterlimit:10;}
	.st3{fill:none;stroke:#FFFFFF;stroke-miterlimit:10;stroke-dasharray:3.9807,3.9807;}
	.st4{fill:none;stroke:#FFFFFF;stroke-miterlimit:10;stroke-dasharray:3.9919,3.9919;}
	.st5{fill:none;stroke:#FFFFFF;stroke-miterlimit:10;stroke-dasharray:3.989,3.989;}
	.st6{fill:#FFFFFF;}
	.st7{fill:#2C5871;}
	.st8{fill:#0E303F;}
	.st9{fill:#D0EAF9;}
	.st10{opacity:0.66;}
	.st11{opacity:0.66;fill:#2C5871;enable-background:new    ;}
	.st12{fill:#A6D9E8;}
	.st13{fill:#8FC3D5;}
	.st14{fill:#919191;}
	.st15{fill:#95989C;}
	.st16{fill:#F16228;}
	.st17{opacity:0.3;}
	.st18{fill:#FEFEFE;}
	.st19{opacity:0.8;fill:url(#SVGID_1_);enable-background:new    ;}
	.st20{fill:#FFFFFF;stroke:#0E80C2;stroke-width:1.2087;stroke-miterlimit:10;}
	.st21{fill:#0E80C2;}
	.st22{fill:#FFFFFF;stroke:#0E80C2;stroke-width:1.5813;stroke-miterlimit:10;}
	.st23{enable-background:new    ;}
	.st24{fill:#7CC8A8;stroke:#FFFFFF;stroke-width:3;stroke-miterlimit:10;}
	.st25{clip-path:url(#SVGID_3_);fill:#FFFFFF;}
	.st26{clip-path:url(#SVGID_5_);fill:#FFFFFF;}
	.st27{clip-path:url(#SVGID_7_);fill:#FFFFFF;}
	.st28{clip-path:url(#SVGID_9_);fill:#FFFFFF;}
	.st29{clip-path:url(#SVGID_11_);fill:#FFFFFF;}
</style>
<g>
	<circle class="st0" cx="306" cy="306" r="306"/>
	<g>
		<g id="line_1_">
			<g>
				<path class="st1" d="M449.3,477.5c46.4-39.4,75.8-98.2,75.8-164c0-118.7-96.2-215-215-215s-215,96.2-215,215
					c0,63.1,27.1,119.7,70.4,159"/>
				<g>
					<g>
						<path class="st2" d="M393.5,84.7c-0.6-0.2-1.3-0.5-1.9-0.7"/>
						<path class="st3" d="M387.8,82.6C363.5,74.4,337.3,70,310.2,70C175.7,70,66.6,179,66.6,313.5c0,98.7,58.7,183.7,143.2,221.9"
							/>
						<path class="st2" d="M211.6,536.3c0.6,0.3,1.2,0.5,1.8,0.8"/>
					</g>
				</g>
				<g>
					<g>
						<path class="st2" d="M488.7,216.8c-0.3-0.6-0.6-1.2-1-1.8"/>
						<path class="st4" d="M485.7,211.5c-35.2-60.3-100.6-101-175.5-101c-112.1,0-203,90.8-203,203c0,31.3,7.1,61,19.8,87.5"/>
						<path class="st2" d="M127.9,402.8c0.3,0.6,0.6,1.2,0.9,1.8"/>
					</g>
				</g>
				<g>
					<g>
						<path class="st2" d="M395.3,527.5c0.6-0.2,1.2-0.5,1.9-0.7"/>
						<path class="st5" d="M401,525.2c82-35.3,139.4-116.8,139.4-211.7c0-127.1-103.1-230.3-230.3-230.3
							c-82.4,0-154.7,43.3-195.5,108.5"/>
						<path class="st2" d="M113.7,193.4c-0.3,0.6-0.7,1.1-1,1.7"/>
					</g>
				</g>
			</g>
			<polygon class="st6" points="390.9,88.6 396,79.5 401.3,88.6 			"/>
			<polygon class="st6" points="483.4,219.2 492.9,214.5 492.3,225 			"/>
			<polygon class="st6" points="117.6,197.2 109.1,203.3 108,192.8 			"/>
			<circle class="st6" cx="213.3" cy="537.1" r="3"/>
			<circle class="st6" cx="128.8" cy="404.7" r="3"/>
			<circle class="st6" cx="394.8" cy="527.5" r="3"/>
		</g>
		<g id="chemistry">
			<circle class="st7" cx="466.5" cy="151.9" r="41.8"/>
			<path class="st8" d="M474.5,126.4l-7.5,21.4l3.5,3.5l-2,7.6l-9.1-9.1l-7.5,24.4l16.2,19.3c21.6-0.8,39.1-18,40.2-39.6
				L474.5,126.4z"/>
			<g id="charts_1_">
				<path class="st6" d="M490.2,170.9v-30c0-0.6-0.5-1-1-1h-8.3c-0.6,0-1,0.5-1,1v30h-2v-44.5c0-0.6-0.5-1-1-1h-8.3
					c-0.6,0-1,0.5-1,1v44.5h-2v-21.7c0-0.6-0.5-1-1-1h-8.3c-0.6,0-1,0.5-1,1v21.7h-2v-9.3c0-0.6-0.5-1-1-1H444c-0.6,0-1,0.5-1,1v1
					v8.3h-4.2v4.2h55.9v-2v-2h-4.3v-0.2H490.2z"/>
			</g>
		</g>
		<g id="Art_palette">
			<circle class="st7" cx="453.6" cy="477.8" r="44.9"/>
			<path class="st8" d="M474.4,454.2l4.4,4.4l-2.6,2.6l-0.3-0.3l-2.4,2.4l-9.2-9.2l-26.6,26.6l11.1,11.1l-9.7,9.7l20.9,20.9
				c21.9-3,38.6-21.8,38.6-44.4c0-2.9-0.3-5.8-0.8-8.6l-19.1-19.3L474.4,454.2z"/>
		</g>
		<g id="globe">
			<circle class="st6" cx="533.4" cy="298.1" r="44.9"/>
			<path class="st9" d="M515.6,317.8l25.3,25.3c19.8-2.9,35.4-18.8,37.9-38.6l-24.9-24.9L515.6,317.8z"/>
			<g id="pie_x5F_chart_1_">
				<g class="st10">
					<path class="st7" d="M505.9,297.6c0-15,12.2-27.1,27.2-27.1c7.5,0,14.2,3,19.1,7.9l-19.3,19.2v27.1
						C518.4,324.7,505.9,312.5,505.9,297.6z"/>
				</g>
				<path class="st11" d="M537.9,297.6l19.2-19.2c10.5,10.5,10.5,27.7,0,38.3L537.9,297.6z"/>
				<path class="st7" d="M535.3,299.8v27.1c7.3,0,13.9-2.6,19.2-7.9L535.3,299.8z"/>
			</g>
		</g>
		<g id="basketball">
			<circle class="st6" cx="152.1" cy="474.1" r="44.9"/>
			<path class="st9" d="M133.3,493.2l25.3,25.3c19.8-2.9,35.4-18.8,37.9-38.6L171.6,455L133.3,493.2z"/>
		</g>
		<g id="magnifying">
			<ellipse class="st7" cx="86.2" cy="317.4" rx="52.4" ry="52.4"/>
			<path class="st8" d="M71.3,339L93,369.5c19-3,37.9-17.3,42.6-36.9l-22-27.6L71.3,339z"/>
			<g id="settings_1_">
				<path class="st6" d="M96.5,322.7l16.5,15.1c0.5,0.5,0.5,1.3,0,1.8l-9,9c-0.5,0.5-1.3,0.5-1.8,0l-14.8-16.3L96.5,322.7z
					 M64.2,306.4c0.7,0,1.7,0.3,2.2,0.8l7.7,7.6l5-4.7l-7.9-7.7c-0.5-0.5-0.9-1.5-0.9-2.2l0.1-1.3c0-0.7-0.4-1.6-1-2l-7.3-4.8
					c-0.6-0.4-1.5-0.3-2,0.2l-3.7,3.7c-0.5,0.5-0.6,1.4-0.2,2l4.7,7.3c0.4,0.6,1.3,1,2,1L64.2,306.4z M116.4,302.6l-12.4,6.3
					l-7.2-11.5l12.8-6.8c-5-3.5-10.3-3.1-15.1-0.4c-6.4,3.5-9.1,11-7,17.6l-29.6,29.5c-1,1-1,2.6,0,3.7l5.5,5.5c1,1,2.6,1,3.7,0
					l3.7-3.7L96.5,317c4,1.4,8.5,1.1,12.5-1.1C113.8,313.1,116.9,308.6,116.4,302.6z"/>
			</g>
		</g>
		<g id="computer">
			<circle class="st12" cx="310.2" cy="90.5" r="52.5"/>
			<path class="st13" d="M362.7,90.5c0-3.5-0.4-7.1-1-10.5l-17.5-17.5l-19.8,19.8l-9.5-9.5l-38.6,38.5L308,143
				c0.7,0,1.4,0.1,2.2,0.1C339.2,143.1,362.7,119.5,362.7,90.5z"/>
			<g>
				<g>
					<g>
						<path class="st14" d="M302.1,108.7c-0.7,2.9-1.4,6-2.2,8.9c6.8,0,13.6,0,20.4,0c-0.7-2.9-1.4-6-2.2-8.9
							C312.8,108.7,307.5,108.7,302.1,108.7z"/>
						<path class="st15" d="M310.1,117.6c3.4,0,6.9,0,10.3,0c-0.7-2.9-1.4-6-2.2-8.9c-2.7,0-5.4,0-8.1,0L310.1,117.6L310.1,117.6z"
							/>
						<path class="st6" d="M321.6,117.4h-22.8c-0.6,0-1,0.5-1,1.2v0.5h24.9v-0.5C322.6,118,322.2,117.4,321.6,117.4z"/>
						<path class="st6" d="M275.8,105.2v4.9c0,0.9,0.8,1.7,1.7,1.7h65.3c0.9,0,1.7-0.8,1.7-1.7v-4.9H275.8L275.8,105.2z"/>
						<path class="st8" d="M344.5,105.2V63.7c0-0.9-0.8-1.7-1.7-1.7h-65.3c-0.9,0-1.7,0.8-1.7,1.7v41.6h68.7V105.2z"/>
						<rect x="278.6" y="64.6" class="st6" width="63.2" height="37.8"/>
					</g>
				</g>
				<g>
					<g>
						<rect x="285" y="71.3" class="st12" width="12.3" height="1"/>
						<rect x="326.5" y="71.3" class="st12" width="7.8" height="1"/>
						<rect x="316.6" y="71.3" class="st12" width="7.8" height="1"/>
						<rect x="306.8" y="71.3" class="st12" width="7.8" height="1"/>
						<g>
							<g>
								<rect x="285" y="76" class="st12" width="22.2" height="22"/>
								<path class="st12" d="M307.4,98.2h-22.8V75.7h22.8V98.2L307.4,98.2z M285.3,97.7h21.6V76.3h-21.6V97.7L285.3,97.7z"/>
							</g>
							<g>
								<path class="st12" d="M307.2,98.2H285c-0.1,0-0.2-0.1-0.3-0.2c0-0.1,0-0.2,0.1-0.3l22.2-22c0.1-0.1,0.2-0.1,0.3-0.1
									s0.2,0.1,0.2,0.2V98C307.4,98.1,307.3,98.2,307.2,98.2L307.2,98.2z M285.6,97.7h21.2v-21L285.6,97.7L285.6,97.7z"/>
							</g>
							<g>
								<path class="st12" d="M307.2,98.2H285c-0.2,0-0.3-0.1-0.3-0.3v-22c0-0.1,0.1-0.2,0.2-0.2s0.2,0,0.3,0.1l22.2,22
									c0.1,0.1,0.1,0.2,0.1,0.3C307.4,98.2,307.3,98.2,307.2,98.2L307.2,98.2z M285.3,97.7h21.2l-21.2-21V97.7L285.3,97.7z"/>
							</g>
						</g>
						<rect x="310.5" y="76.4" class="st16" width="13.2" height="1.6"/>
						<rect x="310.5" y="80.6" class="st12" width="23.8" height="1"/>
						<rect x="310.5" y="83.6" class="st12" width="20.2" height="1"/>
						<rect x="310.5" y="86.7" class="st12" width="22.4" height="1"/>
						<rect x="310.5" y="89.7" class="st12" width="17.4" height="1"/>
						<g>
							<rect x="310.5" y="93.6" class="st16" width="7.7" height="2.9"/>
							<rect x="311.7" y="94.6" class="st6" width="5.1" height="1"/>
						</g>
					</g>
					<g>
						<path class="st12" d="M336.8,65h-53.2c-0.9,0-1.6,0.6-1.6,1.4v2.7h56.5v-2.7C338.4,65.6,337.6,65,336.8,65z"/>
						<g>
							<ellipse class="st6" cx="284.3" cy="67.1" rx="0.9" ry="0.8"/>
							<ellipse class="st6" cx="286.8" cy="67.1" rx="0.9" ry="0.8"/>
							<ellipse class="st6" cx="289.4" cy="67.1" rx="0.9" ry="0.8"/>
						</g>
						<rect x="292.8" y="66.3" class="st6" width="43.3" height="1.4"/>
					</g>
				</g>
			</g>
		</g>
		<rect x="431.3" y="450.9" class="st7" width="44.7" height="55"/>
		<g id="men_1_">
			<g id="men">
				<circle class="st6" cx="151.8" cy="150.3" r="44.9"/>
			</g>
			<path class="st9" d="M196.6,153.5l-29.2-27.2l-12.7,11.8l-5.7-5.3l-17.1,16l5.7,5.3l-0.4,0.4l11.6,10.7L133,179.9l16.3,15.2
				c0.8,0,1.6,0.1,2.4,0.1C176.4,195.2,196.5,176.5,196.6,153.5z"/>
			<rect x="129.5" y="126.6" class="st6" width="46.9" height="46.7"/>
			<g id="stats_1_">
				<g>
					<path class="st7" d="M173,136.8c2.8,0,5.1-2.2,5.1-5.1c0-2.8-2.2-5.1-5.1-5.1s-5.1,2.2-5.1,5.1c0,1.2,0.5,2.3,1.2,3.2
						l-6.7,10.2c-0.5-0.2-1-0.3-1.5-0.3c-2.8,0-5.1,2.2-5.1,5.1c0,0.2,0,0.4,0.1,0.6l-9.4,4.2c-0.9-1-2.2-1.7-3.8-1.7
						c-2.8,0-5.1,2.2-5.1,5.1c0,0.9,0.3,1.8,0.7,2.6l-8.8,10.2v-44.2h-2h-2v50.6h2h48.6v-2v-2h-44.6l9.1-10.5c0.6,0.3,1.3,0.4,2,0.4
						c2.8,0,5.1-2.2,5.1-5.1c0-0.2,0-0.3-0.1-0.5l9.4-4.2c0.9,1,2.2,1.7,3.8,1.7c2.8,0,5.1-2.2,5.1-5.1c0-1.1-0.4-2.1-1-3l6.8-10.3
						C172.2,136.7,172.6,136.8,173,136.8z"/>
				</g>
				<g class="st17">
					<path class="st7" d="M132.7,167.1h-3.2v-2h5L132.7,167.1z M135.6,159h-6.1v-2h6.1v-6.1h-6.1v-2h6.1v-6.1h-6.1v-2h6.1v-6.1h-6.1
						v-2h6.1v-6.1h2v6.1h6.1v-6.1h2v6.1h6.1v-6.1h2v6.1h6.1v-6.1h2v6.1h6.1v-1c0,1.2,0.5,2.3,1.2,3.2l-1.2,1.8v-2h-6.1v6.1h3.4
						l-1.3,2h-2.1v2.2c-0.3-0.1-0.7-0.1-1-0.1s-0.7,0-1,0.1v-2.1h-6.1v6.1h2.1c-0.1,0.3-0.1,0.7-0.1,1c0,0.2,0,0.4,0.1,0.6l-0.8,0.3
						h-1.3v0.6l-2,0.9V151h-6.1v3.1c-0.6-0.4-1.3-0.8-2-0.9v-2.1h-6.1v6.1h0.1c-0.1,0.3-0.1,0.7-0.1,1s0.1,0.6,0.1,1h-0.1v2.5
						l-2,2.3L135.6,159L135.6,159z M153.8,140.8h6.1v-6.1h-6.1V140.8z M145.7,140.8h6.1v-6.1h-6.1V140.8z M145.7,148.8h6.1v-6.1
						h-6.1V148.8z M137.6,140.8h6.1v-6.1h-6.1V140.8z M137.6,148.8h6.1v-6.1h-6.1V148.8z M169.9,127.7v-1.1h-2v5.1
						C167.9,130.1,168.7,128.6,169.9,127.7z M169.9,140.8h6.1v2h-6.1v6.1h6.1v2h-6.1v6.1h6.1v2h-6.1v6.1h6.1v2h-6.1v6.1h-2v-6.1
						h-6.1v6.1h-2v-6.1h-6.1v6.1h-2v-6.1h-6.1v6.1h-2v-6.1h-6.1v6.1h-2v-4.7l2.9-3.4h5.2V163c0.7-0.2,1.4-0.5,2-0.9v3h6.1V159h-4.2
						c0.1-0.3,0.1-0.6,0.1-1c0-0.2,0-0.3-0.1-0.5l1.2-0.5h2.9v-1.3l2-0.9v2.2h6.1v-2.1c0.3,0.1,0.7,0.1,1,0.1s0.7,0,1-0.1v2.1h6.1
						v-6h-2.1c0.1-0.3,0.1-0.6,0.1-1s-0.1-0.7-0.1-1h2.1v-6.1h-0.3l2.3-3.5L169.9,140.8L169.9,140.8z M159.9,159h-6.1v6.1h6.1V159z
						 M167.9,159h-6.1v6.1h6.1V159z"/>
				</g>
			</g>
		</g>
		<g>
			<path class="st18" d="M429.6,449.1c16,0,32.1,0,48.2,0c0,20.2,0,40.4,0,60.4c-16,0-32.1,0-48.2,0
				C429.6,489.4,429.6,469.2,429.6,449.1z M431.3,505.9c14.9,0,29.8,0,44.7,0c0-18.4,0-36.7,0-55c-14.9,0-29.8,0-44.7,0
				C431.3,469.2,431.3,487.6,431.3,505.9z"/>
			<path class="st18" d="M461.5,463c1.4,0,2.8,0,4.3,0c0,12.1,0,24.1,0,36.3c0.6,0,1.2,0,1.8,0c0-6.6,0-13.3,0-19.9c1,0,2,0,3,0
				c0,6.6,0,13.3,0,19.9c1.2,0,2.4,0,3.7,0c0,0.2,0,0.4,0,0.6c-5.5,0-10.8,0-16.3,0c0-0.2,0-0.4,0-0.6c1.2,0,2.4,0,3.7,0
				C461.5,487.2,461.5,475.1,461.5,463z"/>
			<path class="st18" d="M446.3,464c-0.7,2.6-1.4,5.3-2.1,8c2.5-1.2,5-2.5,7.4-3.8c1.4,2.3,1.5,6.5-1.4,9.5s-7.7,3.3-11.1,0.8
				c-3.4-2.6-4.4-7.3-2.1-11C439.4,463.9,443.7,463.2,446.3,464z"/>
			<path class="st18" d="M464,453.5c0,0.7,0,1.4,0,2.1c-9.5,0-19.1,0-28.5,0c0-0.7,0-1.4,0-2.1C444.9,453.5,454.4,453.5,464,453.5z"
				/>
			<path class="st18" d="M446.4,469.2c0.7-2.7,1.4-5.4,2.1-8c1.9,0.3,4.7,2.5,5.3,4.3C451.4,466.7,449,468,446.4,469.2z"/>
			<path class="st18" d="M435.4,499.7c0-0.4,0-0.8,0-1.3c5.9,0,11.7,0,17.5,0c0,0.2,0,0.4,0,0.6s0,0.4,0,0.6
				C447.1,499.7,441.3,499.7,435.4,499.7z"/>
			<path class="st18" d="M435.4,490.1c0-0.4,0-0.8,0-1.3c5.9,0,11.7,0,17.5,0c0,0.4,0,0.8,0,1.3
				C447.1,490.1,441.3,490.1,435.4,490.1z"/>
			<path class="st18" d="M435.4,485.4c0-0.4,0-0.8,0-1.3c5.9,0,11.7,0,17.5,0c0,0.1,0,0.1,0,0.1c0,0.4,0,0.7,0,1.1
				C447.1,485.4,441.3,485.4,435.4,485.4z"/>
			<path class="st18" d="M435.4,494.9c0-0.4,0-0.8,0-1.3c5.9,0,11.7,0,17.5,0c0,0.4,0,0.8,0,1.3
				C447.1,494.9,441.3,494.9,435.4,494.9z"/>
		</g>
		<g id="check_2_">
			<path class="st7" d="M163.8,482.7v6.4c0,1.3-1.1,2.3-2.3,2.3H133c-1.3,0-2.3-1.1-2.3-2.3v-28.5c0-1.3,1.1-2.3,2.3-2.3h25.3
				l4.2-4.2c-1-0.4-2.1-0.6-3.3-0.6h-23.7c-5.3,0-9.5,4.3-9.5,9.5v23.7c0,5.3,4.3,9.5,9.5,9.5h23.7c5.3,0,9.5-4.3,9.5-9.5V478
				L163.8,482.7z"/>
			<path class="st7" d="M177.9,459.3c0.5,0.5,0.5,1.2,0,1.7l-26.2,26.2c-0.5,0.5-1.2,0.5-1.7,0l-14-14c-0.5-0.5-0.5-1.2,0-1.7
				l5.6-5.6c0.5-0.5,1.2-0.5,1.7,0l6.8,6.8c0.5,0.5,1.2,0.5,1.7,0l18.9-18.9c0.5-0.5,1.2-0.5,1.7,0L177.9,459.3z"/>
		</g>
	</g>
	
		<radialGradient id="SVGID_1_" cx="264.4048" cy="764.3152" r="229.4794" fx="492.1789" fy="792.239" gradientTransform="matrix(1 0 0 1 0 -576.55)" gradientUnits="userSpaceOnUse">
		<stop  offset="0" style="stop-color:#8CCCA2"/>
		<stop  offset="1" style="stop-color:#7DC9A9"/>
	</radialGradient>
	<circle class="st19" cx="306" cy="306" r="158.3"/>
	<g id="imac_1_" class="st17">
		<g>
			<rect x="220.1" y="230.4" class="st20" width="174.2" height="109.3"/>
		</g>
		<rect x="220.1" y="230.4" class="st21" width="174.2" height="15.8"/>
		<ellipse class="st6" cx="386.9" cy="238.3" rx="3.3" ry="3.8"/>
		<ellipse class="st6" cx="378.2" cy="238.3" rx="3.3" ry="3.8"/>
		<ellipse class="st6" cx="369.4" cy="238.3" rx="3.3" ry="3.8"/>
		<rect x="223.1" y="249.7" class="st21" width="59.1" height="2.4"/>
		<rect x="292.6" y="249.7" class="st21" width="97.6" height="2.4"/>
		<rect x="223.1" y="306.4" class="st21" width="59.1" height="2.7"/>
		<rect x="226.7" y="275.6" class="st21" width="8.8" height="30.9"/>
		<rect x="240.8" y="256.9" class="st21" width="8.8" height="49.5"/>
		<rect x="256.9" y="283.1" class="st21" width="8.8" height="23.4"/>
		<rect x="270.5" y="297.1" class="st21" width="8.8" height="9.3"/>
		<rect x="223.1" y="315.1" class="st21" width="59.1" height="2.1"/>
		<rect x="223.1" y="322.3" class="st21" width="59.1" height="2.1"/>
		<rect x="223.1" y="329.5" class="st21" width="59.1" height="2.1"/>
		<rect x="292.6" y="258.4" class="st21" width="28.2" height="32.3"/>
		<rect x="324.7" y="258.4" class="st21" width="65.6" height="2.4"/>
		<rect x="324.7" y="266" class="st21" width="65.6" height="2.4"/>
		<rect x="324.7" y="273.5" class="st21" width="65.6" height="2.4"/>
		<rect x="324.7" y="280.4" class="st21" width="65.6" height="2.4"/>
		<rect x="324.7" y="288.5" class="st21" width="65.6" height="2.4"/>
		<rect x="290.3" y="297.1" class="st22" width="100" height="36.6"/>
	</g>
	<g id="database_x5F_lock_14_" class="st23">
		<path class="st6" d="M434.6,368.6c0.3,0.5,0.6,1.1,0.6,1.7v15.1c0,5.6-16.9,10-37.7,10c-20.8,0-37.7-4.5-37.7-10v-15.1
			c0-0.6,0.2-1.1,0.6-1.7c10.3,6.3,31.8,6.7,37.2,6.7C402.7,375.3,424.2,374.8,434.6,368.6z M397.5,350.1c-5.4,0-26.9-0.4-37.2-6.7
			c-0.3,0.5-0.6,1.1-0.6,1.7v15.1c0,5.6,16.9,10,37.7,10c20.8,0,37.7-4.5,37.7-10v-15.1c0-0.6-0.2-1.1-0.6-1.7
			C424.2,349.7,402.7,350.1,397.5,350.1z M397.5,324.9c-5.4,0-26.9-0.4-37.2-6.7c-0.3,0.5-0.6,1.1-0.6,1.7V335
			c0,5.6,16.9,10,37.7,10c20.8,0,37.7-4.5,37.7-10v-15.1c0-0.6-0.2-1.1-0.6-1.7C424.2,324.5,402.7,324.9,397.5,324.9z M435.2,294.7
			v15.1c0,5.6-16.9,10-37.7,10c-20.8,0-37.7-4.5-37.7-10v-15.1c0-5.6,16.9-10,37.7-10C418.2,284.7,435.2,289.2,435.2,294.7z
			 M413.7,292.2c0-1.8-7.3-3.2-16.2-3.2s-16.2,1.4-16.2,3.2c0,1.8,7.3,3.2,16.2,3.2S413.7,293.9,413.7,292.2z"/>
	</g>
	<g>
		<circle class="st24" cx="327.2" cy="376" r="46.7"/>
		<g>
			<path class="st6" d="M327.6,373.8c0,0-4-7.6-3.8-13.1c0.1-4,9-7.9,12.6-13.6c3.5-5.7-0.4-11.3-0.4-11.3s0.9,4.1-1.4,8.3
				c-2.3,4.3-11,6.7-14.3,14C316.8,365.6,327.6,373.8,327.6,373.8L327.6,373.8z"/>
			<path class="st6" d="M342.4,350.8c0,0-13.4,5.1-13.4,11s3.7,7.7,4.3,9.6c0.6,1.9-1,5.1-1,5.1s5.3-3.7,4.4-7.9
				c-0.9-4.3-5-5.6-2.6-9.7C335.5,356,342.4,350.8,342.4,350.8L342.4,350.8z"/>
			<g>
				<g>
					<g>
						<defs>
							<rect id="SVGID_2_" x="303.1" y="335.9" width="52.7" height="72"/>
						</defs>
						<clipPath id="SVGID_3_">
							<use xlink:href="#SVGID_2_"  style="overflow:visible;"/>
						</clipPath>
						<path class="st25" d="M326.2,381.5c12.4-0.4,16.9-4.4,16.9-4.4c-8,2.2-29.3,2-29.5,0.4c-0.1-1.6,6.6-2.9,6.6-2.9
							s-10.4,0-11.4,2.6C307.9,380,313.8,382,326.2,381.5L326.2,381.5z"/>
					</g>
				</g>
				<g>
					<g>
						<defs>
							<rect id="SVGID_4_" x="303.1" y="335.9" width="52.7" height="72"/>
						</defs>
						<clipPath id="SVGID_5_">
							<use xlink:href="#SVGID_4_"  style="overflow:visible;"/>
						</clipPath>
						<path class="st26" d="M344.1,387.7c0,0,12.2-2.6,11-9.2c-1.4-8-9.9-3.4-9.9-3.4s6,0,6.6,3.7
							C352.2,382.3,344.1,387.7,344.1,387.7L344.1,387.7z"/>
					</g>
				</g>
			</g>
			<path class="st6" d="M338.1,384.3c0,0-3,0.8-7.6,1.3c-6.1,0.7-13.4,0.1-14-0.9s1-1.6,1-1.6c-7.3,1.7-3.3,4.8,5.3,5.4
				c7.3,0.5,18.3-2.2,18.3-2.2L338.1,384.3z"/>
			<g>
				<g>
					<g>
						<defs>
							<rect id="SVGID_6_" x="303.1" y="335.9" width="52.7" height="72"/>
						</defs>
						<clipPath id="SVGID_7_">
							<use xlink:href="#SVGID_6_"  style="overflow:visible;"/>
						</clipPath>
						<path class="st27" d="M319.3,390.7c0,0-3.3,0.1-3.5,1.8s2,3.3,10.2,3.8s13.9-2.2,13.9-2.2l-3.7-2.2c0,0-2.3,0.5-6,1
							c-3.5,0.5-11-0.4-11.3-1C318.8,391,319.3,390.7,319.3,390.7L319.3,390.7z"/>
					</g>
				</g>
				<g>
					<g>
						<defs>
							<rect id="SVGID_8_" x="303.1" y="335.9" width="52.7" height="72"/>
						</defs>
						<clipPath id="SVGID_9_">
							<use xlink:href="#SVGID_8_"  style="overflow:visible;"/>
						</clipPath>
						<path class="st28" d="M351.1,398.5c1.2-1.3-0.4-2.4-0.4-2.4s0.6,0.7-0.2,1.4c-0.8,0.8-7.9,2.7-19.3,3.3
							c-11.4,0.6-23.7-1-24.1-2.5c-0.4-1.4,6.3-2.6,6.3-2.6c-0.8,0.1-10.1,0.3-10.4,2.8s4.1,4.6,21.6,4.6
							C342.2,403,349.9,399.9,351.1,398.5L351.1,398.5z"/>
					</g>
				</g>
				<g>
					<g>
						<defs>
							<rect id="SVGID_10_" x="303.1" y="335.9" width="52.7" height="72"/>
						</defs>
						<clipPath id="SVGID_11_">
							<use xlink:href="#SVGID_10_"  style="overflow:visible;"/>
						</clipPath>
						<path class="st29" d="M344.3,404.2c-7.7,1.5-31,0.6-31,0.6s15.2,3.7,32.4,0.6c8.3-1.4,8.7-5.5,8.7-5.5S352,402.6,344.3,404.2
							L344.3,404.2z"/>
					</g>
				</g>
			</g>
		</g>
	</g>
</g>
</svg>
