<?xml version="1.0" encoding="utf-8"?>
<!-- Generator: Adobe Illustrator 20.0.0, SVG Export Plug-In . SVG Version: 6.00 Build 0)  -->
<svg version="1.1" id="Layer_1" xmlns="http://www.w3.org/2000/svg" xmlns:xlink="http://www.w3.org/1999/xlink" x="0px" y="0px"
	 viewBox="0 0 612 612" style="enable-background:new 0 0 612 612;" xml:space="preserve">
<style type="text/css">
	.st0{fill:#F16D64;}
	.st1{clip-path:url(#SVGID_2_);}
	.st2{fill-rule:evenodd;clip-rule:evenodd;fill:#F6BE89;}
	.st3{fill-rule:evenodd;clip-rule:evenodd;fill:#E3AF7F;}
	.st4{fill-rule:evenodd;clip-rule:evenodd;fill:#FCD8B8;}
	.st5{fill-rule:evenodd;clip-rule:evenodd;fill:#808185;}
	.st6{fill-rule:evenodd;clip-rule:evenodd;fill:#4A5153;}
	.st7{fill-rule:evenodd;clip-rule:evenodd;fill:#F8F9E9;}
	.st8{fill-rule:evenodd;clip-rule:evenodd;fill:#447293;}
	.st9{fill-rule:evenodd;clip-rule:evenodd;fill:#242829;}
	.st10{fill:#242829;}
	.st11{fill:#5AC7DA;stroke:#FFFFFF;stroke-width:2;stroke-miterlimit:10;}
	.st12{fill:#FFFFFF;}
	.st13{fill:none;stroke:#FFFFFF;stroke-width:2;stroke-miterlimit:10;}
	.st14{fill:#FAAC18;stroke:#FFFFFF;stroke-miterlimit:10;}
</style>
<g>
	<g>
		<g>
			<ellipse class="st0" cx="306" cy="306" rx="306" ry="304.7"/>
		</g>
		<g>
			<defs>
				<ellipse id="SVGID_1_" cx="306" cy="306" rx="306" ry="304.7"/>
			</defs>
			<clipPath id="SVGID_2_">
				<use xlink:href="#SVGID_1_"  style="overflow:visible;"/>
			</clipPath>
			<g class="st1">
				<path class="st2" d="M612.7,314.1c-0.1-0.1-0.2-0.2-0.3-0.2c-21.1-14.7-56.9-39.5-73.5-55.1c-16.5-15.6-27.8-10.6-70.6-14.2
					c-42.7-3.5-44.9,7.9-73.6,13.4c-28.7,5.5-28.6,21.1,1.7,23.9c30.3,2.8,38.7-2.9,38.7-2.9s8.3,11,25.7,11
					c17.4,0,25.7-0.9,25.7-0.9s5.5,22,14.7,29.4c9.2,7.3,18.4,11,18.4,11s-4.6,18.4,3.7,28.5c8.3,10.1,12.9,21.1,12.9,21.1
					s-4.6,24-13.8,35.9c-9.2,11.9-32,11.7-102.3,8.4c-70.3-3.3-68.9,9.3-68.1,20.6c0.8,11.3,29,11.3,50.1,19.6
					c21.1,8.3,68.9,16.5,91.8,28.5c23,11.9,78,24.9,100.1,32.4c22.1,7.5,12.8,5.4,18.7,9.2V314.1z"/>
				<path class="st3" d="M355.6,430.7c-4.3,3.9-3.9,8.7-3.6,13.2c0.8,11.3,29,11.3,50.1,19.6c21.1,8.3,68.9,16.5,91.8,28.5
					c23,11.9,78,29.4,100.1,36.9c22.1,7.5,12.8,5.4,18.7,9.2v-27.9c-10.4-6.9-20-11.7-28.6-13.8c-43.7-10.6-98.1-12.8-121.7-23.5
					C440.8,463.2,415.1,430.7,355.6,430.7z"/>
				<path class="st3" d="M495.1,306.6c-19.4,2.7-49.4,4.1-61.8-1.1c-12.4-5.2-3.2-15,6.9-24.3c4.4,3.3,11.9,7.4,22.8,7.4
					c18.6,0,27.4-1,27.4-1S486.7,298.1,495.1,306.6z"/>
				<path class="st3" d="M376.3,275.8c3.5,2.9,10.2,5.2,20.1,6.1c30.3,2.8,37.2,0.6,37.2,0.6s9.8,7.5,27.2,7.5
					c17.4,0,25.7-0.9,25.7-0.9s5.5,22,14.7,29.4c9.2,7.3,18.4,11,18.4,11s-4.6,18.4,3.7,28.5c8.3,10.1,12.9,21.1,12.9,21.1
					s-4,21.1-12.1,33.6c12.9-10,24-24.4,24.5-35.6c0.7-14.7-8-1.3-14.7-11.3c-6.7-10,4.7-14.7-4.7-36c-9.3-21.3-13.3-10-27.3-19.3
					c-14-9.3-11.3-17.3-11.3-24.6c0-7.3-2.7-7.3-16-5.3c-13.3,2-30.6,6-34.6-2c-4-8-6.7-12-10-6.7c-3.3,5.3-26.6,8-44,5.3
					C383.1,276.7,379.8,276.2,376.3,275.8z"/>
				<path class="st4" d="M353,434.2c-1.5,3.1-1.2,6.5-1,9.8c0.6,9.4,20.4,11,39.1,16c4.7-10.7,4.3-20.7-2.5-22.5
					C382.5,435.9,367.2,433.8,353,434.2z"/>
				<path class="st2" d="M2,314.1c0.1-0.1,0.2-0.2,0.3-0.2c21.1-14.7,56.9-39.5,73.5-55.1c16.5-15.6,27.8-10.6,70.6-14.2
					c42.7-3.5,44.9,7.9,73.6,13.4c28.7,5.5,28.6,21.1-1.7,23.9c-30.3,2.8-38.7-2.9-38.7-2.9s-8.3,11-25.7,11
					c-17.4,0-25.7-0.9-25.7-0.9s-5.5,22-14.7,29.4c-9.2,7.3-18.4,11-18.4,11s4.6,18.4-3.7,28.5C83.1,368,78.5,379,78.5,379
					s4.6,24,13.8,35.9c9.2,11.9,32,11.7,102.3,8.4c70.3-3.3,68.9,9.3,68.1,20.6c-0.8,11.3-29,11.3-50.1,19.6
					c-21.1,8.3-68.9,16.5-91.8,28.5c-23,11.9-78,30.3-100.1,37.8C-1.5,537.4,7.9,535.2,2,539V314.1z"/>
				<path class="st3" d="M259.1,430.7c4.3,3.9,3.9,8.7,3.6,13.2c-0.8,11.3-29,11.3-50.1,19.6c-21.1,8.3-68.9,16.5-91.8,28.5
					c-23,11.9-78,33-100.1,40.5c-22.1,7.5-12.8,5.4-18.7,9.2V521c10.4-6.9,20-11.7,28.6-13.8c43.7-10.6,98.1-23.6,121.7-34.3
					C173.9,463.2,199.5,430.7,259.1,430.7z"/>
				<path class="st3" d="M119.2,306.5c20,2.7,49.3,4.2,62-1.1c12.7-5.3,3.3-15.5-7.1-25c-4.5,3.4-8.3,7.6-23.5,7.6
					c-15.2,0-24.6-1.4-24.6-1.4S123.6,297.3,119.2,306.5z"/>
				<path class="st3" d="M238.3,275.8c-3.5,2.9-10.2,5.2-20.1,6.1c-30.3,2.8-37.7,0.1-37.7,0.1s-9.3,8-26.7,8
					c-17.4,0-25.7-0.9-25.7-0.9s-5.5,22-14.7,29.4c-9.2,7.3-18.4,11-18.4,11s4.6,18.4-3.7,28.5C83.1,368,78.5,379,78.5,379
					s4,21.1,12.1,33.6c-13-10-24-24.4-24.5-35.6c-0.7-14.7,8-1.3,14.7-11.3c6.7-10-4.7-14.7,4.7-36c9.3-21.3,13.3-10,27.3-19.3
					c14-9.3,11.3-17.3,11.3-24.6c0-7.3,2.7-7.3,16-5.3c13.3,2,30.6,6,34.6-2c4-8,6.7-12,10-6.7c3.3,5.3,26.6,8,44,5.3
					C231.5,276.7,234.9,276.2,238.3,275.8z"/>
				<path class="st4" d="M261.7,434.2c1.5,3.1,1.2,6.5,1,9.8c-0.6,9.4-20.4,11-39.1,16c-4.7-10.7-4.3-20.7,2.5-22.5
					C232.2,435.9,247.5,433.8,261.7,434.2z"/>
				<path class="st4" d="M398.7,257.1c-1.2,0.3-2.5,0.6-3.9,0.8c-11.1,2.1-17.9,5.8-20.3,9.6C393.5,264.6,398.5,261,398.7,257.1z"/>
				<path class="st4" d="M216,257.1c1.2,0.3,2.5,0.6,3.9,0.8c11.1,2.1,17.9,5.8,20.3,9.6C221.2,264.6,216.1,261,216,257.1z"/>
				<g>
					<circle class="st5" cx="438.1" cy="349.8" r="5"/>
					<path class="st6" d="M165.4,393.4v-87c0-16.4,13.4-29.9,29.9-29.9h224.1c16.4,0,29.9,13.4,29.9,29.9v87
						c0,16.4-13.4,29.9-29.9,29.9H195.3C178.9,423.2,165.4,409.8,165.4,393.4z"/>
					<rect x="190.1" y="283.6" class="st7" width="204.8" height="132.5"/>
					<path class="st5" d="M404.9,359.2v-18.6c0-4.3,3.5-7.8,7.8-7.8h18.6c4.3,0,7.8,3.5,7.8,7.8v18.6c0,4.3-3.5,7.8-7.8,7.8h-18.6
						C408.5,367,404.9,363.5,404.9,359.2z"/>
					<circle class="st5" cx="180.2" cy="349.8" r="5"/>
					<path class="st8" d="M287.1,401.7v-1.6c0.6-0.1,1-0.4,1.5-0.9c0.6-0.7,0.9-1.6,0.9-2.9c0-1.1-0.3-1.9-0.8-2.7
						c-0.4-0.6-0.9-0.9-1.6-1V391c1.3,0.1,2.3,0.6,3.1,1.6c0.9,1,1.3,2.3,1.3,3.9c0,1.5-0.5,2.8-1.4,3.8
						C289.5,401.1,288.5,401.6,287.1,401.7L287.1,401.7z M295.4,401.8h-1.9V391h1.9V401.8L295.4,401.8z M305.9,401.8H304l-4.1-6.9
						c-0.1-0.1-0.2-0.3-0.3-0.5c-0.1-0.1-0.2-0.3-0.3-0.5v7.9h-1.6V391h2.2l3.8,6.4c0,0.1,0.3,0.4,0.7,1.2V391h1.5V401.8
						L305.9,401.8z M316.5,396.2v5.5h-0.9l-0.6-1.5c-0.6,1.1-1.6,1.6-2.9,1.6c-1.5,0-2.6-0.6-3.3-1.7c-0.7-1.1-1.1-2.4-1.1-3.9
						c0-1.6,0.4-2.9,1.2-3.9c0.8-1.1,1.9-1.6,3.4-1.6c1.1,0,2,0.3,2.7,0.9c0.7,0.6,1.1,1.4,1.3,2.4l-1.7,0.3c-0.3-1.3-1.1-2-2.3-2
						c-0.8,0-1.4,0.3-1.9,0.9c-0.5,0.6-0.7,1.6-0.7,2.9c0,2.7,0.9,4.1,2.6,4.1c0.7,0,1.2-0.2,1.6-0.7c0.4-0.5,0.7-1.1,0.7-1.8h-2.2
						v-1.6H316.5L316.5,396.2z M324.5,399.7v2.1h-2v-2.1H324.5L324.5,399.7z M328.4,399.7v2.1h-2v-2.1H328.4L328.4,399.7z
						 M332.3,399.7v2.1h-2v-2.1H332.3z M287.1,391v1.6c-0.2,0-0.3,0-0.5,0h-1.9v7.7h1.6c0.3,0,0.5,0,0.8-0.1v1.6c-0.3,0-0.5,0-0.8,0
						h-3.5V391h4C286.9,391,287,391,287.1,391L287.1,391z M276.5,399.2v-1.6h1.6l-1.6-4.8V391h1.4l3.6,10.8h-2.1l-0.9-2.6H276.5z
						 M262.4,401.8h-2.1l-1.7-4.4h-0.5v-1.6h0.2c0.7,0,1.2-0.1,1.6-0.4c0.3-0.3,0.5-0.7,0.5-1.2c0-0.5-0.2-0.9-0.5-1.1
						c-0.3-0.3-0.8-0.4-1.4-0.4h-0.3V391h0.5c1.3,0,2.3,0.3,2.9,0.9c0.6,0.6,0.9,1.3,0.9,2.3c0,1.4-0.6,2.3-1.9,2.9L262.4,401.8
						L262.4,401.8z M276.5,391v1.9l0,0l-1.6,4.8h1.6v1.6h-2.1l-0.8,2.6h-1.7l3.6-10.8H276.5L276.5,391z M271.4,401.8h-7V391h6.9v1.6
						h-5v2.9h4v1.6h-4v3h5.1V401.8z M258.2,397.3h-2.2v4.4H254V391h4.2v1.5h-2.2v3.2h2.2V397.3z"/>
					<path class="st9" d="M223.5,298.2h1.5v103.2h-1.5V298.2L223.5,298.2z M226.6,298.2h1.5v103.2h-1.5V298.2L226.6,298.2z
						 M230.7,298.2h2.4v103.2h-2.4V298.2L230.7,298.2z M236.8,298.2h1.5v103.2h-1.5V298.2L236.8,298.2z M240.8,298.2h4.4v103.2h-4.4
						V298.2L240.8,298.2z M246.9,298.2h2v87.7h-2V298.2L246.9,298.2z M250.6,298.2h3.1v87.7h-3.1V298.2L250.6,298.2z M256.7,298.2
						h4.1v87.7h-4.1V298.2L256.7,298.2z M263.4,298.2h2.1v87.7h-2.1V298.2L263.4,298.2z M267.8,298.2h1v87.7h-1V298.2L267.8,298.2z
						 M270.6,298.2h2.6v87.7h-2.6V298.2L270.6,298.2z M277.6,298.2h1.3v87.7h-1.3V298.2L277.6,298.2z M280.5,298.2h2.6v87.7h-2.6
						V298.2L280.5,298.2z M287.7,298.2h1.3v87.7h-1.3V298.2L287.7,298.2z M290.3,298.2h1.3v87.7h-1.3V298.2L290.3,298.2z M293,298.2
						h1.3v87.7H293V298.2L293,298.2z M295.6,298.2h1.3v87.7h-1.3V298.2L295.6,298.2z M298.3,298.2h1.3v87.7h-1.3V298.2L298.3,298.2z
						 M306.4,298.2h1.3v87.7h-1.3V298.2L306.4,298.2z M310.7,298.2h4.4v87.7h-4.4V298.2L310.7,298.2z M317.1,298.2h2.6v87.7h-2.6
						V298.2L317.1,298.2z M322.5,298.2h2.6v87.7h-2.6V298.2L322.5,298.2z M327.1,298.2h1.3v87.7h-1.3V298.2L327.1,298.2z
						 M331.4,298.2h4.4v87.7h-4.4V298.2L331.4,298.2z M337,298.2h1.3v87.7H337V298.2L337,298.2z M340,298.2h3.8v103.2H340V298.2
						L340,298.2z M347,298.2h1.3v103.2H347V298.2L347,298.2z M352.9,298.2h1.3v103.2h-1.3V298.2L352.9,298.2z M356.9,298.2h1.3
						v103.2h-1.3V298.2L356.9,298.2z M360.2,298.2h1.3v103.2h-1.3V298.2z"/>
					<g>
						<path class="st10" d="M255.8,190.1c0-11.8,0-23.6,0-35.3c11.8,0,23.5,0,35.3,0c0,11.8,0,23.5,0,35.3
							C279.4,190.1,267.6,190.1,255.8,190.1z M262.9,183c7.1,0,14.1,0,21.2,0c0-7.1,0-14.1,0-21.2c-7.1,0-14.1,0-21.2,0
							C262.9,168.9,262.9,176,262.9,183z"/>
						<path class="st10" d="M354.9,190.1c-11.8,0-23.5,0-35.3,0c0-11.8,0-23.5,0-35.3c11.8,0,23.5,0,35.3,0
							C354.9,166.6,354.9,178.3,354.9,190.1z M326.6,161.9c0,7.1,0,14.1,0,21.2c7.1,0,14.1,0,21.2,0c0-7.1,0-14.1,0-21.2
							C340.7,161.9,333.7,161.9,326.6,161.9z"/>
						<path class="st10" d="M255.8,253.9c0-11.8,0-23.5,0-35.3c11.8,0,23.5,0,35.3,0c0,11.8,0,23.5,0,35.3
							C279.4,253.9,267.6,253.9,255.8,253.9z M284.1,246.8c0-7.1,0-14.1,0-21.2c-7.1,0-14.1,0-21.2,0c0,7.1,0,14.1,0,21.2
							C269.9,246.8,277,246.8,284.1,246.8z"/>
						<path class="st10" d="M319.5,218.5c7.1,0,14.1,0,21.2,0c0-4.7,0-9.4,0-14.1c2.4,0,4.7,0,7.1,0c0-2.4,0-4.7,0-7.1
							c2.4,0,4.7,0,7.1,0c0,4.7,0,9.4,0,14.1c-2.3,0-4.7,0-7.1,0c0,4.8,0,9.5,0,14.2l0,0c-2.4,0-4.7,0-7.1,0c0,2.4,0,4.7,0,7.1
							c2.4,0,4.7,0,7.1,0l0,0c0,2.4,0,4.7,0,7.1c0,0,0,0,0,0c-0.3,0-0.6,0-0.9,0c-4.4,0-8.8,0-13.3,0l0,0c0-4.7,0-9.4,0-14.2
							c-4.8,0-9.5,0-14.2,0C319.5,223.2,319.5,220.8,319.5,218.5L319.5,218.5z"/>
						<path class="st10" d="M305.4,197.2c-2.3,0-4.7,0-7.1,0c0-4.7,0-9.4,0-14.1c2.3,0,4.7,0,7,0c0-2.4,0-4.7,0-7.1
							c-2.3,0-4.6,0-7,0c0-7.1,0-14.2,0-21.2c4.7,0,9.4,0,14.1,0c0,2.3,0,4.6,0,7c-2.3,0-4.7,0-7,0c0,2.4,0,4.7,0,7.1
							c2.3,0,4.6,0,7,0c0,7.1,0,14.2,0,21.2c-2.3,0-4.6,0-7,0C305.3,192.5,305.3,194.9,305.4,197.2
							C305.3,197.2,305.4,197.2,305.4,197.2z"/>
						<path class="st10" d="M305.3,204.3c0,4.5,0,9,0,13.4c0,0.2,0,0.5,0,0.7c0,0,0,0,0,0c-2.3,0-4.7,0-7.1,0c0-2.3,0-4.6,0-7
							c-7.1,0-14.1,0-21.3,0c0-2.4,0-4.7,0-7.1c-2.4,0-4.8,0-7.1,0l0,0c0-2.3,0-4.7,0-7c4.7,0,9.4,0,14.1,0c0,2.3,0,4.7,0,7.1
							C291.2,204.3,298.3,204.3,305.3,204.3L305.3,204.3z"/>
						<path class="st10" d="M333.7,239.7c0,4.7,0,9.4,0,14.1c-9.4,0-18.8,0-28.3,0c0-2.3,0-4.7,0-7l0,0c7.1,0,14.1,0,21.2,0
							c0-2.4,0-4.8,0-7.1C328.9,239.7,331.3,239.7,333.7,239.7L333.7,239.7z"/>
						<path class="st10" d="M305.3,246.8c-2.3,0-4.7,0-7.1,0c0-7.1,0-14.1,0-21.2c2.3,0,4.7,0,7,0l0,0c0,2.4,0,4.7,0,7.1
							c2.4,0,4.8,0,7.1,0c0,2.3,0,4.7,0,7.1c-2.4,0-4.7,0-7.1,0C305.3,242.1,305.3,244.5,305.3,246.8L305.3,246.8z"/>
						<path class="st10" d="M333.6,211.4c-2.4,0-4.7,0-7,0c0-2.3,0-4.7,0-7c-2.4,0-4.7,0-7.1,0c0-2.4,0-4.7,0-7.1
							c4.7,0,9.4,0,14.1,0C333.6,202,333.6,206.7,333.6,211.4z"/>
						<path class="st10" d="M262.9,204.3c-2.3,0-4.7,0-7.1,0c0-2.3,0-4.7,0-7c2.3,0,4.6,0,7,0C262.9,199.6,262.9,202,262.9,204.3
							C262.9,204.3,262.9,204.3,262.9,204.3z"/>
						<path class="st10" d="M305.3,204.3c0-2.4,0-4.7,0-7.1c0,0,0,0,0,0c2.3,0,4.7,0,7,0c0,2.4,0,4.7,0,7.1
							C310,204.3,307.7,204.3,305.3,204.3L305.3,204.3z"/>
						<path class="st10" d="M269.9,204.3c0,2.3,0,4.7,0,7.1c-2.4,0-4.7,0-7.1,0c0-2.4,0-4.7,0-7.1c0,0,0,0,0,0
							C265.2,204.3,267.6,204.3,269.9,204.3L269.9,204.3z"/>
						<path class="st10" d="M312.4,218.5c0-2.3,0-4.7,0-7c2.3,0,4.7,0,7.1,0c0,2.4,0,4.7,0,7l0,0
							C317.1,218.5,314.8,218.5,312.4,218.5L312.4,218.5z"/>
						<path class="st10" d="M305.3,225.6c0-2.4,0-4.7,0-7.1c0,0,0,0,0,0c2.4,0,4.7,0,7.1,0c0,0,0,0,0,0c0,2.4,0,4.7,0,7.1
							C310.1,225.6,307.7,225.6,305.3,225.6L305.3,225.6z"/>
						<path class="st10" d="M347.8,225.6c2.3,0,4.7,0,7,0c0,2.3,0,4.7,0,7.1c-2.3,0-4.7,0-7,0l0,0
							C347.8,230.3,347.8,227.9,347.8,225.6L347.8,225.6z"/>
						<path class="st10" d="M347.8,246.8c0-2.4,0-4.7,0-7.1c0,0,0,0,0,0c2.3,0,4.7,0,7,0c0,2.4,0,4.7,0,7.1
							C352.5,246.8,350.2,246.8,347.8,246.8L347.8,246.8z"/>
						<path class="st10" d="M347.8,246.8c0,2.3,0,4.7,0,7c-2.3,0-4.7,0-7,0c0-2.3,0-4.6,0-7C343.1,246.8,345.5,246.8,347.8,246.8
							L347.8,246.8z"/>
						<path class="st10" d="M277,169c0,2.3,0,4.7,0,7c-2.3,0-4.7,0-7,0c0-2.3,0-4.6,0-7C272.3,169,274.6,169,277,169z"/>
						<path class="st10" d="M340.7,169c0,2.4,0,4.7,0,7c-2.3,0-4.7,0-7,0c0-2.3,0-4.6,0-7C336,169,338.3,169,340.7,169z"/>
						<path class="st10" d="M277,232.7c0,2.3,0,4.7,0,7c-2.3,0-4.7,0-7,0c0-2.3,0-4.6,0-7C272.3,232.7,274.6,232.7,277,232.7z"/>
						<path class="st10" d="M312.4,232.7c0-2.4,0-4.7,0-7.1c2.4,0,4.7,0,7.1,0c0,2.4,0,4.7,0,7.1
							C317.1,232.7,314.8,232.7,312.4,232.7z"/>
						<path class="st10" d="M326.6,239.7c-2.3,0-4.7,0-7.1,0c0-2.4,0-4.7,0-7.1c2.3,0,4.7,0,7.1,0
							C326.6,235,326.6,237.4,326.6,239.7z"/>
					</g>
					<g>
						<path class="st10" d="M279.8,28.9c0,30,0,60,0,90.1c-1.8,0-3.6,0-5.4,0c0-0.4-0.1-0.8-0.1-1.2c0-29.4,0-58.8,0-88.2
							c0-0.2,0-0.5,0-0.7C276.1,28.9,278,28.9,279.8,28.9z"/>
						<path class="st10" d="M365.6,28.9c0,0.5,0,0.9,0,1.4c0,31.3,0,62.7,0,94c0,0.5,0,1,0,1.6c-1.3,0-2.6,0-4,0
							c0-0.3-0.1-0.7-0.1-1.1c0-31.7,0-63.4,0-95.1c0-0.2,0-0.5,0-0.7C363,28.9,364.3,28.9,365.6,28.9z"/>
						<path class="st10" d="M342,28.9c0,0.5,0,0.9,0,1.4c0,29,0,58,0,87.1c0,0.5,0,1.1,0,1.7c-1.4,0-2.6,0-4,0
							c0-0.4-0.1-0.8-0.1-1.2c0-29.4,0-58.9,0-88.3c0-0.2,0-0.4,0-0.6C339.4,28.9,340.7,28.9,342,28.9z"/>
						<path class="st10" d="M351.7,28.9c0,0.5,0.1,1,0.1,1.5c0,29,0,57.9,0,86.9c0,0.5,0,1.1,0,1.7c-1.4,0-2.6,0-4,0
							c0-0.3-0.1-0.5-0.1-0.8c0-29.7,0-59.5,0-89.2C349.1,28.9,350.4,28.9,351.7,28.9z"/>
						<path class="st10" d="M250.8,28.9c0,0.6-0.1,1.1-0.1,1.7c0,31.2,0,62.3,0,93.5c0,0.6,0,1.1,0,1.7c-1,0-1.8,0-2.8,0
							c0-0.6,0-1.2,0-1.8c0-31.2,0-62.3,0-93.5c0-0.6-0.1-1.1-0.1-1.7C248.8,28.9,249.8,28.9,250.8,28.9z"/>
						<path class="st10" d="M258.9,28.9c0,30,0,60,0,90.1c-0.9,0-1.7,0-2.7,0c0-30,0-60,0-90.1C257.1,28.9,258,28.9,258.9,28.9z"/>
						<path class="st10" d="M292.2,28.9c0,30,0,60,0,90.1c-0.9,0-1.7,0-2.7,0c0-0.5,0-1,0-1.5c0-29,0-57.9,0-86.9c0-0.5,0-1.1,0-1.6
							C290.4,28.9,291.3,28.9,292.2,28.9z"/>
						<path class="st10" d="M272.8,28.9c0,30,0,60,0,90.1c-0.9,0-1.7,0-2.7,0c0-30,0-60,0-90.1C271,28.9,271.9,28.9,272.8,28.9z"/>
						<path class="st10" d="M296.4,28.9c0,30,0,60,0,90.1c-0.9,0-1.7,0-2.7,0c0-30,0-60,0-90.1C294.6,28.9,295.5,28.9,296.4,28.9z"
							/>
						<path class="st10" d="M243.8,28.9c0,0.5-0.1,1.1-0.1,1.6c0,31.2,0,62.4,0,93.6c0,0.5,0,1.1,0,1.7c-0.5,0-0.9,0.1-1.4,0.1
							c0-0.6,0-1.1,0-1.7c0-31.2,0-62.5,0-93.7c0-0.5,0-1.1,0-1.6C242.8,28.9,243.3,28.9,243.8,28.9z"/>
						<path class="st10" d="M253.5,28.9c0,17.8,0,35.6,0,53.5c0,14,0,27.9,0,41.9c0,0.5,0,1,0,1.6c-0.5,0-0.9,0.1-1.4,0.1
							c0-0.6,0-1.1,0-1.6c0-31.3,0-62.5,0-93.8c0-0.5,0-1.1,0-1.6C252.5,28.9,253,28.9,253.5,28.9z"/>
						<path class="st10" d="M307.6,28.9c0,0.5,0,1.1,0,1.6c0,29.1,0,58.1,0,87.2c0,2.7,0,5.4,0,8.1c-0.5,0-0.9,0.1-1.4,0.1
							c0-0.6,0-1.1,0-1.7c0-31.2,0-62.5,0-93.7c0-0.5,0-1.1,0-1.6C306.6,28.9,307.1,28.9,307.6,28.9z"/>
						<path class="st10" d="M371.3,28.9c0,0.5,0,1.1,0,1.6c0,31.2,0,62.4,0,93.6c0,0.5,0,1.1,0,1.7c-0.5,0-0.9,0.1-1.4,0.1
							c0-0.6,0-1.1,0-1.6c0-31.3,0-62.5,0-93.8c0-0.5,0-1.1,0-1.6C370.3,28.9,370.8,28.9,371.3,28.9z"/>
						<path class="st10" d="M320,28.9c0,30,0,60,0,90.1c-0.5,0-0.9,0-1.4,0c0-0.7,0-1.2,0-1.8c0-28.9,0-57.7,0-86.6
							c0-0.6-0.1-1.1-0.1-1.7C319,28.9,319.5,28.9,320,28.9z"/>
						<path class="st10" d="M267.4,28.9c0,0.5-0.1,1.1-0.1,1.6c0,28.9,0,57.9,0,86.8c0,0.5,0,1.1,0,1.7c-0.5,0-0.9,0-1.4,0
							c0-0.6,0-1.1,0-1.7c0-28.9,0-57.9,0-86.8c0-0.5,0-1.1,0-1.6C266.4,28.9,266.9,28.9,267.4,28.9z"/>
						<path class="st10" d="M310.3,28.9c0,30,0,60,0,90.1c-0.5,0-0.9,0-1.4,0c0-0.6,0-1.1,0-1.7c0-28.9,0-57.9,0-86.8
							c0-0.5,0-1.1-0.1-1.6C309.3,28.9,309.8,28.9,310.3,28.9z"/>
						<path class="st10" d="M333.9,28.9c0,30,0,60,0,90.1c-0.5,0-0.9,0-1.4,0c0-0.6,0-1.1,0-1.6c0-28.9,0-57.9,0-86.8
							c0-0.5,0-1.1,0-1.6C332.9,28.9,333.4,28.9,333.9,28.9z"/>
						<path class="st10" d="M263.2,28.9c0,30,0,60,0,90.1c-0.5,0-0.9,0-1.4,0c0-0.6,0-1.1,0-1.7c0-28.9,0-57.9,0-86.8
							c0-0.5,0-1.1-0.1-1.6C262.2,28.9,262.7,28.9,263.2,28.9z"/>
						<path class="st10" d="M345,28.9c0,0.6-0.1,1.1-0.1,1.7c0,28.8,0,57.7,0,86.5c0,0.6,0,1.1,0,1.8c-0.5,0-0.8,0.1-1.4,0.1
							c0-30.1,0-60.1,0-90.2C344,28.9,344.5,28.9,345,28.9z"/>
						<path class="st10" d="M240.8,28.9c0,0.5,0.1,1,0.1,1.5c0,31.3,0,62.6,0,93.9c0,0.5,0,1,0,1.6c-0.4,0-0.8,0.1-1.3,0.1
							c0-32.4,0-64.7,0-97C240,28.9,240.4,28.9,240.8,28.9z"/>
						<path class="st10" d="M304.6,28.9c0,0.5,0.1,0.9,0.1,1.4c0,31.4,0,62.8,0,94.1c0,0.4,0,0.9,0,1.4c-0.4,0-0.8,0.1-1.3,0.1
							c0-32.4,0-64.7,0-97C303.8,28.9,304.2,28.9,304.6,28.9z"/>
						<path class="st10" d="M358.7,28.9c0,0.5,0,0.9,0,1.4c0,31.3,0,62.7,0,94c0,0.5,0,1,0,1.6c-0.4,0-0.8,0.1-1.3,0.1
							c0-32.4,0-64.7,0-97C357.8,28.9,358.3,28.9,358.7,28.9z"/>
						<path class="st10" d="M368.3,28.9c0,0.5,0.1,0.9,0.1,1.4c0,31.4,0,62.8,0,94.2c0,0.4,0,0.8,0,1.4c-0.4,0-0.8,0-1.3,0.1
							c0-32.4,0-64.7,0-97C367.5,28.9,367.9,28.9,368.3,28.9z"/>
						<path class="st10" d="M282.5,28.9c0,30,0,60,0,90.1c-0.5,0-0.8,0-1.2,0c0-0.5-0.1-0.9-0.1-1.3c0-29.2,0-58.5,0-87.7
							c0-0.4,0-0.7,0.1-1.1C281.7,28.9,282.1,28.9,282.5,28.9z"/>
						<path class="st10" d="M285.2,28.9c0,24.9,0,49.9,0,74.8c0,4.6,0,9.3,0,13.9c0,0.4,0,0.9,0,1.4c-0.5,0-0.8,0-1.2,0
							c0-0.4-0.1-0.7-0.1-1c0-29.6,0-59.2,0-88.8c0-0.1,0-0.2,0-0.2C284.4,28.9,284.8,28.9,285.2,28.9z"/>
						<path class="st10" d="M301.9,28.9c0,0.7,0,1.3,0,2c0,28.8,0,57.6,0,86.4c0,0.5,0,1.1,0,1.7c-0.5,0-0.8,0-1.3,0
							c0-30.1,0-60.1,0-90.1C301,28.9,301.4,28.9,301.9,28.9z"/>
						<path class="st10" d="M355.9,28.9c0,29.7,0,59.4,0,89c0,0.3,0,0.6-0.1,1c-0.4,0-0.7,0-1.1,0c0-0.4-0.1-0.8-0.1-1.2
							c0-29.4,0-58.9,0-88.3c0-0.2,0-0.4,0-0.6C355.1,28.9,355.5,28.9,355.9,28.9z"/>
						<path class="st10" d="M329.6,28.9c0,30,0,60,0,90.1c-0.4,0-0.8,0.1-1.3,0.1c0-0.5,0-0.9,0-1.3c0-29.3,0-58.6,0-87.9
							c0-0.3,0-0.7,0.1-1C328.8,28.9,329.2,28.9,329.6,28.9z"/>
						<path class="st10" d="M325.4,28.9c0,11.2,0,22.4,0,33.6c0,18.3,0,36.6,0,54.9c0,0.5,0,1,0,1.5c-0.5,0-0.8,0-1.3,0
							c0-30.1,0-60.1,0-90.1C324.6,28.9,325,28.9,325.4,28.9z"/>
						<path class="st10" d="M313,28.9c0,30,0,60,0,90c-1,0.3-1.4,0.2-1.3-0.9c0-0.2,0-0.5,0-0.7c0-28.9,0-57.9,0-86.8
							c0-0.5,0.1-1.1,0.1-1.6C312.2,28.9,312.6,28.9,313,28.9z"/>
						<path class="st10" d="M230.9,127.2c1-1.9,1.6-2.3,2.9-2.1c1.3,0.3,2,1.4,2,3.3c0,1.6-0.2,3.1-1.7,4c-1.1,0-2.1,0-3.2,0
							C230.9,130.6,230.9,128.9,230.9,127.2z M231.8,128.6c0.2,0.7,0.2,1.5,0.5,2.2c0.2,0.4,0.7,0.7,1.1,0.8c0.3,0,0.9-0.4,1-0.7
							c0.6-1.4,0.6-2.9,0-4.3c-0.1-0.3-0.7-0.6-1.1-0.6c-0.4,0-0.9,0.3-1,0.7C232,127.2,232,127.9,231.8,128.6z"/>
						<path class="st10" d="M375.8,132.4c-0.3-0.3-0.5-0.6-0.8-0.9c1.3,0,2.6,0.6,3.4-0.6c0.3-0.4,0.3-1.3,0-1.7
							c-0.6-1.1-1.8-0.8-2.9-0.5c0-1.1,0-2.2,0-3.5c1,0,2.1,0,3.1,0c0.2,0,0.3,0.2,0.5,0.3c-0.2,0.1-0.4,0.4-0.6,0.4
							c-0.7,0.1-1.4,0-2.2,0c0,0.6,0,1,0,1.6c1.4-0.1,2.6,0.2,3.3,1.6c0,1.1,0,2.1,0,3.2C378.4,132.4,377.1,132.4,375.8,132.4z"/>
						<path class="st10" d="M329.8,125.6c-1.5-1.1-1.9-2.1-1.5-3.4c0.4-1.3,1.5-2,3.2-2.1c1.3,0,2.6,0.2,3.4,1.4
							c0.9,1.3,0.5,2.7-1.1,4c1.8,1.4,2.2,2.4,1.6,4.1c-0.5,1.4-1.9,2.2-3.8,2.1c-1.9-0.1-3.1-0.9-3.5-2.4
							C327.6,127.9,328.1,126.8,329.8,125.6z M331.8,126.4c-1.5,0-2.3,0.8-2.3,2.1c0,1.3,0.9,2.1,2.2,2.1c1.4,0,2.3-0.9,2.3-2.2
							C334.1,127.2,333.2,126.4,331.8,126.4z M331.7,125c1.3,0,2.1-0.7,2.1-1.8c0-1-0.8-1.8-2-1.8c-1.2,0-2.1,0.7-2.1,1.8
							C329.8,124.4,330.5,125,331.7,125z"/>
						<path class="st10" d="M338.5,130.1c3.5,0.9,5-0.1,5.1-2.9c-0.9,0.2-1.8,0.6-2.7,0.6c-1.9-0.1-3.1-1.4-3.2-3.3
							c-0.1-2.2,0.8-3.7,2.7-4.2c1.8-0.5,3.5,0.3,4.3,2c1,2.2,1,4.5,0.1,6.7c-0.9,2.3-3.4,3.3-5.7,2.4c-0.4-0.1-0.5-0.8-0.8-1.2
							C338.2,130.3,338.4,130.2,338.5,130.1z M343.5,124c0-1.5-0.9-2.6-2.2-2.6c-1.3,0-2.2,1.1-2.2,2.6c0,1.5,0.9,2.5,2.1,2.5
							C342.6,126.6,343.5,125.6,343.5,124z"/>
						<path class="st10" d="M315.8,122c-4.1-0.8-5.3-0.1-5.6,3.2c1.2-0.8,2.3-1.3,3.7-0.8c1.6,0.6,2.4,1.8,2.4,3.6
							c0,1.8-0.9,3.1-2.3,3.6c-1.7,0.6-3.4,0.1-4.3-1.3c-1.4-2-1.4-6.4,0.1-8.4c1.2-1.6,3.4-2.2,5.2-1.4
							C315.3,120.7,315.4,121.3,315.8,122z M312.6,125.4c-1.3,0-2.2,1-2.2,2.6c0,1.5,0.8,2.5,2.1,2.6c1.3,0.1,2.3-1,2.3-2.5
							C314.8,126.6,313.9,125.4,312.6,125.4z"/>
						<path class="st10" d="M355.2,126c-0.3,1.3-0.5,2.6-1,3.8c-0.5,1.3-1.7,1.9-3.1,1.9c-1.4,0-2.5-0.6-3.1-1.9
							c-1.1-2.5-1.1-5.1,0-7.7c0.6-1.3,1.7-2,3.2-2c1.4,0,2.5,0.7,3,2C354.7,123.4,354.9,124.7,355.2,126z M348.8,126
							c0.2,1.1,0.3,2.3,0.7,3.2c0.3,0.6,1.1,1.2,1.8,1.2c0.6,0,1.4-0.6,1.7-1.2c0.9-2.1,0.9-4.4,0-6.5c-0.2-0.6-1.1-1.2-1.7-1.2
							c-0.6,0-1.5,0.6-1.7,1.2C349,123.8,349,124.9,348.8,126z"/>
						<path class="st10" d="M296.8,124.2c0.9,0.1,1.7,0,2.4,0.2c1.9,0.4,2.9,1.9,2.9,3.8c-0.1,1.9-1.1,3.2-3,3.5c-1,0.2-2,0-3.1,0
							c-1.1-0.1-1.4-0.7-1-1.7c1.8,0.4,3.7,1.3,5-0.5c0.5-0.6,0.5-2.1,0.1-2.7c-1.1-1.8-2.9-1.1-4.7-0.8c0-1.8,0-3.6,0-5.4
							c1.9,0,3.8,0,5.8,0c0,0.4,0,0.7,0,1.2c-1.5,0-2.9,0-4.4,0C296.8,122.6,296.8,123.4,296.8,124.2z"/>
						<path class="st10" d="M291.2,127.6c0.6,0,1.1,0.1,1.6,0.1c0,0.4,0,0.7,0,1.1c-0.5,0.1-0.9,0.1-1.5,0.2c0,0.8,0,1.6,0,2.5
							c-0.6,0-1,0-1.5,0c0-0.8,0-1.6,0-2.6c-1.7,0-3.3,0-5.3,0c0.3-1,0.5-1.8,0.8-2.4c1-1.7,2.1-3.2,3.2-4.9
							c0.9-1.3,0.9-1.3,2.7-1.2C291.2,122.9,291.2,125.2,291.2,127.6z M289.7,121.9c-1.3,2.1-2.4,3.8-3.6,5.7c1.3,0,2.5,0,3.6,0
							C289.7,125.8,289.7,124,289.7,121.9z"/>
						<path class="st10" d="M275.8,121.8c-0.3-0.8-0.1-1.3,0.9-1.4c1.1-0.1,2.1-0.2,3.2-0.1c1.5,0.2,2.4,1.2,2.6,2.3
							c0.2,1.1-0.3,2-1.2,2.5c0.4,0.5,0.9,1.1,1.2,1.8c0.2,0.7,0.3,1.5,0.2,2.2c-0.2,1.4-1.3,2.2-2.6,2.4c-1.2,0.2-2.5,0.1-3.7,0
							c-0.9-0.1-1.3-0.6-0.9-1.4c1.2,0.1,2.5,0.3,3.7,0.3c1.3,0,2.1-0.9,2.1-2c0-1.1-0.7-1.9-2-2.1c-0.6-0.1-1.1-0.1-1.8-0.2
							c0-0.4,0-0.7-0.1-1.2c0.6,0,1.2,0,1.8-0.1c1-0.1,1.8-0.6,1.8-1.6c0-1-0.6-1.6-1.6-1.7C278.2,121.6,277,121.8,275.8,121.8z"/>
						<path class="st10" d="M267.6,130.3c1.6,0,2.9,0,4.2,0c0.9,0,1.3,0.2,0.9,1.2c-2.3,0-4.5,0-7.2,0c0.4-0.7,0.5-1.4,1-1.9
							c1.2-1.4,2.6-2.7,3.8-4.1c0.8-0.9,1.4-1.9,0.6-3c-0.7-1.1-1.9-1.1-3-0.8c-0.7,0.2-1.3,0.4-2,0.7c-0.4-1.1,0-1.7,1-1.8
							c1-0.1,2.2-0.4,3.2-0.2c2.5,0.5,3.5,2.8,2,4.9c-1,1.4-2.4,2.7-3.5,4C268.3,129.5,268,129.8,267.6,130.3z"/>
						<path class="st10" d="M259.1,121.9c-0.9,0.1-1.7,0.3-2.6,0.4c0-0.4,0-0.8,0-1.4c1.3-0.2,2.6-0.4,4.1-0.6c0,3.4,0,6.6,0,9.9
							c0.9,0,1.6,0.1,2.4,0.1c0,0.4,0.1,0.7,0.1,1.2c-2.2,0-4.2,0-6.4,0c0-0.4,0-0.7,0-1.2c0.8-0.1,1.6-0.1,2.3-0.2
							C259.1,127.4,259.1,124.7,259.1,121.9z"/>
						<path class="st10" d="M323.8,121.7c-1.9,0-3.5,0-5.2,0c0-0.4,0-0.8,0-1.2c2.4,0,4.7,0,7.2,0c-0.1,0.5-0.2,0.9-0.4,1.4
							c-1.1,2.8-2.2,5.7-3.3,8.5c-0.4,1-0.8,1.5-2,1C321.3,128.3,322.5,125.1,323.8,121.7z"/>
					</g>
					<g>
						<path class="st10" d="M279.8,478.4c0,30,0,60,0,90.1c-1.8,0-3.6,0-5.4,0c0-0.4-0.1-0.8-0.1-1.2c0-29.4,0-58.8,0-88.2
							c0-0.2,0-0.5,0-0.7C276.1,478.4,278,478.4,279.8,478.4z"/>
						<path class="st10" d="M365.6,478.4c0,0.5,0,0.9,0,1.4c0,31.3,0,62.7,0,94c0,0.5,0,1,0,1.6c-1.3,0-2.6,0-4,0
							c0-0.3-0.1-0.7-0.1-1.1c0-31.7,0-63.4,0-95.1c0-0.2,0-0.5,0-0.7C363,478.4,364.3,478.4,365.6,478.4z"/>
						<path class="st10" d="M342,478.4c0,0.5,0,0.9,0,1.4c0,29,0,58,0,87.1c0,0.5,0,1.1,0,1.7c-1.4,0-2.6,0-4,0
							c0-0.4-0.1-0.8-0.1-1.2c0-29.4,0-58.9,0-88.3c0-0.2,0-0.4,0-0.6C339.4,478.4,340.7,478.4,342,478.4z"/>
						<path class="st10" d="M351.7,478.4c0,0.5,0.1,1,0.1,1.5c0,29,0,57.9,0,86.9c0,0.5,0,1.1,0,1.7c-1.4,0-2.6,0-4,0
							c0-0.3-0.1-0.5-0.1-0.8c0-29.7,0-59.5,0-89.2C349.1,478.4,350.4,478.4,351.7,478.4z"/>
						<path class="st10" d="M250.8,478.4c0,0.6-0.1,1.1-0.1,1.7c0,31.2,0,62.3,0,93.5c0,0.6,0,1.1,0,1.7c-1,0-1.8,0-2.8,0
							c0-0.6,0-1.2,0-1.8c0-31.2,0-62.3,0-93.5c0-0.6-0.1-1.1-0.1-1.7C248.8,478.4,249.8,478.4,250.8,478.4z"/>
						<path class="st10" d="M258.9,478.4c0,30,0,60,0,90.1c-0.9,0-1.7,0-2.7,0c0-30,0-60,0-90.1C257.1,478.4,258,478.4,258.9,478.4z
							"/>
						<path class="st10" d="M292.2,478.4c0,30,0,60,0,90.1c-0.9,0-1.7,0-2.7,0c0-0.5,0-1,0-1.5c0-29,0-57.9,0-86.9
							c0-0.5,0-1.1,0-1.6C290.4,478.4,291.3,478.4,292.2,478.4z"/>
						<path class="st10" d="M272.8,478.4c0,30,0,60,0,90.1c-0.9,0-1.7,0-2.7,0c0-30,0-60,0-90.1C271,478.4,271.9,478.4,272.8,478.4z
							"/>
						<path class="st10" d="M296.4,478.4c0,30,0,60,0,90.1c-0.9,0-1.7,0-2.7,0c0-30,0-60,0-90.1
							C294.6,478.4,295.5,478.4,296.4,478.4z"/>
						<path class="st10" d="M243.8,478.4c0,0.5-0.1,1.1-0.1,1.6c0,31.2,0,62.4,0,93.6c0,0.5,0,1.1,0,1.7c-0.5,0-0.9,0.1-1.4,0.1
							c0-0.6,0-1.1,0-1.7c0-31.2,0-62.5,0-93.7c0-0.5,0-1.1,0-1.6C242.8,478.4,243.3,478.4,243.8,478.4z"/>
						<path class="st10" d="M253.5,478.4c0,17.8,0,35.6,0,53.5c0,14,0,27.9,0,41.9c0,0.5,0,1,0,1.6c-0.5,0-0.9,0.1-1.4,0.1
							c0-0.6,0-1.1,0-1.6c0-31.3,0-62.5,0-93.8c0-0.5,0-1.1,0-1.6C252.5,478.4,253,478.4,253.5,478.4z"/>
						<path class="st10" d="M307.6,478.4c0,0.5,0,1.1,0,1.6c0,29.1,0,58.1,0,87.2c0,2.7,0,5.4,0,8.1c-0.5,0-0.9,0.1-1.4,0.1
							c0-0.6,0-1.1,0-1.7c0-31.2,0-62.5,0-93.7c0-0.5,0-1.1,0-1.6C306.6,478.4,307.1,478.4,307.6,478.4z"/>
						<path class="st10" d="M371.3,478.4c0,0.5,0,1.1,0,1.6c0,31.2,0,62.4,0,93.6c0,0.5,0,1.1,0,1.7c-0.5,0-0.9,0.1-1.4,0.1
							c0-0.6,0-1.1,0-1.6c0-31.3,0-62.5,0-93.8c0-0.5,0-1.1,0-1.6C370.3,478.4,370.8,478.4,371.3,478.4z"/>
						<path class="st10" d="M320,478.4c0,30,0,60,0,90.1c-0.5,0-0.9,0-1.4,0c0-0.7,0-1.2,0-1.8c0-28.9,0-57.7,0-86.6
							c0-0.6-0.1-1.1-0.1-1.7C319,478.4,319.5,478.4,320,478.4z"/>
						<path class="st10" d="M267.4,478.4c0,0.5-0.1,1.1-0.1,1.6c0,28.9,0,57.9,0,86.8c0,0.5,0,1.1,0,1.7c-0.5,0-0.9,0-1.4,0
							c0-0.6,0-1.1,0-1.7c0-28.9,0-57.9,0-86.8c0-0.5,0-1.1,0-1.6C266.4,478.4,266.9,478.4,267.4,478.4z"/>
						<path class="st10" d="M310.3,478.4c0,30,0,60,0,90.1c-0.5,0-0.9,0-1.4,0c0-0.6,0-1.1,0-1.7c0-28.9,0-57.9,0-86.8
							c0-0.5,0-1.1-0.1-1.6C309.3,478.4,309.8,478.4,310.3,478.4z"/>
						<path class="st10" d="M333.9,478.4c0,30,0,60,0,90.1c-0.5,0-0.9,0-1.4,0c0-0.6,0-1.1,0-1.6c0-28.9,0-57.9,0-86.8
							c0-0.5,0-1.1,0-1.6C332.9,478.4,333.4,478.4,333.9,478.4z"/>
						<path class="st10" d="M263.2,478.4c0,30,0,60,0,90.1c-0.5,0-0.9,0-1.4,0c0-0.6,0-1.1,0-1.7c0-28.9,0-57.9,0-86.8
							c0-0.5,0-1.1-0.1-1.6C262.2,478.4,262.7,478.4,263.2,478.4z"/>
						<path class="st10" d="M345,478.4c0,0.6-0.1,1.1-0.1,1.7c0,28.8,0,57.7,0,86.5c0,0.6,0,1.1,0,1.8c-0.5,0-0.8,0.1-1.4,0.1
							c0-30.1,0-60.1,0-90.2C344,478.4,344.5,478.4,345,478.4z"/>
						<path class="st10" d="M240.8,478.4c0,0.5,0.1,1,0.1,1.5c0,31.3,0,62.6,0,93.9c0,0.5,0,1,0,1.6c-0.4,0-0.8,0.1-1.3,0.1
							c0-32.4,0-64.7,0-97C240,478.4,240.4,478.4,240.8,478.4z"/>
						<path class="st10" d="M304.6,478.4c0,0.5,0.1,0.9,0.1,1.4c0,31.4,0,62.8,0,94.1c0,0.4,0,0.9,0,1.4c-0.4,0-0.8,0.1-1.3,0.1
							c0-32.4,0-64.7,0-97C303.8,478.4,304.2,478.4,304.6,478.4z"/>
						<path class="st10" d="M358.7,478.4c0,0.5,0,0.9,0,1.4c0,31.3,0,62.7,0,94c0,0.5,0,1,0,1.6c-0.4,0-0.8,0.1-1.3,0.1
							c0-32.4,0-64.7,0-97C357.8,478.4,358.3,478.4,358.7,478.4z"/>
						<path class="st10" d="M368.3,478.4c0,0.5,0.1,0.9,0.1,1.4c0,31.4,0,62.8,0,94.2c0,0.4,0,0.8,0,1.4c-0.4,0-0.8,0-1.3,0.1
							c0-32.4,0-64.7,0-97C367.5,478.4,367.9,478.4,368.3,478.4z"/>
						<path class="st10" d="M282.5,478.4c0,30,0,60,0,90.1c-0.5,0-0.8,0-1.2,0c0-0.5-0.1-0.9-0.1-1.3c0-29.2,0-58.5,0-87.7
							c0-0.4,0-0.7,0.1-1.1C281.7,478.4,282.1,478.4,282.5,478.4z"/>
						<path class="st10" d="M285.2,478.4c0,24.9,0,49.9,0,74.8c0,4.6,0,9.3,0,13.9c0,0.4,0,0.9,0,1.4c-0.5,0-0.8,0-1.2,0
							c0-0.4-0.1-0.7-0.1-1c0-29.6,0-59.2,0-88.8c0-0.1,0-0.2,0-0.2C284.4,478.4,284.8,478.4,285.2,478.4z"/>
						<path class="st10" d="M301.9,478.4c0,0.7,0,1.3,0,2c0,28.8,0,57.6,0,86.4c0,0.5,0,1.1,0,1.7c-0.5,0-0.8,0-1.3,0
							c0-30.1,0-60.1,0-90.1C301,478.4,301.4,478.4,301.9,478.4z"/>
						<path class="st10" d="M355.9,478.4c0,29.7,0,59.4,0,89c0,0.3,0,0.6-0.1,1c-0.4,0-0.7,0-1.1,0c0-0.4-0.1-0.8-0.1-1.2
							c0-29.4,0-58.9,0-88.3c0-0.2,0-0.4,0-0.6C355.1,478.4,355.5,478.4,355.9,478.4z"/>
						<path class="st10" d="M329.6,478.4c0,30,0,60,0,90.1c-0.4,0-0.8,0.1-1.3,0.1c0-0.5,0-0.9,0-1.3c0-29.3,0-58.6,0-87.9
							c0-0.3,0-0.7,0.1-1C328.8,478.4,329.2,478.4,329.6,478.4z"/>
						<path class="st10" d="M325.4,478.4c0,11.2,0,22.4,0,33.6c0,18.3,0,36.6,0,54.9c0,0.5,0,1,0,1.5c-0.5,0-0.8,0-1.3,0
							c0-30.1,0-60.1,0-90.1C324.6,478.4,325,478.4,325.4,478.4z"/>
						<path class="st10" d="M313,478.4c0,30,0,60,0,90c-1,0.3-1.4,0.2-1.3-0.9c0-0.2,0-0.5,0-0.7c0-28.9,0-57.9,0-86.8
							c0-0.5,0.1-1.1,0.1-1.6C312.2,478.4,312.6,478.4,313,478.4z"/>
						<path class="st10" d="M230.9,576.6c1-1.9,1.6-2.3,2.9-2.1c1.3,0.3,2,1.4,2,3.3c0,1.6-0.2,3.1-1.7,4c-1.1,0-2.1,0-3.2,0
							C230.9,580.1,230.9,578.4,230.9,576.6z M231.8,578.1c0.2,0.7,0.2,1.5,0.5,2.2c0.2,0.4,0.7,0.7,1.1,0.8c0.3,0,0.9-0.4,1-0.7
							c0.6-1.4,0.6-2.9,0-4.3c-0.1-0.3-0.7-0.6-1.1-0.6c-0.4,0-0.9,0.3-1,0.7C232,576.7,232,577.4,231.8,578.1z"/>
						<path class="st10" d="M375.8,581.8c-0.3-0.3-0.5-0.6-0.8-0.9c1.3,0,2.6,0.6,3.4-0.6c0.3-0.4,0.3-1.3,0-1.7
							c-0.6-1.1-1.8-0.8-2.9-0.5c0-1.1,0-2.2,0-3.5c1,0,2.1,0,3.1,0c0.2,0,0.3,0.2,0.5,0.3c-0.2,0.1-0.4,0.4-0.6,0.4
							c-0.7,0.1-1.4,0-2.2,0c0,0.6,0,1,0,1.6c1.4-0.1,2.6,0.2,3.3,1.6c0,1.1,0,2.1,0,3.2C378.4,581.8,377.1,581.8,375.8,581.8z"/>
						<path class="st10" d="M329.8,575.1c-1.5-1.1-1.9-2.1-1.5-3.4c0.4-1.3,1.5-2,3.2-2.1c1.3,0,2.6,0.2,3.4,1.4
							c0.9,1.3,0.5,2.7-1.1,4c1.8,1.4,2.2,2.4,1.6,4.1c-0.5,1.4-1.9,2.2-3.8,2.1c-1.9-0.1-3.1-0.9-3.5-2.4
							C327.6,577.3,328.1,576.2,329.8,575.1z M331.8,575.8c-1.5,0-2.3,0.8-2.3,2.1c0,1.3,0.9,2.1,2.2,2.1c1.4,0,2.3-0.9,2.3-2.2
							C334.1,576.6,333.2,575.8,331.8,575.8z M331.7,574.5c1.3,0,2.1-0.7,2.1-1.8c0-1-0.8-1.8-2-1.8c-1.2,0-2.1,0.7-2.1,1.8
							C329.8,573.8,330.5,574.5,331.7,574.5z"/>
						<path class="st10" d="M338.5,579.5c3.5,0.9,5-0.1,5.1-2.9c-0.9,0.2-1.8,0.6-2.7,0.6c-1.9-0.1-3.1-1.4-3.2-3.3
							c-0.1-2.2,0.8-3.7,2.7-4.2c1.8-0.5,3.5,0.3,4.3,2c1,2.2,1,4.5,0.1,6.7c-0.9,2.3-3.4,3.3-5.7,2.4c-0.4-0.1-0.5-0.8-0.8-1.2
							C338.2,579.7,338.4,579.6,338.5,579.5z M343.5,573.5c0-1.5-0.9-2.6-2.2-2.6c-1.3,0-2.2,1.1-2.2,2.6c0,1.5,0.9,2.5,2.1,2.5
							C342.6,576.1,343.5,575,343.5,573.5z"/>
						<path class="st10" d="M315.8,571.4c-4.1-0.8-5.3-0.1-5.6,3.2c1.2-0.8,2.3-1.3,3.7-0.8c1.6,0.6,2.4,1.8,2.4,3.6
							c0,1.8-0.9,3.1-2.3,3.6c-1.7,0.6-3.4,0.1-4.3-1.3c-1.4-2-1.4-6.4,0.1-8.4c1.2-1.6,3.4-2.2,5.2-1.4
							C315.3,570.2,315.4,570.8,315.8,571.4z M312.6,574.9c-1.3,0-2.2,1-2.2,2.6c0,1.5,0.8,2.5,2.1,2.6c1.3,0.1,2.3-1,2.3-2.5
							C314.8,576,313.9,574.9,312.6,574.9z"/>
						<path class="st10" d="M355.2,575.5c-0.3,1.3-0.5,2.6-1,3.8c-0.5,1.3-1.7,1.9-3.1,1.9c-1.4,0-2.5-0.6-3.1-1.9
							c-1.1-2.5-1.1-5.1,0-7.7c0.6-1.3,1.7-2,3.2-2c1.4,0,2.5,0.7,3,2C354.7,572.9,354.9,574.2,355.2,575.5z M348.8,575.5
							c0.2,1.1,0.3,2.3,0.7,3.2c0.3,0.6,1.1,1.2,1.8,1.2c0.6,0,1.4-0.6,1.7-1.2c0.9-2.1,0.9-4.4,0-6.5c-0.2-0.6-1.1-1.2-1.7-1.2
							c-0.6,0-1.5,0.6-1.7,1.2C349,573.2,349,574.4,348.8,575.5z"/>
						<path class="st10" d="M296.8,573.6c0.9,0.1,1.7,0,2.4,0.2c1.9,0.4,2.9,1.9,2.9,3.8c-0.1,1.9-1.1,3.2-3,3.5c-1,0.2-2,0-3.1,0
							c-1.1-0.1-1.4-0.7-1-1.7c1.8,0.4,3.7,1.3,5-0.5c0.5-0.6,0.5-2.1,0.1-2.7c-1.1-1.8-2.9-1.1-4.7-0.8c0-1.8,0-3.6,0-5.4
							c1.9,0,3.8,0,5.8,0c0,0.4,0,0.7,0,1.2c-1.5,0-2.9,0-4.4,0C296.8,572.1,296.8,572.9,296.8,573.6z"/>
						<path class="st10" d="M291.2,577.1c0.6,0,1.1,0.1,1.6,0.1c0,0.4,0,0.7,0,1.1c-0.5,0.1-0.9,0.1-1.5,0.2c0,0.8,0,1.6,0,2.5
							c-0.6,0-1,0-1.5,0c0-0.8,0-1.6,0-2.6c-1.7,0-3.3,0-5.3,0c0.3-1,0.5-1.8,0.8-2.4c1-1.7,2.1-3.2,3.2-4.9
							c0.9-1.3,0.9-1.3,2.7-1.2C291.2,572.3,291.2,574.6,291.2,577.1z M289.7,571.4c-1.3,2.1-2.4,3.8-3.6,5.7c1.3,0,2.5,0,3.6,0
							C289.7,575.2,289.7,573.5,289.7,571.4z"/>
						<path class="st10" d="M275.8,571.3c-0.3-0.8-0.1-1.3,0.9-1.4c1.1-0.1,2.1-0.2,3.2-0.1c1.5,0.2,2.4,1.2,2.6,2.3
							c0.2,1.1-0.3,2-1.2,2.5c0.4,0.5,0.9,1.1,1.2,1.8c0.2,0.7,0.3,1.5,0.2,2.2c-0.2,1.4-1.3,2.2-2.6,2.4c-1.2,0.2-2.5,0.1-3.7,0
							c-0.9-0.1-1.3-0.6-0.9-1.4c1.2,0.1,2.5,0.3,3.7,0.3c1.3,0,2.1-0.9,2.1-2c0-1.1-0.7-1.9-2-2.1c-0.6-0.1-1.1-0.1-1.8-0.2
							c0-0.4,0-0.7-0.1-1.2c0.6,0,1.2,0,1.8-0.1c1-0.1,1.8-0.6,1.8-1.6c0-1-0.6-1.6-1.6-1.7C278.2,571.1,277,571.2,275.8,571.3z"/>
						<path class="st10" d="M267.6,579.7c1.6,0,2.9,0,4.2,0c0.9,0,1.3,0.2,0.9,1.2c-2.3,0-4.5,0-7.2,0c0.4-0.7,0.5-1.4,1-1.9
							c1.2-1.4,2.6-2.7,3.8-4.1c0.8-0.9,1.4-1.9,0.6-3c-0.7-1.1-1.9-1.1-3-0.8c-0.7,0.2-1.3,0.4-2,0.7c-0.4-1.1,0-1.7,1-1.8
							c1-0.1,2.2-0.4,3.2-0.2c2.5,0.5,3.5,2.8,2,4.9c-1,1.4-2.4,2.7-3.5,4C268.3,579,268,579.2,267.6,579.7z"/>
						<path class="st10" d="M259.1,571.4c-0.9,0.1-1.7,0.3-2.6,0.4c0-0.4,0-0.8,0-1.4c1.3-0.2,2.6-0.4,4.1-0.6c0,3.4,0,6.6,0,9.9
							c0.9,0,1.6,0.1,2.4,0.1c0,0.4,0.1,0.7,0.1,1.2c-2.2,0-4.2,0-6.4,0c0-0.4,0-0.7,0-1.2c0.8-0.1,1.6-0.1,2.3-0.2
							C259.1,576.9,259.1,574.2,259.1,571.4z"/>
						<path class="st10" d="M323.8,571.1c-1.9,0-3.5,0-5.2,0c0-0.4,0-0.8,0-1.2c2.4,0,4.7,0,7.2,0c-0.1,0.5-0.2,0.9-0.4,1.4
							c-1.1,2.8-2.2,5.7-3.3,8.5c-0.4,1-0.8,1.5-2,1C321.3,577.7,322.5,574.5,323.8,571.1z"/>
					</g>
				</g>
			</g>
		</g>
	</g>
	<circle class="st11" cx="188.9" cy="106" r="39"/>
	<g>
		<g>
			<path class="st12" d="M204.6,93.7h-32.2c-0.8,0-1.4-0.6-1.4-1.4v-6.9c0-0.8,0.6-1.4,1.4-1.4h32.2c0.8,0,1.4,0.6,1.4,1.4v6.9
				C206,93.1,205.4,93.7,204.6,93.7z"/>
			<circle class="st12" cx="201.5" cy="88.8" r="1.8"/>
		</g>
		<g>
			<path class="st12" d="M204.3,107h-31.7c-0.9,0-1.7-0.8-1.7-1.7v-6.4c0-0.9,0.8-1.7,1.7-1.7h31.7c0.9,0,1.7,0.8,1.7,1.7v6.4
				C206,106.2,205.2,107,204.3,107z"/>
			<circle class="st12" cx="201.5" cy="102.1" r="1.8"/>
		</g>
		<g>
			<path class="st12" d="M204.2,120.5h-31.5c-1,0-1.8-0.8-1.8-1.8v-6.2c0-1,0.8-1.8,1.8-1.8h31.5c1,0,1.8,0.8,1.8,1.8v6.2
				C206,119.7,205.2,120.5,204.2,120.5z"/>
			<circle class="st12" cx="201.5" cy="115.6" r="1.8"/>
		</g>
		<line class="st13" x1="188.5" y1="86.7" x2="188.5" y2="126.6"/>
		<line class="st13" x1="164.8" y1="127.9" x2="213" y2="127.9"/>
	</g>
	<circle class="st14" cx="104.3" cy="183.4" r="39"/>
	<circle class="st14" cx="436.2" cy="106" r="39"/>
	<circle class="st11" cx="509.2" cy="182.5" r="39"/>
	<path class="st12" d="M443.2,119.9c0,3.9-3.1,7-7,7c-3.8,0-7-3.1-7-7c0-3.9,3.1-7,7-7C440.1,113,443.2,116.1,443.2,119.9z
		 M420.2,106.5l5.3,4.5c5.3-6.4,16.1-6.4,21.4,0l5.3-4.5c-4-4.8-9.8-7.5-16.1-7.5C430,99,424.2,101.7,420.2,106.5z M410.4,96.5
		l5.2,4.7c5.3-5.8,12.8-9.2,20.7-9.2c7.9,0,15.4,3.3,20.6,9.1l5.2-4.7c-6.6-7.3-16-11.4-25.8-11.4C426.4,85.1,417,89.3,410.4,96.5z"
		/>
	<g id="notes_7_">
		<g>
			<path class="st12" d="M85.2,207.6c0,0.6,0.5,1,1,1h38.3c0.6,0,1-0.5,1-1v-37.3H85.2V207.6z M119.5,186.4H93.2v-2h26.2V186.4z
				 M93.2,176.3h26.2v2H93.2V176.3z M91.2,180.4h20.2v2H91.2V180.4z M91.2,188.4h28.2v2H91.2V188.4z M91.2,192.5h28.2v2H91.2V192.5z
				 M91.2,196.5h28.2v2H91.2V196.5z M91.2,200.5h10.1v2H91.2V200.5z"/>
			<path class="st12" d="M123.5,158.2c-1.1,0-2,0.9-2,2h-2c0-1.1-0.9-2-2-2c-1.1,0-2,0.9-2,2h-2c0-1.1-0.9-2-2-2c-1.1,0-2,0.9-2,2
				h-2c0-1.1-0.9-2-2-2c-1.1,0-2,0.9-2,2h-2c0-1.1-0.9-2-2-2c-1.1,0-2,0.9-2,2h-2c0-1.1-0.9-2-2-2c-1.1,0-2,0.9-2,2h-2
				c0-1.1-0.9-2-2-2c-1.1,0-2,0.9-2,2v8.1h40.3v-8.1C125.5,159.1,124.6,158.2,123.5,158.2z"/>
		</g>
	</g>
	<g id="print_1_">
		<path class="st12" d="M530.1,173.9h-5.2c-0.5,0-0.9,0.4-0.9,0.9v5.2c0,0.5-0.4,0.9-0.9,0.9h-26c-0.5,0-0.8-0.4-0.8-0.9v-5.2
			c0-0.5-0.4-0.9-0.9-0.9h-5.1c-0.5,0-0.9,0.4-0.9,0.9v24.1c0,0.5,0.4,0.9,0.9,0.9h6.4c0.5,0,1-0.4,1.1-0.9l0.7-3.5
			c0.1-0.5,0.6-0.9,1.1-0.9h21.3c0.5,0,1,0.4,1.1,0.8l0.7,3.5c0.1,0.5,0.6,0.9,1.1,0.9h6.4c0.5,0,0.9-0.4,0.9-0.9v-24.1
			C531,174.3,530.6,173.9,530.1,173.9z M493,179.1c-1,0-1.7-0.8-1.7-1.7c0-1,0.8-1.7,1.7-1.7c1,0,1.7,0.8,1.7,1.7
			C494.7,178.4,493.9,179.1,493,179.1z"/>
		<path class="st12" d="M520,197.2c-0.1-0.5-0.6-0.8-1.1-0.8h-17.3c-0.5,0-1,0.4-1.1,0.8l-1.3,5.2c-0.1,0.5,0.2,0.8,0.7,0.8h20.7
			c0.5,0,0.8-0.4,0.7-0.8L520,197.2z"/>
		<path class="st12" d="M522.2,178.1c0.1,0.5-0.3,0.9-0.8,0.9H499c-0.5,0-0.8-0.4-0.8-0.9l3.3-15.5c0.1-0.5,0.5-0.9,1-0.9H518
			c0.5,0,0.9,0.4,1,0.9L522.2,178.1z"/>
	</g>
</g>
</svg>
