<?xml version="1.0" encoding="utf-8"?>
<!-- Generator: Adobe Illustrator 19.2.1, SVG Export Plug-In . SVG Version: 6.00 Build 0)  -->
<svg version="1.1" id="Layer_1" xmlns="http://www.w3.org/2000/svg" xmlns:xlink="http://www.w3.org/1999/xlink" x="0px" y="0px"
	 viewBox="0 0 612 612" style="enable-background:new 0 0 612 612;" xml:space="preserve">
<style type="text/css">
	.st0{clip-path:url(#SVGID_2_);}
	.st1{fill:#DC4A35;}
	.st2{clip-path:url(#SVGID_4_);}
	.st3{fill:#E54D3C;}
	.st4{fill:#F4857C;}
	.st5{opacity:0.2;fill:#010101;}
	.st6{fill:#E9ECED;}
	.st7{fill:#BBC0C4;}
	.st8{fill:#313F52;}
	.st9{fill:#4C94D0;}
	.st10{fill:#50C2B9;}
	.st11{fill:#37AB95;}
	.st12{opacity:0.2;fill:#494A49;}
	.st13{opacity:0.2;clip-path:url(#SVGID_6_);fill:#494A49;}
	.st14{fill:#26323E;}
	.st15{fill:#4C657C;}
	.st16{fill:#3C80B4;}
	.st17{fill:#4388B9;}
	.st18{fill:#E6E6E5;}
	.st19{fill:#C63E47;}
	.st20{fill:#AA354B;}
	.st21{fill:#CECECD;}
	.st22{opacity:0.1;fill:#010101;}
	.st23{fill:#FFFFFF;}
	.st24{fill:#A5CF68;}
	.st25{opacity:0.1;fill:#393D3F;}
	.st26{fill:#4C96C0;}
	.st27{fill:#BBDA82;}
	.st28{fill:#468BBB;}
	.st29{fill:#B63927;}
	.st30{fill:#D9A328;}
	.st31{fill:#E5B65A;}
	.st32{fill:#F4CC66;}
	.st33{opacity:0.5;fill:#FFFFFF;}
</style>
<g>
	<defs>
		<circle id="SVGID_1_" cx="306" cy="306" r="306"/>
	</defs>
	<clipPath id="SVGID_2_">
		<use xlink:href="#SVGID_1_"  style="overflow:visible;"/>
	</clipPath>
	<g class="st0">
		<rect x="-118" y="-99.9" class="st1" width="847.9" height="847.9"/>
		<g>
			<defs>
				<rect id="SVGID_3_" x="-118" y="-162" width="847.9" height="847.9"/>
			</defs>
			<clipPath id="SVGID_4_">
				<use xlink:href="#SVGID_3_"  style="overflow:visible;"/>
			</clipPath>
			<g class="st2">
				<polygon class="st3" points="200.2,403.6 131.1,289.7 62.1,403.6 90.4,403.6 90.4,698.7 172,698.7 172,403.6 				"/>
				<polygon class="st3" points="52,475 -17.1,361.1 -86.2,475 -57.9,475 -57.9,698.7 23.7,698.7 23.7,475 				"/>
				<polygon class="st3" points="461.3,189.5 392.2,75.6 323.2,189.5 351.4,189.5 351.4,698.7 433,698.7 433,189.5 				"/>
				<polygon class="st3" points="722.4,23.2 653.3,-90.7 584.2,23.2 612.5,23.2 612.5,698.7 694.1,698.7 694.1,23.2 				"/>
				<polygon class="st3" points="330.8,311.8 261.6,197.9 192.6,311.8 220.9,311.8 220.9,698.7 302.5,698.7 302.5,311.8 				"/>
				<polygon class="st3" points="591.8,97.7 522.7,-16.2 453.7,97.7 482,97.7 482,698.7 563.6,698.7 563.6,97.7 				"/>
			</g>
		</g>
		<g>
			<g>
				<path class="st4" d="M83,229.7c-1.6-0.2-3.1-0.6-4.6-1.2c-1.5-0.6-2.7-1.3-3.8-2.2l1.9-3c0.2-0.2,0.4-0.4,0.7-0.6
					c0.3-0.2,0.6-0.3,0.9-0.3c0.3,0,0.7,0.1,1,0.2c0.4,0.2,0.7,0.4,1.2,0.6c0.4,0.2,0.9,0.5,1.4,0.7c0.5,0.2,1.1,0.4,1.7,0.6
					l0.4-7.9c-1-0.2-2-0.5-3-0.9c-1-0.3-1.9-0.8-2.7-1.4c-0.8-0.6-1.5-1.4-2-2.4c-0.5-1-0.8-2.2-0.9-3.7c0-1.1,0.1-2.2,0.5-3.2
					c0.4-1.1,1-2,1.8-2.9c0.8-0.9,1.8-1.6,3.1-2.2c1.2-0.6,2.6-0.9,4.2-1l0.1-2.4c0-0.4,0.2-0.8,0.5-1.1c0.3-0.3,0.7-0.5,1.2-0.5
					l2.4-0.1l-0.2,4.1c1.5,0.2,2.8,0.6,3.9,1.2c1.1,0.6,2,1.2,2.8,1.9l-1.5,2.4c-0.2,0.4-0.4,0.6-0.7,0.8c-0.2,0.2-0.5,0.3-0.9,0.3
					c-0.2,0-0.5,0-0.8-0.1c-0.3-0.1-0.6-0.2-0.9-0.3c-0.3-0.1-0.7-0.3-1.1-0.4c-0.4-0.2-0.8-0.3-1.2-0.4l-0.4,7.4
					c0.7,0.2,1.3,0.4,2,0.6c0.7,0.2,1.3,0.4,2,0.7c0.6,0.3,1.2,0.6,1.8,1c0.5,0.4,1,0.8,1.4,1.3c0.4,0.5,0.7,1.1,1,1.8
					c0.2,0.7,0.4,1.5,0.4,2.3c0.1,1.3-0.1,2.6-0.5,3.7c-0.4,1.2-1,2.2-1.8,3.1s-1.8,1.7-3.1,2.3c-1.2,0.6-2.6,1-4.2,1.2l-0.1,2.6
					c0,0.4-0.2,0.7-0.5,1.1c-0.3,0.3-0.7,0.5-1.2,0.5l-2.4,0.1L83,229.7z M81.1,207.5c0,0.8,0.3,1.5,0.9,2c0.5,0.5,1.2,0.9,2.1,1.2
					l0.4-6.3c-0.6,0.1-1.2,0.3-1.6,0.5c-0.4,0.2-0.8,0.4-1,0.7c-0.3,0.3-0.4,0.6-0.6,0.9C81.2,206.8,81.1,207.1,81.1,207.5z
					 M90.5,220.6c0-0.8-0.3-1.4-0.8-1.9c-0.5-0.4-1.2-0.8-2.1-1.1l-0.4,6.9C89.5,224,90.6,222.7,90.5,220.6z"/>
			</g>
			<g>
				<path class="st4" d="M523.4,258.5c-1.1-0.1-2.1-0.4-3-0.8c-1-0.4-1.8-0.9-2.5-1.5l1.2-2c0.1-0.2,0.2-0.3,0.4-0.4
					c0.2-0.1,0.4-0.2,0.6-0.2c0.2,0,0.4,0,0.7,0.1c0.2,0.1,0.5,0.2,0.8,0.4c0.3,0.2,0.6,0.3,0.9,0.5c0.3,0.2,0.7,0.3,1.1,0.4
					l0.3-5.2c-0.7-0.2-1.3-0.3-2-0.6c-0.7-0.2-1.3-0.5-1.8-0.9c-0.5-0.4-1-0.9-1.3-1.6c-0.4-0.6-0.5-1.4-0.6-2.4
					c0-0.7,0.1-1.4,0.4-2.1c0.3-0.7,0.7-1.3,1.2-1.9c0.5-0.6,1.2-1.1,2-1.4c0.8-0.4,1.7-0.6,2.8-0.6l0.1-1.6c0-0.3,0.1-0.5,0.3-0.7
					c0.2-0.2,0.4-0.3,0.8-0.3l1.6-0.1l-0.2,2.7c1,0.1,1.9,0.4,2.6,0.8c0.7,0.4,1.4,0.8,1.9,1.2l-1,1.6c-0.1,0.2-0.3,0.4-0.5,0.5
					c-0.2,0.1-0.3,0.2-0.6,0.2c-0.1,0-0.3,0-0.5-0.1c-0.2-0.1-0.4-0.1-0.6-0.2c-0.2-0.1-0.5-0.2-0.7-0.3c-0.3-0.1-0.5-0.2-0.8-0.3
					l-0.3,4.9c0.4,0.1,0.9,0.2,1.3,0.4c0.4,0.1,0.9,0.3,1.3,0.5c0.4,0.2,0.8,0.4,1.2,0.6c0.4,0.2,0.7,0.5,1,0.9
					c0.3,0.3,0.5,0.7,0.7,1.2c0.2,0.4,0.3,1,0.3,1.5c0,0.9-0.1,1.7-0.3,2.5c-0.3,0.8-0.7,1.5-1.2,2.1c-0.5,0.6-1.2,1.1-2,1.5
					c-0.8,0.4-1.7,0.7-2.8,0.8l-0.1,1.7c0,0.3-0.1,0.5-0.3,0.7c-0.2,0.2-0.4,0.3-0.8,0.3l-1.6,0.1L523.4,258.5z M522.2,243.8
					c0,0.5,0.2,1,0.6,1.3c0.4,0.3,0.8,0.6,1.4,0.8l0.2-4.2c-0.4,0.1-0.8,0.2-1.1,0.3c-0.3,0.1-0.5,0.3-0.7,0.5
					c-0.2,0.2-0.3,0.4-0.4,0.6C522.2,243.4,522.2,243.6,522.2,243.8z M528.4,252.5c0-0.5-0.2-0.9-0.6-1.2c-0.3-0.3-0.8-0.5-1.4-0.7
					l-0.3,4.5C527.7,254.7,528.4,253.9,528.4,252.5z"/>
			</g>
			<g>
				<path class="st4" d="M110.7,271.9c-0.9-0.1-1.7-0.3-2.5-0.6c-0.8-0.3-1.5-0.7-2-1.2l1-1.6c0.1-0.1,0.2-0.2,0.4-0.3
					c0.2-0.1,0.3-0.1,0.5-0.1c0.2,0,0.4,0,0.6,0.1c0.2,0.1,0.4,0.2,0.6,0.3c0.2,0.1,0.5,0.3,0.7,0.4c0.3,0.1,0.6,0.2,0.9,0.3
					l0.2-4.3c-0.5-0.1-1.1-0.3-1.6-0.5c-0.5-0.2-1-0.4-1.5-0.8c-0.4-0.3-0.8-0.8-1.1-1.3c-0.3-0.5-0.4-1.2-0.5-2
					c0-0.6,0.1-1.2,0.3-1.8c0.2-0.6,0.5-1.1,1-1.6c0.4-0.5,1-0.9,1.7-1.2c0.7-0.3,1.4-0.5,2.3-0.5l0.1-1.3c0-0.2,0.1-0.4,0.3-0.6
					c0.2-0.2,0.4-0.3,0.6-0.3l1.3-0.1l-0.1,2.2c0.8,0.1,1.5,0.3,2.1,0.6c0.6,0.3,1.1,0.6,1.5,1l-0.8,1.3c-0.1,0.2-0.2,0.3-0.4,0.4
					c-0.1,0.1-0.3,0.1-0.5,0.1c-0.1,0-0.3,0-0.4-0.1c-0.2,0-0.3-0.1-0.5-0.2c-0.2-0.1-0.4-0.1-0.6-0.2c-0.2-0.1-0.4-0.2-0.7-0.2
					l-0.2,4c0.4,0.1,0.7,0.2,1.1,0.3c0.4,0.1,0.7,0.2,1.1,0.4c0.3,0.1,0.7,0.3,1,0.5c0.3,0.2,0.6,0.4,0.8,0.7c0.2,0.3,0.4,0.6,0.5,1
					c0.1,0.4,0.2,0.8,0.2,1.3c0,0.7-0.1,1.4-0.3,2c-0.2,0.6-0.5,1.2-1,1.7c-0.4,0.5-1,0.9-1.7,1.2c-0.7,0.3-1.4,0.5-2.3,0.7
					l-0.1,1.4c0,0.2-0.1,0.4-0.3,0.6c-0.2,0.2-0.4,0.3-0.6,0.3l-1.3,0.1L110.7,271.9z M109.7,259.8c0,0.4,0.2,0.8,0.5,1.1
					c0.3,0.3,0.7,0.5,1.1,0.6l0.2-3.4c-0.3,0.1-0.6,0.2-0.9,0.3c-0.2,0.1-0.4,0.2-0.6,0.4c-0.1,0.1-0.2,0.3-0.3,0.5
					C109.7,259.5,109.7,259.6,109.7,259.8z M114.8,266.9c0-0.4-0.2-0.8-0.5-1c-0.3-0.2-0.7-0.4-1.1-0.6l-0.2,3.7
					C114.2,268.8,114.8,268.1,114.8,266.9z"/>
			</g>
			<g>
				<path class="st4" d="M111.4,192.5c-1-0.1-2-0.4-3-0.8c-0.9-0.4-1.8-0.9-2.4-1.4l1.2-1.9c0.1-0.2,0.2-0.3,0.4-0.4
					c0.2-0.1,0.4-0.2,0.6-0.2c0.2,0,0.4,0,0.7,0.1c0.2,0.1,0.5,0.2,0.7,0.4c0.3,0.1,0.6,0.3,0.9,0.5c0.3,0.2,0.7,0.3,1.1,0.4
					l0.3-5.1c-0.6-0.2-1.3-0.3-1.9-0.6c-0.6-0.2-1.2-0.5-1.7-0.9c-0.5-0.4-1-0.9-1.3-1.5c-0.3-0.6-0.5-1.4-0.6-2.4
					c0-0.7,0.1-1.4,0.3-2.1c0.3-0.7,0.6-1.3,1.2-1.9c0.5-0.6,1.2-1,2-1.4c0.8-0.4,1.7-0.6,2.7-0.6l0.1-1.5c0-0.3,0.1-0.5,0.3-0.7
					c0.2-0.2,0.4-0.3,0.7-0.3l1.5-0.1l-0.2,2.6c1,0.1,1.8,0.4,2.5,0.8c0.7,0.4,1.3,0.8,1.8,1.2l-1,1.5c-0.1,0.2-0.3,0.4-0.4,0.5
					c-0.2,0.1-0.3,0.2-0.5,0.2c-0.1,0-0.3,0-0.5-0.1c-0.2-0.1-0.4-0.1-0.6-0.2c-0.2-0.1-0.5-0.2-0.7-0.3c-0.2-0.1-0.5-0.2-0.8-0.2
					l-0.3,4.7c0.4,0.1,0.9,0.2,1.3,0.4c0.4,0.1,0.9,0.3,1.3,0.5c0.4,0.2,0.8,0.4,1.1,0.6c0.3,0.2,0.7,0.5,0.9,0.8
					c0.3,0.3,0.5,0.7,0.6,1.1c0.2,0.4,0.3,0.9,0.3,1.5c0,0.8-0.1,1.6-0.3,2.4c-0.3,0.8-0.6,1.4-1.2,2c-0.5,0.6-1.2,1.1-2,1.5
					c-0.8,0.4-1.7,0.6-2.7,0.8l-0.1,1.7c0,0.2-0.1,0.5-0.3,0.7c-0.2,0.2-0.4,0.3-0.7,0.3l-1.5,0.1L111.4,192.5z M110.2,178.2
					c0,0.5,0.2,0.9,0.6,1.3c0.3,0.3,0.8,0.6,1.3,0.8l0.2-4c-0.4,0.1-0.7,0.2-1,0.3c-0.3,0.1-0.5,0.3-0.7,0.5
					c-0.2,0.2-0.3,0.4-0.4,0.6C110.2,177.8,110.2,178,110.2,178.2z M116.2,186.6c0-0.5-0.2-0.9-0.5-1.2c-0.3-0.3-0.8-0.5-1.3-0.7
					l-0.2,4.4C115.5,188.8,116.2,188,116.2,186.6z"/>
			</g>
			<g>
				<path class="st4" d="M102.9,150.9c-1-0.1-2-0.4-3-0.8c-1-0.4-1.8-0.9-2.4-1.4l1.2-1.9c0.1-0.2,0.2-0.3,0.4-0.4
					c0.2-0.1,0.4-0.2,0.6-0.2c0.2,0,0.4,0,0.7,0.1c0.2,0.1,0.5,0.2,0.8,0.4c0.3,0.2,0.6,0.3,0.9,0.5s0.7,0.3,1.1,0.4l0.3-5.1
					c-0.7-0.2-1.3-0.3-2-0.6c-0.6-0.2-1.2-0.5-1.8-0.9c-0.5-0.4-1-0.9-1.3-1.5c-0.3-0.6-0.5-1.4-0.6-2.4c0-0.7,0.1-1.4,0.3-2.1
					c0.3-0.7,0.7-1.3,1.2-1.9c0.5-0.6,1.2-1,2-1.4c0.8-0.4,1.7-0.6,2.8-0.6l0.1-1.5c0-0.3,0.1-0.5,0.3-0.7c0.2-0.2,0.4-0.3,0.8-0.3
					l1.5-0.1l-0.2,2.7c1,0.1,1.8,0.4,2.5,0.8c0.7,0.4,1.3,0.8,1.8,1.2l-1,1.5c-0.1,0.2-0.3,0.4-0.4,0.5c-0.2,0.1-0.3,0.2-0.6,0.2
					c-0.1,0-0.3,0-0.5-0.1c-0.2-0.1-0.4-0.1-0.6-0.2c-0.2-0.1-0.5-0.2-0.7-0.3c-0.3-0.1-0.5-0.2-0.8-0.3l-0.3,4.8
					c0.4,0.1,0.9,0.2,1.3,0.4c0.4,0.1,0.9,0.3,1.3,0.5c0.4,0.2,0.8,0.4,1.1,0.6c0.4,0.2,0.7,0.5,0.9,0.9c0.3,0.3,0.5,0.7,0.6,1.2
					c0.2,0.4,0.3,0.9,0.3,1.5c0,0.9-0.1,1.7-0.3,2.4c-0.3,0.8-0.7,1.4-1.2,2c-0.5,0.6-1.2,1.1-2,1.5c-0.8,0.4-1.7,0.7-2.7,0.8
					l-0.1,1.7c0,0.3-0.1,0.5-0.3,0.7c-0.2,0.2-0.4,0.3-0.8,0.3l-1.5,0.1L102.9,150.9z M101.7,136.5c0,0.5,0.2,1,0.6,1.3
					c0.3,0.3,0.8,0.6,1.4,0.8l0.2-4.1c-0.4,0.1-0.8,0.2-1,0.3c-0.3,0.1-0.5,0.3-0.7,0.5c-0.2,0.2-0.3,0.4-0.4,0.6
					C101.7,136,101.7,136.3,101.7,136.5z M107.8,145c0-0.5-0.2-0.9-0.5-1.2c-0.3-0.3-0.8-0.5-1.3-0.7l-0.3,4.5
					C107.1,147.2,107.8,146.3,107.8,145z"/>
			</g>
			<g>
				<path class="st4" d="M560.5,215.8c-1-0.1-2-0.4-3-0.8c-1-0.4-1.8-0.9-2.4-1.4l1.2-1.9c0.1-0.2,0.2-0.3,0.4-0.4
					c0.2-0.1,0.4-0.2,0.6-0.2c0.2,0,0.4,0,0.7,0.1c0.2,0.1,0.5,0.2,0.8,0.4c0.3,0.2,0.6,0.3,0.9,0.5s0.7,0.3,1.1,0.4l0.3-5.1
					c-0.7-0.2-1.3-0.3-2-0.6c-0.6-0.2-1.2-0.5-1.8-0.9c-0.5-0.4-1-0.9-1.3-1.5c-0.3-0.6-0.5-1.4-0.6-2.4c0-0.7,0.1-1.4,0.3-2.1
					c0.3-0.7,0.7-1.3,1.2-1.9c0.5-0.6,1.2-1,2-1.4c0.8-0.4,1.7-0.6,2.8-0.6l0.1-1.5c0-0.3,0.1-0.5,0.3-0.7c0.2-0.2,0.4-0.3,0.8-0.3
					l1.5-0.1l-0.2,2.7c1,0.1,1.8,0.4,2.5,0.8c0.7,0.4,1.3,0.8,1.8,1.2l-1,1.5c-0.1,0.2-0.3,0.4-0.4,0.5c-0.2,0.1-0.3,0.2-0.6,0.2
					c-0.1,0-0.3,0-0.5-0.1c-0.2-0.1-0.4-0.1-0.6-0.2c-0.2-0.1-0.5-0.2-0.7-0.3c-0.3-0.1-0.5-0.2-0.8-0.3l-0.3,4.8
					c0.4,0.1,0.9,0.2,1.3,0.4c0.4,0.1,0.9,0.3,1.3,0.5c0.4,0.2,0.8,0.4,1.1,0.6c0.4,0.2,0.7,0.5,0.9,0.9c0.3,0.3,0.5,0.7,0.6,1.2
					c0.2,0.4,0.3,0.9,0.3,1.5c0,0.9-0.1,1.7-0.3,2.4c-0.3,0.8-0.7,1.4-1.2,2c-0.5,0.6-1.2,1.1-2,1.5c-0.8,0.4-1.7,0.7-2.7,0.8
					l-0.1,1.7c0,0.3-0.1,0.5-0.3,0.7c-0.2,0.2-0.4,0.3-0.8,0.3l-1.5,0.1L560.5,215.8z M559.3,201.4c0,0.5,0.2,1,0.6,1.3
					c0.3,0.3,0.8,0.6,1.4,0.8l0.2-4.1c-0.4,0.1-0.8,0.2-1,0.3c-0.3,0.1-0.5,0.3-0.7,0.5c-0.2,0.2-0.3,0.4-0.4,0.6
					C559.3,200.9,559.2,201.1,559.3,201.4z M565.3,209.9c0-0.5-0.2-0.9-0.5-1.2c-0.3-0.3-0.8-0.5-1.3-0.7l-0.3,4.5
					C564.7,212.1,565.4,211.2,565.3,209.9z"/>
			</g>
			<g>
				<path class="st4" d="M516.3,148.8c-0.8-0.1-1.6-0.3-2.3-0.6c-0.7-0.3-1.4-0.7-1.9-1.1l0.9-1.5c0.1-0.1,0.2-0.2,0.3-0.3
					c0.1-0.1,0.3-0.1,0.4-0.1c0.2,0,0.3,0,0.5,0.1c0.2,0.1,0.4,0.2,0.6,0.3c0.2,0.1,0.4,0.2,0.7,0.4c0.2,0.1,0.5,0.2,0.8,0.3l0.2-4
					c-0.5-0.1-1-0.3-1.5-0.4c-0.5-0.2-1-0.4-1.4-0.7c-0.4-0.3-0.7-0.7-1-1.2c-0.3-0.5-0.4-1.1-0.4-1.9c0-0.6,0.1-1.1,0.3-1.6
					c0.2-0.5,0.5-1,0.9-1.5c0.4-0.4,0.9-0.8,1.5-1.1c0.6-0.3,1.3-0.5,2.1-0.5l0.1-1.2c0-0.2,0.1-0.4,0.2-0.5
					c0.1-0.2,0.3-0.3,0.6-0.3l1.2,0l-0.1,2.1c0.8,0.1,1.4,0.3,2,0.6c0.6,0.3,1,0.6,1.4,0.9l-0.7,1.2c-0.1,0.2-0.2,0.3-0.3,0.4
					c-0.1,0.1-0.3,0.1-0.4,0.1c-0.1,0-0.2,0-0.4-0.1c-0.1,0-0.3-0.1-0.5-0.2c-0.2-0.1-0.4-0.1-0.5-0.2c-0.2-0.1-0.4-0.1-0.6-0.2
					l-0.2,3.7c0.3,0.1,0.7,0.2,1,0.3c0.3,0.1,0.7,0.2,1,0.4c0.3,0.1,0.6,0.3,0.9,0.5c0.3,0.2,0.5,0.4,0.7,0.7
					c0.2,0.3,0.4,0.6,0.5,0.9c0.1,0.3,0.2,0.7,0.2,1.2c0,0.7-0.1,1.3-0.3,1.9c-0.2,0.6-0.5,1.1-0.9,1.6c-0.4,0.5-0.9,0.8-1.5,1.2
					c-0.6,0.3-1.3,0.5-2.1,0.6l-0.1,1.3c0,0.2-0.1,0.4-0.2,0.5c-0.1,0.2-0.3,0.3-0.6,0.3l-1.2,0L516.3,148.8z M515.3,137.6
					c0,0.4,0.2,0.7,0.4,1c0.3,0.2,0.6,0.4,1.1,0.6l0.2-3.2c-0.3,0.1-0.6,0.1-0.8,0.2c-0.2,0.1-0.4,0.2-0.5,0.4
					c-0.1,0.1-0.2,0.3-0.3,0.5C515.3,137.3,515.3,137.5,515.3,137.6z M520,144.2c0-0.4-0.2-0.7-0.4-0.9c-0.3-0.2-0.6-0.4-1-0.6
					l-0.2,3.5C519.5,145.9,520.1,145.3,520,144.2z"/>
			</g>
			<g>
				<path class="st4" d="M528.7,196.5c-1.5-0.2-2.9-0.6-4.3-1.1c-1.4-0.6-2.5-1.2-3.5-2.1l1.7-2.8c0.1-0.2,0.3-0.4,0.6-0.6
					c0.3-0.2,0.5-0.2,0.8-0.3c0.3,0,0.6,0.1,1,0.2c0.3,0.1,0.7,0.3,1.1,0.5c0.4,0.2,0.8,0.4,1.3,0.7c0.5,0.2,1,0.4,1.6,0.5l0.4-7.3
					c-0.9-0.2-1.9-0.5-2.8-0.8c-0.9-0.3-1.8-0.7-2.5-1.3c-0.8-0.6-1.4-1.3-1.9-2.2c-0.5-0.9-0.8-2-0.8-3.4c0-1,0.1-2,0.5-3
					c0.4-1,0.9-1.9,1.7-2.7c0.8-0.8,1.7-1.5,2.8-2c1.1-0.5,2.5-0.8,3.9-0.9l0.1-2.2c0-0.4,0.2-0.7,0.4-1c0.3-0.3,0.6-0.5,1.1-0.5
					l2.2-0.1L534,168c1.4,0.2,2.6,0.6,3.6,1.1c1,0.5,1.9,1.1,2.6,1.7l-1.4,2.2c-0.2,0.3-0.4,0.6-0.6,0.7c-0.2,0.2-0.5,0.2-0.8,0.3
					c-0.2,0-0.4,0-0.7-0.1c-0.3-0.1-0.5-0.2-0.9-0.3c-0.3-0.1-0.7-0.3-1-0.4c-0.4-0.1-0.7-0.3-1.1-0.4l-0.4,6.9
					c0.6,0.2,1.3,0.3,1.9,0.5c0.6,0.2,1.2,0.4,1.8,0.7c0.6,0.3,1.1,0.6,1.6,0.9c0.5,0.3,1,0.7,1.3,1.2c0.4,0.5,0.7,1,0.9,1.7
					c0.2,0.6,0.4,1.3,0.4,2.2c0,1.2-0.1,2.4-0.5,3.5c-0.4,1.1-0.9,2.1-1.7,2.9c-0.8,0.9-1.7,1.6-2.9,2.1c-1.1,0.6-2.5,0.9-3.9,1.1
					l-0.1,2.4c0,0.4-0.2,0.7-0.4,1c-0.3,0.3-0.6,0.5-1.1,0.5l-2.2,0.1L528.7,196.5z M527,175.9c0,0.8,0.3,1.4,0.8,1.8
					c0.5,0.5,1.2,0.8,2,1.1l0.3-5.9c-0.6,0.1-1.1,0.3-1.5,0.5c-0.4,0.2-0.7,0.4-1,0.7c-0.2,0.3-0.4,0.5-0.5,0.8
					C527,175.2,527,175.5,527,175.9z M535.7,188c0-0.7-0.3-1.3-0.8-1.7c-0.5-0.4-1.1-0.8-1.9-1l-0.4,6.4
					C534.8,191.2,535.8,190,535.7,188z"/>
			</g>
		</g>
		<path class="st5" d="M511.7,368.4V190c0-4.3-3.5-7.7-7.7-7.7H141c-4.3,0-7.7,3.5-7.7,7.7v175.2c-17.6,8.3-29.7,26.2-29.7,47
			c0,28.7,23.3,52,52,52c28.7,0,52-23.3,52-52c0-3.5-0.4-7-1-10.3h74.2v13.6v2.8c0,11.7-6.4,22.4-16.8,27.9L242,457.8
			c0,1.6,0.6,3.2,1.8,4.4c1.2,1.2,2.7,1.8,4.4,1.8H362v7.6c0,2.6,2.1,4.8,4.8,4.8h96.8c2.6,0,4.8-2.1,4.8-4.8v-37.6h2.4h39.4
			c2.6,0,4.8-2.1,4.8-4.8v-30.1v-7V392v-12.2v-6.9C514.9,370.8,513.5,369,511.7,368.4z M408.5,401.9v6.2v2.4h-41.8
			c-0.9,0-1.7,0.3-2.4,0.7v-9.2H408.5z"/>
		<g>
			<g>
				<path class="st6" d="M377.9,439.8c-10.3-5.5-16.7-16.2-16.7-27.9v-43.5h-83.7v43.5c0,11.7-6.4,22.4-16.8,27.9l-21.9,11.6v0
					c0,1.6,0.6,3.2,1.8,4.4c1.2,1.2,2.7,1.8,4.4,1.8h148.5c3.4,0,6.2-2.8,6.2-6.2v0L377.9,439.8z"/>
				<path class="st7" d="M238.8,451.5c0,1.6,0.7,3.2,1.8,4.4c1.2,1.2,2.7,1.8,4.4,1.8h148.5c3.4,0,6.2-2.8,6.2-6.2v0L238.8,451.5z"
					/>
				<rect x="277.4" y="368.4" class="st7" width="83.7" height="40.7"/>
				<g>
					<path class="st8" d="M508.5,387.8c0,4.3-3.5,7.7-7.7,7.7h-363c-4.3,0-7.7-3.5-7.7-7.7V183.6c0-4.3,3.5-7.7,7.7-7.7h363
						c4.3,0,7.7,3.5,7.7,7.7V387.8z"/>
				</g>
				<rect x="143.8" y="188.5" class="st9" width="350.9" height="194.3"/>
				<g>
					<g>
						
							<rect x="268.6" y="256.1" transform="matrix(0.8103 -0.586 0.586 0.8103 -103.6842 244.3236)" class="st10" width="113.9" height="52.4"/>
						<g>
							<path class="st11" d="M370.6,259.3l-9.2-12.7c-5.1,3.7-12.3,2.6-16-2.6L283,289.3c3.7,5.1,2.6,12.3-2.6,16l9.2,12.7
								c5.1-3.7,12.3-2.6,16,2.6l62.4-45.2C364.3,270.2,365.5,263,370.6,259.3z"/>
						</g>
						
							<ellipse transform="matrix(0.8103 -0.586 0.586 0.8103 -103.6843 244.3206)" class="st6" cx="325.5" cy="282.3" rx="11.4" ry="15.6"/>
						
							<rect x="274" y="272.9" transform="matrix(0.8103 -0.586 0.586 0.8103 -117.9193 233.9098)" class="st12" width="56.6" height="52.4"/>
					</g>
					<g>
						<defs>
							
								<rect id="SVGID_5_" x="268.6" y="256.1" transform="matrix(0.8103 -0.586 0.586 0.8103 -103.6842 244.3236)" width="113.9" height="52.4"/>
						</defs>
						<clipPath id="SVGID_6_">
							<use xlink:href="#SVGID_5_"  style="overflow:visible;"/>
						</clipPath>
						<polygon class="st13" points="299.6,261.1 258.8,303.6 296.6,339.9 337.4,297.3 378.6,254.3 340.8,218.1 						"/>
					</g>
					<g>
						
							<rect x="260.2" y="248.1" transform="matrix(0.6919 -0.722 0.722 0.6919 -100.2964 313.4567)" class="st10" width="113.9" height="52.4"/>
						<g>
							<path class="st11" d="M357.3,243.5l-11.3-10.8c-4.4,4.6-11.7,4.7-16.2,0.3l-53.3,55.6c4.6,4.4,4.7,11.6,0.3,16.2l11.3,10.8
								c4.4-4.6,11.6-4.7,16.2-0.3l53.3-55.6C353.1,255.4,353,248.1,357.3,243.5z"/>
						</g>
						
							<ellipse transform="matrix(0.6919 -0.722 0.722 0.6919 -100.2977 313.4503)" class="st6" cx="317.1" cy="274.2" rx="11.4" ry="15.6"/>
						
							<rect x="269" y="268.7" transform="matrix(0.6919 -0.722 0.722 0.6919 -121.3272 305.5281)" class="st12" width="56.6" height="52.4"/>
					</g>
				</g>
				<g>
					<path class="st8" d="M372.8,276.4H259.3c-3.7,0-6.7,2.8-6.7,6.3l9.4,50.5c0,3.5,3,6.3,6.7,6.3h94.8c3.7,0,6-2.9,6.7-6.3
						c2.6-13.2,9.4-50.5,9.4-50.5C379.4,279.3,376.5,276.4,372.8,276.4z M265.6,286.6c-0.1-0.7,0.1-1.5,0.6-2
						c0.5-0.6,1.2-0.9,1.9-0.9h10c1.4,0,2.5,1.1,2.5,2.4l0.3,8c0,0.7-0.2,1.4-0.7,1.9c-0.5,0.5-1.1,0.8-1.8,0.8h-9
						c-1.2,0-2.3-0.9-2.5-2.1L265.6,286.6z M268.9,306.9c-0.1-0.7,0.1-1.5,0.6-2c0.5-0.6,1.2-0.9,1.9-0.9h7.5c1.4,0,2.5,1.1,2.5,2.4
						l0.3,6.6c0,0.7-0.2,1.4-0.7,1.9c-0.5,0.5-1.1,0.8-1.8,0.8h-6.7c-1.2,0-2.3-0.9-2.5-2.1L268.9,306.9z M275.3,333.3
						c-1.2,0-2.3-0.9-2.5-2.1l-1-6.2c-0.1-0.7,0.1-1.5,0.6-2c0.5-0.6,1.2-0.9,1.9-0.9h5.3c1.4,0,2.5,1.1,2.5,2.4l0.3,6.2
						c0,0.7-0.2,1.4-0.7,1.9c-0.5,0.5-1.1,0.8-1.8,0.8H275.3z M309.3,330.8c0,1.4-1.1,2.5-2.5,2.5h-9.1c-1.4,0-2.5-1.1-2.5-2.5
						l-0.2-6.2c0-0.7,0.2-1.3,0.7-1.8c0.5-0.5,1.1-0.8,1.8-0.8h9.2c1.4,0,2.5,1.1,2.5,2.5V330.8z M309.3,313c0,1.4-1.1,2.5-2.5,2.5
						h-9.5c-1.4,0-2.5-1.1-2.5-2.5l-0.2-6.6c0-0.7,0.2-1.3,0.7-1.8c0.5-0.5,1.1-0.8,1.8-0.8h9.7c1.4,0,2.5,1.1,2.5,2.5V313z
						 M309.3,294.1c0,1.4-1.1,2.5-2.5,2.5h-10c-1.4,0-2.5-1.1-2.5-2.5l-0.2-8c0-0.7,0.2-1.3,0.7-1.8c0.5-0.5,1.1-0.8,1.8-0.8h10.3
						c1.4,0,2.5,1.1,2.5,2.5V294.1z M336.8,330.8c0,1.4-1.2,2.5-2.5,2.5h-9.1c-1.4,0-2.5-1.1-2.5-2.5v-6.2c0-1.4,1.1-2.5,2.5-2.5
						h9.2c0.7,0,1.3,0.3,1.8,0.8c0.5,0.5,0.7,1.2,0.7,1.8L336.8,330.8z M337.3,313.1c0,1.4-1.2,2.5-2.5,2.5h-9.5
						c-1.4,0-2.5-1.1-2.5-2.5v-6.6c0-1.4,1.1-2.5,2.5-2.5h9.7c0.7,0,1.3,0.3,1.8,0.8c0.5,0.5,0.7,1.2,0.7,1.8L337.3,313.1z
						 M337.8,294.2c0,1.4-1.2,2.5-2.5,2.5h-10c-1.4,0-2.5-1.1-2.5-2.5v-8c0-1.4,1.1-2.5,2.5-2.5h10.3c0.7,0,1.3,0.3,1.8,0.8
						c0.5,0.5,0.7,1.2,0.7,1.8L337.8,294.2z M358.6,331.2c-0.2,1.2-1.3,2.1-2.5,2.1h-3.9c-0.7,0-1.3-0.3-1.8-0.8
						c-0.5-0.5-0.7-1.2-0.7-1.9l0.3-6.2c0.1-1.4,1.2-2.4,2.5-2.4h4.8c0.7,0,1.5,0.3,1.9,0.9c0.5,0.6,0.7,1.3,0.6,2.1L358.6,331.2z
						 M361.7,313.5c-0.2,1.2-1.3,2.1-2.5,2.1h-6.3c-0.7,0-1.3-0.3-1.8-0.8c-0.5-0.5-0.7-1.2-0.7-1.9l0.3-6.6
						c0.1-1.4,1.2-2.4,2.5-2.4h7.2c0.7,0,1.5,0.3,1.9,0.9c0.5,0.6,0.7,1.3,0.6,2.1L361.7,313.5z M365,294.6
						c-0.2,1.2-1.3,2.1-2.5,2.1h-8.9c-0.7,0-1.3-0.3-1.8-0.8c-0.5-0.5-0.7-1.2-0.7-1.9l0.3-8c0.1-1.4,1.2-2.4,2.5-2.4h9.9
						c0.7,0,1.5,0.3,1.9,0.9c0.5,0.6,0.7,1.3,0.6,2.1L365,294.6z"/>
					<path class="st8" d="M387.9,274.4c0-3.7-3-6.8-6.7-6.8H250.8c-3.7,0-6.7,3-6.7,6.8v2.5c0,3.7,3,6.8,6.7,6.8h130.4
						c3.7,0,6.7-3,6.7-6.8V274.4z"/>
					<path class="st14" d="M244.1,276.9c0,3.7,3,6.8,6.7,6.8h130.4c3.7,0,6.7-3,6.7-6.8H244.1z"/>
					<path class="st15" d="M325.1,225.8c0-1.5-1.2-2.7-2.7-2.7h-13.3c-1.5,0-2.7,1.2-2.7,2.7v48.7c0,1.5,1.2,2.7,2.7,2.7h13.3
						c1.5,0,2.7-1.2,2.7-2.7V225.8z"/>
					<ellipse class="st15" cx="315.8" cy="275.2" rx="9.3" ry="9.4"/>
					<ellipse class="st8" cx="315.8" cy="275.2" rx="4.1" ry="4.2"/>
					<path class="st8" d="M316.9,264.7c0,0.6-0.5,1.1-1.1,1.1l0,0c-0.6,0-1.1-0.5-1.1-1.1v-40.5c0-0.6,0.5-1.1,1.1-1.1l0,0
						c0.6,0,1.1,0.5,1.1,1.1V264.7z"/>
					<path class="st8" d="M321.6,264.7c0,0.6-0.5,1.1-1.1,1.1l0,0c-0.6,0-1.1-0.5-1.1-1.1v-40.5c0-0.6,0.5-1.1,1.1-1.1l0,0
						c0.6,0,1.1,0.5,1.1,1.1V264.7z"/>
					<path class="st8" d="M312.3,264.7c0,0.6-0.5,1.1-1.1,1.1l0,0c-0.6,0-1.1-0.5-1.1-1.1v-40.5c0-0.6,0.5-1.1,1.1-1.1l0,0
						c0.6,0,1.1,0.5,1.1,1.1V264.7z"/>
				</g>
			</g>
			<g>
				<circle class="st16" cx="152.3" cy="405.8" r="52"/>
				<ellipse class="st17" cx="152.3" cy="411.1" rx="42.1" ry="42.1"/>
				<path class="st16" d="M155.5,373.5c0,0.5-0.4,0.9-0.9,0.9H150c-0.5,0-0.9-0.4-0.9-0.9v-12.4c0-0.5,0.4-0.9,0.9-0.9h4.6
					c0.5,0,0.9,0.4,0.9,0.9V373.5z"/>
				<path class="st16" d="M186.8,404.8c-0.5,0-0.9,0.4-0.9,0.9v4.6c0,0.5,0.4,0.9,0.9,0.9h12.4c0.5,0,0.9-0.4,0.9-0.9v-4.6
					c0-0.5-0.4-0.9-0.9-0.9H186.8z"/>
				<path class="st16" d="M117.7,404.8c0.5,0,0.9,0.4,0.9,0.9v4.6c0,0.5-0.4,0.9-0.9,0.9h-12.4c-0.5,0-0.9-0.4-0.9-0.9v-4.6
					c0-0.5,0.4-0.9,0.9-0.9H117.7z"/>
				<path class="st18" d="M152.3,353.8c-28.7,0-52,23.3-52,52c0,28.7,23.3,52,52,52c28.7,0,52-23.3,52-52
					C204.3,377.1,181,353.8,152.3,353.8z M152.3,447.8c-23.2,0-42-18.8-42-42c0-23.2,18.8-42,42-42c23.2,0,42,18.8,42,42
					C194.3,429,175.5,447.8,152.3,447.8z"/>
				<g>
					<polygon class="st16" points="146.3,402.1 159.1,414.9 176.8,384.4 					"/>
					<polygon class="st16" points="128.6,432.6 159.1,414.9 146.3,402.1 					"/>
				</g>
				<polygon class="st19" points="176.8,381.7 159.1,412.2 146.3,399.4 				"/>
				<polygon class="st20" points="176.8,381.7 159.1,412.2 152.7,405.8 				"/>
				<polygon class="st18" points="128.6,429.9 146.3,399.4 159.1,412.3 				"/>
				<polygon class="st21" points="128.6,429.9 152.7,405.8 159.1,412.3 				"/>
				<path class="st18" d="M155.5,370.8c0,0.5-0.4,0.9-0.9,0.9H150c-0.5,0-0.9-0.4-0.9-0.9v-12.4c0-0.5,0.4-0.9,0.9-0.9h4.6
					c0.5,0,0.9,0.4,0.9,0.9V370.8z"/>
				<path class="st18" d="M155.5,440.8c0-0.5-0.4-0.9-0.9-0.9H150c-0.5,0-0.9,0.4-0.9,0.9v12.4c0,0.5,0.4,0.9,0.9,0.9h4.6
					c0.5,0,0.9-0.4,0.9-0.9V440.8z"/>
				<path class="st18" d="M186.8,403c-0.5,0-0.9,0.4-0.9,0.9v4.6c0,0.5,0.4,0.9,0.9,0.9h12.4c0.5,0,0.9-0.4,0.9-0.9v-4.6
					c0-0.5-0.4-0.9-0.9-0.9H186.8z"/>
				<path class="st18" d="M117.7,403c0.5,0,0.9,0.4,0.9,0.9v4.6c0,0.5-0.4,0.9-0.9,0.9h-12.4c-0.5,0-0.9-0.4-0.9-0.9v-4.6
					c0-0.5,0.4-0.9,0.9-0.9H117.7z"/>
			</g>
			<polygon class="st22" points="445,285.5 454.7,280.7 464.5,275.8 454.1,272.3 404.3,255.5 395.6,252.5 398.5,261.2 415.4,311.1 
				418.9,321.5 423.8,311.6 428.6,301.9 438.5,311.9 441.7,315.1 445,311.9 454.9,301.9 458.1,298.7 454.9,295.4 			"/>
			<g>
				<polygon class="st6" points="457.3,260.6 407.5,243.8 398.8,240.9 401.7,249.6 418.5,299.4 422,309.8 426.9,300 431.8,290.3 
					441.7,300.2 444.9,303.4 448.1,300.2 458.1,290.2 461.3,287 458.1,283.8 448.2,273.9 457.9,269 467.7,264.2 				"/>
				<polygon class="st23" points="449.7,292.2 406.2,248.7 422.9,297.9 430.5,282.6 444.9,297 				"/>
			</g>
			<g>
				<path class="st24" d="M511.7,422.9c0,2.6-2.1,4.8-4.8,4.8h-96.8c-2.6,0-4.8-2.1-4.8-4.8v-56.5c0-2.6,2.1-4.8,4.8-4.8h96.8
					c2.6,0,4.8,2.1,4.8,4.8V422.9z"/>
				<path class="st25" d="M462.8,401.7h-57.4v21.2c0,2.6-0.3,4.8,2.4,4.8h59.8v-21.2C467.5,403.8,465.4,401.7,462.8,401.7z"/>
				<path class="st16" d="M465.2,465.3c0,2.6-2.1,4.8-4.8,4.8h-96.8c-2.6,0-4.8-2.1-4.8-4.8v-56.5c0-2.6,2.1-4.8,4.8-4.8h96.8
					c2.6,0,4.8,2.1,4.8,4.8V465.3z"/>
				<rect x="405.3" y="373.4" class="st8" width="106.3" height="12.2"/>
				<rect x="366.7" y="445" class="st26" width="18.3" height="3.3"/>
				<rect x="390.2" y="445" class="st26" width="18.3" height="3.3"/>
				<rect x="405.3" y="385.9" class="st27" width="106.3" height="7"/>
				<rect x="386.1" y="456" class="st26" width="8.8" height="7"/>
				<rect x="400.6" y="456" class="st26" width="8.8" height="7"/>
				<rect x="413.7" y="445" class="st26" width="18.3" height="3.3"/>
				<rect x="437.2" y="445" class="st26" width="18.3" height="3.3"/>
				<rect x="369" y="412.4" class="st28" width="18.5" height="18.5"/>
				<circle class="st29" cx="447.1" cy="421.7" r="10.6"/>
				<path class="st30" d="M442.5,421.7c0,5.9-4.8,10.6-10.6,10.6c-5.9,0-10.6-4.8-10.6-10.6c0-5.9,4.8-10.6,10.6-10.6
					C437.7,411,442.5,415.8,442.5,421.7z"/>
			</g>
			<g>
				
					<rect x="153.7" y="190" transform="matrix(0.2074 -0.9783 0.9783 0.2074 -70.0116 358.3165)" class="st31" width="64.8" height="64.8"/>
				<rect x="156" y="188.2" class="st32" width="64.8" height="64.8"/>
			</g>
			<rect x="182.7" y="176.9" class="st33" width="9.9" height="19.4"/>
		</g>
	</g>
</g>
</svg>
