<?xml version="1.0" encoding="utf-8"?>
<!-- Generator: Adobe Illustrator 19.2.1, SVG Export Plug-In . SVG Version: 6.00 Build 0)  -->
<svg version="1.1" id="Layer_1" xmlns="http://www.w3.org/2000/svg" xmlns:xlink="http://www.w3.org/1999/xlink" x="0px" y="0px"
	 viewBox="0 0 612 612" style="enable-background:new 0 0 612 612;" xml:space="preserve">
<style type="text/css">
	.st0{fill:#4A8E99;}
	.st1{fill:#B1E1F0;}
	.st2{fill:#98D8E3;}
	.st3{fill:#4E4542;}
	.st4{fill:#E6543C;}
	.st5{fill:#413A38;}
	.st6{fill:#E6E6E5;}
	.st7{fill:#25201F;}
	.st8{fill:#F15F47;}
	.st9{fill:#FAB516;}
	.st10{fill:#E5A724;}
	.st11{fill:#754D25;}
	.st12{fill:#FFFFFF;}
	.st13{fill:#603A17;}
	.st14{fill:#396C74;}
	.st15{fill:#326067;}
	.st16{fill:#2D545A;}
	.st17{fill:#509BA6;}
	.st18{fill:#5CB1BF;}
	.st19{fill:#447954;}
	.st20{fill:none;}
	.st21{fill:#FEE67F;}
	.st22{fill:#5CB1BF;stroke:#FFFFFF;stroke-width:1.2841;stroke-miterlimit:10;}
	.st23{fill:#E7D172;}
	.st24{fill:#85C3CC;}
	.st25{fill:#8D633A;}
	.st26{fill:#396747;}
	.st27{fill:#A67D52;}
	.st28{fill:#F9EDB9;}
	.st29{fill-rule:evenodd;clip-rule:evenodd;fill:#C6D1D9;}
	.st30{fill-rule:evenodd;clip-rule:evenodd;fill:#FFFFFF;}
	.st31{fill-rule:evenodd;clip-rule:evenodd;fill:#F78D2A;}
	.st32{fill-rule:evenodd;clip-rule:evenodd;fill:#4173A1;}
	.st33{fill-rule:evenodd;clip-rule:evenodd;fill:#5E8DB6;}
	.st34{fill-rule:evenodd;clip-rule:evenodd;fill:#7BA4C9;}
	.st35{fill-rule:evenodd;clip-rule:evenodd;fill:#9ABDDC;}
	.st36{fill-rule:evenodd;clip-rule:evenodd;fill:#B8D5F0;}
	.st37{fill-rule:evenodd;clip-rule:evenodd;fill:#CDCCCC;}
	.st38{fill:#C6D1D9;}
	.st39{fill-rule:evenodd;clip-rule:evenodd;fill:#A9B9C4;}
	.st40{fill-rule:evenodd;clip-rule:evenodd;fill:#E8E7E5;}
	.st41{fill-rule:evenodd;clip-rule:evenodd;fill:#572A1F;}
	.st42{fill-rule:evenodd;clip-rule:evenodd;fill:#29567E;}
	.st43{fill-rule:evenodd;clip-rule:evenodd;fill:#F2CBAA;}
	.st44{fill-rule:evenodd;clip-rule:evenodd;fill:#FED6B7;}
	.st45{fill-rule:evenodd;clip-rule:evenodd;fill:#D2A987;}
	.st46{fill-rule:evenodd;clip-rule:evenodd;fill:#FEE6D3;}
	.st47{fill-rule:evenodd;clip-rule:evenodd;fill:#5B90BE;}
	.st48{fill-rule:evenodd;clip-rule:evenodd;fill:#707579;}
	.st49{fill-rule:evenodd;clip-rule:evenodd;fill:#969DA3;}
	.st50{fill-rule:evenodd;clip-rule:evenodd;fill:#B65D47;}
	.st51{fill-rule:evenodd;clip-rule:evenodd;fill:#3B1A12;}
	.st52{fill-rule:evenodd;clip-rule:evenodd;fill:#98792D;}
</style>
<g>
	<circle class="st0" cx="306" cy="306" r="306"/>
	<g>
		<g>
			<path class="st1" d="M229.9,327.7h11.9V352c0,3.3-2.7,6-6,6l0,0c-3.3,0-6-2.7-6-6V327.7z"/>
			<path class="st1" d="M237.4,323.2h-1c0.4-0.6,0.6-1.2,0.6-1.9c0-2.2-2.2-4.1-4.9-4.1c-1.2,0-2.3,0.4-3.1,1c0-0.4,0.1-0.7,0.1-1.1
				c0-6-5.9-10.8-13.1-10.8c-5.5,0-10.2,2.8-12.1,6.8c-1.3-0.5-2.8-0.7-4.3-0.7c-6.1,0-11.1,4.1-11.1,9.1c0,0.6,0.1,1.1,0.2,1.7
				h-0.6c-2.4,0-4.3,2-4.3,4.5c0,2.5,1.9,4.5,4.3,4.5h49.5c2.4,0,4.3-2,4.3-4.5C241.8,325.2,239.8,323.2,237.4,323.2z"/>
		</g>
		<g>
			<path class="st2" d="M201.9,335.4h9.5v19.4c0,2.6-2.1,4.7-4.7,4.7l0,0c-2.6,0-4.7-2.1-4.7-4.7V335.4z"/>
			<path class="st2" d="M208,331.8h-0.8c0.3-0.5,0.5-1,0.5-1.5c0-1.8-1.7-3.2-3.9-3.2c-1,0-1.8,0.3-2.5,0.8c0-0.3,0.1-0.6,0.1-0.8
				c0-4.8-4.7-8.6-10.4-8.6c-4.4,0-8.1,2.2-9.7,5.4c-1.1-0.4-2.2-0.6-3.4-0.6c-4.9,0-8.8,3.3-8.8,7.3c0,0.5,0.1,0.9,0.2,1.3h-0.5
				c-1.9,0-3.5,1.6-3.5,3.6c0,2,1.5,3.6,3.5,3.6H208c1.9,0,3.5-1.6,3.5-3.6C211.4,333.5,209.9,331.8,208,331.8z"/>
		</g>
		<g>
			<g>
				<g>
					<polygon class="st3" points="197.9,420.9 215.4,420.9 213.3,347.3 200,347.3 					"/>
					<polygon class="st3" points="227.1,420.9 244.6,420.9 242.5,347.3 229.2,347.3 					"/>
					<polygon class="st4" points="200.2,341 200,347.3 213.3,347.3 213.1,341 					"/>
					<polygon class="st4" points="229.4,341 229.2,347.3 242.5,347.3 242.3,341 					"/>
					<g>
						<polygon class="st5" points="200,347.3 197.9,420.9 206.7,420.9 206.7,347.3 						"/>
					</g>
					<g>
						<polygon class="st5" points="229.2,347.3 227.1,420.9 235.8,420.9 235.8,347.3 						"/>
					</g>
				</g>
				<g>
					<polygon class="st6" points="235.9,392.2 235.9,404.3 206.7,392.2 206.7,404.3 177.4,392.2 177.4,453.1 206.7,453.1 
						235.9,453.1 265.2,453.1 265.2,404.3 					"/>
					<g>
						<rect x="183.1" y="410.4" class="st7" width="17.9" height="7.2"/>
						<rect x="212.4" y="410.4" class="st7" width="17.9" height="7.2"/>
						<rect x="241.6" y="410.4" class="st7" width="17.9" height="7.2"/>
					</g>
				</g>
			</g>
			<g>
				<g>
					<path class="st8" d="M158.9,447.2h-29.4v-31.7c0-7.6,6.1-13.7,13.7-13.7h2c7.6,0,13.7,6.1,13.7,13.7V447.2z"/>
					<g>
						<path class="st9" d="M158.9,415.5c0-7.6-6.1-13.7-13.7-13.7h-2c-7.6,0-13.7,6.1-13.7,13.7v0L158.9,415.5L158.9,415.5z"/>
					</g>
					<rect x="129.6" y="415.5" class="st4" width="14.7" height="31.6"/>
					<g>
						<path class="st10" d="M129.6,415.5c0-7.6,6.1-13.7,13.7-13.7h1v13.7L129.6,415.5L129.6,415.5z"/>
					</g>
				</g>
				<g>
					<path class="st8" d="M192,447.2h-29.4v-31.7c0-7.6,6.1-13.7,13.7-13.7h2c7.6,0,13.7,6.1,13.7,13.7V447.2z"/>
					<g>
						<path class="st9" d="M192,415.5c0-7.6-6.1-13.7-13.7-13.7h-2c-7.6,0-13.7,6.1-13.7,13.7v0L192,415.5L192,415.5z"/>
					</g>
					<rect x="162.7" y="415.5" class="st4" width="14.7" height="31.6"/>
					<g>
						<path class="st10" d="M162.7,415.5c0-7.6,6.1-13.7,13.7-13.7h1v13.7L162.7,415.5L162.7,415.5z"/>
					</g>
				</g>
				<rect x="127.9" y="447.2" class="st11" width="66" height="5.9"/>
			</g>
			<g>
				<rect x="205.7" y="431.4" class="st12" width="73.9" height="21.7"/>
				<rect x="202.3" y="429" class="st5" width="80.6" height="2.4"/>
				<g>
					<rect x="211" y="438.3" class="st11" width="17.7" height="14.8"/>
					<rect x="233.7" y="438.3" class="st11" width="17.7" height="14.8"/>
					<rect x="256.5" y="438.3" class="st11" width="17.7" height="14.8"/>
				</g>
			</g>
		</g>
		<g>
			<g>
				<path class="st1" d="M369.7,358.3h9.5v19.4c0,2.6-2.1,4.7-4.7,4.7l0,0c-2.6,0-4.7-2.1-4.7-4.7V358.3z"/>
				<path class="st1" d="M375.8,354.7H375c0.3-0.5,0.5-1,0.5-1.5c0-1.8-1.8-3.2-3.9-3.2c-1,0-1.8,0.3-2.5,0.8c0-0.3,0.1-0.6,0.1-0.8
					c0-4.8-4.7-8.6-10.4-8.6c-4.4,0-8.1,2.2-9.7,5.4c-1.1-0.4-2.2-0.6-3.4-0.6c-4.9,0-8.8,3.3-8.8,7.3c0,0.5,0.1,0.9,0.2,1.3h-0.5
					c-1.9,0-3.5,1.6-3.5,3.6c0,2,1.5,3.6,3.5,3.6h39.4c1.9,0,3.5-1.6,3.5-3.6C379.2,356.3,377.7,354.7,375.8,354.7z"/>
			</g>
			<g>
				<polygon class="st12" points="385.3,437.3 363.7,437.3 368.1,368 380.9,368 				"/>
				<g>
					<polygon class="st8" points="380.9,368 368.1,368 367.5,377.4 381.5,377.4 					"/>
					<polygon class="st8" points="363.7,437.3 385.3,437.3 384.7,427.9 364.3,427.9 					"/>
					<polygon class="st8" points="364.9,417.4 384,417.4 383.4,407.9 365.5,407.9 					"/>
					<polygon class="st8" points="366.2,397.4 382.8,397.4 382.2,388 366.8,388 					"/>
				</g>
				<rect x="359.3" y="437.3" class="st13" width="29.7" height="15.7"/>
				<g>
					<polygon class="st6" points="374.5,388 374.5,377.4 367.5,377.4 366.6,391.1 366.8,388 					"/>
					<polygon class="st6" points="374.5,407.9 374.5,397.4 366.2,397.4 365.1,414.2 365.5,407.9 					"/>
					<polygon class="st6" points="374.5,427.9 374.5,417.4 364.9,417.4 363.7,437.3 364.3,427.9 					"/>
					<polygon class="st4" points="374.5,368 368.1,368 367.5,377.4 367.5,377.4 374.5,377.4 					"/>
					<polygon class="st4" points="364.3,427.9 363.7,437.3 374.5,437.3 374.5,427.9 					"/>
					<polygon class="st4" points="374.5,407.9 365.5,407.9 365.1,414.2 364.9,417.4 364.9,417.4 374.5,417.4 					"/>
					<polygon class="st4" points="374.5,388 366.8,388 366.6,391.1 366.2,397.4 366.2,397.4 374.5,397.4 					"/>
				</g>
			</g>
		</g>
		<g>
			<rect x="378.3" y="415.6" class="st14" width="36.7" height="37.5"/>
			<rect x="377.3" y="413.2" class="st15" width="38.8" height="2.4"/>
		</g>
		<g>
			<rect x="491.1" y="381.3" class="st16" width="24.1" height="6.6"/>
			<rect x="484.4" y="385.9" class="st15" width="37.3" height="67.2"/>
			<g>
				<g>
					<rect id="XMLID_53_" x="487.9" y="442.1" class="st17" width="5" height="6.7"/>
					<rect id="XMLID_52_" x="487.9" y="431.7" class="st17" width="5" height="6.7"/>
					<rect id="XMLID_51_" x="487.9" y="421.4" class="st17" width="5" height="6.7"/>
					<rect id="XMLID_50_" x="487.9" y="411" class="st17" width="5" height="6.7"/>
					<rect id="XMLID_49_" x="487.9" y="400.6" class="st17" width="5" height="6.7"/>
					<rect id="XMLID_48_" x="487.9" y="390.2" class="st17" width="5" height="6.7"/>
				</g>
				<g>
					<rect id="XMLID_47_" x="496.4" y="442.1" class="st17" width="5" height="6.7"/>
					<rect id="XMLID_46_" x="496.4" y="431.7" class="st17" width="5" height="6.7"/>
					<rect id="XMLID_45_" x="496.4" y="421.4" class="st17" width="5" height="6.7"/>
					<rect id="XMLID_44_" x="496.4" y="411" class="st17" width="5" height="6.7"/>
					<rect id="XMLID_43_" x="496.4" y="400.6" class="st17" width="5" height="6.7"/>
					<rect id="XMLID_42_" x="496.4" y="390.2" class="st17" width="5" height="6.7"/>
				</g>
				<g>
					<rect id="XMLID_41_" x="504.9" y="442.1" class="st17" width="5" height="6.7"/>
					<rect id="XMLID_40_" x="504.9" y="431.7" class="st17" width="5" height="6.7"/>
					<rect id="XMLID_39_" x="504.9" y="421.4" class="st17" width="5" height="6.7"/>
					<rect id="XMLID_38_" x="504.9" y="411" class="st17" width="5" height="6.7"/>
					<rect id="XMLID_37_" x="504.9" y="400.6" class="st17" width="5" height="6.7"/>
					<rect id="XMLID_36_" x="504.9" y="390.2" class="st17" width="5" height="6.7"/>
				</g>
				<g>
					<rect id="XMLID_35_" x="513.4" y="442.1" class="st17" width="5" height="6.7"/>
					<rect id="XMLID_34_" x="513.4" y="431.7" class="st17" width="5" height="6.7"/>
					<rect id="XMLID_32_" x="513.4" y="421.4" class="st17" width="5" height="6.7"/>
					<rect id="XMLID_31_" x="513.4" y="411" class="st17" width="5" height="6.7"/>
					<rect id="XMLID_28_" x="513.4" y="400.6" class="st17" width="5" height="6.7"/>
					<rect id="XMLID_27_" x="513.4" y="390.2" class="st17" width="5" height="6.7"/>
				</g>
			</g>
		</g>
		<g>
			<rect x="458.2" y="401.7" class="st15" width="9.5" height="5.6"/>
			<rect x="470.3" y="401.7" class="st15" width="9.5" height="5.6"/>
			<rect x="453" y="405.8" class="st14" width="37.3" height="47.3"/>
			<g>
				<rect id="XMLID_25_" x="458.2" y="445.4" class="st18" width="27" height="4.7"/>
				<rect id="XMLID_24_" x="458.2" y="438" class="st18" width="27" height="4.7"/>
				<rect id="XMLID_20_" x="458.2" y="430.7" class="st18" width="27" height="4.7"/>
				<rect id="XMLID_19_" x="458.2" y="423.4" class="st18" width="27" height="4.7"/>
				<rect id="XMLID_5_" x="458.2" y="416.1" class="st18" width="27" height="4.7"/>
				<rect id="XMLID_4_" x="458.2" y="408.8" class="st18" width="27" height="4.7"/>
			</g>
		</g>
		<g>
			<path class="st19" d="M498.8,453.1h-15.6c0-4.3,3.5-7.8,7.8-7.8C495.3,445.3,498.8,448.8,498.8,453.1z"/>
			<path class="st19" d="M485.9,453.1h-12.1c0-3.3,2.7-6.1,6.1-6.1C483.2,447,485.9,449.7,485.9,453.1z"/>
		</g>
		<g>
			<g>
				
					<rect x="321.6" y="348.8" transform="matrix(0.3676 -0.93 0.93 0.3676 -141.7171 535.0375)" class="st13" width="2" height="45.8"/>
			</g>
			<g>
				
					<rect x="254.4" y="370.7" transform="matrix(0.9102 -0.4142 0.4142 0.9102 -129.3003 147.1393)" class="st13" width="40.6" height="2"/>
			</g>
			<g>
				<rect x="343.5" y="388.3" class="st13" width="2" height="21.5"/>
			</g>
			<g>
				<g>
					<path class="st5" d="M354.3,389.3h-99.1v-10.1h89.1L354.3,389.3z M257.2,387.3h92.3l-6.1-6.2h-86.2V387.3z"/>
				</g>
				<g>
					<path class="st5" d="M351.1,388.4c-0.3,0-0.5-0.1-0.7-0.3l-5.6-5.6l-5.6,5.6c-0.4,0.4-1,0.4-1.4,0l-5.6-5.6l-5.6,5.6
						c-0.4,0.4-1,0.4-1.4,0l-5.6-5.6l-5.6,5.6c-0.2,0.2-0.4,0.3-0.7,0.3l0,0c-0.3,0-0.5-0.1-0.7-0.3l-5.6-5.6l-5.6,5.6
						c-0.4,0.4-1,0.4-1.4,0l-5.6-5.6l-5.6,5.6c-0.4,0.4-1,0.4-1.4,0l-5.6-5.6l-5.6,5.6c-0.2,0.2-0.4,0.3-0.7,0.3l0,0
						c-0.3,0-0.5-0.1-0.7-0.3l-5.6-5.6l-5.6,5.6c-0.4,0.4-1,0.4-1.4,0l-6.3-6.3c-0.4-0.4-0.4-1,0-1.4c0.4-0.4,1-0.4,1.4,0l5.6,5.6
						l5.6-5.6c0.4-0.4,1-0.4,1.4,0l5.6,5.6l5.6-5.6c0.4-0.4,1-0.4,1.4,0l5.6,5.6l5.6-5.6c0.2-0.2,0.4-0.3,0.7-0.3l0,0
						c0.3,0,0.5,0.1,0.7,0.3l5.6,5.6l5.6-5.6c0.4-0.4,1-0.4,1.4,0l5.6,5.6l5.6-5.6c0.2-0.2,0.4-0.3,0.7-0.3l0,0
						c0.3,0,0.5,0.1,0.7,0.3l5.6,5.6l5.6-5.6c0.4-0.4,1-0.4,1.4,0l5.6,5.6l5.6-5.6c0.4-0.4,1-0.4,1.4,0l6.3,6.3c0.4,0.4,0.4,1,0,1.4
						C351.6,388.3,351.4,388.4,351.1,388.4z"/>
				</g>
			</g>
			<g>
				<g>
					<path class="st5" d="M302.3,453.1h-10.1v-90.7l10.1,0V453.1z M294.1,451.1h6.1v-86.8l-6.1,0V451.1z"/>
				</g>
				<g>
					<path class="st5" d="M300.4,453.1c-0.3,0-0.5-0.1-0.7-0.3l-6.3-6.3c-0.4-0.4-0.4-1,0-1.4l5.6-5.6l-5.6-5.6
						c-0.2-0.2-0.3-0.4-0.3-0.7c0-0.3,0.1-0.5,0.3-0.7l5.6-5.6l-5.6-5.6c-0.4-0.4-0.4-1,0-1.4l5.6-5.6l-5.6-5.6
						c-0.4-0.4-0.4-1,0-1.4l5.6-5.6l-5.6-5.6c-0.2-0.2-0.3-0.4-0.3-0.7c0-0.3,0.1-0.5,0.3-0.7l5.6-5.6l-5.6-5.6
						c-0.4-0.4-0.4-1,0-1.4l5.6-5.6l-5.6-5.6c-0.4-0.4-0.4-1,0-1.4l6.3-6.3c0.4-0.4,1-0.4,1.4,0c0.4,0.4,0.4,1,0,1.4l-5.6,5.6
						l5.6,5.6c0.4,0.4,0.4,1,0,1.4l-5.6,5.6l5.6,5.6c0.4,0.4,0.4,1,0,1.4l-5.6,5.6l5.6,5.6c0.4,0.4,0.4,1,0,1.4l-5.6,5.6l5.6,5.6
						c0.2,0.2,0.3,0.4,0.3,0.7c0,0.3-0.1,0.5-0.3,0.7l-5.6,5.6l5.6,5.6c0.4,0.4,0.4,1,0,1.4l-5.6,5.6l5.6,5.6c0.4,0.4,0.4,1,0,1.4
						l-5.6,5.6l5.6,5.6c0.4,0.4,0.4,1,0,1.4C300.9,453,300.6,453.1,300.4,453.1z"/>
				</g>
			</g>
			<g>
				<circle class="st5" cx="344.5" cy="411.8" r="3.5"/>
			</g>
			<g>
				<path class="st7" d="M344.5,408.3c-1.9,0-3.5,1.6-3.5,3.5c0,1.9,1.6,3.5,3.5,3.5V408.3z"/>
			</g>
			<g>
				<polygon class="st20" points="294.1,418.9 297.2,415.9 297.2,412.4 294.1,409.3 				"/>
				<polygon class="st20" points="297.2,409.5 297.2,406 295.4,407.8 				"/>
				<polygon class="st20" points="297.2,396.9 297.2,393.4 295.4,395.1 				"/>
				<polygon class="st20" points="294.1,406.3 297.2,403.2 297.2,399.7 294.1,396.6 				"/>
				<polygon class="st20" points="296.2,381.7 297.2,382.7 297.2,381.1 296.8,381.1 				"/>
				<polygon class="st20" points="294.1,387.3 297.2,387.3 297.2,387.1 294.1,384 				"/>
				<polygon class="st20" points="294.1,393.6 297.2,390.6 297.2,389.3 294.1,389.3 				"/>
				<polygon class="st20" points="297.2,447.5 297.2,444 295.4,445.8 				"/>
				<polygon class="st20" points="294.1,451.1 297.2,451.1 297.2,450.3 294.1,447.3 				"/>
				<polygon class="st20" points="294.1,444.3 297.2,441.2 297.2,437.7 294.1,434.6 				"/>
				<polygon class="st20" points="297.2,422.2 297.2,418.7 295.4,420.4 				"/>
				<polygon class="st20" points="294.1,431.6 297.2,428.5 297.2,425 294.1,422 				"/>
				<polygon class="st20" points="297.2,434.9 297.2,431.4 295.4,433.1 				"/>
				<polygon class="st20" points="281.5,382.5 276.7,387.3 286.3,387.3 				"/>
				<polygon class="st20" points="289.3,387.3 292.1,387.3 292.1,384.5 				"/>
				<polygon class="st20" points="270.3,381.1 275.2,386 280,381.1 				"/>
				<polygon class="st20" points="294.1,379.1 296,379.1 297.2,377.9 297.2,374.4 294.1,371.3 				"/>
				<polygon class="st20" points="257.2,383.5 257.2,387.3 261,387.3 				"/>
				<polygon class="st20" points="262.5,386 267.3,381.1 257.7,381.1 				"/>
				<polygon class="st20" points="297.2,371.6 297.2,368.1 295.4,369.8 				"/>
				<polygon class="st20" points="294.1,368.3 297.2,365.3 297.2,364.3 294.1,364.3 				"/>
				<polygon class="st20" points="287.8,386 292.1,381.7 292.1,381.1 283,381.1 				"/>
				<polygon class="st20" points="268.8,382.5 264,387.3 273.7,387.3 				"/>
				<path class="st7" d="M294.1,451.1v-3.8l3.1,3.1v-2.8l-1.7-1.8l1.7-1.8v-2.8l-3.1,3.1v-9.6l3.1,3.1v-2.8l-1.7-1.8l1.7-1.8v-2.8
					l-3.1,3.1V422l3.1,3.1v-2.8l-1.7-1.8l1.7-1.8v-2.8l-3.1,3.1v-9.6l3.1,3.1v-2.8l-1.7-1.8l1.7-1.8v-2.8l-3.1,3.1v-9.6l3.1,3.1
					v-2.8l-1.7-1.7l1.7-1.8v-2.8l-3.1,3.1v-4.3h3.1v-2h-3.1V384l3.1,3.1v-4.4l-1-1l0.6-0.6h0.4v-3.2l-1.2,1.2h-1.8v-7.8l3.1,3.1
					v-2.8l-1.7-1.8l1.7-1.8v-2.8l-3.1,3.1v-4l3.1,0v-2l-5.1,0v16.8h-36.9v10.1h36.9v63.8h5.1v-2H294.1z M292.1,381.7l-4.3,4.3
					l-4.8-4.8h9.1V381.7z M268.8,382.5l4.8,4.8H264L268.8,382.5z M262.5,386l-4.8-4.8h9.7L262.5,386z M270.3,381.1h9.7l-4.8,4.8
					L270.3,381.1z M281.5,382.5l4.8,4.8h-9.7L281.5,382.5z M257.2,383.5l3.8,3.8h-3.8V383.5z M289.3,387.3l2.8-2.8v2.8H289.3z"/>
			</g>
			<path class="st21" d="M306.9,389.6c0,1.7-1.3,3-3,3h-13.3c-1.7,0-3-1.3-3-3v-10.8c0-1.7,1.3-3,3-3h13.3c1.7,0,3,1.3,3,3V389.6z"
				/>
			<g>
				<path class="st9" d="M290.5,375.8c-1.7,0-3,1.3-3,3v10.8c0,1.7,1.3,3,3,3h6.7v-16.8H290.5z"/>
			</g>
			<rect x="293.4" y="381.5" class="st22" width="7.6" height="5.5"/>
		</g>
		<g>
			<polygon class="st23" points="402,453.1 316.3,453.1 316.3,432.6 334,422.1 402,422.1 			"/>
			<g>
				<rect x="336.4" y="428.2" class="st7" width="28.7" height="7.4"/>
				<rect x="368.5" y="428.2" class="st7" width="28.7" height="7.4"/>
				<rect x="336.4" y="439.9" class="st7" width="28.7" height="7.4"/>
				<rect x="368.5" y="439.9" class="st7" width="28.7" height="7.4"/>
			</g>
		</g>
		<g>
			<g>
				<path class="st24" d="M416.9,322H430v26.8c0,3.6-2.9,6.6-6.6,6.6l0,0c-3.6,0-6.6-2.9-6.6-6.6V322z"/>
				<path class="st24" d="M425.2,317h-1.1c0.4-0.6,0.6-1.3,0.6-2.1c0-2.5-2.4-4.5-5.4-4.5c-1.3,0-2.5,0.4-3.5,1.1
					c0-0.4,0.1-0.8,0.1-1.2c0-6.6-6.5-11.9-14.4-11.9c-6.1,0-11.2,3.1-13.4,7.4c-1.5-0.5-3.1-0.8-4.8-0.8c-6.7,0-12.2,4.5-12.2,10.1
					c0,0.6,0.1,1.2,0.2,1.8h-0.7c-2.6,0-4.8,2.2-4.8,5c0,2.8,2.1,5,4.8,5h54.5c2.6,0,4.8-2.2,4.8-5C430,319.2,427.9,317,425.2,317z"
					/>
			</g>
			<g>
				<polygon class="st12" points="438.4,431.3 408.5,431.3 414.6,335.4 432.3,335.4 				"/>
				<g>
					<polygon class="st8" points="432.3,335.4 414.6,335.4 413.8,348.4 433.1,348.4 					"/>
					<polygon class="st8" points="408.5,431.3 438.4,431.3 437.6,418.3 409.3,418.3 					"/>
					<polygon class="st8" points="410.3,403.7 436.7,403.7 435.8,390.6 411.1,390.6 					"/>
					<polygon class="st8" points="412,376 434.9,376 434.1,363 412.9,363 					"/>
				</g>
				<rect x="404.8" y="431.3" class="st13" width="37.3" height="21.8"/>
				<g>
					<polygon class="st6" points="423.5,363 423.5,348.4 413.8,348.4 412.6,367.3 412.9,363 					"/>
					<polygon class="st6" points="423.5,390.6 423.5,376 412,376 410.5,399.3 411.1,390.6 					"/>
					<polygon class="st6" points="423.5,418.3 423.5,403.7 410.3,403.7 408.5,431.3 409.3,418.3 					"/>
					<polygon class="st4" points="423.5,335.4 414.6,335.4 413.8,348.4 413.8,348.4 423.5,348.4 					"/>
					<polygon class="st4" points="409.3,418.3 408.5,431.3 423.5,431.3 423.5,418.3 					"/>
					<polygon class="st4" points="423.5,390.6 411.1,390.6 410.5,399.3 410.3,403.7 410.3,403.7 423.5,403.7 					"/>
					<polygon class="st4" points="423.5,363 412.9,363 412.6,367.3 412,376 412,376 423.5,376 					"/>
				</g>
			</g>
		</g>
		<g>
			<rect x="110.6" y="443.1" class="st6" width="2.4" height="10"/>
			<rect x="116.7" y="443.1" class="st6" width="2.4" height="10"/>
			<rect x="122.8" y="443.1" class="st6" width="2.4" height="10"/>
			<rect x="108.5" y="446" class="st6" width="15.5" height="2.4"/>
		</g>
		<g>
			<rect x="451.7" y="441" class="st25" width="2.4" height="12.1"/>
			<path class="st19" d="M461.7,435.1c0,1.6-0.7,3.1-1.9,4.1c0.4,0.8,0.7,1.7,0.7,2.7c0,3-2.4,5.4-5.4,5.4c-0.8,0-1.5-0.2-2.1-0.4
				c-0.7,0.3-1.4,0.4-2.1,0.4c-3,0-5.4-2.4-5.4-5.4c0-0.9,0.2-1.8,0.6-2.6c-1.2-1-2-2.5-2-4.2c0-2.4,1.6-4.4,3.7-5.2
				c0-0.1,0-0.2,0-0.3c0-3,2.4-5.4,5.4-5.4c3,0,5.4,2.4,5.4,5.4c0,0.2,0,0.4,0,0.5C460.4,431.1,461.7,433,461.7,435.1z"/>
			<g>
				<path class="st26" d="M447.8,429.7c0,0.1,0,0.2,0,0.3c-2.2,0.7-3.7,2.7-3.7,5.2c0,1.7,0.8,3.2,2,4.2c-0.4,0.8-0.6,1.6-0.6,2.6
					c0,3,2.4,5.4,5.4,5.4c0.8,0,1.5-0.2,2.1-0.4c0,0,0,0,0,0v-22.6C450.1,424.4,447.8,426.8,447.8,429.7z"/>
			</g>
		</g>
		<g>
			<rect x="304.3" y="447.6" class="st11" width="13.4" height="5.5"/>
			<rect x="317.7" y="448.6" class="st25" width="13.4" height="4.5"/>
			<rect x="317.7" y="442.8" class="st27" width="12.4" height="5.9"/>
			<rect x="307.5" y="442.8" class="st25" width="10.3" height="4.9"/>
			<rect x="310.6" y="434.9" class="st11" width="9.6" height="7.8"/>
			<rect x="320.2" y="432.8" class="st25" width="7.8" height="10"/>
		</g>
		<circle class="st19" cx="283.7" cy="451.2" r="6.5"/>
		<g>
			<path class="st7" d="M533.3,452.9H110.5c-8.3,0-15.1,6.8-15.1,15.1c0,8.3,6.8,15.1,15.1,15.1h31.3c8.3,0,15.1,6.8,15.1,15.1
				c0,8.3-6.8,15.1-15.1,15.1c-8.3,0-15.1,6.8-15.1,15.1c0,8.3,6.8,15.1,15.1,15.1H472c8.3,0,15.1-6.8,15.1-15.1
				c0-8.3-6.8-15.1-15.1-15.1h-0.4c-8.3,0-15.1-6.8-15.1-15.1c0-8.3,6.8-15.1,15.1-15.1h61.7c8.3,0,15.1-6.8,15.1-15.1
				C548.4,459.7,541.6,452.9,533.3,452.9z M374.7,513.4H239c-8.3,0-15.1-6.8-15.1-15.1c0-8.3,6.8-15.1,15.1-15.1h135.7
				c8.3,0,15.1,6.8,15.1,15.1C389.8,506.6,383.1,513.4,374.7,513.4z"/>
		</g>
		<path class="st28" d="M116.9,468c0,0.8-0.6,1.4-1.4,1.4H107c-0.8,0-1.4-0.6-1.4-1.4l0,0c0-0.8,0.6-1.4,1.4-1.4h8.5
			C116.3,466.6,116.9,467.3,116.9,468L116.9,468z"/>
		<path class="st28" d="M138.8,468c0,0.8-0.6,1.4-1.4,1.4h-8.5c-0.8,0-1.4-0.6-1.4-1.4l0,0c0-0.8,0.6-1.4,1.4-1.4h8.5
			C138.1,466.6,138.8,467.3,138.8,468L138.8,468z"/>
		<path class="st28" d="M160.6,468c0,0.8-0.6,1.4-1.4,1.4h-8.5c-0.8,0-1.4-0.6-1.4-1.4l0,0c0-0.8,0.6-1.4,1.4-1.4h8.5
			C160,466.6,160.6,467.3,160.6,468L160.6,468z"/>
		<path class="st28" d="M182.4,468c0,0.8-0.6,1.4-1.4,1.4h-8.5c-0.8,0-1.4-0.6-1.4-1.4l0,0c0-0.8,0.6-1.4,1.4-1.4h8.5
			C181.8,466.6,182.4,467.3,182.4,468L182.4,468z"/>
		<path class="st28" d="M204.3,468c0,0.8-0.6,1.4-1.4,1.4h-8.5c-0.8,0-1.4-0.6-1.4-1.4l0,0c0-0.8,0.6-1.4,1.4-1.4h8.5
			C203.7,466.6,204.3,467.3,204.3,468L204.3,468z"/>
		<path class="st28" d="M226.1,468c0,0.8-0.6,1.4-1.4,1.4h-8.5c-0.8,0-1.4-0.6-1.4-1.4l0,0c0-0.8,0.6-1.4,1.4-1.4h8.5
			C225.5,466.6,226.1,467.3,226.1,468L226.1,468z"/>
		<path class="st28" d="M248,468c0,0.8-0.6,1.4-1.4,1.4h-8.5c-0.8,0-1.4-0.6-1.4-1.4l0,0c0-0.8,0.6-1.4,1.4-1.4h8.5
			C247.4,466.6,248,467.3,248,468L248,468z"/>
		<path class="st28" d="M269.8,468c0,0.8-0.6,1.4-1.4,1.4h-8.5c-0.8,0-1.4-0.6-1.4-1.4l0,0c0-0.8,0.6-1.4,1.4-1.4h8.5
			C269.2,466.6,269.8,467.3,269.8,468L269.8,468z"/>
		<path class="st28" d="M291.7,468c0,0.8-0.6,1.4-1.4,1.4h-8.5c-0.8,0-1.4-0.6-1.4-1.4l0,0c0-0.8,0.6-1.4,1.4-1.4h8.5
			C291,466.6,291.7,467.3,291.7,468L291.7,468z"/>
		<path class="st28" d="M313.5,468c0,0.8-0.6,1.4-1.4,1.4h-8.5c-0.8,0-1.4-0.6-1.4-1.4l0,0c0-0.8,0.6-1.4,1.4-1.4h8.5
			C312.9,466.6,313.5,467.3,313.5,468L313.5,468z"/>
		<path class="st28" d="M335.3,468c0,0.8-0.6,1.4-1.4,1.4h-8.5c-0.8,0-1.4-0.6-1.4-1.4l0,0c0-0.8,0.6-1.4,1.4-1.4h8.5
			C334.7,466.6,335.3,467.3,335.3,468L335.3,468z"/>
		<path class="st28" d="M357.2,468c0,0.8-0.6,1.4-1.4,1.4h-8.5c-0.8,0-1.4-0.6-1.4-1.4l0,0c0-0.8,0.6-1.4,1.4-1.4h8.5
			C356.6,466.6,357.2,467.3,357.2,468L357.2,468z"/>
		<path class="st28" d="M379,468c0,0.8-0.6,1.4-1.4,1.4h-8.5c-0.8,0-1.4-0.6-1.4-1.4l0,0c0-0.8,0.6-1.4,1.4-1.4h8.5
			C378.4,466.6,379,467.3,379,468L379,468z"/>
		<path class="st28" d="M400.9,468c0,0.8-0.6,1.4-1.4,1.4H391c-0.8,0-1.4-0.6-1.4-1.4l0,0c0-0.8,0.6-1.4,1.4-1.4h8.5
			C400.2,466.6,400.9,467.3,400.9,468L400.9,468z"/>
		<path class="st28" d="M422.7,468c0,0.8-0.6,1.4-1.4,1.4h-8.5c-0.8,0-1.4-0.6-1.4-1.4l0,0c0-0.8,0.6-1.4,1.4-1.4h8.5
			C422.1,466.6,422.7,467.3,422.7,468L422.7,468z"/>
		<path class="st28" d="M444.6,468c0,0.8-0.6,1.4-1.4,1.4h-8.5c-0.8,0-1.4-0.6-1.4-1.4l0,0c0-0.8,0.6-1.4,1.4-1.4h8.5
			C443.9,466.6,444.6,467.3,444.6,468L444.6,468z"/>
		<path class="st28" d="M466.4,468c0,0.8-0.6,1.4-1.4,1.4h-8.5c-0.8,0-1.4-0.6-1.4-1.4l0,0c0-0.8,0.6-1.4,1.4-1.4h8.5
			C465.8,466.6,466.4,467.3,466.4,468L466.4,468z"/>
		<path class="st28" d="M488.2,468c0,0.8-0.6,1.4-1.4,1.4h-8.5c-0.8,0-1.4-0.6-1.4-1.4l0,0c0-0.8,0.6-1.4,1.4-1.4h8.5
			C487.6,466.6,488.2,467.3,488.2,468L488.2,468z"/>
		<path class="st28" d="M510.1,468c0,0.8-0.6,1.4-1.4,1.4h-8.5c-0.8,0-1.4-0.6-1.4-1.4l0,0c0-0.8,0.6-1.4,1.4-1.4h8.5
			C509.5,466.6,510.1,467.3,510.1,468L510.1,468z"/>
		<path class="st28" d="M531.9,468c0,0.8-0.6,1.4-1.4,1.4H522c-0.8,0-1.4-0.6-1.4-1.4l0,0c0-0.8,0.6-1.4,1.4-1.4h8.5
			C531.3,466.6,531.9,467.3,531.9,468L531.9,468z"/>
		<g>
			<g>
				<g>
					<g>
						<path class="st10" d="M471.6,271.1c-0.7-0.1-1.2-0.7-1.2-1.4l0,0c0.1-0.7,0.7-1.2,1.4-1.2l0,0c0.7,0.1,1.2,0.7,1.2,1.4l0,0
							c-0.1,0.7-0.6,1.2-1.3,1.2l0,0C471.7,271.1,471.7,271.1,471.6,271.1z M475.6,269.9c-0.1-0.7,0.5-1.3,1.2-1.4l0,0
							c0.7-0.1,1.3,0.5,1.4,1.2l0,0c0.1,0.7-0.5,1.3-1.2,1.4l0,0c0,0-0.1,0-0.1,0l0,0C476.2,271.1,475.6,270.6,475.6,269.9z
							 M466.4,270.2c-0.7-0.2-1.1-0.9-0.9-1.5l0,0c0.2-0.7,0.9-1.1,1.5-0.9l0,0c0.7,0.2,1.1,0.9,0.9,1.5l0,0c-0.1,0.6-0.7,1-1.2,1
							l0,0C466.6,270.3,466.5,270.3,466.4,270.2z M480.6,269.3c-0.2-0.7,0.2-1.4,0.9-1.5l0,0c0.7-0.2,1.4,0.2,1.5,0.9l0,0
							c0.2,0.7-0.2,1.4-0.9,1.5l0,0c0,0,0,0,0,0l0,0c-0.1,0-0.2,0-0.3,0l0,0C481.3,270.3,480.8,269.9,480.6,269.3z M461.4,268.5
							L461.4,268.5L461.4,268.5c-0.6-0.3-0.9-1-0.7-1.7l0,0c0.3-0.6,1-0.9,1.7-0.7l0,0c0.6,0.3,0.9,1,0.7,1.7l0,0
							c-0.2,0.5-0.7,0.8-1.2,0.8l0,0C461.7,268.6,461.5,268.6,461.4,268.5z M485.5,267.9c-0.3-0.6,0-1.4,0.7-1.7l0,0
							c0.6-0.3,1.4,0,1.7,0.7l0,0c0.3,0.6,0,1.4-0.7,1.7l0,0c-0.2,0.1-0.3,0.1-0.5,0.1l0,0C486.2,268.6,485.7,268.3,485.5,267.9z
							 M456.7,266c-0.6-0.4-0.8-1.2-0.4-1.8l0,0c0.4-0.6,1.2-0.8,1.8-0.4l0,0c0.6,0.4,0.8,1.2,0.4,1.8l0,0c-0.2,0.4-0.7,0.6-1.1,0.6
							l0,0C457.1,266.2,456.9,266.1,456.7,266z M490.1,265.6c-0.4-0.6-0.2-1.4,0.4-1.8l0,0c0.6-0.4,1.4-0.2,1.8,0.4l0,0
							c0.4,0.6,0.2,1.4-0.4,1.8l0,0c-0.2,0.1-0.5,0.2-0.7,0.2l0,0C490.8,266.2,490.3,266,490.1,265.6z M452.5,262.7
							c-0.5-0.5-0.6-1.3-0.1-1.8l0,0c0.5-0.5,1.3-0.6,1.8-0.1l0,0c0.5,0.5,0.5,1.3,0.1,1.8l0,0c-0.3,0.3-0.6,0.4-0.9,0.4l0,0
							C453.1,263.1,452.7,263,452.5,262.7z M494.3,262.6c-0.5-0.5-0.4-1.3,0.1-1.8l0,0c0.5-0.5,1.3-0.4,1.8,0.1l0,0
							c0.5,0.5,0.4,1.3-0.1,1.8l0,0c-0.2,0.2-0.6,0.3-0.9,0.3l0,0C494.8,263,494.5,262.9,494.3,262.6z M448.9,258.8
							C448.9,258.8,448.9,258.8,448.9,258.8L448.9,258.8c-0.4-0.6-0.3-1.3,0.2-1.8l0,0c0.6-0.4,1.4-0.3,1.8,0.2v0
							c0.4,0.6,0.3,1.3-0.2,1.8l0,0c-0.2,0.2-0.5,0.3-0.8,0.3l0,0C449.5,259.3,449.1,259.2,448.9,258.8z M497.9,259
							c-0.6-0.4-0.7-1.2-0.2-1.8l0,0c0.4-0.6,1.2-0.7,1.8-0.2l0,0c0.6,0.4,0.7,1.2,0.2,1.8l0,0c-0.3,0.3-0.6,0.5-1,0.5l0,0
							C498.4,259.3,498.1,259.2,497.9,259z M446,254.4c-0.3-0.6-0.1-1.4,0.5-1.7l0,0c0.6-0.3,1.4-0.1,1.7,0.5l0,0
							c0.3,0.6,0.1,1.4-0.5,1.7l0,0c-0.2,0.1-0.4,0.2-0.6,0.2l0,0C446.7,255.1,446.2,254.8,446,254.4z M500.8,254.9
							c-0.6-0.3-0.9-1.1-0.5-1.7l0,0c0.3-0.6,1.1-0.8,1.7-0.5l0,0c0.6,0.3,0.8,1.1,0.5,1.7l0,0l0,0l0,0c-0.2,0.4-0.7,0.7-1.1,0.7
							l0,0C501.2,255,501,255,500.8,254.9z M443.8,249.5c-0.2-0.7,0.1-1.4,0.8-1.6l0,0c0.7-0.2,1.4,0.1,1.6,0.8l0,0
							c0.2,0.7-0.1,1.4-0.8,1.6l0,0c-0.1,0-0.3,0.1-0.4,0.1l0,0C444.5,250.4,444,250.1,443.8,249.5z M503.1,250.3
							c-0.7-0.2-1-1-0.8-1.6l0,0c0.2-0.7,1-1,1.6-0.8l0,0c0.7,0.2,1,1,0.8,1.6l0,0c-0.2,0.5-0.7,0.9-1.2,0.9l0,0
							C503.4,250.3,503.2,250.3,503.1,250.3z M442.5,244.4L442.5,244.4L442.5,244.4c-0.1-0.7,0.4-1.3,1-1.5l0,0
							c0.7-0.1,1.3,0.4,1.5,1l0,0c0.1,0.7-0.4,1.3-1,1.5l0,0c-0.1,0-0.1,0-0.2,0l0,0C443.2,245.5,442.6,245,442.5,244.4z
							 M504.5,245.4c-0.7-0.1-1.2-0.8-1-1.5l0,0c0.1-0.7,0.8-1.2,1.5-1l0,0c0.7,0.1,1.2,0.8,1,1.5l0,0c-0.1,0.6-0.6,1.1-1.3,1.1l0,0
							C504.7,245.4,504.6,245.4,504.5,245.4z M442.1,239.1c0-0.7,0.6-1.3,1.3-1.3l0,0c0.7,0,1.3,0.6,1.3,1.3l0,0
							c0,0.7-0.6,1.3-1.3,1.3l0,0C442.7,240.4,442.1,239.8,442.1,239.1z M503.9,239C503.9,239,503.9,239,503.9,239L503.9,239
							c0-0.1,0-0.1,0-0.1l0,0c0-0.7,0.6-1.3,1.3-1.3l0,0c0.7,0,1.3,0.6,1.3,1.3l0,0c0,0,0,0,0,0l0,0c0,0,0,0,0,0l0,0c0,0,0,0,0,0.1
							l0,0c0,0.7-0.6,1.3-1.3,1.3l0,0C504.4,240.3,503.9,239.8,503.9,239z M443.6,235.3c-0.7-0.1-1.2-0.8-1-1.5l0,0
							c0.1-0.7,0.8-1.2,1.5-1.1l0,0c0.7,0.1,1.2,0.8,1,1.5l0,0c-0.1,0.6-0.6,1.1-1.3,1.1l0,0C443.7,235.3,443.6,235.3,443.6,235.3z
							 M503.5,234.1L503.5,234.1c-0.1-0.7,0.4-1.3,1-1.5l0,0c0.7-0.1,1.4,0.3,1.5,1l0,0c0,0,0,0,0,0l0,0c0.1,0.7-0.3,1.4-1,1.5l0,0
							c-0.1,0-0.1,0-0.2,0l0,0C504.1,235.1,503.6,234.7,503.5,234.1z M444.6,230.3c-0.7-0.2-1-1-0.8-1.6l0,0l0,0l0,0
							c0.2-0.7,1-1,1.6-0.8l0,0c0.7,0.2,1,0.9,0.8,1.6l0,0c-0.2,0.5-0.7,0.9-1.2,0.9l0,0C444.9,230.3,444.7,230.3,444.6,230.3z
							 M502.2,229.3c-0.2-0.7,0.1-1.4,0.8-1.6l0,0c0.7-0.2,1.4,0.1,1.6,0.8l0,0l0,0l0,0c0.2,0.7-0.1,1.4-0.8,1.6l0,0
							c-0.1,0.1-0.3,0.1-0.4,0.1l0,0C502.9,230.2,502.4,229.9,502.2,229.3z M446.4,225.5c-0.6-0.3-0.8-1.1-0.5-1.7l0,0c0,0,0,0,0,0
							l0,0c0.3-0.6,1.1-0.9,1.7-0.5l0,0c0.6,0.3,0.8,1.1,0.5,1.7l0,0c-0.2,0.4-0.7,0.7-1.1,0.7l0,0
							C446.8,225.7,446.6,225.6,446.4,225.5z M500.3,224.9c-0.3-0.6-0.1-1.4,0.5-1.7l0,0c0.6-0.3,1.4-0.1,1.7,0.5l0,0
							c0.3,0.6,0.1,1.4-0.5,1.7l0,0c-0.2,0.1-0.4,0.2-0.6,0.2l0,0C500.9,225.5,500.5,225.3,500.3,224.9z M449.1,221.1
							c-0.6-0.4-0.7-1.2-0.2-1.8l0,0c0.4-0.6,1.2-0.7,1.8-0.2l0,0c0.6,0.4,0.7,1.2,0.2,1.8l0,0c-0.2,0.3-0.6,0.5-1,0.5l0,0
							C449.6,221.4,449.3,221.3,449.1,221.1z M497.6,220.8c-0.4-0.6-0.3-1.4,0.2-1.8l0,0c0.6-0.4,1.4-0.3,1.8,0.2l0,0l0,0l0,0
							c0.4,0.6,0.3,1.4-0.2,1.8l0,0c-0.2,0.2-0.5,0.3-0.8,0.3l0,0C498.2,221.3,497.8,221.1,497.6,220.8z M452.4,217.2
							c-0.5-0.5-0.4-1.3,0.1-1.8l0,0c0.5-0.5,1.3-0.4,1.8,0.1l0,0c0.5,0.5,0.4,1.3-0.1,1.8l0,0c-0.2,0.2-0.6,0.3-0.9,0.3l0,0
							C452.9,217.6,452.6,217.5,452.4,217.2z M494.2,217.2c-0.5-0.5-0.6-1.3-0.1-1.8l0,0c0.5-0.5,1.3-0.6,1.8-0.1l0,0
							c0.5,0.5,0.6,1.3,0.1,1.8l0,0c-0.3,0.3-0.6,0.4-0.9,0.4l0,0C494.8,217.5,494.5,217.4,494.2,217.2z M456.2,213.9
							c-0.4-0.6-0.2-1.4,0.4-1.8l0,0l0,0l0,0c0.6-0.4,1.4-0.2,1.8,0.4l0,0c0.4,0.6,0.2,1.4-0.4,1.8v0c-0.2,0.1-0.5,0.2-0.7,0.2l0,0
							C456.9,214.5,456.5,214.3,456.2,213.9z M490.4,214.2c-0.6-0.4-0.8-1.2-0.4-1.8l0,0c0.4-0.6,1.2-0.8,1.8-0.4l0,0
							c0.6,0.4,0.8,1.2,0.4,1.8l0,0c-0.2,0.4-0.7,0.6-1.1,0.6l0,0C490.8,214.4,490.6,214.3,490.4,214.2z M460.6,211.3
							c-0.3-0.6,0-1.4,0.6-1.7l0,0c0,0,0,0,0,0l0,0c0.6-0.3,1.4,0,1.7,0.6l0,0c0.3,0.6,0,1.4-0.6,1.7l0,0c-0.2,0.1-0.3,0.1-0.5,0.1
							l0,0C461.3,212.1,460.8,211.8,460.6,211.3z M486.1,211.9L486.1,211.9c-0.6-0.3-0.9-1-0.7-1.7l0,0c0.3-0.6,1-0.9,1.7-0.7l0,0
							c0.6,0.3,0.9,1,0.7,1.7l0,0c-0.2,0.5-0.7,0.8-1.2,0.8l0,0C486.4,212,486.2,212,486.1,211.9z M465.4,209.4
							c-0.2-0.7,0.2-1.4,0.9-1.5l0,0c0.7-0.2,1.4,0.2,1.5,0.9l0,0c0.2,0.7-0.2,1.4-0.9,1.5l0,0c-0.1,0-0.2,0-0.3,0l0,0
							C466,210.4,465.5,210,465.4,209.4z M481.4,210.3c-0.7-0.2-1.1-0.9-0.9-1.5l0,0c0.2-0.7,0.9-1.1,1.5-0.9l0,0
							c0.7,0.2,1.1,0.9,0.9,1.5l0,0c-0.1,0.6-0.7,1-1.2,1l0,0C481.7,210.3,481.6,210.3,481.4,210.3z M470.4,208.4
							c-0.1-0.7,0.5-1.3,1.2-1.4l0,0c0.7-0.1,1.3,0.5,1.4,1.2l0,0c0.1,0.7-0.5,1.3-1.2,1.4l0,0c0,0-0.1,0-0.1,0l0,0
							C471,209.5,470.4,209,470.4,208.4z M476.6,209.5c-0.7-0.1-1.2-0.7-1.2-1.4l0,0c0.1-0.7,0.7-1.2,1.4-1.2l0,0
							c0.7,0.1,1.2,0.7,1.2,1.4l0,0c-0.1,0.7-0.6,1.2-1.3,1.2l0,0C476.7,209.5,476.7,209.5,476.6,209.5z"/>
					</g>
				</g>
				<g>
					<circle class="st9" cx="474.3" cy="239" r="26.5"/>
				</g>
			</g>
			<g>
				<path class="st10" d="M447.8,239c0,14.6,11.9,26.5,26.5,26.5v-53C459.6,212.5,447.8,224.4,447.8,239z"/>
			</g>
		</g>
		<path class="st12" d="M476.8,263h-1.5c0.5-0.9,0.9-1.8,0.9-2.9c0-3.4-3.4-6.2-7.5-6.2c-1.8,0-3.5,0.6-4.8,1.5
			c0.1-0.5,0.1-1.1,0.1-1.6c0-9.1-9-16.6-20-16.6c-8.4,0-15.6,4.3-18.6,10.3c-2-0.7-4.3-1.1-6.6-1.1c-9.4,0-16.9,6.3-16.9,14
			c0,0.9,0.1,1.7,0.3,2.6h-1c-3.7,0-6.6,3.1-6.6,6.9c0,3.8,3,6.9,6.6,6.9h75.7c3.7,0,6.6-3.1,6.6-6.9
			C483.4,266.1,480.4,263,476.8,263z"/>
		<path class="st12" d="M468.6,294c0,1.9,1.5,3.5,3.4,3.5h38.6c1.9,0,3.4-1.6,3.4-3.5c0-2-1.5-3.5-3.4-3.5h-0.5
			c0.1-0.4,0.1-0.9,0.1-1.3c0-3.9-3.9-7.1-8.6-7.1c-1.2,0-2.3,0.2-3.4,0.6c-1.5-3.1-5.2-5.3-9.5-5.3c-5.6,0-10.2,3.8-10.2,8.4
			c0,0.3,0,0.6,0.1,0.8c-0.7-0.5-1.5-0.7-2.4-0.7c-2.1,0-3.8,1.4-3.8,3.2c0,0.5,0.2,1,0.5,1.5H472C470.1,290.5,468.6,292,468.6,294z
			"/>
	</g>
	<g>
		<rect x="138.2" y="223.6" class="st29" width="165" height="17.2"/>
		<rect x="204.4" y="49.1" class="st30" width="96.6" height="113.1"/>
		<g>
			<rect x="254.5" y="112.2" class="st31" width="37.2" height="1.8"/>
			<rect x="285.1" y="74" class="st32" width="6.6" height="38.2"/>
			<rect x="277.5" y="88.4" class="st33" width="6.6" height="23.8"/>
			<rect x="269.8" y="96.4" class="st34" width="6.6" height="15.7"/>
			<rect x="262.2" y="89.1" class="st35" width="6.6" height="23.1"/>
			<rect x="254.5" y="95.6" class="st36" width="6.6" height="16.5"/>
		</g>
		<g>
			<rect x="211.5" y="92.4" class="st37" width="37.2" height="1.3"/>
			<rect x="211.5" y="95.3" class="st37" width="37.2" height="1.3"/>
			<rect x="211.5" y="98.1" class="st37" width="37.2" height="1.3"/>
			<rect x="211.5" y="101" class="st37" width="37.2" height="1.3"/>
			<rect x="211.5" y="103.8" class="st37" width="37.2" height="1.3"/>
			<rect x="211.5" y="80.8" class="st37" width="37.2" height="6.9"/>
		</g>
		<g>
			<circle class="st36" cx="229.1" cy="139" r="15.8"/>
			<path class="st32" d="M237.8,152.2c2.3-1.5,4.1-3.6,5.4-6l-14.1-7.2L237.8,152.2z"/>
			<path class="st33" d="M243.2,146.2c1.1-2.2,1.7-4.6,1.7-7.2c0-5.1-2.4-9.5-6.1-12.4l-9.7,12.4L243.2,146.2z"/>
			<path class="st34" d="M238.9,126.5c-2.7-2.1-6.1-3.4-9.7-3.4V139L238.9,126.5z"/>
			<path class="st35" d="M229.1,123.2V139l-11.3-11.1C220.7,125,224.7,123.2,229.1,123.2z"/>
		</g>
		<g>
			<rect x="254.5" y="132.9" class="st37" width="37.2" height="1.3"/>
			<rect x="254.5" y="135.8" class="st37" width="37.2" height="1.3"/>
			<rect x="254.5" y="138.7" class="st37" width="37.2" height="1.3"/>
			<rect x="254.5" y="141.5" class="st37" width="37.2" height="1.3"/>
			<rect x="254.5" y="144.4" class="st37" width="37.2" height="1.3"/>
			<rect x="254.5" y="121.3" class="st37" width="37.2" height="6.9"/>
		</g>
		<path class="st38" d="M252.7,46.9H301h2.2v2.2v113.1v2.2H301h-48.3V160h46.1V51.3h-46.1V46.9z M204.4,46.9h48.3v4.4h-46.1V160
			h46.1v4.4h-48.3h-2.2v-2.2V49.1v-2.2H204.4z"/>
		<polygon class="st39" points="298.8,147.1 287.8,160 298.8,160 		"/>
		<path class="st40" d="M298.8,147.1l-11,12.9c1.1-4.6,0.8-9.1-2-13.7C289.9,149.3,294.3,149.2,298.8,147.1z"/>
		<path class="st41" d="M163.5,224c-0.7,1.1-1.3,4.6-1.2,6.5c0.1,1.8,0.2,2,1,2.6c0.9,0.5,1.2,0.6,1.4,0.1c0.2-0.5,2.1,1.7,3.1,2.4
			c0.9,0.7,3.1,2,5.8,2.1c2.7,0.1,5-0.4,5-2.1c0-1.7-0.8-2.5-2.8-4.2c-2-1.6-3.9-4.8-4.4-6.2c-0.6-1.4-2.5-1.1-3.3-0.6
			c-0.9,0.5-1.7,3.1-2.8,2.2C164.1,225.9,163.9,223.6,163.5,224z"/>
		<path class="st41" d="M178.4,224c-0.8,1.1-1.5,4.4-1.4,6.2c0.1,1.8,0.2,1.9,1.2,2.4c1,0.5,1.4,0.6,1.6,0.1
			c0.2-0.5,2.4,1.6,3.5,2.3c1.1,0.7,3.5,1.9,6.6,2c3.1,0.1,5.8-0.4,5.8-2c0-1.6-1-2.4-3.2-4c-2.2-1.6-4.4-4.6-5.1-5.9
			c-0.7-1.4-2.8-1-3.8-0.6c-1,0.4-2,3-3.3,2.1C179,225.8,178.8,223.6,178.4,224z"/>
		<g>
			<path class="st42" d="M164,159.6h8.6c1.2,0,2.2,1,2.2,2.2v63.7c0,1.2-1,2.2-2.2,2.2H164c-1.2,0-2.2-1-2.2-2.2v-63.7
				C161.9,160.6,162.8,159.6,164,159.6z"/>
			<path class="st42" d="M178.9,145.7h8.6c1.2,0,2.2,1,2.2,2.2v77.7c0,1.2-1,2.2-2.2,2.2h-8.6c-1.2,0-2.2-1-2.2-2.2v-77.7
				C176.7,146.6,177.7,145.7,178.9,145.7z"/>
		</g>
		<g>
			
				<rect x="145.2" y="156" transform="matrix(0.4248 -0.9053 0.9053 0.4248 -58.0519 226.4407)" class="st43" width="8" height="5.7"/>
			<path class="st43" d="M152.2,157.8l-5.3-1.2l-0.9,4.1l-2.6,4.1c2.2,1,6.2-0.2,5.9,3.1L152.2,157.8z"/>
			<path class="st43" d="M142.6,166.4l3.5-7.8c0.3-0.6,1-0.8,1.6-0.5l0,0c0.1,0,0.1,0.1,0.2,0.1l0.3-0.6c0.3-0.6,1.1-0.9,1.7-0.6
				l0,0c0.4,0.2,0.7,0.6,0.7,1.1c0.3-0.1,0.6,0,0.9,0.1l0,0c0.7,0.3,0.9,1.2,0.6,1.8l-4.5,8.1l-1.3,3.7c-0.3,0.7-1.2,0.9-1.8,0.6
				l0,0c-0.6-0.3-0.6-1.4-0.3-2.1C144,169.9,141.8,167.9,142.6,166.4z"/>
			<path class="st43" d="M144.6,176.9L144.6,176.9c-0.5-0.1-0.8-0.6-0.8-1.1l1.6-7.9l0-0.1l1.8,1.2l-1.4,7.1
				C145.6,176.6,145.2,177,144.6,176.9z"/>
			<path class="st43" d="M150,171.5L150,171.5c-0.6-0.1-0.9-0.6-0.9-1.1l0.3-3.1c0-1.2-0.9-0.9-1.6,0.3l-1.6-6.5l3.2-2.1l1.3,2.8
				c0.9,0.2,1.1,1.7,1,2.5l-0.6,6.4C151,171.2,150.5,171.6,150,171.5z"/>
			<path class="st43" d="M144.8,175.3L144.8,175.3c-0.5,0.1-1-0.3-1-0.8l-0.7-8l0-0.1l2,0.6l0.6,7.3
				C145.7,174.8,145.3,175.2,144.8,175.3z"/>
			<path class="st43" d="M146.2,175.4L146.2,175.4c-0.5,0.2-1-0.1-1.2-0.5l-2.5-7.1l2.1,1.1l2.1,5.3
				C146.9,174.7,146.7,175.2,146.2,175.4z"/>
		</g>
		<polygon class="st30" points="143.1,162.3 152.3,164.5 152.8,162.4 143.6,160.2 		"/>
		<path class="st42" d="M163.7,118.8l-6-6.9c-2.9,2.1-4.6,6.7-5,8.5l-9.6,40.2c0,0,0,0,0,0l10.1,2.4c0,0,0,0,0,0L163.7,118.8
			C163.7,118.8,163.7,118.8,163.7,118.8z"/>
		<g>
			<polygon class="st30" points="229.4,107.3 227.7,98 225.6,98.4 227.2,107.7 			"/>
			<polygon class="st30" points="224.8,98.7 226.4,108 230.5,107.2 228.8,97.9 			"/>
			<path class="st41" d="M230.8,104.9l-5.3,3.5l-1.3-2l5.5-3.5c0.3,0.2,0.8,0.1,1,0L230.8,104.9z"/>
			<path class="st42" d="M183.7,116.4l-1.9-10.2c0,0,0,0,0,0l44.6-8.4c0,0,0,0,0,0l1.9,10.2c0,0,0,0,0,0L183.7,116.4
				C183.7,116.4,183.7,116.4,183.7,116.4z"/>
		</g>
		<path class="st32" d="M191,158.6c-8.4,5.9-20.2,9.9-30.4,7L159,130c-0.3-5.6-5.9-12-4.5-14.7c2.5-5.1,13.2-8.6,16.8-11.6
			c1.4,1.2,2.9,2,4.5,2c1.6,0,3.1-0.7,4.5-2c2.7,2.2,6.1,1.8,8.1,1.3c-1.4,6.7,3.6,7.7,3.6,10.1L191,158.6z"/>
		<polygon class="st30" points="167,106.6 168,115.6 175.8,135.6 183.6,115.6 184.6,106.6 180.8,104.1 170.7,104.1 		"/>
		<polygon class="st42" points="168.4,105.7 175.8,135.7 165.4,119.2 166.8,116.3 163.8,113.9 167,106.6 		"/>
		<polygon class="st31" points="174.5,116.9 177.1,116.9 178.4,129.7 175.8,135.7 173.3,129.7 		"/>
		<polygon class="st32" points="168.4,105.7 175.8,135.7 166.4,117.8 168,115.6 165,113.3 167,106.6 		"/>
		<polygon class="st42" points="183.2,105.7 175.8,135.7 186.2,119.2 184.8,116.3 187.8,113.9 184.6,106.6 		"/>
		<polygon class="st32" points="183.2,105.7 175.8,135.7 185.2,117.8 183.6,115.6 186.6,113.3 184.6,106.6 		"/>
		<path class="st42" d="M176,166.1c-1-9.5-1.2-22.1-0.2-33C176.8,144,177,156.7,176,166.1z"/>
		<rect x="204.4" y="49.1" class="st29" width="96.6" height="17.7"/>
		<g>
			<path class="st44" d="M249.6,95L249.6,95c0.3,0.7-0.1,1.3-0.7,1.5l-9.5,2.5c-0.6,0.2-1.4-0.3-1.6-0.9l0,0
				c-0.3-0.7,0.1-1.3,0.7-1.5l9.5-2.5C248.6,93.9,249.4,94.3,249.6,95z"/>
			<path class="st45" d="M227.6,99.8l1.5,5.3l5.2,0c2.8,0,8-3.8,10.4-5.5l-2.3-3.4l-9.4-0.5L227.6,99.8z"/>
			<polygon class="st41" points="273.8,75.3 274.3,75.9 225.5,108.4 224.2,106.4 			"/>
			<path class="st44" d="M232.2,97.1l0.1,0.9l1-0.2l7.9-1.7c0.9-0.2,1.3-0.7,1.5-1.3c0.2-0.5,0.2-1.7-0.3-1.6l-9,1.9
				C232.7,95.4,232.1,96.2,232.2,97.1z"/>
			<path class="st46" d="M242.8,93.5c0-0.2-0.1-0.2-0.2-0.2l-1.8,0.4c0.2,0.8,1.1,0.7,1.8,0.3C242.7,93.9,242.8,93.7,242.8,93.5z"/>
			<path class="st44" d="M238.8,102.9L238.8,102.9c0,0.6-0.5,1-1,1l-1.9-0.2c-0.6-0.1-1-0.6-1-1.2l0,0c0-0.6,0.5-1,1-1l1.9,0.2
				C238.3,101.7,238.8,102.3,238.8,102.9z"/>
			<path class="st44" d="M241.9,100.9L241.9,100.9c0,0.7-0.5,1.2-1.2,1.1l-1.9-0.2c-0.7-0.1-1.2-0.7-1.2-1.4l0,0
				c0-0.7,0.5-1.2,1.2-1.1l1.9,0.2C241.4,99.6,241.9,100.2,241.9,100.9z"/>
			<path class="st46" d="M239.9,100.6L239.9,100.6c0,0.6-0.4,1-0.9,0.9l-0.2,0c-0.5-0.1-1-0.6-1-1.1l0,0c0-0.6,0.4-1,0.9-0.9l0.2,0
				C239.5,99.6,239.9,100.1,239.9,100.6z"/>
			<path class="st46" d="M237,102.6L237,102.6c0,0.5-0.4,0.9-0.9,0.8l-0.2,0c-0.5-0.1-0.9-0.5-0.9-1l0,0c0-0.5,0.4-0.9,0.9-0.8
				l0.2,0C236.6,101.6,237,102.1,237,102.6z"/>
			<path class="st44" d="M245.1,98.7L245.1,98.7c0,0.7-0.5,1.2-1.2,1.1l-1.9-0.2c-0.7-0.1-1.2-0.7-1.2-1.4l0,0
				c0-0.7,0.5-1.2,1.2-1.1l1.9,0.2C244.6,97.4,245.1,98,245.1,98.7z"/>
			<path class="st46" d="M243.1,98.4L243.1,98.4c0,0.6-0.4,1-0.9,0.9l-0.2,0c-0.5-0.1-1-0.6-1-1.1l0,0c0-0.6,0.4-1,0.9-0.9l0.2,0
				C242.7,97.4,243.1,97.9,243.1,98.4z"/>
			<path class="st44" d="M227.6,99.8l1.1,3.8c2.9-0.7,7.7-2.8,7-6.3c0-0.5-0.1-1-0.2-1.4l-2.4-0.1L227.6,99.8z"/>
		</g>
		<rect x="170.7" y="100.9" class="st45" width="10" height="8.1"/>
		<path class="st31" d="M177.1,114.1l0.5-1.2l-1.9-4.5l-1.8,4.4l0.6,1.2C175.4,114.1,176.2,114.1,177.1,114.1z"/>
		<polygon class="st37" points="170.7,104.1 175.8,108.4 173,116 168.4,105.7 		"/>
		<polygon class="st37" points="180.8,104.1 175.8,108.4 178.6,116 183.2,105.7 		"/>
		<polygon class="st30" points="170.7,104.1 175.8,108.4 172.9,114.1 168.4,105.7 		"/>
		<polygon class="st30" points="180.8,104.1 175.8,108.4 178.7,114.1 183.2,105.7 		"/>
		<path class="st31" d="M174.5,113.9h2.5c0.6,1.2,0.5,2.2,0,3.2h-2.5C174,116.1,174,115.1,174.5,113.9z"/>
		<path class="st43" d="M180.1,104.8c10.4-2.7,9-33.2-7.9-28C156.5,81.7,169.7,107.5,180.1,104.8z"/>
		<path class="st41" d="M185.4,84c-1.1,2.2-9.5,6.1-13.1,6.4C168.7,90.7,172.1,76.6,185.4,84z"/>
		<path class="st41" d="M169.9,77.3c-7,4-7.5,17.6,1,23.6c-1.5-1.8-1.7-4-0.8-7.8c0.6,0.4,2.5,3.1,2.2-1.5c-0.6-8.6,5.9-9.2,13-7.2
			C185.1,77.1,175.4,74.2,169.9,77.3z"/>
		<ellipse transform="matrix(0.994 -0.1097 0.1097 0.994 -9.0393 19.0852)" class="st43" cx="168.9" cy="91.7" rx="2" ry="3.6"/>
		<g>
			<g>
				<path class="st32" d="M152.7,255.1c5-1.2,11.9-4,12.8,0c1.1,4.8,2.4,16.2,3.8,27.2c0.3,2.4-2.8,3.6-3.5,3.8
					c-3.4,1-6.3,1.3-10.1,1.9L152.7,255.1C152.6,255.1,152.6,255.1,152.7,255.1z"/>
				<path class="st32" d="M137.5,255.1c-6.3-1.5-11.3-5-12.4-0.1c-1.2,5.2-2.4,16.5-3.7,27.1c-0.3,2.7,2.5,3.9,3.4,4.1
					c3.3,0.8,6.1,1.3,9.7,1.8L137.5,255.1C137.5,255.1,137.5,255.1,137.5,255.1z"/>
				<path class="st42" d="M132.6,287.4l-0.2,0.4c7.8,1,17.3,1,25.1,0.1c-0.1-0.2-0.1-0.3-0.2-0.4H132.6z"/>
				<rect x="140.9" y="243.6" class="st45" width="8.2" height="8.5"/>
				<path class="st47" d="M129.5,287.3c1.7-5-2.2-28.2-4.4-32.5c1.2-4.4,12.5-3.9,15.5-6.4c0.7,0.6,7.6,0.5,8.3,0
					c2.3,1.8,14.4,1.9,16.4,6.3c-2.3,4.9-6.5,28.2-4.7,32.7C152.9,288.8,137.4,288.9,129.5,287.3z"/>
				<path class="st45" d="M139.9,243.5h10.3v5.3c-3.4,1.5-8.7,0.9-10.3,0.1V243.5z"/>
				<path class="st41" d="M145.1,248.4c10,0,15.9-18.2,8.9-26.7c-3.3-4.1-11.6-5.1-14.2-2C128,223.5,133.8,248.4,145.1,248.4z"/>
				<path class="st32" d="M151.3,248.3c1,0.7,2.4,1.6,2.4,1.6c-4.1,4.2-14.4,2.9-17.4,0.2l2.4-1.8
					C141.2,249.8,146.6,251.6,151.3,248.3z"/>
				<path class="st30" d="M139.8,247.5c1.6,1.9,9.3,1.9,10.5,0.2c0.1,0.1,0.5,0.3,1,0.7c-4.8,3.3-10.1,1.5-12.6-0.1L139.8,247.5z"/>
			</g>
			<g>
				<path class="st48" d="M202.9,255.1c5-1.2,11.9-4,12.8,0c1.1,4.8,2.4,16.2,3.8,27.2c0.3,2.4-2.8,3.6-3.5,3.8
					c-3.4,1-6.3,1.3-10.1,1.9L202.9,255.1C202.9,255.1,202.9,255.1,202.9,255.1z"/>
				<path class="st48" d="M187.8,255.1c-6.3-1.5-11.3-5-12.4-0.1c-1.1,5.2-2.4,16.5-3.7,27.1c-0.3,2.7,2.5,3.9,3.4,4.1
					c3.3,0.8,6.1,1.3,9.7,1.8L187.8,255.1C187.8,255.1,187.8,255.1,187.8,255.1z"/>
				<path class="st42" d="M182.8,287.4l-0.2,0.4c7.8,1,17.3,1,25.1,0.1c-0.1-0.2-0.1-0.3-0.2-0.4H182.8z"/>
				<rect x="191.1" y="243.6" class="st45" width="8.2" height="8.5"/>
				<path class="st49" d="M179.7,287.3c1.7-5-2.2-28.2-4.4-32.5c1.2-4.4,12.5-3.9,15.5-6.4c0.7,0.6,7.6,0.5,8.3,0
					c2.3,1.8,14.4,1.9,16.4,6.3c-2.3,4.9-6.5,28.2-4.7,32.7C203.2,288.8,187.7,288.9,179.7,287.3z"/>
				<path class="st45" d="M190.2,243.5h10.3v5.3c-3.4,1.5-8.7,0.9-10.3,0.1V243.5z"/>
				<path class="st50" d="M195.4,248.4c10,0,15.9-18.2,8.9-26.7c-3.3-4.1-11.6-5.1-14.2-2C178.3,223.5,184.1,248.4,195.4,248.4z"/>
				<path class="st48" d="M201.6,248.3c1,0.7,2.4,1.6,2.4,1.6c-4.1,4.2-14.4,2.9-17.4,0.2l2.4-1.8
					C191.5,249.8,196.8,251.6,201.6,248.3z"/>
				<path class="st30" d="M190.1,247.5c1.6,1.9,9.3,1.9,10.6,0.2c0.1,0.1,0.5,0.3,1,0.7c-4.8,3.3-10.1,1.5-12.6-0.1L190.1,247.5z"/>
			</g>
			<g>
				<path class="st42" d="M253.2,255.1c5-1.2,11.9-4,12.8,0c1.1,4.8,2.4,16.2,3.8,27.2c0.3,2.4-2.8,3.6-3.5,3.8
					c-3.4,1-6.3,1.3-10.1,1.9L253.2,255.1C253.1,255.1,253.2,255.1,253.2,255.1z"/>
				<path class="st42" d="M238,255.1c-6.3-1.5-11.3-5-12.4-0.1c-1.2,5.2-2.4,16.5-3.7,27.1c-0.3,2.7,2.5,3.9,3.4,4.1
					c3.3,0.8,6.1,1.3,9.7,1.8L238,255.1C238,255.1,238,255.1,238,255.1z"/>
				<path class="st42" d="M233.1,287.4l-0.2,0.4c7.8,1,17.3,1,25.1,0.1c-0.1-0.2-0.1-0.3-0.2-0.4H233.1z"/>
				<rect x="241.4" y="243.6" class="st45" width="8.2" height="8.5"/>
				<path class="st32" d="M230,287.3c1.7-5-2.2-28.2-4.4-32.5c1.2-4.4,12.5-3.9,15.5-6.4c0.7,0.6,7.6,0.5,8.3,0
					c2.3,1.8,14.4,1.9,16.4,6.3c-2.3,4.9-6.5,28.2-4.7,32.7C253.4,288.8,237.9,288.9,230,287.3z"/>
				<path class="st45" d="M240.4,243.5h10.3v5.3c-3.4,1.5-8.7,0.9-10.3,0.1V243.5z"/>
				<path class="st51" d="M245.6,248.4c10,0,15.9-18.2,8.9-26.7c-3.3-4.1-11.6-5.1-14.2-2C228.5,223.5,234.3,248.4,245.6,248.4z"/>
				<path class="st42" d="M251.8,248.3c1,0.7,2.4,1.6,2.4,1.6c-4.1,4.2-14.4,2.9-17.4,0.2l2.4-1.8
					C241.7,249.8,247.1,251.6,251.8,248.3z"/>
				<path class="st30" d="M240.3,247.5c1.6,1.9,9.3,1.9,10.5,0.2c0.1,0.1,0.5,0.3,1,0.7c-4.8,3.3-10.1,1.5-12.6-0.1L240.3,247.5z"/>
			</g>
			<g>
				<path class="st42" d="M303.4,255.1c5-1.2,11.9-4,12.8,0c1.1,4.8,2.4,16.2,3.8,27.2c0.3,2.4-2.8,3.6-3.5,3.8
					c-3.4,1-6.3,1.3-10.1,1.9L303.4,255.1C303.4,255.1,303.4,255.1,303.4,255.1z"/>
				<path class="st42" d="M288.3,255.1c-6.3-1.5-11.3-5-12.4-0.1c-1.2,5.2-2.4,16.5-3.7,27.1c-0.3,2.7,2.5,3.9,3.4,4.1
					c3.3,0.8,6.1,1.3,9.7,1.8L288.3,255.1C288.3,255.1,288.3,255.1,288.3,255.1z"/>
				<path class="st42" d="M283.4,287.4l-0.2,0.4c7.8,1,17.3,1,25.1,0.1c-0.1-0.2-0.1-0.3-0.2-0.4H283.4z"/>
				<rect x="291.6" y="243.6" class="st45" width="8.2" height="8.5"/>
				<path class="st32" d="M280.2,287.3c1.7-5-2.2-28.2-4.4-32.5c1.2-4.4,12.5-3.9,15.5-6.4c0.7,0.6,7.6,0.5,8.3,0
					c2.3,1.8,14.4,1.9,16.4,6.3c-2.3,4.9-6.5,28.2-4.7,32.7C303.7,288.8,288.2,288.9,280.2,287.3z"/>
				<path class="st45" d="M290.7,243.5H301v5.3c-3.4,1.5-8.7,0.9-10.3,0.1V243.5z"/>
				<path class="st52" d="M295.9,248.4c10,0,15.9-18.2,8.9-26.7c-3.3-4.1-11.6-5.1-14.2-2C278.8,223.5,284.6,248.4,295.9,248.4z"/>
				<path class="st42" d="M302.1,248.3c1,0.7,2.4,1.6,2.4,1.6c-4.1,4.2-14.4,2.9-17.4,0.2l2.4-1.8
					C292,249.8,297.3,251.6,302.1,248.3z"/>
				<path class="st30" d="M290.6,247.5c1.6,1.9,9.3,1.9,10.5,0.2c0.1,0.1,0.5,0.3,1,0.7c-4.8,3.3-10.1,1.5-12.6-0.1L290.6,247.5z"/>
			</g>
		</g>
	</g>
</g>
</svg>
