<?xml version="1.0" encoding="utf-8"?>
<!-- Generator: Adobe Illustrator 20.0.0, SVG Export Plug-In . SVG Version: 6.00 Build 0)  -->
<svg version="1.1" id="Layer_1" xmlns="http://www.w3.org/2000/svg" xmlns:xlink="http://www.w3.org/1999/xlink" x="0px" y="0px"
	 viewBox="0 0 612 612" style="enable-background:new 0 0 612 612;" xml:space="preserve">
<style type="text/css">
	.st0{clip-path:url(#SVGID_2_);}
	.st1{fill:url(#SVGID_3_);}
	.st2{opacity:3.000000e-02;}
	.st3{fill:#E5E5E4;}
	.st4{clip-path:url(#SVGID_5_);fill:#F05B26;}
	.st5{clip-path:url(#SVGID_7_);fill:#FFFFFF;}
	.st6{clip-path:url(#SVGID_9_);}
	.st7{fill:url(#SVGID_10_);}
	.st8{fill:url(#SVGID_11_);}
	.st9{fill:url(#SVGID_12_);}
	.st10{fill:url(#SVGID_13_);}
	.st11{fill:url(#SVGID_14_);}
	.st12{fill:url(#SVGID_15_);}
	.st13{fill:url(#SVGID_16_);}
	.st14{fill:url(#SVGID_17_);}
	.st15{fill:url(#SVGID_18_);}
	.st16{fill:url(#SVGID_19_);}
	.st17{fill:url(#SVGID_20_);}
	.st18{fill:url(#SVGID_21_);}
	.st19{fill:url(#SVGID_22_);}
	.st20{fill:url(#SVGID_23_);}
	.st21{fill:url(#SVGID_24_);}
	.st22{fill:url(#SVGID_25_);}
	.st23{fill:url(#SVGID_26_);}
	.st24{fill:url(#SVGID_27_);}
	.st25{fill:url(#SVGID_28_);}
	.st26{fill:url(#SVGID_29_);}
	.st27{fill:url(#SVGID_30_);}
	.st28{fill:url(#SVGID_31_);}
	.st29{fill:url(#SVGID_32_);}
	.st30{fill:url(#SVGID_33_);}
	.st31{fill:url(#SVGID_34_);}
	.st32{fill:url(#SVGID_35_);}
	.st33{fill:url(#SVGID_36_);}
	.st34{fill:url(#SVGID_37_);}
	.st35{fill:url(#SVGID_38_);}
	.st36{fill:url(#SVGID_39_);}
	.st37{fill:url(#SVGID_40_);}
	.st38{fill:#FFFFFF;}
	.st39{clip-path:url(#SVGID_42_);fill:#FFFFFF;}
	.st40{clip-path:url(#SVGID_44_);fill:#F05B26;}
	.st41{opacity:0.4;clip-path:url(#SVGID_46_);}
	.st42{opacity:0.5;}
	.st43{clip-path:url(#SVGID_48_);}
	.st44{clip-path:url(#SVGID_50_);fill:#FFFFFF;}
	.st45{clip-path:url(#SVGID_52_);fill:#019147;}
	.st46{opacity:0.4;clip-path:url(#SVGID_54_);}
	.st47{clip-path:url(#SVGID_56_);enable-background:new    ;}
	.st48{font-family:'BaskOldFace';}
	.st49{font-size:64.6592px;}
	.st50{clip-path:url(#SVGID_58_);enable-background:new    ;}
	.st51{clip-path:url(#SVGID_60_);fill:#FFFFFF;}
	.st52{clip-path:url(#SVGID_62_);fill:#C0272D;}
	.st53{opacity:0.4;clip-path:url(#SVGID_64_);}
	.st54{clip-path:url(#SVGID_66_);fill:#FFFFFF;}
	.st55{clip-path:url(#SVGID_68_);fill:#FFFFFF;}
	.st56{clip-path:url(#SVGID_70_);fill:#4B4C4C;}
	.st57{opacity:0.4;clip-path:url(#SVGID_72_);}
	.st58{clip-path:url(#SVGID_74_);}
	.st59{clip-path:url(#SVGID_76_);}
	.st60{fill:#00A89C;}
	.st61{opacity:0.4;}
	.st62{clip-path:url(#SVGID_78_);fill:#FFFFFF;}
	.st63{clip-path:url(#SVGID_80_);fill:#8BC540;}
	.st64{clip-path:url(#SVGID_82_);}
	.st65{opacity:0.4;clip-path:url(#SVGID_84_);}
	.st66{clip-path:url(#SVGID_86_);}
	.st67{fill:#676767;}
</style>
<g>
	<g>
		<g>
			<g>
				<defs>
					<circle id="SVGID_1_" cx="306" cy="306" r="306"/>
				</defs>
				<clipPath id="SVGID_2_">
					<use xlink:href="#SVGID_1_"  style="overflow:visible;"/>
				</clipPath>
				<g class="st0">
					
						<radialGradient id="SVGID_3_" cx="539.6788" cy="2279.8547" r="449.5462" gradientTransform="matrix(0.9576 -0.8733 0.4849 1.0421 -1290.2612 -1615.785)" gradientUnits="userSpaceOnUse">
						<stop  offset="0" style="stop-color:#00A89C"/>
						<stop  offset="0.1368" style="stop-color:#039F98"/>
						<stop  offset="0.3591" style="stop-color:#0A878D"/>
						<stop  offset="0.639" style="stop-color:#15607C"/>
						<stop  offset="0.9628" style="stop-color:#252A64"/>
						<stop  offset="1" style="stop-color:#272361"/>
					</radialGradient>
					<rect x="-3.4" y="-16.1" class="st1" width="646.8" height="646.8"/>
					<g class="st2">
						<polygon class="st3" points="10.2,-16.1 -3.4,-2.6 -3.4,14.5 27.2,-16.1 						"/>
						<polygon class="st3" points="39.4,-16.1 -3.4,26.7 -3.4,43.7 56.5,-16.1 						"/>
						<polygon class="st3" points="68.8,-16.1 -3.4,56.1 -3.4,73 85.7,-16.1 						"/>
						<polygon class="st3" points="98.1,-16.1 -3.4,85.3 -3.4,102.4 115.1,-16.1 						"/>
						<polygon class="st3" points="127.4,-16.1 -3.4,114.6 -3.4,131.6 144.4,-16.1 						"/>
						<polygon class="st3" points="156.7,-16.1 -3.4,144 -3.4,160.9 173.7,-16.1 						"/>
						<polygon class="st3" points="186,-16.1 -3.4,173.3 -3.4,190.3 203,-16.1 						"/>
						<polygon class="st3" points="215.3,-16.1 -3.4,202.5 -3.4,219.6 232.3,-16.1 						"/>
						<polygon class="st3" points="244.6,-16.1 -3.4,231.9 -3.4,248.8 261.6,-16.1 						"/>
						<polygon class="st3" points="273.9,-16.1 -3.4,261.2 -3.4,278.2 290.9,-16.1 						"/>
						<polygon class="st3" points="303.2,-16.1 -3.4,290.4 -3.4,307.5 320.2,-16.1 						"/>
						<polygon class="st3" points="332.6,-16.1 -3.4,319.8 -3.4,336.7 349.5,-16.1 						"/>
						<polygon class="st3" points="361.8,-16.1 -3.4,349.1 -3.4,366.1 378.9,-16.1 						"/>
						<polygon class="st3" points="391.1,-16.1 -3.4,378.4 -3.4,395.4 408.1,-16.1 						"/>
						<polygon class="st3" points="420.5,-16.1 -3.4,407.7 -3.4,424.7 437.4,-16.1 						"/>
						<polygon class="st3" points="449.7,-16.1 -3.4,437 -3.4,454 466.8,-16.1 						"/>
						<polygon class="st3" points="479,-16.1 -3.4,466.3 -3.4,483.3 496,-16.1 						"/>
						<polygon class="st3" points="508.4,-16.1 -3.4,495.6 -3.4,512.7 525.4,-16.1 						"/>
						<polygon class="st3" points="537.7,-16.1 -3.4,524.9 -3.4,541.9 554.7,-16.1 						"/>
						<polygon class="st3" points="567,-16.1 -3.4,554.3 -3.4,571.2 584,-16.1 						"/>
						<polygon class="st3" points="596.3,-16.1 -3.4,583.6 -3.4,600.6 613.3,-16.1 						"/>
						<polygon class="st3" points="625.6,-16.1 -3.4,612.8 -3.4,629.9 642.6,-16.1 						"/>
						<polygon class="st3" points="643.4,-4.6 8.1,630.6 25.1,630.6 643.4,12.4 						"/>
						<polygon class="st3" points="643.4,24.7 37.5,630.6 54.4,630.6 643.4,41.6 						"/>
						<polygon class="st3" points="643.4,54 66.7,630.6 83.8,630.6 643.4,71 						"/>
						<polygon class="st3" points="643.4,83.3 96,630.6 113,630.6 643.4,100.3 						"/>
						<polygon class="st3" points="643.4,112.6 125.4,630.6 142.3,630.6 643.4,129.6 						"/>
						<polygon class="st3" points="643.4,141.9 154.7,630.6 171.7,630.6 643.4,158.9 						"/>
						<polygon class="st3" points="643.4,171.3 184,630.6 200.9,630.6 643.4,188.2 						"/>
						<polygon class="st3" points="643.4,200.6 213.3,630.6 230.3,630.6 643.4,217.6 						"/>
						<polygon class="st3" points="643.4,229.8 242.6,630.6 259.6,630.6 643.4,246.8 						"/>
						<polygon class="st3" points="643.4,259.2 271.9,630.6 288.9,630.6 643.4,276.1 						"/>
						<polygon class="st3" points="643.4,288.5 301.2,630.6 318.2,630.6 643.4,305.5 						"/>
						<polygon class="st3" points="643.4,317.7 330.5,630.6 347.5,630.6 643.4,334.8 						"/>
						<polygon class="st3" points="643.4,347.1 359.9,630.6 376.8,630.6 643.4,364 						"/>
						<polygon class="st3" points="643.4,376.4 389.1,630.6 406.2,630.6 643.4,393.4 						"/>
						<polygon class="st3" points="643.4,405.7 418.4,630.6 435.4,630.6 643.4,422.7 						"/>
						<polygon class="st3" points="643.4,435 447.8,630.6 464.7,630.6 643.4,452 						"/>
						<polygon class="st3" points="643.4,464.3 477,630.6 494.1,630.6 643.4,481.3 						"/>
						<polygon class="st3" points="643.4,493.6 506.3,630.6 523.3,630.6 643.4,510.6 						"/>
						<polygon class="st3" points="643.4,522.9 535.7,630.6 552.6,630.6 643.4,539.9 						"/>
						<polygon class="st3" points="643.4,552.2 565,630.6 582,630.6 643.4,569.2 						"/>
						<polygon class="st3" points="643.4,581.5 594.2,630.6 611.3,630.6 643.4,598.5 						"/>
						<polygon class="st3" points="643.4,610.9 623.6,630.6 640.5,630.6 643.4,627.8 						"/>
					</g>
				</g>
			</g>
		</g>
		<g>
			<g>
				<defs>
					<circle id="SVGID_4_" cx="306" cy="306" r="306"/>
				</defs>
				<clipPath id="SVGID_5_">
					<use xlink:href="#SVGID_4_"  style="overflow:visible;"/>
				</clipPath>
				<circle class="st4" cx="303.3" cy="309.3" r="123.6"/>
			</g>
			<g>
				<defs>
					<circle id="SVGID_6_" cx="306" cy="306" r="306"/>
				</defs>
				<clipPath id="SVGID_7_">
					<use xlink:href="#SVGID_6_"  style="overflow:visible;"/>
				</clipPath>
				<circle class="st5" cx="303.3" cy="309.3" r="97.8"/>
			</g>
			<g>
				<defs>
					<circle id="SVGID_8_" cx="306" cy="306" r="306"/>
				</defs>
				<clipPath id="SVGID_9_">
					<use xlink:href="#SVGID_8_"  style="overflow:visible;"/>
				</clipPath>
				<g class="st6">
					
						<radialGradient id="SVGID_10_" cx="268.2021" cy="592.8396" r="179.6581" gradientTransform="matrix(1 0 0 1 0 -230)" gradientUnits="userSpaceOnUse">
						<stop  offset="0" style="stop-color:#FFFFFF"/>
						<stop  offset="0.599" style="stop-color:#D9DFE1"/>
						<stop  offset="0.9655" style="stop-color:#CCCBCB"/>
						<stop  offset="1" style="stop-color:#B3B2B3"/>
					</radialGradient>
					<path class="st7" d="M399.8,309.1c0,53.4-43.3,96.6-96.6,96.6c-53.4,0-96.6-43.2-96.6-96.6s43.3-96.6,96.6-96.6
						S399.8,255.7,399.8,309.1z"/>
					
						<radialGradient id="SVGID_11_" cx="268.2817" cy="592.7403" r="175.1905" gradientTransform="matrix(1 0 0 1 0 -230)" gradientUnits="userSpaceOnUse">
						<stop  offset="0" style="stop-color:#FFFFFF"/>
						<stop  offset="0.599" style="stop-color:#DAE0E2"/>
						<stop  offset="0.9655" style="stop-color:#CECDCD"/>
						<stop  offset="1" style="stop-color:#B5B4B5"/>
					</radialGradient>
					<path class="st8" d="M396.6,310.3c0,52-42.2,94.2-94.2,94.2s-94.2-42.2-94.2-94.2s42.2-94.2,94.2-94.2
						C354.4,216.1,396.6,258.3,396.6,310.3z"/>
					
						<radialGradient id="SVGID_12_" cx="268.3613" cy="592.641" r="170.7228" gradientTransform="matrix(1 0 0 1 0 -230)" gradientUnits="userSpaceOnUse">
						<stop  offset="0" style="stop-color:#FFFFFF"/>
						<stop  offset="0.599" style="stop-color:#DBE1E3"/>
						<stop  offset="0.9655" style="stop-color:#CFCECE"/>
						<stop  offset="1" style="stop-color:#B8B7B8"/>
					</radialGradient>
					<path class="st9" d="M393.4,311.6c0,50.7-41.1,91.8-91.8,91.8s-91.8-41.1-91.8-91.8s41.1-91.8,91.8-91.8
						C352.3,219.8,393.4,260.8,393.4,311.6z"/>
					
						<radialGradient id="SVGID_13_" cx="268.4408" cy="592.5417" r="166.2552" gradientTransform="matrix(1 0 0 1 0 -230)" gradientUnits="userSpaceOnUse">
						<stop  offset="0" style="stop-color:#FFFFFF"/>
						<stop  offset="0.599" style="stop-color:#DDE2E4"/>
						<stop  offset="0.9655" style="stop-color:#D1D0D0"/>
						<stop  offset="1" style="stop-color:#BAB9BA"/>
					</radialGradient>
					<path class="st10" d="M390.2,312.8c0,49.4-40.1,89.4-89.4,89.4c-49.4,0-89.4-40-89.4-89.4s40-89.4,89.4-89.4
						S390.2,263.4,390.2,312.8z"/>
					
						<radialGradient id="SVGID_14_" cx="268.5204" cy="592.4424" r="161.7876" gradientTransform="matrix(1 0 0 1 0 -230)" gradientUnits="userSpaceOnUse">
						<stop  offset="0" style="stop-color:#FFFFFF"/>
						<stop  offset="0.599" style="stop-color:#DEE3E5"/>
						<stop  offset="0.9655" style="stop-color:#D3D2D2"/>
						<stop  offset="1" style="stop-color:#BDBCBD"/>
					</radialGradient>
					<path class="st11" d="M387,314c0,48.1-39,87-87,87c-48.1,0-87-38.9-87-87s39-87,87-87C348.1,227,387,266,387,314z"/>
					
						<radialGradient id="SVGID_15_" cx="268.5999" cy="592.3431" r="157.32" gradientTransform="matrix(1 0 0 1 0 -230)" gradientUnits="userSpaceOnUse">
						<stop  offset="0" style="stop-color:#FFFFFF"/>
						<stop  offset="0.599" style="stop-color:#DFE4E6"/>
						<stop  offset="0.9655" style="stop-color:#D4D3D3"/>
						<stop  offset="1" style="stop-color:#BFBEBF"/>
					</radialGradient>
					<path class="st12" d="M383.8,315.3c0,46.7-37.9,84.6-84.6,84.6s-84.6-37.9-84.6-84.6s37.9-84.6,84.6-84.6
						C345.9,230.7,383.8,268.5,383.8,315.3z"/>
					
						<radialGradient id="SVGID_16_" cx="268.6795" cy="592.2438" r="152.8523" gradientTransform="matrix(1 0 0 1 0 -230)" gradientUnits="userSpaceOnUse">
						<stop  offset="0" style="stop-color:#FFFFFF"/>
						<stop  offset="0.599" style="stop-color:#E0E5E7"/>
						<stop  offset="0.9655" style="stop-color:#D6D5D5"/>
						<stop  offset="1" style="stop-color:#C2C1C2"/>
					</radialGradient>
					<path class="st13" d="M380.7,316.5c0,45.4-36.8,82.2-82.2,82.2s-82.2-36.8-82.2-82.2s36.8-82.2,82.2-82.2
						C343.8,234.3,380.7,271.1,380.7,316.5z"/>
					
						<radialGradient id="SVGID_17_" cx="268.7591" cy="592.1445" r="148.3847" gradientTransform="matrix(1 0 0 1 0 -230)" gradientUnits="userSpaceOnUse">
						<stop  offset="0" style="stop-color:#FFFFFF"/>
						<stop  offset="0.599" style="stop-color:#E2E6E8"/>
						<stop  offset="0.9655" style="stop-color:#D8D7D7"/>
						<stop  offset="1" style="stop-color:#C4C3C4"/>
					</radialGradient>
					<path class="st14" d="M377.5,317.7c0,44.1-35.8,79.8-79.8,79.8c-44.1,0-79.8-35.7-79.8-79.8s35.7-79.8,79.8-79.8
						C341.7,237.9,377.5,273.7,377.5,317.7z"/>
					
						<radialGradient id="SVGID_18_" cx="268.8387" cy="592.0452" r="143.9171" gradientTransform="matrix(1 0 0 1 0 -230)" gradientUnits="userSpaceOnUse">
						<stop  offset="0" style="stop-color:#FFFFFF"/>
						<stop  offset="0.599" style="stop-color:#E3E7E9"/>
						<stop  offset="0.9655" style="stop-color:#D9D8D8"/>
						<stop  offset="1" style="stop-color:#C7C6C7"/>
					</radialGradient>
					<path class="st15" d="M374.3,319c0,42.8-34.7,77.4-77.4,77.4c-42.8,0-77.4-34.6-77.4-77.4s34.7-77.4,77.4-77.4
						S374.3,276.2,374.3,319z"/>
					
						<radialGradient id="SVGID_19_" cx="268.9182" cy="591.9459" r="139.4495" gradientTransform="matrix(1 0 0 1 0 -230)" gradientUnits="userSpaceOnUse">
						<stop  offset="0" style="stop-color:#FFFFFF"/>
						<stop  offset="0.599" style="stop-color:#E4E8EA"/>
						<stop  offset="0.9655" style="stop-color:#DBDADA"/>
						<stop  offset="1" style="stop-color:#C9C8C9"/>
					</radialGradient>
					<path class="st16" d="M371.1,320.2c0,41.4-33.6,75-75,75s-75-33.6-75-75s33.6-75,75-75C337.5,245.2,371.1,278.8,371.1,320.2z"
						/>
					
						<radialGradient id="SVGID_20_" cx="268.9978" cy="591.8466" r="134.9818" gradientTransform="matrix(1 0 0 1 0 -230)" gradientUnits="userSpaceOnUse">
						<stop  offset="0" style="stop-color:#FFFFFF"/>
						<stop  offset="0.599" style="stop-color:#E5E9EB"/>
						<stop  offset="0.9655" style="stop-color:#DCDCDC"/>
						<stop  offset="1" style="stop-color:#CCCBCC"/>
					</radialGradient>
					<path class="st17" d="M367.9,321.5c0,40.1-32.5,72.6-72.6,72.6s-72.6-32.5-72.6-72.6s32.5-72.6,72.6-72.6
						S367.9,281.4,367.9,321.5z"/>
					
						<radialGradient id="SVGID_21_" cx="269.0773" cy="591.7473" r="130.5142" gradientTransform="matrix(1 0 0 1 0 -230)" gradientUnits="userSpaceOnUse">
						<stop  offset="0" style="stop-color:#FFFFFF"/>
						<stop  offset="0.599" style="stop-color:#E6EAEC"/>
						<stop  offset="0.9655" style="stop-color:#DEDDDD"/>
						<stop  offset="1" style="stop-color:#CECDCE"/>
					</radialGradient>
					<path class="st18" d="M364.7,322.7c0,38.8-31.4,70.2-70.2,70.2s-70.2-31.4-70.2-70.2s31.4-70.2,70.2-70.2
						C333.2,252.5,364.7,283.9,364.7,322.7z"/>
					
						<radialGradient id="SVGID_22_" cx="269.1569" cy="591.6479" r="126.0466" gradientTransform="matrix(1 0 0 1 0 -230)" gradientUnits="userSpaceOnUse">
						<stop  offset="0" style="stop-color:#FFFFFF"/>
						<stop  offset="0.599" style="stop-color:#E8EBED"/>
						<stop  offset="0.9655" style="stop-color:#E0DFDF"/>
						<stop  offset="1" style="stop-color:#D0D0D0"/>
					</radialGradient>
					<path class="st19" d="M361.5,323.9c0,37.4-30.4,67.8-67.8,67.8c-37.5,0-67.8-30.4-67.8-67.8s30.4-67.8,67.8-67.8
						C331.1,256.1,361.5,286.5,361.5,323.9z"/>
					
						<radialGradient id="SVGID_23_" cx="269.2365" cy="591.5486" r="121.579" gradientTransform="matrix(1 0 0 1 0 -230)" gradientUnits="userSpaceOnUse">
						<stop  offset="0" style="stop-color:#FFFFFF"/>
						<stop  offset="0.599" style="stop-color:#E9ECEE"/>
						<stop  offset="0.9655" style="stop-color:#E1E1E1"/>
						<stop  offset="1" style="stop-color:#D3D2D3"/>
					</radialGradient>
					<path class="st20" d="M358.3,325.2c0,36.1-29.3,65.4-65.4,65.4s-65.4-29.3-65.4-65.4s29.3-65.4,65.4-65.4
						C329,259.8,358.3,289.1,358.3,325.2z"/>
					
						<radialGradient id="SVGID_24_" cx="269.316" cy="591.4493" r="117.1114" gradientTransform="matrix(1 0 0 1 0 -230)" gradientUnits="userSpaceOnUse">
						<stop  offset="0" style="stop-color:#FFFFFF"/>
						<stop  offset="0.599" style="stop-color:#EAEDEF"/>
						<stop  offset="0.9655" style="stop-color:#E3E2E2"/>
						<stop  offset="1" style="stop-color:#D5D5D5"/>
					</radialGradient>
					<path class="st21" d="M355.1,326.4c0,34.8-28.2,63-63,63s-63-28.2-63-63s28.2-63,63-63S355.1,291.6,355.1,326.4z"/>
					
						<radialGradient id="SVGID_25_" cx="269.3956" cy="591.35" r="112.6437" gradientTransform="matrix(1 0 0 1 0 -230)" gradientUnits="userSpaceOnUse">
						<stop  offset="0" style="stop-color:#FFFFFF"/>
						<stop  offset="0.599" style="stop-color:#EBEEF0"/>
						<stop  offset="0.9655" style="stop-color:#E5E4E4"/>
						<stop  offset="1" style="stop-color:#D8D7D8"/>
					</radialGradient>
					<path class="st22" d="M351.9,327.6c0,33.5-27.1,60.6-60.6,60.6s-60.6-27.1-60.6-60.6s27.1-60.6,60.6-60.6
						C324.8,267.1,351.9,294.2,351.9,327.6z"/>
					
						<radialGradient id="SVGID_26_" cx="269.4752" cy="591.2507" r="108.1761" gradientTransform="matrix(1 0 0 1 0 -230)" gradientUnits="userSpaceOnUse">
						<stop  offset="0" style="stop-color:#FFFFFF"/>
						<stop  offset="0.599" style="stop-color:#EDF0F0"/>
						<stop  offset="0.9655" style="stop-color:#E6E6E6"/>
						<stop  offset="1" style="stop-color:#DADADA"/>
					</radialGradient>
					<path class="st23" d="M348.7,328.9c0,32.1-26.1,58.2-58.2,58.2s-58.2-26.1-58.2-58.2s26.1-58.2,58.2-58.2
						C322.7,270.7,348.7,296.7,348.7,328.9z"/>
					
						<radialGradient id="SVGID_27_" cx="269.5547" cy="591.1514" r="103.7085" gradientTransform="matrix(1 0 0 1 0 -230)" gradientUnits="userSpaceOnUse">
						<stop  offset="0" style="stop-color:#FFFFFF"/>
						<stop  offset="0.599" style="stop-color:#EEF1F1"/>
						<stop  offset="0.9655" style="stop-color:#E8E8E8"/>
						<stop  offset="1" style="stop-color:#DDDCDD"/>
					</radialGradient>
					<path class="st24" d="M345.5,330.1c0,30.8-25,55.8-55.8,55.8s-55.8-25-55.8-55.8s25-55.8,55.8-55.8
						C320.5,274.3,345.5,299.3,345.5,330.1z"/>
					
						<radialGradient id="SVGID_28_" cx="269.6343" cy="591.0521" r="99.2409" gradientTransform="matrix(1 0 0 1 0 -230)" gradientUnits="userSpaceOnUse">
						<stop  offset="0" style="stop-color:#FFFFFF"/>
						<stop  offset="0.599" style="stop-color:#EFF2F2"/>
						<stop  offset="0.9655" style="stop-color:#EAE9E9"/>
						<stop  offset="1" style="stop-color:#DFDFDF"/>
					</radialGradient>
					<path class="st25" d="M342.3,331.4c0,29.5-23.9,53.4-53.4,53.4s-53.4-23.9-53.4-53.4s24-53.4,53.5-53.4
						C318.4,278,342.3,301.9,342.3,331.4z"/>
					
						<radialGradient id="SVGID_29_" cx="269.7138" cy="590.9528" r="94.7732" gradientTransform="matrix(1 0 0 1 0 -230)" gradientUnits="userSpaceOnUse">
						<stop  offset="0" style="stop-color:#FFFFFF"/>
						<stop  offset="0.599" style="stop-color:#F0F3F3"/>
						<stop  offset="0.9655" style="stop-color:#EBEBEB"/>
						<stop  offset="1" style="stop-color:#E2E1E2"/>
					</radialGradient>
					<path class="st26" d="M339.1,332.6c0,28.1-22.8,51-51,51s-51-22.8-51-51c0-28.1,22.8-51,51-51
						C316.3,281.6,339.1,304.4,339.1,332.6z"/>
					
						<radialGradient id="SVGID_30_" cx="269.7934" cy="590.8535" r="90.3056" gradientTransform="matrix(1 0 0 1 0 -230)" gradientUnits="userSpaceOnUse">
						<stop  offset="0" style="stop-color:#FFFFFF"/>
						<stop  offset="0.599" style="stop-color:#F2F4F4"/>
						<stop  offset="0.9655" style="stop-color:#EDEDED"/>
						<stop  offset="1" style="stop-color:#E4E4E4"/>
					</radialGradient>
					<path class="st27" d="M335.9,333.8c0,26.8-21.8,48.6-48.6,48.6c-26.8,0-48.6-21.8-48.6-48.6c0-26.8,21.7-48.6,48.6-48.6
						C314.2,285.3,335.9,307,335.9,333.8z"/>
					
						<radialGradient id="SVGID_31_" cx="269.873" cy="590.7542" r="85.838" gradientTransform="matrix(1 0 0 1 0 -230)" gradientUnits="userSpaceOnUse">
						<stop  offset="0" style="stop-color:#FFFFFF"/>
						<stop  offset="0.599" style="stop-color:#F3F5F5"/>
						<stop  offset="0.9655" style="stop-color:#EFEEEE"/>
						<stop  offset="1" style="stop-color:#E6E6E6"/>
					</radialGradient>
					<path class="st28" d="M332.8,335.1c0,25.5-20.7,46.2-46.2,46.2s-46.2-20.7-46.2-46.2s20.7-46.2,46.2-46.2
						C312.1,288.9,332.8,309.6,332.8,335.1z"/>
					
						<radialGradient id="SVGID_32_" cx="269.9525" cy="590.6549" r="81.3704" gradientTransform="matrix(1 0 0 1 0 -230)" gradientUnits="userSpaceOnUse">
						<stop  offset="0" style="stop-color:#FFFFFF"/>
						<stop  offset="0.599" style="stop-color:#F4F6F6"/>
						<stop  offset="0.9655" style="stop-color:#F0F0F0"/>
						<stop  offset="1" style="stop-color:#E9E9E9"/>
					</radialGradient>
					<path class="st29" d="M329.6,336.3c0,24.2-19.6,43.8-43.8,43.8c-24.2,0-43.8-19.6-43.8-43.8s19.6-43.8,43.8-43.8
						C309.9,292.5,329.6,312.1,329.6,336.3z"/>
					
						<radialGradient id="SVGID_33_" cx="270.0321" cy="590.5556" r="76.9027" gradientTransform="matrix(1 0 0 1 0 -230)" gradientUnits="userSpaceOnUse">
						<stop  offset="0" style="stop-color:#FFFFFF"/>
						<stop  offset="0.599" style="stop-color:#F5F7F7"/>
						<stop  offset="0.9655" style="stop-color:#F2F2F2"/>
						<stop  offset="1" style="stop-color:#EBEBEB"/>
					</radialGradient>
					<path class="st30" d="M326.4,337.5c0,22.8-18.5,41.4-41.3,41.4c-22.9,0-41.4-18.5-41.4-41.4s18.5-41.3,41.4-41.3
						C307.8,296.2,326.4,314.7,326.4,337.5z"/>
					
						<radialGradient id="SVGID_34_" cx="270.1117" cy="590.4563" r="72.4351" gradientTransform="matrix(1 0 0 1 0 -230)" gradientUnits="userSpaceOnUse">
						<stop  offset="0" style="stop-color:#FFFFFF"/>
						<stop  offset="0.599" style="stop-color:#F6F8F8"/>
						<stop  offset="0.9655" style="stop-color:#F3F3F3"/>
						<stop  offset="1" style="stop-color:#EEEEEE"/>
					</radialGradient>
					<path class="st31" d="M323.2,338.8c0,21.5-17.5,39-38.9,39c-21.5,0-39-17.5-39-39s17.4-38.9,39-38.9
						C305.7,299.8,323.2,317.3,323.2,338.8z"/>
					
						<radialGradient id="SVGID_35_" cx="270.1913" cy="590.357" r="67.9675" gradientTransform="matrix(1 0 0 1 0 -230)" gradientUnits="userSpaceOnUse">
						<stop  offset="0" style="stop-color:#FFFFFF"/>
						<stop  offset="0.599" style="stop-color:#F8F9F9"/>
						<stop  offset="0.9655" style="stop-color:#F5F5F5"/>
						<stop  offset="1" style="stop-color:#F0F0F0"/>
					</radialGradient>
					<path class="st32" d="M320,340c0,20.2-16.4,36.6-36.5,36.6c-20.2,0-36.6-16.4-36.6-36.6s16.4-36.5,36.6-36.5
						C303.6,303.5,320,319.8,320,340z"/>
					
						<radialGradient id="SVGID_36_" cx="270.2708" cy="590.2577" r="63.4999" gradientTransform="matrix(1 0 0 1 0 -230)" gradientUnits="userSpaceOnUse">
						<stop  offset="0" style="stop-color:#FFFFFF"/>
						<stop  offset="0.599" style="stop-color:#F9FAFA"/>
						<stop  offset="0.9655" style="stop-color:#F7F7F7"/>
						<stop  offset="1" style="stop-color:#F3F3F3"/>
					</radialGradient>
					<path class="st33" d="M316.8,341.2c0,18.9-15.3,34.2-34.1,34.2c-18.9,0-34.2-15.3-34.2-34.2c0-18.9,15.3-34.1,34.2-34.1
						C301.5,307.1,316.8,322.4,316.8,341.2z"/>
					
						<radialGradient id="SVGID_37_" cx="270.3504" cy="590.1583" r="59.0322" gradientTransform="matrix(1 0 0 1 0 -230)" gradientUnits="userSpaceOnUse">
						<stop  offset="0" style="stop-color:#FFFFFF"/>
						<stop  offset="0.599" style="stop-color:#FAFBFB"/>
						<stop  offset="0.9655" style="stop-color:#F8F8F8"/>
						<stop  offset="1" style="stop-color:#F5F5F5"/>
					</radialGradient>
					<path class="st34" d="M313.6,342.5c0,17.5-14.2,31.8-31.7,31.8c-17.6,0-31.8-14.2-31.8-31.8c0-17.5,14.2-31.7,31.8-31.7
						C299.4,310.7,313.6,325,313.6,342.5z"/>
					
						<radialGradient id="SVGID_38_" cx="270.4299" cy="590.059" r="54.5646" gradientTransform="matrix(1 0 0 1 0 -230)" gradientUnits="userSpaceOnUse">
						<stop  offset="0" style="stop-color:#FFFFFF"/>
						<stop  offset="0.599" style="stop-color:#FBFCFC"/>
						<stop  offset="0.9655" style="stop-color:#FAFAFA"/>
						<stop  offset="1" style="stop-color:#F8F8F8"/>
					</radialGradient>
					<path class="st35" d="M310.4,343.7c0,16.2-13.2,29.4-29.3,29.4c-16.2,0-29.4-13.2-29.4-29.4s13.1-29.3,29.4-29.3
						C297.2,314.4,310.4,327.5,310.4,343.7z"/>
					
						<radialGradient id="SVGID_39_" cx="270.5095" cy="589.9597" r="50.097" gradientTransform="matrix(1 0 0 1 0 -230)" gradientUnits="userSpaceOnUse">
						<stop  offset="0" style="stop-color:#FFFFFF"/>
						<stop  offset="0.599" style="stop-color:#FDFDFD"/>
						<stop  offset="0.9655" style="stop-color:#FCFCFC"/>
						<stop  offset="1" style="stop-color:#FAFAFA"/>
					</radialGradient>
					<path class="st36" d="M307.2,345c0,14.9-12.1,27-26.9,27c-14.9,0-27-12.1-27-27s12.1-26.9,27-26.9
						C295.1,318,307.2,330.1,307.2,345z"/>
					
						<radialGradient id="SVGID_40_" cx="270.5891" cy="589.8604" r="45.6294" gradientTransform="matrix(1 0 0 1 0 -230)" gradientUnits="userSpaceOnUse">
						<stop  offset="0" style="stop-color:#FFFFFF"/>
						<stop  offset="0.599" style="stop-color:#FEFEFE"/>
						<stop  offset="0.9655" style="stop-color:#FDFDFD"/>
						<stop  offset="1" style="stop-color:#FDFDFD"/>
					</radialGradient>
					<path class="st37" d="M304,346.2c0,13.5-11,24.6-24.5,24.6c-13.6,0-24.6-11-24.6-24.6s11-24.5,24.6-24.5
						C293,321.7,304,332.6,304,346.2z"/>
					<path class="st38" d="M300.8,347.4c0,12.2-9.9,22.2-22.1,22.2s-22.2-9.9-22.2-22.2s9.9-22.1,22.2-22.1
						C290.9,325.3,300.8,335.2,300.8,347.4z"/>
				</g>
			</g>
			<g>
				<defs>
					<circle id="SVGID_41_" cx="306" cy="306" r="306"/>
				</defs>
				<clipPath id="SVGID_42_">
					<use xlink:href="#SVGID_41_"  style="overflow:visible;"/>
				</clipPath>
				<circle class="st39" cx="158.6" cy="433.1" r="65.4"/>
			</g>
			<g>
				<defs>
					<circle id="SVGID_43_" cx="306" cy="306" r="306"/>
				</defs>
				<clipPath id="SVGID_44_">
					<use xlink:href="#SVGID_43_"  style="overflow:visible;"/>
				</clipPath>
				<circle class="st40" cx="158.6" cy="433.1" r="50.5"/>
			</g>
			<g>
				<defs>
					<circle id="SVGID_45_" cx="306" cy="306" r="306"/>
				</defs>
				<clipPath id="SVGID_46_">
					<use xlink:href="#SVGID_45_"  style="overflow:visible;"/>
				</clipPath>
				<g class="st41">
					<g class="st42">
						<path class="st38" d="M108.2,433.1c0,27.9,22.6,50.5,50.5,50.5c10.2,0,19.6-3,27.5-8.2C119.5,468.5,108.2,433.1,108.2,433.1z"
							/>
					</g>
					<g class="st42">
						<path class="st38" d="M209.1,433.1c0,0-11.3,35.4-78,42.3c7.9,5.2,17.4,8.2,27.5,8.2C186.5,483.6,209.1,461,209.1,433.1z"/>
					</g>
				</g>
			</g>
			<g>
				<defs>
					<circle id="SVGID_47_" cx="306" cy="306" r="306"/>
				</defs>
				<clipPath id="SVGID_48_">
					<use xlink:href="#SVGID_47_"  style="overflow:visible;"/>
				</clipPath>
				<g class="st43">
					<path class="st38" d="M160.5,421.3c0.1-4.4-3.5-8.8-7.9-9.6c-5.8-1.1-11,2.4-12.1,8.3c-0.1,0.7-0.1,1.3-0.1,2
						c0,6.6,0,13.3,0,19.9c0,3.5-1,6.6-3.4,9.3c-3,3.3-6.7,4.8-11.2,4.5c-1.6-0.1-2.9-1.6-3-3.3c0-1.7,1.3-3.2,3-3.4
						c1-0.1,2.1-0.1,3.1-0.4c2.9-0.8,4.7-3.5,4.7-6.6c0-6.8,0-13.6,0-20.3c0-4.8,1.7-9,5.2-12.3c4.8-4.5,10.5-5.8,16.7-3.8
						c6.1,1.9,9.9,6.3,11.3,12.5c0.2,1,0.3,1.9,0.4,2.8c1.3,0.4,2.6,0.7,3.8,1.3c5.6,2.7,8.9,7.1,9.5,13.4c0.3,3.1,0.1,6.1,0.1,9.2
						c0,3.2,0.1,6.4-0.1,9.6c-0.6,6.4-4,11-9.9,13.5c-9.7,4.1-20.5-2.2-22.1-12.6c-0.1-0.9-0.2-1.7-0.2-2.6c0-5.2,0-10.3,0-15.5
						c0-7.4,4.5-13.5,11.6-15.7C160.2,421.4,160.4,421.3,160.5,421.3z M167.2,434.2c0-1.3,0-2.5,0-3.8v-0.1c0-1.6-1.1-2.7-2.6-2.7
						s-2.7,1-2.7,2.6c-0.1,2.7-0.1,5.5,0,8.2c0,1.5,1.3,2.7,2.7,2.6c1.5-0.1,2.6-1.2,2.6-2.7C167.2,436.8,167.2,435.5,167.2,434.2z"
						/>
				</g>
			</g>
			<g>
				<defs>
					
						<ellipse id="SVGID_49_" transform="matrix(0.7071 -0.7071 0.7071 0.7071 -29.4044 252.145)" cx="289.7" cy="161.6" rx="306" ry="306"/>
				</defs>
				<clipPath id="SVGID_50_">
					<use xlink:href="#SVGID_49_"  style="overflow:visible;"/>
				</clipPath>
				
					<ellipse transform="matrix(0.7071 -0.7071 0.7071 0.7071 -143.0734 161.5697)" class="st44" cx="123.5" cy="253.5" rx="65.4" ry="65.4"/>
			</g>
			<g>
				<defs>
					<circle id="SVGID_51_" cx="306" cy="306" r="306"/>
				</defs>
				<clipPath id="SVGID_52_">
					<use xlink:href="#SVGID_51_"  style="overflow:visible;"/>
				</clipPath>
				<circle class="st45" cx="123.5" cy="254.9" r="50.5"/>
			</g>
			<g>
				<defs>
					<circle id="SVGID_53_" cx="306" cy="306" r="306"/>
				</defs>
				<clipPath id="SVGID_54_">
					<use xlink:href="#SVGID_53_"  style="overflow:visible;"/>
				</clipPath>
				<g class="st46">
					<g class="st42">
						<path class="st38" d="M73.2,255.4c0,27.9,22.6,50.5,50.5,50.5c10.2,0,19.6-3,27.5-8.2C84.5,290.8,73.2,255.4,73.2,255.4z"/>
					</g>
					<g class="st42">
						<path class="st38" d="M174.1,255.4c0,0-11.3,35.4-78,42.3c7.9,5.2,17.4,8.2,27.5,8.2C151.5,305.9,174.1,283.3,174.1,255.4z"/>
					</g>
				</g>
			</g>
			<g>
				<defs>
					<circle id="SVGID_55_" cx="306" cy="306" r="306"/>
				</defs>
				<clipPath id="SVGID_56_">
					<use xlink:href="#SVGID_55_"  style="overflow:visible;"/>
				</clipPath>
				<g class="st47">
					<text transform="matrix(1 0 0 1 89.7817 279.0682)" class="st38 st48 st49">A</text>
				</g>
			</g>
			<g>
				<defs>
					<circle id="SVGID_57_" cx="306" cy="306" r="306"/>
				</defs>
				<clipPath id="SVGID_58_">
					<use xlink:href="#SVGID_57_"  style="overflow:visible;"/>
				</clipPath>
				<g class="st50">
					<text transform="matrix(1 0 0 1 126.1875 253.5116)" class="st38 st48 st49">a</text>
				</g>
			</g>
			<g>
				<defs>
					<circle id="SVGID_59_" cx="306" cy="306" r="306"/>
				</defs>
				<clipPath id="SVGID_60_">
					<use xlink:href="#SVGID_59_"  style="overflow:visible;"/>
				</clipPath>
				<circle class="st51" cx="268.7" cy="121.2" r="65.4"/>
			</g>
			<g>
				<defs>
					<circle id="SVGID_61_" cx="306" cy="306" r="306"/>
				</defs>
				<clipPath id="SVGID_62_">
					<use xlink:href="#SVGID_61_"  style="overflow:visible;"/>
				</clipPath>
				<circle class="st52" cx="268.7" cy="121.2" r="50.5"/>
			</g>
			<g>
				<defs>
					<circle id="SVGID_63_" cx="306" cy="306" r="306"/>
				</defs>
				<clipPath id="SVGID_64_">
					<use xlink:href="#SVGID_63_"  style="overflow:visible;"/>
				</clipPath>
				<g class="st53">
					<g class="st42">
						<path class="st38" d="M218.3,122.1c0,27.9,22.6,50.5,50.5,50.5c10.2,0,19.6-3,27.5-8.2C229.6,157.5,218.3,122.1,218.3,122.1z"
							/>
					</g>
					<g class="st42">
						<path class="st38" d="M319.2,122.1c0,0-11.3,35.4-78,42.3c7.9,5.2,17.4,8.2,27.5,8.2C296.6,172.6,319.2,150,319.2,122.1z"/>
					</g>
				</g>
			</g>
			<g>
				<defs>
					<circle id="SVGID_65_" cx="306" cy="306" r="306"/>
				</defs>
				<clipPath id="SVGID_66_">
					<use xlink:href="#SVGID_65_"  style="overflow:visible;"/>
				</clipPath>
				<path class="st54" d="M286.1,115.7v8.4h-6.4v-8.7h-21.9v-12.8c0-4.6,3.7-8.3,8.3-8.3h5.4c4.6,0,8.3,3.7,8.3,8.3v5.8h5.9v-7.6
					c0-6.3-5.1-11.4-11.4-11.4h-11c-6.3,0-11.4,5.1-11.4,11.4v14.7c-2.4,0.5-4.2,2.5-4.2,4.9v22.9c0,2.7,2.4,5,5.3,5h31.6
					c2.9,0,5.3-2.2,5.3-5v-1.6V139v-3.8v-2.8v-4.1v-2.8v-0.7v-4.5C289.8,118.2,288.3,116.3,286.1,115.7z M270.6,134.5v3.5
					c0,0.8-0.8,1.5-1.8,1.5s-1.8-0.7-1.8-1.5v-3.5c-1.4-0.7-2.4-2.1-2.4-3.8c0-2.4,1.9-4.3,4.3-4.3s4.3,1.9,4.3,4.3
					C273,132.4,272,133.8,270.6,134.5z"/>
			</g>
			<g>
				<defs>
					
						<ellipse id="SVGID_67_" transform="matrix(0.7071 -0.7071 0.7071 0.7071 -129.72 415.4537)" cx="436.6" cy="364.3" rx="306" ry="306"/>
				</defs>
				<clipPath id="SVGID_68_">
					<use xlink:href="#SVGID_67_"  style="overflow:visible;"/>
				</clipPath>
				
					<ellipse transform="matrix(0.7071 -0.7071 0.7071 0.7071 3.8699 364.3366)" class="st55" cx="441.7" cy="177.5" rx="65.4" ry="65.4"/>
			</g>
			<g>
				<defs>
					<circle id="SVGID_69_" cx="306" cy="306" r="306"/>
				</defs>
				<clipPath id="SVGID_70_">
					<use xlink:href="#SVGID_69_"  style="overflow:visible;"/>
				</clipPath>
				<circle class="st56" cx="441.7" cy="177.5" r="50.5"/>
			</g>
			<g>
				<defs>
					<circle id="SVGID_71_" cx="306" cy="306" r="306"/>
				</defs>
				<clipPath id="SVGID_72_">
					<use xlink:href="#SVGID_71_"  style="overflow:visible;"/>
				</clipPath>
				<g class="st57">
					<g class="st42">
						<path class="st38" d="M391.2,178.2c0,27.9,22.6,50.5,50.5,50.5c10.2,0,19.6-3,27.5-8.2C402.5,213.6,391.2,178.2,391.2,178.2z"
							/>
					</g>
					<g class="st42">
						<path class="st38" d="M492.1,178.2c0,0-11.3,35.4-78,42.3c7.9,5.2,17.4,8.2,27.5,8.2C469.5,228.7,492.1,206.1,492.1,178.2z"/>
					</g>
				</g>
			</g>
			<g>
				<defs>
					<circle id="SVGID_73_" cx="306" cy="306" r="306"/>
				</defs>
				<clipPath id="SVGID_74_">
					<use xlink:href="#SVGID_73_"  style="overflow:visible;"/>
				</clipPath>
				<g class="st58">
					<path class="st38" d="M444.7,164c0.1-2.2,0-4.5,0.1-6.7c0-0.2,0.1-0.3,0.3-0.3c1.1-0.1,1.6-0.4,1.9-1.4c0.2-0.7,0.6-1,1.3-1.2
						c1.3-0.3,2.4,0.1,3.6,0.5c1.1,0.4,2.2,0.7,3.3,0.9c2.6,0.4,5.2,0.5,7.7,0.5c1.9,0.1,3.9,0.1,5.8,0.1c0.3,0,0.3,0.1,0.2,0.3
						c-0.3,1-0.9,1.8-1.8,2.3c-0.8,0.4-1.7,0.5-2.5,0.3c-0.3-0.1-0.4,0-0.4,0.3c0,0.9-0.6,1.5-1.5,1.8c-0.6,0.2-1.3,0.2-2,0.1
						c-0.2,0-0.3,0-0.4,0.2c-0.4,1.4-1.4,2.2-2.9,2.4c-1,0.1-1.8-0.1-2.7-0.6c-0.1-0.1-0.3-0.1-0.4-0.2c-0.2-0.1-0.2-0.1-0.3,0.1
						c-0.9,1.5-2.2,2.2-3.9,2.3c-1.7,0.1-3.3-0.1-4.9-0.4c-0.6-0.1-0.6-0.2-0.6-0.8C444.7,164.3,444.7,164.2,444.7,164z"/>
					<path class="st38" d="M441.2,160.3c-0.1,1.3,0.1,2.8,0,4.3c0,0.5-0.1,0.6-0.5,0.7c-0.9,0.2-1.7,0.4-2.6,0.4
						c-0.8,0.1-1.7,0.1-2.5,0c-1.5-0.2-2.8-0.9-3.6-2.2c-0.1-0.3-0.3-0.3-0.5-0.1c-0.9,0.7-1.9,1-3,0.8c-1.4-0.2-2.3-1-2.8-2.3
						c-0.1-0.3-0.3-0.4-0.6-0.3c-0.8,0.1-1.6,0.1-2.3-0.3c-0.6-0.3-0.9-0.8-1-1.4c0-0.1,0-0.2,0-0.3c0-0.2-0.1-0.2-0.3-0.2
						c-2.1,0.4-3.6-0.4-4.4-2.4c-0.2-0.4-0.1-0.5,0.3-0.5c2.6,0,5.2,0,7.8-0.2c1.6-0.1,3.2-0.1,4.7-0.3s2.9-0.5,4.3-1.1
						c1.1-0.5,2.3-0.7,3.5-0.5c0.7,0.1,1.1,0.6,1.3,1.2c0.1,0.3,0.3,0.6,0.5,0.8c0.3,0.4,0.7,0.6,1.2,0.6s0.5,0,0.5,0.4
						C441.2,158.3,441.2,159.2,441.2,160.3z"/>
					<path class="st38" d="M449.4,166.8c1.3,0,2.6,0.1,3.8,0.6c0.8,0.3,1.6,0.8,2.1,1.5c0.7,1.1,0.8,2.4,0.3,3.6
						c-0.6,1.4-1.6,2.4-2.8,3.2c-1.9,1.3-4,2-6.2,2.4c-1.1,0.2-2.1,0.1-3.2,0.3c-1,0.1-2,0.2-2.9,0.6c-1,0.3-1.4,1.1-1.2,2.1
						c0.2,1.1,1,1.7,2,2.1c0.1,0,0.3,0.1,0.3,0.2c0,0.2-0.2,0.1-0.3,0.2c-1.3,0.5-2.5,1-3.6,1.8c-0.1,0.1-0.3,0.1-0.4,0
						c-0.9-0.5-1.7-1.1-2.3-2c-0.6-0.9-0.7-1.8-0.6-2.8c0.2-2,1.3-3.5,2.9-4.6c1.8-1.3,3.9-1.8,6-1.8c2.5,0,5-0.5,7.3-1.4
						c0.5-0.2,1-0.5,1.4-0.8c0.4-0.4,0.5-0.9,0.3-1.4c-0.1-0.2-0.2-0.3-0.4-0.3c-0.8-0.1-1.5,0.2-2.1,0.8c-0.6,0.5-1.4,0.7-2.2,0.6
						c-0.4,0-0.8-0.1-1.2-0.1c-0.9-0.2-1.2-0.8-1.2-1.6c0.2-1.7,1.6-3.1,3.3-3.1C448.9,166.8,449.1,166.8,449.4,166.8z"/>
					<path class="st38" d="M441.9,191.8c0,0.2-0.2,0.2-0.3,0.2c-0.9,0.3-1.9,0.7-2.7,1.2c-0.1,0.1-0.3,0.2-0.4,0.3
						c-0.2,0.3-0.4,0.3-0.7,0.1c-0.9-0.6-1.7-1.4-2.1-2.5c-0.5-1.3-0.2-2.5,0.7-3.6c0.9-1.2,2.2-2,3.5-2.6c1.3-0.7,2.7-1,4.1-1.5
						c0.9-0.4,1.8-0.9,2.3-1.8c0.5-0.7,0.4-1.6-0.1-2.2c-0.1-0.2-0.3-0.2-0.5-0.3c-0.1-0.1-0.2-0.1-0.2-0.2c0-0.1,0.2-0.1,0.2-0.1
						c0.7-0.1,1.4-0.2,2.1-0.3c0.8-0.1,1.6-0.4,2.4-0.8c0.2-0.1,0.4-0.1,0.5,0.1c1.1,1.6,1.3,4.4-0.4,6.1c-1.1,1-2.3,1.7-3.6,2.3
						c-1.2,0.5-2.4,0.9-3.7,1.2c-0.8,0.3-1.6,0.6-2.2,1.1c-0.9,0.7-0.9,1.7-0.1,2.5C441.1,191.5,441.5,191.7,441.9,191.8
						L441.9,191.8z"/>
					<path class="st38" d="M442.7,173.5c-0.2,0-0.4,0-0.5,0c-0.3,0.1-0.4-0.1-0.4-0.4c0-1.4,0-2.8,0-4.1c0-1.7,0-3.4,0-5.1
						c-0.1-2.8,0-5.7-0.1-8.5c0-0.3-0.1-0.4-0.3-0.5c-1.1-0.5-1.9-1.9-1.7-3.1c0.1-1.5,0.9-2.5,2.3-2.9c1.6-0.5,3.2,0.3,3.9,1.7
						c0.6,1.4,0.3,2.6-0.6,3.7c-0.2,0.2-0.4,0.4-0.6,0.5s-0.3,0.2-0.3,0.5c-0.1,0.8,0,1.6,0,2.4c0,1.3,0,2.5,0,3.8
						c0,1.9,0,3.8,0,5.8c0,1.9,0,3.8,0,5.8c0,0.3-0.1,0.4-0.4,0.4C443.4,173.4,443.1,173.4,442.7,173.5z"/>
					<path class="st38" d="M441.9,191.8c0-0.9,0-1.8,0-2.8c0-0.3,0.1-0.5,0.4-0.6c0.9-0.4,1.8-0.6,2.7-0.9c0.9-0.3,1.8-0.6,2.7-1
						c0.3-0.1,0.5-0.1,0.7,0.1c0.7,0.8,1.3,1.6,1.5,2.6c0.2,1.8-0.3,3.3-1.8,4.4c-0.6,0.4-1.2,0.7-1.9,1c-1.4,0.6-2.9,0.9-4.3,1.6
						c-0.2,0.1-0.4,0.2-0.6,0.4c-0.5,0.4-0.5,1-0.2,1.5c0.3,0.4,0.3,0.4-0.2,0.7c-0.7,0.3-1.4,0.7-1.9,1.3c-0.2,0.2-0.3,0.1-0.5,0
						c-0.9-0.8-1.3-1.7-1.2-2.9c0.1-0.9,0.5-1.8,1.1-2.5c0.5-0.6,1.1-1,1.8-1.3c1.1-0.5,2.3-0.8,3.5-1.3c0.7-0.3,1.4-0.6,1.9-1.2
						c0.3-0.4,0.3-0.9,0-1.3c-0.4-0.4-0.8-0.7-1.3-1c-0.2-0.1-0.3-0.1-0.3,0.2c0,0.7,0,1.5,0,2.2c0,0.3-0.1,0.4-0.3,0.5
						c-0.5,0.2-1,0.3-1.4,0.5C442.2,191.9,442,191.9,441.9,191.8L441.9,191.8z"/>
					<path class="st38" d="M435.9,166.7c0.6,0,1,0,1.4,0c1.4,0,2.8,1.1,3.1,2.6c0,0.2,0.1,0.4,0.1,0.6c0,0.9-0.3,1.4-1.2,1.5
						c-0.7,0.1-1.4,0.2-2.2,0.1c-0.6-0.1-1-0.4-1.4-0.8c-0.5-0.5-1.1-0.7-1.8-0.6c-0.3,0-0.5,0.2-0.5,0.5c0,0.6,0.1,1,0.6,1.4
						c0.8,0.6,1.7,0.9,2.6,1.1c0.9,0.3,1.9,0.4,2.8,0.6c0.1,0,0.2,0,0.2,0.1s-0.1,0.1-0.2,0.1c-1.7,0.4-3.1,1.2-4.3,2.5
						c-0.2,0.2-0.3,0.1-0.5,0.1c-1.5-0.7-2.9-1.5-3.9-2.9c-1.1-1.5-1.4-3.3-0.4-4.9c0.6-1,1.7-1.5,2.7-1.8
						C434.2,166.8,435.2,166.7,435.9,166.7z"/>
					<path class="st38" d="M441.9,197.6c0-0.8,0-0.7,0.7-1c1.2-0.5,2.4-0.8,3.6-1.2c0.4-0.1,0.8-0.2,1.1-0.4c0.2-0.1,0.3,0,0.4,0.1
						c0.2,0.4,0.3,0.8,0.4,1.3c0.1,0.8,0.1,1.7-0.1,2.5c-0.4,1.3-1.3,2.1-2.5,2.6c-0.6,0.3-1.2,0.4-1.9,0.6
						c-0.5,0.1-0.9,0.2-1.4,0.4s-0.7,0.4-0.7,0.9s0,0.9,0,1.4c0,0.2-0.1,0.3-0.2,0.5c-0.8,0.5-0.5,0.5-1.3,0
						c-0.5-0.4-0.9-0.9-1.3-1.5c-0.6-1-0.4-2,0.4-2.8c0.7-0.7,1.6-1.2,2.5-1.7c0.8-0.4,1.7-0.7,2.5-1.2c0.5-0.3,0.5-0.8,0.2-1.2
						c0-0.1-0.1-0.1-0.2-0.1s-0.1,0.1-0.1,0.2c0.1,0.6-0.3,0.9-0.8,1.1c-0.4,0.2-0.7,0.3-1.1,0.5c-0.3,0.1-0.3,0-0.4-0.2
						C441.9,197.9,441.9,197.8,441.9,197.6z"/>
					<path class="st38" d="M441.9,203.8c0-1-0.2-0.8,0.9-1.1s2.2-0.5,3.2-1c0.4-0.2,0.7-0.4,1-0.6c0.2-0.2,0.3-0.2,0.5,0
						c0.4,0.5,0.3,1.1,0.3,1.6c-0.1,0.9-0.7,1.6-1.5,2.1c-1.3,0.9-2.7,1.4-4.1,2c-1.1,0.5-2.2,0.9-3.3,1.4c-0.3,0.1-0.7,0.3-1,0.4
						c-0.1,0-0.3,0.1-0.4-0.1c-0.1-0.1,0-0.3,0.1-0.4c0.2-0.3,0.4-0.4,0.7-0.6c0.8-0.6,1.7-1.2,2.6-1.7c1-0.6,2-1.1,2.9-1.9
						c0.2-0.2,0.3-0.3,0.4-0.6c0-0.1,0-0.1,0-0.2c-0.1,0-0.1,0-0.2,0.1c-0.5,0.5-1,0.8-1.6,1.2c-0.3,0.2-0.4,0.1-0.4-0.2
						C441.9,204.1,441.9,204,441.9,203.8z"/>
					<path class="st38" d="M442,208.6c0-0.1,0-0.3,0-0.4c0-0.7,0-0.7,0.6-0.9c0.9-0.4,1.9-0.8,2.8-1.3c0.2-0.1,0.4-0.2,0.6,0
						c0.8,0.6,1.7,1.1,2.4,1.9c0.1,0.1,0.1,0.2,0.2,0.2c0.1,0.3,0,0.5-0.3,0.4c-0.3,0-0.5-0.1-0.8-0.1c-1-0.3-2-0.6-2.9-1.1
						c-0.3-0.1-0.4-0.1-0.4,0.2c0,1.8-0.2,3.6-0.4,5.4c0,0.4-0.3,0.6-0.7,0.7c-0.3,0-0.6-0.2-0.7-0.6
						C442.2,211.5,442,210.1,442,208.6z"/>
					<path class="st38" d="M441.9,181.2c0-0.6,0-1.1,0-1.7c0-0.2,0.1-0.4,0.3-0.4c0.5-0.1,1.1-0.1,1.6-0.2c0.2,0,0.3,0.1,0.3,0.3
						c0,1,0,2,0,3c0,0.2-0.1,0.3-0.3,0.4c-0.6,0.2-1.1,0.4-1.7,0.6c-0.3,0.1-0.3-0.1-0.3-0.3C441.9,182.4,441.9,181.8,441.9,181.2
						L441.9,181.2z"/>
				</g>
			</g>
			<g>
				<defs>
					<circle id="SVGID_75_" cx="306" cy="306" r="306"/>
				</defs>
				<clipPath id="SVGID_76_">
					<use xlink:href="#SVGID_75_"  style="overflow:visible;"/>
				</clipPath>
				<g class="st59">
					<circle class="st38" cx="489.3" cy="353" r="65.4"/>
					<circle class="st60" cx="489.3" cy="353" r="50.5"/>
					<g class="st61">
						<g class="st42">
							<path class="st38" d="M438.8,353c0,27.9,22.6,50.5,50.5,50.5c10.2,0,19.6-3,27.5-8.2C450.1,388.4,438.8,353,438.8,353z"/>
						</g>
						<g class="st42">
							<path class="st38" d="M539.7,353c0,0-11.3,35.4-78,42.3c7.9,5.2,17.4,8.2,27.5,8.2C517.1,403.4,539.7,380.8,539.7,353z"/>
						</g>
					</g>
					<g id="play_x5F_button_5_">
						<path class="st38" d="M489.5,386.8c-17.8,0-32.3-14.5-32.3-32.3s14.5-32.3,32.3-32.3s32.3,14.5,32.3,32.3
							S507.4,386.8,489.5,386.8z M489.5,330.7c-13.1,0-23.8,10.7-23.8,23.8s10.7,23.8,23.8,23.8s23.8-10.7,23.8-23.8
							S502.6,330.7,489.5,330.7z M502.6,354.9l-20.4,12c-0.3,0.2-0.6,0.1-0.6-0.3v-24.3c0-0.4,0.3-0.5,0.6-0.3l20.4,12
							C502.9,354.2,502.9,354.6,502.6,354.9z"/>
					</g>
				</g>
			</g>
			<g>
				<defs>
					
						<ellipse id="SVGID_77_" transform="matrix(0.7071 -0.7071 0.7071 0.7071 -221.4772 245.4999)" cx="185.6" cy="390.1" rx="306" ry="306"/>
				</defs>
				<clipPath id="SVGID_78_">
					<use xlink:href="#SVGID_77_"  style="overflow:visible;"/>
				</clipPath>
				
					<ellipse transform="matrix(0.7071 -0.7071 0.7071 0.7071 -247.1616 390.1068)" class="st62" cx="347.3" cy="493.4" rx="65.4" ry="65.4"/>
			</g>
			<g>
				<defs>
					<circle id="SVGID_79_" cx="306" cy="306" r="306"/>
				</defs>
				<clipPath id="SVGID_80_">
					<use xlink:href="#SVGID_79_"  style="overflow:visible;"/>
				</clipPath>
				<circle class="st63" cx="345.5" cy="493.4" r="50.5"/>
			</g>
			<g>
				<defs>
					<circle id="SVGID_81_" cx="306" cy="306" r="306"/>
				</defs>
				<clipPath id="SVGID_82_">
					<use xlink:href="#SVGID_81_"  style="overflow:visible;"/>
				</clipPath>
				<g class="st64">
					<g>
						<rect x="320.8" y="466.6" class="st38" width="9.6" height="50.6"/>
						<rect x="335.2" y="489.9" class="st38" width="9.6" height="27.3"/>
						<rect x="349.7" y="483.8" class="st38" width="9.6" height="33.3"/>
						<rect x="364.1" y="477.6" class="st38" width="9.6" height="39.6"/>
					</g>
					<path class="st38" d="M335,486c0,0,12.7-3.4,13.9-13.1l-4.9-3.5l12.4-2.8l2.4,11.8l-5.4-2.8C353.5,475.6,350,486,335,486z"/>
				</g>
			</g>
			<g>
				<defs>
					<circle id="SVGID_83_" cx="306" cy="306" r="306"/>
				</defs>
				<clipPath id="SVGID_84_">
					<use xlink:href="#SVGID_83_"  style="overflow:visible;"/>
				</clipPath>
				<g class="st65">
					<g class="st42">
						<path class="st38" d="M295,493.2c0,27.9,22.6,50.5,50.5,50.5c10.2,0,19.6-3,27.5-8.2C306.3,528.6,295,493.2,295,493.2z"/>
					</g>
					<g class="st42">
						<path class="st38" d="M395.9,493.2c0,0-11.3,35.4-78,42.3c7.9,5.2,17.4,8.2,27.5,8.2C373.3,543.7,395.9,521.1,395.9,493.2z"/>
					</g>
				</g>
			</g>
			<g>
				<defs>
					<circle id="SVGID_85_" cx="306" cy="306" r="306"/>
				</defs>
				<clipPath id="SVGID_86_">
					<use xlink:href="#SVGID_85_"  style="overflow:visible;"/>
				</clipPath>
				<g class="st66">
					<path class="st67" d="M247.6,250.3c6.1-2.1,11.9-3.5,17.8-4.6c8-1.5,16.2-2.2,24.3-1.9c14.6,0.5,28.2,4,40.1,13
						c2.3,1.7,4.4,3.6,6.4,5.8c0.7,0.7,1,0.7,1.7,0c3.8-3.8,7.6-7.6,11.5-11.4c1.2-1.2,2.8-1.2,3.8-0.2c1,1.1,0.9,2.6-0.3,3.8
						c-3.8,3.8-7.5,7.7-11.4,11.5c-0.7,0.7-0.9,1-0.2,1.9c11.8,14.3,18,30.7,17.5,49.4c-0.3,11-3.3,21.4-7.8,31.3
						c-0.1,0.1-0.2,0.2-0.4,0.4c0.6-5.2,0.6-10.2-0.1-15.2c-0.9-6.7-2.8-13.1-7.4-18.4c-3.6-4.2-8.2-6.5-13.5-7.5
						c-0.8-0.2-1.3-0.4-1.5-1.3c-4.1-17.5-14.8-28.3-32.3-32.5c-0.8-0.2-1.4-0.3-1.5-1.3c-1.4-8.5-6.3-14.4-14.1-17.9
						c-6.6-3-13.7-3.5-21-3.2c0.3,0.7,0.8,0.7,1.2,1c10.7,6.8,18.3,15.8,21,28.5c0.6,3,0.9,6,0.6,9c-0.1,1.4,0.4,1.6,1.5,1.7
						c2.9,0.4,5.9,1,8.6,2c3.3,1.3,3.4,2.1,0.7,4.5c-0.3,0.3-0.6,0.3-0.9,0.1c-4.2-2.2-8.8-2.7-13.4-3.2c-0.7-0.1-1.2-0.1-1-1.1
						c2-10.6-1.3-19.8-7.9-28c-5.5-6.7-12.6-11.4-20.3-15.3C248.9,250.9,248.4,250.7,247.6,250.3z"/>
					<path class="st67" d="M310.4,369c-2,0-4-0.1-6,0c-1,0-1.3-0.3-1.3-1.3c-0.2-6.4-0.4-12.8-0.5-19.2c0-1-0.1-1.6-1.3-1.2
						c-0.7,0.2-1,0-1-0.8c-0.4-6-0.9-12.1-1.1-18.1c-0.1-3.8,3.4-6.9,7.2-6.9c2.9,0,5.8,0,8.8,0c3.2,0,6.9,4,6.7,7.2
						c-0.4,5.8-0.9,11.6-1.3,17.5c-0.1,0.8-0.2,1.3-1.1,1.1c-1-0.2-1.1,0.4-1.1,1.2c-0.1,6.3-0.3,12.6-0.3,18.9
						c0,1.3-0.4,1.6-1.7,1.5C314.2,368.9,312.3,369,310.4,369z"/>
					<path class="st67" d="M334.3,369c-2.9,0-5.7,0-8.6,0c-0.9,0-1.1-0.2-0.9-1.1c0.9-5.3,1.8-10.6,2.7-15.9c0.2-1,0.1-1.6-1.1-1.4
						c-1.4,0.2-1.8-0.4-1.8-1.8c0.1-4.3,0.1-8.6-0.1-12.9c-0.1-3.7,3.2-7.3,7-6.9c2.3,0.2,4.7,0,7.1,0c3,0,6.3,3,6.3,6
						c0.1,4.9,0,9.7,0,14.6c0,1.1-0.6,0.9-1.3,0.9c-2-0.1-2-0.1-1.7,1.9c0.7,5.2,1.4,10.3,2.2,15.5c0.1,0.9-0.1,1.1-0.9,1.1
						C340.3,368.9,337.3,368.9,334.3,369C334.3,368.9,334.3,369,334.3,369z"/>
					<path class="st67" d="M264.2,367.8c-5.7,0-10-1.5-12.3-6.3c-2.7-5.4-2.2-11,2.2-15.4c18.9-18.9,37.9-37.8,56.8-56.8
						c1-1,2.1-1.1,3.4-0.8c1,0.2,1.3,1,1.6,1.9c0.3,1.1-0.4,1.7-1.1,2.4c-11.7,11.7-23.3,23.4-35,35.1c-7.3,7.3-14.6,14.6-21.8,21.9
						c-3,3-3.2,7.9-0.6,10.7c3.1,3.2,8.4,3.3,11.5,0.3c1.1-1.1,2.3-1.2,3.3-0.3c1,0.9,1.2,2.7,0.2,3.7
						C270,366.6,267.1,367.9,264.2,367.8z"/>
					<path class="st67" d="M283.2,363.5c0-1.3,0-2.6,0-3.8c0-0.8,0.3-1.9-1.2-1.6c-0.5,0.1-0.5-0.4-0.5-0.8c-0.4-4-0.9-7.9-1.2-11.9
						c-0.2-2.8,2.6-5.5,5.5-5.5c2.1,0,4.2,0,6.3,0c3,0,5.8,3,5.5,5.9c-0.4,4-1,7.9-1.5,11.9c0,0.4-0.1,0.9-0.5,0.8
						c-1.4-0.3-1,0.7-1.1,1.4c-0.2,2.8-0.4,5.5-0.5,8.3c0,0.8-0.3,0.9-1,0.9c-2.9,0-5.8-0.1-8.8,0c-0.9,0-1-0.3-1-1.1
						C283.2,366.5,283.1,365,283.2,363.5C283.1,363.5,283.2,363.5,283.2,363.5z"/>
					<path class="st67" d="M310.4,318.6c-3.4,0-6.1-2.6-6.1-6s2.7-6,6-6.1c3.4,0,6.1,2.7,6.1,6C316.4,315.9,313.8,318.6,310.4,318.6
						z"/>
					<path class="st67" d="M334.8,315.4c3,0,5.3,2.4,5.4,5.4c0,3-2.4,5.5-5.5,5.4c-3,0-5.4-2.4-5.4-5.5
						C329.3,317.8,331.8,315.4,334.8,315.4z"/>
					<path class="st67" d="M288.9,337.6c-2.5,0-4.6-2-4.6-4.6s2-4.7,4.6-4.7s4.7,2.1,4.6,4.7C293.5,335.6,291.4,337.6,288.9,337.6z"
						/>
				</g>
			</g>
		</g>
	</g>
</g>
</svg>
