<?xml version="1.0" encoding="utf-8"?>
<!-- Generator: Adobe Illustrator 19.2.1, SVG Export Plug-In . SVG Version: 6.00 Build 0)  -->
<svg version="1.1" id="Layer_1" xmlns="http://www.w3.org/2000/svg" xmlns:xlink="http://www.w3.org/1999/xlink" x="0px" y="0px"
	 viewBox="0 0 612 612" style="enable-background:new 0 0 612 612;" xml:space="preserve">
<style type="text/css">
	.st0{fill:#CEBF9F;}
	.st1{fill:#CBCBCB;}
	.st2{fill:#F2F2F2;}
	.st3{fill:#010101;}
	.st4{fill:#02455D;}
	.st5{fill:#EE2D2F;}
	.st6{fill:#FAED22;}
	.st7{fill:#8CC541;}
	.st8{fill:#818181;}
	.st9{fill:#F58759;}
	.st10{fill:#A0D3A3;}
	.st11{fill:#FACD5F;}
	.st12{fill:#4E4E4E;}
	.st13{fill:#076686;}
	.st14{fill:none;}
	.st15{fill:#027DAA;}
	.st16{fill:#017EAC;}
	.st17{fill:#04658D;}
	.st18{fill:#8FA1BA;}
	.st19{fill:#066791;}
	.st20{fill:#FFFFFF;}
	.st21{fill:none;stroke:#A8AAAD;stroke-width:3.2196;}
	.st22{fill:none;stroke:#A8AAAD;stroke-width:2.1464;}
	.st23{fill:#F0D59A;}
	.st24{fill:#ED4538;}
	.st25{fill:#D9B77D;}
	.st26{fill:#91A13A;}
	.st27{fill:#9AAF3B;}
	.st28{fill:#EF8987;}
	.st29{opacity:0.5;}
	.st30{fill:#9F9888;}
	.st31{fill:#6C6B69;}
	.st32{fill:#A8BB5A;}
	.st33{fill:#879C57;}
	.st34{clip-path:url(#SVGID_2_);fill:none;stroke:#6B7F45;stroke-miterlimit:10;}
	.st35{fill:#F0F0D8;}
	.st36{fill:none;stroke:#C4C5B4;stroke-width:0.5;stroke-miterlimit:10;}
	.st37{fill:#F7F8F9;}
	.st38{fill:#63C6C1;}
	.st39{fill:#F280A1;}
	.st40{fill:#ACDEE3;}
	.st41{fill:#EC6A89;}
	.st42{fill:#8BD0CF;}
	.st43{fill:#53B1AB;}
	.st44{fill:#503A3D;}
	.st45{fill:#AA856B;}
	.st46{fill:#C2A080;}
	.st47{fill:#5A5B5A;}
	.st48{fill:#7F7E7C;}
	.st49{fill:none;stroke:#846A56;stroke-width:2;stroke-miterlimit:10;}
	.st50{fill:none;stroke:#846A56;stroke-width:2;stroke-miterlimit:10;stroke-dasharray:12.1989,3.0497;}
	.st51{fill:none;stroke:#846A56;stroke-width:2;stroke-miterlimit:10;stroke-dasharray:12.9281,3.232;}
	.st52{fill:none;stroke:#846A56;stroke-width:2;stroke-miterlimit:10;stroke-dasharray:11.7613,2.9403;}
	.st53{fill:none;stroke:#846A56;stroke-width:2;stroke-miterlimit:10;stroke-dasharray:11.4482,2.862;}
</style>
<g>
	<circle class="st0" cx="306" cy="306" r="306"/>
	<g>
		<g>
			<g>
				<rect x="252.7" y="549" class="st1" width="106.7" height="35.2"/>
				<rect x="239" y="575.9" class="st2" width="134" height="8.3"/>
				<path class="st2" d="M444.8,547c0,4.6-3.7,8.3-8.3,8.3h-261c-4.6,0-8.3-3.7-8.3-8.3V361.1c0-4.6,3.7-8.3,8.3-8.3h261
					c4.6,0,8.3,3.7,8.3,8.3V547z"/>
				<path class="st3" d="M444.8,529V361.1c0-4.6-3.7-8.3-8.3-8.3h-261c-4.6,0-8.3,3.7-8.3,8.3V529H444.8z"/>
				<rect x="179" y="364.6" class="st4" width="254" height="157.4"/>
				<rect x="179" y="364.6" class="st1" width="254" height="13.1"/>
				<rect x="211.5" y="368.2" class="st2" width="189" height="6.1"/>
				<circle class="st5" cx="184.6" cy="371.2" r="3"/>
				<circle class="st6" cx="193.3" cy="371.2" r="3"/>
				<circle class="st7" cx="202" cy="371.2" r="3"/>
				<rect x="403.6" y="368.2" class="st8" width="14.2" height="0.8"/>
				<rect x="403.6" y="369.9" class="st8" width="14.2" height="0.8"/>
				<rect x="403.6" y="371.7" class="st8" width="14.2" height="0.8"/>
				<rect x="403.6" y="373.4" class="st8" width="14.2" height="0.8"/>
				<rect x="421" y="368.2" class="st8" width="7.9" height="6.1"/>
				<ellipse class="st3" cx="306" cy="543.3" rx="6.5" ry="6.5"/>
			</g>
			<rect x="202.1" y="377.7" class="st2" width="207.7" height="144.3"/>
			<g>
				<g>
					<rect x="344.5" y="392.2" class="st9" width="56.2" height="33.5"/>
					<rect x="211.3" y="392.2" class="st10" width="122.8" height="33.5"/>
				</g>
				<g>
					<rect x="211.3" y="463.6" class="st11" width="189.2" height="33.5"/>
				</g>
				<g>
					<rect x="344.5" y="429.9" class="st12" width="56.2" height="1.6"/>
					<rect x="344.5" y="434.2" class="st12" width="56.2" height="1.6"/>
					<rect x="344.5" y="438.4" class="st12" width="56.2" height="1.6"/>
					<rect x="344.5" y="442.6" class="st12" width="56.2" height="1.6"/>
					<rect x="344.5" y="446.8" class="st12" width="56.2" height="1.6"/>
					<rect x="344.5" y="451" class="st12" width="56.2" height="1.6"/>
					<rect x="344.5" y="455.2" class="st12" width="56.2" height="1.6"/>
				</g>
				<g>
					<rect x="211.3" y="429.9" class="st12" width="122.8" height="1.6"/>
					<rect x="211.3" y="434.2" class="st12" width="122.8" height="1.6"/>
					<rect x="211.3" y="438.4" class="st12" width="122.8" height="1.6"/>
					<rect x="211.3" y="442.6" class="st12" width="122.8" height="1.6"/>
					<rect x="211.3" y="446.8" class="st12" width="122.8" height="1.6"/>
					<rect x="211.3" y="451" class="st12" width="122.8" height="1.6"/>
					<rect x="211.3" y="455.2" class="st12" width="122.8" height="1.6"/>
				</g>
				<g>
					<rect x="211.3" y="501.9" class="st12" width="189.2" height="1.6"/>
					<rect x="211.3" y="506.1" class="st12" width="189.2" height="1.6"/>
					<rect x="211.3" y="510.3" class="st12" width="189.2" height="1.6"/>
				</g>
			</g>
		</g>
		<g>
			<g>
				<path class="st13" d="M223.3,423.1l-2.3,5.9l4.6,3.3c-0.2,1.5-0.1,2.9,0.1,4.4l-4.5,3.4l2.5,5.8l5.6-1c0.9,1.1,1.9,2.1,3.1,3
					l-0.8,5.6l5.9,2.3l3.3-4.6c1.5,0.2,2.9,0.1,4.4-0.1l3.4,4.5l5.8-2.5l-1-5.6c1.1-0.9,2.1-1.9,3-3.1l5.6,0.8l2.3-5.9l-4.6-3.3
					c0.2-1.5,0.1-2.9-0.1-4.4l4.5-3.4l-2.5-5.8l-5.6,1c-0.9-1.1-1.9-2.1-3.1-3l0.8-5.6l-5.9-2.3l-3.3,4.6c-1.5-0.2-2.9-0.1-4.4,0.1
					l-3.4-4.5l-5.8,2.5l1,5.6c-1.1,0.9-2.1,1.9-3,3.1L223.3,423.1z M244.9,428.3c3.2,1.3,4.8,4.9,3.5,8.1c-1.3,3.2-4.9,4.8-8.1,3.5
					c-3.2-1.3-4.8-4.9-3.5-8.1C238.1,428.6,241.7,427.1,244.9,428.3z"/>
				<g>
					
						<ellipse transform="matrix(0.3679 -0.9299 0.9299 0.3679 -250.2966 500.0143)" class="st14" cx="242.6" cy="434.1" rx="5.1" ry="5.1"/>
					<path class="st15" d="M240.1,440.5c3.5,1.4,7.6-0.3,9-3.9c1.4-3.5-0.3-7.6-3.9-9c-3.5-1.4-7.6,0.3-9,3.9
						C234.8,435.1,236.6,439.1,240.1,440.5z M244.5,429.3c2.6,1,3.9,4,2.9,6.7c-1,2.6-4,3.9-6.7,2.9c-2.6-1-3.9-4-2.9-6.7
						C238.9,429.6,241.9,428.3,244.5,429.3z"/>
					<path class="st16" d="M238.4,444.7c5.9,2.3,12.5-0.6,14.8-6.4c2.3-5.9-0.6-12.5-6.4-14.8c-5.9-2.3-12.5,0.6-14.8,6.4
						C229.7,435.8,232.6,442.4,238.4,444.7z M246,425.7c4.6,1.8,6.9,7.1,5.1,11.7c-1.8,4.6-7.1,6.9-11.7,5.1
						c-4.6-1.8-6.9-7.1-5.1-11.7C236.1,426.1,241.3,423.9,246,425.7z"/>
					<path class="st17" d="M239.3,442.5c4.6,1.8,9.9-0.4,11.7-5.1c1.8-4.6-0.4-9.9-5.1-11.7c-4.6-1.8-9.9,0.4-11.7,5.1
						C232.4,435.4,234.7,440.7,239.3,442.5z M245.2,427.7c3.5,1.4,5.3,5.4,3.9,9c-1.4,3.5-5.4,5.3-9,3.9c-3.5-1.4-5.3-5.4-3.9-9
						C237.6,428,241.6,426.3,245.2,427.7z"/>
				</g>
			</g>
			<g>
				<path class="st16" d="M274.8,422.1l-10.5,10.5l4,6.7c-1.5,2.6-2.6,5.3-3.3,8.1l-7.5,1.9V464l7.5,1.9c0.8,2.8,1.9,5.5,3.3,8.1
					l-4,6.7l10.5,10.5l6.7-4c2.6,1.5,5.3,2.6,8.1,3.3l1.9,7.5h14.8l1.9-7.5c2.8-0.8,5.5-1.9,8.1-3.3l6.7,4l10.5-10.5l-4-6.7
					c1.5-2.6,2.6-5.3,3.3-8.1l7.5-1.9v-14.8l-7.5-1.9c-0.8-2.8-1.9-5.5-3.3-8.1l4-6.7L323,422.1l-6.7,4c-2.6-1.5-5.3-2.6-8.1-3.3
					l-1.9-7.5h-14.8l-1.9,7.5c-2.8,0.8-5.5,1.9-8.1,3.3L274.8,422.1z M305.6,449.9c3.7,3.7,3.7,9.7,0,13.4c-3.7,3.7-9.7,3.7-13.4,0
					c-3.7-3.7-3.7-9.7,0-13.4C295.9,446.2,301.9,446.2,305.6,449.9z"/>
				<g>
					<path class="st18" d="M311.4,444.1c6.9,6.9,6.9,18.1,0,25c-6.9,6.9-18.1,6.9-25,0c-6.9-6.9-6.9-18.1,0-25
						C293.3,437.2,304.5,437.2,311.4,444.1z M290.8,464.7c4.5,4.5,11.7,4.5,16.2,0c4.5-4.5,4.5-11.7,0-16.2
						c-4.5-4.5-11.7-4.5-16.2,0C286.4,453,286.4,460.2,290.8,464.7z"/>
				</g>
				<g>
					<path class="st17" d="M306,449.5c3.9,3.9,3.9,10.2,0,14.1c-3.9,3.9-10.2,3.9-14.1,0c-3.9-3.9-3.9-10.2,0-14.1
						C295.7,445.6,302.1,445.6,306,449.5z M292.6,462.9c3.5,3.5,9.2,3.5,12.7,0c3.5-3.5,3.5-9.2,0-12.7c-3.5-3.5-9.2-3.5-12.7,0
						C289.1,453.8,289.1,459.4,292.6,462.9z"/>
				</g>
				<g>
					<path class="st19" d="M313.9,441.6c8.3,8.3,8.3,21.7,0,30c-8.3,8.3-21.7,8.3-30,0c-8.3-8.3-8.3-21.7,0-30
						C292.2,433.3,305.6,433.3,313.9,441.6z M285.4,470.1c7.5,7.5,19.6,7.5,27,0c7.5-7.5,7.5-19.6,0-27c-7.5-7.5-19.6-7.5-27,0
						C277.9,450.5,277.9,462.7,285.4,470.1z"/>
				</g>
			</g>
		</g>
	</g>
	<g>
		<g>
			<g>
				
					<ellipse transform="matrix(0.1609 -0.987 0.987 0.1609 157.6388 752.6309)" class="st20" cx="521.4" cy="283.6" rx="66" ry="66"/>
				<path class="st21" d="M521.5,338.9c-3,0-6-0.2-9-0.7c-30.1-4.9-50.6-33.4-45.7-63.4c4.4-26.9,27.3-46.4,54.5-46.4
					c3,0,6,0.2,9,0.7c14.6,2.4,27.3,10.3,36,22.3c8.6,12,12.1,26.6,9.7,41.2C571.6,319.4,548.7,338.9,521.5,338.9z"/>
				<path class="st22" d="M521.5,333.5c-2.7,0-5.4-0.2-8.1-0.7c-27.2-4.4-45.6-30.1-41.2-57.3c4-24.3,24.6-41.9,49.2-41.9
					c2.7,0,5.4,0.2,8.1,0.7c13.2,2.1,24.7,9.3,32.5,20.1s10.9,24,8.7,37.2C566.7,315.9,546.1,333.5,521.5,333.5z"/>
			</g>
			<g>
				<g>
					<g>
						<g>
							<path class="st23" d="M523.8,326c14.9-4.3,47.2-28.9,26.2-44.5c-12.3-9.2-28.6-2-42.4-4.9c-2.6-0.5-6.2-1.3-7.6-3.7
								c-1.6-2.7,0.1-6.2,2.1-8.3c4.1-4.1,10.9-5.3,16.4-5.8c11.3-0.9,24.1,1.5,29.7,12.6c3.4,6.7-0.9,11-7.6,12.3
								c-9.8,1.9-19.4-2.5-29.2-1.4c-12.8,1.5-20,12-16,24.3c3.5,10.8,12,16.5,22.9,17.5c9.3,0.9,23.9,0.8,30.4-7.3
								c2.6-3.2,4.3-8.6,1-11.9c-3.3-3.4-9.4-3-13.7-2.6c-9,0.9-17.3,4.3-26,6.6c-8.8,2.3-16.1,2.5-21.6-5.8
								c-4.4-6.6-4.8-14.9-0.6-21.7c2.9-4.7,7.1-7,12.6-5.9c10.6,2,19.8,10.7,28.5,16.5c8.2,5.5,17.9,10.7,27.3,4.2
								c11.9-8.3,3.3-22.3-7.7-26.1c-12.6-4.3-26.9,2.8-34.9,12.5c-4.2,5.1-6.9,11.3-11.4,16.2c-4.6,5-13.7,8.5-18.6,1.5
								c-3.5-5.1,0.4-12.8,2.9-17.4c3.4-6.2,8-11.9,13.9-15.8c11.8-7.7,26.8-7.3,39.2-1.3c6.1,2.9,11.6,7.2,16.1,12.2
								c5,5.6,10.8,14.1,9.1,22c-2.5,11.6-17.4,15.3-27.4,17.2c-8.7,1.6-17.7,2.9-26.5,2.5c-3.4-0.1-8.3-0.3-11.1-2.7
								c-3.2-2.8-0.8-7.7,1.4-10.4c8.3-10.1,26.4-1.8,37.3-3.9c12.5-2.5,22.5-14.6,22.2-27.4c-0.2-11.3-9.4-24.3-21.8-19.1
								c-12.1,5.1-17.1,18.1-19.7,29.9c-1.6,7.6-3,16.9-9.7,21.8c-4.2,3.1-9.9,4.1-15,3.6c-4.8-0.4-10.8-2.4-12-7.7
								c-1.6-6.8,4.2-13.5,9.8-16.4c6.3-3.2,14-3.8,20.9-2.4c7.5,1.5,13,6.1,19.1,10.3c7.6,5.2,21,9.7,27.9,0.7
								c4.6-6.1,2.1-14.8-2-20.4c-4.7-6.5-12.7-10.4-20.7-7.9c-9.6,2.9-14,11.6-17.4,20.2c-3,7.6-6.3,22.3-15.9,24.3
								c-6,1.2-12.8-3.2-16.8-7.1c-4.7-4.6-7.2-10.8-7.1-17.3c0.1-12.4,8.1-24.3,18.6-30.6c6.7-4,15-5.9,22.7-4.4
								c6.8,1.3,13,5,19.5,7.4c4.2,1.6,10.6,3.7,14.6,0.5c3.5-2.8,2.4-7.2-0.4-9.9c-3.6-3.5-9.3-5.7-14.3-6
								c-7-0.5-12.1,3.5-17.2,7.6c-5.5,4.4-11.9,7.4-18.5,9.7c-6,2-13.5,4.2-19.7,1.9c0.4,0.7,0.8,1.4,1.2,2.1
								c8.8-21.4,36.2-8.2,48.2,2.6c7,6.4,14.4,15.9,10.1,25.8c-2.9,6.8-10,11.7-17.3,12c-4.5,0.2-10.8-0.6-13.3-5
								c-5.3-9.4,7.7-19.1,15.2-21.2c2.2-0.6,1.2-4-0.9-3.4c-9.3,2.6-20.2,11.5-18.6,22.4c1.9,12.6,19.9,12.5,28.4,7.4
								c6-3.5,10.7-9.8,11.4-16.8c0.6-5.9-2.1-11.5-5.6-16.2c-7.2-9.8-18.4-17.5-30.1-21c-12.7-3.8-25.3-0.6-30.7,12.4
								c-0.4,0.9,0.4,1.8,1.2,2.1c11.2,4.2,27.1-2.9,36.5-8.9c6.7-4.3,11.8-11.1,20.5-10.3c3.1,0.3,6.1,1.4,8.8,3
								c1.4,0.8,3.3,1.9,4,3.5c1.5,3.3-1.7,4.6-4.5,4.5c-6.8-0.4-13.6-4.6-19.7-7.1c-7.2-2.9-14.3-3.8-22-2.1
								c-11.2,2.4-20.8,10.4-26.3,20.3c-5.3,9.5-7,21.4-1.6,31.2c4.5,8.1,15.8,16.7,25.6,14.1c9-2.4,12.9-13.2,16.1-20.8
								c3.7-9,7.2-21,18.4-23.1c9.1-1.7,17.4,7.1,18.2,15.7c0.4,3.9-1.2,7.5-5,9c-7.2,3-14.5-1.1-20.2-5.2
								c-5.8-4.1-11.3-8.3-18.4-9.9c-6.1-1.3-12.7-1.3-18.8,0.4c-9.9,2.7-21,12.6-17.8,24c2.7,9.7,15.1,11.7,23.5,10.2
								c13.5-2.3,18.6-13.3,21.4-25.6c1.7-7.3,3-14.3,7.4-20.5c3.6-5,10.9-12.6,17.8-9.1c7.5,3.9,9.1,15,6.6,22.2
								c-2.5,7.4-8.9,13.5-16.5,15.4c-12.2,3-26.5-5-37.7,2.8c-5.7,3.9-10.5,14-4.1,19.4c6.2,5.2,17.1,4.1,24.5,3.5
								c7.3-0.6,14.7-1.8,21.8-3.4c11.3-2.6,25.7-9.4,26-22.8c0.3-12.7-11.3-25.2-21.1-31.8c-10.5-7.1-23.7-10.5-36.3-7.9
								c-12.7,2.6-22.3,11.3-28.7,22.3c-5.2,8.9-9.3,22.2,2.7,27.5c13.3,5.8,22-6.6,28.2-16.3c7.8-12.1,26.2-24.9,39.7-12.9
								c8.2,7.3,1.4,17.1-8.3,16.7c-4.7-0.2-9-3-12.9-5.4c-13.8-8.8-39.3-31.9-49.9-6.7c-4.6,11,0.8,26.3,12.3,30.7
								c7.1,2.7,15.3-0.5,22.1-2.6c7.9-2.5,16.3-5.7,24.7-5c4,0.3,7.1,1.8,5,6.4c-1.4,3-3.9,4.6-6.9,5.7c-6.1,2.3-13,2.6-19.4,2.2
								c-5.9-0.4-11.3-1.5-15.6-5.8c-4.5-4.6-7.6-11.8-6.1-18.2c2.5-10.7,15.6-10.5,24.2-9.3c7.8,1.1,16,2.6,23.5-0.7
								c10.4-4.5,8.4-15.5,2-22.8c-7.8-8.9-19.2-11.2-30.6-10.4c-10.2,0.7-23.1,4.4-24.9,16.1c-2.3,14.6,17.8,16.7,27.9,16.6
								c7.3,0,16.6-1.6,23.2,2.4c4.8,2.9,5.5,7.7,3.4,12.6c-4.1,9.7-14.5,18.7-24.6,22C520.9,323.4,521.8,326.6,523.8,326L523.8,326
								z"/>
						</g>
					</g>
					
						<ellipse transform="matrix(0.9529 -0.3032 0.3032 0.9529 -58.3853 174.1502)" class="st24" cx="531.6" cy="275.1" rx="4.9" ry="4.9"/>
					<g>
						<g>
							<path class="st25" d="M528.6,316.9c12.6-1.6,25.1-14.6,27.8-26.8c1.2-5.5,0.5-12.1-5.7-14c-7.8-2.3-14.4,3.3-21.1,6
								c-4.7,1.9-9.9,1.9-14.9,1.7c-4.1-0.2-9.1,0-12.8-2.1c-5.9-3.4-3-9,0.9-12.5c4-3.6,9.2-6,14.7-6.3c8.5-0.4,20.7,4.1,21.4,13.7
								c0.6,9.4-2.9,16.3-12.1,19.6c-10.9,3.8-26.9,3.4-32.5,15.7c-2.4,5.2-1,11.4,4.9,13.3c5.7,1.9,12.2-0.7,17.4-2.9
								c13-5.7,26.3-13.8,34.4-25.7c2.8-4.2,5.8-10.2,1.8-14.6c-2.8-3.1-7.5-3.3-11.4-2.9c-10,1.2-18.8,6.5-28.1,9.7
								c-4.4,1.5-30.9,8.8-27.5-2.9c2.4-8.6,19.3-4,24.5-2.6c6.2,1.6,12.2,3.5,18.6,4.1c11,1.1,24.8-1.9,26.5-15
								c0.8-6.1-3.1-10.9-8.7-12.8c-7.7-2.6-15.6,0.9-21.7,5.5c-11.4,8.5-20,27.2-35.9,27.8c-4.6,0.2-10.4-3-7-8.3
								c2.5-3.9,6.5-7.1,10.6-9.2c8.6-4.3,18.5-4.7,27.7-2.1c8.5,2.4,18.3,7,24.7,13.3c7.5,7.4,2.9,16.3-5,21
								c-7.8,4.6-18.1,8-27,5.4c-6.2-1.8-26.7-7.4-17.2-17.3c3.3-3.5,8.6-5.1,12.9-6.9c4-1.6,7.8-3.5,11.6-5.4
								c7.8-3.9,15.6-7.6,24.3-8.8c4.5-0.6,10.5-1.8,11.3-7.2c0.8-5-3.3-8.4-7.8-9.3c-5.1-1-11,0.1-15.7,2.2
								c-7.9,3.6-12.4,10.7-18.7,16.3c-3.1,2.7-6.7,4.9-9.7,7.8c-3.4,3.3-5.7,7.4-9.6,10.2c-3.2,2.3-0.1,7.7,3.2,5.4
								c3.3-2.4,5.7-5.2,8.2-8.3c3.2-3.8,7.2-6.5,11-9.7c7-5.8,11.7-14.3,20.9-17.1c2.4-0.7,5-1.2,7.6-1.1c2.9,0.1,7.3,2.4,2.6,4.1
								c-2.5,0.9-5.3,0.8-7.9,1.2c-4.2,0.7-8.3,2.3-12.3,4c-8.8,3.7-17.3,8.2-26,12c-6.7,2.9-15,7.8-14.5,16.3
								c0.5,7,8.1,11.8,14,14.1c8.2,3.3,16.8,5.7,25.5,3.5c12.1-3.1,31.5-12,27.1-27.8c-1.8-6.5-7.7-10.8-13.1-14.1
								c-8-5-16.9-9.2-26.4-10.6c-8-1.1-16.4,0.1-23.8,3.6c-6.2,2.9-14.7,9.2-15.7,16.5c-0.9,6.4,4.8,11.4,10.6,12.5
								c6.5,1.1,13.3-1.2,18.7-4.8c6.7-4.4,11.4-10.7,16.7-16.5c5.5-6,15.3-15.8,24.4-12.2c9.3,3.7,1.7,13.5-4.8,15
								c-6.2,1.4-12.9,0.1-18.9-1.4c-11.3-2.7-34.1-11.6-41.4,3.1c-2.4,4.8-0.6,10.9,3.7,14c4.4,3.2,10.3,3.3,15.5,2.7
								c10.1-1.2,18.7-5.2,27.9-9.1c5.3-2.3,11-4.7,16.8-5.2c1.8-0.2,4.5-0.4,5.6,1.3c2.3,3.3-2.9,9.1-4.8,11.6
								c-5.6,7.1-13.5,11.9-21.3,16.3c-5.8,3.2-12.9,7.4-19.8,7.3c-6.4-0.1-5.8-6.3-2.3-10c2.7-2.8,6.5-4.2,10.2-5.3
								c6.5-1.9,13.5-2.6,19.7-5.4c6.1-2.7,11.2-7.5,12.7-14.2c1.5-6.7,1.7-15.5-3.5-20.7c-11.3-11.4-31-10.8-42.3,0
								c-5.3,5-8.1,12.7-2.6,18.8c4.9,5.3,12.8,5.4,19.5,5.7c4.5,0.2,9.1,0.2,13.5-0.9c4.7-1.1,8.4-4,12.8-5.8
								c3.8-1.6,10.2-3.1,10.9,2.6c0.5,4.4-1.3,9.2-3.4,13c-4.2,7.4-11.5,14.7-20.2,16.3C527.3,315.2,527.5,317.1,528.6,316.9
								L528.6,316.9z"/>
						</g>
					</g>
				</g>
				<g>
					<g>
						<g>
							<path class="st26" d="M512.1,280.9c0.1,0.1,0.2,0.1,0.3,0.2c1.2-2.7,2.7-5.7,3.1-8.6c0.9-6.3-1.5-10-3.9-15
								c0.1,0.9,0.2,1.8,0.2,2.8C512.1,266.1,510.7,274.4,512.1,280.9z"/>
							<path class="st27" d="M512.1,280.9c-1.4-6.5,0-14.8-0.3-20.7c-0.1-0.9-0.1-1.8-0.2-2.8c-0.1-0.3-0.3-0.6-0.4-0.9
								C505.7,262.7,504.6,275.5,512.1,280.9z"/>
						</g>
						<g>
							<path class="st26" d="M513.6,319.9c0,0.1,0,0.2,0.1,0.2c2-1,4.3-2,5.9-3.6c3.5-3.3,3.9-6.6,4.8-10.6
								c-0.4,0.6-0.8,1.2-1.2,1.7C520.6,311.3,515.9,315.4,513.6,319.9z"/>
							<path class="st27" d="M513.6,319.9c2.3-4.5,7-8.6,9.7-12.2c0.4-0.6,0.8-1.1,1.2-1.7c0.1-0.2,0.1-0.5,0.2-0.7
								C518.5,306.2,511.8,313.2,513.6,319.9z"/>
						</g>
						<g>
							<path class="st26" d="M546.1,295.6c-0.1,0-0.2,0-0.2,0c0.1,2.2,0.2,4.7,1,6.9c1.6,4.5,4.5,6.1,7.9,8.6
								c-0.4-0.6-0.8-1.2-1.1-1.7C551.3,305.4,549.3,299.4,546.1,295.6z"/>
							<path class="st27" d="M546.1,295.6c3.2,3.8,5.2,9.8,7.5,13.7c0.4,0.6,0.7,1.2,1.1,1.7c0.2,0.1,0.4,0.3,0.6,0.5
								C556.7,305.4,553,296.5,546.1,295.6z"/>
						</g>
						<g>
							<path class="st26" d="M481.3,280.1c-0.1,0-0.1,0.1-0.2,0.1c1.5,1.6,3.2,3.5,5.1,4.7c4.1,2.4,7.4,1.8,11.5,1.6
								c-0.7-0.2-1.3-0.4-2-0.6C491.6,284.4,486.2,281,481.3,280.1z"/>
							<path class="st27" d="M481.3,280.1c4.9,0.9,10.3,4.3,14.5,5.7c0.7,0.2,1.3,0.4,2,0.6c0.2,0,0.5,0,0.8,0
								C495.8,280.9,487.2,276.4,481.3,280.1z"/>
						</g>
						<g>
							<path class="st26" d="M534.4,276.2c-0.1,0-0.1,0.1-0.2,0.1c1.5,1.6,3.1,3.6,5.1,4.7c4.1,2.5,7.4,1.9,11.5,1.7
								c-0.7-0.2-1.3-0.4-2-0.7C544.6,280.6,539.3,277.1,534.4,276.2z"/>
							<path class="st27" d="M534.4,276.2c4.9,1,10.2,4.4,14.4,5.9c0.7,0.2,1.3,0.4,2,0.7c0.2,0,0.5,0,0.8,0
								C548.9,277.1,540.4,272.6,534.4,276.2z"/>
						</g>
					</g>
					<g>
						<path class="st24" d="M494.3,297.4c-0.6-2,0.5-4,2.4-4.7c2-0.6,4,0.5,4.7,2.4s-0.5,4-2.4,4.7C497,300.5,495,299.4,494.3,297.4
							z M519.8,292.9c2-0.6,3-2.7,2.4-4.7s-2.7-3-4.7-2.4c-2,0.6-3,2.7-2.4,4.7S517.9,293.5,519.8,292.9z M524.1,260.6
							C524,260.1,524,260.1,524.1,260.6c-0.1,0.2-0.1,0.3-0.1,0.5c0.1-0.5,0.1-0.5-0.1,0c0.3-0.4,0.2-0.4-0.1,0
							c0.5-0.6-0.1,0-0.4,0.2c0.5-0.1,0.5-0.1,0,0c-0.1,0-0.3-0.1-0.4-0.1c0.5,0.1,0.5,0.1,0-0.1c0.4,0.3,0.4,0.2,0-0.1
							c0.6,0.5,0-0.1-0.2-0.4c0.1,0.5,0.1,0.5,0,0c0-0.1,0.1-0.3,0.1-0.4c-0.1,0.5-0.1,0.5,0.1,0c-0.3,0.4-0.2,0.4,0.1,0
							c-0.5,0.6,0.1,0,0.4-0.2c-0.5,0.1-0.5,0.1,0,0c0.1,0,0.3,0.1,0.4,0.1c-0.5-0.1-0.5-0.1,0,0.1c-0.4-0.3-0.4-0.2,0,0.1
							C523.3,259.7,524,260.3,524.1,260.6c-0.8-2.2-2.9-3.7-5.3-3c-2.1,0.6-3.9,3.1-3,5.3c1.6,4.2,5.5,6.6,10,5.4
							c4.3-1.1,6.5-5.9,5.4-10c-1.1-4.3-5.9-6.5-10-5.4c-4.3,1.1-6.5,5.9-5.4,10c0.6,2.3,3.1,3.6,5.3,3
							C523.4,265.3,524.7,262.9,524.1,260.6z M537,301.9c2-0.6,3-2.7,2.4-4.7c-0.6-2-2.7-3-4.7-2.4s-3,2.7-2.4,4.7
							S535,302.6,537,301.9z"/>
						<g>
							<g>
								<path class="st28" d="M520.2,259.1c1.5,0,2.9-1.3,2.9-2.9c-0.1-1.5-1.3-2.9-2.9-2.9c-1.5,0-2.9,1.3-2.9,2.9
									C517.4,257.8,518.6,259.1,520.2,259.1L520.2,259.1z"/>
								<path class="st28" d="M517.8,290.8c3.7,0,3.7-5.7,0-5.7C514.1,285.1,514.1,290.8,517.8,290.8L517.8,290.8z"/>
								<path class="st28" d="M534.9,300.3c1.4,0,2.8-1.3,2.8-2.8c-0.1-1.5-1.2-2.8-2.8-2.8c-1.4,0-2.8,1.3-2.8,2.8
									C532.2,299.1,533.4,300.3,534.9,300.3L534.9,300.3z"/>
								<path class="st28" d="M496.7,295.8c1.2,0,1.2-1.9,0-1.9C495.5,293.9,495.5,295.8,496.7,295.8L496.7,295.8z"/>
								<path class="st28" d="M497.2,298.2c1.5,0,2.8-1.3,2.8-2.8c-0.1-1.5-1.2-2.8-2.8-2.8c-1.5,0-2.8,1.3-2.8,2.8
									C494.5,296.9,495.6,298.2,497.2,298.2L497.2,298.2z"/>
							</g>
						</g>
					</g>
				</g>
			</g>
		</g>
		<g>
			<g class="st29">
				<path class="st30" d="M483.3,274.4c0.9-8.5-5.2-16.1-8.7-16.5c-3.6-0.4-11.1,5.7-12.1,14.2c-0.8,7.7,2.3,14.5,7.1,16.1
					l-8.6,54.7c0,0.1,0,0.2,0,0.4c-0.1,2.3,1.6,4.2,3.8,4.4c2.3,0.1,4.2-1.6,4.4-3.8l3.6-55.2C478,288,482.5,282.1,483.3,274.4z"/>
				<path class="st30" d="M574.6,247.8c-0.5-1.2-1-2.4-1.6-3.6c-0.6-1.2-1.2-2.3-1.8-3.4c-0.6-1.1-1.3-2.2-2-3.3
					c-0.2-0.4-0.7-0.5-1.1-0.3c-0.4,0.2-0.6,0.8-0.4,1.2l0,0c0.3,0.5,0.6,1.1,0.8,1.7c0.3,0.6,0.6,1.1,0.8,1.7
					c0.5,1.1,1,2.3,1.5,3.5c0.5,1.2,0.9,2.3,1.3,3.5c0.4,1.2,0.8,2.4,1.1,3.6c0.1,0.5,0.2,1,0.3,1.5c-0.4,0.5-1,1-1.6,1.6l-6.8-17.3
					c-0.1-0.3-0.5-0.5-0.8-0.4c-0.3,0.1-0.5,0.5-0.4,0.8l5.5,18.5c-0.4,0.2-0.8,0.3-1.2,0.4l-6.1-18.2c-0.1-0.3-0.4-0.5-0.8-0.4
					c-0.4,0.1-0.6,0.4-0.5,0.8l4.3,18c-0.6-0.1-1.2-0.2-1.8-0.5l-0.2-0.3c-0.3-0.5-0.5-1.1-0.7-1.7c-0.2-0.6-0.5-1.1-0.7-1.7
					l-0.6-1.7c-0.2-0.6-0.4-1.2-0.6-1.7L560,248l-0.6-1.8c-0.2-0.6-0.3-1.2-0.5-1.8c-0.3-1.2-0.7-2.4-1-3.6c-0.1-0.4-0.5-0.7-1-0.6
					c-0.5,0.1-0.8,0.5-0.7,1c0.2,1.2,0.4,2.5,0.7,3.7c0.1,0.6,0.2,1.2,0.4,1.9l0.4,1.9l0.5,1.9c0.2,0.6,0.4,1.2,0.5,1.8l0.6,1.8
					c0.2,0.6,0.4,1.2,0.7,1.8c0.2,0.6,0.4,1.2,0.7,1.8l0.8,1.8c0.3,0.6,0.6,1.2,1,1.7c0.2,0.3,0.3,0.6,0.5,0.9l0.6,0.8
					c0.2,0.3,0.4,0.6,0.6,0.8l0.7,0.8l0.4,0.4c0.1,0.1,0.3,0.2,0.4,0.3c0.3,0.2,0.6,0.5,0.9,0.7c0.4,0.2,0.7,0.4,1.1,0.5l0.6,0.2
					c0.2,0.1,0.4,0.1,0.6,0.1l0.7,0.1c0.2,0,0.5,0,0.7,0c0.2,0,0.3,0,0.5-0.1l15.6,49.9c0,0.1,0.1,0.2,0.1,0.3c0.8,1.9,3,2.8,5,2
					c1.9-0.8,2.8-3,2-5l-20.4-48.3c0.2-0.1,0.3-0.2,0.5-0.3c0.3-0.2,0.6-0.5,0.9-0.8c0.3-0.3,0.5-0.6,0.8-0.9c0.3-0.3,0.4-0.7,0.6-1
					c0.2-0.3,0.3-0.7,0.5-1.1c0.1-0.4,0.2-0.7,0.3-1.1c0.1-0.4,0.1-0.7,0.2-1.1c0.1-0.7,0.1-1.4,0.1-2.1c0-0.4,0-0.7-0.1-1
					c0-0.3-0.1-0.7-0.1-1c-0.1-0.7-0.2-1.3-0.4-2c-0.2-0.6-0.3-1.3-0.5-1.9c-0.2-0.6-0.4-1.3-0.6-1.9
					C575.1,249,574.9,248.4,574.6,247.8z"/>
			</g>
			<g>
				<path class="st31" d="M480.3,271.4c0.9-8.5-5.2-16.1-8.7-16.5c-3.6-0.4-11.1,5.7-12.1,14.2c-0.8,7.7,2.3,14.5,7.1,16.1
					l-8.6,54.7c0,0.1,0,0.2,0,0.4c-0.1,2.3,1.6,4.2,3.8,4.4c2.3,0.1,4.2-1.6,4.4-3.8l3.6-55.2C475,285,479.5,279.1,480.3,271.4z"/>
				<path class="st31" d="M571.6,244.8c-0.5-1.2-1-2.4-1.6-3.6c-0.6-1.2-1.2-2.3-1.8-3.4c-0.6-1.1-1.3-2.2-2-3.3
					c-0.2-0.4-0.7-0.5-1.1-0.3c-0.4,0.2-0.6,0.8-0.4,1.2l0,0c0.3,0.5,0.6,1.1,0.8,1.7c0.3,0.6,0.6,1.1,0.8,1.7
					c0.5,1.1,1,2.3,1.5,3.5c0.5,1.2,0.9,2.3,1.3,3.5c0.4,1.2,0.8,2.4,1.1,3.6c0.1,0.5,0.2,1,0.3,1.5c-0.4,0.5-1,1-1.6,1.6l-6.8-17.3
					c-0.1-0.3-0.5-0.5-0.8-0.4c-0.3,0.1-0.5,0.5-0.4,0.8l5.5,18.5c-0.4,0.2-0.8,0.3-1.2,0.4l-6.1-18.2c-0.1-0.3-0.4-0.5-0.8-0.4
					c-0.4,0.1-0.6,0.4-0.5,0.8l4.3,18c-0.6-0.1-1.2-0.2-1.8-0.5l-0.2-0.3c-0.3-0.5-0.5-1.1-0.7-1.7c-0.2-0.6-0.5-1.1-0.7-1.7
					l-0.6-1.7c-0.2-0.6-0.4-1.2-0.6-1.7L557,245l-0.6-1.8c-0.2-0.6-0.3-1.2-0.5-1.8c-0.3-1.2-0.7-2.4-1-3.6c-0.1-0.4-0.5-0.7-1-0.6
					c-0.5,0.1-0.8,0.5-0.7,1c0.2,1.2,0.4,2.5,0.7,3.7c0.1,0.6,0.2,1.2,0.4,1.9l0.4,1.9l0.5,1.9c0.2,0.6,0.4,1.2,0.5,1.8l0.6,1.8
					c0.2,0.6,0.4,1.2,0.7,1.8c0.2,0.6,0.4,1.2,0.7,1.8l0.8,1.8c0.3,0.6,0.6,1.2,1,1.7c0.2,0.3,0.3,0.6,0.5,0.9l0.6,0.8
					c0.2,0.3,0.4,0.6,0.6,0.8l0.7,0.8l0.4,0.4c0.1,0.1,0.3,0.2,0.4,0.3c0.3,0.2,0.6,0.5,0.9,0.7c0.4,0.2,0.7,0.4,1.1,0.5l0.6,0.2
					c0.2,0.1,0.4,0.1,0.6,0.1l0.7,0.1c0.2,0,0.5,0,0.7,0c0.2,0,0.3,0,0.5-0.1l15.6,49.9c0,0.1,0.1,0.2,0.1,0.3c0.8,1.9,3,2.8,5,2
					c1.9-0.8,2.8-3,2-5l-20.4-48.3c0.2-0.1,0.3-0.2,0.5-0.3c0.3-0.2,0.6-0.5,0.9-0.8c0.3-0.3,0.5-0.6,0.8-0.9c0.3-0.3,0.4-0.7,0.6-1
					c0.2-0.3,0.3-0.7,0.5-1.1c0.1-0.4,0.2-0.7,0.3-1.1c0.1-0.4,0.1-0.7,0.2-1.1c0.1-0.7,0.1-1.4,0.1-2.1c0-0.4,0-0.7-0.1-1
					c0-0.3-0.1-0.7-0.1-1c-0.1-0.7-0.2-1.3-0.4-2c-0.2-0.6-0.3-1.3-0.5-1.9c-0.2-0.6-0.4-1.3-0.6-1.9
					C572.1,246,571.9,245.4,571.6,244.8z"/>
			</g>
		</g>
	</g>
	<g>
		<g>
			<path class="st32" d="M223.4,77l-2.3,0.4c-5,6.9-5.6,21.5-5.6,21.5c-0.4-10.1,1.5-17.7,2.4-21l-5.8,1l1.4,18.2
				c0.1,0.8,0.2,1.5,0.1,2l-0.1-2c-0.7-4.9-3.4-14.8-4.3-17.7l-3.8,0.7c0,0,6.8,10.2,6.6,25.6c0,0,1.3,2.5,4.7,0
				C216.6,105.6,216.3,81.2,223.4,77z"/>
			<path class="st33" d="M208.1,60.3c0.1-1.9,1.2-3.6,3.4-2.3c0-4.3,7.2-6.6,9-2.3c4.2-5,13.5,2.3,6.7,8c3,3,1.2,8.1-3.5,6.7
				c0.5,5.9-9.5,5.3-9.5-1.2c-3.8,2.6-9.4-3.8-5.1-6.8C209.1,62.5,208,61.7,208.1,60.3z"/>
			<g>
				<path class="st33" d="M189.8,65.5c0.1-1.9,1.2-3.6,3.4-2.3c0-4.3,7.2-6.6,9-2.3c4.2-5,13.5,2.3,6.7,8c3,3,1.2,8.1-3.5,6.7
					c0.5,5.9-9.5,5.3-9.5-1.2c-3.8,2.6-9.4-3.8-5.1-6.8C190.8,67.7,189.7,67,189.8,65.5z"/>
				<path class="st33" d="M189.3,66c0.1-1.9,1.2-3.6,3.4-2.3c0-4.3,7.2-6.6,9-2.3c4.2-5,13.5,2.3,6.7,8c3,3,1.2,8.1-3.5,6.7
					c0.5,5.9-9.5,5.3-9.5-1.2c-3.8,2.6-9.4-3.8-5.1-6.8C190.3,68.2,189.2,67.4,189.3,66z"/>
			</g>
			<path class="st33" d="M205.9,69.2c0.1-1.9,1.2-3.6,3.4-2.3c0-4.3,7.2-6.6,9-2.3c4.2-5,13.5,2.3,6.7,8c3,3,1.2,8.1-3.5,6.7
				c0.5,5.9-9.5,5.3-9.5-1.2c-3.8,2.6-9.4-3.8-5.1-6.8C206.8,71.4,205.8,70.7,205.9,69.2z"/>
			<g>
				<path class="st33" d="M214.4,73.3c0.1-1.9,1.2-3.6,3.4-2.3c0-4.3,7.2-6.6,9-2.3c4.2-5,13.5,2.3,6.7,8c3,3,1.2,8.1-3.5,6.7
					c0.5,5.9-9.5,5.3-9.5-1.2c-3.8,2.6-9.4-3.8-5.1-6.8C215.4,75.5,214.3,74.7,214.4,73.3z"/>
				<path class="st33" d="M215.4,73.9c0.1-1.9,1.2-3.6,3.4-2.3c0-4.3,7.2-6.6,9-2.3c4.2-5,13.5,2.3,6.7,8c3,3,1.2,8.1-3.5,6.7
					c0.5,5.9-9.5,5.3-9.5-1.2c-3.8,2.6-9.4-3.8-5.1-6.8C216.3,76.1,215.3,75.4,215.4,73.9z"/>
			</g>
			<g>
				<path class="st33" d="M196.3,73.3c0.1-1.9,1.2-3.6,3.4-2.3c0-4.3,7.2-6.6,9-2.3c4.2-5,13.5,2.3,6.7,8c3,3,1.2,8.1-3.5,6.7
					c0.5,5.9-9.5,5.3-9.5-1.2c-3.8,2.6-9.4-3.8-5.1-6.8C197.3,75.5,196.2,74.7,196.3,73.3z"/>
				<path class="st33" d="M195.9,73.9c0.1-1.9,1.2-3.6,3.4-2.3c0-4.3,7.2-6.6,9-2.3c4.2-5,13.5,2.3,6.7,8c3,3,1.2,8.1-3.5,6.7
					c0.5,5.9-9.5,5.3-9.5-1.2c-3.8,2.6-9.4-3.8-5.1-6.8C196.9,76.1,195.8,75.4,195.9,73.9z"/>
			</g>
		</g>
		<g>
			<path class="st33" d="M196.1,151.7c-38-13.9-62.7-39.5-64.2-41c-5.1-5.3-7.9-18-2.6-23.1c5.3-5.1,16.8-0.6,21.9,4.7
				c0.6,0.6,42.6,43.5,96.9,41.6c7.4-0.3,19.1,4.5,19.4,11.9c0.3,7.4-11.1,14.5-18.4,14.8C229.6,161.2,211.7,157.4,196.1,151.7z"/>
			<g>
				<defs>
					<path id="SVGID_1_" d="M196.1,151.7c-38-13.9-62.7-39.5-64.2-41c-5.1-5.3-7.9-18-2.6-23.1c5.3-5.1,16.8-0.6,21.9,4.7
						c0.6,0.6,42.6,43.5,96.9,41.6c7.4-0.3,19.1,4.5,19.4,11.9c0.3,7.4-11.1,14.5-18.4,14.8C229.6,161.2,211.7,157.4,196.1,151.7z"
						/>
				</defs>
				<clipPath id="SVGID_2_">
					<use xlink:href="#SVGID_1_"  style="overflow:visible;"/>
				</clipPath>
				<path class="st34" d="M122.1,91.5c1.5,2.8,3.9,5.2,5.8,7.8c2.4,3.2,4.4,6.7,6.9,9.8c3.5,4.4,8,7.8,12.6,10.8
					c9.7,6.3,19.4,12.9,30,17.5c11,4.8,22.2,9.1,33.8,12.3c12.3,3.4,25.1,6.4,37.9,5.9c4.5-0.2,9-1,13.3-2c1.6-0.4,5.9-0.9,6.8-2.2"
					/>
				<path class="st34" d="M123.7,86.7c1.5,0.9,3.1,3.4,4.2,4.9c1.8,2.5,3.4,5,5.4,7.4c4.3,4.9,9.6,7.5,14.7,11.4
					c10,7.5,21,13.5,31.8,19.6c13.2,7.4,27.6,12,42.2,15.6c11,2.7,22.9,4.3,34.2,4.5c4.8,0.1,9.4-0.5,14.2-1.2
					c-0.2-0.2-0.5-0.5-0.7-0.6"/>
				<path class="st34" d="M128.1,82.9c-0.3,1.4,2.2,3.3,3.1,4.4c2.5,3,5.3,5.6,7.9,8.5c5.3,6.1,12.2,10.8,19.3,14.7
					c11,6.1,22.3,12.5,33.8,17.5c8.8,3.8,17.1,7.6,26.3,10c6,1.6,12.1,3.2,18.3,4.1c6.6,0.9,13.2,1.6,19.8,1.9
					c2.1,0.1,14.2,0.2,14.3-1.5c-0.1,0-0.2,0.1-0.3,0.1"/>
				<path class="st34" d="M135.8,82.6c0,2.5,3.1,4.9,4.7,6.7c2.1,2.4,4.1,4.9,6.5,6.9c5,4.1,11.1,7.7,16.6,11.3
					c9,5.8,19,10.1,28.5,15c22.2,11.4,46.9,16.8,71.8,14c0.8-0.1,3.8-0.1,3.6-0.7"/>
			</g>
		</g>
		<g>
			<path class="st35" d="M275.8,86.2C268,83.7,264,73.1,264,73.1s-3.4,10.5-11.7,13.1c-10.8,3.3-13.4,30,11.7,30
				C289.1,116.2,286.5,89.7,275.8,86.2z"/>
			<path class="st36" d="M274.5,86.2c-9.7-3-10.5-13.1-10.5-13.1s-0.8,10.1-10.5,13.1c-9.7,3-11.9,30,10.5,30
				C286.3,116.2,284.2,89.2,274.5,86.2z"/>
			<path class="st36" d="M273,86.2c-8.3-3-9-13.1-9-13.1s-0.7,10.1-9,13.1c-8.3,3-10.2,30,9,30C283.2,116.2,281.3,89.2,273,86.2z"/>
			<path class="st36" d="M271.3,86.2c-6.7-3-7.3-13.1-7.3-13.1s-0.5,10.1-7.3,13.1c-6.7,3-8.3,30,7.3,30
				C279.5,116.2,278,89.2,271.3,86.2z"/>
			<path class="st36" d="M269.5,86.2c-5.1-3-5.5-13.1-5.5-13.1s-0.4,10.1-5.5,13.1c-5.1,3-6.3,30,5.5,30
				C275.8,116.2,274.6,89.2,269.5,86.2z"/>
			<path class="st36" d="M267.9,86.2c-3.6-3-3.9-13.1-3.9-13.1s-0.3,10.1-3.9,13.1c-3.6,3-4.5,30,3.9,30
				C272.3,116.2,271.5,89.2,267.9,86.2z"/>
			<path class="st36" d="M266.2,86.2c-2-3-2.2-13.1-2.2-13.1s-0.2,10.1-2.2,13.1c-2,3-2.5,30,2.2,30
				C268.7,116.2,268.2,89.2,266.2,86.2z"/>
			<g>
				<g>
					<path class="st35" d="M264.5,115.8c0,0-0.1,0.1-0.2,0.1c-0.1,0-0.2,0.1-0.2,0.2c-0.1,0.1-0.2,0.1-0.2,0.2
						c-0.1,0.1-0.2,0.2-0.2,0.3c-0.1,0.1-0.1,0.2-0.2,0.3c-0.1,0.1-0.1,0.3-0.2,0.4c-0.1,0.1-0.1,0.3-0.2,0.5
						c-0.1,0.3-0.3,0.7-0.5,1c-0.2,0.3-0.4,0.6-0.7,0.8c-0.1,0.1-0.3,0.1-0.4,0.2c-0.1,0-0.2,0-0.3,0c-0.2,0-0.3,0-0.3,0
						s0.1-0.1,0.2-0.2c0.1-0.1,0.3-0.2,0.4-0.4c0.1-0.2,0.2-0.4,0.3-0.7c0.1-0.3,0.2-0.6,0.3-1c0.1-0.3,0.3-0.7,0.6-1
						c0.1-0.2,0.3-0.3,0.4-0.4c0.1-0.1,0.3-0.2,0.5-0.2c0.2,0,0.3-0.1,0.4-0.1c0.1,0,0.2,0,0.3,0
						C264.4,115.8,264.5,115.8,264.5,115.8z"/>
				</g>
				<g>
					<path class="st35" d="M264.6,115.5c0,0,0,0.1-0.1,0.2c-0.1,0.1-0.1,0.3-0.1,0.5c0,0.1,0,0.2,0,0.3c0,0.1,0,0.2,0,0.3
						c0,0.1,0.1,0.2,0.1,0.3c0,0.1,0.1,0.2,0.1,0.4c0.1,0.3,0.2,0.6,0.2,0.9c0,0.3,0,0.7-0.1,0.9c0,0.1-0.1,0.2-0.2,0.3
						c-0.1,0.1-0.1,0.1-0.2,0.2c-0.1,0.1-0.2,0.1-0.2,0.1s0-0.1,0-0.2c0-0.1,0-0.1,0-0.2c0-0.1,0-0.2,0-0.3
						c-0.1-0.4-0.3-0.8-0.5-1.4c0-0.2-0.1-0.3-0.1-0.5c0-0.2,0-0.3,0-0.5c0-0.4,0.2-0.7,0.3-0.9c0.2-0.2,0.4-0.3,0.5-0.4
						C264.6,115.5,264.6,115.5,264.6,115.5z"/>
				</g>
				<g>
					<path class="st35" d="M264.5,116c0.1,0,0.2-0.1,0.4-0.1c0.1,0,0.2,0,0.3,0l0.2,0.1c0.2,0,0.3,0.2,0.4,0.2
						c0.1,0.1,0.2,0.2,0.3,0.3c0.4,0.4,0.7,0.9,0.9,1.4c0.2,0.5,0.5,0.9,0.7,1.4c0.1,0.2,0.2,0.4,0.4,0.6c0.1,0.2,0.3,0.4,0.4,0.5
						l-0.2,0c0.2-0.1,0.4-0.2,0.5-0.4c0,0.2-0.1,0.5-0.3,0.7l-0.1,0.1l-0.1,0c-0.3-0.1-0.6-0.2-0.8-0.4c-0.2-0.2-0.4-0.4-0.6-0.6
						c-0.3-0.5-0.6-0.9-0.8-1.4c-0.2-0.5-0.4-1-0.6-1.4c-0.1-0.2-0.2-0.4-0.4-0.6l-0.1-0.1c0,0-0.1-0.1-0.1-0.1
						C264.7,116,264.6,116.1,264.5,116z"/>
				</g>
			</g>
		</g>
	</g>
	<g>
		<g>
			<rect x="28.8" y="214.2" class="st37" width="120.9" height="143.6"/>
			<path class="st37" d="M149.7,215.4v-20.2c0-1.6-1.3-2.9-2.9-2.9H31.7c-1.6,0-2.9,1.3-2.9,2.9v20.2H149.7z"/>
			<rect x="28.8" y="224.1" class="st38" width="120.9" height="1.6"/>
			<path class="st37" d="M28.8,336.9v20.2c0,1.6,1.3,2.9,2.9,2.9h115.1c1.6,0,2.9-1.3,2.9-2.9v-20.2H28.8z"/>
			<rect x="28.8" y="336.4" class="st38" width="120.9" height="1.6"/>
			<rect x="28.8" y="199.1" class="st38" width="120.9" height="1"/>
		</g>
		<g>
			<circle class="st38" cx="89.5" cy="280.1" r="40.6"/>
			<path class="st39" d="M129.3,262.2l-7.1,3.4c3.4,5.3,3.8,14.6,3.8,14.6s-0.4,9.3-3.8,14.6l7.1,3.4c0,0,5.3-8.2,5.3-17.9
				C134.6,270.4,129.3,262.2,129.3,262.2z"/>
			<g>
				<circle class="st40" cx="89.5" cy="280.1" r="26.1"/>
				<g>
					<path class="st20" d="M63.5,278.2l24.2-24.2c-2,0.1-3.9,0.5-5.8,1.1l-17.3,17.3C64,274.3,63.6,276.2,63.5,278.2z"/>
					<path class="st20" d="M65.7,290.7l34.4-34.4c-1.8-0.8-3.7-1.4-5.7-1.8l-30.5,30.5C64.3,286.9,64.9,288.9,65.7,290.7z"/>
					<path class="st20" d="M68.3,295.2l36.4-36.4c-0.8-0.6-1.6-1.1-2.5-1.6l-35.5,35.5C67.2,293.6,67.7,294.4,68.3,295.2z"/>
					<path class="st20" d="M80.3,304.5l33.6-33.6c-0.4-1.1-0.9-2.2-1.5-3.2L77.1,303C78.1,303.6,79.2,304.1,80.3,304.5z"/>
					<path class="st20" d="M115.6,280.1c0-1.2-0.1-2.4-0.2-3.6L86,305.9c1.2,0.2,2.3,0.2,3.6,0.2c1.4,0,2.7-0.1,4-0.3l21.8-21.8
						C115.5,282.8,115.6,281.5,115.6,280.1z"/>
				</g>
			</g>
		</g>
		<path class="st38" d="M34.4,206.6v7.8c0,2.3,1.9,4.2,4.2,4.2h24.9c2.3,0,4.2-1.9,4.2-4.2v-7.8H34.4z"/>
		<g>
			<g>
				<g>
					<g>
						<circle class="st41" cx="82" cy="212.6" r="5"/>
						<circle class="st39" cx="82" cy="212.6" r="4.1"/>
					</g>
					<g>
						<path class="st41" d="M82,218.9c-3.4,0-6.3-2.8-6.3-6.3c0-3.4,2.8-6.2,6.3-6.2c3.4,0,6.3,2.8,6.3,6.2
							C88.2,216.1,85.4,218.9,82,218.9z M82,206.7c-3.3,0-5.9,2.6-5.9,5.9c0,3.3,2.6,5.9,5.9,5.9c3.3,0,5.9-2.6,5.9-5.9
							C87.9,209.4,85.2,206.7,82,206.7z"/>
					</g>
				</g>
				<path class="st37" d="M82,207.2c0.4,0,0.7,0.3,0.7,0.7l0,2.2c0,0.4-0.3,0.7-0.7,0.7l0,0c-0.4,0-0.7-0.3-0.7-0.7l0-2.2
					C81.3,207.5,81.6,207.2,82,207.2L82,207.2z"/>
			</g>
			<g>
				<g>
					<g>
						<circle class="st41" cx="100.1" cy="212.6" r="5"/>
						<circle class="st39" cx="100.1" cy="212.6" r="4.1"/>
					</g>
					<g>
						<path class="st41" d="M93.8,212.6c0-3.4,2.8-6.3,6.3-6.3c3.4,0,6.2,2.8,6.2,6.3c0,3.4-2.8,6.3-6.2,6.3
							C96.7,218.9,93.8,216.1,93.8,212.6z M106,212.6c0-3.3-2.6-5.9-5.9-5.9c-3.3,0-5.9,2.6-5.9,5.9c0,3.3,2.6,5.9,5.9,5.9
							C103.4,218.5,106,215.9,106,212.6z"/>
					</g>
				</g>
				<path class="st37" d="M105.5,212.6c0,0.4-0.3,0.7-0.7,0.7l-2.2,0c-0.4,0-0.7-0.3-0.7-0.7l0,0c0-0.4,0.3-0.7,0.7-0.7l2.2,0
					C105.2,211.9,105.5,212.2,105.5,212.6L105.5,212.6z"/>
			</g>
		</g>
		<g>
			<g>
				<g>
					<g>
						<path class="st38" d="M124,219.3c0,0.7-0.5,1.2-1.2,1.2h-2.6c-0.7,0-1.2-0.5-1.2-1.2v-2.6c0-0.7,0.5-1.2,1.2-1.2h2.6
							c0.7,0,1.2,0.5,1.2,1.2V219.3z"/>
						<path class="st42" d="M123.3,218.9c0,0.5-0.4,0.8-0.8,0.8h-1.8c-0.5,0-0.8-0.4-0.8-0.8V217c0-0.5,0.4-0.8,0.8-0.8h1.8
							c0.5,0,0.8,0.4,0.8,0.8V218.9z"/>
					</g>
					<g>
						<path class="st38" d="M130,219.3c0,0.7-0.5,1.2-1.2,1.2h-2.6c-0.7,0-1.2-0.5-1.2-1.2v-2.6c0-0.7,0.5-1.2,1.2-1.2h2.6
							c0.7,0,1.2,0.5,1.2,1.2V219.3z"/>
						<path class="st42" d="M129.2,218.9c0,0.5-0.4,0.8-0.8,0.8h-1.8c-0.5,0-0.8-0.4-0.8-0.8V217c0-0.5,0.4-0.8,0.8-0.8h1.8
							c0.5,0,0.8,0.4,0.8,0.8V218.9z"/>
					</g>
				</g>
				<g>
					<g>
						<path class="st38" d="M135.9,219.3c0,0.7-0.5,1.2-1.2,1.2h-2.6c-0.7,0-1.2-0.5-1.2-1.2v-2.6c0-0.7,0.5-1.2,1.2-1.2h2.6
							c0.7,0,1.2,0.5,1.2,1.2V219.3z"/>
						<path class="st42" d="M135.2,218.9c0,0.5-0.4,0.8-0.8,0.8h-1.8c-0.5,0-0.8-0.4-0.8-0.8V217c0-0.5,0.4-0.8,0.8-0.8h1.8
							c0.5,0,0.8,0.4,0.8,0.8V218.9z"/>
					</g>
					<g>
						<path class="st38" d="M141.9,219.3c0,0.7-0.5,1.2-1.2,1.2h-2.6c-0.7,0-1.2-0.5-1.2-1.2v-2.6c0-0.7,0.5-1.2,1.2-1.2h2.6
							c0.7,0,1.2,0.5,1.2,1.2V219.3z"/>
						<path class="st42" d="M141.2,218.9c0,0.5-0.4,0.8-0.8,0.8h-1.8c-0.5,0-0.8-0.4-0.8-0.8V217c0-0.5,0.4-0.8,0.8-0.8h1.8
							c0.5,0,0.8,0.4,0.8,0.8V218.9z"/>
					</g>
				</g>
			</g>
			<g>
				<rect x="119" y="205" class="st42" width="22.9" height="8.7"/>
				<g>
					<path class="st43" d="M142.2,214.1h-23.5v-9.3h23.5V214.1z M119.3,213.5h22.3v-8.1h-22.3V213.5z"/>
				</g>
			</g>
		</g>
	</g>
	<g>
		<g>
			<path class="st44" d="M409.9,189.4c4-4.1,6.7-11.4,6.7-18c0-9.9-6.1-18.6-13.7-18.6c-7.6,0-13.7,8.7-13.7,18.6
				c0,6.6,2.7,13.8,6.7,18l0,0c5.4,5.2,5,11.6,5,11.6s-1.2,88-2.3,99.6c-0.7,7.5,4.3,7.6,4.3,7.6h0c0,0,5,0,4.3-7.6
				c-1.1-11.5-2.3-99.6-2.3-99.6S404.5,194.6,409.9,189.4L409.9,189.4z M405,302.2c0,1.2-0.9,2.1-2.1,2.1c-1.2,0-2.1-0.9-2.1-2.1
				c0-1.2,0.9-2.1,2.1-2.1C404,300.2,405,301.1,405,302.2z"/>
			<path class="st45" d="M409,189.4c4-4.1,6.7-11.4,6.7-18c0-9.9-6.1-18.6-13.7-18.6c-7.6,0-13.7,8.7-13.7,18.6
				c0,6.6,2.7,13.8,6.7,18l0,0c5.4,5.2,5,11.6,5,11.6s-1.2,88-2.3,99.6C397,308,402,308,402,308h0c0,0,5,0,4.3-7.6
				c-1.1-11.5-2.3-99.6-2.3-99.6S403.7,194.6,409,189.4L409,189.4z M404.1,302.2c0,1.2-0.9,2.1-2.1,2.1c-1.2,0-2.1-0.9-2.1-2.1
				c0-1.2,0.9-2.1,2.1-2.1C403.2,300.2,404.1,301.1,404.1,302.2z"/>
			<path class="st46" d="M414.1,169.6c-1.5-14.9-12.1-15.1-12.1-15.1l0,0l0,0h0l0,0c0,0-10.5,0.2-12.1,15.1
				c-1.6,15.9,12.1,15.9,12.1,15.9l0,0h0l0,0l0,0C402,185.5,415.7,185.5,414.1,169.6z"/>
		</g>
		<g>
			<path class="st14" d="M370,137.7c1.7,0,3-1.4,3-3v-6.9c-2,1.2-4.1,2.3-6.1,3.3v3.6C366.9,136.3,368.3,137.7,370,137.7z"/>
			<path class="st14" d="M387.9,104.4c0.2-1.7-1-3.2-2.7-3.3c-1.7-0.2-3.2,1.1-3.3,2.7l-2,19.7c2.2-1.5,4.4-3,6.6-4.6L387.9,104.4z"
				/>
			<path class="st14" d="M381.5,137.6c1.7,0.2,3.2-1.1,3.3-2.7l1.6-16.1c-2.2,1.6-4.4,3.2-6.6,4.6l-1.1,10.8
				C378.6,135.9,379.8,137.4,381.5,137.6z"/>
			<path class="st14" d="M373,104c0-1.7-1.4-3-3-3c-1.7,0-3,1.4-3,3v27c2-1,4-2.2,6.1-3.3V104z"/>
			<path class="st14" d="M358,103.8c-0.2-1.7-1.7-2.9-3.3-2.7c-1.7,0.2-2.9,1.7-2.7,3.3l3,30.5c0.1,0.6,0.3,1.1,0.6,1.6
				c1.7-0.7,3.5-1.6,5.4-2.4L358,103.8z"/>
			<path class="st14" d="M358.3,137.6c1.7-0.2,2.9-1.7,2.7-3.3l0-0.3c-1.9,0.9-3.7,1.7-5.4,2.4C356.2,137.2,357.2,137.7,358.3,137.6
				z"/>
			<path class="st47" d="M386.4,118.8l-1.6,16.1c-0.2,1.7-1.7,2.9-3.3,2.7c-1.7-0.2-2.9-1.7-2.7-3.3l1.1-10.8
				c-2.3,1.5-4.6,2.9-6.9,4.3v6.9c0,1.7-1.4,3-3,3c-1.7,0-3-1.4-3-3V131c-2,1.1-4,2-5.9,3l0,0.3c0.2,1.7-1.1,3.2-2.7,3.3
				c-1.1,0.1-2.1-0.4-2.7-1.2c-2.5,1.1-4.8,2-7,2.8c0.8,4.6,4.7,8.1,9.5,8.1h8.7c-0.3,15.6-2.1,113.3-2.9,119.7
				c-0.8,7,5.9,6.9,5.9,6.9v0l0,0c0,0,6.8,0.1,5.9-6.9c-0.8-6.5-2.6-104.1-2.9-119.7h8.7c5.4,0,9.7-4.3,9.7-9.7l3.2-25.6
				C392,114.4,389.2,116.7,386.4,118.8z M370,269.3c-1.2,0-2.2-1-2.2-2.2c0-1.2,1-2.2,2.2-2.2s2.2,1,2.2,2.2
				C372.2,268.3,371.2,269.3,370,269.3z"/>
			<path class="st48" d="M386.2,91.3h-32.6c-5.4,0-9.7,4.3-9.7,9.7l4.5,36.7c0,0.6,0.1,1.1,0.1,1.6c2.1-0.8,4.5-1.8,7-2.8
				c-0.3-0.4-0.6-1-0.6-1.6l-3-30.5c-0.2-1.7,1-3.2,2.7-3.3c1.7-0.2,3.2,1.1,3.3,2.7l3,30.2c1.9-0.9,3.9-1.9,5.9-3v-27
				c0-1.7,1.4-3,3-3c1.7,0,3,1.4,3,3v23.7c2.3-1.3,4.6-2.7,6.9-4.3l2-19.7c0.2-1.7,1.7-2.9,3.3-2.7c1.7,0.2,2.9,1.7,2.7,3.3
				l-1.4,14.4c2.8-2.1,5.5-4.4,8.1-6.8l1.4-11.1C395.9,95.6,391.6,91.3,386.2,91.3z"/>
		</g>
		<g>
			<g>
				<path class="st44" d="M335.6,122.5c0,0-21.3,6.4-24.3,7.7c-3,1.2-3.2,4.3-3.2,4.3v10.7c0,5.4,1.8,11.3,4.7,15.5
					c0.6,0.9,1.3,1.8,2,2.5l0,0c5.4,5.2,6.3,11.6,6.3,11.6s-1.2,88-2.3,99.6c-0.7,7.5,4.3,7.6,4.3,7.6h0c0,0,5,0,4.3-7.6
					c-1.1-11.5-2.3-99.6-2.3-99.6s0.9-6.3,6.3-11.6l0,0c4-4.1,6.7-11.4,6.7-18v-10.1v-9.8C337.7,122,335.6,122.5,335.6,122.5z
					 M325.2,276.1c0,1.2-0.9,2.1-2.1,2.1c-1.2,0-2.1-0.9-2.1-2.1c0-1.2,0.9-2.1,2.1-2.1C324.2,274,325.2,274.9,325.2,276.1z"/>
			</g>
			<g>
				<circle class="st14" cx="321.8" cy="276.1" r="2.1"/>
				<path class="st46" d="M336.8,135.1v-9.8c-0.3-3.4-2.5-2.9-2.5-2.9S313,129,310,130.2c-3,1.2-3.2,4.3-3.2,4.3v10.7
					c0,5.4,1.8,11.3,4.7,15.5C317.5,158,328.1,151.2,336.8,135.1z"/>
				<path class="st45" d="M336.8,135.1c-8.7,16-19.3,22.8-25.3,25.6c0.6,0.9,1.3,1.8,2,2.5l0,0c5.4,5.2,6.3,11.6,6.3,11.6
					s-1.2,88-2.3,99.6c-0.7,7.5,4.3,7.6,4.3,7.6h0c0,0,5,0,4.3-7.6c-1.1-11.5-2.3-99.6-2.3-99.6s0.9-6.3,6.3-11.6l0,0
					c4-4.1,6.7-11.4,6.7-18V135.1z M323.9,276.1c0,1.2-0.9,2.1-2.1,2.1c-1.2,0-2.1-0.9-2.1-2.1c0-1.2,0.9-2.1,2.1-2.1
					C322.9,274,323.9,274.9,323.9,276.1z"/>
			</g>
		</g>
	</g>
	<g>
		<g>
			<line class="st49" x1="225.8" y1="160.7" x2="227.5" y2="166.5"/>
			<line class="st50" x1="228.3" y1="169.4" x2="277.8" y2="344"/>
			<line class="st49" x1="278.2" y1="345.5" x2="279.8" y2="351.2"/>
		</g>
	</g>
	<g>
		<g>
			<line class="st49" x1="368.4" y1="274" x2="367.5" y2="279.9"/>
			<line class="st51" x1="367" y1="283.1" x2="356.8" y2="345.3"/>
			<line class="st49" x1="356.6" y1="346.9" x2="355.6" y2="352.8"/>
		</g>
	</g>
	<g>
		<g>
			<line class="st49" x1="507.7" y1="348.6" x2="504.6" y2="353.7"/>
			<line class="st52" x1="503" y1="356.2" x2="449.7" y2="442.5"/>
			<line class="st49" x1="449" y1="443.8" x2="445.8" y2="448.9"/>
		</g>
	</g>
	<g>
		<g>
			<line class="st49" x1="151.2" y1="253.2" x2="155" y2="257.8"/>
			<line class="st53" x1="156.8" y1="260" x2="228.9" y2="347.1"/>
			<line class="st49" x1="229.8" y1="348.2" x2="233.6" y2="352.8"/>
		</g>
	</g>
</g>
</svg>
