<?xml version="1.0" encoding="utf-8"?>
<!-- Generator: Adobe Illustrator 20.0.0, SVG Export Plug-In . SVG Version: 6.00 Build 0)  -->
<svg version="1.1" id="Layer_1" xmlns="http://www.w3.org/2000/svg" xmlns:xlink="http://www.w3.org/1999/xlink" x="0px" y="0px"
	 viewBox="0 0 612 612" style="enable-background:new 0 0 612 612;" xml:space="preserve">
<style type="text/css">
	.st0{fill:#FAAC18;}
	.st1{fill:none;stroke:#F1F1F1;stroke-width:4.3694;stroke-miterlimit:10;stroke-dasharray:6.5638,6.5638;}
	.st2{fill:#BBE5F4;}
	.st3{fill:#F16123;}
	.st4{fill:#002C3B;}
	.st5{fill:#FFFFFF;}
	.st6{fill:#0296C8;}
	.st7{fill:#027AA6;}
	.st8{fill:#002C3C;}
	.st9{fill:#F1F1F1;}
	.st10{fill:#484F59;}
	.st11{fill:none;stroke:#F1F1F1;stroke-width:4.3694;stroke-miterlimit:10;stroke-dasharray:6.5541;}
	.st12{fill:#A2DADC;}
	.st13{fill:#0872B9;}
	.st14{enable-background:new    ;}
	.st15{fill:#FFFFFF;stroke:#000000;stroke-width:2;stroke-miterlimit:10;}
	.st16{fill:#0F3754;}
	.st17{font-family:'Arial-Black';}
	.st18{font-size:7.1719px;}
	.st19{fill:#020202;}
	.st20{fill:#16AFBE;}
	.st21{fill:#0F80C1;}
	.st22{fill:#F16123;stroke:#FFFFFF;stroke-miterlimit:10;}
</style>
<g>
	<g>
		<ellipse class="st0" cx="306" cy="306" rx="306" ry="304.7"/>
	</g>
	<g>
		<g>
			<circle class="st1" cx="309.7" cy="217.3" r="154.6"/>
		</g>
		<g>
			<circle class="st2" cx="185.9" cy="98.5" r="40.6"/>
			<g id="adjust_x5F_alt_2_">
				<path class="st3" d="M190.1,93.5h-2V75.8h-5.9v17.7h-2c-1.1,0-2,0.9-2,2v5.9c0,1.1,0.9,2,2,2h2h5.9h2c1.1,0,2-0.9,2-2v-5.9
					C192,94.4,191.2,93.5,190.1,93.5z M190.1,99.4h-9.8v-1h9.8V99.4z"/>
				<path class="st3" d="M205.8,83.7h-2v-7.9h-5.9v7.9h-2c-1.1,0-2,0.9-2,2v5.9c0,1.1,0.9,2,2,2h2h5.9h2c1.1,0,2-0.9,2-2v-5.9
					C207.8,84.6,206.9,83.7,205.8,83.7z M205.8,89.6H196v-1h9.8V89.6z"/>
				<rect x="182.2" y="105.3" class="st3" width="5.9" height="17.7"/>
				<path class="st3" d="M174.4,103.3h-2V75.8h-5.9v27.5h-2c-1.1,0-2,0.9-2,2v5.9c0,1.1,0.9,2,2,2h2h5.9h2c1.1,0,2-0.9,2-2v-5.9
					C176.3,104.2,175.5,103.3,174.4,103.3z M174.4,109.2h-9.8v-1h9.8V109.2z"/>
				<rect x="197.9" y="95.5" class="st3" width="5.9" height="27.5"/>
				<rect x="166.5" y="115.1" class="st3" width="5.9" height="7.9"/>
			</g>
		</g>
		<g>
			<g>
				<path class="st4" d="M382,386c0,6.9-5.6,12.4-12.4,12.4h-121c-6.9,0-12.4-5.6-12.4-12.4V129.3c0-6.9,5.6-12.4,12.4-12.4h120.9
					c6.9,0,12.4,5.6,12.4,12.4V386H382z"/>
				<path class="st5" d="M332.6,129.1c0,1-0.8,1.8-1.8,1.8h-43.5c-1,0-1.8-0.8-1.8-1.8l0,0c0-1,0.8-1.8,1.8-1.8h43.5
					C331.8,127.4,332.6,128.2,332.6,129.1L332.6,129.1z"/>
				<rect x="246.7" y="137.2" class="st6" width="124.7" height="223.8"/>
				<polygon class="st7" points="371.4,361 246.7,361 371.4,137.2 				"/>
				<g>
					<path class="st8" d="M309.1,389.8c-6,0-10.8-4.9-10.8-10.8c0-6,4.9-10.8,10.8-10.8c6,0,10.8,4.9,10.8,10.8
						S315.1,389.8,309.1,389.8z"/>
					<path class="st9" d="M309.1,368.6c5.7,0,10.3,4.6,10.3,10.3c0,5.7-4.6,10.3-10.3,10.3c-5.7,0-10.3-4.6-10.3-10.3
						C298.8,373.2,303.4,368.6,309.1,368.6 M309.1,367.5c-6.3,0-11.4,5.1-11.4,11.4s5.1,11.4,11.4,11.4s11.4-5.1,11.4-11.4
						S315.4,367.5,309.1,367.5L309.1,367.5z"/>
				</g>
				<g>
					<path class="st9" d="M276.8,374.2c0,0.7-0.6,1.3-1.3,1.3h-18.2c-0.7,0-1.3-0.6-1.3-1.3l0,0c0-0.7,0.6-1.3,1.3-1.3h18.2
						C276.2,372.9,276.8,373.5,276.8,374.2L276.8,374.2z"/>
					<path class="st9" d="M276.8,378.9c0,0.7-0.6,1.3-1.3,1.3h-18.2c-0.7,0-1.3-0.6-1.3-1.3l0,0c0-0.7,0.6-1.3,1.3-1.3h18.2
						C276.2,377.6,276.8,378.2,276.8,378.9L276.8,378.9z"/>
					<path class="st9" d="M276.8,383.6c0,0.7-0.6,1.3-1.3,1.3h-18.2c-0.7,0-1.3-0.6-1.3-1.3l0,0c0-0.7,0.6-1.3,1.3-1.3h18.2
						C276.2,382.3,276.8,382.9,276.8,383.6L276.8,383.6z"/>
				</g>
				<path class="st9" d="M356.3,374v-2.4l-6.2,3.6l6.2,3.6v-2.4c2,0.1,3.6,1.7,3.6,3.7s-1.7,3.7-3.7,3.7h-10.6v2.4h10.6
					c3.4,0,6.1-2.7,6.1-6.1C362.3,376.8,359.7,374.1,356.3,374z"/>
			</g>
			<g>
				<g>
					<g>
						<path class="st5" d="M309.1,228.8c-15.5,0-28.1,12.6-28.1,28.1s12.6,28.1,28.1,28.1s28.1-12.6,28.1-28.1
							S324.6,228.8,309.1,228.8z M309.1,263.2c-3.5,0-6.3-2.8-6.3-6.3c0-3.5,2.8-6.3,6.3-6.3s6.3,2.8,6.3,6.3
							C315.4,260.4,312.6,263.2,309.1,263.2z"/>
						<g>
							<rect x="305.3" y="223.1" class="st5" width="7.5" height="6"/>
							
								<rect x="289.9" y="227.3" transform="matrix(0.8661 -0.4999 0.4999 0.8661 -75.8051 177.6513)" class="st5" width="7.5" height="6"/>
							
								<rect x="278.6" y="238.6" transform="matrix(0.4999 -0.8661 0.8661 0.4999 -68.0021 365.343)" class="st5" width="7.5" height="6"/>
							<rect x="275.3" y="253.2" class="st5" width="6" height="7.5"/>
							
								<rect x="279.4" y="268.6" transform="matrix(0.866 -0.5001 0.5001 0.866 -98.3423 177.7319)" class="st5" width="6" height="7.5"/>
							<rect x="290.7" y="279.9" transform="matrix(0.5 -0.866 0.866 0.5 -98.7852 396.1693)" class="st5" width="6" height="7.5"/>
							<rect x="305.3" y="284.8" class="st5" width="7.5" height="6"/>
							
								<rect x="320.7" y="280.6" transform="matrix(0.8661 -0.4999 0.4999 0.8661 -98.3407 200.1713)" class="st5" width="7.5" height="6"/>
							<rect x="332" y="269.4" transform="matrix(0.5 -0.866 0.866 0.5 -68.0235 426.9248)" class="st5" width="7.5" height="6"/>
							<rect x="336.9" y="253.2" class="st5" width="6" height="7.5"/>
							
								<rect x="332.8" y="237.8" transform="matrix(0.8661 -0.4998 0.4998 0.8661 -75.774 200.1685)" class="st5" width="6" height="7.5"/>
							
								<rect x="321.5" y="226.5" transform="matrix(0.5001 -0.866 0.866 0.5001 -37.1699 396.127)" class="st5" width="6" height="7.5"/>
						</g>
					</g>
				</g>
				<path class="st10" d="M309.1,243c-7.7,0-14,6.3-14,14s6.3,14,14,14s14-6.3,14-14C323.1,249.3,316.8,243,309.1,243z M309.1,263.2
					c-3.5,0-6.3-2.8-6.3-6.3c0-3.5,2.8-6.3,6.3-6.3s6.3,2.8,6.3,6.3C315.4,260.4,312.6,263.2,309.1,263.2z"/>
			</g>
		</g>
		<g>
			<circle class="st6" cx="424.4" cy="99" r="35.9"/>
			<g id="eye_x5F_open_1_">
				<path class="st5" d="M424.4,86c-15.7,0-23.6,14.2-23.6,14.2S412,112,424.4,112s23.6-11.9,23.6-11.9S440.1,86,424.4,86z
					 M423,100.7l-1.2,1.2c-0.9-0.5-1.5-1.4-1.9-2.3l1.3-1.3C421.4,99.4,422.1,100.3,423,100.7z M418.1,97.9c0,3.5,2.9,6.4,6.4,6.4
					s6.4-2.9,6.4-6.4c0-2.2-1.1-4.1-2.8-5.3c1.7,0.3,3.4,0.7,5,1.2c0.6,1.2,0.9,2.6,0.9,4c0,5.3-4.3,9.5-9.5,9.5
					c-5.3,0-9.5-4.3-9.5-9.5c0-1.4,0.3-2.7,0.9-3.9c1.6-0.6,3.3-1,5-1.3C419.1,93.8,418.1,95.7,418.1,97.9z M411.9,95.6
					c-0.1,0.7-0.2,1.5-0.2,2.2c0,3.5,1.4,6.6,3.6,8.9c-4.6-2-8.3-5-10-6.6C406.5,99,408.9,97.2,411.9,95.6z M433.4,106.9
					c2.3-2.3,3.8-5.5,3.8-9.1c0-0.8-0.1-1.6-0.2-2.4c3.4,1.6,6,3.5,7.3,4.7C442.5,101.8,438.4,104.9,433.4,106.9z"/>
			</g>
		</g>
		<g>
			<circle class="st3" cx="149.9" cy="259.8" r="40.8"/>
			<g id="alarm_3_">
				<path class="st5" d="M149.8,243.8c-10.8,0-19.7,8.8-19.7,19.7c0,10.8,8.8,19.7,19.7,19.7s19.7-8.8,19.7-19.7
					C169.5,252.7,160.7,243.8,149.8,243.8z M149.8,277.8c-7.9,0-14.3-6.4-14.3-14.3c0-7.9,6.4-14.3,14.3-14.3
					c7.9,0,14.3,6.4,14.3,14.3C164.1,271.4,157.7,277.8,149.8,277.8z M128.9,251.9l-2.2-2.6c-1-1.1-0.8-2.9,0.3-3.8l7.5-6.4
					c1.1-1,3-0.7,4,0.4l2.6,3.1c-4.9,1.9-9,5.4-11.7,9.9L128.9,251.9z M173.2,249.2l-2.8,3.3c-2.7-4.5-6.8-8-11.7-10l2.6-3.1
					c1-1.2,2.8-1.4,4-0.4l7.6,6.3C174,246.3,174.1,248,173.2,249.2z M153.4,263.5c0,2-1.6,3.6-3.6,3.6c-1.3,0-2.5-0.7-3.1-1.8h-3.2
					c-0.5,0-0.9-0.4-0.9-0.9v-1.7c0-0.5,0.4-1,0.9-1h3.1c0.3-0.9,0.8-1,1.3-1.3v-6.7c0-0.5,0.4-0.9,0.9-0.9h1.8
					c0.5,0,0.9,0.4,0.9,0.9v6.7C152.5,261,153.4,262.2,153.4,263.5z"/>
			</g>
		</g>
	</g>
	<line class="st11" x1="312" y1="397.7" x2="312" y2="462.9"/>
	<g>
		<circle class="st12" cx="462.9" cy="276.5" r="42.1"/>
		<g id="filter_2_">
			<path class="st13" d="M443.8,258.4v2.6c0,1.1,0.9,1.9,1.9,1.9h34.5c1.1,0,1.9-0.9,1.9-1.9v-2.6H443.8z"/>
			<path class="st13" d="M459.1,285.2v19.2l7.7-7.7v-11.5l13.4-21.1h-34.5L459.1,285.2z M463.4,284.7h-1.9l-11.8-18.6h1.9
				L463.4,284.7z"/>
		</g>
	</g>
	<g>
		<path class="st5" d="M248.8,489.3c6.2-3,11.6-5.7,17-8.3c14.2-6.9,28.4-13.8,42.7-20.6c1.3-0.6,3.2-0.9,4.4-0.3
			c19.6,9.3,39.2,18.8,58.7,28.3c0.4,0.2,0.7,0.5,1.6,1.2c-4.3,2.1-8.2,4.1-12.1,6c-13.3,6.4-26.5,12.8-39.8,19.3
			c-2.2,1.1-4.5,2.1-6.6,3.4c-3.7,2.2-7,0-10-1.5c-17.2-8.2-34.2-16.6-51.3-25C252.1,491.1,250.8,490.4,248.8,489.3z M258.1,489.4
			c5.6,2.7,10.6,5.1,15.6,7.6c12,5.9,23.9,11.8,36,17.6c0.7,0.4,2,0.3,2.7-0.1c3.6-1.7,7.1-3.6,10.6-5.3c9.8-4.7,19.6-9.3,29.4-14
			c3.7-1.8,7.4-3.7,11.2-5.5c-0.4-0.4-0.5-0.7-0.7-0.8c-16.7-8.1-33.3-16.2-50.1-24.1c-1.1-0.5-2.9-0.3-4.1,0.2
			c-6.1,2.8-12.2,5.8-18.3,8.7C279.9,478.7,269.3,484,258.1,489.4z"/>
		<path class="st5" d="M249,520.8c8.9-4.3,11.1-5.5,19.8-9.7c0.8,1.1,1.6,2,2.6,3.3c-6.5,3.2-6.5,3.3-13.1,6.6c4.2,2,8,3.9,11.8,5.8
			c13,6.3,25.9,12.6,38.9,18.8c1.1,0.5,3,0.7,4.1,0.2c16.7-8,33.4-16.1,50.1-24.1c0.2-0.1,0.3-0.3,0.7-0.8
			c-6.3-3.1-6.5-3.3-12.9-6.4c0.8-1.2,1.5-2.1,2.4-3.4c8.6,4.2,11,5.4,20.3,9.8c-3.3,1.7-5.9,3.1-8.6,4.4
			c-17.1,8.3-34.2,16.5-51.3,24.7c-1.3,0.6-3.2,0.8-4.4,0.3c-19.3-9.2-38.5-18.5-57.8-27.9C250.8,522.1,250.2,521.6,249,520.8z"/>
		<path class="st5" d="M249,504.7c8.9-4.3,10.1-6.3,18.8-10.5c0.8,1.1,2.6,2,3.6,3.3c-6.5,3.2-6.5,4.1-13.1,7.3
			c4.2,2,8,3.9,11.8,5.8c13,6.3,25.9,12.6,38.9,18.8c1.1,0.5,3,0.7,4.1,0.2c16.7-8,33.4-16.1,50.1-24.1c0.2-0.1,0.3-0.3,0.7-0.8
			c-6.3-3.1-5.5-3.5-11.9-6.7c0.8-1.2,1.5-2.1,2.4-3.4c8.6,4.2,10,5.6,19.3,10.1c-3.3,1.7-5.9,3.1-8.6,4.4
			c-17.1,8.3-34.2,16.5-51.3,24.7c-1.3,0.6-3.2,0.8-4.4,0.3c-19.3-9.2-38.5-18.5-57.8-27.9C250.8,506,250.2,505.5,249,504.7z"/>
	</g>
	<g class="st14">
		<path class="st4" d="M230,575.4l-4-15h2l2.3,9.9c0.2,1,0.5,2.1,0.6,3.1c0.4-1.6,0.6-2.5,0.7-2.8l2.9-10.2h2.4l2.2,7.6
			c0.5,1.9,0.9,3.7,1.2,5.3c0.2-1,0.4-2,0.7-3.3l2.4-9.7h2l-4.1,15h-1.9l-3.2-11.5c-0.3-1-0.4-1.5-0.5-1.8c-0.2,0.7-0.3,1.3-0.4,1.8
			l-3.2,11.5H230z"/>
		<path class="st4" d="M254,571.9l1.9,0.2c-0.3,1.1-0.9,2-1.7,2.6s-1.9,0.9-3.1,0.9c-1.6,0-2.9-0.5-3.8-1.5c-0.9-1-1.4-2.4-1.4-4.1
			c0-1.8,0.5-3.3,1.4-4.3s2.2-1.5,3.7-1.5c1.5,0,2.6,0.5,3.6,1.5s1.4,2.4,1.4,4.2c0,0.1,0,0.3,0,0.5h-8.1c0.1,1.2,0.4,2.1,1,2.7
			c0.6,0.6,1.4,1,2.3,1c0.7,0,1.3-0.2,1.7-0.5S253.8,572.6,254,571.9z M248,568.9h6.1c-0.1-0.9-0.3-1.6-0.7-2.1
			c-0.6-0.7-1.4-1.1-2.3-1.1c-0.8,0-1.6,0.3-2.1,0.9C248.4,567.2,248,567.9,248,568.9z"/>
		<path class="st4" d="M260,575.4h-1.7v-15h1.8v5.4c0.8-1,1.8-1.5,3-1.5c0.7,0,1.3,0.1,1.9,0.4c0.6,0.3,1.1,0.6,1.5,1.1
			c0.4,0.5,0.7,1.1,0.9,1.8c0.2,0.7,0.3,1.4,0.3,2.2c0,1.9-0.5,3.3-1.4,4.3s-2,1.5-3.3,1.5c-1.3,0-2.3-0.5-3-1.6V575.4z M260,569.8
			c0,1.3,0.2,2.3,0.5,2.8c0.6,1,1.4,1.4,2.4,1.4c0.8,0,1.5-0.4,2.1-1.1c0.6-0.7,0.9-1.7,0.9-3.1c0-1.4-0.3-2.5-0.8-3.1
			c-0.6-0.7-1.2-1-2-1c-0.8,0-1.5,0.4-2.1,1.1C260.2,567.5,260,568.5,260,569.8z"/>
		<path class="st4" d="M275.3,570.5l1.9-0.2c0.1,0.8,0.3,1.4,0.6,1.9c0.3,0.5,0.8,0.9,1.5,1.2c0.7,0.3,1.5,0.4,2.3,0.4
			c0.8,0,1.4-0.1,2-0.3s1-0.5,1.3-0.9c0.3-0.4,0.4-0.8,0.4-1.3c0-0.5-0.1-0.9-0.4-1.2c-0.3-0.4-0.7-0.6-1.4-0.9
			c-0.4-0.2-1.3-0.4-2.7-0.7c-1.4-0.3-2.3-0.6-2.9-0.9c-0.7-0.4-1.3-0.8-1.6-1.4c-0.4-0.6-0.5-1.2-0.5-1.9c0-0.8,0.2-1.5,0.6-2.1
			c0.4-0.7,1.1-1.2,1.9-1.5s1.7-0.5,2.8-0.5c1.1,0,2.1,0.2,2.9,0.5c0.9,0.4,1.5,0.9,2,1.6s0.7,1.5,0.7,2.4l-1.9,0.1
			c-0.1-0.9-0.4-1.7-1-2.2c-0.6-0.5-1.5-0.7-2.6-0.7c-1.2,0-2.1,0.2-2.6,0.7c-0.6,0.4-0.8,1-0.8,1.6c0,0.5,0.2,1,0.6,1.3
			c0.4,0.3,1.4,0.7,3,1.1c1.6,0.4,2.7,0.7,3.3,1c0.9,0.4,1.5,0.9,1.9,1.5c0.4,0.6,0.6,1.3,0.6,2.1c0,0.8-0.2,1.6-0.7,2.3
			c-0.5,0.7-1.1,1.3-2,1.7c-0.9,0.4-1.8,0.6-2.9,0.6c-1.4,0-2.5-0.2-3.4-0.6c-0.9-0.4-1.6-1-2.2-1.8
			C275.6,572.4,275.4,571.5,275.3,570.5z"/>
		<path class="st4" d="M297.2,571.9l1.9,0.2c-0.3,1.1-0.9,2-1.7,2.6s-1.9,0.9-3.1,0.9c-1.6,0-2.9-0.5-3.8-1.5
			c-0.9-1-1.4-2.4-1.4-4.1c0-1.8,0.5-3.3,1.4-4.3s2.2-1.5,3.7-1.5c1.5,0,2.6,0.5,3.6,1.5s1.4,2.4,1.4,4.2c0,0.1,0,0.3,0,0.5h-8.1
			c0.1,1.2,0.4,2.1,1,2.7c0.6,0.6,1.4,1,2.3,1c0.7,0,1.3-0.2,1.7-0.5S297,572.6,297.2,571.9z M291.2,568.9h6.1
			c-0.1-0.9-0.3-1.6-0.7-2.1c-0.6-0.7-1.4-1.1-2.3-1.1c-0.8,0-1.6,0.3-2.1,0.9C291.6,567.2,291.2,567.9,291.2,568.9z"/>
		<path class="st4" d="M301.5,575.4v-10.9h1.7v1.7c0.4-0.8,0.8-1.3,1.2-1.5c0.4-0.2,0.8-0.4,1.2-0.4c0.6,0,1.3,0.2,1.9,0.6l-0.6,1.7
			c-0.5-0.3-0.9-0.4-1.4-0.4c-0.4,0-0.8,0.1-1.1,0.4c-0.3,0.2-0.6,0.6-0.7,1c-0.2,0.7-0.3,1.4-0.3,2.2v5.7H301.5z"/>
		<path class="st4" d="M311.5,575.4l-4.1-10.9h1.9l2.3,6.5c0.3,0.7,0.5,1.4,0.7,2.2c0.2-0.6,0.4-1.3,0.7-2.1l2.4-6.6h1.9l-4.1,10.9
			H311.5z"/>
		<path class="st4" d="M319,562.5v-2.1h1.8v2.1H319z M319,575.4v-10.9h1.8v10.9H319z"/>
		<path class="st4" d="M330.7,571.4l1.8,0.2c-0.2,1.3-0.7,2.2-1.5,2.9c-0.8,0.7-1.8,1.1-3,1.1c-1.5,0-2.7-0.5-3.6-1.5
			c-0.9-1-1.4-2.4-1.4-4.2c0-1.2,0.2-2.2,0.6-3.1s1-1.5,1.8-2c0.8-0.4,1.7-0.7,2.6-0.7c1.2,0,2.2,0.3,2.9,0.9
			c0.8,0.6,1.2,1.4,1.4,2.5l-1.8,0.3c-0.2-0.7-0.5-1.3-0.9-1.7c-0.4-0.4-1-0.6-1.6-0.6c-0.9,0-1.7,0.3-2.3,1
			c-0.6,0.7-0.9,1.7-0.9,3.2c0,1.5,0.3,2.5,0.8,3.2s1.3,1,2.2,1c0.7,0,1.3-0.2,1.8-0.7S330.6,572.3,330.7,571.4z"/>
		<path class="st4" d="M341.6,571.9l1.9,0.2c-0.3,1.1-0.9,2-1.7,2.6s-1.9,0.9-3.1,0.9c-1.6,0-2.9-0.5-3.8-1.5
			c-0.9-1-1.4-2.4-1.4-4.1c0-1.8,0.5-3.3,1.4-4.3s2.2-1.5,3.7-1.5c1.5,0,2.6,0.5,3.6,1.5s1.4,2.4,1.4,4.2c0,0.1,0,0.3,0,0.5h-8.1
			c0.1,1.2,0.4,2.1,1,2.7c0.6,0.6,1.4,1,2.3,1c0.7,0,1.3-0.2,1.7-0.5S341.3,572.6,341.6,571.9z M335.5,568.9h6.1
			c-0.1-0.9-0.3-1.6-0.7-2.1c-0.6-0.7-1.3-1.1-2.3-1.1c-0.8,0-1.6,0.3-2.1,0.9C335.9,567.2,335.6,567.9,335.5,568.9z"/>
		<path class="st4" d="M351.8,575.4v-15h2v13.3h7.4v1.8H351.8z"/>
		<path class="st4" d="M370.4,574c-0.7,0.6-1.3,1-2,1.2c-0.6,0.2-1.3,0.4-2,0.4c-1.2,0-2.1-0.3-2.8-0.9c-0.6-0.6-1-1.3-1-2.2
			c0-0.5,0.1-1,0.4-1.5c0.2-0.4,0.6-0.8,1-1.1c0.4-0.3,0.8-0.5,1.3-0.6c0.4-0.1,0.9-0.2,1.6-0.3c1.5-0.2,2.6-0.4,3.3-0.6
			c0-0.3,0-0.4,0-0.5c0-0.8-0.2-1.3-0.5-1.6c-0.5-0.4-1.2-0.6-2.1-0.6c-0.9,0-1.5,0.2-1.9,0.5c-0.4,0.3-0.7,0.8-0.9,1.6l-1.8-0.2
			c0.2-0.8,0.4-1.4,0.8-1.9c0.4-0.5,0.9-0.8,1.6-1.1c0.7-0.3,1.5-0.4,2.5-0.4c0.9,0,1.7,0.1,2.3,0.3s1,0.5,1.3,0.8
			c0.3,0.3,0.5,0.8,0.6,1.3c0.1,0.3,0.1,0.9,0.1,1.7v2.5c0,1.7,0,2.8,0.1,3.3c0.1,0.5,0.2,0.9,0.5,1.3h-1.9
			C370.6,575,370.5,574.5,370.4,574z M370.3,569.9c-0.7,0.3-1.7,0.5-3,0.7c-0.8,0.1-1.3,0.2-1.6,0.4s-0.6,0.3-0.7,0.6
			c-0.2,0.3-0.3,0.6-0.3,0.9c0,0.5,0.2,0.9,0.6,1.2c0.4,0.3,0.9,0.5,1.6,0.5c0.7,0,1.3-0.2,1.9-0.5c0.6-0.3,1-0.7,1.2-1.3
			c0.2-0.4,0.3-1,0.3-1.8V569.9z"/>
		<path class="st4" d="M374.9,579.6l-0.2-1.7c0.4,0.1,0.8,0.2,1.1,0.2c0.4,0,0.7-0.1,1-0.2s0.4-0.3,0.6-0.6c0.1-0.2,0.3-0.6,0.6-1.4
			c0-0.1,0.1-0.3,0.2-0.5l-4.1-10.9h2l2.3,6.3c0.3,0.8,0.6,1.6,0.8,2.5c0.2-0.8,0.5-1.7,0.8-2.5l2.3-6.3h1.8l-4.1,11.1
			c-0.4,1.2-0.8,2-1,2.5c-0.3,0.6-0.7,1.1-1.1,1.3c-0.4,0.3-0.9,0.4-1.5,0.4C375.8,579.8,375.4,579.7,374.9,579.6z"/>
		<path class="st4" d="M393,571.9l1.9,0.2c-0.3,1.1-0.9,2-1.7,2.6s-1.9,0.9-3.1,0.9c-1.6,0-2.9-0.5-3.8-1.5c-0.9-1-1.4-2.4-1.4-4.1
			c0-1.8,0.5-3.3,1.4-4.3s2.2-1.5,3.7-1.5c1.5,0,2.6,0.5,3.6,1.5s1.4,2.4,1.4,4.2c0,0.1,0,0.3,0,0.5h-8.1c0.1,1.2,0.4,2.1,1,2.7
			c0.6,0.6,1.4,1,2.3,1c0.7,0,1.3-0.2,1.7-0.5S392.7,572.6,393,571.9z M386.9,568.9h6.1c-0.1-0.9-0.3-1.6-0.7-2.1
			c-0.6-0.7-1.3-1.1-2.3-1.1c-0.8,0-1.6,0.3-2.1,0.9C387.3,567.2,387,567.9,386.9,568.9z"/>
		<path class="st4" d="M397.2,575.4v-10.9h1.7v1.7c0.4-0.8,0.8-1.3,1.2-1.5c0.4-0.2,0.8-0.4,1.2-0.4c0.6,0,1.3,0.2,1.9,0.6l-0.6,1.7
			c-0.5-0.3-0.9-0.4-1.4-0.4c-0.4,0-0.8,0.1-1.1,0.4c-0.3,0.2-0.6,0.6-0.7,1c-0.2,0.7-0.3,1.4-0.3,2.2v5.7H397.2z"/>
	</g>
	<g class="st14">
		<path class="st4" d="M469.5,386.2v-15h5.2c1.2,0,2.1,0.1,2.7,0.2c0.9,0.2,1.6,0.6,2.2,1.1c0.8,0.7,1.4,1.5,1.8,2.6
			c0.4,1,0.6,2.2,0.6,3.6c0,1.1-0.1,2.2-0.4,3c-0.3,0.9-0.6,1.6-1,2.2c-0.4,0.6-0.9,1-1.4,1.4c-0.5,0.3-1.1,0.6-1.8,0.8
			c-0.7,0.2-1.5,0.3-2.4,0.3H469.5z M471.5,384.4h3.2c1,0,1.8-0.1,2.3-0.3c0.6-0.2,1-0.4,1.3-0.8c0.5-0.5,0.8-1.1,1.1-1.9
			c0.3-0.8,0.4-1.8,0.4-2.9c0-1.6-0.3-2.8-0.8-3.6c-0.5-0.8-1.1-1.4-1.9-1.7c-0.5-0.2-1.4-0.3-2.6-0.3h-3.2V384.4z"/>
		<path class="st4" d="M491.5,384.9c-0.7,0.6-1.3,1-2,1.2c-0.6,0.2-1.3,0.4-2,0.4c-1.2,0-2.1-0.3-2.8-0.9c-0.6-0.6-1-1.3-1-2.2
			c0-0.5,0.1-1,0.4-1.5c0.2-0.4,0.6-0.8,1-1.1c0.4-0.3,0.8-0.5,1.3-0.6c0.4-0.1,0.9-0.2,1.6-0.3c1.5-0.2,2.6-0.4,3.3-0.6
			c0-0.3,0-0.4,0-0.5c0-0.8-0.2-1.3-0.5-1.6c-0.5-0.4-1.2-0.6-2.1-0.6c-0.9,0-1.5,0.2-1.9,0.5c-0.4,0.3-0.7,0.8-0.9,1.6l-1.8-0.2
			c0.2-0.8,0.4-1.4,0.8-1.9c0.4-0.5,0.9-0.8,1.6-1.1c0.7-0.3,1.5-0.4,2.5-0.4c0.9,0,1.7,0.1,2.3,0.3s1,0.5,1.3,0.8
			c0.3,0.3,0.5,0.8,0.6,1.3c0.1,0.3,0.1,0.9,0.1,1.7v2.5c0,1.7,0,2.8,0.1,3.3c0.1,0.5,0.2,0.9,0.5,1.3h-1.9
			C491.7,385.8,491.6,385.4,491.5,384.9z M491.4,380.7c-0.7,0.3-1.7,0.5-3,0.7c-0.8,0.1-1.3,0.2-1.6,0.4s-0.6,0.3-0.7,0.6
			c-0.2,0.3-0.3,0.6-0.3,0.9c0,0.5,0.2,0.9,0.6,1.2c0.4,0.3,0.9,0.5,1.6,0.5c0.7,0,1.3-0.2,1.9-0.5c0.6-0.3,1-0.7,1.2-1.3
			c0.2-0.4,0.3-1,0.3-1.8V380.7z"/>
		<path class="st4" d="M500.1,384.6l0.3,1.6c-0.5,0.1-1,0.2-1.4,0.2c-0.7,0-1.2-0.1-1.6-0.3c-0.4-0.2-0.6-0.5-0.8-0.8
			c-0.2-0.3-0.2-1.1-0.2-2.2v-6.3h-1.4v-1.4h1.4v-2.7l1.8-1.1v3.8h1.9v1.4h-1.9v6.4c0,0.5,0,0.9,0.1,1c0.1,0.2,0.2,0.3,0.3,0.4
			c0.1,0.1,0.4,0.1,0.6,0.1C499.5,384.6,499.8,384.6,500.1,384.6z"/>
		<path class="st4" d="M509,384.9c-0.7,0.6-1.3,1-2,1.2c-0.6,0.2-1.3,0.4-2,0.4c-1.2,0-2.1-0.3-2.8-0.9c-0.6-0.6-1-1.3-1-2.2
			c0-0.5,0.1-1,0.4-1.5c0.2-0.4,0.6-0.8,1-1.1c0.4-0.3,0.8-0.5,1.3-0.6c0.4-0.1,0.9-0.2,1.6-0.3c1.5-0.2,2.6-0.4,3.3-0.6
			c0-0.3,0-0.4,0-0.5c0-0.8-0.2-1.3-0.5-1.6c-0.5-0.4-1.2-0.6-2.1-0.6c-0.9,0-1.5,0.2-1.9,0.5c-0.4,0.3-0.7,0.8-0.9,1.6l-1.8-0.2
			c0.2-0.8,0.4-1.4,0.8-1.9c0.4-0.5,0.9-0.8,1.6-1.1c0.7-0.3,1.5-0.4,2.5-0.4c0.9,0,1.7,0.1,2.3,0.3s1,0.5,1.3,0.8
			c0.3,0.3,0.5,0.8,0.6,1.3c0.1,0.3,0.1,0.9,0.1,1.7v2.5c0,1.7,0,2.8,0.1,3.3c0.1,0.5,0.2,0.9,0.5,1.3h-1.9
			C509.2,385.8,509.1,385.4,509,384.9z M508.9,380.7c-0.7,0.3-1.7,0.5-3,0.7c-0.8,0.1-1.3,0.2-1.6,0.4s-0.6,0.3-0.7,0.6
			c-0.2,0.3-0.3,0.6-0.3,0.9c0,0.5,0.2,0.9,0.6,1.2c0.4,0.3,0.9,0.5,1.6,0.5c0.7,0,1.3-0.2,1.9-0.5c0.6-0.3,1-0.7,1.2-1.3
			c0.2-0.4,0.3-1,0.3-1.8V380.7z"/>
		<path class="st4" d="M519,381.4l1.9-0.2c0.1,0.8,0.3,1.4,0.6,1.9c0.3,0.5,0.8,0.9,1.5,1.2c0.7,0.3,1.5,0.4,2.3,0.4
			c0.8,0,1.4-0.1,2-0.3s1-0.5,1.3-0.9c0.3-0.4,0.4-0.8,0.4-1.3c0-0.5-0.1-0.9-0.4-1.2c-0.3-0.4-0.7-0.6-1.4-0.9
			c-0.4-0.2-1.3-0.4-2.7-0.7c-1.4-0.3-2.3-0.6-2.9-0.9c-0.7-0.4-1.3-0.8-1.6-1.4c-0.4-0.6-0.5-1.2-0.5-1.9c0-0.8,0.2-1.5,0.6-2.1
			c0.4-0.7,1.1-1.2,1.9-1.5s1.7-0.5,2.8-0.5c1.1,0,2.1,0.2,2.9,0.5c0.9,0.4,1.5,0.9,2,1.6s0.7,1.5,0.7,2.4l-1.9,0.1
			c-0.1-0.9-0.5-1.7-1-2.2c-0.6-0.5-1.5-0.7-2.6-0.7c-1.2,0-2.1,0.2-2.6,0.7c-0.6,0.4-0.8,1-0.8,1.6c0,0.5,0.2,1,0.6,1.3
			c0.4,0.3,1.4,0.7,3,1.1c1.6,0.4,2.7,0.7,3.3,1c0.9,0.4,1.5,0.9,1.9,1.5c0.4,0.6,0.6,1.3,0.6,2.1c0,0.8-0.2,1.6-0.7,2.3
			c-0.5,0.7-1.1,1.3-2,1.7c-0.9,0.4-1.8,0.6-2.9,0.6c-1.4,0-2.5-0.2-3.4-0.6c-0.9-0.4-1.6-1-2.2-1.8
			C519.3,383.3,519,382.4,519,381.4z"/>
		<path class="st4" d="M532.8,380.8c0-2,0.6-3.5,1.7-4.5c0.9-0.8,2.1-1.2,3.4-1.2c1.5,0,2.7,0.5,3.7,1.5c1,1,1.4,2.3,1.4,4.1
			c0,1.4-0.2,2.5-0.6,3.3c-0.4,0.8-1,1.4-1.8,1.9c-0.8,0.4-1.7,0.7-2.6,0.7c-1.5,0-2.8-0.5-3.7-1.5
			C533.2,384,532.8,382.6,532.8,380.8z M534.7,380.8c0,1.4,0.3,2.4,0.9,3.1c0.6,0.7,1.4,1,2.3,1c0.9,0,1.7-0.3,2.3-1
			s0.9-1.8,0.9-3.2c0-1.3-0.3-2.4-0.9-3.1c-0.6-0.7-1.4-1-2.3-1c-0.9,0-1.7,0.3-2.3,1S534.7,379.4,534.7,380.8z"/>
		<path class="st4" d="M552.3,386.2v-1.6c-0.8,1.2-2,1.8-3.5,1.8c-0.6,0-1.2-0.1-1.8-0.4c-0.6-0.2-1-0.6-1.2-0.9
			c-0.3-0.4-0.5-0.8-0.6-1.4c-0.1-0.4-0.1-0.9-0.1-1.7v-6.7h1.8v6c0,1,0,1.6,0.1,1.9c0.1,0.5,0.4,0.9,0.7,1.1
			c0.4,0.3,0.8,0.4,1.4,0.4s1.1-0.1,1.6-0.4c0.5-0.3,0.8-0.7,1-1.2c0.2-0.5,0.3-1.2,0.3-2.1v-5.8h1.8v10.9H552.3z"/>
		<path class="st4" d="M556.8,386.2v-10.9h1.7v1.7c0.4-0.8,0.8-1.3,1.2-1.5c0.4-0.2,0.8-0.4,1.2-0.4c0.6,0,1.3,0.2,1.9,0.6l-0.6,1.7
			c-0.5-0.3-0.9-0.4-1.4-0.4c-0.4,0-0.8,0.1-1.1,0.4c-0.3,0.2-0.5,0.6-0.7,1c-0.2,0.7-0.3,1.4-0.3,2.2v5.7H556.8z"/>
		<path class="st4" d="M570.9,382.2l1.8,0.2c-0.2,1.3-0.7,2.2-1.5,2.9c-0.8,0.7-1.8,1.1-3,1.1c-1.5,0-2.7-0.5-3.6-1.5
			c-0.9-1-1.4-2.4-1.4-4.2c0-1.2,0.2-2.2,0.6-3.1s1-1.5,1.8-2c0.8-0.4,1.7-0.7,2.6-0.7c1.2,0,2.2,0.3,2.9,0.9
			c0.8,0.6,1.2,1.4,1.4,2.5l-1.8,0.3c-0.2-0.7-0.5-1.3-0.9-1.7c-0.4-0.4-1-0.6-1.6-0.6c-0.9,0-1.7,0.3-2.3,1
			c-0.6,0.7-0.9,1.7-0.9,3.2c0,1.5,0.3,2.5,0.8,3.2s1.3,1,2.2,1c0.7,0,1.3-0.2,1.8-0.7S570.8,383.1,570.9,382.2z"/>
		<path class="st4" d="M581.8,382.7l1.9,0.2c-0.3,1.1-0.9,2-1.7,2.6s-1.9,0.9-3.1,0.9c-1.6,0-2.9-0.5-3.8-1.5
			c-0.9-1-1.4-2.4-1.4-4.1c0-1.8,0.5-3.3,1.4-4.3s2.2-1.5,3.7-1.5c1.5,0,2.6,0.5,3.6,1.5s1.4,2.4,1.4,4.2c0,0.1,0,0.3,0,0.5h-8.1
			c0.1,1.2,0.4,2.1,1,2.7c0.6,0.6,1.4,1,2.3,1c0.7,0,1.3-0.2,1.7-0.5S581.5,383.5,581.8,382.7z M575.7,379.7h6.1
			c-0.1-0.9-0.3-1.6-0.7-2.1c-0.6-0.7-1.3-1.1-2.3-1.1c-0.8,0-1.6,0.3-2.1,0.9C576.1,378,575.8,378.8,575.7,379.7z"/>
	</g>
	<line class="st11" x1="371.7" y1="488.4" x2="542.4" y2="415.5"/>
	<line class="st11" x1="248.8" y1="489.3" x2="161.9" y2="452.5"/>
	<g>
		<g>
			<path class="st15" d="M159.3,461h-41.5c-1.3,0-2.3-1-2.3-2.3v-34.3c0-1.3,1-2.3,2.3-2.3h41.5c1.3,0,2.3,1,2.3,2.3v34.3
				C161.6,459.9,160.5,461,159.3,461z"/>
			<rect x="117.3" y="425.3" class="st16" width="42.5" height="28.5"/>
			<text transform="matrix(1 0 0 1 120.3579 433.5238)" class="st5 st17 st18">&gt;_</text>
			<g>
				<circle class="st19" cx="119.7" cy="456.1" r="0.6"/>
				<circle class="st19" cx="121.8" cy="456.1" r="0.6"/>
				<circle class="st19" cx="123.9" cy="456.1" r="0.6"/>
				<circle class="st19" cx="125.9" cy="456.1" r="0.6"/>
				<circle class="st19" cx="128" cy="456.1" r="0.6"/>
				<circle class="st19" cx="130.1" cy="456.1" r="0.6"/>
				<circle class="st19" cx="132.2" cy="456.1" r="0.6"/>
				<circle class="st19" cx="134.3" cy="456.1" r="0.6"/>
				<circle class="st19" cx="136.3" cy="456.1" r="0.6"/>
				<circle class="st19" cx="138.4" cy="456.1" r="0.6"/>
				<circle class="st19" cx="140.5" cy="456.1" r="0.6"/>
				<circle class="st19" cx="142.6" cy="456.1" r="0.6"/>
				<circle class="st19" cx="144.7" cy="456.1" r="0.6"/>
				<circle class="st19" cx="146.7" cy="456.1" r="0.6"/>
				<circle class="st19" cx="148.8" cy="456.1" r="0.6"/>
				<circle class="st19" cx="150.9" cy="456.1" r="0.6"/>
				<circle class="st19" cx="153" cy="456.1" r="0.6"/>
				<circle class="st19" cx="155.1" cy="456.1" r="0.6"/>
				<circle class="st19" cx="157.1" cy="456.1" r="0.6"/>
			</g>
			<g>
				<circle class="st19" cx="120.8" cy="457.5" r="0.6"/>
				<circle class="st19" cx="122.8" cy="457.5" r="0.6"/>
				<circle class="st19" cx="124.9" cy="457.5" r="0.6"/>
				<circle class="st19" cx="127" cy="457.5" r="0.6"/>
				<circle class="st19" cx="129.1" cy="457.5" r="0.6"/>
				<circle class="st19" cx="131.2" cy="457.5" r="0.6"/>
				<circle class="st19" cx="133.2" cy="457.5" r="0.6"/>
				<circle class="st19" cx="135.3" cy="457.5" r="0.6"/>
				<circle class="st19" cx="137.4" cy="457.5" r="0.6"/>
				<circle class="st19" cx="139.5" cy="457.5" r="0.6"/>
				<circle class="st19" cx="141.6" cy="457.5" r="0.6"/>
				<circle class="st19" cx="143.6" cy="457.5" r="0.6"/>
				<circle class="st19" cx="145.7" cy="457.5" r="0.6"/>
				<circle class="st19" cx="147.8" cy="457.5" r="0.6"/>
				<circle class="st19" cx="149.9" cy="457.5" r="0.6"/>
				<circle class="st19" cx="152" cy="457.5" r="0.6"/>
				<circle class="st19" cx="154" cy="457.5" r="0.6"/>
				<circle class="st19" cx="156.1" cy="457.5" r="0.6"/>
			</g>
		</g>
		<g>
			<ellipse class="st5" cx="156.8" cy="455.9" rx="11.5" ry="12.2"/>
			<path class="st20" d="M169.6,453.9c-0.2-2.2-1-4.2-2.3-6c-2.1-2.9-4.9-4.6-8.4-5.2c-0.7-0.1-1.4-0.2-2.1-0.2h-0.1
				c-0.7,0.1-1.3,0.1-2,0.2c-6.7,1-11.6,7.4-10.8,14.2c0.4,3.2,1.7,6,4.1,8.2c2.9,2.6,6.2,3.7,10.1,3.4c3-0.3,5.5-1.5,7.7-3.5
				C168.8,461.9,170,458.2,169.6,453.9 M166.8,460.6c-0.3-0.6-0.7-1.4-0.9-2.1c-0.3-1-0.9,0-1,0.6s-0.5,1.1-1.3,0.2
				c-0.9-1-1-0.8-1.3-0.8s-0.8,0.6-0.6,3.7c0.1,2.2,0.9,2.5,1.5,2.7c-1,0.7-2.2,1.3-3.5,1.6c-5.1,1.3-10.3-1.1-12.7-5.7
				c-2.3-4.3-1.2-9.2,1.1-11.9c0.1,0.5,0.1,0.9,0.2,1.4c0.1,1.2,0,2.4-0.2,3.5c-0.1,0.3,0,0.5,0,0.8c0,0.1,0.2,0.3,0.4,0.3
				c0.1,0,0.3-0.2,0.3-0.3c0.1-0.2,0.1-0.5,0.1-0.7s0-0.4,0-0.6c0.2,0.1,0.3,0.2,0.4,0.3c0.3,0.3,0.6,0.6,0.8,0.9
				c0.1,0.1,0.2,0.3,0.2,0.5c0,0.3,0.1,0.6,0.3,0.9s0.3,0.7,0.4,1c0.1,0.1,0.1,0.3,0.1,0.5c0.1,0.3,0.4,0.5,0.7,0.5
				c0.4,0,0.5,0.2,0.6,0.6c-0.1,0-0.2,0-0.3,0c-0.5,0-0.7,0.3-0.7,0.7c0,0.9,0.4,1.8,1.1,2.4c0.2,0.2,0.4,0.4,0.6,0.5
				c0.4,0.4,0.6,0.9,0.4,1.5c-0.1,0.3-0.2,0.6-0.3,0.8c0,0.3,0,0.6,0,0.9c0.1,0.3,0,1,0.3,0.9c0.5-0.1,0.9,0,0.9-0.6
				c0-0.1,0-0.1,0-0.2c-0.2-0.6,0.6-2.2,1-2.5s0.8-0.5,1.1-0.8c0.5-0.4,0.7-1,0.5-1.6s0-1.1,0.5-1.4c0.4-0.4,0.7-0.9,0.7-1.5
				s-0.4-1.1-1-1c-0.3,0-0.5,0.2-0.8,0.2c-0.4,0.1-0.7,0.3-1.1,0.4c-0.5,0.1-0.9-0.3-1.1-0.7c-0.2-0.3-0.3-0.4-0.6-0.2
				c-0.3,0.2-0.6,0.4-0.8,0.5c-0.3,0.2-0.5,0.1-0.7-0.1c-0.1-0.1-0.3-0.3-0.5-0.4c-0.1-0.1-0.3-0.1-0.4-0.2
				c-0.1-0.1-0.3-0.3-0.3-0.5s0.2-0.4,0.4-0.4c0.3-0.1,0.6-0.1,0.9-0.2c0.2,0,0.3-0.1,0.5-0.1c0.2-0.1,0.2-0.2,0-0.4
				c-0.1-0.1-0.2-0.1-0.3-0.1c-0.5-0.2-1-0.4-1.4-0.6c-0.1,0-0.2-0.1-0.3-0.2c-0.3-0.2-0.3-0.4-0.1-0.6c1.1-0.9,2.3-1.2,3.4,0
				c0.3,0.4,0.6,0.9,0.9,1.3c0.3,0.3,0.5,0.6,0.9,0.9c0.1,0.1,0.4,0.1,0.6,0c0.2-0.1,0.2-0.4,0.1-0.6c-0.1-0.2-0.2-0.4-0.3-0.6
				c-0.6-0.8-0.6-2.4,0.6-3c0.4-0.2,0.8-0.5,1-1c-0.2,0.1-0.4,0.1-0.6,0.2c-0.9,0.3-0.3-0.4,0.1-0.5c0.3-0.1-0.2-0.3-0.2-0.3
				s0.3-0.1,0.7-0.3c0.2-0.1,0.5-0.2,0.7-0.4c0.1-0.1,0.2-0.3,0.3-0.5c0,0,0,0-0.1-0.1c-0.2,0-0.5,0.1-0.7,0.1c-0.4,0-0.5,0-0.6-0.5
				c0-0.3-0.3-0.4-0.6-0.3c-0.2,0.1-0.3,0.2-0.5,0.4c-0.4,0.3-0.7,0.2-0.9-0.3c-0.1-0.3-0.2-0.3-0.5-0.2c-0.1,0.1-0.2,0.2-0.4,0.3
				c-0.2,0.1-0.4,0.2-0.7,0.3c-0.2,0.1-0.5,0.1-0.6-0.1c-0.2-0.3,0-0.5,0.2-0.7c0.3-0.2,0.5-0.4,0.8-0.5c0.4-0.2,0.8-0.4,1.2-0.7
				c0.3-0.2,0.4-0.5,0.3-0.8c-0.1-0.3-0.3-0.4-0.6-0.3c-0.2,0.1-0.4,0.3-0.7,0.4c-0.2,0.1-0.4,0.1-0.6,0c-0.1,0-0.1-0.2-0.1-0.3
				c0-0.1,0.1-0.2,0.2-0.2c0.6-0.1,1.1-0.2,1.7-0.2c0.1,0,0.2,0,0.2,0.1c0.4,0.5,0.9,0.7,1.5,0.9c0.5,0.1,0.5,0.1,0.6-0.4
				c0.6-0.1,1.2-0.4,1.8,0c0.3,0.2,0.6,0.5,0.9,0.8c0.1,0.1,0,0.3,0,0.4c0,0.2-0.1,0.4-0.2,0.5c-0.1,0.4,0.1,0.6,0.5,0.6
				c0.1,0,0.2,0,0.3,0c0.3,0,0.5,0.1,0.4,0.5c0,0.5,0,0.5,0.5,0.5c0.1,0,0.3,0,0.4,0.1c0.1,0,0.2,0.1,0.2,0.2
				c0.5,0.3,0.8,0.2,0.9-0.3c0-0.1,0-0.1,0-0.2c0.1-0.3,0.2-0.3,0.4-0.1c0.4,0.4,0.7,0.8,1.1,1.2c-0.4,0.4-0.4,0.8-0.3,1.2
				c0.1,0.5,0,0.9-0.2,1.3s-0.4,0.8-0.5,1.2c-0.2,0.6,0,0.9,0.7,1.1c0.6,0.1,0.7,0.3,0.7,0.9c0,0.8,0.5,1.4,1.2,1.8
				c0.2,0.1,0.3,0.1,0.5,0.2C167.8,458,167.5,459.3,166.8,460.6"/>
		</g>
	</g>
	<g>
		<circle class="st21" cx="429.6" cy="464.4" r="24.9"/>
		<path class="st5" d="M434.7,473.9c0,2.4-2,4.4-4.4,4.4s-4.4-2-4.4-4.4s2-4.4,4.4-4.4S434.7,471.5,434.7,473.9z M420.1,465.4
			l3.4,2.8c3.4-4,10.2-4,13.6,0l3.4-2.8c-2.5-3-6.3-4.8-10.2-4.8C426.3,460.6,422.6,462.4,420.1,465.4z M413.9,459.1l3.3,3
			c3.4-3.7,8.1-5.8,13.1-5.8s9.8,2.1,13.1,5.8l3.3-3c-4.2-4.6-10.2-7.3-16.4-7.3C424,451.8,418.1,454.4,413.9,459.1z"/>
	</g>
	<g>
		<g id="file_x5F_import_27_">
			<path class="st22" d="M526.3,406.2v-8.7l9.4,9.4H527C526.7,407,526.3,406.7,526.3,406.2z M525.5,408.6c-0.4,0-0.8-0.4-0.8-0.8
				v-10.2h-18.1c-0.4,0-0.8,0.4-0.8,0.8v18.1v9.4v8.7c0,0.4,0.4,0.8,0.8,0.8H535c0.4,0,0.8-0.4,0.8-0.8v-26H525.5z"/>
		</g>
		<g id="file_x5F_import_28_">
			<path class="st22" d="M541.3,413.6V405l9.4,9.4H542C541.6,414.4,541.3,414.1,541.3,413.6z M540.5,416c-0.4,0-0.8-0.4-0.8-0.8V405
				h-18.1c-0.4,0-0.8,0.4-0.8,0.8v18.1v9.4v8.7c0,0.4,0.4,0.8,0.8,0.8h28.3c0.4,0,0.8-0.4,0.8-0.8v-26H540.5z"/>
		</g>
	</g>
</g>
</svg>
