<?xml version="1.0" encoding="utf-8"?>
<!-- Generator: Adobe Illustrator 20.0.0, SVG Export Plug-In . SVG Version: 6.00 Build 0)  -->
<svg version="1.1" id="Layer_1" xmlns="http://www.w3.org/2000/svg" xmlns:xlink="http://www.w3.org/1999/xlink" x="0px" y="0px"
	 viewBox="0 0 612 612" style="enable-background:new 0 0 612 612;" xml:space="preserve">
<style type="text/css">
	.st0{fill:#AC2424;}
	.st1{opacity:0.3;clip-path:url(#SVGID_2_);fill-rule:evenodd;clip-rule:evenodd;fill:#7F1917;}
	.st2{fill-rule:evenodd;clip-rule:evenodd;fill:#7F1917;}
	.st3{fill:#FFFFFF;}
	.st4{fill-rule:evenodd;clip-rule:evenodd;fill:#F19B1F;}
	.st5{fill-rule:evenodd;clip-rule:evenodd;fill:#95C453;}
	.st6{fill-rule:evenodd;clip-rule:evenodd;fill:#FFFFFF;}
	.st7{fill:none;stroke:#FFFFFF;stroke-width:3;stroke-miterlimit:10;}
	.st8{fill-rule:evenodd;clip-rule:evenodd;fill:#0F2947;}
	.st9{fill-rule:evenodd;clip-rule:evenodd;fill:#0C1722;}
	.st10{fill-rule:evenodd;clip-rule:evenodd;fill:#EBF2FA;}
	.st11{fill-rule:evenodd;clip-rule:evenodd;fill:#F3F2DE;}
	.st12{fill-rule:evenodd;clip-rule:evenodd;fill:#DA5526;}
	.st13{fill-rule:evenodd;clip-rule:evenodd;fill:#E5E5E4;}
	.st14{fill-rule:evenodd;clip-rule:evenodd;fill:#808080;}
</style>
<g>
	<g>
		<circle class="st0" cx="306" cy="305.6" r="306"/>
	</g>
	<g>
		<defs>
			<circle id="SVGID_1_" cx="306" cy="306.4" r="306"/>
		</defs>
		<clipPath id="SVGID_2_">
			<use xlink:href="#SVGID_1_"  style="overflow:visible;"/>
		</clipPath>
		<path class="st1" d="M136.4,158.1c-0.8,0.4,0.4,1.2,0.8,2.1c0,1.7-0.4,3.7-1.7,4.2c-1.7,0-3.3-1.2-4.2-2.1
			c-1.7-0.4-3.3-0.8-4.6-1.7l-0.8-1.7c-1.7-1.2-5,0.4-6.6-1.2c-2.1,1.7-4.6-0.4-7.5,0c-1.7,0.4-2.9,1.7-5.4,1.2l-2.1-1.7l0.4-1.2
			c-0.4-1.2-4.1-2.1-2.1-3.7c-2.9,0-4.6-1.2-5-3.3v-1.7l-0.4-0.8c0-0.8,2.9-2.5,3.7-2.9h1.7c2.1-0.4,3.7-2.1,5.4-2.5
			c1.7-0.4,4.2,0.4,5,0.4c1.2-0.4,3.3-1.2,4.1-1.7l1.3-1.2c2.1-0.8,5.4-0.8,7.9-0.8c0.4,0.8,0,2.9-0.8,3.3c0.4,0.4,0.4,1.7,0.8,2.5
			c0.8,0.4,1.7,0.4,2.5,0.8c0.8,0,1.7,1.2,2.9,1.2l1.2-2.1l-1.2-1.7c0.4-0.8,1.7-0.8,2.5-1.2c-0.4-1.7-0.4-3.7,1.2-4.1
			c1.7-0.4,2.5,0.8,3.3,1.7l1.2,1.2c0.8,1.2,0.4,3.3,1.3,3.7c0.8-1.2,2.9-0.8,3.3,0.8c2.5,0,3.7-0.8,5-2.1c-2.1-2.5,1.7-5,1.7-7
			l1.2-0.8c-0.4-0.8,0-2.5,0-3.7c1.7-3.3,6.2-5,13.3-4.6c1.7,0.4,3.3,0.4,4.6,0.4c1.7-0.4,2.9-1.2,4.6-1.7c1.7,0,3.3,0,4.6,0
			l1.7-0.4c0.8,0,1.7,0.4,2.1,0.4l2.1-0.4c0.8,0,2.1,0,3.3,0.4l1.2,0.4c1.2,0.4,2.5,0.4,3.7,0.8c0.4,0,1.7,0.8,2.5,1.2
			c1.2,0.4,1.7,1.2,2.5,1.7c1.2,0.4,2.5,0.4,2.1,2.1c5,0.4,10,0.8,11.2,4.2c3.3,0.8,5-2.1,8.3-1.7c1.2-1.2,3.7-2.9,6.2-1.7
			c2.5-1.3,6.2-2.9,10.4-2.1c1.2,0.4,2.5,0.8,3.7,1.2c2.5,0.4,3.7,0.8,4.2,2.5c2.1,0.4,2.5,1.7,3.7,2.9c1.2,1.2,3.3,1.7,2.9,4.1
			c1.7,0.8,4.1,1.2,4.6,3.3c1.7,0.4,4.2,1.2,4.2,2.9c-0.4,1.3-2.1,1.7-2.9,2.5l-1.3,1.2l-1.2,0.8l-0.4,1.2l-1.7,1.2l-0.4,1.2
			c-1.7,1.7-3.3,2.9-3.7,5.4c0,1.2,0,2.1-0.4,3.3l-0.4,1.2c0,2.1,2.5,2.5,1.2,5c1.3,2.1,0,5,0,7.5c-1.2,1.3-2.1,3.7-3.7,4.6
			c-0.4,2.5-1.7,4.6-2.1,7c-1.2,3.3-1.2,5.8-3.3,7.9c-1.2,1.2-3.3,1.7-5,2.9c-2.1,1.2-3.7,1.7-5.8,2.1l-2.1,0.8
			c-1.3,0.4-2.5,0-3.3,0.4c-1.2,0-2.1,0.8-2.9,1.2c-1.2,1.2-1.7,2.9-2.9,3.7c-0.8,0.4-4.1,2.1-5.4,2.1c-1.2,0.4-2.5,0-3.3,0.4
			c-1.7,0.4-2.5,2.1-3.3,3.3v1.7c-0.4,1.2-2.5,2.5-3.7,4.1l-0.4,1.2l-0.8,1.7c-0.8,1.2-0.8,3.7-2.5,4.2c-1.2,0-2.9-0.4-3.3-0.8
			c-0.8-0.8-0.4-1.7-1.7-2.1h-2.1l-2.5-2.5c-0.4-0.8-0.4-3.3-0.8-4.1l-0.8-1.2c-0.4-1.7-0.4-3.3-0.8-5.4c0-1.7-1.2-2.9-1.2-4.2
			c0-2.9,1.2-5.8,3.3-7.5c-1.3-0.8,0-1.7-0.4-2.9l-1.3-2.1c-0.8-2.1,0-3.7,0.8-5.8c-0.4-1.2-1.3-2.5-0.8-4.6c0-0.8,0.8-1.7,1.3-2.5
			l0.4-1.7l0.4-1.7c0-0.8-0.4-2.1-0.4-3.3c0-1.7,0.8-2.9,0-4.1c-0.4-2.5-2.9-2.9-4.6-4.6l-1.7,0.4c-0.8,0-2.1-0.4-2.9-0.4l-1.7,0.4
			c-1.2,0-3.3-2.1-2.5-3.7l-1.7-1.7c-0.4-0.8-0.4-2.1-1.7-2.1c-1.7-0.4-3.7,1.2-6.2,1.7h-1.7c-0.8,0.4-1.2,1.2-2.1,1.2l-1.2,1.7
			h-1.2c-0.4,0.4-0.8,0.8-1.7,0.8c1.2,2.5-1.2,5.4-5,5c-0.4,0-1.2-0.4-2.1-0.8c-2.1-0.4-5.4-0.4-6.6-0.8l-2.1-1.2
			c-1.2-0.4-2.9-0.8-3.3-1.7c-0.4-2.5,1.2-3.7,2.5-5C141.8,156.4,137.2,156,136.4,158.1l0.8,0.4h-0.4L136.4,158.1z M566.8,442.9
			c-0.4,1.7-1.2,4.6-2.5,5.8l-3.3,1.7c-2.5,0-2.1-3.3-2.1-5.4c0.4-1.7-0.4-3.3,0.8-4.1c1.7,0.4,1.7,1.7,2.9,2.1
			C563.9,442.9,565.5,442.1,566.8,442.9L566.8,442.9z M627.3,438.8c0.8,0,1.2-0.4,2.1-0.4c1.7,1.7-0.8,3.3-1.7,4.6l-1.7,0.4
			c-0.4,1.7-1.7,2.9-3.3,4.1c-1.2,1.2-2.1,2.9-4.1,1.7c-1.2,0-0.8,0.8-1.2,1.2c-0.8,1.7-3.3,2.9-4.2,4.1l-0.8,1.7
			c-3.7,0-4.6,3.3-6.6,5.4c-0.4,0.8-2.1,1.2-2.9,2.1c-1.3,0.8-1.7,2.5-4.6,1.7l-2.1-1.7c-0.4-0.4,0-0.8,0-1.7c0-1.2-0.4-1.7,0.4-2.9
			c0.8-1.7,3.3-2.9,5-4.2c4.2-2.1,7.9-3.3,10.8-6.2c0.8-0.4,1.7-2.1,2.5-2.5l1.7,0.8l2.1,0.4c0.8,0,2.1-0.8,2.1-2.1
			c0-0.8-2.1-1.2-2.1-2.9c0.4-0.8,2.1-0.8,2.5-1.7c0.4-0.4,1.2-2.9,1.2-4.2c0-0.8-0.4-2.5-0.4-3.7c-0.4-1.2-1.2-2.5-0.8-4.1l0.4-0.4
			c1.2,1.2,2.5,1.7,2.9,3.3l-0.4,1.7l1.7,2.1C626.1,436.7,625.7,438.8,627.3,438.8L627.3,438.8z M375.6,374.9
			c1.2-0.4,1.7,2.1,2.1,4.2v1.7l-0.8,1.7c-0.8,1.2-0.8,2.9-1.7,4.6c-0.8,2.5-2.5,5-3.7,7.9c-0.4,1.7-1.2,3.7-2.1,4.1l-3.7,0.8
			c-1.2,0-2.9-1.2-3.3-2.1c0-0.4,0-0.8,0-1.7c0-1.2-0.4-2.1-0.4-2.9c0-2.5,2.5-2.9,2.9-5c0-1.2-1.2-2.1-0.8-3.7
			c0-0.8,1.2-2.5,2.1-2.9c0.8-0.4,2.1-0.4,2.9-0.4c0.8-0.4,2.1-1.2,2.9-2.1c1.2-1.3,1.7-3.3,3.3-4.2H375.6z M545.6,374.9l0.4,0.8
			l0.8-0.8H545.6z M587.1,403.1c-0.4,1.7-0.8,2.9-0.8,4.6c0,1.2,0.4,2.1,0.4,2.9c-0.4,1.2-1.3,2.5-1.7,3.3c-1.2,2.9-1.2,5-3.3,7
			l-2.5,1.7c-1.2,1.7-2.1,3.7-3.3,5.4c-0.8,0.8-1.2,1.7-1.7,2.5c-0.4,1.2-0.4,2.5-0.8,3.3c-0.8,0.8-3.3,0.4-4.6,0.8
			c-1.7,0.8-2.9,2.9-4.1,2.5c-1.7,0-1.7-1.7-2.9-1.7c-1.2,0-1.7,0.8-2.9,0.8c-0.8,0-1.7-0.8-2.1-1.2c-0.8-0.4-2.1-0.4-2.5-0.8
			c-0.8-0.8-2.1-2.1-2.1-2.9l0.8-2.1c0-0.8-0.8-1.7-1.7-1.7c-1.2-0.4-2.9,1.7-3.7,0c0-1.2,3.3,0,3.3-1.7c-0.8-0.8-2.1,0.8-2.5-0.4
			c0-0.8,2.1-1.7,1.2-2.9c-2.1,0.4-2.1,2.1-3.7,2.5c-1.2-0.8-0.8-2.1-0.8-3.3l-1.2-1.2l-0.8-2.1c-0.4-0.4-1.7,0-2.5-0.4l-2.1-1.2
			c-3.3-0.8-6.2,1.2-9.1,1.2c-1.7,0-2.1,0-3.3,0.8l-2.1,0.8c-0.8,0.4-1.2,1.7-2.5,1.7c-1.2,0.4-2.5,0-4.6,0c-2.9,0-5,2.1-7,2.5
			c-2.9,0.4-5.4-1.2-5.4-2.9c0-0.8,1.2-1.2,1.7-2.5c0.4-1.7,0.4-5,0-7.5c0-1.3-0.4-2.5-0.8-4.2c0-1.2-1.7-2.9-1.7-3.3l1.7-1.7
			c-0.8-1.7,0.4-3.3,0.8-4.6c0.4-0.8,0-1.7,0.4-2.1c0.4-0.8,2.1-0.8,3.3-1.7c1.7-0.8,2.1-1.2,4.1-1.2c1.2-0.4,2.9-1.2,4.6-1.7
			c1.2,0,2.1,0,2.9-0.4c1.2-0.4,3.3-2.5,3.3-4.6c0.8-1.7,3.3-0.8,4.6-2.5l0.4-1.2c1.2-1.2,4.1-3.3,6.2-2.9c1.2,0,1.7,2.1,3.3,1.7
			c0.8,0,0.8-0.8,1.3-1.7c0.8-0.8,2.5-2.1,2.9-2.9l-0.4-2.1c0-0.4,1.2,0,2.5,0l1.7-0.4c1.2,0,3.3,1.7,5,1.7c1.7,0,4.2-0.8,4.6,0.4
			c0.4,1.2-1.2,1.7-1.2,2.5l0.4,1.7c-3.3,0.4-1.7,2.1,0.4,3.3c1.2,0.8,2.5,2.1,4.6,1.7c0.8,0.4,0.4,1.7,1.7,2.1
			c1.2,0,1.7-1.2,2.1-2.5c0.8-2.1,0.8-2.9,0.8-4.6c0-1.2,0.4-2.9,0.8-3.7c0.4-0.8,1.2-2.1,1.2-2.5l0.4-0.4h0.4
			c0.8,0.8,1.2,1.7,1.2,2.9c0.4,0.8,0.4,2.5,1.3,2.9c0.8,1.2,2.5,0.8,2.9,2.5c0,0.8-0.4,2.1,0,2.9l0.8,1.7c0.4,1.2,0,2.5,0.4,3.3
			c0.8,1.2,3.3,1.7,4.1,3.3c0.8,0.8,0.8,2.1,1.2,2.9l2.5,2.1v1.2C583.8,400.6,585.4,402.3,587.1,403.1L587.1,403.1z M555.2,354.2
			l0.4,0.8L555.2,354.2z M546.9,354.2c1.2-1.2,5-0.4,5.4,1.2v1.7c0.4,0.8,1.2,0.8,1.7,1.7c1.7-0.4,2.1-1.2,2.1-2.5h1.2l2.1-0.8
			c0.4,0,2.1,0.8,3.3,1.2c1.7,0.4,2.5,0.4,3.7,0.8c2.5,0.8,5,1.7,7.1,2.5c1.2,0.4,2.9,1.2,2.9,2.9c0.8,0.4,1.7,0.8,2.5,0.8
			c0.4,0,1.2-0.8,2.1-0.8c1.7-0.4,2.9,0,3.7-0.8l1.7,0.4c1.2-0.4,1.7-1.7,2.9-2.5c-0.4-0.8-2.1-0.8-2.1-2.1c1.7,0,4.1,1.7,4.1,2.9
			l-1.7,1.7c-0.8,0.4-2.1,2.1-3.3,2.5c-2.1,0.4-3.7-0.4-5.4-0.8c-0.8,0.8-1.7,1.7-1.7,2.1c0,0.8,3.3,4.1,4.1,4.1h1.7
			c2.1,0,1.7,2.5-0.4,2.5c-0.4,0-1.7-0.4-2.9-0.8c-0.8,0-1.7,0-2.5,0c-2.5-0.8-2.9-4.6-6.2-4.6c-2.1,0.4-2.1,2.9-3.7,2.9l-4.1-0.4
			c-0.8-0.4-1.7-1.7-2.5-1.7c-0.4,0-3.3,0.8-3.7,0c0-1.2,1.7-1.7,1.7-2.5l-1.2-2.5c-1.2-1.3-3.7-1.3-5.8-2.1l-2.1-0.8
			c-0.8,0-1.2,0.4-1.7,0.4c-0.8,0-1.7-1.2-2.1-2.1v-1.2c-0.4-1.2-1.7-1.2-2.9-2.1l0.4-2.5L546.9,354.2z M533.6,350.5
			c-0.8,2.1-2.5,2.1-5.4,2.1c-2.1,0-5,0-5,0.8c-0.4,0.8,0,1.7,0.8,1.7c0.8,0,0.8-0.4,1.7-0.4c1.2-0.4,2.5-0.4,3.7-0.4
			c0.8,0,0.8,1.7,0,2.1c-1.2,0-2.5,0-2.9,0.8c0.4,0.8,0.8,1.7,1.2,2.5l1.7,1.7c0.4,2.5-2.1,2.5-3.3,2.1c-0.8-0.4-0.8-2.9-2.1-2.9
			c-1.7,0-0.4,2.9-0.8,3.7c-0.8,0-2.1-0.4-2.5-1.3l0.4-2.1c-0.4-0.8-1.2-1.2-1.7-2.1l1.2-2.1v-1.2l0.8-1.7l0.4-1.2
			c0-0.8,1.7-1.7,2.9-2.1c1.7,0,3.3,0.8,5,0.8C531.5,351.3,531.9,349.2,533.6,350.5L533.6,350.5z M520.7,343
			c-0.4,1.7-2.9,2.1-2.9,3.7l0.8,1.7v1.2l1.2,1.7l-1.7,0.8c-1.7,2.1-2.9,5-3.7,8.3c-0.8,0-1.7,0.4-2.5,0.4c-1.2-0.4-2.1-1.2-3.3-1.2
			c-0.4,0-1.3,0.4-2.1,0.4c-0.4-0.4-0.8-0.8-1.7-0.8c-1.2-0.4-1.7,0-2.5-0.4l-0.8-2.1c-0.4-0.8-1.7-2.5-2.1-4.1
			c0-1.7,0.4-2.9,1.7-2.9l2.1,0.4c1.2-0.4,1.7-1.7,2.5-2.5l1.2-0.4c1.7-0.4,2.1-2.1,3.3-2.9c0.8-0.8,2.9-1.2,3.7-2.5
			c0.8-0.8,0.8-2.1,2.1-2.1C517.4,340.5,519.1,342.2,520.7,343L520.7,343z M529.9,336c1.2,1.7,2.5-0.4,2.9-1.2
			C531.9,333.9,530.3,335.1,529.9,336L529.9,336z M525.3,317.3c0.8,2.1,1.2,4.6-0.4,5.8c0.4,2.5,3.3,2.5,5.8,3.3l-0.4,1.2
			c0.8,1.7,3.3,0.8,3.3,3.3v1.2c0,0.8,0.8,1.3,1.2,2.1c0.4,0.8,1.7,4.1,1.2,5c0,1.2-1.7,2.5-2.1,3.3c-3.7,0.8-2.9-4.6-6.2-3.3
			c-0.4,0.4-0.4,1.2-1.2,1.2v-2.1l2.1-2.1c0-0.8-0.8-0.8-1.2-1.7c-0.4-0.8-0.8-1.7-1.7-2.1c0.4-1.3-0.8-2.5,0-3.3
			c1.2,0,1.2,0.8,1.7,1.2c0.8,0,1.2,0.8,2.1,1.2l1.2-0.8l-1.7-0.8c-1.2-0.4-1.2-2.9-3.3-2.5c-0.8,0.4-0.4,2.1-1.7,2.1l-2.1-2.5V326
			c0-1.2-1.7-2.1-1.7-3.7c0-0.4,0.8-0.8,0.8-1.7c0.4-1.7,0-2.9,1.2-3.3C523.2,316.9,524.5,317.3,525.3,317.3L525.3,317.3z
			 M559.3,253.4l-0.4,1.7v1.2c0,1.7-2.1,1.2-2.9,2.5l-1.3,1.7c-1.2,0.4-2.9-2.1-3.7-0.4c0.4,2.5,3.3,4.6,4.2,6.6
			c0.4,0.8,0.4,2.5,0.4,3.7l-0.8,1.2l0.4,2.1v1.7c0,1.7,1.7,3.3-0.4,4.1h-1.2c-1.2,1.2-3.3,0.8-4.6,1.7c-0.8,0.8-1.2,1.7-2.1,2.5
			c-2.5-0.4-4.6,0.4-5.4,1.7h-1.7c-0.8,1.7,0,4.2-1.3,5.4c-1.7-0.8-2.1-2.1-2.9-3.7l-1.2-2.1c0-0.8,1.2-1.2,1.7-1.7l0.4-1.2l3.7-3.3
			c1.2-0.4,3.3,0,4.6-0.8c1.7-1.2,0.4-3.3,1.7-4.1l1.7,0.8c1.2-0.4,1.2-1.7,0.8-2.5l1.7-0.8c0-1.3,0.4-2.1,0.4-2.9l-1.2-1.7
			c-0.4-1.2,0.8-2.5,0.4-3.3l-0.8-0.8l-2.1-2.1c0.8-1.2,0.8-2.1,1.2-2.5l1.2-1.7v-2.1c0-0.8-2.1-2.9,0-2.9c0.8-0.4,2.1,1.2,2.5,1.7
			c1.2,0.8,2.1,1.7,3.3,1.7C557.2,254.7,557.7,253,559.3,253.4L559.3,253.4z M239.6,210.7c0.8,0,0.8-0.8,1.2-0.8
			c1.7-0.4,3.3-0.4,4.6-0.4c1.7,0,3.3-1.2,4.6-0.4c0.8,2.1,2.5,3.3,0.8,5.4c-0.4,0.8-2.5,1.7-3.7,2.1c-2.5,1.2-3.7,2.1-6.6,1.7
			c-0.8,0-0.8-0.8-1.7-0.8c-1.2-0.4-2.5,0-2.9-0.8l0.8-1.7c-0.4-0.8-1.7-0.4-2.5-1.2c0-1.2,1.7-0.4,1.7-1.7c-0.4-0.4-1.7,0-2.1-0.8
			c0.4-1.2,1.7-2.9,3.3-2.5C238.8,208.7,238.8,209.9,239.6,210.7L239.6,210.7z M102.8,186.3c-0.4,1.2,0.8,1.7,1.7,2.5
			c1.2,0.8,2.1,1.7,2.9,1.7c1.2,0.4,2.5-0.4,3.7,0.4c0.8-1.2,2.5-1.7,3.3-2.9c-0.8-0.4-1.2-1.2-2.1-1.2c-1.7,1.2-4.2-1.2-5,0
			C106.5,185.4,103.2,184.6,102.8,186.3L102.8,186.3z M51.8,168.4c2.1,0.4,4.6-0.4,6.2-0.4c1.2,0,2.5,0.8,4.1,0.4L63,168
			c2.9-0.4,7.1,0.4,8.7,1.2c0.8,0.8,1.7,1.7,2.1,2.5c2.5,0,2.9,2.1,4.1,3.3l1.7,0.8l0.4,1.2c0.4,1.3,2.9,2.9,4.6,3.3l2.1,0.4
			c0.8,0.4,2.1,2.5,1.2,3.3l-2.9,1.2c0,1.2,2.9,1.7,5,1.7c2.1,0,3.3-1.2,4.2,0.4l1.7-1.2c-1.2-0.8-3.7-0.4-4.1-2.1
			c-2.5,0.8-3.3-1.2-2.5-2.9c0-1.2-1.7-0.8-2.5-1.7c-2.5-1.7-0.4-5.4,3.3-4.2c0-2.1-4.1-1.7-2.9-4.1c-1.7-1.2-4.1-0.8-5.8-1.7
			l-2.5-2.1c-1.7-3.7,2.5-4.6,4.6-6.2l1.2-1.7c0.8-0.8,2.5-1.7,2.9-2.5c0.8-0.8,0.4-1.7,0.8-2.1c0.8-0.4,1.7,0,2.9,0l2.1-0.4
			c1.3,0.4,1.7,1.7,2.9,2.1l1.7,0.4c2.1,0.8,1.2,2.5,1.7,4.1c0.4,1.3,0.8,2.1,1.2,2.9c1.7,0.4,4.1,0.8,5,1.7
			c1.2-0.4,2.5-0.4,3.7-1.2l1.7-1.2c1.7,0,5,0.4,5.4,1.2c0.4,2.1-2.9,2.9-3.7,4.1c-0.8,1.2-2.1,4.1-2.1,5.4c0.4,0.8,1.2,1.2,1.7,2.1
			c0.4,1.3,0.8,2.9,0.8,4.2c0.4,2.1,0,3.7-0.4,5c3.3,0,5-2.9,5-5.8c0.4-2.1,0.8-4.6,0.4-6.2c-0.4-0.8-1.3-1.2-1.7-1.7
			c-0.4-1.7,0.4-3.3,1.7-3.3c1.2,0,1.2,1.2,2.1,1.2c1.2-0.4,0.4-1.2,0.4-2.1c0-2.5,3.7-2.9,7-2.5l0.4,1.2c2.1,0.4,3.3-0.4,5-0.4
			c1.2,0,2.1,0.8,3.3,1.2c0.8,0.4,2.1,0.4,2.5,0.8c-2.5,3.7-6.2,5.8-10.4,8.3c0.4,2.9-0.4,5.4,0.4,7.9c1.2,0,1.2-0.8,2.1-1.2
			c0-1.7-0.4-2.9-0.4-4.6l1.7-1.7l0.4-1.2l1.2-0.8c1.7-1.2,3.3-3.3,5.8-3.3c0.4-1.2,5.4-2.5,6.2-0.8v1.7c1.7,0.4,2.5-0.4,3.7-0.4
			c1.7,0,3.7,0.4,5,0.8c1.2,0.4,2.1,0.4,2.5,1.2l0.8,2.5l-0.4,1.7l1.2,1.2l0.4,2.1c0.4,0.8,1.7,0.8,2.5,1.7c1.2,0.4,1.2,1.7,2.1,2.9
			c0.4,0.8,1.7,0.8,2.5,1.7c0.4,0.8,0.8,2.1,0.8,2.9c0.4,2.5,0,4.2,0.4,7.1c0.8,0.8,1.7,1.2,2.1,2.5c1.2,1.2,3.3,1.7,3.3,3.3
			c0,0.8-1.2,1.2-2.1,2.1c-1.2,1.2-2.9,1.7-3.7,3.3h-0.8c-0.4,2.1,0.4,4.1-0.4,5.8l-1.7,1.7c-0.4,0.8-0.8,2.1-2.5,2.1
			c1.2,1.2-1.7,2.1-0.8,0.4c-3.3-0.8-5-2.9-8.3-3.7c-1.2-1.2-1.2-2.1-1.7-3.3c0-0.8-0.8-2.1-1.7-2.5c-2.5-1.3-7.5,0.8-7.5-2.1
			c-0.4-0.8,1.7-2.9,2.9-2.5c1.2-1.7,3.7-2.5,4.6-5c-1.2-0.8-2.9-0.8-3.3-2.5c-0.4-1.2,0.8-3.3,0.4-4.1c-0.4-0.8-2.1-0.8-3.3-1.3
			l-0.8,1.3l-2.1,1.2c0,0.8,0.4,2.1,0.4,2.9c0,0.8-3.3,2.5-4.1,3.3l-1.7,0.4l-0.4,1.2c-1.2,0-0.8-0.8-1.7-0.8
			c-1.2,1.7,0.8,2.5,1.7,3.3c0.8,0.8,0.8,1.7,1.2,2.5c0.4,1.3,2.5,2.9,0,3.3l-1.7-0.4c-0.8,0-1.7,0.8-2.9,0
			c-2.1,0.8-6.2,1.7-6.2-1.7c-1.2,0.8-4.6,2.1-6.2,0.4l-1.3,1.7l-1.2,0.4L114,212l-1.7,0.8c-0.8,0.8-1.7,1.7-2.5,2.5
			c-0.8,0.8-2.1,1.7-2.5,2.5c-0.4,0.8-1.7,3.3-1.2,4.1l1.7,1.2c0.8,1.3,0,3.7,0.8,4.6h1.7c1.2,0.8,2.9,0.8,4.1,2.1l1.7,2.1l2.1,1.2
			c0.8,0.8,1.7,1.2,2.1,1.7c1.7,0.4,3.7,0,4.1,0.8c0.4,0.8-1.2,2.9-0.8,4.2c0.4,1.2,1.2,0.8,2.1,1.7l-1.7,0.8
			c-0.4,0.8,0.8,3.3,1.7,3.3l2.9-2.1v-2.1v-2.5c0.4-1.7-1.2-2.9-0.8-5c0.4-1.7,2.1-1.7,2.9-2.5c1.2-1.2,0.8-2.5,2.5-3.3
			c-1.2-2.9,0.8-5.8,2.1-7.9c-0.8-1.2-0.4-2.5-0.4-4.1v-1.2c0.8-2.9,9.1-3.3,12-1.7l0.8,1.2c1.7,0.8,2.9,2.1,2.9,4.1l2.1,1.2
			c0.4,0.8,1.2,2.1,1.2,2.9c0,1.2-1.2,2.1-0.4,3.3c1.7,0,2.1-0.4,3.3-1.2l1.7-0.8c0.8-0.8,1.2-2.1,3.3-2.1c2.5,0,5.4,2.1,5.4,4.2
			c0.4,1.7,0,5-0.4,6.6c0,0.8-0.8,1.7-0.4,2.5c0,0.8,2.5,1.2,1.7,2.9c1.2,0.8,2.1,2.1,3.3,3.3l1.7,1.7c1.7,2.1,1.2,6.2,0.4,8.7
			c1.2,1.2,3.7,1.2,4.6,2.5c0.8,1.7,0.8,5.4-0.8,6.6c-1.7,1.2-10.4-0.4-11.2-1.7V258c-1.7,0-2.5-0.4-2.9-1.2
			c-0.8-2.9,1.7-4.6,2.9-6.6c-2.9,0-3.7,2.9-6.6,2.9l-0.8,0.8c-1.7-0.8-3.3-1.2-5.8-0.8c2.5,0.8,3.7,2.5,4.6,5
			c2.9,0,5.4,0.4,5.4,2.5c-0.4,2.5-3.3,3.3-5.8,4.1c-0.8,0-2.1,0.4-2.9,0.8c-0.8,0-2.1,0-2.9,0l-1.7,0.8c-0.8,0-1.2-1.2-1.7-1.2
			c-2.5,0-4.6,0.4-6.2,1.7c-0.4,1.7,0,3.3-1.3,4.6c-1.2,1.7-4.6,2.5-7,3.7c-1.2,0.4-3.7,1.2-4.6,2.1l-1.2,2.1l-1.2,2.1
			c0,0.4,0.4,1.7,0,2.5c-0.4,1.2-2.1,2.1-3.3,2.5c-0.8,0.4-2.1,1.2-2.9,1.7l-2.1,2.1l-1.7,0.4c-2.1,1.2-2.9,2.5-2.9,5
			c0,0.8,0.8,2.1,1.2,3.3v1.2l0.4,2.1c0,1.2-0.8,3.3-1.7,3.3c-1.7,0-4.1-4.2-4.1-5.8l0.4-1.7c-0.4-0.8-1.2-1.2-1.7-1.7
			c-1.2,0.8-2.1,0-3.3-0.4c-1.7,0-4.1,0.4-5.8,0.8c-1.2,0.4-2.5,1.7-4.6,1.2c-1.2-0.4-1.7-1.2-2.9-1.7h-1.2h-2.1
			c-1.7,0-2.9,1.2-4.1,1.7l-1.7,0.4c-0.8,0.4-1.7,1.7-2.1,2.5c-0.4,0.8,0,1.7,0,2.9c-0.4,0.8-1.2,2.1-1.7,2.9c0,0.8,0.4,1.7,0.4,2.9
			c0.4,2.9,0,6.2,2.5,7c1.2,0.4,3.7,0.8,5.4,0.4c0.8,0,0.8-0.4,2.1-0.8c1.2-1.7,6.2-6.2,9.9-5c1.2,0.4,2.5,2.5,2.1,4.1
			c0,0.8-1.2,1.7-2.5,2.1c0,1.2-0.8,2.1-0.4,3.3c3.3,0,6.6,0.8,8.3,2.1c2.9,2.5-0.4,7,1.2,10.8l1.7,1.7c2.9,0,4.1-0.4,6.2-0.4
			c0.8-0.4,1.2-1.7,2.5-1.7c1.2,0,2.1,0.4,3.3,0.8l1.7-1.7c2.9-0.8,5.4-2.9,8.7-3.3c1.7,0,3.7-0.4,5.4,0c0.8,0,1.2,0.8,2.1,0.8
			c2.5,0.4,5.8-2.5,9.1-1.7c1.2,0.4,2.5,1.2,3.7,1.7c2.9,1.2,5.8,2.1,7.9,4.2c1.7,1.7,2.1,4.1,4.1,5.8c2.5,0.4,5,1.2,6.6,2.9
			l1.3,2.1c1.2,1.7,2.5,2.9,3.3,5c1.2,1.2,2.9,2.1,4.6,3.3c1.3,0.4,2.9,0.8,4.2,1.2l2.1,1.2c2.1,0.4,3.7,0,5.4,0
			c3.7,0.4,5.8,2.1,8.7,4.1c1.2,0,2.5,0.4,3.7,0.8c0.8,1.7,2.5,1.7,2.1,4.6c0,1.2-0.4,2.9-0.8,3.7l-1.2,1.7l-0.4,2.1
			c-0.4,1.7-2.5,3.3-2.9,5.4c-0.4,1.7-0.4,3.3-0.8,4.6c-0.4,1.7-1.2,2.9-1.7,4.1c-0.4,1.2,0,1.7-0.4,2.5c-0.4,1.2-2.5,4.1-3.3,4.6
			l-1.7,0.4l-1.2,0.8l-1.7,0.4c-1.2,0.4-3.7,1.7-4.6,2.5c-0.8,0.8-1.2,2.5-2.1,3.7c-0.8,1.7-2.1,3.3-2.9,5c-0.8,1.7-0.8,3.7-2.1,5
			l-1.7,1.7l-1.2,0.4c-1.2,0.4-1.2,1.7-1.7,2.5c-0.8,0.8-2.5,1.7-3.3,2.5c-0.8,1.2-2.1,2.5-2.9,3.7l-0.4,1.7
			c-0.4,0.8-1.2,1.2-1.7,2.1c-0.4,1.2-0.8,2.5-1.7,3.3l-2.1,1.7c-2.1,1.2-4.1,2.9-6.2,4.6c-0.8,3.7-3.3,6.2-5,9.5
			c3.3,2.9,3.3,8.7,2.9,13.7c0.8,1.2,2.5,2.1,2.9,4.1v1.2c0.4,0.8,1.7,1.7,1.7,2.9c0,2.1-2.1,3.3-4.6,3.3h-0.4c-0.4,0-0.4,0-0.8,0
			c-2.5-0.4-7.5-1.7-9.5-2.5c-2.9-0.8-4.6-2.5-6.6-5c-1.7-1.7-2.5-3.7-3.7-5.8c-1.2-1.7-2.5-2.5-2.9-5c0-1.7,0.8-2.9,0.8-5
			c0-3.3-0.4-5.4,1.7-7.5c-0.8-1.2-1.2-3.7-1.7-6.6c-0.4-1.7-0.8-3.7,0.4-4.6c0-3.7,0-7.1,0.4-10.8c0-3.3,1.2-5.8,1.7-8.7
			c0.4-4.6,0-9.1-0.4-13.7c0-0.8,0-2.1,0-2.9c0-0.8-1.7-2.9-2.5-4.1c-0.8-2.1-1.2-4.1-3.3-5c-0.8-0.4-1.7-0.8-2.9-1.2
			c-0.8-0.4-2.1-0.8-2.5-1.2l-2.9-2.5c-0.4-1.2-0.4-2.9-1.3-4.1c-0.4-0.8-1.2-1.7-2.1-2.9c-0.4-0.8-1.2-2.1-1.7-2.9
			c-1.2-1.7-3.3-2.9-4.1-4.6v-1.3c-0.8-0.8-1.7-1.7-1.2-3.3c0-2.5,1.7-3.3,2.5-5.4c1.2-2.1,2.1-4.6,3.7-6.2c0.8-0.8,2.1-0.8,2.1-2.5
			c0.8-2.1-0.4-2.9-0.8-4.6c-1.7,0-2.5-0.4-3.3-0.8l-1.7-0.4c-0.8-0.8-1.2-1.7-2.1-1.7h-2.1c-1.2,0-1.7-1.7-2.5-2.1
			c-1.2-0.8-2.1-0.4-2.9-1.2c0.4-1.7-0.8-2.5-2.1-3.3c-1.2-1.7-1.2-1.7-3.7-2.5c-0.8,0-1.7-0.4-2.5-0.8c-0.8,0-2.1,0-2.9-0.4
			c-2.1-0.4-3.7-4.1-6.2-4.1c-1.2,0-2.1,0.8-3.3,0.8c-2.9,0-7-1.7-9.1-2.9c-1.2-0.4-1.7-0.8-2.5-1.2l-2.1-0.4
			c-0.8-0.4-1.2-1.2-2.1-1.7c-1.3-0.8-2.9-1.7-2.9-2.9l0.8-2.1l-0.8-2.1c0-0.8-0.8-1.7-1.2-2.5l-2.1-2.1l-0.8-0.8
			c-0.4-0.8-1.7-1.2-2.1-2.1c0-2.1-1.2-2.5-2.5-3.7c-1.2-2.1-2.5-2.9-3.3-5.8c-0.4-1.2-0.8-2.9-2.1-2.5c-0.8,0-0.8,1.7-0.4,2.5
			c0.4,1.2,1.7,2.5,2.5,3.7l0.8,2.1l1.2,2.1l0.4,1.7l0.8,1.2v1.2l1.7,1.7c0.4,0.4,0.8,1.7-0.4,1.7c-0.8,0.4-1.7-0.8-2.5-1.7
			l-2.1-2.5v-1.7c-0.4-0.8-1.2-1.2-2.1-2.1c-0.8-0.4-2.5-0.8-2.5-1.7l1.2-2.1c0-1.7-3.3-2.9-2.9-5c-1.2-0.8-2.1-2.1-2.5-3.3
			c-1.2-0.4-2.1-0.4-2.5-0.8c-1.2-0.8-1.2-2.1-1.7-2.9l-2.1-1.2c-0.8-1.2-1.7-2.9-2.5-5c-0.8-2.9-1.7-5.8-1.2-9.5
			c0.4-2.1,1.7-3.3,2.1-5.4c0.4-0.8,0-1.7,0.4-2.9c0.4-0.8,1.2-1.2,1.7-2.1c0.8-2.5,1.2-5,2.5-7.1c-2.1-3.7-7.5-9.5-4.1-14.5
			c-0.4-1.7-2.1-2.5-3.3-3.7h-0.8c0-0.8-1.2-1.7-1.2-2.5c-0.8-2.1,0.4-5,1.2-6.6c-0.8-0.8-0.4-2.1-0.8-3.3c0-0.8-0.8-1.7-0.8-2.5
			v-1.7c0-0.8-1.2-2.1-1.7-2.9c-1.2-1.7-2.9-3.3-4.1-5l-0.8-1.7c-0.4-0.4-3.3-2.5-4.1-2.9c-0.8,0-2.5-0.4-3.7,0
			c-1.7,0.4-2.9,1.7-5.4,1.2l-1.2-1.2c-1.7-0.4-2.9,1.2-4.1,0c-2.5,0.4-4.6,1.2-6.2,2.9c-3.7,0.4-5.4,3.3-7.9,4.6h-1.7l-1.7,1.2
			c-1.2,0.8-2.9,1.2-4.1,1.7l-1.2,1.2c-2.5-2.1-5.4,1.7-9.1,0.8c-1.2-1.7-0.4-4.1,2.1-4.1c1.2-2.5,4.1-2.9,6.6-4.6
			c1.2-1.3,2.9-2.5,3.7-3.7c0.4-2.1,0-4.6,0.8-6.6c-1.2-0.4-2.1-2.1-2.1-3.3l0.8-2.1c0.4-0.8-0.4-1.7,0-2.5l1.7-1.7
			c1.2-1.7,1.7-4.1,3.3-5.8c1.2-0.8,3.3-2.1,5.8-2.1l0.4-1.2c-1.7,0.4-3.3-0.4-3.3-1.7c-0.4-0.8,0.8-2.1,0.4-3.3l-0.4-1.7
			c1.2-1.2,3.3-1.7,5.4-2.1c1.2,0,2.9-1.2,4.6-0.4v2.1c1.2,2.1,4.1,0.4,3.3-2.5L2,168.4c0-0.4,0.8-1.2,0.8-2.5
			c0-1.7-1.2-2.9-1.2-4.2c0-0.8,2.1-2.5,2.9-2.9c0.8,0,1.7,0.8,2.9,0.8c0.8,0,1.7-0.4,2.5-0.8c2.5-0.8,4.6-3.7,7-3.7
			c0.8-0.4,2.1,0,2.5,0c1.2-0.4,1.7-1.7,2.9-1.7c0.8,0,1.7,0.4,2.9,0.4c1.2,0,2.1-1.2,3.3-1.2c1.2,0,2.1,2.1,2.5,2.9
			c1.7,0.4,2.5,1.7,2.9,2.9c1.2,0.4,3.3,0.4,4.6,1.2l1.7,1.2c1.7,0.8,4.6,1.7,6.2,2.5l1.2,0.8C49.3,165.5,51.4,165.9,51.8,168.4
			L51.8,168.4z M361.9,324.3l0.4-1.7c-0.4-1.2-2.5-2.5-3.3-4.1l-1.7-2.1c-1.2-1.2-2.5-1.7-2.9-2.1c-0.8-1.2-0.4-1.7-0.8-3.3
			l-1.2-2.5l-2.5-1.7c-0.8-1.2-1.2-2.5-2.5-4.1c-0.8-0.8-1.7-2.1-2.9-2.1c-2.5,0-0.4,3.3,0.4,4.6c0.8,0.8,2.1,2.1,2.1,2.9v1.7
			c0.4,0.8,2.5,1.2,2.9,2.1c0.4,0.8,0.8,1.7,0.8,2.5c0.4,0.8,0,1.7,0.4,2.9c0.4,1.2,2.5,1.7,3.3,2.9c0.8,0.8,0.8,2.5,1.7,3.3
			c0.8,1.2,2.1,1.2,2.9,2.1c1.7,0.8,2.5,2.5,3.7,2.9C363.6,327.2,362.3,325.6,361.9,324.3L361.9,324.3z M328.8,275h0.8
			C330,274.2,328.4,273.8,328.8,275L328.8,275z M291.4,278.7c-1.7-0.4-0.4-2.9-1.7-4.1c0.8-0.8,1.7-1.7,0.8-2.9
			c-0.8-0.4-2.1-0.8-3.7-0.8c-1.7,0.8-2.5,2.1-3.7,2.9l-0.8,0.4c-1.2,0.8-2.5,2.5-2.9,3.3c-1.2,1.2-1.7,2.5-2.5,3.7
			c-0.8,1.2-2.5,2.1-2.9,3.3c1.2,0.4,2.1-0.8,3.3-0.8c0.8-0.4,1.7-0.4,2.5-0.4l2.5-0.4c0.8,0,2.1,0.4,3.3,0h1.2c1.3-0.4,2.9,0,4.1,0
			c0.8,0,1.7-0.8,2.5-0.8c0.8,0,2.1,0.8,2.5,1.2c-0.8,1.2,0.8,2.5,0.4,3.3c0,0.8-0.8,0.8-1.2,2.1c1.2,0.4,2.1,2.1,3.7,2.1
			c2.1,0.4,4.1,0,5.8,0.8c0.8,0.8,0.8,2.1,2.1,2.5h1.7c1.7,0.4,3.3,2.1,4.6,2.1c2.1-0.4,0.8-2.5,1.2-3.7c0.4-1.2,2.9-1.7,4.1-1.7
			c1.7,0,2.1,0.8,3.7,1.7h1.7c1.7,0.4,3.7,0.8,5.4,1.2c1.7,0.4,2.9,0.8,4.1,0.8c1.2-0.4,2.5-1.2,4.6-1.2c1.3,0.4,2.5,0.8,3.7,0.8
			c1.7-0.4,2.5-2.9,2.9-4.6c0.4-0.8,0.8-2.1,0.8-2.5c0.4-2.1-0.4-3.7-1.7-3.7c-0.8,0-1.7,0.8-2.5,1.2c-2.5,0.4-3.3-1.2-5.4-1.2
			c-0.8,0-1.7,1.2-2.9,1.2l-1.7-0.4c-0.8,0-0.8,0.4-1.7,0.4c-1.2-0.4-1.2-1.7-2.1-2.5c-0.8-0.8-2.1-1.2-2.5-2.5c0-0.8,0-1.7,0-2.9
			l-1.2-0.8v-1.2c-1.7,0-1.7,0.8-2.5,1.7l-1.7,0.4c1.2,2.1,3.3,2.9,4.2,5c-0.8,0.4-1.2-0.4-2.1-0.4c-1.7,0.4-1.2,2.1-2.1,2.9
			c-1.7,0-2.1-1.7-3.3-2.5c-1.2-0.4-1.7-0.4-2.1-1.7v-1.2l-1.7-1.7c-0.8-1.7-0.4-3.3-1.2-5c-1.2-0.4-2.9-1.2-4.1-1.7
			c-2.9-0.8-1.7,1.2-0.4,2.1c0.8,0.4,2.9,0.4,3.7,1.2c2.5,1.7,0,5.8-2.1,6.2c-0.8,1.7-1.2,3.3-3.7,3.7c-2.9,0.4-5.8-1.2-6.2-2.9
			c-0.4-1.2-0.4-2.5-1.2-4.1c-1.7-0.4-3.3-2.1-4.6-2.9C293.9,275,293.9,279.1,291.4,278.7L291.4,278.7z M333.7,261.7
			c-1.2,0-1.7,2.1-2.5,2.9l-1.7,1.7v1.2c0,1.2-1.2,1.7-1.2,2.5c0,1.3,1.2,2.9,2.9,2.9c0.8,0.4,2.5,0.4,3.3,0c0.8,0,1.7-0.8,2.5-1.2
			c1.3-0.4,2.9-0.8,5-0.4c2.1,0,4.6,2.1,7,2.1c1.2,0,2.9,0,3.7,0c2.9-0.4,2.1-2.9,0.8-4.2c-0.4-0.4-1.7-0.4-2.5-1.2
			c-0.8-0.4-1.7-1.2-2.5-1.7l-2.1-0.8l-2.1-0.8c-2.1-0.4-3.7,1.7-5.4,1.2l-1.3-1.2c-0.4-0.4-1.2-0.8-0.8-2.1
			C335.8,262.6,335,261.3,333.7,261.7L333.7,261.7z M346.2,259.7c-0.8,1.2-5,1.2-4.6,2.9c0,0.8,2.5,0.8,3.3,0.8
			c1.7-0.4,1.7-2.1,1.7-3.3L346.2,259.7z M367.3,261.7c-1.2,0.8-2.9,1.7-2.5,2.9c0,0.8,1.2,1.7,1.7,2.1l0.4,2.1
			c0.8,1.2,1.7,1.2,2.9,2.5c0.8,1.2,1.7,2.1,2.9,2.9c-1.2,1.7-2.9,5-1.2,6.2l1.7,0.4c1.7,0.4,2.5,1.7,4.1,1.7c0.8,0,2.9-0.4,3.3-1.2
			c0.4-0.8-0.4-1.7-0.4-2.9c-0.4-1.2-2.5-2.5-2.9-4.1v-1.2l-1.2-2.1v-1.3l-2.5-1.7l-0.8-1.2c-1.7-1.7-1.7-1.2-0.4-2.9
			c0.8-0.8,0.8-1.7,2.5-1.7c0.8-0.4,1.2-2.1,0.4-2.5C371.1,258.4,369.8,260.5,367.3,261.7L367.3,261.7z M311.4,211.6
			c-1.7,0.8-0.8,2.1-0.8,3.7c-0.8,2.9-5.8,4.1-6.2,7v2.9c0.4,1.2,2.5,1.7,2.9,2.9c1.2,2.9-2.1,2.9-2.5,4.1c-1.2,2.5,0.8,4.1-0.4,6.6
			c1.2,0.4,2.9,0.8,5,0.8l0.8-1.7l1.2-1.7c0.4-0.8,0-1.7,0-2.1c0-1.2,0.8-2.5,1.7-3.3l2.1-0.4c1.2-0.8,2.5-1.2,3.7-2.1v-0.8
			c-2.1-0.8-2.1,0.8-3.7,0.8c-0.8-0.4-3.7-1.7-4.1-2.9c0-0.4,0-1.2,0-2.1c0-1.7-1.7-3.7-0.8-5l1.7-0.8c0.8-0.4,1.7-1.7,2.1-2.5
			c0.8-1.2,1.7-2.1,2.1-3.3C315.1,211.1,312.6,210.7,311.4,211.6L311.4,211.6z M442.8,157.6c4.2,0,8.3-0.8,11.2,0.4l1.7,1.2l2.5,0.4
			l1.7-1.7l2.1-1.2c1.7-0.4,5-0.4,6.2,0c1.7,0.4,2.9,1.7,4.6,2.5c0.8,0,1.7,0,2.5,0.4c1.2,0,2.9,0.8,5,0.4l2.1-0.8l0.8-1.2
			c1.7-1.7,4.6-2.5,6.6-4.1c5.4-0.8,11.2-2.5,17.4-1.7c1.2,0,2.9,1.2,4.2,1.2c1.2,0.4,2.5,0,3.3,0c4.6-0.4,10-0.8,13.3,0.4
			c0.8,0.4,1.7,1.2,2.5,1.2c4.1,0.8,5.8-1.2,8.3-2.5c2.1-0.8,3.7-1.2,7.1-1.2l1.2-0.4c2.5,0.4,5-1.7,7.9-1.7c1.3,0,2.5,0,3.7,0
			c1.2,0.4,2.9,0.8,4.1,0.8c2.1,0.4,4.1,0,5.8,0l2.1-0.8c2.1-0.4,4.1,0,5.8,0.4l1.7,0.8c1.7,0,2.9-0.8,4.1-0.8
			c1.2,0,3.3,0.8,4.2,1.2c2.1,0.8,3.3,2.9,3.3,5.8c0.8,0.8,1.2,2.1,1.2,3.3l-0.4,1.2v1.3c-0.4,0.8-1.7,0.8-2.9,0.8
			c-2.5,0.4-5.4,2.1-7.5,2.1c0.8,1.2,0.8,3.7,0.4,5.4l-0.8,2.1c1.7,0.8,2.5,2.1,3.7,3.3c1.7,1.3,5,2.1,4.2,5.4
			c-3.3,0-4.6,0.4-5.8,2.5c-1.2,2.1-1.7,3.3-2.5,6.2c-0.4,1.7-0.8,2.5-0.4,4.2l-1.2,0.4c-1.2,1.2-4.6,1.2-5.8,2.9l-0.4,2.5
			c0.8,0.4,0,0.8,0,1.7c0,1.2,1.7,2.5,0.4,3.7c0.4,1.2,1.7,2.1,2.5,2.9c1.7,2.1,2.9,3.7,2.5,7c-0.4,1.2-0.8,2.1-1.2,3.3
			c-0.4,3.3,0,6.6-0.8,8.7c-0.4,0.8-1.7,1.2-2.5,2.1c-0.4,0.8-0.4,1.7-1.2,2.1c0,1.2-0.4,2.9-1.7,2.9c-0.4-1.2,0.4-2.9,1.3-3.3
			l-0.8-1.7l-2.1-0.4c-1.7-1.2-1.2-2.9-1.7-4.6c0-0.8-1.2-1.7-2.1-2.9c-2.1-2.9-3.3-5.8-4.1-9.5c-0.4-1.7-2.1-3.3-1.2-5.8
			c0-1.2,2.1-3.3,2.1-4.6c-0.4-0.8-1.7-1.7-2.1-2.9l-0.4-1.2c-3.7,0-5,2.1-6.6,4.1l1.2,1.2c0,0.8-1.2,1.2-2.5,1.2
			c-1.2,1.2-2.1,1.7-4.1,2.1l-1.7,0.8c-1.7,0.4-4.6,0-6.6,0c-1.2,0-2.5-0.4-3.7-0.4c-1.2,0-3.3,0.8-3.7,1.7l-0.4,1.7l-0.4,2.1v0.8
			c0,1.7-1.7,2.9-2.1,5v1.7c-0.4,0.8-0.8,2.1-1.7,2.9c0,0.4-1.2,1.7,0,2.1c1.2-0.4,1.7-2.1,3.7-1.7c0.8,0.8,0.4,2.9,1.2,3.3
			c1.2,0,1.2-0.8,2.1-1.2c1.7,0,2.9,1.2,4.1,1.7c0.8,0,1.2-0.8,2.1-0.4c0.4-0.8-0.8-1.7,0-2.1c0.8,0,1.3,0.8,1.7,1.2
			c0.8,0.8,2.1,1.7,2.5,2.9l2.1,1.2l0.4,1.2l2.5,2.1c0.4,0.8,0.4,2.1,1.2,2.9l1.7,0.8c0.8,0.8,1.7,2.9,1.2,3.7
			c-0.4,1.2-2.1,1.2-2.5,2.1c0.8,1.7,3.7,2.5,3.7,5c0,1.7-2.9,2.1-5,2.1c-1.2-0.8-0.8-1.7-1.2-2.9c0-0.8-1.7-1.7-2.1-2.9v-2.5
			c-0.4-2.5-1.2-3.7-2.1-5.8c-0.4-0.8-0.8-2.1-2.1-2.5c-0.8,1.2-0.8,2.5-0.4,3.7c0.4,0.8,1.2,1.2,1.7,2.5c0,0.8,0.8,2.5,0.4,3.7
			l-0.4,1.7c-0.4,1.7-0.4,4.1-1.2,5.8c-0.4,0.8-0.8,1.7-1.2,2.5c-1.3,2.9-2.1,6.6-5.8,7.1c-0.4,2.1-1.2,3.7-0.8,6.2
			c0.8,0.8,0.8,2.1,1.7,3.3c0.4,1.3,1.7,2.1,2.1,3.3c0.4,1.7,0,6.2-0.4,7c-0.8,1.7-2.9,2.5-5.4,2.5c-1.2,0-2.1-0.8-3.7,0l-0.8-1.2
			c-2.5-0.4-4.2-2.9-5.4-5c-0.8-0.8-2.1-2.1-2.9-3.3c-0.4-0.8-0.4-1.7-1.2-2.1c-1.2,0-1.2,1.7-2.5,1.7l-0.4-2.1
			c-1.2,0.4-2.5-0.8-3.7-0.4l-0.8,1.7l-2.1,0.8c0.4,1.7,2.5,2.1,3.7,3.3c1.2,0,1.2-1.2,2.9-1.2l1.7,0.4c1.2,0,2.5,0,2.9,0.8
			c0,1.2-1.7,1.2-2.5,1.7c-1.2,0.4-3.3,2.5-3.3,3.7c0.4,1.2,1.7,1.2,2.5,2.1c0.8,0.8,1.2,2.1,2.1,3.3c0.8,0.8,2.1,1.2,2.1,1.7
			c0.8,1.2,0.4,2.5,0,3.7l1.7,1.2c-0.4,1.2-0.4,2.1-0.4,3.3l-1.2,1.7l-0.8,1.2l-0.8,1.7v1.7l-2.1,2.5c-1.2,1.2-2.9,2.9-5,3.7
			c-1.2,0.4-2.9,0.8-4.6,1.2c-0.4,0-1.2,0.8-2.1,1.2c-1.2,0.4-3.3,0.8-3.3,2.1c0,0.8,1.2,0.8,1.2,1.7c0,1.2-1.7,2.9-2.9,2.9
			c-1.2,0.4-2.5-0.8-2.1-2.1c0-1.2,1.7-1.2,1.7-2.1c0.4-2.9-4.1-2.1-5.8-0.8c-0.8,0.8-1.7,2.5-1.7,3.3l2.1,2.9
			c1.2,1.2,3.3,2.1,4.6,3.3c0.8,0.8,2.1,4.1,2.1,6.2c0,2.9-2.5,3.7-4.6,5c-1.7,0.8-2.1,2.5-4.2,2.9l-0.4-2.1l-2.1-1.2
			c-2.1-0.8-2.9-3.7-5.8-4.2l-1.7-0.8c-0.8,0-0.4,0.8-0.8,1.7c-0.4,2.5-2.1,4.6,0.8,5.4c0.4,1.2,0.4,2.5,1.2,3.3
			c1.2,2.1,5.4,2.5,5.8,5c0.4,1.2,0,2.1,0.4,2.9c0.4,0.8,0.8,1.7,1.2,2.1c0.4,0.8,1.2,1.7,0.8,2.5c-1.2,0.4-2.1-1.2-3.7-1.2
			c0.4,1.2,2.5,2.1,2.5,4.1c1.2,0.4,0.8-1.2,2.1-0.8c0,1.2-1.2,2.5,0,3.3c0.8,0,0.8-0.8,1.7-0.8c0.8,0.4,2.1,1.7,2.1,2.5
			c0,0.4-1.2,0.8-1.2,1.7c-0.8,1.2-0.4,2.5-0.4,3.3c1.7,0.8,2.9,0.4,4.6,1.2c0.8,0.4,1.2,1.2,3.3,1.2c0.8-0.4,1.2-0.8,2.1-0.8
			c1.7-0.4,3.3,1.2,5,0.8c0.8,1.2,1.2,1.7,3.3,2.1c1.2,0.4,2.5,0.8,4.1,0.4l2.1-0.4c0.8,0,1.7,0.8,2.5,0.8c0.8,0,1.7-0.4,2.5-0.4
			c0.8,0,2.1,0.4,2.9,0.4l1.7-0.8l2.1,0.4h1.7l2.1,0.8c1.2,0,2.1-0.8,2.9,0c0.4,1.2-1.7,1.2-2.5,1.7c-2.1,0.4-3.7,2.5-5.8,2.5
			c0-1.7,2.1-2.5,2.9-3.7c-0.4-0.4-1.7-0.4-2.5-0.4c-2.1,0-4.1,1.2-6.2,0.8c-0.4,0.8,1.7,0.8,0.8,1.7c-1.2,1.7-3.3-0.4-3.7-1.7
			c-1.2-0.4-2.1,0.4-2.9,0.4c-1.7,0-3.3-0.8-5-1.2l-1.7,0.4l-2.1-0.8c-1.7,0-3.3,0-5,0l-2.1-0.8c-0.8-0.4-2.1,0-2.9-0.4
			c-2.1,0-4.1-0.8-5.4-1.7l0.4-1.7l-2.1-0.4c-1.2,0-2.9-1.7-4.1-2.5c-1.2-0.8-2.9-2.1-3.7-3.7c-0.8-0.8-0.8-2.1-1.7-3.3
			c-0.4-0.8-1.7-1.2-2.1-2.1l-0.4-1.2c-0.4-0.8-1.2-1.7-2.1-2.5l-2.1-2.1l-2.5-1.7c0-0.4-1.7-1.2-0.4-2.1c0.4-0.4,1.2,0,2.5,0.4h2.1
			c0.8,0.4,1.3,1.7,2.5,2.5l1.7,0.8c1.2,0.8,2.1,2.5,3.7,2.5c0.4-1.7-1.2-2.1-1.7-3.3l-0.4-1.2l-0.8-1.2v-1.2l-2.1-2.9
			c-0.8-0.8-2.1-0.8-2.1-1.7l0.4-2.1l-0.4-1.7c0.4-1.7,0.8-2.9,0-4.6l-0.8-1.7c-0.8-2.1-1.2-5.4-2.5-5.4c-2.1-0.4-3.3,2.1-5,1.2
			l-0.8-0.4c0-1.7,0.4-2.9-0.4-4.1l-2.1-1.2c0.4-2.1-1.2-2.1-2.1-2.9c-1.2-0.8-1.7-3.3-2.5-3.3c-1.2-0.4-2.1,0.4-2.9,0.8
			c-1.7,0.4-3.7,0-5,0.4c-0.8,0.4-0.8,2.1-1.2,2.5c-0.8,0.8-2.1,1.2-2.9,1.7c-0.4,0.8-1.2,1.7-2.1,2.5l-2.5,1.7l-0.8,1.7
			c-1.2,0.8-2.9,1.2-3.7,2.1c-0.4,1.7,0.4,3.3,0.4,4.6c0,1.2-1.2,2.5-0.8,4.6c-0.4,0.8-0.8,1.7-1.7,2.5c-0.8,0.4-2.1,2.1-2.9,2.1
			c-2.5,0-3.3-4.1-4.2-5.8c-0.4-0.8-1.2-1.2-1.7-2.1c-0.8-0.8-0.8-2.5-1.7-3.7c-0.4-1.2-1.7-2.1-2.1-3.3l-0.4-1.7
			c-0.8-1.7-1.7-3.7-2.1-5.4c0-1.2,0.4-2.5-0.8-2.9c-0.8,0.4-1.7,1.2-2.5,1.2c-1.2,0-3.7-1.7-4.6-2.9v-1.2c-0.8-1.2-2.1-1.2-3.3-2.1
			c-1.2-1.2-1.7-2.9-2.9-2.9c-1.2-0.4-2.1,0.4-3.3,0.4l-1.7-0.4c-1.7,0-2.9,0.8-4.2,0.4c-2.9,0-5.4-0.8-8.7-1.2
			c-0.8,0-0.8-2.1-2.1-2.5c-1.2,0-2.5,1.2-3.3,1.2c-0.8,0-2.5-0.4-3.3-0.8c-0.8-0.4-1.2-1.3-2.5-1.7l-1.7-0.4
			c-1.2-0.4-1.7-3.3-3.3-3.7c-0.4-0.4-2.5-0.4-2.9,0.4c-0.8,2.1,3.3,4.1,3.7,5.4l1.2,2.1c0.8,0,0.8-0.8,1.7-0.4
			c1.2,0.4,0,3.3,1.7,3.7c1.2-0.4,2.5,0,3.7-0.4c2.1-0.4,2.5-3.3,4.6-3.7c0.8,0.8,0.4,1.7,0.8,2.5c0.4,0.8,1.2,1.7,2.1,2.1h2.1
			c0.8,0.4,2.9,2.1,2.9,2.9c0.4,2.1-2.9,3.3-3.3,5v1.3c-0.4,0.4-0.8,0.4-1.7,0.8l-1.2,1.2l-1.2,0.4l-1.7,1.7
			c-0.8,0.4-2.5,0.4-3.7,0.8c-0.8,0.4-1.7,1.7-2.5,2.1c-1.2,0.8-2.9,0.8-4.6,1.7l-1.7,1.2h-1.7l-1.7,0.8c-0.8,0.4-1.7,0-2.5,0.4
			c-0.4,0-0.8,0.4-2.1,0.8c-1.2,0.4-2.9,0.4-2.9,1.7c0,0.8,1.2,2.5,2.5,2.5c0.8,0,1.7-0.4,2.5-0.8h1.7l1.7-0.4
			c1.2-0.4,2.9-0.4,4.1-0.4c1.2-0.4,2.1-0.8,3.3-0.8c1.2,1.7,0.4,3.7-0.4,5.4l-1.7,2.1c-1.7,2.9-2.9,5.8-5.4,7.9
			c-1.2,1.2-2.9,2.1-4.6,3.3c-1.2,0.8-2.5,2.1-3.7,3.3c-1.7,0.8-2.5,2.5-3.7,3.3l-2.1,1.2L357,360c-1.2,1.7-2.9,2.9-0.8,5
			c-0.4,1.2-0.4,3.7,0.4,5c0.4,0.8,1.7,1.2,1.7,1.7l-0.4,2.1c0,1.2,0,2.5,0,3.7l0.4,2.1c-0.4,2.9-3.3,3.7-6.2,5
			c-1.2,0.8-2.1,1.7-3.3,2.5c-1.2,0.8-2.9,1.7-3.3,2.5c0,1.2,0.8,2.9,1.2,4.1c0,1.3-0.4,3.3-0.8,4.2c-0.8,0.8-4.1,0.4-5,2.1v1.7
			c0,1.2-0.4,2.9-1.2,4.1l-2.5,1.7c-0.8,1.2-1.7,2.5-2.5,3.3c-2.1,2.1-4.6,4.1-6.6,5l-2.5,0.4c-0.8,0.4-1.7,0.8-2.5,0.8
			c-1.3,0-2.5-0.4-4.2,0l-1.7,0.4h-1.7l-2.1,0.8c-0.8,0-2.5-0.8-3.3-1.7l-0.8-2.5l0.8-1.7l-1.2-2.5c-0.4-1.2-0.4-2.1-1.2-3.3
			c-1.3-2.1-3.3-3.3-3.7-6.6c-0.4-2.1-0.4-4.1-0.8-6.2c-0.4-0.8-1.2-1.7-1.7-2.5c-0.4-1.2-0.8-2.1-1.2-2.9c-0.4-1.2-2.1-2.1-2.1-2.9
			c-0.8-2.5,0.4-4.6,1.2-6.2v-1.7c0.8-1.7,3.3-2.5,3.3-4.1c0-1.7-1.2-2.9-1.7-4.1c0-1.2,0.4-2.1,0-3.3c-0.4-0.8-1.2-1.2-1.7-2.1
			l-0.8-2.5c-1.2-2.1-3.7-2.9-4.6-4.6l-1.2-2.5l0.8-1.7l0.4-2.1c0.4-1.7,1.7-2.9,0-4.6l-1.7,0.4l0.4-1.2c-1.2-1.2-3.7,0.4-5.8,0
			c-1.7-0.8-1.7-3.7-4.6-4.1c-3.7-0.4-7.1,2.5-10.4,2.9c-1.2,0.4-2.5-0.4-3.7-0.4c-1.2,0-2.9,0-4.2,0c-1.2,0-2.1,1.2-3.7,1.2
			c-2.9,0-5.8-2.9-8.3-4.1c-0.8-0.8-2.1-0.8-2.5-1.7c-0.8-0.8-1.2-2.5-1.7-3.3c-0.4-0.8-1.7-1.2-2.5-2.1c-0.8-0.8-1.7-1.7-2.1-2.1
			c-1.2-0.8-2.5-1.2-2.5-2.1v-1.7c0-0.8-0.8-1.2-0.8-2.1c0-0.8,1.2-1.7,1.2-2.5l0.4-1.7l0.8-2.1l-0.8-2.5l0.4-1.2
			c-0.4-1.2-2.1-1.7-1.3-3.7c0.8-0.8,1.7-2.5,2.5-4.1l1.7-1.7c0.8-0.8,0.8-1.7,1.7-2.1l1.2-1.2l2.1-2.1c1.2-0.4,2.5-0.8,3.7-1.7
			c0.8-0.4,2.1-1.7,2.1-2.5v-2.1l0.8-1.7l0.4-1.7c0.8-0.8,2.5-1.2,3.7-2.1c-0.4-2.1-0.8-4.2-1.7-5.8c-0.8-1.2-2.5-1.7-2.9-3.3
			c-0.8-2.1,0.4-3.7,1.7-5c0.4-2.1,0-3.7-0.4-5.8c2.1-2.1,7.5-1.2,10.4-2.9c0.8-1.2,2.5-2.9,1.7-4.6c-1.2-2.9-6.6-2.1-6.6-6.2
			c0-1.3,0.4-2.5,0.8-3.3c0.4-0.8,0-2.1,0.4-2.9l0.8-1.2c0.4-1.7-0.4-2.9,0-5l-1.2,1.7c0,1.2,0.8,3.3-0.8,4.1l-1.7,0.4
			c-0.8,0-2.1,1.2-3.7,1.2l-2.1-1.7c0-0.8,1.7-1.2,1.7-2.5c0-1.2-1.3-1.2-0.4-2.9l1.7-0.8c0.8-0.8,2.5-2.5,4.6-1.7l-0.4-2.1
			c-0.4-1.2-0.4-2.5-0.8-3.3c0.4-2.1,1.7-4.1,4.1-4.6c2.1-0.4,5.4,0.4,5.8,1.7c1.3,2.1,0,4.1,0.4,6.6c0.4,0.8,0.8,2.5,1.2,3.3
			c0.8,1.7,2.1,2.5,2.9,3.7c0.8,0,1.2,0.4,2.1,0.8c1.7-0.8,3.7-1.2,5.8-2.5c0.4-2.1,1.7-3.3,2.9-4.6c0-3.3,2.5-4.6,5.4-5
			c0-1.2,0-1.7,0-2.5c-2.5-0.8-2.5,1.7-5.4,1.7c-1.2,0-2.9-1.2-3.3-2.1l-0.4-1.7l-1.2-2.1v-1.2c-0.8-2.1-1.7-2.9-0.8-5l1.2-1.2
			c0.4-1.2,1.2-2.5,2.1-2.9c1.2-0.8,2.1-0.8,3.3-1.7c0.4-2.1,2.1-3.3,3.3-5.4c1.2-2.1,2.9-3.7,3.3-6.2c0.4-2.1,0-4.6,1.7-6.2
			l2.1-1.7c0.8-0.8,1.2-1.7,2.5-2.1l1.7-1.2c2.1-1.7,4.6-3.7,9.1-3.3c2.1,0.4,4.1,1.2,6.2,1.7c2.1,0.4,4.1,1.3,5.8,1.7
			c0.8,0.4,3.3,1.7,3.7,2.5c0.4,0.4,0.4,0.8,0.4,1.7c2.1,0.4,3.3,0,5.4,0.4c1.2,0.8,2.5,2.1,4.1,2.5l1.7,0.4
			c0.8,0.4,3.7,2.5,3.7,3.7c0.4,1.2-0.4,2.5-1.2,2.9c-1.7,1.7-5,0.8-7.9,0.8c0,2.5,3.3,2.5,5.4,3.7c0.8-0.4,1.2-0.8,2.1-1.2v-1.2
			c1.2-2.5,6.6-3.7,5.4-7.9c0-0.8-0.8-1.2-1.2-2.1c0.4-1.7,0.8-2.9,2.5-3.7c0.8-0.4,1.7-0.4,2.9-0.4c0.8-0.4,1.7-0.8,2.5-0.8
			c2.9-0.4,5.4,1.2,7.5,1.7c1.2-0.4,1.7-1.2,2.9-1.7l0.8-2.1c0.4-0.8,1.7-0.8,2.5-1.3l1.2-1.2c1.2,0,2.9,1.7,3.7,1.7l2.1-0.4
			c2.1-0.8,3.7-2.9,4.1-5c0.8-3.7-1.2-6.6,1.7-9.5l0.8-0.4l0.4-0.8l2.1-0.8c1.7-0.4,3.3,0,4.6,0c2.1-0.4,4.1-1.7,5.8-2.1h1.7
			c0.8,0,0.4-0.8,1.7-1.2c0-1.2,0.8-1.7,1.2-2.5l0.8-1.7l1.7-0.8l1.7-2.1l1.7-1.2c0.8-0.8,1.2-2.1,2.9-2.5c1.2-2.9,3.7-3.7,5.8-6.2
			c0.4-0.4,1.7-1.7,2.1-2.5v-1.7c0.4-0.8,1.7-1.2,2.1-2.1c-0.4-2.9,3.3-2.9,5-1.7c3.3,0,4.1,1.7,7,2.1c0.8,0,1.7-0.8,2.5-0.8
			c0.8,0,2.1,0.8,2.9,0.8c2.1,0.4,3.7,0,5,0.4c1.7,0.8,3.7,2.9,4.1,4.6C443.2,155.2,442.8,156.4,442.8,157.6L442.8,157.6z"/>
	</g>
	<g>
		<path class="st2" d="M301.3,64.2c29.9,0,58.4,6.1,84.2,16.8c26.7,11.2,51,27.6,71.5,47.7l0,0l0,0c20.1,20.1,36.5,44.4,47.7,71.1
			c10.3,26.2,16.4,54.7,16.4,84.2c0,29.9-6.1,58-16.4,84.2l0,0c-11.2,26.7-27.6,51-47.7,71.1l0,0l-0.9,0.9l-1.9,1.9l-0.9-2.8
			c-0.5-2.3-1.4-4.2-1.9-6.1c-0.9-2.3-1.9-4.2-2.8-6.1l-0.5-0.9l0.9-0.9c17.8-18.7,31.8-40.7,41.6-65.5c9.3-23.4,15-48.6,15-75.8
			c0-27.6-5.6-53.8-15.4-78.1c-10.8-24.8-25.7-47.2-44.4-65.9c-18.7-19.2-41.6-34.1-66.4-44.4c-23.8-9.8-50.5-15.4-78.1-15.4
			c-27.6,0-53.8,5.6-78.1,15.4c-24.8,10.3-47.2,25.2-65.9,44.4c-18.7,18.7-34.1,41.2-44.4,65.9c-9.8,24.3-15.4,50.5-15.4,78.1
			c0,27.6,5.6,54.3,15.4,78.1c10.3,24.8,25.7,47.2,44.4,66.4l2.3,2.3l0.9,0.9l-0.5,0.9c-0.9,2.3-1.4,4.2-1.9,6.5
			c-0.9,1.9-0.9,4.2-1.4,6.6l-0.5,3.3l-2.4-2.3c-1.4-0.9-2.8-2.3-4.2-3.7c-0.9-1-2.3-2.4-3.7-3.8l0,0
			c-20.1-20.1-36.5-44.4-47.7-71.1C87.6,342,81.5,313.9,81.5,284c0-29.5,6.1-58,16.8-84.2c11.2-26.7,27.6-51,47.7-71.1
			c20.1-20.1,44.4-36.5,71.5-47.7l0,0C243.3,70.3,271.9,64.2,301.3,64.2L301.3,64.2z M384.1,84.3C358.8,73.6,330.8,68,301.3,68
			c-29,0-57,5.6-82.3,16.4l0,0c-26.6,10.8-50.5,27.1-70.6,46.8c-19.6,20.1-36,43.9-46.8,70.1C90.9,227,85.3,254.5,85.3,284
			c0,29.5,5.6,57.1,16.4,82.8c10.8,26.2,27.1,50,46.8,70.1c1.4,1.4,2.8,2.3,4.2,3.7l1.4,1.4c0-1.4,0.5-2.3,0.5-3.7
			c0.5-1.9,1.4-3.7,1.9-5.6l-1.9-1.9l0,0c-18.7-19.2-34.1-42.1-44.9-67.3c-10.3-24.3-15.9-51.4-15.9-79.5c0-28,5.6-54.7,15.9-79.5
			c10.7-25.3,26.2-48.2,44.9-67.3l0,0c19.2-19.2,42.1-34.6,67.8-44.9c24.3-10.3,51-15.9,79-15.9c28,0,55.2,5.6,79.5,15.9
			c25.3,10.3,48.2,25.7,67.3,44.9s34.6,42.1,45.4,67.3C503.3,229.3,509,256,509,284c0,27.1-5.2,53.3-15,77.2
			c-9.8,24.3-23.8,46.8-41.6,65.5c0.9,1.9,1.4,3.3,2.4,5.1c0.5,1.4,0.9,2.3,1.4,3.7c19.2-19.6,34.6-43,45.4-68.7l0,0
			c10.3-25.7,16.4-53.3,16.4-82.8c0-29.5-6.1-57-16.4-82.8c-11.2-26.2-27.1-50-47.2-70.1l0,0C434.6,111.5,410.7,95.1,384.1,84.3
			L384.1,84.3z M301.3,104.4c23.8,0,46.3,4.7,66.4,13.1l0,0c21.5,8.9,40.7,22,56.6,37.9l0,0c15.9,15.9,29,35.1,37.4,56.1
			c8.9,20.6,13.6,43,13.6,66.4c0,23.8-4.7,46.3-13.6,66.4c-8.4,21.5-21.5,40.7-37.4,56.6l0,0l-0.5,0.5l-2.3,1.9l-0.9-2.8
			c0-1.4-0.5-3.3-1.4-4.7l0,0c-0.5-1.9-1.4-3.3-1.9-4.7l-0.9-1.4l0.9-0.9c14-14.5,25.3-31.8,33.2-51c7.5-18.3,11.2-38.8,11.2-59.9
			c0-21.5-4.2-42.5-12.2-61.2c-7.9-19.7-19.6-37.4-34.6-51.9l0,0c-15-15-32.7-26.7-51.9-35.1c-19.2-8-39.7-12.2-61.7-12.2
			c-21.5,0-42.6,4.2-61.3,12.2c-19.6,8.4-37.4,20.1-51.9,35.1c-29,29-47.2,69.2-47.2,113.2c0,22,4.2,42.6,12.1,61.7
			c8.4,19.6,20.1,36.9,35.1,51.9l1.9,1.9l0.9,0.9l-0.5,0.9c-0.9,1.9-1.4,3.3-1.9,5.1l0,0c-0.5,1.9-0.5,3.3-0.9,5.1l-0.5,3.3
			l-2.3-2.4c-1.4-0.9-2.3-1.9-3.3-2.8c-0.9-0.9-1.9-1.9-2.8-2.8l0,0c-15.9-15.9-29-35.1-37.9-56.6c-8.4-20.1-13.1-42.6-13.1-66.4
			c0-23.4,4.7-45.8,13.1-66.4c8.9-21,22-40.2,37.9-56.1l0,0c15.9-15.9,35.1-29,56.1-37.9l0,0C255.5,109.1,278,104.4,301.3,104.4
			L301.3,104.4z M366.3,120.8c-19.7-8.4-41.6-12.6-65-12.6c-22.9,0-44.9,4.2-65,12.6l0,0c-20.6,8.9-39.3,21.5-55.2,36.9
			c-15.4,15.9-28.1,34.6-36.9,55.2c-8.4,20.1-12.6,42.1-12.6,65c0,23.4,4.2,45.4,12.6,65c8.9,21,21.5,39.7,36.9,55.2
			c0.9,1.4,1.9,2.3,3.3,3.3l0.5,0.5c0-0.9,0-1.4,0.5-2.3l0,0c0.5-1.4,0.9-2.8,1.4-4.2l-1.4-1.4l0,0c-15-15-27.1-33.2-35.5-53.3
			c-7.9-19.2-12.2-40.2-12.2-62.7c0-45.4,18.3-86,47.7-116c15.4-15,33.2-27.1,53.3-35.5c19.6-7.9,40.7-12.1,62.7-12.1
			c22.4,0,43.5,4.2,62.6,12.1c20.1,8.4,38.4,20.6,53.3,35.5l0,0l0,0c15.4,15.4,27.6,33.2,35.6,53.3c8.4,19.7,12.6,40.7,12.6,62.7
			c0,21.5-4.2,42.1-11.7,61.3c-8,19.2-19.2,36.5-32.7,51.4c0.5,0.9,0.9,2.3,1.4,3.7l0,0c0.5,0.9,0.5,1.4,0.9,2.3
			c15-15.4,27.1-33.7,35.1-53.8c8.4-19.6,13.1-41.6,13.1-65c0-22.9-4.7-44.9-13.1-65c-8.4-20.6-21-39.3-36.9-55.2l0,0
			C406.1,142.3,387.4,129.7,366.3,120.8L366.3,120.8z"/>
		<path class="st3" d="M301.3,86.7c53.8,0,102.4,21.5,137.5,57c35.5,35.1,57,83.7,57,137.5c0,53.3-21.5,101.9-57,137.5l-0.5,0.5
			c-0.9-3.7-2.3-7.5-4.2-11.2c31.8-33.2,51-77.6,51-126.7c0-51-20.6-96.8-53.8-130c-33.2-33.2-79-53.8-130-53.8
			c-50.5,0-96.3,20.6-129.5,53.8c-33.2,33.2-53.8,79-53.8,130c0,50.5,20.6,96.3,53.8,129.5l1.9,2.3c-1.4,3.7-2.4,7.9-2.8,12.2
			c-2.3-2.4-4.7-4.7-7-6.6c-35.1-35.5-57-84.2-57-137.5c0-53.8,22-102.4,57-137.5C198.9,108.2,247.6,86.7,301.3,86.7L301.3,86.7z"/>
		<path class="st2" d="M169,369.6c25.3,0,45.8,20.6,45.8,46.3c0,25.2-20.6,45.8-45.8,45.8c-25.7,0-46.3-20.6-46.3-45.8
			C122.7,390.1,143.3,369.6,169,369.6L169,369.6z"/>
		<path class="st4" d="M113.3,212.9c25.7,0,46.3,20.6,46.3,45.8c0,25.7-20.6,46.3-46.3,46.3c-25.7,0-46.3-20.6-46.3-46.3
			C67,233.5,87.6,212.9,113.3,212.9L113.3,212.9z"/>
		<path class="st5" d="M211.1,74c25.2,0,45.8,20.6,45.8,46.3c0,25.3-20.6,45.8-45.8,45.8c-25.7,0-46.3-20.6-46.3-45.8
			C164.8,94.6,185.4,74,211.1,74L211.1,74z"/>
		<path class="st2" d="M395.3,74c25.7,0,46.3,20.6,46.3,46.3c0,25.3-20.6,45.8-46.3,45.8c-25.2,0-45.8-20.6-45.8-45.8
			C349.5,94.6,370.1,74,395.3,74L395.3,74z"/>
		<path class="st4" d="M498.7,212.9c25.3,0,46.3,20.6,46.3,45.8c0,25.7-21,46.3-46.3,46.3c-25.7,0-46.3-20.6-46.3-46.3
			C452.4,233.5,472.9,212.9,498.7,212.9L498.7,212.9z"/>
		<path class="st5" d="M439.7,369.6c25.7,0,46.3,20.6,46.3,46.3c0,25.2-20.6,45.8-46.3,45.8c-25.3,0-45.8-20.6-45.8-45.8
			C393.9,390.1,414.5,369.6,439.7,369.6L439.7,369.6z"/>
		<path class="st6" d="M184.9,424.8c-2.3-1.9-5.6-2.8-8.9-3.7c-0.5-0.5-1.4-0.5-1.9-0.9c-0.9-0.5-0.9-1.4-0.9-1.9
			c0-0.5,0-0.5-0.5-0.9c2.4-3.3,3.8-7.9,3.8-12.2c0-6.1-3.3-7.9-8-7.9c-4.2,0-7.9,1.9-7.9,7.9c0,4.2,1.9,9.4,4.2,12.6v0.5
			c-0.5,0.5-0.5,1.4-1.4,1.9c-0.5,0.5-1.4,0.5-1.9,0.9c-3.3,0.9-6.1,1.9-8.9,3.7c-1.4,0.9-2.3,2.3-2.8,4.2c-0.5,1.4-0.9,3.7-0.9,5.1
			h39.7c0-1.4,0-3.7-0.9-5.1C187.2,427.1,186.3,425.7,184.9,424.8L184.9,424.8z"/>
		<path class="st6" d="M227,129.2c-2.8-1.9-5.6-2.8-8.9-3.8c-0.5-0.5-1.4-0.5-1.9-0.9c-0.9-0.5-0.9-0.9-0.9-1.9
			c0-0.5-0.5-0.5-0.5-0.9c2.3-2.8,3.7-7.9,3.7-12.2c0-6.1-3.3-7.9-7.9-7.9c-4.2,0-8,1.9-8,7.9c0,4.2,1.9,9.4,4.2,12.6v0.5
			c-0.5,0.9-0.5,1.4-1.4,1.9c-0.5,0.5-1.4,0.5-1.9,0.9c-3.3,0.9-6.1,1.9-8.9,3.8c-1.4,0.9-2.3,2.3-2.8,4.2c-0.5,1.4-1,3.7-1,5.1
			h39.8c0-1.4,0-3.7-0.9-5.1C229.3,131.6,228.4,130.2,227,129.2L227,129.2z"/>
		<path class="st6" d="M496.3,239.1v4.7c-5.1,0.9-7.9,4.2-7.9,8.4c0,4.7,3.3,7.5,8.4,8.9c3.7,1.4,5.1,2.3,5.1,4.2
			c0,1.9-1.9,3.3-4.7,3.3c-3.3,0-6.1-1.4-7.9-2.4l-1.4,5.6c1.9,0.9,5.2,1.9,8,2.3v4.7h5.1v-5.1c5.2-0.9,8.4-4.7,8.4-8.9
			c0-4.7-2.3-7-8-8.9c-4.2-1.9-6.1-2.8-6.1-4.2s1.4-2.8,4.2-2.8c3.7,0,6.1,0.9,7,1.4l1.4-5.2c-1.4-0.9-3.8-1.9-6.6-1.9v-4.2H496.3z"
			/>
		<path class="st6" d="M159.6,421c-1.4-0.9-3.3-1.4-4.7-2.3c-0.5,0-0.9,0-1.4-0.5c0,0-0.5-0.5-0.5-0.9v-0.5c1.4-1.9,1.9-4.2,1.9-6.5
			c0-3.3-1.9-4.2-4.2-4.2c-2.3,0-4.2,0.9-4.2,4.2c0,2.3,0.9,5.1,1.9,6.5c0,0.5,0,0.5,0,0.5c0,0.5,0,0.9-0.5,0.9
			c-0.5,0.5-0.9,0.5-0.9,0.5c-1.9,0.5-3.7,1.4-5.1,2.3c-0.5,0.5-1.4,1.4-1.4,2.3c-0.5,0.9-0.5,1.9-0.5,2.8h22c0-0.9-0.5-1.9-0.5-2.8
			C161,422.4,160.6,421.5,159.6,421L159.6,421z"/>
		<path class="st6" d="M193.8,421c-1.4-0.9-3.3-1.4-5.2-2.3c0,0-0.5,0-0.9-0.5c-0.5,0-0.5-0.5-0.5-0.9v-0.5c0.9-1.9,1.9-4.2,1.9-6.5
			c0-3.3-1.9-4.2-4.2-4.2c-2.8,0-4.7,0.9-4.7,4.2c0,2.3,0.9,5.1,2.3,6.5c0,0.5,0,0.5,0,0.5c0,0.5-0.5,0.9-0.5,0.9
			c-0.5,0.5-0.9,0.5-1.4,0.5c-1.4,0.5-3.3,1.4-4.7,2.3c-0.9,0.5-1.4,1.4-1.9,2.3c0,0.9-0.5,1.9-0.5,2.8h22c0-0.9,0-1.9-0.5-2.8
			C195.2,422.4,194.2,421.5,193.8,421L193.8,421z"/>
		<path class="st6" d="M137.7,255.5h5.6c-0.9-7-4.2-13.1-8.9-17.8c-4.7-4.7-10.7-7.5-17.3-8.4v5.2
			C127.8,235.9,136.3,244.7,137.7,255.5L137.7,255.5z"/>
		<path class="st6" d="M109.6,234.4v-5.2c-6.6,0.9-12.6,3.8-17.3,8.4c-4.7,4.7-8,10.7-8.4,17.8H89
			C90.4,244.7,98.8,235.9,109.6,234.4L109.6,234.4z"/>
		<path class="st6" d="M117.1,283.5v5.2c6.6-0.9,12.6-3.8,17.3-8.4c4.7-5.1,8-11.2,8.9-17.8h-5.6
			C136.3,273.3,127.8,281.7,117.1,283.5L117.1,283.5z"/>
		<path class="st6" d="M89,262.5h-5.2c0.5,6.6,3.8,12.6,8.4,17.8c4.7,4.7,10.7,7.5,17.3,8.4v-5.2C98.8,281.7,90.4,273.3,89,262.5
			L89,262.5z"/>
		<path class="st6" d="M100.2,255.5c1.4-4.7,4.7-8.4,9.4-9.8v-5.1c-7.5,1.4-13.1,7.5-15,15H100.2z"/>
		<path class="st6" d="M100.2,262.5h-5.6c1.9,7.5,7.5,13.6,15,15v-5.1C104.9,270.9,101.6,267.2,100.2,262.5L100.2,262.5z"/>
		<path class="st6" d="M126.4,262.5c-1.4,4.7-4.7,8.4-9.4,9.8v5.1c7.5-1.4,13.1-7.5,15-15H126.4z"/>
		<path class="st6" d="M126.4,255.5h5.6c-1.9-7.5-7.5-13.6-15-15v5.1C121.8,247.1,125,250.8,126.4,255.5L126.4,255.5z"/>
		<path class="st6" d="M114.7,251.7v-22.5h-2.8v22.5c-2.8,0.9-5.1,2.8-5.6,5.6H83.9v2.8h22.5c0.5,2.8,2.8,5.1,5.6,5.6v22.9h2.8
			v-22.9c2.8-0.5,5.1-2.8,5.6-5.6h22.9v-2.8h-22.9C119.9,254.5,117.5,252.7,114.7,251.7L114.7,251.7z"/>
		<path class="st6" d="M410.3,109.1h-6.1v-2.8c0-2.3-1.9-4.2-4.2-4.2h-8.9c-2.3,0-4.2,1.9-4.2,4.2v2.8h-6.6c-2.3,0-4.7,1.9-4.7,4.7
			v19.6c0,2.8,2.3,4.7,4.7,4.7h29.9c2.8,0,5.1-1.9,5.1-4.7v-19.6C415.4,111,413.1,109.1,410.3,109.1L410.3,109.1z M381.3,113.8h4.2
			v19.6h-4.2V113.8z M405.6,113.8h4.2v19.6h-4.2V113.8z M393.4,113.8h4.2v19.6h-4.2V113.8z M400.5,109.1h-10.3v-2.8
			c0-0.5,0.5-0.5,0.9-0.5h8.9c0.5,0,0.5,0,0.5,0.5V109.1z"/>
		<g>
			<g>
				<path class="st3" d="M414.1,433.9c0,1.1,0.9,2,2.1,2h42c1.1,0,2-0.9,2-2v-13h-46.1V433.9z"/>
				<path class="st3" d="M458.2,407.2h-42c-1.2,0-2.1,0.9-2.1,2v3h46.1v-3C460.2,408.1,459.3,407.2,458.2,407.2z"/>
			</g>
			<path class="st3" d="M467.6,402.4v24.3c0,1.2-1,2-2.1,2h-2v-23.9h-44.1v-2.4c0-1.1,1-2.1,2.1-2.1h44
				C466.7,400.4,467.6,401.3,467.6,402.4z"/>
		</g>
	</g>
	<circle class="st3" cx="306" cy="269.3" r="67.1"/>
	<circle class="st7" cx="306" cy="269.3" r="72.7"/>
	<g>
		<path class="st8" d="M265.5,419.1h80.8c3.7,0,7,3,7,7v130.7c0,4-3.3,7-7,7h-80.8c-3.7,0-6.8-3-6.8-7V426.1
			C258.7,422.1,261.7,419.1,265.5,419.1L265.5,419.1z"/>
		<path class="st9" d="M273.2,427h65.5c1.9,0,3.5,1.6,3.5,3.5v1.6c0,1.9-1.6,3.5-3.5,3.5h-65.5c-1.9,0-3.5-1.6-3.5-3.5v-1.6
			C269.7,428.6,271.3,427,273.2,427L273.2,427z"/>
		<path class="st10" d="M272.5,441.4h66.9c1.6,0,2.8,1.2,2.8,2.8V472c0,1.6-1.2,2.8-2.8,2.8h-66.9c-1.4,0-2.8-1.2-2.8-2.8v-27.7
			C269.7,442.6,271.1,441.4,272.5,441.4L272.5,441.4z"/>
		<path class="st11" d="M271.3,479.2h16.5c0.9,0,1.6,0.7,1.6,1.6v16.5c0,0.9-0.7,1.6-1.6,1.6h-16.5c-0.9,0-1.6-0.7-1.6-1.6v-16.5
			C269.7,479.9,270.4,479.2,271.3,479.2L271.3,479.2z"/>
		<path class="st11" d="M297.6,479.2h16.5c0.9,0,1.6,0.7,1.6,1.6v16.5c0,0.9-0.7,1.6-1.6,1.6h-16.5c-0.9,0-1.6-0.7-1.6-1.6v-16.5
			C296,479.9,296.7,479.2,297.6,479.2L297.6,479.2z"/>
		<path class="st11" d="M323.9,479.2h16.5c0.9,0,1.6,0.7,1.6,1.6v16.5c0,0.9-0.7,1.6-1.6,1.6h-16.5c-0.9,0-1.6-0.7-1.6-1.6v-16.5
			C322.3,479.9,323,479.2,323.9,479.2L323.9,479.2z"/>
		<path class="st11" d="M271.3,506h16.5c0.9,0,1.6,0.9,1.6,1.6v16.5c0,0.9-0.7,1.6-1.6,1.6h-16.5c-0.9,0-1.6-0.7-1.6-1.6v-16.5
			C269.7,506.9,270.4,506,271.3,506L271.3,506z"/>
		<path class="st11" d="M297.6,506h16.5c0.9,0,1.6,0.9,1.6,1.6v16.5c0,0.9-0.7,1.6-1.6,1.6h-16.5c-0.9,0-1.6-0.7-1.6-1.6v-16.5
			C296,506.9,296.7,506,297.6,506L297.6,506z"/>
		<path class="st11" d="M323.9,506h16.5c0.9,0,1.6,0.9,1.6,1.6v16.5c0,0.9-0.7,1.6-1.6,1.6h-16.5c-0.9,0-1.6-0.7-1.6-1.6v-16.5
			C322.3,506.9,323,506,323.9,506L323.9,506z"/>
		<path class="st12" d="M271.3,533h16.5c0.9,0,1.6,0.7,1.6,1.6v16.5c0,0.7-0.7,1.6-1.6,1.6h-16.5c-0.9,0-1.6-0.9-1.6-1.6v-16.5
			C269.7,533.7,270.4,533,271.3,533L271.3,533z"/>
		<path class="st4" d="M297.6,533h16.5c0.9,0,1.6,0.7,1.6,1.6v16.5c0,0.7-0.7,1.6-1.6,1.6h-16.5c-0.9,0-1.6-0.9-1.6-1.6v-16.5
			C296,533.7,296.7,533,297.6,533L297.6,533z"/>
		<path class="st5" d="M323.9,533h16.5c0.9,0,1.6,0.7,1.6,1.6v16.5c0,0.7-0.7,1.6-1.6,1.6h-16.5c-0.9,0-1.6-0.9-1.6-1.6v-16.5
			C322.3,533.7,323,533,323.9,533L323.9,533z"/>
		<rect x="279.2" y="366.7" class="st6" width="53.3" height="69.2"/>
		<rect x="279.2" y="433.3" class="st13" width="53.3" height="2.6"/>
		<rect x="288.1" y="376" class="st14" width="35.9" height="4.2"/>
		<rect x="288.1" y="385.8" class="st14" width="35.9" height="4.2"/>
		<rect x="288.1" y="395.6" class="st14" width="35.9" height="4"/>
		<rect x="288.1" y="405.1" class="st14" width="35.9" height="4.2"/>
		<rect x="288.1" y="414.9" class="st14" width="35.9" height="4.2"/>
	</g>
	
		<image style="overflow:visible;" width="516" height="410" xlink:href="../../../404.html"  transform="matrix(0.1836 0 0 0.1836 258.6303 236.9781)">
	</image>
</g>
</svg>
