<?xml version="1.0" encoding="utf-8"?>
<!-- Generator: Adobe Illustrator 20.0.0, SVG Export Plug-In . SVG Version: 6.00 Build 0)  -->
<svg version="1.1" id="Layer_1" xmlns="http://www.w3.org/2000/svg" xmlns:xlink="http://www.w3.org/1999/xlink" x="0px" y="0px"
	 viewBox="0 0 612 612" style="enable-background:new 0 0 612 612;" xml:space="preserve">
<style type="text/css">
	.st0{clip-path:url(#SVGID_2_);}
	.st1{fill:url(#SVGID_3_);}
	.st2{fill:#E3B882;}
	.st3{fill:#EFC18C;}
	.st4{fill:#E3E6E8;}
	.st5{fill:#212227;}
	.st6{fill:#2F3031;}
	.st7{fill:#C6A076;}
	.st8{fill:#D7AD7B;}
	.st9{fill:#E8B377;}
	.st10{fill:#042E44;}
	.st11{fill:#53687A;}
	.st12{fill:#CED0D0;}
	.st13{fill:#B7B9BB;}
	.st14{fill:#8C8E91;}
	.st15{fill:#939494;}
	.st16{fill:#4CC0BD;}
	.st17{fill:#526576;}
	.st18{fill:#A2A4A6;}
	.st19{fill:#9D9C9E;}
	.st20{fill:#FFFFFF;}
	.st21{fill:#345E59;}
	.st22{opacity:0.6;fill:#71B8B0;enable-background:new    ;}
	.st23{opacity:0.3;fill:#99D3CD;enable-background:new    ;}
	.st24{font-family:'Arial-BoldMT';}
	.st25{font-size:24.1675px;}
	.st26{fill:#0A2532;}
	.st27{fill:#CBCACA;}
</style>
<g>
	<g>
		<g>
			<defs>
				<circle id="SVGID_1_" cx="306" cy="306" r="306"/>
			</defs>
			<clipPath id="SVGID_2_">
				<use xlink:href="#SVGID_1_"  style="overflow:visible;"/>
			</clipPath>
			<g class="st0">
				
					<radialGradient id="SVGID_3_" cx="308" cy="296.3856" r="307.5032" gradientTransform="matrix(1.0112 0 0 -1.0023 -3.4382 614.5916)" gradientUnits="userSpaceOnUse">
					<stop  offset="0" style="stop-color:#FFFFFF"/>
					<stop  offset="1" style="stop-color:#7AC8A5"/>
				</radialGradient>
				<ellipse class="st1" cx="308" cy="317.5" rx="309.5" ry="309.6"/>
				<g>
					<path class="st2" d="M109.8,328.8c-6.3-1.8-54.7-18.4-58.9-7.4c-4.2,10.9,35,14.7,40.7,15.5
						C105.9,340.1,109.7,334.2,109.8,328.8z"/>
					<path class="st3" d="M129.2,371.9l-24.6-12.9l-11.8-6.2l-0.3,0.3l4,2.1c11.1,5.6,2.8,17.2-6.2,12.4l-7.4-3.8l-0.3,0.4l3.8,2
						c11.1,5.6,2.8,17.2-6.2,12.4l-7.2-3.8l-0.4,0.4l3,1.5c11.1,5.6,2.8,17.2-6.2,12.4l-6.4-3.3c-16-7.3-35.2-18.3-42.6-31.5
						c-7.6-18,11.5-34.1,21.9-35.1c8.2-0.8,13.9-2.2,18.6,0.2l75,38.4C147.3,363.4,138.2,376.7,129.2,371.9z"/>
				</g>
				<polygon class="st4" points="32.9,312 45.5,317.5 25.3,364.5 7.2,355.3 				"/>
				<g>
					<polygon class="st5" points="-136.7,235.6 43.4,315.1 18.1,372.6 -136.7,304.1 					"/>
					<polygon class="st6" points="-136.7,235.6 43.4,315.1 30.2,345 -136.7,269.1 					"/>
				</g>
				<polygon class="st4" points="505.9,314.2 493.3,319.6 513.4,366.6 531.5,357.4 				"/>
				<g>
					<g>
						<path class="st7" d="M459.1,373.5c-5.2,2.2-47.8,26.9-48.2,26.1c-0.7-1.7-4.1-8,4.7-13.2C424.5,381.1,459.1,373.5,459.1,373.5
							z"/>
						<path class="st8" d="M450.5,377.7c-5.5,1.2-52,17.5-52.2,16.6c-0.4-1.8-2.6-8.6,7.1-12.1C415,378.8,450.5,377.7,450.5,377.7z"
							/>
						<path class="st3" d="M501.9,319.1c-21.1-0.3-79.4,29.5-73.3,38.9c2.9,4.6,8.8,1.7,21-4.1c14.4-6.8-1.9,9.4-14.2,13.6
							c0,0-18.8,1.2-28.1,7.7c-5.7,5.2-6.9,12.8-2.7,11.2c18.1-4.4,54.9-7.3,65.6-12.9c16.1-8.4,25.7-15.1,41.1-25.1
							C508.7,340.4,504.2,326.6,501.9,319.1z"/>
						<path class="st9" d="M435.4,367.4c28.1-10.5,30.9-8.6,56.8-40c-21.7,21.7-37.8,24.8-37.8,24.8
							C455.7,354.8,446.6,363.3,435.4,367.4z M435.4,367.4c-0.2,0.1-0.5,0.1-0.9,0.1C435.1,367.4,435.4,367.4,435.4,367.4z"/>
					</g>
					<g>
						<polygon class="st5" points="675.6,235.6 495.5,315.1 520.8,372.6 675.6,304.1 						"/>
						<polygon class="st6" points="675.6,235.6 495.5,315.1 508.7,345 675.6,269.1 						"/>
					</g>
				</g>
				<g>
					<polygon class="st10" points="276.4,428 446.5,449.8 664.7,468.4 664,478.2 549.8,542.3 348.1,654.5 64.3,574.4 -125.7,521.2 
						-126.6,511.7 114.9,465.5 					"/>
				</g>
				<g>
					<polygon class="st11" points="630.1,465.4 664.7,468.4 664,478.2 549.8,542.3 348.1,654.5 348.1,644.6 342.9,602.6 					"/>
				</g>
				<path class="st12" d="M275.4,418.5c52.3,6.7,108.9,13.9,170.2,21.7c66.6,8.5,139.4,17.8,219.2,28.1
					c-32.8,18.2-71,39.5-115.9,64.4c-53.8,30-119.3,66.5-200.7,111.8c-109.5-30.6-203.5-56.8-284.9-79.6
					c-71.2-19.9-134.1-37.5-189.9-53.1C-34.4,490.4,45,472,113.9,456C174.2,441.9,227.7,429.6,275.4,418.5z"/>
				<path class="st4" d="M276.2,421.4c50.2,6.5,104.1,13.5,162.4,21.1c63.2,8.2,132,17.1,207,27c-32.5,17.2-69.9,37.2-113.4,60.4
					C480.7,557.5,419,590.6,343.5,631c-100.6-27.3-187.8-50.9-264-71.7c-67.3-18.2-127.3-34.6-181-49.1
					c85.3-20.1,159.3-37.6,224.1-52.8C179.8,444,230.7,432.1,276.2,421.4z"/>
				<polygon class="st13" points="279.3,443 268.2,439.6 247,445.7 				"/>
				<path class="st14" d="M319.1,436.5c-5.1-1.1-10-2.1-14.9-3.2c-8.6,1.3-17.3,2.7-26.1,4.1c2.2,0.7,4.6,1.4,6.9,2.1
					c3.3-0.6,6.9-1.1,10.3-1.7c1.9,0.5,3.9,0.9,6,1.4C307.3,438.3,313.3,437.4,319.1,436.5z"/>
				<polygon class="st14" points="333.9,438.8 327.7,437.4 307.3,441.5 313.7,443.1 				"/>
				<polygon class="st14" points="68.4,488.2 50.9,485.7 9.8,498.1 20.1,499.7 				"/>
				<path class="st14" d="M238.7,443.2c-4.4,1.2-8.9,2.4-13.3,3.6c-5-0.7-9.8-1.3-14.7-2c4.6-1.1,9.1-2.2,13.7-3.3
					C228.9,442.1,233.7,442.7,238.7,443.2z"/>
				<polygon class="st15" points="78.2,559 58.8,554.5 423.7,437.5 424.6,437.9 362.2,467.3 				"/>
				<polygon class="st16" points="455.8,444.3 115.1,569 68.5,556.7 428.5,440.5 				"/>
				<path class="st17" d="M628.6,478.5l-53.1-2.9l-23.2,19.6l49.1-2.4l-4.4,2.4l-99.7,4.8l60.1,16.3l-3.9,2.1l-62.3-17.1L464.8,518
					l66.6,12.3l-1,0.6L464,518.5l-16.5,10.3l64.1,12l-4.6,2.4l-22.4-4.3l-54.2,35.8l14.8,1.7l-5.8,3.1l-60.7-7.3l-23.7,15l29.9,3.6
					l27.1,3.3l-1.2,0.6l-26.6-3.3l-30.2-3.6l-18.6,11.8l56.1,5.4l-3.4,1.9l-55.6-5.4L303.6,620l-8.9-2.4l27.2-16.9l-38.7-3.8
					l-2.8-0.2l1.5-1.1l45.1-29.4l-45.5-6.8l-66,37l-10.4-2.9l144.2-80.9l-26.4-5.2l-172.4,71.3L141,576l250.6-102.1l-48.6-13.7
					L50.3,551.5l-3.1-0.9l92.4-29.2l-50.8-7.7L2.4,538.3l-11.2-3L74.9,512l-48.4-7.1l-72.1,20.4l-5-1.3l71.1-19.9l-28.8-4.2
					l-70.6,16.5l-2.3-0.6l70-16.4l-26.9-3.9l3.7-0.9l26.8,3.9l60.5-15.5l-24.1-3.3l1.6-0.4l24,3.3l53.3-15l-19.1-1.9l2.9-0.7l19,1.9
					l91.9-21.5l-11.6-3.7l2.4-0.6l11.7,3.7l47.5-11.1l-12-3.7l4.3-1l12.1,3.6l22.2-5.2l-15.2-2.9l2-0.5l15.3,2.9l13-3.1l2.2,0.3
					l-13.3,3.1l20.9,4l21.1-3.4l4.8,0.6l-21.9,3.6l21.9,4.2h0.1l10.4,1.9l24.8-5.1l10.8,1.4l-58.3,16.2l27.6,7.8l10.5-2.9l60.3-16.7
					l2.1,0.3l-60.8,17.2l-10,2.8l48.4,13.4l61.1-27.1l6.9,0.4l-63.4,27.9l12.5,3.3l33.6-18.8l21.1-11.8l12.6,1.6l-23.7,13.3
					L424,479.4l25,7.3l34-7.7h-0.1l0.6-0.1l37.4-8.5l0.7-0.2l1.1,0.1l19.4,1.6l3.7-15.5l1.7,0.2l-3.6,15.4l28.8,2.4l15.3-12.6
					l3.3,0.4l-14.9,12.4l53.6,2.9L628.6,478.5L628.6,478.5z M184.1,459.2L184.1,459.2l-22.3-3.5l-48.5,11.4l30.1,3L184.1,459.2
					L184.1,459.2z M162.8,455.3L162.8,455.3l22.2,3.5l32.7-8.7l-13.8-4.4L162.8,455.3L162.8,455.3z M57,482.9L57,482.9l26.4,3.6
					l27.5-7.6l0,0l29.7-8l-30.2-3L57,482.9L57,482.9z M81.9,486.8L81.9,486.8l-26.2-3.6l-60.4,15.5L24,503L81.9,486.8L81.9,486.8z
					 M358.4,547.1L358.4,547.1l-38.1-9.4L287,556.3l44.8,6.8L358.4,547.1L358.4,547.1z M321.1,537.1l38.1,9.5l39.6-23.8l-38.9-7.4
					L321.1,537.1L321.1,537.1z M308.9,581.7L308.9,581.7l36.2,4.4l24-14.9l-37.4-4.4L308.9,581.7L308.9,581.7z M344.1,586.7
					L344.1,586.7l-36.3-4.4l-19.6,12.9l36.7,3.5L344.1,586.7L344.1,586.7z M528,496.4L528,496.4l-42.8-16.5l-33.6,7.7l39,10.6
					L528,496.4L528,496.4z M486.2,479.6L486.2,479.6l43.3,16.7l18.2-0.9l24.1-20.1l-49-4.1L486.2,479.6L486.2,479.6z M206.4,445.1
					L206.4,445.1l13.8,4.4l45.3-12.1l-11.5-3.5L206.4,445.1L206.4,445.1z M258.4,432.9L258.4,432.9l12.1,3.7l30.9-5l-20.5-3.9
					L258.4,432.9L258.4,432.9z M228.4,449.2L228.4,449.2l57.5-5.6l-17.2-5.2L228.4,449.2L228.4,449.2z M287.6,444.2L287.6,444.2
					l-63.2,6.2l-75.1,20.2l54.4,5.4l78.5-21.8l20.2-5.6L287.6,444.2L287.6,444.2z M142.3,520.7L142.3,520.7l198.6-61.1l-27.5-7.8
					l-20.9,5.8l-73.9,20.5l-62.8,17.4L91.6,513L142.3,520.7L142.3,520.7z M78.7,511.1L78.7,511.1l63.2-17.7l58.1-16.2l-53.4-5.7
					l-30.5,8.3L29.8,504L78.7,511.1L78.7,511.1z M328.6,436.8L328.6,436.8l-35,6.7l13.2,3.9l31.4-8.8L328.6,436.8L328.6,436.8z
					 M305.4,432.3L305.4,432.3l-31.9,5.2l18.3,5.5l34.6-6.6L305.4,432.3L305.4,432.3z M346.6,509.5l6.3,1.2l56.8-31.9l-13.3-3.6
					l-0.7,0.2l-67.9,29.9L346.6,509.5L346.6,509.5z M363.9,513.2l-1.5-0.3l40.4,7.6l23-13.6l19-18.2l-24.4-7.1L363.9,513.2
					L363.9,513.2z M425.3,574.1L425.3,574.1l28.1-18.3l-38.8-6.3l-31,19.7L425.3,574.1L425.3,574.1z M374.1,568L374.1,568l32.2-19.9
					l-34.9-5.7l-34.8,21.2L374.1,568L374.1,568z M443.5,531.3L443.5,531.3l-26.8,16.8l38.8,6.2l24.9-16.1L443.5,531.3L443.5,531.3z
					 M435.8,529.8L435.8,529.8l-33.2-6.3l-29.2,17.6l35,5.6L435.8,529.8L435.8,529.8z M406.5,521.1L406.5,521.1l33.3,6.2l43.5-26.7
					l-53.8,6.6L406.5,521.1L406.5,521.1z M484.3,499.4L484.3,499.4l-36.3-10L431.1,506L484.3,499.4z"/>
				<path class="st14" d="M228.6,451.3c8.1,1.3,16.3,2.5,24.6,3.9c-6.8,1.8-13.7,3.6-20.6,5.5c-8.4-1.4-16.6-2.7-24.8-4.1
					C214.9,454.8,221.9,453.1,228.6,451.3z"/>
				<polygon class="st13" points="191.3,459.9 217.7,463.3 211,465.4 219.1,466.4 207.7,470.1 199.5,469 194.2,470.7 167.4,467.1 
									"/>
				<polygon class="st4" points="216.7,373.5 217.7,463.3 211,465.4 210,375.6 210.3,372.7 				"/>
				<polygon class="st4" points="218.1,376.6 219.1,466.4 207.7,470.1 203.6,469.5 203.1,379.8 206.6,380.3 				"/>
				<polygon class="st13" points="206.6,380.3 207.7,470.1 199.5,469.1 197.4,469.7 195.8,380.1 198.5,379.2 205.3,377.1 
					212.6,378.4 				"/>
				<polygon class="st4" points="198.5,379.2 199.1,437 199.5,469 194.2,470.7 187.4,469.8 186.9,380.1 189.7,379.3 192.5,378.5 
									"/>
				<polygon class="st13" points="193.1,380.9 194.2,470.7 167.4,467.1 166.3,377.4 171,375.9 195.8,380.1 				"/>
				<polygon class="st14" points="190.3,370.1 216.7,373.5 214.8,374.1 210,375.6 218.1,376.6 206.6,380.3 198.5,379.2 193.1,380.9 
					166.3,377.4 				"/>
				<polygon class="st4" points="187.6,399.9 188.1,478.3 165.8,485.2 162.4,482.8 161.7,412.3 165.3,406.8 				"/>
				<polygon class="st13" points="165.3,406.8 165.8,485.2 127.7,477.8 127.2,399.4 135.3,398 166.9,403.8 				"/>
				<polygon class="st14" points="149.9,393.5 187.6,399.9 165.3,406.8 127.2,399.4 				"/>
				<polygon class="st4" points="154.1,432.6 154.3,487.7 131.9,494 131.7,438.9 				"/>
				<polygon class="st13" points="131.7,438.9 131.9,494 88,485 87.9,429.8 				"/>
				<polygon class="st14" points="110.5,424 154.1,432.6 131.7,438.9 87.9,429.8 				"/>
				<polygon class="st13" points="89.5,493.7 115.3,499.1 105.4,501.9 87.4,498 65.9,503.9 57.9,502 				"/>
				<polygon class="st4" points="115.5,424.5 115.3,499.1 105.6,502 101.1,501 101.7,426.5 105.6,427.3 105.2,425.8 110.8,424 				
					"/>
				<polygon class="st13" points="105.6,427.3 105.4,501.9 87.4,497.8 82.2,499.4 82.6,424.5 87.6,423.4 93.7,422.2 107.5,425.2 
									"/>
				<polygon class="st4" points="87.6,423.4 87.4,498 65.9,503.9 62,503 63.5,428.4 				"/>
				<polygon class="st13" points="65.9,429.2 65.9,503.9 57.9,502 58.1,427.4 62.9,427 66,427.8 				"/>
				<polygon class="st14" points="89.6,419.1 115.4,424.5 105.6,427.3 87.6,423.4 65.9,429.2 58.1,427.4 				"/>
				<polygon class="st13" points="301.4,451.2 314.9,454.6 298.3,457.8 285,454.3 				"/>
				<polygon class="st4" points="330,442 329.8,460.1 313.2,463.3 313.4,445.1 				"/>
				<polygon class="st13" points="313.4,445.1 313.2,463.3 299.8,459.8 300,441.7 				"/>
				<polygon class="st14" points="316.5,438.6 330,442 313.4,445.1 300,441.7 				"/>
				<polygon class="st4" points="300.3,443.2 300.1,466.2 286.8,470.3 286.9,447.4 				"/>
				<polygon class="st13" points="286.9,447.4 286.8,470.3 271.3,467.8 271.5,444.9 				"/>
				<polygon class="st14" points="286.1,440.8 300.3,443.2 286.9,447.4 271.5,444.9 				"/>
				<polygon class="st4" points="279.4,438.3 279.5,473.4 267.2,478.1 267.1,443 				"/>
				<polygon class="st13" points="267.1,443 267.2,478.1 247.2,475.9 247,440.7 				"/>
				<polygon class="st14" points="259.8,436.2 279.4,438.3 267.1,443 247,440.7 				"/>
				<path class="st14" d="M231.9,476.8c7.3,0.5,14.6,1,21.9,1.5c-3.4,1.7-7,3.5-10.4,5.3c-7.5-0.6-15-1.1-22.3-1.6
					C224.7,480.3,228.3,478.5,231.9,476.8z"/>
				<polygon class="st14" points="208.2,482 228.3,484.2 182.6,499.2 162.7,495.1 				"/>
				<path class="st14" d="M149.6,502.9c5.4,1.1,10.9,2.3,16.5,3.5c-6.4,2-12.9,3.9-19.5,5.9c-5.6-1.2-11.1-2.4-16.6-3.6
					C136.5,506.8,143,504.8,149.6,502.9z"/>
				<polygon class="st14" points="24.3,507.1 61.2,512.9 26.4,523.1 16.8,520.7 -3.4,526.3 -16.8,522.7 3.4,517.3 -5.7,514.9 				
					"/>
				<polygon class="st14" points="397.2,440.2 378.4,436 344.1,444.9 352.4,447.3 376.8,439.9 389.3,442.5 				"/>
				<polygon class="st14" points="363.8,451.4 349.6,448 330.7,451.4 345.6,455.5 				"/>
				<polygon class="st14" points="329.5,429.2 314.3,432 338.7,436 355.9,433.5 				"/>
				<polygon class="st12" points="387,470.1 387.2,487.2 405.4,480.4 405.3,463.2 				"/>
				<polygon class="st14" points="382.1,490.8 367.7,488.8 353.6,495.2 368.4,497.3 				"/>
				<path class="st14" d="M365.7,499.9c-6.3-0.7-11.3-1.4-17.4-2.1c-2.1,1-5.1,1.8-7.1,2.8c1.2,1.6,2.5,3.3,3.8,4.9
					c2.9,0.4,5.9,0.9,8.9,1.3C358,504.6,361.8,502.2,365.7,499.9z"/>
				<polygon class="st14" points="335.6,517.9 315.4,513.5 295.1,521.8 319.9,526.9 				"/>
				<polygon class="st14" points="298.7,537.3 281.1,533.5 254.3,545.2 259.9,548.4 239.7,557.2 253.1,561.6 				"/>
				<polygon class="st14" points="243.2,569.6 216.3,564.3 186.8,577.4 214.2,584.2 				"/>
				<polygon class="st14" points="120.6,525.8 107.2,522.2 67.8,531.4 79.7,536.3 				"/>
				<polygon class="st13" points="435.5,491.9 412.7,488.6 397.7,494.7 427,498.6 				"/>
				<polygon class="st13" points="399.7,415.4 397.7,494.7 427,498.6 437.5,412.5 420.5,414.2 				"/>
				<polygon class="st4" points="429.1,419.3 427,498.6 435.5,491.9 437.5,412.5 				"/>
				<polygon class="st14" points="437.5,412.5 414.6,409.3 399.7,415.4 429.1,419.3 				"/>
				<polygon class="st13" points="372.6,444.3 372.7,512.4 401.6,517 401.5,448.8 				"/>
				<polygon class="st4" points="401.5,448.8 401.6,517 422,504.6 421.8,436.4 				"/>
				<polygon class="st14" points="421.8,436.4 394.3,431.6 372.6,444.3 401.5,448.8 				"/>
				<path class="st14" d="M389.3,524.6c-10.1-1.7-20-3.3-29.9-5c-5.1,3.2-10.2,6.4-15.4,9.7c-1.6,3.1-3.1,6.2-4.9,9.4
					c5.5,1.1,10.9,2.2,16.4,3.3C367.3,536,378.5,530.2,389.3,524.6z"/>
				<polygon class="st14" points="348.5,549.7 324.7,546.8 309.5,556.4 330.1,560 				"/>
				<path class="st14" d="M313.7,569.4l-25-3.1c-6.6,3.7-26.7,15.1-40.9,23.3c9.6,1.3,19.2,2.6,29,4L313.7,569.4z"/>
				<path class="st13" d="M537.5,465.2c-4.1-1.7-8.4-3.4-12.5-5.1c-8.1,0.9-16.3,1.8-24.5,2.6c3.5,1.7,7.3,3.4,11,5.1
					C520.2,467,528.9,466.1,537.5,465.2z"/>
				<path class="st13" d="M500,416.2l0.6,46.6c3.6,1.7,7.3,3.4,11,5.1l1.9-46.8l-2.4,0.2C507.2,419.6,503.6,418,500,416.2z"/>
				<polygon class="st12" points="511,421.3 511.5,467.9 512.3,467.8 513.1,467.7 513.9,467.6 514.7,467.6 515.5,467.5 516.3,467.4 
					517.1,467.3 518,467.2 518.9,467.1 519.7,467.1 520.5,467 521.3,466.9 522.1,466.8 522.9,466.7 523.7,466.6 524.5,466.6 
					525.3,466.5 526.1,466.4 527,466.3 527.8,466.2 528.6,466.1 529.4,466.1 530.2,466 531,465.9 531.8,465.8 532.6,465.7 
					533.4,465.6 534.2,465.6 535,465.5 535.9,465.4 536.7,465.3 537.5,465.2 536.9,418.7 536.1,418.7 535.2,418.8 534.4,418.9 
					533.6,419 532.8,419.1 532,419.2 531.2,419.2 530.4,419.3 529.6,419.4 528.8,419.5 528,419.6 527.2,419.7 526.3,419.7 
					525.5,419.8 524.7,419.9 523.9,420 523.1,420.1 522.3,420.2 521.5,420.2 520.7,420.3 519.9,420.4 519.1,420.5 518.3,420.6 
					517.4,420.7 516.6,420.7 515.8,420.8 515,420.9 514.2,421 513.4,421.1 512.6,421.2 511.8,421.2 				"/>
				<polygon class="st14" points="536.9,418.7 524.3,413.5 500,416.2 511,421.3 				"/>
				<polygon class="st13" points="452.4,433.9 452.4,465.1 465.4,468.1 467.7,467.6 466.8,436.6 455.8,433.2 				"/>
				<polygon class="st12" points="465.4,437 465.4,468.1 483.6,464 483.6,432.8 479.9,431.8 462.7,436.4 				"/>
				<path class="st13" d="M484.4,467.6c-3.4,0.8-7,1.6-10.4,2.3c3.1,0.9,6.3,1.7,9.5,2.5c-7.8,1.6-15.6,3.2-23.6,4.8
					c3.5,1.1,7.1,2.1,10.8,3.2c10.7-2.3,21.3-4.6,31.9-6.9C496.3,471.5,490.2,469.5,484.4,467.6z"/>
				<polygon class="st13" points="473.9,447.8 474,469.9 474.3,470 474.6,470.1 474.9,470.1 475.2,470.2 475.4,470.3 475.7,470.4 
					476,470.5 476.3,470.5 476.6,470.6 476.9,470.7 477.2,470.8 477.5,470.8 477.8,470.9 478.1,471 478.4,471.1 478.7,471.2 
					479,471.2 479.3,471.3 479.5,471.4 479.8,471.5 480.1,471.6 480.4,471.6 480.7,471.7 481,471.8 481.3,471.9 481.7,472 482,472 
					482.3,472.1 482.6,472.2 482.9,472.3 483.2,472.4 483.5,472.4 483.4,450.3 483.1,450.3 482.8,450.2 482.5,450.1 482.2,450 
					481.9,449.9 481.6,449.9 481.2,449.8 480.9,449.7 480.6,449.6 480.3,449.5 480,449.5 479.7,449.4 479.4,449.3 479.1,449.2 
					478.8,449.1 478.5,449.1 478.3,449 478,448.9 477.7,448.8 477.4,448.8 477.1,448.7 476.8,448.6 476.5,448.5 476.2,448.4 
					475.9,448.4 475.6,448.3 475.3,448.2 475,448.1 474.7,448 474.5,448 474.2,447.9 				"/>
				<polygon class="st13" points="459.8,455.1 459.9,477.2 460.3,477.3 460.6,477.4 460.9,477.5 461.2,477.6 461.6,477.7 
					461.9,477.8 462.2,477.9 462.5,478 462.9,478.1 463.2,478.2 463.6,478.3 464,478.4 464.3,478.5 464.6,478.6 465,478.7 
					465.3,478.8 465.6,478.9 466,479 466.3,479.1 466.6,479.2 467,479.3 467.3,479.4 467.6,479.5 468,479.6 468.3,479.7 
					468.6,479.8 469,479.9 469.3,480 469.7,480.1 470,480.2 470.3,480.3 470.7,480.4 470.6,458.3 470.2,458.2 469.9,458.1 
					469.5,458 469.2,457.9 468.9,457.8 468.5,457.7 468.2,457.6 467.9,457.5 467.5,457.4 467.2,457.3 466.8,457.2 466.5,457.1 
					466.2,457 465.8,456.9 465.5,456.8 465.2,456.7 464.8,456.6 464.5,456.5 464.2,456.4 463.9,456.3 463.4,456.2 463.1,456.1 
					462.8,456 462.4,455.9 462.1,455.8 461.8,455.7 461.4,455.6 461.1,455.5 460.8,455.4 460.5,455.3 460.1,455.2 				"/>
				<polygon class="st12" points="470.6,458.3 470.7,480.4 471.7,480.2 472.8,480 473.8,479.7 474.8,479.5 475.8,479.3 476.8,479.1 
					477.7,478.9 478.7,478.7 479.7,478.4 480.7,478.2 481.8,478 482.8,477.8 483.8,477.6 484.8,477.4 485.8,477.1 486.7,476.9 
					487.7,476.7 488.7,476.5 489.7,476.3 490.8,476.1 491.7,475.9 492.7,475.7 493.7,475.4 494.7,475.2 495.7,475 496.6,474.8 
					497.6,474.6 498.6,474.4 499.7,474.2 500.6,474 501.6,473.7 502.6,473.5 502.5,451.4 501.5,451.6 500.5,451.9 499.4,452.1 
					498.5,452.3 497.5,452.5 496.5,452.7 495.5,452.9 494.6,453.1 493.6,453.3 492.6,453.6 491.6,453.8 490.7,454 489.6,454.2 
					488.6,454.4 487.6,454.6 486.6,454.8 485.6,455.1 484.6,455.3 483.7,455.5 482.7,455.7 481.7,455.9 480.6,456.1 479.6,456.3 
					478.6,456.6 477.6,456.8 476.6,457 475.6,457.2 474.6,457.4 473.7,457.6 472.7,457.9 471.6,458.1 				"/>
				<polygon class="st14" points="484.3,445.5 484,445.5 483.7,445.6 483.3,445.7 483,445.7 482.7,445.8 482.4,445.9 482,446 
					481.7,446 481.3,446.1 481,446.2 480.7,446.3 480.3,446.3 480,446.4 479.7,446.5 479.4,446.6 479,446.6 478.7,446.7 
					478.4,446.8 478.1,446.8 477.7,446.9 477.4,447 477.1,447.1 476.8,447.1 476.4,447.2 476.1,447.3 475.8,447.4 475.5,447.4 
					475.2,447.5 474.8,447.6 474.5,447.7 474.2,447.7 473.9,447.8 474.2,447.9 474.5,448 474.7,448 475,448.1 475.3,448.2 
					475.6,448.3 475.9,448.4 476.2,448.4 476.5,448.5 476.8,448.6 477.1,448.7 477.4,448.8 477.7,448.8 478,448.9 478.3,449 
					478.5,449.1 478.8,449.1 479.1,449.2 479.4,449.3 479.7,449.4 480,449.5 480.3,449.5 480.6,449.6 480.9,449.7 481.2,449.8 
					481.6,449.9 481.9,449.9 482.2,450 482.5,450.1 482.8,450.2 483.1,450.3 483.4,450.3 482.7,450.5 482,450.6 481.1,450.8 
					480.4,450.9 479.7,451.1 479,451.2 478.2,451.4 477.5,451.5 476.8,451.7 476.1,451.8 475.3,452 474.6,452.1 473.9,452.3 
					473.2,452.4 472.3,452.6 471.6,452.7 470.9,452.9 470.2,453 469.4,453.2 468.7,453.3 468,453.5 467.2,453.6 466.5,453.8 
					465.8,453.9 465.1,454.1 464.3,454.2 463.6,454.4 462.8,454.5 462,454.7 461.3,454.8 460.6,455 459.8,455.1 460.1,455.2 
					460.5,455.3 460.8,455.4 461.1,455.5 461.4,455.6 461.8,455.7 462.1,455.8 462.4,455.9 462.8,456 463.1,456.1 463.4,456.2 
					463.9,456.3 464.2,456.4 464.5,456.5 464.8,456.6 465.2,456.7 465.5,456.8 465.8,456.9 466.2,457 466.5,457.1 466.8,457.2 
					467.2,457.3 467.5,457.4 467.9,457.5 468.2,457.6 468.5,457.7 468.9,457.8 469.2,457.9 469.5,458 469.9,458.1 470.2,458.2 
					470.6,458.3 471.6,458.1 472.7,457.9 473.7,457.6 474.6,457.4 475.6,457.2 476.6,457 477.6,456.8 478.6,456.6 479.6,456.3 
					480.6,456.1 481.7,455.9 482.7,455.7 483.7,455.5 484.6,455.3 485.6,455.1 486.6,454.8 487.6,454.6 488.6,454.4 489.6,454.2 
					490.7,454 491.6,453.8 492.6,453.6 493.6,453.3 494.6,453.1 495.5,452.9 496.5,452.7 497.5,452.5 498.5,452.3 499.4,452.1 
					500.5,451.9 501.5,451.6 502.5,451.4 501.9,451.2 501.3,451.1 500.7,450.9 500.2,450.7 499.6,450.5 498.9,450.3 498.4,450.1 
					497.8,449.9 497.2,449.7 496.7,449.5 496.1,449.3 495.5,449.2 495,449 494.4,448.8 493.8,448.6 493.3,448.4 492.7,448.2 
					492.1,448 491.6,447.8 491,447.7 490.4,447.5 489.8,447.3 489.3,447.1 488.7,446.9 488.1,446.7 487.6,446.6 487,446.4 
					486.5,446.2 485.9,446 485.4,445.8 484.8,445.6 				"/>
				<polygon class="st13" points="557.1,476.9 526.3,474 494.6,479.5 509.6,485.4 521.4,484.1 531.5,491.2 547.8,490.9 				"/>
				<polygon class="st13" points="494.6,432.6 494.6,479.5 509.6,485.4 509.6,438.5 				"/>
				<polygon class="st18" points="509.6,438.5 509.6,485.4 521.4,484.1 521.4,437.2 				"/>
				<polygon class="st12" points="521.4,437.2 521.4,484.1 531.5,491.2 531.5,444.3 				"/>
				<polygon class="st13" points="531.5,444.3 531.5,491.2 547.8,490.8 550.4,486.9 549.7,441.6 547.7,444 				"/>
				<polygon class="st12" points="547.7,444 547.8,490.9 557.1,476.9 557.1,432.7 				"/>
				<polygon class="st14" points="557.1,432.7 529.3,426.5 494.6,432.6 509.6,438.5 521.4,437.2 531.5,444.3 547.7,444 				"/>
				<polygon class="st14" points="483.6,432.8 472.3,429.8 452.4,433.9 465.4,437 				"/>
				<polygon class="st14" points="0.9,507.2 -12.1,503.8 -51.3,513 -38.7,518.1 				"/>
				<path class="st14" d="M472.4,539.3c-9-1.5-17.6-3-26.3-4.5c-6.5,3.8-12.9,7.7-19.5,11.7c8.8,1.5,17.6,2.9,26.6,4.4
					C459.8,547.1,466.2,543.1,472.4,539.3z"/>
				<path class="st14" d="M404.9,544.1c6.5-4.4,12.9-8.7,19.2-12.9c-8.2-1.4-16.2-2.7-24.1-4.1c-2.6,4.9-5.4,9.9-8,15.2
					C396.3,542.9,400.6,543.5,404.9,544.1z"/>
				<path class="st14" d="M444.8,556.9c-10.1-1.4-20.1-2.7-30-4.1c-2,1.5-4.1,3-6.2,4.5c10.5,1.4,21.2,2.8,32.1,4.3
					C442.1,560,443.4,558.4,444.8,556.9z"/>
				<polygon class="st14" points="420.1,581.6 408.1,590.2 366.9,585.4 380.6,575.8 				"/>
				<polygon class="st14" points="393.8,549.3 370.8,545.6 346.4,561.4 371.7,564.7 				"/>
				<path class="st14" d="M359.7,572.8c-0.7-0.1-26-5.1-28.5-3.4c-2.5,1.7-10.1,6.9-15.4,10.5c9,1.3,18.2,2.7,27.5,4
					C348.8,580.1,354.2,576.4,359.7,572.8z"/>
				<polygon class="st13" points="458,512.8 430.3,509.8 424.6,513.3 435.8,518.4 447.3,520 				"/>
				<polygon class="st19" points="426.1,451.9 424.6,513.3 435.8,518.3 438.5,500.9 444.9,458.1 437.3,457 				"/>
				<polygon class="st13" points="437.3,457 437.1,464.1 435.7,518.5 447.3,520 459.5,451.8 431.8,448.4 				"/>
				<polygon class="st4" points="448.8,458.7 447.3,520 458,512.8 459.5,451.4 				"/>
				<polygon class="st14" points="459.5,451.4 431.8,448.4 426.1,451.9 437.3,457.1 448.8,458.7 				"/>
				<polygon class="st13" points="485.9,481.9 463.1,488.5 490.6,496.4 509.3,490.7 				"/>
				<polygon class="st13" points="463.2,472.4 463.1,488.5 490.6,496.4 490.7,480.2 				"/>
				<polygon class="st12" points="490.7,480.2 490.6,496.4 509.3,490.7 509.4,474.5 				"/>
				<polygon class="st14" points="485.9,465.7 463.2,472.4 490.7,480.2 509.4,474.5 				"/>
				<polygon class="st13" points="541.1,517.4 500.6,507.3 487.5,513.1 491,520.1 526.6,527 				"/>
				<polygon class="st19" points="487.1,463.6 487.5,513.1 491,520.1 490.6,470.6 				"/>
				<polygon class="st13" points="490.6,470.6 491,520.1 526.6,527 526.1,477.5 				"/>
				<polygon class="st4" points="526.1,477.5 526.6,527 541.1,517.4 540.7,467.9 				"/>
				<polygon class="st14" points="540.7,467.9 500.2,457.7 487.1,463.6 490.6,470.6 526.1,477.5 				"/>
				<path class="st14" d="M618.6,479.9c-5.8,3.3-13,7.5-18.8,10.8c-12.4,0.4-24.9,0.8-37.3,1.2c5.7-4.8,11.3-9.6,17-14.3
					C592,478.6,605.9,478.7,618.6,479.9z"/>
				<polygon class="st14" points="633.1,470.4 623.4,475.8 602,474.3 605.4,470.9 587.1,469.6 593.2,465.6 				"/>
				<path class="st14" d="M289.7,431.7c-0.4,0-10.2,1.9-10.2,1.9l-6.7-2.2l8.6-2.2L289.7,431.7z"/>
				<path class="st14" d="M313.2,428c-0.3,0-9.3,2.3-9.3,2.3l-14.7-2.7l7.8-1.9L313.2,428z"/>
				<polygon class="st14" points="286.4,424.4 281.3,425.8 272,424 276.7,422.9 				"/>
				<path class="st14" d="M270.4,427.4c-0.3-0.1-6.8-1.6-6.8-1.6l-11.4,3.2l5,2.1L270.4,427.4z"/>
				<polygon class="st14" points="179,559.8 153.8,569.7 135.9,565.3 162.4,555.4 				"/>
				<polygon class="st14" points="234.7,537.3 214.9,544.7 209.2,542.9 198.3,548.1 188.9,544.4 220.9,532.5 				"/>
				<g>
					<path class="st20" d="M153.7,369l-1.1-2.8l2.8-1.1l1.1,2.8L153.7,369L153.7,369z M146.9,352.1L146.9,352.1l-1.1-2.8l2.8-1.1
						l1.1,2.8L146.9,352.1L146.9,352.1z M140.2,335.2L140.2,335.2l-1.1-2.8l2.8-1.1l1.1,2.8L140.2,335.2L140.2,335.2z M133.4,318.1
						L133.4,318.1l-1.1-2.8l2.8-1.1l1.1,2.8L133.4,318.1L133.4,318.1z M126.6,301.2L126.6,301.2l-1.1-2.8l2.8-1.1l1.1,2.8
						L126.6,301.2L126.6,301.2z M119.7,284.3L119.7,284.3l-1.1-2.8l2.8-1.1l1.1,2.8L119.7,284.3L119.7,284.3z M113,267.2L113,267.2
						l-1.1-2.8l2.8-1.1l1.1,2.8L113,267.2z"/>
				</g>
				<g>
					<path class="st20" d="M199.9,370.3l-0.3-3l3-0.3l0.3,3L199.9,370.3L199.9,370.3z M198.2,352.1L198.2,352.1l-0.3-3l3-0.3l0.3,3
						L198.2,352.1L198.2,352.1z M196.5,334L196.5,334l-0.3-3l3-0.3l0.3,3L196.5,334L196.5,334z M194.8,315.7L194.8,315.7l-0.3-3
						l3-0.3l0.3,3L194.8,315.7L194.8,315.7z M193,297.6L193,297.6l-0.3-3l3-0.3l0.3,3L193,297.6L193,297.6z M191.3,279.3
						L191.3,279.3l-0.3-3l3-0.3l0.3,3L191.3,279.3L191.3,279.3z M189.7,261.1L189.7,261.1l-0.3-3l3-0.3l0.3,3L189.7,261.1
						L189.7,261.1z M188,243L188,243l-0.3-3l3-0.3l0.3,3L188,243L188,243z M186.3,224.7L186.3,224.7l-0.3-3l3-0.3l0.3,3L186.3,224.7
						z"/>
				</g>
				<g>
					<path class="st20" d="M241.7,405.3l-3-0.3l0.3-3l3,0.3L241.7,405.3L241.7,405.3z M243.8,387.2L243.8,387.2l-3-0.3l0.3-3l3,0.3
						L243.8,387.2L243.8,387.2z M245.8,369L245.8,369l-3-0.3l0.3-3l3,0.3L245.8,369L245.8,369z M248,350.9L248,350.9l-3-0.3l0.3-3
						l3,0.3L248,350.9L248,350.9z M250,332.7L250,332.7l-3-0.3l0.3-3l3,0.3L250,332.7L250,332.7z M252.1,314.5L252.1,314.5l-3-0.3
						l0.3-3l3,0.3L252.1,314.5L252.1,314.5z M254.2,296.4L254.2,296.4l-3-0.3l0.3-3l3,0.3L254.2,296.4L254.2,296.4z M256.2,278.2
						L256.2,278.2l-3-0.3l0.3-3l3,0.3L256.2,278.2L256.2,278.2z M258.4,260.1L258.4,260.1l-3-0.3l0.3-3l3,0.3L258.4,260.1
						L258.4,260.1z M260.4,241.9L260.4,241.9l-3-0.3l0.3-3l3,0.3L260.4,241.9L260.4,241.9z M262.5,223.7L262.5,223.7l-3-0.3l0.3-3
						l3,0.3L262.5,223.7z"/>
				</g>
				<g>
					<path class="st20" d="M279.6,406.2l-2.9-1l1-2.9l2.9,1L279.6,406.2L279.6,406.2z M285.6,388.9L285.6,388.9l-2.9-1l1-2.9l2.9,1
						L285.6,388.9L285.6,388.9z M291.4,371.4L291.4,371.4l-2.9-1l1-2.9l2.9,1L291.4,371.4L291.4,371.4z M297.3,354.1L297.3,354.1
						l-2.9-1l1-2.9l2.9,1L297.3,354.1L297.3,354.1z M303.2,336.7L303.2,336.7l-1.5-0.4l-1.4-0.5l1-2.9l2.9,1L303.2,336.7
						L303.2,336.7z M308.9,319.3L308.9,319.3l-2.9-1l1-2.9l2.9,1L308.9,319.3L308.9,319.3z M314.8,302L314.8,302l-2.9-1l1-2.9l2.9,1
						L314.8,302L314.8,302z M320.7,284.7L320.7,284.7l-2.9-1l1-2.9l2.9,1L320.7,284.7L320.7,284.7z M326.4,267.3L326.4,267.3l-2.9-1
						l1-2.9l2.9,1L326.4,267.3L326.4,267.3z M332.3,249.9L332.3,249.9l-2.9-1l1-2.9l2.9,1L332.3,249.9L332.3,249.9z M338.2,232.5
						L338.2,232.5l-2.9-1l1-2.9l2.9,1L338.2,232.5L338.2,232.5z M344,215.1L344,215.1l-2.9-1l1-2.9l2.9,1L344,215.1z"/>
				</g>
				<g>
					<path class="st20" d="M315.4,424.1l-2.7-1.4c0.3-0.5,0.7-1.4,1.4-2.7l2.7,1.4C316.2,422.7,315.7,423.6,315.4,424.1L315.4,424.1
						z M323.7,407.5L323.7,407.5l-2.7-1.3l1.3-2.7l2.7,1.3L323.7,407.5L323.7,407.5z M331.8,391.1L331.8,391.1l-2.7-1.3l1.3-2.7
						l2.7,1.3L331.8,391.1L331.8,391.1z M339.8,374.7L339.8,374.7l-2.7-1.3l1.3-2.7l2.7,1.3L339.8,374.7L339.8,374.7z M347.9,358.1
						L347.9,358.1l-2.7-1.3l1.3-2.7l2.7,1.3L347.9,358.1L347.9,358.1z M355.9,341.7L355.9,341.7l-2.7-1.3l1.3-2.7l2.7,1.3
						L355.9,341.7L355.9,341.7z M363.9,325.2L363.9,325.2l-2.7-1.3l1.3-2.7l2.7,1.3L363.9,325.2L363.9,325.2z M371.9,308.7
						L371.9,308.7l-2.7-1.3l1.3-2.7l2.7,1.3L371.9,308.7L371.9,308.7z M379.9,292.3L379.9,292.3l-2.7-1.3l1.3-2.7l2.7,1.3
						L379.9,292.3L379.9,292.3z M388,275.7L388,275.7l-2.7-1.3l1.3-2.7l2.7,1.3L388,275.7L388,275.7z M396,259.2L396,259.2l-2.7-1.3
						l1.3-2.8l2.7,1.3L396,259.2z"/>
				</g>
				<g>
					<path class="st20" d="M344.3,436.2l-2.5-1.7l1.7-2.5l2.5,1.7L344.3,436.2L344.3,436.2z M354.7,421.1L354.7,421.1l-2.5-1.7
						l1.7-2.5l2.5,1.7L354.7,421.1L354.7,421.1z M365.1,405.9L365.1,405.9l-2.5-1.7l1.7-2.5l2.5,1.7L365.1,405.9L365.1,405.9z
						 M375.5,390.8L375.5,390.8l-2.5-1.7l1.7-2.4l2.5,1.6L375.5,390.8L375.5,390.8z M385.8,375.7L385.8,375.7l-2.5-1.7l1.7-2.5
						l2.5,1.7L385.8,375.7L385.8,375.7z M396.1,360.5L396.1,360.5l-2.5-1.7l1.7-2.5l2.5,1.7L396.1,360.5L396.1,360.5z M406.3,345.4
						L406.3,345.4l-2.5-1.7l1.7-2.5l2.5,1.7L406.3,345.4L406.3,345.4z M416.6,330.2L416.6,330.2l-2.5-1.7l1.7-2.5l2.5,1.7
						L416.6,330.2L416.6,330.2z M426.9,315L426.9,315l-2.5-1.7l1.7-2.5l2.5,1.7L426.9,315L426.9,315z M437.3,299.8L437.3,299.8
						l-2.5-1.7l1.7-2.6l2.5,1.7L437.3,299.8z"/>
				</g>
				<polygon class="st14" points="73.9,528.9 57.9,524 21,534.4 33,539.3 				"/>
				<g>
					<g>
						<polygon class="st21" points="443.3,362.9 322.6,382 299.6,236.2 420.3,217.2 						"/>
						<polygon class="st22" points="467.5,341.7 443.3,362.9 420.3,217.2 442.8,185.4 						"/>
						<polygon class="st23" points="420.3,217.2 299.6,236.2 319.6,204.9 442.8,185.4 						"/>
						<polygon class="st20" points="414.4,240.1 312.9,256.2 311.9,249.7 413.4,233.7 						"/>
						<polygon class="st20" points="397.8,257 333.9,267 332.9,260.6 396.7,250.6 						"/>
						<polygon class="st20" points="414.1,360.1 350.2,370.2 349.2,363.7 413.1,353.7 						"/>
						<text transform="matrix(0.9877 -0.156 0.1559 0.9878 337.376 292.6342)" class="st20 st24 st25">Kiosk</text>
					</g>
					<g>
						<path class="st26" d="M364.4,342.9c3.6,22.9-11.6,44.3-34.2,47.8c-22.4,3.5-43.6-12.1-47.2-35c-3.6-22.9,11.6-44.3,34.2-47.8
							C339.7,304.4,360.8,320,364.4,342.9z"/>
						<path class="st27" d="M338.7,346.9c1.3,8.4-4.2,16.2-12.5,17.5c-8.2,1.3-16-4.4-17.3-12.8c-1.3-8.4,4.2-16.2,12.5-17.5
							C329.7,332.8,337.3,338.6,338.7,346.9z"/>
						<path class="st20" d="M335.2,347.5c1,6.4-3.2,12.4-9.6,13.4c-6.4,1-12.2-3.4-13.2-9.8s3.2-12.4,9.6-13.4
							C328.3,336.7,334.2,341.1,335.2,347.5z"/>
					</g>
				</g>
			</g>
		</g>
	</g>
</g>
</svg>
