<?xml version="1.0" encoding="utf-8"?>
<!-- Generator: Adobe Illustrator 21.1.0, SVG Export Plug-In . SVG Version: 6.00 Build 0)  -->
<svg version="1.1" id="Layer_1" xmlns="http://www.w3.org/2000/svg" xmlns:xlink="http://www.w3.org/1999/xlink" x="0px" y="0px"
	 viewBox="0 0 612 625" style="enable-background:new 0 0 612 625;" xml:space="preserve">
<style type="text/css">
	.st0{fill:#FFFFFF;}
	.st1{fill:#65B8CB;}
	.st2{clip-path:url(#SVGID_2_);}
	.st3{fill:#EDA778;}
	.st4{fill:#171E21;}
	.st5{fill:#F7CF9E;}
	.st6{fill:#FEE760;}
	.st7{fill:#FFCD2A;}
</style>
<path class="st0" d="M516,293.6c-0.4-3.5-0.8-7.1-1.3-10.5s-1.2-7-1.9-10.4s-1.5-6.8-2.4-10.2c-1.7-6.7-3.8-13.3-6.1-19.8
	c-0.6-1.6-1.2-3.2-1.8-4.8c-1.9-4.8-3.9-9.5-6.2-14.1c-0.7-1.5-1.5-3.1-2.3-4.6c-1.6-3-3.2-6-4.9-9c-5.1-8.8-10.7-17.2-17-25.2
	c-3.1-4-6.4-7.9-9.8-11.6c-2.3-2.5-4.6-4.9-7-7.3c-0.8-0.8-1.6-1.6-2.5-2.4l0,0l-1.4-1.4l0,0c-1.1-1.1-2.3-2.1-3.5-3.2
	c-4.8-4.4-9.9-8.6-15.1-12.5c-1.2-0.9-2.4-1.8-3.6-2.7l0,0c-5.8-4.2-11.8-8.1-18.1-11.7c-2.9-1.7-5.9-3.3-9-4.9
	c-1.4-0.7-2.8-1.4-4.2-2.1c-1.7-0.8-3.4-1.6-5-2.4l-2.1-0.9c-2.4-1.1-4.9-2.1-7.3-3.1l-0.1-0.1c-2.6-1-5.3-2-8-2.9
	c-0.5-0.2-1.1-0.4-1.6-0.6c-6.2-2.1-12.6-3.9-19.1-5.5c-2-0.5-4.1-0.9-6.1-1.4c-1.5-0.3-3-0.6-4.5-0.9c-9.9-1.8-20-2.9-30.1-3.2l0,0
	c-1.3,0-2.6-0.1-3.9-0.1H310c-1.2,0-2.5,0-3.7,0c-2.2,0-4.4,0-6.5,0.1c-20.8,0.6-41.4,4.3-61.1,11c-3.3,1.1-6.5,2.3-9.7,3.6l-3,1.1
	c-2.2,0.9-4.4,1.8-6.5,2.8c-3.1,1.4-6.2,2.9-9.2,4.4l-1.5,0.8l0,0c-2.5,1.3-5,2.7-7.4,4.1c-8.9,5.1-17.4,10.9-25.5,17.3l0,0
	c-2.6,2.1-5.2,4.2-7.7,6.4l0,0c-1.2,1.1-2.4,2.1-3.6,3.2c-1.4,1.3-2.8,2.7-4.2,4l-0.4,0.3c-0.9,0.9-1.8,1.8-2.7,2.7
	c-1.2,1.2-2.4,2.4-3.5,3.6l-0.8,0.8c-0.9,0.9-1.8,1.9-2.6,2.8l0,0l-0.1,0.1c-1.3,1.5-2.6,3-3.9,4.5l0,0l-0.7,0.8l-1.2,1.4
	c-0.6,0.7-1.2,1.5-1.9,2.2s-1.4,1.8-2.1,2.7c-1.4,1.9-2.9,3.7-4.3,5.6c-4.6,6.3-8.9,12.9-12.8,19.6c-0.4,0.7-0.8,1.5-1.2,2.2l0,0
	c-0.3,0.5-0.6,1-0.8,1.5l-0.7,1.3c-0.7,1.3-1.4,2.7-2.1,4c-0.8,1.5-1.5,3-2.3,4.6c-2.2,4.6-4.3,9.3-6.2,14.1
	c-0.6,1.6-1.3,3.2-1.8,4.8c-2.4,6.4-4.5,13-6.3,19.7c-0.9,3.4-1.7,6.8-2.3,10.2s-1.3,6.9-1.8,10.4s-1,7-1.3,10.5
	c-0.2,1.6-0.3,3.3-0.4,4.9c0,0.5-0.1,1-0.1,1.4c-0.1,1.2-0.2,2.3-0.2,3.5c0,0.6,0,1.2-0.1,1.8c0,1-0.1,2.1-0.1,3.1
	c0,0.7,0,1.4-0.1,2c0,0.2,0,0.4,0,0.5l0,0c0,1.4-0.1,2.8-0.1,4.2c0,7.2,0.4,14.4,1.1,21.6c0.2,2.2,0.5,4.3,0.8,6.5l0,0
	c0.2,1.4,0.4,2.7,0.6,4c0.5,3.5,1.1,7,1.8,10.4c0.3,1.3,0.5,2.5,0.8,3.8l0,0c0.5,2.1,1,4.3,1.5,6.4c1.7,6.7,3.8,13.3,6.2,19.8
	c1.2,3.2,2.4,6.4,3.8,9.6s2.7,6.3,4.2,9.4c0.7,1.5,1.5,3.1,2.3,4.6c1.6,3,3.2,6,4.9,9c5.1,8.8,10.7,17.2,17,25.2
	c0.6,0.8,1.3,1.5,1.9,2.3c0,0,0,0,0,0.1l0.3,0.3c0.6,0.7,1.1,1.4,1.7,2l1.5,1.8c1.5,1.7,3,3.4,4.5,5.1l0.4,0.4l0,0
	c2.1,2.3,4.3,4.7,6.6,6.9l1,1v0.1l1.6,1.6l0.5,0.4c1.3,1.3,2.7,2.6,4.1,3.9c1.2,1.1,2.4,2.2,3.6,3.2l0.4,0.3
	c0.9,0.8,1.8,1.5,2.7,2.3c0.6,0.5,1.2,1,1.9,1.5c1.5,1.2,3,2.4,4.6,3.6l0.2,0.2c1.3,1,2.6,2,4,3l0.8,0.6l1.8,1.3l1.4,1l1.8,1.2
	c1,0.7,2,1.4,3.1,2l1.4,1c1.2,0.8,2.4,1.5,3.6,2.3l1,0.6c1.6,1,3.1,1.9,4.7,2.8l0.6,0.3c2.8,1.6,5.6,3.1,8.4,4.5
	c1.7,0.9,3.4,1.7,5.1,2.5l1.5,0.7c1.4,0.7,2.8,1.3,4.1,1.9l0.5,0.2l0,0c2.4,1.1,4.9,2.1,7.4,3.1c3.2,1.3,6.4,2.4,9.7,3.5
	c43.9,14.8,91.4,14.8,135.3,0c3.3-1.1,6.5-2.3,9.7-3.5c6.4-2.5,12.6-5.3,18.7-8.4c3-1.6,6-3.2,9-4.9c4.2-2.4,8.3-5,12.4-7.7l0,0
	l1.3-0.9l1.3-0.9c1.3-0.9,2.6-1.8,3.9-2.8l0.9-0.7c1.1-0.8,2.1-1.6,3.2-2.4l1.2-0.9c1.3-1,2.6-2,3.8-3l0.6-0.5
	c1.1-0.9,2.2-1.9,3.3-2.8l1.1-0.9c1.3-1.1,2.5-2.2,3.8-3.3c2.5-2.3,4.9-4.6,7.3-7c2.4-2.4,4.7-4.8,7-7.3c3.4-3.8,6.7-7.6,9.8-11.6
	c5-6.3,9.6-12.9,13.8-19.8c1.1-1.8,2.2-3.6,3.3-5.5c1.7-2.9,3.3-5.9,4.9-9c0.8-1.5,1.5-3,2.3-4.6c1.5-3.1,2.9-6.2,4.2-9.4
	c1.3-3.2,2.6-6.4,3.8-9.6c1.2-3.2,2.3-6.5,3.3-9.7c1-3.3,2-6.6,2.9-10.1c0.5-2,1-4,1.4-5.9l0,0c0.3-1.4,0.6-2.9,0.9-4.3
	c0.7-3.4,1.3-6.9,1.9-10.4s1-7,1.3-10.5c0.7-7.1,1.1-14.3,1.1-21.6C517.2,307.9,516.8,300.7,516,293.6z"/>
<title>id</title>
<path class="st1" d="M612,312.5c0,167.9-138.1,306-306,306S0,480.4,0,312.5s138.1-306,306-306c166.1,0,303.4,135.3,306,301.3"/>
<g>
	<defs>
		<path id="SVGID_1_" d="M612,312.5c0,167.9-138.1,306-306,306S0,480.4,0,312.5s138.1-306,306-306c166.1,0,303.4,135.3,306,301.3"/>
	</defs>
	<clipPath id="SVGID_2_">
		<use xlink:href="#SVGID_1_"  style="overflow:visible;"/>
	</clipPath>
	<g class="st2">
		<path class="st1" d="M99.7,272.7c-0.7,3.4-1.3,6.9-1.8,10.4c-0.5,3.5-1,7-1.3,10.5c-1.4,14.3-1.4,28.8,0,43.1
			c0.4,3.5,0.8,7.1,1.3,10.5s1.1,7,1.8,10.4s1.5,6.8,2.3,10.2c1.7,6.7,3.8,13.3,6.2,19.8c1.2,3.2,2.4,6.4,3.8,9.6s2.7,6.3,4.2,9.4
			c0.7,1.5,1.5,3.1,2.3,4.6c1.6,3,3.2,6,4.9,9c5.1,8.8,10.7,17.2,17,25.2c3.1,4,6.4,7.9,9.8,11.6c2.3,2.5,4.6,4.9,7,7.3
			s4.8,4.7,7.3,7c11.3,10.2,23.6,19.2,36.8,26.8c2.9,1.7,5.9,3.3,9,4.9c6,3.1,12.3,5.9,18.7,8.4c3.2,1.3,6.4,2.4,9.7,3.5
			c43.9,14.8,91.4,14.8,135.3,0c3.3-1.1,6.5-2.3,9.7-3.5c6.4-2.5,12.6-5.3,18.7-8.4c3-1.6,6-3.2,9-4.9c13.2-7.6,25.5-16.6,36.7-26.9
			c2.5-2.3,4.9-4.6,7.3-7c2.4-2.4,4.7-4.8,7-7.3c3.4-3.8,6.7-7.6,9.8-11.6c5-6.3,9.6-12.9,13.8-19.8c1.1-1.8,2.2-3.6,3.3-5.5
			c1.7-2.9,3.3-5.9,4.9-9c0.8-1.5,1.5-3,2.3-4.6c1.5-3.1,2.9-6.2,4.2-9.4c1.3-3.2,2.6-6.4,3.8-9.6c2.4-6.5,4.4-13.1,6.1-19.8
			c0.9-3.3,1.7-6.7,2.4-10.2c0.7-3.4,1.3-6.9,1.9-10.4s1-7,1.3-10.5c0.7-7.1,1.1-14.3,1.1-21.6c0-7.3-0.4-14.5-1.1-21.5
			c-0.4-3.5-0.8-7.1-1.3-10.5s-1.2-7-1.9-10.4s-1.5-6.8-2.4-10.2c-1.7-6.7-3.8-13.3-6.1-19.8c-0.6-1.6-1.2-3.2-1.8-4.8
			c-1.9-4.8-3.9-9.5-6.2-14.1c-0.7-1.5-1.5-3.1-2.3-4.6c-1.6-3-3.2-6-4.9-9c-5.1-8.8-10.7-17.2-17-25.2c-3.1-4-6.4-7.9-9.8-11.6
			c-2.3-2.5-4.6-4.9-7-7.3c-2.4-2.4-4.8-4.7-7.3-7c-4.8-4.4-9.9-8.6-15.1-12.5c-6.9-5.2-14.2-10-21.7-14.4c-2.9-1.7-5.9-3.3-9-4.9
			c-1.4-0.7-2.8-1.4-4.2-2.1c-1.7-0.8-3.4-1.6-5-2.4l-2.1-0.9c-2.4-1.1-4.9-2.1-7.3-3.1l-0.1-0.1c-2.6-1-5.3-2-8-2.9
			c-0.5-0.2-1.1-0.4-1.6-0.6c-6.2-2.1-12.6-3.9-19.1-5.5c-2-0.5-4.1-0.9-6.1-1.4c-1.5-0.3-3-0.6-4.5-0.9c-11.3-2-22.7-3.2-34.1-3.4
			c-1.3,0-2.6,0-3.9,0c-2.2,0-4.4,0-6.5,0.1c-20.8,0.6-41.4,4.3-61.1,11c-3.3,1.1-6.5,2.3-9.7,3.6l-2.8,1.2
			c-2.2,0.9-4.4,1.8-6.5,2.8c-3.1,1.4-6.2,2.9-9.2,4.4s-6,3.2-9,4.9c-11.8,6.8-22.9,14.7-33.2,23.6c-1.2,1.1-2.4,2.1-3.6,3.2
			c-2.5,2.3-4.9,4.6-7.3,7s-4.7,4.8-7,7.3c-3.4,3.7-6.7,7.6-9.8,11.6c-6.3,8-11.9,16.4-17,25.2c-1.7,3-3.3,5.9-4.9,9
			c-0.8,1.5-1.5,3-2.3,4.6c-2.2,4.6-4.3,9.3-6.2,14.1c-0.6,1.6-1.3,3.2-1.8,4.8c-2.3,6.4-4.4,13-6.2,19.7
			C101.2,265.9,100.4,269.3,99.7,272.7z"/>
		<path class="st0" d="M201.9,230.7c-3.3-0.3-0.3,0-3.1,6.6c-2.2,5.1-0.7,6.6,3.1,8.3c1.5,0.7,3.5,1.4,5.7,2.4
			c7.6,3.4,9.2-1.5,6.9-6.5s-3.4-11.1-11.4-10.7L201.9,230.7z"/>
		<path class="st0" d="M102.5,310.5c5.1-2,14.8-4.6,20.9,3.6c2.7,3.6,4.7,5.8,6.1,6.5c1.8,0.9,2.5-0.6,2.5-4.5
			c0-7.1-2-11.2,0.5-15.3c1.8-2.8,6.9-5.1,9.9-7.8c1.4-1.2,2.3-2.5,2.3-3.9c0-4.6,3.1-17.3,8.7-17.3c3.4,0,8.3-8.3,9.7-9.7
			c1.4-1.3,3.1-2.3,4.9-3.1c3-1.4,6.4-3,9.8-6.9c0.2-0.2,0.4-0.5,0.6-0.8c2.8-3.6,1.8-7.3-0.6-10.1s-6-4.7-8.6-4.7
			c-3.9,0,3.4-4,8.6-4.6c1.2-0.3,2.5-0.1,3.7,0.5c1.3,0.9,5.3,4.4,6.6,2c1.9-3.4,5.8-5.9,13.7-6.1h1.1c6.1,0,1.6-4.3-1.1-8
			c-3.7-4.6-7.6-9.1-11.7-13.4c-3-3-3.2-10.2-5.7-14.2c-0.8-1.5-2.3-2.5-4-2.6c-0.9-0.1-1.8,0-2.7,0.2c-2.6,1-0.3,4.6-4.5,5.9
			c-2.3,0.7-10.1-10.3-13.5-12.7c-4-2.8-9.3-5.3-13.6-5.6c-1.3,1.5-2.5,3-3.7,4.5c-0.7,0.9-1.4,1.8-2.1,2.7c-1.6,2-3.1,4-4.6,6.1
			c0.2,1.8,0.6,3.6,0.9,5.2c1.5,7.1,5.1,12.2,1,12.2s-11.2,10.9-11.2,8.7c0-1.9-1.7-3.4-4.4-4.7c-1.2,2.2-2.4,4.5-3.6,6.8
			c-0.8,1.5-1.5,3-2.3,4.6c-2.2,4.6-4.3,9.3-6.2,14.1c-0.6,1.6-1.3,3.2-1.8,4.8c-2.3,6.5-4.4,13.1-6.1,19.8
			c-0.9,3.4-1.7,6.8-2.3,10.2s-1.3,6.9-1.8,10.4s-1,7-1.3,10.5c-0.6,5.7-0.9,11.5-1,17.4C97.9,311.2,100.4,311.3,102.5,310.5z"/>
		<path class="st0" d="M168.1,179c2.2,0.8,4.1,1.5,5.3,2c1.5,0.6,3.3,0.4,4.5-0.7c2.1-1.8,2.9-5.8,0-9.5c-0.4-0.6-0.9-1.1-1.4-1.5
			c-5.2-4.8-3.2-7.4,1.4-7.3c1.4,0.1,2.8,0.3,4.2,0.7c0.8,0.3,1.6,0.3,2.4,0.1c2.1-0.6,1.8-3.6,0-6.4c-1.4-2.3-3.5-4-6-5
			c-0.2-0.1-0.4-0.2-0.6-0.3c-0.8-0.4-1.5-0.9-2.1-1.6c-2.6,2.1-5.2,4.2-7.7,6.4l0,0c-1.2,1.1-2.4,2.1-3.6,3.2
			c-1.6,1.4-3.1,2.9-4.6,4.3c-0.9,0.9-1.8,1.8-2.7,2.7c-2.4,2.4-4.7,4.8-6.9,7.2c3.1,0.7,6.4,1.7,9.6,2.7
			C162.9,177,165.7,178,168.1,179z"/>
		<path class="st0" d="M356.9,225.9c1.2-0.4,3.6-1.3,3.2-3.1c-1.9-9.3,8.2-14.1,2.3-14.5c-0.3,0-0.5-0.3-0.7-0.2
			c-8.3,3.1-8.3,7.6-9.5,12.9C351.4,224.7,354.3,226.7,356.9,225.9z"/>
		<path class="st0" d="M408,198.7c3.8-2.7,7,3.2,8.6,8.6c1.2,4.1,3.4,0.4,6-1.6c0.8-0.6,0.2-9,1.1-9c3.8,0,6.9,3.1,11.2-1.2
			s-3.8-9.7-1.6-15.6s8.6-8.6,10.2-14.5c1-3.6,5.6-4.2,8-3c-1.1-1.1-2.3-2.1-3.5-3.2c-4.8-4.4-9.9-8.6-15.1-12.5
			c-1.2-0.9-2.4-1.8-3.6-2.7c-2.3,1.8,0.9,5.6-1.2,8c-3.8,4.3-8.5,12.9-10.5,15.7c-4.3,5.9-16,5.3-21.4,11.2s-7.3,18.6-2.5,26.1
			S404.2,201.4,408,198.7z"/>
		<path class="st0" d="M367.7,214.5c-7.3,3-8.9,4.6-3.4,10.3c0.6,0.7,2-0.9,6.8,0.9c1.9,0.7,4-1.5,6.3-1.5c7.9,0-0.6-13.4,0.6-17.6
			c1.2-4.1,0.7-14.3-6.9-14.1c-0.3,0-0.7,0-1,0.1C364.7,192,375,211.5,367.7,214.5z"/>
		<path class="st0" d="M324.6,175.2c1.2-0.5,2.3-1.1,3.3-1.8c1.6-1.1,3.1-2.3,4.4-3.8c3.6-4.1,1.1-9-4.4-9.1c-1,0-6.7-11.4-7.9-11
			l0,0c-4.3-0.6-8.2,5.8-13.7,3.4c-1-0.4-9.8,4.5-2.8,14.6c2.4,3.5,0,0,6.5,5.5l0.4,0.3C314.4,176.6,319.9,177.4,324.6,175.2z"/>
		<path class="st0" d="M516,293.6c-0.4-3.5-0.8-7.1-1.3-10.5s-1.2-7-1.9-10.4s-1.5-6.8-2.4-10.2c-1.7-6.7-3.8-13.3-6.1-19.8
			c-0.6-1.6-1.2-3.2-1.8-4.8c-1.9-4.8-3.9-9.5-6.2-14.1c-0.7-1.5-1.5-3.1-2.3-4.6c-1.6-3-3.2-6-4.9-9c-5.1-8.8-10.7-17.2-17-25.2
			c-3.1-4-6.4-7.9-9.8-11.6c-2.3-2.5-4.6-4.9-7-7.3c-0.8-0.8-1.6-1.6-2.5-2.4c0.3,0.7,0.1,1.7-0.8,2.8c-4.3,4.8-12.4,12.4-9.7,18.8
			s4.3,7.5,9.1,12.4s-5.9,10.7-10.2,14.5s-17.5-0.9-18.7-0.6c-3,0.8-14.6-2.7-18.9-2.7s-3.2,8.1-7,11.8c-4.1,4.1-8.9,7.3-14.2,9.5
			c-0.8,0.3-1.6,0.5-2.5,0.8c-0.4,0.1-0.7,0.2-1.1,0.3c-5.6,1.1-7.1-0.5-9.7,4c-2.7,4.8,1.9,23.4-2.6,24.8
			c-0.9,0.3-9.7-0.6-14.6-0.6h-0.5c-5.4,0-2.7,4.8-5.4,9.7s1.1,7,1.1,12.4c0,2.7,2.1,3,4.9,2.9s5.9-0.5,8,0.9c2,1.2,4.4,1.5,6.5,0.6
			c1.7-0.7,3.3-1.6,4.8-2.8c2.7-2.1,4.3-1.6,3.8-5.4c-0.4-2.7,1.5-3.8,3.8-4.1c0.9-0.1,1.8-0.2,2.7-0.2c0.3,0,0.6,0,0.8-0.1
			c2.6-0.9,3.3-5.8,1.9-11.1c-1.6-5.9,8.6-3.8,17.2-3.8s9.7,5.9,15.6,8.1c3,1.1,2,11.3,2,15c0,7.5,6.8-2.7,7.9-5.9
			s4.1-10.8-0.2-10.8c-3.3,0-3.5-8.4-3.2-8.1c6.6,5.4,11.9,12.2,15.6,19.9c2.7,5.4,4.8,10.8,9.1,8.6s-0.5-10.2,3.8-9.7
			s9.1-2.7,11.3-7s1.1-5.4,0.5-11.8c-1.6-18.7,22-8.6,26.9-11.3s6.5,0,3.8,2.7s-1.6,7.5,4.3,10.8s8.1,8.6,2.2,9.1
			s-12.4-3.2-17.2-3.2c-4.8,0-9.6,1.1-14,3.2c-4.8,2.1-7.5,7-9.1,12.4s2.1,7,11.3,7s16.7,1.1,16.1,5.9s-5.9,9.7-11.3,10.2
			s-15.6-1.6-21.5-2.7s-12.9-2.7-15,2.1s-16.7-3.6-17.6-4c-5.5-2.5-12.8-4.7-11.9-11.6c1.1-8.1-6.5-4.3-16.7-4.3
			c-5.1,0-13.8,3.3-15.1,3.7c-2.1,0.7-11,1.3-12.3,1.5c-5.5,1-7,3.6-11.4,4.5c-1.1,0.2-2.2,0.6-3.2,1.1c-3.5,1.7-5.8,5.2-5.9,9.1
			c0,4.8-3.8,10.8-9.1,11.3c-5,0.5-6.8,11.8-9.2,16.4c-0.2,0.3-0.3,0.6-0.5,0.8c-1.1,1.5-2,3.1-2.8,4.8c-1.7,3.6-2.7,7.8-1,10.3
			c0.3,0.5,5.1,5.3,1,9.3l-0.4,0.4c-2,1.8-1.5,4.5,0.4,7.5c1,1.5,2.1,3,3.3,4.3c3.3,3.8,7.6,7.6,10.8,10.8
			c4.3,4.3,9.2,9.6,13.5,12.7c2.7,2,11.8,0.8,14.6,0s6-1.9,9.6-3c0.9-0.3,1.8-0.4,2.7-0.5c1.1-0.1,17.4,3.7,22.6,3.7
			c7,0,6.5,8.1,4.3,12.9s7,30.1,11.3,31.7s-2.7,31.7,2.1,38.7c2.7,3.8,2.7,7.5,3.3,11.3c0.2,1.4,0.5,2.8,1,4.2
			c8.6-5.8,16.8-12.2,24.5-19.1c2.5-2.3,4.9-4.6,7.3-7c2.4-2.4,4.7-4.8,7-7.3c3.4-3.8,6.7-7.6,9.8-11.6c5-6.3,9.6-12.9,13.8-19.8
			c1.1-1.8,2.2-3.6,3.3-5.5c1.7-2.9,3.3-5.9,4.9-9c0.8-1.5,1.5-3,2.3-4.6c1.5-3.1,2.9-6.2,4.2-9.4c1.3-3.2,2.6-6.4,3.8-9.6
			c2.3-6.4,4.4-12.9,6.1-19.6c-2.3-1.4-4.4-3.1-6.2-5c-6.5-6.5-10.8-17.7-14.5-24.7s-9.8-38.2-6-28s23.2,39.8,28.1,51.1l0.2,0.5
			c0.3-1.4,0.6-2.9,0.9-4.3c0.7-3.4,1.3-6.9,1.9-10.4s1-7,1.3-10.5c0.7-7.1,1.1-14.3,1.1-21.6C517.1,307.8,516.8,300.7,516,293.6z"
			/>
		<path class="st0" d="M310,111.5c0.6-0.8,1.3-1.6,2-2.4c1.3-1.2,2-2.9,2-4.6c-1.3,0-2.6-0.1-3.9-0.1H310c-1.2,0-2.5,0-3.7,0
			c-2.2,0-4.4,0-6.5,0.1c-20.8,0.6-41.4,4.3-61.1,11c-3.3,1.1-6.5,2.3-9.7,3.6l-3,1.1c-2.2,0.9-4.4,1.8-6.5,2.8
			c-3.1,1.4-6.2,2.9-9.2,4.4l-1.5,0.8c-1,2.8-4,19.9-0.2,18.7c5.1-1.5,6.1,15.2,10.7,22.4s7.1,18.9,18.9,22.9s14.3-18.4,14.3-24.5
			s15.3-5.6,19.4-12.2s17.8-6.6,26.5-10.7S307.2,115.3,310,111.5z"/>
		<path class="st0" d="M263.1,420.5c-9.2-5.6-40.3-11.2-40.3-17.8s1-13.3-5.6-13.3c-4.7,0-19.9-10.8-22.4-12.2
			c-3.7-2.2-14.9-3.8-16.9-3.7c-1.4,0.1-16.1,0.6-18-1.1c-0.6-0.5-1-1.1-1.3-1.8c-2-5.1-6.1,0-10.2,2.5c-1.8,0.9-3.9,1.3-5.9,1
			c-3.4-0.2-6.9-0.9-9.4,0c-1.1,0.4-2.4,0.5-3.6,0.2c-3.2-0.7-6.5-3.6-8.7-7.3c-3.1-5.1,2-10.7-5.6-10.7s-2.3-17.1-2.3-22.2
			c0-4.8-10.3,3.9-15.8,9.1c0.2,1.4,0.4,2.7,0.6,4c0.5,3.5,1.1,7,1.8,10.4c0.3,1.3,0.5,2.5,0.8,3.8c2.8,1.6,5.7,3,9.2,3
			c8.7,0,9.2,11.7,11.7,15.8c1.2,1.9,16.3,1.9,17.3,4.1c2,4.1,5.6,10.2,0,11.7s-3.1,9.2-8.7,11.7l-0.5,0.3
			c-5.1,2.9-4.5,13.2-1.5,19.1c0.4,0.9,1,1.7,1.5,2.5c4.2,5.7,12.7,17.6,12.7,18.1l0.3,0.3c2.5,3,5,6,7.7,8.9l0.4,0.4
			c2.9,1.8,5.4,5.3,7.7,8l1.6,1.6c1.5,1.5,3.1,2.9,4.6,4.3c1.2,1.1,2.4,2.2,3.6,3.2c3.2,2.8,6.4,5.4,9.8,8c2.2,1.7,4.4,3.3,6.6,4.9
			c5.4,3.8,11,7.4,16.8,10.8l0.6,0.3c2.8,1.6,5.6,3.1,8.4,4.5c3.7,1.9,7.5,3.7,11.3,5.3c0.4-1.4,0.7-2.8,0.8-4.2
			c0.5-8.7,6.6-6.6,6.6-11.2s6.1-9.7,12.8-10.7s12.7-10.2,13.3-19.9s10.2-19.9,14.8-26.5S272.3,426.1,263.1,420.5z"/>
		<path class="st0" d="M129.6,331.4c-0.5-0.1-1-0.2-1.6-0.2c-5.6-0.7-3.1,4,1.6,5.4c0.6,0.2,1.2,0.3,1.9,0.4
			C136.7,337.5,134.2,332.4,129.6,331.4z"/>
		<path class="st0" d="M36,315.7c-2-149,117.2-271.3,266.2-273.2c9.2-0.1,18.5,0.2,27.7,1.1l2-1.8c-5.1-0.5-10.3-0.8-15.4-1
			C166.3,35,40,152,34.2,302.1c0,0,0,0,0,0c-0.2,5.2-0.2,10.3-0.2,15.5L36,315.7z"/>
		<path class="st0" d="M539.2,176.1l1.5-1.4c-24.2-41.1-58.7-75.1-100.1-98.8l-1.5,1.4C480.5,100.9,515.1,134.9,539.2,176.1
			L539.2,176.1z"/>
		<path class="st0" d="M573.9,278.9c10.4,83.4-18.1,170.5-84.3,231.8C380.3,611.9,209,605.3,107.8,496.1
			c-19-20.4-34.6-43.7-46.4-68.9l-1.5,1.4C124,564.4,286.1,622.6,422,558.5c91.8-43.3,151.9-134.2,155.8-235.6
			c0.6-15.3-0.1-30.6-2-45.7L573.9,278.9z"/>
		<path class="st0" d="M109.7,204.9c8.4-15.4,18.6-29.7,30.3-42.7c81.2-89.6,219-98.2,310.6-20.6l1.2-1.3
			C358.9,61.6,220.4,70.8,138.7,161c-12.1,13.3-22.6,28.1-31.2,43.9H109.7z"/>
		<path class="st0" d="M82.6,299.6h-1.9c-0.4,8-0.5,16.1-0.1,24.1c2.7,57.2,27.2,111.2,68.4,150.9l1.2-1.3
			C103.5,428,78.8,364.6,82.6,299.6z"/>
		<path class="st0" d="M504.5,204.9c-2.3-4.2-4.7-8.3-7.2-12.3L496,194c2.2,3.6,4.3,7.2,6.4,10.9L504.5,204.9z"/>
		<path class="st0" d="M531.3,299.6h-1.9c3.6,59.9-17.1,118.7-57.4,163.2c-68.6,75.8-177.7,93.6-265.1,50.4l-1.3,1.5
			c111.7,55.4,247.2,9.8,302.6-101.9c17.1-34.6,25.1-72.9,23.2-111.4C531.4,300.8,531.3,300.2,531.3,299.6z"/>
		<path class="st0" d="M397.4,536.8c3.3-1.4,6.6-2.8,9.8-4.4l-0.8-1.6c-3.2,1.5-6.5,3-9.8,4.3L397.4,536.8z"/>
		<path class="st0" d="M110.1,456.6l-1.4,1.1c2.1,2.9,4.3,5.7,6.6,8.5l1.4-1.1C114.4,462.3,112.2,459.4,110.1,456.6z"/>
		<path class="st0" d="M98.1,439l-1.5,0.9c1.9,3,3.8,6.1,5.8,9l1.5-1C101.9,445,100,442,98.1,439z"/>
		<path class="st0" d="M72.2,380.7l-1.7,0.5c1,3.4,2.1,6.9,3.3,10.2l1.7-0.6C74.3,387.5,73.2,384.1,72.2,380.7z"/>
		<path class="st0" d="M138.4,488.3l-1.2,1.3c2.6,2.4,5.3,4.8,8,7.2l1.2-1.3C143.7,493.2,141,490.8,138.4,488.3z"/>
		<path class="st0" d="M87.8,420.4l-1.6,0.8c1.6,3.2,3.3,6.4,5,9.5l1.6-0.9C91,426.7,89.3,423.5,87.8,420.4z"/>
		<path class="st0" d="M79.1,400.9l-1.7,0.6c1.3,3.3,2.7,6.7,4.1,9.9l1.6-0.7C81.8,407.5,80.4,404.2,79.1,400.9z"/>
		<path class="st0" d="M377.2,544.2c3.4-1.1,6.8-2.2,10.2-3.5l-0.6-1.7c-3.3,1.2-6.7,2.4-10.1,3.4L377.2,544.2z"/>
		<path class="st0" d="M335,551.7l0.2,1.8c3.5-0.5,7.1-1,10.6-1.6l-0.3-1.8C342.1,550.7,338.5,551.3,335,551.7z"/>
		<path class="st0" d="M356,548l0.4,1.8c3.5-0.8,7-1.6,10.4-2.6l-0.5-1.7C363,546.4,359.5,547.2,356,548z"/>
		<path class="st0" d="M154.6,502.2l-1.1,1.4c2.8,2.2,5.7,4.4,8.6,6.5l1-1.5C160.3,506.6,157.4,504.4,154.6,502.2z"/>
		<path class="st0" d="M171.9,514.7l-1,1.5c3,2,6.1,3.9,9.1,5.7l0.9-1.5C178,518.5,174.9,516.6,171.9,514.7z"/>
		<path class="st0" d="M216.3,537.4c-2.2-0.9-4.5-1.8-6.7-2.7l-0.7,1.6c2.5,1.1,5.1,2.1,7.6,3.1L216.3,537.4z"/>
		<path class="st0" d="M190.3,525.5l-0.8,1.6c3.1,1.7,6.4,3.3,9.6,4.8l0.8-1.6C196.6,528.8,193.4,527.2,190.3,525.5z"/>
		<path class="st0" d="M123.6,473.1l-1.3,1.2c2.4,2.7,4.8,5.3,7.3,7.8l1.3-1.3C128.4,478.3,125.9,475.7,123.6,473.1z"/>
		<path class="st0" d="M117.2,159.6l-1.4-1.1c-2.3,2.8-4.5,5.6-6.6,8.4l1.4,1.1C112.8,165.1,115,162.3,117.2,159.6z"/>
		<path class="st0" d="M145.9,127.8c-2.7,2.3-5.4,4.7-8,7.1l1.2,1.3c2.6-2.4,5.3-4.8,7.9-7.1L145.9,127.8z"/>
		<path class="st0" d="M130.2,142.5c-2.5,2.5-5,5.2-7.3,7.8l1.3,1.2c2.4-2.6,4.8-5.3,7.3-7.8L130.2,142.5z"/>
		<path class="st0" d="M161.3,115.7c-2.4,1.7-4.8,3.5-7.1,5.3l1.1,1.4c2-1.6,4.1-3.2,6.2-4.7L161.3,115.7z"/>
		<path class="st0" d="M261.3,75.2l-0.3-1.8c-3.2,0.6-6.4,1.2-9.5,1.9l0.2,1.8C254.9,76.4,258.1,75.8,261.3,75.2z"/>
		<path class="st0" d="M313.9,553.6l0.2,1.8c3.5-0.2,7-0.4,10.5-0.7l-0.2-1.8C320.9,553.2,317.4,553.4,313.9,553.6z"/>
		<path class="st0" d="M103,175.6c-2,2.9-4,6-5.9,9l1.5,0.9c1.9-3,3.8-6,5.8-8.9L103,175.6z"/>
		<path class="st0" d="M91.6,193.9c-1.7,3.1-3.4,6.3-5.1,9.5l1.6,0.8c1.6-3.2,3.3-6.3,5-9.4L91.6,193.9z"/>
		<path class="st0" d="M67.8,253.7c-0.9,3.5-1.7,7-2.4,10.5l1.8,0.4c0.7-3.5,1.5-7,2.4-10.4L67.8,253.7z"/>
		<path class="st0" d="M81.9,213.1c-1.5,3.3-2.9,6.6-4.2,9.9l1.7,0.7c1.3-3.3,2.7-6.6,4.2-9.8L81.9,213.1z"/>
		<path class="st0" d="M74,233.1c-1.2,3.4-2.3,6.8-3.3,10.3l1.7,0.5c1-3.4,2.1-6.8,3.3-10.2L74,233.1z"/>
		<path class="st0" d="M536.4,382.1c1-3.4,2-6.9,2.9-10.4l-1.7-0.4c-0.9,3.4-1.8,6.9-2.8,10.3L536.4,382.1z"/>
		<path class="st0" d="M524.1,214.8l1.6-0.7c-1.4-3.3-3-6.5-4.6-9.7l-1.6,0.8C521.1,208.3,522.6,211.5,524.1,214.8z"/>
		<path class="st0" d="M490.7,160.5l1.4-1.1c-2.3-2.8-4.6-5.5-7-8.2l-1.3,1.2C486.1,155,488.5,157.7,490.7,160.5z"/>
		<path class="st0" d="M416.8,527.6c3.1-1.7,6.3-3.4,9.4-5.2l-0.9-1.5c-3,1.8-6.2,3.5-9.3,5.2L416.8,527.6z"/>
		<path class="st0" d="M503.4,177.5l1.5-1c-2-3-4.1-5.9-6.2-8.8l-1.4,1.1C499.4,171.7,501.4,174.6,503.4,177.5z"/>
		<path class="st0" d="M304.3,71.5v-1.8c-3.6,0-7.2,0.1-10.7,0.2l0.1,1.8C297.2,71.5,300.8,71.4,304.3,71.5z"/>
		<path class="st0" d="M271.9,73.6l0.5-0.1c3.5-0.5,7.1-0.9,10.6-1.1l-0.2-1.8c-3.5,0.3-7.1,0.7-10.7,1.2l-0.5,0.1L271.9,73.6z"/>
		<path class="st0" d="M325.6,72.4l0.2-1.8c-3.5-0.3-7.2-0.6-10.7-0.7l0,1.8C318.5,71.9,322.1,72.1,325.6,72.4z"/>
		<path class="st0" d="M387.9,86.6l0.6-1.7c-3.4-1.3-6.8-2.4-10.2-3.6l-0.5,1.7C381.2,84.2,384.6,85.4,387.9,86.6z"/>
		<path class="st0" d="M367.6,80.1l0.5-1.7c-3.4-0.9-7-1.8-10.5-2.6l-0.4,1.7C360.7,78.2,364.2,79.1,367.6,80.1z"/>
		<path class="st0" d="M346.7,75.3l0.3-1.8c-3.5-0.6-7.1-1.2-10.6-1.7l-0.2,1.8C339.7,74.1,343.3,74.7,346.7,75.3z"/>
		<path class="st0" d="M514.6,195.7l1.6-0.9c-1.7-3.1-3.5-6.2-5.4-9.3l-1.5,0.9C511,189.5,512.8,192.6,514.6,195.7z"/>
		<path class="st0" d="M484.2,475.1c2.4-2.7,4.7-5.4,7-8.2l-1.4-1.1c-2.3,2.7-4.6,5.5-7,8.1L484.2,475.1z"/>
		<path class="st0" d="M497.8,458.5c2.1-2.8,4.3-5.8,6.3-8.7l-1.5-1c-2,2.9-4.1,5.8-6.2,8.7L497.8,458.5z"/>
		<path class="st0" d="M510,440.8c1.9-3,3.7-6.1,5.5-9.3l-1.6-0.9c-1.7,3.1-3.6,6.2-5.4,9.2L510,440.8z"/>
		<path class="st0" d="M435.3,516.8c3-1.9,6-4,8.9-6l-1-1.5c-2.9,2-5.9,4.1-8.8,6L435.3,516.8z"/>
		<path class="st0" d="M520.5,422.1c1.6-3.2,3.2-6.5,4.7-9.7l-1.6-0.7c-1.5,3.2-3,6.5-4.6,9.6L520.5,422.1z"/>
		<path class="st0" d="M452.8,504.4c2.8-2.2,5.6-4.5,8.3-6.8l-1.2-1.4c-2.7,2.3-5.5,4.6-8.3,6.7L452.8,504.4z"/>
		<path class="st0" d="M469.1,490.5c2.6-2.4,5.2-5,7.7-7.5l-1.3-1.3c-2.5,2.5-5,5-7.6,7.4L469.1,490.5z"/>
		<path class="st0" d="M541.9,276l1.8-0.3c-0.5-3.5-1.2-7.1-1.9-10.6l-1.8,0.4C540.8,269,541.4,272.5,541.9,276z"/>
		<path class="st0" d="M529.3,402.5c1.3-3.3,2.6-6.7,3.8-10.1l-1.7-0.6c-1.2,3.4-2.4,6.7-3.7,10L529.3,402.5z"/>
		<path class="st0" d="M531.8,234.6l1.7-0.6c-1.2-3.4-2.4-6.8-3.7-10.1l-1.7,0.6C529.5,227.9,530.7,231.3,531.8,234.6z"/>
		<path class="st0" d="M537.8,255.1l1.7-0.4c-0.8-3.5-1.8-7-2.8-10.4l-1.7,0.5C536,248.2,537,251.7,537.8,255.1z"/>
		<path class="st0" d="M546,297.1c-0.2-3.5-0.5-7.1-0.9-10.7l-1.8,0.2c0.4,3.5,0.7,7.1,0.9,10.6L546,297.1z"/>
		<path class="st0" d="M541.7,361.3c0.7-3.5,1.4-7,1.9-10.6l-1.8-0.3c-0.5,3.5-1.2,7-1.9,10.5L541.7,361.3z"/>
		<path class="st0" d="M545,340c0.4-3.5,0.7-7.1,1-10.7l-1.8-0.1c-0.2,3.5-0.6,7.1-1,10.6L545,340z"/>
		<path class="st0" d="M546.5,318.6c0.1-3.6,0.1-7.2,0-10.7h-1.8c0.1,3.5,0.1,7.1,0,10.7L546.5,318.6z"/>
		<g>
			<path class="st3" d="M349.9,345.4c-5.4-9.2-20.5-11.2-12.5-17c-0.2,0.2,3-2.7,3.8-3.6c0.3-0.4,0.6-0.6,0.8-0.9l0.5-0.8
				c0.3-0.6,1.6-3.9,1.2-2.5c0.4-1.1,0.6-2.1,0.9-3.2c0.1-0.5,0.2-0.9,0.2-1.2c0.1-0.6,0.1-1.3,0.2-1.9c0.1-1.7,0.2-3.4,0.2-5.1
				c0-3.8,0-7.5,0-11.3c-0.1-4.3,1.4-8.5,4.2-11.8c-4.7-3-9.7-3.4-11.5-0.8l-0.6,0.9l-2.8,4l-0.2,0.2l-2.1-1.5l2.8-4l2.9-4.1
				l2.3-3.3c1.9-2.7-0.5-7.7-5.3-11.1s-10.3-4-12.2-1.3l-2.3,3.3l-2.9,4.1l-2.8,4l-2.1-1.5l12.9-18.2l0,0c0.1-0.1,0.2-0.3,0.3-0.4
				l16.9-24c3.1-4.4,1.7-10.7-3.1-14.1s-11.2-2.6-14.3,1.8l-16.9,24c-0.1,0.1-0.2,0.3-0.3,0.5l0,0l-37.2,52.8l-9.8,19.3l-2.8-53.3
				c1.5-6.3,2.4-12.4-2.8-16c-5.2-3.6-12.3-2.4-16,2.8l-3,44.6c0,0-5.1,12.2-1.6,31.2l8.3,16.8c-41,84.7-25.3,63.3-30.9,71.1
				l75.9,22.5c2-8,26.8-61.3,26.8-61.3c2.9-0.9,11-3.4,15-5.5c1.9-1,5.1-3.1,9-7.9C345.8,352.2,351.6,348.4,349.9,345.4z"/>
			<path class="st3" d="M374.2,203c-4.8-3.4-11.2-2.6-14.3,1.8l-16.9,24c-0.1,0.1-0.2,0.3-0.3,0.5l0,0L305.4,282l-0.2-0.1
				c0,0.2,0.1,0.4,0.1,0.6c1.3,7.8,1.8,16.9,4.6,24.4l0,0l0.1,0c0-0.3,0.5,0.1,0.7,0.4l0.1,0.1l0.4,0.1c1,0.3,2.1,0.6,3.1,0.9l0.2,0
				l0,0c1.1-1.6,2.3-3.1,3.4-4.7c6.9-9.9,13.3-20.1,19.4-30.5c2.6-4.6,7.2-7.8,12.4-8.6c-0.2-1.4-0.2-2.8,0-4.2l-0.5,0.8l-2.1-1.5
				l5.3-7.5c0.5-0.9,1.1-1.8,1.8-2.6l5.7-8.1l0,0c0.1-0.1,0.2-0.3,0.3-0.4l16.9-24C380.4,212.7,379,206.4,374.2,203z"/>
			<polygon class="st0" points="273.2,492.7 313.6,401.5 222.3,357 161.3,492.7 			"/>
			<path class="st4" d="M289,407.1c2.2,1.2,5,0.4,6.3-1.8c1.2-2.2,0.4-5-1.8-6.3c-2.2-1.2-5-0.4-6.3,1.8c0,0,0,0,0,0
				C285.9,403,286.8,405.8,289,407.1z"/>
			<polygon class="st4" points="258.6,544.8 307.6,425.7 206.8,376.4 146.1,511.3 			"/>
			<path class="st5" d="M292.5,355.1c0.4-1.4,0.7-2.9,0.9-4.3c-0.3-0.8,0.5-16-17.2-28.4c-8.2-5.8-17.9-4.5-22.3-4.1v36.8H292.5z"/>
			<path class="st4" d="M247.6,196.9c0-6.1,5-11.1,11.1-11.1h92.5c6.1,0,11.1,5,11.1,11.1c0,0,0,0,0,0v152.7c0,6.1-5,11.1-11.1,11.1
				c0,0,0,0,0,0h-92.5c-6.1,0-11.1-5-11.1-11.1L247.6,196.9z"/>
			<rect x="258.4" y="198.7" class="st0" width="93.1" height="149.2"/>
			<path class="st0" d="M305,359c-2.5,0-4.5-2-4.5-4.5c0-2.5,2-4.5,4.5-4.5c2.5,0,4.5,2,4.5,4.5C309.5,357,307.5,359,305,359
				C305,359,305,359,305,359z"/>
			<rect x="297.5" y="324.6" class="st0" width="14.9" height="14.5"/>
			<rect x="315" y="324.6" class="st0" width="14.5" height="14.5"/>
			<rect x="332.2" y="324.6" class="st0" width="14.5" height="14.5"/>
			<rect x="280.5" y="324.6" class="st0" width="14.5" height="14.5"/>
			<rect x="263.3" y="324.6" class="st0" width="14.5" height="14.5"/>
			<path class="st3" d="M370.8,303c1.2,4.2-1.2,8.6-5.5,9.8l-19.1,5.1c-4.3,1-8.6-1.6-9.6-5.8c0,0,0,0,0,0l0,0
				c-1.2-4.2,1.2-8.6,5.5-9.8l19.1-5.1C365.4,296.2,369.7,298.8,370.8,303L370.8,303z"/>
			<path class="st3" d="M368.7,258.9c2.3,4.9,0.6,10.5-3.7,12.5l-20,9.4c-4.4,2-9.8-0.2-12-5.1l0,0c-2.3-4.9-0.6-10.5,3.7-12.5
				l20-9.4C361.1,251.8,366.5,254,368.7,258.9z"/>
			<path class="st3" d="M370.4,284.1c1.2,4.3-1.3,8.8-5.6,10c0,0,0,0,0,0l-19.2,4.7c-4.4,0.9-8.7-1.9-9.6-6.3l0,0
				c-1.2-4.3,1.3-8.8,5.6-10l19.2-4.7C365.2,277,369.5,279.8,370.4,284.1L370.4,284.1z"/>
			<polygon class="st1" points="259,199.3 259,199.4 259,199.4 259,200.4 259,201.5 259,201.5 259,201.8 259,201.8 259,204.6 
				259,204.6 259,204.9 259,204.9 259,206.2 259,206.2 259,206.6 259,206.6 259,207.5 259,207.7 351,207.7 351,199.3 			"/>
			<path class="st1" d="M351.7,208.4h-93.4v-9.7h93.4V208.4z M259.7,207h90.7v-7h-90.7L259.7,207z"/>
			<rect x="339.3" y="199.3" class="st0" width="11.7" height="8.4"/>
			<path class="st1" d="M351.7,208.4h-13.1v-9.7h13.1V208.4z M340,207h10.4v-7H340V207z"/>
			<rect x="293.8" y="202.1" class="st0" width="12.1" height="2.8"/>
			<rect x="279.3" y="202.1" class="st0" width="12.1" height="2.8"/>
			<rect x="264.8" y="202.1" class="st0" width="12.1" height="2.8"/>
			<path class="st1" d="M337.4,299.5c0,7.2-5.9,13.1-13.1,13.1c0,0,0,0,0,0h-37.7c-7.2,0-13.1-5.8-13.1-13.1c0,0,0,0,0,0l0,0
				c0-7.2,5.8-13.1,13.1-13.1c0,0,0,0,0,0h37.7C331.5,286.4,337.4,292.3,337.4,299.5L337.4,299.5z"/>
			<path class="st0" d="M285.8,300.9v4.3h-2.2v-10.8h4c1-0.1,2.1,0.3,2.9,0.9c0.7,0.6,1,1.4,1,2.3c0,0.7-0.2,1.3-0.6,1.9
				c-0.5,0.6-1.2,1.1-2,1.2l2.8,4.4h-2.6l-2.6-4.3L285.8,300.9z M285.8,296v3.1h1.8c0.5,0,0.9-0.1,1.3-0.4c0.6-0.7,0.6-1.6,0-2.3
				c-0.3-0.3-0.8-0.5-1.3-0.4L285.8,296z"/>
			<path class="st0" d="M299.9,294.3v1.7h-4v2.8h3.6v1.7h-3.6v3h4v1.7h-6.2v-10.8H299.9z"/>
			<path class="st0" d="M302.1,305.1v-10.8h6.7v1.7h-4.5v2.8h3.4v1.6h-3.4v4.6L302.1,305.1z"/>
			<path class="st0" d="M316.7,294.3v1.7h-4v2.8h3.6v1.7h-3.6v3h4v1.7h-6.2v-10.8H316.7z"/>
			<path class="st0" d="M321.1,300.9v4.3h-2.2v-10.8h4c1-0.1,2.1,0.3,2.9,0.9c0.7,0.6,1,1.4,1,2.3c0,0.7-0.2,1.3-0.6,1.9
				c-0.5,0.6-1.2,1.1-2,1.2l2.8,4.4h-2.6l-2.6-4.3L321.1,300.9z M321.1,296v3.1h1.8c0.5,0,0.9-0.1,1.3-0.4c0.6-0.7,0.6-1.6,0-2.3
				c-0.3-0.3-0.8-0.5-1.3-0.4L321.1,296z"/>
			<path class="st3" d="M404.1,311.9c-5,3.1-7.7,7.9-6,10.7l0.9,1.4l-2.2,1.4l-0.1-0.3l-2.6-4.2l-0.6-1c-1.7-2.8-7.2-2.6-12.2,0.5
				s-7.7,7.9-6,10.7l0.6,1l2.6,4.2l0.1,0.2l-2.2,1.4l-2.5-4.2l-2.6-4.2l-2.1-3.4c-1.7-2.8-7.2-2.6-12.2,0.5s-7.7,7.9-6,10.7l2.1,3.4
				l2.6,4.2l2.5,4.2l-2.1,1.4l-11.7-19l0,0c-0.1-0.1-0.2-0.3-0.3-0.5l-13.8-22.3c-2.8-4.6-9.2-5.8-14.2-2.7s-6.8,9.3-4,13.9
				l13.8,22.3c0.1,0.1,0.2,0.3,0.3,0.4l0,0l33.8,55l-2.9,1.8l-8.9-14.5c-3.4-5.3-10.5-6.9-15.9-3.5c-5.2,3.3-6.8,10.2-3.7,15.5
				l20.5,29c0,0,5.9,5.9,10.1,6l31.6,8.9c3.6,5.9,8.2,13.7,13.2,21.9l63.4-34.8c-11.3-18.3-21.1-34.5-21.1-34.5
				c0.3-3,1.2-17.1,0.9-21.6c-0.5-5.7-10-25.6-20.5-43l-2.9-5.2l-2.9-4.8l-0.9-1.3l-2-3.3l-1.6-2.7
				C414.6,308.6,409.1,308.8,404.1,311.9z"/>
			<polygon class="st0" points="523.6,492.7 471.8,408.3 388,459.8 408.1,492.7 			"/>
			<path class="st4" d="M464.2,431.9c2.2-1.2,3-3.9,1.8-6.1c-1.2-2.2-3.9-3-6.1-1.8c-2.2,1.2-3,3.9-1.8,6.1
				C459.3,432.3,462,433.1,464.2,431.9z"/>
			<polygon class="st4" points="542,511.3 487,425.2 394.5,482 414.1,511.3 			"/>
		</g>
		<path class="st6" d="M479.1,123.8c-19,0-34.5,15.4-34.5,34.5s15.4,34.5,34.5,34.5s34.5-15.4,34.5-34.5c0,0,0,0,0,0
			C513.6,139.3,498.2,123.9,479.1,123.8z"/>
		<circle class="st7" cx="479.4" cy="158" r="25.6"/>
		<path class="st0" d="M490.2,150.3v-1c0-1.1-0.3-2.2-1.1-3.1c-0.6-0.8-1.6-1.3-2.7-1.3h-6v-4.2h-2.6v4.2h-6c-1,0-2,0.5-2.7,1.3
			c-0.7,0.9-1.1,2-1.1,3.1v6.1c0,1.1,0.3,2.2,1.1,3.1c0.6,0.8,1.6,1.3,2.7,1.3h14.6c0.6,0,1.1,0.6,1.1,1.4v6.1
			c0,0.8-0.5,1.4-1.1,1.4h-14.7c-0.6,0-1.1-0.6-1.1-1.4v-1h-2.6v1c0,1.1,0.4,2.2,1.1,3.1c0.6,0.8,1.6,1.3,2.7,1.3h6v4.2h2.6v-4.2h6
			c1,0,2-0.5,2.7-1.3c0.7-0.9,1.1-2,1.1-3.1v-6.1c0-1.1-0.4-2.2-1.1-3.1c-0.6-0.8-1.6-1.3-2.7-1.3h-14.6c-0.6,0-1.1-0.6-1.1-1.4
			v-6.1c0-0.8,0.5-1.4,1.1-1.4h14.6c0.6,0,1.1,0.6,1.1,1.4v1L490.2,150.3z"/>
		<path class="st0" d="M384.4,246.4c0,17.9,14.5,32.4,32.4,32.4s32.4-14.5,32.4-32.4S434.8,214,416.9,214
			C398.9,214,384.4,228.5,384.4,246.4z"/>
		<path class="st6" d="M416.9,281.9c-19.6,0-35.5-15.9-35.5-35.5c0-19.6,15.9-35.5,35.5-35.5c19.6,0,35.5,15.9,35.5,35.5l0,0
			C452.3,266,436.4,281.9,416.9,281.9z"/>
		<circle class="st7" cx="417.1" cy="246.1" r="23.4"/>
		<rect x="405.6" y="243.3" class="st0" width="10.8" height="2.7"/>
		<rect x="405.6" y="247.5" class="st0" width="10.8" height="2.7"/>
		<path class="st0" d="M428.1,239.1v-0.9c0-1-0.3-2.1-1-2.9c-0.6-0.8-1.5-1.2-2.4-1.2h-13.4c-1,0-1.9,0.4-2.4,1.2
			c-0.7,0.8-1,1.8-1,2.9v5.1l0,0v10.5l0,0v0.9c0,0.3,0,0.5,0.1,0.8c0.1,0.7,0.4,1.4,0.9,2c0.6,0.7,1.4,1.2,2.4,1.2h13.5
			c1,0,1.9-0.4,2.4-1.2c0.7-0.8,1-1.8,1-2.9v-0.9h-2.4v0.9c0,0.8-0.4,1.3-1,1.3h-13.5c-0.3,0-0.6-0.2-0.8-0.5l-0.1-0.1v-0.1
			c0-0.1,0-0.1-0.1-0.2c0,0,0-0.1,0-0.1c0,0,0-0.1,0-0.1c0-0.1,0-0.2,0-0.3v-12.8l0,0v-3.7c0-0.8,0.5-1.3,1-1.3h13.4
			c0.6,0,1,0.6,1,1.3v0.9H428.1z"/>
	</g>
</g>
</svg>
