<?xml version="1.0" encoding="utf-8"?>
<!-- Generator: Adobe Illustrator 21.0.2, SVG Export Plug-In . SVG Version: 6.00 Build 0)  -->
<svg version="1.1" id="Layer_1" xmlns="http://www.w3.org/2000/svg" xmlns:xlink="http://www.w3.org/1999/xlink" x="0px" y="0px"
	 viewBox="0 0 612 612" style="enable-background:new 0 0 612 612;" xml:space="preserve">
<style type="text/css">
	.st0{fill:#F5928D;}
	.st1{fill:#9FDAE2;}
	.st2{fill:#F5F4DC;}
	.st3{fill:#318199;}
	.st4{fill:#425268;}
	.st5{fill:#FFFFFF;}
	.st6{fill:#E2E5DA;}
	.st7{fill:#F4F4F4;}
	.st8{fill:#C0C2C4;}
	.st9{fill:#D7D6D6;}
	.st10{fill:#EDEDEE;}
	.st11{fill:#EC4645;}
	.st12{fill:#D3B02A;}
	.st13{fill:#72C16E;}
	.st14{fill:#E2E2E2;}
	.st15{fill:#E0E1E0;}
	.st16{fill:#F3734E;}
	.st17{fill:#DCDBDB;}
	.st18{fill:#287AA0;}
	.st19{fill:#D44234;}
	.st20{fill:#F7B41C;}
	.st21{fill:#059E83;}
	.st22{fill:none;stroke:#2D3F50;stroke-width:2;stroke-linecap:round;stroke-linejoin:round;stroke-miterlimit:10;}
	.st23{fill:none;}
</style>
<circle class="st0" cx="306.8" cy="306.4" r="306"/>
<g>
	<path class="st1" d="M137.7,351.9c-1.4,0-2.5,1.1-2.5,2.5v10.1c0,1.4,1.1,2.5,2.5,2.5s2.5-1.1,2.5-2.5v-10.1
		C140.3,353,139.1,351.9,137.7,351.9z"/>
	<path class="st1" d="M137.7,372c-1.4,0-2.5,1.1-2.5,2.5v10.1c0,1.4,1.1,2.5,2.5,2.5s2.5-1.1,2.5-2.5v-10.1
		C140.3,373.2,139.1,372,137.7,372z"/>
	<path class="st1" d="M137.7,392.2c-1.4,0-2.5,1.1-2.5,2.5v10.1c0,1.4,1.1,2.5,2.5,2.5s2.5-1.1,2.5-2.5v-10.1
		C140.3,393.4,139.1,392.2,137.7,392.2z"/>
	<path class="st1" d="M154.8,148c0.4,0.3,0.9,0.4,1.3,0.4c0.8,0,1.7-0.4,2.2-1.2c1.7-2.8,3.6-5.6,5.5-8.2c0.8-1.1,0.6-2.7-0.5-3.5
		c-1.1-0.8-2.7-0.6-3.5,0.5c-2,2.8-3.9,5.6-5.7,8.5C153.2,145.7,153.6,147.3,154.8,148z"/>
	<path class="st1" d="M182.4,118c0.6,0,1.1-0.2,1.6-0.6c2.5-2.1,5.2-4.1,7.8-6c1.1-0.8,1.4-2.4,0.6-3.5c-0.8-1.1-2.4-1.4-3.5-0.6
		c-2.8,2-5.5,4.1-8.2,6.2c-1.1,0.9-1.2,2.5-0.3,3.6C181,117.7,181.7,118,182.4,118z"/>
	<path class="st1" d="M139.9,185.4c0.2,0,0.4,0.1,0.6,0.1c1.1,0,2.2-0.8,2.4-1.9c0.8-3.2,1.7-6.4,2.8-9.5c0.4-1.3-0.3-2.8-1.6-3.2
		c-1.3-0.4-2.8,0.3-3.2,1.6c-1.1,3.3-2.1,6.6-2.9,9.9C137.8,183.7,138.6,185.1,139.9,185.4z"/>
	<path class="st1" d="M140.4,197.6c0.1-1,0.3-2.5,0.6-4.3c0.2-1.4-0.7-2.7-2.1-2.9c-1.4-0.2-2.7,0.7-2.9,2.1
		c-0.3,2.1-0.5,3.8-0.7,4.9C137.1,197.4,138.7,197.5,140.4,197.6z"/>
	<path class="st1" d="M137.7,331.7c-1.4,0-2.5,1.1-2.5,2.5v10.1c0,1.4,1.1,2.5,2.5,2.5s2.5-1.1,2.5-2.5v-10.1
		C140.3,332.8,139.1,331.7,137.7,331.7z"/>
	<path class="st1" d="M225.5,88.9c-3.3,1.1-6.5,2.3-9.6,3.6c-1.3,0.5-1.9,2-1.4,3.3c0.4,1,1.3,1.6,2.3,1.6c0.3,0,0.7-0.1,1-0.2
		c3-1.2,6.1-2.4,9.3-3.5c1.3-0.4,2-1.9,1.6-3.2C228.3,89.2,226.8,88.5,225.5,88.9z"/>
	<path class="st1" d="M206.6,96.8c-3.1,1.5-6.1,3.2-9,4.9c-1.2,0.7-1.6,2.3-0.9,3.5c0.5,0.8,1.3,1.2,2.2,1.2c0.4,0,0.9-0.1,1.3-0.4
		c2.8-1.7,5.7-3.3,8.7-4.7c1.2-0.6,1.8-2.1,1.1-3.4C209.4,96.7,207.9,96.2,206.6,96.8z"/>
	<path class="st1" d="M153.4,155.8c0.6-1.2,0.1-2.8-1.1-3.4c-1.2-0.6-2.8-0.1-3.4,1.1c-1.5,3-3,6.2-4.3,9.3
		c-0.5,1.3,0.1,2.8,1.4,3.3c0.3,0.1,0.7,0.2,1,0.2c1,0,1.9-0.6,2.3-1.5C150.5,161.7,151.9,158.7,153.4,155.8z"/>
	<path class="st1" d="M169.9,131.3c2.1-2.5,4.4-4.9,6.8-7.2c1-1,1-2.6,0-3.6c-1-1-2.6-1-3.6,0c-2.5,2.4-4.8,4.9-7,7.5
		c-0.9,1.1-0.8,2.6,0.3,3.6c0.5,0.4,1.1,0.6,1.7,0.6C168.7,132.1,169.4,131.8,169.9,131.3z"/>
	<path class="st1" d="M135.2,316v8.1c0,1.4,1.1,2.5,2.5,2.5s2.5-1.1,2.5-2.5v-8.3c-1.3,0.1-2.7,0.2-4.1,0.2L135.2,316z"/>
	<path class="st1" d="M241.7,86.9c-0.3-1.4-1.7-2.2-3.1-1.8c-1.1,0.3-2.2,0.6-3.3,0.9c-1.3,0.4-2.1,1.8-1.8,3.1
		c0.3,1.1,1.3,1.9,2.4,1.9c0.2,0,0.4,0,0.7-0.1c1.1-0.3,2.1-0.6,3.2-0.8C241.2,89.6,242,88.2,241.7,86.9z"/>
	<path class="st1" d="M104.5,212.7c1.1-0.8,1.4-2.4,0.6-3.5c-0.8-1.1-2.4-1.4-3.5-0.6c-2.8,2.1-5.5,4.4-8,6.9c-1,1-0.9,2.6,0.1,3.6
		c0.5,0.5,1.1,0.7,1.8,0.7c0.7,0,1.3-0.3,1.8-0.8C99.4,216.7,101.9,214.6,104.5,212.7z"/>
	<path class="st1" d="M88,281.6c-0.6-1.2-2.2-1.7-3.4-1.1c-1.2,0.6-1.7,2.2-1.1,3.4c1.6,3.1,3.5,6.1,5.6,8.9c0.5,0.6,1.2,1,2,1
		c0.5,0,1.1-0.2,1.5-0.5c1.1-0.8,1.3-2.4,0.5-3.5C91.2,287.1,89.4,284.4,88,281.6z"/>
	<path class="st1" d="M84.3,272.6c-0.9-3.1-1.6-6.2-2-9.4c-0.2-1.4-1.4-2.4-2.8-2.2c-1.4,0.2-2.4,1.4-2.2,2.8
		c0.4,3.5,1.1,6.9,2.2,10.3c0.3,1.1,1.3,1.8,2.4,1.8c0.2,0,0.5,0,0.7-0.1C84,275.4,84.7,274,84.3,272.6z"/>
	<path class="st1" d="M121.8,204.4c1.3-0.4,2.1-1.8,1.8-3.1c-0.4-1.3-1.8-2.1-3.1-1.8c-3.4,0.9-6.7,2.2-9.9,3.7
		c-1.3,0.6-1.8,2.1-1.2,3.4c0.4,0.9,1.3,1.4,2.3,1.4c0.4,0,0.7-0.1,1.1-0.2C115.6,206.4,118.7,205.2,121.8,204.4z"/>
	<path class="st1" d="M107.3,302.6c-2.7-1.7-5.3-3.7-7.7-5.8c-1-0.9-2.6-0.9-3.6,0.2c-0.9,1-0.9,2.6,0.2,3.6
		c2.6,2.4,5.4,4.5,8.4,6.4c0.4,0.3,0.9,0.4,1.3,0.4c0.8,0,1.7-0.4,2.1-1.2C108.8,304.9,108.5,303.4,107.3,302.6z"/>
	<path class="st1" d="M79.4,256c0,0,0.1,0,0.1,0c1.3,0,2.4-1,2.5-2.4c0.2-3.2,0.6-6.4,1.4-9.5c0.3-1.4-0.5-2.7-1.9-3
		c-1.3-0.3-2.7,0.5-3,1.9c-0.8,3.4-1.3,6.9-1.5,10.4C76.9,254.7,78,255.9,79.4,256z"/>
	<path class="st1" d="M181.8,222.7c-1.2,0.8-1.5,2.4-0.7,3.5c1.8,2.7,3.4,5.5,4.7,8.4c0.4,0.9,1.3,1.5,2.3,1.5c0.3,0,0.7-0.1,1-0.2
		c1.3-0.6,1.8-2.1,1.3-3.3c-1.4-3.2-3.2-6.3-5.1-9.2C184.5,222.2,182.9,221.9,181.8,222.7z"/>
	<path class="st1" d="M83.2,236.2c0.3,0.1,0.7,0.2,1,0.2c1,0,1.9-0.6,2.3-1.5c1.3-2.9,2.8-5.8,4.6-8.4c0.8-1.2,0.5-2.7-0.7-3.5
		c-1.2-0.8-2.7-0.5-3.5,0.7c-2,2.9-3.7,6-5.1,9.2C81.3,234.2,81.9,235.7,83.2,236.2z"/>
	<path class="st1" d="M144.3,310.4c-2.6,0.4-5.4,0.6-8.1,0.6l-1.5,0c-1.2,0-2.6,1.1-2.6,2.5c0,1.4,1.1,2.6,2.5,2.6l0.7,0v-2
		c0-1.4,1.1-2.5,2.5-2.5s2.5,1.1,2.5,2.5v1.8c1.6-0.1,3.2-0.3,4.8-0.5c1.4-0.2,2.3-1.5,2.1-2.9C146.9,311.1,145.7,310.2,144.3,310.4
		z"/>
	<path class="st1" d="M176.8,219.5c0.6,0,1.3-0.2,1.8-0.7c1-1,1-2.6,0-3.6c-2.5-2.5-5.1-4.8-8-6.8c-1.1-0.8-2.7-0.5-3.5,0.6
		c-0.8,1.1-0.5,2.7,0.6,3.5c2.6,1.9,5.1,4,7.3,6.3C175.5,219.3,176.1,219.5,176.8,219.5z"/>
	<path class="st1" d="M177.3,292.1c-2.1,2.4-4.4,4.7-6.9,6.7c-1.1,0.9-1.2,2.5-0.4,3.5c0.5,0.6,1.2,0.9,2,0.9c0.6,0,1.1-0.2,1.6-0.6
		c2.7-2.2,5.3-4.7,7.5-7.3c0.9-1.1,0.8-2.6-0.3-3.6C179.8,290.9,178.2,291,177.3,292.1z"/>
	<path class="st1" d="M135.2,199.2c0-0.1,0-0.7,0.1-1.8c-1.5,0-3.1,0.1-4.6,0.2c-1.4,0.1-2.4,1.4-2.3,2.7c0.1,1.3,1.2,2.3,2.5,2.3
		c0.1,0,0.2,0,0.2,0c1.3-0.1,2.7-0.2,4-0.2V199.2z"/>
	<path class="st1" d="M162.4,304.2c-2.8,1.5-5.8,2.9-8.8,3.9c-1.3,0.5-2,1.9-1.6,3.2c0.4,1,1.3,1.7,2.4,1.7c0.3,0,0.5,0,0.8-0.1
		c3.3-1.1,6.6-2.6,9.6-4.3c1.2-0.7,1.7-2.2,1-3.4C165.2,304,163.6,303.5,162.4,304.2z"/>
	<path class="st1" d="M160.5,207.9c0.9,0,1.9-0.5,2.3-1.4c0.6-1.3,0.1-2.8-1.2-3.4c-3.2-1.5-6.5-2.7-9.9-3.6
		c-1.3-0.4-2.7,0.4-3.1,1.8c-0.4,1.3,0.4,2.7,1.8,3.1c3.1,0.8,6.1,1.9,9,3.3C159.7,207.8,160.1,207.9,160.5,207.9z"/>
	<path class="st1" d="M190.3,274.1c-1.3-0.5-2.8,0.2-3.2,1.5c-1.1,3-2.5,5.9-4.1,8.7c-0.7,1.2-0.3,2.7,0.9,3.5
		c0.4,0.2,0.8,0.3,1.3,0.3c0.9,0,1.7-0.4,2.2-1.2c1.8-3,3.3-6.2,4.5-9.5C192.3,276,191.6,274.6,190.3,274.1z"/>
	<path class="st1" d="M195.4,253c-0.2-3.5-0.7-7-1.6-10.4c-0.3-1.4-1.7-2.2-3.1-1.9c-1.4,0.3-2.2,1.7-1.9,3.1
		c0.8,3.1,1.2,6.3,1.4,9.5c0,0.7,0.3,1.3,0.8,1.7c-0.4,0.5-0.7,1.1-0.7,1.7c0,3.2-0.3,6.5-0.8,9.6c-0.2,1.4,0.7,2.7,2,2.9
		c0.2,0,0.3,0,0.4,0c1.2,0,2.3-0.9,2.5-2.1c0.6-3.4,0.9-7,0.9-10.5c0-0.7-0.3-1.4-0.8-1.9C195.2,254.4,195.4,253.7,195.4,253z"/>
	<path class="st1" d="M140.3,202.6c0.2,0,0.4,0,0.6,0c1.4,0.1,2.6-0.9,2.7-2.3c0.1-1.4-0.9-2.6-2.3-2.7c-0.3,0-0.6,0-0.9,0
		c-0.1,1.1-0.2,1.7-0.2,1.8L140.3,202.6z"/>
	<path class="st1" d="M125.1,309.8c-3.1-0.7-6.2-1.6-9.2-2.8c-1.3-0.5-2.8,0.1-3.3,1.4c-0.5,1.3,0.1,2.8,1.4,3.3
		c3.3,1.3,6.6,2.3,10.1,3.1c0.2,0,0.3,0.1,0.5,0.1c1.2,0,2.2-0.8,2.5-2C127.3,311.4,126.5,310.1,125.1,309.8z"/>
	<path class="st1" d="M137.7,311.5c-1.4,0-2.5,1.1-2.5,2.5v2l1,0c1.4,0,2.7-0.1,4.1-0.2V314C140.3,312.6,139.1,311.5,137.7,311.5z"
		/>
	<path class="st1" d="M135.2,202.5c1.7,0,3.4,0,5,0.1l0-3.3c0,0,0-0.7,0.2-1.8c-1.7-0.1-3.4-0.2-5.1-0.1c-0.1,1-0.1,1.7-0.1,1.8
		V202.5z"/>
	<path class="st1" d="M478.8,197.6c-0.1-1.1-0.3-2.8-0.7-5.1c-0.2-1.4-1.5-2.3-2.9-2.1c-1.4,0.2-2.3,1.5-2.1,2.9
		c0.3,1.7,0.5,3.1,0.6,4.1C475.4,197.4,477.1,197.5,478.8,197.6C478.8,197.6,478.8,197.6,478.8,197.6z"/>
	<path class="st1" d="M468.2,166.2c1.3-0.5,1.9-2,1.4-3.3c-1.3-3.2-2.8-6.3-4.3-9.3c-0.6-1.2-2.1-1.7-3.4-1.1
		c-1.2,0.6-1.7,2.2-1.1,3.4c1.5,2.9,2.9,6,4.2,9c0.4,1,1.3,1.5,2.3,1.5C467.6,166.4,467.9,166.3,468.2,166.2z"/>
	<path class="st1" d="M430.1,117.4c0.5,0.4,1,0.6,1.6,0.6c0.7,0,1.4-0.3,1.9-0.9c0.9-1.1,0.7-2.7-0.3-3.6c-2.6-2.2-5.4-4.3-8.2-6.2
		c-1.1-0.8-2.7-0.5-3.5,0.6c-0.8,1.1-0.5,2.7,0.6,3.5C425,113.3,427.6,115.4,430.1,117.4z"/>
	<path class="st1" d="M448,128c-2.2-2.5-4.6-5.1-7-7.5c-1-1-2.6-1-3.6,0c-1,1-1,2.6,0,3.6c2.4,2.3,4.6,4.8,6.8,7.2
		c0.5,0.6,1.2,0.9,1.9,0.9c0.6,0,1.2-0.2,1.7-0.6C448.8,130.6,449,129,448,128z"/>
	<path class="st1" d="M378.9,85.9c-1.1-0.3-2.2-0.6-3.3-0.9c-1.4-0.3-2.7,0.5-3.1,1.8c-0.3,1.4,0.5,2.7,1.8,3.1
		c1.1,0.3,2.2,0.6,3.2,0.8c0.2,0.1,0.4,0.1,0.7,0.1c1.1,0,2.1-0.7,2.4-1.9C381,87.7,380.2,86.3,378.9,85.9z"/>
	<path class="st1" d="M468.4,174.1c1.1,3.2,2,6.4,2.8,9.5c0.3,1.1,1.3,1.9,2.4,1.9c0.2,0,0.4,0,0.6-0.1c1.4-0.3,2.2-1.7,1.8-3.1
		c-0.8-3.3-1.8-6.6-2.9-9.9c-0.4-1.3-1.9-2-3.2-1.6C468.7,171.3,468,172.8,468.4,174.1z"/>
	<path class="st1" d="M398.2,92.6c-3.1-1.3-6.3-2.5-9.6-3.6c-1.3-0.5-2.8,0.3-3.2,1.6c-0.4,1.3,0.3,2.8,1.6,3.2
		c3.2,1.1,6.3,2.3,9.3,3.5c0.3,0.1,0.6,0.2,1,0.2c1,0,1.9-0.6,2.3-1.6C400.1,94.6,399.5,93.1,398.2,92.6z"/>
	<path class="st1" d="M417.5,105.2c0.7-1.2,0.3-2.7-0.9-3.5c-2.9-1.7-5.9-3.4-9-4.9c-1.2-0.6-2.8-0.1-3.4,1.1
		c-0.6,1.2-0.1,2.8,1.1,3.4c3,1.5,5.9,3.1,8.7,4.7c0.4,0.2,0.9,0.4,1.3,0.4C416.1,106.4,417,106,417.5,105.2z"/>
	<path class="st1" d="M455.9,147.2c0.5,0.8,1.3,1.2,2.1,1.2c0.5,0,0.9-0.1,1.3-0.4c1.2-0.7,1.6-2.3,0.8-3.5
		c-1.8-2.9-3.7-5.8-5.7-8.5c-0.8-1.1-2.4-1.4-3.5-0.5c-1.1,0.8-1.4,2.4-0.5,3.5C452.3,141.6,454.2,144.4,455.9,147.2z"/>
	<path class="st1" d="M476.4,331.7c-1.4,0-2.5,1.1-2.5,2.5v10.1c0,1.4,1.1,2.5,2.5,2.5s2.5-1.1,2.5-2.5v-10.1
		C479,332.8,477.8,331.7,476.4,331.7z"/>
	<path class="st1" d="M473.9,324.1c0,1.4,1.1,2.5,2.5,2.5s2.5-1.1,2.5-2.5v-8.4c-1.7,0.1-3.4,0.2-5,0.3V324.1z"/>
	<path class="st1" d="M476.4,351.9c-1.4,0-2.5,1.1-2.5,2.5v10.1c0,1.4,1.1,2.5,2.5,2.5s2.5-1.1,2.5-2.5v-10.1
		C479,353,477.8,351.9,476.4,351.9z"/>
	<path class="st1" d="M476.4,392.2c-1.4,0-2.5,1.1-2.5,2.5v10.1c0,1.4,1.1,2.5,2.5,2.5s2.5-1.1,2.5-2.5v-10.1
		C479,393.4,477.8,392.2,476.4,392.2z"/>
	<path class="st1" d="M476.4,372c-1.4,0-2.5,1.1-2.5,2.5v10.1c0,1.4,1.1,2.5,2.5,2.5s2.5-1.1,2.5-2.5v-10.1
		C479,373.2,477.8,372,476.4,372z"/>
	<path class="st1" d="M416.9,256c0,0,0.1,0,0.1,0c1.3,0,2.4-1,2.5-2.4c0.2-3.2,0.7-6.4,1.4-9.5c0.3-1.4-0.5-2.7-1.9-3
		c-1.4-0.3-2.7,0.5-3,1.9c-0.8,3.4-1.3,6.9-1.5,10.4C414.4,254.7,415.5,255.9,416.9,256z"/>
	<path class="st1" d="M514.3,219.5c0.6,0,1.3-0.2,1.8-0.7c1-1,1-2.6,0-3.6c-2.4-2.5-5.1-4.8-8-6.9c-1.1-0.8-2.7-0.5-3.5,0.6
		c-0.8,1.1-0.5,2.7,0.6,3.5c2.6,1.9,5.1,4,7.3,6.3C513,219.3,513.7,219.5,514.3,219.5z"/>
	<path class="st1" d="M499.9,304.2c-2.8,1.5-5.8,2.9-8.8,3.9c-1.3,0.5-2,1.9-1.6,3.2c0.4,1,1.3,1.7,2.4,1.7c0.3,0,0.5,0,0.8-0.1
		c3.3-1.1,6.6-2.6,9.6-4.3c1.2-0.7,1.7-2.2,1-3.4C502.7,304,501.2,303.5,499.9,304.2z"/>
	<path class="st1" d="M421.8,272.6c-0.9-3.1-1.6-6.2-2-9.4c-0.2-1.4-1.5-2.4-2.8-2.2c-1.4,0.2-2.4,1.4-2.2,2.8
		c0.4,3.5,1.2,7,2.2,10.3c0.3,1.1,1.3,1.8,2.4,1.8c0.2,0,0.5,0,0.7-0.1C421.5,275.4,422.2,274,421.8,272.6z"/>
	<path class="st1" d="M498,207.9c0.9,0,1.8-0.5,2.3-1.4c0.6-1.3,0.1-2.8-1.2-3.4c-3.2-1.5-6.5-2.7-9.9-3.6c-1.4-0.4-2.7,0.4-3.1,1.8
		c-0.4,1.3,0.4,2.7,1.8,3.1c3.1,0.8,6.1,1.9,9,3.3C497.2,207.8,497.6,207.9,498,207.9z"/>
	<path class="st1" d="M523.3,234.6c0.4,0.9,1.3,1.5,2.3,1.5c0.3,0,0.7-0.1,1-0.2c1.3-0.6,1.8-2.1,1.3-3.3c-1.4-3.2-3.1-6.3-5.1-9.2
		c-0.8-1.2-2.4-1.4-3.5-0.7c-1.2,0.8-1.4,2.4-0.7,3.5C520.4,228.9,522,231.7,523.3,234.6z"/>
	<path class="st1" d="M527.8,274.1c-1.3-0.5-2.8,0.2-3.2,1.5c-1.1,3-2.5,5.9-4.1,8.7c-0.7,1.2-0.3,2.7,0.9,3.5
		c0.4,0.2,0.8,0.4,1.3,0.4c0.9,0,1.7-0.4,2.2-1.2c1.8-3,3.3-6.2,4.5-9.5C529.8,276,529.1,274.6,527.8,274.1z"/>
	<path class="st1" d="M514.8,292.1c-2.1,2.4-4.4,4.7-6.9,6.7c-1.1,0.9-1.2,2.5-0.4,3.5c0.5,0.6,1.2,0.9,2,0.9c0.6,0,1.1-0.2,1.6-0.6
		c2.7-2.2,5.3-4.7,7.6-7.3c0.9-1.1,0.8-2.6-0.3-3.6C517.3,290.9,515.7,291,514.8,292.1z"/>
	<path class="st1" d="M420.7,236.2c0.3,0.1,0.7,0.2,1,0.2c1,0,1.9-0.6,2.3-1.5c1.3-2.9,2.8-5.8,4.6-8.4c0.8-1.2,0.5-2.7-0.7-3.5
		c-1.1-0.8-2.7-0.5-3.5,0.7c-2,2.9-3.7,6-5.1,9.2C418.8,234.2,419.4,235.7,420.7,236.2z"/>
	<path class="st1" d="M532.2,254.9c0.5-0.5,0.7-1.2,0.7-1.9c-0.2-3.5-0.8-7-1.6-10.4c-0.3-1.3-1.7-2.2-3.1-1.9
		c-1.4,0.3-2.2,1.7-1.8,3.1c0.8,3.1,1.2,6.3,1.4,9.5c0,0.7,0.3,1.3,0.8,1.7c-0.4,0.5-0.7,1.1-0.7,1.7c0,3.2-0.3,6.4-0.8,9.6
		c-0.2,1.4,0.7,2.7,2,2.9c0.2,0,0.3,0,0.4,0c1.2,0,2.3-0.9,2.5-2.1c0.6-3.4,0.9-7,0.9-10.5C533,256,532.7,255.3,532.2,254.9z"/>
	<path class="st1" d="M462.6,309.8c-3.1-0.7-6.2-1.6-9.2-2.8c-1.3-0.5-2.8,0.1-3.3,1.4c-0.5,1.3,0.1,2.8,1.4,3.3
		c3.3,1.3,6.6,2.3,10.1,3.1c0.2,0,0.3,0.1,0.5,0.1c1.2,0,2.2-0.8,2.5-2C464.8,311.4,464,310.1,462.6,309.8z"/>
	<path class="st1" d="M459.3,204.4c1.3-0.4,2.1-1.8,1.8-3.1c-0.4-1.3-1.8-2.1-3.1-1.8c-3.4,0.9-6.7,2.2-9.9,3.7
		c-1.3,0.6-1.8,2.1-1.2,3.4c0.4,0.9,1.3,1.4,2.3,1.4c0.4,0,0.7-0.1,1.1-0.2C453.1,206.4,456.2,205.2,459.3,204.4z"/>
	<path class="st1" d="M425.5,281.6c-0.6-1.2-2.2-1.7-3.4-1.1c-1.2,0.6-1.7,2.2-1.1,3.4c1.6,3.1,3.5,6.1,5.6,8.9c0.5,0.6,1.2,1,2,1
		c0.5,0,1.1-0.2,1.5-0.5c1.1-0.8,1.3-2.4,0.5-3.5C428.7,287.1,426.9,284.4,425.5,281.6z"/>
	<path class="st1" d="M473.9,202.5v-3.3c0,0-0.1-0.7-0.2-1.8c-1.8,0-3.7,0.1-5.5,0.2c-1.4,0.1-2.4,1.4-2.3,2.7
		c0.1,1.3,1.2,2.3,2.5,2.3c0.1,0,0.2,0,0.2,0C470.4,202.5,472.2,202.5,473.9,202.5z"/>
	<path class="st1" d="M479,202.6c1.1-0.2,2-1.1,2.1-2.2c0.1-1.4-0.9-2.6-2.2-2.7c0.1,0.9,0.1,1.4,0.1,1.4L479,202.6z"/>
	<path class="st1" d="M481.8,310.4c-2.6,0.4-5.4,0.6-8.1,0.6l-1.5,0c-1.3,0-2.6,1.1-2.6,2.5s1.1,2.6,2.5,2.6l1.7,0
		c0.1,0,0.1,0,0.2,0v-2c0-1.4,1.1-2.5,2.5-2.5s2.5,1.1,2.5,2.5v1.7c1.2-0.1,2.4-0.2,3.6-0.4c1.4-0.2,2.3-1.5,2.1-2.9
		C484.4,311.1,483.1,310.1,481.8,310.4z"/>
	<path class="st1" d="M442,212.7c1.1-0.8,1.4-2.4,0.6-3.5c-0.8-1.1-2.4-1.4-3.5-0.6c-2.8,2.1-5.5,4.4-7.9,6.9c-1,1-0.9,2.6,0.1,3.6
		c0.5,0.5,1.1,0.7,1.8,0.7c0.7,0,1.3-0.3,1.8-0.8C436.9,216.7,439.4,214.6,442,212.7z"/>
	<path class="st1" d="M444.8,302.6c-2.7-1.7-5.3-3.7-7.7-5.8c-1-0.9-2.6-0.9-3.6,0.2c-0.9,1-0.9,2.6,0.2,3.6
		c2.6,2.4,5.4,4.5,8.4,6.4c0.4,0.3,0.9,0.4,1.3,0.4c0.8,0,1.7-0.4,2.1-1.2C446.3,304.9,446,303.4,444.8,302.6z"/>
	<path class="st1" d="M476.4,311.5c-1.4,0-2.5,1.1-2.5,2.5v2c1.7,0,3.4-0.1,5-0.3V314C479,312.6,477.8,311.5,476.4,311.5z"/>
	<path class="st1" d="M473.9,199.2L473.9,199.2v3.3c1.5,0,3,0.1,4.4,0.2c0.2,0,0.4,0,0.6-0.1l0-3.5c0,0,0-0.5-0.1-1.4c0,0,0,0-0.1,0
		c-1.7-0.1-3.4-0.2-5-0.2C473.9,198.5,473.9,199.2,473.9,199.2L473.9,199.2z"/>
	<path class="st1" d="M278.2,250.9c-2.7-1.7-5.3-3.7-7.7-5.8c-1-0.9-2.6-0.9-3.6,0.2c-0.9,1-0.9,2.6,0.2,3.6
		c2.6,2.4,5.4,4.5,8.4,6.4c0.4,0.3,0.9,0.4,1.3,0.4c0.8,0,1.7-0.4,2.1-1.2C279.7,253.2,279.4,251.6,278.2,250.9z"/>
	<path class="st1" d="M292.6,152.7c1.3-0.4,2.1-1.8,1.8-3.1c-0.4-1.3-1.8-2.1-3.1-1.8c-3.4,0.9-6.7,2.2-9.9,3.7
		c-1.3,0.6-1.8,2.1-1.2,3.4c0.4,0.9,1.3,1.4,2.3,1.4c0.4,0,0.7-0.1,1.1-0.2C286.5,154.7,289.5,153.5,292.6,152.7z"/>
	<path class="st1" d="M275.3,161c1.1-0.8,1.4-2.4,0.6-3.5c-0.8-1.1-2.4-1.4-3.5-0.6c-2.8,2.1-5.5,4.4-7.9,6.9c-1,1-0.9,2.6,0.1,3.6
		c0.5,0.5,1.1,0.7,1.8,0.7c0.7,0,1.3-0.3,1.8-0.8C270.3,165,272.7,162.9,275.3,161z"/>
	<path class="st1" d="M296,258.1c-3.1-0.7-6.2-1.6-9.2-2.8c-1.3-0.5-2.8,0.1-3.3,1.4c-0.5,1.3,0.1,2.8,1.4,3.3
		c3.3,1.3,6.6,2.3,10.1,3.1c0.2,0,0.3,0.1,0.5,0.1c1.2,0,2.2-0.8,2.5-2C298.2,259.7,297.3,258.4,296,258.1z"/>
	<path class="st1" d="M311.7,150.9c1.4,0.2,2.6-0.9,2.7-2.3c0.1-1.4-0.9-2.6-2.3-2.7c-1-0.1-2.1-0.1-3.1-0.1c-0.5,0.6-1.2,1-2,1
		c-0.8,0-1.5-0.4-2-1c-1.2,0-2.3,0.1-3.5,0.2c-1.4,0.1-2.4,1.4-2.3,2.7c0.1,1.3,1.2,2.3,2.5,2.3c0.1,0,0.2,0,0.2,0
		C305.3,150.7,308.6,150.7,311.7,150.9z"/>
	<path class="st1" d="M254.1,184.5c0.3,0.1,0.7,0.2,1,0.2c1,0,1.9-0.6,2.3-1.5c1.3-2.9,2.8-5.8,4.6-8.4c0.8-1.2,0.5-2.7-0.7-3.5
		c-1.2-0.8-2.7-0.5-3.5,0.7c-2,2.9-3.7,6-5.1,9.2C252.2,182.5,252.8,184,254.1,184.5z"/>
	<path class="st1" d="M302.9,261.7c0,1.1,0.7,2,1.6,2.4v-4.6C303.7,259.8,303,260.6,302.9,261.7z"/>
	<path class="st1" d="M255.2,220.9c-0.9-3.1-1.6-6.2-2-9.4c-0.2-1.4-1.4-2.4-2.8-2.2c-1.4,0.2-2.4,1.4-2.2,2.8
		c0.4,3.5,1.1,6.9,2.2,10.3c0.3,1.1,1.3,1.8,2.4,1.8c0.2,0,0.5,0,0.7-0.1C254.9,223.7,255.6,222.3,255.2,220.9z"/>
	<path class="st1" d="M356.7,182.9c0.4,0.9,1.3,1.5,2.3,1.5c0.3,0,0.7-0.1,1-0.2c1.3-0.6,1.8-2.1,1.3-3.3c-1.4-3.2-3.1-6.3-5.1-9.2
		c-0.8-1.2-2.4-1.4-3.5-0.7c-1.2,0.8-1.4,2.4-0.7,3.5C353.8,177.2,355.4,180,356.7,182.9z"/>
	<path class="st1" d="M250.3,204.2c0,0,0.1,0,0.1,0c1.3,0,2.4-1,2.5-2.4c0.2-3.2,0.6-6.4,1.4-9.5c0.3-1.4-0.5-2.7-1.9-3
		c-1.3-0.3-2.7,0.5-3,1.9c-0.8,3.4-1.3,6.9-1.5,10.4C247.8,203,248.9,204.2,250.3,204.2z"/>
	<path class="st1" d="M258.9,229.8c-0.6-1.2-2.2-1.7-3.4-1.1c-1.2,0.6-1.7,2.2-1.1,3.4c1.6,3.1,3.5,6.1,5.6,8.9c0.5,0.6,1.2,1,2,1
		c0.5,0,1.1-0.2,1.5-0.5c1.1-0.8,1.3-2.4,0.5-3.5C262.1,235.4,260.3,232.7,258.9,229.8z"/>
	<path class="st1" d="M347.7,167.8c0.6,0,1.3-0.2,1.8-0.7c1-1,1-2.6,0-3.6c-2.4-2.5-5.1-4.8-8-6.9c-1.1-0.8-2.7-0.5-3.5,0.6
		c-0.8,1.1-0.5,2.7,0.6,3.5c2.6,1.9,5.1,4,7.3,6.3C346.4,167.6,347,167.8,347.7,167.8z"/>
	<path class="st1" d="M365.6,203.1c0.5-0.5,0.7-1.2,0.7-1.9c-0.2-3.5-0.8-7-1.6-10.4c-0.3-1.3-1.7-2.2-3.1-1.9
		c-1.4,0.3-2.2,1.7-1.8,3.1c0.8,3.1,1.2,6.3,1.4,9.5c0,0.7,0.3,1.3,0.8,1.7c-0.4,0.5-0.7,1.1-0.7,1.7c0,3.2-0.3,6.4-0.8,9.6
		c-0.2,1.4,0.7,2.7,2,2.9c0.2,0,0.3,0,0.4,0c1.2,0,2.3-0.9,2.5-2.1c0.6-3.4,0.9-7,0.9-10.5C366.4,204.2,366.1,203.6,365.6,203.1z"/>
	<path class="st1" d="M331.3,156.1c0.9,0,1.8-0.5,2.3-1.4c0.6-1.3,0.1-2.8-1.2-3.4c-3.2-1.5-6.5-2.7-9.9-3.6
		c-1.4-0.4-2.7,0.4-3.1,1.8c-0.4,1.3,0.4,2.7,1.8,3.1c3.1,0.8,6.1,2,9,3.3C330.6,156.1,331,156.1,331.3,156.1z"/>
	<path class="st1" d="M333.3,252.5c-2.8,1.6-5.8,2.9-8.8,3.9c-1.3,0.4-2,1.9-1.6,3.2c0.4,1,1.3,1.7,2.4,1.7c0.3,0,0.5,0,0.8-0.1
		c3.3-1.1,6.5-2.6,9.6-4.3c1.2-0.7,1.7-2.2,1-3.4C336.1,252.2,334.5,251.8,333.3,252.5z"/>
	<path class="st1" d="M348.2,240.4c-2.1,2.4-4.4,4.7-6.9,6.7c-1.1,0.9-1.2,2.5-0.4,3.6c0.5,0.6,1.2,0.9,2,0.9c0.6,0,1.1-0.2,1.6-0.6
		c2.7-2.2,5.3-4.7,7.6-7.3c0.9-1.1,0.8-2.6-0.3-3.6C350.7,239.2,349.1,239.3,348.2,240.4z"/>
	<path class="st1" d="M361.2,222.4c-1.3-0.5-2.8,0.2-3.2,1.5c-1.1,3-2.5,5.9-4.1,8.7c-0.7,1.2-0.3,2.7,0.9,3.5
		c0.4,0.2,0.8,0.4,1.3,0.4c0.9,0,1.7-0.4,2.2-1.2c1.8-3,3.3-6.2,4.5-9.5C363.2,224.3,362.5,222.9,361.2,222.4z"/>
	<path class="st1" d="M315.2,258.6c-1.8,0.3-3.7,0.4-5.5,0.5v5c2.1-0.1,4.2-0.2,6.3-0.6c1.4-0.2,2.3-1.5,2.1-2.9
		C317.8,259.4,316.5,258.5,315.2,258.6z"/>
	<path class="st1" d="M309.1,145.8c0.3-0.4,0.6-0.9,0.6-1.5v-10.1c0-1.4-1.1-2.5-2.5-2.5s-2.5,1.1-2.5,2.5v10.1
		c0,0.6,0.2,1.1,0.5,1.5C306.4,145.7,307.7,145.7,309.1,145.8z"/>
	<path class="st1" d="M305.4,264.2c-0.3,0-0.6-0.1-0.8-0.2v1.3c0,1.4,1.1,2.5,2.5,2.5s2.5-1.1,2.5-2.5v-1.2c-0.8,0-1.7,0.1-2.5,0.1
		L305.4,264.2z"/>
	<path class="st1" d="M307.1,272.9c-1.4,0-2.5,1.1-2.5,2.5v10.1c0,1.4,1.1,2.5,2.5,2.5s2.5-1.1,2.5-2.5v-10.1
		C309.6,274.1,308.5,272.9,307.1,272.9z"/>
	<path class="st1" d="M307.1,126.6c1.4,0,2.5-1.1,2.5-2.5V114c0-1.4-1.1-2.5-2.5-2.5s-2.5,1.1-2.5,2.5v10.1
		C304.6,125.5,305.7,126.6,307.1,126.6z"/>
	<path class="st1" d="M307.1,259.2l-1.5,0c-0.3,0-0.7,0.1-1,0.2v4.6c0.3,0.1,0.5,0.2,0.8,0.2l1.7,0c0.8,0,1.7-0.1,2.5-0.1v-5
		C308.8,259.2,307.9,259.2,307.1,259.2z"/>
	<path class="st1" d="M307.1,146.8c0.8,0,1.5-0.4,2-1c-1.3,0-2.6,0-3.9,0C305.6,146.4,306.3,146.8,307.1,146.8z"/>
	<path class="st1" d="M307.1,293.7c-1.4,0-2.5,1.1-2.5,2.5v10c0,1.4,1.1,2.5,2.5,2.5s2.5-1.1,2.5-2.5v-10
		C309.6,294.9,308.5,293.7,307.1,293.7z"/>
	<path class="st1" d="M307.1,334.6c-1.4,0-2.5,1.1-2.5,2.5v10c0,1.4,1.1,2.5,2.5,2.5s2.5-1.1,2.5-2.5v-10
		C309.6,335.7,308.5,334.6,307.1,334.6z"/>
	<path class="st1" d="M307.1,314.8c-1.4,0-2.5,1.1-2.5,2.5v10c0,1.4,1.1,2.5,2.5,2.5s2.5-1.1,2.5-2.5v-10
		C309.6,315.9,308.5,314.8,307.1,314.8z"/>
</g>
<g>
	<g>
		<rect x="485.6" y="430.4" class="st2" width="29.1" height="2"/>
		<path class="st2" d="M527.9,435.5v-0.3h-42.3v2h40.1C526.4,436.5,527.1,436,527.9,435.5z"/>
		<rect x="485.6" y="439.9" class="st2" width="31.7" height="2"/>
		<path class="st2" d="M520.8,444.7h-35.2v2h34.8C520.5,446,520.6,445.4,520.8,444.7z"/>
		<rect x="485.6" y="449.5" class="st2" width="29.1" height="2"/>
		<g>
			<g>
				<path class="st2" d="M515.4,464v-2.6l0.3-0.5c0.1-0.1,0.2-0.3,0.3-0.4h-38.8v-36.2H533v25.2c0.9-0.1,1.9-0.2,2.8-0.2
					c0.8,0,1.5,0,2.3,0.1v-33.5c0-2.3-1.8-4.1-4.1-4.1h-57.8c-2.3,0-4.1,1.8-4.1,4.1v45.6c0,2.3,1.8,4.1,4.1,4.1h40.2
					c-0.2-0.3-0.5-0.7-0.7-1.1L515.4,464z M492.4,415.6h4.3v4.2h-4.3V415.6z M484.8,415.6h4.3v4.2h-4.3
					C484.8,419.8,484.8,415.6,484.8,415.6z M477.2,415.6h4.3v4.2h-4.3V415.6z"/>
			</g>
		</g>
	</g>
	<g>
		<path class="st2" d="M517.6,461.9v1.4c8.4,14,28.1,14,36.5,0v-1.4C545.7,447.9,526,447.9,517.6,461.9z M535.9,471.1
			c-4.7,0-8.4-3.8-8.4-8.4c0-4.7,3.8-8.4,8.4-8.4c4.6,0,8.4,3.8,8.4,8.4C544.3,467.3,540.5,471.1,535.9,471.1z"/>
		<path class="st2" d="M540.1,462.6c0,2.3-1.9,4.2-4.2,4.2c-2.3,0-4.2-1.9-4.2-4.2c0-2.3,1.9-4.2,4.2-4.2
			C538.2,458.4,540.1,460.3,540.1,462.6z"/>
	</g>
</g>
<g>
	<path class="st2" d="M335.9,203.7c-1.5,0-2.7,1.2-2.7,2.7v11.9H284v-11.9c0-1.5-1.2-2.7-2.7-2.7s-2.7,1.2-2.7,2.7v14.6
		c0,1.5,1.2,2.7,2.7,2.7h54.6c1.5,0,2.7-1.2,2.7-2.7v-14.6C338.6,204.9,337.4,203.7,335.9,203.7z"/>
	<path class="st2" d="M306.7,208.3c0.5,0.5,1.2,0.8,1.9,0.8s1.4-0.3,1.9-0.8l12.7-12.6c0.5-0.5,0.8-1.2,0.8-1.9
		c0-0.7-0.3-1.4-0.8-1.9c-1-1-2.8-1-3.8,0l-8.1,8v-33.6c0-1.5-1.2-2.7-2.7-2.7c-1.5,0-2.7,1.2-2.7,2.7v33.6l-8.1-8
		c-1.1-1-2.8-1-3.8,0c-0.5,0.5-0.8,1.2-0.8,1.9c0,0.7,0.3,1.4,0.8,1.9L306.7,208.3z"/>
</g>
<polygon class="st3" points="130,525.4 138.4,533.8 487.9,533.8 478.1,524.1 "/>
<g>
	<g>
		<g>
			<g>
				<path class="st4" d="M441.7,346.8c-9.4,0-134.7,0-134.7,0s-125.3,0-134.7,0c-9.4,0-8.4,8.1-8.4,8.1v164.4h286.1V355
					C450.1,355,451.1,346.8,441.7,346.8z"/>
				<g>
					<defs>
						<path id="SVGID_1_" d="M441.7,346.8c-9.4,0-134.7,0-134.7,0s-125.3,0-134.7,0c-9.4,0-8.4,8.1-8.4,8.1v164.4h286.1V355
							C450.1,355,451.1,346.8,441.7,346.8z"/>
					</defs>
					<clipPath id="SVGID_2_">
						<use xlink:href="#SVGID_1_"  style="overflow:visible;"/>
					</clipPath>
				</g>
				<path class="st5" d="M436.8,512.7H177.5c-2.2,0-4-1.8-4-4V360c0-2.2,1.8-4,4-4h259.3c2.2,0,4,1.8,4,4v148.6
					C440.8,510.9,439,512.7,436.8,512.7z"/>
			</g>
			<g>
				<rect x="129.9" y="518.2" class="st6" width="353.9" height="6.8"/>
				<rect x="466.7" y="518.2" class="st7" width="17.1" height="6.8"/>
				<rect x="129.9" y="518.2" class="st7" width="17.1" height="6.8"/>
				<path class="st8" d="M306.7,525H129.9c0,0,4.3,3.9,12,3.9c7.8,0,164.8,0,164.8,0s157,0,164.8,0s12-3.9,12-3.9H306.7z"/>
			</g>
		</g>
		<rect x="173.5" y="356" class="st9" width="267.2" height="14.2"/>
		<path class="st5" d="M363.9,361.1H187.3v5.7h176.7c1.6,0,2.8-1.3,2.8-2.8S365.5,361.1,363.9,361.1z"/>
		<rect x="174.7" y="361.1" class="st10" width="5.4" height="5.7"/>
		<rect x="180.7" y="361.1" class="st10" width="5.4" height="5.7"/>
		<path class="st5" d="M432.3,366.8h-59.5c-1.6,0-2.8-1.3-2.8-2.8v0c0-1.6,1.3-2.8,2.8-2.8h59.5c1.6,0,2.8,1.3,2.8,2.8l0,0
			C435.1,365.6,433.9,366.8,432.3,366.8z"/>
		<g>
			<circle class="st11" cx="176.5" cy="358.1" r="1.2"/>
			<circle class="st12" cx="180" cy="358.1" r="1.2"/>
			<circle class="st13" cx="183.4" cy="358.1" r="1.2"/>
		</g>
		<circle class="st14" cx="306.8" cy="351.1" r="2"/>
		<circle class="st4" cx="306.8" cy="351.1" r="1.3"/>
	</g>
</g>
<rect x="173.5" y="370.3" class="st15" width="267.2" height="12.7"/>
<g>
	<rect x="189.2" y="383" class="st10" width="48.5" height="129.7"/>
	<rect x="380.1" y="383" class="st10" width="48.5" height="129.7"/>
</g>
<rect x="241.9" y="462.8" class="st10" width="132.3" height="49.8"/>
<path class="st16" d="M367,500.3h-19.2c-0.6,0-1-0.5-1-1v-16.2c0-0.6,0.5-1,1-1H367c0.6,0,1,0.5,1,1v16.2
	C368,499.9,367.6,500.3,367,500.3z"/>
<path class="st16" d="M322.1,468.1h-75.8c-0.5,0-1-0.5-1-1v-0.4c0-0.6,0.5-1,1-1h75.8c0.6,0,1,0.4,1,1v0.4
	C323.1,467.6,322.6,468.1,322.1,468.1z"/>
<path class="st17" d="M367.3,474.4h-121c-0.5,0-1-0.5-1-1V473c0-0.6,0.5-1,1-1h121c0.5,0,1,0.4,1,1v0.4
	C368.3,474,367.8,474.4,367.3,474.4z"/>
<path class="st17" d="M367.3,479.3h-121c-0.5,0-1-0.4-1-1v-0.4c0-0.5,0.5-1,1-1h121c0.5,0,1,0.5,1,1v0.4
	C368.3,478.9,367.8,479.3,367.3,479.3z"/>
<path class="st17" d="M271.9,491.3H247c-1,0-1.8-0.8-1.8-1.8v-5.6c0-1,0.8-1.8,1.8-1.8h24.9c1,0,1.8,0.8,1.8,1.8v5.6
	C273.7,490.5,272.9,491.3,271.9,491.3z"/>
<path class="st17" d="M337.5,491.3h-58.8c-0.6,0-1-0.5-1-1v-0.4c0-0.6,0.4-1,1-1h58.8c0.5,0,1,0.4,1,1v0.4
	C338.5,490.8,338,491.3,337.5,491.3z"/>
<path class="st17" d="M337.5,495.8h-91.3c-0.5,0-1-0.4-1-1v-0.4c0-0.5,0.5-1,1-1h91.3c0.6,0,1,0.5,1,1v0.4
	C338.5,495.3,338.1,495.8,337.5,495.8z"/>
<path class="st17" d="M337.5,500.3h-91.3c-0.5,0-1-0.5-1-1v-0.4c0-0.6,0.5-1,1-1h91.3c0.6,0,1,0.4,1,1v0.4
	C338.5,499.9,338.1,500.3,337.5,500.3z"/>
<path class="st17" d="M422.2,474.5h-35.7c-1,0-1.9-0.8-1.9-1.9V441c0-1,0.8-1.9,1.9-1.9h35.7c1,0,1.9,0.8,1.9,1.9v31.7
	C424.1,473.7,423.3,474.5,422.2,474.5z"/>
<path class="st17" d="M422.2,510.3h-35.7c-1,0-1.9-0.8-1.9-1.9v-25.1c0-1,0.8-1.9,1.9-1.9h35.7c1,0,1.9,0.8,1.9,1.9v25.1
	C424.1,509.4,423.3,510.3,422.2,510.3z"/>
<path class="st17" d="M231.3,474.5h-35.7c-1,0-1.9-0.8-1.9-1.9V441c0-1,0.8-1.9,1.9-1.9h35.7c1,0,1.9,0.8,1.9,1.9v31.7
	C233.2,473.7,232.4,474.5,231.3,474.5z"/>
<path class="st17" d="M231.3,435.2h-35.7c-1,0-1.9-0.8-1.9-1.9v-44.3c0-1,0.8-1.9,1.9-1.9h35.7c1,0,1.9,0.8,1.9,1.9v44.3
	C233.2,434.4,232.4,435.2,231.3,435.2z"/>
<path class="st17" d="M422.2,435.2h-35.7c-1,0-1.9-0.8-1.9-1.9v-44.3c0-1,0.8-1.9,1.9-1.9h35.7c1,0,1.9,0.8,1.9,1.9v44.3
	C424.1,434.4,423.3,435.2,422.2,435.2z"/>
<path class="st17" d="M231.3,510.3h-35.7c-1,0-1.9-0.8-1.9-1.9v-25.1c0-1,0.8-1.9,1.9-1.9h35.7c1,0,1.9,0.8,1.9,1.9v25.1
	C233.2,509.4,232.4,510.3,231.3,510.3z"/>
<g>
	<path class="st18" d="M296.6,457.3h-30.3c-0.8,0-1.5-0.6-1.5-1.3v-11.9c0-0.7,0.7-1.3,1.5-1.3h30.3c0.8,0,1.5,0.6,1.5,1.3V456
		C298.1,456.7,297.4,457.3,296.6,457.3z"/>
	<path class="st19" d="M324.1,406.6h-38.3c-1,0-1.9-0.7-1.9-1.6v-14.9c0-0.9,0.8-1.6,1.9-1.6h38.3c1,0,1.9,0.7,1.9,1.6V405
		C326,405.8,325.1,406.6,324.1,406.6z"/>
	<path class="st20" d="M343.6,457.3h-30.3c-0.8,0-1.5-0.6-1.5-1.3v-11.9c0-0.7,0.7-1.3,1.5-1.3h30.3c0.8,0,1.5,0.6,1.5,1.3V456
		C345.1,456.7,344.4,457.3,343.6,457.3z"/>
	
		<rect x="302" y="423.2" transform="matrix(0.7071 -0.7071 0.7071 0.7071 -212.0265 340.4179)" class="st21" width="5.9" height="5.9"/>
	<g>
		<line class="st22" x1="348.4" y1="450.1" x2="356.5" y2="450.1"/>
		<line class="st22" x1="356.5" y1="397.5" x2="356.5" y2="450.1"/>
		<path class="st22" d="M327.1,409.9h-44.2c-1.2,0-2.2-1-2.2-2.2v-20.1c0-1.2,1-2.2,2.2-2.2h44.2c1.2,0,2.2,1,2.2,2.2v20.1
			C329.2,408.9,328.2,409.9,327.1,409.9z"/>
		
			<rect x="299.2" y="420.4" transform="matrix(0.7071 -0.7071 0.7071 0.7071 -212.0169 340.4409)" class="st22" width="11.5" height="11.5"/>
		<path class="st22" d="M299.2,460.2h-35.6c-1.2,0-2.2-1-2.2-2.2v-15.8c0-1.2,1-2.2,2.2-2.2h35.6c1.2,0,2.2,1,2.2,2.2V458
			C301.4,459.2,300.4,460.2,299.2,460.2z"/>
		<path class="st22" d="M346.2,460.2h-35.6c-1.2,0-2.2-1-2.2-2.2v-15.8c0-1.2,1-2.2,2.2-2.2h35.6c1.2,0,2.2,1,2.2,2.2V458
			C348.4,459.2,347.4,460.2,346.2,460.2z"/>
		<line class="st22" x1="304.9" y1="409.9" x2="304.9" y2="418"/>
		<line class="st22" x1="330.8" y1="397.5" x2="356.3" y2="397.5"/>
		<polyline class="st22" points="296.8,426.1 281.4,426.1 281.4,440.1 		"/>
		<polyline class="st22" points="313.1,426.1 328.4,426.1 328.4,440.1 		"/>
	</g>
</g>
<g id="g10302" transform="matrix(0.92988585,0,0,0.92988585,-3996.6606,-1611.459)">
	<path class="st2" d="M4441.7,2036.9c-6.2,0-11.4-1.3-13.7-3.1c-1.2-1-1.3-1.9-1.1-2.5c0.3-1.3,1.8-2.4,4.8-3.2l0.6,1.4
		c-0.3,0.2-0.6,0.4-0.6,0.6c0.1,0,0.5,0.4,2.7,0.7c7.1,0.8,10.6,0.7,18.2-0.8l0.3-0.1l0.3,0.2c0,0,2,1.3,4.8,2.3l1.7,0.7l-1.7,0.7
		C4452.7,2036,4446.9,2036.9,4441.7,2036.9z M4430.2,2030.2c-1.2,0.5-1.7,1-1.8,1.4c-0.1,0.4,0.4,0.8,0.6,1
		c3.1,2.6,15.6,4.5,26.6,0.4c-1.5-0.7-2.6-1.3-3-1.6c-7.5,1.4-11.2,1.6-18.4,0.7C4431.7,2031.9,4430.4,2031.4,4430.2,2030.2
		C4430.2,2030.3,4430.2,2030.3,4430.2,2030.2z"/>
	<path id="path3265" class="st2" d="M4431.9,2028.9c0,0-3.4,2,2.4,2.6c7,0.8,10.7,0.7,18.4-0.8c0,0,2,1.3,4.9,2.4
		C4440.2,2040.6,4418.2,2032.7,4431.9,2028.9"/>
	<path class="st2" d="M4439.9,2027.1c-8.3,0-14.8-1.6-15.6-4.1c-0.5-1.7,1.2-3.2,5.2-4.6l0.7,1.3c-0.5,0.4-1,1-0.9,1.2
		c0,0,0.2,0.6,2.6,0.8c7.5,0.8,13.4,0.8,23.5-1.1l0.4-0.1l0.3,0.3c0,0,1.3,1.3,3.4,2.1l2.2,0.8l-2.2,0.7
		C4453,2026.2,4445.9,2027.1,4439.9,2027.1z M4427.8,2020.7c-1.8,0.8-2.2,1.5-2,1.8c0.8,2.4,15.4,5,31.3,0.9
		c-0.8-0.5-1.4-0.9-1.7-1.2c-10.1,1.9-16.1,1.9-23.6,1.1c-1.5-0.2-3.5-0.5-3.9-1.9C4427.8,2021.1,4427.8,2020.9,4427.8,2020.7z"/>
	<path id="path3267" class="st2" d="M4429.8,2019.1c0,0-3.8,2.8,2,3.4c7.5,0.8,13.5,0.8,23.8-1.1c0,0,1.4,1.4,3.7,2.2
		C4438.2,2029.8,4414.7,2024.1,4429.8,2019.1"/>
	<path class="st2" d="M4446.9,2012.6l-0.8-1.2c0,0,2.3-1.9,2.5-4.4c0.1-1.3-0.4-2.6-1.5-3.9h0c-3.6-4.2-4.9-8.2-3.7-12
		c2.9-9.2,19.3-13.4,20-13.6l0.6,1.4c-9.3,5.4-13.7,9.2-14.4,12.3c-0.5,2.2,1,4.3,2.9,6.9l0.6,0.8c1.3,1.9,1.7,3.8,1.3,5.8
		C4453.2,2009.4,4447.2,2012.5,4446.9,2012.6z M4448.3,2002.1c1.4,1.6,2,3.2,1.8,5c-0.1,0.7-0.2,1.3-0.4,1.8
		c1.4-1.2,2.8-2.8,3.2-4.7c0.4-1.5,0-3-1-4.5l-0.6-0.8c-2-2.8-3.7-5.2-3.1-8.1c0.6-2.8,3.5-5.8,9.3-9.7c-4.9,2-11,5.5-12.6,10.4
		C4443.9,1994.8,4445,1998.3,4448.3,2002.1L4448.3,2002.1z"/>
	<path id="path3269" class="st2" d="M4447.7,2002.6c4.3,4.9-1.1,9.4-1.1,9.4s10.9-5.6,5.9-12.7c-4.7-6.6-8.3-9.8,11.1-21.1
		C4463.6,1978.2,4433.2,1985.8,4447.7,2002.6"/>
	<path class="st2" d="M4439.8,2045.5c-7.6,0-16.1-0.6-24.6-2c-3.2-0.5-4.8-1.4-5.1-2.7c-0.2-1,0.5-2.1,2-3.1
		c3.3-2.2,10.9-4.3,13.4-2.6l2.2,1.6l-2.7-0.2c0,0-1.1-0.1-2.9,0.3c-2,0.4-4.5,1.5-4.9,2c0.1,0.1,0.2,0.1,0.4,0.2
		c8.4,3.7,39.6,3,50.1-0.2c2.5-0.7,2.8-1.5,2.8-1.7c0.1-0.3-0.3-0.7-0.3-0.7l0.8-1.3c2.3,1,2.3,2.3,2.1,3
		C4472,2042.1,4458.1,2045.5,4439.8,2045.5z M4417.2,2037.1c-1.6,0.5-3.2,1.2-4.3,1.9c-1,0.7-1.4,1.3-1.4,1.5c0,0.1,0.3,0.9,3.8,1.5
		c21.4,3.5,39.5,1.7,49-0.7c-12.5,2.3-39.2,2.8-47.4-0.8c-1.2-0.5-1.4-1.2-1.4-1.7C4415.7,2038.2,4416.4,2037.6,4417.2,2037.1z"/>
	<path id="path3271" class="st2" d="M4470.7,2036.1c0,0,2.5,2.1-2.8,3.7c-10.1,3-41.8,4-50.7,0.1c-3.2-1.4,2.8-3.3,4.6-3.7
		c2-0.4,3.1-0.3,3.1-0.3c-3.5-2.5-22.8,4.9-9.8,7C4450.7,2048.6,4480,2040.2,4470.7,2036.1"/>
	<path class="st2" d="M4435.8,2017.6c-9.5,0-17.7-1.1-18.5-3.3c-0.4-1,0.3-1.9,2-2.7c7.8-3.8,14.1-3.4,14.4-3.4l0.1,1.5
		c-4.1,1-7.8,2.3-8.6,3.1c0.3,0.1,1,0.4,2.8,0.7c4.2,0.6,12.8,0.5,21.2-0.2c6.6-0.6,13.3-1.7,13.3-1.8l0.4,1.4c0,0-2.3,1-3.9,2.1
		l-0.2,0.1C4452.5,2016.8,4443.7,2017.6,4435.8,2017.6z M4425.4,2010.9c-1.7,0.5-3.6,1.2-5.6,2.1c-1.1,0.5-1.2,0.8-1.2,0.8
		c1,2.3,24.9,3.7,39.6-0.1c0,0,0,0,0,0c-2.5,0.4-5.8,0.8-9,1.1c-8.5,0.7-17.2,0.8-21.5,0.2c-2.9-0.4-4.1-1-4.2-2.1
		C4423.5,2012.3,4424.1,2011.6,4425.4,2010.9z"/>
	<path id="path3273" class="st2" d="M4433.5,2009c0,0-16.2,3.8-5.7,5.2c4.4,0.6,13.2,0.5,21.4-0.2c6.7-0.6,13.4-1.8,13.4-1.8
		s-2.4,1-4.1,2.2c-16.4,4.3-48.1,2.3-39-2.1C4427.3,2008.6,4433.5,2009,4433.5,2009"/>
	<path class="st2" d="M4462.4,2026.4l-0.7-1.3c0.1,0,0.1-0.1,0.1-0.2l0.1-0.3l0.2-0.1c7.2-3.7,10.7-8,9.5-11.5
		c-0.7-2.1-3.2-3.4-5.4-3c-1.2,0.3-1.8,0.5-1.8,0.5l-2.2,0.9l1.3-2c0.1-0.1,0.7-1,1.8-1.4c3.5-1.2,7.1-0.7,9.5,1.5
		c1.9,1.7,2.6,4.1,2,6.6C4476.3,2018.7,4473.5,2023.5,4462.4,2026.4z M4469.5,2008.9c1.7,0.6,3,2,3.6,3.6c0.6,1.7,1,5.7-5.5,10.4
		c4.3-1.9,7.1-4.5,7.8-7.3c0.5-1.9-0.1-3.7-1.6-5.1C4472.7,2009.6,4471.1,2009,4469.5,2008.9z"/>
	<path id="path3275" class="st2" d="M4462.5,2025.2c16.7-8.7,9-17,3.6-15.9c-1.3,0.3-1.9,0.5-1.9,0.5s0.5-0.8,1.4-1.1
		c10.7-3.7,18.8,11-3.4,16.9C4462.2,2025.7,4462.5,2025.4,4462.5,2025.2"/>
	<path class="st2" d="M4443.2,2009.4c-8.2-7.4-15.2-14.6-10.6-21.5c2.1-3.1,5.4-5.8,8.7-8.3c6.6-5.2,12.8-10,10.5-19.4l-0.7-2.7
		l1.9,1.9c0.1,0.1,2.9,2.9,2.6,7.8c-0.3,5.4-4.2,11.1-11.4,16.8c-10.6,8.4-6.9,13.7-2.9,19.3c1.2,1.6,2.4,3.4,3.1,5.1L4443.2,2009.4
		z M4453.8,1964.1c0,7.6-5.9,12.2-11.6,16.7c-3.3,2.6-6.4,5-8.3,7.9c-3,4.5-0.2,9.4,6.3,15.8c0-0.1-0.1-0.1-0.1-0.2
		c-4-5.7-8.5-12.1,3.2-21.4c6.8-5.4,10.5-10.8,10.8-15.7C4454.1,1966,4454,1965,4453.8,1964.1z"/>
	<path id="path3277" class="st2" d="M4452.5,1960.1c0,0,9.2,9.2-8.8,23.5c-14.4,11.4-3.3,17.9,0,25.3c-8.4-7.6-14.6-14.3-10.5-20.5
		C4439.3,1979.2,4456.2,1974.7,4452.5,1960.1"/>
	<path class="st2" d="M4444.2,2049.8c-3.2,0-6.3-0.1-9.1-0.3l0,0c-10.4-0.7-12.8-2.3-13-2.5l-2.3-1.8l2.9,0.5
		c9.5,1.6,26.1,2,40.3-0.6c11.2-2.1,12.7-4.7,12.7-4.7l1.4,0.4C4476.6,2047.5,4459.2,2049.8,4444.2,2049.8z M4473.3,2043.7
		c-2,0.9-5.2,1.9-10,2.8c-5.2,1-10.8,1.5-16.3,1.8C4458.4,2048.1,4468.8,2046.5,4473.3,2043.7z"/>
	<path id="path3279" class="st2" d="M4435.2,2048.7c16,1,40.6-0.6,41.2-8.1c0,0-1.1,2.9-13.2,5.2c-13.7,2.6-30.5,2.3-40.5,0.6
		C4422.6,2046.4,4424.7,2048.1,4435.2,2048.7"/>
</g>
<g>
	<path class="st2" d="M506.6,260.4c-0.3,0.6-0.6,1-1.1,1.5c-0.9,1-2.1,1.4-3.4,1.7c-1.3,0.3-2.5,0.2-3.8,0.1
		c-1.4-0.1-2.7-0.5-3.9-1.4c-0.8-0.6-1.3-1.4-1.5-2.3c0-0.1,0-0.2-0.1-0.3c0,0-0.1-0.1-0.1-0.1c-0.3,0.4-0.5,0.8-0.8,1.2
		c-1.1,1.5-2.6,2.4-4.4,2.7c-1.9,0.3-3.6,0.2-5.4-0.6c-1.2-0.6-2.2-1.4-2.8-2.6c-0.2-0.3-0.2-0.5-0.1-0.8c0.2-0.8,0.4-1.6,0.4-2.5
		c0-1.1-0.3-2.2-0.9-3.2c-0.2-0.2-0.2-0.4-0.1-0.7c0.9-2.3,2.4-3.9,4.9-4.6c2.5-0.7,4.8-0.4,7,1.1c0.9,0.6,1.6,1.4,2.1,2.3
		c0.1,0.2,0.3,0.5,0.4,0.8c0.1-2.1,1.3-3.2,3.1-3.9c1-0.4,1.9-0.6,3-0.6c0.8,0,1.6,0,2.4,0c1.3,0.1,2.5,0.5,3.5,1.3
		c0.6,0.5,1.1,1.1,1.3,1.9c0,0.1,0.1,0.2,0.2,0.3c0.1-0.4,0.3-0.8,0.5-1.2c0.6-1,1.6-1.4,2.6-1.8c0.9-0.3,1.8-0.5,2.8-0.5
		c0.8,0,1.6,0,2.3,0c1.5,0.2,3,0.6,4.1,1.8c0.7,0.7,0.9,1.6,1.1,2.6c0,0.2,0,0.3-0.2,0.3c-1.3,0-2.6,0-3.9,0c-0.2,0-0.3-0.1-0.3-0.3
		c-0.1-0.7-0.5-1-1.1-1.2c-0.8-0.2-1.6-0.2-2.3,0c-0.4,0.1-0.7,0.4-0.7,0.8c0,0.4,0.2,0.7,0.5,0.9c0.6,0.4,1.4,0.6,2.1,0.7
		c1,0.2,2.1,0.4,3.1,0.6c1.2,0.3,2.3,0.9,3,2c0.6,1,0.7,2,0.5,3.1c-0.4,1.7-1.5,2.8-3.2,3.4c-1.1,0.4-2.2,0.6-3.3,0.6
		c-1,0-2,0-3-0.2C509,263,507.4,262.2,506.6,260.4L506.6,260.4z M510.8,258.4c0.1,1.2,0.7,1.8,1.7,2.1c0.8,0.2,1.5,0.2,2.2-0.2
		c0.2-0.1,0.4-0.3,0.6-0.5c0.3-0.4,0.4-1.2-0.1-1.6c-0.2-0.2-0.5-0.4-0.8-0.4c-0.6-0.2-1.2-0.3-1.8-0.5c-1.2-0.3-2.5-0.5-3.7-0.9
		c-1.4-0.5-2.4-1.5-2.7-3.1c-0.1-0.5-0.1-0.5-0.5-0.5c-1.2,0-2.5,0-3.7,0c-0.3-1.2-0.8-1.5-1.9-1.6c-0.3,0-0.7,0-1,0
		c-0.3,0-0.6,0.1-0.9,0.3c-0.7,0.4-0.7,1.1-0.1,1.6c0.3,0.2,0.6,0.3,1,0.5c1.1,0.4,2.3,0.5,3.5,0.8c0.8,0.2,1.5,0.3,2.2,0.7
		c1.1,0.7,1.8,1.5,2,2.8c0.1,0.4,0,0.4,0.5,0.4C508.5,258.4,509.6,258.4,510.8,258.4L510.8,258.4z M483,255.8c0,1.4,0.2,2,0.5,2.8
		c0.7,1.6,2.9,1.7,4,0.9c0.4-0.3,0.7-0.8,0.9-1.3c0.4-1,0.4-2,0.3-3c-0.1-0.8-0.3-1.6-0.8-2.3c-1-1.4-3.4-1.4-4.3,0.2
		C483.1,254,482.9,254.9,483,255.8L483,255.8z M493.5,254.9c0.2,1,0,1.9-0.2,2.9c-0.1,0.6-0.1,0.6,0.5,0.6c1,0,2,0,3,0
		c0.3,0,0.4,0,0.4,0.4c0,0.4,0.2,0.7,0.5,1c0.8,0.9,1.8,0.9,2.9,0.7c0.4-0.1,0.8-0.3,1.1-0.6c0.5-0.6,0.4-1.4-0.3-1.8
		c-0.3-0.2-0.7-0.3-1.1-0.4c-0.9-0.2-1.8-0.4-2.7-0.6C496.2,256.7,494.6,256.3,493.5,254.9z"/>
	<path class="st2" d="M461.4,258.6c-0.1,0.5-0.3,1-0.4,1.5c-0.6,1.6-1.8,2.7-3.5,3.2c-2.1,0.6-4.2,0.6-6.3-0.1
		c-1.5-0.5-2.6-1.6-3.2-3.1c-0.6-1.5-0.6-3-0.6-4.5c0-0.2,0.1-0.3,0.3-0.3c1.4,0,2.8,0,4.2,0c0.4,0,0.4,0.1,0.4,0.5
		c0,0.6,0,1.1,0,1.7c0,0.7,0.3,1.3,1,1.6c0.7,0.3,1.5,0.4,2.2-0.1c0.5-0.4,0.6-1,0.7-1.6c0-0.4,0-0.9,0-1.3c0-4,0-8,0-12
		c0-0.3,0-0.5,0-0.7c0.2-0.1,0.4-0.1,0.5-0.1c4.8,0,9.6,0,14.4,0c1.5,0,3,0.2,4.3,0.8c1.7,0.8,2.5,2.1,2.6,4c0.1,1.7-0.7,3-2.1,4
		c-0.1,0-0.1,0.1-0.2,0.1c-0.1,0-0.1,0.1-0.2,0.1c0,0.2,0.2,0.2,0.3,0.2c1.7,0.7,2.6,2,2.9,3.8c0.2,1.1,0,2.2-0.4,3.3
		c-0.7,1.8-2.1,2.8-3.9,3.3c-1.1,0.3-2.2,0.4-3.3,0.4c-3.1,0-6.2,0-9.3,0c-0.6,0-0.5-0.1-0.5-0.5c0-1.2,0-2.3,0-3.5
		C461.4,259.1,461.5,258.9,461.4,258.6L461.4,258.6z M466.7,254.4v4.6c1.6,0,3.3,0.1,4.9,0c1.4-0.1,2.2-0.8,2.1-2.3
		c0-0.1,0-0.3,0-0.4c0-0.5-0.2-0.8-0.5-1.2c-0.5-0.6-1.2-0.7-2-0.7C469.7,254.4,468.2,254.4,466.7,254.4L466.7,254.4z M466.7,247.2
		c0,1.2,0,2.3,0,3.5c0,0.3,0.1,0.4,0.4,0.4c1.3,0,2.5,0,3.8,0c0.3,0,0.5-0.1,0.7-0.2c0.9-0.3,1.4-1,1.3-2.2
		c-0.1-0.8-0.6-1.5-1.7-1.5C469.6,247.1,468.2,247.2,466.7,247.2L466.7,247.2z M462,283.8c-3.1,0.1-6.2-2.6-6.1-6.2
		c0.1-3.7,3.2-6.2,6.3-6.1c3.3,0.1,6,2.8,6,6.3C468.2,281.2,465.2,284,462,283.8z M446.4,270.3c2.8-0.1,5.4,2.2,5.5,5.4
		c0,3.1-2.5,5.5-5.4,5.5c-3,0-5.5-2.5-5.5-5.5C440.9,272.6,443.6,270.2,446.4,270.3L446.4,270.3z M434.6,270.8c-2.6,0.1-5-2.2-4.9-5
		c0-2.4,2-4.9,4.9-4.9c2.6,0,4.9,2,4.9,4.9C439.5,268.9,436.9,270.9,434.6,270.8L434.6,270.8z M428.4,252c-0.1-2.4,2.1-4.5,4.4-4.4
		c2.2,0,4.4,1.8,4.4,4.4c0,2.8-2.4,4.4-4.4,4.4C430.4,256.5,428.3,254.3,428.4,252L428.4,252z M439.7,243.3
		c-2.2,0.1-3.7-1.9-3.7-3.7c0-1.9,1.7-3.7,3.7-3.7c2.1,0,3.7,1.7,3.7,3.7C443.4,241.9,441.4,243.5,439.7,243.3L439.7,243.3z
		 M453.9,234.2c0.1,1.8-1.6,3.4-3.3,3.3c-1.8,0-3.3-1.5-3.3-3.4c0-2.2,1.9-3.3,3.3-3.3C452.3,230.8,454,232.4,453.9,234.2
		L453.9,234.2z M462.2,235.2c-1.6,0.1-2.8-1.4-2.8-2.8c0-1.6,1.4-2.8,2.8-2.8c1.3,0,2.8,1,2.8,2.8
		C465.1,234,463.8,235.2,462.2,235.2z"/>
</g>
<path id="MobileMe_4_" class="st2" d="M375,85c0,14.6-11.8,26.5-26.3,26.5h-81.3c-14.5,0-26.3-11.9-26.3-26.5
	c0-13.2,9.6-24.1,22.1-26.1c-0.2-0.9-0.2-1.9-0.2-2.9c0-9.3,7.5-16.8,16.7-16.8c4.1,0,7.9,1.5,10.8,4c5.2-11.7,11.8-22.4,30.4-22.4
	c22.5,0,33.2,17.5,33.2,36c0,0.8,0,1.5-0.1,2.3C366,61.5,375,72.2,375,85z"/>
<path class="st23" d="M-36.5,259.9c2.5,0,4.5-2,4.5-4.5c0-2.5-2-4.5-4.5-4.5s-4.5,2-4.5,4.5C-41,257.9-39,259.9-36.5,259.9z"/>
<path class="st2" d="M123,439.9C123,439.9,123,439.9,123,439.9C123,439.9,123,439.9,123,439.9C123,440,123,440,123,439.9
	c0,0.5-0.3,0.8-0.8,0.8c0,0-6.7,0-6.7,0c-0.4,0-0.8-0.3-0.8-0.8c0-0.4,0.3-0.8,0.8-0.8h6c0-0.3,0-0.5,0-0.8
	c0-7.9-6.4-14.4-14.4-14.4s-14.4,6.4-14.4,14.4c0,0.3,0,0.5,0,0.8h6c0.4,0,0.8,0.3,0.8,0.8c0,0.4-0.3,0.8-0.8,0.8c0,0-6.8,0-6.7,0
	c-0.4,0-0.8-0.3-0.8-0.8c0,0,0,0,0,0c0,0,0,0,0,0c0,0,0,0,0,0c0-0.5-0.1-1-0.1-1.5c0-8.8,7.1-15.9,15.9-15.9s15.9,7.1,15.9,15.9
	C123.1,438.9,123.1,439.4,123,439.9z M102.3,430.9c0.3-0.2,0.7-0.1,0.9,0.1l0-0.1c6.6,4.9,8,7.1,8,7.1c1.1,1.8,0.4,4.1-1.4,5.1
	c-1.9,1-4.3,0.4-5.4-1.4c0,0-1.4-2.3-2.5-10.2l0,0.1C101.9,431.4,102,431.1,102.3,430.9z M105.8,441.1c0.4,0.7,1.2,1.1,2,1.1
	c0.4,0,0.8-0.1,1.2-0.3c0.5-0.3,0.9-0.8,1.1-1.4c0.2-0.6,0.1-1.2-0.2-1.7c0,0-1.2-1.8-6.1-5.6C104.7,439.2,105.7,441.1,105.8,441.1z
	"/>
<path class="st23" d="M111,463.5v-15.1c0-0.8-0.7-1.5-1.5-1.5c-0.8,0-1.5,0.7-1.5,1.5v15c0,0.4-0.2,0.8-0.4,1.1
	c-0.3,0.3-0.7,0.4-1.1,0.4c-0.4,0-0.8-0.2-1.1-0.4c-0.3-0.3-0.4-0.7-0.4-1.1v-13.2c0-0.8-0.7-1.5-1.5-1.5c-0.2,0-0.3,0-0.5,0.1
	c-0.6,0.2-1,0.8-1,1.4v21.5l0,0.1c-0.1,0.6-0.4,1.1-1,1.4c-0.7,0.3-1.5,0.1-1.9-0.5l-4.4-5.8l0-0.1c-0.5-0.8-1.5-1.1-2.3-0.6
	c-0.4,0.2-0.7,0.6-0.8,1c-0.1,0.4-0.1,0.9,0.2,1.3l3.8,5.8c0,0.1,3.5,5.5,4.4,6.8l0,0l0.2,0.4c0.4,0.8,0.9,1.5,1.5,2.1l0,0
	c0,0,0.1,0.1,0.1,0.1l0,0c0.8,0.8,1.6,1.6,2.6,2.2c2.7,1.7,6,2.3,9.1,1.6c5.5-1.2,9.5-6,9.6-11.7l0-10.6c0-0.8-0.7-1.5-1.5-1.5
	c-0.7,0-1.3,0.5-1.5,1.1c0,0.3-0.2,0.6-0.4,0.9c-0.3,0.3-0.7,0.4-1.1,0.4c-0.4,0-0.8-0.2-1.1-0.4c-0.3-0.3-0.4-0.7-0.4-1.1v-1.7
	c0-0.8-0.7-1.5-1.5-1.5s-1.5,0.7-1.5,1.5l0,0.7c-0.1,0.8-0.8,1.4-1.6,1.4C111.6,465,111,464.3,111,463.5z"/>
<path class="st23" d="M81.8,455.2h17.9v-4.9c0-1.6,1-3,2.5-3.6c0.4-0.1,0.8-0.2,1.2-0.2c0.9,0,1.8,0.3,2.4,0.9
	c0.5-1.6,1.9-2.7,3.6-2.7c2.1,0,3.8,1.7,3.8,3.8v6.8h24v-39.5H81.8V455.2z M109.6,438.9c-0.2,0.2-0.5,0.3-0.7,0.3
	c-0.2,0-0.5-0.1-0.7-0.3l-0.9-0.8l-0.3,3.7c0,0.5-0.5,0.9-1.1,0.9c-0.5,0-0.8-0.4-0.9-0.9l-0.3-3.7l-0.9,0.8c-0.4,0.4-1,0.3-1.4,0
	c-0.4-0.4-0.3-1,0-1.4l2.8-2.6c0.4-0.3,1-0.3,1.3,0l2.8,2.6C110,437.9,110,438.5,109.6,438.9z M133.8,433.3c1.2,0,2.1,1,2.1,2.1
	s-1,2.1-2.1,2.1s-2.1-1-2.1-2.1S132.6,433.3,133.8,433.3z M84.2,418.8c0-0.3,0.3-0.6,0.6-0.6h44.9c0.3,0,0.6,0.3,0.6,0.6v33.4
	c0,0.3-0.3,0.6-0.6,0.6h-13.8c-0.3,0-0.6-0.3-0.6-0.6c0-0.3,0.3-0.6,0.6-0.6h13.2v-32.3H85.4v32.3H97c0.3,0,0.6,0.3,0.6,0.6
	c0,0.3-0.3,0.6-0.6,0.6H84.8c-0.3,0-0.6-0.3-0.6-0.6V418.8z"/>
<path class="st2" d="M84.8,452.7H97c0.3,0,0.6-0.3,0.6-0.6s-0.3-0.6-0.6-0.6H85.4v-32.3h43.8v32.3h-13.2c-0.3,0-0.6,0.3-0.6,0.6
	c0,0.3,0.3,0.6,0.6,0.6h13.8c0.3,0,0.6-0.3,0.6-0.6v-33.4c0-0.3-0.3-0.6-0.6-0.6H84.8c-0.3,0-0.6,0.3-0.6,0.6v33.4
	C84.2,452.5,84.5,452.7,84.8,452.7z"/>
<path class="st2" d="M110.3,493.3c-0.8,0-1.4-0.1-1.7-0.1c-2.1-0.3-4.1-1.1-5.9-2.3c-0.3-0.2-0.4-0.7-0.2-1.1
	c0.1-0.2,0.4-0.3,0.6-0.3c0.2,0,0.3,0,0.4,0.1c1.6,1.1,3.4,1.8,5.2,2.1c0.2,0,0.7,0.1,1.5,0.1c2.1,0,6-0.5,8.8-3.7
	c0.3-0.3,0.5-0.7,0.8-1c-1.7,1.4-3.8,2.3-6,2.8c-1,0.2-2.1,0.3-3.2,0.3c-2.7,0-5.4-0.8-7.8-2.3c-1.1-0.7-2.2-1.6-3.1-2.6
	c0,0-0.1-0.1-0.1-0.2c-0.7-0.8-1.3-1.6-1.8-2.5c-0.3-0.5-4.4-6.8-4.6-7.1l-3.9-5.9c-0.6-1-0.7-2.1-0.4-3.2c0.3-1.1,1-2,1.9-2.5
	c0.6-0.4,1.4-0.6,2.1-0.6c1.4,0,2.8,0.8,3.6,2l2.8,3.7v-11.4H80.6c-0.7,0-1.3-0.6-1.3-1.3v-41.7c0-0.7,0.6-1.3,1.3-1.3h57.7
	c0.7,0,1.3,0.6,1.3,1.3v41.7c0,0.7-0.6,1.3-1.3,1.3h-25v1.9c0.6-0.4,1.3-0.6,2.1-0.6c1.8,0,3.4,1.2,3.8,2.9c0.7-0.4,1.4-0.6,2.2-0.6
	c2.2,0,4,1.8,4,4l0,10.6c-0.1,2.9-0.9,5.7-2.5,8c-0.5,2-1.4,3.8-2.7,5.3C117.1,492.8,112.6,493.3,110.3,493.3z M101.9,483.6
	c0.7,0.8,1.6,1.5,2.5,2.1c1.9,1.2,4.1,1.9,6.4,1.9c0.9,0,1.7-0.1,2.6-0.3c5.5-1.2,9.3-5.9,9.4-11.5l0-10.6c0-0.7-0.6-1.3-1.3-1.3
	c-0.6,0-1.2,0.4-1.3,0.9c0,0.3-0.2,0.7-0.5,1c-0.3,0.3-0.8,0.5-1.2,0.5c-0.5,0-0.9-0.2-1.2-0.5s-0.5-0.8-0.5-1.2v-1.7
	c0-0.7-0.6-1.3-1.3-1.3c-0.7,0-1.3,0.6-1.3,1.3l0,0.7c-0.1,0.9-0.8,1.6-1.7,1.6l0,0c-1,0-1.7-0.8-1.7-1.7v-15.1
	c0-0.7-0.6-1.3-1.3-1.3s-1.3,0.6-1.3,1.3v15c0,0.5-0.2,0.9-0.5,1.2c-0.3,0.3-0.8,0.5-1.2,0.5c-0.5,0-0.9-0.2-1.2-0.5
	c-0.3-0.3-0.5-0.8-0.5-1.2v-13.2c0-0.7-0.6-1.3-1.3-1.3c-0.1,0-0.3,0-0.4,0.1c-0.5,0.2-0.9,0.7-0.9,1.2v21.5
	c-0.1,0.8-0.5,1.3-1.1,1.6c-0.2,0.1-0.4,0.1-0.7,0.1c-0.6,0-1.1-0.3-1.5-0.7l-4.4-5.8c-0.3-0.5-0.8-0.8-1.3-0.8
	c-0.3,0-0.5,0.1-0.8,0.2c-0.3,0.2-0.6,0.5-0.7,0.9c-0.1,0.4,0,0.8,0.1,1.1l3.8,5.8c0,0.1,3.4,5.4,4.4,6.8l0.1,0.1l0.2,0.4
	c0.4,0.7,0.9,1.4,1.4,2.1l-0.1,0.2L101.9,483.6l-0.1,0.1L101.9,483.6z M137.1,455v-39.1H82V455h17.5v-4.7c0-1.7,1.1-3.2,2.7-3.8
	c0.4-0.1,0.9-0.2,1.3-0.2c0.8,0,1.6,0.3,2.3,0.8c0.6-1.5,2.1-2.6,3.7-2.6c2.2,0,4,1.8,4,4v6.6H137.1z"/>
<path class="st2" d="M138.4,413.5H80.6c-0.6,0-1.1,0.5-1.1,1.1v41.7c0,0.6,0.5,1.1,1.1,1.1h19v12.2l-3.1-4.1
	c-1.1-1.8-3.5-2.4-5.4-1.4c-0.9,0.5-1.6,1.4-1.8,2.4c-0.3,1-0.1,2.1,0.4,3l3.9,5.9c0.2,0.3,4.3,6.6,4.6,7.1c0.5,0.9,1.1,1.7,1.7,2.4
	l0,0c0,0.1,0.1,0.1,0.1,0.2c0.9,1,1.9,1.9,3,2.6c2.3,1.5,5,2.2,7.7,2.2c1,0,2.1-0.1,3.1-0.3c2.6-0.6,4.9-1.8,6.8-3.5
	c-0.4,0.7-0.8,1.4-1.4,2.1c-3.9,4.4-9.8,3.8-10.5,3.7c-1.9-0.3-3.7-1-5.3-2.1c-0.3-0.2-0.6-0.1-0.8,0.1c-0.2,0.3-0.1,0.6,0.1,0.8
	c1.7,1.2,3.7,2,5.8,2.3c0.2,0,0.8,0.1,1.6,0.1c2.4,0,6.7-0.6,9.9-4.2c1.5-1.7,2.3-3.7,2.7-5.3c1.5-2.3,2.4-5,2.5-7.9l0-10.6
	c0-2.1-1.7-3.8-3.8-3.8c-0.9,0-1.7,0.3-2.3,0.8c-0.3-1.7-1.9-3.1-3.7-3.1c-0.8,0-1.6,0.3-2.3,0.8v-2.4h25.2c0.6,0,1.1-0.5,1.1-1.1
	v-41.7C139.5,414,139,413.5,138.4,413.5z M114,463.6l0-0.7c0-0.8,0.7-1.5,1.5-1.5s1.5,0.7,1.5,1.5v1.7c0,0.4,0.2,0.8,0.4,1.1
	c0.3,0.3,0.7,0.4,1.1,0.4c0.4,0,0.8-0.2,1.1-0.4c0.2-0.2,0.4-0.5,0.4-0.9c0.2-0.6,0.8-1.1,1.5-1.1c0.8,0,1.5,0.7,1.5,1.5l0,10.6
	c-0.1,5.7-4,10.5-9.6,11.7c-3.2,0.7-6.4,0.1-9.1-1.6c-1-0.6-1.8-1.3-2.6-2.2l0,0c0,0-0.1-0.1-0.1-0.1l0,0c-0.6-0.6-1-1.3-1.5-2.1
	l-0.2-0.4l0,0c-0.9-1.4-4.4-6.8-4.4-6.8l-3.8-5.8c-0.2-0.4-0.3-0.8-0.2-1.3c0.1-0.4,0.4-0.8,0.8-1c0.8-0.5,1.8-0.2,2.3,0.6l0,0.1
	l4.4,5.8c0.4,0.6,1.2,0.8,1.9,0.5c0.6-0.2,1-0.7,1-1.4l0-0.1v-21.5c0-0.6,0.4-1.2,1-1.4c0.2-0.1,0.3-0.1,0.5-0.1
	c0.8,0,1.5,0.7,1.5,1.5v13.2c0,0.4,0.2,0.8,0.4,1.1c0.3,0.3,0.7,0.4,1.1,0.4c0.4,0,0.8-0.2,1.1-0.4c0.3-0.3,0.4-0.7,0.4-1.1v-15
	c0-0.8,0.7-1.5,1.5-1.5c0.8,0,1.5,0.7,1.5,1.5v15.1c0,0.8,0.6,1.5,1.4,1.5C113.2,465,113.9,464.4,114,463.6z M137.3,455.2h-24v-6.8
	c0-2.1-1.7-3.8-3.8-3.8c-1.7,0-3.1,1.1-3.6,2.7c-0.7-0.6-1.5-0.9-2.4-0.9c-0.4,0-0.8,0.1-1.2,0.2c-1.5,0.5-2.5,2-2.5,3.6v4.9H81.8
	v-39.5h55.5V455.2z"/>
<path class="st2" d="M133.8,437.6c1.2,0,2.1-1,2.1-2.1s-1-2.1-2.1-2.1s-2.1,1-2.1,2.1S132.6,437.6,133.8,437.6z M133.8,434.4
	c0.6,0,1,0.5,1,1c0,0.6-0.5,1-1,1s-1-0.5-1-1C132.8,434.9,133.2,434.4,133.8,434.4z"/>
</svg>
