<?xml version="1.0" encoding="utf-8"?>
<!-- Generator: Adobe Illustrator 21.0.2, SVG Export Plug-In . SVG Version: 6.00 Build 0)  -->
<svg version="1.1" id="Layer_1" xmlns="http://www.w3.org/2000/svg" xmlns:xlink="http://www.w3.org/1999/xlink" x="0px" y="0px"
	 viewBox="0 0 612 612" style="enable-background:new 0 0 612 612;" xml:space="preserve">
<style type="text/css">
	.st0{fill:#75C7A2;}
	.st1{fill:#4DBC8A;}
	.st2{fill:#F79131;}
	.st3{fill:#F47920;}
	.st4{fill:#2270A1;}
	.st5{fill:#0A4467;}
	.st6{fill:#055481;}
	.st7{fill:#C6242F;}
	.st8{fill:#DF4C58;}
	.st9{fill:#EF6F7B;}
	.st10{fill:#FCB124;}
	.st11{fill:#FFD16F;}
	.st12{fill:#F9BB26;}
	.st13{fill:#9CD9E3;}
	.st14{fill:#3BC1CF;}
	.st15{fill:#6BCBD6;}
	.st16{fill:#DB4744;}
	.st17{fill:#F7F8F9;}
	.st18{fill:#404E51;}
	.st19{fill:#C54140;}
	.st20{fill:#30393A;}
	.st21{fill:#FFFFFF;}
	.st22{fill:none;}
	.st23{fill:#E9E6E3;}
	.st24{fill:#FFF9F6;}
	.st25{fill:#E05B5A;}
	.st26{fill:#8B183F;}
	.st27{fill:#C0E5E6;}
	.st28{fill:#010101;}
	.st29{fill:#F26428;}
	.st30{fill:#F9F9FA;}
	.st31{fill:#E6E6E5;}
	.st32{fill:#0B4969;}
	.st33{fill:#4CC4D1;}
	.st34{fill:#D7AF95;}
	.st35{fill:#F3C8A6;}
	.st36{fill:#D1D4DC;}
	.st37{fill:#435C7A;}
	.st38{fill:#BECAC6;}
	.st39{fill:#E3B99A;}
	.st40{fill:#3C2618;}
	.st41{fill:#343337;}
	.st42{fill:#CCCCCC;}
	.st43{fill:#F7F8F8;}
	.st44{fill:#313234;stroke:#010101;stroke-width:0.1251;}
	.st45{fill:#434242;}
	.st46{fill:#1A2B4A;}
	.st47{fill:#212121;stroke:#010101;stroke-width:0.1251;}
	.st48{fill:#676767;}
	.st49{fill:#B4B4B4;}
	.st50{fill:#292728;}
	.st51{fill:#9F2755;}
	.st52{fill:#36B2E2;}
	.st53{fill:#1299CF;}
	.st54{fill:#23323F;}
	.st55{fill:#27A75A;}
	.st56{fill:#CE2027;}
	.st57{fill:#FDF2CF;}
	.st58{fill:#F16055;}
	.st59{fill:#B9B198;}
	.st60{opacity:0.2;}
	.st61{fill:#231F20;}
	.st62{fill:#E1E0D1;}
	.st63{fill:#515E73;}
	.st64{fill:#535455;}
	.st65{fill:#D7DADB;}
	.st66{fill:#52B1B1;}
	.st67{fill:#EB4E3A;}
	.st68{fill:none;stroke:#FFFFFF;stroke-width:1.4;stroke-linejoin:round;stroke-miterlimit:10;}
</style>
<g id="Layer_2">
</g>
<g>
	<path class="st0" d="M239.4,137.6l-82.9-81.1c-5.3-5.2-13.5-5.9-19.6-1.6C118,68.2,77.8,99.6,49.1,143.6c-3.9,6-3.4,13.8,1.4,19.1
		l0.5,0.6c0,0,82.9,81,85.5,81.3C139.1,238.6,240,138.2,239.4,137.6z"/>
	<g>
		<path class="st1" d="M136.6,244.5c2.2,0.2,95.7,2.8,95.7,2.8c7,0,10.8-5.2,10.8-10.8l-3.8-98.9
			C166.9,163.1,139.2,238.3,136.6,244.5z"/>
	</g>
</g>
<g>
	<path class="st2" d="M474.3,239l81.1-82.9c5.2-5.3,5.9-13.5,1.6-19.6c-13.3-18.9-44.8-59.2-88.7-87.8c-6-3.9-13.8-3.4-19.1,1.4
		l-0.6,0.5c0,0-81,82.9-81.3,85.5C373.3,138.7,473.7,239.7,474.3,239z"/>
	<g>
		<path class="st3" d="M367.4,136.3c-0.2,2.2-2.8,95.7-2.8,95.7c0,7,5.2,10.8,10.8,10.8l98.9-3.8
			C448.9,166.5,373.6,138.9,367.4,136.3z"/>
	</g>
</g>
<g>
	<path class="st4" d="M256.9,601.7V492.8c0-3.3,2.7-6,6-6h-2.3c-2,0-4,0.8-5.4,2.3l-76.4,78.4c-3.6,3.6-2.7,9.8,1.8,12.1
		c27.6,14.5,54.4,23,79.7,27.5C258.3,606.2,256.9,604,256.9,601.7z"/>
	<path class="st5" d="M436.4,566.8l-75.9-77.6c-1.4-1.5-3.4-2.3-5.5-2.3h-2.7c3.3,0,6,2.7,6,6v107.8c0,3-2.1,5.5-5,6
		c-5.7,1-15.8,2.5-27.6,3.7c52.3-4,92-22.3,108.8-31.4C439,576.5,439.9,570.5,436.4,566.8z"/>
	<path class="st6" d="M358.3,600.6V492.8c0-3.3-2.7-6-6-6H263c-3.3,0-6,2.7-6,6v108.9c0,2.3,1.4,4.5,3.5,5.4
		c23.2,4.1,45.2,4.7,65.3,3.2c11.8-1.2,21.8-2.7,27.6-3.7C356.2,606.1,358.3,603.6,358.3,600.6z"/>
</g>
<path class="st7" d="M602,354H493.2c-3.3,0-6-2.7-6-6v2.3c0,2,0.8,4,2.3,5.4l78.4,76.4c3.6,3.6,9.8,2.7,12.1-1.8
	c14.5-27.6,23-54.4,27.5-79.7C606.5,352.6,604.4,354,602,354z"/>
<path class="st8" d="M567.1,174.6l-77.6,75.9c-1.5,1.4-2.3,3.4-2.3,5.5v2.7c0-3.3,2.7-6,6-6H601c3,0,5.5,2.1,6,5
	c1,5.7,2.5,15.8,3.7,27.6c-4-52.3-22.3-92-31.4-108.8C576.8,171.9,570.8,171,567.1,174.6z"/>
<path class="st9" d="M601,252.6H493.2c-3.3,0-6,2.7-6,6v89.3c0,3.3,2.7,6,6,6H602c2.3,0,4.5-1.4,5.4-3.5c4.1-23.2,4.7-45.2,3.2-65.3
	c-1.2-11.8-2.7-21.8-3.7-27.6C606.4,254.7,603.9,252.6,601,252.6z"/>
<g>
	<path class="st10" d="M353.5,10.6v108.9c0,3.3-2.7,6-6,6h2.3c2,0,4-0.8,5.4-2.3l76.4-78.4c3.6-3.6,2.7-9.8-1.8-12.1
		c-27.6-14.5-54.4-23-79.7-27.5C352.1,6.1,353.5,8.3,353.5,10.6z"/>
	<path class="st11" d="M174.1,45.5l75.9,77.6c1.4,1.5,3.4,2.3,5.5,2.3h2.7c-3.3,0-6-2.7-6-6V11.7c0-3,2.1-5.5,5-6
		c5.7-1,15.8-2.5,27.6-3.7c-52.3,4-92,22.3-108.8,31.4C171.4,35.8,170.5,41.9,174.1,45.5z"/>
	<path class="st12" d="M252.1,11.7v107.8c0,3.3,2.7,6,6,6h89.3c3.3,0,6-2.7,6-6V10.6c0-2.3-1.4-4.5-3.5-5.4
		c-23.2-4.1-45.2-4.7-65.3-3.2c-11.8,1.2-21.8,2.7-27.6,3.7C254.2,6.2,252.1,8.7,252.1,11.7z"/>
</g>
<g>
	<path class="st13" d="M8.7,256.7h109.2c3.3,0,6,2.7,6,6.1v-2.3c0-2.1-0.8-4-2.3-5.5L43,178.4c-3.7-3.6-9.8-2.7-12.2,1.9
		c-14.5,27.6-23.1,54.5-27.5,79.9C4.2,258,6.4,256.7,8.7,256.7z"/>
	<path class="st14" d="M43.8,436.5l77.8-76.1c1.5-1.4,2.3-3.4,2.3-5.5v-2.7c0,3.3-2.7,6.1-6,6.1H9.8c-3,0-5.5-2.1-6-5.1
		c-1-5.7-2.5-15.8-3.7-27.6c4,52.4,22.4,92.2,31.5,109.1C34,439.2,40.1,440.1,43.8,436.5z"/>
	<path class="st15" d="M9.8,358.3h108.1c3.3,0,6-2.7,6-6.1v-89.6c0-3.3-2.7-6.1-6-6.1H8.7c-2.3,0-4.5,1.4-5.4,3.5
		c-4.1,23.3-4.7,45.3-3.2,65.5c1.2,11.8,2.7,21.9,3.7,27.6C4.3,356.2,6.8,358.3,9.8,358.3z"/>
</g>
<g>
	<path class="st16" d="M265.7,53c0,1.7,0.2,3.3,0.6,4.9c0,0.1,0,0.1,0,0.2c0,0.1,0,0.2,0.1,0.3c0.7,2.9,2,5.7,3.6,8.3
		c2.1,3.4,4.7,6.6,7.5,9.5H299c0.7,0,1.3,0.4,1.6,1.1l3.5,9.1l12.3-30.6c0.2-0.6,0.8-1,1.5-1c0.6,0,1.3,0.3,1.6,0.9l5.7,11.7h10.7
		c0.1,0,0.2,0,0.3,0c0.9-1.4,1.7-2.8,2.3-4.3c0.7-1.5,1.2-3,1.6-4.6c0-0.1,0-0.2,0.1-0.3c0-0.1,0-0.1,0-0.2c0.4-1.6,0.6-3.2,0.6-4.9
		c0-0.1,0-0.2,0-0.3c-0.1-8.4-5.2-15.6-12.5-18.8c-0.3-0.1-0.6-0.2-0.9-0.3c-2.3-0.9-4.9-1.4-7.5-1.4c-6.6,0-12.4,3.1-16.2,7.9
		c-0.3,0.2-0.4,0.3-0.4,0.3c0,0,0,0,0,0c0,0,0,0,0,0c-3.8-5-9.8-8.2-16.5-8.2c0,0-0.1,0-0.1,0c0,0-0.1,0-0.1,0c-3,0-5.8,0.6-8.3,1.7
		c-3.7,1.3-7.1,4-9.8,8.7c-0.5,0.9-0.9,1.8-1.3,2.7c-1,2.5-1.4,5-1.4,7.4C265.7,52.9,265.7,53,265.7,53z M334.6,53
		c0-0.1-0.1-0.2-0.1-0.3c-0.4-7.4-6.8-13.8-14.1-14.1c-0.6,0-1.1-0.7-1.1-1.6c0-0.8,0.6-1.5,1.3-1.5c8.8,0.4,16.5,8.1,17,17
		c0,0.2,0,0.4-0.1,0.5c-0.2,0.5-0.7,0.8-1.4,0.8C335.4,53.8,334.8,53.5,334.6,53z"/>
	<path class="st16" d="M302.5,91.4c0.2,0.6,0.9,1.1,1.5,1.1c0,0,0,0,0,0c0.7,0,1.3-0.4,1.6-1l12.5-31.1l4.5,9.2
		c0.3,0.6,0.9,0.9,1.5,0.9h9.7c-7.2,9.4-17.8,16.4-20,18c-2.2,1.5-5,3.3-7.2,4.6c-2.1,1.3-3.3,2-3.3,2s0,0,0,0c0,0,0,0,0,0
		s-1.2-0.7-3.3-2c-2.2-1.3-5-3.1-7.2-4.6c-1.5-1-6.5-4.3-11.7-9.1l16.9,0L302.5,91.4z"/>
</g>
<g>
	<polygon class="st17" points="305.7,523 326.4,579.4 321,589.6 310.2,586.8 288.5,528.9 	"/>
	<g>
		<polygon class="st18" points="289.8,528.9 310.9,585.5 318.7,588.7 321.3,587.7 325.2,580.2 304.1,523.6 306.9,522.3 328.3,579.8 
			322.9,590.4 327,601.1 325.2,601.8 325.1,601.8 323.3,602.5 319.3,591.7 308.3,587.3 286.9,529.8 		"/>
		<g>
			<polygon class="st16" points="313.6,552.1 323.6,579 320.5,585.9 318.2,586.7 311.3,583.5 301.3,556.6 			"/>
		</g>
		<g>
			<path class="st16" d="M286.2,524.1l-3.7-10c-1.8-4.8,0.7-10.2,5.5-12l7,18.8L286.2,524.1z"/>
			<path class="st19" d="M287.9,502c4.8-1.8,10.2,0.7,12,5.5l3.7,10l-8.8,3.3L287.9,502z"/>
			<path class="st20" d="M303.7,517.5l3.1-1.2c1.7-0.7,3.7,0.4,4.5,2.3c0.7,1.9-0.1,4-1.9,4.7l-11.9,4.4l-1-2.6l-1.6-4.4
				L303.7,517.5z"/>
			<path class="st18" d="M283,525.2l3.1-1.2l8.8-3.3l1.6,4.4l1,2.6l-11.9,4.4c-1.7,0.7-3.7-0.4-4.5-2.3
				C280.5,528,281.3,525.9,283,525.2z"/>
		</g>
	</g>
</g>
<g>
	<g>
		<g>
			<g>
				<polygon class="st21" points="68.9,330.1 58.3,330.1 58.3,319.5 47.7,319.5 47.7,319.5 47.7,306.2 58.3,306.2 58.3,295.6 
					68.9,295.6 68.9,306.2 79.5,306.2 79.5,319.5 68.9,319.5 				"/>
			</g>
		</g>
	</g>
	<g>
		<polygon class="st22" points="58.3,295.6 68.9,295.6 68.9,306.2 79.5,306.2 79.5,319.5 68.9,319.5 68.9,330.1 58.3,330.1 
			58.3,319.5 47.7,319.5 47.7,319.5 47.7,306.2 58.3,306.2 		"/>
	</g>
	<g>
		<polygon class="st22" points="58.3,295.6 68.9,295.6 68.9,306.2 79.5,306.2 79.5,319.5 68.9,319.5 68.9,330.1 58.3,330.1 
			58.3,319.5 47.7,319.5 47.7,319.5 47.7,306.2 58.3,306.2 		"/>
		<path class="st16" d="M23.9,294.2v36.6c0,5.4,4.5,9.9,9.9,9.9h59.6c5.5,0,9.9-4.5,9.9-9.9v-36.6c0-5.4-4.5-9.2-9.9-9.2H82.2v0
			h-5.3v0H50.3H45H33.8C28.4,285,23.9,288.8,23.9,294.2z M47.7,306.2h10.6v-10.6h10.6v10.6h10.6v13.3H68.9v10.6H58.3v-10.6H47.7h0
			V306.2z"/>
		<path class="st16" d="M76.9,281.2c0-2.4-2.2-4.6-4.6-4.6H54.9c-2.4,0-4.6,2.2-4.6,4.6v3.9H45v-3.9c0-5.5,4.5-9.9,9.9-9.9h17.3
			c5.4,0,9.9,4.5,9.9,9.9v3.8h-5.3V281.2z"/>
	</g>
</g>
<g>
	<g>
		<path class="st23" d="M526.4,314.2c0.1-12.6,9-20.8,20.8-23.4V271h-1.7c-1.4,0-2.5-1.1-2.5-2.5c0-1.4,1.1-2.5,2.5-2.5h7.4v48.3
			H526.4z"/>
		<path class="st24" d="M552.9,265.9h7.4c1.4,0,2.5,1.1,2.5,2.5c0,1.4-1.1,2.5-2.5,2.5h-1.7v19.8c11.8,2.6,20.7,10.8,20.8,23.4
			h-26.4V265.9z"/>
		<path class="st25" d="M579.3,314.2c0,0.1,0,0.1,0,0.2c0,14.6-11.6,24-26.2,24c-0.1,0-0.2,0-0.3,0v-24.2H579.3z"/>
		<path class="st16" d="M526.4,314.4c0-0.1,0-0.1,0-0.2h26.4v24.2C538.4,338.2,526.4,328.9,526.4,314.4z"/>
	</g>
</g>
<path class="st26" d="M372.9,475.2l82.9,81.1c5.3,5.2,13.5,5.9,19.6,1.6c18.9-13.3,59.2-44.8,87.8-88.7c3.9-6,3.4-13.8-1.4-19.1
	l-0.5-0.6c0,0-82.9-81-85.5-81.3C473.2,374.2,372.3,474.6,372.9,475.2z"/>
<g>
	<g>
		<g>
			<path class="st27" d="M364.7,361.1c-0.7-12.6-1-24.7-1-35.6l0,0l0,0c0,0,0-0.1,0-0.1l0,0l8.7-32.2c-2.1-2.1-8.8-2-8.8-2h-13.1v0
				c-3.3-0.2-6.4-1-9.2-2.4c0,0,0,0-0.1,0.1l1.4,0.8l5.5,22.6l-7.5,1.9l5,9.4l-25.6,50.6l-2.2,6.3l0,0.5l1.5,3l-2,15.7
				c17.7-4.6,33.9-13.2,47.4-24.8l-0.2-14.9L364.7,361.1z"/>
		</g>
		<g>
			<path class="st27" d="M316.9,399.6l0.7-18.7l-5-9.9l-3.9-5.8l-21.1-41.8l5-9.4l-7.5-1.9l5.5-22.6l1.4-0.8c0,0,0,0-0.1-0.1
				c-2.8,1.4-5.9,2.3-9.2,2.4v0h-11.6c0,0,0,0,0,0.1c-0.1,0-0.1,0-0.2,0c-7.6,0-13.7,6.1-13.7,13.7c0,1.1,0.1,2.2,0.4,3.3l-17.2,33
				l-33.3,5.9l-5.9,1l-2.3-19.3c-1.2-3.5-2.3-7-3.2-10.6c-2-2.3-4.9-3.8-8-4c-0.7,0-1.4,0-2.1,0.1c-6.1,0.7-10.5,6.1-10.2,12.1
				c5.9,15.6,15,29.6,26.4,41.2L250,363c3.5-0.6,6.6-2.9,8.2-6l12.7-24.4c-0.1,1.6-0.2,3.2-0.2,4.6l0,1.4l-1,32.9l-0.3,30.7
				c5.7,0.8,11.6,1.3,17.6,1.3C297.4,403.4,307.4,402.1,316.9,399.6z"/>
		</g>
		<g>
			
				<ellipse transform="matrix(0.9042 -0.427 0.427 0.9042 -94.8661 186.2371)" class="st27" cx="367.8" cy="304.6" rx="11.5" ry="13.8"/>
		</g>
	</g>
</g>
<path class="st27" d="M175.5,327.1l4.2,35.9c0.4,3.2,2,6,4.6,7.9c2,1.5,4.9-0.9,7.4-0.9c0.7,0,1.3-0.1,2-0.2l50.8-6.3
	c-11.4-11.7-63.1-21.6-69-37.2C175.4,326.6,175.5,326.8,175.5,327.1z"/>
<path class="st27" d="M317.2,399.5l2-15.7l-1.5-3l-0.7,18.7C317,399.6,317.1,399.6,317.2,399.5z"/>
<polygon class="st22" points="316.3,385.7 316.3,385.7 316.3,385.7 "/>
<path class="st28" d="M345.1,290c-5.4-7.4-14.6-11.1-27.4-11.1c-14.5,0-24.7,3.9-30.3,11.4c0,0,0,0,0,0c1.1-0.3,3.3-1,6-2.4
	c5.5-4.3,13.7-6.4,24.4-6.4c9.3,0,16.6,2.1,21.6,6.2c1.8,0.9,4.4,2,5.9,2.5C345.2,290.1,345.1,290,345.1,290z"/>
<g>
	<g>
		<path class="st22" d="M207.1,347.1c-3.2-5.8-5.9-11.9-8.2-18.3l2.3,19.3L207.1,347.1z"/>
		<polygon class="st29" points="316.3,385.7 316.3,385.7 316.3,385.7 		"/>
		<path class="st30" d="M198.4,324.4c-0.3-2.4-1.3-4.5-2.7-6.2c0.9,3.6,2,7.1,3.2,10.6L198.4,324.4z"/>
	</g>
	<polygon class="st22" points="316.3,385.7 316.3,385.7 316.3,385.7 	"/>
	<polygon class="st31" points="317.7,380.4 317.7,380.1 316.6,380.1 316.6,380.5 317.2,381.8 	"/>
	<g>
		<path class="st31" d="M317.2,381.8l-0.5-1.3v0.8c0.1,0,0.1,0,0.2,0c0.3,0,0.6,0,0.8,0v-0.9L317.2,381.8z"/>
	</g>
</g>
<g>
	<path class="st22" d="M363.6,325.4L363.6,325.4L363.6,325.4C363.6,325.4,363.6,325.4,363.6,325.4z"/>
	<polygon class="st22" points="316.3,385.7 316.3,385.7 316.3,385.7 	"/>
	<path class="st32" d="M363.6,325.5C363.6,325.5,363.6,325.4,363.6,325.5L363.6,325.5L363.6,325.5z"/>
	<polygon class="st33" points="316.3,385.7 316.3,385.7 316.3,385.7 	"/>
</g>
<g>
	<path class="st34" d="M331.3,275.5L331.3,275.5l0-4.6H303v6.7h-0.1c-1.2,2.6-2.9,5-4.9,7C320.1,286.7,331.3,275.5,331.3,275.5z"/>
	<path class="st35" d="M331.3,279.8v-4.3l0,0c0,0-11.2,11.2-33.3,9.1c-1.7,1.7-3.6,3.1-5.8,4.1c2.8,4,6.5,7.2,10.8,9.4v6.2h0v0.4
		H330v-0.4h1.4v-6.8c3.9-2.2,7.2-5.3,9.7-8.9C337.1,286.7,333.7,283.6,331.3,279.8z"/>
</g>
<path class="st36" d="M336.6,293.5c-5.3,5-12.4,8-20.3,8c-7.2,0-13.8-2.6-18.9-6.8l19.7,87.2L336.6,293.5z"/>
<polygon class="st37" points="322.2,367.5 326.7,356.6 321.4,307 317.2,305.8 317.2,305.7 317.1,305.8 317,305.7 317,305.8 
	312.8,307 307.2,359.9 313.9,372.7 317.1,381.7 318.2,379.9 320.8,372.4 "/>
<polygon class="st37" points="323.5,298.9 317,298 310.4,298.9 309.1,302.5 312.2,307.4 317,307.6 321.7,307.4 324.8,302.5 "/>
<polygon class="st38" points="295.6,286.7 316.7,298 301.7,312.9 290.7,289.6 "/>
<polygon class="st38" points="337.8,286.7 316.7,298 331.6,312.9 342.5,289.9 "/>
<g>
	<path class="st35" d="M353.2,226.1c0-25.5-15.4-33.6-35.3-33.6c-0.2,0-0.5,0-0.7,0v87.6C337.1,280.1,353.2,251.6,353.2,226.1z"/>
	<path class="st39" d="M316.3,192.6c-19.2,0.6-35.3,8.7-35.3,33.5c0,25.2,15.7,53.5,35.3,54c0.3,0,0.6,0,0.8,0c0,0,0.1,0,0.1,0
		v-87.6C316.9,192.6,316.6,192.6,316.3,192.6z"/>
</g>
<g>
	<g>
		<g>
			<g>
				<path class="st40" d="M355.6,222.9c-0.9-11.4-5.5-19.7-5.5-19.7c3.1-13.9-9.9-17.8-23.6-18.1c-12.7-0.3-25.9,2.4-27.6,3
					c-1.9,0.7-4.5,0.9-6.5,1c-1.9,0.1-3.3,0-3.3,0c0.1,0.3,0.4,1,0.7,1.7c0.3,0.7,0.6,1.4,0.6,1.4c-0.4,0-1-0.1-1.8-0.4
					c-2.8-1-7.3-3.4-7.3-3.4c-0.5,3.7,0.4,7,1.4,9.4c1,2.4,2.1,3.8,2.1,3.8c-0.8,0.2-3.1-0.8-3.1-0.8c0.7,3.1,1.3,4.5,1.3,4.5
					c-4.9,3.6-6,13.8-6.1,21.9l8.4,9.8l2.9-7c0.1,0,0.1,0,0.2,0c2-7.4,3.7-18.5,3.7-18.5c21.8,14,41.9,2.8,45.3,0.7
					c0.7-0.7,1-1.2,1-1.2c1.2,14,10.7,23.5,10.7,23.5c-0.8-5.9,6-10.6,6.5-10.9c0,0,0,0,0,0C355.7,223.3,355.7,223.1,355.6,222.9z"
					/>
				<path class="st35" d="M348.5,232.1c-1.4,5.2-0.4,10,2.2,10.7c2.6,0.7,5.7-3,7.1-8.2c1.4-5.2,0.4-10-2.2-10.7
					C353,223.2,349.9,226.9,348.5,232.1z"/>
				<path class="st39" d="M284.7,232.2c1.4,5.1,0.7,9.7-1.6,10.4c-2.3,0.6-5.3-3-6.8-8c-1.4-5.1-0.7-9.7,1.6-10.4
					C280.3,223.5,283.3,227.1,284.7,232.2z"/>
			</g>
		</g>
	</g>
</g>
<path class="st22" d="M316.6,380.7l3.3-6.6c-2.5-2.6-7.7,2.8-7.7,2.8v1.3l2.8-0.5L316.6,380.7z"/>
<polygon class="st31" points="317.2,381.9 297.4,294.6 295.6,286.7 292,288.8 290.7,289.6 285.2,312.2 292.7,314.1 287.7,323.5 "/>
<polygon class="st31" points="348.6,312.2 343.1,289.6 343.1,289.6 338,286.9 336.6,293.5 317.2,381.9 346.1,323.5 341.1,314.1 "/>
<circle class="st41" cx="315" cy="360.4" r="1.6"/>
<circle class="st41" cx="319.9" cy="360.9" r="1.6"/>
<g>
	<g>
		<g>
			<path class="st27" d="M364,363c-6.8-4.8-20.9-7.2-33.7-7.9l-6.2,12.7l40.3,1.9L364,363z"/>
		</g>
	</g>
</g>
<g>
	<path class="st42" d="M177.5,292l22.1-3.4c2.5-0.4,4.9,1.4,5.2,3.9l8.1,53c0.4,2.5-1.4,4.9-3.9,5.2l-22.1,3.4
		c-2.5,0.4-4.9-1.4-5.2-3.9l-8.1-53C173.3,294.7,175,292.4,177.5,292z"/>
	<path class="st43" d="M177.5,292.3c-2.3,0.4-3.9,2.5-3.6,4.9l8.1,53c0.4,2.3,2.5,3.9,4.9,3.6l22.1-3.4c2.3-0.4,3.9-2.5,3.6-4.9
		l-8.1-53c-0.4-2.3-2.5-3.9-4.9-3.6L177.5,292.3z"/>
	
		<ellipse transform="matrix(0.9887 -0.1502 0.1502 0.9887 -41.7942 31.6777)" class="st44" cx="188.9" cy="292.6" rx="0.3" ry="0.3"/>
	<g id="_276253992">
		
			<ellipse id="_276253440" transform="matrix(0.9887 -0.1502 0.1502 0.9887 -42.198 31.1217)" class="st45" cx="185" cy="295" rx="0.5" ry="0.5"/>
		
			<ellipse id="_276254016" transform="matrix(0.9887 -0.1502 0.1502 0.9887 -42.198 31.1217)" class="st46" cx="185" cy="295" rx="0.3" ry="0.3"/>
	</g>
	
		<ellipse transform="matrix(0.9887 -0.1502 0.1502 0.9887 -50.0389 33.5691)" class="st42" cx="197.3" cy="348.2" rx="2.2" ry="2.2"/>
	
		<ellipse transform="matrix(0.9887 -0.1502 0.1502 0.9887 -50.0389 33.5691)" class="st31" cx="197.3" cy="348.2" rx="1.9" ry="1.9"/>
	<path class="st47" d="M176,300l27.4-4.2c0.1,0,0.2,0.1,0.2,0.2l7.1,46.6c0,0.1-0.1,0.2-0.2,0.2l-27.4,4.2c-0.1,0-0.2-0.1-0.2-0.2
		l-7.1-46.6C175.8,300.1,175.9,300,176,300L176,300z"/>
	<path class="st42" d="M206.2,301.6l0.1,0c0,0,0,0,0,0l0.7,4.7c0,0,0,0,0,0l-0.1,0c0,0,0,0,0,0L206.2,301.6
		C206.2,301.6,206.2,301.6,206.2,301.6L206.2,301.6z"/>
	<g id="_276252792">
		<path id="_398366368" class="st42" d="M174,300.9l0.1,0c0,0,0,0,0,0l0.4,2.4c0,0,0,0,0,0l-0.1,0c0,0,0,0,0,0L174,300.9
			C174,300.9,174,300.9,174,300.9L174,300.9z"/>
		<path id="_398365840" class="st42" d="M174.9,306.4l0.1,0c0,0,0,0,0,0l0.7,4.7c0,0,0,0,0,0l-0.1,0c0,0,0,0,0,0L174.9,306.4
			C174.8,306.4,174.8,306.4,174.9,306.4L174.9,306.4z"/>
		<path id="_398366200" class="st42" d="M175.7,312.2l0.1,0c0,0,0,0,0,0l0.7,4.7c0,0,0,0,0,0l-0.1,0c0,0,0,0,0,0L175.7,312.2
			C175.7,312.3,175.7,312.2,175.7,312.2L175.7,312.2z"/>
	</g>
	<g id="_273863528">
		<path id="_398366032" class="st28" d="M188,294.3l2.2-0.3c0.8-0.1,1.4-0.1,1.4,0h0c0,0.1-0.6,0.3-1.3,0.4l-2.2,0.3
			c-0.8,0.1-1.4,0.1-1.4,0l0,0C186.7,294.6,187.3,294.4,188,294.3L188,294.3z"/>
		
			<rect id="_276256536" x="191.5" y="293.9" transform="matrix(0.9887 -0.1502 0.1502 0.9887 -41.9683 32.0939)" class="st48" width="0.1" height="0.1"/>
		
			<rect id="_276256416" x="191.2" y="293.9" transform="matrix(0.9887 -0.1502 0.1502 0.9887 -41.9764 32.0586)" class="st48" width="0.1" height="0.1"/>
		
			<rect id="_276255984" x="191" y="294" transform="matrix(0.9887 -0.1502 0.1502 0.9887 -41.9846 32.0233)" class="st48" width="0.1" height="0.1"/>
		
			<rect id="_276256320" x="190.8" y="294" transform="matrix(0.9887 -0.1502 0.1502 0.9887 -41.9927 31.9881)" class="st48" width="0.1" height="0.1"/>
		
			<rect id="_276256176" x="190.5" y="294.1" transform="matrix(0.9887 -0.1502 0.1502 0.9887 -42.0008 31.9528)" class="st48" width="0.1" height="0.1"/>
		
			<rect id="_276256272" x="190.3" y="294.1" transform="matrix(0.9887 -0.1502 0.1502 0.9887 -42.0089 31.9175)" class="st48" width="0.1" height="0.1"/>
		
			<rect id="_276255744" x="190.1" y="294.1" transform="matrix(0.9887 -0.1502 0.1502 0.9887 -42.017 31.8822)" class="st48" width="0.1" height="0.1"/>
		
			<rect id="_276256248" x="189.8" y="294.2" transform="matrix(0.9887 -0.1502 0.1502 0.9887 -42.0251 31.847)" class="st48" width="0.1" height="0.1"/>
		
			<rect id="_37283216" x="189.6" y="294.2" transform="matrix(0.9887 -0.1502 0.1502 0.9887 -42.0332 31.8117)" class="st48" width="0.1" height="0.1"/>
		
			<rect id="_37282568" x="186.7" y="294.6" transform="matrix(0.9887 -0.1502 0.1502 0.9887 -42.1307 31.3881)" class="st48" width="0.1" height="0.1"/>
		
			<rect id="_37282688" x="187" y="294.6" transform="matrix(0.9887 -0.1502 0.1502 0.9887 -42.1226 31.4234)" class="st48" width="0.1" height="0.1"/>
		
			<rect id="_37282952" x="187.2" y="294.6" transform="matrix(0.9887 -0.1502 0.1502 0.9887 -42.1144 31.4587)" class="st48" width="0.1" height="0.1"/>
		
			<rect id="_37282832" x="187.4" y="294.5" transform="matrix(0.9887 -0.1502 0.1502 0.9887 -42.1063 31.494)" class="st48" width="0.1" height="0.1"/>
		
			<rect id="_37282976" x="187.7" y="294.5" transform="matrix(0.9887 -0.1502 0.1502 0.9887 -42.0982 31.5292)" class="st48" width="0.1" height="0.1"/>
		
			<rect id="_37286480" x="187.9" y="294.5" transform="matrix(0.9887 -0.1502 0.1502 0.9887 -42.0901 31.5645)" class="st48" width="0.1" height="0.1"/>
		
			<rect id="_37286408" x="188.2" y="294.4" transform="matrix(0.9887 -0.1502 0.1502 0.9887 -42.082 31.5998)" class="st48" width="0.1" height="0.1"/>
		
			<rect id="_37286360" x="188.4" y="294.4" transform="matrix(0.9887 -0.1502 0.1502 0.9887 -42.0739 31.635)" class="st48" width="0.1" height="0.1"/>
		
			<rect id="_37286168" x="188.6" y="294.3" transform="matrix(0.9887 -0.1502 0.1502 0.9887 -42.0658 31.6703)" class="st48" width="0.1" height="0.1"/>
		
			<rect id="_37285952" x="188.9" y="294.3" transform="matrix(0.9887 -0.1502 0.1502 0.9887 -42.0577 31.7056)" class="st48" width="0.1" height="0.1"/>
		
			<rect id="_37286096" x="189.1" y="294.3" transform="matrix(0.9887 -0.1502 0.1502 0.9887 -42.0495 31.7408)" class="st48" width="0.1" height="0.1"/>
		
			<rect id="_37285928" x="189.3" y="294.2" transform="matrix(0.9887 -0.1502 0.1502 0.9887 -42.0414 31.7761)" class="st48" width="0.1" height="0.1"/>
		
			<rect id="_37285736" x="191.4" y="294" transform="matrix(0.9887 -0.1502 0.1502 0.9887 -41.9901 32.0799)" class="st48" width="0.1" height="0.1"/>
		
			<rect id="_37284920" x="191.1" y="294.1" transform="matrix(0.9887 -0.1502 0.1502 0.9887 -41.9982 32.0447)" class="st48" width="0.1" height="0.1"/>
		
			<rect id="_37285184" x="190.9" y="294.1" transform="matrix(0.9887 -0.1502 0.1502 0.9887 -42.0063 32.0094)" class="st48" width="0.1" height="0.1"/>
		
			<rect id="_37285544" x="190.7" y="294.2" transform="matrix(0.9887 -0.1502 0.1502 0.9887 -42.0144 31.9741)" class="st48" width="0.1" height="0.1"/>
		
			<rect id="_37285424" x="190.4" y="294.2" transform="matrix(0.9887 -0.1502 0.1502 0.9887 -42.0225 31.9389)" class="st48" width="0.1" height="0.1"/>
		
			<rect id="_37285328" x="190.2" y="294.2" transform="matrix(0.9887 -0.1502 0.1502 0.9887 -42.0306 31.9036)" class="st48" width="0.1" height="0.1"/>
		
			<rect id="_37284896" x="190" y="294.3" transform="matrix(0.9887 -0.1502 0.1502 0.9887 -42.0388 31.8683)" class="st48" width="0.1" height="0.1"/>
		
			<rect id="_37284200" x="189.7" y="294.3" transform="matrix(0.9887 -0.1502 0.1502 0.9887 -42.0469 31.8331)" class="st48" width="0.1" height="0.1"/>
		
			<rect id="_37284368" x="186.9" y="294.7" transform="matrix(0.9887 -0.1502 0.1502 0.9887 -42.1443 31.4095)" class="st48" width="0.1" height="0.1"/>
		
			<rect id="_37284344" x="187.1" y="294.7" transform="matrix(0.9887 -0.1502 0.1502 0.9887 -42.1362 31.4448)" class="st48" width="0.1" height="0.1"/>
		
			<rect id="_37284320" x="187.3" y="294.7" transform="matrix(0.9887 -0.1502 0.1502 0.9887 -42.1281 31.48)" class="st48" width="0.1" height="0.1"/>
		
			<rect id="_37284464" x="187.6" y="294.6" transform="matrix(0.9887 -0.1502 0.1502 0.9887 -42.12 31.5153)" class="st48" width="0.1" height="0.1"/>
		
			<rect id="_37284728" x="187.8" y="294.6" transform="matrix(0.9887 -0.1502 0.1502 0.9887 -42.1118 31.5506)" class="st48" width="0.1" height="0.1"/>
		
			<rect id="_37284440" x="188.1" y="294.6" transform="matrix(0.9887 -0.1502 0.1502 0.9887 -42.1037 31.5858)" class="st48" width="0.1" height="0.1"/>
		
			<rect id="_37283672" x="188.3" y="294.5" transform="matrix(0.9887 -0.1502 0.1502 0.9887 -42.0956 31.6211)" class="st48" width="0.1" height="0.1"/>
		
			<rect id="_37283312" x="188.5" y="294.5" transform="matrix(0.9887 -0.1502 0.1502 0.9887 -42.0875 31.6564)" class="st48" width="0.1" height="0.1"/>
		
			<rect id="_37284032" x="188.8" y="294.4" transform="matrix(0.9887 -0.1502 0.1502 0.9887 -42.0794 31.6917)" class="st48" width="0.1" height="0.1"/>
		
			<rect id="_37283816" x="189" y="294.4" transform="matrix(0.9887 -0.1502 0.1502 0.9887 -42.0713 31.7269)" class="st48" width="0.1" height="0.1"/>
		
			<rect id="_37283432" x="189.2" y="294.4" transform="matrix(0.9887 -0.1502 0.1502 0.9887 -42.0632 31.7622)" class="st48" width="0.1" height="0.1"/>
		
			<rect id="_37283936" x="189.5" y="294.3" transform="matrix(0.9887 -0.1502 0.1502 0.9887 -42.0551 31.7975)" class="st48" width="0.1" height="0.1"/>
		
			<rect id="_273862328" x="191.3" y="293.8" transform="matrix(0.9887 -0.1502 0.1502 0.9887 -41.9555 32.072)" class="st48" width="0.1" height="0.1"/>
		
			<rect id="_273861032" x="191.1" y="293.8" transform="matrix(0.9887 -0.1502 0.1502 0.9887 -41.9636 32.0367)" class="st48" width="0.1" height="0.1"/>
		
			<rect id="_273861008" x="190.9" y="293.9" transform="matrix(0.9887 -0.1502 0.1502 0.9887 -41.9717 32.0015)" class="st48" width="0.1" height="0.1"/>
		
			<rect id="_273861104" x="190.6" y="293.9" transform="matrix(0.9887 -0.1502 0.1502 0.9887 -41.9798 31.9662)" class="st48" width="0.1" height="0.1"/>
		
			<rect id="_273861248" x="190.4" y="294" transform="matrix(0.9887 -0.1502 0.1502 0.9887 -41.9879 31.9309)" class="st48" width="0.1" height="0.1"/>
		
			<rect id="_273860864" x="190.2" y="294" transform="matrix(0.9887 -0.1502 0.1502 0.9887 -41.9961 31.8957)" class="st48" width="0.1" height="0.1"/>
		
			<rect id="_273860744" x="189.9" y="294" transform="matrix(0.9887 -0.1502 0.1502 0.9887 -42.0042 31.8604)" class="st48" width="0.1" height="0.1"/>
		
			<rect id="_273864392" x="189.7" y="294.1" transform="matrix(0.9887 -0.1502 0.1502 0.9887 -42.0123 31.8251)" class="st48" width="0.1" height="0.1"/>
		
			<rect id="_273863936" x="186.8" y="294.5" transform="matrix(0.9887 -0.1502 0.1502 0.9887 -42.1097 31.4016)" class="st48" width="0.1" height="0.1"/>
		
			<rect id="_273863768" x="187.1" y="294.5" transform="matrix(0.9887 -0.1502 0.1502 0.9887 -42.1016 31.4368)" class="st48" width="0.1" height="0.1"/>
		
			<rect id="_273864272" x="187.3" y="294.4" transform="matrix(0.9887 -0.1502 0.1502 0.9887 -42.0935 31.4721)" class="st48" width="0.1" height="0.1"/>
		
			<rect id="_273864128" x="187.5" y="294.4" transform="matrix(0.9887 -0.1502 0.1502 0.9887 -42.0854 31.5073)" class="st48" width="0.1" height="0.1"/>
		
			<rect id="_273864008" x="187.8" y="294.4" transform="matrix(0.9887 -0.1502 0.1502 0.9887 -42.0773 31.5426)" class="st48" width="0.1" height="0.1"/>
		
			<rect id="_273863984" x="188" y="294.3" transform="matrix(0.9887 -0.1502 0.1502 0.9887 -42.0691 31.5779)" class="st48" width="0.1" height="0.1"/>
		
			<rect id="_273864344" x="188.3" y="294.3" transform="matrix(0.9887 -0.1502 0.1502 0.9887 -42.061 31.6131)" class="st48" width="0.1" height="0.1"/>
		
			<rect id="_273862928" x="188.5" y="294.2" transform="matrix(0.9887 -0.1502 0.1502 0.9887 -42.0529 31.6484)" class="st48" width="0.1" height="0.1"/>
		
			<rect id="_273863408" x="188.7" y="294.2" transform="matrix(0.9887 -0.1502 0.1502 0.9887 -42.0448 31.6837)" class="st48" width="0.1" height="0.1"/>
		
			<rect id="_273862976" x="189" y="294.2" transform="matrix(0.9887 -0.1502 0.1502 0.9887 -42.0367 31.719)" class="st48" width="0.1" height="0.1"/>
		
			<rect id="_273863480" x="189.2" y="294.1" transform="matrix(0.9887 -0.1502 0.1502 0.9887 -42.0286 31.7542)" class="st48" width="0.1" height="0.1"/>
		
			<rect id="_273863336" x="189.4" y="294.1" transform="matrix(0.9887 -0.1502 0.1502 0.9887 -42.0205 31.7895)" class="st48" width="0.1" height="0.1"/>
	</g>
	<g id="_273862112">
		
			<ellipse id="_273863192" transform="matrix(0.9887 -0.1502 0.1502 0.9887 -42.198 31.1217)" class="st46" cx="185" cy="295" rx="0.3" ry="0.3"/>
		
			<ellipse id="_273862304" transform="matrix(0.9887 -0.1502 0.1502 0.9887 -42.2287 31.1183)" class="st31" cx="185" cy="295.2" rx="0.1" ry="0.1"/>
		
			<ellipse id="_273862688" transform="matrix(0.9887 -0.1502 0.1502 0.9887 -42.1726 31.1191)" class="st31" cx="185" cy="294.8" rx="0" ry="0"/>
		
			<ellipse id="_273862448" transform="matrix(0.9887 -0.1502 0.1502 0.9887 -42.157 31.1214)" class="st31" cx="185" cy="294.7" rx="0" ry="0"/>
	</g>
</g>
<g>
	<path class="st39" d="M182.6,333.9c-0.4-2.3-2.6-3.9-4.9-3.5l-11.6,1.9c-2.3,0.4-3.9,2.6-3.5,4.9c0.3,2.1,2.2,3.6,4.2,3.6
		c0.2,0,0.5,0,0.7-0.1l11.6-1.9C181.5,338.4,183,336.2,182.6,333.9z"/>
</g>
<g>
	<path class="st39" d="M161.3,311.9c0.2,0,0.5,0,0.7,0l13.3-1.9c2.6-0.4,4.4-2.8,4.1-5.4c-0.4-2.6-2.8-4.4-5.4-4.1l-13.3,1.9
		c-2.6,0.4-4.4,2.8-4.1,5.4C156.9,310.2,158.9,311.9,161.3,311.9z"/>
</g>
<g>
	<path class="st39" d="M160.6,322.3l13-1.6c2.6-0.3,4.5-2.7,4.2-5.3c-0.3-2.6-2.7-4.5-5.3-4.2l-13,1.6c-2.6,0.3-4.5,2.7-4.2,5.3
		c0.3,2.4,2.4,4.2,4.7,4.2C160.2,322.3,160.4,322.3,160.6,322.3z"/>
</g>
<g>
	<path class="st39" d="M176.4,330.1c2.6-0.5,4.3-3,3.8-5.6c-0.5-2.6-3-4.3-5.6-3.8l-13,2.4c-2.6,0.5-4.3,3-3.8,5.6
		c0.4,2.3,2.4,3.9,4.7,3.9c0.3,0,0.6,0,0.9-0.1L176.4,330.1z"/>
</g>
<path class="st16" d="M192.6,312.1c-5,0.8-8.4,5.5-7.6,10.5c0.8,5,5.5,8.4,10.5,7.6c5-0.8,8.4-5.5,7.6-10.5
	C202.3,314.7,197.6,311.3,192.6,312.1z M200.4,322.1l-4.2,0.7l0.7,4.2l-3.7,0.6l-0.7-4.2l-4.2,0.7l-0.6-3.7l4.2-0.7l-0.7-4.2
	l3.7-0.6l0.7,4.2l4.2-0.7L200.4,322.1z"/>
<circle class="st49" cx="347.2" cy="323.7" r="5.7"/>
<g>
	<circle class="st31" cx="347.2" cy="323.7" r="7.8"/>
	<path class="st28" d="M347.2,332.1c-4.6,0-8.4-3.8-8.4-8.4c0-4.6,3.8-8.4,8.4-8.4c4.6,0,8.4,3.8,8.4,8.4
		C355.5,328.4,351.8,332.1,347.2,332.1z M347.2,316.5c-4,0-7.3,3.3-7.3,7.3c0,4,3.3,7.3,7.3,7.3c4,0,7.3-3.3,7.3-7.3
		C354.4,319.7,351.2,316.5,347.2,316.5z"/>
</g>
<path class="st28" d="M345.2,290.1c-1.5-0.6-4.1-1.7-5.9-2.5c1.4,1.1,2.6,2.4,3.7,3.9c4.6,6.3,5.1,14.6,4.7,20.5
	c-0.4,6.4-2,11.4-2,11.4l1.2,0.4l1.2,0.4c0.1-0.2,1.7-5.3,2.1-12C350.9,303.3,349.1,295.7,345.2,290.1z"/>
<g>
	<path class="st28" d="M282.6,306.9c0.1,4.9,1.1,8.4,1.2,8.5l2.5-0.7c0-0.1-3.9-13.3,3.3-22.9c1.1-1.5,2.4-2.8,3.9-3.9
		c-2.7,1.4-4.9,2.1-6,2.4C284.1,294.7,282.5,300.5,282.6,306.9z"/>
	<polygon class="st28" points="345.7,323.4 346.9,323.8 345.7,323.4 	"/>
</g>
<path class="st49" d="M285.5,366c-6.2-0.3-7-4.3-7-4.5l-4.2-25l1.9-0.3l4.2,25c0,0.1,0.6,2.7,5.2,2.9L285.5,366z"/>
<path class="st50" d="M273.7,337.2c0-0.2-0.9-5.5-0.2-11.1c1-7.9,4.6-12.5,10.3-13.5c13.7-2.3,17.4,18.9,17.6,19.9l-2.9,0.5
	c0-0.2-3.4-19.3-14.3-17.5c-4.5,0.7-7.1,4.5-7.9,11c-0.6,5.2,0.2,10.2,0.2,10.3L273.7,337.2z"/>
<ellipse transform="matrix(0.1949 -0.9808 0.9808 0.1949 -127.3137 575.0964)" class="st50" cx="286.7" cy="365.1" rx="2.2" ry="3.4"/>
<ellipse transform="matrix(0.8641 -0.5034 0.5034 0.8641 -142.2248 199.5852)" class="st50" cx="298.4" cy="363.1" rx="3.4" ry="2.2"/>
<path class="st49" d="M299.9,362.4c5.8-2.3,5.2-6.4,5.2-6.5l-4.2-25l-1.9,0.3l4.2,25c0,0.1,0.3,2.7-4,4.4L299.9,362.4z"/>
<path class="st27" d="M384.7,368.4c-0.2,0-0.4,0-0.6,0l-78.2-3.3l1.2-29.1l59.4,4.7l-12.8-30.3l25-9.5l18.9,46.2
	c2.4,4.6,2.1,10.1-0.7,14.5C394.3,365.9,389.6,368.4,384.7,368.4z"/>
<g>
	<g>
		<g>
			<path class="st21" d="M317,337.1l-8.3-0.4c-1.1-0.1-2.1,0.8-2.2,2l-0.5,10.9l-0.5,10.9c-0.1,1.1,0.8,2.1,2,2.2l8.3,0.4
				c1.1,0.1,2.1-0.8,2.2-2l0.5-10.9l0.5-10.9C319,338.1,318.1,337.2,317,337.1z"/>
			<g>
				<g>
					<g>
						<path class="st39" d="M276.4,358.6c0.1-1.8,1.6-3.1,3.3-3.2c0,0,0,0,0,0l-3.1-0.2c-1.8-0.1-3.3-1.7-3.2-3.5
							c0.1-1.8,1.7-3.3,3.5-3.2l-3.4-0.2c-1.8-0.1-3.3-1.7-3.2-3.5c0.1-1.8,1.7-3.3,3.5-3.2l-13.4-0.7c-1.8-0.1-3.3-1.7-3.2-3.5
							c0.1-1.8,1.7-3.3,3.5-3.2l2.1,0.1l18,0.9l2.4,0.1c0.4,0,0.8-0.3,0.9-0.7c0.1-0.4,0-0.9-0.3-1.1c-3.1-2.6-6.3-2.6-6.1-6.2
							c0-0.8,0.5-1.6,1.2-2c0.7-0.4,1.6-0.3,2.3,0.1l22.1,11.6c0.5,0.3,0.8,0.9,0.8,1.5c-0.1,2.9-0.6,13.3-1,19.6
							c-0.1,2.8-2.5,4.9-5.3,4.8c-9-0.4-18.5-0.9-18.5-0.9C277.8,362.1,276.3,360.5,276.4,358.6z"/>
					</g>
				</g>
			</g>
		</g>
	</g>
</g>
<g>
	<path class="st51" d="M475.7,368.3c-2.2-0.2-95.7-2.8-95.7-2.8c-7,0-10.8,5.2-10.8,10.8l3.8,98.9
		C445.4,449.8,473.1,374.5,475.7,368.3z"/>
</g>
<g>
	<path class="st52" d="M136.3,370l-81.1,82.9c-5.2,5.3-5.9,13.5-1.6,19.6c13.3,18.9,44.8,59.2,88.7,87.8c6,3.9,13.8,3.4,19.1-1.4
		l0.6-0.5c0,0,81-82.9,81.3-85.5C237.3,470.3,136.9,369.3,136.3,370z"/>
	<g>
		<path class="st53" d="M243.2,472.7c0.2-2.2,2.8-95.7,2.8-95.7c0-7-5.2-10.8-10.8-10.8l-98.9,3.8
			C161.7,442.5,237,470.1,243.2,472.7z"/>
	</g>
</g>
<path class="st39" d="M300.3,337.4c0,0,1.4,1.6,5.3,2.7l-1.2,21.4c0,0-3.6-0.7-7,0.8L300.3,337.4z"/>
<g id="server_2_">
	<g id="bottom_lines">
		<rect id="right" x="99" y="164.3" class="st54" width="11.9" height="3.6"/>
		<rect id="left" x="158.2" y="164.3" class="st54" width="11.9" height="3.6"/>
	</g>
	<g id="_x30_2_1_">
		<rect id="line" x="99" y="137" class="st31" width="71.1" height="3.6"/>
		<path id="bg_1_" class="st21" d="M171.4,164.3H97.9c-2.6,0-4.7-2.1-4.7-4.7v-14.2c0-2.6,2.1-4.7,4.7-4.7h73.5
			c2.6,0,4.7,2.1,4.7,4.7v14.2C176.1,162.2,174,164.3,171.4,164.3z"/>
		<circle id="green_1_" class="st55" cx="166.5" cy="152.5" r="3.6"/>
		<circle id="red_1_" class="st56" cx="155.8" cy="152.5" r="3.6"/>
		<g id="lines_1_">
			<rect id="line_6_" x="99" y="146.5" class="st31" width="3.6" height="11.9"/>
			<rect id="line_5_" x="106.2" y="146.5" class="st31" width="3.6" height="11.9"/>
			<rect id="line_4_" x="113.3" y="146.5" class="st31" width="3.6" height="11.9"/>
		</g>
	</g>
	<g id="_x30_1">
		<path id="bg" class="st21" d="M171.4,137H97.9c-2.6,0-4.7-2.1-4.7-4.7v-14.2c0-2.6,2.1-4.7,4.7-4.7h73.5c2.6,0,4.7,2.1,4.7,4.7
			v14.2C176.1,134.9,174,137,171.4,137z"/>
		<circle id="green" class="st55" cx="166.5" cy="125.2" r="3.6"/>
		<circle id="red" class="st56" cx="155.8" cy="125.2" r="3.6"/>
		<g id="lines">
			<rect id="line_3_" x="99" y="119.3" class="st31" width="3.6" height="11.9"/>
			<rect id="line_2_" x="106.2" y="119.3" class="st31" width="3.6" height="11.9"/>
			<rect id="line_1_" x="113.3" y="119.3" class="st31" width="3.6" height="11.9"/>
		</g>
	</g>
</g>
<g>
	<path class="st57" d="M458.3,513.5h41.9c4.2,0,7.5-3.4,7.5-7.5v-42.5l-26.5-26.5h-22.9c-4.2,0-7.5,3.4-7.5,7.5V506
		C450.8,510.1,454.1,513.5,458.3,513.5z"/>
	<g>
		<path class="st58" d="M461.9,504.1v-13.9c0-0.2,0.1-0.4,0.3-0.6c0.2-0.2,0.4-0.3,0.8-0.3h4.3c1.5,0,2.6,0.4,3.5,1.2
			c0.9,0.8,1.3,2,1.3,3.6v0.1c0,1.7-0.5,2.9-1.4,3.7c-0.9,0.8-2.1,1.2-3.6,1.2h-2.4v5c0,0.3-0.1,0.5-0.4,0.6c-0.3,0.2-0.6,0.2-1,0.2
			c-0.4,0-0.7-0.1-1-0.2C462,504.6,461.9,504.4,461.9,504.1z M464.7,497h2.4c0.7,0,1.3-0.2,1.7-0.6c0.4-0.4,0.6-1,0.6-1.8v-0.3
			c0-0.8-0.2-1.4-0.6-1.8c-0.4-0.4-0.9-0.6-1.7-0.6h-2.4V497z"/>
		<path class="st58" d="M474.9,504.1v-13.9c0-0.2,0.1-0.4,0.3-0.6c0.2-0.2,0.5-0.3,0.9-0.3h3.8c1.5,0,2.7,0.4,3.7,1.2
			c0.9,0.8,1.4,2,1.4,3.7v5.8c0,1.7-0.5,2.9-1.4,3.7c-0.9,0.8-2.1,1.2-3.7,1.2h-3.8c-0.4,0-0.6-0.1-0.9-0.3
			C475,504.6,474.9,504.4,474.9,504.1z M477.6,502.6h2.2c1.5,0,2.2-0.8,2.2-2.5v-5.8c0-1.6-0.7-2.5-2.2-2.5h-2.2V502.6z"/>
		<path class="st58" d="M488.3,504.1v-13.9c0-0.3,0.1-0.5,0.4-0.6c0.2-0.2,0.5-0.2,0.9-0.2h7.5c0.3,0,0.5,0.1,0.6,0.4
			c0.1,0.2,0.2,0.5,0.2,0.8c0,0.3-0.1,0.6-0.2,0.9c-0.1,0.2-0.4,0.4-0.6,0.4h-5.9v4.3h3.3c0.3,0,0.5,0.1,0.6,0.3
			c0.1,0.2,0.2,0.5,0.2,0.8c0,0.3-0.1,0.5-0.2,0.7c-0.1,0.2-0.4,0.3-0.6,0.3h-3.3v5.9c0,0.3-0.1,0.5-0.4,0.6c-0.3,0.2-0.6,0.2-1,0.2
			c-0.4,0-0.7-0.1-1-0.2C488.5,504.6,488.3,504.4,488.3,504.1z"/>
	</g>
	<path class="st59" d="M488.9,463.4h18.9l-26.5-26.5l0,18.9C481.2,460,484.7,463.4,488.9,463.4z"/>
	<path class="st58" d="M490.4,461.9c4.3,0.2,17.3,1.5,17.3,1.5l-26.5-26.5c0,0,1.2,13,1.5,17.3C483.1,458.5,486.2,461.7,490.4,461.9
		z"/>
	<line class="st22" x1="507.8" y1="463.4" x2="481.2" y2="436.9"/>
</g>
<path class="st58" d="M503.8,495.9c-1,1-2.2,6.6-2.2,7.1c0,0.8,0.6,1.5,1.5,1.5c0.4,0,6-1.1,7.1-2.2l8.6-8.6l-6.4-6.4L503.8,495.9z
	 M518.1,483.5c-0.9,0-2.2,0.3-3.2,1.3l-0.4,0.4l6.4,6.4l0.4-0.4c1-1,1.3-2.2,1.3-3.2C522.6,485.5,520.6,483.5,518.1,483.5z"/>
<g>
	<g class="st60">
		<path class="st61" d="M158.8,513.8c0,2-1.7,3.7-3.7,3.7h-37c-2,0-3.7-1.7-3.7-3.7l0,0c0-2,1.7-3.7,3.7-3.7h37
			C157.2,510.1,158.8,511.7,158.8,513.8L158.8,513.8z"/>
	</g>
	<g>
		<path class="st21" d="M158.8,510.1c0,2-1.7,3.7-3.7,3.7h-37c-2,0-3.7-1.7-3.7-3.7l0,0c0-2,1.7-3.7,3.7-3.7h37
			C157.2,506.4,158.8,508,158.8,510.1L158.8,510.1z"/>
	</g>
	<g>
		<path class="st62" d="M145.9,495.3c0,0-1.8,11.1,5.6,11.1c0,0-37,0-29.6,0s5.6-11.1,5.6-11.1H145.9z"/>
	</g>
	<g class="st60">
		<g>
			<path class="st61" d="M173.6,491.6c0,4.1-3.3,7.4-7.4,7.4H107c-4.1,0-7.4-3.3-7.4-7.4v-40.7c0-4.1,3.3-7.4,7.4-7.4h59.2
				c4.1,0,7.4,3.3,7.4,7.4V491.6z"/>
		</g>
	</g>
	<g>
		<g>
			<path class="st63" d="M107,492.5c-2.6,0-4.6-2.1-4.6-4.6v-40.7c0-2.6,2.1-4.6,4.6-4.6h59.2c2.6,0,4.6,2.1,4.6,4.6v40.7
				c0,2.6-2.1,4.6-4.6,4.6H107z"/>
		</g>
		<g>
			<path class="st21" d="M166.2,445.3c1,0,1.8,0.8,1.8,1.9v40.7c0,1-0.8,1.9-1.8,1.9H107c-1,0-1.8-0.8-1.8-1.9v-40.7
				c0-1,0.8-1.9,1.8-1.9H166.2 M166.2,439.8H107c-4.1,0-7.4,3.3-7.4,7.4v40.7c0,4.1,3.3,7.4,7.4,7.4h59.2c4.1,0,7.4-3.3,7.4-7.4
				v-40.7C173.6,443.1,170.3,439.8,166.2,439.8L166.2,439.8z"/>
		</g>
	</g>
	<g class="st60">
		<polygon class="st21" points="169.9,491.3 169.9,443.2 126,443.2 153.6,491.3 		"/>
	</g>
</g>
<path class="st21" d="M111.5,443.7h49.9c0.4,0,0.8,0.2,0.8,0.5V490c0,0.3-0.4,0.5-0.8,0.5h-49.9c-0.4,0-0.8-0.2-0.8-0.5v-45.8
	C110.7,444,111,443.7,111.5,443.7z"/>
<path class="st64" d="M122.6,449.3h35.5c0.7,0,1.2,0.2,1.2,0.5v0.9c0,0.3-0.5,0.5-1.2,0.5h-35.5c-0.7,0-1.2-0.2-1.2-0.5v-0.9
	C121.5,449.5,122,449.3,122.6,449.3z"/>
<path class="st64" d="M122.6,453.1h21.3c0.7,0,1.2,0.2,1.2,0.5v0.9c0,0.3-0.5,0.5-1.2,0.5h-21.3c-0.7,0-1.2-0.2-1.2-0.5v-0.9
	C121.5,453.3,122,453.1,122.6,453.1z"/>
<path class="st65" d="M114.6,450.3h2.9c0.3,0,0.5,0.2,0.5,0.5v2.8c0,0.3-0.2,0.5-0.5,0.5h-2.9c-0.3,0-0.5-0.2-0.5-0.5v-2.8
	C114.1,450.5,114.4,450.3,114.6,450.3z"/>
<path class="st66" d="M115,452.1l-0.7-0.7c-0.2-0.2-0.5-0.2-0.7,0l-0.4,0.4c-0.2,0.2-0.2,0.5,0,0.7l1.9,1.9c0.2,0.2,0.5,0.2,0.7,0
	l0.8-0.8l2.6-2.5c0.2-0.2,0.2-0.5,0-0.7l-0.5-0.4c-0.2-0.2-0.5-0.2-0.7,0l-2.2,2.1C115.5,452.2,115.2,452.2,115,452.1z"/>
<path class="st64" d="M122.6,459h35.5c0.7,0,1.2,0.2,1.2,0.5v0.9c0,0.3-0.5,0.5-1.2,0.5h-35.5c-0.7,0-1.2-0.2-1.2-0.5v-0.9
	C121.5,459.2,122,459,122.6,459z"/>
<path class="st64" d="M122.6,462.8h21.3c0.7,0,1.2,0.2,1.2,0.5v0.9c0,0.3-0.5,0.5-1.2,0.5h-21.3c-0.7,0-1.2-0.2-1.2-0.5v-0.9
	C121.5,463,122,462.8,122.6,462.8z"/>
<path class="st65" d="M114.6,459.9h2.9c0.3,0,0.5,0.2,0.5,0.5v2.8c0,0.3-0.2,0.5-0.5,0.5h-2.9c-0.3,0-0.5-0.2-0.5-0.5v-2.8
	C114.1,460.1,114.4,459.9,114.6,459.9z"/>
<path class="st66" d="M115,461.7l-0.7-0.7c-0.2-0.2-0.5-0.2-0.7,0l-0.4,0.4c-0.2,0.2-0.2,0.5,0,0.7l1.9,1.9c0.2,0.2,0.5,0.2,0.7,0
	l0.8-0.8l2.6-2.5c0.2-0.2,0.2-0.5,0-0.7l-0.5-0.4c-0.2-0.2-0.5-0.2-0.7,0l-2.2,2.1C115.5,461.9,115.2,461.9,115,461.7z"/>
<path class="st64" d="M122.6,468.6h35.5c0.7,0,1.2,0.2,1.2,0.5v0.9c0,0.3-0.5,0.5-1.2,0.5h-35.5c-0.7,0-1.2-0.2-1.2-0.5v-0.9
	C121.5,468.8,122,468.6,122.6,468.6z"/>
<path class="st64" d="M122.6,472.5h21.3c0.7,0,1.2,0.2,1.2,0.5v0.9c0,0.3-0.5,0.5-1.2,0.5h-21.3c-0.7,0-1.2-0.2-1.2-0.5v-0.9
	C121.5,472.7,122,472.5,122.6,472.5z"/>
<path class="st65" d="M114.6,469.6h2.9c0.3,0,0.5,0.2,0.5,0.5v2.8c0,0.3-0.2,0.5-0.5,0.5h-2.9c-0.3,0-0.5-0.2-0.5-0.5v-2.8
	C114.1,469.8,114.4,469.6,114.6,469.6z"/>
<path class="st66" d="M115,471.4l-0.7-0.7c-0.2-0.2-0.5-0.2-0.7,0l-0.4,0.4c-0.2,0.2-0.2,0.5,0,0.7l1.9,1.9c0.2,0.2,0.5,0.2,0.7,0
	l0.8-0.8l2.6-2.5c0.2-0.2,0.2-0.5,0-0.7l-0.5-0.4c-0.2-0.2-0.5-0.2-0.7,0l-2.2,2.1C115.5,471.6,115.2,471.6,115,471.4z"/>
<path class="st64" d="M122.6,478.3h35.5c0.7,0,1.2,0.2,1.2,0.5v0.9c0,0.3-0.5,0.5-1.2,0.5h-35.5c-0.7,0-1.2-0.2-1.2-0.5v-0.9
	C121.5,478.5,122,478.3,122.6,478.3z"/>
<path class="st64" d="M122.6,482.2h21.3c0.7,0,1.2,0.2,1.2,0.5v0.9c0,0.3-0.5,0.5-1.2,0.5h-21.3c-0.7,0-1.2-0.2-1.2-0.5v-0.9
	C121.5,482.4,122,482.2,122.6,482.2z"/>
<path class="st65" d="M114.6,479.3h2.9c0.3,0,0.5,0.2,0.5,0.5v2.8c0,0.3-0.2,0.5-0.5,0.5h-2.9c-0.3,0-0.5-0.2-0.5-0.5v-2.8
	C114.1,479.5,114.4,479.3,114.6,479.3z"/>
<g>
	<polyline class="st67" points="186.9,456.5 154.9,456.5 154.9,425.9 186.9,425.9 186.9,456.5 	"/>
	<path class="st68" d="M171.3,430.6c0.5,0.2,0.4,0.5,0.2,1.9c-0.2,1.4-0.7,4.1-1.6,6.6c-1,2.6-2.4,5.1-3.7,7
		c-1.3,1.9-2.3,3.1-3.2,3.8c-0.8,0.7-1.4,0.9-1.8,1c-0.4,0.1-0.5,0-0.6-0.2c-0.1-0.2-0.1-0.5,0-0.9c0.1-0.4,0.3-0.8,0.9-1.4
		c0.6-0.6,1.5-1.2,2.8-1.9c1.3-0.6,3-1.2,4.4-1.6c1.4-0.4,2.5-0.6,3.4-0.8c0.9-0.2,1.8-0.3,2.5-0.4c0.8-0.1,1.6-0.1,2.3,0
		c0.8,0.1,1.5,0.2,2.1,0.3c0.6,0.2,1.2,0.3,1.7,0.6c0.5,0.3,0.9,0.7,1.1,1.2c0.2,0.5,0.2,1,0,1.3c-0.2,0.4-0.5,0.6-0.9,0.7
		c-0.4,0.1-0.8,0.2-1.4,0c-0.5-0.2-1.1-0.5-1.8-1c-0.6-0.5-1.3-1-2.2-1.9c-0.9-0.9-2-2.1-2.9-3.2s-1.7-2.3-2.2-3.2
		c-0.5-1-0.8-1.7-1-2.5c-0.2-0.8-0.4-1.6-0.5-2.3c-0.1-0.7,0-1.3,0-1.8c0.1-0.5,0.2-0.9,0.3-1.1c0.2-0.2,0.4-0.4,0.6-0.4
		c0.2-0.1,0.3-0.1,0.4-0.1s0.2,0,0.4,0C171,430.4,171.2,430.5,171.3,430.6"/>
</g>
<g>
	<path class="st21" d="M475.9,163.6l34.4-10v-38.2h-71.9v38.2l34.4,10C473.5,163.8,475.1,163.8,475.9,163.6z M487.1,128.2h13.6v3.2
		h-4.8v16h-4v-16h-4.8V128.2z M473.5,128.2h12v3.2h-8v4h6.4v4h-6.4v4h8v4h-12V128.2z M450,147.3c-1.4,0-2.5-1.1-2.5-2.6
		s1-2.7,2.5-2.7s2.5,1.1,2.5,2.7C452.5,146.2,451.5,147.3,450,147.3z M470.3,147.3h-4.5l-4.8-9.4l-1.8-4.2h-0.1
		c0.2,1.6,0.9,4.3,0.9,6.6v7h-4v-19.2h4l4.8,9.4l1.8,4.2h0.1c-0.2-2.4-0.3-4.7-0.3-7v-6.6h4L470.3,147.3L470.3,147.3z"/>
	<path class="st21" d="M476.8,166.7c-0.7,0.2-1.6,0.3-2.5,0.3c-0.9,0-1.8-0.1-2.5-0.3l-33.5-9.7v5.3c0,1,0.9,2.2,1.9,2.5l32.2,8.6
		c1,0.2,2.7,0.2,3.8,0l32.2-8.6c1-0.2,1.9-1.4,1.9-2.5v-5.3L476.8,166.7z"/>
	<path class="st21" d="M510.2,112.2v-8.5c0-1-0.9-1.9-1.9-1.9h-32.1c-1,0-2.9,0-3.9,0h-32c-1,0-1.9,0.9-1.9,1.9v8.5H510.2z"/>
</g>
</svg>
