<?xml version="1.0" encoding="utf-8"?>
<!-- Generator: Adobe Illustrator 20.0.0, SVG Export Plug-In . SVG Version: 6.00 Build 0)  -->
<svg version="1.1" id="Layer_1" xmlns="http://www.w3.org/2000/svg" xmlns:xlink="http://www.w3.org/1999/xlink" x="0px" y="0px"
	 viewBox="0 0 612 612" style="enable-background:new 0 0 612 612;" xml:space="preserve">
<style type="text/css">
	.st0{fill:#2DADB6;}
	.st1{clip-path:url(#SVGID_2_);}
	.st2{clip-path:url(#SVGID_5_);}
	.st3{fill:none;stroke:#7CC9CD;stroke-width:5;stroke-miterlimit:10;stroke-dasharray:0,5,0;}
	.st4{fill:#31617D;}
	.st5{fill:#FFFFFF;}
	.st6{fill:#E6E6E6;}
	.st7{fill:#4D4D4E;}
	.st8{fill:#B3B4B4;}
	.st9{fill:none;stroke:#1E75BB;stroke-width:2;stroke-miterlimit:10;}
	.st10{fill:none;stroke:#1E75BB;stroke-width:4;stroke-miterlimit:10;}
	.st11{fill:#0D222B;}
	.st12{fill:#144151;}
	.st13{fill:#FDF7C4;}
	.st14{fill:#054F84;}
	.st15{fill:#4DA6DC;}
	.st16{fill:#556D7F;}
	.st17{fill:#7793A7;}
	.st18{fill:#B9B9BA;}
	.st19{fill:#DCDBDB;}
	.st20{fill:#BCBDBF;}
	.st21{fill:#B4B4B6;}
	.st22{fill:#A6D9E8;}
	.st23{fill:#324754;}
	.st24{fill:#0E303F;}
	.st25{fill:#16AFBE;}
	.st26{fill:#D0EAF9;}
	.st27{opacity:0.1;enable-background:new    ;}
	.st28{fill:#2C5871;}
	.st29{fill:#F89A1F;}
	.st30{fill:#253F51;}
	.st31{fill:#617B92;}
	.st32{opacity:0.1;fill:#FFFFFF;enable-background:new    ;}
	.st33{fill:#4FC3CF;}
	.st34{fill:#E34825;}
	.st35{fill:#F2F8FC;}
	.st36{fill:#20364D;}
	.st37{fill:#375772;}
	.st38{fill:#2E4F6B;}
	.st39{fill:#FCBF14;}
	.st40{fill:#D53C27;}
	.st41{fill:#F2754C;}
	.st42{fill:#F1F1F1;}
	.st43{fill:#2D465F;}
</style>
<g>
	<g>
		<g>
			<g>
				<circle id="SVGID_3_" class="st0" cx="306" cy="306" r="306"/>
			</g>
			<g>
				<defs>
					<circle id="SVGID_1_" cx="306" cy="306" r="306"/>
				</defs>
				<clipPath id="SVGID_2_">
					<use xlink:href="#SVGID_1_"  style="overflow:visible;"/>
				</clipPath>
				<g class="st1">
					<ellipse class="st0" cx="306.5" cy="307" rx="311.8" ry="311.2"/>
				</g>
			</g>
		</g>
	</g>
	<g>
		<g>
			<g>
				<defs>
					<circle id="SVGID_4_" cx="306" cy="306" r="250.5"/>
				</defs>
				<clipPath id="SVGID_5_">
					<use xlink:href="#SVGID_4_"  style="overflow:visible;"/>
				</clipPath>
				<g class="st2">
					<ellipse class="st3" cx="306.4" cy="306.8" rx="255.2" ry="254.8"/>
				</g>
			</g>
			<g>
				<circle id="SVGID_9_" class="st3" cx="306" cy="306" r="250.5"/>
			</g>
		</g>
	</g>
	<g>
		<g>
			<path class="st4" d="M307.2,255.4c10.9,2.8,20.4,7.1,26.9,13.4c6.7,6.4,10.4,14.8,9.5,25.5c-0.6,6.4-2.8,13.6-7,21.6
				c1.1,1.4,2,2.8,2.9,4.4c2.8,5.2,4.3,11.4,4.8,18.2c1.6,20.8-5.9,46.9-13.7,63.7l-0.4,0.9c9.9,0.8,17.8,11.6,17.8,24.8
				c0,13.7-8.5,24.8-19,24.8s-19-11.1-19-24.8c0-13.4,8.1-24.4,18.3-24.8l0.7-1.6c7.7-16.6,15.1-42.4,13.5-62.9
				c-0.5-6.6-1.9-12.6-4.6-17.6c-0.7-1.3-1.4-2.5-2.3-3.6c-1,1.9-2.2,3.8-3.4,5.7c-8.5,13.4-17.2,20.5-25.1,23.4v-1.8
				c7.4-2.9,15.6-9.8,23.7-22.5c1.4-2.1,2.6-4.2,3.7-6.3c-2.3-2.6-5-4.8-8.4-6.3c-4.9-2.3-11.2-3.3-18.9-2.7v-1.7
				c8-0.6,14.5,0.5,19.6,2.9c3.4,1.6,6.2,3.7,8.6,6.3c3.9-7.6,6-14.4,6.5-20.4c0.9-10.1-2.6-18.1-9-24.2c-6.3-6-15.3-10.2-25.8-12.9
				L307.2,255.4L307.2,255.4z"/>
			<path class="st4" d="M307.2,346.7v-1.8c-3.1,1.2-6.1,1.7-8.9,1.6c-6.7-0.2-12.2-3.8-15.4-8.8c-3.2-5-4.1-11.3-1.6-16.9
				c3-6.8,11-12.6,25.9-13.8h0.1v-1.7h-0.2c-15.6,1.2-24,7.4-27.3,14.8c-2.7,6.1-1.7,13,1.8,18.5c3.5,5.4,9.5,9.3,16.8,9.5
				C301,348.3,304,347.8,307.2,346.7z"/>
			<path class="st5" d="M303.1,252c10.9,2.8,20.4,7.1,26.9,13.4c6.7,6.4,10.4,14.8,9.5,25.5c-0.6,6.4-2.8,13.6-7,21.6
				c1.1,1.4,2,2.8,2.9,4.4c2.8,5.2,4.3,11.4,4.8,18.2c1.6,20.8-5.9,46.9-13.7,63.7l-3.1,7.4l-0.4-3.3l2-4.8
				c7.7-16.6,15.1-42.4,13.5-62.9c-0.5-6.6-1.9-12.6-4.6-17.6c-0.7-1.3-1.4-2.5-2.3-3.6c-1,1.9-2.2,3.8-3.4,5.7
				c-8.5,13.4-17.2,20.5-25.1,23.4v-1.8c7.4-2.9,15.6-9.8,23.7-22.5c1.4-2.1,2.6-4.2,3.7-6.3c-2.3-2.6-5-4.8-8.4-6.3
				c-4.9-2.3-11.2-3.3-18.9-2.7V302c8-0.6,14.5,0.5,19.6,2.9c3.4,1.6,6.2,3.7,8.6,6.3c3.9-7.6,6-14.4,6.5-20.4
				c0.9-10.1-2.6-18.1-9-24.2c-6.3-6-15.3-10.2-25.8-12.9L303.1,252L303.1,252z M302.6,251.8l0.5,0.1v1.7c-0.3-0.1-0.6-0.2-0.9-0.2
				 M303.1,343.3c-3.1,1.1-6.1,1.6-8.9,1.5c-7.3-0.2-13.3-4.1-16.8-9.5s-4.4-12.3-1.8-18.5c3.2-7.3,11.7-13.6,27.3-14.8h0.2v1.7H303
				c-14.9,1.2-22.9,7-25.9,13.8c-2.5,5.6-1.6,11.9,1.6,16.9s8.7,8.6,15.4,8.8c2.8,0.1,5.8-0.4,8.9-1.6L303.1,343.3L303.1,343.3z"/>
			<g>
				<path class="st6" d="M324.9,449.5c10.5,0,19-11.2,19-24.8s-8.5-24.8-19-24.8s-19,11.2-19,24.8S314.4,449.5,324.9,449.5z"/>
				<path class="st5" d="M324.9,442.3c8.7,0,15.7-9.2,15.7-20.6c0-11.3-7.1-20.6-15.7-20.6c-8.7,0-15.7,9.2-15.7,20.6
					C309.2,433.1,316.2,442.3,324.9,442.3z"/>
				<path class="st7" d="M324.9,399.8c0.1,0,0.3,0,0.4,0v13h-0.8v-13C324.6,399.8,324.8,399.8,324.9,399.8z"/>
				<path class="st7" d="M323.4,403.1h2.9c0.7,0,1.2,0.5,1.2,1.2v13.4c0,0.7-0.5,1.2-1.2,1.2h-2.9c-0.7,0-1.2-0.5-1.2-1.2v-13.4
					C322.2,403.7,322.8,403.1,323.4,403.1z"/>
				<path class="st8" d="M324.1,404.1h1.6c0.4,0,0.7,0.3,0.7,0.7v12.6c0,0.4-0.3,0.7-0.7,0.7h-1.6c-0.4,0-0.7-0.3-0.7-0.7v-12.6
					C323.4,404.4,323.7,404.1,324.1,404.1z"/>
			</g>
		</g>
		<g id="E-learning">
			<g id="arrows">
				<g>
					<line class="st9" x1="173.5" y1="242.5" x2="243.4" y2="271.2"/>
					<polyline class="st10" points="178.6,254 172.6,242.1 186.5,240.8 					"/>
				</g>
				<g>
					<line class="st9" x1="410.1" y1="369.8" x2="356.2" y2="316.9"/>
					<polyline class="st10" points="409.7,357.2 410.7,370.5 397.4,366.5 					"/>
				</g>
				<g>
					<line class="st9" x1="203.6" y1="398.2" x2="263.4" y2="352"/>
					<polyline class="st10" points="217.6,399.6 202.8,398.8 208.3,386.7 					"/>
				</g>
				<g>
					<line class="st9" x1="421.5" y1="213.1" x2="361.6" y2="259.3"/>
					<polyline class="st10" points="409.7,213.1 422.2,212.6 421,225.2 					"/>
				</g>
			</g>
			<g id="books">
				<g>
					<path class="st11" d="M294.6,307.2l0.7-10.7l65.3,15.9c3.4,0.9,4.4,13.5,1.8,15.8l-57.8,25.9l2.6-2.8c-1.3,2.8-4.4,4.4-7.5,3.5
						L239,330.6v-17"/>
					<polygon class="st12" points="295.3,296.6 359.5,312.2 302,338.3 239.1,313.7 					"/>
					<path class="st13" d="M239.1,313.7l63.3,24.7c3.2,0.8,5.1,8.1,4.2,11.3c-0.9,3.2-4.1,5.1-7.3,4.2l-60.2-24L239.1,313.7
						L239.1,313.7z"/>
				</g>
				<g>
					<path class="st14" d="M303.7,288.7l0.7-10.7l65.3,15.9c3.4,0.9,4.4,13.5,1.8,15.8l-57.8,25.9l2.6-2.8c-1.3,2.8-4.4,4.4-7.5,3.5
						l-60.7-24.2v-17"/>
					<polygon class="st15" points="304.4,278 368.6,293.6 311.1,319.7 248.2,295.1 					"/>
					<path class="st13" d="M248.2,295.1l63.3,24.7c3.2,0.9,5.1,8.1,4.2,11.3c-0.9,3.2-4.1,5.1-7.3,4.2l-60.2-24L248.2,295.1
						L248.2,295.1z"/>
				</g>
				<g>
					<path class="st16" d="M306,264.1l0.7-10.7L367,273c3.4,0.9,4.4,13.5,1.8,15.8L311,314.7l2.6-2.8c-1.3,2.8-4.4,4.4-7.5,3.5
						l-60.7-24.2v-17"/>
					<polygon class="st17" points="306.7,253.4 366,272.7 308.5,298.8 245.5,274.2 					"/>
					<path class="st13" d="M245.5,274.2l63.3,24.7c3.2,0.9,5.1,8.1,4.2,11.3c-0.9,3.2-4.1,5.1-7.3,4.2l-60.2-24L245.5,274.2
						L245.5,274.2z"/>
				</g>
				<g>
					<path class="st11" d="M308.7,245l0.7-10.7l60.3,19.6c3.4,0.9,4.4,13.5,1.8,15.8l-57.8,25.9l2.6-2.8c-1.3,2.8-4.4,4.4-7.5,3.5
						l-60.7-24.2v-17"/>
					<polygon class="st12" points="309.3,234.3 368.6,253.6 311.1,279.7 248.2,255.1 					"/>
					<path class="st13" d="M248.2,255.1l63.3,24.7c3.2,0.8,5.1,8.1,4.2,11.3c-0.9,3.2-4.1,5.1-7.3,4.2l-60.2-24L248.2,255.1
						L248.2,255.1z"/>
				</g>
			</g>
			<g id="laptop">
				<path class="st18" d="M242.2,442.1l-0.4-3.5l-2.1,1.8L184.8,418c-1.2-0.5-2.9-0.3-3.9,0.3l-77.7,48l-2.5-1.7l0.4,3.4l0,0
					c0,0.4,0.3,0.8,0.9,1.1l61.7,24.6c1.2,0.5,2.9,0.3,3.9-0.3l73.8-50.1c0.4-0.3,0.7-0.7,0.7-1l0,0L242.2,442.1L242.2,442.1z"/>
				<g>
					<path class="st11" d="M178.4,345.8l2.7-1.7l-3.8-2.3c-0.1,0-0.1-0.1-0.2-0.1H177l0,0c-0.4-0.2-0.9-0.1-1.3,0.2l-77.5,46.4
						c-1.1,0.7-1.9,2.4-1.7,3.9l0.2,69.9l3.7,2.2l3.9-6.9L178,412L178.4,345.8z"/>
					<g>
						<path class="st19" d="M101.3,463.8l79.1-48.8c1-0.6,2.7-0.7,3.9-0.3l56.5,23c1.1,0.5,1.3,1.3,0.3,1.9L167.2,490
							c-1,0.6-2.7,0.7-3.9,0.3l-61.7-24.6C100.4,465.3,100.3,464.4,101.3,463.8z"/>
						<path class="st20" d="M181.1,423.8l2.5-1.5c0.3-0.2,0.8-0.2,1.1-0.1l2.2,0.9c0.3,0.1,0.4,0.4,0.1,0.6l-2.5,1.5
							c-0.3,0.2-0.8,0.2-1.1,0.1l-2.2-0.9C180.9,424.2,180.8,424,181.1,423.8z M185.4,426l2.9,1.2c0.4,0.2,1,0.1,1.4-0.1l2.3-1.4
							c0.3-0.2,0.3-0.5-0.1-0.7l-2.9-1.2c-0.4-0.2-1-0.1-1.4,0.1l-2.3,1.4C185,425.6,185,425.9,185.4,426z M190.6,428.1l2.9,1.2
							c0.4,0.2,1,0.1,1.4-0.1l2.3-1.4c0.3-0.2,0.3-0.5-0.1-0.7l-2.9-1.2c-0.4-0.2-1-0.1-1.4,0.1l-2.3,1.4
							C190.1,427.6,190.2,427.9,190.6,428.1z M195.7,430.1l2.9,1.2c0.4,0.2,1,0.1,1.4-0.1l2.3-1.4c0.3-0.2,0.3-0.5-0.1-0.7l-2.9-1.2
							c-0.4-0.2-1-0.1-1.4,0.1l-2.3,1.4C195.3,429.7,195.3,430,195.7,430.1z M200.9,432.2l2.9,1.2c0.4,0.2,1,0.1,1.4-0.1l2.3-1.4
							c0.3-0.2,0.3-0.5-0.1-0.7l-2.9-1.2c-0.4-0.2-1-0.1-1.4,0.1l-2.3,1.4C200.4,431.7,200.4,432,200.9,432.2z M206,434.2l2.9,1.2
							c0.4,0.2,1,0.1,1.4-0.1l2.3-1.4c0.3-0.2,0.3-0.5-0.1-0.7l-2.9-1.2c-0.4-0.2-1-0.1-1.4,0.1l-2.3,1.4
							C205.5,433.8,205.6,434.1,206,434.2z M176.8,427.1l2.2,0.9c0.3,0.1,0.8,0.1,1.1-0.1l2.5-1.5c0.3-0.2,0.2-0.4-0.1-0.6l-2.2-0.9
							c-0.3-0.1-0.8-0.1-1.1,0.1l-2.5,1.5C176.4,426.7,176.4,427,176.8,427.1z M177,431.3l2.8,1.1c0.4,0.2,1.1,0.1,1.5-0.1l6.3-3.9
							c0.4-0.2,0.3-0.6-0.1-0.7l-2.8-1.1c-0.4-0.2-1.1-0.1-1.5,0.1l-6.3,3.9C176.5,430.8,176.5,431.2,177,431.3z M185,431.6l2.8,1.1
							c0.4,0.2,1.1,0.1,1.5-0.1l3.4-2.1c0.4-0.2,0.3-0.6-0.1-0.7l-2.8-1.1c-0.4-0.2-1.1-0.1-1.5,0.1l-3.4,2.1
							C184.5,431.1,184.6,431.4,185,431.6z M186.8,435.7l2.8,1.1c0.4,0.2,1.1,0.1,1.5-0.1l6.8-4.2c0.4-0.2,0.3-0.6-0.1-0.7l-2.8-1.1
							c-0.4-0.2-1.1-0.1-1.5,0.1l-6.8,4.2C186.3,435.2,186.3,435.6,186.8,435.7z M196.4,434.9l2.9,1.2c0.4,0.2,1,0.1,1.4-0.1
							l2.3-1.4c0.3-0.2,0.3-0.5-0.1-0.7l-2.9-1.2c-0.4-0.2-1-0.1-1.4,0.1l-2.3,1.4C196,434.5,196,434.8,196.4,434.9z M201.6,437
							l2.9,1.2c0.4,0.2,1,0.1,1.4-0.1l2.3-1.4c0.3-0.2,0.3-0.5-0.1-0.7l-2.9-1.2c-0.4-0.2-1-0.1-1.4,0.1l-2.3,1.4
							C201.1,436.5,201.2,436.8,201.6,437z M172.7,429.6l2.2,0.9c0.3,0.1,0.8,0.1,1.1-0.1l2.2-1.3c0.3-0.2,0.2-0.4-0.1-0.6l-2.2-0.9
							c-0.3-0.1-0.8-0.1-1.1,0.1l-2.2,1.3C172.3,429.2,172.4,429.5,172.7,429.6z M168.5,432.2l2.2,0.9c0.3,0.1,0.8,0.1,1.1-0.1
							l2.2-1.3c0.3-0.2,0.2-0.4-0.1-0.6l-2.2-0.9c-0.3-0.1-0.8-0.1-1.1,0.1l-2.2,1.3C168.2,431.8,168.2,432,168.5,432.2z
							 M164.4,434.7l2.2,0.9c0.3,0.1,0.8,0.1,1.1-0.1l2.2-1.3c0.3-0.2,0.2-0.4-0.1-0.6l-2.2-0.9c-0.3-0.1-0.8-0.1-1.1,0.1l-2.2,1.3
							C164,434.4,164.1,434.6,164.4,434.7z M160.2,437.3l2.2,0.9c0.3,0.1,0.8,0.1,1.1-0.1l2.2-1.3c0.3-0.2,0.2-0.4-0.1-0.6l-2.2-0.9
							c-0.3-0.1-0.8-0.1-1.1,0.1l-2.2,1.3C159.9,436.9,159.9,437.2,160.2,437.3z M156.1,439.9l2.2,0.9c0.3,0.1,0.8,0.1,1.1-0.1
							l2.2-1.3c0.3-0.2,0.2-0.4-0.1-0.6l-2.2-0.9c-0.3-0.1-0.8-0.1-1.1,0.1l-2.2,1.3C155.7,439.5,155.8,439.7,156.1,439.9z
							 M151.9,442.4l2.2,0.9c0.3,0.1,0.8,0.1,1.1-0.1l2.2-1.3c0.3-0.2,0.2-0.4-0.1-0.6l-2.2-0.9c-0.3-0.1-0.8-0.1-1.1,0.1l-2.2,1.3
							C151.6,442.1,151.6,442.3,151.9,442.4z M147.8,445l2.2,0.9c0.3,0.1,0.8,0.1,1.1-0.1l2.2-1.3c0.3-0.2,0.2-0.4-0.1-0.6L151,443
							c-0.3-0.1-0.8-0.1-1.1,0.1l-2.2,1.3C147.4,444.6,147.5,444.9,147.8,445z M143.6,447.6l2.2,0.9c0.3,0.1,0.8,0.1,1.1-0.1
							l2.2-1.3c0.3-0.2,0.2-0.4-0.1-0.6l-2.2-0.9c-0.3-0.1-0.8-0.1-1.1,0.1l-2.2,1.3C143.3,447.2,143.3,447.4,143.6,447.6z
							 M139.5,450.1l2.2,0.9c0.3,0.1,0.8,0.1,1.1-0.1l2.2-1.3c0.3-0.2,0.2-0.4-0.1-0.6l-2.2-0.9c-0.3-0.1-0.8-0.1-1.1,0.1l-2.2,1.3
							C139.1,449.7,139.2,450,139.5,450.1z M135.3,452.7l2.2,0.9c0.3,0.1,0.8,0.1,1.1-0.1l2.2-1.3c0.3-0.2,0.2-0.4-0.1-0.6l-2.2-0.9
							c-0.3-0.1-0.8-0.1-1.1,0.1l-2.2,1.3C135,452.3,135,452.6,135.3,452.7z M131.2,455.3l2.2,0.9c0.3,0.1,0.8,0.1,1.1-0.1l2.2-1.3
							c0.3-0.2,0.2-0.4-0.1-0.6l-2.2-0.9c-0.3-0.1-0.8-0.1-1.1,0.1l-2.2,1.3C130.8,454.9,130.9,455.1,131.2,455.3z M127,457.8
							l2.2,0.9c0.3,0.1,0.8,0.1,1.1-0.1l2.2-1.3c0.3-0.2,0.2-0.4-0.1-0.6l-2.2-0.9c-0.3-0.1-0.8-0.1-1.1,0.1l-2.2,1.3
							C126.7,457.4,126.7,457.7,127,457.8z M122.9,460.4l2.2,0.9c0.3,0.1,0.8,0.1,1.1-0.1l2.2-1.3c0.3-0.2,0.2-0.4-0.1-0.6l-2.2-0.9
							c-0.3-0.1-0.8-0.1-1.1,0.1l-2.2,1.3C122.5,460,122.6,460.3,122.9,460.4z M118.7,462.9l2.2,0.9c0.3,0.1,0.8,0.1,1.1-0.1
							l2.2-1.3c0.3-0.2,0.2-0.4-0.1-0.6l-2.2-0.9c-0.3-0.1-0.8-0.1-1.1,0.1l-2.2,1.3C118.4,462.6,118.4,462.8,118.7,462.9z
							 M114.1,465.8l2.2,0.9c0.3,0.1,0.8,0.1,1.1-0.1l2.5-1.5c0.3-0.2,0.2-0.4-0.1-0.6l-2.2-0.9c-0.3-0.1-0.8-0.1-1.1,0.1l-2.5,1.5
							C113.7,465.4,113.7,465.7,114.1,465.8z M172.5,434l2.9,1.2c0.4,0.2,1,0.1,1.3-0.1l2.2-1.4c0.3-0.2,0.3-0.5-0.1-0.7l-2.9-1.2
							c-0.4-0.2-1-0.1-1.3,0.1l-2.2,1.4C172.1,433.6,172.1,433.9,172.5,434z M168,436.8l2.9,1.2c0.4,0.2,1,0.1,1.3-0.1l2.2-1.4
							c0.3-0.2,0.3-0.5-0.1-0.7l-2.9-1.2c-0.4-0.2-1-0.1-1.3,0.1l-2.2,1.4C167.6,436.4,167.6,436.7,168,436.8z M163.5,439.6l2.9,1.2
							c0.4,0.2,1,0.1,1.3-0.1l2.2-1.4c0.3-0.2,0.3-0.5-0.1-0.7l-2.9-1.2c-0.4-0.2-1-0.1-1.3,0.1l-2.2,1.4
							C163,439.1,163.1,439.4,163.5,439.6z M159,442.4l2.9,1.2c0.4,0.2,1,0.1,1.3-0.1l2.2-1.4c0.3-0.2,0.3-0.5-0.1-0.7l-2.9-1.2
							c-0.4-0.2-1-0.1-1.3,0.1l-2.2,1.4C158.5,441.9,158.6,442.2,159,442.4z M154.5,445.2l2.9,1.2c0.4,0.2,1,0.1,1.3-0.1l2.2-1.4
							c0.3-0.2,0.3-0.5-0.1-0.7L158,443c-0.4-0.2-1-0.1-1.3,0.1l-2.2,1.4C154,444.7,154.1,445,154.5,445.2z M150,447.9l2.9,1.2
							c0.4,0.2,1,0.1,1.3-0.1l2.2-1.4c0.3-0.2,0.3-0.5-0.1-0.7l-2.9-1.2c-0.4-0.2-1-0.1-1.3,0.1l-2.2,1.4
							C149.5,447.5,149.6,447.8,150,447.9z M145.5,450.7l2.9,1.2c0.4,0.2,1,0.1,1.3-0.1l2.2-1.4c0.3-0.2,0.3-0.5-0.1-0.7l-2.9-1.2
							c-0.4-0.2-1-0.1-1.3,0.1l-2.2,1.4C145,450.3,145.1,450.6,145.5,450.7z M141,453.5l2.9,1.2c0.4,0.2,1,0.1,1.3-0.1l2.2-1.4
							c0.3-0.2,0.3-0.5-0.1-0.7l-2.9-1.2c-0.4-0.2-1-0.1-1.3,0.1l-2.2,1.4C140.5,453,140.6,453.3,141,453.5z M136.5,456.3l2.9,1.2
							c0.4,0.2,1,0.1,1.3-0.1l2.2-1.4c0.3-0.2,0.3-0.5-0.1-0.7l-2.9-1.2c-0.4-0.2-1-0.1-1.3,0.1l-2.2,1.4
							C136,455.8,136.1,456.1,136.5,456.3z M132,459.1l2.9,1.2c0.4,0.2,1,0.1,1.3-0.1l2.2-1.4c0.3-0.2,0.3-0.5-0.1-0.7l-2.9-1.2
							c-0.4-0.2-1-0.1-1.3,0.1l-2.2,1.4C131.5,458.6,131.6,458.9,132,459.1z M127.5,461.9l2.9,1.2c0.4,0.2,1,0.1,1.3-0.1l2.2-1.4
							c0.3-0.2,0.3-0.5-0.1-0.7l-2.9-1.2c-0.4-0.2-1-0.1-1.3,0.1l-2.2,1.4C127,461.4,127.1,461.7,127.5,461.9z M123,464.6l2.9,1.2
							c0.4,0.2,1,0.1,1.3-0.1l2.2-1.4c0.3-0.2,0.3-0.5-0.1-0.7l-2.9-1.2c-0.4-0.2-1-0.1-1.3,0.1l-2.2,1.4
							C122.5,464.2,122.6,464.5,123,464.6z M118.3,467.5l2.9,1.2c0.4,0.2,1,0.1,1.4-0.1l2.3-1.4c0.3-0.2,0.3-0.5-0.1-0.7l-2.9-1.2
							c-0.4-0.2-1-0.1-1.4,0.1l-2.3,1.4C117.9,467.1,117.9,467.4,118.3,467.5z M123.5,469.6l2.8,1.1c0.4,0.2,1.1,0.1,1.5-0.1
							l4.7-2.9c0.4-0.2,0.3-0.6-0.1-0.7l-2.8-1.1c-0.4-0.2-1.1-0.1-1.5,0.1l-4.7,2.9C123,469.1,123.1,469.4,123.5,469.6z
							 M128.6,471.6l2.8,1.1c0.4,0.2,1.1,0.1,1.5-0.1l5.6-3.4c0.4-0.2,0.3-0.6-0.1-0.7l-2.8-1.1c-0.4-0.2-1.1-0.1-1.5,0.1l-5.6,3.4
							C128.2,471.1,128.2,471.5,128.6,471.6z M133.8,473.7l2.8,1.1c0.4,0.2,1.1,0.1,1.5-0.1l8-4.9c0.4-0.2,0.3-0.6-0.1-0.7l-2.8-1.1
							c-0.4-0.2-1.1-0.1-1.5,0.1l-8,4.9C133.3,473.2,133.4,473.5,133.8,473.7z M138.9,475.7l2.8,1.1c0.4,0.2,1.1,0.1,1.5-0.1l3.3-2
							c0.4-0.2,0.3-0.6-0.1-0.7l-2.8-1.1c-0.4-0.2-1.1-0.1-1.5,0.1l-3.3,2C138.4,475.2,138.5,475.6,138.9,475.7z M130.1,465.5
							l2.8,1.1c0.4,0.2,1.1,0.1,1.4-0.1l2.4-1.5c0.4-0.2,0.3-0.5-0.1-0.7l-2.8-1.1c-0.4-0.2-1.1-0.1-1.4,0.1l-2.4,1.5
							C129.6,465,129.7,465.3,130.1,465.5z M134.7,462.7l2.8,1.1c0.4,0.2,1.1,0.1,1.4-0.1l2.4-1.5c0.4-0.2,0.3-0.5-0.1-0.7l-2.8-1.1
							c-0.4-0.2-1.1-0.1-1.4,0.1l-2.4,1.5C134.2,462.2,134.2,462.5,134.7,462.7z M139.3,459.8l2.8,1.1c0.4,0.2,1.1,0.1,1.4-0.1
							l2.4-1.5c0.4-0.2,0.3-0.5-0.1-0.7l-2.8-1.1c-0.4-0.2-1.1-0.1-1.4,0.1l-2.4,1.5C138.8,459.4,138.8,459.7,139.3,459.8z
							 M143.8,457l2.8,1.1c0.4,0.2,1.1,0.1,1.4-0.1l2.4-1.5c0.4-0.2,0.3-0.5-0.1-0.7l-2.8-1.1c-0.4-0.2-1.1-0.1-1.4,0.1l-2.4,1.5
							C143.4,456.5,143.4,456.8,143.8,457z M148.4,454.2l2.8,1.1c0.4,0.2,1.1,0.1,1.4-0.1l2.4-1.5c0.4-0.2,0.3-0.5-0.1-0.7l-2.8-1.1
							c-0.4-0.2-1.1-0.1-1.4,0.1l-2.4,1.5C148,453.7,148,454,148.4,454.2z M153,451.3l2.8,1.1c0.4,0.2,1.1,0.1,1.4-0.1l2.4-1.5
							c0.4-0.2,0.3-0.5-0.1-0.7l-2.8-1.1c-0.4-0.2-1.1-0.1-1.4,0.1l-2.4,1.5C152.6,450.8,152.6,451.2,153,451.3z M157.6,448.5
							l2.8,1.1c0.4,0.2,1.1,0.1,1.4-0.1l2.4-1.5c0.4-0.2,0.3-0.5-0.1-0.7l-2.8-1.1c-0.4-0.2-1.1-0.1-1.4,0.1l-2.4,1.5
							C157.1,448,157.2,448.3,157.6,448.5z M162.2,445.7l2.8,1.1c0.4,0.2,1.1,0.1,1.4-0.1l2.4-1.5c0.4-0.2,0.3-0.5-0.1-0.7l-2.8-1.1
							c-0.4-0.2-1.1-0.1-1.4,0.1l-2.4,1.5C161.7,445.2,161.8,445.5,162.2,445.7z M166.8,442.8l2.8,1.1c0.4,0.2,1.1,0.1,1.4-0.1
							l2.4-1.5c0.4-0.2,0.3-0.5-0.1-0.7l-2.8-1.1c-0.4-0.2-1.1-0.1-1.4,0.1l-2.4,1.5C166.3,442.3,166.4,442.7,166.8,442.8z
							 M171.4,440l2.8,1.1c0.4,0.2,1.1,0.1,1.4-0.1l2.4-1.5c0.4-0.2,0.3-0.5-0.1-0.7l-2.8-1.1c-0.4-0.2-1.1-0.1-1.4,0.1l-2.4,1.5
							C170.9,439.5,170.9,439.8,171.4,440z M176,437.2l2.8,1.1c0.4,0.2,1.1,0.1,1.4-0.1l2.4-1.5c0.4-0.2,0.3-0.5-0.1-0.7l-2.8-1.1
							c-0.4-0.2-1.1-0.1-1.4,0.1l-2.4,1.5C175.5,436.7,175.5,437,176,437.2z M180.5,434.3l2.8,1.1c0.4,0.2,1.1,0.1,1.4-0.1l2.4-1.5
							c0.4-0.2,0.3-0.5-0.1-0.7l-2.8-1.1c-0.4-0.2-1.1-0.1-1.4,0.1l-2.4,1.5C180.1,433.8,180.1,434.2,180.5,434.3z M136.5,466.8
							l2.8,1.1c0.4,0.2,1.1,0.1,1.4-0.1l2.4-1.5c0.4-0.2,0.3-0.5-0.1-0.7l-2.8-1.1c-0.4-0.2-1.1-0.1-1.4,0.1l-2.4,1.5
							C136,466.3,136.1,466.6,136.5,466.8z M141.1,463.9l2.8,1.1c0.4,0.2,1.1,0.1,1.4-0.1l2.4-1.5c0.4-0.2,0.3-0.5-0.1-0.7l-2.8-1.1
							c-0.4-0.2-1.1-0.1-1.4,0.1l-2.4,1.5C140.6,463.4,140.7,463.8,141.1,463.9z M145.7,461.1l2.8,1.1c0.4,0.2,1.1,0.1,1.4-0.1
							l2.4-1.5c0.4-0.2,0.3-0.5-0.1-0.7l-2.8-1.1c-0.4-0.2-1.1-0.1-1.4,0.1l-2.4,1.5C145.2,460.6,145.3,460.9,145.7,461.1z
							 M150.3,458.3l2.8,1.1c0.4,0.2,1.1,0.1,1.4-0.1l2.4-1.5c0.4-0.2,0.3-0.5-0.1-0.7L154,456c-0.4-0.2-1.1-0.1-1.4,0.1l-2.4,1.5
							C149.8,457.8,149.8,458.1,150.3,458.3z M154.9,455.4l2.8,1.1c0.4,0.2,1.1,0.1,1.4-0.1l2.4-1.5c0.4-0.2,0.3-0.5-0.1-0.7
							l-2.8-1.1c-0.4-0.2-1.1-0.1-1.4,0.1l-2.4,1.5C154.4,454.9,154.4,455.3,154.9,455.4z M159.4,452.6l2.8,1.1
							c0.4,0.2,1.1,0.1,1.4-0.1l2.4-1.5c0.4-0.2,0.3-0.5-0.1-0.7l-2.8-1.1c-0.4-0.2-1.1-0.1-1.4,0.1l-2.4,1.5
							C159,452.1,159,452.4,159.4,452.6z M164,449.8l2.8,1.1c0.4,0.2,1.1,0.1,1.4-0.1l2.4-1.5c0.4-0.2,0.3-0.5-0.1-0.7l-2.8-1.1
							c-0.4-0.2-1.1-0.1-1.4,0.1l-2.4,1.5C163.6,449.3,163.6,449.6,164,449.8z M168.6,446.9l2.8,1.1c0.4,0.2,1.1,0.1,1.4-0.1
							l2.4-1.5c0.4-0.2,0.3-0.5-0.1-0.7l-2.8-1.1c-0.4-0.2-1.1-0.1-1.4,0.1l-2.4,1.5C168.1,446.4,168.2,446.8,168.6,446.9z
							 M173.2,444.1l2.8,1.1c0.4,0.2,1.1,0.1,1.4-0.1l2.4-1.5c0.4-0.2,0.3-0.5-0.1-0.7l-2.8-1.1c-0.4-0.2-1.1-0.1-1.4,0.1l-2.4,1.5
							C172.7,443.6,172.8,443.9,173.2,444.1z M177.8,441.3l2.8,1.1c0.4,0.2,1.1,0.1,1.4-0.1l2.4-1.5c0.4-0.2,0.3-0.5-0.1-0.7
							l-2.8-1.1c-0.4-0.2-1.1-0.1-1.4,0.1l-2.4,1.5C177.3,440.8,177.4,441.1,177.8,441.3z M182.4,438.4l2.8,1.1
							c0.4,0.2,1.1,0.1,1.4-0.1l2.4-1.5c0.4-0.2,0.3-0.5-0.1-0.7l-2.8-1.1c-0.4-0.2-1.1-0.1-1.4,0.1l-2.4,1.5
							C181.9,437.9,181.9,438.3,182.4,438.4z M144,467.3l2.8,1.1c0.4,0.2,1.1,0.1,1.4-0.1l2.4-1.5c0.4-0.2,0.3-0.5-0.1-0.7l-2.8-1.1
							c-0.4-0.2-1.1-0.1-1.4,0.1l-2.4,1.5C143.6,466.8,143.6,467.2,144,467.3z M148.6,464.5l2.8,1.1c0.4,0.2,1.1,0.1,1.4-0.1
							l2.4-1.5c0.4-0.2,0.3-0.5-0.1-0.7l-2.8-1.1c-0.4-0.2-1.1-0.1-1.4,0.1l-2.4,1.5C148.2,464,148.2,464.3,148.6,464.5z
							 M153.2,461.7l2.8,1.1c0.4,0.2,1.1,0.1,1.4-0.1l2.4-1.5c0.4-0.2,0.3-0.5-0.1-0.7l-2.8-1.1c-0.4-0.2-1.1-0.1-1.4,0.1l-2.4,1.5
							C152.7,461.2,152.8,461.5,153.2,461.7z M157.8,458.8l2.8,1.1c0.4,0.2,1.1,0.1,1.4-0.1l2.4-1.5c0.4-0.2,0.3-0.6-0.1-0.7
							l-2.8-1.1c-0.4-0.2-1.1-0.1-1.4,0.1l-2.4,1.5C157.3,458.3,157.4,458.7,157.8,458.8z M162.4,456l2.8,1.1
							c0.4,0.2,1.1,0.1,1.4-0.1l2.4-1.5c0.4-0.2,0.3-0.5-0.1-0.7l-2.8-1.1c-0.4-0.2-1.1-0.1-1.4,0.1l-2.4,1.5
							C161.9,455.5,162,455.8,162.4,456z M167,453.2l2.8,1.1c0.4,0.2,1.1,0.1,1.4-0.1l2.4-1.5c0.4-0.2,0.3-0.5-0.1-0.7l-2.8-1.1
							c-0.4-0.2-1.1-0.1-1.4,0.1l-2.4,1.5C166.5,452.7,166.6,453,167,453.2z M171.6,450.3l2.8,1.1c0.4,0.2,1.1,0.1,1.4-0.1l2.4-1.5
							c0.4-0.2,0.3-0.5-0.1-0.7l-2.8-1.1c-0.4-0.2-1.1-0.1-1.4,0.1l-2.4,1.5C171.1,449.8,171.1,450.2,171.6,450.3z M176.2,447.5
							l2.8,1.1c0.4,0.2,1.1,0.1,1.4-0.1l2.4-1.5c0.4-0.2,0.3-0.5-0.1-0.7l-2.8-1.1c-0.4-0.2-1.1-0.1-1.4,0.1l-2.4,1.5
							C175.7,447,175.7,447.3,176.2,447.5z M180.7,444.7l2.8,1.1c0.4,0.2,1.1,0.1,1.4-0.1l2.4-1.5c0.4-0.2,0.3-0.5-0.1-0.7l-2.8-1.1
							c-0.4-0.2-1.1-0.1-1.4,0.1l-2.4,1.5C180.3,444.2,180.3,444.5,180.7,444.7z M185.3,441.8l2.8,1.1c0.4,0.2,1.1,0.1,1.4-0.1
							l2.4-1.5c0.4-0.2,0.3-0.5-0.1-0.7l-2.8-1.1c-0.4-0.2-1.1-0.1-1.4,0.1l-2.4,1.5C184.9,441.3,184.9,441.7,185.3,441.8z
							 M189.9,439l2.8,1.1c0.4,0.2,1.1,0.1,1.5-0.1l4.3-2.7c0.4-0.2,0.3-0.6-0.1-0.7l-2.8-1.1c-0.4-0.2-1.1-0.1-1.5,0.1l-4.3,2.7
							C189.4,438.5,189.5,438.8,189.9,439z M144.5,472.3l2.8,1.1c0.4,0.2,1.1,0.1,1.4-0.1l2.4-1.5c0.4-0.2,0.3-0.5-0.1-0.7l-2.8-1.1
							c-0.4-0.2-1.1-0.1-1.4,0.1l-2.4,1.5C144.1,471.8,144.1,472.1,144.5,472.3z M149.1,469.4l2.8,1.1c0.4,0.2,1.1,0.1,1.4-0.1
							l2.4-1.5c0.4-0.2,0.3-0.5-0.1-0.7l-2.8-1.1c-0.4-0.2-1.1-0.1-1.4,0.1l-2.4,1.5C148.6,468.9,148.7,469.3,149.1,469.4z
							 M153.7,466.6l2.8,1.1c0.4,0.2,1.1,0.1,1.4-0.1l2.4-1.5c0.4-0.2,0.3-0.5-0.1-0.7l-2.8-1.1c-0.4-0.2-1.1-0.1-1.4,0.1l-2.4,1.5
							C153.2,466.1,153.3,466.4,153.7,466.6z M158.3,463.8l2.8,1.1c0.4,0.2,1.1,0.1,1.4-0.1l2.4-1.5c0.4-0.2,0.3-0.6-0.1-0.7
							l-2.8-1.1c-0.4-0.2-1.1-0.1-1.4,0.1l-2.4,1.5C157.8,463.3,157.9,463.6,158.3,463.8z M162.9,460.9l2.8,1.1
							c0.4,0.2,1.1,0.1,1.4-0.1l2.4-1.5c0.4-0.2,0.3-0.5-0.1-0.7l-2.8-1.1c-0.4-0.2-1.1-0.1-1.4,0.1l-2.4,1.5
							C162.4,460.4,162.4,460.8,162.9,460.9z M167.5,458.1l2.8,1.1c0.4,0.2,1.1,0.1,1.4-0.1l2.4-1.5c0.4-0.2,0.3-0.5-0.1-0.7
							l-2.8-1.1c-0.4-0.2-1.1-0.1-1.4,0.1l-2.4,1.5C167,457.6,167,457.9,167.5,458.1z M172,455.3l2.8,1.1c0.4,0.2,1.1,0.1,1.4-0.1
							l2.4-1.5c0.4-0.2,0.3-0.5-0.1-0.7l-2.8-1.1c-0.4-0.2-1.1-0.1-1.4,0.1l-2.4,1.5C171.6,454.8,171.6,455.1,172,455.3z
							 M176.6,452.4l2.8,1.1c0.4,0.2,1.1,0.1,1.4-0.1l2.4-1.5c0.4-0.2,0.3-0.5-0.1-0.7l-2.8-1.1c-0.4-0.2-1.1-0.1-1.4,0.1l-2.4,1.5
							C176.2,451.9,176.2,452.3,176.6,452.4z M181.2,449.6l2.8,1.1c0.4,0.2,1.1,0.1,1.4-0.1l2.4-1.5c0.4-0.2,0.3-0.5-0.1-0.7
							l-2.8-1.1c-0.4-0.2-1.1-0.1-1.4,0.1l-2.4,1.5C180.7,449.1,180.8,449.4,181.2,449.6z M185.8,446.8l2.8,1.1
							c0.4,0.2,1.1,0.1,1.4-0.1l2.4-1.5c0.4-0.2,0.3-0.5-0.1-0.7l-2.8-1.1c-0.4-0.2-1.1-0.1-1.4,0.1l-2.4,1.5
							C185.3,446.3,185.4,446.6,185.8,446.8z M190.4,443.9l2.8,1.1c0.4,0.2,1.1,0.1,1.5-0.1l4.3-2.7c0.4-0.2,0.3-0.6-0.1-0.7
							l-2.8-1.1c-0.4-0.2-1.1-0.1-1.5,0.1l-4.3,2.7C189.9,443.4,190,443.8,190.4,443.9z M197.1,439.7l2.9,1.2c0.4,0.2,1,0.1,1.4-0.1
							l2.3-1.4c0.3-0.2,0.3-0.5-0.1-0.7l-2.9-1.2c-0.4-0.2-1-0.1-1.4,0.1L197,439C196.7,439.2,196.7,439.5,197.1,439.7z"/>
						<path class="st5" d="M181,423l2.5-1.5c0.3-0.2,0.8-0.2,1.1-0.1l2.2,0.9c0.3,0.1,0.4,0.4,0.1,0.6l-2.5,1.5
							c-0.3,0.2-0.8,0.2-1.1,0.1l-2.2-0.9C180.8,423.4,180.7,423.1,181,423z M185.3,425.2l2.9,1.2c0.4,0.2,1,0.1,1.4-0.1l2.3-1.4
							c0.3-0.2,0.3-0.5-0.1-0.7l-2.9-1.2c-0.4-0.2-1-0.1-1.4,0.1l-2.3,1.4C184.9,424.7,184.9,425.1,185.3,425.2z M190.5,427.3
							l2.9,1.2c0.4,0.2,1,0.1,1.4-0.1l2.3-1.4c0.3-0.2,0.3-0.5-0.1-0.7l-2.9-1.2c-0.4-0.2-1-0.1-1.4,0.1l-2.3,1.4
							C190,426.8,190.1,427.1,190.5,427.3z M195.6,429.3l2.9,1.2c0.4,0.2,1,0.1,1.4-0.1l2.3-1.4c0.3-0.2,0.3-0.5-0.1-0.7l-2.9-1.2
							c-0.4-0.2-1-0.1-1.4,0.1l-2.3,1.4C195.2,428.8,195.2,429.2,195.6,429.3z M200.7,431.4l2.9,1.2c0.4,0.2,1,0.1,1.4-0.1l2.3-1.4
							c0.3-0.2,0.3-0.5-0.1-0.7l-2.9-1.2c-0.4-0.2-1-0.1-1.4,0.1l-2.3,1.4C200.3,430.9,200.3,431.2,200.7,431.4z M205.9,433.4
							l2.9,1.2c0.4,0.2,1,0.1,1.4-0.1l2.3-1.4c0.3-0.2,0.3-0.5-0.1-0.7l-2.9-1.2c-0.4-0.2-1-0.1-1.4,0.1l-2.3,1.4
							C205.4,432.9,205.5,433.2,205.9,433.4z M176.7,426.3l2.2,0.9c0.3,0.1,0.8,0.1,1.1-0.1l2.5-1.5c0.3-0.2,0.2-0.4-0.1-0.6
							l-2.2-0.9c-0.3-0.1-0.8-0.1-1.1,0.1l-2.5,1.5C176.3,425.9,176.3,426.1,176.7,426.3z M176.9,430.5l2.8,1.1
							c0.4,0.2,1.1,0.1,1.5-0.1l6.3-3.9c0.4-0.2,0.3-0.6-0.1-0.7l-2.8-1.1c-0.4-0.2-1.1-0.1-1.5,0.1l-6.3,3.9
							C176.4,430,176.4,430.3,176.9,430.5z M184.9,430.8l2.8,1.1c0.4,0.2,1.1,0.1,1.5-0.1l3.4-2.1c0.4-0.2,0.3-0.6-0.1-0.7l-2.8-1.1
							c-0.4-0.2-1.1-0.1-1.5,0.1l-3.4,2.1C184.4,430.3,184.5,430.6,184.9,430.8z M186.7,434.9l2.8,1.1c0.4,0.2,1.1,0.1,1.5-0.1
							l6.8-4.2c0.4-0.2,0.3-0.6-0.1-0.7l-2.8-1.1c-0.4-0.2-1.1-0.1-1.5,0.1l-6.8,4.2C186.2,434.4,186.2,434.7,186.7,434.9z
							 M196.3,434.1l2.9,1.2c0.4,0.2,1,0.1,1.4-0.1l2.3-1.4c0.3-0.2,0.3-0.5-0.1-0.7l-2.9-1.2c-0.4-0.2-1-0.1-1.4,0.1l-2.3,1.4
							C195.9,433.6,195.9,433.9,196.3,434.1z M201.5,436.1l2.9,1.2c0.4,0.2,1,0.1,1.4-0.1l2.3-1.4c0.3-0.2,0.3-0.5-0.1-0.7l-3-1.1
							c-0.4-0.2-1-0.1-1.4,0.1l-2.3,1.4C201,435.7,201.1,436,201.5,436.1z M172.6,428.8l2.2,0.9c0.3,0.1,0.8,0.1,1.1-0.1l2.2-1.3
							c0.3-0.2,0.2-0.4-0.1-0.6l-2.2-0.9c-0.3-0.1-0.8-0.1-1.1,0.1l-2.2,1.3C172.2,428.4,172.2,428.6,172.6,428.8z M168.4,431.3
							l2.2,0.9c0.3,0.1,0.8,0.1,1.1-0.1l2.2-1.3c0.3-0.2,0.2-0.4-0.1-0.6l-2.2-0.9c-0.3-0.1-0.8-0.1-1.1,0.1l-2.2,1.3
							C168.1,431,168.1,431.2,168.4,431.3z M164.3,433.9l2.2,0.9c0.3,0.1,0.8,0.1,1.1-0.1l2.2-1.3c0.3-0.2,0.2-0.4-0.1-0.6l-2.2-0.9
							c-0.3-0.1-0.8-0.1-1.1,0.1l-2.2,1.3C163.9,433.5,163.9,433.8,164.3,433.9z M160.1,436.5l2.2,0.9c0.3,0.1,0.8,0.1,1.1-0.1
							l2.2-1.3c0.3-0.2,0.2-0.4-0.1-0.6l-2.2-0.9c-0.3-0.1-0.8-0.1-1.1,0.1l-2.2,1.3C159.8,436.1,159.8,436.3,160.1,436.5z M156,439
							l2.2,0.9c0.3,0.1,0.8,0.1,1.1-0.1l2.2-1.3c0.3-0.2,0.2-0.4-0.1-0.6l-2.2-0.9c-0.3-0.1-0.8-0.1-1.1,0.1l-2.2,1.3
							C155.6,438.7,155.6,438.9,156,439z M151.8,441.6l2.2,0.9c0.3,0.1,0.8,0.1,1.1-0.1l2.2-1.3c0.3-0.2,0.2-0.4-0.1-0.6l-2.2-0.9
							c-0.3-0.1-0.8-0.1-1.1,0.1l-2.2,1.3C151.5,441.2,151.5,441.5,151.8,441.6z M147.7,444.2l2.2,0.9c0.3,0.1,0.8,0.1,1.1-0.1
							l2.2-1.3c0.3-0.2,0.2-0.4-0.1-0.6l-2.2-0.9c-0.3-0.1-0.8-0.1-1.1,0.1l-2.2,1.3C147.3,443.8,147.3,444,147.7,444.2z
							 M143.5,446.7l2.2,0.9c0.3,0.1,0.8,0.1,1.1-0.1l2.2-1.3c0.3-0.2,0.2-0.4-0.1-0.6l-2.2-0.9c-0.3-0.1-0.8-0.1-1.1,0.1l-2.2,1.3
							C143.2,446.3,143.2,446.6,143.5,446.7z M139.4,449.3l2.2,0.9c0.3,0.1,0.8,0.1,1.1-0.1l2.2-1.3c0.3-0.2,0.2-0.4-0.1-0.6
							l-2.2-0.9c-0.3-0.1-0.8-0.1-1.1,0.1l-2.2,1.3C139,448.9,139,449.2,139.4,449.3z M135.2,451.9l2.2,0.9c0.3,0.1,0.8,0.1,1.1-0.1
							l2.2-1.3c0.3-0.2,0.2-0.4-0.1-0.6l-2.2-0.9c-0.3-0.1-0.8-0.1-1.1,0.1l-2.2,1.3C134.9,451.5,134.9,451.7,135.2,451.9z
							 M131.1,454.4l2.2,0.9c0.3,0.1,0.8,0.1,1.1-0.1l2.2-1.3c0.3-0.2,0.2-0.4-0.1-0.6l-2.2-0.9c-0.3-0.1-0.8-0.1-1.1,0.1l-2.2,1.3
							C130.7,454,130.7,454.3,131.1,454.4z M126.9,457l2.2,0.9c0.3,0.1,0.8,0.1,1.1-0.1l2.2-1.3c0.3-0.2,0.2-0.4-0.1-0.6l-2.2-0.9
							c-0.3-0.1-0.8-0.1-1.1,0.1l-2.2,1.3C126.6,456.6,126.6,456.9,126.9,457z M122.8,459.6l2.2,0.9c0.3,0.1,0.8,0.1,1.1-0.1
							l2.2-1.3c0.3-0.2,0.2-0.4-0.1-0.6l-2.2-0.9c-0.3-0.1-0.8-0.1-1.1,0.1l-2.2,1.3C122.4,459.2,122.5,459.4,122.8,459.6z
							 M118.6,462.1l2.2,0.9c0.3,0.1,0.8,0.1,1.1-0.1l2.2-1.3c0.3-0.2,0.2-0.4-0.1-0.6l-2.2-0.9c-0.3-0.1-0.8-0.1-1.1,0.1l-2.2,1.3
							C118.3,461.7,118.3,462,118.6,462.1z M114,465l2.2,0.9c0.3,0.1,0.8,0.1,1.1-0.1l2.5-1.5c0.3-0.2,0.2-0.4-0.1-0.6l-2.2-0.9
							c-0.3-0.1-0.8-0.1-1.1,0.1l-2.5,1.5C113.6,464.6,113.6,464.9,114,465z M172.4,433.2l2.9,1.2c0.4,0.2,1,0.1,1.3-0.1l2.2-1.4
							c0.3-0.2,0.3-0.5-0.1-0.7l-2.9-1.2c-0.4-0.2-1-0.1-1.3,0.1l-2.2,1.4C171.9,432.7,172,433,172.4,433.2z M167.9,436l2.9,1.2
							c0.4,0.2,1,0.1,1.3-0.1l2.2-1.4c0.3-0.2,0.3-0.5-0.1-0.7l-2.9-1.2c-0.4-0.2-1-0.1-1.3,0.1l-2.2,1.4
							C167.4,435.5,167.5,435.8,167.9,436z M163.4,438.8l2.9,1.2c0.4,0.2,1,0.1,1.3-0.1l2.2-1.4c0.3-0.2,0.3-0.5-0.1-0.7l-2.9-1.2
							c-0.4-0.2-1-0.1-1.3,0.1l-2.2,1.4C162.9,438.3,163,438.6,163.4,438.8z M158.9,441.5l2.9,1.2c0.4,0.2,1,0.1,1.3-0.1l2.2-1.4
							c0.3-0.2,0.3-0.5-0.1-0.7l-2.9-1.2c-0.4-0.2-1-0.1-1.3,0.1l-2.2,1.4C158.4,441.1,158.5,441.4,158.9,441.5z M154.4,444.3
							l2.9,1.2c0.4,0.2,1,0.1,1.3-0.1l2.2-1.4c0.3-0.2,0.3-0.5-0.1-0.7l-2.9-1.2c-0.4-0.2-1-0.1-1.3,0.1l-2.2,1.4
							C153.9,443.9,154,444.2,154.4,444.3z M149.9,447.1l2.9,1.2c0.4,0.2,1,0.1,1.3-0.1l2.2-1.4c0.3-0.2,0.3-0.5-0.1-0.7l-2.9-1.2
							c-0.4-0.2-1-0.1-1.3,0.1l-2.2,1.4C149.4,446.6,149.5,447,149.9,447.1z M145.4,449.9l2.9,1.2c0.4,0.2,1,0.1,1.3-0.1l2.2-1.4
							c0.3-0.2,0.3-0.5-0.1-0.7l-2.9-1.2c-0.4-0.2-1-0.1-1.3,0.1l-2.2,1.4C144.9,449.4,145,449.7,145.4,449.9z M140.9,452.7l2.9,1.2
							c0.4,0.2,1,0.1,1.3-0.1l2.2-1.4c0.3-0.2,0.3-0.5-0.1-0.7l-2.9-1.2c-0.4-0.2-1-0.1-1.3,0.1l-2.2,1.4
							C140.4,452.2,140.5,452.5,140.9,452.7z M136.4,455.5l2.9,1.2c0.4,0.2,1,0.1,1.3-0.1l2.2-1.4c0.3-0.2,0.3-0.5-0.1-0.7l-2.9-1.2
							c-0.4-0.2-1-0.1-1.3,0.1l-2.2,1.4C135.9,455,136,455.3,136.4,455.5z M131.9,458.2l2.9,1.2c0.4,0.2,1,0.1,1.3-0.1l2.2-1.4
							c0.3-0.2,0.3-0.5-0.1-0.7l-2.9-1.2c-0.4-0.2-1-0.1-1.3,0.1l-2.2,1.4C131.4,457.8,131.5,458.1,131.9,458.2z M127.4,461l2.9,1.2
							c0.4,0.2,1,0.1,1.3-0.1l2.2-1.4c0.3-0.2,0.3-0.5-0.1-0.7l-2.9-1.2c-0.4-0.2-1-0.1-1.3,0.1l-2.2,1.4
							C126.9,460.6,127,460.9,127.4,461z M122.9,463.8l2.9,1.2c0.4,0.2,1,0.1,1.3-0.1l2.2-1.4c0.3-0.2,0.3-0.5-0.1-0.7l-2.9-1.2
							c-0.4-0.2-1-0.1-1.3,0.1l-2.2,1.4C122.4,463.3,122.5,463.6,122.9,463.8z M118.2,466.7l2.9,1.2c0.4,0.2,1,0.1,1.4-0.1l2.3-1.4
							c0.3-0.2,0.3-0.5-0.1-0.7l-2.9-1.2c-0.4-0.2-1-0.1-1.4,0.1l-2.3,1.4C117.8,466.2,117.8,466.5,118.2,466.7z M123.4,468.8
							l2.8,1.1c0.4,0.2,1.1,0.1,1.5-0.1l4.7-2.9c0.4-0.2,0.3-0.6-0.1-0.7l-2.8-1.1c-0.4-0.2-1.1-0.1-1.5,0.1l-4.7,2.9
							C122.9,468.3,123,468.6,123.4,468.8z M128.5,470.8l2.8,1.1c0.4,0.2,1.1,0.1,1.5-0.1l5.6-3.4c0.4-0.2,0.3-0.6-0.1-0.7l-2.8-1.1
							c-0.4-0.2-1.1-0.1-1.5,0.1l-5.6,3.4C128.1,470.3,128.1,470.6,128.5,470.8z M133.7,472.9l2.8,1.1c0.4,0.2,1.1,0.1,1.5-0.1
							l8-4.9c0.4-0.2,0.3-0.6-0.1-0.7l-2.8-1.1c-0.4-0.2-1.1-0.1-1.5,0.1l-8,4.9C133.2,472.4,133.3,472.7,133.7,472.9z M138.8,474.9
							l2.8,1.1c0.4,0.2,1.1,0.1,1.5-0.1l3.3-2c0.4-0.2,0.3-0.6-0.1-0.7l-2.8-1.1c-0.4-0.2-1.1-0.1-1.5,0.1l-3.3,2
							C138.3,474.4,138.4,474.7,138.8,474.9z M130,464.7l2.8,1.1c0.4,0.2,1.1,0.1,1.4-0.1l2.4-1.5c0.4-0.2,0.3-0.5-0.1-0.7l-2.8-1.1
							c-0.4-0.2-1.1-0.1-1.4,0.1l-2.4,1.5C129.5,464.2,129.6,464.5,130,464.7z M134.6,461.8l2.8,1.1c0.4,0.2,1.1,0.1,1.4-0.1
							l2.4-1.5c0.4-0.2,0.3-0.5-0.1-0.7l-2.8-1.1c-0.4-0.2-1.1-0.1-1.4,0.1l-2.4,1.5C134.1,461.4,134.1,461.7,134.6,461.8z
							 M139.2,459l2.8,1.1c0.4,0.2,1.1,0.1,1.4-0.1l2.4-1.5c0.4-0.2,0.3-0.5-0.1-0.7l-2.8-1.1c-0.4-0.2-1.1-0.1-1.4,0.1l-2.4,1.5
							C138.7,458.5,138.7,458.8,139.2,459z M143.7,456.2l2.8,1.1c0.4,0.2,1.1,0.1,1.4-0.1l2.4-1.5c0.4-0.2,0.3-0.5-0.1-0.7l-2.8-1.1
							c-0.4-0.2-1.1-0.1-1.4,0.1l-2.4,1.5C143.3,455.7,143.3,456,143.7,456.2z M148.3,453.3l2.8,1.1c0.4,0.2,1.1,0.1,1.4-0.1
							l2.4-1.5c0.4-0.2,0.3-0.5-0.1-0.7L152,451c-0.4-0.2-1.1-0.1-1.4,0.1l-2.4,1.5C147.9,452.8,147.9,453.2,148.3,453.3z
							 M152.9,450.5l2.8,1.1c0.4,0.2,1.1,0.1,1.4-0.1l2.4-1.5c0.4-0.2,0.3-0.5-0.1-0.7l-2.8-1.1c-0.4-0.2-1.1-0.1-1.4,0.1l-2.4,1.5
							C152.4,450,152.5,450.3,152.9,450.5z M157.5,447.7l2.8,1.1c0.4,0.2,1.1,0.1,1.4-0.1l2.4-1.5c0.4-0.2,0.3-0.5-0.1-0.7l-2.8-1.1
							c-0.4-0.2-1.1-0.1-1.4,0.1l-2.4,1.5C157,447.2,157.1,447.5,157.5,447.7z M162.1,444.8l2.8,1.1c0.4,0.2,1.1,0.1,1.4-0.1
							l2.4-1.5c0.4-0.2,0.3-0.5-0.1-0.7l-2.8-1.1c-0.4-0.2-1.1-0.1-1.4,0.1l-2.4,1.5C161.6,444.3,161.7,444.7,162.1,444.8z
							 M166.7,442l2.8,1.1c0.4,0.2,1.1,0.1,1.4-0.1l2.4-1.5c0.4-0.2,0.3-0.5-0.1-0.7l-2.8-1.1c-0.4-0.2-1.1-0.1-1.4,0.1l-2.4,1.5
							C166.2,441.5,166.2,441.8,166.7,442z M171.3,439.2l2.8,1.1c0.4,0.2,1.1,0.1,1.4-0.1l2.4-1.5c0.4-0.2,0.3-0.5-0.1-0.7l-2.8-1.1
							c-0.4-0.2-1.1-0.1-1.4,0.1l-2.4,1.5C170.8,438.7,170.8,439,171.3,439.2z M175.8,436.3l2.8,1.1c0.4,0.2,1.1,0.1,1.4-0.1
							l2.4-1.5c0.4-0.2,0.3-0.5-0.1-0.7l-2.8-1.1c-0.4-0.2-1.1-0.1-1.4,0.1l-2.4,1.5C175.4,435.8,175.4,436.2,175.8,436.3z
							 M180.4,433.5l2.8,1.1c0.4,0.2,1.1,0.1,1.4-0.1l2.4-1.5c0.4-0.2,0.3-0.5-0.1-0.7l-2.8-1.1c-0.4-0.2-1.1-0.1-1.4,0.1l-2.4,1.5
							C180,433,180,433.3,180.4,433.5z M136.4,465.9l2.8,1.1c0.4,0.2,1.1,0.1,1.4-0.1l2.4-1.5c0.4-0.2,0.3-0.5-0.1-0.7l-2.8-1.1
							c-0.4-0.2-1.1-0.1-1.4,0.1l-2.4,1.5C135.9,465.4,136,465.8,136.4,465.9z M141,463.1l2.8,1.1c0.4,0.2,1.1,0.1,1.4-0.1l2.4-1.5
							c0.4-0.2,0.3-0.5-0.1-0.7l-2.8-1.1c-0.4-0.2-1.1-0.1-1.4,0.1l-2.4,1.5C140.5,462.6,140.6,462.9,141,463.1z M145.6,460.3
							l2.8,1.1c0.4,0.2,1.1,0.1,1.4-0.1l2.4-1.5c0.4-0.2,0.3-0.5-0.1-0.7l-2.8-1.1c-0.4-0.2-1.1-0.1-1.4,0.1l-2.4,1.5
							C145.1,459.8,145.1,460.1,145.6,460.3z M150.2,457.4l2.8,1.1c0.4,0.2,1.1,0.1,1.4-0.1l2.4-1.5c0.4-0.2,0.3-0.5-0.1-0.7
							l-2.8-1.1c-0.4-0.2-1.1-0.1-1.4,0.1l-2.4,1.5C149.7,456.9,149.7,457.3,150.2,457.4z M154.7,454.6l2.8,1.1
							c0.4,0.2,1.1,0.1,1.4-0.1l2.4-1.5c0.4-0.2,0.3-0.5-0.1-0.7l-2.8-1.1c-0.4-0.2-1.1-0.1-1.4,0.1l-2.4,1.5
							C154.3,454.1,154.3,454.4,154.7,454.6z M159.3,451.8l2.8,1.1c0.4,0.2,1.1,0.1,1.4-0.1l2.4-1.5c0.4-0.2,0.3-0.5-0.1-0.7
							l-2.8-1.1c-0.4-0.2-1.1-0.1-1.4,0.1l-2.4,1.5C158.9,451.3,158.9,451.6,159.3,451.8z M163.9,448.9l2.8,1.1
							c0.4,0.2,1.1,0.1,1.4-0.1l2.4-1.5c0.4-0.2,0.3-0.5-0.1-0.7l-2.8-1.1c-0.4-0.2-1.1-0.1-1.4,0.1l-2.4,1.5
							C163.4,448.4,163.5,448.8,163.9,448.9z M168.5,446.1l2.8,1.1c0.4,0.2,1.1,0.1,1.4-0.1l2.4-1.5c0.4-0.2,0.3-0.5-0.1-0.7
							l-2.8-1.1c-0.4-0.2-1.1-0.1-1.4,0.1l-2.4,1.5C168,445.6,168.1,445.9,168.5,446.1z M173.1,443.3l2.8,1.1
							c0.4,0.2,1.1,0.1,1.4-0.1l2.4-1.5c0.4-0.2,0.3-0.5-0.1-0.7l-2.8-1.1c-0.4-0.2-1.1-0.1-1.4,0.1l-2.4,1.5
							C172.6,442.8,172.7,443.1,173.1,443.3z M177.7,440.4l2.8,1.1c0.4,0.2,1.1,0.1,1.4-0.1l2.4-1.5c0.4-0.2,0.3-0.5-0.1-0.7
							l-2.8-1.1c-0.4-0.2-1.1-0.1-1.4,0.1l-2.4,1.5C177.2,439.9,177.3,440.3,177.7,440.4z M182.3,437.6l2.8,1.1
							c0.4,0.2,1.1,0.1,1.4-0.1l2.4-1.5c0.4-0.2,0.3-0.5-0.1-0.7l-2.8-1.1c-0.4-0.2-1.1-0.1-1.4,0.1l-2.4,1.5
							C181.8,437.1,181.8,437.4,182.3,437.6z M143.9,466.5l2.8,1.1c0.4,0.2,1.1,0.1,1.4-0.1l2.4-1.5c0.4-0.2,0.3-0.5-0.1-0.7
							l-2.8-1.1c-0.4-0.2-1.1-0.1-1.4,0.1l-2.4,1.5C143.5,466,143.5,466.3,143.9,466.5z M148.5,463.7l2.8,1.1
							c0.4,0.2,1.1,0.1,1.4-0.1l2.4-1.5c0.4-0.2,0.3-0.5-0.1-0.7l-2.8-1.1c-0.4-0.2-1.1-0.1-1.4,0.1l-2.4,1.5
							C148.1,463.2,148.1,463.5,148.5,463.7z M153.1,460.8l2.8,1.1c0.4,0.2,1.1,0.1,1.4-0.1l2.4-1.5c0.4-0.2,0.3-0.5-0.1-0.7
							l-2.8-1.1c-0.4-0.2-1.1-0.1-1.4,0.1l-2.4,1.5C152.6,460.3,152.7,460.7,153.1,460.8z M157.7,458l2.8,1.1
							c0.4,0.2,1.1,0.1,1.4-0.1l2.4-1.5c0.4-0.2,0.3-0.5-0.1-0.7l-2.8-1.1c-0.4-0.2-1.1-0.1-1.4,0.1l-2.4,1.5
							C157.2,457.5,157.3,457.8,157.7,458z M162.3,455.2l2.8,1.1c0.4,0.2,1.1,0.1,1.4-0.1l2.4-1.5c0.4-0.2,0.3-0.5-0.1-0.7l-2.8-1.1
							c-0.4-0.2-1.1-0.1-1.4,0.1l-2.4,1.5C161.8,454.7,161.9,455,162.3,455.2z M166.9,452.3l2.8,1.1c0.4,0.2,1.1,0.1,1.4-0.1
							l2.4-1.5c0.4-0.2,0.3-0.5-0.1-0.7l-2.8-1.1c-0.4-0.2-1.1-0.1-1.4,0.1l-2.4,1.5C166.4,451.8,166.4,452.2,166.9,452.3z
							 M171.5,449.5l2.8,1.1c0.4,0.2,1.1,0.1,1.4-0.1l2.4-1.5c0.4-0.2,0.3-0.5-0.1-0.7l-2.8-1.1c-0.4-0.2-1.1-0.1-1.4,0.1l-2.4,1.5
							C171,449,171,449.3,171.5,449.5z M176,446.7l2.8,1.1c0.4,0.2,1.1,0.1,1.4-0.1l2.4-1.5c0.4-0.2,0.3-0.5-0.1-0.7l-2.8-1.1
							c-0.4-0.2-1.1-0.1-1.4,0.1l-2.4,1.5C175.6,446.2,175.6,446.5,176,446.7z M180.6,443.8l2.8,1.1c0.4,0.2,1.1,0.1,1.4-0.1
							l2.4-1.5c0.4-0.2,0.3-0.5-0.1-0.7l-2.8-1.1c-0.4-0.2-1.1-0.1-1.4,0.1l-2.4,1.5C180.2,443.3,180.2,443.7,180.6,443.8z
							 M185.2,441l2.8,1.1c0.4,0.2,1.1,0.1,1.4-0.1l2.4-1.5c0.4-0.2,0.3-0.5-0.1-0.7l-2.8-1.1c-0.4-0.2-1.1-0.1-1.4,0.1l-2.4,1.5
							C184.7,440.5,184.8,440.8,185.2,441z M189.8,438.2l2.8,1.1c0.4,0.2,1.1,0.1,1.5-0.1l4.3-2.7c0.4-0.2,0.3-0.6-0.1-0.7l-2.8-1.1
							c-0.4-0.2-1.1-0.1-1.5,0.1l-4.3,2.7C189.3,437.7,189.4,438,189.8,438.2z M144.4,471.4l2.8,1.1c0.4,0.2,1.1,0.1,1.4-0.1
							l2.4-1.5c0.4-0.2,0.3-0.5-0.1-0.7l-2.8-1.1c-0.4-0.2-1.1-0.1-1.4,0.1l-2.4,1.5C143.9,470.9,144,471.3,144.4,471.4z M149,468.6
							l2.8,1.1c0.4,0.2,1.1,0.1,1.4-0.1l2.4-1.5c0.4-0.2,0.3-0.5-0.1-0.7l-2.8-1.1c-0.4-0.2-1.1-0.1-1.4,0.1l-2.4,1.5
							C148.5,468.1,148.6,468.4,149,468.6z M153.6,465.8l2.8,1.1c0.4,0.2,1.1,0.1,1.4-0.1l2.4-1.5c0.4-0.2,0.3-0.5-0.1-0.7l-2.8-1.1
							c-0.4-0.2-1.1-0.1-1.4,0.1l-2.4,1.5C153.1,465.3,153.2,465.6,153.6,465.8z M158.2,462.9l2.8,1.1c0.4,0.2,1.1,0.1,1.4-0.1
							l2.4-1.5c0.4-0.2,0.3-0.5-0.1-0.7l-2.8-1.1c-0.4-0.2-1.1-0.1-1.4,0.1l-2.4,1.5C157.7,462.4,157.8,462.8,158.2,462.9z
							 M162.8,460.1l2.8,1.1c0.4,0.2,1.1,0.1,1.4-0.1l2.4-1.5c0.4-0.2,0.3-0.5-0.1-0.7l-2.8-1.1c-0.4-0.2-1.1-0.1-1.4,0.1l-2.4,1.5
							C162.3,459.6,162.3,459.9,162.8,460.1z M167.3,457.3l2.8,1.1c0.4,0.2,1.1,0.1,1.4-0.1l2.4-1.5c0.4-0.2,0.3-0.5-0.1-0.7
							L171,455c-0.4-0.2-1.1-0.1-1.4,0.1l-2.4,1.5C166.9,456.8,166.9,457.1,167.3,457.3z M171.9,454.4l2.8,1.1
							c0.4,0.2,1.1,0.1,1.4-0.1l2.4-1.5c0.4-0.2,0.3-0.5-0.1-0.7l-2.8-1.1c-0.4-0.2-1.1-0.1-1.4,0.1l-2.4,1.5
							C171.5,453.9,171.5,454.3,171.9,454.4z M176.5,451.6l2.8,1.1c0.4,0.2,1.1,0.1,1.4-0.1l2.4-1.5c0.4-0.2,0.3-0.5-0.1-0.7
							l-2.8-1.1c-0.4-0.2-1.1-0.1-1.4,0.1l-2.4,1.5C176.1,451.1,176.1,451.4,176.5,451.6z M181.1,448.8l2.8,1.1
							c0.4,0.2,1.1,0.1,1.4-0.1l2.4-1.5c0.4-0.2,0.3-0.5-0.1-0.7l-2.8-1.1c-0.4-0.2-1.1-0.1-1.4,0.1L181,448
							C180.6,448.3,180.7,448.6,181.1,448.8z M185.7,445.9l2.8,1.1c0.4,0.2,1.1,0.1,1.4-0.1l2.4-1.5c0.4-0.2,0.3-0.5-0.1-0.7
							l-2.8-1.1c-0.4-0.2-1.1-0.1-1.4,0.1l-2.4,1.5C185.2,445.4,185.3,445.8,185.7,445.9z M190.3,443.1l2.8,1.1
							c0.4,0.2,1.1,0.1,1.5-0.1l4.3-2.7c0.4-0.2,0.3-0.6-0.1-0.7l-2.8-1.1c-0.4-0.2-1.1-0.1-1.5,0.1l-4.3,2.7
							C189.8,442.6,189.9,442.9,190.3,443.1z M197,438.9l2.9,1.2c0.4,0.2,1,0.1,1.4-0.1l2.3-1.4c0.3-0.2,0.3-0.5-0.1-0.7l-2.9-1.2
							c-0.4-0.2-1-0.1-1.4,0.1l-2.3,1.4C196.6,438.4,196.6,438.7,197,438.9z"/>
						<path class="st21" d="M169.2,463.6l23.8-14.7c0.4-0.2,1-0.3,1.4-0.1l13.3,5.3c0.4,0.2,0.5,0.5,0.1,0.7L184,469.5
							c-0.4,0.2-1,0.3-1.4,0.1l-13.3-5.3C168.8,464.1,168.8,463.8,169.2,463.6z M184.5,470.3l2.8,1.1c0.1,0,0.2,0,0.3,0l11.9-7.3
							c0.1,0,0.1-0.1,0-0.1l-2.8-1.1c-0.1,0-0.2,0-0.3,0L184.5,470.3C184.4,470.2,184.4,470.3,184.5,470.3z M197.5,462.3l2.8,1.1
							c0.1,0,0.2,0,0.3,0l11.9-7.3c0.1,0,0.1-0.1,0-0.1l-2.8-1.1c-0.1,0-0.2,0-0.3,0L197.5,462.3
							C197.4,462.2,197.4,462.2,197.5,462.3z"/>
					</g>
					<path class="st12" d="M181.8,414.2v-68.7c-0.2-1.5-1.3-2.1-2.4-1.4l-77.5,46.4c-1.1,0.7-1.9,2.4-1.7,3.9l0.2,69.9L181.8,414.2z
						"/>
					<polygon class="st22" points="103.7,457.8 103.7,393.8 177.9,349 177.9,411.8 					"/>
					<g>
						<polygon class="st5" points="173.4,368.9 124.8,399.4 124.8,392.1 173.4,361.6 						"/>
						<polygon class="st5" points="116.7,404.5 108.2,409.9 108.2,402.6 116.7,397.2 						"/>
						<polygon class="st5" points="173.4,374.6 108.2,414.7 108.2,412.7 173.4,372.6 						"/>
						<polygon class="st5" points="173.4,379.7 108.2,419.8 108.2,417.8 173.4,377.7 						"/>
						<polygon class="st5" points="173.4,384.8 108.2,424.9 108.2,422.9 173.4,382.7 						"/>
						<polygon class="st5" points="173.4,389.8 108.2,430 108.2,427.9 173.4,387.8 						"/>
						<polygon class="st5" points="173.4,394.9 108.2,435.1 108.2,433 173.4,392.9 						"/>
						<polygon class="st5" points="173.4,400 108.2,440.1 108.2,438.1 173.4,398 						"/>
					</g>
				</g>
			</g>
			<g id="pc__x2B__calculator__x2B__paper">
				<g>
					<g>
						<g>
							<g>
								<path class="st6" d="M462.4,432.6l36.4,13.3c0.9,0.3,1.7,1.5,1.7,2.6v0.7l-39.8-14.5V434
									C460.7,432.9,461.5,432.3,462.4,432.6z"/>
								<polyline class="st6" points="500.5,449.2 499.3,450 497.5,447.9 								"/>
								<path class="st6" d="M537.6,438.1v7.8c0,1.5-1.2,2.3-2.7,1.7l-104.1-37.9c-1.5-0.5-2.7-2.2-2.7-3.7v-7.8L537.6,438.1z"/>
								<polyline class="st6" points="536.7,447.7 533.3,450 529.7,445.8 								"/>
								<path class="st11" d="M428,398.2v-66.3c0-1.5,1.2-2.3,2.7-1.7L534.8,368c1.5,0.6,2.7,2.2,2.7,3.7V438L428,398.2z"/>
								<polyline class="st11" points="537.6,438 534.2,440.5 527.5,438 535.2,433.3 								"/>
								<polyline class="st11" points="428.7,330.3 425.5,332.6 430.5,334.3 432.4,332.4 								"/>
								<path class="st23" d="M492.1,430.7c1.2,5.2,2.3,10.3,3.5,15.5c-10.8-3.9-21.6-7.9-32.4-11.8c1.2-4.3,2.3-8.6,3.5-12.9
									C475.1,424.5,483.6,427.6,492.1,430.7z"/>
								<path class="st5" d="M461.2,433.4l36.4,13.3c0.9,0.3,1.7,1.5,1.7,2.6v0.7l-39.8-14.5v-0.7
									C459.5,433.7,460.2,433.1,461.2,433.4z"/>
								<path class="st5" d="M534.2,440.5v7.8c0,1.5-1.2,2.3-2.7,1.7l-104.1-37.9c-1.5-0.5-2.7-2.2-2.7-3.7v-7.8L534.2,440.5z"/>
								<path class="st12" d="M424.6,400.6v-66.3c0-1.5,1.2-2.3,2.7-1.7l104.1,37.9c1.5,0.6,2.7,2.2,2.7,3.7v66.3L424.6,400.6z"/>
								<polygon class="st22" points="529.7,434.3 529.7,374.1 429.1,337.5 429.1,397.7 								"/>
							</g>
						</g>
					</g>
					<polygon class="st24" points="495.5,445.9 497.8,445.6 496,437.1 493.4,436.2 					"/>
				</g>
				<g id="paper">
					<g>
						<g>
							<polygon class="st5" points="463.5,402 463.5,361.5 463.5,341.2 478.1,332 518.6,346.7 518.6,361.7 518.6,381.5 518.6,422 
															"/>
							<g>
								<polygon class="st25" points="478.1,346.5 463.5,341.2 478.1,332 								"/>
								<polygon class="st26" points="463.5,341.2 478.1,346.5 463.5,355.7 								"/>
							</g>
						</g>
					</g>
					<polygon class="st27" points="478.1,332 463.5,341.2 463.5,361.5 463.5,395.4 510.5,412.5 510.5,372.1 510.5,352.3 
						510.5,343.8 					"/>
					<g>
						<g>
							<polygon class="st5" points="453.3,388.5 453.3,348 453.3,327.7 467.8,318.5 508.4,333.2 508.4,348.2 508.4,368 508.4,408.5 
															"/>
							<g>
								<polygon class="st25" points="467.8,333 453.3,327.7 467.8,318.5 								"/>
								<polygon class="st26" points="453.3,327.7 467.8,333 453.3,342.2 								"/>
							</g>
						</g>
						<g>
							<path class="st28" d="M466.7,377.1v-9.5c-4.6-1.4-8.3,1.1-8.3,5.9c0,4.9,4,10.4,8.9,12.2c4.7,1.7,8.6-0.6,8.9-5.1
								L466.7,377.1z"/>
							<path class="st29" d="M475.7,378.2c0-3.7-3-7.8-6.7-9.1v6.7L475.7,378.2z"/>
						</g>
						<g>
							<path class="st22" d="M471,351.2c-0.2,0.5-0.5,0.9-0.8,1.2l2.9,5.1c1.5-0.7,2.5-2.1,2.9-3.9L471,351.2z"/>
							<path class="st29" d="M468,345c1.7,1,3,2.9,3.1,4.7l5,2.4c0-0.1,0-0.1,0-0.2c0-4.6-3.6-9.8-8.1-11.8V345z"/>
							<path class="st25" d="M464.3,344.8c0.6-0.4,1.3-0.6,2.1-0.5v-5c-2.6-0.7-4.9-0.2-6.4,1.3L464.3,344.8z"/>
							<path class="st28" d="M468.8,352.8c-0.5,0-1,0-1.6-0.2c-2.2-0.8-4-3.2-4-5.4c0-0.5,0.1-0.8,0.2-1.2l-4.3-4.1
								c-0.5,1-0.9,2.1-0.9,3.5c0,4.9,4,10.4,8.9,12.1c1.6,0.6,3.2,0.7,4.5,0.4L468.8,352.8z"/>
						</g>
						<g>
							<polygon class="st25" points="480.3,346.7 501.8,354.5 501.8,352.3 480.3,344.5 							"/>
							<polygon class="st22" points="480.3,353.6 501.8,361.4 501.8,359.2 480.3,351.4 							"/>
							<polygon class="st22" points="480.3,360.5 501.8,368.3 501.8,366.1 480.3,358.3 							"/>
						</g>
						<g>
							<polygon class="st25" points="480.3,374.8 495.3,380.3 495.3,378.1 480.3,372.6 							"/>
							<polygon class="st22" points="480.3,381.8 501.8,389.6 501.8,387.4 480.3,379.5 							"/>
							<polygon class="st22" points="480.3,388.7 501.8,396.5 501.8,394.3 480.3,386.5 							"/>
						</g>
					</g>
				</g>
				<g>
					<path class="st16" d="M438.2,411.1l-39.9-14.5v38.1c0,0.5,0.2,1,0.5,1.5c0.4,0.5,0.8,0.8,1.3,1l36.2,13.2
						c0.5,0.2,0.9,0.2,1.3-0.1c0.4-0.2,0.5-0.6,0.5-1.1L438.2,411.1z"/>
					<path class="st30" d="M438.2,395.2c0-0.5-0.2-1-0.5-1.5c-0.4-0.5-0.8-0.8-1.3-1l-36.2-13.2c-0.5-0.2-0.9-0.2-1.3,0.1
						c-0.4,0.2-0.5,0.6-0.5,1.1v15.9l39.9,14.5L438.2,395.2z"/>
					<polygon class="st30" points="399,379.4 395.8,380.3 398.4,381 					"/>
					<polyline class="st30" points="434.9,411.3 438.2,410.4 438.2,409.7 434.9,409.4 					"/>
					<polygon class="st16" points="434,451.3 437.5,450.4 434.9,449.5 					"/>
					<g id="calculator">
						<path class="st31" d="M434.9,412L395,397.5v38.1c0,0.5,0.2,1,0.5,1.5c0.4,0.5,0.8,0.8,1.3,1l36.2,13.2
							c0.5,0.2,0.9,0.2,1.3-0.1c0.4-0.2,0.5-0.6,0.5-1.1L434.9,412z"/>
						<polygon class="st32" points="400,399.3 434.9,412 434.9,445.5 						"/>
						<g>
							<g>
								<g>
									<path class="st33" d="M413,412.6c0,0.2-0.1,0.3-0.3,0.2l-13.3-4.8c-0.2-0.1-0.3-0.3-0.3-0.4v-4.3c0-0.2,0.1-0.3,0.3-0.2
										l13.3,4.8c0.2,0.1,0.3,0.3,0.3,0.4V412.6z"/>
								</g>
								<g>
									<path class="st34" d="M422,415.9c0,0.2-0.1,0.3-0.3,0.2l-4.3-1.6c-0.2-0.1-0.3-0.3-0.3-0.4v-4.3c0-0.2,0.1-0.3,0.3-0.2
										l4.3,1.6c0.2,0.1,0.3,0.3,0.3,0.4V415.9z"/>
								</g>
								<g>
									<g>
										<path class="st35" d="M431,419.2c0,0.2-0.1,0.3-0.3,0.2l-4.3-1.6c-0.2-0.1-0.3-0.3-0.3-0.4v-4.3c0-0.2,0.1-0.3,0.3-0.2
											l4.3,1.6c0.2,0.1,0.3,0.3,0.3,0.4V419.2z"/>
									</g>
								</g>
								<g>
									<g>
										<path class="st35" d="M403.9,418.4c0,0.2-0.1,0.3-0.3,0.2l-4.3-1.6c-0.2-0.1-0.3-0.3-0.3-0.4v-4.3c0-0.2,0.1-0.3,0.3-0.2
											l4.3,1.6c0.2,0.1,0.3,0.3,0.3,0.4V418.4z"/>
									</g>
								</g>
								<g>
									<g>
										<path class="st35" d="M413,421.6c0,0.2-0.1,0.3-0.3,0.2l-4.3-1.6c-0.2-0.1-0.3-0.3-0.3-0.4v-4.3c0-0.2,0.1-0.3,0.3-0.2
											l4.3,1.6c0.2,0.1,0.3,0.3,0.3,0.4V421.6z"/>
									</g>
								</g>
								<g>
									<g>
										<path class="st35" d="M422,424.9c0,0.2-0.1,0.3-0.3,0.2l-4.3-1.6c-0.2-0.1-0.3-0.3-0.3-0.4v-4.3c0-0.2,0.1-0.3,0.3-0.2
											l4.3,1.6c0.2,0.1,0.3,0.3,0.3,0.4V424.9z"/>
									</g>
								</g>
								<g>
									<g>
										<path class="st35" d="M431,428.2c0,0.2-0.1,0.3-0.3,0.2l-4.3-1.6c-0.2-0.1-0.3-0.3-0.3-0.4v-4.3c0-0.2,0.1-0.3,0.3-0.2
											l4.3,1.6c0.2,0.1,0.3,0.3,0.3,0.4V428.2z"/>
									</g>
								</g>
								<g>
									<g>
										<path class="st35" d="M403.9,427.4c0,0.2-0.1,0.3-0.3,0.2l-4.3-1.6c-0.2-0.1-0.3-0.3-0.3-0.4v-4.3c0-0.2,0.1-0.3,0.3-0.2
											l4.3,1.6c0.2,0.1,0.3,0.3,0.3,0.4V427.4z"/>
									</g>
								</g>
								<g>
									<g>
										<path class="st35" d="M413,430.7c0,0.2-0.1,0.3-0.3,0.2l-4.3-1.6c-0.2-0.1-0.3-0.3-0.3-0.4v-4.3c0-0.2,0.1-0.3,0.3-0.2
											l4.3,1.6c0.2,0.1,0.3,0.3,0.3,0.4V430.7z"/>
									</g>
								</g>
								<g>
									<path class="st36" d="M422,434c0,0.2-0.1,0.3-0.3,0.2l-4.3-1.6c-0.2-0.1-0.3-0.3-0.3-0.4v-4.3c0-0.2,0.1-0.3,0.3-0.2
										l4.3,1.6c0.2,0.1,0.3,0.3,0.3,0.4V434z"/>
								</g>
								<g>
									<g>
										<path class="st35" d="M403.9,436.4c0,0.2-0.1,0.3-0.3,0.2l-4.3-1.6c-0.2-0.1-0.3-0.3-0.3-0.4v-4.3c0-0.2,0.1-0.3,0.3-0.2
											l4.3,1.6c0.2,0.1,0.3,0.3,0.3,0.4V436.4z"/>
									</g>
								</g>
								<g>
									<g>
										<path class="st35" d="M413,439.7c0,0.2-0.1,0.3-0.3,0.2l-4.3-1.6c-0.2-0.1-0.3-0.3-0.3-0.4v-4.3c0-0.2,0.1-0.3,0.3-0.2
											l4.3,1.6c0.2,0.1,0.3,0.3,0.3,0.4V439.7z"/>
									</g>
								</g>
								<g>
									<g>
										<path class="st36" d="M422,443c0,0.2-0.1,0.3-0.3,0.2l-4.3-1.6c-0.2-0.1-0.3-0.3-0.3-0.4v-4.3c0-0.2,0.1-0.3,0.3-0.2
											l4.3,1.6c0.2,0.1,0.3,0.3,0.3,0.4V443z"/>
									</g>
								</g>
								<g>
									<path class="st36" d="M431,446.3c0,0.2-0.1,0.3-0.3,0.2l-4.3-1.6c-0.2-0.1-0.3-0.3-0.3-0.4v-4.3c0-0.2,0.1-0.3,0.3-0.2
										l4.3,1.6c0.2,0.1,0.3,0.3,0.3,0.4V446.3z"/>
								</g>
								<g>
									<path class="st36" d="M431,437.2c0,0.2-0.1,0.3-0.3,0.2l-4.3-1.6c-0.2-0.1-0.3-0.3-0.3-0.4v-4.3c0-0.2,0.1-0.3,0.3-0.2
										l4.3,1.6c0.2,0.1,0.3,0.3,0.3,0.4V437.2z"/>
								</g>
							</g>
						</g>
						<path class="st37" d="M434.9,396.1c0-0.5-0.2-1-0.5-1.5c-0.4-0.5-0.8-0.8-1.3-1l-36.2-13.2c-0.5-0.2-0.9-0.2-1.3,0.1
							c-0.4,0.2-0.5,0.6-0.5,1.1v15.9L435,412L434.9,396.1z"/>
						<path class="st38" d="M399.3,395.9c-0.3-0.1-0.6-0.3-0.8-0.6c-0.2-0.3-0.3-0.6-0.3-0.9v-9.2c0-0.3,0.1-0.5,0.3-0.7
							c0.2-0.1,0.5-0.1,0.8,0l31.4,11.4c0.3,0.1,0.6,0.3,0.8,0.6c0.2,0.3,0.3,0.6,0.3,0.9v9.2c0,0.3-0.1,0.5-0.3,0.7
							c-0.2,0.1-0.5,0.1-0.8,0L399.3,395.9z"/>
						<path class="st39" d="M399.3,385.3c-0.1,0-0.2,0-0.2,0c-0.1,0-0.1,0.1-0.1,0.2v9.2c0,0.1,0,0.2,0.1,0.3s0.1,0.1,0.2,0.2
							l31.4,11.4c0.1,0,0.2,0,0.2,0c0.1,0,0.1-0.1,0.1-0.2v-9.2c0-0.1,0-0.2-0.1-0.3s-0.1-0.1-0.2-0.2L399.3,385.3z"/>
						<polygon class="st38" points="434.9,412 394.9,397.5 394.9,396.7 434.9,411.2 						"/>
					</g>
					<polyline class="st38" points="434.9,412 438.2,411.1 438.2,410.4 434.9,411.3 					"/>
				</g>
			</g>
			<g id="tablet__x2B__table">
				<g>
					<g>
						<g>
							<g>
								<g>
									<path class="st40" d="M375.7,143.9v-73c0-1.7,1.3-2.5,3-1.9l99.8,36.6c1.7,0.6,3,2.4,3,4.1v73L375.7,143.9z"/>
									<polyline class="st40" points="481.5,182.7 477.8,185.4 470.4,182.7 478.9,177.5 									"/>
									<polyline class="st40" points="376.5,69.1 373,71.6 378.5,73.6 380.6,71.4 									"/>
									<path class="st41" d="M372,146.5v-73c0-1.7,1.3-2.5,3-1.9l99.8,36.6c1.7,0.6,3,2.4,3,4.1v73L372,146.5z"/>
									<polygon class="st13" points="472.8,178.6 472.8,112.2 376.9,77 376.9,143.4 									"/>
								</g>
							</g>
						</g>
					</g>
					<g>
						<g>
							<path class="st14" d="M447.4,116c-11.1-15.1-29.1-21.7-40.2-14.6c-3.3,2.1-5.7,5.3-7,9l0,0c0,0-0.3,0.7-0.5,1.6l0,0
								c-0.2,0.8-0.4,1.7-0.5,2.2s-0.1,1-0.1,1.4s-0.1,0.7-0.1,1.1c-0.1,0.1-0.1,0.2-0.1,0.2s0,0.1,0.1,0.1
								c-0.4,7.6,2.4,16.5,8.3,24.6c11.1,15.1,29.1,21.7,40.2,14.6C458.5,149.1,458.5,131.1,447.4,116z M402.4,109.3
								c0.1,0.1-0.3,0.4-0.5,0.5c0.1-0.3,0.2-0.5,0.4-0.8C402.3,109.1,402.4,109.2,402.4,109.3z M400.9,112.8c0,0.1,0,0.3-0.1,0.4
								l0,0C400.8,113,400.8,112.9,400.9,112.8z M400.8,119.7c0-0.1-0.4-0.4-0.7-0.5c0-0.2,0-0.4,0-0.5c0.3,0.4,0.7,0.6,0.7,0.6
								c0.1,0,0.3,0.4,0.3,0.6C401.2,120,400.8,119.9,400.8,119.7z M408.1,141c-0.7-0.9-1.3-1.8-1.9-2.8c0.2,0.1,0.4,0.2,0.5,0.3
								c0.2,0.2,0.6,0.2,0.7,0.2s-0.3-0.5-0.4-0.6s-0.1-0.3,0-0.2c0.1,0.1,0.7,0.4,0.9,0.5c0.2,0.1,1.1,1.1,1.4,1.3
								c0.3,0.2,1.5,0.1,1.8,0s1,0.1,1.2,0.2c0.1,0.1,0.6-0.1,0.7-0.1s0.6,0.2,0.7,0.3c0.1,0,0.4,0.2,0.4,0.3c0,0.1,0.7,0,1,0.1
								s0.4-0.1,0.4-0.2s0.4,0.3,0.6,0.4s0.5,0.5,0.5,0.6s0.5,0.8,0.5,1s0.6,1.3,0.8,1.5c0.2,0.2,0.7,0.5,0.9,0.5
								c0.1,0,0.3,0.2,0.2,0.3c-0.1,0.1,0.7,1,1,1.1c0.3,0,0.8,0.4,0.8,0.5s0.8,0.4,1,0.5c0.3,0.1,1.2,0.8,1.4,1
								c0.3,0.2,0.6,0.7,0.6,0.8c0.1,0.1,0.3,0.3,0.4,0.4s0.6,1,0.9,1.3s0.8,1.6,1.1,2.1c0.4,0.5,1.1,1.1,1.1,1s0.4,0.4,0.4,0.6
								c-0.1,0.1,0.1,0.6,0.2,0.6s0.3,0.4,0.5,0.6c0.1,0.1,0.9,1,1.2,1.3C421.6,154.3,413.9,148.9,408.1,141z M446.5,154.9
								c-4.3,2.7-9.7,3.3-15.2,2.1c-0.2-0.1-0.5-0.6-0.6-0.7c0-0.2,0-0.5,0-0.7c-0.1-0.1-0.4-0.7-0.6-0.7c-0.1,0-0.5-0.7-0.8-1
								s-0.1-0.9-0.2-1.1c-0.2-0.3,0.1-0.8,0.1-1s-0.4-1-0.6-1.1s0-0.4,0.1-0.5s0.1-0.2,0.2-0.3c0,0-0.1-0.4-0.1-0.5s-0.4-1-0.4-1.2
								s-0.2-0.7-0.3-0.9c-0.1-0.1-0.2-0.7-0.3-0.8c0-0.2,0.2-0.7,0.2-0.8c0-0.1-0.6-1.2-0.8-1.6c-0.2-0.4-0.5-1-0.6-1.1
								s0-0.3,0-0.4s-0.2-0.6-0.3-0.7c0-0.1-0.1-0.8-0.2-0.9s-0.2-0.4-0.3-0.6c0,0,0,0-0.2-0.3c-0.3-0.4-0.3-0.4-0.3-0.4
								c-0.3-0.3-0.8-0.5-0.8-0.4s-0.5-0.1-0.7-0.1s-0.6,0.2-0.7,0.2c-0.1,0.1-0.6-0.1-0.8-0.1c-0.2,0-0.6,0.1-0.7,0.1
								s-0.7-0.7-1.2-0.8c-0.5-0.1-1.3-0.3-1.6-0.5c-0.2-0.2-1.1-0.3-1.3-0.3c-0.3,0-0.5,0.1-0.5,0.2s-0.5-0.3-0.7-0.3
								c-0.2-0.1-0.6,0-0.5,0.2c0.1,0.1-0.2,0.2-0.3,0.1c-0.1-0.1-0.2,0.2-0.2,0.3c0,0.1,0.1,0.8,0.1,1.1c0,0.2-0.4,0-0.5,0
								s-0.3,0.3-0.3,0.5c0,0.1-0.7-0.5-0.9-0.8c-0.2-0.4-0.9-0.9-1.1-0.8s-0.8-0.5-0.9-0.8s-0.6-0.2-0.7-0.2s-0.1,0.5,0,0.7
								s-1.1,0.3-1.5-0.5c-0.5-0.8-0.6-1.9-0.6-2c0-0.2,0.5-0.5,0.7-0.5s0.2-0.2,0.2-0.2c0-0.1,0.5-0.3,0.7-0.3s0.9,0.6,1.1,0.6
								s-0.2-0.6-0.3-0.8c-0.1-0.2-0.4-0.5-0.6-0.5c-0.1-0.1-0.5-1.2-0.4-1.5s-0.1-0.9-0.2-1s0-0.3,0.1-0.3c0-0.1-0.6-0.8-0.6-1
								s0.1-0.8,0.2-1s-0.2-0.7-0.3-0.7c-0.1-0.1-0.1-0.7,0-1c0.1-0.2,0.5-0.1,0.5,0c0-0.1,0.1-0.4,0.2-0.6c0-0.2-0.4-0.5-0.5-0.5
								c-0.2,0-0.4-0.5-0.3-0.6s-0.1-0.5-0.2-0.6s0.5-0.2,0.5-0.5s0.4,0.4,0.4,0.7c0.1,0.3,0.5,0.4,0.5,0.3s0.3,0,0.3,0.1
								c0.1,0.1,0.1-0.2,0.3-0.2c0.2,0,0-0.3-0.1-0.5c-0.1-0.1-0.6-0.3-0.7-0.4c-0.2-0.1-0.9-1.1-1-1.3c-0.2-0.2-0.6-0.4-0.6-0.3
								s-0.5-0.4-0.7-0.5s-0.4-0.3-0.5-0.4s-0.7-0.4-1-0.6c-0.2-0.2-0.3-0.1-0.2,0c0.1,0.1-0.1,0.3-0.2,0.3s-0.6-0.4-0.7-0.6
								s-0.6,0-0.8-0.1c-0.2-0.1-0.4,0.1-0.5,0s-0.4,0-0.5,0c0,0.1,1,1.5,1.3,1.9c0.2,0.4,0.3,0.9,0.2,0.9c-0.1,0,0.2,0.3,0.2,0.2
								c0-0.1,0.2,0.5,0.3,0.8c0.2,0.3-0.2,0.1-0.5-0.1c-0.2-0.2-0.7-0.5-0.7-0.4s-0.2,0-0.3,0.1c0,0.1-0.7-0.1-0.9-0.1
								c-0.2,0-0.8-0.6-0.9-0.6s-0.1-0.1-0.2-0.2s-0.1-0.7-0.1-0.9c0-0.2-0.2-1-0.1-1.2c0-0.2-0.1-0.6-0.2-0.7s0.3-0.7,0.4-0.8
								c0.1-0.2-0.2-0.9-0.3-1.1c-0.1-0.2-0.5-0.5-0.6-0.5s0.2-0.2,0.3-0.2c0.1,0,0.3-0.4,0.5-0.4s0.6,0.1,0.8,0.1c0,0,0,0,0.3,0.5
								c0.5,0.8,0.5,0.8,0.5,0.8c-0.2,0.6,0,1.1,0.1,1s1.2-0.1,1.6,0s0-0.5,0-0.7c-0.1-0.2-0.5-0.7-0.6-0.8
								c-0.1-0.1,0.2-0.2,0.3-0.1c0.2,0.1,0.1-0.2,0.1-0.3c0-0.1-0.3-0.5-0.3-0.6s-0.3-0.1-0.3-0.2c-0.1-0.1-0.6-0.1-0.7-0.1
								c-0.2,0-0.4-0.3-0.4-0.4s-0.4-0.5-0.5-0.6c-0.2-0.1-0.6,0-0.7,0.1s-0.5-0.2-0.6-0.3c-0.1,0-0.6,0.2-0.7,0.3
								c-0.1,0.1-0.6-0.3-0.7,0c0,0.1-0.1,0.1-0.1,0.1c0.1-1.1,0.2-2.2,0.4-3.2h0.1c0.1,0.1,0.1-0.2,0.2-0.1c0.1,0,0.5-0.1,0.6-0.1
								s-0.2,0.3-0.3,0.4c-0.1,0.1,0.2,0.6,0.4,0.5c0.2,0,0.6-0.2,0.5-0.3c0-0.1,0.5-0.2,0.7-0.2c0.2-0.1,0.8,0.5,0.9,0.6
								c0.2,0.1,0.5,0.6,0.6,0.7c0.1,0.1,0.6,0.2,0.6,0.1c0-0.1,0.2,0.2,0.1,0.2c-0.1,0.1,0.3,0.5,0.5,0.5s0.3,0.4,0.3,0.5
								c0,0.2,0.3,0.4,0.2,0.6c0,0.2,1.2,0.9,1.6,1.5c0.4,0.5,0.9,0.8,1,0.8c0.1-0.1,0.5-0.1,0.6,0s0.1-0.2,0.1-0.3
								c0-0.1-0.1-0.5-0.2-0.7c-0.1-0.3-0.7-1.5-0.7-1.6c-0.1-0.1,0.3-0.3,0.4-0.4c0-0.1,0.1-0.5,0.1-0.6s0.3-0.7,0.3-1
								c0-0.2-0.2-1-0.2-1.2s-0.1-0.1-0.3-0.1c-0.2,0-0.3-0.2-0.3-0.3s0.5-0.2,0.7-0.2s0.2-0.4,0.1-0.5c-0.2,0-0.1-0.1,0-0.1
								s-0.2-0.4-0.3-0.5c-0.1,0,0-0.8-0.4-1.2s-0.6-1-0.4-1.1c0.1-0.1-0.3-0.6-0.5-0.5c-0.2,0-0.1-0.1-0.1-0.2
								c0-0.1-0.3-0.6-0.4-0.7c-0.1-0.1,0.1-0.3,0.1-0.5c0-0.1,0.1-0.5,0.2-0.6s-0.2-0.5-0.3-0.4c-0.1,0.1-0.4,0.2-0.6,0.1
								c-0.1,0-0.6,0.2-0.6,0.3c-0.1,0.2-0.4-0.4-0.2-0.6c0.1-0.2-0.3-0.4-0.5-0.3c-0.2,0.1-0.7,0.3-0.8,0.4
								c-0.1,0.1-0.4,0.1-0.5,0.1s-0.4,0.6-0.7,0.8c-0.1,0.1-0.2,0.1-0.4,0.2c1.3-2.2,3-4.1,5.3-5.5c3.4-2.2,7.6-3,11.9-2.6v0.1
								c0,0.1,0.3,0,0.5-0.1c0.7,0.1,1.4,0.2,2.1,0.3v0.1c0.1,0.2-0.2,0.5-0.1,0.7s-0.1,0.3-0.2,0.2s-0.3,0.4-0.4,0.6
								c-0.1,0.1-0.3,0.6-0.4,0.7c0,0.1,0,0.5,0,0.6c0.1,0.1,0,0.5-0.1,0.5c0,0.1,0.3,0.6,0.5,0.6c0.1,0-0.2,0-0.4,0
								c-0.2,0-0.1,0.4-0.1,0.5s-0.2,0-0.3-0.1c-0.1-0.1-0.5-0.1-0.4,0.1c0,0.1-0.3,0.1-0.4,0.1s-0.1,0.8-0.1,1.1s-0.5,0.8-0.7,0.8
								s0.1,0.6,0.2,0.5c0.1,0-0.3,0.1-0.5,0.3s-0.5,0.9-0.5,1.1c0,0.2-0.3,0.1-0.4,0s-0.4-0.1-0.5-0.1s0.3,0.8,0.3,1
								s-0.6-0.4-1-0.3c-0.3,0.1-1.1-0.1-1.2,0c-0.2,0-0.7-0.2-0.8-0.3c-0.1-0.1-0.6,0.1-0.7,0.1c-0.1,0.1-0.2,0.6-0.2,0.8
								s-0.2,0.2-0.2,0.3s0,0.9,0,1.2s0.3,1.3,0.3,1.5s-0.1,0.4-0.1,0.4c-0.1,0,0.1,0.3,0.1,0.4c0.1,0.1-0.1,0.7,0,1.1
								c0.2,0.3,0.8,1,1,1.3s0.7,0.6,0.9,0.6c0.1-0.1,0.4,0.4,0.4,0.5c0.1,0.1,0.3,0.2,0.3,0.3c0.1,0.1-0.1,0.5-0.2,0.6
								s0,0.6,0.1,0.7s-0.2,0.4-0.2,0.6c-0.1-0.1-0.1-0.3-0.2-0.4c-0.1-0.2-0.4-0.4-0.4-0.5c-0.1,0-0.7-0.8-0.9-1
								c-0.2-0.1-0.6-0.3-0.7-0.3s-0.2-0.3-0.2-0.4s-0.4,0-0.4,0.1s0.5,1,0.7,1.2c0.1,0.2,0.6,0.5,0.6,0.5c0.1,0,0.3,0.4,0.3,0.5
								c-0.1,0.1,0.2,0.7,0.4,0.8c0.2,0.1,0.2,0.4,0.2,0.5s0.4-0.2,0.6-0.4c0.2-0.1,0.5-0.1,0.5-0.1s-0.3,0.4-0.3,0.5
								c0,0.2,0,0.6,0,0.7s0.3,0.3,0.4,0.2c0.1-0.1,0.6,0.4,0.8,0.5c0.2,0.1,0.3,0.4,0.4,0.5c0,0.1-0.6,0.3-0.7,0.5s0.1,0.9,0.2,1.2
								c0.1,0.2,0.7,0.9,0.8,1c0.2,0.2,0.6,0,0.8,0.1c0.1,0,0.5-0.3,0.6-0.3s-0.1-0.8-0.2-1.1c-0.2-0.3-0.1-1.1-0.2-1.4
								s0.4-0.5,0.4-0.7s0.4,0.5,0.7,0.8c0.3,0.3,0.7,0,0.4-0.3c-0.3-0.3-0.3-0.5-0.2-0.4c0.1,0.1,0.7,0.1,0.9,0.2
								c0.2,0.1,0.4,0.5,0.4,0.6c-0.1,0.1,0.2,0.5,0.3,0.4c0.1,0-0.1-0.6-0.1-0.7s-0.1-0.5-0.2-0.5s-0.1-0.4,0-0.3s-0.7-0.5-1-0.6
								c-0.4-0.1-0.2-0.1,0.5,0.1c0,0,0,0,0.6,0.3c0.1,0.1,0.3,0.3,0.5,0.3c0.2,0.1,0.2,0.1,0.2,0.1c0.2,0.1,0.5,0.6,0.6,0.7
								s0.4,0.2,0.5,0.2c0.1-0.1,0.2,0,0.2,0s0.3,0.3,0.4,0.2c0.1-0.1-0.1-0.5-0.3-0.4c-0.1,0.1-0.5-0.5-0.7-0.8
								c-0.2-0.2-0.3-0.5-0.2-0.5c0,0,0.4,0.5,0.5,0.6s0.3,0.3,0.5,0.5c0,0,0,0,0.2,0.1c0.4,0.1,0.4,0.1,0.4,0.1
								c0.2-0.4,0.8-0.5,0.8-0.4c0.1,0.1,0.4,0,0.2-0.2c-0.1-0.2,0,0,0.1,0.1s0.2,0.7,0.3,1c0.1,0.2-0.8,0.6-1.2,0.8
								c-0.4,0.2-0.8,0.7-0.7,0.9c0.1,0.2-0.8,0-1.2,0c-0.4,0-1-0.4-1.1-0.5c-0.1,0-0.1-0.3-0.3-0.4c-0.1-0.1-0.7,0.2-0.8,0.4
								c-0.1,0.2-0.8,0.9-1,1.1c-0.1,0.3-0.5,0.3-0.6,0.3s0,0.6-0.1,0.7s0.2,0.8,0.6,1.5c0,0,0,0,0.2,0.5c0.1,0.3,0.1,0.3,0.1,0.3
								c0,0.5,0.4,1.7,0.5,2s1.1,1.8,1.5,2.3s1.5,1.4,1.8,1.6s1.3,0.6,1.6,0.6c0.3,0,0.9-0.3,1-0.4c0.2-0.1,0.2-0.5,0-0.9
								c0,0,0,0,0.3-0.1c0.1-0.1,0.1-0.1,0.1-0.1c0.2,0.2,0.7,0.1,0.9,0.2c0.2,0,0.4-0.2,0.4-0.3c0.1-0.1,0.9,0.9,1.1,1.2
								c0.2,0.3,1.1,1.3,1.4,1.6c0.3,0.3,1.2,1,1.4,1.3c0.3,0.3,0.9,1.4,1.1,1.8s1.3,1.2,1.7,1.5c0.3,0.3,1,1,1.1,1.2s1.3,1,1.7,1.4
								c0.4,0.4,1.4-0.1,1.5-0.5s-0.2-1.6-0.2-1.8c0-0.3-0.4-1-0.5-1.2s-0.1-0.5,0-0.6s-0.8-1.8-0.9-2.3c0-0.5-1-2.3-1.4-2.8
								c-0.5-0.6-1.1-1.8-1.2-2.1c-0.1-0.3-0.2-1-0.2-1.1c0-0.2-0.3-1.6-0.4-2.2c-0.1-0.5-0.6-1.5-0.8-1.7c-0.2-0.2-0.7-0.1-0.7,0
								s-0.3,0.5-0.4,0.5c-0.1,0.1-1-0.6-1.3-0.7s-1.2-1-1.4-1.1c-0.2-0.1-0.8-0.5-1-0.5c-0.2-0.1-0.6-0.6-0.7-0.7s0.2,0,0.4,0.2
								c0.2,0.2,1.2,0.8,1.6,1c0.3,0.2,1.3,0.9,1.6,1.2c0.3,0.2,0.9-0.4,1-0.7c0.1-0.3,0.2-0.8,0.1-0.9s0.1-0.6,0.1-0.8
								c0-0.2-0.4-0.9-0.4-1.1c0-0.1-0.6-0.7-0.8-0.8c-0.2-0.1-0.7,0-0.7,0.1s-0.6-0.3-0.7-0.4c-0.2-0.1-0.6-0.2-0.8-0.3
								c-0.1-0.1-0.2-0.4-0.1-0.4c0-0.1,1,0.1,1.3,0.3c0.4,0.2,0.9,0.6,1,0.7s0.6-0.2,0.6-0.3c0-0.2,0.1-0.2,0.3-0.1
								c0,0,0,0,0.1-0.1c0.4-0.4,0.4-0.4,0.4-0.4c0.5,0.2,0.8,0.5,0.8,0.6s0.4,0.3,0.5,0.2c0.1,0,0.5,0.4,0.6,0.5s0.9,0.6,1.1,0.9
								c0.3,0.3,0.9,0.7,1.1,0.8c0.2,0.1,0.5,0.5,0.6,0.6s0.4,0.2,0.5,0.2c0.1-0.1-0.4-1.2-0.6-1.6s-0.3-0.8-0.2-0.8l-0.1-0.3
								c-0.1-0.1,0.2-0.2,0.2-0.4c0-0.1-0.4-0.8-0.4-1s0.1-0.7,0.2-0.9c0.1-0.1,0.7,0.1,0.9,0.2c0.2,0.1,0.6,0.6,0.6,0.7
								s0.5,0.4,0.7,0.3s0.4,0.2,0.5,0.3c0.1,0.1,0.5,0.3,0.7,0.4c0.1,0.1,0.4,0.5,0.5,0.6c0,0.1,0.4,0.6,0.6,0.7
								c0.1,0.1,1.2,0.6,1.6,0.7s-0.1-0.6-0.3-0.8c-0.3-0.2-1-0.5-1.1-0.6c-0.2-0.1-0.6-0.7-0.7-0.9c-0.1-0.2,0.4-0.1,0.6,0
								s0.5,0.2,0.6,0.3c0.1,0.1,0.3-0.9-0.1-1.5s-0.7-1.5-0.8-1.6c-0.1-0.2-0.3-0.3-0.4-0.3s-0.2-0.5,0-0.6s0.1-1.2,0-1.5
								c-0.1-0.4-0.1-0.8-0.1-0.8c0-0.1-0.4-0.9-0.6-1.2s-0.7-0.7-0.8-0.8c-0.1-0.1-0.5-0.4-0.7-0.5c-0.1-0.1-0.5-0.5-0.5-0.6
								s0.1-0.3,0-0.4c0-0.1-0.1-0.5-0.2-0.6s0.2,0.1,0.4,0.2c0.2,0.1,0.8,0.7,1,0.7s0-1.1-0.5-1.6s-0.8-1.3-0.7-1.5
								c0-0.1-0.1-0.8-0.2-1.2c0.9,0.7,1.7,1.5,2.5,2.3c0,0.2-0.1,0.5-0.1,0.6c0,0.2-0.1,0.9-0.2,1.1c0,0.2,0.1,0.4,0.2,0.5l0,0
								c-0.1,0,0.2,0.5,0.4,0.5c0.1,0,0-0.5,0-0.7s0.2-0.3,0.2-0.3c0.1,0,0.2-0.2,0.3-0.4c0-0.1,0-0.3-0.1-0.6
								c1.6,1.6,3,3.3,4.4,5.2c1.3,1.8,2.4,3.6,3.4,5.4c0,0.1,0,0.2-0.1,0.3c0,0.1-0.3,0.3-0.4,0.3c-0.1-0.1,0,0.2,0,0.3
								c0,0.1,0.2,0.3,0.2,0.2c0-0.1,0.4,0,0.8,0c0.4,0.8,0.8,1.7,1.2,2.5c-0.2,0.2-0.4,0.5-0.3,0.7c0.1,0.1-0.1,0.6-0.2,0.7
								s0.1,0.8,0.2,1s-0.2,0.3-0.3,0.5c-0.1,0.1-0.1,0.5,0,0.7s0,0.2-0.2,0c0,0,0,0,0,0.3c0,0.4,0,0.4,0,0.4
								c0.2,0.5,0.3,1.2,0.2,1.4c-0.1,0.1,0.5,0.9,0.7,1.2c0.2,0.3,0.6,0.6,0.8,0.7c0,0,0,0,0.2,0.2c0.4,0.5,0.4,0.5,0.4,0.5
								c0.2,0.4,0.7,0.6,0.8,0.7h0.1C455.4,143.1,452.9,150.9,446.5,154.9z"/>
							<path class="st14" d="M410,127.5L410,127.5L410,127.5z"/>
							<path class="st14" d="M445.3,119.5c0.1,0.2,0.1,0.3,0.2,0.2c0,0,0.6,0.1,0.6,0.2c0.1,0.1,0.1-0.4,0.2-0.5s-0.2-0.7-0.3-0.7
								c-0.1,0-0.6-0.3-0.7-0.3s-0.1,0.3,0,0.5C445.4,119.1,445.2,119.3,445.3,119.5z"/>
							<path class="st14" d="M448.5,123.9c-0.2-0.1-0.5-0.7-0.4-0.8c0-0.1-0.4-0.6-0.6-0.5s0,1.1,0.4,1.5s0.5,0.3,0.4,0.2
								c0-0.1,0.3-0.1,0.4-0.1C448.7,124.1,448.7,124,448.5,123.9z"/>
							<path class="st14" d="M447.6,124.8c0-0.1,0-0.1-0.1-0.1c0,0-0.1-0.5-0.2-0.7s-0.3-0.6-0.5-0.8c-0.1-0.2-0.5-0.8-0.6-1
								c-0.1-0.1-0.6-0.3-0.7-0.3c-0.2,0,0.4,1.5,0.2,1.9c-0.1,0.4,0.3,1.2,0.5,1.4c0.2,0.1,0.8-0.1,1-0.1
								C447.5,125,447.5,124.8,447.6,124.8z"/>
							<path class="st14" d="M448.3,126.2c-0.1,0-1.2-0.1-1.6-0.1c-0.3,0-0.4,0.4-0.4,0.5c0.1,0.1,1.1-0.2,1.4-0.3
								C448.2,126.3,448.5,126.2,448.3,126.2z"/>
							<path class="st14" d="M441.8,116.2c0,0.2,0.4,0.6,0.5,0.7s0.2,0.1,0.2-0.1C442.4,116.6,441.8,116,441.8,116.2z"/>
							<path class="st14" d="M444,117.9c-0.1-0.2-0.3-0.3-0.6-0.3c-0.2,0.1,0.4,0.9,0.6,0.9C444.2,118.6,444.1,118.1,444,117.9z"/>
							<path class="st14" d="M448.7,122.4c0.4,0.1,0.8-0.3,0.5-0.8C448.9,121.5,448.4,121.9,448.7,122.4z"/>
							<path class="st14" d="M442.5,124.3L442.5,124.3C442.4,124.2,442.4,124.2,442.5,124.3z"/>
							<path class="st14" d="M445.3,125.3c-0.3-0.2-0.9-0.5-1.3-0.6c0,0,0,0-0.3-0.2s-0.3-0.2-0.3-0.2c-0.3-0.2-0.7-0.2-0.8-0.3
								c-0.1-0.1,0.1,0.3-0.1,0.3c0.1,0,0.3,0.1,0.5,0.1c0.5,0.1,2.3,1.7,2.5,1.7C445.8,126.2,445.6,125.5,445.3,125.3z"/>
							<path class="st14" d="M439.9,125.1c0-0.1-0.5-0.6-0.7-0.6c-0.2-0.1-0.2,0.1-0.1,0.3C439.2,125.1,440,125.2,439.9,125.1z"/>
							<path class="st14" d="M440.5,136.7c-0.1-0.1-0.2-0.3-0.2-0.4c0,0-0.1-0.3-0.2-0.6c-0.1-0.3-1.2-1.3-1.4-1.5
								c-0.2-0.2-0.1,0.2,0,0.4c0.1,0.2,0,0.9,0.1,1.1c0,0.2,0.4,0.9,0.5,1s0.3,0.5,0.4,0.7c0,0.1,0.7,0.8,0.9,1
								c0.2,0.2,0.6,0.2,0.7,0.1s-0.2-0.9-0.3-1.1C440.9,137.2,440.6,136.8,440.5,136.7z"/>
							<path class="st14" d="M432.4,155.5c0.1-0.1,0.2-0.1,0.3-0.2C432.4,154.9,432.1,155.2,432.4,155.5z"/>
							<path class="st14" d="M410.9,107.8c0,0.2,0.3,0.4,0.4,0.3c0.1,0,0.5,0.2,0.6,0.1c0.1-0.1-0.2-0.8-0.3-1
								c-0.1-0.2,0.3-0.3,0.5-0.3s-0.4-0.9-0.6-1c-0.3,0-0.4,0.2-0.6,0.1c-0.1-0.1-0.3-0.1-0.4,0c-0.1,0-0.5-0.4-0.7-0.4
								s-0.3,0.4-0.2,0.5c0.1,0.1-0.3,0-0.4,0.2c-0.1,0.3,0.2,0.8,0.4,0.8c0.1,0,0.5,0.3,0.5,0.4c0.1,0.1,0.4-0.2,0.4-0.4
								C410.5,107.1,410.9,107.6,410.9,107.8z"/>
							<path class="st14" d="M411.5,105.3c0.3-0.1,0.4-0.6,0.4-0.8c0-0.1-1,0.1-1.3,0.3s-0.5,0.4-0.5,0.5
								C410.2,105.4,411.2,105.4,411.5,105.3z"/>
							<path class="st14" d="M415.2,119.4c-0.1-0.1-0.7-0.6-0.7-0.6c-0.1,0,0.1,0.5,0,0.5s0.1,0.4,0.3,0.6c0.1,0.1,0.4,0,0.5-0.1
								C415.3,119.7,415.3,119.5,415.2,119.4z"/>
							<path class="st14" d="M412.1,115.6c0.1-0.1,0.2-0.5,0.3-0.5c0.1-0.1-0.3-0.8-0.5-0.9c-0.2-0.1-0.6,0.2-0.7,0.2
								c-0.1,0.1-0.5,0.1-0.7,0c-0.1-0.1,0.2,0.5,0.1,0.6s0.2,0.1,0.2,0s0.2,0.3,0.2,0.4c0,0.1,0.4,0,0.6,0.1
								C411.8,115.7,412,115.7,412.1,115.6z"/>
							<path class="st14" d="M418.7,107.3c0.2,0,0.3-0.1,0.4-0.2c0-0.1-0.6-0.7-0.8-0.9c-0.2-0.2,0-1,0-1.3s0.4-1,0.3-1.3
								s-0.3-0.4-0.4-0.3c-0.1,0-0.1,0.2,0,0.2c0,0-0.5,0.7-0.6,1s-0.2,0.7-0.2,0.9s0.6,1.3,0.6,1.4
								C418,107,418.5,107.2,418.7,107.3z"/>
							<path class="st14" d="M416.1,102.2c-0.5-0.7-0.9,0-0.5,0.5C416,102.9,415.8,102.3,416.1,102.2z"/>
							<path class="st14" d="M402.3,121.2c-0.1,0-0.1,0.3-0.1,0.5c0,0.1,0.4,0.6,0.5,0.5s-0.2-0.9,0.1-0.9c0.3,0,0.4,0,0.3,0
								C403.1,121.2,402.4,121.2,402.3,121.2z"/>
							<path class="st14" d="M415.3,135.8c-0.1,0-0.1,0.4-0.1,0.5c0.1,0.1,0.3-0.1,0.3-0.3C415.5,135.8,415.4,135.7,415.3,135.8z"/>
							<path class="st14" d="M414.1,135.9c-0.2,0.2-0.6,0-0.7,0s-0.5-0.1-0.6-0.1s-0.7,0.2-0.9,0.4c-0.2,0.1-0.2,0.5-0.1,0.6
								c0,0.1,0.4,0,0.4-0.2c0-0.1,0.6-0.3,0.8-0.2c0.2,0.1,0.5,0.1,0.6,0s0.3,0.2,0.4,0.3c0.1,0.1,0.5,0,0.6,0s0.1-0.3,0.3-0.3
								C415,136.3,414.3,135.7,414.1,135.9z"/>
							<path class="st14" d="M413.7,137.1c-0.1,0-0.3,0.3-0.3,0.3c0.1,0.1,0.3-0.1,0.4-0.2C413.9,137.2,413.9,137.1,413.7,137.1z"/>
							<path class="st14" d="M412.1,135.1c-0.1,0,0,0.2,0,0.3c0.1,0.1,0.1,0.1,0.2,0.1C412.4,135.5,412.2,135.1,412.1,135.1z"/>
							<path class="st14" d="M412.7,134.8c-0.1-0.1-0.2-0.1-0.3,0c0,0,0,0.2,0.2,0.3C412.8,135.3,412.8,134.9,412.7,134.8z"/>
							<path class="st14" d="M413.5,135.5c0,0,0.3,0.2,0.4,0s-0.1-0.4-0.1-0.3c-0.1,0.1-0.4-0.2-0.5-0.2s0,0.3,0.1,0.4
								C413.4,135.5,413.5,135.6,413.5,135.5z"/>
						</g>
					</g>
				</g>
				<g>
					<g id="ipad">
						<g>
							<g>
								<path class="st19" d="M411.5,129.7v58.5c0,2.4,1.9,5,4.3,5.8l77,28c2.3,0.9,4.3-0.4,4.3-2.7v-58.5c0-2.3-1.9-5-4.3-5.8
									l-77-28C413.5,126.1,411.5,127.4,411.5,129.7z"/>
								<polyline class="st19" points="413.3,126.9 408.9,128.6 411.1,129.7 416.5,129.7 								"/>
								<polyline class="st19" points="491.6,223.5 495.5,222 494.4,218.4 490.1,220.3 								"/>
								<path class="st42" d="M407.7,131.2v58.5c0,2.4,1.9,5,4.3,5.8l77,28c2.4,0.9,4.3-0.4,4.3-2.7v-58.5c0-2.3-1.9-5-4.3-5.8
									l-77-28C409.6,127.6,407.7,128.8,407.7,131.2z"/>
								<path class="st43" d="M491,190.7c0,0.9-0.8,1.4-1.7,1.1c-0.9-0.3-1.7-1.4-1.7-2.3s0.8-1.4,1.7-1.1S491,189.8,491,190.7z"/>
								<path class="st43" d="M413.7,162.6c0,0.5-0.4,0.8-1,0.6c-0.5-0.2-1-0.8-1-1.3s0.4-0.8,1-0.6
									C413.3,161.5,413.7,162,413.7,162.6z"/>
								<polygon class="st22" points="484.9,162.6 484.9,214.4 416,189.3 416,137.5 								"/>
								<g>
									<polygon class="st42" points="437.6,171.8 418.6,164.9 418.6,146.2 437.6,153.1 									"/>
									<polygon class="st42" points="482.3,173.5 443.1,159.2 443.1,155.1 482.3,169.4 									"/>
									<polygon class="st42" points="482.3,180.4 443.1,166.2 443.1,161.8 482.3,176.1 									"/>
									<polygon class="st42" points="482.3,187.4 443.1,173.2 443.1,168.8 482.3,183.1 									"/>
									<polygon class="st42" points="482.3,194.1 418.6,170.9 418.6,168.2 482.3,191.3 									"/>
									<polygon class="st42" points="482.3,200.5 418.6,177.3 418.6,174.5 482.3,197.7 									"/>
									<polygon class="st42" points="482.3,205.7 418.6,182.5 418.6,179.8 482.3,202.9 									"/>
								</g>
							</g>
						</g>
					</g>
					<path class="st32" d="M412,128.4c-2.4-0.9-4.3,0.4-4.3,2.7V178l57.5-30.2L412,128.4z"/>
				</g>
			</g>
			<g id="pc">
				<g>
					<g>
						<g>
							<g>
								<path class="st6" d="M171,226.2L130.1,241c-1,0.4-1.9,1.7-1.9,2.9v0.8l44.6-16.2v-0.8C172.8,226.5,172,225.8,171,226.2z"/>
								<polyline class="st6" points="128.2,244.7 129.6,245.6 131.6,243.2 								"/>
								<path class="st6" d="M86.7,232.3v8.8c0,1.7,1.4,2.6,3.1,1.9l116.7-42.5c1.7-0.6,3.1-2.5,3.1-4.2v-8.8L86.7,232.3z"/>
								<polyline class="st6" points="87.7,243 91.4,245.6 95.5,240.9 								"/>
								<path class="st11" d="M209.5,187.5v-74.3c0-1.7-1.4-2.6-3.1-1.9L89.7,153.8c-1.7,0.6-3.1,2.5-3.1,4.2v74.3L209.5,187.5z"/>
								<polyline class="st11" points="86.7,232.2 90.5,235 98,232.2 89.3,226.9 								"/>
								<polyline class="st11" points="208.7,111.4 212.3,114 206.7,116 204.5,113.8 								"/>
								<path class="st23" d="M137.6,224c-1.3,5.8-2.6,11.6-3.9,17.3c12.1-4.4,24.2-8.8,36.3-13.2c-1.3-4.8-2.6-9.7-3.9-14.5
									C156.7,217.1,147.1,220.5,137.6,224z"/>
								<path class="st5" d="M172.3,227l-40.8,14.9c-1,0.4-1.9,1.7-1.9,2.9v0.8l44.6-16.2v-0.8C174.2,227.3,173.4,226.6,172.3,227z"
									/>
								<path class="st5" d="M90.5,235v8.8c0,1.7,1.4,2.6,3.1,1.9l116.7-42.5c1.7-0.6,3.1-2.5,3.1-4.2v-8.8L90.5,235z"/>
								<path class="st24" d="M213.3,190.3V116c0-1.7-1.4-2.6-3.1-1.9L93.5,156.5c-1.7,0.6-3.1,2.5-3.1,4.2V235L213.3,190.3z"/>
								<polygon class="st22" points="95.5,228.1 95.5,160.6 208.3,119.5 208.3,187 								"/>
							</g>
						</g>
					</g>
					<polygon class="st24" points="133.8,241.1 131.2,240.7 133.3,231.2 136.2,230.1 					"/>
				</g>
				<g>
					<polygon class="st5" points="188.1,155.7 113,183.1 113,177.7 188.1,150.4 					"/>
					<g>
						<g>
							<polygon class="st5" points="188.1,160.4 125.6,183.2 125.6,181.9 188.1,159.2 							"/>
						</g>
						<polygon class="st5" points="119.3,187.1 113,189.4 113,185.1 119.3,182.8 						"/>
					</g>
					<g>
						<g>
							<polygon class="st5" points="188.1,167.5 125.6,190.3 125.6,189.1 188.1,166.3 							"/>
						</g>
						<polygon class="st5" points="119.3,194.2 113,196.5 113,192.2 119.3,189.9 						"/>
					</g>
					<g>
						<g>
							<polygon class="st5" points="188.1,174.7 125.6,197.4 125.6,196.2 188.1,173.4 							"/>
						</g>
						<polygon class="st5" points="119.3,201.4 113,203.7 113,199.3 119.3,197 						"/>
					</g>
					<g>
						<g>
							<polygon class="st5" points="188.1,181.8 125.6,204.6 125.6,203.3 188.1,180.6 							"/>
						</g>
						<polygon class="st5" points="119.3,208.5 113,210.8 113,206.5 119.3,204.2 						"/>
					</g>
					<polygon class="st5" points="188.1,192.4 113,219.7 113,214.3 188.1,187 					"/>
				</g>
			</g>
		</g>
	</g>
</g>
</svg>
