<?xml version="1.0" encoding="utf-8"?>
<!-- Generator: Adobe Illustrator 20.0.0, SVG Export Plug-In . SVG Version: 6.00 Build 0)  -->
<svg version="1.1" id="Layer_1" xmlns="http://www.w3.org/2000/svg" xmlns:xlink="http://www.w3.org/1999/xlink" x="0px" y="0px"
	 viewBox="0 0 612 612" style="enable-background:new 0 0 612 612;" xml:space="preserve">
<style type="text/css">
	.st0{fill:#FFD47A;}
	.st1{opacity:0.2;clip-path:url(#SVGID_2_);}
	.st2{fill:#FFFFFF;}
	.st3{fill:#60BBD1;}
	.st4{fill:#B5C7C9;}
	.st5{fill:#E6E6E5;}
	.st6{fill:#154F78;}
	.st7{fill:#F08E20;}
	.st8{fill:#DB4126;}
	.st9{fill:#97D2D9;}
	.st10{clip-path:url(#SVGID_4_);fill:#C0C6C1;}
	.st11{clip-path:url(#SVGID_6_);fill:#C0C6C1;}
	.st12{fill:#F59320;}
	.st13{fill:#F9AE41;}
	.st14{fill:#22597C;}
	.st15{fill:#4186B2;}
	.st16{fill:none;}
	.st17{fill:#BFE0DC;}
	.st18{clip-path:url(#SVGID_8_);}
	.st19{fill:#C0C6C1;}
	.st20{fill:#EFA447;}
	.st21{fill:#9FB33A;}
	.st22{fill:#2BACB5;}
	.st23{fill:#F16227;}
</style>
<g>
	<circle class="st0" cx="306" cy="306" r="306"/>
	<g>
		<g>
			<g>
				<defs>
					<circle id="SVGID_1_" cx="306" cy="306" r="306"/>
				</defs>
				<clipPath id="SVGID_2_">
					<use xlink:href="#SVGID_1_"  style="overflow:visible;"/>
				</clipPath>
				<g class="st1">
					<g>
						<path class="st2" d="M397.5,394.1c4,2.8,7.1,6.6,7.8,10.5l-7.8,13.4v-11.3c0.9,0,1.8-0.5,2.3-1.3c0.8-1.3,0.3-2.9-1-3.7
							c-0.4-0.3-0.9-0.4-1.4-0.4v-7.2H397.5z M390.9,390.7c2.3,0.8,4.6,2,6.6,3.4v7.2c-0.9,0-1.8,0.5-2.3,1.3
							c-0.8,1.3-0.3,2.9,1,3.7c0.4,0.3,0.9,0.4,1.4,0.4V418l-6.6,11.3v-10.1c0.6-0.2,1.2-0.6,1.6-1.2c0.8-1.3,0.3-2.9-1-3.7
							c-0.2-0.1-0.4-0.2-0.6-0.3v-3.1c0.8-0.1,1.6-0.5,2-1.3c0.8-1.3,0.3-2.9-1-3.7c-0.3-0.2-0.7-0.3-1.1-0.4v-2.7
							c0.9,0,1.8-0.5,2.3-1.3c0.8-1.3,0.3-2.9-1-3.7c-0.4-0.3-0.9-0.4-1.4-0.4v-6.7H390.9z M384.3,389.4c2.1,0.1,4.4,0.6,6.6,1.4
							v6.8c-0.9,0-1.8,0.5-2.3,1.3c-0.8,1.3-0.3,2.9,1,3.7c0.4,0.3,0.9,0.4,1.4,0.4v2.7c-1-0.1-2.1,0.4-2.6,1.3
							c-0.8,1.3-0.3,2.9,1,3.7c0.5,0.3,1.1,0.4,1.6,0.4v3.1c-1.2-0.3-2.4,0.1-3.1,1.2c-0.8,1.3-0.3,2.9,1,3.7
							c0.7,0.4,1.4,0.5,2.1,0.3v10.1l-6.6,11.3v-25.2c0.6-0.2,1.2-0.6,1.6-1.2c0.8-1.3,0.3-2.9-1-3.7c-0.2-0.1-0.4-0.2-0.6-0.3v-3.1
							c0.8-0.1,1.6-0.5,2-1.3c0.8-1.3,0.3-2.9-1-3.7c-0.3-0.2-0.7-0.3-1.1-0.4v-2.7c0.9,0,1.8-0.5,2.3-1.3c0.8-1.3,0.3-2.9-1-3.7
							c-0.4-0.3-0.9-0.4-1.4-0.4v-4.4H384.3z M377,394.9l3-5.1c1.3-0.4,2.8-0.5,4.3-0.4v4.3c-0.9,0-1.8,0.5-2.3,1.3
							c-0.8,1.3-0.3,2.9,1,3.7c0.4,0.3,0.9,0.4,1.4,0.4v2.7c-1-0.1-2.1,0.4-2.6,1.3c-0.8,1.3-0.3,2.9,1,3.7c0.5,0.3,1.1,0.4,1.6,0.4
							v3.1c-1.2-0.3-2.4,0.1-3.1,1.2c-0.8,1.3-0.3,2.9,1,3.7c0.7,0.4,1.4,0.5,2.1,0.3v25.2l-7.3,12.5v-41.5c0.9,0,1.8-0.5,2.3-1.3
							c0.8-1.3,0.3-2.9-1-3.7c-0.4-0.3-0.9-0.4-1.4-0.4V394.9z M373.9,400.2l3.1-5.3v11.3c-0.9,0-1.8,0.5-2.3,1.3
							c-0.8,1.3-0.3,2.9,1,3.7c0.4,0.3,0.9,0.4,1.4,0.4v41.5l-3.1,5.3v-11.3c0.9,0,1.8-0.5,2.3-1.3c0.8-1.3,0.3-2.9-1-3.7
							c-0.4-0.3-0.9-0.4-1.4-0.4V400.2z M367.3,411.4l6.6-11.3v41.5c-0.9,0-1.8,0.5-2.3,1.3c-0.8,1.3-0.3,2.9,1,3.7
							c0.4,0.3,0.9,0.4,1.4,0.4v11.3l-3,5.1c-1.1,0.4-2.3,0.6-3.6,0.6v-4.5c0.6-0.2,1.2-0.6,1.6-1.2c0.8-1.3,0.3-2.9-1-3.7
							c-0.2-0.1-0.4-0.2-0.6-0.3v-3.1c0.8-0.1,1.6-0.5,2-1.3c0.8-1.3,0.3-2.9-1-3.7c-0.3-0.2-0.7-0.3-1.1-0.4v-2.7
							c0.9,0,1.8-0.5,2.3-1.3c0.8-1.3,0.3-2.9-1-3.7c-0.4-0.3-0.9-0.4-1.4-0.4v-26.3H367.3z M360.7,422.7l6.6-11.3v26.4
							c-0.9,0-1.8,0.5-2.3,1.3c-0.8,1.3-0.3,2.9,1,3.7c0.4,0.3,0.9,0.4,1.4,0.4v2.7c-1-0.1-2.1,0.4-2.6,1.3c-0.8,1.3-0.3,2.9,1,3.7
							c0.5,0.3,1.1,0.4,1.6,0.4v3.1c-1.2-0.3-2.4,0.1-3.1,1.2c-0.8,1.3-0.3,2.9,1,3.7c0.7,0.4,1.4,0.5,2.1,0.3v4.6
							c-2.1,0.1-4.4-0.4-6.6-1.1v-7.3c0.6-0.2,1.2-0.6,1.6-1.2c0.8-1.3,0.3-2.9-1-3.7c-0.2-0.1-0.4-0.2-0.6-0.3v-3.1
							c0.8-0.1,1.6-0.5,2-1.3c0.8-1.3,0.3-2.9-1-3.7c-0.3-0.2-0.7-0.3-1.1-0.4v-2.7c0.9,0,1.8-0.5,2.3-1.3c0.8-1.3,0.3-2.9-1-3.7
							c-0.4-0.3-0.9-0.4-1.4-0.4v-11.3H360.7z M353.4,435.2l7.3-12.5V434c-0.9,0-1.8,0.5-2.3,1.3c-0.8,1.3-0.3,2.9,1,3.7
							c0.4,0.3,0.9,0.4,1.4,0.4v2.7c-1-0.1-2.1,0.4-2.6,1.3c-0.8,1.3-0.3,2.9,1,3.7c0.5,0.3,1.1,0.4,1.6,0.4v3.1
							c-1.2-0.3-2.4,0.1-3.1,1.2c-0.8,1.3-0.3,2.9,1,3.7c0.7,0.4,1.4,0.5,2.1,0.3v7.3c-2.6-0.9-5.1-2.2-7.3-3.9V452
							c0.9,0,1.8-0.5,2.3-1.3c0.8-1.3,0.3-2.9-1-3.7c-0.4-0.3-0.9-0.4-1.4-0.4V435.2z M345.5,448.6l7.8-13.4v11.3
							c-0.9,0-1.8,0.5-2.3,1.3c-0.8,1.3-0.3,2.9,1,3.7c0.4,0.3,0.9,0.4,1.4,0.4v7.2C349.5,456.2,346.5,452.5,345.5,448.6z"/>
						<path class="st2" d="M230.3,291.1c4,2.8,7.1,6.6,7.8,10.5l-7.8,13.4v-11.3c0.9,0,1.8-0.5,2.3-1.3c0.8-1.3,0.3-2.9-1-3.7
							c-0.4-0.3-0.9-0.4-1.4-0.4L230.3,291.1L230.3,291.1z M223.7,287.7c2.3,0.8,4.6,2,6.6,3.4v7.2c-0.9,0-1.8,0.5-2.3,1.3
							c-0.8,1.3-0.3,2.9,1,3.7c0.4,0.3,0.9,0.4,1.4,0.4V315l-6.6,11.3v-10.1c0.6-0.2,1.2-0.6,1.6-1.2c0.8-1.3,0.3-2.9-1-3.7
							c-0.2-0.1-0.4-0.2-0.6-0.3v-3.1c0.8-0.1,1.6-0.5,2-1.3c0.8-1.3,0.3-2.9-1-3.7c-0.3-0.2-0.7-0.3-1.1-0.4v-2.7
							c0.9,0,1.8-0.5,2.3-1.3c0.8-1.3,0.3-2.9-1-3.7c-0.4-0.3-0.9-0.4-1.4-0.4v-6.7H223.7z M217.1,286.3c2.1,0.1,4.4,0.6,6.6,1.4
							v6.8c-0.9,0-1.8,0.5-2.3,1.3c-0.8,1.3-0.3,2.9,1,3.7c0.4,0.3,0.9,0.4,1.4,0.4v2.7c-1-0.1-2.1,0.4-2.6,1.3
							c-0.8,1.3-0.3,2.9,1,3.7c0.5,0.3,1.1,0.4,1.6,0.4v3.1c-1.2-0.3-2.4,0.1-3.1,1.2c-0.8,1.3-0.3,2.9,1,3.7
							c0.7,0.4,1.4,0.5,2.1,0.3v10.1l-6.6,11.3v-25.2c0.6-0.2,1.2-0.6,1.6-1.2c0.8-1.3,0.3-2.9-1-3.7c-0.2-0.1-0.4-0.2-0.6-0.3v-3.1
							c0.8-0.1,1.6-0.5,2-1.3c0.8-1.3,0.3-2.9-1-3.7c-0.3-0.2-0.7-0.3-1.1-0.4v-2.7c0.9,0,1.8-0.5,2.3-1.3c0.8-1.3,0.3-2.9-1-3.7
							c-0.4-0.3-0.9-0.4-1.4-0.4v-4.4H217.1z M209.8,291.9l3-5.1c1.3-0.4,2.8-0.5,4.3-0.4v4.3c-0.9,0-1.8,0.5-2.3,1.3
							c-0.8,1.3-0.3,2.9,1,3.7c0.4,0.3,0.9,0.4,1.4,0.4v2.7c-1-0.1-2.1,0.4-2.6,1.3c-0.8,1.3-0.3,2.9,1,3.7c0.5,0.3,1.1,0.4,1.6,0.4
							v3.1c-1.2-0.3-2.4,0.1-3.1,1.2c-0.8,1.3-0.3,2.9,1,3.7c0.7,0.4,1.4,0.5,2.1,0.3v25.2l-7.3,12.5v-41.5c0.9,0,1.8-0.5,2.3-1.3
							c0.8-1.3,0.3-2.9-1-3.7c-0.4-0.3-0.9-0.4-1.4-0.4V291.9z M206.7,297.2l3.1-5.3v11.3c-0.9,0-1.8,0.5-2.3,1.3
							c-0.8,1.3-0.3,2.9,1,3.7c0.4,0.3,0.9,0.4,1.4,0.4v41.5l-3.1,5.3v-11.3c0.9,0,1.8-0.5,2.3-1.3c0.8-1.3,0.3-2.9-1-3.7
							c-0.4-0.3-0.9-0.4-1.4-0.4V297.2z M200.1,308.4l6.6-11.3v41.5c-0.9,0-1.8,0.5-2.3,1.3c-0.8,1.3-0.3,2.9,1,3.7
							c0.4,0.3,0.9,0.4,1.4,0.4v11.3l-3,5.1c-1.1,0.4-2.3,0.6-3.6,0.6v-4.5c0.6-0.2,1.2-0.6,1.6-1.2c0.8-1.3,0.3-2.9-1-3.7
							c-0.2-0.1-0.4-0.2-0.6-0.3v-3.1c0.8-0.1,1.6-0.5,2-1.3c0.8-1.3,0.3-2.9-1-3.7c-0.3-0.2-0.7-0.3-1.1-0.4v-2.7
							c0.9,0,1.8-0.5,2.3-1.3c0.8-1.3,0.3-2.9-1-3.7c-0.4-0.3-0.9-0.4-1.4-0.4v-26.3H200.1z M193.5,319.7l6.6-11.3v26.4
							c-0.9,0-1.8,0.5-2.3,1.3c-0.8,1.3-0.3,2.9,1,3.7c0.4,0.3,0.9,0.4,1.4,0.4v2.7c-1-0.1-2.1,0.4-2.6,1.3c-0.8,1.3-0.3,2.9,1,3.7
							c0.5,0.3,1.1,0.4,1.6,0.4v3.1c-1.2-0.3-2.4,0.1-3.1,1.2c-0.8,1.3-0.3,2.9,1,3.7c0.7,0.4,1.4,0.5,2.1,0.3v4.6
							c-2.1,0.1-4.4-0.4-6.6-1.1v-7.3c0.6-0.2,1.2-0.6,1.6-1.2c0.8-1.3,0.3-2.9-1-3.7c-0.2-0.1-0.4-0.2-0.6-0.3v-3.1
							c0.8-0.1,1.6-0.5,2-1.3c0.8-1.3,0.3-2.9-1-3.7c-0.3-0.2-0.7-0.3-1.1-0.4v-2.7c0.9,0,1.8-0.5,2.3-1.3c0.8-1.3,0.3-2.9-1-3.7
							c-0.4-0.3-0.9-0.4-1.4-0.4v-11.3H193.5z M186.2,332.2l7.3-12.5V331c-0.9,0-1.8,0.5-2.3,1.3c-0.8,1.3-0.3,2.9,1,3.7
							c0.4,0.3,0.9,0.4,1.4,0.4v2.7c-1-0.1-2.1,0.4-2.6,1.3c-0.8,1.3-0.3,2.9,1,3.7c0.5,0.3,1.1,0.4,1.6,0.4v3.1
							c-1.2-0.3-2.4,0.1-3.1,1.2c-0.8,1.3-0.3,2.9,1,3.7c0.7,0.4,1.4,0.5,2.1,0.3v7.3c-2.6-0.9-5.1-2.2-7.3-3.9V349
							c0.9,0,1.8-0.5,2.3-1.3c0.8-1.3,0.3-2.9-1-3.7c-0.4-0.3-0.9-0.4-1.4-0.4V332.2z M178.3,345.6l7.8-13.4v11.3
							c-0.9,0-1.8,0.5-2.3,1.3c-0.8,1.3-0.3,2.9,1,3.7c0.4,0.3,0.9,0.4,1.4,0.4v7.2C182.3,353.2,179.3,349.4,178.3,345.6z"/>
						<path class="st2" d="M314.1,256.7v-4.1l1.6-1.6l-1.6-1.6v-4l4.6,4.5c0.6,0.6,0.6,1.5,0,2L314.1,256.7L314.1,256.7z
							 M314.1,242.1l3.5,3.4c0.6,0.6,1.5,0.5,2,0l4.1-4.2l1.7,1.7c0.6,0.6,1.5,0.5,2,0l2-2.1c0.6-0.6,0.5-1.5,0-2l-13.7-13.4
							c-0.5-0.5-1.2-0.5-1.8-0.2v16.8H314.1z M278.4,274l1.5,1.4l2.1,2.1l0,0c0.1,0.1,0.1,0.1,0.2,0.2c0.4,0.7,0.2,1.5-0.4,2
							l-3.3,2.2V274H278.4z M314.1,225.4v16.8l-4.6-4.5c-0.6-0.6-0.6-1.5,0-2l4.1-4.2l-1.7-1.7c-0.6-0.6-0.6-1.5,0-2l2-2.1
							C313.9,225.5,314,225.4,314.1,225.4L314.1,225.4z M314.1,245.4l-9-8.9c-0.6-0.6-1.5-0.5-2,0l-24.6,25.1v4.1l3.7-3.8l4.4,4.4
							c0.6,0.6,1.5,0.5,2,0c0.6-0.6,0.5-1.5,0-2l-4.4-4.4l5.8-5.9l4.4,4.4c0.6,0.6,1.5,0.5,2,0c0.6-0.6,0.5-1.5,0-2L292,252l5.8-5.9
							l4.4,4.4c0.6,0.6,1.5,0.5,2,0c0.6-0.6,0.5-1.5,0-2l-4.4-4.4l4.3-4.4l10,9.8L314.1,245.4L314.1,245.4z M314.1,252.6l-24.6,25.1
							l-11.1-10.9v4l10.1,9.9c0.6,0.6,1.5,0.5,2,0l23.6-24V252.6z M268.1,285.4l7.4-11.7c0.1-0.1,0.1-0.2,0.2-0.3
							c0.6-0.6,1.5-0.6,2,0l0.6,0.6v7.9l-8.2,5.4c-0.5,0.3-1.1,0.4-1.6,0.1C267.9,287,267.7,286.1,268.1,285.4L268.1,285.4z
							 M278.4,261.7v4.1l-0.5,0.5l0.5,0.5v4l-3.6-3.5c-0.6-0.6-0.6-1.5,0-2L278.4,261.7z"/>
						<path class="st2" d="M243.5,478.4c4.6-2.4,2.9-7.4,0.1-12.9l-8.1-15.7c-3-5.8-6.3-6.6-11-6.8v9.6l6.9-3.5l9.9,19.2l-16.7,8.6
							v11.3l0.1-0.1L243.5,478.4z M224.6,443c-1.1,0-2.2-0.1-3.4-0.1l-2-4c1.2-1,1.6-2.8,0.8-4.3l-0.8-1.6c-0.9-1.7-3-2.4-4.8-1.5
							l-10.8,5.6c-1.7,0.9-2.4,3-1.5,4.8l0.8,1.6c0.8,1.5,2.4,2.2,4,1.8l2,4c-3.6,5.4-6.4,8.6-2.7,15.7l7.5,14.6l0.6,1.1
							c2.8,5.5,5.9,9.7,10.4,7.5v-11.3l-6.9,3.5l-9.9-19.2l16.7-8.6L224.6,443L224.6,443z"/>
						<g>
							<path class="st2" d="M351.1,273c-5.2,2.1-11.3,0.2-14.2-4.8c-2.9-5-1.5-11.3,3-14.7L351.1,273z"/>
							<path class="st2" d="M342.4,252c5.2-2.1,11.3-0.2,14.2,4.8c2.9,5,1.5,11.3-3,14.7L342.4,252z"/>
						</g>
						<path class="st2" d="M279,474.8L279,474.8L279,474.8l-0.6-0.2v-3.1l0.4,0.2l4.8-10.9l-2.2-1c-0.7-0.3-1-1.2-0.7-1.9
							s1.2-1,1.9-0.7l2.2,1l0.8-1.9l-1.1-0.5c-0.7-0.3-1-1.2-0.7-1.9s1.2-1,1.9-0.7l1.1,0.5l0.8-1.9l-2.2-1c-0.7-0.3-1-1.2-0.7-1.9
							s1.2-1,1.9-0.7l2.2,1l0.8-1.9l-1.1-0.5c-0.7-0.3-1-1.2-0.7-1.9s1.2-1,1.9-0.7l1.1,0.5l0.8-1.9l-2.2-1c-0.7-0.3-1-1.2-0.7-1.9
							s1.2-1,1.9-0.7l2.2,1l0.8-1.9l-1.1-0.5c-0.7-0.3-1-1.2-0.7-1.9s1.2-1,1.9-0.7l1.1,0.5l0.8-1.9l-2.2-1c-0.7-0.3-1-1.2-0.7-1.9
							s1.2-1,1.9-0.7l2.2,1l0.8-1.9l-1.1-0.5c-0.7-0.3-1-1.2-0.7-1.9s1.2-1,1.9-0.7l1.1,0.5l0.8-1.9l-2.2-1c-0.7-0.3-1-1.2-0.7-1.9
							s1.2-1,1.9-0.7l2.2,1l2.6-5.8c-1.2-1.1-1.6-2.9-0.9-4.5c0.9-2,3.3-3,5.3-2.1s3,3.3,2.1,5.3c-0.7,1.6-2.3,2.5-3.9,2.4l-2.6,5.8
							l2.2,1c0.7,0.3,1,1.2,0.7,1.9s-1.2,1-1.9,0.7l-2.2-1l-0.8,1.9l1.1,0.5c0.7,0.3,1,1.2,0.7,1.9s-1.2,1-1.9,0.7l-1.1-0.5
							l-0.8,1.9l2.2,1c0.7,0.3,1,1.2,0.7,1.9s-1.2,1-1.9,0.7l-2.2-1l-0.8,1.9l1.1,0.5c0.7,0.3,1,1.2,0.7,1.9s-1.2,1-1.9,0.7
							l-1.1-0.5l-0.8,1.9l2.2,1c0.7,0.3,1,1.2,0.7,1.9s-1.2,1-1.9,0.7l-2.2-1l-0.8,1.9l1.1,0.5c0.7,0.3,1,1.2,0.7,1.9
							s-1.2,1-1.9,0.7l-1.1-0.5l-0.8,1.9l2.2,1c0.7,0.3,1,1.2,0.7,1.9s-1.2,1-1.9,0.7l-2.2-1l-0.8,1.9l1.1,0.5
							c0.7,0.3,1,1.2,0.7,1.9s-1.2,1-1.9,0.7l-1.1-0.5l-0.8,1.9l2.2,1c0.7,0.3,1,1.2,0.7,1.9s-1.2,1-1.9,0.7l-2.2-1l-4.8,10.9
							l0.9,0.4l1.8-4.2c0.2-0.5,0.6-0.8,1.1-0.8l0,0c1-0.1,2-0.5,2.8-1.2c0.8-0.6,1.5-1.4,1.9-2.4l22.7-51.8
							c0.7-1.5,0.6-3.1,0.1-4.6c-0.6-1.4-1.7-2.7-3.2-3.3c-1.5-0.7-3.1-0.6-4.6-0.1h-0.1c-1.4,0.6-2.6,1.7-3.2,3.1l-22.7,51.8
							c-0.4,1-0.6,2-0.5,3s0.5,2,1.1,2.9c0.3,0.4,0.3,1,0.1,1.4l-1.3,3v-16l20.7-47.2c1-2.2,2.7-3.8,4.8-4.6c0,0,0.1,0,0.1-0.1
							c2.1-0.8,4.5-0.8,6.8,0.1c2.2,1,3.9,2.8,4.7,4.9c0.8,2.1,0.8,4.5-0.1,6.8l-22.7,51.8c-0.6,1.4-1.6,2.6-2.8,3.5
							c-1,0.7-2.1,1.3-3.4,1.5l-2.1,4.8l0,0l0,0l-1.4,3.3c-0.6,1.3-1.6,2.3-2.9,2.8c-0.5,0.2-1,0.3-1.6,0.3V479
							c0.2,0,0.4-0.1,0.5-0.1c0.6-0.2,1.1-0.7,1.3-1.3l0.9-2L279,474.8z M278.5,474.5l-1.7-0.7l-0.9,2l0,0c-0.3,0.6-0.3,1.2,0,1.8
							v0.1c0.2,0.5,0.7,1,1.2,1.2l0,0c0.4,0.2,0.9,0.2,1.3,0.2v2.9c-0.8,0.1-1.5-0.1-2.3-0.4c-0.1,0-0.2-0.1-0.3-0.1
							c-1.2-0.6-2.1-1.5-2.6-2.7c0,0,0-0.1-0.1-0.1c-0.5-1.2-0.5-2.7,0.1-4l0,0l3.5-8.1c-0.6-1.1-1-2.3-1.1-3.5
							c-0.1-1.5,0.1-3,0.7-4.4l2-4.6v16l-0.5,1.2l0.5,0.2v3H278.5z"/>
						<path class="st2" d="M531.8,322.1L531.8,322.1L531.8,322.1l-0.6-0.2v-3.1l0.4,0.2l4.8-10.9l-2.2-1c-0.7-0.3-1-1.2-0.7-1.9
							c0.3-0.7,1.2-1,1.9-0.7l2.2,1l0.8-1.9l-1.1-0.5c-0.7-0.3-1-1.2-0.7-1.9c0.3-0.7,1.2-1,1.9-0.7l1.1,0.5l0.8-1.9l-2.2-1
							c-0.7-0.3-1-1.2-0.7-1.9c0.3-0.7,1.2-1,1.9-0.7l2.2,1l0.8-1.9l-1.1-0.5c-0.7-0.3-1-1.2-0.7-1.9c0.3-0.7,1.2-1,1.9-0.7l1.1,0.5
							l0.8-1.9l-2.2-1c-0.7-0.3-1-1.2-0.7-1.9c0.3-0.7,1.2-1,1.9-0.7l2.2,1l0.8-1.9l-1.1-0.5c-0.7-0.3-1-1.2-0.7-1.9
							c0.3-0.7,1.2-1,1.9-0.7l1.1,0.5l0.8-1.9l-2.2-1c-0.7-0.3-1-1.2-0.7-1.9c0.3-0.7,1.2-1,1.9-0.7l2.2,1l0.8-1.9l-1.1-0.5
							c-0.7-0.3-1-1.2-0.7-1.9c0.3-0.7,1.2-1,1.9-0.7l1.1,0.5l0.8-1.9l-2.2-1c-0.7-0.3-1-1.2-0.7-1.9c0.3-0.7,1.2-1,1.9-0.7l2.2,1
							l2.6-5.8c-1.2-1.1-1.6-2.9-0.9-4.5c0.9-2,3.3-3,5.3-2.1s3,3.3,2.1,5.3c-0.7,1.6-2.3,2.5-3.9,2.4l-2.6,5.8l2.2,1
							c0.7,0.3,1,1.2,0.7,1.9s-1.2,1-1.9,0.7l-2.2-1l-0.8,1.9l1.1,0.5c0.7,0.3,1,1.2,0.7,1.9c-0.3,0.7-1.2,1-1.9,0.7l-1.1-0.5
							l-0.8,1.9l2.2,1c0.7,0.3,1,1.2,0.7,1.9c-0.3,0.7-1.2,1-1.9,0.7l-2.2-1l-0.8,1.9l1.1,0.5c0.7,0.3,1,1.2,0.7,1.9
							c-0.3,0.7-1.2,1-1.9,0.7l-1.1-0.5l-0.8,1.9l2.2,1c0.7,0.3,1,1.2,0.7,1.9c-0.3,0.7-1.2,1-1.9,0.7l-2.2-1l-0.8,1.9l1.1,0.5
							c0.7,0.3,1,1.2,0.7,1.9c-0.3,0.7-1.2,1-1.9,0.7l-1.1-0.7l-0.8,1.9l2.2,1c0.7,0.3,1,1.2,0.7,1.9c-0.3,0.7-1.2,1-1.9,0.7l-2.2-1
							l-0.8,1.9l1.1,0.5c0.7,0.3,1,1.2,0.7,1.9c-0.3,0.7-1.2,1-1.9,0.7l-1.1-0.5l-0.8,1.9l2.2,1c0.7,0.3,1,1.2,0.7,1.9
							c-0.3,0.7-1.2,1-1.9,0.7l-2.2-1l-4.8,10.9l0.9,0.4l1.8-4.2c0.2-0.5,0.6-0.8,1.1-0.8l0,0c1-0.1,2-0.5,2.8-1.2
							c0.8-0.6,1.5-1.4,1.9-2.4l22.7-51.8c0.7-1.5,0.6-3.1,0.1-4.6c-0.6-1.4-1.7-2.7-3.2-3.3c-1.5-0.7-3.1-0.6-4.6-0.1h-0.1
							c-1.4,0.6-2.6,1.7-3.2,3.1l-22.7,51.8c-0.4,1-0.6,2-0.5,3s0.5,2,1.1,2.9c0.3,0.4,0.3,1,0.1,1.4l-1.3,3v-16l20.7-47.2
							c1-2.2,2.7-3.8,4.8-4.6c0,0,0.1,0,0.1-0.1c2.1-0.8,4.5-0.8,6.8,0.1c2.2,1,3.9,2.8,4.7,4.9s0.8,4.5-0.1,6.8l-22.7,51.8
							c-0.6,1.4-1.6,2.6-2.8,3.5c-1,0.7-2.1,1.3-3.4,1.5l-2.1,4.8l0,0l0,0l-1.4,3.3c-0.6,1.3-1.6,2.3-2.9,2.8
							c-0.5,0.2-1,0.3-1.6,0.3v-2.9c0.2,0,0.4-0.1,0.5-0.1c0.6-0.2,1.1-0.7,1.3-1.3l0.9-2L531.8,322.1z M531.2,321.9l-1.7-0.7
							l-0.9,2l0,0c-0.3,0.6-0.3,1.2,0,1.8v0.1c0.2,0.5,0.7,1,1.2,1.2l0,0c0.4,0.2,0.9,0.2,1.3,0.2v2.9c-0.8,0.1-1.5-0.1-2.3-0.4
							c-0.1,0-0.2-0.1-0.3-0.1c-1.2-0.6-2.1-1.5-2.6-2.7c0,0,0-0.1-0.1-0.1c-0.5-1.2-0.5-2.7,0.1-4l0,0l3.5-8.1
							c-0.6-1.1-1-2.3-1.1-3.5c-0.1-1.5,0.1-3,0.7-4.4l2-4.6v16l-0.5,1.2l0.5,0.2v3H531.2z"/>
						<path class="st2" d="M209.1,230.8L209.1,230.8L209.1,230.8l-0.6-0.2v-3.1l0.4,0.2l4.8-10.9l-2.2-1c-0.7-0.3-1-1.2-0.7-1.9
							c0.3-0.7,1.2-1,1.9-0.7l2.2,1l0.8-1.9l-1.1-0.5c-0.7-0.3-1-1.2-0.7-1.9c0.3-0.7,1.2-1,1.9-0.7l1.1,0.5l0.8-1.9l-2.2-1
							c-0.7-0.3-1-1.2-0.7-1.9c0.3-0.7,1.2-1,1.9-0.7l2.2,1l0.8-1.9l-1.1-0.5c-0.7-0.3-1-1.2-0.7-1.9c0.3-0.7,1.2-1,1.9-0.7l1.1,0.5
							l0.8-1.9l-2.2-1c-0.7-0.3-1-1.2-0.7-1.9c0.3-0.7,1.2-1,1.9-0.7l2.2,1l0.8-1.9l-1.1-0.5c-0.7-0.3-1-1.2-0.7-1.9
							c0.3-0.7,1.2-1,1.9-0.7l1.1,0.5l0.8-1.9l-2.2-1c-0.7-0.3-1-1.2-0.7-1.9c0.3-0.7,1.2-1,1.9-0.7l2.2,1l0.8-1.9l-1.1-0.5
							c-0.7-0.3-1-1.2-0.7-1.9c0.3-0.7,1.2-1,1.9-0.7l1.1,0.5l0.8-1.9l-2.2-1c-0.7-0.3-1-1.2-0.7-1.9c0.3-0.7,1.2-1,1.9-0.7l2.2,1
							l2.6-5.8c-1.2-1.1-1.6-2.9-0.9-4.5c0.9-2,3.3-3,5.3-2.1s3,3.3,2.1,5.3c-0.7,1.6-2.3,2.5-3.9,2.4l-2.6,5.8l2.2,1
							c0.7,0.3,1,1.2,0.7,1.9c-0.3,0.7-1.2,1-1.9,0.7l-2.2-1l-0.8,1.9l1.1,0.5c0.7,0.3,1,1.2,0.7,1.9c-0.3,0.7-1.2,1-1.9,0.7
							l-1.1-0.5l-0.8,1.9l2.2,1c0.7,0.3,1,1.2,0.7,1.9c-0.3,0.7-1.2,1-1.9,0.7l-2.2-1l-0.8,1.9l1.1,0.5c0.7,0.3,1,1.2,0.7,1.9
							c-0.3,0.7-1.2,1-1.9,0.7l-1.1-0.5l-0.8,1.9l2.2,1c0.7,0.3,1,1.2,0.7,1.9c-0.3,0.7-1.2,1-1.9,0.7l-2.2-1l-0.8,1.9l1.1,0.5
							c0.7,0.3,1,1.2,0.7,1.9c-0.3,0.7-1.2,1-1.9,0.7l-1.1-0.5l-0.8,1.9l2.2,1c0.7,0.3,1,1.2,0.7,1.9c-0.3,0.7-1.2,1-1.9,0.7l-2.2-1
							l-0.8,1.9l1.1,0.5c0.7,0.3,1,1.2,0.7,1.9c-0.3,0.7-1.2,1-1.9,0.7l-1.1-0.5l-0.8,1.9l2.2,1c0.7,0.3,1,1.2,0.7,1.9
							c-0.3,0.7-1.2,1-1.9,0.7l-2.2-1l-4.8,10.9l0.9,0.4l1.8-4.2c0.2-0.5,0.6-0.8,1.1-0.8l0,0c1-0.1,2-0.5,2.8-1.2
							c0.8-0.6,1.5-1.4,1.9-2.4l22.7-51.8c0.7-1.5,0.6-3.1,0.1-4.6c-0.6-1.4-1.7-2.7-3.2-3.3c-1.5-0.7-3.1-0.6-4.6-0.1h-0.1
							c-1.4,0.6-2.6,1.7-3.2,3.1L209,215.7c-0.4,1-0.6,2-0.5,3s0.5,2,1.1,2.9c0.3,0.4,0.3,1,0.1,1.4l-1.3,3v-16l20.7-47.2
							c1-2.2,2.7-3.8,4.8-4.6c0,0,0.1,0,0.1-0.1c2.1-0.8,4.5-0.8,6.8,0.1c2.2,1,3.9,2.8,4.7,4.9s0.8,4.5-0.1,6.8l-22.7,51.8
							c-0.6,1.4-1.6,2.6-2.8,3.5c-1,0.7-2.1,1.3-3.4,1.5l-2.1,4.8l0,0l0,0l-1.4,3.3c-0.6,1.3-1.6,2.3-2.9,2.8
							c-0.5,0.2-1,0.3-1.6,0.3V235c0.2,0,0.4-0.1,0.5-0.1c0.6-0.2,1.1-0.7,1.3-1.3l0.9-2L209.1,230.8z M208.5,230.5l-1.7-0.7l-0.9,2
							l0,0c-0.3,0.6-0.3,1.2,0,1.8v0.1c0.2,0.5,0.7,1,1.2,1.2l0,0c0.4,0.2,0.9,0.2,1.3,0.2v2.9c-0.8,0.1-1.5-0.1-2.3-0.4
							c-0.1,0-0.2-0.1-0.3-0.1c-1.2-0.6-2.1-1.5-2.6-2.7c0,0,0-0.1-0.1-0.1c-0.5-1.2-0.5-2.7,0.1-4l0,0l3.5-8.1
							c-0.6-1.1-1-2.3-1.1-3.5c-0.1-1.5,0.1-3,0.7-4.4l2-4.6v16l-0.5,1.2l0.5,0.2v3H208.5z"/>
						<path class="st2" d="M117.9,151.8c3.3,0,6-2.7,6-6s-2.7-6-6-6V151.8L117.9,151.8z M117.9,137v-3.5h10l-10-12.4v-6.8l14.8,18.4
							v13h-6.1C126.7,140.9,122.8,137,117.9,137z M117.9,139.7c-3.3,0-6,2.7-6,6s2.7,6,6,6l0,0V139.7L117.9,139.7L117.9,139.7z
							 M117.9,114.3v6.8l-6-7.5v19.9h6v3.5l0,0c-4.8,0-8.8,3.9-8.8,8.8H80.8v-7.2h4v-7.3H92v-7.9h-7.3v-7.3h-4v-6.2h19.7V104
							c0-2,1.6-3.6,3.6-3.6l0,0c2,0,3.6,1.6,3.6,3.6v5.9h6.7L117.9,114.3z M80.8,109.9v6.2h-4v7.3h-7.3v7.9h7.3v7.3h4v7.2H63.1
							c0-4.8-3.9-8.8-8.8-8.8l0,0v-27.1H80.8L80.8,109.9z M54.3,151.8L54.3,151.8c3.3,0,6-2.7,6-6s-2.7-6-6-6l0,0V151.8z
							 M54.3,109.9V137c-4.8,0-8.8,3.9-8.8,8.8h-6.3V110h15.1V109.9z M54.3,139.7c-3.3,0-6,2.7-6,6s2.7,6,6,6V139.7z"/>
						<path class="st2" d="M167.5,235.8l7.7,10.5c3.9,5.2,2.7,12.7-2.5,16.5l0,0c-2.7,2-5.9,2.6-8.9,2.1v-2.6
							c2.5,0.6,5.3,0.1,7.5-1.5l0,0c4-3,4.9-8.7,1.9-12.8l-6-8.1l-3.5,2.6v-11.7L167.5,235.8z M163.8,264.9
							c-2.9-0.5-5.7-2.1-7.6-4.6l-7.7-10.5l-7.7-10.5c-3.9-5.2-2.8-12.7,2.5-16.5l0,0c5.2-3.9,12.7-2.8,16.5,2.5l4.1,5.5v11.7
							l-11.2,8.3l6,8.1c1.3,1.8,3.2,3,5.3,3.5v2.5H163.8z"/>
						<g>
							<path class="st2" d="M437.7,422c-0.1,5.6-4.3,10.4-10,11.1c-5.7,0.7-11-3.1-12.3-8.5L437.7,422z"/>
							<path class="st2" d="M415,421.7c0.1-5.6,4.3-10.4,10-11.1c5.7-0.7,11,3.1,12.3,8.5L415,421.7z"/>
						</g>
						<path class="st2" d="M195.5,582.5l-12.3-3.4V573l0.8-1.4l0,0c0-0.1,0.1-0.2,0.2-0.3c0.5-0.6,1.4-0.7,2-0.2l10.6,8.9
							c0.5,0.3,0.7,0.9,0.5,1.5C197,582.3,196.2,582.7,195.5,582.5L195.5,582.5z M183.1,568.1v-6.4l1.4,0.7c0.7,0.4,1,1.2,0.6,1.9
							L183.1,568.1z M183.1,579.1l-1.1-0.3c-0.1,0-0.2-0.1-0.3-0.1c-0.1-0.1-0.2-0.1-0.3-0.2v-2.3l1.1-2l0.6-1.2V579.1L183.1,579.1z
							 M183.1,561.7v6.4l-1.7,3.2v-6.2l0.5-0.9l-0.5-0.2v-3.2L183.1,561.7z M181.5,578.5c-0.5-0.4-0.6-1.1-0.3-1.7l0.3-0.6V578.5
							L181.5,578.5z M181.5,560.8v3.2l-32.7-17.1l-6.6,12.5v-6.2l4.7-8.9c0.4-0.7,1.2-1,1.9-0.6L181.5,560.8L181.5,560.8z
							 M181.5,565.2l-7.1,13.5l-5.4-2.8l2.9-5.5c0.4-0.7,0.1-1.6-0.6-1.9c-0.7-0.4-1.6-0.1-1.9,0.6l-2.9,5.5l-7.4-3.9l2.9-5.5
							c0.4-0.7,0.1-1.6-0.6-1.9c-0.7-0.4-1.6-0.1-1.9,0.6l-2.9,5.5l-7.4-3.9l2.9-5.5c0.4-0.7,0.1-1.6-0.6-1.9
							c-0.7-0.4-1.6-0.1-1.9,0.6l-2.9,5.5l-4.4-2.3v3.2l32.1,16.8c0.7,0.4,1.6,0.1,1.9-0.6l5.2-10L181.5,565.2L181.5,565.2z
							 M142.2,548.2l0.8-1.6c0.4-0.7,0.1-1.6-0.6-1.9l-0.2-0.1V548.2z M142.2,544.6v3.6l-1.7,3.2v-7.7L142.2,544.6L142.2,544.6z
							 M142.2,553.3v6.2l-1,1.9l1,0.5v3.2l-1.7-0.9v-7.7L142.2,553.3z M140.5,543.7v7.7l-2.8,5.3c-0.4,0.7-1.2,1-1.9,0.6l-5.2-2.7
							l-1.1,2.2c-0.4,0.7-1.2,1-1.9,0.6l-2.6-1.3c-0.7-0.4-1-1.2-0.6-1.9l8.9-16.9c0.4-0.7,1.2-1,1.9-0.6l2.6,1.3
							c0.7,0.4,1,1.2,0.6,1.9l-1.1,2.2L140.5,543.7L140.5,543.7z M140.5,556.5l-2.5,4.8c-0.4,0.7-0.1,1.6,0.6,1.9l1.9,1V556.5z"/>
						<g>
							<rect x="584" y="205.1" class="st2" width="2.3" height="129.6"/>
							<path class="st2" d="M560.4,352.3c0-5.2,2.8-9.9,7.3-13.3c4.4-3.3,10.5-5.4,17.2-5.4s12.8,2.1,17.2,5.4
								c4.5,3.4,7.3,8.1,7.3,13.3h-2.3c0-4.5-2.4-8.5-6.4-11.5s-9.6-4.9-15.8-4.9s-11.8,1.9-15.8,4.9c-3.9,3-6.4,7-6.4,11.5H560.4z"
								/>
							<circle class="st2" cx="561.6" cy="352.3" r="4.5"/>
							<circle class="st2" cx="608.3" cy="352.3" r="4.5"/>
						</g>
						<rect x="590.3" y="182.3" class="st2" width="2.3" height="131.1"/>
						<path class="st2" d="M571,148.4h34.3c0.9,0,1.6,0.7,1.6,1.6v40.1l-10.2,11.1c0,0.9-0.7,1.6-1.6,1.6h-1.8v4.6
							c0,0.7-0.4,1.3-1,1.5v1.5h1.9v2.6h1.5v2.1h-1.5v7.1h-1.9v1.2l0,0v1.5h-1.5v-1.4l0,0v-1.2h-1.9v-7.1h-1.5v-2.1h1.5v-2.6h1.9
							V209c-0.6-0.2-1-0.8-1-1.5v-4.6H587v4.6c0,0.9-0.7,1.6-1.6,1.6H585c-0.9,0-1.6-0.7-1.6-1.6v-4.6h-2.8c-0.9,0-1.6-0.7-1.6-1.6
							l-9.5-11.1v-40.1C569.4,149.1,570.1,148.4,571,148.4z"/>
						<path class="st2" d="M596.7,201.2c0,0.9-0.7,1.6-1.6,1.6h-1.8v4.6c0,0.7-0.4,1.3-1,1.5v1.5h1.9v2.6h1.5v2.1h-1.5v7.1h-1.9v1.2
							l0,0v1.5h-1.5v-1.4l0,0v-1.2h-1.9v-7.1h-1.5v-2.1h1.5v-2.6h1.9V209c-0.6-0.2-1-0.8-1-1.5v-4.6H587v4.6c0,0.9-0.7,1.6-1.6,1.6
							H585c-0.9,0-1.6-0.7-1.6-1.6v-4.6h-2.8c-0.9,0-1.6-0.7-1.6-1.6L596.7,201.2L596.7,201.2z"/>
						<polygon class="st2" points="604.9,176.1 571.3,176.1 571.3,190.1 580.4,200.2 595.7,200.2 604.9,190.1 						"/>
						<rect x="596.5" y="173.9" class="st2" width="8.8" height="0.8"/>
						<polygon class="st2" points="604.9,178.3 571.3,178.3 571.3,190.1 580.4,200.2 595.7,200.2 604.9,190.1 						"/>
						<rect x="596.5" y="180.5" class="st2" width="8.8" height="0.8"/>
						<rect x="596.5" y="186.3" class="st2" width="8.8" height="0.8"/>
						<rect x="571.3" y="154.1" class="st2" width="33.6" height="22"/>
						<rect x="596.5" y="167.3" class="st2" width="8.8" height="0.8"/>
						<rect x="596.5" y="160.7" class="st2" width="8.8" height="0.8"/>
						<path class="st2" d="M30.4,241.5l-3.9,12.4c-1.4,4.6-5.5,7.7-10,8.2v-2.4c3.4-0.5,6.3-2.9,7.4-6.3l3-9.6l-10.5-3.3v-24.8
							c2.9-1.9,6.6-2.5,10.1-1.4l0,0c6.2,2,9.7,8.6,7.7,14.8L30.4,241.5z M16.4,262.1c-1.6,0.2-3.2,0-4.8-0.5l0,0
							c-6.2-2-9.7-8.6-7.7-14.8l3.9-12.4l3.9-12.4c0.8-2.7,2.6-4.9,4.8-6.3v24.8l-7-2.2l-3,9.6c-1.5,4.8,1.2,10,6,11.5l0,0
							c1.3,0.4,2.7,0.5,4,0.3v2.4H16.4z"/>
						<g>
							<path class="st2" d="M531.2,186.5c-3.5,4.4-9.8,5.5-14.8,2.5c-4.9-3-6.7-9.2-4.4-14.3L531.2,186.5z"/>
							<path class="st2" d="M513.6,172.2c3.5-4.4,9.8-5.5,14.8-2.5c4.9,3,6.7,9.2,4.4,14.3L513.6,172.2z"/>
						</g>
						<g>
							<path class="st2" d="M152.2,301.5c-5-2.6-7.4-8.5-5.4-14c2-5.4,7.6-8.4,13.1-7.2L152.2,301.5z"/>
							<path class="st2" d="M162.7,281.3c5,2.6,7.4,8.5,5.4,14c-2,5.4-7.6,8.4-13.1,7.2L162.7,281.3z"/>
						</g>
						<path class="st2" d="M484.4,165.5v-4l1.4-1.3l-1.4-1.4v-4.1l4.4,4.6c0.5,0.6,0.5,1.5,0,2L484.4,165.5L484.4,165.5z
							 M484.4,151.3l3.5,3.6c0.5,0.6,1.5,0.6,2,0l4.2-4.1l1.7,1.8c0.5,0.6,1.5,0.6,2,0l2.1-2c0.6-0.5,0.6-1.5,0-2l-13.2-13.8
							c-0.5-0.6-1.5-0.6-2,0l-0.3,0.3L484.4,151.3L484.4,151.3z M447.8,182.1l1.4,1.4l2,2.1l0,0c0.1,0.1,0.1,0.2,0.2,0.2
							c0.4,0.7,0.2,1.6-0.5,2l-3.1,1.9V182.1L447.8,182.1z M484.4,135.1v16.2l-4.4-4.6c-0.5-0.6-0.5-1.5,0-2l4.2-4.1l-1.7-1.8
							c-0.5-0.6-0.5-1.5,0-2L484.4,135.1L484.4,135.1z M484.4,154.6l-8.8-9.2c-0.5-0.6-1.5-0.6-2,0l-25.7,24.7v4l4.1-3.9l4.3,4.5
							c0.5,0.6,1.5,0.6,2,0c0.6-0.5,0.6-1.5,0-2l-4.3-4.5l6-5.7l4.3,4.5c0.5,0.6,1.5,0.6,2,0c0.6-0.5,0.6-1.5,0-2l-4.3-4.5l6-5.7
							l4.3,4.5c0.5,0.6,1.5,0.6,2,0c0.6-0.5,0.6-1.5,0-2l-4.3-4.5l4.4-4.2l9.9,10.3v-4.3H484.4z M484.4,161.5l-25.6,24.6l-10.9-11.4
							v4.1l9.8,10.3c0.5,0.6,1.5,0.6,2,0l24.7-23.7V161.5z M437.1,193.1l7.8-11.5c0.1-0.1,0.1-0.2,0.2-0.3c0.6-0.5,1.5-0.5,2,0
							l0.7,0.7v7.7l-8.7,5.3c-0.5,0.3-1.1,0.3-1.6,0C436.9,194.7,436.7,193.8,437.1,193.1L437.1,193.1z M447.8,170.1v4l-0.3,0.3
							l0.3,0.4v4.1l-3.4-3.5c-0.5-0.6-0.5-1.5,0-2L447.8,170.1z"/>
						<path class="st2" d="M530.2,96.7l7.5,7.8c0.2,4.9-3,10.3-7.5,14.4v-9.3c0.7,0,1.3-0.2,1.9-0.7c1.1-1,1.1-2.7,0.1-3.8
							c-0.5-0.6-1.2-0.8-1.9-0.8L530.2,96.7L530.2,96.7z M524.6,91l5.5,5.8v7.5c-0.7,0-1.3,0.2-1.9,0.7c-1.1,1-1.1,2.7-0.1,3.8
							c0.5,0.6,1.2,0.8,1.9,0.8v9.3c-1.7,1.5-3.6,2.8-5.5,3.8v-7.8c0.7,0,1.3-0.2,1.9-0.7c1.1-1,1.1-2.7,0.1-3.8
							c-0.5-0.6-1.2-0.8-1.9-0.8v-4.1c0.4-0.8,0.4-1.7,0-2.5V91z M520.1,86.3l4.5,4.7v12c-0.1-0.2-0.3-0.4-0.4-0.6
							c-1-1.1-2.7-1.1-3.8-0.1c-0.1,0.1-0.2,0.2-0.3,0.3v-3.4c0.7,0,1.3-0.2,1.9-0.7c1.1-1,1.1-2.7,0.1-3.8
							c-0.5-0.6-1.2-0.8-1.9-0.8L520.1,86.3L520.1,86.3z M524.6,122.8c-1.5,0.8-3,1.4-4.5,1.7V120c0.3-0.1,0.6-0.3,0.9-0.6
							c1.1-1,1.1-2.7,0.1-3.8c-0.3-0.3-0.6-0.5-1-0.6v-9.1c0.1,0.1,0.1,0.1,0.2,0.2c1,1.1,2.7,1.1,3.8,0.1c0.2-0.2,0.4-0.5,0.5-0.7
							v4.1c-0.7,0-1.3,0.2-1.9,0.7c-1.1,1-1.1,2.7-0.1,3.8c0.5,0.6,1.2,0.8,1.9,0.8L524.6,122.8L524.6,122.8z M516.4,124.9l-1.8-1.9
							v-11.9c0.1,0.1,0.1,0.1,0.2,0.2c1,1.1,2.7,1.1,3.8,0.1s1.1-2.7,0.1-3.8c-1-1.1-2.7-1.1-3.8-0.1c-0.1,0.1-0.2,0.2-0.3,0.3v-3.4
							c0.7,0,1.3-0.2,1.9-0.7c1.1-1,1.1-2.7,0.1-3.8c-0.5-0.6-1.2-0.8-1.9-0.8V80.5l5.5,5.8v7.5c-0.7,0-1.3,0.2-1.9,0.7
							c-1.1,1-1.1,2.7-0.1,3.8c0.5,0.6,1.2,0.8,1.9,0.8v3.4c-0.7,1-0.8,2.3,0,3.3v9.1c-0.9-0.4-2.1-0.2-2.8,0.6
							c-1.1,1-1.1,2.7-0.1,3.8c0.8,0.8,1.9,1,2.9,0.6v4.5C518.9,124.8,517.6,124.9,516.4,124.9z M514.6,123l-5.5-5.8v-7.5
							c0.7,0,1.3-0.2,1.9-0.7c1.1-1,1.1-2.7,0.1-3.8c-0.5-0.6-1.2-0.8-1.9-0.8V74.8l5.5,5.8v18.6c-0.7,0-1.3,0.2-1.9,0.7
							c-1.1,1-1.1,2.7-0.1,3.8c0.5,0.6,1.2,0.8,1.9,0.8v3.4c-0.7,1-0.8,2.3,0,3.3V123z M509.1,117.2l-11.3-11.7V75.9
							c0.7,0,1.3-0.2,1.9-0.7c1.1-1,1.1-2.7,0.1-3.8c-0.5-0.6-1.2-0.8-1.9-0.8v-7.5l11.2,11.7v29.6c-0.7,0-1.3,0.2-1.9,0.7
							c-1.1,1-1.1,2.7-0.1,3.8c0.5,0.6,1.2,0.8,1.9,0.8v7.5H509.1z M497.8,105.5l-5.5-5.8V81.1c0.7,0,1.3-0.2,1.9-0.7
							c1.1-1,1.1-2.7,0.1-3.8c-0.5-0.6-1.2-0.8-1.9-0.8v-4.1c0.4-0.8,0.4-1.7,0-2.5v-12l5.5,5.8v7.5c-0.7,0-1.3,0.2-1.9,0.7
							c-1.1,1-1.1,2.7-0.1,3.8c0.5,0.6,1.2,0.8,1.9,0.8V105.5z M492.3,99.7l-4.5-4.7v-8.7c0.3-0.1,0.6-0.3,0.9-0.6
							c1.1-1,1.1-2.7,0.1-3.8c-0.3-0.3-0.6-0.5-1-0.6v-9.1c0.1,0.1,0.1,0.1,0.2,0.2c1,1.1,2.7,1.1,3.8,0.1c0.2-0.2,0.4-0.5,0.5-0.7
							v4.1c-0.7,0-1.3,0.2-1.9,0.7c-1.1,1-1.1,2.7-0.1,3.8c0.5,0.6,1.2,0.8,1.9,0.8v18.5H492.3z M487.8,55.4
							c0.9-0.1,1.8-0.2,2.7-0.1l1.8,1.9v12c-0.1-0.2-0.3-0.4-0.4-0.6c-1-1.1-2.7-1.1-3.8-0.1c-0.1,0.1-0.2,0.2-0.3,0.3v-3.4
							c0.7,0,1.3-0.2,1.9-0.7c1.1-1,1.1-2.7,0.1-3.8c-0.5-0.6-1.2-0.8-1.9-0.8v-4.7H487.8z M487.8,95l-5.5-5.8V77.3
							c0.1,0.1,0.1,0.1,0.2,0.2c1,1.1,2.7,1.1,3.8,0.1c1.1-1,1.1-2.7,0.1-3.8s-2.7-1.1-3.8-0.1c-0.1,0.1-0.2,0.2-0.3,0.3v-3.4
							c0.7,0,1.3-0.2,1.9-0.7c1.1-1,1.1-2.7,0.1-3.8c-0.5-0.6-1.2-0.8-1.9-0.8v-8c1.8-1,3.7-1.6,5.5-1.9V60c-0.7,0-1.3,0.2-1.9,0.7
							c-1.1,1-1.1,2.7-0.1,3.8c0.5,0.6,1.2,0.8,1.9,0.8v3.4c-0.7,1-0.8,2.3,0,3.3v9.1c-0.9-0.4-2.1-0.2-2.9,0.6
							c-1.1,1-1.1,2.7-0.1,3.8c0.8,0.8,1.9,1,2.9,0.6L487.8,95L487.8,95z M482.3,89.3l-5.5-5.8V76c0.7,0,1.3-0.2,1.9-0.7
							c1.1-1,1.1-2.7,0.1-3.8c-0.5-0.6-1.2-0.8-1.9-0.8v-9.3c1.7-1.6,3.6-3,5.5-4v8c-0.7,0-1.3,0.2-1.9,0.7c-1.1,1-1.1,2.7-0.1,3.8
							c0.5,0.6,1.2,0.8,1.9,0.8v3.4c-0.7,1-0.8,2.3,0,3.3V89.3z M476.8,83.5l-7.5-7.8c0-4.8,3.2-10.3,7.5-14.4v9.3
							c-0.7,0-1.3,0.2-1.9,0.7c-1.1,1-1.1,2.7-0.1,3.8c0.5,0.6,1.2,0.8,1.9,0.8v7.6H476.8z"/>
						<g>
							<path class="st2" d="M407.8,178.2c-3.5-4.4-3.2-10.8,0.9-14.9s10.5-4.5,14.9-1.1L407.8,178.2z"/>
							<path class="st2" d="M425.7,164.3c3.5,4.4,3.2,10.8-0.9,14.9s-10.5,4.5-14.9,1.1L425.7,164.3z"/>
						</g>
						<path class="st2" d="M322.5,41.4c4.5-2.6,2.6-7.5-0.6-12.9l-8.8-15.3c-3-5.2-6.1-6.2-10.2-6.3v9.2l6.1-3.5l10.8,18.7
							l-16.9,9.8v11.5c0.4-0.1,0.9-0.3,1.3-0.6L322.5,41.4z M302.9,7c-1.4,0-2.9,0-4.5,0.1l-2.2-3.8c1.1-1.1,1.4-2.9,0.6-4.3
							l-0.9-1.5c-1-1.7-3.2-2.3-4.8-1.3l-10.5,6.1c-1.7,1-2.3,3.2-1.3,4.8l0.9,1.5c0.8,1.4,2.5,2.1,4.1,1.6l2.2,3.8
							c-3.3,5.6-6,8.9-1.9,15.9l8.2,14.2l0.6,1.1c2.8,4.8,5.8,8.7,9.6,7.5V41.2l-6.1,3.5L286,26l16.9-9.8V7z"/>
						<path class="st2" d="M192.6,199.6c4.5-2.6,2.6-7.5-0.6-12.9l-8.8-15.3c-3-5.2-6.1-6.2-10.2-6.3v9.2l6.1-3.5l10.8,18.7
							l-16.9,9.8v11.5c0.4-0.1,0.9-0.3,1.3-0.6L192.6,199.6z M173,165.2c-1.4,0-2.9,0-4.5,0.1l-2.2-3.8c1.1-1.1,1.4-2.9,0.6-4.3
							l-0.9-1.5c-1-1.7-3.2-2.3-4.8-1.3l-10.5,6.1c-1.7,1-2.3,3.2-1.3,4.8l0.9,1.5c0.8,1.4,2.5,2.1,4.1,1.6l2.2,3.8
							c-3.3,5.6-6,8.9-1.9,15.9l8.2,14.2l0.6,1.1c2.8,4.8,5.8,8.7,9.6,7.5v-11.5l-6.1,3.5l-10.8-18.7l16.9-9.8v-9.2H173z"/>
						<path class="st2" d="M501.5,302.4c4.5-2.6,2.6-7.5-0.6-12.9l-8.8-15.3c-3-5.2-6.1-6.2-10.2-6.3v9.2l6.1-3.5l10.8,18.7
							l-16.9,9.8v11.5c0.4-0.1,0.9-0.3,1.3-0.6L501.5,302.4z M481.9,268c-1.4,0-2.9,0-4.5,0.1l-2.2-3.8c1.1-1.1,1.4-2.9,0.6-4.3
							l-0.9-1.5c-1-1.7-3.2-2.3-4.8-1.3l-10.5,6.1c-1.7,1-2.3,3.2-1.3,4.8l0.9,1.5c0.8,1.4,2.5,2.1,4.1,1.6l2.2,3.8
							c-3.3,5.6-6,8.9-1.9,15.9l8.2,14.2l0.6,1.1c2.8,4.8,5.8,8.7,9.6,7.5v-11.5l-6.1,3.5L465,287l16.9-9.8V268z"/>
						<path class="st2" d="M291.1,351.9c4.5-2.6,2.6-7.5-0.6-12.9l-8.8-15.3c-3-5.2-6.1-6.2-10.2-6.3v9.2l6.1-3.5l10.8,18.7
							l-16.9,9.8v11.5c0.4-0.1,0.9-0.3,1.3-0.6L291.1,351.9z M271.5,317.5c-1.4,0-2.9,0-4.5,0.1l-2.2-3.8c1.1-1.1,1.4-2.9,0.6-4.3
							l-0.9-1.5c-1-1.7-3.2-2.3-4.8-1.3l-10.5,6.1c-1.7,1-2.3,3.2-1.3,4.8l0.9,1.5c0.8,1.4,2.5,2.1,4.1,1.6l2.2,3.8
							c-3.3,5.6-6,8.9-1.9,15.9l8.2,14.2l0.6,1.1c2.8,4.8,5.8,8.7,9.6,7.5v-11.5l-6.1,3.5l-10.9-18.7l16.9-9.8V317.5z"/>
						<path class="st2" d="M309,560.3l-8.9,9.5c-1.8,1.9-4.1,3.1-6.6,3.5v-2.5c1.7-0.4,3.2-1.3,4.5-2.6l6.9-7.3l-11.3-10.7v-8
							l7.1-7.6c4.5-4.7,12-5,16.7-0.5l0,0c4.7,4.5,5,12,0.5,16.7L309,560.3z M293.6,573.3c-3.6,0.6-7.4-0.4-10.2-3l0,0
							c-4.7-4.5-5-12-0.5-16.7l8.9-9.5l1.8-1.9v8l-2-1.9l-6.9,7.3c-3.4,3.7-3.3,9.5,0.4,12.9l0,0c2.3,2.2,5.6,2.9,8.5,2.2
							L293.6,573.3L293.6,573.3z"/>
						<g>
							<path class="st2" d="M370.6,546.2c-5.2-2.2-8.1-7.9-6.6-13.5s6.9-9,12.5-8.3L370.6,546.2z"/>
							<path class="st2" d="M379.4,525.2c5.2,2.2,8.1,7.9,6.6,13.5s-6.9,9-12.5,8.3L379.4,525.2z"/>
						</g>
						<g>
							<path class="st2" d="M177.6,93.5c-5.2-2.2-8.1-7.9-6.6-13.5s6.9-9,12.5-8.3L177.6,93.5z"/>
							<path class="st2" d="M186.4,72.5c5.2,2.2,8.1,7.9,6.6,13.5s-6.9,9-12.5,8.3L186.4,72.5z"/>
						</g>
						<g>
							<path class="st2" d="M94.7,497.1c1.2-1.1,2.3-2.4,3-3.8l-3,1.4v-4.1l4.6-2.2l6.8-3.2l1.3-0.6l1.6,3.3l-3,1.4
								c-0.5,4.2-2.4,8.1-5.2,11.2c4.1-1.1,7.4-1.2,8.3,0.6l1.3,2.8l-15.7,7.6v-3.4c0.4,0,0.8-0.1,1.2-0.3c1.4-0.6,2-2.3,1.3-3.7
								c-0.5-1-1.5-1.6-2.5-1.6V497.1z M67.3,462.8l7.4-6.9L94,476.4l-7.4,6.9l-7.7-8.2c-6,3.5-8.4,11.1-5.4,17.5
								c3.2,6.8,11.3,9.6,18,6.4c1.1-0.5,2.1-1.2,3-2v5.5c-0.4,0-0.8,0.1-1.2,0.3c-1.4,0.6-2,2.3-1.3,3.7c0.5,1,1.5,1.6,2.5,1.6v3.4
								l-11.1,5.2l-1.3-2.8c-0.9-1.8,1.3-4.4,4.8-6.8c-8,0.5-15.9-3.9-19.6-11.6c-4.3-9.1-1.3-19.8,6.8-25.4L67.3,462.8L67.3,462.8z
								 M94.7,494.8v-4.1l-4,1.9l1.6,3.3L94.7,494.8z"/>
							
								<rect x="75.7" y="455.6" transform="matrix(0.7285 -0.6851 0.6851 0.7285 -299.8587 182.8383)" class="st2" width="10.1" height="28.2"/>
							
								<rect x="90.6" y="488.5" transform="matrix(0.9035 -0.4285 0.4285 0.9035 -200.4795 90.0797)" class="st2" width="18.5" height="3.7"/>
						</g>
						<g>
							<path class="st2" d="M112.5,193.9c0.9-0.7,1.5-1.6,2.1-2.6l-2.1,1v-2.8l3.1-1.5l4.6-2.2l0.9-0.4l1.1,2.3l-2.1,1
								c-0.4,2.8-1.6,5.5-3.6,7.6c2.8-0.8,5.1-0.8,5.7,0.4l0.9,1.9l-10.7,5.1v-2.3c0.3,0,0.5-0.1,0.8-0.2c0.9-0.4,1.3-1.6,0.9-2.5
								c-0.3-0.7-1-1.1-1.7-1.1L112.5,193.9L112.5,193.9z M93.9,170.5l5-4.7l13.1,14l-5,4.7l-5.2-5.6c-4.1,2.4-5.7,7.5-3.6,11.9
								c2.2,4.6,7.7,6.6,12.3,4.4c0.8-0.4,1.5-0.8,2.1-1.3v3.7c-0.3,0-0.5,0.1-0.8,0.2c-0.9,0.4-1.3,1.6-0.9,2.5
								c0.3,0.7,1,1.1,1.7,1.1v2.3l-7.5,3.6l-0.9-1.9c-0.6-1.2,0.9-3,3.3-4.7c-5.5,0.3-10.8-2.6-13.3-7.9
								c-2.9-6.2-0.9-13.5,4.6-17.3L93.9,170.5L93.9,170.5z M112.5,192.3v-2.8l-2.7,1.3l1.1,2.3L112.5,192.3z"/>
							
								<rect x="99.5" y="165.6" transform="matrix(0.7285 -0.6851 0.6851 0.7285 -92.0513 118.1186)" class="st2" width="6.9" height="19.2"/>
							
								<rect x="109.7" y="188" transform="matrix(0.9035 -0.4285 0.4285 0.9035 -69.9033 67.9546)" class="st2" width="12.6" height="2.5"/>
						</g>
						<g>
							<path class="st2" d="M412.6,579.4c-1.4,9.1-7.6,16-15.9,19.7c-5,2.3-10.7,3.4-16.6,3.1c-5.9-0.2-11.8-1.8-17.3-5
								c-10.7-6.1-19.5-18-21.9-37.3l1.7-0.2c2.3,18.7,10.8,30.2,21.1,36c5.3,3,11,4.5,16.6,4.7s11.1-0.8,15.8-3
								c7.8-3.5,13.6-9.9,14.9-18.4L412.6,579.4z"/>
							<g>
								
									<ellipse transform="matrix(0.2093 -0.9778 0.9778 0.2093 -277.3161 776.7714)" class="st2" cx="341.7" cy="559.9" rx="7" ry="7"/>
								
									<ellipse transform="matrix(0.2092 -0.9779 0.9779 0.2092 -277.2299 776.8918)" class="st2" cx="341.7" cy="559.9" rx="2.9" ry="2.9"/>
							</g>
							<g>
								<path class="st2" d="M396.2,554.9c1.1-4.9,2.3-8.1,3.9-10.3c2.1-2.7,4.9-3.7,8.5-3l-0.3,1.5c-3-0.6-5.1,0.1-6.9,2.4
									c-1.5,1.9-2.6,5-3.6,9.7c-2.6,12,2.2,19.1,14.5,21.7c11.4,1.9,18.1-2.7,20.5-14.2c1-4.6,1.2-7.9,0.6-10.3
									c-0.7-2.8-2.3-4.4-5.3-5l0.3-1.6c3.5,0.8,5.7,2.8,6.5,6.2c0.6,2.7,0.4,6-0.6,11c-2.6,12.3-10.2,17.5-22.4,15.4l0,0l0,0
									c-0.5-0.1-1.1-0.2-1.6-0.3V578C398.4,575,393.6,567.2,396.2,554.9z"/>
								<path class="st2" d="M424.7,547.2c-0.1,0.4,0.2,0.8,0.6,0.9l5.5,1.2c0.4,0.1,0.8-0.2,0.9-0.6l0.5-2.3
									c0.1-0.4-0.2-0.8-0.6-0.9l-5.5-1.2c-0.4-0.1-0.8,0.2-0.9,0.6L424.7,547.2z"/>
								<path class="st2" d="M411.6,544.3c-0.1,0.4-0.5,0.7-0.9,0.6l-5.5-1.2c-0.4-0.1-0.7-0.5-0.6-0.9l0.5-2.3
									c0.1-0.4,0.5-0.7,0.9-0.6l5.5,1.2c0.4,0.1,0.7,0.5,0.6,0.9L411.6,544.3z"/>
								<path class="st2" d="M396.4,563.3c0.9-0.2,1.7,0.4,1.9,1.2c1.2,6,5.9,9.8,14.2,11.6c7.5,1.3,12.8-0.4,16.1-5.1
									c0.5-0.7,1.5-0.9,2.2-0.4s0.9,1.5,0.4,2.2c-4.1,5.7-10.6,7.8-19.3,6.3h-0.1l0,0c-0.5-0.1-1.1-0.2-1.6-0.3
									c-0.2,0-0.4-0.1-0.5-0.2c-8.3-2.3-13.2-6.8-14.5-13.6C395,564.4,395.5,563.5,396.4,563.3z"/>
							</g>
						</g>
						<g>
							<path class="st2" d="M411.7,131.9c-3.8,8.4-11.6,13.4-20.5,14.8c-5.4,0.8-11.2,0.4-16.8-1.4c-5.6-1.8-10.9-4.9-15.4-9.4
								c-8.7-8.7-14-22.6-11.2-41.8l1.7,0.3c-2.7,18.6,2.4,32,10.7,40.3c4.3,4.3,9.4,7.3,14.7,9c5.3,1.7,10.9,2.1,16,1.3
								c8.4-1.3,15.7-5.9,19.2-13.8L411.7,131.9z"/>
							<g>
								
									<ellipse transform="matrix(0.4617 -0.887 0.887 0.4617 104.0753 359.8644)" class="st2" cx="348.5" cy="94.2" rx="7" ry="7"/>
								
									<ellipse transform="matrix(0.4617 -0.887 0.887 0.4617 104.0638 359.8816)" class="st2" cx="348.6" cy="94.2" rx="2.9" ry="2.9"/>
							</g>
							<g>
								<path class="st2" d="M402.4,104c2.3-4.5,4.3-7.2,6.5-8.9c2.7-2.1,5.8-2.3,9-0.6l-0.7,1.4c-2.7-1.4-5-1.2-7.3,0.5
									c-1.9,1.5-3.9,4.1-6.1,8.3c-5.6,10.8-3,18.9,8.2,24.8c10.4,4.9,18.2,2.2,23.6-8.2c2.2-4.2,3.3-7.3,3.4-9.8
									c0.1-2.8-1.1-4.8-3.8-6.2l0.7-1.4c3.2,1.7,4.8,4.3,4.6,7.7c-0.1,2.7-1.2,5.9-3.5,10.4c-5.8,11.2-14.4,14.1-25.7,8.9l0,0l0,0
									c-0.5-0.2-1-0.5-1.5-0.7v-0.1C399.1,123.9,396.6,115.1,402.4,104z"/>
								<path class="st2" d="M431.9,104.1c-0.2,0.4,0,0.8,0.3,1l5,2.6c0.4,0.2,0.8,0,1-0.3l1.1-2.1c0.2-0.4,0-0.8-0.3-1l-5-2.6
									c-0.4-0.2-0.8,0-1,0.3L431.9,104.1z"/>
								<path class="st2" d="M420,97.8c-0.2,0.4-0.7,0.5-1,0.3l-5-2.6c-0.4-0.2-0.5-0.7-0.3-1l1.1-2.1c0.2-0.4,0.7-0.5,1-0.3l5,2.6
									c0.4,0.2,0.5,0.7,0.3,1L420,97.8z"/>
								<path class="st2" d="M400.3,112.1c0.9,0.1,1.5,0.8,1.5,1.7c-0.4,6.1,3,11,10.6,15c6.9,3.2,12.4,3,16.9-0.6
									c0.7-0.6,1.7-0.4,2.2,0.2c0.6,0.7,0.4,1.7-0.2,2.2c-5.4,4.4-12.3,4.7-20.3,1l0,0l0,0c-0.5-0.2-1-0.5-1.5-0.7
									c-0.2-0.1-0.3-0.2-0.4-0.3c-7.4-4.4-10.9-10.1-10.4-16.9C398.7,112.7,399.4,112.1,400.3,112.1z"/>
							</g>
						</g>
						<g>
							<path class="st2" d="M371.1,342.6c-3.8,8.4-11.6,13.4-20.5,14.8c-5.4,0.8-11.2,0.4-16.8-1.4c-5.6-1.8-10.9-4.9-15.4-9.4
								c-8.7-8.7-14-22.6-11.2-41.8l1.7,0.3c-2.7,18.6,2.4,32,10.7,40.3c4.3,4.3,9.4,7.3,14.7,9c5.3,1.7,10.9,2.1,16,1.3
								c8.4-1.3,15.7-5.9,19.2-13.8L371.1,342.6z"/>
							<g>
								
									<ellipse transform="matrix(0.4617 -0.887 0.887 0.4617 -104.6051 437.2856)" class="st2" cx="308" cy="304.8" rx="7" ry="7"/>
								
									<ellipse transform="matrix(0.4617 -0.887 0.887 0.4617 -104.627 437.3015)" class="st2" cx="308" cy="304.9" rx="2.9" ry="2.9"/>
							</g>
							<g>
								<path class="st2" d="M361.8,314.6c2.3-4.5,4.3-7.2,6.5-8.9c2.7-2.1,5.8-2.3,9-0.6l-0.7,1.4c-2.7-1.4-5-1.2-7.3,0.5
									c-1.9,1.5-3.9,4.1-6.1,8.3c-5.6,10.8-3,18.9,8.2,24.8c10.4,4.9,18.2,2.2,23.6-8.2c2.2-4.2,3.3-7.3,3.4-9.8
									c0.1-2.8-1.1-4.8-3.8-6.2l0.7-1.4c3.2,1.7,4.8,4.3,4.6,7.7c-0.1,2.7-1.2,5.9-3.5,10.4c-5.8,11.2-14.4,14.1-25.7,8.9l0,0l0,0
									c-0.5-0.2-1-0.5-1.5-0.7v-0.1C358.5,334.6,356,325.8,361.8,314.6z"/>
								<path class="st2" d="M391.3,314.7c-0.2,0.4,0,0.8,0.3,1l5,2.6c0.4,0.2,0.8,0,1-0.3l1.1-2.1c0.2-0.4,0-0.8-0.3-1l-5-2.6
									c-0.4-0.2-0.8,0-1,0.3L391.3,314.7z"/>
								<path class="st2" d="M379.4,308.5c-0.2,0.4-0.7,0.5-1,0.3l-5-2.6c-0.4-0.2-0.5-0.7-0.3-1l1.1-2.1c0.2-0.4,0.7-0.5,1-0.3
									l5,2.6c0.4,0.2,0.5,0.7,0.3,1L379.4,308.5z"/>
								<path class="st2" d="M359.7,322.8c0.9,0.1,1.5,0.8,1.5,1.7c-0.4,6.1,3,11,10.6,15c6.9,3.2,12.4,3,16.9-0.6
									c0.7-0.6,1.7-0.4,2.2,0.2c0.6,0.7,0.4,1.7-0.2,2.2c-5.4,4.4-12.3,4.7-20.3,1l0,0l0,0c-0.5-0.2-1-0.5-1.5-0.7
									c-0.2-0.1-0.3-0.2-0.4-0.3c-7.4-4.4-10.9-10.1-10.4-16.9C358.1,323.4,358.8,322.7,359.7,322.8z"/>
							</g>
						</g>
						<g>
							<path class="st2" d="M249.7,606.2c-4.8,3-11.1,2-14.8-2.5c-3.6-4.5-3.3-10.9,0.5-15L249.7,606.2z"/>
							<path class="st2" d="M237.7,586.9c4.8-3,11.1-2,14.8,2.5c3.6,4.5,3.3,10.9-0.5,15L237.7,586.9z"/>
						</g>
						<path class="st2" d="M476.1,561.9l-10.4,7.9c-1.6,1.2-3.3,1.9-5.1,2.2v-2.6c1.2-0.3,2.3-0.8,3.3-1.6l8-6.1l-11-14.6l-0.3,0.2
							v-3.5l1.2-0.9l10.4-7.9c5.2-3.9,12.6-2.9,16.6,2.3l0,0c3.9,5.2,2.9,12.6-2.3,16.6L476.1,561.9z M460.6,571.9
							c-4.2,0.7-8.7-0.9-11.5-4.5l0,0c-3.9-5.2-2.9-12.6,2.3-16.6l9.2-7v3.5l-7.7,5.9c-4,3-4.8,8.8-1.8,12.8l0,0
							c2.3,3,6,4.2,9.5,3.3V571.9z"/>
						<path class="st2" d="M162.1,55.2V52l30-16.6c1.4-0.8,2.4-2.1,2.8-3.6c0.4-1.5,0.3-3.1-0.5-4.6c-0.8-1.4-2.1-2.4-3.6-2.8h-0.1
							c-1.4-0.4-3-0.2-4.4,0.5L162,38.3v-3.2l22.9-12.6c2.1-1.1,4.4-1.4,6.6-0.8h0.1c2.2,0.6,4.1,2.1,5.3,4.2
							c1.2,2.1,1.4,4.5,0.7,6.7c-0.6,2.2-2.1,4.1-4.2,5.3L162.1,55.2L162.1,55.2z M162.1,51c0.4-0.4,0.5-1.1,0.2-1.6l-0.2-0.3V51
							L162.1,51z M162.1,46.7l0.9-0.5l0.6,1c0.4,0.7,1.2,0.9,1.9,0.6c0.7-0.4,0.9-1.2,0.6-1.9l-0.6-1l1.8-1l1.2,2.1
							c0.4,0.7,1.2,0.9,1.9,0.6c0.7-0.4,0.9-1.2,0.6-1.9l-1.2-2.1l1.9-1l0.6,1c0.4,0.7,1.2,0.9,1.9,0.6c0.7-0.4,0.9-1.2,0.6-1.9
							l-0.6-1l1.8-1l1.2,2.1c0.4,0.7,1.2,0.9,1.9,0.6c0.7-0.4,0.9-1.2,0.6-1.9l-1.2-2.1l5.6-3.1c1.2,1.1,3.1,1.3,4.6,0.5
							c2-1.1,2.7-3.5,1.6-5.5c-1.1-2-3.5-2.7-5.5-1.6c-1.5,0.8-2.3,2.5-2,4.1l-5.6,3.1l-1.2-2.1c-0.4-0.7-1.2-0.9-1.9-0.6
							c-0.7,0.4-0.9,1.2-0.6,1.9l1.2,2.1l-1.8,1l-0.6-1c-0.4-0.7-1.2-0.9-1.9-0.6c-0.7,0.4-0.9,1.2-0.6,1.9l0.6,1l-1.9,1l-1.2-2.1
							c-0.4-0.7-1.2-0.9-1.9-0.6c-0.7,0.4-0.9,1.2-0.6,1.9l1.2,2.1l-1.8,1l-0.6-1c-0.3-0.5-0.9-0.8-1.4-0.7v6H162.1z M127.7,64.1
							L127.7,64.1L127.7,64.1l-1.2-2.1l-0.4,0.2V59l4.9-2.7c0.2-1.2,0.6-2.4,1.2-3.5c0.8-1.3,1.9-2.3,3.2-3.1L162.1,35v3.2l-25.3,14
							c-0.9,0.5-1.7,1.2-2.2,2.1c-0.5,0.9-0.9,1.9-0.9,2.9c0,0.5-0.3,1-0.8,1.2l-4,2.2l0.5,0.9l10.5-5.8l-1.2-2.1
							c-0.4-0.7-0.1-1.6,0.6-1.9c0.7-0.4,1.6-0.1,1.9,0.6l1.2,2.1l1.8-1l-0.6-1c-0.4-0.7-0.1-1.6,0.6-1.9c0.7-0.4,1.6-0.1,1.9,0.6
							l0.6,1l1.8-1l-1.2-2.1c-0.4-0.7-0.1-1.6,0.6-1.9c0.7-0.4,1.6-0.1,1.9,0.6l1.2,2.1l1.8-1l-0.6-1c-0.4-0.7-0.1-1.6,0.6-1.9
							c0.7-0.4,1.6-0.1,1.9,0.6l0.6,1l1.8-1l-1.2-2.1c-0.4-0.7-0.1-1.6,0.6-1.9c0.7-0.4,1.6-0.1,1.9,0.6l1.2,2.1l1.8-1l-0.6-1
							c-0.4-0.7-0.1-1.6,0.6-1.9c0.2-0.1,0.3-0.1,0.5-0.2v6.1l-1,0.5l1,1.8v2c-0.1,0.1-0.2,0.2-0.4,0.3c-0.7,0.4-1.6,0.1-1.9-0.6
							l-1.2-2.1l-1.8,1l0.6,1c0.4,0.7,0.1,1.6-0.6,1.9c-0.7,0.4-1.6,0.1-1.9-0.6l-0.6-1l-1.8,1l1.2,2.1c0.4,0.7,0.1,1.6-0.6,1.9
							c-0.7,0.4-1.6,0.1-1.9-0.6l-1.2-2.1l-1.9,1l0.6,1c0.4,0.7,0.1,1.6-0.6,1.9c-0.7,0.4-1.6,0.1-1.9-0.6l-0.6-1l-1.9,1l1.2,2.1
							c0.4,0.7,0.1,1.6-0.6,1.9c-0.7,0.4-1.6,0.1-1.9-0.6l-1.2-2.1l-10.5,5.8L131,65l4-2.2c0.5-0.2,1-0.2,1.4,0l0,0
							c0.9,0.5,1.9,0.8,3,0.8c1,0,2-0.2,2.9-0.7l19.5-10.8v3.2l-18.1,10c-1.4,0.8-2.9,1.1-4.3,1.1c-1.2,0-2.5-0.3-3.6-0.8l-4.6,2.5
							l0,0l0,0l-3.1,1.7c-0.7,0.4-1.5,0.6-2.2,0.6v-2.9c0.3,0,0.6-0.1,0.8-0.3l1.9-1L127.7,64.1z M126.1,62.2l-1.5,0.8l0,0
							c-0.6,0.3-1,0.8-1.1,1.4v0.1c-0.1,0.6-0.1,1.2,0.2,1.7l0,0c0.3,0.6,0.8,1,1.4,1.1c0.3,0.1,0.7,0.1,1,0.1v2.9
							c-0.6,0-1.2,0-1.8-0.2c-1.2-0.4-2.4-1.2-3.1-2.4c-0.1-0.1-0.1-0.2-0.1-0.3c-0.6-1.2-0.7-2.5-0.4-3.7v-0.1
							c0.4-1.3,1.2-2.4,2.5-3.1l0,0l2.9-1.6V62.2z"/>
						<g>
							<path class="st2" d="M507.2,532.4c-5.2-2.2-8.1-7.9-6.6-13.5s6.9-9,12.5-8.3L507.2,532.4z"/>
							<path class="st2" d="M516,511.4c5.2,2.2,8.1,7.9,6.6,13.5s-6.9,9-12.5,8.3L516,511.4z"/>
						</g>
						<path class="st2" d="M553.3,486.4c3-0.1,5.7-3.2,8.3-7.1l10-14.6c4.6-6.7,2.2-10.1-0.7-16l2.5-3.7c1.5,0.6,3.2,0.1,4.2-1.3
							l1-1.5c1.1-1.6,0.7-3.8-0.9-4.9l-10.1-6.9c-1.6-1.1-3.8-0.7-4.9,0.9l-1,1.5c-0.9,1.4-0.8,3.2,0.3,4.4l-2.5,3.7
							c-2.3-0.2-4.3-0.5-6.1-0.4v8.6l17,11.7l-12.2,17.8l-4.8-3.3L553.3,486.4L553.3,486.4z M550.2,485.4c1.1,0.7,2.1,1,3,1v-11.1
							l-17-11.7l12.2-17.8l4.8,3.3v-8.6c-3.3,0.1-6.1,1.2-9,5.5l-9.3,13.5l-0.7,1c-3.5,5.1-5.8,9.9-1.5,12.8L550.2,485.4z"/>
						<g>
							<path class="st2" d="M21.9,296.1c-0.1,5.6-4.3,10.4-10,11.1s-11-3.1-12.3-8.5L21.9,296.1z"/>
							<path class="st2" d="M-0.8,295.7c0.1-5.6,4.3-10.4,10-11.1s11,3.1,12.3,8.5L-0.8,295.7z"/>
						</g>
						<g>
							<path class="st2" d="M72.7,285.6c-0.1,5.6-4.3,10.4-10,11.1s-11-3.1-12.3-8.5L72.7,285.6z"/>
							<path class="st2" d="M50,285.3c0.1-5.6,4.3-10.4,10-11.1s11,3.1,12.3,8.5L50,285.3z"/>
						</g>
						<g>
							<path class="st2" d="M403.4,12L384,6v2.6l15.9,5l-4,8.9L384,18.8v2.6l13.3,4.2L403.4,12z M384.1,6l-8.9-2.8
								c-3.3-1-6.7,0.3-8.4,3.1l-5.2-1.6c-2.4-0.7-3.2,2.4-0.7,3.1l4.8,1.5c-0.2,1.5,0.1,3,0.8,4.3c0.9,1.7,2.4,3,4.3,3.6l13.2,4.1
								v-2.6l-12.5-3.9c-6.1-1.9-3.4-11.2,2.9-9.3l9.6,3V6H384.1z"/>
							<path class="st2" d="M392.9,29.3l3.9,1.2l1.5-4.7l13.5,4.2c3.9,1.1,8-1.2,9.1-5.1c1.1-3.9-1.2-8-5.1-9.1l-13.2-4.1l1.2-4
								l-3.9-1.2L392.9,29.3z"/>
						</g>
						<g>
							<path class="st2" d="M302.5,610.8l10.7,0.5c3.4,0.2,6.4-2,7.4-5.1l5.4,0.3c2.5,0.1,2.5-3.1-0.1-3.2l-5-0.3
								c-0.2-1.5-0.8-2.9-1.8-4c-1.3-1.4-3.1-2.3-5.1-2.4l-11.4-0.6v2.5l11.3,0.6c6.4,0.3,6.1,10-0.5,9.7l-10.8-0.5v2.5H302.5z
								 M283.6,609.9l18.8,1v-2.5l-15.9-0.8l1.6-9.6l14.3,0.7v-2.5l-16.4-0.8L283.6,609.9z"/>
							<path class="st2" d="M289.5,590.5l-4.1-0.2l-0.2,4.9l-14.2-0.7c-4.1-0.1-7.4,3.1-7.5,7.2c-0.1,4.1,3.1,7.4,7.2,7.5l13.8,0.7
								l-0.2,4.2l4.1,0.2L289.5,590.5z"/>
						</g>
						<g>
							<path class="st2" d="M500.1,454.4l13.6-11.6c2.6-2.2,3.3-5.8,1.9-8.8l4.1-3.5c1.9-1.6-0.3-4-2.3-2.3l-3.8,3.2
								c-1.2-1-2.6-1.5-4.1-1.7c-1.9-0.2-3.8,0.4-5.4,1.7l-4.1,3.5v3.3l5.7-4.8c4.9-4.1,11.3,3.2,6.3,7.4L500,451L500.1,454.4
								L500.1,454.4z M491.2,462l8.9-7.6v-3.3l-8.4,7.1l-5.4-8.1l13.8-11.7v-3.3L483,449.6L491.2,462z"/>
							<path class="st2" d="M482.1,443.9l-3.1,2.6l3.2,3.7l-10.8,9.2c-3,2.7-3.3,7.4-0.6,10.4c2.7,3,7.4,3.3,10.4,0.6l10.5-8.9
								l2.7,3.2l3.1-2.6L482.1,443.9z"/>
						</g>
						<g>
							<path class="st2" d="M227.4,112.7l9.2-28.1c1.1-3.2-0.3-6.7-3-8.5l1.7-5.1c0.8-2.3-2.3-3.2-3.1-0.7l-1.6,4.7
								c-1.5-0.2-3,0.1-4.3,0.7c-0.2,0.1-0.3,0.2-0.5,0.3v3.2c2.9-3.9,10.3-1.1,8.5,4.6l-8.3,25.4l-0.1-0.1v2.8L227.4,112.7z
								 M225.8,76.1c-1.4,0.9-2.6,2.3-3.2,4l-8.7,26.5l11.8,5.5v-2.8l-8.8-4l8-24.3c0.2-0.6,0.5-1.1,0.8-1.5L225.8,76.1L225.8,76.1z
								"/>
							<path class="st2" d="M210.2,102l-1.3,3.9l4.7,1.5l-4.4,13.5c-1.2,3.9,1,8,4.9,9.2s8-1,9.2-4.9l4.3-13.1l4,1.3l1.3-3.9
								L210.2,102z"/>
						</g>
						<g>
							<path class="st2" d="M437.9,338.2l9.2-28.1c1.1-3.2-0.3-6.7-3-8.5l1.7-5.1c0.8-2.3-2.3-3.2-3.1-0.7l-1.6,4.7
								c-1.5-0.2-3,0.1-4.3,0.7c-0.2,0.1-0.3,0.2-0.5,0.3v3.2c2.9-3.9,10.3-1.1,8.5,4.6l-8.3,25.4l-0.1-0.1v2.8L437.9,338.2z
								 M436.3,301.5c-1.4,0.9-2.6,2.3-3.2,4l-8.7,26.5l11.8,5.5v-2.8l-8.8-4l8-24.3c0.2-0.6,0.5-1.1,0.8-1.5v-3.4H436.3z"/>
							<path class="st2" d="M420.7,327.4l-1.3,3.9l4.7,1.5l-4.4,13.5c-1.2,3.9,1,8,4.9,9.2s8-1,9.2-4.9l4.3-13.1l4,1.3l1.3-3.9
								L420.7,327.4z"/>
						</g>
						<g>
							<path class="st2" d="M23.7,364.5L17,335.7c-0.5-2.4-2.2-4.2-4.2-5.1v2.8c0.8,0.6,1.5,1.6,1.8,2.9l6.1,26l-7.8,0.9v2.5
								L23.7,364.5z M12.8,330.7c-0.8-0.4-1.8-0.6-2.7-0.6l-1.2-5.3c-0.6-2.4-3.6-1.5-3.1,1l1.1,4.9c-1.4,0.6-2.6,1.6-3.3,2.9
								c-1,1.6-1.4,3.6-0.9,5.6l6.3,27l3.8-0.4v-2.5l-1.9,0.2l-5.8-25c-1.1-4.9,4.5-7.4,7.7-5.1C12.8,333.4,12.8,330.7,12.8,330.7z"
								/>
							<path class="st2" d="M3.5,364.3l0.9,4l4.8-1.1l3.2,13.8c1,3.9,5,6.3,9,5.3c3.9-1,6.3-5,5.3-9l-3.1-13.4l4.1-0.9l-0.9-4
								L3.5,364.3z"/>
						</g>
						<g>
							<path class="st2" d="M44,352.1c-5-2.6-7.4-8.5-5.4-14c2-5.4,7.6-8.4,13.1-7.2L44,352.1z"/>
							<path class="st2" d="M54.5,331.9c5,2.6,7.4,8.5,5.4,14c-2,5.4-7.6,8.4-13.1,7.2L54.5,331.9z"/>
						</g>
						<path class="st2" d="M413.4,509.8c2.1-0.9,4.1-1.9,5.8-2.9c4.5-2.5,10.4-6.2,12.8-11c0,0,0.1-0.1,0.1-0.2
							c0-0.6-1.3-1.7-1.7-2.1c-1.6-1.3-3.8-2.4-5.7-3.3c-2.1-0.9-4.3-1.7-6.5-2.4c-0.9-0.3-2.7-0.8-3.7-0.8c-0.3,0-0.7,0-1,0v-3.6
							c0.5,0.1,0.8,0.1,0.8,0.1c3.1,0.1,24.6,6.3,20.9,13.8c-3.3,6.7-12.4,11.6-14.2,12.5c-0.9,0.6-3.9,2.3-7.5,3.6L413.4,509.8
							L413.4,509.8z M405.1,492.5c-0.5,0.9-1,2.6-1.3,3.6c-0.6,2.2-1.1,4.5-1.5,6.8c-0.3,2.1-0.5,4.4-0.2,6.5
							c0.1,0.5,0.4,2.2,0.8,2.6c0,0,0.1,0,0.2,0c3.2,0.3,6.9-0.7,10.3-2.1v3.9c-3.3,1.2-7.1,2.2-10.6,1.8
							c-8.3-0.9-2.2-22.3-0.6-25.1c0,0,1.1-1.3,0-3.4c-0.9-1.7-4.5-8.2-5.8-10.4c-1.5,0.3-2.2,0.1-2.6-0.4l-2.7-4.7
							c-0.8-1.4,1.7-4.2,5.2-6.1c3.5-2,7-2.4,7.8-1.1l2.6,4.8c0.2,0.6,0.1,1.3-1,2.5c1.2,2.2,4.8,8.7,5.8,10.4
							c0.6,1.1,1.4,1.6,2,1.7v3.6c-2.2-0.2-4.1-1.7-5.1-3.6c-1.9-3.5-3.8-6.9-5.8-10.4l-1.3-2.3l1.5-1.6l-1.2-2.2
							c-1.2,0.2-2.8,1-3.5,1.4c-0.8,0.4-2.4,1.5-3.2,2.4l1.2,2.2l2.1-0.5l1.3,2.3c1.9,3.5,3.8,6.9,5.8,10.4
							C406.5,487.5,406.6,490.4,405.1,492.5z"/>
						<path class="st2" d="M473.9,387.1c2.1-0.9,4.1-1.9,5.8-2.9c4.5-2.5,10.4-6.2,12.8-11c0,0,0.1-0.1,0.1-0.2
							c0-0.6-1.3-1.7-1.7-2.1c-1.6-1.3-3.8-2.4-5.7-3.3c-2.1-0.9-4.3-1.7-6.5-2.4c-0.9-0.3-2.7-0.8-3.7-0.8c-0.3,0-0.7,0-1,0v-3.6
							c0.5,0.1,0.8,0.1,0.8,0.1c3.1,0.1,24.6,6.3,20.9,13.8c-3.3,6.7-12.4,11.6-14.2,12.5c-0.9,0.6-3.9,2.3-7.5,3.6L473.9,387.1
							L473.9,387.1z M465.6,369.8c-0.5,0.9-1,2.6-1.3,3.6c-0.6,2.2-1.1,4.5-1.5,6.8c-0.3,2.1-0.5,4.4-0.2,6.5
							c0.1,0.5,0.4,2.2,0.8,2.6c0,0,0.1,0,0.2,0c3.2,0.3,6.9-0.7,10.3-2.1v3.9c-3.3,1.2-7.1,2.2-10.6,1.8
							c-8.3-0.9-2.2-22.3-0.6-25.1c0,0,1.1-1.3,0-3.4c-0.9-1.7-4.5-8.2-5.8-10.4c-1.5,0.3-2.2,0.1-2.6-0.4l-2.7-4.7
							c-0.8-1.4,1.7-4.2,5.2-6.1c3.5-2,7-2.4,7.8-1.1l2.6,4.8c0.2,0.6,0.1,1.3-1,2.5c1.2,2.2,4.8,8.7,5.8,10.4
							c0.6,1.1,1.4,1.6,2,1.7v3.6c-2.2-0.2-4.1-1.7-5.1-3.6c-1.9-3.5-3.8-6.9-5.8-10.4l-1.3-2.3l1.5-1.6l-1.2-2.2
							c-1.2,0.2-2.8,1-3.5,1.4c-0.8,0.4-2.4,1.5-3.2,2.4l1.2,2.2l2.1-0.5l1.3,2.3c1.9,3.5,3.8,6.9,5.8,10.4
							C467,364.8,467.2,367.7,465.6,369.8z"/>
						<path class="st2" d="M140,359.8c2.1-0.9,4.1-1.9,5.8-2.9c4.5-2.5,10.4-6.2,12.8-11c0,0,0.1-0.1,0.1-0.2c0-0.6-1.3-1.7-1.7-2.1
							c-1.6-1.3-3.8-2.4-5.7-3.3c-2.1-0.9-4.3-1.7-6.5-2.4c-0.9-0.3-2.7-0.8-3.7-0.8c-0.3,0-0.7,0-1,0v-3.6c0.5,0.1,0.8,0.1,0.8,0.1
							c3.1,0.1,24.6,6.3,20.9,13.8c-3.3,6.7-12.4,11.6-14.2,12.5c-0.9,0.6-3.9,2.3-7.5,3.6v-3.7H140z M131.7,342.5
							c-0.5,0.9-1,2.6-1.3,3.6c-0.6,2.2-1.1,4.5-1.5,6.8c-0.3,2.1-0.5,4.4-0.2,6.5c0.1,0.5,0.4,2.2,0.8,2.6c0,0,0.1,0,0.2,0
							c3.2,0.3,6.9-0.7,10.3-2.1v3.9c-3.3,1.2-7.1,2.2-10.6,1.8c-8.3-0.9-2.2-22.3-0.6-25.1c0,0,1.1-1.3,0-3.4
							c-0.9-1.7-4.5-8.2-5.8-10.4c-1.5,0.3-2.2,0.1-2.6-0.4l-2.7-4.7c-0.8-1.4,1.7-4.2,5.2-6.1c3.5-2,7-2.4,7.8-1.1l2.6,4.8
							c0.2,0.6,0.1,1.3-1,2.5c1.2,2.2,4.8,8.7,5.8,10.4c0.6,1.1,1.4,1.6,2,1.7v3.6c-2.2-0.2-4.1-1.7-5.1-3.6
							c-1.9-3.5-3.8-6.9-5.8-10.4l-1.3-2.3l1.5-1.6l-1.2-2.2c-1.2,0.2-2.8,1-3.5,1.4c-0.8,0.4-2.4,1.5-3.2,2.4l1.2,2.2l2.1-0.5
							l1.3,2.3c1.9,3.5,3.8,6.9,5.8,10.4C133,337.6,133.2,340.5,131.7,342.5z"/>
						<path class="st2" d="M428.8,69.9c3,1.3,6.1,2.2,9,2c0.1,0,0.1,0,0.2,0c0.5-0.3,0.9-2,0.9-2.5c0.3-2.1,0.2-4.5,0-6.6
							c-0.2-2.3-0.6-4.6-1.2-6.8c-0.2-0.9-0.7-2.7-1.1-3.6c-1.5-2.1-1.2-5,0.2-7.1c2.1-3.4,4.1-6.8,6.2-10.1l1.4-2.3l2.1,0.6
							l1.3-2.2c-0.7-0.9-2.2-2-2.9-2.4c-0.7-0.4-2.5-1.3-3.7-1.6l-1.2,2.2l1.5,1.6l-1.4,2.3c-2.1,3.4-4.1,6.8-6.2,10.1
							c-1.1,1.8-3,3.2-5.1,3.4v-3.6c0.6-0.1,1.4-0.5,2.1-1.6c1-1.6,4.9-8,6.2-10.1c-1-1.2-1.2-1.9-0.9-2.5l2.8-4.6
							c0.8-1.3,4.5-0.6,7.9,1.5s5.6,4.9,4.8,6.2l-2.9,4.6c-0.4,0.5-1.1,0.7-2.6,0.3c-1.3,2.2-5.2,8.5-6.2,10.1
							c-1.2,2-0.2,3.3-0.2,3.3c1.5,2.8,6.6,24.5-1.7,25c-3.1,0.2-6.3-0.6-9.2-1.7L428.8,69.9L428.8,69.9z M427.6,46.9
							c-1,0-2.8,0.4-3.7,0.7c-2.2,0.5-4.5,1.2-6.6,2.1c-2,0.8-4.1,1.8-5.8,3c-0.4,0.3-1.7,1.4-1.8,2c0,0.1,0,0.1,0,0.2
							c2.1,4.8,7.9,8.8,12.3,11.5c2,1.2,4.3,2.6,6.8,3.7V74c-4.2-1.6-7.7-3.8-8.7-4.5c-1.8-1-10.7-6.3-13.7-13.1
							c-3.3-7.6,18.4-12.9,21.5-12.9c0,0,0.3,0.1,0.8-0.1V47C428.4,46.9,428,46.9,427.6,46.9z"/>
						<path class="st2" d="M246.8,423.9c3,1.3,6.1,2.2,9,2c0.1,0,0.1,0,0.2,0c0.5-0.3,0.9-2,0.9-2.5c0.3-2.1,0.2-4.5,0-6.6
							c-0.2-2.3-0.6-4.6-1.2-6.8c-0.2-0.9-0.7-2.7-1.1-3.6c-1.5-2.1-1.2-5,0.2-7.1c2.1-3.4,4.1-6.8,6.2-10.1l1.4-2.3l2.1,0.6
							l1.3-2.2c-0.7-0.9-2.2-2-2.9-2.4c-0.7-0.4-2.5-1.3-3.7-1.6l-1.3,2.1l1.5,1.6l-1.4,2.3c-2.1,3.4-4.1,6.8-6.2,10.1
							c-1.1,1.8-3,3.2-5.1,3.4v-3.6c0.6-0.1,1.4-0.5,2.1-1.6c1-1.6,4.9-8,6.2-10.1c-1-1.2-1.2-1.9-0.9-2.5l2.8-4.6
							c0.8-1.3,4.5-0.6,7.9,1.5s5.6,4.9,4.8,6.2l-2.9,4.6c-0.4,0.5-1.1,0.7-2.6,0.3c-1.3,2.2-5.2,8.5-6.2,10.1
							c-1.2,2-0.2,3.3-0.2,3.3c1.5,2.8,6.6,24.5-1.7,25c-3.1,0.2-6.3-0.6-9.2-1.7L246.8,423.9L246.8,423.9z M245.6,400.9
							c-1,0-2.8,0.4-3.7,0.7c-2.2,0.5-4.5,1.2-6.6,2.1c-2,0.8-4.1,1.8-5.8,3c-0.4,0.3-1.7,1.4-1.8,2c0,0.1,0,0.1,0,0.2
							c2.1,4.8,7.9,8.8,12.3,11.5c2,1.2,4.3,2.6,6.8,3.7v3.9c-4.2-1.6-7.7-3.8-8.7-4.5c-1.8-1-10.7-6.3-13.7-13.1
							c-3.3-7.6,18.4-12.9,21.5-12.9c0,0,0.3,0.1,0.8-0.1v3.6C246.4,400.9,246,400.9,245.6,400.9z"/>
						<path class="st2" d="M278.8,167.3c3-1.3,5.9-3.2,8.2-4.8c4.2-2.9,9.7-7.3,11.5-12.2c0,0,0-0.1,0-0.2c-0.1-0.6-1.5-1.6-1.9-1.9
							c-1.8-1.1-4-2-6-2.7c-2.2-0.7-4.5-1.3-6.7-1.7c-0.9-0.2-2.8-0.5-3.7-0.4c-0.5,0.1-0.9,0.1-1.4,0.1v-3.6c0.5,0.1,0.8,0,0.8,0
							c3.1-0.2,25.1,3.7,22.2,11.5c-2.6,7-11.1,12.8-12.8,13.9c-1.1,0.9-5.3,3.9-10.2,5.8V167.3z M271.5,149.6
							c-0.4,0.9-0.7,2.7-0.9,3.7c-0.4,2.3-0.7,4.6-0.7,6.9c-0.1,2.1,0,4.5,0.4,6.5c0.1,0.5,0.6,2.1,1.1,2.5c0,0,0.1,0,0.2,0
							c2.3,0,4.8-0.7,7.3-1.8v3.9c-2.3,0.9-4.8,1.5-7.3,1.5c-8.3,0-4.5-22-3.2-24.9c0,0,1-1.4-0.4-3.3c-1.1-1.6-5.3-7.6-6.8-9.8
							c-1.5,0.5-2.2,0.3-2.7-0.1l-3.1-4.4c-0.9-1.3,1.3-4.3,4.6-6.6c3.3-2.3,6.7-3.2,7.6-1.9l3.1,4.5c0.3,0.6,0.2,1.3-0.8,2.5
							c1.5,2.1,5.7,8.2,6.8,9.8c0.7,1,1.6,1.4,2.2,1.5v3.6c-2-0.1-3.9-1.4-5.1-3.1c-2.3-3.3-4.5-6.5-6.8-9.8l-1.5-2.2l1.4-1.7
							l-1.4-2.1c-1.1,0.3-2.7,1.3-3.4,1.7c-0.7,0.5-2.2,1.7-2.9,2.7l1.4,2l2.1-0.7l1.5,2.2c2.3,3.3,4.5,6.5,6.8,9.8
							C272.3,144.5,272.8,147.4,271.5,149.6z"/>
						<g>
							<path class="st2" d="M237.7,13.5c-0.4-5.6,3.5-10.7,9.1-11.9c5.7-1.1,11.2,2.2,12.9,7.5L237.7,13.5z"/>
							<path class="st2" d="M260.4,12.1c0.4,5.6-3.5,10.7-9.1,11.9c-5.7,1.1-11.2-2.2-12.9-7.5L260.4,12.1z"/>
						</g>
						<g>
							<path class="st2" d="M375.2,78.9c-4.8,2.8-11.2,1.7-14.7-2.9c-3.5-4.6-3-11,0.9-14.9L375.2,78.9z"/>
							<path class="st2" d="M363.7,59.3c4.8-2.8,11.2-1.7,14.7,2.9c3.5,4.6,3,11-0.9,14.9L363.7,59.3z"/>
						</g>
						<g>
							<path class="st2" d="M472.2,238.7c-4.8,2.8-11.2,1.7-14.7-2.9s-3-11,0.9-14.9L472.2,238.7z"/>
							<path class="st2" d="M460.8,219.1c4.8-2.8,11.2-1.7,14.7,2.9s3,11-0.9,14.9L460.8,219.1z"/>
						</g>
						<g>
							<path class="st2" d="M177.7,397c-3.9,4-10.3,4.6-14.9,1.1c-4.6-3.5-5.8-9.8-3.1-14.7L177.7,397z"/>
							<path class="st2" d="M161.5,381.1c3.9-4,10.3-4.6,14.9-1.1s5.8,9.8,3.1,14.7L161.5,381.1z"/>
						</g>
						<path class="st2" d="M181.3,479.1l7.7,9.4c-0.1,4.6-3.3,9.4-7.7,13V493c0.6,0,1.2-0.2,1.7-0.6c1.2-0.9,1.3-2.6,0.4-3.8
							c-0.5-0.7-1.3-1-2.1-1L181.3,479.1L181.3,479.1z M175.3,471.9l5.9,7.2v8.5c-0.6,0-1.2,0.2-1.7,0.6c-1.2,0.9-1.3,2.6-0.4,3.8
							c0.5,0.7,1.3,1,2.1,1v8.5c-1.8,1.5-3.8,2.8-5.9,3.8v-7.4c0.6,0,1.2-0.2,1.7-0.6c1.2-0.9,1.3-2.6,0.4-3.8c-0.5-0.7-1.3-1-2.1-1
							v-3.4c1.1-0.9,1.3-2.6,0.3-3.7c-0.1-0.1-0.2-0.2-0.3-0.3V471.9z M172.1,467.9l3.3,4v13c-0.9-0.8-2.3-0.9-3.3-0.2v-3
							c0.6,0,1.2-0.2,1.7-0.6c1.2-0.9,1.3-2.6,0.4-3.8c-0.5-0.7-1.3-1-2.1-1L172.1,467.9L172.1,467.9z M175.3,505.3
							c-1.1,0.5-2.2,0.9-3.3,1.2v-6c0.1-0.4,0.1-0.7,0-1.1v-10.3c1,0.7,2.3,0.6,3.2-0.1h0.1v3.4c-0.6,0-1.2,0.2-1.7,0.6
							c-1.2,0.9-1.3,2.6-0.4,3.8c0.5,0.7,1.3,1,2.1,1L175.3,505.3L175.3,505.3z M166.2,460.6l5.9,7.2v8.5c-0.6,0-1.2,0.2-1.7,0.6
							c-1.2,0.9-1.3,2.6-0.4,3.8c0.5,0.7,1.3,1,2.1,1v3c-0.1,0-0.1,0.1-0.2,0.1c-1.2,0.9-1.3,2.6-0.4,3.8c0.2,0.2,0.4,0.4,0.6,0.5
							v10.3c-0.1-0.4-0.3-0.8-0.6-1.2c-0.9-1.2-2.6-1.3-3.8-0.4c-1.2,0.9-1.3,2.6-0.4,3.8c0.9,1.2,2.6,1.3,3.8,0.4
							c0.5-0.4,0.8-1,0.9-1.6v6c-2,0.6-4.1,0.8-5.9,0.6v-13.1c1,0.7,2.3,0.6,3.2-0.1c1.2-0.9,1.3-2.6,0.4-3.8
							c-0.9-1.1-2.5-1.3-3.6-0.5v-3c0.6,0,1.2-0.2,1.7-0.6c1.2-0.9,1.3-2.6,0.4-3.8c-0.5-0.7-1.3-1-2.1-1v-20.5H166.2z M166.2,507.1
							l-5.9-7.2v-8.5c0.6,0,1.2-0.2,1.7-0.6c1.2-0.9,1.3-2.6,0.4-3.8c-0.5-0.7-1.3-1-2.1-1v-32.6l5.9,7.2v20.5
							c-0.6,0-1.2,0.2-1.7,0.6c-1.2,0.9-1.3,2.6-0.4,3.8c0.5,0.7,1.3,1,2.1,1v3c-0.1,0-0.1,0.1-0.2,0.1c-1.2,0.9-1.3,2.6-0.4,3.8
							c0.2,0.2,0.4,0.4,0.6,0.5L166.2,507.1L166.2,507.1z M160.2,499.9l-8.5-10.5v-32.6c0.6,0,1.2-0.2,1.7-0.6
							c1.2-0.9,1.3-2.6,0.4-3.8c-0.5-0.7-1.3-1-2.1-1v-8.5l8.5,10.5V486c-0.6,0-1.2,0.2-1.7,0.6c-1.2,0.9-1.3,2.6-0.4,3.8
							c0.5,0.7,1.3,1,2.1,1V499.9z M151.7,489.4l-5.9-7.2v-20.5c0.6,0,1.2-0.2,1.7-0.6c1.2-0.9,1.3-2.6,0.4-3.8
							c-0.5-0.7-1.3-1-2.1-1v-3.4c1.1-0.9,1.3-2.6,0.3-3.7c-0.1-0.1-0.2-0.2-0.3-0.3v-13l0,0l5.9,7.2v8.5c-0.6,0-1.2,0.2-1.7,0.6
							c-1.2,0.9-1.3,2.6-0.4,3.8c0.5,0.7,1.3,1,2.1,1V489.4z M145.8,482.2l-3.3-4v-13.9c0.1-0.4,0.1-0.7,0-1.1v-10.3
							c1,0.7,2.3,0.6,3.2-0.1h0.1v3.4c-0.6,0-1.2,0.2-1.7,0.6c-1.2,0.9-1.3,2.6-0.4,3.8c0.5,0.7,1.3,1,2.1,1L145.8,482.2
							L145.8,482.2z M142.5,435.6c1.1-0.1,2.2-0.1,3.3,0.1v13c-0.9-0.8-2.3-0.9-3.3-0.2v-3c0.6,0,1.2-0.2,1.7-0.6
							c1.2-0.9,1.3-2.6,0.4-3.8c-0.5-0.7-1.3-1-2.1-1L142.5,435.6L142.5,435.6z M142.5,478.2l-5.9-7.2v-13.1c1,0.7,2.3,0.6,3.2-0.1
							c1.2-0.9,1.3-2.6,0.4-3.8c-0.9-1.1-2.5-1.3-3.6-0.5v-3c0.6,0,1.2-0.2,1.7-0.6c1.2-0.9,1.3-2.6,0.4-3.8c-0.5-0.7-1.3-1-2.1-1
							v-7.6c2-0.9,4-1.6,5.9-1.8v4.5c-0.6,0-1.2,0.2-1.7,0.6c-1.2,0.9-1.3,2.6-0.4,3.8c0.5,0.7,1.3,1,2.1,1v3
							c-0.1,0-0.1,0.1-0.2,0.1c-1.2,0.9-1.3,2.6-0.4,3.8c0.2,0.2,0.4,0.4,0.6,0.5v10.3c-0.1-0.4-0.3-0.8-0.6-1.2
							c-0.9-1.2-2.6-1.3-3.8-0.4c-1.2,0.9-1.3,2.6-0.4,3.8c0.9,1.2,2.6,1.3,3.8,0.4c0.5-0.4,0.8-1,0.9-1.6v13.9H142.5z M136.6,470.9
							l-5.9-7.2v-8.5c0.6,0,1.2-0.2,1.7-0.6c1.2-0.9,1.3-2.6,0.4-3.8c-0.5-0.7-1.3-1-2.1-1v-8.5c1.8-1.6,3.8-2.9,5.9-4v7.6
							c-0.6,0-1.2,0.2-1.7,0.6c-1.2,0.9-1.3,2.6-0.4,3.8c0.5,0.7,1.3,1,2.1,1v3c-0.1,0-0.1,0.1-0.2,0.1c-1.2,0.9-1.3,2.6-0.4,3.8
							c0.2,0.2,0.4,0.4,0.6,0.5L136.6,470.9L136.6,470.9z M130.7,463.7l-7.7-9.4c0.4-4.5,3.5-9.3,7.7-13v8.5c-0.6,0-1.2,0.2-1.7,0.6
							c-1.2,0.9-1.3,2.6-0.4,3.8c0.5,0.7,1.3,1,2.1,1L130.7,463.7L130.7,463.7z"/>
						<g>
							<path class="st2" d="M206,537.2c-5.2-2.2-8.1-7.9-6.6-13.5s6.9-9,12.5-8.3L206,537.2z"/>
							<path class="st2" d="M214.8,516.3c5.2,2.2,8.1,7.9,6.6,13.5s-6.9,9-12.5,8.3L214.8,516.3z"/>
						</g>
						<g>
							<path class="st2" d="M363.4,199.4c1.2-1.1,2.3-2.4,3-3.8l-3,1.4v-4.1l4.6-2.2l6.8-3.2l1.3-0.6l1.6,3.3l-3,1.4
								c-0.5,4.2-2.4,8.1-5.2,11.2c4.1-1.1,7.4-1.2,8.3,0.6l1.3,2.8l-15.7,7.4v-3.4c0.4,0,0.8-0.1,1.2-0.3c1.4-0.7,2-2.3,1.3-3.7
								c-0.5-1-1.5-1.6-2.5-1.6L363.4,199.4L363.4,199.4z M336.1,165.1l7.4-6.9l19.3,20.5l-7.4,6.9l-7.7-8.2
								c-6,3.5-8.4,11.1-5.4,17.5c3.2,6.8,11.3,9.6,18,6.4c1.1-0.5,2.1-1.2,3-2v5.5c-0.4,0-0.8,0.1-1.2,0.3c-1.4,0.6-2,2.3-1.3,3.7
								c0.5,1,1.5,1.6,2.5,1.6v3.4l-11.1,5.2l-1.3-2.8c-0.9-1.8,1.3-4.4,4.8-6.8c-8,0.5-15.9-3.9-19.6-11.6
								c-4.3-9.1-1.3-19.8,6.8-25.4L336.1,165.1L336.1,165.1z M363.4,197.1V193l-4,1.9l1.6,3.3L363.4,197.1z"/>
							
								<rect x="344.4" y="157.9" transform="matrix(0.7285 -0.6851 0.6851 0.7285 -22.9578 286.0844)" class="st2" width="10.1" height="28.2"/>
							
								<rect x="359.3" y="190.8" transform="matrix(0.9035 -0.4285 0.4285 0.9035 -47.0028 176.5092)" class="st2" width="18.5" height="3.7"/>
						</g>
						<path class="st2" d="M295.6,100.3l-11.4,6.4c-1.3,0.7-2.6,1.1-3.9,1.4v-2.6c0.8-0.2,1.6-0.5,2.4-0.9l8.8-4.9l-8.9-15.9
							l-2.3,1.3v-3.2l3.7-2.1l11.4-6.4c5.7-3.2,12.9-1.1,16.1,4.5l0,0c3.2,5.7,1.1,12.9-4.5,16.1L295.6,100.3z M280.3,108
							c-4.8,0.7-9.7-1.5-12.2-5.9l0,0c-3.2-5.7-1.1-12.9,4.5-16.1l7.6-4.3v3.2l-6.5,3.6c-4.4,2.5-6,8.1-3.5,12.4l0,0
							c2,3.6,6.2,5.3,10,4.4v2.7H280.3z"/>
						<path class="st2" d="M418,263l-11.4,6.4c-1.3,0.7-2.6,1.1-3.9,1.4v-2.6c0.8-0.2,1.6-0.5,2.4-0.9l8.8-4.9l-8.9-15.9l-2.3,1.3
							v-3.2l3.7-2.1l11.4-6.4c5.7-3.2,12.9-1.1,16.1,4.5l0,0c3.2,5.7,1.1,12.9-4.5,16.1L418,263z M402.7,270.7
							c-4.8,0.7-9.7-1.5-12.2-5.9l0,0c-3.2-5.7-1.1-12.9,4.5-16.1l7.6-4.3v3.2l-6.5,3.6c-4.4,2.5-6,8.1-3.5,12.4l0,0
							c2,3.6,6.2,5.3,10,4.4v2.7H402.7z"/>
						<g>
							<path class="st2" d="M115.9,236.5c-1.3,5.5-6.4,9.3-12.2,8.7c-5.7-0.6-10.1-5.3-10.2-10.9L115.9,236.5z"/>
							<path class="st2" d="M93.7,231.4c1.3-5.5,6.4-9.3,12.2-8.7c5.7,0.6,10.1,5.3,10.2,10.9L93.7,231.4z"/>
						</g>
						<g>
							<path class="st2" d="M75.6,188.8c-1.3,5.5-6.4,9.3-12.2,8.7c-5.7-0.6-10.1-5.3-10.2-10.9L75.6,188.8z"/>
							<path class="st2" d="M53.4,183.6c1.3-5.5,6.4-9.3,12.2-8.7c5.7,0.6,10.1,5.3,10.2,10.9L53.4,183.6z"/>
						</g>
						<g>
							<path class="st2" d="M319,497.7c-5.2-2.2-8.1-7.9-6.6-13.5s6.9-9,12.5-8.3L319,497.7z"/>
							<path class="st2" d="M327.7,476.7c5.2,2.2,8.1,7.9,6.6,13.5s-6.9,9-12.5,8.3L327.7,476.7z"/>
						</g>
						<g>
							<path class="st2" d="M266,207.4c-0.1,5.6-4.3,10.4-10,11.1c-5.7,0.7-11-3.1-12.3-8.5L266,207.4z"/>
							<path class="st2" d="M243.3,207.1c0.1-5.6,4.3-10.4,10-11.1s11,3.1,12.3,8.5L243.3,207.1z"/>
						</g>
						<path class="st2" d="M307.5,201.9l-7.8,5.9c-1.2,0.9-2.5,1.4-3.8,1.7v-1.9c0.9-0.2,1.7-0.6,2.5-1.2l6-4.6l-8.3-10.9l-0.2,0.2
							v-2.6l0.9-0.7l7.8-5.9c3.9-2.9,9.5-2.2,12.4,1.7l0,0c2.9,3.9,2.2,9.5-1.7,12.4L307.5,201.9z M295.9,209.5
							c-3.2,0.5-6.5-0.7-8.6-3.4l0,0c-2.9-3.9-2.2-9.5,1.7-12.4l6.9-5.2v2.6l-5.8,4.4c-3,2.3-3.6,6.6-1.3,9.6l0,0
							c1.7,2.2,4.5,3.1,7.1,2.5L295.9,209.5L295.9,209.5z"/>
						<path class="st2" d="M256.7,509.9l4.5,8.6c2.3,4.3,0.6,9.7-3.7,12l0,0c-1.7,0.9-3.6,1.2-5.3,0.9v-1.9c1.5,0.3,3.1,0.1,4.5-0.6
							l0,0c3.3-1.7,4.6-5.9,2.9-9.2l-3.5-6.7l-3.9,2.1v-13.8l0,0L256.7,509.9z M252.1,531.4c-2.7-0.4-5.3-2-6.6-4.7l-4.5-8.6
							l-4.5-8.6c-2.3-4.3-0.6-9.7,3.7-12l0,0c4.3-2.3,9.7-0.6,11.9,3.7V515l-8.2,4.3l3.5,6.7c1,1.9,2.8,3.1,4.7,3.5L252.1,531.4
							L252.1,531.4z"/>
						<path class="st2" d="M88.7,397.6l4.5,8.6c2.3,4.3,0.6,9.7-3.7,12l0,0c-1.7,0.9-3.6,1.2-5.3,0.9v-1.9c1.5,0.3,3.1,0.1,4.5-0.6
							l0,0c3.3-1.7,4.6-5.9,2.9-9.2l-3.5-6.7l-3.9,2.1V389l0,0L88.7,397.6z M84.2,419.1c-2.7-0.4-5.3-2-6.6-4.7l-4.5-8.6l-4.5-8.6
							c-2.3-4.3-0.6-9.7,3.7-12l0,0c4.3-2.3,9.7-0.6,11.9,3.7v13.8L76,407l3.5,6.7c1,1.9,2.8,3.1,4.7,3.5V419.1z"/>
						<path class="st2" d="M563.5,219.7l4.5,8.6c2.3,4.3,0.6,9.7-3.7,12l0,0c-1.7,0.9-3.6,1.2-5.3,0.9v-1.9c1.5,0.3,3.1,0.1,4.5-0.6
							l0,0c3.3-1.7,4.6-5.9,2.9-9.2l-3.5-6.7l-3.9,2.1v-13.8l0,0L563.5,219.7z M559,241.2c-2.7-0.4-5.3-2-6.6-4.7l-4.5-8.6l-4.5-8.6
							c-2.3-4.3-0.6-9.7,3.7-12l0,0c4.3-2.3,9.7-0.6,11.9,3.7v13.8l-8.2,4.3l3.5,6.7c1,1.9,2.8,3.1,4.7,3.5L559,241.2L559,241.2z"/>
						<path class="st2" d="M155.4,127.3l-0.6-0.5v-2.6l8.5-10.7l-5.9-4.7c-0.8-0.6-1.7-1.1-2.6-1.3v-2c1.4,0.2,2.8,0.8,4,1.8
							l7.6,6.1l7.6,6.1c3.8,3,4.5,8.6,1.4,12.5l0,0c-3,3.8-8.6,4.5-12.5,1.4L155.4,127.3z M154.8,126.8l-7-5.6
							c-3.8-3-4.5-8.6-1.4-12.5l0,0c2.1-2.6,5.3-3.7,8.4-3.2v2c-2.5-0.6-5.3,0.2-7,2.4l0,0c-2.3,2.9-1.8,7.3,1.1,9.6l5.9,4.7l0,0
							V126.8z"/>
						<path class="st2" d="M500.5,231.1l-0.6-0.5V228l8.5-10.7l-5.9-4.7c-0.8-0.6-1.7-1.1-2.6-1.3v-2c1.4,0.2,2.8,0.8,4,1.8l7.6,6.1
							l7.6,6.1c3.8,3,4.5,8.6,1.4,12.5l0,0c-3,3.8-8.6,4.5-12.5,1.4L500.5,231.1z M499.9,230.5l-7-5.6c-3.8-3-4.5-8.6-1.4-12.5l0,0
							c2.1-2.6,5.3-3.7,8.4-3.2v2c-2.5-0.6-5.3,0.2-7,2.4l0,0c-2.3,2.9-1.8,7.3,1.1,9.6l5.9,4.7l0,0V230.5z"/>
						<path class="st2" d="M553.1,149l-7.3,6.4c-1.3,1.1-2.8,1.8-4.3,2.1v-1.9c1-0.3,2-0.8,2.9-1.5l5.7-5l-8.5-9.7v-3.8l7.3-6.4
							c3.7-3.2,9.3-2.9,12.5,0.8l0,0c3.2,3.7,2.9,9.3-0.8,12.5L553.1,149z M541.5,157.5c-2.9,0.5-6.1-0.5-8.2-2.9l0,0
							c-3.2-3.7-2.9-9.3,0.8-12.5l7.3-6.4l0.1-0.1v3.8l-0.5-0.6l-5.7,5c-2.8,2.5-3.1,6.8-0.6,9.7l0,0c1.7,2,4.4,2.7,6.8,2.1
							L541.5,157.5L541.5,157.5z"/>
						<path class="st2" d="M260.4,45.8l6.5,4.5c4,2.8,5,8.3,2.3,12.3l0,0c-2,2.9-5.5,4.2-8.7,3.7v-2c2.7,0.6,5.6-0.4,7.3-2.8l0,0
							c2.1-3.1,1.4-7.4-1.7-9.5l-5.5-3.8v-2.4H260.4z M258.9,44.7l1.6,1.1v2.4l-0.7-0.5L252,59l6.2,4.3c0.7,0.5,1.5,0.8,2.3,1v2
							c-1.3-0.2-2.5-0.7-3.6-1.4l-8-5.5l-8-5.5c-4-2.8-5-8.3-2.3-12.3l0,0c2.8-4,8.3-5,12.3-2.3L258.9,44.7z"/>
						<path class="st2" d="M174.3,419.7l6.5,4.5c4,2.8,5,8.3,2.3,12.3l0,0c-2,2.9-5.5,4.2-8.7,3.7v-2c2.7,0.6,5.6-0.4,7.3-2.8l0,0
							c2.1-3.1,1.4-7.4-1.7-9.5l-5.5-3.8v-2.4H174.3z M172.8,418.6l1.6,1.1v2.4l-0.7-0.5l-7.8,11.3l6.2,4.3c0.7,0.5,1.5,0.8,2.3,1v2
							c-1.3-0.2-2.5-0.7-3.6-1.4l-8-5.5l-8-5.5c-4-2.8-5-8.3-2.3-12.3l0,0c2.8-4,8.3-5,12.3-2.3L172.8,418.6z"/>
						<path class="st2" d="M69.5,220.6c2.5-0.4,5.1,0.2,7.2,1.9l0,0c3.8,3.1,4.3,8.7,1.2,12.5l-6.2,7.5l-2.2,2.6v-7.6l2.1,1.7
							l4.8-5.8c2.4-2.9,2-7.2-0.9-9.6l0,0c-1.7-1.4-3.9-1.8-6-1.4V220.6z M57.9,231.3l6.2-7.5c1.4-1.7,3.3-2.7,5.3-3.1v1.9
							c-1.4,0.3-2.7,1.1-3.7,2.3l-4.8,5.8l8.5,7v7.6l-4,4.9c-3.1,3.8-8.7,4.3-12.5,1.2l0,0c-3.8-3.1-4.3-8.7-1.2-12.5L57.9,231.3z"
							/>
						<path class="st2" d="M108.2,258c2.5-0.4,5.1,0.2,7.2,1.9l0,0c3.8,3.1,4.3,8.7,1.2,12.5l-6.2,7.5l-2.2,2.6v-7.6l2.1,1.7
							l4.8-5.8c2.4-2.9,2-7.2-0.9-9.6l0,0c-1.7-1.4-3.9-1.8-6-1.4V258z M96.7,268.6l6.2-7.5c1.4-1.7,3.3-2.7,5.3-3.1v1.9
							c-1.4,0.3-2.7,1.1-3.7,2.3l-4.8,5.8l8.5,7v7.6l-4,4.9c-3.1,3.8-8.7,4.3-12.5,1.2l0,0c-3.8-3.1-4.3-8.7-1.2-12.5L96.7,268.6z"
							/>
						<path class="st2" d="M239.8,243.6c1.6,0.3,3.2,1,4.5,2.2l7.1,6.6l7.1,6.6c3.6,3.3,3.8,9,0.5,12.5l0,0c-3.3,3.6-9,3.8-12.5,0.5
							l-6.8-6.3v-4.2l8.5-9.2l-5.5-5.1c-0.9-0.8-1.9-1.4-3-1.6v-2H239.8z M239.4,265.4l-7.1-6.6c-3.6-3.3-3.8-9-0.5-12.5l0,0
							c2.1-2.3,5.1-3.2,8-2.7v2c-2.3-0.6-4.9,0.1-6.7,2l0,0c-2.6,2.8-2.4,7.1,0.4,9.7l5.5,5.1l0.8-0.9v4.3L239.4,265.4z"/>
						<path class="st2" d="M464,487.3c1.8-0.3,3.7,0,5.4,0.9l0,0c4.3,2.3,6,7.7,3.7,12l-4.5,8.6l-4.5,8.6l-0.1,0.1v-13.9l3.9,2.1
							l3.5-6.7c1.8-3.3,0.5-7.5-2.9-9.2l0,0c-1.4-0.8-3.1-0.9-4.5-0.6V487.3z M452.9,500.6l4.5-8.6c1.4-2.6,3.8-4.2,6.5-4.6v1.9
							c-1.9,0.4-3.7,1.6-4.7,3.5l-3.5,6.7l8.2,4.3v13.9c-2.3,4.2-7.6,5.8-11.9,3.6l0,0c-4.3-2.3-6-7.7-3.7-12L452.9,500.6z"/>
						<path class="st2" d="M129.6,489.5c3.8,0.3,7.2,3.1,8.1,7l2,9.5l2,9.5c1,4.8-2.1,9.5-6.8,10.5l0,0c-1.8,0.4-3.7,0.2-5.3-0.5
							v-19.9l7.6-1.6l-1.6-7.4c-0.6-3-3.1-5.1-6-5.4V489.5z M122.3,509.7l-2-9.5c-1-4.8,2.1-9.5,6.8-10.5l0,0
							c0.8-0.2,1.7-0.2,2.5-0.2v1.8c-0.7-0.1-1.4,0-2.1,0.1l0,0c-3.7,0.8-6.1,4.4-5.3,8.1l1.6,7.4l5.8-1.2v19.9
							c-2.6-1.1-4.6-3.4-5.2-6.3L122.3,509.7z"/>
						<g>
							<path class="st2" d="M319,128.5c-3.8-1.6-5.9-5.7-4.8-9.8c1.1-4,5-6.5,9.1-6L319,128.5z"/>
							<path class="st2" d="M325.4,113.3c3.8,1.6,5.9,5.7,4.8,9.8c-1.1,4-5,6.5-9.1,6L325.4,113.3z"/>
						</g>
						<g>
							<path class="st2" d="M462.8,115.1c0.8-4,4.5-6.8,8.7-6.5s7.4,3.7,7.6,7.8L462.8,115.1z"/>
							<path class="st2" d="M478.9,118.5c-0.8,4-4.5,6.8-8.7,6.5s-7.4-3.7-7.6-7.8L478.9,118.5z"/>
						</g>
						<g>
							<path class="st2" d="M79.8,326.7c0.8-4,4.5-6.8,8.7-6.5s7.4,3.7,7.6,7.8L79.8,326.7z"/>
							<path class="st2" d="M95.9,330.1c-0.8,4-4.5,6.8-8.7,6.5s-7.4-3.7-7.6-7.8L95.9,330.1z"/>
						</g>
						<g>
							<path class="st2" d="M99.1,467.1c-3.8-1.6-5.9-5.7-4.8-9.8c1.1-4,5-6.5,9.1-6L99.1,467.1z"/>
							<path class="st2" d="M105.5,451.9c3.8,1.6,5.9,5.7,4.8,9.8c-1.1,4-5,6.5-9.1,6L105.5,451.9z"/>
						</g>
						<g>
							<path class="st2" d="M336.8,398.5c0.5-4,4-7.1,8.2-7.1s7.6,3.2,8.1,7.2L336.8,398.5z"/>
							<path class="st2" d="M353.1,400.8c-0.5,4-4,7.1-8.2,7.1s-7.6-3.2-8.1-7.2L353.1,400.8z"/>
						</g>
						<g>
							<path class="st2" d="M425.1,533.4c-3.8-1.6-5.9-5.7-4.8-9.8c1.1-4,5-6.5,9.1-6L425.1,533.4z"/>
							<path class="st2" d="M431.5,518.2c3.8,1.6,5.9,5.7,4.8,9.8c-1.1,4-5,6.5-9.1,6L431.5,518.2z"/>
						</g>
						<g>
							<path class="st2" d="M232.4,555.4c0.1-4.1,3.1-7.6,7.3-8c4.2-0.5,7.9,2.2,8.9,6.2L232.4,555.4z"/>
							<path class="st2" d="M248.9,555.7c-0.1,4.1-3.1,7.6-7.3,8c-4.2,0.5-7.9-2.2-8.9-6.2L248.9,555.7z"/>
						</g>
						<g>
							<path class="st2" d="M514.2,359.7c-3.8-1.6-5.9-5.7-4.8-9.8c1.1-4,5-6.5,9.1-6L514.2,359.7z"/>
							<path class="st2" d="M520.5,344.6c3.8,1.6,5.9,5.7,4.8,9.8c-1.1,4-5,6.5-9.1,6L520.5,344.6z"/>
						</g>
						<g>
							<path class="st2" d="M437.6,393.9c-3.3,2.4-7.9,2.1-10.8-0.9s-3.1-7.7-0.5-10.8L437.6,393.9z"/>
							<path class="st2" d="M427.8,380.6c3.3-2.4,7.9-2.1,10.8,0.9s3.1,7.7,0.5,10.8L427.8,380.6z"/>
						</g>
						<g>
							<path class="st2" d="M587.5,405.2c-3.8-1.6-5.9-5.7-4.8-9.8c1.1-4,5-6.5,9.1-6L587.5,405.2z"/>
							<path class="st2" d="M593.8,390c3.8,1.6,5.9,5.7,4.8,9.8c-1.1,4-5,6.5-9.1,6L593.8,390z"/>
						</g>
						<g>
							<path class="st2" d="M100.1,89.2c-3.8-1.6-5.9-5.7-4.8-9.8c1.1-4,5-6.5,9.1-6L100.1,89.2z"/>
							<path class="st2" d="M106.5,74.1c3.8,1.6,5.9,5.7,4.8,9.8c-1.1,4-5,6.5-9.1,6L106.5,74.1z"/>
						</g>
						<g>
							<path class="st2" d="M19.7,194.1c0-4.1,3.1-7.6,7.3-8.1s8,2.2,8.9,6.2L19.7,194.1z"/>
							<path class="st2" d="M36.2,194.3c0,4.1-3.1,7.6-7.3,8.1s-8-2.2-8.9-6.2L36.2,194.3z"/>
						</g>
						<g>
							<path class="st2" d="M40.4,457.4c0-4.1,3.1-7.6,7.3-8.1s8,2.2,8.9,6.2L40.4,457.4z"/>
							<path class="st2" d="M56.8,457.6c0,4.1-3.1,7.6-7.3,8.1s-8-2.2-8.9-6.2L56.8,457.6z"/>
						</g>
						<g>
							<path class="st2" d="M203.5,590.5c0-4.1,3.1-7.6,7.3-8.1s8,2.2,8.9,6.1L203.5,590.5z"/>
							<path class="st2" d="M220,590.8c0,4.1-3.1,7.6-7.3,8.1s-8-2.2-8.9-6.2L220,590.8z"/>
						</g>
						<g>
							<path class="st2" d="M525.7,502c0.4-4.1,3.8-7.3,8-7.4c4.2-0.1,7.7,2.9,8.4,6.9L525.7,502z"/>
							<path class="st2" d="M542,503.7c-0.4,4.1-3.8,7.3-8,7.4c-4.2,0.1-7.7-2.9-8.4-6.9L542,503.7z"/>
						</g>
						<g>
							<path class="st2" d="M461,54.6c-4-0.8-6.9-4.4-6.6-8.6c0.3-4.2,3.6-7.4,7.7-7.7L461,54.6z"/>
							<path class="st2" d="M464.2,38.5c4,0.8,6.9,4.4,6.6,8.6c-0.3,4.2-3.6,7.4-7.7,7.7L464.2,38.5z"/>
						</g>
						<g>
							<path class="st2" d="M336.7,10.8c-3.8,1.6-8.2,0.1-10.3-3.5c-2.1-3.6-1.1-8.2,2.1-10.6L336.7,10.8z"/>
							<path class="st2" d="M330.4-4.4c3.8-1.6,8.2-0.1,10.3,3.5c2.1,3.6,1.1,8.2-2.1,10.6L330.4-4.4z"/>
						</g>
						<g>
							<path class="st2" d="M220.9,18.7c0.5,4-2.1,7.9-6.1,9c-4.1,1-8.2-1.1-9.7-4.9L220.9,18.7z"/>
							<path class="st2" d="M204.6,20.7c-0.5-4,2.1-7.9,6.1-9c4.1-1,8.2,1.1,9.7,4.9L204.6,20.7z"/>
						</g>
						<g>
							<path class="st2" d="M343.9,609.8c-3.8-1.6-5.9-5.7-4.8-9.8c1.1-4,5-6.5,9.1-6L343.9,609.8z"/>
							<path class="st2" d="M350.3,594.6c3.8,1.6,5.9,5.7,4.8,9.8c-1.1,4-5,6.5-9.1,6L350.3,594.6z"/>
						</g>
					</g>
				</g>
			</g>
		</g>
	</g>
	<g>
		<g>
			<path class="st3" d="M487,259.5h-15.4c-3.1,0-5.7-2.5-5.7-5.7v-7.3c-2.3-0.4-4.5-1-6.7-1.7l-3.9,6.7c-1,1.7-2.9,2.8-4.9,2.8
				c-1,0-2-0.3-2.8-0.8l-13.3-7.7c-1.3-0.8-2.3-2-2.7-3.4c-0.4-1.5-0.2-3,0.6-4.3l3.7-6.3c-1.7-1.5-3.4-3.1-5-4.9l-6.7,3.8
				c-0.9,0.5-1.9,0.8-2.8,0.8c-2,0-3.9-1.1-4.9-2.8l-7.7-13.3c-0.8-1.3-1-2.8-0.6-4.3s1.3-2.7,2.7-3.5l6.3-3.7
				c-0.7-2.2-1.4-4.4-1.9-6.7h-7.7c-3.1,0-5.7-2.6-5.7-5.7v-15.3c0-3.1,2.6-5.7,5.7-5.7h7.3c0.4-2.3,1-4.5,1.7-6.7l-6.7-3.8
				c-1.3-0.8-2.3-2-2.7-3.5c-0.4-1.5-0.2-3,0.6-4.3l7.7-13.3c1-1.8,2.9-2.8,5-2.8c1,0,2,0.3,2.8,0.8l6.3,3.7c1.5-1.7,3.1-3.4,4.8-5
				l-3.8-6.7c-0.8-1.3-1-2.9-0.6-4.3c0.4-1.5,1.3-2.7,2.6-3.4l13.3-7.7c0.9-0.5,1.9-0.8,2.9-0.8c2,0,3.9,1.1,4.9,2.8l3.6,6.3
				c2.2-0.7,4.4-1.4,6.7-1.9v-7.7c0-3.1,2.6-5.7,5.7-5.7H485c3.1,0,5.7,2.6,5.7,5.7v7.3c2.3,0.5,4.6,1,6.7,1.7l3.8-6.6
				c1-1.8,2.9-2.8,4.9-2.8c1,0,2,0.3,2.8,0.8l13.3,7.7c2.7,1.6,3.7,5.1,2.1,7.8l-3.7,6.3c1.7,1.5,3.4,3.1,5,4.8l6.7-3.8
				c0.9-0.5,1.8-0.8,2.8-0.8c2,0,3.9,1.1,4.9,2.8l7.7,13.3c1.6,2.7,0.6,6.2-2.1,7.8l-6.3,3.7c0.8,2.2,1.4,4.5,1.9,6.7h7.7
				c1.5,0,3,0.6,4,1.7c1.1,1.1,1.7,2.5,1.7,4v15.3c0,3.1-2.6,5.7-5.7,5.7h-7.3c-0.5,2.3-1,4.5-1.7,6.7l6.7,3.8
				c2.7,1.6,3.6,5.1,2.1,7.8l-7.7,13.3c-1,1.8-2.9,2.8-4.9,2.8c-1,0-2-0.3-2.8-0.8l-6.4-3.7c-1.5,1.7-3.1,3.4-4.9,5l3.8,6.7
				c1.6,2.7,0.6,6.2-2.1,7.8l-13.3,7.7c-0.9,0.5-1.9,0.8-2.8,0.8c-2,0-3.9-1.1-4.9-2.8l-3.7-6.3c-2.2,0.7-4.4,1.4-6.7,1.9v7.7
				C492.7,257,490.1,259.5,487,259.5L487,259.5z M457.5,240.3l1.4,0.5c3,1,6.1,1.8,9.2,2.3l1.5,0.3v10.4c0,1.1,0.9,2,2,2H487
				c1.1,0,2-0.9,2-2v-10.7l1.5-0.3c3.1-0.6,6.2-1.5,9.1-2.6l1.5-0.5l5.2,9c0.5,0.9,1.8,1.3,2.7,0.7l13.3-7.7c1-0.5,1.3-1.8,0.7-2.7
				l-5.4-9.3l1.1-1c2.4-2.1,4.6-4.4,6.6-6.8l1-1.2l9,5.2c0.9,0.5,2.2,0.2,2.7-0.7l7.7-13.3c0.6-0.9,0.2-2.2-0.7-2.7l-9.3-5.4
				l0.5-1.4c1-2.9,1.8-6,2.3-9.1l0.3-1.5h10.4c1.1,0,2-0.9,2-2v-15.3c0-0.5-0.2-1-0.6-1.4c-0.4-0.4-0.9-0.6-1.4-0.6h-10.7l-0.3-1.5
				c-0.6-3-1.5-6.1-2.6-9.1l-0.5-1.5l9-5.2c0.9-0.5,1.3-1.8,0.7-2.7l-7.7-13.3c-0.5-0.9-1.8-1.3-2.7-0.7l-9.3,5.4l-1-1.1
				c-2.1-2.4-4.4-4.6-6.8-6.6l-1.2-1l5.2-9c0.5-0.9,0.2-2.2-0.7-2.7l-13.3-7.7c-0.9-0.5-2.2-0.2-2.7,0.7l-5.4,9.3l-1.4-0.5
				c-2.9-1-6-1.8-9.2-2.3l-1.5-0.3v-10.4c0-1.1-0.9-2-2-2h-15.3c-1.1,0-2,0.9-2,2V123l-1.5,0.3c-3.1,0.6-6.2,1.5-9.1,2.6l-1.5,0.5
				l-5.2-9c-0.5-0.9-1.8-1.3-2.7-0.7l-13.3,7.7c-0.5,0.3-0.8,0.7-0.9,1.2s-0.1,1.1,0.2,1.5l5.4,9.3l-1.1,1c-2.4,2.1-4.6,4.4-6.6,6.8
				l-1,1.2l-9-5.2c-0.9-0.5-2.2-0.2-2.7,0.8l-7.7,13.3c-0.3,0.5-0.3,1-0.2,1.5c0.1,0.5,0.5,0.9,0.9,1.2l9.3,5.4l-0.5,1.4
				c-1,3-1.8,6-2.3,9.2l-0.3,1.5h-10.4c-1.1,0-2,0.9-2,2v15c0,1.1,0.9,2,2,2h10.7l0.3,1.5c0.6,3.1,1.5,6.2,2.6,9.1l0.5,1.5l-9,5.2
				c-0.5,0.3-0.8,0.7-0.9,1.2s-0.1,1,0.2,1.5l7.7,13.3c0.5,0.9,1.8,1.3,2.7,0.7l9.3-5.3l1,1.1c2.1,2.4,4.4,4.6,6.8,6.6l1.2,1l-5.2,9
				c-0.3,0.5-0.3,1-0.2,1.5c0.1,0.5,0.5,0.9,0.9,1.2l13.3,7.7c0.9,0.5,2.2,0.2,2.7-0.7L457.5,240.3L457.5,240.3z M478.4,224.7
				c-23,0-41.7-18.7-41.7-41.7s18.7-41.7,41.7-41.7s41.7,18.7,41.7,41.7S501.4,224.7,478.4,224.7L478.4,224.7z M478.4,145
				c-20.9,0-38,17-38,38c0,20.9,17,38,38,38c20.9,0,38-17,38-38C516.4,162.1,499.4,145,478.4,145L478.4,145z"/>
		</g>
	</g>
	<path class="st3" d="M521,96.6l-2.6-1c-0.6-0.2-1.1-1-1-1.6v-1.3c-0.1-0.6,0.4-1.4,1-1.6l2.5-1.1c0.6-0.2,0.9-0.9,0.6-1.5l-1.7-3.9
		c-0.3-0.6-0.9-0.9-1.5-0.6l-2.5,1.1c-0.6,0.3-1.4,0.1-1.8-0.4l-1-0.9c-0.5-0.4-0.7-1.2-0.5-1.8l1-2.6c0.2-0.6-0.1-1.3-0.7-1.5
		l-4-1.6c-0.6-0.2-1.3,0.1-1.5,0.6l-1,2.6c-0.2,0.6-0.9,1.1-1.6,1h-1.3c-0.6,0.1-1.4-0.4-1.6-1l-1.1-2.5c-0.3-0.6-0.9-0.9-1.5-0.6
		l-3.9,1.7c-0.6,0.3-0.9,0.9-0.6,1.5l1.1,2.5c0.3,0.6,0.1,1.4-0.4,1.8l-0.9,1c-0.4,0.5-1.2,0.7-1.8,0.5l-2.6-1
		c-0.6-0.2-1.3,0.1-1.5,0.7l-1.6,4c-0.2,0.6,0.1,1.3,0.7,1.5l2.6,1c0.6,0.2,1.1,0.9,1,1.6v1.3c0.1,0.6-0.4,1.4-1,1.6l-2.5,1.1
		c-0.6,0.3-0.9,0.9-0.6,1.5l1.7,3.9c0.3,0.6,0.9,0.9,1.5,0.6l2.5-1.1c0.6-0.3,1.4-0.1,1.8,0.4l1,0.9c0.5,0.4,0.7,1.2,0.5,1.8l-1,2.6
		c-0.2,0.6,0.1,1.3,0.7,1.5l4,1.6c0.6,0.2,1.3-0.1,1.5-0.6l1-2.6c0.2-0.6,1-1.1,1.6-1h1.3c0.6-0.1,1.4,0.4,1.6,1l1.1,2.5
		c0.3,0.6,0.9,0.9,1.5,0.6l3.9-1.7c0.6-0.2,0.9-0.9,0.6-1.5l-1.1-2.5c-0.2-0.6-0.1-1.4,0.4-1.8l0.9-1c0.4-0.5,1.2-0.7,1.8-0.5l2.6,1
		c0.6,0.2,1.3-0.1,1.5-0.7l1.6-4C521.9,97.5,521.6,96.9,521,96.6z M502.2,98.8c-2.9-1.1-4.3-4.4-3.1-7.3c1.1-2.9,4.4-4.3,7.3-3.2
		s4.3,4.4,3.1,7.3C508.4,98.5,505.1,99.9,502.2,98.8z"/>
	<g>
		<g>
			<path class="st4" d="M248.4,432.2c-4.3,17.7-8.7,35.4-13,53c40.4,0,80.7,0,121.1,0c-4.3-17.7-8.7-35.4-13-53
				C311.8,432.2,280.1,432.2,248.4,432.2z"/>
			<path class="st5" d="M364,484.3H228c-3.5,0-6.3,3.3-6.3,7.3v2.8h148.6v-2.8C370.3,487.6,367.5,484.3,364,484.3z"/>
			<path class="st5" d="M91.4,411.6v29.2c0,5.6,4.6,10.2,10.2,10.2h388.8c5.6,0,10.2-4.6,10.2-10.2v-29.2H91.4z"/>
			<path class="st6" d="M500.5,411.6V164.1c0-5.6-4.6-10.2-10.2-10.2H101.6c-5.6,0-10.2,4.6-10.2,10.2v247.5H500.5z"/>
			<rect x="108.2" y="169.8" class="st2" width="375.6" height="224.9"/>
		</g>
		<g>
			<rect x="149.7" y="357.6" class="st7" width="17.2" height="22.9"/>
			<rect x="184.1" y="337" class="st7" width="17.2" height="43.6"/>
			<rect x="218.5" y="321.2" class="st7" width="17.2" height="59.4"/>
			<rect x="253" y="335.5" class="st7" width="17.2" height="45.1"/>
			<rect x="287.4" y="284.2" class="st7" width="17.2" height="96.4"/>
			<rect x="321.8" y="301.4" class="st7" width="17.2" height="79.2"/>
			<rect x="356.2" y="265.9" class="st7" width="17.2" height="114.7"/>
			<rect x="390.6" y="233.7" class="st7" width="17.2" height="146.8"/>
			<rect x="425" y="200.5" class="st7" width="17.2" height="180.1"/>
		</g>
		<g>
			<rect x="133.1" y="196" class="st8" width="70.2" height="6.7"/>
			<rect x="133.1" y="213" class="st9" width="126.9" height="4.1"/>
			<rect x="133.1" y="225.7" class="st9" width="107.8" height="4.1"/>
			<rect x="133.1" y="238.3" class="st9" width="119.5" height="4.1"/>
			<rect x="133.1" y="250.9" class="st9" width="93" height="4.1"/>
			<path class="st8" d="M133.1,266.9v12h41.1v-12H133.1z M167.3,275H140v-4.1h27.3V275z"/>
		</g>
	</g>
	<g>
		<path class="st9" d="M131.6,356c-0.6,0-1.2-0.3-1.6-0.8c-0.6-0.9-0.3-2,0.5-2.6l98.1-63.5c0.6-0.4,1.3-0.4,1.9-0.1l29.3,16.4
			l36.1-56.5c0.3-0.4,0.7-0.7,1.2-0.8c0.5-0.1,1,0,1.4,0.4l30.9,23.8l101.8-87.8c0.8-0.7,1.9-0.6,2.6,0.2c0.7,0.8,0.6,1.9-0.2,2.6
			L330.8,276c-0.7,0.6-1.6,0.6-2.3,0.1L298,252.7l-36,56.2c-0.5,0.8-1.6,1.1-2.5,0.6l-29.9-16.7l-97.1,62.9
			C132.3,355.9,131.9,356,131.6,356L131.6,356z"/>
	</g>
	<circle class="st8" cx="134.1" cy="353.3" r="7.2"/>
	<circle class="st8" cx="228.5" cy="291.3" r="7.2"/>
	<circle class="st8" cx="260.3" cy="307.4" r="7.2"/>
	<circle class="st8" cx="297.9" cy="250.3" r="7.2"/>
	<circle class="st8" cx="330.9" cy="275.3" r="7.2"/>
	<ellipse class="st8" cx="432.4" cy="185.9" rx="7.2" ry="7.2"/>
	<g>
		<g>
			<defs>
				<path id="SVGID_3_" d="M500.5,411.6V164.1c0-5.6-4.6-10.2-10.2-10.2H101.6c-5.6,0-10.2,4.6-10.2,10.2v247.5H500.5z"/>
			</defs>
			<clipPath id="SVGID_4_">
				<use xlink:href="#SVGID_3_"  style="overflow:visible;"/>
			</clipPath>
			<path class="st10" d="M592.9,419.8l-55.2-55.5c-4.8-4.8-11.7-6.4-17.8-4.6c-0.2-0.3-0.4-0.5-0.6-0.8l-8.9-9.2
				c9.6-12.3,14.8-27.4,14.9-43.2c0-18.9-7.3-36.7-20.7-50.1c-13.4-13.4-31.1-20.8-50-20.8s-36.7,7.3-50.1,20.8
				c-13.3,13.3-20.7,31.1-20.8,49.9c-0.1,39,31.6,70.8,70.6,70.9c15.8,0,30.9-5.1,43.2-14.7l8.9,9.2c0.3,0.3,0.7,0.6,1,0.8
				c-1.6,6,0,12.7,4.7,17.4l55.2,55.5c7.1,7.1,18.5,7.1,25.6,0.1l0,0C599.9,438.3,600,426.8,592.9,419.8z"/>
		</g>
		<g>
			<defs>
				<path id="SVGID_5_" d="M500.5,411.6V164.1c0-5.6-4.6-10.2-10.2-10.2H101.6c-5.6,0-10.2,4.6-10.2,10.2v247.5H500.5z"/>
			</defs>
			<clipPath id="SVGID_6_">
				<use xlink:href="#SVGID_5_"  style="overflow:visible;"/>
			</clipPath>
			<path class="st11" d="M205.4,328.6H73.3c-5.3,0-9.6,4.3-9.6,9.6v174c0,5.3,4.3,9.6,9.6,9.6h132.2c5.3,0,9.6-4.3,9.6-9.6v-174
				C215.1,332.9,210.7,328.6,205.4,328.6z"/>
		</g>
	</g>
	<g>
		<path class="st12" d="M592.9,431.5L592.9,431.5c-7.1,7.1-18.6,7.1-25.6,0L512,376c-7-7.1-7-18.5,0-25.6l0,0
			c7.1-7.1,18.5-7,25.6,0.1l55.2,55.5C600,413,599.9,424.4,592.9,431.5L592.9,431.5z"/>
		<path class="st13" d="M585,431.1c-2.7,2.7-7.2,2.7-9.9,0l-55.2-55.5c-2.7-2.7-2.7-7.2,0-9.9c2.8-2.7,7.2-2.7,9.9,0l55.2,55.5
			C587.8,423.9,587.8,428.4,585,431.1L585,431.1z"/>
		<path class="st14" d="M504.4,342.5L504.4,342.5c-13.4,13.4-31.2,20.8-50.2,20.8c-39-0.1-70.7-31.9-70.6-70.9
			c0-18.8,7.4-36.6,20.8-49.9c13.4-13.4,31.2-20.8,50.1-20.8s36.6,7.4,50,20.8s20.7,31.2,20.7,50.1
			C525.1,311.4,517.8,329.1,504.4,342.5L504.4,342.5z"/>
		<g>
			<path class="st15" d="M454.3,359.2c-17.8,0-34.6-7-47.2-19.7c-12.6-12.6-19.5-29.4-19.5-47.2c0-17.8,7-34.5,19.6-47.1
				s29.4-19.6,47.2-19.6h0.1v8.9h-0.1c-15.4,0-29.9,6-40.9,17c-10.9,10.9-16.9,25.4-17,40.8c0,15.4,6,30,16.9,40.9
				c10.9,11,25.4,17,40.9,17V359.2L454.3,359.2z"/>
		</g>
		<g>
			<path class="st16" d="M498.4,336.5"/>
		</g>
		<path class="st9" d="M417.2,255.2c-9.9,9.9-15.4,23.1-15.4,37.1c0,29,23.5,52.7,52.6,52.7c14.1,0,27.3-5.5,37.3-15.5l0,0
			c9.9-9.9,15.4-23.1,15.4-37.1s-5.4-27.3-15.4-37.3c-9.9-10-23.2-15.5-37.2-15.5C440.4,239.8,427.1,245.2,417.2,255.2L417.2,255.2z
			"/>
		<path class="st17" d="M491.7,255.3c-9.9-10-23.2-15.5-37.2-15.5c-4,0-7.8,0.4-11.6,1.3c-5.7,2.6-11,6.2-15.6,10.8
			c-9.9,9.9-15.4,23.1-15.4,37.1c-0.1,29,23.5,52.7,52.6,52.7c4,0,7.9-0.4,11.6-1.3c5.7-2.6,11-6.2,15.6-10.8l0,0
			c9.9-9.9,15.4-23.1,15.4-37.1S501.6,265.3,491.7,255.3z"/>
		<g>
			<path class="st14" d="M519.2,357.8c-3.5,3.5-9.3,3.5-12.8,0l-11.3-11.6c-3.5-3.5-3.5-9.3,0-12.8l0,0c3.5-3.5,9.3-3.5,12.8,0
				l11.3,11.6C522.7,348.5,522.7,354.3,519.2,357.8L519.2,357.8z"/>
		</g>
		<g>
			<g>
				<defs>
					<path id="SVGID_7_" d="M417.2,255.2c-9.9,9.9-15.4,23.1-15.4,37.1c0,29,23.5,52.7,52.6,52.7c14.1,0,27.3-5.5,37.3-15.5l0,0
						c9.9-9.9,15.4-23.1,15.4-37.1s-5.4-27.3-15.4-37.3c-9.9-10-23.2-15.5-37.2-15.5C440.4,239.8,427.1,245.2,417.2,255.2
						L417.2,255.2z"/>
				</defs>
				<clipPath id="SVGID_8_">
					<use xlink:href="#SVGID_7_"  style="overflow:visible;"/>
				</clipPath>
				<g class="st18">
					<rect x="383.9" y="163.8" class="st7" width="30.9" height="263.9"/>
					<rect x="432.4" y="105.4" class="st7" width="30.9" height="323.7"/>
				</g>
			</g>
		</g>
	</g>
	<rect x="63.6" y="395.2" class="st19" width="151.4" height="56.7"/>
	<g>
		<g>
			<g>
				<path class="st6" d="M195.3,333.2H63.1c-5.3,0-9.6,4.3-9.6,9.6v174c0,5.3,4.3,9.6,9.6,9.6h132.2c5.3,0,9.6-4.3,9.6-9.6v-174
					C204.9,337.6,200.6,333.2,195.3,333.2z"/>
				<path class="st2" d="M129.2,521.6c-2.1,0-3.9-1.7-3.9-3.9c0-2.1,1.7-3.9,3.9-3.9c2.1,0,3.9,1.7,3.9,3.9
					C133,519.9,131.3,521.6,129.2,521.6z"/>
				<rect x="70.6" y="351.9" class="st2" width="117.1" height="155.9"/>
			</g>
		</g>
		<g>
			<g>
				<path class="st20" d="M143.8,434.6c-0.7,2.2-1.9,4.2-3.4,5.8l11.5,16.1c5.8-5,10-11.9,11.6-19.7L143.8,434.6z"/>
				<path class="st21" d="M132,414.2c6.7,1.4,11.8,7,12.5,14l19.7,2.2c0-0.2,0-0.4,0-0.7c0-18.5-14.2-33.6-32.2-35.3V414.2z"/>
				<path class="st22" d="M117.1,419.1c2.2-2.4,5.1-4.2,8.5-4.9v-19.7c-10.5,1-19.7,6.5-25.5,14.6L117.1,419.1z"/>
				<path class="st23" d="M135.2,444.2c-2,0.9-4.1,1.4-6.4,1.4c-8.7,0-15.8-7.1-15.8-15.8c0-1.8,0.4-3.5,0.9-5.1l-17.1-10.1
					c-2.2,4.6-3.4,9.7-3.4,15.1c0,19.6,15.9,35.4,35.4,35.4c6.5,0,12.6-1.8,17.9-4.9L135.2,444.2z"/>
			</g>
			<g>
				<rect x="130" y="486" class="st4" width="33.7" height="3"/>
				<rect x="85.2" y="476.4" class="st4" width="33.7" height="3"/>
				<rect x="78.4" y="387.5" class="st4" width="33.7" height="3"/>
				<g>
					<polygon class="st4" points="119.1,479.7 117.6,479.3 120.8,466.9 122.2,467.2 					"/>
				</g>
				<g>
					<polygon class="st4" points="115.2,395 110.7,388.2 111.9,387.4 116.4,394.2 					"/>
				</g>
				<rect x="145.9" y="384.9" class="st4" width="33.7" height="3"/>
				<g>
					<polygon class="st4" points="142,394.5 140.7,393.7 146,384.9 147.3,385.6 					"/>
				</g>
				<g>
					<polygon class="st4" points="162.2,486.8 154.9,455.9 156.3,455.6 163.7,486.5 					"/>
				</g>
			</g>
		</g>
	</g>
</g>
</svg>
