<?xml version="1.0" encoding="utf-8"?>
<!-- Generator: Adobe Illustrator 21.0.2, SVG Export Plug-In . SVG Version: 6.00 Build 0)  -->
<svg version="1.1" id="Layer_1" xmlns="http://www.w3.org/2000/svg" xmlns:xlink="http://www.w3.org/1999/xlink" x="0px" y="0px"
	 viewBox="0 0 612 612" style="enable-background:new 0 0 612 612;" xml:space="preserve">
<style type="text/css">
	.st0{fill:#84B9BD;}
	.st1{fill:#76A0A0;}
	.st2{fill:#FFFFFF;}
	.st3{fill:#42607A;}
	.st4{fill:#0E3857;}
	.st5{fill:none;}
	.st6{fill:#E9F0F5;}
	.st7{fill:#93A3A3;}
	.st8{fill:#BEC2C7;}
	.st9{fill:#EC5B49;}
	.st10{fill:#FFEDDD;}
	.st11{fill:#282928;}
	.st12{opacity:0.3;fill:#528AC8;enable-background:new    ;}
	.st13{opacity:0.34;fill:#030303;enable-background:new    ;}
	.st14{fill:url(#SVGID_1_);}
	.st15{fill:#F26A33;}
	.st16{fill:url(#SVGID_2_);}
	.st17{fill:#6E3022;}
	.st18{fill:#6E3022;fill-opacity:0.6039;}
	.st19{fill:#9B7853;}
	.st20{fill:#8E6C4D;}
	.st21{fill:#89D6F8;fill-opacity:0.302;}
	.st22{fill:#B4E3F5;}
	.st23{fill:#89D6F8;}
	.st24{fill:#5BC0DB;fill-opacity:0.4039;}
	.st25{fill:#CBEBF7;}
	.st26{fill:#FFCD05;}
	.st27{fill:#C85D5D;}
	.st28{opacity:0.2;}
	.st29{fill:#231F20;}
	.st30{fill:#515E73;}
	.st31{opacity:0.3;}
	.st32{fill:#F5CF87;}
	.st33{fill:#4890CD;}
	.st34{fill:url(#SVGID_3_);}
	.st35{fill:#E2F3F7;}
	.st36{fill:#B7E0F7;}
	.st37{fill:#E5E5E5;}
	.st38{fill:#92C83E;}
	.st39{fill:#DFC224;}
	.st40{fill:#E11B50;}
</style>
<path class="st0" d="M596.7,366.4c0-2-6.8-0.8-10.2-2.8s-5.9-2-10.8-1.4c-4.9,0.6-3.7,0.6-6.5-0.6c-2.8-1.1-4.6,0-6.2,2
	c-1.5,2-2.2,0.6-5.6,2.2c-3.4,1.7-1.8-4.5-1.2-8.4s1.2-4.1,2.8-5.9c2.5-2.8,8.6,0,8.6,2.5s0.9,0.8,2.5,3.3c1.5,2.5,1.9,0.3,2.5-3.1
	c0.6-3.3,3.1-1.1,3.7,3.3c0.6,4.5,1.5,1.1,4.6,1.1s0.3-2.2,2.8-4.2s7.1,4.7,8.6,6.1s4-2.5,6.8-2.8c1.8-0.2,5.4,1,8.8,2.9
	c3.2-17.7,4.9-35.9,4.9-54.6c0-29-4-57.1-11.6-83.7c0,0.5,0.1,0.9,0.1,1.3c0,4.2,1.1,10.2-2.5,8s-2.3-10.5-5.4-12
	c-1.5-0.7-2.2-3.4-2.6-6c-0.4-2.7-0.2-5.4,0.6-8c0.4-1.4,0.6-3-0.4-4c-1.9-2-4.1-1.5-4.1,0.7s-0.8,2-3.3,1s-4.4-2.5-5.2,0.2
	s1.1,6.2-3.3,5.2c-4.4-1-15,10.9-18,10.9s-6.9-2-8.2,1.5c-1.4,3.5-4.9,8.4-1.6,8.7c3.3,0.2,4.1-0.5,8-0.2c3.8,0.2,5.5,1.5,5.5,0.5
	s1.6,0.5,4.4,2.7c2.7,2.2,6.6,5.2,6.9,7.4s1.6,5,2.7,6.2c1.1,1.2,0,4.5,4.4,4.7s6-1,8-1c1.9,0,2.2,3-1.1,4.5s-5.5,1.5-4.4,3.7
	s1.4,4.2,1.7,7.2s6.3,8.7,1.6,8.7s-8.5,0.9-11.3,2.6c-2.7,1.7-3,5.8-5.2,4.9c-2.2-1-6-1.2-3.6-5c2.5-3.7,1.1-4.5,5.2-5.5
	c4.1-1,6.9-2,8-5.7s2.2-3.2-1.1-6.5c-3.3-3.2-2.7-3.2-3.6-6.9c-0.8-3.7-4.7-13.2-7.1-14.9c-2.5-1.7-5.5-2.5-4.1-1s3.8,3.5,3.8,7.9
	c0,4.5-0.3,8.7-3.3,9.9s-6,0.2-6.9,2c-0.8,1.7,0.5,4-1.1,5.5s0.8,1.2,2.7,3c1.9,1.7,5.5,4,4.4,6.2s-1.1,4.1-3.6,4.3
	c-2.5,0.2-2.4-4.1-4.9-7c-2.5-3-5.8-4.5-7.4-5.2c-1.7-0.7-2.2,2-4.4,0.5s-0.5-5.7-3.8-2.2s-4.9,5.5-1.9,6s2.5-1.5,5.8-0.5
	s4.4,2.7,3,3.5c-1.4,0.7-3,0.2-1.1,2.5c1.9,2.2,5.2,6,6.3,8.2s3.8,2,1.4,8.2c-2.5,6.2-3.8,8.2-5.8,9.9c-1.9,1.7-9.3,3.7-11.3,5.2
	c-1.9,1.5-1.1,2.2-2.2,4.5c-1.1,2.2-1.1,4-2.2,2.2c-1.1-1.7-2.5-2.7-1.4-4.5c1.1-1.7-0.8-5.2-2.5-2.7c-1.6,2.5-4.9,0.2-3.6,4
	c1.4,3.7,11.3,11.7,10.2,15.6c-1.1,4-6,6.5-7.7,7.2s-1.7,0.7-4.7-2.5s-8.8-7.4-9.1-5.2c-0.3,2.2-0.8,4.7,2.5,9.2
	c3.3,4.5,8.5,7.9,8.5,13.2c0,5.2-0.3,4-1.4,3c-1.1-1-1.9,2.2,0.5,3.7c2.5,1.5,5.5-0.2,5.8,4s-2.7,6,0.6,6.9c3.3,1,5.8,2.2,10.4,3.7
	c4.7,1.5,8.8,2.2,12.9,2.5c4.1,0.2,1.7,1.7,5.5,1.5s4.7-0.2,7.7-0.7s5.2-2,5.5-1.2c0.3,0.7,1.6,2.5-1.4,4s-6.3,2-10.7,1.5
	s-13.2-4-17.6-4c-4.4,0-15.9-2-19.5-6.5s-8.8-9.4-11.3-13.6s-3.8-8.2-6-10.4c-2.2-2.2,1.1-3.5,3.3-1.5c2.2,2,4.9,5.5,6.3,4.5
	c1.4-1,2.2-2.2,0-4.7s-5.8-5.2-5.8-7.9c0-2.7,1.1-6.7-0.5-9.7s-0.3-6.9-2.5-6c-2.2,1-2.5,4.5-5.2,1.5s-3.3-7.2-5.8-10.2
	s0.8-3.5-3.3-3.7c-4.1-0.2-6.6,0.3-9.6,3.5s-9.7,6.7-11,7.9c-1.4,1.2-2.5,4.9-2.5,7.7c0,2.7,4.2,4,2.2,6c-1.9,2,0.3,1.7,1.9,3
	c1.6,1.2,3,4.8,3,6.2c0,1.5,0.3,6.3-4.4,2.9c-4-2.9,0.5-6.7-3-6.7c-3.6,0-5.8,4-6.9,0s-2.5-11.9-6-16.1c-3.6-4.2-4.1-5.5-4.1-8.9
	c0-3.5,4.4-3-1.6-3.5s-4.9,0.7-7.7-3.2c-2.7-4-2.2-5.7-6.2-6.1s-6.5,1.3-11.1,0.1c-4.7-1.2-5.5-2.7-9.1-2.7s-4.1,1.2-7.1-2
	s-8.2-6.5-9.3-5.5c-1.1,1-4.4-0.5,0.8,4c5.2,4.5,8,8.4,11.3,7.7c3.3-0.7,3.3-3.2,6-0.7s8.8,1.7,6.9,6.7s-6.9,10.2-11,11.9
	c-4.1,1.7-15.6,7.2-18.9,7.5c-3.3,0.2-5.5-0.3-5.8-3.2c-0.3-3-1.4-6.7-2.7-9.2c-1.4-2.5-6-9.4-9.6-13.2c-3.6-3.7-8.2-8.4-7.7-5.7
	c0.5,2.7,1.9,7.4,4.7,10.7c2.7,3.2,0,7.4,3.6,10.4s5.6,5.1,6.2,7.1c0.5,2,7.6,7.3,10.3,7.3c2.7,0,14.6-4,15.1-2c0.6,2,0.8,4.2,0,7
	c-0.8,2.7-9.3,14.9-18.4,22.6s-7.4,7.2-7.4,11.9c0,4.7,1.6,6.2,2.2,10.2c0.5,4,2.7,7.4,0.3,9.9c-2.5,2.5-9.3,8.4-10.4,9.4
	s-1.9,2.5-1.6,4.2s0.8,8.2-1.9,9.2c-2.7,1-4.4,1.7-4.4,3.7s-4.1,8.9-9.3,12.4c-5.2,3.5-7.1,3-11.5,4.5s-8.2,4.5-10.4,1.2
	c-2.2-3.2-1.1-9.2-3.6-12.4c-2.5-3.2-5.8-2.2-5.8-7.9c0-5.7,2.7-5.5-1.9-10.9c-4.7-5.5-5.5-12.9-3.3-16.1s3.8-7.2,3-10.7
	s-4.1-10.2-6.6-13.2s-2.7-3-2.5-6.5c0.3-3.5,4.4-8.9-0.5-9.2c-4.9-0.2-10.5-1.3-11.4-3.1c-0.8-1.7,4.8-4.1-1.8-3.2
	c-6.6,1-4.4,3.7-10.7,3.5c-6.3-0.2-9.3,1.7-11.3,2.5c-1.9,0.7-5.8-2.7-9.6-5.2c-3.8-2.5-4.9-3.5-5.8-6.9c-0.8-3.5-3-2.7-4.1-6.2
	s-4.4-3.7-1.9-7.7s5.5-5.2,2.5-9.7s-2.8-4.7-0.3-8.4c2.5-3.7,3.8-6.2,7.1-9.4c3.3-3.2,6-1.5,7.1-4.5s-1.4-5,1.9-7.2s3.6-3.5,4.9-4.7
	c1.4-1.2,1.4-5-1.1-5.2s-2.2-5.2-1.1-7.4c1.1-2.2-3.8-6.2,1.6-7.2c5.5-1,9.1-1.5,11-1.7s3.3-3.2,0.3-5.2s-4.4-4.2-0.8-4.5
	c3.6-0.2,9.3-1.2,6.3-2.5c-3-1.2-1.1-0.5-4.9,0.5c-3.9,1-5.5,1.2-4.9-1.7c0.6-3,4.7-5.2,3-6.5c-1.6-1.2-3,0-4.1,2.5s-4.7,6.5-6,3.5
	c-1.4-3-3.3-5.2-0.6-7.9c2.7-2.7,5.2-5.7,5.5-7.2s1.6-3.2,6-3.7s7.4-3.5,6,2.2s3,7.7,4.1,10.2s-0.8,4-0.3,5c0.6,1,1.9,2.5,3.8,0
	s5.2-5.5,6.3-5.5c1.1,0,3.6-2.7,3.6-4c0-1.2,0.5-4.2,3-2.2s2.2,5,5.8,5.7c3.6,0.7,6.9,0.5,9.1-0.2s3.3,0,3.6-3
	c0.3-3,0.5-4.2,2.5-4.2c1.9,0-1.1-3,1.9-3s10.7-3.7,6.6-3.2s-7.4,3.5-9.1,0.5c-1.6-3-3.8-3.7-0.6-6.2c3.3-2.5,3.6-4.7,1.4-3.5
	s-4.4,3-6.9,5.7s-1.6,3.7-1.6,5.7s0.8,5.5-2.7,6.9c-3.6,1.5-5.8,1.2-6.3-0.2c-0.6-1.5,0-5.7-3.8-4.7s-6.9,2-8.2,0
	c-1.4-2-5.5-5-0.8-7.2s14-6,14.5-8.4c0.5-2.5,0.3-3.7,4.4-5.5c4.1-1.7,16.5-4.5,24.2-2.5s14.8,4,15.9,4.7s2.2,2.7-1.6,3.2
	c-3.8,0.5-7.1,5.2-4.4,4.2s2.5-1,5.8-2.2s1.1-2.7,4.9-4c3.8-1.2,4.7-0.2,8-1.2s6.9-1.5,5.2-2.7c-1.6-1.2-5.2-1.5-4.1-3.7
	s-0.8-4.5,6.6-7.7s16.2-4,16.2-1.7c0,2.2,0.6,2.2-4.4,3c-4.9,0.7-12.9,3.5-11.8,5.7s4.9,1,4.9,2.5s-4.4,1-1.1,2.5s10.4-2,12.6-0.5
	s6.6,3.5,5.8,1.5c-0.8-2-1.6-2-2.2-4.7s-1.1-6.5,2.2-4.5c3.3,2,7.4,8.4,8.5,9.7c1.1,1.2-2.2,5.5,0.3,4.7c2.5-0.7,3.8-0.7,2.5-4
	c-1.4-3.2-7.1-5.7-3.3-7.2c3.8-1.5,8.2-0.2,13.7-3c5.5-2.7,17.8-1.5,14.8-4.7s-8.8-3.5-11.5-3.7s-5.5-1.2-5.5-1.2
	c-2.5-0.2-6-5,0.5-4c6.6,1,11.3,1.2,14.3,3c3,1.7,6.3,4.5,12.4,4.5c6,0,10.7-2,12.9,1.7c2.2,3.7,2.5,3.5,8.2,3.7
	c5.8,0.2,15.9-1,20.1,1.2c4.1,2.2,3.8,4.2,7.4,4s12.1,0.7,9.1-1.7c-3-2.5-7.4-3.7-9.1-4.2s-6-3.5,2.2-3.5c8.2,0,9.6-0.7,12.4,2
	c2.7,2.7,0.5,5,7.1,5s11.9-5.7,18.2-5.5s8.6,4.7,16,6c7.4,1.2,16-7.1,22.3-7.1s2.4-0.7,3.2-2.9c0.3-1,1.1-1.6,2-2
	C538.7,75,431.5,0.4,306.8,0.4c-132.6,0-245.5,84.4-288,202.4c2.3,0.1,4.7,0.2,6.3,0.1c4.4-0.2,5.7,3.5,8.2,2s11.1-6.1,19.4-7.6
	c8.2-1.5,20.2,4.1,25.1,5.6c4.9,1.5,3.8,0,11.3-1.7c7.4-1.7,11.8,0.2,18.9,0.5c7.1,0.2,4.9,2,9.6,3s1.1-1-0.8-1.7s-0.8-2-1.4-3.5
	c-0.5-1.5-3-0.5-6.3-1s3.6-6.7,8.8-6.9c5.2-0.2,7.4,2,12.6,3.5s11.8-1.7,11.8-0.7s-3,2-2.7,5s-2.5,3-4.9,4.2
	c-2.5,1.2,2.7,1.5,4.7,1.5c1.9,0,2.7-2.5,5.5-2.5c2.7,0,2.7-1.7,0.3-3.2c-2.5-1.5,2.2-4.2,4.9-4.7s2.7,2,4.1,0c1.4-2,5.2-4,8.2-5.2
	s10.2,0,14.3,0.2s7.7,0.2,6.3,2.5c-1.4,2.2-10.7,0.7-14.8,0.7s-5.5-0.7-8.5-0.2s2.2,0.2,1.6,2.5c-0.6,2.2-1.1,1.7-4.4,2.5
	c-3.3,0.7-0.8,2.7,0.3,4.7s3.6,0,4.9,0c1.4,0-0.3-2.7,1.1-4.7c1.4-2,3,0,5.8-1.2c2.7-1.2,10.4-1.2,14.5-1.2s-0.8,1,7.7,2.2
	s1.9,2.7,2.5,5.5c0.6,2.7,4.9,4,5.5,6.2s-5.8,3.2-10.2,5c-4.4,1.7-1.9,2-5.2,3.7s-4.9-1.7-6.3-2.7c-1.4-1-5.5-1.2-7.1-3
	c-1.6-1.7-2.7-2.2,0.8-2.7c3.6-0.5,5.2-0.5,7.7-2.7s0.8-1.2-2.5,0.2c-3.3,1.5-2.5,0-1.4-2.2s1.4-3-0.5-3s-2.7,1.2-6.3,2.5
	c-3.6,1.2-0.8,2.2-4.4,3.7c-3.6,1.5-4.4,1.7-3,3.2s2.2,1.5-2.5,2.2s-0.3,2.5-4.1,2.7s-0.6-3.2-5.2-2.7c-4.7,0.5-9.6,4.5-14.5,6.7
	s-2.7,4.7-1.9,7.4s4.7,1.7,9.6,3c4.9,1.2,1.4,5.7,2.2,8.7s4.1-1.5,4.9-3.2c0.8-1.7,6.9-4.2,9.1-6c2.2-1.7-0.3-5.2,0.3-6.2
	s2.2-3.7,3.8-6.9s4.7-1,7.7-1.2s3.3,2,5.8,3.5s0.8,3.5,1.9,4.5c1.1,1,3.6-0.2,6.6-2.2s2.5,2.2,2.5,4.2s1.4,4,4.4,6s0.8,7.9,1,10.9
	c0.3,3,3.6,3.7,0.8,6c-2.8,2.2-4.1,0-8.8-1s-3.6-0.2,0-2.5c3.6-2.2,2.5-4.5-0.3-4s-5.1,4-9,4.3c-3.8,0.2-0.1-4.3-4.7-3.5
	c-4.7,0.7-4.7,3.5-3.3,3.2c1.4-0.2,6,0.5,4.7,2.2c-1.4,1.7,1.6,3,6.6,3c4.9,0-0.8,3.7-5.5,5.2s-8.5,1-9.3-0.7s-4.9,1.7-7.4,4
	c-2.5,2.2-7.7,5.5-12.1,7.9c-4.4,2.5-4.4,3.2-6.3,6.5c-1.9,3.2-9.6,7.9-13.5,10.4c-3.8,2.5,0.3,8.4,1.9,10.9s1.1,4.7,1.4,7.7
	s3,5.5,7.1,6.2s10.2,4.7,17.8,4.7c7.7,0,4.4,4.7,3.8,3.7c-0.5-1-3.8-1.2-8.5-1.5c-4.7-0.2-10.2-1.2-18.4-1.5
	c-8.2-0.2-2.5-4.5-3.8-6.5c-1.4-2-7.7-0.7-11.3-2.2c-3.6-1.5,5.5-3.7,6.6-3.7s3.6-1.2,3.3-2.5c-0.3-1.2-1.9,0-4.7-3
	c-2.7-3-0.6-5.5-1.6-7c-1.1-1.5-5.3-3.4-9.7-3.1c-4.4,0.2-6.2,1.5-10.5,1.2c-4.4-0.2-9.1,3.1-12.7,8.8c-3.6,5.7,0.8,15.9,2.7,17.6
	c1.9,1.7,5.5,2,9.3-2.7s8.2-5.5,10.4-4.2c2.2,1.2-5.2,8.7-5.2,9.9c0,1.2,4.7,2.7,8.2,2.7c3.6,0-0.3,8.7,1.1,10.4
	c1.4,1.7,3.6,3.7,5.5,3.5s5.2,1.5,7.1,0.5s5.8-4.7,8.8-6.7s6.9-0.2,12.6,2.5c5.8,2.7,6.3,0.5,12.6-0.2s4.9,7.9,9.3,10.2
	c4.4,2.2,11.3,3,14.5,6.9c3.3,4,2.5,8.2,4.1,8.7s6.9,0.7,9.3,2.7c2.5,2,3.6,2.2,6.6,2.2s6.3,0,6.9,2.5c0.6,2.5,0.8,1,5.8,2.2
	c4.9,1.2,3.6,5.5,3.6,8.4c0,3-3.8,5.7-6.9,8.9c-3,3.2-2.7,5.7-2.2,9.7s-0.8,7.9-2.2,11.7c-1.4,3.7-11.3,5.2-14.3,6.5
	c-3,1.2-3.2,3.1-3.2,5.1s1,4.4-1.2,7.1s-1.4,3.5-3.3,6.9c-1.9,3.5-5.9,3.4-8.9,3.4s0.6,1.9,2,5.1s-2.5,4.2-3.6,5
	c-1.1,0.7-3.6,0.5-4.4,3c-0.8,2.5-1.1,1.7-3,2.2s-2.2,0.7-0.8,1.7s1.4,2,0.8,3c-0.6,1-3.1,3-3.4,5.2c-0.3,2.2,3.7,2.5,4.5,4.7
	s-1.7,3.2-1.1,5.5c0.6,2.2,1.6,1.7,2.5,5c0.8,3.2,3.6,1.7,8.2,5c4.7,3.2,0,5.8-7.7,5.8s-3.6-7.3-3.6-8.5s-2.5,1-3,0.3
	c-0.6-0.7-1.1-1-8.5-5.2s-3.8-8.7-5.5-9.9c-1.6-1.2-0.3-5-0.3-7.4c0-2.5-3.3-0.5-3.6-3.2s0-5.5-1.1-6.7s-1.9-4-1.1-7.2
	c0.8-3.2-1.6-7.4-1.6-11.7c0-4.2,0.3-18.6,0.3-22.8c0-4.2-3.6-7.2-8.2-8.9c-4.7-1.7-7.4-3.7-9.3-9.2s-4.9-8.7-7.1-11.4
	c-2.2-2.7-4.1-4.2-3-6c1.1-1.7,3-4,0.8-6.2s-0.3-4.7,3.8-8.2c4.1-3.5,3-8.9,3-11.2c0-2.2-3.3-1.2-5.8-1c-2.5,0.3-3.3-3-6.6-4
	c-3.3-1-5.5-1.5-6-4.5s-1.6-5-4.9-5s-6.3-3-7.7-5.2c-1.4-2.2-3.6-0.2-7.1,0.2c-3.6,0.5-8-4.2-14-6.5c-6-2.2-3-5.5-3-8.9
	c0-3.5-3-3-5.5-7.7s-4.7-11.4-6.3-13.6s-0.8,5,0.5,8.9c1.4,4,2.2,6.2,3.6,8.9c1.4,2.7-1.7,1.5-4.4-0.2s-1.1-2.7-1.4-5
	c-0.3-2.2-2.2-0.7-2.2-3.5c0-2.7,0.8-2.5-0.8-4.2s-1.6-4.7-1.6-7.2s-0.3-3-3.3-4s-1.9-4.5-1.9-7.2s-0.5-6.2,0.5-8.7
	c1.1-2.5,9.3-9.9,9.6-12.7c0.3-2.7,1.1-3.5-0.3-4.7c-1.4-1.2-1.9-1.2-1.6-2.7c0.3-1.5,2.2-1.2,2.2-2.7s1.4-3.5,1.9-5.5
	s-3,0.7-3.3,2.2s-1.4,2.2-3,2.5c-1.6,0.2-2.2-2.7,0.5-3.2s1.7-2.2,1.4-4.2s0-3.2,1.4-3.5c1.4-0.2,0.8-2.5-0.6-3.5
	c-1.4-1-4.1-3.7-6-4.7s-12.7-4.5-14.9-4s-3,1.2-5.7-0.3s-3.6,3.8-6.9,6c-2.7,1.8-5.9,3.8-6.9,3.5C4.6,250.4,0.6,278,0.6,306.6
	c0,169,137,306,306,306c121.3,0,226-70.5,275.6-172.8c-2.3-1.5,0.6-6.1-2.9-6.8c-4-0.8-2.5,2.2-2.8-2.2c-0.3-4.5-4.9-3.9-15.1-2.5
	c-10.2,1.4-16,1.9-22.5,3.9s-2.5-1.4-5.5-3.9c-3.1-2.5,4-6.7,4-13.7s-6.8-13.4,6.5-13.9c13.3-0.6,16.7-8.4,19.1-11.2
	c2.5-2.8,4.3-2.8,8.9-2.8c4.6,0,1.8-1.1,4-4.2s10.8-1.1,13.9-1.1c3.1,0,0.9,3.3,1.8,7c0.9,3.6,2.8,5.3,6.8,6.1
	c0.6,0.1,1.1,0.1,1.5-0.1c0.5-1.7,1-3.4,1.5-5.1c0.1-1.5,0.2-3,0.8-4.2c0.5-1.2,0.8-2.1,1.1-2.8c0.5-2,1-4,1.5-6.1
	c-1.6-1-3.9-3.1-8.2-4.3C589.6,369.8,596.7,368.4,596.7,366.4z M553.2,298.1c4-1.1,3.4,7,1.2,6.4
	C551.9,303.9,549.2,299.3,553.2,298.1z M551.1,357.8c-1.8,3.3-1.5,5.9-3.1,6.4c-1.5,0.6-3.7-0.8-8.3-0.8s-5.2-1.7-5.6-4.5
	c-0.3-2.8-0.6-4.5-0.9-8.4c-0.3-3.9,4-1.7,6.5-3.3c2.5-1.7,6.2-6.5,8-8.6c2.2-2.5,5.6,0.6,6.5,4.7c0.9,4.2-0.6,2.5-0.6,5
	s0,2,1.2,4.5C556,355.3,552.9,354.4,551.1,357.8z M556.3,313.2c2.2-2.8,3.7,4.5,4.3,8.4s0.9,0.8,6.5,5.6c5.6,4.7,4.3,5.6,5.9,11.7
	c1.5,6.1-4.6,2.8-9.9,0.8c-5.2-2-2.2-1.7-1.9-4.7c0.3-3.1,0-5-1.8-6.1c-1.9-1.1-2.2-3.9-4.3-8.1
	C552.9,316.5,554.4,315.6,556.3,313.2z M361.6,178.1c5.8-0.2,5.2,0.5,8,0.5c2.7,0,2.5-1.7,6.9-2c4.4-0.2,7.4,2.5,8.5,2.5
	s2.7,1.7-2.7,1.7s-12.4,2-15.6,2c-3.3,0-1.9-1.7-1.9-1.7C361.6,180.6,355.9,178.4,361.6,178.1z M316.1,185.6
	c2.7-1.7,12.4-3.5,19.2-2.5c6.9,1,15.4,0.2,11.5,2c-3.8,1.7-8.5,4.7-11.8,6c-3.3,1.2-2.2-6-5.2-2c-0.3,2-2.2,3.5-4.9,2.5
	c-0.2-0.1-0.5-0.1-0.8-0.2C320,190.3,313.5,187.2,316.1,185.6z M262.8,223.2c-4.4,1.2-5-6.3-6.4-10.3s6.3-1.5,14.5-2.5
	s2.3,1.5,4.2,4.8C277.1,218.4,270.3,221,262.8,223.2z M234.8,206c-2.7,1.2-8,3.7-10.2,7.7s-4.4,3.7-8.2,1.2s-5.5-6.2-5.5-9.7
	s1.4-3.2,3.8-5.2c2.5-2,1.1-1.7,0.5-3.7c-0.5-2,0-3-0.3-5s-0.6-5.5-3-5.5c-2.5,0-11,0.7-11.8-1.7c-0.8-2.5,3-2,7.4-3.5
	s8.8-3.7,1.9-2.7c-6.9,1-13.4,2.7-17.3,5c-3.8,2.2-3.8,3.2-8.2,1.5s-12.1-3.5-23.1-1.2c-11,2.2-11.5,4-13.5,4.5
	c-1.9,0.5-3.3-1.2-6.3-0.5s-8.2,1-8.2,1c-2.5-0.7-14-6.8-6.3-8.5s9.9-3.7,11.5-1.7s0.3,1,4.7-0.5s4.1-0.2,6.6-0.2s6.1,1.2,11.3,0.7
	s7.4,0.7,12-2c4.7-2.7,8.7-0.9,15.9-1.6c7.1-0.7,26.6-1.2,34-0.5s7.1,1,11,0.7c3.8-0.2,11.3-1,15.4-1c4.1,0,20.3,0,23.1,1
	c2.7,1,2.2,1.5,6,1s6.6-0.7,6.6,0.7c0,1.5,3.6,2.7-0.3,3c-3.8,0.2-4.6,1-6.3,1.9c-1.6,1-3.9-0.2-3.3,2.8c0.5,3,1.6,5-2.5,6.5
	s-3.3,3-6.3,6s-2.5,2-7.7,3.5c-5.2,1.5-9.9,0.2-13.4,3.2C241.4,206,237.6,204.8,234.8,206z"/>
<path class="st1" d="M598.6,394.3c-4-0.8-5.9-2.5-6.8-6.1c-0.9-3.6,1.2-7-1.8-7c-3.1,0-11.7-2-13.9,1.1s0.6,4.2-4,4.2
	s-6.5,0-8.9,2.8c-2.5,2.8-5.9,10.6-19.1,11.2c-13.3,0.6-6.5,7-6.5,13.9c0,7-7.1,11.2-4,13.7s-0.9,5.9,5.5,3.9
	c6.5-2,12.3-2.5,22.5-3.9s14.8-2,15.1,2.5s-1.2,1.4,2.8,2.2c3.5,0.7,0.7,5.3,2.9,6.8c7-14.5,12.9-29.7,17.6-45.4
	C599.7,394.4,599.2,394.5,598.6,394.3z"/>
<path class="st2" d="M306,540.9L306,540.9l-0.1-1.3h0.1c2,0,4,0,5.9-0.1v1.3C310,540.9,308,540.9,306,540.9z M299.9,540.8
	c-2-0.1-4-0.1-6-0.2l0.1-1.3c2,0.1,4,0.2,6,0.2L299.9,540.8z M318,540.6l-0.1-1.3c2-0.1,4-0.2,6-0.4l0.1,1.3
	C322.1,540.4,320,540.5,318,540.6z M287.8,540.2c-2-0.2-4-0.3-6-0.5l0.1-1.3c2,0.2,4,0.4,6,0.5L287.8,540.2z M330.1,539.7l-0.1-1.3
	c2-0.2,4-0.4,6-0.7l0.2,1.3C334.1,539.2,332.1,539.5,330.1,539.7z M275.8,539c-2-0.3-4-0.5-6-0.8l0.2-1.3c2,0.3,4,0.6,6,0.8
	L275.8,539z M342.1,538.1l-0.2-1.3c2-0.3,4-0.6,5.9-1l0.2,1.3C346.1,537.5,344.1,537.8,342.1,538.1z M263.8,537.1
	c-2-0.4-4-0.7-5.9-1.2l0.3-1.3c2,0.4,3.9,0.8,5.9,1.1L263.8,537.1z M354,536l-0.3-1.3c2-0.4,3.9-0.8,5.9-1.3l0.3,1.3
	C357.9,535.1,356,535.6,354,536z M252,534.6c-1.9-0.5-3.9-1-5.9-1.5l0.3-1.3c1.9,0.5,3.9,1,5.8,1.5L252,534.6z M365.8,533.2
	l-0.3-1.3c1.9-0.5,3.9-1,5.8-1.6l0.4,1.3C369.7,532.2,367.7,532.7,365.8,533.2z M240.3,531.6c-1.9-0.6-3.9-1.2-5.8-1.8l0.4-1.3
	c1.9,0.6,3.8,1.2,5.8,1.8L240.3,531.6z M377.4,529.8l-0.4-1.3c1.9-0.6,3.8-1.2,5.7-1.9l0.4,1.3C381.2,528.6,379.3,529.2,377.4,529.8
	z M228.7,527.9c-1.9-0.7-3.8-1.4-5.7-2.1l0.5-1.3c1.9,0.7,3.8,1.4,5.7,2.1L228.7,527.9z M388.8,525.9l-0.5-1.3
	c1.9-0.7,3.7-1.4,5.6-2.2l0.5,1.2C392.6,524.4,390.7,525.2,388.8,525.9z M217.4,523.6c-1.9-0.8-3.7-1.6-5.6-2.4l0.5-1.2
	c1.8,0.8,3.7,1.6,5.6,2.4L217.4,523.6z M400,521.3l-0.5-1.2c1.8-0.8,3.7-1.6,5.5-2.5l0.6,1.2C403.7,519.7,401.8,520.5,400,521.3z
	 M206.2,518.7c-1.8-0.9-3.7-1.7-5.5-2.6l0.6-1.2c1.8,0.9,3.6,1.8,5.4,2.6L206.2,518.7z M410.9,516.2l-0.6-1.2
	c1.8-0.9,3.6-1.8,5.3-2.8l0.6,1.2C414.5,514.4,412.7,515.3,410.9,516.2z M195.4,513.3c-1.8-0.9-3.6-1.9-5.3-2.9l0.7-1.2
	c1.7,1,3.5,2,5.3,2.9L195.4,513.3z M421.6,510.5l-0.7-1.2c1.7-1,3.5-2,5.2-3l0.7,1.1C425.1,508.5,423.3,509.5,421.6,510.5z
	 M184.9,507.3c-1.7-1-3.5-2.1-5.1-3.2l0.7-1.1c1.7,1.1,3.4,2.1,5.1,3.2L184.9,507.3z M431.9,504.3l-0.7-1.1c1.7-1.1,3.4-2.2,5-3.3
	l0.7,1.1C435.3,502.1,433.6,503.2,431.9,504.3z M174.7,500.8c-1.7-1.1-3.3-2.3-5-3.5l0.8-1.1c1.6,1.2,3.3,2.3,4.9,3.4L174.7,500.8z
	 M442,497.6l-0.8-1.1c1.6-1.2,3.3-2.3,4.9-3.5l0.8,1.1C445.2,495.2,443.6,496.4,442,497.6z M164.8,493.7c-1.6-1.2-3.2-2.5-4.8-3.7
	l0.8-1.1c1.6,1.2,3.2,2.5,4.8,3.7L164.8,493.7z M451.6,490.3l-0.8-1.1c1.6-1.2,3.1-2.5,4.7-3.8l0.9,1
	C454.8,487.8,453.2,489.1,451.6,490.3z M155.3,486.2c-1.5-1.3-3.1-2.6-4.6-3.9l0.9-1c1.5,1.3,3,2.6,4.6,3.9L155.3,486.2z
	 M460.9,482.6l-0.9-1c1.5-1.3,3-2.7,4.5-4l0.9,1C463.9,479.9,462.4,481.2,460.9,482.6z M146.2,478.2c-1.5-1.4-2.9-2.8-4.4-4.2l0.9-1
	c1.4,1.4,2.9,2.8,4.4,4.1L146.2,478.2z M469.8,474.4l-0.9-1c1.4-1.4,2.9-2.8,4.3-4.2l1,0.9C472.7,471.5,471.2,473,469.8,474.4z
	 M137.6,469.7c-1.4-1.4-2.8-2.9-4.2-4.4l1-0.9c1.4,1.5,2.7,2.9,4.1,4.4L137.6,469.7z M478.2,465.7l-1-0.9c1.4-1.5,2.7-3,4-4.5l1,0.9
	C481,462.7,479.6,464.2,478.2,465.7z M129.4,460.9c-1.3-1.5-2.6-3.1-3.9-4.6l1-0.9c1.3,1.5,2.6,3.1,3.9,4.6L129.4,460.9z
	 M486.2,456.6l-1-0.9c1.3-1.5,2.6-3.1,3.8-4.7l1.1,0.8C488.8,453.5,487.5,455.1,486.2,456.6z M121.6,451.6c-1.2-1.6-2.5-3.2-3.7-4.8
	l1.1-0.8c1.2,1.6,2.4,3.2,3.7,4.8L121.6,451.6z M493.8,447.1l-1.1-0.8c1.2-1.6,2.4-3.2,3.6-4.9l1.1,0.8
	C496.2,443.9,495,445.5,493.8,447.1z M114.4,441.9c-1.2-1.6-2.3-3.3-3.4-5l1.1-0.7c1.1,1.7,2.3,3.3,3.4,4.9L114.4,441.9z
	 M500.8,437.3l-1.1-0.8c1.1-1.7,2.2-3.3,3.3-5l1.1,0.7C503,433.9,501.9,435.6,500.8,437.3z M107.7,431.9c-1.1-1.7-2.1-3.4-3.2-5.1
	l1.1-0.7c1,1.7,2.1,3.4,3.2,5.1L107.7,431.9z M507.3,427.1l-1.1-0.7c1-1.7,2.1-3.5,3-5.2l1.2,0.7
	C509.4,423.6,508.4,425.3,507.3,427.1z M101.4,421.5c-1-1.7-2-3.5-2.9-5.3l1.2-0.6c0.9,1.8,1.9,3.5,2.9,5.3L101.4,421.5z
	 M513.3,416.5l-1.2-0.6c0.9-1.8,1.9-3.6,2.8-5.4l1.2,0.6C515.2,412.9,514.3,414.8,513.3,416.5z M95.8,410.9
	c-0.9-1.8-1.8-3.6-2.6-5.4l1.2-0.6c0.8,1.8,1.7,3.6,2.6,5.4L95.8,410.9z M518.7,405.7l-1.2-0.6c0.9-1.8,1.7-3.7,2.5-5.5l1.2,0.5
	C520.4,402,519.6,403.9,518.7,405.7z M90.7,399.9c-0.8-1.8-1.6-3.7-2.3-5.6l1.2-0.5c0.7,1.8,1.5,3.7,2.3,5.5L90.7,399.9z
	 M523.6,394.6l-1.2-0.5c0.8-1.9,1.5-3.7,2.2-5.6l1.3,0.5C525.1,390.8,524.4,392.7,523.6,394.6z M86.1,388.8
	c-0.7-1.9-1.4-3.8-2.1-5.7l1.3-0.4c0.7,1.9,1.3,3.8,2,5.7L86.1,388.8z M527.9,383.2l-1.3-0.4c0.7-1.9,1.3-3.8,1.9-5.7l1.3,0.4
	C529.2,379.4,528.6,381.3,527.9,383.2z M82.1,377.3c-0.6-1.9-1.2-3.9-1.8-5.8l1.3-0.4c0.6,1.9,1.1,3.9,1.8,5.8L82.1,377.3z
	 M531.6,371.7l-1.3-0.4c0.6-1.9,1.1-3.9,1.6-5.8l1.3,0.3C532.7,367.8,532.1,369.7,531.6,371.7z M78.8,365.7c-0.5-1.9-1-3.9-1.5-5.9
	l1.3-0.3c0.5,1.9,0.9,3.9,1.4,5.8L78.8,365.7z M534.7,360l-1.3-0.3c0.5-1.9,0.9-3.9,1.3-5.9l1.3,0.3C535.6,356,535.1,358,534.7,360z
	 M76,353.9c-0.4-2-0.8-4-1.2-5.9l1.3-0.2c0.4,2,0.7,4,1.1,5.9L76,353.9z M537.1,348.1l-1.3-0.2c0.4-2,0.7-4,1-5.9l1.3,0.2
	C537.8,344.1,537.5,346.1,537.1,348.1z M73.9,342c-0.3-2-0.6-4-0.8-6l1.3-0.2c0.3,2,0.5,4,0.8,6L73.9,342z M539,336.2l-1.3-0.2
	c0.3-2,0.5-4,0.7-6l1.3,0.1C539.5,332.2,539.2,334.2,539,336.2z M72.3,330c-0.2-2-0.4-4-0.5-6l1.3-0.1c0.2,2,0.3,4,0.5,6L72.3,330z
	 M540.2,324.1l-1.3-0.1c0.2-2,0.3-4,0.4-6l1.3,0.1C540.5,320.1,540.4,322.1,540.2,324.1z M71.4,317.9c-0.1-2-0.2-4-0.2-6h1.3
	c0,2,0.1,4,0.2,6H71.4z M540.8,312h-1.3c0.1-2,0.1-4,0.1-6h1.3C540.9,308,540.9,310,540.8,312z M72.5,305.9h-1.3c0-2,0-4,0.1-6h1.3
	C72.5,301.8,72.5,303.9,72.5,305.9z M539.5,300.3c0-2-0.1-4-0.2-6l1.3-0.1c0.1,2,0.2,4,0.2,6L539.5,300.3z M72.8,293.8l-1.3-0.1
	c0.1-2,0.2-4,0.4-6l1.3,0.1C73,289.8,72.9,291.8,72.8,293.8z M538.9,288.3c-0.2-2-0.3-4-0.5-6l1.3-0.1c0.2,2,0.4,4,0.5,6
	L538.9,288.3z M73.7,281.8l-1.3-0.1c0.2-2,0.4-4,0.7-6l1.3,0.2C74.1,277.8,73.9,279.8,73.7,281.8z M537.7,276.3c-0.3-2-0.5-4-0.8-6
	l1.3-0.2c0.3,2,0.6,4,0.8,6L537.7,276.3z M75.2,269.9l-1.3-0.2c0.3-2,0.6-4,1-6l1.3,0.2C75.9,265.9,75.5,267.9,75.2,269.9z
	 M535.9,264.4c-0.4-2-0.7-4-1.1-5.9l1.3-0.3c0.4,2,0.8,4,1.1,5.9L535.9,264.4z M77.4,258.1l-1.3-0.3c0.4-2,0.9-4,1.3-5.9l1.3,0.3
	C78.2,254.1,77.8,256.1,77.4,258.1z M533.4,252.6c-0.5-1.9-0.9-3.9-1.4-5.8l1.3-0.3c0.5,1.9,1,3.9,1.5,5.9L533.4,252.6z M80.1,246.4
	l-1.3-0.3c0.5-1.9,1.1-3.9,1.6-5.8l1.3,0.4C81.2,242.5,80.6,244.4,80.1,246.4z M530.4,241c-0.6-1.9-1.1-3.8-1.7-5.8l1.3-0.4
	c0.6,1.9,1.2,3.9,1.8,5.8L530.4,241z M83.5,234.8l-1.3-0.4c0.6-1.9,1.3-3.9,1.9-5.8l1.3,0.4C84.8,231,84.1,232.9,83.5,234.8z
	 M526.7,229.5c-0.7-1.9-1.3-3.8-2-5.7l1.3-0.5c0.7,1.9,1.4,3.8,2.1,5.7L526.7,229.5z M87.5,223.4l-1.3-0.5c0.7-1.9,1.5-3.8,2.2-5.6
	l1.2,0.5C88.9,219.6,88.2,221.5,87.5,223.4z M522.5,218.3c-0.7-1.8-1.5-3.7-2.3-5.5l1.2-0.5c0.8,1.8,1.6,3.7,2.3,5.6L522.5,218.3z
	 M92,212.2l-1.2-0.5c0.8-1.8,1.7-3.7,2.5-5.5l1.2,0.6C93.7,208.6,92.8,210.4,92,212.2z M517.7,207.3c-0.8-1.8-1.7-3.6-2.6-5.4
	l1.2-0.6c0.9,1.8,1.8,3.6,2.6,5.4L517.7,207.3z M97.2,201.3l-1.2-0.6c0.9-1.8,1.8-3.6,2.8-5.4l1.2,0.6
	C99,197.7,98.1,199.5,97.2,201.3z M512.4,196.5c-0.9-1.8-1.9-3.5-2.9-5.3l1.2-0.7c1,1.7,2,3.5,2.9,5.3L512.4,196.5z M102.9,190.7
	l-1.2-0.7c1-1.7,2-3.5,3.1-5.2l1.1,0.7C104.9,187.2,103.8,189,102.9,190.7z M506.4,186.1c-1-1.7-2.1-3.4-3.2-5.1l1.1-0.7
	c1.1,1.7,2.1,3.4,3.2,5.1L506.4,186.1z M109.1,180.4l-1.1-0.7c1.1-1.7,2.2-3.4,3.3-5.1l1.1,0.8C111.3,177,110.2,178.7,109.1,180.4z
	 M500,175.9c-1.1-1.7-2.3-3.3-3.4-4.9l1.1-0.8c1.2,1.6,2.3,3.3,3.4,5L500,175.9z M115.8,170.4l-1.1-0.8c1.2-1.6,2.4-3.3,3.6-4.9
	l1.1,0.8C118.2,167.1,117,168.8,115.8,170.4z M493.1,166.1c-1.2-1.6-2.4-3.2-3.7-4.8l1.1-0.8c1.2,1.6,2.5,3.2,3.7,4.8L493.1,166.1z
	 M123.1,160.8l-1-0.8c1.2-1.6,2.5-3.1,3.8-4.7l1,0.9C125.6,157.7,124.3,159.2,123.1,160.8z M485.6,156.7c-1.3-1.5-2.6-3.1-3.9-4.6
	l1-0.9c1.3,1.5,2.6,3.1,3.9,4.6L485.6,156.7z M130.8,151.6l-1-0.9c1.3-1.5,2.7-3,4.1-4.5l1,0.9C133.5,148.6,132.1,150.1,130.8,151.6
	z M477.7,147.7c-1.4-1.5-2.7-2.9-4.1-4.4l1-0.9c1.4,1.4,2.8,2.9,4.2,4.4L477.7,147.7z M139,142.7l-1-0.9c1.4-1.4,2.8-2.9,4.3-4.3
	l0.9,1C141.8,139.9,140.4,141.3,139,142.7z M469.3,139c-1.4-1.4-2.9-2.8-4.4-4.2l0.9-1c1.5,1.4,2.9,2.8,4.4,4.2L469.3,139z
	 M147.6,134.4l-0.9-1c1.5-1.4,3-2.7,4.5-4l0.9,1C150.6,131.7,149.1,133,147.6,134.4z M460.5,130.8c-1.5-1.3-3-2.6-4.6-3.9l0.9-1
	c1.5,1.3,3.1,2.6,4.6,3.9L460.5,130.8z M156.7,126.4l-0.9-1c1.5-1.3,3.1-2.6,4.7-3.8l0.8,1.1C159.8,123.9,158.2,125.2,156.7,126.4z
	 M451.3,123.1c-1.6-1.2-3.2-2.5-4.8-3.7l0.8-1.1c1.6,1.2,3.2,2.5,4.8,3.7L451.3,123.1z M166.1,119l-0.8-1.1c1.6-1.2,3.2-2.4,4.9-3.6
	l0.8,1.1C169.3,116.6,167.7,117.8,166.1,119z M441.7,115.9c-1.6-1.2-3.3-2.3-4.9-3.4l0.8-1.1c1.7,1.1,3.3,2.3,5,3.5L441.7,115.9z
	 M175.9,112l-0.7-1.1c1.7-1.1,3.4-2.2,5.1-3.3l0.7,1.1C179.2,109.8,177.5,110.9,175.9,112z M431.7,109.1c-1.7-1.1-3.4-2.1-5.1-3.2
	l0.7-1.1c1.7,1,3.5,2.1,5.1,3.2L431.7,109.1z M186,105.6l-0.7-1.1c1.7-1,3.5-2.1,5.2-3l0.7,1.2C189.5,103.5,187.7,104.6,186,105.6z
	 M421.4,102.9c-1.7-1-3.5-2-5.3-2.9l0.6-1.2c1.8,0.9,3.6,1.9,5.3,2.9L421.4,102.9z M196.5,99.7l-0.6-1.2c1.8-0.9,3.6-1.9,5.4-2.8
	l0.6,1.2C200,97.8,198.2,98.7,196.5,99.7z M410.7,97.2c-1.8-0.9-3.6-1.8-5.4-2.6l0.6-1.2c1.8,0.9,3.7,1.7,5.5,2.7L410.7,97.2z
	 M207.2,94.3l-0.6-1.2c1.8-0.8,3.7-1.7,5.5-2.5l0.5,1.2C210.8,92.6,209,93.5,207.2,94.3z M399.8,92.1c-1.8-0.8-3.7-1.6-5.6-2.4
	l0.5-1.2c1.9,0.8,3.7,1.6,5.6,2.4L399.8,92.1z M218.2,89.5l-0.5-1.2c1.9-0.8,3.8-1.5,5.6-2.2l0.5,1.3C221.9,88,220,88.8,218.2,89.5z
	 M388.7,87.5c-1.9-0.7-3.8-1.4-5.7-2.1l0.4-1.3c1.9,0.7,3.8,1.4,5.7,2.1L388.7,87.5z M229.4,85.3L229,84c1.9-0.7,3.8-1.3,5.7-1.9
	l0.4,1.3C233.3,84,231.3,84.6,229.4,85.3z M377.3,83.5c-1.9-0.6-3.8-1.2-5.8-1.8l0.4-1.3c1.9,0.6,3.9,1.2,5.8,1.8L377.3,83.5z
	 M240.9,81.6l-0.4-1.3c1.9-0.6,3.9-1.1,5.8-1.6l0.3,1.3C244.8,80.6,242.8,81.1,240.9,81.6z M365.7,80.2c-1.9-0.5-3.9-1-5.8-1.5
	l0.3-1.3c2,0.5,3.9,1,5.9,1.5L365.7,80.2z M252.5,78.6l-0.3-1.3c2-0.5,3.9-0.9,5.9-1.3l0.3,1.3C256.5,77.7,254.5,78.1,252.5,78.6z
	 M354,77.4c-2-0.4-3.9-0.8-5.9-1.2l0.2-1.3c2,0.4,4,0.8,5.9,1.2L354,77.4z M264.3,76.2l-0.2-1.3c2-0.4,4-0.7,6-1l0.2,1.3
	C268.3,75.5,266.3,75.8,264.3,76.2z M342.2,75.2c-2-0.3-4-0.6-6-0.8l0.2-1.3c2,0.3,4,0.5,6,0.9L342.2,75.2z M276.2,74.3L276,73
	c2-0.3,4-0.5,6-0.7l0.1,1.3C280.2,73.9,278.2,74.1,276.2,74.3z M330.2,73.7c-2-0.2-4-0.4-6-0.5l0.1-1.3c2,0.2,4,0.3,6,0.5
	L330.2,73.7z M288.2,73.1l-0.1-1.3c2-0.2,4-0.3,6-0.4l0.1,1.3C292.2,72.8,290.2,73,288.2,73.1z M318.2,72.8c-2-0.1-4-0.2-6-0.2v-1.3
	c2,0.1,4,0.1,6,0.2V72.8z M300.2,72.5v-1.3c1.9,0,3.9-0.1,5.8-0.1h0.2v1.3H306C304.1,72.5,302.1,72.5,300.2,72.5z"/>
<g>
	<path class="st3" d="M512.7,463.7c-5.4,0-10.6-1.1-15.5-3.1c-4.7-2-9-4.9-12.6-8.5c-3.7-3.7-6.5-7.9-8.5-12.6
		c-2.1-4.9-3.1-10.1-3.1-15.5s1.1-10.6,3.1-15.5c2-4.7,4.9-9,8.5-12.6c3.7-3.7,7.9-6.5,12.6-8.5c4.9-2.1,10.1-3.1,15.5-3.1
		c5.4,0,10.6,1.1,15.5,3.1c4.7,2,9,4.9,12.6,8.5s6.5,7.9,8.5,12.6c2.1,4.9,3.1,10.1,3.1,15.5s-1.1,10.6-3.1,15.5
		c-2,4.7-4.9,9-8.5,12.6c-3.7,3.7-7.9,6.5-12.6,8.5C523.3,462.7,518.1,463.7,512.7,463.7z M512.7,387.6c-20.1,0-36.4,16.3-36.4,36.4
		s16.3,36.4,36.4,36.4c20.1,0,36.4-16.3,36.4-36.4C549.1,403.9,532.7,387.6,512.7,387.6z"/>
	<circle class="st3" cx="512.3" cy="424.3" r="38.8"/>
</g>
<g>
	<path class="st4" d="M120.5,203.2c-5.4,0-10.6-1.1-15.5-3.1c-4.7-2-9-4.9-12.6-8.5c-3.7-3.7-6.5-7.9-8.5-12.6
		c-2.1-4.9-3.1-10.1-3.1-15.5s1.1-10.6,3.1-15.5c2-4.7,4.9-9,8.5-12.6c3.7-3.7,7.9-6.5,12.6-8.5c4.9-2.1,10.1-3.1,15.5-3.1
		c5.4,0,10.6,1.1,15.5,3.1c4.7,2,9,4.9,12.6,8.5s6.5,7.9,8.5,12.6c2.1,4.9,3.1,10.1,3.1,15.5s-1.1,10.6-3.1,15.5
		c-2,4.7-4.9,9-8.5,12.6c-3.7,3.7-7.9,6.5-12.6,8.5C131.1,202.2,125.9,203.2,120.5,203.2z M120.5,127.1c-20.1,0-36.4,16.3-36.4,36.4
		s16.3,36.4,36.4,36.4c20.1,0,36.4-16.3,36.4-36.4C156.9,143.4,140.5,127.1,120.5,127.1z"/>
	<circle class="st4" cx="120.1" cy="163.8" r="38.8"/>
</g>
<path class="st5" d="M601.5,389.1c-0.5,1.7-1,3.4-1.5,5.1C601.3,393.6,601.4,391.4,601.5,389.1z"/>
<path class="st0" d="M596.6,207.8c-0.2-0.5-0.4-1.1-0.6-1.6C595.9,206.4,596.1,206.9,596.6,207.8z"/>
<path class="st0" d="M588.6,186.9c-0.1-0.3-0.2-0.5-0.4-0.8C588,186.4,588.1,186.7,588.6,186.9z"/>
<path class="st1" d="M19,220.3c3.3-2.2,4.2-7.5,6.9-6s3.5,0.8,5.7,0.3s13,3,14.9,4s4.6,3.7,6,4.7s1.9,3.2,0.6,3.5
	c-1.4,0.2-1.6,1.5-1.4,3.5c0.3,2,1.4,3.7-1.4,4.2c-2.7,0.5-2.2,3.5-0.5,3.2c1.6-0.2,2.7-1,3-2.5s3.8-4.2,3.3-2.2s-1.9,4-1.9,5.5
	s-1.9,1.2-2.2,2.7s0.3,1.5,1.6,2.7c1.4,1.2,0.5,2,0.3,4.7c-0.3,2.7-8.5,10.2-9.6,12.7c-1.1,2.5-0.5,6-0.5,8.7s-1.1,6.2,1.9,7.2
	s3.3,1.5,3.3,4s0,5.5,1.6,7.2s0.8,1.5,0.8,4.2s1.9,1.2,2.2,3.5c0.3,2.2-1.4,3.2,1.4,5c2.7,1.7,5.8,3,4.4,0.2c-1.4-2.7-2.2-5-3.6-8.9
	c-1.4-4-2.2-11.2-0.5-8.9c1.6,2.2,3.8,8.9,6.3,13.6s5.5,4.2,5.5,7.7s-3,6.7,3,8.9c6,2.2,10.4,6.9,14,6.5c3.6-0.5,5.8-2.5,7.1-0.2
	c1.4,2.2,4.4,5.2,7.7,5.2c3.3,0,4.4,2,4.9,5c0.6,3,2.7,3.5,6,4.5s4.1,4.2,6.6,4s5.8-1.2,5.8,1s1.1,7.7-3,11.2s-6,6-3.8,8.2
	s0.3,4.5-0.8,6.2c-1.1,1.7,0.8,3.2,3,6c2.2,2.7,5.2,6,7.1,11.4c1.9,5.5,4.7,7.4,9.3,9.2c4.7,1.7,8.2,4.7,8.2,8.9
	c0,4.2-0.3,18.6-0.3,22.8c0,4.2,2.5,8.4,1.6,11.7c-0.8,3.2,0,6,1.1,7.2s0.8,4,1.1,6.7s3.6,0.7,3.6,3.2s-1.4,6.2,0.3,7.4
	c1.6,1.2-1.9,5.7,5.5,9.9c7.4,4.2,8,4.5,8.5,5.2s3-1.5,3-0.3s-4.1,8.5,3.6,8.5c7.7,0,12.4-2.6,7.7-5.8c-4.7-3.2-7.4-1.7-8.2-5
	c-0.8-3.2-1.9-2.7-2.5-5c-0.6-2.2,1.9-3.2,1.1-5.5c-0.8-2.2-4.8-2.5-4.5-4.7s2.9-4.2,3.4-5.2c0.6-1,0.6-2-0.8-3
	c-1.4-1-1.1-1.2,0.8-1.7c1.9-0.5,2.2,0.2,3-2.2c0.8-2.5,3.3-2.2,4.4-3c1.1-0.7,4.9-1.7,3.6-5c-1.4-3.2-5-5.1-2-5.1s7,0.1,8.9-3.4
	s1.1-4.2,3.3-6.9c2.2-2.7,1.2-5.1,1.2-7.1s0.2-3.8,3.2-5.1c3-1.2,12.9-2.7,14.3-6.5c1.4-3.7,2.7-7.7,2.2-11.7s-0.8-6.5,2.2-9.7
	s6.9-6,6.9-8.9c0-3,1.4-7.2-3.6-8.4c-4.9-1.2-5.2,0.2-5.8-2.2c-0.5-2.5-3.8-2.5-6.9-2.5c-3,0-4.1-0.2-6.6-2.2s-7.7-2.2-9.3-2.7
	s-0.8-4.7-4.1-8.7s-10.2-4.7-14.5-6.9c-4.4-2.2-3-10.9-9.3-10.2c-6.3,0.7-6.9,3-12.6,0.2c-5.8-2.7-9.6-4.5-12.6-2.5
	s-6.9,5.7-8.8,6.7s-5.2-0.7-7.1-0.5s-4.1-1.7-5.5-3.5c-1.4-1.7,2.5-10.4-1.1-10.4s-8.2-1.5-8.2-2.7s7.4-8.7,5.2-9.9
	c-2.2-1.2-6.6-0.5-10.4,4.2s-7.4,4.5-9.3,2.7c-1.9-1.7-6.3-11.9-2.7-17.6c3.6-5.7,8.3-9.1,12.7-8.8c4.4,0.2,6.2-1,10.5-1.2
	c4.4-0.2,8.6,1.6,9.7,3.1s-1.1,4,1.6,7s4.4,1.7,4.7,3c0.3,1.2-2.2,2.5-3.3,2.5c-1.1,0-10.2,2.2-6.6,3.7s9.9,0.2,11.3,2.2
	s-4.4,6.2,3.8,6.5c8.2,0.2,13.7,1.2,18.4,1.5c4.7,0.2,8,0.5,8.5,1.5s3.8-3.7-3.8-3.7c-7.7,0-13.7-4-17.8-4.7s-6.9-3.2-7.1-6.2
	c-0.3-3,0.3-5.2-1.4-7.7c-1.6-2.5-5.8-8.4-1.9-10.9c3.8-2.5,11.5-7.2,13.5-10.4c1.9-3.2,1.9-4,6.3-6.5c4.4-2.5,9.6-5.7,12.1-7.9
	c2.5-2.2,6.6-5.7,7.4-4c0.8,1.7,4.7,2.2,9.3,0.7c4.7-1.5,10.4-5.2,5.5-5.2s-8-1.2-6.6-3c1.4-1.7-3.3-2.5-4.7-2.2
	c-1.4,0.2-1.4-2.5,3.3-3.2s0.9,3.8,4.7,3.5c3.8-0.2,6.2-3.8,9-4.3c2.7-0.5,3.8,1.7,0.3,4c-3.6,2.2-4.7,1.5,0,2.5s6,3.2,8.8,1
	c2.7-2.2-0.6-3-0.8-6c-0.3-3,2-8.9-1-10.9s-4.4-4-4.4-6s0.5-6.2-2.5-4.2s-5.5,3.2-6.6,2.2s0.5-3-1.9-4.5c-2.5-1.5-2.7-3.7-5.8-3.5
	c-3,0.2-6-2-7.7,1.2c-1.6,3.2-3.3,6-3.8,6.9c-0.5,1,1.9,4.5-0.3,6.2s-8.2,4.2-9.1,6c-0.8,1.7-4.1,6.2-4.9,3.2
	c-0.8-3,2.7-7.4-2.2-8.7c-4.9-1.2-8.8-0.2-9.6-3c-0.8-2.7-3-5.2,1.9-7.4s9.9-6.2,14.5-6.7c4.7-0.5,1.4,3,5.2,2.7
	c3.8-0.2-0.6-2,4.1-2.7c4.7-0.7,3.8-0.7,2.5-2.2c-1.4-1.5-0.6-1.7,3-3.2s0.8-2.5,4.4-3.7c3.6-1.2,4.4-2.5,6.3-2.5
	c1.9,0,1.6,0.7,0.5,3c-1.1,2.2-1.9,3.7,1.4,2.2c3.3-1.5,4.9-2.5,2.5-0.2c-2.5,2.2-4.1,2.2-7.7,2.7c-3.6,0.5-2.5,1-0.8,2.7
	c1.6,1.7,5.8,2,7.1,3c1.4,1,3,4.5,6.3,2.7c3.3-1.7,0.8-2,5.2-3.7s10.7-2.7,10.2-5c-0.5-2.2-4.9-3.5-5.5-6.2c-0.5-2.7,6-4.2-2.5-5.5
	c-8.5-1.2-3.6-2.2-7.7-2.2c-4.1,0-11.8,0-14.5,1.2s-4.4-0.7-5.8,1.2c-1.4,2,0.3,4.7-1.1,4.7c-1.4,0-3.8,2-4.9,0
	c-1.1-2-3.6-4-0.3-4.7s3.8-0.2,4.4-2.5c0.5-2.2-4.7-2-1.6-2.5c3-0.5,4.4,0.2,8.5,0.2s13.4,1.5,14.8-0.7c1.4-2.2-2.2-2.2-6.3-2.5
	c-4.1-0.2-11.3-1.5-14.3-0.2c-3,1.2-6.9,3.2-8.2,5.2c-1.4,2-1.4-0.5-4.1,0c-2.7,0.5-7.4,3.2-4.9,4.7s2.5,3.2-0.3,3.2
	c-2.7,0-3.6,2.5-5.5,2.5s-7.1-0.2-4.7-1.5c2.5-1.2,5.2-1.2,4.9-4.2s2.7-4,2.7-5s-6.6,2.2-11.8,0.7s-7.4-3.7-12.6-3.5
	s-12.1,6.5-8.8,6.9c3.3,0.5,5.8-0.5,6.3,1s-0.5,2.7,1.4,3.5c1.9,0.7,5.5,2.7,0.8,1.7s-2.5-2.7-9.6-3c-7.1-0.2-11.5-2.2-18.9-0.5
	s-6.3,3.2-11.3,1.7c-4.9-1.5-16.9-7.1-25.1-5.6s-16.9,6.1-19.4,7.6s-3.8-2.3-8.2-2c-1.6,0.1-4,0-6.3-0.1c-2.5,6.9-4.7,13.9-6.7,21.1
	C13.1,224.1,16.3,222.2,19,220.3z"/>
<path class="st1" d="M266.1,196.3c3-3,2.2-4.5,6.3-6c4.1-1.5,3-3.5,2.5-6.5s1.7-1.8,3.3-2.8c1.6-1,2.4-1.7,6.3-1.9
	c3.8-0.2,0.3-1.5,0.3-3s-2.7-1.2-6.6-0.7c-3.8,0.5-3.3,0-6-1s-18.9-1-23.1-1c-4.1,0-11.5,0.7-15.4,1c-3.8,0.2-3.6,0-11-0.7
	s-26.9-0.2-34,0.5s-11.2-1.1-15.9,1.6c-4.7,2.7-6.8,1.5-12,2s-8.8-0.7-11.3-0.7s-2.2-1.2-6.6,0.2c-4.4,1.5-3,2.5-4.7,0.5
	c-1.6-2-3.8,0-11.5,1.7s3.8,7.8,6.3,8.5c0,0,5.2-0.2,8.2-1c3-0.7,4.4,1,6.3,0.5c1.9-0.5,2.5-2.2,13.5-4.5c11-2.2,18.7-0.5,23.1,1.2
	c4.4,1.7,4.4,0.7,8.2-1.5s10.4-4,17.3-5c6.9-1,2.5,1.2-1.9,2.7s-8.2,1-7.4,3.5s9.3,1.7,11.8,1.7s2.7,3.5,3,5.5s-0.3,3,0.3,5
	s1.9,1.7-0.5,3.7c-2.5,2-3.8,1.7-3.8,5.2s1.6,7.2,5.5,9.7c3.8,2.5,6,2.7,8.2-1.2c2.2-4,7.4-6.5,10.2-7.7c2.7-1.2,6.6,0,10.2-3
	c3.6-3,8.2-1.7,13.4-3.2C263.7,198.3,263.1,199.3,266.1,196.3z"/>
<path class="st1" d="M271,210.4c-8.2,1-15.9-1.5-14.5,2.5s2,11.5,6.4,10.3c7.5-2.1,14.3-4.8,12.4-8C273.3,212,279.2,209.4,271,210.4
	z"/>
<path class="st1" d="M324,191.4c0.3,0.1,0.6,0.1,0.8,0.2c2.7,1,4.7-0.5,4.9-2.5c3-4,1.9,3.2,5.2,2c3.3-1.2,8-4.2,11.8-6
	c3.8-1.7-4.7-1-11.5-2c-6.9-1-16.5,0.7-19.2,2.5C313.5,187.2,320,190.3,324,191.4z"/>
<path class="st1" d="M364.7,181.1c0,0-1.4,1.7,1.9,1.7s10.2-2,15.6-2s3.8-1.7,2.7-1.7c-1.1,0-4.1-2.7-8.5-2.5s-4.1,2-6.9,2
	c-2.7,0-2.2-0.7-8-0.5C355.9,178.4,361.6,180.6,364.7,181.1z"/>
<path class="st1" d="M597.1,208.7c-0.2-0.3-0.4-0.6-0.5-0.9c1.7,4.9,3.2,9.9,4.6,14.9C600.9,218.4,599.4,212.3,597.1,208.7z"/>
<path class="st1" d="M584.4,183.9c-0.8,2.2,3.1,2.9-3.2,2.9s-14.9,8.3-22.3,7.1c-7.4-1.2-9.7-5.7-16-6c-6.3-0.2-11.6,5.5-18.2,5.5
	c-6.6,0-4.4-2.2-7.1-5c-2.7-2.7-4.1-2-12.4-2c-8.2,0-3.8,3-2.2,3.5s6,1.7,9.1,4.2c3,2.5-5.5,1.5-9.1,1.7s-3.3-1.7-7.4-4
	c-4.1-2.2-14.3-1-20.1-1.2c-5.8-0.3-6,0-8.2-3.7s-6.9-1.7-12.9-1.7s-9.3-2.7-12.4-4.5c-3-1.7-7.7-2-14.3-3c-6.6-1-3,3.7-0.5,4
	c0,0,2.7,1,5.5,1.2c2.7,0.3,8.5,0.5,11.5,3.7s-9.3,2-14.8,4.7s-9.9,1.5-13.7,3c-3.8,1.5,1.9,4,3.3,7.2s0,3.2-2.5,4
	c-2.5,0.7,0.8-3.5-0.3-4.7c-1.1-1.2-5.2-7.7-8.5-9.7s-2.7,1.7-2.2,4.5c0.5,2.7,1.4,2.7,2.2,4.7c0.8,2-3.6,0-5.8-1.5
	c-2.2-1.5-9.3,2-12.6,0.5c-3.3-1.5,1.1-1,1.1-2.5s-3.8-0.2-4.9-2.5c-1.1-2.2,6.9-5,11.8-5.7c4.9-0.8,4.4-0.8,4.4-3
	s-8.8-1.5-16.2,1.7c-7.4,3.2-5.5,5.5-6.6,7.7s2.5,2.5,4.1,3.7c1.7,1.2-1.9,1.7-5.2,2.7c-3.3,1-4.1,0-8,1.2c-3.8,1.2-1.6,2.7-4.9,4
	c-3.3,1.2-3,1.2-5.8,2.2c-2.7,1,0.6-3.7,4.4-4.2s2.7-2.5,1.6-3.2s-8.2-2.7-15.9-4.7c-7.7-2-20,0.7-24.2,2.5c-4.1,1.7-3.8,3-4.4,5.5
	s-9.9,6.2-14.5,8.4c-4.7,2.2-0.6,5.2,0.8,7.2s4.4,1,8.2,0c3.8-1,3.3,3.2,3.8,4.7s2.7,1.7,6.3,0.2c3.6-1.5,2.7-5,2.7-6.9
	c0-2-0.8-3,1.6-5.7c2.5-2.7,4.7-4.5,6.9-5.7c2.2-1.2,1.9,1-1.4,3.5s-1.1,3.2,0.6,6.2c1.6,3,4.9,0,9.1-0.5c4.1-0.5-3.6,3.2-6.6,3.2
	s0,3-1.9,3s-2.2,1.2-2.5,4.2s-1.4,2.2-3.6,3c-2.2,0.7-5.5,1-9.1,0.2c-3.6-0.7-3.3-3.7-5.8-5.7s-3,1-3,2.2s-2.5,4-3.6,4
	s-4.4,3-6.3,5.5s-3.3,1-3.8,0c-0.6-1,1.4-2.5,0.3-5s-5.5-4.5-4.1-10.2s-1.6-2.7-6-2.2s-5.8,2.2-6,3.7c-0.3,1.5-2.7,4.5-5.5,7.2
	c-2.7,2.7-0.8,5,0.6,7.9c1.4,3,4.9-1,6-3.5s2.5-3.7,4.1-2.5s-2.5,3.5-3,6.5c-0.6,3,1.1,2.7,4.9,1.7s1.9-1.7,4.9-0.5
	s-2.7,2.2-6.3,2.5c-3.6,0.2-2.2,2.5,0.8,4.5s1.6,5-0.3,5.2s-5.5,0.7-11,1.7s-0.6,5-1.6,7.2c-1.1,2.2-1.4,7.2,1.1,7.4
	c2.5,0.3,2.5,4,1.1,5.2s-1.6,2.5-4.9,4.7s-0.8,4.2-1.9,7.2s-3.8,1.2-7.1,4.5c-3.3,3.2-4.7,5.7-7.1,9.4c-2.5,3.7-2.7,4,0.3,8.4
	c3,4.5,0,5.7-2.5,9.7s0.8,4.2,1.9,7.7s3.3,2.7,4.1,6.2c0.8,3.5,1.9,4.5,5.8,6.9c3.8,2.5,7.7,6,9.6,5.2c1.9-0.7,4.9-2.7,11.3-2.5
	c6.3,0.2,4.1-2.5,10.7-3.5s1,1.4,1.8,3.2c0.8,1.7,6.4,2.8,11.4,3.1c4.9,0.2,0.8,5.7,0.5,9.2s0,3.5,2.5,6.5s5.8,9.7,6.6,13.2
	c0.8,3.5-0.8,7.4-3,10.7c-2.2,3.2-1.4,10.7,3.3,16.1c4.7,5.5,1.9,5.2,1.9,10.9c0,5.7,3.3,4.7,5.8,7.9c2.5,3.2,1.4,9.2,3.6,12.4
	c2.2,3.2,6,0.2,10.4-1.2c4.4-1.5,6.3-1,11.5-4.5s9.3-10.4,9.3-12.4s1.6-2.7,4.4-3.7c2.7-1,2.2-7.4,1.9-9.2c-0.3-1.7,0.6-3.2,1.6-4.2
	c1.1-1,8-6.9,10.4-9.4c2.5-2.5,0.3-6-0.3-9.9c-0.6-4-2.2-5.5-2.2-10.2s-1.6-4.2,7.4-11.9c9.1-7.7,17.6-19.9,18.4-22.6s0.6-5,0-7
	c-0.5-2-12.4,2-15.1,2s-9.8-5.3-10.3-7.3c-0.6-2-2.6-4.1-6.2-7.1s-0.8-7.2-3.6-10.4c-2.7-3.2-4.1-7.9-4.7-10.7
	c-0.5-2.7,4.1,2,7.7,5.7s8.2,10.7,9.6,13.2s2.5,6.2,2.7,9.2c0.3,3,2.5,3.5,5.8,3.2s14.8-5.7,18.9-7.5c4.1-1.7,9.1-6.9,11-11.9
	s-4.1-4.2-6.9-6.7c-2.7-2.5-2.7,0-6,0.7s-6-3.2-11.3-7.7c-5.2-4.5-1.9-3-0.8-4s6.3,2.2,9.3,5.5c3,3.2,3.6,2,7.1,2
	c3.6,0,4.4,1.5,9.1,2.7s7.1-0.5,11.1-0.1s3.4,2.1,6.2,6.1c2.7,4,1.7,2.7,7.7,3.2s1.6,0,1.6,3.5s0.5,4.7,4.1,8.9
	c3.6,4.2,4.9,12.2,6,16.1c1.1,4,3.3,0,6.9,0s-1,3.8,3,6.7c4.7,3.4,4.4-1.5,4.4-2.9c0-1.5-1.4-5-3-6.2s-3.8-1-1.9-3s-2.2-3.3-2.2-6
	s1.1-6.4,2.5-7.7c1.4-1.2,8-4.7,11-7.9c3-3.2,5.5-3.7,9.6-3.5c4.1,0.3,0.8,0.7,3.3,3.7s3,7.2,5.8,10.2c2.7,3,3-0.5,5.2-1.5
	s0.8,3,2.5,6c1.6,3,0.5,7,0.5,9.7s3.6,5.5,5.8,7.9c2.2,2.5,1.4,3.7,0,4.7c-1.4,1-4.1-2.5-6.3-4.5c-2.2-2-5.5-0.7-3.3,1.5
	s3.6,6.2,6,10.4c2.5,4.2,7.7,9.2,11.3,13.6c3.6,4.5,15.1,6.5,19.5,6.5s13.2,3.5,17.6,4c4.4,0.5,7.7,0,10.7-1.5s1.7-3.2,1.4-4
	c-0.3-0.7-2.5,0.7-5.5,1.2s-3.8,0.5-7.7,0.7c-3.8,0.2-1.4-1.2-5.5-1.5s-8.2-1-12.9-2.5s-7.1-2.7-10.4-3.7c-3.3-1-0.3-2.7-0.6-6.9
	c-0.3-4.2-3.3-2.5-5.8-4s-1.6-4.7-0.5-3.7s1.4,2.2,1.4-3s-5.2-8.7-8.5-13.2s-2.8-6.9-2.5-9.2c0.3-2.2,6,2,9.1,5.2
	c3,3.2,3,3.2,4.7,2.5c1.6-0.7,6.6-3.2,7.7-7.2c1.1-4-8.8-11.9-10.2-15.6s1.9-1.5,3.6-4c1.7-2.5,3.6,1,2.5,2.7s0.3,2.7,1.4,4.5
	c1.1,1.7,1.1,0,2.2-2.2c1.1-2.2,0.3-3,2.2-4.5s9.3-3.5,11.3-5.2c1.9-1.7,3.3-3.7,5.8-9.9c2.5-6.2-0.3-6-1.4-8.2
	c-1.1-2.2-4.4-6-6.3-8.2c-1.9-2.2-0.3-1.7,1.1-2.5c1.4-0.7,0.3-2.5-3-3.5s-2.7,1-5.8,0.5c-3-0.5-1.4-2.5,1.9-6
	c3.3-3.5,1.6,0.7,3.8,2.2s2.7-1.2,4.4-0.5c1.6,0.7,4.9,2.2,7.4,5.2s2.4,7.3,4.9,7c2.5-0.2,2.5-2.1,3.6-4.3c1.1-2.2-2.5-4.5-4.4-6.2
	s-4.4-1.5-2.7-3c1.6-1.5,0.3-3.7,1.1-5.5c0.8-1.7,3.8-0.7,6.9-2c3-1.2,3.3-5.5,3.3-9.9c0-4.5-2.5-6.5-3.8-7.9
	c-1.4-1.5,1.6-0.7,4.1,1s6.3,11.2,7.1,14.9s0.3,3.7,3.6,6.9c3.3,3.2,2.2,2.7,1.1,6.5c-1.1,3.7-3.8,4.7-8,5.7c-4.1,1-2.7,1.7-5.2,5.5
	c-2.5,3.7,1.4,4,3.6,5c2.2,1,2.5-3.1,5.2-4.9c2.7-1.7,6.6-2.6,11.3-2.6s-1.4-5.7-1.6-8.7c-0.3-3-0.6-5-1.7-7.2
	c-1.1-2.2,1.1-2.2,4.4-3.7c3.3-1.5,3-4.5,1.1-4.5s-3.6,1.2-8,1s-3.3-3.5-4.4-4.7c-1.1-1.2-2.5-4-2.7-6.2s-4.1-5.2-6.9-7.4
	c-2.7-2.2-4.4-3.7-4.4-2.7s-1.6-0.2-5.5-0.5c-3.8-0.2-4.7,0.5-8,0.2c-3.3-0.2,0.3-5.2,1.6-8.7c1.4-3.5,5.2-1.5,8.2-1.5
	s13.6-11.9,18-10.9s2.5-2.5,3.3-5.2s2.7-1.2,5.2-0.2s3.3,1.2,3.3-1s2.2-2.7,4.1-0.7c1,1,0.8,2.6,0.4,4c-0.8,2.6-1.1,5.3-0.6,8
	c0.4,2.6,1.2,5.3,2.6,6c3,1.5,1.8,9.7,5.4,12c3.6,2.2,2.5-3.7,2.5-8c0-0.4,0-0.9-0.1-1.3c-1.4-5-3-10-4.6-14.9
	c-0.5-0.9-0.7-1.4-0.6-1.6c-2.3-6.6-4.7-13-7.4-19.4c-0.5-0.2-0.6-0.5-0.4-0.8c-0.6-1.4-1.2-2.8-1.8-4.1
	C585.5,182.3,584.7,183,584.4,183.9z M366.9,277.9c-1.6,3-2.5,5-4.9,4.2c-2.5-0.7-10.7-0.5-14.8-1.7c-4.1-1.2-10.2-3.5-11.3-0.7
	c-1.1,2.7,2.7,5-4.1,2.7c-6.9-2.2-14.3-5-15.1-6.9c-0.8-2,2.7-7.4-2.2-7.4c-4.9,0-11.8-0.3-14,1.2s-10.7,4.2-13.5,3.5
	c-2.5-0.7-6.3-1.5-1.9-3.2s9.6-0.7,10.2-3.2c0.5-2.5-3.8-3,0.5-5.2c4.4-2.2,2.7-4.2,5.8-5.5c3-1.2,7.1-1,9.3-1.7
	c2.2-0.7-0.8-1.5,3.6,0.7c4.4,2.2,7.1,6.5,9.3,6.7c2.2,0.2,3.6,1.7,2.2,2.7s-3.6,1.7-4.4,1.7s-1.4,2-0.5,2.2
	c0.8,0.2,2.7,3.5,4.1,2.5s-0.5-2.6,2-3.4c2.5-0.7,5.4-1.6,4.3-3.1s-2.2-3.2,0-2.2s4.8,0.8,2.3-1.4c-2.5-2.2-4-2.6-7-4.5
	c-3-2-6.3-3-6.3-4.5s-1.9-4.2,1.1-3.2s13.5,6.2,13.5,8.2s2.7,5.5,0.3,7.2c-2.5,1.7,2.5,2.2,3.6,3.2s0.6,3.7,3.6,3.2s5.2-0.2,3.6-3
	c-1.6-2.7-4.4-4-1.6-5c2.7-1,3.3-2.2,4.1,2c0.8,4.2-0.3,5.7,6.3,6c6.6,0.2,11-1.5,11.8,0.2C367.5,271.9,368.6,274.9,366.9,277.9z
	 M377.6,259.3c-4.4-0.2-10.9,0-14.5,0s-7.2,0.9-7.2,0.9c-3-0.5-8.8-0.6-5.3-4.8c3.6-4.2,1.4-9.7,5.8-8.2s4.6,6.8,7.3,3.3
	c2.7-3.5,5.8-7,6.7-4.3c0.8,2.7-3.8,5,1.9,7.2C378.2,255.5,382,259.5,377.6,259.3z M404.6,269.8c-4.1,0-9.7-2.1-9.7-4.1
	s-0.4-4.5-0.4-4.5c-1.4-5.6-5.7-6.1-5.7-9.3s3.3-5.7,7.7-5.7c4.4,0,9.9,0.1,6.6,3.5c-3.3,3.5-9.6,3.2-5.3,8.6
	C402.3,263.7,408.8,269.8,404.6,269.8z"/>
<path class="st1" d="M559.4,328.8c1.8,1.1,2.2,3.1,1.8,6.1c-0.3,3.1-3.4,2.8,1.9,4.7c5.2,2,11.4,5.3,9.9-0.8
	c-1.5-6.1-0.3-7-5.9-11.7c-5.6-4.7-5.9-1.7-6.5-5.6s-2.2-11.2-4.3-8.4c-1.9,2.5-3.4,3.3-1.2,7.5
	C557.2,324.9,557.5,327.7,559.4,328.8z"/>
<path class="st1" d="M553.5,348.3c0-2.5,1.5-0.8,0.6-5s-4.3-7.2-6.5-4.7c-1.9,2.2-5.6,7-8,8.6c-2.5,1.7-6.8-0.6-6.5,3.3
	s0.6,5.6,0.9,8.4c0.3,2.8,0.9,4.5,5.6,4.5s6.8,1.4,8.3,0.8s1.2-3.1,3.1-6.4c1.9-3.3,4.9-2.5,3.7-5
	C553.5,350.3,553.5,350.8,553.5,348.3z"/>
<path class="st1" d="M599.2,358.1c-2.8,0.3-5.2,4.2-6.8,2.8c-1.5-1.4-6.2-8.1-8.6-6.1c-2.5,2,0.3,4.2-2.8,4.2s-4,3.3-4.6-1.1
	c-0.6-4.5-3.1-6.7-3.7-3.3c-0.6,3.3-0.9,5.6-2.5,3.1c-1.5-2.5-2.5-0.8-2.5-3.3s-6.2-5.3-8.6-2.5c-1.5,1.7-2.2,1.9-2.8,5.9
	c-0.6,3.9-2.2,10,1.2,8.4c3.4-1.7,4-0.3,5.6-2.2c1.5-2,3.4-3.1,6.2-2s1.5,1.1,6.5,0.6c4.9-0.6,7.4-0.6,10.8,1.4
	c3.4,2,10.2,0.8,10.2,2.8s-7.1,3.3,0,5.3c4.3,1.2,6.6,3.3,8.2,4.3c1.2-5,2.2-10,3.1-15C604.6,359,601,357.9,599.2,358.1z"/>
<path class="st1" d="M601.5,389.1c0.7-2.3,1.3-4.7,1.9-7c-0.3,0.7-0.6,1.6-1.1,2.8C601.8,386,601.6,387.6,601.5,389.1z"/>
<path class="st0" d="M403.2,249.6c3.3-3.5-2.2-3.5-6.6-3.5s-7.7,2.5-7.7,5.7s4.3,3.8,5.7,9.3c0,0,0.4,2.5,0.4,4.5s5.5,4.1,9.7,4.1
	c4.1,0-2.3-6.1-6.7-11.5C393.6,252.8,399.9,253.1,403.2,249.6z"/>
<path class="st0" d="M372.4,253.3c-5.8-2.2-1.1-4.5-1.9-7.2s-3.9,0.8-6.7,4.3c-2.7,3.5-2.9-1.8-7.3-3.3s-2.2,4-5.8,8.2
	c-3.6,4.2,2.3,4.4,5.3,4.8c0,0,3.6-0.9,7.2-0.9s10.1-0.3,14.5,0C382,259.5,378.2,255.5,372.4,253.3z"/>
<path class="st0" d="M354.8,269.9c-6.6-0.2-5.5-1.7-6.3-6c-0.8-4.2-1.4-3-4.1-2s0,2.2,1.6,5c1.7,2.7-0.5,2.5-3.6,3
	c-3,0.5-2.5-2.2-3.6-3.2s-6-1.5-3.6-3.2c2.5-1.7-0.3-5.2-0.3-7.2s-10.4-7.2-13.5-8.2c-3-1-1.1,1.7-1.1,3.2s3.3,2.5,6.3,4.5
	s4.5,2.3,7,4.5s-0.1,2.4-2.3,1.4c-2.2-1-1.1,0.7,0,2.2s-1.9,2.4-4.3,3.1c-2.5,0.7-0.6,2.4-2,3.4s-3.3-2.2-4.1-2.5
	c-0.8-0.3-0.3-2.2,0.5-2.2s3-0.7,4.4-1.7s0-2.5-2.2-2.7s-4.9-4.5-9.3-6.7s-1.4-1.5-3.6-0.7c-2.2,0.7-6.3,0.5-9.3,1.7
	s-1.4,3.2-5.8,5.5c-4.4,2.2,0,2.7-0.5,5.2s-5.8,1.5-10.2,3.2c-4.4,1.7-0.6,2.6,1.9,3.2c2.7,0.7,11.3-2,13.5-3.5s9.1-1.2,14-1.2
	s1.4,5.5,2.2,7.4c0.8,2,8.2,4.7,15.1,6.9c6.9,2.2,3,0,4.1-2.7s7.1-0.5,11.3,0.7c4.1,1.2,12.4,1,14.8,1.7c2.5,0.7,3.3-1.2,4.9-4.2
	c1.7-3,0.6-6-0.3-7.7C365.8,268.4,361.4,270.2,354.8,269.9z"/>
<path class="st1" d="M554.4,304.6c2.2,0.6,2.8-7.5-1.2-6.4C549.2,299.3,551.9,303.9,554.4,304.6z"/>
<path class="st6" d="M252.6,310.6c-0.6,0.2-12.4,12-30.6,16.7l10.5-24.6L252.6,310.6z"/>
<path class="st2" d="M205.9,325l16.1-23.1c0,0,1.3-1.7,3.4-3.3c2.1-1.7,4.7-2.5,7.4-2.4l35.4,1.4l-14.2,13l-17.6-1.5
	c0,0-2.4-0.2-4.1,4.7l-5.5,12.6c-1.9,4.4-0.8,9.6,2.8,12.8c0.7,0.6,1.4,1.1,2.1,1.4l-21,12.8l-5.8-15
	C205.1,338.4,201.8,330.9,205.9,325z"/>
<path class="st4" d="M384.8,380.7H239.4c-2,0-3.6-1.6-3.6-3.6V158.9c0-2,1.6-3.6,3.6-3.6h145.3c2,0,3.6,1.6,3.6,3.6V377
	C388.4,379.1,386.8,380.7,384.8,380.7z"/>
<rect x="241.4" y="172.3" class="st3" width="141.2" height="198.8"/>
<rect x="279.4" y="156.9" class="st7" width="61.7" height="13.2"/>
<path class="st2" d="M343.2,164.7c1.6,0,2.9,1.3,2.9,2.9v7.3c0,1.6-1.3,2.9-2.9,2.9h-65.9c-1.6,0-2.9-1.3-2.9-2.9v-7.3
	c0-1.6,1.3-2.9,2.9-2.9H343.2 M343.2,162.8h-65.9c-2.6,0-4.8,2.1-4.8,4.8v7.3c0,2.6,2.1,4.8,4.8,4.8h65.9c2.6,0,4.8-2.1,4.8-4.8
	v-7.3C348,165,345.9,162.8,343.2,162.8L343.2,162.8z"/>
<rect x="277.8" y="161.6" class="st2" width="64.7" height="3.9"/>
<rect x="277.8" y="163.5" class="st8" width="64.7" height="2"/>
<path class="st2" d="M284.9,318.3V339h-20.7v-20.7H284.9 M288.4,314.8h-3.5h-20.7h-3.5v3.5V339v3.5h3.5h20.7h3.5V339v-20.7V314.8
	L288.4,314.8z"/>
<path class="st9" d="M283.6,241.2l-2.1-2.2c-0.2-0.2-0.5-0.2-0.7,0l-8.4,8.2l-4.3-4.3c-0.2-0.2-0.5-0.2-0.7,0l-2.2,2.1
	c-0.2,0.2-0.2,0.5,0,0.7l6.9,6.8c0.2,0.2,0.5,0.2,0.7,0l1.6-1.5l0,0l0.2-0.2l0.4-0.4l0,0l8.7-8.5
	C283.8,241.7,283.8,241.4,283.6,241.2z"/>
<rect x="301.9" y="238.4" class="st2" width="67.4" height="1.4"/>
<rect x="301.9" y="321.5" class="st2" width="67.4" height="2"/>
<rect x="301.9" y="328.6" class="st2" width="67.4" height="2.1"/>
<rect x="301.9" y="335.9" class="st2" width="67.4" height="1.8"/>
<rect x="301.9" y="245.4" class="st2" width="67.4" height="1.5"/>
<rect x="301.9" y="252.4" class="st2" width="67.4" height="1.7"/>
<rect x="301.9" y="280.2" class="st2" width="67.4" height="1.8"/>
<rect x="301.9" y="287.2" class="st2" width="67.4" height="1.8"/>
<rect x="301.9" y="294.2" class="st2" width="67.4" height="2"/>
<path class="st2" d="M243.7,335.5c1.3-1.3,6.1-7,8.2-13.2l4.7-12.6c0,0,1.8-4.2,6.4-4.4c0.2,0,0.4,0,0.6,0c1.2,0.2,5.4,1.1,7.3,5
	c0.2,0.4,0.3,0.9,0.3,1.4c0,1.1-0.3,3.4-1.9,7.3l-12.4,34.3c0,0-3.5,8.5-7.6,13.6c-0.1,0.1-0.1,0.2-0.2,0.2
	c-0.5,0.8-3.6,5.4-5.6,7.4c-0.3,0.3-0.6,0.7-0.8,1.1l-2.1,5.1c0,0.1-0.1,0.1-0.2,0.1l-27.2-11l1.2-3c0.3-0.7,0.3-1.5,0.1-2.3
	l-3.8-11.3l19.5-11.9c0.4-0.3,1-0.6,1.5-0.9C232.2,340.3,234.9,344.5,243.7,335.5z"/>
<path class="st10" d="M265.6,318.3l-6.8-2.9c-0.6-0.2-0.8-0.9-0.6-1.5l1.7-3.7c0,0,1.5-2.9,5.4-1.7c0,0,3.3,1.1,3.5,4.4
	c0,0,0,1.3-1.2,3.6l-0.5,1.2C266.9,318.3,266.2,318.5,265.6,318.3z"/>
<path class="st6" d="M330.7,269.4c1.1,0.2,25.9,21,60.4,27.3l-26.2-45.5L330.7,269.4z"/>
<path class="st2" d="M394.2,269.5l-18.8-21c0,0-1.5-1.5-3.7-2.9c-2.3-1.4-5-1.9-7.7-1.5l-34.9,5.6l15.6,11.3l17.3-3.6
	c0,0,2.3-0.5,4.6,4.2l6.9,11.8c2.4,4.2,2,9.4-1.2,13c-0.6,0.7-1.2,1.2-2,1.7l22.4,10.2l3.9-15.6C396.6,282.7,399,275,394.2,269.5z"
	/>
<polygon class="st3" points="459.5,418.3 409.4,418.3 363,334.3 384,322.6 401.2,312.8 "/>
<polygon class="st4" points="436.2,418.3 409.4,418.3 363.1,334.5 383.4,322.8 "/>
<polygon class="st3" points="247.2,382.9 225.6,436.3 178.3,436.3 206.6,366.4 226.6,374.8 "/>
<polygon class="st4" points="247.2,382.9 225.6,436.3 200.3,436.3 225.2,374.8 "/>
<path class="st2" d="M284.9,234.9v20.7h-20.7v-20.7H284.9 M288.4,231.4h-3.5h-20.7h-3.5v3.5v20.7v3.5h3.5h20.7h3.5v-3.5v-20.7V231.4
	L288.4,231.4z"/>
<path class="st2" d="M283.6,283.2l-2.1-2.2c-0.2-0.2-0.5-0.2-0.7,0l-8.4,8.2l-4.3-4.3c-0.2-0.2-0.5-0.2-0.7,0l-2.2,2.1
	c-0.2,0.2-0.2,0.5,0,0.7l6.9,6.8c0.2,0.2,0.5,0.2,0.7,0l1.6-1.5l0,0l0.2-0.2l0.4-0.4l0,0l8.7-8.5
	C283.8,283.7,283.8,283.4,283.6,283.2z"/>
<path class="st2" d="M284.9,276.8v20.7h-20.7v-20.7H284.9 M288.4,273.3h-3.5h-20.7h-3.5v3.5v20.7v3.5h3.5h20.7h3.5v-3.5v-20.7V273.3
	L288.4,273.3z"/>
<path class="st2" d="M327.2,248.8c0,0-14.8-1.8-15.1-1.2c-0.3,0.6,10.4,12.2,10.4,12.2l3.5-4.5L327.2,248.8z"/>
<path class="st11" d="M317.8,247.9c0,0-5.6-0.7-5.8-0.4c-0.2,0.4,3.6,4.5,3.6,4.5L317.8,247.9z"/>
<path class="st9" d="M327.1,248.8l64.3,27.8l-4.6,10.7l-64.3-27.5c0,0-0.6-1.8,1-2.1c0,0-1-1.5,1-2.1c0,0-0.9-1.5,1-2.5
	c0,0-0.9-1.5,0.8-2.1C326.2,251,325.4,250,327.1,248.8z"/>
<path class="st2" d="M357.9,284.5c-1.5-1.2-6.9-6.2-9.7-12.1l-6.1-11.9c0,0-2.2-3.9-6.8-3.6c-0.2,0-0.4,0.1-0.6,0.1
	c-1.2,0.3-5.2,1.7-6.6,5.9c-0.2,0.5-0.2,1-0.1,1.4c0.1,1.1,0.7,3.3,2.8,7l16.4,32.6c0,0,4.5,8,9.1,12.6c0.1,0.1,0.1,0.1,0.2,0.2
	c0.6,0.7,4.2,5,6.4,6.6c0.4,0.3,0.7,0.6,0.9,1l2.7,4.8c0,0.1,0.1,0.1,0.2,0.1l25.7-14.2l-1.6-2.8c-0.4-0.7-0.5-1.5-0.3-2.2l2.5-11.6
	l-20.8-9.5c-0.5-0.2-1.1-0.5-1.6-0.7C369.9,288,367.8,292.4,357.9,284.5z"/>
<path class="st2" d="M334.1,270.1l6.4-3.7c0.5-0.3,0.7-1,0.4-1.6l-2.1-3.5c0,0-1.8-2.7-5.6-1.1c0,0-3.1,1.5-2.9,4.8
	c0,0,0.2,1.3,1.6,3.5l0.6,1.1C332.8,270.2,333.5,270.4,334.1,270.1z"/>
<path class="st4" d="M398.5,279.5l-9-3.9l-4.6,10.7l9,3.9c3.2,1.4,6.9,0.1,8.2-2.9l0,0C403.4,284.5,401.8,280.9,398.5,279.5z"/>
<rect x="224.5" y="354" transform="matrix(0.3679 -0.9299 0.9299 0.3679 -206.6201 448.2154)" class="st2" width="3.7" height="44.1"/>
<rect x="359.4" y="320.4" transform="matrix(0.8741 -0.4858 0.4858 0.8741 -108.5162 225.8751)" class="st2" width="44.1" height="3.7"/>
<g id="Layer_2">
</g>
<circle class="st12" cx="295.6" cy="89.2" r="3.6"/>
<g>
	<path class="st3" d="M105.8,352.9H49.6c-0.6,0-1-0.5-1-1V251c0-0.6,0.5-1,1-1h56.3c0.6,0,1,0.5,1,1v100.9
		C106.9,352.4,106.4,352.9,105.8,352.9z"/>
	<path class="st13" d="M106.9,256v90.7c0,3.4-2.8,6.1-6.1,6.1h-6.3L73.6,249.9h27.2C104.1,249.9,106.9,252.7,106.9,256z"/>
	<rect x="50.2" y="261.2" class="st2" width="55" height="80.1"/>
	<path class="st2" d="M85.4,256.6H70.1c-0.5,0-0.9-0.4-0.9-0.9l0,0c0-0.5,0.4-0.9,0.9-0.9h15.3c0.5,0,0.9,0.4,0.9,0.9l0,0
		C86.3,256.2,85.9,256.6,85.4,256.6z"/>
	<path class="st2" d="M84.8,349.3H70.7c0,0-0.1,0-0.1-0.1V345c0,0,0-0.1,0.1-0.1h14.1c0,0,0.1,0,0.1,0.1L84.8,349.3
		C84.9,349.3,84.8,349.3,84.8,349.3z"/>
</g>
<path class="st9" d="M91.1,302c-0.2,0.2-0.5,0.3-0.8,0.4s-0.4,0.6-0.1,0.8c0.4,0.4,0.7,0.9,0.8,1.5c0.2,1-0.2,1.8-1,2.5
	c-0.3,0.3-0.7,0.5-1,0.7c-0.4,0.2-0.5,0.7-0.2,1c0.8,0.6,1,1.5,0.6,2.5c-0.3,0.8-0.8,1.4-1.6,1.8c-0.1,0.1-0.2,0.1-0.3,0.1
	c-0.3,0.1-0.4,0.2-0.4,0.5c0,0.2,0,0.4,0.2,0.5c0.4,0.4,0.7,0.8,0.8,1.3c0.1,0.4,0,0.8-0.2,1.2c-0.3,0.6-0.7,1-1.2,1.5
	c-0.2,0.2-0.8,0.5-1.3,0.7c-0.3,0.1-1,0.3-1.2,0.3c-11.1,2.3-18.9-0.7-19.9-1c-0.2-0.1-0.9-0.5-1.1-0.5l-0.3-0.1V301
	c0.4-0.3,0.8-0.6,1.2-0.9l0.1-0.1l0,0c2.2-2.8,3.6-5.7,5.3-8.9c1.1-2.1,1.4-6.6,1.4-8.3c0-0.7,0.5-1.8,1.8-1.8c0.3,0,1,0,1.5,0.2
	s0.9,0.8,1.3,1.7c0.6,1.1,0.9,2.4,1.3,3.6c0.1,0.5,0.2,0.9,0.3,1.4c0.1,0.3,0.1,0.7,0,1c0,0.4-0.1,0.8-0.1,1.2
	c-0.1,0.8-0.2,1.6-0.3,2.3c-0.1,0.8-0.3,1.7-0.5,2.5l0,0c0,0.1,0,0.1,0,0.2c-0.3,1.1,0.8,1.7,1.5,2c0.2,0.1,0.9,0.2,1.1,0.2
	c3.6,0,9.5,0,10.2,0c0.5,0,1,0,1.4,0c0.8,0,1.7,0.5,1.9,1.6C92.7,300.1,92.1,301.4,91.1,302z"/>
<radialGradient id="SVGID_1_" cx="-436.5203" cy="-187.6667" r="0.4685" gradientTransform="matrix(84.8653 0 0 84.8653 37152.3281 16356.1924)" gradientUnits="userSpaceOnUse">
	<stop  offset="0" style="stop-color:#FFFFFF"/>
	<stop  offset="0.492" style="stop-color:#B8947F"/>
	<stop  offset="0.8424" style="stop-color:#712D14"/>
	<stop  offset="0.9418" style="stop-color:#95381F"/>
	<stop  offset="1" style="stop-color:#B84526"/>
</radialGradient>
<path class="st14" d="M67.1,429.8c0,22,17.8,39.8,39.8,39.8l0,0c22,0,39.8-17.8,39.8-39.8l0,0c0-22-17.8-39.8-39.8-39.8l0,0
	C84.9,390,67.1,407.8,67.1,429.8z"/>
<path class="st15" d="M145.6,429.7c0,21.4-17.3,38.7-38.7,38.7s-38.7-17.3-38.7-38.7c0-21.4,17.3-38.7,38.7-38.7
	S145.6,408.3,145.6,429.7z"/>
<path class="st2" d="M139.3,429.7c0,17.9-14.5,32.4-32.4,32.4s-32.4-14.5-32.4-32.4s14.5-32.4,32.4-32.4
	C124.8,397.3,139.3,411.8,139.3,429.7z"/>
<path class="st15" d="M132.3,429.7c0,14-11.3,25.3-25.3,25.3s-25.3-11.3-25.3-25.3S93,404.4,107,404.4
	C120.9,404.4,132.3,415.7,132.3,429.7z"/>
<path class="st2" d="M124.1,429.7c0,9.5-7.7,17.1-17.1,17.1c-9.5,0-17.1-7.7-17.1-17.1c0-9.5,7.7-17.1,17.1-17.1
	S124.1,420.2,124.1,429.7z"/>
<path class="st15" d="M114.6,429.7c0,4.2-3.4,7.7-7.7,7.7s-7.7-3.4-7.7-7.7c0-4.2,3.4-7.7,7.7-7.7S114.6,425.5,114.6,429.7z"/>
<linearGradient id="SVGID_2_" gradientUnits="userSpaceOnUse" x1="-436.3545" y1="-186.9448" x2="-436.3545" y2="-187.8822" gradientTransform="matrix(82.5694 0 0 82.5706 36136.4297 15909.7988)">
	<stop  offset="0" style="stop-color:#FFFFFF;stop-opacity:0.1529"/>
	<stop  offset="0.13" style="stop-color:#FFFFFF;stop-opacity:9.411765e-02"/>
	<stop  offset="1" style="stop-color:#FFFFFF;stop-opacity:3.137255e-02"/>
</linearGradient>
<path class="st16" d="M106.9,391c21.4,0,38.7,17.3,38.7,38.7s-17.3,38.7-38.7,38.7s-38.7-17.3-38.7-38.7S85.6,391,106.9,391z"/>
<path class="st17" d="M109.3,429.7c0,1.3-1.1,2.4-2.4,2.4s-2.4-1.1-2.4-2.4s1.1-2.4,2.4-2.4C108.2,427.3,109.3,428.4,109.3,429.7z"
	/>
<path class="st18" d="M133.5,459.3l-28.2-28.2l2.4-2.4l28.2,28.2L133.5,459.3z"/>
<path class="st19" d="M108.1,431.1c-0.4,0.4-1.4,0.3-2-0.4c-0.7-0.7-0.9-1.6-0.4-2l34.1-34.1c0.4-0.4,1.3-0.3,2,0.4
	c0.7,0.7,0.9,1.6,0.4,2L108.1,431.1z"/>
<path class="st20" d="M141.8,394.9c-0.1-0.1-0.2-0.2-0.3-0.2c0.4,0.6,0.5,1.3,0.2,1.7l-34.1,34.1c-0.4,0.4-1.1,0.3-1.7-0.2
	c0.1,0.1,0.1,0.2,0.3,0.3c0.7,0.7,1.6,0.9,2,0.4l34.1-34.1C142.7,396.5,142.5,395.6,141.8,394.9z"/>
<path class="st19" d="M145.2,396.7c-1.4,1.4-3.7,1.4-5.1,0c-1.4-1.4-1.4-3.7,0-5.1s3.7-1.4,5.1,0S146.6,395.3,145.2,396.7z"/>
<path class="st20" d="M141.1,395.6c-1.2-1.2-1.4-3.1-0.5-4.5c-0.2,0.1-0.4,0.3-0.6,0.5c-1.4,1.4-1.4,3.7,0,5.1s3.7,1.4,5.1,0
	c0.2-0.2,0.3-0.4,0.5-0.6C144.2,397,142.3,396.8,141.1,395.6z"/>
<path class="st21" d="M140.4,396.4c-1.4-1.4-1.4-3.7,0-5.1c0.1-0.1,0.3-0.3,0.4-0.4c-0.3,0.2-0.6,0.3-0.8,0.6
	c-1.4,1.4-1.4,3.7,0,5.1c1.3,1.3,3.3,1.4,4.7,0.4C143.3,397.8,141.6,397.6,140.4,396.4z"/>
<path class="st22" d="M123.9,410.3l11.7-11.7l-0.2-8.3L123.7,402L123.9,410.3z"/>
<path class="st23" d="M123.9,410.3l10.9-10.9l-0.2-7.7l-10.9,10.9L123.9,410.3z"/>
<path class="st24" d="M132.7,401.6l-0.1-2.9l-0.2-4.7l-0.9,0.9l0.2,4.7l0.1,2.9L132.7,401.6z"/>
<path class="st24" d="M129.8,404.4l-0.1-2.9l-0.2-4.7l-0.9,0.9l0.2,4.7l0.1,2.9L129.8,404.4z"/>
<path class="st24" d="M127.1,407.1l-0.1-2.9l-0.2-4.7l-0.9,0.9l0.2,4.7l0.1,2.9L127.1,407.1z"/>
<path class="st25" d="M135.6,398.6l-0.2-8.3l-0.9,1.5l0.2,7.7L135.6,398.6z"/>
<path class="st22" d="M126.4,412.8l11.7-11.7l8.3,0.2L134.7,413L126.4,412.8z"/>
<path class="st23" d="M126.4,412.8l10.9-10.9l7.7,0.2L134,413L126.4,412.8z"/>
<path class="st24" d="M135.1,404l2.9,0.1l4.7,0.2l-0.9,0.9l-4.7-0.2l-2.9-0.1L135.1,404z"/>
<path class="st24" d="M132.3,406.9l2.9,0.1l4.7,0.2l-0.9,0.9l-4.7-0.2l-2.9-0.1L132.3,406.9z"/>
<path class="st24" d="M129.6,409.6l2.9,0.1l4.7,0.2l-0.9,0.9l-4.7-0.2l-2.9-0.1L129.6,409.6z"/>
<path class="st25" d="M138.1,401.1l8.3,0.2l-1.5,0.9l-7.7-0.2L138.1,401.1z"/>
<path class="st4" d="M136.4,136c-3.6-2.3-8.2-4.4-15.4-4.5l-0.5-5.4c7,0.1,13.7,2,19.5,5.7L136.4,136z"/>
<path class="st4" d="M151.5,155.2c-1.3-5.1-4-10-7.7-13.9l3.4-4.2c4.9,5,8.1,10.8,9.6,17.5L151.5,155.2z"/>
<path class="st26" d="M115.4,163.9c0.3,3.4,3.4,5.9,6.8,5.6c2.4-0.2,4.3-1.8,5.2-3.9l0,0l9.3-21.6L118,158.2l0,0
	C116.3,159.4,115.2,161.6,115.4,163.9z"/>
<path class="st4" d="M121,200.8c-19.2,0-35.7-14.8-37.5-33.8c-1.9-18.8,10.8-36.3,28.9-40.3l0.5,5.5c-15,3.8-25.5,18.6-24,34.2
	c1.6,16.2,15.8,28.9,32.4,28.9c1.1,0,2.1-0.1,3.2-0.2c16-1.6,28.5-15.2,28.9-31.2l5.5-0.5c-0.2,18.8-15.3,35.3-34.1,37.2
	C123.5,200.7,122.2,200.8,121,200.8z"/>
<g id="Layer_1_1_">
	<g>
		<circle class="st27" cx="383.3" cy="83" r="39.8"/>
	</g>
	<g class="st28">
		<path class="st29" d="M400.7,105.4h-2.5c0-0.9,0-2.4,0-5c0-5.6-3.7-9.2-3.7-9.2s-3.7-3.5-4.8-4.6c-1.1-1.1,0-2.2,0-2.2
			s1.7-1.6,5.2-5s3.4-8.3,3.4-8.3v-6.4l-14.9-1.2l-14.9,1.2v6.4c0,0-0.1,4.9,3.4,8.3s5.2,5,5.2,5s1.1,1.1,0,2.2s-4.8,4.6-4.8,4.6
			s-3.7,3.5-3.7,9.2c0,2.5,0,4.1,0,5h-2.5c-1.4,0-2.5,1.1-2.5,2.5s1.1,2.5,2.5,2.5h34.8c1.4,0,2.5-1.1,2.5-2.5
			C403.2,106.5,402.1,105.4,400.7,105.4z"/>
	</g>
	<g>
		<path class="st2" d="M394.5,88.8c0,0-3.7-3.5-4.8-4.6c-1.1-1.1,0-2.2,0-2.2s1.7-1.6,5.2-5s3.4-8.3,3.4-8.3v-6.4l-14.9-1.2
			l-14.9,1.2v6.4c0,0-0.1,4.9,3.4,8.3s5.2,5,5.2,5s1.1,1.1,0,2.2s-4.8,4.6-4.8,4.6s-3.7,3.5-3.7,9.2s0,6.3,0,6.3h14.9h14.9
			c0,0,0-0.7,0-6.3C398.2,92.3,394.5,88.8,394.5,88.8z"/>
	</g>
	<g>
		<path class="st30" d="M382,96.7V83c0-2.6-1.2-4.2-1.7-4.6l-5.2-5c-1.8-1.7-1.8-4.5-1.8-4.5h9.9h9.9l0,0c0,0,0,2.8-1.8,4.5l-5.2,5
			c-0.5,0.5-1.7,2.1-1.7,4.7v13.7L382,96.7L382,96.7z"/>
	</g>
	<g class="st31">
		<path class="st29" d="M403.2,63.2c0,1.4-1.1,2.5-2.5,2.5h-34.8c-1.4,0-2.5-1.1-2.5-2.5l0,0c0-1.4,1.1-2.5,2.5-2.5h34.8
			C402.1,60.7,403.2,61.8,403.2,63.2L403.2,63.2z"/>
	</g>
	<g>
		<path class="st32" d="M403.2,60.7c0,1.4-1.1,2.5-2.5,2.5h-34.8c-1.4,0-2.5-1.1-2.5-2.5l0,0c0-1.4,1.1-2.5,2.5-2.5h34.8
			C402.1,58.2,403.2,59.3,403.2,60.7L403.2,60.7z"/>
	</g>
	<g>
		<path class="st32" d="M403.2,105.4c0,1.4-1.1,2.5-2.5,2.5h-34.8c-1.4,0-2.5-1.1-2.5-2.5l0,0c0-1.4,1.1-2.5,2.5-2.5h34.8
			C402.1,102.9,403.2,104,403.2,105.4L403.2,105.4z"/>
	</g>
	<g>
		<polygon class="st30" points="394.5,102.9 394.5,102.9 372.1,102.9 372.1,102.9 383.3,93 		"/>
	</g>
</g>
<g>
	<path class="st33" d="M585.5,323.1H506v-59.7h79.5V323.1z"/>
	
		<linearGradient id="SVGID_3_" gradientUnits="userSpaceOnUse" x1="-435.1216" y1="-190.1143" x2="-435.1216" y2="-189.4929" gradientTransform="matrix(125.3337 0 0 93.3334 55081.1484 18008.3125)">
		<stop  offset="0" style="stop-color:#B6E0F7"/>
		<stop  offset="1" style="stop-color:#9FC9EB"/>
	</linearGradient>
	<path class="st34" d="M506.8,264.3h77.9v58h-77.9L506.8,264.3L506.8,264.3z"/>
	<path class="st2" d="M507.7,265.1h76.2v56.3h-76.2V265.1z"/>
	<path class="st35" d="M583.9,272.6h-76.2v-7.5h76.2V272.6z"/>
	<path class="st36" d="M507.7,272.6h76.2v-0.8h-76.2V272.6z"/>
	<path class="st36" d="M530.9,321.5h0.8v-56.3h-0.8V321.5z"/>
	<path class="st36" d="M559.9,321.5h0.8v-56.3h-0.8V321.5z"/>
	<path class="st36" d="M507.7,280.9h76.2v-0.8h-76.2V280.9z"/>
	<path class="st36" d="M507.7,289.2h76.2v-0.8h-76.2V289.2z"/>
	<path class="st36" d="M507.7,297.5h76.2v-0.8h-76.2V297.5z"/>
	<path class="st36" d="M507.7,305.7h76.2v-0.8h-76.2V305.7z"/>
	<path class="st36" d="M507.7,314h76.2v-0.8h-76.2V314z"/>
	<path class="st26" d="M585.5,288.3H506v9.9h79.5 M583.1,295.8h-74.6v-5h74.6V295.8z"/>
</g>
<g>
	<polygon class="st4" points="206.4,66.7 241.4,34.9 276.4,66.4 276,109.8 207.3,109.8 	"/>
	<rect x="212.6" y="50.5" class="st2" width="58.1" height="56.5"/>
	<polygon class="st4" points="206.4,116.2 276.4,116.2 251.7,92.9 231.2,92.9 	"/>
	<polygon class="st9" points="206.4,116.2 206.4,68 231.3,92.9 	"/>
	<polygon class="st9" points="276.4,116.2 276.4,68 251.7,92.9 	"/>
</g>
<g id="Layer_8">
	<g>
		<g>
			<path class="st2" d="M484.6,429.8c-1.7,0-3,1.3-3,3.1c0,1.8,1.2,3.1,3,3.1s3-1.3,3-3.1C487.5,431.1,486.3,429.8,484.6,429.8z"/>
			<path class="st2" d="M501.8,416.2c-3.2,0-5.2,1.8-6,3.3h-0.1l-0.2-2.8h-4.2c0.1,1.6,0.1,3.5,0.1,5.7v13.3h4.8v-11.2
				c0-0.6,0.1-1.1,0.2-1.6c0.5-1.5,1.9-2.8,3.7-2.8c2.6,0,3.6,2.1,3.6,4.8v10.7h4.8v-11.3C508.6,418.3,505.1,416.2,501.8,416.2z"/>
			<path class="st2" d="M521.7,416.2c-6.1,0-9.2,4.9-9.2,10.2c0,5.7,3.6,9.5,9.8,9.5c2.8,0,5-0.5,6.6-1.1l-0.7-3.3
				c-1.5,0.6-3.1,0.8-5.3,0.8c-3.1,0-5.7-1.5-5.8-4.8h12.7c0.1-0.4,0.1-1.1,0.1-2C529.8,421.2,527.8,416.2,521.7,416.2z M517,424.1
				c0.2-1.9,1.5-4.6,4.4-4.6c3.2,0,4,2.8,4,4.6H517z"/>
			<path class="st2" d="M543.7,420.1v-3.6h-4.5v-5.4l-4.7,1.1v4.2h-2.8v3.6h2.8v8.9c0,2.5,0.4,4.2,1.5,5.3c0.9,1,2.3,1.6,4.1,1.6
				c1.5,0,2.8-0.2,3.5-0.4l-0.1-3.7c-0.4,0.1-1,0.2-1.9,0.2c-1.9,0-2.5-1.2-2.5-3.5V420L543.7,420.1L543.7,420.1z"/>
		</g>
	</g>
</g>
<g>
	<g id="Warstwa_2">
		<rect id="XMLID_5_" x="245.3" y="442.6" class="st37" width="145" height="145"/>
	</g>
	<rect id="XMLID_1_" x="245.3" y="442.6" class="st4" width="145" height="14.5"/>
	<rect id="XMLID_6_" x="245.3" y="580.3" class="st4" width="145" height="7.3"/>
	<path id="XMLID_2_" class="st38" d="M256.7,452.9L256.7,452.9c-1.7,0-3.1-1.4-3.1-3.1l0,0c0-1.7,1.4-3.1,3.1-3.1l0,0
		c1.7,0,3.1,1.5,3.1,3.1l0,0C259.8,451.5,258.3,452.9,256.7,452.9z"/>
	<path id="XMLID_3_" class="st39" d="M271.2,452.9L271.2,452.9c-1.7,0-3.1-1.4-3.1-3.1l0,0c0-1.7,1.5-3.1,3.1-3.1l0,0
		c1.7,0,3.1,1.5,3.1,3.1l0,0C274.3,451.5,272.8,452.9,271.2,452.9z"/>
	<path id="XMLID_4_" class="st40" d="M285.7,452.9L285.7,452.9c-1.7,0-3.1-1.4-3.1-3.1l0,0c0-1.7,1.5-3.1,3.1-3.1l0,0
		c1.7,0,3.1,1.5,3.1,3.1l0,0C288.8,451.5,287.3,452.9,285.7,452.9z"/>
	<rect id="XMLID_7_" x="257.7" y="457.1" class="st2" width="120.1" height="123.3"/>
	<rect id="XMLID_8_" x="295" y="486.1" class="st4" width="45.6" height="62.1"/>
	<rect id="XMLID_11_" x="261.8" y="486.1" class="st3" width="29" height="4.1"/>
	<rect id="XMLID_9_" x="261.8" y="494.3" class="st3" width="29" height="4.1"/>
	<rect id="XMLID_10_" x="261.8" y="502.6" class="st3" width="29" height="4.1"/>
	<rect id="XMLID_14_" x="261.8" y="510.9" class="st3" width="29" height="4.1"/>
	<rect id="XMLID_19_" x="261.8" y="552.3" class="st3" width="29" height="4.1"/>
	<rect id="XMLID_20_" x="261.8" y="560.6" class="st3" width="29" height="4.1"/>
	<rect id="XMLID_22_" x="261.8" y="568.9" class="st3" width="29" height="4.1"/>
	<rect id="XMLID_21_" x="295" y="552.3" class="st4" width="45.6" height="20.7"/>
	<rect id="XMLID_18_" x="261.8" y="519.2" class="st4" width="29" height="29"/>
	<rect id="XMLID_12_" x="261.8" y="461.2" class="st4" width="111.9" height="20.7"/>
	<rect id="XMLID_13_" x="344.7" y="486.1" class="st3" width="29" height="4.1"/>
	<rect id="XMLID_23_" x="344.7" y="494.3" class="st29" width="12.4" height="4.1"/>
	<g id="XMLID_26_">
		<g>
			<rect id="XMLID_54_" x="344.7" y="494.3" class="st3" width="12.4" height="4.1"/>
			<rect id="XMLID_53_" x="361.3" y="494.3" class="st3" width="12.4" height="4.1"/>
		</g>
	</g>
	<g id="XMLID_27_">
		<g>
			<rect id="XMLID_57_" x="344.7" y="502.6" class="st3" width="12.4" height="4.1"/>
			<rect id="XMLID_56_" x="361.3" y="502.6" class="st3" width="12.4" height="4.1"/>
		</g>
	</g>
	<g id="XMLID_30_">
		<g>
			<rect id="XMLID_58_" x="344.7" y="510.9" class="st3" width="12.4" height="4.1"/>
			<rect id="XMLID_55_" x="361.3" y="510.9" class="st3" width="12.4" height="4.1"/>
		</g>
	</g>
</g>
<g>
	<g>
		<path class="st3" d="M499.9,209.2c-5.4,0-10.6-1.1-15.5-3.1c-4.7-2-9-4.9-12.6-8.5c-3.7-3.7-6.5-7.9-8.5-12.6
			c-2.1-4.9-3.1-10.1-3.1-15.5s1.1-10.6,3.1-15.5c2-4.7,4.9-9,8.5-12.6c3.7-3.7,7.9-6.5,12.6-8.5c4.9-2.1,10.1-3.1,15.5-3.1
			c5.4,0,10.6,1.1,15.5,3.1c4.7,2,9,4.9,12.6,8.5s6.5,7.9,8.5,12.6c2.1,4.9,3.1,10.1,3.1,15.5s-1.1,10.6-3.1,15.5
			c-2,4.7-4.9,9-8.5,12.6c-3.7,3.7-7.9,6.5-12.6,8.5C510.5,208.2,505.3,209.2,499.9,209.2z M499.9,133.1
			c-20.1,0-36.4,16.3-36.4,36.4s16.3,36.4,36.4,36.4s36.4-16.3,36.4-36.4C536.3,149.4,519.9,133.1,499.9,133.1z"/>
		<circle class="st3" cx="499.5" cy="169.8" r="38.8"/>
	</g>
	<g>
		<g>
			<path class="st2" d="M502.8,147c-2.7-0.4-5.4-10.6-5.4-10.6c-2,0.6-17.7,5.2-11.5,9.3c10.2,6.8,9.7,20.5-5.3,32
				c-21.2,16,21,20.7,21.5,19.7c10.4-17.6,5.6-30.5,5.6-30.5s12.2-3.9,22.8-5.6C531.7,161,524.3,150.1,502.8,147L502.8,147
				L502.8,147z M519.4,153.3c0,0-7.5,2.1-11,3.9c0,0,2-6.1,1.9-7.1C510.3,150.1,517.8,152.2,519.4,153.3L519.4,153.3L519.4,153.3z
				 M506.7,157.2c0,0-3.4-2-4.7-2.4l7.4-4.7C509.3,150.1,509.3,152.7,506.7,157.2L506.7,157.2L506.7,157.2z M500.5,169l6.2,3.7
				c-0.9,0.9-6.9,3.7-6.9,3.7C500.7,174.3,500.5,169,500.5,169L500.5,169L500.5,169z M501.5,168.7l5.3-1.8c0.5,1.9,0.4,5,0.4,5
				C505.7,171.2,501.5,168.7,501.5,168.7L501.5,168.7L501.5,168.7z M488.6,181c0,0,4.9-8.2,4.6-9.1c0,0,0.6,2.3,4.1,5.4
				C497.4,177.4,494.8,179.1,488.6,181L488.6,181L488.6,181z M497,178.9c0,0-1,4.4-3.2,8c0,0-3.4-1.3-5.8-4.6
				C487.9,182.3,496.1,179.5,497,178.9L497,178.9L497,178.9z M498.6,155.7c0,0-2.7,2.7-4.4,4.2c0,0-0.1-5.8-0.4-6
				C493.7,153.9,497.1,154.7,498.6,155.7L498.6,155.7z M494.2,152.2l4.7-4.1c0,0,1.2,1.3,0.9,5.9
				C499.8,154.1,495.5,152.5,494.2,152.2L494.2,152.2L494.2,152.2z M499.2,156.9c0,0-0.8,3.9-2.6,6.1c0,0-1.7-1.5-2.5-2
				C494.2,161,498.7,157.3,499.2,156.9L499.2,156.9L499.2,156.9z M496.2,165.6c0,0,1.3,0.8,1.2,3c0,0-8.8,4-10.1,4.9
				C487.2,173.4,495.7,166.5,496.2,165.6L496.2,165.6L496.2,165.6z M494.2,171.5l4.8-2c0,0,0.7,3.3-0.8,6.9
				C498.1,176.5,495.7,175,494.2,171.5L494.2,171.5L494.2,171.5z M498.6,168.1c0,0-0.6-3.6-1.3-4.2c0,0,3.1-1.5,7.6-4.2
				C505,159.9,499.2,167.3,498.6,168.1L498.6,168.1z M498.9,161.8c0,0,1.7-4.6,1.6-5.6l4.4,2.4L498.9,161.8z M507.9,149.8
				c-0.5,0.2-7.3,4.1-7.3,4.1c1.1-3.2-0.7-5.7-0.7-5.7L507.9,149.8L507.9,149.8z M500.5,146.8l-4.9-0.8l3.7-2.3L500.5,146.8z
				 M489.8,140.6c0.4-0.4,7.3-3.4,7.3-3.4s2,4.9,1.3,4.9S489.3,141,489.8,140.6L489.8,140.6L489.8,140.6z M498.6,143l-4.4,2.7h-1.1
				c0,0-4.1-4.2-4.2-4.6C488.9,141.2,497.5,143.2,498.6,143L498.6,143L498.6,143z M488,141.7l3.1,3.6c0,0-4.9-1.1-5.2-1.5
				C485.6,143.4,488,141.7,488,141.7L488,141.7z M487.5,145.8l3.1,1.1l1.1,3.7C491.7,150.5,488.8,146.7,487.5,145.8L487.5,145.8
				L487.5,145.8z M491.4,146.8l6.7,1l-5,3.7C493.1,150.7,491.4,146.8,491.4,146.8L491.4,146.8L491.4,146.8z M493.4,163
				c0,0,1.2,0.4,1.8,1.1c0,0-2,1.8-3.7,2.9C491.4,166.9,493.3,163.6,493.4,163L493.4,163L493.4,163z M489.1,169.8
				c0,0,2.6-2.4,5.6-3.7l-8.4,7.3L489.1,169.8L489.1,169.8z M491,172.7c0,0-2,5.7-4.1,7.7c0,0-0.9-1.1-1.1-5.2
				C485.9,175.3,490.1,173,491,172.7L491,172.7L491,172.7z M484.1,176c0,0-0.1,2.3,1.4,5.8c0,0-7.8,2.5-9.1,2.5
				C476.5,184.3,477.2,179.3,484.1,176L484.1,176z M476.5,184.9c2.3,0,8.7-1.8,8.7-1.8c-0.4,1.3-5.2,7.6-5.2,7.6
				C476.1,188,476.5,184.9,476.5,184.9L476.5,184.9L476.5,184.9z M480.5,191l5.8-7.5c0,0,2.6,2.5,5.3,4l-11,4L480.5,191L480.5,191z
				 M481.5,191.6l11.1-3l-4,6C488.6,194.6,484.1,194,481.5,191.6L481.5,191.6L481.5,191.6z M494.2,188.6c0,0,4.6,2,9.4,2.1
				c0,0-11.2,4.3-14.4,4.4C489.1,195.2,494.2,189,494.2,188.6L494.2,188.6L494.2,188.6z M501.5,197.1c0,0-7.8-0.6-10.1-2
				c0,0,6.8-1.3,12.5-3.7C503.8,191.4,502.2,196.3,501.5,197.1L501.5,197.1L501.5,197.1z M503.8,190.3c0,0-7.9-1.4-9.1-2.9
				c0,0,10.9-4.4,11.3-5.2C506,182.3,505.2,188.7,503.8,190.3L503.8,190.3L503.8,190.3z M495.5,186l3.5-7.4c0,0,5.2,2.7,7.1,3.2
				C506,181.7,497.2,186.1,495.5,186L495.5,186L495.5,186z M506.4,181c-3.2-0.8-6.5-3.4-6.5-3.4c1.5-0.4,7.4-3.9,7.4-3.9
				C507.6,177.5,506.4,181,506.4,181L506.4,181z M500.2,167.6c0,0,6.1-6.8,6.5-7.7c0,0,3.9,1.9,5.2,3.9
				C511.9,163.8,501.8,167,500.2,167.6L500.2,167.6z M508.4,158.2c0,0,10.7-4.1,11.8-4.2c0,0-2.7,5-7,9.3
				C513.1,163.4,510.7,159.5,508.4,158.2L508.4,158.2L508.4,158.2z M515,163c0,0,5.3-6.1,6.3-8.9c0,0,7,4.7,8.1,6.8
				C529.4,160.9,517.6,161.9,515,163L515,163L515,163z"/>
		</g>
	</g>
</g>
<title></title>
</svg>
