<?xml version="1.0" encoding="utf-8"?>
<!-- Generator: Adobe Illustrator 21.1.0, SVG Export Plug-In . SVG Version: 6.00 Build 0)  -->
<svg version="1.1" xmlns="http://www.w3.org/2000/svg" xmlns:xlink="http://www.w3.org/1999/xlink" x="0px" y="0px"
	 viewBox="0 0 612 625" style="enable-background:new 0 0 612 625;" xml:space="preserve">
<style type="text/css">
	.st0{fill:#6B6C6C;}
	.st1{fill:#FFFFFF;}
	.st2{fill:#19B0BF;}
	.st3{fill:#E9F0F5;}
	.st4{fill:#36567C;}
	.st5{fill:#F9F9FA;}
	.st6{fill:#F6F4F4;}
	.st7{fill:#222831;}
	.st8{fill:#2D5269;}
	.st9{fill:#E94024;}
	.st10{fill:#3EACAF;}
	.st11{fill:#4673A4;}
	.st12{fill:#B62427;}
	.st13{fill:#E8F3EB;}
	.st14{fill:#A1212B;}
	.st15{fill:#F3F3F3;}
	.st16{fill:#29B6D6;}
	.st17{fill:#ACACAE;}
	.st18{fill:#CFDF5C;}
	.st19{fill:#E0E1E0;}
	.st20{fill:#DCB99D;}
	.st21{fill:#EED3B7;}
	.st22{fill:#EFD4B7;}
	.st23{fill:#DEBB9D;}
	.st24{fill:#090909;}
	.st25{fill:#D2AE94;}
	.st26{opacity:0.11;fill:#070707;enable-background:new    ;}
	.st27{fill:#C7C6C5;}
	.st28{fill:#606161;}
	.st29{fill:#131313;}
	.st30{fill:#E0E0DF;}
</style>
<g id="Layer_1">
	<g id="Arrow_7">
	</g>
	<path class="st0" d="M612,312.2c0,167.9-138.1,306-306,306S0,480.1,0,312.2s138.1-306,306-306c166.1,0,303.4,135.3,306,301.3"/>
	<g>
		<path class="st1" d="M324,519.2l-0.1-1.6h0.8c1.5-0.1,3-0.2,4.5-0.3l0.8-0.1l0.1,1.6l-0.8,0.1c-1.5,0.1-3,0.2-4.5,0.3H324z"/>
		<path class="st1" d="M335.8,518.2l-0.2-1.6l0.8-0.1c1.5-0.2,3-0.4,4.5-0.6l0.8-0.1l0.2,1.6l-0.8,0.1c-1.5,0.2-3,0.4-4.5,0.6
			L335.8,518.2z"/>
		<path class="st1" d="M347.5,516.6l-0.3-1.6l0.8-0.1c1.5-0.3,3-0.5,4.4-0.8l0.8-0.2l0.3,1.6l-0.8,0.2c-1.5,0.3-3,0.6-4.5,0.8
			L347.5,516.6z"/>
		<path class="st1" d="M359,514.3l-0.4-1.6l0.8-0.2c1.5-0.3,2.9-0.7,4.4-1.1l0.8-0.2l0.4,1.6l-0.8,0.2c-1.5,0.4-2.9,0.7-4.4,1.1
			L359,514.3z"/>
		<path class="st1" d="M370.5,511.4l-0.5-1.6l0.8-0.2c1.4-0.4,2.9-0.9,4.3-1.3l0.8-0.2l0.5,1.6l-0.8,0.2c-1.4,0.5-2.9,0.9-4.3,1.3
			L370.5,511.4z"/>
		<path class="st1" d="M248.5,510.1l-0.8-0.2c-1.4-0.5-2.9-0.9-4.3-1.4l-0.8-0.3l0.5-1.5l0.8,0.3c1.4,0.5,2.9,0.9,4.3,1.4l0.8,0.2
			L248.5,510.1z"/>
		<path class="st1" d="M237.3,506.3l-0.8-0.3c-1.4-0.5-2.8-1.1-4.2-1.6l-0.8-0.3l0.6-1.5l0.8,0.3c1.4,0.6,2.8,1.1,4.2,1.6l0.8,0.3
			L237.3,506.3z"/>
		<path class="st1" d="M226.3,501.9l-0.7-0.3c-1.4-0.6-2.8-1.2-4.1-1.9l-0.7-0.3l0.7-1.5l0.7,0.3c1.4,0.6,2.7,1.3,4.1,1.9l0.7,0.3
			L226.3,501.9z"/>
		<path class="st1" d="M414,493.6l-0.8-1.4l0.7-0.4c1.3-0.7,2.6-1.5,3.9-2.2l0.7-0.4l0.8,1.4l-0.7,0.4c-1.3,0.8-2.6,1.5-3.9,2.2
			L414,493.6z"/>
		<path class="st1" d="M424.2,487.6l-0.9-1.4l0.7-0.4c1.3-0.8,2.5-1.6,3.8-2.4l0.7-0.4l0.9,1.4l-0.7,0.4c-1.3,0.8-2.5,1.6-3.8,2.4
			L424.2,487.6z"/>
		<path class="st1" d="M434.1,481.2l-0.9-1.3l0.7-0.5c1.2-0.9,2.4-1.7,3.7-2.6l0.7-0.5l1,1.3l-0.7,0.5c-1.2,0.9-2.5,1.8-3.7,2.6
			L434.1,481.2z"/>
		<path class="st1" d="M185.4,478.4l-0.7-0.5c-1.2-0.9-2.4-1.8-3.6-2.7l-0.6-0.5l1-1.3l0.6,0.5c1.2,0.9,2.4,1.8,3.6,2.7l0.7,0.5
			L185.4,478.4z"/>
		<path class="st1" d="M443.5,474.2l-1-1.3l0.6-0.5c1.2-0.9,2.4-1.9,3.5-2.8l0.6-0.5l1,1.3l-0.6,0.5c-1.2,1-2.3,1.9-3.5,2.8
			L443.5,474.2z"/>
		<path class="st1" d="M176,471.2l-0.6-0.5c-1.2-1-2.3-1.9-3.5-2.9l-0.6-0.5l1.1-1.2l0.6,0.5c1.1,1,2.3,2,3.4,2.9l0.6,0.5L176,471.2
			z"/>
		<path class="st1" d="M452.6,466.6l-1.1-1.2l0.6-0.5c1.1-1,2.2-2,3.3-3l0.6-0.6l1.1,1.2l-0.6,0.6c-1.1,1-2.2,2-3.4,3L452.6,466.6z"
			/>
		<path class="st1" d="M167.1,463.5l-0.6-0.6c-1.1-1-2.2-2.1-3.3-3.1l-0.6-0.6l1.1-1.2l0.6,0.6c1.1,1,2.2,2.1,3.3,3.1l0.6,0.6
			L167.1,463.5z"/>
		<path class="st1" d="M461.3,458.6l-1.1-1.2l0.6-0.6c1.1-1,2.1-2.1,3.2-3.2l0.6-0.6l1.2,1.1l-0.6,0.6c-1.1,1.1-2.1,2.2-3.2,3.2
			L461.3,458.6z"/>
		<path class="st1" d="M158.6,455.3l-0.6-0.6c-1.1-1.1-2.1-2.2-3.1-3.3l-0.6-0.6l1.2-1.1l0.6,0.6c1,1.1,2.1,2.2,3.1,3.3l0.6,0.6
			L158.6,455.3z"/>
		<path class="st1" d="M469.5,450.2l-1.2-1.1l0.5-0.6c1-1.1,2-2.2,3-3.4l0.5-0.6l1.2,1.1l-0.5,0.6c-1,1.1-2,2.3-3,3.4L469.5,450.2z"
			/>
		<path class="st1" d="M150.6,446.6l-0.5-0.6c-1-1.1-2-2.3-2.9-3.5l-0.5-0.6l1.2-1l0.5,0.6c1,1.1,1.9,2.3,2.9,3.4l0.5,0.6
			L150.6,446.6z"/>
		<path class="st1" d="M477.2,441.2l-1.3-1l0.5-0.6c0.9-1.2,1.9-2.3,2.8-3.5l0.5-0.6l1.3,1l-0.5,0.6c-0.9,1.2-1.9,2.4-2.8,3.6
			L477.2,441.2z"/>
		<path class="st1" d="M484.5,431.9l-1.3-1l0.5-0.7c0.9-1.2,1.8-2.5,2.6-3.7l0.5-0.7l1.3,0.9l-0.5,0.7c-0.9,1.2-1.7,2.5-2.6,3.7
			L484.5,431.9z"/>
		<path class="st1" d="M136,428.1l-0.5-0.7c-0.9-1.2-1.7-2.5-2.5-3.8l-0.4-0.7l1.4-0.9l0.4,0.7c0.8,1.2,1.7,2.5,2.5,3.7l0.5,0.7
			L136,428.1z"/>
		<path class="st1" d="M491.2,422.2l-1.4-0.9l0.4-0.7c0.8-1.3,1.6-2.5,2.4-3.8l0.4-0.7l1.4,0.9l-0.4,0.7c-0.8,1.3-1.6,2.6-2.4,3.8
			L491.2,422.2z"/>
		<path class="st1" d="M129.5,418.3l-0.4-0.7c-0.8-1.3-1.6-2.6-2.3-3.9l-0.4-0.7l1.4-0.8l0.4,0.7c0.8,1.3,1.5,2.6,2.3,3.9l0.4,0.7
			L129.5,418.3z"/>
		<path class="st1" d="M497.4,412.1l-1.4-0.8l0.4-0.7c0.7-1.3,1.5-2.6,2.2-3.9l0.4-0.7l1.4,0.8l-0.4,0.7c-0.7,1.3-1.5,2.7-2.2,4
			L497.4,412.1z"/>
		<path class="st1" d="M123.6,408.1l-0.4-0.7c-0.7-1.3-1.4-2.7-2.1-4l-0.4-0.7l1.4-0.7l0.4,0.7c0.7,1.3,1.4,2.7,2.1,4l0.4,0.7
			L123.6,408.1z"/>
		<path class="st1" d="M503,401.7l-1.5-0.7l0.4-0.7c0.7-1.3,1.3-2.7,2-4.1l0.3-0.7l1.5,0.7l-0.3,0.7c-0.6,1.4-1.3,2.7-2,4.1
			L503,401.7z"/>
		<path class="st1" d="M118.2,397.6l-0.3-0.7c-0.6-1.4-1.3-2.7-1.9-4.1l-0.3-0.7l1.5-0.7l0.3,0.7c0.6,1.4,1.2,2.7,1.9,4.1l0.3,0.7
			L118.2,397.6z"/>
		<path class="st1" d="M508,391l-1.5-0.6l0.3-0.7c0.6-1.4,1.2-2.8,1.7-4.2l0.3-0.8l1.5,0.6l-0.3,0.8c-0.6,1.4-1.2,2.8-1.8,4.2
			L508,391z"/>
		<path class="st1" d="M113.4,386.8l-0.3-0.8c-0.6-1.4-1.1-2.8-1.7-4.2l-0.3-0.8l1.5-0.6l0.3,0.8c0.5,1.4,1.1,2.8,1.7,4.2l0.3,0.8
			L113.4,386.8z"/>
		<path class="st1" d="M512.5,380l-1.5-0.6l0.3-0.8c0.5-1.4,1-2.8,1.5-4.3l0.3-0.8l1.5,0.5l-0.3,0.8c-0.5,1.4-1,2.9-1.5,4.3
			L512.5,380z"/>
		<path class="st1" d="M105.7,364.6l-0.2-0.8c-0.4-1.5-0.8-2.9-1.2-4.4l-0.2-0.8l1.6-0.4l0.2,0.8c0.4,1.4,0.8,2.9,1.2,4.3l0.2,0.8
			L105.7,364.6z"/>
		<path class="st1" d="M102.8,353.1l-0.2-0.8c-0.3-1.5-0.6-3-0.9-4.4l-0.2-0.8l1.6-0.3l0.2,0.8c0.3,1.5,0.6,2.9,0.9,4.4l0.2,0.8
			L102.8,353.1z"/>
		<path class="st1" d="M100.5,341.5l-0.1-0.8c-0.2-1.5-0.5-3-0.7-4.5l-0.1-0.8l1.6-0.2l0.1,0.8c0.2,1.5,0.4,3,0.7,4.5l0.1,0.8
			L100.5,341.5z"/>
		<path class="st1" d="M98.8,329.9l-0.1-0.8c-0.2-1.5-0.3-3-0.4-4.5l-0.1-0.8l1.6-0.1l0.1,0.8c0.1,1.5,0.3,3,0.4,4.5l0.1,0.8
			L98.8,329.9z"/>
		<path class="st1" d="M525.2,322.5l-1.6-0.1l0.1-0.8c0.1-1.5,0.2-3,0.3-4.5v-0.8l1.6,0.1v0.8c-0.1,1.5-0.2,3-0.3,4.5L525.2,322.5z"
			/>
		<path class="st1" d="M97.8,318.1v-0.8c-0.1-1.5-0.1-3-0.2-4.5V312l1.6-0.1v0.8c0.1,1.5,0.1,3,0.2,4.5v0.8L97.8,318.1z"/>
		<path class="st1" d="M525.8,310.7h-1.6v-0.8c0-1.5,0-3,0-4.5v-1h1.6v1c0,1.5,0,3,0,4.5V310.7z"/>
		<path class="st1" d="M99,306.3h-1.6v-0.9c0-1.5,0-3,0-4.4v-0.8H99v0.8c0,1.5,0,2.9,0,4.4V306.3z"/>
		<path class="st1" d="M524.1,298.8V298c-0.1-1.5-0.1-3-0.2-4.5v-0.8l1.6-0.1v0.8c0.1,1.5,0.2,3,0.2,4.5v0.8L524.1,298.8z"/>
		<path class="st1" d="M99.3,294.6l-1.6-0.1v-0.8c0.1-1.5,0.2-3,0.3-4.5l0.1-0.8l1.6,0.1l-0.1,0.8c-0.1,1.5-0.2,3-0.3,4.5V294.6z"/>
		<path class="st1" d="M523.4,287.1l-0.1-0.8c-0.1-1.5-0.3-3-0.4-4.5l-0.1-0.8l1.6-0.2l0.1,0.8c0.2,1.5,0.3,3,0.5,4.5l0.1,0.8
			L523.4,287.1z"/>
		<path class="st1" d="M100.2,282.9l-1.6-0.2l0.1-0.8c0.2-1.5,0.3-3,0.5-4.5l0.1-0.8l1.6,0.2l-0.1,0.8c-0.2,1.5-0.4,3-0.5,4.5
			L100.2,282.9z"/>
		<path class="st1" d="M101.8,271.3l-1.6-0.3l0.1-0.8c0.2-1.5,0.5-3,0.8-4.5l0.1-0.8l1.6,0.3l-0.1,0.8c-0.3,1.5-0.5,3-0.8,4.4
			L101.8,271.3z"/>
		<path class="st1" d="M103.9,259.8l-1.6-0.4l0.2-0.8c0.3-1.5,0.7-3,1-4.4l0.2-0.8l1.6,0.4l-0.2,0.8c-0.4,1.5-0.7,2.9-1,4.4
			L103.9,259.8z"/>
		<path class="st1" d="M106.8,248.4l-1.6-0.4l0.2-0.8c0.4-1.5,0.8-2.9,1.3-4.4l0.2-0.8l1.6,0.5l-0.2,0.8c-0.4,1.4-0.9,2.9-1.3,4.3
			L106.8,248.4z"/>
		<path class="st1" d="M514.3,241.2l-0.2-0.8c-0.5-1.4-0.9-2.9-1.4-4.3l-0.3-0.8l1.5-0.5l0.3,0.8c0.5,1.4,1,2.9,1.4,4.3l0.2,0.8
			L514.3,241.2z"/>
		<path class="st1" d="M110.2,237.2l-1.5-0.5l0.3-0.8c0.5-1.4,1-2.9,1.5-4.3l0.3-0.8l1.5,0.6l-0.3,0.8c-0.5,1.4-1,2.8-1.5,4.3
			L110.2,237.2z"/>
		<path class="st1" d="M510.5,230.1l-0.3-0.8c-0.5-1.4-1.1-2.8-1.7-4.2l-0.3-0.8l1.5-0.6l0.3,0.8c0.6,1.4,1.1,2.8,1.7,4.2l0.3,0.8
			L510.5,230.1z"/>
		<path class="st1" d="M114.3,226.2l-1.5-0.6l0.3-0.8c0.6-1.4,1.2-2.8,1.8-4.2l0.3-0.7l1.5,0.6l-0.3,0.7c-0.6,1.4-1.2,2.8-1.7,4.2
			L114.3,226.2z"/>
		<path class="st1" d="M506.1,219.3l-0.3-0.7c-0.6-1.4-1.2-2.7-1.9-4.1l-0.3-0.7l1.5-0.7l0.3,0.7c0.6,1.4,1.3,2.7,1.9,4.1l0.3,0.7
			L506.1,219.3z"/>
		<path class="st1" d="M119,215.4l-1.5-0.7l0.3-0.7c0.6-1.4,1.3-2.7,2-4.1l0.4-0.7l1.5,0.7l-0.4,0.7c-0.7,1.3-1.3,2.7-2,4.1
			L119,215.4z"/>
		<path class="st1" d="M124.2,204.9l-1.4-0.8l0.4-0.7c0.7-1.3,1.5-2.7,2.2-4l0.4-0.7l1.4,0.8l-0.4,0.7c-0.7,1.3-1.5,2.6-2.2,3.9
			L124.2,204.9z"/>
		<path class="st1" d="M501,207.9l-0.4-0.7c-0.8-1.3-1.5-2.6-2.3-3.9l-0.4-0.7l1.4-0.9l0.4,0.7c0.8,1.3,1.6,2.6,2.3,3.9l0.4,0.7
			L501,207.9z"/>
		<path class="st1" d="M441.2,137.5l-0.6-0.5c-1.1-1-2.3-2-3.4-2.9l-0.6-0.5l1-1.3l0.6,0.5c1.2,1,2.3,1.9,3.5,2.9l0.6,0.5
			L441.2,137.5z"/>
		<path class="st1" d="M185.1,134.6l-1-1.3l0.7-0.5c1.2-0.9,2.5-1.8,3.7-2.6l0.7-0.5l0.9,1.3l-0.7,0.5c-1.2,0.9-2.4,1.7-3.7,2.6
			L185.1,134.6z"/>
		<path class="st1" d="M432.3,130.3l-0.7-0.5c-1.2-0.8-2.5-1.7-3.7-2.5l-0.7-0.4l0.9-1.4l0.7,0.4c1.3,0.8,2.5,1.7,3.8,2.5l0.7,0.5
			L432.3,130.3z"/>
		<path class="st1" d="M194.6,127.9l-0.9-1.4l0.7-0.4c1.3-0.8,2.5-1.6,3.8-2.4l0.7-0.4l0.9,1.4l-0.7,0.4c-1.3,0.8-2.5,1.6-3.8,2.4
			L194.6,127.9z"/>
		<path class="st1" d="M422.4,123.9l-0.7-0.4c-1.3-0.8-2.6-1.6-3.9-2.3l-0.7-0.4l0.8-1.4l0.7,0.4c1.3,0.8,2.6,1.5,3.9,2.3l0.7,0.4
			L422.4,123.9z"/>
		<path class="st1" d="M204.6,121.7l-0.8-1.4l0.7-0.4c1.3-0.8,2.6-1.5,3.9-2.2l0.7-0.4l0.8,1.4l-0.7,0.4c-1.3,0.7-2.6,1.5-3.9,2.2
			L204.6,121.7z"/>
		<path class="st1" d="M412.3,118.1l-0.7-0.4c-1.3-0.7-2.7-1.4-4-2.1l-0.7-0.4l0.7-1.5l0.7,0.4c1.3,0.7,2.7,1.4,4,2.1l0.7,0.4
			L412.3,118.1z"/>
		<path class="st1" d="M391,108.1l-0.8-0.3c-1.4-0.6-2.8-1.1-4.2-1.6l-0.8-0.3l0.6-1.5l0.8,0.3c1.4,0.5,2.8,1.1,4.2,1.6l0.8,0.3
			L391,108.1z"/>
		<path class="st1" d="M380,104l-0.8-0.3c-1.4-0.5-2.9-0.9-4.3-1.4l-0.8-0.2l0.5-1.6l0.8,0.2c1.4,0.5,2.9,0.9,4.3,1.4l0.8,0.3
			L380,104z"/>
		<path class="st1" d="M368.8,100.6l-0.8-0.2c-1.4-0.4-2.9-0.8-4.4-1.1l-0.8-0.2l0.4-1.6l0.8,0.2c1.5,0.4,2.9,0.8,4.4,1.2l0.8,0.2
			L368.8,100.6z"/>
		<path class="st1" d="M357.4,97.7l-0.8-0.2c-1.5-0.3-2.9-0.6-4.4-0.9l-0.8-0.2l0.3-1.6l0.8,0.2c1.5,0.3,3,0.6,4.4,0.9l0.8,0.2
			L357.4,97.7z"/>
		<path class="st1" d="M269.9,96.9l-0.3-1.6l0.8-0.2c1.5-0.3,3-0.6,4.5-0.8l0.8-0.1l0.3,1.6l-0.8,0.1c-1.5,0.3-3,0.5-4.4,0.8
			L269.9,96.9z"/>
		<path class="st1" d="M281.5,94.9l-0.2-1.6l0.8-0.1c1.5-0.2,3-0.4,4.5-0.6l0.8-0.1l0.2,1.6l-0.8,0.1c-1.5,0.2-3,0.4-4.5,0.6
			L281.5,94.9z"/>
		<path class="st1" d="M334.3,94l-0.8-0.1c-1.5-0.2-3-0.3-4.5-0.4l-0.8-0.1l0.1-1.6l0.8,0.1c1.5,0.1,3,0.3,4.5,0.4l0.8,0.1L334.3,94
			z"/>
		<path class="st1" d="M293.1,93.6L293,92l0.8-0.1c1.5-0.1,3-0.2,4.5-0.3h0.8l0.1,1.6h-0.8c-1.5,0.1-3,0.2-4.5,0.3L293.1,93.6z"/>
		<path class="st1" d="M322.6,93.1h-0.8c-1.5-0.1-3-0.1-4.5-0.2h-0.8v-1.6h0.8c1.5,0,3,0.1,4.5,0.2h0.8V93.1z"/>
		<path class="st1" d="M304.8,92.9v-1.6h0.8c1.5,0,3-0.1,4.5-0.1h0.8v1.6h-0.8c-1.5,0-3,0-4.5,0.1H304.8z"/>
		<path class="st2" d="M173.5,186.3H98.7l-11,9.8l0.8-9.8h-5.3c-2.3,0-4.1-1.8-4.1-4.1v-54.1c0-2.3,1.8-4.1,4.1-4.1h90.3
			c2.3,0,4.1,1.8,4.1,4.1v54.1C177.6,184.5,175.8,186.3,173.5,186.3z"/>
		<path class="st3" d="M140.5,204.6h60.7l8.9,7.9l-0.7-7.9h4.3c1.8,0,3.3-1.5,3.3-3.3V158c0-1.8-1.5-3.3-3.3-3.3h-73.3
			c-1.8,0-3.3,1.5-3.3,3.3v43.3C137.2,203.1,138.7,204.6,140.5,204.6z"/>
		<g>
			<g>
				<path class="st1" d="M219.7,89.7l19.6,14.5c0.6,0.4,1.5,0.4,2.1,0L261,89.7H219.7z"/>
				<path class="st1" d="M233.6,101.7L220,114.4c-0.2-0.4-0.4-0.8-0.4-1.2V91.4L233.6,101.7z"/>
				<path class="st1" d="M245.8,102.6l13.7,12.8c-0.4,0.2-0.8,0.3-1.3,0.3h-35.9c-0.4,0-0.8-0.1-1.2-0.2l13.7-12.8l5.4,4
					L245.8,102.6z"/>
				<path class="st1" d="M261,91.4v21.8c0,0.4-0.1,0.8-0.3,1.2l-13.6-12.7L261,91.4z"/>
			</g>
		</g>
		<g>
			<g>
				<path class="st2" d="M188.5,477.7l13.7,10.1c0.4,0.3,1.1,0.3,1.5,0l13.7-10.1H188.5z"/>
				<path class="st2" d="M198.2,486.1l-9.5,8.9c-0.2-0.3-0.2-0.6-0.2-0.9v-15.2L198.2,486.1z"/>
				<path class="st2" d="M206.8,486.7l9.6,8.9c-0.3,0.1-0.6,0.2-0.9,0.2h-25c-0.3,0-0.6,0-0.8-0.2l9.6-8.9l3.8,2.8L206.8,486.7z"/>
				<path class="st2" d="M217.3,478.9v15.2c0,0.3-0.1,0.6-0.2,0.8l-9.5-8.9L217.3,478.9z"/>
			</g>
		</g>
		<path class="st4" d="M536,257.5l-2.5,0.1c-0.4-1.6-1-2.8-1.8-4l0,0l1.7-1.9c0.4-0.4,0.4-1.1,0-1.4l-3.2-3c-0.4-0.4-1.1-0.4-1.4,0
			l-1.9,1.8c-1.3-0.7-2-1.2-4.2-1.5l0,0l0.2-2.5c0-0.6-0.4-1-1-0.9l-4.3,0.1c-0.6,0-0.7,0.4-0.7,1l0.1,2.5c-1.6,0.4-2.8,1-4,1.8
			h-0.1l-1.9-1.7c-0.4-0.4-1.1-0.4-1.5,0l-3,3.2c-0.4,0.4-0.4,1.1,0,1.4l1.8,1.9c-0.7,1.3-1.2,2-1.5,4.2l0,0l-2.5-0.1
			c-0.6,0-0.9,0.3-0.9,0.8l0.1,4.4c0,0.6,0.3,0.9,0.9,0.9l2.5-0.1c0.4,1.6,1,2.7,1.8,3.9l0,0l-1.7,1.8c-0.4,0.4-0.4,1.1,0,1.4l3.2,3
			c0.4,0.4,1.1,0.4,1.4,0l1.9-1.8c1.3,0.7,2.5,1.2,4.1,1.5l0,0l0.1,2.5c0,0.6,0.3,1.1,0.8,1l4.4-0.1c0.6,0,1-0.5,1-1.1l-0.2-2.5
			c1.6-0.4,2.6-1,3.7-1.7l0,0l2,1.7c0.4,0.4,1.1,0.4,1.5,0l3.1-3.2c0.4-0.4,0.4-1.1,0-1.4l-1.8-1.9c0.7-1.3,1.2-2,1.5-4.1l0,0h2.5
			c0.6,0,1.1-0.4,1.1-1l-0.1-4.4C537.2,257.7,536.6,257.5,536,257.5z M517.9,266.8c-0.1,0-0.1-0.1-0.2-0.1c-0.2-0.1-0.4-0.2-0.5-0.3
			c-0.1-0.1-0.2-0.1-0.3-0.2s-0.2-0.1-0.3-0.2l-0.1-0.1c-0.2-0.2-0.5-0.4-0.7-0.6s-0.4-0.4-0.6-0.7c-0.1-0.1-0.1-0.2-0.2-0.3
			c-0.2-0.3-0.4-0.6-0.5-0.9c-0.3-0.8-0.5-1.6-0.6-2.5c0-1.9,0.7-3.5,2-4.7c0.1-0.1,0.2-0.2,0.3-0.3l0.1-0.1
			c0.1-0.1,0.2-0.1,0.2-0.2c0.2-0.2,0.5-0.3,0.8-0.5c0.1,0,0.2-0.1,0.3-0.1c0.7-0.3,1.6-0.5,2.4-0.6c1,0,2,0.2,2.9,0.6
			c0.1,0,0.2,0.1,0.3,0.1c0.1,0.1,0.3,0.2,0.4,0.2c0.1,0.1,0.2,0.1,0.3,0.2l0.1,0.1c0.1,0.1,0.2,0.1,0.2,0.2
			c0.1,0.1,0.2,0.2,0.3,0.3c0.1,0.1,0.1,0.1,0.2,0.2c0.2,0.2,0.3,0.4,0.5,0.6c0.1,0.1,0.1,0.2,0.2,0.2c0.1,0.1,0.1,0.2,0.2,0.3
			c0.1,0.1,0.2,0.3,0.2,0.4c0.4,0.8,0.7,1.7,0.7,2.7c0,0.5,0,1.1-0.2,1.6c0,0.1,0,0.2-0.1,0.3c0,0.1-0.1,0.3-0.1,0.4
			s-0.1,0.2-0.1,0.3c0,0.1-0.1,0.1-0.1,0.2c-0.1,0.1-0.1,0.2-0.2,0.4c0,0.1-0.1,0.2-0.2,0.3c0,0.1-0.1,0.1-0.1,0.2s-0.1,0.1-0.1,0.2
			l-0.1,0.1c-0.1,0.1-0.1,0.2-0.2,0.2l-0.1,0.1c-0.1,0.1-0.1,0.2-0.2,0.2l-0.1,0.1c-0.1,0.1-0.3,0.3-0.4,0.4l-0.1,0.1
			c-0.1,0.1-0.2,0.1-0.2,0.2c-0.1,0.1-0.2,0.1-0.3,0.2l-0.1,0.1c-0.1,0.1-0.2,0.1-0.3,0.2c-0.9,0.5-1.8,0.7-2.9,0.8
			C519.5,267.1,518.7,267,517.9,266.8C518,266.9,517.9,266.9,517.9,266.8z"/>
		<path class="st2" d="M516.4,282.8l-1.2,0.4c-0.4-0.7-0.9-1.3-1.4-1.7l0,0l0.6-1.2c0.1-0.3,0-0.6-0.2-0.7l-2-1.1
			c-0.3-0.1-0.6,0-0.7,0.2l-0.7,1.2c-0.7-0.2-1.2-0.3-2.3-0.2l0,0l-0.3-1.3c-0.1-0.3-0.3-0.4-0.6-0.3l-2.1,0.6
			c-0.3,0.1-0.3,0.3-0.2,0.6l0.4,1.2c-0.7,0.4-1.3,0.9-1.8,1.4l0,0l-1.2-0.6c-0.3-0.1-0.6,0-0.7,0.2l-1.1,2c-0.1,0.3,0,0.6,0.2,0.7
			l1.2,0.7c-0.2,0.7-0.3,1.2-0.2,2.3l0,0l-1.3,0.3c-0.3,0.1-0.4,0.3-0.3,0.5l0.6,2.2c0.1,0.3,0.3,0.4,0.6,0.3l1.2-0.4
			c0.4,0.7,0.8,1.2,1.4,1.7l0,0l-0.6,1.1c-0.1,0.3,0,0.6,0.2,0.7l2,1.1c0.3,0.1,0.6,0,0.7-0.2l0.7-1.2c0.7,0.2,1.4,0.3,2.2,0.2l0,0
			l0.4,1.3c0.1,0.3,0.3,0.5,0.5,0.4l2.2-0.6c0.3-0.1,0.4-0.4,0.4-0.7l-0.4-1.2c0.7-0.4,1.2-0.8,1.6-1.4l0,0l1.2,0.6
			c0.3,0.1,0.6,0,0.7-0.2l1.1-2c0.1-0.3,0.1-0.6-0.2-0.7l-1.2-0.7c0.2-0.7,0.4-1.1,0.2-2.3l0,0l1.3-0.3c0.3-0.1,0.5-0.4,0.4-0.6
			l-0.6-2.2C517,282.7,516.7,282.7,516.4,282.8z M508.6,289.8h-0.1c-0.1,0-0.2,0-0.3-0.1c-0.1,0-0.1,0-0.2,0c0,0-0.1,0-0.1-0.1
			c0,0,0,0-0.1,0c-0.1-0.1-0.3-0.1-0.4-0.2s-0.3-0.2-0.4-0.3l-0.1-0.1c-0.1-0.1-0.3-0.2-0.4-0.4c-0.3-0.3-0.5-0.7-0.6-1.2
			c-0.3-0.9-0.1-1.9,0.3-2.6c0-0.1,0.1-0.1,0.1-0.2c0,0,0,0,0-0.1l0.1-0.1c0.1-0.1,0.2-0.2,0.3-0.3l0.1-0.1c0.3-0.3,0.7-0.5,1.1-0.6
			c0.5-0.2,1-0.2,1.5-0.1c0.1,0,0.1,0,0.2,0s0.2,0,0.2,0.1c0,0,0.1,0,0.1,0.1c0,0,0,0,0.1,0c0,0,0.1,0,0.1,0.1
			c0.1,0,0.1,0.1,0.2,0.1l0.1,0.1c0.1,0.1,0.2,0.1,0.3,0.2l0.1,0.1l0.1,0.1c0.1,0.1,0.1,0.1,0.2,0.2c0.3,0.4,0.6,0.8,0.7,1.3
			c0.1,0.3,0.1,0.5,0.1,0.8c0,0.1,0,0.1,0,0.2s0,0.2,0,0.2c0,0.1,0,0.1,0,0.2v0.1c0,0.1,0,0.1,0,0.2s0,0.1,0,0.2v0.1v0.1
			c0,0,0,0,0,0.1c0,0,0,0.1-0.1,0.1c0,0,0,0,0,0.1c0,0,0,0.1-0.1,0.1c0,0,0,0,0,0.1c-0.1,0.1-0.1,0.2-0.2,0.3c0,0,0,0,0,0.1
			l-0.1,0.1l-0.1,0.1c0,0,0,0-0.1,0.1l-0.1,0.1c-0.4,0.3-0.8,0.6-1.3,0.8c-0.4,0.1-0.8,0.2-1.2,0.1
			C508.6,289.8,508.6,289.8,508.6,289.8z"/>
		<path class="st5" d="M406.5,496.4l-1.7,0.5c-0.6-1-1.2-1.7-1.9-2.4l0,0l0.9-1.6c0.2-0.4,0.1-0.8-0.3-1l-2.8-1.5
			c-0.4-0.2-0.8-0.1-1,0.3l-1,1.6c-1-0.3-1.6-0.5-3.2-0.3l0,0l-0.4-1.8c-0.1-0.4-0.5-0.6-0.9-0.5l-3,0.9c-0.4,0.1-0.4,0.4-0.3,0.8
			l0.5,1.7c-1,0.6-1.8,1.2-2.4,1.9l0,0l-1.6-0.9c-0.4-0.2-0.8-0.1-1,0.3l-1.5,2.8c-0.2,0.4-0.1,0.8,0.3,1l1.6,1
			c-0.3,1-0.5,1.6-0.3,3.2l0,0l-1.8,0.4c-0.4,0.1-0.5,0.4-0.4,0.7l0.9,3c0.1,0.4,0.4,0.6,0.8,0.5l1.7-0.5c0.6,1,1.2,1.7,1.9,2.4l0,0
			l-0.9,1.6c-0.2,0.4-0.1,0.8,0.3,1l2.8,1.5c0.4,0.2,0.8,0.1,1-0.3l0.9-1.6c1,0.3,1.9,0.4,3.1,0.3l0,0l0.5,1.7
			c0.1,0.4,0.4,0.7,0.8,0.6l3-0.9c0.4-0.1,0.6-0.6,0.5-0.9l-0.6-1.7c1-0.6,1.6-1.2,2.2-1.9l0,0l1.7,0.8c0.4,0.2,0.8,0,1-0.3l1.5-2.8
			c0.2-0.4,0.1-0.8-0.3-1l-1.6-1c0.3-1,0.5-1.6,0.3-3.1l0,0l1.8-0.4c0.4-0.1,0.7-0.5,0.6-0.9l-0.9-3
			C407.4,496.3,406.9,496.3,406.5,496.4z M395.7,506.2h-0.1c-0.1,0-0.3-0.1-0.4-0.1s-0.1,0-0.2-0.1c-0.1,0-0.1,0-0.2-0.1h-0.1
			c-0.2-0.1-0.4-0.2-0.6-0.3s-0.4-0.2-0.5-0.3s-0.1-0.1-0.2-0.2c-0.2-0.2-0.4-0.3-0.5-0.5c-0.4-0.5-0.7-1-0.9-1.6
			c-0.4-1.3-0.2-2.6,0.5-3.6c0.1-0.1,0.1-0.2,0.2-0.3c0,0,0-0.1,0.1-0.1c0-0.1,0.1-0.1,0.1-0.2c0.1-0.2,0.3-0.3,0.5-0.5
			c0.1,0,0.1-0.1,0.2-0.1c0.5-0.4,1-0.7,1.6-0.8c0.7-0.2,1.4-0.2,2.1-0.1c0.1,0,0.1,0,0.2,0s0.2,0.1,0.3,0.1c0.1,0,0.1,0,0.2,0.1
			h0.1c0.1,0,0.1,0.1,0.2,0.1s0.2,0.1,0.3,0.1c0.1,0,0.1,0.1,0.2,0.1c0.2,0.1,0.3,0.2,0.4,0.3c0.1,0,0.1,0.1,0.2,0.1
			s0.1,0.1,0.2,0.1c0.1,0.1,0.2,0.2,0.2,0.2c0.4,0.5,0.8,1.1,1,1.8c0.1,0.4,0.2,0.8,0.2,1.1c0,0.1,0,0.1,0,0.2c0,0.1,0,0.2,0,0.3
			s0,0.1,0,0.2v0.1c0,0.1,0,0.2-0.1,0.3c0,0.1,0,0.1-0.1,0.2c0,0.1,0,0.1-0.1,0.2c0,0,0,0.1-0.1,0.1v0.1c0,0.1-0.1,0.1-0.1,0.2v0.1
			c0,0.1-0.1,0.1-0.1,0.2c0,0,0,0.1-0.1,0.1c-0.1,0.1-0.2,0.2-0.2,0.4c0,0,0,0.1-0.1,0.1c0,0.1-0.1,0.1-0.1,0.2
			c0,0.1-0.1,0.1-0.1,0.2c0,0,0,0.1-0.1,0.1c-0.1,0.1-0.1,0.1-0.2,0.2c-0.5,0.5-1.1,0.8-1.8,1.1c-0.6,0.2-1.2,0.2-1.7,0.2
			C395.8,506.2,395.7,506.2,395.7,506.2z"/>
		<g>
			<g>
				<path class="st1" d="M117.2,454.9L117.2,454.9c0.1,0.1,0.1,0.1,0.2,0.2l0.2,0.2l0,0l0.2,0.4l0,0l0.2,0.7l0.2,0.7l0,0l0.1,0.4
					v0.1v0.2c0,0,0,0.1-0.1,0.1l0,0l-0.1,0.1l-0.3,0.1l0,0l-0.4,0.1c-0.1,0-0.1,0.1-0.2,0.1l-0.1,0.2v0.1l-0.1,0.5v0.1l0.1,0.8l0,0
					l0.2,1.1l0,0l0.4,1.1l0,0l0.4,0.7c0,0,0,0,0.1,0.1l0.3,0.3c0,0,0.1,0.1,0.2,0.1h0.2h0.1l0.4-0.2l0,0l0,0c0.1,0,0.2,0,0.2,0.1
					l0.1,0.1l0,0l0.2,0.3c0,0,0,0,0,0.1l0.3,0.6l0,0l0.2,0.6l0,0l0.1,0.5l0,0v0.2c0,0.1,0,0.1,0,0.2v0.1c0,0.1-0.1,0.1-0.2,0.1
					l-0.6,0.1c0,0,0,0-0.1,0h-0.8c0,0-0.2,0-0.4,0l-0.2-0.1c-0.1,0-0.1,0-0.2-0.1c0,0-0.1-0.1-0.2-0.2l0,0l-0.4-0.4l-0.1-0.1
					l-0.6-0.9l0,0l-0.6-1.4l0,0l-0.5-1.5l0,0l-0.3-1.4l0,0l-0.2-1.2l0,0v-1.1l0,0l0.2-0.9l0,0l0.2-0.7c0,0,0,0,0-0.1l0.3-0.5
					c0,0,0,0,0-0.1l0.3-0.3c0,0,0,0,0.1-0.1l0.5-0.3c0,0,0,0,0.1,0L117.2,454.9L117.2,454.9z"/>
				<path class="st1" d="M118.1,454.6l0.2,0.1l0,0l0.2,0.2l0,0l0.1,0.3l0.2,0.5l0.2,0.4l0,0l0.1,0.5l0.1,0.5l0.1,0.4l0,0l-0.1,0.3
					c0,0,0,0.1-0.1,0.1l-0.2,0.1c0,0,0,0-0.1,0h-0.2c-0.1,0-0.1,0-0.1-0.1l0,0c0,0,0,0,0-0.1v-0.2l0,0v-0.3l-0.1-0.4l0,0l-0.1-0.4
					l-0.1-0.4l0,0l-0.1-0.3l0,0l-0.1-0.3l0,0l-0.1-0.3l0,0l-0.1-0.2l0,0l-0.1-0.2l0,0v-0.1v-0.1l0,0l0,0l0.2-0.1l0,0L118.1,454.6
					L118.1,454.6z"/>
				<path class="st1" d="M121.5,465.9l0.1-0.2l0,0v-0.2l0,0l-0.1-0.3l0,0l-0.1-0.3l-0.1-0.4l0,0l-0.2-0.4l0,0l-0.3-0.4l0,0l-0.3-0.3
					l0,0l-0.2-0.1h-0.1l-0.2,0.1l0,0l-0.1,0.1c0,0-0.1,0.1,0,0.1l0,0l0,0l0.1,0.2l0.2,0.2l0,0l0.2,0.3l0,0l0.1,0.3l0.1,0.3l0.1,0.3
					l0,0l0.1,0.3l0,0v0.3v0.3l0,0v0.2l0,0l0,0c0,0.1,0.1,0.1,0.1,0.1h0.1c0,0,0,0,0.1,0l0.2-0.1l0,0L121.5,465.9L121.5,465.9
					L121.5,465.9z"/>
			</g>
			<g>
				<path class="st1" d="M140.1,457.8c-0.1-0.8-0.2-1.5-0.4-2.3c-0.2-0.7-0.5-1.4-0.9-2.1c-0.4-0.7-0.8-1.3-1.2-1.9
					c-0.5-0.6-1-1.2-1.6-1.7c-1.2-1-2.6-1.8-4.1-2.3s-3.1-0.6-4.7-0.5c-0.8,0.1-1.5,0.2-2.3,0.4c-0.7,0.2-1.4,0.5-2.1,0.9
					s-1.3,0.8-1.9,1.2c-0.6,0.5-1.2,1-1.7,1.6s-0.9,1.2-1.3,1.9l0.2,0.3c0,0,0,0,0,0.1l0.1,0.3c2.5-4.8,8.1-7.2,13.4-5.6
					c5.9,1.9,9.2,8.2,7.4,14.1c-1.9,5.9-8.2,9.2-14.1,7.4c-1.2-0.4-2.4-1-3.4-1.7l-0.6,0.1h-0.1h-0.2c1.2,1,2.5,1.7,4,2.2
					s3.1,0.6,4.7,0.5c0.8-0.1,1.5-0.2,2.3-0.4c0.7-0.2,1.4-0.5,2.1-0.9s1.3-0.8,1.9-1.2c0.6-0.5,1.2-1,1.7-1.6
					c1-1.2,1.8-2.6,2.3-4.1C140.1,460.9,140.3,459.4,140.1,457.8z"/>
			</g>
			<g>
				<path class="st1" d="M121.7,463v-1.3l1.2-1.1c2-1.8,3-2.9,3.1-4c0-0.8-0.5-1.4-1.5-1.4c-0.8,0-1.5,0.4-2,0.8l-0.6-1.6
					c0.7-0.5,1.8-1,3.1-1c2.1,0,3.3,1.2,3.3,2.9c0,1.6-1.1,2.8-2.5,4l-0.9,0.7l0,0h3.5v1.8h-6.7V463z"/>
				<path class="st1" d="M133.5,463v-2.2h-4.1v-1.4l3.5-5.7h2.7v5.5h1.1v1.6h-1.1v2.2L133.5,463L133.5,463z M133.5,459.1V457
					c0-0.6,0-1.1,0.1-1.7h-0.1c-0.3,0.6-0.5,1.1-0.9,1.7l-1.2,2l0,0L133.5,459.1L133.5,459.1z"/>
			</g>
			<path class="st1" d="M128.3,448.3c1.1-0.2,2.3-0.4,3.4-0.7c-1.1-0.3-2.2-0.5-3.4-0.8l-3.2-1.3H125l1,1.7l0.2,0.3l-0.2,0.3
				l-1.1,1.7h0.1L128.3,448.3z"/>
			<path class="st1" d="M132.9,468.5c-0.9,0.6-1.7,1.3-2.6,1.9c1-0.2,2.1-0.4,3.1-0.7l3.2-0.1v-0.1l-1.5-1.1l-0.2-0.2v-0.3l0.2-1.8
				H135L132.9,468.5z"/>
		</g>
		<g>
			<path class="st1" d="M496.8,224.1l-2.4,8.3c-0.1,0.5-0.2,0.8-0.2,0.9s0,0.2,0.1,0.2c0.1,0.1,0.1,0.1,0.2,0.1s0.3-0.1,0.4-0.2
				c0.4-0.3,0.8-0.8,1.3-1.6l0.4,0.2c-1.2,2-2.4,3.1-3.7,3.1c-0.5,0-0.9-0.1-1.2-0.4c-0.3-0.3-0.4-0.6-0.4-1.1
				c0-0.3,0.1-0.7,0.2-1.1l1.6-5.6c0.2-0.5,0.2-0.9,0.2-1.2c0-0.2-0.1-0.3-0.2-0.5c-0.1-0.1-0.3-0.2-0.6-0.2c-0.1,0-0.3,0-0.4,0
				l0.1-0.5l3.9-0.6h0.7V224.1z M496.1,218.8c0.5,0,0.9,0.2,1.2,0.5c0.3,0.3,0.5,0.7,0.5,1.2s-0.2,0.9-0.5,1.2
				c-0.3,0.3-0.7,0.5-1.2,0.5s-0.9-0.2-1.2-0.5s-0.5-0.7-0.5-1.2s0.2-0.9,0.5-1.2C495.3,218.9,495.7,218.8,496.1,218.8z"/>
		</g>
		<g>
			<g>
				<path class="st1" d="M94.1,212.8l-1.8,6.3c-0.1,0.4-0.1,0.6-0.1,0.7s0,0.1,0.1,0.2s0.1,0.1,0.2,0.1s0.2,0,0.3-0.1
					c0.3-0.2,0.6-0.6,1-1.2l0.3,0.2c-0.9,1.5-1.8,2.3-2.8,2.3c-0.4,0-0.7-0.1-0.9-0.3c-0.2-0.2-0.3-0.5-0.3-0.8
					c0-0.2,0.1-0.5,0.2-0.8l1.2-4.2c0.1-0.4,0.2-0.7,0.2-0.9c0-0.1-0.1-0.2-0.2-0.4c-0.1-0.1-0.3-0.2-0.5-0.2c-0.1,0-0.2,0-0.3,0
					l0.1-0.4l3-0.5L94.1,212.8L94.1,212.8z M93.6,208.8c0.4,0,0.7,0.1,0.9,0.4c0.3,0.3,0.4,0.6,0.4,0.9c0,0.4-0.1,0.7-0.4,0.9
					c-0.3,0.3-0.6,0.4-0.9,0.4c-0.4,0-0.7-0.1-0.9-0.4c-0.3-0.3-0.4-0.6-0.4-0.9c0-0.4,0.1-0.7,0.4-0.9
					C92.9,208.9,93.2,208.8,93.6,208.8z"/>
			</g>
			<g>
				<path class="st1" d="M92.3,204.2c-6.2,0-11.2,5-11.2,11.2s5,11.2,11.2,11.2s11.2-5,11.2-11.2S98.5,204.2,92.3,204.2z
					 M92.3,225.5c-5.6,0-10.1-4.5-10.1-10.1s4.5-10.1,10.1-10.1s10.1,4.5,10.1,10.1S97.8,225.5,92.3,225.5z"/>
			</g>
		</g>
		<g>
			<g>
				<path class="st1" d="M466.9,478.7h-0.5c0.1-1.1,0.2-2,0.4-2.7c0.1-0.4,0.3-0.8,0.5-1.3s0.5-1.1,0.8-1.7c0.3-0.5,0.5-0.9,0.6-1.3
					c0.2-0.4,0.3-0.7,0.4-1c0.2-0.5,0.2-1.1,0.2-1.6s-0.1-1-0.2-1.5c-0.2-0.4-0.4-0.8-0.7-1.1c-0.3-0.3-0.6-0.6-1-0.7
					c-0.4-0.2-0.8-0.3-1.2-0.3c-0.4,0-0.7,0.1-1,0.1c-0.3,0.1-0.6,0.2-0.8,0.4c-0.2,0.2-0.4,0.3-0.5,0.5s-0.2,0.4-0.2,0.6
					c0,0.1,0,0.3,0.1,0.5s0.2,0.4,0.3,0.6c0.1,0.2,0.2,0.4,0.3,0.6s0.1,0.3,0.1,0.4c0,0.3-0.1,0.6-0.3,0.8c-0.2,0.2-0.4,0.3-0.7,0.3
					c-0.2,0-0.4,0-0.5-0.1s-0.3-0.2-0.5-0.4c-0.1-0.2-0.2-0.4-0.3-0.6c-0.1-0.3-0.1-0.5-0.1-0.9c0-0.5,0.1-0.9,0.3-1.4
					c0.2-0.5,0.5-0.9,0.9-1.2s0.9-0.6,1.5-0.8s1.2-0.3,2-0.3s1.4,0.1,2.1,0.3c0.6,0.2,1.1,0.5,1.5,0.9s0.7,0.8,1,1.3
					c0.2,0.5,0.3,1,0.3,1.6s-0.1,1.3-0.4,2c-0.1,0.3-0.4,0.7-0.6,1.1c-0.3,0.4-0.6,0.8-1,1.3c-1.3,1.4-2,2.4-2.3,3
					C467.1,476.8,467,477.6,466.9,478.7z M466.7,480.3c0.4,0,0.8,0.1,1,0.4c0.3,0.3,0.4,0.6,0.4,1c0,0.2,0,0.4-0.1,0.6
					c-0.1,0.2-0.2,0.3-0.3,0.5c-0.1,0.1-0.3,0.2-0.5,0.3s-0.4,0.1-0.6,0.1s-0.4,0-0.6-0.1s-0.3-0.2-0.5-0.3
					c-0.1-0.1-0.2-0.3-0.3-0.5c-0.1-0.2-0.1-0.4-0.1-0.6c0-0.2,0-0.4,0.1-0.6c0.1-0.2,0.2-0.3,0.3-0.5c0.1-0.1,0.3-0.2,0.5-0.3
					C466.3,480.3,466.5,480.3,466.7,480.3z"/>
			</g>
		</g>
		<path class="st1" d="M277.8,80c-4.4,2.6-4.8,4.2-2.3,8.6c-2.6-4.4-4.1-4.8-8.6-2.3c4.4-2.6,4.8-4.2,2.3-8.6
			C271.8,82.1,273.3,82.5,277.8,80z"/>
		<path class="st1" d="M91.4,290.6c-4.4,2.6-4.8,4.2-2.3,8.6c-2.6-4.4-4.1-4.8-8.6-2.3c4.4-2.6,4.8-4.2,2.3-8.6
			C85.4,292.8,87,293.2,91.4,290.6z"/>
		<path class="st1" d="M346.4,486.5c-3.7,2.1-4,3.4-1.9,7.1c-2.1-3.7-3.4-4-7.1-1.9c3.7-2.1,4-3.4,1.9-7.1
			C341.4,488.3,342.7,488.7,346.4,486.5z"/>
		<g>
			<circle class="st6" cx="372.3" cy="97.8" r="26.9"/>
			<path class="st2" d="M372.3,125.9c-3.8,0-7.5-0.7-10.9-2.2c-3.3-1.4-6.3-3.4-8.9-6s-4.6-5.6-6-8.9c-1.5-3.5-2.2-7.1-2.2-10.9
				c0-3.8,0.7-7.5,2.2-10.9c1.4-3.3,3.4-6.3,6-8.9c2.6-2.6,5.6-4.6,8.9-6c3.5-1.5,7.1-2.2,10.9-2.2s7.5,0.7,10.9,2.2
				c3.3,1.4,6.3,3.4,8.9,6s4.6,5.6,6,8.9c1.5,3.5,2.2,7.1,2.2,10.9c0,3.8-0.7,7.5-2.2,10.9c-1.4,3.3-3.4,6.3-6,8.9
				c-2.6,2.6-5.6,4.6-8.9,6C379.8,125.1,376.1,125.9,372.3,125.9z M372.3,72.1c-14.2,0-25.7,11.5-25.7,25.7s11.5,25.7,25.7,25.7
				S398,112,398,97.8S386.5,72.1,372.3,72.1z"/>
			<g>
				<path class="st7" d="M372.3,77.1c-0.1,0-0.2-0.1-0.2-0.2V73c0-0.1,0.1-0.2,0.2-0.2s0.2,0.1,0.2,0.2v3.9
					C372.5,77,372.4,77.1,372.3,77.1z"/>
				<g>
					<g>
						<path class="st7" d="M374.4,76.4L374.4,76.4L374.4,76.4L374.4,76.4l0.1-2c0,0,0-0.1,0.1-0.1c0,0,0.1,0,0.1,0.1l0,0L374.4,76.4
							C374.5,76.4,374.5,76.4,374.4,76.4z"/>
						<path class="st7" d="M376,76.7L376,76.7C376,76.7,376,76.6,376,76.7C376,76.6,376,76.6,376,76.7l0.3-2c0,0,0-0.1,0.1-0.1
							c0,0,0.1,0,0.1,0.1l0,0l-0.2,1l0,0L376,76.7C376.1,76.6,376.1,76.7,376,76.7z"/>
						<path class="st7" d="M377.6,77L377.6,77C377.6,77,377.5,77,377.6,77C377.5,76.9,377.5,76.9,377.6,77l0.4-2c0,0,0-0.1,0.1,0
							c0,0,0,0,0,0.1l0,0l-0.2,0.9l0,0L377.6,77L377.6,77z"/>
						<path class="st7" d="M379.1,77.4L379.1,77.4L379.1,77.4L379.1,77.4l0.6-1.9c0,0,0-0.1,0.1,0c0,0,0,0,0,0.1l0,0L379.1,77.4
							C379.2,77.4,379.2,77.4,379.1,77.4z"/>
						<path class="st7" d="M380.6,78L380.6,78L380.6,78C380.6,77.9,380.6,77.9,380.6,78l0.3-1l0,0l0.4-0.9h0.1c0,0,0,0,0,0.1l0,0
							L380.6,78C380.7,78,380.7,78,380.6,78z"/>
					</g>
					<g>
						<path class="st7" d="M385.1,80.5L385.1,80.5C385,80.5,385,80.5,385.1,80.5c-0.1-0.1-0.1-0.1-0.1-0.1l1.2-1.6h0.1
							c0,0,0,0,0,0.1l0,0L385.1,80.5L385.1,80.5z"/>
						<path class="st7" d="M386.3,81.5L386.3,81.5L386.3,81.5c-0.1-0.1-0.1-0.1,0-0.1l0.6-0.7l0,0l0.6-0.7h0.1l0,0l0,0L386.3,81.5
							C386.4,81.5,386.4,81.5,386.3,81.5z"/>
						<path class="st7" d="M387.5,82.6L387.5,82.6C387.5,82.6,387.4,82.6,387.5,82.6c-0.1-0.1-0.1-0.1,0-0.1l1.4-1.4h0.1l0,0l0,0
							L387.5,82.6L387.5,82.6z"/>
						<path class="st7" d="M388.6,83.8L388.6,83.8C388.5,83.8,388.5,83.8,388.6,83.8c-0.1-0.1-0.1-0.1,0-0.1l0.7-0.6l0,0l0.7-0.6
							h0.1l0,0l0,0L388.6,83.8L388.6,83.8z"/>
						
							<rect x="389.4" y="84.4" transform="matrix(0.8031 -0.5958 0.5958 0.8031 26.5492 249.1737)" class="st7" width="1.9" height="0.1"/>
					</g>
					<g>
						<path class="st7" d="M392.1,89.5L392.1,89.5C392.1,89.4,392.1,89.4,392.1,89.5c-0.1-0.1,0-0.1,0-0.1l1.8-0.8v0.1L392.1,89.5
							C392.2,89.5,392.1,89.5,392.1,89.5z"/>
						<path class="st7" d="M392.7,91L392.7,91C392.6,90.9,392.6,90.9,392.7,91c-0.1-0.1,0-0.1,0-0.1l1.8-0.6h0.1l0,0v0.1L392.7,91
							L392.7,91z"/>
						<path class="st7" d="M393.2,92.5C393.1,92.5,393.1,92.5,393.2,92.5C393.1,92.5,393.1,92.5,393.2,92.5c-0.1-0.1,0-0.1,0-0.1
							l0.9-0.2l0,0L395,92h0.1l0,0v0.1L393.2,92.5L393.2,92.5z"/>
						<path class="st7" d="M393.5,94.1C393.5,94.1,393.4,94.1,393.5,94.1C393.4,94,393.4,94,393.5,94.1c-0.1-0.1,0-0.1,0-0.1
							l1.9-0.3c0,0,0.1,0,0.1,0.1l0,0c0,0,0,0.1-0.1,0.1l-1,0.2l0,0H393.5L393.5,94.1z"/>
						<path class="st7" d="M393.7,95.7L393.7,95.7C393.7,95.6,393.7,95.6,393.7,95.7c-0.1-0.1,0-0.1,0-0.1l1.9-0.2
							c0,0,0.1,0,0.1,0.1l0,0c0,0,0,0.1-0.1,0.1L393.7,95.7L393.7,95.7z"/>
					</g>
					<g>
						<path class="st7" d="M395.5,101.1L395.5,101.1l-1.9-0.3c0,0-0.1,0-0.1-0.1l0,0c0,0,0-0.1,0.1-0.1l1.9,0.3
							C395.6,100.9,395.6,101,395.5,101.1C395.6,101,395.6,101,395.5,101.1C395.6,101,395.6,101.1,395.5,101.1z"/>
						<path class="st7" d="M395.2,102.8L395.2,102.8l-1.9-0.4c0,0,0,0,0-0.1l0,0c0,0,0-0.1,0.1,0l1.9,0.4
							C395.3,102.7,395.3,102.7,395.2,102.8C395.3,102.7,395.3,102.7,395.2,102.8C395.3,102.8,395.3,102.8,395.2,102.8z"/>
						<path class="st7" d="M394.8,104.5L394.8,104.5l-1.9-0.5c0,0,0,0,0-0.1l0,0c0,0,0-0.1,0.1,0l1.9,0.5
							C394.9,104.4,394.9,104.4,394.8,104.5C394.9,104.4,394.9,104.4,394.8,104.5C394.9,104.5,394.8,104.5,394.8,104.5z"/>
						<path class="st7" d="M394.3,106.1C394.2,106.1,394.2,106.1,394.3,106.1l-1.8-0.7c0,0,0,0,0-0.1l0,0c0,0,0,0,0.1,0l1.8,0.7
							C394.3,106,394.3,106.1,394.3,106.1L394.3,106.1L394.3,106.1z"/>
						<path class="st7" d="M393.6,107.8L393.6,107.8l-1.8-0.8c0,0,0,0,0-0.1l0,0h0.1l1.8,0.8C393.6,107.6,393.6,107.7,393.6,107.8
							C393.6,107.7,393.6,107.7,393.6,107.8C393.6,107.7,393.6,107.8,393.6,107.8z"/>
					</g>
					<g>
						
							<rect x="389.8" y="110.8" transform="matrix(0.6231 -0.7822 0.7822 0.6231 59.4902 347.0469)" class="st7" width="0.1" height="1.9"/>
						<path class="st7" d="M389.5,113.8L389.5,113.8l-1.5-1.3l0,0l0,0h0.1L389.5,113.8C389.6,113.7,389.6,113.7,389.5,113.8
							C389.6,113.8,389.6,113.8,389.5,113.8L389.5,113.8z"/>
						<path class="st7" d="M388.3,115C388.2,115,388.2,115,388.3,115l-1.4-1.4l0,0l0,0h0.1L388.3,115L388.3,115L388.3,115L388.3,115
							z"/>
						<path class="st7" d="M386.9,116.2L386.9,116.2l-0.7-0.8l0,0l-0.6-0.8l0,0l0,0h0.1l1.2,1.5C387,116.1,387,116.1,386.9,116.2
							C387,116.1,387,116.2,386.9,116.2C387,116.2,386.9,116.2,386.9,116.2z"/>
						<path class="st7" d="M385.5,117.2L385.5,117.2l-1.1-1.6l0,0c0,0,0,0,0-0.1h0.1L385.5,117.2
							C385.6,117.1,385.6,117.2,385.5,117.2C385.6,117.2,385.6,117.2,385.5,117.2L385.5,117.2z"/>
					</g>
					<g>
						<path class="st7" d="M380.6,119.8C380.6,119.8,380.5,119.8,380.6,119.8l-0.7-1.9l0,0c0,0,0,0,0-0.1h0.1L380.6,119.8
							C380.6,119.7,380.6,119.7,380.6,119.8L380.6,119.8L380.6,119.8z"/>
						<path class="st7" d="M378.9,120.4C378.9,120.4,378.9,120.3,378.9,120.4l-0.6-1.9l0,0v-0.1h0.1L378.9,120.4
							C379,120.3,379,120.3,378.9,120.4C379,120.3,379,120.3,378.9,120.4L378.9,120.4z"/>
						<path class="st7" d="M377.2,120.8L377.2,120.8l-0.3-1l0,0l0,0l0,0l-0.2-1l0,0v-0.1h0.1L377.2,120.8
							C377.3,120.7,377.3,120.7,377.2,120.8C377.3,120.7,377.3,120.8,377.2,120.8L377.2,120.8z"/>
						<path class="st7" d="M375.5,121.1C375.5,121.1,375.4,121.1,375.5,121.1l-0.2-1l0,0l-0.1-1l0,0c0,0,0-0.1,0.1-0.1
							c0,0,0.1,0,0.1,0.1L375.5,121.1C375.6,121,375.6,121,375.5,121.1C375.6,121.1,375.5,121.1,375.5,121.1L375.5,121.1z"/>
						<path class="st7" d="M373.8,121.3C373.7,121.3,373.7,121.2,373.8,121.3l-0.2-2l0,0c0,0,0-0.1,0.1-0.1c0,0,0.1,0,0.1,0.1V121.3
							C373.8,121.2,373.8,121.2,373.8,121.3C373.8,121.2,373.8,121.3,373.8,121.3L373.8,121.3z"/>
					</g>
					<g>
						<path class="st7" d="M369.1,121.1L369.1,121.1L369.1,121.1C369.1,121,369.1,121,369.1,121.1l0.2-2c0,0,0-0.1,0.1-0.1
							c0,0,0.1,0,0.1,0.1l0,0l-0.1,1l0,0L369.1,121.1C369.2,121.1,369.2,121.1,369.1,121.1z"/>
						<path class="st7" d="M367.4,120.8L367.4,120.8C367.4,120.8,367.3,120.7,367.4,120.8C367.3,120.7,367.3,120.7,367.4,120.8
							l0.3-2c0,0,0-0.1,0.1,0c0,0,0,0,0,0.1l0,0L367.4,120.8C367.5,120.8,367.4,120.8,367.4,120.8z"/>
						<path class="st7" d="M365.7,120.4L365.7,120.4C365.7,120.3,365.6,120.3,365.7,120.4C365.6,120.3,365.6,120.3,365.7,120.4
							l0.5-1.9c0,0,0-0.1,0.1,0c0,0,0,0,0,0.1l0,0l-0.3,0.9l0,0L365.7,120.4C365.8,120.3,365.7,120.4,365.7,120.4z"/>
						<path class="st7" d="M364.1,119.8H364l0.3-0.9l0,0l0.3-0.9c0,0,0,0,0.1,0c0,0,0,0,0,0.1l0,0L364.1,119.8z"/>
						<path class="st7" d="M362.4,119.1L362.4,119.1L362.4,119.1C362.4,119,362.4,119,362.4,119.1l0.8-1.9h0.1c0,0,0,0,0,0.1l0,0
							L362.4,119.1C362.5,119.1,362.5,119.1,362.4,119.1z"/>
					</g>
					<g>
						<path class="st7" d="M357.9,116.4L357.9,116.4C357.9,116.4,357.9,116.3,357.9,116.4c-0.1-0.1-0.1-0.1,0-0.1l1.2-1.5l0.1,0.1
							L357.9,116.4C358,116.4,358,116.4,357.9,116.4z"/>
						<path class="st7" d="M356.6,115.3L356.6,115.3C356.5,115.2,356.5,115.2,356.6,115.3c-0.1-0.1-0.1-0.1,0-0.1l1.3-1.4h0.1l0,0
							l0,0L356.6,115.3L356.6,115.3z"/>
						<path class="st7" d="M355.3,114L355.3,114L355.3,114c-0.1-0.1-0.1-0.1,0-0.1l1.4-1.3l0.1,0.1l-0.7,0.7l0,0L355.3,114
							C355.4,114,355.4,114,355.3,114z"/>
						<path class="st7" d="M354.2,112.7C354.2,112.7,354.1,112.7,354.2,112.7C354.1,112.7,354.1,112.7,354.2,112.7
							c-0.1-0.1-0.1-0.1,0-0.1l1.5-1.2h0.1l0,0l0,0L354.2,112.7L354.2,112.7z"/>
						<path class="st7" d="M353.1,111.3L353.1,111.3L353.1,111.3c-0.1-0.1-0.1-0.1,0-0.1l0.8-0.6l0,0l0.8-0.6h0.1l0,0c0,0,0,0,0,0.1
							L353.1,111.3L353.1,111.3z"/>
					</g>
					<g>
						<path class="st7" d="M350.6,106.7C350.6,106.7,350.5,106.7,350.6,106.7C350.5,106.7,350.5,106.7,350.6,106.7
							c-0.1-0.1,0-0.1,0-0.1l0.9-0.4l0,0l0.9-0.4h0.1l0,0c0,0,0,0,0,0.1L350.6,106.7L350.6,106.7z"/>
						<path class="st7" d="M350,105.1C350,105.1,349.9,105.1,350,105.1C349.9,105,349.9,105,350,105.1c-0.1-0.1,0-0.1,0-0.1l0.9-0.3
							l0,0l0.9-0.3h0.1l0,0v0.1L350,105.1L350,105.1z"/>
						<path class="st7" d="M349.5,103.4L349.5,103.4C349.5,103.3,349.5,103.3,349.5,103.4c-0.1-0.1,0-0.1,0-0.1l0.9-0.2l0,0l0.9-0.2
							h0.1l0,0v0.1L349.5,103.4L349.5,103.4z"/>
						<path class="st7" d="M349.2,101.7C349.1,101.7,349.1,101.7,349.2,101.7C349.1,101.6,349.1,101.6,349.2,101.7
							c-0.1-0.1,0-0.1,0-0.1l1.9-0.3c0,0,0.1,0,0.1,0.1l0,0c0,0,0,0.1-0.1,0.1l-1,0.2l0,0H349.2L349.2,101.7z"/>
						<path class="st7" d="M348.9,99.9L348.9,99.9L348.9,99.9c-0.1-0.1,0-0.1,0-0.1l1.9-0.2c0,0,0.1,0,0.1,0.1l0,0
							c0,0,0,0.1-0.1,0.1L348.9,99.9C349,99.9,349,99.9,348.9,99.9z"/>
					</g>
					<g>
						<path class="st7" d="M351,94.9L351,94.9l-1.9-0.3c0,0-0.1,0-0.1-0.1l0,0c0,0,0-0.1,0.1-0.1l1.9,0.3
							C351,94.8,351.1,94.8,351,94.9C351.1,94.9,351.1,94.9,351,94.9C351.1,94.9,351,94.9,351,94.9z"/>
						<path class="st7" d="M351.3,93.4l-1-0.2l0,0l-1-0.2c0,0-0.1,0-0.1-0.1l0,0c0,0,0-0.1,0.1,0l1.9,0.4L351.3,93.4z"/>
						<path class="st7" d="M351.7,91.8l-0.9-0.3l0,0l-0.9-0.3c0,0,0,0,0-0.1l0,0c0,0,0-0.1,0.1,0l1.9,0.5L351.7,91.8z"/>
						<path class="st7" d="M352.2,90.3L352.2,90.3l-1.8-0.7c0,0,0,0,0-0.1l0,0c0,0,0,0,0.1,0l0.9,0.3l0,0l0.9,0.3
							C352.2,90.2,352.2,90.2,352.2,90.3C352.2,90.2,352.2,90.2,352.2,90.3L352.2,90.3z"/>
						<path class="st7" d="M352.8,88.8L352.8,88.8l-0.9-0.4l0,0L351,88l0.1-0.1l1.8,0.8C352.8,88.7,352.9,88.7,352.8,88.8
							C352.9,88.7,352.9,88.7,352.8,88.8L352.8,88.8z"/>
					</g>
					<g>
						<path class="st7" d="M355.3,84.7L355.3,84.7l-1.6-1.2c0,0,0,0,0-0.1l0,0h0.1l1.5,1.2C355.4,84.6,355.4,84.6,355.3,84.7
							C355.4,84.6,355.4,84.6,355.3,84.7L355.3,84.7z"/>
						<path class="st7" d="M356.3,83.4L356.3,83.4l-1.5-1.3l0,0l0,0h0.1l0.7,0.7l0,0L356.3,83.4C356.4,83.3,356.4,83.4,356.3,83.4
							C356.4,83.4,356.4,83.4,356.3,83.4C356.4,83.4,356.4,83.4,356.3,83.4z"/>
						<path class="st7" d="M357.5,82.3C357.4,82.3,357.4,82.3,357.5,82.3l-0.7-0.7l0,0l-0.7-0.7l0,0l0,0h0.1L357.5,82.3
							C357.5,82.2,357.5,82.2,357.5,82.3C357.5,82.2,357.5,82.3,357.5,82.3L357.5,82.3z"/>
						<path class="st7" d="M358.7,81.2C358.6,81.2,358.6,81.2,358.7,81.2l-1.3-1.5l0,0l0,0h0.1L358.7,81.2
							C358.7,81.1,358.7,81.1,358.7,81.2L358.7,81.2L358.7,81.2z"/>
						<path class="st7" d="M359.9,80.3C359.9,80.3,359.9,80.2,359.9,80.3l-0.6-0.8l0,0l-0.6-0.8l0,0c0,0,0,0,0-0.1h0.1L359.9,80.3
							C360,80.2,360,80.2,359.9,80.3C360,80.2,360,80.2,359.9,80.3C360,80.2,359.9,80.3,359.9,80.3z"/>
					</g>
					<g>
						<path class="st7" d="M364.2,77.9C364.1,77.9,364.1,77.9,364.2,77.9l-0.8-1.8l0,0c0,0,0,0,0-0.1h0.1l0.4,0.9l0,0L364.2,77.9
							L364.2,77.9L364.2,77.9L364.2,77.9z"/>
						<path class="st7" d="M365.7,77.4C365.7,77.4,365.6,77.4,365.7,77.4l-0.7-1.9l0,0v-0.1h0.1l0.3,0.9l0,0L365.7,77.4
							C365.7,77.3,365.7,77.3,365.7,77.4C365.7,77.3,365.7,77.4,365.7,77.4L365.7,77.4z"/>
						
							<rect x="366.9" y="75" transform="matrix(0.9713 -0.238 0.238 0.9713 -7.5356 89.5183)" class="st7" width="0.1" height="1.9"/>
						<path class="st7" d="M368.8,76.6C368.8,76.6,368.7,76.6,368.8,76.6l-0.2-1l0,0l-0.2-1l0,0c0,0,0-0.1,0.1-0.1
							c0,0,0.1,0,0.1,0.1L368.8,76.6C368.9,76.6,368.9,76.6,368.8,76.6C368.9,76.6,368.8,76.6,368.8,76.6L368.8,76.6z"/>
						<path class="st7" d="M370.4,76.4C370.4,76.4,370.3,76.4,370.4,76.4l-0.2-1l0,0l-0.1-1l0,0c0,0,0-0.1,0.1-0.1
							c0,0,0.1,0,0.1,0.1l0.1,1l0,0V76.4C370.5,76.4,370.5,76.4,370.4,76.4C370.5,76.4,370.4,76.4,370.4,76.4L370.4,76.4z"/>
					</g>
				</g>
				<path class="st7" d="M382.8,79.9h-0.1c-0.1,0-0.1-0.1-0.1-0.2v-0.1l1-1.7l0,0l1-1.7c0.1-0.1,0.2-0.1,0.3-0.1
					c0.1,0,0.1,0.1,0.1,0.2v0.1l-1.9,3.3C383,79.9,382.9,79.9,382.8,79.9z"/>
				
					<rect x="390.2" y="86.2" transform="matrix(0.8683 -0.496 0.496 0.8683 8.7677 205.8722)" class="st7" width="3.9" height="0.4"/>
				<path class="st7" d="M397.1,98.2L397.1,98.2h-3.9c-0.1,0-0.2-0.1-0.2-0.2l0,0c0-0.1,0.1-0.2,0.2-0.2l0,0h3.9
					c0.1,0,0.2,0.1,0.2,0.2l0,0C397.3,98.1,397.2,98.2,397.1,98.2z"/>
				<path class="st7" d="M393.6,110.6h-0.1l-3.3-2c-0.1,0-0.1-0.1-0.1-0.2v-0.1c0.1-0.1,0.2-0.1,0.3-0.1l3.3,2
					c0.1,0,0.1,0.1,0.1,0.2v0.1C393.8,110.6,393.7,110.6,393.6,110.6z"/>
				<path class="st7" d="M384.3,119.5l-1.9-3.4V116c0-0.1,0-0.2,0.1-0.2c0.1-0.1,0.2,0,0.3,0.1l1.9,3.4L384.3,119.5z"/>
				<path class="st7" d="M372,122.8L372,122.8c-0.1,0-0.2-0.1-0.2-0.2l0,0l0.1-3.9c0-0.1,0.1-0.2,0.2-0.2l0,0c0.1,0,0.2,0.1,0.2,0.2
					l0,0l-0.1,3.9C372.2,122.7,372.1,122.8,372,122.8z"/>
				<path class="st7" d="M359.6,119.3h-0.1c-0.1,0-0.1-0.1-0.1-0.2V119l2-3.3l0.4,0.2l-2,3.3C359.7,119.2,359.6,119.3,359.6,119.3z"
					/>
				<path class="st7" d="M350.6,110c-0.1,0-0.2,0-0.2-0.1v-0.1c0-0.1,0-0.2,0.1-0.2l3.4-1.9c0.1-0.1,0.2,0,0.3,0.1v0.1
					c0,0.1,0,0.2-0.1,0.2L350.6,110C350.7,110,350.7,110,350.6,110z"/>
				<path class="st7" d="M351.4,97.6L351.4,97.6l-3.9-0.1c-0.1,0-0.2-0.1-0.2-0.2l0,0c0-0.1,0.1-0.2,0.2-0.2l3.9,0.1
					c0.1,0,0.2,0.1,0.2,0.2l0,0C351.6,97.5,351.5,97.6,351.4,97.6z"/>
				
					<rect x="352.6" y="84" transform="matrix(0.5202 -0.854 0.854 0.5202 95.8719 342.5705)" class="st7" width="0.4" height="3.9"/>
				<path class="st7" d="M362.3,79.6c-0.1,0-0.2,0-0.2-0.1l-1.8-3.4V76c0-0.1,0-0.2,0.1-0.2c0.1-0.1,0.2,0,0.3,0.1l0.9,1.7l0,0
					l0.9,1.7v0.1C362.5,79.5,362.5,79.6,362.3,79.6C362.4,79.6,362.4,79.6,362.3,79.6z"/>
			</g>
			<path class="st8" d="M383.9,105.8c-0.1,0-0.3,0-0.4-0.1l-10.9-6.6c-0.4-0.2-0.5-0.8-0.3-1.2s0.8-0.5,1.2-0.3l10.9,6.6
				c0.4,0.2,0.5,0.8,0.3,1.2C384.5,105.7,384.2,105.8,383.9,105.8z"/>
			<path class="st8" d="M356.5,107.5c-0.2,0-0.4-0.1-0.5-0.3c-0.2-0.3-0.1-0.7,0.2-0.9l15.3-8.7c0.3-0.2,0.7-0.1,0.9,0.2
				c0.2,0.3,0.1,0.7-0.2,0.9l-15.3,8.7C356.7,107.5,356.6,107.5,356.5,107.5z"/>
			<path class="st8" d="M372.3,97.9c-0.1,0-0.2-0.1-0.2-0.2l-4.4-19c0-0.2,0.1-0.3,0.2-0.4c0.2,0,0.3,0.1,0.4,0.2l4.4,19
				c0,0.2-0.1,0.3-0.2,0.4C372.4,97.9,372.3,97.9,372.3,97.9z"/>
			<circle class="st9" cx="372.3" cy="97.8" r="1.4"/>
		</g>
		<g>
			<path class="st1" d="M137.1,201.2c0,1.8,1.5,3.3,3.3,3.3h60.7l8.9,7.9l-0.7-7.9h4.3c1.8,0,3.3-1.5,3.3-3.3v-21h-80v21H137.1z"/>
		</g>
		<circle class="st4" cx="162.9" cy="180.2" r="3.7"/>
		<circle class="st4" cx="177.3" cy="180.2" r="3.7"/>
		<circle class="st4" cx="190.8" cy="180.2" r="3.7"/>
		<path class="st1" d="M515.5,168.3c0,0.1,0,0.3,0,0.5c-0.2,18.6-14.6,35.2-31.1,41.2l0,0c-3.9,1.1-8,1.7-12.2,1.7
			c-23.9,0-43.4-19.4-43.4-43.4s19.4-43.4,43.4-43.4c17.1,0,31.9,9.9,39,24.3c1.8,3.7,3.1,7.8,3.8,12
			C515.3,163.6,515.5,165.9,515.5,168.3z"/>
		<path class="st10" d="M501.3,187l-9.1,9.1c-1.8,1.8-4.8,1.8-6.6,0L446,156.5c-1.8-1.8-1.8-4.8,0-6.6l9.1-9.1
			c1.8-1.8,4.8-1.8,6.6,0l39.6,39.6C503.1,182.2,503.1,185.2,501.3,187z"/>
		<path class="st4" d="M485.1,177l-3.2,3.2c-2,2-5.3,2-7.3,0L462,167.5c-2-2-2-5.3,0-7.3l3.2-3.2c2-2,5.3-2,7.3,0l12.7,12.7
			C487.1,171.7,487.1,175,485.1,177z"/>
		<path class="st11" d="M446.8,153.7L446.8,153.7c-0.4,0-0.7-0.3-0.7-0.7l0,0c0-0.4,0.3-0.7,0.7-0.7l0,0c0.4,0,0.7,0.3,0.7,0.7l0,0
			C447.6,153.4,447.2,153.7,446.8,153.7z"/>
		<path class="st11" d="M449.1,151.5L449.1,151.5c-0.4,0-0.7-0.3-0.7-0.7l0,0c0-0.4,0.3-0.7,0.7-0.7l0,0c0.4,0,0.7,0.3,0.7,0.7l0,0
			C449.8,151.1,449.5,151.5,449.1,151.5z"/>
		<path class="st11" d="M451.3,149.2L451.3,149.2c-0.4,0-0.7-0.3-0.7-0.7l0,0c0-0.4,0.3-0.7,0.7-0.7l0,0c0.4,0,0.7,0.3,0.7,0.7l0,0
			C452.1,148.9,451.7,149.2,451.3,149.2z"/>
		<path class="st11" d="M453.6,146.9L453.6,146.9c-0.4,0-0.7-0.3-0.7-0.7l0,0c0-0.4,0.3-0.7,0.7-0.7l0,0c0.4,0,0.7,0.3,0.7,0.7l0,0
			C454.3,146.6,454,146.9,453.6,146.9z"/>
		<path class="st11" d="M455.8,144.7L455.8,144.7c-0.4,0-0.7-0.3-0.7-0.7l0,0c0-0.4,0.3-0.7,0.7-0.7l0,0c0.4,0,0.7,0.3,0.7,0.7l0,0
			C456.6,144.3,456.2,144.7,455.8,144.7z"/>
		<path class="st11" d="M458.1,142.4L458.1,142.4c-0.4,0-0.7-0.3-0.7-0.7l0,0c0-0.4,0.3-0.7,0.7-0.7l0,0c0.4,0,0.7,0.3,0.7,0.7l0,0
			C458.8,142.1,458.5,142.4,458.1,142.4z"/>
		<path class="st11" d="M448.1,156.4L448.1,156.4c-0.4,0-0.7-0.3-0.7-0.7l0,0c0-0.4,0.3-0.7,0.7-0.7l0,0c0.4,0,0.7,0.3,0.7,0.7l0,0
			C448.8,156.1,448.5,156.4,448.1,156.4z"/>
		<path class="st11" d="M450.3,154.1L450.3,154.1c-0.4,0-0.7-0.3-0.7-0.7l0,0c0-0.4,0.3-0.7,0.7-0.7l0,0c0.4,0,0.7,0.3,0.7,0.7l0,0
			C451.1,153.8,450.7,154.1,450.3,154.1z"/>
		<path class="st11" d="M452.6,151.9L452.6,151.9c-0.4,0-0.7-0.3-0.7-0.7l0,0c0-0.4,0.3-0.7,0.7-0.7l0,0c0.4,0,0.7,0.3,0.7,0.7l0,0
			C453.3,151.5,453,151.9,452.6,151.9z"/>
		<path class="st11" d="M454.8,149.6L454.8,149.6c-0.4,0-0.7-0.3-0.7-0.7l0,0c0-0.4,0.3-0.7,0.7-0.7l0,0c0.4,0,0.7,0.3,0.7,0.7l0,0
			C455.5,149.3,455.2,149.6,454.8,149.6z"/>
		<path class="st11" d="M457,147.3L457,147.3c-0.4,0-0.7-0.3-0.7-0.7l0,0c0-0.4,0.3-0.7,0.7-0.7l0,0c0.4,0,0.7,0.3,0.7,0.7l0,0
			C457.8,147,457.5,147.3,457,147.3z"/>
		<path class="st11" d="M459.3,145.1L459.3,145.1c-0.4,0-0.7-0.3-0.7-0.7l0,0c0-0.4,0.3-0.7,0.7-0.7l0,0c0.4,0,0.7,0.3,0.7,0.7l0,0
			C460,144.7,459.7,145.1,459.3,145.1z"/>
		<path class="st11" d="M450.7,157.9L450.7,157.9c-0.4,0-0.7-0.3-0.7-0.7l0,0c0-0.4,0.3-0.7,0.7-0.7l0,0c0.4,0,0.7,0.3,0.7,0.7l0,0
			C451.4,157.6,451.1,157.9,450.7,157.9z"/>
		<path class="st11" d="M452.9,155.6L452.9,155.6c-0.4,0-0.7-0.3-0.7-0.7l0,0c0-0.4,0.3-0.7,0.7-0.7l0,0c0.4,0,0.7,0.3,0.7,0.7l0,0
			C453.7,155.3,453.3,155.6,452.9,155.6z"/>
		<path class="st11" d="M455.2,153.4L455.2,153.4c-0.4,0-0.7-0.3-0.7-0.7l0,0c0-0.4,0.3-0.7,0.7-0.7l0,0c0.4,0,0.7,0.3,0.7,0.7l0,0
			C455.9,153,455.6,153.4,455.2,153.4z"/>
		<path class="st11" d="M457.4,151.1L457.4,151.1c-0.4,0-0.7-0.3-0.7-0.7l0,0c0-0.4,0.3-0.7,0.7-0.7l0,0c0.4,0,0.7,0.3,0.7,0.7l0,0
			C458.2,150.8,457.8,151.1,457.4,151.1z"/>
		<path class="st11" d="M459.7,148.8L459.7,148.8c-0.4,0-0.7-0.3-0.7-0.7l0,0c0-0.4,0.3-0.7,0.7-0.7l0,0c0.4,0,0.7,0.3,0.7,0.7l0,0
			C460.4,148.5,460.1,148.8,459.7,148.8z"/>
		<path class="st11" d="M461.9,146.6L461.9,146.6c-0.4,0-0.7-0.3-0.7-0.7l0,0c0-0.4,0.3-0.7,0.7-0.7l0,0c0.4,0,0.7,0.3,0.7,0.7l0,0
			C462.7,146.2,462.3,146.6,461.9,146.6z"/>
		<path class="st11" d="M453.8,158.9L453.8,158.9c-0.4,0-0.7-0.3-0.7-0.7l0,0c0-0.4,0.3-0.7,0.7-0.7l0,0c0.4,0,0.7,0.3,0.7,0.7l0,0
			C454.5,158.6,454.2,158.9,453.8,158.9z"/>
		<path class="st11" d="M451.8,160.5L451.8,160.5c-0.4,0-0.7-0.3-0.7-0.7l0,0c0-0.4,0.3-0.7,0.7-0.7l0,0c0.4,0,0.7,0.3,0.7,0.7l0,0
			C452.6,160.2,452.2,160.5,451.8,160.5z"/>
		<path class="st11" d="M456.3,165L456.3,165c-0.4,0-0.7-0.3-0.7-0.7l0,0c0-0.4,0.3-0.7,0.7-0.7l0,0c0.4,0,0.7,0.3,0.7,0.7l0,0
			C457,164.7,456.7,165,456.3,165z"/>
		<path class="st11" d="M456,156.6L456,156.6c-0.4,0-0.7-0.3-0.7-0.7l0,0c0-0.4,0.3-0.7,0.7-0.7l0,0c0.4,0,0.7,0.3,0.7,0.7l0,0
			C456.8,156.3,456.5,156.6,456,156.6z"/>
		<path class="st11" d="M458.3,154.4L458.3,154.4c-0.4,0-0.7-0.3-0.7-0.7l0,0c0-0.4,0.3-0.7,0.7-0.7l0,0c0.4,0,0.7,0.3,0.7,0.7l0,0
			C459,154,458.7,154.4,458.3,154.4z"/>
		<path class="st11" d="M460.5,152.1L460.5,152.1c-0.4,0-0.7-0.3-0.7-0.7l0,0c0-0.4,0.3-0.7,0.7-0.7l0,0c0.4,0,0.7,0.3,0.7,0.7l0,0
			C461.3,151.8,460.9,152.1,460.5,152.1z"/>
		<path class="st11" d="M462.8,149.8L462.8,149.8c-0.4,0-0.7-0.3-0.7-0.7l0,0c0-0.4,0.3-0.7,0.7-0.7l0,0c0.4,0,0.7,0.3,0.7,0.7l0,0
			C463.5,149.5,463.2,149.8,462.8,149.8z"/>
		<path class="st11" d="M465,147.6L465,147.6c-0.4,0-0.7-0.3-0.7-0.7l0,0c0-0.4,0.3-0.7,0.7-0.7l0,0c0.4,0,0.7,0.3,0.7,0.7l0,0
			C465.8,147.2,465.4,147.6,465,147.6z"/>
		<path class="st11" d="M454.5,162.3L454.5,162.3c-0.4,0-0.7-0.3-0.7-0.7l0,0c0-0.4,0.3-0.7,0.7-0.7l0,0c0.4,0,0.7,0.3,0.7,0.7l0,0
			C455.3,162,455,162.3,454.5,162.3z"/>
		<path class="st11" d="M456.8,160L456.8,160c-0.4,0-0.7-0.3-0.7-0.7l0,0c0-0.4,0.3-0.7,0.7-0.7l0,0c0.4,0,0.7,0.3,0.7,0.7l0,0
			C457.5,159.7,457.2,160,456.8,160z"/>
		<path class="st11" d="M459,157.8L459,157.8c-0.4,0-0.7-0.3-0.7-0.7l0,0c0-0.4,0.3-0.7,0.7-0.7l0,0c0.4,0,0.7,0.3,0.7,0.7l0,0
			C459.8,157.4,459.4,157.8,459,157.8z"/>
		<path class="st11" d="M461.3,155.5L461.3,155.5c-0.4,0-0.7-0.3-0.7-0.7l0,0c0-0.4,0.3-0.7,0.7-0.7l0,0c0.4,0,0.7,0.3,0.7,0.7l0,0
			C462,155.2,461.7,155.5,461.3,155.5z"/>
		<path class="st11" d="M463.5,153.2L463.5,153.2c-0.4,0-0.7-0.3-0.7-0.7l0,0c0-0.4,0.3-0.7,0.7-0.7l0,0c0.4,0,0.7,0.3,0.7,0.7l0,0
			C464.3,152.9,463.9,153.2,463.5,153.2z"/>
		<path class="st11" d="M465.8,151L465.8,151c-0.4,0-0.7-0.3-0.7-0.7l0,0c0-0.4,0.3-0.7,0.7-0.7l0,0c0.4,0,0.7,0.3,0.7,0.7l0,0
			C466.5,150.6,466.2,151,465.8,151z"/>
		<path class="st11" d="M458.1,162.7L458.1,162.7c-0.4,0-0.7-0.3-0.7-0.7l0,0c0-0.4,0.3-0.7,0.7-0.7l0,0c0.4,0,0.7,0.3,0.7,0.7l0,0
			C458.8,162.3,458.5,162.7,458.1,162.7z"/>
		<path class="st11" d="M460.3,160.4L460.3,160.4c-0.4,0-0.7-0.3-0.7-0.7l0,0c0-0.4,0.3-0.7,0.7-0.7l0,0c0.4,0,0.7,0.3,0.7,0.7l0,0
			C461,160.1,460.7,160.4,460.3,160.4z"/>
		<path class="st11" d="M462.5,158.1L462.5,158.1c-0.4,0-0.7-0.3-0.7-0.7l0,0c0-0.4,0.3-0.7,0.7-0.7l0,0c0.4,0,0.7,0.3,0.7,0.7l0,0
			C463.3,157.8,463,158.1,462.5,158.1z"/>
		<path class="st11" d="M464.8,155.9L464.8,155.9c-0.4,0-0.7-0.3-0.7-0.7l0,0c0-0.4,0.3-0.7,0.7-0.7l0,0c0.4,0,0.7,0.3,0.7,0.7l0,0
			C465.5,155.5,465.2,155.9,464.8,155.9z"/>
		<path class="st11" d="M467,153.6L467,153.6c-0.4,0-0.7-0.3-0.7-0.7l0,0c0-0.4,0.3-0.7,0.7-0.7l0,0c0.4,0,0.7,0.3,0.7,0.7l0,0
			C467.8,153.3,467.4,153.6,467,153.6z"/>
		<path class="st11" d="M469.3,151.3L469.3,151.3c-0.4,0-0.7-0.3-0.7-0.7l0,0c0-0.4,0.3-0.7,0.7-0.7l0,0c0.4,0,0.7,0.3,0.7,0.7l0,0
			C470,151,469.7,151.3,469.3,151.3z"/>
		<path class="st11" d="M479.5,187.3L479.5,187.3c-0.4,0-0.7-0.3-0.7-0.7l0,0c0-0.4,0.3-0.7,0.7-0.7l0,0c0.4,0,0.7,0.3,0.7,0.7l0,0
			C480.3,186.9,479.9,187.3,479.5,187.3z"/>
		<path class="st11" d="M481.8,185L481.8,185c-0.4,0-0.7-0.3-0.7-0.7l0,0c0-0.4,0.3-0.7,0.7-0.7l0,0c0.4,0,0.7,0.3,0.7,0.7l0,0
			C482.5,184.7,482.2,185,481.8,185z"/>
		<path class="st11" d="M484,182.7L484,182.7c-0.4,0-0.7-0.3-0.7-0.7l0,0c0-0.4,0.3-0.7,0.7-0.7l0,0c0.4,0,0.7,0.3,0.7,0.7l0,0
			C484.8,182.4,484.4,182.7,484,182.7z"/>
		<path class="st11" d="M486.3,180.5L486.3,180.5c-0.4,0-0.7-0.3-0.7-0.7l0,0c0-0.4,0.3-0.7,0.7-0.7l0,0c0.4,0,0.7,0.3,0.7,0.7l0,0
			C487,180.1,486.7,180.5,486.3,180.5z"/>
		<path class="st11" d="M488.5,178.2L488.5,178.2c-0.4,0-0.7-0.3-0.7-0.7l0,0c0-0.4,0.3-0.7,0.7-0.7l0,0c0.4,0,0.7,0.3,0.7,0.7l0,0
			C489.3,177.9,488.9,178.2,488.5,178.2z"/>
		<path class="st11" d="M490.8,175.9L490.8,175.9c-0.4,0-0.7-0.3-0.7-0.7l0,0c0-0.4,0.3-0.7,0.7-0.7l0,0c0.4,0,0.7,0.3,0.7,0.7l0,0
			C491.5,175.6,491.2,175.9,490.8,175.9z"/>
		<path class="st11" d="M482.5,188.4L482.5,188.4c-0.4,0-0.7-0.3-0.7-0.7l0,0c0-0.4,0.3-0.7,0.7-0.7l0,0c0.4,0,0.7,0.3,0.7,0.7l0,0
			C483.3,188.1,482.9,188.4,482.5,188.4z"/>
		<path class="st11" d="M484.8,186.1L484.8,186.1c-0.4,0-0.7-0.3-0.7-0.7l0,0c0-0.4,0.3-0.7,0.7-0.7l0,0c0.4,0,0.7,0.3,0.7,0.7l0,0
			C485.5,185.8,485.2,186.1,484.8,186.1z"/>
		<path class="st11" d="M487,183.9L487,183.9c-0.4,0-0.7-0.3-0.7-0.7l0,0c0-0.4,0.3-0.7,0.7-0.7l0,0c0.4,0,0.7,0.3,0.7,0.7l0,0
			C487.8,183.5,487.4,183.9,487,183.9z"/>
		<path class="st11" d="M489.3,181.6L489.3,181.6c-0.4,0-0.7-0.3-0.7-0.7l0,0c0-0.4,0.3-0.7,0.7-0.7l0,0c0.4,0,0.7,0.3,0.7,0.7l0,0
			C490,181.3,489.7,181.6,489.3,181.6z"/>
		<path class="st11" d="M491.5,179.3L491.5,179.3c-0.4,0-0.7-0.3-0.7-0.7l0,0c0-0.4,0.3-0.7,0.7-0.7l0,0c0.4,0,0.7,0.3,0.7,0.7l0,0
			C492.3,179,491.9,179.3,491.5,179.3z"/>
		<path class="st11" d="M493.7,177.1L493.7,177.1c-0.4,0-0.7-0.3-0.7-0.7l0,0c0-0.4,0.3-0.7,0.7-0.7l0,0c0.4,0,0.7,0.3,0.7,0.7l0,0
			C494.5,176.7,494.2,177.1,493.7,177.1z"/>
		<path class="st11" d="M484,191.2L484,191.2c-0.4,0-0.7-0.3-0.7-0.7l0,0c0-0.4,0.3-0.7,0.7-0.7l0,0c0.4,0,0.7,0.3,0.7,0.7l0,0
			C484.8,190.9,484.4,191.2,484,191.2z"/>
		<path class="st11" d="M486.3,188.9L486.3,188.9c-0.4,0-0.7-0.3-0.7-0.7l0,0c0-0.4,0.3-0.7,0.7-0.7l0,0c0.4,0,0.7,0.3,0.7,0.7l0,0
			C487,188.6,486.7,188.9,486.3,188.9z"/>
		<path class="st11" d="M488.5,186.7L488.5,186.7c-0.4,0-0.7-0.3-0.7-0.7l0,0c0-0.4,0.3-0.7,0.7-0.7l0,0c0.4,0,0.7,0.3,0.7,0.7l0,0
			C489.3,186.3,488.9,186.7,488.5,186.7z"/>
		<path class="st11" d="M490.8,184.4L490.8,184.4c-0.4,0-0.7-0.3-0.7-0.7l0,0c0-0.4,0.3-0.7,0.7-0.7l0,0c0.4,0,0.7,0.3,0.7,0.7l0,0
			C491.5,184.1,491.2,184.4,490.8,184.4z"/>
		<path class="st11" d="M493,182.1L493,182.1c-0.4,0-0.7-0.3-0.7-0.7l0,0c0-0.4,0.3-0.7,0.7-0.7l0,0c0.4,0,0.7,0.3,0.7,0.7l0,0
			C493.7,181.8,493.4,182.1,493,182.1z"/>
		<path class="st11" d="M495.2,179.9L495.2,179.9c-0.4,0-0.7-0.3-0.7-0.7l0,0c0-0.4,0.3-0.7,0.7-0.7l0,0c0.4,0,0.7,0.3,0.7,0.7l0,0
			C496,179.5,495.7,179.9,495.2,179.9z"/>
		<path class="st11" d="M487.4,192.4L487.4,192.4c-0.4,0-0.7-0.3-0.7-0.7l0,0c0-0.4,0.3-0.7,0.7-0.7l0,0c0.4,0,0.7,0.3,0.7,0.7l0,0
			C488.1,192.1,487.8,192.4,487.4,192.4z"/>
		<path class="st11" d="M485.5,194.3L485.5,194.3c-0.4,0-0.7-0.3-0.7-0.7l0,0c0-0.4,0.3-0.7,0.7-0.7l0,0c0.4,0,0.7,0.3,0.7,0.7l0,0
			C486.3,194,485.9,194.3,485.5,194.3z"/>
		<path class="st11" d="M489.6,190.2L489.6,190.2c-0.4,0-0.7-0.3-0.7-0.7l0,0c0-0.4,0.3-0.7,0.7-0.7l0,0c0.4,0,0.7,0.3,0.7,0.7l0,0
			C490.4,189.8,490,190.2,489.6,190.2z"/>
		<path class="st11" d="M491.9,187.9L491.9,187.9c-0.4,0-0.7-0.3-0.7-0.7l0,0c0-0.4,0.3-0.7,0.7-0.7l0,0c0.4,0,0.7,0.3,0.7,0.7l0,0
			C492.6,187.6,492.3,187.9,491.9,187.9z"/>
		<path class="st11" d="M494.1,185.6L494.1,185.6c-0.4,0-0.7-0.3-0.7-0.7l0,0c0-0.4,0.3-0.7,0.7-0.7l0,0c0.4,0,0.7,0.3,0.7,0.7l0,0
			C494.9,185.3,494.5,185.6,494.1,185.6z"/>
		<path class="st11" d="M496.4,183.4L496.4,183.4c-0.4,0-0.7-0.3-0.7-0.7l0,0c0-0.4,0.3-0.7,0.7-0.7l0,0c0.4,0,0.7,0.3,0.7,0.7l0,0
			C497.1,183,496.8,183.4,496.4,183.4z"/>
		<path class="st11" d="M498.6,181.1L498.6,181.1c-0.4,0-0.7-0.3-0.7-0.7l0,0c0-0.4,0.3-0.7,0.7-0.7l0,0c0.4,0,0.7,0.3,0.7,0.7l0,0
			C499.4,180.8,499,181.1,498.6,181.1z"/>
		<path class="st11" d="M488.8,195.8L488.8,195.8c-0.4,0-0.7-0.3-0.7-0.7l0,0c0-0.4,0.3-0.7,0.7-0.7l0,0c0.4,0,0.7,0.3,0.7,0.7l0,0
			C489.5,195.5,489.2,195.8,488.8,195.8z"/>
		<path class="st11" d="M491,193.6L491,193.6c-0.4,0-0.7-0.3-0.7-0.7l0,0c0-0.4,0.3-0.7,0.7-0.7l0,0c0.4,0,0.7,0.3,0.7,0.7l0,0
			C491.8,193.2,491.4,193.6,491,193.6z"/>
		<path class="st11" d="M493.3,191.3L493.3,191.3c-0.4,0-0.7-0.3-0.7-0.7l0,0c0-0.4,0.3-0.7,0.7-0.7l0,0c0.4,0,0.7,0.3,0.7,0.7l0,0
			C494,191,493.7,191.3,493.3,191.3z"/>
		<path class="st11" d="M495.5,189L495.5,189c-0.4,0-0.7-0.3-0.7-0.7l0,0c0-0.4,0.3-0.7,0.7-0.7l0,0c0.4,0,0.7,0.3,0.7,0.7l0,0
			C496.3,188.7,495.9,189,495.5,189z"/>
		<path class="st11" d="M497.8,186.8L497.8,186.8c-0.4,0-0.7-0.3-0.7-0.7l0,0c0-0.4,0.3-0.7,0.7-0.7l0,0c0.4,0,0.7,0.3,0.7,0.7l0,0
			C498.5,186.4,498.2,186.8,497.8,186.8z"/>
		<path class="st11" d="M500,184.5L500,184.5c-0.4,0-0.7-0.3-0.7-0.7l0,0c0-0.4,0.3-0.7,0.7-0.7l0,0c0.4,0,0.7,0.3,0.7,0.7l0,0
			C500.8,184.2,500.4,184.5,500,184.5z"/>
		<path class="st10" d="M492,140.9l9.1,9.1c1.8,1.8,1.8,4.8,0,6.6l-39.7,39.6c-1.8,1.8-4.8,1.8-6.6,0l-9.1-9.1
			c-1.8-1.8-1.8-4.8,0-6.6l39.7-39.6C487.2,139,490.2,139,492,140.9z"/>
		<path class="st4" d="M480.1,155.2l6.8,6.8c1,1,1,2.6,0,3.6l-16.3,16.3c-1,1-2.6,1-3.6,0l-6.8-6.8c-1-1-1-2.6,0-3.6l16.3-16.3
			C477.5,154.2,479.1,154.2,480.1,155.2z"/>
		<path class="st11" d="M458.7,195.3L458.7,195.3c0,0.4-0.3,0.7-0.7,0.7l0,0c-0.4,0-0.7-0.3-0.7-0.7l0,0c0-0.4,0.3-0.7,0.7-0.7l0,0
			C458.3,194.5,458.7,194.9,458.7,195.3z"/>
		<path class="st11" d="M456.4,193L456.4,193c0,0.4-0.3,0.7-0.7,0.7l0,0c-0.4,0-0.7-0.3-0.7-0.7l0,0c0-0.4,0.3-0.7,0.7-0.7l0,0
			C456.1,192.3,456.4,192.6,456.4,193z"/>
		<path class="st11" d="M454.1,190.8L454.1,190.8c0,0.4-0.3,0.7-0.7,0.7l0,0c-0.4,0-0.7-0.3-0.7-0.7l0,0c0-0.4,0.3-0.7,0.7-0.7l0,0
			C453.8,190,454.1,190.4,454.1,190.8z"/>
		<path class="st11" d="M451.9,188.5L451.9,188.5c0,0.4-0.3,0.7-0.7,0.7l0,0c-0.4,0-0.7-0.3-0.7-0.7l0,0c0-0.4,0.3-0.7,0.7-0.7l0,0
			C451.5,187.8,451.9,188.1,451.9,188.5z"/>
		<path class="st11" d="M449.6,186.3L449.6,186.3c0,0.4-0.3,0.7-0.7,0.7l0,0c-0.4,0-0.7-0.3-0.7-0.7l0,0c0-0.4,0.3-0.7,0.7-0.7l0,0
			C449.3,185.5,449.6,185.9,449.6,186.3z"/>
		<path class="st11" d="M447.3,184L447.3,184c0,0.4-0.3,0.7-0.7,0.7l0,0c-0.4,0-0.7-0.3-0.7-0.7l0,0c0-0.4,0.3-0.7,0.7-0.7l0,0
			C447,183.3,447.3,183.6,447.3,184z"/>
		<path class="st11" d="M461.3,194.1L461.3,194.1c0,0.4-0.3,0.7-0.7,0.7l0,0c-0.4,0-0.7-0.3-0.7-0.7l0,0c0-0.4,0.3-0.7,0.7-0.7l0,0
			C461,193.3,461.3,193.6,461.3,194.1z"/>
		<path class="st11" d="M459.1,191.8L459.1,191.8c0,0.4-0.3,0.7-0.7,0.7l0,0c-0.4,0-0.7-0.3-0.7-0.7l0,0c0-0.4,0.3-0.7,0.7-0.7l0,0
			C458.7,191.1,459.1,191.4,459.1,191.8z"/>
		<path class="st11" d="M456.8,189.6L456.8,189.6c0,0.4-0.3,0.7-0.7,0.7l0,0c-0.4,0-0.7-0.3-0.7-0.7l0,0c0-0.4,0.3-0.7,0.7-0.7l0,0
			C456.5,188.8,456.8,189.1,456.8,189.6z"/>
		<path class="st11" d="M454.5,187.3L454.5,187.3c0,0.4-0.3,0.7-0.7,0.7l0,0c-0.4,0-0.7-0.3-0.7-0.7l0,0c0-0.4,0.3-0.7,0.7-0.7l0,0
			C454.2,186.6,454.5,186.9,454.5,187.3z"/>
		<path class="st11" d="M452.3,185.1L452.3,185.1c0,0.4-0.3,0.7-0.7,0.7l0,0c-0.4,0-0.7-0.3-0.7-0.7l0,0c0-0.4,0.3-0.7,0.7-0.7l0,0
			C451.9,184.3,452.3,184.6,452.3,185.1z"/>
		<path class="st11" d="M450,182.8L450,182.8c0,0.4-0.3,0.7-0.7,0.7l0,0c-0.4,0-0.7-0.3-0.7-0.7l0,0c0-0.4,0.3-0.7,0.7-0.7l0,0
			C449.7,182.1,450,182.4,450,182.8z"/>
		<path class="st11" d="M462.8,191.4L462.8,191.4c0,0.4-0.3,0.7-0.7,0.7l0,0c-0.4,0-0.7-0.3-0.7-0.7l0,0c0-0.4,0.3-0.7,0.7-0.7l0,0
			C462.5,190.7,462.8,191,462.8,191.4z"/>
		<path class="st11" d="M460.6,189.2L460.6,189.2c0,0.4-0.3,0.7-0.7,0.7l0,0c-0.4,0-0.7-0.3-0.7-0.7l0,0c0-0.4,0.3-0.7,0.7-0.7l0,0
			C460.2,188.4,460.6,188.8,460.6,189.2z"/>
		<path class="st11" d="M458.3,186.9L458.3,186.9c0,0.4-0.3,0.7-0.7,0.7l0,0c-0.4,0-0.7-0.3-0.7-0.7l0,0c0-0.4,0.3-0.7,0.7-0.7l0,0
			C458,186.2,458.3,186.5,458.3,186.9z"/>
		<path class="st11" d="M456,184.7L456,184.7c0,0.4-0.3,0.7-0.7,0.7l0,0c-0.4,0-0.7-0.3-0.7-0.7l0,0c0-0.4,0.3-0.7,0.7-0.7l0,0
			C455.7,183.9,456,184.3,456,184.7z"/>
		<path class="st11" d="M453.8,182.4L453.8,182.4c0,0.4-0.3,0.7-0.7,0.7l0,0c-0.4,0-0.7-0.3-0.7-0.7l0,0c0-0.4,0.3-0.7,0.7-0.7l0,0
			C453.4,181.7,453.8,182,453.8,182.4z"/>
		<path class="st11" d="M451.5,180.2L451.5,180.2c0,0.4-0.3,0.7-0.7,0.7l0,0c-0.4,0-0.7-0.3-0.7-0.7l0,0c0-0.4,0.3-0.7,0.7-0.7l0,0
			C451.2,179.4,451.5,179.8,451.5,180.2z"/>
		<path class="st11" d="M463.8,188.3L463.8,188.3c0,0.4-0.3,0.7-0.7,0.7l0,0c-0.4,0-0.7-0.3-0.7-0.7l0,0c0-0.4,0.3-0.7,0.7-0.7l0,0
			C463.5,187.6,463.8,187.9,463.8,188.3z"/>
		<path class="st11" d="M465.5,190.3L465.5,190.3c0,0.4-0.3,0.7-0.7,0.7l0,0c-0.4,0-0.7-0.3-0.7-0.7l0,0c0-0.4,0.3-0.7,0.7-0.7l0,0
			C465.1,189.6,465.5,189.9,465.5,190.3z"/>
		<path class="st11" d="M469.9,185.8L469.9,185.8c0,0.4-0.3,0.7-0.7,0.7l0,0c-0.4,0-0.7-0.3-0.7-0.7l0,0c0-0.4,0.3-0.7,0.7-0.7l0,0
			C469.6,185.1,469.9,185.4,469.9,185.8z"/>
		<path class="st11" d="M461.6,186.1L461.6,186.1c0,0.4-0.3,0.7-0.7,0.7l0,0c-0.4,0-0.7-0.3-0.7-0.7l0,0c0-0.4,0.3-0.7,0.7-0.7l0,0
			C461.2,185.3,461.6,185.7,461.6,186.1z"/>
		<path class="st11" d="M459.3,183.8L459.3,183.8c0,0.4-0.3,0.7-0.7,0.7l0,0c-0.4,0-0.7-0.3-0.7-0.7l0,0c0-0.4,0.3-0.7,0.7-0.7l0,0
			C459,183.1,459.3,183.4,459.3,183.8z"/>
		<path class="st11" d="M457,181.6L457,181.6c0,0.4-0.3,0.7-0.7,0.7l0,0c-0.4,0-0.7-0.3-0.7-0.7l0,0c0-0.4,0.3-0.7,0.7-0.7l0,0
			C456.7,180.8,457,181.2,457,181.6z"/>
		<path class="st11" d="M454.8,179.3L454.8,179.3c0,0.4-0.3,0.7-0.7,0.7l0,0c-0.4,0-0.7-0.3-0.7-0.7l0,0c0-0.4,0.3-0.7,0.7-0.7l0,0
			C454.4,178.6,454.8,178.9,454.8,179.3z"/>
		<path class="st11" d="M452.5,177.1L452.5,177.1c0,0.4-0.3,0.7-0.7,0.7l0,0c-0.4,0-0.7-0.3-0.7-0.7l0,0c0-0.4,0.3-0.7,0.7-0.7l0,0
			C452.2,176.3,452.5,176.7,452.5,177.1z"/>
		<path class="st11" d="M467.2,187.6L467.2,187.6c0,0.4-0.3,0.7-0.7,0.7l0,0c-0.4,0-0.7-0.3-0.7-0.7l0,0c0-0.4,0.3-0.7,0.7-0.7l0,0
			C466.9,186.8,467.2,187.2,467.2,187.6z"/>
		<path class="st11" d="M465,185.3L465,185.3c0,0.4-0.3,0.7-0.7,0.7l0,0c-0.4,0-0.7-0.3-0.7-0.7l0,0c0-0.4,0.3-0.7,0.7-0.7l0,0
			C464.6,184.6,465,184.9,465,185.3z"/>
		<path class="st11" d="M462.7,183.1L462.7,183.1c0,0.4-0.3,0.7-0.7,0.7l0,0c-0.4,0-0.7-0.3-0.7-0.7l0,0c0-0.4,0.3-0.7,0.7-0.7l0,0
			C462.4,182.3,462.7,182.7,462.7,183.1z"/>
		<path class="st11" d="M460.4,180.8L460.4,180.8c0,0.4-0.3,0.7-0.7,0.7l0,0c-0.4,0-0.7-0.3-0.7-0.7l0,0c0-0.4,0.3-0.7,0.7-0.7l0,0
			C460.1,180.1,460.4,180.4,460.4,180.8z"/>
		<path class="st11" d="M458.2,178.6L458.2,178.6c0,0.4-0.3,0.7-0.7,0.7l0,0c-0.4,0-0.7-0.3-0.7-0.7l0,0c0-0.4,0.3-0.7,0.7-0.7l0,0
			C457.8,177.8,458.2,178.2,458.2,178.6z"/>
		<path class="st11" d="M455.9,176.3L455.9,176.3c0,0.4-0.3,0.7-0.7,0.7l0,0c-0.4,0-0.7-0.3-0.7-0.7l0,0c0-0.4,0.3-0.7,0.7-0.7l0,0
			C455.6,175.6,455.9,175.9,455.9,176.3z"/>
		<path class="st11" d="M467.6,184.1L467.6,184.1c0,0.4-0.3,0.7-0.7,0.7l0,0c-0.4,0-0.7-0.3-0.7-0.7l0,0c0-0.4,0.3-0.7,0.7-0.7l0,0
			C467.3,183.3,467.6,183.7,467.6,184.1z"/>
		<path class="st11" d="M465.4,181.8L465.4,181.8c0,0.4-0.3,0.7-0.7,0.7l0,0c-0.4,0-0.7-0.3-0.7-0.7l0,0c0-0.4,0.3-0.7,0.7-0.7l0,0
			C465,181.1,465.4,181.4,465.4,181.8z"/>
		<path class="st11" d="M463.1,179.6L463.1,179.6c0,0.4-0.3,0.7-0.7,0.7l0,0c-0.4,0-0.7-0.3-0.7-0.7l0,0c0-0.4,0.3-0.7,0.7-0.7l0,0
			C462.8,178.8,463.1,179.2,463.1,179.6z"/>
		<path class="st11" d="M460.8,177.3L460.8,177.3c0,0.4-0.3,0.7-0.7,0.7l0,0c-0.4,0-0.7-0.3-0.7-0.7l0,0c0-0.4,0.3-0.7,0.7-0.7l0,0
			C460.5,176.6,460.8,176.9,460.8,177.3z"/>
		<path class="st11" d="M458.6,175.1L458.6,175.1c0,0.4-0.3,0.7-0.7,0.7l0,0c-0.4,0-0.7-0.3-0.7-0.7l0,0c0-0.4,0.3-0.7,0.7-0.7l0,0
			C458.2,174.3,458.6,174.7,458.6,175.1z"/>
		<path class="st11" d="M456.3,172.8L456.3,172.8c0,0.4-0.3,0.7-0.7,0.7l0,0c-0.4,0-0.7-0.3-0.7-0.7l0,0c0-0.4,0.3-0.7,0.7-0.7l0,0
			C456,172.1,456.3,172.4,456.3,172.8z"/>
		<path class="st11" d="M492.3,162.6L492.3,162.6c0,0.4-0.3,0.7-0.7,0.7l0,0c-0.4,0-0.7-0.3-0.7-0.7l0,0c0-0.4,0.3-0.7,0.7-0.7l0,0
			C491.9,161.9,492.3,162.2,492.3,162.6z"/>
		<path class="st11" d="M490,160.4L490,160.4c0,0.4-0.3,0.7-0.7,0.7l0,0c-0.4,0-0.7-0.3-0.7-0.7l0,0c0-0.4,0.3-0.7,0.7-0.7l0,0
			C489.7,159.6,490,160,490,160.4z"/>
		<path class="st11" d="M487.7,158.1L487.7,158.1c0,0.4-0.3,0.7-0.7,0.7l0,0c-0.4,0-0.7-0.3-0.7-0.7l0,0c0-0.4,0.3-0.7,0.7-0.7l0,0
			C487.4,157.4,487.7,157.7,487.7,158.1z"/>
		<path class="st11" d="M485.5,155.9L485.5,155.9c0,0.4-0.3,0.7-0.7,0.7l0,0c-0.4,0-0.7-0.3-0.7-0.7l0,0c0-0.4,0.3-0.7,0.7-0.7l0,0
			C485.1,155.1,485.5,155.5,485.5,155.9z"/>
		<path class="st11" d="M483.2,153.6L483.2,153.6c0,0.4-0.3,0.7-0.7,0.7l0,0c-0.4,0-0.7-0.3-0.7-0.7l0,0c0-0.4,0.3-0.7,0.7-0.7l0,0
			C482.9,152.9,483.2,153.2,483.2,153.6z"/>
		<path class="st11" d="M480.9,151.4L480.9,151.4c0,0.4-0.3,0.7-0.7,0.7l0,0c-0.4,0-0.7-0.3-0.7-0.7l0,0c0-0.4,0.3-0.7,0.7-0.7l0,0
			C480.6,150.6,480.9,151,480.9,151.4z"/>
		<path class="st11" d="M493.4,159.6L493.4,159.6c0,0.4-0.3,0.7-0.7,0.7l0,0c-0.4,0-0.7-0.3-0.7-0.7l0,0c0-0.4,0.3-0.7,0.7-0.7l0,0
			C493.1,158.9,493.4,159.2,493.4,159.6z"/>
		<path class="st11" d="M491.1,157.4L491.1,157.4c0,0.4-0.3,0.7-0.7,0.7l0,0c-0.4,0-0.7-0.3-0.7-0.7l0,0c0-0.4,0.3-0.7,0.7-0.7l0,0
			C490.8,156.6,491.1,157,491.1,157.4z"/>
		<path class="st11" d="M488.9,155.1L488.9,155.1c0,0.4-0.3,0.7-0.7,0.7l0,0c-0.4,0-0.7-0.3-0.7-0.7l0,0c0-0.4,0.3-0.7,0.7-0.7l0,0
			C488.5,154.4,488.9,154.7,488.9,155.1z"/>
		<path class="st11" d="M486.6,152.9L486.6,152.9c0,0.4-0.3,0.7-0.7,0.7l0,0c-0.4,0-0.7-0.3-0.7-0.7l0,0c0-0.4,0.3-0.7,0.7-0.7l0,0
			C486.3,152.2,486.6,152.5,486.6,152.9z"/>
		<path class="st11" d="M484.3,150.7L484.3,150.7c0,0.4-0.3,0.7-0.7,0.7l0,0c-0.4,0-0.7-0.3-0.7-0.7l0,0c0-0.4,0.3-0.7,0.7-0.7l0,0
			C484,149.9,484.3,150.2,484.3,150.7z"/>
		<path class="st11" d="M482.1,148.4L482.1,148.4c0,0.4-0.3,0.7-0.7,0.7l0,0c-0.4,0-0.7-0.3-0.7-0.7l0,0c0-0.4,0.3-0.7,0.7-0.7l0,0
			C481.7,147.7,482.1,148,482.1,148.4z"/>
		<path class="st11" d="M496.2,158.2L496.2,158.2c0,0.4-0.3,0.7-0.7,0.7l0,0c-0.4,0-0.7-0.3-0.7-0.7l0,0c0-0.4,0.3-0.7,0.7-0.7l0,0
			C495.8,157.4,496.2,157.7,496.2,158.2z"/>
		<path class="st11" d="M493.9,155.9L493.9,155.9c0,0.4-0.3,0.7-0.7,0.7l0,0c-0.4,0-0.7-0.3-0.7-0.7l0,0c0-0.4,0.3-0.7,0.7-0.7l0,0
			C493.6,155.2,493.9,155.5,493.9,155.9z"/>
		<path class="st11" d="M491.7,153.7L491.7,153.7c0,0.4-0.3,0.7-0.7,0.7l0,0c-0.4,0-0.7-0.3-0.7-0.7l0,0c0-0.4,0.3-0.7,0.7-0.7l0,0
			C491.3,152.9,491.7,153.2,491.7,153.7z"/>
		<path class="st11" d="M489.4,151.4L489.4,151.4c0,0.4-0.3,0.7-0.7,0.7l0,0c-0.4,0-0.7-0.3-0.7-0.7l0,0c0-0.4,0.3-0.7,0.7-0.7l0,0
			C489.1,150.7,489.4,151,489.4,151.4z"/>
		<path class="st11" d="M487.1,149.2L487.1,149.2c0,0.4-0.3,0.7-0.7,0.7l0,0c-0.4,0-0.7-0.3-0.7-0.7l0,0c0-0.4,0.3-0.7,0.7-0.7l0,0
			C486.8,148.4,487.1,148.7,487.1,149.2z"/>
		<path class="st11" d="M484.9,146.9L484.9,146.9c0,0.4-0.3,0.7-0.7,0.7l0,0c-0.4,0-0.7-0.3-0.7-0.7l0,0c0-0.4,0.3-0.7,0.7-0.7l0,0
			C484.5,146.2,484.9,146.5,484.9,146.9z"/>
		<path class="st11" d="M497.4,154.8L497.4,154.8c0,0.4-0.3,0.7-0.7,0.7l0,0c-0.4,0-0.7-0.3-0.7-0.7l0,0c0-0.4,0.3-0.7,0.7-0.7l0,0
			C497.1,154,497.4,154.4,497.4,154.8z"/>
		<path class="st11" d="M499.3,156.7L499.3,156.7c0,0.4-0.3,0.7-0.7,0.7l0,0c-0.4,0-0.7-0.3-0.7-0.7l0,0c0-0.4,0.3-0.7,0.7-0.7l0,0
			C499,155.9,499.3,156.3,499.3,156.7z"/>
		<path class="st11" d="M495.2,152.5L495.2,152.5c0,0.4-0.3,0.7-0.7,0.7l0,0c-0.4,0-0.7-0.3-0.7-0.7l0,0c0-0.4,0.3-0.7,0.7-0.7l0,0
			C494.8,151.8,495.2,152.1,495.2,152.5z"/>
		<path class="st11" d="M492.9,150.3L492.9,150.3c0,0.4-0.3,0.7-0.7,0.7l0,0c-0.4,0-0.7-0.3-0.7-0.7l0,0c0-0.4,0.3-0.7,0.7-0.7l0,0
			C492.6,149.5,492.9,149.9,492.9,150.3z"/>
		<path class="st11" d="M490.6,148L490.6,148c0,0.4-0.3,0.7-0.7,0.7l0,0c-0.4,0-0.7-0.3-0.7-0.7l0,0c0-0.4,0.3-0.7,0.7-0.7l0,0
			C490.3,147.3,490.6,147.6,490.6,148z"/>
		<path class="st11" d="M488.4,145.8L488.4,145.8c0,0.4-0.3,0.7-0.7,0.7l0,0c-0.4,0-0.7-0.3-0.7-0.7l0,0c0-0.4,0.3-0.7,0.7-0.7l0,0
			C488,145,488.4,145.4,488.4,145.8z"/>
		<path class="st11" d="M486.1,143.5L486.1,143.5c0,0.4-0.3,0.7-0.7,0.7l0,0c-0.4,0-0.7-0.3-0.7-0.7l0,0c0-0.4,0.3-0.7,0.7-0.7l0,0
			C485.8,142.8,486.1,143.1,486.1,143.5z"/>
		<path class="st11" d="M500.8,153.4L500.8,153.4c0,0.4-0.3,0.7-0.7,0.7l0,0c-0.4,0-0.7-0.3-0.7-0.7l0,0c0-0.4,0.3-0.7,0.7-0.7l0,0
			C500.5,152.7,500.8,153,500.8,153.4z"/>
		<path class="st11" d="M498.6,151.2L498.6,151.2c0,0.4-0.3,0.7-0.7,0.7l0,0c-0.4,0-0.7-0.3-0.7-0.7l0,0c0-0.4,0.3-0.7,0.7-0.7l0,0
			C498.2,150.4,498.6,150.7,498.6,151.2z"/>
		<path class="st11" d="M496.3,148.9L496.3,148.9c0,0.4-0.3,0.7-0.7,0.7l0,0c-0.4,0-0.7-0.3-0.7-0.7l0,0c0-0.4,0.3-0.7,0.7-0.7l0,0
			C496,148.2,496.3,148.5,496.3,148.9z"/>
		<path class="st11" d="M494,146.7L494,146.7c0,0.4-0.3,0.7-0.7,0.7l0,0c-0.4,0-0.7-0.3-0.7-0.7l0,0c0-0.4,0.3-0.7,0.7-0.7l0,0
			C493.7,145.9,494,146.2,494,146.7z"/>
		<path class="st11" d="M491.8,144.4L491.8,144.4c0,0.4-0.3,0.7-0.7,0.7l0,0c-0.4,0-0.7-0.3-0.7-0.7l0,0c0-0.4,0.3-0.7,0.7-0.7l0,0
			C491.4,143.7,491.8,144,491.8,144.4z"/>
		<path class="st11" d="M489.5,142.2L489.5,142.2c0,0.4-0.3,0.7-0.7,0.7l0,0c-0.4,0-0.7-0.3-0.7-0.7l0,0c0-0.4,0.3-0.7,0.7-0.7l0,0
			C489.2,141.4,489.5,141.7,489.5,142.2z"/>
		<path class="st1" d="M149.9,374.9c0,0.3,0,0.5,0,0.8c-0.3,16.1-10.2,29.8-24.3,35.7l0,0c-0.2,0.1-0.5,0.2-0.7,0.3
			c-4.5,1.8-9.3,2.7-14.4,2.7c-21.8,0-39.5-17.7-39.5-39.5s17.7-39.5,39.5-39.5c18.4,0,33.9,12.7,38.3,29.8
			C149.5,368.3,149.9,371.5,149.9,374.9z"/>
		<g>
			<path class="st12" d="M133.2,382.5c-0.5,0.6-0.9,1.2-1.4,1.8c-6.8,8.2-15.8,15.8-20.2,18.5c-5.4-3.3-17.9-14.1-24.4-24.2
				c-0.4-0.6-0.7-1.1-1-1.7c-2.1-3.5-3.3-6.9-3.1-9.8c0.7-10.4,9.5-12.7,9.5-12.7c11.3-2.9,19.1,5.7,19.1,5.7s7.8-8.6,19.1-5.7
				c0,0,8.8,2.3,9.5,12.7C140.4,371.5,137.5,377.1,133.2,382.5z"/>
			<path class="st13" d="M133.2,382.5c-0.5,0.6-0.9,1.2-1.4,1.8l-15.4-0.4c-0.3,0-0.4,0-0.5,0c-0.3-0.1-1.3-0.1-2-1.7l-0.6-1.7
				c0,0-0.2-0.5-0.4,0.2c-0.2,0.7-1.9,4.4-1.9,4.4s-0.7,1.6-1.4,0.2l-1.7-11.2c0,0-0.2-0.3-0.2,0.2c0,0.4-1.7,19.5-1.7,19.5
				s-0.6,2.7-1.4,0.3l-1.9-12.7c0,0-0.1-1.1-0.4,0c0,0-1.1,3.7-2.2,2c0,0-1.1-2-1.6-3.7L87,378.6c-0.4-0.6-0.7-1.1-1-1.7l13.7,1.3
				l1.1,2.8l1.8-4.8c0.1-0.1,0.2-0.3,0.3-0.3c0.2,0,0.4,0,0.6,0.4c0,0,0.4,0.6,0.6,2.3c0.2,1.7,1.1,9.6,1.1,9.6l0.7-12.2l0.8-8.1
				c0-0.3,0.1-0.5,0.1-0.7c0.3-0.9,1.1-3,1.9-0.7c0.2,0.5,0.3,0.9,0.3,1.4c0.2,1.6,0.6,6.1,0.9,8.3l0.6,4.8c0,0,1.2-2.7,1.5-3.1
				c0.4-0.4,1.1-1.9,2.4,0.2c0,0,1,1.7,1.6,3.7L133.2,382.5z"/>
		</g>
		<path class="st4" d="M324.9,516.6c0,16.1-10,29.9-24.2,35.5c-1.9,0.7-3.8,1.3-5.9,1.8c-2.6,0.6-5.3,0.9-8.1,0.9
			c-21,0-38.1-17.1-38.1-38.1c0-21,17.1-38.1,38.1-38.1c17.6,0,32.5,12,36.8,28.2C324.4,509.9,324.9,513.2,324.9,516.6z"/>
		<g>
			<g>
				<path class="st1" d="M284.7,489.1c-5.1,0.9-8.9,5.4-8.9,10.8c0,11.1,0,22.1,0,33.2c0,1.4,0.3,2.9,0.5,4.3
					c1.8,4.5,6.9,7.5,11.8,6.8c5.2-0.7,9.1-4.9,9.3-10.1c0.2-4.1,0.1-8.3,0.1-12.4c0-7.3,0-14.5,0-21.8
					C297.5,493,291.6,488,284.7,489.1z"/>
				<g>
					<path class="st12" d="M297.6,500c0-7-6-12-12.8-10.8c-5.1,0.9-8.9,5.4-8.9,10.8c0,5.6,0,11.1,0,16.7h21.8
						C297.6,511.1,297.6,505.5,297.6,500z"/>
				</g>
			</g>
			<g>
				<path class="st14" d="M286.7,489v27.7h10.9c0-0.1,0-0.2,0-0.3c0-1.6,0-3.1,0-4.7c0-0.5,0-1,0-1.5c0-1.2,0-2.5,0-3.7
					c0-0.5,0-1,0-1.5c0-1.7,0-3.3,0-5C297.6,493.6,292.7,489,286.7,489z"/>
			</g>
			<g>
				<path class="st15" d="M286.7,544.3v-27.7h10.9c0,0.1,0,0.2,0,0.3c0,1.6,0,3.1,0,4.7c0,0.5,0,1,0,1.5c0,1.2,0,2.5,0,3.7
					c0,0.5,0,1,0,1.5c0,1.7,0,3.3,0,5C297.6,539.6,292.7,544.3,286.7,544.3z"/>
			</g>
		</g>
		<path class="st1" d="M520,423.6c0,12.3-8,22.8-19.1,26.4c-2.8,0.9-5.7,1.4-8.8,1.4c-15.4,0-27.8-12.5-27.8-27.8
			s12.5-27.8,27.8-27.8c11.4,0,21.1,6.8,25.5,16.6C519.2,415.8,520,419.6,520,423.6z"/>
		<polygon class="st4" points="492.6,397.1 492.2,409.8 492.8,409.8 		"/>
		<path class="st4" d="M493.2,446.1h-2c-0.3,0-0.5-0.2-0.5-0.5l0.1-7.3c0-0.3,0.2-0.5,0.5-0.5h2c0.3,0,0.5,0.2,0.5,0.5l-0.1,7.3
			C493.7,445.8,493.5,446.1,493.2,446.1z"/>
		<polygon class="st4" points="493.7,414.2 491.2,414.1 491.5,409.7 493.4,409.8 		"/>
		
			<rect x="491.4" y="412.2" transform="matrix(7.918898e-03 -1 1 7.918898e-03 74.3753 903.2873)" class="st4" width="2.1" height="3.9"/>
		
			<rect x="480.7" y="423.9" transform="matrix(7.862664e-03 -1 1 7.862664e-03 62.1302 915.3745)" class="st4" width="23.3" height="5"/>
		
			<rect x="481" y="424.9" transform="matrix(7.906797e-03 -1 1 7.906797e-03 61.7862 915.647)" class="st16" width="22.7" height="3.6"/>
		<path class="st4" d="M495.4,438.9H489c-0.2,0-0.4-0.2-0.4-0.4v-1c0-0.2,0.2-0.4,0.4-0.4l6.4,0.1c0.2,0,0.4,0.2,0.4,0.4v1
			C495.8,438.7,495.6,438.9,495.4,438.9z"/>
		<path class="st4" d="M494.9,446.8h-5.5c-0.4,0-0.6-0.4-0.4-0.7l0.5-0.8c0.1-0.1,0.2-0.2,0.4-0.2h4.5c0.2,0,0.3,0.1,0.4,0.2
			l0.5,0.8C495.5,446.4,495.3,446.8,494.9,446.8z"/>
		<path class="st1" d="M491.9,416.8h-1.2c-0.1,0-0.2-0.1-0.2-0.2v-0.1c0-0.1,0.1-0.2,0.2-0.2h1.2c0.1,0,0.2,0.1,0.2,0.2v0.1
			C492.1,416.7,492,416.8,491.9,416.8z"/>
		<path class="st1" d="M491.9,418.2h-1.2c-0.1,0-0.2-0.1-0.2-0.2v-0.1c0-0.1,0.1-0.2,0.2-0.2h1.2c0.1,0,0.2,0.1,0.2,0.2v0.1
			C492.1,418.1,492,418.2,491.9,418.2z"/>
		<path class="st1" d="M491.9,419.6h-1.2c-0.1,0-0.2-0.1-0.2-0.2v-0.1c0-0.1,0.1-0.2,0.2-0.2h1.2c0.1,0,0.2,0.1,0.2,0.2v0.1
			C492.1,419.5,492,419.6,491.9,419.6z"/>
		<path class="st1" d="M491.9,421h-1.2c-0.1,0-0.2-0.1-0.2-0.2v-0.1c0-0.1,0.1-0.2,0.2-0.2h1.2c0.1,0,0.2,0.1,0.2,0.2v0.1
			C492.1,420.9,492,421,491.9,421z"/>
		<path class="st1" d="M491.9,422.4h-1.2c-0.1,0-0.2-0.1-0.2-0.2v-0.1c0-0.1,0.1-0.2,0.2-0.2h1.2c0.1,0,0.2,0.1,0.2,0.2v0.1
			C492.1,422.3,492,422.4,491.9,422.4z"/>
		<path class="st1" d="M491.9,423.7h-1.2c-0.1,0-0.2-0.1-0.2-0.2v-0.1c0-0.1,0.1-0.2,0.2-0.2h1.2c0.1,0,0.2,0.1,0.2,0.2v0.1
			C492.1,423.7,492,423.7,491.9,423.7z"/>
		<path class="st1" d="M491.9,425.1h-1.2c-0.1,0-0.2-0.1-0.2-0.2v-0.1c0-0.1,0.1-0.2,0.2-0.2h1.2c0.1,0,0.2,0.1,0.2,0.2v0.1
			C492.1,425.1,492,425.1,491.9,425.1z"/>
		<path class="st1" d="M491.9,426.5h-1.2c-0.1,0-0.2-0.1-0.2-0.2v-0.1c0-0.1,0.1-0.2,0.2-0.2h1.2c0.1,0,0.2,0.1,0.2,0.2v0.1
			C492.1,426.4,492,426.5,491.9,426.5z"/>
		<path class="st1" d="M491.9,427.9h-1.2c-0.1,0-0.2-0.1-0.2-0.2v-0.1c0-0.1,0.1-0.2,0.2-0.2h1.2c0.1,0,0.2,0.1,0.2,0.2v0.1
			C492.1,427.8,492,427.9,491.9,427.9z"/>
		<path class="st1" d="M491.9,429.3h-1.2c-0.1,0-0.2-0.1-0.2-0.2V429c0-0.1,0.1-0.2,0.2-0.2h1.2c0.1,0,0.2,0.1,0.2,0.2v0.1
			C492.1,429.2,492,429.3,491.9,429.3z"/>
		<path class="st1" d="M491.9,430.7h-1.2c-0.1,0-0.2-0.1-0.2-0.2v-0.1c0-0.1,0.1-0.2,0.2-0.2h1.2c0.1,0,0.2,0.1,0.2,0.2v0.1
			C492.1,430.6,492,430.7,491.9,430.7z"/>
		<path class="st1" d="M491.9,432.1h-1.2c-0.1,0-0.2-0.1-0.2-0.2v-0.1c0-0.1,0.1-0.2,0.2-0.2h1.2c0.1,0,0.2,0.1,0.2,0.2v0.1
			C492.1,432,492,432.1,491.9,432.1z"/>
		<path class="st1" d="M491.9,433.4h-1.2c-0.1,0-0.2-0.1-0.2-0.2l0,0c0-0.1,0.1-0.2,0.2-0.2h1.2c0.1,0,0.2,0.1,0.2,0.2v0.1
			C492.1,433.4,492,433.4,491.9,433.4z"/>
		<path class="st1" d="M491.9,434.8h-1.2c-0.1,0-0.2-0.1-0.2-0.2v-0.1c0-0.1,0.1-0.2,0.2-0.2h1.2c0.1,0,0.2,0.1,0.2,0.2v0.1
			C492.1,434.8,492,434.8,491.9,434.8z"/>
		<path class="st1" d="M491.9,436.2h-1.2c-0.1,0-0.2-0.1-0.2-0.2v-0.1c0-0.1,0.1-0.2,0.2-0.2h1.2c0.1,0,0.2,0.1,0.2,0.2v0.1
			C492.1,436.1,492,436.2,491.9,436.2z"/>
		<g>
			<g>
				<path class="st1" d="M125.9,140.8c-2,0-3.8-0.8-5.5-1.7c-0.8-0.4-1.7-0.8-2.5-1.1c-0.4-0.1-0.9-0.1-1.3,0.1
					c-0.5,0.2-0.6,0.8-0.3,1.1c1.2,1.2,1.4,1.8,0.9,2.9c-0.4,1-1.4,1.4-2.9,1.3c0.3-0.9-0.3-1.9,0.5-2.7c-0.2-0.2-0.8-0.3-1.3-0.4
					h-0.1h-0.1c-0.5,0-1,0.2-1.3,0.4c0.8,0.8,0.2,1.8,0.5,2.7c-1.5,0.1-2.5-0.3-2.9-1.3c-0.5-1.1-0.3-1.7,0.9-2.9
					c0.4-0.4,0.3-1-0.3-1.1c-0.4-0.1-0.9-0.2-1.3-0.1c-0.9,0.3-1.7,0.6-2.5,1.1c-1.7,0.9-3.5,1.7-5.5,1.7c-1.8,0-3.7,0-5.5,0
					c0.1,0.2,0.4,0.4,0.4,0.5c0.8,1,1.5,1.6,2.6,2.4c1.5,1.2,3.2,2.1,5.1,2.3c0.4,0,0.8,0.1,1.1,0.1c1.1-0.1,2.2-0.4,3.3-0.5
					c1.2-0.1,2.4-0.2,3.6-0.2c0.7,0,0.9,0.3,1,1.1c0.1,0.6,0.2,1.2,0.2,1.7c0,0,0,0.1,0,0.2c-0.1-0.2-0.2-0.4-0.4-0.6
					c-1.2-1-2.6-1.2-4.2-1c-2.5,0.3-3.8,2.1-3.2,4.2c0.3,1,1,1.7,1.8,2.2s1.7,1,2.6,1.6c-2.8,2-1.6,4.6,1.1,5.9
					c-1.7,1.8-1.4,2.9,1,4.4c-0.8,1.1-0.7,1.6,0.7,2.6c-0.8,0.7-0.4,1.3,0.2,1.8c-0.2,0.2-0.3,0.4-0.6,0.7c0.5-0.1,0.8-0.3,1.3-0.4
					c0,0.8,0,1.4,0,2c0,0.2,0.4,0.7,0.4,0.7s0.3-0.6,0.4-0.7c0-0.6,0-1.2,0-2c0.5,0.1,0.8,0.3,1.3,0.4c-0.2-0.3-0.4-0.4-0.6-0.7
					c0.6-0.5,1-1.1,0.2-1.8c1.4-1,1.5-1.5,0.7-2.6c2.5-1.5,2.7-2.6,1-4.4c2.7-1.3,3.8-3.9,1.1-5.9c0.9-0.5,1.7-1,2.6-1.6
					c0.9-0.5,1.5-1.2,1.8-2.2c0.6-2.2-0.7-3.9-3.2-4.2c-1.6-0.2-3,0-4.2,1c-0.2,0.1-0.3,0.4-0.4,0.6c0-0.1,0-0.2,0-0.2
					c0-0.6,0.1-1.1,0.2-1.7c0.2-0.8,0.4-1.1,1-1.1c1.2,0,2.4,0.1,3.6,0.2c1.1,0.1,2.2,0.4,3.3,0.5c0.3,0,0.7,0,1.1-0.1
					c2-0.2,3.6-1.2,5.1-2.3c1-0.8,1.7-1.4,2.6-2.4c0.1-0.1,0.3-0.4,0.4-0.5C129.6,140.8,127.8,140.8,125.9,140.8z M107.6,152
					c-0.2-0.2-0.5-0.4-0.7-0.6c-0.7-0.7-0.8-1.5-0.4-2.2c0.5-0.7,1.5-1,2.4-0.7c0.8,0.2,1.6,0.5,2.4,0.5c0.4,0,1.1-0.3,1.4-0.4
					c0,0.7-0.1,2-0.1,2.6c0,0.9,0,1.7,0,2.6C110.8,153.5,109.1,153,107.6,152z M109.6,158.4c-0.7-0.8-0.5-1.6,0.4-2.1
					c0.2-0.1,0.5-0.2,0.8-0.3c0.6-0.1,1.2-0.3,2-0.4c0,1.5,0,2.8,0,4.3C111.6,159.6,110.4,159.3,109.6,158.4z M110.7,163.5
					c-0.7-0.6-0.5-1.3,0.3-1.6c0.5-0.2,1.1-0.3,1.8-0.6c0,1,0,1.8,0,2.7c0,0.2,0,0.4,0,0.8C112.1,164.3,111.3,164,110.7,163.5z
					 M112.9,169.4c-0.4-0.4-0.7-0.6-0.7-0.9c0-0.1,0.4-0.4,0.7-0.7C112.9,168.5,112.9,168.8,112.9,169.4z M112.9,167.2
					c-0.6-0.2-1.4-0.4-1.3-1.1c0-0.3,1-0.8,1.3-1c0,0.2,0,0.3,0,0.4C112.9,166.1,112.9,166.6,112.9,167.2z M114.6,168.5
					c-0.1,0.3-0.4,0.5-0.7,0.9c0-0.6,0-1,0-1.6C114.2,168.2,114.6,168.4,114.6,168.5z M113.8,167.2c0-0.6,0-1.1,0-1.7
					c0-0.1,0-0.2,0-0.4c0.3,0.2,1.3,0.6,1.3,1C115.2,166.9,114.4,167.1,113.8,167.2z M116.1,163.5c-0.5,0.5-1.4,0.8-2.1,1.3
					c0-0.4,0-0.6,0-0.8c0-0.8,0-1.7,0-2.7c0.7,0.2,1.3,0.3,1.8,0.6C116.5,162.2,116.7,162.9,116.1,163.5z M117.2,158.4
					c-0.8,1-2,1.3-3.2,1.5c0-1.5,0-2.8,0-4.3c0.8,0.2,1.4,0.3,2,0.4c0.3,0.1,0.5,0.2,0.8,0.3C117.7,156.8,117.9,157.6,117.2,158.4z
					 M115.5,149.1c0.8,0,1.6-0.3,2.4-0.5c0.8-0.3,1.9,0,2.4,0.7c0.5,0.6,0.3,1.4-0.4,2.2c-0.2,0.2-0.4,0.4-0.7,0.6
					c-1.5,1-3.2,1.5-5,1.9c0-0.9,0-1.8,0-2.6c0-0.6-0.1-1.9-0.1-2.6C114.4,148.8,115.1,149.1,115.5,149.1z"/>
				<circle class="st1" cx="113.4" cy="138.4" r="1.6"/>
			</g>
		</g>
		<path class="st1" d="M137.7,287.5v-24.2c0-2.8-0.2-3-0.2-3s-0.5-1.4-1.9-2.1s-1.5-1.2-1.5-1.2v-1.6H126h-8v1.6
			c0,0-0.1,0.4-1.5,1.2c-1.4,0.7-2,2.1-2,2.1s-0.2,0.2-0.2,3v24.2c0,0-0.4,4.2,3.6,4.3h8.1h8.1C138.1,291.7,137.7,287.5,137.7,287.5
			z"/>
		<path class="st4" d="M117.5,255.5c0,0-0.9-0.1-0.9-0.7h18.9c0,0,0.1,0.6-0.8,0.7H117.5z"/>
		<path class="st1" d="M136.4,254.8h-20.7v-1.9c0-2.4,2-4.4,4.4-4.4H132c2.4,0,4.4,2,4.4,4.4V254.8z"/>
		<rect x="115.1" y="269.1" class="st4" width="21.7" height="11.6"/>
		<g>
			<g>
				<g>
					<rect x="124.3" y="269.8" class="st1" width="3.5" height="10"/>
				</g>
				<g>
					<rect x="121" y="273.1" class="st1" width="10" height="3.5"/>
				</g>
			</g>
		</g>
		<rect x="499.8" y="320.9" class="st4" width="41.2" height="53.6"/>
		<polygon class="st11" points="535.7,367.4 513,367.4 508.7,364.1 505.1,360.4 505.1,327.7 535.7,327.7 		"/>
		<path class="st1" d="M520.4,321.7c-4.5,0-8.2,3.9-8.2,8.6h16.4C528.6,325.6,524.9,321.7,520.4,321.7z M520.4,324.2
			c-0.5,0-1-0.5-1-1s0.4-1,1-1s1,0.5,1,1S520.9,324.2,520.4,324.2z"/>
		<rect x="507" y="334.3" class="st1" width="26.9" height="1.1"/>
		<rect x="507" y="338.4" class="st1" width="26.9" height="1.1"/>
		<rect x="507" y="342.4" class="st1" width="26.9" height="1.1"/>
		<rect x="507" y="346.5" class="st1" width="26.9" height="1.1"/>
		<g>
			<g>
				<g>
					<rect x="524.2" y="355.5" class="st1" width="4.2" height="11.9"/>
				</g>
				<g>
					<rect x="520.4" y="359.3" class="st1" width="11.9" height="4.2"/>
				</g>
			</g>
		</g>
		<path class="st1" d="M532.5,326.8h-24.3c-3.5,0-6.3,3-6.3,6.7V357v2.2h2.1h9.4c0.8,0.1,1,0.3,1.3,1.3v10.1v2.2h2.1h15.6
			c3.5,0,6.4-3,6.4-6.7v-32.7C538.9,329.8,536,326.8,532.5,326.8z M536.8,366.1c0,2.4-1.9,4.4-4.3,4.4h-15.6v-10.3
			c-0.4-1.7-1.1-3-3.3-3.3H504v-23.5c0-2.4,1.8-4.4,4.2-4.4h24.3c2.3,0,4.3,2,4.3,4.4L536.8,366.1L536.8,366.1z"/>
		<path class="st1" d="M513,367c0,0,1.6-7.5-5.5-6.2c0,0-1.7,0.3-5.7-1.6c-0.3-0.1,7.7,10.2,13,13.7
			C514.8,372.8,512.9,370.8,513,367z"/>
		<path class="st17" d="M288.2,411.8c0,0.8-0.6,1.5-1.4,1.5l0,0c-0.8,0-1.5-0.6-1.5-1.4l-0.7-11c0-0.8,0.6-1.5,1.4-1.5l0,0
			c0.8,0,1.5,0.6,1.6,1.4L288.2,411.8z"/>
		<g>
			<path class="st18" d="M417.5,391.8h-1c-0.1-0.6-0.4-1.1-0.7-1.5l0,0l0.7-0.7c0.1-0.2,0.1-0.4,0-0.6l-1.2-1.2
				c-0.2-0.1-0.4-0.1-0.6,0l-0.7,0.7c-0.5-0.3-0.8-0.5-1.6-0.6l0,0l0.1-1c0-0.2-0.2-0.4-0.4-0.4h-1.7c-0.2,0-0.3,0.2-0.3,0.4v1
				c-0.6,0.1-1.1,0.4-1.5,0.7l0,0l-0.7-0.7c-0.2-0.1-0.4-0.1-0.6,0l-1.2,1.2c-0.1,0.2-0.1,0.4,0,0.6l0.7,0.7
				c-0.3,0.5-0.5,0.8-0.6,1.6l0,0h-1c-0.2,0-0.3,0.1-0.3,0.3v1.7c0,0.2,0.1,0.4,0.3,0.4h1c0.1,0.6,0.4,1.1,0.7,1.5l0,0l-0.7,0.7
				c-0.1,0.2-0.1,0.4,0,0.6l1.2,1.2c0.2,0.1,0.4,0.1,0.6,0l0.7-0.7c0.5,0.3,1,0.5,1.6,0.6l0,0v1c0,0.2,0.1,0.4,0.3,0.4h1.7
				c0.2,0,0.4-0.2,0.4-0.4l-0.1-1c0.6-0.1,1-0.4,1.4-0.7l0,0l0.8,0.7c0.2,0.1,0.4,0.1,0.6,0l1.2-1.2c0.1-0.2,0.2-0.4,0-0.6l-0.7-0.7
				c0.3-0.5,0.5-0.8,0.6-1.6l0,0h1c0.2,0,0.4-0.2,0.4-0.4v-1.7C418,391.8,417.7,391.7,417.5,391.8z M410.5,395.4
				C410.5,395.4,410.4,395.3,410.5,395.4c-0.1-0.1-0.2-0.1-0.3-0.1c0,0-0.1,0-0.1-0.1c0,0-0.1,0-0.1-0.1l0,0
				c-0.1-0.1-0.2-0.1-0.3-0.2c-0.1-0.1-0.2-0.2-0.2-0.3l-0.1-0.1c-0.1-0.1-0.1-0.2-0.2-0.4c-0.1-0.3-0.2-0.6-0.2-1
				c0-0.7,0.3-1.4,0.8-1.8l0.1-0.1l0,0c0,0,0.1,0,0.1-0.1c0.1-0.1,0.2-0.1,0.3-0.2c0,0,0.1,0,0.1-0.1c0.3-0.1,0.6-0.2,0.9-0.2
				c0.4,0,0.8,0.1,1.1,0.2c0,0,0.1,0,0.1,0.1c0.1,0,0.1,0.1,0.2,0.1c0,0,0.1,0,0.1,0.1l0,0c0,0,0.1,0,0.1,0.1l0.1,0.1l0.1,0.1
				c0.1,0.1,0.1,0.1,0.2,0.2c0,0,0,0.1,0.1,0.1c0,0,0,0.1,0.1,0.1c0,0.1,0.1,0.1,0.1,0.2c0.2,0.3,0.3,0.7,0.3,1.1
				c0,0.2,0,0.4-0.1,0.6v0.1c0,0.1,0,0.1-0.1,0.2v0.1c0,0,0,0,0,0.1c0,0,0,0.1-0.1,0.1c0,0,0,0.1-0.1,0.1c0,0,0,0.1-0.1,0.1
				c0,0,0,0,0,0.1l0,0c0,0,0,0.1-0.1,0.1l0,0l-0.1,0.1l0,0c-0.1,0.1-0.1,0.1-0.2,0.2l0,0c0,0-0.1,0-0.1,0.1s-0.1,0-0.1,0.1l0,0
				c0,0-0.1,0-0.1,0.1c-0.3,0.2-0.7,0.3-1.1,0.3C411.2,395.6,410.8,395.5,410.5,395.4L410.5,395.4z"/>
			<g>
				<g>
					<path class="st18" d="M222.3,372.7c-4.1,2.4-8.3,4.8-12.4,7.1c-0.5-0.5-0.8-1.1-1-1.7l-1.2,0.7c0.1,0.2,0.1,0.3,0.2,0.5
						c0.1,0.1,0.1,0.3,0.2,0.4c0.3,0.5,0.6,0.9,1,1.3c0.5,0.5,1.1,1,1.7,1.4c0.7,0.4,1.4,0.8,2.2,1.1c0.6,0.2,1.2,0.4,1.8,0.5
						c0.9,0.2,1.9,0.4,2.8,0.5c0.5,0,0.9,0.1,1.4,0.1c0,0,0,0,0.1,0c0,0.1-0.1,0.2-0.1,0.3c-0.4,0.8-0.8,1.7-1.1,2.6
						c-0.1,0.3-0.2,0.6-0.3,0.9s-0.1,0.5-0.2,0.8c-0.2,0.8-0.4,1.7-0.4,2.5c0,0.6-0.1,1.1,0,1.7c0.1,0.8,0.2,1.6,0.5,2.4
						c0.2,0.4,0.3,0.8,0.6,1.2c0.4,0.7,0.9,1.3,1.5,1.8c0.8,0.7,1.7,1.2,2.6,1.5c0.6,0.2,1.2,0.4,1.8,0.6c1,0.2,2,0.4,2.9,0.5
						c0.5,0,1.1,0.1,1.6,0.1h0.1c-0.1,0.1-0.1,0.3-0.2,0.4c-0.4,0.7-0.7,1.4-0.9,2.2c-0.3,0.9-0.5,1.8-0.6,2.8
						c-0.1,0.8-0.1,1.5-0.1,2.3c0,0.7,0.1,1.5,0.2,2.2c0.1,0.5,0.2,1.1,0.4,1.6l1.2-0.7c-0.2-0.6-0.3-1.1-0.3-1.7
						c3.7-2.1,7.3-4.2,11-6.3c0.5,0.3,0.9,0.7,1.3,1.1l1.2-0.7c-0.2-0.3-0.5-0.5-0.7-0.7c-0.8-0.7-1.6-1.3-2.5-1.8
						c-0.8-0.5-1.7-0.9-2.6-1.1c-0.4-0.1-0.8-0.2-1.2-0.3c-1.1-0.3-2.1-0.4-3.2-0.5c-0.1,0-0.2,0-0.4,0l0,0c0.1-0.1,0.1-0.2,0.2-0.3
						c0.5-0.9,0.9-1.7,1.3-2.7c0.2-0.5,0.4-1.1,0.6-1.6c0.1-0.3,0.2-0.6,0.3-0.9c0.2-0.9,0.4-1.8,0.4-2.7c0-0.7-0.1-1.5-0.3-2.2
						c-0.1-0.3-0.2-0.6-0.4-0.9c-0.1-0.2-0.2-0.5-0.4-0.7c-0.2-0.3-0.4-0.6-0.6-0.8c-0.6-0.7-1.2-1.2-2-1.6c-0.7-0.4-1.5-0.8-2.2-1
						c-0.5-0.2-1-0.3-1.5-0.4s-1.1-0.2-1.6-0.3c-0.9-0.1-1.8-0.2-2.7-0.3c-0.2,0-0.4,0-0.6,0h-0.1c0,0,0-0.1,0.1-0.1
						c0.6-1.1,1.1-2.2,1.6-3.3c0.2-0.4,0.3-0.8,0.4-1.2c0.1-0.2,0.2-0.5,0.2-0.7c0.3-1,0.4-2,0.4-3.1c0-0.8-0.1-1.5-0.3-2.2
						c-0.1-0.4-0.2-0.7-0.4-1.1c-0.1-0.2-0.2-0.4-0.3-0.6s-0.3-0.5-0.4-0.6l-1.2,0.7C221.8,371.4,222.1,372,222.3,372.7z M235.4,402
						h0.1c0.4,0.1,0.7,0.3,1.1,0.4c0.5,0.2,1,0.5,1.5,0.8c0,0,0,0,0.1,0c-0.1,0.1-9.9,5.7-10,5.8c0-0.3,0-0.6,0-0.9
						c0-0.6,0.1-1.2,0.2-1.9c0-0.1,0-0.1,0.1-0.2C230.8,404.7,233,403.4,235.4,402C235.3,402.1,235.3,402.1,235.4,402z M234,401.6
						L234,401.6L234,401.6c-1.7,1-3.5,2-5.2,3c0,0,0,0-0.1,0c0.4-1.2,0.9-2.4,1.6-3.4C231.5,401.2,232.7,401.3,234,401.6z
						 M231.5,395.9c-0.2,0.4-0.4,0.8-0.5,1.2c-0.3,0.8-0.7,1.5-1.2,2.2c-0.1,0.2-0.2,0.3-0.3,0.5c-1.5,0-2.9-0.1-4.4-0.4
						C227.3,398.3,229.4,397.1,231.5,395.9L231.5,395.9z M232.4,391.1c0.1,0.8,0,1.5-0.1,2.3c-0.1,0.3-0.1,0.5-0.2,0.8
						c0,0.1,0,0.1-0.1,0.1c-2.8,1.6-5.6,3.2-8.3,4.8c-0.1,0-0.1,0-0.1,0c-0.6-0.2-1.1-0.4-1.6-0.7c-0.4-0.2-0.8-0.4-1.1-0.7
						c0,0,0,0-0.1,0C224.6,395.5,228.5,393.2,232.4,391.1C232.4,391,232.4,391,232.4,391.1z M230.7,387.5c0.7,0.6,1.2,1.4,1.4,2.3
						c-4.1,2.4-8.2,4.7-12.4,7.1c-0.6-0.7-1.1-1.5-1.3-2.4c0.1,0,0.2-0.1,0.2-0.1c4-2.3,7.9-4.6,11.9-6.8
						C230.7,387.5,230.7,387.5,230.7,387.5z M226.7,385.4c0.1,0,0.1-0.1,0.2,0c0.4,0.1,0.7,0.3,1.1,0.4c0.5,0.2,1.1,0.5,1.6,0.8
						c0.1,0,0.1,0.1,0.2,0.1l0,0l0,0l0,0c-3.8,2.2-7.6,4.4-11.5,6.6c0-0.1,0-0.3,0-0.4c0-0.7,0-1.5,0.1-2.2c0-0.2,0.1-0.4,0.1-0.6
						c0-0.1,0-0.1,0.1-0.1l0,0C221.3,388.5,224,387,226.7,385.4z M225.2,385c-2.1,1.2-4.3,2.5-6.4,3.7c0-0.5,1.2-3.3,1.7-4.1
						C222.1,384.5,223.7,384.7,225.2,385z M219.7,383.2c-1.6-0.1-3.2-0.2-4.8-0.6c2.3-1.3,4.6-2.7,6.9-4
						C221.6,379.6,220.3,382.4,219.7,383.2z M222.6,373.9c0.1,0.6,0.1,1.1,0,1.7c0,0.5-0.1,0.9-0.2,1.4c0,0,0,0.1-0.1,0.1
						c0,0,0,0-0.1,0c-2.9,1.7-5.7,3.3-8.6,5c-0.1,0-0.2,0.1-0.2,0c-0.6-0.2-1.2-0.5-1.8-0.9c-0.3-0.2-0.5-0.4-0.8-0.6
						c0,0,0,0-0.1-0.1C214.7,378.4,218.6,376.1,222.6,373.9L222.6,373.9z"/>
				</g>
			</g>
			<g>
				<g>
					<path class="st18" d="M397.4,328.7h-8.8c0,0,0.4,6.8,4.4,8.9c0,0,1.6,0.6,2.1,1.6c0,0,0.7,0.7,1.6,1.1v9.5c0,0-0.6,1.5-3.2,2
						h3.8h3.8c-2.5-0.5-3.2-2-3.2-2v-9.5c0.9-0.4,1.6-1.1,1.6-1.1c0.5-1,2.1-1.6,2.1-1.6c4-2.1,4.4-8.9,4.4-8.9H397.4z"/>
					<path class="st18" d="M400.1,326.4c0,0,1.5-1.7-1.7-3.9c0,0-3-2.1-6.7-1.8c0,0-3.7,0.2-5.7,2c0,0-2.5,1.8-3.1,5
						c0,0-1,5.2,1.7,8.3c0,0,1.9,2.1,4.7,2.7c0,0,1.5,0.2,3.6,0.4c0.8,0,2,0,2.8-0.1c1.3-0.2,2.1-0.2,6.6-0.9
						c1.1-0.2,2.2,0.3,2.7,1.2c0.3,0.5,0.5,1.2,0.3,2.1c0,0-0.1,2.3-4.2,2.6c0,0-1.8-0.1-2.5-0.3c0,0-1.6-0.4-2.9-0.5
						c0,0-2.7-0.1-2.9,2.1c0,0,0,2,1.7,2.8c0,0,1.4,0.9,5.5,0.6c0.1,0,0.2,0,0.3,0c0.6-0.1,2.4-0.5,2.6-1.2l0.1-0.2
						c0,0-0.2-0.1-0.5,0.1c-0.5,0.2-0.9,0.6-3,0.7c0,0-2.8,0.5-5.1-1.2c-0.2-0.1-0.3-0.3-0.4-0.5l0,0c-0.4-0.8,0.1-1.7,1-1.9
						c0.7-0.1,2-0.1,4.2,0.6c0,0,2.6,0.9,5.6-0.7c3.1-1.6,2.1-4.7,2.1-4.8c0,0-0.1-0.3-0.2-0.6c-0.8-1.7-2.7-2.6-4.6-2.3
						c-2.8,0.4-8.9,1.3-10.9,1c0,0-4-0.4-5.3-3.7c-1.4-3.3-0.1-6.6-0.1-6.6s1.1-2.9,4.3-3.8c0,0,3.7-1,6.6,1.8l0.1,0.1
						C397.2,325.7,399,327.4,400.1,326.4z"/>
				</g>
			</g>
			<path class="st1" d="M402,362.5c-8.5-34-55.6-43.3-55.6-43.3l0.2,18.1l-25.3,82.6v5.3c17.3,0.1,35.8-0.7,55-2.9l9.5-1.2
				c1.8-0.2,3.6-0.5,5.4-0.8c13.1-2,21.7-14.8,18.4-27.7L402,362.5z"/>
			<path class="st19" d="M295.2,337l-9.4-17.4c0,0-43,8.9-51.6,42.9l-7.3,28.9c-3.2,12.8,5.3,25.6,18.3,27.7
				c1.8,0.3,3.7,0.6,5.6,0.8l9.1,1.2c17.2,2.2,38.1,3.9,61.2,4v-5.3L295.2,337z"/>
			<path class="st20" d="M357.5,328.5l-15.3-8c-11.5-5.3-9-14.6-9-14.6h-11.8h-0.2h-11.8c0,0,2.5,9.3-9,14.6l-12.4,7.9l33.2-0.5
				L357.5,328.5z"/>
			<path class="st20" d="M280.5,250.5c0.2,5.7-1,10.8-3.9,10.9c-3,0.1-5.1-4.5-5.3-10.2c-0.2-5.7,2.1-10.5,5-10.6
				C279.2,240.4,280.3,244.8,280.5,250.5z"/>
			<path class="st21" d="M357.8,249.3c-0.2,5.7,1,10.8,3.9,10.9c3,0.1,5.1-4.5,5.3-10.2c0.2-5.7-2.1-10.5-5-10.6
				C359,239.3,358,243.6,357.8,249.3z"/>
			<ellipse class="st22" cx="319.8" cy="251.7" rx="40.3" ry="57.3"/>
			<path class="st23" d="M320.1,194.5v114.6c-22.3,0.2-40.7-25-40.7-56.5C279.4,220.3,296.4,195,320.1,194.5z"/>
			<path class="st24" d="M281.5,270.1c0,0-9.2-34.4,10.5-51.6c0,0,14.7,11.9,32.7,7.7c0,0,5.9-1.3,13.1-5.7c0,0,14-5.9,18.6,7.8
				c4.9,14.6,2.4,29.5,2.7,38.3c0,0,6.5-14.8,6.8-37.3c0,0,1.1,4,1.5,8.9c0,0,2.5-17.2-2-27.3c0,0-3.3-10.8-15.8-16.4
				c0,0-7.4-11.8-36.9-9.4c0,0-0.5-2,4.1-3.9c0,0-22.7-1.5-27.9,14c0,0-18.4,4-16.7,36l1.9-6C274.1,225.2,270.5,255.4,281.5,270.1z"
				/>
			<path class="st25" d="M309.6,308.9l29.3,9.6c0,0-7-3.8-5.8-12.4c0,0-11,6.4-23.6,0.4C309.5,306.5,309.7,307.3,309.6,308.9z"/>
			<polygon class="st11" points="344.2,329.6 321.2,422.5 298.1,329.7 321.2,328.5 			"/>
			<polygon class="st26" points="321.1,328.7 304.6,345.5 298.6,321.6 307,319.6 			"/>
			<polygon class="st26" points="321.3,328.7 337.8,345.5 343.8,321.6 335.4,319.6 			"/>
			<g>
				<g>
					<g>
						<path class="st12" d="M325.6,335.3c-0.2,0.3-0.9,0.6-1.6,0.6h-4.9c-0.7,0-1.5-0.2-1.6-0.6l-2.8-5.5c-0.5-1.1,0.2-2.1,1.7-2.1
							h10.3c1.5,0,2.3,1,1.7,2.1L325.6,335.3z"/>
					</g>
					<g>
						<polygon class="st12" points="321.2,422.5 320.1,418.3 312.9,397.4 314.6,373.8 317.4,335.2 325.6,335.2 328.5,375.2 
							329.9,394.7 						"/>
					</g>
				</g>
			</g>
			<polygon class="st11" points="321.2,327.4 341.2,347.8 348.7,319.9 336.4,316.5 			"/>
			<path class="st27" d="M354.2,357.1h-11.4l3.9,6.1l-25.5,59.3l20.7-93.6l2.4-10.2c0,0,9.5,2.3,12.8,3.6L354.2,357.1z"/>
			<polygon class="st11" points="321.2,327.4 301.2,347.8 294,317.9 305.8,316.9 			"/>
			<path class="st27" d="M296,361.3l3.9-6h-11.4l-2.9-35.7c0.4-0.2,0.8-0.4,1.3-0.5c5.8-1.3,11.9-1.6,11.9-1.6l2.1,9.5l20.3,95.5
				L296,361.3z"/>
			<path class="st17" d="M364.3,414.6l6.3-0.1l0,0l0,0c0.4,0,0.7-0.4,0.7-0.8l-0.4-19c0-0.4-0.4-0.7-0.8-0.7s-0.7,0.4-0.7,0.8
				l0.4,18.3l-5.5,0.1c-0.4,0-0.7,0.4-0.7,0.8C363.5,414.3,363.9,414.6,364.3,414.6z"/>
			<path class="st17" d="M341.2,415.1l-6.2,0.1l0,0l0,0c-0.4,0-0.8-0.3-0.8-0.7l-0.4-19c0-0.4,0.3-0.8,0.7-0.8
				c0.4,0,0.8,0.3,0.8,0.7l0.4,18.3l5.5-0.1c0.4,0,0.8,0.3,0.8,0.7C342,414.7,341.6,415.1,341.2,415.1z"/>
			<path class="st28" d="M342.9,416.3l-4.2,0.1h-0.1l-0.1-4.1h0.1l4.2-0.1c1.1,0,2.1,0.9,2.1,2C344.9,415.4,344,416.3,342.9,416.3z"
				/>
			<path class="st24" d="M336.1,396.1V395c-0.2-9,7-16.4,15.9-16.6c9-0.2,16.4,7,16.6,15.9v1.1l3-0.1v-1.1
				c-0.2-10.6-9-19.1-19.7-18.9c-10.6,0.2-19.1,9-18.9,19.7v1.1H336.1z"/>
			<path class="st28" d="M362.9,415.9l4.2-0.1h0.1l-0.1-4.1H367l-4.2,0.1c-1.1,0-2,1-2,2.1C360.8,415,361.8,415.9,362.9,415.9z"/>
			<path class="st24" d="M350.8,328.8c-2.8-8.6-8.8-14.7-17.4-17.4c0.3,1.1,0.7,2,1.4,3.1c5.2,2.4,9.4,6.7,12,11.9
				c1.6,3.3,2.6,6.9,2.6,10.8v1.3l0.8,38.1l2.8-0.1l-0.8-38.1v-1.3C352.1,334.1,351.7,331.4,350.8,328.8z"/>
			
				<ellipse transform="matrix(0.9981 -6.083082e-02 6.083082e-02 0.9981 -24.5905 18.6366)" class="st29" cx="293.8" cy="413.2" rx="6.3" ry="6.3"/>
			<path class="st30" d="M294.1,418.7c-3,0.2-5.6-2.1-5.8-5.2c-0.2-3,2.1-5.7,5.2-5.8c3-0.2,5.7,2.1,5.8,5.2
				C299.5,415.9,297.2,418.5,294.1,418.7z M293.5,408.4c-2.6,0.2-4.6,2.4-4.4,5s2.4,4.6,5,4.4s4.6-2.4,4.4-5
				C298.4,410.3,296.1,408.3,293.5,408.4z"/>
			
				<ellipse transform="matrix(7.453382e-02 -0.9972 0.9972 7.453382e-02 -140.0947 675.3663)" class="st17" cx="293.8" cy="413.2" rx="4.8" ry="4.8"/>
			<path class="st24" d="M290.4,330.7c-0.7,2.5-0.9,5.2-0.9,7.9v1.3l1.9,62.9v0.1c0,0.8,0.7,1.4,1.4,1.4c0.8,0,1.4-0.7,1.4-1.4v-0.1
				l0,0l-1.9-62.9v-1.3c-0.1-3.5,0.5-6.9,1.7-10c2.4-6.1,7.9-11.5,13.9-14.2c0.8-1.3,1.3-2.7,1.4-3.5
				C300.2,313.8,292.7,321.5,290.4,330.7z"/>
		</g>
		<polygon class="st19" points="250.5,388.3 250.4,388.3 249.3,419.4 249.3,419.4 		"/>
	</g>
</g>
<g id="Layer_2">
</g>
</svg>
