<?xml version="1.0" encoding="utf-8"?>
<!-- Generator: Adobe Illustrator 21.0.0, SVG Export Plug-In . SVG Version: 6.00 Build 0)  -->
<svg version="1.1" id="Layer_1" xmlns="http://www.w3.org/2000/svg" xmlns:xlink="http://www.w3.org/1999/xlink" x="0px" y="0px"
	 viewBox="0 0 612 612" style="enable-background:new 0 0 612 612;" xml:space="preserve">
<style type="text/css">
	.st0{fill:#2C5771;}
	.st1{fill:#BFE5F1;}
	.st2{fill:#5EBA4C;}
	.st3{fill:#717D80;}
	.st4{fill:#FFFFFF;}
	.st5{fill:#DFF2F9;}
	.st6{fill:#6392A7;}
	.st7{fill:#474748;}
	.st8{fill:#898989;}
	.st9{fill:#F05A5A;}
	.st10{fill:#5CBB6A;}
	.st11{fill:#9B5524;}
	.st12{fill:#80B0BE;}
	.st13{fill:#7FD3F6;}
	.st14{fill:#2D98D4;}
	.st15{opacity:0.4;fill:#2D98D4;}
	.st16{fill:#21B5E9;}
	.st17{fill:#3488B1;}
	.st18{fill:#AAC2C8;}
	.st19{fill:#BDD8DF;}
	.st20{fill:#E2F3F7;}
	.st21{fill:#9EAFB5;}
	.st22{fill:#88969B;}
	.st23{fill:#FDDF0B;}
	.st24{opacity:0.6;fill:#7FD3F6;}
	.st25{fill:none;stroke:#A4D8EC;stroke-width:7;stroke-linecap:round;stroke-linejoin:round;stroke-miterlimit:10;}
	.st26{fill:#C0D8DF;}
	.st27{fill:#FFDBA2;}
	.st28{fill:#79878C;}
	.st29{fill:#566063;}
	.st30{fill:#6D8A99;}
	.st31{fill:#4E656E;}
	.st32{opacity:0.4;fill:none;stroke:#41C2ED;stroke-miterlimit:10;}
	.st33{fill:none;stroke:#FFFFFF;stroke-width:2;stroke-miterlimit:10;}
	.st34{clip-path:url(#SVGID_2_);}
	.st35{fill:#5E5F5E;}
	.st36{fill:#EAEAEA;}
	.st37{fill:#F6D3B3;}
	.st38{fill:#855F4C;}
	.st39{fill:#CBDBDF;}
	.st40{fill:#7AA7B4;}
	.st41{fill:#CC7C4F;}
	.st42{opacity:0.2;fill:#121111;}
	.st43{fill:none;}
	.st44{fill:#FFE0AC;}
	.st45{opacity:0.2;fill:#753117;}
	.st46{fill:#434A54;}
	.st47{fill:#F4F6F9;}
	.st48{fill:#E9573F;}
	.st49{opacity:0.5;fill:#F0B081;}
	.st50{fill:#F6F0EF;}
	.st51{fill:#52C0E8;}
	.st52{opacity:0.3;fill:#2D2A29;}
	.st53{fill:#E5E8EC;}
	.st54{fill:#F1F2F4;}
	.st55{fill:#BCBDC0;}
	.st56{fill:#3CBA99;}
	.st57{fill:#29987B;}
	.st58{fill:#D7E5EA;}
	.st59{fill:#A1A8A9;}
	.st60{fill:#7C8A8E;}
	.st61{fill:#F5B7A4;}
	.st62{fill:#702151;}
	.st63{fill:#7B7B7A;}
</style>
<g>
	<circle class="st0" cx="306" cy="306" r="306"/>
	<ellipse class="st1" cx="306" cy="306" rx="239.9" ry="240.9"/>
	<ellipse class="st1" cx="306" cy="306" rx="239.9" ry="240.9"/>
	<path class="st2" d="M81.5,391h449c0.6-1.6,1.2-3.2,1.8-4.9H79.7C80.3,387.8,80.9,389.4,81.5,391z"/>
	<path class="st3" d="M84.4,398.4c36.1,87.2,121.7,148.5,221.6,148.5s185.5-61.3,221.6-148.5H84.4z"/>
	<path class="st3" d="M84.4,398.4c36.1,87.2,121.7,148.5,221.6,148.5s185.5-61.3,221.6-148.5H84.4z"/>
	<path class="st4" d="M253.4,179.2c-1.1,0-2.1,0.2-3,0.5c-1.2-4.1-4.9-7-9.3-7c-1.3,0-2.5,0.2-3.6,0.7c-2.3-4.2-6.7-7.1-11.8-7.1
		c-7.3,0-13.3,5.9-13.4,13.3c-4.5,1.1-7.9,5.2-7.9,10.1c0,5.7,4.6,10.4,10.3,10.4h38.7c5.7,0,10.3-4.6,10.3-10.4
		C263.7,183.8,259.1,179.2,253.4,179.2z"/>
	<path class="st5" d="M221.3,197.8c-0.7,0-1.3,0.1-2,0.3c-0.8-2.6-3.2-4.6-6.1-4.6c-0.8,0-1.6,0.2-2.3,0.4c-1.5-2.8-4.4-4.6-7.7-4.6
		c-4.8,0-8.7,3.9-8.7,8.7c-2.9,0.7-5.1,3.4-5.1,6.6c0,3.7,3,6.8,6.7,6.8h25.2c3.7,0,6.7-3,6.7-6.8C228,200.8,225,197.8,221.3,197.8z
		"/>
	<g>
		<path class="st6" d="M441.6,242.7c0,2.5-2,4.5-4.5,4.5h-47.3c-2.5,0-4.5-2-4.5-4.5l0,0c0-2.5,2-4.5,4.5-4.5h47.3
			C439.6,238.1,441.6,240.2,441.6,242.7L441.6,242.7z"/>
		<g>
			<path class="st7" d="M402.1,238.1h26.9c0.8,0,1.4-0.6,1.4-1.4c0-0.8-0.6-1.4-1.4-1.4h-26.9c-1.9,0-5.1-0.4-5.1-3
				c0-0.8-0.6-1.4-1.4-1.4c-0.8,0-1.4,0.6-1.4,1.4C394.2,236.6,398.3,238.1,402.1,238.1z"/>
		</g>
		<polygon class="st7" points="408.9,236.8 411.5,236.8 409,230 406.4,230 		"/>
		<polygon class="st7" points="419.4,236.8 422,236.8 419.5,230 416.9,230 		"/>
		<path class="st7" d="M399.5,208.6c0,0.5,0.4,0.8,0.8,0.8h39.8c0.5,0,0.8-0.4,0.8-0.8l0,0c0-0.5-0.4-0.8-0.8-0.8h-39.8
			C399.9,207.8,399.5,208.2,399.5,208.6L399.5,208.6z"/>
		<path class="st8" d="M419.4,215.2c0,0.5,0.4,0.8,0.8,0.8l0,0c0.5,0,0.8-0.4,0.8-0.8v-7.9c0-0.5-0.4-0.8-0.8-0.8l0,0
			c-0.5,0-0.8,0.4-0.8,0.8V215.2z"/>
		<path class="st7" d="M420.3,210.9"/>
		<path class="st7" d="M417.8,210.9c0.8,0,2.4,0,2.4,0s1.7,0,2.4,0c0.8,0,2.3,1.8,3,3.6h-5.4h-5.4
			C415.6,212.7,417.1,210.9,417.8,210.9z"/>
		<g>
			<g>
				<path class="st9" d="M445.1,214.9h8.3c0.2,0,0.3-0.1,0.4-0.3l4.5-6.7c0.1-0.1,0.1-0.3,0-0.5c-0.1-0.1-0.2-0.2-0.4-0.2h-5.1
					c-0.1,0-0.2,0-0.3,0.1l-7.7,6.7c-0.1,0.1-0.2,0.3-0.1,0.5C444.7,214.8,444.9,214.9,445.1,214.9z"/>
			</g>
			<g>
				<path class="st9" d="M452.6,223.1h3c0.2,0,0.3-0.1,0.4-0.2c0.1-0.1,0.1-0.3,0-0.5l-3.5-6c-0.1-0.1-0.2-0.2-0.4-0.2h-5.5
					c-0.2,0-0.4,0.1-0.4,0.3c-0.1,0.2,0,0.4,0.1,0.5l6,6C452.3,223,452.4,223.1,452.6,223.1z"/>
			</g>
		</g>
		<g>
			<path class="st9" d="M406,231.9h19.5c0.1,0,0.3-0.1,0.3-0.2l8.3-9.2l21.4-5.6c0.1,0,0.3-0.1,0.3-0.3l1-2.7c0.1-0.1,0-0.3-0.1-0.4
				c-0.1-0.1-0.2-0.2-0.4-0.2h-41.9c-11.7,0-18.9,6.7-18.9,11.5C395.6,229.2,399.6,231.9,406,231.9z"/>
		</g>
		<g>
			<path class="st4" d="M398.3,226.2h8.9c0.1,0,0.1,0,0.2,0l6.6-2.7c0.2-0.1,0.3-0.2,0.3-0.4V216c0-0.3-0.2-0.5-0.5-0.5
				c-7.2,0-11.2,2.7-13.2,5c-2.2,2.5-2.7,5-2.7,5.1c0,0.1,0,0.3,0.1,0.4C398,226.2,398.1,226.2,398.3,226.2z"/>
		</g>
		<polygon class="st4" points="419.5,221.2 422.1,221.2 422.1,218.6 424.8,218.6 424.8,221.2 427.4,221.2 427.4,224 424.8,224 
			424.8,226.6 422.1,226.6 422.1,224 419.5,224 		"/>
	</g>
	<g>
		<path class="st10" d="M145.6,352c0,0-7.4,10.5-7.4,19.2c0,8.7,7.4,10,7.4,10s7.4-1.3,7.4-10C153,362.5,145.6,352,145.6,352z"/>
		<path class="st11" d="M146.3,393.8c0,0.4-0.3,0.7-0.7,0.7l0,0c-0.4,0-0.7-0.3-0.7-0.7v-21.9c0-0.4,0.3-0.7,0.7-0.7l0,0
			c0.4,0,0.7,0.3,0.7,0.7V393.8z"/>
	</g>
	<g>
		<path class="st10" d="M124.7,352c0,0-7.4,10.5-7.4,19.2c0,8.7,7.4,10,7.4,10s7.4-1.3,7.4-10C132.1,362.5,124.7,352,124.7,352z"/>
		<path class="st11" d="M125.4,393.8c0,0.4-0.3,0.7-0.7,0.7l0,0c-0.4,0-0.7-0.3-0.7-0.7v-21.9c0-0.4,0.3-0.7,0.7-0.7l0,0
			c0.4,0,0.7,0.3,0.7,0.7V393.8z"/>
	</g>
	<g>
		<path class="st10" d="M487.4,352c0,0-7.4,10.5-7.4,19.2c0,8.7,7.4,10,7.4,10s7.4-1.3,7.4-10C494.8,362.5,487.4,352,487.4,352z"/>
		<path class="st11" d="M488.1,393.8c0,0.4-0.3,0.7-0.7,0.7l0,0c-0.4,0-0.7-0.3-0.7-0.7v-21.9c0-0.4,0.3-0.7,0.7-0.7l0,0
			c0.4,0,0.7,0.3,0.7,0.7V393.8z"/>
	</g>
	<g>
		<path class="st10" d="M466.4,352c0,0-7.4,10.5-7.4,19.2c0,8.7,7.4,10,7.4,10s7.4-1.3,7.4-10C473.8,362.5,466.4,352,466.4,352z"/>
		<path class="st11" d="M467.1,393.8c0,0.4-0.3,0.7-0.7,0.7l0,0c-0.4,0-0.7-0.3-0.7-0.7v-21.9c0-0.4,0.3-0.7,0.7-0.7l0,0
			c0.4,0,0.7,0.3,0.7,0.7V393.8z"/>
	</g>
	<path class="st12" d="M88,406.6H524c2.3-5.1,4.5-10.3,6.5-15.6h-449C83.5,396.3,85.6,401.5,88,406.6z"/>
	<path class="st6" d="M83.5,396.2h445c0.7-1.7,1.4-3.5,2-5.2h-449C82.1,392.8,82.8,394.5,83.5,396.2z"/>
	<rect x="241" y="231.6" class="st13" width="130" height="159.4"/>
	<rect x="235" y="220.4" class="st12" width="142.1" height="11.2"/>
	<rect x="238.2" y="231.6" class="st6" width="135.7" height="4.5"/>
	<rect x="241" y="325.5" class="st14" width="130" height="11.8"/>
	<rect x="241" y="322.7" class="st15" width="130" height="2.9"/>
	<rect x="255.4" y="350.6" class="st6" width="101.3" height="7.3"/>
	<rect x="240.7" y="337.3" class="st15" width="130" height="2.9"/>
	<rect x="270" y="200.7" class="st16" width="72" height="149.9"/>
	<g>
		<circle class="st4" cx="306" cy="199.9" r="14.6"/>
		<circle class="st9" cx="306" cy="199.9" r="12"/>
		<polygon class="st4" points="313.2,197.5 308.5,197.5 308.5,192.8 303.6,192.8 303.6,197.5 298.9,197.5 298.9,202.4 303.6,202.4 
			303.6,207.1 308.5,207.1 308.5,202.4 313.2,202.4 		"/>
	</g>
	<g>
		<path class="st4" d="M277.2,231.6v-11.2h2.3v4.6h2v-4.6h2.3v11.2h-2.3v-5h-2v5H277.2z"/>
		<path class="st4" d="M289.2,231.7c-0.6,0-1.1-0.1-1.5-0.2c-0.4-0.2-0.8-0.4-1-0.7c-0.3-0.3-0.4-0.7-0.6-1.1
			c-0.1-0.4-0.2-1-0.2-1.6v-4.1c0-0.6,0.1-1.1,0.2-1.6c0.1-0.4,0.3-0.8,0.6-1.1c0.3-0.3,0.6-0.6,1-0.7c0.4-0.2,0.9-0.2,1.5-0.2
			c1.2,0,2,0.3,2.5,0.9c0.5,0.6,0.8,1.5,0.8,2.7v4.1c0,1.2-0.3,2.1-0.8,2.7C291.3,231.4,290.4,231.7,289.2,231.7z M288.8,230
			c0.1,0.1,0.3,0.1,0.4,0.1c0.2,0,0.3,0,0.4-0.1c0.1-0.1,0.2-0.1,0.3-0.2c0.1-0.1,0.1-0.2,0.2-0.3c0-0.1,0.1-0.3,0.1-0.4
			c0-0.1,0-0.3,0-0.5v-5.2c0-0.2,0-0.3,0-0.5c0-0.1,0-0.3-0.1-0.4c0-0.1-0.1-0.2-0.2-0.3c-0.1-0.1-0.2-0.2-0.3-0.2
			c-0.1-0.1-0.3-0.1-0.4-0.1c-0.2,0-0.3,0-0.4,0.1c-0.1,0.1-0.2,0.1-0.3,0.2c-0.1,0.1-0.1,0.2-0.2,0.3c0,0.1-0.1,0.3-0.1,0.4
			c0,0.1,0,0.3,0,0.5v5.2c0,0.2,0,0.3,0,0.5c0,0.1,0,0.3,0.1,0.4c0,0.1,0.1,0.3,0.2,0.3C288.6,229.9,288.7,229.9,288.8,230z"/>
		<path class="st4" d="M297.6,231.7c-1,0-1.8-0.3-2.3-0.9c-0.5-0.6-0.8-1.4-0.8-2.6l2-0.4c0,0.7,0.1,1.2,0.3,1.6
			c0.2,0.4,0.4,0.5,0.8,0.5c0.3,0,0.5-0.1,0.6-0.3c0.1-0.2,0.2-0.4,0.2-0.7c0-0.4-0.1-0.8-0.3-1.1c-0.2-0.3-0.5-0.6-0.9-1l-1.2-1
			c-0.3-0.3-0.6-0.5-0.7-0.7c-0.2-0.2-0.3-0.5-0.5-0.9c-0.1-0.4-0.2-0.8-0.2-1.2c0-0.9,0.3-1.6,0.8-2.1c0.5-0.5,1.3-0.7,2.2-0.8
			c0.3,0,0.6,0,0.9,0.1c0.3,0.1,0.5,0.1,0.7,0.3c0.2,0.1,0.4,0.2,0.5,0.4c0.1,0.2,0.3,0.3,0.3,0.5c0.1,0.2,0.2,0.4,0.2,0.6
			c0.1,0.2,0.1,0.4,0.1,0.6c0,0.2,0,0.4,0.1,0.6l-2,0.3c0-0.2,0-0.4,0-0.6c0-0.2,0-0.3-0.1-0.5c0-0.2-0.1-0.3-0.2-0.4
			c-0.1-0.1-0.1-0.2-0.3-0.2c-0.1-0.1-0.2-0.1-0.4-0.1c-0.3,0-0.4,0.1-0.6,0.3c-0.1,0.2-0.2,0.4-0.2,0.7c0,0.2,0,0.4,0.1,0.5
			c0,0.2,0.1,0.3,0.2,0.5c0.1,0.1,0.2,0.3,0.3,0.4c0.1,0.1,0.2,0.2,0.4,0.4l1.2,1c0.3,0.2,0.5,0.4,0.7,0.7c0.2,0.2,0.4,0.5,0.5,0.7
			c0.2,0.3,0.3,0.6,0.4,0.9c0.1,0.3,0.1,0.7,0.1,1c0,0.8-0.3,1.5-0.8,2C299.2,231.5,298.5,231.7,297.6,231.7z"/>
		<path class="st4" d="M302.4,231.6v-11.2h3.5c1.9,0,2.9,1.1,2.9,3.2c0,0.6-0.1,1.1-0.2,1.5c-0.2,0.4-0.4,0.7-0.7,1
			c-0.3,0.2-0.6,0.4-1,0.5c-0.4,0.1-0.8,0.2-1.3,0.2h-1v4.9H302.4z M304.6,225.1h0.7c0.5,0,0.8-0.1,1-0.3c0.2-0.2,0.3-0.6,0.3-1.2
			c0-0.3,0-0.5,0-0.7c0-0.2-0.1-0.3-0.2-0.5c-0.1-0.2-0.2-0.3-0.4-0.3c-0.2-0.1-0.4-0.1-0.7-0.1h-0.7V225.1z"/>
		<path class="st4" d="M310.6,231.6v-11.2h2.3v11.2H310.6z"/>
		<path class="st4" d="M316.3,231.6v-9.5h-1.8v-1.7h5.8v1.7h-1.8v9.5H316.3z"/>
		<path class="st4" d="M321.3,231.6l2.2-11.2h2.5l2.2,11.2h-2.1l-0.4-2.5h-1.8l-0.4,2.5H321.3z M324.1,227.7h1.3l-0.7-4.5
			L324.1,227.7z"/>
		<path class="st4" d="M330,231.6v-11.2h2.3v9.6h2.6v1.6H330z"/>
	</g>
	<rect x="277.2" y="239.8" class="st17" width="57.6" height="110.8"/>
	<g>
		<rect x="263.7" y="357.9" class="st12" width="5.8" height="33.2"/>
		<rect x="342.6" y="357.9" class="st12" width="5.8" height="33.2"/>
	</g>
	<g>
		<rect x="280.5" y="391" class="st18" width="51.1" height="5.2"/>
		<rect x="280.5" y="391" class="st19" width="51.1" height="2.2"/>
		<rect x="262.2" y="396.2" class="st18" width="87.6" height="5.2"/>
		<rect x="241.1" y="401.4" class="st18" width="129.9" height="5.2"/>
		<rect x="262.2" y="396.2" class="st19" width="87.6" height="2.2"/>
		<rect x="241.1" y="401.4" class="st19" width="129.9" height="2.2"/>
	</g>
	<g>
		<g>
			<g>
				<rect x="371.1" y="243.1" class="st12" width="81.8" height="11.2"/>
				<g>
					<rect x="371.1" y="254.3" class="st16" width="73.1" height="136.8"/>
					<g>
						<g>
							<rect x="378.9" y="264.3" class="st17" width="14.2" height="24.7"/>
							<rect x="380.8" y="266.7" class="st4" width="10.3" height="20"/>
							<rect x="379.8" y="275.6" class="st17" width="12.4" height="2"/>
						</g>
						<g>
							<rect x="400.5" y="264.3" class="st17" width="14.2" height="24.7"/>
							<rect x="402.4" y="266.7" class="st4" width="10.3" height="20"/>
							<rect x="401.4" y="275.6" class="st17" width="12.4" height="2"/>
						</g>
						<g>
							<rect x="422.1" y="264.3" class="st17" width="14.2" height="24.7"/>
							<rect x="424.1" y="266.7" class="st4" width="10.3" height="20"/>
							<rect x="423" y="275.6" class="st17" width="12.4" height="2"/>
						</g>
					</g>
					<g>
						<g>
							<rect x="378.9" y="300.8" class="st17" width="14.2" height="24.7"/>
							<rect x="380.8" y="303.2" class="st4" width="10.3" height="20"/>
							<rect x="379.8" y="312.1" class="st17" width="12.4" height="2"/>
						</g>
						<g>
							<rect x="400.5" y="300.8" class="st17" width="14.2" height="24.7"/>
							<rect x="402.4" y="303.2" class="st4" width="10.3" height="20"/>
							<rect x="401.4" y="312.1" class="st17" width="12.4" height="2"/>
						</g>
						<g>
							<rect x="422.1" y="300.8" class="st17" width="14.2" height="24.7"/>
							<rect x="424.1" y="303.2" class="st4" width="10.3" height="20"/>
							<rect x="423" y="312.1" class="st17" width="12.4" height="2"/>
						</g>
					</g>
					<g>
						<g>
							<rect x="378.9" y="337.3" class="st17" width="14.2" height="24.7"/>
							<rect x="380.8" y="339.7" class="st4" width="10.3" height="20"/>
							<rect x="379.8" y="348.6" class="st17" width="12.4" height="2"/>
						</g>
						<g>
							<rect x="400.5" y="337.3" class="st17" width="14.2" height="24.7"/>
							<rect x="402.4" y="339.7" class="st4" width="10.3" height="20"/>
							<rect x="401.4" y="348.6" class="st17" width="12.4" height="2"/>
						</g>
						<g>
							<rect x="422.1" y="337.3" class="st17" width="14.2" height="24.7"/>
							<rect x="424.1" y="339.7" class="st4" width="10.3" height="20"/>
							<rect x="423" y="348.6" class="st17" width="12.4" height="2"/>
						</g>
					</g>
				</g>
				<rect x="371.1" y="254.3" class="st6" width="78" height="4.5"/>
				<rect x="371.1" y="374.4" class="st14" width="73.1" height="16.6"/>
			</g>
			<g>
				<g>
					<polygon class="st20" points="380.8,266.6 391.1,266.6 380.8,275.6 					"/>
					<polygon class="st20" points="402.4,266.6 412.7,266.6 402.4,275.6 					"/>
					<polygon class="st20" points="424.1,266.6 434.4,266.6 424.1,275.6 					"/>
				</g>
				<g>
					<polygon class="st20" points="380.8,277.7 391.1,277.7 380.8,286.6 					"/>
					<polygon class="st20" points="402.4,277.7 412.7,277.7 402.4,286.6 					"/>
					<polygon class="st20" points="424.1,277.7 434.4,277.7 424.1,286.6 					"/>
				</g>
			</g>
			<g>
				<g>
					<polygon class="st20" points="380.8,303.2 391.1,303.2 380.8,312.1 					"/>
					<polygon class="st20" points="402.4,303.2 412.7,303.2 402.4,312.1 					"/>
					<polygon class="st20" points="424.1,303.2 434.4,303.2 424.1,312.1 					"/>
				</g>
				<g>
					<polygon class="st20" points="380.8,314.2 391.1,314.2 380.8,323.2 					"/>
					<polygon class="st20" points="402.4,314.2 412.7,314.2 402.4,323.2 					"/>
					<polygon class="st20" points="424.1,314.2 434.4,314.2 424.1,323.2 					"/>
				</g>
			</g>
			<g>
				<g>
					<polygon class="st20" points="380.8,339.7 391.1,339.7 380.8,348.6 					"/>
					<polygon class="st20" points="402.4,339.7 412.7,339.7 402.4,348.6 					"/>
					<polygon class="st20" points="424.1,339.7 434.4,339.7 424.1,348.6 					"/>
				</g>
				<g>
					<polygon class="st20" points="380.8,350.7 391.1,350.7 380.8,359.7 					"/>
					<polygon class="st20" points="402.4,350.7 412.7,350.7 402.4,359.7 					"/>
					<polygon class="st20" points="424.1,350.7 434.4,350.7 424.1,359.7 					"/>
				</g>
			</g>
		</g>
		<g>
			<g>
				<rect x="159.2" y="243.1" class="st12" width="81.8" height="11.2"/>
				<g>
					<rect x="167.9" y="254.2" class="st16" width="73.1" height="136.8"/>
					<g>
						<g>
							<rect x="175.7" y="264.3" class="st17" width="14.2" height="24.7"/>
							<rect x="177.7" y="266.6" class="st4" width="10.3" height="20"/>
							<rect x="176.6" y="275.6" class="st17" width="12.4" height="2"/>
						</g>
						<g>
							<rect x="197.4" y="264.3" class="st17" width="14.2" height="24.7"/>
							<rect x="199.3" y="266.6" class="st4" width="10.3" height="20"/>
							<rect x="198.3" y="275.6" class="st17" width="12.4" height="2"/>
						</g>
						<g>
							<rect x="219" y="264.3" class="st17" width="14.2" height="24.7"/>
							<rect x="220.9" y="266.6" class="st4" width="10.3" height="20"/>
							<rect x="219.9" y="275.6" class="st17" width="12.4" height="2"/>
						</g>
					</g>
					<g>
						<g>
							<rect x="175.7" y="300.8" class="st17" width="14.2" height="24.7"/>
							<rect x="177.7" y="303.1" class="st4" width="10.3" height="20"/>
							<rect x="176.6" y="312.1" class="st17" width="12.4" height="2"/>
						</g>
						<g>
							<rect x="197.4" y="300.8" class="st17" width="14.2" height="24.7"/>
							<rect x="199.3" y="303.1" class="st4" width="10.3" height="20"/>
							<rect x="198.3" y="312.1" class="st17" width="12.4" height="2"/>
						</g>
						<g>
							<rect x="219" y="300.8" class="st17" width="14.2" height="24.7"/>
							<rect x="220.9" y="303.1" class="st4" width="10.3" height="20"/>
							<rect x="219.9" y="312.1" class="st17" width="12.4" height="2"/>
						</g>
					</g>
					<g>
						<g>
							<rect x="175.7" y="337.3" class="st17" width="14.2" height="24.7"/>
							<rect x="177.7" y="339.6" class="st4" width="10.3" height="20"/>
							<rect x="176.6" y="348.6" class="st17" width="12.4" height="2"/>
						</g>
						<g>
							<rect x="197.4" y="337.3" class="st17" width="14.2" height="24.7"/>
							<rect x="199.3" y="339.6" class="st4" width="10.3" height="20"/>
							<rect x="198.3" y="348.6" class="st17" width="12.4" height="2"/>
						</g>
						<g>
							<rect x="219" y="337.3" class="st17" width="14.2" height="24.7"/>
							<rect x="220.9" y="339.6" class="st4" width="10.3" height="20"/>
							<rect x="219.9" y="348.6" class="st17" width="12.4" height="2"/>
						</g>
					</g>
				</g>
				<rect x="167.9" y="374.4" class="st14" width="73.1" height="16.6"/>
				<rect x="163" y="254.2" class="st6" width="78" height="4.5"/>
			</g>
			<g>
				<g>
					<polygon class="st20" points="177.7,266.6 188,266.6 177.7,275.6 					"/>
					<polygon class="st20" points="199.3,266.6 209.6,266.6 199.3,275.6 					"/>
					<polygon class="st20" points="220.9,266.6 231.2,266.6 220.9,275.6 					"/>
				</g>
				<g>
					<polygon class="st20" points="177.7,277.7 188,277.7 177.7,286.6 					"/>
					<polygon class="st20" points="199.3,277.7 209.6,277.7 199.3,286.6 					"/>
					<polygon class="st20" points="220.9,277.7 231.2,277.7 220.9,286.6 					"/>
				</g>
			</g>
			<g>
				<g>
					<polygon class="st20" points="177.7,303.1 188,303.1 177.7,312.1 					"/>
					<polygon class="st20" points="199.3,303.1 209.6,303.1 199.3,312.1 					"/>
					<polygon class="st20" points="220.9,303.1 231.2,303.1 220.9,312.1 					"/>
				</g>
				<g>
					<polygon class="st20" points="177.7,314.2 188,314.2 177.7,323.1 					"/>
					<polygon class="st20" points="199.3,314.2 209.6,314.2 199.3,323.1 					"/>
					<polygon class="st20" points="220.9,314.2 231.2,314.2 220.9,323.1 					"/>
				</g>
			</g>
			<g>
				<g>
					<polygon class="st20" points="177.7,339.6 188,339.6 177.7,348.6 					"/>
					<polygon class="st20" points="199.3,339.6 209.6,339.6 199.3,348.6 					"/>
					<polygon class="st20" points="220.9,339.6 231.2,339.6 220.9,348.6 					"/>
				</g>
				<g>
					<polygon class="st20" points="177.7,350.7 188,350.7 177.7,359.6 					"/>
					<polygon class="st20" points="199.3,350.7 209.6,350.7 199.3,359.6 					"/>
					<polygon class="st20" points="220.9,350.7 231.2,350.7 220.9,359.6 					"/>
				</g>
			</g>
		</g>
	</g>
	<g>
		<rect x="289.3" y="357.6" class="st17" width="33.5" height="33.4"/>
		<rect x="292" y="360.2" class="st4" width="28.1" height="30.8"/>
		<rect x="305" y="359.4" class="st17" width="2.2" height="31.6"/>
		<polygon class="st20" points="304.9,360.2 292,391 292,360.2 		"/>
		<polygon class="st20" points="320.1,360.2 307.1,391 307.1,360.2 		"/>
	</g>
	<g>
		<g>
			<g>
				<rect x="281.4" y="245.1" class="st4" width="9.2" height="9.2"/>
				<polygon class="st20" points="281.4,254.2 281.4,245.1 290.6,245.1 				"/>
			</g>
			<g>
				<rect x="294.8" y="245.1" class="st4" width="9.2" height="9.2"/>
				<polygon class="st20" points="294.8,254.2 294.8,245.1 303.9,245.1 				"/>
			</g>
			<g>
				<rect x="308.1" y="245.1" class="st4" width="9.2" height="9.2"/>
				<polygon class="st20" points="308.1,254.2 308.1,245.1 317.3,245.1 				"/>
			</g>
			<g>
				<rect x="321.5" y="245.1" class="st4" width="9.2" height="9.2"/>
				<polygon class="st20" points="321.5,254.2 321.5,245.1 330.6,245.1 				"/>
			</g>
		</g>
		<g>
			<g>
				<rect x="281.4" y="258.1" class="st4" width="9.2" height="9.2"/>
				<polygon class="st20" points="281.4,267.2 281.4,258.1 290.6,258.1 				"/>
			</g>
			<g>
				<rect x="294.8" y="258.1" class="st4" width="9.2" height="9.2"/>
				<polygon class="st20" points="294.8,267.2 294.8,258.1 303.9,258.1 				"/>
			</g>
			<g>
				<rect x="308.1" y="258.1" class="st4" width="9.2" height="9.2"/>
				<polygon class="st20" points="308.1,267.2 308.1,258.1 317.3,258.1 				"/>
			</g>
			<g>
				<rect x="321.5" y="258.1" class="st4" width="9.2" height="9.2"/>
				<polygon class="st20" points="321.5,267.2 321.5,258.1 330.6,258.1 				"/>
			</g>
		</g>
		<g>
			<g>
				<rect x="281.4" y="271.1" class="st4" width="9.2" height="9.2"/>
				<polygon class="st20" points="281.4,280.2 281.4,271.1 290.6,271.1 				"/>
			</g>
			<g>
				<rect x="294.8" y="271.1" class="st4" width="9.2" height="9.2"/>
				<polygon class="st20" points="294.8,280.2 294.8,271.1 303.9,271.1 				"/>
			</g>
			<g>
				<rect x="308.1" y="271.1" class="st4" width="9.2" height="9.2"/>
				<polygon class="st20" points="308.1,280.2 308.1,271.1 317.3,271.1 				"/>
			</g>
			<g>
				<rect x="321.5" y="271.1" class="st4" width="9.2" height="9.2"/>
				<polygon class="st20" points="321.5,280.2 321.5,271.1 330.6,271.1 				"/>
			</g>
		</g>
		<g>
			<g>
				<rect x="281.4" y="284.1" class="st4" width="9.2" height="9.2"/>
				<polygon class="st20" points="281.4,293.3 281.4,284.1 290.6,284.1 				"/>
			</g>
			<g>
				<rect x="294.8" y="284.1" class="st4" width="9.2" height="9.2"/>
				<polygon class="st20" points="294.8,293.3 294.8,284.1 303.9,284.1 				"/>
			</g>
			<g>
				<rect x="308.1" y="284.1" class="st4" width="9.2" height="9.2"/>
				<polygon class="st20" points="308.1,293.3 308.1,284.1 317.3,284.1 				"/>
			</g>
			<g>
				<rect x="321.5" y="284.1" class="st4" width="9.2" height="9.2"/>
				<polygon class="st20" points="321.5,293.3 321.5,284.1 330.6,284.1 				"/>
			</g>
		</g>
		<g>
			<g>
				<rect x="281.4" y="297.1" class="st4" width="9.2" height="9.2"/>
				<polygon class="st20" points="281.4,306.3 281.4,297.1 290.6,297.1 				"/>
			</g>
			<g>
				<rect x="294.8" y="297.1" class="st4" width="9.2" height="9.2"/>
				<polygon class="st20" points="294.8,306.3 294.8,297.1 303.9,297.1 				"/>
			</g>
			<g>
				<rect x="308.1" y="297.1" class="st4" width="9.2" height="9.2"/>
				<polygon class="st20" points="308.1,306.3 308.1,297.1 317.3,297.1 				"/>
			</g>
			<g>
				<rect x="321.5" y="297.1" class="st4" width="9.2" height="9.2"/>
				<polygon class="st20" points="321.5,306.3 321.5,297.1 330.6,297.1 				"/>
			</g>
		</g>
		<g>
			<g>
				<rect x="281.4" y="310.1" class="st4" width="9.2" height="9.2"/>
				<polygon class="st20" points="281.4,319.3 281.4,310.1 290.6,310.1 				"/>
			</g>
			<g>
				<rect x="294.8" y="310.1" class="st4" width="9.2" height="9.2"/>
				<polygon class="st20" points="294.8,319.3 294.8,310.1 303.9,310.1 				"/>
			</g>
			<g>
				<rect x="308.1" y="310.1" class="st4" width="9.2" height="9.2"/>
				<polygon class="st20" points="308.1,319.3 308.1,310.1 317.3,310.1 				"/>
			</g>
			<g>
				<rect x="321.5" y="310.1" class="st4" width="9.2" height="9.2"/>
				<polygon class="st20" points="321.5,319.3 321.5,310.1 330.6,310.1 				"/>
			</g>
		</g>
		<g>
			<g>
				<rect x="281.4" y="323.1" class="st4" width="9.2" height="9.2"/>
				<polygon class="st20" points="281.4,332.3 281.4,323.1 290.6,323.1 				"/>
			</g>
			<g>
				<rect x="294.8" y="323.1" class="st4" width="9.2" height="9.2"/>
				<polygon class="st20" points="294.8,332.3 294.8,323.1 303.9,323.1 				"/>
			</g>
			<g>
				<rect x="308.1" y="323.1" class="st4" width="9.2" height="9.2"/>
				<polygon class="st20" points="308.1,332.3 308.1,323.1 317.3,323.1 				"/>
			</g>
			<g>
				<rect x="321.5" y="323.1" class="st4" width="9.2" height="9.2"/>
				<polygon class="st20" points="321.5,332.3 321.5,323.1 330.6,323.1 				"/>
			</g>
		</g>
		<g>
			<g>
				<rect x="281.4" y="336.1" class="st4" width="9.2" height="9.2"/>
				<polygon class="st20" points="281.4,345.3 281.4,336.1 290.6,336.1 				"/>
			</g>
			<g>
				<rect x="294.8" y="336.1" class="st4" width="9.2" height="9.2"/>
				<polygon class="st20" points="294.8,345.3 294.8,336.1 303.9,336.1 				"/>
			</g>
			<g>
				<rect x="308.1" y="336.1" class="st4" width="9.2" height="9.2"/>
				<polygon class="st20" points="308.1,345.3 308.1,336.1 317.3,336.1 				"/>
			</g>
			<g>
				<rect x="321.5" y="336.1" class="st4" width="9.2" height="9.2"/>
				<polygon class="st20" points="321.5,345.3 321.5,336.1 330.6,336.1 				"/>
			</g>
		</g>
	</g>
	<path class="st21" d="M511.8,429.9c4.5-7.5,8.6-15.3,12.3-23.3H88c3.7,8,7.8,15.8,12.3,23.3H511.8z"/>
	<path class="st22" d="M520.9,413.1c1.1-2.2,2.1-4.3,3.1-6.5H88c1,2.2,2.1,4.4,3.1,6.5H520.9z"/>
	<path class="st22" d="M511.8,429.9H100.2c1.5,2.5,3.1,5,4.7,7.5h402.2C508.7,434.9,510.3,432.4,511.8,429.9z"/>
	<path class="st23" d="M459.9,490.8c1.9-1.6,3.7-3.2,5.5-4.8H146.6c1.8,1.6,3.7,3.2,5.5,4.8H459.9z"/>
	<g>
		<path class="st4" d="M204.6,458.7c0,1.1-0.9,2.1-2.1,2.1h-56.6c-1.1,0-2.1-0.9-2.1-2.1l0,0c0-1.1,0.9-2.1,2.1-2.1h56.6
			C203.6,456.6,204.6,457.5,204.6,458.7L204.6,458.7z"/>
		<path class="st4" d="M292.4,458.7c0,1.1-0.9,2.1-2.1,2.1h-56.6c-1.1,0-2.1-0.9-2.1-2.1l0,0c0-1.1,0.9-2.1,2.1-2.1h56.6
			C291.5,456.6,292.4,457.5,292.4,458.7L292.4,458.7z"/>
		<path class="st4" d="M380.3,458.7c0,1.1-0.9,2.1-2.1,2.1h-56.6c-1.1,0-2.1-0.9-2.1-2.1l0,0c0-1.1,0.9-2.1,2.1-2.1h56.6
			C379.4,456.6,380.3,457.5,380.3,458.7L380.3,458.7z"/>
		<path class="st4" d="M468.2,458.7c0,1.1-0.9,2.1-2.1,2.1h-56.6c-1.1,0-2.1-0.9-2.1-2.1l0,0c0-1.1,0.9-2.1,2.1-2.1h56.6
			C467.3,456.6,468.2,457.5,468.2,458.7L468.2,458.7z"/>
	</g>
	<g>
		<path class="st4" d="M409.5,516.1c-1.1,0-2.1,0.9-2.1,2.1c0,1.1,0.9,2.1,2.1,2.1h6.3c2.6-1.3,5.1-2.7,7.7-4.1H409.5z"/>
		<path class="st4" d="M378.2,520.2c1.1,0,2.1-0.9,2.1-2.1c0-1.1-0.9-2.1-2.1-2.1h-56.6c-1.1,0-2.1,0.9-2.1,2.1
			c0,1.1,0.9,2.1,2.1,2.1H378.2z"/>
		<path class="st4" d="M204.6,518.1c0-1.1-0.9-2.1-2.1-2.1h-13.9c2.5,1.4,5.1,2.8,7.7,4.1h6.3C203.6,520.2,204.6,519.3,204.6,518.1z
			"/>
		<path class="st4" d="M290.4,516.1h-56.6c-1.1,0-2.1,0.9-2.1,2.1c0,1.1,0.9,2.1,2.1,2.1h56.6c1.1,0,2.1-0.9,2.1-2.1
			C292.4,517,291.5,516.1,290.4,516.1z"/>
	</g>
	<g>
		<rect x="107.8" y="411.3" class="st22" width="1.7" height="20.5"/>
		<rect x="140.7" y="411.3" class="st22" width="1.7" height="20.5"/>
		<rect x="173.6" y="411.3" class="st22" width="1.7" height="20.5"/>
		<rect x="206.5" y="411.3" class="st22" width="1.7" height="20.5"/>
		<rect x="239.4" y="411.3" class="st22" width="1.7" height="20.5"/>
		<rect x="272.3" y="411.3" class="st22" width="1.7" height="20.5"/>
		<rect x="305.2" y="411.3" class="st22" width="1.7" height="20.5"/>
		<rect x="338.1" y="411.3" class="st22" width="1.7" height="20.5"/>
		<rect x="371" y="411.3" class="st22" width="1.7" height="20.5"/>
		<rect x="403.9" y="411.3" class="st22" width="1.7" height="20.5"/>
		<rect x="436.7" y="411.3" class="st22" width="1.7" height="20.5"/>
		<rect x="469.6" y="411.3" class="st22" width="1.7" height="20.5"/>
		<rect x="502.5" y="411.3" class="st22" width="1.7" height="20.5"/>
	</g>
	<rect x="167.6" y="374.4" class="st24" width="73.9" height="4.9"/>
	<rect x="371.1" y="374.4" class="st24" width="73.9" height="4.9"/>
	<path class="st4" d="M350.5,163.2c0.9,0,1.7,0.1,2.5,0.4c1-3.3,4-5.7,7.6-5.7c1,0,2,0.2,2.9,0.6c1.8-3.5,5.5-5.8,9.7-5.8
		c6,0,10.9,4.9,11,10.9c3.7,0.9,6.4,4.2,6.4,8.2c0,4.7-3.8,8.5-8.4,8.5h-31.6c-4.7,0-8.4-3.8-8.4-8.5
		C342.1,167,345.9,163.2,350.5,163.2z"/>
	<circle class="st16" cx="141.6" cy="470.4" r="52.5"/>
	<circle class="st25" cx="141.6" cy="470.4" r="52.5"/>
	<g>
		<g>
			<circle class="st4" cx="115.2" cy="470.4" r="9.4"/>
			<path class="st26" d="M114,479.7c0.4,0.1,0.8,0.1,1.2,0.1c0.4,0,0.8,0,1.2-0.1V461c-0.4-0.1-0.8-0.1-1.2-0.1
				c-0.4,0-0.8,0-1.2,0.1V479.7z"/>
		</g>
		<g>
			<path class="st27" d="M161.5,471v8.3c0,3.9,3.1,7,7,7c3.9,0,7-3.1,7-7V471H161.5z"/>
			<path class="st9" d="M175.5,471v-9.5c0-3.9-3.1-7-7-7c-3.9,0-7,3.1-7,7v9.5H175.5z"/>
			<path class="st4" d="M172.8,480.4c0,0.9-0.7,1.7-1.7,1.7l0,0c-0.9,0-1.7-0.7-1.7-1.7v-18.8c0-0.9,0.7-1.7,1.7-1.7l0,0
				c0.9,0,1.7,0.7,1.7,1.7V480.4z"/>
		</g>
		<g>
			<polygon class="st26" points="142.5,453.5 140.8,453.5 140.8,438.8 142.5,435.3 			"/>
			<rect x="139" y="448.3" class="st4" width="5.3" height="5.2"/>
			<rect x="135" y="488.9" class="st28" width="13.4" height="14.9"/>
			<path class="st29" d="M156.6,503.7c0,1-0.8,1.7-1.7,1.7h-26.2c-1,0-1.7-0.8-1.7-1.7l0,0c0-1,0.8-1.7,1.7-1.7h26.2
				C155.8,502,156.6,502.8,156.6,503.7L156.6,503.7z"/>
			<path class="st26" d="M156.6,488.9c0,1-0.8,1.7-1.7,1.7h-26.2c-1,0-1.7-0.8-1.7-1.7l0,0c0-1,0.8-1.7,1.7-1.7h26.2
				C155.8,487.1,156.6,487.9,156.6,488.9L156.6,488.9z"/>
			<polygon class="st26" points="145.1,450.9 141.7,450.9 138.2,450.9 132,460.8 132,460.8 151.3,460.8 151.3,460.8 			"/>
			<polygon class="st4" points="132,460.8 132,487.1 141.7,487.1 151.3,487.1 151.3,460.8 			"/>
			<path class="st26" d="M151.3,465.1h-8.1c-0.4,0-0.7,0.3-0.7,0.7c0,0.4,0.3,0.7,0.7,0.7h8.1V465.1z"/>
			<path class="st26" d="M151.3,469h-4.4c-0.4,0-0.7,0.3-0.7,0.7c0,0.4,0.3,0.7,0.7,0.7h4.4V469z"/>
			<path class="st26" d="M151.3,472.9h-8.1c-0.4,0-0.7,0.3-0.7,0.7s0.3,0.7,0.7,0.7h8.1V472.9z"/>
			<path class="st26" d="M151.3,476.8h-4.4c-0.4,0-0.7,0.3-0.7,0.7c0,0.4,0.3,0.7,0.7,0.7h4.4V476.8z"/>
			<path class="st26" d="M151.3,480.7h-8.1c-0.4,0-0.7,0.3-0.7,0.7c0,0.4,0.3,0.7,0.7,0.7h8.1V480.7z"/>
		</g>
	</g>
	<circle class="st4" cx="141.6" cy="141.6" r="52.5"/>
	<circle class="st25" cx="141.6" cy="141.6" r="52.5"/>
	<g>
		<rect x="129.7" y="159.5" class="st30" width="23.9" height="11.1"/>
		<path class="st31" d="M161.9,171c0,0.8-0.7,1.5-1.5,1.5h-37.4c-0.8,0-1.5-0.7-1.5-1.5l0,0c0-0.8,0.7-1.5,1.5-1.5h37.4
			C161.2,169.5,161.9,170.1,161.9,171L161.9,171z"/>
		<path class="st31" d="M171.5,157.1c0,3.2-2.6,5.7-5.7,5.7h-48.2c-3.2,0-5.7-2.6-5.7-5.7v-36.8c0-3.2,2.6-5.7,5.7-5.7h48.2
			c3.2,0,5.7,2.6,5.7,5.7V157.1z"/>
		<rect x="116.1" y="119.5" class="st1" width="51.1" height="38.4"/>
		<g>
			<line class="st32" x1="116.1" y1="124.4" x2="167.2" y2="124.4"/>
			<line class="st32" x1="116.1" y1="130.1" x2="167.2" y2="130.1"/>
			<line class="st32" x1="116.1" y1="135.8" x2="167.2" y2="135.8"/>
			<line class="st32" x1="116.1" y1="141.6" x2="167.2" y2="141.6"/>
			<line class="st32" x1="116.1" y1="147.3" x2="167.2" y2="147.3"/>
			<line class="st32" x1="116.1" y1="153" x2="167.2" y2="153"/>
		</g>
		<path class="st9" d="M141.6,129.4c-5.7-6.4-15.7-1.9-14.7,7c1.1,9,14.7,16.3,14.7,16.3s13.6-7.4,14.7-16.3
			C157.4,127.5,147.3,123,141.6,129.4z"/>
		<polyline class="st33" points="116.1,144.5 123.5,144.5 124.7,137.9 128.7,149.4 134.3,136.3 137.2,146 140.4,138.7 144,147.3 
			147.6,133.8 150.6,142.7 152.7,137.7 156.4,144.5 167.2,144.5 		"/>
	</g>
	<circle class="st16" cx="538.5" cy="306" r="52.5"/>
	<circle class="st25" cx="538.5" cy="306" r="52.5"/>
	<circle class="st16" cx="73.5" cy="306" r="52.5"/>
	<circle class="st25" cx="73.5" cy="306" r="52.5"/>
	<circle class="st16" cx="306" cy="538.5" r="52.5"/>
	<circle class="st25" cx="306" cy="538.5" r="52.5"/>
	<g>
		<circle class="st16" cx="470.4" cy="141.6" r="52.5"/>
		<circle class="st25" cx="470.4" cy="141.6" r="52.5"/>
	</g>
	<circle class="st16" cx="306" cy="73.5" r="52.5"/>
	<g>
		<defs>
			<circle id="SVGID_1_" cx="306" cy="73.5" r="52.5"/>
		</defs>
		<clipPath id="SVGID_2_">
			<use xlink:href="#SVGID_1_"  style="overflow:visible;"/>
		</clipPath>
		<g class="st34">
			<polygon class="st4" points="338.1,95.1 316.7,85.8 306,85.8 295.3,85.8 273.9,95.1 269.3,125.8 306,125.8 342.7,125.8 			"/>
			<polygon class="st35" points="307.5,89.5 306,89.5 304.5,89.5 300.6,103.6 306,116.3 311.4,103.6 			"/>
			<g>
				<polygon class="st36" points="295.3,85.8 306,116.3 292,103.2 296.4,97.7 287.6,97.5 287.6,89.2 				"/>
				<polygon class="st36" points="316.7,85.8 306,116.3 320,103.2 315.6,97.7 324.4,97.5 324.4,89.2 				"/>
			</g>
			<g>
				<polygon class="st4" points="295.2,85.8 299.3,82.3 306,82.3 298.2,94.3 				"/>
				<polygon class="st4" points="316.8,85.8 312.7,82.3 306,82.3 313.8,94.3 				"/>
			</g>
			<polygon class="st35" points="306,82.3 301.6,89.1 306,93.2 310.4,89.1 			"/>
			<g>
				<ellipse class="st37" cx="290.6" cy="66.1" rx="3" ry="4.5"/>
				<ellipse class="st37" cx="321.9" cy="66.1" rx="3" ry="4.5"/>
			</g>
			<path class="st37" d="M321.9,61.9c0,11-7.1,23.9-15.9,23.9c-8.8,0-15.9-12.9-15.9-23.9c0-11,7.1-15.9,15.9-15.9
				C314.8,46.1,321.9,51,321.9,61.9z"/>
			<g>
				<polygon class="st7" points="320.5,67.2 315.9,68.2 315.9,66.6 320.5,65.6 				"/>
				<polygon class="st7" points="291.5,67.2 296.1,68.2 296.1,66.6 291.5,65.6 				"/>
			</g>
			<path class="st38" d="M321.1,69.6h-1.2c0,0,0-5.6,0-7.1c0-1.5,0.6-2.9,0.6-6c0-3.1-3.3-6.1-5-6.1l0.6-6.3c0,0,13.6,4.3,8.3,19.6
				C324.4,63.6,321.1,63.6,321.1,69.6z"/>
			<path class="st38" d="M287.6,48.8c2.1-4.3,7.4-9,15.9-9.5c11.9-0.7,12.7,4.7,12.7,4.7l-0.6,6.4c0,0-0.4,4.9-9,5
				c-8.6,0.2-15.6-0.8-15.1,2.6c0,0,0,0,0,0c0.2,1.3,0.3,2.2,0.4,2.8c0,0.2,0.1,0.4,0.1,0.6l0,0l0,0c0,0.1,0,0.2,0,0.4l0,0l0,0
				c0,0.2,0,0.5,0,0.7c0,1.5,0,7.1,0,7.1h-1.2c0-5.9-2.8-5.9-2.8-5.9C287.2,61.1,284.9,54.5,287.6,48.8z"/>
			<rect x="302" y="66.9" class="st7" width="7.6" height="1.5"/>
			<circle class="st4" cx="299" cy="67.6" r="5.2"/>
			<circle class="st4" cx="313" cy="67.6" r="5.2"/>
			<circle class="st4" cx="313" cy="67.6" r="5.2"/>
			<rect x="319" y="109.3" class="st39" width="10.8" height="5.5"/>
			<rect x="319" y="109.3" class="st40" width="10.8" height="1.6"/>
			<polygon class="st9" points="292.1,111 289.6,111 289.6,108.5 287.5,108.5 287.5,111 285,111 285,113.1 287.5,113.1 287.5,115.6 
				289.6,115.6 289.6,113.1 292.1,113.1 			"/>
			<path class="st20" d="M299,62.4c-2.9,0-5.2,2.3-5.2,5.2c0,1.4,0.6,2.7,1.5,3.7l7.4-7.3C301.8,62.9,300.5,62.4,299,62.4z"/>
			<path class="st20" d="M313,62.4c-2.9,0-5.2,2.3-5.2,5.2c0,1.4,0.6,2.7,1.5,3.7l7.4-7.3C315.7,62.9,314.4,62.4,313,62.4z"/>
			<g>
				<g>
					<path class="st7" d="M299,73.2c-3.1,0-5.6-2.5-5.6-5.6c0-3.1,2.5-5.6,5.6-5.6c3.1,0,5.6,2.5,5.6,5.6
						C304.6,70.7,302.1,73.2,299,73.2z M299,62.7c-2.7,0-4.8,2.2-4.8,4.8s2.2,4.8,4.8,4.8s4.8-2.2,4.8-4.8S301.7,62.7,299,62.7z"/>
				</g>
				<g>
					<path class="st7" d="M313,73.2c-3.1,0-5.6-2.5-5.6-5.6c0-3.1,2.5-5.6,5.6-5.6c3.1,0,5.6,2.5,5.6,5.6
						C318.6,70.7,316,73.2,313,73.2z M313,62.7c-2.7,0-4.8,2.2-4.8,4.8s2.2,4.8,4.8,4.8c2.7,0,4.8-2.2,4.8-4.8S315.6,62.7,313,62.7z
						"/>
				</g>
			</g>
		</g>
	</g>
	<circle class="st25" cx="306" cy="73.5" r="52.5"/>
	<circle class="st4" cx="470.4" cy="470.4" r="52.5"/>
	<circle class="st25" cx="470.4" cy="470.4" r="52.5"/>
	<g>
		<g id="XMLID_707_">
			<g>
				<path class="st41" d="M470.9,148.2c-17.3,0-17-7.5-15.8-16c0.4-2.9,0.9-6,0.9-8.9c-0.2-11.3,6.8-16.4,14.3-16.6
					c4.8-0.1,15.1,2.3,15.3,16.4c0,2.9,0.4,5.6,0.8,8.2C487.9,141.2,489.4,148.2,470.9,148.2z"/>
				<path class="st42" d="M470.9,148.2c-17.3,0-17-7.5-15.8-16c0.2,0.8,3.5,13.4,13.7,13.1c10.2-0.3,17.5-5.4,17.6-14
					C487.9,141.2,489.4,148.2,470.9,148.2z"/>
			</g>
			<g>
				<path class="st43" d="M470.3,106.8c4.8-0.1,15.1,2.3,15.3,16.4c0.2,14.1,8.5,25.1-14.8,25.1c-23.3,0-14.7-13.5-14.9-24.9
					C455.8,112,462.7,107,470.3,106.8z"/>
			</g>
		</g>
		<g>
			<g>
				<g>
					<path class="st44" d="M475.3,145.4l0,4.8l11.9,1c-0.6,0.7-1.8,32.9-1.8,32.9c0.1-0.2-27,0.3-27,0.3l-2.6-33l11.4-1.1l0-4.8
						C471.1,147.3,475.3,145.4,475.3,145.4z"/>
					<path class="st45" d="M467,145.7l0,1.2c0,0,3.6,2.3,8.3,0.1l-0.1-1.3C475.2,145.7,471.6,147.2,467,145.7z"/>
				</g>
				<g>
					<path class="st43" d="M467,145.4l0,4.8l-11.6,1.2l2.8,32.7l27.1-0.1l1.8-32.9l-11.9-1l0-4.8C475.3,145.4,471.1,147.3,467,145.4
						z"/>
				</g>
				<g id="XMLID_876_">
					<g>
						<path class="st46" d="M455.3,151.5l2.8,32.7l-7.1,0c0,0,2.4-28.1,2.6-30.3C453.9,151.7,455.3,151.5,455.3,151.5z"/>
						<path class="st46" d="M492.6,184.1l-7.3,0l1.8-32.9c0,0,1.8,0.8,2,2.9C489.3,156.3,492.6,184.1,492.6,184.1z"/>
					</g>
					<g>
						<path class="st43" d="M455.3,151.5c0,0-1.4,0.2-1.7,2.4c-0.2,2.1-2.6,30.3-2.6,30.3l7.1,0L455.3,151.5z"/>
						<path class="st43" d="M487.2,151.4c0,0,1.6,0.6,1.9,2.7c0.2,2.1,3.5,30,3.5,30l-7.3,0L487.2,151.4z"/>
					</g>
				</g>
			</g>
			<g id="XMLID_870_">
				<g>
					<polygon class="st46" points="487.2,151.4 485.2,184.1 458.1,184.2 455.3,151.5 					"/>
				</g>
				<g>
					<polygon class="st43" points="455.3,151.5 458.1,184.2 485.2,184.1 487.2,151.4 					"/>
				</g>
			</g>
			<g id="XMLID_871_">
				<g>
					<path class="st47" d="M483.6,149.4c0,0,6.6,19.4-1,34.7l-21.9,0.1c0,0-7.8-16.5-1.5-34.8H483.6z"/>
				</g>
				<g>
					<path class="st43" d="M460.7,184.2c0,0-7.8-16.5-1.5-34.8h24.4c0,0,6.6,19.4-1,34.7L460.7,184.2z"/>
				</g>
			</g>
			<g id="XMLID_873_">
				<g>
					<polygon class="st47" points="471.1,148.2 468.5,154.1 462.3,149.9 465.7,146.7 					"/>
				</g>
				<g>
					<polygon class="st43" points="465.7,146.7 471.1,148.2 468.5,154.1 462.3,149.9 					"/>
				</g>
			</g>
			<g id="XMLID_872_">
				<g>
					<polygon class="st47" points="476.3,146.8 479.7,150 473.5,154.3 471,148.4 					"/>
				</g>
				<g>
					<polygon class="st43" points="476.3,146.8 471,148.4 473.5,154.3 479.7,150 					"/>
				</g>
			</g>
			<rect x="468.5" y="157.3" class="st48" width="5.2" height="12.3"/>
			<rect x="464.9" y="160.7" class="st48" width="12.3" height="5.2"/>
		</g>
		<path class="st44" d="M483.3,125.4l0-0.4c0,0,0,9,0,9.1c-0.1,5.2-3.5,9.6-8.1,11.3v0c-1.3,0.5-2.8,0.7-4.3,0.7
			c-1.5,0-2.9-0.3-4.3-0.8c-4.4-1.7-7.6-5.8-8.1-10.4c-0.1-0.7-0.1-0.5-0.2-9.2l0-0.2c0-6.9,0.9-16.4,12.5-16.6
			C482.4,108.6,483.3,118.5,483.3,125.4z"/>
		<path class="st43" d="M475.2,145.4c4.6-1.7,8-6.1,8.1-11.3c0-0.1,0-9.1,0-9.1l0,0.4c0-6.9-0.9-16.4-12.3-16.4
			c-11.9,0-12.5,9.6-12.5,16.5l0,0.2c0.1,8.7,0.1,8.6,0.2,9.2c0.4,4.6,3.7,8.8,8.1,10.4c1.3,0.5,2.8,0.8,4.3,0.8
			C472.4,146.2,473.9,145.9,475.2,145.4L475.2,145.4z"/>
		<path class="st44" d="M458.4,129.5v4.1c0,0.4-0.3,0.7-0.7,0.7h-0.6c-0.4,0-0.7-0.3-0.7-0.7v-4.1c0-0.4,0.3-0.7,0.7-0.7h0.6
			C458.1,128.8,458.4,129.1,458.4,129.5z"/>
		<path class="st43" d="M458.4,129.5v4.1c0,0.4-0.3,0.7-0.7,0.7h-0.6c-0.4,0-0.7-0.3-0.7-0.7v-4.1c0-0.4,0.3-0.7,0.7-0.7h0.6
			C458.1,128.8,458.4,129.1,458.4,129.5z"/>
		<g id="XMLID_681_">
			<g>
				<path class="st41" d="M478.1,110.6c8,2.8,6,18.4,6,18.4l-0.7,0.7c-0.5-8-5.7-10.3-5.7-10.3C479.1,114.7,478.1,110.6,478.1,110.6
					z"/>
			</g>
			<g>
				<path class="st43" d="M477.7,119.3c0,0,5.2,2.4,5.7,10.3l0.7-0.7c0,0,2-15.6-6-18.4C478.1,110.6,479.1,114.7,477.7,119.3z"/>
			</g>
		</g>
		<g id="XMLID_59_">
			<g>
				<path class="st47" d="M484.3,106.4l-2.9,6.8c0,0-9.3-5-21.4,0.4l-4.7-5.6C455.3,108.1,467.9,93.9,484.3,106.4z"/>
			</g>
			<g>
				<path class="st43" d="M460.1,113.7l-4.7-5.6c0,0,12.6-14.2,29-1.7l-2.9,6.8C481.4,113.3,472.1,108.3,460.1,113.7z"/>
			</g>
		</g>
		<g id="XMLID_54_">
			<path class="st47" d="M479.2,111.1l-0.3,0.1l-18.9,4.2l-0.3,0.1l-0.1,0l0.2-0.3l1.2-2.1c2.1-2.6,5.4-3.4,10.9-5.2
				C476.4,106.4,478.5,108.2,479.2,111.1z"/>
			<g id="XMLID_55_">
				<g>
					<path class="st41" d="M479.4,114.3c0,0.3,0,0.6,0,0.9c-0.4,3.2-1.7,6.5-3.1,7.6c-3.4,2.8-11-0.6-13.5-0.4
						c-2.6,0.2-4.2,6.3-4.2,6.3H458c0.1-2.3,0.2-4.3,0.3-6.1c1.1-10.7,4.3-10.9,13.5-13.9C477.5,106.8,479.4,110.3,479.4,114.3z"/>
					<path class="st42" d="M479.4,114.3c0,0.3,0,0.6,0,0.9c-0.4,3.2-1.7,6.5-3.1,7.6c-3.4,2.8-11-0.6-13.5-0.4
						c-2.6,0.2-4.2,6.3-4.2,6.3s0.7-9.7,3.2-10.9c2.5-1.2,6,2,11.6,2.5c5.5,0.4,5.8-7,5.8-7S479.3,113.7,479.4,114.3z"/>
				</g>
				<g>
					<path class="st43" d="M479.3,115.2c-0.4,3.2-1.7,6.5-3.1,7.6c-3.4,2.8-11-0.6-13.5-0.4c-2.6,0.2-4.2,6.3-4.2,6.3H458
						c0.1-2.3,0.2-4.3,0.3-6.1c0.3-3.2,0.7-5.5,1.4-7.2c0-0.1,0.1-0.2,0.1-0.3c0.3-0.8,0.7-1.5,1.2-2.1c2.1-2.6,5.4-3.4,10.9-5.2
						c4.5-1.5,6.6,0.4,7.3,3.2C479.5,112.4,479.5,113.8,479.3,115.2z"/>
				</g>
			</g>
		</g>
		<path class="st44" d="M485.2,129.5v4.1c0,0.4-0.3,0.7-0.7,0.7H484c-0.3,0-0.5-0.1-0.6-0.4c0,0,0-0.1,0-0.2v-4.1
			c0-0.4,0.3-0.7,0.7-0.7h0.6c0.3,0,0.5,0.1,0.6,0.3C485.2,129.4,485.2,129.5,485.2,129.5z"/>
		<path class="st43" d="M485.3,129.7v4.1c0,0.4-0.3,0.7-0.7,0.7H484c-0.3,0-0.6-0.2-0.6-0.5c0,0,0-0.1,0-0.2v-4.1
			c0-0.4,0.3-0.7,0.7-0.7h0.6c0.3,0,0.5,0.1,0.6,0.3C485.3,129.4,485.3,129.6,485.3,129.7z"/>
		<path class="st45" d="M478.4,119.9c0,0-1.2,3.9-4.3,4.1c-3.1,0.2-10.2-1.9-11.3-1.5c-1.1,0.4-3.4,2.2-3.8,4.7
			c-0.5,2.4,2.5-2.5,4-2.5c1.5,0,10.3,4.1,14,1.9C480.7,124.4,478.8,119.8,478.4,119.9z"/>
	</g>
	<g>
		<g id="XMLID_250_">
			<g>
				<path class="st41" d="M87.5,309.9c-0.7,4.5-7.5,5.9-7.5,5.9l-4.7-11c0,0,8.7-10.6,10.9-10.7C86.1,294.1,88.2,305.4,87.5,309.9z"
					/>
			</g>
			<g>
				<path class="st43" d="M86.1,294.1c0,0,2.1,11.3,1.4,15.8c-0.7,4.5-7.5,5.9-7.5,5.9l-4.7-11C75.2,304.9,83.9,294.3,86.1,294.1z"
					/>
			</g>
		</g>
		<path class="st49" d="M69.3,305.2l0,1.2c0,0,3.6,2.3,8.3,0.1l-0.1-1.3C77.6,305.2,73.9,306.7,69.3,305.2z"/>
		<g>
			<g id="XMLID_219_">
				<g>
					<polygon class="st50" points="69.5,310.3 70.2,346.2 57.8,346.3 57.1,312.4 57.1,312.4 57.1,311.6 					"/>
				</g>
				<g>
					<polygon class="st43" points="57.1,312.4 57.8,346.3 70.2,346.2 69.5,310.3 57.1,311.6 57.1,312.4 					"/>
				</g>
			</g>
		</g>
		<g id="XMLID_218_">
			<g>
				<polygon class="st50" points="89.9,311.4 89.2,346.1 76.8,346 77.5,310.1 				"/>
			</g>
			<g>
				<polygon class="st43" points="77.5,310.1 89.9,311.4 89.3,346.2 76.7,346.2 				"/>
			</g>
		</g>
		<g id="XMLID_217_">
			<g>
				<g>
					<path class="st51" d="M77.4,315.3l-0.6,30.9l-6.5,0l-0.5-30.8C69.6,315.4,73.3,318.6,77.4,315.3z"/>
				</g>
			</g>
			<g>
				<path class="st43" d="M69.6,315.4c0,0,3.6,3.1,7.7-0.1l-0.3,30.9l-6.9,0L69.6,315.4z"/>
			</g>
		</g>
		<g id="XMLID_216_">
			<g>
				<path class="st50" d="M57.1,311.6l0.7,34.7l-9,0c0,0,5.3-29.3,5.6-32C54.7,311.6,57.1,311.6,57.1,311.6z"/>
			</g>
			<g>
				<path class="st43" d="M57.1,311.6c0,0-2.4,0-2.7,2.6c-0.3,2.7-5.6,32-5.6,32l9,0L57.1,311.6z"/>
			</g>
		</g>
		<g id="XMLID_215_">
			<g>
				<path class="st50" d="M98.2,346.1l-9,0l0.7-34.7c0,0,2.4,0,2.7,2.6C93,316.8,98.2,346.1,98.2,346.1z"/>
			</g>
			<g>
				<path class="st43" d="M90,311.5c0,0,2.4,0,2.7,2.6c0.3,2.7,5.6,32,5.6,32l-9,0L90,311.5z"/>
			</g>
		</g>
		<g id="XMLID_214_">
			<g>
				<path class="st44" d="M77.6,304.9l-0.2,10.3c-3.5,3.5-7.8,0.3-7.8,0.3l-0.3-10.5C73.5,306.7,77.6,304.9,77.6,304.9z"/>
				<path class="st49" d="M69.4,305.2l0,1.2c0,0,3.6,2.3,8.3,0.1l-0.1-1.3C77.6,305.1,73.9,306.6,69.4,305.2z"/>
			</g>
			<g>
				<path class="st43" d="M69.3,304.9l0.3,10.5c0,0,4.3,3.3,7.8-0.3l0.2-10.3C77.6,304.9,73.5,306.7,69.3,304.9z"/>
			</g>
		</g>
		<path class="st52" d="M69.2,345.7l-7.1-15l-2.1-4.4l0.6-0.3l0,0l1.3-0.7l0.6-0.3l2.8-1.6l-0.8-0.4l-2-1.2l-2-1.2l-0.1,0
			c0,0,0,0,0,0c0.1-0.3,0.2-0.7,0.2-1.1c0.6-3,1.2-7.4,1.2-7.4l0.1,0l1.8-0.2l0.2,0l3.2-0.4L69,311l0,0l0.8,30l0,1.8l0,0.3l0,1.9
			l0,0.4l0,0.3H69.2z"/>
		<path class="st52" d="M77,345.5l0-0.3l0-0.4l0-1.9l0-0.3l0-1.8l0.8-30l0,0l1.7,0.2l3.2,0.4l0.2,0l1.8,0.2l0.1,0
			c0,0,0.6,4.3,1.2,7.4c0.1,0.4,0.2,0.7,0.2,1.1c0,0,0,0,0,0l-0.1,0l-2,1.2l-2,1.2l-0.8,0.4l2.8,1.6l0.6,0.3l1.3,0.7l0,0l0.6,0.3
			l-2.1,4.4l-7.1,15H77z"/>
		<g id="XMLID_213_">
			<g>
				<path class="st53" d="M69.3,310.3l0.9,35.9l-9.8-20.7l5.3-3.1l-4.8-2.8c0.7-2.9,1.4-8.4,1.4-8.4L69.3,310.3z"/>
				<polygon class="st50" points="62.2,324.2 60.3,325.4 70,345.5 70.1,341.9 				"/>
				<polygon class="st50" points="62.2,311.1 64.3,310.9 62.9,320.9 60.8,319.5 				"/>
			</g>
			<g>
				<path class="st43" d="M62.3,311.2c0,0-0.7,5.5-1.4,8.4l4.8,2.8l-5.3,3.1l9.8,20.7l-0.9-35.9L62.3,311.2z"/>
			</g>
		</g>
		<g id="XMLID_212_">
			<g>
				<path class="st53" d="M77.6,310l-0.9,35.9l9.8-20.7l-5.3-3.1l4.8-2.8c-0.7-2.9-1.4-8.4-1.4-8.4L77.6,310z"/>
				<polygon class="st50" points="84.6,324 86.5,325.1 76.8,345.2 76.8,341.7 				"/>
				<polygon class="st50" points="84.6,310.8 82.5,310.6 83.9,320.5 86,319.2 				"/>
			</g>
			<g>
				<path class="st43" d="M84.6,310.9c0,0,0.7,5.5,1.4,8.4l-4.8,2.8l5.3,3.1l-9.8,20.7l0.9-35.9L84.6,310.9z"/>
			</g>
		</g>
		<path class="st42" d="M64.2,323.4c-6.6,0-6.1-9.5-5.1-14.9c0,0,0,0,0,0s0,7.7,4.9,8c2.9,0.2,5.4,0.1,6.6-10.1
			C73.1,311.7,72.4,323.4,64.2,323.4z"/>
		<path class="st54" d="M79.4,267.1l0.6,1.3l8.7,6.1C88.8,274.5,88.1,267.5,79.4,267.1z"/>
		<path class="st54" d="M79.4,267.8l0.4,1.4l-20.7,4l-0.2,0.1l-0.1,0c0.9-3.3,3.2-5,7.7-6.7C71.9,264.3,77.5,261.8,79.4,267.8z"/>
		<path class="st44" d="M85.4,285.3l0-0.4c0,0,0,8.8,0,8.9c-0.1,5-3.4,9.3-7.9,11v0c-1.3,0.5-2.7,0.7-4.1,0.7
			c-1.5,0-2.8-0.3-4.1-0.8c-4.3-1.6-7.4-5.6-7.8-10.1c-0.1-0.7-0.1-0.5-0.2-9l0-0.2c0-6.7,0.9-15.9,12.1-16.1
			C84.5,269.1,85.4,278.6,85.4,285.3z"/>
		<path class="st43" d="M77.5,304.8c4.5-1.6,7.8-5.9,7.9-11c0-0.1,0-8.9,0-8.9l0,0.4c0-6.7-0.8-16-12-16c-11.5,0-12.2,9.3-12.2,16.1
			l0,0.2c0.1,8.5,0.1,8.3,0.2,9c0.4,4.5,3.6,8.5,7.8,10.1c1.3,0.5,2.7,0.8,4.1,0.8C74.8,305.5,76.2,305.3,77.5,304.8L77.5,304.8z"/>
		<path class="st45" d="M85.3,294.3c-0.1,4.9-3.5,8.8-7.9,10.4v0c-0.9,0.3-1.8,0.5-2.8,0.6c0,0,0,0,0,0c-0.4,0-0.9,0.1-1.3,0.1
			c-1.4,0-2.8-0.3-4.1-0.7c-4.2-1.6-7.2-5.5-7.7-9.9c0-0.3,0-0.4-0.1-1.2c0,0,0,0,0,0c0,0,0,0,0,0c0-0.1-1.1-0.3-0.6-0.3
			c0,0,0.6-0.1,0.6-0.1c0.1-0.1-0.2-1.4-0.2-1.4s2.7,11.3,11.8,11.4c9.4,0.1,11.5-9,12.1-10c0,0,0.3-1.8,0.3-1.8
			C85.5,291.8,85.3,294.3,85.3,294.3z"/>
		<path class="st44" d="M87.3,289.3v4c0,0.4-0.3,0.7-0.7,0.7h-0.6c-0.2,0-0.5-0.1-0.6-0.3c0,0,0-0.1,0-0.1v-4c0-0.4,0.3-0.7,0.7-0.7
			h0.6c0.2,0,0.5,0.1,0.6,0.3C87.3,289.2,87.3,289.3,87.3,289.3z"/>
		<path class="st43" d="M87.3,289.5v4c0,0.4-0.3,0.7-0.7,0.7h-0.6c-0.3,0-0.6-0.2-0.6-0.5c0,0,0-0.1,0-0.1v-4c0-0.4,0.3-0.7,0.7-0.7
			h0.6c0.2,0,0.5,0.1,0.6,0.3C87.3,289.3,87.3,289.4,87.3,289.5z"/>
		<g id="XMLID_247_">
			<g>
				<path class="st41" d="M80.3,272.9c-0.1,2.9-1.6,4.7-4.4,5.8c-4.2,1.7-8-0.9-11.9,0.6c-2.7,1-3.1,5.2-3,7.6c0,0.6,0,1.2,0,1.6
					c0,0.4,0.1,0.7,0.1,0.9l-0.7,0.1l-1,0.1c-0.6-5-1-8.7-1-11.5c0.1-6.1,2.2-8.4,8.1-10.7c5.5-2.2,11.1-4.7,13,1.3
					c0.4,1.2,0.6,2.4,0.8,3.4v0C80.3,272.4,80.3,272.7,80.3,272.9z"/>
				<path class="st42" d="M80.3,272.9c-0.1,2.9-1.6,4.7-4.4,5.8c-4.2,1.7-8-0.9-11.9,0.6c-2.7,1-3.1,5.2-3,7.6c0,0.6,0,1.2,0,1.6
					c0,0.4,0.1,0.7,0.1,0.9l-0.7,0.1c0,0,0,0,0-0.1c-0.4-2,0.3-12.7,2-14.3c1.7-1.6,6.9,2.5,12.8,0.9c3.6-1,4.8-2.8,5.2-4
					C80.3,272.4,80.3,272.7,80.3,272.9z"/>
			</g>
			<g>
				<path class="st43" d="M80.3,272.9c-0.1,2.9-1.6,4.7-4.4,5.8c-4.2,1.7-8-0.9-11.9,0.6c-2.7,1-3.1,5.2-3,7.6
					c0,0.8,0.1,1.4,0.1,1.6l-0.1,0l-1.5,0.5c-0.6-4.4-1.1-8.2-1.1-11c0-2,0.1-3.6,0.5-4.9c0.9-3.3,3.2-5,7.7-6.7
					c5.5-2.2,11.1-4.7,13,1.3C80.1,269.8,80.4,271.5,80.3,272.9z"/>
			</g>
		</g>
		<path class="st44" d="M61.3,289.3v4c0,0.4-0.3,0.7-0.7,0.7h-0.6c-0.4,0-0.7-0.3-0.7-0.7v-4c0-0.4,0.3-0.7,0.7-0.7h0.6
			C61,288.7,61.3,289,61.3,289.3z"/>
		<path class="st43" d="M61.3,289.3v4c0,0.4-0.3,0.7-0.7,0.7h-0.6c-0.4,0-0.7-0.3-0.7-0.7v-4c0-0.4,0.3-0.7,0.7-0.7h0.6
			C61,288.7,61.3,289,61.3,289.3z"/>
		<g id="XMLID_246_">
			<g>
				<path class="st41" d="M89.4,282.5c-0.4,3.7-2.1,6.7-2.1,6.7c-0.6-0.5-1.6-0.1-1.6-0.1c0.7-10.5-4.7-14.9-5.2-15.3
					c0-0.1,0-0.2,0-0.3c0.1-2.7-0.7-4.8-0.7-4.8c0.5,0.4-0.2-0.8-0.1-0.7c9.2,1,9.3,7.3,9.7,12.9C89.4,281.5,89.4,282,89.4,282.5z"
					/>
			</g>
			<g>
				<path class="st43" d="M89.4,282.5c-0.4,3.7-2.1,6.7-2.1,6.7c-0.6-0.5-1.6-0.1-1.6-0.1c0.7-10.5-4.7-14.9-5.2-15.3c0,0,0,0,0,0
					c0-0.1,0-0.2,0-0.3c0.3-2-0.3-4.3-0.7-5.5c-0.2-0.6-0.3-0.9-0.3-0.9c9.6,0.8,9.7,7.3,10.1,13C89.5,280.9,89.5,281.7,89.4,282.5z
					"/>
			</g>
		</g>
		<path class="st45" d="M80.5,274.1c0,0,0.1,5.7-5.2,6.4c-5.2,0.7-8.7-1.4-10.9,0c-2.3,1.4-3.4,6-3.4,6s-0.3-6.2,3.2-7.2
			c3.5-1,8.3,0.6,10.9-0.2C77.7,278.2,79.9,276.4,80.5,274.1z"/>
		<g id="XMLID_220_">
			<g>
				<path class="st41" d="M63.3,321.9c-6.6,0-6.1-9.5-5.1-14.9c0.2-1.3,0.5-2.3,0.7-3c1-3.2,1.6-10.1,1.6-10.1l0.9-0.3
					c-0.4,7.8,8.3,11.2,8.3,11.2C72.2,310.2,71.5,321.9,63.3,321.9z"/>
				<path class="st42" d="M63.3,321.9c-6.6,0-6.1-9.5-5.1-14.9c0,0,0,0,0,0s0,7.7,4.9,8c2.9,0.2,5.4,0.1,6.6-10.1
					C72.2,310.2,71.5,321.9,63.3,321.9z"/>
			</g>
			<g>
				<path class="st43" d="M60.4,294.1c0,0-0.5,6.7-1.5,9.9c-1,3.2-3.8,17.8,4.4,17.8c8.2,0,8.9-11.7,6.4-17c0,0-8-3.1-8.3-11.2
					L60.4,294.1z"/>
			</g>
		</g>
		<g id="XMLID_133_">
			<g>
				<path class="st46" d="M89.9,276.8v2.6c0,0.4-0.4,0.8-0.8,0.8H58.7c-0.4,0-0.8-0.4-0.8-0.8v-2.6c0-0.4,0.4-0.8,0.8-0.8H89
					C89.5,276,89.9,276.3,89.9,276.8z"/>
			</g>
			<g>
				<path class="st43" d="M89.9,279.4c0,0.4-0.4,0.8-0.8,0.8H58.7c-0.4,0-0.8-0.4-0.8-0.8v-2.6c0-0.4,0.4-0.8,0.8-0.8H89
					c0.4,0,0.8,0.4,0.8,0.8V279.4z"/>
			</g>
		</g>
		<circle class="st53" cx="73.1" cy="276.5" r="6.5"/>
		<path class="st55" d="M67,278.8l4.2-1l2.6-3.2l0.4-4.6c0,0,4.4,1,4.9,3.9l-4.2,1.6l-2.4,3.1l1,4.4C73.4,283,68.6,283.3,67,278.8z"
			/>
		<g id="XMLID_134_">
			<g>
				<circle class="st46" cx="72.9" cy="276.6" r="2.1"/>
			</g>
			<g>
				<circle class="st43" cx="72.9" cy="276.6" r="2.1"/>
			</g>
		</g>
		<g>
			<circle class="st43" cx="73.1" cy="276.5" r="6.5"/>
		</g>
	</g>
	<g>
		<g>
			<g id="XMLID_271_">
				<g>
					<path class="st44" d="M474.7,469.1l0.1,18.2c-3.7,3.8-8.4-1.1-8.4-1.1l-0.5-17.1C470.3,471.1,474.7,469.1,474.7,469.1z"/>
					<path class="st49" d="M466,469.4l0,1.2c0,0,3.8,2.4,8.8,0.1l-0.1-1.4C474.7,469.3,470.8,471,466,469.4z"/>
				</g>
				<g>
					<path class="st43" d="M465.9,469.1l0.5,17.3c0,0,4.8,4.1,8.5,0.4l-0.1-17.7C474.7,469.1,470.3,471.1,465.9,469.1z"/>
				</g>
			</g>
			<g>
				<g id="XMLID_264_">
					<g>
						<polygon class="st56" points="487.4,475.6 486.7,511.5 474.2,511.5 467.1,511.5 454.2,511.7 453.5,475.8 466,474.9 
							469.6,474.7 474.7,474.7 						"/>
					</g>
					<g>
						<polygon class="st43" points="467.1,511.5 474.2,511.5 486.7,511.5 487.4,475.6 474.7,474.7 469.6,474.7 466,474.9 
							453.5,475.8 454.2,511.7 						"/>
					</g>
				</g>
			</g>
			<g id="XMLID_262_">
				<g>
					<g id="XMLID_263_">
						<g>
							<path class="st44" d="M454.2,511.7l-6.8-0.1c0,0,1-10.5,2-19.7c0.1-1.2,0.2-2.4,0.4-3.5c0.5-4.7,0.9-8.5,1-9.7
								c0,0,0-0.1,0-0.1c0.3-2.8,2.8-2.7,2.8-2.7l0.3,14.4l0.1,3.5L454.2,511.7z"/>
							<path class="st45" d="M454.2,490.4l-0.1,3.4l-0.2-0.1l-4.5-1.8c0.1-1.2,0.2-2.4,0.4-3.5l4.1,1.9L454.2,490.4z"/>
						</g>
						<g>
							<path class="st43" d="M454.2,511.7l-0.7-35.8c0,0-2.4,0-2.8,2.7c0,0,0,0.1,0,0.1c-0.4,3.5-3.6,32.9-3.6,32.9L454.2,511.7z"/>
						</g>
					</g>
				</g>
			</g>
			<g id="XMLID_258_">
				<g>
					<g id="XMLID_259_">
						<g>
							<path class="st44" d="M494.1,511.5l-7.3,0l0.4-18l0.1-3.5l0.3-14.3c0,0,2.4,0,2.8,2.7c0.1,0.9,0.6,4.8,1.1,9.7
								c0.1,1.1,0.3,2.3,0.4,3.5C492.9,500.8,494.1,511.5,494.1,511.5z"/>
							<path class="st45" d="M491.8,491.6l-4.7,1.9l-0.1,0l-0.1-3.4l0.3-0.1l4.2-1.9C491.5,489.2,491.7,490.4,491.8,491.6z"/>
						</g>
						<g>
							<path class="st43" d="M487.5,475.7c0,0,2.4-0.1,2.8,2.7c0.3,2.8,3.8,33.2,3.8,33.2l-7.3,0L487.5,475.7z"/>
						</g>
					</g>
				</g>
			</g>
			<g id="XMLID_253_">
				<g>
					<path class="st56" d="M495.1,486.2l-7.9,4.1l0.3-14.6c0,0,2,0,3,2C491.7,479.9,495.1,486.1,495.1,486.2z"/>
				</g>
				<g>
					<line class="st43" x1="495.1" y1="486.2" x2="495.1" y2="486.2"/>
					<path class="st43" d="M495.1,486.2l-7.9,4.1l0.3-14.6c0,0,2,0,3,2C491.7,479.9,495.1,486.1,495.1,486.2z"/>
				</g>
			</g>
			<g id="XMLID_252_">
				<g>
					<path class="st56" d="M445.8,486.4l7.9,4.1l-0.3-14.6c0,0-2,0-3,2C449.2,480.2,445.8,486.4,445.8,486.4z"/>
				</g>
				<g>
					<path class="st43" d="M453.4,475.9c0,0-2,0-3,2c-1.2,2.3-4.6,8.5-4.6,8.5l7.9,4.1L453.4,475.9z"/>
				</g>
			</g>
			<g>
				<path class="st44" d="M483,448.6l0-0.4c0,0,0,9.3,0,9.4c-0.1,5.3-3.6,9.8-8.3,11.6v0c-1.4,0.5-2.8,0.8-4.4,0.8
					c-1.5,0-3-0.3-4.4-0.8c-4.5-1.7-7.8-5.9-8.3-10.7c-0.1-0.7-0.1-0.5-0.2-9.5l0-0.2c0-7.1,1-16.8,12.8-17.1
					C482,431.4,483,441.5,483,448.6z"/>
				<path class="st44" d="M485,453.7v4.3c0,0.4-0.3,0.7-0.7,0.7h-0.6c-0.3,0-0.5-0.2-0.6-0.4c0-0.1,0-0.1,0-0.2v-4.3
					c0-0.4,0.3-0.7,0.7-0.7h0.6c0.3,0,0.5,0.1,0.6,0.4C485,453.6,485,453.6,485,453.7z"/>
				<path class="st43" d="M485.1,453.9v4.3c0,0.4-0.3,0.7-0.7,0.7h-0.6c-0.3,0-0.6-0.2-0.7-0.5c0-0.1,0-0.1,0-0.2v-4.3
					c0-0.4,0.3-0.7,0.7-0.7h0.6c0.3,0,0.5,0.1,0.6,0.4C485,453.6,485.1,453.8,485.1,453.9z"/>
				<path class="st44" d="M457.4,453.7v4.3c0,0.4-0.3,0.7-0.7,0.7h-0.6c-0.4,0-0.7-0.3-0.7-0.7v-4.3c0-0.4,0.3-0.7,0.7-0.7h0.6
					C457.1,453,457.4,453.3,457.4,453.7z"/>
				<path class="st43" d="M457.4,453.7v4.3c0,0.4-0.3,0.7-0.7,0.7h-0.6c-0.4,0-0.7-0.3-0.7-0.7v-4.3c0-0.4,0.3-0.7,0.7-0.7h0.6
					C457.1,453,457.4,453.3,457.4,453.7z"/>
				<path class="st43" d="M474.6,469.2c4.8-1.7,8.2-6.2,8.3-11.6c0-0.1,0-9.4,0-9.4l0,0.4c0-7.1-0.9-16.9-12.6-16.9
					c-12.2,0-12.9,9.9-12.9,17l0,0.2c0.1,9,0.1,8.8,0.2,9.5c0.5,4.8,3.8,9,8.3,10.7c1.4,0.5,2.8,0.8,4.4,0.8
					C471.8,469.9,473.3,469.7,474.6,469.2L474.6,469.2z"/>
				<path class="st56" d="M484,443.1c-4.4-1.2-27.6-0.2-27.6-0.2l0.2-2.9l0.8-8.9c0,0,0,0,0,0c13.1-6.7,25.6,0,25.6,0l0.5,5.9
					L484,443.1z"/>
				<path class="st57" d="M484,443.1c-4.4-1.2-27.6-0.2-27.6-0.2l0.2-2.9c2.5,0.1,22.9,1.2,26.9-3L484,443.1z"/>
				<path class="st4" d="M483.1,431.1v1.4c-10.3-7-25.7-0.8-25.7-0.8c0-0.2,0-0.5,0-0.7C470.5,424.3,483.1,431.1,483.1,431.1z"/>
				<path class="st43" d="M456.4,442.9c0,0,23.2-1,27.6,0.2l-1-12.1c0,0-12.6-6.8-25.7,0L456.4,442.9z"/>
				<path class="st43" d="M457.4,452.6c0,0,11.2,16,25.7,0.7"/>
				<g id="XMLID_136_">
					<g>
						<path class="st53" d="M481.5,454.9l0.8,6.3c0,0-2.6,9-12.1,8.8c-9.5-0.2-12.1-8.6-12.1-8.6l0.8-6.9c0,0,4.7,5.5,11.3,5.5
							C476.9,460,481.5,454.9,481.5,454.9z"/>
					</g>
					<g>
						<path class="st43" d="M459,454.5l-0.8,6.9c0,0,2.5,8.3,12.1,8.6c9.5,0.2,12.1-8.8,12.1-8.8l-0.8-6.3c0,0-4.6,5.1-11.2,5.1
							C463.7,460,459,454.5,459,454.5z"/>
					</g>
				</g>
				<path class="st45" d="M483,457.3c-0.1,5.3-3.5,10.2-8.2,12v0c-1.4,0.5-2.8,0.8-4.4,0.8c-1.5,0-3-0.3-4.4-0.8
					c-4.5-1.7-8-6.1-8.5-10.9c0.2-0.4,0.4-0.8,0.4-0.8S468.9,478.4,483,457.3z"/>
			</g>
		</g>
		<g id="XMLID_135_">
			<g>
				<path class="st46" d="M456.4,442.9l4.1-0.1c-1.9,0.1-3.1,10.6-3.1,10.6s0,0-0.7-0.3C456,452.7,456.4,442.9,456.4,442.9z"/>
			</g>
			<g>
				<path class="st43" d="M457.4,453.3c0,0,1.2-10.5,3.1-10.6l-4.1,0.1c0,0-0.4,9.8,0.3,10.1C457.4,453.3,457.4,453.3,457.4,453.3z"
					/>
			</g>
		</g>
		<g id="XMLID_137_">
			<g>
				<path class="st46" d="M484,442.9l-4.5-0.2c1.9,0.1,3.5,10.7,3.5,10.7s0,0,0.7-0.3C484.4,452.7,484,442.9,484,442.9z"/>
			</g>
			<g>
				<path class="st43" d="M483,453.3c0,0-1.6-10.6-3.5-10.7l4.5,0.2c0,0,0.4,9.8-0.3,10.1C483,453.3,483,453.3,483,453.3z"/>
			</g>
		</g>
	</g>
	<g>
		<g>
			<path class="st58" d="M532.6,272.1c-3.6,0-6.6,3-6.6,6.6c0,3.6,3,6.6,6.6,6.6c3.6,0,6.6-3,6.6-6.6
				C539.2,275.1,536.3,272.1,532.6,272.1z M532.6,278.9c-1.2,0-2.1-0.9-2.1-2.1c0-1.2,0.9-2.1,2.1-2.1c1.2,0,2.1,0.9,2.1,2.1
				C534.7,277.9,533.8,278.9,532.6,278.9z"/>
			<g>
				<rect x="531" y="329.1" class="st4" width="3" height="12.4"/>
				<rect x="529.2" y="327.4" class="st59" width="6.5" height="6.5"/>
				<path class="st4" d="M538.7,328.4c0,1.9-1.5,3.4-3.4,3.4h-5.7c-1.9,0-3.4-1.5-3.4-3.4l0,0c0-1.9,1.5-3.4,3.4-3.4h5.7
					C537.2,325,538.7,326.5,538.7,328.4L538.7,328.4z"/>
				<path class="st59" d="M551,322.3c0,2.8-2.3,5.1-5.1,5.1h-26.6c-2.8,0-5.1-2.3-5.1-5.1v-36.7c0-2.8,2.3-5.1,5.1-5.1h26.6
					c2.8,0,5.1,2.3,5.1,5.1V322.3z"/>
				<path class="st4" d="M548.2,319.5c0,2.4-1.9,4.3-4.3,4.3h-22.5c-2.4,0-4.3-1.9-4.3-4.3v-31c0-2.4,1.9-4.3,4.3-4.3h22.5
					c2.4,0,4.3,1.9,4.3,4.3V319.5z"/>
			</g>
		</g>
		<g>
			<path class="st60" d="M561.2,346.1c-0.8,0-1.5-0.7-1.5-1.5v-70.7c0-2.8-2.2-5-5-5h-20.6v6.8c0,0.8-0.7,1.5-1.5,1.5
				s-1.5-0.7-1.5-1.5v-8.3c0-0.8,0.7-1.5,1.5-1.5h22.1c4.4,0,7.9,3.6,7.9,7.9v70.7C562.7,345.4,562,346.1,561.2,346.1z"/>
		</g>
		<path class="st26" d="M548.2,289.2h-10.9c-0.5,0-0.9,0.3-0.9,0.8c0,0.4,0.4,0.8,0.9,0.8h10.9V289.2z"/>
		<path class="st26" d="M548.2,292.7h-5.9c-0.5,0-0.9,0.3-0.9,0.8c0,0.4,0.4,0.8,0.9,0.8h5.9V292.7z"/>
		<path class="st26" d="M548.2,296.1h-5.9c-0.5,0-0.9,0.3-0.9,0.8c0,0.4,0.4,0.8,0.9,0.8h5.9V296.1z"/>
		<path class="st26" d="M548.2,299.6h-10.9c-0.5,0-0.9,0.3-0.9,0.8c0,0.4,0.4,0.8,0.9,0.8h10.9V299.6z"/>
		<path class="st26" d="M548.2,303h-5.9c-0.5,0-0.9,0.3-0.9,0.8c0,0.4,0.4,0.8,0.9,0.8h5.9V303z"/>
		<path class="st26" d="M548.2,306.5h-5.9c-0.5,0-0.9,0.3-0.9,0.8s0.4,0.8,0.9,0.8h5.9V306.5z"/>
		<path class="st26" d="M548.2,309.9h-10.9c-0.5,0-0.9,0.3-0.9,0.8c0,0.4,0.4,0.8,0.9,0.8h10.9V309.9z"/>
		<path class="st26" d="M548.2,313.3h-5.9c-0.5,0-0.9,0.3-0.9,0.8c0,0.4,0.4,0.8,0.9,0.8h5.9V313.3z"/>
		<path class="st26" d="M548.2,316.8h-5.9c-0.5,0-0.9,0.3-0.9,0.8s0.4,0.8,0.9,0.8h5.9V316.8z"/>
	</g>
	<g>
		<g>
			<path class="st61" d="M272.7,549.9l2.2,0c6.7-0.1,11.7-2,14.8-3.9c0.9-0.6,3.2-3,3.2-3c1.6-1.7,2.5-3.2,3.3-5.2l-4.2-2.2
				c-2.2,3.4-8.2,7.7-19.4,7.3V549.9z"/>
		</g>
		<g>
			<g>
				<path class="st61" d="M340.4,542.9v7l-2.2,0c-6.7-0.1-11.7-1.9-14.9-3.9l-1.2-1.1c0,0-0.9-0.8-2-1.9c-1-1-2.7-4.7-2.7-4.7
					l3.6-2.6C323.2,539,329.2,543.3,340.4,542.9z"/>
			</g>
		</g>
		<g>
			<path class="st62" d="M274.1,544.1c-0.4,0-0.9,0-1.4,0c-0.6,0-1.1-0.6-1.1-1.2c0-0.6,0.5-1.2,1.2-1.1c10,0.3,16.1-3.3,18.4-6.8
				c0.4-0.5,1.1-0.7,1.6-0.3c0.5,0.4,0.7,1.1,0.3,1.6C291.9,538.2,286.9,544.1,274.1,544.1z"/>
			<path class="st62" d="M339.1,544.1c-12.8,0-17.8-6-19-7.8c-0.4-0.5-0.2-1.3,0.3-1.6c0.5-0.4,1.3-0.2,1.6,0.3
				c2.3,3.5,8.4,7.1,18.4,6.8c0.7-0.1,1.2,0.5,1.2,1.1c0,0.6-0.5,1.2-1.1,1.2C340,544.1,339.5,544.1,339.1,544.1z"/>
			<g>
				<path class="st62" d="M293,544.2c-0.3,0-0.6-0.1-0.8-0.3c-0.2-0.2-0.4-0.5-0.4-0.8c0-0.3,0.1-0.6,0.3-0.8c0.4-0.4,1.2-0.4,1.7,0
					c0.2,0.2,0.3,0.5,0.3,0.8c0,0.3-0.1,0.6-0.3,0.8C293.6,544,293.3,544.2,293,544.2z"/>
				<path class="st62" d="M276,549.9c0-0.6,0.4-1.2,1.1-1.2l0,0c0.6-0.1,1.2,0.4,1.2,1.1l0,0c0,0.6-0.4,1.2-1.1,1.2l0,0
					c0,0-0.1,0-0.1,0l0,0C276.6,551,276.1,550.5,276,549.9z M280.4,549.5c-0.1-0.6,0.3-1.2,0.9-1.4l0,0c0.6-0.1,1.2,0.3,1.4,0.9l0,0
					c0.1,0.6-0.3,1.2-0.9,1.4l0,0c-0.1,0-0.2,0-0.2,0l0,0C281.1,550.4,280.6,550,280.4,549.5z M284.8,548.4
					c-0.2-0.6,0.1-1.3,0.7-1.5l0,0c0.6-0.2,1.3,0.1,1.5,0.7l0,0c0.2,0.6-0.1,1.3-0.7,1.5l0,0c-0.1,0-0.3,0.1-0.4,0.1l0,0
					C285.4,549.2,285,548.9,284.8,548.4z M288.8,546.7c-0.4-0.5-0.2-1.3,0.3-1.6l0,0c0.5-0.3,1.3-0.2,1.6,0.3l0,0
					c0.4,0.5,0.2,1.3-0.3,1.6l0,0l0,0l0,0c-0.2,0.1-0.4,0.2-0.6,0.2l0,0C289.4,547.2,289.1,547,288.8,546.7z"/>
				<path class="st62" d="M272.7,551.1c-0.3,0-0.6-0.1-0.8-0.3c-0.2-0.2-0.3-0.5-0.3-0.8c0-0.3,0.1-0.6,0.3-0.8
					c0.4-0.4,1.2-0.4,1.7,0c0.2,0.2,0.3,0.5,0.3,0.8c0,0.3-0.1,0.6-0.3,0.8C273.3,551,273,551.1,272.7,551.1z"/>
			</g>
			<g>
				<path class="st62" d="M320.1,544.2c-0.3,0-0.6-0.1-0.8-0.3c-0.2-0.2-0.4-0.5-0.4-0.8c0-0.3,0.1-0.6,0.4-0.8
					c0.4-0.4,1.2-0.4,1.6,0c0.2,0.2,0.3,0.5,0.3,0.8c0,0.3-0.1,0.6-0.3,0.8C320.7,544,320.4,544.2,320.1,544.2z"/>
				<path class="st62" d="M335.9,551c-0.6,0-1.1-0.6-1.1-1.2l0,0c0-0.6,0.6-1.1,1.2-1.1l0,0c0.6,0,1.1,0.6,1.1,1.2l0,0
					C337.1,550.5,336.5,551,335.9,551L335.9,551C335.9,551,335.9,551,335.9,551z M331.3,550.4c-0.6-0.1-1-0.7-0.9-1.4l0,0
					c0.1-0.6,0.7-1,1.4-0.9l0,0c0,0,0,0,0,0l0,0c0.6,0.1,1,0.7,0.9,1.4l0,0c-0.1,0.6-0.6,0.9-1.1,0.9l0,0
					C331.5,550.4,331.4,550.4,331.3,550.4z M326.9,549.1c-0.6-0.2-0.9-0.9-0.7-1.5l0,0c0.2-0.6,0.9-0.9,1.5-0.7l0,0
					c0.6,0.2,0.9,0.9,0.7,1.5l0,0c-0.2,0.5-0.6,0.7-1.1,0.7l0,0C327.1,549.2,327,549.1,326.9,549.1z M322.7,547L322.7,547
					c-0.5-0.3-0.7-1.1-0.3-1.6l0,0c0.4-0.5,1.1-0.7,1.6-0.3l0,0l0,0l0,0c0.5,0.4,0.7,1.1,0.3,1.6l0,0c-0.2,0.3-0.6,0.5-1,0.5l0,0
					C323.1,547.2,322.9,547.1,322.7,547z"/>
				<path class="st62" d="M340.4,551.1c-0.3,0-0.6-0.1-0.8-0.3c-0.2-0.2-0.3-0.5-0.3-0.8c0-0.3,0.1-0.6,0.3-0.8
					c0.4-0.4,1.2-0.4,1.7,0c0.2,0.2,0.3,0.5,0.3,0.8c0,0.3-0.1,0.6-0.3,0.8C341,551,340.7,551.1,340.4,551.1z"/>
			</g>
		</g>
		<g>
			<g>
				<path class="st4" d="M306.6,517.5c6,0,13.6-4.5,16.6,3c1.5,3.7-0.2,11.2-3.4,18.1c0.3,2.3,0.4,4.9,0.4,7.6
					c0,9.2-1.7,16.6-3.8,16.6c-5.5,0-0.4-19.6-9.8-19.6c-9.5,0-4.4,19.6-9.8,19.6c-2.1,0-3.8-7.4-3.8-16.6c0-2.7,0.2-5.3,0.4-7.6
					c-3.2-6.8-4.9-14.4-3.4-18.1C293,512.9,300.5,517.5,306.6,517.5z"/>
				<path class="st63" d="M316.4,563.9c-3.4,0-3.9-4.3-4.4-8.9c-0.7-6.3-1.4-10.7-5.4-10.7c-4.1,0-4.8,4.5-5.5,10.8
					c-0.5,4.5-0.9,8.8-4.3,8.8c-3.9,0-4.9-11.2-4.9-17.8c0-2.6,0.1-5.1,0.4-7.4c-2.7-5.9-5.1-14.2-3.3-18.7c1.4-3.4,3.8-5.1,7.4-5.1
					c1.7,0,3.5,0.3,5.3,0.7c1.7,0.3,3.4,0.7,5,0.7c1.5,0,3.3-0.3,5-0.7c1.8-0.3,3.6-0.7,5.3-0.7c3.6,0,6.1,1.7,7.4,5.1
					c1.8,4.5-0.6,12.8-3.3,18.7c0.3,2.3,0.4,4.8,0.4,7.4C321.3,552.8,320.3,563.9,316.4,563.9z M296.3,517.3c-2.7,0-4.3,1.1-5.3,3.6
					c-1.3,3.1,0.2,10.2,3.4,17.1c0.1,0.2,0.1,0.4,0.1,0.6c-0.3,2.3-0.4,4.9-0.4,7.5c0,9.4,1.7,15,2.7,15.5c1.2,0,1.6-3.6,1.9-6.7
					c0.6-5.5,1.4-12.9,7.8-12.9c6.4,0,7.1,7.1,7.8,12.8c0.3,3.2,0.7,6.7,2,6.8c1-0.6,2.7-6.1,2.7-15.4c0-2.6-0.1-5.2-0.4-7.5
					c0-0.2,0-0.4,0.1-0.6c3.3-7,4.7-14,3.4-17.1c-1-2.5-2.6-3.6-5.3-3.6c-1.5,0-3.1,0.3-4.8,0.6c-1.8,0.3-3.6,0.7-5.4,0.7
					c-1.8,0-3.6-0.4-5.4-0.7C299.4,517.6,297.8,517.3,296.3,517.3z"/>
			</g>
			<g>
				<path class="st63" d="M293.5,538.7c0.5,1.4,1.6,2.3,1.6,2.3"/>
				<path class="st63" d="M295.1,542.2c-0.3,0-0.6-0.1-0.8-0.3c-0.1-0.1-1.3-1.2-1.9-2.8c-0.2-0.6,0.1-1.3,0.7-1.5
					c0.6-0.2,1.3,0.1,1.5,0.7c0.4,1.1,1.3,1.9,1.3,1.9c0.5,0.4,0.5,1.2,0.1,1.6C295.7,542.1,295.4,542.2,295.1,542.2z"/>
			</g>
			<g>
				<path class="st63" d="M319.7,538.6c-0.5,1.4-1.6,2.5-1.6,2.5"/>
				<path class="st63" d="M318.1,542.2c-0.3,0-0.6-0.1-0.8-0.3c-0.5-0.4-0.5-1.2,0-1.6c0,0,1-1,1.4-2.1c0.2-0.6,0.9-0.9,1.5-0.7
					c0.6,0.2,0.9,0.9,0.7,1.5c-0.6,1.6-1.8,2.8-1.9,2.9C318.7,542.1,318.4,542.2,318.1,542.2z"/>
			</g>
		</g>
	</g>
</g>
</svg>
