<svg id="Layer_1" data-name="Layer 1" xmlns="http://www.w3.org/2000/svg" viewBox="0 0 604 604"><defs><style>.cls-1{fill:#dee;}.cls-2{fill:#5cc7d2;}.cls-3{fill:#34a2de;}.cls-4{fill:#f7931e;}.cls-5{fill:#d52f44;}.cls-6{fill:none;stroke:#000;stroke-linecap:round;stroke-linejoin:round;stroke-width:3px;stroke-dasharray:2 4;}.cls-7{font-size:42.28px;fill:#fff;font-family:ArialMT, Arial;letter-spacing:0.02em;}</style></defs><title>bra324</title><circle class="cls-1" cx="302" cy="302" r="302"/><rect class="cls-2" x="414.73" y="150.1" width="80.25" height="288.96"/><rect class="cls-3" x="311.55" y="200.91" width="80.25" height="238.15"/><rect class="cls-4" x="208.37" y="251.72" width="80.25" height="187.34"/><rect class="cls-5" x="105.19" y="302.53" width="80.25" height="136.53"/><path class="cls-6" d="M327.47,117.28c-56.6-7.17-108.16,23.64-89.49,97.2-28.26-44-88.18-28.2-89,21.4" transform="translate(-4 -4)"/><path d="M343.43,119.64a41.52,41.52,0,0,1-10.36-8.56l1.13,6.85-3.51,6A41.48,41.48,0,0,1,343.43,119.64Z" transform="translate(-4 -4)"/><path class="cls-5" d="M153.83,299.27h-7.75a1,1,0,0,0-.24-.09c-1.63-.12-3.26-.19-4.88-.35a48.93,48.93,0,0,1-10.07-1.93,13.55,13.55,0,0,1-4.43-2.14,2.92,2.92,0,0,1-1.2-2.45q0-16.66,0-33.32v-.56a4.46,4.46,0,0,0,2.22,2.14,31.18,31.18,0,0,0,4.38,1.74,65,65,0,0,0,17,2.11,81.84,81.84,0,0,0,11.43-.6,42.63,42.63,0,0,0,9.38-2c1.9-.69,3.83-1.38,4.88-3.37a1,1,0,0,1,0,.15q0,17.06,0,34.13a2.48,2.48,0,0,1-.54,1.41,4.46,4.46,0,0,1-1.43,1.2,24.9,24.9,0,0,1-3.63,1.58,57.7,57.7,0,0,1-14.67,2.3A4.08,4.08,0,0,0,153.83,299.27Zm-.15-11.94.52-.23a7.05,7.05,0,0,0,3.66-3.7,9.87,9.87,0,0,0,.7-5.37,7.45,7.45,0,0,0-4.29-6.15,8.44,8.44,0,0,0-4-.68,7.36,7.36,0,0,0-5.62,2.62,9.08,9.08,0,0,0-1.86,7.43,7.47,7.47,0,0,0,6.89,6.59,1.3,1.3,0,0,1,.72.36c.65.64,1.25,1.33,1.9,2a7.16,7.16,0,0,0,7.17,2.09c.14,0,.36-.18.36-.28,0-.89,0-1.78,0-2.71A5.6,5.6,0,0,1,153.68,287.33Zm-13.4-12.27c0-1,0-1.89,0-2.79a.56.56,0,0,0-.5-.67,12.6,12.6,0,0,0-6.27-.09,4.5,4.5,0,0,0-3.48,3.1,4.46,4.46,0,0,0,2.22,5.31c.77.45,1.63.74,2.41,1.17a18.31,18.31,0,0,1,2,1.28,1.11,1.11,0,0,1,.38,1.17c-.15.81-.67,1.25-1.66,1.42a6.62,6.62,0,0,1-4.92-1.05l-.57-.38c0,1,0,1.9,0,2.78a.81.81,0,0,0,.69.95,12.91,12.91,0,0,0,6.06.4,5.31,5.31,0,0,0,3.34-1.67,4.58,4.58,0,0,0-1.54-7.07c-.88-.45-1.79-.82-2.65-1.3a9,9,0,0,1-1.66-1.16,1.21,1.21,0,0,1,0-1.69,2.61,2.61,0,0,1,1.82-.8A6.79,6.79,0,0,1,140.27,275.06Zm24.62,9.58V271.46h-3.61V287.6h9.64v-3Z" transform="translate(-4 -4)"/><path class="cls-5" d="M154.7,279.61l.14,0a21.25,21.25,0,0,0-.61-2.75,3.42,3.42,0,0,0-3.13-2.41,3.74,3.74,0,0,0-3.69,1.72,7,7,0,0,0,0,6.82,3.89,3.89,0,0,0,6.68-.38A6,6,0,0,0,154.7,279.61Z" transform="translate(-4 -4)"/><path class="cls-5" d="M149.95,260.25v-.15a72.94,72.94,0,0,1-16.39-1.64,21.32,21.32,0,0,1-5.57-1.92,12.63,12.63,0,0,1-2.11-1.55,1.93,1.93,0,0,1-.6-1.56c0-.81,0-1.62,0-2.42a2.35,2.35,0,0,1,1-2.15,16.1,16.1,0,0,1,2.86-1.67,36.37,36.37,0,0,1,9.21-2.28,82.47,82.47,0,0,1,14.44-.73A60.87,60.87,0,0,1,169,246.5a13.73,13.73,0,0,1,4.35,2.07,2.84,2.84,0,0,1,1.29,2.62,14.94,14.94,0,0,0,0,2,2.58,2.58,0,0,1-1,2.17,11.63,11.63,0,0,1-4,2.09,40.53,40.53,0,0,1-9.45,2M149.91,253v-.23c1.38,0,2.76,0,4.14,0a95.76,95.76,0,0,0,12.65-.9,23,23,0,0,0,2.82-.66c.26-.07.46-.35.69-.53a4.26,4.26,0,0,0-.67-.55,3,3,0,0,0-.87-.28c-1.25-.23-2.5-.49-3.76-.63a128.42,128.42,0,0,0-14.66-.71c-2.44,0-4.88.06-7.31.14a73.07,73.07,0,0,0-10.75,1,14.11,14.11,0,0,0-2,.56c-.2.07-.35.32-.52.48a2.42,2.42,0,0,0,.49.45,3.56,3.56,0,0,0,1,.33,44.79,44.79,0,0,0,4.56.72C140.43,252.5,145.17,252.73,149.91,253Z" transform="translate(-4 -4)"/><path class="cls-5" d="M154.7,279.61a6,6,0,0,1-.6,3,3.89,3.89,0,0,1-6.68.38,7,7,0,0,1,0-6.82,3.74,3.74,0,0,1,3.69-1.72,3.42,3.42,0,0,1,3.13,2.41,21.25,21.25,0,0,1,.61,2.75Z" transform="translate(-4 -4)"/><path class="cls-3" d="M360.71,196.11h-9.2a1.13,1.13,0,0,0-.28-.1c-1.93-.14-3.86-.23-5.79-.42a58,58,0,0,1-11.94-2.29,16.07,16.07,0,0,1-5.25-2.54,3.46,3.46,0,0,1-1.43-2.9q0-19.76,0-39.52v-.66a5.29,5.29,0,0,0,2.64,2.54,37,37,0,0,0,5.2,2.06,77.08,77.08,0,0,0,20.19,2.5,97.07,97.07,0,0,0,13.56-.71,50.56,50.56,0,0,0,11.13-2.42c2.25-.82,4.54-1.64,5.79-4a1.17,1.17,0,0,1,0,.18q0,20.24,0,40.48a2.94,2.94,0,0,1-.64,1.67A5.29,5.29,0,0,1,383,191.4a29.53,29.53,0,0,1-4.31,1.88,68.44,68.44,0,0,1-17.4,2.72A4.84,4.84,0,0,0,360.71,196.11ZM360.53,182l.61-.27a8.37,8.37,0,0,0,4.34-4.38,11.71,11.71,0,0,0,.83-6.37,8.84,8.84,0,0,0-5.09-7.29,10,10,0,0,0-4.79-.81,8.74,8.74,0,0,0-6.67,3.11c-2.17,2.56-2.63,5.59-2.21,8.82a8.87,8.87,0,0,0,8.17,7.82,1.54,1.54,0,0,1,.86.43c.77.76,1.49,1.58,2.25,2.35a8.5,8.5,0,0,0,8.51,2.48c.17,0,.42-.22.43-.33,0-1.05,0-2.11,0-3.21A6.65,6.65,0,0,1,360.53,182Zm-15.9-14.55c0-1.18,0-2.25,0-3.31a.66.66,0,0,0-.59-.79,14.94,14.94,0,0,0-7.44-.11,5.34,5.34,0,0,0-4.13,3.68,5.29,5.29,0,0,0,2.63,6.3c.91.54,1.93.88,2.86,1.39a21.72,21.72,0,0,1,2.33,1.52,1.31,1.31,0,0,1,.45,1.38c-.18,1-.8,1.49-2,1.69A7.85,7.85,0,0,1,333,177.9l-.67-.45c0,1.19,0,2.25,0,3.3a1,1,0,0,0,.81,1.12,15.31,15.31,0,0,0,7.18.48,6.3,6.3,0,0,0,4-2,5.44,5.44,0,0,0-1.83-8.39c-1-.53-2.13-1-3.15-1.54a10.65,10.65,0,0,1-2-1.38,1.44,1.44,0,0,1,0-2,3.09,3.09,0,0,1,2.16-1A8.06,8.06,0,0,1,344.63,167.4Zm29.2,11.37V163.13h-4.29v19.14H381v-3.51Z" transform="translate(-4 -4)"/><path class="cls-3" d="M361.75,172.8l.16,0a25.21,25.21,0,0,0-.73-3.27,4.06,4.06,0,0,0-3.72-2.85,4.44,4.44,0,0,0-4.38,2,8.31,8.31,0,0,0,0,8.09,4.62,4.62,0,0,0,7.92-.45A7.14,7.14,0,0,0,361.75,172.8Z" transform="translate(-4 -4)"/><path class="cls-3" d="M356.1,149.83v-.18a86.51,86.51,0,0,1-19.45-2,25.29,25.29,0,0,1-6.61-2.28,15,15,0,0,1-2.5-1.84,2.29,2.29,0,0,1-.71-1.85c0-1,0-1.92,0-2.87A2.79,2.79,0,0,1,328,136.3a19.1,19.1,0,0,1,3.39-2,43.14,43.14,0,0,1,10.92-2.71,97.82,97.82,0,0,1,17.12-.86,72.2,72.2,0,0,1,19.26,2.78,16.28,16.28,0,0,1,5.16,2.45,3.37,3.37,0,0,1,1.53,3.11,17.72,17.72,0,0,0,0,2.43,3.06,3.06,0,0,1-1.16,2.57,13.8,13.8,0,0,1-4.71,2.48,48.07,48.07,0,0,1-11.2,2.38m-12.25-7.71V141c1.64,0,3.27,0,4.91,0a113.58,113.58,0,0,0,15-1.06,27.26,27.26,0,0,0,3.35-.78c.31-.09.55-.41.82-.63a5,5,0,0,0-.79-.65,3.5,3.5,0,0,0-1-.33c-1.48-.27-3-.58-4.46-.75a152.32,152.32,0,0,0-17.39-.84c-2.89,0-5.78.07-8.67.17a86.67,86.67,0,0,0-12.76,1.17,16.73,16.73,0,0,0-2.39.67c-.24.08-.41.38-.61.57a2.87,2.87,0,0,0,.59.53,4.22,4.22,0,0,0,1.14.4,53.12,53.12,0,0,0,5.41.86C344.81,140.64,350.44,140.91,356.06,141.22Z" transform="translate(-4 -4)"/><path class="cls-3" d="M361.75,172.8a7.14,7.14,0,0,1-.71,3.52,4.62,4.62,0,0,1-7.92.45,8.31,8.31,0,0,1,0-8.09,4.44,4.44,0,0,1,4.38-2,4.06,4.06,0,0,1,3.72,2.85,25.21,25.21,0,0,1,.73,3.27Z" transform="translate(-4 -4)"/><text class="cls-7" transform="translate(160.08 422.58) rotate(-90)">2012</text><text class="cls-7" transform="translate(364.41 420.23) rotate(-90)">2014</text></svg>