<?xml version="1.0" encoding="utf-8"?>
<!-- Generator: Adobe Illustrator 20.0.0, SVG Export Plug-In . SVG Version: 6.00 Build 0)  -->
<svg version="1.1" id="Layer_1" xmlns="http://www.w3.org/2000/svg" xmlns:xlink="http://www.w3.org/1999/xlink" x="0px" y="0px"
	 viewBox="0 0 612 612" style="enable-background:new 0 0 612 612;" xml:space="preserve">
<style type="text/css">
	.st0{fill:#FFF1CF;}
	.st1{fill:#FFEBBF;}
	
		.st2{fill:#FFEBBF;stroke:#F6881F;stroke-width:3;stroke-linecap:round;stroke-linejoin:round;stroke-miterlimit:10;stroke-dasharray:8;}
	.st3{fill:#6ABBCF;}
	.st4{fill:#FFFFFF;}
	.st5{fill:#F0843E;}
	.st6{fill:#B585AF;}
	.st7{fill:#0AB59A;}
	.st8{enable-background:new    ;}
	.st9{fill:#F6E7B0;}
	.st10{fill:#BF494A;}
</style>
<g>
	<g>
		<g>
			<g>
				<circle id="SVGID_1_" class="st0" cx="306" cy="306" r="306"/>
			</g>
		</g>
	</g>
	<g>
		<g>
			<circle id="SVGID_3_" class="st1" cx="306" cy="306" r="306"/>
		</g>
	</g>
	<path class="st2" d="M166.5,342.1c-38-72.8-14.3-160.2,52.8-195.3s152.4-4.4,190.3,68.4"/>
	<g>
		<circle class="st3" cx="322.4" cy="121.8" r="43.6"/>
		<path class="st4" d="M307,130.5c1.7,0,3.1,0.6,4.3,1.8c1.2,1.2,1.8,2.6,1.8,4.2c0,1.6-0.6,3-1.8,4.2c-1.2,1.2-2.6,1.8-4.3,1.8
			c-1.7,0-3.1-0.6-4.2-1.8s-1.7-2.6-1.7-4.2c0-1.6,0.6-3,1.7-4.2S305.4,130.5,307,130.5z M307,94.3c7.7,0,14.7,1.9,21.2,5.6
			s11.6,8.9,15.4,15.4c3.8,6.6,5.6,13.6,5.6,21.2c0,1.6-0.6,3-1.8,4.2c-1.2,1.2-2.6,1.8-4.3,1.8s-3.1-0.6-4.2-1.8s-1.7-2.6-1.7-4.2
			c0-8.3-2.9-15.4-8.9-21.4s-12.9-8.9-21.3-8.9c-1.7,0-3.1-0.6-4.2-1.8s-1.7-2.6-1.7-4.2s0.6-3,1.7-4.2
			C303.9,94.9,305.4,94.3,307,94.3z M307,112.5c6.7,0,12.4,2.3,17.1,7.1s7.1,10.4,7.1,17c0,1.6-0.6,3-1.8,4.2
			c-1.2,1.2-2.6,1.8-4.3,1.8c-1.7,0-3.1-0.6-4.2-1.8s-1.7-2.6-1.7-4.2c0-3.3-1.2-6.2-3.5-8.6c-2.3-2.4-5.2-3.5-8.6-3.5
			c-1.7,0-3.1-0.6-4.2-1.8c-1.1-1.2-1.7-2.6-1.7-4.2s0.6-3,1.7-4.2C303.9,113.1,305.4,112.5,307,112.5z"/>
	</g>
	<g>
		<g>
			<circle class="st3" cx="148.9" cy="215.2" r="43.6"/>
		</g>
		<g>
			<path class="st4" d="M152.8,191.7c7.3,0.6,11.5,5.2,12,11.3c0.4,3.1,0.3,5.3-0.2,7.1c4.1,0.1,9,2,9.3,8.8v6.7
				c-0.4,5.8-2.5,13-13.1,14.5c-2.4,0.3-5,0.1-8.6,0.1c-3.5-0.1-6.6-0.1-9.2,0c-10.8,0.2-16.6-4.5-16.7-14.6
				c-0.1-3.4,0.1-7.2,0-11.8c0-2.9-0.1-6,0-8.9c0-0.6-0.1-1.2,0.1-1.7c0.5-6.6,5.7-10.4,11.8-11.2L152.8,191.7L152.8,191.7z"/>
			<path class="st3" d="M140.8,200.8c-6.2,1-6.5,8.1,0,9h11.8c6.2-1,6.5-8.1,0-9H140.8z"/>
			<path class="st3" d="M138.1,220.4c-6.4,1-6.5,9,0.2,9.9l21.6,0.1c6.4-1,6.4-9-0.2-9.9L138.1,220.4L138.1,220.4z"/>
		</g>
	</g>
	<g>
		<path class="st5" d="M387.9,513.7l2.1,3.8c-1.4,0.9-2.4,1.9-3,3.2c-0.5,1.2-0.5,2.5,0.1,3.9c0.7,1.8,2.2,2.7,4.3,2.8
			c1.6,0.1,3.5-0.4,5.7-1.3c2.3-1,3.9-2.1,5-3.3c1.4-1.6,1.6-3.4,0.8-5.4c-0.6-1.4-1.5-2.3-2.8-2.8c-1.1-0.4-2.4-0.4-3.7,0l-1.2-4.1
			c2.5-0.6,4.8-0.4,6.9,0.5c2.1,1,3.7,2.7,4.7,5.2c1.3,3,1.1,6-0.6,8.8c-1.5,2.5-3.9,4.4-7.2,5.8c-3.1,1.3-6.2,1.6-9,0.9
			c-3.1-0.8-5.2-2.7-6.6-5.7c-1.1-2.5-1.2-4.9-0.3-7.2C384.1,516.8,385.6,515.1,387.9,513.7z"/>
		<path class="st5" d="M390.8,510.6c-3.1,1.3-6.2,1.6-9,0.8c-3.1-0.8-5.2-2.7-6.6-5.7c-1.3-3.1-1.1-6.1,0.5-8.9
			c1.5-2.5,3.7-4.4,6.8-5.7c3.1-1.3,6.2-1.6,9.1-0.9c3.2,0.8,5.5,2.7,6.8,5.7c1.4,3.2,1.2,6.3-0.5,9.1
			C396.5,507.4,394,509.3,390.8,510.6z M395,497.3c-0.8-2-2.3-3-4.5-3.1c-1.6-0.1-3.6,0.4-6,1.4s-3.9,2-4.9,3.2
			c-1.3,1.6-1.6,3.4-0.8,5.3c0.8,1.8,2.2,2.9,4.3,3c1.7,0.1,3.6-0.3,5.8-1.2c3.1-1.3,5.1-2.8,6.1-4.3
			C395.7,500.5,395.7,498.9,395,497.3z"/>
		<path class="st5" d="M380.5,474l-15.6,6.6l-1.4-3.4l22.4-9.5l1.4,3.4l-12.4,16.5l16.4-7l1.4,3.4l-22.4,9.5l-1.8-4.3L380.5,474z"/>
		<path class="st5" d="M362.1,463.8l18.9-8l1.7,4.1l-18.9,8l2.4,5.8l-3.5,1.5l-6.7-15.7l3.5-1.5L362.1,463.8z"/>
		<path class="st5" d="M371.6,433.6l6.2,14.5l-22.4,9.5l-6.2-14.5l3.3-1.4l4.3,10.4l6.3-2.6l-3.5-8.4l3.3-1.4l3.5,8.4l6.3-2.6
			l-4.3-10.4L371.6,433.6z"/>
		<path class="st5" d="M358.4,421.5l-15.6,6.6l-1.4-3.4l22.4-9.5l1.4,3.4l-12.4,16.5l16.4-7l1.4,3.4l-22.4,9.5l-1.8-4.3L358.4,421.5
			z"/>
		<path class="st5" d="M339.9,411.4l18.9-8l1.7,4.1l-18.9,8l2.4,5.7l-3.5,1.5l-6.7-15.7l3.5-1.5L339.9,411.4z"/>
	</g>
	<g>
		<path class="st6" d="M417.7,531.6l11.8-4.9l0.9,2.2l-10.2,4.2l11.6-0.9l0.5,1.2l-8.7,7.7l10.1-4.2l0.7,1.8l-11.8,4.9l-1.4-3.4
			l6.7-5.8l-8.8,0.7L417.7,531.6z"/>
		<path class="st6" d="M424.9,515.5l1,2.3l-2.3,2.1l1.7,4l3.1-0.2l0.8,1.8l-13.4,1.2l-1-2.4L424.9,515.5z M423.3,524.3l-1.3-3.1
			l-4.2,3.6L423.3,524.3z"/>
		<path class="st6" d="M418,509.1l-8.2,3.4l-0.7-1.8l11.8-4.9l0.8,1.8l-6.6,8.7l8.7-3.6l0.7,1.8l-11.8,4.9l-1-2.3L418,509.1z"/>
		<path class="st6" d="M416.1,494.8l1,2.3l-2.3,2.1l1.7,4l3.1-0.2l0.8,1.8L407,506l-1-2.4L416.1,494.8z M414.5,503.6l-1.3-3.1
			l-4.2,3.6L414.5,503.6z"/>
		<path class="st6" d="M410.9,486.5c0.6,0.1,1.2,0.4,1.7,0.7c0.6,0.4,1,1,1.3,1.7c0.7,1.6,0.6,3.2-0.3,4.6c-0.4,0.6-0.9,1.2-1.5,1.7
			s-1.4,0.9-2.2,1.3c-1.6,0.7-3.2,0.8-4.7,0.5c-1.6-0.4-2.8-1.4-3.4-2.9c-0.6-1.3-0.7-2.5-0.4-3.6c0.3-1,1-2,2-2.8l1.2,1.9
			c-0.7,0.4-1.1,0.9-1.3,1.5c-0.2,0.6-0.1,1.2,0.1,1.9l0.1,0.2l0.1,0.2c0.5,0.9,1.3,1.4,2.3,1.4c0.8,0.1,1.8-0.1,2.9-0.6
			c1.7-0.7,2.7-1.5,3.1-2.3c0.4-0.7,0.4-1.5,0-2.4c-0.3-0.8-0.8-1.3-1.6-1.5c-0.6-0.2-1.4-0.2-2.1,0l1.1,2.5l-1.8,0.7l-2-4.6
			l6.1-2.5l0.5,1.1L410.9,486.5z"/>
		<path class="st6" d="M408,475.3l3.2,7.7l-11.8,4.9l-3.2-7.7l1.7-0.7l2.3,5.4l3.3-1.4l-1.8-4.4l1.7-0.7l1.8,4.4l3.3-1.4l-2.3-5.4
			L408,475.3z"/>
		<path class="st6" d="M390.7,467.4l11.8-4.9l0.9,2.2l-10.2,4.2l11.6-0.9l0.5,1.2l-8.7,7.7l10.1-4.2l0.7,1.8l-11.8,4.9l-1.4-3.4
			l6.7-5.8l-8.8,0.7L390.7,467.4z"/>
		<path class="st6" d="M398.6,453.4l3.2,7.7L390,466l-3.2-7.7l1.7-0.7l2.3,5.4l3.3-1.4l-1.8-4.4l1.7-0.7l1.8,4.4l3.3-1.4l-2.3-5.4
			L398.6,453.4z"/>
		<path class="st6" d="M391.7,446.9l-8.2,3.4l-0.7-1.8l11.8-4.9l0.8,1.8l-6.6,8.7l8.7-3.6l0.7,1.8l-11.8,4.9l-1-2.3L391.7,446.9z"/>
		<path class="st6" d="M382,441.7l9.9-4.2l0.9,2.2l-9.9,4.2l1.3,3l-1.9,0.8l-3.5-8.3l1.9-0.8L382,441.7z"/>
	</g>
	<g>
		<path class="st7" d="M292.6,379.9l-2.3-15.2l2.9-1.2l3,20.9l-3.4,1.4l-9.4-11.8l2.4,14.7l-3.3,1.4l-13.1-16.6l3.5-1.5l9.4,12.2
			l-2.4-15.1l3.2-1.3L292.6,379.9z"/>
		<path class="st7" d="M314.9,376.4l-12.2,5.1l-8-18.8l12.2-5.1l1.2,2.7l-8.7,3.6l2.2,5.2l7-2.9l1.2,2.8l-7,2.9l2.2,5.2l8.7-3.6
			L314.9,376.4z"/>
		<path class="st7" d="M314.8,354.3c0.8-0.3,1.5-0.6,2.1-0.8c0.6-0.2,1.2-0.4,1.7-0.5c1.2-0.3,2.3-0.2,3.2,0.1
			c1,0.4,1.9,1.2,2.6,2.4l0.4,0.7c0.5,1.1,0.4,2.2-0.1,3.3c-0.2,0.4-0.7,1.1-1.5,1.9c1.2-0.2,2.4-0.1,3.4,0.4
			c1.1,0.5,1.9,1.3,2.4,2.4l0.2,0.5c0.5,1.8,0.3,3.4-0.7,4.7c-0.8,1-2.1,1.9-3.9,2.7l-8.2,3.4l-8-18.8L314.8,354.3z M319.3,361.8
			c0.9-0.4,1.5-0.9,1.8-1.5c0.4-0.7,0.4-1.6,0-2.6c-0.3-0.8-0.9-1.3-1.8-1.4c-0.7,0-1.5,0.1-2.3,0.5l-3.7,1.6l2.1,5L319.3,361.8z
			 M316.5,366.2l2.2,5.2l4.1-1.7c1-0.4,1.7-0.9,2.1-1.5c0.5-0.8,0.5-1.6,0.1-2.6c-0.4-0.9-1-1.4-1.9-1.5c-0.8-0.1-1.6,0-2.5,0.4
			L316.5,366.2z"/>
	</g>
	<path class="st3" d="M382.1,420.1l-9.1,1.4l-0.7-1.7l12.4-1.8l0.9,2l-7.1,5.5l8.8-1.4l0.8,2l-9.9,7.9l-0.9-2.1l7.3-5.6l-9,1.5
		l-0.8-1.9L382.1,420.1z"/>
	<path class="st5" d="M380.1,406.9l3,7.3l-11.2,4.7l-3.1-7.3l1.6-0.7l2.2,5.1l3.1-1.3l-1.8-4.1l1.6-0.7l1.8,4.1l3.1-1.3l-2.2-5.1
		L380.1,406.9z"/>
	<path class="st3" d="M366.9,407c-0.2-0.5-0.4-0.9-0.5-1.2c-0.1-0.4-0.2-0.7-0.3-1c-0.2-0.7-0.1-1.4,0.1-1.9
		c0.2-0.6,0.7-1.1,1.4-1.6l0.4-0.2c0.6-0.3,1.3-0.3,2,0c0.3,0.1,0.6,0.4,1.2,0.9c-0.1-0.7,0-1.4,0.2-2c0.3-0.7,0.8-1.1,1.5-1.4
		l0.3-0.1c1.1-0.3,2-0.2,2.8,0.4c0.6,0.5,1.2,1.2,1.6,2.3l2,4.8l-11.2,4.7L366.9,407z M371.4,404.2c-0.2-0.5-0.5-0.9-0.9-1.1
		s-0.9-0.2-1.5,0c-0.5,0.2-0.8,0.6-0.8,1.1c0,0.4,0.1,0.9,0.3,1.4l0.9,2.2l3-1.3L371.4,404.2z M374,405.8l3.1-1.3l-1-2.4
		c-0.3-0.6-0.6-1-0.9-1.3c-0.5-0.3-1-0.3-1.5-0.1c-0.5,0.2-0.8,0.6-0.9,1.1c-0.1,0.4,0,0.9,0.2,1.5L374,405.8z"/>
	<path class="st3" d="M363.4,391.9l1.2,1.6c-0.3,0.4-0.5,0.8-0.6,1.2c-0.1,0.4,0,0.9,0.2,1.4s0.5,0.9,0.9,1.2
		c0.4,0.2,0.8,0.3,1.2,0.1c0.5-0.2,0.7-0.6,0.7-1.3c0-0.3-0.1-0.9-0.2-1.7c-0.1-0.9-0.2-1.6-0.2-2.1c0-0.7,0.2-1.3,0.4-1.8
		c0.3-0.6,0.9-1,1.6-1.3c1-0.4,2-0.4,3,0.2c0.9,0.6,1.7,1.5,2.2,2.7c0.5,1.1,0.6,2.1,0.5,3c-0.2,1-0.7,1.9-1.5,2.5l-1.2-1.7
		c0.4-0.3,0.7-0.8,0.8-1.4c0.1-0.6,0-1.2-0.3-1.7c-0.3-0.7-0.6-1.1-1-1.4c-0.5-0.4-1-0.4-1.5-0.2c-0.6,0.3-0.8,1-0.7,2.2l0.4,2.9
		c0,0.8-0.2,1.4-0.5,1.9s-0.8,0.8-1.5,1.1c-1,0.4-1.9,0.4-2.9-0.2c-0.9-0.5-1.5-1.2-2-2.3c-0.4-1-0.5-1.9-0.4-2.7
		C362.4,393.2,362.8,392.5,363.4,391.9z"/>
	<path class="st3" d="M360.4,391.4l-0.9-2.1l11.2-4.7l0.9,2.1L360.4,391.4z"/>
	<path class="st3" d="M358.7,382.8l9.4-4l0.9,2.1l-9.4,4l1.2,2.9l-1.8,0.7l-3.3-7.9l1.8-0.7L358.7,382.8z"/>
	<path class="st7" d="M363.2,367.1l3,7.3l-11.2,4.7l-3-7.3l1.6-0.7l2.2,5.1l3.1-1.3l-1.8-4.1l1.6-0.7l1.8,4.1l3.1-1.3l-2.2-5.1
		L363.2,367.1z"/>
	<path class="st7" d="M341.5,376.1l1.2,1.6c-0.3,0.4-0.5,0.8-0.6,1.2c-0.1,0.4,0,0.9,0.2,1.4s0.5,0.9,0.9,1.2
		c0.4,0.2,0.8,0.3,1.2,0.1c0.5-0.2,0.7-0.6,0.7-1.3c0-0.3-0.1-0.9-0.2-1.7c-0.1-0.9-0.2-1.6-0.2-2.1c0-0.7,0.2-1.3,0.4-1.8
		c0.3-0.6,0.9-1,1.6-1.3c1-0.4,2-0.4,3,0.2c0.9,0.6,1.7,1.5,2.2,2.7c0.5,1.1,0.6,2.1,0.5,3c-0.2,1-0.7,1.9-1.5,2.5l-1.2-1.7
		c0.4-0.3,0.7-0.8,0.8-1.4c0.1-0.6,0-1.2-0.3-1.7c-0.3-0.7-0.6-1.1-1-1.4c-0.5-0.4-1-0.4-1.5-0.2c-0.6,0.3-0.8,1-0.7,2.2l0.4,2.9
		c0,0.8-0.2,1.4-0.5,1.9s-0.8,0.8-1.5,1.1c-1,0.4-1.9,0.4-2.9-0.2c-0.9-0.5-1.5-1.2-2-2.3c-0.4-1-0.5-1.9-0.4-2.7
		C340.5,377.4,340.9,376.6,341.5,376.1z"/>
	<path class="st7" d="M376.5,360.1l0.9,2.2l-2.2,2l1.6,3.8l2.9-0.2l0.7,1.7l-12.7,1.1l-1-2.3L376.5,360.1z M375.1,368.4l-1.2-2.9
		l-4,3.4L375.1,368.4z"/>
	<path class="st7" d="M390.5,354.8l0.9,2.2l-3.6,3.7l1,2.3l4.4-1.9l0.9,2.1L383,368l-1.6-3.7c-0.6-1.4-0.8-2.7-0.6-3.7
		c0.2-1.2,1-2,2.3-2.6c0.6-0.3,1.2-0.3,1.8-0.1c0.6,0.2,1.1,0.5,1.6,1L390.5,354.8z M386.2,361.5c-0.2-0.5-0.5-0.9-0.9-1.2
		c-0.5-0.3-1-0.3-1.5-0.1c-0.6,0.2-0.9,0.6-1,1.2c-0.1,0.4,0,1,0.3,1.6l0.9,2.2l3.2-1.4L386.2,361.5z"/>
	<path class="st7" d="M396,352.1l1,1.9c-0.7,0.4-1.2,1-1.5,1.6s-0.2,1.3,0.1,2c0.4,0.9,1.1,1.3,2.1,1.4c0.8,0,1.8-0.2,2.9-0.7
		s2-1,2.5-1.7c0.7-0.8,0.8-1.7,0.4-2.7c-0.3-0.7-0.8-1.2-1.4-1.4c-0.6-0.2-1.2-0.2-1.8,0l-0.6-2c1.3-0.3,2.4-0.2,3.4,0.2
		c1.1,0.5,1.8,1.4,2.4,2.6c0.6,1.5,0.5,2.9-0.3,4.3c-0.7,1.2-1.9,2.2-3.5,2.9c-1.6,0.7-3,0.8-4.4,0.5c-1.5-0.4-2.6-1.3-3.2-2.8
		c-0.5-1.2-0.6-2.4-0.2-3.5C394,353.6,394.9,352.8,396,352.1z"/>
	<path class="st7" d="M415.4,351.6l4.7-2l0.9,2.1l-11.2,4.7l-0.9-2.1l4.7-2l-1.7-4l-4.7,2l-0.9-2.1l11.2-4.7l0.9,2.1l-4.7,2
		L415.4,351.6z"/>
	<path class="st5" d="M357.8,389.6l0.9,2.2l-3.6,3.7l1,2.3l4.4-1.9l0.9,2.1l-11.2,4.7l-1.6-3.7c-0.6-1.4-0.8-2.7-0.6-3.7
		c0.2-1.2,1-2,2.3-2.6c0.6-0.3,1.2-0.3,1.8-0.1c0.6,0.2,1.1,0.5,1.6,1L357.8,389.6z M353.5,396.3c-0.2-0.5-0.5-0.9-0.9-1.2
		c-0.5-0.3-1-0.3-1.5-0.1c-0.6,0.2-0.9,0.6-1,1.2c-0.1,0.4,0,1,0.3,1.6l0.9,2.2l3.2-1.4L353.5,396.3z"/>
	<path class="st5" d="M354.3,381.3l3,7.3l-11.2,4.7l-3-7.3l1.6-0.7l2.2,5.1l3.1-1.3l-1.8-4.1l1.6-0.7l1.8,4.1l3.1-1.3l-2.2-5.1
		L354.3,381.3z"/>
	<path class="st5" d="M347.6,365.3c0.7,1.6,0.7,2.8,0.2,3.8c-0.4,0.8-1.3,1.5-2.6,2l-7.2,3l-0.9-2.1l7.2-3c0.7-0.3,1.2-0.7,1.5-1.1
		c0.3-0.6,0.3-1.3,0-2.1c-0.4-0.8-0.8-1.3-1.4-1.5c-0.5-0.1-1-0.1-1.7,0.2l-7.5,3.1l-0.7-1.7l7.6-3.2c1.1-0.5,2.1-0.6,3-0.2
		C346,363,346.9,363.9,347.6,365.3z"/>
	<path class="st5" d="M345.2,359.9l-11.2,4.7l-0.9-2.1l9.4-4l-1.9-4.5l1.8-0.7L345.2,359.9z"/>
	<path class="st5" d="M330.7,351.9l9.4-4l0.9,2.1l-9.4,4l1.2,2.9l-1.8,0.7l-3.3-7.9l1.8-0.7L330.7,351.9z"/>
	<path class="st5" d="M326.2,339.9l1.2,1.6c-0.3,0.4-0.5,0.8-0.6,1.2c-0.1,0.4,0,0.9,0.2,1.4s0.5,0.9,0.9,1.2
		c0.4,0.2,0.8,0.3,1.2,0.1c0.5-0.2,0.7-0.6,0.7-1.3c0-0.3-0.1-0.9-0.2-1.7c-0.1-0.9-0.2-1.6-0.2-2.1c0-0.7,0.2-1.3,0.4-1.8
		c0.3-0.6,0.9-1,1.6-1.3c1-0.4,2-0.4,3,0.2c0.9,0.6,1.7,1.5,2.2,2.7c0.5,1.1,0.6,2.1,0.5,3c-0.2,1-0.7,1.9-1.5,2.5l-1.2-1.7
		c0.4-0.3,0.7-0.8,0.8-1.4c0.1-0.6,0-1.1-0.3-1.7c-0.3-0.7-0.6-1.1-1-1.4c-0.5-0.4-1-0.4-1.5-0.2c-0.6,0.3-0.8,1-0.7,2.2l0.4,2.9
		c0,0.8-0.2,1.5-0.5,1.9c-0.3,0.5-0.8,0.8-1.5,1.1c-1,0.4-1.9,0.4-2.9-0.2c-0.9-0.5-1.5-1.2-2-2.3c-0.4-1-0.5-1.9-0.4-2.7
		C325.2,341.2,325.6,340.5,326.2,339.9z"/>
	<path class="st5" d="M391.3,403.1l-7.8,3.3l-0.7-1.7L394,400l0.7,1.7l-6.2,8.3l8.2-3.4l0.7,1.7l-11.2,4.7l-0.9-2.1L391.3,403.1z"/>
	<path class="st7" d="M406.3,396c0.6,0.1,1.2,0.3,1.6,0.7c0.5,0.4,1,1,1.2,1.6c0.7,1.6,0.6,3-0.3,4.4c-0.4,0.6-0.9,1.1-1.4,1.6
		c-0.6,0.5-1.3,0.9-2.1,1.2c-1.5,0.6-3,0.8-4.4,0.4c-1.5-0.4-2.6-1.3-3.2-2.8c-0.5-1.2-0.6-2.4-0.4-3.4c0.3-1,0.9-1.9,1.9-2.7
		l1.1,1.8c-0.6,0.4-1,0.9-1.2,1.4c-0.2,0.6-0.1,1.2,0.1,1.8l0.1,0.2l0.1,0.2c0.5,0.8,1.2,1.3,2.2,1.4c0.8,0.1,1.7-0.1,2.8-0.6
		c1.6-0.7,2.6-1.4,3-2.2c0.4-0.7,0.4-1.4,0-2.2c-0.3-0.7-0.8-1.2-1.5-1.5c-0.6-0.2-1.3-0.2-2,0l1,2.4l-1.7,0.7l-1.9-4.4l5.7-2.4
		l0.4,1L406.3,396z"/>
	<path class="st5" d="M411.6,398.6l-0.9-2.1l11.2-4.7l0.9,2.1L411.6,398.6z"/>
	<path class="st5" d="M431.3,386.2l-7.8,3.3l-0.7-1.7l11.2-4.7l0.7,1.7l-6.2,8.3l8.2-3.4l0.7,1.7l-11.2,4.7l-0.9-2.1L431.3,386.2z"
		/>
	<path class="st5" d="M446.8,378.1l3,7.3l-11.2,4.7l-3-7.3l1.6-0.7l2.2,5.1l3.1-1.3l-1.8-4.1l1.6-0.7l1.8,4.1l3.1-1.3l-2.2-5.1
		L446.8,378.1z"/>
	<path class="st5" d="M451.2,376l1.2,1.6c-0.3,0.4-0.5,0.8-0.6,1.2c-0.1,0.4,0,0.9,0.2,1.4s0.5,0.9,0.9,1.2c0.4,0.2,0.8,0.3,1.2,0.1
		c0.5-0.2,0.7-0.6,0.7-1.3c0-0.3-0.1-0.9-0.2-1.7c-0.1-0.9-0.2-1.6-0.2-2.1c0-0.7,0.2-1.3,0.4-1.8c0.3-0.6,0.9-1,1.6-1.3
		c1-0.4,2-0.4,3,0.2c0.9,0.6,1.7,1.5,2.2,2.7c0.5,1.1,0.6,2.1,0.5,3c-0.2,1-0.7,1.9-1.5,2.5l-1.2-1.7c0.4-0.3,0.7-0.8,0.8-1.4
		c0.1-0.6,0-1.2-0.3-1.7c-0.3-0.7-0.6-1.1-1-1.4c-0.5-0.4-1-0.4-1.5-0.2c-0.6,0.3-0.8,1-0.7,2.2l0.4,2.9c0,0.8-0.2,1.4-0.5,1.9
		s-0.8,0.8-1.5,1.1c-1,0.4-1.9,0.4-2.9-0.2c-0.9-0.5-1.5-1.2-2-2.3c-0.4-1-0.5-1.9-0.4-2.7C450.2,377.3,450.5,376.5,451.2,376z"/>
	<path class="st5" d="M430.3,501.6c-1.5,0.7-3,0.8-4.5,0.4s-2.6-1.4-3.2-2.8c-0.6-1.5-0.6-3,0.2-4.4c0.7-1.2,1.8-2.2,3.3-2.8
		c1.5-0.7,3-0.8,4.5-0.5c1.6,0.4,2.7,1.3,3.4,2.8c0.7,1.6,0.6,3.1-0.2,4.5C433.1,499.9,431.9,501,430.3,501.6z M432.3,495
		c-0.4-1-1.2-1.5-2.2-1.6c-0.8,0-1.8,0.2-3,0.7c-1.1,0.5-1.9,1-2.5,1.6c-0.7,0.8-0.8,1.7-0.4,2.7c0.4,0.9,1.1,1.4,2.1,1.5
		c0.8,0.1,1.8-0.1,2.9-0.6c1.6-0.7,2.6-1.4,3-2.1C432.6,496.5,432.6,495.8,432.3,495z"/>
	<path class="st5" d="M431.5,488.2l-11.2,4.7l-1.6-3.7c-0.6-1.5-0.8-2.7-0.6-3.7c0.2-1.2,1-2,2.3-2.6c1-0.4,2-0.4,2.9,0.2
		c0.8,0.5,1.4,1.3,1.8,2.3l1.1,2.5l4.2-1.8L431.5,488.2z M423.6,486.4c-0.2-0.6-0.5-0.9-0.9-1.2c-0.4-0.3-0.9-0.3-1.6,0
		c-0.5,0.2-0.9,0.6-1,1.1s0,1,0.2,1.5l0.9,2.2l3.2-1.4L423.6,486.4z"/>
	<path class="st5" d="M416.1,478.3l9.4-4l0.9,2.1l-9.4,4l1.2,2.9l-1.8,0.7l-3.3-7.9l1.8-0.7L416.1,478.3z"/>
	<path class="st5" d="M412.7,475.1l-0.9-2.1l11.2-4.6l0.9,2.1L412.7,475.1z"/>
	<path class="st5" d="M406.5,460.4l11.2-4.7l0.9,2.1l-9.6,4l11-0.9l0.5,1.1l-8.3,7.3l9.6-4l0.7,1.7l-11.2,4.7l-1.4-3.2l6.3-5.5
		l-8.4,0.7L406.5,460.4z"/>
	<path class="st5" d="M405.8,459.1l-0.9-2.1l11.2-4.7l0.9,2.1L405.8,459.1z"/>
	<path class="st5" d="M414.1,451.8l-10.3-2.5l2.3,5.4l-1.8,0.7l-3.4-8.1l1.7-0.7l10.2,2.5l-2.5-5.8l1.7-0.7l3.6,8.6L414.1,451.8z"/>
	<path class="st5" d="M407.8,432.4l0.9,2.2l-2.2,2l1.6,3.8l2.9-0.2l0.7,1.7L399,443l-1-2.3L407.8,432.4z M406.3,440.6l-1.2-2.9
		l-4,3.4L406.3,440.6z"/>
	<path class="st5" d="M396,430.9l9.4-4l0.9,2.1l-9.4,4l1.2,2.9l-1.8,0.7l-3.3-7.9l1.8-0.7L396,430.9z"/>
	<path class="st5" d="M392.6,427.8l-0.9-2.1l11.2-4.7l0.9,2.1L392.6,427.8z"/>
	<path class="st5" d="M396.6,422.4c-1.5,0.7-3,0.8-4.5,0.4s-2.6-1.4-3.2-2.8c-0.6-1.5-0.6-3,0.2-4.4c0.7-1.2,1.8-2.2,3.3-2.8
		c1.5-0.7,3-0.8,4.5-0.5c1.6,0.4,2.7,1.3,3.4,2.8c0.7,1.6,0.6,3.1-0.2,4.5C399.4,420.8,398.2,421.7,396.6,422.4z M398.7,415.7
		c-0.4-1-1.2-1.5-2.2-1.5c-0.8,0-1.8,0.2-3,0.7c-1.1,0.5-1.9,1-2.5,1.6c-0.7,0.8-0.8,1.7-0.4,2.6s1.1,1.4,2.1,1.5
		c0.8,0.1,1.8-0.1,2.9-0.6c1.6-0.7,2.6-1.4,3-2.1C399,417.3,399,416.5,398.7,415.7z"/>
	<g>
		<path class="st7" d="M425.9,468.4l11.2-4.7l0.9,2.1l-9.6,4l11-0.9l0.5,1.1l-8.3,7.3l9.6-4l0.7,1.7l-11.2,4.7l-1.4-3.2l6.3-5.5
			l-8.4,0.7L425.9,468.4z"/>
		<path class="st7" d="M432.7,453l0.9,2.2l-2.2,2l1.6,3.8l2.9-0.2l0.7,1.7l-12.7,1.1l-1-2.3L432.7,453z M431.2,461.4l-1.2-2.9
			l-4,3.4L431.2,461.4z"/>
		<path class="st7" d="M428.6,443.7l0.9,2.2l-3.6,3.7l1,2.3l4.4-1.9l0.9,2.1l-11.2,4.7l-1.6-3.7c-0.6-1.4-0.8-2.7-0.6-3.7
			c0.2-1.2,1-2,2.3-2.6c0.6-0.3,1.2-0.3,1.8-0.1s1.1,0.5,1.6,1L428.6,443.7z M424.3,450.3c-0.2-0.5-0.5-0.9-0.9-1.2
			c-0.5-0.3-1-0.3-1.5-0.1c-0.6,0.2-0.9,0.6-1,1.2c-0.1,0.5,0,1,0.3,1.6l0.9,2.2l3.2-1.4L424.3,450.3z"/>
		<path class="st7" d="M414.2,440.7l-0.9-2.1l5.1,1.4l6-6.4l1,2.3l-4.5,4.7l3.7,1l2.8-1.2l0.9,2.1l-11.2,4.7l-0.9-2.1l6-2.5
			L414.2,440.7z"/>
		<path class="st7" d="M421,425.6l3,7.3l-11.2,4.7l-3-7.3l1.6-0.7l2.2,5.1l3.1-1.3l-1.8-4.1l1.6-0.7l1.8,4.1l3.1-1.3l-2.2-5.1
			L421,425.6z"/>
		<path class="st7" d="M409.3,424.2l9.4-4l0.9,2.1l-9.4,4l1.2,2.9l-1.8,0.7l-3.3-7.9l1.8-0.7L409.3,424.2z"/>
		<path class="st7" d="M405.8,421.1l-0.9-2.1l11.2-4.7l0.9,2.1L405.8,421.1z"/>
		<path class="st7" d="M409.5,407.8l-7.8,3.3l-0.7-1.7l11.2-4.7l0.7,1.7l-6.2,8.3l8.2-3.4l0.7,1.7l-11.2,4.7l-0.9-2.1L409.5,407.8z"
			/>
	</g>
	<g>
		<path class="st6" d="M334,294.4l-3.8,2.1c-0.9-1.4-1.9-2.4-3.2-3c-1.2-0.5-2.5-0.5-3.9,0.1c-1.8,0.7-2.7,2.2-2.8,4.3
			c-0.1,1.6,0.4,3.5,1.3,5.7c1,2.3,2.1,3.9,3.3,5c1.6,1.4,3.4,1.6,5.4,0.8c1.4-0.6,2.3-1.5,2.8-2.8c0.4-1.1,0.4-2.4,0-3.7l4.1-1.2
			c0.6,2.5,0.4,4.8-0.5,6.9c-1,2.1-2.7,3.7-5.2,4.7c-3,1.3-6,1.1-8.8-0.6c-2.5-1.5-4.4-3.9-5.8-7.2c-1.3-3.1-1.6-6.2-0.9-9
			c0.8-3.1,2.7-5.2,5.7-6.6c2.5-1.1,4.9-1.2,7.2-0.3C330.9,290.6,332.7,292.1,334,294.4z"/>
		<path class="st6" d="M337.1,297.3c-1.3-3.1-1.6-6.2-0.8-9c0.8-3.1,2.7-5.2,5.7-6.6c3.1-1.3,6.1-1.1,8.9,0.5
			c2.5,1.5,4.4,3.7,5.7,6.8c1.3,3.1,1.6,6.2,0.9,9.1c-0.8,3.2-2.7,5.5-5.7,6.8c-3.2,1.4-6.3,1.2-9.1-0.5
			C340.4,303,338.5,300.6,337.1,297.3z M350.4,301.5c2-0.8,3-2.3,3.1-4.5c0.1-1.6-0.4-3.6-1.4-6c-1-2.3-2-3.9-3.2-4.9
			c-1.6-1.3-3.3-1.6-5.3-0.8c-1.8,0.8-2.9,2.2-3,4.3c-0.1,1.7,0.3,3.6,1.2,5.8c1.3,3.1,2.8,5.1,4.3,6.1
			C347.4,302.2,348.8,302.2,350.4,301.5z"/>
		<path class="st6" d="M373.8,287l-6.6-15.6l3.4-1.4l9.5,22.4l-3.5,1.5l-16.5-12.4l7,16.4l-3.4,1.4l-9.5-22.4l4.3-1.8L373.8,287z"/>
		<path class="st6" d="M383.9,268.6l8,18.9l-4.1,1.7l-8-18.9l-5.8,2.4l-1.5-3.5l15.7-6.7l1.5,3.5L383.9,268.6z"/>
		<path class="st6" d="M414.1,278.1l-14.5,6.2l-9.5-22.4l14.5-6.2l1.4,3.3l-10.4,4.3l2.6,6.3l8.4-3.5l1.4,3.3l-8.4,3.5l2.6,6.3
			l10.4-4.3L414.1,278.1z"/>
		<path class="st6" d="M426.2,265l-6.6-15.6l3.4-1.4l9.5,22.4l-3.5,1.4l-16.5-12.4l7,16.4l-3.4,1.4l-9.5-22.4l4.3-1.8L426.2,265z"/>
		<path class="st6" d="M436.3,246.4l8,18.9l-4.1,1.7l-8-18.9l-5.8,2.4l-1.5-3.5l15.7-6.7l1.5,3.5L436.3,246.4z"/>
	</g>
	<g>
		<path class="st5" d="M316.2,324.3l4.9,11.8l-2.2,0.9l-4.2-10.2l0.9,11.6l-1.2,0.5l-7.7-8.7l4.2,10.2l-1.8,0.7l-4.9-11.8l3.4-1.4
			l5.8,6.7l-0.7-8.8L316.2,324.3z"/>
		<path class="st5" d="M332.2,331.4l-2.3,1l-2.1-2.3l-4,1.7l0.2,3.1l-1.8,0.8l-1.2-13.4l2.4-1L332.2,331.4z M323.4,329.8l3.1-1.3
			l-3.6-4.2L323.4,329.8z"/>
		<path class="st5" d="M338.6,324.5l-3.4-8.2l1.8-0.7l4.9,11.8l-1.8,0.8l-8.7-6.6l3.6,8.7l-1.8,0.7l-4.9-11.8l2.3-1L338.6,324.5z"/>
		<path class="st5" d="M353,322.6l-2.3,1l-2.1-2.3l-4,1.7l0.2,3.1l-1.8,0.8l-1.2-13.4l2.4-1L353,322.6z M344.2,321l3.1-1.3l-3.6-4.2
			L344.2,321z"/>
		<path class="st5" d="M361.2,317.4c-0.1,0.6-0.4,1.2-0.7,1.7c-0.4,0.6-1,1-1.7,1.3c-1.6,0.7-3.2,0.6-4.6-0.3
			c-0.6-0.4-1.2-0.9-1.7-1.5s-0.9-1.4-1.3-2.2c-0.7-1.6-0.8-3.2-0.4-4.7c0.4-1.6,1.4-2.8,2.9-3.4c1.3-0.6,2.5-0.7,3.6-0.4
			c1,0.3,2,1,2.8,2l-1.9,1.2c-0.4-0.7-0.9-1.1-1.5-1.3c-0.6-0.2-1.2-0.1-1.9,0.1l-0.2,0.1l-0.2,0.1c-0.9,0.5-1.4,1.3-1.4,2.3
			c-0.1,0.8,0.1,1.8,0.6,2.9c0.7,1.7,1.5,2.7,2.3,3.1c0.7,0.4,1.5,0.4,2.4,0c0.8-0.3,1.3-0.9,1.5-1.6c0.2-0.6,0.2-1.4,0-2.1
			l-2.5,1.1l-0.7-1.8l4.6-2l2.5,6.1l-1.1,0.5L361.2,317.4z"/>
		<path class="st5" d="M372.4,314.5l-7.7,3.2l-4.9-11.8l7.7-3.2l0.7,1.7l-5.4,2.3l1.4,3.3l4.4-1.8l0.7,1.7l-4.4,1.8l1.4,3.3l5.4-2.3
			L372.4,314.5z"/>
		<path class="st5" d="M380.3,297.2l4.9,11.8l-2.2,0.9l-4.2-10.2l0.9,11.6l-1.2,0.5l-7.7-8.7l4.2,10.1l-1.8,0.7l-4.9-11.8l3.4-1.4
			l5.8,6.7l-0.7-8.8L380.3,297.2z"/>
		<path class="st5" d="M394.5,305.1l-7.7,3.2l-4.9-11.8l7.7-3.2l0.7,1.7l-5.4,2.3l1.4,3.3l4.4-1.8l0.7,1.7l-4.4,1.8l1.4,3.3l5.4-2.3
			L394.5,305.1z"/>
		<path class="st5" d="M400.8,298.2l-3.4-8.2l1.8-0.7l4.9,11.8l-1.8,0.8l-8.7-6.6l3.6,8.7l-1.8,0.7l-4.9-11.8l2.3-1L400.8,298.2z"/>
		<path class="st5" d="M406.2,288.6l4.2,9.9l-2.2,0.9l-4.2-9.9l-3,1.3l-0.8-1.9l8.3-3.5l0.8,1.9L406.2,288.6z"/>
	</g>
	<g>
		<path class="st7" d="M490.3,212.1l-15.2,2.3l-1.2-2.9l20.9-3l1.4,3.4l-11.8,9.4l14.8-2.3l1.4,3.3L484,235.4l-1.5-3.5l12.2-9.4
			l-15.1,2.4l-1.3-3.2L490.3,212.1z"/>
		<path class="st7" d="M486.7,189.9l5.1,12.2l-18.8,8l-5.1-12.2l2.8-1.2l3.6,8.7l5.2-2.2l-2.9-7l2.7-1.2l2.9,7l5.2-2.2L484,191
			L486.7,189.9z"/>
		<path class="st7" d="M464.6,189.9c-0.3-0.8-0.6-1.5-0.8-2.1c-0.2-0.6-0.4-1.2-0.5-1.7c-0.3-1.2-0.2-2.3,0.1-3.2
			c0.4-1,1.2-1.9,2.4-2.6l0.7-0.4c1.1-0.5,2.2-0.4,3.3,0.1c0.4,0.2,1.1,0.7,1.9,1.5c-0.2-1.2-0.1-2.4,0.4-3.4
			c0.5-1.1,1.3-1.9,2.4-2.4l0.5-0.2c1.8-0.5,3.4-0.3,4.7,0.7c1,0.8,1.9,2.1,2.7,3.9l3.4,8.2l-18.8,8L464.6,189.9z M472.1,185.5
			c-0.4-0.9-0.9-1.5-1.5-1.8c-0.7-0.4-1.6-0.4-2.6,0c-0.8,0.3-1.3,0.9-1.4,1.8c0,0.7,0.1,1.5,0.5,2.3l1.6,3.7l5-2.1L472.1,185.5z
			 M476.5,188.2l5.2-2.2l-1.7-4.1c-0.4-1-0.9-1.7-1.5-2.1c-0.8-0.5-1.6-0.5-2.6-0.1c-0.9,0.4-1.4,1-1.5,1.9c-0.1,0.8,0,1.6,0.4,2.5
			L476.5,188.2z"/>
	</g>
	<path class="st3" d="M427.6,288.7l-1.4-9.1l1.7-0.7l1.8,12.4l-2,0.9l-5.5-7.1l1.4,8.8l-2,0.8l-7.9-9.9l2.1-0.9l5.6,7.3l-1.5-9
		l1.9-0.8L427.6,288.7z"/>
	<path class="st5" d="M440.8,286.6l-7.3,3l-4.7-11.2l7.3-3.1l0.7,1.6l-5.1,2.2l1.3,3.1l4.1-1.8l0.7,1.6l-4.1,1.8l1.3,3.1l5.1-2.2
		L440.8,286.6z"/>
	<path class="st3" d="M440.8,273.4c0.5-0.2,0.9-0.4,1.2-0.5c0.4-0.1,0.7-0.2,1-0.3c0.7-0.2,1.4-0.1,1.9,0.1c0.6,0.2,1.1,0.7,1.6,1.4
		l0.2,0.4c0.3,0.6,0.3,1.3,0,2c-0.1,0.3-0.4,0.6-0.9,1.2c0.7-0.1,1.4,0,2,0.2c0.7,0.3,1.1,0.8,1.4,1.5l0.1,0.3
		c0.3,1.1,0.2,2-0.4,2.8c-0.5,0.6-1.2,1.2-2.3,1.6l-4.8,2l-4.7-11.2L440.8,273.4z M443.5,277.9c0.5-0.2,0.9-0.5,1.1-0.9
		s0.2-0.9,0-1.5c-0.2-0.5-0.6-0.8-1.1-0.8c-0.4,0-0.9,0.1-1.4,0.3l-2.2,0.9l1.3,3L443.5,277.9z M441.9,280.5l1.3,3.1l2.4-1
		c0.6-0.3,1-0.6,1.3-0.9c0.3-0.5,0.3-1,0.1-1.5c-0.2-0.5-0.6-0.8-1.1-0.9c-0.4-0.1-0.9,0-1.5,0.2L441.9,280.5z"/>
	<path class="st3" d="M455.8,269.9l-1.6,1.2c-0.4-0.3-0.8-0.5-1.2-0.6c-0.5-0.1-0.9,0-1.4,0.2s-0.9,0.5-1.2,0.9
		c-0.2,0.4-0.3,0.8-0.1,1.2c0.2,0.5,0.6,0.7,1.3,0.7c0.3,0,0.9-0.1,1.7-0.2c0.9-0.1,1.6-0.2,2.1-0.2c0.7,0,1.3,0.2,1.8,0.4
		c0.6,0.3,1,0.9,1.3,1.6c0.4,1,0.4,2-0.2,3c-0.6,0.9-1.5,1.7-2.7,2.2c-1.1,0.5-2.1,0.6-3,0.5c-1-0.2-1.9-0.7-2.5-1.5l1.7-1.2
		c0.3,0.4,0.8,0.7,1.4,0.8c0.6,0.1,1.2,0,1.7-0.3c0.7-0.3,1.1-0.6,1.4-1c0.4-0.5,0.4-1,0.2-1.5c-0.3-0.6-1-0.8-2.2-0.7l-2.9,0.4
		c-0.8,0-1.4-0.2-1.9-0.5s-0.8-0.8-1.1-1.5c-0.4-1-0.4-1.9,0.2-2.9c0.5-0.9,1.2-1.5,2.3-2c1-0.4,1.9-0.5,2.7-0.4
		C454.5,268.9,455.2,269.3,455.8,269.9z"/>
	<path class="st3" d="M456.3,266.9l2.1-0.9l4.7,11.2l-2,0.9L456.3,266.9z"/>
	<path class="st3" d="M465.1,265.3l4,9.4l-2.1,0.9l-4-9.4l-2.9,1.2l-0.7-1.8l7.9-3.3l0.7,1.8L465.1,265.3z"/>
	<path class="st7" d="M480.6,269.7l-7.3,3l-4.7-11.2l7.3-3.1l0.7,1.6l-5.1,2.2l1.3,3.1l4.1-1.8l0.7,1.6l-4.1,1.8l1.3,3.1l5.1-2.2
		L480.6,269.7z"/>
	<path class="st7" d="M471.7,248l-1.6,1.2c-0.4-0.3-0.8-0.5-1.2-0.6c-0.5-0.1-0.9,0-1.4,0.2s-0.9,0.5-1.2,0.9
		c-0.2,0.4-0.3,0.8-0.1,1.2c0.2,0.5,0.6,0.7,1.3,0.7c0.3,0,0.9-0.1,1.7-0.2c0.9-0.1,1.6-0.2,2.1-0.2c0.7,0,1.3,0.2,1.8,0.4
		c0.6,0.3,1,0.9,1.3,1.6c0.4,1,0.4,2-0.2,3c-0.6,0.9-1.5,1.7-2.7,2.2c-1.1,0.5-2.1,0.6-3,0.5c-1-0.2-1.9-0.7-2.5-1.5l1.7-1.2
		c0.3,0.4,0.8,0.7,1.4,0.8c0.6,0.1,1.1,0,1.7-0.3c0.7-0.3,1.1-0.6,1.4-1c0.4-0.5,0.4-1,0.2-1.5c-0.3-0.6-1-0.8-2.2-0.7l-2.9,0.4
		c-0.8,0-1.4-0.2-1.9-0.5s-0.8-0.8-1.1-1.5c-0.4-1-0.4-1.9,0.2-2.9c0.5-0.9,1.2-1.5,2.3-2c1-0.4,1.9-0.5,2.7-0.4
		C470.4,247,471.1,247.4,471.7,248z"/>
	<path class="st7" d="M487.6,283.1l-2.2,0.9l-2-2.2l-3.8,1.6l0.2,2.9l-1.7,0.7l-1.1-12.7l2.3-1L487.6,283.1z M479.4,281.6l2.9-1.2
		l-3.4-4L479.4,281.6z"/>
	<path class="st7" d="M493,297l-2.2,0.9l-3.7-3.6l-2.3,1l1.9,4.4l-2.1,0.9l-4.7-11.2l3.7-1.6c1.4-0.6,2.7-0.8,3.7-0.6
		c1.2,0.2,2,1,2.6,2.3c0.3,0.6,0.3,1.2,0.1,1.8s-0.5,1.1-1,1.6L493,297z M486.2,292.7c0.5-0.2,0.9-0.5,1.2-0.9
		c0.3-0.5,0.3-1,0.1-1.5c-0.2-0.6-0.6-0.9-1.2-1c-0.5-0.1-1,0-1.6,0.3l-2.2,0.9l1.4,3.2L486.2,292.7z"/>
	<path class="st7" d="M495.7,302.5l-1.9,1c-0.4-0.7-1-1.2-1.6-1.5s-1.3-0.2-2,0.1c-0.9,0.4-1.3,1.1-1.4,2.1c0,0.8,0.2,1.8,0.7,2.9
		s1,2,1.7,2.5c0.8,0.7,1.7,0.8,2.7,0.4c0.7-0.3,1.2-0.8,1.4-1.4c0.2-0.6,0.2-1.2,0-1.8l2-0.6c0.3,1.3,0.2,2.4-0.2,3.4
		c-0.5,1.1-1.4,1.8-2.6,2.4c-1.5,0.6-2.9,0.5-4.3-0.3c-1.2-0.7-2.2-1.9-2.9-3.5c-0.7-1.5-0.8-3-0.5-4.4c0.4-1.5,1.3-2.6,2.8-3.2
		c1.2-0.5,2.4-0.6,3.5-0.2C494.1,300.6,495,301.4,495.7,302.5z"/>
	<path class="st7" d="M496.1,321.9l2,4.7l-2.1,0.9l-4.7-11.2l2-0.9l2,4.7l4-1.7l-2-4.7l2.1-0.9l4.7,11.2l-2.1,0.9l-2-4.7
		L496.1,321.9z"/>
	<path class="st5" d="M458.2,264.3l-2.2,0.9l-3.7-3.6l-2.3,1l1.9,4.4l-2.1,0.9l-4.7-11.2l3.7-1.6c1.4-0.6,2.7-0.8,3.7-0.6
		c1.2,0.2,2,1,2.6,2.3c0.3,0.6,0.3,1.2,0.1,1.8c-0.2,0.6-0.5,1.1-1,1.6L458.2,264.3z M451.5,260c0.5-0.2,0.9-0.5,1.2-0.9
		c0.3-0.5,0.3-1,0.1-1.5c-0.2-0.6-0.6-0.9-1.2-1c-0.4-0.1-1,0-1.6,0.3l-2.2,0.9l1.4,3.2L451.5,260z"/>
	<path class="st5" d="M466.4,260.8l-7.3,3l-4.7-11.2l7.3-3.1l0.7,1.6l-5.1,2.2l1.3,3.1l4.1-1.8l0.7,1.6l-4.1,1.8l1.3,3.1l5.1-2.2
		L466.4,260.8z"/>
	<path class="st5" d="M482.5,254.1c-1.6,0.7-2.8,0.7-3.8,0.2c-0.8-0.4-1.5-1.3-2-2.6l-3-7.2l2.1-0.9l3,7.2c0.3,0.7,0.7,1.2,1.1,1.5
		c0.6,0.3,1.3,0.3,2.1,0c0.8-0.3,1.3-0.8,1.5-1.4c0.1-0.5,0.1-1-0.2-1.7l-3.1-7.5l1.7-0.7l3.2,7.6c0.5,1.1,0.6,2.1,0.2,3
		C484.8,252.6,483.9,253.5,482.5,254.1z"/>
	<path class="st5" d="M487.8,251.7l-4.7-11.2l2.1-0.9l4,9.4l4.5-1.9l0.7,1.8L487.8,251.7z"/>
	<path class="st5" d="M495.9,237.2l4,9.4l-2.1,0.9l-4-9.4l-2.9,1.2l-0.7-1.8l7.9-3.3l0.7,1.8L495.9,237.2z"/>
	<path class="st5" d="M507.8,232.7l-1.6,1.2c-0.3-0.3-0.8-0.5-1.2-0.6c-0.4-0.1-0.9,0-1.4,0.2s-0.9,0.5-1.2,0.9
		c-0.2,0.4-0.3,0.8-0.1,1.2c0.2,0.5,0.6,0.7,1.3,0.7c0.3,0,0.9-0.1,1.7-0.2c0.9-0.2,1.6-0.2,2.1-0.2c0.7,0,1.3,0.2,1.8,0.4
		c0.6,0.3,1,0.9,1.3,1.6c0.4,1,0.4,2-0.2,3c-0.6,0.9-1.5,1.7-2.7,2.2c-1.1,0.5-2.1,0.6-3,0.5c-1-0.2-1.9-0.7-2.5-1.5l1.7-1.2
		c0.3,0.4,0.8,0.7,1.4,0.8s1.1,0,1.7-0.3c0.7-0.3,1.1-0.6,1.4-1c0.4-0.5,0.4-1,0.2-1.5c-0.3-0.6-1-0.8-2.2-0.7l-2.9,0.4
		c-0.8,0-1.4-0.2-1.9-0.5s-0.8-0.8-1.1-1.5c-0.4-1-0.4-1.9,0.2-2.9c0.5-0.9,1.2-1.5,2.3-2c1-0.4,1.9-0.5,2.7-0.4
		C506.5,231.7,507.2,232.1,507.8,232.7z"/>
	<path class="st6" d="M444.7,297.8l-3.3-7.8l1.7-0.7l4.7,11.2l-1.7,0.7l-8.3-6.2l3.4,8.2l-1.7,0.7l-4.7-11.2l2.1-0.9L444.7,297.8z"
		/>
	<path class="st7" d="M451.8,312.8c-0.1,0.6-0.3,1.2-0.7,1.6c-0.4,0.5-1,1-1.6,1.2c-1.6,0.7-3,0.6-4.4-0.3c-0.6-0.4-1.1-0.9-1.6-1.4
		c-0.5-0.6-0.9-1.3-1.2-2.1c-0.6-1.5-0.8-3-0.4-4.4c0.4-1.5,1.3-2.6,2.8-3.2c1.2-0.5,2.4-0.6,3.4-0.4c1,0.3,1.9,0.9,2.7,1.9
		l-1.8,1.1c-0.4-0.6-0.9-1-1.4-1.2c-0.6-0.2-1.2-0.1-1.8,0.1l-0.2,0.1l-0.2,0.1c-0.8,0.5-1.3,1.2-1.4,2.2c-0.1,0.8,0.1,1.7,0.6,2.8
		c0.7,1.6,1.4,2.6,2.2,3c0.7,0.4,1.4,0.4,2.2,0c0.7-0.3,1.2-0.8,1.4-1.5c0.2-0.6,0.2-1.3,0-2l-2.4,1l-0.7-1.7l4.4-1.9l2.4,5.7
		l-1,0.4L451.8,312.8z"/>
	<path class="st5" d="M449.2,318.1l2.1-0.9l4.7,11.2l-2.1,0.9L449.2,318.1z"/>
	<path class="st5" d="M461.6,337.8l-3.3-7.8l1.7-0.7l4.7,11.2l-1.7,0.7l-8.3-6.2l3.4,8.2l-1.7,0.7l-4.7-11.2l2.1-0.9L461.6,337.8z"
		/>
	<path class="st5" d="M469.6,353.3l-7.3,3l-4.7-11.2l7.3-3.1l0.7,1.6l-5.1,2.2l1.3,3.1l4.1-1.8l0.7,1.6l-4.1,1.8l1.3,3.1l5.1-2.2
		L469.6,353.3z"/>
	<path class="st5" d="M471.8,357.7l-1.6,1.2c-0.4-0.3-0.8-0.5-1.2-0.6s-0.9,0-1.4,0.2s-0.9,0.5-1.2,0.9c-0.2,0.4-0.3,0.8-0.1,1.2
		c0.2,0.5,0.6,0.7,1.3,0.7c0.3,0,0.9-0.1,1.7-0.2c0.9-0.1,1.6-0.2,2.1-0.2c0.7,0,1.3,0.2,1.8,0.4c0.6,0.3,1,0.9,1.3,1.6
		c0.4,1,0.4,2-0.2,3c-0.6,0.9-1.5,1.7-2.7,2.2c-1.1,0.5-2.1,0.6-3,0.5c-1-0.2-1.9-0.7-2.5-1.5l1.7-1.2c0.3,0.4,0.8,0.7,1.4,0.8
		c0.6,0.1,1.2,0,1.7-0.3c0.7-0.3,1.1-0.6,1.4-1c0.4-0.5,0.4-1,0.2-1.5c-0.3-0.6-1-0.8-2.2-0.7l-2.9,0.4c-0.8,0-1.4-0.2-1.9-0.5
		s-0.8-0.8-1.1-1.5c-0.4-1-0.4-1.9,0.2-2.9c0.5-0.9,1.2-1.5,2.3-2c1-0.4,1.9-0.5,2.7-0.4C470.5,356.7,471.2,357.1,471.8,357.7z"/>
	<path class="st6" d="M346.1,336.8c-0.7-1.5-0.8-3-0.4-4.5s1.4-2.6,2.8-3.2c1.5-0.6,3-0.6,4.4,0.2c1.2,0.7,2.2,1.8,2.8,3.3
		c0.7,1.5,0.8,3,0.5,4.5c-0.4,1.6-1.3,2.7-2.8,3.4c-1.6,0.7-3.1,0.6-4.5-0.2C347.8,339.6,346.8,338.4,346.1,336.8z M352.8,338.8
		c1-0.4,1.5-1.2,1.5-2.2c0-0.8-0.2-1.8-0.7-3c-0.5-1.1-1-1.9-1.6-2.5c-0.8-0.7-1.7-0.8-2.6-0.4s-1.4,1.1-1.5,2.1
		c-0.1,0.8,0.1,1.8,0.6,2.9c0.7,1.6,1.4,2.6,2.1,3C351.3,339.1,352,339.1,352.8,338.8z"/>
	<path class="st6" d="M359.5,338l-4.7-11.2l3.7-1.6c1.4-0.6,2.7-0.8,3.7-0.6c1.2,0.2,2,1,2.6,2.3c0.4,1,0.4,2-0.2,2.9
		c-0.5,0.8-1.3,1.4-2.3,1.8l-2.5,1.1l1.8,4.3L359.5,338z M361.3,330.1c0.6-0.2,0.9-0.5,1.2-0.9c0.3-0.4,0.3-0.9,0-1.6
		c-0.2-0.5-0.6-0.9-1.1-1s-1,0-1.5,0.2l-2.2,0.9l1.4,3.2L361.3,330.1z"/>
	<path class="st6" d="M369.4,322.6l4,9.4l-2.1,0.9l-4-9.4l-2.9,1.2l-0.7-1.8l7.9-3.3l0.7,1.8L369.4,322.6z"/>
	<path class="st6" d="M372.6,319.2l2.1-0.9l4.7,11.2l-2.1,0.9L372.6,319.2z"/>
	<path class="st6" d="M387.3,313l4.7,11.2l-2.1,0.9l-4-9.6l0.9,11l-1.1,0.5l-7.3-8.3l4,9.6l-1.7,0.7l-4.7-11.2l3.2-1.4l5.5,6.3
		l-0.7-8.4L387.3,313z"/>
	<path class="st6" d="M388.7,312.4l2.1-0.9l4.7,11.2l-2.1,0.9L388.7,312.4z"/>
	<path class="st6" d="M395.9,320.6l2.5-10.3l-5.4,2.3l-0.7-1.8l8.1-3.4l0.7,1.7l-2.5,10.2l5.8-2.5l0.7,1.7l-8.6,3.6L395.9,320.6z"/>
	<path class="st6" d="M415.4,314.3l-2.2,0.9l-2-2.2l-3.8,1.6l0.2,2.9l-1.7,0.7l-1.1-12.7l2.3-1L415.4,314.3z M407.1,312.8l2.9-1.2
		l-3.4-4L407.1,312.8z"/>
	<path class="st6" d="M416.8,302.5l4,9.4l-2.1,0.9l-4-9.4l-2.9,1.2l-0.7-1.8l7.9-3.3l0.7,1.8L416.8,302.5z"/>
	<path class="st6" d="M420,299.1l2.1-0.9l4.7,11.2l-2.1,0.9L420,299.1z"/>
	<path class="st6" d="M425.3,303.1c-0.7-1.5-0.8-3-0.4-4.5s1.4-2.6,2.8-3.2c1.5-0.6,3-0.6,4.4,0.2c1.2,0.7,2.2,1.8,2.8,3.3
		c0.7,1.5,0.8,3,0.5,4.5c-0.4,1.6-1.3,2.7-2.8,3.4c-1.6,0.7-3.1,0.6-4.5-0.2C427,305.9,426,304.7,425.3,303.1z M432,305.2
		c1-0.4,1.5-1.2,1.6-2.2c0-0.8-0.2-1.8-0.7-3c-0.5-1.1-1-1.9-1.6-2.5c-0.8-0.7-1.7-0.8-2.6-0.4s-1.4,1.1-1.5,2.1
		c-0.1,0.8,0.1,1.8,0.6,2.9c0.7,1.6,1.4,2.6,2.1,3C430.5,305.5,431.2,305.5,432,305.2z"/>
	<g>
		<path class="st7" d="M379.4,332.4l4.7,11.2l-2.1,0.9l-4-9.6l0.9,11l-1.1,0.5l-7.3-8.3l4,9.6l-1.7,0.7l-4.7-11.2l3.2-1.4l5.5,6.3
			l-0.7-8.4L379.4,332.4z"/>
		<path class="st7" d="M394.7,339.2l-2.2,0.9l-2-2.2l-3.8,1.6l0.2,2.9l-1.7,0.7l-1.1-12.7l2.3-1L394.7,339.2z M386.4,337.7l2.9-1.2
			l-3.4-4L386.4,337.7z"/>
		<path class="st7" d="M404.1,335.1l-2.2,0.9l-3.7-3.6l-2.3,1l1.9,4.4l-2.1,0.9l-4.7-11.2l3.7-1.6c1.4-0.6,2.7-0.8,3.7-0.6
			c1.2,0.2,2,1,2.6,2.3c0.3,0.6,0.3,1.2,0.1,1.8c-0.2,0.6-0.5,1.1-1,1.6L404.1,335.1z M397.4,330.8c0.5-0.2,0.9-0.5,1.2-0.9
			c0.3-0.5,0.3-1,0.1-1.5c-0.2-0.6-0.6-0.9-1.2-1c-0.4-0.1-1,0-1.6,0.3l-2.2,0.9l1.4,3.2L397.4,330.8z"/>
		<path class="st7" d="M407.1,320.7l2.1-0.9l-1.4,5.1l6.4,6l-2.3,1l-4.7-4.5l-1,3.7l1.2,2.8l-2.1,0.9l-4.7-11.2l2.1-0.9l2.5,6
			L407.1,320.7z"/>
		<path class="st7" d="M422.1,327.5l-7.3,3l-4.7-11.2l7.3-3l0.7,1.6l-5.1,2.2l1.3,3.1l4.1-1.8l0.7,1.6l-4.1,1.8l1.3,3.1l5.1-2.2
			L422.1,327.5z"/>
		<path class="st7" d="M423.6,315.8l4,9.4l-2.1,0.9l-4-9.4l-2.9,1.2l-0.7-1.8l7.9-3.3l0.7,1.8L423.6,315.8z"/>
		<path class="st7" d="M426.7,312.4l2.1-0.9l4.7,11.2l-2.1,0.9L426.7,312.4z"/>
		<path class="st7" d="M439.9,316l-3.3-7.8l1.7-0.7l4.7,11.2l-1.7,0.7l-8.3-6.2l3.4,8.2l-1.7,0.7l-4.7-11.2l2.1-0.9L439.9,316z"/>
	</g>
	<g class="st8">
		<path class="st3" d="M351.5,252l-1,4.4l4.8,11.5l-7.7,3.2L332,233.9l7.7-3.2l6.8,16.2l0.1-0.1l3.2-20.3l7.7-3.2l-3.8,21.1
			l19.4,16.2l-8,3.3L351.5,252z"/>
		<path class="st3" d="M361.1,221.6l7.7-3.2l15.6,37.3l-7.7,3.2L361.1,221.6z"/>
		<path class="st3" d="M377.6,225.2c-2.5-6,0.2-11.1,7.8-14.3c7.6-3.2,13.2-1.5,15.7,4.5l8.1,19.4c2.5,6-0.2,11.1-7.8,14.3
			c-7.6,3.2-13.2,1.5-15.7-4.5L377.6,225.2z M393.7,241.8c1.1,2.7,3.1,3,5.6,2s3.6-2.7,2.5-5.4l-8.4-20.1c-1.1-2.7-3.1-3-5.6-2
			c-2.5,1-3.6,2.7-2.5,5.4L393.7,241.8z"/>
		<path class="st3" d="M412.7,199.5c7.5-3.2,12.8-1.4,15.3,4.6l0.5,1.2l-7.3,3.1l-0.6-1.5c-1.1-2.7-3-3.1-5.4-2.1
			c-2.5,1-3.4,2.6-2.3,5.3c1.1,2.7,3.5,4.1,10,5.3c8.3,1.6,11.6,3.8,13.4,8.1c2.5,6,0,11-7.6,14.2c-7.6,3.2-13,1.4-15.5-4.5l-1-2.3
			l7.3-3.1l1.1,2.7c1.1,2.7,3.1,3,5.5,1.9c2.5-1,3.6-2.6,2.5-5.3c-1.1-2.7-3.5-4.1-10-5.3c-8.3-1.6-11.6-3.8-13.4-8.1
			C402.7,207.7,405.1,202.7,412.7,199.5z"/>
		<path class="st3" d="M448.3,211.5l-1,4.4l4.8,11.5l-7.7,3.2l-15.6-37.3l7.7-3.2l6.8,16.2l0.1-0.1l3.2-20.3l7.7-3.2l-3.8,21.1
			l19.4,16.2l-8,3.3L448.3,211.5z"/>
	</g>
	<g class="st8">
		<path class="st5" d="M358.2,517.3l4.4,0.9l11.4-5l3.4,7.7l-37.1,16.2l-3.4-7.7l16-7l-0.1-0.1l-20.4-2.9l-3.4-7.7l21.2,3.5
			l15.9-19.7l3.5,7.9L358.2,517.3z"/>
		<path class="st5" d="M327.6,508.1l-3.4-7.7l37.1-16.2l3.4,7.7L327.6,508.1z"/>
		<path class="st5" d="M331,491.6c-5.9,2.6-11.1-0.1-14.4-7.6c-3.3-7.6-1.7-13.2,4.2-15.8l19.3-8.4c5.9-2.6,11.1,0.1,14.4,7.6
			c3.3,7.6,1.7,13.2-4.2,15.8L331,491.6z M347.3,475.3c2.6-1.2,3-3.1,1.9-5.6c-1.1-2.4-2.8-3.5-5.4-2.4l-20,8.8
			c-2.6,1.2-3,3.1-1.9,5.6c1.1,2.4,2.7,3.5,5.4,2.4L347.3,475.3z"/>
		<path class="st5" d="M304.8,456.9c-3.3-7.5-1.6-12.8,4.4-15.4l1.2-0.5l3.2,7.3l-1.5,0.7c-2.6,1.2-3,3-2,5.4
			c1.1,2.4,2.7,3.4,5.3,2.3c2.7-1.2,4-3.6,5.2-10.1c1.5-8.3,3.7-11.7,7.9-13.5c5.9-2.6,11-0.2,14.3,7.4c3.3,7.6,1.6,13-4.3,15.6
			l-2.3,1l-3.2-7.3l2.6-1.2c2.6-1.2,2.9-3.1,1.9-5.6c-1.1-2.4-2.7-3.6-5.3-2.4c-2.7,1.2-4,3.6-5.2,10.1c-1.5,8.3-3.7,11.7-7.9,13.5
			C313.1,466.8,308,464.4,304.8,456.9z"/>
		<path class="st5" d="M316.1,421.1l4.4,0.9l11.4-5l3.4,7.7l-37.1,16.2l-3.4-7.7l16-7l-0.1-0.1l-20.4-2.9l-3.4-7.7l21.2,3.5
			l15.9-19.7l3.5,7.9L316.1,421.1z"/>
	</g>
	
		<ellipse transform="matrix(0.9213 -0.3889 0.3889 0.9213 -110.2641 146.0708)" class="st9" cx="305.7" cy="345.4" rx="52.1" ry="52.1"/>
	
		<ellipse transform="matrix(0.9213 -0.3889 0.3889 0.9213 -106.4301 142.7568)" class="st7" cx="299.4" cy="334.3" rx="54" ry="54"/>
	<path class="st10" d="M161.4,410.4l-9.6-52l9.9-4.5l12.6,71.1l-11.5,5.2l-33.3-39.4l9.6,50.4l-11.3,5.1l-46.6-55.6l12-5.4
		l33.6,40.9l-10-51.7l10.7-4.9L161.4,410.4z"/>
	<path class="st10" d="M237.3,396.2L196.1,415L167,351.5l41.3-18.9l4.3,9.4l-29.5,13.4l8.2,17.8l23.7-10.9l4.3,9.4l-23.7,10.9
		l8.1,17.6l29.5-13.5L237.3,396.2z"/>
	<path class="st10" d="M245.7,304.8c3.3-1.5,6.3-2.7,8.8-3.7c2.6-1,4.9-1.7,7.1-2.3c5.3-1.3,10-1.2,13.8,0.1
		c4.3,1.5,8.2,4.7,11.7,9.9l1.7,3c2.1,4.6,2.1,9.4,0,14.2c-0.9,1.9-2.9,4.7-6.1,8.6c5.3-1,10.3-0.6,14.8,1.3
		c4.8,2.1,8.3,5.5,10.5,10.3l0.9,1.9c2.6,7.8,1.8,14.5-2.3,20.3c-3.2,4.5-8.8,8.6-16.5,12.1l-34.5,15.8L219.3,317L245.7,304.8z
		 M265.8,336.3c3.7-1.7,6.4-3.8,7.8-6.5c1.7-3.1,1.6-6.9-0.4-11.1c-1.6-3.5-4.2-5.4-7.9-5.7c-2.9-0.1-6.3,0.7-10,2.4l-15.6,7.2
		l9.7,21.3L265.8,336.3z M254.6,355.3l10.2,22.3l17.3-8c4.3-1.9,7.3-4.2,8.9-7c2-3.3,2.1-7.1,0.2-11.2c-1.7-3.6-4.4-5.7-8.3-6.3
		c-3.2-0.5-6.9,0.2-10.7,2L254.6,355.3z"/>
	<g class="st8">
		<path class="st10" d="M321.3,335.5c-1.4,0.5-1.9,1.6-1.2,3.6l1.1,2.9l-4.1,1.6l-1-2.7c-1.7-4.4-0.5-7.8,3.7-9.4
			c4.2-1.7,7.4,0,9.1,4.4c1.4,3.6,1.2,7.1-1.1,13c-1.5,3.7-1.7,5.3-1.1,6.8c0.1,0.2,0.2,0.4,0.3,0.6l8.2-3.2l1.5,3.9l-12.5,4.9
			l-1.3-3.4c-1.2-3.1-1-5.8,0.9-10.4c1.9-4.8,2-7.3,0.9-10.2C323.7,335.3,322.6,335,321.3,335.5z"/>
		<path class="st10" d="M342.3,350l1.6,4.2l-4.2,1.6l-1.6-4.2L342.3,350z"/>
		<path class="st10" d="M338.6,332.2c-1.7-4.4-0.4-7.8,3.9-9.5c4.2-1.7,7.5-0.1,9.2,4.3l5.6,14.3c1.7,4.4,0.4,7.8-3.9,9.5
			c-4.2,1.7-7.5,0.1-9.2-4.3L338.6,332.2z M348.6,345.1c0.8,2,1.9,2.4,3.3,1.8c1.4-0.5,1.9-1.6,1.2-3.6l-5.8-14.8
			c-0.8-2-1.9-2.4-3.3-1.8c-1.4,0.5-1.9,1.6-1.2,3.6L348.6,345.1z"/>
	</g>
	<path class="st5" d="M510,442.3c-8.2-5.6-109.3-60.3-109.3-60.3s-2.6-1.3-4.5,0.9l-32.8-18.1c1.5-3,2.8-6.2,3.8-9.4
		c12.1-36.8-8.1-76.4-44.9-88.6c-36.8-12.1-76.4,8.1-88.6,44.9c-12.1,36.8,8.1,76.4,44.9,88.6c28.9,9.5,59.6-0.9,77.3-23.7
		l32.9,18.8c-0.9,2.8,1.5,4.3,1.5,4.3s99.3,57.9,108.4,61.9c6.6,2.9,10.2-2,11.7-5h0.1C510.6,456.8,518.2,447.9,510,442.3z
		 M320.4,381.8c-26.6,11.2-57.3-1.2-68.5-27.8c-11.2-26.6,1.2-57.3,27.8-68.5s57.3,1.2,68.5,27.8C359.5,339.9,347,370.5,320.4,381.8
		z"/>
</g>
</svg>
