<?xml version="1.0" encoding="utf-8"?>
<!-- Generator: Adobe Illustrator 21.0.0, SVG Export Plug-In . SVG Version: 6.00 Build 0)  -->
<svg version="1.1" id="Layer_1" xmlns="http://www.w3.org/2000/svg" xmlns:xlink="http://www.w3.org/1999/xlink" x="0px" y="0px"
	 viewBox="0 0 612 612" style="enable-background:new 0 0 612 612;" xml:space="preserve">
<style type="text/css">
	.st0{fill:#43C3D0;}
	.st1{opacity:0.15;fill:#FFFFFF;}
	.st2{clip-path:url(#SVGID_2_);}
	.st3{clip-path:url(#SVGID_4_);}
	.st4{fill:#F8C18F;}
	.st5{fill:#FFFFFF;}
	.st6{fill:#B4B4B4;}
	.st7{fill:#EF3E4A;}
	.st8{fill:#F8D0AF;}
	.st9{fill:#4E4E4E;}
	.st10{fill:#676767;}
	.st11{fill:#4DBCEC;}
	.st12{fill:#989898;}
	.st13{fill:#E6E6E5;}
	.st14{fill:#CCE3F1;}
	.st15{opacity:0.1;fill:#010101;}
	.st16{opacity:5.000000e-02;fill:#010101;}
	.st17{fill:#FED0A2;}
	.st18{fill:#3E91CE;}
	.st19{fill:none;stroke:#989898;stroke-width:1.7056;stroke-linecap:round;stroke-linejoin:round;stroke-miterlimit:10;}
	.st20{opacity:0.15;fill:#010101;}
	.st21{fill:none;stroke:#989898;stroke-width:1.762;stroke-linecap:round;stroke-linejoin:round;stroke-miterlimit:10;}
	.st22{fill:none;stroke:#CCCCCC;stroke-width:0.8971;stroke-linecap:round;stroke-linejoin:round;stroke-miterlimit:10;}
	.st23{fill:#EAEDEE;}
	.st24{fill:#EF6078;}
	.st25{fill:#DAE2E4;}
	.st26{fill:#E8ECEB;}
	.st27{fill:#E8EDED;}
	.st28{fill:#E72D43;}
	.st29{fill:#93D2D8;}
	.st30{fill:#FFF9F6;}
	.st31{fill:#CECAC8;}
	.st32{fill:#DBD8D7;}
	.st33{fill:#F2AB3D;}
	.st34{fill:#F8C585;}
	.st35{fill:#C0E6ED;}
	.st36{fill:#A7DCDF;}
	.st37{fill:#434949;}
	.st38{fill:#FFFFFD;}
	.st39{fill:#D9D0CF;}
	.st40{fill:#F4F4F5;}
	.st41{fill:#D3EBEF;}
</style>
<g>
	<circle class="st0" cx="306" cy="306" r="306"/>
	<circle class="st1" cx="306" cy="306" r="170"/>
	<g>
		<defs>
			<circle id="SVGID_1_" cx="306" cy="306" r="306"/>
		</defs>
		<clipPath id="SVGID_2_">
			<use xlink:href="#SVGID_1_"  style="overflow:visible;"/>
		</clipPath>
		<g class="st2">
			<defs>
				<rect id="SVGID_3_" width="612" height="612"/>
			</defs>
			<clipPath id="SVGID_4_">
				<use xlink:href="#SVGID_3_"  style="overflow:visible;"/>
			</clipPath>
			<g class="st3">
				<g>
					<g>
						<path class="st4" d="M155.9,495.2c-1.6,2.2-4.7,2.8-6.9,1.2l0,0c-2.2-1.6-2.8-4.7-1.2-6.9l19.5-25.9c1.6-2.2,4.7-2.8,6.9-1.2
							l0,0c2.2,1.6,2.8,4.7,1.2,6.9L155.9,495.2z"/>
						<path class="st4" d="M167.1,499.1c-1.6,2.2-4.7,2.8-6.9,1.2l0,0c-2.2-1.6-2.8-4.7-1.2-6.9l19.5-25.9c1.6-2.2,4.7-2.8,6.9-1.2
							l0,0c2.2,1.6,2.8,4.7,1.2,6.9L167.1,499.1z"/>
						<path class="st4" d="M174.9,507.4c-1.6,2.2-4.7,2.8-6.9,1.2l0,0c-2.2-1.6-2.8-4.7-1.2-6.9l19.5-25.9c1.6-2.2,4.7-2.8,6.9-1.2
							l0,0c2.2,1.6,2.8,4.7,1.2,6.9L174.9,507.4z"/>
						<path class="st4" d="M180.2,519.4c-1.6,2.2-4.7,2.8-6.9,1.2l0,0c-2.2-1.6-2.8-4.7-1.2-6.9l19.5-25.9c1.6-2.2,4.7-2.8,6.9-1.2
							l0,0c2.2,1.6,2.8,4.7,1.2,6.9L180.2,519.4z"/>
						<path class="st4" d="M165.4,535.6c-5.7,6-15.3,6.2-21.3,0.5l-10.5-10c-6-5.7-6.2-15.3-0.5-21.3l12.1-12.9
							c13.6-16.9,13.2-3.7,16.6,2.7l10.5,10c9.2,7.5,8.1,14,3.1,20.6C170.5,531.6,165.4,535.6,165.4,535.6z"/>
						<polygon class="st4" points="154.7,532.8 137.2,515.7 -15.1,687.8 11.3,717.7 						"/>
					</g>
				</g>
				<g>
					<path class="st5" d="M194.2,401.4l-47.3-8l-16.9,99.3l73.1,12.4l12.4-72.8L194.2,401.4z M134.5,491.5c-1.1-0.2-1.9-1.3-1.7-2.4
						c0.2-1.1,1.3-1.9,2.4-1.7c1.1,0.2,1.9,1.3,1.7,2.4C136.7,490.9,135.6,491.7,134.5,491.5z M135.9,483.2
						c-1.1-0.2-1.9-1.3-1.7-2.4c0.2-1.1,1.3-1.9,2.4-1.7c1.1,0.2,1.9,1.3,1.7,2.4C138.1,482.6,137,483.4,135.9,483.2z M137.3,474.9
						c-1.1-0.2-1.9-1.3-1.7-2.4c0.2-1.1,1.3-1.9,2.4-1.7c1.1,0.2,1.9,1.3,1.7,2.4C139.5,474.4,138.4,475.1,137.3,474.9z
						 M138.7,466.7c-1.1-0.2-1.9-1.3-1.7-2.4c0.2-1.1,1.3-1.9,2.4-1.7c1.1,0.2,1.9,1.3,1.7,2.4C140.9,466.1,139.8,466.8,138.7,466.7
						z M140.1,458.4c-1.1-0.2-1.9-1.3-1.7-2.4c0.2-1.1,1.3-1.9,2.4-1.7c1.1,0.2,1.9,1.3,1.7,2.4
						C142.3,457.8,141.2,458.6,140.1,458.4z M141.5,450.1c-1.1-0.2-1.9-1.3-1.7-2.4c0.2-1.1,1.3-1.9,2.4-1.7
						c1.1,0.2,1.9,1.3,1.7,2.4C143.7,449.5,142.6,450.3,141.5,450.1z M142.9,441.8c-1.1-0.2-1.9-1.3-1.7-2.4
						c0.2-1.1,1.3-1.9,2.4-1.7c1.1,0.2,1.9,1.3,1.7,2.4C145.1,441.2,144.1,442,142.9,441.8z M144.3,433.5c-1.1-0.2-1.9-1.3-1.7-2.4
						c0.2-1.1,1.3-1.9,2.4-1.7c1.1,0.2,1.9,1.3,1.7,2.4C146.5,433,145.5,433.7,144.3,433.5z M145.7,425.2c-1.1-0.2-1.9-1.3-1.7-2.4
						c0.2-1.1,1.3-1.9,2.4-1.7c1.1,0.2,1.9,1.3,1.7,2.4C147.9,424.7,146.9,425.4,145.7,425.2z M147.1,417c-1.1-0.2-1.9-1.3-1.7-2.4
						c0.2-1.1,1.3-1.9,2.4-1.7c1.1,0.2,1.9,1.3,1.7,2.4C149.3,416.4,148.3,417.1,147.1,417z M146.8,406.3c0.2-1.1,1.3-1.9,2.4-1.7
						c1.1,0.2,1.9,1.3,1.7,2.4c-0.2,1.1-1.3,1.9-2.4,1.7C147.4,408.5,146.7,407.4,146.8,406.3z M150,400.4c-1.1-0.2-1.9-1.3-1.7-2.4
						c0.2-1.1,1.3-1.9,2.4-1.7c1.1,0.2,1.9,1.3,1.7,2.4C152.2,399.8,151.1,400.6,150,400.4z"/>
					<polygon class="st6" points="194.2,401.4 189.8,427.5 215.6,431.9 					"/>
					<g>
						
							<rect x="158.3" y="442.2" transform="matrix(0.1672 -0.9859 0.9859 0.1672 -293.6414 544.6744)" class="st7" width="34.6" height="7.9"/>
						
							<rect x="171.6" y="428.8" transform="matrix(0.1672 -0.9859 0.9859 0.1672 -293.65 544.6363)" class="st7" width="7.9" height="34.6"/>
					</g>
				</g>
				<path class="st4" d="M139.4,514.7c-1.1,2.7-4.2,4.1-7,3l0,0c-2.8-1.1-4.1-4.2-3-7l13.9-32.1c1.1-2.7,4.2-4.1,7-3l0,0
					c2.7,1.1,4.1,4.2,3,7L139.4,514.7z"/>
			</g>
			<g class="st3">
				<g>
					<g>
						<path class="st8" d="M444.4,475.8c1.8,2.1,5,2.3,7,0.5l0,0c2.1-1.8,2.3-5,0.5-7l-22.2-23.8c-1.8-2.1-5-2.3-7-0.5l0,0
							c-2.1,1.8-2.3,5-0.5,7L444.4,475.8z"/>
						<path class="st8" d="M433.7,480.8c1.8,2.1,5,2.3,7,0.5l0,0c2.1-1.8,2.3-5,0.5-7L419,450.4c-1.8-2.1-5-2.3-7-0.5l0,0
							c-2.1,1.8-2.3,5-0.5,7L433.7,480.8z"/>
						<path class="st8" d="M426.7,489.9c1.8,2.1,5,2.3,7,0.5l0,0c2.1-1.8,2.3-5,0.5-7L412,459.5c-1.8-2.1-5-2.3-7-0.5l0,0
							c-2.1,1.8-2.3,5-0.5,7L426.7,489.9z"/>
						<path class="st8" d="M422.7,502.4c1.8,2.1,5,2.3,7,0.5l0,0c2.1-1.8,2.3-5,0.5-7L408,472c-1.8-2.1-5-2.3-7-0.5l0,0
							c-2.1,1.8-2.3,5-0.5,7L422.7,502.4z"/>
						<path class="st8" d="M439.2,517.1c6.4,5.4,15.9,4.6,21.3-1.8l9.4-11.1c5.4-6.4,4.6-15.9-1.8-21.3l-13.4-11.6
							c-15.4-15.5-13.5-2.3-16.3,4.4l-9.4,11.1c-8.4,8.5-6.6,14.8-0.9,20.9C433.7,513.5,439.2,517.1,439.2,517.1z"/>
						<polygon class="st8" points="449.6,513.1 465.3,494.2 635.4,649.8 612.3,682.5 						"/>
					</g>
				</g>
				<g>
					<path class="st9" d="M455,521.4c0,0.8-0.7,1.3-1.5,1.3l-63.1-3.6c-0.8,0-1.3-0.7-1.3-1.5l5.3-93.2c0-0.8,0.7-1.3,1.5-1.3
						l63.1,3.6c0.8,0,1.3,0.7,1.3,1.5L455,521.4z"/>
					<path class="st10" d="M394.5,424.4c0-0.8,0.7-1.3,1.5-1.3l63.1,3.6c0.8,0,1.3,0.7,1.3,1.5l-5.3,93.2c0,0.8-0.7,1.3-1.5,1.3
						L394.5,424.4z"/>
					
						<rect x="387.5" y="452.8" transform="matrix(5.718331e-02 -0.9984 0.9984 5.718331e-02 -77.567 874.8941)" class="st5" width="74" height="51.5"/>
					<g>
						
							<rect x="403.8" y="456.7" transform="matrix(5.552627e-02 -0.9985 0.9985 5.552627e-02 -69.1928 843.6478)" class="st7" width="15" height="3.4"/>
						
							<rect x="409.6" y="450.9" transform="matrix(5.555017e-02 -0.9985 0.9985 5.555017e-02 -69.2018 843.6356)" class="st7" width="3.4" height="15"/>
					</g>
					<path class="st11" d="M448.6,443.7c-0.1,2.4-2.2,4.2-4.5,4l-35.6-2c-2.4-0.1-4.2-2.2-4-4.5l0,0c0.1-2.4,2.2-4.2,4.5-4l35.6,2
						C446.9,439.3,448.7,441.3,448.6,443.7L448.6,443.7z"/>
					<path class="st11" d="M419.9,442.6c-0.9-1.4-1.4-3.1-1.3-4.9c0.3-4.5,4.1-7.9,8.6-7.7c4.5,0.3,7.9,4.1,7.7,8.6
						c-0.1,1.8-0.8,3.4-1.8,4.7l2.7,0.2c0.8-1.4,1.3-3,1.4-4.7c0.3-5.8-4.1-10.7-9.8-11c-5.8-0.3-10.7,4.1-11,9.8
						c-0.1,1.7,0.2,3.4,0.9,4.9L419.9,442.6z"/>
					
						<rect x="423" y="452.2" transform="matrix(5.717187e-02 -0.9984 0.9984 5.717187e-02 -72.6834 869.0651)" class="st12" width="1.5" height="41.5"/>
					
						<rect x="422.6" y="459.9" transform="matrix(5.719047e-02 -0.9984 0.9984 5.719047e-02 -80.7972 875.878)" class="st12" width="1.5" height="41.5"/>
					
						<rect x="422.1" y="468.9" transform="matrix(5.717515e-02 -0.9984 0.9984 5.717515e-02 -90.2048 883.8076)" class="st12" width="1.5" height="41.5"/>
					
						<rect x="421.7" y="476.6" transform="matrix(5.717079e-02 -0.9984 0.9984 5.717079e-02 -98.3094 890.6325)" class="st12" width="1.5" height="41.5"/>
					
						<rect x="421.1" y="486.7" transform="matrix(5.717288e-02 -0.9984 0.9984 5.717288e-02 -108.9197 899.5605)" class="st12" width="1.5" height="41.5"/>
				</g>
				<path class="st8" d="M462.9,493.4c1.4,2.6,4.6,3.6,7.3,2.2l0,0c2.6-1.4,3.6-4.6,2.2-7.3l-17.3-30.6c-1.4-2.6-4.6-3.6-7.3-2.2
					l0,0c-2.6,1.4-3.6,4.6-2.2,7.3L462.9,493.4z"/>
			</g>
			<g class="st3">
				<g>
					<g>
						<path class="st8" d="M213.6,131.1c-3.2-0.8-5.1-4.1-4.2-7.3l0,0c0.8-3.2,4.1-5.1,7.3-4.2l37.3,11.1c3.2,0.8,5.1,4.1,4.2,7.3
							l0,0c-0.8,3.2-4.1,5.1-7.3,4.2L213.6,131.1z"/>
						<path class="st8" d="M214,145.3c-3.2-0.8-5.1-4.1-4.2-7.3l0,0c0.8-3.2,4.1-5.1,7.3-4.2l37.3,11.1c3.2,0.8,5.1,4.1,4.2,7.3l0,0
							c-0.8,3.2-4.1,5.1-7.3,4.2L214,145.3z"/>
						<path class="st8" d="M207.9,157.6c-3.2-0.8-5.1-4.1-4.2-7.3l0,0c0.8-3.2,4.1-5.1,7.3-4.2l37.3,11.1c3.2,0.8,5.1,4.1,4.2,7.3
							l0,0c-0.8,3.2-4.1,5.1-7.3,4.2L207.9,157.6z"/>
						<path class="st8" d="M189.8,166.1c-3.2-0.8,1.7-1.6,2.6-4.8l0,0c0.8-3.2,4.1-5.1,7.3-4.2l37.3,11.1c3.2,0.8,5.1,4.1,4.2,7.3
							l0,0c-0.8,3.2-4.1,5.1-7.3,4.2L189.8,166.1z"/>
						<path class="st8" d="M172.1,158.7c-9.2-3.9-13.4-14.6-9.4-23.7l1-16.8c3.9-9.2,20.4-12.6,29.6-8.6l19.6,8.2
							c24.8,8.3,9.7,13.3,3.9,19.8l-6.9,16c-4.6,13.5-12.4,15-21.9,12.1C178.8,162.7,172.1,158.7,172.1,158.7z"/>
						<polygon class="st8" points="166,149.8 182.7,118.6 -62.2,41.9 -84.9,84.1 						"/>
					</g>
				</g>
				<g>
					<path class="st13" d="M209.9,173.2c-5.2,3-11.9,1.3-14.9-3.9L177,138.6c-3-5.2-1.3-11.9,3.9-14.9l52.7-30.8
						c5.2-3,11.9-1.3,14.9,3.9l17.9,30.7c3,5.2,1.3,11.9-3.9,14.9L209.9,173.2z"/>
					<path class="st5" d="M210.4,171.6c-5,2.9-11.4,1.2-14.3-3.8l-17.2-29.5c-2.9-5-1.2-11.4,3.8-14.3l50.6-29.6
						c5-2.9,11.4-1.2,14.3,3.8l17.2,29.5c2.9,5,1.2,11.4-3.8,14.3L210.4,171.6z"/>
					<g>
						<path class="st7" d="M247.4,114c-1.5,0.9-3.4,0.4-4.3-1.1l-6.4-10.9c-0.9-1.5-0.4-3.4,1.1-4.3l0,0c1.5-0.9,3.4-0.4,4.3,1.1
							l6.4,10.9C249.4,111.2,248.9,113.2,247.4,114L247.4,114z"/>
						<path class="st14" d="M248.6,109.7l-3.2-5.5l-5.5,3.2l3.2,5.5c0.9,1.5,2.8,2,4.3,1.1C248.9,113.2,249.4,111.2,248.6,109.7z"/>
						<path class="st15" d="M237.8,97.7c-1.5,0.9-1.9,2.8-1.1,4.3l6.4,10.9c0.9,1.5,2.8,2,4.3,1.2L237.8,97.7z"/>
					</g>
					<g>
						<path class="st7" d="M260.7,136.8c-1.5,0.9-3.4,0.4-4.3-1.1l-6.4-10.9c-0.9-1.5-0.4-3.4,1.1-4.3l0,0c1.5-0.9,3.4-0.4,4.3,1.1
							l6.4,10.9C262.7,134,262.2,135.9,260.7,136.8L260.7,136.8z"/>
						<path class="st14" d="M261.9,132.5l-3.2-5.5l-5.5,3.2l3.2,5.5c0.9,1.5,2.8,2,4.3,1.1C262.2,135.9,262.7,134,261.9,132.5z"/>
						<path class="st15" d="M251.1,120.5c-1.5,0.9-1.9,2.8-1.1,4.3l6.4,10.9c0.9,1.5,2.8,2,4.3,1.2L251.1,120.5z"/>
					</g>
					<g>
						<path class="st7" d="M236.5,120.4c-1.5,0.9-3.4,0.4-4.3-1.1l-6.4-10.9c-0.9-1.5-0.4-3.4,1.1-4.3l0,0c1.5-0.9,3.4-0.4,4.3,1.1
							l6.4,10.9C238.5,117.6,238,119.6,236.5,120.4L236.5,120.4z"/>
						<path class="st14" d="M237.6,116.1l-3.2-5.5l-5.5,3.2l3.2,5.5c0.9,1.5,2.8,2,4.3,1.1C238,119.6,238.5,117.6,237.6,116.1z"/>
						<path class="st15" d="M226.8,104.1c-1.5,0.9-1.9,2.8-1.1,4.3l6.4,10.9c0.9,1.5,2.8,2,4.3,1.2L226.8,104.1z"/>
					</g>
					<g>
						<path class="st7" d="M249.8,143.2c-1.5,0.9-3.4,0.4-4.3-1.1l-6.4-10.9c-0.9-1.5-0.4-3.4,1.1-4.3l0,0c1.5-0.9,3.4-0.4,4.3,1.1
							l6.4,10.9C251.8,140.4,251.3,142.3,249.8,143.2L249.8,143.2z"/>
						<path class="st14" d="M250.9,138.9l-3.2-5.5l-5.5,3.2l3.2,5.5c0.9,1.5,2.8,2,4.3,1.1C251.3,142.3,251.8,140.4,250.9,138.9z"/>
						<path class="st15" d="M240.1,126.9c-1.5,0.9-1.9,2.8-1.1,4.3l6.4,10.9c0.9,1.5,2.8,2,4.3,1.2L240.1,126.9z"/>
					</g>
					<g>
						<path class="st7" d="M226.4,126.3c-1.5,0.9-3.4,0.4-4.3-1.1l-6.4-10.9c-0.9-1.5-0.4-3.4,1.1-4.3l0,0c1.5-0.9,3.4-0.4,4.3,1.1
							l6.4,10.9C228.5,123.5,228,125.4,226.4,126.3L226.4,126.3z"/>
						<path class="st14" d="M227.6,122l-3.2-5.5l-5.5,3.2l3.2,5.5c0.9,1.5,2.8,2,4.3,1.1C228,125.4,228.5,123.5,227.6,122z"/>
						<path class="st15" d="M216.8,109.9c-1.5,0.9-1.9,2.8-1.1,4.3l6.4,10.9c0.9,1.5,2.8,2,4.3,1.2L216.8,109.9z"/>
					</g>
					<g>
						<path class="st7" d="M239.8,149.1c-1.5,0.9-3.4,0.4-4.3-1.1L229,137c-0.9-1.5-0.4-3.4,1.1-4.3l0,0c1.5-0.9,3.4-0.4,4.3,1.1
							l6.4,10.9C241.8,146.2,241.3,148.2,239.8,149.1L239.8,149.1z"/>
						<path class="st14" d="M240.9,144.7l-3.2-5.5l-5.5,3.2l3.2,5.5c0.9,1.5,2.8,2,4.3,1.1C241.3,148.2,241.8,146.2,240.9,144.7z"/>
						<path class="st15" d="M230.1,132.7c-1.5,0.9-1.9,2.8-1.1,4.3l6.4,10.9c0.9,1.5,2.8,2,4.3,1.2L230.1,132.7z"/>
					</g>
					<g>
						<path class="st7" d="M215.5,132.7c-1.5,0.9-3.4,0.4-4.3-1.1l-6.4-10.9c-0.9-1.5-0.4-3.4,1.1-4.3l0,0c1.5-0.9,3.4-0.4,4.3,1.1
							l6.4,10.9C217.5,129.9,217,131.8,215.5,132.7L215.5,132.7z"/>
						<path class="st14" d="M216.6,128.4l-3.2-5.5l-5.5,3.2l3.2,5.5c0.9,1.5,2.8,2,4.3,1.1C217,131.8,217.5,129.9,216.6,128.4z"/>
						<path class="st15" d="M205.9,116.3c-1.5,0.9-1.9,2.8-1.1,4.3l6.4,10.9c0.9,1.5,2.8,2,4.3,1.2L205.9,116.3z"/>
					</g>
					<g>
						<path class="st7" d="M228.8,155.5c-1.5,0.9-3.4,0.4-4.3-1.1l-6.4-10.9c-0.9-1.5-0.4-3.4,1.1-4.3l0,0c1.5-0.9,3.4-0.4,4.3,1.1
							l6.4,10.9C230.8,152.6,230.3,154.6,228.8,155.5L228.8,155.5z"/>
						<path class="st14" d="M229.9,151.1l-3.2-5.5l-5.5,3.2l3.2,5.5c0.9,1.5,2.8,2,4.3,1.1C230.3,154.6,230.8,152.6,229.9,151.1z"/>
						<path class="st15" d="M219.2,139.1c-1.5,0.9-1.9,2.8-1.1,4.3l6.4,10.9c0.9,1.5,2.8,2,4.3,1.2L219.2,139.1z"/>
					</g>
					<g>
						<path class="st7" d="M203.7,139.5c-1.5,0.9-3.4,0.4-4.3-1.1l-6.4-10.9c-0.9-1.5-0.4-3.4,1.1-4.3l0,0c1.5-0.9,3.4-0.4,4.3,1.1
							l6.4,10.9C205.8,136.7,205.2,138.7,203.7,139.5L203.7,139.5z"/>
						<path class="st14" d="M204.9,135.2l-3.2-5.5l-5.5,3.2l3.2,5.5c0.9,1.5,2.8,2,4.3,1.1C205.2,138.7,205.8,136.7,204.9,135.2z"/>
						<path class="st15" d="M194.1,123.2c-1.5,0.9-1.9,2.8-1.1,4.3l6.4,10.9c0.9,1.5,2.8,2,4.3,1.2L194.1,123.2z"/>
					</g>
					<g>
						<path class="st7" d="M217,162.3c-1.5,0.9-3.4,0.4-4.3-1.1l-6.4-10.9c-0.9-1.5-0.4-3.4,1.1-4.3l0,0c1.5-0.9,3.4-0.4,4.3,1.1
							l6.4,10.9C219.1,159.5,218.5,161.4,217,162.3L217,162.3z"/>
						<path class="st14" d="M218.2,158l-3.2-5.5l-5.5,3.2l3.2,5.5c0.9,1.5,2.8,2,4.3,1.1C218.5,161.4,219.1,159.5,218.2,158z"/>
						<path class="st15" d="M207.4,146c-1.5,0.9-1.9,2.8-1.1,4.3l6.4,10.9c0.9,1.5,2.8,2,4.3,1.2L207.4,146z"/>
					</g>
					<g>
						<path class="st7" d="M192.8,146c-1.5,0.9-3.4,0.4-4.3-1.1l-6.4-10.9c-0.9-1.5-0.4-3.4,1.1-4.3l0,0c1.5-0.9,3.4-0.4,4.3,1.1
							l6.4,10.9C194.8,143.1,194.3,145.1,192.8,146L192.8,146z"/>
						<path class="st14" d="M193.9,141.6l-3.2-5.5l-5.5,3.2l3.2,5.5c0.9,1.5,2.8,2,4.3,1.1C194.3,145.1,194.8,143.1,193.9,141.6z"/>
						<path class="st15" d="M183.1,129.6c-1.5,0.9-1.9,2.8-1.1,4.3l6.4,10.9c0.9,1.5,2.8,2,4.3,1.2L183.1,129.6z"/>
					</g>
					<g>
						<path class="st7" d="M206.1,168.7c-1.5,0.9-3.4,0.4-4.3-1.1l-6.4-10.9c-0.9-1.5-0.4-3.4,1.1-4.3l0,0c1.5-0.9,3.4-0.4,4.3,1.1
							l6.4,10.9C208.1,165.9,207.6,167.9,206.1,168.7L206.1,168.7z"/>
						<path class="st14" d="M207.2,164.4l-3.2-5.5l-5.5,3.2l3.2,5.5c0.9,1.5,2.8,2,4.3,1.1C207.6,167.9,208.1,165.9,207.2,164.4z"/>
						<path class="st15" d="M196.4,152.4c-1.5,0.9-1.9,2.8-1.1,4.3l6.4,10.9c0.9,1.5,2.8,2,4.3,1.2L196.4,152.4z"/>
					</g>
					<path class="st16" d="M248.6,96.8l17.9,30.7c3,5.2,1.3,11.9-3.9,14.9l-52.7,30.8L248.6,96.8z"/>
				</g>
				<path class="st8" d="M181.4,120.6c-3.5,0.8-6.9-1.3-7.7-4.8l0,0c-0.8-3.5-0.1-6.1,3.3-7l42.7-9.1c3.5-0.8,6.9,1.3,7.7,4.8l0,0
					c0.8,3.5-1.3,6.9-4.8,7.7L181.4,120.6z"/>
			</g>
			<g class="st3">
				<g>
					<g>
						<path class="st17" d="M138,294.3c-2,1.8-5,1.7-6.8-0.3l0,0c-1.8-2-1.7-5,0.3-6.8l23.7-20.7c2-1.8,5-1.7,6.8,0.3l0,0
							c1.8,2,1.7,5-0.3,6.8L138,294.3z"/>
						<path class="st17" d="M139.6,307.7c-2,1.8-5,1.7-6.8-0.3l0,0c-1.8-2-1.7-5,0.3-6.8l23.7-20.7c2-1.8,5-1.7,6.8,0.3l0,0
							c1.8,2,1.7,5-0.3,6.8L139.6,307.7z"/>
						<path class="st17" d="M141.3,320.7c-2,1.8-5,1.7-6.8-0.3l0,0c-1.8-2-1.7-5,0.3-6.8l23.7-20.7c2-1.8,5-1.7,6.8,0.3l0,0
							c1.8,2,1.7,5-0.3,6.8L141.3,320.7z"/>
						<path class="st17" d="M152.9,323.9c-2,1.8-5,1.7-6.8-0.3l0,0c-1.8-2-1.7-5,0.3-6.8l9.4-8.3c2-1.8,5-1.7,6.8,0.3l0,0
							c1.8,2,1.7,5-0.3,6.8L152.9,323.9z"/>
						<path class="st17" d="M139.3,334c-6.8,4.7-16.1,4.6-20.8-2.2l-8.1-11.9c-4.7-6.8-2.9-16.1,3.9-20.8l14.4-10.1
							c16.7-13.7,13.6-0.9,15.6,6l8.1,11.9c7.4,9.2,4.2,14.5-2.1,19.9C144.3,331.9,139.3,334,139.3,334z"/>
						<polygon class="st17" points="129.4,330.7 115.9,310.4 -80,363.8 -60.5,398.4 						"/>
					</g>
				</g>
				<g>
					<path class="st5" d="M133.8,250.3l-7.8,95.7c-0.6,6.9,4.6,12.9,11.4,13.5c6.9,0.6,12.9-4.6,13.5-11.4l7.8-95.7L133.8,250.3z"/>
					<path class="st18" d="M132.8,297.6L129,345c-0.4,5.3,3.5,9.9,8.8,10.4c5.3,0.4,9.9-3.5,10.4-8.8l3.9-47.3L132.8,297.6z"/>
					
						<rect x="141.8" y="242.9" transform="matrix(8.151774e-02 -0.9967 0.9967 8.151774e-02 -120.4623 379.9906)" class="st13" width="8.2" height="25"/>
					<path class="st5" d="M162,252.6c-0.2,1.9-1.8,3.3-3.7,3.2l-24.6-2c-1.9-0.2-3.3-1.8-3.2-3.7l0,0c0.2-1.9,1.8-3.3,3.7-3.2
						l24.6,2C160.7,249,162.1,250.7,162,252.6L162,252.6z"/>
					
						<ellipse transform="matrix(8.141173e-02 -0.9967 0.9967 8.141173e-02 -180.9645 420.3264)" class="st11" cx="137.5" cy="308.3" rx="3.4" ry="3.4"/>
					
						<ellipse transform="matrix(8.151515e-02 -0.9967 0.9967 8.151515e-02 -170.3488 426.505)" class="st11" cx="146.2" cy="305.7" rx="2.6" ry="2.6"/>
					
						<ellipse transform="matrix(8.185986e-02 -0.9966 0.9966 8.185986e-02 -197.6246 433.1489)" class="st11" cx="136.3" cy="323.8" rx="2.6" ry="2.6"/>
					
						<ellipse transform="matrix(8.165018e-02 -0.9967 0.9967 8.165018e-02 -177.929 432.3676)" class="st11" cx="145.7" cy="312.7" rx="2.1" ry="2.1"/>
					
						<ellipse transform="matrix(8.159654e-02 -0.9967 0.9967 8.159654e-02 -192.8214 445.3311)" class="st11" cx="145.2" cy="327.3" rx="1.8" ry="1.8"/>
					
						<ellipse transform="matrix(8.122336e-02 -0.9967 0.9967 8.122336e-02 -188.4432 428.8397)" class="st11" cx="138.4" cy="316.6" rx="1.5" ry="1.5"/>
					
						<ellipse transform="matrix(8.117853e-02 -0.9967 0.9967 8.117853e-02 -207.5343 439.4308)" class="st11" cx="134.6" cy="332.3" rx="1" ry="1"/>
					
						<ellipse transform="matrix(8.213256e-02 -0.9966 0.9966 8.213256e-02 -182.9002 441.3331)" class="st11" cx="148.1" cy="320" rx="1" ry="1"/>
					<g>
						<line class="st19" x1="155.9" y1="260.3" x2="145.6" y2="259.4"/>
						<line class="st19" x1="155.1" y1="269.2" x2="144.9" y2="268.4"/>
						<line class="st19" x1="154.4" y1="278.2" x2="144.1" y2="277.3"/>
						<line class="st19" x1="153.6" y1="287.1" x2="143.4" y2="286.3"/>
						<line class="st19" x1="152.9" y1="296.1" x2="142.6" y2="295.2"/>
					</g>
				</g>
				<path class="st17" d="M118.3,309.9c-1.6,2.5-5,3.1-7.4,1.5l0,0c-2.5-1.6-3.1-5-1.5-7.4l20.2-28.4c1.6-2.5,5-3.1,7.4-1.5l0,0
					c2.5,1.6,3.1,5,1.5,7.4L118.3,309.9z"/>
				<path class="st17" d="M155.2,293.2c-2,1.8-5,1.7-6.8-0.3l0,0c-1.8-2-1.7-5,0.3-6.8l8.1-7c2-1.8,5-1.7,6.8,0.3l0,0
					c1.8,2,1.7,5-0.3,6.8L155.2,293.2z"/>
				<path class="st17" d="M153.9,308.6c-2,1.8-5,1.7-6.8-0.3l0,0c-1.8-2-1.7-5,0.3-6.8l11.1-9.4c2-1.8,5-1.7,6.8,0.3l0,0
					c1.8,2,1.7,5-0.3,6.8L153.9,308.6z"/>
				<path class="st17" d="M155,322.7c-1.8,2-4.8,2.1-6.8,0.3l0,0c-2-1.8-2.1-4.8-0.3-6.8l6-5.8c1.8-2,4.8-2.1,6.8-0.3l0,0
					c2,1.8,2.1,4.8,0.3,6.8L155,322.7z"/>
			</g>
			<g class="st3">
				<g>
					<g>
						<path class="st17" d="M92.1,224.6c-2.1,0.7-4.3-0.5-5-2.6l0,0c-0.7-2.1,0.5-4.3,2.6-5l24.9-7.1c2.1-0.7,4.3,0.5,5,2.6l0,0
							c0.7,2.1-0.5,4.3-2.6,5L92.1,224.6z"/>
						<path class="st17" d="M88.6,235.1c-2.1,0.7-4.3-0.5-5-2.6l0,0c-0.7-2.1,0.5-4.3,2.6-5l24.9-7.1c2.1-0.7,4.3,0.5,5,2.6l0,0
							c0.7,2.1-0.5,4.3-2.6,5L88.6,235.1z"/>
						<path class="st17" d="M85.2,245.3c-2.1,0.7-4.3-0.5-5-2.6l0,0c-0.7-2.1,0.5-4.3,2.6-5l24.9-7.1c2.1-0.7,4.3,0.5,5,2.6l0,0
							c0.7,2.1-0.5,4.3-2.6,5L85.2,245.3z"/>
						<path class="st17" d="M92.7,251.7c-2.1,0.7-4.3-0.5-5-2.6l0,0c-0.7-2.1,0.5-4.3,2.6-5l9.9-2.9c2.1-0.7,4.3,0.5,5,2.6l0,0
							c0.7,2.1-0.5,4.3-2.6,5L92.7,251.7z"/>
						<path class="st17" d="M79.2,254.5c-6.7,1.1-13.6-2.3-14.7-9l-1.9-11.7c-1.1-6.7,3.5-13,10.2-14.1l14.3-2.5
							c17.2-4.3,10.4,4.1,9.5,9.9l1.9,11.7c2.3,9.5-1.9,12.2-8.5,14C83.6,254.6,79.2,254.5,79.2,254.5z"/>
						<polygon class="st17" points="71.3,250.4 74.2,230.6 -112.7,213.2 -119.7,245 						"/>
					</g>
				</g>
				<g>
					<path class="st5" d="M95.5,248.7c-3.2,5.7-10.4,7.7-16,4.5l-0.1-0.1c-5.7-3.2-7.7-10.4-4.5-16L93,205c3.2-5.7,10.4-7.7,16-4.5
						l0.1,0.1c5.7,3.2,7.7,10.4,4.5,16L95.5,248.7z"/>
					<path class="st7" d="M84.3,220.4l-9.4,16.7c-3.2,5.7-1.2,12.8,4.5,16l0.1,0.1c5.7,3.2,12.8,1.2,16-4.5l9.3-16.4L84.3,220.4z"/>
					<path class="st15" d="M109,200.5L109,200.5c5.8,3.2,7.8,10.4,4.6,16.1l-18.1,32.2c-3.2,5.7-10.4,7.7-16,4.5l-0.1-0.1L109,200.5
						z"/>
				</g>
				<g>
					<path class="st17" d="M72,229.2c-2.1,1.2-4.8,0.6-6-1.5l0,0c-1.2-2.1-0.6-4.8,1.5-6l24.9-14c2.1-1.2,4.8-0.6,6,1.5l0,0
						c1.2,2.1,0.6,4.8-1.5,6L72,229.2z"/>
					<path class="st17" d="M105.3,229.8c-2.1,0.7-4.3-0.5-5-2.6l0,0c-0.7-2.1,0.5-4.3,2.6-5l8.5-2.4c2.1-0.7,4.3,0.5,5,2.6l0,0
						c0.7,2.1-0.5,4.3-2.6,5L105.3,229.8z"/>
					<path class="st17" d="M98.9,240.7c-2.1,0.7-4.3-0.5-5-2.6l0,0c-0.7-2.1,0.5-4.3,2.6-5l11.5-3.1c2.1-0.7,4.3,0.5,5,2.6l0,0
						c0.7,2.1-0.5,4.3-2.6,5L98.9,240.7z"/>
					<path class="st17" d="M94.8,251.6c-2,0.8-4.3-0.1-5.2-2.1l0,0c-0.8-2,0.1-4.3,2.1-5.2l6.5-2.2c2-0.8,4.3,0.1,5.2,2.1l0,0
						c0.8,2-0.1,4.3-2.1,5.2L94.8,251.6z"/>
				</g>
			</g>
			<g class="st3">
				<g>
					<g>
						<path class="st8" d="M539.4,237.7c2.1,0.2,4-1.4,4.2-3.5l0,0c0.2-2.1-1.4-4-3.5-4.2l-25.4-1.6c-2.1-0.2-4,1.4-4.2,3.5l0,0
							c-0.2,2.1,1.4,4,3.5,4.2L539.4,237.7z"/>
						<path class="st8" d="M536,246.3c2.1,0.2,4-1.4,4.2-3.5l0,0c0.2-2.1-1.4-4-3.5-4.2l-25.4-1.6c-2.1-0.2-4,1.4-4.2,3.5l0,0
							c-0.2,2.1,1.4,4,3.5,4.2L536,246.3z"/>
						<path class="st8" d="M537,255.2c2.1,0.2,4-1.4,4.2-3.5l0,0c0.2-2.1-1.4-4-3.5-4.2l-25.4-1.6c-2.1-0.2-4,1.4-4.2,3.5l0,0
							c-0.2,2.1,1.4,4,3.5,4.2L537,255.2z"/>
						<path class="st8" d="M541.4,264.5c2.1,0.2,4-1.4,4.2-3.5l0,0c0.2-2.1-1.4-4-3.5-4.2l-25.4-1.6c-2.1-0.2-4,1.4-4.2,3.5l0,0
							c-0.2,2.1,1.4,4,3.5,4.2L541.4,264.5z"/>
						<path class="st8" d="M558.7,264c6.5-0.4,11.5-6,11.1-12.5l-0.7-11.3c-0.4-6.5-6-11.5-12.5-11.1l-13.9,0.6
							c-17.1-0.5-8.9,6-6.9,11.3l0.7,11.3c-0.2,9.3,4.2,12,10.8,12.3C553.7,264.9,558.7,264,558.7,264z"/>
						<polygon class="st8" points="564.5,259.8 561.2,236.9 728.8,244.6 733.3,275.7 						"/>
					</g>
				</g>
				<path class="st8" d="M561.5,238.4c1.9,1.3,4.6,0.7,5.8-1.2l0,0c1.3-1.9,0.7-4.6-1.2-5.8L542.7,217c-1.9-1.3-4.6-0.7-5.8,1.2l0,0
					c-1.3,1.9-0.7,4.6,1.2,5.8L561.5,238.4z"/>
				<g>
					
						<ellipse transform="matrix(0.6747 -0.7381 0.7381 0.6747 -4.2452 477.2603)" class="st5" cx="539.3" cy="243.4" rx="17.5" ry="17.5"/>
					<path class="st20" d="M552.1,255.5l-25.9-23.7c-6.3,7.2-5.8,18.1,1.3,24.6C534.6,262.9,545.5,262.4,552.1,255.5z"/>
					
						<ellipse transform="matrix(0.6745 -0.7382 0.7382 0.6745 -4.4185 477.3001)" class="st16" cx="539.1" cy="243.7" rx="2.6" ry="17.3"/>
				</g>
			</g>
			<g class="st3">
				<g>
					<g>
						<path class="st17" d="M478.2,299.5c1.9,1.2,4.4,0.7,5.7-1.2l0,0c1.2-1.9,0.7-4.4-1.2-5.7l-22.8-13.9c-1.9-1.2-4.4-0.7-5.7,1.2
							l0,0c-1.2,1.9-0.7,4.4,1.2,5.7L478.2,299.5z"/>
						<path class="st17" d="M478.8,310.9c1.9,1.2,4.4,0.7,5.7-1.2l0,0c1.2-1.9,0.7-4.4-1.2-5.7l-22.8-13.9c-1.9-1.2-4.4-0.7-5.7,1.2
							l0,0c-1.2,1.9-0.7,4.4,1.2,5.7L478.8,310.9z"/>
						<path class="st17" d="M479.3,322c1.9,1.2,4.4,0.7,5.7-1.2l0,0c1.2-1.9,0.7-4.4-1.2-5.7l-22.8-13.9c-1.9-1.2-4.4-0.7-5.7,1.2
							l0,0c-1.2,1.9-0.7,4.4,1.2,5.7L479.3,322z"/>
						<path class="st17" d="M470.1,326.3c1.9,1.2,4.4,0.7,5.7-1.2l0,0c1.2-1.9,0.7-4.4-1.2-5.7l-9-5.6c-1.9-1.2-4.4-0.7-5.7,1.2l0,0
							c-1.2,1.9-0.7,4.4,1.2,5.7L470.1,326.3z"/>
						<path class="st17" d="M482.8,332.8c6.4,2.9,14.1,1.5,17.1-4.9l5.1-11.1c2.9-6.4,0.1-13.9-6.3-16.8l-13.5-6.4
							c-16-9-11.5,1.2-12.2,7.3l-5.1,11.1c-4.9,8.8-1.4,12.7,4.6,16.3C478.4,331.7,482.8,332.8,482.8,332.8z"/>
						<polygon class="st17" points="490.6,328.6 499,309.7 670.4,325.8 659.1,357.5 						"/>
					</g>
				</g>
				<g>
					
						<ellipse transform="matrix(0.1748 -0.9846 0.9846 0.1748 55.2655 772.8588)" class="st5" cx="488.7" cy="353.5" rx="31.8" ry="31.8"/>
					<path class="st5" d="M475.3,262.1l20.4,78.7c1.5,5.7-1.9,11.4-7.6,12.9c-5.7,1.5-11.4-1.9-12.9-7.6l-20.4-78.7L475.3,262.1z"/>
					<path class="st18" d="M483,301.5l10.1,39c1.1,4.4-1.5,8.8-5.8,9.9c-4.4,1.1-8.8-1.5-9.9-5.8l-10.1-39L483,301.5z"/>
					
						<ellipse transform="matrix(0.1748 -0.9846 0.9846 0.1748 55.2575 772.8502)" class="st18" cx="488.7" cy="353.5" rx="26.6" ry="26.6"/>
					
						<rect x="455.3" y="264.6" transform="matrix(0.9679 -0.2514 0.2514 0.9679 -52.4335 125.7384)" class="st13" width="21.2" height="6.9"/>
					<path class="st5" d="M452.1,268.1c0.4,1.6,2,2.5,3.6,2.1l20.2-5.3c1.6-0.4,2.5-2,2.1-3.6l0,0c-0.4-1.6-2-2.5-3.6-2.1l-20.2,5.3
						C452.6,264.9,451.7,266.5,452.1,268.1L452.1,268.1z"/>
					
						<ellipse transform="matrix(0.968 -0.2511 0.2511 0.968 -69.421 130.3331)" class="st11" cx="476" cy="337.2" rx="2.8" ry="2.8"/>
					
						<ellipse transform="matrix(0.9679 -0.2515 0.2515 0.9679 -72.2099 129.2552)" class="st11" cx="469.5" cy="347.1" rx="2.2" ry="2.2"/>
					
						<ellipse transform="matrix(0.9679 -0.2514 0.2514 0.9679 -68.0802 133.9372)" class="st11" cx="490.1" cy="333.4" rx="2.2" ry="2.2"/>
					
						<ellipse transform="matrix(0.9678 -0.2517 0.2517 0.9678 -64.9178 129.7007)" class="st11" cx="474.6" cy="318.6" rx="1.7" ry="1.7"/>
					
						<ellipse transform="matrix(0.968 -0.251 0.251 0.968 -74.5482 131.4636)" class="st11" cx="478.1" cy="358" rx="1.5" ry="1.5"/>
					
						<ellipse transform="matrix(0.968 -0.2509 0.2509 0.968 -72.3721 130.7681)" class="st11" cx="476.8" cy="349.3" rx="1.3" ry="1.3"/>
					
						<ellipse transform="matrix(0.9681 -0.2504 0.2504 0.9681 -72.1199 135.3675)" class="st11" cx="495.9" cy="351.1" rx="0.9" ry="0.9"/>
					
						<ellipse transform="matrix(0.9677 -0.2519 0.2519 0.9677 -74.6494 129.584)" class="st11" cx="468.8" cy="356.3" rx="0.9" ry="0.9"/>
					
						<ellipse transform="matrix(0.9679 -0.2514 0.2514 0.9679 -66.281 131.4067)" class="st11" cx="481.1" cy="325.1" rx="2.8" ry="2.8"/>
					
						<ellipse transform="matrix(0.9679 -0.2515 0.2515 0.9679 -63.9701 131.5265)" class="st11" cx="482.7" cy="316.1" rx="2.2" ry="2.2"/>
					
						<ellipse transform="matrix(0.9678 -0.2517 0.2517 0.9678 -69.4426 136.2619)" class="st11" cx="498" cy="339.6" rx="2.2" ry="2.2"/>
					
						<ellipse transform="matrix(0.968 -0.2511 0.2511 0.968 -69.5803 132.229)" class="st11" cx="483.4" cy="338.8" rx="1.7" ry="1.7"/>
					
						<ellipse transform="matrix(0.968 -0.251 0.251 0.968 -72.5173 133.1838)" class="st11" cx="485.9" cy="350.9" rx="1.5" ry="1.5"/>
					
						<ellipse transform="matrix(0.9679 -0.2513 0.2513 0.9679 -69.9746 134.116)" class="st11" cx="490" cy="341" rx="1.3" ry="1.3"/>
					
						<ellipse transform="matrix(0.968 -0.251 0.251 0.968 -70.2843 137.964)" class="st11" cx="505.8" cy="344.5" rx="0.9" ry="0.9"/>
					
						<ellipse transform="matrix(0.9679 -0.2515 0.2515 0.9679 -71.3132 132.4164)" class="st11" cx="482.4" cy="345.2" rx="0.9" ry="0.9"/>
					<g>
						<line class="st21" x1="458.3" y1="273.6" x2="466.8" y2="271.4"/>
						<line class="st21" x1="460.2" y1="281" x2="468.7" y2="278.8"/>
						<line class="st21" x1="462.2" y1="288.4" x2="470.6" y2="286.2"/>
						<line class="st21" x1="464.1" y1="295.7" x2="472.6" y2="293.5"/>
						<line class="st21" x1="466" y1="303.1" x2="474.5" y2="300.9"/>
					</g>
				</g>
				<path class="st17" d="M496.9,309.6c1.7,1.8,4.6,1.9,6.4,0.2l0,0c1.8-1.7,1.9-4.6,0.2-6.4l-21-20.8c-1.7-1.8-4.6-1.9-6.4-0.2l0,0
					c-1.8,1.7-1.9,4.6-0.2,6.4L496.9,309.6z"/>
				<path class="st17" d="M463.6,301.1c1.9,1.2,4.4,0.7,5.7-1.2l0,0c1.2-1.9,0.7-4.4-1.2-5.7l-7.8-4.7c-1.9-1.2-4.4-0.7-5.7,1.2l0,0
					c-1.2,1.9-0.7,4.4,1.2,5.7L463.6,301.1z"/>
				<path class="st17" d="M467,313.7c1.9,1.2,4.4,0.7,5.7-1.2l0,0c1.2-1.9,0.7-4.4-1.2-5.7l-10.6-6.3c-1.9-1.2-4.4-0.7-5.7,1.2l0,0
					c-1.2,1.9-0.7,4.4,1.2,5.7L467,313.7z"/>
				<path class="st17" d="M468.1,325.6c1.8,1.4,4.4,1.1,5.7-0.7l0,0c1.4-1.8,1.1-4.4-0.7-5.7l-5.8-4c-1.8-1.4-4.4-1.1-5.7,0.7l0,0
					c-1.4,1.8-1.1,4.3,0.7,5.7L468.1,325.6z"/>
			</g>
			<g class="st3">
				<g>
					<g>
						<path class="st17" d="M422.5,128.6c2.8,0,5-2.2,5.1-4.9l0,0c0-2.8-2.2-5-4.9-5.1l-32.7,0.5c-2.8,0-5.1,2.2-5.1,4.9l0,0
							c0,2.8,2.2,5,4.9,5.1L422.5,128.6z"/>
						<path class="st17" d="M430.6,140.1c2.8,0,5.1-2.2,5.1-4.9l0,0c0-2.8-2.2-5-4.9-5.1l-32.7,0.5c-2.8,0-5,2.2-5.1,4.9l0,0
							c0,2.8,2.2,5,4.9,5.1L430.6,140.1z"/>
						<path class="st17" d="M438.4,151.3c2.8,0,5-2.2,5.1-4.9l0,0c0-2.8-2.2-5.1-4.9-5.1l-32.7,0.5c-2.8,0-5,2.2-5.1,4.9l0,0
							c0,2.8,2.2,5,4.9,5.1L438.4,151.3z"/>
						<path class="st17" d="M431.6,161.8c2.8,0,5.1-2.2,5.1-4.9l0,0c0-2.8-2.2-5-4.9-5.1l-13,0.1c-2.8,0-5,2.2-5.1,4.9l0,0
							c0,2.8,2.2,5,4.9,5.1L431.6,161.8z"/>
						<path class="st17" d="M449.1,160.2c8.5-1.1,15.7-7.7,14.5-16.2l-2-14.8c-1.1-8.5-9-14.5-17.5-13.4L426,118
							c-22.5,1.1-11.2,8.7-7.9,15.5l2,14.8c0.7,12.3,6.8,14.1,15.4,13.9C443.8,162,449.1,160.2,449.1,160.2z"/>
						<polygon class="st17" points="454.4,150.8 450.8,125.7 689,74.7 698,115 						"/>
						<g>
							<g>
								<path class="st5" d="M455.1,180.6c2.7,5.2,0.6,11.6-4.6,14.3l0,0c-5.2,2.7-11.6,0.6-14.3-4.6L379.7,79.4
									c-2.7-5.2-0.6-11.6,4.6-14.3l0,0c5.2-2.7,11.6-0.6,14.3,4.6L455.1,180.6z"/>
								<g>
									<line class="st22" x1="385.3" y1="79.9" x2="382.8" y2="81.1"/>
									<line class="st22" x1="390.1" y1="89.3" x2="387.7" y2="90.6"/>
									<line class="st22" x1="394.9" y1="98.8" x2="392.5" y2="100"/>
									<line class="st22" x1="399.7" y1="108.3" x2="397.3" y2="109.5"/>
									<line class="st22" x1="404.6" y1="117.8" x2="402.2" y2="119"/>
									<line class="st22" x1="409.4" y1="127.2" x2="407" y2="128.5"/>
									<line class="st22" x1="414.2" y1="136.7" x2="411.8" y2="137.9"/>
									<line class="st22" x1="419" y1="146.2" x2="416.6" y2="147.4"/>
									<line class="st22" x1="423.9" y1="155.7" x2="421.5" y2="156.9"/>
									<line class="st22" x1="428.7" y1="165.1" x2="426.3" y2="166.4"/>
									<line class="st22" x1="433.5" y1="174.6" x2="431.1" y2="175.8"/>
									<line class="st22" x1="438.3" y1="184.1" x2="435.9" y2="185.3"/>
								</g>
								<path class="st5" d="M465.7,209.8c1.7,3.3,0.4,7.4-3,9.1l0,0c-3.3,1.7-7.4,0.4-9.1-3L421.5,153c-1.7-3.3-0.4-7.4,3-9.1l0,0
									c3.3-1.7,7.4-0.4,9.1,3L465.7,209.8z"/>
								<path class="st7" d="M461.7,209.2c0.9,1.7,0.2,3.8-1.5,4.7l0,0c-1.7,0.9-3.8,0.2-4.7-1.5l-14.5-28.5
									c-0.9-1.7-0.2-3.8,1.5-4.7l0,0c1.7-0.9,3.8-0.2,4.7,1.5L461.7,209.2z"/>
								<g>
									
										<rect x="414.6" y="66.1" transform="matrix(0.8909 -0.4542 0.4542 0.8909 -14.0757 204.2409)" class="st13" width="7" height="130.7"/>
									<path class="st13" d="M406.2,100.3c0.9,1.7,0.2,3.8-1.5,4.7l0,0c-1.7,0.9-3.8,0.2-4.7-1.5l-14.5-28.5
										c-0.9-1.7-0.2-3.8,1.5-4.7l0,0c1.7-0.9,3.8-0.2,4.7,1.5L406.2,100.3z"/>
								</g>
								<path class="st7" d="M426,139.2c0.9,1.7,0.2,3.8-1.5,4.7l0,0c-1.7,0.9-3.8,0.2-4.7-1.5l-14.5-28.5c-0.9-1.7-0.2-3.8,1.5-4.7
									l0,0c1.7-0.9,3.8-0.2,4.7,1.5L426,139.2z"/>
								
									<rect x="425.2" y="107.9" transform="matrix(0.8908 -0.4544 0.4544 0.8908 -22.2874 211.3831)" class="st7" width="7" height="88.3"/>
								<path class="st15" d="M384.8,65l78.4,153.7c3-1.8,4.2-5.7,2.5-8.9l-10.2-20.1c1.2-2.8,1.2-6.1-0.3-9L398.6,69.8
									C396,64.7,389.9,62.6,384.8,65z"/>
							</g>
						</g>
					</g>
				</g>
				<path class="st17" d="M448.6,126.9c3,0.8,6-1,6.7-4l0,0c0.8-3-1-6-4-6.7l-35.3-7.9c-3-0.8-6,1-6.7,4l0,0c-0.8,3,1,6,4,6.7
					L448.6,126.9z"/>
				<g>
					<path class="st17" d="M408.4,140.6c2.8,0,5.1-2.2,5.1-4.9l0,0c0-2.8-2.2-5.1-4.9-5.1l-11.1,0.2c-2.8,0-5,2.2-5.1,4.9l0,0
						c0,2.8,2.2,5,4.9,5.1L408.4,140.6z"/>
					<path class="st17" d="M420.1,151.5c2.8,0,5-2.2,5.1-4.9l0,0c0-2.8-2.2-5.1-4.9-5.1l-15.1,0.4c-2.8,0-5,2.2-5.1,4.9l0,0
						c0,2.8,2.2,5,4.9,5.1L420.1,151.5z"/>
					<path class="st17" d="M425.5,164.4c2.8,0.3,5.2-1.7,5.5-4.5l0,0c0.3-2.8-1.7-5.2-4.5-5.5l-8.7-0.3c-2.8-0.3-5.2,1.7-5.5,4.5
						l0,0c-0.3,2.8,1.7,5.2,4.5,5.5L425.5,164.4z"/>
				</g>
			</g>
		</g>
	</g>
	<g>
		<path class="st23" d="M363.2,323.5c0.9,0,1.7-0.7,1.7-1.7v-79.4l0,0c0-0.2-0.1-1.6-1.2-3c-1-1.2-2.9-2.7-6.7-2.7
			c-7.6,0-7.9,4.7-8,4.9l0,0.1v37.5c0,0.2-0.1,1.1-0.7,2c-0.8,1.2-2.2,1.9-4.1,1.9c-2,0-3.5-0.6-4.3-1.8c-0.5-0.7-0.6-1.4-0.7-1.6
			v-52.1c0-0.4,0-3.9-2.3-6.3c-1.3-1.4-3.1-2.1-5.3-2.1c-2.1,0-3.9,0.7-5.1,2.1c-2.3,2.4-2.2,6-2.1,6.6v27.4l0,0
			c0,0.7-0.2,2.7-1.3,3.8c-0.6,0.6-1.4,0.9-2.5,0.9c-1.7,0-2.9-0.8-3.6-2.4c-0.6-1.2-0.7-2.4-0.7-2.7v-27.1c0-5.2-2.8-7.8-5.1-9
			c-2.4-1.3-4.9-1.3-5-1.3l0,0h-41c-3.3,0-5.9,1.6-7.4,4.6c-1.1,2.1-1.3,4.3-1.3,4.4l0,0.1V239l0,0.1c0,0,0.5,5-1.9,7.7
			c-1,1.1-2.4,1.7-4.3,1.7h-12.7c-0.8-0.1-5.2-0.5-8.2,2.1c-1.8,1.6-2.8,3.9-2.8,6.8v47.3c0,0.9,0.7,1.7,1.7,1.7
			c0.9,0,1.7-0.7,1.7-1.7v-47.3c0-1.9,0.5-3.3,1.6-4.3c2.1-1.8,5.7-1.3,5.7-1.3l0.1,0l0.1,0h12.8c2.8,0,5.1-0.9,6.8-2.8
			c3.2-3.6,2.9-9.3,2.8-10.2v-12.1c0-0.3,0.2-1.7,1-3.1c1-1.8,2.4-2.7,4.4-2.7H306c0.2,0,1.9,0.1,3.6,1c2.2,1.2,3.2,3.1,3.2,6v27.2
			l0,0.1c0,0.2,0.1,2,1.1,4c1.3,2.8,3.7,4.3,6.6,4.3c2,0,3.7-0.7,4.9-1.9c2.2-2.3,2.2-5.7,2.2-6.2v-27.4l0-0.1c0-0.7,0.1-3,1.2-4.2
			c0.6-0.7,1.5-1,2.7-1c1.2,0,2.2,0.3,2.9,1c1.4,1.4,1.4,3.9,1.4,3.9l0,0l0,0v52.3l0,0.1c0,0.2,0.2,1.7,1.3,3.3
			c1,1.4,3.1,3.1,7.1,3.1c4,0,6-1.9,7-3.6c1-1.7,1.1-3.4,1.1-3.6l0-0.1v-37.4c0.1-0.3,0.7-1.8,4.6-1.8c2,0,3.4,0.5,4.1,1.4
			c0.4,0.5,0.5,1,0.5,1.1v79.3C361.5,322.8,362.3,323.5,363.2,323.5z"/>
		<g>
			<g>
				<g>
					<path class="st24" d="M395.7,353.9c0-0.5,0-1.1-0.1-1.6c-0.5,0.6-1,1.1-1.6,1.6c-1.2,1.1-2.5,2-4,2.8
						c-0.6,13.3-5.2,19.2-8.2,21.6c4.6-3.2,13.8-11.2,13.8-24.3C395.7,354,395.7,354,395.7,353.9z"/>
					<path class="st5" d="M370.5,326.2c0,0,19.5,5.8,19.6,27.7c0,0,0,0.1,0,0.1c0,0.9,0,1.8-0.1,2.7c1.4-0.8,2.8-1.8,4-2.8
						c0.6-0.5,1.1-1,1.6-1.6C394.4,336,376.1,326.9,370.5,326.2z"/>
					<path class="st25" d="M395.6,352.3c0.4-0.5,0.8-0.9,1.1-1.4c-1.4-14.1-12.1-23.4-26-26.4v-25h2.2c1.8,0,3.2-1.4,3.2-3.2
						c0-1.8-1.4-3.2-3.2-3.2h-9.3h-9.4c-1.8,0-3.2,1.4-3.2,3.2c0,1.8,1.4,3.2,3.2,3.2h2.2v25c-14.5,3.2-25.5,13.1-26.2,28.2
						c0.2-0.2,0.5-0.6,0.9-0.9c1.7-21.2,26.9-27.1,26.9-27.1v-25.4c0,0-5.9,0.2-5.9-1.9c0,0-0.3-3.2,1.8-3.2c2.1,0,10.7,0,10.7,0
						v31.4c0,0-17.7,7.8-20.7,23.7c0.3,0.1,0.6,0.2,0.9,0.2c3.5,1,6.6,2.6,9.6,4.3c6.1,3.5,11.3,7.4,16.5,7.6
						c5.4,0.2,13.1-1.3,19.2-4.8c0-0.9,0.1-1.8,0.1-2.7c0,0,0-0.1,0-0.1c-0.1-22-19.6-27.7-19.6-27.7
						C376.1,326.9,394.4,336,395.6,352.3z"/>
					<path class="st5" d="M364.6,325.6v-31.4c0,0-8.6,0-10.7,0c-2.1,0-1.8,3.2-1.8,3.2c0,2.1,5.9,1.9,5.9,1.9v25.4
						c0,0-25.3,5.9-26.9,27.1c1.8-1.7,5.9-4.1,12.8-2.4C346.9,333.4,364.6,325.6,364.6,325.6z"/>
				</g>
				<g>
					<path class="st26" d="M381.9,378.4c-1.5,1-2.5,1.6-2.5,1.6S380.4,379.6,381.9,378.4z"/>
				</g>
				<g>
					<path class="st27" d="M365.7,384.5c0,0-0.1,0-0.2-0.1c-0.3,0-0.5,0-0.8,0C365.3,384.5,365.7,384.5,365.7,384.5z"/>
					<g>
						<path class="st28" d="M396.9,353.9c0-1-0.1-2-0.2-3c-0.3,0.5-0.7,1-1.1,1.4c0,0.5,0.1,1.1,0.1,1.6c0,0,0,0.1,0,0.1
							c0,13.1-9.2,21.1-13.8,24.3c-1.4,1.2-2.5,1.6-2.5,1.6s1-0.5,2.5-1.6c3-2.4,7.6-8.4,8.2-21.6c-6,3.5-13.8,5-19.2,4.8
							c-5.2-0.2-10.4-4.1-16.5-7.6c-2.9-1.7-6.1-3.3-9.6-4.3c-0.3-0.1-0.6-0.2-0.9-0.2c-0.3,1.5-0.4,3-0.4,4.6c0,0,0,0.1,0,0.1
							c0,18,19.7,29.1,22,30.3c17.4-0.9,31.5-12.5,31.5-30.2C396.9,354.1,396.9,354,396.9,353.9z"/>
						<path class="st29" d="M331,353.9C331,353.9,331,353.9,331,353.9c0-0.8,0-1.5,0.1-2.2c-0.4,0.4-0.7,0.7-0.9,0.9
							c0,0.4,0,0.9,0,1.3c0,0.1,0,0.2,0,0.3c0,18.4,14.6,30.2,33.1,30.2c0.1,0,0.2,0,0.3,0c0.4,0,0.7,0,1.1,0
							C358.9,383.9,331,379.8,331,353.9z"/>
					</g>
					<path class="st24" d="M343.4,354c0,0,0-0.1,0-0.1c0-1.6,0.2-3.1,0.4-4.6c-6.9-1.8-10.9,0.7-12.8,2.4c-0.1,0.7-0.1,1.5-0.1,2.2
						c0,0,0,0,0,0c0,25.8,27.9,29.9,33.6,30.5c0.3,0,0.5,0,0.8,0C363.1,383.1,343.4,372,343.4,354z"/>
				</g>
				<circle class="st30" cx="359.5" cy="374.9" r="4.1"/>
				<path class="st30" d="M346.2,368c-2.1,0-3.8-1.7-3.8-3.8c0-2.1,1.7-3.8,3.8-3.8c2.1,0,3.8,1.7,3.8,3.8
					C350,366.3,348.3,368,346.2,368z M346.2,361.6c-1.4,0-2.5,1.1-2.5,2.5c0,1.4,1.1,2.5,2.5,2.5c1.4,0,2.5-1.1,2.5-2.5
					C348.7,362.8,347.6,361.6,346.2,361.6z"/>
				<g>
					<path class="st24" d="M358.8,302.9c0-0.1,0-0.2,0-0.2c-0.9,0.7-1.5,1.8-1.5,3c0,2,1.6,3.7,3.7,3.7c0.9,0,1.8-0.4,2.4-0.9
						C360.8,307.9,358.8,305.6,358.8,302.9z"/>
					<path class="st28" d="M364.7,305.6c0-2-1.6-3.7-3.7-3.7c-0.8,0-1.6,0.3-2.2,0.7c0,0.1,0,0.2,0,0.2c0,2.7,2,5,4.6,5.5
						C364.2,307.7,364.7,306.7,364.7,305.6z"/>
				</g>
				<g>
					<path class="st24" d="M359.4,334.7c0-0.4,0-0.8,0.1-1.1c-1.4,1-2.2,2.6-2.2,4.3c0,2.9,2.4,5.3,5.3,5.3c1.4,0,2.6-0.5,3.6-1.4
						C362.3,341.6,359.4,338.5,359.4,334.7z"/>
					<path class="st28" d="M367.9,337.9c0-2.9-2.4-5.3-5.3-5.3c-1.1,0-2.2,0.4-3.1,1c-0.1,0.4-0.1,0.7-0.1,1.1c0,3.8,3,6.9,6.8,7.2
						C367.2,340.8,367.9,339.4,367.9,337.9z"/>
				</g>
			</g>
			<path class="st24" d="M348.9,335.7c1.3,0,2.4,1.1,2.4,2.4c0,1.3-1.1,2.4-2.4,2.4c-1.3,0-2.4-1.1-2.4-2.4
				C346.6,336.8,347.6,335.7,348.9,335.7 M348.9,334.5c-2,0-3.6,1.6-3.6,3.6c0,2,1.6,3.6,3.6,3.6c2,0,3.6-1.6,3.6-3.6
				C352.5,336.1,350.9,334.5,348.9,334.5L348.9,334.5z"/>
			<path class="st24" d="M372,342.5c1.3,0,2.4,1.1,2.4,2.4c0,1.3-1.1,2.4-2.4,2.4s-2.4-1.1-2.4-2.4
				C369.6,343.6,370.7,342.5,372,342.5 M372,341.4c-2,0-3.6,1.6-3.6,3.6c0,2,1.6,3.6,3.6,3.6c2,0,3.6-1.6,3.6-3.6
				C375.6,343,374,341.4,372,341.4L372,341.4z"/>
		</g>
		<path class="st25" d="M398.4,300.7h-0.3h-16.7h-0.3c-1,0-1.8,0.8-1.8,1.8v0.4c0,0.9,0.6,1.6,1.4,1.7c0.1,0,0.3,0,0.4,0h17.2
			c0.1,0,0.3,0,0.4,0c0.8-0.2,1.4-0.9,1.4-1.7v-0.4C400.2,301.5,399.4,300.7,398.4,300.7z"/>
		<rect x="380.8" y="305.7" class="st25" width="18" height="31.5"/>
		<g>
			<path class="st31" d="M398.8,304.6c-0.1,0-0.2,0-0.4,0h-8.9v1h9.3V304.6z"/>
			<path class="st31" d="M381.2,304.7c-0.1,0-0.3,0-0.4,0v1.1h1.4c0-0.4,0-0.8,0-1H381.2z"/>
			<path class="st5" d="M389.5,301.5h-8.2c0,0-1.3,0.1-1.3,1.2c0,1.1,1.2,1.2,1.2,1.2l0.3,0l0.7,0.1c0,0,0,0.2,0,0.6h7.4V301.5z"/>
			<path class="st32" d="M382.1,304.7c0,0.3,0,0.6,0,1h7.4v-1H382.1z"/>
		</g>
		<g>
			<path class="st31" d="M386.4,348.6h-5.7v1.2h5.7c0.3,0,0.6-0.3,0.6-0.6C387,348.9,386.8,348.6,386.4,348.6z"/>
		</g>
		<g>
			<path class="st31" d="M386.4,356.7h-5.7v1.2h5.7c0.3,0,0.6-0.3,0.6-0.6C387,357,386.8,356.7,386.4,356.7z"/>
		</g>
		<g>
			<path class="st31" d="M386.4,364.7h-5.7v1.2h5.7c0.3,0,0.6-0.3,0.6-0.6C387,365,386.8,364.7,386.4,364.7z"/>
		</g>
		<g>
			<path class="st31" d="M386.4,372.8h-5.7v1.2h5.7c0.3,0,0.6-0.3,0.6-0.6S386.8,372.8,386.4,372.8z"/>
		</g>
		<g>
			<path class="st33" d="M382.1,337.7h-1.4v2.8h1.4C382.1,339.6,382.1,338.7,382.1,337.7z"/>
			<path class="st33" d="M382.1,335.4h-1.4v1.1h1.4C382.1,336.2,382.1,335.8,382.1,335.4z"/>
			<path class="st33" d="M389.5,335.4v47.8c0,0-7.4-1.8-7.4-8.3c0-3,0-17.8,0-33.1h-1.4v33.3c0,5,4,9,9,9c5,0,9-4,9-9v-39.6H389.5z"
				/>
			<path class="st5" d="M389.5,305.7h-7.4c0,0.7,0,1.6,0,2.7h4.3c0.3,0,0.6,0.3,0.6,0.6c0,0.3-0.3,0.6-0.6,0.6h-4.3
				c0,0.9,0,1.8,0,2.8h1.7c0.3,0,0.6,0.3,0.6,0.6c0,0.3-0.3,0.6-0.6,0.6h-1.7c0,0.9,0,1.9,0,2.8h4.3c0.3,0,0.6,0.3,0.6,0.6
				c0,0.3-0.3,0.6-0.6,0.6h-4.3c0,0.9,0,1.9,0,2.8h1.7c0.3,0,0.6,0.3,0.6,0.6c0,0.3-0.3,0.6-0.6,0.6h-1.7c0,0.9,0,1.9,0,2.8h4.3
				c0.3,0,0.6,0.3,0.6,0.6c0,0.3-0.3,0.6-0.6,0.6h-4.3c0,0.9,0,1.9,0,2.8h1.7c0.3,0,0.6,0.3,0.6,0.6c0,0.3-0.3,0.6-0.6,0.6h-1.7
				c0,0.9,0,1.9,0,2.8h4.3c0.3,0,0.6,0.3,0.6,0.6c0,0.3-0.3,0.6-0.6,0.6h-4.3c0,0.6,0,1.1,0,1.7h7.4V305.7z"/>
			<path class="st34" d="M383.8,336.6c0.3,0,0.6,0.3,0.6,0.6c0,0.3-0.3,0.6-0.6,0.6h-1.7c0,0.9,0,1.9,0,2.8h4.3
				c0.3,0,0.6,0.3,0.6,0.6c0,0.3-0.3,0.6-0.6,0.6h-4.3c0,15.3,0,30.1,0,33.1c0,6.6,7.4,8.3,7.4,8.3v-47.8h-7.4c0,0.4,0,0.7,0,1.1
				H383.8z"/>
			<path class="st31" d="M380.8,308.4v1.2h1.4c0-0.4,0-0.8,0-1.2H380.8z"/>
			<path class="st32" d="M387,309c0-0.3-0.3-0.6-0.6-0.6h-4.3c0,0.4,0,0.8,0,1.2h4.3C386.8,309.6,387,309.3,387,309z"/>
			<path class="st31" d="M380.8,316.4v1.2h1.4c0-0.4,0-0.8,0-1.2H380.8z"/>
			<path class="st32" d="M387,317c0-0.3-0.3-0.6-0.6-0.6h-4.3c0,0.4,0,0.8,0,1.2h4.3C386.8,317.6,387,317.4,387,317z"/>
			<path class="st31" d="M380.8,324.5v1.2h1.4c0-0.4,0-0.8,0-1.2H380.8z"/>
			<path class="st32" d="M387,325.1c0-0.3-0.3-0.6-0.6-0.6h-4.3c0,0.4,0,0.8,0,1.2h4.3C386.8,325.7,387,325.4,387,325.1z"/>
			<path class="st31" d="M382.1,340.6h-1.4v1.2h1.4C382.1,341.4,382.1,341,382.1,340.6z"/>
			<path class="st31" d="M387,341.2c0-0.3-0.3-0.6-0.6-0.6h-4.3c0,0.4,0,0.8,0,1.2h4.3C386.8,341.8,387,341.5,387,341.2z"/>
			<path class="st31" d="M380.8,332.5v1.2h1.4c0-0.4,0-0.8,0-1.2H380.8z"/>
			<path class="st32" d="M387,333.1c0-0.3-0.3-0.6-0.6-0.6h-4.3c0,0.4,0,0.8,0,1.2h4.3C386.8,333.7,387,333.5,387,333.1z"/>
			<path class="st31" d="M380.8,312.4v1.2h1.4c0-0.4,0-0.8,0-1.2H380.8z"/>
			<path class="st32" d="M384.4,313c0-0.3-0.3-0.6-0.6-0.6h-1.7c0,0.4,0,0.8,0,1.2h1.7C384.2,313.6,384.4,313.3,384.4,313z"/>
			<path class="st31" d="M380.8,320.5v1.2h1.4c0-0.4,0-0.8,0-1.2H380.8z"/>
			<path class="st32" d="M384.4,321.1c0-0.3-0.3-0.6-0.6-0.6h-1.7c0,0.4,0,0.8,0,1.2h1.7C384.2,321.6,384.4,321.4,384.4,321.1z"/>
			<path class="st31" d="M380.8,328.5v1.2h1.4c0-0.4,0-0.8,0-1.2H380.8z"/>
			<path class="st32" d="M384.4,329.1c0-0.3-0.3-0.6-0.6-0.6h-1.7c0,0.4,0,0.8,0,1.2h1.7C384.2,329.7,384.4,329.4,384.4,329.1z"/>
			<path class="st31" d="M382.1,336.6h-1.4v1.2h1.4C382.1,337.3,382.1,337,382.1,336.6z"/>
			<path class="st31" d="M384.4,337.2c0-0.3-0.3-0.6-0.6-0.6h-1.7c0,0.4,0,0.8,0,1.2h1.7C384.2,337.7,384.4,337.5,384.4,337.2z"/>
		</g>
		<g>
			<path class="st31" d="M383.8,344.6h-3.1v1.2h3.1c0.3,0,0.6-0.3,0.6-0.6C384.4,344.9,384.2,344.6,383.8,344.6z"/>
		</g>
		<g>
			<path class="st31" d="M383.8,352.7h-3.1v1.2h3.1c0.3,0,0.6-0.3,0.6-0.6C384.4,352.9,384.2,352.7,383.8,352.7z"/>
		</g>
		<g>
			<path class="st31" d="M383.8,360.7h-3.1v1.2h3.1c0.3,0,0.6-0.3,0.6-0.6C384.4,361,384.2,360.7,383.8,360.7z"/>
		</g>
		<g>
			<path class="st31" d="M383.8,368.8h-3.1v1.2h3.1c0.3,0,0.6-0.3,0.6-0.6C384.4,369,384.2,368.8,383.8,368.8z"/>
		</g>
		<g>
			<g>
				<g>
					<path class="st35" d="M263,350.3c0-0.6,0-1.2-0.1-1.8c-0.5,0.6-1.1,1.2-1.7,1.8c-1.3,1.2-2.8,2.2-4.4,3.1
						c-0.6,14.6-5.7,21.1-9,23.8c5-3.5,15.2-12.3,15.2-26.7C263,350.4,263,350.4,263,350.3z"/>
					<path class="st5" d="M235.3,319.8c0,0,21.5,6.3,21.6,30.5c0,0.1,0,0.1,0,0.2c0,1,0,2-0.1,3c1.6-0.9,3.1-2,4.4-3.1
						c0.6-0.6,1.2-1.1,1.7-1.8C261.6,330.6,241.5,320.5,235.3,319.8z"/>
					<path class="st25" d="M263,348.6c0.4-0.5,0.9-1,1.2-1.6c-1.6-15.5-13.3-25.7-28.6-29.1v-27.5h2.4c1.9,0,3.5-1.6,3.5-3.5
						c0-1.9-1.6-3.5-3.5-3.5h-10.3h-10.3c-1.9,0-3.5,1.6-3.5,3.5c0,1.9,1.6,3.5,3.5,3.5h2.4v27.5c-15.9,3.5-28,14.4-28.8,31
						c0.2-0.3,0.5-0.6,1-1c1.8-23.3,29.6-29.7,29.6-29.7v-27.9c0,0-6.5,0.2-6.5-2c0,0-0.3-3.6,1.9-3.6c2.3,0,11.7,0,11.7,0v34.6
						c0,0-19.5,8.6-22.8,26.1c0.3,0.1,0.7,0.2,1,0.3c3.8,1.1,7.3,2.9,10.5,4.8c6.7,3.8,12.4,8.1,18.1,8.4c5.9,0.3,14.4-1.4,21.1-5.3
						c0-1,0.1-1.9,0.1-3c0-0.1,0-0.1,0-0.2c-0.1-24.1-21.6-30.5-21.6-30.5C241.5,320.5,261.6,330.6,263,348.6z"/>
					<path class="st5" d="M228.9,319.2v-34.6c0,0-9.5,0-11.7,0c-2.3,0-1.9,3.6-1.9,3.6c0,2.3,6.5,2,6.5,2v27.9
						c0,0-27.8,6.4-29.6,29.7c2-1.8,6.5-4.5,14.1-2.6C209.4,327.8,228.9,319.2,228.9,319.2z"/>
				</g>
				<g>
					<path class="st26" d="M247.9,377.2c-1.6,1.1-2.7,1.7-2.7,1.7S246.3,378.5,247.9,377.2z"/>
				</g>
				<g>
					<path class="st27" d="M230.1,383.9c0,0-0.1,0-0.2-0.1c-0.3,0-0.6,0-0.9,0C229.7,383.9,230.1,383.9,230.1,383.9z"/>
					<g>
						<path class="st29" d="M264.4,350.3c0-1.1-0.1-2.2-0.2-3.3c-0.4,0.5-0.8,1.1-1.2,1.6c0,0.6,0.1,1.2,0.1,1.8c0,0.1,0,0.1,0,0.2
							c0,14.4-10.2,23.2-15.2,26.7c-1.6,1.3-2.7,1.7-2.7,1.7s1.1-0.6,2.7-1.7c3.3-2.7,8.4-9.2,9-23.8c-6.6,3.8-15.2,5.5-21.1,5.3
							c-5.7-0.3-11.4-4.6-18.1-8.4c-3.2-1.9-6.7-3.6-10.5-4.8c-0.3-0.1-0.7-0.2-1-0.3c-0.3,1.6-0.5,3.3-0.5,5c0,0,0,0.1,0,0.1
							c0,19.8,21.6,32,24.2,33.4c19.1-1,34.6-13.7,34.6-33.2C264.4,350.5,264.4,350.4,264.4,350.3z"/>
						<path class="st29" d="M191.9,350.3C191.9,350.3,191.9,350.3,191.9,350.3c0-0.8,0-1.6,0.1-2.4c-0.4,0.4-0.8,0.8-1,1
							c0,0.5,0,0.9,0,1.4c0,0.1,0,0.2,0,0.3c0,20.3,16.1,33.2,36.3,33.2c0.1,0,0.2,0,0.4,0c0.4,0,0.8,0,1.2,0
							C222.6,383.2,191.9,378.7,191.9,350.3z"/>
					</g>
					<path class="st35" d="M205.6,350.4c0,0,0-0.1,0-0.1c0-1.8,0.2-3.4,0.5-5c-7.6-1.9-12,0.7-14.1,2.6c-0.1,0.8-0.1,1.6-0.1,2.4
						c0,0,0,0,0,0c0,28.4,30.6,32.9,37,33.5c0.3,0,0.6,0,0.9,0C227.3,382.4,205.6,370.2,205.6,350.4z"/>
				</g>
				<circle class="st30" cx="223.3" cy="373.4" r="4.5"/>
				<path class="st30" d="M208.6,365.8c-2.3,0-4.2-1.9-4.2-4.2c0-2.3,1.9-4.2,4.2-4.2c2.3,0,4.2,1.9,4.2,4.2
					C212.9,363.9,211,365.8,208.6,365.8z M208.6,358.8c-1.5,0-2.8,1.2-2.8,2.8s1.2,2.8,2.8,2.8c1.5,0,2.8-1.2,2.8-2.8
					S210.2,358.8,208.6,358.8z"/>
				<g>
					<path class="st36" d="M219.8,263.8c0-1,0.2-1.9,0.5-2.7c-1.8,1-3.1,2.9-3.1,5.2c0,3.2,2.6,5.9,5.9,5.9c1.1,0,2.1-0.3,2.9-0.8
						C222.5,270.6,219.8,267.5,219.8,263.8z"/>
					<path class="st29" d="M228.9,266.2c0-3.2-2.6-5.9-5.9-5.9c-1,0-1.9,0.2-2.7,0.7c-0.3,0.9-0.5,1.8-0.5,2.7
						c0,3.7,2.7,6.8,6.2,7.5C227.7,270.3,228.9,268.4,228.9,266.2z"/>
				</g>
				<g>
					<path class="st36" d="M229.2,276.9c-0.4,0.5-0.6,1.1-0.6,1.8c0,1.6,1.3,2.9,2.9,2.9c0.8,0,1.5-0.3,2-0.8
						C231.2,280.6,229.4,279,229.2,276.9z"/>
					<path class="st29" d="M234.2,278.7c0-1.6-1.3-2.9-2.9-2.9c-0.9,0-1.7,0.4-2.2,1.1c0.3,2.1,2,3.7,4.2,3.8
						C233.9,280.2,234.2,279.5,234.2,278.7z"/>
				</g>
				<g>
					<path class="st36" d="M222.6,294.2c0-0.1,0-0.2,0-0.3c-1,0.7-1.7,1.9-1.7,3.3c0,2.2,1.8,4,4,4c1,0,2-0.4,2.7-1
						C224.7,299.7,222.6,297.2,222.6,294.2z"/>
					<path class="st29" d="M229,297.2c0-2.2-1.8-4-4-4c-0.9,0-1.7,0.3-2.4,0.8c0,0.1,0,0.2,0,0.3c0,3,2.2,5.5,5.1,6
						C228.4,299.5,229,298.4,229,297.2z"/>
				</g>
				<g>
					<path class="st36" d="M223.1,329.1c0-0.4,0-0.8,0.1-1.2c-1.5,1.1-2.5,2.8-2.5,4.8c0,3.2,2.6,5.9,5.9,5.9c1.5,0,2.9-0.6,3.9-1.5
						C226.4,336.8,223.1,333.3,223.1,329.1z"/>
					<path class="st29" d="M232.5,332.7c0-3.2-2.6-5.9-5.9-5.9c-1.3,0-2.4,0.4-3.4,1.1c-0.1,0.4-0.1,0.8-0.1,1.2
						c0,4.2,3.3,7.6,7.4,7.9C231.7,335.9,232.5,334.4,232.5,332.7z"/>
				</g>
			</g>
			<path class="st29" d="M211.7,330.3c1.4,0,2.6,1.2,2.6,2.6c0,1.4-1.2,2.6-2.6,2.6c-1.4,0-2.6-1.2-2.6-2.6
				C209,331.5,210.2,330.3,211.7,330.3 M211.7,329c-2.2,0-3.9,1.8-3.9,3.9c0,2.2,1.8,3.9,3.9,3.9s3.9-1.8,3.9-3.9
				C215.6,330.7,213.8,329,211.7,329L211.7,329z"/>
			<path class="st29" d="M233.4,254.5c1.3,0,2.3,1,2.3,2.3c0,1.3-1,2.3-2.3,2.3c-1.3,0-2.3-1-2.3-2.3
				C231.1,255.5,232.1,254.5,233.4,254.5 M233.4,253.3c-1.9,0-3.4,1.5-3.4,3.4c0,1.9,1.5,3.4,3.4,3.4c1.9,0,3.4-1.5,3.4-3.4
				C236.8,254.9,235.3,253.3,233.4,253.3L233.4,253.3z"/>
			<path class="st29" d="M237,337.8c1.4,0,2.6,1.2,2.6,2.6c0,1.4-1.2,2.6-2.6,2.6c-1.4,0-2.6-1.2-2.6-2.6
				C234.4,339,235.6,337.8,237,337.8 M237,336.5c-2.2,0-3.9,1.8-3.9,3.9c0,2.2,1.8,3.9,3.9,3.9c2.2,0,3.9-1.8,3.9-3.9
				C241,338.2,239.2,336.5,237,336.5L237,336.5z"/>
			<g>
				<g>
					<polygon class="st29" points="234,271.8 234,272.7 236,270.8 235.9,269.9 					"/>
					<polygon class="st29" points="238.8,268.2 240.8,266.3 240.7,265.4 238.8,267.3 					"/>
					<polygon class="st29" points="240.9,272.4 240.9,271.5 238.9,269.8 238.9,270.7 					"/>
					<polygon class="st29" points="233.8,265.6 233.9,266.4 235.9,268.2 235.9,267.3 					"/>
				</g>
			</g>
			<g>
				<g>
					<polygon class="st29" points="200,297.8 200,298.7 202,296.9 202,296 					"/>
					<polygon class="st29" points="204.8,294.2 206.8,292.4 206.8,291.5 204.8,293.3 					"/>
					<polygon class="st29" points="206.9,298.5 206.9,297.6 204.9,295.9 204.9,296.7 					"/>
					<polygon class="st29" points="199.8,291.6 199.9,292.5 201.9,294.2 201.9,293.3 					"/>
				</g>
			</g>
		</g>
		<g>
			<path class="st37" d="M304.2,327.4c0.3,1.3,1.6,2.2,2.9,2l20.5-4c1.3-0.3,2.2-1.6,2-2.9l0,0c-0.3-1.3-1.6-2.2-2.9-2l-20.5,4
				C304.8,324.8,303.9,326.1,304.2,327.4L304.2,327.4z"/>
			<path class="st37" d="M292.1,264.8c0.3,1.3,1.6,2.2,2.9,2l20.5-4c1.3-0.3,2.2-1.6,2-2.9l0,0c-0.3-1.3-1.6-2.2-2.9-2l-20.5,4
				C292.7,262.1,291.8,263.4,292.1,264.8L292.1,264.8z"/>
			<polygon class="st37" points="314.6,257.9 314.9,246.6 289.5,251.5 294,261.9 			"/>
			<path class="st5" d="M288.5,250.9c0.1,0.4,0.5,0.7,0.9,0.6l25.2-4.9c0.4-0.1,0.7-0.5,0.6-0.9l0,0c-0.1-0.4-0.5-0.7-0.9-0.6
				l-25.2,4.9C288.7,250.1,288.4,250.5,288.5,250.9L288.5,250.9z"/>
			<path class="st5" d="M293.4,261.2c0.1,0.4,0.4,0.7,0.8,0.7l20.5-4c0.4-0.1,0.6-0.5,0.5-0.9l0,0c-0.1-0.4-0.4-0.7-0.8-0.7l-20.5,4
				C293.5,260.3,293.3,260.7,293.4,261.2L293.4,261.2z"/>
			<path class="st5" d="M307.3,329.3l10.2-2l10.2-2c0,0,1.4,6.1-1.8,6.7l-7.2,1.4l-7.2,1.4C308.3,335.5,307.3,329.3,307.3,329.3z"/>
			<path class="st25" d="M310.8,287.6c0,0-27.4,8-39.9,31.2c-12.5,23.2-10.7,52.6-10.7,52.6l27.7,4c0,0-15.8-23.7-2.1-51.5
				c13.7-27.8,30.5-24.1,30.5-24.1L310.8,287.6z"/>
			
				<rect x="300.7" y="264.2" transform="matrix(0.9819 -0.1896 0.1896 0.9819 -50.0251 64.2405)" class="st25" width="20.2" height="58.8"/>
			<path class="st37" d="M286.9,293.8c-1.1,6.9,3.5,13.4,10.5,14.6c6.9,1.1,13.4-3.5,14.6-10.5c1.1-6.9-3.6-13.4-10.5-14.6
				C294.6,282.2,288.1,286.9,286.9,293.8z"/>
			
				<ellipse transform="matrix(0.1617 -0.9868 0.9868 0.1617 -40.9279 543.5232)" class="st38" cx="299.5" cy="295.9" rx="4.2" ry="4.2"/>
			<path class="st39" d="M299.3,364.5c0,2.4,1.9,4.3,4.3,4.3h38.5c2.4,0,4.3-1.9,4.3-4.3l0,0c0-2.4-1.9-4.3-4.3-4.3h-38.5
				C301.2,360.2,299.3,362.1,299.3,364.5L299.3,364.5z"/>
			<g>
				<g>
					<g>
						<path class="st37" d="M241.7,387.2c0-8.8,6.1-15.9,13.7-15.9h91.4c7.6,0,13.7,7.1,13.7,15.9c0,0.3,0,0.5,0,0.7H241.7
							C241.7,387.6,241.7,387.4,241.7,387.2z"/>
					</g>
				</g>
			</g>
			<path class="st37" d="M360.3,387.9v4.8c0,1-0.8,1.8-1.8,1.8h-11.2c-1,0-1.8-0.8-1.8-1.8v-4.8H360.3z"/>
			<path class="st37" d="M256.4,392.7c0,1-0.8,1.8-1.8,1.8h-11.2c-1,0-1.8-0.8-1.8-1.8v-4.8h14.7V392.7z"/>
			<g>
				<g>
					<g>
						<path class="st37" d="M296.6,376.2c0-3.9,2.7-7.1,6.1-7.1h40.9c3.4,0,6.1,3.2,6.1,7.1c0,0.1,0,0.2,0,0.3h-53.2
							C296.6,376.5,296.6,376.4,296.6,376.2z"/>
					</g>
				</g>
			</g>
			<path class="st37" d="M291.3,373.1l-12.6-20.2c0,0-2.3-5.6-6.4-5.7c-4.9-0.2-6.8,3.6-6.8,3.6l-12.2,32.1L291.3,373.1z
				 M273.6,350.7c0.6,1.2,0,2.7-1.2,3.2c-1.2,0.6-2.7,0-3.2-1.2c-0.6-1.2,0-2.7,1.2-3.2C271.6,349,273.1,349.5,273.6,350.7z"/>
		</g>
		<g>
			<path class="st25" d="M403.6,308.1h0.3h15.2h0.3c0.9,0,1.6,0.7,1.6,1.6v0.3c0,0.8-0.6,1.4-1.3,1.6c-0.1,0-0.2,0-0.3,0h-15.7
				c-0.1,0-0.2,0-0.3,0c-0.7-0.2-1.3-0.8-1.3-1.6v-0.3C402,308.8,402.7,308.1,403.6,308.1z"/>
			<rect x="403.3" y="312.6" class="st25" width="16.4" height="28.7"/>
			<g>
				<path class="st31" d="M403.3,311.6c0.1,0,0.2,0,0.3,0h8.1v0.9h-8.4V311.6z"/>
				<path class="st31" d="M419.4,311.7c0.1,0,0.2,0,0.3,0v1h-1.2c0-0.4,0-0.7,0-0.9H419.4z"/>
				<path class="st5" d="M411.7,308.8h7.5c0,0,1.2,0.1,1.2,1.1c0,1-1.1,1.1-1.1,1.1l-0.2,0l-0.6,0.1c0,0,0,0.2,0,0.6h-6.7V308.8z"/>
				<path class="st32" d="M418.5,311.7c0,0.2,0,0.6,0,0.9h-6.7v-0.9H418.5z"/>
			</g>
			<g>
				<path class="st31" d="M414.5,351.8h5.2v1.1h-5.2c-0.3,0-0.5-0.2-0.5-0.5C414,352,414.3,351.8,414.5,351.8z"/>
			</g>
			<g>
				<path class="st31" d="M414.5,359.1h5.2v1.1h-5.2c-0.3,0-0.5-0.2-0.5-0.5C414,359.3,414.3,359.1,414.5,359.1z"/>
			</g>
			<g>
				<path class="st31" d="M414.5,366.4h5.2v1.1h-5.2c-0.3,0-0.5-0.2-0.5-0.5C414,366.7,414.3,366.4,414.5,366.4z"/>
			</g>
			<g>
				<path class="st31" d="M414.5,373.8h5.2v1.1h-5.2c-0.3,0-0.5-0.2-0.5-0.5C414,374,414.3,373.8,414.5,373.8z"/>
			</g>
			<g>
				<path class="st29" d="M418.5,341.8h1.2v2.6h-1.2C418.5,343.5,418.5,342.7,418.5,341.8z"/>
				<path class="st29" d="M418.5,339.7h1.2v1h-1.2C418.5,340.4,418.5,340.1,418.5,339.7z"/>
				<path class="st29" d="M411.7,339.7v43.6c0,0,6.7-1.6,6.7-7.6c0-2.7,0-16.2,0-30.2h1.2v30.4c0,4.5-3.7,8.2-8.2,8.2
					c-4.5,0-8.2-3.7-8.2-8.2v-36.1H411.7z"/>
				<path class="st40" d="M411.7,312.6h6.7c0,0.6,0,1.5,0,2.5h-3.9c-0.3,0-0.5,0.2-0.5,0.5c0,0.3,0.2,0.5,0.5,0.5h3.9
					c0,0.8,0,1.7,0,2.6h-1.5c-0.3,0-0.5,0.2-0.5,0.5c0,0.3,0.2,0.5,0.5,0.5h1.5c0,0.8,0,1.7,0,2.6h-3.9c-0.3,0-0.5,0.2-0.5,0.5
					c0,0.3,0.2,0.5,0.5,0.5h3.9c0,0.8,0,1.7,0,2.6h-1.5c-0.3,0-0.5,0.2-0.5,0.5c0,0.3,0.2,0.5,0.5,0.5h1.5c0,0.8,0,1.7,0,2.6h-3.9
					c-0.3,0-0.5,0.2-0.5,0.5c0,0.3,0.2,0.5,0.5,0.5h3.9c0,0.9,0,1.7,0,2.6h-1.5c-0.3,0-0.5,0.2-0.5,0.5c0,0.3,0.2,0.5,0.5,0.5h1.5
					c0,0.9,0,1.7,0,2.6h-3.9c-0.3,0-0.5,0.2-0.5,0.5c0,0.3,0.2,0.5,0.5,0.5h3.9c0,0.5,0,1,0,1.6h-6.7V312.6z"/>
				<path class="st41" d="M416.9,340.7c-0.3,0-0.5,0.2-0.5,0.5c0,0.3,0.2,0.5,0.5,0.5h1.5c0,0.9,0,1.7,0,2.6h-3.9
					c-0.3,0-0.5,0.2-0.5,0.5c0,0.3,0.2,0.5,0.5,0.5h3.9c0,14,0,27.5,0,30.2c0,6-6.7,7.6-6.7,7.6v-43.6h6.7c0,0.3,0,0.7,0,1H416.9z"
					/>
				<path class="st31" d="M419.7,315.1v1.1h-1.2c0-0.4,0-0.7,0-1.1H419.7z"/>
				<path class="st32" d="M414,315.6c0-0.3,0.2-0.5,0.5-0.5h3.9c0,0.3,0,0.7,0,1.1h-3.9C414.3,316.1,414,315.9,414,315.6z"/>
				<path class="st31" d="M419.7,322.4v1.1h-1.2c0-0.4,0-0.7,0-1.1H419.7z"/>
				<path class="st32" d="M414,322.9c0-0.3,0.2-0.5,0.5-0.5h3.9c0,0.4,0,0.7,0,1.1h-3.9C414.3,323.5,414,323.2,414,322.9z"/>
				<path class="st31" d="M419.7,329.7v1.1h-1.2c0-0.4,0-0.7,0-1.1H419.7z"/>
				<path class="st32" d="M414,330.3c0-0.3,0.2-0.5,0.5-0.5h3.9c0,0.4,0,0.7,0,1.1h-3.9C414.3,330.8,414,330.6,414,330.3z"/>
				<path class="st31" d="M418.5,344.4h1.2v1.1h-1.2C418.5,345.1,418.5,344.8,418.5,344.4z"/>
				<path class="st31" d="M414,345c0-0.3,0.2-0.5,0.5-0.5h3.9c0,0.4,0,0.7,0,1.1h-3.9C414.3,345.5,414,345.2,414,345z"/>
				<path class="st31" d="M419.7,337.1v1.1h-1.2c0-0.4,0-0.7,0-1.1H419.7z"/>
				<path class="st32" d="M414,337.6c0-0.3,0.2-0.5,0.5-0.5h3.9c0,0.4,0,0.7,0,1.1h-3.9C414.3,338.1,414,337.9,414,337.6z"/>
				<path class="st31" d="M419.7,318.7v1.1h-1.2c0-0.4,0-0.7,0-1.1H419.7z"/>
				<path class="st32" d="M416.4,319.3c0-0.3,0.2-0.5,0.5-0.5h1.5c0,0.3,0,0.7,0,1.1h-1.5C416.6,319.8,416.4,319.6,416.4,319.3z"/>
				<path class="st31" d="M419.7,326.1v1.1h-1.2c0-0.4,0-0.7,0-1.1H419.7z"/>
				<path class="st32" d="M416.4,326.6c0-0.3,0.2-0.5,0.5-0.5h1.5c0,0.4,0,0.7,0,1.1h-1.5C416.6,327.1,416.4,326.9,416.4,326.6z"/>
				<path class="st31" d="M419.7,333.4v1.1h-1.2c0-0.4,0-0.7,0-1.1H419.7z"/>
				<path class="st32" d="M416.4,333.9c0-0.3,0.2-0.5,0.5-0.5h1.5c0,0.4,0,0.7,0,1.1h-1.5C416.6,334.5,416.4,334.2,416.4,333.9z"/>
				<path class="st31" d="M418.5,340.7h1.2v1.1h-1.2C418.5,341.5,418.5,341.1,418.5,340.7z"/>
				<path class="st31" d="M416.4,341.3c0-0.3,0.2-0.5,0.5-0.5h1.5c0,0.4,0,0.7,0,1.1h-1.5C416.6,341.8,416.4,341.6,416.4,341.3z"/>
			</g>
			<g>
				<path class="st31" d="M416.9,348.1h2.8v1.1h-2.8c-0.3,0-0.5-0.2-0.5-0.5C416.4,348.3,416.6,348.1,416.9,348.1z"/>
			</g>
			<g>
				<path class="st31" d="M416.9,355.4h2.8v1.1h-2.8c-0.3,0-0.5-0.2-0.5-0.5C416.4,355.7,416.6,355.4,416.9,355.4z"/>
			</g>
			<g>
				<path class="st31" d="M416.9,362.8h2.8v1.1h-2.8c-0.3,0-0.5-0.2-0.5-0.5C416.4,363,416.6,362.8,416.9,362.8z"/>
			</g>
			<g>
				<path class="st31" d="M416.9,370.1h2.8v1.1h-2.8c-0.3,0-0.5-0.2-0.5-0.5C416.4,370.3,416.6,370.1,416.9,370.1z"/>
			</g>
		</g>
	</g>
</g>
</svg>
