<?xml version="1.0" encoding="utf-8"?>
<!-- Generator: Adobe Illustrator 21.0.2, SVG Export Plug-In . SVG Version: 6.00 Build 0)  -->
<svg version="1.1" id="Layer_1" xmlns="http://www.w3.org/2000/svg" xmlns:xlink="http://www.w3.org/1999/xlink" x="0px" y="0px"
	 viewBox="0 0 612 612" style="enable-background:new 0 0 612 612;" xml:space="preserve">
<style type="text/css">
	.st0{fill:#E4CBA6;}
	.st1{fill:#FFF0D4;}
	.st2{fill:#F6A920;}
	.st3{fill:#484F59;}
	.st4{clip-path:url(#SVGID_2_);fill:#484F59;}
	.st5{fill:#F05E3C;}
	.st6{fill:#CDEAE7;}
	.st7{fill:#93D3C9;}
	.st8{fill:#51BFAA;}
	.st9{fill:#FFEFD5;}
	.st10{fill:#39A28E;}
	.st11{fill:#0E4774;}
	.st12{fill:#FCD2AE;}
	.st13{fill:#E1BB9A;}
	.st14{fill:#0D72B9;}
	.st15{fill:#CBCBCA;}
	.st16{fill:#0D3353;}
</style>
<g>
	<g>
		<g>
			<path class="st0" d="M306-1C192.7-1,93.9,60.5,41,152l265,153V-1z"/>
			<path class="st0" d="M41,152c-26,45-41,97.3-41,153s14.9,108,41,153l265-153L41,152z"/>
			<g>
				<path class="st0" d="M571,152C518.1,60.5,419.3-1,306-1v306L571,152z"/>
			</g>
			<path class="st0" d="M306,611c113.3,0,212.1-61.5,265-153L306,305V611z"/>
			<path class="st0" d="M41,458c52.9,91.4,151.8,153,265,153V305L41,458z"/>
			<path class="st0" d="M571,152L306,305l265,153c26-45,41-97.3,41-153S597.1,197,571,152z"/>
		</g>
	</g>
	<g>
		<g>
			<g>
				<path class="st1" d="M299.6,5.5v288.3L49.8,149.7c25.7-42.3,61.6-77.8,104.3-102.9C198.1,20.8,248.3,6.6,299.6,5.5 M306-1
					C192.7-1,93.9,60.5,41,152l265,153V-1L306-1z"/>
			</g>
			<g>
				<path class="st1" d="M43.4,160.8L293.1,305L43.4,449.2C19.2,405.2,6.4,355.5,6.4,305C6.4,254.5,19.2,204.8,43.4,160.8 M41,152
					c-26,45-41,97.3-41,153s14.9,108,41,153l265-153L41,152L41,152z"/>
			</g>
			<g>
				<path class="st1" d="M312.4,5.5c51.3,1.1,101.4,15.3,145.4,41.2c42.7,25.1,78.6,60.6,104.3,102.9L312.4,293.8V5.5 M306-1v306
					l265-153C518.1,60.5,419.3-1,306-1L306-1z"/>
			</g>
			<g>
				<path class="st1" d="M312.4,316.2l249.7,144.2c-25.7,42.3-61.6,77.8-104.3,102.9c-44,25.9-94.1,40.1-145.4,41.2V316.2 M306,305
					v306c113.3,0,212.1-61.5,265-153L306,305L306,305z"/>
			</g>
			<g>
				<path class="st1" d="M299.6,316.2v288.3c-51.3-1.1-101.4-15.3-145.4-41.2c-42.7-25.1-78.6-60.6-104.3-102.9L299.6,316.2
					 M306,305L41,458c52.9,91.4,151.8,153,265,153V305L306,305z"/>
			</g>
			<g>
				<path class="st1" d="M568.6,160.8c24.2,44,36.9,93.7,36.9,144.2c0,50.5-12.8,100.2-36.9,144.2L318.9,305L568.6,160.8 M571,152
					L306,305l265,153c26-45,41-97.3,41-153S597.1,197,571,152L571,152z"/>
			</g>
		</g>
	</g>
	<circle class="st1" cx="306" cy="305" r="143.7"/>
	<g>
		<g>
			<g>
				<path class="st2" d="M208.4,108.5h-87.1c-2,0-3.7-1.7-3.7-3.7l0,0c0-2,1.7-3.7,3.7-3.7h87.1c2,0,3.7,1.7,3.7,3.7l0,0
					C212.1,106.8,210.4,108.5,208.4,108.5z"/>
			</g>
			<g>
				<path class="st2" d="M164.9,108.5h-42.5c0,0,5.4,22.5,8.7,33.2c3.4,10.7,10.9,9.3,17.8,9.3c7,0,15.9,0,15.9,0s8.9,0,15.9,0
					s14.5,1.4,17.8-9.3c3.4-10.7,8.7-33.2,8.7-33.2H164.9z"/>
			</g>
		</g>
		<g>
			<path class="st3" d="M208.4,108.5h-87.1c-2,0-3.7-1.7-3.7-3.7l0,0c0-2,1.7-3.7,3.7-3.7h87.1c2,0,3.7,1.7,3.7,3.7l0,0
				C212.1,106.8,210.4,108.5,208.4,108.5z"/>
			<path class="st2" d="M164.9,108.5h-42.5c0,0,5.4,22.5,8.7,33.2c3.4,10.7,10.9,9.3,17.8,9.3c7,0,15.9,0,15.9,0s8.9,0,15.9,0
				s14.5,1.4,17.8-9.3c3.4-10.7,8.7-33.2,8.7-33.2H164.9z"/>
		</g>
		<g>
			<defs>
				<path id="SVGID_1_" d="M164.9,108.5h-42.5c0,0,5.4,22.5,8.7,33.2c3.4,10.7,10.9,9.3,17.8,9.3c7,0,15.9,0,15.9,0s8.9,0,15.9,0
					s14.5,1.4,17.8-9.3c3.4-10.7,8.7-33.2,8.7-33.2H164.9z"/>
			</defs>
			<clipPath id="SVGID_2_">
				<use xlink:href="#SVGID_1_"  style="overflow:visible;"/>
			</clipPath>
			<path class="st4" d="M205.1,122.9v-2.6h-11.3c1.2-7.2,2.1-12.9,2.1-13l0.2-1.5h-14.4H148h-14.4l0.2,1.5c0.1,0.5,1,6.1,2.1,13
				h-11.3v2.6h11.8c0.7,4.1,1.4,8.4,2.2,12.3h-10.1v2.6H139c0.3,1.8,0.7,3.4,1,4.9c2,9.7,6.3,11,10.7,11c0.5,0,1,0,1.6,0
				c0.5,0,1,0,1.5,0h3.1c0.5,0.1,1,0.1,1.5,0c0.2,0,0.5,0,0.7,0h11.6c0.2,0,0.5,0,0.7,0c0.3,0,0.5,0,0.8,0c0.3,0,0.6,0,0.8-0.1h3
				c0.5,0,1,0,1.5,0c4.4,0.1,9.9,0.3,12.2-11c0.3-1.5,0.6-3.1,1-4.9h10.6v-2.6h-10.1c0.7-3.9,1.5-8.2,2.1-12.3H205.1z M177.6,151.1
				c-0.4,0-0.8,0-1.1,0c0.9-1.7,1.5-4.3,2-8.4c0.2-1.4,0.3-3,0.5-4.8h9.3c-0.3,1.6-0.6,3-0.9,4.3
				C185.4,151.3,181.8,151.2,177.6,151.1z M163.6,122.9v12.3H153c-0.4-3.9-0.8-8.2-1.1-12.3H163.6z M166.1,122.9h11.7
				c-0.4,4.1-0.8,8.4-1.1,12.3h-10.6V122.9z M178,120.3h-12v-11.9h13C178.8,110.9,178.5,115.3,178,120.3z M163.6,120.3h-12
				c-0.5-5.2-0.8-9.7-1-11.9h13V120.3z M181.5,108.4h11.7c-0.4,2.2-1.1,6.7-1.9,11.9h-10.8C181,115.2,181.3,110.8,181.5,108.4z
				 M149.2,120.3h-10.8c-0.9-5.2-1.6-9.7-1.9-11.9h11.7C148.3,110.4,148.7,115,149.2,120.3z M149.4,122.9c0.4,4.1,0.7,8.4,1.1,12.3
				H141c-0.7-3.9-1.5-8.2-2.2-12.3H149.4z M150.8,137.8c0.2,1.7,0.3,3.3,0.5,4.8c0.4,4.1,1.1,6.8,2,8.4c-0.4,0-0.8,0-1.2,0
				c-4.2,0.1-7.8,0.3-9.7-8.9c-0.3-1.3-0.6-2.8-0.9-4.3H150.8z M156.9,151c-1.3-0.3-2.4-1.8-3.2-8.7c-0.1-1.3-0.3-2.8-0.5-4.5h10.4
				V151H159H156.9z M166.1,137.8h10.4c-0.2,1.6-0.3,3.1-0.5,4.5c-0.8,6.9-1.9,8.5-3.2,8.7h-2.1h-4.6V137.8z M179.2,135.2
				c0.4-3.9,0.8-8.2,1.1-12.3h10.6c-0.7,4.1-1.4,8.4-2.2,12.3H179.2z"/>
		</g>
		<path class="st3" d="M239.5,99.1h-23l-0.4,1.5c-0.1,0.3-7.7,32.8-10.7,42.1c-1.5,4.6-3.9,7.7-6.3,9.6c-0.1,0.1-0.2,0.2-0.3,0.3
			c-2.2,1.6-4.3,2.3-5.8,2.3h-60.7c-1.1,0-1.9,0.9-1.9,1.9c0,1.1,0.9,1.9,1.9,1.9h60.7c2.3,0,4.9-0.8,7.3-2.5
			c1.2,0.9,3.2,2.8,3.2,6.3c0,4.1-2.9,6-3.8,6.4h-58c-1.1,0-1.9,0.9-1.9,1.9c0,1.1,0.9,1.9,1.9,1.9h58.8l0.3-0.1
			c0.3-0.1,6.5-2.7,6.5-10.2c0-4.5-2.2-7.3-4.1-8.8c2.4-2.4,4.5-5.7,5.8-9.8c2.7-8.4,8.8-34.3,10.4-40.9h19.9c1.1,0,1.9-0.9,1.9-1.9
			S240.5,99.1,239.5,99.1z"/>
		<g>
			<g>
				<circle class="st2" cx="141.8" cy="170.9" r="7.9"/>
			</g>
			<g>
				<path class="st3" d="M141.8,180.7c-5.4,0-9.8-4.4-9.8-9.8c0-5.4,4.4-9.8,9.8-9.8c5.4,0,9.8,4.4,9.8,9.8
					C151.6,176.3,147.2,180.7,141.8,180.7z M141.8,165c-3.3,0-5.9,2.7-5.9,5.9c0,3.3,2.7,5.9,5.9,5.9c3.3,0,5.9-2.7,5.9-5.9
					C147.7,167.7,145.1,165,141.8,165z"/>
			</g>
		</g>
		<g>
			<g>
				<circle class="st2" cx="189.3" cy="170.9" r="7.9"/>
			</g>
			<g>
				<path class="st3" d="M189.3,180.7c-5.4,0-9.8-4.4-9.8-9.8c0-5.4,4.4-9.8,9.8-9.8c5.4,0,9.8,4.4,9.8,9.8
					C199.1,176.3,194.7,180.7,189.3,180.7z M189.3,165c-3.3,0-5.9,2.7-5.9,5.9c0,3.3,2.7,5.9,5.9,5.9c3.3,0,5.9-2.7,5.9-5.9
					C195.2,167.7,192.6,165,189.3,165z"/>
			</g>
		</g>
	</g>
	<g>
		<rect x="402.1" y="87.2" class="st5" width="87.5" height="93"/>
		<rect x="418.4" y="104.7" class="st3" width="54.9" height="58.1"/>
		<rect x="420.3" y="106.6" class="st2" width="51" height="54.3"/>
		<g>
			<path class="st3" d="M469.5,92.8c-1.2,0-2.1-1-2.1-2.1c0-14.8-9.7-26.8-21.6-26.8c-11.9,0-21.6,12-21.6,26.8c0,1.2-1,2.1-2.1,2.1
				c-1.2,0-2.1-1-2.1-2.1c0-17.1,11.6-31.1,25.8-31.1s25.8,13.9,25.8,31.1C471.7,91.9,470.7,92.8,469.5,92.8z"/>
		</g>
		<g>
			<path class="st3" d="M447,128c0,7.3-3.8,11-8.3,11c-4.3,0-8.1-3.5-8.1-10.5c0-6.9,3.8-10.8,8.4-10.8
				C443.8,117.6,447,121.3,447,128z M434.3,128.3c-0.1,4.4,1.5,7.8,4.5,7.8c3.1,0,4.5-3.3,4.5-7.9c0-4.2-1.2-7.7-4.5-7.7
				C435.8,120.4,434.3,123.9,434.3,128.3z M438.3,153.5l20.4-35.9h3l-20.4,35.9H438.3z M469.6,142.3c0,7.3-3.8,11-8.3,11
				c-4.3,0-8.1-3.5-8.1-10.4c0-7,3.8-10.9,8.4-10.9C466.4,132,469.6,135.7,469.6,142.3z M456.9,142.7c-0.1,4.4,1.7,7.8,4.5,7.8
				c3.1,0,4.5-3.3,4.5-7.9c0-4.2-1.2-7.7-4.5-7.7C458.5,134.8,456.9,138.3,456.9,142.7z"/>
		</g>
	</g>
	<g>
		<path class="st5" d="M564.5,391.7c0,5.4-4.4,9.8-9.8,9.8H515c-5.4,0-9.8-4.4-9.8-9.8V284.3c0-5.4,4.4-9.8,9.8-9.8h39.7
			c5.4,0,9.8,4.4,9.8,9.8V391.7z"/>
		<path class="st3" d="M560.6,383.1H509V293h51.6V383.1z"/>
		<polygon class="st6" points="558.7,380.9 511,380.9 511,348.7 511,295.1 533.7,295.1 558.7,295.1 		"/>
		<polygon class="st7" points="558.7,380.9 511,380.9 511,348.7 542.9,295.1 558.7,295.1 		"/>
		<circle class="st3" cx="534.8" cy="391.4" r="5.4"/>
		<circle class="st3" cx="534.8" cy="281.6" r="1.6"/>
	</g>
	<g>
		<path class="st8" d="M482.6,528.2H382.3c-2.3,0-4.1-1.9-4.1-4.1v-68.5c0-2.3,1.9-4.1,4.1-4.1h100.3c2.3,0,4.1,1.9,4.1,4.1v68.5
			C486.7,526.3,484.9,528.2,482.6,528.2z"/>
		<g>
			<g>
				<path class="st3" d="M408,509.3h-19.7c-0.5,0-0.9-0.4-0.9-0.9c0-0.5,0.4-0.9,0.9-0.9H408c0.5,0,0.9,0.4,0.9,0.9
					C408.8,508.9,408.4,509.3,408,509.3z"/>
			</g>
			<g>
				<path class="st3" d="M430.8,509.3h-19.7c-0.5,0-0.9-0.4-0.9-0.9c0-0.5,0.4-0.9,0.9-0.9h19.7c0.5,0,0.9,0.4,0.9,0.9
					C431.7,508.9,431.3,509.3,430.8,509.3z"/>
			</g>
			<g>
				<path class="st3" d="M453.7,509.3h-19.7c-0.5,0-0.9-0.4-0.9-0.9c0-0.5,0.4-0.9,0.9-0.9h19.7c0.5,0,0.9,0.4,0.9,0.9
					C454.6,508.9,454.2,509.3,453.7,509.3z"/>
			</g>
			<g>
				<path class="st3" d="M476.6,509.3h-19.7c-0.5,0-0.9-0.4-0.9-0.9c0-0.5,0.4-0.9,0.9-0.9h19.7c0.5,0,0.9,0.4,0.9,0.9
					C477.5,508.9,477.1,509.3,476.6,509.3z"/>
			</g>
		</g>
		<g>
			<g>
				<path class="st3" d="M408,516.8h-19.7c-0.5,0-0.9-0.4-0.9-0.9c0-0.5,0.4-0.9,0.9-0.9H408c0.5,0,0.9,0.4,0.9,0.9
					C408.8,516.4,408.4,516.8,408,516.8z"/>
			</g>
			<g>
				<path class="st3" d="M430.8,516.8h-19.7c-0.5,0-0.9-0.4-0.9-0.9c0-0.5,0.4-0.9,0.9-0.9h19.7c0.5,0,0.9,0.4,0.9,0.9
					C431.7,516.4,431.3,516.8,430.8,516.8z"/>
			</g>
			<g>
				<path class="st3" d="M453.7,516.8h-19.7c-0.5,0-0.9-0.4-0.9-0.9c0-0.5,0.4-0.9,0.9-0.9h19.7c0.5,0,0.9,0.4,0.9,0.9
					C454.6,516.4,454.2,516.8,453.7,516.8z"/>
			</g>
			<g>
				<path class="st3" d="M476.6,516.8h-19.7c-0.5,0-0.9-0.4-0.9-0.9c0-0.5,0.4-0.9,0.9-0.9h19.7c0.5,0,0.9,0.4,0.9,0.9
					C477.5,516.4,477.1,516.8,476.6,516.8z"/>
			</g>
		</g>
		<g>
			<g>
				<path class="st3" d="M392.5,490.1c-2.8,0-5.1-2.3-5.1-5.1v-19.8c0-2.8,2.3-5.1,5.1-5.1h19.8c2.8,0,5.1,2.3,5.1,5.1V485
					c0,2.8-2.3,5.1-5.1,5.1H392.5z"/>
				<path class="st9" d="M412.3,489.1h-19.8c-2.3,0-4.1-1.9-4.1-4.1v-19.8c0-2.3,1.9-4.1,4.1-4.1h19.8c2.3,0,4.1,1.9,4.1,4.1V485
					C416.4,487.3,414.6,489.1,412.3,489.1z"/>
				<g>
					<g>
						<path class="st3" d="M395,489.5c-0.2,0-0.3-0.2-0.3-0.3v-28.1c0-0.2,0.2-0.3,0.3-0.3c0.2,0,0.3,0.2,0.3,0.3v28.1
							C395.4,489.3,395.2,489.5,395,489.5z"/>
					</g>
					<g>
						<path class="st3" d="M409.8,489.5c-0.2,0-0.3-0.2-0.3-0.3v-28.1c0-0.2,0.2-0.3,0.3-0.3c0.2,0,0.3,0.2,0.3,0.3v28.1
							C410.1,489.3,410,489.5,409.8,489.5z"/>
					</g>
				</g>
				<g>
					<g>
						<path class="st3" d="M416.4,468.1h-28.1c-0.2,0-0.3-0.2-0.3-0.3c0-0.2,0.2-0.3,0.3-0.3h28.1c0.2,0,0.3,0.2,0.3,0.3
							C416.8,467.9,416.6,468.1,416.4,468.1z"/>
					</g>
					<g>
						<path class="st3" d="M416.4,473h-28.1c-0.2,0-0.3-0.2-0.3-0.3c0-0.2,0.2-0.3,0.3-0.3h28.1c0.2,0,0.3,0.2,0.3,0.3
							C416.8,472.8,416.6,473,416.4,473z"/>
					</g>
					<g>
						<path class="st3" d="M416.4,477.9h-28.1c-0.2,0-0.3-0.2-0.3-0.3c0-0.2,0.2-0.3,0.3-0.3h28.1c0.2,0,0.3,0.2,0.3,0.3
							C416.8,477.8,416.6,477.9,416.4,477.9z"/>
					</g>
					<g>
						<path class="st3" d="M416.4,482.8h-28.1c-0.2,0-0.3-0.2-0.3-0.3c0-0.2,0.2-0.3,0.3-0.3h28.1c0.2,0,0.3,0.2,0.3,0.3
							C416.8,482.7,416.6,482.8,416.4,482.8z"/>
					</g>
				</g>
			</g>
			<path class="st3" d="M476.5,469L476.5,469c-0.1-2.2-0.9-4.1-2.4-5.6c-0.1-0.1-0.2-0.2-0.3-0.3c-0.6-0.5-1.2-1-1.9-1.3
				c-1.1-0.5-2.3-0.8-3.5-0.8c-1.2,0-2.4,0.3-3.5,0.8c-0.7,0.3-1.4,0.8-1.9,1.3c-0.1,0.1-0.2,0.2-0.3,0.3c-1.5,1.5-2.3,3.4-2.4,5.5
				l0,0.1c0,0,0,0.1,0,0.1c0,0,0,0.1,0,0.1l0,0.1c0.1,2.1,0.9,4.1,2.4,5.5c0.1,0.1,0.2,0.2,0.3,0.3c0.6,0.5,1.2,1,1.9,1.3
				c1.1,0.5,2.3,0.8,3.5,0.8c1.2,0,2.4-0.3,3.5-0.8c0.7-0.3,1.4-0.8,1.9-1.3c0.1-0.1,0.2-0.2,0.3-0.3c1.5-1.5,2.3-3.4,2.4-5.5l0-0.1
				c0,0,0-0.1,0-0.1C476.5,469.1,476.5,469.1,476.5,469z M475.7,469.6c-0.1,1.8-0.8,3.4-2,4.7c-0.2-0.1-0.4-0.2-0.6-0.3
				c0.7-1.3,1-2.8,1.1-4.3H475.7z M464.1,474.6c0.2,0.4,0.5,0.7,0.8,1c-0.4-0.2-0.8-0.5-1.2-0.8C463.8,474.7,464,474.6,464.1,474.6z
				 M461.1,468.8c0.1-1.8,0.8-3.4,2-4.7c0.2,0.1,0.4,0.2,0.6,0.3c-0.7,1.3-1,2.8-1.1,4.3H461.1z M467.1,464.4c0.4-1.7,1-2.5,1.3-2.5
				c0.4,0,0.9,0.8,1.3,2.5C468.9,464.5,468,464.5,467.1,464.4z M472.8,463.8c-0.2-0.4-0.5-0.7-0.8-1c0.4,0.2,0.8,0.5,1.2,0.8
				C473,463.6,472.9,463.7,472.8,463.8z M466.2,473.3c-0.6,0.1-1.2,0.2-1.7,0.4c-0.6-1.2-1-2.6-1-4.1h2.4
				C465.9,470.9,466,472.1,466.2,473.3z M472.4,464.7c0.6,1.2,1,2.6,1,4.1H471c0-1.3-0.1-2.6-0.3-3.7
				C471.3,465,471.9,464.9,472.4,464.7z M470.7,473.3c0.2-1.1,0.3-2.4,0.3-3.7h2.4c-0.1,1.5-0.4,2.9-1,4.1
				C471.9,473.5,471.3,473.4,470.7,473.3z M470.2,469.6c0,1.3-0.1,2.5-0.3,3.6c-1-0.1-2-0.1-3,0c-0.2-1.1-0.3-2.3-0.3-3.6H470.2z
				 M466.6,468.8c0-1.3,0.1-2.5,0.3-3.6c1,0.1,2,0.1,3,0c0.2,1.1,0.3,2.3,0.3,3.6H466.6z M463.4,468.8c0.1-1.5,0.4-2.9,1-4.1
				c0.5,0.2,1.1,0.3,1.7,0.4c-0.2,1.1-0.3,2.4-0.3,3.7H463.4z M470.5,464.3c-0.2-0.9-0.5-1.7-0.8-2.2c0.8,0.3,1.6,1,2.2,1.9
				C471.6,464.1,471.1,464.2,470.5,464.3z M472,474.3c-0.6,0.9-1.4,1.6-2.2,1.9c0.3-0.5,0.6-1.3,0.8-2.2
				C471.1,474.1,471.6,474.2,472,474.3z M464.9,464c0.6-0.9,1.4-1.6,2.2-1.9c-0.3,0.5-0.6,1.3-0.8,2.2
				C465.8,464.2,465.3,464.1,464.9,464z M463.7,463.6c0.4-0.3,0.8-0.6,1.2-0.8c-0.3,0.3-0.5,0.6-0.8,1
				C464,463.7,463.8,463.6,463.7,463.6z M466.3,474c0.2,0.9,0.5,1.7,0.8,2.2c-0.8-0.3-1.6-1-2.2-1.9
				C465.3,474.2,465.8,474.1,466.3,474z M469.8,473.9c-0.4,1.7-1,2.5-1.3,2.5c-0.4,0-0.9-0.8-1.3-2.5
				C468,473.9,468.9,473.9,469.8,473.9z M473.2,474.8c-0.4,0.3-0.8,0.6-1.2,0.8c0.3-0.3,0.5-0.6,0.8-1
				C472.9,474.6,473,474.7,473.2,474.8z M463.7,473.9c-0.2,0.1-0.4,0.2-0.6,0.3c-1.2-1.3-1.9-2.9-2-4.7h1.5
				C462.7,471.1,463.1,472.6,463.7,473.9z M475.7,468.8h-1.5c-0.1-1.6-0.4-3.1-1.1-4.3c0.2-0.1,0.4-0.2,0.6-0.3
				C474.9,465.4,475.7,467,475.7,468.8z"/>
		</g>
	</g>
	<g>
		<path class="st5" d="M186.4,440.1c-33.8,0-32.5,9.6-32.5,61.2s32.5,52.7,32.5,52.7s32.5-1.1,32.5-52.7S220.2,440.1,186.4,440.1z"
			/>
		<path class="st2" d="M157.9,464.4c0,19.2,28.5,17.6,28.5,17.6s28.5,1.6,28.5-17.6c0-14-6.5-20-10-22.2c-4.5-1.5-10.5-2-18.4-2
			c-7.9,0-13.9,0.5-18.4,2C164.4,444.3,157.9,450.3,157.9,464.4z"/>
		<path class="st3" d="M167.2,473.1c-2.3,0-4.1-1.8-4.1-4.1v-11.2c0-2.3,1.8-4.1,4.1-4.1h38.3c2.3,0,4.1,1.8,4.1,4.1V469
			c0,2.3-1.8,4.1-4.1,4.1H167.2z"/>
		<path class="st6" d="M167.2,455.8h38.3c1.2,0,2.1,1,2.1,2.1V469c0,1.2-1,2.1-2.1,2.1h-38.3c-1.2,0-2.1-1-2.1-2.1v-11.2
			C165.1,456.7,166,455.8,167.2,455.8z"/>
		<g>
			<g>
				<polygon class="st7" points="186.4,455.8 179.5,455.8 167.2,471.1 174.2,471.1 				"/>
				<polygon class="st7" points="193.3,455.8 189.1,455.8 176.8,471.1 180.7,471.1 				"/>
			</g>
		</g>
		<g>
			<g>
				<g>
					<path class="st3" d="M174.3,498h-10.7c-0.8,0-1.5-0.7-1.5-1.5V488c0-0.8,0.7-1.5,1.5-1.5h10.7c0.8,0,1.5,0.7,1.5,1.5v8.5
						C175.9,497.3,175.2,498,174.3,498z"/>
					<path class="st3" d="M174.3,513.8h-10.7c-0.8,0-1.5-0.7-1.5-1.5v-8.5c0-0.8,0.7-1.5,1.5-1.5h10.7c0.8,0,1.5,0.7,1.5,1.5v8.5
						C175.9,513.1,175.2,513.8,174.3,513.8z"/>
					<path class="st3" d="M174.3,530.1h-10.7c-0.8,0-1.5-0.7-1.5-1.5v-8.5c0-0.8,0.7-1.5,1.5-1.5h10.7c0.8,0,1.5,0.7,1.5,1.5v8.5
						C175.9,529.4,175.2,530.1,174.3,530.1z"/>
				</g>
				<g>
					<path class="st3" d="M191.7,498H181c-0.8,0-1.5-0.7-1.5-1.5V488c0-0.8,0.7-1.5,1.5-1.5h10.7c0.8,0,1.5,0.7,1.5,1.5v8.5
						C193.3,497.3,192.6,498,191.7,498z"/>
					<path class="st3" d="M191.7,513.8H181c-0.8,0-1.5-0.7-1.5-1.5v-8.5c0-0.8,0.7-1.5,1.5-1.5h10.7c0.8,0,1.5,0.7,1.5,1.5v8.5
						C193.3,513.1,192.6,513.8,191.7,513.8z"/>
					<path class="st3" d="M191.7,530.1H181c-0.8,0-1.5-0.7-1.5-1.5v-8.5c0-0.8,0.7-1.5,1.5-1.5h10.7c0.8,0,1.5,0.7,1.5,1.5v8.5
						C193.3,529.4,192.6,530.1,191.7,530.1z"/>
					<path class="st3" d="M191.7,545.3H181c-0.8,0-1.5-0.7-1.5-1.5v-8.5c0-0.8,0.7-1.5,1.5-1.5h10.7c0.8,0,1.5,0.7,1.5,1.5v8.5
						C193.3,544.7,192.6,545.3,191.7,545.3z"/>
				</g>
				<g>
					<path class="st3" d="M209.1,498h-10.7c-0.8,0-1.5-0.7-1.5-1.5V488c0-0.8,0.7-1.5,1.5-1.5h10.7c0.8,0,1.5,0.7,1.5,1.5v8.5
						C210.7,497.3,210,498,209.1,498z"/>
					<path class="st3" d="M209.1,513.8h-10.7c-0.8,0-1.5-0.7-1.5-1.5v-8.5c0-0.8,0.7-1.5,1.5-1.5h10.7c0.8,0,1.5,0.7,1.5,1.5v8.5
						C210.7,513.1,210,513.8,209.1,513.8z"/>
					<path class="st3" d="M209.1,530.1h-10.7c-0.8,0-1.5-0.7-1.5-1.5v-8.5c0-0.8,0.7-1.5,1.5-1.5h10.7c0.8,0,1.5,0.7,1.5,1.5v8.5
						C210.7,529.4,210,530.1,209.1,530.1z"/>
				</g>
			</g>
		</g>
	</g>
	<g>
		<g>
			
				<rect x="28.8" y="303.2" transform="matrix(0.8892 -0.4574 0.4574 0.8892 -141.6376 73.1712)" class="st10" width="103" height="51.7"/>
		</g>
		<g>
			<path class="st3" d="M130.1,326.2l-81,41.7l-18.5-36l81-41.7L130.1,326.2z M49.8,365.3l77.6-39.9l-16.8-32.6l-77.6,39.9
				L49.8,365.3z"/>
		</g>
		<g>
			<g>
				<path class="st3" d="M39.5,340.2l-0.3,0.2l-3.6-7.1l7.1-3.6l0.2,0.3C44.7,333.7,43.2,338.2,39.5,340.2z"/>
			</g>
			<g>
				<path class="st3" d="M113.3,302.2l-0.3,0.2c-3.7,1.9-8.3,0.4-10.2-3.3l-0.2-0.3l7.1-3.6L113.3,302.2z"/>
			</g>
			<g>
				<path class="st3" d="M58,359.4l-7.1,3.6l-3.6-7.1l0.3-0.2c3.7-1.9,8.3-0.4,10.2,3.3L58,359.4z"/>
			</g>
			<g>
				<path class="st3" d="M125,324.9l-7.1,3.6l-0.2-0.3c-1.9-3.7-0.4-8.3,3.3-10.2l0.3-0.2L125,324.9z"/>
			</g>
		</g>
		<g>
			<g>
				<path class="st3" d="M88.1,344.2c-8.3,4.3-18.6,1-22.9-7.3c-4.3-8.3-1-18.6,7.3-22.9c8.3-4.3,18.6-1,22.9,7.3
					C99.7,329.6,96.4,339.9,88.1,344.2z M73.4,315.7c-7.4,3.8-10.3,12.9-6.5,20.3c3.8,7.4,12.9,10.3,20.3,6.5
					c7.4-3.8,10.3-12.9,6.5-20.3C89.9,314.8,80.8,311.8,73.4,315.7z"/>
			</g>
			<g>
				<path class="st3" d="M86.8,341.6c-6.9,3.6-15.5,0.8-19-6.1c-3.6-6.9-0.8-15.5,6.1-19c6.9-3.6,15.5-0.8,19,6.1
					C96.4,329.5,93.7,338.1,86.8,341.6z M74.2,317.2c-6.6,3.4-9.1,11.4-5.8,18c3.4,6.6,11.4,9.1,18,5.8c6.6-3.4,9.1-11.4,5.8-18
					C88.8,316.4,80.7,313.8,74.2,317.2z"/>
			</g>
		</g>
		<g>
			<path class="st3" d="M86.4,341.9l-1.4-2.7c-1.5,0.8-3.4,1.1-4.6,0.9l-0.3-2.1c1.3,0.1,2.9-0.1,4.4-0.8c1.9-1,2.6-2.7,1.8-4.2
				c-0.7-1.5-2.2-1.8-4.6-1.6c-3.2,0.3-5.5,0-6.7-2.3c-1.1-2.2-0.4-4.7,1.8-6.3l-1.4-2.7l1.6-0.8l1.3,2.6c1.6-0.8,2.9-0.9,3.9-0.8
				l0.2,2.1c-0.7,0-2.1-0.1-3.8,0.8c-2,1-2.2,2.7-1.6,3.7c0.7,1.4,2,1.6,4.8,1.3c3.3-0.3,5.4,0.4,6.6,2.7c1.1,2.1,0.6,4.8-1.9,6.7
				l1.4,2.8L86.4,341.9z"/>
		</g>
	</g>
	<g>
		<g>
			<g>
				<rect x="37.5" y="323.9" class="st8" width="103" height="51.7"/>
			</g>
		</g>
		<g>
			<path class="st3" d="M134.6,370H43.4v-40.5h91.1V370z M45.3,368.1h87.3v-36.6H45.3V368.1z"/>
		</g>
		<g>
			<g>
				<path class="st3" d="M47.7,341h-0.4v-8h8v0.4C55.2,337.6,51.8,341,47.7,341z"/>
			</g>
			<g>
				<path class="st3" d="M130.7,341h-0.4c-4.2,0-7.6-3.4-7.6-7.6V333h8V341z"/>
			</g>
			<g>
				<path class="st3" d="M55.2,366.6h-8v-8h0.4c4.2,0,7.6,3.4,7.6,7.6V366.6z"/>
			</g>
			<g>
				<path class="st3" d="M130.7,366.6h-8v-0.4c0-4.2,3.4-7.6,7.6-7.6h0.4V366.6z"/>
			</g>
		</g>
		<g>
			<g>
				<path class="st3" d="M89,366.8c-9.4,0-17-7.6-17-17c0-9.4,7.6-17,17-17c9.4,0,17,7.6,17,17C106,359.2,98.4,366.8,89,366.8z
					 M89,334.7c-8.3,0-15.1,6.8-15.1,15.1s6.8,15.1,15.1,15.1s15.1-6.8,15.1-15.1S97.3,334.7,89,334.7z"/>
			</g>
			<g>
				<path class="st3" d="M89,363.9c-7.8,0-14.1-6.3-14.1-14.1c0-7.8,6.3-14.1,14.1-14.1c7.8,0,14.1,6.3,14.1,14.1
					C103.1,357.6,96.8,363.9,89,363.9z M89,336.4c-7.4,0-13.4,6-13.4,13.4c0,7.4,6,13.4,13.4,13.4c7.4,0,13.4-6,13.4-13.4
					C102.4,342.4,96.4,336.4,89,336.4z"/>
			</g>
		</g>
		<g>
			<path class="st3" d="M88.6,364v-3c-1.7,0-3.5-0.6-4.6-1.3l0.7-2c1.1,0.7,2.6,1.3,4.3,1.3c2.1,0,3.5-1.2,3.5-2.9
				c0-1.6-1.2-2.6-3.4-3.5c-3-1.2-4.9-2.6-4.9-5.1c0-2.5,1.8-4.3,4.5-4.8v-3h1.8v2.9c1.8,0.1,3,0.5,3.9,1l-0.7,2
				c-0.6-0.4-1.8-1-3.8-1c-2.3,0-3.2,1.4-3.2,2.6c0,1.5,1.1,2.3,3.7,3.4c3.1,1.2,4.6,2.8,4.6,5.4c0,2.4-1.6,4.6-4.7,5.1v3.1H88.6z"
				/>
		</g>
	</g>
	<g>
		<g>
			<path class="st8" d="M396.4,370.7H215.6c-4.1,0-7.5-3.4-7.5-7.5V231.2c0-4.1,3.4-7.5,7.5-7.5h180.9c4.1,0,7.5,3.4,7.5,7.5v132.1
				C403.9,367.4,400.6,370.7,396.4,370.7z"/>
			<rect x="282.9" y="370.7" class="st3" width="46.3" height="15.2"/>
			<path class="st3" d="M384.4,356.8H227.6c-2.7,0-5-2.2-5-5V242.6c0-2.7,2.2-5,5-5h156.7c2.7,0,5,2.2,5,5v109.2
				C389.4,354.5,387.1,356.8,384.4,356.8z"/>
			<path class="st7" d="M381,351.7H231c-1.9,0-3.5-1.6-3.5-3.5v-102c0-1.9,1.6-3.5,3.5-3.5H381c1.9,0,3.5,1.6,3.5,3.5v102
				C384.5,350.1,382.9,351.7,381,351.7z"/>
			<path class="st6" d="M380.9,242.7H231.1c-2,0-3.6,1.6-3.6,3.6v54.4C227.5,300.6,275.9,242.7,380.9,242.7z"/>
			<path class="st8" d="M340.8,385.9c-14.6,0-34.8,0-34.8,0s-20.2,0-34.8,0s-15,15.8-15,15.8H306h49.8
				C355.8,401.8,355.3,385.9,340.8,385.9z"/>
			<path class="st11" d="M345.9,276.5c0,3.3-2.7,6-6,6h-68.3c-3.3,0-6-2.7-6-6l0,0c0-3.3,2.7-6,6-6h68.3
				C343.2,270.5,345.9,273.1,345.9,276.5L345.9,276.5z"/>
			<g>
				<g>
					<path class="st12" d="M293.6,272.6c2.4,0.1,4.3,2.2,4.2,4.6l0.1,17.3c-0.1,2.4-2.2,4.3-4.6,4.2l0,0c-2.4-0.1-4.3-2.2-4.2-4.6
						l-0.5-13.2C288.7,278.5,291.1,272.5,293.6,272.6L293.6,272.6z"/>
					<path class="st12" d="M321.3,270.3c2.5,0.1,4.4,2.2,4.3,4.7l0,17.7c-0.1,2.5-2.2,4.4-4.7,4.3l0,0c-2.5-0.1-4.4-2.2-4.3-4.7
						l0-17.7C316.8,272.1,318.9,270.2,321.3,270.3L321.3,270.3z"/>
					<path class="st12" d="M302.6,273c2.6,0.1,4.6,2.3,4.5,4.9v18.5c-0.1,2.6-2.3,4.6-4.9,4.5l0,0c-2.6-0.1-4.6-2.3-4.5-4.9v-18.5
						C297.8,274.9,300,272.9,302.6,273L302.6,273z"/>
					<path class="st12" d="M312.1,272.5c2.6,0.1,4.6,2.3,4.5,4.9l0,18.5c-0.1,2.6-2.3,4.6-4.9,4.5l0,0c-2.6-0.1-4.6-2.3-4.5-4.9
						l0-18.5C307.3,274.4,309.5,272.4,312.1,272.5L312.1,272.5z"/>
					<path class="st12" d="M288.4,283.5c0,0-4.6-7.1-4.7-11.6c1.4-13.6,14.5-26.2,24.5-25.8l0,0c15,0.7,18.2,14.8,17.7,24.8
						l-0.4,6.3L288.4,283.5z"/>
					<g>
						<path class="st13" d="M316.8,292.9c-0.5-1.3-0.8-2.7-1.1-4.1c-0.2-1.4-0.3-2.7-0.3-4.1c0-1.4,0-2.8,0.2-4.1
							c0.2-1.4,0.4-2.8,0.9-4.1c0.6,1.4,0.8,2.7,1.1,4.1c0.2,1.4,0.3,2.7,0.3,4.1c0,1.4,0,2.7-0.2,4.1
							C317.5,290.1,317.3,291.5,316.8,292.9z"/>
					</g>
					<g>
						<path class="st13" d="M307.1,296c-0.5-1.4-0.8-2.8-0.9-4.1c-0.1-1.4-0.2-2.7-0.2-4.1c0-1.4,0.1-2.7,0.3-4.1
							c0.2-1.4,0.4-2.7,0.9-4.1c0.5,1.4,0.8,2.7,1,4.1c0.2,1.4,0.3,2.8,0.3,4.1c0,1.4-0.1,2.8-0.4,4.1
							C307.9,293.3,307.6,294.6,307.1,296z"/>
					</g>
					<g>
						<path class="st13" d="M297.7,295.4c-0.5-1.4-0.8-2.7-1-4.1c-0.2-1.4-0.3-2.7-0.3-4.1c0-1.4,0.1-2.7,0.3-4.1
							c0.2-1.4,0.5-2.7,1-4.1c0.5,1.4,0.8,2.7,1,4.1c0.2,1.4,0.3,2.7,0.3,4.1c0,1.4-0.1,2.7-0.3,4.1
							C298.5,292.7,298.2,294.1,297.7,295.4z"/>
					</g>
				</g>
				<g>
					<path class="st14" d="M322.3,242.6c5.2,0,5.5,2.3,5.5,6l0,0c0,3.7-1.9,7.4-7.1,7.5l-28.9-0.1c-5.2,0-6.1-3.4-6.1-7.2l0,0
						c0-3.7,0.9-6.4,6-6.4L322.3,242.6z"/>
					<path class="st15" d="M285.6,248.8L285.6,248.8c0-3.7,0.9-6.4,6-6.4l30.6,0.2c5.2,0,5.5,2.3,5.5,6l0,0L285.6,248.8z"/>
				</g>
			</g>
			<path class="st11" d="M287.6,270.5h-16c-3.3,0-6,2.7-6,6c0,3.3,2.7,6,6,6h17L287.6,270.5z"/>
			<g>
				<path class="st13" d="M288.6,282.5c-0.5-1-0.8-2-1-3c-0.2-1-0.3-2-0.4-3c-0.1-1-0.1-2,0-3c0.1-1,0.2-2,0.4-3.1
					c0.8,0.8,1.2,1.9,1.5,2.8c0.3,1,0.5,2,0.5,3c0.1,1,0,2-0.1,3.1C289.4,280.4,289.2,281.4,288.6,282.5z"/>
			</g>
			<path class="st16" d="M278.1,294.1c0,4.5-3.6,8.1-8.1,8.1l0,0c-4.5,0-8.1-3.6-8.1-8.1v-37.4c0-4.5,3.6-8.1,8.1-8.1l0,0
				c4.5,0,8.1,3.6,8.1,8.1V294.1z"/>
			<path class="st16" d="M259.6,286.4c0,2.6-2.1,4.8-4.8,4.8l0,0c-2.6,0-4.8-2.1-4.8-4.8v-22.1c0-2.6,2.1-4.8,4.8-4.8l0,0
				c2.6,0,4.8,2.1,4.8,4.8V286.4z"/>
			<path class="st16" d="M362,286.4c0,2.6-2.1,4.8-4.8,4.8l0,0c-2.6,0-4.8-2.1-4.8-4.8v-22.1c0-2.6,2.1-4.8,4.8-4.8l0,0
				c2.6,0,4.8,2.1,4.8,4.8V286.4z"/>
			<path class="st16" d="M350.1,294.1c0,4.5-3.6,8.1-8.1,8.1l0,0c-4.5,0-8.1-3.6-8.1-8.1v-37.4c0-4.5,3.6-8.1,8.1-8.1l0,0
				c4.5,0,8.1,3.6,8.1,8.1V294.1z"/>
		</g>
	</g>
</g>
</svg>
