<?xml version="1.0" encoding="utf-8"?>
<!-- Generator: Adobe Illustrator 21.0.2, SVG Export Plug-In . SVG Version: 6.00 Build 0)  -->
<svg version="1.1" id="Layer_1" xmlns="http://www.w3.org/2000/svg" xmlns:xlink="http://www.w3.org/1999/xlink" x="0px" y="0px"
	 viewBox="0 0 612 612" style="enable-background:new 0 0 612 612;" xml:space="preserve">
<style type="text/css">
	.st0{clip-path:url(#SVGID_2_);}
	.st1{fill:#96C93F;}
	.st2{fill:url(#SVGID_3_);}
	.st3{fill:url(#SVGID_4_);}
	.st4{fill:url(#SVGID_5_);}
	.st5{fill:url(#SVGID_6_);}
	.st6{fill:url(#SVGID_7_);}
	.st7{fill:url(#SVGID_8_);}
	.st8{fill:url(#SVGID_9_);}
	.st9{fill:url(#SVGID_10_);}
	.st10{fill:url(#SVGID_11_);}
	.st11{fill:#FBC4B4;}
	.st12{opacity:1.000000e-02;fill:#525352;}
	.st13{fill:#EC2227;}
	.st14{fill:#1FBDE0;}
	.st15{fill:#3B6388;}
	.st16{fill-rule:evenodd;clip-rule:evenodd;fill:#3B6388;}
	.st17{clip-path:url(#SVGID_13_);fill:#F7BD35;}
	.st18{clip-path:url(#SVGID_15_);fill:#F7BD35;}
	.st19{clip-path:url(#SVGID_17_);fill:#F7BD35;}
	.st20{opacity:0.13;}
	.st21{fill:#3C4D22;}
	.st22{fill-rule:evenodd;clip-rule:evenodd;fill:#E9B68B;}
	.st23{fill-rule:evenodd;clip-rule:evenodd;fill:#FDD6B6;}
	.st24{fill-rule:evenodd;clip-rule:evenodd;fill:#FFFFFF;}
	.st25{fill-rule:evenodd;clip-rule:evenodd;fill:#FACD7F;}
	.st26{fill-rule:evenodd;clip-rule:evenodd;fill:#FBAD18;}
	.st27{fill-rule:evenodd;clip-rule:evenodd;fill:#EE6358;}
	.st28{fill-rule:evenodd;clip-rule:evenodd;fill:#DD5045;}
	.st29{fill-rule:evenodd;clip-rule:evenodd;fill:#5582AC;}
	.st30{fill-rule:evenodd;clip-rule:evenodd;fill:#85B8E3;}
	.st31{fill-rule:evenodd;clip-rule:evenodd;fill:#ACD25E;}
	.st32{fill-rule:evenodd;clip-rule:evenodd;fill:#CCCCCC;}
	.st33{fill:#FFFFFF;}
	.st34{fill-rule:evenodd;clip-rule:evenodd;fill:#FEE7D6;}
	.st35{fill:none;}
</style>
<g>
	<defs>
		<circle id="SVGID_1_" cx="306.2" cy="305.3" r="306"/>
	</defs>
	<clipPath id="SVGID_2_">
		<use xlink:href="#SVGID_1_"  style="overflow:visible;"/>
	</clipPath>
	<g class="st0">
		<circle class="st1" cx="306.8" cy="306.4" r="306"/>
		<radialGradient id="SVGID_3_" cx="301.3515" cy="569.4617" r="678.7524" gradientUnits="userSpaceOnUse">
			<stop  offset="0.1623" style="stop-color:#FFFBF0;stop-opacity:0"/>
			<stop  offset="0.3048" style="stop-color:#F5F7EF;stop-opacity:0.1701"/>
			<stop  offset="0.5239" style="stop-color:#DFEFED;stop-opacity:0.4317"/>
			<stop  offset="0.7908" style="stop-color:#BBE3E9;stop-opacity:0.7503"/>
			<stop  offset="1" style="stop-color:#98D8E6"/>
		</radialGradient>
		<path class="st2" d="M-7.3,457.5v0.8h5.1v8.1h0.8v-8.1h15v8.1h0.8v-8.1h15v8.1h0.8v-8.1h15v8.1h0.8v-8.1h15v8.1h0.8v-8.1h14.9v8.1
			h0.8v-8.1h15v8.1h0.8v-8.1h15v8.1h0.8v-8.1h15v8.1h0.8v-8.1h15v8.1h0.8v-8.1h15v8.1h0.8v-8.1h15v8.1h0.8v-8.1h15v8.1h0.8v-8.1h15
			v8.1h0.8v-8.1h15v8.1h0.8v-8.1H235v8.1h0.8v-8.1h15v8.1h0.8v-8.1h15v8.1h0.8v-8.1h15v8.1h0.8v-8.1h15v8.1h0.8v-8.1h15v8.1h0.8
			v-8.1h15v8.1h0.8v-8.1h15v8.1h0.8v-8.1h15v8.1h0.8v-8.1h15v8.1h0.8v-8.1h14.9v8.1h0.8v-8.1h15v8.1h0.8v-8.1h15v8.1h0.8v-8.1h15
			v8.1h0.8v-8.1h15v8.1h0.8v-8.1h15v8.1h0.8v-8.1h15v8.1h0.8v-8.1h15v8.1h0.8v-8.1h15v8.1h0.8v-8.1h15v8.1h0.8v-8.1h14.9v8.1h0.8
			v-8.1h15v8.1h0.8v-8.1h15v8.1h0.8v-8.1h15v8.1h0.8v-8.1h15v8.1h0.8v-8.1h5.5v-0.8h-5.5v-15h5.5v-0.8h-5.5v-15h5.5v-0.8h-5.5v-15
			h5.5V410h-5.5v-14.9h5.5v-0.8h-5.5v-15h5.5v-0.8h-5.5v-15h5.5v-0.8h-5.5v-15h5.5v-0.8h-5.5v-15h5.5V331h-5.5v-15h5.5v-0.8h-5.5
			v-15h5.5v-0.8h-5.5v-15h5.5v-0.8h-5.5v-15h5.5v-0.8h-5.5v-15h5.5v-0.8h-5.5V237h5.5v-0.8h-5.5v-15h5.5v-0.8h-5.5v-15h5.5v-0.8
			h-5.5v-15h5.5v-0.8h-5.5v-15h5.5v-0.8h-5.5v-15h5.5V157h-5.5v-15h5.5v-0.8h-5.5v-15h5.5v-0.8h-5.5v-15h5.5v-0.8h-5.5v-15h5.5v-0.8
			h-5.5V78.8h5.5V78h-5.5V63h5.5v-0.8h-5.5v-15h5.5v-0.8h-5.5v-15h5.5v-0.8h-5.5v-15h5.5v-0.8h-5.5v-15h5.5v-0.8H-7.3v0.8h5.1v15
			h-5.1v0.8h5.1v15h-5.1v0.8h5.1v15h-5.1v0.8h5.1v15h-5.1V63h5.1v15h-5.1v0.8h5.1v14.9h-5.1v0.8h5.1v15h-5.1v0.8h5.1v15h-5.1v0.8
			h5.1v15h-5.1v0.8h5.1v15h-5.1v0.8h5.1v15h-5.1v0.8h5.1v15h-5.1v0.8h5.1v15h-5.1v0.8h5.1v15h-5.1v0.8h5.1v15h-5.1v0.8h5.1v14.9
			h-5.1v0.8h5.1v15h-5.1v0.8h5.1v15h-5.1v0.8h5.1v15h-5.1v0.8h5.1v15h-5.1v0.8h5.1v15h-5.1v0.8h5.1v15h-5.1v0.8h5.1v15h-5.1v0.8h5.1
			v15h-5.1v0.8h5.1v15h-5.1v0.8h5.1V410h-5.1v0.8h5.1v15h-5.1v0.8h5.1v15h-5.1v0.8h5.1v15H-7.3z M599.7-0.4h15v15h-15V-0.4z
			 M599.7,15.5h15v15h-15V15.5z M599.7,31.3h15v15h-15V31.3z M599.7,47.1h15v15h-15V47.1z M599.7,63h15v15h-15V63z M599.7,78.8h15
			v14.9h-15V78.8z M599.7,94.5h15v15h-15V94.5z M599.7,110.3h15v15h-15V110.3z M599.7,126.2h15v15h-15V126.2z M599.7,142h15v15h-15
			V142z M599.7,157.8h15v15h-15V157.8z M599.7,173.7h15v15h-15V173.7z M599.7,189.5h15v15h-15V189.5z M599.7,205.3h15v15h-15V205.3z
			 M599.7,221.2h15v15h-15V221.2z M599.7,237h15v14.9h-15V237z M599.7,252.7h15v15h-15V252.7z M599.7,268.5h15v15h-15V268.5z
			 M599.7,284.3h15v15h-15V284.3z M599.7,300.2h15v15h-15V300.2z M599.7,316h15v15h-15V316z M599.7,331.8h15v15h-15V331.8z
			 M599.7,347.7h15v15h-15V347.7z M599.7,363.5h15v15h-15V363.5z M599.7,379.3h15v15h-15V379.3z M599.7,395.2h15V410h-15V395.2z
			 M599.7,410.8h15v15h-15V410.8z M599.7,426.7h15v15h-15V426.7z M599.7,442.5h15v15h-15V442.5z M583.8-0.4h15v15h-15V-0.4z
			 M583.8,15.5h15v15h-15V15.5z M583.8,31.3h15v15h-15V31.3z M583.8,47.1h15v15h-15V47.1z M583.8,63h15v15h-15V63z M583.8,78.8h15
			v14.9h-15V78.8z M583.8,94.5h15v15h-15V94.5z M583.8,110.3h15v15h-15V110.3z M583.8,126.2h15v15h-15V126.2z M583.8,142h15v15h-15
			V142z M583.8,157.8h15v15h-15V157.8z M583.8,173.7h15v15h-15V173.7z M583.8,189.5h15v15h-15V189.5z M583.8,205.3h15v15h-15V205.3z
			 M583.8,221.2h15v15h-15V221.2z M583.8,237h15v14.9h-15V237z M583.8,252.7h15v15h-15V252.7z M583.8,268.5h15v15h-15V268.5z
			 M583.8,284.3h15v15h-15V284.3z M583.8,300.2h15v15h-15V300.2z M583.8,316h15v15h-15V316z M583.8,331.8h15v15h-15V331.8z
			 M583.8,347.7h15v15h-15V347.7z M583.8,363.5h15v15h-15V363.5z M583.8,379.3h15v15h-15V379.3z M583.8,395.2h15V410h-15V395.2z
			 M583.8,410.8h15v15h-15V410.8z M583.8,426.7h15v15h-15V426.7z M583.8,442.5h15v15h-15V442.5z M568-0.4h15v15h-15V-0.4z M568,15.5
			h15v15h-15V15.5z M568,31.3h15v15h-15V31.3z M568,47.1h15v15h-15V47.1z M568,63h15v15h-15V63z M568,78.8h15v14.9h-15V78.8z
			 M568,94.5h15v15h-15V94.5z M568,110.3h15v15h-15V110.3z M568,126.2h15v15h-15V126.2z M568,142h15v15h-15V142z M568,157.8h15v15
			h-15V157.8z M568,173.7h15v15h-15V173.7z M568,189.5h15v15h-15V189.5z M568,205.3h15v15h-15V205.3z M568,221.2h15v15h-15V221.2z
			 M568,237h15v14.9h-15V237z M568,252.7h15v15h-15V252.7z M568,268.5h15v15h-15V268.5z M568,284.3h15v15h-15V284.3z M568,300.2h15
			v15h-15V300.2z M568,316h15v15h-15V316z M568,331.8h15v15h-15V331.8z M568,347.7h15v15h-15V347.7z M568,363.5h15v15h-15V363.5z
			 M568,379.3h15v15h-15V379.3z M568,395.2h15V410h-15V395.2z M568,410.8h15v15h-15V410.8z M568,426.7h15v15h-15V426.7z M568,442.5
			h15v15h-15V442.5z M552.2-0.4h15v15h-15V-0.4z M552.2,15.5h15v15h-15V15.5z M552.2,31.3h15v15h-15V31.3z M552.2,47.1h15v15h-15
			V47.1z M552.2,63h15v15h-15V63z M552.2,78.8h15v14.9h-15V78.8z M552.2,94.5h15v15h-15V94.5z M552.2,110.3h15v15h-15V110.3z
			 M552.2,126.2h15v15h-15V126.2z M552.2,142h15v15h-15V142z M552.2,157.8h15v15h-15V157.8z M552.2,173.7h15v15h-15V173.7z
			 M552.2,189.5h15v15h-15V189.5z M552.2,205.3h15v15h-15V205.3z M552.2,221.2h15v15h-15V221.2z M552.2,237h15v14.9h-15V237z
			 M552.2,252.7h15v15h-15V252.7z M552.2,268.5h15v15h-15V268.5z M552.2,284.3h15v15h-15V284.3z M552.2,300.2h15v15h-15V300.2z
			 M552.2,316h15v15h-15V316z M552.2,331.8h15v15h-15V331.8z M552.2,347.7h15v15h-15V347.7z M552.2,363.5h15v15h-15V363.5z
			 M552.2,379.3h15v15h-15V379.3z M552.2,395.2h15V410h-15V395.2z M552.2,410.8h15v15h-15V410.8z M552.2,426.7h15v15h-15V426.7z
			 M552.2,442.5h15v15h-15V442.5z M536.5-0.4h14.9v15h-14.9V-0.4z M536.5,15.5h14.9v15h-14.9V15.5z M536.5,31.3h14.9v15h-14.9V31.3z
			 M536.5,47.1h14.9v15h-14.9V47.1z M536.5,63h14.9v15h-14.9V63z M536.5,78.8h14.9v14.9h-14.9V78.8z M536.5,94.5h14.9v15h-14.9V94.5
			z M536.5,110.3h14.9v15h-14.9V110.3z M536.5,126.2h14.9v15h-14.9V126.2z M536.5,142h14.9v15h-14.9V142z M536.5,157.8h14.9v15
			h-14.9V157.8z M536.5,173.7h14.9v15h-14.9V173.7z M536.5,189.5h14.9v15h-14.9V189.5z M536.5,205.3h14.9v15h-14.9V205.3z
			 M536.5,221.2h14.9v15h-14.9V221.2z M536.5,237h14.9v14.9h-14.9V237z M536.5,252.7h14.9v15h-14.9V252.7z M536.5,268.5h14.9v15
			h-14.9V268.5z M536.5,284.3h14.9v15h-14.9V284.3z M536.5,300.2h14.9v15h-14.9V300.2z M536.5,316h14.9v15h-14.9V316z M536.5,331.8
			h14.9v15h-14.9V331.8z M536.5,347.7h14.9v15h-14.9V347.7z M536.5,363.5h14.9v15h-14.9V363.5z M536.5,379.3h14.9v15h-14.9V379.3z
			 M536.5,395.2h14.9V410h-14.9V395.2z M536.5,410.8h14.9v15h-14.9V410.8z M536.5,426.7h14.9v15h-14.9V426.7z M536.5,442.5h14.9v15
			h-14.9V442.5z M520.7-0.4h15v15h-15V-0.4z M520.7,15.5h15v15h-15V15.5z M520.7,31.3h15v15h-15V31.3z M520.7,47.1h15v15h-15V47.1z
			 M520.7,63h15v15h-15V63z M520.7,78.8h15v14.9h-15V78.8z M520.7,94.5h15v15h-15V94.5z M520.7,110.3h15v15h-15V110.3z M520.7,126.2
			h15v15h-15V126.2z M520.7,142h15v15h-15V142z M520.7,157.8h15v15h-15V157.8z M520.7,173.7h15v15h-15V173.7z M520.7,189.5h15v15
			h-15V189.5z M520.7,205.3h15v15h-15V205.3z M520.7,221.2h15v15h-15V221.2z M520.7,237h15v14.9h-15V237z M520.7,252.7h15v15h-15
			V252.7z M520.7,268.5h15v15h-15V268.5z M520.7,284.3h15v15h-15V284.3z M520.7,300.2h15v15h-15V300.2z M520.7,316h15v15h-15V316z
			 M520.7,331.8h15v15h-15V331.8z M520.7,347.7h15v15h-15V347.7z M520.7,363.5h15v15h-15V363.5z M520.7,379.3h15v15h-15V379.3z
			 M520.7,395.2h15V410h-15V395.2z M520.7,410.8h15v15h-15V410.8z M520.7,426.7h15v15h-15V426.7z M520.7,442.5h15v15h-15V442.5z
			 M504.8-0.4h15v15h-15V-0.4z M504.8,15.5h15v15h-15V15.5z M504.8,31.3h15v15h-15V31.3z M504.8,47.1h15v15h-15V47.1z M504.8,63h15
			v15h-15V63z M504.8,78.8h15v14.9h-15V78.8z M504.8,94.5h15v15h-15V94.5z M504.8,110.3h15v15h-15V110.3z M504.8,126.2h15v15h-15
			V126.2z M504.8,142h15v15h-15V142z M504.8,157.8h15v15h-15V157.8z M504.8,173.7h15v15h-15V173.7z M504.8,189.5h15v15h-15V189.5z
			 M504.8,205.3h15v15h-15V205.3z M504.8,221.2h15v15h-15V221.2z M504.8,237h15v14.9h-15V237z M504.8,252.7h15v15h-15V252.7z
			 M504.8,268.5h15v15h-15V268.5z M504.8,284.3h15v15h-15V284.3z M504.8,300.2h15v15h-15V300.2z M504.8,316h15v15h-15V316z
			 M504.8,331.8h15v15h-15V331.8z M504.8,347.7h15v15h-15V347.7z M504.8,363.5h15v15h-15V363.5z M504.8,379.3h15v15h-15V379.3z
			 M504.8,395.2h15V410h-15V395.2z M504.8,410.8h15v15h-15V410.8z M504.8,426.7h15v15h-15V426.7z M504.8,442.5h15v15h-15V442.5z
			 M489-0.4h15v15h-15V-0.4z M489,15.5h15v15h-15V15.5z M489,31.3h15v15h-15V31.3z M489,47.1h15v15h-15V47.1z M489,63h15v15h-15V63z
			 M489,78.8h15v14.9h-15V78.8z M489,94.5h15v15h-15V94.5z M489,110.3h15v15h-15V110.3z M489,126.2h15v15h-15V126.2z M489,142h15v15
			h-15V142z M489,157.8h15v15h-15V157.8z M489,173.7h15v15h-15V173.7z M489,189.5h15v15h-15V189.5z M489,205.3h15v15h-15V205.3z
			 M489,221.2h15v15h-15V221.2z M489,237h15v14.9h-15V237z M489,252.7h15v15h-15V252.7z M489,268.5h15v15h-15V268.5z M489,284.3h15
			v15h-15V284.3z M489,300.2h15v15h-15V300.2z M489,316h15v15h-15V316z M489,331.8h15v15h-15V331.8z M489,347.7h15v15h-15V347.7z
			 M489,363.5h15v15h-15V363.5z M489,379.3h15v15h-15V379.3z M489,395.2h15V410h-15V395.2z M489,410.8h15v15h-15V410.8z M489,426.7
			h15v15h-15V426.7z M489,442.5h15v15h-15V442.5z M473.2-0.4h15v15h-15V-0.4z M473.2,15.5h15v15h-15V15.5z M473.2,31.3h15v15h-15
			V31.3z M473.2,47.1h15v15h-15V47.1z M473.2,63h15v15h-15V63z M473.2,78.8h15v14.9h-15V78.8z M473.2,94.5h15v15h-15V94.5z
			 M473.2,110.3h15v15h-15V110.3z M473.2,126.2h15v15h-15V126.2z M473.2,142h15v15h-15V142z M473.2,157.8h15v15h-15V157.8z
			 M473.2,173.7h15v15h-15V173.7z M473.2,189.5h15v15h-15V189.5z M473.2,205.3h15v15h-15V205.3z M473.2,221.2h15v15h-15V221.2z
			 M473.2,237h15v14.9h-15V237z M473.2,252.7h15v15h-15V252.7z M473.2,268.5h15v15h-15V268.5z M473.2,284.3h15v15h-15V284.3z
			 M473.2,300.2h15v15h-15V300.2z M473.2,316h15v15h-15V316z M473.2,331.8h15v15h-15V331.8z M473.2,347.7h15v15h-15V347.7z
			 M473.2,363.5h15v15h-15V363.5z M473.2,379.3h15v15h-15V379.3z M473.2,395.2h15V410h-15V395.2z M473.2,410.8h15v15h-15V410.8z
			 M473.2,426.7h15v15h-15V426.7z M473.2,442.5h15v15h-15V442.5z M457.3-0.4h15v15h-15V-0.4z M457.3,15.5h15v15h-15V15.5z
			 M457.3,31.3h15v15h-15V31.3z M457.3,47.1h15v15h-15V47.1z M457.3,63h15v15h-15V63z M457.3,78.8h15v14.9h-15V78.8z M457.3,94.5h15
			v15h-15V94.5z M457.3,110.3h15v15h-15V110.3z M457.3,126.2h15v15h-15V126.2z M457.3,142h15v15h-15V142z M457.3,157.8h15v15h-15
			V157.8z M457.3,173.7h15v15h-15V173.7z M457.3,189.5h15v15h-15V189.5z M457.3,205.3h15v15h-15V205.3z M457.3,221.2h15v15h-15
			V221.2z M457.3,237h15v14.9h-15V237z M457.3,252.7h15v15h-15V252.7z M457.3,268.5h15v15h-15V268.5z M457.3,284.3h15v15h-15V284.3z
			 M457.3,300.2h15v15h-15V300.2z M457.3,316h15v15h-15V316z M457.3,331.8h15v15h-15V331.8z M457.3,347.7h15v15h-15V347.7z
			 M457.3,363.5h15v15h-15V363.5z M457.3,379.3h15v15h-15V379.3z M457.3,395.2h15V410h-15V395.2z M457.3,410.8h15v15h-15V410.8z
			 M457.3,426.7h15v15h-15V426.7z M457.3,442.5h15v15h-15V442.5z M441.5-0.4h15v15h-15V-0.4z M441.5,15.5h15v15h-15V15.5z
			 M441.5,31.3h15v15h-15V31.3z M441.5,47.1h15v15h-15V47.1z M441.5,63h15v15h-15V63z M441.5,78.8h15v14.9h-15V78.8z M441.5,94.5h15
			v15h-15V94.5z M441.5,110.3h15v15h-15V110.3z M441.5,126.2h15v15h-15V126.2z M441.5,142h15v15h-15V142z M441.5,157.8h15v15h-15
			V157.8z M441.5,173.7h15v15h-15V173.7z M441.5,189.5h15v15h-15V189.5z M441.5,205.3h15v15h-15V205.3z M441.5,221.2h15v15h-15
			V221.2z M441.5,237h15v14.9h-15V237z M441.5,252.7h15v15h-15V252.7z M441.5,268.5h15v15h-15V268.5z M441.5,284.3h15v15h-15V284.3z
			 M441.5,300.2h15v15h-15V300.2z M441.5,316h15v15h-15V316z M441.5,331.8h15v15h-15V331.8z M441.5,347.7h15v15h-15V347.7z
			 M441.5,363.5h15v15h-15V363.5z M441.5,379.3h15v15h-15V379.3z M441.5,395.2h15V410h-15V395.2z M441.5,410.8h15v15h-15V410.8z
			 M441.5,426.7h15v15h-15V426.7z M441.5,442.5h15v15h-15V442.5z M425.7-0.4h15v15h-15V-0.4z M425.7,15.5h15v15h-15V15.5z
			 M425.7,31.3h15v15h-15V31.3z M425.7,47.1h15v15h-15V47.1z M425.7,63h15v15h-15V63z M425.7,78.8h15v14.9h-15V78.8z M425.7,94.5h15
			v15h-15V94.5z M425.7,110.3h15v15h-15V110.3z M425.7,126.2h15v15h-15V126.2z M425.7,142h15v15h-15V142z M425.7,157.8h15v15h-15
			V157.8z M425.7,173.7h15v15h-15V173.7z M425.7,189.5h15v15h-15V189.5z M425.7,205.3h15v15h-15V205.3z M425.7,221.2h15v15h-15
			V221.2z M425.7,237h15v14.9h-15V237z M425.7,252.7h15v15h-15V252.7z M425.7,268.5h15v15h-15V268.5z M425.7,284.3h15v15h-15V284.3z
			 M425.7,300.2h15v15h-15V300.2z M425.7,316h15v15h-15V316z M425.7,331.8h15v15h-15V331.8z M425.7,347.7h15v15h-15V347.7z
			 M425.7,363.5h15v15h-15V363.5z M425.7,379.3h15v15h-15V379.3z M425.7,395.2h15V410h-15V395.2z M425.7,410.8h15v15h-15V410.8z
			 M425.7,426.7h15v15h-15V426.7z M425.7,442.5h15v15h-15V442.5z M409.8-0.4h15v15h-15V-0.4z M409.8,15.5h15v15h-15V15.5z
			 M409.8,31.3h15v15h-15V31.3z M409.8,47.1h15v15h-15V47.1z M409.8,63h15v15h-15V63z M409.8,78.8h15v14.9h-15V78.8z M409.8,94.5h15
			v15h-15V94.5z M409.8,110.3h15v15h-15V110.3z M409.8,126.2h15v15h-15V126.2z M409.8,142h15v15h-15V142z M409.8,157.8h15v15h-15
			V157.8z M409.8,173.7h15v15h-15V173.7z M409.8,189.5h15v15h-15V189.5z M409.8,205.3h15v15h-15V205.3z M409.8,221.2h15v15h-15
			V221.2z M409.8,237h15v14.9h-15V237z M409.8,252.7h15v15h-15V252.7z M409.8,268.5h15v15h-15V268.5z M409.8,284.3h15v15h-15V284.3z
			 M409.8,300.2h15v15h-15V300.2z M409.8,316h15v15h-15V316z M409.8,331.8h15v15h-15V331.8z M409.8,347.7h15v15h-15V347.7z
			 M409.8,363.5h15v15h-15V363.5z M409.8,379.3h15v15h-15V379.3z M409.8,395.2h15V410h-15V395.2z M409.8,410.8h15v15h-15V410.8z
			 M409.8,426.7h15v15h-15V426.7z M409.8,442.5h15v15h-15V442.5z M394-0.4h15v15h-15V-0.4z M394,15.5h15v15h-15V15.5z M394,31.3h15
			v15h-15V31.3z M394,47.1h15v15h-15V47.1z M394,63h15v15h-15V63z M394,78.8h15v14.9h-15V78.8z M394,94.5h15v15h-15V94.5z
			 M394,110.3h15v15h-15V110.3z M394,126.2h15v15h-15V126.2z M394,142h15v15h-15V142z M394,157.8h15v15h-15V157.8z M394,173.7h15v15
			h-15V173.7z M394,189.5h15v15h-15V189.5z M394,205.3h15v15h-15V205.3z M394,221.2h15v15h-15V221.2z M394,237h15v14.9h-15V237z
			 M394,252.7h15v15h-15V252.7z M394,268.5h15v15h-15V268.5z M394,284.3h15v15h-15V284.3z M394,300.2h15v15h-15V300.2z M394,316h15
			v15h-15V316z M394,331.8h15v15h-15V331.8z M394,347.7h15v15h-15V347.7z M394,363.5h15v15h-15V363.5z M394,379.3h15v15h-15V379.3z
			 M394,395.2h15V410h-15V395.2z M394,410.8h15v15h-15V410.8z M394,426.7h15v15h-15V426.7z M394,442.5h15v15h-15V442.5z M378.3-0.4
			h14.9v15h-14.9V-0.4z M378.3,15.5h14.9v15h-14.9V15.5z M378.3,31.3h14.9v15h-14.9V31.3z M378.3,47.1h14.9v15h-14.9V47.1z
			 M378.3,63h14.9v15h-14.9V63z M378.3,78.8h14.9v14.9h-14.9V78.8z M378.3,94.5h14.9v15h-14.9V94.5z M378.3,110.3h14.9v15h-14.9
			V110.3z M378.3,126.2h14.9v15h-14.9V126.2z M378.3,142h14.9v15h-14.9V142z M378.3,157.8h14.9v15h-14.9V157.8z M378.3,173.7h14.9
			v15h-14.9V173.7z M378.3,189.5h14.9v15h-14.9V189.5z M378.3,205.3h14.9v15h-14.9V205.3z M378.3,221.2h14.9v15h-14.9V221.2z
			 M378.3,237h14.9v14.9h-14.9V237z M378.3,252.7h14.9v15h-14.9V252.7z M378.3,268.5h14.9v15h-14.9V268.5z M378.3,284.3h14.9v15
			h-14.9V284.3z M378.3,300.2h14.9v15h-14.9V300.2z M378.3,316h14.9v15h-14.9V316z M378.3,331.8h14.9v15h-14.9V331.8z M378.3,347.7
			h14.9v15h-14.9V347.7z M378.3,363.5h14.9v15h-14.9V363.5z M378.3,379.3h14.9v15h-14.9V379.3z M378.3,395.2h14.9V410h-14.9V395.2z
			 M378.3,410.8h14.9v15h-14.9V410.8z M378.3,426.7h14.9v15h-14.9V426.7z M378.3,442.5h14.9v15h-14.9V442.5z M362.5-0.4h15v15h-15
			V-0.4z M362.5,15.5h15v15h-15V15.5z M362.5,31.3h15v15h-15V31.3z M362.5,47.1h15v15h-15V47.1z M362.5,63h15v15h-15V63z
			 M362.5,78.8h15v14.9h-15V78.8z M362.5,94.5h15v15h-15V94.5z M362.5,110.3h15v15h-15V110.3z M362.5,126.2h15v15h-15V126.2z
			 M362.5,142h15v15h-15V142z M362.5,157.8h15v15h-15V157.8z M362.5,173.7h15v15h-15V173.7z M362.5,189.5h15v15h-15V189.5z
			 M362.5,205.3h15v15h-15V205.3z M362.5,221.2h15v15h-15V221.2z M362.5,237h15v14.9h-15V237z M362.5,252.7h15v15h-15V252.7z
			 M362.5,268.5h15v15h-15V268.5z M362.5,284.3h15v15h-15V284.3z M362.5,300.2h15v15h-15V300.2z M362.5,316h15v15h-15V316z
			 M362.5,331.8h15v15h-15V331.8z M362.5,347.7h15v15h-15V347.7z M362.5,363.5h15v15h-15V363.5z M362.5,379.3h15v15h-15V379.3z
			 M362.5,395.2h15V410h-15V395.2z M362.5,410.8h15v15h-15V410.8z M362.5,426.7h15v15h-15V426.7z M362.5,442.5h15v15h-15V442.5z
			 M346.6-0.4h15v15h-15V-0.4z M346.6,15.5h15v15h-15V15.5z M346.6,31.3h15v15h-15V31.3z M346.6,47.1h15v15h-15V47.1z M346.6,63h15
			v15h-15V63z M346.6,78.8h15v14.9h-15V78.8z M346.6,94.5h15v15h-15V94.5z M346.6,110.3h15v15h-15V110.3z M346.6,126.2h15v15h-15
			V126.2z M346.6,142h15v15h-15V142z M346.6,157.8h15v15h-15V157.8z M346.6,173.7h15v15h-15V173.7z M346.6,189.5h15v15h-15V189.5z
			 M346.6,205.3h15v15h-15V205.3z M346.6,221.2h15v15h-15V221.2z M346.6,237h15v14.9h-15V237z M346.6,252.7h15v15h-15V252.7z
			 M346.6,268.5h15v15h-15V268.5z M346.6,284.3h15v15h-15V284.3z M346.6,300.2h15v15h-15V300.2z M346.6,316h15v15h-15V316z
			 M346.6,331.8h15v15h-15V331.8z M346.6,347.7h15v15h-15V347.7z M346.6,363.5h15v15h-15V363.5z M346.6,379.3h15v15h-15V379.3z
			 M346.6,395.2h15V410h-15V395.2z M346.6,410.8h15v15h-15V410.8z M346.6,426.7h15v15h-15V426.7z M346.6,442.5h15v15h-15V442.5z
			 M330.8-0.4h15v15h-15V-0.4z M330.8,15.5h15v15h-15V15.5z M330.8,31.3h15v15h-15V31.3z M330.8,47.1h15v15h-15V47.1z M330.8,63h15
			v15h-15V63z M330.8,78.8h15v14.9h-15V78.8z M330.8,94.5h15v15h-15V94.5z M330.8,110.3h15v15h-15V110.3z M330.8,126.2h15v15h-15
			V126.2z M330.8,142h15v15h-15V142z M330.8,157.8h15v15h-15V157.8z M330.8,173.7h15v15h-15V173.7z M330.8,189.5h15v15h-15V189.5z
			 M330.8,205.3h15v15h-15V205.3z M330.8,221.2h15v15h-15V221.2z M330.8,237h15v14.9h-15V237z M330.8,252.7h15v15h-15V252.7z
			 M330.8,268.5h15v15h-15V268.5z M330.8,284.3h15v15h-15V284.3z M330.8,300.2h15v15h-15V300.2z M330.8,316h15v15h-15V316z
			 M330.8,331.8h15v15h-15V331.8z M330.8,347.7h15v15h-15V347.7z M330.8,363.5h15v15h-15V363.5z M330.8,379.3h15v15h-15V379.3z
			 M330.8,395.2h15V410h-15V395.2z M330.8,410.8h15v15h-15V410.8z M330.8,426.7h15v15h-15V426.7z M330.8,442.5h15v15h-15V442.5z
			 M315-0.4h15v15h-15V-0.4z M315,15.5h15v15h-15V15.5z M315,31.3h15v15h-15V31.3z M315,47.1h15v15h-15V47.1z M315,63h15v15h-15V63z
			 M315,78.8h15v14.9h-15V78.8z M315,94.5h15v15h-15V94.5z M315,110.3h15v15h-15V110.3z M315,126.2h15v15h-15V126.2z M315,142h15v15
			h-15V142z M315,157.8h15v15h-15V157.8z M315,173.7h15v15h-15V173.7z M315,189.5h15v15h-15V189.5z M315,205.3h15v15h-15V205.3z
			 M315,221.2h15v15h-15V221.2z M315,237h15v14.9h-15V237z M315,252.7h15v15h-15V252.7z M315,268.5h15v15h-15V268.5z M315,284.3h15
			v15h-15V284.3z M315,300.2h15v15h-15V300.2z M315,316h15v15h-15V316z M315,331.8h15v15h-15V331.8z M315,347.7h15v15h-15V347.7z
			 M315,363.5h15v15h-15V363.5z M315,379.3h15v15h-15V379.3z M315,395.2h15V410h-15V395.2z M315,410.8h15v15h-15V410.8z M315,426.7
			h15v15h-15V426.7z M315,442.5h15v15h-15V442.5z M299.1-0.4h15v15h-15V-0.4z M299.1,15.5h15v15h-15V15.5z M299.1,31.3h15v15h-15
			V31.3z M299.1,47.1h15v15h-15V47.1z M299.1,63h15v15h-15V63z M299.1,78.8h15v14.9h-15V78.8z M299.1,94.5h15v15h-15V94.5z
			 M299.1,110.3h15v15h-15V110.3z M299.1,126.2h15v15h-15V126.2z M299.1,142h15v15h-15V142z M299.1,157.8h15v15h-15V157.8z
			 M299.1,173.7h15v15h-15V173.7z M299.1,189.5h15v15h-15V189.5z M299.1,205.3h15v15h-15V205.3z M299.1,221.2h15v15h-15V221.2z
			 M299.1,237h15v14.9h-15V237z M299.1,252.7h15v15h-15V252.7z M299.1,268.5h15v15h-15V268.5z M299.1,284.3h15v15h-15V284.3z
			 M299.1,300.2h15v15h-15V300.2z M299.1,316h15v15h-15V316z M299.1,331.8h15v15h-15V331.8z M299.1,347.7h15v15h-15V347.7z
			 M299.1,363.5h15v15h-15V363.5z M299.1,379.3h15v15h-15V379.3z M299.1,395.2h15V410h-15V395.2z M299.1,410.8h15v15h-15V410.8z
			 M299.1,426.7h15v15h-15V426.7z M299.1,442.5h15v15h-15V442.5z M283.3-0.4h15v15h-15V-0.4z M283.3,15.5h15v15h-15V15.5z
			 M283.3,31.3h15v15h-15V31.3z M283.3,47.1h15v15h-15V47.1z M283.3,63h15v15h-15V63z M283.3,78.8h15v14.9h-15V78.8z M283.3,94.5h15
			v15h-15V94.5z M283.3,110.3h15v15h-15V110.3z M283.3,126.2h15v15h-15V126.2z M283.3,142h15v15h-15V142z M283.3,157.8h15v15h-15
			V157.8z M283.3,173.7h15v15h-15V173.7z M283.3,189.5h15v15h-15V189.5z M283.3,205.3h15v15h-15V205.3z M283.3,221.2h15v15h-15
			V221.2z M283.3,237h15v14.9h-15V237z M283.3,252.7h15v15h-15V252.7z M283.3,268.5h15v15h-15V268.5z M283.3,284.3h15v15h-15V284.3z
			 M283.3,300.2h15v15h-15V300.2z M283.3,316h15v15h-15V316z M283.3,331.8h15v15h-15V331.8z M283.3,347.7h15v15h-15V347.7z
			 M283.3,363.5h15v15h-15V363.5z M283.3,379.3h15v15h-15V379.3z M283.3,395.2h15V410h-15V395.2z M283.3,410.8h15v15h-15V410.8z
			 M283.3,426.7h15v15h-15V426.7z M283.3,442.5h15v15h-15V442.5z M267.5-0.4h15v15h-15V-0.4z M267.5,15.5h15v15h-15V15.5z
			 M267.5,31.3h15v15h-15V31.3z M267.5,47.1h15v15h-15V47.1z M267.5,63h15v15h-15V63z M267.5,78.8h15v14.9h-15V78.8z M267.5,94.5h15
			v15h-15V94.5z M267.5,110.3h15v15h-15V110.3z M267.5,126.2h15v15h-15V126.2z M267.5,142h15v15h-15V142z M267.5,157.8h15v15h-15
			V157.8z M267.5,173.7h15v15h-15V173.7z M267.5,189.5h15v15h-15V189.5z M267.5,205.3h15v15h-15V205.3z M267.5,221.2h15v15h-15
			V221.2z M267.5,237h15v14.9h-15V237z M267.5,252.7h15v15h-15V252.7z M267.5,268.5h15v15h-15V268.5z M267.5,284.3h15v15h-15V284.3z
			 M267.5,300.2h15v15h-15V300.2z M267.5,316h15v15h-15V316z M267.5,331.8h15v15h-15V331.8z M267.5,347.7h15v15h-15V347.7z
			 M267.5,363.5h15v15h-15V363.5z M267.5,379.3h15v15h-15V379.3z M267.5,395.2h15V410h-15V395.2z M267.5,410.8h15v15h-15V410.8z
			 M267.5,426.7h15v15h-15V426.7z M267.5,442.5h15v15h-15V442.5z M251.6-0.4h15v15h-15V-0.4z M251.6,15.5h15v15h-15V15.5z
			 M251.6,31.3h15v15h-15V31.3z M251.6,47.1h15v15h-15V47.1z M251.6,63h15v15h-15V63z M251.6,78.8h15v14.9h-15V78.8z M251.6,94.5h15
			v15h-15V94.5z M251.6,110.3h15v15h-15V110.3z M251.6,126.2h15v15h-15V126.2z M251.6,142h15v15h-15V142z M251.6,157.8h15v15h-15
			V157.8z M251.6,173.7h15v15h-15V173.7z M251.6,189.5h15v15h-15V189.5z M251.6,205.3h15v15h-15V205.3z M251.6,221.2h15v15h-15
			V221.2z M251.6,237h15v14.9h-15V237z M251.6,252.7h15v15h-15V252.7z M251.6,268.5h15v15h-15V268.5z M251.6,284.3h15v15h-15V284.3z
			 M251.6,300.2h15v15h-15V300.2z M251.6,316h15v15h-15V316z M251.6,331.8h15v15h-15V331.8z M251.6,347.7h15v15h-15V347.7z
			 M251.6,363.5h15v15h-15V363.5z M251.6,379.3h15v15h-15V379.3z M251.6,395.2h15V410h-15V395.2z M251.6,410.8h15v15h-15V410.8z
			 M251.6,426.7h15v15h-15V426.7z M251.6,442.5h15v15h-15V442.5z M235.8-0.4h15v15h-15V-0.4z M235.8,15.5h15v15h-15V15.5z
			 M235.8,31.3h15v15h-15V31.3z M235.8,47.1h15v15h-15V47.1z M235.8,63h15v15h-15V63z M235.8,78.8h15v14.9h-15V78.8z M235.8,94.5h15
			v15h-15V94.5z M235.8,110.3h15v15h-15V110.3z M235.8,126.2h15v15h-15V126.2z M235.8,142h15v15h-15V142z M235.8,157.8h15v15h-15
			V157.8z M235.8,173.7h15v15h-15V173.7z M235.8,189.5h15v15h-15V189.5z M235.8,205.3h15v15h-15V205.3z M235.8,221.2h15v15h-15
			V221.2z M235.8,237h15v14.9h-15V237z M235.8,252.7h15v15h-15V252.7z M235.8,268.5h15v15h-15V268.5z M235.8,284.3h15v15h-15V284.3z
			 M235.8,300.2h15v15h-15V300.2z M235.8,316h15v15h-15V316z M235.8,331.8h15v15h-15V331.8z M235.8,347.7h15v15h-15V347.7z
			 M235.8,363.5h15v15h-15V363.5z M235.8,379.3h15v15h-15V379.3z M235.8,395.2h15V410h-15V395.2z M235.8,410.8h15v15h-15V410.8z
			 M235.8,426.7h15v15h-15V426.7z M235.8,442.5h15v15h-15V442.5z M220.1-0.4H235v15h-14.9V-0.4z M220.1,15.5H235v15h-14.9V15.5z
			 M220.1,31.3H235v15h-14.9V31.3z M220.1,47.1H235v15h-14.9V47.1z M220.1,63H235v15h-14.9V63z M220.1,78.8H235v14.9h-14.9V78.8z
			 M220.1,94.5H235v15h-14.9V94.5z M220.1,110.3H235v15h-14.9V110.3z M220.1,126.2H235v15h-14.9V126.2z M220.1,142H235v15h-14.9V142
			z M220.1,157.8H235v15h-14.9V157.8z M220.1,173.7H235v15h-14.9V173.7z M220.1,189.5H235v15h-14.9V189.5z M220.1,205.3H235v15
			h-14.9V205.3z M220.1,221.2H235v15h-14.9V221.2z M220.1,237H235v14.9h-14.9V237z M220.1,252.7H235v15h-14.9V252.7z M220.1,268.5
			H235v15h-14.9V268.5z M220.1,284.3H235v15h-14.9V284.3z M220.1,300.2H235v15h-14.9V300.2z M220.1,316H235v15h-14.9V316z
			 M220.1,331.8H235v15h-14.9V331.8z M220.1,347.7H235v15h-14.9V347.7z M220.1,363.5H235v15h-14.9V363.5z M220.1,379.3H235v15h-14.9
			V379.3z M220.1,395.2H235V410h-14.9V395.2z M220.1,410.8H235v15h-14.9V410.8z M220.1,426.7H235v15h-14.9V426.7z M220.1,442.5H235
			v15h-14.9V442.5z M204.3-0.4h15v15h-15V-0.4z M204.3,15.5h15v15h-15V15.5z M204.3,31.3h15v15h-15V31.3z M204.3,47.1h15v15h-15
			V47.1z M204.3,63h15v15h-15V63z M204.3,78.8h15v14.9h-15V78.8z M204.3,94.5h15v15h-15V94.5z M204.3,110.3h15v15h-15V110.3z
			 M204.3,126.2h15v15h-15V126.2z M204.3,142h15v15h-15V142z M204.3,157.8h15v15h-15V157.8z M204.3,173.7h15v15h-15V173.7z
			 M204.3,189.5h15v15h-15V189.5z M204.3,205.3h15v15h-15V205.3z M204.3,221.2h15v15h-15V221.2z M204.3,237h15v14.9h-15V237z
			 M204.3,252.7h15v15h-15V252.7z M204.3,268.5h15v15h-15V268.5z M204.3,284.3h15v15h-15V284.3z M204.3,300.2h15v15h-15V300.2z
			 M204.3,316h15v15h-15V316z M204.3,331.8h15v15h-15V331.8z M204.3,347.7h15v15h-15V347.7z M204.3,363.5h15v15h-15V363.5z
			 M204.3,379.3h15v15h-15V379.3z M204.3,395.2h15V410h-15V395.2z M204.3,410.8h15v15h-15V410.8z M204.3,426.7h15v15h-15V426.7z
			 M204.3,442.5h15v15h-15V442.5z M188.5-0.4h15v15h-15V-0.4z M188.5,15.5h15v15h-15V15.5z M188.5,31.3h15v15h-15V31.3z M188.5,47.1
			h15v15h-15V47.1z M188.5,63h15v15h-15V63z M188.5,78.8h15v14.9h-15V78.8z M188.5,94.5h15v15h-15V94.5z M188.5,110.3h15v15h-15
			V110.3z M188.5,126.2h15v15h-15V126.2z M188.5,142h15v15h-15V142z M188.5,157.8h15v15h-15V157.8z M188.5,173.7h15v15h-15V173.7z
			 M188.5,189.5h15v15h-15V189.5z M188.5,205.3h15v15h-15V205.3z M188.5,221.2h15v15h-15V221.2z M188.5,237h15v14.9h-15V237z
			 M188.5,252.7h15v15h-15V252.7z M188.5,268.5h15v15h-15V268.5z M188.5,284.3h15v15h-15V284.3z M188.5,300.2h15v15h-15V300.2z
			 M188.5,316h15v15h-15V316z M188.5,331.8h15v15h-15V331.8z M188.5,347.7h15v15h-15V347.7z M188.5,363.5h15v15h-15V363.5z
			 M188.5,379.3h15v15h-15V379.3z M188.5,395.2h15V410h-15V395.2z M188.5,410.8h15v15h-15V410.8z M188.5,426.7h15v15h-15V426.7z
			 M188.5,442.5h15v15h-15V442.5z M172.6-0.4h15v15h-15V-0.4z M172.6,15.5h15v15h-15V15.5z M172.6,31.3h15v15h-15V31.3z M172.6,47.1
			h15v15h-15V47.1z M172.6,63h15v15h-15V63z M172.6,78.8h15v14.9h-15V78.8z M172.6,94.5h15v15h-15V94.5z M172.6,110.3h15v15h-15
			V110.3z M172.6,126.2h15v15h-15V126.2z M172.6,142h15v15h-15V142z M172.6,157.8h15v15h-15V157.8z M172.6,173.7h15v15h-15V173.7z
			 M172.6,189.5h15v15h-15V189.5z M172.6,205.3h15v15h-15V205.3z M172.6,221.2h15v15h-15V221.2z M172.6,237h15v14.9h-15V237z
			 M172.6,252.7h15v15h-15V252.7z M172.6,268.5h15v15h-15V268.5z M172.6,284.3h15v15h-15V284.3z M172.6,300.2h15v15h-15V300.2z
			 M172.6,316h15v15h-15V316z M172.6,331.8h15v15h-15V331.8z M172.6,347.7h15v15h-15V347.7z M172.6,363.5h15v15h-15V363.5z
			 M172.6,379.3h15v15h-15V379.3z M172.6,395.2h15V410h-15V395.2z M172.6,410.8h15v15h-15V410.8z M172.6,426.7h15v15h-15V426.7z
			 M172.6,442.5h15v15h-15V442.5z M156.8-0.4h15v15h-15V-0.4z M156.8,15.5h15v15h-15V15.5z M156.8,31.3h15v15h-15V31.3z M156.8,47.1
			h15v15h-15V47.1z M156.8,63h15v15h-15V63z M156.8,78.8h15v14.9h-15V78.8z M156.8,94.5h15v15h-15V94.5z M156.8,110.3h15v15h-15
			V110.3z M156.8,126.2h15v15h-15V126.2z M156.8,142h15v15h-15V142z M156.8,157.8h15v15h-15V157.8z M156.8,173.7h15v15h-15V173.7z
			 M156.8,189.5h15v15h-15V189.5z M156.8,205.3h15v15h-15V205.3z M156.8,221.2h15v15h-15V221.2z M156.8,237h15v14.9h-15V237z
			 M156.8,252.7h15v15h-15V252.7z M156.8,268.5h15v15h-15V268.5z M156.8,284.3h15v15h-15V284.3z M156.8,300.2h15v15h-15V300.2z
			 M156.8,316h15v15h-15V316z M156.8,331.8h15v15h-15V331.8z M156.8,347.7h15v15h-15V347.7z M156.8,363.5h15v15h-15V363.5z
			 M156.8,379.3h15v15h-15V379.3z M156.8,395.2h15V410h-15V395.2z M156.8,410.8h15v15h-15V410.8z M156.8,426.7h15v15h-15V426.7z
			 M156.8,442.5h15v15h-15V442.5z M141-0.4h15v15h-15V-0.4z M141,15.5h15v15h-15V15.5z M141,31.3h15v15h-15V31.3z M141,47.1h15v15
			h-15V47.1z M141,63h15v15h-15V63z M141,78.8h15v14.9h-15V78.8z M141,94.5h15v15h-15V94.5z M141,110.3h15v15h-15V110.3z M141,126.2
			h15v15h-15V126.2z M141,142h15v15h-15V142z M141,157.8h15v15h-15V157.8z M141,173.7h15v15h-15V173.7z M141,189.5h15v15h-15V189.5z
			 M141,205.3h15v15h-15V205.3z M141,221.2h15v15h-15V221.2z M141,237h15v14.9h-15V237z M141,252.7h15v15h-15V252.7z M141,268.5h15
			v15h-15V268.5z M141,284.3h15v15h-15V284.3z M141,300.2h15v15h-15V300.2z M141,316h15v15h-15V316z M141,331.8h15v15h-15V331.8z
			 M141,347.7h15v15h-15V347.7z M141,363.5h15v15h-15V363.5z M141,379.3h15v15h-15V379.3z M141,395.2h15V410h-15V395.2z M141,410.8
			h15v15h-15V410.8z M141,426.7h15v15h-15V426.7z M141,442.5h15v15h-15V442.5z M125.1-0.4h15v15h-15V-0.4z M125.1,15.5h15v15h-15
			V15.5z M125.1,31.3h15v15h-15V31.3z M125.1,47.1h15v15h-15V47.1z M125.1,63h15v15h-15V63z M125.1,78.8h15v14.9h-15V78.8z
			 M125.1,94.5h15v15h-15V94.5z M125.1,110.3h15v15h-15V110.3z M125.1,126.2h15v15h-15V126.2z M125.1,142h15v15h-15V142z
			 M125.1,157.8h15v15h-15V157.8z M125.1,173.7h15v15h-15V173.7z M125.1,189.5h15v15h-15V189.5z M125.1,205.3h15v15h-15V205.3z
			 M125.1,221.2h15v15h-15V221.2z M125.1,237h15v14.9h-15V237z M125.1,252.7h15v15h-15V252.7z M125.1,268.5h15v15h-15V268.5z
			 M125.1,284.3h15v15h-15V284.3z M125.1,300.2h15v15h-15V300.2z M125.1,316h15v15h-15V316z M125.1,331.8h15v15h-15V331.8z
			 M125.1,347.7h15v15h-15V347.7z M125.1,363.5h15v15h-15V363.5z M125.1,379.3h15v15h-15V379.3z M125.1,395.2h15V410h-15V395.2z
			 M125.1,410.8h15v15h-15V410.8z M125.1,426.7h15v15h-15V426.7z M125.1,442.5h15v15h-15V442.5z M109.3-0.4h15v15h-15V-0.4z
			 M109.3,15.5h15v15h-15V15.5z M109.3,31.3h15v15h-15V31.3z M109.3,47.1h15v15h-15V47.1z M109.3,63h15v15h-15V63z M109.3,78.8h15
			v14.9h-15V78.8z M109.3,94.5h15v15h-15V94.5z M109.3,110.3h15v15h-15V110.3z M109.3,126.2h15v15h-15V126.2z M109.3,142h15v15h-15
			V142z M109.3,157.8h15v15h-15V157.8z M109.3,173.7h15v15h-15V173.7z M109.3,189.5h15v15h-15V189.5z M109.3,205.3h15v15h-15V205.3z
			 M109.3,221.2h15v15h-15V221.2z M109.3,237h15v14.9h-15V237z M109.3,252.7h15v15h-15V252.7z M109.3,268.5h15v15h-15V268.5z
			 M109.3,284.3h15v15h-15V284.3z M109.3,300.2h15v15h-15V300.2z M109.3,316h15v15h-15V316z M109.3,331.8h15v15h-15V331.8z
			 M109.3,347.7h15v15h-15V347.7z M109.3,363.5h15v15h-15V363.5z M109.3,379.3h15v15h-15V379.3z M109.3,395.2h15V410h-15V395.2z
			 M109.3,410.8h15v15h-15V410.8z M109.3,426.7h15v15h-15V426.7z M109.3,442.5h15v15h-15V442.5z M93.5-0.4h15v15h-15V-0.4z
			 M93.5,15.5h15v15h-15V15.5z M93.5,31.3h15v15h-15V31.3z M93.5,47.1h15v15h-15V47.1z M93.5,63h15v15h-15V63z M93.5,78.8h15v14.9
			h-15V78.8z M93.5,94.5h15v15h-15V94.5z M93.5,110.3h15v15h-15V110.3z M93.5,126.2h15v15h-15V126.2z M93.5,142h15v15h-15V142z
			 M93.5,157.8h15v15h-15V157.8z M93.5,173.7h15v15h-15V173.7z M93.5,189.5h15v15h-15V189.5z M93.5,205.3h15v15h-15V205.3z
			 M93.5,221.2h15v15h-15V221.2z M93.5,237h15v14.9h-15V237z M93.5,252.7h15v15h-15V252.7z M93.5,268.5h15v15h-15V268.5z
			 M93.5,284.3h15v15h-15V284.3z M93.5,300.2h15v15h-15V300.2z M93.5,316h15v15h-15V316z M93.5,331.8h15v15h-15V331.8z M93.5,347.7
			h15v15h-15V347.7z M93.5,363.5h15v15h-15V363.5z M93.5,379.3h15v15h-15V379.3z M93.5,395.2h15V410h-15V395.2z M93.5,410.8h15v15
			h-15V410.8z M93.5,426.7h15v15h-15V426.7z M93.5,442.5h15v15h-15V442.5z M77.6-0.4h15v15h-15V-0.4z M77.6,15.5h15v15h-15V15.5z
			 M77.6,31.3h15v15h-15V31.3z M77.6,47.1h15v15h-15V47.1z M77.6,63h15v15h-15V63z M77.6,78.8h15v14.9h-15V78.8z M77.6,94.5h15v15
			h-15V94.5z M77.6,110.3h15v15h-15V110.3z M77.6,126.2h15v15h-15V126.2z M77.6,142h15v15h-15V142z M77.6,157.8h15v15h-15V157.8z
			 M77.6,173.7h15v15h-15V173.7z M77.6,189.5h15v15h-15V189.5z M77.6,205.3h15v15h-15V205.3z M77.6,221.2h15v15h-15V221.2z
			 M77.6,237h15v14.9h-15V237z M77.6,252.7h15v15h-15V252.7z M77.6,268.5h15v15h-15V268.5z M77.6,284.3h15v15h-15V284.3z
			 M77.6,300.2h15v15h-15V300.2z M77.6,316h15v15h-15V316z M77.6,331.8h15v15h-15V331.8z M77.6,347.7h15v15h-15V347.7z M77.6,363.5
			h15v15h-15V363.5z M77.6,379.3h15v15h-15V379.3z M77.6,395.2h15V410h-15V395.2z M77.6,410.8h15v15h-15V410.8z M77.6,426.7h15v15
			h-15V426.7z M77.6,442.5h15v15h-15V442.5z M61.9-0.4h14.9v15H61.9V-0.4z M61.9,15.5h14.9v15H61.9V15.5z M61.9,31.3h14.9v15H61.9
			V31.3z M61.9,47.1h14.9v15H61.9V47.1z M61.9,63h14.9v15H61.9V63z M61.9,78.8h14.9v14.9H61.9V78.8z M61.9,94.5h14.9v15H61.9V94.5z
			 M61.9,110.3h14.9v15H61.9V110.3z M61.9,126.2h14.9v15H61.9V126.2z M61.9,142h14.9v15H61.9V142z M61.9,157.8h14.9v15H61.9V157.8z
			 M61.9,173.7h14.9v15H61.9V173.7z M61.9,189.5h14.9v15H61.9V189.5z M61.9,205.3h14.9v15H61.9V205.3z M61.9,221.2h14.9v15H61.9
			V221.2z M61.9,237h14.9v14.9H61.9V237z M61.9,252.7h14.9v15H61.9V252.7z M61.9,268.5h14.9v15H61.9V268.5z M61.9,284.3h14.9v15
			H61.9V284.3z M61.9,300.2h14.9v15H61.9V300.2z M61.9,316h14.9v15H61.9V316z M61.9,331.8h14.9v15H61.9V331.8z M61.9,347.7h14.9v15
			H61.9V347.7z M61.9,363.5h14.9v15H61.9V363.5z M61.9,379.3h14.9v15H61.9V379.3z M61.9,395.2h14.9V410H61.9V395.2z M61.9,410.8
			h14.9v15H61.9V410.8z M61.9,426.7h14.9v15H61.9V426.7z M61.9,442.5h14.9v15H61.9V442.5z M46.1-0.4h15v15h-15V-0.4z M46.1,15.5h15
			v15h-15V15.5z M46.1,31.3h15v15h-15V31.3z M46.1,47.1h15v15h-15V47.1z M46.1,63h15v15h-15V63z M46.1,78.8h15v14.9h-15V78.8z
			 M46.1,94.5h15v15h-15V94.5z M46.1,110.3h15v15h-15V110.3z M46.1,126.2h15v15h-15V126.2z M46.1,142h15v15h-15V142z M46.1,157.8h15
			v15h-15V157.8z M46.1,173.7h15v15h-15V173.7z M46.1,189.5h15v15h-15V189.5z M46.1,205.3h15v15h-15V205.3z M46.1,221.2h15v15h-15
			V221.2z M46.1,237h15v14.9h-15V237z M46.1,252.7h15v15h-15V252.7z M46.1,268.5h15v15h-15V268.5z M46.1,284.3h15v15h-15V284.3z
			 M46.1,300.2h15v15h-15V300.2z M46.1,316h15v15h-15V316z M46.1,331.8h15v15h-15V331.8z M46.1,347.7h15v15h-15V347.7z M46.1,363.5
			h15v15h-15V363.5z M46.1,379.3h15v15h-15V379.3z M46.1,395.2h15V410h-15V395.2z M46.1,410.8h15v15h-15V410.8z M46.1,426.7h15v15
			h-15V426.7z M46.1,442.5h15v15h-15V442.5z M30.3-0.4h15v15h-15V-0.4z M30.3,15.5h15v15h-15V15.5z M30.3,31.3h15v15h-15V31.3z
			 M30.3,47.1h15v15h-15V47.1z M30.3,63h15v15h-15V63z M30.3,78.8h15v14.9h-15V78.8z M30.3,94.5h15v15h-15V94.5z M30.3,110.3h15v15
			h-15V110.3z M30.3,126.2h15v15h-15V126.2z M30.3,142h15v15h-15V142z M30.3,157.8h15v15h-15V157.8z M30.3,173.7h15v15h-15V173.7z
			 M30.3,189.5h15v15h-15V189.5z M30.3,205.3h15v15h-15V205.3z M30.3,221.2h15v15h-15V221.2z M30.3,237h15v14.9h-15V237z
			 M30.3,252.7h15v15h-15V252.7z M30.3,268.5h15v15h-15V268.5z M30.3,284.3h15v15h-15V284.3z M30.3,300.2h15v15h-15V300.2z
			 M30.3,316h15v15h-15V316z M30.3,331.8h15v15h-15V331.8z M30.3,347.7h15v15h-15V347.7z M30.3,363.5h15v15h-15V363.5z M30.3,379.3
			h15v15h-15V379.3z M30.3,395.2h15V410h-15V395.2z M30.3,410.8h15v15h-15V410.8z M30.3,426.7h15v15h-15V426.7z M30.3,442.5h15v15
			h-15V442.5z M14.4-0.4h15v15h-15V-0.4z M14.4,15.5h15v15h-15V15.5z M14.4,31.3h15v15h-15V31.3z M14.4,47.1h15v15h-15V47.1z
			 M14.4,63h15v15h-15V63z M14.4,78.8h15v14.9h-15V78.8z M14.4,94.5h15v15h-15V94.5z M14.4,110.3h15v15h-15V110.3z M14.4,126.2h15
			v15h-15V126.2z M14.4,142h15v15h-15V142z M14.4,157.8h15v15h-15V157.8z M14.4,173.7h15v15h-15V173.7z M14.4,189.5h15v15h-15V189.5
			z M14.4,205.3h15v15h-15V205.3z M14.4,221.2h15v15h-15V221.2z M14.4,237h15v14.9h-15V237z M14.4,252.7h15v15h-15V252.7z
			 M14.4,268.5h15v15h-15V268.5z M14.4,284.3h15v15h-15V284.3z M14.4,300.2h15v15h-15V300.2z M14.4,316h15v15h-15V316z M14.4,331.8
			h15v15h-15V331.8z M14.4,347.7h15v15h-15V347.7z M14.4,363.5h15v15h-15V363.5z M14.4,379.3h15v15h-15V379.3z M14.4,395.2h15V410
			h-15V395.2z M14.4,410.8h15v15h-15V410.8z M14.4,426.7h15v15h-15V426.7z M14.4,442.5h15v15h-15V442.5z M-1.4-0.4h15v15h-15V-0.4z
			 M-1.4,15.5h15v15h-15V15.5z M-1.4,31.3h15v15h-15V31.3z M-1.4,47.1h15v15h-15V47.1z M-1.4,63h15v15h-15V63z M-1.4,78.8h15v14.9
			h-15V78.8z M-1.4,94.5h15v15h-15V94.5z M-1.4,110.3h15v15h-15V110.3z M-1.4,126.2h15v15h-15V126.2z M-1.4,142h15v15h-15V142z
			 M-1.4,157.8h15v15h-15V157.8z M-1.4,173.7h15v15h-15V173.7z M-1.4,189.5h15v15h-15V189.5z M-1.4,205.3h15v15h-15V205.3z
			 M-1.4,221.2h15v15h-15V221.2z M-1.4,237h15v14.9h-15V237z M-1.4,252.7h15v15h-15V252.7z M-1.4,268.5h15v15h-15V268.5z
			 M-1.4,284.3h15v15h-15V284.3z M-1.4,300.2h15v15h-15V300.2z M-1.4,316h15v15h-15V316z M-1.4,331.8h15v15h-15V331.8z M-1.4,347.7
			h15v15h-15V347.7z M-1.4,363.5h15v15h-15V363.5z M-1.4,379.3h15v15h-15V379.3z M-1.4,395.2h15V410h-15V395.2z M-1.4,410.8h15v15
			h-15V410.8z M-1.4,426.7h15v15h-15V426.7z M-1.4,442.5h15v15h-15V442.5z"/>
		<radialGradient id="SVGID_4_" cx="288.6274" cy="371.6801" r="79.8168" gradientUnits="userSpaceOnUse">
			<stop  offset="0.1518" style="stop-color:#FCB230"/>
			<stop  offset="0.3501" style="stop-color:#F8AF30"/>
			<stop  offset="0.4692" style="stop-color:#EFA52F"/>
			<stop  offset="0.5675" style="stop-color:#E3962E"/>
			<stop  offset="0.6543" style="stop-color:#D4842B"/>
			<stop  offset="0.7337" style="stop-color:#C36F29"/>
			<stop  offset="0.8065" style="stop-color:#B05626"/>
			<stop  offset="0.8429" style="stop-color:#A54724"/>
		</radialGradient>
		<polygon class="st3" points="258.3,424.2 227.9,371.7 258.3,319.1 319,319.1 349.3,371.7 319,424.2 		"/>
		<radialGradient id="SVGID_5_" cx="288.6274" cy="267.6848" r="79.8167" gradientUnits="userSpaceOnUse">
			<stop  offset="0.3298" style="stop-color:#FFFBF0"/>
			<stop  offset="0.5017" style="stop-color:#FDF8ED"/>
			<stop  offset="0.5772" style="stop-color:#F5F0E4"/>
			<stop  offset="0.6339" style="stop-color:#EAE4D5"/>
			<stop  offset="0.6811" style="stop-color:#DDD5C3"/>
			<stop  offset="0.7225" style="stop-color:#CDC3AD"/>
			<stop  offset="0.7598" style="stop-color:#BAAF93"/>
			<stop  offset="0.7933" style="stop-color:#A6997A"/>
			<stop  offset="0.8063" style="stop-color:#9D906F"/>
		</radialGradient>
		<polygon class="st4" points="258.3,320.2 227.9,267.7 258.3,215.1 319,215.1 349.3,267.7 319,320.2 		"/>
		<radialGradient id="SVGID_6_" cx="198.1806" cy="320.6432" r="79.8167" gradientUnits="userSpaceOnUse">
			<stop  offset="0.3298" style="stop-color:#FFFBF0"/>
			<stop  offset="0.5017" style="stop-color:#FDF8ED"/>
			<stop  offset="0.5772" style="stop-color:#F5F0E4"/>
			<stop  offset="0.6339" style="stop-color:#EAE4D5"/>
			<stop  offset="0.6811" style="stop-color:#DDD5C3"/>
			<stop  offset="0.7225" style="stop-color:#CDC3AD"/>
			<stop  offset="0.7598" style="stop-color:#BAAF93"/>
			<stop  offset="0.7933" style="stop-color:#A6997A"/>
			<stop  offset="0.8063" style="stop-color:#9D906F"/>
		</radialGradient>
		<polygon class="st5" points="167.8,373.2 137.5,320.6 167.8,268.1 228.5,268.1 258.9,320.6 228.5,373.2 		"/>
		<radialGradient id="SVGID_7_" cx="198.1806" cy="320.3874" r="79.8167" gradientUnits="userSpaceOnUse">
			<stop  offset="0.3298" style="stop-color:#FFFBF0"/>
			<stop  offset="0.5017" style="stop-color:#FDF8ED"/>
			<stop  offset="0.5772" style="stop-color:#F5F0E4"/>
			<stop  offset="0.6339" style="stop-color:#EAE4D5"/>
			<stop  offset="0.6811" style="stop-color:#DDD5C3"/>
			<stop  offset="0.7225" style="stop-color:#CDC3AD"/>
			<stop  offset="0.7598" style="stop-color:#BAAF93"/>
			<stop  offset="0.7933" style="stop-color:#A6997A"/>
			<stop  offset="0.8063" style="stop-color:#9D906F"/>
		</radialGradient>
		<polygon class="st6" points="167.8,372.9 137.5,320.4 167.8,267.8 228.5,267.8 258.9,320.4 228.5,372.9 		"/>
		<radialGradient id="SVGID_8_" cx="198.1899" cy="322.078" r="79.8167" gradientUnits="userSpaceOnUse">
			<stop  offset="0.3298" style="stop-color:#FFFBF0"/>
			<stop  offset="0.5017" style="stop-color:#FDF8ED"/>
			<stop  offset="0.5772" style="stop-color:#F5F0E4"/>
			<stop  offset="0.6339" style="stop-color:#EAE4D5"/>
			<stop  offset="0.6811" style="stop-color:#DDD5C3"/>
			<stop  offset="0.7225" style="stop-color:#CDC3AD"/>
			<stop  offset="0.7598" style="stop-color:#BAAF93"/>
			<stop  offset="0.7933" style="stop-color:#A6997A"/>
			<stop  offset="0.8063" style="stop-color:#9D906F"/>
		</radialGradient>
		<polygon class="st7" points="167.8,374.6 137.5,322.1 167.8,269.5 228.5,269.5 258.9,322.1 228.5,374.6 		"/>
		<radialGradient id="SVGID_9_" cx="198.1899" cy="321.8064" r="79.8167" gradientUnits="userSpaceOnUse">
			<stop  offset="0.3298" style="stop-color:#FFFBF0"/>
			<stop  offset="0.5017" style="stop-color:#FDF8ED"/>
			<stop  offset="0.5772" style="stop-color:#F5F0E4"/>
			<stop  offset="0.6339" style="stop-color:#EAE4D5"/>
			<stop  offset="0.6811" style="stop-color:#DDD5C3"/>
			<stop  offset="0.7225" style="stop-color:#CDC3AD"/>
			<stop  offset="0.7598" style="stop-color:#BAAF93"/>
			<stop  offset="0.7933" style="stop-color:#A6997A"/>
			<stop  offset="0.8063" style="stop-color:#9D906F"/>
		</radialGradient>
		<polygon class="st8" points="167.8,374.4 137.5,321.8 167.8,269.3 228.5,269.3 258.9,321.8 228.5,374.4 		"/>
		<radialGradient id="SVGID_10_" cx="288.6274" cy="162.2239" r="79.8168" gradientUnits="userSpaceOnUse">
			<stop  offset="0.3298" style="stop-color:#FFFBF0"/>
			<stop  offset="0.5055" style="stop-color:#FDF8ED"/>
			<stop  offset="0.5827" style="stop-color:#F5F0E4"/>
			<stop  offset="0.6406" style="stop-color:#EAE4D5"/>
			<stop  offset="0.6889" style="stop-color:#DDD5C3"/>
			<stop  offset="0.7312" style="stop-color:#CDC3AD"/>
			<stop  offset="0.7693" style="stop-color:#BAAF93"/>
			<stop  offset="0.8034" style="stop-color:#A6997A"/>
			<stop  offset="0.8168" style="stop-color:#9D906F"/>
		</radialGradient>
		<polygon class="st9" points="258.3,214.8 227.9,162.2 258.3,109.7 319,109.7 349.3,162.2 319,214.8 		"/>
		<radialGradient id="SVGID_11_" cx="107.3669" cy="268.5995" r="79.8171" gradientUnits="userSpaceOnUse">
			<stop  offset="0.3298" style="stop-color:#FFFBF0"/>
			<stop  offset="0.5055" style="stop-color:#FDF8ED"/>
			<stop  offset="0.5827" style="stop-color:#F5F0E4"/>
			<stop  offset="0.6406" style="stop-color:#EAE4D5"/>
			<stop  offset="0.6889" style="stop-color:#DDD5C3"/>
			<stop  offset="0.7312" style="stop-color:#CDC3AD"/>
			<stop  offset="0.7693" style="stop-color:#BAAF93"/>
			<stop  offset="0.8034" style="stop-color:#A6997A"/>
			<stop  offset="0.8168" style="stop-color:#9D906F"/>
		</radialGradient>
		<polygon class="st10" points="77,321.2 46.7,268.6 77,216 137.7,216 168.1,268.6 137.7,321.2 		"/>
		<polygon class="st11" points="345.2,364.6 340.8,384.8 337,350.3 334.1,345.4 330.3,371.3 313.6,371.3 308.4,354.3 301.7,384.8 
			296.4,336.5 291.2,371.3 274.5,371.3 269.3,354.3 262.6,384.8 257.3,336.5 252.2,371.3 228.3,371.3 228.3,372.4 228.8,373.2 
			253.8,373.2 257,351.5 262,396.6 269.6,361.9 273.1,373.2 292.9,373.2 296.1,351.5 301.1,396.6 308.7,361.9 312.1,373.2 
			332,373.2 335.2,351.5 339.3,389 343.4,382 346.6,367 		"/>
		<polygon class="st12" points="167.8,372.6 137.5,320 167.8,267.5 228.5,267.5 258.9,320 228.5,372.6 		"/>
		<g>
			<path class="st13" d="M227.8,331.2h-18.5v18.5h-22.2v-18.5h-18.5v-22.2h18.5v-18.5h22.2v18.5h18.5V331.2z"/>
		</g>
		<g>
			<g>
				<polygon class="st14" points="319.1,425.9 257.9,425.9 227,372.3 257.9,318.7 319.8,318.7 350.4,371.7 348.4,372.9 318.4,321.1 
					259.2,321.1 229.7,372.3 259.2,423.6 319.1,423.6 				"/>
			</g>
			<g>
				<g>
					<circle class="st14" cx="228.3" cy="372.5" r="6.5"/>
				</g>
				<g>
					<circle class="st14" cx="349.4" cy="372.5" r="6.5"/>
				</g>
				<g>
					<circle class="st14" cx="258.7" cy="320" r="6.5"/>
				</g>
				<g>
					<circle class="st14" cx="258.7" cy="424.6" r="6.5"/>
				</g>
				<g>
					<circle class="st14" cx="319" cy="320" r="6.5"/>
				</g>
				<g>
					<circle class="st14" cx="319" cy="424.6" r="6.5"/>
				</g>
			</g>
		</g>
		<g>
			<polygon class="st14" points="439.1,215.9 409.2,164 350,164 320,215.9 318,214.7 348.6,161.7 410.5,161.7 441.1,214.7 			"/>
		</g>
		<g>
			<circle class="st14" cx="319" cy="215.5" r="6.5"/>
		</g>
		<g>
			<circle class="st14" cx="440.1" cy="215.5" r="6.5"/>
		</g>
		<g>
			<circle class="st14" cx="318" cy="109.8" r="6.5"/>
		</g>
		<g>
			<circle class="st14" cx="349.4" cy="163" r="6.5"/>
		</g>
		<g>
			<circle class="st14" cx="349.4" cy="267.6" r="6.5"/>
		</g>
		<g>
			<circle class="st14" cx="409.7" cy="163" r="6.5"/>
		</g>
		<g>
			<circle class="st14" cx="409.7" cy="267.6" r="6.5"/>
		</g>
		<g>
			
				<rect x="242.8" y="159.5" transform="matrix(0.8678 -0.4969 0.4969 0.8678 -62.0231 146.3167)" class="st14" width="2.3" height="60.5"/>
		</g>
		<g>
			
				<rect x="287.5" y="79.5" transform="matrix(8.669253e-03 -1 1 8.669253e-03 176.3184 397.4741)" class="st14" width="2.3" height="60.5"/>
		</g>
		<g>
			<g>
				
					<rect x="31.8" y="345.4" transform="matrix(0.5002 -0.8659 0.8659 0.5002 -269.0639 226.9944)" class="st14" width="60.5" height="2.3"/>
			</g>
			<g>
				<g>
					<circle class="st14" cx="47" cy="373" r="6.5"/>
				</g>
				<g>
					<circle class="st14" cx="77.3" cy="320.5" r="6.5"/>
				</g>
			</g>
		</g>
		<g>
			<g>
				
					<rect x="213.3" y="135.4" transform="matrix(0.5005 -0.8658 0.8658 0.5005 3.4648 279.0361)" class="st14" width="60.5" height="2.3"/>
			</g>
			<g>
				<g>
					<circle class="st14" cx="228.4" cy="162.9" r="6.5"/>
				</g>
				<g>
					<circle class="st14" cx="258.8" cy="110.4" r="6.5"/>
				</g>
			</g>
		</g>
		<g>
			<g>
				<rect x="242.5" y="53.8" transform="matrix(0.866 -0.5 0.5 0.866 -9.3708 133.0612)" class="st14" width="2.3" height="60.5"/>
			</g>
			<g>
				<g>
					<circle class="st14" cx="228.4" cy="57.9" r="6.5"/>
				</g>
			</g>
		</g>
		<g>
			<g>
				<rect x="61.1" y="159.2" transform="matrix(0.866 -0.5 0.5 0.866 -86.4192 56.4991)" class="st14" width="2.3" height="60.5"/>
			</g>
			<g>
				<g>
					<circle class="st14" cx="77.3" cy="215.9" r="6.5"/>
				</g>
				<g>
					<circle class="st14" cx="47" cy="163.4" r="6.5"/>
				</g>
			</g>
		</g>
		<g>
			<g>
				<polygon class="st14" points="227,374.4 165.7,374.4 134.7,320.8 165.7,267.1 227,267.1 227,269.5 167,269.5 137.4,320.8 
					167,372.1 227,372.1 				"/>
			</g>
			<g>
				<g>
					<circle class="st14" cx="136.1" cy="321" r="6.5"/>
				</g>
				<g>
					<circle class="st14" cx="166.5" cy="268.4" r="6.5"/>
				</g>
				<g>
					<circle class="st14" cx="166.5" cy="373.1" r="6.5"/>
				</g>
				<g>
					<circle class="st14" cx="226.8" cy="268.4" r="6.5"/>
				</g>
			</g>
		</g>
		<g>
			<g>
				<polygon class="st14" points="257.6,320.8 227,267.8 257.9,214.2 319.8,214.2 350.4,267.2 348.4,268.3 318.5,216.5 259.3,216.5 
					229.7,267.8 259.6,319.6 				"/>
			</g>
			<g>
				<g>
					<circle class="st14" cx="258.7" cy="215.5" r="6.5"/>
				</g>
			</g>
		</g>
		<g>
			<g>
				<polygon class="st14" points="138.7,215.8 136.7,214.7 167.3,161.7 228.5,161.7 228.5,164 168.6,164 				"/>
			</g>
			<g>
				<g>
					<circle class="st14" cx="168.1" cy="163" r="6.5"/>
				</g>
			</g>
		</g>
		<g>
			<g>
				<polygon class="st14" points="48,268.8 46,267.6 76.6,214.6 138.5,214.6 169.1,267.6 167,268.8 137.1,217 77.9,217 				"/>
			</g>
			<g>
				<rect x="77.3" y="319.5" class="st14" width="60.5" height="2.3"/>
			</g>
			<g>
				<g>
					<circle class="st14" cx="47" cy="268.4" r="6.5"/>
				</g>
				<g>
					<circle class="st14" cx="137.7" cy="215.9" r="6.5"/>
				</g>
			</g>
		</g>
		<polygon class="st14" points="439.1,320.4 409.1,268.5 349.9,268.5 320,320.4 318,319.2 348.6,266.2 410.5,266.2 441.1,319.2 		
			"/>
		<path class="st15" d="M133.6,256.1c-2.6,0-5,0.9-6.9,2.4l-11.5-7.1c0.1-0.5,0.2-1.1,0.2-1.7c0-4.9-4-9-9-9c-4.9,0-9,4-9,9
			c0,1.5,0.4,3,1.1,4.2l-0.2,0.3l-14.4,16.9c-1-0.3-2.1-0.5-3.2-0.5c-5.8,0-10.5,4.7-10.5,10.5s4.7,10.5,10.5,10.5
			c5.8,0,10.5-4.7,10.5-10.5c0-2.2-0.7-4.3-1.9-6l12.7-17.6c1.3,0.7,2.8,1.1,4.4,1.1c2.7,0,5.1-1.2,6.7-3.1l10,7.5
			c-0.5,1.3-0.8,2.8-0.8,4.3c0,6.2,5.1,11.3,11.3,11.3c6.2,0,11.3-5.1,11.3-11.3C144.8,261.2,139.8,256.1,133.6,256.1z M80.7,284.3
			c-1.8,0-3.3-1.5-3.3-3.3s1.5-3.3,3.3-3.3s3.3,1.5,3.3,3.3S82.5,284.3,80.7,284.3z M106.4,252.5c-1.6,0-2.8-1.3-2.8-2.8
			c0-1.6,1.3-2.8,2.8-2.8c1.6,0,2.8,1.3,2.8,2.8C109.2,251.2,107.9,252.5,106.4,252.5z M133.6,270.8c-2,0-3.5-1.6-3.5-3.5
			s1.6-3.5,3.5-3.5c2,0,3.5,1.6,3.5,3.5S135.5,270.8,133.6,270.8z"/>
		<g>
			<path class="st16" d="M295.7,257.2c4,3.6,4.2,9.8,0.6,13.8c-3.7,4-9.9,4.3-13.9,0.6c-0.1-0.1-0.2-0.2-0.4-0.4l-6.1,6.5
				c-1.7,2-4.9,2.1-6.8,0.3l-15.5-14.3l32.5-35.2l15.4,14.3c2,1.9,2.1,4.9,0.3,6.9l-6.6,7.1C295.4,257,295.5,257.1,295.7,257.2
				L295.7,257.2z M287.2,270L287.2,270c-0.1,0-0.4,0.1-0.4,0.2l-0.1,1.1c-0.8-0.2-1.6-0.7-2.3-1.3c0.1,0,0.1,0,0.1,0l0.7-0.8
				c0.2-0.1,0.1-0.5,0-0.6l0,0c-0.1-0.1-0.5-0.1-0.6,0l-0.7,0.8c0,0,0,0-0.1,0.1c-0.6-0.7-1.1-1.4-1.4-2.1c0.1,0,0.1,0,0.1,0
				l1.1-0.2c0.1,0,0.2-0.2,0.2-0.3l0,0c-0.1-0.2-0.2-0.2-0.5-0.2l-1.1,0.2c0,0,0,0-0.1,0c-0.2-0.6-0.3-1.2-0.3-1.7l1.1-0.1
				c0.2,0,0.3-0.1,0.3-0.5c0-0.2-0.2-0.4-0.5-0.4h-1c0.1-0.7,0.2-1.4,0.5-2.1l0.9,0.3c0.1,0,0.3,0,0.3-0.2c0.1-0.1,0-0.2-0.1-0.4
				l-1.1-0.3c0.4-0.6,0.7-1.3,1.2-1.8l0.7,0.7c0.2,0.1,0.5,0.1,0.7,0c0.1-0.2,0.1-0.6-0.1-0.7l-0.7-0.7c0.5-0.5,1-0.9,1.7-1.3
				l0.5,0.9c0,0.1,0,0.1,0,0.1c0.1,0.1,0.2,0.1,0.3,0.1c0.1-0.1,0.2-0.2,0.1-0.5l-0.4-0.9c0.6-0.2,1.3-0.5,2-0.5v1.1
				c0,0.1,0.1,0.2,0.2,0.2c0,0.1,0.1,0.2,0.2,0.2c0.3-0.1,0.5-0.2,0.5-0.6v-0.9c0.7,0,1.4,0.1,2.1,0.4l-0.3,0.9
				c-0.1,0.1,0,0.2,0,0.3c0.1,0,0.1,0,0.1,0c0.2,0.1,0.4,0,0.5-0.1l0.4-1c0.6,0.4,1.2,0.7,1.7,1.2l-0.7,0.7c-0.1,0.2-0.1,0.5,0,0.7
				c0.2,0.1,0.5,0.1,0.7,0l0.7-0.8c0.5,0.6,0.9,1.2,1.2,1.8l-0.9,0.5c-0.1,0-0.2,0.2-0.1,0.3c0,0.1,0,0.1,0.1,0.1
				c0,0.1,0.1,0.1,0.2,0l1-0.4c0.2,0.6,0.4,1.3,0.5,2h-1c-0.2,0.1-0.5,0.2-0.5,0.5c0,0.2,0.1,0.3,0.1,0.3c0.1,0.1,0.2,0.1,0.3,0.1h1
				c0,0.7-0.1,1.4-0.3,2.1l-0.9-0.4c-0.2-0.1-0.3,0-0.5,0.1c0,0.1,0,0.3,0.1,0.3l0.1,0.1l0.9,0.3c-0.2,0.6-0.6,1.2-1.1,1.7l-0.7-0.7
				c-0.2-0.1-0.6-0.1-0.7,0c-0.1,0.2-0.1,0.5,0,0.7l0.8,0.7c-0.6,0.5-1.2,0.9-1.7,1.3l-0.5-1c-0.1-0.1-0.2-0.2-0.4-0.1
				c-0.2,0.1-0.2,0.2-0.2,0.5l0.5,0.9c-0.7,0.2-1.3,0.4-2,0.5l-0.1-1c0-0.2-0.2-0.5-0.5-0.5c-0.2,0-0.5,0.2-0.5,0.5l0.1,1
				c-0.6,0-1.2,0-1.6-0.2l0.1-0.9C287.4,270.3,287.3,270.2,287.2,270L287.2,270z"/>
			<path class="st16" d="M307.1,291.3L295,304.4c-1.4,1.5-2.6,2.4-4,2.6c-1.6,0.2-4,0.2-6.1-1.5l-0.2-0.1L247.1,271
				c-5.4-4.9,0.1-9.4,2.7-11.9c-0.3-1.6,0-3.3,1.2-4.5l25.9-28c1.9-2,4.9-2.1,6.9-0.4l0.9,0.9l-32.5,35.1l-0.9-0.8
				c0-0.1,0-0.1-0.1-0.1c-0.1,0.1-0.2,0.2-0.3,0.3c-1.6,2.2-4.8,4-1.9,7l37.9,34.5c1,0.8,1.9,1.3,2.6,1.2c1-0.1,2-0.9,3.3-2.2
				l12.1-13.3l-0.7-0.7c-0.2-0.2-0.3-0.5-0.3-0.8c-0.1-0.2,0-0.5,0.2-0.7l1.6-1.7c-1.9-5,0.2-12.4,5.8-18.1
				c16.3-16.7,34.1,0.2,17.5,17.1c-5.4,5.5-12.4,7.8-17.4,6.3l-2,2c-0.1,0.2-0.5,0.2-0.7,0.2c-0.2,0-0.5-0.1-0.7-0.2L307.1,291.3z"
				/>
			<path class="st16" d="M285.2,261l0.2-0.2h-0.5L285.2,261z M286,261.1c0,0,0,0-0.1,0l0,0c-0.1,0-0.1,0.1-0.2,0.1
				c-0.1,0.1-0.1,0.2-0.1,0.2v0.1l0,0c0,0.1,0,0.1,0,0.1c0.1,0,0.1,0,0.1-0.1c0,0,0.1,0,0.2-0.1c0-0.1,0.1-0.1,0.1-0.2
				C286,261.2,286,261.2,286,261.1L286,261.1L286,261.1z M286.1,261c0,0.1,0.1,0.1,0.1,0.2c0,0.1-0.1,0.2-0.2,0.4
				c-0.1,0.1-0.2,0.2-0.3,0.2s-0.1,0-0.2-0.1c-0.1,0-0.1-0.1-0.1-0.2c0-0.1,0.1-0.2,0.2-0.3c0.1-0.1,0.2-0.2,0.3-0.2
				C286,260.8,286,260.8,286.1,261L286.1,261z M288.7,259.2c0,0.1,0,0.1,0,0.1c0,0.1,0,0.1,0,0.1c0,0.1,0.1,0.1,0.1,0.1l0.1-0.1
				v-0.1c0,0,0,0,0-0.1h-0.1H288.7L288.7,259.2z M289,259c0,0-0.1,0-0.1,0.1h0.1c0,0.1,0,0.1,0,0.1c0.1,0,0.1-0.1,0.1-0.1h0.1
				c0-0.1-0.1-0.1-0.1-0.1S289.1,258.9,289,259L289,259L289,259z M288.8,259.1c0-0.1,0-0.1,0-0.1c0-0.1,0-0.1,0.1-0.1
				c0-0.1,0.1-0.1,0.1-0.1c0.1,0,0.1,0,0.2,0.1c0.1,0,0.1,0.1,0.1,0.2c0,0,0,0.1-0.1,0.1c0,0,0,0.1-0.1,0.1c0,0,0,0-0.1,0
				c0.1,0,0.1,0.1,0.1,0.1l-0.1,0.1c-0.1,0.1-0.1,0.1-0.2,0.1c-0.1,0-0.1,0-0.2-0.1l-0.1-0.1c0-0.1,0-0.2,0.1-0.4h0.1H288.8
				L288.8,259.1z M289.7,259.4c0,0,0,0-0.1,0l0,0c-0.1,0.1-0.1,0.1-0.2,0.2c-0.1,0.1-0.1,0.1-0.1,0.1c0,0.1,0,0.1,0,0.1v0.1l0,0
				c0.1,0,0.1,0,0.1,0c0-0.1,0.1-0.1,0.2-0.2l0.1-0.1c0-0.1,0-0.1,0-0.1V259.4L289.7,259.4z M289.8,259.3c0.1,0.1,0.1,0.2,0.1,0.2
				c0,0.1-0.1,0.2-0.2,0.3c-0.1,0.2-0.2,0.2-0.3,0.2c-0.1,0.1-0.1,0-0.2,0c-0.1-0.1-0.1-0.2-0.1-0.2c0-0.1,0.1-0.2,0.2-0.3
				c0.1-0.2,0.2-0.2,0.3-0.2C289.7,259.3,289.7,259.3,289.8,259.3L289.8,259.3z M291.8,260.5l-0.2-0.1l0.6-0.5c-0.1,0-0.2,0-0.4-0.1
				l0.1-0.1c0.1,0,0.1,0,0.2,0c0,0.1,0.1,0,0.1,0l0.1,0.1L291.8,260.5z M292.5,261.1l-0.1,0.1l-0.5-0.5c0.1-0.1,0.1-0.1,0.2-0.1
				c0,0,0.1,0,0.2,0s0.2,0,0.2,0c0.1,0,0.1-0.1,0.1-0.1c0.1,0,0.1,0,0.1-0.1c0,0,0,0-0.1,0c0-0.1,0-0.1-0.1-0.1c0,0,0,0,0,0.1
				l-0.2-0.1c0.1-0.1,0.2-0.1,0.2-0.1c0.1,0,0.2,0,0.2,0.1c0.1,0,0.1,0.1,0.1,0.1c0,0.1,0,0.2,0,0.2c-0.1,0.1-0.1,0.1-0.1,0.1
				c-0.1,0-0.1,0-0.2,0c0,0,0,0-0.1,0c-0.1,0-0.1,0-0.1,0c-0.1,0-0.1,0-0.1,0L292.5,261.1z M293.3,260.8L293.3,260.8
				c-0.1,0-0.1,0-0.1,0s-0.1,0.1-0.2,0.2l-0.1,0.1c0,0.1,0,0.1,0,0.1l0,0c0,0.1,0,0.1,0.1,0.1c0,0,0,0,0-0.1c0.1,0,0.1,0,0.2-0.1
				c0.1-0.1,0.1-0.1,0.1-0.2l0,0C293.3,260.8,293.3,260.8,293.3,260.8L293.3,260.8z M293.4,260.7c0.1,0.1,0.1,0.1,0.1,0.2
				c0,0.1-0.1,0.2-0.2,0.4c-0.1,0.1-0.2,0.2-0.3,0.2c-0.1,0-0.1,0-0.2-0.1c0,0-0.1-0.1-0.1-0.2c0,0,0.1-0.1,0.2-0.3
				c0.1-0.1,0.2-0.1,0.3-0.2C293.3,260.6,293.3,260.7,293.4,260.7L293.4,260.7z M293,263.6l-0.2-0.1l0.6-0.6c-0.1,0-0.2,0-0.3,0
				l0.1-0.2c0.1,0.1,0.1,0.1,0.2,0.1c0,0,0.1,0,0.1-0.1l0.1,0.1L293,263.6z M293.6,263.6c-0.1,0.1-0.1,0.1-0.1,0.2l0,0
				c0.1,0.1,0.1,0.1,0.1,0.1l0.1-0.1c0.1,0,0.1-0.1,0.1-0.1s0-0.1-0.1-0.1l0,0C293.6,263.6,293.6,263.6,293.6,263.6L293.6,263.6z
				 M294.1,263.6l-0.2-0.1c0.1,0,0.1,0,0.1,0c0-0.1,0-0.1-0.1-0.1c0,0,0,0-0.1,0c0,0,0,0-0.1,0.1h0.1c0.1,0.1,0.1,0.1,0.1,0.2
				c0,0.1,0,0.2-0.1,0.2c0,0.1-0.1,0.1-0.2,0.1c0,0-0.1,0-0.2-0.1c0,0-0.1-0.1,0-0.2c0-0.1,0-0.2,0.1-0.3c0.1-0.1,0.2-0.2,0.3-0.2
				s0.2,0.1,0.2,0.1c0.1,0.1,0.1,0.1,0.1,0.2V263.6L294.1,263.6z M294.5,263.9L294.5,263.9c-0.1,0-0.1,0-0.1,0
				c0,0.1-0.1,0.1-0.2,0.2c0,0.1-0.1,0.1-0.1,0.2l0,0c0,0.1,0,0.1,0,0.1s0,0,0.1,0l0,0c0.1,0,0.1-0.1,0.2-0.2l0.1-0.1
				c0-0.1,0-0.1,0-0.1S294.5,264,294.5,263.9L294.5,263.9z M294.6,263.8c0.1,0.1,0.1,0.2,0.1,0.2c0,0.1-0.1,0.2-0.2,0.4
				c-0.1,0.2-0.2,0.2-0.3,0.2c-0.1,0.1-0.1,0-0.2,0c-0.1-0.1-0.1-0.1-0.1-0.2c0-0.1,0.1-0.2,0.2-0.4c0.1-0.1,0.2-0.2,0.3-0.2
				C294.5,263.8,294.5,263.8,294.6,263.8L294.6,263.8z M291.8,267.4l-0.1,0.2l-0.5-0.5c0.1-0.1,0.1-0.1,0.2-0.1c0,0,0.1,0,0.2,0
				c0.1,0,0.2,0,0.2-0.1c0.1,0,0.1,0,0.1,0c0.1,0,0.1-0.1,0.1-0.1s0,0-0.1-0.1l0,0c-0.1,0-0.1,0-0.1,0.1l-0.2-0.2c0.1,0,0.2,0,0.2,0
				c0.1,0,0.2,0,0.2,0c0.1,0.1,0.1,0.2,0.1,0.2c0,0.1,0,0.2,0,0.2c-0.1,0-0.1,0.1-0.1,0.1c-0.1,0-0.1,0-0.1,0c-0.1,0-0.1,0-0.2,0
				c-0.1,0-0.1,0-0.1,0c-0.1,0-0.1,0-0.1,0L291.8,267.4z M292.7,267.1c0.1,0,0.1,0.1,0.1,0.2c0,0.1-0.1,0.2-0.2,0.4
				c-0.1,0.1-0.2,0.2-0.3,0.2c-0.1,0-0.1,0-0.2-0.1c0,0-0.1-0.1-0.1-0.2c0-0.1,0.1-0.2,0.2-0.3c0.1-0.1,0.2-0.2,0.3-0.2
				C292.6,267,292.6,267,292.7,267.1L292.7,267.1z M293.3,267.6c0.1,0.1,0.1,0.2,0.1,0.2c0,0.1-0.1,0.2-0.2,0.4
				c-0.1,0.2-0.2,0.2-0.3,0.2c-0.1,0.1-0.1,0-0.2,0c-0.1-0.1-0.1-0.1-0.1-0.2c0-0.1,0.1-0.2,0.2-0.4c0.1-0.1,0.2-0.2,0.3-0.2
				C293.2,267.6,293.2,267.6,293.3,267.6L293.3,267.6z M288.2,269l-0.1,0.2l-0.5-0.5c0-0.1,0.1-0.1,0.1-0.1c0.1,0,0.2,0,0.3,0
				c0.1,0,0.2,0,0.2,0c0-0.1,0.1-0.1,0.1-0.1v-0.1c0,0,0,0,0-0.1h-0.1c0,0-0.1,0-0.1,0.1l-0.1-0.2c0.1,0,0.1,0,0.2,0
				c0.1,0,0.1,0,0.2,0c0,0.1,0.1,0.2,0.1,0.2c0,0.1,0,0.2-0.1,0.2c0,0,0,0.1-0.1,0.1h-0.1c0,0-0.1,0-0.2,0H288l0,0L288.2,269z
				 M288.7,269.2l0.2-0.2l-0.3,0.1L288.7,269.2z M288.4,269.6l0.1-0.2l-0.2-0.2l0.1-0.1l0.7-0.2l0.1,0.1l-0.5,0.5l0.1,0.1l-0.1,0.1
				l-0.1-0.1l-0.1,0.2L288.4,269.6z M289.5,269.4L289.5,269.4c0,0,0,0-0.1,0c0,0.1-0.1,0.1-0.1,0.2c-0.1,0.1-0.1,0.1-0.2,0.2l0,0
				c0,0.1,0,0.1,0,0.1c0.1,0,0.1,0,0.1,0s0,0,0.1,0c0,0,0-0.1,0.1-0.2c0.1,0,0.1-0.1,0.1-0.1c0.1-0.1,0.1-0.1,0.1-0.1
				S289.6,269.5,289.5,269.4L289.5,269.4z M289.6,269.2c0.1,0.1,0.1,0.2,0.1,0.2c0,0.1,0,0.2-0.2,0.3c-0.1,0.2-0.2,0.2-0.3,0.2
				c0,0.1-0.1,0-0.2,0c0-0.1,0-0.1,0-0.2c0-0.1,0-0.2,0.1-0.3c0.1-0.1,0.2-0.2,0.3-0.2C289.5,269.2,289.6,269.2,289.6,269.2
				L289.6,269.2z M284.4,264.7v-0.1l-0.1,0.1c0,0-0.1,0-0.1,0.1c-0.1,0.1-0.1,0.1-0.2,0.2c0,0,0,0,0,0.1l0,0h0.1c0,0,0,0,0.1,0
				c0,0,0-0.1,0.1-0.1c0.1-0.1,0.1-0.2,0.1-0.2c0.1,0,0.1-0.1,0.1-0.1S284.5,264.7,284.4,264.7L284.4,264.7z M284.5,264.6
				c0.1,0,0.1,0.1,0.1,0.2c0,0.1,0,0.2-0.2,0.4c-0.1,0.1-0.2,0.2-0.3,0.2c0,0-0.1,0-0.2-0.1c0,0,0-0.1,0-0.2c0-0.1,0-0.2,0.1-0.3
				c0.1-0.1,0.2-0.2,0.3-0.2S284.5,264.5,284.5,264.6L284.5,264.6z M289.4,264v-2.9l-0.9,2.7c-0.5,0.1-0.7,0.5-0.8,0.8
				c0,0.6,0.3,1.2,0.9,1.3c0.6,0.1,1.2-0.4,1.2-0.8C289.8,264.6,289.7,264.2,289.4,264L289.4,264z M284.9,261.2l0.1-0.1l-0.3-0.4
				l0.1-0.1l0.8-0.1l0.1,0.1l-0.5,0.5l0.1,0.1l-0.1,0.1l-0.1-0.1l-0.1,0.1L284.9,261.2z M293.2,267.7L293.2,267.7
				c-0.1,0-0.1,0-0.1,0c-0.1,0.1-0.1,0.1-0.2,0.2c0,0.1-0.1,0.1-0.1,0.1c0,0.1,0,0.1,0,0.1v0.1l0,0c0.1,0,0.1,0,0.1,0
				c0.1,0,0.1-0.1,0.2-0.2l0.1-0.1c0-0.1,0-0.1,0-0.1S293.2,267.8,293.2,267.7L293.2,267.7z M292.6,267.3L292.6,267.3
				c-0.1,0-0.1,0-0.1,0s-0.1,0.1-0.2,0.1c0,0.1-0.1,0.2-0.1,0.2v0.1l0,0c0,0,0,0.1,0.1,0.1v-0.1c0.1,0,0.1,0,0.2-0.1
				c0.1-0.1,0.1-0.1,0.1-0.2C292.6,267.4,292.6,267.4,292.6,267.3L292.6,267.3L292.6,267.3z"/>
		</g>
		<g>
			<defs>
				<circle id="SVGID_12_" cx="290.3" cy="161.4" r="44.1"/>
			</defs>
			<clipPath id="SVGID_13_">
				<use xlink:href="#SVGID_12_"  style="overflow:visible;"/>
			</clipPath>
			<path id="top_bone" class="st17" d="M291.5,160.1c2.2-1.9,5.4-8.2,5.2-11.1c-1.2-4.3-6.6-3.4-10.1-4.7
				c-3.5-1.3-26.6-16.2-26.6-16.2l-5,5.4c0,0,20.5,12.3,23.3,16.2c2.7,4,1.7,13.5,4.4,14.2C284.5,165.3,289.3,162,291.5,160.1z"/>
		</g>
		<g>
			<defs>
				<circle id="SVGID_14_" cx="290.3" cy="161.4" r="44.1"/>
			</defs>
			<clipPath id="SVGID_15_">
				<use xlink:href="#SVGID_14_"  style="overflow:visible;"/>
			</clipPath>
			<path id="cap" class="st18" d="M298.6,142.8c-0.7,0.5,0.4,2.6,0.4,7.1c0,4.4-1,6.6,0,7.1c1.8,0.1,3.7-0.3,4.1-7.7
				C302.8,145.9,299.9,141.7,298.6,142.8z"/>
		</g>
		<g>
			<defs>
				<circle id="SVGID_16_" cx="290.3" cy="161.4" r="44.1"/>
			</defs>
			<clipPath id="SVGID_17_">
				<use xlink:href="#SVGID_16_"  style="overflow:visible;"/>
			</clipPath>
			<path id="bottom_bone" class="st19" d="M298,160.4c-1.5,0-14.1,4.8-15,7.1c-0.7,0.6,1.6,9.3,2.1,14c0.4,4.7-0.7,8.2-0.9,12.5
				c-0.1,4.3,0,11.1,0,11.1l5.6,0.4c0,0-1-11.7-0.9-15.7c0.1-4,2.2-10,2.2-10s1.3,1.8,1.2,3.8c-0.2,5.3,1.4,16.2-0.4,21.8
				c6.4,0,9.7-1.5,9.7-1.5s-1.8-18.6-1.6-27.3c0.1-4.4,1.3-7.1,1.6-12.8C300.9,159.2,298,160.4,298,160.4z"/>
		</g>
		<g class="st20">
			<path id="world" class="st21" d="M108.1,146.8c-11.9,0-21.6,9.7-21.6,21.6s9.7,21.6,21.6,21.6s21.6-9.7,21.6-21.6
				S120,146.8,108.1,146.8z M126.9,167.7h-8.4c-0.1-3.1-0.6-6-1.6-8.7c1.9-0.8,3.6-1.8,5.2-3.1C125,159.1,126.7,163.2,126.9,167.7z
				 M107.3,187.2c-2.3-1.9-4.3-4.4-5.7-7.3c1.8-0.6,3.8-0.9,5.8-0.9L107.3,187.2C107.4,187.2,107.4,187.2,107.3,187.2z M108.9,149.6
				c2.6,2.2,4.8,5.1,6.2,8.5c-2,0.7-4.1,1.1-6.3,1.1L108.9,149.6C108.8,149.6,108.8,149.6,108.9,149.6z M111.2,149.8
				c3.8,0.6,7.3,2.4,10,5c-1.4,1.1-3.1,2.1-4.8,2.8C115.1,154.7,113.3,152,111.2,149.8z M107.4,149.6v9.7c-2.2-0.1-4.3-0.5-6.3-1.1
				C102.6,154.7,104.7,151.8,107.4,149.6C107.4,149.6,107.4,149.6,107.4,149.6z M99.8,157.7c-1.7-0.7-3.3-1.7-4.8-2.8
				c2.7-2.6,6.1-4.4,10-5C102.9,152,101.1,154.7,99.8,157.7z M100.6,159.4c2.1,0.8,4.5,1.2,6.8,1.3v7H99
				C99.2,164.8,99.7,162,100.6,159.4z M107.4,169.1v8.4c-2.2,0.1-4.3,0.4-6.3,1.1c-1.2-2.9-1.9-6.1-2-9.5H107.4z M105,186.9
				c-3.4-0.6-6.6-2.1-9.1-4.3c1.4-0.9,2.9-1.8,4.5-2.4C101.5,182.8,103.1,185.1,105,186.9z M108.8,187.2v-8.3c2,0.1,3.9,0.4,5.8,0.9
				C113.1,182.8,111.2,185.3,108.8,187.2C108.9,187.2,108.8,187.2,108.8,187.2z M115.9,180.3c1.6,0.6,3.1,1.4,4.5,2.4
				c-2.6,2.2-5.7,3.7-9.1,4.3C113.1,185.1,114.6,182.8,115.9,180.3z M115.1,178.6c-2-0.6-4.1-1-6.3-1.1v-8.4h8.3
				C117,172.5,116.3,175.7,115.1,178.6z M108.8,167.7v-7c2.4-0.1,4.7-0.5,6.8-1.3c0.9,2.6,1.4,5.3,1.5,8.3H108.8L108.8,167.7z
				 M94.1,155.9c1.6,1.2,3.3,2.3,5.2,3.1c-1,2.7-1.5,5.6-1.6,8.7h-8.4C89.5,163.2,91.3,159.1,94.1,155.9z M89.3,169.1h8.4
				c0.1,3.6,0.8,6.9,2.1,10c-1.8,0.7-3.4,1.6-4.9,2.7C91.6,178.5,89.5,174,89.3,169.1z M121.4,181.7c-1.5-1.1-3.2-2-4.9-2.7
				c1.3-3,2-6.4,2.1-10h8.4C126.7,174,124.6,178.5,121.4,181.7z"/>
			<circle class="st21" cx="117.9" cy="168.5" r="3.8"/>
			<circle class="st21" cx="100.2" cy="158.5" r="3.8"/>
			<path class="st21" d="M140.7,169.2h-11.4c-0.2,0-0.4-0.2-0.4-0.4v-0.5c0-0.2,0.2-0.4,0.4-0.4h11.4c0.2,0,0.4,0.2,0.4,0.4v0.5
				C141,169,140.8,169.2,140.7,169.2z"/>
			<path class="st21" d="M151.1,174.3h-10.3c-0.3,0-0.6-0.3-0.6-0.6v-10.3c0-0.3,0.3-0.6,0.6-0.6h10.3c0.3,0,0.6,0.3,0.6,0.6v10.3
				C151.7,174,151.4,174.3,151.1,174.3z"/>
			<path class="st21" d="M87.4,169.3h-16c-0.2,0-0.4-0.2-0.4-0.4v-0.5c0-0.2,0.2-0.4,0.4-0.4h16c0.2,0,0.4,0.2,0.4,0.4v0.5
				C87.7,169.1,87.6,169.3,87.4,169.3z"/>
			<path class="st21" d="M107.6,132.9v16c0,0.2,0.2,0.4,0.4,0.4h0.5c0.2,0,0.4-0.2,0.4-0.4v-16c0-0.2-0.2-0.4-0.4-0.4h-0.5
				C107.7,132.6,107.6,132.7,107.6,132.9z"/>
			<path class="st21" d="M93.2,155.2l-12.4-7.7c-0.2-0.1-0.2-0.3-0.1-0.5l0.3-0.4c0.1-0.2,0.3-0.2,0.5-0.1l12.4,7.7
				c0.2,0.1,0.2,0.3,0.1,0.5l-0.3,0.4C93.6,155.3,93.3,155.3,93.2,155.2z"/>
			<path class="st21" d="M73.4,174.4H63.1c-0.3,0-0.6-0.3-0.6-0.6v-10.3c0-0.3,0.3-0.6,0.6-0.6h10.3c0.3,0,0.6,0.3,0.6,0.6v10.3
				C74,174.2,73.7,174.4,73.4,174.4z"/>
			<path class="st21" d="M82.8,148.7H72.5c-0.3,0-0.6-0.3-0.6-0.6v-10.3c0-0.3,0.3-0.6,0.6-0.6h10.3c0.3,0,0.6,0.3,0.6,0.6v10.3
				C83.4,148.5,83.1,148.7,82.8,148.7z"/>
			<path class="st21" d="M113.3,136.7H103c-0.3,0-0.6-0.3-0.6-0.6v-10.3c0-0.3,0.3-0.6,0.6-0.6h10.3c0.3,0,0.6,0.3,0.6,0.6v10.3
				C113.9,136.4,113.6,136.7,113.3,136.7z"/>
			<path class="st21" d="M139.6,148.8h-10.3c-0.3,0-0.6-0.3-0.6-0.6v-10.3c0-0.3,0.3-0.6,0.6-0.6h10.3c0.3,0,0.6,0.3,0.6,0.6v10.3
				C140.2,148.6,139.9,148.8,139.6,148.8z"/>
			<path class="st21" d="M123.5,154.5l8.2-8.2c0.1-0.1,0.1-0.4,0-0.5l-0.3-0.3c-0.1-0.1-0.4-0.1-0.5,0l-8.2,8.2
				c-0.1,0.1-0.1,0.4,0,0.5l0.3,0.3C123.1,154.6,123.3,154.6,123.5,154.5z"/>
		</g>
		<g>
			<g>
				<polygon class="st22" points="377,506.1 457.5,539.7 408,658.2 313.5,658.2 				"/>
				<path class="st22" d="M395.2,422.5l116.4,48.6l-17.1,50.5c-15.8,37.8-47.4,58.7-71.1,48.8L390,556.4
					c-23.8-9.9-35.1-37.5-25.2-61.3L395.2,422.5z"/>
				<polygon class="st23" points="374.2,503.3 454.7,536.9 404,658.2 309.5,658.2 				"/>
				<path class="st23" d="M392.4,419.7l119.8,50l-20.5,49c-15.8,37.8-47.4,58.7-71.1,48.8l-33.4-13.9c-23.8-9.9-35.1-37.5-25.2-61.3
					L392.4,419.7z"/>
				<path class="st23" d="M377.6,546.6c-34.5-8.5-34.2-53.6-23.1-80.4c6.8-16.6,58.8,26.8,86.7,41.7
					C434.3,536.1,405.7,553.5,377.6,546.6z"/>
				<path class="st22" d="M364.1,540.3c4.2,13.4,19.4,15.9,33,21.5c14.8,6.2,25.2,15.1,39.3,9c-12.4,2.7-22.4-7.1-37.2-13.3
					C385.6,552,372.3,551.8,364.1,540.3z"/>
				<path class="st22" d="M521.3,325.5L521.3,325.5c7,4.7,8.9,14.2,4.2,21.2l-80.1,119.8c-4.7,7-14.2,8.9-21.2,4.2h0
					c-7-4.7-8.9-14.2-4.2-21.2L500,329.7C504.7,322.7,514.3,320.8,521.3,325.5z"/>
				<path class="st23" d="M519.9,321.8L519.9,321.8c7,4.7,8.9,14.2,4.2,21.2L444,462.9c-4.7,7-14.2,8.9-21.2,4.2h0
					c-7-4.7-8.9-14.2-4.2-21.2l80.1-119.8C503.4,319.1,512.9,317.2,519.9,321.8z"/>
				<path class="st16" d="M397,237.8h102.3c8.3,0,15.1,6.8,15.1,15.1v238.4c0,8.3-6.8,15.1-15.1,15.1H397c-8.3,0-15.1-6.8-15.1-15.1
					V252.9C381.9,244.6,388.7,237.8,397,237.8z"/>
				<rect x="391.9" y="270.8" class="st24" width="112.5" height="191.6"/>
				<polygon class="st25" points="313.6,617.6 410.8,658.2 416.8,658.2 444.8,591.1 342.5,548.4 				"/>
				<polygon class="st26" points="364.8,638.9 410.8,658.2 416.8,658.2 444.8,591.1 393.7,569.7 				"/>
				<g>
					<polygon class="st27" points="323,578.3 437.2,626 423.8,658.2 289.6,658.2 					"/>
					<polygon class="st28" points="380.1,602.2 437.2,626 423.8,658.2 356.7,658.2 					"/>
				</g>
				<path class="st29" d="M416.1,476l56.4,0c8.8,0,8.8,11,0,11l-56.4,0C407.3,487,407.3,476,416.1,476z"/>
				<g>
					<g>
						<rect x="393.9" y="358" class="st16" width="37.2" height="4.1"/>
						<rect x="393.9" y="331" class="st30" width="2.7" height="27"/>
						<rect x="398.2" y="344.5" class="st27" width="9.9" height="13.5"/>
						<rect x="409.7" y="314.7" class="st31" width="9.9" height="43.3"/>
						<rect x="421.2" y="322.1" class="st26" width="9.9" height="35.9"/>
					</g>
					<g>
						<path class="st16" d="M408.9,375.4c10.6,0,19.2,8.6,19.2,19.2c0,10.6-8.6,19.2-19.2,19.2c-6.1,0-11.5-2.8-15-7.2l0-24
							C397.4,378.2,402.9,375.4,408.9,375.4z"/>
						<path class="st31" d="M408.9,394.6l-14.7,12.3c-0.1-0.1-0.2-0.2-0.3-0.4v-24c3.5-4.4,8.9-7.2,15-7.2V394.6z"/>
						<path class="st26" d="M408.9,394.6h-15v-12c3.5-4.4,8.9-7.2,15-7.2V394.6z"/>
						<polygon class="st27" points="408.9,394.6 393.9,394.6 393.9,387.6 						"/>
					</g>
					<g>
						<rect x="393.9" y="426.4" class="st32" width="12.7" height="3.7"/>
						<rect x="393.9" y="432.7" class="st32" width="36.9" height="3.7"/>
						<rect x="393.9" y="439" class="st32" width="36.9" height="3.7"/>
						<rect x="393.9" y="445.3" class="st32" width="36.9" height="3.7"/>
						<rect x="393.9" y="451.7" class="st32" width="36.9" height="3.7"/>
					</g>
					<g>
						<rect x="393.9" y="276.3" class="st32" width="12.7" height="3.7"/>
						<rect x="393.9" y="282.6" class="st32" width="36.9" height="3.7"/>
						<rect x="393.9" y="288.9" class="st32" width="36.9" height="3.7"/>
						<rect x="393.9" y="295.3" class="st32" width="36.9" height="3.7"/>
						<rect x="393.9" y="301.6" class="st32" width="36.9" height="3.7"/>
					</g>
				</g>
				<g>
					<rect x="444.9" y="276.9" class="st27" width="31" height="6.4"/>
					<rect x="444.9" y="288.5" class="st30" width="58.4" height="22"/>
					<path class="st33" d="M450.7,295.7c0.2-0.2,0.5-0.2,0.6,0c0.2,0.2,0.2,0.6,0,0.8l-2.5,3l2.5,3c0.2,0.2,0.2,0.6,0,0.8
						c-0.2,0.2-0.5,0.2-0.6,0l-2.8-3.4l0,0l0,0l0,0l0,0l0,0l0,0l0,0l0,0l0,0l0,0l0,0l0,0l0,0l0,0l0,0l0,0l0,0l0,0l0,0l0,0l0,0l0,0
						l0,0l0,0l0,0l0,0l0,0l0,0l0,0l0,0l0,0l0,0l0,0l0,0l0,0l0,0l0,0l0,0l0,0l0,0l0,0l0,0l0,0l0,0l0,0l0,0l0,0l0,0l0,0v0l0,0l0,0l0,0
						l0,0l0,0v0l0,0v0l0,0v0v0v0v0v0v0v0v0v0l0,0v0l0,0v0l0,0l0,0l0,0l0,0l0,0v0l0,0l0,0l0,0l0,0l0,0l0,0l0,0l0,0l0,0l0,0l0,0l0,0
						l0,0l0,0l0,0l0,0l0,0l0,0l0,0l0,0l0,0l0,0l0,0l0,0l0,0l0,0l0,0l0,0l0,0l0,0l0,0l0,0l0,0l0,0l0,0l0,0l0,0l0,0l0,0l0,0l0,0l0,0
						l0,0l0,0l0,0l0,0l0,0l0,0l0,0L450.7,295.7z"/>
					<rect x="444.9" y="315.9" class="st26" width="28.6" height="6.2"/>
					<rect x="479.6" y="315.9" class="st30" width="23.8" height="6.2"/>
					<rect x="444.9" y="325.2" class="st27" width="28.6" height="21.3"/>
					<rect x="479.6" y="325.2" class="st26" width="23.8" height="21.3"/>
					<rect x="444.9" y="353.6" class="st32" width="26.1" height="4.3"/>
					<rect x="444.9" y="361.5" class="st32" width="58.4" height="4.3"/>
					<rect x="444.9" y="369.5" class="st32" width="58.4" height="4.3"/>
					<rect x="444.9" y="377.6" class="st32" width="58.4" height="4.3"/>
					<rect x="444.9" y="385.6" class="st32" width="58.4" height="4.3"/>
					<rect x="444.9" y="393.6" class="st32" width="58.4" height="4.3"/>
					<rect x="444.9" y="401.7" class="st32" width="58.4" height="4.3"/>
					<rect x="444.9" y="409.7" class="st32" width="58.4" height="4.3"/>
					<rect x="444.9" y="432" class="st31" width="58.4" height="24"/>
					<rect x="444.9" y="422" class="st27" width="28.6" height="6.2"/>
				</g>
				<path class="st22" d="M381.5,455.8l32-27.9c17.3-15.1,10.7-49.2-4.4-36l-37.5,32.7C363.3,431.9,372.5,446.7,381.5,455.8z"/>
				<g>
					<path class="st23" d="M380.3,452.1l32-27.9c17.3-15.1,10.7-49.2-4.4-36l-37.5,32.7C362.2,428.1,371.4,442.9,380.3,452.1z"/>
					<path class="st34" d="M403.7,407.1c12.4-9.4,11.4-19,7.9-21.3c-1.2,0.5-2.4,1.3-3.7,2.4l-15.3,13.4
						C396.1,406.1,400.6,409.5,403.7,407.1z"/>
				</g>
				<path class="st22" d="M378,499.9l16.9-50.7c7.3-21.8-19.4-39.2-25.2-20l-15.7,49.6C347.4,492.5,358.3,502.9,378,499.9z"/>
				<path class="st23" d="M373.9,504.7l18-57.5c6.9-22-19.4-39.2-25.2-20L351,476.8C344.4,490.5,354.3,507.7,373.9,504.7z"/>
				<g>
					<path class="st23" d="M409.7,536.8c-47.3,12.9-59.2-19.3-25.2-68.3C419.7,472.6,425.6,516.8,409.7,536.8z"/>
					<path class="st22" d="M409.7,536.8c7.1-21.9,1.4-58.1-25.2-68.3C419.7,472.6,425.6,516.8,409.7,536.8z"/>
				</g>
				<path class="st22" d="M527.1,368.2L527.1,368.2c6.8,4.9,8.4,14.5,3.5,21.4l-17.3,23.9c-4.9,6.8-14.5,8.4-21.4,3.5l0,0
					c-6.8-4.9-8.4-14.5-3.5-21.4l17.3-23.9C510.7,364.8,520.3,363.3,527.1,368.2z"/>
				<path class="st23" d="M525.7,364.6c6.8,4.9,8.4,14.5,3.5,21.4l-17.3,23.9c-4.9,6.8-14.5,8.4-21.4,3.5l0,0
					c-6.8-4.9-8.4-14.5-3.5-21.4l17.3-23.9C509.3,361.2,518.9,359.6,525.7,364.6z"/>
				<path class="st34" d="M492.5,413c-4.8-3-6.7-7.3-4.8-10c6.1-8.9,11.1-9.8,16.6-6.3c5.1,4,5.8,9.1-0.7,17.7
					C501.6,417,496.9,416.5,492.5,413z"/>
				<path class="st22" d="M536.2,409.4L536.2,409.4c6.8,4.9,8.4,14.5,3.5,21.4l-11.2,15.5c-4.9,6.8-14.5,8.4-21.4,3.5l0,0
					c-6.8-4.9-8.4-14.5-3.5-21.4l11.2-15.5C519.7,406.1,529.3,404.5,536.2,409.4z"/>
				<path class="st23" d="M534.8,405.8L534.8,405.8c6.8,4.9,8.4,14.5,3.5,21.4l-11.2,15.5c-4.9,6.8-14.5,8.4-21.4,3.5h0
					c-6.8-4.9-8.4-14.5-3.5-21.4l11.2-15.5C518.4,402.5,528,400.9,534.8,405.8z"/>
				<path class="st34" d="M507.3,444c-4.8-3-6.7-7.3-4.8-10c6.1-8.9,11.1-9.8,16.6-6.3c5.1,4,5.8,9.1-0.7,17.7
					C516.3,448.1,511.6,447.5,507.3,444z"/>
			</g>
			<g>
				<g>
					<path class="st33" d="M465.1,330.2c-0.9-0.7-1.6-0.9-2.3-0.5c-1,0.5-1,1.9-1,2.1c0,0.9-0.2,1.4-0.4,1.5c-0.1,0.1-0.4,0-0.7-0.2
						c-0.4-0.3-0.6-0.6-0.6-0.8c0.2-2.6-1.5-3.7-2.7-3.8c-1.7-0.2-3,0.2-4.1,1c-1.6,1.3-1.7,3.3-1.7,3.5c-0.1,4.2,3.2,4.3,5,4.3
						c0.3,0,0.7,0,0.9,0c1.1,0.2,1.3,1.1,1.4,2.8c0,0.6,0.1,1.2,0.3,1.7c0.5,1.1,0.8,3.1,1,4.9c0.3-0.2,0.7-0.3,1.2-0.3c0,0,0,0,0,0
						c-0.2-1.9-0.5-3.9-1-5.1c-0.1-0.3-0.1-0.8-0.2-1.3c-0.1-1.4-0.2-3.6-2.5-3.9c-0.3,0-0.7-0.1-1.1-0.1c-2.2,0-3.7-0.3-3.7-3
						c0,0,0.1-1.6,1.3-2.5c0.7-0.6,1.8-0.9,3.1-0.7c0.7,0.1,1.7,0.7,1.6,2.4c-0.1,0.8,0.5,1.6,1.2,2c0.7,0.4,1.4,0.5,2,0.2
						c0.7-0.4,1-1.3,1-2.6c0-0.4,0.1-0.9,0.3-1c0.1,0,0.4,0,0.9,0.4c1.9,1.4,2.8,3.4,2.5,5.3c-0.1,0.8-0.7,2.4-1.1,3.5
						c-0.2,0.5-0.3,0.9-0.4,1.1c-0.4,1.2-0.3,3.3-0.2,5.3c0.1,0,0.3,0,0.4,0c0.3,0,0.6,0.1,0.9,0.1c-0.1-1.9-0.2-4,0.2-5
						c0.1-0.2,0.2-0.6,0.4-1c0.4-1.2,1-2.8,1.2-3.8C468.5,334.4,467.3,331.9,465.1,330.2z"/>
				</g>
			</g>
			<path class="st33" d="M492.4,337.9c0.3-0.3,0.5-0.5,0.8-0.8c0,0,0.1-0.1,0.1-0.1c0,0,0-0.1,0-0.1v0c0-0.9,0-1.7,0-2.6l0-0.8h0
				v-0.6h-3.3c0,1.4,0,2.8,0,4.1h0c0,0,0,0,0,0c0,0,0,0,0,0l0,0c0.3,0.3,0.6,0.7,1,1l0.1,0.1v-2.5v-0.1h0.1h0.9h0.1v0.1v2.5
				L492.4,337.9z M493.2,328h-3.3v3.7h3.3V328z M494.5,326c0.3,0,0.6,0.1,0.9,0.2c0.1,0.1,0.2,0.2,0.3,0.3c0.1,0.2,0.1,0.3,0.1,0.5
				c0,0.2-0.1,0.3-0.2,0.5l0,0c-0.1,0.1-0.2,0.2-0.3,0.3c-0.1,0.1-0.3,0.2-0.5,0.2c-0.2,0-0.3,0-0.5,0l0,0c0,0-0.1,0-0.1,0v0.9v4.9
				h0l0,0.8c0,0.8,0,1.7,0,2.5l0,0c0,0.1,0,0.2,0,0.2c0,0.1-0.1,0.1-0.1,0.2h0c-0.3,0.3-0.6,0.6-0.9,0.9c-0.3,0.3-0.6,0.6-0.9,0.9
				c0,0,0,0.1-0.1,0.1c0,0,0,0.1,0,0.1v0c0,1.1,0,2.2,0,3.3l0,0.7h0.2h0.1v0.1v2v0.1h-0.1h-1.6h-0.1v-0.1v-2v-0.1h0.1h0.2l0-0.9
				c0-1,0-2.1,0-3.1c0,0,0-0.1,0-0.1c0,0,0-0.1,0-0.1l0,0c-0.3-0.3-0.6-0.6-0.9-0.9c-0.3-0.3-0.6-0.6-0.9-0.9v0
				c-0.1-0.1-0.1-0.1-0.1-0.2c0-0.1,0-0.1,0-0.2h0c0-2.8,0-5.5,0-8.3l0-0.8h0v0l0,0h0c-0.1,0-0.2,0-0.3,0c-0.2,0-0.4,0-0.5,0
				c-0.2,0-0.3-0.1-0.5-0.2v0c-0.1-0.1-0.2-0.2-0.3-0.4h0c-0.1-0.2-0.1-0.3-0.1-0.5c0-0.2,0.1-0.3,0.2-0.5h0
				c0.1-0.1,0.2-0.2,0.4-0.3h0c0.1,0,0.2-0.1,0.2-0.1v0l0.1,0l0.1,0h0.5l0.1,0l0,0l0,0c0.3,0.1,0.5,0.2,0.7,0.5c0,0,0,0,0,0v0
				c0.7,0,1.4,0,2.1,0c0.7,0,1.4,0,2.1,0c0,0,0,0,0,0l0,0c0,0,0,0,0.1,0l0,0C493.9,326.1,494.2,326,494.5,326z"/>
		</g>
		<g class="st20">
			<path class="st21" d="M154.7,428.6c0-2.3,1.6-4.1,3.7-4.1s3.7,1.7,3.7,4.1c0,2.3-1.6,4-3.7,4S154.7,430.9,154.7,428.6z"/>
			<path class="st21" d="M166.8,403.6h6.5l7.2,14.1l2.8,6.3h0.1c-0.2-3-0.7-7-0.7-10.4v-10h6v28.5h-6.4l-7.2-14.1l-2.8-6.2h-0.1
				c0.2,3.1,0.7,6.9,0.7,10.3v10h-6v-28.5H166.8z"/>
			<path class="st21" d="M194,403.6h17.4v5.4h-11.1v5.7h9.5v5.3h-9.5v6.5h11.6v5.4H194V403.6z"/>
			<path class="st21" d="M221.5,409h-7.6v-5.4h21.6v5.4h-7.6v23h-6.3v-23H221.5z"/>
		</g>
		<g class="st20">
			<path class="st21" d="M170.6,215.3c0-12,8-19.1,17.3-19.1c4.7,0,8.5,2.2,11,4.7l-4.4,5.2c-1.9-1.7-3.8-2.8-6.5-2.8
				c-5,0-9,4.4-9,11.8c0,7.6,3.5,11.8,9,11.8c3,0,5.4-1.6,7.3-3.5l4.4,5.2c-3,3.5-7.1,5.4-12,5.4
				C178.4,234.1,170.6,227.6,170.6,215.3z"/>
			<path class="st21" d="M205.3,222.9H201v-5.2h4.7l0.8-6.1h-4.4v-5.2h5.2l1.3-9.3h4.7l-1.1,9.3h5.8l1.3-9.3h4.7l-1.1,9.3h4.4v5.2
				h-5.2l-0.8,6.1h4.7v5.2h-5.4l-1.3,10.4h-4.7l1.3-10.4h-5.8l-1.3,10.4h-4.7L205.3,222.9z M216.7,217.7l0.8-6.1h-5.8l-0.8,6.1
				H216.7z"/>
		</g>
		<circle class="st35" cx="306" cy="307.1" r="306"/>
		<circle class="st35" cx="306.8" cy="307.1" r="306"/>
	</g>
</g>
</svg>
