<?xml version="1.0" encoding="utf-8"?>
<!-- Generator: Adobe Illustrator 21.0.2, SVG Export Plug-In . SVG Version: 6.00 Build 0)  -->
<svg version="1.1" id="Layer_1" xmlns="http://www.w3.org/2000/svg" xmlns:xlink="http://www.w3.org/1999/xlink" x="0px" y="0px"
	 viewBox="0 0 612 612" style="enable-background:new 0 0 612 612;" xml:space="preserve">
<style type="text/css">
	.st0{fill:#88D6E2;}
	.st1{fill:#79CFD8;}
	.st2{fill:#FFFFFF;}
	.st3{fill:#777777;}
	.st4{fill:#6E8C61;}
	.st5{fill:none;stroke:#FFFFFF;stroke-width:5;stroke-miterlimit:10;}
	.st6{fill:#9777A8;}
	.st7{fill:#BDC3C7;}
	.st8{fill:#F29C1F;}
	.st9{fill:#546949;}
	.st10{fill:#EFF2FA;}
	.st11{fill:#E4EAF6;}
	.st12{fill:#FF5B62;}
	.st13{fill:#D2555A;}
	.st14{font-family:'SegoeUI-Semilight';}
	.st15{font-size:30px;}
	.st16{fill:#E9E8D3;}
	.st17{fill:#FCC62D;}
	.st18{fill:#D19D18;}
	.st19{fill:#E4AF18;}
	.st20{fill:#607B53;}
	.st21{fill:#666666;}
	.st22{fill:#B6B6B8;}
	.st23{fill:#919191;}
	.st24{fill:#21D0C3;}
	.st25{fill:#FAD24D;}
</style>
<circle class="st0" cx="307.2" cy="306.8" r="301.2"/>
<g>
	<path class="st1" d="M278.2,380.6c42.7,0,105.5-160.1,105.5-210.4c0-58.2-47.3-105.5-105.5-105.5S172.7,112,172.7,170.2
		C172.8,218.1,238.1,380.6,278.2,380.6z M193.8,170.2c0-46.6,37.9-84.5,84.5-84.5s84.5,37.9,84.5,84.5c0,24.2-13.5,69.5-34.5,115.3
		c-22.2,48.6-42,74.1-50,74.1c-3.9-0.3-22.7-18.4-48.7-74.2C208.1,239.3,193.8,193,193.8,170.2z"/>
	<path class="st1" d="M342.7,172c0-35.6-28.9-64.5-64.5-64.5s-64.5,28.9-64.5,64.5s28.9,64.5,64.5,64.5
		C313.8,236.4,342.7,207.5,342.7,172z M232.8,172c0-25.1,20.4-45.4,45.4-45.4c25.1,0,45.4,20.4,45.4,45.4
		c0,25.1-20.4,45.4-45.4,45.4S232.8,197,232.8,172z"/>
	<path class="st1" d="M526.6,477.3L445.4,251c-1-2.6-3-4.7-5.6-5.7l-58.3-21.4l-0.8,2.6c-2.6,8.7-5.6,17.7-8.8,26.8l-0.2,0.6
		l8.6,64.4l-43.5,13.8l-0.5,0.9c-3.5,6.2-6.9,12-10.4,17.2l-0.2,0.3c-4.5,6.8-10.1,12.8-14.5,17.9l-1.8,0.7v94.5l-65-20.6l9.3-65.1
		l-0.6-0.9c-3.9-3.7-7.8-8.3-11.8-13.5l-3.6-4.8l-11.1,83.4L140,466.4L178.6,359l47.2-18.9l-1.5-2.5c-2.3-4-4.6-8.1-6.8-12.2l-1.1-2
		l-29.3,11.7l14.8-41.3l-0.4-0.9c-2.8-6.2-5.5-12.4-8-18.6l-2.5-6l-75,209c-1.2,3.3-0.4,7,2,9.7c1.8,1.9,4.3,3,6.9,3
		c0.9,0,1.7-0.1,2.5-0.3L235,459.5l79.5,24.7c0.1,0,0.1,0.1,0.2,0.1c1.3,1,3,1.5,4.6,1.6c1.2,0.3,2.9,0.2,3.5,0c2-0.1,3.6-0.7,5-1.7
		c0.1,0,0.1-0.1,0.2-0.1l79.5-24.7l107.6,30.2c3.3,0.9,7.1-0.1,9.5-2.7C527.1,484.4,527.8,480.7,526.6,477.3z M330.9,463.5V353.9
		l52-16.6L397,442.9L330.9,463.5z M389.9,247.2l39.2,14.4l26,72.6l-55.6-15L389.9,247.2z M416,442.1l-13.8-102.7l60.6,16.3
		l39.7,110.7L416,442.1z"/>
</g>
<circle class="st2" cx="196.7" cy="132.7" r="70.2"/>
<circle class="st2" cx="197" cy="480.4" r="70.2"/>
<circle class="st2" cx="427" cy="136.9" r="70.2"/>
<g>
	<path class="st3" d="M365.8,249.9v-0.2H365H235.6h-0.7v0.2c-4.2,0.3-7.4,3.7-7.9,7.8v0.7v85.3c0,1.7,0.4,3,1.1,4.3
		c1.7,2.9,4.1,4.4,7.5,4.4h47.2v11.9h-9c-2.2,0-3.9,1.7-3.9,4c0,2.2,1.7,4,3.9,4h52.9c2.2,0,4-1.7,4-4c0-2.2-1.8-4-4-4h-9v-11.9H365
		c3.4,0,5.8-1.5,7.5-4.4c0.7-1.3,1.2-2.7,1.2-4.3v-85.3v-0.7C373.2,253.5,369.9,250.2,365.8,249.9z M365.8,258.4v85.3
		c0,0.5-0.2,0.7-0.7,0.7H235.6c-0.5,0-0.7-0.2-0.7-0.7v-85.3v-0.7h130.9V258.4L365.8,258.4z"/>
</g>
<rect x="233.2" y="257.1" class="st2" width="135.1" height="90.1"/>
<g>
	<path class="st4" d="M293,293.8l-0.4-4.1c0-0.4,0.5,0,1.1,0l0,0c0.6,0,1.1-0.3,1.1,0l0,0l-0.3,4C294.4,294.6,293,294.3,293,293.8z
		 M291.3,280.6c-3-1.3-2.7-3.4-2.7-3.4c-0.4,0.7,0.4,7.2,3.5,7.2C293.4,284.4,294.6,282.1,291.3,280.6z M291.3,276.1
		c-3-1.3-2.7-3.4-2.7-3.4c-0.4,0.7,0.4,7.2,3.5,7.2C293.4,279.8,294.6,277.6,291.3,276.1z M291.3,271.6c-3-1.3-2.7-3.4-2.7-3.4
		c-0.4,0.7,0.4,7.2,3.5,7.2C293.4,275.4,294.6,273.1,291.3,271.6z M295.4,284.4c3.1,0,3.9-6.5,3.5-7.2c0,0,0.2,2.1-2.7,3.4
		C292.8,282.1,294,284.4,295.4,284.4z M291.3,285.3c-3-1.3-2.7-3.4-2.7-3.4c-0.4,0.7,0.4,7.2,3.5,7.2
		C293.4,289.1,294.6,286.8,291.3,285.3z M295.4,289.1c3.1,0,3.9-6.5,3.5-7.2c0,0,0.2,2.1-2.7,3.4C292.8,286.8,294,289.1,295.4,289.1
		z M295.4,279.8c3.1,0,3.9-6.5,3.5-7.2c0,0,0.2,2.1-2.7,3.4C292.8,277.6,294,279.8,295.4,279.8z M295.4,275.4c3.1,0,3.9-6.5,3.5-7.2
		c0,0,0.2,2.1-2.7,3.4C292.8,273.1,294,275.4,295.4,275.4z M293.9,272c3.3,0-0.2-7-0.2-7C293.3,265.7,290.7,272,293.9,272z
		 M302.8,294.4l2-3.4l0,0c0.2-0.3-0.4-0.2-1-0.5l0,0c-0.5-0.3-0.8-0.8-1-0.4l-1.3,3.8C301.3,294.3,302.4,295.2,302.8,294.4z
		 M305.4,281.2c-2.1-2.5-1-4.3-1-4.3c-0.7,0.5-2.7,6.7,0.1,8C305.8,285.5,307.8,283.9,305.4,281.2z M307.4,277c-2.1-2.5-1-4.3-1-4.3
		c-0.7,0.5-2.7,6.7,0.1,8C307.7,281.4,309.7,279.8,307.4,277z M309.2,273c-2.1-2.4-1-4.3-1-4.3c-0.7,0.5-2.7,6.7,0.1,8
		C309.6,277.3,311.6,275.8,309.2,273z M307.6,286.3c2.8,1.3,6.2-4.2,6.2-5.1c0,0-0.7,2-3.9,2C306.2,283.2,306.3,285.7,307.6,286.3z
		 M303.5,285.4c-2.1-2.5-1-4.3-1-4.3c-0.6,0.5-2.7,6.7,0.1,8C303.8,289.8,305.8,288.2,303.5,285.4z M305.6,290.6
		c2.8,1.3,6.2-4.2,6.2-5.1c0,0-0.7,2-3.9,2C304.2,287.4,304.3,290,305.6,290.6z M309.5,282.2c2.8,1.3,6.2-4.2,6.2-5.1
		c0,0-0.7,2-3.9,2C308.1,279,308.2,281.6,309.5,282.2z M311.4,278.2c2.8,1.3,6.2-4.2,6.2-5.1c0,0-0.7,2-3.9,2
		C310,275,310.1,277.6,311.4,278.2z M311.5,274.4c3,1.4,2.8-6.4,2.8-6.4C313.6,268.5,308.5,273.1,311.5,274.4z"/>
</g>
<line class="st5" x1="173.5" y1="307.9" x2="227.2" y2="308.3"/>
<line class="st5" x1="373.6" y1="307.8" x2="430.5" y2="307.4"/>
<g>
	<path class="st6" d="M288.3,315.3l-5,5c-0.4,0.4-0.4,1,0,1.4c0.2,0.2,0.5,0.3,0.7,0.3s0.5-0.1,0.7-0.3l5-5c0.4-0.4,0.4-1,0-1.4
		S288.7,314.9,288.3,315.3z"/>
	<path class="st6" d="M297.7,315.3c-0.4-0.4-1-0.4-1.4,0s-0.4,1,0,1.4l6,6c0.2,0.2,0.5,0.3,0.7,0.3c0.3,0,0.5-0.1,0.7-0.3
		c0.4-0.4,0.4-1,0-1.4L297.7,315.3z"/>
	<path class="st6" d="M320.7,312.3c-0.4-0.4-1-0.4-1.4,0l-10,10c-0.4,0.4-0.4,1,0,1.4c0.2,0.2,0.5,0.3,0.7,0.3s0.5-0.1,0.7-0.3
		l10-10C321.1,313.3,321.1,312.7,320.7,312.3z"/>
</g>
<path class="st3" d="M273,342c-0.6,0-1-0.4-1-1v-58c0-0.6,0.4-1,1-1s1,0.4,1,1v58C274,341.6,273.6,342,273,342z"/>
<path class="st3" d="M329,340h-58c-0.6,0-1-0.4-1-1s0.4-1,1-1h58c0.6,0,1,0.4,1,1S329.6,340,329,340z"/>
<path class="st7" d="M279,311h-2c-0.6,0-1-0.4-1-1s0.4-1,1-1h2c0.6,0,1,0.4,1,1S279.6,311,279,311z"/>
<path class="st7" d="M279,307h-2c-0.6,0-1-0.4-1-1s0.4-1,1-1h2c0.6,0,1,0.4,1,1S279.6,307,279,307z"/>
<path class="st7" d="M279,303h-2c-0.6,0-1-0.4-1-1s0.4-1,1-1h2c0.6,0,1,0.4,1,1S279.6,303,279,303z"/>
<path class="st7" d="M279,299h-2c-0.6,0-1-0.4-1-1s0.4-1,1-1h2c0.6,0,1,0.4,1,1S279.6,299,279,299z"/>
<path class="st7" d="M279,295h-2c-0.6,0-1-0.4-1-1s0.4-1,1-1h2c0.6,0,1,0.4,1,1S279.6,295,279,295z"/>
<path class="st7" d="M279,291h-2c-0.6,0-1-0.4-1-1s0.4-1,1-1h2c0.6,0,1,0.4,1,1S279.6,291,279,291z"/>
<path class="st7" d="M279,287h-2c-0.6,0-1-0.4-1-1s0.4-1,1-1h2c0.6,0,1,0.4,1,1S279.6,287,279,287z"/>
<circle class="st8" cx="281" cy="325" r="5"/>
<circle class="st4" cx="293" cy="313" r="5"/>
<circle class="st4" cx="324" cy="310" r="5"/>
<circle class="st8" cx="306" cy="326" r="5"/>
<path class="st4" d="M427.2,187c-23.8,0-43.2-19.4-43.2-43.2s19.4-43.2,43.2-43.2c23.8,0,43.2,19.4,43.2,43.2S450.9,187,427.2,187z"
	/>
<path class="st9" d="M447.3,172.6c-23.8,0-43.2-19.4-43.2-43.2c0-10,3.4-19.1,9.1-26.4c-17,5.8-29.3,21.9-29.3,40.8
	c0,23.8,19.4,43.2,43.2,43.2c13.8,0,26.1-6.6,34-16.7C456.8,171.8,452.2,172.6,447.3,172.6z"/>
<path class="st10" d="M450.4,119.9H463c-0.7-1.1-1.5-2.2-2.4-3.2h-11.5c-2.5-6-5.9-10.9-9.8-14.2c-3.9-1.1-8-1.8-12.2-1.8
	s-8.3,0.6-12.2,1.8c-3.9,3.4-7.2,8.2-9.8,14.2h-11.5c-0.8,1-1.6,2.1-2.4,3.2h12.6c-2.3,6.6-3.7,14.2-3.9,22.4h-16c0,0.5,0,1.1,0,1.6
	s0,1.1,0,1.6h16c0.2,8.2,1.6,15.8,3.9,22.4h-12.6c0.7,1.1,1.5,2.2,2.4,3.2h11.5c2.5,6,5.9,10.9,9.8,14.2c3.9,1.1,8,1.8,12.2,1.8
	s8.3-0.6,12.2-1.8c3.9-3.4,7.2-8.2,9.8-14.2h11.5c0.8-1,1.6-2.1,2.4-3.2h-12.6c2.3-6.6,3.7-14.2,3.9-22.4h16c0-0.5,0-1.1,0-1.6
	s0-1.1,0-1.6h-16C454.1,134.1,452.7,126.4,450.4,119.9z M425.6,186.9c-6.9-0.8-12.9-6.8-17-15.9h17V186.9L425.6,186.9z M425.6,167.8
	h-18.3c-2.4-6.4-3.9-14.1-4-22.4h22.4v22.4H425.6z M425.6,142.3h-22.4c0.2-8.3,1.6-15.9,4-22.4h18.3L425.6,142.3L425.6,142.3z
	 M425.6,116.7h-17c4.1-9,10.2-15.1,17-15.9V116.7L425.6,116.7z M428.7,100.8c6.9,0.8,12.9,6.8,17,15.9h-17V100.8L428.7,100.8z
	 M428.7,186.9V171h17C441.7,180.1,435.6,186.1,428.7,186.9z M447.1,167.8h-18.3v-22.4h22.4C450.9,153.7,449.5,161.4,447.1,167.8z
	 M428.7,142.3v-22.4H447c2.4,6.4,3.9,14.1,4,22.4H428.7L428.7,142.3z"/>
<g>
	<path class="st11" d="M430.9,186.8c0.7-0.1,1.4-0.1,2.1-0.2c0.3,0,0.5-0.1,0.8-0.1c0.7-0.1,1.4-0.2,2.2-0.4c0.2,0,0.4-0.1,0.7-0.1
		c0.8-0.2,1.7-0.4,2.5-0.6c0.1,0,0.1,0,0.2-0.1c3.5-3.1,6.6-7.4,9.1-12.7c-0.4,0-0.8,0-1.2,0c-0.8,0-1.5,0-2.3-0.1
		c-4.1,8.2-9.8,13.6-16.3,14.3V171h6.9c-3.6-1-7-2.5-10.1-4.3v1.1h-18.3c-2.4-6.4-3.9-14.1-4-22.4h4c-0.4-1-0.8-2.1-1.1-3.2h-2.9
		c0.1-3.7,0.4-7.3,1-10.7c0-0.7-0.1-1.4-0.1-2.1c0-7.7,2.1-14.9,5.6-21.1c-1.7,2.5-3.3,5.3-4.6,8.4h-11.4c-0.3,0.3-0.6,0.7-0.8,1.1
		c-0.3,0.4-0.7,0.9-1,1.4c-0.2,0.3-0.4,0.5-0.5,0.8H404c-2.3,6.6-3.7,14.2-3.9,22.4h-15.9c0,0.5-0.1,1.1-0.1,1.6s0,1.1,0,1.6h16
		c0.2,8.2,1.6,15.8,3.9,22.4h-12.6l0,0c0.7,1.1,1.5,2.2,2.4,3.2l0,0h11.5c2.5,6,5.9,10.9,9.8,14.2c0.9,0.3,1.9,0.5,2.9,0.7h0.1
		c1,0.2,2,0.4,3,0.5h0.1c0.9,0.1,1.8,0.2,2.6,0.3c0.2,0,0.4,0,0.7,0.1c0.9,0.1,1.9,0.1,2.8,0.1c1,0,2,0,2.9-0.1
		C430.3,186.9,430.6,186.8,430.9,186.8z M425.6,186.9c-6.9-0.8-12.9-6.8-17-15.9h17V186.9L425.6,186.9z"/>
	<path class="st11" d="M461.2,170.3c-0.8,0.3-1.6,0.5-2.5,0.7h1.9C460.8,170.8,461,170.5,461.2,170.3z"/>
</g>
<path class="st12" d="M396.1,86.9c-6.7,0-12.1,5.4-12.1,12.1c0,10.4,12.1,19,12.1,19s12.1-8.6,12.1-19
	C408.2,92.3,402.8,86.9,396.1,86.9z M396.1,105.9c-3.8,0-6.9-3.1-6.9-6.9s3.1-6.9,6.9-6.9s6.9,3.1,6.9,6.9S399.9,105.9,396.1,105.9z
	"/>
<path class="st13" d="M389.2,99c0-2,0.9-3.8,2.2-5c0.8-4.2,2.6-7.1,4.7-7.1c-6.7,0-12.1,5.4-12.1,12.1c0,10.4,12.1,19,12.1,19
	s-3.6-6-4.8-14C390,102.7,389.2,100.9,389.2,99z"/>
<path class="st12" d="M465.1,121.4c-6.7,0-12.1,5.4-12.1,12.1c0,10.4,12.1,19,12.1,19s12.1-8.6,12.1-19
	C477.2,126.8,471.8,121.4,465.1,121.4z M465.1,140.4c-3.8,0-6.9-3.1-6.9-6.9c0-3.8,3.1-6.9,6.9-6.9s6.9,3.1,6.9,6.9
	S468.9,140.4,465.1,140.4z"/>
<path class="st13" d="M458.2,133.5c0-2,0.9-3.8,2.2-5c0.8-4.2,2.6-7.1,4.7-7.1c-6.7,0-12.1,5.4-12.1,12.1c0,10.4,12.1,19,12.1,19
	s-3.6-6-4.8-14C459,137.2,458.2,135.4,458.2,133.5z"/>
<path class="st12" d="M418.5,142.1c-6.7,0-12.1,5.4-12.1,12.1c0,10.4,12.1,19,12.1,19s12.1-8.6,12.1-19
	C430.6,147.5,425.2,142.1,418.5,142.1z M418.5,161.1c-3.8,0-6.9-3.1-6.9-6.9c0-3.8,3.1-6.9,6.9-6.9s6.9,3.1,6.9,6.9
	S422.3,161.1,418.5,161.1z"/>
<path class="st13" d="M411.6,154.2c0-2,0.9-3.8,2.2-5c0.8-4.2,2.6-7.1,4.7-7.1c-6.7,0-12.1,5.4-12.1,12.1c0,10.4,12.1,19,12.1,19
	s-3.6-6-4.8-14C412.4,157.9,411.6,156.2,411.6,154.2z"/>
<circle class="st2" cx="425" cy="480.4" r="70.2"/>
<circle class="st2" cx="107.5" cy="307.9" r="70.2"/>
<text transform="matrix(1 0 0 1 71.3339 360.5701)" class="st8 st14 st15">Buyer </text>
<g id="XMLID_78_">
	<path id="XMLID_127_" class="st4" d="M105.3,316v-4v-4v-4v-4c0-3.3,4.3-6.1,9.6-6.1c1.2,0,2.4,0.2,3.5,0.4v-29.7H86.1V321h23.5
		C107,319.9,105.3,318.1,105.3,316"/>
	<path id="XMLID_126_" class="st16" d="M91.1,285.8c2.3-3.7,6.4-6.2,11.1-6.2s8.8,2.5,11.1,6.2v-10.2c-0.2,0-0.3,0-0.5,0
		c-3.1,0-5.6-2.5-5.6-5.6c0-0.2,0-0.3,0-0.5h-10c0,0.2,0,0.3,0,0.5c0,3.1-2.5,5.6-5.6,5.6c-0.2,0-0.3,0-0.5,0V285.8z"/>
	<path id="XMLID_125_" class="st16" d="M105.3,307.9v-2.4c-1,0.2-2,0.4-3,0.4c-4.7,0-8.8-2.5-11.1-6.2v10.2c0.2,0,0.3,0,0.5,0
		c3.1,0,5.6,2.5,5.6,5.6c0,0.2,0,0.3,0,0.5h8.1v-4L105.3,307.9L105.3,307.9z"/>
	<path id="XMLID_124_" class="st16" d="M110.3,270c0-1.4,1.1-2.5,2.5-2.5s2.5,1.1,2.5,2.5s-1.1,2.5-2.5,2.5S110.3,271.4,110.3,270"
		/>
	<path id="XMLID_123_" class="st16" d="M89.1,270c0-1.4,1.1-2.5,2.5-2.5s2.5,1.1,2.5,2.5s-1.1,2.5-2.5,2.5S89.1,271.4,89.1,270"/>
	<path id="XMLID_122_" class="st16" d="M89.1,315.5c0-1.4,1.1-2.5,2.5-2.5s2.5,1.1,2.5,2.5S93,318,91.6,318S89.1,316.8,89.1,315.5"
		/>
	<path id="XMLID_121_" class="st17" d="M124.4,299.8c0,3.3-4.3,6.1-9.6,6.1s-9.6-2.7-9.6-6.1s4.3-6.1,9.6-6.1
		S124.4,296.5,124.4,299.8"/>
	<path id="XMLID_120_" class="st18" d="M114.9,318c-5.3,0-9.6-2.7-9.6-6.1v4c0,3.3,4.3,6.1,9.6,6.1s9.6-2.7,9.6-6.1v-4
		C124.4,315.3,120.1,318,114.9,318"/>
	<path id="XMLID_119_" class="st19" d="M114.9,313.9c-5.3,0-9.6-2.7-9.6-6.1v4c0,3.3,4.3,6.1,9.6,6.1s9.6-2.7,9.6-6.1v-4
		C124.4,311.2,120.1,313.9,114.9,313.9"/>
	<path id="XMLID_118_" class="st18" d="M114.9,309.9c-5.3,0-9.6-2.7-9.6-6.1v4c0,3.3,4.3,6.1,9.6,6.1s9.6-2.7,9.6-6.1v-4
		C124.4,307.2,120.1,309.9,114.9,309.9"/>
	<path id="XMLID_117_" class="st19" d="M114.9,305.9c-5.3,0-9.6-2.7-9.6-6.1v4c0,3.3,4.3,6.1,9.6,6.1s9.6-2.7,9.6-6.1v-4
		C124.4,303.1,120.1,305.9,114.9,305.9"/>
	<path id="XMLID_116_" class="st17" d="M137.6,287.7c0,3.3-4.3,6.1-9.6,6.1s-9.6-2.7-9.6-6.1s4.3-6.1,9.6-6.1
		C133.3,281.6,137.6,284.3,137.6,287.7"/>
	<path id="XMLID_115_" class="st16" d="M108.2,295.4c2.1-3.8,0.1-7.8,0.1-7.8c-0.9-0.3-3.4,0.5-3.7,1.3c-0.9-0.8-2.1-1.3-3.4-1.3
		c-1.6,0-2.3,1.7-2.8,1.9c-0.2,0.1-0.5,0.1-0.8,0.1c-0.8,0-1.5-0.4-2-0.9l-3.8-4.1c-1.8,2.2-2.8,5-2.8,8.1s1.1,5.9,2.8,8.1l3.7-4.1
		c0.6-0.7,1.5-1.1,2.4-0.9c0.1,0,0.3,0.1,0.4,0.1c0.3,0.1,1.9,1.8,2.3,1.8c1.1,2.5,3.4,1.5,5,0.4C106.1,297.1,107,296.2,108.2,295.4
		"/>
	<path id="XMLID_114_" class="st19" d="M128,318c-1.4,0-2.7-0.2-3.8-0.5c-0.5,1.1-1.4,2.1-2.7,2.9c1.7,1,4,1.6,6.6,1.6
		c5.3,0,9.6-2.7,9.6-6.1v-4C137.6,315.3,133.3,318,128,318"/>
	<path id="XMLID_113_" class="st18" d="M128,313.9c-1.2,0-2.4-0.2-3.5-0.4v2.4c0,0.5-0.1,1-0.3,1.5c1.2,0.3,2.5,0.5,3.8,0.5
		c5.3,0,9.6-2.7,9.6-6.1v-4C137.6,311.2,133.3,313.9,128,313.9"/>
	<path id="XMLID_112_" class="st19" d="M128,309.9c-1.2,0-2.4-0.2-3.5-0.4v2.4v1.6c1.1,0.3,2.3,0.4,3.5,0.4c5.3,0,9.6-2.7,9.6-6.1
		v-4C137.6,307.2,133.3,309.9,128,309.9"/>
	<path id="XMLID_111_" class="st18" d="M128,305.9c-1.2,0-2.4-0.2-3.5-0.4v2.4v1.6c1.1,0.3,2.3,0.4,3.5,0.4c5.3,0,9.6-2.7,9.6-6.1
		v-4C137.6,303.1,133.3,305.9,128,305.9"/>
	<path id="XMLID_110_" class="st19" d="M128,301.8c-1.2,0-2.4-0.2-3.5-0.4v2.4v1.6c1.1,0.3,2.3,0.4,3.5,0.4c5.3,0,9.6-2.7,9.6-6.1
		v-4C137.6,299.1,133.3,301.8,128,301.8"/>
	<path id="XMLID_109_" class="st18" d="M128,297.8c-1.7,0-3.2-0.3-4.6-0.7c0.7,0.8,1.1,1.8,1.1,2.8v1.6c1.1,0.3,2.3,0.4,3.5,0.4
		c5.3,0,9.6-2.7,9.6-6.1v-4C137.6,295.1,133.3,297.8,128,297.8"/>
	<path id="XMLID_108_" class="st19" d="M128,293.7c-5.3,0-9.6-2.7-9.6-6.1v4c0,1,0.4,1.9,1.1,2.8c1.7,0.6,3.1,1.5,3.9,2.6
		c1.4,0.5,2.9,0.7,4.6,0.7c5.3,0,9.6-2.7,9.6-6.1v-4C137.6,291,133.3,293.7,128,293.7"/>
	<path id="XMLID_107_" class="st20" d="M127.5,281.6v-17.2h-3V282C125.4,281.8,126.4,281.7,127.5,281.6"/>
	<path id="XMLID_106_" class="st9" d="M124.4,282.1v-17.6h-3v18.8C122.3,282.8,123.3,282.3,124.4,282.1"/>
	<path id="XMLID_77_" class="st20" d="M121.4,283.3v-18.8h-3v23.2C118.4,285.9,119.6,284.4,121.4,283.3"/>
</g>
<circle class="st2" cx="498.3" cy="307.9" r="70.2"/>
<text transform="matrix(1 0 0 1 464.5919 360.5701)" class="st8 st14 st15">Seller</text>
<g>
	<path class="st20" d="M539.6,300.1L539.6,300.1c-0.2,5.9-2.2,12.4-5.3,18.3c0,0-7.4,15-30.6,15c-23.2,0-30.8-14.9-30.8-14.9
		c-3.1-6-5-12.3-5.2-18.4l0,0c0-0.2,0-0.3,0-0.5c0-2.8,1.8-5.5,4.8-7.8l3.2,2.1c-2,1.3-3.2,2.8-3.2,4.4c0,5.6,13.9,10.2,31.1,10.2
		s31.1-4.6,31.1-10.2c0-3.9-6.7-7.3-16.5-9v-4.1c12.6,2.5,21.3,7.9,21.3,14.4C539.7,299.8,539.7,300,539.6,300.1z M479.6,276
		c-0.1,1-0.3,2.5,0.9,4.6c1.5,2.5,3.3,3.4,3.9,3.8c-0.1-0.6,0.1-2.6-1.3-4.9c-1.2-2.1-2.5-3.1-3.2-3.8c-2.1-3.1-4.6-5.6-6.4-7.5
		l-4.4-4.6c0,0,1.6,1.8,4.2,4.7C475.2,270.2,477.5,272.8,479.6,276z M490.7,300.2c0.9,0.9,2.1,2.3,4.8,3.8c3,1.7,5.5,1.7,6.3,1.8
		c-0.5-0.8-1.4-3.2-4.7-5c-2.7-1.5-4.7-1.2-5.9-1c-4.1-2.4-7.5-4.8-10.3-6.5c-4-2.5-6.6-3.7-6.6-3.7s2.5,1.4,6.4,4
		C483.3,295.3,486.7,297.8,490.7,300.2z M493.1,287.3c-0.3,1.1-0.8,2.9,0.3,5.5c1.2,3.2,3.3,4.5,3.9,5.1c0-0.8,0.5-3-0.6-6
		c-1-2.7-2.4-4-3.1-5c-2-4-4.5-7.3-6.3-9.9l-4.5-6.1l4.2,6.2C488.7,279.8,491.1,283.2,493.1,287.3z M485.5,293.7
		c0.9,0.8,2,2.1,4.5,3.5c2.8,1.5,5.1,1.4,5.9,1.6c-0.5-0.7-1.4-2.9-4.5-4.6c-2.5-1.3-4.4-1-5.5-0.8c-3.8-2.1-7.1-4.3-9.7-5.9
		c-3.8-2.2-6.2-3.4-6.2-3.4s2.4,1.3,6.1,3.6C478.6,289.3,481.7,291.6,485.5,293.7z M480.1,287.4c0.8,0.7,1.9,2,4.3,3.1
		c2.6,1.3,4.8,1.2,5.5,1.4c-0.4-0.6-1.4-2.7-4.2-4.1c-2.4-1.2-4.1-0.9-5.1-0.7c-3.6-1.9-6.6-3.9-9.1-5.3c-3.5-2-5.8-3.1-5.8-3.1
		s2.2,1.2,5.7,3.3C473.6,283.4,476.6,285.4,480.1,287.4z M474.6,278.1c1.6,1.4,3.1,1.5,3.9,1.8c-0.2-0.7,0-2.4-1.8-4
		c-1.5-1.3-3.1-1.4-3.9-1.5c-6.3-5.4-11.9-8.9-13.2-9.7l-0.3-0.2c0,0,6.1,4.1,13.4,10.5C472.9,275.7,473.4,277,474.6,278.1z
		 M474.5,281.1c0.8,0.7,1.8,1.8,4,2.8c2.4,1.2,4.4,1.1,5.1,1.2c-0.4-0.6-1.3-2.4-4-3.7c-2.2-1-3.8-0.8-4.7-0.6
		c-3.3-1.7-6.1-3.5-8.4-4.8c-3.3-1.9-5.4-2.8-5.4-2.8s2.1,1,5.2,3C468.5,277.5,471.3,279.3,474.5,281.1z M486.5,281.4
		c-0.2,1-0.5,2.7,0.6,5c1.4,2.9,3.3,3.9,4,4.5c-0.1-0.7,0.3-2.8-1-5.5c-1.1-2.4-2.4-3.5-3.2-4.4c-2.1-3.5-4.5-6.4-6.4-8.7L476,267
		l4.3,5.5C482.1,274.9,484.5,277.8,486.5,281.4z M511.4,287.5c-0.7,0.7-1.8,1.9-2.2,4.3c-0.4,2.9,0.5,4.8,0.7,5.5
		c0.3-0.6,1.7-2,2.1-4.8c0.4-2.5-0.1-4-0.2-5.1c0.2-3.9-0.2-7.4-0.6-10.1c-0.5-4-0.8-6.5-0.8-6.5l0.6,6.5
		C511.3,280.1,511.6,283.6,511.4,287.5z M509.1,280.9c-0.6,0.7-1.6,1.8-1.8,4.1c-0.2,2.7,0.8,4.4,1,5c0.3-0.6,1.5-2,1.7-4.6
		c0.2-2.3-0.3-3.7-0.5-4.7c0-3.6-0.6-6.8-1.1-9.3l-1.1-5.9l0.9,5.9C508.6,274.1,509.1,277.4,509.1,280.9z M506.4,274.5
		c-0.5,0.7-1.3,1.8-1.3,3.9c0,2.5,1,4,1.3,4.6c0.2-0.5,1.2-2,1.2-4.3c0-2.1-0.5-3.4-0.8-4.3c-0.3-3.3-1-6.2-1.6-8.5l-1.3-5.4
		l1.1,5.4C505.6,268.2,506.2,271.2,506.4,274.5z M511.1,304.6c0.4-0.6,2-2,2.7-5c0.6-2.6,0.2-4.3,0.1-5.5c0.5-4.1,0.2-8,0-10.9
		c-0.3-4.3-0.5-7-0.5-7l0.2,7c0.1,3,0.3,6.9-0.3,11c-0.8,0.7-2.1,1.9-2.6,4.4C510,301.7,510.9,303.8,511.1,304.6z M497.9,270.3
		c0.3,0.7,0.7,1.9,1.9,3.4c1.3,1.7,2.8,2.2,3.3,2.5c-0.1-0.6-0.1-2.2-1.5-4c-1.2-1.5-2.4-1.8-3.2-2c-1.8-2.4-3.2-4.6-4.4-6.3
		c-1.7-2.5-2.9-3.8-2.9-3.8s1.1,1.4,2.7,3.9C494.8,265.6,496.2,267.9,497.9,270.3z M499,268.1c0.6,1.6,1.7,2.1,2.2,2.6
		c0.1-0.6,0.8-1.8,0.1-3.5c-0.6-1.5-1.7-2.1-2.3-2.4c-2.7-6.1-5.5-10.5-6.1-11.5l-0.1-0.2c0,0,3,5,5.9,12.1
		C498.7,265.8,498.5,266.9,499,268.1z M501.7,280.4c1.4,1.8,3,2.5,3.5,2.8c-0.1-0.6,0-2.4-1.6-4.4c-1.3-1.6-2.6-2-3.5-2.2
		c-1.9-2.6-3.4-5.1-4.7-6.9c-1.8-2.7-3.1-4.2-3.1-4.2s1.2,1.6,2.9,4.3c1.2,1.9,2.6,4.3,4.5,6.9C500.1,277.5,500.4,278.8,501.7,280.4
		z M503.4,268.2c-0.4,0.7-1.1,1.7-1,3.6c0.2,2.3,1.2,3.6,1.5,4.1c0.2-0.5,1-1.9,0.8-4c-0.1-1.9-0.7-3.1-1-3.9c-0.5-3-1.3-5.6-2-7.6
		l-1.6-4.8c0,0,0.5,1.9,1.4,4.9C502.2,262.5,503,265.2,503.4,268.2z M501.4,283.2c0.4,0.9,0.7,2.2,2,4c1.5,2,3.2,2.7,3.7,3.1
		c-0.1-0.7,0-2.6-1.6-4.8c-1.4-1.8-2.8-2.2-3.7-2.4c-2-2.8-3.6-5.5-4.9-7.5c-1.9-2.9-3.3-4.5-3.3-4.5s1.3,1.7,3.1,4.7
		C497.9,277.7,499.4,280.3,501.4,283.2z M481.9,300.9c0,0,2.2,1.3,5.7,3.7c0.2,0.1,0.5,0.1,0.7,0.2
		C484.4,302.2,481.9,300.9,481.9,300.9z M509.6,305.8c-0.5-0.8-1.1-1.4-1.6-1.9c-0.2-0.5-0.4-1-0.6-1.4c1.2,1.2,2.3,1.8,2.7,2.1
		c0-0.1,0-0.1,0-0.2c0.1,0.5,0.3,1,0.4,1.4c0.2,0,0.4,0,0.7-0.1c-0.4-1.4-0.9-2.7-1.4-4c-0.2-0.7-0.5-1.4-0.9-2.2
		c-0.4-1-0.9-2-1.3-2.9c0.5,0.4,1,0.6,1.2,0.8c-0.1-0.7,0.1-2.8-1.6-5.3c-1-1.4-2.1-2-3-2.4l-2.7-5.3c0,0,0.9,1.9,2.4,5.2
		c-0.2-0.1-0.4-0.1-0.6-0.2c-2.1-3.1-3.8-6-5.2-8.2c-2-3.1-3.5-4.9-3.4-4.9c0,0,1.3,1.9,3.2,5c1.3,2.2,2.9,5.1,4.9,8.2
		c0.4,1,0.7,2.4,2.1,4.4c0.7,0.9,1.3,1.6,2,2.1c0.2,0.5,0.5,1.1,0.7,1.7c-1.2-1.2-2.4-1.6-3.2-1.8c-0.2-0.4-0.4-0.7-0.7-1.1
		c-1.4-2.9-2.8-5.5-4-7.6c-2.7-4.7-4.4-7.6-4.4-7.6l4.1,7.7c0.3,0.6,0.6,1.2,1,1.8c-0.4-0.8-0.9-1.5-1.3-2.2
		c-2.1-3.4-3.6-5.3-3.6-5.3s1.4,2,3.4,5.4c1.2,2,2.5,4.6,4.2,7.4c0.7,1.6,1.4,3.4,2,5.2c-0.2,0.4-0.4,0.8-0.5,1.4
		c-1.8-3.2-3.3-6.1-4.7-8.3c-0.4-0.8-0.8-1.4-1.2-2c-1.7-3.5-3.6-6.5-5.2-8.9c-2.7-4.2-4.5-6.8-4.5-6.8l4.2,6.9
		c1.8,3,4.2,6.8,6,11.2c-0.4,1.2-1,3-0.1,5.9c1.1,3.5,3.2,5.1,3.9,5.8c0.1-0.8,0.7-2.9-0.1-5.9c0.5,0.9,1,1.8,1.5,2.8
		c-0.2,1.1-0.3,2.4,0.1,4.2C506.2,305.9,508,305.8,509.6,305.8C509.7,305.9,509.6,305.8,509.6,305.8z M485.1,299.3
		c-4.2-2.7-7-4.1-7-4.1s2.7,1.5,6.8,4.3c2.4,1.6,5.3,3.8,8.7,6.1c0.4,0.1,0.8,0.1,1.3,0.1C491.1,303.3,487.8,301,485.1,299.3z
		 M515.6,300.9c0.8-4.4,0.7-8.5,0.7-11.7l-0.2-7.5c0,0-0.1,2.9-0.1,7.5c-0.1,3.2-0.1,7.4-1,11.8c-0.9,0.7-2.3,1.9-3.1,4.5
		c0,0.1,0,0.2-0.1,0.3c1.2-0.1,2.4-0.3,3.5-0.4C515.8,303.4,515.6,301.9,515.6,300.9z"/>
</g>
<path class="st17" d="M159.2,148.7V159c0,0.2,0.1,0.4,0.1,0.6c1.5,6.1,14.7,10.7,31.1,10.7s29.6-4.5,31.1-10.6
	c0.1-0.2,0.2-0.4,0.2-0.6v-10.2c-5.2,3.6-15.8,6.5-31.3,6.5C175.1,155.2,164.4,152.4,159.2,148.7z"/>
<path class="st4" d="M225.5,157.7c0,0.2-0.1,0.5-0.2,0.7c-0.2,0.7-0.5,1.4-1,2.1c5.4-1.9,9-4.5,9.7-7.5c0.1-0.2,0.2-0.4,0.2-0.6
	v-10.3l-8.8,4.1v11.5H225.5z"/>
<path class="st17" d="M193.8,140.2c-1.1,0-2.2,0.1-3.3,0.1s-2.2,0-3.3-0.1c-9.2-0.3-16.5-1.5-21.8-3.4c-2.5-0.8-4.6-1.8-6.2-2.9v8.9
	v0.6v0.6v1.6c3.6,3.7,15.5,7.1,31.3,7.1s27.7-3.4,31.3-7.1V144v-0.6v-0.6v-8.9c-1.6,1.1-3.8,2.1-6.3,3
	C210.2,138.6,202.9,139.9,193.8,140.2z"/>
<path class="st4" d="M224.2,131.5v10.6v0.7v0.7v0.3c4.8-1.3,8.3-3,10-4.7v-1.6v-0.6v-0.6v-8.9c-1.6,1.1-3.8,2.1-6.3,3L224.2,131.5z"
	/>
<path class="st17" d="M159.2,118.9v8.9v0.6v0.6v1.6c3.3,3.4,13.8,6.6,27.9,7.1c0.1,0,0.3,0,0.4,0c0.4,0,0.8,0,1.2,0
	c0.6,0,1.1,0,1.7,0s1.2,0,1.7,0c0.4,0,0.8,0,1.2,0c0.1,0,0.3,0,0.4,0c14.1-0.4,24.6-3.6,27.9-7.1V129v-0.6v-0.6v-8.9
	c-6.1,4.2-18.9,6.4-31.3,6.4C178.2,125.3,165.3,123.1,159.2,118.9z"/>
<path class="st17" d="M190.5,101.8c-18.8,0-29.6,5.3-31.1,10.6c-0.1,0.2-0.2,0.4-0.2,0.6v0.6v2.3c3.5,3.7,15.4,7.1,31.3,7.1
	s27.7-3.4,31.3-7.1v-2.3V113c0-0.2-0.1-0.4-0.2-0.6C220.2,107.1,209.4,101.8,190.5,101.8z"/>
<path class="st4" d="M224.2,125.8v0.7v0.8v1.4c4.8-1.3,8.3-3,10-4.7v-1.6v-0.6v-0.6v-8.9c-2.4,1.7-5.9,3-10,4V125.8z"/>
<path class="st4" d="M234.1,105.9c-1.4-5.4-12.2-10.7-31.1-10.7c-12.7,0-21.7,2.4-26.7,5.6c4.4-0.9,9.5-1.5,15.4-1.5
	c19.6,0,30.9,5.9,32.3,11.9c0.1,0.2,0.2,0.4,0.2,0.6v0.7v1.4c4.9-1.3,8.3-2.9,10-4.7v-2.3v-0.6C234.2,106.3,234.2,106.1,234.1,105.9
	z"/>
<path class="st4" d="M229.3,468.4l-6.3-6.5l1.3-9c0.2-1.4-0.7-2.7-2.1-2.9l-8.9-1.6l-4.2-8c-0.6-1.2-2.2-1.7-3.4-1.1l-8.1,4l-8.1-4
	c-1.2-0.6-2.7-0.1-3.4,1.1l-4.2,8L173,450c-1.4,0.2-2.3,1.5-2.1,2.9l1.3,9l-6.3,6.5c-1,1-1,2.6,0,3.6l6.3,6.5l-1.3,9
	c-0.2,1.4,0.7,2.6,2.1,2.9l7.1,1.3v27.8c0,0.9,0.5,1.7,1.2,2.2c0.4,0.3,0.9,0.4,1.4,0.4c0.4,0,0.8-0.1,1.1-0.3l13.8-6.9l13.8,6.9
	c0.8,0.4,1.7,0.4,2.5-0.1s1.2-1.3,1.2-2.2v-27.8l7.1-1.3c1.4-0.2,2.3-1.5,2.1-2.9l-1.3-9l6.3-6.5C230.2,471,230.2,469.4,229.3,468.4
	z M198.6,509.6c-0.7-0.4-1.6-0.4-2.3,0l-11.3,5.6v-17l0.9,1.7c0.6,1.2,2.2,1.7,3.4,1.1l8.1-4l8.1,4c0.4,0.2,0.7,0.3,1.1,0.3
	c0.9,0,1.8-0.5,2.3-1.4l0.9-1.7v17L198.6,509.6z M218.4,475.8c-0.6,0.6-0.8,1.4-0.7,2.1l1.1,7.8l-7.7,1.4c-0.8,0.1-1.5,0.6-1.8,1.3
	l-3.7,6.9l-7-3.4c-0.4-0.2-0.7-0.3-1.1-0.3s-0.8,0.1-1.1,0.3l-7,3.4l-3.7-6.9c-0.4-0.7-1-1.2-1.8-1.3l-7.7-1.4l1.1-7.8
	c0.1-0.8-0.1-1.6-0.7-2.1l-5.4-5.6l5.4-5.6c0.6-0.6,0.8-1.4,0.7-2.1l-1.1-7.8l7.7-1.4c0.8-0.1,1.5-0.6,1.8-1.3l3.7-6.9l7,3.4
	c0.7,0.3,1.5,0.3,2.3,0l7-3.4l3.7,6.9c0.4,0.7,1,1.2,1.8,1.3l7.7,1.4l-1.1,7.8c-0.1,0.8,0.1,1.6,0.7,2.1l5.4,5.6L218.4,475.8z"/>
<path class="st4" d="M197.4,452.6c-9.7,0-17.6,7.9-17.6,17.6s7.9,17.6,17.6,17.6c9.7,0,17.6-7.9,17.6-17.6S207.1,452.6,197.4,452.6z
	 M197.4,482.6c-6.9,0-12.4-5.6-12.4-12.4c0-6.9,5.6-12.4,12.4-12.4c6.9,0,12.4,5.6,12.4,12.4C209.9,477,204.3,482.6,197.4,482.6z"/>
<path class="st12" d="M202.7,463.7l-7.6,7.6l-2.9-2.9c-1-1-2.6-1-3.6,0s-1,2.6,0,3.6l4.7,4.7c0.5,0.5,1.2,0.8,1.8,0.8
	c0.7,0,1.3-0.3,1.8-0.8l9.4-9.4c1-1,1-2.6,0-3.6C205.3,462.7,203.7,462.7,202.7,463.7z"/>
<path class="st21" d="M379.1,448.5h86.5c2.8,0,5.2,2.3,5.2,5.2V507h-96.9v-53.3C373.9,450.9,376.2,448.5,379.1,448.5L379.1,448.5z"
	/>
<path class="st2" d="M377.4,503.5h89.8v-49.8c0-0.9-0.8-1.7-1.7-1.7H379c-0.9,0-1.7,0.8-1.7,1.7v49.8H377.4z"/>
<path class="st22" d="M366.7,507H478v3c0,1.6-1.3,3-3,3H369.7c-1.6,0-3-1.3-3-3V507L366.7,507z"/>
<path class="st23" d="M411.7,507.9H433l-2.3,1.5H414L411.7,507.9L411.7,507.9z"/>
<path class="st24" d="M444.8,456.6c1.3,0,0.8,0.5,1.5,0.7c0.5,0.2,0.2-0.1,0.8-0.1c0.2,0,0.4,0,0.6,0c0.5,0,0.3-0.1,0.4-0.2
	c0.4-0.2,1.8-0.2,2.1,0c0.3,0.1,0.3,0.2,0.8,0.3c0.7,0.1,1.4-0.1,2,0.2c0.4,0.2,0.2,0.3,0.8,0.3c0.5,0,1-0.1,1.4,0
	c0.5,0.1,0.2,0,0.8-0.1c0.2,0,0.3,0,0.5,0.1c0.4,0.1,0.3,0.2,0.9,0.2c1-0.1,1.7,0.4,2.6,0.6c0.6,0.1,1.3,0,1.2,0.7
	c-0.7,0.1-1.2-0.5-1.8-0.1c0,0.6,0.4,0.2,0.7,0.7H460c-0.5,0.1-0.7,0.3-1.1,0.7c-0.5,0-0.8-0.1-1.3,0.2c-0.1,0.8,0.9,0.6,0.8,1.8
	c0,0.2,0,0.6,0,0.9c-0.4,0-1.5-1.2-1.7-1.5c-0.4-0.6,0.7-1.9,0.1-1.9c-0.2,0-0.1,0.1-0.3,0.4c-0.6,0-0.3-0.5-1.1-0.2
	c-0.2,0.7,0.3,0.6-0.1,0.8c-0.3,0.2-0.6-0.1-0.9-0.1c-0.1,0-1.7,0.1-1.8,0.1c-0.2,0.2-0.5,1.1-0.6,1.3c0.5,0.3,0.9,0.2,1.1,0.3
	c0.3,0,0.4,0.2,0.6,0.2c0.6,0.2,0-0.2,0.5,0c0.4,0.4,0.8,0.8,1.1,1.2c-0.1,0.2-0.1,0.3-0.2,0.5c-0.4-0.3-0.5-0.9-1-1.1
	c-0.1,0.7,0.6,0.4,0.2,1.9c-0.3,1.3-0.6,0.8-1.1,1c-0.1,0.1-0.5,1-0.5,1.1c0.4,0.4,0.9,0.6,0.9,1.4c-0.2,0.1-0.4,0.2-0.7,0.2
	c-0.4-1.4-0.2-0.7-0.7-1.1c-0.4-0.4,0.1-0.9-1.1-0.4c-0.2-0.3-0.1-0.2-0.2-0.5c-0.3,0-0.7,0.4-0.8,0.7c0.3,0.1,0.5,0.3,0.6,0.3
	c0.3,0,0.4-0.2,0.7,0.1c-0.2,0.4-0.3,0.3-0.5,0.7c0.3,0.5,0.8,0.8,0.9,1.4c0,0,0,0,0,0.1c0.1,0.3,0.2,0.1,0.2,0.5
	c0,0.3-0.1,0.5-0.3,0.8c-0.6,1.5-1.4,1.3-2.5,1.8c0,0.4,0.4,1.1-0.4,0.9c-0.1-0.7,0.3-0.3,0.2-1c-0.5-0.2-0.8,0.1-1.1,0.6
	c0.2,1,1.4,1.1,1.1,2.6c-0.4,0.3-0.7,0.6-1.1,0.9c-0.3-0.2,0-0.1-0.3-0.4c-0.3-0.4-0.7-0.7-1.1-1c0,0.1-0.1,0.1-0.1,0.2
	c-0.1,0.3-0.3,0.7-0.2,1c0,0.2,0.3,0.8,0.5,0.9c0.3,0.3,0.5,0.3,0.6,0.7c0,0.1,0.2,1.2,0.2,1.2c-1.1-0.4-0.8-1.1-1.2-1.8
	c-0.2-0.3-0.2-0.2-0.4-0.5c0-0.6,0.1-1,0-1.6c-0.1-0.3-0.3-0.8-0.3-1.2c-0.4,0.1-0.7,0.6-0.8,0.1c0-0.1,0-0.2,0-0.3
	c-0.2-1-0.6-0.7-0.9-1.7c-0.5,0.2-0.6,0.2-1.2,0.3l0,0l0,0c-0.3,0.3,0,0.2-0.4,0.6c-0.5,0.4-0.9,1-1.5,1.4c-0.1,0.6,0.1,0.7-0.1,1.5
	c-0.1,0.3-0.4,1-0.7,0.9c-0.1,0-0.6-1.2-0.7-1.5c-0.2-0.5-0.4-1-0.6-1.6c-0.1-0.3-0.1-1-0.2-1.2c-0.4,0.1-0.4,0.3-0.7,0
	c-0.3-0.2-0.1-0.3-0.3-0.6c-0.3-0.3-0.6-0.5-0.9-0.8c-0.2-0.1-1.1,0.1-1.5,0c-0.7-0.1-0.8,0-1.2-0.6c-0.7,0-0.7,0.3-1.4-0.3
	c-0.5-0.4-0.4-1-1.1-0.7c0,0.6,0.3,0.7,0.5,0.9c0.2,0.2,0.4,0.3,0.5,0.6l0.1,0.3c0.7,0,0.8-0.3,1.2-0.5c0.4,0.3,0,0.4,0.5,0.6
	c0.4,0.2,0.3,0.1,0.6,0.4c0.1,0.4-0.9,1.6-1.2,1.8c-0.3,0.2-0.4,0.1-0.6,0.3c-0.4,0.3,0,0.2-0.6,0.5c-0.7,0.2-1.3,0.7-2,0.8
	c-0.1-0.4-0.3-0.8-0.4-1.2c-0.4-1.4-0.4-0.8-0.9-1.6c-0.2-0.3-0.1-0.5-0.3-0.8c-0.1-0.2-0.2-0.3-0.4-0.5c-0.2-0.4-0.4-1-0.9-0.9
	l-0.2-1.1c0.1,0,0.1,0,0.2,0c0.1-0.2,0.8-1.9-0.1-1.7c-0.3,0.1-0.1,0.2-0.5,0.1s0-0.2-0.5-0.1c-0.4,0.1-1,0.4-1.3-0.9
	c-0.1-0.5-0.4-0.9-0.9-0.2c0.1,0.2,0.2,0.3,0.4,0.5c0,0.1-0.2,0.2-0.2,0.3c-0.3,0.3,0.1,0.2-0.4,0.2c-0.3-0.2-0.2-0.4-0.5-0.8
	c-0.4-0.6-0.2-0.3-0.4-1c-0.2-0.2-0.5-0.3-0.7-0.4l0,0l0,0c-0.1,0-0.1-0.1-0.2-0.1c-0.4-0.3-0.5-0.6-0.9-0.6c0,0.3,0,0.3,0.2,0.5
	c0.6,0.7,0.4,0.5,0.9,0.7l0,0l0,0c0.1,0.1,0.2,0.1,0.4,0.3c-0.6,0.5,0,0.6-0.4,0.7l0,0l0,0l0,0h-0.1c-0.1-0.3,0.1-0.2-0.2-0.6
	c-0.2-0.2-0.3-0.3-0.6-0.4c-0.7-0.3-0.6-0.6-1-1c-0.5,0-0.4,0.2-0.7,0.3c-0.4,0.2-0.3,0-0.8,0c-0.4,0.7,0.2,0.1-0.5,0.7
	c-0.8,0.6-0.1,1.3-1.5,1.5c-0.1,0-0.1,0-0.2,0c-0.2,0.1-0.1,0-0.2,0.1h-0.2l0,0c0-0.3-0.4-0.3-0.7-0.3c-0.2-0.6-0.2-0.5,0-1
	c0.1-0.3,0-0.5,0.1-0.8c0.2-0.8,1.6,0,1.9-0.3c0.2-0.3,0.2-0.7,0-1s-0.5-0.3-0.7-0.6c0.3-0.2,0.1,0,0.4-0.1s0.3-0.2,0.7-0.2
	c0.4-0.1,0.6-0.4,0.9-0.6c0.5-0.3,0.3-0.6,0.9-0.7c1-0.2,0.3-0.1,0.4-1c0.1-0.1,0.3-0.1,0.4-0.2c0.3,0.4-0.1,0.2,0.3,0.5
	c0.1-0.1,0.2-0.1,0.3-0.2c-0.1-0.4-0.3-0.3-0.4-0.9c-0.5,0.1-0.7,0.5-1,0.3c-0.4-0.1-0.4-0.7-0.4-1.1c0.1-0.3,0.8-0.5,1.1-0.6
	c0.4-0.1,0.4-0.4,0.8-0.8c0.5-0.5,0.1,0,0.4-0.7c0.6,0,0.3,0,0.6-0.2l0,0l0,0l0,0c0.2-0.1,0.5-0.1,0.7-0.2c1-0.3,1.4-0.2,2.1,0.1
	c0.5,0.2,2.2,0.2,2.3,0.9c-0.4,0.4-0.8,0.1-1.3,0.1c0.1,0.5,0.1,0.5,0.6,0.7c0.1-0.2,0-0.2,0.1-0.3c0.2,0,0.3,0.1,0.5,0.1
	c0.2-0.5,0.3-0.5,0.9-0.5c-0.1-0.4-0.2-0.3,0-0.5c0.6,0.1,0.1,0,0.4,0.4c0.4,0,0.8-0.5,1.3-0.5c0.3,0,0.3,0.1,0.8,0
	c0.4,0,0.4-0.2,0.8,0c0.1-0.3,0-0.2,0.3-0.3c0.5-0.1,1,0.2,1.5,0.3c-0.4-0.5-0.7-0.4-0.3-1.1c0.6-0.1,0.6,0,0.9,0.4
	c0.2-0.1,0.2-0.2,0.3-0.2c0.3-0.1,0.4,0.2,0.9-0.2c0.4-0.2-0.2-0.1,0.4-0.2c0.3-0.1,0.3,0,0.5-0.1c0.5-0.2,1-0.4,1.5-0.6
	c0.6,0,0.3,0.2,0.9-0.1c0.9-0.3,1.1,0,1.8,0c1.5,0.1,1,0.9,3.4,0.9C444.2,456.7,444.2,456.6,444.8,456.6L444.8,456.6L444.8,456.6z
	 M454.1,469c0,0.3,0.2,0.6,0.5,0.7c0.3-0.5-0.1-0.5,1-0.8c0.1,0,0.1,0,0.2-0.1c0.9-0.5,0.3-0.1,1-0.4c0-0.4-0.1-0.7-0.1-1.2
	s-0.2-0.7-0.7-0.8c0,1,0.6,0.6-0.5,1.6C455,468.6,454.6,468,454.1,469L454.1,469z M448,482c0.1-0.3,0.1-0.6,0.2-0.9
	c0.4,0,0,0.3,0.7,0.3c0.1-0.2,0.1-0.4,0.1-0.6c-0.3-0.1-0.4,0-0.6,0.2c-0.1-0.1-0.1-0.1-0.2-0.2c-0.3-0.2-0.3,0.3-0.5-0.3
	c-0.3-0.6,0-0.6-0.6-0.9c-0.4-0.2-0.5-0.4-0.8-0.7c-0.5-0.6-0.1-0.3-1-0.6c0,0.6,0.1,0.3,0.6,1c0.2,0.3,0.4,0.7,0.6,1
	C446.8,480.7,447.1,482,448,482L448,482z M449.4,481.1c0.8,0.1,1.3,0.4,1.6,0.2c0.2-0.3,0.2-0.4,0.4-0.8c0.3-0.5,0.1-0.3,0.5-0.8
	c-0.2-0.8-0.3-0.5,0.1-1.3c-0.1-0.3-0.3-0.6-0.5-0.7c-0.3,0.2,0,0-0.2,0.2c-0.3,0.3-0.6,0.7-0.9,1s-0.2,0.1-0.6,0.4
	c-0.1,0.1-0.2,0.1-0.4,0.2c-0.2,0.1-0.3-0.2-0.4,0.4C449,480.2,449.3,480.8,449.4,481.1L449.4,481.1z M430.7,465.1
	c0.1,0.8,0.6,1.2,0.9,1.5c0,0.4-0.1,0.3-0.1,0.9c0.4,0.3,0.7,0.5,1.3,0.3c0.1-0.7-0.1-0.6-0.4-1.1c0-0.1,0.1-0.1,0.1-0.1
	c0.2-0.2,0.1,0.1,0.2-0.3c-0.4-0.1-1.1-0.5-1.1-1.1c0.2-0.2,0.1-0.1,0.3-0.2c0.3-0.2,0.1,0.1,0.3-0.2c-0.2-0.3-0.4-0.4-0.8-0.2
	C431.3,464.7,430.8,465.1,430.7,465.1z M427.1,465.4c-0.3-0.4-0.3-0.6-0.8-0.6c-0.2,0.2-0.5,0.5-0.6,0.9c-0.2,0.5-0.1,0.2,0,0.7
	c0,0,0,0,0,0.1c0,0.3-0.1-0.1,0,0.2c0.4-0.1,0.1-0.1,0.4-0.2s1.2-0.4,1.4-0.3c0.6,0.1,1.1,0.6,1.8,0.1c0-0.6-0.8-0.8-1.3-1.1
	c0-0.5,0.2-0.1,0.1-0.6c-0.2,0-0.3,0-0.4,0c-0.4,0.2-0.2,0.2-0.2,0.3c0,0.3,0.4-0.1,0,0.3C427.4,465.3,427.3,465.3,427.1,465.4
	L427.1,465.4z M416.9,461.2c0,1,0.3,0.6,0.6,1.1c-0.1,0.4-0.2,0.1-0.3,0.5c-0.1,0.4,0,0-0.1,0.6c0.3,0,0.6-0.1,1-0.1
	c0.5,0,0.5-0.1,0.6-0.6c-0.3-0.3-0.5-0.6-0.8-0.9c-0.3-0.5,0-0.2-0.1-0.6c-0.1-0.2-0.1-0.3-0.2-0.5
	C417.2,461,417.2,460.9,416.9,461.2z"/>
<path class="st25" d="M427.7,470.9c-0.1,0.3,0.4,1.4,0.6,1.6c0.1,0.3,0.3,0.4,0.4,0.7c0.1,0.5,0,0.4,0.3,0.8c0.6,0.7,0,0.6,0.9,1.2
	c0.7,0.5,0.5,0.7,0.8,1.3c0.4,0.1,1.8-0.5,2-0.3c0.3,0.5-0.3,1.2-0.5,1.6c-0.5,1.4-1.3,1.4-2,2.4c-0.4,0.6-0.5,0.6-0.9,1.3
	c-0.4,0.8,0.8,2.9,0.1,3.8c-0.1,0.2-0.6,0.3-1.2,1s0,0.6-0.2,1.7c-0.2,0.3-0.4,0.3-0.7,0.5c-0.1,0.3,0,0.5-0.2,0.8
	c-0.2,0.4-0.2,0.2-0.4,0.5c-0.2,0.3-0.1,0.4-0.3,0.6c-0.2,0.2-0.3,0.3-0.4,0.4c-0.8,0.7-2.4,0.7-2.5,0.6c-0.4-0.3-0.1-0.4-0.2-0.9
	c-0.1-0.4-0.3-0.7-0.5-1l0,0l0,0c-0.1-0.2-0.2-0.3-0.2-0.4c-0.3-1-0.2-1.7-0.8-2.7c-0.7-1.3,0.4-1.9,0.3-2.7c0-0.2-0.1-0.3-0.1-0.5
	c-0.1-0.8-0.2-1.5-0.8-2.1c-0.6-0.7-0.5-0.4-0.3-1.6c0.2-1.3-0.3-1-1.1-1c-0.4-1.2-1.1-0.6-1.9-0.3c-0.5,0.2-0.6-0.1-1.2,0
	c-1.2,0.2-0.3,0.7-1.8-0.6c-0.7-0.5-0.2-0.3-0.6-0.9c-0.1-0.2-0.5-0.5-0.7-0.8c-0.6-0.7,0.1-1.5,0-2.3c-0.2-1.6-0.4-0.2,0.5-2.1
	c0.5-1,1.2-1,1.4-1.5c0.2-0.4,0.1-0.7,0.4-1.1c0.3-0.3,0.6-0.2,0.8-0.7c0-0.1,0.1-0.2,0.1-0.3l0,0h0.2l0,0c0.1,0.3,0,0.2,0.4,0.3
	c0.8,0.1,0.9-0.4,1.5-0.5c0.3-0.1,2.2-0.1,2.3-0.1c0.4,0.4,0.1,0.7,0.1,1.1c0.4,0.2,1.1,0.3,1.3,0.5c0.3,0.3,0.1,0.2,0.3,0.3l0,0
	l0,0c0.1,0,0.1,0,0.3,0.1c0.4,0.1,0.3,0.2,0.7,0.2c0.3-1.1,0-1,1.6-0.5c1.7,0.5,0.9,0,1.7,0.1c0.3,0,0.3,0.1,0.5,0.1L427.7,470.9
	L427.7,470.9z M432,484.3c-0.4,0.2-0.4,0.6-0.7,0.9c-0.3,0.3-0.7,0.2-0.9,0.7c-0.2,0.7,0.3,0.5-0.2,1.3c-0.2,0.3-0.2,1.1,0.1,1.3
	c0.8,0.7,1.2-1.1,1.4-1.7c0.1-0.4,0.3-0.9,0.4-1.2C432.1,485.2,432.3,484.8,432,484.3L432,484.3z"/>
<path class="st12" d="M401.6,486.2c-0.2-0.4-0.8-0.6-1.3-0.9c0,0,0,0-0.1,0c-0.6-0.4-1.2-2.2-1.8-2.8c-0.2-0.3-0.4-0.2-0.5-0.7
	c-0.1-0.4,0.1-0.4,0.2-0.7c-0.8-1.4,1-1.4,0.6-3.1c-0.1-0.3-0.3-0.7-0.5-0.9c-0.4,0.2-0.2,0.2-0.4,0.5c-0.3-0.2-0.6-0.3-0.9-0.5
	c-0.9-0.9-0.4-0.2-0.7-0.8c-0.5-1.2-1.1-0.5-1.7-1.1c-0.3-0.2-0.3-0.6-0.8-0.5c-0.7,0.1-0.3,0.2-1.1-0.1c-0.6-0.3-1.3-0.6-1.8-1
	c0-0.6,0.2-0.6-0.2-1.2c-0.2-0.3-0.5-0.5-0.6-0.8c-0.3-0.4,0.1,0-0.6-0.9c-0.5-0.6,0.1-0.6-0.4-1c-0.7,0.3,0.4,1.2,0.7,2.7
	c-0.3,0-0.5-0.3-0.6-0.6c-0.2-0.5,0-0.4-0.5-0.6c0-0.9,0.2-0.1-0.2-1c-0.1-0.3-0.1-0.5-0.2-0.8s0.1,0-0.1-0.2
	c-0.1-0.2,0.1,0-0.1-0.2s0,0-0.1-0.1c-0.4-0.2-0.4-0.5-0.5-1c-0.2-1.6,0.4-1.7,1-2.8c0.5-0.8,0.4-0.7,0-1.3c0.1-0.3,0.2-0.3,0.2-0.8
	s-0.1-0.3,0.1-0.7c0,0,0,0-0.1,0c0,0,0,0-0.1,0h-0.1c-0.1,0-0.2-0.1-0.3-0.1c0-0.8,0.2-1.3-0.8-1.4c-0.4,0-0.7-0.2-0.8-0.2
	c-0.1,0-0.5,0.2-0.8,0.3c-0.5,0.1-0.3,0.1-0.8,0c-0.3-0.1-1,0-1.7-0.1l0.1-0.9c0.4,0,0.7-0.1,1-0.3c-0.3-0.2-0.5-0.1-0.9-0.2
	c0.1-0.7,1.1-0.4,1.6-0.4c0.1-0.5-0.2-0.5,0-0.7c0.1-0.1,2.9-0.8,3.5-0.7c1,0.2,2,0.4,3,0.5c0.6,0.1,1.6-0.4,2.3-0.3
	c0.5,0,0,0.1,0.6,0.2c0.4,0,0.4-0.1,0.9,0c0.4,0.1,0.2,0.2,0.7,0.2c0.1-0.3,0.2-0.5,0.2-0.8c-0.4,0.1-0.7,0.2-1.1,0.1
	c0-0.4,0.5-0.6,0.8-0.7c1-0.5,1.6,0.3,2.6,0.4c0.4,0,0.7-0.2,1.1-0.3c-0.1,0.3-0.2,0.2-0.5,0.6c0.2,0.5-0.1-0.2,0.1,0.3
	c0,0.1,0.1,0.1,0.1,0.2c-0.7,0.2-0.3,0.3-1.3,0.2c0.1,0.2-0.1,0.1,0.3,0.3c0.3,0.2,0.8,0.1,1.1,0.1c0.1-0.2,0.2-0.4,0.4-0.5
	c0.1,0,0.2,0,0.3,0c0,0.1,0,0.2,0.1,0.3v0.1c0,0,0,0,0,0.1c0.6-0.3,0.1-0.3,0.4-0.9c-0.5-0.1-0.4,0-0.7-0.3c0.3-0.3,0.8-0.4,1.2-0.4
	c0,0.3-0.2,0.3-0.1,0.5c0.3-0.2,0.5-0.7,1-0.6c0.1,0.1,0.2,0.1,0.3,0.2c-0.3,0.2-0.7,0.3-1,0.4c-0.1,1.5,0.5,0.2,0.3,1.3
	c0.4,0,0.7-0.3,0.9-0.6c-0.1-0.2-0.3-0.2-0.5-0.4c0.1-0.3,0.3-0.5,0.5-0.6s0.4-0.1,0.6-0.1c2.8,0,1.5,0.1,2.3,0.5
	c0.2,0.1,0.5,0.1,0.6,0.3c0.2,0.3,0,0.5,0.3,0.7c0.2,0.2,0.3,0,0.6,0.4c-0.1,0.2-0.2,0.5-0.6,0.5c-0.5,0-0.2-0.3-0.7-0.3
	c0,0.5,0.5,0.6,0,0.9c-0.4,0.2-0.1-0.1-0.4,0.1l0,0l0,0c-0.1,0.1-0.1,0.1-0.1,0.2c-0.7-0.2-0.6-0.1-1-0.6c-0.2-0.2-0.2-0.2-0.5-0.2
	c-0.2,0-0.4,0.1-0.6-0.1c0.3-0.4,0.5,0,1-0.3c0.1,0,0.6-0.5,0.7-0.6c-0.1-0.3,0-0.1-0.2-0.3c-0.5-0.5-0.6-0.4-1.3-0.4
	c-0.3,0.4-0.5,0.8-0.9,1l0,0c-0.2,0.1-0.4,0.1-0.8,0c0.1,0.6,0.5,0.1,0.6,0.9c-0.3,0-0.4-0.2-0.6-0.1c-0.6,0.2-0.1,0.2,0,0.3
	c0,0,0.3,0,0,0.1s0-0.1-0.6-0.4c0.1-0.1,0.2-0.3,0.2-0.4c-0.5,0.1-1,0.4-1.6,0.6c-0.6,0.3-1.2,0.6-1.5,0.9c0,0.5,0.1,0.2,0.1,0.8
	c0.8,0,0.6,0.3,1.4,0.5c0.2,0,0.4,0.1,0.6,0.1c0,0.4-0.4,0.7-0.1,1.1c0.6,0.4,0.6-0.4,0.7-0.9c1.9-0.4,1-0.9,1.5-2l0,0
	c0.1-0.2,0.2-0.3,0.3-0.5c0.1,0,0.8,0.1,0.9,0.1c0.4,0.1,0.2,0.2,0.7,0.4c0,0.4-0.2,0.9,0.4,0.8c0.4-0.1,0.3-0.4,0.9-0.5
	c0.2,0.5,0.2,0.8,0.3,1.4c1.3,0.5,0.7,0.9,0.5,1.8c0.2,0.1,0.3,0.1,0.5,0.2c0,0.3,0,0.5,0,0.8c0,0-1.3-0.3-1.4-0.3
	c0.2-0.6,0.6-0.6,0.8-1.1c-0.5,0.1-0.4,0.2-0.8,0.3c-0.3,0.1-0.5,0-0.9,0.1c-0.1,0.4,0-0.3,0,0.2c0,0.2,0.1,0,0,0.2
	c-0.4-0.2-0.3-0.7-1.1-0.2c0.2,0.1,0.4,0.2,0.6,0.2c0,0.5-0.1,0.1-0.2,0.5c-0.3,0.9,0.8,0.3,1,0.3c-0.1,0.5-0.4,0.5-0.8,0.6
	c-0.5,0.1-0.6,0.3-1,0.4c0-0.6-0.1-0.1,0.2-0.5c-0.4,0-0.6,0.2-1,0.3l0,0l0,0c-0.5,0.2-0.5,0.2-0.6,0.8c-0.4,0.1-0.8,0.2-1.1,0.5
	c-0.3,0.3-0.5,0.5-0.8,0.8c0,0,0,0-0.1,0.1c0.1,0.7,0,0.7-0.4,1c-0.4,0.2-0.5,0.2-0.8,0.5c-1.1,1-0.6,0.5-0.5,2.2
	c-0.2-0.1-0.4-0.1-0.7-0.2c-0.2-1.1,0.1-0.7-0.8-1c-1-0.3-0.8,0.2-1.2,0.3c-0.4,0.1-0.7-0.4-1.3,0c-0.4,0.2-0.7,0.4-0.8,0.8
	c-0.1,0.5-0.3,0.9-0.3,1.5c0.1,1.5,1.5,1.6,1.9,0.9c0.2-0.5,0.2-0.7,1-0.6c0.1,0.4,0,0.7-0.1,1c-0.1,0.2-0.3,0.5-0.2,0.8
	c0.6,0.2,0.6-0.2,1.3,0.2c0.1,0.7-0.3,1.6,0.2,2c0.4,0.3,0.5,0,0.9,0c0.4-0.1,0.4,0.2,0.8,0.3c0.2-0.3,0.1-0.1,0.3-0.4
	c0.3-0.6,0.3-0.3,1-0.7c0.1,0,0.1-0.1,0.2-0.1c0.1,0.1,0.1,0.3,0.2,0.4c0.5-0.5,0.5,0,1,0.1c0.2,0.1,0.4,0.1,0.5,0.1l0,0
	c0.4,0,0.4-0.2,0.9,0c0.1,0,0.1,0,0.2,0.1l0,0l0,0c0.1,0.1,0.1,0.2,0.2,0.3c0.4,0.3,0.7,0.7,1.1,1c0.7,0.3,0.7-0.2,1.5,0.5
	c0.3,0.3,0.2,0.3,0.4,0.7c0,0.1,0.1,0.1,0.1,0.2c0.1,0.2,0.1,0.4,0.2,0.5c0.4,0.5,0.8,0.2,1.3,0.6c0.3,0.3,0.1,0.2,0.7,0.3
	c1,0.2,0.6,0.1,1.4,0.6c0.3,0.2,0.4,0.1,0.6,0.3c0.4,0.5,0.3,1.1,0,1.5c-1,1.4-0.6,1.2-0.7,2.3c0,0.6-0.2,1.9-0.8,2.1
	c-2.2,0.6-0.9,1-1.5,2.1c-0.2,0.3-0.3,0.4-0.4,0.6c-0.4,1-0.1,1.3-1.4,1.1c0.1,0.2,0,0.1,0.2,0.3c0.4,0.6,0.4,1-0.3,1.2
	c-0.7,0.1-0.4,0-0.4,0.7c-0.3,0.1-0.4,0-0.5,0.2c0.2,0.4,0,0.1,0.4,0.3c-0.1,0.2-0.1,0.4-0.2,0.7c-0.1,0.5-0.2,0-0.2,0.7
	c0.2,0.1,0.4,0.1,0.6,0.3c0,0.2-0.2,0.8-0.3,1.1c0.3,0.5,0.6,1,1.3,1c0,0.4,0.1,0.4-0.3,0.4c-0.3,0.1-0.9-0.2-1.2-0.3
	c-0.5-0.2-0.9-0.6-1.2-1c-0.2-0.3-0.1-0.1-0.3-0.4c-0.3-0.4-0.2-0.6-0.3-0.9c-0.1-0.2-0.3-0.3-0.2-0.9c0-0.2,0.3-0.9,0-0.7
	c-0.3,0.1,0.2,0.1-0.2,0.3c-0.1-0.3-0.2-0.6-0.2-1c-0.1-0.5-0.2-0.6-0.3-0.9c-0.1-0.8,0.2-0.8-0.2-2.1c-0.2-0.8-0.1-2.8-0.4-3.8
	C401.7,486.5,401.6,486.3,401.6,486.2L401.6,486.2z"/>
<path class="st24" d="M449.5,492.6h12.7v1h-12.7V492.6z"/>
<path class="st25" d="M449.5,495.9h12.7v1h-12.7V495.9z"/>
<path class="st12" d="M449.5,499.2h12.7v1h-12.7V499.2z"/>
<path class="st24" d="M448.2,492.6H447v1h1.2V492.6z"/>
<path class="st25" d="M448.2,495.9H447v1h1.2V495.9z"/>
<path class="st12" d="M448.2,499.2H447v1h1.2V499.2z"/>
</svg>
