<?xml version="1.0" encoding="utf-8"?>
<!-- Generator: Adobe Illustrator 21.0.0, SVG Export Plug-In . SVG Version: 6.00 Build 0)  -->
<svg version="1.1" id="Layer_1" xmlns="http://www.w3.org/2000/svg" xmlns:xlink="http://www.w3.org/1999/xlink" x="0px" y="0px"
	 viewBox="0 0 612 612" style="enable-background:new 0 0 612 612;" xml:space="preserve">
<style type="text/css">
	.st0{fill:#5DBF94;}
	.st1{fill:none;stroke:#FFFFFF;stroke-width:2;stroke-miterlimit:10;stroke-dasharray:5.0142,5.0142;}
	.st2{fill:#F48559;}
	.st3{fill:#DFB784;}
	.st4{fill:#37A6C5;}
	.st5{fill:#B6D076;}
	.st6{fill:url(#SVGID_1_);}
	.st7{opacity:0.4;fill:#FFFFFF;enable-background:new    ;}
	.st8{fill:url(#SVGID_2_);}
	.st9{fill:url(#SVGID_3_);}
	.st10{fill:url(#SVGID_4_);}
	.st11{fill:url(#SVGID_5_);}
	.st12{opacity:0.1;}
	.st13{fill:#FFFFFF;}
	.st14{fill:url(#SVGID_6_);}
	.st15{fill:url(#SVGID_7_);}
	.st16{fill:url(#SVGID_8_);}
	.st17{fill:url(#SVGID_9_);}
	.st18{fill:url(#SVGID_10_);}
	.st19{fill:url(#SVGID_11_);}
	.st20{fill:url(#SVGID_12_);}
	.st21{fill:#FCFDFF;}
	.st22{fill:#1D1C1A;}
	.st23{fill:#68AAD7;}
	.st24{fill:#2D8967;}
	.st25{fill:#FCBD5E;}
</style>
<g>
	<circle class="st0" cx="306" cy="306" r="306"/>
	<g>
		
			<ellipse transform="matrix(0.9494 -0.3141 0.3141 0.9494 -82.1407 111.4188)" class="st1" cx="304.7" cy="310.6" rx="217.1" ry="217.1"/>
	</g>
	<ellipse transform="matrix(0.9494 -0.3141 0.3141 0.9494 -127.8239 59.9041)" class="st2" cx="122" cy="426.6" rx="62" ry="62"/>
	<ellipse transform="matrix(0.9494 -0.3141 0.3141 0.9494 -35.8392 163.0014)" class="st3" cx="487.9" cy="192.7" rx="62" ry="62"/>
	<ellipse transform="matrix(0.9494 -0.3141 0.3141 0.9494 -106.3412 177.482)" class="st4" cx="497.6" cy="418.7" rx="62" ry="62"/>
	
		<ellipse transform="matrix(0.6833 -0.7301 0.7301 0.6833 -111.1708 148.9029)" class="st5" cx="116.1" cy="202.6" rx="62" ry="62"/>
	<g>
		<g>
			
				<radialGradient id="SVGID_1_" cx="-311.7309" cy="753.6393" r="178.5685" gradientTransform="matrix(0.8301 0.153 0.153 -0.8301 448.161 983.8908)" gradientUnits="userSpaceOnUse">
				<stop  offset="0" style="stop-color:#FFFFFF;stop-opacity:1.659000e-03"/>
				<stop  offset="0.8568" style="stop-color:#FFFFFF;stop-opacity:0.2573"/>
				<stop  offset="1" style="stop-color:#FFFFFF;stop-opacity:0.3"/>
			</radialGradient>
			<circle class="st6" cx="304.7" cy="310.6" r="150.7"/>
			
				<ellipse transform="matrix(0.1813 -0.9834 0.9834 0.1813 -56.074 553.8796)" class="st7" cx="304.6" cy="310.6" rx="142.1" ry="142.1"/>
			
				<linearGradient id="SVGID_2_" gradientUnits="userSpaceOnUse" x1="219.0937" y1="481.0664" x2="339.661" y2="234.5496" gradientTransform="matrix(0.9834 0.1813 0.1813 -0.9834 -55.0089 539.9131)">
				<stop  offset="0" style="stop-color:#6FCBDC;stop-opacity:0.5"/>
				<stop  offset="0.2861" style="stop-color:#98D7E3;stop-opacity:0.3569"/>
				<stop  offset="0.771" style="stop-color:#D9EAEE;stop-opacity:0.1145"/>
				<stop  offset="1" style="stop-color:#F2F2F2;stop-opacity:0"/>
			</linearGradient>
			<circle class="st8" cx="304.7" cy="310.6" r="150.7"/>
			
				<linearGradient id="SVGID_3_" gradientUnits="userSpaceOnUse" x1="216.8911" y1="481.335" x2="337.4585" y2="234.8181" gradientTransform="matrix(-0.8934 -0.4492 -0.4492 0.8934 712.3534 189.928)">
				<stop  offset="0" style="stop-color:#F05A26;stop-opacity:0.5"/>
				<stop  offset="4.236441e-02" style="stop-color:#F06130;stop-opacity:0.4788"/>
				<stop  offset="0.5169" style="stop-color:#F1AE97;stop-opacity:0.2415"/>
				<stop  offset="0.8459" style="stop-color:#F2DFD9;stop-opacity:7.705384e-02"/>
				<stop  offset="1" style="stop-color:#F2F2F2;stop-opacity:0"/>
			</linearGradient>
			<circle class="st9" cx="304.7" cy="310.6" r="150.7"/>
			
				<linearGradient id="SVGID_4_" gradientUnits="userSpaceOnUse" x1="217.0054" y1="482.3993" x2="337.5683" y2="235.8915" gradientTransform="matrix(-0.9494 0.3141 0.3141 0.9494 507.378 -64.0754)">
				<stop  offset="0" style="stop-color:#69BC45;stop-opacity:0.5"/>
				<stop  offset="0.4403" style="stop-color:#AAD697;stop-opacity:0.2799"/>
				<stop  offset="0.8214" style="stop-color:#DEEAD9;stop-opacity:8.928952e-02"/>
				<stop  offset="1" style="stop-color:#F2F2F2;stop-opacity:0"/>
			</linearGradient>
			<circle class="st10" cx="304.7" cy="310.6" r="150.7"/>
			
				<radialGradient id="SVGID_5_" cx="-402.1388" cy="-15.5519" r="168.3768" gradientTransform="matrix(0.2839 0.795 0.795 -0.2839 431.231 625.8852)" gradientUnits="userSpaceOnUse">
				<stop  offset="0" style="stop-color:#FFFFFF;stop-opacity:1.659000e-03"/>
				<stop  offset="0.8568" style="stop-color:#FFFFFF;stop-opacity:0.2573"/>
				<stop  offset="1" style="stop-color:#FFFFFF;stop-opacity:0.3"/>
			</radialGradient>
			<circle class="st11" cx="304.7" cy="310.6" r="142.1"/>
			<g class="st12">
				<path class="st13" d="M422.3,390.3l-88.2-218.1l-105.2,258c0.4,0.5,0.8,1,1.2,1.5c14.6,9,31,15.5,48.8,18.8
					C336.1,460.9,391.7,435.6,422.3,390.3z"/>
			</g>
			<g class="st12">
				<path class="st13" d="M393.6,199.8l-224.5,70.3l248.6,125.7c0.5-0.3,1-0.7,1.5-1c10.1-13.8,17.9-29.6,22.6-47.1
					C457,291.4,436.2,234,393.6,199.8z"/>
			</g>
			<g class="st12">
				<path class="st13" d="M166.5,277.1l158.9,173.5l8.4-278.4c-0.5-0.3-1.1-0.6-1.6-1c-16.8-3.3-34.4-3.7-52.3-0.5
					C222.6,180.8,179.5,224,166.5,277.1z"/>
			</g>
			<g class="st12">
				<path class="st13" d="M294.7,452.4l144.4-185.7L163.2,305c-0.2,0.6-0.5,1.2-0.7,1.7c-0.5,17.1,2.2,34.6,8.3,51.6
					C190.4,413.2,240.2,448.6,294.7,452.4z"/>
			</g>
			
				<radialGradient id="SVGID_6_" cx="-105.4939" cy="-364.5623" r="168.3771" gradientTransform="matrix(-0.2135 0.8167 0.8167 0.2135 579.9151 474.5909)" gradientUnits="userSpaceOnUse">
				<stop  offset="0" style="stop-color:#FFFFFF;stop-opacity:1.659000e-03"/>
				<stop  offset="0.8568" style="stop-color:#FFFFFF;stop-opacity:0.2573"/>
				<stop  offset="1" style="stop-color:#FFFFFF;stop-opacity:0.3"/>
			</radialGradient>
			<circle class="st14" cx="304.7" cy="310.6" r="142.1"/>
			<g class="st12">
				<path class="st13" d="M357,442.8l50-229.9L174.7,366.7c0,0.6,0.1,1.2,0.1,1.9c7,15.6,16.9,30.2,29.8,43
					C246,452.5,306.1,462.9,357,442.8z"/>
			</g>
			<g class="st12">
				<path class="st13" d="M440.6,269.2l-225.1-68.4L350,444.7c0.6,0,1.2,0,1.9,0c16.1-5.7,31.5-14.4,45.3-26.2
					C441.3,380.6,456.5,321.5,440.6,269.2z"/>
			</g>
			<g class="st12">
				<path class="st13" d="M209.4,205.1L243,438l163.8-225.3c-0.3-0.6-0.5-1.1-0.8-1.7c-12-12.2-26.4-22.4-42.9-29.9
					C310,157.2,250.1,168.5,209.4,205.1z"/>
			</g>
			<g class="st12">
				<path class="st13" d="M216.6,422.2l224-72L191,226.3c-0.5,0.3-1,0.7-1.5,1c-10,13.9-17.7,29.8-22.3,47.3
					C152.5,331,173.7,388.2,216.6,422.2z"/>
			</g>
		</g>
	</g>
	<g>
		<g>
			
				<radialGradient id="SVGID_7_" cx="-311.7309" cy="753.6393" r="178.5685" gradientTransform="matrix(0.8301 0.153 0.153 -0.8301 448.161 983.8908)" gradientUnits="userSpaceOnUse">
				<stop  offset="0" style="stop-color:#FFFFFF;stop-opacity:1.659000e-03"/>
				<stop  offset="0.8568" style="stop-color:#FFFFFF;stop-opacity:0.2573"/>
				<stop  offset="1" style="stop-color:#FFFFFF;stop-opacity:0.3"/>
			</radialGradient>
			<circle class="st15" cx="304.7" cy="310.6" r="150.7"/>
			
				<ellipse transform="matrix(0.1813 -0.9834 0.9834 0.1813 -56.074 553.8796)" class="st7" cx="304.6" cy="310.6" rx="142.1" ry="142.1"/>
			
				<linearGradient id="SVGID_8_" gradientUnits="userSpaceOnUse" x1="219.0937" y1="481.0664" x2="339.661" y2="234.5496" gradientTransform="matrix(0.9834 0.1813 0.1813 -0.9834 -55.0089 539.9131)">
				<stop  offset="0" style="stop-color:#6FCBDC;stop-opacity:0.5"/>
				<stop  offset="0.2861" style="stop-color:#98D7E3;stop-opacity:0.3569"/>
				<stop  offset="0.771" style="stop-color:#D9EAEE;stop-opacity:0.1145"/>
				<stop  offset="1" style="stop-color:#F2F2F2;stop-opacity:0"/>
			</linearGradient>
			<circle class="st16" cx="304.7" cy="310.6" r="150.7"/>
			
				<linearGradient id="SVGID_9_" gradientUnits="userSpaceOnUse" x1="216.8911" y1="481.335" x2="337.4585" y2="234.8181" gradientTransform="matrix(-0.8934 -0.4492 -0.4492 0.8934 712.3534 189.928)">
				<stop  offset="0" style="stop-color:#F05A26;stop-opacity:0.5"/>
				<stop  offset="4.236441e-02" style="stop-color:#F06130;stop-opacity:0.4788"/>
				<stop  offset="0.5169" style="stop-color:#F1AE97;stop-opacity:0.2415"/>
				<stop  offset="0.8459" style="stop-color:#F2DFD9;stop-opacity:7.705384e-02"/>
				<stop  offset="1" style="stop-color:#F2F2F2;stop-opacity:0"/>
			</linearGradient>
			<circle class="st17" cx="304.7" cy="310.6" r="150.7"/>
			
				<linearGradient id="SVGID_10_" gradientUnits="userSpaceOnUse" x1="217.0054" y1="482.3993" x2="337.5683" y2="235.8915" gradientTransform="matrix(-0.9494 0.3141 0.3141 0.9494 507.378 -64.0754)">
				<stop  offset="0" style="stop-color:#69BC45;stop-opacity:0.5"/>
				<stop  offset="0.4403" style="stop-color:#AAD697;stop-opacity:0.2799"/>
				<stop  offset="0.8214" style="stop-color:#DEEAD9;stop-opacity:8.928952e-02"/>
				<stop  offset="1" style="stop-color:#F2F2F2;stop-opacity:0"/>
			</linearGradient>
			<circle class="st18" cx="304.7" cy="310.6" r="150.7"/>
			
				<radialGradient id="SVGID_11_" cx="-402.1388" cy="-15.5519" r="168.3768" gradientTransform="matrix(0.2839 0.795 0.795 -0.2839 431.231 625.8852)" gradientUnits="userSpaceOnUse">
				<stop  offset="0" style="stop-color:#FFFFFF;stop-opacity:1.659000e-03"/>
				<stop  offset="0.8568" style="stop-color:#FFFFFF;stop-opacity:0.2573"/>
				<stop  offset="1" style="stop-color:#FFFFFF;stop-opacity:0.3"/>
			</radialGradient>
			<circle class="st19" cx="304.7" cy="310.6" r="142.1"/>
			<g class="st12">
				<path class="st13" d="M422.3,390.3l-88.2-218.1l-105.2,258c0.4,0.5,0.8,1,1.2,1.5c14.6,9,31,15.5,48.8,18.8
					C336.1,460.9,391.7,435.6,422.3,390.3z"/>
			</g>
			<g class="st12">
				<path class="st13" d="M393.6,199.8l-224.5,70.3l248.6,125.7c0.5-0.3,1-0.7,1.5-1c10.1-13.8,17.9-29.6,22.6-47.1
					C457,291.4,436.2,234,393.6,199.8z"/>
			</g>
			<g class="st12">
				<path class="st13" d="M166.5,277.1l158.9,173.5l8.4-278.4c-0.5-0.3-1.1-0.6-1.6-1c-16.8-3.3-34.4-3.7-52.3-0.5
					C222.6,180.8,179.5,224,166.5,277.1z"/>
			</g>
			<g class="st12">
				<path class="st13" d="M294.7,452.4l144.4-185.7L163.2,305c-0.2,0.6-0.5,1.2-0.7,1.7c-0.5,17.1,2.2,34.6,8.3,51.6
					C190.4,413.2,240.2,448.6,294.7,452.4z"/>
			</g>
			
				<radialGradient id="SVGID_12_" cx="-105.4939" cy="-364.5623" r="168.3771" gradientTransform="matrix(-0.2135 0.8167 0.8167 0.2135 579.9151 474.5909)" gradientUnits="userSpaceOnUse">
				<stop  offset="0" style="stop-color:#FFFFFF;stop-opacity:1.659000e-03"/>
				<stop  offset="0.8568" style="stop-color:#FFFFFF;stop-opacity:0.2573"/>
				<stop  offset="1" style="stop-color:#FFFFFF;stop-opacity:0.3"/>
			</radialGradient>
			<circle class="st20" cx="304.7" cy="310.6" r="142.1"/>
			<g class="st12">
				<path class="st13" d="M357,442.8l50-229.9L174.7,366.7c0,0.6,0.1,1.2,0.1,1.9c7,15.6,16.9,30.2,29.8,43
					C246,452.5,306.1,462.9,357,442.8z"/>
			</g>
			<g class="st12">
				<path class="st13" d="M440.6,269.2l-225.1-68.4L350,444.7c0.6,0,1.2,0,1.9,0c16.1-5.7,31.5-14.4,45.3-26.2
					C441.3,380.6,456.5,321.5,440.6,269.2z"/>
			</g>
			<g class="st12">
				<path class="st13" d="M209.4,205.1L243,438l163.8-225.3c-0.3-0.6-0.5-1.1-0.8-1.7c-12-12.2-26.4-22.4-42.9-29.9
					C310,157.2,250.1,168.5,209.4,205.1z"/>
			</g>
			<g class="st12">
				<path class="st13" d="M216.6,422.2l224-72L191,226.3c-0.5,0.3-1,0.7-1.5,1c-10,13.9-17.7,29.8-22.3,47.3
					C152.5,331,173.7,388.2,216.6,422.2z"/>
			</g>
		</g>
	</g>
	<g>
		<path class="st21" d="M481.2,187.6c3.8-0.8,6.7,0.8,8,1.6c1-0.6,2.8-1.5,5.1-1.8c0.1-2.8,1.2-7.4,5.2-9.6c0.2-2.1-1.4-6.9-7.3-7.8
			c-5.4-0.9-7.9,3.6-8,3.8c-0.2,0.3-0.5,0.6-0.9,0.6s-0.8-0.2-1-0.5c-0.1-0.1-1.8-2.3-7.1-1c-4.3,1-5.2,4.3-5.4,5.5
			c0.2,0.1,0.5,0.3,0.7,0.5c4.4,3.2,5.8,8.3,6.1,11.8C477.5,189.4,478.9,188.1,481.2,187.6z"/>
		<path class="st21" d="M526.5,195c-0.3-9.4-5.6-13-5.6-13s-0.6-4.5-4.7-9.4c-6.4-7-14.6-5.8-14.6-5.8c-10.6-10.2-21.4-2.4-21.4-2.4
			c-15-4.9-19.3,6.8-19.3,6.8c-8.6,0.9-15.6,11-9.3,21.8c4.8,8.3,11.9,8.4,14.9,8c1-2.6,3.1-5.5,7.8-6.8c0-0.5,0.6-9.3-5.3-13.5
			c-3.5-2.5-7.4-1.9-9.6-0.2c-2,1.6-2.6,4-1.6,6.7c0.5,1.4,1.4,2.3,2.5,2.7c2.1,0.9,4.7-0.1,4.7-0.2c0.6-0.2,1.3,0,1.5,0.6
			s0,1.2-0.6,1.5c-0.1,0.1-3.5,1.4-6.5,0.2c-1.7-0.7-2.9-2-3.7-4c-1.4-3.6-0.5-7.1,2.3-9.3c2.6-2,6.2-2.4,9.5-1.3
			c0.6-2.4,2.4-5.7,7-6.7c4.4-1,7-0.1,8.4,0.8c1.6-2.1,4.9-4.6,9.6-3.8c3.9,0.6,6.1,2.7,7.3,4.3c1.1,1.5,1.8,3.3,1.9,4.9
			c4.4-1.1,9.6,0.3,12.6,3.3c2.5,2.5,3.3,5.9,2.4,9.7c1.1,1.1,3.3,3.9,2.7,8.7c-0.3,2.5-1.7,4.4-3.9,5.5c-2.8,1.3-6.6,0.9-9.6-1.1
			c-4.3-2.8-11.1-2.9-14.2-0.3c-2.4,2-5.2,4-7.9,3.8c-0.2,0-0.4,0-0.6-0.1c-1.6-0.3-2.8-1.5-3.7-3.4c-0.3-0.6,0-1.3,0.5-1.5
			c0.6-0.3,1.3,0,1.5,0.5c0.6,1.2,1.3,1.9,2.1,2.1c1.9,0.4,4.6-1.6,6.5-3.2c3.9-3.3,11.7-3.2,16.9,0.1c2.4,1.5,5.4,1.9,7.5,0.9
			c1.5-0.7,2.4-2,2.6-3.7c0.7-4.8-2.3-7-2.3-7.1c-0.4-0.3-0.6-0.8-0.4-1.2c0.9-3.2,0.3-6.1-1.7-8.2c-2.5-2.5-6.8-3.7-10.5-2.7
			c-4.9,1.3-5.6,6.5-5.7,8.2c2.8,0.1,6.1,1.4,9.1,5.1c0.4,0.5,0.3,1.2-0.2,1.6c-0.5,0.4-1.2,0.3-1.6-0.2c-6.4-7.9-13.8-2.6-14.1-2.3
			c-0.4,0.3-1,0.3-1.4-0.1c-0.1-0.1-2.8-2.4-6.8-1.6c-3.8,0.8-4.4,5.3-4.4,5.4c-0.1,0.5-0.4,0.9-0.9,1c-8.7,1.6-8.2,9.2-8.2,9.6
			c0,0.4-0.1,0.8-0.4,1c1.3,11.4,16.6,10.4,16.6,10.4c0,0.1,0.1,0.2,0.1,0.4c0.4,0.2,10.7,4,15.3-1.5c1.1-1.9,1.5-3.5,1.1-4.7
			c-0.5-1.3-1.8-1.8-1.8-1.8c-0.6-0.2-0.9-0.9-0.7-1.5c0.2-0.6,0.9-0.9,1.5-0.7c0.1,0,2.4,0.8,3.3,3.2c0.7,1.9,0.2,4.2-1.3,6.8
			l-0.1,0.1c-2.9,3.5-7.2,4.1-10.9,3.8c-2.1-0.2-3.9-0.6-5.2-1c2.7,5.9,8.7,8.6,15.1,8.9c7.4,0.4,8.9-5.3,8.9-5.3
			c10.1-4,7.9-14.1,7.9-14.1C521.3,209.2,526.8,204.4,526.5,195z"/>
	</g>
	<g>
		<g>
			<path class="st13" d="M122,384.3c-8.6,0-15.6,19-15.6,42.4s7,42.4,15.6,42.4s15.6-19,15.6-42.4
				C137.6,403.2,130.6,384.3,122,384.3z M122,462.1c-7.2,0-13.1-15.9-13.1-35.5s5.9-35.5,13.1-35.5s13.1,15.9,13.1,35.5
				S129.2,462.1,122,462.1z"/>
			<path class="st13" d="M164.3,426.6c0-8.6-19-15.6-42.4-15.6s-42.4,7-42.4,15.6s19,15.6,42.4,15.6
				C145.4,442.2,164.3,435.2,164.3,426.6z M86.5,426.6c0-7.2,15.9-13.1,35.5-13.1s35.5,5.9,35.5,13.1s-15.9,13.1-35.5,13.1
				S86.5,433.8,86.5,426.6z"/>
			<path class="st13" d="M151.9,396.7c-6.1-6.1-24.4,2.4-41,18.9c-16.5,16.5-25,34.9-18.9,41s24.4-2.4,41-18.9
				C149.6,421.1,158,402.8,151.9,396.7z M96.9,451.7c-5.1-5.1,2-20.5,15.8-34.3c13.9-13.9,29.2-20.9,34.3-15.8
				c5.1,5.1-2,20.5-15.8,34.3S102,456.8,96.9,451.7z"/>
			<path class="st13" d="M151.9,456.6c6.1-6.1-2.4-24.4-18.9-41c-16.5-16.5-34.9-25-41-18.9s2.4,24.4,18.9,41
				C127.5,454.2,145.8,462.7,151.9,456.6z M96.9,401.5c5.1-5.1,20.5,2,34.3,15.8c13.9,13.9,20.9,29.2,15.8,34.3
				c-5.1,5.1-20.5-2-34.3-15.8S91.8,406.6,96.9,401.5z"/>
			<ellipse class="st13" cx="122" cy="426.6" rx="6.5" ry="6.5"/>
		</g>
	</g>
	<g>
		<g id="XMLID_33_">
			<g>
				<rect x="71.3" y="229.4" class="st13" width="86.4" height="2.7"/>
				<path class="st13" d="M157.7,208v20.2h-8.5v-10.8C152.6,214.9,155.5,211.7,157.7,208z"/>
				<path class="st13" d="M130.9,163.5c16.4,0,29.6,13.3,29.6,29.6c0,16.4-13.3,29.6-29.6,29.6c-9,0-17.1-4-22.5-10.4
					c4.2,3.3,9.5,5.3,15.2,5.3c13.5,0,24.5-11,24.5-24.5s-11-24.5-24.5-24.5c-5.7,0-11,2-15.2,5.3
					C113.8,167.5,121.9,163.5,130.9,163.5z"/>
				<path class="st13" d="M148,218.2v10h-32.7h-0.5H72.3c-0.6,0-1.1-0.5-1.1-1.1v-0.4c0-0.6,0.5-1.1,1.1-1.1h42.5v-6.4
					c4.6,2.7,10,4.2,15.7,4.2C137,223.5,143,221.6,148,218.2z"/>
				<path class="st13" d="M146,191.5c0,0.4,0,0.7,0,1.1c0,1.2-0.1,2.3-0.3,3.4h-2.3h-0.8h-0.4c-0.1,0-0.3,0-0.3,0
					c-0.2,0-0.3-0.1-0.4-0.2c-0.1-0.1-0.1-0.1-0.1-0.2v-0.1c0,0,0,0,0-0.1l0,0l0,0v-3.2c0-0.2,0.1-0.3,0.2-0.4
					c0.1-0.1,0.3-0.2,0.4-0.2h1.6h2.4V191.5z M144,192.8c0-0.4-0.3-0.8-0.8-0.8c-0.4,0-0.8,0.3-0.8,0.8s0.3,0.8,0.8,0.8
					C143.6,193.5,144,193.2,144,192.8z M144,194.7c0-0.4-0.3-0.8-0.8-0.8c-0.4,0-0.8,0.3-0.8,0.8c0,0.4,0.3,0.8,0.8,0.8
					C143.6,195.5,144,195.1,144,194.7z"/>
				<path class="st13" d="M145.9,190.7h-2.4h-0.8h-0.4h-0.2H142h-0.1c0,0,0,0-0.1,0c-0.4,0-0.7,0.2-1,0.5s-0.4,0.6-0.4,1v3.2l0,0
					v0.1v0.1c0,0.1,0,0.2,0.1,0.3c0.1,0.2,0.1,0.3,0.3,0.5c0.2,0.3,0.6,0.5,0.9,0.5c0.1,0,0.2,0,0.2,0h0.2h0.4h0.8h2.2
					c-2,10.4-11.1,18.2-22,18.2c-8.3,0-15.6-4.6-19.5-11.3h7.6c3,3.2,7.2,5.2,11.9,5.2c9,0,16.3-7.3,16.3-16.3s-7.3-16.3-16.3-16.3
					c-6.8,0-12.6,4.2-15.1,10.1H103l-0.7-0.9c3-8.9,11.4-15.3,21.3-15.3C135.3,170.2,144.9,179.2,145.9,190.7z"/>
				<path class="st13" d="M127.2,187.5c3.1,0,5.6,2.5,5.6,5.6s-2.5,5.6-5.6,5.6s-5.6-2.5-5.6-5.6C121.6,190,124.1,187.5,127.2,187.5
					z"/>
				<path class="st13" d="M128.2,201.6v0.1c0,0.6-0.5,1.1-1.1,1.1H75.5c-0.6,0-1.1-0.5-1.1-1.1v-0.1c0-0.6,0.5-1.1,1.1-1.1h51.7
					C127.8,200.6,128.2,201,128.2,201.6z"/>
				<path class="st13" d="M116,187.8c2.5,0,4.6,2.6,4.6,5.8s-2.1,5.8-4.6,5.8h-13.5c-1.8,0-3.4-1.3-4.1-3.2l-3.5-0.3l-3.7-0.3h-0.5
					h-0.1l0,0l0,0h-0.2H90c-0.5,0-1,0.1-1.6,0.2c-1.1,0.2-2.2,0.4-3.3,0.7l-3.6,1c-2.4,0.7-4.8,1.3-7.2,2c-1.5,0.4-3.1-1-3.6-3
					c-0.5-2.1,0.2-4,1.7-4.4c2.4-0.6,4.8-1.3,7.2-1.9l3.6-1c1.3-0.4,2.6-0.7,4-0.9c0.7-0.1,1.4-0.2,2.1-0.3c0.2,0,0.4,0,0.6,0h0.3
					h0.4c0.2,0,0.3,0,0.5,0h0.4H92l3.7,0.3l2.9,0.3c0,0.3,0,0.6,0.1,0.9c0.1,0.2,0.2,0.5,0.3,0.7c0,0.1,0.1,0.1,0.1,0.1l0.1,0.1l0,0
					l0.2,0.2l0.8,0.7l1.5,1.4c0.5,0.5,1.1,1,1.7,1.4c1.2,0.8,2.5,1.5,3.9,1.8c0.7,0.2,1.4,0.3,2.2,0.4c0.4,0,0.7,0,1.1,0
					c0.1,0,0.2,0,0.3,0h0.1h0.1l0,0h0.5h4.1h1c0.5,0,1-0.2,1.3-0.5c0.4-0.3,0.6-0.7,0.7-1.1c0.1-0.4,0.2-0.9,0.1-1.3
					c-0.1-0.4-0.2-0.9-0.5-1.2c-0.3-0.4-0.7-0.7-1.2-0.8c-0.1,0-0.2-0.1-0.4-0.1c-0.1,0-0.1,0-0.2,0h-0.1h-0.5h-1h-4.2h-0.4
					c-0.1,0-0.2,0-0.4,0c-0.2,0-0.5,0-0.7-0.1c-0.5-0.1-1-0.2-1.4-0.4c-0.9-0.4-1.8-0.9-2.5-1.6L104,188h12V187.8z"/>
				<path class="st13" d="M116.6,191.7c0.9,0,1.6,0.9,1.6,1.9c0,1.1-0.7,1.9-1.6,1.9h-5.7c-0.2,0-0.3,0-0.5,0s-0.3,0-0.5,0
					c-0.3,0-0.6,0-0.9-0.1c-0.6-0.1-1.2-0.2-1.7-0.3c-1.1-0.3-2.2-0.8-3.1-1.4c-0.5-0.3-0.9-0.6-1.4-1c-0.2-0.2-0.4-0.4-0.6-0.6
					l-0.5-0.5l-2.1-2c-0.6-0.6-0.6-1.7,0.2-2.5c0.7-0.8,1.8-0.9,2.5-0.3l2.1,2l0.5,0.5c0.1,0.1,0.3,0.3,0.5,0.4
					c0.3,0.3,0.6,0.5,1,0.7c0.7,0.4,1.4,0.7,2.1,0.9c0.4,0.1,0.7,0.2,1.1,0.2c0.2,0,0.4,0,0.6,0c0.1,0,0.2,0,0.3,0
					c0.1,0,0.2,0,0.2,0h0.1h0.1L116.6,191.7L116.6,191.7z"/>
				<path class="st13" d="M99,223.4v0.6c0,0.6-0.5,1.1-1.1,1.1H79.6c-0.6,0-1.1-0.5-1.1-1.1v-0.6c0-0.6,0.5-1.1,1.1-1.1H98
					C98.6,222.3,99,222.8,99,223.4z"/>
				<path class="st13" d="M99,219.8v0.6c0,0.6-0.5,1.1-1.1,1.1H79.6c-0.6,0-1.1-0.5-1.1-1.1v-0.6c0-0.6,0.5-1.1,1.1-1.1H98
					C98.6,218.8,99,219.2,99,219.8z"/>
				<path class="st13" d="M99,216.2v0.6c0,0.6-0.5,1.1-1.1,1.1H79.6c-0.6,0-1.1-0.5-1.1-1.1v-0.6c0-0.6,0.5-1.1,1.1-1.1H98
					C98.6,215.1,99,215.6,99,216.2z"/>
				<path class="st13" d="M99,212.7v0.6c0,0.6-0.5,1.1-1.1,1.1H79.6c-0.6,0-1.1-0.5-1.1-1.1v-0.6c0-0.6,0.5-1.1,1.1-1.1H98
					C98.6,211.6,99,212.1,99,212.7z"/>
				<path class="st13" d="M99,208.9v0.6c0,0.6-0.5,1.1-1.1,1.1H79.6c-0.6,0-1.1-0.5-1.1-1.1v-0.6c0-0.6,0.5-1.1,1.1-1.1H98
					C98.6,207.9,99,208.3,99,208.9z"/>
				<path class="st13" d="M99,205.4v0.6c0,0.6-0.5,1.1-1.1,1.1H79.6c-0.6,0-1.1-0.5-1.1-1.1v-0.6c0-0.6,0.5-1.1,1.1-1.1H98
					C98.6,204.3,99,204.8,99,205.4z"/>
			</g>
		</g>
	</g>
	<path class="st22" d="M326.8,381.2v-14.5h-41.7v14.5c0,0,0,13.8-14.6,13.8s-14.6,0-14.6,0v3.6h99.9V395c0,0,0,0-14.6,0
		C326.8,395,326.8,381.2,326.8,381.2z"/>
	<path class="st23" d="M230.4,267.4c-1.5,1.5-2.7,3.3-3.5,5.3s-1.2,4.1-1.2,6.2s0.4,4.3,1.2,6.2c0.8,2,2,3.8,3.5,5.3
		s3.3,2.7,5.3,3.5s4.1,1.2,6.2,1.2c2.1,0,4.3-0.4,6.2-1.2c2-0.8,3.8-2,5.3-3.5s2.7-3.3,3.5-5.3s1.2-4.1,1.2-6.2s-0.4-4.2-1.2-6.2
		c-0.8-2-2-3.8-3.5-5.3s-3.3-2.7-5.3-3.5c-1.5-0.6-3.1-1-4.7-1.2v-0.8l0,0v-25.5v-6.7V228c0-0.5,0-1,0.1-1.5c0.1-1,0.4-1.9,0.8-2.8
		c1.4-3.3,4.8-5.6,8.3-5.9l26.4,4.1h19.2l-44.7-7c0,0-0.6-0.1-0.8-0.1h-0.1l0,0c-2.2,0.2-4.4,0.9-6.2,2.1c-2.1,1.4-3.8,3.3-4.8,5.6
		c-0.5,1.1-0.9,2.4-1,3.6c-0.1,0.6-0.1,1.3-0.1,1.9v1.7v6.7v25.5l0,0v0.8c-1.6,0.1-3.2,0.5-4.7,1.2
		C233.7,264.6,231.9,265.9,230.4,267.4z M234.4,286.3c1.9,2,4.7,3.1,7.5,3.1s5.5-1.1,7.5-3.1c2-1.9,3.1-4.7,3.1-7.5
		s-1.1-5.5-3.1-7.5c-1.6-1.6-3.7-2.6-5.9-3v-2.7c2.9,0.3,5.8,1.7,7.8,3.8c2.5,2.4,3.9,5.9,3.9,9.3c0,3.5-1.4,6.9-3.9,9.4
		c-2.4,2.5-5.9,3.9-9.4,3.9s-6.9-1.4-9.3-3.9c-2.5-2.4-3.9-5.9-3.9-9.4s1.4-6.9,3.9-9.3c2.1-2.1,4.9-3.5,7.8-3.8v2.7
		c-2.2,0.3-4.4,1.4-5.9,3c-2,1.9-3.1,4.7-3.1,7.5C231.3,281.6,232.4,284.4,234.4,286.3z"/>
	<path class="st23" d="M349.5,217.4c2.3-1.4,5.3-1.4,7.6-0.2c2.3,1.2,4,3.8,4,6.4v9.4v36.7h-0.8c-3.7,0.4-7.2,1.7-10.2,3.9
		c-3.6,2.6-6.4,6.3-7.8,10.6c-0.7,2.1-1.1,4.3-1.1,6.6v5.7v11.2c0,0.6,0.8,1.1,1.9,1.4v11.1c0,0.2,0,0.4,0,0.5s0.1,0.3,0.1,0.4
		c0.1,0.2,0.1,0.5,0.2,0.7c0.2,0.4,0.3,0.8,0.6,1.2c0.4,0.8,1,1.5,1.6,2.1c1.2,1.2,2.7,2.1,4.2,2.7c1,0.4,2.1,0.7,3.1,1
		c0.4,1.2,1.5,2.1,2.9,2.1h3c1.7,0,3-1.3,3-3s-1.3-3-3-3h-3c-0.9,0-1.7,0.4-2.2,1c-0.9-0.2-1.8-0.5-2.6-0.8
		c-1.2-0.5-2.3-1.2-3.2-2.1c-0.4-0.4-0.8-0.9-1.1-1.4c-0.1-0.3-0.3-0.5-0.4-0.8c0-0.1-0.1-0.3-0.1-0.4v-0.2l0,0v-11.1
		c1.1-0.2,1.9-0.8,1.9-1.4v-11.2v-5.6c0-1.5,0.3-3,0.8-4.5c1-2.9,2.9-5.4,5.3-7.2c2.5-1.8,5.5-2.7,8.5-2.7s6.1,1,8.5,2.7
		c2.5,1.8,4.4,4.3,5.3,7.2c0.5,1.4,0.7,2.9,0.8,4.5v5.6v11.2c0,0.6,0.8,1.1,1.9,1.3v11.3v0.2c0,0.1-0.1,0.3-0.1,0.4
		c-0.1,0.3-0.2,0.5-0.4,0.8c-0.3,0.5-0.7,1-1.1,1.4c-0.9,0.9-2,1.6-3.2,2.1c-0.8,0.3-1.7,0.6-2.6,0.8c-0.5-0.6-1.3-1-2.2-1h-3
		c-1.7,0-3,1.3-3,3s1.3,3,3,3h3c1.3,0,2.5-0.9,2.9-2.1c1-0.2,2.1-0.5,3.1-1c1.5-0.6,3-1.5,4.2-2.7c0.6-0.6,1.1-1.3,1.6-2.1
		c0.2-0.4,0.4-0.8,0.6-1.2c0.1-0.2,0.1-0.4,0.2-0.7c0-0.1,0.1-0.2,0.1-0.4c0-0.2,0.1-0.4,0-0.5V309c1.2-0.2,2-0.8,2-1.4v-11.2v-5.7
		c0-2.2-0.4-4.5-1.1-6.6c-1.4-4.2-4.2-8-7.8-10.6c-3-2.2-6.6-3.5-10.3-3.9h-0.8V233v-9.5c-0.1-3.7-2.4-7.2-5.6-8.9
		c-3.2-1.8-7.4-1.7-10.5,0.2c-2.6,1.5-4.4,4.2-5,7.1h3C346.5,220.1,347.8,218.4,349.5,217.4z"/>
	<path class="st24" d="M338.5,291c0-2.6,0.5-5.1,1.3-7.6c1.6-4.9,4.9-9.2,9-12.2c1.8-1.3,3.9-2.4,6-3.2v-3.6h-58.3l-2.9-14.5H257
		v17.3c2.4,3.2,3.8,7.1,3.8,11.4s-1.4,8.2-3.8,11.4v33.8h83.7V312c-1.3-0.3-2.2-0.9-2.2-1.6v-12.9V291L338.5,291z M321.9,297.5h-11
		v11h-9.8v-11h-11v-9.8h11v-11h9.8v11h11V297.5L321.9,297.5z"/>
	<path class="st22" d="M386.4,222.8h-20.6v5.1h25.5v110.4H220.6V227.9h18.5c0.2-1.4,0.4-3.3,0.9-5.1h-14.5c-5.3,0-9.6,4.3-9.6,9.6
		v122.8c0,5.3,4.3,9.6,9.6,9.6h160.8c5.3,0,9.6-4.3,9.6-9.6V232.5C396,227.2,391.7,222.8,386.4,222.8z M324,355.4
		c0,2.4-2,4.4-4.4,4.4h-27.2c-2.4,0-4.4-2-4.4-4.4v-2.9c0-2.4,2-4.4,4.4-4.4h27.2c2.4,0,4.4,1.9,4.4,4.4V355.4L324,355.4z"/>
	<path class="st22" d="M359.4,222.8h-113c-1.1,1.2-1.7,3.5-1.9,5.1h114.9V222.8L359.4,222.8z"/>
	<g>
		<g id="XMLID_6_">
			<g>
				<path class="st22" d="M538.9,424v26.8h-22.5V424H538.9z M536.4,448.5V430h-17.5v18.5H536.4L536.4,448.5z"/>
				<path class="st22" d="M537.5,417.4v4.6c0,0.7-0.5,1.2-1.2,1.2h-17.1c-0.7,0-1.2-0.5-1.2-1.2v-4.6c0-0.7,0.5-1.2,1.2-1.2h17.1
					C536.9,416.2,537.5,416.7,537.5,417.4z M535.4,420.4v-1.2c0-0.3-0.3-0.6-0.6-0.6h-12.4c-0.3,0-0.6,0.3-0.6,0.6v1.2
					c0,0.3,0.3,0.6,0.6,0.6h12.4C535.1,421,535.4,420.7,535.4,420.4z"/>
				<path class="st22" d="M537.5,409.7v4.6c0,0.7-0.5,1.2-1.2,1.2h-17.1c-0.7,0-1.2-0.5-1.2-1.2v-4.6c0-0.7,0.5-1.2,1.2-1.2h17.1
					C536.9,408.5,537.5,409,537.5,409.7z M535.4,412.5v-1.2c0-0.3-0.3-0.6-0.6-0.6h-12.4c-0.3,0-0.6,0.3-0.6,0.6v1.2
					c0,0.3,0.3,0.6,0.6,0.6h12.4C535.2,413.1,535.4,412.8,535.4,412.5z"/>
				<path class="st22" d="M537.5,402v4.6c0,0.7-0.5,1.2-1.2,1.2h-17.1c-0.7,0-1.2-0.5-1.2-1.2v-2.1l0,0h-0.2c-0.1,0-0.1,0-0.2,0
					c-0.1,0-0.3-0.1-0.4-0.1c-0.3-0.1-0.5-0.2-0.7-0.4c-0.5-0.3-0.8-0.7-1.2-1.1c-0.7-0.8-1.3-1.7-1.8-2.6s-0.9-1.9-1.3-2.8
					c-0.4-1-0.7-2-1-3c-0.1-0.2-0.1-0.5-0.2-0.8c-0.1-0.2-0.1-0.5-0.2-0.7c-0.1-0.3-0.2-0.6-0.3-0.8c-0.2-0.4-0.6-0.8-1-1
					c-0.4-0.3-0.9-0.5-1.4-0.6s-1-0.2-1.5-0.3c-0.1,0-0.2,0-0.4,0c0,0.2-0.1,0.5-0.1,0.7h-5.2l-0.9-1.1h-8c0-0.1,0-0.1,0-0.2
					c0-3.9,3.2-7.2,7.2-7.2c2.4,0,4.6,1.2,5.9,3.1c-0.1-0.1-0.3-0.1-0.5-0.1c-0.6,0-1.1,0.5-1.1,1.1s0.5,1.1,1.1,1.1s1-0.4,1.1-1
					c0.1,0.3,0.2,0.6,0.3,1h0.1c0.2,0.1,0.5,0.1,0.7,0.2c0.5,0.2,0.9,0.4,1.3,0.7c0.8,0.6,1.5,1.4,2,2.3l0,0
					c0.1,0.1,0.2,0.3,0.3,0.4c0.1,0.2,0.2,0.4,0.3,0.6l0,0l0,0c0.1,0.3,0.2,0.6,0.3,0.8c0.1,0.2,0.2,0.5,0.2,0.8
					c0.1,0.2,0.1,0.5,0.2,0.7c0.3,1,0.6,2,1,2.9c0.4,1,0.8,1.9,1.3,2.8s1.1,1.8,1.7,2.5c0.3,0.4,0.7,0.7,1.1,1
					c0.2,0.1,0.4,0.3,0.6,0.3c0.1,0,0.2,0.1,0.3,0.1s0.1,0,0.2,0h0.2l0,0V402c0-0.7,0.5-1.2,1.2-1.2h17.1
					C536.9,400.8,537.5,401.3,537.5,402z M535.4,404.8v-1.2c0-0.3-0.3-0.6-0.6-0.6h-12.4c-0.3,0-0.6,0.3-0.6,0.6v1.2
					c0,0.3,0.3,0.6,0.6,0.6h12.4C535.1,405.4,535.4,405.1,535.4,404.8z M509.1,390.6l-0.1-0.1c-0.4-0.3-0.8-0.6-1.2-0.8
					c-0.5-0.2-0.9-0.4-1.4-0.4c-0.1,0-0.2,0-0.3,0c0,0.2,0,0.4,0,0.6c0,0.1,0,0.1,0,0.2c0.1,0,0.3,0,0.4,0c0.5,0,1.1,0.1,1.6,0.3
					C508.4,390.2,508.8,390.4,509.1,390.6z M508,389.2c0,0,0.1,0,0.1,0.1c-0.1-0.1-0.2-0.2-0.3-0.3c-0.4-0.3-0.8-0.5-1.3-0.7
					c-0.2-0.1-0.4-0.1-0.6-0.2c0,0.2,0.1,0.4,0.1,0.5c0.1,0,0.3,0,0.4,0.1C507,388.8,507.5,389,508,389.2z M503.2,388.9
					c0-0.6-0.5-1.1-1.1-1.1s-1.1,0.5-1.1,1.1s0.5,1.1,1.1,1.1S503.2,389.6,503.2,388.9z M502.7,385.7c0-0.6-0.5-1.1-1.1-1.1
					s-1.1,0.5-1.1,1.1s0.5,1.1,1.1,1.1C502.2,386.8,502.7,386.3,502.7,385.7z M499.4,387.3c0-0.6-0.5-1.1-1.1-1.1s-1.1,0.5-1.1,1.1
					s0.5,1.1,1.1,1.1S499.4,387.9,499.4,387.3z M497.7,384.6c0-0.6-0.5-1.1-1.1-1.1s-1.1,0.5-1.1,1.1s0.5,1.1,1.1,1.1
					S497.7,385.2,497.7,384.6z M495.3,387.3c0-0.6-0.5-1.1-1.1-1.1s-1.1,0.5-1.1,1.1s0.5,1.1,1.1,1.1S495.3,387.9,495.3,387.3z"/>
				<rect x="531.2" y="411.4" class="st22" width="2.8" height="1"/>
				<rect x="531.2" y="419.3" class="st22" width="2.8" height="1"/>
				<rect x="531.2" y="403.7" class="st22" width="2.8" height="1"/>
				<path class="st22" d="M528.2,411.4c0.3,0,0.5,0.2,0.5,0.5s-0.2,0.5-0.5,0.5s-0.5-0.2-0.5-0.5
					C527.6,411.7,527.9,411.4,528.2,411.4z"/>
				<path class="st22" d="M528.1,419.3c0.3,0,0.5,0.2,0.5,0.5s-0.2,0.5-0.5,0.5s-0.5-0.2-0.5-0.5S527.8,419.3,528.1,419.3z"/>
				<path class="st22" d="M526.7,411.4c0.3,0,0.5,0.2,0.5,0.5s-0.2,0.5-0.5,0.5s-0.5-0.2-0.5-0.5
					C526.2,411.7,526.4,411.4,526.7,411.4z"/>
				<path class="st22" d="M526.7,403.7c0.3,0,0.5,0.2,0.5,0.5s-0.2,0.5-0.5,0.5s-0.5-0.2-0.5-0.5C526.2,404,526.4,403.7,526.7,403.7
					z"/>
				<circle class="st22" cx="526.7" cy="419.8" r="0.5"/>
				<path class="st22" d="M525.2,411.4c0.3,0,0.5,0.2,0.5,0.5s-0.2,0.5-0.5,0.5s-0.5-0.2-0.5-0.5
					C524.7,411.7,524.9,411.4,525.2,411.4z"/>
				<path class="st22" d="M525.2,403.7c0.3,0,0.5,0.2,0.5,0.5s-0.2,0.5-0.5,0.5s-0.5-0.2-0.5-0.5C524.6,404,524.9,403.7,525.2,403.7
					z"/>
				<path class="st22" d="M525.2,419.3c0.3,0,0.5,0.2,0.5,0.5s-0.2,0.5-0.5,0.5s-0.5-0.2-0.5-0.5
					C524.6,419.5,524.9,419.3,525.2,419.3z"/>
				<path class="st22" d="M523.8,411.4c0.3,0,0.5,0.2,0.5,0.5s-0.2,0.5-0.5,0.5s-0.5-0.2-0.5-0.5
					C523.2,411.7,523.5,411.4,523.8,411.4z"/>
				<path class="st22" d="M523.7,403.7c0.3,0,0.5,0.2,0.5,0.5s-0.2,0.5-0.5,0.5s-0.5-0.2-0.5-0.5C523.2,404,523.4,403.7,523.7,403.7
					z"/>
				<path class="st22" d="M523.7,419.3c0.3,0,0.5,0.2,0.5,0.5s-0.2,0.5-0.5,0.5s-0.5-0.2-0.5-0.5S523.4,419.3,523.7,419.3z"/>
				<path class="st22" d="M514,420.8c0,0,1.5,10.8-8.2,10.8c-0.8,0-1.6,0-2.3,0c-4.6,0-8.5,0-11.1,0l-4,16.8
					c-0.4,1.7-2.1,2.7-3.8,2.3l-0.7-0.2c-1.7-0.4-2.7-2.1-2.3-3.8l4.7-19.7c0.3-1.3,1.4-2.2,2.7-2.4c0.1,0,0.3,0,0.4,0h10.9
					c-0.4-0.9-1.4-3.2-1.4-5.8c0-3.4,0-6.6,0-6.6l6.9-5.6c0,0,3.2-2.5,1.2-5.9c-1.7-2.9-4.5-2.6-4.5-2.6v-1c0,0,9.2-1.2,9.8,7.1
					L514,420.8z"/>
				<path class="st22" d="M511.8,433.7c0.6,0,1.1,0.5,1.1,1.1s-0.5,1.1-1.1,1.1h-15.7v14.8h-3.3v-16c0-0.6,0.5-1.1,1.1-1.1
					L511.8,433.7L511.8,433.7z"/>
				<path class="st22" d="M500.4,391.5h5.4c-0.8,3-3.6,5.3-6.9,5.3c-3.7,0-6.7-2.8-7.1-6.4h7.7L500.4,391.5z"/>
				<path class="st22" d="M505.2,401c1,1.2,0.8,3-0.5,4l-6.8,5.4c-0.3,0.3-0.7,0.4-1,0.5c-0.4,0.2-0.8,0.3-1.3,0.3h-11.4
					c-1.6,0-2.9-1.3-2.9-2.9s1.3-2.9,2.9-2.9h10.7l6.3-5C502.4,399.5,504.2,399.7,505.2,401z"/>
				<path class="st22" d="M504.3,386.1c0.3,0,0.5,0.2,0.5,0.5s-0.2,0.5-0.5,0.5s-0.5-0.2-0.5-0.5
					C503.8,386.4,504.1,386.1,504.3,386.1z"/>
				<path class="st22" d="M502.1,388.4c0.3,0,0.5,0.2,0.5,0.5s-0.2,0.5-0.5,0.5s-0.5-0.2-0.5-0.5
					C501.6,388.7,501.9,388.4,502.1,388.4z"/>
				<path class="st22" d="M501.6,385.2c0.3,0,0.5,0.2,0.5,0.5s-0.2,0.5-0.5,0.5s-0.5-0.2-0.5-0.5S501.4,385.2,501.6,385.2z"/>
				<path class="st22" d="M498.3,386.8c0.3,0,0.5,0.2,0.5,0.5s-0.2,0.5-0.5,0.5s-0.5-0.2-0.5-0.5
					C497.8,387.1,498.1,386.8,498.3,386.8z"/>
				<path class="st22" d="M496.6,384.1c0.3,0,0.5,0.2,0.5,0.5s-0.2,0.5-0.5,0.5s-0.5-0.2-0.5-0.5
					C496.1,384.4,496.3,384.1,496.6,384.1z"/>
				<path class="st22" d="M494.2,386.8c0.3,0,0.5,0.2,0.5,0.5s-0.2,0.5-0.5,0.5s-0.5-0.2-0.5-0.5
					C493.7,387.1,493.9,386.8,494.2,386.8z"/>
				<path class="st22" d="M488.6,421.2c0.5,0,0.8,0.4,0.8,0.8c0,0.5-0.4,0.8-0.8,0.8h-24.3c0.2,0.3,0.3,0.7,0.3,1.1v24.5
					c0,1.3-1.1,2.4-2.4,2.4s-2.4-1.1-2.4-2.4v-24.5c0-0.4,0.1-0.7,0.2-1.1h-1.7c-0.5,0-0.8-0.4-0.8-0.8c0-0.5,0.4-0.8,0.8-0.8H488.6
					L488.6,421.2z"/>
				<path class="st22" d="M478.7,412.3c0.2,0.7-0.2,1.3-0.8,1.3h-19.5c-0.6,0-1.3-0.6-1.5-1.3l-3.9-14.4c-0.2-0.7,0.2-1.3,0.8-1.3
					h19.5c0.6,0,1.3,0.6,1.5,1.3L478.7,412.3z M477.7,413.1l-0.2-0.6h-0.6l0.2,0.6H477.7z M477.4,411.7l-3.8-14.1h-19.5l3.8,14.1
					H477.4z M476.7,413.1l-0.2-0.6h-1.3l0.2,0.6H476.7z M475.1,413.1l-0.2-0.6h-1.3l0.2,0.6H475.1z"/>
				<path class="st22" d="M473.3,416.4c0.8,0,1.5,0.7,1.5,1.5s-0.7,1.5-1.5,1.5h-12c-0.8,0-1.5-0.7-1.5-1.5s0.7-1.5,1.5-1.5h1.6V414
					h8.8v2.4H473.3L473.3,416.4z"/>
				<path class="st22" d="M473.8,408.5l0.4,1.7l-0.9-1.5l-0.8-1.4h-1.7l-1.5-4.1l0.5,3.6l-1.8-2.5h-3l1.2,5.9l-3.4-6l0.8,6.5
					l-3.3-6.7l0.5,2.9h-1.3c-1.1,0-1.9-0.1-1.9-0.3c0-0.2,0.9-0.3,1.9-0.3h0.7l-0.9-5.8l3.5,7.2l-0.7-6l3.1,5.4l-0.7-3.3h3.9l0.7,1
					l-0.9-6.4l3.2,8.4h1.6l0.1,0.1l-0.4-1.9l-0.1-0.6h0.7h0.2h0.1c0.2,0,0.4,0,0.5,0.1c0.3,0,0.5,0.1,0.5,0.2s-0.2,0.1-0.5,0.2
					c-0.1,0-0.3,0-0.5,0.1h-0.1h-0.1l0,0l0,0L473.8,408.5z"/>
			</g>
		</g>
	</g>
	<ellipse transform="matrix(0.6833 -0.7301 0.7301 0.6833 27.4153 251.7445)" class="st25" cx="303.9" cy="94.3" rx="62" ry="62"/>
	<path class="st13" d="M312.8,88.2c0,0-1.6-0.8-1.6-4.1c0-2.7,0-13.2,0-16.7c1-0.6,1.6-1.4,1.7-2.2h0.4v-7.3h-0.4c0-0.1,0-0.2,0-0.3
		c0-2.2-4.6-3.9-10.2-3.9s-10.2,1.8-10.2,3.9c0,0.1,0,0.2,0,0.3h-0.2v7.3h0.2c0.2,0.9,0.8,1.7,2.9,2.3c0,3.6,0,14,0,16.7
		c0,3.3-2.2,4.1-2.2,4.1c-3.8,2.2-25.8,24.4-16.3,31.1c8.6,6,23,5.8,25.9,5.7c2.9,0.1,17.3,0.3,25.8-5.7
		C338.3,112.6,316.6,90.4,312.8,88.2z M312.3,119.5c0,0,10.9-2.1,11.4-7.9s-9.8-16.7-9.8-16.7s13.5,10.4,13.4,17.4
		C327.1,119.5,312.3,119.5,312.3,119.5z"/>
</g>
</svg>
