<svg id="Layer_1" data-name="Layer 1" xmlns="http://www.w3.org/2000/svg" viewBox="0 0 604 604"><defs><style>.cls-1{fill:#209fed;}.cls-2{fill:#177296;}.cls-3{fill:#fdf2f4;}.cls-21,.cls-23,.cls-3,.cls-4,.cls-5{fill-rule:evenodd;}.cls-4{fill:#bbbdbf;}.cls-5{fill:#2c2d2c;}.cls-21,.cls-22,.cls-23,.cls-6{fill:#fff;}.cls-15,.cls-7{fill:#56c4cf;}.cls-16,.cls-8{fill:#6c8bc6;}.cls-19,.cls-9{fill:#43525a;}.cls-10,.cls-17{fill:#f48245;}.cls-11{fill:#d5cb70;}.cls-11,.cls-14,.cls-15,.cls-16,.cls-17,.cls-18,.cls-19,.cls-20,.cls-21{stroke:#fff;stroke-miterlimit:10;}.cls-11,.cls-15,.cls-16,.cls-17,.cls-18,.cls-19,.cls-20{stroke-width:2px;}.cls-12{fill:#929497;}.cls-13,.cls-20{fill:#a5cd39;}.cls-14,.cls-18{fill:#3c8376;}.cls-22{font-size:21px;font-family:ArialMT, Arial;letter-spacing:0.02em;}</style></defs><title>and402</title><circle class="cls-1" cx="302" cy="302" r="302"/><ellipse class="cls-2" cx="306.23" cy="432.5" rx="76.5" ry="9.98"/><path class="cls-3" d="M269,435.37a3.45,3.45,0,0,1,3-3.43l6.68-.82,6.7-25.57h49.68l6.7,25.57,6.68.82a3.45,3.45,0,0,1,3,3.43Z" transform="translate(-4 -4)"/><polygon class="cls-4" points="280.01 405.82 281.12 401.56 330.8 401.56 331.92 405.82 280.01 405.82"/><path class="cls-5" d="M184.82,384.19V240.67a5.55,5.55,0,0,1,5.55-5.55h235a5.55,5.55,0,0,1,5.55,5.55V384.19Z" transform="translate(-4 -4)"/><path class="cls-3" d="M425.39,406.37h-235a5.55,5.55,0,0,1-5.55-5.54V384.19H430.94v16.64A5.54,5.54,0,0,1,425.39,406.37Z" transform="translate(-4 -4)"/><rect class="cls-6" x="188.44" y="240.83" width="230.87" height="129.65"/><rect class="cls-7" x="188.44" y="363" width="230.87" height="7.48"/><rect class="cls-8" x="227.08" y="244.79" width="95.59" height="6.26"/><rect class="cls-8" x="227.6" y="253" width="56.55" height="6.26"/><rect class="cls-9" x="192" y="262.5" width="29" height="96.5"/><rect class="cls-10" x="192.03" y="244.41" width="29.04" height="13.09"/><rect class="cls-7" x="295.17" y="263" width="58.83" height="36.59"/><rect class="cls-11" x="226.67" y="262.9" width="62.33" height="36.8"/><rect class="cls-12" x="228.22" y="303.26" width="60.28" height="1.92"/><rect class="cls-12" x="228.22" y="306.75" width="60.28" height="1.92"/><rect class="cls-12" x="228.22" y="310.24" width="60.28" height="1.92"/><rect class="cls-12" x="228.22" y="313.73" width="60.28" height="1.92"/><rect class="cls-12" x="228.22" y="317.22" width="60.28" height="1.92"/><rect class="cls-12" x="228.22" y="320.71" width="41.78" height="1.92"/><rect class="cls-12" x="228.22" y="324.2" width="32.78" height="1.92"/><rect class="cls-12" x="295.72" y="303.26" width="60.28" height="1.92"/><rect class="cls-12" x="295.72" y="306.75" width="60.28" height="1.92"/><rect class="cls-12" x="295.72" y="310.24" width="60.28" height="1.92"/><rect class="cls-12" x="295.72" y="313.73" width="60.28" height="1.92"/><rect class="cls-12" x="295.72" y="317.22" width="60.28" height="1.92"/><rect class="cls-12" x="295.72" y="320.71" width="41.78" height="1.92"/><rect class="cls-12" x="295.72" y="324.2" width="32.78" height="1.92"/><rect class="cls-12" x="361.22" y="302.76" width="52.28" height="1.92"/><rect class="cls-12" x="361.22" y="306.25" width="52.28" height="1.92"/><rect class="cls-12" x="361.22" y="309.74" width="52.28" height="1.92"/><rect class="cls-12" x="361.22" y="313.23" width="52.28" height="1.92"/><rect class="cls-12" x="361.22" y="316.72" width="52.28" height="1.92"/><rect class="cls-12" x="361.22" y="320.21" width="36.23" height="1.92"/><rect class="cls-12" x="361.22" y="323.7" width="28.43" height="1.92"/><rect class="cls-13" x="360" y="263.52" width="53.5" height="35.56"/><rect class="cls-10" x="296.17" y="332.47" width="58.83" height="25.96"/><rect class="cls-14" x="227.67" y="332.4" width="62.33" height="26.1"/><rect class="cls-8" x="361" y="332.84" width="53.5" height="25.22"/><circle class="cls-15" cx="85.75" cy="330.18" r="36.25"/><circle class="cls-16" cx="527.25" cy="331.25" r="36.25"/><circle class="cls-17" cx="115.28" cy="215.34" r="36.25"/><circle class="cls-11" cx="492.92" cy="215.34" r="36.25"/><circle class="cls-18" cx="193.63" cy="133.65" r="36.25"/><circle class="cls-19" cx="415.55" cy="133.65" r="36.25"/><circle class="cls-20" cx="305.96" cy="104.25" r="36.25"/><path class="cls-21" d="M309.19,153.19h-.88v-1.76h.88v1.76Zm33.76,74.15v-2.18h-5v4.37h0v0h5v-2.18Zm-2.89-4.5h-.88v-1.76h.88v1.76Zm0-5.29h-.88v-1.76h.88v1.76Zm0-5.29h-.2l-.24.24h-1.56v-.88h2v.64Zm-5.53-.64v.88h-1.76v-.88Zm-5.29,0v.88h-1.76v-.88Zm-5.29,0v.88h-1.76v-.88Zm-5.29,0v.88h-1.76v-.88Zm-5.29,0v.88H311.6v-.88Zm-4.17-.23h-.88v-1.76h.88v1.76Zm0-5.29h-.88v-1.76h.88v1.76Zm0-5.29h-.88V199h.88v1.76Zm0-5.29h-.88v-1.76h.88v1.76Zm0-5.29h-.88v-1.76h.88v1.76Zm0-5.29h-.88v-1.76h.88v1.76Zm0-5.29h-.88v-1.76h.88v1.76Zm0-5.29h-.88v-1.76h.88v1.76Zm0-5.29h-.88V167.3h.88v1.76Zm0-5.29h-.88V162h.88v1.76Zm0-5.29h-.88v-1.76h.88Z" transform="translate(-4 -4)"/><path class="cls-21" d="M198.51,179.65h-.88v-1.76h.88v1.76Zm37.73,47.69v-2.18h-5v4.37h0v0h5v-2.18Zm-2.89-8.46h-.88v-1.76h.88v1.76Zm0-5.29h-.88v-1.76h.88v1.76ZM232,208.75v.88h-1.76v-.88Zm-5.29,0v.88H225v-.88Zm-5.29,0v.88h-1.76v-.88Zm-5.29,0v.88h-1.76v-.88Zm-5.29,0v.88h-1.76v-.88Zm-5.29,0v.88h-1.76v-.88Zm-5.29,0v.88H198.5v-.88Zm-1.76-2.65h-.88v-1.76h.88v1.76Zm0-5.29h-.88V199h.88v1.76Zm0-5.29h-.88v-1.76h.88v1.76Zm0-5.29h-.88v-1.76h.88v1.76Zm0-5.29h-.88v-1.76h.88Z" transform="translate(-4 -4)"/><path class="cls-21" d="M418.55,178.77h-.88V177h.88v1.76ZM371.8,223.12h2.48l0,0,0,0,0,0,0,0,0,0,0,0,0,0,0,0,0,0,0,0,0,0,0,0,0,0,0,0,0,0,0,0,0,0,0,0,0,0,0,0,0,0,0,0,0,0,0,0,0,0,0,0,0,0,0,0,0,0,0,0,0,0,0,0,0,0,0,0,0,0,0,0,0,0,0,0,0,0,0,0,0,0,0,0,0,0,0,0,0,0,0,0,0,0,0,0,0,0,0,0v0l0,0v5l0,0v0l0,0,0,0,0,0,0,0,0,0,0,0,0,0,0,0,0,0,0,0,0,0,0,0,0,0,0,0,0,0,0,0,0,0,0,0,0,0,0,0,0,0,0,0,0,0,0,0,0,0,0,0,0,0,0,0,0,0,0,0,0,0,0,0,0,0,0,0,0,0,0,0,0,0,0,0,0,0,0,0,0,0,0,0,0,0,0,0,0,0,0,0,0,0,0,0,0,0h0l0,0h-4.93l0,0h0l0,0,0,0,0,0,0,0,0,0,0,0,0,0,0,0,0,0,0,0,0,0,0,0,0,0,0,0,0,0,0,0,0,0,0,0,0,0,0,0,0,0,0,0,0,0,0,0,0,0,0,0,0,0,0,0,0,0,0,0,0,0,0,0,0,0,0,0,0,0,0,0,0,0,0,0,0,0,0,0,0,0,0,0,0,0,0,0,0,0,0,0,0,0,0,0v-5l0,0,0,0,0,0,0,0,0,0,0,0,0,0,0,0,0,0,0,0,0,0,0,0,0,0,0,0,0,0,0,0,0,0,0,0,0,0,0,0,0,0,0,0,0,0,0,0,0,0,0,0,0,0,0,0,0,0,0,0,0,0,0,0,0,0,0,0,0,0,0,0,0,0,0,0,0,0,0,0,0,0,0,0,0,0,0,0,0,0,0,0,0,0,0,0,0,0,0,0h2.5Zm.44-.72h-.88v-1.76h.88v1.76Zm0-5.29h-.88v-1.76h.88v1.76Zm0-5.29h-.88v-1.76h.88v1.76Zm-.42-4.83v-.88h1.76V207Zm5.29,0v-.88h1.76V207Zm5.29,0v-.88h1.76V207Zm5.29,0v-.88h1.76V207Zm5.29,0v-.88h1.76V207Zm5.29,0v-.88H400V207Zm5.29,0v-.88h1.76V207Zm5.29,0v-.88h1.76V207Zm5.29,0v-.88h1.76V207Zm4.4-1.77h-.88v-1.76h.88v1.76Zm0-5.29h-.88v-1.76h.88v1.76Zm0-5.29h-.88v-1.76h.88v1.76Zm0-5.29h-.88v-1.76h.88v1.76Zm0-5.29h-.88v-1.76h.88Z" transform="translate(-4 -4)"/><path class="cls-21" d="M118.25,261.23h-.88v-1.76h.88v1.76Zm54.08,18.52h0v-2l0,0,0,0,0,0,0,0,0,0,0,0,0,0,0,0,0,0,0,0,0,0,0,0,0,0,0,0,0,0,0,0,0,0,0,0,0,0,0,0,0,0,0,0,0,0,0,0,0,0,0,0,0,0,0,0,0,0,0,0,0,0,0,0,0,0,0,0,0,0,0,0,0,0,0,0,0,0,0,0,0,0,0,0,0,0,0,0,0,0,0,0,0,0,0,0,0,0h5l0,0h0l0,0,0,0,0,0,0,0,0,0,0,0,0,0,0,0,0,0,0,0,0,0,0,0,0,0,0,0,0,0,0,0,0,0,0,0,0,0,0,0,0,0,0,0,0,0,0,0,0,0,0,0,0,0,0,0,0,0,0,0,0,0,0,0,0,0,0,0,0,0,0,0,0,0,0,0,0,0,0,0,0,0,0,0,0,0,0,0,0,0,0,0,0,0,0,0,0,0v5l0,0v0l0,0,0,0,0,0,0,0,0,0,0,0,0,0,0,0,0,0,0,0,0,0,0,0,0,0,0,0,0,0,0,0,0,0,0,0,0,0,0,0,0,0,0,0,0,0,0,0,0,0,0,0,0,0,0,0,0,0,0,0,0,0,0,0,0,0,0,0,0,0,0,0,0,0,0,0,0,0,0,0,0,0,0,0,0,0,0,0,0,0,0,0,0,0,0,0h-5l0,0,0,0,0,0,0,0,0,0,0,0,0,0,0,0,0,0,0,0,0,0,0,0,0,0,0,0,0,0,0,0,0,0,0,0,0,0,0,0,0,0,0,0,0,0,0,0,0,0,0,0,0,0,0,0,0,0,0,0,0,0,0,0,0,0,0,0,0,0,0,0,0,0,0,0,0,0,0,0,0,0,0,0,0,0,0,0,0,0,0,0,0,0,0,0,0,0,0,0v-2.06h-1.18v-.88Zm-4.71,0v.88h-1.76v-.88Zm-5.29,0v.88h-1.76v-.88Zm-5.29,0v.88h-1.76v-.88Zm-5.29,0v.88H150v-.88Zm-5.29,0v.88H144.7v-.88Zm-5.29,0v.88h-1.76v-.88Zm-5.29,0v.88h-1.76v-.88Zm-5.29,0v.88h-1.76v-.88Zm-5.29,0v.88h-1.76v-.88Zm-5.29,0v.88h-1.76v-.88Zm-1.76-2.65h-.88v-1.76h.88v1.76Zm0-5.29h-.88V270h.88v1.76Zm0-5.29h-.88v-1.76h.88Z" transform="translate(-4 -4)"/><path class="cls-21" d="M127.67,336.19v.88H126v-.88Zm45.08,0h0V334l0,0,0,0,0,0,0,0,0,0,0,0,0,0,0,0,0,0,0,0,0,0,0,0,0,0,0,0,0,0,0,0,0,0,0,0,0,0,0,0,0,0,0,0,0,0,0,0,0,0,0,0,0,0,0,0,0,0,0,0,0,0,0,0,0,0,0,0,0,0,0,0,0,0,0,0,0,0,0,0,0,0,0,0,0,0h4.75l0,0h0l0,0,0,0,0,0,0,0,0,0,0,0,0,0,0,0,0,0,0,0,0,0,0,0,0,0,0,0,0,0,0,0,0,0,0,0,0,0,0,0,0,0,0,0,0,0,0,0,0,0,0,0,0,0,0,0,0,0,0,0,0,0,0,0,0,0,0,0,0,0,0,0,0,0,0,0,0,0,0,0,0,0v0l0,0v5.25l0,0,0,0,0,0,0,0,0,0,0,0,0,0,0,0,0,0,0,0,0,0,0,0,0,0,0,0,0,0,0,0,0,0,0,0,0,0,0,0,0,0,0,0,0,0,0,0,0,0,0,0,0,0,0,0,0,0,0,0,0,0,0,0,0,0,0,0,0,0,0,0,0,0,0,0,0,0,0,0,0,0,0,0,0,0h-4.77l0,0,0,0,0,0,0,0,0,0,0,0,0,0,0,0,0,0,0,0,0,0,0,0,0,0,0,0,0,0,0,0,0,0,0,0,0,0,0,0,0,0,0,0,0,0,0,0,0,0,0,0,0,0,0,0,0,0,0,0,0,0,0,0,0,0,0,0,0,0,0,0,0,0,0,0,0,0,0,0,0,0,0,0,0,0,0,0v-2.19h-1.53v-.88Zm-4.88,0v.88H166.2v-.88Zm-5,0v.88h-1.67v-.88Zm-5,0v.88h-1.67v-.88Zm-5,0v.88h-1.67v-.88Zm-5,0v.88H146.1v-.88Zm-5,0v.88h-1.67v-.88Zm-5,0v.88H136v-.88Zm-5,0v.88H131v-.88Z" transform="translate(-4 -4)"/><path class="cls-21" d="M493.07,335.75v-.88h1.76v.88ZM440.26,332h-1.78v0h0v4.36h5v-4.36h0v0H440.3m5.16,3.71v-.88h1.76v.88Zm5.29,0v-.88h1.76v.88Zm5.29,0v-.88h1.76v.88Zm5.29,0v-.88h1.76v.88Zm5.29,0v-.88h1.76v.88Zm5.29,0v-.88h1.76v.88Zm5.29,0v-.88H479v.88Zm5.29,0v-.88h1.76v.88Zm5.29,0v-.88h1.76v.88Z" transform="translate(-4 -4)"/><path class="cls-21" d="M496.6,260.34h-.88v-1.76h.88v1.76ZM445.19,278v2.51l0,0,0,0,0,0,0,0,0,0,0,0,0,0,0,0,0,0,0,0,0,0,0,0,0,0,0,0,0,0,0,0,0,0,0,0,0,0,0,0,0,0,0,0,0,0,0,0,0,0,0,0,0,0,0,0,0,0,0,0,0,0,0,0,0,0,0,0,0,0,0,0,0,0,0,0,0,0,0,0,0,0,0,0,0,0,0,0,0,0,0,0,0,0,0,0,0,0h-5l0,0h0l0,0,0,0,0,0,0,0,0,0,0,0,0,0,0,0,0,0,0,0,0,0,0,0,0,0,0,0,0,0,0,0,0,0,0,0,0,0,0,0,0,0,0,0,0,0,0,0,0,0,0,0,0,0,0,0,0,0,0,0,0,0,0,0,0,0,0,0,0,0,0,0,0,0,0,0,0,0,0,0,0,0,0,0,0,0,0,0,0,0,0,0,0,0,0,0,0,0v-5l0,0v0l0,0,0,0,0,0,0,0,0,0,0,0,0,0,0,0,0,0,0,0,0,0,0,0,0,0,0,0,0,0,0,0,0,0,0,0,0,0,0,0,0,0,0,0,0,0,0,0,0,0,0,0,0,0,0,0,0,0,0,0,0,0,0,0,0,0,0,0,0,0,0,0,0,0,0,0,0,0,0,0,0,0,0,0,0,0,0,0,0,0,0,0,0,0,0,0h0l0,0h5l0,0,0,0,0,0,0,0,0,0,0,0,0,0,0,0,0,0,0,0,0,0,0,0,0,0,0,0,0,0,0,0,0,0,0,0,0,0,0,0,0,0,0,0,0,0,0,0,0,0,0,0,0,0,0,0,0,0,0,0,0,0,0,0,0,0,0,0,0,0,0,0,0,0,0,0,0,0,0,0,0,0,0,0,0,0,0,0,0,0,0,0,0,0,0,0,0,0,0,0,0,0V278Zm.32.44v-.88h1.76v.88Zm5.29,0v-.88h1.76v.88Zm5.29,0v-.88h1.76v.88Zm5.29,0v-.88h1.76v.88Zm5.29,0v-.88h1.76v.88Zm5.29,0v-.88h1.76v.88Zm5.29,0v-.88H479v.88Zm5.29,0v-.88h1.76v.88Zm5.29,0v-.88h1.76v.88Zm5.29,0v-.88H494l.91.18-.17.86-.87-.17Zm3.48-2.21h-.88v-1.76h.88v1.76Zm0-5.29h-.88v-1.76h.88v1.76Zm0-5.29h-.88v-1.76h.88Z" transform="translate(-4 -4)"/><text class="cls-22" transform="translate(114.6 488.04)">FHIR Interoperability Implementation for <tspan x="55.92" y="36">Nutrition Management Portal</tspan></text><path class="cls-6" d="M97.08,327.68a1.62,1.62,0,0,0-1.62-1.62H80.82a1.62,1.62,0,0,0,0,3.25H95.45a1.62,1.62,0,0,0,1.62-1.62Zm-16.26,4.87a1.62,1.62,0,0,0-1.62,1.62h0a1.62,1.62,0,0,0,1.62,1.62h9.76a1.62,1.62,0,0,0,1.62-1.62h0a1.62,1.62,0,0,0-1.62-1.62Zm.81,16.27H80a4.07,4.07,0,0,1-4.07-4.07V323.61A4.07,4.07,0,0,1,80,319.55H96.27a4.07,4.07,0,0,1,4.07,4.07v4.07a1.62,1.62,0,1,0,3.25,0V322.8a6.51,6.51,0,0,0-6.51-6.51H79.19a6.51,6.51,0,0,0-6.51,6.51v22.76a6.51,6.51,0,0,0,6.51,6.51h2.44a1.63,1.63,0,0,0,0-3.25ZM105.41,334a4.81,4.81,0,0,0-6.82,0l-10.53,10.4h0a1.6,1.6,0,0,0-.58,1.23v4.85a1.61,1.61,0,0,0,1.61,1.62h4.82a1.6,1.6,0,0,0,1.38-.8h0l10.1-10.45a4.87,4.87,0,0,0,0-6.86Zm-2.27,4.57-9.93,10.3H90.7v-2.54l10.16-10a1.6,1.6,0,0,1,2.27,0,1.62,1.62,0,0,1,0,2.29Zm-17.44.53H80.82a1.63,1.63,0,0,0,0,3.25H85.7a1.63,1.63,0,0,0,0-3.25Z" transform="translate(-4 -4)"/><path class="cls-6" d="M211.9,153.15c0-1.4-1.61-3.28-3.78-3.84a3.7,3.7,0,0,0,1.53-2.9,2.77,2.77,0,1,0-5.54,0,3.7,3.7,0,0,0,1.53,2.9c-2.17.55-3.78,2.44-3.78,3.84C201.86,154.8,211.9,154.8,211.9,153.15Z" transform="translate(-4 -4)"/><path class="cls-6" d="M188.5,125.78c1.24,0,2.25-1.44,2.25-2.68a2.25,2.25,0,1,0-4.5,0C186.25,124.34,187.26,125.78,188.5,125.78Z" transform="translate(-4 -4)"/><path class="cls-6" d="M212.07,132.39v-9.52a1.59,1.59,0,0,0-1.59-1.59h-6.15V120.1a.6.6,0,0,0-1.19,0v1.19H197a1.59,1.59,0,0,0-1.59,1.59v4.87l-3.08-1a14.07,14.07,0,0,0-3.51-.75l-.21.42h0l.6,4.66-.71,1.24-.71-1.24.6-4.66h0l-.21-.43a14.2,14.2,0,0,0-3.53.76l-.08.05-.15.09a.74.74,0,0,0-.12.11.9.9,0,0,0-.1.14.74.74,0,0,0-.07.16s0,.05,0,.09l-1.42,6.4a.89.89,0,0,0,.67,1.06l.19,0a.88.88,0,0,0,.86-.69l1.31-5.91.31-.09v6.07l-.71,8.8a1,1,0,0,0,.35.86,2.77,2.77,0,0,0-1.64,2.53,3.7,3.7,0,0,0,1.53,2.9c-2.17.55-3.78,2.44-3.78,3.84,0,1.65,10,1.65,10,0,0-1.4-1.61-3.28-3.78-3.84a3.7,3.7,0,0,0,1.53-2.9,2.77,2.77,0,0,0-2.31-2.73,1,1,0,0,0,.18-.49l.64-8a1.09,1.09,0,0,0,.43.09,1.08,1.08,0,0,0,.43-.09l.64,8a1.07,1.07,0,0,0,1.06,1h.09a1.07,1.07,0,0,0,1-1.15l-.71-8.8v-6.07c.45.13.76.24.76.24h0l3.64,1.22v2.77A1.59,1.59,0,0,0,197,134h2.89l-2.53,9.45a.6.6,0,0,0,0,.26,2.85,2.85,0,0,0-.52-.05,2.77,2.77,0,0,0-2.77,2.77,3.7,3.7,0,0,0,1.53,2.9c-2.17.55-3.78,2.44-3.78,3.84,0,1.65,10,1.65,10,0,0-1.4-1.61-3.28-3.78-3.84a3.7,3.7,0,0,0,1.53-2.9,2.76,2.76,0,0,0-1.32-2.35.58.58,0,0,0,.22-.32l2.61-9.76h2v6.92a.6.6,0,0,0,1.19,0V134h2l2.61,9.76a.59.59,0,0,0,.58.44l.15,0a.6.6,0,0,0,.42-.73L207.6,134h2.89A1.58,1.58,0,0,0,212.07,132.39Zm-15.07.79a.79.79,0,0,1-.79-.79v-2.53l.11,0a.89.89,0,0,0,.28-1.73l-.4-.13v-5.14a.79.79,0,0,1,.79-.79h13.48a.79.79,0,0,1,.79.79v9.52a.79.79,0,0,1-.79.79Z" transform="translate(-4 -4)"/><path class="cls-6" d="M305.73,89.24a3.39,3.39,0,1,0,3.39,3.39A3.39,3.39,0,0,0,305.73,89.24Z" transform="translate(-4 -4)"/><path class="cls-6" d="M327.19,106.19h-7.53v2.26h4.14v13.93a1.13,1.13,0,0,0,2.26,0V108.45h1.13a1.13,1.13,0,1,0,0-2.26Z" transform="translate(-4 -4)"/><path class="cls-6" d="M317.35,106.19c-.51-5.82-4.83-10.16-6.72-10.16-1.7,0-2.16,1.48-2.92,3l-1.2,2.42-4.26,4.26a2.23,2.23,0,0,0-.35.47h-7.09a1.13,1.13,0,0,0,0,2.26h1.13v13.93a1.13,1.13,0,0,0,2.26,0V108.45h3.7c.58,1,2.08,1.92,4,0h7v12.8a2.26,2.26,0,0,0,4.52,0v-12.8S317.36,106.19,317.35,106.19Zm-9.17,0c1-1.05,2-2,2.11-2.21l1.21-2a19.19,19.19,0,0,1,1.31,4.19Z" transform="translate(-4 -4)"/><path class="cls-6" d="M425.14,133.88h9.69a.87.87,0,0,0,0-1.73h-9.69a.87.87,0,0,0,0,1.73Z" transform="translate(-4 -4)"/><path class="cls-6" d="M425.14,137.35h9.69a.87.87,0,0,0,0-1.73h-9.69a.87.87,0,0,0,0,1.73Z" transform="translate(-4 -4)"/><path class="cls-6" d="M425.14,140.81h9.69a.87.87,0,1,0,0-1.73h-9.69a.87.87,0,0,0,0,1.73Z" transform="translate(-4 -4)"/><path class="cls-6" d="M439.37,124H403.66a1.3,1.3,0,0,0-1.3,1.3v22.36a1.3,1.3,0,0,0,1.3,1.3h35.71a1.3,1.3,0,0,0,1.3-1.3V125.3A1.3,1.3,0,0,0,439.37,124Zm-1.3,22.36H405V126.6h33.11Z" transform="translate(-4 -4)"/><path class="cls-6" d="M410.47,137.4a4.83,4.83,0,0,0-2.08,4v2a.87.87,0,0,0,.87.87h7.94a.87.87,0,0,0,.87-.87v-2a4.83,4.83,0,0,0-2.08-4,4.83,4.83,0,1,0-5.51,0Zm5.86,4v1.1h-6.2v-1.1a3.1,3.1,0,0,1,6.2,0Zm-3.1-11a3.1,3.1,0,1,1-3.1,3.1A3.1,3.1,0,0,1,413.23,130.33Z" transform="translate(-4 -4)"/><path class="cls-23" d="M116.83,217.37c-4.29,1.25-7.5,6.44-7.5,12.64,0,.24,0,.48,0,.71h19c0-.24,0-.47,0-.71,0-6.21-3.22-11.39-7.5-12.65a6.24,6.24,0,1,0-4,0Z" transform="translate(-4 -4)"/><path class="cls-23" d="M103,217.49c-3.61,1.05-6.32,5.42-6.32,10.64,0,.2,0,.4,0,.6h11.45a16.92,16.92,0,0,1,2.28-7.55l.21-.34a7.9,7.9,0,0,0-4.26-3.36,5.25,5.25,0,1,0-3.37,0Z" transform="translate(-4 -4)"/><path class="cls-23" d="M131.34,217.49a7.9,7.9,0,0,0-4.26,3.36l.21.34a16.92,16.92,0,0,1,2.28,7.55H141c0-.2,0-.4,0-.6,0-5.23-2.71-9.59-6.32-10.64a5.25,5.25,0,1,0-3.37,0Z" transform="translate(-4 -4)"/><path class="cls-6" d="M492.81,218.74a.57.57,0,0,1-.57.57h-2.13a.57.57,0,0,1-.57-.57v-2.13a.57.57,0,0,1,.57-.57h2.13a.57.57,0,0,1,.57.57Zm4.46-2.13a.57.57,0,0,0-.57-.57h-2.13a.57.57,0,0,0-.57.57v2.13a.57.57,0,0,0,.57.57h2.13a.57.57,0,0,0,.57-.57Zm4.46,0a.57.57,0,0,0-.57-.57H499a.57.57,0,0,0-.57.57v2.13a.57.57,0,0,0,.57.57h2.13a.57.57,0,0,0,.57-.57ZM492.81,221a.57.57,0,0,0-.57-.57h-2.13a.57.57,0,0,0-.57.57v2.13a.57.57,0,0,0,.57.57h2.13a.57.57,0,0,0,.57-.57Zm4.46,0a.57.57,0,0,0-.57-.57h-2.13a.57.57,0,0,0-.57.57v2.13a.57.57,0,0,0,.57.57h2.13a.57.57,0,0,0,.57-.57Zm3.89-.57H499a.57.57,0,0,0-.57.57v2.13a.57.57,0,0,0,.57.57h2.13a.57.57,0,0,0,.57-.57V221A.57.57,0,0,0,501.15,220.39Zm-13.37,4.34h-2.13a.57.57,0,0,0-.57.57v2.13a.57.57,0,0,0,.57.57h2.13a.57.57,0,0,0,.57-.57v-2.13A.57.57,0,0,0,487.78,224.72Zm.58-3.77a.57.57,0,0,0-.57-.57h-2.13a.57.57,0,0,0-.57.57v2.13a.57.57,0,0,0,.57.57h2.13a.57.57,0,0,0,.57-.57Zm8.34,3.77h-2.13a.57.57,0,0,0-.57.57v2.13a.57.57,0,0,0,.57.57h2.13a.57.57,0,0,0,.57-.57v-2.13A.57.57,0,0,0,496.69,224.72Zm-4.46,0h-2.13a.57.57,0,0,0-.57.57v2.13a.57.57,0,0,0,.57.57h2.13a.57.57,0,0,0,.57-.57v-2.13A.57.57,0,0,0,492.24,224.72Zm13.37-5.4a.57.57,0,0,0,.57-.57v-2.13a.57.57,0,0,0-.57-.57h-2.13a.57.57,0,0,0-.57.57v2.13a.57.57,0,0,0,.57.57Zm-21.93,13.3h16.19a8.72,8.72,0,0,1-.41-2.58H483.68a.76.76,0,0,1-.76-.76V214H508.3v7.09a8.72,8.72,0,0,1,2.58.4V208.7a3.35,3.35,0,0,0-3.35-3.35h-3.75v-2.06a1.22,1.22,0,0,0-1.22-1.22h-1.9a1.22,1.22,0,0,0-1.22,1.22v2.07h-7.68v-2.07a1.22,1.22,0,0,0-1.22-1.22h-1.9a1.22,1.22,0,0,0-1.22,1.22v2.07h-3.75a3.35,3.35,0,0,0-3.35,3.35v20.58A3.35,3.35,0,0,0,483.68,232.62Zm31-2.68a6.39,6.39,0,1,1-6.39-6.39A6.39,6.39,0,0,1,514.66,229.94Zm-3.16-1.66a.74.74,0,0,0-.22-.54.77.77,0,0,0-1.09,0l-2.78,2.78-1.07-1.07a.77.77,0,0,0-1.09,0,.75.75,0,0,0-.22.54.74.74,0,0,0,.22.54l1.61,1.61a.77.77,0,0,0,1.09,0l3.32-3.32A.72.72,0,0,0,511.49,228.29Z" transform="translate(-4 -4)"/><path class="cls-6" d="M544.72,325.59V321H512.44v25.36s0,4.61,4.61,4.61h28.82s3.46-.07,3.46-4.61V325.59Zm-27.67,23.06a2.26,2.26,0,0,1-2.31-2.31V323.28h27.67v23.06a3.33,3.33,0,0,0,.78,2.31Z" transform="translate(-4 -4)"/><rect class="cls-6" x="513.05" y="323.9" width="23.06" height="2.31"/><rect class="cls-6" x="525.73" y="337.73" width="8.07" height="2.31"/><rect class="cls-6" x="525.73" y="333.12" width="10.38" height="2.31"/><rect class="cls-6" x="525.73" y="328.51" width="10.38" height="2.31"/><rect class="cls-6" x="513.05" y="328.51" width="10.38" height="11.53"/></svg>