<?xml version="1.0" encoding="utf-8"?>
<!-- Generator: Adobe Illustrator 21.0.0, SVG Export Plug-In . SVG Version: 6.00 Build 0)  -->
<svg version="1.1" id="Layer_1" xmlns="http://www.w3.org/2000/svg" xmlns:xlink="http://www.w3.org/1999/xlink" x="0px" y="0px"
	 viewBox="0 0 612 612" style="enable-background:new 0 0 612 612;" xml:space="preserve">
<style type="text/css">
	.st0{fill:#CCEAEF;}
	.st1{fill:#895D3B;}
	.st2{fill:#A77C4F;}
	.st3{fill:#998379;}
	.st4{fill:#716558;}
	.st5{fill:#C0B399;}
	.st6{fill:#36B24A;}
	.st7{fill:#8AC440;}
	.st8{fill:#26A7DF;}
	.st9{fill:#7AD1F2;}
	.st10{fill:#F9AE42;}
	.st11{fill:#6D6F70;}
	.st12{fill:#F1F1F1;}
	.st13{fill:#CFD1D2;}
	.st14{fill:#E5E6E6;}
	.st15{font-family:'Roboto-Medium';}
	.st16{font-size:16.8881px;}
	.st17{fill:#A6A7AA;}
	.st18{fill:#F9CC88;}
	.st19{opacity:0.5;fill:#ECB772;}
	.st20{fill:#FFFFFF;}
	.st21{fill:#B6D566;}
	.st22{opacity:0.7;}
</style>
<g>
	<circle class="st0" cx="306" cy="306" r="306"/>
	<rect x="106.9" y="168" class="st1" width="9.8" height="39.2"/>
	<rect x="72.8" y="140.1" class="st2" width="79.4" height="40.2"/>
	<rect x="72.8" y="160.3" class="st1" width="79.4" height="20"/>
	<g>
		<g>
			<rect x="355.8" y="177.6" class="st3" width="20.6" height="22"/>
			<polygon class="st4" points="366.3,141.8 353.5,153.7 353.5,146.5 346.5,146.5 346.5,160.3 334.4,171.6 339.2,176.1 366.3,150.1 
				393.8,176.1 398.6,171.5 			"/>
			<polygon class="st5" points="387.7,175.2 366.5,156.4 345.4,175.2 345.4,199.6 358.4,199.6 358.4,180.4 374.6,180.4 374.6,199.6 
				387.7,199.6 			"/>
		</g>
		<g>
			<rect x="410.5" y="177.6" class="st3" width="20.6" height="22"/>
			<polygon class="st4" points="421,141.8 408.2,153.7 408.2,146.5 401.2,146.5 401.2,160.3 389.1,171.6 393.9,176.1 421,150.1 
				448.5,176.1 453.3,171.5 			"/>
			<polygon class="st5" points="442.3,175.2 421.2,156.4 400.1,175.2 400.1,199.6 413.1,199.6 413.1,180.4 429.3,180.4 429.3,199.6 
				442.3,199.6 			"/>
		</g>
		<path class="st6" d="M195.3,146.7c0,10.6-8.7,19.2-19.4,19.2l0,0c-10.7,0-19.4-8.6-19.4-19.2v-39c0-10.6,8.7-19.2,19.4-19.2l0,0
			c10.7,0,19.4,8.6,19.4,19.2V146.7z"/>
		<path class="st1" d="M178.9,205.4c0,2-1.4,3.7-3.1,3.7l0,0c-1.7,0-3.1-1.7-3.1-3.7v-79c0-2,1.4-3.7,3.1-3.7l0,0
			c1.7,0,3.1,1.7,3.1,3.7V205.4z"/>
		<g>
			<path class="st1" d="M175.9,141.4C175.9,141.4,175.9,141.4,175.9,141.4c-4.7,0-8.2-1.4-10.3-4c-3-3.7-2-8.4-2-8.6
				c0.2-0.9,1-1.4,1.9-1.2c0.9,0.2,1.4,1,1.2,1.9c0,0.1-0.7,3.5,1.3,6c1.5,1.8,4.1,2.8,7.8,2.8c0.9,0,1.6,0.7,1.6,1.6
				C177.5,140.7,176.7,141.4,175.9,141.4z"/>
		</g>
		<g>
			<path class="st1" d="M174.7,155.2C174.7,155.2,174.7,155.2,174.7,155.2c-3.7,0-6.4-1.1-8.1-3.1c-2.3-2.9-1.6-6.6-1.5-6.7
				c0.1-0.7,0.8-1.1,1.5-1c0.7,0.1,1.1,0.8,1,1.5c0,0.1-0.5,2.7,1,4.7c1.2,1.4,3.2,2.2,6.1,2.2c0.7,0,1.2,0.6,1.2,1.3
				C176,154.7,175.4,155.2,174.7,155.2z"/>
		</g>
		<g>
			<path class="st1" d="M177.2,148.3C177.2,148.3,177.2,148.3,177.2,148.3c4.7,0,8.2-1.4,10.3-4c3-3.7,2-8.4,2-8.6
				c-0.2-0.9-1-1.4-1.9-1.2c-0.9,0.2-1.4,1-1.2,1.9c0,0.1,0.7,3.5-1.3,6c-1.5,1.8-4.1,2.8-7.8,2.8c-0.9,0-1.6,0.7-1.6,1.6
				C175.7,147.6,176.4,148.3,177.2,148.3z"/>
		</g>
		<path class="st6" d="M482,164c0,6.3-5.5,11.4-12.4,11.4l0,0c-6.8,0-12.4-5.1-12.4-11.4v-23c0-6.3,5.6-11.4,12.4-11.4l0,0
			c6.8,0,12.4,5.1,12.4,11.4V164z"/>
		<path class="st1" d="M472,206.5c0,1.4-1,2.6-2.2,2.6l0,0c-1.2,0-2.2-1.2-2.2-2.6v-56c0-1.4,1-2.6,2.2-2.6l0,0
			c1.2,0,2.2,1.2,2.2,2.6V206.5z"/>
		<g>
			<path class="st1" d="M469.9,161.1C469.9,161.1,469.9,161.1,469.9,161.1c-3.4,0-5.8-1-7.3-2.8c-2.1-2.6-1.4-5.9-1.4-6.1
				c0.1-0.6,0.7-1,1.3-0.9c0.6,0.1,1,0.7,0.9,1.3c0,0-0.5,2.5,0.9,4.2c1,1.3,2.9,2,5.5,2c0.6,0,1.1,0.5,1.1,1.1
				C471,160.6,470.5,161.1,469.9,161.1z"/>
		</g>
		<g>
			<path class="st1" d="M469,170.9C469,170.9,469,170.9,469,170.9c-2.6,0-4.6-0.8-5.7-2.2c-1.6-2-1.1-4.7-1.1-4.8
				c0.1-0.5,0.6-0.8,1.1-0.7c0.5,0.1,0.8,0.6,0.7,1c0,0-0.4,1.9,0.7,3.3c0.8,1,2.3,1.5,4.3,1.6c0.5,0,0.9,0.4,0.9,0.9
				C469.9,170.5,469.5,170.9,469,170.9z"/>
		</g>
		<g>
			<path class="st1" d="M470.8,166C470.8,166,470.8,166,470.8,166c3.4,0,5.8-1,7.3-2.8c2.1-2.6,1.4-5.9,1.4-6.1
				c-0.1-0.6-0.7-1-1.3-0.9c-0.6,0.1-1,0.7-0.9,1.3c0,0,0.5,2.5-0.9,4.2c-1.1,1.3-2.9,2-5.5,2c-0.6,0-1.1,0.5-1.1,1.1
				C469.7,165.5,470.2,166,470.8,166z"/>
		</g>
		<path class="st7" d="M234.7,138.6c0,12-9.8,21.7-21.9,21.7l0,0c-12.1,0-21.9-9.7-21.9-21.7v-44c0-12,9.8-21.7,21.9-21.7l0,0
			c12.1,0,21.9,9.7,21.9,21.7V138.6z"/>
		<path class="st2" d="M216.2,204.9c0,2.3-1.5,4.2-3.4,4.2l0,0c-1.9,0-3.4-1.9-3.4-4.2v-89.2c0-2.3,1.5-4.2,3.4-4.2l0,0
			c1.9,0,3.4,1.9,3.4,4.2V204.9z"/>
		<g>
			<path class="st6" d="M283.1,137.2c-2.6-11.5-12.7-20.4-25.3-21.1c-15.1-0.8-28.1,10.7-28.9,25.7c0,0.3,0,0.6,0,0.9
				c-4,3.5-6.7,8.5-7,14.2c-0.6,11.2,8,20.7,19.2,21.3c5.9,0.3,24,0,29.6,0.3c12.3,0.7,22.8-8.7,23.5-20.9
				C294.7,149,290.1,141.2,283.1,137.2z"/>
			<path class="st1" d="M260.8,173.4c-0.1-3.4-0.2-6.6-0.3-9.6c10.3-2.5,12.5-13.2,12.5-13.2s-5.9,7-12.7,9.3
				c-0.8-14.3-2.2-23.8-3.9-23.8c-1.6,0-3.1,9.5-3.8,23.7c-6-2.3-9.3-9.2-9.3-9.2c-0.3,8.6,5.1,11.8,9.1,13
				c-0.1,3.1-0.2,6.3-0.3,9.7c-5.6-2.5-8.8-9-8.8-9c-0.3,8.3,4.8,11.5,8.7,12.8c0,2.7-0.1,5.4-0.1,8.2c0,7.5,0.2,14.6,0.4,20.9h8.1
				c0.3-6.4,0.4-13.5,0.4-20.9c0-2.7,0-5.4-0.1-8c10-2.7,12.1-13.1,12.1-13.1S267.4,171,260.8,173.4z"/>
		</g>
		<g>
			<path class="st7" d="M322.6,153.8c-2-8.8-9.7-15.5-19.2-16.1c-11.5-0.6-21.3,8.1-22,19.5c0,0.2,0,0.5,0,0.7
				c-3,2.6-5.1,6.4-5.3,10.8c-0.5,8.5,6.1,15.7,14.6,16.2c4.5,0.2,18.3,0,22.5,0.3c9.4,0.5,17.4-6.6,17.9-15.9
				C331.4,162.7,327.9,156.9,322.6,153.8z"/>
			<path class="st2" d="M305.6,181.3c-0.1-2.6-0.1-5-0.2-7.3c7.8-1.9,9.5-10,9.5-10s-4.5,5.4-9.7,7c-0.6-10.8-1.7-18.1-2.9-18.1
				c-1.2,0-2.3,7.2-2.9,18c-4.5-1.7-7.1-7-7.1-7c-0.2,6.5,3.9,8.9,6.9,9.9c-0.1,2.3-0.2,4.8-0.2,7.4c-4.3-1.9-6.7-6.8-6.7-6.8
				c-0.2,6.3,3.6,8.8,6.6,9.8c0,2,0,4.1,0,6.2c0,5.7,0.1,11.1,0.3,15.9h6.2c0.2-4.8,0.3-10.2,0.3-15.9c0-2.1,0-4.1,0-6.1
				c7.6-2,9.2-9.9,9.2-9.9S310.7,179.5,305.6,181.3z"/>
		</g>
		<g>
			<path class="st2" d="M212.8,132.7C212.8,132.7,212.8,132.7,212.8,132.7c-5.3-0.1-9.2-1.6-11.6-4.5c-3.3-4.1-2.3-9.5-2.2-9.7
				c0.2-1,1.2-1.6,2.1-1.4c1,0.2,1.6,1.1,1.4,2.1c0,0.1-0.8,3.9,1.5,6.7c1.7,2.1,4.6,3.1,8.8,3.2c1,0,1.8,0.8,1.8,1.8
				C214.6,131.9,213.8,132.7,212.8,132.7z"/>
		</g>
		<g>
			<path class="st2" d="M211.5,148.3C211.5,148.3,211.5,148.3,211.5,148.3c-4.2,0-7.3-1.2-9.1-3.5c-2.6-3.2-1.8-7.4-1.7-7.6
				c0.2-0.8,0.9-1.2,1.7-1.1c0.8,0.2,1.2,0.9,1.1,1.7c0,0.1-0.6,3.1,1.2,5.3c1.3,1.6,3.6,2.4,6.9,2.5c0.8,0,1.4,0.6,1.4,1.4
				C212.9,147.7,212.3,148.3,211.5,148.3z"/>
		</g>
		<g>
			<path class="st2" d="M214.3,140.5C214.3,140.5,214.3,140.5,214.3,140.5c5.3-0.1,9.2-1.6,11.6-4.5c3.3-4.1,2.3-9.5,2.2-9.7
				c-0.2-1-1.2-1.6-2.1-1.4c-1,0.2-1.6,1.1-1.4,2.1c0,0.1,0.8,3.9-1.5,6.7c-1.7,2.1-4.6,3.1-8.8,3.2c-1,0-1.8,0.8-1.8,1.8
				C212.5,139.7,213.4,140.5,214.3,140.5z"/>
		</g>
		<g>
			<path class="st2" d="M215.7,122.7C215.7,122.7,215.7,122.7,215.7,122.7c4.2,0,7.3-1.2,9.1-3.5c2.6-3.2,1.8-7.4,1.7-7.6
				c-0.2-0.8-0.9-1.2-1.7-1.1c-0.8,0.2-1.2,0.9-1.1,1.7c0,0.1,0.6,3.1-1.2,5.3c-1.3,1.6-3.6,2.4-6.9,2.5c-0.8,0-1.4,0.6-1.4,1.4
				C214.2,122.1,214.9,122.7,215.7,122.7z"/>
		</g>
		<path class="st6" d="M330.2,195.4c-0.3,0-0.5,0-0.8,0.1c-1.7-4.4-5.9-7.5-10.9-7.5c-4.3,0-8.1,2.4-10.1,5.9
			c-0.5-0.1-1-0.2-1.5-0.2c-3.3,0-6,2.7-6,5.9h33.5C334.4,197.3,332.6,195.4,330.2,195.4z"/>
		<path class="st7" d="M491.2,196.6c-0.2,0-0.4,0-0.7,0.1c-1.5-3.8-5.1-6.5-9.5-6.5c-3.8,0-7.1,2-8.8,5.1c-0.4-0.1-0.9-0.2-1.3-0.2
			c-2.9,0-5.2,2.3-5.2,5.1h29.1C494.9,198.2,493.3,196.6,491.2,196.6z"/>
		<path class="st6" d="M214.3,195.4c-0.3,0-0.5,0-0.8,0.1c-1.7-4.4-5.9-7.5-10.9-7.5c-4.3,0-8.1,2.4-10.1,5.9
			c-0.5-0.1-1-0.2-1.5-0.2c-3.3,0-6,2.7-6,5.9h33.5C218.6,197.3,216.7,195.4,214.3,195.4z"/>
		<path class="st7" d="M191.5,195.4c-0.3,0-0.5,0-0.8,0.1c-1.7-4.4-5.9-7.5-10.9-7.5c-4.3,0-8.1,2.4-10.1,5.9
			c-0.5-0.1-1-0.2-1.5-0.2c-3.3,0-6,2.7-6,5.9h33.5C195.7,197.3,193.8,195.4,191.5,195.4z"/>
		<path class="st8" d="M348.1,95.1h-2.5c-1-7.8-7.7-13.8-15.9-13.8c-7.3,0-13.4,4.8-15.4,11.5c-1.1-0.4-2.2-0.7-3.4-0.7
			c-5.1,0-9.2,4.3-9.2,9.5c0,5.1,3.9,9.2,8.7,9.5c0.1,0,0.1,0,0.2,0h26.7h10.4h0.4c4.5,0,8.1-3.6,8.1-8
			C356.2,98.7,352.5,95.1,348.1,95.1z"/>
		<path class="st8" d="M314.6,120.3c-0.3,0.8-1.1,1.2-1.9,0.9l0,0c-0.8-0.3-1.2-1.1-0.9-1.9l1.8-5c0.3-0.8,1.1-1.2,1.9-0.9l0,0
			c0.8,0.3,1.2,1.1,0.9,1.9L314.6,120.3z"/>
		<path class="st8" d="M323.2,120.3c-0.3,0.8-1.1,1.2-1.9,0.9l0,0c-0.8-0.3-1.2-1.1-0.9-1.9l1.8-5c0.3-0.8,1.1-1.2,1.9-0.9l0,0
			c0.8,0.3,1.2,1.1,0.9,1.9L323.2,120.3z"/>
		<path class="st8" d="M331.8,120.3c-0.3,0.8-1.1,1.2-1.9,0.9l0,0c-0.8-0.3-1.2-1.1-0.9-1.9l1.8-5c0.3-0.8,1.1-1.2,1.9-0.9l0,0
			c0.8,0.3,1.2,1.1,0.9,1.9L331.8,120.3z"/>
		<path class="st8" d="M340.3,120.3c-0.3,0.8-1.1,1.2-1.9,0.9l0,0c-0.8-0.3-1.2-1.1-0.9-1.9l1.8-5c0.3-0.8,1.1-1.2,1.9-0.9l0,0
			c0.8,0.3,1.2,1.1,0.9,1.9L340.3,120.3z"/>
		<path class="st8" d="M317,129.7c-0.3,0.8-1.1,1.2-1.9,0.9l0,0c-0.8-0.3-1.2-1.1-0.9-1.9l1.8-5c0.3-0.8,1.1-1.2,1.9-0.9l0,0
			c0.8,0.3,1.2,1.1,0.9,1.9L317,129.7z"/>
		<path class="st8" d="M325.6,129.7c-0.3,0.8-1.1,1.2-1.9,0.9l0,0c-0.8-0.3-1.2-1.1-0.9-1.9l1.8-5c0.3-0.8,1.1-1.2,1.9-0.9l0,0
			c0.8,0.3,1.2,1.1,0.9,1.9L325.6,129.7z"/>
		<path class="st8" d="M334.1,129.7c-0.3,0.8-1.1,1.2-1.9,0.9l0,0c-0.8-0.3-1.2-1.1-0.9-1.9l1.8-5c0.3-0.8,1.1-1.2,1.9-0.9l0,0
			c0.8,0.3,1.2,1.1,0.9,1.9L334.1,129.7z"/>
		<path class="st9" d="M398.2,110.1h-2c-0.8-6.1-6.1-10.8-12.4-10.8c-5.7,0-10.5,3.8-12,9c-0.8-0.3-1.7-0.5-2.7-0.5
			c-4,0-7.2,3.3-7.2,7.5c0,4,3,7.2,6.8,7.4c0,0,0.1,0,0.2,0h20.9h8.1h0.3c3.5,0,6.3-2.8,6.3-6.3C404.6,113,401.7,110.1,398.2,110.1z
			"/>
		<path class="st9" d="M372,129.8c-0.2,0.6-0.9,0.9-1.5,0.7l0,0c-0.6-0.2-0.9-0.9-0.7-1.5l1.4-3.9c0.2-0.6,0.9-0.9,1.5-0.7l0,0
			c0.6,0.2,0.9,0.9,0.7,1.5L372,129.8z"/>
		<path class="st9" d="M378.7,129.8c-0.2,0.6-0.9,0.9-1.5,0.7l0,0c-0.6-0.2-0.9-0.9-0.7-1.5l1.4-3.9c0.2-0.6,0.9-0.9,1.5-0.7l0,0
			c0.6,0.2,0.9,0.9,0.7,1.5L378.7,129.8z"/>
		<path class="st9" d="M385.5,129.8c-0.2,0.6-0.9,0.9-1.5,0.7l0,0c-0.6-0.2-0.9-0.9-0.7-1.5l1.4-3.9c0.2-0.6,0.9-0.9,1.5-0.7l0,0
			c0.6,0.2,0.9,0.9,0.7,1.5L385.5,129.8z"/>
		<path class="st9" d="M392.2,129.8c-0.2,0.6-0.9,0.9-1.5,0.7l0,0c-0.6-0.2-0.9-0.9-0.7-1.5l1.4-3.9c0.2-0.6,0.9-0.9,1.5-0.7l0,0
			c0.6,0.2,0.9,0.9,0.7,1.5L392.2,129.8z"/>
		<path class="st9" d="M373.9,127.9c-0.2,0.6-0.9,0.9-1.5,0.7l0,0c-0.6-0.2-0.9-0.9-0.7-1.5l1.4-3.9c0.2-0.6,0.9-0.9,1.5-0.7l0,0
			c0.6,0.2,0.9,0.9,0.7,1.5L373.9,127.9z"/>
		<path class="st9" d="M380.6,127.9c-0.2,0.6-0.9,0.9-1.5,0.7l0,0c-0.6-0.2-0.9-0.9-0.7-1.5l1.4-3.9c0.2-0.6,0.9-0.9,1.5-0.7l0,0
			c0.6,0.2,0.9,0.9,0.7,1.5L380.6,127.9z"/>
		<path class="st9" d="M387.3,127.9c-0.2,0.6-0.9,0.9-1.5,0.7l0,0c-0.6-0.2-0.9-0.9-0.7-1.5l1.4-3.9c0.2-0.6,0.9-0.9,1.5-0.7l0,0
			c0.6,0.2,0.9,0.9,0.7,1.5L387.3,127.9z"/>
		<path class="st8" d="M450.8,82.3h-2.5c-1-7.8-7.7-13.8-15.9-13.8c-7.3,0-13.4,4.8-15.4,11.5c-1.1-0.4-2.2-0.7-3.4-0.7
			c-5.1,0-9.2,4.3-9.2,9.5c0,5.1,3.9,9.2,8.7,9.5c0.1,0,0.1,0,0.2,0H440h10.4h0.4c4.5,0,8.1-3.6,8.1-8
			C458.9,85.9,455.3,82.3,450.8,82.3z"/>
		<path class="st8" d="M417.4,107.4c-0.3,0.8-1.1,1.2-1.9,0.9l0,0c-0.8-0.3-1.2-1.1-0.9-1.9l1.8-5c0.3-0.8,1.1-1.2,1.9-0.9l0,0
			c0.8,0.3,1.2,1.1,0.9,1.9L417.4,107.4z"/>
		<path class="st8" d="M425.9,107.4c-0.3,0.8-1.1,1.2-1.9,0.9l0,0c-0.8-0.3-1.2-1.1-0.9-1.9l1.8-5c0.3-0.8,1.1-1.2,1.9-0.9l0,0
			c0.8,0.3,1.2,1.1,0.9,1.9L425.9,107.4z"/>
		<path class="st8" d="M434.5,107.4c-0.3,0.8-1.1,1.2-1.9,0.9l0,0c-0.8-0.3-1.2-1.1-0.9-1.9l1.8-5c0.3-0.8,1.1-1.2,1.9-0.9l0,0
			c0.8,0.3,1.2,1.1,0.9,1.9L434.5,107.4z"/>
		<path class="st8" d="M443.1,107.4c-0.3,0.8-1.1,1.2-1.9,0.9l0,0c-0.8-0.3-1.2-1.1-0.9-1.9l1.8-5c0.3-0.8,1.1-1.2,1.9-0.9l0,0
			c0.8,0.3,1.2,1.1,0.9,1.9L443.1,107.4z"/>
		<path class="st8" d="M419.7,116.8c-0.3,0.8-1.1,1.2-1.9,0.9l0,0c-0.8-0.3-1.2-1.1-0.9-1.9l1.8-5c0.3-0.8,1.1-1.2,1.9-0.9l0,0
			c0.8,0.3,1.2,1.1,0.9,1.9L419.7,116.8z"/>
		<path class="st8" d="M428.3,116.8c-0.3,0.8-1.1,1.2-1.9,0.9l0,0c-0.8-0.3-1.2-1.1-0.9-1.9l1.8-5c0.3-0.8,1.1-1.2,1.9-0.9l0,0
			c0.8,0.3,1.2,1.1,0.9,1.9L428.3,116.8z"/>
		<path class="st8" d="M436.9,116.8c-0.3,0.8-1.1,1.2-1.9,0.9l0,0c-0.8-0.3-1.2-1.1-0.9-1.9l1.8-5c0.3-0.8,1.1-1.2,1.9-0.9l0,0
			c0.8,0.3,1.2,1.1,0.9,1.9L436.9,116.8z"/>
		<path class="st9" d="M501,97.3h-2c-0.8-6.1-6.1-10.8-12.4-10.8c-5.7,0-10.5,3.8-12,9c-0.8-0.3-1.7-0.5-2.7-0.5
			c-4,0-7.2,3.3-7.2,7.5c0,4,3,7.2,6.8,7.4c0,0,0.1,0,0.1,0h20.9h8.1h0.3c3.5,0,6.3-2.8,6.3-6.3C507.3,100.1,504.5,97.3,501,97.3z"
			/>
		<path class="st9" d="M474.8,117c-0.2,0.6-0.9,0.9-1.5,0.7l0,0c-0.6-0.2-0.9-0.9-0.7-1.5l1.4-3.9c0.2-0.6,0.9-0.9,1.5-0.7l0,0
			c0.6,0.2,0.9,0.9,0.7,1.5L474.8,117z"/>
		<path class="st9" d="M481.5,117c-0.2,0.6-0.9,0.9-1.5,0.7l0,0c-0.6-0.2-0.9-0.9-0.7-1.5l1.4-3.9c0.2-0.6,0.9-0.9,1.5-0.7l0,0
			c0.6,0.2,0.9,0.9,0.7,1.5L481.5,117z"/>
		<path class="st9" d="M488.2,117c-0.2,0.6-0.9,0.9-1.5,0.7l0,0c-0.6-0.2-0.9-0.9-0.7-1.5l1.4-3.9c0.2-0.6,0.9-0.9,1.5-0.7l0,0
			c0.6,0.2,0.9,0.9,0.7,1.5L488.2,117z"/>
		<path class="st9" d="M495,117c-0.2,0.6-0.9,0.9-1.5,0.7l0,0c-0.6-0.2-0.9-0.9-0.7-1.5l1.4-3.9c0.2-0.6,0.9-0.9,1.5-0.7l0,0
			c0.6,0.2,0.9,0.9,0.7,1.5L495,117z"/>
		<path class="st9" d="M476.6,124.4c-0.2,0.6-0.9,0.9-1.5,0.7l0,0c-0.6-0.2-0.9-0.9-0.7-1.5l1.4-3.9c0.2-0.6,0.9-0.9,1.5-0.7l0,0
			c0.6,0.2,0.9,0.9,0.7,1.5L476.6,124.4z"/>
		<path class="st9" d="M483.4,124.4c-0.2,0.6-0.9,0.9-1.5,0.7l0,0c-0.6-0.2-0.9-0.9-0.7-1.5l1.4-3.9c0.2-0.6,0.9-0.9,1.5-0.7l0,0
			c0.6,0.2,0.9,0.9,0.7,1.5L483.4,124.4z"/>
		<path class="st9" d="M490.1,124.4c-0.2,0.6-0.9,0.9-1.5,0.7l0,0c-0.6-0.2-0.9-0.9-0.7-1.5l1.4-3.9c0.2-0.6,0.9-0.9,1.5-0.7l0,0
			c0.6,0.2,0.9,0.9,0.7,1.5L490.1,124.4z"/>
		<g>
			<g>
				<g>
					<path class="st10" d="M267,88.5c-9,0-16.3-7.2-16.3-16.1c0-8.9,7.3-16.1,16.3-16.1c9,0,16.3,7.2,16.3,16.1
						C283.3,81.3,276,88.5,267,88.5L267,88.5z M267,61.1c-6.3,0-11.4,5.1-11.4,11.3c0,6.2,5.1,11.3,11.4,11.3
						c6.3,0,11.4-5.1,11.4-11.3C278.4,66.2,273.3,61.1,267,61.1L267,61.1z"/>
				</g>
				<g>
					<ellipse class="st10" cx="267" cy="49.2" rx="2.2" ry="5.2"/>
					<ellipse class="st10" cx="267" cy="95.6" rx="2.2" ry="5.2"/>
					<ellipse class="st10" cx="290.4" cy="72.4" rx="5.2" ry="2.2"/>
					<ellipse class="st10" cx="243.7" cy="72.4" rx="5.2" ry="2.2"/>
					<path class="st10" d="M252.1,54.4c2,2,3,4.4,2.1,5.2c-0.9,0.9-3.2-0.1-5.3-2.1c-2-2-3-4.4-2.1-5.2
						C247.7,51.4,250.1,52.4,252.1,54.4z"/>
					<path class="st10" d="M285.1,87.3c2,2,3,4.4,2.1,5.2c-0.9,0.9-3.2-0.1-5.3-2.1c-2-2-3-4.4-2.1-5.2
						C280.7,84.3,283,85.2,285.1,87.3z"/>
					<path class="st10" d="M285.1,57.6c-2,2-4.4,3-5.3,2.1c-0.9-0.9,0.1-3.2,2.1-5.2c2-2,4.4-3,5.3-2.1
						C288.1,53.3,287.2,55.6,285.1,57.6z"/>
					<path class="st10" d="M252,90.3c-2,2-4.4,3-5.3,2.1c-0.9-0.9,0.1-3.2,2.1-5.2c2-2,4.4-3,5.3-2.1C255,85.9,254.1,88.3,252,90.3z
						"/>
				</g>
			</g>
			<ellipse class="st10" cx="267" cy="72.4" rx="6.7" ry="6.6"/>
		</g>
		<path class="st7" d="M239.2,195.4c-0.3,0-0.5,0-0.8,0.1c-1.7-4.4-5.9-7.5-10.9-7.5c-4.3,0-8.1,2.4-10.1,5.9
			c-0.5-0.1-1-0.2-1.5-0.2c-3.3,0-6,2.7-6,5.9h33.5C243.4,197.3,241.6,195.4,239.2,195.4z"/>
	</g>
	<path class="st7" d="M527.9,277.3c0.3-2.3-0.7-4.6-2.7-5.8l-35.3-20.3c-2.8-1.6-6.6-0.4-8.4,2.7c-1.8,3.1-1,7,1.8,8.6l28.4,16.3
		v55.4c0,4.5,3.6,8.1,8.1,8.1c4.5,0,8.1-3.6,8.1-8.1v-56.1C527.9,277.9,527.9,277.6,527.9,277.3z"/>
	<path class="st7" d="M527.4,251.2c2.8,1.6,3.6,5.4,1.8,8.6l0,0c-1.8,3.1-5.6,4.4-8.4,2.7l-35.3-20.3c-2.8-1.6-3.6-5.4-1.8-8.6l0,0
		c1.8-3.1,5.6-4.4,8.4-2.7L527.4,251.2z"/>
	<path class="st11" d="M568.7,371.3c0,10-8.1,18-18.2,18h-63.4c-10,0-18.2-8.1-18.2-18v-70.1c0-10,8.1-18,18.2-18h63.4
		c10,0,18.2,8.1,18.2,18V371.3z"/>
	<path class="st12" d="M559.9,365.2c0,8.2-6.7,14.9-15,14.9h-52.2c-8.3,0-15-6.7-15-14.9v-57.8c0-8.2,6.7-14.9,15-14.9h52.2
		c8.3,0,15,6.7,15,14.9V365.2z"/>
	<path class="st13" d="M477.7,329.8v35.3c0,8.2,6.7,14.9,15,14.9h52.2c8.3,0,15-6.7,15-14.9v-35.3H477.7z"/>
	<text transform="matrix(0.9801 0 0 1 80.1455 157.595)"><tspan x="0" y="0" class="st14 st15 st16">ENERGY</tspan><tspan x="2.1" y="20.3" class="st14 st15 st16">SAVING</tspan></text>
	<path class="st17" d="M557,356.7c0,7.6-6.2,13.8-13.9,13.8h-48.5c-7.7,0-13.9-6.2-13.9-13.8l-2.9-26.9v35.3c0,8.2,6.7,14.9,15,14.9
		h52.2c8.3,0,15-6.7,15-14.9v-35.3L557,356.7z"/>
	<g>
		<g>
			<path class="st18" d="M563.7,417.9c-0.1-4.1-4.2-7.4-9.1-7.3c-4.5,0.1-8.2,2.9-8.7,6.5c-0.7-3.6-4.5-6.3-9-6.2
				c-4.3,0.1-7.9,2.7-8.7,6.1c-0.9-3.4-4.6-5.9-8.9-5.8c-5,0.1-8.9,3.5-8.8,7.7l-1.2-58.2c-0.2-9-4.3-12.4-9.2-12.3
				c-5,0.1-8.9,3.6-8.7,12.6l1.8,88.3c0,1.1,0.1,2.3,0.3,3.3l0,0L480.2,434l7.8-10.1c2.9-3,2.2-8.2-1.4-11.6
				c-3.6-3.4-8.9-3.6-11.7-0.6L459,432.2c-2.9,3,13.3,42.8,20.2,57.3c6.9,14.5,22.7,9.9,24,20.7c1.3,10.8,0.4,27.1,0.4,27.1
				l57.2-61.8l3.2-16.6c0.2-0.7,0.3-1.4,0.3-2.1L563.7,417.9z"/>
			<path class="st19" d="M523.7,457.7c2.6-0.1,4.6-2.1,4.6-4.6l-0.7-34.2c-1.1-3.2-4.6-5.5-8.8-5.4c-0.2,0-0.5,0-0.7,0l0.8,39.7
				C519,455.8,521.1,457.8,523.7,457.7z"/>
			<path class="st19" d="M500.6,350.8c0,0.1,0,0.1,0,0.2l2.1,102.6c0,2.5,1.9,4.5,4.1,4.4c2.2,0,4-2.1,3.9-4.6l-0.6-32.2l-1.2-58.2
				C508.7,354.6,505.1,351.2,500.6,350.8z"/>
			<path class="st19" d="M541.5,457.4c2.6-0.1,4.6-2.1,4.6-4.6l-0.7-33.5c0,0,0,0.1,0,0.1c-0.7-3.6-4.5-6.3-9-6.2
				c-0.2,0-0.3,0-0.5,0l0.8,39.8C536.8,455.5,538.9,457.4,541.5,457.4z"/>
			<path class="st19" d="M554.2,412.9c-0.1,0-0.2,0-0.3,0l0.8,38.6c0,0-0.3,12.9-8.2,43.8l14.6-19.8l2.8-14.3
				c0.2-0.7,0.3-1.4,0.3-2.1l-0.1-4l-0.1-5l-0.6-29.8C563.2,416,559.1,412.8,554.2,412.9z"/>
			<path class="st20" d="M506,362.7c0.1,3.2-2.5,5.8-5.7,5.9l0,0c-3.2,0.1-5.9-2.5-5.9-5.7l-0.1-4.6c-0.1-3.2,2.5-5.8,5.7-5.9l0,0
				c3.2-0.1,5.9,2.5,5.9,5.7L506,362.7z"/>
			<path class="st13" d="M500.6,352.5l0.3,16.1c2.9-0.4,5.1-2.9,5.1-5.8l-0.1-4.6C505.9,355.1,503.5,352.7,500.6,352.5z"/>
		</g>
		<path class="st18" d="M563.3,420.2c-0.1-4.1-4.2-7.4-9.1-7.3c-4.5,0.1-8.2,2.9-8.7,6.5c-0.7-3.6-4.5-6.3-9-6.2
			c-4.3,0.1-7.9,2.7-8.7,6.1c-0.9-3.4-4.6-5.9-8.9-5.8c-5,0.1-8.9,3.5-8.8,7.7l-1.2-58.2c-0.2-9-4.3-12.4-9.2-12.3
			c-5,0.1-8.9,3.6-8.7,12.6l1.8,88.3c0,1.1,0.1,2.3,0.3,3.3l0,0l-13.2-18.8l7.8-10.1c2.9-3,2.2-8.2-1.4-11.6
			c-3.6-3.4-8.9-3.6-11.7-0.6l-15.9,20.6c-2.9,3,13.3,42.8,20.2,57.3c6.9,14.5,22.7,9.9,24,20.7c1.3,10.8-7.1,32.5-1,28.7
			c24-15,59.2-66,59.2-66l2.7-14c0.2-0.7,0.3-1.4,0.3-2.1L563.3,420.2z"/>
		<path class="st19" d="M523.7,457.7c2.6-0.1,4.6-2.1,4.6-4.6l-0.7-34.2c-1.1-3.2-4.6-5.5-8.8-5.4c-0.2,0-0.5,0-0.7,0l0.8,39.7
			C519,455.8,521.1,457.8,523.7,457.7z"/>
		<path class="st19" d="M500.6,350.8c0,0.1,0,0.1,0,0.2l2.1,102.6c0,2.5,1.9,4.5,4.1,4.4c2.2,0,4-2.1,3.9-4.6l-0.6-32.2l-1.2-58.2
			C508.7,354.6,505.1,351.2,500.6,350.8z"/>
		<path class="st19" d="M541.5,457.4c2.6-0.1,4.6-2.1,4.6-4.6l-0.7-33.5c0,0,0,0.1,0,0.1c-0.7-3.6-4.5-6.3-9-6.2c-0.2,0-0.3,0-0.5,0
			l0.8,39.8C536.8,455.5,538.9,457.4,541.5,457.4z"/>
		<path class="st19" d="M554.2,412.9c-0.1,0-0.2,0-0.3,0l0.8,38.6c0,0,2.9,3.1-8.2,43.8l14.6-20.1l2.7-14c0.2-0.7,0.3-1.4,0.3-2.1
			l-0.1-4l-0.1-5l-0.6-29.8C563.2,416,559.1,412.8,554.2,412.9z"/>
		<path class="st20" d="M506,362.7c0.1,3.2-2.5,5.8-5.7,5.9l0,0c-3.2,0.1-5.9-2.5-5.9-5.7l-0.1-4.6c-0.1-3.2,2.5-5.8,5.7-5.9l0,0
			c3.2-0.1,5.9,2.5,5.9,5.7L506,362.7z"/>
		<path class="st13" d="M500.6,352.5l0.3,16.1c2.9-0.4,5.1-2.9,5.1-5.8l-0.1-4.6C505.9,355.1,503.5,352.7,500.6,352.5z"/>
		<path class="st20" d="M482.2,412.2c-2.9-0.9-5.9-0.3-7.8,1.7l-9.3,12.1c2.8,1.3,6.2,0.8,8.4-1.6l7-7.8
			C481.6,415.3,482.2,413.8,482.2,412.2z"/>
		<path class="st19" d="M472.8,434.8l20.5,28.9l-0.2-9.3l-0.3-0.4c0,0.3,0.1,0.7,0.1,1l-13.2-18.8l0.3-0.4l-0.1-0.2l7.8-10.1
			c0.6-0.6,1-1.3,1.3-2.1c0.7-2.4,0.1-5.3-1.8-7.7L472.8,434.8z"/>
	</g>
	<path class="st7" d="M527.4,230.9l-11.4-6.6v-17.1c0-3.9-3.2-7-7.1-7c-3.9,0-7.1,3.2-7.1,7v19.9c0,0.1,0,0.2,0,0.3
		c-0.1,2.2,0.9,4.3,2.7,5.4l16.3,9.4c2.8,1.6,6.6,0.4,8.4-2.7C531,236.3,530.2,232.5,527.4,230.9z"/>
	<path class="st7" d="M508.9,199.2H125.1c0.1,1.9,0.2,3.9,0.3,5.8c0,2.1,0.1,4.2,0.1,6.2h383.5c5.9,0,7-2.7,7-6
		C515.9,201.9,514.8,199.2,508.9,199.2z"/>
	<path class="st7" d="M70.7,288.2c2.5,0.2,5,0.4,7.5,0.7v-82.7c0-5.9-2.7-7-6-7c-3.3,0-6,1.1-6,7v81.6
		C67.7,288,69.2,288.1,70.7,288.2z"/>
	<path class="st13" d="M102.7,326.5H39.9H38c-1.6,0-2.9,1.3-2.9,2.9c0,1.6,1.3,2.9,2.9,2.9h14.8v25.1c0,1.9,1.6,3.5,3.5,3.5
		c1.9,0,3.5-1.6,3.5-3.5l0-25.1h21.1v25.1c0,1.9,1.6,3.5,3.5,3.5c1.9,0,3.5-1.6,3.5-3.5v-25.1h15.1c1.6,0,2.9-1.3,2.9-2.9
		C105.7,327.9,104.4,326.5,102.7,326.5z"/>
	<path class="st12" d="M97.6,304c0-8-6.5-14.5-14.4-14.5h-22c-7.9,0-14.4,6.5-14.4,14.5v15.5h50.8V304z"/>
	<path class="st11" d="M104.5,319.7V304c0-11.8-9.6-21.5-21.3-21.5h-22c-11.7,0-21.3,9.6-21.3,21.5v15.5H38c-5.4,0-9.8,4.4-9.8,9.9
		c0,5.5,4.4,9.9,9.8,9.9h7.9v18.2c0,5.8,4.7,10.5,10.4,10.5c5.7,0,10.4-4.7,10.4-10.5v-18.2h7.3v18.2c0,5.8,4.7,10.5,10.4,10.5
		c5.7,0,10.4-4.7,10.4-10.5v-18.2h8.2c5.4,0,9.8-4.4,9.8-9.9C112.6,324.6,109.1,320.6,104.5,319.7z M46.8,304
		c0-8,6.5-14.5,14.4-14.5h22c7.9,0,14.4,6.5,14.4,14.5v15.5H46.8V304z M102.7,332.4H87.6v25.1c0,1.9-1.6,3.5-3.5,3.5
		c-1.9,0-3.5-1.6-3.5-3.5v-25.1H59.6l0,25.1c0,1.9-1.6,3.5-3.5,3.5c-1.9,0-3.5-1.6-3.5-3.5v-25.1H38c-1.6,0-2.9-1.3-2.9-2.9
		c0-1.6,1.3-2.9,2.9-2.9h1.9h62.9c1.6,0,2.9,1.3,2.9,2.9C105.7,331.1,104.4,332.4,102.7,332.4z"/>
	<g>
		<g>
			
				<image style="overflow:visible;" width="713" height="370" xlink:href="../../../404.html"  transform="matrix(0.24 0 0 0.24 281.28 318.72)">
			</image>
		</g>
		<g>
			<g>
				<ellipse class="st7" cx="366.8" cy="302.7" rx="62.5" ry="62"/>
				<path class="st21" d="M366.8,240.7c-34.5,0-62.5,27.7-62.5,61.9c0,0.4,0,0.7,0,1.1h124.9c0-0.4,0-0.7,0-1.1
					C429.3,268.5,401.3,240.7,366.8,240.7z"/>
			</g>
			<g>
				<g>
					<polygon class="st20" points="366.6,267.8 351.2,282.7 351.2,273.7 342.7,273.7 342.7,290.9 328.2,304.9 334,310.6 
						366.6,278.2 399.7,310.6 405.5,304.8 					"/>
					<polygon class="st20" points="392.3,307.6 366.9,284.2 341.4,307.6 341.4,338 357.1,338 357.1,314.1 376.6,314.1 376.6,338 
						392.3,338 					"/>
				</g>
				<path class="st20" d="M393.8,259.2c-1.2,0-2.3,0.2-3.3,0.5c4.6,1.4,8,5.7,8,10.7c0,5-3.4,9.3-8,10.7c1.1,0.3,2.2,0.5,3.3,0.5
					c6.3,0,11.3-5,11.3-11.2C405.1,264.2,400,259.2,393.8,259.2z"/>
			</g>
		</g>
	</g>
	<g>
		<g>
			
				<image style="overflow:visible;" width="713" height="370" xlink:href="../../../404.html"  transform="matrix(0.24 0 0 0.24 112.56 318.72)">
			</image>
		</g>
		<g>
			<ellipse class="st7" cx="198.1" cy="302.7" rx="62.5" ry="62"/>
		</g>
		<path class="st21" d="M198.1,240.7c-34.5,0-62.5,27.7-62.5,62c0,0.4,0,0.7,0,1h124.9c0-0.4,0-0.7,0-1
			C260.5,268.5,232.6,240.7,198.1,240.7z"/>
		<g>
			<circle class="st20" cx="198.3" cy="303.7" r="5.9"/>
			<path class="st20" d="M230.6,314.5l0.2-16.5c-5.6-2-12.6-1-17.9,0.3c-0.3-0.9-0.7-1.7-1.2-2.5c8.6-5,17.1-7.3,17.1-7.3
				l-11.5-11.8c-5.4,2.6-9.7,8.2-12.5,12.9c-0.9-0.4-1.9-0.8-2.9-1c2.4-9.7,6.7-17.4,6.7-17.4h-16.5c-1.9,5.7-0.9,12.7,0.6,18
				c-0.9,0.3-1.8,0.8-2.6,1.3c-5.2-8.5-7.7-17-7.7-17l-11.6,11.7c2.7,5.3,8.3,9.5,13.1,12.2c-0.4,0.8-0.7,1.7-0.9,2.6
				c-9.7-2.4-17.4-6.6-17.4-6.6l0.1,16.5c5.7,1.9,12.6,0.8,17.9-0.6c0.3,0.9,0.7,1.7,1.2,2.5c-8.6,5.1-17,7.5-17,7.5l11.6,11.7
				c5.4-2.7,9.6-8.3,12.3-13.1c0.8,0.4,1.7,0.7,2.6,0.9c-2.5,9.7-6.8,17.4-6.8,17.4l16.5,0.1c1.9-5.7,0.9-12.6-0.5-18
				c0.9-0.3,1.7-0.7,2.5-1.2c5.1,8.6,7.4,17.1,7.4,17.1l11.7-11.6c-2.6-5.4-8.2-9.6-13-12.4c0.4-0.8,0.7-1.7,0.9-2.7
				C223,310.1,230.6,314.5,230.6,314.5z M198.3,315.1c-6.3,0-11.3-5.1-11.3-11.3c0-6.3,5.1-11.3,11.3-11.3c6.3,0,11.3,5.1,11.3,11.3
				C209.7,310,204.6,315.1,198.3,315.1z"/>
		</g>
	</g>
	<g>
		<g>
			
				<image style="overflow:visible;" width="713" height="368" xlink:href="../../../404.html"  transform="matrix(0.24 0 0 0.24 112.56 464.64)">
			</image>
		</g>
		<ellipse class="st7" cx="198.1" cy="446.8" rx="62.5" ry="62"/>
		<path class="st21" d="M198.1,384.9c-34.5,0-62.5,27.7-62.5,62c0,0.6,0,1.2,0,1.8h124.9c0-0.6,0-1.2,0-1.8
			C260.5,412.6,232.6,384.9,198.1,384.9z"/>
		<g>
			<path class="st20" d="M206.4,473.4c0,1.1-0.9,1.9-1.9,1.9h-13.4c-1.1,0-1.9-0.9-1.9-1.9l0,0c0-1.1,0.9-1.9,1.9-1.9h13.4
				C205.6,471.4,206.4,472.3,206.4,473.4L206.4,473.4z"/>
			<path class="st20" d="M206.4,479.6c0,1.1-0.9,1.9-1.9,1.9h-13.4c-1.1,0-1.9-0.9-1.9-1.9l0,0c0-1.1,0.9-1.9,1.9-1.9h13.4
				C205.6,477.7,206.4,478.6,206.4,479.6L206.4,479.6z"/>
			<path class="st20" d="M194,479.3c-0.1,0-0.1,0-0.2,0c-0.4,0.6-0.6,1.4-0.6,2.2c0,2.5,2,4.5,4.5,4.5c2.5,0,4.5-2,4.5-4.5
				c0-0.8-0.2-1.5-0.5-2.1C199.2,479.5,196.6,479.6,194,479.3z"/>
			<path class="st20" d="M217.7,440.7c0-10.9-8.9-19.8-19.9-19.8c-11,0-19.9,8.8-19.9,19.8c0,4.1,1.3,7.9,3.4,11.1h0
				c0,0,7,10.2,7,16.2h9.4h9.4c0-6,7-16.2,7-16.2l0,0C216.4,448.6,217.7,444.8,217.7,440.7z M211,450.3c0,0-5.7,8.2-5.7,13h-7.6
				h-7.6c0-4.8-5.7-13-5.7-13h0c-1.7-2.5-2.8-5.6-2.8-8.9c0-8.8,7.2-15.9,16-15.9c8.8,0,16,7.1,16,15.9
				C213.8,444.7,212.8,447.8,211,450.3L211,450.3z"/>
			<g>
				<path class="st20" d="M185.9,446c-1,0-1.8-0.8-1.8-1.7c0-0.2-0.1-3.8,1.5-7.6c1.6-3.7,5-8.3,12.6-9.4c1-0.1,1.9,0.5,2,1.5
					c0.1,1-0.5,1.9-1.5,2c-4.8,0.7-8.1,3.1-9.8,7.2c-1.3,3.2-1.2,6.1-1.2,6.1C187.8,445.2,187,446,185.9,446
					C186,446,186,446,185.9,446L185.9,446z"/>
			</g>
			<polygon class="st20" points="197.8,407.7 193.2,418.5 202.4,418.5 197.8,407.7 193.2,418.5 202.4,418.5 			"/>
			<polygon class="st20" points="215.4,412.6 205.8,419.4 213.8,424.1 215.4,412.6 205.8,419.4 213.8,424.1 			"/>
			<polygon class="st20" points="227.9,425.7 216.2,426.7 220.5,434.8 227.9,425.7 216.2,426.7 220.5,434.8 			"/>
			<polygon class="st20" points="231.8,443.4 221.3,438.2 220.8,447.4 231.8,443.4 221.3,438.2 220.8,447.4 			"/>
			<polygon class="st20" points="180.8,412.6 190.4,419.4 182.4,424.1 180.8,412.6 190.4,419.4 182.4,424.1 			"/>
			<polygon class="st20" points="168.3,425.7 180,426.7 175.7,434.8 168.3,425.7 180,426.7 175.7,434.8 			"/>
			<polygon class="st20" points="164.4,443.4 174.9,438.2 175.4,447.4 164.4,443.4 174.9,438.2 175.4,447.4 			"/>
		</g>
	</g>
	<g>
		<g>
			
				<image style="overflow:visible;" width="713" height="368" xlink:href="../../../404.html"  transform="matrix(0.24 0 0 0.24 281.28 464.64)">
			</image>
		</g>
		<g>
			<ellipse class="st7" cx="366.9" cy="446.8" rx="62.5" ry="62"/>
			<path class="st21" d="M366.9,384.9c-34.5,0-62.5,27.7-62.5,62c0,0.6,0,1.2,0,1.8h124.9c0-0.6,0-1.2,0-1.8
				C429.3,412.6,401.3,384.9,366.9,384.9z"/>
			<g>
				<g>
					<path class="st20" d="M404.8,446.6c0-11.5-5.3-21.7-13.7-28.4l-6.1,7.5c6.1,4.9,10.1,12.5,10.1,20.9c0,9.2-4.6,17.3-11.7,22.2
						l5.5,7.9C398.5,470,404.8,459,404.8,446.6z"/>
					<path class="st20" d="M389.4,446.6c0-6.7-3.1-12.6-8-16.6l-6.1,7.5c2.7,2.2,4.4,5.4,4.4,9.1c0,4-2,7.5-5.1,9.6l5.5,7.9
						C385.7,460.2,389.4,453.8,389.4,446.6z"/>
				</g>
				<path class="st20" d="M340.7,438.5H336c-3.9,0-7.1,3.2-7.1,7.1v3.8c0,3.9,3.2,7.1,7.1,7.1h4.7V438.5z"/>
				<polygon class="st20" points="360.5,422.7 343.8,438.5 343.8,457.2 360.5,472.6 367.7,472.6 367.7,422.7 				"/>
			</g>
		</g>
	</g>
	<rect x="66.2" y="199.2" class="st7" width="76.9" height="12"/>
	<g class="st22">
		
			<image style="overflow:visible;" width="610" height="351" xlink:href="../../../404.html"  transform="matrix(0.24 0 0 0.24 -0.96 337.92)">
		</image>
	</g>
</g>
</svg>
