<?xml version="1.0" encoding="utf-8"?>
<!-- Generator: Adobe Illustrator 21.0.0, SVG Export Plug-In . SVG Version: 6.00 Build 0)  -->
<svg version="1.1" id="Layer_1" xmlns="http://www.w3.org/2000/svg" xmlns:xlink="http://www.w3.org/1999/xlink" x="0px" y="0px"
	 viewBox="0 0 612 612" style="enable-background:new 0 0 612 612;" xml:space="preserve">
<style type="text/css">
	.st0{fill:#2D8967;}
	.st1{fill:#08162C;}
	.st2{fill:#F2F2F2;}
	.st3{fill:#D7D7D7;}
	.st4{fill:#E9E9E9;}
	.st5{fill:#EE3E25;}
	.st6{opacity:0.3;}
	.st7{opacity:0.4;}
	.st8{fill:#FFFFFF;}
	.st9{clip-path:url(#SVGID_2_);fill:#EE3E25;}
	.st10{clip-path:url(#SVGID_2_);fill:#F4F5F5;}
	.st11{clip-path:url(#SVGID_2_);fill:#08162C;}
	.st12{clip-path:url(#SVGID_2_);fill:none;stroke:#08162C;stroke-width:0.5;stroke-miterlimit:10;}
	.st13{fill:#EB2027;}
	.st14{fill:#D02027;}
	.st15{fill:#328ECD;}
	.st16{fill:#FCFDFA;}
	.st17{fill:#335FAB;}
	.st18{fill:#E5E5E4;}
	.st19{fill:none;stroke:#08162C;stroke-width:2;stroke-miterlimit:10;}
	.st20{fill:#C6C4C4;}
	.st21{fill:#AAABB0;}
	.st22{opacity:0.5;fill:#FCFDFA;}
</style>
<g>
	<circle class="st0" cx="306" cy="306" r="306"/>
	<g>
		<g>
			<path class="st1" d="M108.1,323.4l7.8-16.9c-1.1,2.4,1.4,5.9,5.5,7.8c4.1,1.9,8.4,1.5,9.5-0.9l-7.8,16.9c-1.9,4.1-6.8,6-10.9,4.1
				C108,332.5,106.2,327.6,108.1,323.4z"/>
			<path class="st2" d="M121.4,314.3c-4.1-1.9-6.6-5.4-5.5-7.8l5.5-12c1.9-4.1,6.8-6,10.9-4.1c4.1,1.9,6,6.8,4.1,10.9l-5.5,12
				C129.7,315.8,125.5,316.2,121.4,314.3z"/>
		</g>
		<g>
			<rect x="190.8" y="309.7" class="st3" width="224" height="70"/>
			<g>
				<g>
					<rect x="196.5" y="316.3" class="st4" width="11.3" height="11.3"/>
					<rect x="212.5" y="316.3" class="st4" width="11.3" height="11.3"/>
					<rect x="227.8" y="316.3" class="st4" width="11.3" height="11.3"/>
					<rect x="243.1" y="316.3" class="st4" width="11.3" height="11.3"/>
					<rect x="258.5" y="316.3" class="st4" width="11.3" height="11.3"/>
					<rect x="273.8" y="316.3" class="st4" width="11.3" height="11.3"/>
					<rect x="289.1" y="316.3" class="st4" width="11.3" height="11.3"/>
					<rect x="304.5" y="316.3" class="st4" width="11.3" height="11.3"/>
					<rect x="319.8" y="316.3" class="st4" width="11.3" height="11.3"/>
					<rect x="335.1" y="316.3" class="st4" width="11.3" height="11.3"/>
					<rect x="350.5" y="316.3" class="st4" width="11.3" height="11.3"/>
					<rect x="365.8" y="316.3" class="st4" width="11.3" height="11.3"/>
					<rect x="381.1" y="316.3" class="st4" width="11.3" height="11.3"/>
					<rect x="396.5" y="316.3" class="st4" width="11.3" height="11.3"/>
				</g>
				<g>
					<rect x="196.5" y="331.7" class="st4" width="11.3" height="11.3"/>
					<rect x="212.5" y="331.7" class="st4" width="11.3" height="11.3"/>
					<rect x="227.8" y="331.7" class="st4" width="11.3" height="11.3"/>
					<rect x="243.1" y="331.7" class="st4" width="11.3" height="11.3"/>
					<rect x="258.5" y="331.7" class="st4" width="11.3" height="11.3"/>
					<rect x="273.8" y="331.7" class="st4" width="11.3" height="11.3"/>
					<rect x="289.1" y="331.7" class="st4" width="11.3" height="11.3"/>
					<rect x="304.5" y="331.7" class="st4" width="11.3" height="11.3"/>
					<rect x="319.8" y="331.7" class="st4" width="11.3" height="11.3"/>
					<rect x="335.1" y="331.7" class="st4" width="11.3" height="11.3"/>
					<rect x="350.5" y="331.7" class="st4" width="11.3" height="11.3"/>
					<rect x="365.8" y="331.7" class="st4" width="11.3" height="11.3"/>
					<rect x="381.1" y="331.7" class="st4" width="11.3" height="11.3"/>
					<rect x="396.5" y="331.7" class="st4" width="11.3" height="11.3"/>
				</g>
				<g>
					<rect x="196.5" y="346.3" class="st4" width="11.3" height="11.3"/>
					<rect x="212.5" y="346.3" class="st4" width="11.3" height="11.3"/>
					<rect x="227.8" y="346.3" class="st4" width="11.3" height="11.3"/>
					<rect x="243.1" y="346.3" class="st4" width="11.3" height="11.3"/>
					<rect x="258.5" y="346.3" class="st4" width="11.3" height="11.3"/>
					<rect x="273.8" y="346.3" class="st4" width="11.3" height="11.3"/>
					<rect x="289.1" y="346.3" class="st4" width="11.3" height="11.3"/>
					<rect x="304.5" y="346.3" class="st4" width="11.3" height="11.3"/>
					<rect x="319.8" y="346.3" class="st4" width="11.3" height="11.3"/>
					<rect x="335.1" y="346.3" class="st4" width="11.3" height="11.3"/>
					<rect x="350.5" y="346.3" class="st4" width="11.3" height="11.3"/>
					<rect x="365.8" y="346.3" class="st4" width="11.3" height="11.3"/>
					<rect x="381.1" y="346.3" class="st4" width="11.3" height="11.3"/>
					<rect x="396.5" y="346.3" class="st4" width="11.3" height="11.3"/>
				</g>
				<rect x="196.5" y="361.3" class="st4" width="11.3" height="11.3"/>
				<rect x="212.5" y="361.3" class="st4" width="11.3" height="11.3"/>
				<rect x="227.8" y="361.3" class="st5" width="88" height="11.3"/>
				<rect x="319.8" y="361.3" class="st4" width="11.3" height="11.3"/>
				<rect x="335.1" y="361.3" class="st4" width="11.3" height="11.3"/>
				<rect x="350.5" y="361.3" class="st4" width="11.3" height="11.3"/>
				<rect x="365.8" y="361.3" class="st4" width="26.7" height="11.3"/>
			</g>
		</g>
		<g class="st6">
			<path class="st2" d="M73.6,429.2c-5.8,0-11.1-4.7-15-12.5c4.8-1.7,9.9-4.2,15-7.4c1.6,1,3.2,1.9,4.8,2.7c0,0.2-0.1,0.4-0.1,0.5
				c0,2.3,1.8,4.1,4.1,4.1c1.2,0,2.2-0.5,3-1.3c1.1,0.5,2.1,0.9,3.2,1.2C84.7,424.5,79.4,429.2,73.6,429.2 M58,415.5
				c-2.9-6.2-5.1-14.2-6-23.1c1.6,1.6,3.3,3.2,5,4.7c4.9,4.4,10.1,8.2,15.3,11.5C67.4,411.6,62.6,413.9,58,415.5 M78.8,410.8
				c-1.3-0.7-2.6-1.4-3.9-2.2c5.2-3.2,10.3-7.1,15.3-11.5c1.8-1.5,3.4-3.1,5-4.7c-0.9,8.9-3,16.9-6,23.1c-1-0.4-2-0.7-3-1.2
				c0.2-0.5,0.4-1.1,0.4-1.7c0-2.3-1.8-4.1-4.1-4.1C80.9,408.6,79.5,409.5,78.8,410.8 M44.9,418.2c-3.8,0-6.8-0.9-8.8-2.7
				c-2-1.8-3.1-4.4-3.1-7.7c0-6.7,4.1-15.4,10.9-24.3c2,2.5,4.2,5,6.6,7.4c0.8,9.7,3.1,18.3,6.3,25.1
				C52.5,417.4,48.4,418.2,44.9,418.2 M102.3,418.2c-3.5,0-7.6-0.8-11.9-2.2c3.2-6.8,5.4-15.4,6.3-25.1c2.4-2.5,4.6-4.9,6.6-7.4
				c6.9,8.9,10.9,17.6,10.9,24.3c0,3.3-1,5.9-3.1,7.7C109.1,417.3,106.1,418.2,102.3,418.2 M96.9,388.8c0.1-2.1,0.2-4.2,0.2-6.4
				s-0.1-4.3-0.2-6.4c2,2.1,3.8,4.3,5.5,6.4C100.7,384.5,98.9,386.6,96.9,388.8 M50.4,388.8c-2-2.1-3.9-4.3-5.5-6.4
				c1.7-2.1,3.5-4.3,5.5-6.4c-0.1,2.1-0.2,4.2-0.2,6.4C50.1,384.6,50.2,386.7,50.4,388.8 M73.6,407.8c-5.3-3.3-10.6-7.2-15.7-11.7
				c-2.2-1.9-4.2-3.9-6.1-5.8c-0.2-2.6-0.3-5.2-0.3-7.9c0-2.7,0.1-5.3,0.3-7.9c1.9-2,4-3.9,6.1-5.8c5.1-4.5,10.4-8.4,15.7-11.7
				c5.3,3.3,10.6,7.2,15.7,11.7c2.2,1.9,4.2,3.9,6.1,5.8c0.2,2.6,0.3,5.2,0.3,7.9c0,2.7-0.1,5.3-0.3,7.9c-1.9,2-4,3.9-6.1,5.8
				C84.2,400.6,78.9,404.5,73.6,407.8 M53.7,363.2c2.3,0,4.1-1.8,4.1-4.1c0-1.6-0.9-3-2.3-3.7c0.7-2.2,1.6-4.3,2.5-6.2
				c4.6,1.6,9.4,4,14.3,6.9c-5.2,3.2-10.3,7.1-15.3,11.5c-1.8,1.5-3.4,3.1-5,4.7c0.3-3.2,0.8-6.2,1.4-9.1
				C53.5,363.2,53.6,363.2,53.7,363.2 M95.2,372.3c-1.6-1.6-3.3-3.2-5-4.7c-4.9-4.4-10.1-8.2-15.3-11.5c4.9-2.9,9.8-5.3,14.3-6.9
				C92.2,355.4,94.3,363.4,95.2,372.3 M43.9,381.3C37.1,372.4,33,363.6,33,357c0-3.3,1-5.9,3.1-7.7c2.1-1.8,5-2.7,8.8-2.7
				c3.5,0,7.6,0.8,11.9,2.2c-0.9,1.9-1.8,4-2.5,6.3c-0.2,0-0.4-0.1-0.6-0.1c-2.3,0-4.1,1.8-4.1,4.1c0,1.7,1.1,3.2,2.5,3.8
				c-0.7,3.5-1.3,7.1-1.6,11C48.1,376.3,45.9,378.8,43.9,381.3 M103.3,381.3c-2-2.5-4.2-5-6.6-7.4c-0.8-9.7-3.1-18.3-6.3-25.1
				c4.3-1.5,8.4-2.2,11.9-2.2c3.8,0,6.8,0.9,8.8,2.7c2,1.8,3.1,4.4,3.1,7.7C114.2,363.6,110.2,372.4,103.3,381.3 M73.6,355.4
				c-5.1-3.1-10.2-5.6-15-7.4c3.9-7.7,9.2-12.5,15-12.5c5.8,0,11.1,4.7,15,12.5C83.8,349.7,78.7,352.2,73.6,355.4 M73.6,334.2
				c-6.3,0-12,5.1-16.2,13.4c-4.5-1.5-8.8-2.4-12.5-2.4c-4.2,0-7.4,1-9.7,3.1c-2.3,2.1-3.5,5-3.5,8.7c0,7,4.2,16.1,11.5,25.4
				c-7.2,9.3-11.5,18.4-11.5,25.4c0,3.7,1.2,6.7,3.5,8.7c2.3,2,5.6,3.1,9.7,3.1c3.7,0,8-0.8,12.5-2.4c4.2,8.3,9.9,13.4,16.2,13.4
				c6.3,0,12-5.1,16.2-13.4c4.5,1.5,8.8,2.4,12.5,2.4c4.2,0,7.4-1,9.7-3.1c2.3-2.1,3.5-5,3.5-8.7c0-7-4.2-16.1-11.5-25.4
				c7.2-9.3,11.5-18.4,11.5-25.4c0-3.7-1.2-6.7-3.5-8.7c-2.3-2-5.6-3.1-9.7-3.1c-3.7,0-8,0.8-12.5,2.4
				C85.6,339.3,79.9,334.2,73.6,334.2"/>
			<path class="st2" d="M73.6,372.5c-5.4,0-9.9,4.4-9.9,9.9c0,5.4,4.4,9.9,9.9,9.9c5.4,0,9.9-4.4,9.9-9.9
				C83.5,376.9,79.1,372.5,73.6,372.5"/>
		</g>
		<g class="st7">
			<polyline class="st8" points="531.8,152.1 524.8,175.2 522,175.2 515.2,196.8 497.3,196.8 491.9,218.1 489.6,203.1 484.8,203.1 
				476.4,167.7 466.1,203.1 441.1,203.1 441.1,208.2 469.9,208.2 475.9,187.7 480.8,208.2 485.2,208.2 490.8,243.4 501.3,202 
				519,201.9 525.7,180.3 528.6,180.3 531,172.5 545.8,241.7 557.2,199.1 581.1,199.1 581.1,194 553.2,194 546.4,219.8 531.8,152.1 
							"/>
		</g>
		<g class="st7">
			<polyline class="st8" points="118.4,152.1 111.4,175.2 108.5,175.2 101.8,196.8 83.9,196.8 78.5,218.1 76.1,203.1 71.4,203.1 
				63,167.7 52.6,203.1 27.6,203.1 27.6,208.2 56.5,208.2 62.5,187.7 67.4,208.2 71.8,208.2 77.4,243.4 87.9,202 105.6,201.9 
				112.3,180.3 115.2,180.3 117.5,172.5 132.4,241.7 143.8,199.1 167.6,199.1 167.6,194 139.8,194 132.9,219.8 118.4,152.1 			"/>
		</g>
		<g>
			<g>
				<defs>
					<circle id="SVGID_1_" cx="281" cy="506.8" r="65"/>
				</defs>
				<clipPath id="SVGID_2_">
					<use xlink:href="#SVGID_1_"  style="overflow:visible;"/>
				</clipPath>
				<circle class="st9" cx="281" cy="506.8" r="65"/>
				<path class="st10" d="M328.3,547.2c-5.8-2.8-28-12.3-32.5-15.2l0-11.3c0,0,6.5-7.8,7.5-15.7c0,0,2.8,2.9,3.8-2.5
					c0.8-4.4,1.5-9.3-0.7-9.6c0-0.7-0.1-1.3-0.1-1.9c0-0.3,0-0.5,0-0.8c0-12.8-5.7-28.4-24.7-28.4c-17.9,0-24.7,15.6-24.7,28.4
					c0,1,0,2,0.1,2.9c-3.4-1.2-2.7,4.4-1.8,9.4c1,5.4,3.8,2.5,3.8,2.5c1,8,7.5,15.7,7.5,15.7l0,11.3c-4.5,2.9-26.7,12.4-32.5,15.2
					c-5.7,2.8-6.3,29.9-6.3,29.9l56.7,16.3l50.5-16.3C334.6,577.2,334,550,328.3,547.2z"/>
				<path class="st11" d="M266.2,532.1c-2.5-1.7,14.8,31.6,14.8,31.6l14.8-31.6C295.8,532.1,281.1,542.3,266.2,532.1z"/>
				<path class="st11" d="M281.5,461.3c0,0-26.5-2-24.7,31.9l4.2,3.3l5-16.4c0,0,3.5,1,12.5,1.1v0h1.4c0.4,0,0.7,0,1.2,0v0l0,0v0
					c0.4,0,0.8,0,1.2,0h1v0c9.4-0.1,14-1.1,14-1.1l5,16.4l4-3.5C308.9,459,281.5,461.3,281.5,461.3z"/>
				<path class="st12" d="M277.8,496.6c0,2.2-1.8,3.9-3.9,3.9h-3.9c-2.2,0-3.9-1.8-3.9-3.9l0,0c0-2.2,1.8-3.9,3.9-3.9h3.9
					C276.1,492.6,277.8,494.4,277.8,496.6L277.8,496.6z"/>
				<path class="st12" d="M295.8,496.6c0,2.2-1.8,3.9-3.9,3.9h-4c-2.2,0-3.9-1.8-3.9-3.9l0,0c0-2.2,1.8-3.9,3.9-3.9h4
					C294,492.6,295.8,494.4,295.8,496.6L295.8,496.6z"/>
				<line class="st12" x1="277.8" y1="496.6" x2="283.1" y2="496.6"/>
				<line class="st12" x1="295.8" y1="496.6" x2="304.6" y2="490.2"/>
				<line class="st12" x1="266" y1="496.6" x2="259.2" y2="490.2"/>
				<polygon class="st9" points="312.9,550.2 307.5,550.2 307.5,544.9 301.6,544.9 301.6,550.2 296.2,550.2 296.2,556.2 
					301.6,556.2 301.6,561.5 307.5,561.5 307.5,556.2 312.9,556.2 				"/>
			</g>
		</g>
		<g>
			<g>
				<g>
					<path class="st5" d="M415.3,401.2c-12,0-21.6,9.7-21.6,21.7c0,3.2,0.6,6.3,1.6,9.3c0,0,0.9,2.7,1.7,4.2
						c9.1,18.8,34.3,31,34.3,31v-59.3C427.2,403.9,421.6,401.2,415.3,401.2z"/>
				</g>
				<g>
					<path class="st13" d="M447,401.2c-6.3,0-11.9,2.7-15.9,7v59.3c0,0,25.1-12.2,34.2-31c0,0,1.2-2.5,1.7-4.2
						c0.9-3,1.6-6.1,1.6-9.3C468.7,410.9,459,401.2,447,401.2z"/>
				</g>
				<g>
					<path class="st14" d="M447,401.2c-6.3,0-11.9,2.7-15.9,7v59.3c0,0,25.1-12.2,34.2-31c0,0,1.2-2.5,1.7-4.2
						c0.9-3,1.6-6.1,1.6-9.3C468.7,410.9,459,401.2,447,401.2z"/>
				</g>
			</g>
			<g>
				<circle class="st15" cx="455" cy="456.8" r="18.6"/>
			</g>
			<g>
				<circle class="st1" cx="455" cy="456.8" r="16.6"/>
				<path class="st15" d="M455,474c-9.5,0-17.2-7.7-17.2-17.2c0-9.5,7.7-17.2,17.2-17.2c9.5,0,17.2,7.7,17.2,17.2
					C472.3,466.3,464.5,474,455,474z M455,440.8c-8.8,0-15.9,7.1-15.9,15.9c0,8.8,7.1,15.9,15.9,15.9c8.8,0,15.9-7.1,15.9-15.9
					C470.9,448,463.8,440.8,455,440.8z"/>
			</g>
			<g>
				<path class="st16" d="M460.9,452.6c0,1.1-0.3,2-1,2.7c-0.6,0.7-1.6,1.3-2.7,1.5v0.1c1.4,0.2,2.4,0.6,3.1,1.3
					c0.7,0.7,1.1,1.6,1.1,2.7c0,1.6-0.6,2.9-1.8,3.8c-1.2,0.9-2.9,1.4-5.1,1.4c-1.9,0-3.5-0.3-4.9-0.9v-3.1c0.7,0.3,1.4,0.6,2.2,0.8
					c0.8,0.2,1.6,0.3,2.4,0.3c1.2,0,2.1-0.2,2.6-0.6c0.6-0.4,0.9-1.1,0.9-2c0-0.8-0.3-1.4-1-1.7c-0.7-0.3-1.7-0.5-3.1-0.5h-1.3v-2.8
					h1.3c1.3,0,2.3-0.2,2.9-0.5c0.6-0.3,0.9-0.9,0.9-1.8c0-1.3-0.8-1.9-2.4-1.9c-0.6,0-1.1,0.1-1.7,0.3c-0.6,0.2-1.2,0.5-1.9,1
					l-1.7-2.5c1.6-1.1,3.4-1.7,5.6-1.7c1.8,0,3.2,0.4,4.2,1.1C460.3,450.3,460.9,451.3,460.9,452.6z"/>
			</g>
		</g>
		<g>
			<g>
				<g>
					<g>
						<path class="st16" d="M177.7,408.5h-20.5c-6,0-10.8,4.8-10.8,10.8v31v9.3v9c0,1,0.8,1.8,1.8,1.8h9h20.5h9c1,0,1.8-0.8,1.8-1.8
							v-9v-9.3v-31C188.5,413.4,183.6,408.5,177.7,408.5z"/>
					</g>
				</g>
				<g>
					<g>
						<path class="st3" d="M177.7,408.5h-10.3v62h10.3h9c1,0,1.8-0.8,1.8-1.8v-9v-9.3v-31C188.5,413.4,183.6,408.5,177.7,408.5z"/>
					</g>
				</g>
				<g>
					<g>
						<rect x="152.8" y="424.5" class="st15" width="14.6" height="24"/>
					</g>
				</g>
				<g>
					<g>
						<rect x="167.4" y="424.5" class="st17" width="14.6" height="24"/>
					</g>
				</g>
				<g>
					<g>
						<rect x="152.8" y="400.3" class="st1" width="29.2" height="9.1"/>
					</g>
				</g>
				<g>
					<g>
						<rect x="153.9" y="401.4" class="st16" width="0.9" height="6.8"/>
					</g>
					<g>
						<rect x="156.5" y="401.4" class="st16" width="0.9" height="6.8"/>
					</g>
					<g>
						<rect x="159.1" y="401.4" class="st16" width="0.9" height="6.8"/>
					</g>
					<g>
						<rect x="161.7" y="401.4" class="st16" width="0.9" height="6.8"/>
					</g>
					<g>
						<rect x="164.3" y="401.4" class="st16" width="0.9" height="6.8"/>
					</g>
					<g>
						<rect x="166.9" y="401.4" class="st16" width="0.9" height="6.8"/>
					</g>
					<g>
						<rect x="169.6" y="401.4" class="st16" width="0.9" height="6.8"/>
					</g>
					<g>
						<rect x="172.2" y="401.4" class="st16" width="0.9" height="6.8"/>
					</g>
					<g>
						<rect x="174.8" y="401.4" class="st16" width="0.9" height="6.8"/>
					</g>
					<g>
						<rect x="177.4" y="401.4" class="st16" width="0.9" height="6.8"/>
					</g>
					<g>
						<rect x="180" y="401.4" class="st16" width="0.9" height="6.8"/>
					</g>
				</g>
			</g>
			<rect x="155.4" y="427.3" class="st16" width="16" height="2"/>
			<rect x="163.2" y="430.2" class="st16" width="16" height="2"/>
			<rect x="172.4" y="427.3" class="st16" width="3.7" height="2"/>
			<rect x="157.4" y="430.2" class="st16" width="4.8" height="2"/>
			<rect x="176.7" y="427.3" class="st16" width="3.7" height="2"/>
		</g>
		<g>
			<path class="st16" d="M95.3,244.1h0.6h11.3h0.6c1,0,1.7,0.8,1.7,1.7s-0.8,1.7-1.7,1.7h-0.6v29.4V292v9.4c0,3.1-2.5,5.6-5.6,5.6
				c-3.1,0-5.6-2.5-5.6-5.6V292v-15.1v-29.4h-0.6c-1,0-1.7-0.8-1.7-1.7S94.4,244.1,95.3,244.1z"/>
			<path class="st1" d="M105.3,264.3v37.2c0,2-1.7,3.7-3.7,3.7c-2,0-3.7-1.7-3.7-3.7v-37.2H105.3z"/>
		</g>
		<g>
			<rect x="466.4" y="274.4" class="st18" width="79" height="112.7"/>
			<circle class="st1" cx="486.5" cy="301.2" r="9"/>
			<polygon class="st16" points="492.5,299.1 488.6,299.1 488.6,295.2 484.4,295.2 484.4,299.1 480.5,299.1 480.5,303.3 
				484.4,303.3 484.4,307.2 488.6,307.2 488.6,303.3 492.5,303.3 			"/>
			<rect x="472.6" y="318" class="st16" width="66" height="63.1"/>
			<rect x="509.4" y="286.4" class="st3" width="17.4" height="3.3"/>
			<rect x="529.9" y="286.4" class="st3" width="8.7" height="3.3"/>
			<rect x="513.8" y="292.6" class="st3" width="8.7" height="3.3"/>
			<rect x="505.1" y="292.6" class="st3" width="5.7" height="3.3"/>
			<rect x="524.2" y="292.6" class="st3" width="14.4" height="3.3"/>
			<rect x="489" y="329.3" class="st3" width="17.4" height="3.3"/>
			<rect x="477.2" y="329.3" class="st3" width="8.7" height="3.3"/>
			<rect x="517.5" y="329.3" class="st3" width="8.7" height="3.3"/>
			<rect x="493.3" y="323.1" class="st3" width="8.7" height="3.3"/>
			<rect x="505.1" y="323.1" class="st3" width="5.7" height="3.3"/>
			<rect x="508.8" y="329.3" class="st3" width="5.7" height="3.3"/>
			<rect x="477.2" y="323.1" class="st3" width="14.4" height="3.3"/>
			<rect x="485.9" y="341.6" class="st3" width="8.7" height="3.3"/>
			<rect x="493.3" y="335.5" class="st3" width="8.7" height="3.3"/>
			<rect x="477.2" y="341.6" class="st3" width="5.7" height="3.3"/>
			<rect x="496.6" y="341.6" class="st3" width="9.4" height="3.3"/>
			<rect x="521.5" y="372.2" class="st5" width="9.4" height="3.3"/>
			<rect x="513.8" y="372.2" class="st5" width="4.7" height="3.3"/>
			<rect x="515.1" y="335.5" class="st3" width="9.4" height="3.3"/>
			<rect x="504.3" y="335.5" class="st3" width="8.6" height="3.3"/>
			<rect x="477.2" y="335.5" class="st3" width="14.4" height="3.3"/>
			<rect x="485.9" y="354.3" class="st3" width="8.7" height="3.3"/>
			<rect x="493.3" y="348.1" class="st3" width="8.7" height="3.3"/>
			<rect x="477.2" y="354.3" class="st3" width="5.7" height="3.3"/>
			<rect x="496.6" y="354.3" class="st3" width="9.4" height="3.3"/>
			<rect x="515.1" y="348.1" class="st3" width="9.4" height="3.3"/>
			<rect x="504.3" y="348.1" class="st3" width="8.6" height="3.3"/>
			<rect x="477.2" y="348.1" class="st3" width="14.4" height="3.3"/>
			<rect x="513.8" y="323.1" class="st3" width="14.4" height="3.3"/>
			<path class="st19" d="M519.8,268.1c0,3.2,2.6,5.8,5.8,5.8l0,0c1.7,0,3.1,1.4,3.1,3.1c0,1.7-1.4,3.1-3.1,3.1h-36
				c-1.7,0-3.1-1.4-3.1-3.1c0-1.7,1.4-3.1,3.1-3.1l0,0c3.2,0,5.8-2.6,5.8-5.8"/>
			<rect x="491.9" y="261.2" class="st16" width="32" height="7.2"/>
		</g>
		<g>
			<g>
				<g>
					<g>
						<g>
							<g>
								<path class="st1" d="M442.7,105.7c0-4.1-3.3-7.5-7.5-7.5H172.4c-4.1,0-7.5,3.3-7.5,7.5v145.5h277.8V105.7z"/>
							</g>
						</g>
					</g>
					<g>
						<g>
							<path class="st3" d="M164.9,251.3v21.6c0,4.1,3.3,7.5,7.5,7.5h262.9c4.1,0,7.5-3.3,7.5-7.5v-21.6H164.9z"/>
						</g>
					</g>
					<g>
						<g>
							<rect x="172.2" y="105.8" class="st5" width="263.1" height="138.1"/>
						</g>
					</g>
					<g>
						<g>
							<rect x="276.2" y="280.5" class="st20" width="55.3" height="16.9"/>
						</g>
					</g>
					<g>
						<g>
							<rect x="255.1" y="296.3" class="st3" width="97.4" height="7.3"/>
						</g>
					</g>
					<g>
						<g>
							<rect x="276.2" y="280.3" class="st21" width="55.3" height="5.4"/>
						</g>
					</g>
				</g>
				<polygon class="st14" points="172.2,243.9 435.3,105.8 435.3,243.9 				"/>
			</g>
			<circle class="st16" cx="302.8" cy="174.8" r="51.6"/>
			<g>
				<path class="st5" d="M291,153.8c-8.9,0-16.1,7.3-16.1,16.2c0,2.4,0.4,4.7,1.2,6.9c0,0,0.7,2,1.3,3.1c6.8,14,25.5,23.1,25.5,23.1
					v-44.2C299.8,155.8,295.6,153.8,291,153.8z"/>
				<path class="st13" d="M314.6,153.8c-4.7,0-8.9,2-11.8,5.2v44.2c0,0,18.7-9.1,25.5-23.1c0,0,0.9-1.9,1.3-3.1
					c0.7-2.2,1.2-4.5,1.2-6.9C330.8,161,323.5,153.8,314.6,153.8z"/>
				<path class="st14" d="M314.6,153.8c-4.7,0-8.9,2-11.8,5.2v44.2c0,0,18.7-9.1,25.5-23.1c0,0,0.9-1.9,1.3-3.1
					c0.7-2.2,1.2-4.5,1.2-6.9C330.8,161,323.5,153.8,314.6,153.8z"/>
			</g>
		</g>
		<g>
			<path class="st5" d="M75.1,303.4l13.3,6.1c-1.9-0.9-4.6,1.1-6.1,4.3c-1.5,3.3-1.2,6.6,0.7,7.4l-13.3-6.1
				c-3.3-1.5-4.7-5.3-3.2-8.6C68,303.3,71.9,301.9,75.1,303.4z"/>
			<path class="st2" d="M82.3,313.8c1.5-3.3,4.2-5.2,6.1-4.3l9.4,4.3c3.3,1.5,4.7,5.3,3.2,8.6c-1.5,3.3-5.3,4.7-8.6,3.2l-9.4-4.3
				C81.1,320.4,80.8,317.1,82.3,313.8z"/>
		</g>
		<g>
			<path class="st22" d="M532.5,380.6c4.7-4.7,4.7-12.3,0-16.9c-4.7-4.7-12.2-4.7-16.9,0c-4.7,4.7-4.7,12.3,0,16.9
				C520.3,385.3,527.9,385.3,532.5,380.6z"/>
			<path class="st1" d="M534.6,361.6c-5.8-5.8-15.3-5.8-21.1,0c-5.8,5.8-5.8,15.3,0,21.1c5.2,5.2,13.2,5.7,19,1.7l3.8,3.8
				c-0.1,1.2,0.3,2.4,1.2,3.4l14.3,14.3c0.9,0.9,2.2,1.3,3.4,1.2c1,0.7,2.4,0.6,3.3-0.3c0.9-0.9,1-2.3,0.3-3.3
				c0.1-1.2-0.3-2.5-1.2-3.4l-14.3-14.3c-0.9-0.9-2.2-1.3-3.4-1.2l-3.8-3.8C540.3,374.9,539.8,366.8,534.6,361.6z M517.3,365.4
				c3.7-3.7,9.8-3.7,13.6,0c3.7,3.7,3.7,9.8,0,13.6c-3.7,3.7-9.8,3.7-13.6,0C513.5,375.2,513.5,369.1,517.3,365.4z"/>
		</g>
		<g>
			<path class="st17" d="M360.6,472.2c2.4,0.3,4.7,1,6.7,2.2l8.3-11.4c-3.9-2.6-8.5-4.3-13.5-4.8c-5-0.5-9.8,0.2-14.2,1.9l5.7,12.9
				C355.8,472.2,358.1,471.9,360.6,472.2z"/>
			<path class="st3" d="M355.7,518.7c13.8,1.4,26.4-6.6,31.4-18.9l-13.3-4.6c-2.8,6.3-9.4,10.3-16.6,9.5c-9-0.9-15.5-9-14.6-18
				c0.6-5.5,3.8-10.1,8.3-12.6l-5.7-12.9c-8.9,4.5-15.4,13.3-16.6,24C326.9,502,339,517,355.7,518.7z"/>
			<path class="st5" d="M389.2,491.6c0.2-1.9,0.2-3.7,0.1-5.6l-14,1.8c0,0.8,0,1.5-0.1,2.3c-0.1,0.8-0.2,1.5-0.4,2.3l13.3,4.6
				C388.6,495.3,389,493.5,389.2,491.6z"/>
			<path class="st16" d="M377.9,464.7l-8.3,11.4c2.6,2.3,4.5,5.4,5.2,8.8l14-1.8C387.5,475.8,383.6,469.3,377.9,464.7z"/>
		</g>
	</g>
</g>
</svg>
