<?xml version="1.0" encoding="utf-8"?>
<!-- Generator: Adobe Illustrator 19.2.1, SVG Export Plug-In . SVG Version: 6.00 Build 0)  -->
<svg version="1.1" id="Layer_1" xmlns="http://www.w3.org/2000/svg" xmlns:xlink="http://www.w3.org/1999/xlink" x="0px" y="0px"
	 viewBox="0 0 612 612" style="enable-background:new 0 0 612 612;" xml:space="preserve">
<style type="text/css">
	.st0{fill:#8AF9F6;}
	.st1{clip-path:url(#SVGID_3_);fill:#EF4136;stroke:#FFFFFF;stroke-width:1.0346;stroke-miterlimit:10;}
	.st2{fill:none;stroke:#FFFFFF;stroke-width:1.0346;stroke-miterlimit:10;}
	.st3{fill:#F27076;}
	.st4{fill:#662D91;}
	.st5{fill:url(#SVGID_4_);}
	.st6{fill:url(#SVGID_6_);}
	.st7{fill:url(#SVGID_7_);}
	.st8{fill:url(#SVGID_8_);}
	.st9{fill:url(#SVGID_9_);}
	.st10{fill:url(#SVGID_10_);}
	.st11{fill:#231F20;}
	.st12{fill:url(#SVGID_11_);}
	.st13{fill:#47A0E2;}
	.st14{fill:#0E2A30;}
	.st15{fill:#B6B7B7;}
	.st16{fill-rule:evenodd;clip-rule:evenodd;fill:#FFA600;}
	.st17{fill-rule:evenodd;clip-rule:evenodd;fill:#CC3737;}
	.st18{fill-rule:evenodd;clip-rule:evenodd;fill:#5ABBC4;}
	.st19{fill-rule:evenodd;clip-rule:evenodd;fill:#F06D17;}
	.st20{fill-rule:evenodd;clip-rule:evenodd;fill:#A3E5E6;}
	.st21{fill-rule:evenodd;clip-rule:evenodd;fill:#F27076;}
	.st22{fill-rule:evenodd;clip-rule:evenodd;fill:#FCA33B;}
	.st23{fill:#8DC63F;}
	.st24{fill:#5E8687;}
	.st25{fill:#F7941E;}
	.st26{fill:#DF2C2C;}
	.st27{fill:#BF0302;}
	.st28{fill:#40C9E7;}
	.st29{fill:#E2E4E5;}
	.st30{fill:#FFFFFF;}
	.st31{fill:#F0F1F1;}
	.st32{fill:#FBE158;}
	.st33{fill:#F3B607;}
	.st34{fill:#3E3E3F;}
	.st35{fill:#6FDAF1;}
	.st36{fill:#9E9FA0;}
	.st37{fill:#FA5655;}
	.st38{fill:none;}
	.st39{fill:#4F5954;}
	.st40{fill:#FFCFBA;}
	.st41{fill:#F4B4A7;}
	.st42{fill:#34393E;}
	.st43{fill:#A7A9AC;}
	.st44{fill:#3B433F;}
	.st45{fill:#BFBFBF;}
	.st46{fill:#323232;}
	.st47{fill:#FFC749;}
	.st48{fill:#BF9537;}
	.st49{fill:#00AEEF;}
	.st50{fill:#E6E9EE;}
	.st51{fill:#FF7058;}
	.st52{fill:#324A5E;}
	.st53{fill:#ACB3BA;}
	.st54{fill:#84DBFF;}
	.st55{fill:#193A51;}
	.st56{fill:#7CB342;}
	.st57{fill:#AED581;}
	.st58{fill:#B0BEC5;}
	.st59{fill:#78909C;}
	.st60{fill:#4DD0E1;}
	.st61{fill:#039BE5;}
	.st62{fill:#546E7A;}
	.st63{fill:#E53935;}
</style>
<g>
	<ellipse class="st0" cx="304.7" cy="566.9" rx="85.3" ry="7.6"/>
</g>
<g>
	<g>
		<g>
			<defs>
				<circle id="SVGID_2_" cx="305.5" cy="306" r="305"/>
			</defs>
			<clipPath id="SVGID_3_">
				<use xlink:href="#SVGID_2_"  style="overflow:visible;"/>
			</clipPath>
			<rect x="-9.7" y="-11.5" class="st1" width="631.8" height="631.8"/>
		</g>
		<g>
			<circle id="SVGID_1_" class="st2" cx="305.5" cy="306" r="305"/>
		</g>
	</g>
</g>
<g>
	<path class="st3" d="M57.9,308.9c-0.8-67.6,25.9-135.2,79.2-184.7C190.5,74.8,260,53.4,327.4,59.4l1.8-1.7
		c-4.7-0.4-9.4-0.8-14.1-0.9c-66.6-2.5-130.1,21-179,66.3c-48.9,45.3-77.2,106.9-79.7,173.4c-0.2,4.7-0.2,9.5-0.1,14.2L57.9,308.9z"
		/>
	<path class="st3" d="M519.3,180.9l1.3-1.2c-9-15.3-19.8-29.8-32.2-43.2c-17.6-19-37.7-34.9-59.6-47.4l-1.4,1.3
		c21.7,12.3,41.9,28,59.8,47.3C499.7,151.1,510.4,165.7,519.3,180.9z"/>
	<path class="st3" d="M551.2,275.1c9.5,76.5-16.6,156.3-77.3,212.6c-100.2,92.8-257.2,86.8-350-13.4c-17.8-19.2-32-40.6-42.6-63.2
		l-1.4,1.3c10.8,22.8,25.1,44,42.7,63.1c45.3,48.9,106.9,77.2,173.4,79.7c66.6,2.5,130.1-21,179-66.3
		c48.9-45.3,77.2-106.9,79.7-173.4c0.5-14.2-0.1-28.2-1.9-41.9L551.2,275.1z"/>
</g>
<g>
	<path class="st3" d="M125.5,207.3c7.6-13.8,16.8-27,27.9-39.1c74.4-82.2,200.8-90,284.8-18.9l1.1-1.2
		c-40.2-34.1-91-51.4-143.9-48.7c-55.2,2.7-106,26.8-143.1,67.8c-11.2,12.4-20.8,25.9-28.6,40.2H125.5z"/>
	<path class="st3" d="M100.6,294.1h-1.7c-0.4,7.3-0.4,14.7-0.1,22.1c2.6,52.9,24.8,101.8,62.7,138.4l1.1-1.2
		C118.3,410.5,97.4,351.8,100.6,294.1z"/>
	<path class="st3" d="M487.5,207.3c-2.1-3.8-4.3-7.6-6.6-11.3l-1.2,1.3c2,3.3,4,6.6,5.8,10H487.5z"/>
	<path class="st3" d="M512.1,294.1h-1.8c3.1,53-14.3,107.2-52.7,149.6c-62.9,69.5-162.9,85.8-243.1,46.2l-1.2,1.3
		c31.4,15.7,66.4,23.1,102.4,21.3c55.2-2.7,106-26.8,143.1-67.8c37.1-41,56-93.9,53.3-149.1C512.2,295.2,512.1,294.7,512.1,294.1z"
		/>
</g>
<g>
	<path class="st3" d="M389.3,511.6c3-1.3,6-2.6,9-4l-0.7-1.5c-2.9,1.4-5.9,2.7-8.9,4L389.3,511.6z"/>
	<path class="st3" d="M125.9,438.1l-1.3,1c2,2.6,4,5.2,6.1,7.8l1.3-1C129.8,443.3,127.8,440.7,125.9,438.1z"/>
	<path class="st3" d="M114.9,421.9l-1.4,0.9c1.7,2.8,3.5,5.6,5.3,8.3l1.4-0.9C118.4,427.4,116.6,424.7,114.9,421.9z"/>
	<path class="st3" d="M91.1,368.5l-1.6,0.5c0.9,3.1,1.9,6.3,3,9.4l1.5-0.5C93,374.7,92,371.6,91.1,368.5z"/>
	<path class="st3" d="M151.9,467.2l-1.1,1.2c2.4,2.2,4.8,4.4,7.3,6.6l1.1-1.2C156.7,471.6,154.2,469.4,151.9,467.2z"/>
	<path class="st3" d="M105.4,404.9l-1.5,0.7c1.5,2.9,3,5.9,4.6,8.7l1.4-0.8C108.4,410.7,106.8,407.8,105.4,404.9z"/>
	<path class="st3" d="M97.5,387l-1.5,0.6c1.2,3,2.5,6.1,3.8,9.1l1.5-0.7C99.9,393.1,98.6,390,97.5,387z"/>
	<path class="st3" d="M370.8,518.4c3.1-1,6.3-2.1,9.3-3.2l-0.6-1.5c-3,1.1-6.2,2.2-9.3,3.2L370.8,518.4z"/>
	<path class="st3" d="M332.1,525.3l0.2,1.6c3.2-0.4,6.5-0.9,9.7-1.5l-0.3-1.6C338.6,524.4,335.3,524.9,332.1,525.3z"/>
	<path class="st3" d="M351.4,521.9l0.4,1.6c3.2-0.7,6.4-1.5,9.6-2.3l-0.4-1.6C357.8,520.4,354.6,521.2,351.4,521.9z"/>
	<path class="st3" d="M166.7,479.9l-1,1.3c2.6,2,5.2,4,7.9,5.9l1-1.3C171.9,483.9,169.2,482,166.7,479.9z"/>
	<path class="st3" d="M182.6,491.3l-0.9,1.4c2.7,1.8,5.6,3.5,8.4,5.2l0.8-1.4C188.1,494.9,185.3,493.1,182.6,491.3z"/>
	<path class="st3" d="M223.2,512.2c-2.1-0.8-4.1-1.6-6.1-2.5l-0.6,1.5c2.3,1,4.7,1.9,7,2.8L223.2,512.2z"/>
	<path class="st3" d="M199.4,501.3l-0.8,1.4c2.9,1.5,5.9,3,8.8,4.4l0.7-1.5C205.2,504.3,202.3,502.8,199.4,501.3z"/>
	<path class="st3" d="M138.2,453.2l-1.2,1.1c2.2,2.4,4.4,4.9,6.7,7.2l1.2-1.1C142.6,458,140.4,455.6,138.2,453.2z"/>
	<path class="st3" d="M132.4,165.8l-1.3-1c-2.1,2.5-4.1,5.1-6.1,7.8l1.3,1C128.3,170.9,130.3,168.3,132.4,165.8z"/>
	<path class="st3" d="M158.7,136.6c-2.5,2.1-4.9,4.3-7.3,6.6l1.1,1.2c2.4-2.2,4.8-4.4,7.3-6.5L158.7,136.6z"/>
	<path class="st3" d="M144.3,150.1c-2.3,2.3-4.6,4.7-6.7,7.2l1.2,1.1c2.2-2.4,4.4-4.8,6.7-7.1L144.3,150.1z"/>
	<path class="st3" d="M172.8,125.5c-2.2,1.6-4.4,3.2-6.5,4.9l1,1.3c1.9-1.5,3.8-2.9,5.7-4.3L172.8,125.5z"/>
	<path class="st3" d="M264.5,88.4l-0.3-1.6c-2.9,0.5-5.8,1.1-8.7,1.7l0.2,1.6C258.7,89.5,261.6,88.9,264.5,88.4z"/>
	<path class="st3" d="M312.7,527l0.2,1.6c3.2-0.1,6.4-0.4,9.6-0.6l-0.1-1.6C319.2,526.6,315.9,526.9,312.7,527z"/>
	<path class="st3" d="M119.3,180.5c-1.8,2.7-3.7,5.5-5.4,8.3l1.4,0.9c1.7-2.8,3.5-5.5,5.3-8.2L119.3,180.5z"/>
	<path class="st3" d="M108.9,197.2c-1.6,2.9-3.2,5.8-4.6,8.7l1.5,0.7c1.5-2.9,3-5.8,4.6-8.6L108.9,197.2z"/>
	<path class="st3" d="M87.1,252.1c-0.8,3.2-1.5,6.4-2.2,9.6l1.6,0.3c0.6-3.2,1.4-6.4,2.2-9.6L87.1,252.1z"/>
	<path class="st3" d="M100,214.8c-1.3,3-2.6,6-3.8,9.1l1.5,0.6c1.2-3,2.5-6.1,3.8-9L100,214.8z"/>
	<path class="st3" d="M92.8,233.2c-1.1,3.1-2.1,6.3-3,9.4l1.6,0.5c0.9-3.1,1.9-6.3,3-9.3L92.8,233.2z"/>
	<path class="st3" d="M516.8,369.8c0.9-3.1,1.8-6.3,2.6-9.5l-1.6-0.4c-0.8,3.1-1.7,6.3-2.6,9.5L516.8,369.8z"/>
	<path class="st3" d="M505.4,216.4l1.5-0.7c-1.3-3-2.7-6-4.2-8.9l-1.5,0.7C502.7,210.4,504.1,213.4,505.4,216.4z"/>
	<path class="st3" d="M474.9,166.6l1.3-1c-2.1-2.5-4.2-5.1-6.4-7.5l-1.2,1.1C470.7,161.5,472.8,164,474.9,166.6z"/>
	<path class="st3" d="M407.1,503.2c2.9-1.5,5.8-3.1,8.6-4.8l-0.8-1.4c-2.8,1.6-5.7,3.2-8.5,4.7L407.1,503.2z"/>
	<path class="st3" d="M486.5,182.2l1.4-0.9c-1.8-2.7-3.7-5.4-5.7-8l-1.3,1C482.8,176.9,484.7,179.5,486.5,182.2z"/>
	<path class="st3" d="M303.9,84.9l0-1.6c-3.3,0-6.6,0.1-9.9,0.2l0.1,1.6C297.4,85,300.7,84.9,303.9,84.9z"/>
	<path class="st3" d="M274.2,86.9l0.5-0.1c3.2-0.4,6.5-0.8,9.7-1.1l-0.1-1.6c-3.2,0.3-6.5,0.6-9.8,1.1l-0.5,0.1L274.2,86.9z"/>
	<path class="st3" d="M323.5,85.8l0.1-1.6c-3.3-0.3-6.6-0.5-9.8-0.7l-0.1,1.6C317,85.3,320.3,85.5,323.5,85.8z"/>
	<path class="st3" d="M380.6,98.9l0.6-1.5c-3.1-1.2-6.2-2.2-9.3-3.3l-0.5,1.6C374.4,96.6,377.6,97.7,380.6,98.9z"/>
	<path class="st3" d="M362,92.8l0.4-1.6c-3.2-0.9-6.4-1.7-9.6-2.4l-0.4,1.6C355.6,91.2,358.8,92,362,92.8z"/>
	<path class="st3" d="M342.9,88.5l0.3-1.6c-3.2-0.6-6.5-1.1-9.7-1.5l-0.2,1.6C336.4,87.4,339.7,87.9,342.9,88.5z"/>
	<path class="st3" d="M496.7,198.8l1.4-0.8c-1.6-2.9-3.3-5.7-5-8.5l-1.4,0.9C493.5,193.2,495.2,196,496.7,198.8z"/>
	<path class="st3" d="M468.9,455.1c2.2-2.4,4.3-4.9,6.4-7.5l-1.3-1c-2.1,2.5-4.2,5-6.4,7.4L468.9,455.1z"/>
	<path class="st3" d="M481.4,439.9c2-2.6,3.9-5.3,5.7-8l-1.4-0.9c-1.8,2.7-3.8,5.4-5.7,7.9L481.4,439.9z"/>
	<path class="st3" d="M492.5,423.6c1.7-2.8,3.4-5.6,5-8.5l-1.4-0.8c-1.6,2.8-3.3,5.7-5,8.4L492.5,423.6z"/>
	<path class="st3" d="M424.1,493.3c2.7-1.8,5.5-3.6,8.1-5.5l-0.9-1.3c-2.6,1.9-5.4,3.7-8.1,5.5L424.1,493.3z"/>
	<path class="st3" d="M502.2,406.4c1.5-2.9,2.9-5.9,4.3-8.9l-1.5-0.7c-1.3,3-2.8,5.9-4.2,8.8L502.2,406.4z"/>
	<path class="st3" d="M440.1,481.9c2.6-2,5.1-4.1,7.6-6.2l-1.1-1.2c-2.5,2.1-5,4.2-7.6,6.2L440.1,481.9z"/>
	<path class="st3" d="M455.1,469.1c2.4-2.2,4.8-4.5,7.1-6.9l-1.2-1.1c-2.3,2.3-4.6,4.6-7,6.8L455.1,469.1z"/>
	<path class="st3" d="M521.8,272.5l1.6-0.2c-0.5-3.2-1.1-6.5-1.7-9.7l-1.6,0.3C520.8,266.1,521.3,269.3,521.8,272.5z"/>
	<path class="st3" d="M510.3,388.5c1.2-3,2.4-6.1,3.5-9.2l-1.5-0.5c-1.1,3.1-2.2,6.2-3.4,9.2L510.3,388.5z"/>
	<path class="st3" d="M512.6,234.6l1.6-0.5c-1.1-3.1-2.2-6.2-3.4-9.3l-1.5,0.6C510.4,228.4,511.5,231.5,512.6,234.6z"/>
	<path class="st3" d="M518,253.3l1.6-0.4c-0.8-3.2-1.6-6.4-2.5-9.5l-1.6,0.5C516.4,247,517.3,250.2,518,253.3z"/>
	<path class="st3" d="M525.6,291.9c-0.2-3.2-0.5-6.5-0.9-9.8l-1.6,0.2c0.4,3.2,0.6,6.5,0.8,9.7L525.6,291.9z"/>
	<path class="st3" d="M521.6,350.7c0.7-3.2,1.2-6.5,1.8-9.7l-1.6-0.3c-0.5,3.2-1.1,6.4-1.7,9.6L521.6,350.7z"/>
	<path class="st3" d="M524.7,331.2c0.4-3.2,0.7-6.5,0.9-9.8l-1.6-0.1c-0.2,3.2-0.5,6.5-0.9,9.7L524.7,331.2z"/>
	<path class="st3" d="M526,311.6c0.1-3.3,0.1-6.6,0-9.9l-1.6,0c0.1,3.2,0.1,6.5,0,9.8L526,311.6z"/>
</g>
<circle class="st3" cx="305.5" cy="306" r="155.3"/>
<rect x="176.5" y="218.8" class="st4" width="266.9" height="154.6"/>
<g>
	<g>
		<linearGradient id="SVGID_4_" gradientUnits="userSpaceOnUse" x1="267.4527" y1="438.3769" x2="357.5182" y2="438.3769">
			<stop  offset="6.060610e-003" style="stop-color:#58595B"/>
			<stop  offset="0.2803" style="stop-color:#757679"/>
			<stop  offset="0.5091" style="stop-color:#88898D"/>
			<stop  offset="1" style="stop-color:#58595B"/>
		</linearGradient>
		<path class="st5" d="M268,438v-1.2c0,0,0,0.1,0,0.1v0c0,1.7,1.7,3.1,8.7,3.1c13.6,0,28.4,0,33.8,0c1.4,0,2.1,0,2.1,0
			c5.4,0,20.2,0,33.8,0c7,0,9.5-1,9.5-2h-0.7l0,0H268z"/>
		<linearGradient id="SVGID_6_" gradientUnits="userSpaceOnUse" x1="311.1691" y1="403.6429" x2="311.1691" y2="443.7392">
			<stop  offset="8.484850e-002" style="stop-color:#6D6F73"/>
			<stop  offset="0.127" style="stop-color:#97999C"/>
			<stop  offset="0.1841" style="stop-color:#CCCDCE"/>
			<stop  offset="0.2121" style="stop-color:#E0E1E2"/>
			<stop  offset="0.3152" style="stop-color:#A7A9AC"/>
			<stop  offset="0.3893" style="stop-color:#868789"/>
			<stop  offset="0.4606" style="stop-color:#636363"/>
			<stop  offset="0.5264" style="stop-color:#6E6F6F"/>
			<stop  offset="0.6452" style="stop-color:#8B8D8F"/>
			<stop  offset="0.7394" style="stop-color:#A6AAAD"/>
		</linearGradient>
		<path class="st6" d="M347,426.7c-6.3-6.4-6.5-20.7-6.5-20.7h-28.3h-2.1h-28.3c0,0-0.2,14.2-6.5,20.7c-6.3,6.4-16.1,12.3,0.9,12.3
			c13.6,0,28.4,0,33.8,0c1.4,0,2.1,0,2.1,0c5.4,0,20.2,0,33.8,0C363.2,439,353.3,433.1,347,426.7z"/>
		<radialGradient id="SVGID_7_" cx="354.4962" cy="454.2698" r="33.4596" gradientUnits="userSpaceOnUse">
			<stop  offset="0" style="stop-color:#FFFFFF"/>
			<stop  offset="1" style="stop-color:#FFFFFF;stop-opacity:0"/>
		</radialGradient>
		<path class="st7" d="M316.8,439c3.5-7,14.6-14.1,28.5-15.5c0.6,1.1,1.4,2.1,2.2,3c6.2,6.3,15.8,12.5-0.1,12.5H316.8z"/>
		
			<radialGradient id="SVGID_8_" cx="410.1335" cy="454.2698" r="33.4596" gradientTransform="matrix(-1 0 0 1 678.9258 0)" gradientUnits="userSpaceOnUse">
			<stop  offset="0" style="stop-color:#FFFFFF"/>
			<stop  offset="1" style="stop-color:#FFFFFF;stop-opacity:0"/>
		</radialGradient>
		<path class="st8" d="M306.5,439c-3.5-7-14.6-14.1-28.5-15.5c-0.6,1.1-1.4,2.1-2.2,3c-6.2,6.3-15.8,12.5,0.1,12.5H306.5z"/>
		<linearGradient id="SVGID_9_" gradientUnits="userSpaceOnUse" x1="275.8712" y1="438.8492" x2="346.5436" y2="438.8492">
			<stop  offset="6.060610e-003" style="stop-color:#FFFFFF;stop-opacity:0"/>
			<stop  offset="0.5091" style="stop-color:#FFFFFF"/>
			<stop  offset="1" style="stop-color:#FFFFFF;stop-opacity:0"/>
		</linearGradient>
		<path class="st9" d="M275.9,438.8c5.9-0.1,11.8-0.1,17.7-0.2l17.7-0.1l17.7,0.1l8.8,0.1l8.8,0.1l-8.8,0.1l-8.8,0.1l-17.7,0.1
			l-17.7-0.1C287.6,439,281.8,438.9,275.9,438.8z"/>
		<linearGradient id="SVGID_10_" gradientUnits="userSpaceOnUse" x1="160.9575" y1="403.4916" x2="474.0186" y2="382.9709">
			<stop  offset="0" style="stop-color:#78797D"/>
			<stop  offset="0.3173" style="stop-color:#737478"/>
			<stop  offset="0.4909" style="stop-color:#6D6F73"/>
			<stop  offset="1" style="stop-color:#6D6F73"/>
		</linearGradient>
		<path class="st10" d="M166,398c0,4.7,5,8,9.7,8h132.5h4.5h132.5c4.7,0,8.8-3.3,8.8-8v-16H166V398z"/>
		<path class="st11" d="M445.2,209H312.7h-4.5H175.7c-4.7,0-9.7,4.3-9.7,9.1V382h288V218.1C454,213.3,449.9,209,445.2,209z M441,369
			H180V220h261V369z"/>
		<linearGradient id="SVGID_11_" gradientUnits="userSpaceOnUse" x1="161.0203" y1="403.4851" x2="474.0142" y2="382.9687">
			<stop  offset="0" style="stop-color:#898A8F"/>
			<stop  offset="4.993153e-002" style="stop-color:#909196"/>
			<stop  offset="0.3137" style="stop-color:#B1B2B6"/>
			<stop  offset="0.5663" style="stop-color:#C8CACD"/>
			<stop  offset="0.801" style="stop-color:#D6D8DB"/>
			<stop  offset="1" style="stop-color:#DBDDE0"/>
		</linearGradient>
		<path class="st12" d="M166,397.1c0,4.7,5,8.9,9.7,8.9h132.5h4.5h132.5c4.7,0,8.8-4.2,8.8-8.9V382H166V397.1z"/>
	</g>
	<g>
		<g>
			<g>
				<path class="st13" d="M401.9,333.2c-0.9-1.6-2-3-3.4-4.1l1-2l-4.2-2.2l-1,2c-1.7-0.5-3.5-0.7-5.4-0.5l-0.7-2.1l-4.5,1.4l0.7,2.1
					c-0.4,0.2-0.8,0.5-1.2,0.7c-1.1,0.8-2.1,1.7-2.9,2.7l-2-1l-2.2,4.2l2,1c-0.5,1.7-0.7,3.5-0.5,5.4l-2.1,0.7l1.4,4.5l2.1-0.7
					c0.9,1.6,2,3,3.4,4.1l-1,2l4.2,2.2l1-2c1.7,0.5,3.5,0.7,5.4,0.5l0.7,2.1l4.5-1.4l-0.7-2.1c0.4-0.2,0.8-0.5,1.2-0.7
					c1.1-0.8,2.1-1.7,2.9-2.7l2,1l2.2-4.2l-2-1c0.5-1.7,0.7-3.5,0.5-5.4l2.1-0.7l-1.4-4.5L401.9,333.2z M398.2,336.8
					c1.1,3.5-0.3,7.2-3.2,9.2c-0.6,0.4-1.4,0.8-2.2,1c-4.3,1.3-8.9-1.1-10.2-5.4c-1.1-3.5,0.3-7.2,3.2-9.2c0.7-0.4,1.4-0.8,2.2-1
					C392.3,330.1,396.9,332.5,398.2,336.8z"/>
				<polygon class="st13" points="389,344.7 385,340.8 386.4,335.3 391.8,333.8 395.8,337.7 394.4,343.2 				"/>
			</g>
		</g>
		<g>
			<polygon class="st14" points="462,385.4 493.3,421.9 481.8,431.7 445.9,389.9 			"/>
			<path class="st15" d="M454,376.2c0,0-4.7-0.2-8-3.1c-3.3-2.9-8.5,0.9-5.8,4.1c2.7,3.2,2.4,8.8,2.4,8.8L454,376.2z"/>
			<path class="st15" d="M425.4,317.6c18.4,1.7,32,18,30.3,36.4l0,0c-1.7,18.4-18,32-36.4,30.3l0,0c-18.4-1.7-32-18-30.3-36.4l0,0
				C390.7,329.5,407,315.9,425.4,317.6L425.4,317.6z M425,321.4c-16.3-1.5-30.8,10.5-32.3,26.9l0,0c-1.5,16.3,10.5,30.8,26.9,32.3
				l0,0c16.3,1.5,30.8-10.5,32.3-26.9l0,0C453.4,337.3,441.4,322.9,425,321.4L425,321.4z"/>
			<polygon class="st14" points="445.9,389.9 442.6,386 454,376.2 461.9,385.4 			"/>
		</g>
		<path class="st13" d="M412.3,369.1c1-0.5,1.9-1.1,2.8-1.7c2.5-1.7,4.7-3.7,6.5-6l4.4,2.3l4.9-9.4l-4.4-2.3c1.2-3.8,1.6-7.9,1.1-12
			l4.8-1.5l-3.1-10.1l-4.8,1.5c-1.7-3.2-4-6-6.6-8.4c-4.5,0.7-8.7,2.4-12.3,4.9c5,2,9,6.1,10.7,11.6c2.4,7.9-0.7,16.2-7.2,20.6
			c-1.5,1-3.1,1.8-4.9,2.3c-3.3,1-6.6,1.1-9.8,0.3c1.6,4.2,4,8,7.2,11.1c0.2,0,0.3,0,0.5,0l0.2,0.7c1.3,1.2,2.7,2.2,4.2,3.2l7.2-2.2
			L412.3,369.1z"/>
		<path class="st13" d="M407.8,352.2l3.1-12.2l-9-8.8l-2.3,0.7c-3.7,4.5-6.2,10.1-6.8,16.3c-0.1,1.5-0.2,3-0.1,4.4l3,3L407.8,352.2z
			"/>
	</g>
</g>
<g>
	<path class="st16" d="M355.3,325.8c1,0,2,0.1,2.9,0.3l-2.9,14.7l15-1.3c0,0.4,0.1,0.8,0.1,1.3c0,8.3-6.7,15-15,15s-15-6.7-15-15
		S347,325.8,355.3,325.8z"/>
	<path class="st17" d="M359.3,325.1c6.5,1.3,11.5,6.7,12,13.4l-15,1.3L359.3,325.1z"/>
	<path class="st18" d="M313.7,325.8c2.1,0,4.1,0.4,6,1.2l-6,13.8l12.9-7.6c1.3,2.2,2.1,4.8,2.1,7.6c0,8.3-6.7,15-15,15
		c-8.3,0-15-6.7-15-15S305.4,325.8,313.7,325.8z"/>
	<path class="st19" d="M321.7,324.6c2.9,1.3,5.4,3.4,7,6.2l-12.9,7.6L321.7,324.6z"/>
</g>
<g>
	<rect x="300.3" y="279.4" class="st20" width="49.1" height="3.1"/>
	<rect x="300.3" y="286.3" class="st20" width="49.1" height="3.1"/>
	<rect x="300.3" y="293.1" class="st20" width="49.1" height="3.1"/>
	<rect x="300.3" y="299.9" class="st20" width="49.1" height="3.1"/>
	<rect x="300.3" y="306.7" class="st20" width="26.5" height="3.1"/>
</g>
<g>
	<rect x="381.7" y="279.4" class="st20" width="49.1" height="3.1"/>
	<rect x="381.7" y="286.3" class="st20" width="49.1" height="3.1"/>
	<rect x="381.7" y="293.1" class="st20" width="49.1" height="3.1"/>
	<rect x="381.7" y="299.9" class="st20" width="49.1" height="3.1"/>
	<rect x="381.7" y="306.7" class="st20" width="26.5" height="3.1"/>
</g>
<g>
	<circle class="st19" cx="237.1" cy="273.7" r="38.9"/>
	<path class="st17" d="M215.7,306.2c-5.6-3.7-10.2-8.8-13.2-14.8l34.7-17.7L215.7,306.2z"/>
	<path class="st21" d="M202.4,291.4c-2.7-5.3-4.3-11.3-4.3-17.7c0-12.5,5.8-23.5,14.9-30.7l24,30.7L202.4,291.4z"/>
	<path class="st22" d="M213.1,243c6.6-5.2,14.9-8.3,24-8.3v38.9L213.1,243z"/>
	<path class="st18" d="M237.1,234.7v38.9l27.8-27.3C257.8,239.2,248,234.7,237.1,234.7z"/>
</g>
<g>
	<rect x="300.2" y="233.4" class="st20" width="132.6" height="3.2"/>
	<rect x="300.2" y="240.4" class="st20" width="132.6" height="3.2"/>
	<rect x="300.2" y="247.5" class="st20" width="132.6" height="3.2"/>
	<rect x="300.2" y="254.5" class="st20" width="132.6" height="3.2"/>
	<rect x="300.2" y="261.6" class="st20" width="71.6" height="3.2"/>
</g>
<g>
	<rect x="195.7" y="332.5" class="st20" width="91.2" height="2.2"/>
	<rect x="195.7" y="337.3" class="st20" width="91.2" height="2.2"/>
	<rect x="195.7" y="342.2" class="st20" width="91.2" height="2.2"/>
	<rect x="195.7" y="347" class="st20" width="91.2" height="2.2"/>
	<rect x="195.7" y="351.9" class="st20" width="49.2" height="2.2"/>
</g>
<circle class="st23" cx="162.5" cy="115.4" r="43.4"/>
<circle class="st24" cx="76.5" cy="359.1" r="43.4"/>
<circle class="st25" cx="298.3" cy="535.3" r="43.4"/>
<g>
	<g>
		<path class="st26" d="M149.5,98.2v11h-3.2V96.6c0-2.6,2.1-4.7,4.7-4.7h22.1c2.6,0,4.7,2.1,4.7,4.7v12.6h-3.2v-11H149.5z"/>
	</g>
	<g>
		<path class="st27" d="M177.9,117.1v-7.9V96.6c0-2.6-2.1-4.7-4.7-4.7h-22.1c-2.6,0-4.7,2.1-4.7,4.7v12.6v7.9
			c-2.1,0-3.6,0.5-4.7,1.3c-0.7,0.5-1.3,1.1-1.7,1.8c-1,1.5-1.3,3.2-1.5,4.7c-0.2,1.8,0,3.2,0,3.2h47.3
			C185.8,128.2,187.4,117.1,177.9,117.1z M174.8,98.2v9.5h-25.2v-9.5H174.8z"/>
	</g>
	<g>
		<path class="st26" d="M149.5,107.7v-9.5h13.1l6.3-6.3h-17.9c-2.6,0-4.7,2.1-4.7,4.7v12.6h3.2V107.7z"/>
	</g>
	<g>
		<rect x="149.5" y="98.2" class="st28" width="25.2" height="9.5"/>
	</g>
	<g>
		<path class="st29" d="M177.9,109.2c0-0.9,0.7-1.6,1.6-1.6h3.2c0.9,0,1.6,0.7,1.6,1.6v11h-6.3V109.2z"/>
	</g>
	<g>
		<g>
			<path class="st30" d="M179.5,107.7h3.2v-9.5h4.7V95h-6.3c-0.9,0-1.6,0.7-1.6,1.6V107.7z"/>
		</g>
	</g>
	<g>
		<path class="st29" d="M146.4,109.2c0-0.9-0.7-1.6-1.6-1.6h-3.2c-0.9,0-1.6,0.7-1.6,1.6v11h6.3V109.2z"/>
	</g>
	<g>
		<path class="st31" d="M187.4,134.5c0,0.9-0.7,1.6-1.6,1.6h-47.3c-0.9,0-1.6-0.7-1.6-1.6v-4.7c0-0.9,0.7-1.6,1.6-1.6h47.3
			c0.9,0,1.6,0.7,1.6,1.6V134.5z"/>
	</g>
	<g>
		<path class="st26" d="M185.8,128.2h-47.3c0,0-0.2-1.4,0-3.2c0.4-4.8,2.9-7.9,7.9-7.9v-7.9c0-0.9,0.7-1.6,1.6-1.6h28.4
			c0.9,0,1.6,0.7,1.6,1.6v7.9C187.4,117.1,185.8,128.2,185.8,128.2z"/>
	</g>
	<g>
		<path class="st32" d="M177.9,120.3v4.7h7.9c-0.1-1.5-0.5-3.2-1.5-4.7H177.9z"/>
	</g>
	<g>
		<path class="st33" d="M182.6,120.3v4.7h3.2c-0.1-1.5-0.5-3.2-1.5-4.7H182.6z"/>
	</g>
	<g>
		<g>
			<path class="st30" d="M144.8,107.7h-3.2v-9.5h-4.7V95h6.3c0.9,0,1.6,0.7,1.6,1.6V107.7z"/>
		</g>
	</g>
	<g>
		<path class="st34" d="M148,136h-7.9v4.7c0,0.9,0.7,1.6,1.6,1.6h4.7c0.9,0,1.6-0.7,1.6-1.6V136z"/>
	</g>
	<g>
		<path class="st34" d="M184.2,136h-7.9v4.7c0,0.9,0.7,1.6,1.6,1.6h4.7c0.9,0,1.6-0.7,1.6-1.6V136z"/>
	</g>
	<g>
		<path class="st30" d="M185.8,128.2h-47.3c-0.9,0-1.6,0.7-1.6,1.6v2.4h50.5v-2.4C187.4,128.9,186.7,128.2,185.8,128.2z"/>
	</g>
	<g>
		<polygon class="st35" points="149.5,98.2 149.5,107.7 153.2,107.7 162.7,98.2 		"/>
	</g>
	<g>
		<path class="st32" d="M146.4,120.3v4.7h-7.9c0.1-1.5,0.5-3.2,1.5-4.7H146.4z"/>
	</g>
	<g>
		<path class="st33" d="M141.7,120.3v4.7h-3.2c0.1-1.5,0.5-3.2,1.5-4.7H141.7z"/>
	</g>
	<g>
		<polygon class="st29" points="174,128.2 150.3,128.2 150.3,114.8 155.1,110.8 169.2,110.8 174,114.8 		"/>
	</g>
	<g>
		<path class="st36" d="M156.6,125c0,0.4-0.4,0.8-0.8,0.8s-0.8-0.4-0.8-0.8v-7.1c0-0.4,0.4-0.8,0.8-0.8s0.8,0.4,0.8,0.8V125z"/>
	</g>
	<g>
		<path class="st36" d="M159.8,125c0,0.4-0.4,0.8-0.8,0.8s-0.8-0.4-0.8-0.8v-10.2c0-0.4,0.4-0.8,0.8-0.8s0.8,0.4,0.8,0.8V125z"/>
	</g>
	<g>
		<path class="st36" d="M162.9,125c0,0.4-0.4,0.8-0.8,0.8s-0.8-0.4-0.8-0.8v-10.2c0-0.4,0.4-0.8,0.8-0.8s0.8,0.4,0.8,0.8V125z"/>
	</g>
	<g>
		<path class="st36" d="M166.1,125c0,0.4-0.4,0.8-0.8,0.8s-0.8-0.4-0.8-0.8v-10.2c0-0.4,0.4-0.8,0.8-0.8s0.8,0.4,0.8,0.8V125z"/>
	</g>
	<g>
		<path class="st36" d="M169.2,125c0,0.4-0.4,0.8-0.8,0.8c-0.4,0-0.8-0.4-0.8-0.8v-7.1c0-0.4,0.4-0.8,0.8-0.8c0.4,0,0.8,0.4,0.8,0.8
			V125z"/>
	</g>
	<g>
		<path class="st37" d="M153.2,107.7H148c-0.9,0-1.6,0.7-1.6,1.6v5.2L153.2,107.7z"/>
	</g>
</g>
<g>
	<circle class="st30" cx="551.1" cy="336.3" r="43.4"/>
	<g>
		<path class="st38" d="M563.7,316.9c0,0.1,0,0.3-0.1,0.4C563.6,317.2,563.6,317.1,563.7,316.9z"/>
		<path class="st38" d="M541.7,315.9c0,0.3,0.1,0.6,0.1,0.8C541.8,316.5,541.7,316.2,541.7,315.9z"/>
		<path class="st38" d="M541.9,317.4C541.9,317.4,541.9,317.4,541.9,317.4c0-0.1,0-0.2,0-0.2C541.9,317.3,541.9,317.3,541.9,317.4z"
			/>
		<path class="st38" d="M563.4,318.1c0-0.1,0-0.1,0-0.2C563.5,318,563.4,318.1,563.4,318.1C563.4,318.1,563.4,318.1,563.4,318.1z"/>
		<path class="st39" d="M573.6,340.1c-2-2-7.3-3.3-10.5-3.9c0.3,0.3,0.5,0.5,0.5,0.5l2,6.1l-2.2,2.1l1.7,3.7l-2.7,15.3h14.1
			C576.4,357,575.8,342.3,573.6,340.1z"/>
		<path class="st39" d="M542.1,344.9l-2.2-2.1l2-6.2c0,0,0.2-0.2,0.5-0.5c-3.2,0.6-8.4,1.9-10.4,3.9c-2.2,2.2-2.8,16.9-2.9,23.9h5.3
			l0,0h2l0.5-8l0.3,8h6l-2.7-15.3L542.1,344.9z"/>
		<path class="st40" d="M546.9,332.9C546.9,332.9,546.9,332.9,546.9,332.9C546.9,332.9,547,332.9,546.9,332.9
			C547,332.9,547,333,546.9,332.9c0.3,2.1,2.9,3.5,3.3,3.8l0.1,0l2.4,4.5l2.5-4.5c0,0-0.3,0-0.3,0c0,0,2.1-1.3,3.1-3.1v-3.1
			c-1,1.8-2.3,2.8-5.6,2.8c-3.1,0-4.4-0.9-5.4-2.6L546.9,332.9C547,332.9,547,332.9,546.9,332.9C547,332.9,546.9,332.9,546.9,332.9z
			"/>
		<path class="st41" d="M552.4,333.3c3.3,0,4.6-1,5.6-2.8V330c-1,1.6-2.3,2.5-5.5,2.5c-3.2,0-4.5-0.9-5.5-2.7v0.8
			C548,332.4,549.3,333.3,552.4,333.3z"/>
		<polygon class="st42" points="536.4,364 537.1,364 536.8,356 		"/>
		<path class="st43" d="M559.6,338.1l-2.1,3.6c0,0-0.4-4.4-2.3-5.1l-2.5,4.5l-2.4-4.5l-0.1,0c0,0,0.1,0,0.1,0
			c-1.9,0.6-2.3,5.1-2.3,5.1l-2-3.5c-0.1,1.6-0.1,3.6,0,5.8c0.1,2.3,1.9,10,4,20h2.9h3.2c1.8-10,3.5-17.7,3.6-20
			C559.7,341.8,559.7,339.8,559.6,338.1z"/>
		<path class="st44" d="M547,332.9C547,332.9,546.9,332.9,547,332.9c0,0.1,0,0.1,0,0.1C547,333,547,332.9,547,332.9z"/>
		<path class="st44" d="M546,338.3l-0.2-0.3c0.2-2.1,1.1-4.9,1.1-5c0,0,0,0-0.1,0c-1.4,0.6-3.5,2.4-4.4,3.3
			c-0.3,0.3-0.5,0.5-0.5,0.5l-2,6.2l2.2,2.1l-1.7,3.8l2.7,15.3h2.4h4.3c-2-10-3.9-17.7-4-20C545.9,341.8,545.9,339.9,546,338.3z"/>
		<path class="st44" d="M563.4,344.9l2.2-2.1l-2-6.2c0,0-0.2-0.2-0.5-0.5c-0.9-0.9-2.9-2.7-4.4-3.2c0.3,0.8,0.4,1.6,0.6,2.4
			c0.2,0.8,0.3,1.7,0.4,2.5l-0.1,0.2c0.1,1.6,0.1,3.6,0,5.9c-0.1,2.3-1.8,10-3.6,20h4.2h2.2l2.7-15.3L563.4,344.9z"/>
		<path class="st45" d="M546.9,333C546.9,333,546.9,332.9,546.9,333C546.9,332.9,546.9,332.9,546.9,333
			C546.9,332.9,546.9,332.9,546.9,333c-0.1,0-1,2.8-1.2,4.9l0.2,0.3l2,3.5c0,0,0.4-4.5,2.3-5.1c0,0,0,0-0.1,0
			C549.8,336.4,547.2,335,546.9,333z"/>
		<path class="st45" d="M555.2,336.7C555.2,336.7,555.2,336.7,555.2,336.7c1.9,0.6,2.3,5.1,2.3,5.1l2.1-3.6l0.1-0.2
			c-0.1-0.8-0.2-1.7-0.4-2.5c-0.3-1.3-0.6-2.4-0.6-2.4c0,0.2-0.1,0.4-0.1,0.6C557.9,335.4,555.2,336.7,555.2,336.7z"/>
		<path class="st40" d="M552.8,332.6c3.1,0,4.6-0.9,5.8-2.5c0.8-1,1.4-2.4,2.3-4c0.6-1.1,1.1-2.4,1.5-3.7c0.3,0.1,0.6,0,0.9-0.3
			c1-0.9,2-5,1.3-5.8c-0.2-0.3-0.5-0.3-0.7-0.3c0,0.3-0.1,0.7-0.2,1c0,0.1,0,0.3-0.1,0.4c0,0.2-0.1,0.4-0.1,0.6c0,0.1,0,0.1,0,0.2
			c0,0,0-0.4,0-0.4c-0.1,0.5-0.2,0.3-0.4,1.3h-0.3c0.1-1,0.7-2.1,0.7-3.5c-2.5,0.4-4.4,0.8-9.4,0.8V316c-2,0-1.2,0-1.2,0
			s-0.8,0-0.8,0v0.3c-6,0-7.1-0.5-9.6-0.8c-0.1,1.4,0.3,2.5,0.4,3.5h-0.3c-0.2-1-0.4-1.2-0.5-2c0,0,0,0.2,0,0.2c0-0.1,0-0.1,0-0.2
			c0-0.1-0.1-0.2-0.1-0.4c0-0.3-0.1-0.5-0.1-0.8c-0.2,0-0.5,0-0.7,0.3c-0.7,0.9,0.3,5,1.3,5.8c0.3,0.3,0.6,0.3,0.9,0.3
			c0.4,1.3,0.9,2.6,1.5,3.7c0.9,1.5,1.5,2.9,2.3,3.9C548.1,331.6,549.6,332.6,552.8,332.6z"/>
		<path class="st46" d="M562.9,315.5c0.1,1.4,0,2.5-0.1,3.5h0.3c0.1-1,0.3-0.7,0.4-1.3c0-0.1,0,0.1,0,0c0-0.2,0.1-0.3,0.1-0.6
			c0-0.1,0-0.2,0.1-0.3c0.1-0.3,0.1-0.7,0.2-1c0-0.1,0-0.1,0-0.2c-0.1,0-0.2-0.2-0.3-0.1C563.3,315.6,563.1,315.5,562.9,315.5z"/>
		<path class="st46" d="M541.9,317.2c0,0.1,0-0.2,0-0.1c0.1,0.8,0.3,1,0.5,2h0.3c-0.1-1-0.2-2.1-0.1-3.5c-0.2,0-0.4,0.1-0.7,0.1
			c-0.1,0-0.2,0.1-0.3,0c0,0.1,0,0.2,0,0.2c0,0.3,0.1,0.6,0.1,0.9C541.8,316.9,541.9,317,541.9,317.2z"/>
		<path class="st47" d="M542,315.8c0.2,0,0.2,0.1,0.4,0.1c2.5,0.4,3.6,0.4,9.6,0.4V316c0,0,0.7,0,0.8,0s-0.8,0,1.2,0v0.3
			c5,0,6.9-0.1,9.4-0.5c0.2,0,0.2-0.1,0.4-0.1c0.1,0,0.1,0,0.2,0c8.1-1.4,1.4-4.1,1.4-4.1c-0.4-4.4-2-11.2-10.1-12.3
			c0,0.1-0.8,7.9,3.7,13.8c0,0-4.5,0.8-12.2,0c-0.1,0,0.1-0.2,0.2-0.2c4.3-5.9,3.5-13.5,3.5-13.6c-8.2,1.1-9.7,7.9-10.1,12.3
			c0,0-6.7,2.8,1.4,4.1C541.8,315.8,541.9,315.8,542,315.8z"/>
		<path class="st48" d="M546.6,312.9c-0.1,0.1-0.2,0.2-0.1,0.2c7.8,0.8,12.7,0,12.7,0c-4.5-5.9-3.2-13.7-3.2-13.8v0
			c0,0-1.5-0.3-2.8-0.3c-1.3,0-3.2,0.3-3.2,0.3s0,0,0,0C550,299.4,550.9,307,546.6,312.9z"/>
		<g>
			<g>
				<defs>
					<path id="XMLID_7_" d="M570.1,363.9c0.1-4.6-0.1-8.5-0.1-8.5c-6.1-3.1-1.8-17.9-1.8-17.9c-1.9-0.7-5.2-1.4-5.2-1.4
						c0.1,4.3-10.2,21.2-10.2,21.2c-3.6-5.2-10.6-16.8-10.4-21.2c0,0-3,0.6-4.9,1.3c0,0,4.3,15-1.8,18c0,0-0.2,3.9-0.3,8.5"/>
				</defs>
				<use xlink:href="#XMLID_7_"  style="overflow:visible;fill:#FFC749;"/>
				<clipPath id="XMLID_2_">
					<use xlink:href="#XMLID_7_"  style="overflow:visible;"/>
				</clipPath>
			</g>
			<polygon class="st30" points="570.1,361 535.5,361 535.4,363.9 570.2,363.9 			"/>
			<polygon class="st30" points="570,355 535.8,355 535.6,358.2 570.1,358.1 			"/>
		</g>
	</g>
</g>
<g>
	<circle class="st49" cx="449.7" cy="124.1" r="43.4"/>
	<g>
		<polygon class="st30" points="464,93.7 464,103.1 473.3,103.1 473.3,152 429,152 429,93.7 		"/>
		<g>
			<polygon class="st50" points="464,93.7 473.3,103.1 464,103.1 			"/>
			<rect x="433" y="97" class="st50" width="17" height="1.9"/>
			<rect x="433" y="101.2" class="st50" width="17" height="1.9"/>
			<rect x="433" y="105.3" class="st50" width="11.2" height="1.9"/>
		</g>
		<rect x="462.5" y="120.6" class="st51" width="6.2" height="25.7"/>
		<rect x="452.9" y="126.8" class="st52" width="6.2" height="19.5"/>
		<rect x="443.3" y="133.5" class="st53" width="6.2" height="12.9"/>
		<rect x="433.7" y="129.4" class="st54" width="6.2" height="16.9"/>
		<g>
			<circle class="st54" cx="465.5" cy="109.8" r="2.6"/>
			<circle class="st54" cx="456.5" cy="115" r="2.6"/>
			<circle class="st54" cx="446.4" cy="124.2" r="2.6"/>
			<circle class="st54" cx="436.3" cy="119.5" r="2.6"/>
		</g>
	</g>
</g>
<g>
	<g>
		<path class="st30" d="M94.3,349.1c-3-0.6-5.3-4.5-5.4-7.8c0-1,0.2-2,0.7-2.8c1.2-2,1.5-3.5-0.4-5.3c-1.8-1.7-3.3-3.2-5.9-1.2
			c-0.7,0.6-1.8,0.7-2.4,0.9c-3.1,0-7.7-2.8-8.2-5c-0.5-2.2-1.3-3.5-3.9-3.4H68c-2.6-0.1-3.4,1.3-4,3.4c-0.5,2.2-5.2,5-8.2,5
			c-0.6-0.2-1.7-0.3-2.4-0.9c-2.5-2.1-4.1-0.5-5.9,1.2c-1.8,1.8-1.6,3.3-0.4,5.3c2,3.2-0.8,9.7-4.8,10.5c-2.4,0.5-2.9,1.7-3,3.3v2.4
			c0.1,1.6,0.7,2.8,3,3.2c4,0.8,6.8,7.3,4.8,10.6c-1.3,2-1.5,3.5,0.3,5.2c1.8,1.7,3.3,3.3,5.9,1.2c0.7-0.6,1.8-0.7,2.4-0.9
			c3.1,0,7.7,2.8,8.2,5c0.5,2.2,1.4,3.5,4,3.4h0.6c0.1,0,0.2,0,0.3,0c2.3,0,3.1-1.4,3.6-3.4c0.2-0.6,0.7-1.4,1.4-2
			c1.1-1,1.8-1.6,3.4-2.2c-1.6-1.6-3.3-3.3-4.9-5c-0.2,0.1-2.6,0.5-4.1,0.5c-2.8,0-5.4-0.7-7.8-1.9c-5-2.6-8.6-7.7-9.1-13.6v-2.4
			c0.8-8.7,8-15.5,16.9-15.6c6.9,0.1,12.8,4.2,15.4,10.1c0.8,1.7,1.3,3.6,1.4,5.5v2.4c-0.2,1.7-0.4,2.7-1,4.2
			c1.6,1.6,3.3,3.2,4.9,4.9c0.6-2.9,2.5-5.3,5.1-5.9c2-0.4,2.7-1.3,2.9-2.6c0-0.2,0.1-0.4,0.1-0.6v-2.4
			C97.2,350.7,96.6,349.5,94.3,349.1z"/>
	</g>
</g>
<path class="st55" d="M102.5,384.8c0.6-2.1,0.1-3.9-1.5-5.5c-1.5-1.5-2.9-2.9-4.3-4.3c-6.1-6.1-11.7-11.7-17-17
	c-0.2-0.2,0.3-2.2,0.3-2.2c0,0,0-0.1,0-0.1c0-0.2,0-0.3,0-0.5c0-1,0.1-2-0.1-2.9c-0.5-2.4-1.6-4.6-3.3-6.2c-1.7-1.6-3.9-2.6-6.4-3
	c-0.5-0.1-1-0.1-1.4-0.1c-1.5,0-2.6,0-4,0.6l-0.8,0.3l0.5,0.7c0.1,0.2,0.3,0.3,0.4,0.4c0,0,0.1,0,0.1,0.1c2.3,2.2,4.1,4.1,5.8,5.7
	c0.8,0.8,0.8,1.8,0,2.6l-0.4,0.4c-0.7,0.7-2.2,2.2-2.9,2.9c-0.4,0.3-0.8,0.5-1.2,0.5c-0.4,0-0.9-0.2-1.2-0.5
	c-0.2-0.2-0.4-0.4-0.6-0.6c-0.1-0.1-0.2-0.2-0.3-0.3l-5.9-5.9l-0.4,0.9c-0.7,1.5-0.6,3.8-0.2,5.7c1.1,5.4,5.7,9.1,11.2,9.1
	c0.3,0,0.6,0,0.9,0c0,0,0.1,0,0.1,0c0.1,0,0.2,0,0.3,0.1c0,0,1.8-0.3,2.1,0c4.4,4.4,8.4,8.4,12.3,12.3c3.1,3.1,6.1,6.1,8.9,8.9
	c1.1,1.1,2.3,1.6,3.7,1.6h0c0.4,0,0.8,0,1.2-0.1C100.5,388.1,101.9,386.9,102.5,384.8z M97.6,386c-0.7,0-1.3-0.3-1.8-0.8
	c-0.5-0.5-0.8-1.2-0.8-1.8c0-1.4,1.2-2.6,2.6-2.6h0c1.4,0,2.6,1.2,2.6,2.6C100.2,384.9,99,386,97.6,386z"/>
<g>
	<polygon class="st56" points="316.6,534.2 316.6,508.3 316.6,508.3 295.9,506.2 295.9,506.2 295.9,534.2 	"/>
	<path class="st57" d="M295.9,506.2l-14.7,0.9c-1,0.1-1.9,0.9-1.9,2.1l-1,24.9h17.6V506.2z"/>
	<polygon class="st57" points="316.6,561.1 316.6,534.2 295.9,534.2 295.9,563.1 	"/>
	<path class="st56" d="M278.4,534.2l1,25c0,1,0.8,1.9,1.8,2l14.8,2l0,0v-29H278.4z"/>
	<polygon class="st58" points="300,555.3 300.1,549.1 295.9,549 295.9,555.7 	"/>
	<polygon class="st59" points="304.2,534.2 306.5,531.4 306.5,529.8 305.4,529.8 305.5,528.8 308.5,528.9 308.6,524.3 315,523.6 
		314.6,514.2 308.9,513.2 306.8,513.2 306.5,514.8 304,514.1 303.2,517.6 301.1,517.7 300.2,523.9 301,524.5 300.7,525.8 
		297.5,523.3 295.9,523.2 295.9,534.2 	"/>
	<polygon class="st58" points="295.9,523.2 291.2,522.9 287.9,526.7 281.3,529.1 281.4,534.2 295.9,534.2 	"/>
	<polygon class="st58" points="295.9,534.2 295.9,548 296.7,545.7 300.2,545.8 300.3,540.1 303.7,540.2 303.8,534.6 304.2,534.2 	
		"/>
	<polygon class="st59" points="281.4,534.2 281.5,539.7 287,542.2 284,549.3 285.5,557 294.4,558.5 295.8,555.7 295.9,555.7 
		295.9,549 295.6,549 295.9,548 295.9,534.2 	"/>
	<polygon class="st60" points="295.3,529.7 292.1,534.2 295.9,534.2 295.9,529.9 	"/>
	<polygon class="st61" points="290.2,536.9 284.3,540.2 278.6,540.2 278.8,544.5 287,544.5 291.5,541.2 294.5,543.2 295.9,542.7 
		295.9,534.2 292.1,534.2 	"/>
	<polygon class="st60" points="314.7,559.1 311.6,556.3 311.3,553.8 308.6,553.8 306,545.4 305.9,544.2 316.6,539.3 315.6,534.2 
		315.4,534.2 311.2,534.2 311.2,537.6 306.5,537.1 306.1,534.2 295.9,534.2 295.9,542.7 300.5,541 303.1,543 303.3,544 305.4,545.9 
		307,555.2 310.3,557.6 311.2,560.6 312,561.6 315.8,561.2 	"/>
	<path class="st61" d="M306.1,534.2h-10.1v-4.2l3.4,1.4l5.8-3.2L306.1,534.2z M311.2,533.3v0.8h4.2L311.2,533.3z"/>
	<g>
		<path class="st62" d="M291.3,549c-0.3-0.1-0.5,0.1-0.6,0.4c-0.1,0.3,0.1,0.5,0.4,0.6c1.6,0.3,3.2,0.6,4.9,0.7v-1
			C294.4,549.5,292.8,549.3,291.3,549z"/>
		<path class="st56" d="M306.7,549c-0.1-0.3-0.3-0.4-0.6-0.4c-3.3,0.9-6.7,1.2-10.1,0.9v1c0.7,0,1.3,0.1,2.1,0.1
			c2.8,0,5.6-0.4,8.4-1.1C306.6,549.6,306.8,549.3,306.7,549z"/>
	</g>
	<path class="st63" d="M298,511.4c-8.6,0-15.5,6.9-15.5,15.5c0,10.6,11.9,23.8,15.5,23.8c3.6,0,15.5-13.2,15.5-23.8
		C313.5,518.3,306.6,511.4,298,511.4z M298,535.2c-4.6,0-8.3-3.7-8.3-8.3c0-4.6,3.7-8.3,8.3-8.3c4.6,0,8.3,3.7,8.3,8.3
		C306.3,531.5,302.6,535.2,298,535.2z"/>
</g>
</svg>
