<?xml version="1.0" encoding="utf-8"?>
<!-- Generator: Adobe Illustrator 21.1.0, SVG Export Plug-In . SVG Version: 6.00 Build 0)  -->
<svg version="1.1" xmlns="http://www.w3.org/2000/svg" xmlns:xlink="http://www.w3.org/1999/xlink" x="0px" y="0px"
	 viewBox="0 0 612 612" style="enable-background:new 0 0 612 612;" xml:space="preserve">
<style type="text/css">
	.st0{clip-path:url(#SVGID_2_);fill:#FFC738;}
	.st1{clip-path:url(#SVGID_2_);}
	.st2{display:none;}
	.st3{display:inline;}
	.st4{fill:#E75D7C;}
	.st5{fill:#FFFFFF;}
	.st6{fill:url(#SVGID_3_);}
	.st7{fill:url(#SVGID_4_);}
	.st8{fill:url(#SVGID_5_);}
	.st9{fill:url(#SVGID_6_);}
	.st10{fill:url(#SVGID_7_);}
	.st11{fill:#C0DDE4;}
	.st12{fill:url(#SVGID_8_);}
	.st13{fill:url(#SVGID_9_);}
	.st14{fill:url(#SVGID_10_);}
	.st15{fill:url(#SVGID_11_);}
	.st16{fill:url(#SVGID_12_);}
	.st17{fill:url(#SVGID_13_);}
	.st18{fill:url(#SVGID_14_);}
	.st19{fill:url(#SVGID_15_);}
	.st20{fill:url(#SVGID_16_);}
	.st21{fill:url(#SVGID_17_);}
	.st22{fill:url(#SVGID_18_);}
	.st23{fill:url(#SVGID_19_);}
	.st24{fill:url(#SVGID_20_);}
	.st25{fill:url(#SVGID_21_);}
	.st26{fill:url(#SVGID_22_);}
	.st27{fill:url(#SVGID_23_);}
	.st28{fill:url(#SVGID_24_);}
	.st29{fill:url(#SVGID_25_);}
	.st30{fill:#11414D;}
	.st31{fill:#9FCBD6;}
	.st32{fill:url(#SVGID_26_);}
	.st33{fill:url(#SVGID_27_);}
	.st34{fill:url(#SVGID_28_);}
	.st35{fill:url(#SVGID_29_);}
	.st36{fill:url(#SVGID_30_);}
	.st37{fill:url(#SVGID_31_);}
	.st38{fill:url(#SVGID_32_);}
	.st39{fill:#FDFCFD;}
	.st40{fill:url(#SVGID_33_);}
	.st41{fill:url(#SVGID_34_);}
	.st42{fill:url(#SVGID_35_);}
	.st43{fill:url(#SVGID_36_);}
	.st44{opacity:0.7;fill:url(#SVGID_37_);}
	.st45{fill:url(#SVGID_38_);}
	.st46{opacity:0.8;fill:#ABABAB;}
	.st47{fill:#E4E4E4;}
	.st48{opacity:0.3;fill:#ABABAB;}
	.st49{fill:url(#SVGID_39_);}
	.st50{fill:url(#SVGID_40_);}
	.st51{fill:url(#SVGID_41_);}
	.st52{fill:url(#SVGID_42_);}
	.st53{fill:url(#SVGID_43_);}
	.st54{fill:url(#SVGID_44_);}
	.st55{fill:url(#SVGID_45_);}
	.st56{fill:url(#SVGID_46_);}
	.st57{fill:url(#SVGID_47_);}
	.st58{fill:url(#SVGID_48_);}
	.st59{fill:url(#SVGID_49_);}
	.st60{fill:url(#SVGID_50_);}
	.st61{fill:#ADD7E0;}
	.st62{fill:url(#SVGID_51_);}
	.st63{fill:url(#SVGID_52_);}
	.st64{fill:url(#SVGID_53_);}
	.st65{fill:url(#SVGID_54_);}
	.st66{fill:url(#SVGID_55_);}
	.st67{fill:url(#SVGID_56_);}
	.st68{fill:url(#SVGID_57_);}
	.st69{fill:url(#SVGID_58_);}
	.st70{fill:url(#SVGID_59_);}
	.st71{fill:url(#SVGID_60_);}
	.st72{fill:url(#SVGID_61_);}
	.st73{fill:url(#SVGID_62_);}
	.st74{fill:url(#SVGID_63_);}
	.st75{fill:url(#SVGID_64_);}
	.st76{fill:url(#SVGID_65_);}
	.st77{fill:url(#SVGID_66_);}
	.st78{fill:url(#SVGID_67_);}
	.st79{fill:url(#SVGID_68_);}
	.st80{fill:url(#SVGID_69_);}
	.st81{fill:url(#SVGID_70_);}
	.st82{fill:url(#SVGID_71_);}
	.st83{fill:url(#SVGID_72_);}
	.st84{fill:url(#SVGID_73_);}
	.st85{fill:url(#SVGID_74_);}
	.st86{fill:url(#SVGID_75_);}
	.st87{fill:url(#SVGID_76_);}
	.st88{fill:url(#SVGID_77_);}
	.st89{fill:url(#SVGID_78_);}
	.st90{fill:url(#SVGID_79_);}
	.st91{fill:url(#SVGID_80_);}
	.st92{fill:url(#SVGID_81_);}
	.st93{fill:url(#SVGID_82_);}
	.st94{fill:#45778A;}
	.st95{fill:url(#SVGID_83_);}
	.st96{opacity:0.1;}
	.st97{fill:#ABABAB;}
	.st98{opacity:0.3;}
	.st99{opacity:0.4;}
	.st100{fill:url(#SVGID_84_);}
	.st101{fill:#B3B3B3;}
	.st102{fill:url(#SVGID_85_);}
	.st103{fill:#D1E8EE;}
	.st104{fill:url(#SVGID_86_);}
	.st105{fill:url(#SVGID_87_);}
	.st106{fill:#299FBB;}
	.st107{fill:url(#SVGID_88_);}
	.st108{fill:#F5CE93;}
	.st109{fill:#3D6957;}
	.st110{fill:url(#SVGID_89_);}
	.st111{fill:url(#SVGID_90_);}
	.st112{fill:#8CCEE0;}
	.st113{fill:url(#SVGID_91_);}
	.st114{fill:url(#SVGID_92_);}
	.st115{fill:url(#SVGID_93_);}
	.st116{fill:url(#SVGID_94_);}
	.st117{fill:url(#SVGID_95_);}
	.st118{fill:url(#SVGID_96_);}
	.st119{fill:url(#SVGID_97_);}
	.st120{fill:url(#SVGID_98_);}
	.st121{fill:url(#SVGID_99_);}
	.st122{fill:url(#SVGID_100_);}
	.st123{fill:url(#SVGID_101_);}
	.st124{fill:url(#SVGID_102_);}
	.st125{fill:url(#SVGID_103_);}
	.st126{fill:url(#SVGID_104_);}
	.st127{fill:url(#SVGID_105_);}
	.st128{fill:url(#SVGID_106_);}
	.st129{fill:url(#SVGID_107_);}
	.st130{fill:url(#SVGID_108_);}
	.st131{fill:url(#SVGID_109_);}
	.st132{fill:url(#SVGID_110_);}
	.st133{fill:url(#SVGID_111_);}
	.st134{fill:url(#SVGID_112_);}
	.st135{fill:url(#SVGID_113_);}
	.st136{fill:url(#SVGID_114_);}
	.st137{fill:url(#SVGID_115_);}
	.st138{fill:url(#SVGID_116_);}
	.st139{fill:url(#SVGID_117_);}
	.st140{fill:url(#SVGID_118_);}
	.st141{fill:url(#SVGID_119_);}
	.st142{fill:url(#SVGID_120_);}
	.st143{fill:url(#SVGID_121_);}
	.st144{fill:url(#SVGID_122_);}
	.st145{fill:url(#SVGID_123_);}
	.st146{fill:url(#SVGID_124_);}
	.st147{clip-path:url(#SVGID_126_);}
	.st148{fill:url(#SVGID_127_);}
	.st149{clip-path:url(#SVGID_126_);fill:#DEF3F7;}
	.st150{clip-path:url(#SVGID_126_);fill:#FFFFFF;}
	.st151{fill:url(#SVGID_128_);}
	.st152{fill:url(#SVGID_129_);}
	.st153{fill:url(#SVGID_130_);}
	.st154{fill:url(#SVGID_131_);}
	.st155{fill:#DEF3F7;}
	.st156{clip-path:url(#SVGID_126_);fill:#C0DDE4;}
	.st157{clip-path:url(#SVGID_126_);fill:url(#SVGID_132_);}
	.st158{clip-path:url(#SVGID_126_);fill:url(#SVGID_133_);}
	.st159{clip-path:url(#SVGID_126_);fill:url(#SVGID_134_);}
	.st160{clip-path:url(#SVGID_126_);fill:url(#SVGID_135_);}
	.st161{fill:url(#SVGID_136_);}
	.st162{fill:url(#SVGID_137_);}
	.st163{fill:url(#SVGID_138_);}
	.st164{fill:url(#SVGID_139_);}
	.st165{fill:url(#SVGID_140_);}
	.st166{fill:url(#SVGID_141_);}
	.st167{fill:url(#SVGID_142_);}
	.st168{fill:url(#SVGID_143_);}
	.st169{fill:url(#SVGID_144_);}
	.st170{fill:url(#SVGID_145_);}
	.st171{fill:url(#SVGID_146_);}
	.st172{fill:url(#SVGID_147_);}
	.st173{fill:url(#SVGID_148_);}
	.st174{fill:url(#SVGID_149_);}
	.st175{fill:url(#SVGID_150_);}
	.st176{fill:url(#SVGID_151_);}
	.st177{fill:url(#SVGID_152_);}
	.st178{fill:url(#SVGID_153_);}
	.st179{fill:url(#SVGID_154_);}
	.st180{fill:url(#SVGID_155_);}
	.st181{fill:url(#SVGID_156_);}
	.st182{fill:url(#SVGID_157_);}
	.st183{fill:url(#SVGID_158_);}
	.st184{fill:url(#SVGID_159_);}
	.st185{fill:url(#SVGID_160_);}
	.st186{fill:url(#SVGID_161_);}
	.st187{fill:url(#SVGID_162_);}
	.st188{fill:url(#SVGID_163_);}
	.st189{fill:url(#SVGID_164_);}
	.st190{fill:url(#SVGID_165_);}
	.st191{fill:url(#SVGID_166_);}
	.st192{fill:url(#SVGID_167_);}
	.st193{fill:url(#SVGID_168_);}
	.st194{fill:url(#SVGID_169_);}
	.st195{fill:url(#SVGID_170_);}
	.st196{fill:url(#SVGID_171_);}
	.st197{fill:url(#SVGID_172_);}
	.st198{fill:url(#SVGID_173_);}
	.st199{fill:url(#SVGID_174_);}
	.st200{fill:url(#SVGID_175_);}
	.st201{fill:url(#SVGID_176_);}
	.st202{fill:url(#SVGID_177_);}
	.st203{fill:url(#SVGID_178_);}
	.st204{fill:url(#SVGID_179_);}
	.st205{fill:url(#SVGID_180_);}
	.st206{fill:url(#SVGID_181_);}
	.st207{fill:url(#SVGID_182_);}
	.st208{fill:url(#SVGID_183_);}
	.st209{fill:url(#SVGID_184_);}
	.st210{fill:url(#SVGID_185_);}
	.st211{fill:url(#SVGID_186_);}
	.st212{fill:url(#SVGID_187_);}
	.st213{fill:url(#SVGID_188_);}
	.st214{fill:url(#SVGID_189_);}
	.st215{fill:url(#SVGID_190_);}
	.st216{fill:url(#SVGID_191_);}
	.st217{fill:url(#SVGID_192_);}
	.st218{fill:url(#SVGID_193_);}
	.st219{fill:url(#SVGID_194_);}
	.st220{fill:url(#SVGID_195_);}
	.st221{fill:url(#SVGID_196_);}
	.st222{fill:url(#SVGID_197_);}
	.st223{fill:url(#SVGID_198_);}
	.st224{fill:#FFC738;}
	.st225{fill:#63CFD5;}
	.st226{fill:#72C9EE;}
	.st227{fill:#B4CC2B;}
	.st228{fill:#8C67AD;}
	.st229{fill:#9F75C4;}
	.st230{fill:#FF6600;}
	.st231{fill:#FF9538;}
	.st232{clip-path:url(#SVGID_200_);fill:#257DCC;}
	.st233{clip-path:url(#SVGID_200_);}
	.st234{fill:#83DFFA;}
	.st235{fill:#666563;}
	.st236{fill:#EFEFEF;}
	.st237{fill:#F7CE21;}
	.st238{fill:#FFE142;}
	.st239{fill:#F4A822;}
	.st240{fill:none;}
	.st241{fill:#73C386;}
	.st242{fill:#0F7588;}
	.st243{fill:#EE795F;}
	.st244{fill:#9A9A9B;}
	.st245{fill:#389DC9;}
	.st246{fill:#FF9284;}
	.st247{fill:#BDB9B6;}
	.st248{fill:url(#SVGID_201_);}
	.st249{fill:url(#SVGID_202_);}
	.st250{fill:#004C69;}
	.st251{fill:url(#SVGID_203_);}
	.st252{fill:url(#SVGID_204_);}
	.st253{fill:url(#SVGID_205_);}
	.st254{fill:url(#SVGID_206_);}
	.st255{fill:url(#SVGID_207_);}
	.st256{fill:url(#SVGID_208_);}
	.st257{fill:url(#SVGID_209_);}
	.st258{fill:#7B7B7B;}
	.st259{fill:#92D3EB;}
	.st260{opacity:0.7;fill:url(#SVGID_210_);}
	.st261{fill:url(#SVGID_211_);}
	.st262{fill:url(#SVGID_212_);}
	.st263{fill:url(#SVGID_213_);}
	.st264{fill:url(#SVGID_214_);}
	.st265{fill:url(#SVGID_215_);}
	.st266{fill:url(#SVGID_216_);}
	.st267{fill:url(#SVGID_217_);}
	.st268{opacity:0.1;fill:#8FD7FF;}
	.st269{fill:url(#SVGID_218_);}
	.st270{filter:url(#Adobe_OpacityMaskFilter);}
	.st271{mask:url(#SVGID_219_);}
	.st272{fill:#EDBDA9;}
	.st273{fill:#161D21;}
	.st274{fill:#E6E7E8;}
	.st275{fill:#B0B0B0;}
	.st276{fill:#FFD11D;}
	.st277{fill:#EBE5EE;}
	.st278{fill:#F76031;}
	.st279{fill:#F1F2F2;}
	.st280{opacity:0.3;fill:#FFFFFF;}
	.st281{fill:#253C68;}
	.st282{fill:#17C5CC;}
	.st283{opacity:0.6;fill:#D6D2C7;}
	.st284{fill:#FDB813;}
	.st285{fill:#C1C6C6;}
	.st286{opacity:0.71;fill:#FFFFFF;}
	.st287{fill:#799390;}
	.st288{fill:#D6332B;}
	.st289{fill:#2C2933;}
	.st290{fill:#3A3842;}
	.st291{fill:#4B4554;}
	.st292{fill:#433144;}
	.st293{fill:#F9543E;}
	.st294{fill:#7AB1AD;}
	.st295{opacity:0.4;fill:#8C4C57;}
	.st296{fill:none;stroke:#647F7F;stroke-width:5.8808;stroke-linecap:square;stroke-miterlimit:10;}
	.st297{fill:url(#SVGID_220_);}
	.st298{opacity:0.3;fill:#2C2933;}
	.st299{opacity:0.7;fill:#7AB1AD;}
	.st300{opacity:0.8;}
	.st301{fill:url(#SVGID_221_);}
	.st302{fill:#4E4C59;}
	.st303{enable-background:new    ;}
	.st304{fill:#EF553C;}
	.st305{opacity:0.2;fill:#2C2933;}
	.st306{fill:url(#SVGID_222_);}
	.st307{filter:url(#Adobe_OpacityMaskFilter_1_);}
	.st308{fill:url(#SVGID_224_);}
	.st309{opacity:0.3;mask:url(#SVGID_223_);fill:#8C4C57;}
	.st310{fill:#F97830;}
	.st311{fill:#8C98A4;stroke:#DFE7E8;stroke-width:4.9007;stroke-miterlimit:10;}
	.st312{fill:#2C2933;stroke:#C82E27;stroke-width:1.9603;stroke-miterlimit:10;}
	.st313{fill:#EADCDA;}
	.st314{opacity:0.2;fill:none;stroke:#37333F;stroke-width:1.9603;stroke-linecap:square;stroke-miterlimit:10;}
	.st315{fill:none;stroke:#45424F;stroke-width:4.9007;stroke-miterlimit:10;}
	.st316{fill:#45424F;}
	.st317{fill:#C82E27;}
	.st318{fill:#F2E1DD;}
	.st319{opacity:0.7;fill:#F4EEED;}
	.st320{opacity:0.7;fill:#FFFFFF;}
	.st321{fill:#FFFDF4;}
	.st322{fill:#8CBFB1;}
	.st323{fill:#F9543E;stroke:#D6332B;stroke-width:8.8213;stroke-linejoin:round;stroke-miterlimit:10;}
	.st324{fill:#CAD5D7;}
	.st325{fill:#F9543E;stroke:#D6332B;stroke-width:5.8808;stroke-linejoin:round;stroke-miterlimit:10;}
	.st326{fill:none;stroke:#CAD5D7;stroke-width:3.9206;stroke-miterlimit:10;}
	.st327{fill:#DFEBED;}
	.st328{fill:#933838;}
	.st329{fill:#C12F2F;}
	.st330{fill:#F58D6C;}
	.st331{fill:#FFB287;}
	.st332{fill:#90AFAF;}
	.st333{fill:#BA4200;}
	.st334{fill:#8E2F00;}
	.st335{fill:#374C58;}
	.st336{fill:#2A3C44;}
	.st337{fill:none;stroke:#DFEDED;stroke-width:3.0716;stroke-miterlimit:10;}
	.st338{fill:#102333;}
	.st339{fill:#819DA5;}
	.st340{fill:#C8D6D6;}
	.st341{fill:#D4E8E7;}
	.st342{fill:#1F3242;}
	.st343{fill:none;stroke:#102333;stroke-width:2.895;stroke-miterlimit:10;}
	.st344{fill:none;stroke:#102333;stroke-width:1.1768;stroke-miterlimit:10;}
	.st345{fill:#2B4454;}
</style>
<g id="CRES169">
	<g id="php-based-report-generation-solution-marketing-solutions-firm_x2F_">
		<g id="Layer_2">
		</g>
		<g id="Layer_1">
		</g>
		<g id="Layer_3">
		</g>
	</g>
	<g id="Layer_7">
	</g>
	<g id="Layer_18">
	</g>
</g>
<g id="Layer_8">
	<g>
		<defs>
			<circle id="SVGID_199_" cx="305.4" cy="308.2" r="298"/>
		</defs>
		<clipPath id="SVGID_2_">
			<use xlink:href="#SVGID_199_"  style="overflow:visible;"/>
		</clipPath>
		<rect x="-2.6" y="-13.8" style="clip-path:url(#SVGID_2_);fill:#257DCC;" width="646.5" height="643.3"/>
		<g class="st1">
			<g class="st2">
				<g class="st3">
					<path class="st4" d="M478.9,186.1c0,1.8-1.4,3.2-3.2,3.2l0,0c-1.8,0-3.2-1.4-3.2-3.2v-11.1c0-1.8,1.4-3.2,3.2-3.2l0,0
						c1.8,0,3.2,1.4,3.2,3.2V186.1z"/>
				</g>
				<g class="st3">
					<path class="st4" d="M501.8,186.1c0,1.8-1.4,3.2-3.2,3.2l0,0c-1.8,0-3.2-1.4-3.2-3.2v-11.1c0-1.8,1.4-3.2,3.2-3.2l0,0
						c1.8,0,3.2,1.4,3.2,3.2V186.1z"/>
				</g>
				<g class="st3">
					<path class="st4" d="M507,164.1c0-0.2-1.4-16.3-20.1-16.3c0,0,0,0,0,0c0,0,0,0,0,0c-18.8,0-20.1,16.2-20.1,16.3
						c0,0,0,0.1,0,0.1v15.3c0,0.7,0.5,1.2,1.2,1.2h1.7c0.7,0,1.2-0.6,1.2-1.2c0-0.7-0.5-1.2-1.2-1.2h-0.5v-14c0.1-1,1.5-14,17.7-14
						c0,0,0,0,0,0c0,0,0,0,0,0c16.2,0,17.6,13,17.7,14v14H504c-0.7,0-1.2,0.6-1.2,1.2c0,0.7,0.5,1.2,1.2,1.2h1.7
						c0.7,0,1.2-0.6,1.2-1.2L507,164.1C507,164.2,507,164.2,507,164.1z"/>
				</g>
				<g class="st3">
					<path class="st4" d="M474.4,183.2c0,1.1-0.9,2.1-2.1,2.1l0,0c-1.1,0-2.1-0.9-2.1-2.1v-5.6c0-1.1,0.9-2.1,2.1-2.1l0,0
						c1.1,0,2.1,0.9,2.1,2.1V183.2z"/>
				</g>
				<g class="st3">
					<path class="st4" d="M503.5,183.2c0,1.1-0.9,2.1-2.1,2.1l0,0c-1.1,0-2.1-0.9-2.1-2.1v-5.6c0-1.1,0.9-2.1,2.1-2.1l0,0
						c1.1,0,2.1,0.9,2.1,2.1V183.2z"/>
				</g>
				<g class="st3">
					<g>
						<path class="st4" d="M473.7,200.7c-4.1,0-8-0.7-8.7-2.5c-0.4-0.9,0.1-1.9,1.4-3c2.1-1.8,8.9-0.9,16.7,0.1
							c9,1.1,19.1,2.4,21.6-0.7c4.3-5.7-2.2-10.8-2.5-11l0.4-0.6c0.1,0.1,7.4,5.8,2.6,12c-2.7,3.5-12.6,2.3-22.2,1
							c-7.3-0.9-14.2-1.8-16.1-0.2c-0.7,0.6-1.5,1.5-1.2,2.2c0.6,1.4,4.9,2.3,10,2l0,0.7C475,200.7,474.4,200.7,473.7,200.7z"/>
					</g>
				</g>
			</g>
		</g>
	</g>
	<g>
		<g>
			<g>
				<g>
					<path class="st5" d="M262.2,64.1c28.2,7.2,45.3,36,38.1,64.2c-4.4,17.2-16.8,30.2-32.2,36.2l7.1,11.9c0,0-11.4-3.8-20.3-8.7
						c-6.1,0.7-12.5,0.3-18.8-1.3c-28.2-7.2-45.3-36-38.1-64.2C205.2,73.9,234,56.9,262.2,64.1z"/>
					<g>
						<g>
							<path class="st234" d="M279.5,103l-0.2,29.4c0,3-2.5,5.5-5.6,5.5l-52.4-0.4c-3,0-5.5-2.5-5.5-5.6l0.2-29.4
								c0-3,2.5-5.5,5.6-5.5l52.4,0.4C277.1,97.4,279.5,99.9,279.5,103z"/>
							
								<rect x="243" y="80.2" transform="matrix(7.362267e-03 -1 1 7.362267e-03 133.9509 358.8277)" class="st235" width="9.5" height="63.5"/>
							<path class="st235" d="M239.7,121.6l-18.2-0.1c-0.8,0-1.5,0.7-1.5,1.5l0,0c0,0.8,0.7,1.5,1.5,1.5l18.2,0.1
								c0.8,0,1.5-0.7,1.5-1.5l0,0C241.2,122.3,240.6,121.6,239.7,121.6z"/>
							<path class="st235" d="M231.2,127.9l-9.7-0.1c-0.8,0-1.5,0.7-1.5,1.5l0,0c0,0.8,0.7,1.5,1.5,1.5l9.7,0.1
								c0.8,0,1.5-0.7,1.5-1.5l0,0C232.7,128.6,232,127.9,231.2,127.9z"/>
							
								<rect x="259.8" y="124.6" transform="matrix(1 7.367103e-03 -7.367103e-03 1 0.9545 -1.965)" class="st236" width="14.7" height="8"/>
						</g>
						<g>
							
								<ellipse transform="matrix(7.370220e-03 -1 1 7.370220e-03 181.4761 367.9726)" class="st237" cx="276.1" cy="92.6" rx="15.7" ry="15.7"/>
							
								<ellipse transform="matrix(7.370108e-03 -1 1 7.370108e-03 181.4762 367.9726)" class="st238" cx="276.1" cy="92.6" rx="11.4" ry="11.4"/>
							<g>
								<path class="st239" d="M275.3,86.3l0-0.9l1.6,0l0,0.9c1.4,0.3,2.1,1.4,2.1,3.1l0,0.4l-1.9,0l0-0.5c0-0.9-0.4-1.2-1-1.3
									c-0.6,0-1,0.3-1,1.2c0,2.6,3.9,2.8,3.8,6.4c0,1.7-0.8,2.8-2.2,3.1l0,0.9l-1.6,0l0-0.9c-1.4-0.3-2.1-1.4-2.1-3.1l0-0.9l1.9,0
									l0,1c0,0.9,0.4,1.2,1,1.2c0.6,0,1-0.3,1-1.2c0-2.6-3.9-2.8-3.8-6.4C273.1,87.7,273.9,86.6,275.3,86.3z"/>
							</g>
						</g>
						<g>
							
								<ellipse transform="matrix(7.370222e-03 -1 1 7.370222e-03 166.8287 309.8485)" class="st237" cx="239.5" cy="70.9" rx="15.7" ry="15.7"/>
							
								<ellipse transform="matrix(7.370075e-03 -1 1 7.370075e-03 166.8287 309.8484)" class="st238" cx="239.5" cy="70.9" rx="11.4" ry="11.4"/>
							<g>
								<path class="st239" d="M238.7,64.7l0-0.9l1.6,0l0,0.9c1.4,0.3,2.1,1.4,2.1,3.1l0,0.4l-1.9,0l0-0.5c0-0.9-0.4-1.2-1-1.3
									c-0.6,0-1,0.3-1,1.2c0,2.6,3.9,2.8,3.8,6.4c0,1.7-0.8,2.8-2.2,3.1l0,0.9l-1.6,0l0-0.9c-1.4-0.3-2.1-1.4-2.1-3.1l0-0.9l1.9,0
									l0,1c0,0.9,0.4,1.2,1,1.2c0.6,0,1-0.3,1-1.2c0-2.6-3.9-2.8-3.8-6.4C236.5,66,237.3,64.9,238.7,64.7z"/>
							</g>
						</g>
					</g>
				</g>
				<g>
					<path class="st5" d="M193.4,185.2c-7.4-28.8-36.7-46.2-65.5-38.8c-28.8,7.4-46.2,36.7-38.8,65.5c4.5,17.5,17.1,30.8,32.8,36.9
						l-7.2,12.2c0,0,11.6-3.9,20.7-8.9c6.2,0.7,12.7,0.3,19.2-1.4C183.4,243.3,200.7,214,193.4,185.2z"/>
					<g>
						<path class="st240" d="M143.7,135.9c-1.1,0-1.9,0.7-2.2,1.7h4.4C145.6,136.6,144.8,135.9,143.7,135.9z"/>
						<path class="st241" d="M174.9,137.6h-23.2c0.6,1.2,0.9,2.6,0.9,4h3.6c2.4,0,4.4,1.8,4.6,4.1h13.2v80.9h-60.9v-80.9h13.2
							c0.3-2.3,2.3-4.1,4.6-4.1h3.6c0-1.4,0.3-2.8,0.9-4h-23.2c-1.9,0-3.4,1.5-3.4,3.4v85.8c0,1.9,1.5,3.4,3.4,3.4h62.4
							c1.9,0,3.4-1.5,3.4-3.4V141C178.3,139.1,176.8,137.6,174.9,137.6z"/>
						<path class="st5" d="M161,148.3h-34.6v-2c0-0.2,0-0.4,0-0.6h-13.2v80.9h60.9v-80.9H161c0,0.2,0,0.4,0,0.6V148.3z M155.9,153.8
							h3.4v1h-1.2v6.1h-1.1v-6.1h-1.2V153.8z M152.3,155.5c0-1.1,0.6-1.8,1.7-1.8c1.1,0,1.7,0.6,1.7,1.8v0.7h-1.1v-0.8
							c0-0.5-0.2-0.7-0.6-0.7c-0.4,0-0.6,0.2-0.6,0.7v3.8c0,0.5,0.2,0.7,0.6,0.7c0.4,0,0.6-0.2,0.6-0.7v-1h1.1v0.9
							c0,1.1-0.6,1.8-1.7,1.8c-1.1,0-1.7-0.6-1.7-1.8V155.5z M149.1,153.8h1.6l1.1,7.1h-1.1l-0.2-1.3h-1.4l-0.2,1.3h-1L149.1,153.8z
							 M144.2,153.8h1.7c1.2,0,1.6,0.5,1.6,1.6v0.6c0,0.7-0.2,1.2-0.7,1.4v0c0.6,0.2,0.7,0.8,0.7,1.5v1.1c0,0.3,0,0.6,0.1,0.9h-1.1
							c-0.1-0.2-0.1-0.3-0.1-0.9v-1.1c0-0.7-0.2-0.9-0.7-0.9h-0.4v2.9h-1.1V153.8z M140.3,153.8h3.4v1h-1.2v6.1h-1.1v-6.1h-1.2
							V153.8z M136.3,153.8h1.4l1.1,4.2h0v-4.2h1v7.1h-1.1l-1.4-5.1h0v5.1h-1V153.8z M132.2,155.5c0-1.1,0.6-1.8,1.7-1.8
							c1.1,0,1.7,0.6,1.7,1.8v3.7c0,1.1-0.6,1.8-1.7,1.8c-1.1,0-1.7-0.6-1.7-1.8v-3V155.5z M128.3,155.5c0-1.1,0.6-1.8,1.7-1.8
							c1.1,0,1.7,0.6,1.7,1.8v0.7h-1.1v-0.8c0-0.5-0.2-0.7-0.6-0.7c-0.4,0-0.6,0.2-0.6,0.7v3.8c0,0.5,0.2,0.7,0.6,0.7
							c0.4,0,0.6-0.2,0.6-0.7v-1h1.1v0.9c0,1.1-0.6,1.8-1.7,1.8c-1.1,0-1.7-0.6-1.7-1.8V155.5z M117.4,168.1h47.5v1.6h-47.5V168.1z
							 M117.4,171.1H167v1.6h-49.6V171.1z M117.4,174.1h32.4v1.6h-32.4V174.1z M117.4,180.1H167v1.6h-49.6V180.1z M117.4,183.2h44.7
							v1.6h-44.7V183.2z M117.4,186.2h32.4v1.6h-32.4V186.2z M117.4,189.2h39.8v1.6h-39.8V189.2z M117.4,192.2h48.5v1.6h-48.5V192.2
							z M117.4,198.2h45.3v1.6h-45.3V198.2z M117.4,201.2h32.8v1.6h-32.8V201.2z M117.4,204.3h42.5v1.6h-42.5V204.3z M117.4,207.3
							h39.8v1.6h-39.8V207.3z M168.5,219.4c-1.4-0.1-2.7-0.1-4.1-0.2c-0.8,0-2.2,0.2-2.9-0.4c-0.5-0.4-0.5-0.7-1.2-0.3
							c-0.5,0.2-1,0.9-1.6,0.5c-0.1,0,0-0.8,0-1.1c0,0,0-0.1,0-0.1c0.1-0.5,0.2-1,0.3-1.6c-0.9,1.5-1.8,3-2.8,4.3
							c-0.3,0.4-1,1.4-1.4,0.5c-0.1-0.2,0-0.6,0-0.8c0-0.1,0-0.1,0-0.2c0,0,0-0.1,0-0.1c0-0.1,0-0.2,0-0.3c0,0,0,0.1,0,0.1
							c0.1-0.9,0.3-1.7,0.6-2.5c0.4-1.1,0.9-2.2,1.3-3.3c-1.9,2.7-3.8,5.4-5.7,8.2c0.2-0.3-0.2-0.9,0-1.2c2.3-3.3,4.6-6.6,6.8-9.8
							c0,0.2,0,0.5,0,0.7c0,0.2,0.1,0.4,0,0.5c-0.6,1.5-1.2,3-1.8,4.5c-0.4,1.1-1,2.2-1.2,3.3c0.4,0.7,2-1.7,2.2-2
							c0.8-1.2,1.6-2.4,2.3-3.7c0,0.3,0,0.6,0,0.9c0,0.1,0,0.2,0,0.3c-0.2,0.8-0.3,1.5-0.5,2.3c0.5,0.1,0.9-0.4,1.4-0.6
							c0.7-0.4,0.7-0.1,1.2,0.3c0.7,0.5,2,0.3,2.9,0.4c1.4,0.1,2.7,0.1,4.1,0.2C168.5,218.2,168.5,219.4,168.5,219.4z M171.3,166.6
							h-53.9v-1.6h53.9V166.6z"/>
						<rect x="117.4" y="165.1" class="st242" width="53.9" height="1.6"/>
						<path class="st242" d="M168.5,218.2c-1.4-0.1-2.7-0.1-4.1-0.2c-0.9,0-2.2,0.2-2.9-0.4c-0.6-0.4-0.5-0.7-1.2-0.3
							c-0.5,0.2-0.9,0.7-1.4,0.6c0.2-0.8,0.3-1.5,0.5-2.3c0-0.1,0-0.2,0-0.3c0-0.3,0-0.6,0-0.9c-0.7,1.3-1.5,2.5-2.3,3.7
							c-0.2,0.3-1.8,2.7-2.2,2c0.2-1.2,0.8-2.2,1.2-3.3c0.6-1.5,1.2-3,1.8-4.5c0.1-0.1,0-0.3,0-0.5c0-0.2,0-0.5,0-0.7
							c-2.3,3.3-4.6,6.6-6.8,9.8c-0.2,0.3,0.2,0.9,0,1.2c1.9-2.7,3.8-5.4,5.7-8.2c-0.4,1.1-0.9,2.2-1.3,3.3
							c-0.3,0.9-0.6,1.7-0.6,2.5c0,0,0-0.1,0-0.1c0,0.1,0,0.2,0,0.3c0,0,0,0.1,0,0.1c0,0.1,0,0.1,0,0.2c0,0.2-0.1,0.6,0,0.8
							c0.4,0.8,1.1-0.1,1.4-0.5c1-1.4,2-2.8,2.8-4.3c-0.1,0.5-0.2,1-0.3,1.6c0,0,0,0,0,0.1c0,0.3-0.1,1.1,0,1.1
							c0.6,0.4,1.1-0.2,1.6-0.5c0.7-0.3,0.7-0.1,1.2,0.3c0.7,0.5,2,0.3,2.9,0.4c1.4,0.1,2.7,0.1,4.1,0.2
							C168.5,219.4,168.5,218.2,168.5,218.2z"/>
						<rect x="117.4" y="180.1" class="st242" width="49.6" height="1.6"/>
						<rect x="117.4" y="171.1" class="st242" width="49.6" height="1.6"/>
						<rect x="117.4" y="192.2" class="st242" width="48.5" height="1.6"/>
						<rect x="117.4" y="168.1" class="st242" width="47.5" height="1.6"/>
						<rect x="117.4" y="198.2" class="st242" width="45.3" height="1.6"/>
						<rect x="117.4" y="183.2" class="st242" width="44.7" height="1.6"/>
						<path class="st243" d="M131.1,141.6c-2.4,0-4.4,1.8-4.6,4.1c0,0.2,0,0.4,0,0.6v2H161v-2c0-0.2,0-0.4,0-0.6
							c-0.3-2.3-2.3-4.1-4.6-4.1h-3.6c0-1.4-0.3-2.8-0.9-4c-1.5-3-4.5-5-8-5c-3.5,0-6.6,2-8,5c-0.6,1.2-0.9,2.6-0.9,4H131.1z
							 M143.7,135.9c1.1,0,1.9,0.7,2.2,1.7c0.1,0.2,0.1,0.4,0.1,0.6c0,1.3-1,2.3-2.3,2.3c-1.3,0-2.3-1-2.3-2.3c0-0.2,0-0.4,0.1-0.6
							C141.8,136.6,142.7,135.9,143.7,135.9z"/>
						<rect x="117.4" y="204.3" class="st242" width="42.5" height="1.6"/>
						<polygon class="st242" points="157.1,160.9 158.2,160.9 158.2,154.9 159.4,154.9 159.4,153.8 155.9,153.8 155.9,154.9 
							157.1,154.9 						"/>
						<rect x="117.4" y="207.3" class="st242" width="39.8" height="1.6"/>
						<rect x="117.4" y="189.2" class="st242" width="39.8" height="1.6"/>
						<path class="st242" d="M153.9,161c1.1,0,1.7-0.6,1.7-1.8v-0.9h-1.1v1c0,0.5-0.2,0.7-0.6,0.7c-0.4,0-0.6-0.2-0.6-0.7v-3.8
							c0-0.5,0.2-0.7,0.6-0.7c0.4,0,0.6,0.2,0.6,0.7v0.8h1.1v-0.7c0-1.1-0.6-1.8-1.7-1.8c-1.1,0-1.7,0.6-1.7,1.8v3.7
							C152.3,160.4,152.8,161,153.9,161z"/>
						<path class="st242" d="M149.2,159.6h1.4l0.2,1.3h1.1l-1.1-7.1h-1.6l-1.1,7.1h1L149.2,159.6z M149.8,155.1L149.8,155.1l0.5,3.6
							h-1.1L149.8,155.1z"/>
						<polygon class="st5" points="149.9,155.1 149.8,155.1 149.3,158.7 150.4,158.7 						"/>
						<rect x="117.4" y="201.2" class="st242" width="32.8" height="1.6"/>
						<rect x="117.4" y="186.2" class="st242" width="32.4" height="1.6"/>
						<rect x="117.4" y="174.1" class="st242" width="32.4" height="1.6"/>
						<path class="st242" d="M145.3,158h0.4c0.5,0,0.7,0.2,0.7,0.9v1.1c0,0.6,0,0.7,0.1,0.9h1.1c-0.1-0.3-0.1-0.5-0.1-0.9V159
							c0-0.7-0.2-1.3-0.7-1.5v0c0.5-0.2,0.7-0.7,0.7-1.4v-0.6c0-1.1-0.5-1.6-1.6-1.6h-1.7v7.1h1.1V158z M145.3,154.9h0.5
							c0.4,0,0.6,0.2,0.6,0.7v0.7c0,0.6-0.3,0.7-0.7,0.7h-0.4V154.9z"/>
						<path class="st5" d="M146.4,156.3v-0.7c0-0.5-0.2-0.7-0.6-0.7h-0.5v2.2h0.4C146.2,157,146.4,156.8,146.4,156.3z"/>
						<path class="st241" d="M143.7,140.5c1.3,0,2.3-1,2.3-2.3c0-0.2,0-0.4-0.1-0.6h-4.4c-0.1,0.2-0.1,0.4-0.1,0.6
							C141.4,139.5,142.5,140.5,143.7,140.5z"/>
						<polygon class="st242" points="141.4,160.9 142.5,160.9 142.5,154.9 143.7,154.9 143.7,153.8 140.3,153.8 140.3,154.9 
							141.4,154.9 						"/>
						<polygon class="st242" points="137.3,155.8 137.3,155.8 138.6,160.9 139.8,160.9 139.8,153.8 138.8,153.8 138.8,158.1 
							138.8,158.1 137.7,153.8 136.3,153.8 136.3,160.9 137.3,160.9 						"/>
						<path class="st242" d="M133.9,161c1.1,0,1.7-0.6,1.7-1.8v-3.7c0-1.1-0.6-1.8-1.7-1.8c-1.1,0-1.7,0.6-1.7,1.8v0.7v3
							C132.2,160.4,132.8,161,133.9,161z M133.3,155.5c0-0.5,0.2-0.7,0.6-0.7c0.4,0,0.6,0.2,0.6,0.7v3.8c0,0.5-0.2,0.7-0.6,0.7
							c-0.4,0-0.6-0.2-0.6-0.7V155.5z"/>
						<path class="st5" d="M133.9,160c0.4,0,0.6-0.2,0.6-0.7v-3.8c0-0.5-0.2-0.7-0.6-0.7c-0.4,0-0.6,0.2-0.6,0.7v3.8
							C133.3,159.8,133.5,160,133.9,160z"/>
						<path class="st242" d="M129.9,161c1.1,0,1.7-0.6,1.7-1.8v-0.9h-1.1v1c0,0.5-0.2,0.7-0.6,0.7c-0.4,0-0.6-0.2-0.6-0.7v-3.8
							c0-0.5,0.2-0.7,0.6-0.7c0.4,0,0.6,0.2,0.6,0.7v0.8h1.1v-0.7c0-1.1-0.6-1.8-1.7-1.8c-1.1,0-1.7,0.6-1.7,1.8v3.7
							C128.3,160.4,128.8,161,129.9,161z"/>
					</g>
				</g>
				<g>
					<path class="st5" d="M389.7,58.9c-28.8,0-52.1,23.3-52.1,52.1c0,17.5,8.7,33,21.9,42.4l-9.7,9.7c0,0,11.8-0.9,21.6-3.3
						c5.7,2.1,11.9,3.3,18.3,3.3c28.8,0,52.1-23.3,52.1-52.1C441.8,82.3,418.5,58.9,389.7,58.9z"/>
					<g>
						<g>
							<path class="st244" d="M419,61c0-0.4-0.2-0.8-0.5-1.1c-0.3-0.3-0.7-0.5-1.1-0.5h0l-57.3,0c-0.4,0-0.8,0.2-1.1,0.5
								c-0.3,0.3-0.5,0.7-0.5,1.1l0,73.6c0,0.9,0.7,1.5,1.6,1.5h0l57.3,0c0.9,0,1.6-0.7,1.6-1.6L419,61z"/>
							<path class="st5" d="M416.8,63.2c0-0.4-0.2-0.8-0.4-1c-0.3-0.3-0.6-0.4-1-0.4h0l-53.1,0c-0.4,0-0.8,0.2-1,0.4
								c-0.3,0.3-0.4,0.6-0.4,1l0,69.3c0,0.8,0.7,1.5,1.5,1.5h0l53.1,0c0.8,0,1.5-0.7,1.5-1.5L416.8,63.2z"/>
						</g>
						<rect x="372.5" y="64.4" class="st245" width="32.4" height="7.7"/>
						<rect x="363.1" y="102" class="st245" width="15.7" height="7.7"/>
						<rect x="380.9" y="102" class="st246" width="15.7" height="7.7"/>
						<rect x="398.8" y="102" class="st245" width="15.7" height="7.7"/>
						<rect x="363.5" y="76.6" class="st246" width="18.8" height="21.5"/>
						<rect x="386.2" y="77.7" class="st247" width="27.7" height="0.9"/>
						<rect x="366.7" y="113.7" class="st247" width="45.3" height="0.9"/>
						<rect x="366.7" y="117.3" class="st247" width="45.3" height="0.9"/>
						<rect x="366.7" y="120.9" class="st247" width="45.3" height="0.9"/>
						<rect x="366.7" y="124.6" class="st247" width="45.3" height="0.9"/>
						<rect x="366.7" y="128.2" class="st247" width="45.3" height="0.9"/>
						<rect x="386.2" y="81.4" class="st247" width="27.7" height="0.9"/>
						<rect x="386.2" y="85.2" class="st247" width="27.7" height="0.9"/>
						<rect x="386.2" y="88.9" class="st247" width="27.7" height="0.9"/>
						<rect x="386.2" y="92.7" class="st247" width="27.7" height="0.9"/>
						<rect x="386.2" y="96.4" class="st247" width="27.7" height="0.9"/>
					</g>
				</g>
				<g>
					<path class="st5" d="M498.7,149c-28.8,0-52.1,23.3-52.1,52.1c0,17.5,8.7,33,21.9,42.4l-9.7,9.7c0,0,11.8-0.9,21.6-3.3
						c5.7,2.1,11.9,3.3,18.3,3.3c28.8,0,52.1-23.3,52.1-52.1C550.8,172.4,527.4,149,498.7,149z"/>
					<g>
						<linearGradient id="SVGID_3_" gradientUnits="userSpaceOnUse" x1="497.5025" y1="235.7347" x2="497.5025" y2="216.1681">
							<stop  offset="0" style="stop-color:#0E3655"/>
							<stop  offset="0.6465" style="stop-color:#20597F"/>
							<stop  offset="1" style="stop-color:#286891"/>
						</linearGradient>
						<path class="st6" d="M502.5,228.5v-12.3h-10v12.3c-9.4,0.4-15.1,2.1-15.1,4c0,2.3,8.3,3.3,20.1,3.3c11.8,0,20.1-1,20.1-3.3
							C517.6,230.5,511.9,228.9,502.5,228.5z"/>
						<path class="st31" d="M497.5,234.2c-10.7,0-18.3-0.6-19.9-2.4c-0.2,0.2-0.3,0.4-0.3,0.6c0,2.3,8.3,3.3,20.1,3.3
							c11.8,0,20.1-1,20.1-3.3c0-0.2-0.1-0.4-0.3-0.6C515.8,233.7,508.2,234.2,497.5,234.2z"/>
						<g>
							<linearGradient id="SVGID_4_" gradientUnits="userSpaceOnUse" x1="464.4608" y1="158.1749" x2="530.5434" y2="224.2576">
								<stop  offset="0" style="stop-color:#286891"/>
								<stop  offset="0.3535" style="stop-color:#20597F"/>
								<stop  offset="1" style="stop-color:#0E3655"/>
							</linearGradient>
							<path class="st7" d="M458.3,216.6c0,1.9,1.5,3.5,3.4,3.5h71.6c1.9,0,3.4-1.6,3.4-3.5v-50.8c0-1.9-1.5-3.5-3.4-3.5h-71.6
								c-1.9,0-3.4,1.6-3.4,3.5V216.6z"/>
							<path class="st250" d="M533.3,162.3h-71.6c-1.9,0-3.4,1.6-3.4,3.5v50.3c0,0,0,0,0,0v-49.6c0-1.9,1.5-3.5,3.4-3.5h71.6
								c1.9,0,3.4,1.6,3.4,3.5v-0.7C536.7,163.9,535.2,162.3,533.3,162.3z"/>
							<linearGradient id="SVGID_5_" gradientUnits="userSpaceOnUse" x1="461.1581" y1="191.2163" x2="533.8479" y2="191.2163">
								<stop  offset="0" style="stop-color:#FAFAFA"/>
								<stop  offset="1" style="stop-color:#CDEFFA"/>
							</linearGradient>
							<path class="st8" d="M533.3,214.4c0.3,0,0.5-0.2,0.5-0.3v-45.7c0-0.1-0.2-0.3-0.5-0.3h-71.6c-0.3,0-0.5,0.2-0.5,0.3V214
								c0,0.1,0.2,0.3,0.5,0.3H533.3z"/>
							<linearGradient id="SVGID_6_" gradientUnits="userSpaceOnUse" x1="464.4608" y1="158.1749" x2="530.5434" y2="224.2576">
								<stop  offset="0" style="stop-color:#286891"/>
								<stop  offset="0.3535" style="stop-color:#20597F"/>
								<stop  offset="1" style="stop-color:#0E3655"/>
							</linearGradient>
							<path class="st9" d="M458.3,216.6c0,1.9,1.5,3.5,3.4,3.5h71.6c1.9,0,3.4-1.6,3.4-3.5v-50.8c0-1.9-1.5-3.5-3.4-3.5h-71.6
								c-1.9,0-3.4,1.6-3.4,3.5V216.6z"/>
							<path class="st31" d="M533.3,219h-71.6c-1.9,0-3.4-1.5-3.4-3.4v1.1c0,1.9,1.5,3.5,3.4,3.5h71.6c1.9,0,3.4-1.6,3.4-3.5v-1.1
								C536.7,217.4,535.2,219,533.3,219z"/>
							<linearGradient id="SVGID_7_" gradientUnits="userSpaceOnUse" x1="461.1581" y1="191.2163" x2="533.8479" y2="191.2163">
								<stop  offset="0" style="stop-color:#FAFAFA"/>
								<stop  offset="1" style="stop-color:#CDEFFA"/>
							</linearGradient>
							<path class="st10" d="M533.3,214.4c0.3,0,0.5-0.2,0.5-0.3v-45.7c0-0.1-0.2-0.3-0.5-0.3h-71.6c-0.3,0-0.5,0.2-0.5,0.3V214
								c0,0.1,0.2,0.3,0.5,0.3H533.3z"/>
							<linearGradient id="SVGID_8_" gradientUnits="userSpaceOnUse" x1="478.0079" y1="151.4703" x2="516.9979" y2="190.4603">
								<stop  offset="0" style="stop-color:#32B4CF"/>
								<stop  offset="0.1749" style="stop-color:#21A5C2"/>
								<stop  offset="0.4325" style="stop-color:#0F95B3"/>
								<stop  offset="0.702" style="stop-color:#048BAB"/>
								<stop  offset="1" style="stop-color:#0088A8"/>
							</linearGradient>
							<path class="st12" d="M533.3,168.1h-71.6c-0.3,0-0.5,0.2-0.5,0.3v5.2h72.7v-5.2C533.8,168.3,533.7,168.1,533.3,168.1z"/>
							<linearGradient id="SVGID_9_" gradientUnits="userSpaceOnUse" x1="463.5619" y1="170.7097" x2="465.8461" y2="170.7097">
								<stop  offset="0" style="stop-color:#BDBDBD"/>
								<stop  offset="0.1172" style="stop-color:#ABABAB"/>
								<stop  offset="0.3225" style="stop-color:#919191"/>
								<stop  offset="0.5346" style="stop-color:#7F7F7F"/>
								<stop  offset="0.7556" style="stop-color:#747474"/>
								<stop  offset="1" style="stop-color:#707070"/>
							</linearGradient>
							<ellipse class="st13" cx="464.7" cy="170.7" rx="1.1" ry="1.2"/>
							<linearGradient id="SVGID_10_" gradientUnits="userSpaceOnUse" x1="466.4994" y1="170.7097" x2="468.7817" y2="170.7097">
								<stop  offset="0" style="stop-color:#155985"/>
								<stop  offset="2.488822e-02" style="stop-color:#145682"/>
								<stop  offset="0.2517" style="stop-color:#0E4368"/>
								<stop  offset="0.4859" style="stop-color:#093556"/>
								<stop  offset="0.7301" style="stop-color:#062D4B"/>
								<stop  offset="1" style="stop-color:#052A47"/>
							</linearGradient>
							<ellipse class="st14" cx="467.6" cy="170.7" rx="1.1" ry="1.2"/>
							<linearGradient id="SVGID_11_" gradientUnits="userSpaceOnUse" x1="469.4342" y1="170.7097" x2="471.7184" y2="170.7097">
								<stop  offset="0" style="stop-color:#FAFAFA"/>
								<stop  offset="1" style="stop-color:#CDEFFA"/>
							</linearGradient>
							<ellipse class="st15" cx="470.6" cy="170.7" rx="1.1" ry="1.2"/>
							<path class="st258" d="M463.8,171c0-0.6,0.5-1.2,1.1-1.2c0.3,0,0.5,0.1,0.7,0.3c-0.2-0.3-0.5-0.5-0.9-0.5
								c-0.6,0-1.1,0.5-1.1,1.2c0,0.4,0.2,0.7,0.4,0.9C463.9,171.4,463.8,171.2,463.8,171z"/>
							<path class="st250" d="M466.7,171c0-0.6,0.5-1.2,1.1-1.2c0.3,0,0.5,0.1,0.7,0.3c-0.2-0.3-0.5-0.5-0.9-0.5
								c-0.6,0-1.1,0.5-1.1,1.2c0,0.4,0.2,0.7,0.4,0.9C466.8,171.4,466.7,171.2,466.7,171z"/>
							<path class="st259" d="M469.6,171c0-0.6,0.5-1.2,1.1-1.2c0.3,0,0.5,0.1,0.7,0.3c-0.2-0.3-0.5-0.5-0.9-0.5
								c-0.6,0-1.1,0.5-1.1,1.2c0,0.4,0.2,0.7,0.4,0.9C469.7,171.4,469.6,171.2,469.6,171z"/>
							<path class="st31" d="M533.3,168.1h-71.6c-0.3,0-0.5,0.2-0.5,0.3V214c0,0.1,0.2,0.3,0.5,0.3h71.6c0.3,0,0.5-0.2,0.5-0.3
								v-45.7C533.8,168.3,533.7,168.1,533.3,168.1z M533.2,213.7h-71.4v-44.9l71.4,0V213.7z"/>
							<rect x="461.2" y="173.6" class="st258" width="72.7" height="0.5"/>
							<linearGradient id="SVGID_12_" gradientUnits="userSpaceOnUse" x1="486.1237" y1="162.0285" x2="484.4957" y2="225.1062">
								<stop  offset="0" style="stop-color:#306173"/>
								<stop  offset="0.1665" style="stop-color:#2E5D6E"/>
								<stop  offset="0.352" style="stop-color:#285261"/>
								<stop  offset="0.5468" style="stop-color:#1F3F4B"/>
								<stop  offset="0.7478" style="stop-color:#12252C"/>
								<stop  offset="0.9518" style="stop-color:#020304"/>
								<stop  offset="0.9697" style="stop-color:#000000"/>
							</linearGradient>
							<path style="opacity:0.7;fill:url(#SVGID_12_);" d="M461.7,220.1h17l35.1-57.8h-52.2c-1.9,0-3.4,1.6-3.4,3.5v50.1v0.7
								C458.3,218.5,459.8,220.1,461.7,220.1z"/>
						</g>
						<g>
							
								<linearGradient id="SVGID_13_" gradientUnits="userSpaceOnUse" x1="125.7104" y1="-237.3039" x2="125.7104" y2="-244.8502" gradientTransform="matrix(0.7542 0.6567 -0.6546 0.7518 246.0881 291.6336)">
								<stop  offset="0" style="stop-color:#707070"/>
								<stop  offset="0.1926" style="stop-color:#7F7F7F"/>
								<stop  offset="1" style="stop-color:#BDBDBD"/>
							</linearGradient>
							<polygon class="st17" points="511.9,209.4 480.6,182.1 485.5,176.5 516.9,203.8 							"/>
							
								<rect x="496" y="174.5" transform="matrix(0.6566 -0.7542 0.7542 0.6566 23.2271 441.6414)" class="st47" width="1.2" height="41.6"/>
							
								<rect x="483.5" y="178.4" transform="matrix(0.6556 -0.7551 0.7551 0.6556 32.1166 428.068)" class="st101" width="3.8" height="0.8"/>
							
								<rect x="485.8" y="178.9" transform="matrix(0.6551 -0.7556 0.7556 0.6551 32.4853 429.8018)" class="st101" width="2.4" height="0.8"/>
							
								<rect x="487" y="180" transform="matrix(0.656 -0.7547 0.7547 0.656 31.8028 430.4637)" class="st101" width="2.4" height="0.8"/>
							<polygon class="st101" points="488.8,182.5 488.3,182 489.8,180.2 490.4,180.7 							"/>
							<polygon class="st101" points="490,183.5 489.4,183 491,181.2 491.6,181.7 							"/>
							<polygon class="st101" points="490.3,185.6 489.7,185.1 492.2,182.3 492.7,182.8 							"/>
							
								<rect x="491.7" y="184" transform="matrix(0.6568 -0.7541 0.7541 0.6568 30.0881 434.9596)" class="st101" width="2.4" height="0.8"/>
							
								<rect x="492.8" y="185.1" transform="matrix(0.6579 -0.7531 0.7531 0.6579 29.3433 435.4938)" class="st101" width="2.4" height="0.8"/>
							
								<rect x="494" y="186.1" transform="matrix(0.6581 -0.7529 0.7529 0.6581 28.9089 436.6033)" class="st101" width="2.4" height="0.8"/>
							<polygon class="st101" points="495.9,188.6 495.3,188.1 496.8,186.3 497.4,186.9 							"/>
							<polygon class="st101" points="496.1,190.7 495.6,190.2 498,187.4 498.6,187.9 							"/>
							
								<rect x="497.5" y="189.1" transform="matrix(0.6557 -0.755 0.755 0.6557 28.5943 441.778)" class="st101" width="2.4" height="0.8"/>
							
								<rect x="498.7" y="190.2" transform="matrix(0.6568 -0.7541 0.7541 0.6568 27.865 442.3344)" class="st101" width="2.4" height="0.8"/>
							<polygon class="st101" points="500.6,192.7 500,192.2 501.5,190.4 502.1,190.9 							"/>
							<polygon class="st101" points="501.7,193.7 501.2,193.2 502.7,191.5 503.3,192 							"/>
							
								<rect x="501.1" y="193.8" transform="matrix(0.6557 -0.755 0.755 0.6557 26.5905 446.5935)" class="st101" width="3.8" height="0.8"/>
							<polygon class="st101" points="504.1,195.8 503.5,195.3 505.1,193.5 505.6,194 							"/>
							
								<rect x="504.6" y="195.3" transform="matrix(0.6556 -0.7551 0.7551 0.6556 26.4266 449.266)" class="st101" width="2.4" height="0.8"/>
							
								<rect x="505.7" y="196.3" transform="matrix(0.6565 -0.7543 0.7543 0.6565 25.7577 449.933)" class="st101" width="2.4" height="0.8"/>
							
								<rect x="506.9" y="197.3" transform="matrix(0.6557 -0.755 0.755 0.6557 25.6576 451.6744)" class="st101" width="2.4" height="0.8"/>
							
								<rect x="506.9" y="198.9" transform="matrix(0.6581 -0.7529 0.7529 0.6581 23.9296 451.1995)" class="st101" width="3.8" height="0.8"/>
							<polygon class="st101" points="513.7,206 513.1,205.5 515.6,202.7 516.2,203.2 							"/>
							
								<rect x="509.3" y="199.4" transform="matrix(0.6588 -0.7523 0.7523 0.6588 23.8949 452.178)" class="st101" width="2.4" height="0.8"/>
							
								<rect x="510.4" y="200.4" transform="matrix(0.6556 -0.7551 0.7551 0.6556 24.591 455.4527)" class="st101" width="2.4" height="0.8"/>
							
								<rect x="511.6" y="201.4" transform="matrix(0.6569 -0.754 0.754 0.6569 23.7993 455.8753)" class="st101" width="2.4" height="0.8"/>
							
								<rect x="512.8" y="202.4" transform="matrix(0.6571 -0.7538 0.7538 0.6571 23.3549 456.9648)" class="st101" width="2.4" height="0.8"/>
						</g>
						<g>
							
								<linearGradient id="SVGID_14_" gradientUnits="userSpaceOnUse" x1="208.5194" y1="-593.0093" x2="213.4502" y2="-593.0093" gradientTransform="matrix(0.6625 0.749 -0.749 0.6625 -80.437 417.8712)">
								<stop  offset="0" style="stop-color:#32B4CF"/>
								<stop  offset="0.1749" style="stop-color:#21A5C2"/>
								<stop  offset="0.4325" style="stop-color:#0F95B3"/>
								<stop  offset="0.702" style="stop-color:#048BAB"/>
								<stop  offset="1" style="stop-color:#0088A8"/>
							</linearGradient>
							<path class="st18" d="M512.8,178.1c0,0-1-1.7-4-1c-2.3,0.5-13.8,8.2-13.2,12.3c0,0,0.8,0.3,2.3-2c1.5-2.3,2.4-3.6,5.1-5.6
								c2.7-2,6.3-3.9,7.3-2.7L512.8,178.1z"/>
							<path class="st103" d="M512.5,177.8l-2.4,0.9c-0.9-1.2-4.6,0.7-7.3,2.7c-2.7,2.1-3.6,3.3-5.1,5.6c-1.1,1.7-1.8,2-2.1,2
								c0,0.1,0,0.2,0,0.4c0,0,0.8,0.3,2.3-2c1.5-2.3,2.4-3.6,5.1-5.6c2.7-2,6.3-3.9,7.3-2.7l2.5-0.9
								C512.8,178.1,512.7,178,512.5,177.8z"/>
							
								<linearGradient id="SVGID_15_" gradientUnits="userSpaceOnUse" x1="256.3065" y1="-517.7772" x2="265.2822" y2="-517.7772" gradientTransform="matrix(0.7137 0.7004 -0.7004 0.7137 -49.3013 379.6412)">
								<stop  offset="0" style="stop-color:#32B4CF"/>
								<stop  offset="0.1749" style="stop-color:#21A5C2"/>
								<stop  offset="0.4325" style="stop-color:#0F95B3"/>
								<stop  offset="0.702" style="stop-color:#048BAB"/>
								<stop  offset="1" style="stop-color:#0088A8"/>
							</linearGradient>
							<path class="st19" d="M502.2,196.4c-7.3,7.4-15.9,13.4-17.7,11.6c-1.8-1.7,4-10.5,11.3-17.9c7.3-7.4,16.8-14.3,18.6-12.6
								C516.2,179.3,509.5,189,502.2,196.4z"/>
							
								<linearGradient id="SVGID_16_" gradientUnits="userSpaceOnUse" x1="263.5" y1="-497.8985" x2="259.1887" y2="-504.9841" gradientTransform="matrix(0.7137 0.7004 -0.7004 0.7137 -49.3013 379.6409)">
								<stop  offset="0" style="stop-color:#00B389"/>
								<stop  offset="0.1246" style="stop-color:#0CBA93"/>
								<stop  offset="0.4773" style="stop-color:#2ACCAB"/>
								<stop  offset="0.7813" style="stop-color:#3CD7BA"/>
								<stop  offset="1" style="stop-color:#42DBBF"/>
							</linearGradient>
							<path class="st20" d="M490.2,202.2c-0.9-0.9-1.9-1.5-2.9-1.9c-2.5,3.7-3.8,6.8-2.8,7.7c1,0.9,4-0.4,7.7-3
								C491.8,204,491.1,203,490.2,202.2z"/>
							<path class="st103" d="M514.4,177.5c-0.1,0-0.1-0.1-0.2-0.1c1.2,2.1-5.3,11.5-12.3,18.7c-7.1,7.2-15.4,13-17.5,11.8
								c0,0.1,0.1,0.1,0.1,0.2c1.8,1.7,10.4-4.2,17.7-11.6C509.5,189,516.2,179.3,514.4,177.5z"/>
							<path class="st106" d="M496.1,190.3c7.1-7.2,16.4-13.9,18.5-12.7c0-0.1-0.1-0.1-0.1-0.2c-1.8-1.7-11.3,5.2-18.6,12.6
								c-7.3,7.4-13.1,16.2-11.3,17.9c0,0,0.1,0.1,0.2,0.1C483.3,206.1,489,197.6,496.1,190.3z"/>
							
								<linearGradient id="SVGID_17_" gradientUnits="userSpaceOnUse" x1="262.6663" y1="-512.7677" x2="258.9232" y2="-518.9194" gradientTransform="matrix(0.7137 0.7004 -0.7004 0.7137 -49.3013 379.6409)">
								<stop  offset="0" style="stop-color:#00B389"/>
								<stop  offset="0.1246" style="stop-color:#0CBA93"/>
								<stop  offset="0.4773" style="stop-color:#2ACCAB"/>
								<stop  offset="0.7813" style="stop-color:#3CD7BA"/>
								<stop  offset="1" style="stop-color:#42DBBF"/>
							</linearGradient>
							<path class="st21" d="M501.6,197.6c-0.7,0.7-1.3,1.1-2.1,0.4l-5.3-5.2c-0.8-0.7-0.3-1.4,0.3-2.1l0,0c0.7-0.7,1.3-1.1,2.1-0.4
								l5.3,5.2C502.7,196.3,502.3,196.9,501.6,197.6L501.6,197.6z"/>
							<path class="st108" d="M491.9,204.7c-3.7,2.6-6.5,4-7.4,3c-0.2-0.2-0.3-0.4-0.3-0.7c0,0.4,0.1,0.7,0.3,0.9c1,0.9,4-0.4,7.7-3
								C492.1,204.9,492,204.8,491.9,204.7z"/>
							<path class="st109" d="M487.6,200.6c1,0.4,1.9,1,2.7,1.7c0,0-0.1-0.1-0.1-0.1c-0.9-0.9-1.9-1.5-2.9-1.9
								c-2.5,3.7-3.8,6.8-2.8,7.7c0,0,0.1,0.1,0.2,0.1C483.9,207,485.2,204.1,487.6,200.6z"/>
							
								<linearGradient id="SVGID_18_" gradientUnits="userSpaceOnUse" x1="259.6003" y1="-496.0107" x2="261.986" y2="-496.0107" gradientTransform="matrix(0.7137 0.7004 -0.7004 0.7137 -49.3013 379.6409)">
								<stop  offset="0" style="stop-color:#155985"/>
								<stop  offset="2.488822e-02" style="stop-color:#145682"/>
								<stop  offset="0.2517" style="stop-color:#0E4368"/>
								<stop  offset="0.4859" style="stop-color:#093556"/>
								<stop  offset="0.7301" style="stop-color:#062D4B"/>
								<stop  offset="1" style="stop-color:#052A47"/>
							</linearGradient>
							<path class="st22" d="M485.2,207.3c-0.3-0.3-0.7-0.5-1-0.7c-0.9,1.3-1.3,2.4-1,2.7c0.3,0.3,1.4-0.1,2.7-1.1
								C485.8,207.9,485.6,207.6,485.2,207.3z"/>
							
								<linearGradient id="SVGID_19_" gradientUnits="userSpaceOnUse" x1="259.6003" y1="-496.0109" x2="260.9796" y2="-496.0109" gradientTransform="matrix(0.7137 0.7004 -0.7004 0.7137 -49.3013 379.6409)">
								<stop  offset="0" style="stop-color:#155985"/>
								<stop  offset="2.488822e-02" style="stop-color:#145682"/>
								<stop  offset="0.2517" style="stop-color:#0E4368"/>
								<stop  offset="0.4859" style="stop-color:#093556"/>
								<stop  offset="0.7301" style="stop-color:#062D4B"/>
								<stop  offset="1" style="stop-color:#052A47"/>
							</linearGradient>
							<path class="st23" d="M484.5,206.9c0.3,0.1,0.6,0.3,0.9,0.5c0,0-0.1-0.1-0.1-0.1c-0.3-0.3-0.7-0.5-1-0.7
								c-0.9,1.3-1.3,2.4-1,2.7c0,0,0.1,0.1,0.2,0.1C483.3,209,483.7,208,484.5,206.9z"/>
							<path class="st112" d="M485.8,208c-1.2,0.9-2.2,1.3-2.6,1c-0.1-0.1-0.1-0.1-0.1-0.2c0,0.3,0,0.5,0.1,0.6
								c0.3,0.3,1.4-0.1,2.7-1.1C485.9,208.2,485.8,208.1,485.8,208z"/>
							<path class="st268" d="M500.6,194.7c-6.6,6.7-13.9,12.5-15,11.5c-1-1,4.7-8.5,11.2-15.2c6.6-6.7,14.7-13.3,15.8-12.3
								C513.7,179.7,507.2,188,500.6,194.7z"/>
							<path class="st268" d="M498.3,194.4c-5.6,5.7-11.6,11.1-12,10.6c-0.4-0.4,4.8-6.5,10.4-12.2c5.6-5.7,12.3-11.8,12.7-11.3
								C509.8,181.9,503.9,188.6,498.3,194.4z"/>
							
								<linearGradient id="SVGID_20_" gradientUnits="userSpaceOnUse" x1="262.666" y1="-512.7679" x2="258.923" y2="-518.9197" gradientTransform="matrix(0.7137 0.7004 -0.7004 0.7137 -49.3013 379.6412)">
								<stop  offset="0" style="stop-color:#00B389"/>
								<stop  offset="0.1246" style="stop-color:#0CBA93"/>
								<stop  offset="0.4773" style="stop-color:#2ACCAB"/>
								<stop  offset="0.7813" style="stop-color:#3CD7BA"/>
								<stop  offset="1" style="stop-color:#42DBBF"/>
							</linearGradient>
							<path class="st24" d="M501.6,197.6c-0.7,0.7-1.3,1.1-2.1,0.4l-5.3-5.2c-0.8-0.7-0.3-1.4,0.3-2.1l0,0c0.7-0.7,1.3-1.1,2.1-0.4
								l5.3,5.2C502.7,196.3,502.3,196.9,501.6,197.6L501.6,197.6z"/>
							<path class="st108" d="M502,195.5l-0.3-0.3c0.8,0.7,0.3,1.4-0.3,2.1c-0.7,0.7-1.3,1.1-2.1,0.4l0.3,0.3
								c0.8,0.7,1.4,0.3,2.1-0.4C502.3,196.9,502.7,196.3,502,195.5z"/>
							<path class="st109" d="M496.7,190.3l0.3,0.3c-0.8-0.7-1.4-0.3-2.1,0.4c-0.7,0.7-1.1,1.3-0.3,2.1l-0.3-0.3
								c-0.8-0.7-0.3-1.4,0.3-2.1C495.3,190,495.9,189.6,496.7,190.3z"/>
						</g>
					</g>
				</g>
				<g>
					<path class="st5" d="M94.2,286.7c30.4,0,55,24.6,55,55c0,18.5-9.1,34.9-23.1,44.8l10.2,10.2c0,0-12.5-0.9-22.8-3.5
						c-6,2.3-12.5,3.5-19.3,3.5c-30.4,0-55-24.6-55-55C39.2,311.3,63.8,286.7,94.2,286.7z"/>
					<g>
						<defs>
							<filter id="Adobe_OpacityMaskFilter" filterUnits="userSpaceOnUse" x="41.5" y="279.5" width="114.4" height="128.2">
								<feColorMatrix  type="matrix" values="1 0 0 0 0  0 1 0 0 0  0 0 1 0 0  0 0 0 1 0"/>
							</filter>
						</defs>
						<mask maskUnits="userSpaceOnUse" x="41.5" y="279.5" width="114.4" height="128.2" id="SVGID_21_">
							<g class="st270">
								<circle class="st5" cx="85.3" cy="336.2" r="59.8"/>
							</g>
						</mask>
						<g style="mask:url(#SVGID_21_);">
							<path class="st272" d="M53.5,365.7l-0.3,5.8h8.6l-0.4-23l-0.5,1.7l0.1-1.9l0-2.3l0.4,0.5l0-1c-0.2-0.4-0.2-7.4-0.2-7.4
								c0.2-0.9,5.8-10.3,3-11.3c-1-0.4-2.8,0-3,0.9L54,342.8c0,0,0,0.1,0,0.1c0,0-2.4,4.1-3,7.7c-0.7,3.7,0.3,6.9,0.3,6.9
								L53.5,365.7z"/>
							<g>
								<path class="st273" d="M108.9,354.5c0,0.5-0.4,0.9-0.9,0.9H61.8c-0.5,0-0.9-0.4-0.9-0.9v-58.9c0-0.5,0.4-0.9,0.9-0.9H108
									c0.5,0,0.9,0.4,0.9,0.9V354.5z"/>
								<rect x="63.1" y="297.1" class="st5" width="43.8" height="55.5"/>
								<g>
									<g>
										<polygon class="st274" points="98,297.1 62.9,297.1 62.9,346.3 107,346.3 107,306.1 										"/>
									</g>
									<g>
										<polygon class="st5" points="98,297.1 62.9,297.1 62.9,352.9 107,352.9 107,306.1 98,306.1 										"/>
									</g>
								</g>
								<g>
									<g>
										<rect x="80.9" y="311.7" class="st275" width="9.6" height="1.2"/>
										<rect x="80.9" y="316.7" class="st275" width="21.3" height="1.2"/>
										<rect x="80.9" y="319.5" class="st275" width="21.3" height="1.2"/>
										<rect x="80.9" y="322.3" class="st275" width="21.3" height="1.2"/>
										<rect x="80.9" y="325.1" class="st275" width="21.3" height="1.2"/>
									</g>
									<g>
										<rect x="80.9" y="328" class="st275" width="21.3" height="1.2"/>
										<rect x="80.9" y="330.7" class="st275" width="21.3" height="1.2"/>
										<rect x="80.9" y="333.5" class="st275" width="21.3" height="1.2"/>
										<rect x="80.9" y="336.3" class="st275" width="21.3" height="1.2"/>
									</g>
									<g>
										<rect x="80.9" y="339.1" class="st275" width="21.3" height="1.2"/>
										<rect x="80.9" y="341.9" class="st275" width="21.3" height="1.2"/>
										<rect x="80.9" y="344.7" class="st275" width="21.3" height="1.2"/>
									</g>
								</g>
								<rect x="62.9" y="297.1" class="st276" width="35.1" height="2.6"/>
								<g>
									<polygon class="st277" points="80.8,301 79.7,301 79.7,300.8 80.8,300.8 									"/>
									<polygon class="st277" points="89,301 90,301 90,300.8 88.9,300.8 									"/>
									<path class="st278" d="M75.8,293.3v8.1h3.9c0,0,0-0.7,0-0.7c0,0,10.3,0,10.3,0v0.7h4v-8.1H75.8z"/>
									<g>
										<path class="st277" d="M82.9,288.5l-2.6,12.3h0.6l2.7-12.6l-0.2-0.1c-1.6-0.6-2.6-2.2-2.6-3.9c0-2.3,1.9-4.2,4.2-4.2
											c2.3,0,4.2,1.9,4.2,4.2c0,1.7-1,3.3-2.7,3.9l-0.2,0.1l2.7,12.6h0.6l-2.6-12.3c1.7-0.8,2.8-2.4,2.8-4.3
											c0-2.6-2.1-4.7-4.7-4.7c-2.6,0-4.7,2.1-4.7,4.7C80.1,286.1,81.2,287.8,82.9,288.5z"/>
									</g>
								</g>
								<g>
									<g>
										<g>
											<g>
												<rect x="75.4" y="335.9" class="st275" width="0.6" height="0.6"/>
											</g>
											<g>
												<path class="st275" d="M76,337.1v0.6h-0.6v-0.6H76z M76,338.4v0.6h-0.6v-0.6H76z M76,339.7v0.6h-0.6v-0.6H76z M76,340.9
													v0.6h-0.6v-0.6H76z M76,342.2v0.6h-0.6v-0.6H76z M76,343.4v0.6h-0.6v-0.6H76z M76,344.7v0.6h-0.6v-0.6H76z"/>
											</g>
											<g>
												<rect x="75.4" y="346" class="st275" width="0.6" height="0.6"/>
											</g>
											<g>
												<path class="st275" d="M74.8,346v0.6h-0.6V346H74.8z M73.5,346v0.6h-0.6V346H73.5z M72.2,346v0.6h-0.6V346H72.2z
													 M71,346v0.6h-0.6V346H71z M69.7,346v0.6h-0.6V346H69.7z M68.5,346v0.6h-0.6V346H68.5z M67.2,346v0.6h-0.6V346H67.2z"/>
											</g>
											<g>
												<rect x="65.4" y="346" class="st275" width="0.6" height="0.6"/>
											</g>
											<g>
												<path class="st275" d="M66,337.1v0.6h-0.6v-0.6H66z M66,338.4v0.6h-0.6v-0.6H66z M66,339.7v0.6h-0.6v-0.6H66z M66,340.9
													v0.6h-0.6v-0.6H66z M66,342.2v0.6h-0.6v-0.6H66z M66,343.4v0.6h-0.6v-0.6H66z M66,344.7v0.6h-0.6v-0.6H66z"/>
											</g>
											<g>
												<rect x="65.4" y="335.9" class="st275" width="0.6" height="0.6"/>
											</g>
											<g>
												<path class="st275" d="M74.8,335.9v0.6h-0.6v-0.6H74.8z M73.5,335.9v0.6h-0.6v-0.6H73.5z M72.2,335.9v0.6h-0.6v-0.6
													H72.2z M71,335.9v0.6h-0.6v-0.6H71z M69.7,335.9v0.6h-0.6v-0.6H69.7z M68.5,335.9v0.6h-0.6v-0.6H68.5z M67.2,335.9v0.6
													h-0.6v-0.6H67.2z"/>
											</g>
										</g>
										<g>
											<g>
												<rect x="75.4" y="323.3" class="st275" width="0.6" height="0.6"/>
											</g>
											<g>
												<path class="st275" d="M76,324.5v0.6h-0.6v-0.6H76z M76,325.8v0.6h-0.6v-0.6H76z M76,327.1v0.6h-0.6v-0.6H76z M76,328.3
													v0.6h-0.6v-0.6H76z M76,329.6v0.6h-0.6v-0.6H76z M76,330.8v0.6h-0.6v-0.6H76z M76,332.1v0.6h-0.6v-0.6H76z"/>
											</g>
											<g>
												<rect x="75.4" y="333.4" class="st275" width="0.6" height="0.6"/>
											</g>
											<g>
												<path class="st275" d="M74.8,333.4v0.6h-0.6v-0.6H74.8z M73.5,333.4v0.6h-0.6v-0.6H73.5z M72.2,333.4v0.6h-0.6v-0.6
													H72.2z M71,333.4v0.6h-0.6v-0.6H71z M69.7,333.4v0.6h-0.6v-0.6H69.7z M68.5,333.4v0.6h-0.6v-0.6H68.5z M67.2,333.4v0.6
													h-0.6v-0.6H67.2z"/>
											</g>
											<g>
												<rect x="65.4" y="333.4" class="st275" width="0.6" height="0.6"/>
											</g>
											<g>
												<path class="st275" d="M66,324.5v0.6h-0.6v-0.6H66z M66,325.8v0.6h-0.6v-0.6H66z M66,327.1v0.6h-0.6v-0.6H66z M66,328.3
													v0.6h-0.6v-0.6H66z M66,329.6v0.6h-0.6v-0.6H66z M66,330.8v0.6h-0.6v-0.6H66z M66,332.1v0.6h-0.6v-0.6H66z"/>
											</g>
											<g>
												<rect x="65.4" y="323.3" class="st275" width="0.6" height="0.6"/>
											</g>
											<g>
												<path class="st275" d="M74.8,323.3v0.6h-0.6v-0.6H74.8z M73.5,323.3v0.6h-0.6v-0.6H73.5z M72.2,323.3v0.6h-0.6v-0.6
													H72.2z M71,323.3v0.6h-0.6v-0.6H71z M69.7,323.3v0.6h-0.6v-0.6H69.7z M68.5,323.3v0.6h-0.6v-0.6H68.5z M67.2,323.3v0.6
													h-0.6v-0.6H67.2z"/>
											</g>
										</g>
										<g>
											<g>
												<rect x="75.4" y="310.7" class="st275" width="0.6" height="0.6"/>
											</g>
											<g>
												<path class="st275" d="M76,311.9v0.6h-0.6v-0.6H76z M76,313.2v0.6h-0.6v-0.6H76z M76,314.5v0.6h-0.6v-0.6H76z M76,315.7
													v0.6h-0.6v-0.6H76z M76,317v0.6h-0.6V317H76z M76,318.2v0.6h-0.6v-0.6H76z M76,319.5v0.6h-0.6v-0.6H76z"/>
											</g>
											<g>
												<rect x="75.4" y="320.8" class="st275" width="0.6" height="0.6"/>
											</g>
											<g>
												<path class="st275" d="M74.8,320.8v0.6h-0.6v-0.6H74.8z M73.5,320.8v0.6h-0.6v-0.6H73.5z M72.2,320.8v0.6h-0.6v-0.6
													H72.2z M71,320.8v0.6h-0.6v-0.6H71z M69.7,320.8v0.6h-0.6v-0.6H69.7z M68.5,320.8v0.6h-0.6v-0.6H68.5z M67.2,320.8v0.6
													h-0.6v-0.6H67.2z"/>
											</g>
											<g>
												<rect x="65.4" y="320.8" class="st275" width="0.6" height="0.6"/>
											</g>
											<g>
												<path class="st275" d="M66,311.9v0.6h-0.6v-0.6H66z M66,313.2v0.6h-0.6v-0.6H66z M66,314.5v0.6h-0.6v-0.6H66z M66,315.7
													v0.6h-0.6v-0.6H66z M66,317v0.6h-0.6V317H66z M66,318.2v0.6h-0.6v-0.6H66z M66,319.5v0.6h-0.6v-0.6H66z"/>
											</g>
											<g>
												<rect x="65.4" y="310.7" class="st275" width="0.6" height="0.6"/>
											</g>
											<g>
												<path class="st275" d="M74.8,310.7v0.6h-0.6v-0.6H74.8z M73.5,310.7v0.6h-0.6v-0.6H73.5z M72.2,310.7v0.6h-0.6v-0.6
													H72.2z M71,310.7v0.6h-0.6v-0.6H71z M69.7,310.7v0.6h-0.6v-0.6H69.7z M68.5,310.7v0.6h-0.6v-0.6H68.5z M67.2,310.7v0.6
													h-0.6v-0.6H67.2z"/>
											</g>
										</g>
									</g>
									<rect x="68.3" y="338.9" class="st275" width="4.9" height="4.9"/>
									<rect x="68.3" y="326.2" class="st275" width="4.9" height="4.9"/>
									<rect x="68.3" y="313.6" class="st275" width="4.9" height="4.9"/>
								</g>
								<g>
									<g>
										<polygon class="st273" points="69.6,314.7 69,315.3 71.6,317.9 77.6,311.8 77,311.2 71.6,316.6 										"/>
									</g>
								</g>
								<g>
									<g>
										<polygon class="st273" points="69.6,327.4 69,328 71.6,330.6 77.6,324.5 77,323.9 71.6,329.3 										"/>
									</g>
								</g>
								<g>
									<g>
										<polygon class="st273" points="69.6,340 69,340.6 71.6,343.2 77.6,337.1 77,336.5 71.6,341.9 										"/>
									</g>
								</g>
							</g>
							<g>
								<path class="st272" d="M54.8,371.5l13,0.6c0.2-5.2,1-4.9,1.8-6.2c1.4-2.1,2-5.1,1.9-7.5c0-4.5-2.5-8.6-2.5-8.6l-0.6-11.5
									c0.3-2.7-0.3-4.5-1.3-5.1c-1.8-1-3.5-0.8-4.7,0.9l-1,14.1c0,0-1.6,3.9-0.5,9.9l-3.5,7.8C56.4,368,55.5,369.8,54.8,371.5z"/>
								<polygon class="st279" points="73.4,399.8 75.3,372.7 46.3,369.3 43.8,400.2 								"/>
								<polygon class="st273" points="74.4,407.6 76.1,379 43.9,374.8 41.5,407.6 								"/>
								
									<ellipse transform="matrix(0.1595 -0.9872 0.9872 0.1595 -311.2357 385.3413)" class="st273" cx="70.7" cy="375.5" rx="1" ry="1"/>
							</g>
							<path class="st280" d="M67.1,336.9c0,0-1.1,0.2-2.2,0.2c-0.9,0-1.7-0.2-1.7-0.2v-2.5c0,0,0.7-0.7,2-0.6
								c1.2,0,1.9,0.6,1.9,0.6V336.9z"/>
							<g>
								<path class="st272" d="M121.4,339.3l3.9,3.7l-5.7,5.4l-14.4-15.6l0.2-0.3l-0.7-0.4l-0.7-0.5l-0.2-0.1l-0.6-0.6
									c-0.1-0.4-1.9-2-1.9-2c-0.7-0.5-3.1,10.5-7.1,8.9c-2.6-1.1,5.1-13.8,7.3-14.6l3.9,0.6c0,0,1.7,0.5,1.7,0.5
									c0,0,3.6,1.4,6.3,3.4c2.8,2,4.2,4.8,4.2,4.8L121.4,339.3z"/>
								<g>
									<path class="st278" d="M132.6,331.8c0,0.1,0.1,0.2,0.2,0.1l2.4-0.2c0.1,0,0.1-0.1,0.1-0.2l-0.5-4.6c0-0.1-0.1-0.2-0.2-0.1
										l-2.4,0.2c-0.1,0-0.1,0.1-0.1,0.2L132.6,331.8z"/>
									<path class="st5" d="M131.4,327.1l0.9-0.1l0.5,5l-0.9,0.1c-0.1,0-0.2-0.1-0.2-0.1l-0.5-4.6
										C131.2,327.2,131.3,327.1,131.4,327.1z"/>
									<polygon class="st276" points="94.1,330.9 96,330.7 120.8,328.2 124.8,327.8 131.3,327.1 131.8,332.1 125.4,332.7 
										121.3,333.2 96.5,335.7 94.6,335.9 86.4,336.7 85.9,331.7 									"/>
									<polygon class="st273" points="94.3,332.7 96.2,332.5 120.9,330 125,329.6 131.5,328.9 131.6,330.3 125.2,330.9 
										121.1,331.3 96.3,333.9 94.4,334.1 86.2,334.9 86.1,333.6 									"/>
									<polygon class="st5" points="86.4,336.7 87.4,334.1 85.9,331.7 80.4,334.8 									"/>
									<polygon class="st273" points="82.7,333.5 82.9,335.6 80.4,334.8 									"/>
								</g>
								<path class="st272" d="M124.2,344l-8.3,8.7c-1.2-1.1-3.9-1.5-5.2-2.2c-2.3-1.3-4.5-2.9-6-4.6c-2.9-3-3.8-7.3-3.8-7.3
									l-6.1-7.2c-1.9-1.6-2.7-3.2-2.4-4.2c0.6-1.8,1.9-2.7,3.7-2.4l8.8,7.9c0,0,3.5,1.5,6.6,6.3l7.3,3
									C120.9,342.7,122.6,343.4,124.2,344z"/>
								<path class="st280" d="M94.8,329.6c0,0,0.9-0.6,1.6-1.2c0.6-0.6,1-1.2,1-1.2l-1.6-1.7c0,0-0.9,0-1.7,0.8
									c-0.8,0.8-0.9,1.6-0.9,1.6L94.8,329.6z"/>
								<polygon class="st279" points="129.8,374.7 111.3,357.8 128.4,337.2 149.7,356.1 								"/>
								<polygon class="st273" points="134.1,380.5 114.8,362.6 133.5,339.3 156,359.6 								"/>
								
									<ellipse transform="matrix(0.6038 -0.7971 0.7971 0.6038 -238.373 233.9039)" class="st273" cx="116.1" cy="356.8" rx="1" ry="1"/>
							</g>
						</g>
					</g>
				</g>
				<g>
					<path class="st5" d="M525.8,277.3c-30.4,0-55,24.6-55,55c0,18.5,9.1,34.9,23.1,44.8l-6.7,21.8c1.5-2.1,14.2-13.8,19.2-15.1
						c6,2.3,12.5,3.5,19.3,3.5c30.4,0,55-24.6,55-55C580.9,302,556.2,277.3,525.8,277.3z"/>
					<g>
						<g>
							<path class="st281" d="M573.3,300.6h-68.6c-3.6,0-6.5,2.9-6.5,6.5v54.1c0,3.6,2.9,6.5,6.5,6.5h68.6c3.6,0,6.5-2.9,6.5-6.5
								v-54.1C579.7,303.5,576.8,300.6,573.3,300.6z"/>
							<path class="st282" d="M571.5,302.6h-65c-3.4,0-6.1,2.7-6.1,6.1v50.8c0,3.4,2.7,6.1,6.1,6.1h65c3.4,0,6.1-2.7,6.1-6.1v-50.8
								C577.6,305.3,574.9,302.6,571.5,302.6z"/>
							<rect x="507" y="308" class="st5" width="64" height="52.2"/>
						</g>
						<rect x="513.6" y="312.1" class="st283" width="25.6" height="0.4"/>
						<rect x="513.6" y="316.5" class="st283" width="25.6" height="0.4"/>
						<rect x="513.6" y="320.8" class="st283" width="25.6" height="0.4"/>
						<rect x="513.6" y="325.1" class="st283" width="25.6" height="0.4"/>
						<rect x="513.6" y="329.4" class="st283" width="25.6" height="0.4"/>
						<rect x="527" y="354" class="st283" width="25.6" height="1"/>
						<g>
							<g>
								<path class="st245" d="M521.3,351.5h3.4V341c-1.1,0.2-2.2,0.4-3.4,0.6V351.5z"/>
								<path class="st246" d="M525.9,351.5h3.4v-11.6c-1.1,0.3-2.2,0.6-3.4,0.8V351.5z"/>
								<path class="st284" d="M530.4,351.5h3.4v-12.9c-1.1,0.4-2.2,0.7-3.4,1V351.5z"/>
								<path class="st245" d="M535,351.5h3.4V337c-1.1,0.4-2.2,0.8-3.4,1.2V351.5z"/>
								<path class="st246" d="M539.6,351.5h3.4V335c-1.1,0.5-2.2,1-3.4,1.5V351.5z"/>
								<path class="st284" d="M544.2,351.5h3.4v-18.8c-1,0.6-2.2,1.2-3.4,1.8V351.5z"/>
								<path class="st245" d="M548.8,332v19.5h3.4v-21.6c-0.5,0.4-1.1,0.7-1.7,1.1C550,331.3,549.4,331.6,548.8,332z"/>
								<path class="st246" d="M553.4,351.5h3.4v-25c-1,0.8-2.1,1.6-3.4,2.5V351.5z"/>
							</g>
							<path class="st281" d="M561.1,326l-0.5-7.9l-7.5,1l2.8,2.4c-4.9,4.4-17.7,13.8-39.2,16.3l0.4,3.3c15.4-1.8,26.4-7,32.9-11.1
								c3.9-2.4,6.7-4.7,8.4-6.3L561.1,326z"/>
						</g>
					</g>
				</g>
			</g>
			<g>
				<g>
					<g>
						<path class="st235" d="M430.1,460.3H194.6V323.3c0-5.2,4.2-9.4,9.4-9.4h216.6c5.2,0,9.4,4.2,9.4,9.4V460.3z"/>
						
							<rect x="251.5" y="281.7" transform="matrix(-1.836970e-16 1 -1 -1.836970e-16 699.444 74.7166)" class="st236" width="121.7" height="210.7"/>
					</g>
					<path class="st236" d="M275.2,459.4h-85.8c-3.7,0-6.8,2.8-6.8,6.3v10.5c0,3.5,3,6.3,6.8,6.3h245.8c3.7,0,6.8-2.8,6.8-6.3v-10.5
						c0-3.5-3-6.3-6.8-6.3h-94H275.2z"/>
					<g>
						<path class="st285" d="M274,458.2h-85.8c-3.7,0-6.8,2.8-6.8,6.3V475c0,3.5,3,6.3,6.8,6.3h245.8c3.7,0,6.8-2.8,6.8-6.3v-10.5
							c0-3.5-3-6.3-6.8-6.3h-94H274z"/>
						<path class="st235" d="M340.1,458.2h-58.4c1,1.5,4.8,6.6,6.3,6.6h46.3c1.6,0,5.3-5.1,6.3-6.6H340.1z"/>
					</g>
				</g>
				<g>
					<path class="st286" d="M455.2,375.1h-31.6c-1.6-0.4-2.9-1.9-2.9-3.7c0-1.7,1.1-3.1,2.7-3.6h8.7c2.1,0,3.8-1.7,3.8-3.8
						c0-2.1-1.7-3.8-3.8-3.8h-11.2c-1.8-0.3-3.2-1.9-3.2-3.8c0-2,1.5-3.6,3.4-3.8h24.7c2.1,0,3.8-1.7,3.8-3.8s-1.7-3.8-3.8-3.8
						h-84.2c-2.1,0-3.8,1.7-3.8,3.8s1.7,3.8,3.8,3.8h13.3c1.9,0.2,3.4,1.8,3.4,3.8c0,1.9-1.4,3.5-3.2,3.8h-10.6
						c-2.1,0-3.8,1.7-3.8,3.8c0,2.1,1.7,3.8,3.8,3.8h23.9c1.5,0.5,2.7,1.9,2.7,3.6c0,1.8-1.2,3.3-2.9,3.7h-31.5
						c-2.1,0-3.8,1.7-3.8,3.8c0,2.1,1.7,3.8,3.8,3.8h98.5c2.1,0,3.8-1.7,3.8-3.8C459,376.8,457.3,375.1,455.2,375.1z"/>
					<path class="st286" d="M284.5,387.7h-38.1c-2-0.5-3.4-2.3-3.4-4.4c0-2,1.4-3.8,3.2-4.4h10.4c2.5,0,4.6-2.1,4.6-4.6
						c0-2.5-2.1-4.6-4.6-4.6H243c-2.2-0.4-3.9-2.2-3.9-4.5c0-2.4,1.8-4.3,4.1-4.6h29.8c2.5,0,4.6-2.1,4.6-4.6c0-2.5-2.1-4.6-4.6-4.6
						H171.7c-2.5,0-4.6,2.1-4.6,4.6c0,2.5,2.1,4.6,4.6,4.6h16c2.3,0.2,4.1,2.2,4.1,4.6c0,2.3-1.7,4.2-3.9,4.5h-12.8
						c-2.5,0-4.6,2.1-4.6,4.6c0,2.5,2.1,4.6,4.6,4.6h28.8c1.9,0.6,3.2,2.3,3.2,4.4c0,2.1-1.5,3.9-3.4,4.4h-37.9
						c-2.5,0-4.6,2.1-4.6,4.6c0,2.5,2.1,4.6,4.6,4.6h118.6c2.5,0,4.6-2.1,4.6-4.6C289.1,389.7,287,387.7,284.5,387.7z"/>
					<path class="st286" d="M185.7,415.4h12.8c1.8,0.2,3.3,1.8,3.3,3.6c0,1.8-1.3,3.3-3.1,3.6h-10.2c-2,0-3.7,1.6-3.7,3.7
						c0,2,1.6,3.7,3.7,3.7h37.8c2,0,3.7-1.6,3.7-3.7c0-2-1.6-3.7-3.7-3.7h-10.8c-1.7-0.3-3.1-1.8-3.1-3.6c0-1.9,1.5-3.5,3.3-3.6
						h23.8c2,0,3.7-1.6,3.7-3.7c0-2-1.6-3.7-3.7-3.7h-53.8c-2,0-3.7,1.6-3.7,3.7C182,413.8,183.7,415.4,185.7,415.4z"/>
					<path class="st286" d="M163.4,430.5h10.2c2,0,3.7-1.6,3.7-3.7c0-2-1.6-3.7-3.7-3.7h-10.2c-2,0-3.7,1.6-3.7,3.7
						C159.8,428.9,161.4,430.5,163.4,430.5z"/>
					<path class="st286" d="M147.4,415h20.1c2,0,3.7-1.6,3.7-3.7c0-2-1.6-3.7-3.7-3.7h-20.1c-2,0-3.7,1.6-3.7,3.7
						C143.7,413.3,145.4,415,147.4,415z"/>
					<g>
						<path class="st286" d="M417.9,411.1h-12.8c-1.8,0.2-3.3,1.8-3.3,3.6c0,1.8,1.3,3.3,3.1,3.6h10.2c2,0,3.7,1.6,3.7,3.7
							c0,2-1.6,3.7-3.7,3.7h-37.8c-2,0-3.7-1.6-3.7-3.7c0-2,1.6-3.7,3.7-3.7h10.8c1.7-0.3,3.1-1.8,3.1-3.6c0-1.9-1.5-3.5-3.3-3.6
							h-23.8c-2,0-3.7-1.6-3.7-3.7c0-2,1.6-3.7,3.7-3.7h53.8c2,0,3.7,1.6,3.7,3.7C421.6,409.4,420,411.1,417.9,411.1z"/>
						<path class="st286" d="M440.2,426.2H430c-2,0-3.7-1.6-3.7-3.7c0-2,1.6-3.7,3.7-3.7h10.2c2,0,3.7,1.6,3.7,3.7
							C443.9,424.5,442.2,426.2,440.2,426.2z"/>
						<path class="st286" d="M456.3,410.6h-20.1c-2,0-3.7-1.6-3.7-3.7c0-2,1.6-3.7,3.7-3.7h20.1c2,0,3.7,1.6,3.7,3.7
							C459.9,409,458.3,410.6,456.3,410.6z"/>
					</g>
				</g>
				<g>
					<path class="st287" d="M361.4,438.6h-95.8c-0.8,0-1.4,0.6-1.4,1.4l0,0c0,0.8,0.6,1.4,1.4,1.4h95.8c0.8,0,1.4-0.6,1.4-1.4l0,0
						C362.8,439.3,362.2,438.6,361.4,438.6z"/>
					<g>
						<g>
							<g>
								<path class="st288" d="M341.3,414.7c0,0.5-0.4,0.9-0.9,0.9h-3.2c-0.5,0-0.9-0.4-0.9-0.9v-0.8c0-0.5,0.4-0.9,0.9-0.9h3.2
									c0.5,0,0.9,0.4,0.9,0.9V414.7z"/>
								<g>
									<path class="st289" d="M313.3,421.6h-5.2l0,0l0,0c-3,0-5.5,4.2-5.5,9.3c0,0.7,0,1.3,0.1,2c0.5,4.1,2.6,7.2,5.2,7.4l0,0h5.4
										c2.6,0,4.8-3.2,5.3-7.4c0.1-0.6,0.1-1.3,0.1-2C318.8,425.8,316.4,421.6,313.3,421.6z"/>
									<path class="st290" d="M354.6,421.6h-5.2l0,0l0,0c-3,0-5.5,4.2-5.5,9.3c0,0.7,0,1.3,0.1,2c0.5,4.1,2.6,7.2,5.2,7.4l0,0h5.4
										c2.6,0,4.8-3.2,5.3-7.4c0.1-0.6,0.1-1.3,0.1-2C360,425.8,357.6,421.6,354.6,421.6z"/>
									<polygon class="st291" points="281.3,411.5 270.4,411.5 267.5,410.5 286,410.5 									"/>
									<path class="st292" d="M268.8,431.6c0,0.4,0.3,0.7,0.7,0.7h26.8c0.4,0,0.7-0.3,0.7-0.7v-11.4c0-0.4-0.3-0.7-0.7-0.7h-26.8
										c-0.4,0-0.7,0.3-0.7,0.7V431.6z"/>
									<path class="st293" d="M296.8,405.7c-4.3,0-4.6-0.7-7.1,0.2c-4,1.5-13.1,8.2-13.1,8.2l-3,4.7l30.4-1.2L296.8,405.7z"/>
									<path class="st293" d="M288.7,406.5c6.6-4.1,31.3-3.1,36.5-0.8l0,0c4.2,1.2,16,11.6,16,11.6l-51.7-2c0-0.3,0-0.7,0.1-1.3
										C286.8,412.8,283.5,409.7,288.7,406.5z"/>
									<path class="st294" d="M294.5,405.9c1.5-0.2,3.1-0.2,3.5-0.2c5.4,0,23.6,0,26.1,0c3.6,0,16.8,11.6,16.8,11.6l-54.3-1.2
										C277.9,416.1,286.6,407.3,294.5,405.9z"/>
									<path class="st295" d="M322.3,405.7c0.7,0,1.5,0,1.8,0c3.6,0,16.8,11.6,16.8,11.6l-1.1,0c-1.3-0.7-2.7-1.4-2.7-1.4
										C336,414.8,326.5,405.7,322.3,405.7z"/>
									<path class="st295" d="M294.5,405.9c1.5-0.2,3.1-0.2,3.5-0.2c3.5,0,18.1,0,24.6,0c-0.3,0-2,0-3.5,0.2
										c-7.9,1.4-16.6,10.2-7.9,10.2l29.2,0.8c0.3,0.3,0.5,0.4,0.5,0.4l-54.3-1.2C277.9,416.1,286.6,407.3,294.5,405.9z"/>
									<path class="st296" d="M308.4,407.9c0,0,2.7,6.2,2.7,7.2"/>
									<g>
										
											<linearGradient id="SVGID_22_" gradientUnits="userSpaceOnUse" x1="5801.6616" y1="397.5264" x2="5803.7139" y2="416.5345" gradientTransform="matrix(-1 0 0 1 6123.9258 0)">
											<stop  offset="0.2102" style="stop-color:#FFFFFF"/>
											<stop  offset="1" style="stop-color:#231F20"/>
										</linearGradient>
										<path class="st26" d="M338.3,415.5c-0.1-0.1-0.2-0.1-0.3-0.2c-2.4-1.4-9-4.8-18.6-4.8c-0.5,0-1.1,0-1.6,0l-0.2,0
											c-3.3,0.1-5.6,0.2-7.5,0.2c-3.8,0-5.1-0.4-6.2-1.7c-0.4-0.5-0.4-1-0.4-1.6c0-0.4,0.1-0.9-0.1-1.5H324
											C325.9,406,331.2,409.6,338.3,415.5z"/>
									</g>
									<path class="st298" d="M294.5,405.9c1.5-0.2,3.1-0.2,3.5-0.2c0.8,0,1.9,0,3.2,0c0.4,0.2,0.8,0.6,1,1.2
										c0.7,1.8,1.8,8.3,2.7,9.3v0.3h0l-7.6-0.2l-11.7-0.8c0,0-1.3-0.1-2.4-0.7C281.8,412.5,288.4,407,294.5,405.9z"/>
									<path class="st299" d="M289,407.9c0,0,11.9,0,15.4,0s0.9,1.9,0.9,1.9l-2.9,2.9c0,0-0.8,0.7-2.6,0.7s-16.1,0-16.1,0
										C283.9,411.7,285.7,409.7,289,407.9z"/>
									<g class="st300">
										
											<linearGradient id="SVGID_23_" gradientUnits="userSpaceOnUse" x1="5827.0581" y1="398.6746" x2="5830.1543" y2="412.1858" gradientTransform="matrix(-1 0 0 1 6123.9258 0)">
											<stop  offset="0" style="stop-color:#FFFFFF"/>
											<stop  offset="1" style="stop-color:#231F20"/>
										</linearGradient>
										<path class="st27" d="M302.8,412.4c-0.9-0.7-2.8-1.2-4.9-1.2l-0.1,0c-0.4,0-0.7,0-1.1,0c-1,0-2,0-3,0c-1,0-1.9,0-2.9,0
											c-3.2,0-4.9,0.1-5.8,0.4c0-0.1,0-0.1,0-0.2c2-2,5.7-4.4,9.6-5.1c1.1-0.1,2.5-0.2,3.1-0.2c2.5,0,3.6,1,4.3,3.7
											c0.2,0.7,0.4,1.4,0.6,2.1C302.6,412,302.7,412.2,302.8,412.4z"/>
									</g>
									<g>
										<path class="st302" d="M324.5,406.3c0.6,0,2.2,0.5,6.5,3.5c2.5,1.8,4.9,3.4,6.8,5c-0.7,0.1-15.6,0.1-20.4-0.1
											c-3.1-0.1-7-0.2-7-0.2l-2.8-0.1c-1.3,0-1.9-1.9-2.6-4c-0.1-0.3-0.2-0.6-0.3-0.9c-0.2-0.7-0.7-1.9-0.3-2.6
											c0,0,0.3-0.4,1.9-0.6c1-0.1,2.1-0.1,2.8-0.1c0.1,0,0.2,0,0.2,0h14.4H324.5z M324,405.7c-1.5,0-8.7,0-15.4,0
											c-1.1,0-4.8,0-5.4,1c-0.5,0.9,0,2.2,0.3,3.1c0.9,2.4,1.8,5.8,3.8,5.8c0,0,0,0,0,0l3.5,0.5c3,0,14.8-0.1,22.1-0.1
											c3.9,0,6.5-0.1,6-0.6C334.7,412.2,326.7,405.7,324,405.7L324,405.7z"/>
									</g>
									<path class="st288" d="M310.7,415.6c3.3,0.4,9.4-0.2,17.3,0.1c12.4,0.4,5.2-0.2,13.7-0.2s16.8,2.7,18.6,5.8l1,2.5
										c0.3,0.9,0.1,2.4,0.1,3.5l-2,4.5c0,1.1,0.2,1.7-0.5,1.7c0,0,0.4,0.3-0.6,0.3c-1,0-1.2-0.1-1.2-2.1c0-0.1,0-0.1,0-0.2
										c0,0,0-0.1,0-0.1c0-5.8-2.8-10.5-6.2-10.5c-3.4,0-6.2,4.7-6.2,10.5c0,0,0,0.1,0,0.1c0,0.1,0,0.1,0,0.2
										c0,1.6-0.2,2.1-1.1,2.1c-5.1,0-27.3,0-28.8,0c-1.6,0-1.5-0.5-1.5-1.4c0-0.3,0-0.5,0-0.8c0-3.6-1.1-6.7-2.7-8.7V415.6z"/>
									<path class="st292" d="M279.7,435.4c0,0.3,0.3,0.6,0.6,0.6h70.3c0.3,0,0.6-0.3,0.6-0.6v-13.9c0-0.3-0.3-0.6-0.6-0.6h-70.3
										c-0.3,0-0.6,0.3-0.6,0.6V435.4z"/>
									<path class="st289" d="M275.6,440.3h5.4c2.6,0,4.8-3.2,5.3-7.4c0.1-0.6,0.1-1.3,0.1-2c0-5.2-2.4-9.3-5.5-9.3h-5.2l-0.5,9.6
										L275.6,440.3L275.6,440.3z"/>
									<path class="st289" d="M316.6,440.3h5.4c2.6,0,4.8-3.2,5.3-7.4c0.1-0.6,0.1-1.3,0.1-2c0-5.2-2.4-9.3-5.5-9.3h-5.2l-0.5,9.6
										L316.6,440.3L316.6,440.3z"/>
									<g>
										<g class="st303">
											<g>
												<path class="st289" d="M346.9,433.5c0-0.3-0.1-0.7-0.1-1.1c0-2.8,1.3-5.1,3-5.1L346.9,433.5z"/>
												<path class="st289" d="M349.8,427.2c1.7,0,3,2.3,3,5.1c0,0.4,0,0.7-0.1,1.1L349.8,427.2z"/>
											</g>
										</g>
									</g>
									<path class="st304" d="M325.2,420.8l0.6,0v13.3h29.4h2.7c0.5,0,2.2-0.9,2.2-1.9l1.7-4.4c0-1.1-0.1-2.7-0.4-3.6l-1.2-3.2
										c-0.1-0.4-2.8-0.8-3-1.1h-2.6h-21.1h-8.2V420.8z"/>
									<path class="st304" d="M316.2,415.8c8.7,1.6,13.7,4.7,13.7,4.7c1.4,0.3,6.4,3,6.4,3l16.9-0.2l2.5-0.8
										c-8.7-6.8-17.6-6.8-23.8-6.8H316.2z"/>
									<path class="st288" d="M352.8,419.6c-0.2,0.2-1.6,0.1-1.6,0.1s0.6,0.3,1.1,0.6c1,0.6,1.9,2.2-1.1,2.2s2.3,1.3,2.3,1.3
										l1.5,0c0,0,4-3.3,3.7-3.5c-0.3-0.2-3.1-1.5-3-1.6C356.8,417.8,352.8,419.6,352.8,419.6z"/>
									<path class="st293" d="M336.3,423.6c0,0-8.2-8-25.6-8l-27.6,0.4l28.9,2.6l19.6,5H336.3z"/>
									<path class="st288" d="M274.5,414c-4.1,0-5.8,0.5-5.8,6.5v3.3c0,1.1,0,0.9,0,1.9v2.1h1.4c0.9-4.1,3.2-7,5.9-7
										c3.5,0,6.3,4.8,6.3,10.6c0,0.2,0,0.5,0,0.8c0,0.9-0.1,1.4,1.5,1.4c1.4,0,20.8,0,25.9,0c0.9,0,1.1-0.4,1.1-2.1
										c0-0.1,0-0.1,0-0.2c0,0,0-0.1,0-0.1c0-5.8,2.8-10.5,6.2-10.5c3.4,0,6.8,4.7,6.8,10.5c0,0,0.9,0.1,0.9,0.1
										c0,0.1-0.9,0.1-0.9,0.2c0,2,2.4,0.6,3.4,0.6s-1.9,1.4-1.9,1.4c0.8,0,2.4-1,2.4-2l-0.6-4.4c0-1.1-1-4.9-2.6-5.1l4.8,0.5
										c-1.8-3.1-12.9-5.9-21.5-5.9s-7.1-0.2-19.5-0.7s-11.5-2.3-11.5-2.3H274.5z"/>
									<path class="st305" d="M273.5,414c-2.1,0.1-3.4,0.4-4.1,1.9c0.7-1.4,5.8-1.1,6.4-0.9l-0.9-0.5L273.5,414z"/>
									<polygon class="st289" points="276.2,419.5 279.4,419.5 280.6,420.3 280.1,420.9 277,420.6 									"/>
									
										<linearGradient id="SVGID_24_" gradientUnits="userSpaceOnUse" x1="-233.3491" y1="423.3931" x2="-225.3293" y2="430.4466" gradientTransform="matrix(1 0 0 1 507.6596 0)">
										<stop  offset="0" style="stop-color:#F9543E"/>
										<stop  offset="0.2717" style="stop-color:#F14D3A"/>
										<stop  offset="0.682" style="stop-color:#DD392F"/>
										<stop  offset="0.7901" style="stop-color:#D6332B"/>
									</linearGradient>
									<path class="st28" d="M276,420.9c2.6,0,4.9,2.7,5.8,6.5c0.5-0.7,1.9-0.8,2.1-0.1c0.4,1.1,0.5-0.8,0.5-0.8s0.3-5.1-6.2-6.8
										c-6.5-1.8-8.7,5.8-8.7,8.2h0.5C271,423.8,273.3,420.9,276,420.9z"/>
									<defs>
										<filter id="Adobe_OpacityMaskFilter_1_" filterUnits="userSpaceOnUse" x="280.8" y="420.9" width="32.1" height="12.6">
											<feColorMatrix  type="matrix" values="1 0 0 0 0  0 1 0 0 0  0 0 1 0 0  0 0 0 1 0"/>
										</filter>
									</defs>
									<mask maskUnits="userSpaceOnUse" x="280.8" y="420.9" width="32.1" height="12.6" id="SVGID_25_">
										<g class="st307">
											
												<linearGradient id="SVGID_26_" gradientUnits="userSpaceOnUse" x1="5825.3511" y1="418.916" x2="5825.8672" y2="430.6413" gradientTransform="matrix(-1 0 0 1 6123.9258 0)">
												<stop  offset="0" style="stop-color:#FFFFFF"/>
												<stop  offset="7.416099e-02" style="stop-color:#F8F7F7"/>
												<stop  offset="0.1865" style="stop-color:#E3E3E3"/>
												<stop  offset="0.3231" style="stop-color:#C1C0C1"/>
												<stop  offset="0.4788" style="stop-color:#939191"/>
												<stop  offset="0.6481" style="stop-color:#585555"/>
												<stop  offset="0.7843" style="stop-color:#231F20"/>
											</linearGradient>
											<rect x="273.7" y="418.9" class="st32" width="49.1" height="15.3"/>
										</g>
									</mask>
									<path style="opacity:0.3;mask:url(#SVGID_25_);fill:#8C4C57;" d="M312.1,423.4c-6.8-0.7-31-2.4-31.2-2.4
										c0,0,1.6-0.9,3.3,2.9c1.7,3.8,0.3,6.7,3.4,8.3c3.1,1.6,21.4,1.3,21.4,1.3l1.2-0.8l0.7-5.4l0.6-1.9l1.4-1.7
										C312.8,423.7,313.5,423.5,312.1,423.4z"/>
									<path class="st293" d="M311.2,423.2c1.5-2.5,3.6-3.9,5.8-3.9c2.2,0,4.5,1.4,6.1,3.8c1.5,2.3,2.4,5.3,2.4,8.4h-1.7l0,0
										c0-5.8-3.4-10.5-6.8-10.5c-3.4,0-6.2,4.7-6.2,10.5h-1.7C309.1,428.4,309.9,425.4,311.2,423.2z"/>
									<path class="st310" d="M306.6,421.3c0,0.3-0.3,0.6-0.6,0.6h-1.4c-0.3,0-0.6-0.3-0.6-0.6v-0.7c0-0.3,0.3-0.6,0.6-0.6h1.4
										c0.3,0,0.6,0.3,0.6,0.6V421.3z"/>
									<path class="st289" d="M288.6,418.5c-0.1,0.4-0.8,0.8-1.5,0.7l-1.3-0.1c-0.7-0.1-1.1-0.5-1-0.9c0.1-0.4,0.8-0.8,1.5-0.7
										l1.3,0.1C288.2,417.6,288.7,418,288.6,418.5z"/>
									<g>
										<g>
											<g class="st303">
												<g>
													<path class="st291" d="M316.8,421.6c3,0,5.5,4.2,5.5,9.3c0,0.7,0,1.3-0.1,2c-0.5,4.2-2.7,7.4-5.3,7.4
														c-2.6,0-4.8-3.2-5.3-7.4c-0.1-0.6-0.1-1.3-0.1-2C311.3,425.8,313.8,421.6,316.8,421.6L316.8,421.6z"/>
												</g>
											</g>
										</g>
										<g>
											<g class="st303">
												<g>
													<path class="st311" d="M316.7,424.2c2.2,0,4,3,4,6.8c0,0.5,0,1-0.1,1.4c-0.4,3.1-2,5.4-3.9,5.4c-1.9,0-3.5-2.3-3.9-5.4
														c-0.1-0.5-0.1-0.9-0.1-1.4C312.8,427.2,314.5,424.2,316.7,424.2L316.7,424.2z"/>
												</g>
											</g>
										</g>
									</g>
									<g>
										<g>
											<g class="st303">
												<g>
													<path class="st291" d="M275.8,421.6c3,0,5.5,4.2,5.5,9.3c0,0.7,0,1.3-0.1,2c-0.5,4.2-2.7,7.4-5.3,7.4
														c-2.6,0-4.8-3.2-5.3-7.4c-0.1-0.6-0.1-1.3-0.1-2C270.4,425.8,272.8,421.6,275.8,421.6L275.8,421.6z"/>
												</g>
											</g>
										</g>
									</g>
									<polygon class="st304" points="323.9,437.4 323.9,431.5 361.8,427.8 360.5,437.4 									"/>
									<polygon class="st290" points="360.9,437.4 358.2,437.4 348.3,439.2 345.6,437.4 331.6,437.4 331.6,436.1 360.9,436.1 
																			"/>
									<path class="st312" d="M359.2,427.7c0.2-0.8-0.3-1.4-1.1-1.4h-25.9c-0.8,0-1.3,0.6-1.1,1.4l1.5,5.1
										c0.2,0.8,1.1,1.4,1.8,1.4H356c0.8,0,1.6-0.6,1.8-1.4L359.2,427.7z"/>
									<path class="st313" d="M335.2,424c-2.4-1.1-9.5-5.4-11.6-4.1c-2.1,1.3,0.5,3.6,3.2,4C329.5,424.3,335.2,424,335.2,424z"/>
									<path class="st314" d="M303.9,415.7c0,0-0.8,0.5-1.1,1.2c-0.3,0.7-1.1,3.4-1.3,5.6v10.1"/>
									<g>
										<path class="st289" d="M279.3,419.5c4.2,0,7.6,5.6,7.7,12.6c-2.1-0.4-2.4-1.4-2.7-2.5c-0.1-0.5-0.3-1.6-0.3-1.6
											c-0.1-0.9-0.3-1.4-0.5-1.8c-1.1-3.3-3-5.7-5.3-6.4C278.8,419.6,278.8,419.5,279.3,419.5z"/>
									</g>
									<path class="st304" d="M362.6,436.1c0-0.4-0.3-0.8-0.8-0.8h-34.5c-0.4,0-0.8,0.3-0.8,0.8v0.6c0,0.4,0.3,0.8,0.8,0.8h8.8
										c0.4,0,1.1-0.2,1.4-0.5l0.1-0.1c0.3-0.3,1-0.5,1.4-0.5h17.5c0.4,0,0.9,0.2,1.1,0.5c0.2,0.3,0.7,0.5,1.1,0.5h3.1
										c0.4,0,0.8-0.3,0.8-0.8V436.1z"/>
									<path class="st293" d="M300.9,415.7c-3.1,0-19.6,0.5-17.4-3c1.4-2.4-2.1,2-2.1,2l1.8,1.2l1.9,0.2l14.5,0.6l0.8-0.6
										L300.9,415.7z"/>
									<path class="st293" d="M297.6,404.8c0.5,0,0.9-0.1,1.4-0.1c0.1-0.4,0.6-0.8,1.1-0.5c0.2,0.1,0.3,0.2,0.5,0.3
										c0.9-0.1,1.6-0.1,1.8,0.1c0.1,0.1,0.2,0.3,0.2,0.6c1-0.9,2.5-1.1,3.8-1.1c0.9,0,3.2,1.6,2.3,1.6c-1.1,0-4.8,0-5.4,1
										c-0.5,0.9,0,2.2,0.3,3.1c0.9,2.4,1.8,5.8,3.8,5.8c0.9,0-2.9,1.2-3.2,0.3c-0.7-2.7-1.3-4.6-1.8-6.3c-0.8-3-2.2-3.9-4.7-3.9
										C293.9,405.7,295.6,405,297.6,404.8z"/>
									<path class="st304" d="M276.4,415.1c-1.9-1-3.2-1.9-4-3l-2.2-0.5l2.2,2.7c0,0,0.3,0,1.4,0.1c0.7,0.1,2,0.7,2,0.7H276.4z"/>
									<path class="st293" d="M284.7,430.6c2,2.4,8.2,2,11.1,2s10.2,0,11.5,0s1.7-0.1,1.8-1.1l1.7-0.4c0,0.1,0,0.3,0,0.4
										c0,0,0,0.1,0,0.1c0,0.1,0,0.1,0,0.2c0,1.6-0.2,2.1-1.1,2.1c-5.1,0-24.4,0-25.9,0c-1.6,0-1.5-0.5-1.5-1.4c0-0.3,0-0.5,0-0.8
										C283.5,430.3,284.7,430.6,284.7,430.6z"/>
									<polygon class="st289" points="353.5,424 336.7,424 333.8,421.7 353.3,421.7 									"/>
									<path class="st288" d="M275.8,415.1c-1.9-1-3.2-1.9-4-3l-2.2-0.5l2.2,2.7c0,0,0.3,0,1.4,0.1
										C274.5,414.6,275.8,415.1,275.8,415.1z"/>
									<path class="st304" d="M266.3,411.3c0.2,0.8,1,1.4,1.8,1.4h2.7c0.8,0,2-0.3,2.7-0.7l1-0.6c0.7-0.4,0.6-0.8-0.2-1l-7.1-1.1
										c-0.1,0-0.2,0-0.3,0H266v0.8l1,0.4L266.3,411.3z"/>
									<path class="st293" d="M273.3,410.4c0.8,0.1,0.9,0.6,0.2,1l-0.8,0.5c-0.7,0.4-2,0.8-2.9,0.8h-2.5c-0.9,0-1.7-0.7-1.9-1.5
										l-0.2-0.6c-0.2-0.8,0.3-1.4,1.1-1.3L273.3,410.4z"/>
									<path class="st315" d="M287.8,409c0,0-2.2,4.9-2.2,5.8"/>
									<g>
										<path class="st316" d="M297.7,406.3c2,0,3.3,0.6,4,3.4c0.2,0.7,0.4,1.4,0.6,2.1c0.3,1,0.6,2,0.9,3.2l-2.3,0
											c-0.1,0-0.3,0-0.4,0c-0.3,0-0.7,0-1.2,0c-0.6,0-1.3,0-2.1,0c-3.5,0-6.2-0.1-8.3-0.3c-4.1-0.4-4.8-1.2-4.9-1.4
											c0,0-0.1-0.1,0.1-0.4c0,0,0-0.1,0.1-0.1c0.8-1.2,2.3-2.6,4.2-3.8c2.1-1.3,4.3-2.2,6.3-2.6
											C295.7,406.4,297,406.3,297.7,406.3L297.7,406.3z M297.7,405.7c-0.6,0-2,0-3.2,0.2c-4.5,0.8-9.4,4.1-11,6.7
											c0,0,0,0.1-0.1,0.1c-1.7,2.8,7.9,3,13.7,3c1.4,0,2.5,0,3.3,0c0.2,0,0.3,0,0.4,0l3.1,0c-0.7-2.6-1.3-4.4-1.7-6.1
											C301.5,406.6,300.1,405.7,297.7,405.7L297.7,405.7z"/>
									</g>
									<path class="st317" d="M356.3,432.7l1.4-5.1c0.2-0.8-0.3-1.4-1.1-1.4h1.4c0.8,0,1.3,0.6,1.1,1.4l-1.4,5.1
										c-0.2,0.8-1,1.4-1.8,1.4h-1.4C355.3,434.1,356.1,433.5,356.3,432.7z"/>
									<path class="st302" d="M312.2,415.1c1.1,0.3,0.5,0.4,2.6,0.6s8.7,0.4,12.9,0.4s11.7-0.1,11-0.6h-5.3l-15.6-0.4H312.2z"/>
									<path class="st318" d="M335.2,424c-2.2-1-8.1-4.6-10.8-4.3c3.1,1,2.9,3.1,6.4,3.8C333.5,423.9,335.2,424,335.2,424z"/>
									<path class="st319" d="M325.2,420.6c-0.8-0.6-0.8-0.6-1.5-0.8c0,0,0,0,0,0c-1.7,1-0.4,2.7,1.6,3.5
										C328.3,424.4,326.1,421.3,325.2,420.6z"/>
									<path class="st318" d="M361.5,424c0-0.1,0-0.2-0.1-0.2l-1-2.5c-0.2-0.4-0.6-0.8-1-1.2c-2,1-3.5,3.1-4.4,3.9
										C355,424,358.8,424.2,361.5,424z"/>
									<path class="st320" d="M333.6,424.1c-1.1-1.2-4.5-3.1-7.3-4.2c-0.4-0.1-0.8-0.2-1.2-0.2c-0.4,0,4,0.9,5.6,4.4
										C331.7,424.1,332.6,424.1,333.6,424.1z"/>
									<path class="st288" d="M324.7,426.4c1.2,3.9,0.9,7.1,0.9,10.5l2.4,0.4c0,0,1-6.7-1.5-13L324.7,426.4z"/>
									<path class="st288" d="M323.8,437.4h5.3c0.4,0,0.7-0.3,0.7-0.7V436c0-0.4-0.3-0.7-0.7-0.7h-5.3V437.4z"/>
									<g>
										<path class="st321" d="M337.9,431.3c0,0.2,0.2,0.4,0.4,0.4h10c0.2,0,0.4-0.2,0.4-0.4v-2.6c0-0.2-0.2-0.4-0.4-0.4h-10
											c-0.2,0-0.4,0.2-0.4,0.4V431.3z"/>
										<path class="st322" d="M338.4,431.8h1.3v-3.5h-1.3c-0.2,0-0.4,0.2-0.4,0.4v2.6C337.9,431.6,338.1,431.8,338.4,431.8z"/>
									</g>
									<polygon class="st298" points="334.7,428.8 353.9,428.8 354.5,426.8 334.7,426.8 									"/>
									<path class="st314" d="M283.5,413.2c-0.5,1.1-1.9,4.7-1.9,8"/>
									<path class="st323" d="M288.8,417.9l-4.2-0.3L288.8,417.9z"/>
									<path class="st324" d="M317.9,424.5c1.6,0.8,2.8,3.4,2.8,6.5c0,0.5,0,1-0.1,1.4c-0.3,2.4-1.4,4.3-2.7,5.1
										c-1.4-0.7-2.4-2.6-2.7-5.1c-0.1-0.5-0.1-0.9-0.1-1.4C315.1,427.9,316.3,425.3,317.9,424.5z"/>
									<g>
										<path class="st289" d="M308.8,431.6c0,0-1.2,0-1.9,0s-1.3-0.8-1.3-1.9v-1.3c0-1,0.8-1.9,1.9-1.9h2c0,0-0.6,1.3-0.6,3.5
											C308.8,431.4,308.8,431.6,308.8,431.6z"/>
										<path class="st325" d="M309.4,428.1h-4.5H309.4z"/>
										<path class="st325" d="M308.9,430.2h-4H308.9z"/>
									</g>
								</g>
								<path class="st290" d="M318.7,425.9c0.2,0.1,1.5,1.5,1.5,4.8s-1.3,5.2-1.5,5.3c-1.1,0-2.2-2.1-2.4-4c0-0.4-0.1-0.7-0.1-1.1
									C316.3,428.6,317.3,425.9,318.7,425.9z"/>
								<line class="st326" x1="315.1" y1="430.9" x2="320.7" y2="430.9"/>
								<polyline class="st326" points="318.8,436.1 319.1,430.9 318.8,425.8 								"/>
								<polyline class="st326" points="316.8,427.5 319.1,430.9 316.8,434.5 								"/>
								<polyline class="st326" points="320.4,433.5 319.1,430.9 320.2,427.8 								"/>
								<g>
									<g class="st303">
										<g>
											<path class="st324" d="M318.9,429.1c0.6,0,1.1,0.8,1.1,1.9c0,0.1,0,0.3,0,0.4c-0.1,0.8-0.5,1.5-1.1,1.5
												c-0.5,0-1-0.6-1.1-1.5c0-0.1,0-0.3,0-0.4C317.8,429.9,318.3,429.1,318.9,429.1L318.9,429.1z"/>
										</g>
									</g>
								</g>
								<g>
									<g>
										<g class="st303">
											<g>
												<path class="st311" d="M275.7,424.1c2.2,0,4,3,4,6.8c0,0.5,0,1-0.1,1.4c-0.4,3.1-2,5.4-3.9,5.4c-1.9,0-3.5-2.3-3.9-5.4
													c-0.1-0.5-0.1-0.9-0.1-1.4C271.8,427.1,273.5,424.1,275.7,424.1L275.7,424.1z"/>
											</g>
										</g>
									</g>
									<path class="st324" d="M276.9,424.4c1.6,0.8,2.8,3.4,2.8,6.5c0,0.5,0,1-0.1,1.4c-0.3,2.4-1.4,4.3-2.7,5.1
										c-1.4-0.7-2.4-2.6-2.7-5.1c-0.1-0.5-0.1-0.9-0.1-1.4C274.1,427.8,275.2,425.2,276.9,424.4z"/>
									<path class="st290" d="M277.7,425.9c0.2,0.1,1.5,1.5,1.5,4.8s-1.3,5.2-1.5,5.3c-1.1,0-2.2-2.1-2.4-4c0-0.4-0.1-0.7-0.1-1.1
										C275.3,428.5,276.3,425.9,277.7,425.9z"/>
									<line class="st326" x1="274.1" y1="430.9" x2="279.7" y2="430.9"/>
									<polyline class="st326" points="277.8,436 278.1,430.9 277.8,425.7 									"/>
									<polyline class="st326" points="275.7,427.5 278.1,430.9 275.7,434.4 									"/>
									<polyline class="st326" points="279.4,433.4 278.1,430.9 279.2,427.8 									"/>
									<g>
										<g class="st303">
											<g>
												<path class="st324" d="M277.9,429c0.6,0,1.1,0.8,1.1,1.9c0,0.1,0,0.3,0,0.4c-0.1,0.8-0.5,1.5-1.1,1.5
													c-0.5,0-1-0.6-1.1-1.5c0-0.1,0-0.3,0-0.4C276.8,429.8,277.3,429,277.9,429L277.9,429z"/>
											</g>
										</g>
									</g>
									<g>
										<path class="st327" d="M318,432.2c-0.1,0-0.4-0.3-0.4-0.9c0-0.1,0-0.2,0-0.3c0-0.8,0.4-1.2,0.5-1.2c0.1,0,0.5,0.4,0.5,1.2
											c0,0.1,0,0.2,0,0.3C318.4,431.9,318.1,432.2,318,432.2z"/>
										<path class="st327" d="M277,432.1c-0.1,0-0.4-0.3-0.4-0.9c0-0.1,0-0.2,0-0.3c0-0.8,0.4-1.2,0.5-1.2c0.1,0,0.5,0.4,0.5,1.2
											c0,0.1,0,0.2,0,0.3C277.4,431.8,277.1,432.1,277,432.1z"/>
									</g>
								</g>
								<path class="st328" d="M302.4,416.1c-0.1,0.3-0.7,0.7-2.1,1s-4.2-0.4-4.2-0.4s1.4-0.8,5.2-0.8L302.4,416.1z"/>
								<path class="st288" d="M302.1,415.1l-2.2-0.6l-0.4,0.4c0,0,1.4,1.2,1.7,1.5C301.8,417,303.4,415.6,302.1,415.1z"/>
								<path class="st329" d="M300.2,415c0,0,0.5,0.5,0.9,0.6c0.4,0.1,1-0.3,0.8-0.6l0.3,0.1c1.3,0.4-0.3,1.9-0.9,1.3
									c-0.2-0.2-1.2-1.1-1.6-1.4H300.2z"/>
								<path class="st329" d="M294.6,414.3c0,0.5,0.4,0.9,0.9,0.9h4.6c0.5,0,0.9-0.4,0.9-0.9v-0.8c0-0.5-0.4-0.9-0.9-0.9h-4.6
									c-0.5,0-0.9,0.4-0.9,0.9V414.3z"/>
								<path class="st293" d="M296.4,413.2c0,0.2,0.2,0.4,0.5,0.4h3.4c0.3,0,0.5-0.2,0.5-0.4c0-0.2-0.2-0.4-0.5-0.4h-3.4
									C296.6,412.9,296.4,413,296.4,413.2z"/>
							</g>
						</g>
						<path class="st5" d="M360.8,424l-2.3-3.4c-0.6,0.4-1.1,0.8-1.6,1.3l2,2.2C359.5,424.1,360.2,424.1,360.8,424z"/>
					</g>
					<g>
						<path class="st330" d="M338.7,373.1c-7.3-0.9-9,5.2-17,7c0,0-10,0.3-8.4,3.3c0.4,0.8,1.7,1.4,2.7,1.6
							c-2.2,0.3-3.8,0.6-3.8,0.6c-11.6-6.3-14.1-3.1-14.1-3.1l14.5,6.7c0,0,18.9-0.6,19.3-0.6c0.4,0,6.2-8.5,6.2-8.5l37.3,13.5
							l2.6-9.3C378.1,384.2,340.9,373.3,338.7,373.1z"/>
						<path class="st331" d="M295.8,382.6c1.7-1.2,6.2-1.8,14.2,4.3c0,0,6.3-1,12.1,1.8c0,0,15.1-14.5,19.1-14.8
							s36.9,10.3,36.9,10.3l2.5,11.7l-10.8,2.3l-25-13.6c0,0-15.6,10.5-17.8,11.9c-2.8,1.9-11.8-4.1-17.6-5.1
							c-2-0.3-10.8-5.6-13.6-7.3C295.3,383.8,295.3,383,295.8,382.6z"/>
						<g>
							<polygon class="st5" points="346.2,393.2 352.3,376 381,384.5 384.6,397.8 368.8,401 							"/>
							<polygon class="st332" points="346.2,393.2 355.2,376.9 384.6,397.8 368.8,401 							"/>
							<polygon class="st333" points="348.7,395.5 355.5,376.1 384.6,385.5 384.6,401 384.6,410.2 							"/>
							<path class="st334" d="M354.6,393.5c0.1,0.7-0.4,1.4-1.1,1.6s-1.4-0.3-1.5-1s0.4-1.4,1.1-1.6
								C353.8,392.3,354.5,392.8,354.6,393.5z"/>
							<path class="st334" d="M358.7,395c0.1,0.7-0.4,1.4-1.1,1.6c-0.7,0.1-1.4-0.3-1.5-1c-0.1-0.7,0.4-1.4,1.1-1.6
								C357.9,393.8,358.6,394.3,358.7,395z"/>
						</g>
						<path class="st330" d="M291,344.9c0,0,12.1,4,17.3-2.2l6.9,0.8c0,0,4,10.3,8.1,9c1.8-0.5-0.4-2.6-5.2-11.7
							c0,0-6.6-4.9-17.2-5.3L291,344.9z"/>
						<path class="st331" d="M242.2,359.8l27.1-17.4c0.6-0.4,1.3-0.9,1.8-1.4c1.3-1.1,2.8-1.9,4.5-2.4c7.8-2.2,27.5-7.3,29.9-7.3
							c1.2,0,9.4,8.8,11.5,11.4c0.4,0.5,0.6,1,0.7,1.5c0.5,2.7,1.9,11.4,1.3,12c-0.8,0.7-4.3,1-6.6-11.4l-8.6-3.2l-2.6,3.9
							c0,0-9.4,8.9-21.4,3.6l-37.6,35.5V359.8z"/>
						<path class="st330" d="M270.1,341.9c0,0,3.6,5.7,9.3,7.7l-2.7,2.8l-7.6-9.5L270.1,341.9z"/>
						<polygon class="st5" points="282,358.5 270,341.8 245,358.8 245.4,377.4 259.9,375.4 						"/>
						<polygon class="st332" points="282,358.5 267.1,343.8 243.6,377.6 259.9,375.4 						"/>
						<polygon class="st335" points="280.4,361.7 266.9,342.9 242.2,358.6 242.2,390.6 						"/>
						
							<ellipse transform="matrix(0.9911 -0.133 0.133 0.9911 -45.6628 39.8481)" class="st336" cx="275.5" cy="361.7" rx="1" ry="1"/>
						
							<ellipse transform="matrix(0.9911 -0.133 0.133 0.9911 -45.9762 39.5078)" class="st336" cx="272.8" cy="363.9" rx="1" ry="1"/>
						<path class="st330" d="M301.9,345.8l-1.4-2.1c-0.1-0.1-0.1-0.6,0.3-0.4c0.9,0.4,0.8,1.7,2.9-1.4L301.9,345.8z"/>
						<g>
							<path class="st337" d="M319.7,359.3c0-0.8-0.2-1.6-0.6-2.3c-1.2-1.9-3.7-2.4-5.6-1.2s-2.4,3.7-1.2,5.6c0.9,1.3,2.4,2,3.9,1.8
								"/>
							<path class="st338" d="M311.9,364.5l-0.1,1.4c-0.1,1.6,1.1,3,2.8,3.3l1,0.1c1.6,0.2,3-0.9,3.1-2.5l0.1-1.4
								c0.1-1.6-1.1-3-2.8-3.3l-1.1-0.6C313.4,361.3,312,362.9,311.9,364.5z M315.6,362.7c1.1,0.1,1,1.5-0.1,1.4
								C314.4,363.9,314.5,362.6,315.6,362.7z"/>
							<polygon class="st339" points="316.9,366 316.5,372.7 317.4,372.8 317.2,373.4 316.4,373.8 316.4,374 317.3,374 317.1,374.6 
								316.4,375.1 316.4,375.2 317.2,375.3 317,375.8 316.5,376.2 316.3,376.7 314.6,378 313.1,376.3 313.6,368.6 314,368 							
								"/>
							<polygon class="st340" points="316.5,375.7 316.5,376.1 314.8,377.5 313.4,375.7 313.6,371.9 313.7,371 314,365 317.2,365.4 
								316.8,370.9 316.8,371.8 316.8,372.2 317.4,372.8 316.7,373.3 316.7,373.4 317.3,374.1 316.6,374.5 316.6,374.7 317.2,375.3 
															"/>
							<path class="st341" d="M316.8,371.8c-1.1,0.2-2.1,0.4-3.2,0.5l0.1-1c1.1-0.2,2.1-0.4,3.2-0.5L316.8,371.8z"/>
							<polygon class="st339" points="314.7,376.5 314.1,375.5 314.7,365.4 315.3,365.5 							"/>
							<path class="st342" d="M319.1,366.1l0.1-1.4c0.1-1.6-1.1-3-2.8-3.3l-1-0.1c-1.6-0.2-2.9,0.8-3.1,2.3c0,0.1,0,0.1,0,0.2
								l-0.1,1.4c0,0.8,0.2,1.5,0.7,2.1c0.5,0.6,1.2,1,2.1,1.1l1,0.1C317.6,368.8,319,367.7,319.1,366.1z M315.8,364
								c-1.1-0.1-1-1.8,0.1-1.6C317,362.5,316.9,364.1,315.8,364z"/>
							<path class="st343" d="M315.8,364.2c0.6,0.1,1-0.3,1.1-0.9c0-0.5-0.4-1.1-1-1.1"/>
							<path class="st344" d="M313.2,367.8c0.5,0.4,1.1,0.6,1.7,0.7l1,0.1c0.6,0.1,1.2,0,1.7-0.2"/>
							<path class="st343" d="M316,362.2c-0.6-0.1-1,0.3-1.1,0.9c0,0.5,0.4,1.1,1,1.1"/>
							<path class="st338" d="M315.2,364.7l0.3,1.3c0.3,1.6,1.9,2.6,3.5,2.4l1-0.1c1.6-0.2,3-1.8,2.7-3.7l-0.6-0.9
								c-0.3-1.6-1.9-2.6-3.5-2.4l-1.2-0.3C315.7,361.3,314.8,363.2,315.2,364.7z M318.2,362c1.1-0.2,1.4,1.2,0.3,1.3
								C317.4,363.5,317.1,362.2,318.2,362z"/>
							<polygon class="st339" points="320.5,364.7 321.9,371.3 322.8,371.2 322.7,371.8 322.1,372.4 322.2,372.5 323,372.4 323,373 
								322.4,373.6 322.4,373.8 323.3,373.6 323.2,374.2 322.8,374.6 322.7,375.2 321.5,377 319.6,375.7 318,368.1 318.2,367.4 
															"/>
							<polygon class="st340" points="322.8,374.2 322.8,374.6 321.6,376.4 319.7,375.1 318.9,371.3 318.7,370.4 317.5,364.5 
								320.6,364.1 321.7,369.5 321.9,370.4 322,370.7 322.8,371.2 322.2,371.8 322.3,371.9 323,372.4 322.5,373 322.5,373.2 
								323.3,373.6 							"/>
							<path class="st341" d="M321.9,370.4c-1,0.3-2,0.6-3,0.9l-0.2-0.9c1-0.3,2-0.6,3-0.9L321.9,370.4z"/>
							<polygon class="st339" points="321.2,375.5 320.3,374.6 318.2,364.7 318.8,364.6 							"/>
							<path class="st345" d="M322.7,364.3l-0.3-1.3c-0.3-1.6-1.9-2.6-3.5-2.4l-1,0.1c-1.6,0.2-2.6,1.6-2.4,3.1c0,0.1,0,0.1,0,0.2
								l0.3,1.3c0.2,0.8,0.6,1.4,1.3,1.8c0.6,0.5,1.5,0.7,2.3,0.6l1-0.1C321.9,367.3,323,365.8,322.7,364.3z M319.1,363
								c-1,0.4-1.7-1-0.8-1.4C319.3,361.1,320.1,362.5,319.1,363z"/>
							<path class="st343" d="M319,363.3c0.6-0.1,0.9-0.6,0.8-1.1s-0.7-0.9-1.2-0.8"/>
							<path class="st344" d="M317.4,367.4c0.6,0.2,1.2,0.3,1.9,0.2l1-0.1c0.6-0.1,1.2-0.3,1.6-0.6"/>
							<path class="st337" d="M317.7,362.5c1.2-0.3,2-2.1,2.1-3.3"/>
							<path class="st343" d="M318.5,361.3c-0.6,0.1-0.9,0.6-0.8,1.1c0.1,0.5,0.7,0.9,1.2,0.8"/>
						</g>
						<path class="st331" d="M277.4,348.7c0,0,7.1,2.6,15.4,3c4.7,0.2,9.3,1.4,13.5,3.2c1.1,0.5,2.1,0.9,2.9,1.3
							c3.8,1.7,6.2,4.9,7.8,2.1c1.6-2.8-4.2-6.7-9.2-8.5s-7.7-9.6-7.7-9.6L277.4,348.7z"/>
					</g>
				</g>
			</g>
		</g>
	</g>
</g>
</svg>
