<?xml version="1.0" encoding="utf-8"?>
<!-- Generator: Adobe Illustrator 21.1.0, SVG Export Plug-In . SVG Version: 6.00 Build 0)  -->
<svg version="1.1" id="Layer_1" xmlns="http://www.w3.org/2000/svg" xmlns:xlink="http://www.w3.org/1999/xlink" x="0px" y="0px"
	 viewBox="0 0 612 625" style="enable-background:new 0 0 612 625;" xml:space="preserve">
<style type="text/css">
	.st0{fill:#F0615A;}
	.st1{clip-path:url(#SVGID_2_);}
	.st2{fill:#303030;}
	.st3{fill:#9B9A9A;}
	.st4{fill:#F15D53;}
	.st5{fill:#EF3A30;}
	.st6{fill:#FFFFFF;}
	.st7{fill:#B3B3B4;}
	.st8{fill:#567CBE;}
	.st9{fill:#F05360;}
	.st10{fill:#FEE7C4;}
	.st11{fill:#323232;}
	.st12{fill:#606161;}
	.st13{fill:#474647;}
	.st14{fill:#78767C;}
	.st15{fill:#ECCAB1;}
	.st16{fill:#3C3B51;}
	.st17{fill:#F3F3F3;}
	.st18{fill:#B5B5B6;}
	.st19{fill:#151515;}
	.st20{fill:#D2AA92;}
	.st21{fill:#FEE2C9;}
	.st22{fill:#F7BC9C;}
	.st23{fill:#E7E7E7;}
	.st24{fill:#91421F;}
	.st25{fill:#742F16;}
	.st26{fill:#585A65;}
	.st27{fill:#CECECD;}
	.st28{fill:#F7941D;}
	.st29{fill:none;stroke:#F05360;stroke-width:2;stroke-miterlimit:10;}
	.st30{fill:none;stroke:#F05360;stroke-width:2;stroke-linecap:round;stroke-linejoin:round;}
	.st31{font-family:'Oswald-Bold';}
	.st32{font-size:7.4px;}
	.st33{fill:#FFF3D8;}
	.st34{fill:#D7D7D7;}
</style>
<title>id</title>
<g>
	<g id="Layer_1_1_">
		<path class="st0" d="M612,312.5c0,167.9-138.1,306-306,306S0,480.4,0,312.5s138.1-306,306-306c166.1,0,303.4,135.3,306,301.3"/>
		<g>
			<defs>
				<path id="SVGID_1_" d="M612,312.5c0,167.9-138.1,306-306,306S0,480.4,0,312.5s138.1-306,306-306c166.1,0,303.4,135.3,306,301.3"
					/>
			</defs>
			<clipPath id="SVGID_2_">
				<use xlink:href="#SVGID_1_"  style="overflow:visible;"/>
			</clipPath>
			<g class="st1">
				<path class="st2" d="M402,478.7c-34.8-5.2-51-31.1-51.6-32.2l6-3.7l-3,1.8l3-1.8c0.1,0.2,15.2,24.2,46.7,28.9L402,478.7z"/>
				<path class="st3" d="M426,482.7l-25.7-11.9l-14.4,25l18.1,59.2l36.9-18.8L426,482.7z M408,495.6c-3.2,1-6.5-0.7-7.5-3.9
					c0-0.1,0-0.1-0.1-0.2c-1-3.2,0.7-6.7,3.9-7.8c3.2-1,6.5,0.7,7.5,3.9c0,0.1,0,0.1,0,0.2C413,491,411.2,494.5,408,495.6z"/>
				<path class="st4" d="M427.9,476.8l-27.5-6l-8.9,27.6l29.7,53.9l36.4-21.6L427.9,476.8z M412.9,493.4c-2.8,1.7-6.4,0.7-8.1-2.1
					c0-0.1-0.1-0.2-0.1-0.2c-1.7-3-0.7-6.8,2.2-8.5c2.8-1.7,6.4-0.7,8.1,2.1c0,0.1,0.1,0.2,0.1,0.2
					C416.8,487.8,415.8,491.6,412.9,493.4L412.9,493.4z"/>
				<path class="st5" d="M400.4,470.8l-8.9,27.6l29.7,53.9l6.7-75.5L400.4,470.8z M412.9,493.4c-2.8,1.7-6.4,0.7-8.1-2.1
					c0-0.1-0.1-0.2-0.1-0.2c-1.7-3-0.7-6.8,2.2-8.5c2.8-1.7,6.4-0.7,8.1,2.1c0,0.1,0.1,0.2,0.1,0.2
					C416.7,487.8,415.8,491.6,412.9,493.4L412.9,493.4z"/>
				<path class="st6" d="M433.8,532.3l-1.9-3.3c-2.4,1.3-4.5,1.5-6.4,0.8s-3.7-2.5-5.5-5.3l4.6-3.8c0.7,1.3,1.6,2.5,2.7,3.4
					c0.7,0.5,1.6,0.6,2.4,0.1c1-0.6,1.1-1.6,0.4-2.9c-0.4-0.7-0.9-1.3-1.5-1.8c-0.6-0.4-1.2-0.8-1.9-1c-0.8-0.3-1.6-0.5-2.5-0.6
					l-3.5-0.7c-0.7-0.1-1.5-0.3-2.2-0.5c-0.7-0.2-1.3-0.5-2-0.8c-0.7-0.4-1.3-0.9-1.9-1.5c-0.6-0.7-1.1-1.4-1.6-2.2
					c-1.1-1.8-1.5-4.1-1-6.2c0.6-2.1,1.9-3.9,3.6-5.1l-1.8-3.1l1.7-1l1.8,3.1c0.7-0.4,1.4-0.6,2.1-0.8c0.6-0.1,1.2-0.2,1.9-0.1
					c0.6,0.1,1.1,0.2,1.6,0.5c0.5,0.2,1,0.5,1.4,0.9c0.4,0.4,0.8,0.8,1.2,1.2c0.4,0.4,0.7,0.8,1,1.3c0.3,0.4,0.6,0.8,0.9,1.3
					l-4.7,3.8c-0.3-0.5-0.5-0.8-0.7-1.1s-0.4-0.6-0.6-0.9c-0.2-0.3-0.4-0.5-0.6-0.7c-0.2-0.2-0.4-0.3-0.6-0.4
					c-0.2-0.1-0.5-0.1-0.7-0.1c-0.3,0-0.5,0.1-0.7,0.3c-0.5,0.3-0.8,0.8-0.8,1.4c0,0.6,0.1,1.2,0.4,1.7c0.3,0.5,0.6,0.9,1,1.3
					c0.4,0.4,0.8,0.7,1.3,0.8c0.4,0.2,0.8,0.3,1.3,0.5c0.3,0.1,0.8,0.2,1.5,0.3l3.4,0.7c0.9,0.2,1.7,0.4,2.5,0.7
					c0.8,0.3,1.6,0.6,2.3,1c0.8,0.4,1.5,1,2.2,1.7c0.7,0.7,1.3,1.5,1.8,2.4c1,1.7,1.4,3.7,1,5.7c-0.4,2-1.5,3.7-3.1,4.9l1.9,3.3
					L433.8,532.3z"/>
				<path class="st7" d="M491.2,143.2c-28.3-4.8-53.3,3.8-58.1,32c-1.7,9.9-0.3,18.5,3.5,25.7l-26.7,21.5l42.3-5.4
					c7.6,4.5,16,7.5,24.8,8.9c28.3,4.8,53.5-4.9,58.3-33.1S519.4,148,491.2,143.2z"/>
				<path class="st6" d="M476.7,130.6c-28.7,0-51.9,12.7-51.9,41.3c0,10,2.9,18.3,7.8,24.7l-22.7,25.7l40.8-12.5
					c8.3,3.2,17.1,4.7,26,4.6c28.7,0,51.9-13.8,51.9-42.4S505.3,130.6,476.7,130.6z"/>
				<path d="M481.1,170.1l2.6-3.7l-0.9-1.1l-9.6,5.9v-4.6c-2.4,2.2-2.6,5.8-6.3,6.7l0.6-4c-7.2,6.1-11.1,12.9-8.2,22.4l-0.8,0.2
					c-0.6-0.7-1.4-1.3-1.7-2.1c-0.7-2-1.1-4.2-1.9-6.3c-1.1-3.2-2.5-6.1-1.9-9.8c0.4-2.4-0.5-5-0.8-7.6l-2.6,0.7
					c-0.4-4.8,1.1-9.6,4.1-13.3c4.3-5.2,10-8.9,16.5-10.6c4.3-1.1,8.8-0.7,12.8,1.1c2.2,0.9,3.9,1.2,5.7-0.7l1.3,2.4l1.9-0.8
					c1.6,0.8,3.3,1.5,5,2c4.2,0.9,7.8,2.5,9.3,7.1h-4.6c1.1,2.9,1.9,5.5,3,8.1c1.2,3.1,2.7,6.1,3.8,9.2c0.2,1.1,0,2.3-0.5,3.3
					c-0.7,1.3-1.6,2.6-2.6,3.7c-3.7,4.8-4.7,10.2-4.2,16.2l-0.9,0.2c-0.6-1-1-2-1.3-3.1c-0.7-6.2-1.2-12.5-1.8-18.7
					c0-1-0.2-2.1-0.6-3.1c-0.5-1-1.3-1.8-2.3-2.3c-1-0.2-2,0.1-2.8,0.7C488.7,170.8,484.6,171.6,481.1,170.1z"/>
				<path class="st7" d="M478.9,380.7c-15.3-3.5-29.9-2.8-41,3.1l-24.3-17.2l12,28c-3.1,4.5-5.3,9.7-6.4,15.1
					c-6.3,28,13.3,46.5,41.3,52.8s53.6-2.1,59.9-30S506.9,387,478.9,380.7z"/>
				<path class="st6" d="M480.4,366c-15.7,0-29.8,3.8-39.3,12l-27.5-11.4l17.9,24.6c-2,5.1-3.1,10.6-3,16.1
					c0,28.7,23.2,42.5,51.9,42.5s51.9-13.8,51.9-42.5S509.1,366,480.4,366z"/>
				<path class="st8" d="M446,402.2c-0.8,0-1.5-0.7-1.5-1.5c0-0.2,0-0.3,0.1-0.5l6.5-16.6c0.3-0.8,1.1-1.2,1.9-1
					c0.8,0.3,1.2,1.1,1,1.9c0,0.1,0,0.1-0.1,0.2l-6.5,16.6C447.2,401.9,446.6,402.2,446,402.2z"/>
				<path class="st8" d="M452.5,402.2c-0.8,0-1.5-0.7-1.5-1.5c0-0.2,0-0.3,0.1-0.5l6.5-16.6c0.3-0.8,1.1-1.2,1.9-1
					c0.8,0.3,1.2,1.1,1,1.9c0,0.1,0,0.1-0.1,0.2l-6.5,16.6C453.6,401.9,453.1,402.2,452.5,402.2z"/>
				<path class="st8" d="M463.5,390.7h-19c-0.8,0-1.5-0.7-1.5-1.5s0.7-1.5,1.5-1.5l0,0h19c0.8,0,1.5,0.7,1.5,1.5
					S464.3,390.7,463.5,390.7z"/>
				<path class="st8" d="M460.2,397h-19c-0.8,0-1.5-0.7-1.5-1.5s0.7-1.5,1.5-1.5l0,0h19c0.8,0,1.5,0.7,1.5,1.5S461,397,460.2,397z"
					/>
				<path class="st9" d="M493.9,404.1l-9.2-16.9l-9.2,16.9h-10.3c-2.8,0.1-5.1,2.3-5,5.1v19.9c0,2.8,2.3,5.2,5.1,5.2c0,0,0,0,0,0
					l39-0.1c2.8,0,5.1-2.3,5.1-5.2v-19.8c0-2.8-2.3-5.1-5.1-5.1H493.9z"/>
				<path class="st6" d="M486.8,418.8h-0.2c2.6-1.1,3.8-4.2,2.7-6.8c-1.1-2.6-4.2-3.8-6.8-2.7s-3.8,4.2-2.7,6.8
					c0.5,1.2,1.5,2.1,2.7,2.7c-2.7,0.1-4.8,2.3-4.8,5v5.8h14.1v-5.8C491.8,421.1,489.6,418.8,486.8,418.8z"/>
				<path class="st7" d="M201.4,208.2L175.3,186c4-7.1,5.6-15.6,4.2-25.6c-4.1-28.4-28.9-37.6-57.2-33.5s-49.6,19.9-45.5,48.3
					s29,38.7,57.4,34.6c8.8-1.1,17.3-3.9,25.1-8.2L201.4,208.2z"/>
				<path class="st6" d="M201.4,208.2l-22.7-25.7c4.9-6.4,7.8-14.6,7.8-24.7c0-28.7-23.2-41.3-51.9-41.3s-51.9,12.7-51.9,41.4
					s23.2,42.5,51.9,42.5c8.9,0.1,17.7-1.4,26-4.6L201.4,208.2z"/>
				<path d="M96,148.7c0.8,1,1.5,2,2.3,3.1c1,1.4,2.5,2.4,4.1,2.7c1.6,0.5,3.3,0.8,4.9,1.1c4.1,0.5,8.3-0.5,11.8-2.6
					c1.9-1.3,3.9-2.4,6-3.4c3.6-1.6,7.8-1.3,11.1,0.9c0.4,0.2,0.9,0.2,1.4,0.1c1-0.3,1.9-0.7,2.8-1.2c2.6-1.4,5.8-1.1,8.1,0.8
					c2.5,2,5.3,3.7,8.2,5c3.1,1.3,6.5,1.7,9.9,1.3c1.1-0.1,2.1-0.4,3.1-0.8c1-0.4,1.7-1.2,2-2.2c0.5-1,1.2-2,1.9-2.8
					c0.4-0.6,0.9-1.1,1.4-1.5c-0.3,1.5-0.7,3.1-1.2,4.6c-0.9,2.4-2,4.8-3,7.2c-2.4,5.9-8.6,9.3-14.8,8.3c-2.5-0.4-5.1-1-7.5-1.8
					c-3.1-1-5.9-2.6-8.3-4.8c-0.8-0.8-1.8-1.4-2.9-1.9c-0.4-0.2-1.1,0.1-1.6,0.4s-1,0.6-1.5,0.9c-0.9,0.5-1.9,1-2.8,1.4
					c-1,0.5-2.1,1-3.1,1.5c-3.4,1.3-6.9,2.5-10.4,3.6c-3.9,1.4-8.3,0.9-11.8-1.5c-3.4-2.2-6-5.4-7.6-9.1c-0.4-0.8-0.5-1.8-0.8-2.7
					c-0.6-1.6-1.2-3.3-1.8-4.9c-0.2-0.5-0.3-1-0.4-1.4L96,148.7z"/>
				<path class="st7" d="M180.1,334.3l-22.8,15.4c-10.1-5.6-23.5-6.5-37.8-3.6c-25.9,5.3-44.6,21-39.3,46.9s28.8,34.1,54.7,28.8
					s44.4-22,39.1-47.9c-1-5-2.9-9.7-5.7-14L180.1,334.3z"/>
				<path class="st6" d="M180.1,334.3l-25.4,10.5c-8.8-7.5-21.8-11.1-36.3-11.1c-26.4,0-47.9,11.7-47.9,38.1S92,411,118.4,411
					s47.9-12.7,47.9-39.2c0.1-5.1-0.9-10.1-2.8-14.9L180.1,334.3z"/>
				<path d="M91,351c2.8,8.9,6.2,17.1,12.8,23.9c10.4-6.8,20.7-7.1,31.4,0c6.7-6.5,10-15,12.7-23.9c0,5.7,0.3,11.4-0.1,17
					c-0.4,5.1-2.8,9.8-6.5,13.3c-4.5,4.4-9,8.8-13.6,13.1c-5,4.7-11.4,4.7-16.3,0.1c-4.6-4.3-9.1-8.7-13.6-13.1
					c-4.5-4.4-7-10.4-6.8-16.6C91,360.1,91,355.5,91,351z M109.1,378.6c6,4.7,16.1,4.6,20.8-0.2C123.9,373.9,114.2,374,109.1,378.6
					L109.1,378.6z"/>
				<polygon class="st10" points="122,571.5 215,420.9 292.9,448.4 215.6,615.5 				"/>
				<path class="st10" d="M189.3,462.6c17.2,4.7,55,12.4,88.5-8.2l2-5L215,420.9l0,0L189.3,462.6z"/>
				<path class="st11" d="M243.3,189.9H356c9.1,0,16.4,7.4,16.4,16.4v245.2c0,9.1-7.4,16.4-16.4,16.4H243.3
					c-9.1,0-16.4-7.4-16.4-16.4V206.3C226.9,197.2,234.2,189.9,243.3,189.9z"/>
				<path class="st12" d="M256.1,189.9h112.8c9.1,0,16.4,7.4,16.4,16.4v245.2c0,9.1-7.4,16.4-16.4,16.4H256.1
					c-9.1,0-16.4-7.4-16.4-16.4V206.4C239.7,197.3,247,189.9,256.1,189.9z"/>
				<path class="st13" d="M256.1,202.7h112.8c2,0,3.6,1.6,3.6,3.6v224.8c0,2-1.6,3.6-3.6,3.6H256.1c-2,0-3.6-1.6-3.6-3.6V206.4
					C252.5,204.3,254.1,202.7,256.1,202.7z"/>
				<rect x="252.5" y="226.1" class="st8" width="120" height="141"/>
				<circle class="st14" cx="312.5" cy="450.5" r="11.2"/>
				<path class="st13" d="M320.4,442.7c-4.3-4.4-11.3-4.5-15.8-0.2c-4.3,4.2-4.5,10.9-0.6,15.4C309.3,452.7,316.2,446.4,320.4,442.7
					z"/>
				<path class="st15" d="M345.6,355.2c-4.6-13.5-17.2-22.6-31.5-22.7h-3.3c-14.2,0.1-26.9,9.2-31.5,22.7c-1.6,4.6,0.7,9.6,5.3,11.3
					c0.9,0.3,1.9,0.5,2.8,0.5h49.9c4.9-0.1,8.7-4.1,8.6-9C346,357.1,345.9,356.1,345.6,355.2z"/>
				<path class="st16" d="M314.1,332.5h-3.3c-18.5,0-33.5,15.5-33.5,34.5h70.2C347.6,348,332.6,332.5,314.1,332.5z"/>
				<path class="st17" d="M314.1,332.5h-3.3c-4.7,0-9.3,1-13.6,3l9.6,31.5H318l9.6-31.5C323.4,333.5,318.8,332.5,314.1,332.5z"/>
				<path class="st18" d="M279.4,355.2c-0.3,0.7-0.4,1.5-0.5,2.3c13.3-14,33.5-12,33.5-12l-1.3-13h-0.3
					C296.6,332.6,284,341.8,279.4,355.2z"/>
				<path class="st19" d="M312.5,261.8L312.5,261.8c-9.5,0-24.7,4.8-24.5,20.6s9.2,23.6,9.2,23.6l15.3-1.2l15.3,1.2
					c0,0,9-7.8,9.2-23.6S322,261.8,312.5,261.8z"/>
				<path class="st15" d="M312.4,345.5L312.4,345.5c-4.6,0-8.3-3.7-8.3-8.3c0,0,0,0,0,0v-25.8h16.5v25.9
					C320.7,341.8,317,345.5,312.4,345.5z"/>
				<path class="st18" d="M304.2,333.5c5.2,2.4,11.3,2.4,16.5,0v-22.1h-16.5V333.5z"/>
				<path class="st15" d="M294.1,293.3c-3.5,0.1-6.2,2.9-6.2,6.4v3c0,3.4,2.8,6.2,6.2,6.2c3.4,0,6.2-2.8,6.2-6.2c0,0,0,0,0,0v-3
					C300.4,296.2,297.6,293.4,294.1,293.3z"/>
				<path class="st20" d="M294.1,297.4c-1.7,0-3,1.3-3,3c0,0,0,0.1,0,0.1v1.5c0,1.7,1.3,3,3,3s3-1.3,3-3v-1.4
					c0.1-1.7-1.2-3.1-2.9-3.1C294.2,297.4,294.2,297.4,294.1,297.4z"/>
				<path class="st15" d="M330.8,293.3c3.5,0.1,6.2,2.9,6.2,6.4v3c0,3.4-2.8,6.2-6.2,6.2c-3.4,0-6.2-2.8-6.2-6.2c0,0,0,0,0,0v-3
					C324.5,296.2,327.3,293.4,330.8,293.3z"/>
				<path class="st20" d="M330.8,297.4c1.7,0,3,1.3,3,3c0,0,0,0.1,0,0.1v1.5c0,1.7-1.3,3-3,3s-3-1.3-3-3v-1.4
					c-0.1-1.7,1.2-3.1,2.9-3.1C330.7,297.4,330.7,297.4,330.8,297.4z"/>
				<path class="st21" d="M331.2,309.5l-1.6-20.2c-0.5-6.2-6-11.1-12.7-11.1h-9c-6.7,0-12.2,4.8-12.7,11.1l-1.5,20.2
					c-0.9,11.6,7.5,22,18.8,22S332.1,321.2,331.2,309.5z"/>
				<path class="st22" d="M315.1,301.7c-0.1-1.5-1.4-2.6-2.9-2.4c-1.3,0.1-2.3,1.1-2.4,2.4l-1,9.9c-0.2,1.5,0.9,2.9,2.4,3
					c0.1,0,0.2,0,0.3,0h2c1.5,0,2.7-1.3,2.7-2.8c0-0.1,0-0.2,0-0.3L315.1,301.7z"/>
				<path class="st23" d="M316.3,318.7c-2.6,0.5-5.2,0.5-7.7,0c-0.8-0.1-1.6,0.4-1.8,1.2c-0.2,0.8,0.4,1.6,1.2,1.8c0,0,0.1,0,0.1,0
					c2.9,0.5,5.8,0.5,8.7,0c0.8-0.1,1.4-0.9,1.3-1.7c0,0,0-0.1,0-0.1C317.9,319,317.1,318.5,316.3,318.7z"/>
				<path class="st22" d="M318.3,317.2c-3.8,0.8-7.8,0.8-11.7,0c-0.8-0.2-1.6,0.4-1.8,1.2s0.4,1.6,1.2,1.8c4.2,0.8,8.5,0.8,12.8,0
					c0.8-0.2,1.4-0.9,1.2-1.8S319.1,317,318.3,317.2L318.3,317.2z"/>
				<path class="st24" d="M318,298.6c0-1.7,1.3-3,3-3s3,1.3,3,3H318z"/>
				<path class="st24" d="M300.9,298.6c0-1.7,1.3-3,3-3s3,1.3,3,3H300.9z"/>
				<path class="st25" d="M324.1,289.9c-2.2-0.5-4.6-0.5-6.8,0c-0.7,0.1-1.1,0.7-1,1.4c0,0,0,0.1,0,0.1c0.2,0.6,0.9,1,1.5,0.8
					c1.9-0.4,3.9-0.4,5.8,0c0.6,0.1,1.3-0.2,1.5-0.8C325.2,290.7,324.8,290,324.1,289.9C324.2,289.9,324.1,289.9,324.1,289.9z"/>
				<path class="st25" d="M307.3,289.9c-2.2-0.5-4.6-0.5-6.8,0c-0.7,0.1-1.1,0.7-1,1.4c0,0,0,0.1,0,0.1c0.2,0.6,0.9,1,1.5,0.8
					c1.9-0.4,3.9-0.4,5.8,0c0.6,0.1,1.3-0.2,1.5-0.8C308.4,290.7,308.1,290,307.3,289.9C307.4,289.9,307.3,289.9,307.3,289.9z"/>
				<polygon class="st6" points="304.2,333.5 312.4,342 306.5,348 297.2,335.3 304.2,330.5 				"/>
				<polygon class="st6" points="320.7,333.5 312.4,342 318.4,348 327.7,335.3 320.7,330.5 				"/>
				<polygon class="st26" points="312.4,342 308,346.4 312.4,350.4 316.9,346.4 				"/>
				<polygon class="st26" points="314.6,346.2 312.4,345.5 310.3,346.2 306.9,367 312.4,367 318,367 				"/>
				<rect x="322.6" y="357.6" class="st27" width="13.4" height="3.2"/>
				<ellipse class="st19" cx="312.5" cy="279.7" rx="11.5" ry="7.1"/>
				<path class="st6" d="M368.9,202.7H256.1c-2,0-3.6,1.6-2.5,5.3v19.7l118.9-1.7v-19.7C372.5,204.3,370.9,202.7,368.9,202.7
					L368.9,202.7z"/>
				<path class="st6" d="M252.5,431.1c0,2,1.6,3.6,3.6,3.6h112.8c2,0,3.6-1.6,3.6-3.6l0,0V367h-120L252.5,431.1z"/>
				<rect x="252.5" y="367" class="st17" width="120" height="23"/>
				<circle class="st28" cx="266.3" cy="214.4" r="7.9"/>
				<rect x="278.7" y="212" class="st3" width="61" height="6.9"/>
				<path class="st29" d="M274.8,375.8c-0.1-2.3-2.1-4-4.4-3.9c-1.1,0.1-2.1,0.6-2.8,1.4c-1.4-1.8-4-2.2-5.9-0.8
					c-1.8,1.4-2.2,4-0.8,5.9l0,0c0.1,0.2,0.3,0.4,0.5,0.5l5.2,6.1c0.3,0.4,0.9,0.4,1.2,0.1c0,0,0,0,0.1-0.1l5.5-5.8
					c0.2-0.2,0.3-0.3,0.5-0.5l0,0C274.5,377.9,274.9,376.9,274.8,375.8z"/>
				<path class="st30" d="M296.2,385.3l-3-4.7c1.1-3.6-0.9-7.4-4.4-8.5c-3.6-1.1-7.4,0.9-8.5,4.4c-1.1,3.6,0.9,7.4,4.4,8.5
					c2.3,0.7,4.8,0.2,6.6-1.4L296.2,385.3z"/>
				<text transform="matrix(1 0 0 1 257.3 399.72)" class="st11 st31 st32">1000 li</text>
				<text transform="matrix(1 0 0 1 278.47 399.72)" class="st11 st31 st32">k</text>
				<text transform="matrix(1 0 0 1 282.24 399.72)" class="st11 st31 st32">es</text>
				<text transform="matrix(1 0 0 1 257.3 409.05)" class="st11 st31 st32">Influencer_</text>
				<rect x="294.1" y="403.4" class="st3" width="68.7" height="5.6"/>
				<rect x="294.1" y="415.2" class="st3" width="68.7" height="5.6"/>
				<path class="st6" d="M267.8,354.6l-2.3-4.2l-2.3,4.2h-2.6c-0.7,0-1.3,0.6-1.3,1.3v5c0,0.7,0.6,1.3,1.3,1.3c0,0,0,0,0,0h9.8
					c0.7,0,1.3-0.6,1.3-1.3c0,0,0,0,0,0v-5c0-0.7-0.6-1.3-1.3-1.3c0,0,0,0,0,0H267.8z"/>
				<path class="st3" d="M372.2,271l7.6,5.5v112c-3.5,0.2-6.9-0.8-9.7-2.8l-8.2-6.7c-6.8-4.8-8.3-14.2-3.5-21c2.1-3,5.3-5.1,8.8-5.9
					l-7.8-5.6c-6.8-4.8-8.4-14.1-3.6-20.9c0.7-1,1.6-1.9,2.5-2.7c-6.3-5.4-7-14.8-1.7-21.1c0.9-1,1.8-1.9,2.9-2.6l-5-3.6
					c-6.7-5-8-14.4-3.1-21.1C356.5,267.9,365.6,266.4,372.2,271L372.2,271z"/>
				<path class="st10" d="M356.3,266.1c4.8-6.8,14.2-8.3,21-3.5l22.7,16.3c6.7,5,8,14.4,3.1,21.1c-4.8,6.5-13.9,8-20.6,3.4
					l-22.7-16.3C353,282.3,351.4,272.9,356.3,266.1C356.3,266.1,356.3,266.1,356.3,266.1z"/>
				<path class="st10" d="M361.1,294.3c4.8-6.8,14.2-8.3,21-3.5l22.7,16.3c6.9,4.7,8.6,14.1,3.9,20.9s-14.1,8.6-20.9,3.9
					c-0.2-0.1-0.3-0.2-0.5-0.4l-22.7-16.3C357.8,310.5,356.3,301.1,361.1,294.3z"/>
				<path class="st10" d="M361.1,317.1c4.8-6.8,14.2-8.3,21-3.5l22.7,16.3c6.9,4.7,8.6,14.1,3.9,20.9s-14.1,8.6-20.9,3.9
					c-0.2-0.1-0.3-0.2-0.5-0.4l-22.7-16.3C357.8,333.3,356.3,323.9,361.1,317.1z"/>
				<path class="st10" d="M363.5,349.6c4.8-6.8,14.2-8.3,21-3.5l8.2,6.7c6.7,5,8,14.4,3.1,21.1c-4.8,6.5-13.9,8-20.6,3.4l-8.2-6.7
					C360.3,365.7,358.7,356.3,363.5,349.6z"/>
				<path class="st3" d="M224.9,328.5l14.8-20.9c1.8-2.7,5.4-3.5,8.2-1.7c0.4,0.3,0.8,0.6,1.1,0.9l0,0c13,13,15,36,4.4,51l-28.4,38
					V328.5z"/>
				<path class="st33" d="M242.3,291.5L242.3,291.5c-2.2-2.4-5.9-2.5-8.3-0.3c-0.4,0.3-0.7,0.7-0.9,1.1l-36.1,51
					c-14.3,20.2-18.1,46.3-9.2,69.4c5.8,15.1,17.2,30.1,38.8,39.2c0,0,13-6.2,13-36.7s-13-44.3-13-44.3l20.1-28.4
					C257.3,327.5,255.4,304.5,242.3,291.5z"/>
				<g>
					<path class="st34" d="M215.4,256.8c-0.2-2.5-2.3-4.3-4.7-4.2c-1.2,0.1-2.2,0.6-3,1.4c-1.6-1.9-4.4-2.1-6.3-0.4
						c-1.7,1.5-2,4-0.8,5.9l0,0c0.1,0.2,0.3,0.4,0.5,0.6l5.6,6.5c0.3,0.4,0.9,0.4,1.3,0.1c0,0,0,0,0.1-0.1l5.9-6.2
						c0.2-0.2,0.4-0.4,0.5-0.5l0,0C215.1,259,215.5,257.9,215.4,256.8z"/>
					<path class="st34" d="M205.6,288c-0.3-4.5-4.1-7.9-8.6-7.6c-2.1,0.1-4.1,1.1-5.5,2.6c-2.9-3.4-8-3.9-11.4-1
						c-3.2,2.7-3.9,7.5-1.4,10.9l0,0c0.3,0.4,0.6,0.7,0.9,1l10.1,11.8c0.6,0.7,1.6,0.8,2.3,0.2c0,0,0.1-0.1,0.1-0.1l10.7-11.3
						c0.3-0.3,0.7-0.6,0.9-1l0,0C205,291.9,205.7,290,205.6,288z"/>
					<path class="st34" d="M372.6,114c-0.3-4.5-4.1-7.9-8.6-7.6c-2.1,0.1-4.1,1.1-5.5,2.6c-2.9-3.4-8-3.9-11.4-1
						c-3.2,2.7-3.9,7.5-1.4,10.9l0,0c0.3,0.4,0.6,0.7,0.9,1l10.1,11.8c0.6,0.7,1.6,0.8,2.3,0.2c0,0,0.1-0.1,0.1-0.1l10.7-11.3
						c0.3-0.3,0.7-0.6,1-1l0,0C372,117.9,372.7,116,372.6,114z"/>
					<path class="st34" d="M191.1,234.8c-0.5-7.8-7.2-13.7-15-13.2c-3.7,0.2-7.1,1.9-9.6,4.6c-4.8-6.2-13.7-7.4-19.9-2.6
						c-6.2,4.8-7.4,13.7-2.6,19.9l0,0c0.5,0.7,1,1.3,1.6,1.8l17.7,20.6c1,1.2,2.9,1.4,4.1,0.3c0.1-0.1,0.1-0.1,0.2-0.2l18.7-19.7
						c0.6-0.5,1.2-1.1,1.7-1.8l0,0C190.2,241.7,191.3,238.3,191.1,234.8z"/>
					<path class="st34" d="M454.6,275.9c-8.2-0.4-15.2,6-15.6,14.3c-0.4,8.2,6,15.2,14.3,15.6c8.2,0.4,15.2-6,15.6-14.3
						C469.3,283.3,462.9,276.3,454.6,275.9C454.6,275.9,454.6,275.9,454.6,275.9z M455.1,286.7c0-0.2,0-0.3-0.1-0.5
						c0-0.1-0.1-0.3-0.2-0.4c-0.1-0.1-0.2-0.2-0.3-0.3c-0.1-0.1-0.3-0.1-0.4-0.1c-0.3,0-0.6,0.1-0.8,0.4c-0.2,0.3-0.3,0.6-0.3,0.9
						c0,0.3,0,0.6,0.1,0.9c0.1,0.3,0.2,0.5,0.4,0.8c0.1,0.2,0.3,0.4,0.5,0.6l0.6,0.6l1.4,1.3c0.4,0.3,0.7,0.7,1,1
						c0.3,0.4,0.5,0.7,0.8,1.1c0.2,0.4,0.4,0.9,0.5,1.4c0.1,0.5,0.2,1,0.1,1.6c0,2.2-1.8,4-4,4l-0.1,2h-1l0.1-2
						c-1.2,0-2.4-0.6-3.2-1.5c-0.8-1.2-1.1-2.6-1-4l3.2-0.4c-0.1,0.8,0,1.6,0.3,2.3c0.2,0.4,0.5,0.7,1,0.8c0.6,0,1-0.4,1-1.2
						c0-0.4,0-0.9-0.2-1.3c-0.1-0.4-0.3-0.7-0.5-1c-0.3-0.4-0.6-0.7-1-1l-1.4-1.3c-0.3-0.3-0.6-0.6-0.9-0.9c-0.2-0.3-0.5-0.6-0.6-1
						c-0.2-0.4-0.4-0.8-0.5-1.2c-0.1-0.5-0.1-1-0.1-1.4c0-1.1,0.4-2.2,1.3-3c0.9-0.8,2-1.2,3.1-1.2l0.1-1.9h1.1l-0.1,1.9
						c0.4,0,0.8,0.1,1.2,0.3c0.3,0.1,0.6,0.3,0.9,0.5c0.2,0.2,0.5,0.4,0.6,0.7c0.2,0.3,0.3,0.5,0.4,0.8c0.1,0.3,0.2,0.6,0.2,0.9
						c0.1,0.3,0.1,0.6,0.1,0.9c0,0.3,0,0.5,0,0.9l-3.2,0.3c0-0.3,0-0.5,0-0.7S455.2,287,455.1,286.7L455.1,286.7z"/>
					<path class="st34" d="M272.6,93.9c-8.2-0.4-15.2,6-15.6,14.3c-0.4,8.2,6,15.2,14.3,15.6c8.2,0.4,15.2-6,15.6-14.3
						C287.3,101.3,280.9,94.3,272.6,93.9C272.6,93.9,272.6,93.9,272.6,93.9z M273.1,104.7c0-0.2,0-0.3-0.1-0.5
						c0-0.1-0.1-0.3-0.2-0.4c-0.1-0.1-0.2-0.2-0.3-0.3c-0.1-0.1-0.3-0.1-0.4-0.1c-0.3,0-0.6,0.1-0.8,0.4c-0.2,0.3-0.3,0.6-0.3,0.9
						c0,0.3,0,0.6,0.1,0.9c0.1,0.3,0.2,0.5,0.4,0.8c0.1,0.2,0.3,0.4,0.5,0.6l0.6,0.6l1.4,1.3c0.4,0.3,0.7,0.7,1,1.1
						c0.3,0.4,0.5,0.7,0.8,1.1c0.2,0.4,0.4,0.9,0.5,1.4c0.1,0.5,0.2,1,0.1,1.6c0,2.2-1.8,4-4,4l-0.1,2h-1l0.1-2
						c-1.2,0-2.4-0.6-3.2-1.5c-0.8-1.2-1.1-2.6-1-4l3.2-0.4c-0.1,0.8,0,1.6,0.3,2.3c0.2,0.4,0.5,0.7,1,0.8c0.6,0,1-0.4,1-1.2
						c0-0.4,0-0.9-0.2-1.3c-0.1-0.4-0.3-0.7-0.5-1c-0.3-0.4-0.6-0.7-1-1l-1.4-1.3c-0.3-0.3-0.6-0.6-0.9-0.9
						c-0.2-0.3-0.5-0.6-0.6-0.9c-0.2-0.4-0.4-0.8-0.5-1.2c-0.1-0.5-0.1-1-0.1-1.4c0-1.1,0.4-2.2,1.3-3c0.9-0.8,2-1.2,3.1-1.2L272,99
						h1.1l-0.1,1.9c0.4,0,0.8,0.1,1.2,0.3c0.3,0.1,0.6,0.3,0.9,0.5c0.2,0.2,0.5,0.4,0.6,0.7c0.2,0.3,0.3,0.5,0.4,0.8
						c0.1,0.3,0.2,0.6,0.2,0.9c0.1,0.3,0.1,0.6,0.1,0.9c0,0.3,0,0.5,0,0.9l-3.2,0.3c0-0.3,0-0.5,0-0.7S273.2,104.9,273.1,104.7
						L273.1,104.7z"/>
					<path class="st34" d="M501.4,237.3c-13.5-0.6-25,9.9-25.6,23.4s9.9,25,23.4,25.6c13.5,0.6,25-9.9,25.6-23.4
						C525.4,249.3,514.9,237.9,501.4,237.3C501.4,237.3,501.4,237.3,501.4,237.3z M502.2,255.1c0-0.3-0.1-0.6-0.1-0.8
						c-0.1-0.2-0.2-0.4-0.3-0.6c-0.1-0.2-0.3-0.3-0.5-0.4c-0.2-0.1-0.5-0.1-0.7-0.1c-0.5,0-1,0.2-1.3,0.6c-0.3,0.4-0.5,0.9-0.5,1.5
						c0,0.5,0,1,0.1,1.4c0.1,0.5,0.3,0.9,0.6,1.3c0.2,0.3,0.5,0.6,0.7,0.9c0.2,0.2,0.5,0.5,1,1l2.3,2.2c0.6,0.5,1.1,1.1,1.6,1.7
						c0.5,0.6,0.9,1.2,1.2,1.8c0.4,0.7,0.7,1.5,0.9,2.3c0.2,0.9,0.3,1.7,0.2,2.6c0,3.6-2.9,6.5-6.5,6.6l-0.1,3.3l-1.7-0.1l0.1-3.3
						c-2,0-3.9-1-5.2-2.5c-1.1-1.5-1.6-3.6-1.6-6.5l5.3-0.6c-0.1,1.3,0,2.6,0.5,3.8c0.3,0.7,0.9,1.2,1.7,1.3c1,0,1.6-0.6,1.6-1.9
						c0-0.7-0.1-1.4-0.3-2.1c-0.2-0.6-0.5-1.2-0.9-1.6c-0.5-0.6-1-1.1-1.6-1.6l-2.4-2.2c-0.5-0.5-1-0.9-1.4-1.5
						c-0.4-0.5-0.8-1-1.1-1.5c-0.4-0.6-0.6-1.3-0.7-2c-0.1-0.8-0.2-1.5-0.1-2.3c0-1.9,0.7-3.7,2-5c1.4-1.2,3.2-1.9,5.1-1.9l0.1-3.1
						l1.7,0.1l-0.1,3.1c0.7,0.1,1.4,0.2,2,0.5c0.5,0.2,1,0.5,1.5,0.8c0.4,0.3,0.7,0.7,1,1.1c0.3,0.4,0.5,0.9,0.7,1.4
						c0.2,0.5,0.3,1,0.4,1.5c0.1,0.5,0.1,1,0.2,1.4c0,0.4,0,0.9,0,1.4l-5.3,0.5c0-0.5,0-0.9,0-1.2S502.2,255.4,502.2,255.1
						L502.2,255.1z"/>
					<path class="st34" d="M518.1,316.8h-18.4l10-6.5c1.2-0.8,1.6-2.4,0.8-3.6c-0.8-1.2-2.4-1.6-3.6-0.8l0,0l-15.4,9.8
						c-0.8-0.5-1.7-0.7-2.7-0.7c-1.5,0-3,0.7-4,1.8h-25.3c-2,0.1-3.6,1.8-3.5,3.9c0.1,1.9,1.6,3.4,3.5,3.5h0.2l6.6,28h44.8l6.6-28
						h0.2c2-0.1,3.6-1.8,3.5-3.9C521.5,318.4,520,316.9,518.1,316.8L518.1,316.8z M475.5,344.9c0,1.5-1.2,2.8-2.8,2.8
						c-1.5,0-2.8-1.2-2.8-2.8V330c0-1.5,1.2-2.8,2.8-2.8c1.5,0,2.8,1.2,2.8,2.8V344.9z M486.2,344.9c0,1.5-1.2,2.8-2.8,2.8
						c-1.5,0-2.8-1.2-2.8-2.8V330c0-1.5,1.2-2.8,2.8-2.8c1.5,0,2.8,1.2,2.8,2.8V344.9z M497,344.9c0,1.5-1.2,2.8-2.8,2.8
						c-1.5,0-2.8-1.2-2.8-2.8V330c0-1.5,1.2-2.8,2.8-2.8c1.5,0,2.8,1.2,2.8,2.8V344.9z M507.8,344.9c0,1.5-1.2,2.8-2.8,2.8
						c-1.5,0-2.8-1.2-2.8-2.8V330c0-1.5,1.2-2.8,2.8-2.8c1.5,0,2.8,1.2,2.8,2.8V344.9z"/>
					<path class="st34" d="M138.4,274.2l-45.5,0.2c-2.1,0-3.8,1.7-3.8,3.8c0,0,0,0,0,0l0.1,30.3c0,2.1,1.7,3.8,3.8,3.8c0,0,0,0,0,0
						h7.6v7.6l7.6-7.6l30.3-0.1c2.1,0,3.8-1.7,3.8-3.8c0,0,0,0,0,0l-0.1-30.4C142.2,275.9,140.5,274.2,138.4,274.2z M112,302.7
						l-15.2,0.1v-3.6L112,299V302.7z M134.7,295l-37.9,0.2v-3.6l37.9-0.2V295z M134.7,287.4l-37.9,0.2v-3.6l37.9-0.2V287.4z"/>
					<path class="st34" d="M182.1,436.2h-6.2l1.7-4.4c0.4-1.1-0.1-2.3-1.2-2.8c-1.1-0.4-2.3,0.1-2.8,1.2l0,0l-2.3,5.9h-4.6l1.7-4.4
						c0.4-1.1-0.1-2.3-1.2-2.8c-1.1-0.4-2.3,0.1-2.8,1.2l0,0l-2.3,5.9h-7c-1.2,0-2.1,1-2.1,2.1s1,2.1,2.1,2.1h5.4l-1.8,4.6h-8.3
						c-1.2,0-2.1,1-2.1,2.1s1,2.1,2.1,2.1h6.6l-1.8,4.6c-0.4,1.1,0.1,2.3,1.2,2.8c0,0,0,0,0,0c0.2,0.1,0.5,0.1,0.8,0.2
						c0.9,0,1.7-0.5,2-1.4l2.4-6.1h4.6l-1.8,4.6c-0.4,1.1,0.1,2.3,1.2,2.8c0,0,0,0,0,0c0.2,0.1,0.5,0.1,0.8,0.2c0.9,0,1.7-0.5,2-1.4
						l2.4-6.1h6.7c1.2,0,2.1-1,2.1-2.1s-1-2.1-2.1-2.1h-5l1.8-4.6h7.9c1.2,0,2.1-1,2.1-2.1S183.4,436.2,182.1,436.2L182.1,436.2z
						 M167.8,445.1h-4.6l1.8-4.6h4.6L167.8,445.1z"/>
					<path class="st34" d="M112.6,487.1c4.9,8.2,9.7,15.1,9.7,15.1s19.5-27.6,19.5-38.3c0-10.8-8.7-19.5-19.5-19.5
						s-19.5,8.7-19.5,19.5C102.8,469.3,107.7,478.9,112.6,487.1 M122.3,473.3c-5.2,0-9.4-4.2-9.4-9.4c0-5.2,4.2-9.4,9.4-9.4
						c5.2,0,9.4,4.2,9.4,9.4C131.6,469.1,127.5,473.2,122.3,473.3L122.3,473.3z"/>
					<path class="st34" d="M451.5,247.6c-0.7,0-1.3-0.3-1.8-0.7c-14-14-36.7-14-50.8,0c-1,1-2.6,1-3.5,0s-1-2.6,0-3.5
						c16-16,41.9-16,57.8,0c0,0,0,0,0,0c1,1,1,2.6,0,3.5C452.7,247.3,452.1,247.6,451.5,247.6L451.5,247.6z"/>
					<path class="st34" d="M444.3,254.8c-0.7,0-1.3-0.3-1.8-0.7c-10-10-26.3-10-36.4,0c0,0,0,0,0,0c-1,1-2.6,1-3.5,0s-1-2.6,0-3.5
						c12-12,31.4-12,43.4,0c1,1,1,2.6,0,3.5C445.5,254.5,444.9,254.8,444.3,254.8L444.3,254.8z"/>
					<path class="st34" d="M436.7,262.3c-0.7,0-1.3-0.3-1.7-0.8c-5.9-5.9-15.4-5.9-21.3,0c-1,1-2.6,1-3.5,0s-1-2.6,0-3.5
						c7.8-7.8,20.6-7.8,28.4,0c1,1,1,2.6,0,3.5C438.1,262,437.4,262.2,436.7,262.3L436.7,262.3z"/>
					<circle class="st34" cx="424.3" cy="271.7" r="6.6"/>
					<path class="st34" d="M337,149.6L337,149.6c-0.3-10.7-9.2-19.2-19.9-19c-8.2,0.2-15.3,5.5-18,13.2c-6.4-4.5-15.2-2.9-19.6,3.5
						c-4.5,6.4-2.9,15.2,3.5,19.6c2.4,1.6,5.1,2.5,8,2.5h46c5.5,0,9.9-4.5,9.9-10C347,154.1,342.5,149.6,337,149.6L337,149.6z"/>
					<path class="st34" d="M486.7,501.1l0.4-1.3c-0.8-0.2-1.4-0.8-1.8-1.5c-0.3-0.9-0.3-1.8,0-2.7l2.1,0.3c-0.2,0.5-0.2,1-0.2,1.5
						c0,0.3,0.2,0.6,0.5,0.7c0.4,0.1,0.7-0.1,0.8-0.6c0.1-0.3,0.1-0.6,0.1-0.8c0-0.3-0.1-0.5-0.2-0.7c-0.1-0.3-0.3-0.5-0.5-0.8
						l-0.7-1.1c-0.1-0.2-0.3-0.5-0.4-0.7c-0.1-0.2-0.2-0.5-0.3-0.7c-0.1-0.3-0.1-0.6-0.1-0.8c0-0.3,0.1-0.6,0.2-0.9
						c0.2-0.7,0.6-1.4,1.3-1.7c0.7-0.3,1.5-0.4,2.2-0.2l0.4-1.2l0.7,0.2l-0.4,1.2c0.3,0.1,0.5,0.2,0.7,0.4c0.2,0.1,0.4,0.3,0.5,0.5
						c0.1,0.2,0.2,0.4,0.3,0.5c0.1,0.2,0.1,0.4,0.1,0.6c0,0.2,0,0.4,0,0.6c0,0.2,0,0.4-0.1,0.6c0,0.2-0.1,0.3-0.1,0.5l-2.1-0.3
						l0.1-0.5c0-0.1,0.1-0.3,0.1-0.4c0-0.1,0-0.2,0-0.3c0-0.1,0-0.2,0-0.3c0-0.1-0.1-0.2-0.1-0.2c-0.1-0.1-0.2-0.1-0.3-0.1
						c-0.2-0.1-0.4,0-0.5,0.1c-0.2,0.1-0.3,0.3-0.3,0.5c-0.1,0.2-0.1,0.4-0.1,0.6c0,0.2,0,0.4,0.1,0.6c0.1,0.2,0.1,0.3,0.2,0.4
						l0.3,0.5l0.7,1.1c0.2,0.3,0.3,0.5,0.5,0.8c0.1,0.3,0.2,0.6,0.3,0.8c0.1,0.3,0.1,0.7,0.1,1c0,0.3-0.1,0.7-0.2,1
						c-0.4,1.4-1.8,2.3-3.2,1.9l-0.4,1.3L486.7,501.1z"/>
					<path class="st34" d="M500.7,483.6l-16.7-6.7l-18.1-1.3L459,503l18.1,1.3l16.7,6.7l17.6,3.2l6.9-27.4L500.7,483.6z
						 M497.2,496.6c-1.2,4.6-5.9,7.4-10.5,6.3c-4.6-1.2-7.4-5.9-6.3-10.5c1.2-4.6,5.9-7.4,10.5-6.3
						C495.5,487.3,498.3,492,497.2,496.6L497.2,496.6z"/>
					<path class="st34" d="M294.4,478.3c0,1.5,1.2,2.7,2.6,2.7c0,0,0,0,0,0h6.2l1.9,8.7c0,0.2,0,0.4,0,0.6l2.8,13.3
						c0.1,0.5,0.3,0.9,0.5,1.4l1.4,6.3c0.6,2.8,2.4,5.1,5,6.2c-1.4,2.2-0.6,5.1,1.6,6.5s5.1,0.6,6.5-1.6c0.7-1.2,0.9-2.7,0.4-4.1
						h6.6c-0.9,2.4,0.3,5.2,2.8,6.1c2.4,0.9,5.2-0.3,6.1-2.8c0.4-1.1,0.4-2.3,0-3.3h1.8c1.5,0,2.7-1.2,2.7-2.6
						c0-1.5-1.2-2.7-2.6-2.7c0,0,0,0,0,0h-22.1c-1.7,0-3.1-1.2-3.4-2.8l-0.4-1.8h25.2c2.9,0,5.3-2,5.9-4.8l2.8-13.3
						c0.4-1.8-0.5-3.7-2.2-4.5c-0.6-0.3-1.2-0.4-1.8-0.4h-34.9l-2.1-9.7H297C295.6,475.7,294.4,476.8,294.4,478.3z M314.7,490.3
						h24.7c1.7,0,3.1,1.4,3.1,3.1c0,0.2,0,0.4-0.1,0.6l-1.4,6.2c-0.3,1.4-1.6,2.4-3,2.4h-21.7c-1.4,0-2.6-1-3-2.3l-1.6-6.2
						c-0.4-1.7,0.6-3.4,2.2-3.8C314.2,490.4,314.4,490.3,314.7,490.3z"/>
				</g>
			</g>
		</g>
	</g>
</g>
</svg>
