<?xml version="1.0" encoding="utf-8"?>
<!-- Generator: Adobe Illustrator 21.0.0, SVG Export Plug-In . SVG Version: 6.00 Build 0)  -->
<svg version="1.1" id="Layer_1" xmlns="http://www.w3.org/2000/svg" xmlns:xlink="http://www.w3.org/1999/xlink" x="0px" y="0px"
	 viewBox="0 0 612 612" style="enable-background:new 0 0 612 612;" xml:space="preserve">
<style type="text/css">
	.st0{fill:#9FD9E0;}
	.st1{opacity:0.4;fill:#FFFFFF;enable-background:new    ;}
	.st2{opacity:0.6;}
	.st3{fill:#FFFFFF;}
	.st4{fill:#8DB83F;}
	.st5{fill:#80BDD5;}
	.st6{fill:#FDF7FA;}
	.st7{fill:#DEDEE6;}
	.st8{fill:#60B0AF;}
	.st9{fill:#F1F1F1;}
	.st10{opacity:0.1;fill:#FFFFFF;enable-background:new    ;}
	.st11{fill:none;}
	.st12{fill:#A6D9E8;}
	.st13{fill:#255465;}
	.st14{fill:#D4E9E9;}
	.st15{fill:#FCC01B;}
	.st16{opacity:0.1;fill:#1F384D;enable-background:new    ;}
	.st17{fill:#0D3754;}
	.st18{fill:#154F78;}
	.st19{fill:#D0EAF9;}
	.st20{fill:#DB4126;}
	.st21{fill:#F16228;}
	.st22{fill:#0068A1;}
	.st23{fill:#8BBDE6;}
	.st24{fill:#5DAFAC;}
	.st25{fill:#009348;}
	.st26{fill:#8DC540;}
	.st27{fill:#5F6060;}
	.st28{fill:#E8A863;}
	.st29{fill:#FBBE80;}
	.st30{fill:#707170;}
	.st31{fill:#FFCC09;}
	.st32{fill:#B98839;}
	.st33{fill:#3C3C3C;}
	.st34{fill:#B3B2B3;}
	.st35{fill:#FFCC04;}
	.st36{fill:#DEDFDE;}
	.st37{fill:#363435;}
	.st38{fill:#C09E7C;}
</style>
<g>
	<circle class="st0" cx="306" cy="306" r="306"/>
	<g>
		<circle class="st1" cx="306" cy="306" r="232.6"/>
		<g class="st2">
			<g>
				
					<rect x="232.2" y="329" transform="matrix(0.4786 -0.878 0.878 0.4786 -152.3431 403.8724)" class="st3" width="63.3" height="2.4"/>
			</g>
			<g>
				
					<rect x="248.6" y="358" transform="matrix(0.9996 -2.687666e-02 2.687666e-02 0.9996 -10.6909 6.8585)" class="st3" width="2.4" height="86.3"/>
			</g>
			<g>
				<polygon class="st3" points="369.4,200.7 367,200.3 374.7,152.2 377.1,152.6 				"/>
			</g>
			<g>
				<polygon class="st3" points="468.9,367 352.1,361.8 352.6,359.4 469.3,364.6 				"/>
			</g>
			<g>
				
					<rect x="148.9" y="292.8" transform="matrix(0.9648 -0.263 0.263 0.9648 -85.8317 51.673)" class="st3" width="2.4" height="107.3"/>
			</g>
			<g>
				
					<rect x="101.7" y="242.7" transform="matrix(0.374 -0.9274 0.9274 0.374 -128.2693 297.7872)" class="st3" width="109.5" height="2.4"/>
			</g>
			<g>
				
					<rect x="172" y="165.2" transform="matrix(0.9326 -0.361 0.361 0.9326 -43.4892 99.9658)" class="st3" width="147.7" height="2.4"/>
			</g>
			<g>
				
					<rect x="255.5" y="179.4" transform="matrix(0.3562 -0.9344 0.9344 0.3562 23.8405 395.816)" class="st3" width="87.4" height="2.4"/>
			</g>
			<g>
				
					<rect x="320.9" y="206.6" transform="matrix(0.742 -0.6704 0.6704 0.742 -93.882 284.0183)" class="st3" width="2.4" height="114.7"/>
			</g>
			<g>
				
					<rect x="249.3" y="428.4" transform="matrix(0.9738 -0.2276 0.2276 0.9738 -89.546 82.6265)" class="st3" width="128.4" height="2.4"/>
			</g>
			<g>
				
					<rect x="364.5" y="319.1" transform="matrix(0.9773 -0.2119 0.2119 0.9773 -69.5894 85.8382)" class="st3" width="2.4" height="97"/>
			</g>
			<g>
				<polygon class="st3" points="438.6,201.9 373.5,153.9 375,151.9 440.1,200 				"/>
			</g>
			<g>
				
					<rect x="453.4" y="198.2" transform="matrix(0.9851 -0.1718 0.1718 0.9851 -41.7769 82.2987)" class="st3" width="2.4" height="168.6"/>
			</g>
			<g>
				<circle class="st3" cx="314.7" cy="139.8" r="6.4"/>
			</g>
			<g>
				<circle class="st3" cx="164.2" cy="398.2" r="6.4"/>
			</g>
			<g>
				<circle class="st3" cx="440.1" cy="199.5" r="6.4"/>
			</g>
			<g>
				<circle class="st3" cx="375.2" cy="153.9" r="6.9"/>
			</g>
			<g>
				<circle class="st3" cx="368.2" cy="199.5" r="6.9"/>
			</g>
			<g>
				<circle class="st3" cx="352.3" cy="360.6" r="6.9"/>
			</g>
			<g>
				<circle class="st3" cx="469.1" cy="364.5" r="6.9"/>
			</g>
			<g>
				<circle class="st3" cx="177" cy="193.1" r="6.4"/>
			</g>
			<g>
				<circle class="st3" cx="136" cy="294.7" r="6.4"/>
			</g>
			<g>
				
					<ellipse transform="matrix(8.203699e-02 -0.9966 0.9966 8.203699e-02 -212.3906 657.8427)" class="st3" cx="250.9" cy="444.2" rx="12.4" ry="12.4"/>
			</g>
			<g>
				<circle class="st3" cx="360.6" cy="306.6" r="8.2"/>
			</g>
			<g>
				<circle class="st3" cx="283.6" cy="221.4" r="8.2"/>
			</g>
			<g>
				
					<ellipse transform="matrix(8.200588e-02 -0.9966 0.9966 8.200588e-02 -68.5145 755.6393)" class="st3" cx="375.9" cy="415" rx="8.2" ry="8.2"/>
			</g>
			<g>
				
					<ellipse transform="matrix(8.205488e-02 -0.9966 0.9966 8.205488e-02 7.099 648.0779)" class="st3" cx="355.4" cy="320.2" rx="8.2" ry="8.2"/>
			</g>
			<g>
				
					<ellipse transform="matrix(8.204588e-02 -0.9966 0.9966 8.204588e-02 -128.4925 576.493)" class="st3" cx="248.7" cy="358" rx="8.2" ry="8.2"/>
			</g>
			<g>
				
					<rect x="280.3" y="168.2" transform="matrix(0.8896 -0.4567 0.4567 0.8896 -65.4552 151.8965)" class="st3" width="2.4" height="86.3"/>
			</g>
			<g>
				
					<rect x="147.6" y="211.9" transform="matrix(0.7793 -0.6266 0.6266 0.7793 -86.8219 179.7224)" class="st3" width="128.4" height="2.4"/>
			</g>
			<g>
				
					<rect x="190.4" y="243.1" transform="matrix(0.7893 -0.6141 0.6141 0.7893 -138.6981 179.0996)" class="st3" width="2.4" height="97"/>
			</g>
			<g>
				
					<ellipse transform="matrix(0.9339 -0.3575 0.3575 0.9339 -44.5106 105.0168)" class="st3" cx="261.8" cy="172.9" rx="12.4" ry="12.4"/>
			</g>
			<g>
				
					<ellipse transform="matrix(0.9339 -0.3575 0.3575 0.9339 -79.8966 74.592)" class="st3" cx="161.8" cy="253.4" rx="8.2" ry="8.2"/>
			</g>
			<g>
				
					<ellipse transform="matrix(0.9339 -0.3574 0.3574 0.9339 -103.3192 100.9305)" class="st3" cx="221.4" cy="330" rx="8.2" ry="8.2"/>
			</g>
			<g>
				
					<ellipse transform="matrix(0.9339 -0.3574 0.3574 0.9339 -69.3546 124.1394)" class="st3" cx="301.2" cy="249.7" rx="8.2" ry="8.2"/>
			</g>
			<g>
				
					<ellipse transform="matrix(8.205805e-02 -0.9966 0.9966 8.205805e-02 -45.3121 555.6271)" class="st3" cx="279" cy="302.4" rx="5.9" ry="5.9"/>
			</g>
		</g>
		<circle class="st4" cx="188.7" cy="501.4" r="52"/>
		<circle class="st5" cx="83.9" cy="262.7" r="61.9"/>
		<g>
			<g>
				<g>
					<g>
						<path class="st6" d="M196.3,497.1v-37.4h-13.5v37.4c-10,3-16.8,12.1-16.8,22.6c0,13,10.6,23.6,23.6,23.6s23.6-10.6,23.6-23.6
							C213.1,509.1,206.2,500,196.3,497.1z"/>
					</g>
				</g>
				<path class="st7" d="M196.3,497.1v-37.4h-6.8v83.6c13,0,23.6-10.6,23.6-23.6C213.1,509.1,206.2,500,196.3,497.1z"/>
				<g>
					<g>
						<g>
							<circle class="st8" cx="189.4" cy="504.2" r="2.5"/>
						</g>
						<g>
							<circle class="st8" cx="193" cy="508.6" r="2"/>
						</g>
						<g>
							<circle class="st8" cx="189.7" cy="463.4" r="2"/>
						</g>
						<g>
							<circle class="st8" cx="190.8" cy="514.2" r="1.2"/>
						</g>
						<g>
							<circle class="st8" cx="189.1" cy="477.6" r="1.2"/>
						</g>
					</g>
				</g>
				<g>
					<g>
						<circle class="st3" cx="188.7" cy="529.3" r="2"/>
						<ellipse class="st3" cx="190.9" cy="523.6" rx="1.2" ry="1.2"/>
					</g>
				</g>
			</g>
			<g>
				<g>
					<g>
						<path class="st8" d="M170.7,519.6c0,10.4,8.4,18.8,18.8,18.8c10.4,0,18.8-8.4,18.8-18.8H170.7z"/>
					</g>
				</g>
			</g>
		</g>
		<g>
			<circle class="st4" cx="525.7" cy="263.9" r="52"/>
			<g>
				<path class="st3" d="M552.4,270.9c0-13.9-25.2-41.4-25.2-41.4S502,256.9,502,270.9c0,13.9,11.3,25.2,25.2,25.2
					C541.1,296.1,552.4,284.8,552.4,270.9z"/>
				<path class="st9" d="M527.1,229.6v66.5l0,0c13.9,0,25.2-11.3,25.2-25.2C552.4,257,527.1,229.5,527.1,229.6
					C527.1,229.5,527.1,229.6,527.1,229.6z"/>
			</g>
			<g>
				<g>
					<path class="st10" d="M534.9,272.9c3.1-3.2,7.3-5,11.8-5c9.2-0.1,16.9,7.3,17,16.6c0,4.5-1.7,8.7-4.8,11.9l0,0
						c-3.1,3.2-7.3,5-11.8,5s-8.7-1.7-11.9-4.8c-3.2-3.1-5-7.3-5.1-11.8C530,280.4,531.7,276.1,534.9,272.9L534.9,272.9z"/>
					<g>
						<g>
							<path class="st11" d="M561,298.6"/>
						</g>
						<g>
							<path class="st12" d="M559.8,295.3c-0.2,0.2-0.3,0.4-0.5,0.6C559.5,295.6,559.6,295.5,559.8,295.3z"/>
							<path class="st12" d="M559.3,295.9c-0.2,0.2-0.3,0.4-0.5,0.5C559,296.2,559.1,296,559.3,295.9z"/>
							<path class="st12" d="M530.1,283.4c0,0.1,0,0.3,0,0.4C530.1,283.7,530.1,283.6,530.1,283.4z"/>
							<path class="st12" d="M530.1,283.9c0,0.1,0,0.2,0,0.4C530.1,284.2,530.1,284,530.1,283.9z"/>
							<path class="st12" d="M530,284.4c0,0.1,0,0.3,0,0.5C530,284.7,530,284.5,530,284.4z"/>
						</g>
						<g>
							<g>
								<path class="st13" d="M567.8,305.1c1.1-1.1,1.1-3,0-4.1l-3.7-3.6c-1.1-1.1-3-1.1-4.1,0l0,0c-1.1,1.1-1.1,3,0,4.1l3.7,3.6
									C564.9,306.3,566.7,306.2,567.8,305.1L567.8,305.1z"/>
							</g>
						</g>
					</g>
					<path class="st14" d="M530.7,268.9c-4.2,4.3-6.5,10-6.5,16c0.1,6,2.5,11.6,6.8,15.9c4.3,4.2,10,6.5,16,6.4s11.6-2.5,15.8-6.7
						l0,0c4.2-4.3,6.5-10,6.5-16c-0.1-12.4-10.4-22.4-22.8-22.3C540.6,262.2,535,264.6,530.7,268.9z M563.6,284.5
						c0,4.5-1.7,8.7-4.8,11.9c-3.1,3.2-7.3,5-11.8,5s-8.7-1.7-11.9-4.8c-3.2-3.1-5-7.3-5.1-11.8c0-4.5,1.7-8.7,4.8-11.9
						c3.1-3.2,7.3-5,11.8-5C555.9,267.8,563.5,275.2,563.6,284.5z"/>
					<path class="st15" d="M530.7,268.9c-4.2,4.3-6.5,10-6.5,16c0.1,6,2.5,11.6,6.8,15.9c4.3,4.2,10,6.5,16,6.4s11.6-2.5,15.8-6.7
						l0,0c4.2-4.3,6.5-10,6.5-16c-0.1-12.4-10.4-22.4-22.8-22.3C540.6,262.2,535,264.6,530.7,268.9z M563.6,284.5
						c0,4.5-1.7,8.7-4.8,11.9c-3.1,3.2-7.3,5-11.8,5s-8.7-1.7-11.9-4.8c-3.2-3.1-5-7.3-5.1-11.8c0-4.5,1.7-8.7,4.8-11.9
						c3.1-3.2,7.3-5,11.8-5C555.9,267.8,563.5,275.2,563.6,284.5z"/>
					
						<rect x="572.7" y="297.5" transform="matrix(0.7006 -0.7136 0.7136 0.7006 -52.0371 507.3381)" class="st15" width="11.6" height="36.3"/>
					
						<rect x="583.7" y="323.7" transform="matrix(0.7006 -0.7135 0.7135 0.7006 -56.4794 518.3851)" class="st13" width="11.6" height="5.6"/>
				</g>
				<path class="st16" d="M546.6,262.1c-5.9,0.1-11.5,2.4-15.7,6.6l4.1,4.1c3.1-3.1,7.3-4.9,11.7-4.9c9.2-0.1,16.9,7.3,17,16.6
					c0,4.5-1.7,8.7-4.8,11.9l-0.1,0.1l32.4,32.4l4.5-4.6l-25.9-25.4l-2,2.1l-2.8-2.7c3-4,4.6-8.8,4.5-13.8
					C569.2,272,559,262,546.6,262.1z"/>
			</g>
		</g>
		<g>
			<g>
				<path class="st17" d="M115.3,307.2c0,1.6-1.3,3-3,3H52c-1.6,0-3-1.3-3-3v-77.8c0-1.6,1.3-3,3-3h60.3c1.6,0,3,1.3,3,3V307.2z"/>
				<path class="st18" d="M115.3,305c0,1.6-1.3,3-3,3H52c-1.6,0-3-1.3-3-3v-77.8c0-1.6,1.3-3,3-3h60.3c1.6,0,3,1.3,3,3V305z"/>
				<rect x="54.4" y="229.6" class="st3" width="55.6" height="73"/>
				<rect x="54.4" y="300.2" class="st19" width="55.6" height="2.4"/>
				<path class="st20" d="M95.1,233.5v-3c0-1-0.8-1.8-1.8-1.8H71.1c-1,0-1.8,0.8-1.8,1.8v3H95.1z"/>
				<path class="st21" d="M95.1,232.2v-3c0-1-0.8-1.8-1.8-1.8H71.1c-1,0-1.8,0.8-1.8,1.8v3H95.1z"/>
				<circle class="st21" cx="82.2" cy="227.2" r="4.2"/>
				<circle class="st17" cx="82.2" cy="227.2" r="1.8"/>
				<g>
					<rect x="67.9" y="249.1" class="st12" width="34.6" height="1.8"/>
					<rect x="67.9" y="256.6" class="st12" width="34.6" height="1.8"/>
					<rect x="67.9" y="264.1" class="st12" width="34.6" height="1.8"/>
					<rect x="67.9" y="271.6" class="st12" width="34.6" height="1.8"/>
				</g>
				<g>
					<path class="st21" d="M61.4,252.2c-0.2,0-0.4-0.1-0.6-0.3l-1.4-1.4c-0.3-0.3-0.3-0.9,0-1.2s0.9-0.3,1.2,0l0.7,0.7l2.4-2.9
						c0.3-0.4,0.8-0.4,1.2-0.1c0.4,0.3,0.4,0.8,0.1,1.2l-3,3.7C61.9,252.1,61.7,252.2,61.4,252.2C61.5,252.2,61.5,252.2,61.4,252.2
						L61.4,252.2z"/>
				</g>
				<g>
					<path class="st21" d="M61.4,259.4c-0.2,0-0.4-0.1-0.6-0.3l-1.4-1.4c-0.3-0.3-0.3-0.9,0-1.2c0.3-0.3,0.9-0.3,1.2,0l0.7,0.8
						l2.4-2.9c0.3-0.4,0.8-0.4,1.2-0.1c0.4,0.3,0.4,0.8,0.1,1.2l-3,3.7C61.9,259.2,61.7,259.4,61.4,259.4
						C61.5,259.4,61.5,259.4,61.4,259.4L61.4,259.4z"/>
				</g>
				<g>
					<path class="st21" d="M61.4,266.5c-0.2,0-0.4-0.1-0.6-0.3l-1.4-1.4c-0.3-0.3-0.3-0.9,0-1.2c0.3-0.3,0.9-0.3,1.2,0l0.7,0.7
						l2.4-2.9c0.3-0.4,0.8-0.4,1.2-0.1c0.4,0.3,0.4,0.8,0.1,1.2l-3,3.7C61.9,266.4,61.7,266.5,61.4,266.5
						C61.5,266.5,61.5,266.5,61.4,266.5L61.4,266.5z"/>
				</g>
			</g>
			<g>
				<g>
					<path class="st21" d="M95.1,289.3c-0.3,0-0.6-0.1-0.9-0.4l-2-2.1c-0.5-0.5-0.4-1.2,0-1.7c0.5-0.5,1.3-0.4,1.7,0l1,1.1l3.5-4.3
						c0.4-0.5,1.2-0.6,1.7-0.2s0.6,1.2,0.2,1.7l-4.4,5.3C95.8,289.1,95.5,289.3,95.1,289.3L95.1,289.3L95.1,289.3z"/>
				</g>
				<path class="st21" d="M96.3,277.5c-4.4,0-7.9,3.5-7.9,7.9s3.5,7.9,7.9,7.9s7.9-3.5,7.9-7.9C104.2,281.1,100.6,277.5,96.3,277.5z
					 M96.3,291.4c-3.3,0-6-2.7-6-6s2.7-6,6-6s6,2.7,6,6C102.3,288.7,99.6,291.4,96.3,291.4z"/>
			</g>
		</g>
		<g>
			<circle class="st3" cx="444.5" cy="489.1" r="52"/>
			<g>
				<path class="st22" d="M474,485.8h-4.1c-0.3-1.5-0.7-2.9-1.2-4.2l3.5-2c0.8-0.5,1.1-1.5,0.6-2.4l-3.5-6c-0.5-0.8-1.5-1.1-2.4-0.6
					l-3.6,2.1c-1-1.1-2-2.1-3.1-3.1l2-3.5c0.5-0.8,0.2-1.9-0.6-2.4l-6-3.5c-0.8-0.5-1.9-0.2-2.4,0.6l-2.1,3.6
					c-1.4-0.5-2.8-0.8-4.3-1.1v-4c0-1-0.8-1.7-1.7-1.7h-6.9c-1,0-1.7,0.8-1.7,1.7v4.1c-1.4,0.3-2.9,0.7-4.2,1.2l-2-3.5
					c-0.5-0.8-1.5-1.1-2.4-0.6l-6,3.5c-0.8,0.5-1.1,1.5-0.6,2.4l2.1,3.6c-1.1,1-2.1,2-3.1,3.1l-3.5-2c-0.8-0.5-1.9-0.2-2.4,0.6
					l-3.5,6c-0.5,0.8-0.2,1.9,0.6,2.4l3.6,2.1c-0.5,1.4-0.8,2.8-1.1,4.3h-4c-1,0-1.7,0.8-1.7,1.7v6.9c0,1,0.8,1.7,1.7,1.7h4.1
					c0.3,1.5,0.7,2.9,1.2,4.2l-3.5,2c-0.8,0.5-1.1,1.5-0.6,2.4l3.5,6c0.5,0.8,1.5,1.1,2.4,0.6l3.6-2.1c1,1.1,2,2.1,3.1,3.1l-2,3.5
					c-0.5,0.8-0.2,1.9,0.6,2.4l6,3.5c0.8,0.5,1.9,0.2,2.4-0.6l2.1-3.6c1.4,0.5,2.8,0.8,4.3,1.1v4c0,1,0.8,1.7,1.7,1.7h6.9
					c1,0,1.7-0.8,1.7-1.7v-4.1c1.4-0.3,2.9-0.7,4.2-1.2l2,3.4c0.5,0.8,1.5,1.1,2.4,0.6l6-3.5c0.8-0.5,1.1-1.5,0.6-2.4l-2.1-3.6
					c1.1-1,2.1-2,3.1-3.1l3.5,2c0.8,0.5,1.9,0.2,2.4-0.6l3.5-6c0.5-0.8,0.2-1.9-0.6-2.4l-3.6-2.1c0.5-1.4,0.8-2.8,1.1-4.2h4
					c1,0,1.7-0.8,1.7-1.7v-6.9C475.7,486.6,474.9,485.8,474,485.8z M442.1,509.4c-9.9,0-18-8-18-18c0-9.9,8-18,18-18
					c9.9,0,18,8,18,18C460,501.3,452,509.4,442.1,509.4z"/>
				<path class="st23" d="M442.1,469.5c-12.1,0-21.9,9.8-21.9,21.9s9.8,21.9,21.9,21.9s21.9-9.8,21.9-21.9
					C463.9,479.3,454.1,469.5,442.1,469.5z M442.1,509.4c-9.9,0-18-8-18-18c0-9.9,8-18,18-18c9.9,0,18,8,18,18
					C460,501.3,452,509.4,442.1,509.4z"/>
				<path class="st15" d="M493.3,452.7h-2.5c-0.6,0-1.2-0.4-1.4-1l-0.5-1.1c-0.3-0.5-0.1-1.3,0.3-1.7l1.8-1.8c0.4-0.4,0.4-1.1,0-1.5
					l-2.7-2.8c-0.4-0.4-1.1-0.4-1.5,0l-1.8,1.8c-0.4,0.4-1.2,0.5-1.7,0.3l-1.1-0.5c-0.6-0.2-1-0.8-1-1.4v-2.5c0-0.6-0.5-1.1-1.1-1.1
					h-3.9c-0.6,0-1.1,0.5-1.1,1.1v2.5c0,0.6-0.5,1.2-1,1.4l-1.1,0.5c-0.5,0.3-1.3,0.1-1.7-0.3l-1.8-1.8c-0.4-0.4-1.1-0.4-1.5,0
					l-2.8,2.8c-0.4,0.4-0.4,1.1,0,1.5l1.8,1.8c0.4,0.4,0.5,1.2,0.3,1.7l-0.5,1.1c-0.2,0.6-0.8,1-1.4,1h-2.5c-0.6,0-1.1,0.5-1.1,1.1
					v3.9c0,0.6,0.5,1.1,1.1,1.1h2.5c0.6,0,1.2,0.5,1.4,1l0.5,1.1c0.3,0.5,0.1,1.3-0.3,1.7l-1.8,1.8c-0.4,0.4-0.4,1.1,0,1.5l2.8,2.7
					c0.4,0.4,1.1,0.4,1.5,0l1.8-1.8c0.4-0.4,1.2-0.5,1.7-0.3l1.1,0.5c0.6,0.2,1,0.8,1,1.4v2.5c0,0.6,0.5,1.1,1.1,1.1h3.9
					c0.6,0,1.1-0.5,1.1-1.1v-2.5c0-0.6,0.5-1.2,1-1.4l1.1-0.5c0.5-0.3,1.3-0.1,1.7,0.3l1.8,1.8c0.4,0.4,1.1,0.4,1.5,0l2.7-2.7
					c0.4-0.4,0.4-1.1,0-1.5l-1.8-1.8c-0.4-0.4-0.5-1.2-0.3-1.7l0.5-1.1c0.2-0.5,0.8-1,1.4-1h2.5c0.6,0,1.1-0.5,1.1-1.1v-3.9
					C494.4,453.2,493.9,452.7,493.3,452.7z M478.1,460.8c-2.8,0-5.1-2.3-5.1-5.1c0-2.8,2.3-5.1,5.1-5.1c2.8,0,5.1,2.3,5.1,5.1
					S481,460.8,478.1,460.8z"/>
			</g>
		</g>
		<g>
			<circle class="st24" cx="306.3" cy="72.6" r="52"/>
			<g>
				<path class="st3" d="M338.7,136.7c0-13.9-25.2-41.4-25.2-41.4s-25.2,27.4-25.2,41.4c0,13.9,11.3,25.2,25.2,25.2
					C327.4,161.9,338.7,150.6,338.7,136.7z"/>
				<path class="st9" d="M313.4,95.3v66.5l0,0c13.9,0,25.2-11.3,25.2-25.2C338.7,122.7,313.5,95.3,313.4,95.3
					C313.5,95.3,313.4,95.3,313.4,95.3z"/>
			</g>
			<g>
				<g>
					<rect x="274.8" y="32" class="st3" width="7.7" height="14.6"/>
					<circle class="st3" cx="277.5" cy="58.6" r="14.8"/>
					<rect x="257.3" y="53.4" class="st3" width="14.8" height="15.2"/>
					<g>
						<g>
							<path class="st3" d="M319.8,91.5h-15v-19c0-1.4-1.1-2.5-2.5-2.5h-19.7V55h19.7c9.6,0,17.5,7.9,17.5,17.5V91.5z"/>
						</g>
					</g>
				</g>
				<rect x="235.2" y="48.4" class="st25" width="24.4" height="24.1"/>
				<rect x="235.2" y="61" class="st26" width="24.4" height="11.5"/>
				<g>
					<path class="st25" d="M293.7,29.4c0,2.1-1.7,3.9-3.9,3.9h-20.4c-2.1,0-3.9-1.7-3.9-3.9l0,0c0-2.1,1.7-3.9,3.9-3.9h20.4
						C292,25.5,293.7,27.2,293.7,29.4L293.7,29.4z"/>
					<path class="st26" d="M269.5,33.2h20.4c2.1,0,3.9-1.7,3.9-3.9h-28.1C265.6,31.5,267.3,33.2,269.5,33.2z"/>
				</g>
			</g>
		</g>
		<g>
			<g>
				<path class="st3" d="M417,306c0,6.3-10,11.6-11,17.6c-1.1,6.2,6.5,14.6,4.4,20.3c-2.1,5.9-13.3,7.5-16.4,12.8
					c-3.1,5.4,1.1,15.9-2.9,20.6s-15.1,2.4-19.8,6.4c-4.7,4-4.4,15.3-9.7,18.4c-5.3,3.1-14.9-2.9-20.8-0.7
					c-5.7,2.1-9.3,12.9-15.4,13.9c-6,1.1-13-7.8-19.3-7.8s-13.3,8.9-19.3,7.8c-6.2-1.1-9.7-11.8-15.4-13.9
					c-5.9-2.1-15.5,3.8-20.8,0.7c-5.4-3.1-5-14.4-9.7-18.4s-15.8-1.7-19.8-6.4c-4-4.7,0.2-15.2-2.9-20.6
					c-3.1-5.3-14.3-6.9-16.4-12.8c-2.1-5.8,5.5-14.2,4.4-20.3c-1-6-11-11.3-11-17.6c0-6.3,10-11.6,11-17.6
					c1.1-6.2-6.5-14.6-4.4-20.3c2.1-5.9,13.3-7.5,16.4-12.8c3.1-5.4-1.1-15.9,2.9-20.6c4-4.7,15.1-2.4,19.8-6.4s4.4-15.3,9.7-18.4
					c5.3-3.1,14.9,2.9,20.8,0.8c5.7-2.1,9.3-12.9,15.4-13.9c6-1.1,13,7.8,19.3,7.8s13.3-8.9,19.3-7.8c6.2,1.1,9.7,11.8,15.4,13.9
					c5.9,2.1,15.5-3.8,20.8-0.8c5.4,3.1,5,14.4,9.7,18.4s15.8,1.7,19.8,6.4s-0.2,15.2,2.9,20.6c3.1,5.3,14.3,6.9,16.4,12.8
					c2.1,5.7-5.5,14.2-4.4,20.3C407,294.4,417,299.7,417,306z"/>
				<circle class="st4" cx="306" cy="306" r="95.4"/>
				<circle class="st3" cx="306" cy="306" r="77.6"/>
			</g>
			<g>
				<path class="st27" d="M306.7,306.7c10.6,0,19.3-3.3,19.3-7.4s-8.7-7.4-19.3-7.4c-10.6,0-19.3,3.2-19.3,7.4
					C287.4,303.4,296.1,306.7,306.7,306.7L306.7,306.7z"/>
				<polygon class="st28" points="319.7,286.2 323.1,312.4 290.9,325.8 292.8,286.2 				"/>
				<path class="st29" d="M254.8,362l1.4-2.8l10.5-22.6c0.3-1.3-6.6-8.3-7.5-9.3l-6.6-7.7c-1.3-1.5-3.6-1.7-5.1-0.6
					c-0.6,0.4-1.2,1-1.5,1.8l-11.8,29.3l-4.8,11.9L254.8,362L254.8,362z"/>
				<path class="st29" d="M382.6,362h-25.4l-0.8-1.7l-0.6-1.1l-3.3-7.1V352l-0.1-0.1l-0.6-1.2v-0.1l-0.1-0.1l-3.7-8.1l-2.8-5.8
					c-0.3-1.3,6.6-8.3,7.5-9.3l1-1.1l5.6-6.5l0.3-0.3l0,0c1.4-1.3,3.4-1.4,4.9-0.4c0.6,0.4,1.2,1,1.5,1.8l11.7,28.9l0.2,0.4
					L382.6,362z"/>
				<path class="st30" d="M379.1,349l-1.4,0.6l-21.2,10.6l-1,0.5c0,0-1.9-5.7-2.9-8.7l0,0l-0.1-0.1c-0.3-0.9-0.6-1.5-0.6-1.5v0.2
					c-0.3,1.1-0.6,2.3-0.9,3.4c-0.6,2.8-1.2,5.4-1.8,8h-85.4c-0.6-2.9-1.5-6-2.4-9.3l-0.1-0.4v-0.2c-0.2-0.3-0.1,0.2-0.4-1l-3.7,9.3
					l-1.1-1.2l0,0l-21.8-13.1l15.8-36.1c0.3-0.7,3.7-5.3,4.3-5.8c1.1-1.1,2.6-1.9,4.2-2.3l10.3-2l18.7-3.7c0.8-0.2,1.1-0.2,1.9-0.2
					l6.3,5.8c6.2,5.2,16.4,5,22.2-0.6l6-5.1c3.3,0,14.3,2.8,18.3,3.6c6.6,1.4,12.5,2.6,12.7,2.7l0.6,0.3c2.3,1.1,5.2,4.8,6.2,7.2
					L379.1,349z"/>
				<path class="st31" d="M346.5,362h-81.8l-8.4-59.1c0.7-0.4,1.5-0.7,2.4-0.9l10.3-2l1.5-0.3l9.2,30.1l52.2-0.1l7.7-30.5l2.8,0.6
					c3.9,0.8,7.5,1.5,9.9,2.1L351,330L346.5,362z"/>
				<path class="st32" d="M351.8,350.4l-0.1,0.2c-0.2,1.1-0.6,2.3-0.8,3.4c-0.7,2.8-1.3,5.4-1.9,8h-5.8c1.5-5.6,3.2-13.2,4.8-19.5
					c1.6-6.9,2.9-12.4,2.9-12.4L351.8,350.4z"/>
				<path class="st33" d="M294.5,235.5l-5.2,11.3c0,3.7,1.4,7.1,3.6,9.6l25.1,10l7.8-6.2l0.1-18.2l-2.3-1l-2.2-7.5l-16.9-3.9
					L294.5,235.5z"/>
				<path class="st34" d="M308.2,259.9c13.8,0,25-2,25-4.5s-11.2-4.5-25-4.5c-13.9,0-25,2-25,4.5S294.4,259.9,308.2,259.9
					L308.2,259.9z"/>
				<path class="st29" d="M331.5,261.1c-0.7-1.9-1.9-0.9-2.9,0.3c0.2-14.4-7.4-21.7-7.4-21.7h-14.3h-14.3c0,0-7.6,7.3-7.4,21.6
					c-1-1.1-2.2-2-2.8-0.2c-1.3,3.3,1.7,7.9,1.1,12.6c-0.4,3.1,2.1,2.8,3.6,1.9c0.6,2.4,1.5,5.2,2.9,8.4c2.9,7,11.5,13.3,16.8,13.3
					s13.7-6.4,16.8-13.3c1.5-3.2,2.3-5.8,2.9-8.5c1.5,0.9,4.1,1.3,3.7-1.9C329.7,269,332.8,264.4,331.5,261.1L331.5,261.1z"/>
				<path class="st33" d="M323.8,274.4c1.1-10.2,2.2-27.1-13.1-33.8l4.7-2.3c0,0,13.7,2.8,14.9,23.9l-3.6,15.3l0,0
					C324.9,277.5,323.6,276.1,323.8,274.4L323.8,274.4z"/>
				<path class="st33" d="M291.4,274.4c-1.1-10.2-2.2-27.1,13.1-33.8l-4.7-2.3c0,0-13.7,2.8-14.9,23.9l3.6,15.3h0.1
					C290.3,277.5,291.6,276.1,291.4,274.4L291.4,274.4z"/>
				<path class="st31" d="M331.1,253.2c-0.1-0.2-0.1-0.3-0.2-0.6c-0.4-1.1-1.4-4.8-1.4-6.1c0-10.1-9.5-18.4-21.2-18.4
					s-21.2,8.3-21.2,18.4c0,1.2-1,4.7-1.7,6.6h45.7V253.2z"/>
				<path class="st35" d="M308,234.9c3.1,0,5.5-2.4,5.5-5.5c0-3-2.4-5.5-5.5-5.5c-3,0-5.4,2.5-5.4,5.5
					C302.6,232.5,305,234.9,308,234.9L308,234.9z"/>
				<path class="st32" d="M295.8,231.8c1.9-1.2,4.1-2.1,6.4-2.8c0.1,0.4,0.2,0.8,0.2,1.2V245c0,1.9-1.5,3.3-3.2,3.3
					c-1.9,0-3.3-1.5-3.3-3.3v-13.2H295.8z"/>
				<path class="st32" d="M313.9,228.8c2.3,0.6,4.5,1.5,6.3,2.6V245c0,1.9-1.5,3.3-3.3,3.3s-3.3-1.5-3.3-3.3v-14.7
					C313.6,229.7,313.7,229.3,313.9,228.8L313.9,228.8z"/>
				<path class="st32" d="M334.2,253.5c0,1.5-0.8,2.7-1.8,2.7h-48.3c-1.1,0-1.9-1.1-1.9-2.7c0-1.5,0.8-2.6,1.9-2.6h48.3
					C333.4,250.9,334.2,252,334.2,253.5L334.2,253.5z"/>
				<rect x="279.6" y="340.4" class="st32" width="21.8" height="2.9"/>
				<rect x="310" y="329.8" class="st36" width="21.8" height="13.5"/>
				<path class="st37" d="M324.8,330.6h-7c-0.4,0-0.8-0.3-0.8-0.8v-1.4c0-0.4,0.4-0.8,0.8-0.8h7c0.4,0,0.8,0.4,0.8,0.8v1.4
					C325.6,330.3,325.2,330.6,324.8,330.6L324.8,330.6z"/>
				<rect x="321.6" y="332.9" class="st30" width="9.3" height="1.1"/>
				<rect x="321.6" y="335.4" class="st30" width="9.3" height="1.1"/>
				<rect x="321.6" y="337.8" class="st30" width="9.3" height="1.1"/>
				<rect x="314.5" y="337.9" class="st28" width="3.1" height="2.7"/>
				<path class="st29" d="M317.9,336.2L317.9,336.2c0.2,0.1,0.4-0.1,0.5-0.3l0.2-0.6c0-0.2-0.1-0.5-0.3-0.5
					c-0.2-0.1-0.4,0.1-0.5,0.2l-0.2,0.7C317.6,336,317.6,336.1,317.9,336.2L317.9,336.2z"/>
				<path class="st38" d="M317.9,334.3l0.2,2.3c0,0.2,0,0.4-0.1,0.6c0,0.2-0.1,0.4-0.2,0.6l-0.3,0.2l-0.7,1
					c-0.1,0.2-0.4,0.2-0.7,0.2c-0.2,0-0.4-0.1-0.5-0.2l-0.9-0.8l-0.3-0.2c-0.2-0.2-0.3-0.3-0.4-0.6c0-0.2-0.1-0.3-0.1-0.6l-0.2-2.2
					c-0.1-0.9,0.4-1.6,1.1-1.7l1.9-0.2C317.2,332.8,317.9,333.5,317.9,334.3L317.9,334.3z"/>
				<path class="st29" d="M317.6,334.3l0.2,2.2c0,0.2,0,0.4,0,0.6c-0.1,0.2-0.2,0.5-0.3,0.6l-0.2,0.2l-0.7,1
					c-0.1,0.2-0.3,0.2-0.5,0.2s-0.4-0.1-0.5-0.2l-0.9-0.8l-0.3-0.2c-0.2-0.2-0.3-0.3-0.4-0.6c0-0.2-0.1-0.3-0.1-0.6l-0.2-2.2
					c-0.1-0.9,0.4-1.6,1.1-1.7l1.5-0.1C317,332.8,317.6,333.5,317.6,334.3L317.6,334.3z"/>
				<path class="st29" d="M314,336.5L314,336.5c-0.2,0.1-0.4,0-0.5-0.2l-0.3-0.6c-0.1-0.2,0.1-0.4,0.2-0.5c0.2-0.2,0.4-0.1,0.5,0.2
					l0.3,0.6C314.3,336.2,314.2,336.5,314,336.5L314,336.5z"/>
				<polygon class="st33" points="318.1,334.1 318,335.9 317.2,334.8 316.7,334.7 314.3,334.4 314,336.3 314,336.4 314,336.3 
					313.5,334.5 313.8,332.6 314.1,332.6 314.4,331.8 314.6,332 315,331.4 316,332.1 316.3,331.8 317.5,332.8 317.5,332.7 
					317.8,332.5 				"/>
				<path class="st30" d="M318.4,341.5h-4.6c-0.5,0-0.8-0.3-0.8-0.7c0-0.5,0.3-0.8,0.8-0.8h4.6c0.4,0,0.7,0.3,0.7,0.8
					C319.1,341.2,318.8,341.5,318.4,341.5L318.4,341.5z"/>
			</g>
		</g>
	</g>
</g>
</svg>
