<?xml version="1.0" encoding="utf-8"?>
<!-- Generator: Adobe Illustrator 20.1.0, SVG Export Plug-In . SVG Version: 6.00 Build 0)  -->
<svg version="1.1" id="Layer_1" xmlns="http://www.w3.org/2000/svg" xmlns:xlink="http://www.w3.org/1999/xlink" x="0px" y="0px"
	 viewBox="0 0 612 612" style="enable-background:new 0 0 612 612;" xml:space="preserve">
<style type="text/css">
	.st0{fill:#77C3D3;}
	.st1{fill:none;stroke:#FFFFFF;stroke-width:2;stroke-linecap:round;stroke-linejoin:round;stroke-dasharray:4.9962,4.9962;}
	.st2{fill:#FFFFFF;}
	.st3{fill:#FAAF3A;}
	.st4{fill:#00B0B6;}
	.st5{fill:#DE8C26;}
	.st6{opacity:0.6;fill:#FAAF3A;}
	.st7{fill:#F4D881;}
	.st8{fill:#DB3D3A;}
	.st9{opacity:0.15;fill-rule:evenodd;clip-rule:evenodd;fill:#3E3E3D;}
	.st10{fill-rule:evenodd;clip-rule:evenodd;fill:#3E3E3D;}
	.st11{fill-rule:evenodd;clip-rule:evenodd;fill:#E8E7E7;}
	.st12{fill-rule:evenodd;clip-rule:evenodd;fill:#333645;}
	.st13{opacity:8.000000e-02;fill-rule:evenodd;clip-rule:evenodd;fill:#3E3E3D;}
	.st14{fill:#C1C3CF;}
	.st15{fill:#2EBEC7;}
	.st16{clip-path:url(#SVGID_2_);}
	.st17{fill:#1689A7;}
	.st18{fill:#F27433;stroke:#FFFFFF;stroke-width:2;stroke-miterlimit:10;}
	.st19{fill:#E85826;}
	.st20{fill:#FDF49F;}
	.st21{fill:#C5BC76;}
	.st22{font-family:'BebasNeue';}
	.st23{font-size:8.4774px;}
	.st24{fill:#413D3A;}
	.st25{fill:#28B898;}
	.st26{fill:#F8AE19;}
	.st27{fill:#F27433;}
	.st28{fill-rule:evenodd;clip-rule:evenodd;fill:#FBAD18;}
	.st29{fill-rule:evenodd;clip-rule:evenodd;fill:#FFEBBF;}
	.st30{fill:#FBAD18;}
</style>
<circle class="st0" cx="306" cy="306" r="306"/>
<g>
	<circle class="st1" cx="306" cy="306" r="184.5"/>
</g>
<polygon class="st2" points="437.7,71 338.8,71 348.7,61.1 373.4,61.1 378.3,56.2 398.1,56.2 403,61.1 427.8,61.1 "/>
<g>
	<polygon class="st2" points="447.5,179.8 447.5,184.7 398.1,184.7 398.1,169.9 378.3,169.9 378.3,184.7 328.9,184.7 328.9,179.8 
		333.8,179.8 333.8,174.8 338.8,174.8 338.8,75.9 437.7,75.9 437.7,174.8 442.6,174.8 442.6,179.8 	"/>
	<rect x="353.6" y="150.1" class="st0" width="19.8" height="9.9"/>
	<rect x="353.6" y="130.3" class="st0" width="19.8" height="9.9"/>
	<rect x="353.6" y="110.5" class="st0" width="19.8" height="9.9"/>
	<rect x="353.6" y="90.8" class="st0" width="19.8" height="9.9"/>
	<rect x="378.3" y="150.1" class="st0" width="19.8" height="9.9"/>
	<rect x="378.3" y="130.3" class="st0" width="19.8" height="9.9"/>
	<rect x="378.3" y="110.5" class="st0" width="19.8" height="9.9"/>
	<rect x="378.3" y="90.8" class="st0" width="19.8" height="9.9"/>
	<rect x="403" y="150.1" class="st0" width="19.8" height="9.9"/>
	<rect x="403" y="130.3" class="st0" width="19.8" height="9.9"/>
	<rect x="403" y="110.5" class="st0" width="19.8" height="9.9"/>
	<rect x="403" y="90.8" class="st0" width="19.8" height="9.9"/>
</g>
<g>
	<g>
		<polygon class="st3" points="430.7,375.7 430.7,427.5 522.3,427.5 522.3,375.7 		"/>
		<g>
			<g>
				<path class="st4" d="M466.5,395.7H455l0,1.7h10.9C466,396.8,466.2,396.2,466.5,395.7z"/>
				<path class="st4" d="M487.6,400.7c0,0.3,0,0.6,0,0.9c0,0.3,0,0.6,0,0.9H502v-1.7H487.6z"/>
				<path class="st4" d="M465.3,401.6c0-0.3,0-0.6,0-0.8H451l0,1.7h14.3C465.4,402.2,465.3,401.9,465.3,401.6z"/>
				<path class="st4" d="M498,397.4l0-1.7h-11.5c0.2,0.5,0.4,1.1,0.6,1.7H498z"/>
				<path class="st4" d="M486.5,407.5l11.5,0l0-1.7h-10.9C487,406.4,486.8,407,486.5,407.5z"/>
				<path class="st4" d="M465.9,405.8H455v1.7l11.5,0C466.2,407,466,406.4,465.9,405.8z"/>
			</g>
		</g>
		<polygon class="st5" points="506.9,378.5 446.1,378.5 433.5,378.5 433.5,391.1 433.5,412.1 433.5,424.7 446.1,424.7 506.9,424.7 
			519.5,424.7 519.5,412.1 519.5,391.1 519.5,378.4 		"/>
		<path class="st6" d="M516.8,411.8c-2.4,0.2-4.9,1.4-6.9,3.3c-2,2-3.1,4.5-3.3,6.9l-60.2,0c-0.2-2.4-1.4-4.9-3.3-6.9
			c-2-2-4.4-3.1-6.9-3.3v-20.4c2.4-0.2,4.9-1.4,6.9-3.3c2-2,3.1-4.5,3.3-6.9l60.2,0c0.2,2.4,1.4,4.9,3.3,6.9c2,2,4.4,3.1,6.9,3.3
			L516.8,411.8z"/>
		<g>
			<path class="st7" d="M490.9,401.6c0,9.3-6.4,16.8-14.4,16.8c-7.9,0-14.4-7.5-14.4-16.8c0-9.3,6.4-16.8,14.4-16.8
				C484.4,384.8,490.9,392.3,490.9,401.6z"/>
			<path class="st8" d="M482.6,405.2c0-3.2-2.7-4.1-5.2-4.8l0-5.3c1.4,0.2,2.6,0.8,3.6,1.9l1.2-1.5c-1.2-1.2-2.8-2.1-4.8-2.2v-2.2
				h-1.5l0,2.2c-2.9,0.2-5,2-5,4.5c0,3,2.6,3.8,5,4.5l0,5.9c-1.9-0.2-3.4-1.2-4.3-2.3l-1.2,1.6c1.2,1.4,3.1,2.4,5.5,2.5l0,2.1h1.5
				V410C481.2,409.7,482.6,407.4,482.6,405.2z"/>
		</g>
		<path class="st7" d="M475.9,395.1l0,4.9c-1.7-0.5-2.9-1.1-2.9-2.4C473,396.2,474.2,395.2,475.9,395.1z"/>
		<path class="st7" d="M477.4,402.6l0,5.5c2.3-0.3,3.1-1.6,3.1-2.8C480.5,403.8,479.1,403.1,477.4,402.6z"/>
	</g>
	<g>
		<polygon class="st3" points="440.2,436.4 440.1,466.8 494,466.8 494,436.4 		"/>
		<g>
			<g>
				<path class="st4" d="M461.2,448.1h-6.8l0,1h6.4C460.9,448.8,461.1,448.4,461.2,448.1z"/>
				<path class="st4" d="M473.7,451.1c0,0.2,0,0.3,0,0.5c0,0.2,0,0.3,0,0.5h8.4v-1H473.7z"/>
				<path class="st4" d="M460.5,451.6c0-0.2,0-0.3,0-0.5h-8.5l0,1h8.4C460.5,451.9,460.5,451.8,460.5,451.6z"/>
				<path class="st4" d="M479.8,449.1l0-1H473c0.1,0.3,0.2,0.7,0.3,1H479.8z"/>
				<path class="st4" d="M473,455.1l6.8,0l0-1h-6.4C473.3,454.4,473.1,454.8,473,455.1z"/>
				<path class="st4" d="M460.8,454.1h-6.4v1l6.7,0C461.1,454.8,460.9,454.4,460.8,454.1z"/>
			</g>
		</g>
		<polygon class="st5" points="485,438 449.2,438 441.8,438 441.8,445.4 441.8,457.8 441.8,465.2 449.2,465.2 485,465.2 
			492.4,465.2 492.4,457.8 492.4,445.4 492.4,438 		"/>
		<path class="st6" d="M490.8,457.6c-1.4,0.1-2.9,0.8-4,2c-1.2,1.2-1.8,2.6-1.9,4l-35.4,0c-0.1-1.4-0.8-2.9-1.9-4
			c-1.2-1.2-2.6-1.9-4-2v-12c1.4-0.1,2.9-0.8,4-2c1.2-1.2,1.8-2.6,1.9-4l35.4,0c0.1,1.4,0.8,2.9,1.9,4c1.2,1.2,2.6,1.9,4,2
			L490.8,457.6z"/>
		<g>
			<ellipse class="st7" cx="467.1" cy="451.6" rx="8.5" ry="9.9"/>
			<path class="st8" d="M470.7,453.7c0-1.9-1.6-2.4-3-2.8l0-3.1c0.8,0.1,1.5,0.5,2.1,1.1l0.7-0.9c-0.7-0.7-1.6-1.2-2.8-1.3v-1.3
				h-0.9l0,1.3c-1.7,0.1-3,1.2-2.9,2.6c0,1.8,1.5,2.2,2.9,2.6l0,3.5c-1.1-0.1-2-0.7-2.5-1.3l-0.7,0.9c0.7,0.8,1.8,1.4,3.2,1.5l0,1.3
				h0.9v-1.3C469.8,456.4,470.7,455,470.7,453.7z"/>
		</g>
		<path class="st7" d="M466.8,447.8l0,2.9c-1-0.3-1.7-0.6-1.7-1.4C465,448.4,465.8,447.8,466.8,447.8z"/>
		<path class="st7" d="M467.6,452.2l0,3.3c1.4-0.1,1.8-1,1.8-1.6C469.5,452.9,468.6,452.5,467.6,452.2z"/>
	</g>
	<g>
		<path class="st9" d="M298.1,537c42.2,0,76.4,1.5,76.4,3.4c0,1.9-34.2,3.4-76.4,3.4c-42.2,0-76.4-1.5-76.4-3.4
			C221.7,538.5,255.9,537,298.1,537z"/>
		<path class="st10" d="M144.4,476.9V301.2c0-3.8,3-6.8,6.8-6.8H439c3.8,0,6.8,3,6.8,6.8v175.7H144.4z"/>
		<path class="st11" d="M439,504.1H151.2c-3.8,0-6.8-3-6.8-6.8v-20.4h301.4v20.4C445.8,501,442.8,504.1,439,504.1z"/>
		<path class="st11" d="M247.2,539.6v-3.7l11.9-1.5l8.2-31.3h60.8l8.2,31.3l11.9,1.5v3.7H247.2z"/>
		<path class="st11" d="M298.1,298.7c0.9,0,1.6,0.7,1.6,1.6c0,0.9-0.7,1.6-1.6,1.6c-0.9,0-1.6-0.7-1.6-1.6
			C296.5,299.4,297.2,298.7,298.1,298.7z"/>
		<path class="st12" d="M436.5,306.3V465H153.8V306.3H436.5z"/>
		<path class="st13" d="M266.2,509l1.1-5.9h60.8l1.1,5.9H266.2z"/>
		<g>
			<rect x="160" y="310" class="st14" width="78.3" height="155"/>
			<g>
				<rect x="168.3" y="328.7" class="st2" width="60.4" height="5.2"/>
				<rect x="168.3" y="345" class="st2" width="60.4" height="5.2"/>
				<rect x="168.3" y="361.2" class="st2" width="60.4" height="5.2"/>
				<rect x="168.3" y="377.5" class="st2" width="60.4" height="5.2"/>
				<rect x="168.3" y="393.7" class="st2" width="60.4" height="5.2"/>
				<rect x="168.3" y="409.9" class="st2" width="60.4" height="5.2"/>
				<rect x="168.3" y="426.2" class="st2" width="60.4" height="5.2"/>
				<rect x="168.3" y="442.4" class="st2" width="60.4" height="5.2"/>
			</g>
			<rect x="248.2" y="426.2" class="st14" width="184.5" height="5.2"/>
			<rect x="248.2" y="439.8" class="st14" width="184.5" height="5.2"/>
			<rect x="248.2" y="310" class="st15" width="184.5" height="105.1"/>
			<g>
				<defs>
					<rect id="SVGID_1_" x="248.2" y="310" width="184.5" height="105.1"/>
				</defs>
				<clipPath id="SVGID_2_">
					<use xlink:href="#SVGID_1_"  style="overflow:visible;"/>
				</clipPath>
				<g class="st16">
					<polygon class="st17" points="241.7,416.6 241.7,377.4 270.3,352 307,388.5 308.5,388.5 355.3,339.1 411.6,365.9 412.7,365.8 
						439,344 439,416.6 					"/>
					<path class="st2" d="M355.5,340.3l55.7,26.6l2.1-0.3l24.7-20.5v69.5H242.7v-37.8l27.5-24.5l36.1,35.8l2.9,0L355.5,340.3
						 M355.1,337.8l-47.4,49.9l-37.4-37.2l-29.6,26.3v40.7H440v-75.7l-28,23.2L355.1,337.8L355.1,337.8z"/>
				</g>
			</g>
			<circle class="st18" cx="269.9" cy="350.2" r="5.7"/>
			<circle class="st18" cx="308.2" cy="388" r="5.7"/>
			<circle class="st18" cx="355.1" cy="339.6" r="5.7"/>
			<circle class="st18" cx="413" cy="366.4" r="5.7"/>
		</g>
	</g>
	<g>
		<path class="st19" d="M187.2,504.1c0,3.2-1,6.4-4.3,6.4H94.2c-3.3,0-6.9-3.2-6.9-6.4v-55.4c0-3.2,3.6-4.8,6.9-4.8h88.7
			c3.3,0,4.3,1.6,4.3,4.8V504.1z"/>
		<path class="st20" d="M121,462.5c0,3-2.5,5.5-5.5,5.5h-14c-3,0-5.5-2.5-5.5-5.5v-9c0-3,2.5-5.5,5.5-5.5h14c3,0,5.5,2.5,5.5,5.5
			V462.5z"/>
		<g>
			<g>
				<rect x="100" y="448" class="st21" width="3" height="20"/>
			</g>
			<g>
				<rect x="96" y="454" class="st21" width="7" height="3"/>
			</g>
			<g>
				<polygon class="st21" points="103.7,457 96.1,457 96.1,457 103.7,457 				"/>
			</g>
			<g>
				<polygon class="st21" points="102.9,457 95.1,457 95.1,457 102.9,457 				"/>
			</g>
			<g>
				<polygon class="st21" points="102.9,459 95.1,459 95.1,459 102.9,459 				"/>
			</g>
		</g>
		<g>
			<g>
				<rect x="105" y="448.4" class="st21" width="0" height="20"/>
			</g>
			<g>
				<rect x="105" y="453" class="st21" width="16" height="1"/>
			</g>
			<g>
				<polygon class="st21" points="104.2,457 121.1,457 121.1,457 104.2,457 				"/>
			</g>
			<g>
				<polygon class="st21" points="105.3,457 121.5,457 121.5,457 105.3,457 				"/>
			</g>
			<g>
				<rect x="105" y="457" class="st21" width="16" height="2"/>
			</g>
		</g>
		<text transform="matrix(1 0 0 1 149.9211 460.187)" class="st20 st22 st23">BANK NAME</text>
		<text transform="matrix(1 0 0 1 94.0945 490.9878)"><tspan x="0" y="0" class="st20 st22 st23">1234    5678   3456</tspan><tspan x="49.5" y="0" class="st20 st22 st23">	</tspan></text>
	</g>
	<g>
		<path class="st24" d="M179.4,195.7c1.5,1.8,2.2,3.9,1.9,6.2h0c-0.2,2.3-1.2,4.3-3,5.8l-26.9,22.6h25.2v8.5c-1.1,0-2.4-0.1-3.8-0.1
			c0,0-0.1,0-0.1,0h-17.6c-5.1,0-9.4,1.7-13.1,5.1c-0.2,0.2-0.4,0.4-0.7,0.6c-3.8,3.8-5.7,8.4-5.7,13.8v0c0,5.4,1.9,9.9,5.7,13.7
			c3.8,3.8,8.4,5.7,13.8,5.7h17.6c1.3,0,2.6-0.1,3.8-0.3c-0.2,1.5-0.9,2.8-2,3.9c-1.4,1.4-3,2.1-5,2.1H94.3c-1.9,0-3.6-0.7-5-2.1
			c-1.4-1.4-2.1-3-2.1-5v-53.6c0-1.7,0.5-3.1,1.5-4.4c0.2-0.2,0.3-0.4,0.5-0.6c1-1,2.2-1.7,3.6-1.9c0.5-0.9,1.1-1.6,2-2.3l51.8-43.4
			c1.8-1.5,3.9-2.2,6.2-1.9c2.3,0.2,4.3,1.2,5.8,3L179.4,195.7z"/>
		<path class="st25" d="M183.4,205.9c1-0.8,1.5-1.8,1.6-3.1v0c0.1-1.2-0.2-2.3-1-3.3l-11.7-14l-57.6,48.3h35.5L183.4,205.9z"/>
		<path class="st25" d="M152.6,172.3c-1.2-0.1-2.2,0.2-3.1,1l-51.8,43.4c-0.9,0.7-1.4,1.7-1.5,2.8c0,0,0,0,0,0
			c-0.1,1.2,0.2,2.2,1,3.1l1.4,1.6l58.2-48.8l-1.4-1.6C154.7,172.9,153.7,172.4,152.6,172.3z"/>
		<path class="st24" d="M144.8,248.5L144.8,248.5c0.9-0.9,1.8-1.6,2.8-2.2c2.1-1.2,4.4-1.8,7-1.8h17.5c2.8,0.1,5,0.2,6.7,0.3
			c0.5,0,1-0.1,1.5-0.3c0.5-0.2,0.8-0.6,1.1-1c0.3-0.4,0.4-0.9,0.4-1.4v-7.2c0.9,0.2,1.6,0.7,2.3,1.4c0.9,1,1.5,2.1,1.6,3.4
			c0,0.1,0,0.1,0,0.2v21.9c-0.6,2.4-1.8,4.6-3.7,6.5c-2.7,2.7-6,4.1-9.8,4.1h-17.6c-3.8,0-7.1-1.4-9.8-4.1c-2.7-2.7-4.1-6-4.1-9.8v0
			C140.7,254.5,142.1,251.3,144.8,248.5z"/>
		<path class="st24" d="M176.7,222.2c0,0.1,0,0.3,0,0.4h-11.3l7.5-6.3c0.6,0.3,1.2,0.8,1.8,1.3C175.9,218.9,176.6,220.5,176.7,222.2
			z"/>
		<path class="st24" d="M145.4,258.5c0,1.2,0.4,2.3,1.3,3.2c0.9,0.9,1.9,1.3,3.2,1.3s2.3-0.4,3.2-1.3c0.9-0.9,1.3-1.9,1.3-3.2
			c0-1.2-0.4-2.3-1.3-3.2c-0.9-0.9-1.9-1.3-3.2-1.3s-2.3,0.4-3.2,1.3C145.8,256.2,145.4,257.3,145.4,258.5z"/>
		<circle class="st26" cx="163.9" cy="258.8" r="7.1"/>
	</g>
	<g>
		<path class="st24" d="M513.5,283.6c0-8.4-2.1-18.6-2.3-19.6c-0.1-10.3-8.3-18.5-18.3-22.9l0.2-0.8v-0.7c0-0.8-0.6-1.3-1.2-1.6
			c0.5-0.5,1.4-1.6,2.3-2.7c0.6-0.8,1.3-1.6,1.8-2.2l0.6-0.8l0.2-0.4c0.1-0.1,0.1-0.2,0.2-0.6l-0.2-0.6l-0.7-0.3
			c-0.5,0.1-0.6,0.2-0.8,0.3c-0.7,0.5-1.8,0.7-3,0.7c-3.9,0-9.3-2.2-13.1-2.3c-1.5,0-3,0.4-3.7,1.9l-0.2,0.8c0,0.9,0.4,1.6,1,2.3
			c1.2,1.6,3.1,3.3,3.9,4c-0.5,0.3-1,0.8-1,1.5v0.7l0.2,0.8c-10,4.4-18.2,12.5-18.3,22.9c-0.2,1.1-2.3,11.2-2.3,19.6
			c0,4.5,0.5,8.4,2.6,10.6c4.7,4.6,14.7,6.6,24.8,6.7c10.1,0,20.1-2.1,24.8-6.7l-0.6-0.6l0.6,0.6C513,292,513.5,288,513.5,283.6z"/>
		<path class="st2" d="M479.4,234.9c-0.6-0.6-1.2-1.2-1.6-1.8c-0.4-0.6-0.6-1.1-0.6-1.2l0,0c0.3-0.6,0.8-0.8,2.1-0.9
			c3.1,0,8.6,2.2,13.1,2.3c0.5,0,0.9,0,1.4-0.1c-0.3,0.4-0.7,0.9-1.1,1.3c-0.8,1-1.6,1.9-2.1,2.4h-9
			C481.1,236.5,480.2,235.7,479.4,234.9z"/>
		<path class="st2" d="M491.8,239.6v0.7l-0.1,0.1c-0.1,0.2-0.6,0.4-1.3,0.5h-8.5l-0.9-0.3l-0.4-0.3l-0.1-0.1v-0.7l0.1-0.1
			c0.2-0.2,1-0.6,2.1-0.6h7c0.7,0,1.3,0.1,1.7,0.3L491.8,239.6L491.8,239.6z"/>
		<path class="st2" d="M509.6,292.9c-3.9,3.9-13.7,6.2-23.5,6.1c-9.8,0-19.6-2.2-23.5-6.1c-1.4-1.3-2.1-5-2-9.3
			c0-8.6,2.3-19.3,2.3-19.3l0-0.1v-0.1c0-9.3,7.6-17,17.2-21.3h12c9.6,4.2,17.2,12,17.2,21.3v0.1l0,0.1c0,0,0.6,2.7,1.1,6.4
			c0.6,3.8,1.1,8.6,1.1,12.9C511.7,287.9,511,291.6,509.6,292.9z"/>
		<path class="st27" d="M486.9,266.2v-9.8c1.6,0.1,2.7,0.7,3.6,1.8c1,1.2,1.6,3,1.8,5.3l0,0.4h1.8l0.8-6.8l-0.2-0.2
			c-2.1-1.9-4.7-2.9-7.8-3.1v-2.3h-2.3v0.5v1.9c-2.3,0.2-4.4,1-6,2.6c-1.8,1.6-2.7,3.6-2.7,5.9c0,1.9,0.6,3.6,1.9,5.1
			c1.2,1.5,3.5,3.4,6.8,5.8V284c-3.4-0.5-5.4-2.9-5.9-7.7l0-0.4h-1.7l-1.3,6.9l0.2,0.2c2.2,2.2,5.1,3.5,8.8,3.6v3.3h2.3v-3.3
			c2.8-0.1,5.1-0.9,6.9-2.3c1.9-1.6,2.9-3.7,2.9-6.1c0-2-0.7-3.9-2-5.6C493.3,270.8,490.8,268.8,486.9,266.2z"/>
		<path class="st2" d="M484.6,264.6c-2.5-1.8-3.7-3.4-3.6-4.8c0-0.9,0.4-1.6,1.1-2.3c0.7-0.6,1.5-0.9,2.5-1.1V264.6z"/>
		<path class="st2" d="M490,282.9c-0.8,0.7-1.8,1.1-3.1,1.2v-9.2c1.6,1,2.7,2,3.4,2.7c0.7,0.9,1.1,1.7,1.1,2.6
			C491.3,281.3,490.9,282.1,490,282.9z"/>
	</g>
	<g>
		<path class="st28" d="M239.2,235.9c12.1,0,22-9.9,22-22s-9.9-22-22-22c-12.1,0-22,9.9-22,22S227.1,235.9,239.2,235.9z"/>
		<path class="st29" d="M239.2,232.5c10.3,0,18.6-8.4,18.6-18.6c0-10.3-8.4-18.6-18.6-18.6c-10.3,0-18.6,8.4-18.6,18.6
			C220.6,224.1,228.9,232.5,239.2,232.5z"/>
		<path class="st30" d="M232.8,217.5c1,1.2,2,2.1,3.1,2.6c1,0.6,2.1,0.9,3.2,0.9c0.9,0,1.6-0.3,2.2-0.8c0.6-0.5,0.9-1.1,0.9-1.9
			c0-0.8-0.2-1.5-0.7-1.9c-0.5-0.4-1.6-0.9-3.3-1.4c-2.7-0.7-4.5-1.6-5.6-2.7c-1.1-1.1-1.6-2.6-1.6-4.5c0-2.3,0.7-4.2,2.2-5.7
			c1.5-1.5,3.5-2.3,6.1-2.6v-2.5h2.3l0,2.4c1,0.1,2,0.3,3,0.7c1,0.4,2,0.9,2.9,1.5l-2.2,5c-0.8-0.7-1.6-1.2-2.4-1.5
			c-0.8-0.3-1.7-0.5-2.5-0.5c-0.8,0-1.5,0.2-2,0.6c-0.5,0.4-0.8,0.9-0.8,1.5c0,0.7,0.2,1.2,0.7,1.6c0.5,0.4,1.4,0.8,2.7,1.1l0.2,0.1
			c2.9,0.8,4.8,1.6,5.7,2.6c0.6,0.6,1.1,1.4,1.4,2.3c0.3,0.9,0.5,1.9,0.5,2.9c0,2.4-0.7,4.5-2.2,6.1c-1.5,1.6-3.5,2.5-5.9,2.8v4.3
			h-2.3v-4.2c-1.7,0-3.2-0.3-4.6-0.9c-1.4-0.6-2.7-1.5-4-2.8L232.8,217.5z"/>
	</g>
	<g>
		<path class="st28" d="M291.7,263.8c9.2,0,16.7-7.5,16.7-16.7c0-9.2-7.5-16.7-16.7-16.7c-9.2,0-16.7,7.5-16.7,16.7
			C275,256.3,282.5,263.8,291.7,263.8z"/>
		<path class="st29" d="M291.7,261.3c7.8,0,14.1-6.3,14.1-14.1s-6.4-14.1-14.1-14.1c-7.8,0-14.1,6.3-14.1,14.1
			S283.9,261.3,291.7,261.3z"/>
		<path class="st30" d="M286.8,249.9c0.8,0.9,1.5,1.6,2.3,2c0.8,0.4,1.6,0.7,2.4,0.7c0.7,0,1.2-0.2,1.7-0.6c0.4-0.4,0.7-0.9,0.7-1.5
			c0-0.6-0.2-1.1-0.6-1.5c-0.4-0.3-1.2-0.7-2.5-1.1c-2-0.6-3.4-1.2-4.2-2.1c-0.8-0.8-1.2-2-1.2-3.4c0-1.8,0.6-3.2,1.7-4.3
			c1.1-1.1,2.7-1.8,4.7-2v-1.9h1.7l0,1.8c0.8,0.1,1.5,0.3,2.3,0.5c0.7,0.3,1.5,0.7,2.2,1.2l-1.7,3.8c-0.6-0.5-1.2-0.9-1.9-1.2
			c-0.6-0.3-1.3-0.4-1.9-0.4c-0.6,0-1.2,0.2-1.6,0.4c-0.4,0.3-0.6,0.7-0.6,1.2c0,0.5,0.2,0.9,0.5,1.2c0.3,0.3,1,0.6,2.1,0.8l0.2,0
			c2.2,0.6,3.6,1.2,4.3,2c0.5,0.5,0.8,1.1,1.1,1.7c0.2,0.7,0.4,1.4,0.4,2.2c0,1.9-0.6,3.4-1.7,4.6c-1.1,1.2-2.6,1.9-4.5,2.1v3.3H291
			v-3.2c-1.3,0-2.4-0.3-3.5-0.7c-1.1-0.5-2.1-1.2-3.1-2.1L286.8,249.9z"/>
	</g>
</g>
</svg>
