<?xml version="1.0" encoding="utf-8"?>
<!-- Generator: Adobe Illustrator 20.0.0, SVG Export Plug-In . SVG Version: 6.00 Build 0)  -->
<svg version="1.1" id="Layer_1" xmlns="http://www.w3.org/2000/svg" xmlns:xlink="http://www.w3.org/1999/xlink" x="0px" y="0px"
	 viewBox="0 0 612 612" style="enable-background:new 0 0 612 612;" xml:space="preserve">
<style type="text/css">
	.st0{fill:#EF6358;}
	.st1{fill:#FBDBDA;}
	.st2{fill-rule:evenodd;clip-rule:evenodd;fill:#4073A0;}
	.st3{fill-rule:evenodd;clip-rule:evenodd;fill:#FFFCF9;}
	.st4{fill-rule:evenodd;clip-rule:evenodd;fill:#BBD9F2;}
	.st5{fill-rule:evenodd;clip-rule:evenodd;fill:#4D85B8;}
	.st6{fill-rule:evenodd;clip-rule:evenodd;fill:#5995CA;}
	.st7{fill:#544741;}
	.st8{fill:#FFFFFF;}
	.st9{fill:#F06162;}
	.st10{fill:#52B8E4;}
	.st11{fill:#47BEA9;}
	.st12{fill:#FFCC63;}
	.st13{fill:#94B94F;}
	.st14{fill:#6B8739;}
</style>
<g>
	<circle class="st0" cx="306" cy="306" r="306"/>
	<g>
		<g>
			<path class="st1" d="M358,466.3c2-0.7,1.6-3.8-0.7-3.8c-0.2,0-0.4,0-0.7,0.1l-1.1,0.4l-1.1,0.4l-1.1,0.4l-0.4,0.1
				c-2.3,0.8-1.4,4.1,0.9,3.8c0.1,0,0.2,0,0.3-0.1l0.4-0.1l1.1-0.4l1.1-0.4L358,466.3L358,466.3z M176.5,433.8L176.5,433.8l1.8,1.5
				l2.5-3.1l0,0c0.2,0.1,0.3,0.3,0.4,0.5c1.2,1.9-1.2,4-2.9,2.6l0,0l-0.9-0.7L176.5,433.8L176.5,433.8L176.5,433.8z M176.5,431.2v-2
				c0.4,0,0.9,0.1,1.3,0.5L176.5,431.2L176.5,431.2z M368.7,457.8c-1.8,0.8-1.4,3.6,0.7,3.8c0.3,0,0.6,0,0.9-0.2l1-0.4l1.1-0.5
				l1.1-0.5l0.5-0.2c2.1-1,1.1-4.2-1.3-3.7c-0.1,0-0.3,0.1-0.4,0.1l-0.5,0.2l-1,0.5l-1,0.5L368.7,457.8L368.7,457.8z M389.4,447
				c-1.8,1.1-0.8,3.9,1.3,3.6c0.3,0,0.5-0.1,0.7-0.3l0.4-0.2l1-0.6l1-0.6l1-0.6l0,0c1.9-1.3,0.5-4.3-1.8-3.5c-0.1,0-0.2,0.1-0.4,0.2
				l0,0l-1,0.6l-1,0.6l-1,0.6L389.4,447L389.4,447z M408.5,433.7c-1.8,1.5,0,4.3,2.1,3.3c0.1-0.1,0.2-0.1,0.3-0.2l0.5-0.4l0.9-0.7
				l0.9-0.7l0.8-0.7c1.6-1.3,0.3-3.9-1.8-3.4c-0.3,0.1-0.5,0.2-0.8,0.4l-0.8,0.7l-0.9,0.7l-0.9,0.7L408.5,433.7L408.5,433.7z
				 M425.7,418c-1.4,1.4,0,3.8,2,3.2c0.3-0.1,0.6-0.3,0.8-0.5l0.3-0.3l0.8-0.8l0.8-0.8l0.8-0.8l0.1-0.2c1.4-1.5-0.3-4-2.3-3.1
				c-0.2,0.1-0.4,0.3-0.6,0.5l-0.1,0.1l-0.7,0.8l-0.8,0.8l-0.8,0.8L425.7,418L425.7,418z M440.8,400.2c-1.3,1.8,0.9,4,2.7,2.8
				c0.2-0.1,0.3-0.3,0.4-0.4l0,0l0.7-0.9l0.7-0.9l0.6-0.9l0.4-0.5c0.3-0.4,0.4-1,0.3-1.6c-0.4-1.7-2.5-2.1-3.5-0.7l-0.4,0.5
				l-0.6,0.9l-0.6,0.9L440.8,400.2L440.8,400.2L440.8,400.2z M453.5,380.6c-1.1,1.9,1.3,3.9,3.1,2.4c0.1-0.1,0.3-0.3,0.4-0.5
				l0.3-0.5l0.5-1l0.5-1l0.5-1l0,0c1-1.8-1.2-3.7-2.9-2.5c-0.2,0.2-0.4,0.4-0.6,0.7l0,0l-0.5,1l-0.5,1l-0.5,1L453.5,380.6
				L453.5,380.6z M463.5,359.5c-0.8,2.2,2.1,3.8,3.5,1.8c0.1-0.1,0.1-0.2,0.2-0.4l0,0l0.4-1l0.4-1l0.4-1l0.2-0.6
				c0.7-2-1.7-3.6-3.3-2.1c-0.2,0.2-0.3,0.4-0.4,0.7l-0.2,0.5l-0.4,1l-0.4,1L463.5,359.5L463.5,359.5L463.5,359.5z M470.8,337.4
				c-0.2,0.6,0,1.3,0.4,1.8c1,1.2,3,0.8,3.4-0.8l0.2-0.6l0.3-1.1l0.3-1.1l0.3-1.1c0.2-0.9-0.2-1.8-1-2.2c-1.1-0.6-2.5,0.1-2.8,1.3
				l-0.3,1.1l-0.3,1.1l-0.3,1.1L470.8,337.4L470.8,337.4z M475.2,314.4c-0.2,2.2,2.7,3.1,3.7,1.1c0.1-0.2,0.2-0.4,0.2-0.6l0-0.2
				l0.1-1.1l0.1-1.1l0.1-1.1l0-0.4c0.2-2.1-2.6-3-3.7-1.1c-0.1,0.2-0.2,0.5-0.2,0.7l0,0.4l-0.1,1.1l-0.1,1.1l-0.1,1.1L475.2,314.4
				L475.2,314.4z M476.5,291.2c0,2.1,3,2.8,3.8,0.7c0.1-0.2,0.1-0.4,0.1-0.7v0l0-1.1l0-1.1l0-1.1l0-0.6c0-0.8-0.5-1.5-1.2-1.8
				c-1.3-0.6-2.8,0.5-2.7,1.9l0,0.5l0,1.1l0,1.1L476.5,291.2L476.5,291.2L476.5,291.2z M474.9,267.9c0.1,0.6,0.4,1.1,0.9,1.4
				c1.4,0.9,3.2-0.3,3-1.9l0-0.1l-0.2-1.1l-0.2-1.1l-0.2-1.1l-0.1-0.4c0-0.2-0.1-0.5-0.2-0.7c-1.2-1.9-4-0.8-3.6,1.3l0.1,0.4
				l0.2,1.1l0.2,1.1l0.2,1.1L474.9,267.9L474.9,267.9z M470.2,245c0.2,0.7,0.7,1.2,1.5,1.4c1.4,0.3,2.7-1,2.3-2.4l-0.2-0.7l-0.3-1.1
				l-0.3-1.1l-0.3-0.9c-0.3-0.9-1.1-1.4-2-1.4c-1.3,0.1-2.1,1.3-1.8,2.5l0.2,0.8l0.3,1.1l0.3,1.1L470.2,245L470.2,245z M462.7,223
				c0.9,2.2,4.2,1.2,3.7-1.1c0-0.1-0.1-0.2-0.1-0.4l-0.2-0.6l-0.5-1.1l-0.5-1.1l-0.4-0.9c-0.8-1.9-3.8-1.3-3.8,0.9
				c0,0.3,0.1,0.5,0.2,0.7l0.4,0.9l0.5,1.1l0.4,1.1L462.7,223L462.7,223z M452.4,202c0.4,0.7,1.3,1.1,2.2,0.9
				c1.3-0.3,1.9-1.7,1.3-2.9l-0.1-0.1l-0.6-1l-0.6-1l-0.6-1l-0.2-0.3c-1.1-1.8-3.9-0.8-3.6,1.3c0,0.3,0.1,0.5,0.3,0.7l0.2,0.3l0.6,1
				l0.6,1l0.6,1L452.4,202L452.4,202z M439.5,182.6c1.3,1.7,4,0.5,3.5-1.7c-0.1-0.3-0.2-0.5-0.3-0.7l-0.2-0.3l-0.7-0.9l-0.7-0.9
				l-0.7-0.9l-0.1-0.2c-1.5-1.8-4.3,0-3.3,2.1c0.1,0.1,0.1,0.2,0.2,0.3l0.1,0.2l0.7,0.9l0.7,0.9l0.7,0.9L439.5,182.6L439.5,182.6z
				 M424.2,165c0.7,0.7,1.7,0.8,2.5,0.3c1.1-0.7,1.2-2.2,0.3-3l-0.2-0.2l-0.8-0.8l-0.8-0.8l-0.8-0.8l-0.3-0.3
				c-0.3-0.3-0.7-0.5-1.1-0.5c-1.9-0.2-3,2-1.6,3.4l0.3,0.3l0.8,0.8l0.8,0.8l0.8,0.8L424.2,165L424.2,165z M406.8,149.5
				c1.7,1.3,4.1-0.8,2.8-2.7c-0.1-0.2-0.2-0.3-0.4-0.4l-0.8-0.6l-0.9-0.7l-0.9-0.7L406,144c-1.7-1.3-3.9,0.7-2.9,2.6
				c0.1,0.2,0.3,0.4,0.5,0.6l0.6,0.5l0.9,0.7l0.9,0.7L406.8,149.5L406.8,149.5z M387.5,136.4c1.8,1.1,3.9-1.1,2.6-2.9
				c-0.2-0.2-0.3-0.4-0.6-0.5l-0.4-0.2l-1-0.6l-1-0.6l-1-0.5L386,131c-0.4-0.2-0.9-0.3-1.3-0.2c-1.8,0.4-2.2,2.8-0.6,3.7l0.2,0.1
				l0.9,0.5l0.9,0.5l0.9,0.5L387.5,136.4L387.5,136.4z M366.7,125.9c1.9,0.8,3.6-1.6,2.2-3.2c-0.2-0.2-0.4-0.3-0.7-0.5l-0.9-0.4
				l-1-0.4l-1-0.4l-0.7-0.3c-2.2-0.8-3.8,2.1-1.8,3.5c0.1,0.1,0.2,0.1,0.4,0.2l0.7,0.3l1,0.4l1,0.4L366.7,125.9L366.7,125.9z
				 M344.7,118.1c2.3,0.6,3.5-2.5,1.4-3.6c-0.1-0.1-0.2-0.1-0.4-0.1l-0.5-0.1l-1.1-0.3l-1.1-0.3l-1.1-0.3l-0.2,0
				c-2.1-0.5-3.4,2.2-1.6,3.5c0.2,0.1,0.4,0.2,0.7,0.3l0.1,0l1.1,0.3l1.1,0.3l1,0.3L344.7,118.1L344.7,118.1z M321.9,113.2
				c1.7,0.2,2.8-1.5,2-2.9c-0.3-0.5-0.8-0.9-1.4-0.9l0,0l-1.1-0.2l-1.1-0.2l-1.1-0.1l-0.6-0.1c-2.2-0.2-3.1,2.7-1.1,3.7
				c0.2,0.1,0.4,0.1,0.6,0.2l0.6,0.1l1.1,0.1l1.1,0.2L321.9,113.2L321.9,113.2L321.9,113.2z M298.6,111.3c0.8,0,1.5-0.5,1.8-1.2
				c0.5-1.3-0.4-2.7-1.8-2.7l-0.9,0l-1.1,0l-1.1,0l-0.8,0c-2.1,0-2.8,3-0.7,3.8c0.2,0.1,0.4,0.1,0.7,0.1l0.8,0l1.1,0l1.1,0
				L298.6,111.3L298.6,111.3z M275.4,112.4c2-0.2,2.4-3,0.5-3.8c-0.3-0.1-0.6-0.2-0.9-0.1l-1,0.1l-1.1,0.1l-1.1,0.1l-0.7,0.1
				c-0.7,0.1-1.3,0.6-1.6,1.3c-0.5,1.4,0.6,2.8,2.1,2.6l0.7-0.1l1.1-0.1l1.1-0.1L275.4,112.4L275.4,112.4z M252.4,116.5
				c2.1-0.5,2-3.6-0.3-3.9c-0.2,0-0.5,0-0.7,0l-0.3,0.1L250,113l-1.1,0.3l-1.1,0.3l-0.2,0c-0.7,0.2-1.2,0.7-1.4,1.5
				c-0.3,1.4,1,2.7,2.4,2.3l0.1,0l1.1-0.3l1.1-0.3l1.1-0.3L252.4,116.5L252.4,116.5z M230.1,123.5c0.9-0.4,1.4-1.2,1.2-2.2
				c-0.2-1.2-1.5-1.9-2.6-1.5l-0.2,0.1l-1.1,0.4l-1.1,0.4l-1.1,0.4l-0.2,0.1c-2.2,0.9-1.2,4.2,1.1,3.7c0.1,0,0.2-0.1,0.4-0.1
				l0.2-0.1l1.1-0.4l1.1-0.4l1.1-0.4L230.1,123.5L230.1,123.5z M209,133.3c1.9-1.1,0.9-4-1.2-3.7c-0.2,0-0.4,0.1-0.7,0.2l-0.8,0.5
				l-1,0.6l-1,0.6l-0.6,0.3c-0.7,0.4-1.1,1.3-0.9,2.2c0.3,1.3,1.7,1.9,2.9,1.3l0.6-0.3l1-0.6l1-0.5L209,133.3L209,133.3z
				 M189.2,145.7c1.6-1.1,0.7-3.8-1.4-3.5c-0.4,0.1-0.6,0.2-0.9,0.4l-0.1,0.1l-0.9,0.7L185,144l-0.9,0.7l-0.4,0.3
				c-1.6,1.2-0.5,3.9,1.6,3.5c0.3-0.1,0.5-0.2,0.7-0.4l0.4-0.3l0.9-0.7l0.9-0.7L189.2,145.7L189.2,145.7L189.2,145.7z M180.7,432.2
				l-3-2.5l0.5,0.4l0.8,0.7l0.8,0.7L180.7,432.2L180.7,432.2z M196.4,443.7c-0.3-0.2-0.6-0.3-1-0.3c-2-0.1-2.9,2.5-1.2,3.6l0.1,0.1
				l0.9,0.6l0.9,0.6l0.9,0.6l0.4,0.3c1.8,1.1,4-1.1,2.6-2.9c-0.1-0.2-0.3-0.3-0.5-0.4l-0.4-0.2l-0.9-0.6l-0.9-0.6l-0.9-0.6
				L196.4,443.7L196.4,443.7z M216.7,455.2c-0.4-0.2-0.9-0.2-1.3-0.1c-1.8,0.4-2,2.9-0.4,3.7l0.6,0.3l1,0.5l1,0.5l0.9,0.4
				c2,0.9,3.8-1.6,2.2-3.2c-0.2-0.2-0.3-0.3-0.5-0.4l-0.9-0.4l-1-0.5l-1-0.5L216.7,455.2L216.7,455.2z M238.3,463.9
				c-0.6-0.2-1.2-0.1-1.7,0.2c-1.4,0.9-1.2,3,0.4,3.5l0.2,0.1l1.1,0.3l1.1,0.3l1.1,0.3l0.5,0.1c2,0.6,3.5-2.1,1.8-3.4
				c-0.2-0.1-0.4-0.2-0.6-0.3l-0.4-0.1l-1-0.3l-1-0.3l-1-0.3L238.3,463.9L238.3,463.9z M260.9,469.9c-2.2-0.4-3.3,2.6-1.3,3.7
				c0.2,0.1,0.4,0.2,0.6,0.2l0.8,0.2l1.1,0.2l1.1,0.2l0.9,0.2c2,0.4,3.2-2.4,1.4-3.6c-0.2-0.1-0.5-0.2-0.7-0.3l-0.9-0.2l-1.1-0.2
				l-1.1-0.2L260.9,469.9L260.9,469.9z M284,472.9c-2.2-0.1-2.9,2.9-0.9,3.8c0.2,0.1,0.4,0.1,0.6,0.2l0.5,0l1.1,0.1l1.1,0.1l1.1,0.1
				l0.1,0c2.2,0.1,2.9-2.9,0.8-3.8c-0.2-0.1-0.4-0.1-0.6-0.1l-0.1,0l-1.1,0l-1.1-0.1l-1.1-0.1L284,472.9L284,472.9z M307.3,472.9
				c-2.3,0.2-2.5,3.5-0.1,3.9c0.1,0,0.3,0,0.4,0l0.4,0l1.1-0.1l1.1-0.1l1.1-0.1l0.2,0c2.3-0.2,2.4-3.5,0.1-3.9c-0.2,0-0.3,0-0.4,0
				l-0.1,0l-1.1,0.1l-1.1,0.1l-1.1,0.1L307.3,472.9L307.3,472.9z M330.5,469.8c-2,0.4-2.2,3.1-0.2,3.8c0.3,0.1,0.6,0.1,1,0l0.7-0.1
				l1.1-0.2l1.1-0.2l0.9-0.2c2.1-0.4,2.1-3.5-0.1-3.9c-0.3,0-0.5,0-0.8,0l-0.9,0.2l-1.1,0.2l-1.1,0.2L330.5,469.8z M176.5,429.2v2
				l-1.3,1.5c-0.2-0.1-0.3-0.3-0.4-0.5C173.9,430.7,175.1,429.2,176.5,429.2L176.5,429.2z M176.5,433.7l-1.3-1.1l0.5,0.4
				L176.5,433.7L176.5,433.7L176.5,433.7z M171.3,160.6c1.5-1.4,0-4.1-2.1-3.2c-0.2,0.1-0.4,0.2-0.6,0.4l0,0l-0.8,0.8l-0.8,0.8
				l-0.8,0.8l-0.4,0.4c-1.5,1.6,0.2,4.1,2.2,3.2c0.2-0.1,0.4-0.2,0.6-0.4l0.4-0.4l0.8-0.8l0.8-0.8L171.3,160.6L171.3,160.6
				L171.3,160.6z M155.4,177.7c1.4-1.7-0.6-4-2.5-2.9c-0.2,0.1-0.4,0.3-0.5,0.5l-0.5,0.6l-0.7,0.9l-0.7,0.9l-0.6,0.7
				c-1.3,1.7,0.6,3.9,2.5,2.9c0.2-0.1,0.4-0.3,0.6-0.5l0.6-0.7l0.7-0.9l0.7-0.9L155.4,177.7L155.4,177.7z M141.8,196.7
				c1.1-1.8-1.1-4-2.9-2.6c-0.2,0.1-0.3,0.3-0.4,0.5l-0.2,0.3l-0.6,0.9l-0.6,0.9l-0.6,1l-0.2,0.3c-1.1,1.8,1.1,3.9,2.9,2.6
				c0.2-0.2,0.4-0.3,0.5-0.6l0.2-0.3l0.6-0.9l0.6-0.9l0.6-0.9L141.8,196.7L141.8,196.7z M130.8,217.2c0.4-0.8,0.1-1.8-0.6-2.4
				c-1-0.7-2.5-0.4-3,0.8l-0.4,0.8l-0.5,1l-0.4,1l-0.4,0.8c-0.7,1.8,1.2,3.5,2.9,2.4c0.4-0.2,0.6-0.5,0.8-0.9l0.3-0.8l0.4-1l0.4-1
				L130.8,217.2L130.8,217.2z M122.5,239.1c0.6-2-2.1-3.5-3.4-1.8c-0.1,0.2-0.2,0.4-0.3,0.6l-0.1,0.3l-0.3,1.1l-0.3,1.1l-0.3,1.1
				l-0.1,0.3c-0.6,2.3,2.5,3.5,3.6,1.4c0.1-0.1,0.1-0.2,0.1-0.4l0.1-0.3l0.3-1l0.3-1l0.3-1L122.5,239.1L122.5,239.1z M117.1,261.7
				c0.1-0.4,0-0.8-0.2-1.2c-0.9-1.7-3.3-1.3-3.7,0.6l-0.2,1l-0.2,1.1l-0.2,1.1l-0.1,0.8c-0.2,1.7,1.5,2.8,3,2
				c0.5-0.3,0.9-0.8,0.9-1.4l0.1-0.7l0.2-1.1l0.2-1.1L117.1,261.7L117.1,261.7z M114.7,284.9c0.1-2.2-2.9-2.9-3.8-0.8
				c-0.1,0.2-0.1,0.4-0.1,0.6l0,0.7l0,1.1l0,1.1l0,1c-0.1,2,2.6,2.8,3.7,1c0.2-0.3,0.2-0.6,0.2-0.9l0-1l0-1.1l0-1.1L114.7,284.9
				L114.7,284.9z M115.2,308.3c-0.2-2.3-3.5-2.4-3.9-0.1c0,0.2,0,0.3,0,0.4l0.1,0.7l0.1,1.1l0.1,1.1l0.1,1c0.2,2.1,3.2,2.4,3.8,0.3
				c0.1-0.3,0.1-0.5,0.1-0.8l-0.1-1l-0.1-1.1l-0.1-1.1L115.2,308.3L115.2,308.3z M118.8,331.3c-0.4-1.9-3.2-2.1-3.8-0.1
				c-0.1,0.3-0.1,0.6,0,1l0.2,1l0.3,1.1l0.3,1.1l0.1,0.5c0.5,2.1,3.6,2,3.9-0.3c0-0.2,0-0.5,0-0.7l-0.1-0.5l-0.3-1.1l-0.3-1.1
				L118.8,331.3L118.8,331.3z M125.3,353.7c-0.2-0.5-0.6-0.9-1.1-1.2c-1.6-0.6-3.1,0.9-2.6,2.5l0.3,0.8l0.4,1.1l0.4,1.1l0.3,0.7
				c0.4,0.9,1.2,1.4,2.2,1.2c1.2-0.2,1.9-1.5,1.5-2.6l-0.2-0.6l-0.4-1.1l-0.4-1.1L125.3,353.7L125.3,353.7z M134.6,375.1
				c-1-1.9-4-1.1-3.7,1.2c0,0.2,0.1,0.4,0.2,0.6l0.3,0.5l0.5,1l0.5,1l0.5,0.9c0.9,1.5,3.1,1.3,3.6-0.4c0.2-0.5,0.1-1-0.1-1.5
				l-0.5-0.9l-0.5-1l-0.5-1L134.6,375.1L134.6,375.1z M146.6,395.1c-1.3-1.8-4.1-0.5-3.5,1.7c0.1,0.2,0.1,0.4,0.3,0.6l0.5,0.8
				l0.7,0.9l0.7,0.9l0.4,0.6c1.1,1.6,3.8,0.7,3.5-1.4c-0.1-0.4-0.2-0.6-0.4-0.9l-0.4-0.6l-0.6-0.9l-0.6-0.9L146.6,395.1L146.6,395.1
				z M161,413.4c-1.4-1.5-3.9-0.1-3.3,1.9c0.1,0.3,0.2,0.5,0.4,0.8l0.6,0.7l0.8,0.8l0.8,0.8l0.5,0.6c1.4,1.5,4.1,0,3.2-2.1
				c-0.1-0.2-0.2-0.4-0.4-0.6l-0.5-0.6l-0.8-0.8l-0.7-0.8L161,413.4z"/>
		</g>
		<g>
			<polygon class="st2" points="428.5,390.2 296.3,485.6 164.1,390.2 296.3,294.7 			"/>
			<rect x="200.2" y="311.5" class="st3" width="192.1" height="234.7"/>
			<g>
				<rect x="230.2" y="343.6" class="st4" width="54.9" height="11.1"/>
				<rect x="229.7" y="365.1" class="st4" width="133.2" height="11.1"/>
				<rect x="229.7" y="385.7" class="st4" width="133.2" height="11.1"/>
				<rect x="229.7" y="406.3" class="st4" width="133.2" height="11.1"/>
				<rect x="229.7" y="426.9" class="st4" width="133.2" height="11.1"/>
				<rect x="229.7" y="447.5" class="st4" width="133.2" height="11.1"/>
				<rect x="229.7" y="468.2" class="st4" width="133.2" height="11.1"/>
			</g>
			<polygon class="st5" points="164.1,546.2 428.5,546.2 428.5,390.2 296.3,485.6 164.1,390.2 			"/>
			<polygon class="st6" points="164.1,546.2 428.5,546.2 320.4,468.2 272.2,468.2 272.2,468.2 			"/>
		</g>
		<g>
			<g>
				<g>
					<path class="st7" d="M546.5,346.7c23.9-28.2,20.4-70.5-7.8-94.4c-28.2-23.9-70.5-20.4-94.4,7.8c-23.9,28.2-20.4,70.5,7.8,94.4
						C480.3,378.4,522.6,374.9,546.5,346.7z"/>
					<path class="st8" d="M542.6,343.4c22.1-26.1,18.8-65.1-7.2-87.2c-26.1-22.1-65.1-18.8-87.2,7.2c-22.1,26.1-18.8,65.1,7.2,87.2
						C481.5,372.7,520.5,369.4,542.6,343.4z"/>
					<path class="st9" d="M537,338.6c19.5-23,16.6-57.4-6.4-76.9c-23-19.5-57.4-16.6-76.9,6.4c-19.5,23-16.6,57.4,6.4,76.9
						C483.1,364.5,517.5,361.6,537,338.6z"/>
				</g>
			</g>
			<g>
				<g>
					<g id="gmail_9_">
						<path class="st8" d="M523.4,275.9h-56.2c-3.9,0-7,3.2-7,7v42.1c0,3.9,3.2,7,7,7h56.2c3.9,0,7-3.2,7-7v-42.1
							C530.5,279.1,527.3,275.9,523.4,275.9z M523.4,325.1h-7v-30.9l-21.1,13.3l-21.1-13.3v30.9h-7v-42.1h4.2l23.9,14.7l23.9-14.7
							h4.2V325.1z"/>
					</g>
				</g>
			</g>
		</g>
		<g>
			<g>
				<g>
					
						<ellipse transform="matrix(0.6462 -0.7632 0.7632 0.6462 33.953 394.469)" class="st7" cx="442.4" cy="160.6" rx="52.5" ry="52.5"/>
					<path class="st8" d="M479.4,191.9c17.3-20.4,14.8-51-5.7-68.3c-20.4-17.3-51-14.8-68.3,5.7c-17.3,20.4-14.8,51,5.7,68.3
						C431.5,214.9,462.1,212.4,479.4,191.9z"/>
					
						<ellipse transform="matrix(0.6462 -0.7632 0.7632 0.6462 33.9499 394.4621)" class="st10" cx="442.4" cy="160.6" rx="42.8" ry="42.8"/>
				</g>
			</g>
			<g>
				<g id="hangout_5_">
					<path class="st8" d="M442.4,128.4c-14.8,0-26.8,12-26.8,26.8s12,26.8,26.8,26.8h1.6v11c15.4-7.2,25.2-23.6,25.2-37.8
						C469.2,140.4,457.2,128.4,442.4,128.4z M440.8,156.8l-3.1,6.3H433l3.1-6.3h-4.7v-9.4h9.4V156.8z M453.4,156.8l-3.1,6.3h-4.7
						l3.1-6.3H444v-9.4h9.4V156.8z"/>
				</g>
			</g>
		</g>
		<g>
			<g>
				<g>
					
						<ellipse transform="matrix(0.6462 -0.7632 0.7632 0.6462 -120.2504 169.4639)" class="st7" cx="122.6" cy="214.4" rx="45" ry="45"/>
					<path class="st8" d="M154.4,241.3c14.8-17.5,12.7-43.7-4.9-58.6c-17.5-14.8-43.7-12.7-58.6,4.9c-14.8,17.5-12.7,43.7,4.9,58.6
						C113.3,261,139.5,258.8,154.4,241.3z"/>
					
						<ellipse transform="matrix(0.6462 -0.7632 0.7632 0.6462 -120.2483 169.4597)" class="st11" cx="122.6" cy="214.4" rx="36.7" ry="36.7"/>
				</g>
			</g>
			<g id="notes_6_">
				<g>
					<path class="st8" d="M102.9,236.6c0,0.5,0.4,0.9,0.9,0.9h34.3c0.5,0,0.9-0.4,0.9-0.9v-33.4h-36.1V236.6z M133.7,217.6h-23.5
						v-1.8h23.5V217.6z M110.2,208.6h23.5v1.8h-23.5V208.6z M108.4,212.2h18.1v1.8h-18.1V212.2z M108.4,219.4h25.3v1.8h-25.3V219.4z
						 M108.4,223.1h25.3v1.8h-25.3V223.1z M108.4,226.7h25.3v1.8h-25.3V226.7z M108.4,230.3h9v1.8h-9V230.3z"/>
					<path class="st8" d="M137.3,192.3c-1,0-1.8,0.8-1.8,1.8h-1.8c0-1-0.8-1.8-1.8-1.8c-1,0-1.8,0.8-1.8,1.8h-1.8
						c0-1-0.8-1.8-1.8-1.8c-1,0-1.8,0.8-1.8,1.8h-1.8c0-1-0.8-1.8-1.8-1.8s-1.8,0.8-1.8,1.8h-1.8c0-1-0.8-1.8-1.8-1.8
						s-1.8,0.8-1.8,1.8H112c0-1-0.8-1.8-1.8-1.8s-1.8,0.8-1.8,1.8h-1.8c0-1-0.8-1.8-1.8-1.8s-1.8,0.8-1.8,1.8v7.2h36.1v-7.2
						C139.1,193.2,138.3,192.3,137.3,192.3z"/>
				</g>
			</g>
		</g>
		<g>
			<g>
				<g>
					<g>
						
							<ellipse transform="matrix(0.6462 -0.7632 0.7632 0.6462 -208.556 214.2709)" class="st7" cx="126.8" cy="332.1" rx="43" ry="43"/>
						<path class="st8" d="M157.2,357.8c14.2-16.8,12.1-41.8-4.6-56c-16.8-14.2-41.8-12.1-56,4.7c-14.2,16.8-12.1,41.8,4.6,56
							C117.9,376.6,143,374.5,157.2,357.8z"/>
						
							<ellipse transform="matrix(0.6462 -0.7632 0.7632 0.6462 -208.5523 214.2646)" class="st12" cx="126.8" cy="332.1" rx="35.1" ry="35.1"/>
					</g>
				</g>
			</g>
			<g>
				<g id="calendar_6_">
					<path class="st8" d="M107.1,323.5l0,27.6c0,0.9,0.8,1.7,1.7,1.7l36,0c0.9,0,1.7-0.8,1.7-1.7l0-27.6H107.1z M115.7,349.3h-5.1
						l0-5.2h5.1V349.3z M115.7,342.4h-5.1v-5.2l5.1,0V342.4z M115.7,335.5h-5.1v-5.2h5.1L115.7,335.5z M122.5,349.3h-5.1l0-5.2h5.1
						V349.3z M122.5,342.4h-5.1v-5.2h5.1V342.4z M122.5,335.5h-5.1v-5.2h5.1L122.5,335.5z M129.4,349.3h-5.1v-5.2h5.1V349.3z
						 M129.4,342.4h-5.1v-5.2h5.1V342.4z M129.4,335.5h-5.1v-5.2h5.1V335.5z M136.2,349.3h-5.1v-5.2h5.1V349.3z M136.2,342.4h-5.1
						v-5.2h5.1V342.4z M136.2,335.5h-5.1v-5.2h5.1V335.5z M143.1,349.3H138v-5.2h5.1V349.3z M143.1,342.4H138v-5.2h5.1V342.4z
						 M143.1,335.5H138v-5.2h5.1V335.5z M146.5,316.6v5.2h-39.4v-5.2c0-0.9,0.8-1.7,1.7-1.7h3.4v-1.7c0-0.9,0.8-1.7,1.7-1.7l1.7,0
						c0.9,0,1.7,0.8,1.7,1.7v1.7h18.9l0-1.7c0-0.9,0.8-1.7,1.7-1.7h1.7c0.9,0,1.7,0.8,1.7,1.7v1.7h3.4
						C145.8,314.8,146.5,315.6,146.5,316.6z"/>
				</g>
				<rect x="117.4" y="337.2" class="st8" width="5.1" height="5.2"/>
			</g>
		</g>
		<g>
			<g>
				<g>
					
						<ellipse transform="matrix(0.6462 -0.7632 0.7632 0.6462 -22.3147 193.0166)" class="st7" cx="197" cy="120.6" rx="47.5" ry="47.5"/>
					<path class="st8" d="M230.5,148.9c15.7-18.5,13.4-46.2-5.1-61.8c-18.5-15.7-46.2-13.4-61.8,5.1c-15.7,18.5-13.4,46.2,5.1,61.8
						C187.2,169.7,214.8,167.4,230.5,148.9z"/>
					
						<ellipse transform="matrix(0.6462 -0.7632 0.7632 0.6462 -22.3148 193.0132)" class="st13" cx="197" cy="120.6" rx="38.7" ry="38.7"/>
				</g>
			</g>
			<g>
				<path class="st8" d="M191.3,99.4c-1.1,0-2,0.9-2,2l0,2.8h3.5V104c0-0.7,0.6-1.3,1.3-1.3l22.8,0c0.7,0,1.3,0.6,1.3,1.3l0,16.5
					c0,0.4-0.4,0.8-0.8,0.8v3.5h2.1c1.1,0,2-0.9,2-2v-21.4c0-1.1-0.9-2-2-2L191.3,99.4z"/>
				<path class="st8" d="M182.6,110.8h3.3c0-0.7,0.6-1.3,1.3-1.3l22.3,0c1,0,1.8,0.8,1.8,1.8l0,16c0,0.4-0.4,0.8-0.8,0.8h-0.3v3.3
					h2.4c1.1,0,2-0.9,2-2l0-21.6c0-1-0.8-1.8-1.8-1.8l-28.1,0c-1.1,0-2,0.9-2,2V110.8z"/>
				<path class="st8" d="M207.9,122.1c0-2.3-1.8-4.1-4.1-4.1h-12.2v0l-1.2-2.7c-0.7-1.5-2.1-2.4-3.7-2.4h-10.1
					c-2.3,0-4.1,1.8-4.1,4.1v0.9l0,6.8v14.5c0,1.3,1,2.3,2.3,2.3l31.2,0.1c1.1,0,2.2-0.7,2.6-1.7l2.3-5c0.2-0.4,0.1-0.8-0.1-1.2
					c-0.2-0.4-0.6-0.6-1-0.6h-1.9L207.9,122.1z M196.1,131.5h-3.3v3.5h-3.5v-3.5h-3.3v-3.3h3.3v-3.3c0,0,0,0,0,0h3.4h0.1v3.3h3.3
					V131.5z"/>
			</g>
		</g>
		<g>
			<g>
				<g>
					<g>
						
							<ellipse transform="matrix(0.6462 -0.7632 0.7632 0.6462 48.6636 281.8773)" class="st7" cx="328.3" cy="88.5" rx="50" ry="50"/>
						<path class="st8" d="M363.6,118.3c16.5-19.5,14.1-48.6-5.4-65.1c-19.5-16.5-48.6-14.1-65.1,5.4c-16.5,19.5-14.1,48.6,5.4,65.1
							C318,140.2,347.1,137.7,363.6,118.3z"/>
						
							<ellipse transform="matrix(0.6462 -0.7632 0.7632 0.6462 48.6607 281.8723)" class="st14" cx="328.3" cy="88.5" rx="40.7" ry="40.7"/>
					</g>
				</g>
			</g>
			<g id="edit_2_">
				<path class="st8" d="M337.8,94.6v9.2c0,1.2-1,2.1-2.1,2.1h-25.4c-1.2,0-2.1-1-2.1-2.1V78.4c0-1.2,1-2.1,2.1-2.1h21.9l3.8-3.8
					c-0.8-0.2-1.6-0.4-2.4-0.4h-21.1c-4.7,0-8.5,3.8-8.5,8.5v21.1c0,4.7,3.8,8.5,8.5,8.5h21.1c4.7,0,8.5-3.8,8.5-8.5V90.4
					L337.8,94.6z"/>
				<path class="st8" d="M354.1,70.9l-4.6-4.6c-0.4-0.4-1.1-0.4-1.5,0l-3.1,3.1l6.1,6.1l3.1-3.1C354.5,72,354.5,71.3,354.1,70.9z"/>
				<path class="st8" d="M327.9,98.4l-5.9-6l-3.4,8.8c-0.2,0.6,0.1,0.8,0.6,0.6L327.9,98.4z"/>
				
					<rect x="322.9" y="79.6" transform="matrix(0.7071 -0.7071 0.7071 0.7071 39.2438 262.5208)" class="st8" width="27.2" height="8.6"/>
			</g>
		</g>
	</g>
</g>
</svg>
