<?xml version="1.0" encoding="utf-8"?>
<!-- Generator: Adobe Illustrator 22.0.1, SVG Export Plug-In . SVG Version: 6.00 Build 0)  -->
<svg version="1.1" xmlns="http://www.w3.org/2000/svg" xmlns:xlink="http://www.w3.org/1999/xlink" x="0px" y="0px"
	 viewBox="0 0 612 612" style="enable-background:new 0 0 612 612;" xml:space="preserve">
<style type="text/css">
	.st0{clip-path:url(#SVGID_2_);fill:#49B9EA;}
	.st1{clip-path:url(#SVGID_2_);}
	.st2{fill:#A6DAE8;}
	.st3{fill:#C9ECF4;}
	.st4{fill:#62C3EF;stroke:#34508B;stroke-width:3;stroke-linecap:round;stroke-linejoin:round;stroke-miterlimit:10;}
	.st5{fill:#A5D996;stroke:#34508B;stroke-width:3;stroke-linecap:round;stroke-linejoin:round;stroke-miterlimit:10;}
	.st6{fill:#34508B;stroke:#34508B;stroke-width:3;stroke-linecap:round;stroke-linejoin:round;stroke-miterlimit:10;}
	.st7{fill:#FBF8F3;stroke:#34508B;stroke-width:3;stroke-linecap:round;stroke-linejoin:round;stroke-miterlimit:10;}
	.st8{fill:#FBF8F3;}
	.st9{fill:none;stroke:#34508B;stroke-width:3;stroke-linecap:round;stroke-linejoin:round;stroke-miterlimit:10;}
	.st10{fill:#34508B;}
	.st11{fill:#F7AB6F;stroke:#34508B;stroke-width:3;stroke-linecap:round;stroke-linejoin:round;stroke-miterlimit:10;}
	.st12{fill:#FFFFFF;stroke:#34508B;stroke-width:3;stroke-linecap:round;stroke-linejoin:round;stroke-miterlimit:10;}
	.st13{fill:#3BDDBA;stroke:#34508B;stroke-width:3;stroke-linecap:round;stroke-linejoin:round;stroke-miterlimit:10;}
	.st14{fill:#DCDEE0;stroke:#34508B;stroke-width:3;stroke-linecap:round;stroke-linejoin:round;stroke-miterlimit:10;}
	.st15{fill:#EAB38B;}
	.st16{fill:#FFFFFF;}
	.st17{fill:#728689;}
	.st18{fill:#D1D3D4;}
	.st19{fill:#939598;}
	.st20{fill:#14B0BF;}
	.st21{fill:#2B2924;}
	.st22{fill:#997450;}
	.st23{fill:#F7CEAF;}
	.st24{fill:#E8BDAC;}
	.st25{fill:#FFE5CB;}
	.st26{fill:#E6E7E8;}
	.st27{fill:#97B6C4;}
	.st28{fill:#87A5AF;}
	.st29{fill:#3D5872;}
	.st30{fill:#70868C;}
	.st31{fill:#455256;}
	.st32{fill:#414042;}
	.st33{fill:#58595B;}
	.st34{fill:#EB4747;}
	.st35{fill:#EA5F21;}
	.st36{fill:#F2C4A5;}
	.st37{fill:#6F7272;}
	.st38{fill:#20B7EA;}
	.st39{fill:#33C9F2;}
	.st40{fill:#0AC6B3;}
	.st41{fill:#F49D56;}
	.st42{fill:#53770C;}
	.st43{fill:#61A30A;}
	.st44{fill:#8AC133;}
	.st45{fill:#FCB87A;}
	.st46{fill:#FF7C3B;}
	.st47{fill:#57CBEA;}
	.st48{fill:#2D2D2D;}
	.st49{fill:#AECCC8;}
	.st50{fill:#FFFAAD;stroke:#34508B;stroke-width:3;stroke-linecap:round;stroke-linejoin:round;stroke-miterlimit:10;}
	.st51{clip-path:url(#SVGID_4_);fill:#49B9EA;}
	.st52{clip-path:url(#SVGID_4_);}
	.st53{fill:#FF7335;}
	.st54{fill:#CADDCF;}
	.st55{fill:#4B5974;}
	.st56{fill:none;stroke:#FFFFFF;stroke-miterlimit:10;stroke-dasharray:2,2;}
	.st57{fill:#4E4E4E;}
	.st58{fill:#DCDBDD;}
	.st59{fill:#BEBEBF;}
	.st60{fill-rule:evenodd;clip-rule:evenodd;fill:#F7A934;}
	.st61{fill:#F7A934;}
	.st62{fill:#00E0F9;}
	.st63{fill:#6D808A;}
	.st64{clip-path:url(#SVGID_6_);}
	.st65{fill:#8A8387;}
	.st66{fill:#EBA8A0;}
	.st67{fill:#83CFEE;}
	.st68{fill:#C8DB57;}
	.st69{fill:#F3BC5A;}
	.st70{fill:#C0C0C0;}
	.st71{fill:#F7FBFF;}
	.st72{fill:#D36154;}
	.st73{fill:#FFCE66;}
	.st74{fill:#66B9C7;}
	.st75{fill:#5B9AB1;}
	.st76{fill:#F5B71B;}
	.st77{fill:#E2A238;}
	.st78{fill:#51657C;}
	.st79{fill:#2C445D;}
	.st80{fill:#518E9E;}
	.st81{fill:#B8D9EB;}
	.st82{fill:#F2F2F2;}
	.st83{fill:#BBBDBF;}
	.st84{fill:url(#XMLID_16_);}
	.st85{fill:url(#XMLID_17_);}
	.st86{fill:url(#XMLID_18_);}
	.st87{fill:url(#XMLID_19_);}
	.st88{fill:url(#XMLID_20_);}
	.st89{fill:url(#XMLID_21_);}
	.st90{fill:url(#XMLID_22_);}
	.st91{fill:url(#XMLID_23_);}
	.st92{fill:url(#XMLID_24_);}
	.st93{fill:url(#XMLID_25_);}
	.st94{fill:url(#XMLID_26_);}
	.st95{fill:url(#XMLID_27_);}
	.st96{fill:#474747;}
	.st97{fill:#D6D6D6;}
	.st98{fill:#EAEAEA;}
	.st99{fill:#FCFCFC;}
	.st100{fill:#3D4859;}
	.st101{fill:#F25F58;}
	.st102{fill:#D3DEE2;}
	.st103{fill:#15191C;}
	.st104{opacity:0.13;fill:#070707;}
	.st105{fill:#F5F7F7;}
	.st106{fill:#D33737;}
	.st107{fill:#3939D1;}
	.st108{fill:#E2EDED;}
	.st109{fill:#32393F;}
</style>
<g id="Silicus_x5F_Silicus_x5F_Story_x5F_CEA282">
	<g>
		<g>
			<defs>
				<circle id="SVGID_1_" cx="305.7" cy="307.7" r="296.6"/>
			</defs>
			<use xlink:href="#SVGID_1_"  style="overflow:visible;fill:#49B9EA;"/>
			<clipPath id="SVGID_2_">
				<use xlink:href="#SVGID_1_"  style="overflow:visible;"/>
			</clipPath>
			<rect x="7" y="9.4" class="st0" width="595.3" height="595.3"/>
			<g id="_x31__8_" class="st1">
				<rect x="0.5" y="1.9" class="st2" width="619.9" height="626.3"/>
				<g>
					<g>
						<path class="st3" d="M301,518c-2.6,0-5.3-0.1-7.9-0.2c-0.7,0-1.2-0.6-1.2-1.3c0-0.7,0.5-1.2,1.3-1.2c4.9,0.2,9.7,0.2,14.6,0
							c0,0,0,0,0,0c0.7,0,1.2,0.5,1.2,1.2c0,0.7-0.5,1.2-1.2,1.3C305.6,518,303.3,518,301,518z M322.6,516.9c-0.6,0-1.2-0.5-1.2-1.1
							c-0.1-0.7,0.4-1.3,1.1-1.3c1.4-0.2,2.8-0.3,4.3-0.5c3.4-0.4,6.8-0.9,10.2-1.6c0.7-0.1,1.3,0.3,1.4,1c0.1,0.7-0.3,1.3-1,1.4
							c-3.4,0.6-6.9,1.1-10.3,1.6c-1.4,0.2-2.9,0.3-4.3,0.5C322.6,516.9,322.6,516.9,322.6,516.9z M278.6,516.8c0,0-0.1,0-0.1,0
							c-4.9-0.6-9.8-1.3-14.6-2.2c-0.7-0.1-1.1-0.8-1-1.4c0.1-0.7,0.8-1.1,1.4-1c4.7,0.9,9.6,1.6,14.4,2.2c0.7,0.1,1.2,0.7,1.1,1.4
							C279.7,516.3,279.2,516.8,278.6,516.8z M351.5,511.7c-0.5,0-1-0.4-1.2-0.9c-0.2-0.7,0.2-1.3,0.9-1.5c4.7-1.2,9.4-2.6,14-4.1
							c0.7-0.2,1.3,0.1,1.6,0.8c0.2,0.6-0.1,1.3-0.8,1.5c-4.7,1.5-9.4,2.9-14.2,4.2C351.7,511.7,351.6,511.7,351.5,511.7z
							 M249.7,511.2c-0.1,0-0.2,0-0.3,0c-4.8-1.3-9.5-2.8-14.1-4.5c-0.6-0.2-1-0.9-0.7-1.6c0.2-0.6,0.9-0.9,1.6-0.7
							c4.5,1.7,9.2,3.2,13.9,4.4c0.7,0.2,1,0.9,0.9,1.5C250.8,510.9,250.3,511.2,249.7,511.2z M379.3,502.5c-0.5,0-0.9-0.3-1.1-0.8
							c-0.3-0.6,0-1.3,0.7-1.6c4.5-1.8,8.9-3.8,13.3-6c0.6-0.3,1.3,0,1.6,0.6c0.3,0.6,0,1.3-0.6,1.6c-4.4,2.2-9,4.2-13.5,6.1
							C379.6,502.5,379.5,502.5,379.3,502.5z M222.2,501.1c-0.2,0-0.4,0-0.5-0.1c-0.8-0.4-1.6-0.7-2.3-1.1
							c-3.6-1.8-7.2-3.7-10.8-5.8c-0.6-0.3-0.8-1.1-0.4-1.7c0.3-0.6,1.1-0.8,1.7-0.4c3.5,2,7,3.9,10.6,5.7c0.8,0.4,1.5,0.7,2.3,1.1
							c0.6,0.3,0.9,1,0.6,1.6C223.1,500.9,222.7,501.1,222.2,501.1z M405.7,489.5c-0.4,0-0.8-0.2-1.1-0.6c-0.3-0.6-0.1-1.3,0.4-1.7
							c4.2-2.4,8.4-5,12.4-7.7c0.6-0.4,1.3-0.2,1.7,0.3c0.4,0.6,0.2,1.3-0.3,1.7c-4.1,2.7-8.3,5.3-12.5,7.8
							C406.1,489.5,405.9,489.5,405.7,489.5z M196.9,486.3c-0.2,0-0.5-0.1-0.7-0.2c-4-2.8-7.9-5.9-11.7-9.1
							c-0.5-0.4-0.6-1.2-0.1-1.7c0.4-0.5,1.2-0.6,1.7-0.1c3.7,3.1,7.6,6.2,11.5,9c0.6,0.4,0.7,1.2,0.3,1.7
							C197.6,486.1,197.3,486.3,196.9,486.3z M430.1,473.3c-0.4,0-0.7-0.2-1-0.5c-0.4-0.5-0.3-1.3,0.2-1.7c3.8-2.9,7.7-6.1,11.3-9.2
							c0.5-0.4,1.3-0.4,1.7,0.1c0.4,0.5,0.4,1.3-0.1,1.7c-3.7,3.2-7.5,6.4-11.4,9.3C430.6,473.2,430.3,473.3,430.1,473.3z
							 M174.5,467.3c-0.3,0-0.6-0.1-0.9-0.4c-3.4-3.5-6.8-7.2-9.9-10.9c-0.4-0.5-0.4-1.3,0.2-1.7c0.5-0.4,1.3-0.4,1.7,0.2
							c3.1,3.7,6.4,7.3,9.8,10.8c0.5,0.5,0.5,1.3,0,1.7C175.2,467.2,174.9,467.3,174.5,467.3z M452.2,454c-0.3,0-0.6-0.1-0.9-0.4
							c-0.5-0.5-0.5-1.3,0-1.7c3.4-3.4,6.8-7,10-10.6c0.4-0.5,1.2-0.6,1.7-0.1c0.5,0.4,0.6,1.2,0.1,1.7c-3.2,3.7-6.7,7.3-10.1,10.7
							C452.8,453.9,452.5,454,452.2,454z M155.8,444.8c-0.4,0-0.8-0.2-1-0.5c-2.8-4-5.5-8.2-7.9-12.5c-0.3-0.6-0.1-1.3,0.4-1.7
							c0.6-0.3,1.3-0.1,1.7,0.4c2.4,4.2,5.1,8.3,7.8,12.3c0.4,0.6,0.3,1.3-0.3,1.7C156.3,444.7,156,444.8,155.8,444.8z M471.6,432
							c-0.3,0-0.5-0.1-0.7-0.3c-0.5-0.4-0.6-1.2-0.2-1.7c3-3.9,5.9-7.8,8.5-11.8c0.4-0.6,1.1-0.7,1.7-0.3c0.6,0.4,0.7,1.1,0.3,1.7
							c-2.7,4-5.6,8.1-8.6,12C472.3,431.9,472,432,471.6,432z M297.6,428.9c-2.1,0-4.2-0.1-6.2-0.2c-0.7,0-1.2-0.6-1.1-1.3
							c0-0.7,0.6-1.2,1.3-1.1c4.7,0.3,9.6,0.3,14.5-0.2c0.7-0.1,1.3,0.4,1.3,1.1c0.1,0.7-0.4,1.3-1.1,1.3
							C303.4,428.8,300.5,428.9,297.6,428.9z M277.1,426.3c-0.1,0-0.2,0-0.3,0c-4.9-1.3-9.6-3.2-13.9-5.5c-0.6-0.3-0.8-1.1-0.5-1.7
							c0.3-0.6,1.1-0.8,1.7-0.5c4.1,2.2,8.6,4,13.4,5.3c0.7,0.2,1,0.8,0.9,1.5C278.1,426,277.6,426.3,277.1,426.3z M320.7,426.2
							c-0.6,0-1.1-0.4-1.2-0.9c-0.2-0.7,0.3-1.3,0.9-1.5c2.4-0.6,4.9-1.2,7.3-1.9c2.2-0.7,4.5-1.4,6.7-2.2c0.6-0.2,1.3,0.1,1.6,0.7
							c0.2,0.6-0.1,1.3-0.7,1.6c-2.3,0.8-4.5,1.6-6.8,2.2c-2.4,0.7-4.9,1.4-7.4,1.9C320.9,426.2,320.8,426.2,320.7,426.2z
							 M141.1,419.4c-0.5,0-0.9-0.3-1.1-0.7c-2.1-4.5-4-9.1-5.7-13.6c-0.2-0.6,0.1-1.3,0.7-1.6c0.6-0.2,1.3,0.1,1.6,0.7
							c1.6,4.5,3.5,9,5.6,13.4c0.3,0.6,0,1.3-0.6,1.6C141.4,419.4,141.3,419.4,141.1,419.4z M348.3,416.4c-0.5,0-0.9-0.3-1.1-0.7
							c-0.3-0.6,0-1.3,0.6-1.6c4.4-2.1,8.6-4.5,12.7-7.1c0.6-0.4,1.3-0.2,1.7,0.4c0.4,0.6,0.2,1.3-0.4,1.7c-4.1,2.6-8.5,5-12.9,7.2
							C348.7,416.4,348.5,416.4,348.3,416.4z M251.5,412.4c-0.3,0-0.6-0.1-0.8-0.3c-3.6-3.3-6.8-7.2-9.6-11.4
							c-0.4-0.6-0.2-1.3,0.4-1.7c0.6-0.4,1.3-0.2,1.7,0.4c2.7,4.1,5.8,7.8,9.2,11c0.5,0.5,0.5,1.2,0.1,1.7
							C252.2,412.3,251.9,412.4,251.5,412.4z M488,407.7c-0.2,0-0.4-0.1-0.6-0.2c-0.6-0.3-0.8-1.1-0.4-1.7c2.4-4.2,4.7-8.5,6.9-12.9
							c0.3-0.6,1-0.8,1.6-0.6c0.6,0.3,0.9,1,0.6,1.6c-2.2,4.4-4.5,8.8-6.9,13C488.8,407.5,488.4,407.7,488,407.7z M373.1,400.7
							c-0.4,0-0.7-0.2-1-0.5c-0.4-0.5-0.3-1.3,0.2-1.7c3.8-3.1,7.4-6.4,10.7-9.8c0.5-0.5,1.2-0.5,1.7,0c0.5,0.5,0.5,1.2,0,1.7
							c-3.4,3.5-7.1,6.9-10.9,10C373.6,400.6,373.4,400.7,373.1,400.7z M131,391.9c-0.5,0-1-0.4-1.2-0.9c-0.5-1.9-1-3.7-1.4-5.6
							c-0.7-2.9-1.3-5.9-1.8-8.8c-0.1-0.7,0.3-1.3,1-1.4c0.7-0.1,1.3,0.3,1.4,1c0.5,2.9,1.1,5.8,1.7,8.7c0.4,1.8,0.9,3.7,1.4,5.5
							c0.2,0.7-0.2,1.3-0.9,1.5C131.2,391.9,131.1,391.9,131,391.9z M235.5,388.2c-0.5,0-0.9-0.3-1.1-0.8c-1.8-4.5-3.2-9.3-4.1-14.3
							c-0.1-0.7,0.3-1.3,1-1.4c0.6-0.1,1.3,0.3,1.4,1c0.9,4.8,2.3,9.5,4,13.9c0.2,0.6-0.1,1.3-0.7,1.6
							C235.8,388.1,235.6,388.2,235.5,388.2z M330.7,387.1c-0.6,0-1.1-0.4-1.2-1c-0.1-0.7,0.3-1.3,1-1.4c4.6-0.9,9.1-2.5,13.5-4.7
							c0.6-0.3,1.3-0.1,1.7,0.5c0.3,0.6,0.1,1.3-0.5,1.6c-4.6,2.3-9.3,4-14.2,4.9C330.9,387.1,330.8,387.1,330.7,387.1z
							 M500.8,381.4c-0.2,0-0.3,0-0.5-0.1c-0.6-0.3-0.9-1-0.7-1.6c1.8-4.5,3.5-9.1,5-13.7c0.2-0.6,0.9-1,1.5-0.8
							c0.6,0.2,1,0.9,0.8,1.5c-1.5,4.6-3.2,9.3-5,13.9C501.8,381.1,501.3,381.4,500.8,381.4z M393.5,379.7c-0.3,0-0.5-0.1-0.7-0.2
							c-0.5-0.4-0.7-1.2-0.2-1.7c1.7-2.2,3.2-4.5,4.7-6.8c1.1-1.8,2.2-3.6,3.2-5.4c0.3-0.6,1.1-0.8,1.7-0.5c0.6,0.3,0.8,1.1,0.5,1.7
							c-1,1.9-2.1,3.7-3.3,5.5c-1.5,2.4-3.1,4.7-4.8,6.9C394.2,379.5,393.8,379.7,393.5,379.7z M356.6,373.9c-0.3,0-0.7-0.1-0.9-0.4
							c-0.5-0.5-0.4-1.3,0.1-1.7c3.6-3.2,6.7-6.9,9.3-10.9c0.4-0.6,1.1-0.7,1.7-0.3c0.6,0.4,0.7,1.1,0.3,1.7c-2.7,4.2-6,8-9.7,11.3
							C357.2,373.8,356.9,373.9,356.6,373.9z M126.1,363.1c-0.6,0-1.2-0.5-1.2-1.1c-0.3-4.3-0.5-8.7-0.5-13.1l0-1.7
							c0-0.7,0.6-1.2,1.2-1.2c0,0,0,0,0,0c0.7,0,1.2,0.6,1.2,1.2l0,1.6c0,4.3,0.2,8.7,0.5,12.9C127.4,362.4,126.9,363,126.1,363.1
							C126.2,363.1,126.2,363.1,126.1,363.1z M229.8,359.5c-0.7,0-1.2-0.5-1.2-1.2c0-0.7,0-1.4,0-2.1c0-1.5,0-2.9,0.1-4.4
							c0.1-2.8,0.4-5.6,0.8-8.3c0.1-0.7,0.7-1.1,1.4-1c0.7,0.1,1.1,0.7,1,1.4c-0.4,2.7-0.6,5.4-0.8,8.1c-0.1,1.4-0.1,2.9-0.1,4.3
							c0,0.7,0,1.4,0,2C231,359,230.5,359.5,229.8,359.5C229.8,359.5,229.8,359.5,229.8,359.5z M407.7,354.1c-0.1,0-0.3,0-0.4-0.1
							c-0.6-0.2-0.9-1-0.7-1.6c1.7-4.4,3.2-9.1,4.4-13.8c0.2-0.7,0.8-1.1,1.5-0.9c0.7,0.2,1.1,0.8,0.9,1.5
							c-1.2,4.8-2.7,9.6-4.5,14.1C408.6,353.8,408.2,354.1,407.7,354.1z M509.8,353.4c-0.1,0-0.2,0-0.3,0c-0.7-0.2-1.1-0.8-0.9-1.5
							c1.1-4.7,2.1-9.5,2.9-14.3c0.1-0.7,0.7-1.1,1.4-1c0.7,0.1,1.1,0.7,1,1.4c-0.8,4.8-1.8,9.7-2.9,14.5
							C510.8,353.1,510.3,353.4,509.8,353.4z M372.5,349.7c-0.1,0-0.3,0-0.4-0.1c-0.6-0.2-1-0.9-0.8-1.5c0.9-2.8,1.6-5.6,2-8.5
							c0.3-1.8,0.4-3.7,0.5-5.6c0-0.7,0.6-1.2,1.3-1.2c0.7,0,1.2,0.6,1.2,1.3c-0.1,2-0.2,3.9-0.5,5.8c-0.4,3-1.1,6-2.1,8.9
							C373.5,349.4,373,349.7,372.5,349.7z M126.4,333.8c0,0-0.1,0-0.1,0c-0.7-0.1-1.2-0.7-1.1-1.3c0.5-4.9,1.2-9.8,2-14.6
							c0.1-0.7,0.8-1.1,1.4-1c0.7,0.1,1.1,0.8,1,1.4c-0.9,4.8-1.5,9.6-2,14.4C127.6,333.3,127,333.8,126.4,333.8z M233.8,330.6
							c-0.1,0-0.2,0-0.4-0.1c-0.6-0.2-1-0.9-0.8-1.5c1.4-4.7,3.3-9.4,5.4-13.8c0.3-0.6,1-0.9,1.6-0.6c0.6,0.3,0.9,1,0.6,1.6
							c-2.1,4.3-3.9,8.8-5.3,13.5C234.8,330.3,234.4,330.6,233.8,330.6z M414.7,325.8c-0.1,0-0.1,0-0.1,0c-0.7-0.1-1.2-0.7-1.1-1.4
							c0.6-4.7,0.8-9.5,0.8-14.3c0-0.7,0.5-1.3,1.2-1.3c0.7,0,1.2,0.5,1.2,1.2v0.1c0,4.9-0.3,9.8-0.9,14.6
							C415.8,325.3,415.3,325.8,414.7,325.8z M514.5,324.5c0,0-0.1,0-0.1,0c-0.7-0.1-1.2-0.7-1.1-1.3c0.4-4.8,0.7-9.7,0.8-14.5
							c0-0.7,0.5-1.2,1.3-1.2c0.7,0,1.2,0.6,1.2,1.2c-0.1,4.9-0.4,9.9-0.8,14.7C515.7,324.1,515.2,324.5,514.5,324.5z M84.7,323.1
							c-0.6,0-1.2-0.5-1.2-1.1c-0.5-4.9-0.8-9.8-0.9-14.7c0-0.7,0.5-1.2,1.2-1.2c0.7,0.1,1.2,0.5,1.3,1.2c0.1,4.9,0.4,9.7,0.9,14.5
							c0.1,0.7-0.4,1.3-1.1,1.3C84.8,323.1,84.7,323.1,84.7,323.1z M373.6,320.7c-0.6,0-1.1-0.4-1.2-0.9c-1.1-4.6-2.7-9.1-4.9-13.5
							c-0.3-0.6-0.1-1.3,0.6-1.6c0.6-0.3,1.3-0.1,1.6,0.5c2.3,4.5,4,9.2,5.1,14c0.2,0.7-0.3,1.3-0.9,1.5
							C373.7,320.7,373.7,320.7,373.6,320.7z M131.7,305c-0.1,0-0.2,0-0.3,0c-0.7-0.2-1-0.8-0.9-1.5c1.3-4.7,2.8-9.5,4.5-14.1
							c0.2-0.6,0.9-1,1.6-0.7c0.6,0.2,1,0.9,0.7,1.6c-1.7,4.5-3.1,9.2-4.4,13.9C132.7,304.6,132.2,305,131.7,305z M246.6,304.4
							c-0.2,0-0.5-0.1-0.7-0.2c-0.6-0.4-0.7-1.2-0.3-1.7c2.9-4.1,6.1-7.9,9.6-11.3c0.5-0.5,1.3-0.5,1.7,0c0.5,0.5,0.5,1.3,0,1.7
							c-3.4,3.3-6.5,7-9.3,11C247.4,304.2,247,304.4,246.6,304.4z M414.7,296.5c-0.6,0-1.1-0.5-1.2-1.1c-0.6-4.8-1.4-9.6-2.5-14.3
							c-0.2-0.7,0.2-1.3,0.9-1.5c0.7-0.2,1.3,0.2,1.5,0.9c1.1,4.8,2,9.7,2.6,14.6c0.1,0.7-0.4,1.3-1.1,1.4
							C414.8,296.5,414.7,296.5,414.7,296.5z M515.2,295.2c-0.7,0-1.2-0.5-1.2-1.2c-0.2-4.8-0.6-9.7-1.2-14.5
							c-0.1-0.7,0.4-1.3,1.1-1.4c0.6-0.1,1.3,0.4,1.4,1.1c0.6,4.9,0.9,9.8,1.2,14.7C516.4,294.6,515.9,295.2,515.2,295.2
							C515.2,295.2,515.2,295.2,515.2,295.2z M360.6,294.7c-0.4,0-0.7-0.2-0.9-0.4c-3.1-3.7-6.5-7.1-10.3-10
							c-0.5-0.4-0.6-1.2-0.2-1.7c0.4-0.5,1.2-0.6,1.7-0.2c3.9,3,7.5,6.5,10.7,10.4c0.4,0.5,0.3,1.3-0.2,1.7
							C361.2,294.6,360.9,294.7,360.6,294.7z M84,293.8C84,293.8,84,293.8,84,293.8c-0.7,0-1.3-0.6-1.2-1.3
							c0.2-4.9,0.7-9.8,1.3-14.7c0.1-0.7,0.7-1.2,1.4-1.1c0.7,0.1,1.1,0.7,1.1,1.4c-0.6,4.8-1,9.7-1.2,14.5
							C85.2,293.3,84.7,293.8,84,293.8z M267.5,283.9c-0.4,0-0.8-0.2-1-0.5c-0.4-0.6-0.2-1.3,0.3-1.7c4.1-2.7,8.5-5.1,13.2-7
							c0.6-0.3,1.3,0,1.6,0.7c0.3,0.6,0,1.3-0.7,1.6c-4.5,1.9-8.8,4.1-12.7,6.8C267.9,283.9,267.7,283.9,267.5,283.9z M141.7,277.5
							c-0.2,0-0.3,0-0.5-0.1c-0.6-0.3-0.9-1-0.6-1.6c2.1-4.5,4.4-8.9,6.8-13.1c0.3-0.6,1.1-0.8,1.7-0.4c0.6,0.3,0.8,1.1,0.4,1.7
							c-2.4,4.2-4.7,8.5-6.7,12.9C142.7,277.2,142.2,277.5,141.7,277.5z M337.6,276.9c-0.2,0-0.3,0-0.5-0.1
							c-4.3-1.9-8.9-3.4-13.7-4.3c-0.7-0.1-1.1-0.8-1-1.4c0.1-0.7,0.8-1.1,1.4-1c5,1,9.7,2.5,14.2,4.5c0.6,0.3,0.9,1,0.6,1.6
							C338.5,276.6,338.1,276.9,337.6,276.9z M294.4,272.7c-0.6,0-1.1-0.4-1.2-1c-0.1-0.7,0.3-1.3,0.9-1.4c4.9-1,9.9-1.6,14.8-1.6
							c0,0,0,0,0,0c0.7,0,1.2,0.5,1.2,1.2c0,0.7-0.5,1.2-1.2,1.2c-4.8,0-9.6,0.6-14.3,1.5C294.6,272.7,294.5,272.7,294.4,272.7z
							 M407.9,268c-0.5,0-1-0.3-1.2-0.8c-1.7-4.5-3.6-9-5.8-13.3c-0.3-0.6-0.1-1.3,0.5-1.6c0.6-0.3,1.3-0.1,1.6,0.5
							c2.2,4.4,4.2,8.9,6,13.6c0.2,0.6-0.1,1.3-0.7,1.6C408.1,268,408,268,407.9,268z M511.9,266.1c-0.6,0-1.1-0.4-1.2-1
							c-0.9-4.7-1.9-9.5-3-14.3c-0.2-0.7,0.2-1.3,0.9-1.5c0.7-0.2,1.3,0.2,1.5,0.9c1.2,4.8,2.2,9.6,3.1,14.4c0.1,0.7-0.3,1.3-1,1.4
							C512.1,266.1,512,266.1,511.9,266.1z M87.6,264.8c-0.1,0-0.2,0-0.2,0c-0.7-0.1-1.1-0.8-1-1.4c0.9-4.8,2-9.6,3.3-14.4
							c0.2-0.7,0.8-1.1,1.5-0.9c0.7,0.2,1,0.8,0.9,1.5c-1.2,4.7-2.3,9.5-3.2,14.2C88.7,264.3,88.1,264.8,87.6,264.8z M156.4,252.1
							c-0.2,0-0.5-0.1-0.7-0.2c-0.6-0.4-0.7-1.2-0.3-1.7c1.7-2.4,3.5-4.8,5.4-7.2c1.2-1.5,2.4-3,3.7-4.5c0.4-0.5,1.2-0.6,1.7-0.1
							c0.5,0.4,0.6,1.2,0.1,1.7c-1.2,1.5-2.5,2.9-3.7,4.4c-1.8,2.3-3.6,4.7-5.3,7.1C157.2,251.9,156.8,252.1,156.4,252.1z
							 M394.4,242c-0.4,0-0.8-0.2-1-0.5c-2.7-3.9-5.7-7.8-8.9-11.4c-0.4-0.5-0.4-1.3,0.1-1.7c0.5-0.4,1.3-0.4,1.7,0.1
							c3.3,3.7,6.4,7.6,9.1,11.7c0.4,0.6,0.2,1.3-0.3,1.7C394.9,242,394.7,242,394.4,242z M504.9,237.7c-0.5,0-1-0.3-1.2-0.9
							c-1.5-4.6-3.1-9.2-4.9-13.8c-0.2-0.6,0.1-1.3,0.7-1.6c0.6-0.2,1.3,0.1,1.6,0.7c1.8,4.6,3.4,9.2,4.9,13.9
							c0.2,0.6-0.2,1.3-0.8,1.5C505.1,237.7,505,237.7,504.9,237.7z M95,236.4c-0.1,0-0.3,0-0.4-0.1c-0.6-0.2-1-0.9-0.8-1.5
							c1.5-4.6,3.3-9.3,5.1-13.8c0.3-0.6,1-0.9,1.6-0.7c0.6,0.3,0.9,1,0.7,1.6c-1.8,4.5-3.5,9.1-5.1,13.7
							C96,236.1,95.5,236.4,95,236.4z M175.5,229.8c-0.3,0-0.6-0.1-0.9-0.4c-0.5-0.5-0.5-1.3,0-1.7c3.5-3.4,7.2-6.7,11-9.8
							c0.5-0.4,1.3-0.4,1.7,0.2c0.4,0.5,0.3,1.3-0.2,1.7c-3.8,3.1-7.4,6.3-10.9,9.7C176.1,229.7,175.8,229.8,175.5,229.8z
							 M375.1,220.1c-0.3,0-0.6-0.1-0.8-0.3c-3.6-3.2-7.4-6.3-11.3-9.1c-0.5-0.4-0.7-1.2-0.3-1.7c0.4-0.6,1.2-0.7,1.7-0.3
							c4,2.9,7.9,6,11.5,9.3c0.5,0.5,0.5,1.2,0.1,1.7C375.7,219.9,375.4,220.1,375.1,220.1z M198.2,211.3c-0.4,0-0.8-0.2-1-0.5
							c-0.4-0.6-0.2-1.3,0.3-1.7c4.1-2.7,8.3-5.3,12.6-7.7c0.6-0.3,1.3-0.1,1.7,0.5c0.3,0.6,0.1,1.3-0.5,1.7
							c-4.2,2.3-8.4,4.9-12.4,7.6C198.7,211.3,198.5,211.3,198.2,211.3z M494.2,210.4c-0.5,0-0.9-0.3-1.1-0.7
							c-2.1-4.4-4.3-8.8-6.6-13c-0.3-0.6-0.1-1.3,0.5-1.7c0.6-0.3,1.3-0.1,1.7,0.5c2.4,4.3,4.6,8.7,6.7,13.2c0.3,0.6,0,1.3-0.6,1.6
							C494.5,210.3,494.4,210.4,494.2,210.4z M106.1,209.3c-0.2,0-0.4,0-0.5-0.1c-0.6-0.3-0.9-1-0.6-1.6c2.1-4.4,4.5-8.8,6.9-13
							c0.3-0.6,1.1-0.8,1.7-0.5c0.6,0.3,0.8,1.1,0.5,1.7c-2.4,4.2-4.7,8.5-6.8,12.9C107,209,106.5,209.3,106.1,209.3z M351.3,203
							c-0.2,0-0.4-0.1-0.6-0.2c-4.2-2.4-8.6-4.6-13-6.5c-0.6-0.3-0.9-1-0.6-1.6c0.3-0.6,1-0.9,1.6-0.6c4.5,2,9,4.2,13.3,6.6
							c0.6,0.3,0.8,1.1,0.5,1.7C352.1,202.8,351.7,203,351.3,203z M223.9,197.2c-0.5,0-0.9-0.3-1.1-0.7c-0.3-0.6,0-1.3,0.6-1.6
							c4.5-2,9.2-3.7,13.8-5.3c0.6-0.2,1.3,0.1,1.5,0.8c0.2,0.6-0.1,1.3-0.8,1.5c-4.6,1.5-9.2,3.2-13.6,5.2
							C224.3,197.2,224.1,197.2,223.9,197.2z M324.4,191.3c-0.1,0-0.2,0-0.4-0.1c-4.6-1.5-9.4-2.7-14.1-3.7c-0.7-0.1-1.1-0.8-1-1.4
							c0.1-0.7,0.8-1.1,1.4-0.9c4.8,1,9.6,2.2,14.3,3.7c0.6,0.2,1,0.9,0.8,1.5C325.4,191,324.9,191.3,324.4,191.3z M251.8,188.2
							c-0.6,0-1.1-0.4-1.2-1c-0.1-0.7,0.3-1.3,0.9-1.5c4.8-1.1,9.8-1.9,14.6-2.5c0.7-0.1,1.3,0.4,1.4,1.1c0.1,0.7-0.4,1.3-1.1,1.4
							c-4.8,0.6-9.6,1.4-14.4,2.4C252,188.1,251.9,188.2,251.8,188.2z M295.6,185.4c0,0-0.1,0-0.1,0c-4.4-0.4-8.8-0.6-13.1-0.6
							l-1.5,0c0,0,0,0,0,0c-0.7,0-1.2-0.5-1.2-1.2c0-0.7,0.5-1.2,1.2-1.2l1.5,0c4.4,0,8.9,0.2,13.3,0.7c0.7,0.1,1.2,0.7,1.1,1.3
							C296.8,184.9,296.3,185.4,295.6,185.4z M480.1,184.7c-0.4,0-0.8-0.2-1-0.6c-2.6-4.1-5.4-8.1-8.3-12c-0.4-0.5-0.3-1.3,0.3-1.7
							c0.5-0.4,1.3-0.3,1.7,0.3c2.9,3.9,5.7,8,8.4,12.2c0.4,0.6,0.2,1.3-0.4,1.7C480.5,184.6,480.3,184.7,480.1,184.7z M120.6,183.8
							c-0.2,0-0.5-0.1-0.7-0.2c-0.6-0.4-0.7-1.1-0.4-1.7c2.7-4.1,5.6-8.2,8.5-12.1c0.4-0.5,1.2-0.6,1.7-0.2c0.5,0.4,0.6,1.2,0.2,1.7
							c-2.9,3.9-5.7,7.9-8.4,11.9C121.4,183.6,121,183.8,120.6,183.8z M462.7,161.1c-0.3,0-0.7-0.1-0.9-0.4
							c-3.2-3.7-6.5-7.3-9.8-10.8c-0.5-0.5-0.5-1.3,0-1.7c0.5-0.5,1.3-0.5,1.7,0c3.4,3.5,6.8,7.1,10,10.9c0.4,0.5,0.4,1.3-0.1,1.7
							C463.2,161,462.9,161.1,462.7,161.1z M138.2,160.4c-0.3,0-0.6-0.1-0.8-0.3c-0.5-0.4-0.6-1.2-0.1-1.7c3.2-3.7,6.6-7.4,10-10.8
							c0.5-0.5,1.3-0.5,1.7,0c0.5,0.5,0.5,1.2,0,1.7c-3.4,3.4-6.7,7-9.9,10.7C138.9,160.2,138.6,160.4,138.2,160.4z M442.1,140.2
							c-0.3,0-0.6-0.1-0.8-0.3c-2.4-2.1-4.8-4.1-7.2-6.1c-1.3-1.1-2.7-2.1-4.1-3.2c-0.5-0.4-0.6-1.2-0.2-1.7
							c0.4-0.5,1.2-0.6,1.7-0.2c1.4,1,2.8,2.1,4.1,3.2c2.5,2,4.9,4,7.3,6.1c0.5,0.4,0.6,1.2,0.1,1.7
							C442.8,140.1,442.4,140.2,442.1,140.2z M158.9,139.5c-0.3,0-0.7-0.1-0.9-0.4c-0.4-0.5-0.4-1.3,0.1-1.7
							c3.7-3.3,7.5-6.4,11.4-9.4c0.5-0.4,1.3-0.3,1.7,0.2c0.4,0.5,0.3,1.3-0.2,1.7c-3.8,2.9-7.6,6-11.3,9.3
							C159.4,139.4,159.1,139.5,158.9,139.5z M418.7,122.5c-0.2,0-0.5-0.1-0.7-0.2c-4-2.6-8.3-5.1-12.5-7.5
							c-0.6-0.3-0.8-1.1-0.5-1.7c0.3-0.6,1.1-0.8,1.7-0.5c4.3,2.4,8.6,4.9,12.7,7.6c0.6,0.4,0.7,1.1,0.4,1.7
							C419.5,122.3,419.1,122.5,418.7,122.5z M182.1,121.7c-0.4,0-0.8-0.2-1-0.5c-0.4-0.6-0.2-1.3,0.3-1.7c4.1-2.7,8.4-5.3,12.6-7.7
							c0.6-0.3,1.3-0.1,1.7,0.5c0.3,0.6,0.1,1.3-0.5,1.7c-4.2,2.3-8.4,4.9-12.5,7.6C182.6,121.6,182.4,121.7,182.1,121.7z
							 M393,108.4c-0.2,0-0.3,0-0.5-0.1c-4.4-2-8.9-3.9-13.5-5.7c-0.6-0.2-0.9-0.9-0.7-1.6c0.2-0.6,1-0.9,1.6-0.7
							c4.6,1.8,9.2,3.7,13.6,5.7c0.6,0.3,0.9,1,0.6,1.6C393.9,108.1,393.5,108.4,393,108.4z M207.8,107.4c-0.5,0-0.9-0.3-1.1-0.7
							c-0.3-0.6,0-1.3,0.6-1.6c4.4-2.1,9-4,13.6-5.7c0.6-0.2,1.3,0.1,1.6,0.7c0.2,0.6-0.1,1.3-0.7,1.6c-4.5,1.7-9.1,3.6-13.5,5.7
							C208.1,107.4,208,107.4,207.8,107.4z M365.6,97.9c-0.1,0-0.2,0-0.4-0.1c-4.6-1.4-9.3-2.7-14.1-3.8c-0.7-0.2-1.1-0.8-0.9-1.5
							c0.2-0.7,0.8-1.1,1.5-0.9c4.8,1.1,9.6,2.4,14.2,3.9c0.6,0.2,1,0.9,0.8,1.5C366.6,97.5,366.1,97.9,365.6,97.9z M235.2,97
							c-0.5,0-1-0.3-1.2-0.9c-0.2-0.6,0.2-1.3,0.8-1.5c4.7-1.4,9.5-2.7,14.3-3.8c0.7-0.2,1.3,0.3,1.5,0.9c0.2,0.7-0.3,1.3-0.9,1.5
							c-4.8,1.1-9.5,2.3-14.1,3.7C235.5,97,235.4,97,235.2,97z M337,91.1c-0.1,0-0.1,0-0.2,0c-4.8-0.8-9.6-1.5-14.5-2
							c-0.7-0.1-1.2-0.7-1.1-1.3c0.1-0.7,0.7-1.2,1.3-1.1c4.9,0.5,9.8,1.2,14.6,2c0.7,0.1,1.1,0.7,1,1.4
							C338.1,90.6,337.6,91.1,337,91.1z M263.9,90.5c-0.6,0-1.1-0.4-1.2-1c-0.1-0.7,0.4-1.3,1-1.4c4.8-0.8,9.8-1.4,14.7-1.8
							c0.7,0,1.3,0.4,1.3,1.1c0.1,0.7-0.4,1.3-1.1,1.3c-4.9,0.4-9.7,1-14.5,1.8C264,90.5,263.9,90.5,263.9,90.5z M307.8,88
							C307.8,88,307.8,88,307.8,88c-5-0.2-9.8-0.2-14.7-0.1c0,0,0,0,0,0c-0.7,0-1.2-0.5-1.2-1.2c0-0.7,0.5-1.2,1.2-1.3
							c4.9-0.1,9.8-0.1,14.8,0.1c0.7,0,1.2,0.6,1.2,1.3C309,87.5,308.5,88,307.8,88z"/>
					</g>
				</g>
			</g>
		</g>
		<g id="XMLID_252_">
			<g id="XMLID_254_">
				<circle id="XMLID_256_" class="st4" cx="422.3" cy="180.9" r="68.9"/>
				<path id="XMLID_255_" class="st5" d="M491.3,180.9c0-38.1-30.9-68.9-68.9-68.9c-1.2,0-2.5,0-3.7,0.1
					c-5.9,10.4-7.9,21.5-11.6,32.7c3.3-1.4,7.5-0.4,9.7,2.4c2.3,2.8,2.4,7.1,0.2,10c-2.7,3.7-7.7,4.5-11.7,6.6
					c-7.2,3.8-11.2,12.6-9.4,20.5c0.4,1.5,0.9,3,1,4.6c0.1,1.4-0.1,2.8,0.2,4.1c0.6,3.4,4,5.8,7.5,6.1c3.4,0.3,6.8-1,9.8-2.7
					c4-2.2,8.3-5.2,12.8-4.1c3.9,1,7,5,10.9,4.4c2.9-0.4,4.7-3.1,6.8-5.1c2.1-2,5.7-3.4,7.6-1.3c3.2,4.5,4.8,10.1,4.4,15.6
					c-0.1,2-0.5,4.1,0,6c0.5,2,2.1,3.8,4.1,3.7c4.6-0.3,4.3-9.3,9-9.7c2.5-0.2,4.3,2.8,4,5.3c-0.2,2.5-1.7,4.7-2.9,7
					c-1.9,4-1,6.3,1.4,9.5C485.1,216.2,491.3,197.4,491.3,180.9z"/>
			</g>
			<path id="XMLID_253_" class="st6" d="M467.1,128.6c10.3,12.1,16.6,27.7,16.6,44.8c0,38.1-30.9,68.9-68.9,68.9
				c-17.1,0-32.8-6.2-44.8-16.6c12.6,14.8,31.4,24.1,52.4,24.1c38.1,0,68.9-30.9,68.9-68.9C491.3,160,481.9,141.2,467.1,128.6z"/>
		</g>
		<g id="XMLID_158_">
			<path id="XMLID_243_" class="st4" d="M412,397.6H212.9c-9.5,0-17.3-7.7-17.3-17.3V245.6c0-9.5,7.7-17.3,17.3-17.3H412
				c9.5,0,17.3,7.7,17.3,17.3v134.7C429.2,389.8,421.5,397.6,412,397.6z"/>
			<path id="XMLID_242_" class="st7" d="M195.6,375v6c0,9.2,7.4,16.6,16.6,16.6h200.4c9.2,0,16.6-7.4,16.6-16.6v-6H195.6z"/>
			<g id="XMLID_237_">
				<g id="XMLID_240_">
					<rect id="XMLID_241_" x="207.1" y="239.9" class="st8" width="210.6" height="123.6"/>
				</g>
				<g id="XMLID_238_">
					<rect id="XMLID_239_" x="207.1" y="239.9" class="st9" width="210.6" height="123.6"/>
				</g>
			</g>
			<circle id="XMLID_236_" class="st10" cx="312.4" cy="386.3" r="4.8"/>
			<g id="XMLID_233_">
				<rect id="XMLID_235_" x="233.4" y="210.3" class="st11" width="79.1" height="128.8"/>
				<rect id="XMLID_234_" x="312.4" y="210.3" class="st11" width="79.1" height="128.8"/>
			</g>
			<g id="XMLID_177_">
				<rect id="XMLID_232_" x="242" y="204.4" class="st12" width="70.4" height="127.7"/>
				<rect id="XMLID_185_" x="312.4" y="204.4" class="st12" width="70.4" height="127.7"/>
				<rect id="XMLID_182_" x="253.6" y="217" class="st13" width="26.6" height="36.9"/>
				<line id="XMLID_181_" class="st9" x1="253.6" y1="268.2" x2="300.4" y2="268.2"/>
				<line id="XMLID_180_" class="st9" x1="253.6" y1="280.8" x2="300.4" y2="280.8"/>
				<line id="XMLID_179_" class="st9" x1="253.6" y1="293.4" x2="300.4" y2="293.4"/>
				<line id="XMLID_178_" class="st9" x1="253.6" y1="305.9" x2="300.4" y2="305.9"/>
			</g>
			<polygon id="XMLID_176_" class="st10" points="372.3,330.6 354.2,205.8 354,205.8 354,287 313.8,330.6 			"/>
			<polygon id="XMLID_175_" class="st12" points="354,287 312.4,332.1 312.4,204.4 354,159.3 			"/>
			<line id="XMLID_174_" class="st9" x1="224" y1="339.1" x2="400.9" y2="339.1"/>
			<path id="XMLID_168_" class="st14" d="M273.6,207v-8.4h-4.4c-0.7-3.8-2.2-7.3-4.3-10.3l3.2-3.2l-5.9-5.9l-3.3,3.3
				c-3-2.1-6.5-3.6-10.2-4.2v-4.8h-8.4v4.8c-3.7,0.6-7.2,2.1-10.2,4.2l-3.4-3.4l-5.9,5.9l3.4,3.4c-2.1,3-3.7,6.4-4.3,10.2h-4.7v8.4
				h4.6c0.6,3.8,2,7.4,4.1,10.4l-3.2,3.2l5.9,5.9l3.1-3.1c3,2.2,6.6,3.8,10.4,4.5v4.3h8.4v-4.2c3.9-0.6,7.5-2.1,10.6-4.3l3,3
				l5.9-5.9l-3-3c2.2-3.1,3.7-6.6,4.3-10.5H273.6z M261.1,201.2h-11.4c-0.5-1.7-1.9-3.1-3.7-3.7v-11.4
				C254,187,260.3,193.3,261.1,201.2z M242.7,186.2v11.4c-1.7,0.5-3.1,1.9-3.7,3.7h-11.4C228.4,193.3,234.7,187,242.7,186.2z
				 M227.6,204.6H239c0.5,1.7,1.9,3.1,3.7,3.7v11.4C234.7,218.9,228.4,212.5,227.6,204.6z M246,219.7v-11.4c1.7-0.5,3.1-1.9,3.7-3.7
				h11.4C260.3,212.5,254,218.9,246,219.7z"/>
			<path id="XMLID_165_" class="st14" d="M314.5,176.8v-7h-4.7c-0.3-1.4-0.9-2.7-1.6-4l3.3-3.3l-4.9-4.9l-3.2,3.2
				c-1.2-0.8-2.6-1.3-4-1.7v-4.5h-7v4.5c-1.4,0.4-2.8,0.9-4,1.7l-3.2-3.2l-4.9,4.9l3.3,3.3c-0.7,1.2-1.3,2.5-1.6,4h-4.7v7h4.8
				c0.4,1.4,0.9,2.6,1.6,3.8l-3.4,3.4l4.9,4.9l3.5-3.5c1.2,0.7,2.4,1.2,3.8,1.5v4.9h7V187c1.3-0.3,2.6-0.9,3.8-1.5l3.5,3.5l4.9-4.9
				l-3.4-3.4c0.7-1.2,1.3-2.4,1.6-3.8H314.5z M295.9,177.6c-2.5,0-4.5-2-4.5-4.5c0-2.5,2-4.5,4.5-4.5c2.5,0,4.5,2,4.5,4.5
				C300.4,175.6,298.3,177.6,295.9,177.6z"/>
			<path id="XMLID_164_" class="st7" d="M357.2,433.4h-89.5l0,0c0-5.2,4.2-9.5,9.5-9.5h70.6C353,424,357.2,428.2,357.2,433.4
				L357.2,433.4z"/>
			<rect id="XMLID_163_" x="291.6" y="397.6" class="st7" width="41.6" height="26.4"/>
			<rect id="XMLID_162_" x="291.6" y="397.6" class="st6" width="41.6" height="10.1"/>
			<line id="XMLID_161_" class="st9" x1="233.4" y1="352.3" x2="261.1" y2="352.3"/>
			<line id="XMLID_160_" class="st9" x1="377.6" y1="352.3" x2="391.5" y2="352.3"/>
			<line id="XMLID_159_" class="st9" x1="300.6" y1="352.3" x2="352" y2="352.3"/>
		</g>
		<g>
			<g>
				<path class="st15" d="M74.5,483l2.3-5.2v-14.1c0-4.7,1.5-9.3,4.3-13.1l15.2-20.7l17.4-11.6l4.4,39.4l-2.9,22l-13.7,14.9
					L74.5,483z"/>
				<g>
					<path class="st16" d="M204.6,383.8H103c-6.6,0-11.9,5.4-11.9,11.9v69.6c0,6.6,5.4,11.9,11.9,11.9h101.7
						c6.6,0,11.9-5.4,11.9-11.9v-69.6C216.5,389.2,211.2,383.8,204.6,383.8z"/>
					<polygon class="st17" points="203.4,468.5 203.4,392.6 101.1,392.6 177,468.5 					"/>
					<polygon class="st17" points="100.3,468.5 177,468.5 101.1,392.6 100.3,392.6 					"/>
					<path class="st18" d="M214.3,430.5c0,2.4-2,4.4-4.4,4.4c-2.4,0-4.4-2-4.4-4.4c0-2.4,2-4.4,4.4-4.4
						C212.3,426.1,214.3,428.1,214.3,430.5z"/>
					<path class="st19" d="M99.9,430.5c0,2-1.6,3.6-3.6,3.6c-2,0-3.6-1.6-3.6-3.6c0-2,1.6-3.6,3.6-3.6
						C98.3,427,99.9,428.6,99.9,430.5z"/>
					<g>
						<polygon class="st20" points="175.1,397.8 102.8,397.8 102.8,459.5 175.1,459.5 202.4,459.5 202.4,397.8 						"/>
						<g>
							<g>
								<g>
									<path class="st21" d="M144.4,409.5c0.2-0.2,0.3-0.3,0.5-0.5C144.7,409.2,144.5,409.4,144.4,409.5z"/>
									<path class="st22" d="M163.9,418.6c0-0.8-0.1-1.5-0.2-2.3c-0.9-6.5-6.4-11.9-13.3-10.6c-1.7,0.3-4.3,0.8-5.1,2.7
										c-3.1-0.3-4.5,4.3-4.9,6.7c-0.1,0.5-0.2,1-0.2,1.4c-0.2,2.2-0.1,4.5,0,6.8c0.1,2,0.5,4.3,1.6,6.1c0.9,1.4,2.2,3.3,3.6,4.1
										c3,1.6,6.2,1.4,9.5,0.9c1.6-0.2,3.3-0.3,4.7-1.3c1.7-1.2,2.6-2.4,3.2-4.5C163.6,425.3,164.1,421.9,163.9,418.6z"/>
								</g>
								<g>
									<g>
										<path class="st23" d="M146.9,434.3c-0.5,2.3,5.5,6.8,5.5,6.8l4-2l-9.6-9.7C146.9,429.4,147.4,432,146.9,434.3z"/>
										<path class="st24" d="M158.1,428.3c0.4-2.8-11.2,1-11.2,1l10.1,10.3l2-4.5C159,435.1,157.6,432,158.1,428.3z"/>
									</g>
									<path class="st25" d="M158.3,428.3c0.6-0.8,0.7-1.7,0.8-2.7c0-0.4,0.4-0.5,0.8-0.8c0.7-0.5,0.9-1,1.1-2
										c0.3-1.8,0.7-2.4-1.2-3c-3.5-1.1-7.8-2.4-10.9-4.6c-0.7-0.5-3.3-1.7-3.2-2.6c-0.2,1.9-1.2,3.2-2.1,4.7c0,0,0,0,0,0
										c-0.2,0.6-0.6,1.2-1,1.7c-0.3,0.5-0.5,1-0.7,1.4c-0.1,0.3-0.1,0.6,0,1c0.1,0.6,0.5,3.3,1.7,3.4c0.3,0,0.5,0.4,0.5,0.7
										c0.4,2.2,1.9,3.7,3.5,5.2c0.1,0.1,0.2,0.2,0.3,0.3c1.3,1.1,2.5,1.7,3.8,1.6c1.3,0.1,2.5-0.4,3.8-1.6
										c0.2-0.2,0.5-0.4,0.7-0.6C157,429.7,157.7,429,158.3,428.3z"/>
								</g>
							</g>
							<g>
								<path class="st26" d="M158.1,444.3c-1.2-1.6-3.1-3.4-5.2-3.9c-2.1,0.5-4,2.3-5.2,3.9c-0.2,0.2-0.2,0.5-0.1,0.8l5.2,12.2
									c0,0.1,0.1,0.2,0.2,0.2c0.1-0.1,0.1-0.1,0.2-0.2l5.2-12.2C158.3,444.9,158.3,444.6,158.1,444.3z"/>
								<g>
									<path class="st27" d="M152.8,462.7c0-0.2,0-0.3,0.1-0.3C152.9,462.4,152.9,462.5,152.8,462.7h0.1l0-6.8c0,0,0,0.1,0,0.1
										c-0.5-1.5-0.9-3.1-1.4-4.6c-1.6-5.2-3.2-10.4-4.8-15.6c0.1,0.2-3.1,2.2-3.5,2.4c-2.2,0.9-3.7,0.9-5.9,1.5
										c-1.9,0.5-4.5,1.1-5.6,2.7c-1.1,1.5-1.7,12-1.1,20.4H152.8z"/>
									<path class="st28" d="M175.3,462.7c0.6-8.4,0-18.8-1.1-20.4c-1.2-1.6-3.8-2.2-5.6-2.7c-2.2-0.6-3.8-0.6-5.9-1.5
										c-0.4-0.1-3.6-2.1-3.5-2.4c-1.6,5.2-3.2,10.4-4.8,15.6c-0.5,1.5-0.9,3-1.4,4.5l0,6.8H175.3z"/>
								</g>
								<path class="st29" d="M155.7,452.6l-1.8-8.2c-0.1-0.3,0-0.5,0.1-0.8l0.7-1.3c0-0.1,0-0.2,0-0.2c-0.3-0.3-0.5-0.5-0.8-0.8
									c-0.2-0.2-0.4-0.3-0.5-0.6c-0.1-0.2-0.3-0.5-0.5-0.4c-0.2,0.1-0.3,0.4-0.4,0.5c-0.1,0.2-0.3,0.3-0.5,0.5
									c-0.2,0.2-0.5,0.5-0.7,0.7c-0.1,0.1-0.1,0.1,0,0.2l0.7,1.3c0.1,0.2,0.2,0.5,0.1,0.8l-1.8,8.2c0,0,0,0.1,0,0.1l2.5,6.4
									c0,0.1,0.2,0.1,0.3,0.1c0.1,0,0.2,0,0.3-0.1l2.5-6.4C155.7,452.7,155.7,452.6,155.7,452.6z"/>
								<path class="st16" d="M160.2,438.3l-1.4-3.9l-1.1,2c-1.2,1.7-3.9,3.5-4.9,3.5c-1,0-3.5-1.7-4.9-3.5l-1.1-2l-1.4,3.9
									c0,0.1,0,0.1,0,0.2l2.5,8c0.1,0.2,0.4,1.4,0.5,0.1l1.4-2.4c0.2-0.3,0.3-0.5,0.6-0.8l2.4-3l2.4,3c0.2,0.2,0.4,0.5,0.6,0.8
									l1.4,2.4c0.1,1.3,0.4,0.1,0.5-0.1l2.5-8C160.2,438.4,160.2,438.4,160.2,438.3z"/>
								<path class="st30" d="M159.9,443.2l3.1,0.3c-0.3-1-1-5.8-2-6.3l-1.8-1.4l-3.7,11.2l-2.7,8.8l-2.7-8.8l-3.7-11.2l-1.8,1.4
									c-0.9,0.5-1.6,5.3-2,6.3l3.1-0.3c0,0-2.3,4.1-2.3,4.1c-0.2,0.3,8.5,12.2,9.3,14.9c1.2-3.1,9.5-14.6,9.3-14.9
									C162.2,447.3,159.9,443.2,159.9,443.2z"/>
							</g>
							<path class="st31" d="M161.4,420.6l-0.3-0.8l-1.8,0.4c-0.1-0.1-0.2-0.2-0.3-0.3c-0.6-0.6-1.7-1-3.1-1c-1.3,0-2.9,0.4-3.6,1.2
								l0,0c-0.4,0.2-0.7,0.3-1,0.3c-0.3,0-0.6-0.1-1-0.3l0,0c-0.7-0.8-2.3-1.2-3.6-1.2c-1.4,0-2.5,0.4-3.1,1
								c-0.1,0.1-0.2,0.2-0.3,0.3l-1.6-0.3l-0.2,0.8l1.5,0.3c0,0.1,0,0.2,0,0.4c0.1,1.8,1.9,2.8,3.6,2.8c0,0,0.1,0,0.1,0
								c0.3,0,0.6-0.1,0.9-0.1c1.3-0.3,2.3-1.2,2.8-2.5c0.1-0.2,0.1-0.3,0.1-0.5c0.2,0.1,0.5,0.1,0.7,0.1c0.2,0,0.4,0,0.7-0.1
								c0,0.2,0,0.3,0.1,0.5c0.5,1.3,1.5,2.2,2.8,2.5c0.3,0.1,0.6,0.1,0.9,0.1c0,0,0.1,0,0.1,0c1.7,0,3.4-1,3.6-2.8
								c0-0.1,0-0.2,0-0.4L161.4,420.6z M150,421.2c-0.4,1-1.2,1.8-2.3,2c-0.2,0.1-0.5,0.1-0.8,0.1l-0.1,0c-1.3,0-2.7-0.7-2.8-2.1
								c0-0.3,0.1-0.6,0.3-0.9c0.4-0.5,1.4-0.8,2.5-0.8c1.4,0,2.7,0.4,3.1,1C150,420.8,150.1,421,150,421.2z M156,423.4l-0.1,0
								c-0.3,0-0.5,0-0.8-0.1c-1-0.3-1.8-1-2.3-2c-0.1-0.2-0.1-0.4,0.1-0.6c0.4-0.6,1.7-1,3.1-1c1.1,0,2.1,0.3,2.5,0.8
								c0.2,0.2,0.3,0.5,0.3,0.9C158.8,422.6,157.3,423.4,156,423.4z"/>
						</g>
						<polygon class="st32" points="173.4,460.3 107.3,460.3 107.3,465.2 190,465.2 198.3,465.2 198.3,460.3 						"/>
						<g>
							<rect x="173.2" y="459.2" class="st33" width="24.9" height="2.1"/>
							<rect x="107.1" y="459.2" class="st34" width="66.1" height="2.1"/>
							<g>
								<polygon class="st16" points="109.7,461.8 112.3,463.3 109.7,464.8 								"/>
								<g>
									<polygon class="st16" points="116.5,462.6 115.7,462.6 115.7,463.9 116.5,463.9 117.7,464.8 117.7,461.7 									"/>
									<g>
										<path class="st16" d="M118.6,462.8c-0.1-0.1-0.1-0.2-0.2-0.3c-0.2-0.2-0.4-0.1-0.4-0.1c0,0-0.1,0,0,0.1c0,0,0,0.1,0.1,0
											c0,0,0.2,0,0.3,0.1c0.1,0.1,0.1,0.1,0.2,0.3c0.1,0.2,0.1,0.4,0,0.6c-0.1,0.1-0.1,0.2-0.2,0.3c-0.2,0.1-0.3,0.1-0.3,0.1
											c0,0-0.1,0-0.1,0c0,0,0,0.1,0,0.1c0,0,0.2,0,0.4-0.1c0.1-0.1,0.1-0.2,0.2-0.3C118.8,463.4,118.8,463.1,118.6,462.8z"/>
										<path class="st16" d="M118.2,463.5C118.1,463.5,118.1,463.5,118.2,463.5c-0.1,0.1,0,0.1,0,0.1c0,0,0.1,0,0.2-0.1
											c0.1-0.1,0.1-0.4,0-0.5c-0.1-0.1-0.1-0.1-0.2-0.1c0,0-0.1,0-0.1,0.1c0,0,0,0.1,0.1,0.1c0,0,0,0,0.1,0
											C118.3,463.1,118.3,463.3,118.2,463.5C118.2,463.5,118.2,463.5,118.2,463.5z"/>
									</g>
								</g>
							</g>
						</g>
					</g>
				</g>
				<path class="st15" d="M122.7,453.1c0,0,0,0.1,0,0.1c0,0.1,0,0.3,0,0.4c-0.1,0.7-0.3,1.3-0.7,1.8c0,0.1-0.1,0.1-0.1,0.2
					c-0.8,1-2.1,1.8-3.6,1.9h-12.6l-4.7,19.3l1.4,7.3l4.6-0.9l-13,5.5l-9.5-11.3l5.8-31.2h10.7l11.9,2l1.4,0.2l6.9,1.1
					C121.2,449.9,122.6,451.2,122.7,453.1z"/>
				<polygon class="st35" points="71,486.4 74.5,478.8 105.7,493.9 100.7,503.3 				"/>
				<path class="st36" d="M122.7,453.1c0,0,0,0.1,0,0.1c0,0.1,0,0.2,0,0.3c-0.1,0.6-0.3,1.2-0.6,1.8c-1.2-0.1-2.6-0.3-3.1-0.4
					c-5.9-1.9-5-5.4-4.7-6.3l6.9,1.1C121.2,449.9,122.6,451.2,122.7,453.1z"/>
			</g>
		</g>
		<g>
			<g>
				<g>
					<path class="st37" d="M333.2,459.3V546c0,5.6,3.9,10.2,8.7,10.2h50.5c4.8,0,8.7-4.6,8.7-10.2v-86.8c0-5.6-3.9-10.2-8.7-10.2
						h-50.5C337.1,449.1,333.2,453.7,333.2,459.3z"/>
					<polygon class="st38" points="392.9,458.7 341.4,458.7 341.4,547.6 392.9,481.7 					"/>
					<polygon class="st39" points="392.9,548.3 392.9,481.7 341.4,547.6 341.4,548.3 					"/>
				</g>
				<path class="st18" d="M367.1,450.9c1.8,0,3.3,1.5,3.3,3.3c0,1.8-1.5,3.3-3.3,3.3c-1.8,0-3.3-1.5-3.3-3.3
					C363.8,452.4,365.3,450.9,367.1,450.9z"/>
				<path class="st19" d="M367.1,548.6c1.7,0,3.1,1.4,3.1,3.1c0,1.7-1.4,3.1-3.1,3.1c-1.7,0-3.1-1.4-3.1-3.1
					C364,550,365.4,548.6,367.1,548.6z"/>
			</g>
			<path class="st35" d="M374.8,509.2h-14.8c-2.3,0-4.2,1.9-4.2,4.2v5.1c0,2.3,1.9,4.2,4.2,4.2h14.8c2.3,0,4.2-1.9,4.2-4.2v-5.1
				C379,511.1,377.1,509.2,374.8,509.2z"/>
			<g>
				<path class="st15" d="M442.3,549.8c-0.1,0.3-0.7,0.7-0.9,0.9l-1.7,1.7c-1.7,1.7-0.8,2.1-2.5,3.8c-3.5,3.5-7.5,6.4-10.9,10
					c-3.1,3.3-6.7,2.3-11,1.5c-7-1.3-15.6-0.6-21.7-4.7c-2.4-1.6-5.3-3.2-7.3-5.2c-1.7-1.7-3-3.6-5.1-5c-1.9-1.4-6.6-3.1-3.3-5.4
					c0.8-0.6,2.3-1.4,3.3-1.6c1.9-0.2,4.4,0.7,5.9,1.8c1.3,0.8,2,2.2,3.3,3c1.6,1,3.7,1.6,5.6,2.1c-3-3.9-5.9-6.8-9.5-10.1
					c-2.8-2.8-5.7-5.6-8.5-8.4c-4-4-8.1-8-12.1-12c0,0,0,0-0.1-0.1c-0.8-0.8-1.6-1.5-2.3-2.3c-0.3-0.3-0.4-0.7-0.4-1.1
					c0-0.1,0-0.2,0-0.3c0,0,0,0,0,0c0-0.3,0-0.5,0.1-0.8c0.4-2.2,2-3.9,4.2-4.3c0.2-0.1,0.5-0.1,0.7-0.1c0,0,0,0,0,0
					c0.3,0,0.6,0,0.9,0.1c0.3,0.1,0.6,0.2,0.9,0.5c0.4,0.4,0.9,0.9,1.3,1.3c2.8,2.7,5.5,5.5,8.2,8.3c1.9,1.9,3.7,3.9,5.6,5.7
					c1.8,1.6,4.6,4.2,5.8,4.3c-0.5-0.4-0.8-1.3-1.3-1.9c-0.6-0.5-1.1-1.1-1.7-1.6c-1-1-2.5-2.1-3-3.3c-1-2.3,1.4-5.2,3.6-5.7
					c2.3-0.5,4.3,1.6,6,2.9c0.5,0.4,2.6,1.5,2.2,0.6c-0.7-1.8-2.9-4.4-3-5.6c-0.3-2.4,1.8-4.3,4-4.7c3.2-0.5,6.1,3.1,8,5.1
					c0.1-0.7-1.4-2.2-1.4-3c0-1.1,0.7-2.4,1.5-3.2c3.5-3.1,6.8,1.4,9.3,3.5c4.6,3.7,8.7,8,12.4,12.5c1.8,2.2,3.7,4.5,5.1,7
					c1.2,2.2,1.3,4.9,2.7,7c1.2,1.7,3.1,3.2,4.6,4.7c0.8,0.8,1.4,1.4,1.7,1.7C442,549.4,442.4,549.6,442.3,549.8z"/>
				<polygon class="st40" points="442.7,545.2 417.2,570.1 425,576.1 448.1,551.6 				"/>
				<path class="st36" d="M371.8,520.1c-1.2,1.6-3.8,1.5-5.8-0.3l-1.7-1.5c-0.1-0.1-0.3-0.3-0.4-0.4c0-0.3,0-0.5,0.1-0.8
					c0.3-2.2,2-3.9,4.2-4.3c0.2-0.1,0.5-0.1,0.7-0.1c0,0,0,0,0,0l1.3,1.2C372.3,515.7,373,518.5,371.8,520.1z"/>
			</g>
		</g>
		<g>
			<path class="st41" d="M115.9,193.7l5.3,1.4l1.5-7.6c0,0,9.5-10.4,9.8-21.9l12.6-8.7l-11.2-11.4l-17.4,4L115.9,193.7z"/>
			<path class="st41" d="M104.7,144.1c20.6-25,13.4-23.4,40.7-9.6l-14.6,8.6L104.7,144.1z"/>
			<g>
				<g>
					<path class="st42" d="M128.2,132.1c0,0,48.8,10.8,77,10c0,0,1,21.6-4.6,39.3c0,0-53.7-11.4-80.5-20.7L128.2,132.1z"/>
				</g>
				<g>
					<path class="st43" d="M126,130.2c0,0,47.7,15.4,76.3,17c0,0-2.1,22.7-10.2,40.8c0,0-52.6-16.5-78.3-28.5L126,130.2z"/>
					<path class="st44" d="M188.8,150.9c0,0-34.7-5.1-50.9-11.4c0,0-4.4,6.2-11.1,2.3l-4.5,12c0,0,8,1.8,6.8,7.6
						c0,0,44,15.6,52.7,16.9c0,0,2.2-5.1,9.5-2.9c0,0,3.3-11.5,4.1-15.9C195.4,159.6,188,158.7,188.8,150.9z"/>
					<path class="st42" d="M153,165.7c-4.4-2.6-5.9-8.4-3.3-12.8c2.6-4.4,8.4-5.9,12.8-3.2c4.4,2.6,5.9,8.4,3.2,12.8
						C163.2,166.9,157.4,168.3,153,165.7z"/>
				</g>
			</g>
			<path class="st45" d="M115.9,193.7l1.6-7.4c14.2-15.9,5.8-33.3,5.8-33.3l6.6-3.6l6.2,1.9c6.5,1.9,7.9-0.8,7.9-0.8
				c1.7-2.7,1.1-5.3-0.4-6.6c-2.2-0.9-3.9-1.8-5.4-2.6c-12.3-6.8-3.2-9.1-33.7,2.6c0,0-7.7,31.1-8.3,31.5l-2.7,13.9L115.9,193.7z"/>
			<path class="st46" d="M145.1,148.4c0.5-2.7-1.3-4.3-1.3-4.3c-2.2-0.9-3.9-1.8-5.4-2.6c-0.2,0.7-0.2,1.5,0,2.1c0.3,1,1,1.9,2,2.5
				l4.1,2C144.7,148.2,144.9,148.3,145.1,148.4z"/>
			
				<rect x="97.4" y="171.8" transform="matrix(0.2006 -0.9797 0.9797 0.2006 -100.0018 258.2622)" class="st47" width="21.8" height="37.2"/>
			
				<rect x="89.5" y="180.3" transform="matrix(0.2006 -0.9797 0.9797 0.2006 -112.3187 264.7108)" class="st48" width="33.1" height="41.7"/>
			<path class="st49" d="M116.4,207.9c-1.9-0.4-3.8,0.9-4.2,2.8c-0.4,1.9,0.9,3.8,2.8,4.2c1.9,0.4,3.8-0.9,4.2-2.8
				C119.5,210.2,118.3,208.3,116.4,207.9z"/>
		</g>
		<g id="XMLID_79_">
			<path id="XMLID_117_" class="st4" d="M555.1,362.5l-22.3,7.6c-14.8,5-30.6,5-45.4,0l-22.3-7.6l10.8-43.7h68.4L555.1,362.5z"/>
			<polygon id="XMLID_116_" class="st6" points="554.4,324.6 510.2,310.6 465.9,324.6 446.2,324.6 446.2,330.8 510.2,351.1 
				574.1,330.8 574.1,324.6 			"/>
			<polygon id="XMLID_115_" class="st4" points="510.2,304.4 446.2,324.6 510.2,344.9 574.1,324.6 			"/>
			<path id="XMLID_114_" class="st50" d="M466.8,356.1l20.7,7.1c14.8,5,30.6,5,45.4,0l20.7-7.1l-1.7-6.7l-19,6.5
				c-14.8,5-30.6,5-45.4,0l-19-6.5L466.8,356.1z"/>
			<polyline id="XMLID_113_" class="st9" points="510.2,324.6 540.2,335.4 540.2,379 			"/>
			<circle id="XMLID_81_" class="st6" cx="540.2" cy="375.6" r="4.2"/>
			<path id="XMLID_80_" class="st6" d="M540.2,375.6c0,0-6.2,5.6-6.2,16h6.2h6.2C546.4,381.2,540.2,375.6,540.2,375.6z"/>
		</g>
	</g>
</g>
<g id="Silicus_x5F_Silicus_x5F_Story_x5F_CUS253">
</g>
</svg>
