<?xml version="1.0" encoding="utf-8"?>
<!-- Generator: Adobe Illustrator 20.1.0, SVG Export Plug-In . SVG Version: 6.00 Build 0)  -->
<svg version="1.1" id="Layer_1" xmlns="http://www.w3.org/2000/svg" xmlns:xlink="http://www.w3.org/1999/xlink" x="0px" y="0px"
	 viewBox="0 0 612 612" style="enable-background:new 0 0 612 612;" xml:space="preserve">
<style type="text/css">
	.st0{fill:url(#SVGID_1_);}
	.st1{opacity:0.2;}
	.st2{fill:#26282C;}
	.st3{fill:#333333;}
	.st4{fill:#1A1A1A;}
	.st5{fill:#666666;}
	.st6{fill:#CBCBCB;}
	.st7{fill:#808080;}
	.st8{fill:#4D4D4D;}
	.st9{opacity:0.6;}
	.st10{fill:#26A5D0;}
	.st11{opacity:0.3;fill:#26A5D0;enable-background:new    ;}
	.st12{fill:#F1F1F1;}
	.st13{fill:#F4B93D;}
	.st14{fill:#8CC53F;}
	.st15{opacity:0.5;fill:#335C64;enable-background:new    ;}
	.st16{opacity:0.1;fill:#335C64;enable-background:new    ;}
	.st17{fill:#FFFFFF;}
	.st18{fill:#ACC542;}
	.st19{fill:#2F3B41;}
	.st20{fill:#302B27;}
	.st21{fill:#C6C934;}
	.st22{fill:#FAAC6B;}
	.st23{fill:#E6E7E7;}
	.st24{fill:#DA4727;}
	.st25{fill:#D0D2D3;}
	.st26{font-family:'ArialMT';}
	.st27{font-size:3.8477px;}
	.st28{font-size:2.298px;}
	.st29{font-size:3.9549px;}
	.st30{fill:none;}
	.st31{fill:#878482;}
	.st32{font-size:1.532px;}
	.st33{fill:none;stroke:#D7D8D8;stroke-linecap:round;stroke-linejoin:round;}
	.st34{fill:none;stroke:#D7D8D8;stroke-linecap:round;stroke-linejoin:round;stroke-dasharray:5.7591,5.7591;}
	.st35{fill:none;stroke:#D7D8D8;stroke-linecap:round;stroke-linejoin:round;stroke-miterlimit:10;stroke-dasharray:6;}
	.st36{opacity:0.2;fill:none;stroke:#ACC542;stroke-width:7;stroke-miterlimit:10;enable-background:new    ;}
	.st37{fill:none;stroke:#ACC542;stroke-width:7;stroke-miterlimit:10;}
	.st38{fill:#231F20;}
	.st39{font-size:1.0228px;}
	.st40{font-size:1.5099px;}
	.st41{opacity:0.2;fill:#ACC542;enable-background:new    ;}
	.st42{fill:#EAEAEC;}
	.st43{fill:#8CB8A1;}
	.st44{fill:#42B19C;}
	.st45{fill:#F7F8F8;}
	.st46{fill:#FFD9AF;}
	.st47{fill:#201515;}
	.st48{opacity:0.1;}
	.st49{fill:#9E2928;}
	.st50{opacity:5.000000e-02;fill:#201515;enable-background:new    ;}
	.st51{fill:#342215;}
	.st52{fill:#E17A3D;}
	.st53{fill:#364F5E;}
	.st54{fill:#F2D0A7;}
	.st55{fill:#DE4949;}
	.st56{fill:#EEC84E;}
	.st57{fill:#2D4552;}
	.st58{fill:#010101;}
	.st59{enable-background:new    ;}
	.st60{fill:#656865;}
	.st61{fill:#273339;}
	.st62{opacity:0.4;fill:#E6E6E6;enable-background:new    ;}
	.st63{fill:#F9D2C1;}
	.st64{fill:#E95D41;}
	.st65{fill:#EE8466;}
	.st66{fill:#E42526;}
	.st67{fill:#EFF0F7;}
	.st68{fill:#535672;}
	.st69{fill:#4D5068;}
	.st70{clip-path:url(#SVGID_3_);}
	.st71{fill:url(#SVGID_4_);}
	.st72{fill:#5B5D7C;}
	.st73{fill:none;stroke:#5B5D7C;stroke-width:1.44;stroke-miterlimit:22.9256;}
	.st74{fill:#52546E;}
	.st75{fill:#E5E5E5;}
	.st76{fill:#B7B7B7;}
	.st77{fill:none;stroke:#2C3E50;stroke-width:2;stroke-linecap:round;stroke-linejoin:round;stroke-miterlimit:10;}
	.st78{fill:#3E3E3F;}
	.st79{fill:#FA5655;}
	.st80{fill:#F99134;}
	.st81{fill:#FACB1B;}
	.st82{fill:#F0F1F1;}
	.st83{fill:#818284;}
	.st84{fill:#E44061;}
	.st85{fill:#41AD49;}
	.st86{fill:#E7EBEC;}
</style>
<g>
	
		<radialGradient id="SVGID_1_" cx="299.6057" cy="293.1714" r="467.7" gradientTransform="matrix(0.6543 0 0 -0.6543 109.9783 497.8119)" gradientUnits="userSpaceOnUse">
		<stop  offset="0" style="stop-color:#EF392D"/>
		<stop  offset="1" style="stop-color:#A91F24"/>
	</radialGradient>
	<circle class="st0" cx="306" cy="306" r="306"/>
	<g>
		<g>
			<g class="st1">
				<path class="st2" d="M490.6,177.1c2.5,0.6,3.1,2.6,1.3,4.5l-59.8,62l-180.7-45.4l59.8-62c1.8-1.9,5.3-2.8,7.8-2.2L490.6,177.1z"
					/>
			</g>
			<path class="st3" d="M464.3,91.9L270.6,43.6c-2.8-0.7-5.8,1.7-6.8,5.3L228,193l203.9,50.8l35.8-144
				C468.7,96.1,467.1,92.6,464.3,91.9z"/>
			<g id="Layer_2">
				<g id="Favorite">
				</g>
				<g>
					<g>
						<path class="st4" d="M250.9,187.4c-3.3-0.9-5.4-4.3-4.5-7.6L276.3,63c0.9-3.3,4.3-5.4,7.6-4.5l156.4,40.1
							c3.3,0.9,5.4,4.3,4.5,7.6L414.9,223c-0.9,3.3-4.3,5.4-7.6,4.5L250.9,187.4L250.9,187.4z"/>
						<g>
							<path class="st5" d="M440.3,98.9c3.1,0.8,5,4,4.2,7.1l-29.9,116.8c-0.8,3.1-4,5-7.1,4.2L251,187c-3.1-0.8-5-4-4.2-7.1
								l29.9-116.8c0.8-3.1,4-5,7.1-4.2L440.3,98.9 M440.5,98.1L284,58.1c-3.6-0.9-7.2,1.3-8.1,4.8L246,179.7
								c-0.9,3.6,1.3,7.2,4.8,8.1l156.4,40.1c3.6,0.9,7.2-1.3,8.1-4.8l29.9-116.8C446.2,102.7,444,99,440.5,98.1L440.5,98.1z"/>
						</g>
					</g>
					
						<rect x="291.6" y="71.6" transform="matrix(0.2482 -0.9687 0.9687 0.2482 121.0538 441.6075)" class="st6" width="106.8" height="142.4"/>
					
						<ellipse transform="matrix(0.2482 -0.9687 0.9687 0.2482 81.7871 352.7776)" class="st7" cx="268.2" cy="123.7" rx="1.7" ry="1.7"/>
					<g>
						<ellipse transform="matrix(0.2525 -0.9676 0.9676 0.2525 158.368 530.2376)" cx="422.3" cy="162.6" rx="3.8" ry="3.9"/>
					</g>
					<g>
						
							<ellipse transform="matrix(0.2482 -0.9687 0.9687 0.2482 160.0088 531.0081)" class="st8" cx="422.1" cy="162.4" rx="3.6" ry="3.6"/>
						<g class="st9">
							<path class="st3" d="M423,158.9l-0.2,0.7c0.7,0.2,1.4,0.7,1.8,1.3c0.4,0.7,0.5,1.4,0.3,2.2c-0.4,1.5-2,2.5-3.5,2.1
								c-0.7-0.2-1.4-0.7-1.8-1.3s-0.5-1.4-0.3-2.2c0.4-1.5,2-2.5,3.5-2.1L423,158.9 M423,158.9c-1.9-0.5-3.9,0.7-4.4,2.6
								c-0.5,1.9,0.7,3.9,2.6,4.4c0,0,0,0,0,0c1.9,0.5,3.9-0.7,4.4-2.6C426.1,161.4,425,159.4,423,158.9
								C423,158.9,423,158.9,423,158.9L423,158.9z"/>
						</g>
					</g>
					
						<ellipse transform="matrix(0.2482 -0.9687 0.9687 0.2482 160.0088 531.0081)" class="st3" cx="422.1" cy="162.4" rx="1.3" ry="1.3"/>
					
						<rect x="333" y="55.9" transform="matrix(0.2482 -0.9687 0.9687 0.2482 139.3073 433.6925)" class="st10" width="32.2" height="142.4"/>
					<path class="st11" d="M330.7,131.4c-0.7,2.6-1.9,4.9-3.6,6.7l-26.7-6.9c-0.6-2.4-0.6-5,0-7.6c2.1-8.4,10.7-13.4,19.1-11.3
						C327.8,114.5,332.8,123,330.7,131.4z"/>
					<path class="st11" d="M386.8,153.4l-27.6-7.1c3.7-4.6,9.9-6.9,16-5.3C381.4,142.6,385.8,147.5,386.8,153.4z"/>
					<path class="st11" d="M399.8,123.5c-2.9,7.1-10.7,11.2-18.4,9.2c-5.3-1.4-9.3-5.3-11-10.2c-0.7-2.1-1-4.4-0.7-6.7L399.8,123.5z
						"/>
					
						<ellipse transform="matrix(0.2482 -0.9687 0.9687 0.2482 137.0347 412.2917)" class="st11" cx="334.1" cy="117.9" rx="10.7" ry="10.7"/>
					<path class="st11" d="M421.5,131l-5.2,20.3c-0.7,0-1.4-0.1-2.1-0.3c-5.7-1.5-9.2-7.3-7.7-13c1.5-5.7,7.3-9.2,13-7.7
						C420.3,130.5,420.9,130.7,421.5,131z"/>
					
						<ellipse transform="matrix(0.2482 -0.9687 0.9687 0.2482 153.4825 477.8796)" class="st11" cx="384.6" cy="140.1" rx="10.7" ry="10.7"/>
					<path class="st11" d="M374.8,117.2c-0.6,2.4-2.3,4.3-4.4,5.3c-1.6,0.7-3.4,0.9-5.3,0.5c-4.2-1.1-6.8-5.4-5.7-9.7
						c0,0,0-0.1,0-0.1l15.4,3.9C374.8,117.1,374.8,117.2,374.8,117.2z"/>
					<path class="st12" d="M315.5,135.1c-1.5,5.8-5.9,10.1-11.3,11.7c-2.7,0.8-5.7,0.9-8.7,0.1c-3.4-0.9-6.2-2.7-8.3-5.1
						c-3.4-3.9-4.9-9.4-3.5-14.8c2.3-8.8,11.2-14.1,20-11.8C312.5,117.4,317.8,126.3,315.5,135.1z"/>
					
						<ellipse transform="matrix(0.2482 -0.9687 0.9687 0.2482 103.6532 386.4514)" class="st13" cx="300.8" cy="126.4" rx="6.7" ry="5.2"/>
					<path class="st14" d="M306.2,143.2c-0.3,1.3-1,2.5-2,3.6c-2.7,0.8-5.7,0.9-8.7,0.1c-3.4-0.9-6.2-2.7-8.3-5.1
						c-0.2-1.2-0.2-2.3,0.1-3.4c1.1-4.5,6-5.8,11.2-4.5C303.8,135.2,307.4,138.8,306.2,143.2z"/>
					
						<rect x="290.7" y="137.7" transform="matrix(0.2482 -0.9687 0.9687 0.2482 69.1165 400.3047)" class="st15" width="3.5" height="35.9"/>
					
						<rect x="288.6" y="145.7" transform="matrix(0.2482 -0.9687 0.9687 0.2482 59.7914 404.3485)" class="st15" width="3.5" height="35.9"/>
					
						<rect x="286.6" y="153.7" transform="matrix(0.2482 -0.9687 0.9687 0.2482 50.4662 408.3924)" class="st15" width="3.5" height="35.9"/>
					
						<rect x="364.8" y="117.2" transform="matrix(0.2482 -0.9687 0.9687 0.2482 122.1199 473.2627)" class="st16" width="2.3" height="81.5"/>
					
						<rect x="363.4" y="122.5" transform="matrix(0.2482 -0.9687 0.9687 0.2482 115.9784 475.926)" class="st16" width="2.3" height="81.5"/>
					
						<rect x="362.1" y="127.8" transform="matrix(0.2482 -0.9687 0.9687 0.2482 109.8363 478.5894)" class="st16" width="2.3" height="81.5"/>
					
						<rect x="359.3" y="138.7" transform="matrix(0.2482 -0.9687 0.9687 0.2482 97.0889 484.1173)" class="st16" width="2.3" height="81.5"/>
					
						<rect x="357.9" y="144" transform="matrix(0.2482 -0.9687 0.9687 0.2482 90.9469 486.7808)" class="st16" width="2.3" height="81.5"/>
					
						<rect x="356.6" y="149.3" transform="matrix(0.2482 -0.9687 0.9687 0.2482 84.8048 489.4443)" class="st16" width="2.3" height="81.5"/>
					
						<rect x="299.1" y="78" transform="matrix(0.2482 -0.9687 0.9687 0.2482 138.7575 359.6412)" class="st10" width="4" height="24.8"/>
					
						<rect x="329.8" y="85.9" transform="matrix(0.2482 -0.9687 0.9687 0.2482 154.2251 395.3097)" class="st16" width="4" height="24.8"/>
					
						<rect x="359.3" y="93.4" transform="matrix(0.2482 -0.9687 0.9687 0.2482 169.1016 429.6151)" class="st16" width="4" height="24.8"/>
					
						<rect x="388.2" y="100.8" transform="matrix(0.2482 -0.9687 0.9687 0.2482 183.657 463.18)" class="st16" width="4" height="24.8"/>
				</g>
			</g>
		</g>
		<g>
			<g class="st1">
				<g>
					<polygon class="st2" points="300.5,270.7 263.4,314 144.3,276.6 181.4,233.3 					"/>
				</g>
			</g>
			<g>
				<g>
					<g>
						<g>
							
								<rect x="147.1" y="159.6" transform="matrix(0.2831 -0.9591 0.9591 0.2831 -44.6711 376.5988)" class="st17" width="165" height="117.3"/>
						</g>
					</g>
					<g>
						<g>
							
								<rect x="204.8" y="237" transform="matrix(0.2831 -0.9591 0.9591 0.2831 -135.3263 410.1139)" class="st18" width="3.7" height="117.3"/>
						</g>
					</g>
				</g>
				<g>
					<g>
						<g>
							<g>
								<g>
									<path class="st19" d="M215.5,161.3c-0.2-0.6-0.5-1-1-1.2l0,0l-9.9-2.9l0,0c-0.5-0.2-1.2-0.1-1.7,0.5l-4,3.8l4.1,1.2
										l0.1,0.1l9.4,2.8l0.4,0.1l3.8,1.2L215.5,161.3z"/>
									<path class="st20" d="M215.4,139c-12.6-3.7-14.5,13.8-4.9,16.6C220,158.4,227.9,142.6,215.4,139z"/>
									<path class="st21" d="M206.9,157.9l5.4,1.6l-0.1,0.4c-0.5,1.5-2,2.4-3.5,1.9l0,0c-1.5-0.5-2.4-2-1.9-3.5L206.9,157.9z"/>
									<path class="st22" d="M211.8,151.3L211.8,151.3c1.2,0.3,2,1.7,1.6,2.8l-1.5,5.1c-0.3,1.2-1.7,2-2.8,1.6l0,0
										c-1.2-0.3-2-1.7-1.6-2.8l1.5-5.1C209.3,151.6,210.5,150.9,211.8,151.3z"/>
									<path class="st23" d="M212.3,157.7L212.3,157.7c-0.6,1.9-5,0.6-4.4-1.3l0,0C208.4,154.4,212.9,155.7,212.3,157.7z"/>
									<path class="st22" d="M215.3,139.4c-12.6-3.7-14.9,15.4-5.3,18.2C219.3,160.4,227.7,143.1,215.3,139.4z"/>
									
										<ellipse transform="matrix(3.696457e-02 -0.9993 0.9993 3.696457e-02 49.2972 345.7611)" class="st22" cx="204" cy="147.3" rx="2.4" ry="1.2"/>
									
										<ellipse transform="matrix(0.5115 -0.8593 0.8593 0.5115 -23.0419 263.6613)" class="st22" cx="220.4" cy="152.1" rx="2.4" ry="1.2"/>
									<path class="st24" d="M214.4,153.8c-1.9,2.1-5.8,1-6.3-1.8C209.7,153.4,212.3,154.3,214.4,153.8z"/>
									<path class="st25" d="M212.9,152c-0.8,1-2.3,0.5-2.5-0.8C211,152.1,212,152.3,212.9,152z"/>
									<path class="st20" d="M211.2,146.5c-0.5-0.5-1.5-0.6-2.2-0.2c-0.3,0.2-0.1,0.3,0.1,0.2c0.7-0.3,1.3-0.1,1.9,0.3
										C211.2,146.9,211.5,146.7,211.2,146.5z"/>
									<path class="st20" d="M214.4,147.4c0.7-0.2,1.6,0.3,1.9,1c0.2,0.3,0,0.3-0.2,0.1c-0.4-0.7-1-0.8-1.7-0.8
										C214,147.7,214,147.5,214.4,147.4z"/>
								</g>
								<path class="st20" d="M204.6,144.2l0-1.6l2.1-3.7l1.1-0.1l0.9-2l2.1,0.7c0,0,0.9-1.4,0.9-1.5c0.1,0,1.6,1.6,1.7,1.8
									c0.4-0.3,0.1-1.4,0.4-1.7c0.8,0.8,2.7,1.3,3.7,1.6c0.9,0.3,1.6,1,2.3,1.6c1.4,1.4,2.8,3.4,2.9,5.4c0.1,1-0.1,2-0.2,3
									l-0.9,1.4l-0.1,0.9l-1.1,0l-1.3-1.7l1-3.5l-5.4-0.3c-0.8,0-1.5-0.2-2.2-0.6l-4.7-2.6l-0.9,3.5l-2,0.7l-1-0.6L204.6,144.2z"
									/>
								<g>
									
										<ellipse transform="matrix(0.2831 -0.9591 0.9591 0.2831 10.2911 313.609)" class="st20" cx="214.9" cy="149.9" rx="1.2" ry="0.7"/>
									
										<ellipse transform="matrix(0.2831 -0.9591 0.9591 0.2831 8.0885 307.6023)" class="st20" cx="209.8" cy="148.4" rx="1.2" ry="0.7"/>
								</g>
							</g>
						</g>
						<g>
							<text transform="matrix(0.9591 0.2831 -0.2831 0.9591 191.1256 166.5375)" class="st20 st26 st27">Name Surname</text>
							<text transform="matrix(0.9591 0.2831 -0.2831 0.9591 198.1515 172.17)" class="st20 st26 st28">profession</text>
						</g>
					</g>
					<text transform="matrix(0.9591 0.2831 -0.2831 0.9591 187.0077 180.6782)" class="st20 st26 st29">Contact</text>
					<text transform="matrix(0.9591 0.2831 -0.2831 0.9591 239.4203 146.428)" class="st20 st26 st29">profile</text>
					<text transform="matrix(0.9591 0.2831 -0.2831 0.9591 172.9444 230.6886)" class="st20 st26 st29">Languages</text>
					<text transform="matrix(0.9591 0.2831 -0.2831 0.9591 165.3884 254.5175)" class="st20 st26 st29">skills</text>
					<text transform="matrix(0.9591 0.2831 -0.2831 0.9591 230.6215 175.8955)" class="st20 st26 st29">Achievements</text>
					<text transform="matrix(0.9591 0.2831 -0.2831 0.9591 209.7198 247.0553)" class="st20 st26 st29">Work Experience</text>
					
						<rect x="258.3" y="134.6" transform="matrix(0.2831 -0.9591 0.9591 0.2831 32.6031 371.7047)" class="st30" width="13.2" height="59"/>
					<text transform="matrix(0.9591 0.2831 -0.2831 0.9591 238.2365 150.4386)" class="st31 st26 st32">Sed ut perspiciatis unde omnis iste natus error sit voluptatem accusantium doloremque </text>
					<text transform="matrix(0.9591 0.2831 -0.2831 0.9591 237.4394 153.1459)" class="st31 st26 st32">laudantium, totam rem aperiam, eaque ipsa quae ab illo inventore veritatis et quasi </text>
					<text transform="matrix(0.9591 0.2831 -0.2831 0.9591 236.6075 155.9571)" class="st31 st26 st32">architecto beatae vitae dicta sunt explicabo. </text>
					<text transform="matrix(0.9591 0.2831 -0.2831 0.9591 235.8084 158.6644)" class="st31 st26 st32">Nemo enim ipsam voluptatem quia voluptas sit aspernatur aut odit aut fugit, sed quia </text>
					<text transform="matrix(0.9591 0.2831 -0.2831 0.9591 234.9786 161.4756)" class="st31 st26 st32">consequuntur magni dolores eos qui ratione voluptatem sequi nesciunt. </text>
					<g>
						<g>
							<line class="st33" x1="235.2" y1="141.3" x2="234.3" y2="144.4"/>
							<line class="st34" x1="232.6" y1="150.4" x2="194.5" y2="279.3"/>
							<line class="st33" x1="193.6" y1="282.3" x2="192.7" y2="285.5"/>
						</g>
					</g>
					<line class="st35" x1="233.4" y1="168.5" x2="293.4" y2="186.2"/>
					<line class="st35" x1="212.6" y1="239.4" x2="272.5" y2="257.1"/>
					<g>
						<g>
							<text transform="matrix(0.9591 0.2831 -0.2831 0.9591 207.4016 254.5606)" class="st20 st26 st28">1997-2001</text>
							
								<ellipse transform="matrix(0.2831 -0.9591 0.9591 0.2831 -88.7698 396.8787)" class="st18" cx="221.1" cy="257.8" rx="0.7" ry="0.7"/>
							
								<rect x="215.8" y="262.7" transform="matrix(0.2831 -0.9591 0.9591 0.2831 -94.839 399.2001)" class="st18" width="7.7" height="0.7"/>
							<g>
								<text transform="matrix(0.9591 0.2831 -0.2831 0.9591 223.3298 259.2617)" class="st20 st26 st28">Lorem ipsum dolor sit amet</text>
							</g>
							<g>
								
									<rect x="242.5" y="246.3" transform="matrix(0.2831 -0.9591 0.9591 0.2831 -83.196 427.8719)" class="st30" width="4.2" height="46.6"/>
								<text transform="matrix(0.9591 0.2831 -0.2831 0.9591 222.494 262.093)" class="st31 st26 st32">Lorem ipsum dolor sit amet, consectetur adipiscing elit, sed do eiusmod </text>
								<text transform="matrix(0.9591 0.2831 -0.2831 0.9591 221.9408 263.9672)" class="st31 st26 st32">tempor incididunt ut labore et dolore magna aliqua. </text>
							</g>
						</g>
						<g>
							<text transform="matrix(0.9591 0.2831 -0.2831 0.9591 204.2003 265.5339)" class="st20 st26 st28">1997-2001</text>
							
								<ellipse transform="matrix(0.2831 -0.9591 0.9591 0.2831 -101.5898 401.6557)" class="st18" cx="217.9" cy="268.8" rx="0.7" ry="0.7"/>
							
								<rect x="212.5" y="273.7" transform="matrix(0.2831 -0.9591 0.9591 0.2831 -107.6591 403.9771)" class="st18" width="7.7" height="0.7"/>
							<g>
								<text transform="matrix(0.9591 0.2831 -0.2831 0.9591 220.1273 270.2351)" class="st20 st26 st28">Lorem ipsum dolor sit amet</text>
							</g>
							<g>
								
									<rect x="239.3" y="257.3" transform="matrix(0.2831 -0.9591 0.9591 0.2831 -96.0168 432.6503)" class="st30" width="4.2" height="46.6"/>
								<text transform="matrix(0.9591 0.2831 -0.2831 0.9591 219.2897 273.0659)" class="st31 st26 st32">Lorem ipsum dolor sit amet, consectetur adipiscing elit, sed do eiusmod </text>
								<text transform="matrix(0.9591 0.2831 -0.2831 0.9591 218.7365 274.9401)" class="st31 st26 st32">tempor incididunt ut labore et dolore magna aliqua. </text>
							</g>
						</g>
						<g>
							<text transform="matrix(0.9591 0.2831 -0.2831 0.9591 200.9992 276.5062)" class="st20 st26 st28">1997-2001</text>
							
								<ellipse transform="matrix(0.2831 -0.9591 0.9591 0.2831 -114.41 406.433)" class="st18" cx="214.7" cy="279.7" rx="0.7" ry="0.7"/>
							
								<rect x="210.1" y="284.1" transform="matrix(0.2831 -0.9591 0.9591 0.2831 -119.8215 408.5399)" class="st18" width="6.6" height="0.7"/>
							<g>
								<text transform="matrix(0.9591 0.2831 -0.2831 0.9591 216.9252 281.2076)" class="st20 st26 st28">Lorem ipsum dolor sit amet</text>
							</g>
							<g>
								
									<rect x="236.1" y="268.2" transform="matrix(0.2831 -0.9591 0.9591 0.2831 -108.8382 437.4287)" class="st30" width="4.2" height="46.6"/>
								<text transform="matrix(0.9591 0.2831 -0.2831 0.9591 216.0895 284.039)" class="st31 st26 st32">Lorem ipsum dolor sit amet, consectetur adipiscing elit, sed do eiusmod </text>
								<text transform="matrix(0.9591 0.2831 -0.2831 0.9591 215.5379 285.9147)" class="st31 st26 st32">tempor incididunt ut labore et dolore magna aliqua. </text>
							</g>
						</g>
					</g>
					<g>
						<g>
							<text transform="matrix(0.9591 0.2831 -0.2831 0.9591 218.798 220.5946)" class="st20 st26 st29">Education</text>
						</g>
						<g>
							<g>
								<text transform="matrix(0.9591 0.2831 -0.2831 0.9591 231.6101 229.9501)" class="st31 st26 st32">Lorem Ipsum is simply dumm text of the printing  industry.</text>
							</g>
							<g>
								<text transform="matrix(0.9591 0.2831 -0.2831 0.9591 217.2846 225.7216)" class="st20 st26 st28">2006 </text>
								<text transform="matrix(0.9591 0.2831 -0.2831 0.9591 222.2833 227.1971)" class="st18 st26 st28">-</text>
								<text transform="matrix(0.9591 0.2831 -0.2831 0.9591 222.908 227.3815)" class="st20 st26 st28"> 2009</text>
							</g>
						</g>
						<g>
							<g>
								<text transform="matrix(0.9591 0.2831 -0.2831 0.9591 230.5865 233.418)" class="st31 st26 st32">Lorem Ipsum is simply dumm text of the printing  industry.</text>
							</g>
							<g>
								<text transform="matrix(0.9591 0.2831 -0.2831 0.9591 216.2296 229.2958)" class="st20 st26 st28">2009 </text>
								<text transform="matrix(0.9591 0.2831 -0.2831 0.9591 221.2281 230.7722)" class="st18 st26 st28">- </text>
								<text transform="matrix(0.9591 0.2831 -0.2831 0.9591 222.3717 231.1097)" class="st20 st26 st28">2013</text>
							</g>
						</g>
						<g>
							<g>
								<text transform="matrix(0.9591 0.2831 -0.2831 0.9591 229.6012 236.756)" class="st31 st26 st32">Lorem Ipsum is simply dumm text of the printing  industry.</text>
							</g>
							<g>
								<text transform="matrix(0.9591 0.2831 -0.2831 0.9591 215.2208 232.7135)" class="st20 st26 st28">2013 </text>
								<text transform="matrix(0.9591 0.2831 -0.2831 0.9591 220.2195 234.1889)" class="st18 st26 st28">-</text>
								<text transform="matrix(0.9591 0.2831 -0.2831 0.9591 220.8444 234.3729)" class="st20 st26 st28"> now</text>
							</g>
						</g>
					</g>
					<g>
						<g>
							<g>
								<g>
									<text transform="matrix(0.9591 0.2831 -0.2831 0.9591 236.9262 184.5332)" class="st20 st26 st28">Big Project</text>
								</g>
								<g>
									
										<rect x="257.3" y="170.3" transform="matrix(0.2831 -0.9591 0.9591 0.2831 -1.2121 389.5174)" class="st30" width="5.3" height="50.5"/>
									<text transform="matrix(0.9591 0.2831 -0.2831 0.9591 236.2178 186.9333)" class="st31 st26 st32">Lorem ipsum dolor sit amet, consectetur adipiscing elit, sed do eiusmod </text>
									<text transform="matrix(0.9591 0.2831 -0.2831 0.9591 235.6646 188.8074)" class="st31 st26 st32">tempor incididunt ut labore et dolore magna aliqua. </text>
								</g>
							</g>
							<g>
								<g>
									<text transform="matrix(0.9591 0.2831 -0.2831 0.9591 234.0929 194.1321)" class="st20 st26 st28">Big Project</text>
								</g>
								<g>
									
										<rect x="254.5" y="179.9" transform="matrix(0.2831 -0.9591 0.9591 0.2831 -12.4042 393.6838)" class="st30" width="5.3" height="50.5"/>
									<text transform="matrix(0.9591 0.2831 -0.2831 0.9591 233.3852 196.5298)" class="st31 st26 st32">Lorem ipsum dolor sit amet, consectetur adipiscing elit, sed do eiusmod </text>
									<text transform="matrix(0.9591 0.2831 -0.2831 0.9591 232.832 198.404)" class="st31 st26 st32">tempor incididunt ut labore et dolore magna aliqua. </text>
								</g>
							</g>
							<g>
								<g>
									<text transform="matrix(0.9591 0.2831 -0.2831 0.9591 231.261 203.7263)" class="st20 st26 st28">Big Project</text>
								</g>
								<g>
									
										<rect x="251.7" y="189.5" transform="matrix(0.2831 -0.9591 0.9591 0.2831 -23.5963 397.85)" class="st30" width="5.3" height="50.5"/>
									<text transform="matrix(0.9591 0.2831 -0.2831 0.9591 230.5527 206.1259)" class="st31 st26 st32">Lorem ipsum dolor sit amet, consectetur adipiscing elit, sed do eiusmod </text>
									<text transform="matrix(0.9591 0.2831 -0.2831 0.9591 229.9993 208.0005)" class="st31 st26 st32">tempor incididunt ut labore et dolore magna aliqua. </text>
								</g>
							</g>
						</g>
						<g>
							<g>
								<g>
									<text transform="matrix(0.9591 0.2831 -0.2831 0.9591 229.5194 182.3474)" class="st20 st26 st28">2010</text>
								</g>
								<g>
									<text transform="matrix(0.9591 0.2831 -0.2831 0.9591 228.4493 186.359)" class="st20 st26 st28">2011</text>
								</g>
								
									<rect x="230.9" y="184.4" transform="matrix(0.2831 -0.9591 0.9591 0.2831 -10.9557 354.4048)" class="st18" width="1.4" height="0.3"/>
							</g>
							<g>
								<g>
									<text transform="matrix(0.9591 0.2831 -0.2831 0.9591 223.6219 201.5096)" class="st20 st26 st28">2013</text>
								</g>
								<g>
									<text transform="matrix(0.9591 0.2831 -0.2831 0.9591 222.5542 205.5199)" class="st20 st26 st28">2014</text>
								</g>
								
									<rect x="225.2" y="203.4" transform="matrix(0.2831 -0.9591 0.9591 0.2831 -33.3645 362.5432)" class="st18" width="1.3" height="0.3"/>
							</g>
							<g>
								<g>
									<text transform="matrix(0.9591 0.2831 -0.2831 0.9591 226.5711 191.9113)" class="st20 st26 st28">2011</text>
								</g>
								<g>
									<text transform="matrix(0.9591 0.2831 -0.2831 0.9591 225.5017 195.9206)" class="st20 st26 st28">2011</text>
								</g>
								
									<rect x="227.9" y="193.9" transform="matrix(0.2831 -0.9591 0.9591 0.2831 -22.222 358.387)" class="st18" width="1.4" height="0.3"/>
							</g>
						</g>
					</g>
					<line class="st35" x1="219" y1="212.5" x2="279.1" y2="230.2"/>
					<g>
						<path class="st18" d="M187.5,185.8c-0.7-0.2-1.5,0.2-1.8,1c-0.2,0.7,0.6,2.6,0.6,2.6s1.8-1.1,2-1.8
							C188.6,186.8,188.2,186,187.5,185.8z M186.9,187.7c-0.4-0.1-0.5-0.4-0.4-0.7c0-0.2,0.4-0.5,0.7-0.4c0.4,0.1,0.5,0.4,0.4,0.7
							C187.6,187.6,187.2,187.8,186.9,187.7z"/>
						<g>
							<g>
								<g>
									<text transform="matrix(0.9591 0.2831 -0.2831 0.9591 190.4903 191.4225)" class="st31 st26 st32">SomeWhere 5</text>
									<text transform="matrix(0.9591 0.2831 -0.2831 0.9591 189.9039 193.4091)" class="st31 st26 st32">City Name</text>
								</g>
							</g>
							<g>
								<g>
									<text transform="matrix(0.9591 0.2831 -0.2831 0.9591 187.9155 200.1457)" class="st31 st26 st32">17. November 1983</text>
								</g>
							</g>
							<g>
								<text transform="matrix(0.9591 0.2831 -0.2831 0.9591 185.7984 207.3178)" class="st31 st26 st32">+987 545 221</text>
							</g>
							<g>
								<text transform="matrix(0.9591 0.2831 -0.2831 0.9591 181.4961 221.8933)" class="st31 st26 st32">www.freepik.com</text>
							</g>
							<g>
								<text transform="matrix(0.9591 0.2831 -0.2831 0.9591 183.5746 214.8519)" class="st31 st26 st32">email@email.com</text>
							</g>
							<g>
								<g>
									<g>
										<text transform="matrix(0.9591 0.2831 -0.2831 0.9591 191.232 188.9096)" class="st20 st26 st28">Address</text>
									</g>
								</g>
							</g>
							<g>
								<g>
									<g>
										<text transform="matrix(0.9591 0.2831 -0.2831 0.9591 186.5154 204.8887)" class="st20 st26 st28">phone</text>
									</g>
								</g>
							</g>
							<g>
								<g>
									<g>
										<text transform="matrix(0.9591 0.2831 -0.2831 0.9591 184.3047 212.3783)" class="st20 st26 st28">E-mail</text>
									</g>
								</g>
							</g>
							<g>
								<g>
									<g>
										<text transform="matrix(0.9591 0.2831 -0.2831 0.9591 182.1936 219.5303)" class="st20 st26 st28">website</text>
									</g>
								</g>
							</g>
							<g>
								<g>
									<g>
										<text transform="matrix(0.9591 0.2831 -0.2831 0.9591 188.5913 197.8561)" class="st20 st26 st28">Date of birth</text>
									</g>
								</g>
							</g>
						</g>
						<path class="st18" d="M179.1,217l-0.8,0.4c-0.2,0.2-0.3,0.4-0.2,0.6l-0.2,0.1c-0.2-0.2-0.4-0.2-0.6-0.2l-0.8,0.4
							c-0.2,0.2-0.3,0.4-0.2,0.6l0.2,0.2c0.2,0.2,0.4,0.3,0.6,0.2l0.8-0.4c0.2-0.2,0.3-0.4,0.2-0.6l0.2-0.1c0.2,0.2,0.4,0.2,0.6,0.2
							l0.8-0.4c0.2-0.2,0.3-0.4,0.2-0.6l-0.2-0.2C179.7,217,179.3,216.9,179.1,217z M177.7,218.8l-0.8,0.4c-0.1,0-0.1,0-0.1-0.1
							l-0.2-0.2c0-0.1,0-0.1,0.1-0.1l0.8-0.4c0.1,0,0.1,0,0.1,0.1l-0.1,0c-0.1,0-0.1,0.1,0,0.2C177.5,218.7,177.6,218.8,177.7,218.8
							l0.1-0.1C177.8,218.7,177.8,218.7,177.7,218.8z M179.5,217.7c0,0.1,0,0.1-0.1,0.1l-0.8,0.4c-0.1,0-0.1,0-0.1-0.1l0.1,0
							c0.1,0,0.1-0.1,0-0.2c0-0.1-0.1-0.1-0.2,0l-0.1,0c0,0,0-0.1,0.1-0.1l0.8-0.4c0.1,0,0.1,0,0.1,0.1L179.5,217.7z"/>
						<g>
							<g>
								<g>
									
										<ellipse transform="matrix(0.2831 -0.9591 0.9591 0.2831 -66.6354 321.6198)" class="st17" cx="181.8" cy="205.4" rx="0.1" ry="0.1"/>
									<g>
										<g>
											<path class="st18" d="M183.6,202.6l-1.7-0.5c-0.1-0.1-0.2,0.1-0.3,0.2l-0.8,2.8c-0.1,0.1,0.1,0.2,0.2,0.3l1.7,0.5
												c0.1,0.1,0.2-0.1,0.3-0.2l0.8-2.8C183.8,202.8,183.7,202.6,183.6,202.6z M182.4,202.4l0.5,0.1l0,0l0,0L182.4,202.4
												C182.3,202.5,182.3,202.5,182.4,202.4C182.3,202.4,182.4,202.4,182.4,202.4z M181.7,205.5c0,0-0.1-0.1,0-0.1
												c0,0,0.1-0.1,0.1,0c0,0,0.1,0.1,0,0.1C181.9,205.5,181.8,205.5,181.7,205.5z M182.8,205.3l-1.7-0.5l0.7-2.3l1.7,0.5
												L182.8,205.3z"/>
										</g>
										<path class="st17" d="M182.4,202.4l0.5,0.1l0,0l0,0L182.4,202.4C182.3,202.5,182.3,202.5,182.4,202.4
											C182.3,202.4,182.4,202.4,182.4,202.4z"/>
										
											<rect x="181" y="203" transform="matrix(0.2831 -0.9591 0.9591 0.2831 -64.9408 320.9554)" class="st17" width="2.4" height="1.7"/>
									</g>
								</g>
							</g>
						</g>
						<g>
							<g>
								<g>
									<path class="st18" d="M179.3,210.2c0,0,0.1,0.1,0.2,0.3c0.2,0.2,0.2,0.3,0.3,0.4c0,0,0,0,0,0.1l0,0.1c0,0,0,0,0,0.1l0,0.1
										c0,0,0,0,0.1,0l0,0l0,0c0,0,0,0,0.1,0l0.1,0l0.1,0l0.1,0l0.1,0c0.1,0,0.4-0.1,0.8-0.2c0.1,0,0.2-0.1,0.2-0.2
										c0.1,0,0.1-0.1,0.2-0.2c0-0.1,0-0.1-0.1-0.2c0-0.1,0-0.1-0.1-0.1l-2.1-0.6c-0.1,0-0.1,0-0.2,0.1c-0.1,0-0.1,0.1-0.1,0.1
										s0,0.1,0.1,0.2C179.2,210,179.2,210.1,179.3,210.2z"/>
									<path class="st18" d="M181.4,210.9c-0.4,0.1-0.7,0.2-0.8,0.2c-0.1,0-0.1,0-0.2,0.1l-0.1,0c-0.1,0-0.1,0-0.1-0.1l0,0l0,0
										l-0.1-0.1l-0.1-0.1c0,0,0-0.1-0.1-0.1c-0.1-0.1-0.3-0.4-0.6-0.7c0-0.1,0-0.1-0.2-0.2l-0.4,1.1c0,0.1,0,0.1,0.1,0.2
										c0,0.1,0,0.1,0.1,0.1l2.1,0.6c0.1,0,0.1,0,0.2-0.1c0.1,0,0.1,0,0.1-0.1l0.4-1.1C181.6,210.9,181.4,210.9,181.4,210.9z"/>
								</g>
							</g>
						</g>
						<g>
							<g>
								<path class="st18" d="M183.3,196.7c0,0-0.3-0.1-0.4-0.1c-0.1,0-0.3-0.1-0.4,0.2c0,0.2,0.1,0.3,0.2,0.3
									c0.1,0.1,0.7,0.2,0.7,0.2s0.2,0,0.3-0.2l0,0l0-0.2c0,0,0,0,0.1,0l0.6,0.2l0,0l0,0.3c0,0.1,0.1,0.3,0.3,0.3
									c0.2-0.1,0.3-0.2,0.3-0.3l-0.1-1.1c0-0.1-0.1-0.3-0.3-0.4l-0.4-0.1l-0.5-0.1C183.5,195.6,183,196,183.3,196.7L183.3,196.7z"
									/>
								
									<ellipse transform="matrix(0.2831 -0.9591 0.9591 0.2831 -55.0438 319.0407)" class="st18" cx="185.9" cy="196.3" rx="0.5" ry="0.5"/>
							</g>
						</g>
					</g>
					<g>
						<g>
							<g>
								
									<ellipse transform="matrix(0.2831 -0.9591 0.9591 0.2831 -97.5398 364.1833)" class="st36" cx="194.8" cy="247.3" rx="3.9" ry="3.9"/>
								<path class="st37" d="M195.9,243.6c2.1,0.6,3.3,2.8,2.6,4.8c-0.5,1.5-1.8,2.5-3.3,2.7"/>
							</g>
							<g>
								<text transform="matrix(0.9591 0.2831 -0.2831 0.9591 192.4371 247.9676)" class="st38 st26 st39">Spanish</text>
								<g>
									<text transform="matrix(0.9591 0.2831 -0.2831 0.9591 193.5182 246.7405)" class="st20 st26 st40">45%</text>
								</g>
							</g>
						</g>
						<g>
							<g>
								<path class="st37" d="M170.5,240c0.6-1.8,2.5-2.8,4.2-2.6"/>
								<path class="st36" d="M174.9,237.4c0.1,0.1,0.3,0,0.5,0.1c2.1,0.6,3.3,2.8,2.6,4.8c-0.6,2.1-2.8,3.3-4.8,2.6
									c-2.1-0.6-3.3-2.8-2.6-4.8l0.1-0.1"/>
								<path class="st37" d="M175.4,237.5c2.1,0.6,3.3,2.8,2.6,4.8c-0.6,2.1-2.8,3.3-4.8,2.6c-2.1-0.6-3.3-2.8-2.6-4.8
									c0.2-0.8,0.7-1.4,1.4-2"/>
							</g>
							<g>
								<text transform="matrix(0.9591 0.2831 -0.2831 0.9591 171.7767 241.8233)" class="st38 st26 st39">English</text>
								<g>
									<text transform="matrix(0.9591 0.2831 -0.2831 0.9591 172.823 240.6761)" class="st20 st26 st40">99%</text>
								</g>
							</g>
						</g>
						<g>
							<g>
								
									<ellipse transform="matrix(0.2831 -0.9591 0.9591 0.2831 -101.9469 352.2682)" class="st36" cx="184.7" cy="244.3" rx="3.9" ry="3.9"/>
								<path class="st37" d="M185.7,240.5c1.5,0.5,2.5,1.7,2.7,3.1"/>
							</g>
							<g>
								<text transform="matrix(0.9591 0.2831 -0.2831 0.9591 182.1864 244.8675)" class="st38 st26 st39">german</text>
								<g>
									<text transform="matrix(0.9591 0.2831 -0.2831 0.9591 183.2192 243.7764)" class="st20 st26 st40">20%</text>
								</g>
							</g>
						</g>
					</g>
					<g>
						
							<rect x="182.8" y="256" transform="matrix(0.2831 -0.9591 0.9591 0.2831 -123.3866 366.8589)" class="st41" width="1.7" height="20"/>
						
							<rect x="182.8" y="255.9" transform="matrix(0.2831 -0.9591 0.9591 0.2831 -123.3572 366.7378)" class="st18" width="1.7" height="19.9"/>
						<g>
							
								<rect x="181.9" y="258.7" transform="matrix(0.2831 -0.9591 0.9591 0.2831 -126.6511 367.9677)" class="st41" width="1.7" height="20"/>
							
								<rect x="180" y="260.2" transform="matrix(0.2831 -0.9591 0.9591 0.2831 -127.4949 365.6684)" class="st18" width="1.7" height="15.9"/>
						</g>
						<g>
							
								<rect x="181.3" y="261.3" transform="matrix(0.2831 -0.9591 0.9591 0.2831 -129.6265 369.1761)" class="st41" width="1.7" height="20"/>
							
								<rect x="174.6" y="266.2" transform="matrix(0.2831 -0.9591 0.9591 0.2831 -132.5473 361.4566)" class="st18" width="1.7" height="6.3"/>
						</g>
						<g>
							
								<rect x="180.5" y="264" transform="matrix(0.2831 -0.9591 0.9591 0.2831 -132.7689 370.3078)" class="st41" width="1.7" height="20"/>
							
								<rect x="175.3" y="267.8" transform="matrix(0.2831 -0.9591 0.9591 0.2831 -135.0225 364.36)" class="st18" width="1.7" height="9.3"/>
						</g>
						<g>
							
								<rect x="167.5" y="256.6" transform="matrix(0.2831 -0.9591 0.9591 0.2831 -129.9845 348.845)" class="st18" width="1.7" height="9.6"/>
							<text transform="matrix(0.9591 0.2831 -0.2831 0.9591 164.6097 260.733)" class="st17 st26 st39">Photoshop</text>
						</g>
						<g>
							
								<rect x="166.7" y="259.5" transform="matrix(0.2831 -0.9591 0.9591 0.2831 -133.3258 350.121)" class="st18" width="1.7" height="9.6"/>
							<text transform="matrix(0.9591 0.2831 -0.2831 0.9591 163.6078 263.5062)" class="st17 st26 st39">Illustrator</text>
						</g>
						<g>
							
								<rect x="165.9" y="262" transform="matrix(0.2831 -0.9591 0.9591 0.2831 -136.3463 351.2074)" class="st18" width="1.7" height="9.6"/>
							<text transform="matrix(0.9591 0.2831 -0.2831 0.9591 162.8398 266.1081)" class="st17 st26 st39">InDesign</text>
						</g>
						<g>
							
								<rect x="165.1" y="264.6" transform="matrix(0.2831 -0.9591 0.9591 0.2831 -139.3669 352.2939)" class="st18" width="1.7" height="9.6"/>
							<text transform="matrix(0.9591 0.2831 -0.2831 0.9591 162.252 268.7204)" class="st17 st26 st39">HTML</text>
						</g>
					</g>
				</g>
			</g>
		</g>
		<g>
			<g class="st1">
				<g>
					<polygon class="st2" points="189.4,327.2 158.3,363.5 58.5,332.2 89.6,295.9 					"/>
				</g>
			</g>
			<g>
				
					<rect x="45.9" y="212.9" transform="matrix(0.2808 -0.9598 0.9598 0.2808 -170.7959 314.4329)" class="st17" width="157.1" height="116.6"/>
				<g>
					
						<rect x="86.6" y="205.6" transform="matrix(0.2808 -0.9598 0.9598 0.2808 -135.2447 259.579)" class="st42" width="37.9" height="28.8"/>
					<g>
						
							<rect x="97.9" y="228.3" transform="matrix(0.2808 -0.9598 0.9598 0.2808 -161.7846 269.509)" class="st38" width="2.1" height="28.8"/>
						
							<rect x="96.4" y="233.4" transform="matrix(0.2808 -0.9598 0.9598 0.2808 -167.7491 271.7839)" class="st38" width="2.1" height="28.8"/>
						
							<rect x="94.8" y="238.6" transform="matrix(0.2808 -0.9598 0.9598 0.2808 -173.8813 273.9825)" class="st38" width="2.1" height="28.8"/>
						
							<rect x="93.4" y="243.7" transform="matrix(0.2808 -0.9598 0.9598 0.2808 -179.8458 276.2575)" class="st38" width="2.1" height="28.8"/>
					</g>
				</g>
				<g>
					
						<rect x="119.3" y="215.3" transform="matrix(0.2808 -0.9598 0.9598 0.2808 -120.9928 297.8486)" class="st42" width="37.9" height="28.8"/>
					<g>
						
							<rect x="130.6" y="237.9" transform="matrix(0.2808 -0.9598 0.9598 0.2808 -147.5327 307.7786)" class="st38" width="2.1" height="28.8"/>
						
							<rect x="129.1" y="243.1" transform="matrix(0.2808 -0.9598 0.9598 0.2808 -153.4972 310.0536)" class="st38" width="2.1" height="28.8"/>
						
							<rect x="127.6" y="248.2" transform="matrix(0.2808 -0.9598 0.9598 0.2808 -159.4618 312.3285)" class="st38" width="2.1" height="28.8"/>
						
							<rect x="126.1" y="253.3" transform="matrix(0.2808 -0.9598 0.9598 0.2808 -165.4718 314.4815)" class="st38" width="2.1" height="28.8"/>
					</g>
				</g>
				<g>
					
						<rect x="151" y="224.5" transform="matrix(0.2808 -0.9598 0.9598 0.2808 -107.1039 334.8917)" class="st42" width="37.9" height="28.8"/>
					<g>
						
							<rect x="162.2" y="247.2" transform="matrix(0.2808 -0.9598 0.9598 0.2808 -133.6438 344.8216)" class="st38" width="2.1" height="28.8"/>
						
							<rect x="160.8" y="252.3" transform="matrix(0.2808 -0.9598 0.9598 0.2808 -139.6083 347.0966)" class="st38" width="2.1" height="28.8"/>
						
							<rect x="159.2" y="257.4" transform="matrix(0.2808 -0.9598 0.9598 0.2808 -145.6185 349.2496)" class="st38" width="2.1" height="28.8"/>
						
							<rect x="157.7" y="262.5" transform="matrix(0.2808 -0.9598 0.9598 0.2808 -151.583 351.5244)" class="st38" width="2.1" height="28.8"/>
					</g>
				</g>
				<g>
					
						<rect x="68.6" y="269.2" transform="matrix(0.2808 -0.9598 0.9598 0.2808 -209.1703 287.9935)" class="st42" width="37.9" height="28.8"/>
					<g>
						
							<rect x="79.9" y="291.9" transform="matrix(0.2808 -0.9598 0.9598 0.2808 -235.7103 297.9234)" class="st38" width="2.1" height="28.8"/>
						
							<rect x="78.3" y="296.9" transform="matrix(0.2808 -0.9598 0.9598 0.2808 -241.7204 300.0764)" class="st38" width="2.1" height="28.8"/>
						
							<rect x="76.9" y="302.1" transform="matrix(0.2808 -0.9598 0.9598 0.2808 -247.685 302.3513)" class="st38" width="2.1" height="28.8"/>
						
							<rect x="75.4" y="307.3" transform="matrix(0.2808 -0.9598 0.9598 0.2808 -253.7715 304.6719)" class="st38" width="2.1" height="28.8"/>
					</g>
				</g>
				<g>
					
						<rect x="101.3" y="278.7" transform="matrix(0.2808 -0.9598 0.9598 0.2808 -194.7964 326.2174)" class="st43" width="37.9" height="28.8"/>
					<g>
						
							<rect x="112.6" y="301.4" transform="matrix(0.2808 -0.9598 0.9598 0.2808 -221.3365 336.1474)" class="st38" width="2.1" height="28.8"/>
						
							<rect x="111.1" y="306.5" transform="matrix(0.2808 -0.9598 0.9598 0.2808 -227.3009 338.4223)" class="st38" width="2.1" height="28.8"/>
						
							<rect x="109.5" y="311.7" transform="matrix(0.2808 -0.9598 0.9598 0.2808 -233.4331 340.6209)" class="st38" width="2.1" height="28.8"/>
						
							<rect x="108.1" y="316.8" transform="matrix(0.2808 -0.9598 0.9598 0.2808 -239.3976 342.8958)" class="st38" width="2.1" height="28.8"/>
					</g>
				</g>
				<g>
					
						<rect x="133" y="288" transform="matrix(0.2808 -0.9598 0.9598 0.2808 -180.9075 363.2604)" class="st42" width="37.9" height="28.8"/>
					<g>
						
							<rect x="144.3" y="310.6" transform="matrix(0.2808 -0.9598 0.9598 0.2808 -207.4476 373.1904)" class="st38" width="2.1" height="28.8"/>
						
							<rect x="142.8" y="315.7" transform="matrix(0.2808 -0.9598 0.9598 0.2808 -213.412 375.4653)" class="st38" width="2.1" height="28.8"/>
						
							<rect x="141.2" y="320.9" transform="matrix(0.2808 -0.9598 0.9598 0.2808 -219.5442 377.6639)" class="st38" width="2.1" height="28.8"/>
						
							<rect x="139.7" y="326.1" transform="matrix(0.2808 -0.9598 0.9598 0.2808 -225.5087 379.9389)" class="st38" width="2.1" height="28.8"/>
					</g>
				</g>
				<g>
					<path class="st44" d="M97.2,223.1c0.2-0.4,4.1,0.2,7.9,1.1c3.7,1.2,7,2.6,7,3.1c0,0.9-1.6,7.7-2.5,9.6c-0.2,0.4-4-0.5-7.8-1.6
						c-3.8-1.2-7.5-2.4-7.4-2.9C94.7,230.5,96.6,223.8,97.2,223.1z"/>
					<path class="st38" d="M104.2,225.3l1,1.5c0,0-0.9,6.2-1,6.5c0,0.2-2.1,1.3-2.5,1.3c-0.4-0.1-1.5-2.1-1.5-2.2
						c0.1-0.1,2.3-6.5,2.3-6.5L104.2,225.3z"/>
					<path class="st45" d="M111.2,226.7c-0.1,0-5.5,1-5.7,0.9s-1.4-1.9-1.4-1.9s-2,0.9-2.4,0.8c-0.4-0.1-2.9-2.8-3.6-3.5
						C102.1,222.8,110.3,226,111.2,226.7z"/>
					<g>
						<path class="st46" d="M100.2,214.8c0.3-1.1,0.7-2.1,1.7-3.5c1.2-1.7,4-1.7,6.5-0.8c2.7,0.6,5,2.1,5,4.2c0,1.7-0.1,2.8-0.5,4
							c0.4,0.3,0.6,1.1,0.4,1.8c-0.2,0.8-1,1.4-1.6,1.2l-0.1-0.1c-0.3,0.8-0.4,0.9-0.8,1.9c-0.6,2.1-3.8,2.2-6.8,1.2
							c-3-0.9-5.5-2.5-4.9-4.6c0.3-1.1,0.2-1.3,0.3-2.1c0,0-0.1,0-0.1-0.1c-0.6-0.2-1-1.1-0.7-2C99.1,215.3,99.6,214.8,100.2,214.8z
							"/>
						<g>
							<g>
								<g>
									
										<ellipse transform="matrix(0.2808 -0.9598 0.9598 0.2808 -130.9024 261.1974)" class="st47" cx="108.8" cy="217.9" rx="1" ry="1"/>
								</g>
								<g class="st48">
									<g>
										<g>
											
												<ellipse transform="matrix(0.2808 -0.9598 0.9598 0.2808 -130.6607 261.1716)" class="st47" cx="108.9" cy="217.8" rx="1" ry="1.1"/>
										</g>
									</g>
								</g>
							</g>
							<g>
								<g>
									
										<ellipse transform="matrix(0.2808 -0.9598 0.9598 0.2808 -133.0518 255.6441)" class="st47" cx="104.1" cy="216.6" rx="1" ry="1"/>
								</g>
								<g class="st48">
									<g>
										<g>
											
												<ellipse transform="matrix(0.2808 -0.9598 0.9598 0.2808 -132.8556 255.4964)" class="st47" cx="104.1" cy="216.4" rx="1" ry="1.1"/>
										</g>
									</g>
								</g>
							</g>
						</g>
						<path class="st49" d="M103.3,220.3c1.7,2.8,3.7,1.6,4.3,1.3c0.1,0,0.1-0.1-0.1-0.2c-0.1-0.1-3.2-0.9-4.1-1.2
							C103.2,220.1,103.3,220.2,103.3,220.3z"/>
						<path class="st50" d="M100.1,216.7c0.9,0.1,1.4-5.1,2.8-5.2c1.3,0,1.6,1.1,4.9,2.2c3.3,1,4.2-0.2,5.1,1
							c0.9,1.2-1.5,4.9-0.6,5.7c0.3-0.6,2.1-6.8,2.1-6.8l-13.1-3.8C101.4,209.7,100.3,215.9,100.1,216.7z"/>
						<path class="st51" d="M100.1,216.7c0.7,0,1-4.6,2.3-5.3c1.3-0.7,2.5,1.1,5.7,2.1c3.2,1,4.1-0.3,5,1c0.9,1.3-1.2,4.1-1,5.7
							c0,0.6,0.8-1.5,0.8-1.5s0.3,0.1,0.4,0.5c2.2-2.3,2.9-4.7,2.8-5.8c-0.1-1.4-1.3-2.2,0.6-3.3c1.8-1-1.1-2.2-7.1-3
							c-2.9-0.4-5.4-2.5-8-0.7c-2.2,1.7-2.4,5.2-2.2,8.5c0.2-0.2,0.4-0.1,0.4-0.1C100.2,216,100,216.7,100.1,216.7z"/>
					</g>
				</g>
				<g>
					<path class="st52" d="M111.7,294.8c0.2-0.4,4.1,0.2,7.9,1.1c3.7,1.2,7,2.6,7,3.1c0,0.9-1.6,7.7-2.5,9.6c-0.2,0.4-4-0.5-7.8-1.6
						c-3.8-1.2-7.5-2.4-7.4-2.9C109.2,302.2,111.2,295.5,111.7,294.8z"/>
					<path class="st38" d="M118.7,296.9l1,1.5c0,0-0.9,6.2-1,6.5c0,0.2-2.1,1.3-2.5,1.3c-0.4-0.1-1.5-2.1-1.5-2.2
						c0.1-0.1,2.3-6.5,2.3-6.5L118.7,296.9z"/>
					<path class="st45" d="M125.8,298.5c-0.1,0-5.4,0.9-5.6,0.8c-0.2,0-1.4-1.9-1.4-1.9s-2,0.9-2.4,0.8c-0.4-0.1-2.9-2.8-3.7-3.5
						C115.6,294.7,122.5,296.6,125.8,298.5z"/>
					<path class="st46" d="M114.6,286.5c0.3-1.1,0.7-2.1,1.7-3.5c1.2-1.7,4-1.7,6.5-0.8c2.7,0.6,5,2.1,5,4.2c0,1.7-0.1,2.8-0.5,4
						c0.4,0.3,0.6,1.1,0.4,1.8c-0.2,0.8-1,1.4-1.6,1.2l-0.1-0.1c-0.3,0.8-0.4,0.9-0.8,1.9c-0.6,2.1-3.8,2.2-6.8,1.2
						c-3-0.9-5.5-2.5-4.9-4.6c0.3-1.1,0.2-1.3,0.3-2.1c0,0-0.1,0-0.1-0.1c-0.6-0.2-1-1.1-0.7-2C113.5,287.1,114,286.6,114.6,286.5z"
						/>
					<g>
						<g>
							<g>
								
									<ellipse transform="matrix(0.2808 -0.9598 0.9598 0.2808 -189.336 326.7034)" class="st47" cx="123.3" cy="289.7" rx="1" ry="1"/>
							</g>
							<g class="st48">
								<g>
									<g>
										
											<ellipse transform="matrix(0.2808 -0.9598 0.9598 0.2808 -189.1399 326.5556)" class="st47" cx="123.3" cy="289.5" rx="1" ry="1.1"/>
									</g>
								</g>
							</g>
						</g>
						<g>
							<g>
								
									<ellipse transform="matrix(0.2808 -0.9598 0.9598 0.2808 -191.4855 321.1501)" class="st47" cx="118.5" cy="288.3" rx="1" ry="1"/>
							</g>
							<g class="st48">
								<g>
									<g>
										
											<ellipse transform="matrix(0.2808 -0.9598 0.9598 0.2808 -191.2892 321.0025)" class="st47" cx="118.5" cy="288.1" rx="1" ry="1.1"/>
									</g>
								</g>
							</g>
						</g>
					</g>
					<path class="st49" d="M117.9,292.1c1.7,2.8,3.7,1.6,4.3,1.3c0.1,0,0.1-0.1-0.1-0.2c-0.1-0.1-3.2-0.9-4.1-1.2
						C117.7,291.9,117.8,292,117.9,292.1z"/>
					<path class="st51" d="M114.7,288.3c0.7,0,0.7-3.4,1.8-4.9c1-1.5,3.2-1.9,3.2-1.9s-1.6-1.9-3.5-0.5c-2.5,1.8-2,4.1-1.9,5.9
						c0.2-0.2,0.4-0.1,0.4-0.1C114.6,287.7,114.4,288.4,114.7,288.3z"/>
					<path class="st51" d="M126.5,291.9c-0.7-0.4,1.2-3.3,1.3-5.1s-1.6-3.4-1.6-3.4s2.4-0.8,3.2,1.4c1.2,2.9-0.5,4.5-1.5,5.9
						c-0.1-0.2-0.3-0.4-0.3-0.4C126.8,291.2,126.6,291.9,126.5,291.9z"/>
				</g>
				<g>
					<path class="st53" d="M161.2,239.1c0.2-0.4,4.1,0.2,7.9,1.1c3.7,1.2,7,2.6,7,3.1c0,0.9-1.6,7.7-2.5,9.6c-0.2,0.4-4-0.5-7.8-1.6
						s-7.5-2.4-7.4-2.9C158.8,246.4,160.7,239.8,161.2,239.1z"/>
					<path class="st46" d="M164.2,230.8c0.3-1.1,0.7-2.1,1.7-3.5c1.2-1.7,4-1.7,6.5-0.8c2.7,0.6,5,2.1,5,4.2c0,1.7-0.1,2.8-0.5,4
						c0.4,0.3,0.6,1.1,0.4,1.8c-0.2,0.8-1,1.4-1.6,1.2l-0.1-0.1c-0.3,0.8-0.4,0.9-0.8,1.9c-0.6,2.1-3.8,2.2-6.8,1.2
						c-3-0.9-5.5-2.5-4.9-4.6c0.3-1.1,0.2-1.3,0.3-2.1c0,0-0.1,0-0.1-0.1c-0.6-0.2-1-1.1-0.7-2C163.1,231.3,163.6,230.8,164.2,230.8
						z"/>
					<g>
						<g>
							<g>
								
									<ellipse transform="matrix(0.2808 -0.9598 0.9598 0.2808 -100.1487 334.1697)" class="st47" cx="172.9" cy="233.9" rx="1" ry="1"/>
							</g>
							<g class="st48">
								<g>
									<g>
										
											<ellipse transform="matrix(0.2808 -0.9598 0.9598 0.2808 -99.9526 334.0219)" class="st47" cx="172.9" cy="233.7" rx="1" ry="1.1"/>
									</g>
								</g>
							</g>
						</g>
						<g>
							<g>
								
									<ellipse transform="matrix(0.2808 -0.9598 0.9598 0.2808 -102.2983 328.6164)" class="st47" cx="168.1" cy="232.6" rx="1" ry="1"/>
							</g>
							<g class="st48">
								<g>
									<g>
										
											<ellipse transform="matrix(0.2808 -0.9598 0.9598 0.2808 -102.1021 328.4685)" class="st47" cx="168.1" cy="232.4" rx="1" ry="1.1"/>
									</g>
								</g>
							</g>
						</g>
					</g>
					<path class="st49" d="M167.5,236.3c1.7,2.8,3.7,1.6,4.3,1.3c0.1,0,0.1-0.1-0.1-0.2c-0.1-0.1-3.2-0.9-4.1-1.2
						C167.3,236.1,167.3,236.2,167.5,236.3z"/>
					<path class="st51" d="M164.1,232.6c0.7,0,0.7-3.4,1.8-4.9c1-1.5,3.2-1.9,3.2-1.9s-1.6-1.9-3.5-0.5c-2.5,1.8-2,4.1-1.9,5.9
						c0.2-0.2,0.4-0.1,0.4-0.1C164.2,231.9,164,232.6,164.1,232.6z"/>
					<path class="st51" d="M176,236.1c-0.7-0.4,1.2-3.3,1.3-5.1s-1.6-3.4-1.6-3.4s2.4-0.8,3.2,1.4c1.2,2.9-0.5,4.5-1.5,5.9
						c-0.1-0.2-0.3-0.4-0.3-0.4C176.4,235.5,176.1,236.2,176,236.1z"/>
					<path class="st51" d="M166,225.3c0.2-0.5,0.5-2.3,7.3-0.3s5.1,3.9,5.1,3.9s-1.3,3.5-7,1.9C165.4,229.1,165.8,225.8,166,225.3z"
						/>
				</g>
				<g>
					<path class="st51" d="M133,220.4c-0.5,1.8-3.3,11.8-3.3,11.8l15.4,4.2c0,0,3.1-11.3,3.4-12.6c0.3-1.3-0.2-6-6-7.8
						C136.7,214.2,133.5,218.5,133,220.4z"/>
					<polygon class="st54" points="143.7,238.6 130.2,235 134.8,229.7 141.6,231.9 					"/>
					<path class="st55" d="M129.9,229.3c0.1-0.3,2.2-0.3,4.9,0.4c0.6,0.2-0.6,4.8,2.4,5.6s3.9-3.7,4.4-3.5c2.7,0.9,4.8,1.8,4.8,2.1
						c0,0.9-1.5,7.8-2.5,9.6c-0.2,0.4-4.3-0.6-8.5-1.9c-4.2-1.3-8.3-2.6-8.2-3.1C127.4,236.6,129.3,230,129.9,229.3z"/>
					<path class="st46" d="M134.1,222.4c0.3-1.1,0.7-2.2,1.7-3.6c1.2-1.8,3.7-1.3,6.1-0.4c2.5,0.6,4.8,1.6,4.9,3.7
						c0,1.7-0.2,3-0.6,4c0.4,0.3,0.6,1.1,0.4,1.8c-0.2,0.8-1,1.4-1.6,1.2L145,229c-0.4,1.1-3.4,3.8-7,2.8c-3.6-1-4.9-4.6-4.5-6.2
						c0,0-0.1,0-0.1-0.1c-0.6-0.2-0.8-1-0.6-1.8C133.1,222.9,133.6,222.4,134.1,222.4z"/>
					<g>
						<g>
							<g>
								
									<ellipse transform="matrix(0.2808 -0.9598 0.9598 0.2808 -114.6536 299.2287)" class="st47" cx="142.3" cy="226.1" rx="0.9" ry="0.9"/>
							</g>
							<g class="st48">
								<g>
									<g>
										
											<ellipse transform="matrix(0.2808 -0.9598 0.9598 0.2808 -114.4329 299.1849)" class="st47" cx="142.4" cy="225.9" rx="0.9" ry="1"/>
									</g>
								</g>
							</g>
						</g>
						<g>
							<g>
								
									<ellipse transform="matrix(0.2808 -0.9598 0.9598 0.2808 -116.6521 294.1503)" class="st47" cx="137.9" cy="224.9" rx="0.9" ry="0.9"/>
							</g>
							<g class="st48">
								<g>
									<g>
										
											<ellipse transform="matrix(0.2808 -0.9598 0.9598 0.2808 -116.4768 293.9844)" class="st47" cx="137.9" cy="224.7" rx="0.9" ry="1"/>
									</g>
								</g>
							</g>
						</g>
					</g>
					<path class="st49" d="M136.9,228.2c1.7,2.8,3.7,1.6,4.3,1.3c0.1,0,0.2-0.2-0.1-0.2c-0.1,0-0.9,0.3-2.1-0.1
						c-1.1-0.4-1.7-0.9-2-1.1C136.8,227.8,136.9,228,136.9,228.2z"/>
					<path class="st51" d="M135.3,218.4c0.2-0.5,0.5-2.6,7.2-0.7c6.8,2,4.9,6.5,3.9,8.4c-0.6-1.1-1.4-1.9-4.8-2.8
						c-3.3-1-4.8,0.5-7.4-0.7C133.7,221.4,134.9,219.2,135.3,218.4z"/>
				</g>
				<g>
					<polygon class="st54" points="157.8,312.9 144.2,309.3 148.5,304.1 155.7,306.1 					"/>
					<path class="st51" d="M146.8,294.8c-0.5,1.8-1.6,5.8-2,7.2c-0.5,1.5,14.8,5.7,15.3,4.1c0.4-1.6,2.1-6.9,2.3-8.2
						c0.3-1.3-0.4-5.7-6.1-7.3C150.4,288.9,147.4,292.8,146.8,294.8z"/>
					<path class="st56" d="M143.7,303.8c0.1-0.3,2.2-0.3,4.9,0.4c0.6,0.2,0.8,6.2,2.2,6.6c1.5,0.4,4.2-4.8,4.7-4.6
						c2.7,0.9,4.8,2,4.7,2.4c0,0.9-1.5,7.8-2.5,9.6c-0.2,0.4-4.3-0.6-8.5-1.9c-4.2-1.3-8.3-2.6-8.2-3.1
						C141.2,311.1,143.2,304.5,143.7,303.8z"/>
					<path class="st46" d="M147.9,296.7c0.3-1.1,0.8-2.6,1.8-4c1.2-1.8,3.8-1.8,6.3-0.9c2.5,0.6,4.8,2,4.8,4.2
						c0,1.7-0.3,3.3-0.7,4.4c0.4,0.3,0.6,1.1,0.4,1.8c-0.2,0.8-1,1.4-1.6,1.2l-0.1-0.1c-0.4,1.1-3.4,3.8-7,2.8
						c-3.6-1-4.9-4.6-4.5-6.2c0,0-0.1,0-0.1-0.1c-0.6-0.2-0.8-1-0.6-1.8C146.8,297.3,147.3,296.8,147.9,296.7z"/>
					<g>
						<g>
							<g>
								
									<ellipse transform="matrix(0.2808 -0.9598 0.9598 0.2808 -176.1578 365.8686)" class="st47" cx="156" cy="300.5" rx="0.9" ry="0.9"/>
							</g>
							<g class="st48">
								<g>
									<g>
										
											<ellipse transform="matrix(0.2808 -0.9598 0.9598 0.2808 -175.937 365.8247)" class="st47" cx="156.1" cy="300.3" rx="0.9" ry="1"/>
									</g>
								</g>
							</g>
						</g>
						<g>
							<g>
								
									<ellipse transform="matrix(0.2808 -0.9598 0.9598 0.2808 -178.1559 360.7902)" class="st47" cx="151.7" cy="299.3" rx="0.9" ry="0.9"/>
							</g>
							<g class="st48">
								<g>
									<g>
										
											<ellipse transform="matrix(0.2808 -0.9598 0.9598 0.2808 -177.9352 360.7461)" class="st47" cx="151.7" cy="299.1" rx="0.9" ry="1"/>
									</g>
								</g>
							</g>
						</g>
					</g>
					<path class="st49" d="M150.7,302.1c1.7,2.8,3.7,1.6,4.3,1.3c0.1,0,0.2-0.2-0.1-0.2c-0.1,0-0.9,0.3-2.1-0.1
						c-1.1-0.4-1.7-0.9-2-1.1C150.7,301.9,150.7,302.1,150.7,302.1z"/>
					<path class="st51" d="M147.7,298.6c0.7,0,0.7-3.4,1.8-4.9c1-1.5,3.3-2.3,3.3-2.3s-1.8-0.9-3.7,0.5c-2.5,1.8-1.8,3.5-1.8,5.2
						c0.2-0.2,0.4-0.1,0.4-0.1C147.7,297.9,147.6,298.6,147.7,298.6z"/>
					<path class="st51" d="M159.1,301.9c-0.7-0.4,1.2-3.3,1.3-5.1c0-1.8-1.5-3.7-1.5-3.7s2-0.1,2.9,2.1c1.2,2.9-0.3,4.3-1.2,5.7
						c-0.1-0.2-0.3-0.4-0.3-0.4C159.5,301.2,159.3,301.9,159.1,301.9z"/>
					<path class="st51" d="M149.1,292.4c0.2-0.5,0.5-2.9,7.3-0.8c6.8,2,5,4.2,4.8,4.7c-0.7,2.4-1,3.1-6.8,1.4
						c-0.7-0.2,0.1-1.2-0.1-1.7c-1.7,1.2-5.8,0.4-6.3,0.1C146,295.1,148.6,294,149.1,292.4z"/>
				</g>
				<g>
					<polygon class="st54" points="93.6,292.8 80,289.2 84.3,284 91.5,286 					"/>
					<path class="st51" d="M82.6,274.5c-0.5,1.8-1.6,5.8-2,7.2c-0.5,1.5,14.8,5.7,15.3,4.1c0.4-1.6,2.1-6.9,2.3-8.2
						c0.3-1.3-0.4-5.7-6.1-7.3C86.1,268.7,83.2,272.7,82.6,274.5z"/>
					<path class="st53" d="M79.6,283.7c0.1-0.3,2.2-0.3,4.9,0.4c0.6,0.2,0.8,6.2,2.2,6.6c1.5,0.4,4.2-4.8,4.7-4.6
						c2.7,0.9,4.8,2,4.7,2.4c0,0.9-1.5,7.8-2.5,9.6c-0.2,0.4-4.3-0.6-8.5-1.9c-4.2-1.3-8.3-2.6-8.2-3.1
						C77,290.9,79,284.4,79.6,283.7z"/>
					<path class="st46" d="M83.7,276.6c0.3-1.1,0.8-2.6,1.8-4c1.2-1.8,3.8-1.8,6.3-0.9c2.5,0.6,4.8,2,4.8,4.2c0,1.7-0.3,3.3-0.7,4.4
						c0.4,0.3,0.6,1.1,0.4,1.8c-0.2,0.8-1,1.4-1.6,1.2l-0.1-0.1c-0.4,1.1-3.4,3.8-7,2.8c-3.6-1-4.9-4.6-4.5-6.2c0,0-0.1,0-0.1-0.1
						c-0.6-0.2-0.8-1-0.6-1.8C82.6,277.2,83.1,276.7,83.7,276.6z"/>
					<g>
						<g>
							<g>
								
									<ellipse transform="matrix(0.2808 -0.9598 0.9598 0.2808 -203.0347 289.8107)" class="st47" cx="91.9" cy="280.4" rx="0.9" ry="0.9"/>
							</g>
							<g class="st48">
								<g>
									<g>
										
											<ellipse transform="matrix(0.2808 -0.9598 0.9598 0.2808 -202.8136 289.7669)" class="st47" cx="91.9" cy="280.2" rx="0.9" ry="1"/>
									</g>
								</g>
							</g>
						</g>
						<g>
							<g>
								
									<ellipse transform="matrix(0.2808 -0.9598 0.9598 0.2808 -205.0327 284.7323)" class="st47" cx="87.5" cy="279.2" rx="0.9" ry="0.9"/>
							</g>
							<g class="st48">
								<g>
									<g>
										
											<ellipse transform="matrix(0.2808 -0.9598 0.9598 0.2808 -204.8118 284.6883)" class="st47" cx="87.6" cy="279" rx="0.9" ry="1"/>
									</g>
								</g>
							</g>
						</g>
					</g>
					<path class="st49" d="M86.5,282c1.7,2.8,3.7,1.6,4.3,1.3c0.1,0,0.2-0.2-0.1-0.2c-0.1,0-0.9,0.3-2.1-0.1c-1.1-0.4-1.7-0.9-2-1.1
						C86.5,281.8,86.5,282,86.5,282z"/>
					<path class="st51" d="M83.5,278.5c0.7,0,0.7-3.4,1.8-4.9c1-1.5,3.3-2.3,3.3-2.3s-1.8-0.9-3.7,0.5c-2.5,1.8-1.8,3.5-1.8,5.2
						c0.2-0.2,0.4-0.1,0.4-0.1C83.5,277.8,83.4,278.5,83.5,278.5z"/>
					<path class="st51" d="M95,281.7c-0.7-0.4,1.2-3.3,1.3-5.1c0-1.8-1.5-3.7-1.5-3.7s2-0.1,2.9,2.1c1.2,2.9-0.3,4.3-1.2,5.7
						c-0.1-0.2-0.3-0.4-0.3-0.4C95.3,281.1,95.2,281.8,95,281.7z"/>
					<path class="st51" d="M84.9,272.3c0.2-0.5,0.5-2.9,7.3-0.8s5,4.2,4.8,4.7c-0.7,2.4-1,3.1-6.8,1.4c-0.7-0.2,0.1-1.2-0.1-1.7
						c-1.7,1.2-5.8,0.4-6.3,0.1C81.8,275,84.4,273.9,84.9,272.3z"/>
				</g>
				<g>
					<g>
						<path class="st53" d="M217,324c1.6,0.7,2.3,2.4,1.7,3.9l-3.4,8.3c-0.7,1.6-2.4,2.3-3.9,1.7l-51.7-21.1
							c-1.6-0.7-2.3-2.4-1.7-3.9l3.4-8.3c0.7-1.6,2.4-2.3,3.9-1.7L217,324z"/>
						<path class="st57" d="M167.4,299.9c5.7,2.3,8.5,8.9,6.2,14.5c-2.3,5.7-8.9,8.5-14.5,6.2c-5.7-2.3-3.4-6.8-1.1-12.5
							C160.3,302.3,161.7,297.5,167.4,299.9z"/>
						
							<ellipse transform="matrix(0.3765 -0.9264 0.9264 0.3765 -193.7372 305.8714)" class="st42" cx="130.4" cy="296.9" rx="31.1" ry="31.1"/>
						<path class="st53" d="M164.7,310.8c-3.7,9.2-10.8,16.3-19.9,20.2c-9.1,3.8-19.2,3.9-28.4,0.2c-9.2-3.7-16.3-10.8-20.2-19.9
							c-3.8-9.1-3.9-19.2-0.2-28.4s10.8-16.3,19.9-20.2c9.1-3.8,19.2-3.9,28.4-0.2c9.2,3.7,16.3,10.8,20.2,19.9
							C168.4,291.6,168.5,301.7,164.7,310.8z M106.5,287.2c-5.4,13.2,1,28.3,14.2,33.6c13.2,5.4,28.3-1,33.6-14.2
							c5.4-13.2-1-28.3-14.2-33.6C126.9,267.6,111.8,274,106.5,287.2z"/>
					</g>
					<g>
						<path class="st52" d="M118.6,296.9c0.4-0.6,6,0.2,11.5,1.7c5.4,1.7,10.2,3.9,10.2,4.5c0,1.3-2.4,11.3-3.6,14
							c-0.3,0.6-5.8-0.7-11.4-2.3c-5.6-1.7-10.9-3.5-10.9-4.1C115,307.8,117.8,298.1,118.6,296.9z"/>
						<path class="st38" d="M128.8,300.1l1.5,2.3c0,0-1.3,9.2-1.5,9.6c-0.1,0.4-3.2,1.9-3.7,1.8c-0.5-0.1-2.2-3-2.2-3.2
							c0-0.2,3.4-9.5,3.4-9.5L128.8,300.1z"/>
						<path class="st45" d="M139.3,302.3c-0.2,0.1-7.9,1.2-8.3,1.1s-2-2.8-2-2.8s-2.9,1.3-3.4,1.2c-0.5-0.2-4.4-3.9-5.4-5
							C124.3,296.8,134.5,299.6,139.3,302.3z"/>
						<path class="st46" d="M122.9,284.9c0.3-1.6,1-3.2,2.5-5.2c1.8-2.5,5.8-2.6,9.7-1.2c3.9,0.9,7.3,3.1,7.4,6.2
							c0.2,2.6-0.2,4.2-0.7,5.7c0.7,0.5,1,1.5,0.6,2.6c-0.4,1.3-1.4,2.1-2.3,1.8c-0.1,0-0.1-0.1-0.2,0c-0.5,1-0.6,1.3-1.1,2.8
							c-0.9,3.1-5.5,3.2-9.9,1.8c-4.4-1.1-8-3.7-7.1-6.8c0.4-1.6,0.3-1.9,0.5-3.1c-0.1,0-0.1-0.1-0.2,0c-0.9-0.3-1.3-1.5-1-2.8
							C121.2,285.7,122.1,284.9,122.9,284.9z"/>
						<g>
							<g>
								<g>
									
										<ellipse transform="matrix(0.2808 -0.9598 0.9598 0.2808 -180.25 338.3206)" class="st47" cx="135.6" cy="289.4" rx="1.4" ry="1.4"/>
								</g>
								<g class="st48">
									<g>
										<g>
											
												<ellipse transform="matrix(0.2808 -0.9598 0.9598 0.2808 -179.9769 338.2385)" class="st47" cx="135.7" cy="289.2" rx="1.4" ry="1.5"/>
										</g>
									</g>
								</g>
							</g>
							<g>
								<g>
									
										<ellipse transform="matrix(0.2808 -0.9598 0.9598 0.2808 -183.3745 330.1976)" class="st47" cx="128.6" cy="287.5" rx="1.4" ry="1.4"/>
								</g>
								<g class="st48">
									<g>
										<g>
											
												<ellipse transform="matrix(0.2808 -0.9598 0.9598 0.2808 -183.1013 330.1157)" class="st47" cx="128.7" cy="287.2" rx="1.4" ry="1.5"/>
										</g>
									</g>
								</g>
							</g>
						</g>
						<path class="st49" d="M127.6,292.9c2.4,4.1,5.4,2.4,6.3,1.8c0.2-0.2,0.2-0.2-0.1-0.3c-0.2,0-4.7-1.3-6-1.8
							C127.5,292.6,127.5,292.8,127.6,292.9z"/>
						<path class="st51" d="M122.9,287.6c1,0,1.1-4.9,2.6-7.3c1.5-2.3,4.7-2.8,4.7-2.8s-2.3-2.9-5.1-0.8c-3.7,2.8-2.9,6-2.9,8.5
							c0.3-0.2,0.6-0.2,0.7-0.2C122.9,286.5,122.7,287.5,122.9,287.6z"/>
						<path class="st51" d="M140.3,292.7c-0.9-0.5,1.7-4.7,1.7-7.4s-2.4-5-2.4-5s3.5-1.1,4.8,2.1c1.7,4.4-0.7,6.6-2.1,8.7
							c-0.2-0.3-0.4-0.6-0.5-0.5C140.7,291.8,140.4,292.7,140.3,292.7z"/>
					</g>
				</g>
				
					<rect x="33.6" y="176.9" transform="matrix(0.2808 -0.9598 0.9598 0.2808 -168.2689 317.4543)" class="st30" width="188.2" height="188.2"/>
			</g>
		</g>
	</g>
	<g>
		<g>
			<g>
				<g class="st1">
					<path class="st58" d="M403.2,289c0.3-0.2,0.7-0.2,1,0c13-7.6,34.1-7.6,47.2,0c0.3-0.2,0.7-0.2,1,0c-2.5-1.4-4.5-2.2-4.5-2.2
						c-1.4-0.5-3.2-1.2-4.7-1.6c-0.7-0.2-1.7-0.5-2.5-0.7c-3.8-0.9-8.6-1.5-13-1.5c-4.5,0-9.1,0.5-13,1.5c-0.7,0.2-1.8,0.4-2.6,0.7
						c-1.4,0.4-3.2,1.1-4.7,1.7c-0.7,0.2-1.7,0.7-2.3,1.1C404.6,288.3,403.8,288.7,403.2,289z"/>
					<path class="st58" d="M452.3,289l11.1,6.4l11.1,6.4l11.1,6.4l11.1,6.4l11.1,6.4l11.1,6.4l11.1,6.4l11.1,6.4l11.1,6.4l11.1,6.4
						c-0.3-0.2-0.7-0.2-1,0l-110.9-64C451.7,288.9,452,288.9,452.3,289z"/>
					<path class="st58" d="M119.1,454.2l28.4-16.5l28.4-16.5l28.4-16.5l28.4-16.5l28.4-16.5l28.4-16.5l28.4-16.5l28.4-16.5
						l28.4-16.5l28.4-16.5c0.3-0.2,0.7-0.2,1,0L120.1,454.2C119.6,454,119.3,454,119.1,454.2z"/>
					<path class="st58" d="M562.2,353.1c13.1,7.6,13.2,19.8,0.2,27.3c-94.7,55-189.4,110.1-284.1,165.1c-13,7.6-34.1,7.6-47.2,0
						c-37-21.3-73.9-42.7-110.9-64c-13.1-7.6-13.2-19.8-0.2-27.3c94.7-54.9,189.5-110,284.2-165c13-7.6,34.1-7.6,47.2,0
						C488.3,310.4,525.3,331.7,562.2,353.1z"/>
					<path class="st58" d="M575.3,370c-0.2-1.6-0.5-2.7-0.7-3.2c-0.2-0.7-0.5-1.7-1.2-3.2c-0.4-0.9-0.7-1.5-1.4-2.6
						c-0.4-0.7-1-1.5-1.6-2.1c-0.7-0.7-1.6-1.7-2.3-2.4c-0.9-0.8-2.2-1.7-3.2-2.4c-0.5-0.3-1.2-0.7-1.7-1.1c-0.3-0.2-0.7-0.2-1,0
						c13.1,7.6,13.2,19.8,0.2,27.3L278.2,545.5c-13,7.6-34.1,7.6-47.2,0l0,0l-110.9-64c-13.1-7.6-13.2-19.8-0.2-27.3
						c-0.3-0.2-0.7-0.2-1,0c-1,0.6-2.3,1.5-3.2,2.2c-0.5,0.3-1.1,0.8-1.5,1.2c-0.7,0.6-1.5,1.4-2.1,2.1c-1.1,1.2-1.7,2.2-2.1,2.7
						c-1.4,2.3-2,4.1-2.4,5.6c-0.2,0.9-0.4,1.9-0.6,3.1c-0.2,1-0.2,1.7-0.2,2.8v1.6c0,1,0.1,2.1,0.4,3.1c-0.2-1-0.4-2.1-0.4-3.1
						c0,2.8,0.5,4.9,0.8,6.3c0.7,2.7,2,4.7,2.4,5.3c0.5,0.7,1.2,1.7,1.7,2.2c0.7,0.8,1.7,1.8,2.5,2.6c0.8,0.7,2.2,1.7,3.1,2.3
						c0.5,0.3,1.2,0.7,1.7,1.1l0,0l110.9,64c2.5,1.4,4.5,2.2,4.5,2.2c1.4,0.5,3.2,1.2,4.7,1.6c0.7,0.2,1.7,0.5,2.5,0.7
						c3.8,0.9,8.6,1.5,13,1.5c4.5,0,9.1-0.5,13-1.5c0.7-0.2,1.8-0.4,2.6-0.7c1.4-0.4,3.2-1.1,4.7-1.7c0.7-0.2,1.7-0.7,2.3-1.1
						c0.6-0.3,1.4-0.7,2-1.1c0.3-0.2,0.7-0.6,0.9-1.2c-0.2,0.6-0.5,1-0.9,1.2l113.6-65.9l170.5-99.1c1-0.6,2.2-1.4,3.2-2.1
						c0.9-0.7,2-1.7,2.8-2.4c0.6-0.5,1.2-1.3,1.7-1.9c0.5-0.7,1.2-1.6,1.6-2.3c0.7-1.2,1.7-3.3,2.1-4.8c0.2-0.9,0.5-1.7,0.7-3.1
						c0.2-1.2,0.2-2.1,0.2-3.1l0,0V373C575.5,372.1,575.5,371.2,575.3,370z"/>
				</g>
				<g>
					<g>
						<g class="st59">
							<g>
								<path class="st60" d="M403.2,280.5c0.3-0.2,0.7-0.2,1,0c13-7.6,34.1-7.6,47.2,0c0.3-0.2,0.7-0.2,1,0
									c-2.5-1.4-4.5-2.2-4.5-2.2c-1.4-0.5-3.2-1.2-4.7-1.6c-0.7-0.2-1.7-0.5-2.5-0.7c-3.8-0.9-8.6-1.5-13-1.5
									c-4.5,0-9.1,0.5-13,1.5c-0.7,0.2-1.8,0.4-2.6,0.7c-1.4,0.4-3.2,1.1-4.7,1.7c-0.7,0.2-1.7,0.7-2.3,1.1
									C404.6,279.7,403.8,280.2,403.2,280.5z"/>
							</g>
							<g>
								<path class="st60" d="M452.3,280.5l11.1,6.4l11.1,6.4l11.1,6.4l11.1,6.4l11.1,6.4l11.1,6.4l11.1,6.4l11.1,6.4l11.1,6.4
									l11.1,6.4c-0.3-0.2-0.7-0.2-1,0l-110.9-64C451.7,280.4,452,280.4,452.3,280.5z"/>
							</g>
							<g>
								<path class="st60" d="M119.1,445.6l28.4-16.5l28.4-16.5l28.4-16.5l28.4-16.5l28.4-16.5l28.4-16.5l28.4-16.5l28.4-16.5
									l28.4-16.5l28.4-16.5c0.3-0.2,0.7-0.2,1,0L120.1,445.7C119.6,445.5,119.3,445.5,119.1,445.6z"/>
							</g>
							<g>
								<path class="st60" d="M562.2,344.6c13.1,7.6,13.2,19.8,0.2,27.3C467.7,426.9,373,482,278.2,537.1c-13,7.6-34.1,7.6-47.2,0
									c-37-21.3-73.9-42.7-110.9-64c-13.1-7.6-13.2-19.8-0.2-27.3c94.7-55.1,189.5-110.1,284.2-165.2c13-7.6,34.1-7.6,47.2,0
									C488.3,301.9,525.3,323.3,562.2,344.6z"/>
							</g>
							<path class="st61" d="M575.3,361.6c-0.2-1.6-0.5-2.7-0.7-3.2c-0.2-0.7-0.5-1.7-1.2-3.2c-0.4-0.9-0.7-1.5-1.4-2.6
								c-0.4-0.7-1-1.5-1.6-2.1c-0.7-0.7-1.6-1.7-2.3-2.4c-0.9-0.8-2.2-1.7-3.2-2.4c-0.5-0.3-1.2-0.7-1.7-1.1c-0.3-0.2-0.7-0.2-1,0
								c13.1,7.6,13.2,19.8,0.2,27.3L278.2,537.1c-13,7.6-34.1,7.6-47.2,0l0,0l-110.9-64c-13.1-7.6-13.2-19.8-0.2-27.3
								c-0.3-0.2-0.7-0.2-1,0c-1,0.6-2.3,1.5-3.2,2.2c-0.5,0.3-1.1,0.8-1.5,1.2c-0.7,0.6-1.5,1.4-2.1,2.1c-1.1,1.2-1.7,2.2-2.1,2.7
								c-1.4,2.3-2,4.1-2.4,5.6c-0.2,0.9-0.4,1.9-0.6,3.1c-0.2,1-0.2,1.7-0.2,2.8v1.6c0,1,0.1,2.1,0.4,3.1c-0.2-1-0.4-2.1-0.4-3.1
								c0,2.8,0.5,4.9,0.8,6.3c0.7,2.7,2,4.7,2.4,5.3c0.5,0.7,1.2,1.7,1.7,2.2c0.7,0.8,1.7,1.8,2.5,2.6c0.8,0.7,2.2,1.7,3.1,2.3
								c0.5,0.3,1.2,0.7,1.7,1.1l0,0L230,551c2.5,1.4,4.5,2.2,4.5,2.2c1.4,0.5,3.2,1.2,4.7,1.6c0.7,0.2,1.7,0.5,2.5,0.7
								c3.8,0.9,8.6,1.5,13,1.5c4.5,0,9.1-0.5,13-1.5c0.7-0.2,1.8-0.4,2.6-0.7c1.4-0.4,3.2-1.1,4.7-1.7c0.7-0.2,1.7-0.7,2.3-1.1
								c0.6-0.3,1.4-0.7,2-1.1c0.3-0.2,0.7-0.6,0.9-1.2c-0.2,0.6-0.5,1-0.9,1.2l113.6-66l170.5-99.1c1-0.6,2.2-1.4,3.2-2.1
								c0.9-0.7,2-1.7,2.8-2.4c0.6-0.5,1.2-1.3,1.7-1.9c0.5-0.7,1.2-1.6,1.6-2.3c0.7-1.2,1.7-3.3,2.1-4.8c0.2-0.9,0.5-1.7,0.7-3.1
								c0.2-1.2,0.2-2.1,0.2-3.1l0,0v-1.6C575.5,363.6,575.5,362.7,575.3,361.6z"/>
						</g>
					</g>
				</g>
			</g>
			<g>
				<g>
					<g>
						<path class="st61" d="M495.3,327.9c1.3,0.7,1.3,2,0,2.8c-1.3,0.7-3.5,0.7-4.8,0l-24.1-13.9c-1.3-0.7-1.3-2,0-2.8
							c1.3-0.7,3.5-0.7,4.8,0L495.3,327.9z"/>
					</g>
					<g>
						<path class="st61" d="M457.2,305.9c1.3,0.7,1.3,2,0,2.8c-1.3,0.7-3.5,0.7-4.8,0s-1.3-2,0-2.8
							C453.7,305.2,455.8,305.2,457.2,305.9z"/>
					</g>
				</g>
				<g>
					<g>
						<path class="st62" d="M195.8,481.8c6.7,3.8,6.7,10.1,0.1,13.9c-6.7,3.8-17.4,3.8-24.1,0c-6.7-3.8-6.7-10.1-0.1-13.9
							C178.3,477.9,189.2,477.9,195.8,481.8z"/>
						<path class="st61" d="M173.4,483.4c6.7-3.8,17.4-3.8,24.1,0c0.7,0.4,1.2,0.8,1.8,1.2c-0.8-1.1-2-2.1-3.5-2.9
							c-6.7-3.8-17.5-3.8-24.1,0c-6,3.5-6.5,8.8-1.7,12.7C167.2,490.8,168.3,486.4,173.4,483.4z"/>
					</g>
					<g>
						<g>
							<g>
								<path class="st17" d="M531.8,375.1c2,1.2,2,3,0,4.2L287.1,521.6c-2,1.2-5.2,1.2-7.2,0l-137.7-79.5c-2-1.2-2-3,0-4.2
									l244.8-142.3c2-1.2,5.2-1.2,7.2,0L531.8,375.1z"/>
							</g>
						</g>
					</g>
					<g>
						<g>
							<g>
								<path class="st63" d="M330.4,493.6l-45.7,26.6c-0.7,0.4-1.8,0.4-2.5,0l-137.7-79.5c-0.7-0.4-0.7-1.1,0-1.5l45.7-26.6
									L330.4,493.6z"/>
							</g>
							<g>
								<polygon class="st64" points="442.7,428.4 375,467.7 234.8,386.8 302.5,347.4 								"/>
							</g>
							<g>
								<polygon class="st65" points="364.5,473.8 341,487.4 200.8,406.5 224.3,392.9 								"/>
							</g>
							<g>
								<path class="st66" d="M529.5,376.5c0.7,0.4,0.7,1.1,0,1.4l-76.3,44.3L313,341.2l76.3-44.3c0.7-0.4,1.8-0.4,2.5,0
									L529.5,376.5z"/>
							</g>
						</g>
					</g>
				</g>
			</g>
		</g>
		<g>
			<g>
				<path class="st67" d="M292.9,405.8c-2.2-0.7-4.5,0-5.8,1.1l2,4.4c1.2,0.4,2.6,0.7,4.2,0.9c3.7,0.3,5.9-1.3,5.7-2.2
					C298.8,409,296.4,406.9,292.9,405.8z"/>
				<path class="st67" d="M288.7,406.6L288.7,406.6c0.5,0.6,1.7,1.1,2.4,0.7l9.2-3.7c0.7-0.3,1.2-0.8,0.7-1.4l0,0
					c-0.5-0.6-1.5-0.9-2.4-0.7l-9.2,3.7C288.7,405.5,288.2,406,288.7,406.6z"/>
				<path class="st67" d="M308.1,406.1L308.1,406.1c0.4-0.5-0.1-1.2-0.9-1.6l-6.9-2.8c-0.9-0.3-2.1-0.2-2.5,0.3l0,0
					c-0.4,0.5,0.1,1.2,0.9,1.6l7.1,2.8C306.7,406.8,307.7,406.6,308.1,406.1z"/>
				<path class="st67" d="M312.2,412.3L312.2,412.3c0.8-0.2,1.2-0.8,0.7-1.4l-4.7-5.7c-0.5-0.6-1.6-0.9-2.4-0.7l0,0
					c-0.8,0.2-1.2,0.8-0.7,1.4l4.7,5.7C310.3,412.2,311.4,412.6,312.2,412.3z"/>
				<path class="st67" d="M303,404.5c-1.4,0.4-8.3,2.3-4.7,4.2c3.6,1.8-7.3,0.3-7.3,0.3l1.2-4.2C292.1,404.9,297.8,402,303,404.5z"
					/>
				<polygon class="st67" points="291.8,404.9 293.4,410.7 289,411.1 286.4,405.3 				"/>
				<path class="st67" d="M285.2,404.8l3.3,7.3l-3.4,0.2l-3.3-7.3L285.2,404.8z"/>
				<path class="st67" d="M341.8,434.1c1.4,1.3,0.6,2.9-0.9,3.9l-7-0.7c-0.8-0.7-1.5-1.6-1.8-2.6c-0.9-2.4,1.2-4,2.7-4
					C336.1,430.6,339.6,431.9,341.8,434.1z"/>
				<path class="st67" d="M341,436.9L341,436.9c-1-0.2-1.8-0.9-1.4-1.5l4.5-6.4c0.3-0.5,1.1-0.9,2.1-0.7l0,0c1,0.2,1.6,0.9,1.4,1.5
					l-4.5,6.4C342.7,436.7,341.9,437.2,341,436.9z"/>
				<path class="st67" d="M339.4,424.2L339.4,424.2c0.7-0.3,1.8-0.1,2.5,0.4l5.3,4.2c0.7,0.5,0.4,1.2-0.3,1.6l0,0
					c-0.7,0.3-1.8,0.2-2.5-0.4l-5.2-4.2C338.5,425.2,338.6,424.5,339.4,424.2z"/>
				<path class="st67" d="M329.4,422.3L329.4,422.3c0.2-0.6,1.1-0.9,2.1-0.7l9.1,2.3c0.9,0.2,1.6,0.9,1.4,1.5l0,0
					c-0.2,0.6-1.1,0.9-2.1,0.7l-9.1-2.3C329.9,423.5,329.2,422.8,329.4,422.3z"/>
				<path class="st67" d="M342.4,427.3c-0.4,1-2.5,5.7-5.7,3.6c-3.2-2.2,0.4,4.8,0.4,4.8l6.2-1.3
					C343.3,434.5,346.9,430.4,342.4,427.3z"/>
				<polygon class="st67" points="343.3,434.7 334.3,434.3 334.2,437.2 343.3,438.2 				"/>
				<path class="st67" d="M344.2,438.9l-11.6-1.2l0.1,2.2l11.6,1.2L344.2,438.9z"/>
			</g>
			<g>
				<path class="st67" d="M340.3,402.9L340.3,402.9l22.5-16.7c0.1,0.1,0.2,0.1,0.3,0.2c6.9,4,5.3,9.7,2.7,12.5
					c-0.5-0.3-1.1-0.5-1.7-0.6c-0.3,0-0.7,0-0.9,0s-0.5,0.1-0.8,0.2l0,0c-1.2,0.2-2.1,0.9-2.6,1.4c-0.2,0.4,0.2,0.5,0.7,0.3
					c0.2-0.2,0.7-0.4,1.1-0.6c0.2-0.1,0.2-0.1,0.4-0.2h0.1l0,0c1.2-0.5,2.6-0.5,3.1-0.2c0.1,0.1,0.1,0.1,0.2,0.2l0,0
					c0.2,0.5-0.5,1.2-1.7,1.7c-1.4,0.6-2.9,0.7-3.5,0.3c-3.6,1.3-8.2,1.9-12.2,1.2l-1.6,1.2l-4.9-0.8l1.7,6.5l5.7-1.1
					c0.9,1.1,1.7,2.4,2.7,3.9c1.9,3.2-0.2,6.8-2.5,11.2l0,0c-6.9,0.7-16.9-3.2-25.3-8.2l2.6-1.9l1.7,1l7.8-6.7l5.5-1.2L340.3,402.9z
					 M340.2,402.9l-5.7-0.2l-1.1,3.7l-9.2,5.9l1.7,1l-2.6,1.9c-8.4-5.1-15.2-11.3-15.6-15.4l0,0c6.3-2,11.4-3.8,16.6-3
					c2.4,0.3,4.5,0.7,6.2,1.2l0,0l-0.9,3.8l10,0.3l-1.9-3.2l0,0l1.6-1.2c-1.5-2.6-1.3-5.6,0.3-8.1c-0.7-0.3-0.7-1.3,0.1-2.3
					c0.7-0.8,1.7-1.4,2.4-1.3l0,0l0,0c0.1,0,0.2,0,0.3,0.1c0.7,0.2,0.7,1.3,0,2.3c-0.3,0.4-0.7,0.8-1.2,1.1c-0.2,0.4,0,0.7,0.5,0.5
					c0.9-0.6,1.2-0.7,2.1-2.2c0.3-0.8,0.5-1.6-1-2.2l0,0c3.7-2.6,12.2-3.9,19.8,0.3L340.2,402.9z"/>
				<path class="st68" d="M360.9,399.7c-0.1,0.2-1.2,0.2-1.2,0.2l2.3-6.9l-16-4.8l-4.1,1.9c-0.5,0.2,0-0.9,0.5-1.1l3.1-1.4
					c0.2-0.1,0.3-0.1,0.5,0l16.7,5.1l0,0c0.2,0.1,0.4,0.2,0.3,0.4L360.9,399.7z"/>
			</g>
			<g>
				<polygon class="st69" points="294,417.9 323.2,434.8 345.4,418.3 316.1,401.4 				"/>
				<g>
					<g>
						<defs>
							<polygon id="SVGID_2_" points="294,417.9 323.2,434.8 345.4,418.3 316.1,401.4 							"/>
						</defs>
						<clipPath id="SVGID_3_">
							<use xlink:href="#SVGID_2_"  style="overflow:visible;"/>
						</clipPath>
						<g class="st70">
							
								<radialGradient id="SVGID_4_" cx="540.0876" cy="110.3082" r="97.1657" gradientTransform="matrix(0.5915 0.3424 0.4332 -0.3221 -28.8532 254.8691)" gradientUnits="userSpaceOnUse">
								<stop  offset="0" style="stop-color:#606384"/>
								<stop  offset="1" style="stop-color:#34394E"/>
							</radialGradient>
							<polygon class="st71" points="267.9,402.9 349.3,449.9 408.8,405.7 327.5,358.6 							"/>
						</g>
					</g>
				</g>
				<path class="st67" d="M295.2,418.6l26.8,15.5l21.2-15.8l-26.8-15.5L295.2,418.6z"/>
				<g>
					<path class="st72" d="M306.6,411.9l23.6,13.7l1.2-0.9L307.8,411L306.6,411.9z"/>
					<g>
						<path class="st72" d="M304.6,413.4l23.6,13.7l1.2-0.9l-23.6-13.7L304.6,413.4z"/>
						<path class="st72" d="M302.6,414.9l23.6,13.7l1.2-0.9l-23.6-13.6L302.6,414.9z"/>
						<path class="st72" d="M300.6,416.4l23.6,13.7l1.2-0.9l-23.6-13.7L300.6,416.4z"/>
					</g>
				</g>
				<path class="st72" d="M309.6,409.8l7.4,4.3l7.2-5.4l-7.4-4.3L309.6,409.8z"/>
				<g>
					<path class="st67" d="M315.5,410.3L315.5,410.3l4.1-3.1c0,0,0,0,0.1,0c1.2,0.7,1,1.7,0.5,2.2c-0.1-0.1-0.2-0.1-0.3-0.1
						c-0.1,0-0.1,0-0.2,0c-0.1,0-0.1,0-0.2,0l0,0c-0.2,0.1-0.4,0.2-0.5,0.2c-0.1,0.1,0,0.1,0.2,0.1c0.1,0,0.1-0.1,0.2-0.1h0.1l0,0
						l0,0c0.2-0.1,0.5-0.1,0.6,0l0,0l0,0c0,0.1-0.1,0.2-0.3,0.3c-0.2,0.1-0.5,0.2-0.7,0.1c-0.7,0.2-1.5,0.3-2.2,0.2l-0.2,0.2
						L315.5,410.3l0.4,1.2l1-0.2c0.2,0.2,0.3,0.4,0.5,0.7c0.3,0.6-0.1,1.2-0.4,2l0,0c-1.2,0.1-3.1-0.6-4.6-1.5l0.5-0.3l0.3,0.2
						l1.4-1.2l1-0.2L315.5,410.3z M315.5,410.3h-1l-0.2,0.7l-1.7,1.1l0.3,0.2l-0.5,0.3c-1.5-0.9-2.7-2.1-2.8-2.8l0,0
						c1.2-0.3,2.1-0.7,3-0.6c0.4,0.1,0.8,0.2,1.2,0.2l0,0l-0.2,0.7l1.8,0.1l-0.3-0.6l0,0l0.2-0.2c-0.2-0.5-0.2-1,0.1-1.5
						c-0.1-0.1-0.1-0.2,0-0.4c0.1-0.2,0.3-0.2,0.4-0.2l0,0l0,0c0,0,0,0,0.1,0c0.2,0.1,0.2,0.2,0,0.4c-0.1,0.1-0.2,0.2-0.2,0.2
						c0,0.1,0,0.1,0.1,0.1c0.2-0.1,0.2-0.2,0.4-0.4c0.1-0.2,0.1-0.3-0.2-0.4l0,0c0.7-0.5,2.2-0.7,3.6,0.1L315.5,410.3z"/>
					<path class="st68" d="M319.2,409.7c0,0.1-0.2,0-0.2,0l0.4-1.2l-2.9-0.9l-0.7,0.3c-0.1,0.1,0-0.2,0.1-0.2l0.6-0.2h0.1l3.1,0.9
						l0,0c0.1,0,0.1,0.1,0.1,0.1L319.2,409.7z"/>
				</g>
				<polygon class="st73" points="309.6,409.8 317.1,414 324.3,408.6 316.9,404.4 				"/>
				<g>
					<path class="st72" d="M324.8,410.5l14.5,8.4l1.2-0.9l-14.5-8.4L324.8,410.5z"/>
					<g>
						<path class="st72" d="M322.7,412l14.5,8.4l1.2-0.9l-14.5-8.4L322.7,412z"/>
						<path class="st72" d="M320.7,413.5l14.5,8.4l1.2-0.9l-14.5-8.4L320.7,413.5z"/>
						<path class="st72" d="M318.7,415l14.5,8.4l1.2-0.9l-14.5-8.4L318.7,415z"/>
					</g>
				</g>
			</g>
			<g>
				<path class="st74" d="M331.1,429l-1.7-4c-0.4-1,0.2-1.9,1.7-2.1l0,0c1.5-0.2,3.1,0.5,3.7,1.5l0.6,1.4L331.1,429z"/>
				<path class="st67" d="M335.8,432.8L335.8,432.8c-1.1,0.1-2.3-0.3-2.7-1.1l-2.9-6.6c-0.3-0.7,0.2-1.4,1.2-1.6l0,0
					c1.1-0.1,2.2,0.3,2.7,1.1l2.9,6.6C337.4,432,336.9,432.7,335.8,432.8z"/>
				<path class="st74" d="M301.9,412l6.2,0.7c1.6,0.2,2.9-0.4,3-1.3l0,0c0.1-1-1.2-2-2.7-2.2l-2.2-0.2L301.9,412z"/>
				<path class="st67" d="M295.5,409.5L295.5,409.5c-0.1,0.7,0.8,1.5,2,1.6l10.3,1.1c1.2,0.1,2.2-0.2,2.2-1l0,0
					c0.1-0.7-0.8-1.4-2-1.6l-10.3-1.1C296.6,408.3,295.6,408.8,295.5,409.5z"/>
			</g>
		</g>
		<g>
			<path class="st75" d="M455.2,404l18-10c1.2-0.7,3.3-0.6,4.7,0.3s1.6,2,0.4,2.6l-18.7,10.4c-2.1,1.2-7.2,0.9-9.7-0.5l-38.4-21.7
				c-2.6-1.5-2.4-4-0.3-5.2l32.1-17.9c2-1.1,5.6-0.9,7.9,0.3l28.5,16.1c2.6,1.5,3.8,3.9,1.7,5.1l-31.8,17.7c0,0-4.9,2.5,0.3,5.5"/>
			<g>
				<path class="st76" d="M473.1,394c1.2-0.7,3.3-0.6,4.7,0.3l-7.7-4.4l-20.5,11.4c0,0-4.9,2.5,0.3,5.5l5.2-2.8L473.1,394z"/>
				<path class="st75" d="M452.6,408.3"/>
			</g>
			<path class="st77" d="M461.9,374.8l-3.5,2l-3.6,2c0,0,4,2.8,5.9,1.8c2.4-1.3-1.1-2.6-1.5-3.2c0.9,0.3,3.1,1.5,4.7,0.6
				C465.9,376.9,461.9,374.8,461.9,374.8z"/>
			<path class="st77" d="M453.8,375.9c-1.2,0.7-3.3,0.6-4.7-0.3s-1.6-2-0.4-2.6l2.8-1.6c1.2-0.7,3.3-0.6,4.7,0.3s1.6,2,0.4,2.6
				L453.8,375.9z"/>
			<path class="st77" d="M440.2,369.1c-0.4,0.7-0.2,1.4,0.8,2c1.4,0.8,3.3,0.8,4.5,0.1l4.8-2.7l-2.1-1.2"/>
			<path class="st77" d="M455.2,404l18-10c1.2-0.7,3.3-0.6,4.7,0.3s1.6,2,0.4,2.6l-18.7,10.4c-2.1,1.2-7.2,0.9-9.7-0.5l-38.4-21.7
				c-2.6-1.5-2.4-4-0.3-5.2l32.1-17.9c2-1.1,5.6-0.9,7.9,0.3l28.5,16.1c2.6,1.5,3.8,3.9,1.7,5.1l-31.8,17.7c0,0-4.9,2.5,0.3,5.5"/>
			<path class="st77" d="M471.9,382.9c1.2-0.7,1-1.8-0.3-2.6c-1.4-0.8-3.4-0.9-4.6-0.2c-0.8,0.4,3.3,3.8,2.2,4.4
				c-1.2,0.7-3.3,0.6-4.6-0.2c-1.4-0.8-1.5-1.9-0.3-2.6"/>
			<line class="st77" x1="436.1" y1="373" x2="442.3" y2="376.5"/>
			<line class="st77" x1="433.5" y1="374.5" x2="443.8" y2="380.3"/>
			<line class="st77" x1="430.9" y1="375.9" x2="440.2" y2="381.1"/>
			<line class="st77" x1="438.7" y1="388.9" x2="444.9" y2="392.4"/>
			<line class="st77" x1="436.1" y1="390.3" x2="446.4" y2="396.2"/>
			<line class="st77" x1="433.5" y1="391.8" x2="442.8" y2="397"/>
			<line class="st77" x1="451.5" y1="381.8" x2="458.7" y2="385.8"/>
			<line class="st77" x1="449" y1="383.2" x2="459.3" y2="389"/>
			<line class="st77" x1="443.8" y1="386.1" x2="454.1" y2="391.9"/>
			<line class="st77" x1="446.4" y1="384.6" x2="455.7" y2="389.9"/>
			<line class="st77" x1="425.8" y1="378.8" x2="433" y2="382.8"/>
			<line class="st77" x1="423.2" y1="380.2" x2="433.5" y2="386"/>
			<line class="st77" x1="418.1" y1="383.1" x2="428.4" y2="388.9"/>
			<line class="st77" x1="420.7" y1="381.6" x2="429.9" y2="386.9"/>
		</g>
		<g>
			<g id="Artboard">
			</g>
			<g>
				<path class="st78" d="M375,362.8c-0.8,0.5-2.1,0.4-3.1-0.1l-13.3-7.7c-0.9-0.5-1-1.4-0.3-1.8l19.5-12c0.8-0.5,2.1-0.4,3.1,0.1
					l13.3,7.7c0.9,0.5,1,1.4,0.3,1.8L375,362.8z"/>
				<path class="st78" d="M393.3,373.5c-0.8,0.5-2.1,0.4-3.1-0.1l-13.3-7.7c-0.9-0.5-1-1.4-0.3-1.8l19.5-12c0.8-0.5,2.1-0.4,3.1,0.1
					l13.3,7.7c0.9,0.5,1,1.4,0.3,1.8L393.3,373.5z"/>
				<path class="st78" d="M356.7,352.2c-0.8,0.5-2.1,0.4-3.1-0.1l-13.3-7.7c-0.9-0.5-1-1.4-0.3-1.8l19.5-12c0.8-0.5,2.1-0.4,3.1,0.1
					l13.3,7.7c0.9,0.5,1,1.4,0.3,1.8L356.7,352.2z"/>
				<path class="st79" d="M371.8,338.4c0.7,0.4,0.8,1,0.2,1.4c-0.6,0.4-1.6,0.3-2.3-0.1s-0.8-1-0.2-1.4
					C370.1,338,371.1,338,371.8,338.4z"/>
				<path class="st80" d="M367.6,336c0.7,0.4,0.8,1,0.2,1.4c-0.6,0.4-1.6,0.3-2.3-0.1c-0.7-0.4-0.8-1-0.2-1.4
					C365.9,335.6,367,335.6,367.6,336z"/>
				<path class="st81" d="M363.5,333.6c0.7,0.4,0.8,1,0.2,1.4c-0.6,0.4-1.6,0.3-2.3-0.1c-0.7-0.4-0.8-1-0.2-1.4
					C361.8,333.2,362.8,333.2,363.5,333.6z"/>
				<path class="st82" d="M414.4,349.5c2.8-1.7,3.1-4.3,1.2-6.6c2.4-4.2,0.6-7.5-3.9-10.1c-4.2-2.5-9.9-3.4-14.7-2.6
					c-1.8-2.3-6.8-3.1-9.5-1.6c-3.4-1-7.3-0.9-9.8,0.7c-3.1,1.9-2.6,5.2,1.1,7.4l22.3,13C401.1,349.7,408.9,352.9,414.4,349.5z"/>
				<path class="st17" d="M411.7,332.8c-4.2-2.5-9.9-3.4-14.7-2.6c-1.8-2.3-6.8-3.1-9.5-1.6c-3.4-1-7.3-0.9-9.8,0.7
					c-2.9,1.8-2.7,4.9,0.6,7l38.1,1.4C415.7,335.9,414.1,334.2,411.7,332.8z"/>
				<path class="st79" d="M390.1,349.1c0.7,0.4,0.8,1,0.2,1.4c-0.6,0.4-1.6,0.3-2.3-0.1c-0.7-0.4-0.8-1-0.2-1.4
					C388.4,348.6,389.4,348.7,390.1,349.1z"/>
				<path class="st80" d="M385.9,346.7c0.7,0.4,0.8,1,0.2,1.4s-1.6,0.3-2.3-0.1c-0.7-0.4-0.8-1-0.2-1.4
					C384.2,346.2,385.2,346.3,385.9,346.7z"/>
				<path class="st81" d="M381.8,344.2c0.7,0.4,0.8,1,0.2,1.4c-0.6,0.4-1.6,0.3-2.3-0.1s-0.8-1-0.2-1.4S381.1,343.8,381.8,344.2z"/>
				<path class="st79" d="M408.3,359.7c0.7,0.4,0.8,1,0.2,1.4c-0.6,0.4-1.6,0.3-2.3-0.1c-0.7-0.4-0.8-1-0.2-1.4
					S407.7,359.3,408.3,359.7z"/>
				<path class="st80" d="M404.2,357.3c0.7,0.4,0.8,1,0.2,1.4s-1.6,0.3-2.3-0.1s-0.8-1-0.2-1.4C402.5,356.9,403.5,356.9,404.2,357.3
					z"/>
				<path class="st81" d="M400,354.9c0.7,0.4,0.8,1,0.2,1.4c-0.6,0.4-1.6,0.3-2.3-0.1s-0.8-1-0.2-1.4S399.3,354.5,400,354.9z"/>
				<polygon class="st83" points="343.6,340.4 360.2,350.1 358.8,350.9 342.2,341.2 				"/>
				<polygon class="st83" points="347.1,338.2 363.7,347.9 362.3,348.8 345.7,339.1 				"/>
				<polygon class="st83" points="350.6,336.1 367.2,345.8 365.8,346.6 349.2,336.9 				"/>
				<polygon class="st83" points="354,333.9 370.7,343.6 369.3,344.5 352.7,334.8 				"/>
				<polygon class="st83" points="361.9,351 378.5,360.7 377.1,361.6 360.5,351.9 				"/>
				<polygon class="st83" points="365.4,348.9 382,358.6 380.6,359.4 364,349.7 				"/>
				<polygon class="st83" points="368.8,346.7 385.4,356.4 384.1,357.3 367.4,347.6 				"/>
				<polygon class="st83" points="372.3,344.6 388.9,354.3 387.5,355.1 370.9,345.4 				"/>
				<polygon class="st83" points="380.1,361.7 396.8,371.3 395.4,372.2 378.7,362.5 				"/>
				<polygon class="st83" points="383.6,359.5 400.2,369.2 398.8,370.1 382.2,360.4 				"/>
				<polygon class="st83" points="387.1,357.4 403.7,367.1 402.3,367.9 385.7,358.2 				"/>
				<polygon class="st83" points="390.6,355.2 407.2,364.9 405.8,365.8 389.2,356.1 				"/>
			</g>
		</g>
		<g>
			<polygon class="st84" points="233.1,410.3 238.2,409.8 237.9,408 232.9,408.5 232.2,404.3 230.1,404.6 230.7,408.8 225.7,409.3 
				226,411.1 231,410.6 231.6,414.8 233.8,414.5 			"/>
		</g>
		<polygon class="st85" points="334.2,463.4 321.2,465.2 320.3,461.8 316.5,462.3 318.2,468.5 319.3,468.4 319.3,468.4 334.9,466.1 
					"/>
		<g id="XMLID_593_">
			<path id="XMLID_621_" d="M233,462.4l-1.3-0.6l0,0l-4.5,1.5l-0.4,0.6l2.2,1l-0.7,0.8l1.3,0.6l0.7-0.8l0.5,0.3l0.6-0.7l-0.5-0.3
				L233,462.4L233,462.4z M229.6,464.2l-1.2-0.5l1.9-0.6l0.3-0.1l0,0L229.6,464.2z"/>
			<path id="XMLID_639_" d="M236,463.7c-0.6-0.3-1.1-0.3-1.7-0.2c-0.6,0.1-1.1,0.4-1.5,0.9l-0.9,1.1c-0.4,0.5-0.6,0.9-0.5,1.4
				c0.1,0.4,0.5,0.8,1,1.1s1.1,0.3,1.7,0.2c0.6-0.1,1.1-0.4,1.5-0.9l0.9-1.1c0.4-0.5,0.6-0.9,0.4-1.4
				C236.9,464.3,236.5,464,236,463.7z M234.3,466.6c-0.2,0.3-0.4,0.4-0.7,0.5c-0.2,0.1-0.4,0.1-0.6,0c-0.2-0.1-0.3-0.2-0.3-0.4
				c0-0.2,0.1-0.4,0.3-0.6l1-1.2c0.2-0.2,0.4-0.4,0.7-0.5s0.4-0.1,0.6,0c0.2,0.1,0.3,0.2,0.3,0.4c0,0.2-0.1,0.4-0.3,0.6L234.3,466.6
				L234.3,466.6z"/>
			<polygon id="XMLID_640_" points="241.6,466.9 236.3,468.8 236.7,469.3 242,467.4 			"/>
			<path id="XMLID_643_" d="M241.1,469.6c-0.1-0.3-0.3-0.5-0.7-0.7c-0.4-0.2-0.8-0.2-1.1-0.2c-0.3,0.1-0.6,0.2-0.8,0.4l-0.2,0.2
				c-0.2,0.2-0.3,0.5-0.2,0.7c0.1,0.3,0.3,0.5,0.7,0.7s0.8,0.2,1.1,0.2c0.3-0.1,0.6-0.2,0.8-0.4l0.2-0.2
				C241.1,470.1,241.1,469.9,241.1,469.6z M239.9,470.2c-0.1,0.1-0.2,0.2-0.3,0.2s-0.2,0-0.4-0.1c-0.1-0.1-0.2-0.1-0.2-0.2
				c0-0.1,0-0.2,0.1-0.3l0.2-0.2c0.1-0.1,0.2-0.2,0.3-0.2s0.2,0,0.4,0c0.1,0.1,0.2,0.1,0.2,0.2c0,0.1,0,0.2-0.1,0.3L239.9,470.2z"/>
			<path id="XMLID_646_" d="M239.2,467.5c0.3-0.1,0.6-0.2,0.8-0.4l0.2-0.2c0.2-0.2,0.3-0.5,0.2-0.7c-0.1-0.3-0.3-0.5-0.7-0.7
				c-0.4-0.2-0.8-0.2-1.1-0.2c-0.3,0.1-0.6,0.2-0.8,0.4l-0.2,0.2c-0.2,0.2-0.3,0.5-0.2,0.7c0.1,0.3,0.3,0.5,0.7,0.7
				C238.5,467.5,238.9,467.6,239.2,467.5z M238.4,466.3l0.2-0.2c0.1-0.1,0.2-0.2,0.3-0.2c0.1,0,0.2,0,0.4,0s0.2,0.1,0.2,0.2
				c0,0.1,0,0.2-0.1,0.3l-0.2,0.2c-0.1,0.1-0.2,0.2-0.3,0.2s-0.2,0-0.4,0s-0.2-0.1-0.2-0.2C238.3,466.5,238.4,466.4,238.4,466.3z"/>
		</g>
		<g id="XMLID_577_">
			<path id="XMLID_581_" class="st86" d="M224.9,477.4c-4.1-1.9-7-5-8-8.5c-1.1-3.5-0.2-7.1,2.4-10.2c2.6-3,6.7-5.1,11.5-5.9
				c4.8-0.8,9.7-0.1,13.8,1.8c4.1,1.9,7,5,8,8.5c1.1,3.5,0.2,7.1-2.4,10.2c-2.6,3-6.7,5.2-11.5,5.9C233.9,480,229,479.4,224.9,477.4
				z M242.8,456.7c-7-3.3-16.2-1.8-20.7,3.4s-2.4,12,4.6,15.3c7,3.3,16.2,1.8,20.7-3.4C251.8,466.8,249.8,460,242.8,456.7z"/>
		</g>
		<g id="XMLID_578_">
			<path id="XMLID_580_" class="st18" d="M235,479.5l0-2.5c3,0,5.9-0.7,8.4-2c1.6-0.8,3-1.9,4-3.1c0.6-0.7,1.2-1.5,1.5-2.3
				c1.1-2.3,1.1-4.8,0-7.2c-1.1-2.4-3.2-4.4-6.1-5.8l1.8-2.1c1.8,0.8,3.3,1.9,4.6,3.1c1.2,1.2,2.2,2.5,2.9,3.9
				c1.3,2.8,1.3,5.9,0,8.7c-0.5,1-1.1,2-1.9,2.9c-1.3,1.5-3,2.8-4.9,3.8C242.2,478.7,238.6,479.5,235,479.5z"/>
		</g>
	</g>
</g>
</svg>
