<?xml version="1.0" encoding="utf-8"?>
<!-- Generator: Adobe Illustrator 21.1.0, SVG Export Plug-In . SVG Version: 6.00 Build 0)  -->
<svg version="1.1" id="Layer_1" xmlns="http://www.w3.org/2000/svg" xmlns:xlink="http://www.w3.org/1999/xlink" x="0px" y="0px"
	 viewBox="0 0 612 625" style="enable-background:new 0 0 612 625;" xml:space="preserve">
<style type="text/css">
	.st0{fill:#6CCEEF;}
	.st1{clip-path:url(#SVGID_2_);}
	.st2{opacity:5.000000e-02;}
	.st3{fill:#F6AB6F;stroke:#36518B;stroke-width:3;stroke-linecap:round;stroke-linejoin:round;}
	.st4{fill:none;stroke:#36518B;stroke-width:3;stroke-linecap:round;stroke-linejoin:round;}
	.st5{clip-path:url(#SVGID_4_);}
	.st6{fill:#FFFFFF;stroke:#36518B;stroke-width:3;stroke-linecap:round;stroke-linejoin:round;}
	.st7{fill:#F6AB6F;}
	.st8{fill:#F06AA7;stroke:#36518B;stroke-width:3;stroke-linecap:round;stroke-linejoin:round;}
	.st9{fill:#36518B;stroke:#36518B;stroke-width:3;stroke-linecap:round;stroke-linejoin:round;}
	.st10{fill:#FFFFFF;}
	.st11{fill:#65C3EE;stroke:#36518B;stroke-width:3;stroke-linecap:round;stroke-linejoin:round;}
	.st12{fill:#A6D495;stroke:#36518B;stroke-width:3;stroke-linecap:round;stroke-linejoin:round;}
	.st13{fill:#FCF8F3;stroke:#36518B;stroke-width:3;stroke-linecap:round;stroke-linejoin:round;}
	.st14{fill:#FCF8F3;}
	.st15{fill:#36518B;}
	.st16{fill:#61C3AE;stroke:#36518B;stroke-width:3;stroke-linecap:round;stroke-linejoin:round;}
	.st17{fill:#DCDEE0;stroke:#36518B;stroke-width:3;stroke-linecap:round;stroke-linejoin:round;}
	.st18{fill:none;stroke:#F6AB6F;stroke-width:3;stroke-linecap:round;stroke-linejoin:round;}
	.st19{fill:none;stroke:#36518B;stroke-width:3;stroke-linecap:round;stroke-linejoin:round;stroke-dasharray:7.93,7.93;}
	.st20{fill:#FED4A3;stroke:#36518B;stroke-width:3;stroke-linecap:round;stroke-linejoin:round;}
	.st21{fill:#F69D9E;stroke:#36518B;stroke-width:3;stroke-linecap:round;stroke-linejoin:round;}
	.st22{fill:none;stroke:#36518B;stroke-width:3;stroke-linecap:round;stroke-linejoin:round;stroke-dasharray:8;}
	.st23{fill:#FDF6B0;stroke:#36518B;stroke-width:3;stroke-linecap:round;stroke-linejoin:round;}
	.st24{font-family:'Arial-BoldMT';}
	.st25{font-size:18.76px;}
	.st26{fill:none;stroke:#36518B;stroke-width:3;stroke-linecap:round;stroke-linejoin:round;stroke-dasharray:0,5;}
	.st27{fill:none;stroke:#36518B;stroke-width:3;stroke-linecap:round;stroke-linejoin:round;stroke-dasharray:8.95,8.95;}
	.st28{fill:none;stroke:#36518B;stroke-width:3;stroke-linecap:round;stroke-linejoin:round;stroke-dasharray:8.04,8.04;}
	.st29{fill:none;stroke:#36518B;stroke-width:3;stroke-linecap:round;stroke-linejoin:round;stroke-dasharray:8.43,8.43;}
</style>
<title>id</title>
<path class="st0" d="M612,312.5c0,167.9-138.1,306-306,306S0,480.4,0,312.5s138.1-306,306-306c166.1,0,303.4,135.3,306,301.3"/>
<g>
	<defs>
		<path id="SVGID_1_" d="M612,312.5c0,167.9-138.1,306-306,306S0,480.4,0,312.5s138.1-306,306-306c166.1,0,303.4,135.3,306,301.3"/>
	</defs>
	<clipPath id="SVGID_2_">
		<use xlink:href="#SVGID_1_"  style="overflow:visible;"/>
	</clipPath>
	<g class="st1">
		<g id="_Group_" class="st2">
			<rect id="_Rectangle_2" x="55.1" y="159.4" class="st3" width="536.1" height="16"/>
			<rect id="_Rectangle_3" x="55.1" y="284.3" class="st3" width="536.1" height="16"/>
			<rect id="_Rectangle_4" x="24.6" y="53" class="st3" width="30.5" height="334.3"/>
			<rect id="_Rectangle_5" x="307.9" y="53" class="st3" width="30.5" height="334.3"/>
			<rect id="_Rectangle_6" x="591.2" y="53" class="st3" width="30.5" height="334.3"/>
			<path id="_Compound_Path_" class="st3" d="M71.2,203.4v80.9h25.2v-80.9H71.2z M83.8,228.6c-3.2,0-5.8-2.6-5.8-5.8
				c0-3.2,2.6-5.8,5.8-5.8c3.2,0,5.8,2.6,5.8,5.8l0,0C89.6,226,87,228.6,83.8,228.6L83.8,228.6z"/>
			<path id="_Compound_Path_2" class="st3" d="M96.4,203.4v80.9h25.2v-80.9H96.4z M109,228.6c-3.2,0-5.8-2.6-5.8-5.8
				c0-3.2,2.6-5.8,5.8-5.8c3.2,0,5.8,2.6,5.8,5.8l0,0C114.8,226,112.2,228.6,109,228.6z"/>
			<path id="_Compound_Path_3" class="st3" d="M121.6,203.4v80.9h25.2v-80.9H121.6z M134.1,228.6c-3.2,0-5.8-2.6-5.8-5.8
				s2.6-5.8,5.8-5.8c3.2,0,5.8,2.6,5.8,5.8l0,0C139.9,226,137.3,228.6,134.1,228.6L134.1,228.6z"/>
			<rect id="_Rectangle_7" x="188.8" y="270.2" class="st3" width="67.7" height="14.1"/>
			<rect id="_Rectangle_8" x="201.9" y="256.1" class="st3" width="67.7" height="14.1"/>
			<g id="_Group_2">
				<circle id="_Path_" class="st3" cx="121.6" cy="120.6" r="25.2"/>
				<path id="_Path_2" class="st4" d="M121.6,89.3c17.3,0,31.3,14,31.3,31.3s-14,31.3-31.3,31.3"/>
				<line id="_Path_3" class="st4" x1="121.6" y1="149.6" x2="121.6" y2="155.7"/>
				<rect id="_Rectangle_9" x="111.5" y="156.7" class="st3" width="20.2" height="2.7"/>
			</g>
			<rect id="_Rectangle_10" x="338.4" y="208.3" class="st3" width="17.3" height="76"/>
			
				<rect id="_Rectangle_11" x="236.3" y="117.8" transform="matrix(0.7071 -0.7071 0.7071 0.7071 -9.0775 230.9825)" class="st3" width="76" height="17.3"/>
			
				<rect id="_Rectangle_12" x="211.1" y="117.8" transform="matrix(0.7071 -0.7071 0.7071 0.7071 -16.4588 213.1501)" class="st3" width="76" height="17.3"/>
			
				<rect id="_Rectangle_13" x="185.8" y="117.8" transform="matrix(0.7071 -0.7071 0.7071 0.7071 -23.8442 195.3278)" class="st3" width="76" height="17.3"/>
			<rect id="_Rectangle_14" x="355.7" y="208.3" class="st3" width="17.3" height="76"/>
			<rect id="_Rectangle_15" x="373.1" y="208.3" class="st3" width="17.3" height="76"/>
			<rect id="_Rectangle_16" x="390.4" y="208.3" class="st3" width="17.3" height="76"/>
			<rect id="_Rectangle_17" x="407.7" y="208.3" class="st3" width="17.3" height="76"/>
			<rect id="_Rectangle_18" x="425" y="208.3" class="st3" width="17.3" height="76"/>
			<rect id="_Rectangle_19" x="492.5" y="208.3" class="st3" width="12.1" height="76"/>
			<rect id="_Rectangle_20" x="504.6" y="208.3" class="st3" width="17.3" height="76"/>
			<rect id="_Rectangle_21" x="522" y="208.3" class="st3" width="17.3" height="76"/>
			<rect id="_Rectangle_22" x="522" y="82.6" class="st3" width="17.3" height="76"/>
			<rect id="_Rectangle_23" x="492.5" y="82.6" class="st3" width="8.7" height="76"/>
			<rect id="_Rectangle_24" x="410" y="132.3" class="st3" width="76" height="8.7"/>
			<rect id="_Rectangle_25" x="416.3" y="140.9" class="st3" width="76" height="17.3"/>
			<rect id="_Rectangle_26" x="338.4" y="140.9" class="st3" width="76" height="17.3"/>
			<rect id="_Rectangle_27" x="539.3" y="82.6" class="st3" width="17.3" height="76"/>
			<rect id="_Rectangle_28" x="556.6" y="82.6" class="st3" width="17.3" height="76"/>
			<rect id="_Rectangle_29" x="573.9" y="82.6" class="st3" width="17.3" height="76"/>
			<rect id="_Rectangle_30" x="539.3" y="208.3" class="st3" width="17.3" height="76"/>
			<rect id="_Rectangle_31" x="556.6" y="208.3" class="st3" width="17.3" height="76"/>
			<rect id="_Rectangle_32" x="574.5" y="210" class="st3" width="16.7" height="74.3"/>
			<path id="_Path_4" class="st3" d="M323.2,53v334.3"/>
			<path id="_Path_5" class="st3" d="M39.8,53v334.3"/>
			<path id="_Path_6" class="st3" d="M606.5,53v334.3"/>
		</g>
		<g id="_Group_3" class="st2">
			<rect id="_Rectangle_33" x="42.1" y="436.5" class="st3" width="536.1" height="16"/>
			<rect id="_Rectangle_34" x="42.1" y="561.3" class="st3" width="536.1" height="16"/>
			<rect id="_Rectangle_35" x="11.6" y="330" class="st3" width="30.5" height="334.3"/>
			<rect id="_Rectangle_36" x="294.9" y="330" class="st3" width="30.5" height="334.3"/>
			<rect id="_Rectangle_37" x="578.2" y="330" class="st3" width="30.5" height="334.3"/>
			<path id="_Compound_Path_4" class="st3" d="M58.2,480.4v80.9h25.2v-80.9H58.2z M70.8,505.6c-3.2,0-5.8-2.6-5.8-5.8
				c0-3.2,2.6-5.8,5.8-5.8c3.2,0,5.8,2.6,5.8,5.8l0,0C76.6,503,74,505.6,70.8,505.6C70.8,505.6,70.8,505.6,70.8,505.6L70.8,505.6z"
				/>
			<path id="_Compound_Path_5" class="st3" d="M83.4,480.4v80.9h25.2v-80.9H83.4z M96,505.6c-3.2,0-5.8-2.6-5.8-5.8
				c0-3.2,2.6-5.8,5.8-5.8c3.2,0,5.8,2.6,5.8,5.8l0,0C101.8,503,99.2,505.6,96,505.6z"/>
			<path id="_Compound_Path_6" class="st3" d="M108.6,480.4v80.9h25.2v-80.9H108.6z M121.1,505.6c-3.2,0-5.8-2.6-5.8-5.8
				c0-3.2,2.6-5.8,5.8-5.8c3.2,0,5.8,2.6,5.8,5.8l0,0C126.9,503,124.3,505.6,121.1,505.6C121.1,505.6,121.1,505.6,121.1,505.6
				L121.1,505.6z"/>
			<rect id="_Rectangle_38" x="175.8" y="547.2" class="st3" width="67.7" height="14.1"/>
			<rect id="_Rectangle_39" x="188.9" y="533.1" class="st3" width="67.7" height="14.1"/>
			<g id="_Group_4">
				<circle id="_Path_7" class="st3" cx="108.6" cy="397.6" r="25.2"/>
				<path id="_Path_8" class="st4" d="M108.6,366.3c17.3,0,31.3,14,31.3,31.3c0,17.3-14,31.3-31.3,31.3"/>
				<line id="_Path_9" class="st4" x1="108.6" y1="426.6" x2="108.6" y2="432.7"/>
				<rect id="_Rectangle_40" x="98.5" y="433.7" class="st3" width="20.2" height="2.7"/>
			</g>
			<rect id="_Rectangle_41" x="325.4" y="485.3" class="st3" width="17.3" height="76"/>
			
				<rect id="_Rectangle_42" x="223.3" y="394.8" transform="matrix(0.7071 -0.7071 0.7071 0.7071 -208.7513 302.9197)" class="st3" width="76" height="17.3"/>
			
				<rect id="_Rectangle_43" x="198.1" y="394.8" transform="matrix(0.7071 -0.7071 0.7071 0.7071 -216.1367 285.0974)" class="st3" width="76" height="17.3"/>
			
				<rect id="_Rectangle_44" x="172.8" y="394.8" transform="matrix(0.7071 -0.7071 0.7071 0.7071 -223.518 267.265)" class="st3" width="76" height="17.3"/>
			<rect id="_Rectangle_45" x="342.7" y="485.3" class="st3" width="17.3" height="76"/>
			<rect id="_Rectangle_46" x="360.1" y="485.3" class="st3" width="17.3" height="76"/>
			<rect id="_Rectangle_47" x="377.4" y="485.3" class="st3" width="17.3" height="76"/>
			<rect id="_Rectangle_48" x="394.7" y="485.3" class="st3" width="17.3" height="76"/>
			<rect id="_Rectangle_49" x="412" y="485.3" class="st3" width="17.3" height="76"/>
			<rect id="_Rectangle_50" x="479.5" y="485.3" class="st3" width="12.1" height="76"/>
			<rect id="_Rectangle_51" x="491.6" y="485.3" class="st3" width="17.3" height="76"/>
			<rect id="_Rectangle_52" x="509" y="485.3" class="st3" width="17.3" height="76"/>
			<rect id="_Rectangle_53" x="509" y="359.6" class="st3" width="17.3" height="76"/>
			<rect id="_Rectangle_54" x="479.5" y="359.6" class="st3" width="8.7" height="76"/>
			<rect id="_Rectangle_55" x="397" y="409.3" class="st3" width="76" height="8.7"/>
			<rect id="_Rectangle_56" x="403.4" y="417.9" class="st3" width="76" height="17.3"/>
			<rect id="_Rectangle_57" x="325.4" y="417.9" class="st3" width="76" height="17.3"/>
			<rect id="_Rectangle_58" x="526.3" y="359.6" class="st3" width="17.3" height="76"/>
			<rect id="_Rectangle_59" x="543.6" y="359.6" class="st3" width="17.3" height="76"/>
			<rect id="_Rectangle_60" x="560.9" y="359.6" class="st3" width="17.3" height="76"/>
			<rect id="_Rectangle_61" x="526.3" y="485.3" class="st3" width="17.3" height="76"/>
			<rect id="_Rectangle_62" x="543.6" y="485.3" class="st3" width="17.3" height="76"/>
			<rect id="_Rectangle_63" x="561.5" y="487" class="st3" width="16.7" height="74.3"/>
			<path id="_Path_10" class="st3" d="M310.2,330v334.3"/>
			<path id="_Path_11" class="st3" d="M26.8,330v334.3"/>
			<path id="_Path_12" class="st3" d="M593.5,330v334.3"/>
		</g>
		<g>
			<g id="_Clip_Group_">
				<defs>
					<rect id="SVGID_3_" x="-10" y="3.5" width="642" height="642"/>
				</defs>
				<clipPath id="SVGID_4_">
					<use xlink:href="#SVGID_3_"  style="overflow:visible;"/>
				</clipPath>
				<g class="st5">
					<g id="_Group_5">
						<g id="_Group_6">
							<rect id="_Rectangle_64" x="447.5" y="358.1" class="st6" width="135.4" height="81.1"/>
							<g id="_Group_7">
								<g id="_Group_8">
									<g id="_Group_9">
										<polygon id="_Path_13" class="st7" points="538.8,383.4 542.3,380.1 541.4,375.5 546.1,374.9 548.1,370.6 552.3,372.9 
											556.4,370.6 558.4,374.9 563.1,375.5 562.2,380.1 565.7,383.4 562.2,386.6 563.1,391.3 558.4,391.8 556.4,396.1 
											552.3,393.8 548.1,396.1 546.1,391.8 541.4,391.3 542.3,386.6 										"/>
										<polygon id="_Path_14" class="st4" points="538.8,383.4 542.3,380.1 541.4,375.5 546.1,374.9 548.1,370.6 552.3,372.9 
											556.4,370.6 558.4,374.9 563.1,375.5 562.2,380.1 565.7,383.4 562.2,386.6 563.1,391.3 558.4,391.8 556.4,396.1 
											552.3,393.8 548.1,396.1 546.1,391.8 541.4,391.3 542.3,386.6 										"/>
									</g>
									<circle id="_Path_15" class="st8" cx="552.3" cy="383.4" r="5.8"/>
								</g>
								<rect id="_Rectangle_65" x="463.3" y="370.6" class="st9" width="45.3" height="4.8"/>
								<rect id="_Rectangle_66" x="463.3" y="383.4" class="st9" width="45.3" height="4.8"/>
								<line id="_Path_16" class="st4" x1="463.3" y1="407.4" x2="567.2" y2="407.4"/>
								<line id="_Path_17" class="st4" x1="523.6" y1="414" x2="567.2" y2="414"/>
								<line id="_Path_18" class="st4" x1="523.6" y1="420.4" x2="567.2" y2="420.4"/>
								<line id="_Path_19" class="st4" x1="523.6" y1="426.8" x2="567.2" y2="426.8"/>
							</g>
						</g>
						<polygon id="_Path_20" class="st10" points="548,500.3 64.9,500.3 45.9,474.8 566,474.8 						"/>
						<g id="_Group_10">
							<g id="_Group_11">
								<circle id="_Path_21" class="st11" cx="429.3" cy="265.9" r="55.3"/>
								<path id="_Path_22" class="st12" d="M484.6,265.9c0-30.6-24.7-55.3-55.3-55.4c0,0,0,0,0,0c-1,0-2,0-3,0.1
									c-4.7,8.4-6.3,17.2-9.3,26.2c3.3-1.5,7.3,0,8.7,3.4c1,2.2,0.7,4.7-0.7,6.6c-2.1,2.9-6.2,3.6-9.4,5.3
									c-5.8,3.3-8.8,9.9-7.5,16.4c0.4,1.2,0.6,2.4,0.8,3.7c0.1,1.1-0.1,2.2,0.1,3.3c0.5,2.7,3.3,4.6,6,4.9
									c2.8,0.1,5.5-0.7,7.9-2.1c3.2-1.8,6.7-4.2,10.3-3.3c3.1,0.8,5.6,4,8.8,3.5c2.3-0.4,3.8-2.5,5.4-4.1s4.6-2.7,6.1-1
									c2.6,3.6,3.8,8.1,3.6,12.5c-0.2,1.6-0.2,3.2,0,4.8c0.4,1.6,1.7,3.1,3.3,3c3.7-0.2,3.5-7.5,7.2-7.8c2-0.1,3.4,2.2,3.3,4.2
									s-1.4,3.8-2.3,5.6c-1.6,3.2-0.8,5.1,1.1,7.7C479.6,294.2,484.6,279.1,484.6,265.9z"/>
							</g>
							<path id="_Path_23" class="st9" d="M465.2,223.8c20,23.1,17.4,58-5.7,78c-20.8,18-51.6,18-72.3,0c19.9,23.2,54.8,25.8,78,5.9
								c23.2-19.9,25.8-54.8,5.9-78C469.3,227.6,467.3,225.6,465.2,223.8z"/>
						</g>
						<g id="_Group_12">
							<path id="_Rectangle_67" class="st11" d="M203.6,262.1H412c9.5,0,17.3,7.7,17.3,17.3v141.4c0,9.5-7.7,17.3-17.3,17.3H203.6
								c-9.5,0-17.3-7.7-17.3-17.3V279.3C186.3,269.8,194.1,262.1,203.6,262.1z"/>
							<path id="_Path_24" class="st13" d="M186.3,414.5v6.2c0,9.5,7.7,17.3,17.3,17.3H412c9.5,0,17.3-7.7,17.3-17.3v-6.2H186.3z"/>
							<g id="_Group_13">
								<g id="_Group_14">
									<rect id="_Path_25" x="198.3" y="274.1" class="st14" width="218.9" height="128.5"/>
								</g>
								<g id="_Group_15">
									<rect id="_Path_26" x="198.3" y="274.1" class="st4" width="218.9" height="128.5"/>
								</g>
							</g>
							<circle id="_Path_27" class="st15" cx="307.8" cy="426.3" r="5"/>
							<g id="_Group_16">
								<rect id="_Rectangle_68" x="225.6" y="243.3" class="st3" width="82.2" height="134"/>
								<rect id="_Rectangle_69" x="307.8" y="243.3" class="st3" width="82.2" height="134"/>
							</g>
							<g id="_Group_17">
								<rect id="_Rectangle_70" x="234.6" y="237.1" class="st6" width="73.2" height="132.8"/>
								<rect id="_Rectangle_71" x="307.8" y="237.1" class="st6" width="73.2" height="132.8"/>
								<rect id="_Rectangle_72" x="246.6" y="250.3" class="st16" width="27.7" height="38.3"/>
								<line id="_Path_28" class="st4" x1="246.6" y1="303.5" x2="295.2" y2="303.5"/>
								<line id="_Path_29" class="st4" x1="246.6" y1="316.6" x2="295.2" y2="316.6"/>
								<line id="_Path_30" class="st4" x1="246.6" y1="329.7" x2="295.2" y2="329.7"/>
								<line id="_Path_31" class="st4" x1="246.6" y1="342.7" x2="295.2" y2="342.7"/>
							</g>
							<polygon id="_Path_32" class="st15" points="370.1,368.4 351.2,238.6 351,238.6 351,323.1 309.2,368.4 							"/>
							<polygon id="_Path_33" class="st6" points="351,323.1 307.8,369.9 307.8,237.1 351,190.3 							"/>
							<line id="_Path_34" class="st4" x1="215.8" y1="377.2" x2="399.8" y2="377.2"/>
							<path id="_Compound_Path_7" class="st17" d="M267.4,239.9v-8.8h-4.6c-0.7-3.9-2.2-7.6-4.5-10.8l3.4-3.4l-6.2-6.2l-3.5,3.4
								c-3.2-2.2-6.8-3.7-10.6-4.4v-5h-8.8v5c-3.8,0.6-7.4,2.1-10.6,4.3l-3.5-3.5l-6.2,6.2l3.5,3.5c-2.3,3.1-3.8,6.8-4.5,10.6h-4.9
								v8.8h4.8c0.6,3.9,2.1,7.6,4.3,10.8l-3.3,3.3l6.2,6.2l3.2-3.2c3.2,2.4,6.9,4,10.8,4.6v4.5h8.8v-4.4c4-0.6,7.7-2.2,11-4.5
								l3.1,3.1l6.2-6.2l-3.1-3.1c2.3-3.2,3.9-7,4.5-10.9L267.4,239.9z M254.4,233.9h-11.8c-0.6-1.8-2-3.2-3.8-3.8v-11.9
								C247.1,219,253.6,225.6,254.4,233.9L254.4,233.9z M235.2,218.2V230c-1.8,0.6-3.2,2-3.8,3.8h-11.8
								C220.4,225.6,227,219,235.2,218.2L235.2,218.2z M219.6,237.4h11.9c0.6,1.8,2,3.2,3.8,3.8V253
								C227,252.2,220.4,245.6,219.6,237.4z M238.8,253v-11.8c1.8-0.6,3.2-2,3.8-3.8h11.9C253.6,245.6,247,252.2,238.8,253
								L238.8,253z"/>
							<path id="_Compound_Path_8" class="st17" d="M309.9,208.5v-7.2H305c-0.3-1.4-0.9-2.8-1.6-4.1l3.4-3.4l-5.1-5.1l-3.4,3.4
								c-1.3-0.8-2.7-1.4-4.2-1.8v-4.7h-7.2v4.7c-1.5,0.4-2.9,1-4.2,1.8l-3.4-3.4l-5.1,5.1l3.4,3.4c-0.7,1.3-1.3,2.7-1.6,4.1h-4.9
								v7.2h5c0.4,1.4,0.9,2.8,1.7,4l-3.6,3.6l5.1,5.1l3.5-3.7c1.2,0.7,2.5,1.2,3.9,1.6v5.1h7.2v-5.1c1.4-0.3,2.7-0.9,3.9-1.6
								l3.6,3.6l5.1-5.1l-3.6-3.6c0.8-1.2,1.3-2.6,1.7-4L309.9,208.5z M290.6,209.4c-2.6,0-4.7-2.1-4.7-4.7c0-2.6,2.1-4.7,4.7-4.7
								c2.6,0,4.7,2.1,4.7,4.7l0,0C295.2,207.2,293.1,209.3,290.6,209.4L290.6,209.4z"/>
							<path id="_Rectangle_73" class="st13" d="M271,465.5h73.6c5.4,0,9.8,4.4,9.8,9.8l0,0v0.1l0,0h-93.1l0,0v-0.1
								C261.2,469.9,265.6,465.5,271,465.5z"/>
							<rect id="_Rectangle_74" x="286.2" y="438" class="st13" width="43.2" height="27.5"/>
							<rect id="_Rectangle_75" x="286.2" y="438" class="st9" width="43.2" height="10.5"/>
							<line id="_Path_35" class="st4" x1="225.6" y1="391" x2="254.4" y2="391"/>
							<line id="_Path_36" class="st4" x1="375.6" y1="391" x2="390" y2="391"/>
							<line id="_Path_37" class="st4" x1="295.5" y1="391" x2="348.9" y2="391"/>
						</g>
						<line id="_Path_38" class="st4" x1="46.5" y1="475.3" x2="565.1" y2="475.3"/>
						<g id="_Group_18">
							<line id="_Path_39" class="st18" x1="171.2" y1="350" x2="156.5" y2="350"/>
							<line id="_Path_40" class="st18" x1="169" y1="331.9" x2="158.6" y2="321.5"/>
							<line id="_Path_41" class="st18" x1="158.6" y1="378.5" x2="169" y2="368.2"/>
						</g>
						<g id="_Group_19">
							<line id="_Path_42" class="st18" x1="475.7" y1="213.7" x2="486.1" y2="203.4"/>
							<line id="_Path_43" class="st18" x1="490.1" y1="225" x2="504.7" y2="225"/>
							<line id="_Path_44" class="st18" x1="464.4" y1="184.7" x2="464.4" y2="199.4"/>
						</g>
						<path id="_Path_45" class="st4" d="M454,267.3c3.2,0.8,5.7,3.5,6.3,6.8"/>
						<path id="_Path_46" class="st4" d="M431.5,249.8c0,0,3.3-5.5,1.3-9.3"/>
						<g id="_Group_20">
							<path id="_Rectangle_76" class="st6" d="M451.3,461.3H474c3.9,0,7.1,3.2,7.1,7.1l0,0v6.9l0,0h-37.4l0,0v-6.3
								C443.6,464.7,447.1,461.3,451.3,461.3z"/>
							<rect id="_Rectangle_77" x="453.2" y="461.3" class="st11" width="18.3" height="7"/>
							<rect id="_Rectangle_78" x="459.6" y="457.8" class="st9" width="5.6" height="3.5"/>
						</g>
						<g id="_Group_21">
							<line class="st4" x1="215.8" y1="292" x2="211.8" y2="292"/>
							<path class="st19" d="M203.9,292h-76c-30.2,0-54.7,24.5-54.7,54.6v8.6"/>
							<line class="st4" x1="73.2" y1="359.2" x2="73.2" y2="363.2"/>
						</g>
						<g id="_Group_22">
							<line id="_Path_47" class="st4" x1="45" y1="426" x2="177.5" y2="426"/>
							<g id="_Group_23">
								<path id="_Path_48" class="st20" d="M148.3,388.3v-5H63c-6.1,0-11,4.9-11,11s4.9,11,11,11h85.3v-5H67.5v-12H148.3z"/>
								<rect id="_Rectangle_79" x="67.5" y="388.3" class="st4" width="74.5" height="12"/>
								<line id="_Path_49" class="st4" x1="142" y1="394.3" x2="67.5" y2="394.3"/>
								<rect id="_Rectangle_80" x="67.5" y="388.3" class="st9" width="6.3" height="12"/>
							</g>
							<polygon id="_Path_50" class="st6" points="148.3,420 63,420 67.5,415.7 63,411.3 148.3,411.3 							"/>
							<line id="_Path_51" class="st4" x1="94.7" y1="415.7" x2="117.7" y2="415.7"/>
							<path id="_Path_52" class="st21" d="M154.6,405.3H63v6h85.3v8.7H63v6h91.6c5.7,0,10.4-4.6,10.4-10.3l0,0
								C165,409.9,160.4,405.3,154.6,405.3L154.6,405.3z"/>
							<polygon id="_Path_53" class="st16" points="94.7,429.3 88.7,425.2 82.7,429.3 82.7,411.3 94.7,411.3 							"/>
						</g>
						<line id="_Path_54" class="st4" x1="381" y1="438" x2="381" y2="475.3"/>
						<line id="_Path_55" class="st4" x1="393.3" y1="438" x2="393.3" y2="475.3"/>
						<path id="_Path_56" class="st22" d="M400.4,326.7h106.7c13.9,0,25.2,11.3,25.2,25.2v11.3"/>
						<g id="_Group_24">
							<path id="_Path_57" class="st11" d="M178.8,215l-17.9,6.1c-11.8,4.1-24.6,4.1-36.4,0l-17.9-6.1l8.6-35h54.9L178.8,215z"/>
							<polygon id="_Path_58" class="st9" points="178.3,184.6 142.7,173.4 107.2,184.6 91.4,184.6 91.4,189.6 142.7,205.9 
								194,189.6 194,184.6 							"/>
							<polygon id="_Path_59" class="st11" points="142.7,168.4 91.4,184.6 142.7,200.9 194,184.6 							"/>
							<path id="_Path_60" class="st23" d="M107.9,209.9l16.6,5.6c11.8,4.1,24.6,4.1,36.4,0l16.6-5.7l-1.3-5.3l-15.3,5.2
								c-11.8,4.1-24.6,4.1-36.4,0l-15.3-5.2L107.9,209.9z"/>
							<polyline id="_Path_61" class="st4" points="142.7,184.6 166.8,193.3 166.8,228.3 							"/>
							<circle id="_Path_62" class="st9" cx="166.8" cy="225.5" r="3.4"/>
							<path id="_Path_63" class="st9" d="M166.8,225.5c-3.3,3.4-5.1,8.1-5,12.9h10C171.9,233.6,170.1,228.9,166.8,225.5z"/>
						</g>
						<g id="_Group_25">
							<circle id="_Path_64" class="st6" cx="90.7" cy="175.4" r="22.4"/>
							<text transform="matrix(1 0 0 1 78.73 180.42)" class="st15 st24 st25">A+</text>
							<circle id="_Path_65" class="st26" cx="90.7" cy="175.4" r="28.5"/>
						</g>
						<g id="_Group_26">
							<rect id="_Rectangle_81" x="523.4" y="216" class="st6" width="63.7" height="82"/>
							<rect id="_Rectangle_82" x="517.3" y="222.4" class="st8" width="62.6" height="79"/>
							<rect id="_Rectangle_83" x="544.1" y="243.3" class="st16" width="35.8" height="12"/>
						</g>
						<g id="_Group_27">
							<line class="st4" x1="497.4" y1="282.4" x2="501.4" y2="282.4"/>
							<line class="st27" x1="510.4" y1="282.4" x2="541.7" y2="282.4"/>
							<line class="st4" x1="546.1" y1="282.4" x2="550.1" y2="282.4"/>
						</g>
						<g id="_Group_28">
							<line class="st4" x1="93.7" y1="133" x2="97.7" y2="133"/>
							<line class="st28" x1="105.8" y1="133" x2="246.4" y2="133"/>
							<polyline class="st4" points="250.4,133 254.4,133 254.4,137 							"/>
							<line class="st29" x1="254.4" y1="145.4" x2="254.4" y2="191.8"/>
							<line class="st4" x1="254.4" y1="196" x2="254.4" y2="200"/>
						</g>
						<g id="_Group_29">
							<polygon id="_Path_66" class="st6" points="396,173 449.7,173 392,186.9 							"/>
							<polygon id="_Path_67" class="st6" points="396,186.9 400.1,191.3 449.7,173 							"/>
						</g>
						<g id="_Group_30">
							<polygon id="_Path_68" class="st6" points="528.8,127.9 477,141.9 536.1,139.5 							"/>
							<polygon id="_Path_69" class="st6" points="532.3,140.5 529.3,145.6 477,141.9 							"/>
						</g>
					</g>
				</g>
			</g>
		</g>
	</g>
</g>
</svg>
