<?xml version="1.0" encoding="utf-8"?>
<!-- Generator: Adobe Illustrator 20.0.0, SVG Export Plug-In . SVG Version: 6.00 Build 0)  -->
<svg version="1.1" id="Layer_1" xmlns="http://www.w3.org/2000/svg" xmlns:xlink="http://www.w3.org/1999/xlink" x="0px" y="0px"
	 viewBox="0 0 612 612" style="enable-background:new 0 0 612 612;" xml:space="preserve">
<style type="text/css">
	.st0{opacity:0.3;}
	.st1{fill:#5293A4;}
	.st2{fill-rule:evenodd;clip-rule:evenodd;fill:#5293A4;}
	.st3{fill-rule:evenodd;clip-rule:evenodd;fill:#123457;}
	.st4{fill-rule:evenodd;clip-rule:evenodd;fill:#E7E6E7;}
	.st5{fill-rule:evenodd;clip-rule:evenodd;fill:#EF8F22;}
	.st6{fill:#E7E6E7;}
	.st7{fill:#EF8F22;}
	.st8{opacity:0.4;}
	.st9{opacity:0.15;}
	.st10{fill:#FFFFFF;}
	.st11{fill:#78909C;}
	.st12{fill:#546E7A;}
	.st13{opacity:0.21;fill:#78909C;}
	.st14{fill:#123457;}
</style>
<g>
	<g class="st0">
		<g>
			<defs>
				<circle id="SVGID_1_" cx="306" cy="305.9" r="306"/>
			</defs>
			<use xlink:href="#SVGID_1_"  style="overflow:visible;fill:#4BAFBF;"/>
			<clipPath id="SVGID_2_">
				<use xlink:href="#SVGID_1_"  style="overflow:visible;"/>
			</clipPath>
		</g>
	</g>
	<g>
		<g>
			<path class="st1" d="M339.9,141.2l-1.9-0.3c0-0.1,0.4-2,1.3-4.9l1.9,0.6C340.2,139.3,339.9,141.1,339.9,141.2z M342.7,132.1
				l-1.8-0.8c0.7-1.6,1.4-3.1,2.2-4.5l1.7,1C344.1,129.1,343.4,130.6,342.7,132.1z M347.5,123.8l-1.5-1.2c1.1-1.4,2.2-2.6,3.4-3.7
				l1.3,1.4C349.6,121.4,348.5,122.6,347.5,123.8z M393.1,121.9c-0.6,0-1.2,0-1.8-0.1l0.1-1.9c0.6,0,1.2,0.1,1.7,0.1
				c1,0,2-0.1,3-0.1l0.2,1.9C395.3,121.9,394.2,121.9,393.1,121.9z M386.4,121.2c-1.6-0.3-3.2-0.8-4.8-1.4l0.7-1.8
				c1.5,0.5,3.1,1,4.6,1.3L386.4,121.2z M401.3,120.9l-0.5-1.9c1.5-0.4,3-0.9,4.5-1.5l0.8,1.8C404.5,119.9,402.9,120.5,401.3,120.9z
				 M377,117.9c-1.5-0.7-3-1.2-4.5-1.6l0.6-1.9c1.5,0.5,3.1,1,4.7,1.7L377,117.9z M354.4,117.6l-1-1.7c1.5-0.9,3.1-1.5,4.7-2
				l0.5,1.9C357.2,116.2,355.8,116.9,354.4,117.6z M410.5,117l-1-1.7c1.3-0.8,2.7-1.7,4-2.7l1.2,1.6
				C413.3,115.2,411.9,116.2,410.5,117z M367.9,115.3c-1.2-0.2-2.4-0.2-3.5-0.3c-0.4,0-0.8,0-1.2,0l-0.1-1.9c0.4,0,0.9,0,1.3,0
				c1.2,0,2.5,0.1,3.7,0.3L367.9,115.3z M418.5,111l-1.3-1.4c1.1-1,2.3-2.2,3.4-3.4l1.4,1.3C420.8,108.8,419.6,110,418.5,111z
				 M425.2,103.8l-1.5-1.2c1-1.2,2-2.5,2.9-3.9l1.6,1.1C427.2,101.2,426.2,102.5,425.2,103.8z M430.8,95.6l-1.7-1
				c0.3-0.5,0.5-0.9,0.7-1.2c-0.3-0.3-0.8-0.9-1.5-1.5l1.4-1.4c1.3,1.3,2,2.1,2,2.1l1.4,1.6l-1.6,0
				C431.4,94.6,431.1,95.1,430.8,95.6z M424.8,88.5c-1.1-1-2.3-2.1-3.6-3.3l1.3-1.5c1.3,1.2,2.6,2.3,3.6,3.3L424.8,88.5z
				 M306.6,85.1l-1.5-1.3l0.2-0.3l1.5,1.3L306.6,85.1z M417.6,82.1c-1.2-1-2.5-2-3.8-3l1.2-1.5c1.4,1,2.6,2.1,3.9,3.1L417.6,82.1z
				 M310.1,81.2l-1.4-1.3c1.1-1.2,2.3-2.4,3.5-3.5l1.3,1.4C312.4,78.9,311.2,80.1,310.1,81.2z M409.9,76.2c-1.3-0.9-2.6-1.8-4-2.7
				l1.1-1.6c1.4,0.9,2.8,1.8,4.1,2.8L409.9,76.2z M317.1,74.6l-1.3-1.5c1.3-1.1,2.6-2.1,3.8-3.1l1.2,1.6
				C319.6,72.5,318.3,73.5,317.1,74.6z M401.8,70.9c-1.4-0.8-2.8-1.6-4.2-2.4l0.9-1.7c1.5,0.8,2.9,1.6,4.3,2.4L401.8,70.9z
				 M324.7,68.7l-1.1-1.6c1.4-0.9,2.8-1.8,4.2-2.6l1,1.7C327.5,67,326.1,67.8,324.7,68.7z M393.3,66.3c-1.5-0.7-2.9-1.4-4.4-2
				l0.8-1.8c1.5,0.6,3,1.3,4.5,2.1L393.3,66.3z M333.1,64l-0.9-1.8c1.5-0.7,3-1.4,4.5-2l0.7,1.8C336,62.6,334.5,63.2,333.1,64z
				 M384.4,62.5c-1.5-0.6-3.1-1.1-4.6-1.5l0.6-1.9c1.6,0.5,3.1,1,4.7,1.6L384.4,62.5z M342,60.4l-0.6-1.9c1.6-0.5,3.2-0.9,4.8-1.3
				l0.4,1.9C345.1,59.6,343.5,60,342,60.4z M375.2,59.7c-1.6-0.4-3.2-0.7-4.7-1l0.3-1.9c1.6,0.3,3.2,0.6,4.8,1L375.2,59.7z
				 M351.3,58.4l-0.3-1.9c1.6-0.2,3.3-0.4,4.9-0.5l0.1,1.9C354.5,58,352.9,58.2,351.3,58.4z M365.7,58.1c-1.6-0.2-3.2-0.3-4.8-0.3
				l0-2c1.6,0,3.3,0.1,4.9,0.3L365.7,58.1z"/>
		</g>
	</g>
	<g>
		<g>
			<path class="st1" d="M371.5,375l0-2c1.6,0,3.2-0.1,4.8-0.1l0.1,1.9C374.8,374.9,373.1,375,371.5,375z M366.5,374.9
				c-1.6-0.1-3.3-0.2-4.9-0.3l0.2-1.9c1.6,0.1,3.2,0.2,4.8,0.3L366.5,374.9z M381.3,374.5l-0.2-1.9c1.6-0.2,3.2-0.4,4.8-0.6l0.3,1.9
				C384.6,374.1,382.9,374.3,381.3,374.5z M356.8,374.1c-1.6-0.2-3.3-0.5-4.9-0.8l0.3-1.9c1.6,0.3,3.2,0.5,4.8,0.7L356.8,374.1z
				 M391,373.1l-0.4-1.9c1.6-0.3,3.2-0.7,4.7-1l0.5,1.9C394.2,372.4,392.6,372.7,391,373.1z M347.1,372.3c-1.6-0.4-3.2-0.7-4.8-1.2
				l0.5-1.9c1.6,0.4,3.1,0.8,4.7,1.1L347.1,372.3z M400.6,370.7l-0.6-1.9c1.5-0.5,3.1-0.9,4.6-1.5l0.6,1.8
				C403.7,369.7,402.1,370.2,400.6,370.7z M337.6,369.8c-1.6-0.5-3.1-1-4.7-1.5l0.6-1.8c1.5,0.5,3,1,4.6,1.5L337.6,369.8z
				 M409.9,367.5l-0.7-1.8c1.5-0.6,3-1.2,4.5-1.9l0.8,1.8C412.9,366.3,411.4,366.9,409.9,367.5z M328.3,366.6
				c-1.5-0.6-3.1-1.2-4.5-1.9l0.8-1.8c1.5,0.6,3,1.2,4.5,1.8L328.3,366.6z M418.9,363.5l-0.9-1.7c1.4-0.7,2.9-1.4,4.3-2.2l0.9,1.7
				C421.8,362,420.3,362.8,418.9,363.5z M319.3,362.7c-1.5-0.7-3-1.4-4.4-2.2l0.9-1.7c1.4,0.7,2.9,1.4,4.4,2.1L319.3,362.7z
				 M427.5,358.8l-1-1.7c1.4-0.8,2.8-1.7,4.2-2.5l1,1.7C430.3,357.2,428.9,358,427.5,358.8z M310.5,358.3c-1.5-0.8-2.9-1.6-4.3-2.4
				l1-1.7c1.4,0.8,2.8,1.6,4.2,2.4L310.5,358.3z M435.8,353.7l-1.1-1.6c1.4-0.9,2.7-1.8,4-2.7l1.1,1.6
				C438.6,351.9,437.3,352.8,435.8,353.7z M302.1,353.3c-1.4-0.9-2.8-1.8-4.1-2.7l1.1-1.6c1.3,0.9,2.7,1.8,4.1,2.6L302.1,353.3z
				 M443.9,348.1l-1.2-1.6c1.3-1,2.6-2,3.8-3l1.2,1.5C446.5,346.1,445.2,347.1,443.9,348.1z M293.9,347.8c-1.4-1-2.7-1.9-4-2.9
				l1.2-1.6c1.3,0.9,2.6,1.9,3.9,2.9L293.9,347.8z M286.1,341.9c-1.3-1.1-2.6-2.1-3.8-3.1l1.3-1.5c1.2,1,2.4,2,3.8,3.1L286.1,341.9z
				 M451.5,341.8l-1.3-1.4c1.2-1.1,2.4-2.2,3.5-3.3l1.4,1.4C453.9,339.6,452.7,340.7,451.5,341.8z M278.5,335.6
				c-1.3-1.2-2.5-2.3-3.6-3.3l1.3-1.4c1.1,1,2.3,2.1,3.6,3.3L278.5,335.6z M458.4,334.8l-1.5-1.3c1.1-1.2,2.1-2.5,3-3.8l1.6,1.1
				C460.5,332.2,459.5,333.5,458.4,334.8z M271.3,328.9c-2.2-2.2-3.4-3.5-3.4-3.6l1.5-1.3c0,0,1.2,1.3,3.4,3.5L271.3,328.9z
				 M464.2,326.8l-1.7-1c0.8-1.4,1.6-2.8,2.2-4.2l1.8,0.8C465.8,323.8,465,325.3,464.2,326.8z M468.3,317.7l-1.9-0.6
				c0.5-1.5,0.9-3.1,1.2-4.6l1.9,0.4C469.2,314.5,468.8,316.1,468.3,317.7z M470.1,307.9l-1.9-0.1c0-0.8,0.1-1.5,0.1-2.3
				c0-0.8,0-1.7-0.1-2.5l1.9-0.1c0.1,0.9,0.1,1.7,0.1,2.6C470.2,306.3,470.2,307.1,470.1,307.9z M467.6,298.3
				c-0.2-1.5-0.6-3.1-1-4.7l1.9-0.5c0.4,1.6,0.8,3.3,1,4.9L467.6,298.3z M465.3,289c-0.5-1.5-1-3-1.6-4.5l1.8-0.7
				c0.6,1.6,1.2,3.2,1.7,4.6L465.3,289z M461.8,280c-0.6-1.5-1.3-2.9-2-4.4l1.8-0.8c0.7,1.5,1.4,3,2,4.5L461.8,280z M457.7,271.2
				l-2.1-4.4l1.8-0.9l2.1,4.4L457.7,271.2z M453.4,262.4c-0.7-1.5-1.4-2.9-2.1-4.4l1.8-0.8c0.7,1.5,1.4,2.9,2.1,4.4L453.4,262.4z
				 M449.3,253.5c-0.6-1.5-1.3-3-1.8-4.6l1.8-0.7c0.6,1.5,1.2,3,1.8,4.5L449.3,253.5z M445.9,244.3c-0.5-1.6-1-3.2-1.4-4.8l1.9-0.5
				c0.4,1.5,0.8,3.1,1.3,4.6L445.9,244.3z M443.5,234.7c-0.3-1.7-0.5-3.3-0.8-4.8l1.9-0.3c0.2,1.5,0.5,3.1,0.8,4.8L443.5,234.7z
				 M442,225.1c-0.2-1.7-0.4-3.3-0.6-4.9l1.9-0.2c0.2,1.5,0.4,3.1,0.6,4.8L442,225.1z M440.9,215.3c-0.1-1.7-0.2-3.3-0.2-4.9l1.9,0
				c0,1.5,0.1,3.1,0.2,4.8L440.9,215.3z M442.7,205.5l-1.9-0.1c0.1-1.7,0.2-3.3,0.4-4.9l1.9,0.2
				C442.9,202.4,442.7,203.9,442.7,205.5z M443.8,196l-1.9-0.4c0.3-1.6,0.7-3.2,1.1-4.8l1.9,0.5C444.4,192.9,444.1,194.5,443.8,196z
				 M446.1,186.7l-1.9-0.6c0.5-1.5,1-3.1,1.5-4.7l1.8,0.6C447.1,183.7,446.6,185.2,446.1,186.7z M449.3,177.5l-1.8-0.7
				c0.6-1.5,1.1-3,1.8-4.6l1.8,0.7C450.4,174.5,449.8,176.1,449.3,177.5z M452.8,168.5l-1.8-0.7c0.6-1.5,1.2-2.9,1.9-4.5l1.8,0.8
				C454.1,165.5,453.5,167,452.8,168.5z M456.7,159.5l-1.8-0.8c0.6-1.4,1.3-2.9,2-4.5l1.8,0.8C458,156.6,457.3,158.1,456.7,159.5z
				 M460.6,150.6l-1.8-0.8l0.1-0.3l1.8,0.8L460.6,150.6z"/>
		</g>
	</g>
	<g>
		<g>
			<path class="st1" d="M370.8,325.6c-0.8,0-1.6,0-2.4-0.1l0.1-1.9c0.8,0,1.5,0,2.3,0.1c0.8,0,1.6,0,2.4-0.1l0.1,1.9
				C372.5,325.6,371.7,325.6,370.8,325.6z M363.4,325c-1.6-0.3-3.2-0.6-4.9-1.1l0.5-1.9c1.6,0.4,3.1,0.8,4.7,1L363.4,325z
				 M378.3,324.8l-0.4-1.9c1.6-0.3,3.1-0.8,4.5-1.4l0.7,1.8C381.6,324,380,324.5,378.3,324.8z M353.8,322.4c-2.8-1-4.5-1.9-4.6-1.9
				l0.9-1.7c0,0,1.7,0.9,4.4,1.9L353.8,322.4z M387.6,321l-1.1-1.6c1.3-0.8,2.5-1.8,3.7-2.9l1.3,1.4C390.3,319,389,320.1,387.6,321z
				 M395,314.2l-1.5-1.2c0.9-1.2,1.8-2.5,2.6-3.9l1.7,1C396.9,311.5,396,312.9,395,314.2z M400,305.6l-1.8-0.8
				c0.6-1.4,1.2-2.9,1.7-4.5l1.9,0.6C401.2,302.5,400.6,304.1,400,305.6z M403.1,296.2l-1.9-0.5c0.4-1.6,0.7-3.1,1-4.7l1.9,0.3
				C403.9,293,403.5,294.6,403.1,296.2z M404.9,286.5l-1.9-0.2c0.2-1.6,0.3-3.2,0.3-4.8l1.9,0.1
				C405.2,283.2,405.1,284.8,404.9,286.5z M403.3,276.6c0-1.6-0.1-3.2-0.3-4.8l1.9-0.2c0.2,1.7,0.3,3.3,0.3,4.9L403.3,276.6z
				 M402.4,267.1c-0.2-1.5-0.5-3.1-0.8-4.8l1.9-0.4c0.3,1.7,0.6,3.3,0.8,4.8L402.4,267.1z M400.6,257.6c-0.4-1.6-0.8-3.2-1.2-4.7
				l1.9-0.5c0.4,1.6,0.8,3.1,1.2,4.8L400.6,257.6z M398.2,248.1l-0.1-0.3c-0.4-1.5-0.8-3-1.2-4.4l1.9-0.5c0.4,1.5,0.8,2.9,1.2,4.4
				l0.1,0.3L398.2,248.1z M395.8,238.7c-0.4-1.7-0.7-3.3-1-4.8l1.9-0.3c0.3,1.5,0.6,3,1,4.7L395.8,238.7z M394.1,228.9
				c-0.2-1.7-0.3-3.4-0.3-5l2,0c0,1.5,0.1,3.1,0.3,4.8L394.1,228.9z M396,219.2L394,219c0.2-1.7,0.5-3.3,0.9-4.9l1.9,0.5
				C396.4,216.1,396.1,217.6,396,219.2z M398.3,210.1l-1.8-0.7c0.6-1.5,1.4-3,2.2-4.5l1.7,1C399.6,207.2,398.9,208.6,398.3,210.1z"
				/>
		</g>
	</g>
	<g>
		<g>
			<path class="st1" d="M184.9,350.4l-1.6-1.2c0.5-0.7,1.1-1.5,1.8-2.3l1.5,1.3C186,349,185.5,349.7,184.9,350.4z M189.9,344.6
				l-1.4-1.3c1.1-1.1,2.2-2.3,3.4-3.5l1.4,1.4C192.1,342.3,190.9,343.5,189.9,344.6z M196.6,337.6l-1.4-1.4c1.1-1.1,2.2-2.3,3.4-3.5
				l1.4,1.3C198.9,335.3,197.8,336.5,196.6,337.6z M203.4,330.5l-1.4-1.3c1.1-1.2,2.1-2.4,3.2-3.7l1.5,1.3
				C205.5,328.1,204.5,329.3,203.4,330.5z M209.7,323l-1.6-1.2c1-1.3,1.9-2.7,2.8-3.9l1.6,1.1C211.7,320.2,210.7,321.6,209.7,323z
				 M215.1,314.7l-1.7-0.9c0.8-1.5,1.5-2.9,2.1-4.3l1.8,0.7C216.6,311.7,215.9,313.2,215.1,314.7z M218.8,305.4l-1.9-0.5
				c0.4-1.6,0.7-3.1,0.8-4.6l1.9,0.2C219.6,302.1,219.3,303.8,218.8,305.4z M217.8,295.6c-0.1-1.5-0.4-3.1-0.8-4.6l1.9-0.5
				c0.5,1.6,0.8,3.3,0.9,5L217.8,295.6z M215.3,286.6c-0.6-1.4-1.4-2.8-2.3-4.1l1.6-1.1c0.9,1.4,1.8,2.9,2.4,4.4L215.3,286.6z
				 M210.1,278.6c-1-1.2-2.1-2.4-3.2-3.5l1.4-1.4c1.2,1.2,2.3,2.4,3.3,3.7L210.1,278.6z M203.4,271.8c-1.2-1-2.4-2-3.7-3l1.2-1.5
				c1.3,1,2.6,2.1,3.8,3.1L203.4,271.8z M195.8,266c-1.3-0.9-2.6-1.8-4-2.7l1-1.7c1.4,0.9,2.8,1.8,4.1,2.7L195.8,266z M187.6,260.6
				c-1.3-1-2.6-2.1-3.8-3.2l1.3-1.4c1.2,1.1,2.4,2.1,3.7,3L187.6,260.6z M180.3,253.8c-1.1-1.3-2.1-2.6-3.1-3.9l1.6-1.1
				c0.9,1.3,1.9,2.6,2.9,3.8L180.3,253.8z M174.6,245.7c-0.8-1.5-1.5-3-2.1-4.5l1.8-0.7c0.6,1.5,1.3,2.9,2,4.3L174.6,245.7z
				 M171,236.4c-0.4-1.6-0.8-3.2-1-4.9l1.9-0.3c0.2,1.6,0.6,3.1,1,4.7L171,236.4z M169.4,226.6c0-0.8-0.1-1.6-0.1-2.5
				c0-0.8,0-1.7,0.1-2.5l1.9,0.1c0,0.8-0.1,1.6-0.1,2.4c0,0.8,0,1.6,0.1,2.4L169.4,226.6z M171.8,217l-1.9-0.3
				c0.2-1.6,0.6-3.3,1-4.9l1.9,0.5C172.4,213.8,172.1,215.4,171.8,217z M174.2,207.7l-1.8-0.7c0.6-1.6,1.2-3.1,1.9-4.6l1.8,0.8
				C175.4,204.7,174.7,206.2,174.2,207.7z M178.3,199.1l-1.7-1c0.9-1.4,1.8-2.8,2.8-4.1l1.6,1.2C180,196.4,179.1,197.7,178.3,199.1z
				 M184.1,191.5l-1.4-1.3c1.1-1.2,2.4-2.4,3.6-3.4l1.3,1.5C186.3,189.3,185.2,190.4,184.1,191.5z M191.3,185.4l-1.1-1.6
				c1.4-0.9,2.8-1.8,4.3-2.5l0.9,1.7C194.1,183.7,192.7,184.5,191.3,185.4z M199.8,181.1l-0.7-1.8c1.5-0.6,3.2-1.1,4.8-1.4l0.5,1.9
				C202.8,180.1,201.3,180.5,199.8,181.1z M209.1,178.9l-0.2-1.9c1.6-0.2,3.2-0.5,4.7-0.8l0.4,1.9
				C212.3,178.4,210.7,178.7,209.1,178.9z M218.7,176.7l-0.6-1.9c1.5-0.5,3-1,4.5-1.6l0.7,1.8C221.9,175.7,220.3,176.2,218.7,176.7z
				 M227.9,173l-0.9-1.7c1.4-0.7,2.8-1.5,4.2-2.4l1,1.7C230.8,171.4,229.3,172.2,227.9,173z M236.3,167.8l-1.1-1.6
				c1.3-0.9,2.6-1.9,3.8-2.9l1.2,1.5C239,165.8,237.6,166.8,236.3,167.8z M244,161.5l-1.3-1.4c1.2-1.1,2.3-2.2,3.4-3.4l1.4,1.4
				C246.3,159.3,245.1,160.4,244,161.5z M250.8,154.4l-1.5-1.3c1-1.2,2.1-2.5,3.1-3.7l1.5,1.2C252.9,151.9,251.9,153.2,250.8,154.4z
				 M256.9,146.7l-1.6-1.1c0.9-1.3,1.8-2.7,2.7-4l1.6,1.1C258.8,144,257.8,145.3,256.9,146.7z M262.2,138.4l-1.7-1
				c1.5-2.6,2.3-4.2,2.3-4.2l1.8,0.8C264.5,134.1,263.8,135.7,262.2,138.4z"/>
		</g>
	</g>
	<g>
		<g>
			<path class="st1" d="M162.5,146.4c-0.1-0.7-0.1-1.4-0.2-2l1.9-0.2c0.1,0.7,0.1,1.3,0.2,2L162.5,146.4z M162,139.4
				c-0.1-1.7-0.2-3.3-0.2-4.9l2,0c0,1.6,0.1,3.2,0.2,4.8L162,139.4z M269.5,130l-1.7-0.9c0,0,0.8-1.7,1.9-4.4l1.8,0.7
				C270.4,128.2,269.5,129.9,269.5,130z M163.7,129.6l-2,0c0-1.7,0.1-3.3,0.2-4.9l1.9,0.1C163.8,126.4,163.8,128,163.7,129.6z
				 M273,120.7l-1.9-0.6c0.5-1.6,0.9-3.1,1.2-4.7l1.9,0.4C273.9,117.5,273.5,119.1,273,120.7z M164.3,120l-1.9-0.2
				c0.2-1.7,0.4-3.3,0.6-4.9l1.9,0.3C164.7,116.8,164.5,118.4,164.3,120z M275.1,111l-1.9-0.3c0.2-1.6,0.4-3.2,0.4-4.8l1.9,0.1
				C275.5,107.7,275.4,109.3,275.1,111z M165.8,110.5l-1.9-0.4c0.3-1.6,0.7-3.2,1.1-4.8l1.9,0.5
				C166.5,107.3,166.1,108.9,165.8,110.5z M273.5,101.2c-0.1-1.6-0.3-3.2-0.6-4.7l1.9-0.4c0.3,1.6,0.5,3.3,0.7,5L273.5,101.2z
				 M168.3,101.2l-1.8-0.6c0.5-1.6,1.1-3.1,1.8-4.6l1.8,0.8C169.4,98.2,168.8,99.7,168.3,101.2z M172.1,92.4l-1.7-0.9
				c0.8-1.5,1.6-2.9,2.5-4.3l1.6,1.1C173.7,89.6,172.8,91,172.1,92.4z M271.7,92c-0.5-1.5-1.2-2.9-1.9-4.3l1.7-0.9
				c0.8,1.5,1.5,3,2,4.6L271.7,92z M177.3,84.4l-1.5-1.2c1-1.3,2.1-2.6,3.3-3.7l1.4,1.4C179.3,81.9,178.3,83.1,177.3,84.4z
				 M267.2,83.7c-0.9-1.2-2-2.4-3.1-3.5l1.4-1.4c1.2,1.2,2.3,2.4,3.3,3.8L267.2,83.7z M183.9,77.5l-1.3-1.5c1.3-1.1,2.6-2.1,3.9-3
				l1.1,1.6C186.4,75.5,185.1,76.5,183.9,77.5z M260.5,77.1c-1.2-0.9-2.6-1.8-4-2.6l1-1.7c1.5,0.8,2.9,1.8,4.2,2.7L260.5,77.1z
				 M252.2,72.3c-1.4-0.6-2.9-1.2-4.5-1.8l0.6-1.8c1.6,0.6,3.1,1.2,4.6,1.8L252.2,72.3z M191.7,72.1l-0.9-1.7
				c1.4-0.8,2.9-1.5,4.5-2.2L196,70C194.6,70.6,193.1,71.4,191.7,72.1z M243.2,69.1c-1.5-0.4-3.1-0.9-4.7-1.2l0.5-1.9
				c1.6,0.4,3.2,0.8,4.8,1.3L243.2,69.1z M200.5,68.3l-0.6-1.9c1.6-0.5,3.2-0.9,4.8-1.3l0.4,1.9C203.6,67.4,202,67.9,200.5,68.3z
				 M233.8,66.8c-1.6-0.3-3.2-0.5-4.8-0.7l0.2-1.9c1.6,0.2,3.2,0.4,4.9,0.7L233.8,66.8z M209.8,66.2l-0.3-1.9
				c1.6-0.2,3.3-0.4,4.9-0.5l0.1,1.9C213,65.8,211.4,66,209.8,66.2z M224.2,65.7c-1.6-0.1-3.2-0.2-4.8-0.2l0-2
				c1.6,0,3.3,0.1,4.9,0.2L224.2,65.7z"/>
		</g>
	</g>
	<g class="st0">
		<g>
			<circle class="st2" cx="430.5" cy="96.9" r="24.2"/>
		</g>
		<g>
			<circle class="st2" cx="406.3" cy="205.7" r="24.2"/>
		</g>
		<g>
			<circle class="st2" cx="466.3" cy="307.1" r="24.2"/>
		</g>
		<g>
			<circle class="st2" cx="388" cy="377.6" r="15.3"/>
		</g>
		<g>
			<circle class="st2" cx="154.3" cy="285.1" r="15.3"/>
		</g>
		<g>
			<circle class="st2" cx="310.7" cy="88" r="15.3"/>
		</g>
		<g>
			<circle class="st2" cx="202.7" cy="72.7" r="15.3"/>
		</g>
		<g>
			<circle class="st2" cx="220.8" cy="127.6" r="9.7"/>
		</g>
		<g>
			<circle class="st2" cx="244.9" cy="366.3" r="9.7"/>
		</g>
		<g>
			<circle class="st2" cx="482.9" cy="223.6" r="9.7"/>
		</g>
		<g>
			<circle class="st2" cx="465.2" cy="159.9" r="15.3"/>
		</g>
		<g>
			<circle class="st2" cx="183.7" cy="353.4" r="24.2"/>
		</g>
		<g>
			<circle class="st2" cx="214.2" cy="225.2" r="24.2"/>
		</g>
		<g>
			<circle class="st2" cx="164.7" cy="145.3" r="24.2"/>
		</g>
	</g>
	<g>
		<g>
			<circle class="st3" cx="425.7" cy="93.3" r="24.2"/>
		</g>
		<g>
			<circle class="st3" cx="401.5" cy="202.1" r="24.2"/>
		</g>
		<g>
			<circle class="st3" cx="461.5" cy="303.5" r="24.2"/>
		</g>
		<g>
			<circle class="st3" cx="383.2" cy="374" r="15.3"/>
		</g>
		<g>
			<circle class="st3" cx="151.2" cy="283.1" r="15.3"/>
		</g>
		<g>
			<circle class="st3" cx="305.9" cy="84.4" r="15.3"/>
		</g>
		<g>
			<circle class="st3" cx="198" cy="69.1" r="15.3"/>
		</g>
		<g>
			<circle class="st3" cx="217.6" cy="125.6" r="9.7"/>
		</g>
		<g>
			<circle class="st3" cx="241.7" cy="364.3" r="9.7"/>
		</g>
		<g>
			<circle class="st3" cx="479.8" cy="221.6" r="9.7"/>
		</g>
		<g>
			<circle class="st3" cx="460.4" cy="156.3" r="15.3"/>
		</g>
		<g>
			<circle class="st3" cx="178.9" cy="349.8" r="24.2"/>
		</g>
		<g>
			<circle class="st3" cx="209.4" cy="221.6" r="24.2"/>
		</g>
		<g>
			<circle class="st3" cx="159.9" cy="141.7" r="24.2"/>
		</g>
	</g>
	<g class="st0">
		<path class="st2" d="M349.7,119.5h-74.6c-10.7,0-19.4,8.7-19.4,19.4v185.6c0,10.7,8.7,19.4,19.4,19.4h74.6
			c10.7,0,19.4-8.7,19.4-19.4V138.9C369.1,128.2,360.4,119.5,349.7,119.5z"/>
	</g>
	<g>
		<g>
			<path class="st3" d="M363.6,320c0,10.7-8.7,19.4-19.4,19.4h-74.6c-10.7,0-19.3-8.7-19.3-19.4V134.4c0-10.7,8.7-19.4,19.3-19.4
				h74.6c10.7,0,19.4,8.7,19.4,19.4V320z"/>
		</g>
		<g>
			<path class="st4" d="M292.7,129.5c1.1,0,2,0.9,2,2s-0.9,2-2,2c-1.1,0-2-0.9-2-2S291.6,129.5,292.7,129.5z"/>
		</g>
		<g>
			<path class="st4" d="M301,129.5h20.2c1.1,0,2,0.9,2,2s-0.9,2-2,2H301c-1.1,0-2-0.9-2-2S299.9,129.5,301,129.5z"/>
		</g>
		<g>
			<path class="st4" d="M307,314.3c4.6,0,8.4,3.7,8.4,8.4c0,4.6-3.8,8.4-8.4,8.4c-4.6,0-8.4-3.8-8.4-8.4
				C298.6,318.1,302.3,314.3,307,314.3z"/>
		</g>
		<g>
			<path class="st5" d="M257.2,306.2V146.3h99.6v159.9H257.2z"/>
		</g>
	</g>
	<g>
		<path class="st6" d="M312.4,77.6h-12.5c-1,0-1.7,0.8-1.7,1.7v7.4c0,1,0.8,1.7,1.7,1.7h3.6v4.3l4.3-4.3h4.6c1,0,1.7-0.8,1.7-1.7
			v-7.4C314.2,78.4,313.4,77.6,312.4,77.6z"/>
	</g>
	<g>
		<g>
			<path class="st6" d="M194.5,66.4H193c-0.3,0-0.5,0.2-0.5,0.5v4.3c0,0.3,0.2,0.5,0.5,0.5h1.5c0.3,0,0.5-0.2,0.5-0.5V67
				C195,66.7,194.8,66.4,194.5,66.4z"/>
		</g>
		<g>
			<path class="st6" d="M202.5,66.4H201c-0.3,0-0.5,0.2-0.5,0.5v4.3c0,0.3,0.2,0.5,0.5,0.5h1.5c0.3,0,0.5-0.2,0.5-0.5V67
				C203,66.7,202.8,66.4,202.5,66.4z"/>
		</g>
		<g>
			<path class="st6" d="M198.5,66.4H197c-0.3,0-0.5,0.2-0.5,0.5v4.3c0,0.3,0.2,0.5,0.5,0.5h1.5c0.3,0,0.5-0.2,0.5-0.5V67
				C199,66.7,198.8,66.4,198.5,66.4z"/>
		</g>
		<g>
			<path class="st6" d="M206.9,66.1h-1.1v-0.8c0-1-0.8-1.7-1.7-1.7h-12.6c-1,0-1.7,0.8-1.7,1.7v7.5c0,1,0.8,1.7,1.7,1.7h12.6
				c1,0,1.7-0.8,1.7-1.7v-0.8h1.1c0.5,0,0.9-0.4,0.9-0.9V67C207.8,66.5,207.4,66.1,206.9,66.1z M204.2,72.3c0,0.5-0.4,0.9-0.9,0.9
				h-11c-0.5,0-0.9-0.4-0.9-0.9v-6.5c0-0.5,0.4-0.9,0.9-0.9h11c0.5,0,0.9,0.4,0.9,0.9V72.3z"/>
		</g>
	</g>
	<g>
		<path class="st6" d="M485.5,222.4c0.2,0,0.4-0.2,0.4-0.4v-1c0-0.2-0.2-0.4-0.4-0.4h-0.8c-0.2,0-0.4-0.2-0.5-0.3l-0.5-1.2
			c-0.1-0.2-0.1-0.4,0.1-0.6l0.6-0.6c0.1-0.1,0.1-0.4,0-0.5l-0.7-0.7c-0.1-0.1-0.4-0.1-0.5,0l-0.6,0.6c-0.1,0.1-0.4,0.2-0.6,0.1
			l-1.2-0.5c-0.2-0.1-0.3-0.3-0.3-0.5v-0.8c0-0.2-0.2-0.4-0.4-0.4h-1c-0.2,0-0.4,0.2-0.4,0.4v0.8c0,0.2-0.1,0.4-0.3,0.5l-1.2,0.5
			c-0.2,0.1-0.4,0.1-0.6-0.1l-0.6-0.6c-0.1-0.1-0.4-0.1-0.5,0l-0.7,0.7c-0.1,0.1-0.1,0.4,0,0.5l0.6,0.6c0.1,0.1,0.2,0.4,0.1,0.6
			l-0.5,1.2c-0.1,0.2-0.3,0.3-0.5,0.3H474c-0.2,0-0.4,0.2-0.4,0.4v1c0,0.2,0.2,0.4,0.4,0.4h0.8c0.2,0,0.4,0.2,0.5,0.3l0.5,1.2
			c0.1,0.2,0.1,0.4-0.1,0.6l-0.6,0.6c-0.1,0.1-0.1,0.4,0,0.5l0.7,0.7c0.1,0.1,0.4,0.1,0.5,0l0.6-0.6c0.1-0.1,0.4-0.2,0.6-0.1
			l1.2,0.5c0.2,0.1,0.3,0.3,0.3,0.5v0.8c0,0.2,0.2,0.4,0.4,0.4h1c0.2,0,0.4-0.2,0.4-0.4v-0.8c0-0.2,0.2-0.4,0.3-0.5l1.2-0.5
			c0.2-0.1,0.4-0.1,0.6,0.1l0.6,0.6c0.1,0.1,0.4,0.1,0.5,0l0.7-0.7c0.1-0.1,0.1-0.4,0-0.5l-0.6-0.6c-0.1-0.1-0.2-0.4-0.1-0.6
			l0.5-1.2c0.1-0.2,0.3-0.3,0.5-0.3H485.5z M479.8,224.4c-1.6,0-2.8-1.3-2.8-2.8c0-1.6,1.3-2.8,2.8-2.8c1.6,0,2.8,1.3,2.8,2.8
			C482.6,223.1,481.3,224.4,479.8,224.4z"/>
	</g>
	<g>
		<path class="st6" d="M156.3,276.6h-10.2c-0.8,0-1.4,0.6-1.4,1.4v10.2c0,0.8,0.6,1.4,1.4,1.4h10.2c0.8,0,1.4-0.6,1.4-1.4V278
			C157.7,277.2,157.1,276.6,156.3,276.6z M147.6,288c-0.8,0-1.4-0.6-1.4-1.4s0.6-1.4,1.4-1.4c0.8,0,1.4,0.6,1.4,1.4
			S148.3,288,147.6,288z M151,288c0-2.7-2.2-4.8-4.8-4.8c0,0,0,0,0,0v-1.3c0,0,0,0,0,0c3.4,0,6.2,2.8,6.2,6.1H151z M154.5,288
			c-0.4-4.4-3.9-7.9-8.3-8.3v-1.6c0,0,0,0,0,0c5.4,0,9.9,4.4,9.9,9.9H154.5z"/>
	</g>
	<g>
		<g>
			<path class="st6" d="M379.3,370h0.3c0.4,0,0.7-0.3,0.7-0.7V367c0-0.4-0.3-0.7-0.7-0.7h-0.3c-0.4,0-0.7,0.3-0.7,0.7v2.3
				C378.6,369.7,378.9,370,379.3,370z"/>
		</g>
		<g>
			<path class="st6" d="M387,370h0.3c0.4,0,0.7-0.3,0.7-0.7V367c0-0.4-0.3-0.7-0.7-0.7H387c-0.4,0-0.7,0.3-0.7,0.7v2.3
				C386.3,369.7,386.6,370,387,370z"/>
		</g>
		<g>
			<path class="st6" d="M390.7,370v-0.2c0-0.8-0.7-1.5-1.5-1.5h-0.7v1.3c0,0.6-0.5,1.1-1.1,1.1h-0.7c-0.6,0-1.1-0.5-1.1-1.1v-1.3
				h-4.7v1.3c0,0.6-0.5,1.1-1.1,1.1h-0.7c-0.6,0-1.1-0.5-1.1-1.1v-1.3h-0.9c-0.8,0-1.5,0.7-1.5,1.5v0.2c0,0.5,0.2,0.9,0.6,1.1
				c-0.4,0.4-0.6,0.9-0.6,1.5v6.6c0,1.2,1,2.2,2.2,2.2h10.7c1.2,0,2.2-1,2.2-2.2v-6.6c0-0.6-0.2-1.1-0.6-1.5
				C390.5,370.9,390.7,370.5,390.7,370z M388.9,378.2c0,0.8-0.7,1.5-1.5,1.5H379c-0.8,0-1.5-0.7-1.5-1.5v-3.6c0-0.8,0.7-1.5,1.5-1.5
				h8.4c0.8,0,1.5,0.7,1.5,1.5V378.2z"/>
		</g>
		<g>
			<path class="st6" d="M382.7,375.4c0-1-0.9-1.5-2-1.5c-0.9,0-1.4,0.4-1.4,0.4l0.3,1c0,0,0.4-0.3,0.9-0.3c0.4,0,0.6,0.1,0.6,0.4
				c0,0.8-1.7,1.5-1.7,2.7l0,0.6h3.2c0-0.5,0.1-1.3,0.1-1.3l-2,0C381,377,382.7,376.7,382.7,375.4z"/>
		</g>
		<g>
			<path class="st6" d="M386.4,376.4c0-0.7,0-2.3,0-2.3h-1.1c-0.3,0.7-0.7,0.9-1.2,0.9l0,0.6h0.8c0,0.3,0,0.5,0,0.7
				c0,0.4,0,0.9,0,1.3h-0.8l0.1,1h3v-1h-0.7C386.4,377.2,386.4,376.8,386.4,376.4z"/>
		</g>
	</g>
	<g>
		<g>
			<path class="st7" d="M393.1,200.8h0.9c1,0,1.8-0.8,1.9-1.7l0.2-2.5c0.1-1-0.5-2-1.2-2.3c-0.8-0.3-2-0.3-2.8,0
				c-0.8,0.3-1.3,1.4-1.2,2.3l0.2,2.5C391.3,200,392.2,200.8,393.1,200.8z M398.8,200.2c0.1,1.3,1.3,2.4,2.6,2.4h1.3
				c1.3,0,2.5-1.1,2.6-2.4l0.3-3.4c0.1-1.3-0.6-2.8-1.7-3.2c-1-0.4-2.8-0.4-3.9,0c-1.1,0.4-1.9,1.9-1.7,3.2L398.8,200.2z
				 M409.7,200.8h0.9c1,0,1.8-0.8,1.9-1.7l0.2-2.5c0.1-1-0.5-2-1.2-2.3c-0.8-0.3-2-0.3-2.8,0c-0.8,0.3-1.3,1.4-1.3,2.3l0.2,2.5
				C407.9,200,408.8,200.8,409.7,200.8z M394.2,205.6c0.8-0.9,2.3-1.7,3.7-2l-0.3-0.4c-0.7-0.7-2-1.3-2.9-1.3h-2.8
				c-1,0-2.3,0.6-2.9,1.3l-2.3,2.4c-0.7,0.7-0.4,1.3,0.5,1.3h5.8L394.2,205.6z M407.5,206c-0.9-1-2.7-1.8-4.1-1.8h-3.9
				c-1.3,0-3.1,0.8-4.1,1.8l-3.1,3.3c-0.9,1-0.6,1.8,0.8,1.8h16.8c1.3,0,1.7-0.8,0.8-1.8L407.5,206z M416.4,205.7l-2.3-2.4
				c-0.7-0.7-2-1.3-2.9-1.3h-2.8c-1,0-2.3,0.6-2.9,1.3l-0.3,0.4c1.4,0.3,2.9,1.1,3.7,2l1.3,1.3h5.8
				C416.8,207,417.1,206.4,416.4,205.7z"/>
		</g>
	</g>
	<g>
		<g>
			<path class="st7" d="M178.9,355.6c-1.6,0-3,0.9-3.5,2.2l3.5,3.2l3.5-3.2C181.9,356.5,180.5,355.6,178.9,355.6z"/>
		</g>
		<g>
			<path class="st7" d="M178.9,350.2c-3.2,0-5.9,1.8-7.1,4.3l1.7,1.5c1.1-1.7,3.1-2.8,5.4-2.8c2.3,0,4.3,1.1,5.4,2.8l1.7-1.5
				C184.9,352,182.1,350.2,178.9,350.2z"/>
		</g>
		<g>
			<path class="st7" d="M178.9,338.6c-6.6,0-12.4,3.4-15.4,8.4l2.2,2c2.6-4.1,7.6-6.9,13.2-6.9c5.6,0,10.5,2.8,13.2,6.9l2.2-2
				C191.4,342,185.6,338.6,178.9,338.6z"/>
		</g>
		<g>
			<path class="st7" d="M178.9,344.4c-4.9,0-9.2,2.6-11.3,6.3l2.2,2c1.7-2.9,5.1-4.9,9-4.9c3.9,0,7.3,2,9,4.9l2.2-2
				C188.1,347,183.9,344.4,178.9,344.4z"/>
		</g>
	</g>
	<g>
		<path class="st6" d="M454.9,162.4c0,1.2,0.8,1.7,1.9,1l9.7-5.9c1-0.6,1-1.6,0-2.3l-9.7-5.9c-1-0.6-1.9-0.2-1.9,1V162.4z"/>
	</g>
	<g>
		<g>
			<circle class="st7" cx="461.5" cy="305" r="3.4"/>
		</g>
		<g>
			<path class="st7" d="M474.6,299.3v-1.1c0-1.1-0.9-2-2-2h-15.2v-3h-5.3v3h-1.8c-1.1,0-2,0.9-2,2v13.5c0,1.1,0.9,2,2,2h22.2
				c1.1,0,2-0.9,2-2v-9.8h-5v-2.6H474.6z M461.5,310.7c-3.1,0-5.7-2.5-5.7-5.7c0-3.1,2.5-5.7,5.7-5.7c3.1,0,5.7,2.5,5.7,5.7
				C467.2,308.1,464.6,310.7,461.5,310.7z"/>
		</g>
	</g>
	<g>
		<g>
			<circle class="st7" cx="152.1" cy="133.5" r="3.9"/>
		</g>
		<g>
			<circle class="st7" cx="162.2" cy="133.5" r="3.9"/>
		</g>
		<g>
			<path class="st7" d="M166.1,139.3H150c-1,0-1.8,0.8-1.8,1.8v9.5c0,1,0.8,1.8,1.8,1.8h16.1c1,0,1.8-0.8,1.8-1.8v-9.5
				C167.9,140.1,167.1,139.3,166.1,139.3z M166,144.3h-15.8V142H166V144.3z"/>
		</g>
		<g>
			<path class="st7" d="M173.4,140.9l-2.8,0.7c-0.6,0.1-1,0.7-1,1.3v3c0,0.6,0.5,1.2,1,1.3l2.8,0.7c0.6,0.1,1-0.2,1-0.8v-5.5
				C174.4,141.1,173.9,140.7,173.4,140.9z"/>
		</g>
	</g>
	<g>
		<path class="st6" d="M222.5,124.9l-3.8-3.2c-0.5-0.4-0.9-0.2-0.9,0.4v2.7l-3.7-3.1c-0.5-0.4-0.9-0.2-0.9,0.4v7.2
			c0,0.7,0.4,0.9,0.9,0.4l3.7-3.1v2.7c0,0.7,0.4,0.9,0.9,0.4l3.8-3.2C223,126,223,125.3,222.5,124.9z"/>
	</g>
	<g>
		<g>
			<path class="st6" d="M241.3,359.9l-2.2,2c-0.1,0.1-0.2,0.3-0.3,0.4H237c-0.4,0-0.7,0.3-0.7,0.7v2.7c0,0.4,0.3,0.7,0.7,0.7h1.8
				c0.1,0.2,0.2,0.3,0.3,0.4l2.2,2c0.4,0.4,0.8,0.2,0.8-0.4v-2.7V363v-2.7C242.1,359.7,241.8,359.5,241.3,359.9z"/>
		</g>
		<g>
			<path class="st6" d="M244.1,361.4c-0.1-0.2-0.4-0.3-0.5-0.2c-0.1,0-0.1,0.1-0.2,0.1c-0.1,0.1-0.2,0.3-0.1,0.5
				c0.9,1.5,0.9,3.5,0,5c-0.1,0.2-0.1,0.4,0.1,0.5c0.1,0,0.1,0.1,0.2,0.1c0.1,0.1,0.4,0,0.5-0.2
				C245.2,365.5,245.2,363.2,244.1,361.4z"/>
		</g>
		<g>
			<path class="st6" d="M245.5,359.1c-0.1-0.2-0.3-0.3-0.5-0.1c-0.1,0.1-0.2,0.1-0.3,0.2c-0.1,0.1-0.2,0.3-0.1,0.5
				c1.9,2.9,1.9,6.6,0,9.5c-0.1,0.2-0.1,0.4,0.1,0.5c0.1,0.1,0.2,0.1,0.3,0.2c0.1,0.1,0.4,0,0.5-0.1
				C247.6,366.4,247.6,362.3,245.5,359.1z"/>
		</g>
	</g>
	<g class="st8">
		<g>
			<rect x="264.7" y="157.9" class="st6" width="83.5" height="14.3"/>
		</g>
		<g>
			<rect x="264.7" y="191.4" class="st6" width="51.8" height="14.3"/>
		</g>
		<g>
			<rect x="264.7" y="265" class="st6" width="35.3" height="10"/>
		</g>
		<g>
			<rect x="264.7" y="279.7" class="st6" width="76.6" height="5.8"/>
		</g>
		<g>
			<rect x="264.7" y="290.1" class="st6" width="70.5" height="5.8"/>
		</g>
		<g>
			<rect x="264.7" y="239.1" class="st6" width="76.6" height="5.8"/>
		</g>
		<g>
			<rect x="264.7" y="249.5" class="st6" width="70.5" height="5.8"/>
		</g>
		<g>
			<rect x="264.7" y="212.7" class="st6" width="80.7" height="5.8"/>
		</g>
		<g>
			<rect x="264.7" y="223.1" class="st6" width="59.2" height="5.8"/>
		</g>
	</g>
	<g class="st9">
		<g>
			<path class="st10" d="M344.6,114.8h-75.1c-10.7,0-19.5,8.7-19.5,19.5v186.7c0,4.3,1.4,8.2,3.7,11.4L361,123.9
				C357.6,118.4,351.5,114.8,344.6,114.8z"/>
		</g>
	</g>
	<g>
		<g id="share-alt">
			<path class="st7" d="M411.2,93.5c0,2.4,1.8,4.2,4.2,4.2c1.1,0,2.1-0.4,2.8-1.1l9.9,5.9c-0.1,0.4-0.1,0.7-0.1,1
				c0,2.2,1.8,4.1,4.1,4.1c2.2,0,4.1-1.8,4.1-4.1s-1.8-4.1-4.1-4.1c-1.1,0-2.1,0.4-2.8,1.1l-9.9-5.9c0.1-0.3,0.1-0.7,0.1-1
				s0-0.7-0.1-1l9.9-5.7c0.7,0.7,1.7,1.1,2.8,1.1c2.4,0,4.2-1.8,4.2-4.2c0-2.4-1.8-4.2-4.2-4.2s-4.2,1.8-4.2,4.2c0,0.3,0,0.7,0.1,1
				l-9.9,5.7c-0.7-0.7-1.7-1.1-2.8-1.1C412.9,89.5,411.2,91.2,411.2,93.5z"/>
		</g>
	</g>
	<g>
		<path class="st7" d="M194.3,234.2c2.2-0.6,3.2-2.2,3.7-4.2c0.1-0.2,0-0.3-0.2-0.4c-1.4-0.9-2.6-2-3.4-3.5
			c-1.6-2.9-1.1-6.3,1.2-8.8c0.6-0.6,1.3-1.2,1.9-1.7c0,0,0.1,0,0.1,0.1c0,0.1,0,0.1,0,0.2c-1,2.4-1,4.9-0.1,7.3
			c0.7,1.9,1.9,3.5,3.5,4.9c1.9,1.6,4.1,2.7,6.6,3.3c0,0,0.1,0,0.1,0c0,0,0,0.1,0,0.1c-0.7,0.1-1.5,0.2-2.2,0.2
			c-0.8,0-1.5-0.1-2.3-0.1c-0.1,0-0.3,0-0.4,0.1C200.2,233.6,197.4,234.4,194.3,234.2z"/>
		<path class="st7" d="M222.2,231.9c-1-1-1.5-2.3-1.8-3.7c0-0.2,0.1-0.3,0.2-0.3c1.1-0.7,2-1.4,2.8-2.4c2.3-2.8,3-6,1.5-9.4
			c-1.1-2.4-3-4.1-5.3-5.3c-4.1-2.1-8.5-2.3-12.8-0.9c-2.7,0.8-4.9,2.3-6.6,4.6c-2,2.9-2.3,6-0.7,9.1c1.2,2.3,3,3.8,5.3,5
			c3.1,1.5,6.3,1.9,9.7,1.5c0.1,0,0.3,0,0.4,0.1c2.9,2.3,6.2,3.3,9.8,3.1c-0.1,0-0.2-0.1-0.3-0.1
			C223.5,232.9,222.8,232.5,222.2,231.9z"/>
	</g>
	<g>
		<path class="st11" d="M431,473.6v36h23.3c0-5.4,6.6-12.8,14.8-12.8c8.2,0,14.8,7.4,14.8,12.8h23.3v-36H431z"/>
		<g>
			<g>
				<rect x="437.2" y="482.5" class="st10" width="22.6" height="4.7"/>
				<rect x="437.2" y="487.2" class="st12" width="22.6" height="2.5"/>
			</g>
			<g>
				<rect x="478.4" y="482.5" class="st10" width="22.6" height="4.7"/>
				<rect x="478.4" y="487.2" class="st12" width="22.6" height="2.5"/>
			</g>
		</g>
		<rect x="438.7" y="405.5" class="st12" width="60.8" height="6.8"/>
		<rect x="426.3" y="471.2" class="st12" width="85.5" height="4.8"/>
		<rect x="438.7" y="409.8" class="st11" width="60.8" height="61.4"/>
		<g>
			<g>
				<rect x="445.2" y="415.1" class="st10" width="7.7" height="8"/>
				<rect x="444.2" y="423" class="st12" width="9.7" height="2.2"/>
			</g>
			<g>
				<rect x="458.5" y="415.1" class="st10" width="7.7" height="8"/>
				<rect x="457.5" y="423" class="st12" width="9.7" height="2.2"/>
			</g>
			<g>
				<rect x="471.9" y="415.1" class="st10" width="7.7" height="8"/>
				<rect x="470.9" y="423" class="st12" width="9.7" height="2.2"/>
			</g>
			<g>
				<rect x="485.3" y="415.1" class="st10" width="7.7" height="8"/>
				<rect x="484.3" y="423" class="st12" width="9.7" height="2.2"/>
			</g>
			<g>
				<rect x="445.2" y="429.1" class="st10" width="7.7" height="8"/>
				<rect x="444.2" y="437.1" class="st12" width="9.7" height="2.2"/>
			</g>
			<g>
				<rect x="458.5" y="429.1" class="st10" width="7.7" height="8"/>
				<rect x="457.5" y="437.1" class="st12" width="9.7" height="2.2"/>
			</g>
			<g>
				<rect x="471.9" y="429.1" class="st10" width="7.7" height="8"/>
				<rect x="470.9" y="437.1" class="st12" width="9.7" height="2.2"/>
			</g>
			<g>
				<rect x="485.3" y="429.1" class="st10" width="7.7" height="8"/>
				<rect x="484.3" y="437.1" class="st12" width="9.7" height="2.2"/>
			</g>
			<g>
				<rect x="445.2" y="443.2" class="st10" width="7.7" height="8"/>
				<rect x="444.2" y="451.1" class="st12" width="9.7" height="2.2"/>
			</g>
			<g>
				<rect x="458.5" y="443.2" class="st10" width="7.7" height="8"/>
				<rect x="457.5" y="451.1" class="st12" width="9.7" height="2.2"/>
			</g>
			<g>
				<rect x="471.9" y="443.2" class="st10" width="7.7" height="8"/>
				<rect x="470.9" y="451.1" class="st12" width="9.7" height="2.2"/>
			</g>
			<g>
				<rect x="485.3" y="443.2" class="st10" width="7.7" height="8"/>
				<rect x="484.3" y="451.1" class="st12" width="9.7" height="2.2"/>
			</g>
			<g>
				<rect x="445.2" y="457.2" class="st10" width="7.7" height="8"/>
				<rect x="444.2" y="465.1" class="st12" width="9.7" height="2.2"/>
			</g>
			<g>
				<rect x="458.5" y="457.2" class="st10" width="7.7" height="8"/>
				<rect x="457.5" y="465.1" class="st12" width="9.7" height="2.2"/>
			</g>
			<g>
				<rect x="471.9" y="457.2" class="st10" width="7.7" height="8"/>
				<rect x="470.9" y="465.1" class="st12" width="9.7" height="2.2"/>
			</g>
			<g>
				<rect x="485.3" y="457.2" class="st10" width="7.7" height="8"/>
				<rect x="484.3" y="465.1" class="st12" width="9.7" height="2.2"/>
			</g>
		</g>
	</g>
	<g>
		<path class="st11" d="M267.9,547.4v36h23.3c0-5.4,6.6-12.8,14.8-12.8c8.2,0,14.8,7.4,14.8,12.8h23.3v-36H267.9z"/>
		<g>
			<g>
				<rect x="274.1" y="556.3" class="st10" width="22.6" height="4.7"/>
				<rect x="274.1" y="561" class="st12" width="22.6" height="2.5"/>
			</g>
			<g>
				<rect x="315.3" y="556.3" class="st10" width="22.6" height="4.7"/>
				<rect x="315.3" y="561" class="st12" width="22.6" height="2.5"/>
			</g>
		</g>
		<rect x="275.6" y="479.3" class="st12" width="60.8" height="6.8"/>
		<rect x="263.2" y="545" class="st12" width="85.5" height="4.8"/>
		<rect x="275.6" y="483.6" class="st11" width="60.8" height="61.4"/>
		<g>
			<g>
				<rect x="282.1" y="488.9" class="st10" width="7.7" height="8"/>
				<rect x="281.1" y="496.8" class="st12" width="9.7" height="2.2"/>
			</g>
			<g>
				<rect x="295.5" y="488.9" class="st10" width="7.7" height="8"/>
				<rect x="294.4" y="496.8" class="st12" width="9.7" height="2.2"/>
			</g>
			<g>
				<rect x="308.8" y="488.9" class="st10" width="7.7" height="8"/>
				<rect x="307.8" y="496.8" class="st12" width="9.7" height="2.2"/>
			</g>
			<g>
				<rect x="322.2" y="488.9" class="st10" width="7.7" height="8"/>
				<rect x="321.2" y="496.8" class="st12" width="9.7" height="2.2"/>
			</g>
			<g>
				<rect x="282.1" y="502.9" class="st10" width="7.7" height="8"/>
				<rect x="281.1" y="510.9" class="st12" width="9.7" height="2.2"/>
			</g>
			<g>
				<rect x="295.5" y="502.9" class="st10" width="7.7" height="8"/>
				<rect x="294.4" y="510.9" class="st12" width="9.7" height="2.2"/>
			</g>
			<g>
				<rect x="308.8" y="502.9" class="st10" width="7.7" height="8"/>
				<rect x="307.8" y="510.9" class="st12" width="9.7" height="2.2"/>
			</g>
			<g>
				<rect x="322.2" y="502.9" class="st10" width="7.7" height="8"/>
				<rect x="321.2" y="510.9" class="st12" width="9.7" height="2.2"/>
			</g>
			<g>
				<rect x="282.1" y="516.9" class="st10" width="7.7" height="8"/>
				<rect x="281.1" y="524.9" class="st12" width="9.7" height="2.2"/>
			</g>
			<g>
				<rect x="295.5" y="516.9" class="st10" width="7.7" height="8"/>
				<rect x="294.4" y="524.9" class="st12" width="9.7" height="2.2"/>
			</g>
			<g>
				<rect x="308.8" y="516.9" class="st10" width="7.7" height="8"/>
				<rect x="307.8" y="524.9" class="st12" width="9.7" height="2.2"/>
			</g>
			<g>
				<rect x="322.2" y="516.9" class="st10" width="7.7" height="8"/>
				<rect x="321.2" y="524.9" class="st12" width="9.7" height="2.2"/>
			</g>
			<g>
				<rect x="282.1" y="531" class="st10" width="7.7" height="8"/>
				<rect x="281.1" y="538.9" class="st12" width="9.7" height="2.2"/>
			</g>
			<g>
				<rect x="295.5" y="531" class="st10" width="7.7" height="8"/>
				<rect x="294.4" y="538.9" class="st12" width="9.7" height="2.2"/>
			</g>
			<g>
				<rect x="308.8" y="531" class="st10" width="7.7" height="8"/>
				<rect x="307.8" y="538.9" class="st12" width="9.7" height="2.2"/>
			</g>
			<g>
				<rect x="322.2" y="531" class="st10" width="7.7" height="8"/>
				<rect x="321.2" y="538.9" class="st12" width="9.7" height="2.2"/>
			</g>
		</g>
	</g>
	<path class="st13" d="M105.4,509l-10.9,18.3c0,0,20.5,20.2,44.5,35.1l42.6-53.3H105.4z"/>
	<path class="st13" d="M268.4,583l-17.1,24.1c0,0,48,7.9,81.7,3.7l11.6-27.8H268.4z"/>
	<path class="st13" d="M506.6,509l10.9,18.3c0,0-20.5,20.2-44.5,35.1L430.5,509H506.6z"/>
	<g>
		<path class="st11" d="M105.4,473.6v36h23.3c0-5.4,6.6-12.8,14.8-12.8c8.2,0,14.8,7.4,14.8,12.8h23.3v-36H105.4z"/>
		<g>
			<g>
				<rect x="111.6" y="482.5" class="st10" width="22.6" height="4.7"/>
				<rect x="111.6" y="487.2" class="st12" width="22.6" height="2.5"/>
			</g>
			<g>
				<rect x="152.8" y="482.5" class="st10" width="22.6" height="4.7"/>
				<rect x="152.8" y="487.2" class="st12" width="22.6" height="2.5"/>
			</g>
		</g>
		<rect x="113.1" y="405.5" class="st12" width="60.8" height="6.8"/>
		<rect x="100.7" y="471.2" class="st12" width="85.5" height="4.8"/>
		<rect x="113.1" y="409.8" class="st11" width="60.8" height="61.4"/>
		<g>
			<g>
				<rect x="119.6" y="415.1" class="st10" width="7.7" height="8"/>
				<rect x="118.6" y="423" class="st12" width="9.7" height="2.2"/>
			</g>
			<g>
				<rect x="132.9" y="415.1" class="st10" width="7.7" height="8"/>
				<rect x="131.9" y="423" class="st12" width="9.7" height="2.2"/>
			</g>
			<g>
				<rect x="146.3" y="415.1" class="st10" width="7.7" height="8"/>
				<rect x="145.3" y="423" class="st12" width="9.7" height="2.2"/>
			</g>
			<g>
				<rect x="159.7" y="415.1" class="st10" width="7.7" height="8"/>
				<rect x="158.7" y="423" class="st12" width="9.7" height="2.2"/>
			</g>
			<g>
				<rect x="119.6" y="429.1" class="st10" width="7.7" height="8"/>
				<rect x="118.6" y="437.1" class="st12" width="9.7" height="2.2"/>
			</g>
			<g>
				<rect x="132.9" y="429.1" class="st10" width="7.7" height="8"/>
				<rect x="131.9" y="437.1" class="st12" width="9.7" height="2.2"/>
			</g>
			<g>
				<rect x="146.3" y="429.1" class="st10" width="7.7" height="8"/>
				<rect x="145.3" y="437.1" class="st12" width="9.7" height="2.2"/>
			</g>
			<g>
				<rect x="159.7" y="429.1" class="st10" width="7.7" height="8"/>
				<rect x="158.7" y="437.1" class="st12" width="9.7" height="2.2"/>
			</g>
			<g>
				<rect x="119.6" y="443.2" class="st10" width="7.7" height="8"/>
				<rect x="118.6" y="451.1" class="st12" width="9.7" height="2.2"/>
			</g>
			<g>
				<rect x="132.9" y="443.2" class="st10" width="7.7" height="8"/>
				<rect x="131.9" y="451.1" class="st12" width="9.7" height="2.2"/>
			</g>
			<g>
				<rect x="146.3" y="443.2" class="st10" width="7.7" height="8"/>
				<rect x="145.3" y="451.1" class="st12" width="9.7" height="2.2"/>
			</g>
			<g>
				<rect x="159.7" y="443.2" class="st10" width="7.7" height="8"/>
				<rect x="158.7" y="451.1" class="st12" width="9.7" height="2.2"/>
			</g>
			<g>
				<rect x="119.6" y="457.2" class="st10" width="7.7" height="8"/>
				<rect x="118.6" y="465.1" class="st12" width="9.7" height="2.2"/>
			</g>
			<g>
				<rect x="132.9" y="457.2" class="st10" width="7.7" height="8"/>
				<rect x="131.9" y="465.1" class="st12" width="9.7" height="2.2"/>
			</g>
			<g>
				<rect x="146.3" y="457.2" class="st10" width="7.7" height="8"/>
				<rect x="145.3" y="465.1" class="st12" width="9.7" height="2.2"/>
			</g>
			<g>
				<rect x="159.7" y="457.2" class="st10" width="7.7" height="8"/>
				<rect x="158.7" y="465.1" class="st12" width="9.7" height="2.2"/>
			</g>
		</g>
	</g>
	<g>
		<polygon class="st14" points="228.5,438.2 213.4,441.9 216,426.6 219.7,430.1 243.7,404.1 248.2,408.3 224.2,434.2 		"/>
	</g>
	<g>
		<polygon class="st14" points="385.5,438.2 400.6,441.9 397.9,426.6 394.2,430.1 370.2,404.1 365.7,408.3 389.7,434.2 		"/>
	</g>
	<g id="XMLID_1_">
		<polygon class="st14" points="315.5,447.4 306.9,460.4 298.5,447.3 303.5,447.4 303.7,412 309.8,412 309.7,447.4 		"/>
	</g>
</g>
</svg>
