<?xml version="1.0" encoding="utf-8"?>
<!-- Generator: Adobe Illustrator 21.0.0, SVG Export Plug-In . SVG Version: 6.00 Build 0)  -->
<svg version="1.1" id="Layer_1" xmlns="http://www.w3.org/2000/svg" xmlns:xlink="http://www.w3.org/1999/xlink" x="0px" y="0px"
	 viewBox="0 0 612 612" style="enable-background:new 0 0 612 612;" xml:space="preserve">
<style type="text/css">
	.st0{fill:#E8E7E7;}
	.st1{fill-rule:evenodd;clip-rule:evenodd;fill:none;stroke:#FAAB18;stroke-width:4.7999;stroke-miterlimit:22.9256;}
	.st2{fill-rule:evenodd;clip-rule:evenodd;fill:none;stroke:#5894C9;stroke-width:4.7999;stroke-miterlimit:22.9256;}
	.st3{fill-rule:evenodd;clip-rule:evenodd;fill:none;stroke:#75B06A;stroke-width:4.7999;stroke-miterlimit:22.9256;}
	.st4{fill-rule:evenodd;clip-rule:evenodd;fill:none;stroke:#E4615F;stroke-width:4.7999;stroke-miterlimit:22.9256;}
	.st5{fill-rule:evenodd;clip-rule:evenodd;fill:#E4615F;}
	.st6{fill-rule:evenodd;clip-rule:evenodd;fill:#5894C9;}
	.st7{fill-rule:evenodd;clip-rule:evenodd;fill:#C98ABC;}
	.st8{fill-rule:evenodd;clip-rule:evenodd;fill:#FAAB18;}
	.st9{fill-rule:evenodd;clip-rule:evenodd;fill:#F58852;}
	.st10{fill-rule:evenodd;clip-rule:evenodd;fill:#75B06A;}
	.st11{fill:#FFFFFF;}
	.st12{fill-rule:evenodd;clip-rule:evenodd;fill:#FFFFFF;}
	.st13{font-family:'Arial-BoldMT';}
	.st14{font-size:33.7147px;}
	.st15{fill-rule:evenodd;clip-rule:evenodd;fill:#EBBAA3;}
	.st16{fill-rule:evenodd;clip-rule:evenodd;fill:#333333;}
	.st17{fill-rule:evenodd;clip-rule:evenodd;fill:#E9F6FD;}
	.st18{fill-rule:evenodd;clip-rule:evenodd;fill:#B2B2B2;}
</style>
<g>
	<circle class="st0" cx="306" cy="306" r="306"/>
	<g>
		<g>
			<path class="st1" d="M296.1,428.5v-41.4c0-6.7-6.1-12.2-13.6-12.2h-46c-7.5,0-13.6-5.5-13.6-12.2v-41.4"/>
			<path class="st2" d="M309.9,428.5v-41.4c0-6.7,6.1-12.2,13.6-12.2h46c7.5,0,13.6-5.5,13.6-12.2v-41.4"/>
			<path class="st2" d="M171,283.2v-27.6c0-4.5-4.1-8.1-9.1-8.1h-30.7c-5,0-9.1-3.7-9.1-8.1v-27.6"/>
			<path class="st3" d="M447.2,328v-27.6c0-4.5,4.1-8.1,9.1-8.1h30.7c5,0,9.1-3.7,9.1-8.1v-27.6"/>
			<path class="st4" d="M357.3,182.9v-27.6c0-4.5,4.1-8.1,9.1-8.1h30.7c5,0,9.1-3.7,9.1-8.1v-27.6"/>
		</g>
		<line class="st3" x1="303.1" y1="299.1" x2="303.1" y2="480"/>
		<path class="st5" d="M363.9,260.9c22.6,0,41-18.3,41-41c0-22.6-18.3-41-41-41c-1.2,0-2.4,0.1-3.5,0.2
			c-4.4-26.7-27.5-47.1-55.5-47.1c-28.1,0-51.4,20.6-55.6,47.6c-2.3-0.4-4.7-0.6-7.1-0.6c-22.6,0-41,18.3-41,41
			c0,22.6,18.3,41,41,41H363.9z"/>
		<path class="st6" d="M424.8,342.9c22.6,0,41-18.3,41-41c0-22.6-18.3-41-41-41c-1.2,0-2.4,0.1-3.5,0.2
			c-4.3-26.7-27.5-47.1-55.5-47.1c-28.1,0-51.4,20.6-55.6,47.6c-2.3-0.4-4.7-0.6-7.1-0.6c-22.6,0-41,18.3-41,41
			c0,22.6,18.3,41,41,41H424.8z"/>
		<path class="st7" d="M403.9,228.9c-10-9.3-23.4-15-38.2-15c-27.9,0-51.1,20.3-55.5,47h53.7C383.5,260.9,399.8,247.2,403.9,228.9
			L403.9,228.9z M303.2,260.9h-0.1h0H303.2z"/>
		<path class="st8" d="M303.1,342.9c22.6,0,41-18.3,41-41c0-22.6-18.3-41-41-41c-1.2,0-2.4,0.1-3.5,0.2
			c-4.3-26.7-27.5-47.1-55.5-47.1c-28.1,0-51.4,20.6-55.6,47.6c-2.3-0.4-4.7-0.6-7.1-0.6c-22.6,0-41,18.3-41,41
			c0,22.6,18.3,41,41,41H303.1z"/>
		<path class="st9" d="M303.1,260.9L303.1,260.9H303H303.1L303.1,260.9z M299.5,260.9c-4.4-26.7-27.6-47-55.5-47
			c-16.2,0-30.8,6.9-41.1,17.8c5.1,16.9,20.7,29.2,39.2,29.2H299.5z"/>
		<path class="st10" d="M303.1,342.9c23.1,0,42-18.9,42-42c0-23.1-18.9-42-42-42c-23.1,0-42,18.9-42,42
			C261.1,324,280,342.9,303.1,342.9z"/>
		<path class="st10" d="M519.7,256.4c8.8,0,16-7.2,16-16c0-8.8-7.2-16-16-16c-0.5,0-0.9,0-1.4,0.1c-1.7-10.4-10.7-18.4-21.7-18.4
			c-11,0-20.1,8.1-21.7,18.6c-0.9-0.2-1.8-0.2-2.8-0.2c-8.8,0-16,7.2-16,16c0,8.8,7.2,16,16,16H519.7z"/>
		<path class="st6" d="M145.9,229.8c8.8,0,16-7.2,16-16c0-8.8-7.2-16-16-16c-0.5,0-0.9,0-1.4,0.1c-1.7-10.4-10.7-18.4-21.7-18.4
			c-11,0-20.1,8.1-21.7,18.6c-0.9-0.2-1.8-0.2-2.8-0.2c-8.8,0-16,7.2-16,16c0,8.8,7.2,16,16,16H145.9z"/>
		<path class="st5" d="M429.9,131.1c8.8,0,16-7.2,16-16c0-8.8-7.2-16-16-16c-0.5,0-0.9,0-1.4,0.1c-1.7-10.4-10.7-18.4-21.7-18.4
			c-11,0-20.1,8.1-21.7,18.6c-0.9-0.2-1.8-0.2-2.8-0.2c-8.8,0-16,7.2-16,16c0,8.8,7.2,16,16,16H429.9z"/>
		<path class="st7" d="M188.5,146c11,0,19.9-9,19.9-19.9c0-11-9-19.9-19.9-19.9c-11,0-19.9,9-19.9,19.9
			C168.5,137,177.5,146,188.5,146z"/>
		<path class="st8" d="M521.6,335.7c11,0,19.9-9,19.9-19.9s-9-19.9-19.9-19.9c-11,0-19.9,9-19.9,19.9S510.6,335.7,521.6,335.7z"/>
		<path class="st6" d="M513.8,150.4c11,0,19.9-9,19.9-19.9s-9-19.9-19.9-19.9c-11,0-19.9,9-19.9,19.9S502.8,150.4,513.8,150.4z"/>
		<path class="st7" d="M90.4,344.7c11,0,19.9-9,19.9-19.9c0-11-9-19.9-19.9-19.9c-11,0-19.9,9-19.9,19.9
			C70.5,335.7,79.5,344.7,90.4,344.7z"/>
		<path class="st10" d="M462.6,194.2c8.2,0,14.8-6.6,14.8-14.8c0-8.2-6.6-14.8-14.8-14.8c-8.2,0-14.8,6.6-14.8,14.8
			C447.8,187.5,454.4,194.2,462.6,194.2z"/>
		<path class="st8" d="M268,107.9c8.2,0,14.8-6.6,14.8-14.8c0-8.2-6.6-14.8-14.8-14.8c-8.2,0-14.8,6.6-14.8,14.8
			C253.2,101.3,259.9,107.9,268,107.9z"/>
		<path class="st10" d="M99.8,138.7c8.2,0,14.8-6.6,14.8-14.8s-6.6-14.8-14.8-14.8c-8.2,0-14.8,6.6-14.8,14.8S91.6,138.7,99.8,138.7
			z"/>
		<path class="st8" d="M154.8,401.3c8.2,0,14.8-6.6,14.8-14.8c0-8.2-6.6-14.8-14.8-14.8c-8.2,0-14.8,6.6-14.8,14.8
			C140,394.7,146.6,401.3,154.8,401.3z"/>
		<path class="st7" d="M445.6,401.3c8.2,0,14.8-6.6,14.8-14.8c0-8.2-6.6-14.8-14.8-14.8c-8.2,0-14.8,6.6-14.8,14.8
			C430.8,394.7,437.5,401.3,445.6,401.3z"/>
		<path class="st11" d="M212.8,268.1c-2-3-5.3-4.6-8.6-4.6v3.1c2.4,0,4.7,1.1,6.1,3.3c2.2,3.4,1.3,7.9-2,10.1
			c-1.2,0.8-2.7,1.2-4.1,1.2v3.1c2,0,4-0.6,5.8-1.7C214.7,279.3,215.9,272.9,212.8,268.1z M204.1,263.5c-2,0-4,0.6-5.8,1.7
			c-4.4,2.9-5.8,8.6-3.6,13.2l-1.6,1.1l-0.1-0.1h0l0,0l0,0c-0.7-0.2-1.4-0.1-2.1,0.3l-8.5,5.6c-1.1,0.7-1.4,2.2-0.7,3.3
			c0.7,1.1,2.2,1.4,3.3,0.7l8.5-5.6c0.6-0.4,1-1.1,1.1-1.8h0l0-0.1l1.6-1.1c2,2.3,4.9,3.5,7.8,3.5v-3.1c-2.4,0-4.7-1.1-6.1-3.3l0,0
			c-2.2-3.4-1.3-7.9,2-10.1c1.2-0.8,2.7-1.2,4-1.2V263.5z"/>
		<g>
			<circle class="st12" cx="515.7" cy="321.6" r="5.2"/>
			<path class="st12" d="M521.9,315.2c1.7,1.6,2.7,3.9,2.7,6.4h3.5c0-4.6-2.5-8.6-6.2-10.7V315.2L521.9,315.2z M521.9,306.7v-3.7
				c7.7,2.6,13.3,9.9,13.3,18.5h-3.4C531.8,314.9,527.7,309.2,521.9,306.7z M515.7,312.7c2.4,0,4.6,1,6.2,2.5v-4.4
				c-1.8-1.1-3.9-1.7-6.2-1.7V312.7L515.7,312.7z M521.9,303.1v3.7c-1.9-0.8-4-1.2-6.2-1.2v-3.4C517.9,302.1,520,302.4,521.9,303.1z
				"/>
		</g>
		<path class="st11" d="M414.7,290.4c0.5,0,0.9,0,1.4,0.1l0.6-2.1l4.4,1.3l-0.6,2.1c1.6,0.8,2.9,2,4,3.3l1.9-1l2.2,4l-1.9,1
			c0.5,1.6,0.7,3.4,0.5,5.2l2.1,0.6l-1.3,4.4l-2.1-0.6c-0.8,1.6-2,2.9-3.3,4l1,1.9l-4,2.2l-1-1.9c-1.2,0.4-2.5,0.6-3.8,0.6v-4.1
			c3.6,0,6.9-2.3,8-6c1.3-4.4-1.2-9.1-5.6-10.5c-0.8-0.2-1.6-0.4-2.4-0.4V290.4z M406.9,293.1l-1-1.9l4-2.2l1,1.9
			c1.2-0.4,2.5-0.6,3.8-0.6v4.1c-3.6,0-6.9,2.3-8,6c-1.3,4.4,1.2,9.1,5.6,10.5l0,0c0.8,0.2,1.6,0.4,2.4,0.4v4.1
			c-0.5,0-0.9,0-1.4-0.1l-0.6,2.1l-4.4-1.3l0.6-2.1c-1.6-0.8-2.9-2-4-3.3l-1.9,1l-2.2-4l1.9-1c-0.5-1.6-0.7-3.4-0.5-5.2l-2.1-0.6
			l1.3-4.4l2.1,0.6C404.4,295.5,405.6,294.2,406.9,293.1z"/>
		<g>
			<path class="st12" d="M277.6,179.5c8.5,0,15.3,5.9,15.3,13.2c0,4.4-2.5,8.3-6.3,10.7l2.2,5.5l-5.3-3.9c-1.8,0.7-3.8,1-5.9,1
				c-8.5,0-15.3-5.9-15.3-13.2S269.1,179.5,277.6,179.5z"/>
			<g>
				<circle class="st5" cx="284.3" cy="193" r="2.1"/>
				<circle class="st5" cx="277.6" cy="193" r="2.1"/>
				<circle class="st5" cx="270.9" cy="193" r="2.1"/>
			</g>
		</g>
		<g>
			
				<rect x="288.3" y="306.3" transform="matrix(0.7844 -0.6203 0.6203 0.7844 -126.5442 250.1984)" class="st11" width="16.6" height="1.7"/>
			
				<rect x="308.8" y="298.8" transform="matrix(0.6203 -0.7844 0.7844 0.6203 -123.3323 359.4443)" class="st11" width="1.7" height="16.6"/>
			<rect x="302.3" y="285.4" class="st11" width="1.7" height="16.6"/>
			<path class="st12" d="M305.5,287.7c2.2,0.7,3.9,2.5,4.4,4.6h-13.7c0.5-2.1,2.2-3.9,4.4-4.6c-1-0.9-1.7-2.4-1.7-4.1
				c0-2.8,1.9-5.1,4.1-5.1c2.3,0,4.1,2.3,4.1,5.1C307.2,285.2,306.6,286.7,305.5,287.7z"/>
			<g>
				<path class="st12" d="M292.3,311.8c2.2,0.7,3.9,2.5,4.4,4.6H283c0.5-2.1,2.2-3.9,4.4-4.6c-1-0.9-1.7-2.4-1.7-4.1
					c0-2.8,1.9-5.1,4.1-5.1c2.3,0,4.1,2.3,4.1,5.1C294,309.4,293.4,310.9,292.3,311.8z"/>
				<path class="st12" d="M318.7,311.8c2.2,0.7,3.9,2.5,4.4,4.6h-13.7c0.5-2.1,2.2-3.9,4.4-4.6c-1-0.9-1.7-2.4-1.7-4.1
					c0-2.8,1.9-5.1,4.1-5.1c2.3,0,4.1,2.3,4.1,5.1C320.4,309.4,319.7,310.9,318.7,311.8z"/>
			</g>
			<circle class="st12" cx="303.1" cy="302" r="4.2"/>
		</g>
		<g>
			<path class="st12" d="M364.4,302.9l-8.1-14c-0.8-1.4-1.3-3-1.3-4.8c0-5.2,4.2-9.4,9.4-9.4c5.2,0,9.4,4.2,9.4,9.4
				c0,1.7-0.5,3.4-1.3,4.8L364.4,302.9z"/>
			<path class="st6" d="M364.4,290.7c3.7,0,6.6-3,6.6-6.6c0-3.7-3-6.6-6.6-6.6c-3.7,0-6.6,3-6.6,6.6
				C357.8,287.7,360.7,290.7,364.4,290.7z"/>
		</g>
		<g>
			<polygon class="st11" points="250.6,244.2 242.7,244.2 242.7,240.7 233.6,240.7 233.6,247.5 259.7,247.5 259.7,240.7 
				250.6,240.7 			"/>
			<rect x="244.2" y="240.7" class="st11" width="5" height="2"/>
			<path class="st11" d="M253,225.6h-6.4v2.2h4.2v2.7h-4.2v8.7h4h9.1v-8.7H253V225.6z M246.7,225.6h-6.4v4.9h-6.7v8.7h9.1h4v-8.7
				h-4.2l0,0v-2.7h4.2V225.6z"/>
		</g>
		<text transform="matrix(1 0 0 1 229.0825 313.5425)" class="st11 st13 st14">$</text>
		<g>
			<rect x="343.6" y="232.1" class="st11" width="26.6" height="3.1"/>
			<path class="st11" d="M366.2,249.2h4v-10.8h-4v5.3l0,0l2,2l-2,2V249.2z M343.6,249.2h22.6v-1.6l-2-2l2-2v-5.3h-22.6V249.2
				L343.6,249.2z M366.2,243.7"/>
		</g>
		<g>
			<path class="st12" d="M319,155.4l10.8,0c2.1,0,3.7,1.7,3.7,3.7v29.1c0,2.1-1.7,3.7-3.7,3.7H319c-2.1,0-3.7-1.7-3.7-3.7v-29.1
				C315.2,157.1,316.9,155.4,319,155.4z"/>
			<rect x="317.2" y="159.3" class="st5" width="14.4" height="27.7"/>
			<path class="st5" d="M320.9,157.5h7c0.2,0,0.3-0.2,0.3-0.3v0c0-0.2-0.2-0.3-0.3-0.3h-7c-0.2,0-0.3,0.2-0.3,0.3v0
				C320.5,157.3,320.7,157.5,320.9,157.5z"/>
			<path class="st5" d="M318.5,190h11.8c0.3,0,0.5-0.2,0.5-0.5l0,0c0-0.3-0.2-0.5-0.5-0.5h-11.8c-0.3,0-0.5,0.2-0.5,0.5l0,0
				C317.9,189.8,318.2,190,318.5,190z"/>
			<circle class="st12" cx="324.4" cy="189.5" r="2.1"/>
			<circle class="st5" cx="324.4" cy="189.5" r="1.5"/>
		</g>
		<g>
			<path class="st11" d="M438.3,379.2c-0.3,0.8-0.6,1.6-0.7,2.4c-0.1,0.8,0.1,1.4,0.5,2.1c0.4,0.7,1.1,1.7,1.9,2.1v10.7h1.9v-10.7
				c0.8-0.5,1.5-1.5,1.9-2.2c0.4-0.7,0.6-1.3,0.5-2.1c-0.1-0.8-0.4-1.6-0.7-2.4c-0.2-0.6-0.7-2.2-1.5-2.3l0.5,4.6h-0.6l-0.5-4.6
				h-0.5h-0.5l-0.5,4.6h-0.6l0.5-4.6C439,377,438.6,378.6,438.3,379.2z"/>
			<path class="st11" d="M451,396.6V386c1.5-0.5,2.7-2.2,2.7-4.2c0-2.4-1.6-5.4-3.6-5.4c-2,0-3.6,2.9-3.6,5.4c0,2,1.1,3.7,2.7,4.2
				v10.5H451z"/>
		</g>
		<g>
			<path class="st11" d="M193.6,321.3c3.2,0,5.9,0.8,6.6,3.3c0.3,0.8,0.2,0.9,0.2,0c0-4.5,0-17.3,0-21.8c0-0.9,0-2.3-0.3-3.2
				c-0.8-2.4-3.5-3.1-6.6-3.1v3.9c2,0,3.6,0.3,4.7,0.9c0.2,0.1,0.3,0.3,0.2,0.5c-0.1,0.1-0.2,0.2-0.4,0.2c-0.1,0-0.1,0-0.2,0
				c-0.3-0.1-0.6-0.3-0.9-0.4c-0.9-0.3-2-0.4-3.4-0.4v3.1c2,0,3.6,0.3,4.7,0.9c0.2,0.1,0.3,0.3,0.2,0.5c-0.1,0.1-0.2,0.2-0.4,0.2
				c-0.1,0-0.1,0-0.2,0c-0.3-0.1-0.6-0.3-0.9-0.4c-0.9-0.3-2-0.4-3.4-0.4v3.1c2,0,3.6,0.3,4.7,0.9c0.2,0.1,0.3,0.3,0.2,0.5
				c-0.1,0.1-0.2,0.2-0.4,0.2c-0.1,0-0.1,0-0.2,0c-0.3-0.1-0.6-0.3-0.9-0.4c-0.9-0.3-2-0.4-3.4-0.4V321.3z M187,324.6
				c0.8-2.5,3.4-3.3,6.6-3.3V309c-1.4,0-2.5,0.1-3.4,0.4c-0.3,0.1-0.6,0.2-0.9,0.4c-0.2,0.1-0.4,0-0.5-0.2c-0.1-0.2,0-0.4,0.2-0.5
				l0,0c1.2-0.6,2.7-0.9,4.7-0.9v-3.1c-1.4,0-2.5,0.1-3.4,0.4c-0.3,0.1-0.6,0.2-0.9,0.4c-0.2,0.1-0.4,0-0.5-0.2
				c-0.1-0.2,0-0.4,0.2-0.5l0,0c1.2-0.6,2.7-0.9,4.7-0.9v-3.1c-1.4,0-2.5,0.1-3.4,0.4c-0.3,0.1-0.6,0.2-0.9,0.4
				c-0.2,0.1-0.4,0-0.5-0.2c-0.1-0.2,0-0.4,0.2-0.5l0,0c1.2-0.6,2.7-0.9,4.7-0.9v-3.9c-3.1,0-5.8,0.7-6.6,3.1
				c-0.3,0.8-0.3,2.3-0.3,3.2c0,4.5,0,17.3,0,21.8C186.8,325.5,186.7,325.5,187,324.6z"/>
			<path class="st11" d="M215.2,324.6c0.3,0.8,0.2,0.9,0.2,0c0-4.5,0-17.3,0-21.8c0-0.9,0-2.3-0.3-3.2c-0.8-2.4-3.5-3.1-6.6-3.1v3.9
				c2,0,3.6,0.3,4.7,0.9c0.2,0.1,0.3,0.3,0.2,0.5l0,0c-0.1,0.1-0.2,0.2-0.4,0.2c-0.1,0-0.1,0-0.2,0c-0.3-0.1-0.6-0.3-0.9-0.4
				c-0.9-0.3-2-0.4-3.4-0.4v3.1c2,0,3.6,0.3,4.7,0.9c0.2,0.1,0.3,0.3,0.2,0.5l0,0c-0.1,0.1-0.2,0.2-0.4,0.2c-0.1,0-0.1,0-0.2,0
				c-0.3-0.1-0.6-0.3-0.9-0.4c-0.9-0.3-2-0.4-3.4-0.4v3.1c2,0,3.6,0.3,4.7,0.9c0.2,0.1,0.3,0.3,0.2,0.5l0,0
				c-0.1,0.1-0.2,0.2-0.4,0.2c-0.1,0-0.1,0-0.2,0c-0.3-0.1-0.6-0.3-0.9-0.4c-0.9-0.3-2-0.4-3.4-0.4v12.3h0
				C211.8,321.3,214.4,322.1,215.2,324.6z M208.6,296.5L208.6,296.5c-3.1,0-5.8,0.7-6.6,3.1c-0.3,0.8-0.3,2.3-0.3,3.2
				c0,4.5,0,17.3,0,21.8c0,0.9,0,0.9,0.2,0c0.8-2.5,3.4-3.3,6.6-3.3V309h0c-1.4,0-2.5,0.1-3.4,0.4c-0.3,0.1-0.6,0.2-0.9,0.4
				c-0.2,0.1-0.4,0-0.5-0.2c-0.1-0.2,0-0.4,0.2-0.5c1.2-0.6,2.7-0.9,4.7-0.9h0v-3.1h0c-1.4,0-2.5,0.1-3.4,0.4
				c-0.3,0.1-0.6,0.2-0.9,0.4c-0.2,0.1-0.4,0-0.5-0.2c-0.1-0.2,0-0.4,0.2-0.5c1.2-0.6,2.7-0.9,4.7-0.9h0v-3.1h0
				c-1.4,0-2.5,0.1-3.4,0.4c-0.3,0.1-0.6,0.2-0.9,0.4c-0.2,0.1-0.4,0-0.5-0.2c-0.1-0.2,0-0.4,0.2-0.5c1.2-0.6,2.7-0.9,4.7-0.9h0
				V296.5z"/>
		</g>
		<g>
			<path class="st11" d="M155.5,397.2c0.6,0,1.1-0.1,1.6-0.2c0.4-0.1,0.7-0.2,1.1-0.3c0.2-0.1,0.3-0.1,0.5-0.2
				c0.3-0.1,0.6-0.3,1-0.4c0.2-0.1,0.3-0.2,0.5-0.2c0.7-0.4,1.3-0.8,1.9-1.4c0.1-0.1,0.3-0.2,0.4-0.4c0.1-0.1,0.2-0.2,0.4-0.4
				c0.2-0.2,0.3-0.4,0.5-0.6c0.3-0.3,0.5-0.7,0.7-1c0.1-0.1,0.1-0.2,0.2-0.3c0.1-0.1,0.2-0.3,0.2-0.5c0-0.1,0.1-0.2,0.1-0.2
				c0.1-0.2,0.1-0.3,0.2-0.5c0.1-0.2,0.1-0.3,0.2-0.5c0.1-0.3,0.2-0.7,0.3-1c0-0.2,0.1-0.3,0.1-0.5c0-0.2,0.1-0.4,0.1-0.5
				c0-0.2,0-0.4,0.1-0.5c0-0.4,0.1-0.7,0.1-1.1c0-0.4,0-0.7-0.1-1.1c0-0.2,0-0.4-0.1-0.5c0-0.2-0.1-0.4-0.1-0.5
				c0-0.2-0.1-0.3-0.1-0.5c-0.1-0.3-0.2-0.7-0.3-1c0-0.1-0.1-0.2-0.1-0.2c-0.1-0.2-0.2-0.5-0.3-0.7c0-0.1-0.1-0.2-0.1-0.2
				c-0.1-0.2-0.2-0.3-0.2-0.5c-0.3-0.4-0.5-0.9-0.9-1.3c-0.2-0.2-0.3-0.4-0.5-0.6c-0.1-0.1-0.2-0.3-0.4-0.4
				c-0.1-0.1-0.2-0.2-0.4-0.4c-0.2-0.2-0.5-0.4-0.8-0.6c-0.4-0.3-0.7-0.5-1.1-0.7c-0.1-0.1-0.3-0.2-0.5-0.2c-0.1,0-0.1-0.1-0.2-0.1
				c-0.1,0-0.2-0.1-0.3-0.1c0,0-0.1,0-0.1,0c-0.1-0.1-0.2-0.1-0.4-0.2c0,0,0,0,0,0c-0.1-0.1-0.3-0.1-0.4-0.1c0,0-0.1,0-0.1,0
				c-0.3-0.1-0.6-0.2-1-0.3c-0.1,0-0.2,0-0.3-0.1c-0.1,0-0.2,0-0.2,0c-0.4-0.1-0.8-0.1-1.2-0.1v0.6c0.4,0,0.9,0.1,1.3,0.2
				c0,0.1-0.1,0-0.2,0.1c-0.1,0-0.1,0.1-0.2,0.1c-0.2,0-0.4-0.1-0.6,0c0,0.1,0.1,0.1,0.1,0.1c0.2,0.1,0.3,0.1,0.5,0.1
				c0.1,0,0.3,0,0.4,0c0.1,0,0.1-0.1,0.1-0.2c0,0,0.1,0,0.1-0.1c0.1,0,0.2,0.1,0.3,0.1c0,0.1-0.1,0.1-0.1,0.2c0.1,0,0.3,0,0.3-0.1
				c0,0,0.1,0,0.1,0c0.2,0,0.3,0.1,0.5,0.2c0.2,0.1,0.5,0.2,0.7,0.3c0,0-0.1,0.1-0.1,0.1c-0.1,0-0.1-0.1-0.2-0.1
				c0,0.1,0.1,0.2,0.2,0.2c0.1,0.1,0.2,0.1,0.2,0.2c-0.1,0.2-0.2,0-0.4,0c-0.2,0-0.4,0.3-0.5,0.1c0-0.1,0.2-0.2,0.2-0.3
				c0,0-0.1,0-0.1,0c-0.1,0-0.1,0.1-0.2,0.1c-0.1,0-0.2,0.1-0.2,0.1c-0.1,0-0.2,0-0.2,0c-0.1,0-0.2,0.1-0.4,0.2c-0.1,0-0.1,0-0.2,0
				c-0.1,0-0.3,0.1-0.4,0.2c-0.1,0.1-0.3,0.2-0.4,0.2c0,0-0.2,0.2-0.2,0.2c0,0.1,0.1,0.1,0.1,0.2c0,0-0.1,0.1,0,0.2
				c0,0.1,0.1,0,0.2,0c0.2,0,0.3,0.2,0.4,0.2c0.1,0.1,0.3,0.1,0.4,0.1c0.2,0,0.3,0,0.4,0.1c0,0.1-0.1,0.2-0.2,0.2
				c0.1,0.1-0.1,0.2-0.1,0.3c0,0.1,0.1,0.2,0.2,0.2c0.1,0,0.3-0.1,0.3-0.2c0.1-0.1,0-0.3,0.1-0.4c0.5,0,1-0.2,1-0.8
				c0-0.1,0-0.1,0-0.2c0-0.1,0.2-0.2,0.1-0.3c0.1,0,0.1-0.1,0.1-0.1c0-0.1,0.1-0.2,0.2-0.2c0,0,0,0,0,0c0,0,0.1,0,0.1,0
				c0.1,0,0.2,0.1,0.3,0.1c0.1,0,0.1-0.1,0.2,0c0.1,0,0.2,0.2,0.3,0.2c0.1,0.1,0.2,0,0.2,0.1c0,0.1-0.1,0.1-0.1,0.2c0,0,0,0,0,0
				c0,0.1,0.1,0.2,0.2,0.2c0.1,0,0.2,0,0.3-0.1c0.1,0,0.2-0.1,0.3-0.2c0.1,0.1,0.2,0.2,0.3,0.3c0,0.1,0,0.1,0,0.1c0,0.1,0,0.2,0,0.3
				c0,0.2,0.3,0.2,0.4,0.3c0,0,0,0.1,0.1,0.1c0.1,0.1,0.1,0.1,0.1,0.2c0,0.2-0.2,0.2-0.2,0.4c0,0.1-0.1,0.1-0.1,0.2
				c0,0.2,0.3,0,0.3,0.2c0,0.1,0,0.1,0,0.2c0.1,0.1,0.1,0.3-0.1,0.3c-0.1,0-0.1-0.1-0.2-0.1c-0.1,0-0.1,0-0.2,0c-0.1,0-0.1,0-0.2,0
				c-0.1,0-0.3,0-0.4-0.1c0.1-0.2,0.3-0.4,0.5-0.5c0.1,0,0.2-0.1,0.1-0.2c-0.1-0.1-0.2,0-0.3,0.1c-0.1,0.1-0.2,0.1-0.3,0.1
				c-0.2,0-0.4-0.1-0.6,0c0,0.1,0.2,0.1,0.2,0.2c-0.1,0-0.1,0-0.2,0c-0.1,0,0-0.1-0.1-0.1c-0.1,0-0.3-0.1-0.4,0
				c-0.1,0-0.2,0.1-0.2,0.2c0.1,0.1,0.4-0.1,0.4,0.1c-0.1,0.1-0.3,0.2-0.2,0.4c0,0.1,0.1,0.2,0.2,0.2c0.1,0,0.1-0.1,0.2,0
				c0.1,0,0,0.1,0.1,0.1c0.1,0,0.2-0.2,0.3-0.2c0.2,0.2-0.1,0.3-0.3,0.3c-0.2,0.1-0.4,0.1-0.6,0.2c-0.1,0-0.4,0.3-0.4,0.1
				c0-0.2,0.1-0.1,0.2-0.2c-0.2,0-0.3,0.1-0.5,0.1c-0.2,0.1-0.6,0.1-0.7,0.4c0,0.1,0,0.1,0,0.2c0,0-0.2,0-0.3,0.1
				c-0.1,0-0.2,0.1-0.3,0.1c-0.1,0-0.1,0-0.2,0c-0.1,0-0.1,0.2-0.2,0.2c0,0-0.1,0.1-0.2,0.1c-0.1,0.1-0.1,0.2-0.2,0.2
				c-0.1,0-0.1-0.1-0.2,0c0,0.1,0.1,0.3,0,0.5c-0.1,0.1-0.3,0.2-0.5,0.3c-0.1,0.1-0.2,0.1-0.3,0.1c-0.1,0-0.2,0.1-0.3,0.2
				c-0.1,0-0.1,0.1-0.2,0.1v5c0.1-0.1,0.1-0.1,0.1-0.2c0.1-0.1,0.1-0.2,0.2-0.3c0.1-0.1,0.2,0,0.4-0.1c0.1,0,0.1-0.1,0.2-0.1
				c0.1,0,0.1-0.1,0.2-0.1c0.1,0.1-0.1,0.1,0,0.2c0.2,0.1,0.2-0.2,0.4-0.2c0,0,0.2,0.1,0.2,0.1c0.1,0.1,0.1,0.1,0.2,0.2
				c0.1,0,0.2,0,0.3,0c0.1,0,0.2,0.1,0.3,0.1c0.1,0,0.2-0.1,0.3-0.1c0.2,0,0.3,0,0.4,0.1c0.1,0,0.1-0.1,0.2-0.1
				c-0.1,0.1,0,0.1,0.1,0.2c0,0.1,0,0.1,0,0.1c0.1,0.1,0.2,0.1,0.2,0.1c0.1,0.1,0.1,0.2,0.2,0.3c0.1,0.1,0.3,0.2,0.4,0.2
				c0.1,0,0.2,0,0.3,0c0.2,0,0.4,0.1,0.6,0.3c0.1,0.1,0.2,0.1,0.2,0.2c0,0.1,0,0.1,0,0.2c0.1,0.1,0.3,0.2,0.2,0.5
				c0,0.1,0.1,0.1,0.2,0.1c0.1,0,0.1,0.1,0.2,0.1c0,0,0.1,0,0.1,0c0.1,0,0.2,0.1,0.3,0.1c0.1,0,0.2,0,0.2,0.1c0.1,0,0.1,0.2,0.1,0.2
				c0,0,0.2,0,0.2,0c0.1,0,0.3,0.1,0.4,0.1c0.1,0,0.1,0,0.2,0c0.1,0,0.3,0.1,0.4,0.2c-1.4,2.2-3.6,3.9-6.3,4.5c0-0.1,0-0.2,0-0.3
				c0-0.2,0-0.4,0-0.6c0-0.2-0.1-0.4-0.1-0.5c-0.1-0.1-0.3-0.3-0.4-0.4c-0.1,0-0.2-0.1-0.3-0.1c-0.2-0.1-0.6-0.3-0.6-0.5
				c0-0.1,0-0.1,0-0.2c0-0.1-0.1-0.1-0.1-0.2V397.2z M144.3,384.4c0,0.2-0.1,0.4-0.1,0.5c0,0.2-0.1,0.4-0.1,0.5
				c0,0.4-0.1,0.7-0.1,1.1c0,0.4,0,0.7,0.1,1.1c0,0.2,0,0.4,0.1,0.5c0,0.2,0.1,0.4,0.1,0.5c0,0.2,0.1,0.3,0.1,0.5
				c0.1,0.3,0.2,0.7,0.3,1c0.1,0.2,0.1,0.3,0.2,0.5c0.1,0.2,0.1,0.3,0.2,0.5c0,0.1,0.1,0.2,0.1,0.2c0.1,0.2,0.2,0.3,0.2,0.5
				c0.3,0.4,0.5,0.9,0.9,1.3c0.2,0.2,0.3,0.4,0.5,0.6c0.1,0.1,0.2,0.3,0.4,0.4c0.1,0.1,0.2,0.2,0.4,0.4c0.6,0.5,1.2,1,1.9,1.4
				c0.1,0.1,0.3,0.2,0.5,0.2c0.3,0.2,0.6,0.3,1,0.4c0.2,0.1,0.3,0.1,0.5,0.2c1.1,0.4,2.2,0.6,3.4,0.6c0.3,0,0.5,0,0.7,0v-3.5
				c0-0.1-0.1-0.1-0.1-0.2c-0.1-0.2-0.3-0.5-0.4-0.7c-0.1-0.1-0.1-0.2-0.2-0.3c0-0.1-0.2-0.1-0.2-0.2c0-0.1-0.1-0.3-0.1-0.3
				c0-0.1,0.2-0.2,0.2-0.3c0-0.1-0.1-0.1-0.1-0.2c-0.1-0.2,0-0.3,0.1-0.4c0,0,0-0.1,0.1-0.2c0-0.1,0.1-0.1,0.2-0.1
				c0,0,0.1-0.1,0.1-0.2c0.1-0.1,0.2-0.2,0.3-0.3c0-0.1,0-0.5,0-0.7c0-0.1-0.1-0.2-0.1-0.2c-0.1-0.1-0.1-0.3-0.2-0.3
				c-0.1,0-0.2,0.1-0.2,0.2c0,0.1,0,0.2-0.1,0.2c-0.1,0-0.2-0.1-0.3-0.2c-0.1,0-0.2,0-0.2,0c-0.1,0-0.1-0.2-0.3-0.3
				c-0.1-0.1-0.2,0-0.2-0.1c0-0.1,0-0.2,0-0.2c-0.1-0.1-0.2-0.3-0.4-0.4c-0.1,0-0.2,0-0.4-0.1c-0.1,0-0.1,0-0.2-0.1
				c-0.1,0-0.2,0-0.2,0c-0.2-0.1-0.4-0.5-0.6-0.5c-0.1,0-0.2,0.1-0.3,0.1c-0.1,0-0.3-0.1-0.4-0.1c-0.1-0.1-0.3-0.1-0.4-0.2
				c-0.1,0-0.2-0.1-0.2-0.2c-0.1,0-0.2,0-0.2-0.1c-0.1,0-0.2-0.1-0.2-0.2c-0.1-0.1-0.2-0.2-0.2-0.2c0-0.1,0.1-0.2,0.1-0.3
				c0-0.3-0.2-0.5-0.3-0.6c-0.1-0.1-0.2-0.2-0.3-0.3c0-0.1,0-0.1,0-0.2c-0.1-0.1-0.1-0.2-0.2-0.3c-0.1-0.1-0.2-0.2-0.2-0.3
				c0-0.1,0-0.2,0-0.4c-0.1-0.2-0.4-0.1-0.3,0.2c0,0.1,0.1,0.2,0.1,0.3c0,0.1,0,0.2,0.1,0.3c0,0.1,0.1,0.2,0.2,0.3
				c0,0.2,0,0.3,0.1,0.4c0,0.1,0.2,0.2,0.1,0.3c-0.1,0-0.2-0.1-0.2-0.1c0,0-0.2-0.1-0.2-0.2c0-0.1,0-0.2,0-0.2
				c0-0.2-0.4-0.2-0.4-0.3c0-0.1,0.1-0.1,0.1-0.2c0-0.1-0.2-0.2-0.2-0.3c0-0.1,0-0.2,0-0.3c0-0.1,0-0.2,0-0.3c0-0.1-0.1-0.2-0.2-0.2
				c-0.1-0.1-0.2,0-0.2-0.1c0-0.1-0.1-0.2-0.1-0.3c0-0.1,0-0.3,0-0.4c0-0.1,0-0.3,0-0.4c0.1-0.1,0.2-0.2,0.2-0.3
				c0-0.1,0-0.2,0.1-0.3c0.1-0.1,0.3-0.3,0.4-0.4c0.1-0.2,0.3-0.3,0.3-0.5c0-0.1,0.1-0.2,0.1-0.3c0-0.1-0.2-0.2-0.2-0.3
				c0-0.1,0.1-0.1,0.2-0.2c0,0,0-0.2,0-0.2c0-0.1-0.1-0.2,0-0.3c0-0.1,0.2-0.1,0.1-0.3c-0.1-0.1-0.2,0.1-0.3,0c-0.1-0.1,0-0.1,0-0.3
				c0,0,0-0.1,0-0.1c0-0.1,0.1-0.1,0.1-0.2c0-0.1-0.1-0.2-0.2-0.2c1.3-1,2.8-1.8,4.5-2.1l0,0c0,0,0,0.1,0.1,0.1c0.1-0.1,0.2,0,0.3,0
				c0.1,0,0.2-0.1,0.3,0c0.2,0,0.5,0.2,0.7,0.1c0,0,0-0.1,0.1-0.1c0-0.1,0.1-0.1,0.1-0.2c0.1,0,0.2,0,0.3,0c0.3,0,0.5,0,0.7,0v-0.6
				c-0.2,0-0.4,0-0.5,0c-0.1,0-0.1,0-0.2,0c-0.1,0-0.2,0-0.3,0c-1.1,0-2.1,0.2-3.1,0.6c-0.2,0.1-0.3,0.1-0.5,0.2
				c-0.1,0-0.1,0-0.2,0.1c-0.1,0-0.2,0.1-0.3,0.1c-0.2,0.1-0.3,0.1-0.5,0.2c-0.2,0.1-0.3,0.2-0.5,0.2c-0.6,0.3-1.2,0.7-1.7,1.2
				c-0.1,0.1-0.1,0.1-0.2,0.2c-0.1,0.1-0.3,0.2-0.4,0.4c-0.1,0.1-0.2,0.2-0.4,0.4c-0.2,0.2-0.3,0.4-0.5,0.6
				c-0.3,0.4-0.6,0.8-0.9,1.3c-0.1,0.1-0.2,0.3-0.2,0.5c0,0.1-0.1,0.2-0.1,0.2c-0.1,0.2-0.2,0.5-0.3,0.7c0,0.1-0.1,0.2-0.1,0.2
				c-0.1,0.3-0.2,0.7-0.3,1C144.4,384,144.3,384.2,144.3,384.4L144.3,384.4z M155.5,384.2v5c0,0-0.1,0.1-0.1,0.1
				c-0.1,0-0.2-0.1-0.3-0.2c-0.3-0.1-0.4,0.1-0.6,0.1c-0.2,0-0.5-0.3-0.5-0.5c0-0.1,0.1-0.3,0.1-0.4c0-0.1,0.1-0.2,0.1-0.3
				c0-0.1-0.2-0.2-0.3-0.3c-0.2,0-0.5,0.1-0.8,0c0-0.1,0.1-0.1,0.1-0.2c0,0,0-0.1,0-0.1c0-0.1,0.1-0.1,0.1-0.2c0-0.1,0-0.1,0.1-0.2
				c0-0.1,0.1-0.1,0.1-0.2c0-0.1,0-0.2-0.1-0.2c-0.2,0-0.3,0-0.4,0.1c-0.2,0.1-0.2,0.4-0.4,0.5c-0.1,0-0.2,0-0.3,0
				c-0.1,0-0.2,0.1-0.3,0.1c-0.1,0-0.3-0.1-0.3-0.2c-0.1-0.1-0.2-0.3-0.2-0.4c-0.1-0.3,0-0.7,0.1-0.9c0,0,0.1-0.1,0.1-0.1
				c0-0.1,0-0.2,0-0.3c0-0.2,0.3-0.3,0.4-0.3c0.2-0.1,0.3-0.2,0.5-0.2c0.1,0,0.2,0,0.3,0c0.1,0,0.2,0.1,0.2,0.1
				c0.2,0,0.3-0.1,0.4-0.2c0.2,0,0.3,0,0.5,0c0.1,0,0.2,0.1,0.3,0.1c0.1,0,0.1-0.1,0.2-0.1c0.1,0,0.2,0.2,0.2,0.2
				c0,0.1-0.1,0.2,0,0.3c0.1,0.1,0.3,0.1,0.5,0.2c0.1-0.1,0-0.2,0-0.4c0-0.1,0-0.1,0-0.1c0-0.1,0-0.2,0-0.2
				C155.2,384.4,155.4,384.3,155.5,384.2z"/>
		</g>
		<g>
			<path class="st15" d="M255.3,480.4L255.3,480.4c-4.7,3.2-5.8,9.6-2.7,14.2l57,85.9c3.1,4.7,9.6,5.9,14.2,2.7l0,0
				c4.7-3.2,5.8-9.5,2.7-14.2l-57-85.9C266.4,478.4,260,477.3,255.3,480.4z"/>
			<polygon class="st15" points="300.1,608.3 300.1,587.7 272.5,524.7 356.8,524.7 356.8,608.3 			"/>
			<path class="st15" d="M251.2,510.5L251.2,510.5c-4.7,3.2-5.8,9.6-2.7,14.2l55.4,83.5h19.7c1-3,0.7-6.4-1.2-9.2l-57-85.9
				C262.3,508.5,255.8,507.3,251.2,510.5z"/>
			<path class="st15" d="M248.7,404.5L248.7,404.5c-4.7,3.2-5.8,9.6-2.7,14.2l54.9,82.7c3.1,4.7,9.6,5.9,14.2,2.7l0,0
				c4.7-3.2,5.8-9.5,2.7-14.2L263,407.2C259.9,402.5,253.4,401.3,248.7,404.5z"/>
			<g>
				<path class="st16" d="M333.5,396.5h-50.7c-9.8,0-17.9,8-17.9,17.9V549c0,9.8,8,17.9,17.9,17.9h50.7c9.8,0,17.9-8,17.9-17.9
					V414.4C351.3,404.6,343.3,396.5,333.5,396.5z"/>
				<path class="st17" d="M343.5,410.8h-70.7c-0.1,0-0.3,0.1-0.3,0.3v139.8c0,0.1,0.1,0.2,0.3,0.2h70.7c0.1,0,0.3-0.1,0.3-0.2V411.1
					C343.7,410.9,343.6,410.8,343.5,410.8z"/>
				<path class="st18" d="M321.2,402.6H295c-0.7,0-1.3,0.6-1.3,1.3l0,0c0,0.7,0.6,1.3,1.3,1.3h26.2c0.7,0,1.3-0.6,1.3-1.3l0,0
					C322.5,403.2,322,402.6,321.2,402.6z"/>
				<circle class="st18" cx="308.1" cy="558.8" r="4.4"/>
			</g>
			<path class="st15" d="M249.4,475.3L249.4,475.3c-4.7,3.2-5.9,9.6-2.7,14.2l9.1,13.5c3.2,4.7,9.6,5.9,14.2,2.7l0,0
				c4.7-3.2,5.9-9.6,2.7-14.2l-9.1-13.5C260.5,473.3,254.1,472.1,249.4,475.3z"/>
			<path class="st15" d="M245.8,502.6L245.8,502.6c-4.7,3.2-5.9,9.6-2.7,14.2l10.7,15.8c3.2,4.7,9.6,5.9,14.2,2.7l0,0
				c4.7-3.2,5.9-9.6,2.7-14.2l-10.7-15.8C256.9,500.6,250.5,499.4,245.8,502.6z"/>
			<path class="st15" d="M252.4,446.6L252.4,446.6c-4.7,3.2-5.9,9.6-2.7,14.2l9.1,13.5c3.2,4.7,9.6,5.9,14.2,2.7l0,0
				c4.7-3.2,5.9-9.6,2.7-14.2l-9.1-13.5C263.5,444.6,257.1,443.4,252.4,446.6z"/>
			<path class="st15" d="M349.9,587.6l-7.2,0l0.8-9l6.3-71.9c1.3-15,11.5-17,21-17l-7.4,84.9C362.6,581.8,356.6,587.6,349.9,587.6z"
				/>
		</g>
		<path class="st11" d="M139.1,218.3l0.2-1.7l-1.5,0.9l-0.6-0.3c0.1-0.3,0.1-0.7-0.1-1c-0.2-0.2-0.5-0.4-0.7-0.4
			c0.7-1,1.2-2,1.6-3.2c1.4-3.9,0.9-8.6-1.3-12.8c-2.6-5-7.3-8.7-13-10.3c-0.1-0.5-0.6-1-1.1-1c-0.2,0-0.4,0.1-0.6,0.2
			c-0.2-0.2-0.5-0.4-0.8-0.4c-0.6,0-1.2,0.5-1.2,1.2c0,0.6,0.5,1.2,1.2,1.2c0.2,0,0.4-0.1,0.6-0.2c0.2,0.2,0.5,0.4,0.8,0.4
			c0.3,0,0.6-0.1,0.8-0.3c5.4,1.5,9.9,5.1,12.4,9.8c2.1,3.9,2.5,8.3,1.2,11.9c-2.3,6.4-9.6,10.8-16.5,9.7c-9-1.4-12.2-10.9-12.5-12
			c-2.2-7.1,0.4-15.3,6.7-20.9c0.1,0,0.3,0.1,0.4,0.1c0.6,0,1.2-0.5,1.2-1.2c0.5-0.1,0.9-0.5,1-1.1c0.6-0.1,1-0.6,1-1.1c0,0,0,0,0,0
			c0.5-0.1,0.9-0.6,0.9-1.1c0.5-0.1,0.9-0.5,1-1.1c0.6-0.1,1-0.6,1-1.1c0-0.6-0.5-1.2-1.2-1.2c-0.6,0-1.1,0.5-1.2,1.1
			c-0.6,0.1-1,0.6-1,1.1c-0.5,0.1-1,0.6-1,1.1c0,0,0,0,0,0c-0.5,0.1-0.9,0.6-0.9,1.1c-0.6,0.1-1,0.6-1,1.1c-0.5,0.1-1,0.6-1,1.1
			c0,0.1,0,0.2,0,0.2c-6.6,5.8-9.3,14.5-7,22c0.2,0.8,1.9,5.9,6.2,9.5c-0.2,0.1-0.3,0.2-0.5,0.3c-0.2,0.3-0.2,0.7-0.1,1l-0.6,0.3
			l-1.5-0.8l0.3,1.7l-1.2,1.2l1.7,0.2l0.8,1.5l0.7-1.5l1.7-0.3l-1.2-1.2l0.1-0.6c0.3,0,0.7-0.1,0.9-0.4c0.1-0.1,0.2-0.3,0.2-0.5
			c1.1,0.8,2.4,1.4,3.8,1.8c0,0.1-0.1,0.2-0.1,0.3c0,0.2,0,0.4,0.1,0.6c-0.9,0.2-1.6,0.9-1.8,1.8c-0.2,1.2,0.7,2.3,1.8,2.5
			c1.2,0.2,2.3-0.7,2.5-1.8c0.1-1-0.4-1.9-1.2-2.3c0.2-0.1,0.3-0.3,0.3-0.5c0,0,0-0.1,0-0.1c0.2,0,0.3,0.1,0.5,0.1
			c0.7,0.1,1.5,0.2,2.2,0.2c0.7,0,1.4-0.1,2.2-0.2c0,0.1,0,0.2,0,0.3c0.1,0.4,0.3,0.6,0.6,0.7l-0.2,0.6l-1.6,0.5l1.4,1l0,1.7l1.4-1
			l1.6,0.5l-0.6-1.6l1-1.4l-1.7,0l-0.4-0.5c0.3-0.2,0.4-0.5,0.4-0.9c0-0.1-0.1-0.3-0.2-0.4c1.5-0.4,3-1,4.4-1.8c0,0.2,0,0.4,0.2,0.5
			c0.1,0.2,0.3,0.3,0.5,0.4c-0.6,0.7-0.6,1.8-0.1,2.6c0.7,1,2,1.2,3,0.6c1-0.7,1.2-2,0.6-3c-0.5-0.8-1.5-1.1-2.4-0.9
			c0-0.2,0-0.4-0.1-0.6c-0.1-0.1-0.2-0.3-0.4-0.3c1.3-0.9,2.4-1.9,3.4-3.1c0,0.1,0.1,0.2,0.2,0.3c0.2,0.3,0.6,0.4,0.9,0.3l0.1,0.6
			l-1.2,1.3l1.7,0.2l0.8,1.5l0.7-1.6l1.7-0.3L139.1,218.3z M121.1,190.1c-0.3,0-0.6-0.3-0.6-0.6c0-0.3,0.3-0.6,0.6-0.6
			c0.2,0,0.3,0.1,0.5,0.2c-0.1,0.2-0.2,0.4-0.2,0.6c0,0.1,0,0.2,0,0.3C121.3,190.1,121.2,190.1,121.1,190.1z M122.1,190.1
			c0.1-0.2,0.2-0.4,0.2-0.6c0-0.1,0-0.2,0-0.3c0.1-0.1,0.2-0.1,0.4-0.1c0.3,0,0.5,0.2,0.6,0.5l-0.1,0.5c-0.1,0.1-0.3,0.2-0.5,0.2
			C122.4,190.3,122.2,190.2,122.1,190.1z M120,181.8c0.3,0,0.6,0.3,0.6,0.6c0,0.3-0.2,0.6-0.6,0.6c-0.1-0.3-0.4-0.5-0.6-0.6
			c0,0,0,0,0,0C119.4,182.1,119.6,181.8,120,181.8z M118.9,182.9c0.1,0.3,0.4,0.5,0.6,0.6c0,0,0,0,0,0c0,0.3-0.2,0.6-0.5,0.6
			c-0.1-0.3-0.4-0.5-0.7-0.6c0,0,0,0,0,0C118.4,183.2,118.6,183,118.9,182.9z M117.9,184.1c0.1,0.3,0.4,0.5,0.7,0.6c0,0,0,0,0,0
			c0,0.3-0.2,0.5-0.5,0.6c-0.1-0.3-0.4-0.5-0.7-0.6c0,0,0,0,0,0C117.4,184.4,117.6,184.1,117.9,184.1z M117,185.2
			c0.1,0.3,0.4,0.5,0.7,0.6c0,0,0,0,0,0c0,0.3-0.2,0.6-0.6,0.6c-0.1-0.3-0.4-0.5-0.6-0.6c0,0,0,0,0,0
			C116.5,185.5,116.7,185.3,117,185.2z M116,186.3c0.1,0.3,0.4,0.5,0.6,0.6c0,0,0,0,0,0c0,0.3-0.2,0.6-0.5,0.6
			c-0.1-0.3-0.4-0.5-0.7-0.6c0,0,0,0,0,0C115.5,186.6,115.7,186.3,116,186.3z M115.1,187.5c0.1,0.3,0.4,0.5,0.7,0.6c0,0,0,0,0,0
			c0,0.3-0.3,0.6-0.6,0.6c-0.3,0-0.6-0.3-0.6-0.6C114.5,187.7,114.7,187.5,115.1,187.5z M113.9,221c-0.1,0.2-0.3,0.2-0.5,0.2
			c-0.1,0-0.2,0-0.3-0.1c-0.1-0.1-0.2-0.1-0.2-0.2c-0.1-0.2-0.1-0.4,0.1-0.5c0.1-0.2,0.4-0.3,0.6-0.2c0.1,0.1,0.2,0.2,0.4,0.3
			C114,220.6,114,220.8,113.9,221z M119.4,223.1c0,0.3-0.3,0.4-0.5,0.4c-0.3,0-0.4-0.3-0.4-0.5c0-0.1,0-0.2,0.1-0.2
			c0.3,0.1,0.5,0.1,0.8,0.2C119.4,223,119.4,223.1,119.4,223.1z M132,221.4c-0.2,0.1-0.5,0.1-0.7-0.1c-0.1-0.2-0.1-0.5,0.1-0.7
			c0.2-0.1,0.5-0.1,0.7,0.1C132.3,221,132.2,221.2,132,221.4z M126.2,223.2c0,0.2,0,0.4-0.2,0.5c-0.1,0.1-0.2,0.1-0.3,0.1
			c-0.1,0-0.2,0-0.3,0c-0.2-0.1-0.3-0.2-0.3-0.4c0-0.1,0-0.2,0.1-0.3c0.3,0,0.5-0.1,0.8-0.2C126.1,223,126.2,223.1,126.2,223.2z
			 M136.9,217c0,0.1-0.1,0.2-0.2,0.2c-0.1,0.1-0.2,0.1-0.3,0.1c-0.2,0-0.4,0-0.5-0.2c-0.1-0.2-0.2-0.4,0-0.6c0,0,0,0,0.1-0.1
			c0,0,0,0,0.1-0.1c0.2-0.2,0.6-0.2,0.8,0.1C136.9,216.6,137,216.8,136.9,217z"/>
		<g>
			<g>
				<polygon class="st11" points="415.6,90.8 413.3,94.1 409.3,94.1 411.4,90.8 				"/>
			</g>
			<g>
				<polygon class="st11" points="414.9,89.2 412.4,89.2 413.3,87.9 				"/>
			</g>
			<g>
				<polygon class="st11" points="410,90.8 408.1,93.7 406.2,90.8 				"/>
			</g>
			<g>
				<polygon class="st11" points="404.8,90.8 406.9,94.1 402.9,94.1 400.6,90.8 				"/>
			</g>
			<polygon class="st11" points="406.2,90.8 408.1,93.7 410,90.8 			"/>
			<polygon class="st11" points="402.9,87.9 401.4,89.2 403.8,89.2 			"/>
			<polygon class="st11" points="400.6,90.8 402.9,94.1 406.9,94.1 404.8,90.8 			"/>
			<polygon class="st11" points="414.9,89.2 413.3,87.9 412.4,89.2 			"/>
			<polygon class="st11" points="409.3,94.1 413.3,94.1 415.6,90.8 411.4,90.8 			"/>
			<path class="st11" d="M414,95.6c-1.8-0.8-3.8-1.2-5.9-1.2c-2.1,0-4.1,0.4-5.9,1.2c-5.4,2.3-9.1,7.6-9.1,13.8c0,8.3,6.7,15,15,15
				s15-6.7,15-15C423.1,103.3,419.3,97.9,414,95.6z M408.1,121.7c-6.7,0-12.2-5.5-12.2-12.2c0-6.7,5.5-12.2,12.2-12.2
				s12.2,5.5,12.2,12.2C420.3,116.2,414.8,121.7,408.1,121.7z"/>
			<polygon class="st11" points="411,89.2 411.9,87.7 404.3,87.7 405.2,89.2 			"/>
			<g>
				<polygon class="st11" points="402.9,87.9 403.8,89.2 401.4,89.2 				"/>
			</g>
		</g>
		<g>
			<path class="st11" d="M494.2,240.6h-0.4c0,0,0,0,0-0.1v-0.7c0.6-0.2,1-0.7,1-1.3c0-0.1,0-0.1,0-0.2c0-0.7-0.4-1.3-1.1-1.5v0h1.5
				l-7-13.1c0.5-0.3,0.8-0.8,0.8-1.3c0-0.7-0.4-1.3-1.1-1.5v-0.4c0.4-0.2,0.7-0.6,0.7-1.1c0-0.5-0.3-0.9-0.7-1.1c0,0,0-0.1,0-0.1v-2
				c0-0.1-0.1-0.2-0.2-0.2h-0.1v-0.5c0.1-0.4,0.5-3.5-0.3-4.3c-0.2-0.2-0.3-0.1-0.4-0.1c-0.2,0.1-0.4,0.4-0.4,2.3c0,1,0,2,0,2l0.4,0
				c-0.1-1.7-0.1-3.6,0.2-4c0,0,0,0,0,0c0.5,0.5,0.3,3.1,0.2,4l0,0v0.5h-0.1c-0.1,0-0.2,0.1-0.2,0.2v2c0,0,0,0.1,0,0.1
				c-0.4,0.2-0.7,0.6-0.7,1.1c0,0.5,0.3,0.9,0.7,1.1v0.4c-0.6,0.2-1.1,0.8-1.1,1.5c0,0.6,0.3,1.1,0.8,1.3l-7,13.1h1.4v0
				c-0.6,0.2-1.1,0.8-1.1,1.5c0,0.1,0,0.1,0,0.2c0.1,0.6,0.5,1.1,1,1.3v0.7c0,0,0,0,0,0.1h-0.4l0,0.1c-0.1,0.2-1.7,4-0.7,5.6
				c0.3,0.5,0.9,0.8,1.6,0.8c0.7,0,1.3-0.3,1.6-0.8c1.1-1.7-0.6-5.5-0.6-5.6l0-0.1h-0.4c0,0,0,0,0-0.1v-0.7c0.6-0.2,1-0.7,1-1.3
				c0-0.1,0-0.1,0-0.2c0-0.7-0.4-1.3-1.1-1.5v0h4.9v0c-0.6,0.2-1.1,0.8-1.1,1.5c0,0.1,0,0.1,0,0.2c0.1,0.6,0.5,1.1,1,1.3v0.7
				c0,0,0,0,0,0.1c-0.8,0.2-1.4,0.9-1.4,1.8c0,0.8,0.6,1.6,1.4,1.8v0.8c-0.4,0.2-0.7,0.6-0.7,1.1c0,0.5,0.3,0.9,0.7,1.1c0,0,0,0,0,0
				v0.7c0,0,0,0,0,0.1h-0.4l0,0.1c-0.1,0.2-1.7,4-0.7,5.6c0.3,0.5,0.9,0.8,1.6,0.8c0.7,0,1.3-0.3,1.6-0.8c1.1-1.7-0.6-5.5-0.6-5.6
				l0-0.1H488c0,0,0,0,0-0.1v-0.7c0,0,0,0,0,0c0.4-0.2,0.7-0.6,0.7-1.1c0-0.4-0.2-0.7-0.4-0.9c-0.1-0.1-0.2-0.1-0.3-0.2v-0.8
				c0.8-0.2,1.4-0.9,1.4-1.8c0-0.9-0.6-1.6-1.4-1.8c0,0,0,0,0-0.1v-0.7c0.6-0.2,1-0.7,1-1.3c0-0.1,0-0.1,0-0.2
				c0-0.7-0.4-1.3-1.1-1.5v0h4.8v0c-0.6,0.2-1.1,0.8-1.1,1.5c0,0.1,0,0.1,0,0.2c0.1,0.6,0.5,1.1,1,1.3v0.7c0,0,0,0,0,0.1h-0.4l0,0.1
				c-0.1,0.2-1.7,4-0.6,5.6c0.3,0.5,0.9,0.8,1.6,0.8c0.7,0,1.3-0.3,1.6-0.8c1.1-1.7-0.6-5.5-0.6-5.6L494.2,240.6z M487,219.5
				c0-0.2,0.1-0.4,0.3-0.5c0.1,0,0.1-0.1,0.2-0.1s0.2,0,0.2,0.1c0.2,0.1,0.3,0.3,0.3,0.5c0,0.2-0.1,0.3-0.2,0.4c0,0-0.1,0-0.1,0
				h-0.5c0,0-0.1,0-0.1,0C487.1,219.8,487,219.6,487,219.5z M486.6,222.4c0-0.4,0.2-0.7,0.5-0.8c0,0.1,0.1,0.1,0.2,0.1h0.5
				c0.1,0,0.2-0.1,0.2-0.1c0.3,0.2,0.5,0.5,0.5,0.8c0,0.3-0.2,0.6-0.5,0.8c-0.1,0.1-0.2,0.1-0.3,0.1c0,0-0.1,0-0.1,0
				c0,0-0.1,0-0.1,0c-0.1,0-0.2-0.1-0.3-0.1C486.8,223,486.6,222.7,486.6,222.4z M487.5,224.3l2.3,4.3c-0.7-0.4-1.4-0.6-2.3-0.6
				c-0.8,0-1.6,0.2-2.3,0.6L487.5,224.3z M482.6,238.3c0,0,0,0.1,0,0.1c0,0.3-0.2,0.5-0.5,0.7c0-0.1-0.1-0.1-0.1-0.2
				c0,0-0.1,0-0.1,0h-0.5c0,0-0.1,0-0.1,0c-0.1,0-0.1,0.1-0.1,0.2c-0.2-0.1-0.4-0.4-0.5-0.7c0,0,0-0.1,0-0.1c0-0.4,0.2-0.7,0.5-0.8
				c0,0.1,0.1,0.1,0.2,0.1h0.5c0.1,0,0.2-0.1,0.2-0.1C482.4,237.7,482.6,238,482.6,238.3z M482.1,235.9
				C482.1,235.9,482.1,235.9,482.1,235.9c-0.1-0.1-0.1-0.1-0.2-0.1h-0.5c0,0-0.1,0-0.1,0l1.8-3.3c0.1,1.4,0.8,2.6,1.8,3.4H482.1z
				 M488.1,246.1c0,0.1,0,0.2-0.1,0.3c0,0-0.1-0.1-0.1-0.1c0,0-0.1,0-0.1,0h-0.5c0,0-0.1,0-0.1,0c0,0-0.1,0-0.1,0.1
				c-0.1-0.1-0.1-0.2-0.1-0.3c0-0.2,0.1-0.3,0.2-0.4c0,0,0.1,0,0.1,0h0.5c0,0,0.1,0,0.1,0C488,245.7,488.1,245.9,488.1,246.1z
				 M488.5,238.3c0,0,0,0.1,0,0.1c0,0.3-0.2,0.5-0.5,0.7c0-0.1-0.1-0.1-0.1-0.2c0,0-0.1,0-0.1,0h-0.5c0,0-0.1,0-0.1,0
				c-0.1,0-0.1,0.1-0.1,0.2c-0.2-0.1-0.4-0.4-0.5-0.7c0,0,0-0.1,0-0.1c0-0.4,0.2-0.7,0.5-0.8c0,0.1,0.1,0.1,0.2,0.1h0.5
				c0.1,0,0.2-0.1,0.2-0.1C488.3,237.7,488.5,238,488.5,238.3z M487.5,235.8c-1.9,0-3.4-1.5-3.4-3.4c0-1.9,1.5-3.4,3.4-3.4
				c1.9,0,3.4,1.5,3.4,3.4C491,234.2,489.4,235.8,487.5,235.8z M490.1,235.9c1.1-0.8,1.8-2,1.8-3.4l1.8,3.3c0,0,0,0,0,0
				c0,0-0.1,0-0.1,0h-0.5c0,0-0.1,0-0.1,0c0,0-0.1,0-0.1,0.1H490.1z M493.7,239C493.6,239,493.6,239,493.7,239l-0.6,0
				c0,0-0.1,0-0.1,0c-0.1,0-0.1,0.1-0.1,0.2c-0.2-0.1-0.4-0.4-0.5-0.7c0,0,0-0.1,0-0.1c0-0.4,0.2-0.7,0.5-0.8c0,0.1,0.1,0.1,0.2,0.1
				h0.5c0.1,0,0.2-0.1,0.2-0.1c0.3,0.2,0.5,0.5,0.5,0.8c0,0,0,0.1,0,0.1c0,0.3-0.2,0.5-0.5,0.7C493.8,239.1,493.7,239,493.7,239z"/>
			<path class="st11" d="M512,240.6h-0.4c0,0,0,0,0-0.1v-0.7c0.6-0.2,1-0.7,1-1.3c0-0.1,0-0.1,0-0.2c0-0.7-0.4-1.3-1.1-1.5v0h1.5
				l-7-13.1c0.5-0.3,0.8-0.8,0.8-1.3c0-0.7-0.4-1.3-1.1-1.5v-0.4c0.4-0.2,0.7-0.6,0.7-1.1c0-0.5-0.3-0.9-0.7-1.1c0,0,0-0.1,0-0.1v-2
				c0-0.1-0.1-0.2-0.2-0.2h-0.1v-0.5c0.1-0.4,0.5-3.5-0.3-4.3c-0.2-0.2-0.3-0.1-0.4-0.1c-0.2,0.1-0.4,0.4-0.4,2.3c0,1,0,2,0,2l0.4,0
				c-0.1-1.7-0.1-3.6,0.2-4c0,0,0,0,0,0c0.5,0.5,0.3,3.1,0.2,4l0,0v0.5h-0.1c-0.1,0-0.2,0.1-0.2,0.2v2c0,0,0,0.1,0,0.1
				c-0.4,0.2-0.7,0.6-0.7,1.1c0,0.5,0.3,0.9,0.7,1.1v0.4c-0.6,0.2-1.1,0.8-1.1,1.5c0,0.6,0.3,1.1,0.8,1.3l-7,13.1h1.4v0
				c-0.6,0.2-1.1,0.8-1.1,1.5c0,0.1,0,0.1,0,0.2c0.1,0.6,0.5,1.1,1,1.3v0.7c0,0,0,0,0,0.1h-0.4l0,0.1c-0.1,0.2-1.7,4-0.7,5.6
				c0.3,0.5,0.9,0.8,1.6,0.8c0.7,0,1.3-0.3,1.6-0.8c1.1-1.7-0.6-5.5-0.6-5.6l0-0.1H500c0,0,0,0,0-0.1v-0.7c0.6-0.2,1-0.7,1-1.3
				c0-0.1,0-0.1,0-0.2c0-0.7-0.4-1.3-1.1-1.5v0h4.9v0c-0.6,0.2-1.1,0.8-1.1,1.5c0,0.1,0,0.1,0,0.2c0.1,0.6,0.5,1.1,1,1.3v0.7
				c0,0,0,0,0,0.1c-0.8,0.2-1.4,0.9-1.4,1.8c0,0.8,0.6,1.6,1.4,1.8v0.8c-0.4,0.2-0.7,0.6-0.7,1.1c0,0.5,0.3,0.9,0.7,1.1c0,0,0,0,0,0
				v0.7c0,0,0,0,0,0.1h-0.4l0,0.1c-0.1,0.2-1.7,4-0.7,5.6c0.3,0.5,0.9,0.8,1.6,0.8c0.7,0,1.3-0.3,1.6-0.8c1.1-1.7-0.6-5.5-0.6-5.6
				l0-0.1h-0.4c0,0,0,0,0-0.1v-0.7c0,0,0,0,0,0c0.4-0.2,0.7-0.6,0.7-1.1c0-0.4-0.2-0.7-0.4-0.9c-0.1-0.1-0.2-0.1-0.3-0.2v-0.8
				c0.8-0.2,1.4-0.9,1.4-1.8c0-0.9-0.6-1.6-1.4-1.8c0,0,0,0,0-0.1v-0.7c0.6-0.2,1-0.7,1-1.3c0-0.1,0-0.1,0-0.2
				c0-0.7-0.4-1.3-1.1-1.5v0h4.8v0c-0.6,0.2-1.1,0.8-1.1,1.5c0,0.1,0,0.1,0,0.2c0.1,0.6,0.5,1.1,1,1.3v0.7c0,0,0,0,0,0.1h-0.4l0,0.1
				c-0.1,0.2-1.7,4-0.6,5.6c0.3,0.5,0.9,0.8,1.6,0.8s1.3-0.3,1.6-0.8c1.1-1.7-0.6-5.5-0.6-5.6L512,240.6z M504.8,219.5
				c0-0.2,0.1-0.4,0.3-0.5c0.1,0,0.1-0.1,0.2-0.1c0.1,0,0.2,0,0.2,0.1c0.2,0.1,0.3,0.3,0.3,0.5c0,0.2-0.1,0.3-0.2,0.4
				c0,0-0.1,0-0.1,0h-0.5c0,0-0.1,0-0.1,0C504.9,219.8,504.8,219.6,504.8,219.5z M504.4,222.4c0-0.4,0.2-0.7,0.5-0.8
				c0,0.1,0.1,0.1,0.2,0.1h0.5c0.1,0,0.2-0.1,0.2-0.1c0.3,0.2,0.5,0.5,0.5,0.8c0,0.3-0.2,0.6-0.5,0.8c-0.1,0.1-0.2,0.1-0.3,0.1
				c0,0-0.1,0-0.1,0c0,0-0.1,0-0.1,0c-0.1,0-0.2-0.1-0.3-0.1C504.6,223,504.4,222.7,504.4,222.4z M505.4,224.3l2.3,4.3
				c-0.7-0.4-1.4-0.6-2.3-0.6c-0.8,0-1.6,0.2-2.3,0.6L505.4,224.3z M500.5,238.3c0,0,0,0.1,0,0.1c0,0.3-0.2,0.5-0.5,0.7
				c0-0.1-0.1-0.1-0.1-0.2c0,0-0.1,0-0.1,0h-0.5c0,0-0.1,0-0.1,0c-0.1,0-0.1,0.1-0.1,0.2c-0.2-0.1-0.4-0.4-0.5-0.7c0,0,0-0.1,0-0.1
				c0-0.4,0.2-0.7,0.5-0.8c0,0.1,0.1,0.1,0.2,0.1h0.5c0.1,0,0.2-0.1,0.2-0.1C500.3,237.7,500.5,238,500.5,238.3z M499.9,235.9
				C499.9,235.9,499.9,235.9,499.9,235.9c-0.1-0.1-0.1-0.1-0.2-0.1h-0.5c0,0-0.1,0-0.1,0l1.8-3.3c0.1,1.4,0.8,2.6,1.8,3.4H499.9z
				 M505.9,246.1c0,0.1,0,0.2-0.1,0.3c0,0-0.1-0.1-0.1-0.1c0,0-0.1,0-0.1,0h-0.5c0,0-0.1,0-0.1,0c0,0-0.1,0-0.1,0.1
				c-0.1-0.1-0.1-0.2-0.1-0.3c0-0.2,0.1-0.3,0.2-0.4c0,0,0.1,0,0.1,0h0.5c0,0,0.1,0,0.1,0C505.8,245.7,505.9,245.9,505.9,246.1z
				 M506.3,238.3c0,0,0,0.1,0,0.1c0,0.3-0.2,0.5-0.5,0.7c0-0.1-0.1-0.1-0.1-0.2c0,0-0.1,0-0.1,0h-0.5c0,0-0.1,0-0.1,0
				c-0.1,0-0.1,0.1-0.1,0.2c-0.2-0.1-0.4-0.4-0.5-0.7c0,0,0-0.1,0-0.1c0-0.4,0.2-0.7,0.5-0.8c0,0.1,0.1,0.1,0.2,0.1h0.5
				c0.1,0,0.2-0.1,0.2-0.1C506.1,237.7,506.3,238,506.3,238.3z M505.4,235.8c-1.9,0-3.4-1.5-3.4-3.4c0-1.9,1.5-3.4,3.4-3.4
				s3.4,1.5,3.4,3.4C508.8,234.2,507.3,235.8,505.4,235.8z M507.9,235.9c1.1-0.8,1.8-2,1.8-3.4l1.8,3.3c0,0,0,0,0,0c0,0-0.1,0-0.1,0
				h-0.5c0,0-0.1,0-0.1,0c0,0-0.1,0-0.1,0.1H507.9z M511.5,239C511.5,239,511.4,239,511.5,239l-0.6,0c0,0-0.1,0-0.1,0
				c-0.1,0-0.1,0.1-0.1,0.2c-0.2-0.1-0.4-0.4-0.5-0.7c0,0,0-0.1,0-0.1c0-0.4,0.2-0.7,0.5-0.8c0,0.1,0.1,0.1,0.2,0.1h0.5
				c0.1,0,0.2-0.1,0.2-0.1c0.3,0.2,0.5,0.5,0.5,0.8c0,0,0,0.1,0,0.1c0,0.3-0.2,0.5-0.5,0.7C511.6,239.1,511.5,239,511.5,239z"/>
		</g>
		<g>
			<path class="st11" d="M196.6,122.5v-1.9c0-2-6.1-3-12.2-3c-6,0-12.2,1-12.2,3v1.9c0,2,6.1,3,12.2,3
				C190.5,125.5,196.6,124.5,196.6,122.5z M184.4,120.2c4.9,0,8.5,0.6,10.3,1.4c-1.8,0.7-5.4,1.4-10.3,1.4s-8.5-0.6-10.3-1.4
				C175.9,120.8,179.5,120.2,184.4,120.2z M172.9,122.5v-0.9c0.1,0.1,0.3,0.2,0.4,0.3c2,1.1,6.6,1.7,11,1.7c4.5,0,9-0.6,11-1.7
				c0.2-0.1,0.3-0.2,0.4-0.3v0.9c0,1-4.4,2.3-11.5,2.3C177.3,124.8,172.9,123.5,172.9,122.5z"/>
			<path class="st11" d="M193.2,125.4c-6,0-12.2,1-12.2,3v1.9c0,2,6.1,3,12.2,3c6,0,12.2-1,12.2-3v-1.9
				C205.3,126.4,199.2,125.4,193.2,125.4z M193.2,128c4.9,0,8.5,0.6,10.3,1.4c-1.8,0.7-5.4,1.4-10.3,1.4s-8.5-0.6-10.3-1.4
				C184.6,128.6,188.2,128,193.2,128z M204.6,130.3c0,1-4.4,2.3-11.5,2.3c-7.1,0-11.5-1.4-11.5-2.3v-0.9c0.1,0.1,0.3,0.2,0.4,0.3
				c2,1.1,6.6,1.7,11,1.7c4.5,0,9-0.6,11-1.7c0.2-0.1,0.3-0.2,0.4-0.3V130.3z"/>
		</g>
		<path class="st11" d="M104.4,325.3c0-1.2-0.9-2.2-2.1-2.2c0-0.1,0-0.2,0-0.3c0.8-0.4,1.3-1.1,1.3-2c0-1.2-1-2.2-2.2-2.2
			c-0.3,0-0.5,0-0.7,0.1c0-0.1-0.1-0.1-0.1-0.2c0.4-0.4,0.6-1,0.6-1.6c0-1.2-1-2.2-2.2-2.2c-0.6,0-1.1,0.2-1.5,0.6
			c-0.1-0.1-0.2-0.1-0.2-0.2c0.1-0.3,0.2-0.5,0.2-0.8c0-1.2-1-2.2-2.2-2.2c-0.9,0-1.7,0.6-2,1.3c-0.1,0-0.2,0-0.3-0.1
			c-0.1-1.2-1-2.1-2.2-2.1s-2.2,0.9-2.2,2.1c-0.1,0-0.2,0-0.3,0.1c-0.3-0.8-1.1-1.3-2-1.3c-1.2,0-2.2,1-2.2,2.2
			c0,0.3,0.1,0.6,0.2,0.8c-0.1,0.1-0.2,0.1-0.2,0.2c-0.4-0.4-0.9-0.6-1.5-0.6c-1.2,0-2.2,1-2.2,2.2c0,0.6,0.2,1.2,0.6,1.6
			c0,0.1-0.1,0.1-0.1,0.2c-0.2-0.1-0.5-0.1-0.7-0.1c-1.2,0-2.2,1-2.2,2.2c0,0.9,0.5,1.6,1.3,2c0,0.1,0,0.2,0,0.3
			c-1.2,0-2.1,1-2.1,2.2c0,1.2,0.9,2.2,2.1,2.2c0,0.1,0,0.1,0,0.2c-0.7,0.4-1.3,1.1-1.3,2c0,1.2,1,2.2,2.2,2.2c0.2,0,0.5,0,0.7-0.1
			c0,0.1,0.1,0.1,0.1,0.2c-0.4,0.4-0.6,0.9-0.6,1.5c0,1.2,1,2.2,2.2,2.2c0.6,0,1.1-0.2,1.5-0.6c0.1,0.1,0.2,0.1,0.3,0.2
			c-0.1,0.2-0.1,0.5-0.1,0.8c0,1.2,1,2.2,2.2,2.2c0.9,0,1.7-0.5,2-1.3c0.1,0,0.2,0,0.3,0.1c0,1.2,1,2.1,2.2,2.1s2.2-0.9,2.2-2.1
			c0.1,0,0.2,0,0.3-0.1c0.4,0.8,1.1,1.3,2,1.3c1.2,0,2.2-1,2.2-2.2c0-0.3-0.1-0.5-0.1-0.8c0.1-0.1,0.2-0.1,0.3-0.2
			c0.4,0.4,0.9,0.6,1.5,0.6c1.2,0,2.2-1,2.2-2.2c0-0.6-0.2-1.1-0.6-1.5c0-0.1,0.1-0.1,0.1-0.2c0.2,0.1,0.5,0.1,0.7,0.1
			c1.2,0,2.2-1,2.2-2.2c0-0.9-0.5-1.6-1.3-2c0-0.1,0-0.1,0-0.2C103.5,327.4,104.4,326.4,104.4,325.3z M101.3,327.4
			c-1.2,0-2.2,1-2.2,2.2c0,0.8,0.4,1.4,1,1.8c0,0,0,0.1-0.1,0.1c-0.3-0.2-0.7-0.3-1.1-0.3c-1.2,0-2.2,1-2.2,2.2
			c0,0.4,0.1,0.8,0.3,1.2c-0.1,0-0.1,0.1-0.2,0.1c-0.4-0.5-1.1-0.9-1.8-0.9c-1.2,0-2.2,1-2.2,2.2c0,0.1,0,0.2,0,0.4
			c-0.1,0-0.1,0-0.2,0c-0.2-1-1.1-1.7-2.2-1.7c-1.1,0-1.9,0.7-2.2,1.7c-0.1,0-0.2,0-0.2,0c0-0.1,0-0.2,0-0.4c0-1.2-1-2.2-2.2-2.2
			c-0.7,0-1.4,0.4-1.8,0.9c-0.1,0-0.1-0.1-0.2-0.1c0.2-0.3,0.3-0.7,0.3-1.2c0-1.2-1-2.2-2.2-2.2c-0.4,0-0.8,0.1-1.1,0.3
			c0,0,0-0.1-0.1-0.1c0.6-0.4,1-1.1,1-1.8c0-1.2-1-2.2-2.2-2.2c-0.1,0-0.3,0-0.4,0c0,0,0,0,0-0.1c1-0.2,1.7-1.1,1.7-2.2
			c0-1.1-0.7-1.9-1.7-2.2c0,0,0-0.1,0-0.1c0.1,0,0.2,0,0.4,0c1.2,0,2.2-1,2.2-2.2c0-0.7-0.4-1.4-0.9-1.8c0,0,0-0.1,0.1-0.1
			c0.3,0.2,0.7,0.3,1.1,0.3c1.2,0,2.2-1,2.2-2.2c0-0.4-0.1-0.8-0.3-1.1c0.1,0,0.1-0.1,0.2-0.1c0.4,0.5,1,0.9,1.8,0.9
			c1.2,0,2.2-1,2.2-2.2c0-0.1,0-0.2,0-0.3c0.1,0,0.1,0,0.2,0c0.2,1,1.1,1.7,2.2,1.7c1.1,0,1.9-0.7,2.2-1.7c0.1,0,0.1,0,0.2,0
			c0,0.1,0,0.2,0,0.3c0,1.2,1,2.2,2.2,2.2c0.7,0,1.3-0.3,1.8-0.9c0.1,0,0.1,0.1,0.2,0.1c-0.2,0.3-0.3,0.7-0.3,1.1
			c0,1.2,1,2.2,2.2,2.2c0.4,0,0.8-0.1,1.1-0.3c0,0,0,0.1,0.1,0.1c-0.6,0.4-0.9,1.1-0.9,1.8c0,1.2,1,2.2,2.2,2.2c0.1,0,0.3,0,0.4,0
			c0,0,0,0.1,0,0.1c-1,0.2-1.7,1.1-1.7,2.2c0,1.1,0.7,1.9,1.7,2.2c0,0,0,0,0,0.1C101.6,327.5,101.4,327.4,101.3,327.4z"/>
		<g>
			<g>
				<path class="st11" d="M518.4,126.9c-0.1,0-0.2,0-0.3,0c-0.1,0.3-0.3,0.6-0.5,0.9c-0.4,0.6-1,1.1-1.6,1.7c-0.4,0.3-0.8,0.7-1.3,1
					c1.1-0.1,2.4-0.2,3.7-0.2c4.3,0,7.4,0.8,9,1.8c-1.5,0.9-4.7,1.8-9,1.8c-3.2,0-5.7-0.5-7.5-1.1c-0.2,0.1-0.5,0.2-0.7,0.3
					c-0.1,0-0.2,0.1-0.3,0.1c-0.4,0.2-0.9,0.4-1.3,0.6c-0.2,0.1-0.4,0.2-0.6,0.2c0.9,2,5.7,3.1,10.5,3.1c5.3,0,10.6-1.3,10.6-3.8
					v-2.5C529,128.2,523.7,126.9,518.4,126.9z M512.5,135.6c-0.4-0.1-0.8-0.2-1.1-0.3l-0.3-0.8l0.6-0.6c0.4,0.1,0.8,0.2,1.2,0.3
					l0.3,0.8L512.5,135.6z M518.6,136.2c-0.1,0-0.5,0-0.8,0c-0.1,0-0.1,0-0.2,0c-0.1,0-0.2,0-0.2,0l-0.4-0.7l0.5-0.9
					c0.1,0,0.4,0,0.6,0c0.1,0,0.2,0,0.3,0c0.1,0,0.2,0,0.2,0l0.5,0.9L518.6,136.2z M523.7,135.7L523,135l0.3-0.8
					c0.4-0.1,0.8-0.1,1.2-0.2l0.6,0.7l-0.3,0.8C524.4,135.5,524.1,135.6,523.7,135.7z"/>
			</g>
			<path class="st11" d="M517.5,124.3l-0.5-1l-0.5-1.2l0-0.1c-1.1-2.3-6.5-1.3-11.3,1c-4.8,2.2-9.1,5.7-8,8l0,0.1l1,2.1
				c0.9,1.9,4.9,1.5,9,0c0.2-0.1,0.4-0.2,0.6-0.2c0.4-0.2,0.9-0.4,1.3-0.6c0.1,0,0.2-0.1,0.3-0.1c0.2-0.1,0.5-0.2,0.7-0.3
				c1.3-0.7,2.6-1.4,3.8-2.2c0.5-0.3,0.9-0.7,1.3-1c0.7-0.6,1.2-1.1,1.6-1.7c0.2-0.3,0.4-0.6,0.5-0.9
				C517.7,125.5,517.8,124.9,517.5,124.3z M512.7,126.6c-0.6,0.5-1.4,0.9-2.2,1.4c-0.7,0.4-1.5,0.8-2.4,1.2c0,0,0,0,0,0
				c-0.3,0.2-0.7,0.3-1,0.4c-3.4,1.5-6.3,1.9-7.9,1.7c1-1.5,3.5-3.6,7.4-5.4c3.9-1.8,7.1-2.4,8.9-2.2
				C515,124.7,514,125.6,512.7,126.6z"/>
		</g>
		<g>
			<path class="st6" d="M330.8,482.1h1.8c5,0,5.3-5.7,0-5.7l-1.8,0v0.5c1.3,0,2.4,1.1,2.4,2.4c0,1.3-1.1,2.4-2.4,2.4V482.1z
				 M289.3,482.1h41.5v-0.5c-1.3,0-2.4-1.1-2.4-2.4c0-1.3,1.1-2.4,2.4-2.4v-0.5c-13.8,0-27.6,0-41.5,0v0.5c1.3,0,2.4,1.1,2.4,2.4
				c0,1.3-1.1,2.4-2.4,2.4V482.1z M287.6,482.1h1.8v-0.5c-1.3,0-2.4-1.1-2.4-2.4c0-1.3,1.1-2.4,2.4-2.4v-0.5l-1.8,0
				C282.3,476.4,282.6,482.1,287.6,482.1z"/>
			<circle class="st6" cx="313.3" cy="459.3" r="2.4"/>
			<path class="st6" d="M331.7,478.6l-16.3-18.3c-0.4-0.4-1-0.5-1.5-0.1l0,0c-0.4,0.4-0.5,1-0.1,1.5l16.3,18.3
				c0.4,0.4,1,0.5,1.5,0.1l0,0C332.1,479.7,332.1,479.1,331.7,478.6z"/>
			<circle class="st6" cx="306.9" cy="459.3" r="2.4"/>
			<path class="st6" d="M288.4,478.6l17.8-19.9c0.4-0.4,1-0.5,1.5-0.1l0,0c0.4,0.4,0.5,1,0.1,1.5L290,480c-0.4,0.4-1,0.5-1.5,0.1
				l0,0C288.1,479.7,288,479.1,288.4,478.6z"/>
			<path class="st6" d="M323.9,483.8h8.4l-2.2,12.6c-0.5,2.7-1.8,4.8-6,4.8h-0.2v-3.8c0.6-0.3,1.1-0.9,1.1-1.6
				c0.2-1.4,0.4-2.9,0.6-4.3c0.2-1.4,0.4-2.9,0.6-4.3c0.1-1-0.6-1.8-1.7-1.8l0,0c-0.2,0-0.5,0-0.7,0.1V483.8z M317,483.8h6.9v1.7
				c-0.8,0.2-1.4,0.9-1.4,1.7c-0.1,1.4-0.3,2.9-0.5,4.3c-0.2,1.4-0.3,2.9-0.5,4.3c-0.1,1,0.6,1.8,1.5,1.8l0,0c0.3,0,0.6-0.1,0.8-0.2
				v3.8H317v-3.7c0.8-0.2,1.3-0.9,1.4-1.7c0.1-1.4,0.2-2.9,0.3-4.3c0.1-1.4,0.2-2.9,0.3-4.3c0.1-1-0.7-1.8-1.8-1.8l0,0
				c-0.1,0-0.2,0-0.3,0V483.8z M310.1,483.8h7v1.6c-0.9,0.1-1.7,0.9-1.7,1.7c-0.1,1.4-0.1,2.9-0.2,4.3c-0.1,1.4-0.1,2.9-0.2,4.3
				c0,1,0.7,1.8,1.6,1.8l0,0c0.1,0,0.3,0,0.4-0.1v3.7h-7v-3.6c0.9,0,1.7-0.8,1.7-1.8c0-1.4,0-2.9,0.1-4.3c0-1.4,0-2.9,0.1-4.3
				c0-1-0.8-1.8-1.9-1.8l0,0h0V483.8z M303.1,483.8h7v1.6c-1,0-1.9,0.8-1.9,1.8c0,1.4,0,2.9,0.1,4.3c0,1.4,0,2.9,0.1,4.3
				c0,1,0.8,1.8,1.7,1.8l0,0h0v3.6h-7v-3.7c0.1,0,0.3,0.1,0.4,0.1l0,0c0.9,0,1.7-0.8,1.6-1.8c-0.1-1.4-0.1-2.9-0.2-4.3
				c-0.1-1.4-0.1-2.9-0.2-4.3c0-0.9-0.8-1.6-1.7-1.7V483.8z M296.2,483.8h6.9v1.6c-0.1,0-0.2,0-0.3,0l0,0c-1.1,0-1.8,0.8-1.8,1.8
				c0.1,1.4,0.2,2.9,0.3,4.3c0.1,1.4,0.2,2.9,0.3,4.3c0.1,0.8,0.7,1.5,1.4,1.7v3.7h-6.9v-3.8c0.3,0.1,0.5,0.2,0.8,0.2l0,0
				c0.9,0,1.6-0.8,1.5-1.8c-0.2-1.4-0.3-2.9-0.5-4.3c-0.2-1.4-0.3-2.9-0.5-4.3c-0.1-0.8-0.7-1.4-1.4-1.7V483.8z M296,501.2
				c-4.2,0-5.5-2-6-4.8l-2.2-12.6h8.4v1.7c-0.2-0.1-0.4-0.1-0.7-0.1l0,0c-1.1,0-1.8,0.8-1.7,1.8c0.2,1.4,0.4,2.9,0.6,4.3
				c0.2,1.4,0.4,2.9,0.6,4.3c0.1,0.7,0.6,1.3,1.1,1.6v3.8H296z"/>
		</g>
	</g>
</g>
</svg>
