<?xml version="1.0" encoding="utf-8"?>
<!-- Generator: Adobe Illustrator 20.1.0, SVG Export Plug-In . SVG Version: 6.00 Build 0)  -->
<svg version="1.1" id="Layer_1" xmlns="http://www.w3.org/2000/svg" xmlns:xlink="http://www.w3.org/1999/xlink" x="0px" y="0px"
	 viewBox="0 0 612 612" style="enable-background:new 0 0 612 612;" xml:space="preserve">
<style type="text/css">
	.st0{fill:#FFCB05;}
	.st1{fill:#0089C0;}
	
		.st2{fill-rule:evenodd;clip-rule:evenodd;fill:none;stroke:#020303;stroke-width:2.88;stroke-miterlimit:22.9256;stroke-dasharray:2.88,8.64;}
	.st3{fill:#F4F1F0;}
	
		.st4{fill-rule:evenodd;clip-rule:evenodd;fill:none;stroke:#020202;stroke-width:2.88;stroke-miterlimit:22.9256;stroke-dasharray:2.88,8.64;}
	.st5{opacity:0.2;fill-rule:evenodd;clip-rule:evenodd;fill:#191919;}
	.st6{fill:#FFFFFF;}
	.st7{fill-rule:evenodd;clip-rule:evenodd;fill:#CCCCCB;}
	.st8{fill-rule:evenodd;clip-rule:evenodd;fill:#FFFFFF;}
	.st9{fill-rule:evenodd;clip-rule:evenodd;fill:#B3B4B4;}
	.st10{fill-rule:evenodd;clip-rule:evenodd;fill:#1D4C73;}
	.st11{fill-rule:evenodd;clip-rule:evenodd;fill:#EBB587;}
	.st12{fill:#FDFEFE;}
	.st13{fill:#020202;}
	.st14{fill:#F79226;}
	.st15{fill:#346996;}
	.st16{fill:#686059;}
</style>
<g>
	<circle class="st0" cx="306" cy="306" r="306"/>
	<path class="st1" d="M315.4,187.3c-11.1,0-20.7,6.5-25.1,15.9c-1.9-1-4.1-1.5-6.4-1.5c-7.1,0-13,5.2-14.2,12
		c-8.5,2.9-14.6,10.9-14.6,20.4c0,11.9,9.7,21.6,21.6,21.6h66.7v0c10.9-0.1,19.7-8.9,19.7-19.8c0-10.9-8.8-19.8-19.7-19.8
		c0-0.3,0-0.6,0-0.9C343.3,199.8,330.8,187.3,315.4,187.3L315.4,187.3z"/>
	<circle class="st2" cx="308.3" cy="287" r="224.4"/>
	<circle class="st3" cx="211.9" cy="79.9" r="46.2"/>
	<circle class="st3" cx="382.6" cy="73.4" r="46.2"/>
	<line class="st4" x1="309" y1="330.9" x2="309" y2="381.4"/>
	<path class="st5" d="M441.6,471.1c1.8-0.4,3.6-0.6,5.5-0.7c5.1-0.1,8.6,1.5,10.3,3.8c0.8,1.1,1.2,2.2,1.3,3.5
		c0.1,1.2-0.3,2.5-1,3.7c-1.7,2.8-5.6,5.3-11.8,6c-1.4,0.2-2.8,0.2-4.3,0.1v-1.4c1.4,0.1,2.8,0,4.1-0.1c5.7-0.7,9.2-2.9,10.7-5.3
		c0.6-1,0.8-1.9,0.8-2.9c0-0.9-0.4-1.9-1-2.7c-1.5-2-4.6-3.3-9.1-3.3c-1.9,0-3.7,0.3-5.5,0.7V471.1z M413.8,502.4L413.8,502.4
		L413.8,502.4L413.8,502.4L413.8,502.4L413.8,502.4L413.8,502.4c8.8-2.1,18.2,5.2,21.4,16.6c3.1,11.5-1.4,22.9-10.3,25.3
		s-18.6-5.2-21.7-16.5c-3.1-11.3,1.1-21.9,9.2-24.9c0.6-6.5,6.9-15.2,11.2-19.9c-0.6-0.3-1.3-0.5-1.9-0.8c-8.9-4-18.3-10-27.3-17
		v88.6c0,1.9-1.6,3.5-3.5,3.5h-75.3V452.6h60.2v-1.8h-60.2v-64.6h88c4.7,0,7.2,2,5.4,8.6l-15,56h-10.5v1.8h7.4
		c1.9,0,3.5,1.6,3.5,3.5v7.2c9.1,7.3,18.8,13.5,27.9,17.5c0.8,0.3,1.5,0.7,2.2,1c3.9-4.6,8.8-8.1,14.3-10c0.9-0.3,1.8-0.5,2.7-0.8
		v1.5c-0.8,0.2-1.5,0.4-2.3,0.6c-5.1,1.7-9.6,5-13.4,9.2c5.6,2.2,10.9,3.6,15.6,3.8v1.4c-5-0.2-10.6-1.6-16.6-4
		C418.6,491.5,415.7,496.1,413.8,502.4z M315.7,557.3h-75.3c-1.9,0-3.5-1.6-3.5-3.5v-97.6c0-1.9,1.6-3.5,3.5-3.5h7.4v-1.8h-10.9
		l-14.2-55.1c-2.1-8.1-0.8-9.5,4.6-9.5h88.4v64.6h-60.2v1.8h60.2V557.3z"/>
	<g>
		<path class="st6" d="M433.8,464.4c1.8-0.4,3.6-0.6,5.5-0.7c5.1-0.1,8.6,1.5,10.3,3.8c0.8,1.1,1.2,2.2,1.3,3.5
			c0.1,1.2-0.3,2.5-1,3.7c-1.7,2.8-5.6,5.3-11.8,6c-1.4,0.2-2.8,0.2-4.3,0.1v-1.4c1.4,0.1,2.8,0,4.1-0.1c5.7-0.7,9.2-2.9,10.7-5.3
			c0.6-1,0.8-1.9,0.8-2.9c0-0.9-0.4-1.9-1-2.7c-1.5-2-4.6-3.3-9.1-3.3c-1.9,0-3.7,0.3-5.5,0.7V464.4z M385.3,455.5
			c9.5,7.8,19.7,14.4,29.3,18.6c0.8,0.3,1.5,0.7,2.2,1c3.9-4.6,8.8-8.1,14.3-10c0.9-0.3,1.8-0.5,2.7-0.8v1.5
			c-0.8,0.2-1.5,0.4-2.3,0.6c-5.1,1.7-9.6,5-13.4,9.2c5.6,2.2,10.9,3.6,15.6,3.8v1.4c-5-0.2-10.6-1.6-16.6-4
			c-1.3,1.6-2.5,3.4-3.6,5.2c-4.3,7.3-6.7,16.2-6.5,24.8c0.1,4,0.7,7.9,2,11.7l-1.3,0.5c-1.3-3.9-1.9-8-2-12.1
			c-0.2-8.9,2.3-18,6.7-25.5c1-1.8,2.2-3.5,3.5-5.1c-0.6-0.3-1.3-0.5-1.9-0.8c-9.6-4.3-19.9-11-29.6-18.8L385.3,455.5z"/>
		<path class="st7" d="M219.5,379.5h176.3c4.7,0,7.2,2,5.4,8.6l-15,56H229.1L214.9,389C212.8,380.9,214.1,379.5,219.5,379.5z"/>
		<g>
			
				<ellipse transform="matrix(0.9647 -0.2634 0.2634 0.9647 -122.4935 127.3414)" class="st7" cx="413.7" cy="520.6" rx="16.6" ry="21.7"/>
			
				<ellipse transform="matrix(0.9647 -0.2634 0.2634 0.9647 -121.8883 127.0865)" class="st8" cx="413.1" cy="518.2" rx="13.7" ry="17.9"/>
			<path class="st9" d="M408,499.7c0.1,0,0.2-0.1,0.3-0.1l3,10.9l-0.7,0.2l-3-10.9C407.8,499.7,407.9,499.7,408,499.7z"/>
			<path class="st9" d="M407.6,502.8l2.5-0.7c0.6-0.2,1.1,0.2,1.3,0.7l3.1,11.3c0.2,0.6-0.2,1.1-0.7,1.3l-2.5,0.7
				c-0.6,0.2-1.1-0.2-1.3-0.7l-3.1-11.3C406.7,503.6,407,503,407.6,502.8z"/>
			<path class="st8" d="M408.3,503.5l1.4-0.4c0.3-0.1,0.6,0.1,0.7,0.4l2.9,10.6c0.1,0.3-0.1,0.6-0.4,0.7l-1.4,0.4
				c-0.3,0.1-0.6-0.1-0.7-0.4l-2.9-10.6C407.9,503.9,408,503.6,408.3,503.5z"/>
		</g>
	</g>
	<path class="st8" d="M232.6,445.9h150.5c1.9,0,3.5,1.6,3.5,3.5V547c0,1.9-1.6,3.5-3.5,3.5H232.6c-1.9,0-3.5-1.6-3.5-3.5v-97.6
		C229.1,447.5,230.7,445.9,232.6,445.9z"/>
	<path class="st9" d="M239.4,445.9h8.7v5c0,0.5-0.4,0.8-0.8,0.8h-7.1c-0.5,0-0.8-0.4-0.8-0.8V445.9z"/>
	<path class="st9" d="M367.6,445.9h8.7v5c0,0.5-0.4,0.8-0.8,0.8h-7.1c-0.5,0-0.8-0.4-0.8-0.8V445.9z"/>
	<polygon class="st10" points="392,393.8 381.1,436.6 234.3,436.6 223.3,393.8 	"/>
	<path class="st8" d="M240.7,441.4h6.2c0.4,0,0.7,0.3,0.7,0.7v7.4c0,0.4-0.3,0.7-0.7,0.7h-6.2c-0.4,0-0.7-0.3-0.7-0.7v-7.4
		C240,441.7,240.3,441.4,240.7,441.4z"/>
	<path class="st8" d="M368.8,441.4h6.2c0.4,0,0.7,0.3,0.7,0.7v7.4c0,0.4-0.3,0.7-0.7,0.7h-6.2c-0.4,0-0.7-0.3-0.7-0.7v-7.4
		C368.1,441.7,368.4,441.4,368.8,441.4z"/>
	
		<rect x="198.4" y="536.1" transform="matrix(0.497 -0.8678 0.8678 0.497 -367.2664 460.9073)" class="st11" width="31.1" height="22.3"/>
	
		<rect x="204.7" y="536.4" transform="matrix(0.497 -0.8678 0.8678 0.497 -372.2202 457.9576)" class="st8" width="8.4" height="27.3"/>
	<path class="st12" d="M322.2,413.5l3.4-2.9l-8.4-7.1l-8.3,7l-8.5-7l-8.3,7.2l3.2,2.7l5.2-4.3l4.9,4.3l-8.2,7l11.5,9.9l11.5-9.8
		l-8.2-7l5-4.3L322.2,413.5z M313.7,420.3l-4.9,4.3l-5-4.2l5-4.2L313.7,420.3z"/>
	<g>
		<g>
			<path class="st13" d="M238.5,55.8v43.8l-24.8,6.6c-0.1,0-0.3,0.1-0.5,0.1c-0.3,0-0.5,0-0.5-0.1l-24.8-6.6V55.8h23.8h3.2H238.5
				 M240.9,51.9h-26.1c-0.8,0-2.3,0-3.2,0h-26.1c-0.8,0-1.6,0.7-1.6,1.6V101c0,0.8,0.7,1.8,1.6,2l26.2,7c0.5,0.1,1,0.2,1.6,0.2
				c0.6,0,1.1-0.1,1.6-0.2l26.2-7c0.8-0.2,1.6-1.1,1.6-2V53.5C242.4,52.6,241.7,51.9,240.9,51.9L240.9,51.9z"/>
		</g>
		<g>
			<path class="st14" d="M188.2,96l23.5,6.4c0.8,0.2,2.1,0.2,2.9,0l23.6-6.4"/>
		</g>
		<g>
			<path class="st14" d="M191.4,86.8c0-1.2,0.8-2.2,2-2.2c1.2,0,2,0.9,2,2.2c0,1.2-0.8,2.1-2,2.1C192.2,89,191.4,88.1,191.4,86.8z"
				/>
			<path class="st14" d="M197.9,73.4h3.5l3.9,7.6l1.5,3.4h0.1c-0.1-1.6-0.4-3.8-0.4-5.6v-5.4h3.3v15.4h-3.4l-3.9-7.6l-1.5-3.3h-0.1
				c0.1,1.7,0.4,3.7,0.4,5.5v5.4H198L197.9,73.4L197.9,73.4z"/>
			<path class="st14" d="M212.6,73.4h9.4v2.9h-6v3.1h5.1v2.9H216v3.5h6.2v2.9h-9.6V73.4z"/>
			<path class="st14" d="M227.4,76.3h-4.1v-2.9h11.6v2.9h-4.1v12.4h-3.4L227.4,76.3L227.4,76.3z"/>
		</g>
	</g>
	<g>
		<path class="st6" d="M310.7,134.8l12.4,9.9l-12.4,11.7c0,0,58.9-1,73.6,60.4h-11.9l23.4,25.1l21.1-26.1l-11.7,0.5
			C405.1,216.4,398.2,139.3,310.7,134.8z"/>
		<path class="st6" d="M213.3,228.4l10.6-11.6l10.8,11.6c0,0-1-57.6,59.8-72.1V168l24.9-23.1L293.5,124l0.5,11.6
			C294,135.5,217.7,141.7,213.3,228.4z"/>
		<path class="st6" d="M307.3,326.6l-12.4-9.9l12.4-11.7c0,0-58.9,1-73.6-60.4h11.9L223,220.2l-21.9,25.4l11.7-0.5
			C212.8,245.1,219.8,322.1,307.3,326.6z"/>
		<path class="st6" d="M404.9,233.3l-9.8,12.3l-11.6-12.3c0,0,1,57.6-59.8,72.1v-11.8l-24.9,23.1l25.9,20.9l-0.5-11.6
			C324.1,326.1,400.4,320,404.9,233.3z"/>
	</g>
	<circle class="st3" cx="101.4" cy="351.3" r="46.4"/>
	<g>
		<path class="st13" d="M102.7,334.4V328c0-0.6-0.5-1.1-1.1-1.1c-0.6,0-1.1,0.5-1.1,1.1v6.4c-0.9,0.4-1.5,1.3-1.5,2.4
			c0,1.4,1.2,2.6,2.6,2.6c1.5,0,2.6-1.2,2.6-2.6C104.2,335.7,103.6,334.8,102.7,334.4z"/>
		<path class="st13" d="M119.1,334.4V328c0-0.6-0.5-1.1-1.1-1.1c-0.6,0-1.1,0.5-1.1,1.1v6.4c-0.9,0.4-1.5,1.3-1.5,2.4
			c0,1.4,1.2,2.6,2.6,2.6s2.6-1.2,2.6-2.6C120.7,335.7,120.1,334.8,119.1,334.4z"/>
		<rect x="87.3" y="330.7" class="st13" width="12.1" height="2.2"/>
		<rect x="103.8" y="330.7" class="st13" width="12.1" height="2.2"/>
		<path class="st13" d="M86.2,334.4V328c0-0.6-0.5-1.1-1.1-1.1c-0.6,0-1.1,0.5-1.1,1.1v6.4c-0.9,0.4-1.5,1.3-1.5,2.4
			c0,1.4,1.2,2.6,2.6,2.6c1.5,0,2.6-1.2,2.6-2.6C87.8,335.7,87.2,334.8,86.2,334.4z"/>
		<path class="st13" d="M127.3,330.7h-7.1v2.2h7.1c1.8,0,3.3,1.5,3.3,3.3v6H72.4v-6c0-1.8,1.5-3.3,3.3-3.3h7.1v-2.2h-7.1
			c-3,0-5.5,2.5-5.5,5.5v36.2c0,3,2.5,5.5,5.5,5.5h51.5c3,0,5.5-2.5,5.5-5.5v-36.2C132.7,333.2,130.3,330.7,127.3,330.7z
			 M127.3,375.7H75.7c-1.8,0-3.3-1.5-3.3-3.3v-28h58.1v28C130.6,374.2,129.1,375.7,127.3,375.7z"/>
		<g>
			<circle class="st14" cx="94.4" cy="351" r="1.8"/>
			<circle class="st14" cx="87.7" cy="351" r="1.8"/>
			<circle class="st14" cx="121.1" cy="351" r="1.8"/>
			<circle class="st14" cx="81" cy="357.1" r="1.8"/>
			<circle class="st14" cx="87.7" cy="357.1" r="1.8"/>
			<circle class="st14" cx="94.4" cy="357.1" r="1.8"/>
			<circle class="st14" cx="101.1" cy="357.1" r="1.8"/>
			<circle class="st14" cx="107.7" cy="357.1" r="1.8"/>
			<circle class="st14" cx="114.4" cy="357.1" r="1.8"/>
			<circle class="st14" cx="87.7" cy="363.3" r="1.8"/>
			<circle class="st14" cx="94.4" cy="363.3" r="1.8"/>
			<circle class="st14" cx="101.1" cy="363.3" r="1.8"/>
			<circle class="st14" cx="107.7" cy="363.3" r="1.8"/>
			<circle class="st14" cx="114.4" cy="363.3" r="1.8"/>
			<circle class="st14" cx="101.1" cy="351.2" r="1.8"/>
			<circle class="st14" cx="107.7" cy="351.2" r="1.8"/>
			<circle class="st14" cx="114.4" cy="351.2" r="1.8"/>
			<circle class="st14" cx="121.1" cy="357.1" r="1.8"/>
			<circle class="st14" cx="121.1" cy="363.3" r="1.8"/>
			<circle class="st14" cx="81" cy="363" r="1.8"/>
			<circle class="st14" cx="81" cy="369" r="1.8"/>
			<circle class="st14" cx="87.7" cy="369" r="1.8"/>
			<circle class="st14" cx="94.4" cy="369" r="1.8"/>
			<circle class="st14" cx="101.1" cy="369" r="1.8"/>
		</g>
	</g>
	<path class="st8" d="M218.5,380.9h179c1.1,0,2.1,0.9,2.1,2.1l0,0c0,1.1-0.9,2.1-2.1,2.1h-179c-1.1,0-2.1-0.9-2.1-2.1l0,0
		C216.4,381.8,217.3,380.9,218.5,380.9z"/>
	<g>
		<path class="st7" d="M371.3,459.9h4.9c0.6,0,1,0.5,1,1v3.6c0,0.6-0.5,1-1,1h-4.9c-0.6,0-1-0.5-1-1v-3.6
			C370.3,460.3,370.8,459.9,371.3,459.9z"/>
		<path class="st7" d="M371.5,466.7h4.4c0.7,0,1.2,0.6,1.2,1.2v4.9c0,0.7-0.6,1.2-1.2,1.2h-4.4c-0.7,0-1.2-0.6-1.2-1.2V468
			C370.3,467.3,370.9,466.7,371.5,466.7z"/>
		<path class="st7" d="M371.5,475.4h4.4c0.7,0,1.2,0.6,1.2,1.2v4.9c0,0.7-0.6,1.2-1.2,1.2h-4.4c-0.7,0-1.2-0.6-1.2-1.2v-4.9
			C370.3,475.9,370.9,475.4,371.5,475.4z"/>
		<path class="st7" d="M371.5,484h4.4c0.7,0,1.2,0.6,1.2,1.2v4.9c0,0.7-0.6,1.2-1.2,1.2h-4.4c-0.7,0-1.2-0.6-1.2-1.2v-4.9
			C370.3,484.5,370.9,484,371.5,484z"/>
		<path class="st7" d="M371.5,492.6h4.4c0.7,0,1.2,0.6,1.2,1.2v4.9c0,0.7-0.6,1.2-1.2,1.2h-4.4c-0.7,0-1.2-0.6-1.2-1.2v-4.9
			C370.3,493.2,370.9,492.6,371.5,492.6z"/>
		<path class="st7" d="M371.5,501.2h4.4c0.7,0,1.2,0.6,1.2,1.2v4.9c0,0.7-0.6,1.2-1.2,1.2h-4.4c-0.7,0-1.2-0.6-1.2-1.2v-4.9
			C370.3,501.8,370.9,501.2,371.5,501.2z"/>
		<path class="st7" d="M362.7,459.9h4.9c0.6,0,1,0.5,1,1v3.6c0,0.6-0.5,1-1,1h-4.9c-0.6,0-1-0.5-1-1v-3.6
			C361.7,460.3,362.2,459.9,362.7,459.9z"/>
		<path class="st7" d="M355.1,466.7h12.2c0.7,0,1.3,0.6,1.3,1.3v4.7c0,0.7-0.6,1.3-1.3,1.3h-12.2c-0.7,0-1.3-0.6-1.3-1.3v-4.7
			C353.8,467.3,354.4,466.7,355.1,466.7z"/>
		<path class="st7" d="M360.7,475.4h6.6c0.7,0,1.3,0.6,1.3,1.3v4.7c0,0.7-0.6,1.3-1.3,1.3h-6.6c-0.7,0-1.3-0.6-1.3-1.3v-4.7
			C359.4,476,360,475.4,360.7,475.4z"/>
		<path class="st7" d="M354.1,484h13.1c0.7,0,1.3,0.6,1.3,1.3v4.7c0,0.7-0.6,1.3-1.3,1.3h-13.1c-0.7,0-1.3-0.6-1.3-1.3v-4.7
			C352.8,484.6,353.4,484,354.1,484z"/>
		<path class="st7" d="M362.9,492.6h4.4c0.7,0,1.2,0.6,1.2,1.2v4.9c0,0.7-0.6,1.2-1.2,1.2h-4.4c-0.7,0-1.2-0.6-1.2-1.2v-4.9
			C361.7,493.2,362.3,492.6,362.9,492.6z"/>
		<path class="st7" d="M362.9,501.2h4.4c0.7,0,1.2,0.6,1.2,1.2v4.9c0,0.7-0.6,1.2-1.2,1.2h-4.4c-0.7,0-1.2-0.6-1.2-1.2v-4.9
			C361.7,501.8,362.3,501.2,362.9,501.2z"/>
		<path class="st7" d="M354.8,459.9h4.2c0.6,0,1,0.5,1,1v3.6c0,0.6-0.5,1-1,1h-4.2c-0.6,0-1-0.5-1-1v-3.6
			C353.8,460.3,354.2,459.9,354.8,459.9z"/>
		<path class="st7" d="M346.7,459.9h4.2c0.6,0,1,0.5,1,1v3.6c0,0.6-0.5,1-1,1h-4.2c-0.6,0-1-0.5-1-1v-3.6
			C345.7,460.3,346.2,459.9,346.7,459.9z"/>
		<path class="st7" d="M338.7,459.9h4.2c0.6,0,1,0.5,1,1v3.6c0,0.6-0.5,1-1,1h-4.2c-0.6,0-1-0.5-1-1v-3.6
			C337.7,460.3,338.1,459.9,338.7,459.9z"/>
		<path class="st7" d="M330.6,459.9h4.2c0.6,0,1,0.5,1,1v3.6c0,0.6-0.5,1-1,1h-4.2c-0.6,0-1-0.5-1-1v-3.6
			C329.6,460.3,330,459.9,330.6,459.9z"/>
		<path class="st7" d="M322.5,459.9h4.2c0.6,0,1,0.5,1,1v3.6c0,0.6-0.5,1-1,1h-4.2c-0.6,0-1-0.5-1-1v-3.6
			C321.5,460.3,322,459.9,322.5,459.9z"/>
		<path class="st7" d="M314.5,459.9h4.2c0.6,0,1,0.5,1,1v3.6c0,0.6-0.5,1-1,1h-4.2c-0.6,0-1-0.5-1-1v-3.6
			C313.5,460.3,313.9,459.9,314.5,459.9z"/>
		<path class="st7" d="M306.4,459.9h4.2c0.6,0,1,0.5,1,1v3.6c0,0.6-0.5,1-1,1h-4.2c-0.6,0-1-0.5-1-1v-3.6
			C305.4,460.3,305.9,459.9,306.4,459.9z"/>
		<path class="st7" d="M298.4,459.9h4.2c0.6,0,1,0.5,1,1v3.6c0,0.6-0.5,1-1,1h-4.2c-0.6,0-1-0.5-1-1v-3.6
			C297.4,460.3,297.8,459.9,298.4,459.9z"/>
		<path class="st7" d="M290.3,459.9h4.2c0.6,0,1,0.5,1,1v3.6c0,0.6-0.5,1-1,1h-4.2c-0.6,0-1-0.5-1-1v-3.6
			C289.3,460.3,289.7,459.9,290.3,459.9z"/>
		<path class="st7" d="M282.2,459.9h4.2c0.6,0,1,0.5,1,1v3.6c0,0.6-0.5,1-1,1h-4.2c-0.6,0-1-0.5-1-1v-3.6
			C281.2,460.3,281.7,459.9,282.2,459.9z"/>
		<path class="st7" d="M274.2,459.9h4.2c0.6,0,1,0.5,1,1v3.6c0,0.6-0.5,1-1,1h-4.2c-0.6,0-1-0.5-1-1v-3.6
			C273.2,460.3,273.6,459.9,274.2,459.9z"/>
		<path class="st7" d="M266.1,459.9h4.2c0.6,0,1,0.5,1,1v3.6c0,0.6-0.5,1-1,1h-4.2c-0.6,0-1-0.5-1-1v-3.6
			C265.1,460.3,265.6,459.9,266.1,459.9z"/>
		<path class="st7" d="M258,459.9h4.2c0.6,0,1,0.5,1,1v3.6c0,0.6-0.5,1-1,1H258c-0.6,0-1-0.5-1-1v-3.6
			C257,460.3,257.5,459.9,258,459.9z"/>
		<path class="st7" d="M250,459.9h4.2c0.6,0,1,0.5,1,1v3.6c0,0.6-0.5,1-1,1H250c-0.6,0-1-0.5-1-1v-3.6
			C249,460.3,249.4,459.9,250,459.9z"/>
		<path class="st7" d="M240.9,459.9h4.9c0.6,0,1,0.5,1,1v3.6c0,0.6-0.5,1-1,1h-4.9c-0.6,0-1-0.5-1-1v-3.6
			C239.9,460.3,240.4,459.9,240.9,459.9z"/>
		<path class="st7" d="M346.4,466.7h4.3c0.7,0,1.2,0.5,1.2,1.2v4.9c0,0.7-0.5,1.2-1.2,1.2h-4.3c-0.7,0-1.2-0.5-1.2-1.2V468
			C345.2,467.3,345.7,466.7,346.4,466.7z"/>
		<path class="st7" d="M337.7,466.7h4.3c0.7,0,1.2,0.5,1.2,1.2v4.9c0,0.7-0.5,1.2-1.2,1.2h-4.3c-0.7,0-1.2-0.5-1.2-1.2V468
			C336.4,467.3,337,466.7,337.7,466.7z"/>
		<path class="st7" d="M328.9,466.7h4.3c0.7,0,1.2,0.5,1.2,1.2v4.9c0,0.7-0.5,1.2-1.2,1.2h-4.3c-0.7,0-1.2-0.5-1.2-1.2V468
			C327.7,467.3,328.2,466.7,328.9,466.7z"/>
		<path class="st7" d="M320.2,466.7h4.3c0.7,0,1.2,0.5,1.2,1.2v4.9c0,0.7-0.5,1.2-1.2,1.2h-4.3c-0.7,0-1.2-0.5-1.2-1.2V468
			C319,467.3,319.5,466.7,320.2,466.7z"/>
		<path class="st7" d="M311.4,466.7h4.3c0.7,0,1.2,0.5,1.2,1.2v4.9c0,0.7-0.5,1.2-1.2,1.2h-4.3c-0.7,0-1.2-0.5-1.2-1.2V468
			C310.2,467.3,310.7,466.7,311.4,466.7z"/>
		<path class="st7" d="M302.7,466.7h4.3c0.7,0,1.2,0.5,1.2,1.2v4.9c0,0.7-0.5,1.2-1.2,1.2h-4.3c-0.7,0-1.2-0.5-1.2-1.2V468
			C301.5,467.3,302,466.7,302.7,466.7z"/>
		<path class="st7" d="M293.9,466.7h4.3c0.7,0,1.2,0.5,1.2,1.2v4.9c0,0.7-0.5,1.2-1.2,1.2h-4.3c-0.7,0-1.2-0.5-1.2-1.2V468
			C292.7,467.3,293.3,466.7,293.9,466.7z"/>
		<path class="st7" d="M285.2,466.7h4.3c0.7,0,1.2,0.5,1.2,1.2v4.9c0,0.7-0.5,1.2-1.2,1.2h-4.3c-0.7,0-1.2-0.5-1.2-1.2V468
			C284,467.3,284.5,466.7,285.2,466.7z"/>
		<path class="st7" d="M276.4,466.7h4.3c0.7,0,1.2,0.5,1.2,1.2v4.9c0,0.7-0.5,1.2-1.2,1.2h-4.3c-0.7,0-1.2-0.5-1.2-1.2V468
			C275.2,467.3,275.8,466.7,276.4,466.7z"/>
		<path class="st7" d="M267.7,466.7h4.3c0.7,0,1.2,0.5,1.2,1.2v4.9c0,0.7-0.5,1.2-1.2,1.2h-4.3c-0.7,0-1.2-0.5-1.2-1.2V468
			C266.5,467.3,267,466.7,267.7,466.7z"/>
		<path class="st7" d="M258.9,466.7h4.3c0.7,0,1.2,0.5,1.2,1.2v4.9c0,0.7-0.5,1.2-1.2,1.2h-4.3c-0.7,0-1.2-0.5-1.2-1.2V468
			C257.7,467.3,258.3,466.7,258.9,466.7z"/>
		<path class="st7" d="M250.2,466.7h4.3c0.7,0,1.2,0.5,1.2,1.2v4.9c0,0.7-0.5,1.2-1.2,1.2h-4.3c-0.7,0-1.2-0.5-1.2-1.2V468
			C249,467.3,249.5,466.7,250.2,466.7z"/>
		<path class="st7" d="M241.2,466.7h4.4c0.7,0,1.2,0.6,1.2,1.2v4.9c0,0.7-0.6,1.2-1.2,1.2h-4.4c-0.7,0-1.2-0.6-1.2-1.2V468
			C239.9,467.3,240.5,466.7,241.2,466.7z"/>
		<path class="st7" d="M241.2,475.4h9.1c0.7,0,1.3,0.6,1.3,1.3v4.7c0,0.7-0.6,1.3-1.3,1.3h-9.1c-0.7,0-1.3-0.6-1.3-1.3v-4.7
			C239.9,476,240.5,475.4,241.2,475.4z"/>
		<path class="st7" d="M241.2,484H252c0.7,0,1.3,0.6,1.3,1.3v4.7c0,0.7-0.6,1.3-1.3,1.3h-10.8c-0.7,0-1.3-0.6-1.3-1.3v-4.7
			C239.9,484.6,240.5,484,241.2,484z"/>
		<path class="st7" d="M241.2,492.6h15.5c0.7,0,1.3,0.6,1.3,1.3v4.7c0,0.7-0.6,1.3-1.3,1.3h-15.5c-0.7,0-1.3-0.6-1.3-1.3v-4.7
			C239.9,493.2,240.5,492.6,241.2,492.6z"/>
		<path class="st7" d="M241.2,501.2h6.4c0.7,0,1.3,0.6,1.3,1.3v4.7c0,0.7-0.6,1.3-1.3,1.3h-6.4c-0.7,0-1.3-0.6-1.3-1.3v-4.7
			C239.9,501.8,240.5,501.2,241.2,501.2z"/>
		<path class="st7" d="M254,475.4h4.6c0.7,0,1.3,0.6,1.3,1.3v4.8c0,0.7-0.6,1.3-1.3,1.3H254c-0.7,0-1.3-0.6-1.3-1.3v-4.8
			C252.7,475.9,253.3,475.4,254,475.4z"/>
		<path class="st7" d="M262.9,475.4h4.6c0.7,0,1.3,0.6,1.3,1.3v4.8c0,0.7-0.6,1.3-1.3,1.3h-4.6c-0.7,0-1.3-0.6-1.3-1.3v-4.8
			C261.6,475.9,262.2,475.4,262.9,475.4z"/>
		<path class="st7" d="M271.8,475.4h4.6c0.7,0,1.3,0.6,1.3,1.3v4.8c0,0.7-0.6,1.3-1.3,1.3h-4.6c-0.7,0-1.3-0.6-1.3-1.3v-4.8
			C270.6,475.9,271.1,475.4,271.8,475.4z"/>
		<path class="st7" d="M280.8,475.4h4.6c0.7,0,1.3,0.6,1.3,1.3v4.8c0,0.7-0.6,1.3-1.3,1.3h-4.6c-0.7,0-1.3-0.6-1.3-1.3v-4.8
			C279.5,475.9,280,475.4,280.8,475.4z"/>
		<path class="st7" d="M289.7,475.4h4.6c0.7,0,1.3,0.6,1.3,1.3v4.8c0,0.7-0.6,1.3-1.3,1.3h-4.6c-0.7,0-1.3-0.6-1.3-1.3v-4.8
			C288.4,475.9,289,475.4,289.7,475.4z"/>
		<path class="st7" d="M298.6,475.4h4.6c0.7,0,1.3,0.6,1.3,1.3v4.8c0,0.7-0.6,1.3-1.3,1.3h-4.6c-0.7,0-1.3-0.6-1.3-1.3v-4.8
			C297.3,475.9,297.9,475.4,298.6,475.4z"/>
		<path class="st7" d="M307.5,475.4h4.6c0.7,0,1.3,0.6,1.3,1.3v4.8c0,0.7-0.6,1.3-1.3,1.3h-4.6c-0.7,0-1.3-0.6-1.3-1.3v-4.8
			C306.2,475.9,306.8,475.4,307.5,475.4z"/>
		<path class="st7" d="M316.4,475.4h4.6c0.7,0,1.3,0.6,1.3,1.3v4.8c0,0.7-0.6,1.3-1.3,1.3h-4.6c-0.7,0-1.3-0.6-1.3-1.3v-4.8
			C315.1,475.9,315.7,475.4,316.4,475.4z"/>
		<path class="st7" d="M325.3,475.4h4.6c0.7,0,1.3,0.6,1.3,1.3v4.8c0,0.7-0.6,1.3-1.3,1.3h-4.6c-0.7,0-1.3-0.6-1.3-1.3v-4.8
			C324,475.9,324.6,475.4,325.3,475.4z"/>
		<path class="st7" d="M334.2,475.4h4.6c0.7,0,1.3,0.6,1.3,1.3v4.8c0,0.7-0.6,1.3-1.3,1.3h-4.6c-0.7,0-1.3-0.6-1.3-1.3v-4.8
			C332.9,475.9,333.5,475.4,334.2,475.4z"/>
		<path class="st7" d="M343.1,475.4h4.6c0.7,0,1.3,0.6,1.3,1.3v4.8c0,0.7-0.6,1.3-1.3,1.3h-4.6c-0.7,0-1.3-0.6-1.3-1.3v-4.8
			C341.8,475.9,342.4,475.4,343.1,475.4z"/>
		<path class="st7" d="M352,475.4h4.6c0.7,0,1.3,0.6,1.3,1.3v4.8c0,0.7-0.6,1.3-1.3,1.3H352c-0.7,0-1.3-0.6-1.3-1.3v-4.8
			C350.7,475.9,351.3,475.4,352,475.4z"/>
		<path class="st7" d="M256.5,484h4.6c0.7,0,1.3,0.6,1.3,1.3v4.8c0,0.7-0.6,1.3-1.3,1.3h-4.6c-0.7,0-1.3-0.6-1.3-1.3v-4.8
			C255.2,484.6,255.8,484,256.5,484z"/>
		<path class="st7" d="M265.4,484h4.6c0.7,0,1.3,0.6,1.3,1.3v4.8c0,0.7-0.6,1.3-1.3,1.3h-4.6c-0.7,0-1.3-0.6-1.3-1.3v-4.8
			C264.1,484.6,264.7,484,265.4,484z"/>
		<path class="st7" d="M274.3,484h4.6c0.7,0,1.3,0.6,1.3,1.3v4.8c0,0.7-0.6,1.3-1.3,1.3h-4.6c-0.7,0-1.3-0.6-1.3-1.3v-4.8
			C273,484.6,273.6,484,274.3,484z"/>
		<path class="st7" d="M283.2,484h4.6c0.7,0,1.3,0.6,1.3,1.3v4.8c0,0.7-0.6,1.3-1.3,1.3h-4.6c-0.7,0-1.3-0.6-1.3-1.3v-4.8
			C281.9,484.6,282.5,484,283.2,484z"/>
		<path class="st7" d="M292.1,484h4.6c0.7,0,1.3,0.6,1.3,1.3v4.8c0,0.7-0.6,1.3-1.3,1.3h-4.6c-0.7,0-1.3-0.6-1.3-1.3v-4.8
			C290.9,484.6,291.4,484,292.1,484z"/>
		<path class="st7" d="M301.1,484h4.6c0.7,0,1.3,0.6,1.3,1.3v4.8c0,0.7-0.6,1.3-1.3,1.3h-4.6c-0.7,0-1.3-0.6-1.3-1.3v-4.8
			C299.8,484.6,300.3,484,301.1,484z"/>
		<path class="st7" d="M310,484h4.6c0.7,0,1.3,0.6,1.3,1.3v4.8c0,0.7-0.6,1.3-1.3,1.3H310c-0.7,0-1.3-0.6-1.3-1.3v-4.8
			C308.7,484.6,309.3,484,310,484z"/>
		<path class="st7" d="M318.9,484h4.6c0.7,0,1.3,0.6,1.3,1.3v4.8c0,0.7-0.6,1.3-1.3,1.3h-4.6c-0.7,0-1.3-0.6-1.3-1.3v-4.8
			C317.6,484.6,318.2,484,318.9,484z"/>
		<path class="st7" d="M327.8,484h4.6c0.7,0,1.3,0.6,1.3,1.3v4.8c0,0.7-0.6,1.3-1.3,1.3h-4.6c-0.7,0-1.3-0.6-1.3-1.3v-4.8
			C326.5,484.6,327.1,484,327.8,484z"/>
		<path class="st7" d="M336.7,484h4.6c0.7,0,1.3,0.6,1.3,1.3v4.8c0,0.7-0.6,1.3-1.3,1.3h-4.6c-0.7,0-1.3-0.6-1.3-1.3v-4.8
			C335.4,484.6,336,484,336.7,484z"/>
		<path class="st7" d="M345.6,484h4.6c0.7,0,1.3,0.6,1.3,1.3v4.8c0,0.7-0.6,1.3-1.3,1.3h-4.6c-0.7,0-1.3-0.6-1.3-1.3v-4.8
			C344.3,484.6,344.9,484,345.6,484z"/>
		<path class="st7" d="M261.2,492.6h4.6c0.7,0,1.3,0.6,1.3,1.3v4.8c0,0.7-0.6,1.3-1.3,1.3h-4.6c-0.7,0-1.3-0.6-1.3-1.3v-4.8
			C259.9,493.2,260.5,492.6,261.2,492.6z"/>
		<path class="st7" d="M270.1,492.6h4.6c0.7,0,1.3,0.6,1.3,1.3v4.8c0,0.7-0.6,1.3-1.3,1.3h-4.6c-0.7,0-1.3-0.6-1.3-1.3v-4.8
			C268.8,493.2,269.4,492.6,270.1,492.6z"/>
		<path class="st7" d="M279,492.6h4.6c0.7,0,1.3,0.6,1.3,1.3v4.8c0,0.7-0.6,1.3-1.3,1.3H279c-0.7,0-1.3-0.6-1.3-1.3v-4.8
			C277.7,493.2,278.3,492.6,279,492.6z"/>
		<path class="st7" d="M287.9,492.6h4.6c0.7,0,1.3,0.6,1.3,1.3v4.8c0,0.7-0.6,1.3-1.3,1.3h-4.6c-0.7,0-1.3-0.6-1.3-1.3v-4.8
			C286.6,493.2,287.2,492.6,287.9,492.6z"/>
		<path class="st7" d="M296.8,492.6h4.6c0.7,0,1.3,0.6,1.3,1.3v4.8c0,0.7-0.6,1.3-1.3,1.3h-4.6c-0.7,0-1.3-0.6-1.3-1.3v-4.8
			C295.5,493.2,296.1,492.6,296.8,492.6z"/>
		<path class="st7" d="M305.7,492.6h4.6c0.7,0,1.3,0.6,1.3,1.3v4.8c0,0.7-0.6,1.3-1.3,1.3h-4.6c-0.7,0-1.3-0.6-1.3-1.3v-4.8
			C304.4,493.2,305,492.6,305.7,492.6z"/>
		<path class="st7" d="M314.6,492.6h4.6c0.7,0,1.3,0.6,1.3,1.3v4.8c0,0.7-0.6,1.3-1.3,1.3h-4.6c-0.7,0-1.3-0.6-1.3-1.3v-4.8
			C313.3,493.2,313.9,492.6,314.6,492.6z"/>
		<path class="st7" d="M323.5,492.6h4.6c0.7,0,1.3,0.6,1.3,1.3v4.8c0,0.7-0.6,1.3-1.3,1.3h-4.6c-0.7,0-1.3-0.6-1.3-1.3v-4.8
			C322.2,493.2,322.8,492.6,323.5,492.6z"/>
		<path class="st7" d="M332.4,492.6h4.6c0.7,0,1.3,0.6,1.3,1.3v4.8c0,0.7-0.6,1.3-1.3,1.3h-4.6c-0.7,0-1.3-0.6-1.3-1.3v-4.8
			C331.2,493.2,331.7,492.6,332.4,492.6z"/>
		<path class="st7" d="M341.4,492.6h4.6c0.7,0,1.3,0.6,1.3,1.3v4.8c0,0.7-0.6,1.3-1.3,1.3h-4.6c-0.7,0-1.3-0.6-1.3-1.3v-4.8
			C340.1,493.2,340.6,492.6,341.4,492.6z"/>
		<path class="st7" d="M350.3,492.6h8.4c0.7,0,1.3,0.6,1.3,1.3v4.7c0,0.7-0.6,1.3-1.3,1.3h-8.4c-0.7,0-1.3-0.6-1.3-1.3v-4.7
			C349,493.2,349.6,492.6,350.3,492.6z"/>
		<path class="st7" d="M252.1,501.2h4.6c0.7,0,1.3,0.6,1.3,1.3v4.8c0,0.7-0.6,1.3-1.3,1.3h-4.6c-0.7,0-1.3-0.6-1.3-1.3v-4.8
			C250.8,501.8,251.4,501.2,252.1,501.2z"/>
		<path class="st7" d="M261,501.2h4.6c0.7,0,1.3,0.6,1.3,1.3v4.8c0,0.7-0.6,1.3-1.3,1.3H261c-0.7,0-1.3-0.6-1.3-1.3v-4.8
			C259.7,501.8,260.3,501.2,261,501.2z"/>
		<path class="st7" d="M269.9,501.2h4.6c0.7,0,1.3,0.6,1.3,1.3v4.8c0,0.7-0.6,1.3-1.3,1.3h-4.6c-0.7,0-1.3-0.6-1.3-1.3v-4.8
			C268.6,501.8,269.2,501.2,269.9,501.2z"/>
		<path class="st7" d="M278.8,501.2h4.6c0.7,0,1.3,0.6,1.3,1.3v4.8c0,0.7-0.6,1.3-1.3,1.3h-4.6c-0.7,0-1.3-0.6-1.3-1.3v-4.8
			C277.5,501.8,278.1,501.2,278.8,501.2z"/>
		<path class="st7" d="M287.8,501.2h4.6c0.7,0,1.3,0.6,1.3,1.3v4.8c0,0.7-0.6,1.3-1.3,1.3h-4.6c-0.7,0-1.3-0.6-1.3-1.3v-4.8
			C286.5,501.8,287,501.2,287.8,501.2z"/>
		<path class="st7" d="M296.7,501.2h4.6c0.7,0,1.3,0.6,1.3,1.3v4.8c0,0.7-0.6,1.3-1.3,1.3h-4.6c-0.7,0-1.3-0.6-1.3-1.3v-4.8
			C295.4,501.8,296,501.2,296.7,501.2z"/>
		<path class="st7" d="M305.6,501.2h4.6c0.7,0,1.3,0.6,1.3,1.3v4.8c0,0.7-0.6,1.3-1.3,1.3h-4.6c-0.7,0-1.3-0.6-1.3-1.3v-4.8
			C304.3,501.8,304.9,501.2,305.6,501.2z"/>
		<path class="st7" d="M314.5,501.2h4.6c0.7,0,1.3,0.6,1.3,1.3v4.8c0,0.7-0.6,1.3-1.3,1.3h-4.6c-0.7,0-1.3-0.6-1.3-1.3v-4.8
			C313.2,501.8,313.8,501.2,314.5,501.2z"/>
		<path class="st7" d="M323.4,501.2h4.6c0.7,0,1.3,0.6,1.3,1.3v4.8c0,0.7-0.6,1.3-1.3,1.3h-4.6c-0.7,0-1.3-0.6-1.3-1.3v-4.8
			C322.1,501.8,322.7,501.2,323.4,501.2z"/>
		<path class="st7" d="M332.3,501.2h4.6c0.7,0,1.3,0.6,1.3,1.3v4.8c0,0.7-0.6,1.3-1.3,1.3h-4.6c-0.7,0-1.3-0.6-1.3-1.3v-4.8
			C331,501.8,331.6,501.2,332.3,501.2z"/>
		<path class="st7" d="M341.2,501.2h8.4c0.7,0,1.3,0.6,1.3,1.3v4.7c0,0.7-0.6,1.3-1.3,1.3h-8.4c-0.7,0-1.3-0.6-1.3-1.3v-4.7
			C339.9,501.8,340.5,501.2,341.2,501.2z"/>
		<path class="st7" d="M354.4,501.2h4.4c0.7,0,1.2,0.6,1.2,1.2v4.9c0,0.7-0.6,1.2-1.2,1.2h-4.4c-0.7,0-1.2-0.6-1.2-1.2v-4.9
			C353.1,501.8,353.7,501.2,354.4,501.2z"/>
		<path class="st7" d="M284.7,514.8H331c0.7,0,1.3,0.6,1.3,1.3v22.3c0,0.7-0.6,1.3-1.3,1.3h-46.3c-0.7,0-1.3-0.6-1.3-1.3V516
			C283.4,515.3,284,514.8,284.7,514.8z"/>
		<path class="st7" d="M283.7,541.2h23c0.1,0,0.3,0.1,0.3,0.3v4.6c0,0.1-0.1,0.3-0.3,0.3h-23c-0.1,0-0.3-0.1-0.3-0.3v-4.6
			C283.4,541.4,283.5,541.2,283.7,541.2z"/>
		<path class="st7" d="M309,541.2h23c0.1,0,0.3,0.1,0.3,0.3v4.6c0,0.1-0.1,0.3-0.3,0.3h-23c-0.1,0-0.3-0.1-0.3-0.3v-4.6
			C308.7,541.4,308.9,541.2,309,541.2z"/>
	</g>
	
		<rect x="413.3" y="546.2" transform="matrix(0.9692 -0.2465 0.2465 0.9692 -125.3575 121.9273)" class="st11" width="22.3" height="31.1"/>
	<path class="st11" d="M402.9,528.8c0.7,2.6,1.5,5.7,2.4,9.3l-3.9-5.7l-1.2-5.5c-1.3-5.7-6.4-2.2-7.3,0.4l2.8,11.7l11.2,14.3
		c2.6,3.4,9.4,3.4,15.2,2.1c12-2.7,17.3-12.3,13.3-28.7l-0.5-15.8l-2.1-7.9c-0.3-5.6-9.3-4.9-7.8,0.5l1.9,6.9l0.5,9.1
		c-0.3-0.2-0.7-0.4-1.1-0.6l-2.1-13.9l-2.8-9.3c-0.9-5.6-8.4-3.7-7.8,1l2.6,9.1l1.8,12.3c-0.2,0-0.7,0.1-0.9,0.1l-2.9-12.5
		l-3.6-10.5c-1.7-4.9-8.8-3.2-7.6,1.8l3.6,10.3L410,522c-0.3,0.3-0.6,0.5-0.9,0.8l-5-14.5l-2.9-6.9c-1.6-4.8-9.1-2.5-7.4,2.6
		l3.1,7.6L402.9,528.8z"/>
	
		<rect x="411.2" y="559.5" transform="matrix(0.9691 -0.2465 0.2465 0.9691 -125.8469 122.129)" class="st8" width="27.3" height="8.4"/>
	<path class="st11" d="M241.5,524.3c-1.4,2.3-2.9,5.1-4.8,8.3l12.2-6.3c5.2-2.7,8,1.6,8.5,4.4l-26.2,16.1c-3.7,2.2-9.9,0.8-15.2-2
		c-10.8-5.8-13.4-16.5-5.2-31.2l4.1-12.6c1.8-5.3,9.2-2.7,7.4,2.6l-1.8,5.2c0.3-0.1,0.8-0.2,1.2-0.3l4.6-9.9c2.3-5.1,9.1-1.3,7.2,3
		l-3.6,8.3c0.2,0.1,0.6,0.3,0.8,0.4l5.5-10.1c2.5-4.6,9.3-0.8,6.9,3.8l-6.4,11.7c0.2,0.3,0.4,0.7,0.6,1l15.1-22.1
		c2.9-4.2,9.4,0.1,6.4,4.4L241.5,524.3z"/>
	<path class="st15" d="M410.1,571.9l3.6,14.1h2.1c9.8-3.6,19.3-7.7,28.6-12.3l-2.5-9.9L410.1,571.9z"/>
	<path class="st15" d="M221,561.9l-28.5-16.3L175,576.2c9.6,4.8,19.5,9.1,29.7,12.8h0.8L221,561.9z"/>
	<circle class="st3" cx="109" cy="192.1" r="46.2"/>
	<circle class="st3" cx="523" cy="341.5" r="46.2"/>
	<circle class="st3" cx="508.8" cy="187.4" r="46.2"/>
	<g>
		<path class="st13" d="M523.5,311.7c-11.4,0-20.6,9.2-20.6,20.6c0,1.4,0.1,2.8,0.4,4.2h13.2l0.3-0.2c0,0.1,0.1,0.1,0.1,0.2h3.8
			c-1.3-0.9-2.2-2.4-2.2-4.2c0-2.8,2.3-5.1,5.1-5.1c2.8,0,5.1,2.3,5.1,5.1c0,1.7-0.9,3.2-2.2,4.2h17.3c0.3-1.3,0.4-2.7,0.4-4.2
			C544.1,320.9,534.9,311.7,523.5,311.7z M527.1,325.3l5.2-10c3.5,1.8,6.3,4.6,8.1,8.1l-10,5.2C529.7,327.2,528.6,326,527.1,325.3z
			 M531.1,330.3c-0.1-0.3-0.2-0.6-0.3-0.9l10.5-4.1c0.3,0.7,0.5,1.4,0.7,2.1L531.1,330.3z"/>
		<g>
			<path class="st14" d="M495,348.5l-0.3,0.7c-0.6,0.8-0.6,1.5-0.3,2c0.3,0.4,0.9,0.7,1.8,0.7h0c0-0.1,0-0.2,0-0.3l3-13L495,348.5z"
				/>
			<path class="st14" d="M501.3,357.9v5.1v5.2c0,1.2,1,2.2,2.2,2.2h40c1.2,0,2.2-1,2.2-2.2V363v-5.1v-1.3h-44.5V357.9z"/>
			<path class="st14" d="M552.4,349.3l-0.3-0.7l-4.3-9.8l3,13c0,0.1,0,0.2,0,0.3h0c0.9,0,1.5-0.3,1.8-0.7
				C553,350.8,553,350.1,552.4,349.3z"/>
			<path class="st14" d="M547.8,347.6l-2-8.6l-0.1-0.3h-2.1h-17.3h-5.8h-3.8h-0.4h-13.2h-2.1l-0.1,0.3l-2,8.6l-1,4.2
				c0,0.1,0,0.2,0,0.3c0,0.2,0,0.4,0.1,0.6c0.1,0.7,0.7,1.2,1.5,1.3c0.1,0,0.1,0,0.2,0h16.7h13.7h16.7c0.1,0,0.1,0,0.2,0
				c0.8-0.1,1.4-0.6,1.5-1.3c0-0.2,0.1-0.4,0.1-0.6c0-0.1,0-0.2,0-0.3L547.8,347.6z"/>
		</g>
	</g>
	<g>
		<g>
			<path class="st13" d="M135.7,165.1H80.6c-0.9,0-1.6,0.7-1.6,1.6v32.4v0.8v3.8c0,1,0.7,1.8,1.6,1.8h12.5c0.4-0.2,0.9-0.3,1.3-0.5
				c0.9-0.3,1.8-0.7,2.7-1.1c2-0.9,3.3-1.4,4-1.8l0-2.1c-0.3-0.4-0.7-1-1-1.7H82.3v-29.2h51.7v29.2h-17.7c-0.3,0.8-0.7,1.3-1,1.7
				l0,2.1c0.7,0.3,2,0.9,4,1.8c0.9,0.4,1.8,0.7,2.7,1.1c0.5,0.2,0.9,0.3,1.3,0.5h12.5c0.9,0,1.6-0.8,1.6-1.8v-3.8v-0.8v-32.4
				C137.3,165.8,136.6,165.1,135.7,165.1z"/>
			<path class="st14" d="M128.1,210.5c-1.2-1.9-5.4-3.1-9.6-4.9c-0.1,0-0.1-0.1-0.2-0.1c-3.9-1.7-4.9-2.2-4.9-2.2l0-4
				c0,0,0.4-0.3,0.8-1c0.5-0.8,1-2,1.2-3.9c1,0.3,2-1.4,2-2.4c0.1-0.9-0.1-3.3-1.3-3.1c0.2-1.8,0.4-3.5,0.3-4.3
				c-0.3-3.2-3.4-6.6-8.3-6.6c-4.8,0-8,3.4-8.3,6.6c-0.1,0.9,0.1,2.5,0.3,4.3c-1.2-0.2-1.4,2.2-1.3,3.1c0.1,0.9,1.1,2.6,2,2.4
				c0.2,1.9,0.8,3.1,1.2,3.9c0.4,0.7,0.8,1,0.8,1l0,4c0,0-1,0.6-4.9,2.2c-0.1,0-0.1,0.1-0.2,0.1c-4.1,1.7-8.3,2.9-9.6,4.9
				c-1.1,1.7-0.8,7.7-0.8,7.7h20.7h20.7C128.8,218.2,129.2,212.2,128.1,210.5z"/>
		</g>
		<g>
			<polygon class="st16" points="86.5,175.8 88.8,178.1 86.5,180.4 87.5,181.4 90.8,178.1 87.5,174.8 			"/>
			<rect x="92.6" y="176.7" class="st16" width="4.2" height="1.4"/>
		</g>
		<path class="st13" d="M132.6,221.5h-49c0,0-1.5-9,0-10.5c7.7-7.4,40.3-6.7,49,0C134.3,212.3,132.6,221.5,132.6,221.5z"/>
	</g>
	<g>
		<path class="st6" d="M289.5,225.2c0,1.4-0.2,2.5-0.6,3.6s-1,1.9-1.8,2.6c-0.8,0.7-1.8,1.3-3,1.6c-1.2,0.4-2.5,0.6-4.1,0.6h-2v7.7
			c0,0.1,0,0.2-0.1,0.3c-0.1,0.1-0.2,0.2-0.4,0.2s-0.4,0.1-0.7,0.1s-0.7,0.1-1.2,0.1c-0.5,0-0.9,0-1.2-0.1c-0.3,0-0.6-0.1-0.8-0.1
			c-0.2-0.1-0.3-0.1-0.4-0.2s-0.1-0.2-0.1-0.3v-21.6c0-0.6,0.2-1,0.5-1.3c0.3-0.3,0.7-0.4,1.2-0.4h5.7c0.6,0,1.1,0,1.6,0.1
			c0.5,0,1.1,0.1,1.8,0.3c0.7,0.1,1.4,0.4,2.2,0.8c0.7,0.4,1.4,0.9,1.9,1.5s0.9,1.3,1.2,2.1C289.3,223.3,289.5,224.2,289.5,225.2z
			 M284.4,225.6c0-0.8-0.1-1.5-0.4-2.1s-0.7-0.9-1.1-1.2c-0.4-0.3-0.9-0.4-1.4-0.5c-0.5-0.1-1-0.1-1.5-0.1h-2.1v8.2h2.2
			c0.8,0,1.4-0.1,2-0.3c0.5-0.2,1-0.5,1.3-0.9c0.3-0.4,0.6-0.8,0.8-1.4C284.3,226.8,284.4,226.2,284.4,225.6z"/>
		<path class="st6" d="M306.5,239.9c0,0.4,0,0.7,0,0.9c0,0.3-0.1,0.5-0.1,0.6c-0.1,0.2-0.1,0.3-0.2,0.4c-0.1,0.1-0.2,0.1-0.3,0.1
			h-11c-0.4,0-0.8-0.1-1-0.4s-0.4-0.6-0.4-1.2v-21.8c0-0.1,0-0.2,0.1-0.3c0.1-0.1,0.2-0.2,0.4-0.2c0.2-0.1,0.4-0.1,0.8-0.1
			c0.3,0,0.7-0.1,1.2-0.1c0.5,0,0.9,0,1.2,0.1c0.3,0,0.6,0.1,0.7,0.1c0.2,0.1,0.3,0.1,0.4,0.2c0.1,0.1,0.1,0.2,0.1,0.3v19.4h7.6
			c0.1,0,0.2,0,0.3,0.1c0.1,0.1,0.2,0.2,0.2,0.3c0.1,0.2,0.1,0.4,0.1,0.6C306.5,239.2,306.5,239.5,306.5,239.9z"/>
		<path class="st6" d="M337.4,241.3c0,0.1,0,0.2-0.1,0.3c-0.1,0.1-0.2,0.2-0.4,0.2s-0.4,0.1-0.7,0.1c-0.3,0-0.7,0.1-1.1,0.1
			c-0.4,0-0.8,0-1.1-0.1c-0.3,0-0.5-0.1-0.7-0.1c-0.2-0.1-0.3-0.1-0.4-0.2s-0.1-0.2-0.1-0.3v-19.6h0l-7,19.6c0,0.2-0.1,0.3-0.2,0.4
			c-0.1,0.1-0.3,0.2-0.5,0.3c-0.2,0.1-0.4,0.1-0.7,0.1c-0.3,0-0.7,0-1.1,0c-0.4,0-0.8,0-1.1,0c-0.3,0-0.5-0.1-0.7-0.1
			c-0.2-0.1-0.3-0.2-0.5-0.3c-0.1-0.1-0.2-0.2-0.2-0.4l-6.7-19.6h0v19.6c0,0.1,0,0.2-0.1,0.3c-0.1,0.1-0.2,0.2-0.4,0.2
			c-0.2,0.1-0.4,0.1-0.7,0.1s-0.7,0.1-1.1,0.1c-0.4,0-0.8,0-1.1-0.1c-0.3,0-0.5-0.1-0.7-0.1s-0.3-0.1-0.4-0.2
			c-0.1-0.1-0.1-0.2-0.1-0.3v-21.4c0-0.6,0.2-1.1,0.5-1.4c0.3-0.3,0.8-0.5,1.3-0.5h3.2c0.6,0,1.1,0,1.5,0.1c0.4,0.1,0.8,0.2,1.1,0.5
			c0.3,0.2,0.5,0.5,0.7,0.9c0.2,0.4,0.4,0.8,0.5,1.3l5.2,14.3h0.1l5.4-14.3c0.2-0.5,0.3-1,0.5-1.3c0.2-0.4,0.4-0.7,0.7-0.9
			s0.6-0.4,0.9-0.5c0.3-0.1,0.8-0.1,1.2-0.1h3.3c0.3,0,0.6,0,0.9,0.1c0.2,0.1,0.4,0.2,0.6,0.4c0.2,0.2,0.3,0.4,0.4,0.6
			c0.1,0.2,0.1,0.5,0.1,0.8V241.3z"/>
	</g>
	<path class="st13" d="M408.7,63.8h-1.5v-7.2c0,0,0-0.1,0-0.1c0-0.3-0.1-0.6-0.3-0.8l-12-13.7c0,0,0,0,0,0c-0.1-0.1-0.2-0.1-0.2-0.2
		c0,0-0.1,0-0.1,0c-0.1,0-0.2-0.1-0.2-0.1c0,0,0,0-0.1,0c-0.1,0-0.2,0-0.3,0h-29.4c-1.3,0-2.4,1.1-2.4,2.4v19.8h-1.5
		c-1.9,0-3.5,1.6-3.5,3.5v18.1c0,1.9,1.6,3.5,3.5,3.5h1.5v12.4c0,1.3,1.1,2.4,2.4,2.4h40.2c1.3,0,2.4-1.1,2.4-2.4V88.9h1.5
		c1.9,0,3.5-1.6,3.5-3.5V67.3C412.2,65.4,410.6,63.8,408.7,63.8z M364.6,44.1h28.2v12.5c0,0.7,0.5,1.2,1.2,1.2h10.8v6.1h-40.2V44.1z
		 M395.3,83.8h-3.6l-0.2-6.3c-0.1-2-0.1-4.3-0.1-6.7h-0.1c-0.5,2.1-1.2,4.4-1.8,6.3l-2,6.4h-2.9l-1.7-6.3c-0.5-1.9-1.1-4.2-1.5-6.4
		h0c-0.1,2.2-0.2,4.7-0.3,6.8l-0.3,6.2h-3.4l1-16.3h4.9l1.6,5.5c0.5,1.9,1,3.9,1.4,5.8h0.1c0.5-1.9,1-4,1.6-5.9l1.7-5.4h4.8
		L395.3,83.8z M361.5,83.8l4.7-8.3l-4.6-8.1h4.2l1.4,3c0.5,1,0.8,1.8,1.2,2.7h0c0.4-1,0.7-1.8,1.1-2.7l1.4-3h4.2l-4.6,8l4.9,8.4
		h-4.3l-1.5-3c-0.6-1.1-1-2-1.5-2.9h0c-0.3,0.9-0.8,1.8-1.3,2.9l-1.4,3H361.5L361.5,83.8z M404.8,100.6h-40.2V88.9h40.2L404.8,100.6
		L404.8,100.6z M408.4,83.8h-10.2V67.5h3.7v13.2h6.5L408.4,83.8L408.4,83.8z"/>
	<path class="st14" d="M362.2,63.8h-1.5c-1.9,0-3.5,1.6-3.5,3.5v18.1c0,1.9,1.6,3.5,3.5,3.5h1.5l0.8,0h1.1l0.6,0h40.2l0.6,0h1.5
		l0.4,0h1.5c1.9,0,3.5-1.6,3.5-3.5V67.3c0-1.9-1.6-3.5-3.5-3.5h-1.5l-0.4,0h-1.5l-0.5,0h-40.2 M371.4,83.8l-1.5-3
		c-0.6-1.1-1-2-1.5-2.9h0c-0.3,0.9-0.8,1.8-1.3,2.9l-1.4,3h-4.2l4.7-8.3l-4.6-8.1h4.2l1.4,3c0.5,1,0.8,1.8,1.2,2.7h0
		c0.4-1,0.7-1.8,1.1-2.7l1.4-3h4.2l-4.6,8l4.9,8.4H371.4z M391.7,83.8l-0.2-6.3c-0.1-2-0.1-4.3-0.1-6.7h-0.1
		c-0.5,2.1-1.2,4.4-1.8,6.3l-2,6.4h-2.9l-1.7-6.3c-0.5-1.9-1.1-4.2-1.5-6.4h0c-0.1,2.2-0.2,4.7-0.3,6.8l-0.3,6.2h-3.4l1-16.3h4.9
		l1.6,5.5c0.5,1.9,1,3.9,1.4,5.8h0.1c0.5-1.9,1-4,1.6-5.9l1.7-5.4h4.8l0.9,16.3H391.7z M408.4,80.7v3.1h0h-10.2V67.5h3.7v13.2H408.4
		z"/>
	<g>
		<g>
			<g>
				<path class="st14" d="M505.1,176.5h-13.9v13.9h13.9V176.5z M491.1,197.4H526v-3.5h-34.8V197.4z M491.1,204.4H526v-3.5h-34.8
					V204.4z M508.5,176.5v3.5H526v-3.5H508.5z M508.5,187H526v-3.5h-17.4V187z"/>
			</g>
		</g>
		<path class="st13" d="M532.9,159.1h-48.8c-1.9,0-3.5,1.6-3.5,3.5v48.8c0,1.9,1.6,3.5,3.5,3.5h48.8c1.9,0,3.5-1.6,3.5-3.5v-48.8
			C536.4,160.6,534.9,159.1,532.9,159.1z M524.2,162.6c1,0,1.7,0.8,1.7,1.7c0,1-0.8,1.7-1.7,1.7c-1,0-1.7-0.8-1.7-1.7
			C522.5,163.3,523.3,162.6,524.2,162.6z M492.9,162.6h24.4c1,0,1.7,0.8,1.7,1.7c0,1-0.8,1.7-1.7,1.7h-24.4c-1,0-1.7-0.8-1.7-1.7
			C491.1,163.3,491.9,162.6,492.9,162.6z M485.9,162.6c1,0,1.7,0.8,1.7,1.7c0,1-0.8,1.7-1.7,1.7s-1.7-0.8-1.7-1.7
			C484.2,163.3,484.9,162.6,485.9,162.6z M532.9,207.9c0,1.9-1.6,3.5-3.5,3.5h-41.8c-1.9,0-3.5-1.6-3.5-3.5V173
			c0-1.9,1.6-3.5,3.5-3.5h41.8c1.9,0,3.5,1.6,3.5,3.5V207.9z M531.2,166c-1,0-1.7-0.8-1.7-1.7c0-1,0.8-1.7,1.7-1.7s1.7,0.8,1.7,1.7
			C532.9,165.3,532.2,166,531.2,166z"/>
	</g>
</g>
</svg>
