<?xml version="1.0" encoding="utf-8"?>
<!-- Generator: Adobe Illustrator 22.0.1, SVG Export Plug-In . SVG Version: 6.00 Build 0)  -->
<svg version="1.1" xmlns="http://www.w3.org/2000/svg" xmlns:xlink="http://www.w3.org/1999/xlink" x="0px" y="0px"
	 viewBox="0 0 612 612" style="enable-background:new 0 0 612 612;" xml:space="preserve">
<style type="text/css">
	.st0{clip-path:url(#SVGID_2_);fill:#49B9EA;}
	.st1{clip-path:url(#SVGID_2_);}
	.st2{fill:#A6DAE8;}
	.st3{fill:#C9ECF4;}
	.st4{fill:#62C3EF;stroke:#34508B;stroke-width:3;stroke-linecap:round;stroke-linejoin:round;stroke-miterlimit:10;}
	.st5{fill:#A5D996;stroke:#34508B;stroke-width:3;stroke-linecap:round;stroke-linejoin:round;stroke-miterlimit:10;}
	.st6{fill:#34508B;stroke:#34508B;stroke-width:3;stroke-linecap:round;stroke-linejoin:round;stroke-miterlimit:10;}
	.st7{fill:#FBF8F3;stroke:#34508B;stroke-width:3;stroke-linecap:round;stroke-linejoin:round;stroke-miterlimit:10;}
	.st8{fill:#FBF8F3;}
	.st9{fill:none;stroke:#34508B;stroke-width:3;stroke-linecap:round;stroke-linejoin:round;stroke-miterlimit:10;}
	.st10{fill:#34508B;}
	.st11{fill:#F7AB6F;stroke:#34508B;stroke-width:3;stroke-linecap:round;stroke-linejoin:round;stroke-miterlimit:10;}
	.st12{fill:#FFFFFF;stroke:#34508B;stroke-width:3;stroke-linecap:round;stroke-linejoin:round;stroke-miterlimit:10;}
	.st13{fill:#3BDDBA;stroke:#34508B;stroke-width:3;stroke-linecap:round;stroke-linejoin:round;stroke-miterlimit:10;}
	.st14{fill:#DCDEE0;stroke:#34508B;stroke-width:3;stroke-linecap:round;stroke-linejoin:round;stroke-miterlimit:10;}
	.st15{fill:#EAB38B;}
	.st16{fill:#FFFFFF;}
	.st17{fill:#728689;}
	.st18{fill:#D1D3D4;}
	.st19{fill:#939598;}
	.st20{fill:#14B0BF;}
	.st21{fill:#2B2924;}
	.st22{fill:#997450;}
	.st23{fill:#F7CEAF;}
	.st24{fill:#E8BDAC;}
	.st25{fill:#FFE5CB;}
	.st26{fill:#E6E7E8;}
	.st27{fill:#97B6C4;}
	.st28{fill:#87A5AF;}
	.st29{fill:#3D5872;}
	.st30{fill:#70868C;}
	.st31{fill:#455256;}
	.st32{fill:#414042;}
	.st33{fill:#58595B;}
	.st34{fill:#EB4747;}
	.st35{fill:#EA5F21;}
	.st36{fill:#F2C4A5;}
	.st37{fill:#6F7272;}
	.st38{fill:#20B7EA;}
	.st39{fill:#33C9F2;}
	.st40{fill:#0AC6B3;}
	.st41{fill:#F49D56;}
	.st42{fill:#53770C;}
	.st43{fill:#61A30A;}
	.st44{fill:#8AC133;}
	.st45{fill:#FCB87A;}
	.st46{fill:#FF7C3B;}
	.st47{fill:#57CBEA;}
	.st48{fill:#2D2D2D;}
	.st49{fill:#AECCC8;}
	.st50{fill:#FFFAAD;stroke:#34508B;stroke-width:3;stroke-linecap:round;stroke-linejoin:round;stroke-miterlimit:10;}
	.st51{clip-path:url(#SVGID_4_);fill:#49B9EA;}
	.st52{clip-path:url(#SVGID_4_);}
	.st53{fill:#FF7335;}
	.st54{fill:#CADDCF;}
	.st55{fill:#4B5974;}
	.st56{fill:none;stroke:#FFFFFF;stroke-miterlimit:10;stroke-dasharray:2,2;}
	.st57{fill:#4E4E4E;}
	.st58{fill:#DCDBDD;}
	.st59{fill:#BEBEBF;}
	.st60{fill-rule:evenodd;clip-rule:evenodd;fill:#F7A934;}
	.st61{fill:#F7A934;}
	.st62{fill:#00E0F9;}
	.st63{fill:#6D808A;}
	.st64{clip-path:url(#SVGID_6_);}
	.st65{fill:#8A8387;}
	.st66{fill:#EBA8A0;}
	.st67{fill:#83CFEE;}
	.st68{fill:#C8DB57;}
	.st69{fill:#F3BC5A;}
	.st70{fill:#C0C0C0;}
	.st71{fill:#F7FBFF;}
	.st72{fill:#D36154;}
	.st73{fill:#FFCE66;}
	.st74{fill:#66B9C7;}
	.st75{fill:#5B9AB1;}
	.st76{fill:#F5B71B;}
	.st77{fill:#E2A238;}
	.st78{fill:#51657C;}
	.st79{fill:#2C445D;}
	.st80{fill:#518E9E;}
	.st81{fill:#B8D9EB;}
	.st82{fill:#F2F2F2;}
	.st83{fill:#BBBDBF;}
	.st84{font-family:'OpenSans';}
	.st85{font-size:3.3906px;}
	.st86{letter-spacing:1;}
	.st87{fill:url(#XMLID_16_);}
	.st88{fill:url(#XMLID_17_);}
	.st89{fill:url(#XMLID_18_);}
	.st90{fill:url(#XMLID_19_);}
	.st91{fill:url(#XMLID_20_);}
	.st92{fill:url(#XMLID_21_);}
	.st93{fill:url(#XMLID_22_);}
	.st94{fill:url(#XMLID_23_);}
	.st95{fill:url(#XMLID_24_);}
	.st96{fill:url(#XMLID_25_);}
	.st97{fill:url(#XMLID_26_);}
	.st98{fill:url(#XMLID_27_);}
	.st99{fill:#474747;}
	.st100{fill:#D6D6D6;}
	.st101{fill:#EAEAEA;}
	.st102{fill:#FCFCFC;}
	.st103{fill:#3D4859;}
	.st104{fill:#F25F58;}
	.st105{fill:#D3DEE2;}
	.st106{fill:#15191C;}
	.st107{opacity:0.13;fill:#070707;}
	.st108{fill:#F5F7F7;}
	.st109{fill:#D33737;}
	.st110{fill:#3939D1;}
	.st111{fill:#E2EDED;}
	.st112{fill:#32393F;}
</style>
<g id="Silicus_x5F_Silicus_x5F_Story_x5F_CEA282">
</g>
<g id="Silicus_x5F_Silicus_x5F_Story_x5F_CUS253">
	<g>
		<defs>
			<circle id="SVGID_3_" cx="306" cy="310" r="296.6"/>
		</defs>
		<use xlink:href="#SVGID_3_"  style="overflow:visible;fill:#49B9EA;"/>
		<clipPath id="SVGID_2_">
			<use xlink:href="#SVGID_3_"  style="overflow:visible;"/>
		</clipPath>
		<rect x="7.3" y="11.6" class="st0" width="595.3" height="595.3"/>
		<g id="_x31__1_" class="st1">
			<rect x="0.8" y="4.2" class="st53" width="619.9" height="626.3"/>
		</g>
	</g>
	<g>
		<path class="st16" d="M278,240.8v-14.5h-89.9v14.5h4.4v6.3h-4.4v14.5H278v-14.5h-5.1v-6.3H278z M204.1,255.6h-6.2v-6.1h6.2V255.6z
			 M204.1,246.9h-6.2v-6.1h6.2V246.9z M204.1,238.3h-6.2v-6.1h6.2V238.3z M213.4,255.6h-6.2v-6.1h6.2V255.6z M213.4,246.9h-6.2v-6.1
			h6.2V246.9z M213.4,238.3h-6.2v-6.1h6.2V238.3z M222.5,255.6h-6.2v-6.1h6.2V255.6z M222.5,246.9h-6.2v-6.1h6.2V246.9z
			 M222.5,238.3h-6.2v-6.1h6.2V238.3z M231.5,255.6h-6.2v-6.1h6.2V255.6z M231.5,246.9h-6.2v-6.1h6.2V246.9z M231.5,238.3h-6.2v-6.1
			h6.2V238.3z M240.7,255.6h-6.2v-6.1h6.2V255.6z M240.7,246.9h-6.2v-6.1h6.2V246.9z M240.7,238.3h-6.2v-6.1h6.2V238.3z
			 M249.8,255.6h-6.2v-6.1h6.2V255.6z M249.8,246.9h-6.2v-6.1h6.2V246.9z M249.8,238.3h-6.2v-6.1h6.2V238.3z M263.8,255.4h-8.1v-3.7
			h8.1V255.4z M259.7,245c-3.6,0-6.4-2.9-6.4-6.4c0-3.6,2.9-6.4,6.4-6.4c3.6,0,6.4,2.9,6.4,6.4C266.2,242.1,263.3,245,259.7,245z"/>
		<path class="st54" d="M278,280.4v-14.5h-89.9v14.5h4.4v6.3h-4.4v14.5H278v-14.5h-5.1v-6.3H278z M204.1,295.2h-6.2v-6.1h6.2V295.2z
			 M204.1,286.5h-6.2v-6.1h6.2V286.5z M204.1,278h-6.2v-6.1h6.2V278z M213.4,295.2h-6.3v-6.1h6.3V295.2z M213.4,286.5h-6.3v-6.1h6.3
			V286.5z M213.4,278h-6.3v-6.1h6.3V278z M222.5,295.2h-6.2v-6.1h6.2V295.2z M222.5,286.5h-6.2v-6.1h6.2V286.5z M222.5,278h-6.2
			v-6.1h6.2V278z M231.5,295.2h-6.2v-6.1h6.2V295.2z M231.5,286.5h-6.2v-6.1h6.2V286.5z M231.5,278h-6.2v-6.1h6.2V278z M240.7,295.2
			h-6.2v-6.1h6.2V295.2z M240.7,286.5h-6.2v-6.1h6.2V286.5z M240.7,278h-6.2v-6.1h6.2V278z M249.8,295.2h-6.2v-6.1h6.2V295.2z
			 M249.8,286.5h-6.2v-6.1h6.2V286.5z M249.8,278h-6.2v-6.1h6.2V278z M263.8,295.1h-8.1v-3.7h8.1V295.1z M259.7,284.6
			c-3.6,0-6.4-2.9-6.4-6.4c0-3.6,2.9-6.4,6.4-6.4c3.6,0,6.4,2.9,6.4,6.4C266.2,281.7,263.3,284.6,259.7,284.6z"/>
		<path class="st55" d="M278,319.3v-14.5h-89.9v14.5h4.4v6.3h-4.4v14.5H278v-14.5h-5.1v-6.3H278z M204.1,334.1h-6.2V328h6.2V334.1z
			 M204.1,325.4h-6.2v-6.1h6.2V325.4z M204.1,316.8h-6.2v-6.1h6.2V316.8z M213.4,334.1h-6.3V328h6.3V334.1z M213.4,325.4h-6.3v-6.1
			h6.3V325.4z M213.4,316.8h-6.3v-6.1h6.3V316.8z M222.5,334.1h-6.2V328h6.2V334.1z M222.5,325.4h-6.2v-6.1h6.2V325.4z M222.5,316.8
			h-6.2v-6.1h6.2V316.8z M231.5,334.1h-6.2V328h6.2V334.1z M231.5,325.4h-6.2v-6.1h6.2V325.4z M231.5,316.8h-6.2v-6.1h6.2V316.8z
			 M240.7,334.1h-6.2V328h6.2V334.1z M240.7,325.4h-6.2v-6.1h6.2V325.4z M240.7,316.8h-6.2v-6.1h6.2V316.8z M249.8,334.1h-6.2V328
			h6.2V334.1z M249.8,325.4h-6.2v-6.1h6.2V325.4z M249.8,316.8h-6.2v-6.1h6.2V316.8z M263.8,334h-8.1v-3.7h8.1V334z M259.7,323.5
			c-3.6,0-6.4-2.9-6.4-6.4c0-3.6,2.9-6.4,6.4-6.4c3.6,0,6.4,2.9,6.4,6.4C266.2,320.6,263.3,323.5,259.7,323.5z"/>
	</g>
	<path class="st16" d="M180.7,404.9h-57.4c-2.9,0-5.2,2.4-5.2,5.3v87.5c0,2.9,2.4,5.3,5.2,5.3h57.4c2.9,0,5.3-2.4,5.3-5.3v-87.5
		C186,407.2,183.6,404.9,180.7,404.9 M159.2,409.2c0.6,0,1.1,0.5,1.1,1.1c0,0.6-0.5,1.1-1.1,1.1c-0.6,0-1.1-0.5-1.1-1.1
		C158.1,409.7,158.6,409.2,159.2,409.2 M143.7,409.6h11.6v1.3h-11.6V409.6z M152,500.8c-1.9,0-3.4-1.5-3.4-3.4
		c0-1.9,1.5-3.4,3.4-3.4c1.9,0,3.4,1.5,3.4,3.4C155.4,499.3,153.9,500.8,152,500.8 M182.6,491.9h-61.3v-76h61.3V491.9z"/>
	<path class="st16" d="M168.8,90.2h-33.5c-3.2,0-5.8,2.6-5.8,5.8v68.1c0,3.2,2.6,5.8,5.8,5.8h33.5c3.2,0,5.8-2.6,5.8-5.8V96
		C174.6,92.8,172,90.2,168.8,90.2 M165,93.9c0.8,0,1.5,0.7,1.5,1.5c0,0.8-0.7,1.5-1.5,1.5c-0.8,0-1.5-0.7-1.5-1.5
		C163.5,94.5,164.1,93.9,165,93.9 M144.2,94.4h15.6v1.7h-15.6V94.4z M152,166.4c-2.1,0-3.9-1.7-3.9-3.9c0-2.1,1.7-3.9,3.9-3.9
		c2.1,0,3.9,1.7,3.9,3.9C155.9,164.7,154.2,166.4,152,166.4 M170.2,154.8h-36.5V100h36.5V154.8z"/>
	<line class="st56" x1="179.4" y1="130.1" x2="265.6" y2="130.1"/>
	<line class="st56" x1="191.2" y1="453.9" x2="264.2" y2="453.9"/>
	<line class="st56" x1="332.2" y1="453.9" x2="385.4" y2="453.9"/>
	<line class="st56" x1="337.2" y1="130.1" x2="415.9" y2="130.1"/>
	<g>
		<polyline class="st56" points="138,195.3 138,228.4 187.3,228.4 		"/>
		<polyline class="st56" points="138,371 138,337.9 187.3,337.9 		"/>
	</g>
	<g>
		<path class="st57" d="M521.9,284.7c0,3.4-2.7,6.1-6.1,6.1H362.6c-3.4,0-6.1-2.7-6.1-6.1v-90.5c0-3.4,2.7-6.1,6.1-6.1h153.2
			c3.4,0,6.1,2.7,6.1,6.1V284.7z"/>
	</g>
	<g>
		<path class="st16" d="M512.8,276.6c0,2.8-2.4,5.1-5.4,5.1H371c-3,0-5.4-2.3-5.4-5.1v-75.8c0-2.8,2.4-5.1,5.4-5.1h136.4
			c3,0,5.4,2.3,5.4,5.1V276.6z"/>
	</g>
	<g>
		<path class="st58" d="M521.9,381.5c0,3.1-2.7,5.7-6.1,5.7H362.6c-3.4,0-6.1-2.5-6.1-5.7v-85c0-3.1,2.7-5.7,6.1-5.7h153.2
			c3.4,0,6.1,2.5,6.1,5.7V381.5z"/>
	</g>
	<g>
		<g>
			<g>
				<g>
					<path class="st16" d="M376.8,317c0,1.4-1.1,2.5-2.5,2.5h-2.5c-1.4,0-2.5-1.1-2.5-2.5v-2.5c0-1.4,1.1-2.5,2.5-2.5h2.5
						c1.4,0,2.5,1.1,2.5,2.5V317z"/>
				</g>
			</g>
			<g>
				<g>
					<path class="st16" d="M389.9,317c0,1.4-1.1,2.5-2.5,2.5h-2.5c-1.4,0-2.5-1.1-2.5-2.5v-2.5c0-1.4,1.1-2.5,2.5-2.5h2.5
						c1.4,0,2.5,1.1,2.5,2.5V317z"/>
				</g>
			</g>
			<g>
				<g>
					<path class="st16" d="M403,317c0,1.4-1.1,2.5-2.5,2.5h-2.5c-1.4,0-2.5-1.1-2.5-2.5v-2.5c0-1.4,1.1-2.5,2.5-2.5h2.5
						c1.4,0,2.5,1.1,2.5,2.5V317z"/>
				</g>
			</g>
			<g>
				<g>
					<path class="st16" d="M416.1,317c0,1.4-1.1,2.5-2.5,2.5H411c-1.4,0-2.5-1.1-2.5-2.5v-2.5c0-1.4,1.1-2.5,2.5-2.5h2.5
						c1.4,0,2.5,1.1,2.5,2.5V317z"/>
				</g>
			</g>
			<g>
				<g>
					<path class="st16" d="M429.1,317c0,1.4-1.1,2.5-2.5,2.5h-2.5c-1.4,0-2.5-1.1-2.5-2.5v-2.5c0-1.4,1.1-2.5,2.5-2.5h2.5
						c1.4,0,2.5,1.1,2.5,2.5V317z"/>
				</g>
			</g>
			<g>
				<g>
					<path class="st16" d="M442.2,317c0,1.4-1.1,2.5-2.5,2.5h-2.5c-1.4,0-2.5-1.1-2.5-2.5v-2.5c0-1.4,1.1-2.5,2.5-2.5h2.5
						c1.4,0,2.5,1.1,2.5,2.5V317z"/>
				</g>
			</g>
			<g>
				<g>
					<path class="st16" d="M455.3,317c0,1.4-1.1,2.5-2.5,2.5h-2.5c-1.4,0-2.5-1.1-2.5-2.5v-2.5c0-1.4,1.1-2.5,2.5-2.5h2.5
						c1.4,0,2.5,1.1,2.5,2.5V317z"/>
				</g>
			</g>
			<g>
				<g>
					<path class="st16" d="M468.4,317c0,1.4-1.1,2.5-2.5,2.5h-2.5c-1.4,0-2.5-1.1-2.5-2.5v-2.5c0-1.4,1.1-2.5,2.5-2.5h2.5
						c1.4,0,2.5,1.1,2.5,2.5V317z"/>
				</g>
			</g>
			<g>
				<g>
					<path class="st16" d="M376.8,327.6c0,1.4-1.1,2.5-2.5,2.5h-2.5c-1.4,0-2.5-1.1-2.5-2.5v-2.5c0-1.4,1.1-2.5,2.5-2.5h2.5
						c1.4,0,2.5,1.1,2.5,2.5V327.6z"/>
				</g>
			</g>
			<g>
				<g>
					<path class="st16" d="M389.9,327.6c0,1.4-1.1,2.5-2.5,2.5h-2.5c-1.4,0-2.5-1.1-2.5-2.5v-2.5c0-1.4,1.1-2.5,2.5-2.5h2.5
						c1.4,0,2.5,1.1,2.5,2.5V327.6z"/>
				</g>
			</g>
			<g>
				<g>
					<path class="st16" d="M403,327.6c0,1.4-1.1,2.5-2.5,2.5h-2.5c-1.4,0-2.5-1.1-2.5-2.5v-2.5c0-1.4,1.1-2.5,2.5-2.5h2.5
						c1.4,0,2.5,1.1,2.5,2.5V327.6z"/>
				</g>
			</g>
			<g>
				<g>
					<path class="st16" d="M416.1,327.6c0,1.4-1.1,2.5-2.5,2.5H411c-1.4,0-2.5-1.1-2.5-2.5v-2.5c0-1.4,1.1-2.5,2.5-2.5h2.5
						c1.4,0,2.5,1.1,2.5,2.5V327.6z"/>
				</g>
			</g>
			<g>
				<g>
					<path class="st16" d="M429.1,327.6c0,1.4-1.1,2.5-2.5,2.5h-2.5c-1.4,0-2.5-1.1-2.5-2.5v-2.5c0-1.4,1.1-2.5,2.5-2.5h2.5
						c1.4,0,2.5,1.1,2.5,2.5V327.6z"/>
				</g>
			</g>
			<g>
				<g>
					<path class="st16" d="M442.2,327.6c0,1.4-1.1,2.5-2.5,2.5h-2.5c-1.4,0-2.5-1.1-2.5-2.5v-2.5c0-1.4,1.1-2.5,2.5-2.5h2.5
						c1.4,0,2.5,1.1,2.5,2.5V327.6z"/>
				</g>
			</g>
			<g>
				<g>
					<path class="st16" d="M455.3,327.6c0,1.4-1.1,2.5-2.5,2.5h-2.5c-1.4,0-2.5-1.1-2.5-2.5v-2.5c0-1.4,1.1-2.5,2.5-2.5h2.5
						c1.4,0,2.5,1.1,2.5,2.5V327.6z"/>
				</g>
			</g>
			<g>
				<g>
					<path class="st16" d="M468.4,327.6c0,1.4-1.1,2.5-2.5,2.5h-2.5c-1.4,0-2.5-1.1-2.5-2.5v-2.5c0-1.4,1.1-2.5,2.5-2.5h2.5
						c1.4,0,2.5,1.1,2.5,2.5V327.6z"/>
				</g>
			</g>
			<g>
				<g>
					<path class="st16" d="M483,317c0,1.4-1.1,2.5-2.5,2.5H478c-1.4,0-2.5-1.1-2.5-2.5v-2.5c0-1.4,1.1-2.5,2.5-2.5h2.5
						c1.4,0,2.5,1.1,2.5,2.5V317z"/>
				</g>
			</g>
			<g>
				<g>
					<path class="st16" d="M496.1,317c0,1.4-1.1,2.5-2.5,2.5h-2.5c-1.4,0-2.5-1.1-2.5-2.5v-2.5c0-1.4,1.1-2.5,2.5-2.5h2.5
						c1.4,0,2.5,1.1,2.5,2.5V317z"/>
				</g>
			</g>
			<g>
				<g>
					<path class="st16" d="M509.2,317c0,1.4-1.1,2.5-2.5,2.5h-2.5c-1.4,0-2.5-1.1-2.5-2.5v-2.5c0-1.4,1.1-2.5,2.5-2.5h2.5
						c1.4,0,2.5,1.1,2.5,2.5V317z"/>
				</g>
			</g>
			<g>
				<g>
					<path class="st16" d="M378.8,305.9c0,0.9-1.4,1.7-3.2,1.7h-3.2c-1.8,0-3.2-0.8-3.2-1.7v-1.7c0-0.9,1.4-1.7,3.2-1.7h3.2
						c1.8,0,3.2,0.8,3.2,1.7V305.9z"/>
				</g>
			</g>
			<g>
				<g>
					<path class="st16" d="M393.3,305.9c0,0.9-1.5,1.7-3.2,1.7h-3.2c-1.8,0-3.2-0.8-3.2-1.7v-1.7c0-0.9,1.4-1.7,3.2-1.7h3.2
						c1.8,0,3.2,0.8,3.2,1.7V305.9z"/>
				</g>
			</g>
			<g>
				<g>
					<path class="st16" d="M407.8,305.9c0,0.9-1.5,1.7-3.2,1.7h-3.2c-1.8,0-3.2-0.8-3.2-1.7v-1.7c0-0.9,1.4-1.7,3.2-1.7h3.2
						c1.8,0,3.2,0.8,3.2,1.7V305.9z"/>
				</g>
			</g>
			<g>
				<g>
					<path class="st16" d="M422.3,305.9c0,0.9-1.5,1.7-3.2,1.7h-3.2c-1.8,0-3.2-0.8-3.2-1.7v-1.7c0-0.9,1.4-1.7,3.2-1.7h3.2
						c1.8,0,3.2,0.8,3.2,1.7V305.9z"/>
				</g>
			</g>
			<g>
				<g>
					<path class="st16" d="M436.8,305.9c0,0.9-1.4,1.7-3.2,1.7h-3.2c-1.8,0-3.2-0.8-3.2-1.7v-1.7c0-0.9,1.5-1.7,3.2-1.7h3.2
						c1.8,0,3.2,0.8,3.2,1.7V305.9z"/>
				</g>
			</g>
			<g>
				<g>
					<path class="st16" d="M451.3,305.9c0,0.9-1.5,1.7-3.2,1.7h-3.2c-1.8,0-3.2-0.8-3.2-1.7v-1.7c0-0.9,1.4-1.7,3.2-1.7h3.2
						c1.8,0,3.2,0.8,3.2,1.7V305.9z"/>
				</g>
			</g>
			<g>
				<g>
					<path class="st16" d="M465.7,305.9c0,0.9-1.4,1.7-3.2,1.7h-3.2c-1.8,0-3.2-0.8-3.2-1.7v-1.7c0-0.9,1.5-1.7,3.2-1.7h3.2
						c1.8,0,3.2,0.8,3.2,1.7V305.9z"/>
				</g>
			</g>
			<g>
				<g>
					<path class="st16" d="M480.2,305.9c0,0.9-1.5,1.7-3.2,1.7h-3.2c-1.8,0-3.2-0.8-3.2-1.7v-1.7c0-0.9,1.5-1.7,3.2-1.7h3.2
						c1.8,0,3.2,0.8,3.2,1.7V305.9z"/>
				</g>
			</g>
			<g>
				<g>
					<path class="st16" d="M494.7,305.9c0,0.9-1.5,1.7-3.2,1.7h-3.2c-1.8,0-3.2-0.8-3.2-1.7v-1.7c0-0.9,1.5-1.7,3.2-1.7h3.2
						c1.8,0,3.2,0.8,3.2,1.7V305.9z"/>
				</g>
			</g>
			<g>
				<g>
					<path class="st16" d="M509.2,305.9c0,0.9-1.5,1.7-3.2,1.7h-3.2c-1.8,0-3.2-0.8-3.2-1.7v-1.7c0-0.9,1.4-1.7,3.2-1.7h3.2
						c1.8,0,3.2,0.8,3.2,1.7V305.9z"/>
				</g>
			</g>
			<g>
				<g>
					<path class="st16" d="M483,327.6c0,1.4-1.1,2.5-2.5,2.5H478c-1.4,0-2.5-1.1-2.5-2.5v-2.5c0-1.4,1.1-2.5,2.5-2.5h2.5
						c1.4,0,2.5,1.1,2.5,2.5V327.6z"/>
				</g>
			</g>
			<g>
				<g>
					<path class="st16" d="M496.1,327.6c0,1.4-1.1,2.5-2.5,2.5h-2.5c-1.4,0-2.5-1.1-2.5-2.5v-2.5c0-1.4,1.1-2.5,2.5-2.5h2.5
						c1.4,0,2.5,1.1,2.5,2.5V327.6z"/>
				</g>
			</g>
			<g>
				<g>
					<path class="st16" d="M509.2,327.6c0,1.4-1.1,2.5-2.5,2.5h-15.6c-1.4,0-2.5-1.1-2.5-2.5v-2.5c0-1.4,1.1-2.5,2.5-2.5h15.6
						c1.4,0,2.5,1.1,2.5,2.5V327.6z"/>
				</g>
			</g>
			<g>
				<g>
					<g>
						<path class="st16" d="M496.1,338.2c0,1.4-1.1,2.5-2.5,2.5h-2.5c-1.4,0-2.5-1.1-2.5-2.5v-2.5c0-1.4,1.1-2.5,2.5-2.5h2.5
							c1.4,0,2.5,1.1,2.5,2.5V338.2z"/>
					</g>
				</g>
				<g>
					<g>
						<path class="st16" d="M483,348.9c0,1.4-1.1,2.5-2.5,2.5H478c-1.4,0-2.5-1.1-2.5-2.5v-2.5c0-1.4,1.1-2.5,2.5-2.5h2.5
							c1.4,0,2.5,1.1,2.5,2.5V348.9z"/>
					</g>
				</g>
				<g>
					<g>
						<path class="st16" d="M496.1,348.9c0,1.4-1.1,2.5-2.5,2.5h-2.5c-1.4,0-2.5-1.1-2.5-2.5v-2.5c0-1.4,1.1-2.5,2.5-2.5h2.5
							c1.4,0,2.5,1.1,2.5,2.5V348.9z"/>
					</g>
				</g>
				<g>
					<g>
						<path class="st16" d="M509.2,348.9c0,1.4-1.1,2.5-2.5,2.5h-2.5c-1.4,0-2.5-1.1-2.5-2.5v-2.5c0-1.4,1.1-2.5,2.5-2.5h2.5
							c1.4,0,2.5,1.1,2.5,2.5V348.9z"/>
					</g>
				</g>
			</g>
			<g>
				<g>
					<path class="st16" d="M387.4,338.2c0,1.4-1.1,2.5-2.5,2.5h-13.1c-1.4,0-2.5-1.1-2.5-2.5v-2.5c0-1.4,1.1-2.5,2.5-2.5h13.1
						c1.4,0,2.5,1.1,2.5,2.5V338.2z"/>
				</g>
			</g>
			<g>
				<g>
					<path class="st16" d="M389.9,338.2c0,1.4-1.1,2.5-2.5,2.5h-2.5c-1.4,0-2.5-1.1-2.5-2.5v-2.5c0-1.4,1.1-2.5,2.5-2.5h2.5
						c1.4,0,2.5,1.1,2.5,2.5V338.2z"/>
				</g>
			</g>
			<g>
				<g>
					<path class="st16" d="M403,338.2c0,1.4-1.1,2.5-2.5,2.5h-2.5c-1.4,0-2.5-1.1-2.5-2.5v-2.5c0-1.4,1.1-2.5,2.5-2.5h2.5
						c1.4,0,2.5,1.1,2.5,2.5V338.2z"/>
				</g>
			</g>
			<g>
				<g>
					<path class="st16" d="M416.1,338.2c0,1.4-1.1,2.5-2.5,2.5H411c-1.4,0-2.5-1.1-2.5-2.5v-2.5c0-1.4,1.1-2.5,2.5-2.5h2.5
						c1.4,0,2.5,1.1,2.5,2.5V338.2z"/>
				</g>
			</g>
			<g>
				<g>
					<path class="st16" d="M429.1,338.2c0,1.4-1.1,2.5-2.5,2.5h-2.5c-1.4,0-2.5-1.1-2.5-2.5v-2.5c0-1.4,1.1-2.5,2.5-2.5h2.5
						c1.4,0,2.5,1.1,2.5,2.5V338.2z"/>
				</g>
			</g>
			<g>
				<g>
					<path class="st16" d="M442.2,338.2c0,1.4-1.1,2.5-2.5,2.5h-2.5c-1.4,0-2.5-1.1-2.5-2.5v-2.5c0-1.4,1.1-2.5,2.5-2.5h2.5
						c1.4,0,2.5,1.1,2.5,2.5V338.2z"/>
				</g>
			</g>
			<g>
				<g>
					<path class="st16" d="M455.3,338.2c0,1.4-1.1,2.5-2.5,2.5h-2.5c-1.4,0-2.5-1.1-2.5-2.5v-2.5c0-1.4,1.1-2.5,2.5-2.5h2.5
						c1.4,0,2.5,1.1,2.5,2.5V338.2z"/>
				</g>
			</g>
			<g>
				<g>
					<path class="st16" d="M468.4,338.2c0,1.4-1.1,2.5-2.5,2.5h-2.5c-1.4,0-2.5-1.1-2.5-2.5v-2.5c0-1.4,1.1-2.5,2.5-2.5h2.5
						c1.4,0,2.5,1.1,2.5,2.5V338.2z"/>
				</g>
			</g>
			<g>
				<g>
					<path class="st16" d="M376.8,348.9c0,1.4-1.1,2.5-2.5,2.5h-2.5c-1.4,0-2.5-1.1-2.5-2.5v-2.5c0-1.4,1.1-2.5,2.5-2.5h2.5
						c1.4,0,2.5,1.1,2.5,2.5V348.9z"/>
				</g>
			</g>
			<g>
				<g>
					<path class="st16" d="M389.9,348.9c0,1.4-1.1,2.5-2.5,2.5h-2.5c-1.4,0-2.5-1.1-2.5-2.5v-2.5c0-1.4,1.1-2.5,2.5-2.5h2.5
						c1.4,0,2.5,1.1,2.5,2.5V348.9z"/>
				</g>
			</g>
			<g>
				<g>
					<path class="st16" d="M442.2,348.9c0,1.4-1.1,2.5-2.5,2.5h-41.8c-1.4,0-2.5-1.1-2.5-2.5v-2.5c0-1.4,1.1-2.5,2.5-2.5h41.8
						c1.4,0,2.5,1.1,2.5,2.5V348.9z"/>
				</g>
			</g>
			<g>
				<g>
					<path class="st16" d="M455.3,348.9c0,1.4-1.1,2.5-2.5,2.5h-2.5c-1.4,0-2.5-1.1-2.5-2.5v-2.5c0-1.4,1.1-2.5,2.5-2.5h2.5
						c1.4,0,2.5,1.1,2.5,2.5V348.9z"/>
				</g>
			</g>
			<g>
				<g>
					<path class="st16" d="M468.4,348.9c0,1.4-1.1,2.5-2.5,2.5h-2.5c-1.4,0-2.5-1.1-2.5-2.5v-2.5c0-1.4,1.1-2.5,2.5-2.5h2.5
						c1.4,0,2.5,1.1,2.5,2.5V348.9z"/>
				</g>
			</g>
		</g>
	</g>
	<g>
		<path class="st16" d="M460.8,379.2c0,1.4-1.1,2.5-2.5,2.5h-38.6c-1.4,0-2.5-1.1-2.5-2.5v-19c0-1.4,1.1-2.5,2.5-2.5h38.6
			c1.4,0,2.5,1.1,2.5,2.5V379.2z"/>
	</g>
	<g>
		<path class="st59" d="M492.3,294.5c0,1.3-1,2.3-2.3,2.3H392c-1.3,0-2.3-1-2.3-2.3v-1.4c0-1.3,1-2.3,2.3-2.3H490
			c1.3,0,2.3,1,2.3,2.3V294.5z"/>
	</g>
	<g>
		<path class="st58" d="M492.3,288.5c0,1.3-1,2.3-2.3,2.3H392c-1.3,0-2.3-1-2.3-2.3v-1.4c0-1.3,1-2.3,2.3-2.3H490
			c1.3,0,2.3,1,2.3,2.3V288.5z"/>
	</g>
	<g>
		<g>
			<g>
				<polygon class="st60" points="413.7,269 420.4,262.3 413.7,255.6 411.8,257.5 416.6,262.3 411.8,267.1 				"/>
			</g>
		</g>
		<g>
			<g>
				<polygon class="st60" points="399.7,255.6 393,262.3 399.7,269 401.6,267.1 396.8,262.3 401.6,257.5 				"/>
			</g>
		</g>
		<g>
			<g>
				<polygon class="st60" points="413.7,219.8 420.4,213.1 413.7,206.4 411.8,208.3 416.6,213.1 411.8,217.9 				"/>
			</g>
		</g>
		<g>
			<g>
				<polygon class="st60" points="399.7,206.4 393,213.1 399.7,219.8 401.6,217.9 396.8,213.1 401.6,208.3 				"/>
			</g>
		</g>
		<g>
			<g>
				<line class="st60" x1="404.9" y1="267.9" x2="408.6" y2="256.7"/>
			</g>
			<g>
				
					<rect x="400.8" y="261" transform="matrix(0.3127 -0.9498 0.9498 0.3127 30.3998 566.6014)" class="st61" width="11.9" height="2.5"/>
			</g>
		</g>
		<g>
			<g>
				<polygon class="st61" points="411.8,211.9 401.7,211.8 401.7,214.4 411.8,214.4 				"/>
			</g>
		</g>
		<g>
			<rect x="393" y="223.6" class="st62" width="48" height="2.3"/>
		</g>
		<g>
			<rect x="378.6" y="210.2" class="st63" width="6.4" height="3.7"/>
		</g>
		<g>
			<rect x="378.6" y="220.6" class="st62" width="6.4" height="3.7"/>
		</g>
		<g>
			<rect x="378.6" y="230.9" class="st61" width="6.4" height="3.7"/>
		</g>
		<g>
			<rect x="378.6" y="241.3" class="st63" width="6.4" height="3.7"/>
		</g>
		<g>
			<rect x="378.6" y="251.6" class="st62" width="6.4" height="3.7"/>
		</g>
		<g>
			<rect x="378.6" y="262" class="st63" width="6.4" height="3.7"/>
		</g>
		<g>
			<rect x="446.6" y="223.6" class="st61" width="48" height="2.3"/>
		</g>
		<g>
			<rect x="425.3" y="209.1" class="st62" width="48" height="2.3"/>
		</g>
		<g>
			<rect x="393" y="230" class="st63" width="101.8" height="2.3"/>
		</g>
		<g>
			<rect x="393" y="236.3" class="st61" width="24.5" height="2.3"/>
		</g>
		<g>
			<rect x="434.3" y="236.3" class="st63" width="45.9" height="2.3"/>
		</g>
		<g>
			<rect x="393" y="242.7" class="st62" width="58.5" height="2.3"/>
		</g>
		<g>
			<rect x="469.5" y="242.7" class="st62" width="25.5" height="2.3"/>
		</g>
		<g>
			<rect x="436.6" y="215.7" class="st63" width="25.5" height="2.3"/>
		</g>
		<g>
			<rect x="423.7" y="257.6" class="st62" width="33.6" height="2.3"/>
		</g>
		<g>
			<rect x="434.9" y="264.1" class="st63" width="25.5" height="2.3"/>
		</g>
		<g>
			<rect x="460.6" y="257.6" class="st61" width="25.5" height="2.3"/>
		</g>
		<g>
			<rect x="393" y="249.1" class="st63" width="101.8" height="2.3"/>
		</g>
	</g>
	<g>
		
			<ellipse transform="matrix(0.9997 -2.243608e-02 2.243608e-02 0.9997 -4.5383 8.5518)" class="st57" cx="378.8" cy="206.5" rx="37.2" ry="37.2"/>
	</g>
	<g>
		<defs>
			<path id="SVGID_5_" d="M410.6,206.5c0,17.5-14.2,31.7-31.7,31.7c-17.5,0-31.7-14.2-31.7-31.7c0-17.5,14.2-31.7,31.7-31.7
				C396.4,174.8,410.6,189,410.6,206.5z"/>
		</defs>
		<use xlink:href="#SVGID_5_"  style="overflow:visible;fill:#FFFFFF;"/>
		<clipPath id="SVGID_4_">
			<use xlink:href="#SVGID_5_"  style="overflow:visible;"/>
		</clipPath>
		<g class="st52">
			<g>
				<g>
					<polygon class="st60" points="369.4,299 382.9,285.4 369.4,271.9 365.5,275.8 375.2,285.4 365.5,295.1 					"/>
				</g>
			</g>
			<g>
				<g>
					<polygon class="st60" points="341,271.9 327.4,285.4 341,299 344.9,295.1 335.2,285.4 344.9,275.8 					"/>
				</g>
			</g>
			<g>
				<g>
					<polygon class="st60" points="369.4,199.6 382.9,186 369.4,172.5 365.5,176.3 375.2,186 365.5,195.7 					"/>
				</g>
			</g>
			<g>
				<g>
					<polygon class="st60" points="341,172.5 327.4,186 341,199.6 344.9,195.7 335.2,186 344.9,176.3 					"/>
				</g>
			</g>
			<g>
				<g>
					<line class="st60" x1="351.5" y1="296.8" x2="359" y2="274.1"/>
				</g>
				<g>
					
						<rect x="343.3" y="282.9" transform="matrix(0.3127 -0.9498 0.9498 0.3127 -26.9826 533.6009)" class="st61" width="24" height="5.1"/>
				</g>
			</g>
			<g>
				<g>
					<polygon class="st61" points="365.5,183.5 345,183.4 345,188.5 365.5,188.7 					"/>
				</g>
			</g>
			<g>
				<rect x="327.4" y="207.3" class="st62" width="97.1" height="4.6"/>
			</g>
			<g>
				<rect x="298.5" y="180.2" class="st63" width="12.9" height="7.4"/>
			</g>
			<g>
				<rect x="298.5" y="201.1" class="st62" width="12.9" height="7.4"/>
			</g>
			<g>
				<rect x="298.5" y="222.1" class="st61" width="12.9" height="7.4"/>
			</g>
			<g>
				<rect x="298.5" y="243" class="st63" width="12.9" height="7.4"/>
			</g>
			<g>
				<rect x="298.5" y="263.9" class="st62" width="12.9" height="7.4"/>
			</g>
			<g>
				<rect x="298.5" y="284.8" class="st63" width="12.9" height="7.4"/>
			</g>
			<g>
				<rect x="435.8" y="207.3" class="st61" width="97.1" height="4.6"/>
			</g>
			<g>
				<rect x="392.9" y="177.9" class="st62" width="97.1" height="4.6"/>
			</g>
			<g>
				<rect x="327.4" y="220.1" class="st63" width="205.7" height="4.6"/>
			</g>
			<g>
				<rect x="327.4" y="233" class="st61" width="49.5" height="4.6"/>
			</g>
			<g>
				<rect x="411" y="233" class="st63" width="92.8" height="4.6"/>
			</g>
			<g>
				<rect x="327.4" y="245.8" class="st62" width="118.3" height="4.6"/>
			</g>
			<g>
				<rect x="482.1" y="245.8" class="st62" width="51.6" height="4.6"/>
			</g>
			<g>
				<rect x="415.6" y="191.2" class="st63" width="51.6" height="4.6"/>
			</g>
			<g>
				<rect x="389.5" y="275.9" class="st62" width="67.9" height="4.6"/>
			</g>
			<g>
				<rect x="412.3" y="289.1" class="st63" width="51.6" height="4.6"/>
			</g>
			<g>
				<rect x="464.2" y="275.9" class="st61" width="51.6" height="4.6"/>
			</g>
			<g>
				<rect x="327.4" y="258.7" class="st63" width="205.7" height="4.6"/>
			</g>
		</g>
	</g>
	<g>
		<path class="st62" d="M434.3,408.4c0,1.3-1,2.3-2.3,2.3h-55.6c-1.3,0-2.3-1-2.3-2.3v-30.9c0-1.3,1-2.3,2.3-2.3H432
			c1.3,0,2.3,1,2.3,2.3V408.4z"/>
	</g>
	<g>
		<path class="st62" d="M554.7,317c0,1.3-1,2.3-2.3,2.3h-55.6c-1.3,0-2.3-1-2.3-2.3V286c0-1.3,1-2.3,2.3-2.3h55.6
			c1.3,0,2.3,1,2.3,2.3V317z"/>
	</g>
	<g>
		<path class="st61" d="M377.3,354.4c0,1.3-1,2.3-2.3,2.3h-55.6c-1.3,0-2.3-1-2.3-2.3v-30.9c0-1.3,1-2.3,2.3-2.3h55.6
			c1.3,0,2.3,1,2.3,2.3V354.4z"/>
	</g>
	<g>
		<path class="st57" d="M333.1,333.5c0,0,0.5-0.1,1.3-0.1c0.8,0,1.3,0.1,1.3,0.1v9.9c0,0-0.5,0.1-1.3,0.1c-0.9,0-1.3-0.1-1.3-0.1
			v-4.2h-3.6v4.2c0,0-0.5,0.1-1.3,0.1c-0.8,0-1.3-0.1-1.3-0.1v-9.9c0,0,0.5-0.1,1.3-0.1c0.8,0,1.3,0.1,1.3,0.1v3.9h3.6V333.5z"/>
		<path class="st57" d="M345.4,333.4c0,0,0.2,0.4,0.2,0.9c0,0.5-0.2,1-0.2,1h-2.8v8.1c0,0-0.5,0.1-1.3,0.1c-0.8,0-1.3-0.1-1.3-0.1
			v-8.1h-2.9c0,0-0.2-0.4-0.2-0.9c0-0.6,0.2-1,0.2-1H345.4z"/>
		<path class="st57" d="M356.3,333.4c0.7,0,1.5,0.1,1.7,0.1v9.9c0,0-0.4,0.1-1.2,0.1c-0.8,0-1.3-0.1-1.3-0.1v-3
			c0-1.6,0.1-3.7,0.2-4.5h-0.1c-0.2,0.6-0.8,2.1-1.4,3.3l-1,2.2c0,0-0.3,0.1-0.9,0.1c-0.6,0-0.8-0.1-0.8-0.1c-0.3-0.7-0.7-1.4-1-2.1
			c-0.6-1.2-1.3-2.8-1.4-3.4h-0.1c0.2,0.7,0.3,2.6,0.3,4.2v3.2c0,0-0.4,0.1-1.1,0.1c-0.7,0-1.1-0.1-1.1-0.1v-9.9
			c0.3,0,0.9-0.1,1.6-0.1c0.9,0,1.5,0.1,1.5,0.1l1.3,2.6c0.5,1,0.9,2,1.1,2.7h0.1c0.1-0.5,0.3-1,0.5-1.6c0.6-1.2,1.2-2.5,1.8-3.7
			C355.1,333.5,355.6,333.4,356.3,333.4z"/>
		<path class="st57" d="M360.2,333.5c0,0,0.5-0.1,1.3-0.1c0.8,0,1.3,0.1,1.3,0.1v8.2h4.5c0.1,0.3,0.2,0.6,0.2,0.9
			c0,0.3-0.1,0.6-0.2,0.9h-7.1V333.5z"/>
	</g>
	<g>
		<path class="st57" d="M389.5,388.2h2.9v5.1c0,1.1-0.1,1.9-0.3,2.4c-0.2,0.6-0.6,1-1.1,1.4s-1.3,0.6-2.2,0.6
			c-0.9,0-1.7-0.1-2.2-0.4s-0.9-0.6-1.2-1.1c-0.3-0.5-0.4-1.1-0.5-1.8l2.7-0.4c0,0.4,0,0.7,0.1,0.9c0.1,0.2,0.2,0.4,0.3,0.5
			c0.1,0.1,0.3,0.1,0.5,0.1c0.3,0,0.6-0.1,0.7-0.4s0.2-0.6,0.2-1.2V388.2z"/>
		<path class="st57" d="M399.7,396h-3.3l-0.5,1.5h-2.9l3.5-9.3h3.1l3.5,9.3h-3L399.7,396z M399.1,393.9l-1-3.3l-1,3.3H399.1z"/>
		<path class="st57" d="M402.5,388.2h3l2.1,6.7l2.1-6.7h2.9l-3.5,9.3H406L402.5,388.2z"/>
		<path class="st57" d="M418.5,396h-3.3l-0.5,1.5h-2.9l3.5-9.3h3.1l3.5,9.3h-3L418.5,396z M417.9,393.9l-1-3.3l-1,3.3H417.9z"/>
	</g>
	<g>
		<path class="st57" d="M515.7,303.7l2.5,0.8c-0.2,0.7-0.4,1.3-0.8,1.8c-0.4,0.5-0.8,0.8-1.4,1.1c-0.5,0.2-1.2,0.4-2.1,0.4
			c-1,0-1.8-0.1-2.5-0.4c-0.6-0.3-1.2-0.8-1.7-1.6c-0.5-0.7-0.7-1.7-0.7-2.8c0-1.5,0.4-2.7,1.2-3.5c0.8-0.8,2-1.2,3.5-1.2
			c1.2,0,2.1,0.2,2.8,0.7c0.7,0.5,1.2,1.2,1.5,2.2l-2.5,0.6c-0.1-0.3-0.2-0.5-0.3-0.6c-0.2-0.2-0.4-0.4-0.6-0.5s-0.5-0.2-0.8-0.2
			c-0.7,0-1.2,0.3-1.5,0.8c-0.3,0.4-0.4,1-0.4,1.8c0,1,0.2,1.7,0.5,2.1c0.3,0.4,0.8,0.6,1.3,0.6c0.6,0,1-0.2,1.2-0.5
			S515.6,304.3,515.7,303.7z"/>
		<path class="st57" d="M519.2,304.4l2.7-0.2c0.1,0.4,0.2,0.8,0.4,1c0.3,0.4,0.7,0.6,1.3,0.6c0.4,0,0.7-0.1,0.9-0.3
			c0.2-0.2,0.3-0.4,0.3-0.7c0-0.2-0.1-0.5-0.3-0.6c-0.2-0.2-0.7-0.4-1.5-0.5c-1.3-0.3-2.2-0.7-2.7-1.1c-0.5-0.5-0.8-1.1-0.8-1.8
			c0-0.5,0.1-0.9,0.4-1.4c0.3-0.4,0.7-0.8,1.3-1s1.3-0.4,2.3-0.4c1.2,0,2.1,0.2,2.7,0.7s1,1.1,1.1,2.1l-2.7,0.2
			c-0.1-0.4-0.2-0.7-0.5-0.9c-0.2-0.2-0.5-0.3-1-0.3c-0.3,0-0.6,0.1-0.8,0.2c-0.2,0.1-0.3,0.3-0.3,0.5c0,0.1,0.1,0.3,0.2,0.4
			c0.1,0.1,0.5,0.2,1,0.3c1.3,0.3,2.2,0.5,2.7,0.8s0.9,0.6,1.2,1c0.2,0.4,0.4,0.9,0.4,1.4c0,0.6-0.2,1.1-0.5,1.7
			c-0.3,0.5-0.8,0.9-1.4,1.1c-0.6,0.3-1.3,0.4-2.2,0.4c-1.6,0-2.7-0.3-3.3-0.9S519.2,305.4,519.2,304.4z"/>
		<path class="st57" d="M528.5,304.4l2.7-0.2c0.1,0.4,0.2,0.8,0.4,1c0.3,0.4,0.7,0.6,1.3,0.6c0.4,0,0.7-0.1,0.9-0.3
			c0.2-0.2,0.3-0.4,0.3-0.7c0-0.2-0.1-0.5-0.3-0.6c-0.2-0.2-0.7-0.4-1.5-0.5c-1.3-0.3-2.2-0.7-2.7-1.1c-0.5-0.5-0.8-1.1-0.8-1.8
			c0-0.5,0.1-0.9,0.4-1.4c0.3-0.4,0.7-0.8,1.3-1s1.3-0.4,2.3-0.4c1.2,0,2.1,0.2,2.7,0.7s1,1.1,1.1,2.1L534,301
			c-0.1-0.4-0.2-0.7-0.5-0.9c-0.2-0.2-0.5-0.3-1-0.3c-0.3,0-0.6,0.1-0.8,0.2c-0.2,0.1-0.3,0.3-0.3,0.5c0,0.1,0.1,0.3,0.2,0.4
			c0.1,0.1,0.5,0.2,1,0.3c1.3,0.3,2.2,0.5,2.7,0.8s0.9,0.6,1.2,1c0.2,0.4,0.4,0.9,0.4,1.4c0,0.6-0.2,1.1-0.5,1.7
			c-0.3,0.5-0.8,0.9-1.4,1.1c-0.6,0.3-1.3,0.4-2.2,0.4c-1.6,0-2.7-0.3-3.3-0.9S528.6,305.4,528.5,304.4z"/>
	</g>
	<line class="st56" x1="277.2" y1="283.1" x2="355.9" y2="283.1"/>
	<g>
		<g>
			<g>
				<g>
					
						<rect x="95.1" y="376.5" transform="matrix(0.9735 -0.2286 0.2286 0.9735 -91.5055 39.4085)" class="st16" width="58.5" height="76.5"/>
					<g>
						
							<rect x="102.5" y="432.5" transform="matrix(0.9735 -0.2286 0.2286 0.9735 -95.9914 37.765)" class="st65" width="25.1" height="1.7"/>
						
							<rect x="103.1" y="435" transform="matrix(0.9735 -0.2286 0.2286 0.9735 -96.5458 37.9642)" class="st65" width="25.1" height="1.7"/>
						
							<rect x="103.7" y="437.5" transform="matrix(0.9735 -0.2285 0.2285 0.9735 -97.1023 38.1647)" class="st65" width="25.1" height="1.7"/>
						
							<rect x="104.2" y="440" transform="matrix(0.9735 -0.2286 0.2286 0.9735 -97.6626 38.3671)" class="st65" width="25.1" height="1.7"/>
						
							<rect x="104.8" y="442.5" transform="matrix(0.9735 -0.2286 0.2286 0.9735 -98.2186 38.5672)" class="st65" width="25.1" height="1.7"/>
						
							<rect x="105.4" y="445" transform="matrix(0.9735 -0.2286 0.2286 0.9735 -98.7754 38.7677)" class="st65" width="25.1" height="1.7"/>
						
							<rect x="106" y="447.5" transform="matrix(0.9735 -0.2286 0.2286 0.9735 -99.3385 38.9717)" class="st65" width="25.1" height="1.7"/>
						
							<rect x="106.6" y="450" transform="matrix(0.9735 -0.2286 0.2286 0.9735 -99.8923 39.1706)" class="st65" width="25.1" height="1.7"/>
					</g>
					<g>
						
							<rect x="129.6" y="426.1" transform="matrix(0.9735 -0.2286 0.2286 0.9735 -93.8157 43.7989)" class="st65" width="25.1" height="1.7"/>
						
							<rect x="130.2" y="428.6" transform="matrix(0.9735 -0.2286 0.2286 0.9735 -94.3729 43.9997)" class="st65" width="25.1" height="1.7"/>
						
							<rect x="130.8" y="431.1" transform="matrix(0.9735 -0.2285 0.2285 0.9735 -94.9277 44.199)" class="st65" width="25.1" height="1.7"/>
						
							<rect x="131.4" y="433.6" transform="matrix(0.9735 -0.2286 0.2286 0.9735 -95.4868 44.4009)" class="st65" width="25.1" height="1.7"/>
						
							<rect x="132" y="436.1" transform="matrix(0.9735 -0.2286 0.2286 0.9735 -96.0452 44.6024)" class="st65" width="25.1" height="1.7"/>
						
							<rect x="132.6" y="438.6" transform="matrix(0.9735 -0.2285 0.2285 0.9735 -96.5998 44.8016)" class="st65" width="25.1" height="1.7"/>
						
							<rect x="133.1" y="441.2" transform="matrix(0.9735 -0.2286 0.2286 0.9735 -97.1593 45.0037)" class="st65" width="25.1" height="1.7"/>
						
							<rect x="133.7" y="443.7" transform="matrix(0.9735 -0.2286 0.2286 0.9735 -97.7173 45.2049)" class="st65" width="25.1" height="1.7"/>
					</g>
					
						<rect x="100.5" y="424.3" transform="matrix(0.9735 -0.2285 0.2285 0.9735 -94.6807 34.7831)" class="st66" width="4.6" height="3.8"/>
					
						<rect x="101.8" y="429.7" transform="matrix(0.9735 -0.2285 0.2285 0.9735 -95.8707 35.2113)" class="st67" width="4.6" height="3.8"/>
					
						<rect x="126.9" y="418.1" transform="matrix(0.9735 -0.2285 0.2285 0.9735 -92.5521 40.6354)" class="st68" width="4.6" height="3.8"/>
					
						<rect x="128.2" y="423.5" transform="matrix(0.9735 -0.2285 0.2285 0.9735 -93.7623 41.075)" class="st69" width="4.6" height="3.8"/>
					
						<rect x="107.5" y="423.8" transform="matrix(0.9735 -0.2286 0.2286 0.9735 -94.1185 36.4257)" class="st70" width="5.4" height="1.5"/>
					
						<rect x="108.8" y="429.3" transform="matrix(0.9735 -0.2285 0.2285 0.9735 -95.3215 36.8566)" class="st70" width="5.4" height="1.4"/>
					
						<rect x="133.3" y="417.7" transform="matrix(0.9735 -0.2285 0.2285 0.9735 -92.0293 42.1559)" class="st70" width="5.4" height="1.5"/>
					
						<rect x="134.6" y="423.2" transform="matrix(0.9735 -0.2286 0.2286 0.9735 -93.2656 42.6056)" class="st70" width="5.4" height="1.4"/>
					<g>
						<g>
							<path class="st65" d="M110.2,384.3c0.3-0.1,0.8-0.3,1.3-0.4c0.8-0.2,1.3-0.2,1.8,0c0.5,0.2,0.9,0.6,1.1,1.3
								c0.2,0.8,0,1.3-0.3,1.8c-0.4,0.4-1,0.8-1.8,1c-0.5,0.1-0.8,0.2-1.1,0.2L110.2,384.3z M111.9,387.3c0.1,0,0.2,0,0.3-0.1
								c0.9-0.2,1.3-0.8,1.1-1.7c-0.2-0.8-0.8-1.1-1.6-0.9c-0.2,0-0.3,0.1-0.4,0.1L111.9,387.3z"/>
							<path class="st65" d="M116.1,386l-0.1,1.1l-1,0.2l0.3-4.3l1.2-0.3l2.2,3.7l-1,0.2l-0.6-0.9L116.1,386z M117,385.1l-0.5-0.8
								c-0.1-0.2-0.3-0.5-0.4-0.7l0,0c0,0.2,0,0.6,0,0.8l0,0.9L117,385.1z"/>
							<path class="st65" d="M118.9,383l-1.1,0.3l-0.2-0.8l3.2-0.8l0.2,0.8l-1.1,0.3l0.8,3.2l-0.9,0.2L118.9,383z"/>
							<path class="st65" d="M122.6,384.5l-0.1,1.1l-1,0.2l0.3-4.3l1.2-0.3l2.2,3.7l-1,0.2l-0.6-0.9L122.6,384.5z M123.5,383.6
								l-0.5-0.8c-0.1-0.2-0.3-0.5-0.4-0.7l0,0c0,0.3,0,0.6,0,0.8l-0.1,0.9L123.5,383.6z"/>
						</g>
					</g>
					<g>
						<g>
							<path class="st65" d="M92.7,396l6.3,26.8l6.5-1.5l43.9-10.3l1.9-0.4l-6.3-26.8L92.7,396z M125.3,389.7l8.1-1.9l1.2,5
								l-8.1,1.9L125.3,389.7z M105.3,394.4l8.1-1.9l1.2,5l-8.1,1.9L105.3,394.4z M109.1,419.1L109.1,419.1l-2.3,0.5l-2.2,0.5
								l-3.4,0.8l-0.7,0.2l-0.3-1.1l-0.4-1.8l-0.3-1.1l-0.2-0.7l0,0l5.8-1.4c0,0,0,0,0,0l2.7-0.6c0,0,0,0,0,0l0,0L109.1,419.1z
								 M107.6,412.7c-0.1,0.1-0.1,0.1-0.2,0.2l0.1,0.4l-0.6,0.1l-7.6,1.8l-0.2,0.1l-1.3-5.4l0.3-0.1l0,0l8.1-1.9l0,0l0.2,0
								L107.6,412.7z M106.1,406.5l-8.6,2l-1.3-5.4l8.6-2L106.1,406.5z M104.6,399.9l-8.6,2l-1.2-5l8.6-2L104.6,399.9z M119.1,416.8
								l-8.1,1.9l-1.1-4.7l8.1-1.9L119.1,416.8z M117.7,410.8L117.7,410.8l-8.1,1.9l-0.1,0l-0.4-1.7c0,0,0,0,0,0l-0.9-3.7l0,0l0,0
								l8.1-1.9L117.7,410.8z M116.1,404.2l-0.3,0.1c0,0,0,0,0,0l-7.8,1.8l-1.3-5.4l8.1-1.9l0.1,0.4l0,0L116.1,404.2z M129.1,414.4
								l-8.1,1.9l-1.1-4.7l8.1-1.9L129.1,414.4z M127.7,408.5l-8.1,1.9l-1.2-5.3l0,0l0-0.1l8.1-1.9l0.5,2.2l0,0L127.7,408.5z
								 M126.1,401.8l-8.1,1.9l0,0l-1.3-5.4l8.1-1.9L126.1,401.8z M124.6,395.2l-8.1,1.9l-1.2-5l8.1-1.9L124.6,395.2z M139.1,412.1
								L131,414l-1.1-4.7l8.1-1.9L139.1,412.1z M137.7,405.8L137.7,405.8l0,0.4l-8.1,1.9l-0.6-2.7l0.1,0l-0.3-1.3l-0.1,0l-0.3-1.4
								l0,0l0,0l8.1-1.9L137.7,405.8z M136.1,399.5l-1.4,0.3l-6.7,1.6l-1.3-5.4l8.1-1.9l0.1,0.3L136.1,399.5z M149.1,409.7l-8.1,1.9
								l-1.1-4.7l8.1-1.9L149.1,409.7z M147.7,403.8l-8.1,1.9l-1.3-5.4l8.1-1.9L147.7,403.8z M146.2,396.8l0.1,0.3l-0.1,0L138,399
								l-1.3-5.4l1.6-0.4l0,0l2.2-0.5l0,0l4.4-1l0,0l0.1,0L146.2,396.8z M144.7,390.5l-0.1,0l0,0l-3.2,0.8l0,0l-2.2,0.5l-2.6,0.6
								l-0.1,0l-1.2-5l0.1,0l7.1-1.7l1-0.2L144.7,390.5z"/>
						</g>
					</g>
					<polygon class="st66" points="100.3,420.9 99.5,420.2 107.8,410.5 114.1,411.7 122.3,402.8 128.1,405.7 132.8,393.2 
						148.3,401.4 147.7,402.4 133.4,394.8 128.7,407.3 122.5,404.2 114.5,412.9 108.3,411.7 					"/>
					<polygon class="st67" points="133,404.3 120.5,399.8 114.1,404.4 109.8,404.9 103.2,409.8 97.8,412.4 97.3,411.4 102.6,408.9 
						109.4,403.8 113.7,403.3 120.3,398.6 132.8,403 145.8,392.2 146.6,393 					"/>
					<polygon class="st68" points="114.3,415.4 103.4,412.4 98.4,416.4 97.7,415.6 103.1,411.2 114.1,414.2 123.1,407 132.2,409.2 
						141.5,400.7 147.2,397.6 147.8,398.6 142.1,401.5 132.5,410.4 123.3,408.2 					"/>
					<polygon class="st69" points="99.1,418.1 98.4,417.3 111.7,407.1 115.1,407.5 127.2,392.6 133.8,396.8 144.3,385.9 
						145.1,386.6 134,398.2 127.4,394.1 115.6,408.6 112,408.2 					"/>
					
						<rect x="96" y="397.5" transform="matrix(0.9735 -0.2286 0.2286 0.9735 -91.0964 32.9918)" class="st65" width="1.8" height="24.5"/>
					
						<rect x="146.2" y="383.6" transform="matrix(0.9735 -0.2285 0.2285 0.9735 -86.9188 44.1453)" class="st65" width="2" height="27.5"/>
				</g>
			</g>
		</g>
	</g>
	<g>
		<polygon class="st71" points="126,153.5 104.4,188.8 130,204.5 149,173.5 147.6,166.7 		"/>
		<g>
			<g>
				<g>
					
						<rect x="129" y="183.5" transform="matrix(0.5187 -0.855 0.855 0.5187 -100.0756 202.0604)" class="st65" width="0.9" height="12.9"/>
					
						<rect x="128.2" y="184.6" transform="matrix(0.5187 -0.855 0.855 0.5187 -101.4433 202.0123)" class="st65" width="0.9" height="12.9"/>
					
						<rect x="127.5" y="185.8" transform="matrix(0.5187 -0.855 0.855 0.5187 -102.8107 201.9708)" class="st65" width="0.9" height="12.9"/>
					
						<rect x="126.8" y="187" transform="matrix(0.5187 -0.855 0.855 0.5187 -104.1781 201.9249)" class="st65" width="0.9" height="12.9"/>
					
						<rect x="126.1" y="188.2" transform="matrix(0.5187 -0.855 0.855 0.5187 -105.5456 201.8801)" class="st65" width="0.9" height="12.9"/>
					
						<rect x="125.4" y="189.4" transform="matrix(0.5187 -0.855 0.855 0.5187 -106.913 201.8407)" class="st65" width="0.9" height="12.9"/>
					
						<rect x="124.6" y="190.6" transform="matrix(0.5187 -0.855 0.855 0.5187 -108.2806 201.7903)" class="st65" width="0.9" height="12.9"/>
					
						<rect x="123.9" y="191.8" transform="matrix(0.5187 -0.855 0.855 0.5187 -109.648 201.7467)" class="st65" width="0.9" height="12.9"/>
				</g>
				<g>
					
						<rect x="116.7" y="176" transform="matrix(0.5187 -0.855 0.855 0.5187 -99.6186 188.0216)" class="st65" width="0.9" height="12.9"/>
					
						<rect x="116" y="177.2" transform="matrix(0.5187 -0.855 0.855 0.5187 -100.9862 187.9781)" class="st65" width="0.9" height="12.9"/>
					
						<rect x="115.3" y="178.4" transform="matrix(0.5187 -0.855 0.855 0.5187 -102.3535 187.9376)" class="st65" width="0.9" height="12.9"/>
					
						<rect x="114.6" y="179.6" transform="matrix(0.5187 -0.855 0.855 0.5187 -103.721 187.8889)" class="st65" width="0.9" height="12.9"/>
					
						<rect x="113.8" y="180.8" transform="matrix(0.5187 -0.855 0.855 0.5187 -105.0883 187.8479)" class="st65" width="0.9" height="12.9"/>
					
						<rect x="113.1" y="182" transform="matrix(0.5187 -0.855 0.855 0.5187 -106.456 187.8016)" class="st65" width="0.9" height="12.9"/>
					
						<rect x="112.4" y="183.2" transform="matrix(0.5187 -0.855 0.855 0.5187 -107.8235 187.7545)" class="st65" width="0.9" height="12.9"/>
					
						<rect x="111.7" y="184.4" transform="matrix(0.5187 -0.855 0.855 0.5187 -109.1909 187.7157)" class="st65" width="0.9" height="12.9"/>
				</g>
				
					<rect x="123.7" y="179.7" transform="matrix(0.5187 -0.855 0.855 0.5187 -94.6354 193.7617)" class="st68" width="2.1" height="2.4"/>
				
					<rect x="122.2" y="182.3" transform="matrix(0.5187 -0.855 0.855 0.5187 -97.5679 193.6566)" class="st69" width="2.1" height="2.4"/>
				
					<rect x="132.9" y="184.8" transform="matrix(0.5187 -0.855 0.855 0.5187 -94.9879 203.5954)" class="st70" width="0.8" height="2.8"/>
				
					<rect x="131.4" y="187.4" transform="matrix(0.5187 -0.8549 0.8549 0.5187 -97.9801 203.4834)" class="st70" width="0.8" height="2.8"/>
				
					<rect x="121.3" y="177.7" transform="matrix(0.5187 -0.855 0.855 0.5187 -94.553 190.2383)" class="st70" width="0.8" height="2.8"/>
				
					<rect x="119.7" y="180.3" transform="matrix(0.5187 -0.855 0.855 0.5187 -97.5444 190.1399)" class="st70" width="0.8" height="2.8"/>
				
					<rect x="130.6" y="159.6" transform="matrix(0.5187 -0.855 0.855 0.5187 -85.0473 195.4427)" class="st65" width="0.9" height="27.4"/>
				
					<rect x="129.9" y="160.8" transform="matrix(0.5187 -0.855 0.855 0.5187 -86.4759 195.3963)" class="st65" width="0.9" height="27.4"/>
				
					<rect x="129.1" y="162.1" transform="matrix(0.5187 -0.855 0.855 0.5187 -87.9047 195.35)" class="st65" width="0.9" height="27.4"/>
				
					<rect x="128.3" y="163.3" transform="matrix(0.5187 -0.855 0.855 0.5187 -89.3335 195.3037)" class="st65" width="0.9" height="27.4"/>
				
					<rect x="127.6" y="164.5" transform="matrix(0.5187 -0.855 0.855 0.5187 -90.7621 195.256)" class="st65" width="0.9" height="27.4"/>
				
					<rect x="126.8" y="165.8" transform="matrix(0.5187 -0.855 0.855 0.5187 -92.1911 195.209)" class="st65" width="0.9" height="27.4"/>
				<polygon class="st65" points="124.1,162.2 143.6,174.1 144.1,173.3 124.5,161.4 				"/>
				<polygon class="st65" points="123.3,163.4 142.9,175.3 143.3,174.5 123.8,162.6 				"/>
				<polygon class="st65" points="122.6,164.5 142.2,176.5 142.6,175.7 123.1,163.8 				"/>
				<polygon class="st65" points="121.9,165.7 141.4,177.6 141.9,176.9 122.4,165 				"/>
			</g>
			
				<rect x="134.7" y="151.2" transform="matrix(0.5179 -0.8554 0.8554 0.5179 -74.2495 194.1962)" class="st65" width="0.9" height="23.5"/>
			
				<rect x="134" y="152.5" transform="matrix(0.5179 -0.8555 0.8555 0.5179 -75.6765 194.1799)" class="st65" width="0.9" height="23.5"/>
		</g>
	</g>
	<line class="st56" x1="431.5" y1="166.5" x2="431.5" y2="185.7"/>
	<line class="st56" x1="461.5" y1="387.8" x2="461.5" y2="407"/>
	<g>
		<path class="st16" d="M299.1,152.8c0.4,0.9,1.2,1.6,2.2,1.8c1,0.1,2-0.3,2.6-1.1l6.5-9l-25.1-32l27.8,28.3l8.9-12.3
			c0.6-0.8,0.7-1.8,0.5-2.7c-0.3-0.9-1-1.7-1.9-2l-36-13.2c-0.4-0.1-0.8,0-1,0.2c-0.3,0.3-0.4,0.7-0.2,1L299.1,152.8z M299.1,152.8"
			/>
		<path class="st16" d="M312.7,146.6l0.4-0.1l9.5-1.7c0.7-0.1,1.3-0.6,1.6-1.3c0.3-0.7,0.2-1.4-0.2-2c-1.6-2.4-3.6-5.6-3.8-5.5
			L312.7,146.6z M312.7,146.6"/>
	</g>
	<g>
		<g>
			<path class="st72" d="M487.2,127.9c-0.6-0.6-1.3-1-2.2-1.2l-56-12.6c-1.1-0.3-2.3,0-3.3,0.5l23.5,28.1l0.1,0.1l-0.1,0l2.1,2.5
				l3-1.4l-0.1-0.1l0.1,0L487.2,127.9z"/>
			<path class="st72" d="M425.8,114.6c0,0,33-20.1,37-19.2c4,0.9,24.4,32.6,24.4,32.6L425.8,114.6z"/>
			<g>
				
					<rect x="430" y="117" transform="matrix(0.2194 -0.9756 0.9756 0.2194 220.1799 549.7036)" class="st16" width="47.2" height="40.4"/>
				
					<rect x="456.6" y="101.9" transform="matrix(0.2194 -0.9756 0.9756 0.2194 240.8853 539.6093)" class="st73" width="2.1" height="34.7"/>
				
					<rect x="454.5" y="111.3" transform="matrix(0.2194 -0.9756 0.9756 0.2194 230.0296 544.898)" class="st73" width="2.1" height="34.7"/>
				
					<rect x="455.5" y="106.6" transform="matrix(0.2194 -0.9756 0.9756 0.2194 235.4587 542.2548)" class="st73" width="2.1" height="34.7"/>
				
					<rect x="453.4" y="116.1" transform="matrix(0.2194 -0.9756 0.9756 0.2194 224.6035 547.5433)" class="st73" width="2.1" height="34.7"/>
				
					<rect x="452.4" y="120.5" transform="matrix(0.2194 -0.9756 0.9756 0.2194 219.5321 550.0182)" class="st73" width="2.1" height="34.7"/>
				
					<rect x="451.4" y="125.2" transform="matrix(0.2194 -0.9756 0.9756 0.2194 214.1027 552.6617)" class="st73" width="2.1" height="34.7"/>
			</g>
			<g>
				<polygon class="st74" points="447.9,141.1 447.2,140.3 447.9,141.1 				"/>
				<polygon class="st75" points="440.6,132.4 440.6,132.4 447.2,140.3 				"/>
				<path class="st76" d="M447.9,141.1L447.9,141.1l-0.7-0.8l-6.6-7.9l-14.9-17.8c-1.5,0.8-2.6,2.2-3,4.1l-7,31.1
					c-0.4,1.6-0.1,3.2,0.6,4.5l25.5-8.9l7.4-2.6L447.9,141.1z"/>
				<path class="st76" d="M487.2,128l-24.6,11.8l0,0l-5.2,2.5l-2.6,1.3l-0.4,0.2l6.8,6.8l17.9,18c1.3-0.8,2.4-2.2,2.8-3.9l7-31.1
					C489.2,131.4,488.5,129.3,487.2,128z"/>
				<path class="st77" d="M461.1,150.6l-6.8-6.8l0.4-0.2c0,0-2.4,0.8-3.4,0.6c-1-0.2-3.4-3-3.4-3l1.3,1.6l-7.4,2.6l-25.5,8.9
					c0.7,1.2,1.8,2.1,3.1,2.4l56,12.6c1.2,0.3,2.5,0,3.5-0.6L461.1,150.6z"/>
			</g>
		</g>
	</g>
	<g>
		<g>
			<path class="st78" d="M331.6,274.2l-0.4,32.9c0,1.3,1.1,2.4,2.4,2.4l37.2,0.5c1.3,0,2.4-1.1,2.4-2.4l0.4-32.9L331.6,274.2z"/>
			<path class="st79" d="M373.8,261.6c0-1.3-1.1-2.4-2.4-2.4l-37.2-0.5c-1.3,0-2.4,1.1-2.4,2.4l-0.2,13.2l42.1,0.5L373.8,261.6z"/>
		</g>
		<path class="st71" d="M367.9,291.7l0.1-11.4c0-1.2-1.1-2.2-2.4-2.2l-12.5-0.2l-0.2,13.6L367.9,291.7z"/>
		<path class="st71" d="M336.9,292.5l-0.1,11.4c0,1.2,1.1,2.2,2.4,2.2l12.5,0.2l0.2-13.6L336.9,292.5z"/>
		<g>
			<path class="st80" d="M335.3,266.7c0-1.5,1-2.7,2.2-2.7l31.6,0.4c0.6,0,1.1,0.3,1.5,0.8c0-1.5-1-2.6-2.1-2.7l-31.6-0.4
				c-1.2,0-2.2,1.2-2.2,2.7l0,3c0,0.7,0.2,1.4,0.6,1.9c0,0,0-0.1,0-0.1L335.3,266.7z"/>
			<path class="st81" d="M336.8,270.7l31.6,0.4c1.2,0,2.2-1.2,2.2-2.7l0-3c0,0,0-0.1,0-0.1c-0.4-0.5-0.9-0.8-1.5-0.8l-31.6-0.4
				c-1.2,0-2.2,1.2-2.2,2.7l0,3c0,0,0,0.1,0,0.1C335.7,270.3,336.2,270.7,336.8,270.7z"/>
		</g>
		<g>
			<path class="st71" d="M351.9,277.8l-12.5-0.2c-1.3,0-2.4,1-2.4,2.2l-0.1,11.4l14.9,0.2L351.9,277.8z"/>
			<path class="st79" d="M345.3,280.2l0,3.6l3.5,0l0,1.6l-3.5,0l0,3.6l-1.6,0l0-3.6l-3.5,0l0-1.6l3.5,0l0-3.6L345.3,280.2z"/>
		</g>
		<path class="st79" d="M363.4,284l0,1.7l-5.8-0.1l0-1.7L363.4,284z"/>
		<path class="st79" d="M348,296.9l-2.6,2.5l2.4,2.5l-1.1,1.1l-2.4-2.5l-2.6,2.5l-1.1-1.2l2.6-2.5l-2.4-2.5l1.1-1.1l2.4,2.5l2.6-2.5
			L348,296.9z"/>
		<g>
			<path class="st71" d="M353,292.7l-0.2,13.6l12.5,0.2c1.3,0,2.4-1,2.4-2.2l0.1-11.4L353,292.7z"/>
			<g>
				<path class="st79" d="M356.1,298.6l0-1.5l8.5,0.1l0,1.5L356.1,298.6z M356.1,302l0-1.5l8.5,0.1l0,1.5L356.1,302z"/>
			</g>
		</g>
	</g>
	<g>
		<path class="st82" d="M551.4,261.4V184c0-2.2-1.8-3.9-3.9-3.9h-67c-2.2,0-3.9,1.8-3.9,3.9v79.7
			C485.7,261.5,547.4,258.8,551.4,261.4z"/>
		<text id="XMLID_371_" transform="matrix(1 0 0 1 489.8604 189.9466)" class="st83 st84 st85 st86">DATA MANAGEMENT</text>
		<g id="XMLID_4_">
			<rect id="XMLID_369_" x="481.1" y="230.9" class="st83" width="66" height="0.2"/>
			<rect id="XMLID_368_" x="481.1" y="227" class="st83" width="66" height="0.2"/>
			<rect id="XMLID_367_" x="481.1" y="223.2" class="st83" width="66" height="0.2"/>
			<rect id="XMLID_366_" x="481.1" y="219.3" class="st83" width="66" height="0.2"/>
			<rect id="XMLID_365_" x="481.1" y="215.4" class="st83" width="66" height="0.2"/>
			<rect id="XMLID_364_" x="481.1" y="211.6" class="st83" width="66" height="0.2"/>
			<rect id="XMLID_363_" x="481.1" y="207.7" class="st83" width="66" height="0.2"/>
			<rect id="XMLID_362_" x="481.1" y="203.9" class="st83" width="66" height="0.2"/>
			<rect id="XMLID_321_" x="481.1" y="200" class="st83" width="66" height="0.2"/>
			<rect id="XMLID_14_" x="481.1" y="196.1" class="st83" width="66" height="0.2"/>
			<linearGradient id="XMLID_16_" gradientUnits="userSpaceOnUse" x1="487.0599" y1="215.4418" x2="487.0599" y2="231.0897">
				<stop  offset="0" style="stop-color:#FFE8A3"/>
				<stop  offset="0.5" style="stop-color:#FFCA05"/>
				<stop  offset="1" style="stop-color:#FAAC18"/>
			</linearGradient>
			<rect id="XMLID_13_" x="485.1" y="215.4" class="st87" width="3.9" height="15.6"/>
			<linearGradient id="XMLID_17_" gradientUnits="userSpaceOnUse" x1="493.7057" y1="223.1684" x2="493.7057" y2="231.0897">
				<stop  offset="0" style="stop-color:#F69353"/>
				<stop  offset="0.5" style="stop-color:#F37521"/>
				<stop  offset="1" style="stop-color:#D4622A"/>
			</linearGradient>
			<rect id="XMLID_12_" x="491.8" y="223.2" class="st88" width="3.9" height="7.9"/>
			<linearGradient id="XMLID_18_" gradientUnits="userSpaceOnUse" x1="500.3516" y1="215.4418" x2="500.3516" y2="231.0897">
				<stop  offset="0" style="stop-color:#F37F7C"/>
				<stop  offset="0.5" style="stop-color:#EE3D57"/>
				<stop  offset="1" style="stop-color:#DD1E47"/>
			</linearGradient>
			<rect id="XMLID_11_" x="498.4" y="215.4" class="st89" width="3.9" height="15.6"/>
			<linearGradient id="XMLID_19_" gradientUnits="userSpaceOnUse" x1="506.9974" y1="207.7154" x2="506.9974" y2="231.0897">
				<stop  offset="0" style="stop-color:#D471AC"/>
				<stop  offset="0.5" style="stop-color:#C7158C"/>
				<stop  offset="1" style="stop-color:#9C248E"/>
			</linearGradient>
			<rect id="XMLID_10_" x="505" y="207.7" class="st90" width="3.9" height="23.4"/>
			<linearGradient id="XMLID_20_" gradientUnits="userSpaceOnUse" x1="513.6432" y1="211.7734" x2="513.6432" y2="231.0897">
				<stop  offset="0" style="stop-color:#FFE8A3"/>
				<stop  offset="0.5" style="stop-color:#FFCA05"/>
				<stop  offset="1" style="stop-color:#FAAC18"/>
			</linearGradient>
			<rect id="XMLID_9_" x="511.7" y="211.8" class="st91" width="3.9" height="19.3"/>
			<linearGradient id="XMLID_21_" gradientUnits="userSpaceOnUse" x1="520.289" y1="197.9782" x2="520.289" y2="231.0897">
				<stop  offset="0" style="stop-color:#F69353"/>
				<stop  offset="0.5" style="stop-color:#F37521"/>
				<stop  offset="1" style="stop-color:#D4622A"/>
			</linearGradient>
			<rect id="XMLID_8_" x="518.3" y="198" class="st92" width="3.9" height="33.1"/>
			<linearGradient id="XMLID_22_" gradientUnits="userSpaceOnUse" x1="526.9348" y1="199.9889" x2="526.9348" y2="231.0897">
				<stop  offset="0" style="stop-color:#F37F7C"/>
				<stop  offset="0.5" style="stop-color:#EE3D57"/>
				<stop  offset="1" style="stop-color:#DD1E47"/>
			</linearGradient>
			<rect id="XMLID_7_" x="525" y="200" class="st93" width="3.9" height="31.1"/>
			<linearGradient id="XMLID_23_" gradientUnits="userSpaceOnUse" x1="533.5807" y1="207.7154" x2="533.5807" y2="231.0897">
				<stop  offset="0" style="stop-color:#FFE8A3"/>
				<stop  offset="0.5" style="stop-color:#FFCA05"/>
				<stop  offset="1" style="stop-color:#FAAC18"/>
			</linearGradient>
			<rect id="XMLID_6_" x="531.6" y="207.7" class="st94" width="3.9" height="23.4"/>
			<linearGradient id="XMLID_24_" gradientUnits="userSpaceOnUse" x1="540.2265" y1="211.5786" x2="540.2265" y2="231.0897">
				<stop  offset="0" style="stop-color:#F69353"/>
				<stop  offset="0.5" style="stop-color:#F37521"/>
				<stop  offset="1" style="stop-color:#D4622A"/>
			</linearGradient>
			<rect id="XMLID_5_" x="538.3" y="211.6" class="st95" width="3.9" height="19.5"/>
		</g>
		<linearGradient id="XMLID_25_" gradientUnits="userSpaceOnUse" x1="487.0599" y1="237.3971" x2="487.0599" y2="241.2935">
			<stop  offset="0" style="stop-color:#FFE8A3"/>
			<stop  offset="0.5" style="stop-color:#FFCA05"/>
			<stop  offset="1" style="stop-color:#FAAC18"/>
		</linearGradient>
		<path id="XMLID_3_" class="st96" d="M487.3,241.3h-0.5c-0.9,0-1.7-0.8-1.7-1.7v-0.5c0-0.9,0.8-1.7,1.7-1.7h0.5
			c0.9,0,1.7,0.8,1.7,1.7v0.5C489,240.5,488.3,241.3,487.3,241.3z"/>
		<linearGradient id="XMLID_26_" gradientUnits="userSpaceOnUse" x1="487.0599" y1="245.0428" x2="487.0599" y2="248.9391">
			<stop  offset="0" style="stop-color:#F69353"/>
			<stop  offset="0.5" style="stop-color:#F37521"/>
			<stop  offset="1" style="stop-color:#D4622A"/>
		</linearGradient>
		<path id="XMLID_2_" class="st97" d="M487.3,248.9h-0.5c-0.9,0-1.7-0.8-1.7-1.7v-0.5c0-0.9,0.8-1.7,1.7-1.7h0.5
			c0.9,0,1.7,0.8,1.7,1.7v0.5C489,248.2,488.3,248.9,487.3,248.9z"/>
		<linearGradient id="XMLID_27_" gradientUnits="userSpaceOnUse" x1="487.0599" y1="252.6884" x2="487.0599" y2="256.5847">
			<stop  offset="0" style="stop-color:#F37F7C"/>
			<stop  offset="0.5" style="stop-color:#EE3D57"/>
			<stop  offset="1" style="stop-color:#DD1E47"/>
		</linearGradient>
		<path id="XMLID_1_" class="st98" d="M487.3,256.6h-0.5c-0.9,0-1.7-0.8-1.7-1.7v-0.5c0-0.9,0.8-1.7,1.7-1.7h0.5
			c0.9,0,1.7,0.8,1.7,1.7v0.5C489,255.8,488.3,256.6,487.3,256.6z"/>
		<rect id="XMLID_206_" x="491.8" y="237.9" class="st83" width="14.7" height="0.5"/>
		<rect id="XMLID_205_" x="491.8" y="239.1" class="st83" width="21.8" height="0.5"/>
		<rect id="XMLID_204_" x="491.8" y="240.3" class="st83" width="21.8" height="0.5"/>
		<rect id="XMLID_223_" x="491.8" y="245.5" class="st83" width="14.7" height="0.5"/>
		<rect id="XMLID_222_" x="491.8" y="246.7" class="st83" width="21.8" height="0.5"/>
		<rect id="XMLID_221_" x="491.8" y="247.9" class="st83" width="21.8" height="0.5"/>
		<rect id="XMLID_262_" x="532.3" y="245.5" class="st83" width="14.7" height="0.5"/>
		<rect id="XMLID_258_" x="525.2" y="246.7" class="st83" width="21.8" height="0.5"/>
		<rect id="XMLID_257_" x="525.2" y="247.9" class="st83" width="21.8" height="0.5"/>
		<rect id="XMLID_263_" x="525.2" y="249.1" class="st83" width="21.8" height="0.5"/>
		<rect id="XMLID_265_" x="525.2" y="250.4" class="st83" width="21.8" height="0.5"/>
		<rect id="XMLID_267_" x="525.2" y="251.6" class="st83" width="21.8" height="0.5"/>
		<rect id="XMLID_269_" x="525.2" y="252.8" class="st83" width="21.8" height="0.5"/>
		<rect id="XMLID_226_" x="491.8" y="253.2" class="st83" width="14.7" height="0.5"/>
		<rect id="XMLID_225_" x="491.8" y="254.4" class="st83" width="21.8" height="0.5"/>
		<rect id="XMLID_224_" x="491.8" y="255.6" class="st83" width="21.8" height="0.5"/>
		<path id="XMLID_261_" class="st83" d="M525,237.9v3h21.9v-3H525z M546.6,240.5h-21.2v-2.2h21.2V240.5z"/>
	</g>
	<g>
		<path class="st99" d="M445.2,119.3l3.4,0.7c0.7,0.1,1.2,0.3,1.5,0.4c0.3,0.1,0.6,0.3,0.8,0.5s0.4,0.5,0.5,0.8
			c0.1,0.3,0.1,0.7,0.1,1c-0.1,0.4-0.3,0.7-0.5,1c-0.3,0.3-0.6,0.5-1,0.6c0.5,0.2,0.8,0.6,1,1c0.2,0.4,0.3,0.9,0.2,1.4
			c-0.1,0.4-0.2,0.7-0.5,1.1c-0.3,0.3-0.5,0.6-0.9,0.7c-0.3,0.2-0.8,0.2-1.2,0.2c-0.3,0-1-0.1-2.1-0.3l-2.9-0.6L445.2,119.3z
			 M446,124.4l-0.4,2.3l1.6,0.3c0.6,0.1,1,0.2,1.2,0.2c0.3,0,0.5-0.1,0.7-0.2c0.2-0.1,0.3-0.4,0.4-0.7c0.1-0.3,0-0.5-0.1-0.7
			c-0.1-0.2-0.2-0.4-0.5-0.5c-0.2-0.1-0.7-0.3-1.5-0.4L446,124.4z M446.6,121l-0.4,2l1.1,0.2c0.7,0.1,1.1,0.2,1.2,0.2
			c0.3,0,0.5,0,0.7-0.2s0.3-0.3,0.4-0.6c0.1-0.3,0-0.5-0.1-0.7c-0.1-0.2-0.3-0.3-0.6-0.4c-0.2-0.1-0.6-0.2-1.5-0.3L446.6,121z"/>
		<path class="st99" d="M452,129.3l1.6-8.4l1.7,0.3l-1.6,8.4L452,129.3z"/>
		<path class="st99" d="M455.4,130l1.6-8.4l1.7,0.3l-1.3,6.9l4.2,0.8l-0.3,1.4L455.4,130z"/>
		<path class="st99" d="M462.6,131.4l1.6-8.4l1.7,0.3l-1.3,6.9l4.2,0.8l-0.3,1.4L462.6,131.4z"/>
	</g>
	<polygon class="st100" points="435.6,431.6 478.1,502.7 436.6,527.5 394.1,456.4 394.2,456.4 396.4,457.6 396.4,455.1 396.4,455.1 
		398.6,456.3 398.5,453.8 398.5,453.8 400.7,455 400.7,452.5 400.7,452.5 402.9,453.7 402.9,451.2 402.9,451.2 405.1,452.4 
		405.1,449.9 405.1,449.9 407.3,451.1 407.2,448.6 407.2,448.6 409.4,449.8 409.4,447.3 409.4,447.3 411.6,448.5 411.6,446 
		411.6,446 413.8,447.2 413.7,444.7 413.7,444.7 416,445.9 415.9,443.4 415.9,443.4 418.1,444.6 418.1,442.1 418.1,442.1 
		420.3,443.3 420.3,440.8 420.3,440.8 422.5,442 422.4,439.5 422.4,439.5 424.7,440.7 424.6,438.2 424.6,438.2 426.8,439.4 
		426.8,436.9 426.8,436.9 429,438.1 429,435.6 429,435.6 431.2,436.8 431.1,434.3 431.1,434.3 431.1,434.3 431.1,434.3 433.4,435.5 
		433.3,433 433.3,433 433.3,433 433.3,433 435.5,434.2 435.5,431.7 	"/>
	<polygon class="st101" points="438.2,429.6 478.2,499.7 436.2,523.7 395.1,451.8 395.2,451.7 397.4,453 397.4,450.5 397.4,450.5 
		399.6,451.7 399.6,449.2 399.6,449.2 401.8,450.5 401.8,448 401.8,447.9 404,449.2 404,446.7 404,446.7 406.2,448 406.2,445.4 
		406.2,445.4 408.4,446.7 408.4,444.2 408.4,444.2 410.6,445.5 410.6,442.9 410.6,442.9 412.8,444.2 412.8,441.7 412.8,441.7 
		415,442.9 415,440.4 415,440.4 417.2,441.7 417.2,439.2 417.2,439.2 419.4,440.4 419.4,437.9 419.4,437.9 421.6,439.2 421.6,436.6 
		421.6,436.6 423.8,437.9 423.8,435.4 423.8,435.4 426,436.7 426,434.1 426,434.1 428.2,435.4 430.4,434.1 434.4,432.9 437.7,429 	
		"/>
	<polygon class="st102" points="441,425.4 477.5,499.7 434.1,521 397.6,446.7 397.7,446.6 399.8,448 399.9,445.5 399.9,445.5 
		402,446.9 402.2,444.4 402.2,444.4 404.3,445.8 404.5,443.3 404.5,443.3 406.6,444.7 406.8,442.2 406.8,442.2 408.9,443.6 
		409,441.1 409,441.1 411.1,442.5 411.3,439.9 411.3,439.9 413.4,441.3 413.6,438.8 413.6,438.8 415.7,440.2 415.9,437.7 
		415.9,437.7 418,439.1 418.1,436.6 418.1,436.6 420.2,438 420.4,435.5 420.4,435.5 422.5,436.9 422.7,434.4 422.7,434.4 
		424.8,435.8 425,433.2 425,433.2 427.1,434.6 427.2,432.1 427.2,432.1 429.3,433.5 429.5,431 429.5,431 431.6,432.4 431.8,429.9 
		431.8,429.9 433.9,431.3 434,428.8 434,428.8 436.1,430.2 436.3,427.7 436.3,427.7 436.3,427.7 436.3,427.7 438.4,429.1 
		438.6,426.5 438.6,426.5 438.6,426.5 438.6,426.5 440.7,427.9 440.9,425.4 	"/>
	<polygon class="st48" points="436.3,427.7 436.3,427.7 436.3,427.7 	"/>
	<polygon class="st48" points="438.6,426.5 438.6,426.5 438.6,426.5 	"/>
	<g>
		<path class="st103" d="M406,453c0.5-0.4,1.7-1.1,2.9-1.7c1.4-0.7,2.3-1,3.3-0.9c0.9,0,1.8,0.5,2.2,1.4c0.4,0.9,0.3,2-0.6,3l0,0
			c1.3-0.3,2.6,0.2,3.3,1.5c0.5,0.9,0.4,1.9,0,2.7c-0.5,1-1.5,1.9-3.6,2.9c-1.1,0.6-2,0.9-2.6,1.1L406,453z M410.2,455.8l0.8-0.4
			c1.2-0.6,1.6-1.4,1.2-2.2c-0.4-0.8-1.2-0.9-2.2-0.4c-0.5,0.2-0.8,0.4-1,0.5L410.2,455.8z M412.4,460.3c0.2-0.1,0.5-0.2,0.9-0.4
			c1-0.5,1.8-1.4,1.2-2.4c-0.5-1-1.6-1-2.8-0.4l-0.8,0.4L412.4,460.3z"/>
		<path class="st103" d="M417.3,447.2l5,10.2l-2.3,1.1l-5-10.2L417.3,447.2z"/>
		<path class="st103" d="M419.3,446.2l2.3-1.1l4.1,8.3l4.1-2l1,1.9l-6.4,3.1L419.3,446.2z"/>
		<path class="st103" d="M427.1,442.5l2.3-1.1l4.1,8.3l4.1-2l1,1.9l-6.4,3.1L427.1,442.5z"/>
	</g>
	<path class="st104" d="M418.8,469.7c0.5,0.9,0.1,2-0.8,2.5c-0.9,0.5-2,0.1-2.5-0.8c-0.5-0.9-0.1-2,0.8-2.5
		C417.2,468.4,418.4,468.8,418.8,469.7z"/>
	
		<rect x="419.3" y="461.2" transform="matrix(0.8976 -0.4408 0.4408 0.8976 -159.0811 238.9967)" class="st105" width="31" height="1.4"/>
	<path class="st104" d="M421.4,474.9c0.5,0.9,0.1,2-0.8,2.5c-0.9,0.5-2,0.1-2.5-0.8c-0.5-0.9-0.1-2,0.8-2.5
		C419.8,473.6,420.9,474,421.4,474.9z"/>
	
		<rect x="421.9" y="466.4" transform="matrix(0.8976 -0.4408 0.4408 0.8976 -161.1049 240.6494)" class="st105" width="31" height="1.4"/>
	<circle class="st104" cx="422.2" cy="480.9" r="1.9"/>
	
		<rect x="424.4" y="471.5" transform="matrix(0.8976 -0.4408 0.4408 0.8976 -163.1287 242.3021)" class="st105" width="31" height="1.4"/>
	<path class="st104" d="M426.4,485.3c0.5,0.9,0.1,2-0.8,2.5c-0.9,0.5-2,0.1-2.5-0.8c-0.5-0.9-0.1-2,0.8-2.5
		C424.9,484,426,484.4,426.4,485.3z"/>
	
		<rect x="427" y="476.7" transform="matrix(-0.9645 0.2641 -0.2641 -0.9645 995.3094 821.0455)" class="st105" width="31" height="1.4"/>
	
		<rect x="424.5" y="485.1" transform="matrix(0.8976 -0.4408 0.4408 0.8976 -168.5339 244.9777)" class="st105" width="36.9" height="0.3"/>
	
		<rect x="425" y="486" transform="matrix(0.8976 -0.4408 0.4408 0.8976 -168.8943 245.2722)" class="st105" width="36.9" height="0.3"/>
	
		<rect x="425.4" y="486.9" transform="matrix(0.8976 -0.4408 0.4408 0.8976 -169.2545 245.5661)" class="st105" width="36.9" height="0.3"/>
	
		<rect x="425.9" y="487.8" transform="matrix(0.8976 -0.4408 0.4408 0.8976 -169.6148 245.8603)" class="st105" width="36.9" height="0.3"/>
	
		<rect x="426.3" y="488.8" transform="matrix(0.8976 -0.4408 0.4408 0.8976 -169.9751 246.1548)" class="st105" width="36.9" height="0.3"/>
	
		<rect x="426.8" y="489.7" transform="matrix(0.8976 -0.4408 0.4408 0.8976 -170.3353 246.4488)" class="st105" width="36.9" height="0.3"/>
	
		<rect x="427.2" y="490.6" transform="matrix(0.8976 -0.4408 0.4408 0.8976 -170.6956 246.743)" class="st105" width="36.9" height="0.3"/>
	
		<rect x="427.7" y="491.5" transform="matrix(0.8976 -0.4408 0.4408 0.8976 -171.0559 247.0372)" class="st105" width="36.9" height="0.3"/>
	
		<rect x="428.1" y="492.4" transform="matrix(0.8976 -0.4408 0.4408 0.8976 -171.4162 247.3315)" class="st105" width="36.9" height="0.3"/>
	
		<rect x="428.6" y="493.4" transform="matrix(0.8976 -0.4408 0.4408 0.8976 -171.7764 247.6257)" class="st105" width="36.9" height="0.3"/>
	
		<rect x="451.2" y="498.9" transform="matrix(0.4408 0.8976 -0.8976 0.4408 702.8568 -130.2498)" class="st105" width="9.6" height="0.3"/>
	
		<rect x="451.8" y="498.6" transform="matrix(0.4408 0.8976 -0.8976 0.4408 702.9283 -130.9484)" class="st105" width="9.6" height="0.3"/>
	
		<rect x="452.4" y="498.3" transform="matrix(0.4408 0.8976 -0.8976 0.4408 702.9979 -131.6478)" class="st105" width="9.6" height="0.3"/>
	
		<rect x="453" y="498" transform="matrix(0.4408 0.8976 -0.8976 0.4408 703.0695 -132.3464)" class="st105" width="9.6" height="0.3"/>
	
		<rect x="453.6" y="497.7" transform="matrix(0.4408 0.8976 -0.8976 0.4408 703.1392 -133.0457)" class="st105" width="9.6" height="0.3"/>
	
		<rect x="454.2" y="497.4" transform="matrix(0.4408 0.8976 -0.8976 0.4408 703.2106 -133.7444)" class="st105" width="9.6" height="0.3"/>
	
		<rect x="454.8" y="497.1" transform="matrix(0.4408 0.8976 -0.8976 0.4408 703.2811 -134.4434)" class="st105" width="9.6" height="0.3"/>
	
		<rect x="455.4" y="496.8" transform="matrix(0.4408 0.8976 -0.8976 0.4408 703.3508 -135.1428)" class="st105" width="9.6" height="0.3"/>
	
		<rect x="456" y="496.5" transform="matrix(0.4408 0.8976 -0.8976 0.4408 703.4222 -135.8414)" class="st105" width="9.6" height="0.3"/>
	
		<rect x="456.6" y="496.2" transform="matrix(0.4408 0.8976 -0.8976 0.4408 703.4918 -136.5409)" class="st105" width="9.6" height="0.3"/>
	<line class="st56" x1="461.5" y1="406.8" x2="461.5" y2="426"/>
	<g>
		<polygon class="st106" points="335.6,482.3 290.4,482.3 288.5,478.1 337.3,478.1 		"/>
		<polygon class="st107" points="300.2,460.9 329,467 303.1,463.1 		"/>
		<polygon class="st107" points="302.8,462.9 290.1,436.8 299.9,460.6 		"/>
		<polygon class="st102" points="332.2,467.5 320.7,482.2 317.3,486.7 303.9,486.7 298.2,482.2 268.7,459.3 288.7,433.6 
			300.2,460.2 301.2,462.5 303.7,462.9 		"/>
		<polygon class="st107" points="269.8,458 300.2,460.2 268.7,459.3 		"/>
		<polygon class="st107" points="311.5,486.7 310.4,486.7 309.1,482.2 303.7,462.9 310.1,482.2 		"/>
		<polygon class="st107" points="287.7,434.9 297.2,463.9 288.7,433.6 		"/>
		<polygon class="st107" points="331.2,468.8 300.8,466.6 332.2,467.5 		"/>
		<polygon class="st108" points="310.4,486.7 303.9,486.7 298.2,482.2 268.7,459.3 300.2,460.2 302.9,460.2 303.7,462.9 
			303.7,462.9 309.1,482.2 		"/>
		<polygon class="st109" points="287.1,437.7 286.7,436.2 287.4,435.3 287.9,436.7 		"/>
		<polygon class="st110" points="285,440.4 284.6,438.9 285.3,437.9 285.8,439.4 		"/>
		<polygon class="st109" points="282.9,443.1 282.5,441.6 283.2,440.6 283.7,442.1 		"/>
		<polygon class="st110" points="280.8,445.7 280.4,444.3 281.2,443.3 281.6,444.8 		"/>
		<polygon class="st109" points="278.7,448.4 278.3,447 279.1,446 279.5,447.4 		"/>
		<polygon class="st110" points="276.6,451.1 276.2,449.7 277,448.7 277.4,450.1 		"/>
		<polygon class="st109" points="274.5,453.8 274.1,452.4 274.9,451.4 275.3,452.8 		"/>
		<polygon class="st110" points="272.4,456.5 272,455.1 272.8,454.1 273.2,455.5 		"/>
		<polygon class="st109" points="270.3,459.2 269.9,457.8 270.7,456.8 271.1,458.2 		"/>
		<polygon class="st109" points="327.4,471.7 328.8,471.8 329.6,470.8 328.1,470.8 		"/>
		<polygon class="st110" points="325.3,474.4 326.7,474.5 327.5,473.5 326,473.4 		"/>
		<polygon class="st110" points="329.3,469.3 330.8,469.3 331.5,468.3 330.1,468.3 		"/>
		<polygon class="st109" points="323.2,477.1 324.6,477.2 325.4,476.2 323.9,476.1 		"/>
		<polygon class="st110" points="321.1,479.8 322.6,479.9 323.3,478.9 321.8,478.8 		"/>
		<polygon class="st109" points="319,482.5 320.5,482.6 321.2,481.6 319.7,481.5 		"/>
		<polygon class="st110" points="316.9,485.2 318.4,485.2 319.1,484.3 317.7,484.2 		"/>
		<polygon class="st110" points="272,460.3 270.6,460.7 269.6,459.9 271,459.5 		"/>
		<polygon class="st109" points="274.7,462.4 273.3,462.8 272.3,462 273.7,461.6 		"/>
		<polygon class="st110" points="277.4,464.5 275.9,464.9 275,464.1 276.4,463.7 		"/>
		<polygon class="st109" points="280.1,466.6 278.6,467 277.6,466.2 279.1,465.8 		"/>
		<polygon class="st110" points="282.8,468.7 281.3,469.1 280.3,468.3 281.8,467.9 		"/>
		<polygon class="st109" points="285.4,470.7 284,471.2 283,470.4 284.5,470 		"/>
		<polygon class="st110" points="288.1,472.8 286.7,473.3 285.7,472.5 287.1,472.1 		"/>
		<polygon class="st109" points="290.8,474.9 289.4,475.4 288.4,474.6 289.8,474.2 		"/>
		<polygon class="st110" points="293.7,477.2 292.2,477.6 291.3,476.8 292.7,476.4 		"/>
		<polygon class="st109" points="296.4,479.2 294.9,479.7 293.9,478.9 295.4,478.5 		"/>
		<polygon class="st110" points="299,481.3 297.6,481.8 296.6,481 298.1,480.6 		"/>
		<polygon class="st109" points="301.7,483.4 300.3,483.9 299.3,483.1 300.7,482.7 		"/>
		<polygon class="st110" points="304.4,485.5 303,485.9 302,485.2 303.4,484.8 		"/>
		<polygon class="st111" points="298,466.6 288.7,433.6 332.2,467.5 		"/>
		<polygon class="st110" points="290.5,436.6 290.5,435.1 289.5,434.3 289.5,435.8 		"/>
		<polygon class="st109" points="293.2,438.7 293.2,437.2 292.2,436.4 292.2,437.9 		"/>
		<polygon class="st110" points="295.9,440.7 295.9,439.3 294.9,438.5 294.9,440 		"/>
		<polygon class="st109" points="298.5,442.8 298.6,441.4 297.6,440.6 297.6,442.1 		"/>
		<polygon class="st110" points="301.2,444.9 301.3,443.4 300.3,442.7 300.2,444.2 		"/>
		<polygon class="st109" points="303.9,447 304,445.5 303,444.8 302.9,446.3 		"/>
		<polygon class="st110" points="306.6,449.1 306.7,447.6 305.7,446.9 305.6,448.4 		"/>
		<polygon class="st109" points="309.3,451.2 309.3,449.7 308.4,449 308.3,450.4 		"/>
		<polygon class="st110" points="312.1,453.4 312.2,452 311.2,451.2 311.2,452.7 		"/>
		<polygon class="st109" points="314.8,455.5 314.9,454 313.9,453.3 313.8,454.8 		"/>
		<polygon class="st110" points="317.5,457.6 317.6,456.1 316.6,455.4 316.5,456.9 		"/>
		<polygon class="st109" points="320.2,459.7 320.3,458.2 319.3,457.5 319.2,458.9 		"/>
		<polygon class="st110" points="322.9,461.8 322.9,460.3 322,459.6 321.9,461 		"/>
		<polygon class="st109" points="325.6,463.9 325.6,462.4 324.6,461.6 324.6,463.1 		"/>
		<polygon class="st110" points="328.3,466 328.3,464.5 327.3,463.7 327.3,465.2 		"/>
		<polygon class="st109" points="331,468.1 331,466.6 330,465.8 330,467.3 		"/>
		<rect x="290.4" y="482.2" class="st112" width="45.2" height="4.9"/>
		<rect x="312" y="482.2" class="st112" width="23.6" height="4.9"/>
	</g>
</g>
</svg>
