<?xml version="1.0" encoding="utf-8"?>
<!-- Generator: Adobe Illustrator 19.2.1, SVG Export Plug-In . SVG Version: 6.00 Build 0)  -->
<svg version="1.1" id="Layer_1" xmlns="http://www.w3.org/2000/svg" xmlns:xlink="http://www.w3.org/1999/xlink" x="0px" y="0px"
	 viewBox="0 0 612 612" style="enable-background:new 0 0 612 612;" xml:space="preserve">
<style type="text/css">
	.st0{fill:#28A8E0;}
	.st1{fill:#00749F;}
	.st2{fill:#FEBC12;}
	.st3{fill:#FFFFFF;}
	.st4{fill:url(#SVGID_1_);}
	.st5{fill:#0097B8;}
	.st6{fill:#83C441;}
	.st7{fill:#D21F8E;}
	.st8{fill:#83D4F0;}
	.st9{fill:#DC4A35;}
</style>
<g>
	<circle class="st0" cx="306" cy="306" r="306"/>
	<path class="st1" d="M109.1,312.5c-23.8,0-43.1-19.3-43.1-43.1c0-23.8,19.3-43.1,43.1-43.1s43.1,19.3,43.1,43.1
		C152.2,293.1,132.9,312.5,109.1,312.5z"/>
	<path class="st2" d="M144.3,177.3c-23.8,0-43.1-19.3-43.1-43.1s19.3-43.1,43.1-43.1c23.8,0,43.1,19.3,43.1,43.1
		S168.1,177.3,144.3,177.3z"/>
	<path class="st3" d="M256.2,270.7c0,0-15.2-49.2,67.9-42.9c0,0,8.3-45,60.2-42.9c0,0,47.1,1.4,47.8,38.1c0,0,62.3-13.2,86.6,39.5
		c0,0,17.3,45.4-21.3,66.3c0,0-20,10.1-38.9,5.8c0,0-19.3,24.5-68.6,26.3c0,0-47.6-0.1-70.2-22.2c0,0-62,14.6-88.4-18.7
		C231.2,319.9,202.4,281.3,256.2,270.7z"/>
	
		<radialGradient id="SVGID_1_" cx="-97.9533" cy="347.694" r="213.4769" gradientTransform="matrix(0.8656 0 0 0.8656 403.7768 39.1951)" gradientUnits="userSpaceOnUse">
		<stop  offset="0.2513" style="stop-color:#FFFFFF"/>
		<stop  offset="0.822" style="stop-color:#D4D3D2"/>
	</radialGradient>
	<path class="st4" d="M254.1,272.5c0,0-15.2-49.2,67.9-42.9c0,0,8.3-45,60.2-42.9c0,0,47.1,1.4,47.8,38.1c0,0,62.3-13.2,86.6,39.5
		c0,0,17.3,45.4-21.3,66.3c0,0-20,10.1-38.9,5.8c0,0-19.3,24.5-68.6,26.3c0,0-47.6-0.1-70.2-22.2c0,0-62,14.6-88.4-18.7
		C229.2,321.7,200.4,283.2,254.1,272.5z"/>
	<g>
		<path class="st3" d="M369.4,289.3c-3.9,5.7-10.3,15.1-14.2,20.8c-3.9,5.7-10.2,5.7-14.1,0c-3.9-5.7-10.2-15.1-14.1-20.9
			c-3.9-5.7-0.7-10.4,7.1-10.4c2.1,0,4.5,0,7.1,0c-0.1-0.6-0.2-1.3-0.2-2.1v-24.4c0-2.7,0.8-4.9,1.8-4.9h12.5c1,0,1.8,2.2,1.8,4.9
			v24.4c0,0.8-0.1,1.5-0.2,2.1c1.9,0,3.7,0,5.3,0C370.1,278.9,373.3,283.6,369.4,289.3z"/>
		<path class="st3" d="M416.4,283c-1.6,0-3.4,0-5.3,0c0.1,0.6,0.2,1.4,0.2,2.1v24.4c0,2.7-0.8,4.9-1.8,4.9h-12.5
			c-1,0-1.8-2.2-1.8-4.9v-24.4c0-0.8,0.1-1.5,0.2-2.1c-2.6,0-5,0-7.1,0c-7.8,0-11-4.7-7.1-10.4c3.9-5.7,10.2-15.1,14.1-20.9
			c3.9-5.7,10.2-5.7,14.1,0c3.9,5.7,10.3,15.1,14.2,20.8C427.3,278.3,424.2,283,416.4,283z"/>
	</g>
	<g>
		<path class="st5" d="M368.8,290.4c-3.9,5.7-10.3,15.1-14.2,20.8c-3.9,5.7-10.2,5.7-14.1,0c-3.9-5.7-10.2-15.1-14.1-20.9
			c-3.9-5.7-0.7-10.4,7.1-10.4c2.1,0,4.5,0,7.1,0c-0.1-0.6-0.2-1.3-0.2-2.1v-24.4c0-2.7,0.8-4.9,1.8-4.9h12.5c1,0,1.8,2.2,1.8,4.9
			v24.4c0,0.8-0.1,1.5-0.2,2.1c1.9,0,3.7,0,5.3,0C369.6,280,372.7,284.7,368.8,290.4z"/>
		<path class="st5" d="M415.8,284.1c-1.6,0-3.4,0-5.3,0c0.1,0.6,0.2,1.4,0.2,2.1v24.4c0,2.7-0.8,4.9-1.8,4.9h-12.5
			c-1,0-1.8-2.2-1.8-4.9v-24.4c0-0.8,0.1-1.5,0.2-2.1c-2.6,0-5,0-7.1,0c-7.8,0-11-4.7-7.1-10.4c3.9-5.7,10.2-15.1,14.1-20.9
			c3.9-5.7,10.2-5.7,14.1,0c3.9,5.7,10.3,15.1,14.2,20.8C426.8,279.4,423.6,284.1,415.8,284.1z"/>
	</g>
	<g>
		<g>
			<path class="st3" d="M163.1,113h-39.2c-1.2,0-2.2,1-2.2,2.2v22.7c0,1.2,1,2.2,2.2,2.2h39.2c1.2,0,2.3-1,2.3-2.2v-22.7
				C165.4,114,164.4,113,163.1,113z M161.9,137.1h-36.8v-21.3h36.8V137.1z"/>
			<g>
				<path class="st3" d="M170.7,150.8c0.1,0,0.1,0,0.2,0.1h0.1l-6.4-9.3l-42.2-0.1l-4.8,9.4h0.1c0.1,0,0.1-0.1,0.2-0.1H170.7z
					 M138.6,149.8l0.7-1.3l9.5,0l0.9,1.3H138.6z M124.7,142.8l37.4,0l3.3,4.7l-42.9-0.1L124.7,142.8z"/>
				<path class="st3" d="M170.9,152.2h-53.2c-0.3,0.2-0.5,0.6-0.5,1.2c0,0.7,0.3,1.3,0.6,1.3h52.8c0.4,0,0.6-0.6,0.6-1.3
					C171.4,152.9,171.2,152.4,170.9,152.2z"/>
			</g>
		</g>
	</g>
	<g>
		<path class="st3" d="M120.3,239.7H97.9c-3.7,0-6.7,3-6.7,6.7v43c0,3.7,3,6.7,6.7,6.7h22.4c3.7,0,6.7-3,6.7-6.7v-43
			C127,242.7,124,239.7,120.3,239.7z M105.5,244.1h9.3c0.4,0,0.8,0.3,0.8,0.8c0,0.4-0.3,0.8-0.8,0.8h-9.3c-0.4,0-0.8-0.3-0.8-0.8
			C104.7,244.4,105,244.1,105.5,244.1z M97,243.5c0-0.8,0.6-1.4,1.4-1.4c0.8,0,1.4,0.6,1.4,1.4c0,0.8-0.6,1.4-1.4,1.4
			C97.6,244.9,97,244.2,97,243.5z M113,292.6h-5.8c-0.3,0-0.5-0.2-0.5-0.5c0-0.3,0.2-0.5,0.5-0.5h5.8c0.3,0,0.5,0.2,0.5,0.5
			C113.5,292.4,113.3,292.6,113,292.6z M122.6,288.9H95.8V249h26.7V288.9z"/>
	</g>
	<path class="st6" d="M113.4,449.2c-23.8,0-43.1-19.3-43.1-43.1c0-23.8,19.3-43.1,43.1-43.1s43.1,19.3,43.1,43.1
		C156.5,429.9,137.2,449.2,113.4,449.2z"/>
	<path class="st7" d="M233.5,490.4c-23.8,0-43.1-19.3-43.1-43.1c0-23.8,19.3-43.1,43.1-43.1c23.8,0,43.1,19.3,43.1,43.1
		C276.6,471.1,257.3,490.4,233.5,490.4z"/>
	<path class="st8" d="M355.5,568.5c-29.4,0-53.3-23.9-53.3-53.3c0-29.4,23.9-53.3,53.3-53.3c29.4,0,53.3,23.9,53.3,53.3
		C408.9,544.6,384.9,568.5,355.5,568.5z"/>
	<path class="st9" d="M494.9,492.4c-28.2,0-51.1-22.9-51.1-51.1c0-28.2,22.9-51.1,51.1-51.1c28.2,0,51.1,22.9,51.1,51.1
		C546,469.4,523.1,492.4,494.9,492.4z"/>
	<g>
		
			<ellipse transform="matrix(0.4127 -0.9109 0.9109 0.4127 -6.0493 412.3665)" class="st3" cx="316.8" cy="210.9" rx="2.7" ry="2.7"/>
		<ellipse transform="matrix(0.4127 -0.9109 0.9109 0.4127 -7.62 401.7816)" class="st3" cx="307.8" cy="206.8" rx="2.7" ry="2.7"/>
		<ellipse transform="matrix(0.4127 -0.9109 0.9109 0.4127 -9.1887 391.2)" class="st3" cx="298.8" cy="202.7" rx="2.7" ry="2.7"/>
		
			<ellipse transform="matrix(0.4126 -0.9109 0.9109 0.4126 -10.7413 380.6448)" class="st3" cx="289.8" cy="198.7" rx="2.7" ry="2.7"/>
		
			<ellipse transform="matrix(0.4127 -0.9109 0.9109 0.4127 -12.3202 370.0463)" class="st3" cx="280.8" cy="194.6" rx="2.7" ry="2.7"/>
		
			<ellipse transform="matrix(0.4127 -0.9109 0.9109 0.4127 -13.8977 359.4502)" class="st3" cx="271.8" cy="190.5" rx="2.7" ry="2.7"/>
		
			<ellipse transform="matrix(0.4127 -0.9108 0.9108 0.4127 -15.4716 348.8595)" class="st3" cx="262.8" cy="186.4" rx="2.7" ry="2.7"/>
		
			<ellipse transform="matrix(0.4127 -0.9108 0.9108 0.4127 -17.0411 338.2766)" class="st3" cx="253.8" cy="182.4" rx="2.7" ry="2.7"/>
		
			<ellipse transform="matrix(0.4127 -0.9109 0.9109 0.4127 -18.6034 327.7063)" class="st3" cx="244.8" cy="178.3" rx="2.7" ry="2.7"/>
		
			<ellipse transform="matrix(0.4127 -0.9108 0.9108 0.4127 -20.1802 317.1106)" class="st3" cx="235.8" cy="174.2" rx="2.7" ry="2.7"/>
		
			<ellipse transform="matrix(0.4127 -0.9109 0.9109 0.4127 -21.743 306.5395)" class="st3" cx="226.8" cy="170.1" rx="2.7" ry="2.7"/>
		
			<ellipse transform="matrix(0.4127 -0.9109 0.9109 0.4127 -23.3155 295.951)" class="st3" cx="217.8" cy="166.1" rx="2.7" ry="2.7"/>
		
			<ellipse transform="matrix(0.4127 -0.9108 0.9108 0.4127 -24.8886 285.3614)" class="st3" cx="208.9" cy="162" rx="2.7" ry="2.7"/>
		
			<ellipse transform="matrix(0.4127 -0.9109 0.9109 0.4127 -26.4497 274.7944)" class="st3" cx="199.9" cy="157.9" rx="2.7" ry="2.7"/>
		
			<ellipse transform="matrix(0.4127 -0.9108 0.9108 0.4127 -28.0275 264.1954)" class="st3" cx="190.9" cy="153.8" rx="2.7" ry="2.7"/>
	</g>
	<g>
		
			<ellipse transform="matrix(1 -3.359107e-003 3.359107e-003 1 -0.87 0.8098)" class="st3" cx="240.7" cy="259.4" rx="2.7" ry="2.7"/>
		
			<ellipse transform="matrix(1 -3.358747e-003 3.358747e-003 1 -0.8701 0.7766)" class="st3" cx="230.8" cy="259.4" rx="2.7" ry="2.7"/>
		
			<ellipse transform="matrix(1 -3.358927e-003 3.358927e-003 1 -0.8703 0.7435)" class="st3" cx="220.9" cy="259.5" rx="2.7" ry="2.7"/>
		
			<ellipse transform="matrix(1 -3.455360e-003 3.455360e-003 1 -0.8954 0.7308)" class="st3" cx="211" cy="259.5" rx="2.7" ry="2.7"/>
		
			<ellipse transform="matrix(1 -3.401706e-003 3.401706e-003 1 -0.8817 0.6858)" class="st3" cx="201.2" cy="259.5" rx="2.7" ry="2.7"/>
		
			<ellipse transform="matrix(1 -3.348411e-003 3.348411e-003 1 -0.8681 0.642)" class="st3" cx="191.3" cy="259.6" rx="2.7" ry="2.7"/>
		
			<ellipse transform="matrix(1 -3.294362e-003 3.294362e-003 1 -0.8542 0.5991)" class="st3" cx="181.4" cy="259.6" rx="2.7" ry="2.7"/>
		
			<ellipse transform="matrix(1 -3.358927e-003 3.358927e-003 1 -0.8711 0.5777)" class="st3" cx="171.5" cy="259.6" rx="2.7" ry="2.7"/>
		
			<ellipse transform="matrix(1 -3.358927e-003 3.358927e-003 1 -0.8713 0.5445)" class="st3" cx="161.7" cy="259.7" rx="2.7" ry="2.7"/>
	</g>
	<g>
		
			<ellipse transform="matrix(0.8819 -0.4714 0.4714 0.8819 -133.8822 146.8278)" class="st3" cx="226.1" cy="340.6" rx="2.7" ry="2.7"/>
		
			<ellipse transform="matrix(0.8819 -0.4715 0.4715 0.8819 -137.1189 143.2981)" class="st3" cx="217.4" cy="345.3" rx="2.7" ry="2.7"/>
		
			<ellipse transform="matrix(0.8819 -0.4715 0.4715 0.8819 -140.3419 139.7433)" class="st3" cx="208.7" cy="349.9" rx="2.7" ry="2.7"/>
		
			<ellipse transform="matrix(0.8818 -0.4716 0.4716 0.8818 -143.5891 136.2266)" class="st3" cx="200" cy="354.6" rx="2.7" ry="2.7"/>
		
			<ellipse transform="matrix(0.8818 -0.4716 0.4716 0.8818 -146.8107 132.6674)" class="st3" cx="191.3" cy="359.3" rx="2.7" ry="2.7"/>
		
			<ellipse transform="matrix(0.8819 -0.4715 0.4715 0.8819 -150.0207 129.0924)" class="st3" cx="182.6" cy="363.9" rx="2.7" ry="2.7"/>
		
			<ellipse transform="matrix(0.8818 -0.4716 0.4716 0.8818 -153.2572 125.5551)" class="st3" cx="173.9" cy="368.6" rx="2.7" ry="2.7"/>
		
			<ellipse transform="matrix(0.8819 -0.4715 0.4715 0.8819 -156.4613 121.9745)" class="st3" cx="165.2" cy="373.2" rx="2.7" ry="2.7"/>
		
			<ellipse transform="matrix(0.8819 -0.4715 0.4715 0.8819 -159.687 118.4225)" class="st3" cx="156.5" cy="377.9" rx="2.7" ry="2.7"/>
	</g>
	<g>
		
			<ellipse transform="matrix(0.1639 -0.9865 0.9865 0.1639 -56.1135 682.5693)" class="st3" cx="374.6" cy="374.4" rx="2.7" ry="2.7"/>
		
			<ellipse transform="matrix(0.1638 -0.9865 0.9865 0.1638 -67.0512 689.1478)" class="st3" cx="373" cy="384.1" rx="2.7" ry="2.7"/>
		
			<ellipse transform="matrix(0.1638 -0.9865 0.9865 0.1638 -78.0104 695.6956)" class="st3" cx="371.4" cy="393.9" rx="2.7" ry="2.7"/>
		
			<ellipse transform="matrix(0.1637 -0.9865 0.9865 0.1637 -88.9365 702.2941)" class="st3" cx="369.8" cy="403.6" rx="2.7" ry="2.7"/>
		
			<ellipse transform="matrix(0.1637 -0.9865 0.9865 0.1637 -99.8995 708.8382)" class="st3" cx="368.1" cy="413.3" rx="2.7" ry="2.7"/>
		
			<ellipse transform="matrix(0.1638 -0.9865 0.9865 0.1638 -110.8765 715.3585)" class="st3" cx="366.5" cy="423.1" rx="2.7" ry="2.7"/>
		
			<ellipse transform="matrix(0.1637 -0.9865 0.9865 0.1637 -121.8201 721.9333)" class="st3" cx="364.9" cy="432.8" rx="2.7" ry="2.7"/>
		
			<ellipse transform="matrix(0.1638 -0.9865 0.9865 0.1638 -132.8021 728.4431)" class="st3" cx="363.3" cy="442.6" rx="2.7" ry="2.7"/>
		
			<ellipse transform="matrix(0.1638 -0.9865 0.9865 0.1638 -143.759 734.9957)" class="st3" cx="361.7" cy="452.3" rx="2.7" ry="2.7"/>
	</g>
	<g>
		
			<ellipse transform="matrix(0.5377 -0.8431 0.8431 0.5377 -164.8472 412.3687)" class="st3" cx="293.6" cy="356.5" rx="2.7" ry="2.7"/>
		
			<ellipse transform="matrix(0.5378 -0.8431 0.8431 0.5378 -174.3224 411.7113)" class="st3" cx="288.3" cy="364.8" rx="2.7" ry="2.7"/>
		
			<ellipse transform="matrix(0.5377 -0.8431 0.8431 0.5377 -183.7916 411.1068)" class="st3" cx="283" cy="373.2" rx="2.7" ry="2.7"/>
		
			<ellipse transform="matrix(0.5376 -0.8432 0.8432 0.5376 -193.2599 410.5338)" class="st3" cx="277.7" cy="381.5" rx="2.7" ry="2.7"/>
		
			<ellipse transform="matrix(0.5376 -0.8432 0.8432 0.5376 -202.7332 409.8951)" class="st3" cx="272.4" cy="389.8" rx="2.7" ry="2.7"/>
		
			<ellipse transform="matrix(0.5377 -0.8432 0.8432 0.5377 -212.206 409.256)" class="st3" cx="267.1" cy="398.1" rx="2.7" ry="2.7"/>
		
			<ellipse transform="matrix(0.5376 -0.8432 0.8432 0.5376 -221.6781 408.6378)" class="st3" cx="261.8" cy="406.4" rx="2.7" ry="2.7"/>
	</g>
	<g>
		
			<ellipse transform="matrix(0.9535 -0.3014 0.3014 0.9535 -85.2845 158.0928)" class="st3" cx="469.7" cy="355.4" rx="2.7" ry="2.7"/>
		
			<ellipse transform="matrix(0.9535 -0.3014 0.3014 0.9535 -87.9765 159.4089)" class="st3" cx="472.7" cy="364.9" rx="2.7" ry="2.7"/>
		
			<ellipse transform="matrix(0.9536 -0.3012 0.3012 0.9536 -90.644 160.6606)" class="st3" cx="475.7" cy="374.3" rx="2.7" ry="2.7"/>
		
			<ellipse transform="matrix(0.9535 -0.3014 0.3014 0.9535 -93.3798 162.0936)" class="st3" cx="478.6" cy="383.7" rx="2.7" ry="2.7"/>
	</g>
	<g>
		<g>
			<path class="st3" d="M107,389.7H83.9c-1.1,0-2,0.9-2,2v15.7c0,1.1,0.9,2,2,2h9v1.4h-8.6c-0.3,0-0.5,0.2-0.5,0.5
				c0,0.3,0.2,0.5,0.5,0.5h22.2c0.3,0,0.5-0.2,0.5-0.5c0-0.3-0.2-0.5-0.5-0.5H99v-1.4h8c1.1,0,2-0.9,2-2v-15.7
				C109,390.6,108.1,389.7,107,389.7z M107.6,406c0,0.9-0.8,1.7-1.8,1.7H85.2c-1,0-1.8-0.8-1.8-1.7v-13.3c0-0.9,0.8-1.7,1.8-1.7
				h20.5c1,0,1.8,0.8,1.8,1.7V406z"/>
		</g>
		<g>
			<path class="st3" d="M139.7,389.7h-23.1c-1.1,0-2,0.9-2,2v15.7c0,1.1,0.9,2,2,2h9v1.4h-8.6c-0.3,0-0.5,0.2-0.5,0.5
				c0,0.3,0.2,0.5,0.5,0.5h22.2c0.3,0,0.5-0.2,0.5-0.5c0-0.3-0.2-0.5-0.5-0.5h-7.6v-1.4h8c1.1,0,2-0.9,2-2v-15.7
				C141.8,390.6,140.9,389.7,139.7,389.7z M140.3,406c0,0.9-0.8,1.7-1.8,1.7H118c-1,0-1.8-0.8-1.8-1.7v-13.3c0-0.9,0.8-1.7,1.8-1.7
				h20.5c1,0,1.8,0.8,1.8,1.7V406z"/>
		</g>
		<rect x="81.7" y="421.9" class="st3" width="63.5" height="1.4"/>
		<rect x="95.3" y="411.4" class="st3" width="1.4" height="11.2"/>
		<rect x="127.9" y="411.4" class="st3" width="1.4" height="11.2"/>
	</g>
	<g>
		<g>
			<g>
				<g>
					<path class="st3" d="M254.7,455c-3.9,2.8-11.9,4.8-21.2,4.8c-9.3,0-17.3-2-21.2-4.8c-1.6,1.2-2.5,2.5-2.5,3.8
						c0,4.8,10.6,8.7,23.7,8.7c13.1,0,23.7-3.9,23.7-8.7C257.2,457.4,256.3,456.1,254.7,455z"/>
				</g>
				<path class="st3" d="M254.7,443.4c-3.9,2.8-11.9,4.8-21.2,4.8c-9.3,0-17.3-2-21.2-4.8c-1.6,1.2-2.5,2.5-2.5,3.8
					c0,4.8,10.6,8.7,23.7,8.7c13.1,0,23.7-3.9,23.7-8.7C257.2,445.9,256.3,444.6,254.7,443.4z"/>
				<g>
					<ellipse class="st3" cx="233.5" cy="435.7" rx="23.7" ry="8.7"/>
				</g>
			</g>
		</g>
	</g>
	<g>
		<path class="st3" d="M509.8,411h-43.9c-2.1,0-3.8,1.7-3.8,3.8v29.8c0,2.1,1.7,3.8,3.8,3.8h17.2v2.6h-16.3c-0.5,0-0.9,0.4-0.9,0.9
			c0,0.5,0.4,0.9,0.9,0.9H509c0.5,0,0.9-0.4,0.9-0.9c0-0.5-0.4-0.9-0.9-0.9h-14.4v-2.6h15.2c2.1,0,3.8-1.7,3.8-3.8v-29.8
			C513.7,412.7,512,411,509.8,411z M510.9,441.9c0,1.8-1.5,3.2-3.4,3.2h-39c-1.9,0-3.4-1.5-3.4-3.2v-25.2c0-1.8,1.5-3.2,3.4-3.2h39
			c1.9,0,3.4,1.4,3.4,3.2V441.9z"/>
		<ellipse class="st9" cx="517.6" cy="460.5" rx="5" ry="4.9"/>
		<polygon class="st9" points="507.9,446.2 507.5,431.8 525.5,432.2 525.7,446.2 		"/>
		<path class="st3" d="M516.8,425.4c-6.5,0-11.4,1-11.8,9.9v24c0.3,9.1,5.3,9.9,11.8,9.9c6.5,0,11.8-1.2,11.8-9.9v-24
			C528.5,427.5,523.3,425.4,516.8,425.4z M517.1,463.5c-1.6,0-2.9-1.3-2.9-2.9c0-1.6,1.3-2.9,2.9-2.9c1.6,0,2.9,1.3,2.9,2.9
			C520,462.2,518.7,463.5,517.1,463.5z M523.5,443.2h-13.1c-0.6,0-1-0.5-1-1c0-0.6,0.5-1,1-1h13.1c0.6,0,1,0.5,1,1
			C524.5,442.7,524.1,443.2,523.5,443.2z M523.5,436.1h-13.1c-0.6,0-1-0.5-1-1c0-0.6,0.5-1,1-1h13.1c0.6,0,1,0.5,1,1
			C524.5,435.7,524.1,436.1,523.5,436.1z"/>
	</g>
	<g>
		<path class="st3" d="M332.1,498.7H380c3.1,0,5.7-2.5,5.7-5.7c0-3.1-2.5-5.7-5.7-5.7h-47.9c-3.1,0-5.7,2.5-5.7,5.7
			C326.5,496.1,329,498.7,332.1,498.7z M373,490.8h4v4h-4V490.8z M366.7,490.8h4v4h-4V490.8z M360.4,490.8h4v4h-4V490.8z
			 M354.1,490.8h4v4h-4V490.8z M347.8,490.8h4v4h-4V490.8z M341.5,490.8h4v4h-4V490.8z M335.2,490.8h4v4h-4V490.8z"/>
		<path class="st3" d="M380,502.4h-47.9c-3.1,0-5.7,2.5-5.7,5.7c0,3.1,2.5,5.7,5.7,5.7H380c3.1,0,5.7-2.5,5.7-5.7
			C385.7,504.9,383.2,502.4,380,502.4z M336.1,510c-1.3,0-2.3-1-2.3-2.3c0-1.3,1-2.3,2.3-2.3s2.3,1,2.3,2.3
			C338.4,509,337.4,510,336.1,510z M343.7,510c-1.3,0-2.3-1-2.3-2.3c0-1.3,1-2.3,2.3-2.3s2.3,1,2.3,2.3C346,509,344.9,510,343.7,510
			z M351.2,510c-1.3,0-2.3-1-2.3-2.3c0-1.3,1-2.3,2.3-2.3c1.3,0,2.3,1,2.3,2.3C353.5,509,352.4,510,351.2,510z"/>
		<path class="st3" d="M380,517.4h-47.9c-3.1,0-5.7,2.5-5.7,5.7c0,3.1,2.5,5.7,5.7,5.7h22.9v14.6h-25.7v2.1h51.7v-2.1h-23.9v-14.6
			H380c3.1,0,5.7-2.5,5.7-5.7C385.7,519.9,383.2,517.4,380,517.4z M339.3,525.2h-4v-4h4V525.2z M345.5,525.2h-4v-4h4V525.2z
			 M351.8,525.2h-4v-4h4V525.2z M364.4,525.2h-4v-4h4V525.2z M377,525.2h-4v-4h4V525.2z"/>
	</g>
</g>
</svg>
