<?xml version="1.0" encoding="utf-8"?>
<!-- Generator: Adobe Illustrator 20.1.0, SVG Export Plug-In . SVG Version: 6.00 Build 0)  -->
<svg version="1.1" id="Layer_1" xmlns="http://www.w3.org/2000/svg" xmlns:xlink="http://www.w3.org/1999/xlink" x="0px" y="0px"
	 viewBox="0 0 612 612" style="enable-background:new 0 0 612 612;" xml:space="preserve">
<style type="text/css">
	.st0{fill:#EA4F79;}
	.st1{clip-path:url(#SVGID_2_);}
	.st2{fill:#F395AE;}
	.st3{fill:none;stroke:#F395AE;stroke-width:2;stroke-miterlimit:10;}
	.st4{fill:none;stroke:#F395AE;stroke-width:2;stroke-miterlimit:10;stroke-dasharray:5.0197,5.0197;}
	.st5{fill:#F395AE;stroke:#EA4E79;stroke-miterlimit:10;}
	.st6{fill-rule:evenodd;clip-rule:evenodd;fill:#333645;}
	.st7{fill-rule:evenodd;clip-rule:evenodd;fill:#2EBEC7;}
	.st8{fill-rule:evenodd;clip-rule:evenodd;fill:#DBF0F1;}
	.st9{fill-rule:evenodd;clip-rule:evenodd;fill:#E8E7E7;}
	.st10{fill-rule:evenodd;clip-rule:evenodd;fill:#D3D3D3;}
	.st11{fill:#E2BE89;}
	.st12{fill:#A4794A;}
	.st13{fill:#FBAA28;}
	.st14{fill:#F2E6CD;}
	.st15{fill:#204469;}
</style>
<g>
	<circle class="st0" cx="307" cy="306" r="306"/>
	<g>
		<defs>
			<circle id="SVGID_1_" cx="307" cy="306" r="306"/>
		</defs>
		<clipPath id="SVGID_2_">
			<use xlink:href="#SVGID_1_"  style="overflow:visible;"/>
		</clipPath>
		<g class="st1">
			<path class="st2" d="M84.6,195.1c0-2.5,2-4.6,4.5-4.6c2.5,0,4.6,2.1,4.6,4.6c0,1.4-0.7,2.7-1.7,3.6h-5.7
				C85.3,197.8,84.6,196.6,84.6,195.1z"/>
			<g>
				<g>
					<g>
						<path class="st3" d="M62.6,355.6c0-0.8,0-1.7,0-2.5"/>
						<path class="st4" d="M62.7,348.1c3.3-97,69.9-256.6,243.4-256.6c173.1,0,246.2,156.5,248.6,259.1"/>
						<path class="st3" d="M554.7,353.1c0,0.8,0,1.7,0,2.5"/>
					</g>
				</g>
				<path class="st2" d="M545.9,175.4c-15.7-15.7-41-15.7-56.7,0c-15.7,15.7-15.7,41,0,56.7c15.7,15.7,41,15.7,56.7,0
					C561.6,216.5,561.6,191.1,545.9,175.4z M538.8,206.3h-21.4l-0.1,0c-1.5,0-2.7-1.2-2.7-2.7v-26.9c0-1.5,1.2-2.7,2.7-2.7
					c1.5,0,2.7,1.2,2.7,2.7v24.2h18.8c1.5,0,2.7,1.2,2.7,2.7C541.5,205.1,540.3,206.3,538.8,206.3z"/>
				<path class="st2" d="M105.9,174.8v-2c0-2.3-1.8-4.1-4.1-4.1H95c0.6-1,0.9-2.3,0.9-3.6c0-4.2-3.4-7.7-7.6-7.7s-7.6,3.4-7.6,7.7
					c0,1.3,0.3,2.6,0.9,3.6h-5.6c-2.3,0-4.1,1.9-4.1,4.1v2l-9.2,0c-3.5,0-6.3,2.8-6.3,6.3l0,61.9c0,3.5,2.8,6.3,6.3,6.3l52.5,0
					c3.5,0,6.3-2.8,6.3-6.3l0-61.9c0-3.5-2.8-6.3-6.3-6.3L105.9,174.8z"/>
				<path class="st0" d="M115.1,239.3c0,2.1-1.7,3.9-3.8,3.9l-44.8,0c-2.1,0-3.8-1.7-3.8-3.9l0-54.3c0-2.1,1.7-3.9,3.8-3.9h5.3
					c0,1.7,1.4,3.1,3.1,3.1l28,0c1.7,0,3.1-1.4,3.1-3.1h5.3c2.1,0,3.8,1.7,3.8,3.9L115.1,239.3L115.1,239.3z"/>
				<ellipse class="st2" cx="74.1" cy="195" rx="5.4" ry="5.5"/>
				<path class="st2" d="M105.1,192H86.5c-1.7,0-3.1,1.4-3.1,3.1c0,1.7,1.4,3.1,3.1,3.1h18.5c1.7,0,3.1-1.4,3.1-3.1
					C108.2,193.4,106.8,192,105.1,192z"/>
				<ellipse class="st2" cx="74.1" cy="210.5" rx="5.4" ry="5.5"/>
				<path class="st2" d="M105.1,207.4H86.5c-1.7,0-3.1,1.4-3.1,3.1s1.4,3.1,3.1,3.1h18.5c1.7,0,3.1-1.4,3.1-3.1
					C108.2,208.8,106.8,207.4,105.1,207.4z"/>
				<ellipse class="st2" cx="74.1" cy="227.1" rx="5.4" ry="5.5"/>
				<path class="st2" d="M105.1,223.9H86.5c-1.7,0-3.1,1.4-3.1,3.1s1.4,3.1,3.1,3.1h18.5c1.7,0,3.1-1.4,3.1-3.1
					C108.2,225.4,106.8,223.9,105.1,223.9z"/>
				<path class="st2" d="M242.4,63.5H183c-4.1,0-7.4,3.3-7.4,7.4v44.6c0,4.1,3.3,7.4,7.4,7.4h59.4c4.1,0,7.4-3.3,7.4-7.4V70.9
					C249.8,66.8,246.5,63.5,242.4,63.5z"/>
				<polygon class="st0" points="242.4,115.5 235,115.5 235,82.8 212.7,96.9 190.4,82.8 190.4,115.5 183,115.5 183,70.9 187.4,70.9 
					212.7,86.5 238,70.9 242.4,70.9 				"/>
				<g>
					<path class="st2" d="M444.7,118.1c0,2-1.5,3.6-3.4,3.6h-6.6v13.6l-16.1-13.6h-41.8c-1.9,0-3.4-1.6-3.4-3.6V76.9
						c0-2,1.5-3.6,3.4-3.6h64.4c1.9,0,3.4,1.6,3.4,3.6V118.1z"/>
					<path class="st5" d="M344.9,105.1c0,2,1.5,3.6,3.4,3.6h6.6v13.6l16.1-13.6h41.8c1.9,0,3.4-1.6,3.4-3.6V64c0-2-1.5-3.6-3.4-3.6
						h-64.4c-1.9,0-3.4,1.6-3.4,3.6V105.1z"/>
					<rect x="355.6" y="73.6" class="st0" width="49.9" height="3.1"/>
					<rect x="355.6" y="83.4" class="st0" width="49.9" height="3.1"/>
					<rect x="355.6" y="93.3" class="st0" width="38.8" height="3.1"/>
				</g>
			</g>
			<g>
				<g>
					<path class="st6" d="M152.1,300.9h309.9c6.3,0,11.5,5.2,11.5,11.5v195.8c0,6.3-5.2,11.5-11.5,11.5H152.1
						c-6.3,0-11.5-5.2-11.5-11.5V312.4C140.6,306,145.7,300.9,152.1,300.9z"/>
					<rect x="157.8" y="323.7" class="st7" width="298.3" height="160.2"/>
					<circle class="st8" cx="307" cy="312.7" r="4.2"/>
					<rect x="299.9" y="493.8" class="st8" width="14.2" height="14.2"/>
					<polygon class="st9" points="140.6,519.6 473.4,519.6 531.3,557.5 82.7,557.5 					"/>
					<path class="st6" d="M82.7,557.5h448.5v12.9c0,4.6-3.7,8.3-8.3,8.3H91.1c-4.6,0-8.3-3.7-8.3-8.3V557.5z"/>
					<rect x="261.7" y="568.5" class="st8" width="90.6" height="5.8"/>
					<rect x="82.7" y="557.5" class="st10" width="448.5" height="6.5"/>
				</g>
				<g>
					<rect x="187" y="207.7" class="st11" width="239.9" height="239.9"/>
					<g>
						<rect x="205" y="242.8" class="st11" width="101.4" height="69.3"/>
						<g>
							<g>
								<rect x="210.9" y="247.4" class="st12" width="0.8" height="50"/>
								<rect x="212.2" y="247.4" class="st12" width="3.8" height="50"/>
								<rect x="212.2" y="299.1" class="st12" width="3.8" height="7.5"/>
								<rect x="221.3" y="247.4" class="st12" width="3.2" height="59.3"/>
								<rect x="236.7" y="299.1" class="st12" width="3.8" height="7.5"/>
								<rect x="242.9" y="299.1" class="st12" width="3.8" height="7.5"/>
								<rect x="249.1" y="299.1" class="st12" width="3.8" height="7.5"/>
								<rect x="255.3" y="299.1" class="st12" width="3.8" height="7.5"/>
								<rect x="278.7" y="299.1" class="st12" width="3.8" height="7.5"/>
								<rect x="272.9" y="299.1" class="st12" width="3.8" height="7.5"/>
								<rect x="284.8" y="299.1" class="st12" width="3.8" height="7.5"/>
								<rect x="291" y="299.1" class="st12" width="3.8" height="7.5"/>
								<rect x="225.6" y="247.4" class="st12" width="2" height="59.3"/>
								<rect x="229" y="247.4" class="st12" width="1" height="59.3"/>
								<rect x="248.4" y="247.4" class="st12" width="1" height="50"/>
								<rect x="253.3" y="247.4" class="st12" width="1" height="50"/>
								<rect x="261.4" y="247.4" class="st12" width="1" height="59.3"/>
								<rect x="284.4" y="247.4" class="st12" width="1" height="50"/>
								<rect x="230.5" y="247.4" class="st12" width="4.8" height="59.3"/>
								<rect x="243.6" y="247.4" class="st12" width="4.2" height="50"/>
								<rect x="263" y="247.4" class="st12" width="4.2" height="59.3"/>
								<rect x="279.2" y="247.4" class="st12" width="4.2" height="50"/>
								<rect x="239.7" y="247.4" class="st12" width="3.2" height="50"/>
								<rect x="255.2" y="247.4" class="st12" width="3.2" height="50"/>
								<rect x="274.8" y="247.4" class="st12" width="3.2" height="50"/>
								<rect x="286.8" y="247.4" class="st12" width="3.2" height="50"/>
								<rect x="297.1" y="247.4" class="st12" width="3.2" height="59.3"/>
								<rect x="236.8" y="247.4" class="st12" width="1.9" height="50"/>
								<rect x="249.9" y="247.4" class="st12" width="1.9" height="50"/>
								<rect x="267.8" y="247.4" class="st12" width="1.9" height="59.3"/>
								<rect x="271" y="247.4" class="st12" width="1.9" height="50"/>
								<rect x="290.7" y="247.4" class="st12" width="1.9" height="50"/>
								<rect x="293.8" y="247.4" class="st12" width="1.9" height="50"/>
								<rect x="217.4" y="247.4" class="st12" width="1.5" height="59.3"/>
							</g>
						</g>
					</g>
					<rect x="175.4" y="192.9" class="st12" width="263.2" height="40.3"/>
				</g>
				<g>
					<g>
						<path class="st13" d="M255.7,487.8c-3,0.3-6.2,0.1-9.3,0.2c-3.7,0-7.4,0-11.1-0.1c-6.9-0.2-13.7-0.6-20.5-0.8
							c1-2.7,0.8-5.9,0.1-8.6c-1.1-4.1-3.5-7.9-6.3-11.2c4.3-0.8,8.6,1.1,12.6,2.4c4.7,1.5,9.4,1.5,14.3,1.9
							c4.8,0.3,9.6,1.1,13.5,4.1C252.7,478.3,256,483.1,255.7,487.8z"/>
						<path class="st13" d="M257.7,477.1c-1,0.6-2.3,0.8-3.4,1.1c-0.8-1-1.7-2-2.6-2.9c-3.8-3.8-9.2-5.1-14.4-5.6
							c-5.2-0.5-10.4-0.3-15.5-1.9c-4.7-1.5-9.4-3.5-14.4-2.2c0,0,0,0,0,0c-1-1-1.9-2.1-2.9-3c-0.3-0.3-0.7-0.6-1-1
							c4.7-0.5,9.4,0.3,14.1,1.1c5.1,0.9,10.2,1.6,15.4,1.8c5.2,0.3,10.6,0.5,15.5,2.4C252.6,468.6,257.4,472.1,257.7,477.1z"/>
						<path class="st13" d="M170.3,461.7c-0.2-0.2-0.3-0.3-0.4-0.4c-0.9-0.9-1.8-1.8-2.7-2.7l-2.3-2.2c0-0.1-0.4-0.3-0.4-0.3
							c-1.3-1.2-2.6-2.3-3.9-3.4l-1.4-1.1c-1.3-1-2.5-1.9-3.9-2.8c-6-4-12.5-6.9-19.5-8.8c-1.2-0.3-0.8-2.2,0.4-1.9
							c7.7,2.1,15,5.4,21.5,10c5,3.5,9.5,7.7,13.6,12.1c0.1,0.1,0.2,0.2,0.2,0.3c0.6,0.7,1.2,1.3,1.8,2c4,4.5,7.7,9.2,11.8,13.6
							c4.1,4.4,8.8,8.7,14.5,11.1c4.4,1.8,10.8,4.6,13.5-0.7c2.7-5.1-1.2-10.1-4-14.5c-3.8-5.9-8.9-10.6-14.3-15.1
							c-5.3-4.4-9.6-10-14.6-14.7c-4.7-4.4-8-10.7-10-17c0-0.1-0.1-0.1-0.1-0.2c0,0,0-0.1,0-0.1c0,0,0,0,0,0c0,0,0-0.1,0-0.1
							c-2.7-11.1-4.7-24.1-13.4-32.3c-4.6-4.3-10.2-7.1-15.6-10.2c-2.6-1.5-5.4-3.1-7.7-5.1c-2.3-2-4.6-4-6.8-6.1
							c-5.3-4.8-10.8-9.2-17.5-11.7c-6.4-2.4-13.1-4.1-19.9-4.9c-6.8-0.8-13.6-0.4-20.4-0.2c-0.4,0-0.9,0-1.3,0l-6.4,46.2
							c1.9,0.2,3.8,0.5,5.7,0.9c6.8,1.6,12.7,4.7,17.8,9.4c5.2,4.7,9.6,10.4,13.7,16.1c4.6,6.4,8.8,13,13.1,19.5
							c4.3,6.5,8.7,13,13.6,19.1c4.7,5.9,10.2,11.7,16.9,15.4c0.1,0,0.1,0.1,0.2,0.1c8.1,1.5,16.3,1.1,24.5,0.6
							c4.1-0.2,8.2-0.5,12.2-0.4c3.1,0,6.4,0,9.5,0.5c-5.5-5-10.2-11.1-15-16.7L170.3,461.7z"/>
					</g>
					
						<rect x="32.2" y="357.9" transform="matrix(0.4124 -0.911 0.911 0.4124 -298.1288 285.7941)" class="st14" width="80.5" height="32.2"/>
					
						<rect x="-18.6" y="313.4" transform="matrix(0.4124 -0.911 0.911 0.4124 -307.078 225.9857)" class="st15" width="80.5" height="75.2"/>
				</g>
				<g>
					<g>
						<path class="st13" d="M358.3,487.8c3.1,0.3,6.2,0.1,9.3,0.2c3.7,0,7.4,0,11.1-0.1c6.9-0.2,13.7-0.6,20.5-0.8
							c-1-2.7-0.8-5.9-0.1-8.6c1.1-4.1,3.5-7.9,6.3-11.2c-4.3-0.8-8.6,1.1-12.6,2.4c-4.7,1.5-9.4,1.5-14.3,1.9
							c-4.8,0.3-9.6,1.1-13.5,4.1C361.3,478.3,358,483.1,358.3,487.8z"/>
						<path class="st13" d="M356.3,477.1c1,0.6,2.3,0.8,3.4,1.1c0.8-1,1.7-2,2.6-2.9c3.8-3.8,9.2-5.1,14.4-5.6
							c5.2-0.5,10.4-0.3,15.5-1.9c4.7-1.5,9.4-3.5,14.4-2.2c0,0,0,0,0,0c1-1,1.9-2.1,2.9-3c0.3-0.3,0.7-0.6,1-1
							c-4.7-0.5-9.4,0.3-14.1,1.1c-5.1,0.9-10.2,1.6-15.4,1.8c-5.2,0.3-10.6,0.5-15.5,2.4C361.4,468.6,356.6,472.1,356.3,477.1z"/>
						<path class="st13" d="M443.7,461.7c0.2-0.2,0.3-0.3,0.4-0.4c0.9-0.9,1.8-1.8,2.7-2.7l2.3-2.2c0-0.1,0.4-0.3,0.4-0.3
							c1.3-1.2,2.6-2.3,3.9-3.4l1.4-1.1c1.3-1,2.5-1.9,3.9-2.8c6-4,12.5-6.9,19.5-8.8c1.2-0.3,0.8-2.2-0.4-1.9
							c-7.7,2.1-15,5.4-21.5,10c-5,3.5-9.5,7.7-13.6,12.1c-0.1,0.1-0.2,0.2-0.2,0.3c-0.6,0.7-1.2,1.3-1.8,2
							c-4,4.5-7.7,9.2-11.8,13.6c-4.1,4.4-8.8,8.7-14.5,11.1c-4.4,1.8-10.8,4.6-13.5-0.7c-2.7-5.1,1.2-10.1,4-14.5
							c3.8-5.9,8.9-10.6,14.3-15.1c5.3-4.4,9.6-10,14.6-14.7c4.7-4.4,8-10.7,10-17c0-0.1,0.1-0.1,0.1-0.2c0,0,0-0.1,0-0.1
							c0,0,0,0,0,0c0,0,0-0.1,0-0.1c2.7-11.1,4.7-24.1,13.4-32.3c4.6-4.3,10.2-7.1,15.6-10.2c2.6-1.5,5.4-3.1,7.7-5.1
							c2.3-2,4.6-4,6.8-6.1c5.3-4.8,10.8-9.2,17.5-11.7c6.4-2.4,13.1-4.1,19.9-4.9c6.8-0.8,13.6-0.4,20.4-0.2c0.4,0,0.9,0,1.3,0
							l6.4,46.2c-1.9,0.2-3.8,0.5-5.7,0.9c-6.8,1.6-12.7,4.7-17.8,9.4c-5.2,4.7-9.6,10.4-13.7,16.1c-4.6,6.4-8.8,13-13.1,19.5
							c-4.3,6.5-8.7,13-13.6,19.1c-4.7,5.9-10.2,11.7-16.9,15.4c-0.1,0-0.1,0.1-0.2,0.1c-8.1,1.5-16.3,1.1-24.5,0.6
							c-4.1-0.2-8.2-0.5-12.2-0.4c-3.1,0-6.4,0-9.5,0.5c5.5-5,10.2-11.1,15-16.7L443.7,461.7z"/>
					</g>
					
						<rect x="525.4" y="333.7" transform="matrix(0.911 -0.4124 0.4124 0.911 -106.0381 256.5911)" class="st14" width="32.2" height="80.5"/>
					
						<rect x="554.8" y="310.8" transform="matrix(0.911 -0.4124 0.4124 0.911 -92.0413 275.5039)" class="st15" width="75.2" height="80.5"/>
				</g>
			</g>
		</g>
	</g>
</g>
</svg>
