<?xml version="1.0" encoding="utf-8"?>
<!-- Generator: Adobe Illustrator 20.0.0, SVG Export Plug-In . SVG Version: 6.00 Build 0)  -->
<svg version="1.1" id="Layer_1" xmlns="http://www.w3.org/2000/svg" xmlns:xlink="http://www.w3.org/1999/xlink" x="0px" y="0px"
	 viewBox="0 0 612 612" style="enable-background:new 0 0 612 612;" xml:space="preserve">
<style type="text/css">
	.st0{fill:#00A89C;}
	.st1{opacity:0.48;fill:url(#SVGID_1_);}
	.st2{clip-path:url(#SVGID_3_);fill:#D73A53;stroke:#FFFFFF;stroke-width:2;stroke-miterlimit:10;stroke-dasharray:5;}
	.st3{fill:#B5C7C9;}
	.st4{fill:#E6E6E5;}
	.st5{fill:#003242;}
	.st6{fill:#E8F3F3;}
	.st7{fill:none;stroke:#FFFFFF;stroke-width:2;stroke-miterlimit:10;stroke-dasharray:2;}
	.st8{fill:#FFFFFF;}
	.st9{fill-rule:evenodd;clip-rule:evenodd;fill:#B1BBC5;}
	.st10{fill-rule:evenodd;clip-rule:evenodd;fill:#97AAB7;}
	.st11{fill-rule:evenodd;clip-rule:evenodd;fill:#E4E7E8;}
	.st12{fill-rule:evenodd;clip-rule:evenodd;fill:#C6CED4;}
	.st13{fill-rule:evenodd;clip-rule:evenodd;fill:#323A44;}
	.st14{fill-rule:evenodd;clip-rule:evenodd;fill:#262C38;}
	.st15{fill-rule:evenodd;clip-rule:evenodd;fill:#E8F3F3;}
	.st16{fill-rule:evenodd;clip-rule:evenodd;fill:#D4E9E9;}
	.st17{fill-rule:evenodd;clip-rule:evenodd;fill:#FCC490;}
	.st18{fill-rule:evenodd;clip-rule:evenodd;fill:#EA8452;}
	.st19{fill-rule:evenodd;clip-rule:evenodd;fill:#49AAB3;}
	.st20{fill-rule:evenodd;clip-rule:evenodd;fill:#068C98;}
	.st21{fill-rule:evenodd;clip-rule:evenodd;fill:#D73A53;}
	.st22{fill-rule:evenodd;clip-rule:evenodd;fill:#8095A7;}
	.st23{fill-rule:evenodd;clip-rule:evenodd;fill:#DAE0E6;}
	.st24{fill-rule:evenodd;clip-rule:evenodd;fill:#B2BBC8;}
	.st25{fill:#323A44;}
	.st26{fill:#D4E9E9;}
	.st27{fill-rule:evenodd;clip-rule:evenodd;fill:#FFFFFF;}
</style>
<g>
	<g>
		<g>
			<ellipse class="st0" cx="306" cy="306" rx="306" ry="304.7"/>
		</g>
		
			<linearGradient id="SVGID_1_" gradientUnits="userSpaceOnUse" x1="5992.3311" y1="-5685" x2="6396.9966" y2="-5685" gradientTransform="matrix(0 1 1 0 5991 -5991)">
			<stop  offset="0" style="stop-color:#FFFFFF;stop-opacity:0"/>
			<stop  offset="1" style="stop-color:#FFFFFF"/>
		</linearGradient>
		<path class="st1" d="M306,1.3c169,0,320.3,140.8,306,334.7H0C-13.7,142.1,137,1.3,306,1.3z"/>
		<g>
			<defs>
				<ellipse id="SVGID_2_" cx="305.3" cy="306" rx="306" ry="304.7"/>
			</defs>
			<clipPath id="SVGID_3_">
				<use xlink:href="#SVGID_2_"  style="overflow:visible;"/>
			</clipPath>
			<circle class="st2" cx="311.6" cy="610.7" r="205.1"/>
		</g>
		<g>
			<g>
				<g>
					<path class="st3" d="M286.5,567.3c-1.8,7.2-3.5,14.5-5.3,21.7c16.5,0,33,0,49.5,0c-1.8-7.2-3.5-14.5-5.3-21.7
						C312.4,567.3,299.5,567.3,286.5,567.3z"/>
					<path class="st4" d="M333.8,588.6h-55.7c-1.4,0-2.6,1.3-2.6,3v1.1h60.8v-1.1C336.3,589.9,335.2,588.6,333.8,588.6z"/>
					<path class="st4" d="M222.3,558.8v12c0,2.3,1.9,4.2,4.2,4.2h159c2.3,0,4.2-1.9,4.2-4.2v-12H222.3z"/>
					<path class="st5" d="M389.6,558.8V457.6c0-2.3-1.9-4.2-4.2-4.2h-159c-2.3,0-4.2,1.9-4.2,4.2v101.2H389.6z"/>
					<rect x="229.1" y="459.9" class="st6" width="153.7" height="92"/>
				</g>
			</g>
			<g>
				<defs>
					<path id="SVGID_4_" d="M389.6,558.8V457.6c0-2.3-1.9-4.2-4.2-4.2h-159c-2.3,0-4.2,1.9-4.2,4.2v101.2H389.6z"/>
				</defs>
				<clipPath id="SVGID_5_">
					<use xlink:href="#SVGID_4_"  style="overflow:visible;"/>
				</clipPath>
			</g>
		</g>
		
			<image style="overflow:visible;" width="165" height="129" xlink:href="../../../404.html"  transform="matrix(0.6463 0 0 0.6463 249.7999 468.5246)">
		</image>
	</g>
	<g>
		<line class="st7" x1="185.9" y1="217.4" x2="185.9" y2="435.1"/>
	</g>
	<line class="st7" x1="185.9" y1="217.4" x2="207.6" y2="217.4"/>
	<polyline class="st8" points="181.7,248.2 185.6,244.3 189.5,248.2 	"/>
	<polyline class="st8" points="182,312.4 185.9,308.5 189.7,312.4 	"/>
	<polyline class="st8" points="182,376.3 185.9,372.4 189.7,376.3 	"/>
	<g>
		<g>
			<polygon class="st9" points="283.2,286.5 277.1,322.1 306,322.1 306,286.5 			"/>
			<polygon class="st10" points="328.7,286.5 334.8,322.1 306,322.1 306,286.5 			"/>
		</g>
		<path class="st11" d="M214.4,159.2h183.2c5.4,0,9.8,4.4,9.8,9.8v118.9c0,5.4-4.4,9.8-9.8,9.8H214.4c-5.4,0-9.8-4.4-9.8-9.8V169
			C204.6,163.6,209,159.2,214.4,159.2z"/>
		<path class="st12" d="M407.3,277.4v10.6c0,5.4-4.4,9.8-9.8,9.8H306v-20.3H407.3z"/>
		<path class="st13" d="M214.4,159.2h183.2c5.4,0,9.8,4.4,9.8,9.8v108.4H204.6V169C204.6,163.6,209,159.2,214.4,159.2z"/>
		<path class="st14" d="M306,159.2h91.6c5.4,0,9.8,4.4,9.8,9.8v108.4H306V159.2z"/>
		<rect x="215.1" y="172.1" class="st15" width="181.6" height="92.5"/>
		<path class="st11" d="M272.4,315.2h67.1c4.1,0,7.5,3.4,7.5,7.5v1.8h-82v-1.8C265,318.5,268.3,315.2,272.4,315.2z"/>
		<path class="st12" d="M306,315.2h33.5c4.1,0,7.5,3.4,7.5,7.5v1.8h-41V315.2z"/>
		<circle class="st14" cx="306" cy="287.1" r="5.7"/>
		<path class="st13" d="M306,281.4c-3.1,0-5.7,2.6-5.7,5.7c0,3.1,2.5,5.7,5.7,5.7V281.4z"/>
		<rect x="306" y="172.1" class="st16" width="90.8" height="92.5"/>
		<path class="st17" d="M231,206.6h58c1.7,0,3.1,1.4,3.1,3.1v40.1c0,1.7-1.4,3.1-3.1,3.1h-58c-1.7,0-3.1-1.4-3.1-3.1v-40.1
			C227.8,208,229.2,206.6,231,206.6z"/>
		<path class="st18" d="M292.1,230.6v19.2c0,1.7-1.4,3.1-3.1,3.1h-58c-1.7,0-3.1-1.4-3.1-3.1v-12.4l18.5-11.1l11.8,8l20.6-17.1
			L292.1,230.6z"/>
		<path class="st19" d="M231,183.7h75v14h-75c-1.7,0-3.1-1.4-3.1-3.1v-7.8C227.8,185.1,229.2,183.7,231,183.7z"/>
		<path class="st20" d="M381,183.7h-75v14h75c1.7,0,3.1-1.4,3.1-3.1v-7.8C384.1,185.1,382.7,183.7,381,183.7z"/>
		<path class="st21" d="M357.3,242.6c1,0,1.8,0.8,1.8,1.8v6.7c0,1-0.8,1.8-1.8,1.8h-36.9c-1,0-1.8-0.8-1.8-1.8v-6.7
			c0-1,0.8-1.8,1.8-1.8H357.3z"/>
		<g>
			<g>
				<path class="st22" d="M382.3,206.6h-62c-1,0-1.8,0.8-1.8,1.8v2.7c0,1,0.8,1.8,1.8,1.8h62c1,0,1.8-0.8,1.8-1.8v-2.7
					C384.1,207.5,383.3,206.6,382.3,206.6z"/>
				<path class="st22" d="M382.3,218.6h-62c-1,0-1.8,0.8-1.8,1.8v2.7c0,1,0.8,1.8,1.8,1.8h62c1,0,1.8-0.8,1.8-1.8v-2.7
					C384.1,219.4,383.3,218.6,382.3,218.6z"/>
				<path class="st22" d="M357.3,230.6h-37c-1,0-1.8,0.8-1.8,1.8v2.7c0,1,0.8,1.8,1.8,1.8h37c1,0,1.8-0.8,1.8-1.8v-2.7
					C359.1,231.4,358.3,230.6,357.3,230.6z"/>
			</g>
		</g>
		<path class="st23" d="M379.4,325.2h7v10.3h-14.4v-2.9C371.9,328.6,375.3,325.2,379.4,325.2z"/>
		<path class="st24" d="M393.3,325.2h-7v10.3h14.4v-2.9C400.8,328.6,397.4,325.2,393.3,325.2z"/>
		<rect x="248.6" y="328.1" class="st23" width="114.7" height="7.5"/>
	</g>
	<g>
		<g>
			<g>
				<g>
					<g>
						<path class="st25" d="M460.3,227.3h-59.2c-2.4,0-4.3,1.9-4.3,4.3v78c0,2.4,1.9,4.3,4.3,4.3h59.2c2.4,0,4.3-1.9,4.3-4.3v-78
							C464.6,229.2,462.7,227.3,460.3,227.3z"/>
						<circle class="st8" cx="430.7" cy="310" r="1.7"/>
						<rect x="404.5" y="235.7" class="st26" width="52.5" height="69.9"/>
					</g>
				</g>
			</g>
			<path class="st18" d="M449.8,250.8v10.9c0,1-0.8,1.8-1.8,1.8h-33c-1,0-1.8-0.8-1.8-1.8v-7.1l10.5-6.3l6.7,4.5l11.7-9.7
				L449.8,250.8z"/>
			<path class="st21" d="M436.4,290.4c0.6,0,1,0.5,1,1v3.8c0,0.6-0.5,1-1,1h-21c-0.6,0-1-0.5-1-1v-3.8c0-0.6,0.5-1,1-1H436.4z"/>
			<g>
				<g>
					<path class="st22" d="M450.6,270h-35.3c-0.6,0-1,0.5-1,1v1.6c0,0.6,0.5,1,1,1h35.3c0.6,0,1-0.5,1-1v-1.6
						C451.6,270.5,451.2,270,450.6,270z"/>
					<path class="st22" d="M450.6,276.8h-35.3c-0.6,0-1,0.5-1,1v1.6c0,0.6,0.5,1,1,1h35.3c0.6,0,1-0.5,1-1v-1.6
						C451.6,277.3,451.2,276.8,450.6,276.8z"/>
					<path class="st22" d="M436.4,283.6h-21c-0.6,0-1,0.5-1,1v1.6c0,0.6,0.5,1,1,1h21c0.6,0,1-0.5,1-1v-1.6
						C437.4,284.1,437,283.6,436.4,283.6z"/>
				</g>
			</g>
		</g>
		<g>
			<path class="st14" d="M456.4,269.7l25.4,0c4.8,0,8.8,3.9,8.8,8.8l0,48.8c0,4.8-3.9,8.8-8.8,8.8h-25.4c-4.8,0-8.8-3.9-8.8-8.8
				l0-48.8C447.6,273.6,451.6,269.7,456.4,269.7z"/>
			<rect x="450.2" y="276.6" class="st16" width="37.9" height="50.2"/>
			<path class="st27" d="M462.8,273.3h12.7c0.3,0,0.6-0.3,0.6-0.6l0,0c0-0.3-0.3-0.6-0.6-0.6h-12.7c-0.3,0-0.6,0.3-0.6,0.6l0,0
				C462.1,273.1,462.4,273.3,462.8,273.3z"/>
			<circle class="st27" cx="469.1" cy="331.5" r="2.7"/>
			<path class="st18" d="M481.6,289.2v7.2c0,0.6-0.5,1.2-1.2,1.2h-21.7c-0.6,0-1.2-0.5-1.2-1.2v-4.7l6.9-4.1l4.4,3l7.7-6.4
				L481.6,289.2z"/>
			<path class="st21" d="M472.7,315.3c0.4,0,0.7,0.3,0.7,0.7v2.5c0,0.4-0.3,0.7-0.7,0.7h-13.8c-0.4,0-0.7-0.3-0.7-0.7V316
				c0-0.4,0.3-0.7,0.7-0.7H472.7z"/>
			<g>
				<g>
					<path class="st22" d="M482.1,301.8h-23.2c-0.4,0-0.7,0.3-0.7,0.7v1c0,0.4,0.3,0.7,0.7,0.7h23.2c0.4,0,0.7-0.3,0.7-0.7v-1
						C482.8,302.2,482.5,301.8,482.1,301.8z"/>
					<path class="st22" d="M482.1,306.3h-23.2c-0.4,0-0.7,0.3-0.7,0.7v1c0,0.4,0.3,0.7,0.7,0.7h23.2c0.4,0,0.7-0.3,0.7-0.7v-1
						C482.8,306.6,482.5,306.3,482.1,306.3z"/>
					<path class="st22" d="M472.7,310.8h-13.9c-0.4,0-0.7,0.3-0.7,0.7v1c0,0.4,0.3,0.7,0.7,0.7h13.9c0.4,0,0.7-0.3,0.7-0.7v-1
						C473.4,311.1,473.1,310.8,472.7,310.8z"/>
				</g>
			</g>
		</g>
	</g>
	<line class="st7" x1="184.9" y1="434.4" x2="204.6" y2="434.4"/>
	
		<image style="overflow:visible;" width="2000" height="1905" xlink:href="../../../404.html"  transform="matrix(4.689098e-02 0 0 4.689098e-02 258.4037 48.8317)">
	</image>
</g>
</svg>
