<?xml version="1.0" encoding="utf-8"?>
<!-- Generator: Adobe Illustrator 20.0.0, SVG Export Plug-In . SVG Version: 6.00 Build 0)  -->
<svg version="1.1" id="Layer_1" xmlns="http://www.w3.org/2000/svg" xmlns:xlink="http://www.w3.org/1999/xlink" x="0px" y="0px"
	 viewBox="0 0 612 612" style="enable-background:new 0 0 612 612;" xml:space="preserve">
<style type="text/css">
	.st0{fill:url(#SVGID_1_);}
	.st1{fill:#2D2D2D;}
	
		.st2{fill:#FBAD18;stroke:#FFFFFF;stroke-width:3;stroke-linecap:round;stroke-linejoin:round;stroke-miterlimit:10;stroke-dasharray:8;}
	.st3{fill:#FFFFFF;}
	.st4{fill:#FBAD18;}
	.st5{opacity:0.3;fill:#FFFFFF;enable-background:new    ;}
	.st6{opacity:0.3;}
	.st7{opacity:0.1;fill:#4D4E4E;enable-background:new    ;}
	.st8{fill:#4D4D4E;}
	.st9{opacity:0.2;fill:#4D4E4E;enable-background:new    ;}
	.st10{fill:#4D4D4E;stroke:#FFFFFF;stroke-miterlimit:10;}
</style>
<g>
	
		<radialGradient id="SVGID_1_" cx="306" cy="307.5072" r="303.4" gradientTransform="matrix(1.0086 0 0 -1.0086 -2.6223 616.1424)" gradientUnits="userSpaceOnUse">
		<stop  offset="0" style="stop-color:#F8CB55"/>
		<stop  offset="0.3298" style="stop-color:#F8C853"/>
		<stop  offset="0.5341" style="stop-color:#F7C04D"/>
		<stop  offset="0.7042" style="stop-color:#F6B143"/>
		<stop  offset="0.8546" style="stop-color:#F59D34"/>
		<stop  offset="0.9923" style="stop-color:#F38321"/>
		<stop  offset="1" style="stop-color:#F38120"/>
	</radialGradient>
	<circle class="st0" cx="306" cy="306" r="306"/>
	<g>
		<g>
			<path class="st1" d="M151.5,309.3c1-0.1,2.1-0.3,3.3-0.3c2.3,0,3.9,0.5,4.9,1.5c1.1,1,1.7,2.4,1.7,4.4c0,2-0.6,3.6-1.7,4.7
				c-1.1,1.1-3,1.7-5.4,1.7c-1.1,0-2.1-0.1-2.8-0.1V309.3z M153.1,320.1c0.4,0.1,1,0.1,1.6,0.1c3.3,0,5.2-1.9,5.2-5.1
				c0-2.9-1.6-4.7-4.9-4.7c-0.8,0-1.4,0.1-1.8,0.2v9.6H153.1z"/>
			<path class="st1" d="M164.5,317.3c0,2.1,1.4,3,3,3c1.1,0,1.8-0.2,2.4-0.5l0.3,1.1c-0.6,0.3-1.5,0.5-2.9,0.5
				c-2.7,0-4.3-1.8-4.3-4.4s1.5-4.7,4.1-4.7c2.8,0,3.6,2.5,3.6,4.1c0,0.3,0,0.6-0.1,0.7h-6.2V317.3z M169.2,316.2
				c0-1-0.4-2.6-2.2-2.6c-1.6,0-2.3,1.5-2.4,2.6H169.2z"/>
			<path class="st1" d="M172.5,319.8c0.5,0.3,1.3,0.6,2.1,0.6c1.2,0,1.7-0.6,1.7-1.3c0-0.8-0.5-1.2-1.6-1.6
				c-1.6-0.6-2.3-1.4-2.3-2.5c0-1.4,1.1-2.6,3-2.6c0.9,0,1.7,0.3,2.1,0.5l-0.4,1.2c-0.3-0.2-1-0.5-1.8-0.5c-0.9,0-1.5,0.5-1.5,1.2
				c0,0.7,0.5,1,1.7,1.5c1.5,0.6,2.3,1.3,2.3,2.6c0,1.5-1.2,2.6-3.3,2.6c-1,0-1.8-0.2-2.4-0.6L172.5,319.8z"/>
			<path class="st1" d="M181.6,310.1c0,0.5-0.4,1-1,1s-1-0.4-1-1c0-0.6,0.4-1,1-1C181.3,309.1,181.6,309.6,181.6,310.1z
				 M179.9,321.4v-8.8h1.6v8.8H179.9z"/>
			<path class="st1" d="M191.7,312.7c0,0.6-0.1,1.3-0.1,2.4v5.1c0,2-0.4,3.2-1.2,4c-0.8,0.8-2.1,1-3.2,1c-1,0-2.2-0.3-2.9-0.7
				l0.4-1.2c0.6,0.4,1.5,0.7,2.6,0.7c1.6,0,2.8-0.8,2.8-3v-1l0,0c-0.5,0.8-1.4,1.5-2.8,1.5c-2.2,0-3.7-1.8-3.7-4.2
				c0-3,1.9-4.6,3.9-4.6c1.5,0,2.3,0.8,2.7,1.5l0,0l0.1-1.3h1.4V312.7z M190.1,316.1c0-0.3,0-0.5-0.1-0.7c-0.3-0.9-1.1-1.7-2.2-1.7
				c-1.5,0-2.6,1.3-2.6,3.3c0,1.7,0.9,3.1,2.6,3.1c1,0,1.9-0.6,2.2-1.6c0.1-0.3,0.1-0.6,0.1-0.8V316.1z"/>
			<path class="st1" d="M194.1,315c0-0.9,0-1.6-0.1-2.4h1.4l0.1,1.4l0,0c0.4-0.8,1.4-1.6,2.9-1.6c1.2,0,3.1,0.7,3.1,3.7v5.2h-1.5v-5
				c0-1.4-0.5-2.6-2-2.6c-1,0-1.9,0.7-2.1,1.6c-0.1,0.2-0.1,0.5-0.1,0.7v5.2h-1.6V315H194.1z"/>
		</g>
	</g>
	<g>
		<path class="st1" d="M417.1,320.4c0.7,0.4,1.7,0.8,2.8,0.8c1.6,0,2.5-0.8,2.5-2.1c0-1.1-0.6-1.8-2.3-2.4c-2-0.7-3.2-1.7-3.2-3.4
			c0-1.9,1.6-3.3,3.9-3.3c1.2,0,2.1,0.3,2.7,0.6l-0.4,1.3c-0.4-0.2-1.2-0.6-2.3-0.6c-1.7,0-2.3,1-2.3,1.8c0,1.1,0.7,1.7,2.4,2.3
			c2.1,0.8,3.1,1.8,3.1,3.6c0,1.9-1.4,3.5-4.3,3.5c-1.2,0-2.4-0.3-3.1-0.8L417.1,320.4z"/>
		<path class="st1" d="M428.1,310.9v2.5h2.3v1.2h-2.3v4.7c0,1.1,0.3,1.7,1.2,1.7c0.4,0,0.7-0.1,0.9-0.1l0.1,1.2
			c-0.3,0.1-0.8,0.2-1.4,0.2c-0.7,0-1.3-0.2-1.7-0.7c-0.4-0.5-0.6-1.2-0.6-2.3v-4.8h-1.4v-1.2h1.4v-2.1L428.1,310.9z"/>
		<path class="st1" d="M432.2,316.3c0-1,0-1.9-0.1-2.7h1.4l0.1,1.7h0.1c0.4-1.2,1.4-1.9,2.4-1.9c0.2,0,0.3,0,0.5,0.1v1.5
			c-0.2,0-0.3-0.1-0.5-0.1c-1.1,0-1.9,0.8-2.1,2c0,0.2-0.1,0.5-0.1,0.7v4.6h-1.6v-6H432.2z"/>
		<path class="st1" d="M442.9,322.3l-0.1-1.1h-0.1c-0.5,0.7-1.4,1.3-2.7,1.3c-1.8,0-2.7-1.2-2.7-2.5c0-2.1,1.9-3.3,5.2-3.2v-0.2
			c0-0.7-0.2-2-2-2c-0.8,0-1.7,0.3-2.3,0.6l-0.4-1c0.7-0.5,1.8-0.8,2.9-0.8c2.7,0,3.3,1.8,3.3,3.6v3.3c0,0.8,0,1.5,0.1,2.1h-1.2
			V322.3z M442.7,317.8c-1.7,0-3.7,0.3-3.7,2c0,1,0.7,1.5,1.5,1.5c1.1,0,1.9-0.7,2.1-1.5c0.1-0.2,0.1-0.3,0.1-0.5V317.8z"/>
		<path class="st1" d="M448.6,310.9v2.5h2.3v1.2h-2.3v4.7c0,1.1,0.3,1.7,1.2,1.7c0.4,0,0.7-0.1,0.9-0.1l0.1,1.2
			c-0.3,0.1-0.8,0.2-1.4,0.2c-0.7,0-1.3-0.2-1.7-0.7c-0.5-0.5-0.6-1.2-0.6-2.3v-4.8h-1.3v-1.2h1.3v-2.1L448.6,310.9z"/>
		<path class="st1" d="M453.5,318.2c0,2.1,1.4,3,3,3c1.1,0,1.8-0.2,2.4-0.5l0.3,1.1c-0.6,0.3-1.5,0.5-2.9,0.5
			c-2.7,0-4.3-1.8-4.3-4.4s1.5-4.7,4.1-4.7c2.8,0,3.6,2.5,3.6,4.1c0,0.3,0,0.6-0.1,0.7h-6.2V318.2z M458.2,317.1
			c0-1-0.4-2.6-2.2-2.6c-1.6,0-2.3,1.5-2.4,2.6H458.2z"/>
		<path class="st1" d="M469.3,313.5c0,0.6-0.1,1.3-0.1,2.4v5.1c0,2-0.4,3.2-1.2,4c-0.8,0.8-2.1,1-3.2,1c-1,0-2.2-0.3-2.9-0.7
			l0.4-1.2c0.6,0.4,1.5,0.7,2.6,0.7c1.6,0,2.8-0.8,2.8-3v-1l0,0c-0.5,0.8-1.4,1.5-2.8,1.5c-2.2,0-3.7-1.8-3.7-4.2
			c0-3,1.9-4.6,3.9-4.6c1.5,0,2.3,0.8,2.7,1.5l0,0l0.1-1.3h1.4V313.5z M467.6,317c0-0.3,0-0.5-0.1-0.7c-0.3-0.9-1.1-1.7-2.2-1.7
			c-1.5,0-2.6,1.3-2.6,3.3c0,1.7,0.9,3.1,2.6,3.1c1,0,1.9-0.6,2.2-1.6c0.1-0.3,0.1-0.6,0.1-0.8V317z"/>
		<path class="st1" d="M472.4,313.5l1.9,5.1c0.2,0.6,0.4,1.3,0.6,1.8l0,0c0.2-0.5,0.3-1.2,0.6-1.8l1.7-5.1h1.7l-2.4,6.3
			c-1.1,3-1.9,4.5-3,5.5c-0.8,0.7-1.5,1-1.9,1l-0.4-1.3c0.4-0.1,0.9-0.4,1.4-0.8c0.4-0.3,1-1,1.3-1.8c0.1-0.2,0.1-0.3,0.1-0.4
			s0-0.2-0.1-0.4l-3.2-8.1L472.4,313.5L472.4,313.5z"/>
	</g>
	<g>
		<circle class="st2" cx="314.1" cy="355.9" r="95.2"/>
		<circle class="st2" cx="189" cy="431.6" r="95.2"/>
		<circle class="st2" cx="423" cy="433.6" r="95.2"/>
	</g>
	<circle class="st2" cx="306" cy="474.9" r="95.2"/>
	<g>
		<g id="folder_x5F_open_1_">
			<path class="st3" d="M267.9,455.3c-1,2.3-18.5,45.9-18.5,45.9v-60.9c0-2.2,1.8-4.1,4.1-4.1h5.4l1.4-4.3c0.7-2.1,3.1-3.8,5.3-3.8
				h20.5c2.2,0,4.6,1.7,5.3,3.8l1.4,4.3h38.2c2.2,0,4.1,1.8,4.1,4.1v12.3H272C270.8,452.4,268.9,452.9,267.9,455.3z M368,456.6h-90
				c-2.2,0-4.7,1.7-5.6,3.8l-21.5,53.8c-0.8,2.1,0.3,3.8,2.5,3.8h90c2.2,0,4.7-1.7,5.6-3.8l21.5-53.8
				C371.4,458.3,370.2,456.6,368,456.6z"/>
		</g>
		<g id="cogwheels_1_">
			<g id="cogwheel_1_">
				<path class="st4" d="M321.9,485.5c0.1-0.7,0.2-1.5,0.2-2.2c0-0.8-0.1-1.5-0.2-2.2l-4.6-1.1c-0.3-1.1-0.7-2.2-1.3-3.1l2.4-4
					c-0.9-1.2-2-2.2-3.2-3.2l-4,2.4c-1-0.6-2-1-3.1-1.3l-1.1-4.6c-0.7-0.1-1.5-0.2-2.2-0.2c-0.8,0-1.5,0.1-2.2,0.2l-1.1,4.6
					c-1.1,0.3-2.2,0.7-3.1,1.3l-4-2.4c-1.2,0.9-2.2,2-3.2,3.2l2.4,4c-0.6,1-1,2-1.3,3.1l-4.6,1.1c-0.1,0.7-0.2,1.5-0.2,2.2
					c0,0.8,0.1,1.5,0.2,2.2l4.6,1.1c0.3,1.1,0.7,2.2,1.3,3.1l-2.4,4c0.9,1.2,2,2.2,3.2,3.2l4-2.4c1,0.6,2,1,3.1,1.3l1.1,4.6
					c0.7,0.1,1.5,0.2,2.2,0.2c0.8,0,1.5-0.1,2.2-0.2l1.1-4.6c1.1-0.3,2.2-0.7,3.1-1.3l4,2.4c1.2-0.9,2.2-2,3.2-3.2l-2.4-4
					c0.6-1,1-2,1.3-3.1L321.9,485.5z M304.7,489.5c-3.3,0-6.2-2.7-6.2-6.2s2.7-6.2,6.2-6.2c3.3,0,6.2,2.7,6.2,6.2
					S308,489.5,304.7,489.5z"/>
			</g>
			<path class="st4" d="M328.1,504.8c-0.4,0-0.7,0-1.1-0.1l-0.5-2.2h-0.1c-0.5-0.1-0.9-0.3-1.4-0.6h-0.1l-1.9,1.2
				c-0.6-0.5-1.1-1-1.5-1.5l1.2-1.9v-0.1c-0.2-0.4-0.4-0.9-0.6-1.4V498l-2.2-0.5c0-0.4-0.1-0.7-0.1-1.1c0-0.4,0-0.7,0.1-1.1l2.2-0.5
				v-0.1c0.1-0.5,0.3-0.9,0.6-1.4v-0.1l-1.2-1.9c0.5-0.6,1-1.1,1.5-1.5l1.9,1.2h0.1c0.4-0.2,0.9-0.4,1.4-0.6h0.1l0.5-2.2
				c0.4,0,0.7-0.1,1.1-0.1s0.7,0,1.1,0.1l0.5,2.2h0.1c0.5,0.1,0.9,0.3,1.4,0.6h0.1l1.9-1.2c0.6,0.5,1.1,1,1.5,1.5l-1.2,1.9v0.1
				c0.2,0.4,0.4,0.9,0.6,1.4v0.1l2.2,0.5c0,0.4,0.1,0.7,0.1,1.1c0,0.4,0,0.7-0.1,1.1l-2.2,0.5v0.1c-0.1,0.5-0.3,0.9-0.6,1.4v0.1
				l1.2,1.9c-0.5,0.6-1,1.1-1.5,1.5l-1.9-1.2h-0.1c-0.4,0.2-0.9,0.4-1.4,0.6h-0.1l-0.5,2.2C328.8,504.7,328.4,504.8,328.1,504.8z
				 M328.1,493.2c-1.7,0-3.1,1.4-3.1,3.1c0,1.7,1.4,3.1,3.1,3.1c1.7,0,3.1-1.4,3.1-3.1C331.2,494.6,329.8,493.2,328.1,493.2z"/>
		</g>
	</g>
	<g>
		<g id="vector_x5F_path_x5F_square">
			<g>
				<path class="st3" d="M173.6,403.7v-6.4h-6.4v1.6h-25.3v-1.6h-6.4v6.4h1.6V429h-1.6v6.4h6.4v-1.6h25.3v1.6h6.4V429H172v-25.3
					H173.6z M168.8,399h3.1v3.1h-3.1V399z M137.3,399h3.1v3.1h-3.1V399z M140.4,433.8h-3.1v-3.1h3.1V433.8z M172,433.8h-3.1v-3.1
					h3.1V433.8z M168.8,429h-1.6v1.6h-25.3V429h-1.6v-25.3h1.6v-1.6h25.3v1.6h1.6V429z"/>
			</g>
			<polygon class="st5" points="167.2,430.6 167.2,429 168.8,429 168.8,403.7 167.2,403.7 167.2,402.1 142,402.1 142,403.7 
				140.4,403.7 140.4,429 142,429 142,430.6 			"/>
		</g>
		<g id="vector_x5F_path_x5F_circle">
			<g>
				<path class="st3" d="M182.7,474.2c-1.3-7.1-6.9-12.6-13.9-13.9v-1.9h-6.4v1.9c-7.1,1.3-12.6,6.9-13.9,13.9h-1.9v6.4h1.9
					c1.3,7.1,6.9,12.6,13.9,13.9v1.9h6.4v-1.9c7.1-1.3,12.6-6.9,13.9-13.9h1.9v-6.4H182.7z M164,460h3.1v3.1H164V460z M151.3,479
					h-3.1v-3.1h3.1V479z M167.1,494.7H164v-3.1h3.1V494.7z M179.4,480.5c-1.2,5.3-5.3,9.5-10.7,10.7V490h-6.4v1.2
					c-5.3-1.2-9.5-5.3-10.7-10.7h1.2v-6.4h-1.2c1.2-5.3,5.3-9.5,10.7-10.7v1.2h6.4v-1.2c5.3,1.2,9.5,5.3,10.7,10.7h-1.2v6.4H179.4z
					 M183,479h-3.1v-3.1h3.1V479z"/>
			</g>
			<path class="st5" d="M178.2,480.5v-6.4h1.2c-0.1-0.6-0.3-1.3-0.6-1.9c0,0,0,0,0-0.1c-0.5-1.2-1.1-2.3-1.9-3.4c0,0,0-0.1-0.1-0.1
				c-0.8-1-1.7-1.9-2.7-2.7c0,0-0.1,0-0.1-0.1c-1-0.8-2.1-1.4-3.3-1.9h-0.1c-0.6-0.2-1.2-0.4-1.9-0.6l0,0v1.2h-6.4v-1.2l0,0
				c-0.6,0.1-1.3,0.3-1.9,0.6h-0.1c-1.2,0.5-2.3,1.1-3.3,1.9c0,0-0.1,0-0.1,0.1c-1,0.8-1.9,1.7-2.7,2.7c0,0,0,0.1-0.1,0.1
				c-0.8,1-1.4,2.1-1.9,3.4c0,0,0,0,0,0.1c-0.2,0.6-0.4,1.2-0.6,1.9h1.2v6.4h-1c0.1,0.6,0.3,1.3,0.6,1.9c0,0,0,0,0,0.1
				c0.5,1.2,1.1,2.3,1.9,3.4c0,0,0,0.1,0.1,0.1c0.8,1,1.7,1.9,2.7,2.7c0,0,0.1,0,0.1,0.1c1,0.8,2.1,1.4,3.3,1.9h0.1
				c0.6,0.2,1.2,0.4,1.9,0.6l0,0v-1.2h6.4v1.2l0,0c0.6-0.1,1.3-0.3,1.9-0.6h0.1c1.2-0.5,2.3-1.1,3.3-1.9c0,0,0.1,0,0.1-0.1
				c1-0.8,1.9-1.7,2.7-2.7c0,0,0-0.1,0.1-0.1c0.8-1,1.4-2.1,1.9-3.4c0,0,0,0,0-0.1c0.2-0.6,0.4-1.2,0.6-1.9H178.2z"/>
		</g>
		<g id="vector_x5F_path_x5F_curve">
			<path class="st3" d="M216.9,365.6v1.8c-12.5,2.2-22.3,12-24.5,24.5h-1.8v5.2h5.2v-5.2h-0.8c2.1-11.1,10.8-19.7,21.8-21.8v0.8h5.2
				v-5.2h-5.1V365.6z M194.6,395.9h-2.6v-2.6h2.6V395.9z M220.9,369.5h-2.6v-2.6h2.6V369.5z"/>
		</g>
	</g>
	<g id="database_x5F_lock_29_">
		<path class="st3" d="M353.1,322.6c0.1,0.2,0.2,0.4,0.2,0.6v5.3c0,1.9-6,3.5-13.3,3.5c-7.4,0-13.3-1.6-13.3-3.5v-5.3
			c0-0.2,0.1-0.4,0.2-0.6c3.6,2.2,11.2,2.4,13.1,2.4C341.9,325.1,349.5,324.9,353.1,322.6z M340,316.1c-1.9,0-9.5-0.1-13.1-2.4
			c-0.1,0.2-0.2,0.4-0.2,0.6v5.3c0,1.9,6,3.5,13.3,3.5c7.4,0,13.3-1.6,13.3-3.5v-5.3c0-0.2-0.1-0.4-0.2-0.6
			C349.5,316,341.8,316.1,340,316.1z M340,307.2c-1.9,0-9.5-0.1-13.1-2.4c-0.1,0.2-0.2,0.4-0.2,0.6v5.3c0,1.9,6,3.5,13.3,3.5
			c7.4,0,13.3-1.6,13.3-3.5v-5.3c0-0.2-0.1-0.4-0.2-0.6C349.5,307.1,341.8,307.2,340,307.2z M353.3,296.5v5.3c0,1.9-6,3.5-13.3,3.5
			c-7.4,0-13.3-1.6-13.3-3.5v-5.3c0-1.9,6-3.5,13.3-3.5S353.3,294.6,353.3,296.5z M345.7,295.7c0-0.6-2.5-1.1-5.7-1.1
			c-3.2,0-5.7,0.5-5.7,1.1c0,0.6,2.5,1.1,5.7,1.1C343.2,296.8,345.7,296.3,345.7,295.7z"/>
	</g>
	<g id="cogwheels_13_">
		<g id="cogwheel_31_">
			<path class="st3" d="M300.9,331.9c0.1-0.7,0.2-1.5,0.2-2.2c0-0.8-0.1-1.5-0.2-2.2l-4.5-1.1c-0.3-1.1-0.7-2.1-1.3-3.1l2.4-4
				c-0.9-1.2-2-2.2-3.1-3.1l-4,2.4c-1-0.6-2-1-3.1-1.3l-1.1-4.5c-0.7-0.1-1.5-0.2-2.2-0.2c-0.8,0-1.5,0.1-2.2,0.2l-1.1,4.5
				c-1.1,0.3-2.1,0.7-3.1,1.3l-4-2.4c-1.2,0.9-2.2,2-3.1,3.1l2.4,4c-0.6,1-1,2-1.3,3.1l-4.5,1.1c-0.1,0.7-0.2,1.5-0.2,2.2
				c0,0.8,0.1,1.5,0.2,2.2l4.5,1.1c0.3,1.1,0.7,2.2,1.3,3.1l-2.4,4c0.9,1.2,2,2.2,3.1,3.1l4-2.4c1,0.6,2,1,3.1,1.3l1.1,4.5
				c0.7,0.1,1.5,0.2,2.2,0.2c0.8,0,1.5-0.1,2.2-0.2l1.1-4.5c1.1-0.3,2.2-0.7,3.1-1.3l4,2.4c1.2-0.9,2.2-2,3.1-3.1l-2.4-4
				c0.6-1,1-2,1.3-3.1L300.9,331.9z M283.7,335.8c-3.3,0-6.1-2.7-6.1-6.1c0-3.3,2.7-6.1,6.1-6.1c3.3,0,6.1,2.7,6.1,6.1
				C289.8,333,287,335.8,283.7,335.8z"/>
		</g>
		<path class="st3" d="M307,350.9c-0.4,0-0.7,0-1.1-0.1l-0.5-2.2h-0.1c-0.5-0.1-0.9-0.3-1.3-0.6h-0.1l-1.9,1.2
			c-0.6-0.5-1.1-1-1.5-1.5l1.2-1.9v-0.1c-0.2-0.4-0.4-0.9-0.6-1.3v-0.1l-2.2-0.5c0-0.4-0.1-0.7-0.1-1.1c0-0.4,0-0.7,0.1-1.1l2.2-0.5
			v-0.1c0.1-0.5,0.3-0.9,0.6-1.3v-0.1l-1.2-1.9c0.5-0.6,1-1.1,1.5-1.5l1.9,1.2h0.1c0.4-0.2,0.9-0.4,1.3-0.6h0.1l0.5-2.2
			c0.4,0,0.7-0.1,1.1-0.1c0.4,0,0.7,0,1.1,0.1l0.5,2.2h0.1c0.5,0.1,0.9,0.3,1.3,0.6h0.1l1.9-1.2c0.6,0.5,1.1,1,1.5,1.5l-1.2,1.9v0.1
			c0.2,0.4,0.4,0.9,0.6,1.3v0.1l2.2,0.5c0,0.4,0.1,0.7,0.1,1.1c0,0.4,0,0.7-0.1,1.1l-2.2,0.5v0.1c-0.1,0.5-0.3,0.9-0.6,1.3v0.1
			l1.2,1.9c-0.5,0.6-1,1.1-1.5,1.5l-1.9-1.2H310c-0.4,0.2-0.9,0.4-1.3,0.6h-0.1l-0.5,2.2C307.6,350.9,307.3,350.9,307,350.9z
			 M307,339.5c-1.7,0-3.1,1.4-3.1,3.1c0,1.7,1.4,3.1,3.1,3.1c1.7,0,3.1-1.4,3.1-3.1C310.1,340.9,308.7,339.5,307,339.5z"/>
	</g>
	<g id="stats_2_">
		<g>
			<path class="st3" d="M441,390.5c1.8,0,3.2-1.4,3.2-3.2c0-1.8-1.4-3.2-3.2-3.2c-1.8,0-3.2,1.4-3.2,3.2c0,0.8,0.3,1.5,0.8,2
				l-4.2,6.5c-0.3-0.1-0.6-0.2-1-0.2c-1.8,0-3.2,1.4-3.2,3.2c0,0.1,0,0.3,0,0.4l-6,2.6c-0.6-0.7-1.4-1.1-2.4-1.1
				c-1.8,0-3.2,1.4-3.2,3.2c0,0.6,0.2,1.2,0.5,1.6l-5.6,6.5v-28.1h-1.3h-1.3V416h1.3H443v-1.1v-1.3h-28.3l5.7-6.7
				c0.4,0.2,0.8,0.3,1.3,0.3c1.8,0,3.2-1.4,3.2-3.2c0-0.1,0-0.2,0-0.3l6.1-2.6c0.6,0.6,1.4,1.1,2.4,1.1c1.8,0,3.2-1.4,3.2-3.2
				c0-0.7-0.2-1.4-0.6-1.9l4.3-6.6C440.4,390.4,440.7,390.5,441,390.5z"/>
		</g>
		<g class="st6">
			<path class="st3" d="M415.4,409.8h-2v-1.3h3.2L415.4,409.8z M417.2,404.6h-3.8v-1.3h3.8v-3.8h-3.8v-1.3h3.8v-3.8h-3.8V393h3.8
				v-3.8h-3.8v-1.3h3.8v-3.8h1.3v3.8h3.8v-3.8h1.3v3.8h3.8v-3.8h1.3v3.8h3.8v-3.8h1.3v3.8h3.8v-0.6c0,0.8,0.3,1.5,0.8,2l-0.8,1.1
				v-1.3H434v3.8h2.2l-0.8,1.3h-1.3v1.4c-0.2,0-0.4-0.1-0.6-0.1c-0.2,0-0.4,0-0.6,0.1v-1.4H429v3.8h1.3c0,0.2-0.1,0.4-0.1,0.7
				c0,0.1,0,0.3,0,0.4l-0.5,0.2h-0.8v0.4l-1.3,0.6v-0.9h-3.8v2c-0.4-0.3-0.8-0.5-1.3-0.6v-1.4h-3.8v3.8h0.1c0,0.2-0.1,0.4-0.1,0.7
				c0,0.2,0,0.4,0.1,0.6h-0.1v1.6l-1.3,1.5v-3.1H417.2z M428.8,393h3.8v-3.8h-3.8V393z M423.6,393h3.8v-3.8h-3.8V393z M423.6,398.2
				h3.8v-3.8h-3.8V398.2z M418.5,393h3.8v-3.8h-3.8V393z M418.5,398.2h3.8v-3.8h-3.8V398.2z M439.1,384.7V384h-1.3v3.2
				C437.8,386.2,438.3,385.3,439.1,384.7z M439.1,393h3.8v1.3h-3.8v3.8h3.8v1.3h-3.8v3.8h3.8v1.3h-3.8v3.8h3.8v1.3h-3.8v3.8h-1.3
				v-3.8H434v3.8h-1.3v-3.8h-3.8v3.8h-1.3v-3.8h-3.8v3.8h-1.3v-3.8h-3.8v3.8h-1.3v-3l1.9-2.1h3.3v-1.3c0.5-0.1,0.9-0.3,1.3-0.6v1.9
				h3.8v-3.8H425c0-0.2,0.1-0.4,0.1-0.6c0-0.1,0-0.2,0-0.3l0.8-0.3h1.8v-0.8l1.3-0.6v1.4h3.8v-1.3c0.2,0,0.4,0.1,0.6,0.1
				c0.2,0,0.4,0,0.6-0.1v1.3h3.8v-3.8h-1.3c0-0.2,0.1-0.4,0.1-0.6c0-0.2,0-0.5-0.1-0.7h1.4v-3.8h-0.2l1.5-2.3v0.9H439.1z
				 M432.7,404.6h-3.8v3.8h3.8V404.6z M437.8,404.6H434v3.8h3.8V404.6z"/>
		</g>
	</g>
	<g id="lightbulb_1_">
		<g>
			<path class="st3" d="M458.2,432.8C458.1,432.8,458.2,432.8,458.2,432.8c-0.1,0-0.1,0-0.2,0c-9.7,0-16.6,7.1-16.6,16.7
				c0,5.1,2.4,8.3,4.4,11c2,2.7,3.8,4.9,3.8,9.1c0,1.4,0.4,2.5,1.1,3.3v2.1c0,0.5,1.8,1.8,1.8,1.8v0.9c0,0.5,0.4,0.9,0.9,0.9h9.2
				c0.5,0,0.9-0.4,0.9-0.9v-0.9c0,0,1.8-1.3,1.8-1.8v-2.4c0.5-0.8,0.9-1.8,0.9-3c0-4.1,1.8-6.4,3.8-9.1c2.1-2.7,4.5-5.8,4.5-11
				C474.6,439.8,467.9,432.8,458.2,432.8z M467.3,458.3c-2.1,2.8-4.5,6-4.5,11.3h-4.1h-0.9h-4.4c0-5.3-2.4-8.5-4.5-11.3
				c-2-2.6-3.7-4.8-3.7-8.8c0-7.8,5.3-13.1,13.1-13.1c7.3,0,13,5.3,13,13.1C471.1,453.5,469.3,455.8,467.3,458.3z"/>
		</g>
		<g class="st6">
			<path class="st3" d="M458.2,436.4c-0.8,0-1.5,0.1-2.2,0.2c0.2,0.6,0.4,1.3,0.4,2c0,3-2.4,5.4-5.4,5.4c-1.5,0-2.9-0.6-3.9-1.6
				c-1.2,2-1.9,4.4-1.9,7.2c0,3.9,1.7,6.2,3.7,8.8c2.1,2.8,4.5,6,4.5,11.3h9.4c0-5.3,2.4-8.5,4.5-11.3c2-2.6,3.8-4.8,3.8-8.8
				C471.1,441.9,465.5,436.4,458.2,436.4z"/>
		</g>
	</g>
	<g>
		<path class="st1" d="M275.6,232.5c1-0.1,2.1-0.3,3.3-0.3c2.3,0,3.9,0.5,4.9,1.5c1.1,1,1.7,2.4,1.7,4.4c0,2-0.6,3.6-1.7,4.7
			s-3,1.7-5.4,1.7c-1.1,0-2.1-0.1-2.8-0.1V232.5z M277.3,243.4c0.4,0.1,1,0.1,1.6,0.1c3.3,0,5.2-1.9,5.2-5.1c0-2.9-1.6-4.7-4.9-4.7
			c-0.8,0-1.4,0.1-1.8,0.2v9.6H277.3z"/>
		<path class="st1" d="M288.7,240.4c0,2.1,1.4,3,3,3c1.1,0,1.8-0.2,2.4-0.5l0.3,1.1c-0.6,0.3-1.5,0.5-2.9,0.5
			c-2.7,0-4.3-1.8-4.3-4.4s1.5-4.7,4.1-4.7c2.8,0,3.6,2.5,3.6,4.1c0,0.3,0,0.6-0.1,0.7h-6.2V240.4z M293.3,239.3
			c0-1-0.4-2.6-2.2-2.6c-1.6,0-2.3,1.5-2.4,2.6H293.3z"/>
		<path class="st1" d="M297.4,235.8l1.7,4.9c0.3,0.8,0.5,1.5,0.7,2.2h0.1c0.2-0.7,0.4-1.4,0.7-2.2l1.7-4.9h1.7l-3.4,8.8h-1.5
			l-3.3-8.8H297.4z"/>
		<path class="st1" d="M306.3,240.4c0,2.1,1.4,3,3,3c1.1,0,1.8-0.2,2.4-0.5l0.3,1.1c-0.6,0.3-1.5,0.5-2.9,0.5
			c-2.7,0-4.3-1.8-4.3-4.4s1.5-4.7,4.1-4.7c2.8,0,3.6,2.5,3.6,4.1c0,0.3,0,0.6-0.1,0.7h-6.2V240.4z M310.9,239.3
			c0-1-0.4-2.6-2.2-2.6c-1.6,0-2.3,1.5-2.4,2.6H310.9z"/>
		<path class="st1" d="M314.5,231.7h1.6v12.9h-1.6V231.7z"/>
		<path class="st1" d="M326.7,240.1c0,3.2-2.2,4.6-4.3,4.6c-2.4,0-4.2-1.7-4.2-4.5c0-2.9,1.9-4.6,4.3-4.6
			C325.1,235.6,326.7,237.4,326.7,240.1z M319.7,240.2c0,1.9,1.1,3.3,2.6,3.3c1.5,0,2.6-1.4,2.6-3.4c0-1.5-0.7-3.3-2.6-3.3
			C320.5,236.8,319.7,238.5,319.7,240.2z"/>
		<path class="st1" d="M328.7,238.6c0-1.1,0-2-0.1-2.8h1.4l0.1,1.5l0,0c0.6-1.1,1.7-1.7,3.1-1.7c2.1,0,3.7,1.8,3.7,4.4
			c0,3.1-1.9,4.7-4,4.7c-1.2,0-2.2-0.5-2.7-1.4l0,0v4.7h-1.6v-9.5H328.7z M330.3,241c0,0.2,0,0.5,0.1,0.6c0.3,1.1,1.2,1.9,2.4,1.9
			c1.7,0,2.6-1.4,2.6-3.4c0-1.7-0.9-3.2-2.6-3.2c-1.1,0-2.1,0.8-2.4,2c-0.1,0.2-0.1,0.4-0.1,0.6V241z"/>
	</g>
	<g>
		<g>
			<path class="st3" d="M148.2,149.6c-27.9,0-50.5,22.6-50.5,50.5c0,25.8,19.5,47.2,44.5,50.2l6.1,20.5l6.1-20.5
				c25-3,44.5-24.3,44.5-50.2C198.7,172.2,176.1,149.6,148.2,149.6z"/>
			<path class="st7" d="M148.2,149.6v121.2l6.1-20.5c25-3,44.5-24.3,44.5-50.2C198.7,172.2,176.1,149.6,148.2,149.6z"/>
		</g>
		<g>
			<g id="database_x5F_lock_28_">
				<path class="st8" d="M161.9,199.5c0.1,0.2,0.2,0.4,0.2,0.6v5.7c0,2.1-6.5,3.8-14.4,3.8c-8,0-14.4-1.7-14.4-3.8v-5.7
					c0-0.2,0.1-0.4,0.2-0.6c3.9,2.4,12.1,2.5,14.1,2.5C149.8,202,157.9,201.8,161.9,199.5z M147.7,192.4c-2,0-10.2-0.2-14.1-2.5
					c-0.1,0.2-0.2,0.4-0.2,0.6v5.7c0,2.1,6.5,3.8,14.4,3.8c8,0,14.4-1.7,14.4-3.8v-5.7c0-0.2-0.1-0.4-0.2-0.6
					C157.9,192.2,149.8,192.4,147.7,192.4z M147.7,182.9c-2,0-10.2-0.2-14.1-2.5c-0.1,0.2-0.2,0.4-0.2,0.6v5.7
					c0,2.1,6.5,3.8,14.4,3.8c8,0,14.4-1.7,14.4-3.8v-5.7c0-0.2-0.1-0.4-0.2-0.6C157.9,182.7,149.8,182.9,147.7,182.9z M162.1,171.4
					v5.7c0,2.1-6.5,3.8-14.4,3.8c-8,0-14.4-1.7-14.4-3.8v-5.7c0-2.1,6.5-3.8,14.4-3.8C155.6,167.5,162.1,169.2,162.1,171.4z
					 M153.9,170.3c0-0.7-2.7-1.2-6.2-1.2c-3.4,0-6.2,0.5-6.2,1.2s2.7,1.2,6.2,1.2C151.2,171.6,153.9,171.1,153.9,170.3z"/>
			</g>
			<rect x="145" y="207.4" class="st8" width="2.6" height="13.6"/>
			<rect x="113.3" y="221" class="st8" width="66.8" height="2.8"/>
			<rect x="138.4" y="218.2" class="st8" width="16.2" height="8.3"/>
		</g>
		<g>
			<path class="st3" d="M463.8,149.6c-27.9,0-50.5,22.6-50.5,50.5c0,25.8,19.5,47.2,44.5,50.2l6.1,20.5l6.1-20.5
				c25-3,44.5-24.3,44.5-50.2C514.4,172.2,491.8,149.6,463.8,149.6z"/>
			<path class="st9" d="M463.8,149.6v121.2l6.1-20.5c25-3,44.5-24.3,44.5-50.2C514.4,172.2,491.8,149.6,463.8,149.6z"/>
		</g>
		<g>
			<path class="st3" d="M240.9,63.8c-27.9,0-50.5,22.6-50.5,50.5c0,25.8,19.5,47.2,44.5,50.2l6.1,20.5l6.1-20.5
				c25-3,44.5-24.3,44.5-50.2C291.5,86.4,268.9,63.8,240.9,63.8z"/>
			<path class="st7" d="M240.9,63.8v121.2l6.1-20.5c25-3,44.5-24.3,44.5-50.2C291.5,86.4,268.9,63.8,240.9,63.8z"/>
		</g>
		<g>
			<path class="st3" d="M366,63.8c-27.9,0-50.5,22.6-50.5,50.5c0,25.8,19.5,47.2,44.5,50.2l6.1,20.5l6.1-20.5
				c25-3,44.5-24.3,44.5-50.2C416.5,86.4,393.9,63.8,366,63.8z"/>
			<path class="st7" d="M366,63.8v121.2l6.1-20.5c25-3,44.5-24.3,44.5-50.2C416.5,86.4,393.9,63.8,366,63.8z"/>
		</g>
		<g>
			<g id="inbox">
				<path class="st8" d="M492.5,203.7l-8.1-24.6c-0.2-0.6-0.8-0.9-1.4-0.9h-32.9c-0.6,0-1.2,0.5-1.4,1.1l-8.1,24.5
					c0,0.1-0.1,23.2-0.1,23.2c0,0.6,0.5,1.1,1.1,1.1h49.8c0.6,0,1.1-0.5,1.1-1.1C492.6,226.9,492.5,203.8,492.5,203.7z M453.4,184.6
					h26.3l6.6,19.5h-8.9l-4.3,10.8h-13l-4.3-10.8h-8.9L453.4,184.6z"/>
			</g>
			<g>
				<polygon class="st8" points="480.6,199.6 452.2,199.6 452.2,168.6 471.2,168.6 480.6,178.3 				"/>
				<g id="file_24_">
					<path class="st8" d="M478.6,177.6v21.3c0,0.4-0.3,0.6-0.6,0.6h-23.3c-0.4,0-0.6-0.3-0.6-0.6v-29.8c0-0.4,0.3-0.6,0.6-0.6h14.8
						v8.4c0,0.4,0.3,0.6,0.6,0.6h8.5V177.6z M470.8,168.6v7.1c0,0.4,0.3,0.6,0.6,0.6h7.1L470.8,168.6z"/>
				</g>
			</g>
		</g>
		<g>
			<rect x="354.6" y="89.9" class="st8" width="40.7" height="51.4"/>
			<g>
				<ellipse class="st10" cx="353.9" cy="125.5" rx="17.1" ry="17.5"/>
				<ellipse class="st3" cx="353.9" cy="125.5" rx="5.7" ry="5.8"/>
			</g>
		</g>
		<g>
			<path class="st8" d="M244.2,144.4c-6.9-1.2-13.5-2.3-20.2-3.5c-3.4-0.6-6.8-1.2-10.2-1.7c-0.9-0.1-1.2-0.5-1.2-1.4
				c0-13-0.1-25.9-0.1-38.9c0-0.4,0.1-0.8,0.2-1.3c10.4-1.8,20.8-3.7,31.4-5.5c0,1.7,0,3.5,0.1,5.2c5.2,0,10.5,0,15.7,0
				c1.8,0,3.7-0.1,5.5,0c1.9,0,2.5,0.7,2.4,2.6c-0.1,5.5,0,11.1,0,16.6c0,6.7,0,13.4,0,20.1c0,2.1-0.5,2.5-2.5,2.5
				c-6.6,0-13.2,0.1-19.8,0.1c-1.4,0-1.5,0.6-1.5,1.6C244.2,142,244.2,143.2,244.2,144.4z M251.6,107.4c-1.9,0-3.9,0.1-5.8,0.1
				c-1.8,0-1.8-0.1-1.5,1.7c2.4,0,4.8,0.1,7.4,0.1c0,1.6,0,3.1,0,4.6c-2.5,0-5,0.1-7.5,0.1c0,0.7,0,1.2,0,1.7c2.5,0,4.9,0,7.5,0
				c0,1-0.1,2,0,2.9c0.2,1.5-0.2,1.9-1.8,1.7c-1.8-0.2-3.7,0-5.6,0.1c0,0.7,0.1,1.3,0.1,1.8c2.2,0,4.2,0,6.3-0.1
				c0.8,0,1.1,0.2,1.1,1c0,1.2,0,2.3,0,3.7c-2.5,0-5,0-7.4,0c-0.5,1.7,0.4,1.9,1.7,1.8c1.9-0.1,3.8,0,5.7,0c0,1.5,0,2.9,0,4.4
				c-1.6,0-3.1,0.1-4.7,0.1c-3,0.1-3,0.1-2.7,3c0,0.3,0.5,0.8,0.8,0.8c7.1,0.1,14.1,0.1,21.2,0.1c0-12.8,0-25.6-0.1-38.4
				c-6.8,0-13.2,0-19.8,0c-2.3,0-2.3,0-2.3,2.5c0,1,0.3,1.1,1.1,1.1c2.1,0,4.2,0,6.4,0C251.6,104.4,251.6,105.9,251.6,107.4z
				 M227.4,115.8c-0.8-1.9-1.4-3.7-2.2-5.5c-0.1-0.3-0.5-0.7-0.8-0.7c-1,0-2,0.2-3.1,0.3c1.1,2.4,1.9,4.7,3.1,6.9
				c0.7,1.2,0.6,2.1,0,3.2c-1.2,2.2-2.3,4.5-3.4,6.8c2.6,1,3.6,0.6,4.5-1.8c0.5-1.3,1.1-2.6,1.7-4.1c1,2.3,1.9,4.5,2.8,6.8
				c1.2,0.1,2.5,0.1,3.9,0.2c-0.2-0.5-0.2-0.8-0.4-1.1c-1.2-2.4-2.4-4.9-3.6-7.4c-0.2-0.4-0.4-1-0.2-1.5c0.3-0.9,0.8-1.7,1.2-2.5
				c1-2,2-4,3.1-6.3c-0.8,0-1.4,0-2,0c-1.5-0.1-2.2,0.6-2.6,1.9C228.8,112.6,228.1,114.1,227.4,115.8z"/>
			<path class="st3" d="M251.6,107.4c0-1.5,0-3,0-4.7c-2.1,0-4.2,0-6.4,0c-0.8,0-1.1-0.1-1.1-1.1c0-2.5-0.1-2.5,2.3-2.5
				c6.5,0,13,0,19.8,0c0,12.8,0,25.5,0.1,38.4c-7.1,0-14.1,0-21.2-0.1c-0.3,0-0.8-0.5-0.8-0.8c-0.3-2.9-0.3-2.9,2.7-3
				c1.5,0,3-0.1,4.7-0.1c0-1.4,0-2.9,0-4.4c-1.9,0-3.8-0.1-5.7,0c-1.3,0.1-2.1-0.1-1.7-1.8c2.4,0,4.8,0,7.4,0c0-1.4-0.1-2.5,0-3.7
				c0-0.9-0.3-1-1.1-1c-2,0.1-4.1,0-6.3,0.1c0-0.5-0.1-1-0.1-1.8c1.9,0,3.8-0.3,5.6-0.1c1.6,0.2,2-0.3,1.8-1.7c-0.1-0.9,0-1.9,0-2.9
				c-2.6,0-5,0-7.5,0c0-0.5,0-1,0-1.7c2.5,0,4.9-0.1,7.5-0.1c0-1.5,0-3,0-4.6c-2.4,0-4.8-0.1-7.4-0.1c-0.3-1.8-0.3-1.7,1.5-1.7
				C247.8,107.5,249.7,107.4,251.6,107.4z M253.5,120.5c2.7,0,5.3,0.1,7.9,0.1c0.3,0,0.9-0.4,0.9-0.6c0.1-1.3,0.1-2.7,0.1-4.1
				c-3,0-6,0-8.8,0C253.6,117.5,253.6,119,253.5,120.5z M262.3,114c0-1.6,0-3.1,0-4.7c-2.9,0-6,0-8.9,0c0,1.7,0.1,3.2,0.1,4.7
				C256.6,114.1,259.4,114.1,262.3,114z M262.3,122.4c-3.1,0-6,0-8.8,0c0,1.6,0,3.1,0,4.7c3,0,6,0,8.9,0
				C262.4,125.5,262.3,124.1,262.3,122.4z M253.6,107.4c3,0,6,0,8.8,0c0-1.6,0-3.1-0.1-4.7c-3,0-5.8,0-8.8,0
				C253.6,104.4,253.6,105.8,253.6,107.4z M262.3,129c-3,0-5.8,0-8.8,0c0,1.6,0,3,0.1,4.4c2.3,0,4.5,0.1,6.8,0.1c2.1,0,2.1,0,2.1-2
				C262.4,130.7,262.3,129.9,262.3,129z"/>
			<path class="st3" d="M227.4,115.8c0.7-1.7,1.4-3.2,1.9-4.8c0.4-1.4,1.1-2.1,2.6-1.9c0.6,0.1,1.2,0,2,0c-1.1,2.2-2.1,4.2-3.1,6.3
				c-0.4,0.8-0.9,1.6-1.2,2.5c-0.1,0.4,0,1,0.2,1.5c1.2,2.4,2.4,4.9,3.6,7.4c0.2,0.3,0.2,0.7,0.4,1.1c-1.4-0.1-2.7-0.2-3.9-0.2
				c-0.9-2.2-1.8-4.3-2.8-6.8c-0.6,1.5-1.2,2.8-1.7,4.1c-0.9,2.4-1.9,2.8-4.5,1.8c1.1-2.2,2.2-4.5,3.4-6.8c0.6-1.1,0.7-2,0-3.2
				c-1.2-2.1-2-4.4-3.1-6.9c1.2-0.1,2.1-0.3,3.1-0.3c0.3,0,0.6,0.4,0.8,0.7C226,112.1,226.7,113.9,227.4,115.8z"/>
			<path class="st8" d="M253.5,120.5c0-1.6,0-3.1,0.1-4.6c2.9,0,5.7,0,8.8,0c0,1.4,0,2.8-0.1,4.1c0,0.2-0.6,0.6-0.9,0.6
				C258.8,120.6,256.3,120.6,253.5,120.5z"/>
			<path class="st8" d="M262.3,114c-2.9,0-5.7,0-8.7,0c0-1.5-0.1-3-0.1-4.7c3,0,6,0,8.9,0C262.3,110.9,262.3,112.4,262.3,114z"/>
			<path class="st8" d="M262.3,122.4c0,1.6,0,3,0.1,4.7c-2.9,0-5.7,0-8.9,0c0-1.5,0-3.1,0-4.7C256.4,122.4,259.3,122.4,262.3,122.4z
				"/>
			<path class="st8" d="M253.6,107.4c0-1.6,0-3.1-0.1-4.7c2.9,0,5.7,0,8.8,0c0,1.6,0,3.1,0.1,4.7
				C259.5,107.4,256.7,107.4,253.6,107.4z"/>
			<path class="st8" d="M262.3,129c0,0.9,0.1,1.7,0.1,2.5c0,2.1,0,2.1-2.1,2c-2.2,0-4.4-0.1-6.8-0.1c0-1.4,0-2.8-0.1-4.4
				C256.5,129.1,259.3,129,262.3,129z"/>
		</g>
	</g>
</g>
</svg>
