<?xml version="1.0" encoding="utf-8"?>
<!-- Generator: Adobe Illustrator 20.0.0, SVG Export Plug-In . SVG Version: 6.00 Build 0)  -->
<svg version="1.1" id="Layer_1" xmlns="http://www.w3.org/2000/svg" xmlns:xlink="http://www.w3.org/1999/xlink" x="0px" y="0px"
	 viewBox="0 0 612 612" style="enable-background:new 0 0 612 612;" xml:space="preserve">
<style type="text/css">
	.st0{opacity:0.66;}
	.st1{fill:#5EC5D2;}
	.st2{fill:#546E7A;}
	.st3{fill:#F16D64;}
	.st4{fill:#F48220;}
	.st5{fill:#FFFFFF;}
	.st6{clip-path:url(#SVGID_4_);}
	.st7{opacity:0.1;fill-rule:evenodd;clip-rule:evenodd;fill:#21707F;}
	.st8{fill-rule:evenodd;clip-rule:evenodd;fill:#2994A8;}
	.st9{opacity:0.4;fill-rule:evenodd;clip-rule:evenodd;fill:#21707F;}
	.st10{fill-rule:evenodd;clip-rule:evenodd;fill:#FFFFFF;}
	.st11{fill-rule:evenodd;clip-rule:evenodd;fill:#54A9B8;}
	.st12{fill-rule:evenodd;clip-rule:evenodd;fill:#72B2BE;}
	.st13{opacity:0.4;fill-rule:evenodd;clip-rule:evenodd;fill:#56858E;}
	.st14{fill-rule:evenodd;clip-rule:evenodd;fill:#A9CFD8;}
	.st15{fill-rule:evenodd;clip-rule:evenodd;fill:#3EC3DD;}
	.st16{opacity:0.4;fill-rule:evenodd;clip-rule:evenodd;fill:#2994A8;}
	.st17{fill-rule:evenodd;clip-rule:evenodd;fill:#8CD4E6;}
	.st18{fill:#123457;}
</style>
<g id="Arrow_7">
</g>
<g class="st0">
	<defs>
		<path id="SVGID_1_" class="st0" d="M306,0c169,0,306,137,306,306c0,169-137,306-306,306C137,612,0,475,0,306C0,137,137,0,306,0
			L306,0z"/>
	</defs>
	<use xlink:href="#SVGID_1_"  style="overflow:visible;fill-rule:evenodd;clip-rule:evenodd;fill:#C5E7E5;"/>
	<clipPath id="SVGID_2_">
		<use xlink:href="#SVGID_1_"  style="overflow:visible;"/>
	</clipPath>
</g>
<g>
	<path class="st1" d="M235.6,129.9c35.3,4.3,62.7,34.1,63.3,70.4l46.8,25.4l46.2-25.3c-0.6-87.6-69.3-158.9-155.8-163.8l25.2,45.9
		L235.6,129.9z"/>
	<path class="st2" d="M155,192.7c4.3-35.3,34.1-62.7,70.4-63.3l25.4-46.8l-25.3-46.2C137.9,37,66.5,105.7,61.7,192.2l45.9-25.2
		L155,192.7z"/>
	<path class="st3" d="M391.6,211l-45.9,25.2l-47.4-25.7c-4.3,35.3-34.1,62.7-70.4,63.3l-25.4,46.8l25.3,46.2
		C315.4,366.2,386.8,297.5,391.6,211z"/>
	<path class="st4" d="M217.8,273.3c-35.3-4.3-62.7-34.1-63.3-70.4l-46.8-25.4l-46.2,25.3c0.6,87.6,69.3,158.9,155.8,163.8
		l-25.2-45.9L217.8,273.3z"/>
</g>
<g>
	<g>
		<path class="st5" d="M121.1,154.9c7.5,0,13.6-6.1,13.6-13.6c0-2.3-0.6-4.5-1.6-6.4c-0.1,0-0.2,0-0.3,0c-0.1,0-0.1,0-0.2,0
			l-1.7-0.1l-1.2,1.2c0.9,1.5,1.5,3.3,1.5,5.2c0,5.5-4.5,10-10,10c-5.5,0-10-4.5-10-10c0-5.5,4.5-10,10-10c1.9,0,3.7,0.5,5.2,1.5
			l1.1-1.1l-0.2-2c0-0.2,0-0.3,0-0.5c-1.9-1-4-1.5-6.2-1.5c-7.5,0-13.5,6.1-13.5,13.6C107.6,148.8,113.7,154.9,121.1,154.9
			L121.1,154.9z M121.1,154.9"/>
		<path class="st5" d="M121.1,137.9c0.1,0,0.2,0,0.3,0l2.5-2.5l0.1-0.1c-0.9-0.4-1.8-0.6-2.8-0.6c-3.7,0-6.7,3-6.7,6.7
			c0,3.7,3,6.7,6.7,6.7c3.7,0,6.7-3,6.7-6.7c0-1-0.2-2-0.6-2.8l-0.1,0.1l-2.5,2.5c0,0.1,0,0.2,0,0.3c0,1.9-1.6,3.5-3.5,3.5
			s-3.5-1.6-3.5-3.5C117.6,139.4,119.2,137.9,121.1,137.9L121.1,137.9z M121.1,137.9"/>
		<path class="st5" d="M135.2,129.1l0.7-0.7c0.3-0.3,0.3-0.9,0-1.2l-0.5-0.5c-0.2-0.2-0.4-0.3-0.6-0.3c-0.2,0-0.4,0.1-0.6,0.3
			l-0.8,0.8l-0.2-2.2c0-0.2-0.1-0.3-0.3-0.3c-0.1,0-0.1,0-0.2,0.1l-3.3,3.3c-0.3,0.3-0.5,0.7-0.4,1.1l0,0.1l0.2,2.1l-1.2,1.2
			l-2.1,2.2l0,0l-2.1,2.1l-0.9,0.9c-0.1,0.1-0.2,0.3-0.2,0.5l-0.1,0.7c0,0.4,0.3,0.8,0.7,0.8h0l0.8,0c0.2,0,0.3-0.1,0.5-0.2l6.5-6.5
			l1.9,0.1l0.1,0c0,0,0.1,0,0.1,0c0.4,0,0.7-0.2,1-0.4l3.3-3.3c0.2-0.2,0.1-0.5-0.2-0.5L135.2,129.1z M135.2,129.1"/>
	</g>
</g>
<g>
	<g>
		<path d="M197.5,194.3c-2.2,0-4,0.8-5.2,2.5s-1.8,4-1.8,7c0,6.2,2.3,9.3,7,9.3c2,0,4.3-0.5,7.1-1.5v5c-2.3,1-4.9,1.4-7.7,1.4
			c-4.1,0-7.2-1.2-9.3-3.7c-2.2-2.5-3.2-6-3.2-10.6c0-2.9,0.5-5.4,1.6-7.6s2.6-3.9,4.6-5c2-1.2,4.3-1.7,7-1.7c2.7,0,5.4,0.7,8.2,2
			l-1.9,4.8c-1-0.5-2.1-0.9-3.2-1.3S198.5,194.3,197.5,194.3z"/>
		<path d="M216.5,206.9v10.7h-5.9v-27.9h8.1c3.8,0,6.6,0.7,8.4,2.1c1.8,1.4,2.7,3.5,2.7,6.3c0,1.6-0.5,3.1-1.4,4.4
			c-0.9,1.3-2.2,2.3-3.8,3c4.2,6.3,6.9,10.3,8.2,12.2h-6.6l-6.7-10.7H216.5z M216.5,202.1h1.9c1.9,0,3.3-0.3,4.1-0.9
			c0.9-0.6,1.3-1.6,1.3-2.9c0-1.3-0.5-2.3-1.4-2.8c-0.9-0.6-2.3-0.8-4.2-0.8h-1.8V202.1z"/>
		<path d="M248.2,217.7l-6.7-21.9h-0.2c0.2,4.5,0.4,7.4,0.4,8.9v13h-5.3v-27.9h8.1l6.6,21.4h0.1l7-21.4h8.1v27.9h-5.5v-13.2
			c0-0.6,0-1.3,0-2.2c0-0.8,0.1-3,0.3-6.5h-0.2l-7.2,21.9H248.2z"/>
	</g>
</g>
<path class="st5" d="M319.4,114.4c-0.4,0.7-0.7,1.2-1,1.7c-0.2,0.5-0.5,0.6-1,0.3c-2-1.2-3.9-2.3-5.9-3.5
	c-6.1-3.6-12.3-7.2-18.4-10.8c-0.4-0.2-0.8-0.3-1.2-0.1c-1,0.5-2,1-3,1.5c-0.2,0.1-0.4,0.2-0.7,0.4c9.4,5.3,18.7,10.5,28,15.7
	c-0.5,0.7-1,1.4-1.5,2.2c3.6,0.4,7,0.8,10.4,1.2c0-0.1,0.1-0.1,0.1-0.2C323.3,120.1,321.4,117.3,319.4,114.4z M315.1,120.3
	c-0.1-0.1-0.1-0.2-0.2-0.2c-1.8-1-3.5-2.1-5.3-3.1c-0.2-0.1-0.5-0.1-0.7,0c-5.2,2.5-10.4,5-15.6,7.4c-0.5,0.2-0.5,0.5-0.3,0.9
	c0.6,1.2,1.2,2.5,1.8,3.8c0.4,0.8,0.4,0.8,1.1,0.4c6.2-2.9,12.3-5.9,18.5-8.8C314.7,120.5,314.9,120.4,315.1,120.3z M307.8,116.2
	c-0.1-0.1-0.2-0.2-0.2-0.2c-1.8-1-3.6-2-5.4-3c-0.2-0.1-0.5-0.1-0.8,0c-3.7,1.8-7.4,3.5-11.1,5.3c-0.5,0.2-0.5,0.5-0.3,0.9
	c0.6,1.2,1.2,2.5,1.8,3.8c0.3,0.6,0.6,0.6,1.1,0.4c4.7-2.3,9.5-4.5,14.2-6.8C307.3,116.4,307.5,116.3,307.8,116.2z M300.5,112
	c-0.1-0.1-0.2-0.2-0.3-0.3c-1.8-1-3.5-2-5.3-3c-0.2-0.1-0.5-0.1-0.7,0c-2.3,1.1-4.6,2.2-6.9,3.3c-0.4,0.2-0.5,0.4-0.3,0.8
	c0.6,1.3,1.3,2.6,1.9,3.9c0.2,0.5,0.5,0.5,0.9,0.3c3.3-1.6,6.7-3.2,10-4.8C300.1,112.3,300.3,112.2,300.5,112z M292.9,107.8
	c-0.1-0.1-0.2-0.2-0.2-0.2c-1.8-1-3.5-2-5.3-3c-0.2-0.1-0.5-0.1-0.8,0c-0.8,0.3-1.5,0.7-2.3,1.1c-0.5,0.2-0.5,0.4-0.3,0.9
	c0.6,1.2,1.2,2.5,1.8,3.8c0.1,0.2,0.2,0.4,0.3,0.7C288.4,109.9,290.6,108.9,292.9,107.8z"/>
<g>
	<path class="st5" d="M162.4,305.2c-1-1.2-2.8-1.3-4-0.3l-5.3,4.6c-1.2,1-1.3,2.8-0.3,4c1,1.2,2.8,1.3,4,0.3l2.5-2.2l2.7-2.4
		c1-0.9,1.2-2.3,0.7-3.4C162.7,305.5,162.5,305.3,162.4,305.2z"/>
	<path class="st5" d="M165,302.9c-0.4,0.6-0.8,1.2-1.3,1.7c0.6,0.8,0.8,1.8,0.7,2.7c1-1,1.8-2.1,2.5-3.2c3.9-6,3.5-13.1-0.9-18.1
		c-4.6-5.2-11.9-6.4-18.7-3.1c-0.8,0.4-1.6,0.8-2.4,1.3c0.9,0.2,1.6,0.6,2.3,1.3c0.4-0.2,0.7-0.4,1.1-0.6c5.8-2.8,12-1.8,15.9,2.5
		C167.2,290.9,169,296.7,165,302.9z"/>
	<path class="st5" d="M146.2,286.5c-0.1-0.1-0.1-0.1-0.2-0.2c-0.9-0.8-2.1-1-3.2-0.5c0,0,0,0,0,0c-0.2,0.1-0.4,0.2-0.6,0.4l-5.3,4.6
		c-1.2,1-1.3,2.8-0.3,4c1,1.2,2.8,1.3,4,0.3l5.3-4.6C147.1,289.5,147.3,287.7,146.2,286.5z"/>
	<path class="st5" d="M160.9,313.7c0.3-0.3,0.3-0.7,0-1c-0.3-0.3-0.7-0.3-1,0c-3,2.9-7.4,4.6-11.7,4.4c-2.9-0.1-5.5-1.1-7.4-2.7
		c0.1-0.4,0.1-1-0.3-1.3l-2.8-3.3c-0.5-0.6-1.4-0.7-2-0.2c-0.6,0.5-0.7,1.4-0.2,2l2.8,3.3c0,0,0,0,0,0c0.3,0.4,0.8,0.5,1.3,0.4
		c2.2,1.9,5.1,3,8.4,3.1C152.9,318.7,157.7,316.9,160.9,313.7z"/>
</g>
<g>
	<path class="st5" d="M148.5,123l-7.2-6l0,0c0.7,1.1,1.4,2.1,2,3.1l2.6,4.4l-1.3,0.8l-5.4-9.1l2.1-1.3l6.8,5.7l0,0l-1.7-8.8l2.1-1.3
		l5.4,9.1l-1.4,0.9l-2.7-4.5c-0.3-0.5-0.6-1-1-1.8c-0.4-0.7-0.7-1.2-0.7-1.3l0,0l1.8,9.2L148.5,123z"/>
	<path class="st5" d="M160.4,115.8l-0.9-0.8l0,0c-0.1,0.6-0.2,1.1-0.5,1.4c-0.2,0.4-0.6,0.7-1.2,1c-0.7,0.4-1.3,0.5-1.9,0.4
		c-0.6-0.1-1.1-0.5-1.5-1.2c-0.4-0.7-0.5-1.4-0.2-2.1s1-1.3,2-2l1.2-0.7l-0.2-0.4c-0.3-0.4-0.6-0.7-0.9-0.8c-0.3-0.1-0.7,0-1.1,0.2
		c-0.4,0.2-0.7,0.5-0.9,0.8c-0.3,0.3-0.5,0.6-0.7,0.9l-1.1-0.8c0.3-0.4,0.6-0.8,1-1.2c0.4-0.4,0.8-0.7,1.2-0.9
		c0.9-0.5,1.6-0.7,2.3-0.6c0.7,0.1,1.3,0.6,1.7,1.4l2.8,4.6L160.4,115.8z M157.7,116.1c0.5-0.3,0.9-0.7,1-1.2c0.1-0.5,0.1-1-0.3-1.5
		l-0.4-0.6l-0.9,0.6c-0.7,0.4-1.1,0.8-1.3,1.2c-0.2,0.4-0.2,0.8,0.1,1.2c0.2,0.3,0.4,0.5,0.7,0.5C157,116.4,157.3,116.3,157.7,116.1
		z"/>
	<path class="st5" d="M162.8,104.9c0.3-0.2,0.5-0.3,0.8-0.4l0.7,1.4c-0.2,0.1-0.5,0.2-0.7,0.3c-0.6,0.3-0.9,0.8-1.1,1.4
		c-0.1,0.6,0,1.2,0.3,1.8l2.1,3.6l-1.5,0.9l-4.1-6.9l1.1-0.7l0.9,1.1l0.1,0c0-0.5,0.1-1,0.3-1.5
		C162.1,105.5,162.4,105.2,162.8,104.9z"/>
	<path class="st5" d="M168.2,106.2l0.2-1.5l0.7-3.4l1.7-1l-1,4.6l5.3,2.2l-1.7,1l-4-1.7l-0.4,1.1l1.4,2.3l-1.4,0.9l-5.8-9.6l1.4-0.9
		l2.8,4.7L168.2,106.2L168.2,106.2z"/>
	<path class="st5" d="M179.3,104.7c-1.1,0.6-2.1,0.8-3.1,0.6c-1-0.3-1.8-0.9-2.4-2c-0.7-1.1-0.9-2.2-0.7-3.1c0.2-1,0.7-1.8,1.7-2.3
		c0.9-0.5,1.8-0.7,2.6-0.5c0.9,0.2,1.6,0.8,2.1,1.8l0.5,0.8l-4.6,2.7c0.4,0.7,0.9,1.1,1.5,1.2c0.6,0.2,1.1,0,1.8-0.3
		c0.4-0.2,0.8-0.5,1.1-0.8c0.3-0.3,0.6-0.6,0.9-1.1l0.7,1.2c-0.3,0.4-0.5,0.7-0.9,1C180.2,104.1,179.8,104.4,179.3,104.7z
		 M175.4,98.9c-0.5,0.3-0.7,0.6-0.8,1.1c-0.1,0.5,0,1,0.3,1.6l3.1-1.9c-0.3-0.6-0.7-0.9-1.2-1C176.4,98.5,175.9,98.6,175.4,98.9z"/>
	<path class="st5" d="M185.5,99.4c0.4-0.2,0.7-0.5,1-0.8l0.7,1.1c-0.1,0.2-0.3,0.3-0.5,0.5c-0.2,0.2-0.5,0.4-0.7,0.5
		c-1.4,0.8-2.5,0.5-3.4-0.9l-2.2-3.7l-0.9,0.6l-0.4-0.6l0.7-1.1l-0.4-1.7l0.9-0.5l0.9,1.5l2-1.2l0.7,1.1l-2,1.2l2.2,3.7
		c0.2,0.4,0.5,0.6,0.7,0.6C184.9,99.6,185.2,99.6,185.5,99.4z"/>
	<path class="st5" d="M183.3,90.4c-0.2-0.3-0.2-0.5-0.1-0.7c0.1-0.2,0.2-0.4,0.5-0.6c0.3-0.2,0.5-0.2,0.7-0.1
		c0.2,0.1,0.4,0.2,0.6,0.5c0.1,0.2,0.2,0.5,0.1,0.7c-0.1,0.2-0.2,0.4-0.5,0.6c-0.3,0.2-0.5,0.2-0.7,0.2
		C183.6,90.8,183.4,90.6,183.3,90.4z M190,98.1l-1.5,0.9l-4.1-6.9l1.5-0.9L190,98.1z"/>
	<path class="st5" d="M198.1,93.3l-1.5,0.9l-2.5-4.2c-0.3-0.5-0.7-0.9-1-1c-0.4-0.1-0.8-0.1-1.2,0.2c-0.6,0.4-1,0.8-1,1.4
		c-0.1,0.5,0.2,1.2,0.7,2.1l2,3.4l-1.5,0.9L188,90l1.1-0.7l0.7,0.8l0.1,0c0-0.5,0.2-0.9,0.4-1.3c0.3-0.4,0.6-0.7,1.1-1
		c1.6-1,3-0.6,4,1L198.1,93.3z"/>
	<path class="st5" d="M201.8,81.7l0.5,0.8l-1,0.9c0.2,0.1,0.4,0.2,0.6,0.4c0.2,0.2,0.4,0.4,0.5,0.6c0.4,0.7,0.5,1.4,0.3,2.1
		c-0.2,0.7-0.8,1.3-1.7,1.8c-0.2,0.1-0.4,0.2-0.6,0.3c-0.2,0.4-0.2,0.7-0.1,1c0.1,0.2,0.2,0.2,0.4,0.2c0.2,0,0.5-0.1,0.9-0.4
		l1.2-0.7c0.8-0.5,1.4-0.6,2-0.5c0.6,0.1,1.1,0.4,1.4,1c0.5,0.8,0.5,1.6,0.1,2.4c-0.4,0.8-1.2,1.6-2.4,2.3c-0.9,0.6-1.7,0.8-2.4,0.8
		c-0.7,0-1.2-0.4-1.6-1c-0.3-0.4-0.3-0.9-0.2-1.3c0.1-0.4,0.3-0.9,0.8-1.3c-0.2,0-0.5,0-0.7-0.1c-0.2-0.1-0.4-0.3-0.5-0.5
		c-0.2-0.3-0.2-0.5-0.2-0.8c0-0.3,0.1-0.6,0.3-0.9c-0.4,0.1-0.9,0-1.3-0.2c-0.4-0.2-0.8-0.6-1.1-1c-0.4-0.7-0.6-1.5-0.3-2.2
		c0.2-0.7,0.8-1.3,1.6-1.8c0.2-0.1,0.4-0.2,0.6-0.3c0.2-0.1,0.4-0.2,0.5-0.2L201.8,81.7z M198.4,86.8c0.3,0.4,0.6,0.7,0.9,0.8
		s0.7,0,1.2-0.2c0.8-0.5,1-1.2,0.5-2.1c-0.3-0.4-0.6-0.7-0.9-0.8c-0.4-0.1-0.7,0-1.2,0.2c-0.4,0.3-0.7,0.6-0.7,0.9
		C198,85.9,198.1,86.3,198.4,86.8z M201.2,92.9c0.2,0.3,0.5,0.5,0.9,0.5s0.8-0.2,1.3-0.5c0.8-0.5,1.3-0.9,1.6-1.4
		c0.3-0.5,0.3-0.9,0-1.3c-0.2-0.3-0.4-0.4-0.7-0.4c-0.3,0-0.7,0.2-1.3,0.5l-1.1,0.7c-0.4,0.3-0.7,0.5-0.8,0.9
		C200.9,92.2,201,92.5,201.2,92.9z"/>
</g>
<g>
	<path class="st5" d="M109,234.5c-0.8,0.5-1.6,0.6-2.4,0.4c-0.8-0.3-1.6-0.9-2.2-1.9c-0.7-1-1-1.9-1.1-2.8l1.4-0.9
		c0.1,0.5,0.2,1.1,0.4,1.6c0.2,0.5,0.4,1,0.7,1.4c0.4,0.6,0.8,0.9,1.2,1.1c0.4,0.1,0.8,0.1,1.1-0.2c0.3-0.2,0.5-0.5,0.6-0.9
		c0.1-0.4,0-1.1-0.2-2.1c-0.2-1-0.2-1.8,0-2.4c0.2-0.6,0.6-1.1,1.2-1.5c0.7-0.5,1.5-0.6,2.3-0.4c0.8,0.2,1.4,0.8,2,1.7
		c0.6,0.8,0.9,1.8,1.1,2.9l-1.5,0.3c-0.2-1-0.5-1.8-0.9-2.4c-0.3-0.5-0.6-0.8-1-0.9c-0.4-0.1-0.7-0.1-1,0.2
		c-0.2,0.2-0.4,0.3-0.5,0.5c-0.1,0.2-0.2,0.5-0.2,0.8c0,0.3,0.1,0.8,0.2,1.6c0.2,0.8,0.2,1.5,0.2,1.9c0,0.5-0.2,0.8-0.4,1.2
		C109.7,233.9,109.4,234.2,109,234.5z"/>
	<path class="st5" d="M110.7,242.3l0.7-0.8l0-0.1c-0.4,0-0.9-0.1-1.3-0.4c-0.4-0.2-0.8-0.6-1.1-1.1c-0.5-0.8-0.7-1.5-0.6-2.2
		c0.1-0.7,0.6-1.3,1.4-1.8l4.4-2.9l0.9,1.4l-4.1,2.7c-0.5,0.3-0.8,0.7-0.9,1.1c-0.1,0.4,0,0.8,0.3,1.2c0.4,0.6,0.9,0.9,1.4,1
		c0.5,0,1.2-0.2,2.1-0.8l3.3-2.2l0.9,1.4l-6.7,4.4L110.7,242.3z"/>
	<path class="st5" d="M114.8,248.9c-0.6-0.8-0.7-1.7-0.4-2.6l-0.1-0.1c-0.5,0.4-0.9,0.7-1,0.8l-2.7,1.8l-0.9-1.4l9.7-6.3l0.8,1.1
		c-0.1,0.1-0.4,0.4-0.8,0.8l0,0.1c1,0,1.7,0.4,2.3,1.3c0.5,0.8,0.7,1.7,0.4,2.5c-0.3,0.9-1,1.6-2.1,2.4s-2.1,1-3,1
		C116.1,250.2,115.4,249.8,114.8,248.9z M120.3,244.8c-0.4-0.6-0.8-0.9-1.3-0.9c-0.5,0-1.1,0.2-1.8,0.6l-0.2,0.1
		c-0.8,0.5-1.3,1-1.5,1.5c-0.2,0.5-0.1,1,0.3,1.6c0.3,0.5,0.8,0.7,1.3,0.7c0.6,0,1.2-0.2,2-0.7c0.8-0.5,1.2-1,1.4-1.5
		C120.7,245.9,120.7,245.3,120.3,244.8z"/>
	<path class="st5" d="M119.9,256.7c-0.6-0.8-0.7-1.7-0.4-2.6l-0.1-0.1c-0.5,0.4-0.9,0.7-1,0.8l-2.7,1.8l-0.9-1.4l9.7-6.3l0.8,1.1
		c-0.1,0.1-0.4,0.4-0.8,0.8l0,0.1c1,0,1.7,0.4,2.3,1.3c0.5,0.8,0.7,1.7,0.4,2.5c-0.3,0.9-1,1.6-2.1,2.4c-1.1,0.7-2.1,1-3,1
		C121.1,257.9,120.4,257.5,119.9,256.7z M125.4,252.5c-0.4-0.6-0.8-0.9-1.3-0.9c-0.5,0-1.1,0.2-1.8,0.6l-0.2,0.1
		c-0.8,0.5-1.3,1-1.5,1.5s-0.1,1,0.3,1.6c0.3,0.5,0.8,0.7,1.3,0.7c0.6,0,1.2-0.2,2-0.7c0.7-0.5,1.2-1,1.4-1.5
		C125.8,253.6,125.7,253,125.4,252.5z"/>
	<path class="st5" d="M130,264.6c-1.1,0.7-2.1,1-3.1,0.8c-1-0.2-1.8-0.7-2.4-1.7c-0.4-0.6-0.6-1.3-0.7-1.9c0-0.7,0.1-1.3,0.5-1.9
		c0.4-0.6,0.9-1.1,1.6-1.6c1.1-0.7,2.1-1,3.1-0.8c1,0.2,1.8,0.7,2.5,1.8c0.6,1,0.8,1.9,0.6,2.9C131.7,263.1,131.1,263.9,130,264.6z
		 M126.8,259.8c-1.5,1-1.9,2.1-1.2,3.2c0.7,1.1,1.9,1.2,3.4,0.2c1.5-1,1.9-2.1,1.2-3.2c-0.4-0.6-0.9-0.9-1.4-0.9
		C128.2,259,127.6,259.3,126.8,259.8z"/>
	<path class="st5" d="M136.8,267.4c0.2,0.3,0.3,0.5,0.4,0.7l-1.4,0.7c-0.1-0.2-0.2-0.5-0.3-0.7c-0.4-0.6-0.9-0.9-1.5-1
		c-0.6-0.1-1.2,0-1.8,0.4l-3.5,2.3l-0.9-1.4l6.7-4.4l0.7,1.1l-1.1,1l0,0.1c0.5,0,1,0,1.5,0.2C136.1,266.7,136.5,267,136.8,267.4z"/>
	<path class="st5" d="M133.9,275.6c0.2,0.3,0.5,0.7,0.8,0.9l-1.1,0.7c-0.2-0.1-0.4-0.3-0.6-0.5c-0.2-0.2-0.4-0.5-0.6-0.7
		c-0.9-1.3-0.6-2.5,0.8-3.4l3.6-2.4l-0.6-0.9l0.6-0.4l1.2,0.6l1.7-0.4l0.6,0.9l-1.5,1l1.2,1.9l-1.1,0.7l-1.2-1.9l-3.6,2.3
		c-0.3,0.2-0.5,0.5-0.6,0.8S133.7,275.3,133.9,275.6z"/>
</g>
<g>
	<path class="st5" d="M254.4,333.1L253,334l-5.6-9l5.1-3.2l0.8,1.2l-3.6,2.2l1.7,2.8l3.4-2.1l0.8,1.2l-3.4,2.1L254.4,333.1z"/>
	<path class="st5" d="M262.5,328.2c-1.1,0.7-2.1,0.9-3,0.6c-1-0.2-1.8-0.9-2.5-2c-0.7-1.1-1-2.1-0.8-3.1c0.2-1,0.7-1.8,1.7-2.4
		c0.9-0.6,1.8-0.7,2.6-0.5c0.9,0.2,1.6,0.8,2.2,1.8l0.5,0.8l-4.5,2.8c0.4,0.6,0.9,1,1.5,1.2c0.6,0.1,1.1,0,1.7-0.4
		c0.4-0.3,0.8-0.5,1-0.8c0.3-0.3,0.6-0.6,0.9-1.1l0.7,1.2c-0.2,0.4-0.5,0.7-0.8,1C263.4,327.6,263,327.9,262.5,328.2z M258.6,322.4
		c-0.5,0.3-0.7,0.7-0.8,1.1s0,1,0.3,1.6l3.1-1.9c-0.4-0.6-0.8-0.9-1.2-1C259.5,322.1,259,322.1,258.6,322.4z"/>
	<path class="st5" d="M269.8,323.7c-1.1,0.7-2.1,0.9-3,0.6c-1-0.2-1.8-0.9-2.5-2c-0.7-1.1-1-2.1-0.8-3.1c0.2-1,0.7-1.8,1.7-2.4
		c0.9-0.6,1.8-0.7,2.6-0.5s1.6,0.8,2.2,1.8l0.5,0.8l-4.5,2.8c0.4,0.6,0.9,1,1.5,1.2c0.6,0.1,1.1,0,1.7-0.4c0.4-0.3,0.7-0.5,1-0.8
		c0.3-0.3,0.6-0.6,0.9-1.1l0.7,1.2c-0.2,0.4-0.5,0.7-0.8,1C270.6,323.1,270.2,323.4,269.8,323.7z M265.8,317.9
		c-0.5,0.3-0.7,0.7-0.8,1.1c-0.1,0.5,0,1,0.3,1.6l3.1-1.9c-0.4-0.6-0.8-0.9-1.2-1C266.7,317.5,266.3,317.6,265.8,317.9z"/>
	<path class="st5" d="M276.3,319.6c-0.8,0.5-1.7,0.6-2.6,0.3c-0.9-0.3-1.6-1-2.3-2.1c-0.7-1.1-1-2.1-0.9-3c0.1-0.9,0.6-1.6,1.4-2.2
		c0.9-0.6,1.8-0.6,2.6-0.3l0.1,0c-0.4-0.4-0.6-0.8-0.8-1.1l-1.5-2.5l1.4-0.9l6,9.5l-1.1,0.7l-0.8-0.7l-0.1,0
		C277.7,318.3,277.2,319,276.3,319.6z M276,318.2c0.6-0.4,0.9-0.8,1-1.3c0.1-0.5-0.1-1.1-0.6-1.9l-0.1-0.2c-0.5-0.9-1.1-1.4-1.6-1.6
		c-0.5-0.2-1-0.1-1.6,0.3c-0.5,0.3-0.8,0.8-0.8,1.3c0,0.6,0.2,1.3,0.7,2c0.5,0.8,1,1.2,1.5,1.5S275.5,318.5,276,318.2z"/>
	<path class="st5" d="M280.9,307c0.8-0.5,1.7-0.6,2.5-0.3c0.9,0.3,1.6,1,2.3,2.1c0.7,1.1,1,2.1,0.9,3c-0.1,0.9-0.6,1.6-1.4,2.2
		c-0.9,0.5-1.7,0.6-2.6,0.3l-0.1,0.1l0.2,1l-1.1,0.7l-6-9.5l1.4-0.9l1.4,2.3c0.1,0.2,0.3,0.4,0.4,0.8c0.2,0.3,0.3,0.6,0.4,0.7l0.1,0
		C279.6,308.3,280,307.5,280.9,307z M281.3,308.4c-0.6,0.4-0.9,0.8-0.9,1.3c0,0.5,0.2,1.2,0.7,2l0.1,0.1c0.5,0.8,1,1.3,1.5,1.5
		s1,0.1,1.6-0.2c0.5-0.3,0.8-0.8,0.8-1.3c0-0.6-0.2-1.2-0.7-2C283.4,308.1,282.3,307.7,281.3,308.4z"/>
	<path class="st5" d="M293.8,308.5l-0.9-0.8l0,0c-0.1,0.6-0.2,1.1-0.5,1.5s-0.6,0.7-1.1,1c-0.7,0.4-1.3,0.6-1.9,0.4
		s-1.1-0.5-1.5-1.2c-0.4-0.7-0.5-1.4-0.2-2.1c0.3-0.7,1-1.4,2-2.1l1.1-0.8l-0.2-0.4c-0.3-0.4-0.6-0.7-0.9-0.8
		c-0.3-0.1-0.7,0-1.1,0.3c-0.3,0.2-0.6,0.5-0.9,0.8c-0.3,0.3-0.5,0.6-0.7,0.9l-1.1-0.7c0.2-0.4,0.6-0.8,0.9-1.2s0.8-0.7,1.1-0.9
		c0.9-0.5,1.6-0.8,2.3-0.7c0.7,0.1,1.3,0.6,1.8,1.4l2.8,4.6L293.8,308.5z M291.1,308.8c0.5-0.3,0.9-0.7,1-1.2c0.1-0.5,0-1-0.3-1.5
		l-0.4-0.6l-0.8,0.6c-0.7,0.4-1.1,0.9-1.3,1.3c-0.2,0.4-0.1,0.8,0.1,1.2c0.2,0.3,0.4,0.5,0.7,0.5
		C290.4,309.2,290.7,309.1,291.1,308.8z"/>
	<path class="st5" d="M299.7,305c-1,0.6-2,0.8-2.9,0.6c-0.9-0.3-1.7-1-2.4-2.1c-0.7-1.1-1-2.2-0.8-3.2c0.2-1,0.8-1.8,1.8-2.4
		c0.7-0.4,1.4-0.7,2.2-0.8l0.3,1.4c-0.8,0.1-1.3,0.3-1.7,0.6c-1.2,0.7-1.3,1.9-0.3,3.4c0.5,0.8,1,1.2,1.5,1.4s1.1,0.1,1.6-0.2
		c0.6-0.4,1.1-0.9,1.5-1.6l0.8,1.3c-0.2,0.3-0.4,0.6-0.6,0.8S300.1,304.7,299.7,305z"/>
	<path class="st5" d="M302.2,298.3l0.2-1.5l0.7-3.5l1.7-1l-0.9,4.6l5.3,2.1l-1.7,1.1l-4-1.6l-0.4,1.1l1.5,2.3l-1.4,0.9l-6-9.5
		l1.4-0.9l2.9,4.7L302.2,298.3L302.2,298.3z"/>
</g>
<g>
	<path class="st5" d="M318.7,142.6c-0.9,0.4-1.7,0.4-2.4,0c-0.8-0.4-1.4-1.2-1.9-2.2c-0.5-1.1-0.7-2.1-0.7-2.9l1.5-0.7
		c0,0.5,0,1.1,0.1,1.6c0.1,0.5,0.2,1,0.4,1.5c0.3,0.6,0.6,1,1,1.2c0.4,0.2,0.8,0.2,1.2,0c0.4-0.2,0.6-0.4,0.7-0.8
		c0.1-0.4,0.2-1.1,0.1-2.1c0-1,0.1-1.8,0.4-2.4c0.3-0.6,0.8-1,1.4-1.3c0.8-0.4,1.6-0.3,2.3,0c0.7,0.4,1.3,1,1.7,2
		c0.4,0.9,0.6,1.9,0.6,3l-1.5,0.1c0-1-0.2-1.9-0.5-2.5c-0.2-0.5-0.5-0.8-0.8-1c-0.3-0.2-0.7-0.2-1.1,0c-0.3,0.1-0.4,0.3-0.6,0.4
		s-0.2,0.4-0.3,0.7s-0.1,0.8-0.1,1.6c0,0.8,0,1.5-0.1,1.9c-0.1,0.4-0.3,0.8-0.5,1.1C319.4,142.2,319.1,142.4,318.7,142.6z"/>
	<path class="st5" d="M318.8,150.1l0.9-0.8l0-0.1c-0.6-0.2-1.1-0.4-1.4-0.7c-0.3-0.3-0.6-0.7-0.8-1.3c-0.3-0.7-0.4-1.4-0.2-1.9
		c0.2-0.6,0.7-1,1.4-1.3c0.8-0.3,1.4-0.3,2.1,0.1c0.6,0.4,1.2,1.2,1.8,2.3l0.6,1.2l0.4-0.2c0.5-0.2,0.8-0.5,0.9-0.8
		c0.1-0.3,0.1-0.7-0.1-1.2c-0.2-0.4-0.4-0.7-0.6-1c-0.3-0.3-0.5-0.6-0.8-0.8l0.9-1c0.4,0.3,0.7,0.7,1,1.1c0.3,0.4,0.6,0.8,0.8,1.3
		c0.4,0.9,0.5,1.7,0.3,2.4c-0.2,0.7-0.7,1.2-1.6,1.6l-4.9,2.2L318.8,150.1z M318.8,147.3c0.2,0.6,0.6,0.9,1.1,1.2
		c0.5,0.2,1,0.2,1.6-0.1l0.6-0.3l-0.5-0.9c-0.3-0.7-0.7-1.2-1.1-1.4c-0.4-0.2-0.8-0.3-1.2-0.1c-0.3,0.1-0.5,0.4-0.6,0.6
		C318.6,146.6,318.7,146.9,318.8,147.3z"/>
	<path class="st5" d="M320.9,154.9l-0.7-1.6l10.3-4.5l0.7,1.6L320.9,154.9z"/>
	<path class="st5" d="M323.2,160.4c-0.5-1.1-0.6-2.2-0.2-3.1c0.4-0.9,1.2-1.7,2.3-2.2c1.2-0.5,2.3-0.6,3.2-0.3c0.9,0.3,1.6,1,2.1,2
		c0.4,1,0.5,1.9,0.1,2.7c-0.3,0.8-1,1.5-2,1.9l-0.8,0.4l-2.1-4.9c-0.7,0.3-1.2,0.8-1.4,1.3c-0.2,0.5-0.2,1.1,0.1,1.8
		c0.2,0.4,0.4,0.8,0.7,1.2c0.2,0.3,0.6,0.7,0.9,1l-1.3,0.6c-0.3-0.3-0.6-0.6-0.9-1C323.6,161.3,323.4,160.9,323.2,160.4z
		 M329.5,157.3c-0.2-0.5-0.5-0.8-1-1c-0.4-0.2-1-0.1-1.6,0.1l1.5,3.3c0.6-0.3,1-0.6,1.2-1C329.7,158.2,329.7,157.8,329.5,157.3z"/>
	<path class="st5" d="M329.6,168.9c-0.7,0.3-1.4,0.3-2-0.1c-0.6-0.4-1.1-1-1.6-2c-0.4-1-0.6-1.8-0.6-2.5l1.3-0.6
		c0,1,0.1,1.9,0.5,2.7c0.4,1,0.9,1.3,1.5,1.1c0.2-0.1,0.3-0.2,0.4-0.4c0.1-0.2,0.1-0.4,0.2-0.7c0-0.3,0-0.7,0-1.2c0-1,0-1.7,0.2-2.1
		c0.2-0.4,0.6-0.8,1.1-1c0.6-0.3,1.2-0.2,1.8,0.1c0.6,0.4,1,1,1.4,1.8c0.4,0.9,0.6,1.7,0.6,2.7l-1.4,0c0-0.9-0.2-1.7-0.4-2.2
		c-0.4-0.8-0.8-1.1-1.2-0.9c-0.2,0.1-0.4,0.3-0.4,0.6c-0.1,0.3-0.1,0.8,0,1.7c0,0.7,0,1.2-0.1,1.6c-0.1,0.4-0.2,0.7-0.4,0.9
		C330.2,168.6,330,168.8,329.6,168.9z"/>
</g>
<g>
	<path class="st5" d="M309.2,285.4c2.1-0.6,3.1-2.1,3.6-4.1c0-0.2,0-0.3-0.2-0.4c-1.4-0.9-2.5-2-3.3-3.4c-1.5-2.8-1.1-6.1,1.2-8.5
		c0.6-0.6,1.2-1.1,1.8-1.7c0,0,0.1,0,0.1,0.1c0,0.1,0,0.1,0,0.2c-0.9,2.3-1,4.7-0.1,7.1c0.7,1.9,1.9,3.4,3.4,4.7
		c1.9,1.6,4,2.6,6.3,3.2c0,0,0.1,0,0.1,0c0,0,0,0.1,0,0.1c-0.7,0.1-1.4,0.2-2.1,0.2c-0.7,0-1.5-0.1-2.2-0.1c-0.1,0-0.3,0-0.4,0.1
		C314.9,284.7,312.2,285.5,309.2,285.4z"/>
	<path class="st5" d="M336.3,282.6c-1-1-1.5-2.2-1.8-3.5c0-0.2,0.1-0.3,0.2-0.3c1-0.6,2-1.4,2.7-2.3c2.3-2.7,2.9-5.8,1.4-9.1
		c-1-2.3-2.9-4-5.1-5.1c-4-2-8.2-2.2-12.4-0.9c-2.6,0.8-4.8,2.2-6.3,4.4c-2,2.8-2.2,5.8-0.7,8.8c1.1,2.2,2.9,3.7,5.1,4.8
		c3,1.5,6.1,1.9,9.4,1.5c0.1,0,0.3,0,0.4,0.1c2.8,2.2,5.9,3.1,9.5,3c-0.1,0-0.2-0.1-0.3-0.1C337.7,283.6,336.9,283.2,336.3,282.6z"
		/>
</g>
<g>
	<defs>
		<path id="SVGID_3_" d="M306,0c169,0,306,137,306,306c0,169-137,306-306,306C137,612,0,475,0,306C0,137,137,0,306,0L306,0z"/>
	</defs>
	<clipPath id="SVGID_4_">
		<use xlink:href="#SVGID_3_"  style="overflow:visible;"/>
	</clipPath>
	<g class="st6">
		<path class="st7" d="M341.4,571.2L226.1,706.3c0,0,132.1,18.6,233.4-92.3c0-1.3,31.8-62.5,31.8-62.5l-147.5,15.1L341.4,571.2z"/>
		<g>
			<g>
				<g>
					<rect x="407.9" y="355.6" class="st8" width="81.3" height="204.2"/>
					<rect x="448.5" y="355.6" class="st9" width="40.6" height="204.2"/>
				</g>
				<g>
					<g>
						<rect x="414.2" y="365.4" class="st10" width="4.3" height="9.1"/>
						<rect x="422.2" y="365.4" class="st10" width="4.3" height="9.1"/>
						<rect x="430.3" y="365.4" class="st10" width="4.3" height="9.1"/>
						<rect x="438.3" y="365.4" class="st10" width="4.3" height="9.1"/>
						<rect x="446.3" y="365.4" class="st10" width="4.3" height="9.1"/>
						<rect x="454.4" y="365.4" class="st10" width="4.3" height="9.1"/>
						<rect x="462.4" y="365.4" class="st10" width="4.3" height="9.1"/>
						<rect x="470.4" y="365.4" class="st10" width="4.3" height="9.1"/>
						<rect x="478.5" y="365.4" class="st10" width="4.3" height="9.1"/>
					</g>
					<g>
						<rect x="414.2" y="381.4" class="st10" width="4.3" height="9.1"/>
						<rect x="422.2" y="381.4" class="st10" width="4.3" height="9.1"/>
						<rect x="430.3" y="381.4" class="st10" width="4.3" height="9.1"/>
						<rect x="438.3" y="381.4" class="st10" width="4.3" height="9.1"/>
						<rect x="446.3" y="381.4" class="st10" width="4.3" height="9.1"/>
						<rect x="454.4" y="381.4" class="st10" width="4.3" height="9.1"/>
						<rect x="462.4" y="381.4" class="st10" width="4.3" height="9.1"/>
						<rect x="470.4" y="381.4" class="st10" width="4.3" height="9.1"/>
						<rect x="478.5" y="381.4" class="st10" width="4.3" height="9.1"/>
					</g>
					<g>
						<rect x="414.2" y="397.3" class="st10" width="4.3" height="9.1"/>
						<rect x="422.2" y="397.3" class="st10" width="4.3" height="9.1"/>
						<rect x="430.3" y="397.3" class="st10" width="4.3" height="9.1"/>
						<rect x="438.3" y="397.3" class="st10" width="4.3" height="9.1"/>
						<rect x="446.3" y="397.3" class="st10" width="4.3" height="9.1"/>
						<rect x="454.4" y="397.3" class="st10" width="4.3" height="9.1"/>
						<rect x="462.4" y="397.3" class="st10" width="4.3" height="9.1"/>
						<rect x="470.4" y="397.3" class="st10" width="4.3" height="9.1"/>
						<rect x="478.5" y="397.3" class="st10" width="4.3" height="9.1"/>
					</g>
					<g>
						<rect x="414.2" y="413.3" class="st10" width="4.3" height="9.1"/>
						<rect x="422.2" y="413.3" class="st10" width="4.3" height="9.1"/>
						<rect x="430.3" y="413.3" class="st10" width="4.3" height="9.1"/>
						<rect x="438.3" y="413.3" class="st10" width="4.3" height="9.1"/>
						<rect x="446.3" y="413.3" class="st10" width="4.3" height="9.1"/>
						<rect x="454.4" y="413.3" class="st10" width="4.3" height="9.1"/>
						<rect x="462.4" y="413.3" class="st10" width="4.3" height="9.1"/>
						<rect x="470.4" y="413.3" class="st10" width="4.3" height="9.1"/>
						<rect x="478.5" y="413.3" class="st10" width="4.3" height="9.1"/>
					</g>
					<g>
						<rect x="414.2" y="429.2" class="st10" width="4.3" height="9.1"/>
						<rect x="422.2" y="429.2" class="st10" width="4.3" height="9.1"/>
						<rect x="430.3" y="429.2" class="st10" width="4.3" height="9.1"/>
						<rect x="438.3" y="429.2" class="st10" width="4.3" height="9.1"/>
						<rect x="446.3" y="429.2" class="st10" width="4.3" height="9.1"/>
						<rect x="454.4" y="429.2" class="st10" width="4.3" height="9.1"/>
						<rect x="462.4" y="429.2" class="st10" width="4.3" height="9.1"/>
						<rect x="470.4" y="429.2" class="st10" width="4.3" height="9.1"/>
						<rect x="478.5" y="429.2" class="st10" width="4.3" height="9.1"/>
					</g>
					<g>
						<rect x="414.2" y="445.2" class="st10" width="4.3" height="9.1"/>
						<rect x="422.2" y="445.2" class="st10" width="4.3" height="9.1"/>
						<rect x="430.3" y="445.2" class="st10" width="4.3" height="9.1"/>
						<rect x="438.3" y="445.2" class="st10" width="4.3" height="9.1"/>
						<rect x="446.3" y="445.2" class="st10" width="4.3" height="9.1"/>
						<rect x="454.4" y="445.2" class="st10" width="4.3" height="9.1"/>
						<rect x="462.4" y="445.2" class="st10" width="4.3" height="9.1"/>
						<rect x="470.4" y="445.2" class="st10" width="4.3" height="9.1"/>
						<rect x="478.5" y="445.2" class="st10" width="4.3" height="9.1"/>
					</g>
					<g>
						<rect x="414.2" y="461.2" class="st10" width="4.3" height="9.1"/>
						<rect x="422.2" y="461.2" class="st10" width="4.3" height="9.1"/>
						<rect x="430.3" y="461.2" class="st10" width="4.3" height="9.1"/>
						<rect x="438.3" y="461.2" class="st10" width="4.3" height="9.1"/>
						<rect x="446.3" y="461.2" class="st10" width="4.3" height="9.1"/>
						<rect x="454.4" y="461.2" class="st10" width="4.3" height="9.1"/>
						<rect x="462.4" y="461.2" class="st10" width="4.3" height="9.1"/>
						<rect x="470.4" y="461.2" class="st10" width="4.3" height="9.1"/>
						<rect x="478.5" y="461.2" class="st10" width="4.3" height="9.1"/>
					</g>
					<g>
						<rect x="414.2" y="477.1" class="st10" width="4.3" height="9.1"/>
						<rect x="422.2" y="477.1" class="st10" width="4.3" height="9.1"/>
						<rect x="430.3" y="477.1" class="st10" width="4.3" height="9.1"/>
						<rect x="438.3" y="477.1" class="st10" width="4.3" height="9.1"/>
						<rect x="446.3" y="477.1" class="st10" width="4.3" height="9.1"/>
						<rect x="454.4" y="477.1" class="st10" width="4.3" height="9.1"/>
						<rect x="462.4" y="477.1" class="st10" width="4.3" height="9.1"/>
						<rect x="470.4" y="477.1" class="st10" width="4.3" height="9.1"/>
						<rect x="478.5" y="477.1" class="st10" width="4.3" height="9.1"/>
					</g>
					<g>
						<rect x="414.2" y="493.1" class="st10" width="4.3" height="9.1"/>
						<rect x="422.2" y="493.1" class="st10" width="4.3" height="9.1"/>
						<rect x="430.3" y="493.1" class="st10" width="4.3" height="9.1"/>
						<rect x="438.3" y="493.1" class="st10" width="4.3" height="9.1"/>
						<rect x="446.3" y="493.1" class="st10" width="4.3" height="9.1"/>
						<rect x="454.4" y="493.1" class="st10" width="4.3" height="9.1"/>
						<rect x="462.4" y="493.1" class="st10" width="4.3" height="9.1"/>
						<rect x="470.4" y="493.1" class="st10" width="4.3" height="9.1"/>
						<rect x="478.5" y="493.1" class="st10" width="4.3" height="9.1"/>
					</g>
					<g>
						<rect x="414.2" y="509" class="st10" width="4.3" height="9.1"/>
						<rect x="422.2" y="509" class="st10" width="4.3" height="9.1"/>
						<rect x="430.3" y="509" class="st10" width="4.3" height="9.1"/>
						<rect x="438.3" y="509" class="st10" width="4.3" height="9.1"/>
						<rect x="446.3" y="509" class="st10" width="4.3" height="9.1"/>
						<rect x="454.4" y="509" class="st10" width="4.3" height="9.1"/>
						<rect x="462.4" y="509" class="st10" width="4.3" height="9.1"/>
						<rect x="470.4" y="509" class="st10" width="4.3" height="9.1"/>
						<rect x="478.5" y="509" class="st10" width="4.3" height="9.1"/>
					</g>
					<g>
						<rect x="414.2" y="525" class="st10" width="4.3" height="9.1"/>
						<rect x="422.2" y="525" class="st10" width="4.3" height="9.1"/>
						<rect x="430.3" y="525" class="st10" width="4.3" height="9.1"/>
						<rect x="438.3" y="525" class="st10" width="4.3" height="9.1"/>
						<rect x="446.3" y="525" class="st10" width="4.3" height="9.1"/>
						<rect x="454.4" y="525" class="st10" width="4.3" height="9.1"/>
						<rect x="462.4" y="525" class="st10" width="4.3" height="9.1"/>
						<rect x="470.4" y="525" class="st10" width="4.3" height="9.1"/>
						<rect x="478.5" y="525" class="st10" width="4.3" height="9.1"/>
					</g>
					<g>
						<rect x="414.2" y="540.9" class="st10" width="4.3" height="9.1"/>
						<rect x="422.2" y="540.9" class="st10" width="4.3" height="9.1"/>
						<rect x="430.3" y="540.9" class="st10" width="4.3" height="9.1"/>
						<rect x="438.3" y="540.9" class="st10" width="4.3" height="9.1"/>
						<rect x="446.3" y="540.9" class="st10" width="4.3" height="9.1"/>
						<rect x="454.4" y="540.9" class="st10" width="4.3" height="9.1"/>
						<rect x="462.4" y="540.9" class="st10" width="4.3" height="9.1"/>
						<rect x="470.4" y="540.9" class="st10" width="4.3" height="9.1"/>
						<rect x="478.5" y="540.9" class="st10" width="4.3" height="9.1"/>
					</g>
				</g>
				<g>
					<rect x="405.4" y="352.6" class="st11" width="86.1" height="5.4"/>
					<rect x="405.4" y="555.8" class="st11" width="86.1" height="5.4"/>
				</g>
			</g>
			<g>
				<g>
					<rect x="345.9" y="383.8" class="st12" width="73.1" height="183.8"/>
					<rect x="382.3" y="383.8" class="st13" width="36.7" height="183.8"/>
				</g>
				<g>
					<g>
						<rect x="351.6" y="392.7" class="st10" width="3.9" height="7"/>
						<rect x="358.9" y="392.7" class="st10" width="3.9" height="7"/>
						<rect x="366.1" y="392.7" class="st10" width="3.9" height="7"/>
						<rect x="373.3" y="392.7" class="st10" width="3.9" height="7"/>
						<rect x="380.5" y="392.7" class="st10" width="3.9" height="7"/>
						<rect x="387.8" y="392.7" class="st10" width="3.9" height="7"/>
						<rect x="395" y="392.7" class="st10" width="3.9" height="7"/>
						<rect x="402.2" y="392.7" class="st10" width="3.9" height="7"/>
						<rect x="409.4" y="392.7" class="st10" width="3.9" height="7"/>
					</g>
					<g>
						<rect x="351.6" y="405" class="st10" width="3.9" height="7"/>
						<rect x="358.9" y="405" class="st10" width="3.9" height="7"/>
						<rect x="366.1" y="405" class="st10" width="3.9" height="7"/>
						<rect x="373.3" y="405" class="st10" width="3.9" height="7"/>
						<rect x="380.5" y="405" class="st10" width="3.9" height="7"/>
						<rect x="387.8" y="405" class="st10" width="3.9" height="7"/>
						<rect x="395" y="405" class="st10" width="3.9" height="7"/>
						<rect x="402.2" y="405" class="st10" width="3.9" height="7"/>
						<rect x="409.4" y="405" class="st10" width="3.9" height="7"/>
					</g>
					<g>
						<rect x="351.6" y="417.2" class="st10" width="3.9" height="7"/>
						<rect x="358.9" y="417.2" class="st10" width="3.9" height="7"/>
						<rect x="366.1" y="417.2" class="st10" width="3.9" height="7"/>
						<rect x="373.3" y="417.2" class="st10" width="3.9" height="7"/>
						<rect x="380.5" y="417.2" class="st10" width="3.9" height="7"/>
						<rect x="387.8" y="417.2" class="st10" width="3.9" height="7"/>
						<rect x="395" y="417.2" class="st10" width="3.9" height="7"/>
						<rect x="402.2" y="417.2" class="st10" width="3.9" height="7"/>
						<rect x="409.4" y="417.2" class="st10" width="3.9" height="7"/>
					</g>
					<g>
						<rect x="351.6" y="429.4" class="st10" width="3.9" height="7"/>
						<rect x="358.9" y="429.4" class="st10" width="3.9" height="7"/>
						<rect x="366.1" y="429.4" class="st10" width="3.9" height="7"/>
						<rect x="373.3" y="429.4" class="st10" width="3.9" height="7"/>
						<rect x="380.5" y="429.4" class="st10" width="3.9" height="7"/>
						<rect x="387.8" y="429.4" class="st10" width="3.9" height="7"/>
						<rect x="395" y="429.4" class="st10" width="3.9" height="7"/>
						<rect x="402.2" y="429.4" class="st10" width="3.9" height="7"/>
						<rect x="409.4" y="429.4" class="st10" width="3.9" height="7"/>
					</g>
					<g>
						<rect x="351.6" y="441.6" class="st10" width="3.9" height="7"/>
						<rect x="358.9" y="441.6" class="st10" width="3.9" height="7"/>
						<rect x="366.1" y="441.6" class="st10" width="3.9" height="7"/>
						<rect x="373.3" y="441.6" class="st10" width="3.9" height="7"/>
						<rect x="380.5" y="441.6" class="st10" width="3.9" height="7"/>
						<rect x="387.8" y="441.6" class="st10" width="3.9" height="7"/>
						<rect x="395" y="441.6" class="st10" width="3.9" height="7"/>
						<rect x="402.2" y="441.6" class="st10" width="3.9" height="7"/>
						<rect x="409.4" y="441.6" class="st10" width="3.9" height="7"/>
					</g>
					<g>
						<rect x="351.6" y="453.8" class="st10" width="3.9" height="7"/>
						<rect x="358.9" y="453.8" class="st10" width="3.9" height="7"/>
						<rect x="366.1" y="453.8" class="st10" width="3.9" height="7"/>
						<rect x="373.3" y="453.8" class="st10" width="3.9" height="7"/>
						<rect x="380.5" y="453.8" class="st10" width="3.9" height="7"/>
						<rect x="387.8" y="453.8" class="st10" width="3.9" height="7"/>
						<rect x="395" y="453.8" class="st10" width="3.9" height="7"/>
						<rect x="402.2" y="453.8" class="st10" width="3.9" height="7"/>
						<rect x="409.4" y="453.8" class="st10" width="3.9" height="7"/>
					</g>
					<g>
						<rect x="351.6" y="466.1" class="st10" width="3.9" height="7"/>
						<rect x="358.9" y="466.1" class="st10" width="3.9" height="7"/>
						<rect x="366.1" y="466.1" class="st10" width="3.9" height="7"/>
						<rect x="373.3" y="466.1" class="st10" width="3.9" height="7"/>
						<rect x="380.5" y="466.1" class="st10" width="3.9" height="7"/>
						<rect x="387.8" y="466.1" class="st10" width="3.9" height="7"/>
						<rect x="395" y="466.1" class="st10" width="3.9" height="7"/>
						<rect x="402.2" y="466.1" class="st10" width="3.9" height="7"/>
						<rect x="409.4" y="466.1" class="st10" width="3.9" height="7"/>
					</g>
					<g>
						<rect x="351.6" y="478.3" class="st10" width="3.9" height="7"/>
						<rect x="358.9" y="478.3" class="st10" width="3.9" height="7"/>
						<rect x="366.1" y="478.3" class="st10" width="3.9" height="7"/>
						<rect x="373.3" y="478.3" class="st10" width="3.9" height="7"/>
						<rect x="380.5" y="478.3" class="st10" width="3.9" height="7"/>
						<rect x="387.8" y="478.3" class="st10" width="3.9" height="7"/>
						<rect x="395" y="478.3" class="st10" width="3.9" height="7"/>
						<rect x="402.2" y="478.3" class="st10" width="3.9" height="7"/>
						<rect x="409.4" y="478.3" class="st10" width="3.9" height="7"/>
					</g>
					<g>
						<rect x="351.6" y="490.5" class="st10" width="3.9" height="7"/>
						<rect x="358.9" y="490.5" class="st10" width="3.9" height="7"/>
						<rect x="366.1" y="490.5" class="st10" width="3.9" height="7"/>
						<rect x="373.3" y="490.5" class="st10" width="3.9" height="7"/>
						<rect x="380.5" y="490.5" class="st10" width="3.9" height="7"/>
						<rect x="387.8" y="490.5" class="st10" width="3.9" height="7"/>
						<rect x="395" y="490.5" class="st10" width="3.9" height="7"/>
						<rect x="402.2" y="490.5" class="st10" width="3.9" height="7"/>
						<rect x="409.4" y="490.5" class="st10" width="3.9" height="7"/>
					</g>
					<g>
						<rect x="351.6" y="502.7" class="st10" width="3.9" height="7"/>
						<rect x="358.9" y="502.7" class="st10" width="3.9" height="7"/>
						<rect x="366.1" y="502.7" class="st10" width="3.9" height="7"/>
						<rect x="373.3" y="502.7" class="st10" width="3.9" height="7"/>
						<rect x="380.5" y="502.7" class="st10" width="3.9" height="7"/>
						<rect x="387.8" y="502.7" class="st10" width="3.9" height="7"/>
						<rect x="395" y="502.7" class="st10" width="3.9" height="7"/>
						<rect x="402.2" y="502.7" class="st10" width="3.9" height="7"/>
						<rect x="409.4" y="502.7" class="st10" width="3.9" height="7"/>
					</g>
					<g>
						<rect x="351.6" y="515" class="st10" width="3.9" height="7"/>
						<rect x="358.9" y="515" class="st10" width="3.9" height="7"/>
						<rect x="366.1" y="515" class="st10" width="3.9" height="7"/>
						<rect x="373.3" y="515" class="st10" width="3.9" height="7"/>
						<rect x="380.5" y="515" class="st10" width="3.9" height="7"/>
						<rect x="387.8" y="515" class="st10" width="3.9" height="7"/>
						<rect x="395" y="515" class="st10" width="3.9" height="7"/>
						<rect x="402.2" y="515" class="st10" width="3.9" height="7"/>
						<rect x="409.4" y="515" class="st10" width="3.9" height="7"/>
					</g>
					<g>
						<rect x="351.6" y="527.2" class="st10" width="3.9" height="7"/>
						<rect x="358.9" y="527.2" class="st10" width="3.9" height="7"/>
						<rect x="366.1" y="527.2" class="st10" width="3.9" height="7"/>
						<rect x="373.3" y="527.2" class="st10" width="3.9" height="7"/>
						<rect x="380.5" y="527.2" class="st10" width="3.9" height="7"/>
						<rect x="387.8" y="527.2" class="st10" width="3.9" height="7"/>
						<rect x="395" y="527.2" class="st10" width="3.9" height="7"/>
						<rect x="402.2" y="527.2" class="st10" width="3.9" height="7"/>
						<rect x="409.4" y="527.2" class="st10" width="3.9" height="7"/>
					</g>
					<g>
						<rect x="351.6" y="539.4" class="st10" width="3.9" height="7"/>
						<rect x="358.9" y="539.4" class="st10" width="3.9" height="7"/>
						<rect x="366.1" y="539.4" class="st10" width="3.9" height="7"/>
						<rect x="373.3" y="539.4" class="st10" width="3.9" height="7"/>
						<rect x="380.5" y="539.4" class="st10" width="3.9" height="7"/>
						<rect x="387.8" y="539.4" class="st10" width="3.9" height="7"/>
						<rect x="395" y="539.4" class="st10" width="3.9" height="7"/>
						<rect x="402.2" y="539.4" class="st10" width="3.9" height="7"/>
						<rect x="409.4" y="539.4" class="st10" width="3.9" height="7"/>
					</g>
					<g>
						<rect x="351.6" y="551.6" class="st10" width="3.9" height="7"/>
						<rect x="358.9" y="551.6" class="st10" width="3.9" height="7"/>
						<rect x="366.1" y="551.6" class="st10" width="3.9" height="7"/>
						<rect x="373.3" y="551.6" class="st10" width="3.9" height="7"/>
						<rect x="380.5" y="551.6" class="st10" width="3.9" height="7"/>
						<rect x="387.8" y="551.6" class="st10" width="3.9" height="7"/>
						<rect x="395" y="551.6" class="st10" width="3.9" height="7"/>
						<rect x="402.2" y="551.6" class="st10" width="3.9" height="7"/>
						<rect x="409.4" y="551.6" class="st10" width="3.9" height="7"/>
					</g>
				</g>
				<g>
					<rect x="343.7" y="381.1" class="st14" width="77.5" height="4.9"/>
					<rect x="343.7" y="564" class="st14" width="77.5" height="4.9"/>
				</g>
			</g>
			<g>
				<g>
					<rect x="405" y="413.1" class="st15" width="65.8" height="165.4"/>
					<rect x="437.9" y="413.1" class="st16" width="32.9" height="165.4"/>
				</g>
				<g>
					<g>
						<rect x="410.1" y="421.2" class="st10" width="4.6" height="6.3"/>
						<rect x="418.6" y="421.2" class="st10" width="4.6" height="6.3"/>
						<rect x="427.1" y="421.2" class="st10" width="4.6" height="6.3"/>
						<rect x="435.7" y="421.2" class="st10" width="4.6" height="6.3"/>
						<rect x="444.2" y="421.2" class="st10" width="4.6" height="6.3"/>
						<rect x="452.7" y="421.2" class="st10" width="4.6" height="6.3"/>
						<rect x="461.2" y="421.2" class="st10" width="4.6" height="6.3"/>
					</g>
					<g>
						<rect x="410.1" y="432.2" class="st10" width="4.6" height="6.3"/>
						<rect x="418.6" y="432.2" class="st10" width="4.6" height="6.3"/>
						<rect x="427.1" y="432.2" class="st10" width="4.6" height="6.3"/>
						<rect x="435.7" y="432.2" class="st10" width="4.6" height="6.3"/>
						<rect x="444.2" y="432.2" class="st10" width="4.6" height="6.3"/>
						<rect x="452.7" y="432.2" class="st10" width="4.6" height="6.3"/>
						<rect x="461.2" y="432.2" class="st10" width="4.6" height="6.3"/>
					</g>
					<g>
						<rect x="410.1" y="443.2" class="st10" width="4.6" height="6.3"/>
						<rect x="418.6" y="443.2" class="st10" width="4.6" height="6.3"/>
						<rect x="427.1" y="443.2" class="st10" width="4.6" height="6.3"/>
						<rect x="435.7" y="443.2" class="st10" width="4.6" height="6.3"/>
						<rect x="444.2" y="443.2" class="st10" width="4.6" height="6.3"/>
						<rect x="452.7" y="443.2" class="st10" width="4.6" height="6.3"/>
						<rect x="461.2" y="443.2" class="st10" width="4.6" height="6.3"/>
					</g>
					<g>
						<rect x="410.1" y="454.2" class="st10" width="4.6" height="6.3"/>
						<rect x="418.6" y="454.2" class="st10" width="4.6" height="6.3"/>
						<rect x="427.1" y="454.2" class="st10" width="4.6" height="6.3"/>
						<rect x="435.7" y="454.2" class="st10" width="4.6" height="6.3"/>
						<rect x="444.2" y="454.2" class="st10" width="4.6" height="6.3"/>
						<rect x="452.7" y="454.2" class="st10" width="4.6" height="6.3"/>
						<rect x="461.2" y="454.2" class="st10" width="4.6" height="6.3"/>
					</g>
					<g>
						<rect x="410.1" y="465.2" class="st10" width="4.6" height="6.3"/>
						<rect x="418.6" y="465.2" class="st10" width="4.6" height="6.3"/>
						<rect x="427.1" y="465.2" class="st10" width="4.6" height="6.3"/>
						<rect x="435.7" y="465.2" class="st10" width="4.6" height="6.3"/>
						<rect x="444.2" y="465.2" class="st10" width="4.6" height="6.3"/>
						<rect x="452.7" y="465.2" class="st10" width="4.6" height="6.3"/>
						<rect x="461.2" y="465.2" class="st10" width="4.6" height="6.3"/>
					</g>
					<g>
						<rect x="410.1" y="476.2" class="st10" width="4.6" height="6.3"/>
						<rect x="418.6" y="476.2" class="st10" width="4.6" height="6.3"/>
						<rect x="427.1" y="476.2" class="st10" width="4.6" height="6.3"/>
						<rect x="435.7" y="476.2" class="st10" width="4.6" height="6.3"/>
						<rect x="444.2" y="476.2" class="st10" width="4.6" height="6.3"/>
						<rect x="452.7" y="476.2" class="st10" width="4.6" height="6.3"/>
						<rect x="461.2" y="476.2" class="st10" width="4.6" height="6.3"/>
					</g>
					<g>
						<rect x="410.1" y="487.2" class="st10" width="4.6" height="6.3"/>
						<rect x="418.6" y="487.2" class="st10" width="4.6" height="6.3"/>
						<rect x="427.1" y="487.2" class="st10" width="4.6" height="6.3"/>
						<rect x="435.7" y="487.2" class="st10" width="4.6" height="6.3"/>
						<rect x="444.2" y="487.2" class="st10" width="4.6" height="6.3"/>
						<rect x="452.7" y="487.2" class="st10" width="4.6" height="6.3"/>
						<rect x="461.2" y="487.2" class="st10" width="4.6" height="6.3"/>
					</g>
					<g>
						<rect x="410.1" y="498.2" class="st10" width="4.6" height="6.3"/>
						<rect x="418.6" y="498.2" class="st10" width="4.6" height="6.3"/>
						<rect x="427.1" y="498.2" class="st10" width="4.6" height="6.3"/>
						<rect x="435.7" y="498.2" class="st10" width="4.6" height="6.3"/>
						<rect x="444.2" y="498.2" class="st10" width="4.6" height="6.3"/>
						<rect x="452.7" y="498.2" class="st10" width="4.6" height="6.3"/>
						<rect x="461.2" y="498.2" class="st10" width="4.6" height="6.3"/>
					</g>
					<g>
						<rect x="410.1" y="509.2" class="st10" width="4.6" height="6.3"/>
						<rect x="418.6" y="509.2" class="st10" width="4.6" height="6.3"/>
						<rect x="427.1" y="509.2" class="st10" width="4.6" height="6.3"/>
						<rect x="435.7" y="509.2" class="st10" width="4.6" height="6.3"/>
						<rect x="444.2" y="509.2" class="st10" width="4.6" height="6.3"/>
						<rect x="452.7" y="509.2" class="st10" width="4.6" height="6.3"/>
						<rect x="461.2" y="509.2" class="st10" width="4.6" height="6.3"/>
					</g>
					<g>
						<rect x="410.1" y="520.2" class="st10" width="4.6" height="6.3"/>
						<rect x="418.6" y="520.2" class="st10" width="4.6" height="6.3"/>
						<rect x="427.1" y="520.2" class="st10" width="4.6" height="6.3"/>
						<rect x="435.7" y="520.2" class="st10" width="4.6" height="6.3"/>
						<rect x="444.2" y="520.2" class="st10" width="4.6" height="6.3"/>
						<rect x="452.7" y="520.2" class="st10" width="4.6" height="6.3"/>
						<rect x="461.2" y="520.2" class="st10" width="4.6" height="6.3"/>
					</g>
					<g>
						<rect x="410.1" y="531.2" class="st10" width="4.6" height="6.3"/>
						<rect x="418.6" y="531.2" class="st10" width="4.6" height="6.3"/>
						<rect x="427.1" y="531.2" class="st10" width="4.6" height="6.3"/>
						<rect x="435.7" y="531.2" class="st10" width="4.6" height="6.3"/>
						<rect x="444.2" y="531.2" class="st10" width="4.6" height="6.3"/>
						<rect x="452.7" y="531.2" class="st10" width="4.6" height="6.3"/>
						<rect x="461.2" y="531.2" class="st10" width="4.6" height="6.3"/>
					</g>
					<g>
						<rect x="410.1" y="542.2" class="st10" width="4.6" height="6.3"/>
						<rect x="418.6" y="542.2" class="st10" width="4.6" height="6.3"/>
						<rect x="427.1" y="542.2" class="st10" width="4.6" height="6.3"/>
						<rect x="435.7" y="542.2" class="st10" width="4.6" height="6.3"/>
						<rect x="444.2" y="542.2" class="st10" width="4.6" height="6.3"/>
						<rect x="452.7" y="542.2" class="st10" width="4.6" height="6.3"/>
						<rect x="461.2" y="542.2" class="st10" width="4.6" height="6.3"/>
					</g>
					<g>
						<rect x="410.1" y="553.2" class="st10" width="4.6" height="6.3"/>
						<rect x="418.6" y="553.2" class="st10" width="4.6" height="6.3"/>
						<rect x="427.1" y="553.2" class="st10" width="4.6" height="6.3"/>
						<rect x="435.7" y="553.2" class="st10" width="4.6" height="6.3"/>
						<rect x="444.2" y="553.2" class="st10" width="4.6" height="6.3"/>
						<rect x="452.7" y="553.2" class="st10" width="4.6" height="6.3"/>
						<rect x="461.2" y="553.2" class="st10" width="4.6" height="6.3"/>
					</g>
					<g>
						<rect x="410.1" y="564.2" class="st10" width="4.6" height="6.3"/>
						<rect x="418.6" y="564.2" class="st10" width="4.6" height="6.3"/>
						<rect x="427.1" y="564.2" class="st10" width="4.6" height="6.3"/>
						<rect x="435.7" y="564.2" class="st10" width="4.6" height="6.3"/>
						<rect x="444.2" y="564.2" class="st10" width="4.6" height="6.3"/>
						<rect x="452.7" y="564.2" class="st10" width="4.6" height="6.3"/>
						<rect x="461.2" y="564.2" class="st10" width="4.6" height="6.3"/>
					</g>
				</g>
				<g>
					<rect x="403.1" y="410.7" class="st17" width="69.8" height="4.4"/>
					<rect x="403.1" y="575.3" class="st17" width="69.8" height="4.4"/>
				</g>
			</g>
		</g>
	</g>
</g>
<g id="Arrow_7_1_">
	<polygon class="st18" points="380.6,354.2 379,369.7 365.5,362.1 370,359.8 353.6,328.4 359,325.6 375.4,356.9 	"/>
</g>
</svg>
