<?xml version="1.0" encoding="utf-8"?>
<!-- Generator: Adobe Illustrator 20.0.0, SVG Export Plug-In . SVG Version: 6.00 Build 0)  -->
<svg version="1.1" id="Layer_1" xmlns="http://www.w3.org/2000/svg" xmlns:xlink="http://www.w3.org/1999/xlink" x="0px" y="0px"
	 viewBox="0 0 612 612" style="enable-background:new 0 0 612 612;" xml:space="preserve">
<style type="text/css">
	.st0{fill:#FBAD18;}
	.st1{fill:#FFFFFF;}
	.st2{fill:#CAE2E1;}
	.st3{font-family:'Arial-BoldMT';}
	.st4{font-size:22.4921px;}
	.st5{fill:none;stroke:#D4453B;stroke-width:3.8401;stroke-miterlimit:22.9256;}
	.st6{fill:none;stroke:#D4453B;stroke-width:3.8401;stroke-miterlimit:22.9256;stroke-dasharray:3.8401,7.6802;}
	.st7{fill:#E5625F;}
	.st8{fill:#D85957;}
	.st9{fill:#EE807F;}
	.st10{fill:#FFDCB7;}
	.st11{fill:#E6C49F;}
	.st12{fill:#C38772;}
	.st13{fill:#F5D4B1;}
	.st14{fill:#FFCC63;}
	.st15{fill:#DEA227;}
	.st16{fill:#008070;}
	.st17{fill:#7F9B9A;}
	.st18{fill:#EFCDAA;}
	.st19{fill:#7D5F55;}
	.st20{fill:#E0E5F3;}
	.st21{fill:#3D6734;}
	.st22{fill:#BBC1D5;}
	.st23{fill:#AD4A48;}
	.st24{fill:#EBA121;}
	.st25{fill:#488B76;}
	.st26{fill:#C84441;}
	.st27{fill:#FFD57D;}
	.st28{fill:#FAAC18;}
	.st29{fill:#A6CECC;}
	.st30{fill:#EA807F;}
	.st31{fill:#F7ACAC;}
	.st32{fill:#70A6CA;}
	.st33{fill:#CCCBCB;}
	.st34{fill:#2E5B78;}
</style>
<g>
	<circle class="st0" cx="306" cy="306" r="306"/>
	<g>
		<g id="building_2_">
			<path class="st1" d="M111.4,200.4H40.6l7.1-7.1h17.7l3.5-3.5h14.2l3.5,3.5h17.7L111.4,200.4z M118.5,278.3v3.5H83.1v-10.6H68.9
				v10.6H33.6v-3.5h3.5v-3.5h3.5v-70.8h70.8v70.8h3.5v3.5H118.5z M65.4,257H51.3v7.1h14.2V257H65.4z M65.4,242.9H51.3v7.1h14.2v-7.1
				H65.4z M65.4,228.7H51.3v7.1h14.2v-7.1H65.4z M65.4,214.6H51.3v7.1h14.2v-7.1H65.4z M83.1,257H68.9v7.1h14.2
				C83.1,264.1,83.1,257,83.1,257z M83.1,242.9H68.9v7.1h14.2C83.1,250,83.1,242.9,83.1,242.9z M83.1,228.7H68.9v7.1h14.2
				C83.1,235.8,83.1,228.7,83.1,228.7z M83.1,214.6H68.9v7.1h14.2C83.1,221.7,83.1,214.6,83.1,214.6z M100.8,257H86.7v7.1h14.2V257
				H100.8z M100.8,242.9H86.7v7.1h14.2v-7.1H100.8z M100.8,228.7H86.7v7.1h14.2v-7.1H100.8z M100.8,214.6H86.7v7.1h14.2v-7.1H100.8z
				"/>
		</g>
		<g>
			<path class="st2" d="M361.5,145.6c-0.4,0.4-1.1,0.4-1.5,0l-0.4-0.4c-0.4-0.4-1.2-0.8-1.8-0.8h-8.5c-0.6,0-1.2-0.5-1.4-1l-3.6-10
				c-0.5-1.3,0.3-2.4,1.7-2.4h7.1c0.3-1,0.1-1.8-0.2-2.3c-0.4-0.6-1.6-1.8-1.4-3.6c0.1-0.6,0.4-1.5,0.8-2c1-1.4,2.5-1,2.5,0.2
				c0,1.4-0.8,2.9,2,4.7c2.7,1.8,4.6,5.3,4.6,5.3s0.3,0.4,0.8,0.8l4.6,4.6c0.4,0.4,0.4,1.1,0,1.5L361.5,145.6z"/>
			
				<rect x="361.1" y="143.5" transform="matrix(0.7071 -0.7071 0.7071 0.7071 4.8988 300.7672)" class="st2" width="8.8" height="2"/>
		</g>
		<g>
			<path class="st2" d="M66,225.1c0.3,0,0.6,0,1,0.1l0.4-1.4l3,0.9l-0.4,1.4c1.1,0.6,2,1.3,2.8,2.3l1.3-0.7l1.5,2.8l-1.3,0.7
				c0.4,1.1,0.5,2.3,0.3,3.6l1.4,0.4l-0.9,3l-1.4-0.4c-0.6,1.1-1.3,2-2.3,2.8l0.7,1.3l-2.8,1.5l-0.7-1.3c-0.8,0.3-1.7,0.4-2.6,0.4
				v-2.3c2.7,0,5.3-1.8,6.1-4.5c1-3.4-0.9-7-4.2-8c-0.6-0.2-1.2-0.3-1.9-0.3V225.1z M60.6,227l-0.7-1.3l2.8-1.5l0.7,1.3
				c0.8-0.3,1.7-0.4,2.6-0.4v2.3c-2.7,0-5.3,1.8-6.1,4.5c-1,3.4,0.9,7,4.2,8l0,0c0.6,0.2,1.2,0.3,1.9,0.3v2.3c-0.3,0-0.6,0-1-0.1
				l-0.4,1.4l-3-0.9l0.4-1.4c-1.1-0.6-2-1.3-2.8-2.3l-1.3,0.7l-1.5-2.8l1.3-0.7c-0.4-1.1-0.5-2.3-0.3-3.6l-1.4-0.4l0.9-3l1.4,0.4
				C58.8,228.7,59.6,227.8,60.6,227z"/>
			<path class="st2" d="M79.3,251.9l0.8,0.7l-1.6,1.9l-0.8-0.7c-0.6,0.4-1.2,0.7-1.8,1l0.1,1l-1.8,0.2v-2.8c1.1,0,2.3-0.5,3-1.4
				c1.4-1.7,1.2-4.2-0.5-5.6l0,0c-0.4-0.3-0.9-0.6-1.4-0.8c-0.4-0.1-0.8-0.2-1.1-0.2v-2.8l0.7-0.1l0.1,1c0.7,0.1,1.4,0.3,2,0.6
				l0.7-0.8l1.9,1.6l-0.7,0.8c0.4,0.6,0.7,1.2,1,1.8l1-0.1l0.2,2.5l-1,0.1C79.9,250.7,79.7,251.3,79.3,251.9z M74.1,256l-0.7,0.1
				l-0.1-1c-0.7-0.1-1.4-0.3-2-0.6l-0.7,0.8l-1.9-1.6l0.7-0.8c-0.4-0.6-0.7-1.2-1-1.8l-1,0.1l-0.2-2.5l1-0.1c0.1-0.7,0.3-1.4,0.6-2
				l-0.8-0.7l1.6-1.9l0.8,0.7c0.6-0.4,1.2-0.7,1.8-1l-0.1-1l1.8-0.2v2.8c-1.1,0-2.3,0.5-3,1.4c-1.4,1.7-1.2,4.2,0.5,5.6
				c0.4,0.3,0.9,0.6,1.4,0.8c0.4,0.1,0.8,0.2,1.1,0.2v2.7H74.1z"/>
		</g>
		<g>
			<path class="st2" d="M193.3,463.9h1c3,0,3.1-3.4,0-3.4h-1v0.3c0.8,0,1.4,0.6,1.4,1.4c0,0.8-0.6,1.4-1.4,1.4V463.9z M168.5,463.9
				h24.9v-0.3c-0.8,0-1.4-0.6-1.4-1.4c0-0.8,0.6-1.4,1.4-1.4v-0.3c-8.3,0-16.5,0-24.9,0v0.3c0.8,0,1.4,0.6,1.4,1.4
				c0,0.8-0.6,1.4-1.4,1.4V463.9z M167.4,463.9h1v-0.3c-0.8,0-1.4-0.6-1.4-1.4c0-0.8,0.6-1.4,1.4-1.4v-0.3h-1
				C164.2,460.5,164.3,463.9,167.4,463.9z"/>
			<circle class="st2" cx="182.8" cy="450.2" r="1.4"/>
			<path class="st2" d="M193.9,461.8l-9.8-11c-0.2-0.3-0.6-0.3-0.9,0l0,0c-0.3,0.2-0.3,0.6,0,0.9l9.8,11c0.2,0.3,0.6,0.3,0.9,0l0,0
				C194.1,462.4,194.1,462,193.9,461.8z"/>
			<circle class="st2" cx="178.9" cy="450.2" r="1.4"/>
			<path class="st2" d="M167.9,461.8l10.7-11.9c0.2-0.3,0.6-0.3,0.9,0l0,0c0.3,0.2,0.3,0.6,0,0.9l-10.7,11.9c-0.2,0.3-0.6,0.3-0.9,0
				l0,0C167.7,462.4,167.7,462,167.9,461.8z"/>
			<path class="st2" d="M189.1,464.9h5l-1.3,7.6c-0.3,1.6-1.1,2.8-3.6,2.8h-0.1V473c0.4-0.2,0.6-0.5,0.7-0.9
				c0.1-0.9,0.2-1.7,0.4-2.6c0.1-0.9,0.2-1.7,0.4-2.6c0.1-0.6-0.4-1-1-1l0,0c-0.1,0-0.3,0-0.4,0.1v-1H189.1z M185,464.9h4.1v1
				c-0.5,0.1-0.8,0.5-0.9,1c-0.1,0.9-0.2,1.7-0.3,2.6c-0.1,0.9-0.2,1.7-0.3,2.6c-0.1,0.6,0.3,1,0.9,1l0,0c0.2,0,0.3,0,0.5-0.1v2.3
				h-4.1v-2.2c0.4-0.1,0.8-0.5,0.8-1c0.1-0.9,0.1-1.7,0.2-2.6c0.1-0.9,0.1-1.7,0.2-2.6c0-0.6-0.4-1-1.1-1l0,0c-0.1,0-0.1,0-0.2,0v-1
				H185z M180.9,464.9h4.1v1c-0.5,0.1-1,0.5-1,1c0,0.9-0.1,1.7-0.1,2.6c0,0.9-0.1,1.7-0.1,2.6c0,0.6,0.4,1,1,1l0,0
				c0.1,0,0.2,0,0.3,0v2.2H181v-2.1c0.6,0,1-0.5,1-1c0-0.9,0-1.7,0-2.6c0-0.9,0-1.7,0-2.6c0-0.6-0.5-1-1.1-1l0,0l0,0L180.9,464.9
				L180.9,464.9z M176.7,464.9h4.1v1c-0.6,0-1.1,0.5-1.1,1c0,0.9,0,1.7,0,2.6c0,0.9,0,1.7,0,2.6c0,0.6,0.5,1,1,1l0,0l0,0v2.1h-4.1
				v-2.2c0.1,0,0.2,0,0.3,0l0,0c0.6,0,1-0.5,1-1c0-0.9-0.1-1.7-0.1-2.6c0-0.9-0.1-1.7-0.1-2.6c0-0.5-0.5-1-1-1L176.7,464.9
				L176.7,464.9z M172.6,464.9h4.1v1c-0.1,0-0.1,0-0.2,0l0,0c-0.6,0-1.1,0.5-1.1,1c0.1,0.9,0.1,1.7,0.2,2.6c0.1,0.9,0.1,1.7,0.2,2.6
				c0,0.5,0.4,0.9,0.8,1v2.2h-4.1v-2.3c0.1,0.1,0.3,0.1,0.5,0.1l0,0c0.6,0,1-0.5,0.9-1c-0.1-0.9-0.2-1.7-0.3-2.6
				c-0.1-0.9-0.2-1.7-0.3-2.6c0-0.4-0.4-0.8-0.8-1v-1H172.6z M172.5,475.3c-2.5,0-3.3-1.2-3.6-2.8l-1.3-7.6h5v1
				c-0.1,0-0.3-0.1-0.4-0.1l0,0c-0.6,0-1.1,0.5-1,1c0.1,0.9,0.2,1.7,0.4,2.6c0.1,0.9,0.2,1.7,0.4,2.6c0.1,0.4,0.3,0.8,0.7,0.9v2.3
				H172.5z"/>
		</g>
		<g>
			<path class="st2" d="M369.9,288.1c-2-3.1-5.4-4.7-8.9-4.7v2c2.8,0,5.5,1.3,7.3,3.8c2.6,4,1.6,9.4-2.4,12.1
				c-1.5,1-3.1,1.4-4.8,1.4v2c2,0,4.1-0.6,5.9-1.8C371.8,299.7,373.1,293,369.9,288.1z M361,283.3c-2,0-4.1,0.6-5.9,1.8
				c-4.9,3.2-6.2,9.9-2.9,14.8c2,3.1,5.4,4.7,8.9,4.7v-2c-2.8,0-5.5-1.4-7.3-3.8l0,0c-2.6-4-1.6-9.4,2.4-12.1c1.5-1,3.1-1.4,4.8-1.4
				L361,283.3L361,283.3z"/>
			
				<rect x="343.6" y="300.8" transform="matrix(0.8324 -0.5542 0.5542 0.8324 -109.0334 243.9478)" class="st2" width="10.4" height="2.9"/>
			
				<rect x="344.1" y="301.4" transform="matrix(0.8323 -0.5544 0.5544 0.8323 -109.6339 243.5365)" class="st2" width="7.1" height="3.1"/>
			<path class="st2" d="M341.7,309.9c-1.1,0.7-2.6,0.4-3.4-0.7c-0.7-1.1-0.4-2.6,0.7-3.4l8.7-5.8c0.6-0.4,1.4-0.5,2.1-0.3l1.7,2.5
				c-0.1,0.7-0.4,1.4-1.1,1.8L341.7,309.9z"/>
			<path class="st2" d="M341.6,309.7c-1.1,0.7-2.5,0.4-3.2-0.6c-0.7-1.1-0.4-2.5,0.6-3.2l8.2-5.4c1.1-0.7,2.5-0.4,3.2,0.6
				c0.7,1.1,0.4,2.5-0.6,3.2L341.6,309.7z"/>
		</g>
		<text transform="matrix(1 0 0 1 419.8643 272.2451)" class="st2 st3 st4">$</text>
		<text transform="matrix(1 0 0 1 186.5542 160.731)" class="st2 st3 st4">$</text>
		<text transform="matrix(1 0 0 1 543.2432 217.8262)" class="st2 st3 st4">$</text>
		<g>
			<line class="st5" x1="146.4" y1="242.7" x2="265.5" y2="306.5"/>
			<line class="st5" x1="467.4" y1="367" x2="265.5" y2="306.5"/>
			<line class="st6" x1="334" y1="485.3" x2="265.5" y2="306.5"/>
			<line class="st6" x1="429" y1="173.6" x2="265.5" y2="306.5"/>
			<line class="st6" x1="417.7" y1="176.1" x2="529.5" y2="162.3"/>
			<line class="st5" x1="389.4" y1="257.9" x2="529.5" y2="162.3"/>
			<line class="st5" x1="385.9" y1="255.3" x2="254.5" y2="148.2"/>
			<line class="st5" x1="386.8" y1="260.7" x2="486.2" y2="398"/>
			<line class="st6" x1="467.4" y1="367" x2="529.5" y2="162.3"/>
			<line class="st6" x1="384.1" y1="257.2" x2="224.2" y2="313.7"/>
			<line class="st5" x1="467.4" y1="367" x2="563.8" y2="438.4"/>
			<line class="st5" x1="467.4" y1="367" x2="334" y2="485.3"/>
			<line class="st6" x1="467.4" y1="367" x2="90.9" y2="409.7"/>
			<line class="st6" x1="254.4" y1="150.9" x2="145.6" y2="246.8"/>
			<line class="st5" x1="52.6" y1="288.4" x2="145.6" y2="246.8"/>
			<line class="st6" x1="51.2" y1="293.1" x2="79.5" y2="391.1"/>
			<line class="st6" x1="53.1" y1="289.9" x2="264.8" y2="303.6"/>
			<line class="st5" x1="334" y1="485.3" x2="90.9" y2="409.7"/>
			<line class="st6" x1="334" y1="485.3" x2="563.8" y2="436"/>
			<line class="st5" x1="87.3" y1="414.4" x2="269.2" y2="305.6"/>
			<line class="st5" x1="267.5" y1="318.4" x2="254.1" y2="149.4"/>
			<line class="st6" x1="421.5" y1="175.1" x2="254.2" y2="147.4"/>
			<line class="st5" x1="566.6" y1="438.4" x2="529.5" y2="162.3"/>
		</g>
		<g>
			<circle class="st2" cx="253.1" cy="289.3" r="59"/>
			<path class="st7" d="M231,316.2c-5.8,3.7-8.3,11.9-11.6,21.5c9.6,6.6,21.2,10.6,33.8,10.6c12.5,0,24.1-3.9,33.7-10.6
				c-3.4-9.7-5.7-17.8-11.7-21.6c-10.1-6.3-16.1-7.9-22.1-7.9C247,308.2,241,309.7,231,316.2z"/>
			<g>
				<path class="st8" d="M280.1,341.8v-20.3c2.6,4.2,4.4,9.9,6.6,16.2C284.6,339.2,282.4,340.6,280.1,341.8z"/>
				<path class="st8" d="M275.2,316.2V344c-2.3,0.9-4.7,1.7-7.3,2.4v-34.3C270,313.2,272.4,314.6,275.2,316.2L275.2,316.2z"/>
				<path class="st8" d="M262.9,310v37.5c-2.4,0.4-4.8,0.6-7.3,0.7v-39.8C257.8,308.6,260.2,309.1,262.9,310z"/>
				<path class="st8" d="M250.6,308.4v39.9c-2.4-0.1-4.8-0.4-7.3-0.7V310C245.9,308.9,248.3,308.5,250.6,308.4z"/>
				<path class="st8" d="M238.3,312v34.5c-2.5-0.6-4.9-1.4-7.3-2.4v-27.8C233.8,314.5,236.1,313.1,238.3,312z"/>
				<path class="st8" d="M226,321.6v20.2c-2.3-1.2-4.5-2.5-6.6-4C221.7,331.4,223.4,325.8,226,321.6z"/>
			</g>
			<g>
				<path class="st8" d="M229.5,317.4c-2.1,1.8-3.7,4.3-5.1,7.3h57.4c-1.4-2.9-3-5.4-5.1-7.3H229.5z"/>
				<path class="st8" d="M222.3,329.7c-0.9,2.3-1.7,4.7-2.6,7.3h66.8c-0.9-2.5-1.7-4.9-2.5-7.3H222.3z"/>
				<path class="st8" d="M226.4,342c8,4,17,6.3,26.7,6.3c9.6,0,18.6-2.3,26.7-6.3H226.4z"/>
			</g>
			<g>
				<g>
					<path class="st9" d="M280.1,324.6h1.7l-0.1-0.1l-0.1-0.3l-0.1-0.1c-0.1-0.2-0.2-0.4-0.3-0.5l-0.1-0.1c-0.1-0.2-0.2-0.3-0.3-0.5
						l0,0l-0.1-0.1l-0.1-0.1l0,0l-0.1-0.1l-0.1-0.1l0,0v-0.1l0,0l-0.1-0.1l0,0l-0.1-0.1l0,0l-0.1-0.1l-0.1-0.1l-0.1-0.1l0,0v-0.1
						v2.7H280.1z"/>
					<polygon class="st9" points="280.1,336.9 286.5,336.9 286.5,336.8 286.5,336.8 286.5,336.6 286.4,336.5 286.4,336.5 
						286.4,336.4 286.3,336.2 286.2,336.1 286.2,336 286.2,335.9 286.2,335.8 286.1,335.7 286.1,335.7 286.1,335.6 285.9,335.5 
						285.9,335.2 285.8,335.1 285.8,335.1 285.8,335 285.5,334.3 285.5,334.2 285.4,333.9 285.3,333.7 285.3,333.7 285.3,333.6 
						285.3,333.5 285.2,333.4 285.2,333.4 285.2,333.3 285.1,333.2 285.1,333.1 285,332.6 284.9,332.6 284.9,332.6 284.9,332.5 
						284.9,332.4 284.8,332.3 284.8,332.3 284.8,332.2 284.8,332.1 284.7,332 284.7,331.8 284.6,331.8 284.6,331.7 284.6,331.5 
						284.5,331.5 284.5,331.4 284.5,331.3 284.5,331.2 284.4,331.2 284.4,331.1 284.4,331 284.4,331 284.3,330.9 284.3,330.7 
						284.3,330.7 284.2,330.6 284.2,330.5 284.2,330.4 284.2,330.4 284.1,330.2 284,330.1 284,330 284,329.9 283.9,329.7 
						280.1,329.7 					"/>
				</g>
				<g>
					<rect x="267.9" y="317.4" class="st9" width="7.3" height="7.3"/>
					<rect x="267.9" y="329.7" class="st9" width="7.3" height="7.3"/>
					<polygon class="st9" points="267.9,346.4 268.2,346.3 268.2,346.3 268.3,346.3 268.3,346.3 268.6,346.2 268.7,346.2 269,346.1 
						269.1,346.1 269.1,346.1 269.1,346.1 269.4,346 269.6,346 269.6,345.9 269.7,345.9 269.8,345.9 270,345.8 270.3,345.7 
						270.3,345.7 270.3,345.7 270.4,345.7 270.6,345.6 270.8,345.6 270.8,345.6 270.9,345.5 271.1,345.5 271.2,345.5 271.3,345.4 
						271.4,345.4 271.5,345.4 271.6,345.3 271.8,345.2 272,345.2 272.3,345.1 272.4,345.1 272.6,345 272.9,344.9 273.2,344.8 
						273.2,344.8 273.3,344.8 273.3,344.8 273.5,344.7 273.6,344.6 273.7,344.6 273.9,344.5 274.1,344.5 274.2,344.4 274.3,344.4 
						274.4,344.4 274.5,344.3 274.5,344.3 274.6,344.3 274.7,344.2 274.8,344.2 274.9,344.2 275.1,344.1 275.2,344.1 275.2,342 
						267.9,342 					"/>
				</g>
				<g>
					<rect x="255.6" y="317.4" class="st9" width="7.3" height="7.3"/>
					<rect x="255.6" y="329.7" class="st9" width="7.3" height="7.3"/>
					<path class="st9" d="M255.9,348.2h0.1h0.3h0.1h0.3h0.1h0.2h0.1h0.1h0.2h0.1h0.1h0.3l0,0h0.1h0.2l0,0h0.1h0.1h0.2h0.2h0.1h0.2
						h0.2h0.2h0.3h0.1h0.4l0,0l0,0l0.4-0.1l0,0l0,0l0,0c0.1,0,0.3,0,0.4-0.1l0,0c0.4-0.1,0.9-0.1,1.3-0.2v-5.5h-6.9v6.3L255.9,348.2
						z"/>
				</g>
				<g>
					<rect x="243.3" y="317.4" class="st9" width="7.3" height="7.3"/>
					<rect x="243.3" y="329.7" class="st9" width="7.3" height="7.3"/>
					<path class="st9" d="M243.3,347.5L243.3,347.5h0.1l0,0l0,0l0.4,0.1l0,0l0,0l0.4,0.1l0,0l0,0l0.4,0.1l0,0h0.1h0.3l0,0h0.1h0.3
						h0.1h0.2h0.2l0,0h0.1h0.1l0,0h0.2h0.1h0.1h0.2l0,0h0.1l0,0h0.3h0.1c1,0.1,2,0.2,3,0.2v-6.3H243v5.8H243.3z"/>
				</g>
				<g>
					<rect x="231" y="317.4" class="st9" width="7.3" height="7.3"/>
					<rect x="231" y="329.7" class="st9" width="7.3" height="7.3"/>
					<polygon class="st9" points="231.1,344.1 231.2,344.1 231.3,344.2 231.6,344.3 231.7,344.3 231.7,344.3 231.9,344.4 232,344.4 
						232.1,344.5 232.1,344.5 232.3,344.5 232.3,344.5 232.4,344.6 232.5,344.6 232.7,344.7 232.9,344.7 233,344.8 233.2,344.8 
						233.4,344.9 233.5,345 233.6,345 233.8,345 233.8,345 234,345.1 234.1,345.1 234.2,345.2 234.2,345.2 234.3,345.2 234.4,345.3 
						234.5,345.3 234.7,345.3 234.8,345.4 234.8,345.4 234.9,345.4 235,345.4 235,345.5 235.2,345.5 235.4,345.6 235.6,345.6 
						235.6,345.6 235.7,345.7 235.8,345.7 235.8,345.7 236,345.8 236.2,345.8 236.3,345.9 236.4,345.9 236.6,345.9 236.7,346 
						236.8,346 237,346.1 237.2,346.1 237.3,346.1 237.4,346.2 237.5,346.2 237.6,346.2 237.6,346.2 237.7,346.3 237.8,346.3 
						237.9,346.3 238,346.3 238,346.3 238.3,346.4 238.3,342 231,342 231,344 					"/>
				</g>
				<g>
					<polygon class="st9" points="226,321.6 226,321.6 226,321.6 225.9,321.7 225.9,321.8 225.8,321.9 225.8,321.9 225.8,322 
						225.7,322.1 225.6,322.2 225.6,322.2 225.6,322.4 225.5,322.4 225.5,322.5 225.4,322.6 225.3,322.7 225.3,322.7 225.3,322.9 
						225.3,322.9 225.2,323 225.2,323 225.1,323.1 225.1,323.3 225,323.4 225,323.4 224.9,323.5 224.9,323.5 224.8,323.8 
						224.8,323.8 224.7,323.9 224.7,324 224.5,324.3 224.5,324.5 224.5,324.5 224.4,324.6 226,324.6 					"/>
					<polygon class="st9" points="222.3,329.7 222.3,329.8 222.2,329.9 222.2,329.9 222.2,330 222.1,330.1 222.1,330.2 222.1,330.2 
						222.1,330.3 222,330.4 222,330.4 222,330.5 221.9,330.6 221.9,330.7 221.9,330.7 221.9,330.9 221.8,331 221.8,331 221.8,331.1 
						221.7,331.2 221.7,331.2 221.7,331.3 221.7,331.4 221.6,331.5 221.6,331.6 221.5,331.7 221.5,331.8 221.5,331.8 221.5,331.9 
						221.4,332 221.4,332.1 221.4,332.2 221.3,332.3 221.3,332.3 221.3,332.4 221.3,332.5 221.2,332.6 221.2,332.6 221.2,332.7 
						221.1,332.8 221.1,332.9 221.1,332.9 221.1,333.1 221,333.1 221,333.2 221,333.3 220.9,333.4 220.9,333.4 220.9,333.5 
						220.9,333.6 220.8,333.7 220.8,333.7 220.8,333.9 220.7,334 220.7,334 220.7,334.1 220.7,334.2 220.6,334.2 220.6,334.3 
						220.6,334.4 220.5,334.5 220.5,334.5 220.4,335 220.4,335.1 220.3,335.1 220.3,335.2 220.3,335.4 220.3,335.4 220.2,335.5 
						220.2,335.6 220.2,335.7 220.1,335.7 220.1,335.8 220.1,335.9 220.1,335.9 220,336.1 220,336.2 220,336.2 219.9,336.3 
						219.9,336.4 219.9,336.5 219.8,336.5 219.8,336.6 219.8,336.8 219.7,336.8 219.7,336.9 226,336.9 226,329.7 					"/>
				</g>
			</g>
			<path class="st10" d="M244.7,286.2h16.7v24.1c0,8.2-16.7,9.1-16.7,0L244.7,286.2L244.7,286.2z"/>
			<polygon class="st11" points="261.4,301.3 261.4,298.2 244.7,298.2 244.7,309.5 			"/>
			<path class="st12" d="M252.7,261.1c11.9,0,18.1,7,18.7,14.3c0.6,7.4,1.7,6,4.2,0.6c2.5-5.4-3.7-29-22.1-29s-25.8,18.1-23.3,28
				c2.5,9.9,2.5,7.6,4.1,0C236.2,267.5,239.6,261.5,252.7,261.1z"/>
			<path class="st10" d="M273.8,268.5c3.9,13.8-7,33.7-20.7,33.7c-13.5,0-24.3-19.3-20.8-33C243.3,263.5,260.5,257.2,273.8,268.5z"
				/>
			<path class="st12" d="M270.5,273.8c-0.1-3.8-3.3-8-5.6-9.2c-2.3-1.2-14.3,0.3-20.5,4.2c-6.6,4.2-7.9,7.5-8.4,11.2
				c-0.1,1.2-0.5,2.4-1.1,2.1c-2-0.7-2.4-6.4-4.1-7.5c-2.5-1.5-1.4-3.9-0.4-7.8c1-3.8,12.4-5.9,21.8-6.3c9.4-0.3,16.4,1.8,19.3,4.5
				c2.9,2.7,4,7.1,2.7,10.7c-0.9,2.6-1.8,5.8-3.7,5.3C269.8,280.9,270.5,276.1,270.5,273.8z"/>
			<g>
				
					<ellipse transform="matrix(0.2172 -0.9761 0.9761 0.2172 -55.4348 484.7391)" class="st10" cx="274.5" cy="276.9" rx="5.5" ry="2.4"/>
				
					<ellipse transform="matrix(0.9761 -0.2171 0.2171 0.9761 -54.5856 56.8879)" class="st13" cx="231.6" cy="276.9" rx="2.4" ry="5.5"/>
			</g>
			<path class="st14" d="M237.6,311.7c-7.1,0-8.5,0.9-8.8,5.5c-0.3,4.6,0.9,15.8,5.2,22c4.4,6.1,2-0.9,2.6-5.8s1.5,7.1,3.5,1.5
				C242.3,329.3,239.7,325.5,237.6,311.7z"/>
			<path class="st14" d="M272.5,314c3.2,0,7.2,2.1,4.3,6.5c-2.8,4.5-4.3,14.8-4.5,19.1c-0.2,4.3-2.2,7.4-2.2,3.7
				c0-3.5-2.6-11.9-3.4-8.3c-0.7,3.5-3.5,7.2-3.2,0.4C263.9,328.8,265.4,310.2,272.5,314z"/>
			<path class="st14" d="M272.1,314.9c-6,6.5-24.7,15.4-36.8-0.3c-1.3-4.1-1-6.2,2.6-5.2c-0.3-3.8,3.2-5.2,6.4-3.4
				c4.8,5,15.5,2.4,17.5-0.8c3.1-0.8,5.1,0.4,5.1,4.7C273.4,306.7,274.7,311.5,272.1,314.9z"/>
			<g>
				<path class="st15" d="M269.7,322.6v-2.3c1.2-2.1,2.5-3.7,3.4-4C272.5,316.8,271,319.4,269.7,322.6L269.7,322.6z M269.7,318.3
					c1.3-0.9,2.5-2.3,2.9-4l0,0c-0.5,1-1.7,2-2.9,2.9V318.3z M269.7,317.1v1.1c-1.1,0.8-2.4,1.2-3.3,1.2v-0.2
					C267.3,318.7,268.5,318,269.7,317.1L269.7,317.1z M269.7,320.3v2.3c-1.4,3.2-2.6,7.1-2.6,9.8
					C266.1,328.9,267.7,323.8,269.7,320.3L269.7,320.3z M266.4,310.2L266.4,310.2c0.1-0.2,0.2-0.3,0.3-0.3l0,0
					C266.6,310,266.5,310.1,266.4,310.2z M236.4,330.1c-0.2-0.4-0.5-0.9-0.7-1.5v0.8C235.9,329.6,236.1,329.9,236.4,330.1
					L236.4,330.1z M266.4,310.1L266.4,310.1c-5.1,5.2-16.8,10.4-27.1,0.1C249.7,318.7,261.4,314,266.4,310.1L266.4,310.1z
					 M266.4,319.2l-0.3,0.2c0.1,0,0.2,0,0.3,0V319.2L266.4,319.2z M235.7,316.5v-1.4c0.9,1.2,2.2,2.4,3,3.1
					C237.6,318.1,236.4,317.5,235.7,316.5z M235.7,328.6c-1.9-4.6-2.8-12.8-2.2-13.9c-1.9,1.5-1.3,10.6,2.2,14.7V328.6L235.7,328.6z
					 M235.7,315.1v1.4c-0.5-0.7-0.8-1.5-0.7-2.4C235.2,314.4,235.4,314.7,235.7,315.1z"/>
			</g>
			<path class="st12" d="M236.1,276.3c-0.8,3.3-0.6,11.6,2.7,14.3c3.3,2.7,5.2,3.1,5.7,0c1-5.7,16-5.7,17,0c0.6,3,2.4,2.6,5.7,0
				c3.3-2.7,3.5-10.9,2.7-14.3c0.4-3.4,3-3.2,2.3-0.8c-0.4,1.4,0.4,3.3,0.7,4.5c1.1,4.4,0.3,9.2-2.8,14.4
				c-7.4,12.7-26.8,12.7-34.2,0c-3-5.3-3.8-10-2.8-14.4c0.3-1.2,1.1-3.1,0.7-4.5C233.1,273.1,235.7,272.9,236.1,276.3z"/>
			<path class="st13" d="M253.1,287.8c4.2,0,7.6,2.3,7.6,5.1c0,2.1,0,4.6-3.1,4.6c-3.1,0-2.2-2.6-4.4-2.6c-2.4,0-1.8,2.5-4.7,2.5
				c-2.8,0-2.9-2.6-2.9-4.6C245.4,290.1,248.9,287.8,253.1,287.8z"/>
			<path class="st16" d="M261.3,283c0.2,0,0.4,0,0.5,0c4.3-0.3,5.3-2.1,5.7-4.3c0.4-2.5,0.5-3.3,1.1-3.6c0.5-0.2,0.6-0.7,0.6-1.4
				c0-0.6-0.1-0.7-0.9-1c-0.7-0.2-4.3-0.5-7.1-0.4v0.7c2.1-0.1,4.2,0.1,4.8,0.5c1.4,0.8,1.1,4.8,0,6.9c-0.8,1.4-2.9,2.1-4.9,2.1v0.6
				H261.3z M253,273.7c-0.9,0-4.8-1-7.7-1.2c-0.2,0-0.4,0-0.6,0v0.7c2.2,0.1,4.5,0.6,5.4,1.7c1.4,1.8-0.8,6.2-2.9,7.3
				c-0.7,0.3-1.5,0.5-2.4,0.5v0.6c3.8,0.1,5.1-2.4,5.5-3.3c0.8-1.5,0.6-3.7,2.7-3.7c2.1,0,1.9,2.1,2.7,3.6c0.4,0.8,1.7,3.4,5.5,3.3
				v-0.6c-0.9,0-1.8-0.1-2.4-0.5c-2.1-1-4.3-5.4-2.9-7.3c0.8-1.1,3.1-1.6,5.4-1.7v-0.7c-0.2,0-0.4,0-0.6,0
				C258.2,272.5,255.2,273.6,253,273.7z M244.7,272.3c-2.7-0.1-6.3,0.2-7.1,0.4c-0.8,0.3-0.9,0.3-0.9,1c0,0.6,0.1,1.2,0.6,1.4
				c0.7,0.2,0.7,1.1,1.1,3.6c0.4,2.2,1.4,4,5.7,4.3c0.2,0,0.4,0,0.5,0v-0.6c-1.9,0-4.1-0.7-4.9-2.1c-1.1-2-1.4-5.9,0-6.9
				c0.6-0.4,2.7-0.6,4.8-0.5v-0.7H244.7z"/>
		</g>
		<g>
			<circle class="st14" cx="243.3" cy="149.2" r="18.2"/>
			<path class="st12" d="M236.7,140.7c-1,1.9-3.1,13.2-0.2,19.7c2.9,6.5,10.4,6.8,10.6,3C247.3,159.7,238.7,139.1,236.7,140.7z"/>
			<path class="st12" d="M249.7,140.7c1,1.9,2.9,12.5,0,19c-2.9,6.5-10.3,7.5-10.5,3.7C239.1,159.7,247.7,139.1,249.7,140.7z"/>
			<path class="st17" d="M236.5,157.6c-1.8,1.2-2.5,3.7-3.6,6.6c2.9,2,6.5,3.3,10.5,3.3c3.8,0,7.5-1.2,10.4-3.2
				c-1-3-1.8-5.5-3.6-6.6c-3.1-1.9-5-2.4-6.9-2.4C241.4,155.1,239.6,155.6,236.5,157.6z"/>
			<path class="st10" d="M240.7,148.2h5.1v7.5c0,2.5-5.1,2.8-5.1,0V148.2z"/>
			<polygon class="st11" points="245.9,152.9 245.9,151.9 240.7,151.9 240.7,155.5 			"/>
			<path class="st18" d="M243.3,138.7c11,0,6.5,14.4,0,14.4S232.3,138.7,243.3,138.7z"/>
			<path class="st10" d="M243.3,138.7c11,0,6.5,14.4,0,14.4V138.7z"/>
			<path class="st12" d="M245.5,140.2c1.8,0.9,2.9,2.4,3.3,4.6c0.4,2.3,0.7,1.9,1.5,0.3c0.8-1.7-1.1-9-6.9-9s-8,5.6-7.2,8.7
				c0.8,3,1.4,2.1,1.9-0.3C238.7,142.2,241.1,139.9,245.5,140.2z"/>
			<path class="st19" d="M248.5,157.8c3.2-10.8-1.8-17.6-2.9-17.6C247.7,139.5,252.7,146.3,248.5,157.8z"/>
			<path class="st10" d="M245.9,155.5c-0.2,2.5-2.6,4.6-2.6,6.5c0-2-2.3-4.1-2.6-6.6L245.9,155.5z"/>
			<path class="st20" d="M243.3,161.1c1.1-1.7,2.3-2.6,3.7-3.1c0.7-0.2,1.9-0.4,2.6-0.1c-1.2-1.4-2.5-2.1-3.7-3.4
				C245.9,158.3,243.3,159,243.3,161.1z"/>
			<path class="st1" d="M243.3,161.1c0.8-1.8,2.1-3.3,3.5-3.7c0.7-0.2,1.4-0.2,2,0.2c-1.2-1.4-1.8-2.2-3-3.1
				C245.9,158.3,243.3,159,243.3,161.1z"/>
			<path class="st20" d="M243.3,161.1c-1.1-1.7-2.3-2.6-3.7-3.1c-0.7-0.2-1.9-0.4-2.6-0.1c1.2-1.4,2.5-2.1,3.7-3.4
				C240.8,158.3,243.3,159,243.3,161.1z"/>
			<path class="st1" d="M243.3,161.1c-0.8-1.8-2.1-3.3-3.5-3.7c-0.7-0.2-1.4-0.2-2,0.2c1.2-1.4,1.8-2.2,3-3.1
				C240.8,158.3,243.3,159,243.3,161.1z"/>
			<path class="st19" d="M238.5,159.9c-3.7-21.9,5-19.3,7-19.7C243,137.4,231.6,137.3,238.5,159.9z"/>
			<g>
				<path class="st21" d="M237.7,156.9c-0.9,0.6-1.3,1.9-1.4,2.9c1.8-0.4,3.8,0.7,4.2,1.2c-1.4,0.8-1.8,1.5-2.5,2.5
					c0.6,0.9,2,2.2,3.2,3.8c0.2,0,0.3,0,0.5,0c-1.1-1.8-2.4-3.1-3.1-4c0.8-1,1.3-1.5,2.7-2.3c-0.3-0.5-2.7-2.4-4.5-2
					C236.9,158.1,237,157.6,237.7,156.9z"/>
				<path class="st21" d="M249,156.9c0.9,0.6,1.3,1.9,1.4,2.9c-1.8-0.4-3.8,0.7-4.2,1.2c1.4,0.8,1.8,1.5,2.5,2.5
					c-0.6,0.9-2,2.1-3.2,3.8c-0.2,0-0.3,0-0.5,0.1c1.1-1.8,2.4-3.1,3.1-4c-0.8-1-1.3-1.5-2.7-2.3c0.3-0.5,2.7-2.4,4.5-2
					C249.8,158.1,249.7,157.6,249,156.9z"/>
				<path class="st21" d="M243.3,167.5c0-2,0-4.6,0.1-6c-0.4,1.6-0.5,4-0.4,6C243.1,167.5,243.2,167.5,243.3,167.5z"/>
			</g>
		</g>
		<g>
			<circle class="st2" cx="52.5" cy="288.8" r="18.2"/>
			<path class="st1" d="M45.6,300.4c-1.2,0.8-2,2.2-2.6,4c2.7,1.7,6,2.6,9.5,2.6s6.8-1,9.5-2.6c-0.7-1.8-1.4-3.2-2.6-4
				c-3.1-1.9-5-2.4-6.9-2.4C50.6,297.9,48.8,298.3,45.6,300.4z"/>
			<path class="st10" d="M49.9,290.5h5.2v7.5c0,2.5-5.1,2.8-5.1,0v-7.5H49.9z"/>
			<polygon class="st11" points="55.1,295.8 55.1,294.8 49.9,294.8 49.9,298.3 			"/>
			<path class="st10" d="M52.5,281.6c11,0,6.5,14.4,0,14.4S41.5,281.6,52.5,281.6z"/>
			<path class="st19" d="M55.5,282.6c2,0.6,2.5,3.5,2.9,5c0.6,2.2,0.3,2,1,0.3c0.8-1.7-1.1-9-6.9-9c-5.6,0-8,5.6-7.2,8.7
				c0.8,3,0.8,2.3,1.3,0c0.5-2.3,1.3-4.5,2.5-4.9c0.9-0.4,2.2,0.3,3.2,0.2C53.6,282.9,54.6,282.3,55.5,282.6z"/>
			<g>
				
					<ellipse transform="matrix(0.2172 -0.9761 0.9761 0.2172 -235.0535 283.4101)" class="st10" cx="59.2" cy="288.3" rx="1.7" ry="0.7"/>
				
					<ellipse transform="matrix(0.9761 -0.2172 0.2172 0.9761 -61.5153 16.8423)" class="st13" cx="45.9" cy="288.3" rx="0.7" ry="1.7"/>
			</g>
			<path class="st7" d="M51.9,302.5l-0.3,4.5c0.3,0,0.6,0,0.9,0c0.3,0,0.6,0,0.9,0l-0.3-4.5l1.8-4.3c-1.7,0-3.1,0-4.7,0L51.9,302.5z
				"/>
			<polygon class="st22" points="50,296.5 48.1,299 49.2,302.1 52.5,298.1 			"/>
			<polygon class="st1" points="50,296.5 48.1,299 49.3,301.4 52.5,298.1 			"/>
			<polygon class="st20" points="55.1,296.5 57.1,299 56,302.1 52.6,298.1 			"/>
			<polygon class="st1" points="55.1,296.5 57.1,299 55.9,301.4 52.6,298.1 			"/>
		</g>
		<g>
			<g>
				<circle class="st7" cx="141.3" cy="236.7" r="36.6"/>
				<path class="st23" d="M126.8,235.3c1.1,7.3-2.1,15.7-3.6,10.1c-3.1,3.9,0.5,19.8,13.5,12.1C149.6,249.7,138.9,220.4,126.8,235.3
					z"/>
				<path class="st23" d="M155.9,235.3c-1.3,8.6,2.1,15.7,3.6,10.1c3.1,3.9-0.5,19.8-13.5,12.1C133,249.7,143.7,220.4,155.9,235.3z"
					/>
				<path class="st14" d="M127.7,260c-2.4,1.6-3.9,4.4-5.3,8.1c5.5,3.3,12,5.3,18.9,5.3c7,0,13.4-1.9,18.9-5.3
					c-1.3-3.5-2.8-6.4-5.3-8c-6.2-3.9-10-4.8-13.7-4.9C137.5,255,133.8,255.9,127.7,260z"/>
				<path class="st10" d="M136.1,241.3h10.4v14.9c0,5-10.4,5.6-10.4,0V241.3z"/>
				<polygon class="st11" points="146.5,250.7 146.5,248.8 136.1,248.8 136.1,255.8 				"/>
				<path class="st10" d="M141.3,222.4c21.9,0,13,28.9,0,28.9C128.3,251.3,119.4,222.4,141.3,222.4z"/>
				<path class="st10" d="M141.3,269.4c0-1.9-5.1-8.8-5.1-12.4h10.2C146.4,260.8,141.3,267.5,141.3,269.4z"/>
				<path class="st24" d="M138.9,273.2c-2-3.4-5.1-6.9-8.1-6.4c-0.7-2.2-0.1-3.8,0.9-5.8c-1.2-0.2-1.9,0-3.4,0.7
					c-0.5-2.7,4-7.8,7.8-9c0,2-0.2,5.9,1.8,8.6c1.4,1.8,2.4,7.3,3,12C140.3,273.3,139.5,273.3,138.9,273.2z"/>
				<path class="st14" d="M139.6,273.3c-1.9-3.7-5.3-8-8.1-8c0.1-2.3,0.3-3.4,1.6-5.1c-1.8-0.3-3.1,0-4.6,0.8c0.5-2.7,4.7-7,7.6-8.2
					c0,2-0.2,5.9,1.8,8.6c1.4,1.9,2.6,7.6,3.1,12C140.6,273.3,140.2,273.3,139.6,273.3z"/>
				<path class="st1" d="M141.3,269.8c-3.2-4.8-6.8-6.3-9-6.3c0.5-2.1,1.6-4.5,2.4-5.4c-3.5,0-4.5,0.7-6,1.8c0.5-2.7,4.5-6,7.4-7.2
					c0,2-0.2,5.9,1.8,8.6C140,263.9,141.3,265.8,141.3,269.8z"/>
				<path class="st24" d="M143.7,273.2c2-3.4,5.1-6.9,8.1-6.4c0.7-2.2,0.1-3.8-0.9-5.8c1.2-0.2,1.9,0,3.4,0.7c0.5-2.7-4-7.8-7.8-9
					c0,2,1.7,6.2-1.5,8.7c-2.2,1.6-3.7,7.2-4,11.9c0.1,0,0.2,0,0.4,0C142.1,273.3,142.9,273.3,143.7,273.2z"/>
				<path class="st14" d="M142.9,273.3c1.9-3.7,5.3-8,8.1-8c-0.1-2.3-0.3-3.4-1.6-5.1c1.8-0.3,3.1,0,4.6,0.8c-0.5-2.7-4.7-7-7.6-8.2
					c0,2,0.3,6.1-1.8,8.6c-1.6,1.7-2.8,7.4-3.2,12C142,273.3,142.5,273.3,142.9,273.3z"/>
				<path class="st1" d="M141.3,269.8c3.2-4.8,6.8-6.3,9-6.3c-0.5-2.1-1.6-4.5-2.4-5.4c3.5,0,4.5,0.7,6,1.8c-0.5-2.7-4.5-6-7.4-7.2
					c0,2,0.2,5.9-1.8,8.6C142.7,263.9,141.3,265.8,141.3,269.8z"/>
				<path class="st23" d="M141,225.8c7.4,0,10.9,4.8,11.1,8.6c0.2,3.7,1.5,4,3.1,0.7c1.6-3.4-2.3-18-13.6-18
					c-11.4,0-16,11.3-14.4,17.3c1.6,6.1,3.5,2.6,3.5,0C130.5,231.8,132.8,226,141,225.8z"/>
				
					<ellipse transform="matrix(0.2172 -0.9761 0.9761 0.2172 -109.0111 335.4413)" class="st10" cx="154.6" cy="235.7" rx="3.4" ry="1.5"/>
				
					<ellipse transform="matrix(0.9761 -0.2172 0.2172 0.9761 -48.1336 33.4215)" class="st13" cx="128" cy="235.7" rx="1.5" ry="3.4"/>
				<path class="st23" d="M132,223.2c-0.7,4.3,11.2,9.4,20.8,9.8C153.7,221.7,139.4,218.9,132,223.2z"/>
			</g>
			<path class="st7" d="M147.1,238.8c0.4,0,0.8-0.1,1.2-0.1c1.8-0.2,4.3-1.4,4.3-1.8c0.1-0.4-0.1-2.5,0-3c0-0.3-3.5-0.2-5.5,0.1v0.5
				c1.7-0.2,4.6-0.3,4.5,0.3c0,0.3,0,1.9-0.5,2.4c-0.5,0.5-2.1,0.9-3.6,1.1c-0.2,0-0.3,0-0.5,0.1v0.4H147.1z M135.1,238.8
				c1.6,0.1,3.4,0.1,3.7-0.2c0.4-0.4,1.1-1.8,1.2-2.1c0.1-0.5,1.9-0.4,2,0c0.1,0.3,0.8,1.7,1.2,2.1c0.3,0.3,2.1,0.3,3.7,0.2v-0.4
				c-1.3,0.1-2.6,0-3.3-0.3s-1.5-1.9-1.2-2.4c0.3-0.5,2.6-1,4.2-1.2c0.1,0,0.2,0,0.3,0V234c-0.3,0-0.5,0.1-0.7,0.1
				c-2.4,0.4-3.8,0.8-5.1,0.8c-1.4,0-2.7-0.4-5.4-0.8c-0.2,0-0.4-0.1-0.7-0.1v0.5c0.1,0,0.2,0,0.3,0c1.6,0.2,3.9,0.7,4.2,1.2
				s-0.6,2.1-1.2,2.4c-0.6,0.3-1.9,0.4-3.3,0.3v0.4H135.1z M129.6,233.9c0.1,0.6-0.1,2.6,0,3c0.1,0.4,2.5,1.6,4.3,1.8
				c0.4,0,0.8,0.1,1.2,0.1v-0.4c-0.2,0-0.3,0-0.5-0.1c-1.5-0.2-3.1-0.6-3.6-1.1c-0.5-0.5-0.5-2.1-0.5-2.4c0-0.6,2.9-0.5,4.5-0.4
				v-0.5C133,233.7,129.6,233.6,129.6,233.9z"/>
		</g>
		<circle class="st14" cx="444.7" cy="355.1" r="59"/>
		<path class="st19" d="M423.4,337.8c-3.3,4.2-10.1,29.4-0.5,43.9c1.9,3,4.5,5.3,7.4,7.3c4.6,0.8,9.5,1.2,14.5,1.2
			c4.1,0,8.2-0.3,12-0.8c0.1-0.3,0.1-0.6,0.2-0.9C457.3,380.2,429.7,334.5,423.4,337.8z"/>
		<path class="st19" d="M465.1,337.8c3.3,4.2,9.6,27.8,0.1,42.3c-2.7,4.1-6.6,7.3-10.8,9.5c-3.1,0.4-6.3,0.5-9.7,0.5
			c-4.5,0-8.9-0.3-13.1-1c-0.1-0.2-0.1-0.5-0.1-0.8C430.9,380.2,458.6,334.5,465.1,337.8z"/>
		<path class="st2" d="M422.6,392.6c-4,2.6-6.3,7.3-8.6,13c9,5.4,19.4,8.6,30.6,8.6c11.2,0,21.8-3.1,30.6-8.6
			c-2.2-5.7-4.5-10.4-8.6-13c-10.1-6.3-16.1-7.9-22.1-7.9C438.6,384.5,432.7,386,422.6,392.6z"/>
		<path class="st10" d="M436.4,362.4h16.7v24.2c0,8.2-16.7,9.1-16.7,0V362.4z"/>
		<polygon class="st11" points="453,377.6 453,374.5 436.4,374.5 436.4,385.9 		"/>
		<path class="st10" d="M444.6,331.8c35.4,0,21.1,46.7,0,46.7C423.7,378.4,409.4,331.8,444.6,331.8z"/>
		<path class="st19" d="M451.9,336.2c5.8,2.9,10.6,9.8,11.8,17.1c1.2,7.4,1,4.3,3.6-1.2c2.5-5.4-3.7-29-22.1-29
			c-18.3,0-25.8,18.1-23.3,28c2.5,9.9,4.1,7.2,5.6-0.3C429.3,343.4,435.8,334.6,451.9,336.2z"/>
		<path class="st12" d="M461.3,376.9c10.3-24.7-5.9-40.1-9.5-40.3C458.6,335.4,475.1,350.7,461.3,376.9z"/>
		<path class="st10" d="M453.1,385.8c-0.8,8-8.4,14.8-8.4,21.3c0-6.4-7.7-13.3-8.4-21.4L453.1,385.8z"/>
		<path class="st25" d="M444.7,404.1c3.6-5.4,7.5-8.6,12-10c2.2-0.7,6.2-1.4,8.4-0.4c-4-4.5-8.3-6.9-12.1-11.2
			C453.1,394.9,444.6,397.1,444.7,404.1z"/>
		<path class="st2" d="M444.7,404.1c2.7-5.8,7-10.7,11.6-12.1c2.2-0.7,4.4-0.5,6.5,0.5c-4-4.5-5.9-7.3-9.7-10
			C453.1,394.9,444.6,397.1,444.7,404.1z"/>
		<path class="st25" d="M444.7,404.1c-3.6-5.4-7.5-8.6-12-10c-2.2-0.7-6.2-1.4-8.4-0.4c4-4.5,8.3-6.9,12.1-11.2
			C436.5,394.9,444.8,397.1,444.7,404.1z"/>
		<path class="st2" d="M444.7,404.1c-2.7-5.8-7-10.7-11.6-12.1c-2.2-0.7-4.4-0.5-6.5,0.5c4-4.5,5.9-7.3,9.7-10
			C436.5,394.9,444.8,397.1,444.7,404.1z"/>
		<path class="st12" d="M429.2,381.8c-11.6-50.3,17.2-45.2,22.6-45C443.8,330.7,407.1,330.3,429.2,381.8z"/>
		<g>
			<circle class="st2" cx="535.8" cy="420.3" r="18.2"/>
			<path class="st10" d="M533.3,422.6h5.1v8.1c0,2.5-5.1,2.8-5.1,0V422.6z"/>
			<path class="st7" d="M529.1,431.8c-1.2,0.8-2,2.2-2.6,4c2.7,1.7,6,2.6,9.5,2.6s6.8-1,9.5-2.6c-0.7-1.8-1.4-3.2-2.6-4
				c-3.1-1.9-5-2.2-6.9-2.3C533.9,429.5,532.1,429.8,529.1,431.8z"/>
			<polygon class="st11" points="538.4,427.2 538.4,426.3 533.3,426.3 533.3,429.8 			"/>
			<path class="st10" d="M535.8,413.1c11,0,6.5,14.4,0,14.4C529.4,427.5,524.9,413.1,535.8,413.1z"/>
			<path class="st1" d="M535.3,434l-0.3,4.5c0.3,0,0.6,0,0.9,0s0.6,0,0.9,0l-0.3-4.5l1.8-4.3c-1.7,0-3.1,0-4.7,0L535.3,434z"/>
			<polygon class="st26" points="533.3,428 531.3,430.5 532.4,433.6 535.8,429.6 			"/>
			<polygon class="st7" points="533.3,428 531.3,430.5 532.5,432.9 535.8,429.6 			"/>
			<polygon class="st26" points="538.4,428 540.5,430.5 539.4,433.6 535.9,429.6 			"/>
			<polygon class="st7" points="538.4,428 540.5,430.5 539.3,432.9 535.9,429.6 			"/>
			<path class="st23" d="M541.3,417.5c0-1.2-1-2.5-1.7-2.8c-0.7-0.4-4.4,0.1-6.3,1.3c-2,1.3-2.4,2.3-2.6,3.5c0,0.4-0.1,0.7-0.3,0.7
				c-0.6-0.2-0.7-1.3-1.3-1.6c-0.8-0.5-0.4-1.9-0.1-3.1c0.3-1.2,2-4.4,6.8-4.6c2.4-0.1,3.3,1.4,4,1.5c2.2,0.4,3.5,4.4,2.9,6.2
				c-0.3,0.8-0.7,1.4-1.3,1.2C541.1,419.8,541.3,418.2,541.3,417.5z"/>
			
				<ellipse transform="matrix(0.2174 -0.9761 0.9761 0.2174 14.8479 858.0056)" class="st10" cx="542.5" cy="419.7" rx="1.7" ry="0.7"/>
			
				<ellipse transform="matrix(0.9762 -0.217 0.217 0.9762 -78.4558 124.8311)" class="st13" cx="529.2" cy="419.7" rx="0.7" ry="1.7"/>
		</g>
		<g>
			<circle class="st7" cx="318.6" cy="466.9" r="30.6"/>
			<path class="st27" d="M307.1,480.8c-3,1.9-4.2,6.1-6,11.2c4.9,3.4,11,5.4,17.5,5.4c6.4,0,12.5-2,17.4-5.4c-1.8-5-3-9.3-6-11.2
				c-5.2-3.2-8.4-4-11.5-4.1C315.5,476.7,312.3,477.5,307.1,480.8z"/>
			<path class="st28" d="M325.4,478.4c-2.7-1.2-4.8-1.6-6.9-1.6c-2.1,0-4.2,0.3-6.9,1.5c0.7,3.1,3.5,5.5,6.9,5.5
				S324.7,481.5,325.4,478.4z"/>
			<path class="st10" d="M314.3,465.3h8.7v12.5c0,4.2-8.7,4.7-8.7,0V465.3z"/>
			<path class="st18" d="M318.6,449.4c18.3,0,10.9,24.2,0,24.2S300.3,449.4,318.6,449.4z"/>
			<path class="st10" d="M318.6,449.4c18.3,0,10.9,24.2,0,24.2V449.4z"/>
			<path class="st19" d="M318.4,452.3c2,0,2.9-0.9,4.3-0.3c2.8,1.3,5.1,4.9,5.8,7.5c1,3.7,0.4,3.4,1.8,0.6
				c1.3-2.8-1.9-15.1-11.4-15.1c-9.5,0-13.4,9.4-12.1,14.5c1.3,5.1,1.3,3.9,2.1,0C309.8,455.6,311.6,452.4,318.4,452.3z"/>
			<path class="st19" d="M323.5,452.2c-1.3,1.2-5.9,3.8-8.6,3.8c0.7-0.6,1.2-1.2,1.4-1.9c0.2-0.7-3.6,2.7-5.1,2.8
				c0.8-1,0.9-1.3,1-1.9c-2.5,1.4-2.5,4-2.5,6.2c0,2.1-1.2,1.5-1-0.8s-1.4-5.2-0.6-7.2c0.8-1.9,11.2-4.4,14.5-4.4s6,3.3,6.9,4.7
				c0.8,1.4-0.7,5.4-0.7,6.8s-1,2.7-1,0C327.6,457.6,325.9,454.8,323.5,452.2z"/>
			<g>
				
					<ellipse transform="matrix(0.2173 -0.9761 0.9761 0.2173 -191.3575 682.2527)" class="st10" cx="329.7" cy="460.4" rx="2.8" ry="1.2"/>
				
					<ellipse transform="matrix(0.9761 -0.2173 0.2173 0.9761 -92.712 77.8055)" class="st13" cx="307.4" cy="460.5" rx="1.2" ry="2.8"/>
			</g>
			<g>
				<path class="st28" d="M305.7,482.1c-2,2.2-3.1,5.8-4.6,9.9c2,1.4,4.1,2.5,6.3,3.4c0.3-1.4,0.5-2.8,0.5-4.3
					C308,487.8,307.1,484.6,305.7,482.1z"/>
				<path class="st28" d="M329.7,495.4c2.3-0.9,4.4-2,6.3-3.4c-1.4-4.1-2.5-7.8-4.5-10c-1.4,2.5-2.3,5.6-2.3,9.1
					C329.2,492.6,329.4,494,329.7,495.4z"/>
			</g>
		</g>
		<g>
			<circle class="st29" cx="403.4" cy="174.9" r="18.2"/>
			<path class="st7" d="M396.6,183.3c-1.8,1.2-2.5,3.6-3.6,6.6c2.9,2.1,6.5,3.3,10.5,3.3c3.8,0,7.5-1.2,10.4-3.2
				c-1.1-3-1.8-5.5-3.6-6.6c-3.1-1.9-5-2.4-6.9-2.4C401.5,180.8,399.7,181.3,396.6,183.3z"/>
			<path class="st10" d="M400.8,173.9h5.1v7.5c0,1.3-1.4,5.6-2.7,5.5c-1.2,0-2.4-4.2-2.4-5.5V173.9z"/>
			<polygon class="st11" points="406,178.6 406,177.6 400.8,177.6 400.8,181.2 			"/>
			<path class="st10" d="M403.4,164.4c11,0,6.5,14.4,0,14.4S392.4,164.4,403.4,164.4z"/>
			<path class="st30" d="M406.6,165.6c1.8,0.7,2.5,3,2.9,4.5c0.6,2.2,0.3,2,1,0.3c0.8-1.7-1.1-9-6.9-9c-5.6,0-8,5.6-7.2,8.7
				c0.8,3,0.8,2.3,1.3,0C399.1,164.2,403.5,166.9,406.6,165.6z"/>
			<path class="st30" d="M407,166.9c-1,0.4-4.4,2.6-5.8,2.6c-1.4,0,0.3-0.3,0.6-0.7c0.4-0.4-2.7,1-3.4,1s0-0.1,0.3-0.6
				c0.3-0.5-1.2,0.3-1,1.5c0.3,1.3-1.1,0.8-1.1-0.4c-0.1-1.2,0-1.4,0.5-2.5s6.6-2.6,8.7-2.6s3.6,2,4,2.8c0.5,0.8,0.6,1.8,0.4,2.5
				c-0.2,0.8-0.9,1.1-0.9,0.1C409.3,169.8,407.7,168.6,407,166.9z"/>
			<g>
				
					<ellipse transform="matrix(0.217 -0.9762 0.9762 0.217 154.1043 534.3287)" class="st10" cx="410.1" cy="171.1" rx="1.7" ry="0.7"/>
				
					<ellipse transform="matrix(0.9761 -0.2174 0.2174 0.9761 -27.7029 90.3538)" class="st13" cx="396.8" cy="171.1" rx="0.7" ry="1.7"/>
			</g>
			<g>
				<path class="st31" d="M395.7,184c-1.2,1.3-1.9,3.4-2.7,5.9c1.2,0.8,2.4,1.5,3.8,2c0.2-0.8,0.3-1.7,0.3-2.5
					C397.1,187.4,396.6,185.5,395.7,184z"/>
				<path class="st31" d="M410,191.9c1.3-0.5,2.6-1.2,3.8-2c-0.9-2.4-1.5-4.6-2.7-5.9c-0.9,1.5-1.4,3.3-1.4,5.4
					C409.8,190.3,409.9,191.1,410,191.9z"/>
			</g>
		</g>
		<g>
			<circle class="st14" cx="503.4" cy="161.5" r="30.6"/>
			<path class="st19" d="M512.9,158.9c-2.9,1.7-0.9,5.2,0.4,3.2c1.2,1.9-2,7.7-8,3.1C499.3,160.6,507.9,151.6,512.9,158.9z"/>
			<path class="st19" d="M494.1,158.6c2.9,1.7,0.9,5.2-0.4,3.2c-1.2,1.9,2,7.7,8,3.1C507.6,160.4,499,151.4,494.1,158.6z"/>
			<path class="st19" d="M495,162.7c2.4,2.3-0.3,5.2-1.1,3c-1.6,1.5,0.3,7.9,7.1,4.8C507.8,167.6,501.4,156.9,495,162.7z"/>
			<path class="st19" d="M511.8,162.7c-2.4,2.3,0.3,5.2,1.1,3c1.6,1.5-0.3,7.9-7.1,4.8C499.1,167.6,505.5,156.9,511.8,162.7z"/>
			<path class="st23" d="M492,175.5c-3,1.9-4.2,6.1-6,11.2c4.9,3.4,11,5.4,17.5,5.4c6.4,0,12.5-2,17.4-5.4c-1.8-5-3-9.3-6-11.2
				c-5.2-3.2-8.4-4-11.5-4.1C500.3,171.4,497.1,172.2,492,175.5z"/>
			<path class="st10" d="M499.1,159.9h8.7v12.5c0,4.2-8.7,4.7-8.7,0V159.9z"/>
			<polygon class="st11" points="507.7,167.8 507.7,166.1 499.1,166.1 499.1,172.1 			"/>
			<path class="st10" d="M503.4,144c18.3,0,10.9,24.2,0,24.2C492.5,168.3,485.1,144,503.4,144z"/>
			<path class="st10" d="M503.4,183.5c0-1.6-4.2-7.3-4.2-10.4h8.6C507.7,176.1,503.4,181.9,503.4,183.5z"/>
			<path class="st32" d="M503.4,183.8c-2.7-4-5.6-5.3-7.5-5.3c0.4-1.8,1.4-3.7,2-4.5c-2.9,0-3.8,0.6-5,1.5c0.4-2.3,3.8-5,6.1-6
				c0,1.7-0.2,4.9,1.5,7.2C502.3,178.8,503.4,180.5,503.4,183.8z"/>
			<path class="st32" d="M503.4,183.8c2.7-4,5.6-5.3,7.5-5.3c-0.4-1.8-1.4-3.7-2-4.5c2.9,0,3.8,0.6,5,1.5c-0.4-2.3-3.8-5-6.1-6
				c0,1.7,0.2,4.9-1.5,7.2C504.6,178.8,503.4,180.5,503.4,183.8z"/>
			<path class="st19" d="M503.1,146.9c6.1,0,9.2,4,9.3,7.2c0.2,3.1,1.3,3.4,2.6,0.6s-1.9-15.1-11.4-15.1s-13.4,9.4-12.1,14.5
				c1.3,5.1,3,2.2,2.9,0C494.4,151.9,496.3,147.1,503.1,146.9z"/>
			<g>
				
					<ellipse transform="matrix(0.217 -0.9762 0.9762 0.217 251.5012 623.8105)" class="st10" cx="514.6" cy="155.1" rx="2.8" ry="1.2"/>
				
					<ellipse transform="matrix(0.9762 -0.217 0.217 0.9762 -21.942 110.5273)" class="st13" cx="492.3" cy="155.2" rx="1.2" ry="2.8"/>
			</g>
			<path class="st19" d="M495.6,144.7c-0.6,3.6,6.3,8.8,14.3,9.2C510.7,144.4,501.9,141.2,495.6,144.7z"/>
			<path class="st32" d="M503.3,192.1c0-3.4,0-7.8,0.2-10.2c-0.7,2.6-0.8,6.9-0.6,10.2C503.1,192.1,503.2,192.1,503.3,192.1z"/>
		</g>
		<g>
			<rect x="454.7" y="228.5" class="st1" width="109.7" height="49.7"/>
			<polygon class="st1" points="556.7,271.5 523,298.5 534.3,271.2 			"/>
			<g>
				<rect x="461.7" y="234.5" class="st7" width="17.8" height="5.4"/>
				<rect x="487.4" y="234.5" class="st33" width="49" height="5.4"/>
				<rect x="541.7" y="234.5" class="st33" width="15.7" height="5.4"/>
				<rect x="487.4" y="245.3" class="st33" width="21.7" height="5.4"/>
				<rect x="511.9" y="245.3" class="st33" width="6.2" height="5.4"/>
				<rect x="520.5" y="245.3" class="st33" width="5.7" height="5.4"/>
			</g>
			<g>
				<rect x="461.7" y="257.2" class="st16" width="17.8" height="5.4"/>
				<rect x="487.4" y="257.2" class="st33" width="15.7" height="5.4"/>
				<rect x="516.3" y="257.2" class="st33" width="13.2" height="5.4"/>
				<rect x="487.4" y="268" class="st33" width="24.2" height="5.4"/>
				<rect x="529" y="268" class="st33" width="21.7" height="5.4"/>
				<rect x="506.7" y="257.2" class="st33" width="7.3" height="5.4"/>
				<rect x="531.8" y="257.2" class="st33" width="25.7" height="5.4"/>
				<rect x="514.4" y="268" class="st33" width="11.9" height="5.4"/>
			</g>
		</g>
		<g>
			<circle class="st7" cx="371" cy="249.1" r="18.2"/>
			<path class="st1" d="M364.2,257.4c-1.8,1.2-2.5,3.7-3.6,6.6c1.4,1,3,1.8,4.7,2.4c1.6-1.3,3.7-0.8,5.7-0.8
				c1.7-2.6,3.9-0.8,5.7,0.8c1.7-0.6,3.3-1.3,4.7-2.3c-1-3-1.8-5.5-3.6-6.6c-3.1-1.9-5-2.4-6.9-2.4
				C369.2,255,367.3,255.4,364.2,257.4z"/>
			<path class="st10" d="M368.5,248.2h5.1v7.5c0,2.5-5.1,2.8-5.1,0V248.2z"/>
			<polygon class="st11" points="373.6,252.8 373.6,251.9 368.5,251.9 368.5,255.4 			"/>
			<path class="st10" d="M371,238.6c11,0,6.5,14.4,0,14.4C364.5,253.1,360.1,238.6,371,238.6z"/>
			<path class="st19" d="M370.8,239.9c3.6,0,5.4,2.4,5.5,4.2c0.1,1.8,0.8,2,1.5,0.3c0.8-1.7-1.1-9-6.9-9c-5.6,0-8,5.6-7.2,8.7
				c0.8,3,1.8,1.3,1.7,0C365.6,242.9,366.8,240,370.8,239.9z"/>
			<path class="st19" d="M365.6,245.3c-0.2,1.3-1.3,0.4-1.4-0.8c-0.1-1.2,0-1.4,0.5-2.5s3-4.1,6.1-4.1c3.1,0,6.1,3.4,6.5,4.2
				c0.5,0.8,0.6,1.8,0.4,2.5c-0.2,0.8-0.7,1.3-1,0.4c-0.9-3.2-3.5-5.2-5.8-5.2C368.1,239.9,366,243,365.6,245.3z"/>
			<g>
				
					<ellipse transform="matrix(0.2174 -0.9761 0.9761 0.2174 56.1293 560.5518)" class="st10" cx="377.6" cy="245.3" rx="1.7" ry="0.7"/>
				
					<ellipse transform="matrix(0.9762 -0.217 0.217 0.9762 -44.541 84.903)" class="st13" cx="364.3" cy="245.3" rx="0.7" ry="1.7"/>
			</g>
			<path class="st34" d="M367,255.9v8h4.1h4.1V256c0.5,0.2,1,0.5,1.6,0.8v9.7c-1.8,0.6-3.7,0.9-5.7,0.9c-1.9,0-3.8-0.3-5.7-0.9v-1.1
				v-8.6C365.8,256.4,366.5,256.1,367,255.9z"/>
			<path class="st19" d="M375.3,240.3c0.4,2.2-3.8,5.2-8.6,5.4C366.4,240.2,371.6,238.3,375.3,240.3z"/>
		</g>
		<path class="st2" d="M320.8,191.2c-0.3,0-0.6,0-0.9,0.1c-1.2,0.2-2.3,0.7-3.2,1.4c0-0.6-0.1-1.2-0.2-1.7c-0.1-0.4-0.2-0.8-0.3-1.2
			c-1-3.3-3.4-5.9-6.6-7.2c-0.4-0.1-0.7-0.3-1.1-0.4c-0.9-0.2-1.9-0.4-2.9-0.4c-0.2,0-0.3,0-0.5,0c-5.9,0.2-10.7,5.1-10.7,11.1
			c0,1.1,0.2,2.2,0.5,3.2c-2.1,0-3.8,1.8-3.8,3.9c0,2.2,1.7,3.9,3.9,3.9h10.6h0.5h14.8c3.5,0,6.4-2.9,6.4-6.4
			C327.3,194.2,324.4,191.2,320.8,191.2z"/>
		<path class="st2" d="M345.5,393.7c-0.3,0-0.6,0-0.9,0.1c-1.2,0.2-2.3,0.7-3.2,1.4c0-0.6-0.1-1.2-0.2-1.7c-0.1-0.4-0.2-0.8-0.3-1.2
			c-1-3.3-3.4-5.9-6.6-7.2c-0.4-0.1-0.7-0.3-1.1-0.4c-0.9-0.2-1.9-0.4-2.9-0.4c-0.2,0-0.3,0-0.5,0c-5.9,0.2-10.7,5.1-10.7,11.1
			c0,1.1,0.2,2.2,0.5,3.2c-2.1,0-3.8,1.8-3.8,3.9c0,2.2,1.7,3.9,3.9,3.9h10.6h0.5h14.8c3.5,0,6.4-2.9,6.4-6.4
			C351.9,396.6,349,393.7,345.5,393.7z"/>
		<g>
			<rect x="151.4" y="372.7" class="st1" width="109.7" height="49.7"/>
			<polygon class="st1" points="157.9,375.2 191.6,348.2 180.4,375.5 			"/>
			<g>
				<rect x="158.4" y="378.6" class="st7" width="17.8" height="5.4"/>
				<rect x="184.1" y="378.6" class="st33" width="49" height="5.4"/>
				<rect x="238.5" y="378.6" class="st33" width="15.7" height="5.4"/>
				<rect x="184.1" y="389.5" class="st33" width="21.7" height="5.4"/>
				<rect x="208.7" y="389.5" class="st33" width="6.2" height="5.4"/>
				<rect x="217.2" y="389.5" class="st33" width="5.7" height="5.4"/>
			</g>
			<g>
				<rect x="158.4" y="401.4" class="st16" width="17.8" height="5.4"/>
				<rect x="184.1" y="401.4" class="st33" width="15.7" height="5.4"/>
				<rect x="213.1" y="401.4" class="st33" width="13.2" height="5.4"/>
				<rect x="184.1" y="412.2" class="st33" width="24.2" height="5.4"/>
				<rect x="225.8" y="412.2" class="st33" width="21.7" height="5.4"/>
				<rect x="203.4" y="401.4" class="st33" width="7.3" height="5.4"/>
				<rect x="228.5" y="401.4" class="st33" width="25.7" height="5.4"/>
				<rect x="211.2" y="412.2" class="st33" width="11.9" height="5.4"/>
			</g>
		</g>
		<path class="st2" d="M133.3,317.4c-0.3,0-0.6,0-0.9,0.1c-1.2,0.2-2.3,0.7-3.2,1.4c0-0.6-0.1-1.2-0.2-1.7c-0.1-0.4-0.2-0.8-0.3-1.2
			c-1-3.3-3.4-5.9-6.6-7.2c-0.4-0.1-0.7-0.3-1.1-0.4c-0.9-0.2-1.9-0.4-2.9-0.4c-0.2,0-0.3,0-0.5,0c-5.9,0.2-10.7,5.1-10.7,11.1
			c0,1.1,0.2,2.2,0.5,3.2c-2.1,0-3.8,1.8-3.8,3.9c0,2.2,1.7,3.9,3.9,3.9H118h0.5h14.8c3.5,0,6.4-2.9,6.4-6.4
			C139.6,320.2,136.8,317.4,133.3,317.4z"/>
		<path class="st2" d="M572,335.5c-0.3,0-0.6,0-0.9,0.1c-1.2,0.2-2.3,0.7-3.2,1.4c0-0.6-0.1-1.2-0.2-1.7c-0.1-0.4-0.2-0.8-0.3-1.2
			c-1-3.3-3.4-5.9-6.6-7.2c-0.4-0.1-0.7-0.3-1.1-0.4c-0.9-0.2-1.9-0.4-2.9-0.4c-0.2,0-0.3,0-0.5,0c-5.9,0.2-10.7,5.1-10.7,11.1
			c0,1.1,0.2,2.2,0.5,3.2c-2.1,0-3.8,1.8-3.8,3.9c0,2.2,1.7,3.9,3.9,3.9h10.6h0.5H572c3.5,0,6.4-2.9,6.4-6.4
			C578.4,338.4,575.6,335.5,572,335.5z"/>
		<g>
			<circle class="st14" cx="88.8" cy="395.5" r="30.7"/>
			<path class="st30" d="M77.3,409.5c-3,1.9-4.2,6.1-6,11.2c4.9,3.4,11,5.5,17.5,5.5c6.5,0,12.6-2,17.5-5.4c-1.8-5-3-9.3-6-11.2
				c-5.2-3.3-8.4-4-11.5-4.1C85.5,405.2,82.4,406.1,77.3,409.5z"/>
			<path class="st10" d="M84.4,393.8h8.7v12.6c0,2.1-3.3,9.8-4.3,16.6c-0.7-4.1-4.3-14.3-4.3-16.6C84.4,406.4,84.4,393.8,84.4,393.8
				z"/>
			<path class="st7" d="M91,413.9c-0.9,2.8-1.8,6-2.2,9.2c-0.4-2.1-1.5-5.7-2.5-9.2c0.8,0.2,1.6,0.3,2.5,0.3
				C89.6,414.1,90.3,414,91,413.9z"/>
			<polygon class="st11" points="93.1,401.7 93.1,400.1 84.4,400.1 84.4,406 			"/>
			<path class="st10" d="M88.8,377.8c18.3,0,11,24.3,0,24.3C77.8,402.1,70.3,377.8,88.8,377.8z"/>
			<path class="st12" d="M88.6,380.8c6.1,0,9.2,3.4,10.2,7.2c1,3.7,0.4,3.4,1.8,0.6c1.3-2.8-1.9-15.1-11.5-15.1S75.7,382.9,77,388
				c1.3,5.1,1.3,3.9,2.1,0C79.9,384.1,81.7,381,88.6,380.8z"/>
			<g>
				
					<ellipse transform="matrix(0.2172 -0.9761 0.9761 0.2172 -301.4395 402.0297)" class="st10" cx="99.9" cy="389" rx="2.9" ry="1.2"/>
				
					<ellipse transform="matrix(0.9761 -0.2172 0.2172 0.9761 -82.6437 26.1349)" class="st13" cx="77.6" cy="389" rx="1.2" ry="2.9"/>
			</g>
			<g>
				<path class="st7" d="M88.8,388.8h0.7c0,0.5,0.1,1.1,0.4,1.6c0.7,1.1,2.5,2.2,3.9,2.3c1.4,0.1,2.6-0.8,3-2.7
					c0.3-1.9-0.6-2.8-1.2-3.1c-0.5-0.3-1.2-0.3-2-0.3l0,0H89h-0.2v0.3H89h2.4c-0.3,0.1-0.7,0.2-0.9,0.3c-0.5,0.3-0.9,0.7-1,1.3h-0.8
					v0.3H88.8z M81.9,386.9c-0.6,0.3-1.5,1.2-1.2,3.1c0.3,1.9,1.5,2.9,3,2.7c1.4-0.1,3.2-1.2,3.9-2.3c0.3-0.5,0.5-1.1,0.4-1.6h0.7
					v-0.3H88c-0.1-0.6-0.5-1.1-1-1.3c-0.2-0.1-0.5-0.2-0.9-0.3h2.4h0.2v-0.3h-0.2h-4.6l0,0C83.1,386.5,82.4,386.6,81.9,386.9z"/>
				<g>
					<path class="st31" d="M82,387.1c-0.4,0.2-0.6,0.5-0.8,0.8c-0.3,0.6-0.3,1.3-0.2,2c0.2,0.9,0.6,1.9,1.6,2.3
						c0.3,0.1,0.7,0.2,1.1,0.1c1.3-0.1,3-1.1,3.7-2.2c0.5-0.7,0.6-1.8,0-2.5c-0.1-0.1-0.3-0.3-0.5-0.3c-0.7-0.3-1.8-0.5-2.6-0.6
						C83.6,386.8,82.7,386.8,82,387.1z"/>
					<path class="st31" d="M95.5,387.1c0.4,0.2,0.6,0.5,0.8,0.8c0.3,0.6,0.3,1.3,0.2,2c-0.2,0.9-0.6,1.9-1.6,2.3
						c-0.3,0.1-0.7,0.2-1.1,0.1c-1.3-0.1-3-1.1-3.7-2.2c-0.5-0.7-0.6-1.8,0-2.5c0.1-0.1,0.3-0.3,0.5-0.3c0.7-0.3,1.8-0.5,2.6-0.6
						C93.9,386.8,94.8,386.8,95.5,387.1z"/>
				</g>
			</g>
			<path class="st17" d="M88.8,423c0-5.6-4.3-13.9-4.3-19.6c-3.8,1.4-5.6,3.6-7.2,6C85.8,409.6,86.4,418.2,88.8,423z"/>
			<path class="st17" d="M88.8,423c0-8.2,4.4-14.1,4.3-19.9c2.9,0.4,7,4.9,7.4,6.5C91.9,409.8,91.1,418.2,88.8,423z"/>
			<path class="st12" d="M93.8,380.5c-1.3,1.2-5.9,3.8-8.6,3.8c0.7-0.6,1.2-1.2,1.4-1.9c0.2-0.7-3.6,2.7-5.1,2.8
				c0.8-1,0.9-1.3,1-1.9c-2.5,1.4-2.5,4-2.5,6.2c0,2.1-1.2,1.5-1-0.8c0.2-2.3-1.4-5.2-0.6-7.2c0.8-1.9,11.2-4.4,14.5-4.4
				s6,3.3,6.9,4.7c0.8,1.4-0.7,5.4-0.7,6.8s-1,2.7-1,0C97.8,385.9,96.2,383.1,93.8,380.5z"/>
		</g>
	</g>
</g>
</svg>
