<?xml version="1.0" encoding="utf-8"?>
<!-- Generator: Adobe Illustrator 20.0.0, SVG Export Plug-In . SVG Version: 6.00 Build 0)  -->
<svg version="1.1" id="Layer_1" xmlns="http://www.w3.org/2000/svg" xmlns:xlink="http://www.w3.org/1999/xlink" x="0px" y="0px"
	 viewBox="0 0 612 612" style="enable-background:new 0 0 612 612;" xml:space="preserve">
<style type="text/css">
	.st0{fill:#113457;}
	.st1{opacity:0.7;fill:#F36E4E;enable-background:new    ;}
	.st2{fill:#FFFFFF;stroke:#010101;stroke-width:2;stroke-miterlimit:10;}
	.st3{fill:#103754;}
	.st4{fill:#FFFFFF;}
	.st5{font-family:'Arial-Black';}
	.st6{font-size:15.4637px;}
	.st7{fill:#030303;}
	.st8{clip-path:url(#SVGID_2_);}
	.st9{fill:#FCCCBC;}
	.st10{opacity:0.1;fill:#FFFFFF;enable-background:new    ;}
	.st11{fill:#A7DAE9;}
	.st12{opacity:0.6;fill:#FFFFFF;enable-background:new    ;}
	.st13{fill:#0F303F;}
	.st14{fill:#2D5972;}
	.st15{fill:#164967;}
	.st16{fill:#37C2D6;}
	.st17{fill:#1181C3;}
	.st18{clip-path:url(#SVGID_4_);}
	.st19{font-size:13.8428px;}
	.st20{font-size:7.9977px;}
	.st21{font-size:9.3906px;}
	.st22{font-size:10.6862px;}
	.st23{font-size:9.8486px;}
	.st24{font-size:7.319px;}
	.st25{fill:#78909C;}
	.st26{fill:#546E7A;}
	.st27{opacity:0.2;fill:url(#SVGID_5_);enable-background:new    ;}
</style>
<symbol  id="Arrow_7_1_" viewBox="-8.5 -47.2 17 94.4">
	<polygon class="st0" points="8.5,-21.8 0,-47.2 -8.5,-21.8 -3.4,-21.8 -3.4,47.2 2.7,47.2 2.7,-21.8 	"/>
</symbol>
<g id="Arrow_7">
</g>
<g>
	<g>
		<circle class="st1" cx="306" cy="306" r="306"/>
		<g>
			<path class="st2" d="M285.3,393.9h-90.5c-2.5,0-4.5-2-4.5-4.5v-75.1c0-2.5,2-4.5,4.5-4.5h90.5c2.5,0,4.5,2,4.5,4.5v75.1
				C289.8,391.9,287.8,393.9,285.3,393.9z"/>
			<rect x="194.3" y="317" class="st3" width="91.6" height="61.5"/>
			<text transform="matrix(1 0 0 1 200.9072 334.751)" class="st4 st5 st6">&gt;_</text>
			<g>
				<circle class="st7" cx="199.5" cy="383.5" r="1.2"/>
				<circle class="st7" cx="204" cy="383.5" r="1.2"/>
				<circle class="st7" cx="208.5" cy="383.5" r="1.2"/>
				<circle class="st7" cx="212.9" cy="383.5" r="1.2"/>
				<circle class="st7" cx="217.4" cy="383.5" r="1.2"/>
				<circle class="st7" cx="221.9" cy="383.5" r="1.2"/>
				<circle class="st7" cx="226.4" cy="383.5" r="1.2"/>
				<circle class="st7" cx="230.9" cy="383.5" r="1.2"/>
				<circle class="st7" cx="235.4" cy="383.5" r="1.2"/>
				<circle class="st7" cx="239.9" cy="383.5" r="1.2"/>
				<circle class="st7" cx="244.3" cy="383.5" r="1.2"/>
				<circle class="st7" cx="248.8" cy="383.5" r="1.2"/>
				<circle class="st7" cx="253.3" cy="383.5" r="1.2"/>
				<circle class="st7" cx="257.8" cy="383.5" r="1.2"/>
				<circle class="st7" cx="262.3" cy="383.5" r="1.2"/>
				<circle class="st7" cx="266.8" cy="383.5" r="1.2"/>
				<circle class="st7" cx="271.3" cy="383.5" r="1.2"/>
				<circle class="st7" cx="275.7" cy="383.5" r="1.2"/>
				<circle class="st7" cx="280.2" cy="383.5" r="1.2"/>
			</g>
			<g>
				<circle class="st7" cx="201.8" cy="386.5" r="1.2"/>
				<circle class="st7" cx="206.2" cy="386.5" r="1.2"/>
				<circle class="st7" cx="210.7" cy="386.5" r="1.2"/>
				<circle class="st7" cx="215.2" cy="386.5" r="1.2"/>
				<circle class="st7" cx="219.7" cy="386.5" r="1.2"/>
				<circle class="st7" cx="224.2" cy="386.5" r="1.2"/>
				<circle class="st7" cx="228.7" cy="386.5" r="1.2"/>
				<circle class="st7" cx="233.2" cy="386.5" r="1.2"/>
				<circle class="st7" cx="237.6" cy="386.5" r="1.2"/>
				<circle class="st7" cx="242.1" cy="386.5" r="1.2"/>
				<circle class="st7" cx="246.6" cy="386.5" r="1.2"/>
				<circle class="st7" cx="251.1" cy="386.5" r="1.2"/>
				<circle class="st7" cx="255.6" cy="386.5" r="1.2"/>
				<circle class="st7" cx="260.1" cy="386.5" r="1.2"/>
				<circle class="st7" cx="264.6" cy="386.5" r="1.2"/>
				<circle class="st7" cx="269" cy="386.5" r="1.2"/>
				<circle class="st7" cx="273.5" cy="386.5" r="1.2"/>
				<circle class="st7" cx="278" cy="386.5" r="1.2"/>
			</g>
		</g>
		<path class="st4" d="M248.3,316l38.8-0.1L287,379h-38.6C248.4,379,218.9,346.2,248.3,316z"/>
		<g id="circle_x5F_ok_1_">
			<path class="st3" d="M218.6,286.8c-4.8-4.8-12.5-4.8-17.3,0s-4.8,12.5,0,17.3s12.5,4.8,17.3,0
				C223.4,299.4,223.4,291.6,218.6,286.8z M217,292.5l-8.5,8.5c-0.1,0.1-0.3,0.1-0.5,0l-5.2-5.2c-0.1-0.1-0.1-0.3,0-0.5l2.1-2.1
				c0.1-0.1,0.3-0.1,0.5,0l2.6,2.6c0.1,0.1,0.3,0.1,0.5,0l5.9-5.9c0.1-0.1,0.3-0.1,0.5,0l2.1,2.1C217.1,292.2,217.1,292.4,217,292.5
				z"/>
		</g>
		<g>
			<g>
				<g>
					<defs>
						<circle id="SVGID_1_" cx="287.7" cy="329.3" r="276.7"/>
					</defs>
					<clipPath id="SVGID_2_">
						<use xlink:href="#SVGID_1_"  style="overflow:visible;"/>
					</clipPath>
					<g class="st8">
						<path class="st9" d="M208.2,444H248c8.5,0,15.4-6.9,15.4-15.4v-5.1c0-0.2,0-0.4,0-0.6h-34L208.2,444z"/>
						<path class="st9" d="M213.9,457.2l25.9-25.9c2.4-2.5,3.9-5.5,4.3-8.7h-25.6l-34.6,34.6L213.9,457.2L213.9,457.2z"/>
						<g>
							<g>
								<path class="st10" d="M301.6,304c11,4.4,19.7,12.9,24.4,23.8c9.7,22.6-0.8,48.8-23.4,58.5c-11,4.7-23.1,4.8-34.2,0.4l0,0
									c-11-4.4-19.7-12.9-24.4-23.7c-4.7-10.9-4.8-23-0.4-34.1c4.4-11.1,12.9-19.8,23.8-24.5C278.3,299.7,290.5,299.6,301.6,304
									L301.6,304z"/>
								<g>
									<g>
										<path class="st11" d="M272.1,388c-0.6-0.2-1.2-0.4-1.8-0.6C270.9,387.7,271.5,387.8,272.1,388z"/>
										<path class="st11" d="M270.2,387.4c-0.6-0.2-1.2-0.4-1.8-0.7C269,387,269.6,387.2,270.2,387.4z"/>
										<path class="st12" d="M301.6,304c-9.9-4-20.7-4.3-30.6-1c2-0.6,3.9-1.2,5.9-1.5c5.3,0.1,10.6,1.2,15.7,3.2
											c11,4.4,19.7,12.9,24.4,23.8c9.7,22.6-0.8,48.8-23.4,58.5c-3.1,1.3-6.3,2.3-9.5,2.9c-4-0.1-8-0.7-11.9-1.9
											c10,3,20.6,2.4,30.3-1.7c22.6-9.7,33.1-36,23.4-58.5C321.2,316.9,312.6,308.4,301.6,304z"/>
										<path class="st11" d="M270.8,303.1c-0.3,0.1-0.7,0.2-1,0.3C270.2,303.3,270.5,303.2,270.8,303.1z"/>
										<path class="st11" d="M269.6,303.5c-0.3,0.1-0.6,0.2-0.9,0.3C269,303.7,269.3,303.6,269.6,303.5z"/>
										<path class="st11" d="M268.5,303.9c-0.4,0.1-0.7,0.3-1.1,0.5C267.7,304.2,268.1,304.1,268.5,303.9z"/>
									</g>
									<g>
										<path class="st13" d="M256.2,417.8c3.9,1.6,8.4-0.3,10-4.3l4.9-12.8c1.6-3.9-0.3-8.4-4.3-10l0,0c-3.9-1.6-8.4,0.3-10,4.3
											l-4.9,12.8C250.4,411.8,252.3,416.2,256.2,417.8L256.2,417.8z"/>
									</g>
								</g>
								
									<rect x="193" y="439.4" transform="matrix(0.3724 -0.9281 0.9281 0.3724 -270.7013 509.3294)" class="st3" width="96.5" height="30.8"/>
								
									<rect x="193" y="445.8" transform="matrix(0.3724 -0.9281 0.9281 0.3724 -270.6926 509.3355)" class="st14" width="96.5" height="18"/>
								
									<rect x="218.6" y="477.3" transform="matrix(0.3725 -0.928 0.928 0.3725 -315.4716 518.8774)" class="st13" width="14.8" height="30.8"/>
								
									<rect x="218.6" y="483.7" transform="matrix(0.3724 -0.9281 0.9281 0.3724 -315.4436 519.0378)" class="st15" width="14.8" height="18"/>
								<path class="st14" d="M307.3,289.8c-14.9-6-31.2-5.8-45.9,0.5c-14.7,6.3-26,18-32,32.8c-5.9,14.9-5.7,31.2,0.6,45.8
									c6.3,14.6,17.9,26,32.7,31.9l0,0c14.9,6,31.2,5.8,46-0.5c30.3-13,44.4-48.3,31.4-78.7C333.7,307.1,322.1,295.7,307.3,289.8z
									 M302.6,386.3c-11,4.7-23.1,4.8-34.2,0.4c-11-4.4-19.7-12.9-24.4-23.7c-4.7-10.9-4.8-23-0.4-34.1
									c4.4-11.1,12.9-19.8,23.8-24.5s23.1-4.8,34.2-0.4c11,4.4,19.7,12.9,24.4,23.8C335.6,350.4,325.1,376.6,302.6,386.3z"/>
							</g>
						</g>
						<path class="st9" d="M335.8,485.2c0,5.8-4.7,10.4-10.4,10.4h-76.9c-5.8,0-10.4-4.7-10.4-10.4l0,0c0-5.8,4.7-10.5,10.4-10.5
							h76.9C331.1,474.8,335.8,479.4,335.8,485.2L335.8,485.2z"/>
						<path class="st9" d="M204.3,448.8c-15,0-27.1,12.2-27.1,27.1V520c0,15,12.1,27.1,27.1,27.1h44.1c15,0,27.1-12.2,27.1-27.1
							v-44.1c0-15-12.1-27.1-27.1-27.1L204.3,448.8L204.3,448.8z"/>
						<path class="st9" d="M314.9,536.7c0,5.8-4.7,10.4-10.4,10.4h-49.3c-5.8,0-10.5-4.7-10.5-10.4l0,0c0-5.8,4.7-10.4,10.5-10.4
							h49.3C310.2,526.3,314.9,530.9,314.9,536.7L314.9,536.7z"/>
						<path class="st9" d="M328.7,511.1c0,5.8-4.7,10.4-10.4,10.4h-76.9c-5.8,0-10.4-4.7-10.4-10.4l0,0c0-5.8,4.7-10.4,10.4-10.4
							h76.9C324,500.7,328.7,505.4,328.7,511.1L328.7,511.1z"/>
						<path class="st9" d="M326,459.3c0,5.8-4.7,10.4-10.4,10.4h-61.2c-5.8,0-10.4-4.7-10.4-10.4l0,0c0-5.8,4.7-10.4,10.4-10.4h61.2
							C321.3,448.8,326,453.5,326,459.3L326,459.3z"/>
						<path class="st9" d="M104.3,536.2h108.1c10.2,0,18.4-8.2,18.4-18.4v-29.9c0-10.2-8.2-18.4-18.4-18.4H104.3V536.2z"/>
						<rect x="103.7" y="464.4" class="st4" width="46.3" height="90.8"/>
						<rect x="-17.8" y="461" class="st16" width="152.1" height="97.6"/>
						<path class="st3" d="M115.1,548.2c-2.6,0-4.7-2.1-4.7-4.6c0-2.6,2.1-4.6,4.7-4.6s4.6,2.1,4.6,4.6
							C119.7,546.1,117.7,548.2,115.1,548.2z"/>
					</g>
				</g>
			</g>
		</g>
	</g>
	<g>
		<g id="bug_3_">
			<path class="st17" d="M279.4,346.8c0,0.6-0.5,1-1,1h-2.5l-2.1-2.1h-1.1c-0.9,1.7-2.4,3.1-4.6,3.1c-2.3,0-3.7-1.3-4.6-3.1h-1.1
				l-2.1,2.1h-2.5c-0.6,0-1-0.5-1-1s0.5-1,1-1h1.6l2.1-2.1h1.2c-0.3-1.1-0.5-2.2-0.6-3.1h-2.7l-2.3-2.3c-0.4-0.4-0.4-1.1,0-1.5
				s1.1-0.4,1.5,0l1.7,1.7h1.7c0-0.4,0-0.7,0-0.7c0-0.8,0.1-1.5,0.3-2.2c-0.1,0-0.1-0.1-0.2-0.1l-2.2-2.1v-3.6l-0.9-0.9
				c-0.4-0.4-0.4-1.1,0-1.5s1.1-0.4,1.5,0l1.4,1.5v3.6l1.2,1.2c1.1-1.6,2.9-2.6,5-2.6c2,0,3.8,1,4.9,2.5l1.3-1.1V329l1.4-1.5
				c0.4-0.4,1-0.5,1.5-0.1c0.4,0.4,0.5,1,0.1,1.5l-0.8,0.9v3.7l-2.4,2.1l0,0c0.2,0.7,0.3,1.4,0.3,2.2c0,0,0,0.2,0,0.7h1.6l1.7-1.7
				c0.4-0.4,1.1-0.4,1.5,0s0.4,1.1,0,1.5l-2.3,2.3h-2.6c-0.1,0.9-0.3,2-0.6,3.1h1.2l2.1,2.1h1.6
				C278.9,345.8,279.4,346.3,279.4,346.8z M271.1,330.6v-0.2c0-0.9-0.4-1.8-1.1-2.3l0.9-1c0.1-0.1,0.1-0.2,0.1-0.3v-1.5
				c0-0.3-0.2-0.5-0.5-0.5s-0.5,0.2-0.5,0.5v1.3l-0.9,1c-0.3-0.1-0.7-0.2-1.1-0.2s-0.8,0.1-1.1,0.2l-0.9-1v-1.3
				c0-0.3-0.2-0.5-0.5-0.5s-0.5,0.2-0.5,0.5v1.5c0,0.1,0,0.3,0.1,0.3l0.9,1c-0.7,0.6-1.1,1.4-1.1,2.3v0.2c0.9-0.5,2-0.7,3.1-0.7
				S270.2,330.2,271.1,330.6z"/>
		</g>
		<g id="bug_2_">
			<path class="st17" d="M268.5,363.4c0.1,0.3,0.1,0.6-0.2,0.7l-1.1,0.7l-1.4-0.4l-0.5,0.3c0.1,1-0.2,2-1.2,2.6s-2,0.4-2.9-0.1
				l-0.5,0.3l-0.4,1.4l-1.1,0.7c-0.3,0.1-0.6,0.1-0.7-0.2c-0.1-0.3-0.1-0.6,0.2-0.7l0.7-0.4l0.4-1.4l0.5-0.3
				c-0.4-0.4-0.8-0.8-1.1-1.2l-1.2,0.7l-1.6-0.4c-0.3-0.1-0.4-0.4-0.4-0.6c0.1-0.3,0.4-0.4,0.6-0.4l1.2,0.3l0.7-0.4
				c-0.1-0.2-0.2-0.3-0.2-0.3c-0.2-0.3-0.3-0.7-0.4-1h-0.1l-1.5-0.3l-0.9-1.6l-0.6-0.2c-0.3-0.1-0.4-0.4-0.4-0.6
				c0.1-0.3,0.4-0.4,0.6-0.4l1,0.3l0.9,1.6l0.8,0.2c0.1-1,0.6-1.9,1.5-2.4s1.9-0.6,2.8-0.2l0.3-0.8l-0.9-1.6l0.2-1
				c0.1-0.3,0.3-0.5,0.6-0.4c0.3,0.1,0.5,0.3,0.4,0.6l-0.1,0.6l1,1.6l-0.5,1.5l0,0c0.3,0.2,0.5,0.5,0.7,0.9c0,0,0.1,0.1,0.2,0.3
				l0.7-0.4l0.3-1.2c0.1-0.3,0.4-0.5,0.6-0.4c0.3,0.1,0.5,0.4,0.4,0.6l-0.4,1.6l-1.2,0.7c0.2,0.4,0.4,1,0.5,1.5l0.5-0.3l1.4,0.4
				l0.7-0.4C268,363,268.3,363.1,268.5,363.4z M260.6,358.4l-0.1-0.1c-0.2-0.4-0.6-0.7-1.1-0.7l0.1-0.7c0-0.1,0-0.1,0-0.2l-0.4-0.6
				c-0.1-0.1-0.2-0.2-0.4-0.1s-0.2,0.2-0.1,0.4l0.3,0.6l-0.1,0.7c-0.2,0-0.4,0.1-0.5,0.2c-0.2,0.1-0.3,0.2-0.4,0.4l-0.7-0.2
				l-0.3-0.6c-0.1-0.1-0.2-0.2-0.4-0.1c-0.1,0.1-0.2,0.2-0.1,0.4l0.4,0.6c0,0.1,0.1,0.1,0.1,0.1l0.7,0.2c-0.1,0.4-0.1,0.9,0.1,1.3
				l0.1,0.1c0.3-0.4,0.7-0.8,1.2-1.1C259.5,358.6,260.1,358.4,260.6,358.4z"/>
		</g>
	</g>
	<g>
		<g>
			<g>
				<defs>
					<circle id="SVGID_3_" cx="306" cy="306" r="306"/>
				</defs>
				<clipPath id="SVGID_4_">
					<use xlink:href="#SVGID_3_"  style="overflow:visible;"/>
				</clipPath>
				<g class="st18">
					<g>
						<path class="st2" d="M538.4,291.1h-80.1c-2.5,0-4.5-2-4.5-4.5v-66.2c0-2.5,2-4.5,4.5-4.5h80.1c2.5,0,4.5,2,4.5,4.5v66.2
							C542.8,289,540.8,291.1,538.4,291.1z"/>
						<rect x="457.4" y="222.2" class="st3" width="82" height="55"/>
						<text transform="matrix(1 0 0 1 463.2676 238.0913)" class="st4 st5 st19">&gt;_</text>
						<g>
							<circle class="st7" cx="462" cy="281.7" r="1.1"/>
							<circle class="st7" cx="466" cy="281.7" r="1.1"/>
							<circle class="st7" cx="470" cy="281.7" r="1.1"/>
							<circle class="st7" cx="474" cy="281.7" r="1.1"/>
							<circle class="st7" cx="478.1" cy="281.7" r="1.1"/>
							<circle class="st7" cx="482.1" cy="281.7" r="1.1"/>
							<circle class="st7" cx="486.1" cy="281.7" r="1.1"/>
							<circle class="st7" cx="490.1" cy="281.7" r="1.1"/>
							<circle class="st7" cx="494.1" cy="281.7" r="1.1"/>
							<circle class="st7" cx="498.1" cy="281.7" r="1.1"/>
							<circle class="st7" cx="502.1" cy="281.7" r="1.1"/>
							<circle class="st7" cx="506.2" cy="281.7" r="1.1"/>
							<circle class="st7" cx="510.2" cy="281.7" r="1.1"/>
							<circle class="st7" cx="514.2" cy="281.7" r="1.1"/>
							<circle class="st7" cx="518.2" cy="281.7" r="1.1"/>
							<circle class="st7" cx="522.2" cy="281.7" r="1.1"/>
							<circle class="st7" cx="526.2" cy="281.7" r="1.1"/>
							<circle class="st7" cx="530.3" cy="281.7" r="1.1"/>
							<circle class="st7" cx="534.3" cy="281.7" r="1.1"/>
						</g>
						<g>
							<circle class="st7" cx="464" cy="284.4" r="1.1"/>
							<circle class="st7" cx="468" cy="284.4" r="1.1"/>
							<circle class="st7" cx="472.1" cy="284.4" r="1.1"/>
							<circle class="st7" cx="476.1" cy="284.4" r="1.1"/>
							<circle class="st7" cx="480.1" cy="284.4" r="1.1"/>
							<circle class="st7" cx="484.1" cy="284.4" r="1.1"/>
							<circle class="st7" cx="488.1" cy="284.4" r="1.1"/>
							<circle class="st7" cx="492.1" cy="284.4" r="1.1"/>
							<circle class="st7" cx="496.2" cy="284.4" r="1.1"/>
							<circle class="st7" cx="500.2" cy="284.4" r="1.1"/>
							<circle class="st7" cx="504.2" cy="284.4" r="1.1"/>
							<circle class="st7" cx="508.2" cy="284.4" r="1.1"/>
							<circle class="st7" cx="512.2" cy="284.4" r="1.1"/>
							<circle class="st7" cx="516.2" cy="284.4" r="1.1"/>
							<circle class="st7" cx="520.3" cy="284.4" r="1.1"/>
							<circle class="st7" cx="524.3" cy="284.4" r="1.1"/>
							<circle class="st7" cx="528.3" cy="284.4" r="1.1"/>
							<circle class="st7" cx="532.3" cy="284.4" r="1.1"/>
						</g>
					</g>
					<g>
						<path class="st2" d="M572.1,491.9H492c-2.5,0-4.5-2-4.5-4.5v-66.2c0-2.5,2-4.5,4.5-4.5h80.1c2.5,0,4.5,2,4.5,4.5v66.2
							C576.5,489.9,574.5,491.9,572.1,491.9z"/>
						<rect x="491" y="423.1" class="st3" width="82" height="55"/>
						<text transform="matrix(1 0 0 1 496.9434 438.9766)" class="st4 st5 st19">&gt;_</text>
						<g>
							<circle class="st7" cx="495.7" cy="482.6" r="1.1"/>
							<circle class="st7" cx="499.7" cy="482.6" r="1.1"/>
							<circle class="st7" cx="503.7" cy="482.6" r="1.1"/>
							<circle class="st7" cx="507.7" cy="482.6" r="1.1"/>
							<circle class="st7" cx="511.7" cy="482.6" r="1.1"/>
							<circle class="st7" cx="515.7" cy="482.6" r="1.1"/>
							<circle class="st7" cx="519.8" cy="482.6" r="1.1"/>
							<circle class="st7" cx="523.8" cy="482.6" r="1.1"/>
							<circle class="st7" cx="527.8" cy="482.6" r="1.1"/>
							<circle class="st7" cx="531.8" cy="482.6" r="1.1"/>
							<circle class="st7" cx="535.8" cy="482.6" r="1.1"/>
							<circle class="st7" cx="539.8" cy="482.6" r="1.1"/>
							<circle class="st7" cx="543.9" cy="482.6" r="1.1"/>
							<circle class="st7" cx="547.9" cy="482.6" r="1.1"/>
							<circle class="st7" cx="551.9" cy="482.6" r="1.1"/>
							<circle class="st7" cx="555.9" cy="482.6" r="1.1"/>
							<circle class="st7" cx="559.9" cy="482.6" r="1.1"/>
							<circle class="st7" cx="563.9" cy="482.6" r="1.1"/>
							<circle class="st7" cx="568" cy="482.6" r="1.1"/>
						</g>
						<g>
							<circle class="st7" cx="497.7" cy="485.3" r="1.1"/>
							<circle class="st7" cx="501.7" cy="485.3" r="1.1"/>
							<circle class="st7" cx="505.7" cy="485.3" r="1.1"/>
							<circle class="st7" cx="509.8" cy="485.3" r="1.1"/>
							<circle class="st7" cx="513.8" cy="485.3" r="1.1"/>
							<circle class="st7" cx="517.8" cy="485.3" r="1.1"/>
							<circle class="st7" cx="521.8" cy="485.3" r="1.1"/>
							<circle class="st7" cx="525.8" cy="485.3" r="1.1"/>
							<circle class="st7" cx="529.8" cy="485.3" r="1.1"/>
							<circle class="st7" cx="533.8" cy="485.3" r="1.1"/>
							<circle class="st7" cx="537.9" cy="485.3" r="1.1"/>
							<circle class="st7" cx="541.9" cy="485.3" r="1.1"/>
							<circle class="st7" cx="545.9" cy="485.3" r="1.1"/>
							<circle class="st7" cx="549.9" cy="485.3" r="1.1"/>
							<circle class="st7" cx="553.9" cy="485.3" r="1.1"/>
							<circle class="st7" cx="557.9" cy="485.3" r="1.1"/>
							<circle class="st7" cx="562" cy="485.3" r="1.1"/>
							<circle class="st7" cx="566" cy="485.3" r="1.1"/>
						</g>
					</g>
					<g>
						<path class="st2" d="M464.9,340.9h-42.5c-2.5,0-4.5-2-4.5-4.5V302c0-2.5,2-4.5,4.5-4.5h42.5c2.5,0,4.5,2,4.5,4.5v34.5
							C469.4,338.9,467.4,340.9,464.9,340.9z"/>
						<rect x="420" y="301.1" class="st3" width="47.4" height="31.8"/>
						<text transform="matrix(1 0 0 1 423.4258 310.332)" class="st4 st5 st20">&gt;_</text>
						<g>
							<circle class="st7" cx="422.7" cy="335.5" r="0.6"/>
							<circle class="st7" cx="425" cy="335.5" r="0.6"/>
							<circle class="st7" cx="427.3" cy="335.5" r="0.6"/>
							<circle class="st7" cx="429.6" cy="335.5" r="0.6"/>
							<circle class="st7" cx="432" cy="335.5" r="0.6"/>
							<circle class="st7" cx="434.3" cy="335.5" r="0.6"/>
							<circle class="st7" cx="436.6" cy="335.5" r="0.6"/>
							<circle class="st7" cx="438.9" cy="335.5" r="0.6"/>
							<circle class="st7" cx="441.2" cy="335.5" r="0.6"/>
							<circle class="st7" cx="443.6" cy="335.5" r="0.6"/>
							<circle class="st7" cx="445.9" cy="335.5" r="0.6"/>
							<circle class="st7" cx="448.2" cy="335.5" r="0.6"/>
							<circle class="st7" cx="450.5" cy="335.5" r="0.6"/>
							<circle class="st7" cx="452.8" cy="335.5" r="0.6"/>
							<circle class="st7" cx="455.2" cy="335.5" r="0.6"/>
							<circle class="st7" cx="457.5" cy="335.5" r="0.6"/>
							<circle class="st7" cx="459.8" cy="335.5" r="0.6"/>
							<circle class="st7" cx="462.1" cy="335.5" r="0.6"/>
							<circle class="st7" cx="464.4" cy="335.5" r="0.6"/>
						</g>
						<g>
							<circle class="st7" cx="423.9" cy="337.1" r="0.6"/>
							<circle class="st7" cx="426.2" cy="337.1" r="0.6"/>
							<circle class="st7" cx="428.5" cy="337.1" r="0.6"/>
							<circle class="st7" cx="430.8" cy="337.1" r="0.6"/>
							<circle class="st7" cx="433.1" cy="337.1" r="0.6"/>
							<circle class="st7" cx="435.5" cy="337.1" r="0.6"/>
							<circle class="st7" cx="437.8" cy="337.1" r="0.6"/>
							<circle class="st7" cx="440.1" cy="337.1" r="0.6"/>
							<circle class="st7" cx="442.4" cy="337.1" r="0.6"/>
							<circle class="st7" cx="444.7" cy="337.1" r="0.6"/>
							<circle class="st7" cx="447.1" cy="337.1" r="0.6"/>
							<circle class="st7" cx="449.4" cy="337.1" r="0.6"/>
							<circle class="st7" cx="451.7" cy="337.1" r="0.6"/>
							<circle class="st7" cx="454" cy="337.1" r="0.6"/>
							<circle class="st7" cx="456.3" cy="337.1" r="0.6"/>
							<circle class="st7" cx="458.7" cy="337.1" r="0.6"/>
							<circle class="st7" cx="461" cy="337.1" r="0.6"/>
							<circle class="st7" cx="463.3" cy="337.1" r="0.6"/>
						</g>
					</g>
					<g>
						<path class="st2" d="M597.7,304.7h-42.5c-2.5,0-4.5-2-4.5-4.5v-34.5c0-2.5,2-4.5,4.5-4.5h42.5c2.5,0,4.5,2,4.5,4.5v34.5
							C602.2,302.7,600.2,304.7,597.7,304.7z"/>
						<rect x="552.8" y="264.9" class="st3" width="47.4" height="31.8"/>
						<text transform="matrix(1 0 0 1 556.2041 274.1069)" class="st4 st5 st20">&gt;_</text>
						<g>
							<circle class="st7" cx="555.5" cy="299.3" r="0.6"/>
							<circle class="st7" cx="557.8" cy="299.3" r="0.6"/>
							<circle class="st7" cx="560.1" cy="299.3" r="0.6"/>
							<circle class="st7" cx="562.4" cy="299.3" r="0.6"/>
							<circle class="st7" cx="564.7" cy="299.3" r="0.6"/>
							<circle class="st7" cx="567.1" cy="299.3" r="0.6"/>
							<circle class="st7" cx="569.4" cy="299.3" r="0.6"/>
							<circle class="st7" cx="571.7" cy="299.3" r="0.6"/>
							<circle class="st7" cx="574" cy="299.3" r="0.6"/>
							<circle class="st7" cx="576.3" cy="299.3" r="0.6"/>
							<circle class="st7" cx="578.7" cy="299.3" r="0.6"/>
							<circle class="st7" cx="581" cy="299.3" r="0.6"/>
							<circle class="st7" cx="583.3" cy="299.3" r="0.6"/>
							<circle class="st7" cx="585.6" cy="299.3" r="0.6"/>
							<circle class="st7" cx="587.9" cy="299.3" r="0.6"/>
							<circle class="st7" cx="590.3" cy="299.3" r="0.6"/>
							<circle class="st7" cx="592.6" cy="299.3" r="0.6"/>
							<circle class="st7" cx="594.9" cy="299.3" r="0.6"/>
							<circle class="st7" cx="597.2" cy="299.3" r="0.6"/>
						</g>
						<g>
							<circle class="st7" cx="556.6" cy="300.9" r="0.6"/>
							<circle class="st7" cx="559" cy="300.9" r="0.6"/>
							<circle class="st7" cx="561.3" cy="300.9" r="0.6"/>
							<circle class="st7" cx="563.6" cy="300.9" r="0.6"/>
							<circle class="st7" cx="565.9" cy="300.9" r="0.6"/>
							<circle class="st7" cx="568.2" cy="300.9" r="0.6"/>
							<circle class="st7" cx="570.6" cy="300.9" r="0.6"/>
							<circle class="st7" cx="572.9" cy="300.9" r="0.6"/>
							<circle class="st7" cx="575.2" cy="300.9" r="0.6"/>
							<circle class="st7" cx="577.5" cy="300.9" r="0.6"/>
							<circle class="st7" cx="579.8" cy="300.9" r="0.6"/>
							<circle class="st7" cx="582.2" cy="300.9" r="0.6"/>
							<circle class="st7" cx="584.5" cy="300.9" r="0.6"/>
							<circle class="st7" cx="586.8" cy="300.9" r="0.6"/>
							<circle class="st7" cx="589.1" cy="300.9" r="0.6"/>
							<circle class="st7" cx="591.4" cy="300.9" r="0.6"/>
							<circle class="st7" cx="593.8" cy="300.9" r="0.6"/>
							<circle class="st7" cx="596.1" cy="300.9" r="0.6"/>
						</g>
					</g>
					<g>
						<path class="st2" d="M606,362h-51.4c-2.5,0-4.5-2-4.5-4.5v-42.1c0-2.5,2-4.5,4.5-4.5H606c2.5,0,4.5,2,4.5,4.5v42.1
							C610.5,359.9,608.5,362,606,362z"/>
						<rect x="552.5" y="315.2" class="st3" width="55.6" height="37.3"/>
						<text transform="matrix(1 0 0 1 556.5313 326.0293)" class="st4 st5 st21">&gt;_</text>
						<g>
							<circle class="st7" cx="555.7" cy="355.6" r="0.7"/>
							<circle class="st7" cx="558.4" cy="355.6" r="0.7"/>
							<circle class="st7" cx="561.1" cy="355.6" r="0.7"/>
							<circle class="st7" cx="563.8" cy="355.6" r="0.7"/>
							<circle class="st7" cx="566.6" cy="355.6" r="0.7"/>
							<circle class="st7" cx="569.3" cy="355.6" r="0.7"/>
							<circle class="st7" cx="572" cy="355.6" r="0.7"/>
							<circle class="st7" cx="574.7" cy="355.6" r="0.7"/>
							<circle class="st7" cx="577.5" cy="355.6" r="0.7"/>
							<circle class="st7" cx="580.2" cy="355.6" r="0.7"/>
							<circle class="st7" cx="582.9" cy="355.6" r="0.7"/>
							<circle class="st7" cx="585.6" cy="355.6" r="0.7"/>
							<circle class="st7" cx="588.4" cy="355.6" r="0.7"/>
							<circle class="st7" cx="591.1" cy="355.6" r="0.7"/>
							<circle class="st7" cx="593.8" cy="355.6" r="0.7"/>
							<circle class="st7" cx="596.5" cy="355.6" r="0.7"/>
							<circle class="st7" cx="599.3" cy="355.6" r="0.7"/>
							<circle class="st7" cx="602" cy="355.6" r="0.7"/>
							<circle class="st7" cx="604.7" cy="355.6" r="0.7"/>
						</g>
						<g>
							<circle class="st7" cx="557.1" cy="357.5" r="0.7"/>
							<circle class="st7" cx="559.8" cy="357.5" r="0.7"/>
							<circle class="st7" cx="562.5" cy="357.5" r="0.7"/>
							<circle class="st7" cx="565.2" cy="357.5" r="0.7"/>
							<circle class="st7" cx="567.9" cy="357.5" r="0.7"/>
							<circle class="st7" cx="570.7" cy="357.5" r="0.7"/>
							<circle class="st7" cx="573.4" cy="357.5" r="0.7"/>
							<circle class="st7" cx="576.1" cy="357.5" r="0.7"/>
							<circle class="st7" cx="578.8" cy="357.5" r="0.7"/>
							<circle class="st7" cx="581.6" cy="357.5" r="0.7"/>
							<circle class="st7" cx="584.3" cy="357.5" r="0.7"/>
							<circle class="st7" cx="587" cy="357.5" r="0.7"/>
							<circle class="st7" cx="589.7" cy="357.5" r="0.7"/>
							<circle class="st7" cx="592.5" cy="357.5" r="0.7"/>
							<circle class="st7" cx="595.2" cy="357.5" r="0.7"/>
							<circle class="st7" cx="597.9" cy="357.5" r="0.7"/>
							<circle class="st7" cx="600.6" cy="357.5" r="0.7"/>
							<circle class="st7" cx="603.4" cy="357.5" r="0.7"/>
						</g>
					</g>
					<g>
						<path class="st2" d="M539.8,353.7H480c-2.5,0-4.5-2-4.5-4.5v-49.1c0-2.5,2-4.5,4.5-4.5h59.8c2.5,0,4.5,2,4.5,4.5v49.1
							C544.3,351.7,542.3,353.7,539.8,353.7z"/>
						<rect x="478.3" y="300.5" class="st3" width="63.3" height="42.5"/>
						<text transform="matrix(1 0 0 1 482.8369 312.8389)" class="st4 st5 st22">&gt;_</text>
						<g>
							<circle class="st7" cx="481.9" cy="346.5" r="0.9"/>
							<circle class="st7" cx="485" cy="346.5" r="0.9"/>
							<circle class="st7" cx="488.1" cy="346.5" r="0.9"/>
							<circle class="st7" cx="491.2" cy="346.5" r="0.9"/>
							<circle class="st7" cx="494.3" cy="346.5" r="0.9"/>
							<circle class="st7" cx="497.4" cy="346.5" r="0.9"/>
							<circle class="st7" cx="500.5" cy="346.5" r="0.9"/>
							<circle class="st7" cx="503.6" cy="346.5" r="0.9"/>
							<circle class="st7" cx="506.7" cy="346.5" r="0.9"/>
							<circle class="st7" cx="509.8" cy="346.5" r="0.9"/>
							<circle class="st7" cx="512.9" cy="346.5" r="0.9"/>
							<circle class="st7" cx="516" cy="346.5" r="0.9"/>
							<circle class="st7" cx="519.1" cy="346.5" r="0.9"/>
							<circle class="st7" cx="522.2" cy="346.5" r="0.9"/>
							<circle class="st7" cx="525.3" cy="346.5" r="0.9"/>
							<circle class="st7" cx="528.4" cy="346.5" r="0.9"/>
							<circle class="st7" cx="531.5" cy="346.5" r="0.9"/>
							<circle class="st7" cx="534.6" cy="346.5" r="0.9"/>
							<circle class="st7" cx="537.7" cy="346.5" r="0.9"/>
						</g>
						<g>
							<circle class="st7" cx="483.4" cy="348.6" r="0.9"/>
							<circle class="st7" cx="486.5" cy="348.6" r="0.9"/>
							<circle class="st7" cx="489.6" cy="348.6" r="0.9"/>
							<circle class="st7" cx="492.7" cy="348.6" r="0.9"/>
							<circle class="st7" cx="495.8" cy="348.6" r="0.9"/>
							<circle class="st7" cx="498.9" cy="348.6" r="0.9"/>
							<circle class="st7" cx="502" cy="348.6" r="0.9"/>
							<circle class="st7" cx="505.1" cy="348.6" r="0.9"/>
							<circle class="st7" cx="508.2" cy="348.6" r="0.9"/>
							<circle class="st7" cx="511.3" cy="348.6" r="0.9"/>
							<circle class="st7" cx="514.4" cy="348.6" r="0.9"/>
							<circle class="st7" cx="517.5" cy="348.6" r="0.9"/>
							<circle class="st7" cx="520.6" cy="348.6" r="0.9"/>
							<circle class="st7" cx="523.7" cy="348.6" r="0.9"/>
							<circle class="st7" cx="526.8" cy="348.6" r="0.9"/>
							<circle class="st7" cx="529.9" cy="348.6" r="0.9"/>
							<circle class="st7" cx="533" cy="348.6" r="0.9"/>
							<circle class="st7" cx="536.1" cy="348.6" r="0.9"/>
						</g>
					</g>
					<g>
						<path class="st2" d="M517.2,411.5h-54.4c-2.5,0-4.5-2-4.5-4.5v-44.6c0-2.5,2-4.5,4.5-4.5h54.4c2.5,0,4.5,2,4.5,4.5V407
							C521.7,409.4,519.7,411.5,517.2,411.5z"/>
						<rect x="460.9" y="362.4" class="st3" width="58.3" height="39.2"/>
						<text transform="matrix(1 0 0 1 465.0889 373.7744)" class="st4 st5 st23">&gt;_</text>
						<g>
							<circle class="st7" cx="464.2" cy="404.8" r="0.8"/>
							<circle class="st7" cx="467" cy="404.8" r="0.8"/>
							<circle class="st7" cx="469.9" cy="404.8" r="0.8"/>
							<circle class="st7" cx="472.8" cy="404.8" r="0.8"/>
							<circle class="st7" cx="475.6" cy="404.8" r="0.8"/>
							<circle class="st7" cx="478.5" cy="404.8" r="0.8"/>
							<circle class="st7" cx="481.3" cy="404.8" r="0.8"/>
							<circle class="st7" cx="484.2" cy="404.8" r="0.8"/>
							<circle class="st7" cx="487" cy="404.8" r="0.8"/>
							<circle class="st7" cx="489.9" cy="404.8" r="0.8"/>
							<circle class="st7" cx="492.8" cy="404.8" r="0.8"/>
							<circle class="st7" cx="495.6" cy="404.8" r="0.8"/>
							<circle class="st7" cx="498.5" cy="404.8" r="0.8"/>
							<circle class="st7" cx="501.3" cy="404.8" r="0.8"/>
							<circle class="st7" cx="504.2" cy="404.8" r="0.8"/>
							<circle class="st7" cx="507" cy="404.8" r="0.8"/>
							<circle class="st7" cx="509.9" cy="404.8" r="0.8"/>
							<circle class="st7" cx="512.8" cy="404.8" r="0.8"/>
							<circle class="st7" cx="515.6" cy="404.8" r="0.8"/>
						</g>
						<g>
							<circle class="st7" cx="465.6" cy="406.7" r="0.8"/>
							<circle class="st7" cx="468.5" cy="406.7" r="0.8"/>
							<circle class="st7" cx="471.3" cy="406.7" r="0.8"/>
							<circle class="st7" cx="474.2" cy="406.7" r="0.8"/>
							<circle class="st7" cx="477.1" cy="406.7" r="0.8"/>
							<circle class="st7" cx="479.9" cy="406.7" r="0.8"/>
							<circle class="st7" cx="482.8" cy="406.7" r="0.8"/>
							<circle class="st7" cx="485.6" cy="406.7" r="0.8"/>
							<circle class="st7" cx="488.5" cy="406.7" r="0.8"/>
							<circle class="st7" cx="491.3" cy="406.7" r="0.8"/>
							<circle class="st7" cx="494.2" cy="406.7" r="0.8"/>
							<circle class="st7" cx="497.1" cy="406.7" r="0.8"/>
							<circle class="st7" cx="499.9" cy="406.7" r="0.8"/>
							<circle class="st7" cx="502.8" cy="406.7" r="0.8"/>
							<circle class="st7" cx="505.6" cy="406.7" r="0.8"/>
							<circle class="st7" cx="508.5" cy="406.7" r="0.8"/>
							<circle class="st7" cx="511.3" cy="406.7" r="0.8"/>
							<circle class="st7" cx="514.2" cy="406.7" r="0.8"/>
						</g>
					</g>
					<g>
						<path class="st2" d="M569.4,408.1h-38.1c-2.5,0-4.5-2-4.5-4.5v-30.8c0-2.5,2-4.5,4.5-4.5h38.1c2.5,0,4.5,2,4.5,4.5v30.8
							C573.8,406.1,571.8,408.1,569.4,408.1z"/>
						<rect x="528.6" y="371.7" class="st3" width="43.4" height="29.1"/>
						<text transform="matrix(1 0 0 1 531.7637 380.0889)" class="st4 st5 st24">&gt;_</text>
						<g>
							<circle class="st7" cx="531.1" cy="403.2" r="0.6"/>
							<circle class="st7" cx="533.2" cy="403.2" r="0.6"/>
							<circle class="st7" cx="535.3" cy="403.2" r="0.6"/>
							<circle class="st7" cx="537.5" cy="403.2" r="0.6"/>
							<circle class="st7" cx="539.6" cy="403.2" r="0.6"/>
							<circle class="st7" cx="541.7" cy="403.2" r="0.6"/>
							<circle class="st7" cx="543.8" cy="403.2" r="0.6"/>
							<circle class="st7" cx="546" cy="403.2" r="0.6"/>
							<circle class="st7" cx="548.1" cy="403.2" r="0.6"/>
							<circle class="st7" cx="550.2" cy="403.2" r="0.6"/>
							<circle class="st7" cx="552.3" cy="403.2" r="0.6"/>
							<circle class="st7" cx="554.4" cy="403.2" r="0.6"/>
							<circle class="st7" cx="556.6" cy="403.2" r="0.6"/>
							<circle class="st7" cx="558.7" cy="403.2" r="0.6"/>
							<circle class="st7" cx="560.8" cy="403.2" r="0.6"/>
							<circle class="st7" cx="562.9" cy="403.2" r="0.6"/>
							<circle class="st7" cx="565.1" cy="403.2" r="0.6"/>
							<circle class="st7" cx="567.2" cy="403.2" r="0.6"/>
							<circle class="st7" cx="569.3" cy="403.2" r="0.6"/>
						</g>
						<g>
							<circle class="st7" cx="532.2" cy="404.6" r="0.6"/>
							<circle class="st7" cx="534.3" cy="404.6" r="0.6"/>
							<circle class="st7" cx="536.4" cy="404.6" r="0.6"/>
							<circle class="st7" cx="538.5" cy="404.6" r="0.6"/>
							<circle class="st7" cx="540.7" cy="404.6" r="0.6"/>
							<circle class="st7" cx="542.8" cy="404.6" r="0.6"/>
							<circle class="st7" cx="544.9" cy="404.6" r="0.6"/>
							<circle class="st7" cx="547" cy="404.6" r="0.6"/>
							<circle class="st7" cx="549.2" cy="404.6" r="0.6"/>
							<circle class="st7" cx="551.3" cy="404.6" r="0.6"/>
							<circle class="st7" cx="553.4" cy="404.6" r="0.6"/>
							<circle class="st7" cx="555.5" cy="404.6" r="0.6"/>
							<circle class="st7" cx="557.6" cy="404.6" r="0.6"/>
							<circle class="st7" cx="559.8" cy="404.6" r="0.6"/>
							<circle class="st7" cx="561.9" cy="404.6" r="0.6"/>
							<circle class="st7" cx="564" cy="404.6" r="0.6"/>
							<circle class="st7" cx="566.1" cy="404.6" r="0.6"/>
							<circle class="st7" cx="568.3" cy="404.6" r="0.6"/>
						</g>
					</g>
				</g>
			</g>
		</g>
	</g>
	<g>
		<g>
			<path class="st25" d="M231.2,138.2v59.3h38.3c0-8.9,10.9-21.1,24.4-21.1s24.4,12.2,24.4,21.1h38.3v-59.3H231.2z"/>
			<g>
				<g>
					<rect x="241.4" y="152.9" class="st4" width="37.2" height="7.8"/>
					<rect x="241.4" y="160.7" class="st26" width="37.2" height="4.1"/>
				</g>
				<g>
					<rect x="309.2" y="152.9" class="st4" width="37.2" height="7.8"/>
					<rect x="309.2" y="160.7" class="st26" width="37.2" height="4.1"/>
				</g>
			</g>
			<rect x="243.9" y="26.1" class="st26" width="100.1" height="11.2"/>
			<rect x="223.5" y="134.3" class="st26" width="140.9" height="7.8"/>
			<rect x="243.9" y="33.1" class="st25" width="100.1" height="101.2"/>
			<g>
				<g>
					<rect x="254.5" y="41.8" class="st4" width="12.7" height="13.1"/>
					<rect x="252.8" y="54.9" class="st26" width="16" height="3.6"/>
				</g>
				<g>
					<rect x="276.5" y="41.8" class="st4" width="12.7" height="13.1"/>
					<rect x="274.9" y="54.9" class="st26" width="16" height="3.6"/>
				</g>
				<g>
					<rect x="298.6" y="41.8" class="st4" width="12.7" height="13.1"/>
					<rect x="296.9" y="54.9" class="st26" width="16" height="3.6"/>
				</g>
				<g>
					<rect x="320.6" y="41.8" class="st4" width="12.7" height="13.1"/>
					<rect x="319" y="54.9" class="st26" width="16" height="3.6"/>
				</g>
				<g>
					<rect x="254.5" y="64.9" class="st4" width="12.7" height="13.1"/>
					<rect x="252.8" y="78" class="st26" width="16" height="3.6"/>
				</g>
				<g>
					<rect x="276.5" y="64.9" class="st4" width="12.7" height="13.1"/>
					<rect x="274.9" y="78" class="st26" width="16" height="3.6"/>
				</g>
				<g>
					<rect x="298.6" y="64.9" class="st4" width="12.7" height="13.1"/>
					<rect x="296.9" y="78" class="st26" width="16" height="3.6"/>
				</g>
				<g>
					<rect x="320.6" y="64.9" class="st4" width="12.7" height="13.1"/>
					<rect x="319" y="78" class="st26" width="16" height="3.6"/>
				</g>
				<g>
					<rect x="254.5" y="88.1" class="st4" width="12.7" height="13.1"/>
					<rect x="252.8" y="101.2" class="st26" width="16" height="3.6"/>
				</g>
				<g>
					<rect x="276.5" y="88.1" class="st4" width="12.7" height="13.1"/>
					<rect x="274.9" y="101.2" class="st26" width="16" height="3.6"/>
				</g>
				<g>
					<rect x="298.6" y="88.1" class="st4" width="12.7" height="13.1"/>
					<rect x="296.9" y="101.2" class="st26" width="16" height="3.6"/>
				</g>
				<g>
					<rect x="320.6" y="88.1" class="st4" width="12.7" height="13.1"/>
					<rect x="319" y="101.2" class="st26" width="16" height="3.6"/>
				</g>
				<g>
					<rect x="254.5" y="111.2" class="st4" width="12.7" height="13.1"/>
					<rect x="252.8" y="124.3" class="st26" width="16" height="3.6"/>
				</g>
				<g>
					<rect x="276.5" y="111.2" class="st4" width="12.7" height="13.1"/>
					<rect x="274.9" y="124.3" class="st26" width="16" height="3.6"/>
				</g>
				<g>
					<rect x="298.6" y="111.2" class="st4" width="12.7" height="13.1"/>
					<rect x="296.9" y="124.3" class="st26" width="16" height="3.6"/>
				</g>
				<g>
					<rect x="320.6" y="111.2" class="st4" width="12.7" height="13.1"/>
					<rect x="319" y="124.3" class="st26" width="16" height="3.6"/>
				</g>
			</g>
		</g>
		
			<linearGradient id="SVGID_5_" gradientUnits="userSpaceOnUse" x1="218.9" y1="242.45" x2="357.4" y2="242.45" gradientTransform="matrix(1 0 0 1 0 -8)">
			<stop  offset="0" style="stop-color:#FFFFFF;stop-opacity:0"/>
			<stop  offset="1" style="stop-color:#000000"/>
		</linearGradient>
		<path class="st27" d="M232,196l-13.1,30.4c0,0,9.3,21,34.4,46.5L357.4,196H232z"/>
	</g>
	
		<use xlink:href="#Arrow_7_1_"  width="17" height="94.4" id="XMLID_10_" x="-8.5" y="-47.2" transform="matrix(-0.6961 -1.111494e-02 -5.691058e-03 0.3564 288.77 248.7327)" style="overflow:visible;"/>
	
		<use xlink:href="#Arrow_7_1_"  width="17" height="94.4" id="XMLID_9_" x="-8.5" y="-47.2" transform="matrix(-1.111494e-02 -0.6961 0.3564 -5.691058e-03 379.6711 344.3998)" style="overflow:visible;"/>
</g>
</svg>
