<?xml version="1.0" encoding="utf-8"?>
<!-- Generator: Adobe Illustrator 20.0.0, SVG Export Plug-In . SVG Version: 6.00 Build 0)  -->
<svg version="1.1" id="Layer_1" xmlns="http://www.w3.org/2000/svg" xmlns:xlink="http://www.w3.org/1999/xlink" x="0px" y="0px"
	 viewBox="0 0 612 612" style="enable-background:new 0 0 612 612;" xml:space="preserve">
<style type="text/css">
	.st0{clip-path:url(#SVGID_2_);fill:#67C08B;}
	.st1{clip-path:url(#SVGID_2_);}
	.st2{opacity:0.2;}
	.st3{fill:#328071;}
	.st4{opacity:0.1;}
	.st5{fill:#333333;}
	.st6{fill:#F1F1F1;}
	.st7{fill:#67CADC;}
	.st8{opacity:0.47;fill:#FFFFFF;}
	.st9{font-family:'MyriadPro-Regular';}
	.st10{font-size:17.8649px;}
	.st11{fill:#90D5E5;}
	.st12{fill-rule:evenodd;clip-rule:evenodd;fill:#FFFFFF;}
	.st13{fill-rule:evenodd;clip-rule:evenodd;fill:#D5D5D5;}
	.st14{opacity:0.2;fill-rule:evenodd;clip-rule:evenodd;fill:#FFFFFF;}
	.st15{opacity:0.38;fill:#097E98;}
	.st16{fill:#382416;}
	.st17{fill:#BE232C;}
	.st18{fill:#8E1B1F;}
	.st19{fill:#FFFFFF;}
	.st20{fill:none;stroke:#FFFFFF;stroke-width:3;stroke-miterlimit:10;}
	.st21{fill:#F0624B;stroke:#FFFFFF;stroke-width:2;stroke-miterlimit:10;}
	.st22{fill:#104A66;}
</style>
<g>
	<defs>
		<circle id="SVGID_1_" cx="306" cy="306" r="306"/>
	</defs>
	<clipPath id="SVGID_2_">
		<use xlink:href="#SVGID_1_"  style="overflow:visible;"/>
	</clipPath>
	<rect x="0.1" y="-17.9" class="st0" width="647.8" height="647.8"/>
	<g class="st1">
		<g id="cogwheels_2_" class="st2">
			<g id="cogwheel_2_">
				<path class="st3" d="M475.5,211.5c1.6-4.6,3-9.2,4.1-14.1c1-4.9,1.6-9.7,2-14.5l-27.8-13.6c-0.4-7.5-1.7-14.9-4-21.9l21.1-22.6
					c-4.2-8.8-9.6-17.1-15.9-24.6l-29.2,10c-5.5-5-11.6-9.2-18.3-12.6l-1.1-30.9c-4.6-1.6-9.2-3-14.1-4.1c-4.9-1-9.7-1.6-14.5-2
					l-13.6,27.8c-7.5,0.4-14.9,1.7-21.9,4l-22.6-21.1c-8.8,4.2-17.1,9.6-24.6,15.9l10,29.2c-5,5.5-9.2,11.6-12.6,18.4l-30.9,1.1
					c-1.6,4.6-3,9.2-4.1,14.1c-1,4.9-1.6,9.7-2,14.5l27.8,13.6c0.4,7.5,1.7,14.9,4,21.9l-21.1,22.6c4.2,8.8,9.6,17.1,15.9,24.6
					l29.2-10c5.5,5,11.6,9.2,18.3,12.6l1.1,30.9c4.6,1.6,9.2,3,14.1,4.1c4.9,1,9.7,1.6,14.5,2l13.6-27.8c7.5-0.4,14.9-1.7,21.9-4
					l22.6,21.1c8.8-4.2,17.1-9.6,24.6-15.9l-10-29.2c5-5.5,9.2-11.6,12.6-18.3L475.5,211.5z M360.2,212.5
					c-21.4-4.6-35.1-25.7-30.5-47.2c4.6-21.4,25.7-35.1,47.2-30.5c21.4,4.6,35.1,25.7,30.5,47.2
					C402.8,203.4,381.7,217.1,360.2,212.5z"/>
			</g>
			<path class="st3" d="M488.3,341.8c-2.3-0.5-4.6-1.2-6.8-2l-0.5-14.8l-0.5-0.3c-2.8-1.5-5.5-3.4-7.9-5.5l-0.4-0.4l-14,4.8
				c-3.3-3.9-5.7-7.7-7.6-11.8l10.1-10.8l-0.2-0.5c-0.9-3.1-1.5-6.3-1.7-9.4l0-0.5l-13.3-6.5c0.2-2.7,0.5-4.8,1-7
				c0.5-2.3,1.2-4.6,2-6.8l14.8-0.5l0.3-0.5c1.5-2.8,3.3-5.5,5.4-7.9l0.4-0.4l-4.8-14c3.9-3.2,7.7-5.7,11.8-7.6l10.8,10.1l0.5-0.2
				c3.1-0.9,6.3-1.5,9.4-1.7l0.5,0l6.5-13.3c2.7,0.2,4.8,0.5,7,1c2.3,0.5,4.6,1.2,6.8,2l0.5,14.8l0.5,0.3c2.8,1.5,5.5,3.3,7.9,5.4
				l0.4,0.4l14-4.8c3.3,3.9,5.7,7.7,7.7,11.8l-10.1,10.8l0.2,0.5c0.9,3.1,1.5,6.2,1.7,9.5l0,0.5L554,293c-0.2,2.7-0.5,4.8-1,7
				c-0.5,2.3-1.2,4.6-2,6.8l-14.8,0.5l-0.3,0.5c-1.5,2.8-3.4,5.5-5.5,7.9l-0.4,0.4l4.8,14c-3.9,3.3-7.7,5.7-11.8,7.7l-10.8-10.1
				l-0.5,0.2c-3,0.9-6.2,1.5-9.5,1.7l-0.5,0l-6.5,13.3C492.6,342.6,490.5,342.3,488.3,341.8z M504,268.6c-11-2.4-21.9,4.7-24.2,15.7
				c-2.4,11,4.7,21.9,15.7,24.2c11,2.4,21.9-4.7,24.2-15.7C522,281.8,515,270.9,504,268.6z"/>
			<path class="st3" d="M209.9,164.7c-1.4-0.3-2.8-0.7-4.1-1.2l-0.3-9l-0.3-0.2c-1.7-0.9-3.4-2-4.8-3.3l-0.3-0.2l-8.5,2.9
				c-2-2.4-3.5-4.7-4.6-7.2l6.2-6.6l-0.1-0.3c-0.6-1.9-0.9-3.8-1-5.7l0-0.3l-8.1-4c0.1-1.6,0.3-2.9,0.6-4.2c0.3-1.4,0.7-2.8,1.2-4.1
				l9-0.3l0.2-0.3c0.9-1.7,2-3.3,3.3-4.8l0.2-0.3l-2.9-8.5c2.4-2,4.7-3.4,7.2-4.6l6.6,6.2l0.3-0.1c1.9-0.6,3.8-0.9,5.7-1l0.3,0
				l4-8.1c1.6,0.1,2.9,0.3,4.2,0.6c1.4,0.3,2.8,0.7,4.1,1.2l0.3,9l0.3,0.2c1.7,0.9,3.3,2,4.8,3.3l0.3,0.2l8.5-2.9
				c2,2.4,3.5,4.7,4.7,7.2l-6.2,6.6l0.1,0.3c0.6,1.9,0.9,3.8,1.1,5.8l0,0.3l8.1,4c-0.1,1.6-0.3,2.9-0.6,4.2
				c-0.3,1.4-0.7,2.8-1.2,4.1l-9,0.3l-0.2,0.3c-0.9,1.7-2,3.4-3.3,4.8l-0.2,0.3l2.9,8.5c-2.4,2-4.7,3.5-7.2,4.7l-6.6-6.2l-0.3,0.1
				c-1.9,0.6-3.8,0.9-5.8,1.1l-0.3,0l-4,8.1C212.6,165.2,211.3,165,209.9,164.7z M219.5,120.1c-6.7-1.4-13.3,2.8-14.7,9.5
				c-1.4,6.7,2.8,13.3,9.5,14.7c6.7,1.4,13.3-2.8,14.7-9.5C230.5,128.2,226.2,121.6,219.5,120.1z"/>
		</g>
		<g>
			<g>
				<g>
					<ellipse class="st4" cx="227.2" cy="437" rx="99.7" ry="9.2"/>
					<polygon class="st5" points="272.9,431.4 181.5,431.4 195.9,397.6 258.5,397.6 					"/>
					<path class="st5" d="M384.4,395.6c0,3.2-2.6,5.8-5.8,5.8H75.8c-3.2,0-5.8-2.6-5.8-5.8V194c0-3.2,2.6-5.8,5.8-5.8h302.8
						c3.2,0,5.8,2.6,5.8,5.8V395.6z"/>
					<path class="st6" d="M70,382.7v13c0,3.2,2.6,5.8,5.8,5.8h302.8c3.2,0,5.8-2.6,5.8-5.8v-13H70z"/>
					<rect x="83.5" y="201.7" class="st7" width="287.4" height="163"/>
					<rect x="177.6" y="429.5" class="st6" width="99.3" height="7.5"/>
				</g>
			</g>
			<text transform="matrix(1 0 0 1 87.4211 226.1042)" class="st8 st9 st10">011010101010101110111000011100</text>
			<text transform="matrix(1 0 0 1 87.4211 246.9133)" class="st8 st9 st10">011010101010101110111000011100</text>
			<text transform="matrix(1 0 0 1 87.4211 267.7222)" class="st8 st9 st10">011010101010101110111000011100</text>
			<text transform="matrix(1 0 0 1 87.4211 288.5308)" class="st8 st9 st10">011010101010101110111000011100</text>
			<text transform="matrix(1 0 0 1 87.4211 309.3398)" class="st8 st9 st10">011010101010101110111000011100</text>
			<text transform="matrix(1 0 0 1 87.4211 350.9578)" class="st8 st9 st10">011010101010101110111000011100</text>
			<text transform="matrix(1 0 0 1 87.4211 330.1487)" class="st8 st9 st10">011010101010101110111000011100</text>
			<g>
				<g>
					<ellipse class="st4" cx="423.2" cy="522" rx="77.3" ry="7.1"/>
					<polygon class="st5" points="458.6,517.7 387.8,517.7 399,491.5 447.5,491.5 					"/>
					<path class="st5" d="M545,490c0,2.5-2,4.5-4.5,4.5H305.9c-2.5,0-4.5-2-4.5-4.5V333.7c0-2.5,2-4.5,4.5-4.5h234.6
						c2.5,0,4.5,2,4.5,4.5V490z"/>
					<path class="st6" d="M301.4,479.9V490c0,2.5,2,4.5,4.5,4.5h234.6c2.5,0,4.5-2,4.5-4.5v-10.1H301.4z"/>
					<rect x="311.9" y="339.7" class="st11" width="222.7" height="126.3"/>
					<polygon class="st11" points="534.5,466 311.9,466 534.5,339.7 					"/>
					<rect x="384.8" y="516.2" class="st6" width="76.9" height="5.8"/>
				</g>
			</g>
			<g>
				<g>
					
						<rect x="84.5" y="359.3" transform="matrix(0.7071 -0.7071 0.7071 0.7071 -229.7654 179.5749)" class="st12" width="34.8" height="15.7"/>
					<path class="st13" d="M216,253c-29-29-75.9-29-104.9,0c-29,29-29,75.9,0,104.9c29,29,75.9,29,104.9,0
						C245,328.9,245,282,216,253L216,253z M210.2,258.8c25.8,25.8,25.8,67.5,0,93.3c-25.8,25.8-67.5,25.8-93.3,0
						c-25.8-25.8-25.8-67.5,0-93.3C142.7,233,184.5,233,210.2,258.8z"/>
					
						<ellipse transform="matrix(0.7069 -0.7073 0.7073 0.7069 -305.2191 148.4342)" class="st12" cx="26.5" cy="442.5" rx="5.7" ry="8.5"/>
					<path class="st13" d="M99.6,382L87,369.5c-1.5-1.5-4-1.5-5.6,0l-63.1,63.1c-1.5,1.5-1.5,4,0,5.6l12.5,12.5c1.5,1.5,4,1.5,5.6,0
						l63.1-63.1C101.1,386,101.1,383.5,99.6,382z"/>
					<path class="st12" d="M79.3,371.6l-2.5,2.6l18.1,18.1l2.6-2.6L79.3,371.6L79.3,371.6z M22.4,428.6l-2.6,2.6l18.1,18.1l2.6-2.6
						L22.4,428.6z"/>
					<path class="st12" d="M116,353c-26.3-26.3-26.3-68.9,0-95.1c26.3-26.3,68.9-26.3,95.1,0c26.3,26.3,26.3,68.9,0,95.1
						C184.9,379.3,142.3,379.3,116,353L116,353z M118.5,350.6c24.9,24.9,65.3,24.9,90.3,0c24.9-24.9,24.9-65.3,0-90.3
						c-24.9-24.9-65.3-24.9-90.3,0C93.5,285.2,93.5,325.6,118.5,350.6z"/>
					
						<ellipse transform="matrix(0.7071 -0.7071 0.7071 0.7071 -168.0501 205.1481)" class="st14" cx="163.6" cy="305.4" rx="65.2" ry="65.2"/>
					<path class="st14" d="M128.6,342.5c-16.1-20.5-16.1-53.7,0-74.1c2.8-3.6,5.9-6.5,9.2-8.8c-8,1.1-15.7,5.5-21.8,13.2
						c-14.2,18-14.2,47.2,0,65.2c6.1,7.8,13.8,12.2,21.8,13.2C134.5,349,131.4,346,128.6,342.5z"/>
				</g>
				<circle class="st15" cx="165.6" cy="304.1" r="46.1"/>
				<g>
					<path class="st16" d="M190.6,294.2c-3.9,7.5-14.5,8.5-21.1,3c-6.6-5.5-0.3-18.3,7.4-19.1C185.3,277.2,194.9,286,190.6,294.2z"
						/>
					<path class="st16" d="M155.3,275.4c-2.4,4.7-1.1,9.4,1.1,14c0.7,1.4,2.9,0.2,2.2-1.3c-1.8-3.7-3-7.6-1.1-11.4
						C158.2,275.2,156,273.9,155.3,275.4L155.3,275.4z"/>
					<path class="st16" d="M146.8,295.4c-2.1-1.2-4.7-3.3-5.4-5.8c-0.5-1.5-2.9-0.9-2.4,0.7c0.9,3,3.8,5.8,6.6,7.2
						C146.9,298.3,148.2,296.1,146.8,295.4L146.8,295.4z"/>
					<path class="st16" d="M138.8,308.5c-1.5-0.3-3.3-0.5-4.4-1.7c-1.1-1.2-2.9,0.6-1.8,1.8c1.4,1.6,3.6,1.9,5.5,2.3
						C139.7,311.2,140.4,308.8,138.8,308.5L138.8,308.5z"/>
					<path class="st16" d="M174.3,334.5c-1-1.1-1.7-2.9-1.7-4.3c0-0.7-0.6-1.2-1.2-1.2c0.2,0.2,0.5,0.5,0.7,0.7c0-1.6-2.5-1.6-2.5,0
						c0,1.1,0.6,1.8,1.8,1.8c-0.4-0.4-0.8-0.8-1.2-1.2c0.1,2.1,1,4.5,2.4,6.1C173.7,337.4,175.4,335.6,174.3,334.5L174.3,334.5z"/>
					<path class="st16" d="M188.5,320c-0.9,0-1.8,0-2.7-0.3c-0.4-0.1-2-0.6-1.9-1.3c0.3-1.6-2.1-2.2-2.4-0.7
						c-0.7,3.8,4.2,4.7,6.9,4.7C190.2,322.5,190.2,320,188.5,320L188.5,320z"/>
					<path class="st16" d="M194.4,304.4c-0.6,0.8-4.5,2.4-4.6,0.8c-0.1-1.6-2.6-1.6-2.5,0c0.2,5,7.2,3.1,9.2,0.5
						C197.5,304.3,195.3,303.1,194.4,304.4L194.4,304.4z"/>
					<path class="st16" d="M180.7,277.9c-1-0.1,0.6,0.4,0.6,0.3c0-0.2,0-0.5,0-0.8c0.1-0.7,0.3-1.3,0.5-2c0.4-1.1,1.1-1.3,1.1-2.6
						c0-1.6-2.5-1.6-2.5,0c0,0.2,0,0.3,0,0.5c0.2-0.4,0.4-0.7,0.6-1.1c-2,1.2-3.9,7.7-0.4,8.1C182.3,280.5,182.3,278,180.7,277.9
						L180.7,277.9z"/>
					<path class="st16" d="M190.4,289.9c2.9,0.9,5.9-0.3,8.2-2.1c1.3-1-0.5-2.7-1.8-1.8c-1.6,1.2-3.8,2-5.8,1.4
						C189.5,287.1,188.8,289.5,190.4,289.9L190.4,289.9z"/>
					<path class="st17" d="M190.1,304.4c-0.7,13.1-9.9,26.7-23.8,27.8c-7,0.5-13.7-1.7-18.8-6c-4.5-3.7-7.6-9-8.4-15.3
						c-1.7-13.3,8.7-25.9,21-29.8c12.5-4,26.1,4.5,29.3,16.6C190,299.9,190.2,302.1,190.1,304.4z"/>
					<path class="st18" d="M190.1,304.4c-0.7,13.1-9.9,26.7-23.8,27.8c-7,0.5-13.7-1.7-18.8-6c8.1,4.2,16.9,2,26-2.8
						c11.6-6.1,12.1-14.6,15.9-25.7C190,299.9,190.2,302.1,190.1,304.4z"/>
					<path class="st16" d="M168.8,294.3c1.8-1.6,3.1-5.5,1.9-7.8c-3.4-6.3-14.5,1.7-10.2,6.9C162.5,295.8,166.4,296.5,168.8,294.3z"
						/>
					<path class="st16" d="M150.9,313.5c1.8-1.6,3.1-5.5,1.9-7.8c-3.4-6.3-14.5,1.7-10.2,6.9C144.6,315,148.6,315.7,150.9,313.5z"/>
					<path class="st16" d="M186.2,307.9c1.8-1.6,3.1-5.5,1.9-7.8c-3.4-6.3-14.5,1.7-10.2,6.9C179.9,309.3,183.8,310,186.2,307.9z"/>
					<path class="st16" d="M168,328.2c1.8-1.6,3.1-5.5,1.9-7.8c-3.4-6.3-14.5,1.7-10.2,6.9C161.6,329.7,165.6,330.4,168,328.2z"/>
					<path class="st16" d="M181.8,286c0,0-19,30.2-32.9,41C148.9,326.9,174.4,295.7,181.8,286z"/>
				</g>
			</g>
			<g>
				<path class="st19" d="M465.4,447c1.3-0.8,2.6-1.3,3.3-1.4c1.5-0.1,3.4,1.8,4.2,4.2c0.8,2.5,4.2,3.6,7.6,2.5
					c3.4-1.1,5.5-4,4.7-6.5c-0.8-2.5,2-6.5,3.2-7.3c1.2-0.9,3.8-0.1,5.7,1.6c1.9,1.8,5.5,1,7.9-1.6c2.4-2.6,2.8-6.2,0.9-8
					c-1.9-1.7-1.5-6.6-0.9-7.9c0.6-1.4,3.2-2,5.7-1.5c2.5,0.5,5.2-1.9,6-5.4c0.7-3.5-0.7-6.8-3.3-7.3c-2.5-0.5-4.6-4.9-4.8-6.4
					c-0.2-1.5,1.8-3.4,4.2-4.2c2.5-0.8,3.6-4.2,2.5-7.6c-1.1-3.4-4-5.5-6.5-4.7c-2.5,0.8-6.5-2-7.3-3.2c-0.9-1.2-0.1-3.8,1.6-5.7
					c1.7-1.9,1-5.5-1.6-7.9c-2.6-2.4-6.2-2.8-8-0.9c-1.7,1.9-6.6,1.5-7.9,0.9c-1.4-0.6-2-3.2-1.5-5.7c0.5-2.5-1.9-5.2-5.4-6
					c-3.5-0.8-6.8,0.7-7.3,3.3c-0.3,1.3-1.6,2.5-3.1,3.4v13.2c12,0,23.1,7.7,27,19.7c4.8,14.9-3.4,30.9-18.3,35.7
					c-2.9,0.9-5.8,1.4-8.7,1.4V447z M427.9,380.3c1.9,1.8,1.5,6.6,0.9,7.9c-0.6,1.4-3.2,2-5.7,1.5c-2.5-0.5-5.2,1.9-6,5.3
					c-0.8,3.5,0.7,6.8,3.3,7.4c2.5,0.6,4.6,4.9,4.8,6.4c0.1,1.5-1.8,3.4-4.2,4.2c-2.5,0.8-3.6,4.2-2.5,7.6c1.1,3.4,4,5.5,6.5,4.7
					c2.5-0.8,5.1-0.4,5.9,0.9c0.7,1.3,1.6,6-0.1,8c-1.7,1.9-1,5.5,1.6,7.9c2.7,2.4,6.2,2.8,8,0.9c1.7-1.9,6.6-1.5,7.9-0.9
					c1.4,0.6,2,3.2,1.5,5.7c-0.6,2.5,1.9,5.2,5.3,6c3.5,0.8,6.8-0.7,7.3-3.3c0.3-1.3,1.6-2.5,3.1-3.4v-13.3c-12,0-23.1-7.7-27-19.7
					c-4.8-14.9,3.4-30.9,18.3-35.7l0,0c2.9-0.9,5.8-1.4,8.7-1.4v-13.2c-1.3,0.8-2.6,1.3-3.3,1.3c-1.5,0.1-3.4-1.8-4.2-4.2
					c-0.8-2.5-4.2-3.6-7.6-2.5c-3.4,1.1-5.5,4-4.7,6.5c0.8,2.5-2,6.5-3.2,7.3c-1.2,0.9-3.8,0.1-5.7-1.6c-1.9-1.7-5.5-1-7.9,1.6
					C426.4,374.9,426,378.5,427.9,380.3z"/>
				<circle class="st20" cx="465.4" cy="405.4" r="22.3"/>
			</g>
			<path class="st21" d="M370.9,441.8c-1.3,0-2.6-0.1-3.9-0.3l-2-7.9l-0.3-0.1c-1.7-0.5-3.3-1.2-4.9-2l-0.3-0.1l-7,4.2
				c-2.2-1.7-3.9-3.5-5.5-5.5l4.2-7l-0.1-0.3c-0.9-1.5-1.5-3.2-2-4.9l-0.1-0.3l-7.9-2c-0.2-1.5-0.3-2.6-0.3-3.9
				c0-1.3,0.1-2.6,0.3-3.9l7.9-2l0.1-0.3c0.5-1.7,1.1-3.3,2-4.9l0.1-0.3l-4.2-7c1.7-2.2,3.5-3.9,5.5-5.4l7,4.2l0.3-0.1
				c1.5-0.9,3.2-1.5,4.9-2l0.3-0.1l2-7.9c1.5-0.2,2.6-0.3,3.9-0.3c1.3,0,2.6,0.1,3.9,0.3l2,7.9l0.3,0.1c1.7,0.5,3.3,1.1,4.9,2
				l0.3,0.1l7-4.2c2.2,1.7,3.9,3.5,5.5,5.4l-4.2,7l0.1,0.3c0.9,1.5,1.5,3.2,2,4.9l0.1,0.3l7.9,2c0.2,1.5,0.3,2.6,0.3,3.9
				c0,1.3-0.1,2.6-0.3,3.9l-7.9,2l-0.1,0.3c-0.5,1.7-1.2,3.3-2,4.9l-0.1,0.3l4.2,7c-1.7,2.2-3.5,3.9-5.5,5.5l-7-4.2l-0.3,0.1
				c-1.5,0.9-3.2,1.5-4.9,2l-0.3,0.1l-2,7.9C373.3,441.7,372.1,441.8,370.9,441.8z M370.9,400.6c-6.2,0-11.2,5-11.2,11.2
				c0,6.2,5,11.2,11.2,11.2c6.2,0,11.2-5,11.2-11.2C382.1,405.7,377.1,400.6,370.9,400.6z"/>
			<path class="st22" d="M382.9,408.1c0.2,0.9,0.1,3.2,0.1,4.2c0,6.4-5.3,11.5-11.9,11.5s-11.9-5.1-11.9-11.5c0-3.4,0.8-7.3,3.3-9.4
				c-6.5,2.6-8.7,6.5-10.5,12.8c-2.4,8.4,1.3,17.1,8.7,21l-0.6,73.1c0,1.7,1.3,3.1,3,3.1l9.2,0.1c1.7,0,3.1-1.4,3.1-3.1l0.1-28.8
				l0.5-44c4.5-2.1,8.2-6.2,9.7-11.5C387.4,419.8,387,412.7,382.9,408.1z"/>
		</g>
	</g>
	<g class="st1">
	</g>
</g>
</svg>
