<?xml version="1.0" encoding="utf-8"?>
<!-- Generator: Adobe Illustrator 20.0.0, SVG Export Plug-In . SVG Version: 6.00 Build 0)  -->
<svg version="1.1" id="Layer_1" xmlns="http://www.w3.org/2000/svg" xmlns:xlink="http://www.w3.org/1999/xlink" x="0px" y="0px"
	 viewBox="0 0 612 612" style="enable-background:new 0 0 612 612;" xml:space="preserve">
<style type="text/css">
	.st0{opacity:0.61;enable-background:new    ;}
	.st1{opacity:0.61;fill:#4EA8A2;enable-background:new    ;}
	.st2{fill:none;stroke:#4D4E4E;stroke-width:5;stroke-miterlimit:10;}
	.st3{fill:none;stroke:#FFFFFF;stroke-width:5;stroke-miterlimit:10;}
	.st4{fill:#FFFFFF;}
	.st5{fill:#406691;}
	.st6{fill:#213D62;}
	.st7{fill:none;stroke:#213D62;stroke-width:2;stroke-miterlimit:10;stroke-dasharray:5;}
	.st8{fill:none;}
	.st9{enable-background:new    ;}
	.st10{fill:#8BA4A5;}
	.st11{fill:#CCCBCB;}
	.st12{fill:#4D4E4E;}
	.st13{opacity:0.5;}
</style>
<g id="Arrow_7">
</g>
<g>
	<g class="st0">
		<g>
			<path id="SVGID_1_" class="st1" d="M306,0c169,0,306,137,306,306S475,612,306,612S0,475,0,306C0,137.1,137,0,306,0L306,0z"/>
		</g>
	</g>
	<line class="st2" x1="285" y1="313.4" x2="285" y2="344.9"/>
	<g>
		<g>
			<line class="st3" x1="227.9" y1="239.3" x2="227.8" y2="79.5"/>
		</g>
		<g>
			<path class="st4" d="M260.9,207.7c-29.7,1-36.2,24.6-37.5,31.5c-2.4-0.5-4.6-0.7-6.7-0.7c-15.1,0-20.2,11.7-21.5,16
				c-0.9-0.1-1.7-0.2-2.6-0.2c-8.7,0-17.4,5.6-22.7,14.6c-6.3,10.6-6.6,23.2-0.8,33.7c7.9,14.3,31.6,14.1,31.6,14.1s122.8,0,162.7,0
				c6.5,0,16.5-6.1,21.1-15.4c5.2-10.4,4.8-21.9-1.2-29.8c-8.4-11.2-22-12.8-29.3-12.8c-1.7,0-3.1,0.1-4.2,0.2
				c0.6-4.8,0.4-16.3-12.2-27.7c-5.7-5.1-12.7-7.8-21-7.8c-7.6,0-14.1,2.2-17,3.4c-2.5-4.9-11.9-19.1-36.4-19.1
				C262.4,207.7,261.7,207.7,260.9,207.7"/>
		</g>
		<g>
			<path class="st3" d="M75.3,219v34.9c0,11,9,20,20,20h58.1c11,0,20,6.5,20,14.5s0,14.5,0,14.5"/>
		</g>
		<g>
			<path class="st3" d="M256.1,225.6v-25.4c0-11,9-20,20-20h121.8c11,0,20-8.9,20-19.9s0-19.9,0-19.9"/>
		</g>
		<g>
			<path class="st3" d="M183.2,258.4v-79.7c0-11-6.2-20-13.9-20c-7.6,0-13.9,0-13.9,0"/>
		</g>
		<g>
			<path class="st3" d="M379.2,302.4h111.5c11,0,20-9,20-20V159.8"/>
		</g>
		<circle class="st5" cx="337.7" cy="183.9" r="17.5"/>
		<circle class="st5" cx="229.6" cy="150.5" r="17.5"/>
		<circle class="st5" cx="181.1" cy="209" r="17.5"/>
		<circle class="st5" cx="104.3" cy="270.8" r="17.5"/>
		<circle class="st5" cx="510.1" cy="228" r="17.5"/>
		<circle class="st6" cx="417.9" cy="120.8" r="21.1"/>
		<circle class="st7" cx="417.9" cy="120.8" r="25.3"/>
		<circle class="st6" cx="510.7" cy="146.6" r="21.1"/>
		<circle class="st7" cx="510.7" cy="146.6" r="25.3"/>
		<circle class="st6" cx="139" cy="158.1" r="21.1"/>
		<circle class="st7" cx="139" cy="158.1" r="25.3"/>
		<circle class="st6" cx="70.2" cy="210.8" r="21.1"/>
		<circle class="st7" cx="70.2" cy="210.8" r="25.3"/>
		<circle class="st6" cx="229.6" cy="69.8" r="21.1"/>
		<circle class="st7" cx="229.6" cy="69.8" r="25.3"/>
	</g>
	<path class="st4" d="M429.4,112.6h-23.1c-0.6,0-0.9,0.3-0.9,0.9v0.9l9.2,6c0.1,0,0.1,0,0.1,0.1l0.9,0.6c1.5,0.9,3,0.9,4.5,0
		l0.9-0.6c0.1,0,0.1,0,0.1-0.1l9.2-6v-0.9C430.3,112.9,430,112.6,429.4,112.6z M420.6,121.8c-1.8,1.2-3.6,1.2-5.4,0l-0.8-0.5l-9,5.8
		v0.4c0,0.6,0.3,0.9,0.9,0.9h23.1c0.6,0,0.9-0.3,0.9-0.9v-0.4l-9-5.8L420.6,121.8z M430.3,126.1v-10.5l-8.1,5.3L430.3,126.1z
		 M405.5,115.5V126l8.1-5.3L405.5,115.5z"/>
	<path class="st4" d="M525.9,145.6c-0.1-1.6-0.4-3.1-1-4.5h0.1l-0.7-1.4l-0.3-0.5l0,0c-2.5-4.4-7-7.2-12-7.5v-0.1h-1.9v0.1
		c-5,0.3-9.5,3.1-12,7.5l0,0l-0.3,0.5l-0.7,1.4h0.1c-0.6,1.4-0.9,2.9-1,4.5h-0.1v1.9h0.1c0.1,1.5,0.4,3.1,1,4.5h-0.1l0.7,1.4
		l0.3,0.5l0,0c2.5,4.4,7,7.2,12,7.5v0.1h1.9v-0.1c5-0.3,9.5-3.1,12-7.5l0,0l0.3-0.5l0.7-1.4h-0.1c0.6-1.4,0.9-3,1-4.5h0.1
		L525.9,145.6L525.9,145.6z M505.5,134.9c-0.8,1.2-1.5,2.6-2.1,4.3h-3C501.8,137.3,503.5,135.9,505.5,134.9z M499.3,141.1h3.6
		c-0.3,1.4-0.5,2.9-0.6,4.5h-4.2C498.3,144.1,498.6,142.5,499.3,141.1z M499.3,152c-0.7-1.4-1-2.9-1.1-4.5h4.2
		c0.1,1.5,0.2,3.1,0.6,4.5H499.3z M500.5,154h3c0.5,1.7,1.3,3.1,2.1,4.3C503.5,157.3,501.8,155.8,500.5,154z M510.1,159.3
		c-1.8-0.5-3.4-2.5-4.5-5.4h4.5V159.3z M510.1,152H505c-0.4-1.4-0.5-2.9-0.6-4.5h5.7V152z M510.1,145.6h-5.7
		c0.1-1.6,0.3-3.1,0.6-4.5h5.1V145.6z M510.1,139.2h-4.5c1.1-2.9,2.7-4.8,4.5-5.4V139.2z M521.6,139.2h-3c-0.5-1.7-1.2-3.1-2.1-4.3
		C518.6,135.9,520.3,137.3,521.6,139.2z M512,133.8c1.8,0.5,3.4,2.5,4.5,5.4H512V133.8z M512,141.1h5.1c0.4,1.4,0.5,2.9,0.6,4.5H512
		V141.1z M512,147.5h5.7c-0.1,1.6-0.2,3.1-0.6,4.5H512V147.5z M512,159.3v-5.4h4.5C515.5,156.9,513.8,158.8,512,159.3z M516.5,158.2
		c0.8-1.2,1.5-2.6,2.1-4.3h3C520.3,155.8,518.6,157.3,516.5,158.2z M522.8,152h-3.6c0.3-1.4,0.5-3,0.6-4.5h4.2
		C523.8,149.1,523.5,150.6,522.8,152z M519.8,145.6c-0.1-1.6-0.2-3.1-0.6-4.5h3.6c0.7,1.4,1,2.9,1.2,4.5H519.8z"/>
	<g>
		<rect x="216.8" y="258.5" class="st8" width="108.5" height="44.6"/>
		<g class="st9">
			<path d="M243.1,283.8c0,2.8-1,5.1-3.1,6.7s-4.9,2.4-8.5,2.4s-6.6-0.6-8.9-1.7v-4.9c1.5,0.7,3,1.2,4.7,1.6
				c1.6,0.4,3.2,0.6,4.6,0.6c2.1,0,3.6-0.4,4.6-1.2c1-0.8,1.5-1.8,1.5-3.2c0-1.2-0.5-2.2-1.4-3s-2.8-1.8-5.6-3
				c-2.9-1.2-5-2.5-6.2-4.1c-1.2-1.5-1.8-3.3-1.8-5.5c0-2.7,0.9-4.8,2.8-6.3c1.9-1.5,4.4-2.3,7.6-2.3c3.1,0,6.1,0.7,9.2,2l-1.7,4.3
				c-2.8-1.2-5.4-1.8-7.6-1.8c-1.7,0-3,0.4-3.9,1.1s-1.3,1.7-1.3,2.9c0,0.8,0.2,1.5,0.5,2.1c0.4,0.6,0.9,1.1,1.7,1.7
				c0.8,0.5,2.2,1.2,4.3,2.1c2.4,1,4.1,1.9,5.2,2.7s1.9,1.8,2.4,2.9C242.8,281.1,243.1,282.4,243.1,283.8z"/>
			<path d="M263.9,292.5l-1-3.4h-0.2c-1.2,1.5-2.3,2.5-3.5,3s-2.7,0.8-4.6,0.8c-2.4,0-4.2-0.6-5.6-1.9s-2-3.1-2-5.5
				c0-2.5,0.9-4.4,2.8-5.6c1.9-1.3,4.7-2,8.5-2.1l4.2-0.1v-1.3c0-1.5-0.4-2.7-1.1-3.5s-1.8-1.1-3.4-1.1c-1.2,0-2.4,0.2-3.6,0.5
				c-1.1,0.4-2.2,0.8-3.3,1.3l-1.7-3.7c1.3-0.7,2.8-1.2,4.3-1.6c1.6-0.4,3-0.5,4.4-0.5c3.1,0,5.4,0.7,7,2s2.4,3.5,2.4,6.3v16.3h-3.6
				V292.5z M256.2,289c1.9,0,3.4-0.5,4.5-1.6c1.1-1,1.7-2.5,1.7-4.4v-2.1l-3.1,0.1c-2.4,0.1-4.2,0.5-5.3,1.2s-1.7,1.8-1.7,3.3
				c0,1.1,0.3,1.9,1,2.5S254.9,289,256.2,289z"/>
			<path d="M289.9,292.5l-1-3.4h-0.2c-1.2,1.5-2.3,2.5-3.5,3s-2.7,0.8-4.6,0.8c-2.4,0-4.2-0.6-5.6-1.9s-2-3.1-2-5.5
				c0-2.5,0.9-4.4,2.8-5.6c1.9-1.3,4.7-2,8.5-2.1l4.2-0.1v-1.3c0-1.5-0.4-2.7-1.1-3.5s-1.8-1.1-3.4-1.1c-1.2,0-2.4,0.2-3.6,0.5
				c-1.1,0.4-2.2,0.8-3.3,1.3l-1.7-3.7c1.3-0.7,2.8-1.2,4.3-1.6c1.6-0.4,3-0.5,4.4-0.5c3.1,0,5.4,0.7,7,2s2.4,3.5,2.4,6.3v16.3h-3.6
				V292.5z M282.2,289c1.9,0,3.4-0.5,4.5-1.6c1.1-1,1.7-2.5,1.7-4.4v-2.1l-3.1,0.1c-2.4,0.1-4.2,0.5-5.3,1.2
				c-1.1,0.7-1.7,1.8-1.7,3.3c0,1.1,0.3,1.9,1,2.5S280.9,289,282.2,289z"/>
			<path d="M319.7,283.8c0,2.8-1,5.1-3.1,6.7s-4.9,2.4-8.5,2.4s-6.6-0.6-8.9-1.7v-4.9c1.5,0.7,3,1.2,4.7,1.6
				c1.6,0.4,3.2,0.6,4.6,0.6c2.1,0,3.6-0.4,4.6-1.2s1.5-1.8,1.5-3.2c0-1.2-0.5-2.2-1.4-3s-2.8-1.8-5.6-3c-2.9-1.2-5-2.5-6.2-4.1
				c-1.2-1.5-1.8-3.3-1.8-5.5c0-2.7,0.9-4.8,2.8-6.3s4.4-2.3,7.6-2.3c3.1,0,6.1,0.7,9.2,2l-1.7,4.3c-2.8-1.2-5.4-1.8-7.6-1.8
				c-1.7,0-3,0.4-3.9,1.1s-1.3,1.7-1.3,2.9c0,0.8,0.2,1.5,0.5,2.1c0.4,0.6,0.9,1.1,1.7,1.7c0.8,0.5,2.2,1.2,4.3,2.1
				c2.3,1,4.1,1.9,5.2,2.7s1.9,1.8,2.4,2.9C319.5,281.1,319.7,282.4,319.7,283.8z"/>
		</g>
	</g>
	<g>
		<g>
			<path class="st10" d="M225.9,77.9c-0.3,1.2-0.6,2.3-0.9,3.5c2.7,0,5.3,0,8,0c-0.3-1.2-0.6-2.3-0.9-3.5
				C230,77.9,228,77.9,225.9,77.9z"/>
			<path class="st4" d="M233.5,81.3h-8.9c-0.2,0-0.4,0.2-0.4,0.5V82h9.8v-0.2C233.9,81.5,233.7,81.3,233.5,81.3z"/>
			<path class="st11" d="M215.6,76.5v1.9c0,0.4,0.3,0.7,0.7,0.7h25.5c0.4,0,0.7-0.3,0.7-0.7v-1.9H215.6z"/>
			<path class="st4" d="M242.4,76.5V60.2c0-0.4-0.3-0.7-0.7-0.7h-25.5c-0.4,0-0.7,0.3-0.7,0.7v16.3H242.4z"/>
			<rect x="217.9" y="61.4" class="st6" width="22.2" height="13.3"/>
		</g>
	</g>
	<g>
		<path class="st4" d="M133.5,145H144c2,0,3.6,1.6,3.6,3.6v20.1c0,2-1.6,3.6-3.6,3.6h-10.5c-2,0-3.6-1.6-3.6-3.6v-20.1
			C129.9,146.6,131.5,145,133.5,145z"/>
		<rect x="130.9" y="147.9" class="st6" width="15.6" height="20.7"/>
		<path class="st6" d="M136.1,146.5h5.2c0.1,0,0.3-0.1,0.3-0.3l0,0c0-0.1-0.1-0.3-0.3-0.3h-5.2c-0.1,0-0.3,0.1-0.3,0.3l0,0
			C135.9,146.4,136,146.5,136.1,146.5z"/>
		<circle class="st6" cx="138.8" cy="170.5" r="1.1"/>
	</g>
	<g id="database_x5F_lock_1_">
		<path class="st4" d="M77.6,218c0.1,0.1,0.1,0.2,0.1,0.4v3.4c0,1.3-3.8,2.3-8.5,2.3s-8.5-1-8.5-2.3v-3.4c0-0.1,0.1-0.3,0.1-0.4
			c2.3,1.4,7.2,1.5,8.4,1.5C70.5,219.5,75.3,219.4,77.6,218z M69.2,213.8c-1.2,0-6.1-0.1-8.4-1.5c-0.1,0.1-0.1,0.2-0.1,0.4v3.4
			c0,1.3,3.8,2.3,8.5,2.3s8.5-1,8.5-2.3v-3.4c0-0.1-0.1-0.3-0.1-0.4C75.3,213.7,70.5,213.8,69.2,213.8z M69.2,208.1
			c-1.2,0-6.1-0.1-8.4-1.5c-0.1,0.1-0.1,0.2-0.1,0.4v3.4c0,1.3,3.8,2.3,8.5,2.3s8.5-1,8.5-2.3V207c0-0.1-0.1-0.3-0.1-0.4
			C75.3,208,70.5,208.1,69.2,208.1z M77.8,201.3v3.4c0,1.3-3.8,2.3-8.5,2.3s-8.5-1-8.5-2.3v-3.4c0-1.3,3.8-2.3,8.5-2.3
			C74,199.1,77.8,200.1,77.8,201.3z M72.9,200.8c0-0.4-1.6-0.7-3.7-0.7c-2,0-3.7,0.3-3.7,0.7c0,0.4,1.6,0.7,3.7,0.7
			S72.9,201.2,72.9,200.8z"/>
	</g>
	<g>
		<g>
			<g id="database_x5F_lock_2_">
				<path class="st12" d="M129.7,461.4c0.2,0.3,0.3,0.6,0.3,0.9v8.3c0,3-9.2,5.5-20.7,5.5s-20.7-2.5-20.7-5.5v-8.3
					c0-0.3,0.1-0.6,0.3-0.9c5.7,3.4,17.4,3.7,20.3,3.7C112.3,465.1,124,464.9,129.7,461.4z M109.3,451.3c-2.9,0-14.7-0.2-20.3-3.7
					c-0.2,0.3-0.3,0.6-0.3,0.9v8.3c0,3,9.2,5.5,20.7,5.5c11.4,0,20.7-2.5,20.7-5.5v-8.3c0-0.3-0.1-0.6-0.3-0.9
					C124,451.1,112.3,451.3,109.3,451.3z M109.3,437.5c-2.9,0-14.7-0.2-20.3-3.7c-0.2,0.3-0.3,0.6-0.3,0.9v8.3c0,3,9.2,5.5,20.7,5.5
					c11.4,0,20.7-2.5,20.7-5.5v-8.2c0-0.3-0.1-0.6-0.3-0.9C124,437.3,112.3,437.5,109.3,437.5z M130,421v8.3c0,3-9.2,5.5-20.7,5.5
					s-20.7-2.5-20.7-5.5V421c0-3,9.2-5.5,20.7-5.5C120.7,415.5,130,418,130,421z M118.2,419.6c0-1-4-1.8-8.9-1.8s-8.9,0.8-8.9,1.8
					s4,1.8,8.9,1.8S118.2,420.6,118.2,419.6z"/>
			</g>
			<g id="user_14_">
				<path id="user_15_" class="st12" d="M169.6,455c-1-0.5-7.2-4.2-10.4-5.5v-5.6c0.9-0.7,1.5-1.7,1.5-3.3v-4.4
					c0-3.7-2.2-6.7-6.7-6.7s-6.7,3-6.7,6.7c0,0,0,0.7,0,4.4c0,1.6,0.6,2.6,1.5,3.3v5.6c-3,1.3-9.5,5-10.4,5.5
					c-1.2,0.7-1.5,1.3-1.5,2.9c0,0.6,0,3.5,0,3.5c0,0.4,0.3,0.7,0.7,0.7h32.8c0.4,0,0.7-0.3,0.7-0.7c0,0,0-2.9,0-3.5
					C171.1,456.4,170.8,455.7,169.6,455z"/>
			</g>
		</g>
	</g>
	<g>
		<g>
			<g id="database_x5F_lock_4_">
				<path class="st12" d="M230.6,541.6c0.2,0.3,0.3,0.6,0.3,0.9v8.3c0,3-9.2,5.5-20.7,5.5c-11.4,0-20.7-2.5-20.7-5.5v-8.3
					c0-0.3,0.1-0.6,0.3-0.9c5.7,3.4,17.4,3.7,20.3,3.7C213.3,545.3,225,545.1,230.6,541.6z M210.3,531.5c-2.9,0-14.7-0.2-20.3-3.7
					c-0.2,0.3-0.3,0.6-0.3,0.9v8.3c0,3,9.2,5.5,20.7,5.5c11.4,0,20.7-2.5,20.7-5.5v-8.2c0-0.3-0.1-0.6-0.3-0.9
					C225,531.3,213.3,531.5,210.3,531.5z M210.3,517.8c-2.9,0-14.7-0.2-20.3-3.7c-0.2,0.3-0.3,0.6-0.3,0.9v8.3c0,3,9.2,5.5,20.7,5.5
					c11.4,0,20.7-2.5,20.7-5.5V515c0-0.3-0.1-0.6-0.3-0.9C225,517.5,213.3,517.8,210.3,517.8z M231,501.2v8.3c0,3-9.2,5.5-20.7,5.5
					c-11.4,0-20.7-2.5-20.7-5.5v-8.3c0-3,9.2-5.5,20.7-5.5C221.7,495.7,231,498.2,231,501.2z M219.2,499.9c0-1-4-1.8-8.9-1.8
					s-8.9,0.8-8.9,1.8s4,1.8,8.9,1.8C215.2,501.7,219.2,500.9,219.2,499.9z"/>
			</g>
			<g id="user_16_">
				<path id="user_17_" class="st12" d="M270.6,535.3c-1-0.5-7.2-4.2-10.4-5.5v-5.6c0.9-0.7,1.5-1.7,1.5-3.3v-4.4
					c0-3.7-2.2-6.7-6.7-6.7s-6.7,3-6.7,6.7c0,0,0,0.7,0,4.4c0,1.6,0.6,2.6,1.5,3.3v5.6c-3,1.3-9.5,5-10.4,5.5
					c-1.2,0.7-1.5,1.3-1.5,2.9c0,0.6,0,3.5,0,3.5c0,0.4,0.3,0.7,0.7,0.7h32.8c0.4,0,0.7-0.3,0.7-0.7c0,0,0-2.9,0-3.5
					C272,536.6,271.8,536,270.6,535.3z"/>
			</g>
		</g>
	</g>
	<g>
		<g>
			<g id="database_x5F_lock_5_">
				<path class="st12" d="M395.4,542.8c0.2,0.3,0.3,0.6,0.3,0.9v8.3c0,3-9.2,5.5-20.7,5.5s-20.7-2.5-20.7-5.5v-8.2
					c0-0.3,0.1-0.6,0.3-0.9c5.7,3.4,17.4,3.7,20.3,3.7S389.7,546.3,395.4,542.8z M375,532.7c-2.9,0-14.7-0.2-20.3-3.7
					c-0.2,0.3-0.3,0.6-0.3,0.9v8.3c0,3,9.2,5.5,20.7,5.5c11.4,0,20.7-2.5,20.7-5.5v-8.3c0-0.3-0.1-0.6-0.3-0.9
					C389.7,532.5,378,532.7,375,532.7z M375,519c-2.9,0-14.7-0.2-20.3-3.7c-0.2,0.3-0.3,0.6-0.3,0.9v8.3c0,3,9.2,5.5,20.7,5.5
					c11.4,0,20.7-2.5,20.7-5.5v-8.3c0-0.3-0.1-0.6-0.3-0.9C389.7,518.7,378,519,375,519z M395.7,502.4v8.3c0,3-9.2,5.5-20.7,5.5
					s-20.7-2.5-20.7-5.5v-8.3c0-3,9.2-5.5,20.7-5.5C386.4,496.9,395.7,499.4,395.7,502.4z M383.9,501.1c0-1-4-1.8-8.9-1.8
					s-8.9,0.8-8.9,1.8s4,1.8,8.9,1.8S383.9,502,383.9,501.1z"/>
			</g>
			<g id="user_18_">
				<path id="user_19_" class="st12" d="M435.3,536.5c-1-0.5-7.2-4.2-10.4-5.5v-5.6c0.9-0.7,1.5-1.7,1.5-3.3v-4.4
					c0-3.7-2.2-6.7-6.7-6.7s-6.7,3-6.7,6.7c0,0,0,0.7,0,4.4c0,1.6,0.6,2.6,1.5,3.3v5.6c-3,1.3-9.5,5-10.4,5.5
					c-1.2,0.7-1.5,1.3-1.5,2.9c0,0.6,0,3.5,0,3.5c0,0.4,0.3,0.7,0.7,0.7H436c0.4,0,0.7-0.3,0.7-0.7c0,0,0-2.9,0-3.5
					C436.8,537.8,436.5,537.2,435.3,536.5z"/>
			</g>
		</g>
	</g>
	<g>
		<g>
			<g id="database_x5F_lock_7_">
				<path class="st12" d="M493.1,461.5c0.2,0.3,0.3,0.6,0.3,0.9v8.3c0,3-9.2,5.5-20.7,5.5s-20.7-2.5-20.7-5.5v-8.3
					c0-0.3,0.1-0.6,0.3-0.9c5.7,3.4,17.4,3.7,20.3,3.7S487.5,464.9,493.1,461.5z M472.8,451.4c-2.9,0-14.7-0.2-20.3-3.7
					c-0.2,0.3-0.3,0.6-0.3,0.9v8.3c0,3,9.2,5.5,20.7,5.5c11.4,0,20.7-2.5,20.7-5.5v-8.3c0-0.3-0.1-0.6-0.3-0.9
					C487.5,451.1,475.7,451.4,472.8,451.4z M472.8,437.6c-2.9,0-14.7-0.2-20.3-3.7c-0.2,0.3-0.3,0.6-0.3,0.9v8.3
					c0,3,9.2,5.5,20.7,5.5c11.4,0,20.7-2.5,20.7-5.5v-8.3c0-0.3-0.1-0.6-0.3-0.9C487.5,437.4,475.7,437.6,472.8,437.6z M493.5,421.1
					v8.3c0,3-9.2,5.5-20.7,5.5s-20.7-2.5-20.7-5.5v-8.3c0-3,9.2-5.5,20.7-5.5C484.2,415.6,493.5,418,493.5,421.1z M481.7,419.7
					c0-1-4-1.8-8.9-1.8s-8.9,0.8-8.9,1.8s4,1.8,8.9,1.8S481.7,420.7,481.7,419.7z"/>
			</g>
			<g id="user_20_">
				<path id="user_21_" class="st12" d="M533.1,455.1c-1-0.5-7.2-4.2-10.4-5.5V444c0.9-0.7,1.5-1.7,1.5-3.3v-4.4
					c0-3.7-2.2-6.7-6.7-6.7s-6.7,3-6.7,6.7c0,0,0,0.7,0,4.4c0,1.6,0.6,2.6,1.5,3.3v5.6c-3,1.3-9.5,5-10.4,5.5
					c-1.2,0.7-1.5,1.3-1.5,2.9c0,0.6,0,3.5,0,3.5c0,0.4,0.3,0.7,0.7,0.7h32.8c0.4,0,0.7-0.3,0.7-0.7c0,0,0-2.9,0-3.5
					C534.5,456.4,534.2,455.8,533.1,455.1z"/>
			</g>
		</g>
	</g>
	<g id="charts_2_">
		<path class="st4" d="M238.3,158v-11.3c0-0.2-0.2-0.4-0.4-0.4h-3.1c-0.2,0-0.4,0.2-0.4,0.4V158h-0.8v-16.8c0-0.2-0.2-0.4-0.4-0.4
			h-3.1c-0.2,0-0.4,0.2-0.4,0.4V158h-0.8v-8.2c0-0.2-0.2-0.4-0.4-0.4h-3.1c-0.2,0-0.4,0.2-0.4,0.4v8.2h-0.8v-3.5
			c0-0.2-0.2-0.4-0.4-0.4h-3.1c-0.2,0-0.4,0.2-0.4,0.4v0.4v3.1h-1.6v1.6h21.1v-0.8V158H238.3z"/>
	</g>
	<g id="calendar_1_">
		<path class="st4" d="M329.5,179.5v11.8c0,0.4,0.3,0.7,0.7,0.7h15.5c0.4,0,0.7-0.3,0.7-0.7v-11.8H329.5z M333.2,190.5H331v-2.2h2.2
			V190.5z M333.2,187.6H331v-2.2h2.2V187.6z M333.2,184.6H331v-2.2h2.2V184.6z M336.1,190.5h-2.2v-2.2h2.2V190.5z M336.1,187.6h-2.2
			v-2.2h2.2V187.6z M336.1,184.6h-2.2v-2.2h2.2V184.6z M339.1,190.5h-2.2v-2.2h2.2V190.5z M339.1,187.6h-2.2v-2.2h2.2V187.6z
			 M339.1,184.6h-2.2v-2.2h2.2V184.6z M342.1,190.5h-2.2v-2.2h2.2V190.5z M342.1,187.6h-2.2v-2.2h2.2V187.6z M342.1,184.6h-2.2v-2.2
			h2.2V184.6z M345,190.5h-2.2v-2.2h2.2V190.5z M345,187.6h-2.2v-2.2h2.2V187.6z M345,184.6h-2.2v-2.2h2.2V184.6z M346.5,176.5v2.2
			h-17v-2.2c0-0.4,0.3-0.7,0.7-0.7h1.5v-0.7c0-0.4,0.3-0.7,0.7-0.7h0.7c0.4,0,0.7,0.3,0.7,0.7v0.7h8.1v-0.7c0-0.4,0.3-0.7,0.7-0.7
			h0.7c0.4,0,0.7,0.3,0.7,0.7v0.7h1.5C346.1,175.8,346.5,176.1,346.5,176.5z"/>
	</g>
	<g id="usd_3_">
		<path class="st4" d="M111.1,274.3c0-4.4-4.1-5.2-5.4-5.6c-0.4-0.1-0.4-0.2-1.3-0.3v-4.6c1.8,0.3,2.1,1.3,2.2,3.1h3.8
			c0-4.4-2.5-6.1-6-6.5V259h-1.8v1.4c-2.9,0.3-5.7,2.2-5.7,5.8c0,3.6,2.7,4.7,5.3,5.5c0.1,0,0.3,0.1,0.4,0.1v5.2
			c-1.4-0.4-2.3-1.3-2.3-3.1h-3.8c0,3.5,2.7,6.1,6.1,6.5v1.4h1.8v-1.4C108.8,280.1,111.1,277.6,111.1,274.3z M100.8,265.8
			c0-1.3,0.9-1.9,1.9-2.1v4C101.1,267.2,100.8,266.8,100.8,265.8z M104.5,277.2v-4.8c1.8,0.5,2.6,1.1,2.6,2.4
			C107.1,276.4,106.2,277,104.5,277.2z"/>
	</g>
	<g id="bell_1_">
		<path class="st4" d="M179.8,216.5c0.3,0.9,1.2,1.6,2.3,1.6c1,0,1.9-0.7,2.3-1.6c-0.7,0.1-1.5,0.1-2.3,0.1
			C181.3,216.6,180.5,216.5,179.8,216.5z"/>
		<path class="st4" d="M190.9,212.2h-0.3l-2.2-2.6l-1.1-6l0,0c-0.3-2.1-2-3.8-4-4.2l0,0l0.3-0.9c0.1-0.4-0.1-0.8-0.6-0.8h-1.7
			c-0.5,0-0.7,0.4-0.6,0.8l0.3,0.9l0,0c-2.1,0.5-3.7,2.1-4,4.2l0,0l-1.1,6l-2.2,2.6h-0.3c-0.5,0-0.9,0.4-0.9,0.9s0.4,1,0.8,1.2
			c0,0,3.7,1.4,8.9,1.4s8.9-1.4,8.9-1.4c0.4-0.2,0.8-0.7,0.8-1.2S191.3,212.2,190.9,212.2z M178.3,203.9l-1.1,6.3l-2.5,2.9H174
			l2.6-3.1l1.2-6.2c0.2-1,0.7-1.9,1.4-2.5l0.3,0.4C178.9,202.1,178.5,203.1,178.3,203.9z"/>
	</g>
	<g id="camera_x5F_small_2_">
		<g>
			<path class="st4" d="M514.4,217.4c-2.9,0-5.2,2.3-5.2,5.2c0,1.1,0.3,2.1,0.9,3v1.3h-0.9c0-0.5-0.4-0.9-0.9-0.9h-8.4
				c-0.5,0-0.9,0.4-0.9,0.9v6.6c0,0.5,0.4,0.9,0.9,0.9h8.4c0.5,0,0.9-0.4,0.9-0.9h0.9v3.9c0,1.5,1.2,2.7,2.7,2.7h3.1
				c1.5,0,2.7-1.2,2.7-2.7v-7.7v-2v-2c0.6-0.8,0.9-1.9,0.9-3C519.6,219.7,517.3,217.4,514.4,217.4z M512.1,236.2v-0.9h0.9v0.9H512.1
				z M514,238.1h-1v-0.9h0.9L514,238.1L514,238.1z M515.9,238.1H515v-0.9h0.9V238.1z M514,236.2v-0.9h0.9v0.9H514z M516.8,236.2
				h-0.9v-0.9h0.9V236.2z M514.4,225.9c-1.8,0-3.3-1.5-3.3-3.3s1.5-3.3,3.3-3.3s3.3,1.5,3.3,3.3S516.3,225.9,514.4,225.9z"/>
		</g>
		<g class="st13">
			<path class="st4" d="M516.8,222.6c0,1.3-1.1,2.3-2.3,2.3s-2.2-0.9-2.3-2.1c0.3,0.2,0.6,0.3,0.9,0.3c1,0,1.9-0.8,1.9-1.9
				c0-0.3-0.1-0.6-0.3-0.9C515.9,220.4,516.8,221.4,516.8,222.6z"/>
		</g>
	</g>
	<line class="st2" x1="106.3" y1="344.5" x2="471" y2="345.4"/>
	<g>
		<line class="st2" x1="108.8" y1="344" x2="108.5" y2="402.3"/>
		<polyline class="st12" points="117.7,396.1 108.3,405.5 99,396.1 		"/>
	</g>
	<g>
		<line class="st2" x1="374.8" y1="343.6" x2="374.5" y2="481"/>
		<polyline class="st12" points="383.7,474.8 374.3,484.2 365,474.8 		"/>
	</g>
	<g>
		<line class="st2" x1="210.2" y1="343.6" x2="209.9" y2="481"/>
		<polyline class="st12" points="219,474.8 209.7,484.2 200.3,474.8 		"/>
	</g>
	<g>
		<line class="st2" x1="468.8" y1="344" x2="468.5" y2="402.3"/>
		<polyline class="st12" points="477.7,396.1 468.3,405.5 459,396.1 		"/>
	</g>
</g>
</svg>
