<?xml version="1.0" encoding="utf-8"?>
<!-- Generator: Adobe Illustrator 20.0.0, SVG Export Plug-In . SVG Version: 6.00 Build 0)  -->
<svg version="1.1" id="Layer_1" xmlns="http://www.w3.org/2000/svg" xmlns:xlink="http://www.w3.org/1999/xlink" x="0px" y="0px"
	 viewBox="0 0 612 612" style="enable-background:new 0 0 612 612;" xml:space="preserve">
<style type="text/css">
	.st0{fill:url(#SVGID_1_);}
	.st1{fill:none;stroke:#A0C0C6;stroke-miterlimit:10;}
	.st2{fill:none;stroke:#A0C0C6;stroke-miterlimit:10;stroke-dasharray:3.0002,3.0002;}
	.st3{fill:#A0C0C6;}
	.st4{fill:none;stroke:#A0C0C6;stroke-miterlimit:10;stroke-dasharray:3.0123,3.0123;}
	.st5{fill:none;stroke:#A0C0C6;stroke-miterlimit:10;stroke-dasharray:3,3;}
	.st6{fill:#C6E8F0;}
	.st7{fill:#E03836;}
	.st8{fill:none;stroke:#FCBD5D;stroke-width:4;stroke-miterlimit:10;}
	.st9{fill:#54BC87;}
	.st10{fill:#52C0B2;}
	.st11{clip-path:url(#SVGID_3_);}
	.st12{fill:url(#SVGID_4_);}
	.st13{fill:#FFF4E3;}
	.st14{fill:#475A72;}
	.st15{fill:#3989C8;}
	.st16{fill:#FFFFFF;}
	.st17{fill:#C1D962;}
	.st18{fill:#A7A8AB;}
	.st19{fill:#F1F1F1;}
	.st20{fill:#0E303F;}
	.st21{fill:#3EA4DC;}
	.st22{fill:#F06666;}
	.st23{fill:#FCBD5D;}
	.st24{font-family:'MyriadPro-Regular';}
	.st25{font-size:22.2263px;}
	.st26{fill:#231F20;}
	.st27{font-size:18px;}
</style>
<g>
	<g>
		<g>
			<radialGradient id="SVGID_1_" cx="306" cy="306" r="306" gradientUnits="userSpaceOnUse">
				<stop  offset="0" style="stop-color:#F4FAFC"/>
				<stop  offset="0.2841" style="stop-color:#F1F9FA"/>
				<stop  offset="0.4891" style="stop-color:#E8F4F6"/>
				<stop  offset="0.6692" style="stop-color:#D8ECED"/>
				<stop  offset="0.8346" style="stop-color:#C2E1E2"/>
				<stop  offset="0.9892" style="stop-color:#A5D2D3"/>
				<stop  offset="1" style="stop-color:#A3D1D2"/>
			</radialGradient>
			<circle class="st0" cx="306" cy="306" r="306"/>
		</g>
	</g>
	<g>
		<g>
			<path class="st1" d="M411.3,127.3c0.4,0.3,0.8,0.6,1.2,0.9"/>
			<path class="st2" d="M414.9,129.9c84.7,64.3,106.5,184.1,47.5,274.5c-61.7,94.5-188.4,121.1-282.9,59.4
				c-92.3-60.3-119.8-182.4-63.6-276.1"/>
			<path class="st1" d="M116.7,186.4c0.3-0.4,0.5-0.9,0.8-1.3"/>
			<g>
				<polygon class="st3" points="409,134.2 403.1,121.5 417,122.7 				"/>
			</g>
			<g>
				
					<ellipse transform="matrix(0.5255 -0.8508 0.8508 0.5255 -102.0239 187.8618)" class="st3" cx="117.4" cy="185.4" rx="5.3" ry="5.3"/>
			</g>
		</g>
	</g>
	<g>
		<g>
			<path class="st1" d="M131.6,369.9c-0.2-0.5-0.4-0.9-0.6-1.4"/>
			<path class="st4" d="M129.7,365.9c-37.8-83.3-6-183,75.4-228.2c83.3-46.3,187.7-18.4,237.2,61.9"/>
			<path class="st1" d="M443,200.8c0.3,0.4,0.5,0.9,0.8,1.3"/>
			<g>
				<polygon class="st3" points="137,364.9 136.2,378.9 124.5,371.3 				"/>
			</g>
			<g>
				
					<ellipse transform="matrix(0.8614 -0.5079 0.5079 0.8614 -41.0865 253.2915)" class="st3" cx="443.6" cy="201.9" rx="5.3" ry="5.3"/>
			</g>
		</g>
	</g>
	<g>
		<g>
			<path class="st5" d="M494.6,185.4c58.2,110.2,17.9,247.3-91.6,308.2C295,553.6,159.5,517.4,95.4,413"/>
			<g>
				
					<ellipse transform="matrix(0.886 -0.4637 0.4637 0.886 -29.6832 250.5199)" class="st3" cx="494.6" cy="185.6" rx="5.3" ry="5.3"/>
			</g>
			<g>
				<polygon class="st3" points="102.5,411.3 90.3,404.4 90.5,418.4 				"/>
			</g>
		</g>
	</g>
	<path class="st6" d="M333.1,479.9c-0.8-0.2-1.3-0.5-1.9-0.9c-1.6-1.1-3.5-2.6-4.8-4.4c-1.4-1.9-2.1-3.9-2.2-6.3
		c0-1.7,0.6-3.3,1.7-4.1c0.5-0.4,1.1-0.7,1.8-0.7c0.4,0,0.7-0.1,1,0c0.5,0,1,0.1,1.4,0.2c1.2,0.3,2.2,1.1,3.2,2l0.2,0.1l0.2-0.1
		c1.1-0.8,2.1-1.6,3.4-1.8c0.4-0.1,0.9-0.2,1.4-0.2c0.3,0,0.6,0,1,0.1c0.7,0.1,1.3,0.4,1.8,0.8c1,0.9,1.6,2.5,1.4,4.2
		c-0.2,2.3-1,4.4-2.6,6.2c-1.5,1.8-3.4,3.1-5.1,4.2C334.4,479.5,333.8,479.7,333.1,479.9z"/>
	<g>
		<polygon class="st6" points="223.5,91.8 233.4,101.7 233.4,114.9 226.8,114.9 226.8,105 220.2,105 220.2,114.9 213.6,114.9 
			213.6,101.7 		"/>
		<path class="st6" d="M236.7,103.2c-0.4,0-0.7-0.1-1-0.4l-12.2-12.1l-12.2,12.1c-0.6,0.6-1.5,0.6-2.1,0c-0.6-0.6-0.6-1.5,0-2.1
			l13.2-13.2c0.6-0.6,1.5-0.6,2.1,0l13.2,13.2c0.6,0.6,0.6,1.5,0,2.1C237.4,103,237,103.2,236.7,103.2z"/>
	</g>
	<path class="st6" d="M537.5,331.9c-5.8,0-10.6,4.8-10.6,10.6c0,2.8,1.1,5.3,2.8,7.2l-6.4,6.4c-0.3,0.3-0.4,0.6-0.4,0.9
		c0,0.3,0.1,0.7,0.4,0.9c0.5,0.5,1.3,0.5,1.8,0l6.5-6.5c1.7,1.1,3.7,1.8,5.9,1.8c5.9,0,10.6-4.8,10.6-10.6
		C548.1,336.6,543.3,331.9,537.5,331.9z M537.5,333.7c4.8,0,8.7,3.9,8.7,8.7c0,4.8-3.9,8.7-8.7,8.7c-4.8,0-8.7-3.9-8.7-8.7
		C528.8,337.7,532.7,333.7,537.5,333.7z"/>
	<path class="st6" d="M84.8,382.3c0.5-0.6,0.8-1.3,0.8-2.1c0-2-1.7-3.6-3.8-3.6c-1.1,0-2.1,0.4-2.8,1.2c-1.2-2.8-4.1-4.8-7.5-4.8
		c-3.7,0-6.8,2.3-7.8,5.4c-0.4-0.1-0.7-0.1-1.1-0.1c-3.7,0-6.6,2.8-6.6,6.2c0,0.2,0,0.5,0,0.7c-1.8,0.6-3.1,2.1-3.1,4
		c0,1.4,0.8,2.7,2,3.5l33.5,0.1c1.3-1.1,2.1-2.6,2.1-4.4C90.3,385.2,87.9,382.7,84.8,382.3z"/>
	<g>
		<path class="st6" d="M492.6,162.6c2-1.5,2.9-3.3,2.9-5.4c0-2.1-1-3.9-2.9-5.4c-2-1.5-4.3-2.2-7.1-2.2c-2.8,0-5.1,0.8-7.1,2.2
			c-2,1.5-2.9,3.3-2.9,5.4c0,2,0.9,3.7,2.7,5.2c0,0.2,0,0.4,0,0.5c0,1.1-0.3,2-0.9,2.7c-0.6,0.7-1.4,1.1-2.3,1.2
			c0.5,0.9,1.2,1.4,2,1.4c1.2,0,2.3-0.4,3.2-1.1c0.9-0.7,1.4-1.7,1.5-2.8c1.2,0.4,2.5,0.6,3.8,0.6
			C488.3,164.8,490.6,164.1,492.6,162.6z"/>
		<path class="st6" d="M497.4,170.5c-0.4-0.5-0.6-1.1-0.6-1.8c0-0.1,0-0.2,0-0.3c1.2-1,1.9-2.2,1.9-3.6c0-1.5-0.7-2.7-2-3.7
			c-0.5-0.4-1-0.7-1.6-0.9c0,0-0.1,0.1-0.1,0.2c-0.5,0.9-1.3,1.8-2.3,2.5c-1,0.8-2.1,1.3-3.3,1.7c-1.2,0.4-2.5,0.6-3.9,0.6
			c-0.2,0-0.4,0-0.6,0c0.1,1.3,0.8,2.4,2,3.3c1.3,1,3,1.6,4.9,1.6c0.9,0,1.8-0.1,2.6-0.4c0.1,0.8,0.4,1.4,1,1.9
			c0.6,0.5,1.4,0.8,2.2,0.8c0.5,0,1-0.3,1.4-0.9C498.3,171.2,497.8,170.9,497.4,170.5z"/>
		<path class="st6" d="M502.6,160.6c-0.6-0.7-0.9-1.6-0.9-2.7c0-0.2,0-0.3,0-0.5c1.8-1.4,2.7-3.2,2.7-5.2c0-2.1-1-3.9-2.9-5.4
			c-2-1.5-4.3-2.2-7.1-2.2c-2.8,0-5.1,0.7-7.1,2.2c-1,0.8-1.8,1.7-2.3,2.6c0.1,0,0.3,0,0.4,0c1.4,0,2.7,0.2,3.9,0.6
			c1.2,0.4,2.3,0.9,3.3,1.7c1,0.8,1.8,1.6,2.3,2.5c0.5,0.9,0.8,2,0.8,3.1c0,0.9-0.2,1.8-0.5,2.6c1-0.1,2-0.3,3-0.6
			c0.1,1.1,0.6,2.1,1.5,2.8c0.9,0.7,2,1.1,3.2,1.1c0.8,0,1.4-0.4,2-1.4C504,161.6,503.2,161.2,502.6,160.6z"/>
	</g>
	<ellipse class="st7" cx="498.2" cy="209.3" rx="44.1" ry="44.1"/>
	<ellipse class="st8" cx="360.8" cy="418.6" rx="123.8" ry="123.8"/>
	<g>
		<path class="st9" d="M157.1,227.1c0,24.9-20.2,45.1-45.1,45.1C87.1,272.2,67,252,67,227.1c0-24.9,20.2-45.1,45.1-45.1
			C136.9,182,157.1,202.2,157.1,227.1z"/>
		<g>
			<path class="st10" d="M112.1,278.4c-28.3,0-51.3-23.1-51.3-51.3c0-28.3,23-51.3,51.3-51.3c28.3,0,51.3,23,51.3,51.3
				C163.3,255.4,140.3,278.4,112.1,278.4z M112.1,178.5c-26.8,0-48.6,21.8-48.6,48.5s21.8,48.5,48.6,48.5
				c26.8,0,48.5-21.8,48.5-48.5S138.8,178.5,112.1,178.5z"/>
		</g>
		<g>
			<defs>
				<path id="SVGID_2_" d="M157.1,227.1c0,24.9-20.2,45.1-45.1,45.1C87.1,272.2,67,252,67,227.1c0-24.9,20.2-45.1,45.1-45.1
					C136.9,182,157.1,202.2,157.1,227.1z"/>
			</defs>
			<clipPath id="SVGID_3_">
				<use xlink:href="#SVGID_2_"  style="overflow:visible;"/>
			</clipPath>
			<g class="st11">
				<linearGradient id="SVGID_4_" gradientUnits="userSpaceOnUse" x1="98.0206" y1="256.5471" x2="124.9729" y2="256.5471">
					<stop  offset="0.5096" style="stop-color:#FFFBE4"/>
					<stop  offset="0.5096" style="stop-color:#FFFBE4"/>
				</linearGradient>
				<polygon class="st12" points="125,251.2 119.9,267.4 100.7,267.4 98,251.2 107.8,245.7 116.9,245.7 				"/>
				<path class="st13" d="M128.5,222.7c0,9.1-7.4,24.6-16.6,24.6s-16.6-15.5-16.6-24.6s7.4-16.6,16.6-16.6S128.5,213.6,128.5,222.7z
					"/>
				<path class="st14" d="M96.4,227.7c0,0-10.3-4.3-7.6-15.3c2.7-11,10.8-11,10.8-11c2.3-5.1,7.2-7.9,8.3-7.9
					c1.5,5.5,5.1,5.5,6.7,5.8c0.8,0.1,1.6,0,2.2-0.4c4.1-2.4,7.7,1,7.7,1s11.9,0.7,9.8,15.1c-2,14.4-3,8.5-5.4,10.8
					c-2.4,2.2-6.2-10.1-6.9-10.1c-2.9,7.6-15.7,0.7-15.7,1.3C98.4,219.3,96.4,227.7,96.4,227.7z"/>
				<path class="st15" d="M123.9,282.5h-23.1c-6.6,0-11.9-5.3-11.9-11.9v-9.1c0-6.6,5.3-11.9,11.9-11.9l11.3,12.5l10.7-12.5h1.2
					c6.6,0,11.9,5.3,11.9,11.9v9.1C135.8,277.2,130.4,282.5,123.9,282.5z"/>
				<g>
					<polygon class="st16" points="111.6,269.5 95.3,250.8 97.5,250 111.5,265.4 					"/>
				</g>
				<g>
					<polygon class="st16" points="111.6,269.5 111.6,265.4 125.7,249.8 128.4,250.7 					"/>
				</g>
			</g>
		</g>
	</g>
	<ellipse class="st17" cx="296.5" cy="112" rx="69.9" ry="69.9"/>
	<g>
		<g>
			<path class="st18" d="M286.3,142.1c-1,3.9-1.9,7.9-2.9,11.8c9,0,18,0,27,0c-1-3.9-1.9-7.9-2.9-11.8
				C300.4,142.1,293.3,142.1,286.3,142.1z"/>
			<path class="st19" d="M312,153.7h-30.3c-0.8,0-1.4,0.7-1.4,1.6v0.6h33.1v-0.6C313.4,154.4,312.8,153.7,312,153.7z"/>
			<path class="st19" d="M251.3,137.5v6.5c0,1.3,1,2.3,2.3,2.3h86.6c1.3,0,2.3-1,2.3-2.3v-6.5H251.3z"/>
			<path class="st20" d="M342.4,137.5V82.4c0-1.3-1-2.3-2.3-2.3h-86.6c-1.3,0-2.3,1-2.3,2.3v55.1H342.4z"/>
			<rect x="255" y="83.6" class="st16" width="83.7" height="50.1"/>
		</g>
	</g>
	<g id="idea_3_">
		<g>
			<g>
				<path class="st6" d="M393.3,108.5c-0.2,0-0.4-0.2-0.4-0.4c0-2.6-2.1-4.7-4.7-4.7c-0.2,0-0.4-0.2-0.4-0.4c0-0.2,0.2-0.4,0.4-0.4
					c3.1,0,5.6,2.5,5.6,5.6C393.7,108.3,393.5,108.5,393.3,108.5z"/>
			</g>
		</g>
		<g>
			<g>
				<g>
					<polygon class="st6" points="389.7,119.1 389.1,119 390.3,111.4 391,111.5 389.7,119.1 					"/>
				</g>
				<g>
					<polygon class="st6" points="386.5,119.1 385.2,111.5 385.9,111.4 387.1,119 386.5,119.1 					"/>
				</g>
			</g>
			<g>
				<path class="st6" d="M390.6,112.5c-0.3,0-0.4-0.3-0.5-0.4c0-0.1-0.1-0.2-0.1-0.2c0,0-0.1,0.2-0.1,0.2c-0.1,0.2-0.2,0.4-0.5,0.4
					c-0.3,0-0.4-0.3-0.5-0.4c0-0.1-0.1-0.2-0.1-0.2c0,0-0.1,0.2-0.1,0.2c-0.1,0.2-0.2,0.4-0.5,0.4c-0.3,0-0.4-0.3-0.5-0.4
					c0-0.1-0.1-0.2-0.1-0.2c0,0-0.1,0.2-0.1,0.2c-0.1,0.2-0.2,0.4-0.5,0.4c-0.3,0-0.4-0.3-0.5-0.4c0-0.1-0.1-0.2-0.2-0.2
					c0,0-0.1,0.2-0.1,0.2c-0.1,0.2-0.2,0.4-0.5,0.4v-0.3c0,0,0.1-0.2,0.1-0.2c0.1-0.2,0.2-0.4,0.5-0.4c0.3,0,0.4,0.3,0.5,0.4
					c0,0.1,0.1,0.2,0.1,0.2c0,0,0.1-0.2,0.2-0.2c0.1-0.2,0.2-0.4,0.5-0.4c0.3,0,0.4,0.3,0.5,0.4c0,0.1,0.1,0.2,0.1,0.2
					c0,0,0.1-0.2,0.1-0.2c0.1-0.2,0.2-0.4,0.5-0.4c0.3,0,0.4,0.3,0.5,0.4c0,0.1,0.1,0.2,0.1,0.2c0,0,0.1-0.2,0.1-0.2
					c0.1-0.2,0.2-0.4,0.5-0.4c0.3,0,0.4,0.3,0.5,0.4c0,0.1,0.1,0.2,0.2,0.2V112.5L390.6,112.5z"/>
			</g>
		</g>
		<g>
			<path class="st6" d="M388.1,98.8c-0.2,0-0.4-0.2-0.4-0.4v-4.4c0-0.2,0.2-0.4,0.4-0.4c0.2,0,0.4,0.2,0.4,0.4v4.4
				C388.5,98.6,388.3,98.8,388.1,98.8z"/>
		</g>
		<g>
			<path class="st6" d="M393.2,100.1c-0.1,0-0.1,0-0.2-0.1c-0.2-0.1-0.3-0.4-0.2-0.6l2.2-3.8c0.1-0.2,0.4-0.3,0.6-0.2
				c0.2,0.1,0.3,0.4,0.2,0.6l-2.2,3.8C393.4,100,393.3,100.1,393.2,100.1z"/>
		</g>
		<g>
			<path class="st6" d="M396.9,103.8c-0.1,0-0.3-0.1-0.4-0.2c-0.1-0.2,0-0.5,0.2-0.6l3.8-2.2c0.2-0.1,0.5,0,0.6,0.2
				c0.1,0.2,0,0.5-0.2,0.6l-3.8,2.2C397,103.8,396.9,103.8,396.9,103.8z"/>
		</g>
		<g>
			<path class="st6" d="M402.8,108.9h-4.6c-0.2,0-0.4-0.2-0.4-0.4c0-0.2,0.2-0.4,0.4-0.4h4.6c0.2,0,0.4,0.2,0.4,0.4
				C403.2,108.7,403,108.9,402.8,108.9z"/>
		</g>
		<g>
			<path class="st6" d="M400.7,116.2c-0.1,0-0.1,0-0.2-0.1l-3.8-2.2c-0.2-0.1-0.3-0.4-0.2-0.6c0.1-0.2,0.4-0.3,0.6-0.2l3.8,2.2
				c0.2,0.1,0.3,0.4,0.2,0.6C401,116.1,400.8,116.2,400.7,116.2z"/>
		</g>
		<g>
			<path class="st6" d="M383,100.1c-0.1,0-0.3-0.1-0.4-0.2l-2.2-3.8c-0.1-0.2,0-0.5,0.2-0.6c0.2-0.1,0.5,0,0.6,0.2l2.2,3.8
				c0.1,0.2,0,0.5-0.2,0.6C383.2,100.1,383.1,100.1,383,100.1z"/>
		</g>
		<g>
			<path class="st6" d="M379.3,103.8c-0.1,0-0.1,0-0.2-0.1l-3.8-2.2c-0.2-0.1-0.3-0.4-0.2-0.6c0.1-0.2,0.4-0.3,0.6-0.2l3.8,2.2
				c0.2,0.1,0.3,0.4,0.2,0.6C379.6,103.8,379.5,103.8,379.3,103.8z"/>
		</g>
		<g>
			<path class="st6" d="M378,108.9h-4.4c-0.2,0-0.4-0.2-0.4-0.4c0-0.2,0.2-0.4,0.4-0.4h4.4c0.2,0,0.4,0.2,0.4,0.4
				C378.4,108.7,378.2,108.9,378,108.9z"/>
		</g>
		<g>
			<path class="st6" d="M375.5,116.2c-0.1,0-0.3-0.1-0.4-0.2c-0.1-0.2,0-0.5,0.2-0.6l3.8-2.2c0.2-0.1,0.5,0,0.6,0.2
				c0.1,0.2,0,0.5-0.2,0.6l-3.8,2.2C375.6,116.1,375.6,116.2,375.5,116.2z"/>
		</g>
		<g>
			<g>
				<path class="st6" d="M391.8,119.3L391.8,119.3h-7.5c-0.4,0-0.7-0.3-0.7-0.7c0,0,0-0.1,0-0.1c0-0.5,0-2-0.5-2.7
					c-3-3.9-3.1-7.6-3.1-7.6c0-4.4,3.6-8.1,8.1-8.1c4.4,0,8.1,3.6,8.1,8.1c0,0-0.1,3.8-3.1,7.6c-0.5,0.7-0.6,2.2-0.5,2.7
					c0,0,0,0.1,0,0.1C392.5,119,392.2,119.3,391.8,119.3z M384.3,117.9c-0.4,0-0.7,0.3-0.7,0.6C383.7,118.1,384,117.9,384.3,117.9z
					 M392,117.9c0.1,0,0.2,0.1,0.3,0.1C392.2,117.9,392.1,117.9,392,117.9z M385.1,117.9h6.1c0-0.3,0-0.6,0-0.6
					c0.1-1,0.4-1.8,0.8-2.4c2.7-3.5,2.8-6.8,2.8-6.8c0-3.7-3-6.7-6.7-6.7c-3.7,0-6.7,3-6.7,6.7c0,0,0.1,3.3,2.8,6.8
					c0.4,0.6,0.7,1.4,0.8,2.4C385,117.3,385,117.6,385.1,117.9z"/>
			</g>
			<g>
				<path class="st6" d="M391.6,120.8h-7c-0.4,0-0.7-0.3-0.7-0.7c0-0.4,0.3-0.7,0.7-0.7h7c0.4,0,0.7,0.3,0.7,0.7
					C392.3,120.5,392,120.8,391.6,120.8z"/>
			</g>
			<g>
				<path class="st6" d="M391.1,122.3h-6c-0.4,0-0.7-0.3-0.7-0.7c0-0.4,0.3-0.7,0.7-0.7h6c0.4,0,0.7,0.3,0.7,0.7
					C391.8,122,391.5,122.3,391.1,122.3z"/>
			</g>
			<g>
				<path class="st6" d="M390.2,123.8H386c-0.4,0-0.7-0.3-0.7-0.7c0-0.4,0.3-0.7,0.7-0.7h4.2c0.4,0,0.7,0.3,0.7,0.7
					C390.9,123.4,390.6,123.8,390.2,123.8z"/>
			</g>
		</g>
	</g>
	<g>
		<path class="st6" d="M137.2,137.6c-3.1,0-5.5,6.7-5.5,15c0,8.3,2.5,15,5.5,15c3.1,0,5.5-6.7,5.5-15
			C142.7,144.4,140.3,137.6,137.2,137.6z M137.2,165.2c-2.6,0-4.6-5.6-4.6-12.6c0-6.9,2.1-12.6,4.6-12.6c2.6,0,4.6,5.6,4.6,12.6
			C141.9,159.6,139.8,165.2,137.2,165.2z"/>
		<path class="st6" d="M152.2,152.7c0-3.1-6.7-5.5-15-5.5c-8.3,0-15,2.5-15,5.5c0,3.1,6.7,5.5,15,5.5
			C145.5,158.2,152.2,155.7,152.2,152.7z M124.6,152.7c0-2.6,5.6-4.6,12.6-4.6c6.9,0,12.6,2.1,12.6,4.6c0,2.6-5.6,4.6-12.6,4.6
			C130.3,157.3,124.6,155.2,124.6,152.7z"/>
		<path class="st6" d="M147.8,142c-2.2-2.2-8.7,0.8-14.5,6.7c-5.9,5.9-8.9,12.4-6.7,14.5c2.2,2.2,8.7-0.8,14.5-6.7
			C147,150.7,150,144.2,147.8,142z M128.3,161.5c-1.8-1.8,0.7-7.3,5.6-12.2c4.9-4.9,10.4-7.4,12.2-5.6c1.8,1.8-0.7,7.3-5.6,12.2
			C135.6,160.8,130.1,163.4,128.3,161.5z"/>
		<path class="st6" d="M147.8,163.3c2.2-2.2-0.8-8.7-6.7-14.5c-5.9-5.9-12.4-8.9-14.5-6.7c-2.2,2.2,0.8,8.7,6.7,14.5
			C139.2,162.4,145.7,165.4,147.8,163.3z M128.3,143.8c1.8-1.8,7.3,0.7,12.2,5.6c4.9,4.9,7.4,10.4,5.6,12.2
			c-1.8,1.8-7.3-0.7-12.2-5.6C129,151,126.5,145.6,128.3,143.8z"/>
		<circle class="st6" cx="137.2" cy="152.7" r="2.3"/>
	</g>
	<g>
		<polygon class="st6" points="60.8,201.8 60.8,191.1 54.8,196.7 54.3,196.2 54.3,201.8 		"/>
		<polygon class="st6" points="68.5,201.8 68.5,192.9 63.7,188 61.9,189.7 61.9,201.8 		"/>
		<polygon class="st6" points="76.1,201.8 76.1,190.2 70.6,195 69.6,194 69.6,201.8 		"/>
		<polygon class="st6" points="83.8,201.8 83.8,183.5 77.3,189.2 77.3,201.8 		"/>
		<path class="st6" d="M83.6,177.4l-12.8,11l-6-5.8c-0.3-0.3-0.6-0.4-1-0.4c-0.4,0-0.8,0.1-1,0.4l-8.5,8.2v2.9l0.5,0.5l9-8.7
			l5.9,5.8c0.5,0.5,1.4,0.5,2,0.1l12-10.4v-3.4L83.6,177.4z"/>
	</g>
	<path class="st6" d="M556.8,450.8c0.5-0.6,0.8-1.3,0.8-2.1c0-2-1.7-3.6-3.8-3.6c-1.1,0-2.1,0.4-2.8,1.2c-1.2-2.8-4.1-4.8-7.5-4.8
		c-3.7,0-6.8,2.3-7.8,5.4c-0.4-0.1-0.7-0.1-1.1-0.1c-3.7,0-6.6,2.8-6.6,6.2c0,0.2,0,0.5,0,0.7c-1.8,0.6-3.1,2.1-3.1,4
		c0,1.4,0.8,2.7,2,3.5l33.5,0.1c1.3-1.1,2.1-2.6,2.1-4.4C562.3,453.7,559.9,451.1,556.8,450.8z"/>
	<g>
		<polygon class="st6" points="410.3,86.6 410.3,75.9 404.4,81.5 403.8,81 403.8,86.6 		"/>
		<polygon class="st6" points="418,86.6 418,77.6 413.3,72.7 411.5,74.4 411.5,86.6 		"/>
		<polygon class="st6" points="425.7,86.6 425.7,75 420.1,79.8 419.1,78.8 419.1,86.6 		"/>
		<polygon class="st6" points="433.3,86.6 433.3,68.3 426.8,73.9 426.8,86.6 		"/>
		<path class="st6" d="M433.2,62.1l-12.8,11l-6-5.8c-0.3-0.3-0.6-0.4-1-0.4c-0.4,0-0.8,0.1-1,0.4l-8.5,8.2v2.9l0.5,0.5l9-8.7
			l5.9,5.8c0.5,0.5,1.4,0.5,2,0.1l12-10.4v-3.4L433.2,62.1z"/>
	</g>
	<g id="filter_3_">
		<path class="st16" d="M477.2,187v3c0,1.2,1,2.2,2.2,2.2h40.1c1.2,0,2.2-1,2.2-2.2v-3H477.2z"/>
		<path class="st16" d="M495,218.2v22.3l8.9-8.9v-13.4l15.6-24.5h-40.1L495,218.2z M500,217.5h-2.2L484,195.9h2.2L500,217.5z"/>
	</g>
	<ellipse class="st21" cx="152.2" cy="420.1" rx="44.1" ry="44.1"/>
	<g>
		<g>
			<path class="st16" d="M153.2,387.2l-9.7,3.9c-4,1.6-6,6.2-4.3,10.2l3.6,8.8c1.6,4,6.2,6,10.2,4.3l9.7-3.9c4-1.6,6-6.2,4.3-10.2
				l-3.6-8.8C161.8,387.5,157.2,385.5,153.2,387.2z M152,398.9c-3.8,1.5-6.1-4.3-2.4-5.8C153.4,391.6,155.8,397.4,152,398.9z"/>
			<path class="st16" d="M157.1,401.2l18.7,44.2c0.8,2,0.6,4-1.4,4.8l-2.3,0.9c-2,0.8-4.3-0.2-5.1-2.2l-18-44.5"/>
			<path class="st16" d="M157.8,398.8l6.5,16.1c0.8,2-0.2,4.3-2.2,5.1l-2.3,0.9c-2,0.8-4.3-0.2-5.1-2.2l-6.5-16.1"/>
			<path class="st22" d="M170.8,446.9c0.2,0.6,0,1.3-0.7,1.5l0,0c-0.6,0.2-1.3,0-1.5-0.7l-11.9-29.5c-0.2-0.6,0-1.3,0.7-1.5l0,0
				c0.6-0.2,1.3,0,1.5,0.7L170.8,446.9z"/>
			<path class="st16" d="M166.9,417.9c0.4,1.1-0.1,2.4-1.2,2.8l0,0c-1.1,0.4-2.4-0.1-2.8-1.2l-0.2-0.5c-0.4-1.1,0.1-2.4,1.2-2.8l0,0
				c1.1-0.4,2.4,0.1,2.8,1.2L166.9,417.9z"/>
			<path class="st16" d="M168.7,422.3c0.4,1.1-0.1,2.4-1.2,2.8l0,0c-1.1,0.4-2.4-0.1-2.8-1.2l-0.2-0.5c-0.4-1.1,0.1-2.4,1.2-2.8l0,0
				c1.1-0.4,2.4,0.1,2.8,1.2L168.7,422.3z"/>
			<path class="st16" d="M170.4,426.7c0.4,1.1-0.1,2.4-1.2,2.8l0,0c-1.1,0.4-2.4-0.1-2.8-1.2l-0.2-0.5c-0.4-1.1,0.1-2.4,1.2-2.8l0,0
				c1.1-0.4,2.4,0.1,2.8,1.2L170.4,426.7z"/>
			<path class="st16" d="M172.2,431c0.4,1.1-0.1,2.4-1.2,2.8l0,0c-1.1,0.4-2.4-0.1-2.8-1.2l-0.2-0.5c-0.4-1.1,0.1-2.4,1.2-2.8l0,0
				c1.1-0.4,2.4,0.1,2.8,1.2L172.2,431z"/>
			<path class="st16" d="M174,435.4c0.4,1.1-0.1,2.4-1.2,2.8l0,0c-1.1,0.4-2.4-0.1-2.8-1.2l-0.2-0.5c-0.4-1.1,0.1-2.4,1.2-2.8l0,0
				c1.1-0.4,2.4,0.1,2.8,1.2L174,435.4z"/>
			<path class="st16" d="M175.7,439.8c0.4,1.1-0.1,2.4-1.2,2.8l0,0c-1.1,0.4-2.4-0.1-2.8-1.2l-0.2-0.5c-0.4-1.1,0.1-2.4,1.2-2.8l0,0
				c1.1-0.4,2.4,0.1,2.8,1.2L175.7,439.8z"/>
			<path class="st16" d="M177.5,444.2c0.4,1.1-0.1,2.4-1.2,2.8l0,0c-1.1,0.4-2.4-0.1-2.8-1.2l-0.2-0.5c-0.4-1.1,0.1-2.4,1.2-2.8l0,0
				c1.1-0.4,2.4,0.1,2.8,1.2L177.5,444.2z"/>
		</g>
		<g>
			<path class="st16" d="M147.2,405.5l0.8,48c0,2.2-1,3.9-3.1,3.9h-2.5c-2.2,0-3.9-1.8-3.9-3.9v-48"/>
			<path class="st16" d="M148.7,403.6v17.4c0,2.2-1.8,3.9-3.9,3.9h-2.5c-2.2,0-3.9-1.8-3.9-3.9v-17.4"/>
			<path class="st22" d="M142.7,453c0,0.7-0.5,1.2-1.2,1.2l0,0c-0.7,0-1.2-0.5-1.2-1.2v-31.9c0-0.7,0.5-1.2,1.2-1.2l0,0
				c0.7,0,1.2,0.5,1.2,1.2V453z"/>
			<path class="st16" d="M150,424.7c0,1.2-1,2.2-2.2,2.2l0,0c-1.2,0-2.2-1-2.2-2.2v-0.6c0-1.2,1-2.2,2.2-2.2l0,0
				c1.2,0,2.2,1,2.2,2.2V424.7z"/>
			<path class="st16" d="M150,429.4c0,1.2-1,2.2-2.2,2.2l0,0c-1.2,0-2.2-1-2.2-2.2v-0.6c0-1.2,1-2.2,2.2-2.2l0,0
				c1.2,0,2.2,1,2.2,2.2V429.4z"/>
			<path class="st16" d="M150,434.1c0,1.2-1,2.2-2.2,2.2l0,0c-1.2,0-2.2-1-2.2-2.2v-0.6c0-1.2,1-2.2,2.2-2.2l0,0
				c1.2,0,2.2,1,2.2,2.2V434.1z"/>
			<path class="st16" d="M150,438.8c0,1.2-1,2.2-2.2,2.2l0,0c-1.2,0-2.2-1-2.2-2.2v-0.6c0-1.2,1-2.2,2.2-2.2l0,0
				c1.2,0,2.2,1,2.2,2.2V438.8z"/>
			<path class="st16" d="M150,443.5c0,1.2-1,2.2-2.2,2.2l0,0c-1.2,0-2.2-1-2.2-2.2v-0.6c0-1.2,1-2.2,2.2-2.2l0,0
				c1.2,0,2.2,1,2.2,2.2V443.5z"/>
			<path class="st16" d="M150,448.2c0,1.2-1,2.2-2.2,2.2l0,0c-1.2,0-2.2-1-2.2-2.2v-0.6c0-1.2,1-2.2,2.2-2.2l0,0
				c1.2,0,2.2,1,2.2,2.2V448.2z"/>
			<path class="st16" d="M150,453c0,1.2-1,2.2-2.2,2.2l0,0c-1.2,0-2.2-1-2.2-2.2v-0.6c0-1.2,1-2.2,2.2-2.2l0,0c1.2,0,2.2,1,2.2,2.2
				V453z"/>
			<path class="st22" d="M148.8,391h-10.5c-4.3,0-7.9,3.5-7.9,7.9v9.5c0,4.3,3.5,7.9,7.9,7.9h10.5c4.3,0,7.9-3.5,7.9-7.9v-9.5
				C156.7,394.5,153.2,391,148.8,391z M143.3,401.5c-4.1,0-4.1-6.3,0-6.3C147.4,395.2,147.4,401.5,143.3,401.5z"/>
		</g>
	</g>
	<ellipse class="st23" cx="360.8" cy="418.6" rx="116.9" ry="116.9"/>
	<g>
		<g id="global_2_">
			<path class="st16" d="M302.1,370.3c-15.3,0-27.7,12.4-27.7,27.7s12.4,27.7,27.7,27.7c15.3,0,27.7-12.4,27.7-27.7
				S317.4,370.3,302.1,370.3z M293.1,377.5c-1.5,1.7-3.1,3.9-4.4,6.8h-4.2C286.7,381.4,289.7,379,293.1,377.5z M281.8,388.7h5.3
				c-0.6,2.1-1,4.5-1.1,7.2h-6.1C280.1,393.3,280.8,390.9,281.8,388.7z M281.9,407.4c-1-2.2-1.7-4.6-2-7.2h6.1
				c0.1,2.6,0.5,5,1.1,7.2H281.9z M284.5,411.7h4.2c1.3,2.8,2.8,5,4.3,6.6C289.7,416.9,286.8,414.6,284.5,411.7z M299.9,418.9
				c-1.2-0.8-4.2-3-6.5-7.1h6.5V418.9z M299.9,407.4h-8.4c-0.7-2.1-1.1-4.4-1.3-7.2h9.7V407.4z M299.9,395.8h-9.7
				c0.2-2.7,0.6-5.1,1.3-7.2h8.4V395.8z M299.9,384.3h-6.5c2.3-4.2,5.3-6.4,6.5-7.1V384.3z M322.4,388.7c1,2.2,1.7,4.6,1.9,7.2h-6.2
				c-0.1-2.6-0.5-5-1.1-7.2H322.4z M319.8,384.3h-4.3c-1.3-2.9-3-5.2-4.5-6.9C314.5,378.9,317.5,381.3,319.8,384.3z M304.3,377.1
				c1.2,0.8,4.2,3,6.5,7.1h-6.5V377.1z M304.3,388.7h8.4c0.7,2.1,1.1,4.4,1.3,7.2h-9.7V388.7z M304.3,400.2h9.7
				c-0.2,2.7-0.6,5.1-1.3,7.2h-8.4V400.2z M304.3,418.9v-7.2h6.5C308.5,415.9,305.5,418.1,304.3,418.9z M311.1,418.4
				c1.5-1.7,3.1-3.9,4.4-6.7h4.3C317.4,414.6,314.5,417,311.1,418.4z M322.4,407.4H317c0.6-2.1,1-4.5,1.1-7.2h6.2
				C324.1,402.7,323.4,405.1,322.4,407.4z"/>
		</g>
		<g id="lock_6_">
			<path class="st16" d="M351.2,363.9h-1.6V358c0-3.6-3.4-7-7-7h-6c-3.6,0-7,3.4-7,7v5.8h-1.6c-0.4,0-0.8,0.3-0.8,0.7v16.2
				c0,0.4,0.3,0.7,0.8,0.7h23c0.4,0,0.8-0.3,0.8-0.7v-16.2C351.9,364.2,351.6,363.9,351.2,363.9z M334.4,358c0-1.6,0.7-2.3,2.3-2.3
				h5.8c1.6,0,2.3,0.7,2.3,2.3v5.8h-10.5V358z M340.8,372.5v3c0,0.3-0.3,0.6-0.6,0.6h-1.2c-0.3,0-0.6-0.3-0.6-0.6v-3
				c-0.7-0.4-1.2-1.2-1.2-2c0-1.3,1-2.3,2.3-2.3s2.3,1,2.3,2.3C342,371.4,341.5,372.1,340.8,372.5z"/>
		</g>
	</g>
	<g>
		<g>
			<g id="file_10_">
				<path class="st16" d="M437.3,361.8v62.9c0,1.1-0.9,1.9-1.9,1.9h-68.6c-1.1,0-1.9-0.9-1.9-1.9V337c0-1.1,0.9-1.9,1.9-1.9h43.9
					v24.8c0,1.1,0.9,1.9,1.9,1.9H437.3z M414.4,335.1v21c0,1.1,0.9,1.9,1.9,1.9h21L414.4,335.1z"/>
			</g>
			<g>
				<circle class="st23" cx="431.8" cy="423.6" r="36.3"/>
				<g id="globe_5_">
					<path class="st16" d="M433,401.9c-0.8,0.4-1.3,1.3-1.9,1.8c-0.6,0.1-1.2-0.1-1.5-0.6c0.1,1.1-1.5,1.8-1.8,3
						c1.9,1.3,4.9,1.3,7.1,1.8C434.8,405.9,433.1,404.1,433,401.9z"/>
					<path class="st16" d="M432.3,391.9c-17.5,0-31.6,14.2-31.6,31.6c0,17.5,14.2,31.6,31.6,31.6S464,441,464,423.6
						C464,406.1,449.8,391.9,432.3,391.9z M449.6,444.9c-2.8,3.1-7.9,6.1-12.1,6c-0.8-1.1,0.1-1.5,0.1-2.4c-2.3-0.5-3.6-2.5-4.8-4.4
						c-0.4-2.3,2.8-4.3,1.9-6.2c-1.5,0.2-3-0.2-4.2-1.1c-0.6-0.5-1.1-1.1-1.5-1.7c-0.9-0.5-1.8-0.8-2.8-1.2
						c-2.9-1.2-6.1-2.2-8.3-4.6c0.2-2.2-1.1-3.4-2.5-4.8c-1.5-1.5-0.8-2.7-1.5-4.6c-0.5-1.3-1.2-2.4-1.1-3.9
						c0.1-1.4,0.4-2.8,0.9-4.1c1-2.5,2.3-4.8,2.6-7.6c0.2-1.1-1.7-1.5-0.2-2.8c1.5-1.4,3.4-3,5.5-3c1.1,0,1.7,0.6,2.8,0.3
						c1-0.3,2.1-0.4,3.2-0.6c2.2-0.3,4.3-0.7,6.1-2.1l0.1,0.2h1.7l0.2-0.1c2.4,2,8.3,1.2,7.5,5.7l-0.1,0.4c-2.1,0.2-4-0.1-5.9-0.8
						c0,0.8,0.1,1.7-0.1,2.4c3.1,1.8,7.3,3.2,8.9,6.7c-1.4,1.7-3.1,0.9-4.9,0.9c-0.6,0.6-0.8,1.1-0.6,2c-1.5,0.7-2.8,1.5-3.3,3.2
						c-0.2,0.9-0.1,2.1-0.4,2.9c-0.5,1.1-1.7,1.8-2.1,2.9c-0.1,1.5,0.7,2.8-0.7,4c-2.2,0-2.4-1.8-4-2.3c-1.5-0.5-3.2-0.1-4.7-0.4
						c-2.1,0.8-1.9,6.1,1,5.1c1.3-0.5,1.5-1.5,3.2-1.1c1.4,0.7,0.6,2.3,0.5,3.5c0.9,0.5,2.3,0.2,2.8,1.3c0.1,0.7-0.3,2.2,0.2,2.8
						c1,1.6,4.2-1,5-1.3c2.4-0.8,5.1-0.6,7.6-0.7c1.9,1.5,4.9,0.7,6.5,2.7c1.1-0.2,2-0.8,3,0.1C454.9,439.8,452.1,442.5,449.6,444.9
						z"/>
				</g>
			</g>
		</g>
		<text transform="matrix(1 0 0 1 403.0525 479.8604)" class="st16 st24 st25">www</text>
	</g>
	<path class="st16" d="M358.3,495.3c0.3,0.4,0.4,0.8,0.4,1.3v11.3c0,4.2-12.6,7.5-28.2,7.5c-15.6,0-28.2-3.4-28.2-7.5v-11.3
		c0-0.4,0.2-0.8,0.4-1.3c7.7,4.7,23.7,5,27.7,5S350.6,500,358.3,495.3z M330.5,481.5c-4,0-20-0.3-27.7-5c-0.3,0.4-0.4,0.8-0.4,1.3
		v11.3c0,4.2,12.6,7.5,28.2,7.5c15.6,0,28.2-3.4,28.2-7.5v-11.3c0-0.4-0.2-0.8-0.4-1.3C350.6,481.2,334.5,481.5,330.5,481.5z
		 M330.5,462.7c-4,0-20-0.3-27.7-5c-0.3,0.4-0.4,0.8-0.4,1.3v11.3c0,4.2,12.6,7.5,28.2,7.5c15.6,0,28.2-3.4,28.2-7.5V459
		c0-0.4-0.2-0.8-0.4-1.3C350.6,462.4,334.5,462.7,330.5,462.7z M358.7,440.2v11.3c0,4.2-12.6,7.5-28.2,7.5
		c-15.6,0-28.2-3.4-28.2-7.5v-11.3c0-4.2,12.6-7.5,28.2-7.5C346.1,432.7,358.7,436,358.7,440.2z M342.7,438.3
		c0-1.3-5.4-2.4-12.1-2.4c-6.7,0-12.1,1.1-12.1,2.4s5.4,2.4,12.1,2.4C337.2,440.7,342.7,439.7,342.7,438.3z"/>
	<text transform="matrix(1 0 0 1 242.687 207.5776)" class="st26 st24 st27">Display Device</text>
	<text transform="matrix(1 0 0 1 428.709 276.0103)" class="st26 st24 st27">Data Management</text>
	<text transform="matrix(1 0 0 1 313.3979 567.3701)" class="st26 st24 st27">Data Sources</text>
	<text transform="matrix(1 0 0 1 90.376 302.7959)" class="st26 st24 st27">User</text>
	<text transform="matrix(1 0 0 1 101.3428 492.6235)" class="st26 st24 st27">Secure Access</text>
	<text transform="matrix(1 0 0 1 91.3428 361.1738)" class="st26 st24 st27">Verify Request</text>
</g>
</svg>
