<?xml version="1.0" encoding="utf-8"?>
<!-- Generator: Adobe Illustrator 20.0.0, SVG Export Plug-In . SVG Version: 6.00 Build 0)  -->
<svg version="1.1" id="Layer_1" xmlns="http://www.w3.org/2000/svg" xmlns:xlink="http://www.w3.org/1999/xlink" x="0px" y="0px"
	 viewBox="0 0 612 612" style="enable-background:new 0 0 612 612;" xml:space="preserve">
<style type="text/css">
	.st0{clip-path:url(#SVGID_2_);fill-rule:evenodd;clip-rule:evenodd;fill:url(#SVGID_3_);}
	.st1{clip-path:url(#SVGID_2_);fill-rule:evenodd;clip-rule:evenodd;fill:#5996CB;}
	.st2{clip-path:url(#SVGID_2_);}
	.st3{fill:#65A0D3;}
	.st4{fill-rule:evenodd;clip-rule:evenodd;fill:#65A0D3;}
	.st5{fill-rule:evenodd;clip-rule:evenodd;fill:#5996CB;}
	.st6{fill:#5996CB;}
	
		.st7{fill-rule:evenodd;clip-rule:evenodd;fill:#65A0D3;stroke:#65A0D3;stroke-width:0.6195;stroke-linecap:round;stroke-linejoin:round;stroke-miterlimit:22.9256;}
	
		.st8{fill-rule:evenodd;clip-rule:evenodd;fill:#5996CB;stroke:#65A0D3;stroke-width:0.6195;stroke-linecap:round;stroke-linejoin:round;stroke-miterlimit:22.9256;}
	.st9{fill-rule:evenodd;clip-rule:evenodd;fill:none;stroke:#5996CB;stroke-width:0.8261;stroke-miterlimit:22.9256;}
	.st10{fill-rule:evenodd;clip-rule:evenodd;fill:none;stroke:#5996CB;stroke-width:0.6195;stroke-miterlimit:22.9256;}
	.st11{opacity:0.2;fill-rule:evenodd;clip-rule:evenodd;fill:#191919;}
	.st12{fill:#FFFFFF;}
	.st13{fill-rule:evenodd;clip-rule:evenodd;fill:#CCCCCC;}
	.st14{fill-rule:evenodd;clip-rule:evenodd;fill:#FFFFFF;}
	.st15{fill-rule:evenodd;clip-rule:evenodd;fill:#B3B4B4;}
	
		.st16{fill-rule:evenodd;clip-rule:evenodd;fill:none;stroke:#FFFFFF;stroke-width:2.2398;stroke-miterlimit:22.9256;stroke-dasharray:2.2398,6.7195;}
	.st17{fill:#D5EAF9;}
	.st18{fill-rule:evenodd;clip-rule:evenodd;fill:#1D4C74;}
	.st19{fill-rule:evenodd;clip-rule:evenodd;fill:#EF6358;}
	.st20{fill-rule:evenodd;clip-rule:evenodd;fill:#F58A83;}
	.st21{fill-rule:evenodd;clip-rule:evenodd;fill:#356996;}
	.st22{fill-rule:evenodd;clip-rule:evenodd;fill:#FED500;}
	.st23{fill-rule:evenodd;clip-rule:evenodd;fill:#F6881F;}
	.st24{fill-rule:evenodd;clip-rule:evenodd;fill:#FED4A3;}
	.st25{fill-rule:evenodd;clip-rule:evenodd;fill:#FDC686;}
	.st26{fill-rule:evenodd;clip-rule:evenodd;fill:#D4453B;}
	.st27{fill-rule:evenodd;clip-rule:evenodd;fill:#EBB587;}
	.st28{font-family:'Arial-BoldMT';}
	.st29{font-size:7px;}
</style>
<g>
	<defs>
		<circle id="SVGID_1_" cx="306" cy="306" r="306"/>
	</defs>
	<clipPath id="SVGID_2_">
		<use xlink:href="#SVGID_1_"  style="overflow:visible;"/>
	</clipPath>
	<radialGradient id="SVGID_3_" cx="340.1764" cy="303.6966" r="344.1526" gradientUnits="userSpaceOnUse">
		<stop  offset="0.4909" style="stop-color:#5996CB;stop-opacity:0"/>
		<stop  offset="0.9532" style="stop-color:#5996CB;stop-opacity:0.7265"/>
		<stop  offset="1" style="stop-color:#5996CB;stop-opacity:0.8"/>
	</radialGradient>
	<rect x="-4" y="-40.5" class="st0" width="688.3" height="688.3"/>
	<rect x="-4" y="-40.5" class="st1" width="688.3" height="688.3"/>
	<g class="st2">
		<g>
			<polygon class="st3" points="538.5,402.1 538.3,406.7 551.9,406.7 551.7,402.1 			"/>
			<path class="st3" d="M551.6,400.9h12.6V377h-19.2v2.9h15.7v18h-9.3h-6.4v2.9H551.6z M545.1,377h-19.2v23.9h12.6h6.5V398h-6.4
				h-9.3l0,0v-18h15.7V377z"/>
			<polygon class="st3" points="535.6,407.9 535.6,409.7 554.5,409.7 554.5,407.9 551.9,407.9 538.2,407.9 			"/>
		</g>
		<g>
			<path class="st3" d="M446.2,186.3c-11.8,0.1-21.5,9.7-21.5,21.6c0,3.6,0.9,7.1,2.6,10.3v-5.7c0-1.1,0.4-2,1-2.9
				c-0.1-0.6-0.1-1.1-0.1-1.7c0-9.9,8.1-18,17.9-18c9.9,0,17.9,8.1,17.9,18c0,0.6,0,1.3-0.1,1.9c0.6,0.8,0.9,1.7,0.9,2.7v6
				c1.8-3.2,2.8-6.9,2.8-10.6C467.7,196.1,458.1,186.4,446.2,186.3z"/>
			<path class="st3" d="M428.6,211.6c-0.1,0.3-0.1,0.6-0.1,0.9v5.5v2.6c0,2.5,3,4.5,6.6,4.5h2.8V208h-2.8
				C431.9,208,429.3,209.5,428.6,211.6z"/>
			<path class="st3" d="M463.7,220.6v-2.7v-5.4c0-0.2,0-0.4-0.1-0.6c-0.4-2.2-3.2-3.9-6.6-3.9h-2.8v17.1h2.8
				C460.8,225.1,463.7,223.1,463.7,220.6z"/>
		</g>
		<g>
			<path class="st3" d="M127.2,373.7c1.2,0.8,2.7,1.3,4.2,1.3c4.3,0,7.8-3.5,7.8-7.8c0-4.3-3.5-7.8-7.8-7.8c-3.9,0-7.2,2.9-7.7,6.6
				h7.7h2.6l-1.7,1.9L127.2,373.7z"/>
			<path class="st3" d="M113.7,383.3v0.9v0.9v9.7c-2.1,0.3-3.7,1.4-3.7,2.6h10.4c0-1.1-1.3-2.1-3.3-2.5V385v-0.9v-0.9l9.1-10.3
				l5.2-5.8h-7.8H99.5L113.7,383.3z"/>
		</g>
		<g>
			<circle class="st4" cx="185.9" cy="195" r="18"/>
			<polygon class="st5" points="178.7,184.5 196.5,195 178.7,205.5 			"/>
		</g>
		<g>
			<path class="st4" d="M312.3,169.1h2c5.8,0,6-6.5,0-6.5l-2,0v0.5c1.5,0,2.7,1.2,2.7,2.7c0,1.5-1.2,2.7-2.7,2.7V169.1z M265,169.1
				h47.4v-0.5c-1.5,0-2.7-1.2-2.7-2.7c0-1.5,1.2-2.7,2.7-2.7v-0.5c-15.8,0-31.6,0-47.4,0v0.5c1.5,0,2.7,1.2,2.7,2.7
				c0,1.5-1.2,2.7-2.7,2.7V169.1z M263,169.1h2v-0.5l0,0c-1.5,0-2.7-1.2-2.7-2.7c0-1.5,1.2-2.7,2.7-2.7l0,0v-0.5l-2,0
				C257,162.6,257.2,169.1,263,169.1z"/>
			<circle class="st4" cx="292.3" cy="143.1" r="2.7"/>
			<path class="st4" d="M313.4,165.1l-18.6-20.9c-0.4-0.5-1.2-0.5-1.7-0.1l0,0c-0.5,0.4-0.5,1.2-0.1,1.7l18.6,20.9
				c0.4,0.5,1.2,0.5,1.7,0.1l0,0C313.8,166.4,313.8,165.6,313.4,165.1z"/>
			<circle class="st4" cx="285" cy="143.1" r="2.7"/>
			<path class="st4" d="M263.9,165.1l20.3-22.7c0.4-0.5,1.2-0.5,1.7-0.1l0,0c0.5,0.4,0.5,1.2,0.1,1.7l-20.3,22.7
				c-0.4,0.5-1.2,0.5-1.7,0.1l0,0C263.5,166.4,263.5,165.6,263.9,165.1z"/>
			<path class="st4" d="M304.4,171.1h9.6l-2.5,14.4c-0.5,3.1-2.1,5.4-6.8,5.4h-0.2v-4.3c0.7-0.3,1.2-1,1.3-1.8
				c0.2-1.6,0.5-3.3,0.7-4.9c0.2-1.6,0.5-3.3,0.7-4.9c0.2-1.1-0.7-2-1.9-2l0,0c-0.3,0-0.5,0-0.8,0.1V171.1z M296.6,171.1h7.9v2
				c-0.9,0.3-1.5,1-1.6,1.9c-0.2,1.6-0.3,3.3-0.5,4.9c-0.2,1.6-0.3,3.3-0.5,4.9c-0.1,1.1,0.7,2,1.8,2l0,0c0.3,0,0.6-0.1,0.9-0.2v4.3
				h-7.9v-4.2c0.9-0.2,1.5-1,1.6-1.9c0.1-1.6,0.3-3.3,0.4-4.9c0.1-1.6,0.3-3.3,0.4-4.9c0.1-1.1-0.8-2-2-2l0,0c-0.1,0-0.2,0-0.3,0
				V171.1z M288.6,171.1h7.9v1.9c-1,0.2-1.9,1-1.9,2c-0.1,1.6-0.1,3.3-0.2,4.9c-0.1,1.6-0.1,3.3-0.2,4.9c0,1.1,0.8,2,1.9,2l0,0
				c0.2,0,0.3,0,0.5-0.1v4.2h-7.9v-4.1c1.1,0,2-0.9,2-2c0-1.6,0.1-3.3,0.1-4.9c0-1.6,0.1-3.3,0.1-4.9c0-1.1-0.9-2-2.1-2l0,0h0V171.1
				z M280.7,171.1h7.9v1.8c-1.2,0-2.2,0.9-2.1,2c0,1.6,0.1,3.3,0.1,4.9c0,1.6,0,3.3,0.1,4.9c0,1.1,0.9,2,2,2l0,0h0v4.1h-7.9v-4.2
				c0.2,0,0.3,0.1,0.5,0.1l0,0c1.1,0,1.9-0.9,1.9-2c-0.1-1.6-0.1-3.3-0.2-4.9c-0.1-1.6-0.1-3.3-0.2-4.9c0-1-0.9-1.8-1.9-2V171.1z
				 M272.8,171.1h7.9v1.9c-0.1,0-0.2,0-0.3,0l0,0c-1.2,0-2.1,0.9-2,2c0.1,1.6,0.3,3.3,0.4,4.9c0.1,1.6,0.2,3.3,0.4,4.9
				c0.1,0.9,0.8,1.7,1.6,1.9v4.2h-7.9v-4.3c0.3,0.1,0.6,0.2,0.9,0.2l0,0c1.1,0,1.9-0.9,1.7-2c-0.2-1.6-0.3-3.3-0.5-4.9
				c-0.2-1.6-0.4-3.3-0.5-4.9c-0.1-0.9-0.8-1.6-1.6-1.9V171.1z M272.6,190.9c-4.8,0-6.3-2.3-6.8-5.4l-2.5-14.4h9.5v2
				c-0.2-0.1-0.5-0.1-0.8-0.1l0,0c-1.2,0-2.1,0.9-1.9,2c0.2,1.6,0.5,3.3,0.7,4.9c0.2,1.6,0.5,3.3,0.7,4.9c0.1,0.8,0.6,1.5,1.3,1.8
				v4.3H272.6z"/>
		</g>
		<g>
			<polygon class="st3" points="408.9,360.7 408.7,365.3 422.3,365.3 422.1,360.7 			"/>
			<path class="st3" d="M422,359.5h12.6v-23.9h-19.2v2.9h15.7v18h-9.3h-6.4v2.9H422z M415.5,335.6h-19.2v23.9h12.6h6.5v-2.9h-6.4
				h-9.3l0,0v-18h15.7V335.6z"/>
			<polygon class="st3" points="406,366.5 406,368.3 424.9,368.3 424.9,366.5 422.3,366.5 408.6,366.5 			"/>
		</g>
		<g>
			<path class="st4" d="M228.8,396.6c7.2,0,13,5.8,13,13c0,4.7-2.5,8.8-6.2,11l-1.4,10.7h-10.9l-1.4-10.7c-3.7-2.3-6.2-6.4-6.2-11
				C215.8,402.4,221.6,396.6,228.8,396.6z"/>
			<g>
				<path class="st6" d="M226.6,425.8c0.1,0.3-0.1,0.6-0.4,0.6c-0.3,0.1-0.6-0.1-0.6-0.4l-2.2-9v-4.2l0.1,0.1c0,0,0-0.1-0.1-0.1v0
					c0.2,0.2,0.4,0.4,0.6,0.6c1.3,1,2.9,1.6,4.6,1.6c1.6,0,3.3-0.5,4.4-1.6c0.2-0.2,0.4-0.4,0.6-0.6c0.2-0.2,0.5-0.3,0.7-0.1
					c0.2,0.1,0.2,0.4,0.2,0.5l-3.2,12.9c-0.1,0.3-0.3,0.4-0.6,0.4c-0.3-0.1-0.4-0.3-0.4-0.6l2.7-11.2c-1.3,0.9-2.9,1.3-4.5,1.3
					c-1.7,0-3.4-0.5-4.8-1.4L226.6,425.8z M223.4,417.1l-1-3.9c-0.1-0.3,0.1-0.6,0.4-0.6c0.2,0,0.4,0,0.5,0.2l0.1,0.1v0
					c0,0,0-0.1-0.1-0.1l0.1,0.1V417.1z"/>
			</g>
			<path class="st4" d="M221.4,424.8h14.7l-0.7,6.9c-0.1,1.2-0.2,1.8-1.8,1.8H224c-1.7,0-1.7-0.6-1.8-1.8L221.4,424.8z"/>
			<g>
				<path class="st3" d="M236.7,385.7c0.1-0.3,0.5-0.5,0.8-0.4c0.3,0.1,0.5,0.5,0.4,0.8L235,394c-0.1,0.3-0.5,0.5-0.8,0.4
					c-0.3-0.1-0.5-0.5-0.4-0.8L236.7,385.7z"/>
				<path class="st3" d="M244.3,389.8c0.2-0.3,0.6-0.3,0.9-0.1c0.3,0.2,0.3,0.6,0.1,0.9l-5.3,6.4c-0.2,0.3-0.6,0.3-0.9,0.1
					c-0.3-0.2-0.3-0.6-0.1-0.9L244.3,389.8z"/>
				<path class="st3" d="M250,396.3c0.3-0.2,0.7-0.1,0.9,0.2c0.2,0.3,0.1,0.7-0.2,0.9l-7.2,4.2c-0.3,0.2-0.7,0.1-0.9-0.2
					c-0.2-0.3-0.1-0.7,0.2-0.9L250,396.3z"/>
				<path class="st3" d="M253.2,404.3c0.4-0.1,0.7,0.2,0.7,0.5c0.1,0.4-0.2,0.7-0.5,0.7l-8.2,1.4c-0.4,0.1-0.7-0.2-0.7-0.5
					c-0.1-0.4,0.2-0.7,0.5-0.7L253.2,404.3z"/>
				<path class="st3" d="M228.1,384.4c0-0.4,0.3-0.6,0.6-0.6c0.4,0,0.6,0.3,0.6,0.6v8.3c0,0.4-0.3,0.6-0.6,0.6
					c-0.4,0-0.6-0.3-0.6-0.6V384.4z"/>
				<path class="st3" d="M219.7,386.1c-0.1-0.3,0.1-0.7,0.4-0.8c0.3-0.1,0.7,0.1,0.8,0.4l2.8,7.8c0.1,0.3-0.1,0.7-0.4,0.8
					c-0.3,0.1-0.7-0.1-0.8-0.4L219.7,386.1z"/>
				<path class="st3" d="M212.3,390.6c-0.2-0.3-0.2-0.7,0.1-0.9c0.3-0.2,0.7-0.2,0.9,0.1l5.3,6.4c0.2,0.3,0.2,0.7-0.1,0.9
					c-0.3,0.2-0.7,0.2-0.9-0.1L212.3,390.6z"/>
				<path class="st3" d="M206.9,397.4c-0.3-0.2-0.4-0.6-0.2-0.9c0.2-0.3,0.6-0.4,0.9-0.2l7.2,4.2c0.3,0.2,0.4,0.6,0.2,0.9
					c-0.2,0.3-0.6,0.4-0.9,0.2L206.9,397.4z"/>
				<path class="st3" d="M204.2,405.6c-0.4-0.1-0.6-0.4-0.5-0.7c0.1-0.4,0.4-0.6,0.7-0.5l8.2,1.4c0.4,0.1,0.6,0.4,0.5,0.7
					c-0.1,0.4-0.4,0.6-0.7,0.5L204.2,405.6z"/>
			</g>
		</g>
		<g>
			<circle class="st3" cx="327" cy="488" r="3.8"/>
			<polygon class="st3" points="320.8,498.5 321.9,498.5 321.9,507.8 321.9,507.8 321.9,521.7 326.4,521.7 326.4,506.8 327.6,506.8 
				327.6,521.7 332.1,521.7 332.1,506.8 332.1,506.8 332.1,498.5 333.2,498.5 333.2,506.8 336.1,506.8 336.1,493.3 317.7,493.3 
				317.7,506.8 320.8,506.8 			"/>
			<circle class="st3" cx="347.9" cy="488" r="3.8"/>
			<polygon class="st3" points="355.5,506.8 358.5,506.8 354.7,493.3 341.2,493.3 337.3,506.8 340.2,506.8 342.5,498.5 343.5,498.5 
				339.4,513.6 342.8,513.6 342.8,521.7 347.2,521.7 347.2,513.6 348.5,513.6 348.5,521.7 352.9,521.7 353,513.6 356.3,513.6 
				352.1,498.6 353.2,498.7 			"/>
		</g>
		<g>
			<path class="st3" d="M597.2,294c2-2.5,3.2-5.7,3.2-9.2c0-3.5-1.2-6.6-3.2-9.2v8.3h2l0,0v1.7h-2V294z M593.9,297
				c1.3-0.8,2.4-1.9,3.4-3.1v-8.3h-2V284h2v-8.3c-1-1.2-2.1-2.2-3.4-3.1v2.9l0.8-0.8l0,0l1.2,1.2l-2,2v13.9l2,2l-1.2,1.2l-0.8-0.8
				V297z M585.7,299.5c3,0,5.8-0.9,8.1-2.5v-2.9l-2-2l1.2-1.2l0,0l0.8,0.8v-13.9l-0.8,0.8l-1.2-1.2l2-2v-2.9
				c-2.3-1.5-5.1-2.5-8.1-2.5h0v1.2h0.8v3.9h-0.8v8.4l0.2,0.2l4.6-4.5l1.2,1.2l-5.8,5.7l-0.2-0.2v8.3h0.8v3.9l0,0h-0.8L585.7,299.5
				L585.7,299.5z M585.7,270.1c-3,0-5.8,0.9-8.1,2.5v2.9l2,2l-1.2,1.2l-0.8-0.8v13.9l0.8-0.8l1.2,1.2l-2,2v2.9
				c2.3,1.5,5.1,2.5,8.1,2.5v-1.2h-0.8v-3.9h0.8V286l-3.5-3.4l1.2-1.2l0,0l2.4,2.3v-8.4h-0.8v-3.9l0,0h0.8V270.1z M577.6,272.6
				c-1.3,0.9-2.4,1.9-3.4,3.1v8.3h2l0,0v1.7h-2v8.3c1,1.2,2.1,2.2,3.4,3.1v-2.9l-0.8,0.8l0,0l-1.2-1.2l2-2v-13.9l-2-2l1.2-1.2l0,0
				l0.8,0.8V272.6z M574.2,275.6c-2,2.5-3.2,5.7-3.2,9.2c0,3.5,1.2,6.6,3.2,9.1v-8.3h-2V284h2V275.6z"/>
		</g>
		<g>
			<path class="st3" d="M513.5,300c0.6,0,1.3,0,2,0.1l0.9-2.9l6.1,1.9l-0.9,2.9c2.2,1.2,4.1,2.7,5.6,4.6l2.7-1.4l3,5.7l-2.7,1.4
				c0.7,2.3,1,4.8,0.7,7.3l2.9,0.9l-1.9,6.1l-2.9-0.9c-1.2,2.2-2.7,4.1-4.6,5.6l1.4,2.7l-5.7,3l-1.4-2.7c-1.7,0.5-3.5,0.8-5.3,0.8
				v-4.6c5.6,0,10.7-3.6,12.4-9.2c2.1-6.9-1.8-14.1-8.6-16.2c-1.3-0.4-2.5-0.6-3.8-0.6V300z M502.5,303.8l-1.4-2.7l5.7-3l1.4,2.7
				c1.7-0.5,3.5-0.8,5.3-0.8v4.6c-5.6,0-10.7,3.6-12.4,9.2c-2.1,6.9,1.8,14.1,8.6,16.2l0,0c1.3,0.4,2.5,0.6,3.8,0.6v4.6
				c-0.6,0-1.3,0-2-0.1l-0.9,2.9l-6.1-1.9l0.9-2.9c-2.2-1.2-4.1-2.7-5.6-4.6l-2.7,1.4l-3-5.7l2.7-1.4c-0.7-2.3-1-4.8-0.7-7.3
				l-2.9-0.9l1.9-6.1l2.9,0.9C499,307.2,500.6,305.3,502.5,303.8z"/>
			<path class="st3" d="M492.3,336.2c0.4,0,0.8,0,1.2,0.1l0.5-1.8l3.7,1.1l-0.5,1.8c1.4,0.7,2.5,1.7,3.4,2.8l1.6-0.9l1.8,3.4
				l-1.6,0.9c0.4,1.4,0.6,2.9,0.4,4.4l1.8,0.5l-1.1,3.7l-1.8-0.5c-0.7,1.4-1.7,2.5-2.8,3.4l0.9,1.6l-3.4,1.8l-0.9-1.6
				c-1,0.3-2.1,0.5-3.2,0.5v-2.8c3.4,0,6.5-2.2,7.5-5.6c1.3-4.2-1.1-8.6-5.2-9.8c-0.8-0.2-1.5-0.3-2.3-0.3V336.2z M485.6,338.5
				l-0.9-1.6l3.4-1.8l0.9,1.6c1-0.3,2.1-0.5,3.2-0.5v2.8c-3.4,0-6.5,2.2-7.5,5.6c-1.3,4.2,1.1,8.6,5.2,9.8l0,0
				c0.8,0.2,1.5,0.3,2.3,0.3v2.8c-0.4,0-0.8,0-1.2-0.1l-0.5,1.8l-3.7-1.1l0.5-1.8c-1.4-0.7-2.5-1.7-3.4-2.8l-1.6,0.9l-1.8-3.4
				l1.6-0.9c-0.4-1.4-0.6-2.9-0.4-4.4l-1.8-0.5l1.1-3.7l1.8,0.5C483.5,340.6,484.5,339.4,485.6,338.5z"/>
		</g>
		<g>
			<path class="st3" d="M391.1,229c-3.8-5.6-10-8.7-16.3-8.7v3.6c5.1,0,10.2,2.5,13.2,7.1c4.9,7.3,2.9,17.2-4.4,22.1
				c-2.7,1.8-5.8,2.7-8.8,2.7v3.6c3.7,0,7.5-1.1,10.8-3.3C394.6,250.1,397.1,238,391.1,229z M374.8,220.3c-3.7,0-7.5,1.1-10.8,3.3
				c-9,6-11.4,18.1-5.4,27.1c3.8,5.6,10,8.7,16.3,8.7v-3.6c-5.1,0-10.2-2.5-13.2-7.1l0,0c-4.9-7.3-2.9-17.2,4.4-22.1
				c2.7-1.8,5.8-2.7,8.8-2.7V220.3z"/>
			
				<rect x="342.9" y="252.1" transform="matrix(0.8322 -0.5544 0.5544 0.8322 -82.1378 238.1139)" class="st3" width="19" height="5.3"/>
			
				<rect x="343.9" y="253.3" transform="matrix(0.8323 -0.5544 0.5544 0.8323 -83.2194 237.1923)" class="st3" width="12.9" height="5.6"/>
			<path class="st3" d="M339.4,268.8c-2.1,1.4-4.9,0.8-6.2-1.2c-1.4-2.1-0.8-4.9,1.3-6.2l15.9-10.6c1.2-0.8,2.6-0.9,3.9-0.5l3.1,4.7
				c-0.1,1.3-0.8,2.6-2,3.4L339.4,268.8z"/>
			<path class="st3" d="M339.2,268.7c-1.9,1.3-4.6,0.8-5.9-1.2c-1.3-1.9-0.8-4.6,1.2-5.9l14.9-10c1.9-1.3,4.6-0.8,5.9,1.2
				c1.3,1.9,0.8,4.6-1.2,5.9L339.2,268.7z"/>
		</g>
		<g>
			<path class="st4" d="M367.9,179.8l-14-24.3c-1.4-2.4-2.3-5.3-2.3-8.3c0-9,7.3-16.3,16.3-16.3c9,0,16.3,7.3,16.3,16.3
				c0,3-0.9,5.8-2.3,8.3L367.9,179.8z"/>
			<path class="st5" d="M367.9,158.7c6.3,0,11.5-5.2,11.5-11.5c0-6.3-5.2-11.5-11.5-11.5c-6.3,0-11.5,5.2-11.5,11.5
				C356.4,153.5,361.6,158.7,367.9,158.7z"/>
		</g>
		<g>
			
				<rect x="334.4" y="33.1" transform="matrix(0.5462 -0.8376 0.8376 0.5462 110.1185 307.3556)" class="st7" width="8.7" height="37.9"/>
			
				<rect x="336.1" y="34.8" transform="matrix(0.5462 -0.8377 0.8377 0.5462 110.1255 307.3619)" class="st8" width="5.3" height="34.5"/>
			<path class="st7" d="M315.6,30.4c3.2-1.5,7.1-1.4,10.3,0.7c4.9,3.2,6.3,9.7,3.1,14.6c-3.2,4.9-9.7,6.3-14.6,3.1
				c-3.2-2.1-4.9-5.6-4.8-9.1l5,3.3l2.7,1.7l2.8-1.4l2.8-1.4l0.2-3.2l0.2-3.2l-2.7-1.7L315.6,30.4z"/>
			<path class="st7" d="M367.9,64.5c0.1-3.5-1.6-7.1-4.8-9.1c-4.9-3.2-11.4-1.8-14.6,3.1c-3.2,4.9-1.8,11.4,3.1,14.6
				c3.2,2.1,7.1,2.2,10.3,0.7l-5-3.3l-2.7-1.7l0.2-3.2l0.2-3.2l2.8-1.4l2.8-1.4l2.7,1.7L367.9,64.5z"/>
			<path class="st8" d="M365.6,61c-0.7-1.7-1.8-3.2-3.4-4.2c-4.1-2.7-9.6-1.5-12.2,2.6c-2.7,4.1-1.5,9.6,2.6,12.2
				c1.6,1,3.4,1.5,5.2,1.4l-5.2-3.4l0.4-8.3l7.4-3.8L365.6,61z"/>
			<path class="st8" d="M311.8,43.1c0.7,1.7,1.8,3.2,3.4,4.2c4.1,2.7,9.6,1.5,12.2-2.6c2.7-4.1,1.5-9.6-2.6-12.2
				c-1.6-1-3.4-1.5-5.2-1.4l5.2,3.4l-0.5,8.3l-7.4,3.8L311.8,43.1z"/>
		</g>
		<g>
			<path class="st3" d="M513,218.5c3.4,0,6.1-2.7,6.1-6.1c0,0,0,0,0,0v-19.9h19.7v14.2c-0.7-0.3-1.5-0.4-2.3-0.4
				c-3.4,0-6.1,2.7-6.1,6.1c0,3.4,2.7,6.1,6.1,6.1c3.4,0,6.1-2.7,6.1-6.1c0,0,0,0,0,0h0v-19.9v-7.7h-3.8h-19.7h-3.8v7.7v14.2
				c-0.7-0.3-1.5-0.4-2.3-0.4c-3.4,0-6.1,2.7-6.1,6.1C506.9,215.7,509.6,218.5,513,218.5z"/>
		</g>
		<g>
			<path class="st3" d="M538.8,458.4c-0.7,0.7-1.7,0.7-2.4,0l-0.6-0.6c-0.7-0.7-2-1.2-2.9-1.2h-13.3c-0.9,0-2-0.7-2.3-1.6l-5.6-15.6
				c-0.7-2.1,0.4-3.7,2.6-3.7h11c0.5-1.6,0.2-2.9-0.2-3.6c-0.7-1-2.5-2.9-2.2-5.8c0.1-0.9,0.7-2.4,1.2-3.1c1.6-2.1,4-1.7,4,0.3
				c0,2.3-1.2,4.6,3.1,7.4c4.3,2.8,7.3,8.4,7.3,8.4c0,0,0.5,0.6,1.2,1.2l7.3,7.3c0.7,0.7,0.7,1.7,0,2.4L538.8,458.4z"/>
			
				<rect x="538.1" y="455" transform="matrix(0.7071 -0.7071 0.7071 0.7071 -163.1818 519.0928)" class="st3" width="13.8" height="3.2"/>
		</g>
		<g>
			<path class="st4" d="M151.4,458h2c5.8,0,6-6.5,0-6.5l-2,0v0.5c1.5,0,2.7,1.2,2.7,2.7c0,1.5-1.2,2.7-2.7,2.7V458z M104,458h47.4
				v-0.5c-1.5,0-2.7-1.2-2.7-2.7c0-1.5,1.2-2.7,2.7-2.7v-0.5c-15.8,0-31.6,0-47.4,0v0.5c1.5,0,2.7,1.2,2.7,2.7
				c0,1.5-1.2,2.7-2.7,2.7V458z M102,458h2v-0.5l0,0c-1.5,0-2.7-1.2-2.7-2.7c0-1.5,1.2-2.7,2.7-2.7l0,0v-0.5l-2,0
				C96,451.5,96.3,458,102,458z"/>
			<circle class="st4" cx="131.3" cy="432" r="2.7"/>
			<path class="st4" d="M152.5,454l-18.6-20.9c-0.4-0.5-1.2-0.5-1.7-0.1l0,0c-0.5,0.4-0.5,1.2-0.1,1.7l18.6,20.9
				c0.4,0.5,1.2,0.5,1.7,0.1l0,0C152.8,455.2,152.9,454.5,152.5,454z"/>
			<circle class="st4" cx="124.1" cy="432" r="2.7"/>
			<path class="st4" d="M103,454l20.3-22.7c0.4-0.5,1.2-0.5,1.7-0.1l0,0c0.5,0.4,0.5,1.2,0.1,1.7l-20.3,22.7
				c-0.4,0.5-1.2,0.5-1.7,0.1l0,0C102.6,455.2,102.5,454.5,103,454z"/>
			<path class="st4" d="M143.5,459.9h9.6l-2.5,14.4c-0.5,3.1-2.1,5.4-6.8,5.4h-0.2v-4.3c0.7-0.3,1.2-1,1.3-1.8
				c0.2-1.6,0.5-3.3,0.7-4.9c0.2-1.6,0.5-3.3,0.7-4.9c0.2-1.1-0.7-2-1.9-2l0,0c-0.3,0-0.5,0-0.8,0.1V459.9z M135.7,459.9h7.9v2
				c-0.9,0.3-1.5,1-1.6,1.9c-0.2,1.6-0.3,3.3-0.5,4.9c-0.2,1.6-0.3,3.3-0.5,4.9c-0.1,1.1,0.7,2,1.8,2l0,0c0.3,0,0.6-0.1,0.9-0.2v4.3
				h-7.9v-4.2c0.9-0.2,1.5-1,1.6-1.9c0.1-1.6,0.3-3.3,0.4-4.9c0.1-1.6,0.3-3.3,0.4-4.9c0.1-1.1-0.8-2-2-2l0,0c-0.1,0-0.2,0-0.3,0
				V459.9z M127.7,459.9h7.9v1.9c-1,0.2-1.9,1-1.9,2c-0.1,1.6-0.1,3.3-0.2,4.9c-0.1,1.6-0.1,3.3-0.2,4.9c0,1.1,0.8,2,1.9,2l0,0
				c0.2,0,0.3,0,0.5-0.1v4.2h-7.9v-4.1c1.1,0,2-0.9,2-2c0-1.6,0.1-3.3,0.1-4.9c0-1.6,0.1-3.3,0.1-4.9c0-1.1-0.9-2-2.1-2l0,0h0V459.9
				z M119.8,459.9h7.9v1.8c-1.2,0-2.2,0.9-2.1,2c0,1.6,0.1,3.3,0.1,4.9c0,1.6,0,3.3,0.1,4.9c0,1.1,0.9,2,2,2l0,0h0v4.1h-7.9v-4.2
				c0.2,0,0.3,0.1,0.5,0.1l0,0c1.1,0,1.9-0.9,1.9-2c-0.1-1.6-0.1-3.3-0.2-4.9c-0.1-1.6-0.1-3.3-0.2-4.9c0-1-0.9-1.8-1.9-2V459.9z
				 M111.9,459.9h7.9v1.9c-0.1,0-0.2,0-0.3,0l0,0c-1.2,0-2.1,0.9-2,2c0.1,1.6,0.3,3.3,0.4,4.9c0.1,1.6,0.2,3.3,0.4,4.9
				c0.1,0.9,0.8,1.7,1.6,1.9v4.2h-7.9v-4.3c0.3,0.1,0.6,0.2,0.9,0.2l0,0c1.1,0,1.9-0.9,1.7-2c-0.2-1.6-0.3-3.3-0.5-4.9
				c-0.2-1.6-0.4-3.3-0.5-4.9c-0.1-0.9-0.8-1.6-1.6-1.9V459.9z M111.7,479.8c-4.8,0-6.3-2.3-6.8-5.4l-2.5-14.4h9.5v2
				c-0.2-0.1-0.5-0.1-0.8-0.1l0,0c-1.2,0-2.1,0.9-1.9,2c0.2,1.6,0.5,3.3,0.7,4.9c0.2,1.6,0.5,3.3,0.7,4.9c0.1,0.8,0.6,1.5,1.3,1.8
				v4.3H111.7z"/>
		</g>
		<g>
			<path class="st3" d="M349.9,428.7c3.2,0,5.8-2.6,5.8-5.8c0,0,0,0,0,0v-18.7h18.5v13.4c-0.7-0.3-1.4-0.4-2.1-0.4
				c-3.2,0-5.8,2.6-5.8,5.8c0,3.2,2.6,5.8,5.8,5.8s5.8-2.6,5.8-5.8c0,0,0,0,0,0l0,0v-18.7V397h-3.6h-18.5h-3.6v7.2v13.4
				c-0.7-0.3-1.4-0.4-2.1-0.4c-3.2,0-5.8,2.6-5.8,5.8C344.2,426.1,346.7,428.7,349.9,428.7z"/>
		</g>
		<g>
			<g>
				<g>
					<path class="st4" d="M56.8,390h0.3c3.9,0,7.1,3.2,7.1,7.1v26.7c0,3.9-3.2,7.1-7.1,7.1h-0.3v-30.8c1.5,0,2.7-1.2,2.7-2.7
						c0-1.5-1.2-2.7-2.7-2.7V390z M30.8,390h26v4.7h0c-1.5,0-2.7,1.2-2.7,2.7c0,1.5,1.2,2.7,2.7,2.7h0V431h-26v-30.8
						c1.5,0,2.7-1.2,2.7-2.7c0-1.5-1.2-2.7-2.7-2.7V390z M30.4,390h0.3v4.7c-1.5,0-2.7,1.2-2.7,2.7c0,1.5,1.2,2.7,2.7,2.7V431h-0.3
						c-3.9,0-7.1-3.2-7.1-7.1v-26.7C23.3,393.2,26.5,390,30.4,390z"/>
					<path class="st4" d="M30.8,388L30.8,388c0.6,0,1.1,0.5,1.1,1.1v7.3c0,0.6-0.5,1.1-1.1,1.1h0c-0.6,0-1.1-0.5-1.1-1.1v-7.3
						C29.7,388.5,30.2,388,30.8,388z"/>
					<path class="st4" d="M56.8,388L56.8,388c0.6,0,1.1,0.5,1.1,1.1v7.3c0,0.6-0.5,1.1-1.1,1.1h0c-0.6,0-1.1-0.5-1.1-1.1v-7.3
						C55.8,388.5,56.2,388,56.8,388z"/>
				</g>
				<g>
					<path class="st6" d="M39.1,426.5h-3.7v-13.9c-1.3,1.3-2.9,2.2-4.8,2.8v-3.3c1-0.3,2-0.9,3.1-1.8c1.1-0.9,1.9-1.9,2.3-3.1h3
						V426.5z"/>
					<path class="st6" d="M44.6,421.6l3.7-0.4c0.1,0.8,0.4,1.5,0.9,2c0.5,0.5,1.1,0.7,1.8,0.7c0.8,0,1.4-0.3,2-0.9
						c0.5-0.6,0.8-1.6,0.8-2.8c0-1.2-0.3-2.1-0.8-2.7c-0.5-0.6-1.2-0.9-2.1-0.9c-1.1,0-2,0.5-2.8,1.4l-3-0.4l1.9-10h9.8v3.5h-7
						l-0.6,3.3c0.8-0.4,1.7-0.6,2.5-0.6c1.6,0,3,0.6,4.2,1.8c1.1,1.2,1.7,2.7,1.7,4.6c0,1.6-0.5,3-1.4,4.2c-1.3,1.7-3,2.5-5.2,2.5
						c-1.8,0-3.2-0.5-4.3-1.4C45.5,424.5,44.8,423.2,44.6,421.6z"/>
				</g>
			</g>
			<g>
				<line class="st9" x1="29.7" y1="387.2" x2="29.7" y2="398.3"/>
				<line class="st9" x1="31.8" y1="387.2" x2="31.8" y2="398.3"/>
				<line class="st9" x1="55.8" y1="387.2" x2="55.8" y2="398.3"/>
				<line class="st9" x1="57.9" y1="387.2" x2="57.9" y2="398.3"/>
				<line class="st9" x1="64.9" y1="402.9" x2="22.7" y2="402.9"/>
			</g>
		</g>
		<g>
			<path class="st4" d="M170.5,282.9l-2.1,9.9l8.8-5.2l25.1-34.9c0.7-1,0.5-2.4-0.5-3.1l-3-2.2c-1-0.7-2.4-0.5-3.1,0.5L170.5,282.9z
				"/>
			<path class="st10" d="M172.2,291.9c-0.6-0.6-1.2-1.2-1.9-1.7c-0.7-0.5-1.5-0.9-2.2-1.3"/>
			<path class="st10" d="M178.2,288.7c-1.2-1.3-2.6-2.5-4.1-3.6c-1.5-1.1-3.1-2-4.7-2.8"/>
			<path class="st10" d="M201.1,256.8c-1.2-1.3-2.6-2.5-4.1-3.6c-1.5-1.1-3.1-2-4.7-2.8"/>
		</g>
		<g>
			<path class="st4" d="M434.6,426.7l-2.1,9.9l8.8-5.2l25.1-34.9c0.7-1,0.5-2.4-0.5-3.1l-3-2.2c-1-0.7-2.4-0.5-3.1,0.5L434.6,426.7z
				"/>
			<path class="st10" d="M436.4,435.6c-0.6-0.6-1.2-1.2-1.9-1.7c-0.7-0.5-1.5-0.9-2.2-1.3"/>
			<path class="st10" d="M442.3,432.5c-1.2-1.3-2.6-2.5-4.1-3.6c-1.5-1.1-3.1-2-4.7-2.8"/>
			<path class="st10" d="M465.2,400.5c-1.2-1.3-2.6-2.5-4.1-3.6c-1.5-1.1-3.1-2-4.7-2.8"/>
		</g>
		<g>
			<path class="st4" d="M209.3,322.6c10.2,0,18.5,7.2,18.5,16c0,5.3-3,10-7.6,12.9l2.6,6.6l-6.4-4.8c-2.2,0.8-4.6,1.2-7.2,1.2
				c-10.2,0-18.5-7.2-18.5-16C190.8,329.7,199.1,322.6,209.3,322.6z"/>
			<g>
				<circle class="st5" cx="217.4" cy="338.9" r="2.5"/>
				<circle class="st5" cx="209.3" cy="338.9" r="2.5"/>
				<circle class="st5" cx="201.2" cy="338.9" r="2.5"/>
			</g>
		</g>
		<g>
			<polygon class="st3" points="65.3,287.7 52.7,287.7 52.7,282.1 38.2,282.1 38.2,293 79.8,293 79.8,282.1 65.3,282.1 			"/>
			<rect x="55" y="282.1" class="st3" width="7.9" height="3.2"/>
			<path class="st3" d="M69.1,258.1H59v3.6h6.6v4.3H59v13.8h6.3h14.5v-13.8H69.1V258.1z M59,258.1H48.8v7.9H38.2v13.8h14.5H59v-13.8
				h-6.6l0,0v-4.3H59V258.1z"/>
		</g>
		<g>
			<polygon class="st3" points="536.1,152.2 523.5,152.2 523.5,146.6 509,146.6 509,157.5 550.6,157.5 550.6,146.6 536.1,146.6 			
				"/>
			<rect x="525.8" y="146.6" class="st3" width="7.9" height="3.2"/>
			<path class="st3" d="M539.9,122.6h-10.2v3.6h6.6v4.3h-6.6v13.8h6.3h14.5v-13.8h-10.6V122.6z M529.8,122.6h-10.2v7.9H509v13.8
				h14.5h6.3v-13.8h-6.6l0,0v-4.3h6.6V122.6z"/>
		</g>
		<path class="st3" d="M285.4,424.4c1.1,1.3,2.2,2.2,3.3,2.9c1.1,0.6,2.3,0.9,3.5,0.9c1,0,1.8-0.3,2.4-0.8c0.6-0.6,0.9-1.2,0.9-2.1
			c0-0.9-0.3-1.6-0.8-2.1c-0.5-0.5-1.7-1-3.6-1.5c-2.9-0.8-4.9-1.8-6-3c-1.2-1.2-1.7-2.8-1.7-4.8c0-2.5,0.8-4.6,2.4-6.1
			c1.6-1.6,3.8-2.5,6.7-2.8v-2.7h2.5l0,2.6c1.1,0.1,2.2,0.4,3.3,0.8c1.1,0.4,2.1,1,3.2,1.7l-2.4,5.5c-0.9-0.7-1.7-1.3-2.6-1.6
			c-0.9-0.4-1.8-0.6-2.7-0.6c-0.9,0-1.7,0.2-2.2,0.6c-0.6,0.4-0.8,1-0.8,1.7c0,0.7,0.2,1.3,0.7,1.7c0.5,0.4,1.5,0.8,2.9,1.2l0.2,0.1
			c3.1,0.8,5.2,1.8,6.2,2.8c0.7,0.7,1.2,1.5,1.5,2.5c0.4,1,0.5,2,0.5,3.2c0,2.7-0.8,4.9-2.4,6.6c-1.6,1.8-3.8,2.8-6.4,3v4.7h-2.5
			v-4.6c-1.8,0-3.5-0.4-5-1c-1.5-0.7-3-1.7-4.4-3L285.4,424.4z"/>
		<path class="st3" d="M177.3,118.3c-1-2.7-9-2.2-11.7-1.1l-6.9,2.7l-14-14.5l-4.9,1.9l10,16l-9.5,3.7l-8.3-5.3l-4.9,1.9l9,10.6
			l0.4,13.7l4.9-1.9l2.6-9.1l9.7-3.7l3.2,18.3l4.9-1.9l0.7-19.8l6.9-2.7C172,126,178.3,121,177.3,118.3z"/>
		<g>
			<circle class="st4" cx="227.1" cy="567.7" r="7"/>
			<path class="st4" d="M235.4,559.2c2.2,2.2,3.6,5.2,3.6,8.5h4.7c0-6.1-3.3-11.5-8.3-14.4V559.2L235.4,559.2z M235.4,547.9V543
				c10.4,3.5,17.8,13.2,17.8,24.8h-4.6C248.6,558.8,243.1,551.1,235.4,547.9z M227.1,555.9c3.2,0,6.1,1.3,8.3,3.4v-5.9
				c-2.4-1.4-5.3-2.2-8.3-2.2V555.9L227.1,555.9z M235.4,543v4.9c-2.6-1.1-5.4-1.7-8.3-1.7v-4.6C230,541.6,232.8,542.1,235.4,543z"
				/>
		</g>
		<g>
			<rect x="207.9" y="146.8" class="st4" width="37" height="2.3"/>
			<rect x="207.9" y="98" class="st4" width="11.2" height="48.8"/>
			<rect x="220.9" y="116.4" class="st4" width="11.2" height="30.4"/>
			<rect x="233.8" y="126.7" class="st4" width="11.2" height="20.1"/>
		</g>
		<g>
			<polygon class="st3" points="401.2,454.7 401.2,452 407.8,452 407.8,441.5 392,441.5 392,452 398.6,452 398.6,454.7 389.4,454.7 
				389.4,453.4 385.4,453.4 385.4,454.7 382.8,454.7 382.8,475.8 417,475.8 417,454.7 			"/>
			<polygon class="st6" points="414.4,458.6 414.4,458.6 410.4,458.6 410.4,457.3 414.4,457.3 			"/>
			<path class="st6" d="M399.9,471.8L399.9,471.8c-3.6,0-6.6-2.9-6.6-6.6c0-3.6,3-6.6,6.6-6.6s6.6,3,6.6,6.6
				C406.5,468.9,403.5,471.8,399.9,471.8z"/>
			<polygon class="st6" points="393.3,450.7 393.3,450.7 393.3,442.8 406.5,442.8 406.5,450.7 			"/>
		</g>
		<g>
			<path class="st4" d="M448.8,109.7c7.2,0,13,5.8,13,13c0,4.7-2.5,8.8-6.2,11l-1.4,10.7h-10.9l-1.4-10.7c-3.7-2.3-6.2-6.4-6.2-11
				C435.9,115.5,441.7,109.7,448.8,109.7z"/>
			<g>
				<path class="st6" d="M446.7,138.9c0.1,0.3-0.1,0.6-0.4,0.6c-0.3,0.1-0.6-0.1-0.6-0.4l-2.2-9V126l0.1,0.1c0,0,0-0.1-0.1-0.1v0
					c0.2,0.2,0.4,0.4,0.6,0.6c1.3,1,2.9,1.6,4.6,1.6c1.6,0,3.3-0.5,4.4-1.6c0.2-0.2,0.4-0.4,0.6-0.6c0.2-0.2,0.5-0.3,0.7-0.1
					c0.2,0.1,0.2,0.4,0.2,0.5l-3.2,12.8c-0.1,0.3-0.3,0.4-0.6,0.4c-0.3-0.1-0.4-0.3-0.4-0.6l2.7-11.2c-1.3,0.9-2.9,1.3-4.5,1.3
					c-1.7,0-3.4-0.5-4.8-1.4L446.7,138.9z M443.5,130.2l-1-3.9c-0.1-0.3,0.1-0.6,0.4-0.6c0.2,0,0.4,0,0.5,0.2l0.1,0.1v0
					c0,0,0-0.1-0.1-0.1l0.1,0.1V130.2z"/>
			</g>
			<path class="st4" d="M441.5,137.9h14.7l-0.7,6.9c-0.1,1.2-0.2,1.8-1.8,1.8H444c-1.7,0-1.7-0.6-1.8-1.8L441.5,137.9z"/>
			<g>
				<path class="st3" d="M456.7,98.8c0.1-0.3,0.5-0.5,0.8-0.4c0.3,0.1,0.5,0.5,0.4,0.8l-2.8,7.8c-0.1,0.3-0.5,0.5-0.8,0.4
					c-0.3-0.1-0.5-0.5-0.4-0.8L456.7,98.8z"/>
				<path class="st3" d="M464.3,102.9c0.2-0.3,0.6-0.3,0.9-0.1c0.3,0.2,0.3,0.6,0.1,0.9l-5.3,6.4c-0.2,0.3-0.6,0.3-0.9,0.1
					c-0.3-0.2-0.3-0.6-0.1-0.9L464.3,102.9z"/>
				<path class="st3" d="M470,109.4c0.3-0.2,0.7-0.1,0.9,0.2c0.2,0.3,0.1,0.7-0.2,0.9l-7.2,4.2c-0.3,0.2-0.7,0.1-0.9-0.2
					c-0.2-0.3-0.1-0.7,0.2-0.9L470,109.4z"/>
				<path class="st3" d="M473.2,117.4c0.4-0.1,0.7,0.2,0.7,0.5c0.1,0.4-0.2,0.7-0.5,0.7l-8.2,1.4c-0.4,0.1-0.7-0.2-0.7-0.5
					c-0.1-0.4,0.2-0.7,0.5-0.7L473.2,117.4z"/>
				<path class="st3" d="M448.2,97.5c0-0.4,0.3-0.6,0.6-0.6c0.4,0,0.6,0.3,0.6,0.6v8.3c0,0.4-0.3,0.6-0.6,0.6
					c-0.4,0-0.6-0.3-0.6-0.6V97.5z"/>
				<path class="st3" d="M439.7,99.2c-0.1-0.3,0.1-0.7,0.4-0.8c0.3-0.1,0.7,0.1,0.8,0.4l2.8,7.8c0.1,0.3-0.1,0.7-0.4,0.8
					c-0.3,0.1-0.7-0.1-0.8-0.4L439.7,99.2z"/>
				<path class="st3" d="M432.3,103.7c-0.2-0.3-0.2-0.7,0.1-0.9c0.3-0.2,0.7-0.2,0.9,0.1l5.3,6.4c0.2,0.3,0.2,0.7-0.1,0.9
					c-0.3,0.2-0.7,0.2-0.9-0.1L432.3,103.7z"/>
				<path class="st3" d="M427,110.5c-0.3-0.2-0.4-0.6-0.2-0.9c0.2-0.3,0.6-0.4,0.9-0.2l7.2,4.2c0.3,0.2,0.4,0.6,0.2,0.9
					c-0.2,0.3-0.6,0.4-0.9,0.2L427,110.5z"/>
				<path class="st3" d="M424.2,118.7c-0.4-0.1-0.6-0.4-0.5-0.7c0.1-0.4,0.4-0.6,0.7-0.5l8.2,1.4c0.4,0.1,0.6,0.4,0.5,0.7
					c-0.1,0.4-0.4,0.6-0.7,0.5L424.2,118.7z"/>
			</g>
		</g>
		<g>
			<path class="st3" d="M156,555.4c1-0.1,2.1-0.2,3.1-0.5c0.7-0.2,1.3-0.3,2-0.6c0.3-0.1,0.6-0.2,0.9-0.3c0.6-0.2,1.2-0.5,1.8-0.8
				c0.3-0.1,0.6-0.3,0.9-0.5c1.3-0.7,2.4-1.6,3.5-2.6c0.2-0.2,0.5-0.4,0.7-0.7c0.2-0.2,0.4-0.5,0.7-0.7c0.3-0.4,0.6-0.7,0.9-1.1
				c0.5-0.6,0.9-1.2,1.3-1.9c0.1-0.2,0.2-0.3,0.3-0.5c0.2-0.3,0.3-0.6,0.5-0.9c0.1-0.1,0.1-0.3,0.2-0.4c0.1-0.3,0.3-0.6,0.4-0.9
				c0.1-0.3,0.2-0.6,0.4-0.9c0.2-0.6,0.4-1.2,0.6-1.9c0.1-0.3,0.2-0.6,0.2-1c0.1-0.3,0.1-0.7,0.2-1c0-0.3,0.1-0.7,0.1-1
				c0.1-0.7,0.1-1.4,0.1-2.1c0-0.7,0-1.4-0.1-2.1c0-0.3-0.1-0.7-0.1-1c-0.1-0.3-0.1-0.7-0.2-1c-0.1-0.3-0.1-0.7-0.2-1
				c-0.2-0.6-0.4-1.3-0.6-1.9c-0.1-0.2-0.1-0.3-0.2-0.5c-0.2-0.5-0.4-0.9-0.6-1.3c-0.1-0.1-0.1-0.3-0.2-0.4
				c-0.1-0.3-0.3-0.6-0.5-0.9c-0.5-0.8-1-1.6-1.6-2.4c-0.3-0.4-0.6-0.7-0.9-1.1c-0.2-0.2-0.4-0.5-0.7-0.7c-0.2-0.2-0.5-0.5-0.7-0.7
				c-0.5-0.4-0.9-0.8-1.4-1.2c-0.7-0.5-1.4-1-2.1-1.4c-0.3-0.2-0.6-0.3-0.9-0.5c-0.1-0.1-0.3-0.1-0.4-0.2c-0.2-0.1-0.3-0.2-0.5-0.2
				c-0.1,0-0.1-0.1-0.2-0.1c-0.2-0.1-0.5-0.2-0.7-0.3c0,0,0,0,0,0c-0.3-0.1-0.5-0.2-0.8-0.3c-0.1,0-0.1,0-0.2-0.1
				c-0.6-0.2-1.2-0.4-1.8-0.5c-0.2,0-0.4-0.1-0.6-0.1c-0.1,0-0.3-0.1-0.4-0.1c-0.7-0.1-1.5-0.2-2.2-0.3v1.1c0.8,0.1,1.6,0.2,2.4,0.3
				c-0.1,0.1-0.2,0.1-0.4,0.1c-0.1,0.1-0.2,0.2-0.3,0.2c-0.4,0.1-0.7-0.1-1.1-0.1c0,0.1,0.2,0.2,0.3,0.3c0.3,0.2,0.6,0.1,1,0.1
				c0.2,0,0.5,0.1,0.7-0.1c0.1-0.1,0.1-0.3,0.2-0.4c0,0,0.1-0.1,0.2-0.1c0.2,0.1,0.4,0.1,0.6,0.2c0,0.1-0.3,0.1-0.3,0.3
				c0.1,0.1,0.5,0,0.6-0.2c0.1,0,0.1,0,0.2,0c0.3,0.1,0.6,0.2,0.9,0.3c0.4,0.2,0.8,0.3,1.3,0.5c-0.1,0-0.2,0.1-0.2,0.1
				c-0.2,0-0.3-0.2-0.5-0.2c0,0.2,0.2,0.3,0.4,0.4c0.2,0.1,0.4,0.2,0.4,0.4c-0.2,0.4-0.5,0-0.7,0c-0.3,0-0.8,0.6-1,0.1
				c0.1-0.3,0.3-0.3,0.4-0.5c-0.1,0-0.1,0-0.2,0.1c-0.1,0-0.2,0.1-0.3,0.2c-0.1,0.1-0.3,0.1-0.4,0.2c-0.1,0-0.3,0-0.4,0.1
				c-0.3,0.1-0.4,0.3-0.7,0.4c-0.1,0-0.2,0-0.3,0.1c-0.3,0.1-0.6,0.2-0.8,0.4c-0.3,0.1-0.6,0.3-0.8,0.5c-0.1,0.1-0.3,0.4-0.3,0.5
				c0,0.1,0.3,0.2,0.3,0.3c0,0.1-0.1,0.3,0,0.4c0.1,0.1,0.3,0,0.5,0c0.3,0,0.5,0.3,0.8,0.5c0.2,0.1,0.5,0.2,0.7,0.3
				c0.3,0,0.6-0.1,0.7,0.2c0,0.2-0.3,0.3-0.3,0.5c0.2,0.2-0.1,0.3-0.1,0.5c0,0.1,0.2,0.4,0.3,0.4c0.2,0,0.5-0.2,0.6-0.4
				c0.1-0.3,0.1-0.6,0.3-0.8c1,0,1.9-0.5,1.8-1.5c0-0.1-0.1-0.2,0-0.3c0-0.2,0.3-0.3,0.3-0.5c0.1,0,0.2-0.1,0.2-0.2
				c0.1-0.1,0.1-0.3,0.3-0.4c0,0,0,0,0,0c0.1,0,0.2,0,0.3,0c0.2,0.1,0.4,0.1,0.6,0.1c0.1,0,0.2-0.1,0.3-0.1c0.2,0,0.3,0.3,0.5,0.4
				c0.1,0.1,0.3,0.1,0.3,0.2c0,0.2-0.2,0.2-0.2,0.5c0,0,0,0,0,0c0,0.2,0.2,0.3,0.3,0.4c0.2,0,0.4-0.1,0.5-0.1
				c0.2-0.1,0.3-0.3,0.5-0.4c0.2,0.2,0.4,0.3,0.6,0.5c0,0.1,0,0.2,0,0.2c0,0.2,0,0.4,0,0.6c0,0.4,0.5,0.3,0.7,0.5
				c0.1,0.1,0.1,0.2,0.2,0.3c0.1,0.1,0.2,0.1,0.3,0.3c0,0.4-0.3,0.4-0.3,0.8c-0.1,0.2-0.3,0.2-0.3,0.4c0,0.3,0.5,0.1,0.6,0.3
				c0.1,0.1,0,0.2-0.1,0.5c0.2,0.2,0.2,0.5-0.1,0.5c-0.2,0-0.2-0.2-0.4-0.2c-0.1,0-0.2,0-0.4,0c-0.1,0-0.2-0.1-0.3-0.1
				c-0.3,0-0.6,0-0.7-0.1c0.3-0.3,0.6-0.7,0.9-1c0.1-0.1,0.3-0.1,0.3-0.3c-0.2-0.2-0.4,0-0.6,0.1c-0.2,0.1-0.4,0.2-0.6,0.3
				c-0.4,0.1-0.8-0.1-1.1,0.1c0,0.2,0.3,0.1,0.3,0.3c-0.1,0-0.3,0-0.4-0.1c-0.1-0.1,0-0.2-0.1-0.3c-0.1-0.1-0.5-0.1-0.7-0.1
				c-0.2,0-0.4,0.2-0.5,0.4c0.3,0.1,0.7-0.1,0.8,0.2c-0.1,0.3-0.5,0.4-0.5,0.8c0,0.1,0.2,0.3,0.3,0.3c0.1,0,0.2-0.1,0.3-0.1
				c0.1,0,0.1,0.2,0.2,0.1c0.2-0.1,0.3-0.4,0.6-0.4c0.3,0.3-0.3,0.5-0.6,0.6c-0.3,0.1-0.8,0.2-1.1,0.3c-0.1,0.1-0.7,0.6-0.7,0.2
				c-0.1-0.3,0.3-0.2,0.3-0.4c-0.3-0.1-0.6,0.1-0.9,0.3c-0.4,0.2-1.2,0.3-1.3,0.8c0,0.1,0,0.3,0,0.3c-0.1,0.1-0.4,0.1-0.5,0.1
				c-0.2,0.1-0.4,0.2-0.5,0.3c-0.1,0-0.2,0-0.3,0c-0.2,0.1-0.2,0.3-0.4,0.5c-0.1,0.1-0.3,0.1-0.3,0.2c-0.1,0.1-0.1,0.4-0.3,0.4
				c-0.1,0-0.2-0.1-0.3,0c0,0.3,0.1,0.6,0,0.9c-0.3,0.2-0.5,0.4-0.9,0.5c-0.2,0.1-0.3,0.1-0.6,0.2c-0.2,0.1-0.3,0.3-0.5,0.4
				c-0.1,0.1-0.2,0.1-0.3,0.2v9.4c0.1-0.1,0.2-0.2,0.3-0.3c0.1-0.2,0.1-0.4,0.3-0.5c0.2-0.1,0.4-0.1,0.7-0.2c0.1,0,0.2-0.1,0.4-0.2
				c0.1-0.1,0.2-0.3,0.3-0.1c0.2,0.2-0.2,0.3-0.1,0.5c0.3,0.2,0.5-0.3,0.7-0.3c0.1,0,0.3,0.1,0.4,0.2c0.2,0.1,0.2,0.3,0.4,0.3
				c0.1,0,0.3,0,0.5,0c0.2,0,0.4,0.2,0.5,0.2c0.2,0,0.3-0.2,0.5-0.3c0.4-0.1,0.5,0,0.7,0.3c0.2,0,0.2-0.2,0.4-0.1
				c-0.1,0.2,0,0.3,0.1,0.4c0,0.1,0,0.2,0.1,0.2c0.1,0.1,0.3,0.1,0.5,0.2c0.2,0.1,0.2,0.3,0.4,0.5c0.2,0.2,0.5,0.4,0.8,0.5
				c0.2,0,0.4-0.1,0.6,0c0.4,0.1,0.7,0.3,1,0.5c0.2,0.1,0.3,0.2,0.4,0.4c0,0.1,0,0.3,0.1,0.4c0.1,0.3,0.5,0.4,0.3,0.9
				c0.1,0.1,0.2,0.2,0.4,0.3c0.1,0.1,0.2,0.2,0.4,0.3c0.1,0,0.2,0,0.3,0c0.2,0,0.4,0.1,0.6,0.2c0.1,0,0.3,0.1,0.4,0.1
				c0.1,0.1,0.1,0.3,0.3,0.4c0.1,0,0.3,0,0.4,0c0.2,0,0.5,0.2,0.8,0.2c0.1,0,0.2-0.1,0.3,0c0.3,0,0.5,0.2,0.7,0.4
				c-2.6,4.2-6.8,7.3-11.7,8.5c0-0.2-0.1-0.4-0.1-0.6c0-0.4,0-0.7,0-1.1c-0.1-0.3-0.1-0.7-0.2-0.9c-0.1-0.2-0.6-0.5-0.8-0.7
				c-0.2-0.1-0.3-0.1-0.5-0.2c-0.4-0.2-1-0.5-1.2-0.9c0-0.1,0-0.2-0.1-0.3c0-0.1-0.1-0.2-0.2-0.3V555.4z M134.9,531.3
				c-0.1,0.3-0.1,0.7-0.2,1c-0.1,0.3-0.1,0.7-0.1,1c-0.1,0.7-0.1,1.4-0.1,2.1c0,0.7,0,1.4,0.1,2.1c0,0.3,0.1,0.7,0.1,1
				c0,0.3,0.1,0.7,0.2,1c0.1,0.3,0.1,0.7,0.2,1c0.2,0.6,0.4,1.3,0.6,1.9c0.1,0.3,0.2,0.6,0.4,0.9c0.1,0.3,0.3,0.6,0.4,0.9
				c0.1,0.1,0.1,0.3,0.2,0.4c0.1,0.3,0.3,0.6,0.5,0.9c0.5,0.8,1,1.6,1.6,2.4c0.3,0.4,0.6,0.7,0.9,1.1c0.2,0.2,0.4,0.5,0.7,0.7
				c0.2,0.2,0.5,0.4,0.7,0.7c1.1,1,2.2,1.8,3.5,2.6c0.3,0.2,0.6,0.3,0.9,0.5c0.6,0.3,1.2,0.6,1.8,0.8c0.3,0.1,0.6,0.2,0.9,0.3
				c2,0.7,4.2,1.1,6.4,1.1c0.5,0,0.9,0,1.4,0v-6.5c-0.1-0.1-0.2-0.2-0.2-0.3c-0.3-0.4-0.5-0.9-0.8-1.3c-0.1-0.2-0.3-0.5-0.4-0.6
				c-0.1-0.1-0.4-0.2-0.4-0.3c0-0.2-0.2-0.5-0.2-0.6c0-0.2,0.4-0.4,0.4-0.6c0-0.2-0.2-0.3-0.3-0.4c-0.1-0.3,0.1-0.5,0.2-0.8
				c0-0.1,0.1-0.2,0.1-0.3c0.1-0.1,0.2-0.2,0.3-0.3c0.1-0.1,0.1-0.2,0.2-0.3c0.2-0.2,0.4-0.3,0.5-0.5c0.1-0.2,0.1-1,0-1.2
				c0-0.2-0.2-0.3-0.2-0.4c-0.1-0.3-0.1-0.5-0.4-0.5c-0.2,0-0.3,0.2-0.4,0.3c0,0.2,0,0.3-0.2,0.4c-0.2,0.1-0.3-0.3-0.6-0.3
				c-0.1,0-0.3,0-0.4-0.1c-0.2-0.1-0.3-0.4-0.5-0.5c-0.2-0.1-0.3-0.1-0.5-0.2c0-0.1,0-0.3,0-0.4c-0.2-0.1-0.4-0.7-0.7-0.8
				c-0.2-0.1-0.5-0.1-0.7-0.2c-0.1,0-0.2-0.1-0.3-0.1c-0.1,0-0.3,0-0.4-0.1c-0.4-0.2-0.7-0.9-1.2-0.9c-0.2,0-0.4,0.2-0.6,0.2
				c-0.2,0-0.5-0.2-0.8-0.3c-0.3-0.1-0.6-0.2-0.8-0.3c-0.2-0.1-0.3-0.3-0.5-0.3c-0.1-0.1-0.3-0.1-0.4-0.1c-0.1-0.1-0.3-0.2-0.5-0.3
				c-0.2-0.1-0.3-0.3-0.3-0.4c0-0.2,0.2-0.3,0.2-0.5c0.1-0.5-0.3-0.9-0.6-1.2c-0.2-0.2-0.4-0.4-0.6-0.6c0-0.1,0-0.2,0-0.3
				c-0.1-0.1-0.2-0.3-0.4-0.5c-0.1-0.2-0.4-0.4-0.4-0.6c0-0.2,0.1-0.5,0-0.7c-0.2-0.4-0.7-0.2-0.6,0.3c0,0.1,0.2,0.3,0.3,0.5
				c0.1,0.1,0.1,0.3,0.1,0.5c0.1,0.2,0.2,0.3,0.3,0.5c0.1,0.3,0.1,0.6,0.2,0.8c0.1,0.2,0.3,0.3,0.2,0.5c-0.2,0-0.3-0.2-0.4-0.3
				c-0.1-0.1-0.3-0.2-0.4-0.3c0-0.1,0.1-0.3,0-0.5c-0.1-0.3-0.7-0.3-0.7-0.6c0-0.2,0.3-0.2,0.3-0.4c0-0.2-0.3-0.4-0.3-0.6
				c-0.1-0.2-0.1-0.4-0.1-0.6c0-0.2,0-0.5,0-0.6c0-0.1-0.3-0.4-0.4-0.4c-0.2-0.1-0.3-0.1-0.4-0.2c-0.1-0.1-0.1-0.4-0.2-0.6
				c0-0.3,0-0.5,0-0.8c0-0.3,0-0.5,0-0.8c0.1-0.2,0.3-0.3,0.4-0.5c0.1-0.1,0.1-0.3,0.2-0.5c0.2-0.3,0.5-0.5,0.7-0.8
				c0.2-0.3,0.5-0.6,0.6-0.9c0.1-0.1,0.2-0.4,0.2-0.5c0-0.2-0.4-0.4-0.4-0.6c0-0.2,0.2-0.2,0.3-0.3c0-0.1,0.1-0.3,0.1-0.4
				c0-0.2-0.1-0.4-0.1-0.6c0-0.2,0.3-0.3,0.2-0.5c-0.1-0.2-0.4,0.1-0.6,0c-0.1-0.1,0-0.3,0-0.5c0-0.1-0.1-0.2,0-0.3
				c0-0.1,0.2-0.3,0.2-0.3c-0.1-0.1-0.2-0.3-0.3-0.5c2.4-1.9,5.3-3.3,8.4-3.9l0,0c0,0.1,0.1,0.1,0.2,0.2c0.2-0.1,0.4,0,0.6,0
				c0.2,0,0.4-0.1,0.6-0.1c0.4,0.1,0.9,0.4,1.3,0.2c0.1-0.1,0.1-0.1,0.1-0.3c0.1-0.1,0.1-0.2,0.2-0.4c0.2,0,0.3,0,0.5,0
				c0.5,0,0.9,0,1.4,0.1v-1.1c-0.3,0-0.7,0-1,0c-0.1,0-0.2,0-0.4,0c-0.2,0-0.4,0-0.6,0c-2,0.1-4,0.4-5.8,1c-0.3,0.1-0.6,0.2-0.9,0.3
				c-0.1,0-0.2,0.1-0.3,0.1c-0.2,0.1-0.4,0.2-0.6,0.3c-0.3,0.1-0.6,0.3-0.9,0.4c-0.3,0.1-0.6,0.3-0.9,0.5c-1.1,0.6-2.2,1.4-3.2,2.3
				c-0.1,0.1-0.2,0.2-0.3,0.3c-0.2,0.2-0.5,0.4-0.7,0.7c-0.2,0.2-0.4,0.5-0.7,0.7c-0.3,0.4-0.6,0.7-0.9,1.1
				c-0.6,0.8-1.1,1.6-1.6,2.4c-0.2,0.3-0.3,0.6-0.5,0.9c-0.1,0.1-0.1,0.3-0.2,0.4c-0.2,0.4-0.4,0.9-0.6,1.3
				c-0.1,0.2-0.1,0.3-0.2,0.5c-0.2,0.6-0.4,1.2-0.6,1.9C135.1,530.6,135,530.9,134.9,531.3L134.9,531.3z M156,530.9v9.4
				c-0.1,0.1-0.1,0.1-0.2,0.1c-0.2,0-0.4-0.3-0.5-0.3c-0.5-0.2-0.7,0.2-1.1,0.2c-0.4,0-0.9-0.6-0.9-1c0-0.2,0.1-0.5,0.2-0.8
				c0-0.2,0.2-0.3,0.2-0.5c0-0.3-0.3-0.5-0.5-0.5c-0.4-0.1-1,0.2-1.4,0c-0.1-0.1,0.1-0.2,0.2-0.4c0-0.1,0-0.2,0-0.3
				c0.1-0.1,0.2-0.2,0.3-0.4c0-0.1,0.1-0.3,0.1-0.4c0.1-0.2,0.2-0.3,0.2-0.4c0-0.1,0-0.3-0.2-0.4c-0.4,0-0.6,0-0.8,0.1
				c-0.5,0.2-0.4,0.8-0.8,1c-0.2,0.1-0.4,0.1-0.6,0.1c-0.2,0-0.3,0.1-0.5,0.1c-0.2,0-0.5-0.2-0.6-0.3c-0.1-0.1-0.3-0.6-0.4-0.7
				c-0.2-0.6,0-1.2,0.3-1.7c0.1-0.1,0.1-0.2,0.2-0.3c0.1-0.1,0-0.4,0.1-0.5c0.1-0.3,0.5-0.5,0.8-0.6c0.3-0.2,0.6-0.4,0.9-0.5
				c0.2,0,0.4,0,0.6,0.1c0.2,0,0.3,0.1,0.4,0.1c0.4,0,0.5-0.3,0.8-0.5c0.3,0,0.6-0.1,0.9,0c0.2,0,0.4,0.2,0.5,0.3
				c0.1,0,0.3-0.1,0.4-0.1c0.1,0,0.3,0.3,0.4,0.5c0,0.2-0.1,0.4-0.1,0.6c0.2,0.2,0.6,0.2,0.9,0.4c0.2-0.2,0-0.4,0-0.7
				c0-0.1,0-0.2,0-0.3c0-0.2-0.1-0.3-0.1-0.4C155.4,531.4,155.7,531.1,156,530.9z"/>
		</g>
		<g>
			<path class="st3" d="M130,325.3h4.3v-33H132v-0.7h-2v2.8h2v19l0,0h-2v2.4h2v2.7l0,0h-2v1.9h2v2.7l0,0h-2V325.3z M128,291.5v0.7
				h-4.2v2.1h6.2v-2.8H128L128,291.5z M123.8,325.3h6.2v-2.2h-2v-2.7h2v-1.9h-2v-2.7h2v-2.4h-6.2v2.4h2v2.7l0,0h-2v1.9h2v2.7l0,0h-2
				V325.3z M123.8,292.2h-6.2v2.1h6.2V292.2L123.8,292.2z M117.6,325.3h6.2v-2.2h-2v-2.7h2v-1.9h-2v-2.7h2v-2.4h-6.2v2.4h2v2.7l0,0
				h-2v1.9h2v2.7l0,0h-2V325.3z M117.6,292.2h-4.3v33h4.3v-2.2h-2v-2.7h2v-1.9h-2v-2.7h2v-2.4h-2v-19h2V292.2z"/>
		</g>
		<g>
			<path class="st3" d="M249.9,68.9h4.3v-33h-2.3v-0.7h-2V38h2v19l0,0h-2v2.4h2v2.7l0,0h-2V64h2v2.7l0,0h-2V68.9z M247.9,35.2v0.7
				h-4.2V38h6.2v-2.8H247.9L247.9,35.2z M243.7,68.9h6.2v-2.2h-2V64h2v-1.9h-2v-2.7h2V57h-6.2v2.4h2v2.7l0,0h-2V64h2v2.7l0,0h-2
				V68.9z M243.7,35.9h-6.2V38h6.2V35.9L243.7,35.9z M237.4,68.9h6.2v-2.2h-2V64h2v-1.9h-2v-2.7h2V57h-6.2v2.4h2v2.7l0,0h-2V64h2
				v2.7l0,0h-2V68.9z M237.4,35.9h-4.3v33h4.3v-2.2h-2V64h2v-1.9h-2v-2.7h2V57h-2V38h2V35.9z"/>
		</g>
		<g>
			<path class="st3" d="M482.1,522.7h4.3v-33h-2.3V489h-2v2.8h2v19l0,0h-2v2.4h2v2.7l0,0h-2v1.9h2v2.7l0,0h-2V522.7z M480,489v0.7
				h-4.2v2.1h6.2V489H480L480,489z M475.8,522.7h6.2v-2.2h-2v-2.7h2v-1.9h-2v-2.7h2v-2.4h-6.2v2.4h2v2.7l0,0h-2v1.9h2v2.7l0,0h-2
				V522.7z M475.8,489.7h-6.2v2.1h6.2V489.7L475.8,489.7z M469.6,522.7h6.2v-2.2h-2v-2.7h2v-1.9h-2v-2.7h2v-2.4h-6.2v2.4h2v2.7l0,0
				h-2v1.9h2v2.7l0,0h-2V522.7z M469.6,489.7h-4.3v33h4.3v-2.2h-2v-2.7h2v-1.9h-2v-2.7h2v-2.4h-2v-19h2V489.7z"/>
		</g>
		<g>
			<path class="st3" d="M460.6,285.4h4.5l3.6,3.5h7.1c-5.7-3.1-9.5-11-12-18.8h1.3v-3.7h-2.4c-1-3.7-1.7-7.1-2.2-9.7v18.7l0.2-0.2
				c0.2,1,0.5,2,0.8,3l0,0l-1-1v3.3l1.6,1.6h-1.6V285.4z M458,285.4h2.6v-3.2H458V285.4L458,285.4z M460.6,256.6
				c-0.5-3.1-0.8-5.1-0.8-5.1h-0.7l-1.1-6.5v13c0,0.3,0.4,6.4,0.7,8.3H458v3.7h1.6c0,0,0.2,1,0.5,2.5l-2.1,2.1v3.3l2.6,2.6v-3.3
				l-1-1l1-1V256.6z M455.4,285.4h2.6h0v-3.2h0l0,0h-2.6V285.4L455.4,285.4z M458,244.9L458,244.9l-1.1,6.5h-0.7c0,0-0.2,2-0.8,5.1
				v18.7l1,1l-1,1v3.3l2.6-2.6h0v-3.3h0l-2.1-2.1c0.3-1.5,0.5-2.5,0.5-2.5h1.6l0,0h0v-3.7h0h-0.7c0.4-2,0.7-8.3,0.7-8.3l0,0l0,0
				V244.9z M440.2,288.8h7.1l3.6-3.5h4.5v-3.2h-1.6l1.6-1.6v-3.3l-1,1c0.3-1,0.6-2.1,0.8-3l0,0l0.2,0.2v-18.7
				c-0.5,2.6-1.2,6.1-2.2,9.7h-2.4v3.7h1.3C449.7,277.8,445.9,285.7,440.2,288.8z"/>
		</g>
		<g>
			<path class="st3" d="M290.7,297.9h6v-46.5h-3.2v-0.9h-2.8v3.9h2.8v26.8l0,0h-2.8v3.3h2.8v3.8l0,0h-2.8v2.7h2.8v3.8l0,0h-2.8
				V297.9z M287.9,250.4v0.9H282v3h8.8v-3.9H287.9L287.9,250.4z M282,297.9h8.8v-3.1h-2.8V291h2.8v-2.7h-2.8v-3.8h2.8v-3.3H282v3.3
				h2.8v3.8l0,0H282v2.7h2.8v3.8l0,0H282V297.9z M282,251.4h-8.8v3h8.8V251.4L282,251.4z M273.2,297.9h8.8v-3.1h-2.8V291h2.8v-2.7
				h-2.8v-3.8h2.8v-3.3h-8.8v3.3h2.8v3.8l0,0h-2.8v2.7h2.8v3.8l0,0h-2.8V297.9z M273.2,251.4h-6v46.5h6v-3.1h-2.8V291h2.8v-2.7h-2.8
				v-3.8h2.8v-3.3h-2.8v-26.8h2.8V251.4z"/>
		</g>
		<g>
			<polygon class="st3" points="79.5,213.4 91.2,199.4 79.5,190 			"/>
			<polygon class="st3" points="119.4,213.4 119.4,190 107.7,199.4 			"/>
			<polygon class="st3" points="119.3,214.4 119.4,214.4 119.4,214.3 			"/>
			<polygon class="st3" points="79.5,214.4 79.6,214.4 79.5,214.3 			"/>
			<polygon class="st3" points="118.7,214.4 118.6,214.3 106.8,200.2 99.5,206 92.1,200.2 80.3,214.3 80.2,214.4 			"/>
			<polygon class="st3" points="92,198.5 92.4,198.9 92.9,199.3 99.5,204.6 106,199.3 106.5,198.9 106.9,198.5 118.4,189.3 
				80.5,189.3 			"/>
		</g>
		<g>
			<path class="st3" d="M231,467.8c0-2.6-2.1-4.7-4.7-4.7h-7.9v3.7h7.9c0.5,0,1,0.4,1,1v7.9h-8.9v3.6h0c1.6,0,2.9,1.3,2.9,2.9
				c0,1-0.5,1.8-1.2,2.4c-0.1,0.1-0.3,0.2-0.4,0.2v3.5v0.8l0,0h-1.3v3.3h15.8v-16.8H231V467.8z M218.4,463.1h-7.9
				c-2.6,0-4.7,2.1-4.7,4.7v7.9h-3.2v16.8h15.8v-3.3h-1.3v-0.8v-3.5c-0.1-0.1-0.3-0.2-0.4-0.2c-0.7-0.5-1.2-1.4-1.2-2.4
				c0-1.6,1.3-2.9,2.9-2.9v-3.6h-8.9l0,0v-7.9c0-0.5,0.4-1,1-1h7.9V463.1z"/>
		</g>
		<g>
			<path class="st3" d="M334.2,336.9l-3.6-3.9l-3.1-6v6l0.8,1.6h-0.8v7.8h3.5v3.7l0,0h-3.5v8.4h5.1c0.9,0,1.6-0.7,1.6-1.6v-4V336.9z
				 M327.5,327l-0.2-0.3h-10.8v2.3h8.8l2.1,4.1V327L327.5,327z M316.6,349h9.2v4c0,0.9,0.7,1.6,1.6,1.6h0.1v-8.4H324v-3.7h3.5v-7.8
				h-10.9V349z M316.6,326.7h-10.8l-0.2,0.3v6.1l2.1-4.1l0,0h8.8V326.7L316.6,326.7z M305.6,354.7L305.6,354.7c1,0,1.7-0.7,1.7-1.6
				v-4h9.2v-14.3h-10.9v7.8h3.5v3.7l0,0h-3.5V354.7z M305.6,327l-3.1,6l-3.6,3.9v11.3v0.9v4c0,0.9,0.7,1.6,1.6,1.6h5.1v-8.4h-3.5
				v-3.7h3.5v-7.8h-0.8l0.8-1.6V327z"/>
		</g>
		<g>
			<polygon class="st3" points="288,112.9 287.8,117.5 301.4,117.5 301.2,112.9 			"/>
			<path class="st3" d="M301.1,111.7h12.6V87.9h-19.2v2.9h15.7v18H301h-6.4v2.9H301.1z M294.6,87.9h-19.2v23.9h12.6h6.5v-2.9h-6.4
				h-9.3l0,0v-18h15.7V87.9z"/>
			<polygon class="st3" points="285.1,118.7 285.1,120.6 304.1,120.6 304.1,118.7 301.5,118.7 287.7,118.7 			"/>
		</g>
		<g>
			<path class="st3" d="M392.6,547.5c1.2,0.8,2.7,1.3,4.2,1.3c4.3,0,7.8-3.5,7.8-7.8c0-4.3-3.5-7.8-7.8-7.8c-3.9,0-7.2,2.9-7.7,6.6
				h7.7h2.6l-1.7,1.9L392.6,547.5z"/>
			<path class="st3" d="M379.1,557.2v0.9v0.9v9.7c-2.2,0.3-3.7,1.4-3.7,2.6h10.4c0-1.1-1.3-2.1-3.3-2.5v-9.7V558v-0.9l9.1-10.3
				l5.2-5.8h-7.8h-24.3L379.1,557.2z"/>
		</g>
	</g>
	<g class="st2">
		<path class="st11" d="M500.4,449.2c2.6-0.6,5.2-0.9,8-1c7.4-0.1,12.5,2.2,15,5.6c1.2,1.5,1.8,3.3,1.9,5.1c0.1,1.8-0.4,3.6-1.4,5.3
			c-2.4,4.1-8.1,7.7-17.2,8.8c-2,0.2-4.1,0.3-6.3,0.2v-2.1c2.1,0.1,4.1,0,6-0.2c8.3-1,13.5-4.2,15.6-7.8c0.8-1.4,1.2-2.8,1.1-4.2
			c-0.1-1.4-0.5-2.7-1.5-3.9c-2.2-2.8-6.6-4.9-13.3-4.7c-2.8,0.1-5.4,0.4-8,1V449.2z M459.9,494.8L459.9,494.8L459.9,494.8
			L459.9,494.8L459.9,494.8L459.9,494.8L459.9,494.8c12.8-3.1,26.6,7.5,31.1,24.2c4.6,16.7-2.1,33.3-15,36.8
			c-12.8,3.5-27.1-7.6-31.6-24.1c-4.5-16.5,1.6-31.9,13.4-36.3c0.9-9.5,10-22.2,16.3-28.9c-0.9-0.4-1.8-0.8-2.7-1.2
			c-12.9-5.8-26.7-14.5-39.8-24.8v129.1c0,2.8-2.3,5.1-5.1,5.1H317V422.3h87.7v-2.6H317v-94.1h128.1c6.9,0,10.4,3,7.9,12.6
			l-21.9,81.6h-15.2v2.6h10.7c2.8,0,5.1,2.3,5.1,5.1v10.5c13.3,10.6,27.4,19.6,40.6,25.6c1.1,0.5,2.2,1,3.3,1.4
			c5.7-6.7,12.8-11.9,20.8-14.5c1.3-0.4,2.6-0.8,3.9-1.1v2.1c-1.1,0.3-2.2,0.6-3.3,0.9c-7.5,2.5-14.1,7.2-19.5,13.4
			c8.2,3.2,15.9,5.2,22.8,5.5v2.1c-7.3-0.3-15.5-2.4-24.2-5.9C466.9,478.9,462.6,485.7,459.9,494.8z M317,574.7H207.4
			c-2.8,0-5.1-2.3-5.1-5.1V427.4c0-2.8,2.3-5.1,5.1-5.1h10.7v-2.6h-15.8l-20.7-80.3c-3-11.8-1.1-13.8,6.7-13.8H317v94.1h-87.7v2.6
			H317V574.7z"/>
		<g>
			<path class="st12" d="M489,439.4c2.6-0.6,5.2-0.9,8-1c7.4-0.1,12.5,2.2,15,5.6c1.2,1.5,1.8,3.3,1.9,5.1c0.1,1.8-0.4,3.6-1.4,5.3
				c-2.4,4.1-8.1,7.7-17.2,8.8c-2,0.2-4.1,0.3-6.3,0.2v-2.1c2.1,0.1,4.1,0,6-0.2c8.3-1,13.5-4.2,15.6-7.8c0.8-1.4,1.2-2.8,1.1-4.2
				c-0.1-1.4-0.5-2.7-1.5-3.9c-2.2-2.8-6.6-4.9-13.3-4.7c-2.8,0.1-5.4,0.4-8,1V439.4z M418.3,426.5c13.9,11.3,28.7,20.9,42.6,27.2
				c1.1,0.5,2.2,1,3.3,1.4c5.7-6.7,12.8-11.9,20.8-14.5c1.3-0.4,2.6-0.8,3.9-1.1v2.1c-1.1,0.3-2.2,0.6-3.3,0.9
				c-7.5,2.5-14.1,7.2-19.5,13.4c8.2,3.2,15.9,5.2,22.8,5.5v2.1c-7.3-0.3-15.5-2.4-24.2-5.9c-1.9,2.4-3.7,4.9-5.3,7.6
				c-6.3,10.7-9.8,23.6-9.5,36.1c0.1,5.8,1,11.6,2.8,17l-2,0.7c-1.9-5.6-2.8-11.6-3-17.6c-0.3-12.9,3.3-26.2,9.8-37.2
				c1.5-2.6,3.2-5.1,5.1-7.4c-0.9-0.4-1.8-0.8-2.7-1.2c-14-6.3-29-16-43.1-27.4L418.3,426.5z"/>
			<path class="st13" d="M176.8,315.8h256.9c6.9,0,10.4,3,7.9,12.6l-21.9,81.6H190.8l-20.7-80.3C167.1,317.8,169,315.8,176.8,315.8z
				"/>
			<g>
				
					<ellipse transform="matrix(0.9647 -0.2634 0.2634 0.9647 -121.0533 139.497)" class="st13" cx="459.8" cy="521.3" rx="24.1" ry="31.6"/>
				
					<ellipse transform="matrix(0.9647 -0.2634 0.2634 0.9647 -120.1713 139.1253)" class="st14" cx="458.9" cy="517.8" rx="20" ry="26.1"/>
				<path class="st15" d="M451.5,490.8c0.2,0,0.3-0.1,0.5-0.1l4.3,15.9l-1,0.3L451,491C451.2,490.9,451.3,490.9,451.5,490.8z"/>
				<path class="st15" d="M450.8,495.4l3.6-1c0.8-0.2,1.7,0.3,1.9,1.1l4.5,16.4c0.2,0.8-0.3,1.7-1.1,1.9l-3.6,1
					c-0.8,0.2-1.7-0.3-1.9-1.1l-4.5-16.4C449.5,496.5,450,495.7,450.8,495.4z"/>
				<path class="st14" d="M451.9,496.4l2-0.5c0.4-0.1,0.9,0.1,1,0.6l4.2,15.4c0.1,0.4-0.1,0.9-0.6,1l-2,0.5c-0.4,0.1-0.9-0.1-1-0.6
					l-4.2-15.4C451.2,497,451.5,496.5,451.9,496.4z"/>
			</g>
		</g>
		<path class="st14" d="M175.3,317.7H436c1.7,0,3,1.4,3,3l0,0c0,1.7-1.4,3-3,3H175.3c-1.7,0-3-1.4-3-3l0,0
			C172.3,319.1,173.6,317.7,175.3,317.7z"/>
		<line class="st16" x1="505.1" y1="301.4" x2="505.1" y2="209"/>
		<g>
			<line class="st16" x1="307" y1="94.5" x2="307" y2="328.7"/>
			<line class="st16" x1="109.2" y1="301.4" x2="109.2" y2="177.5"/>
			<line class="st16" x1="109.2" y1="156.9" x2="307" y2="105.7"/>
			<line class="st16" x1="505.1" y1="182.4" x2="307" y2="105.7"/>
			<line class="st16" x1="505.1" y1="301.4" x2="108.9" y2="301.4"/>
		</g>
		<path class="st11" d="M362.7,82.8c-1,0-2,0.1-3,0.2c-4.1,0.6-7.8,2.3-10.8,4.8c0-2-0.2-3.9-0.6-5.8c-0.2-1.4-0.6-2.8-1-4.1
			c-3.3-11-11.5-19.9-22.2-24c-1.2-0.5-2.5-0.9-3.8-1.2c-3.1-0.8-6.3-1.3-9.6-1.3c-0.5,0-1,0-1.5,0c-19.8,0.8-35.6,17.1-35.6,37.1
			c0,3.8,0.6,7.4,1.6,10.9c-7.1,0.2-12.8,6-12.8,13.1c0,7.2,5.9,13.1,13.1,13.1h35.2h1.6h49.3c11.8,0,21.4-9.6,21.4-21.4
			C384.1,92.4,374.5,82.8,362.7,82.8z"/>
		<path class="st17" d="M348.9,71.1c-1,0-2,0.1-3,0.2c-4.1,0.6-7.8,2.3-10.8,4.8c0-2-0.2-3.9-0.6-5.8c-0.2-1.4-0.6-2.8-1-4.1
			c-3.3-11-11.5-19.9-22.2-24c-1.2-0.5-2.5-0.9-3.8-1.2c-3.1-0.8-6.3-1.3-9.6-1.3c-0.5,0-1,0-1.5,0C276.7,40.6,261,56.9,261,76.9
			c0,3.8,0.6,7.4,1.6,10.9c-7.1,0.2-12.8,6-12.8,13.1c0,7.2,5.9,13.1,13.1,13.1h35.2h1.6h49.3c11.8,0,21.4-9.6,21.4-21.4
			C370.4,80.7,360.8,71.1,348.9,71.1z"/>
		<g>
			<path class="st14" d="M195.9,412.5h219.3c2.8,0,5.1,2.3,5.1,5.1v142.2c0,2.8-2.3,5.1-5.1,5.1H195.9c-2.8,0-5.1-2.3-5.1-5.1V417.6
				C190.8,414.8,193.1,412.5,195.9,412.5z"/>
			<path class="st15" d="M205.9,412.5h12.7v7.3c0,0.7-0.5,1.2-1.2,1.2h-10.3c-0.7,0-1.2-0.5-1.2-1.2V412.5z"/>
			<path class="st15" d="M392.5,412.5h12.7v7.3c0,0.7-0.5,1.2-1.2,1.2h-10.3c-0.7,0-1.2-0.5-1.2-1.2V412.5z"/>
			<polygon class="st18" points="428.2,336.6 412.3,398.9 198.4,398.9 182.4,336.6 			"/>
			<path class="st14" d="M207.7,405.9h9.1c0.6,0,1.1,0.5,1.1,1.1v10.8c0,0.6-0.5,1.1-1.1,1.1h-9.1c-0.6,0-1.1-0.5-1.1-1.1V407
				C206.6,406.4,207.1,405.9,207.7,405.9z"/>
			<path class="st14" d="M394.3,405.9h9.1c0.6,0,1.1,0.5,1.1,1.1v10.8c0,0.6-0.5,1.1-1.1,1.1h-9.1c-0.6,0-1.1-0.5-1.1-1.1V407
				C393.3,406.4,393.8,405.9,394.3,405.9z"/>
			<g>
				<path class="st13" d="M398,432.8h7.1c0.8,0,1.5,0.7,1.5,1.5v5.3c0,0.8-0.7,1.5-1.5,1.5H398c-0.8,0-1.5-0.7-1.5-1.5v-5.3
					C396.5,433.5,397.2,432.8,398,432.8z"/>
				<path class="st13" d="M398.3,442.9h6.4c1,0,1.8,0.8,1.8,1.8v7.1c0,1-0.8,1.8-1.8,1.8h-6.4c-1,0-1.8-0.8-1.8-1.8v-7.1
					C396.5,443.7,397.3,442.9,398.3,442.9z"/>
				<path class="st13" d="M398.3,455.4h6.4c1,0,1.8,0.8,1.8,1.8v7.1c0,1-0.8,1.8-1.8,1.8h-6.4c-1,0-1.8-0.8-1.8-1.8v-7.1
					C396.5,456.2,397.3,455.4,398.3,455.4z"/>
				<path class="st13" d="M398.3,468h6.4c1,0,1.8,0.8,1.8,1.8v7.1c0,1-0.8,1.8-1.8,1.8h-6.4c-1,0-1.8-0.8-1.8-1.8v-7.1
					C396.5,468.8,397.3,468,398.3,468z"/>
				<path class="st13" d="M398.3,480.5h6.4c1,0,1.8,0.8,1.8,1.8v7.1c0,1-0.8,1.8-1.8,1.8h-6.4c-1,0-1.8-0.8-1.8-1.8v-7.1
					C396.5,481.3,397.3,480.5,398.3,480.5z"/>
				<path class="st13" d="M398.3,493.1h6.4c1,0,1.8,0.8,1.8,1.8v7.1c0,1-0.8,1.8-1.8,1.8h-6.4c-1,0-1.8-0.8-1.8-1.8v-7.1
					C396.5,493.9,397.3,493.1,398.3,493.1z"/>
				<path class="st13" d="M385.5,432.8h7.1c0.8,0,1.5,0.7,1.5,1.5v5.3c0,0.8-0.7,1.5-1.5,1.5h-7.1c-0.8,0-1.5-0.7-1.5-1.5v-5.3
					C384,433.5,384.7,432.8,385.5,432.8z"/>
				<path class="st13" d="M374.4,442.9h17.7c1.1,0,1.9,0.9,1.9,1.9v6.9c0,1.1-0.9,1.9-1.9,1.9h-17.7c-1.1,0-1.9-0.9-1.9-1.9v-6.9
					C372.5,443.7,373.3,442.9,374.4,442.9z"/>
				<path class="st13" d="M382.5,455.4h9.6c1.1,0,1.9,0.9,1.9,1.9v6.9c0,1.1-0.9,1.9-1.9,1.9h-9.6c-1.1,0-1.9-0.9-1.9-1.9v-6.9
					C380.6,456.3,381.5,455.4,382.5,455.4z"/>
				<path class="st13" d="M373,468h19.1c1.1,0,1.9,0.9,1.9,1.9v6.9c0,1.1-0.9,1.9-1.9,1.9H373c-1.1,0-1.9-0.9-1.9-1.9v-6.9
					C371,468.8,371.9,468,373,468z"/>
				<path class="st13" d="M385.8,480.5h6.4c1,0,1.8,0.8,1.8,1.8v7.1c0,1-0.8,1.8-1.8,1.8h-6.4c-1,0-1.8-0.8-1.8-1.8v-7.1
					C384,481.3,384.8,480.5,385.8,480.5z"/>
				<path class="st13" d="M385.8,493.1h6.4c1,0,1.8,0.8,1.8,1.8v7.1c0,1-0.8,1.8-1.8,1.8h-6.4c-1,0-1.8-0.8-1.8-1.8v-7.1
					C384,493.9,384.8,493.1,385.8,493.1z"/>
				<path class="st13" d="M373.9,432.8h6.1c0.8,0,1.5,0.7,1.5,1.5v5.3c0,0.8-0.7,1.5-1.5,1.5h-6.1c-0.8,0-1.5-0.7-1.5-1.5v-5.3
					C372.5,433.5,373.1,432.8,373.9,432.8z"/>
				<path class="st13" d="M362.2,432.8h6.1c0.8,0,1.5,0.7,1.5,1.5v5.3c0,0.8-0.7,1.5-1.5,1.5h-6.1c-0.8,0-1.5-0.7-1.5-1.5v-5.3
					C360.7,433.5,361.4,432.8,362.2,432.8z"/>
				<path class="st13" d="M350.4,432.8h6.1c0.8,0,1.5,0.7,1.5,1.5v5.3c0,0.8-0.7,1.5-1.5,1.5h-6.1c-0.8,0-1.5-0.7-1.5-1.5v-5.3
					C349,433.5,349.6,432.8,350.4,432.8z"/>
				<path class="st13" d="M338.7,432.8h6.1c0.8,0,1.5,0.7,1.5,1.5v5.3c0,0.8-0.7,1.5-1.5,1.5h-6.1c-0.8,0-1.5-0.7-1.5-1.5v-5.3
					C337.2,433.5,337.9,432.8,338.7,432.8z"/>
				<path class="st13" d="M326.9,432.8h6.1c0.8,0,1.5,0.7,1.5,1.5v5.3c0,0.8-0.7,1.5-1.5,1.5h-6.1c-0.8,0-1.5-0.7-1.5-1.5v-5.3
					C325.5,433.5,326.1,432.8,326.9,432.8z"/>
				<path class="st13" d="M315.2,432.8h6.1c0.8,0,1.5,0.7,1.5,1.5v5.3c0,0.8-0.7,1.5-1.5,1.5h-6.1c-0.8,0-1.5-0.7-1.5-1.5v-5.3
					C313.7,433.5,314.4,432.8,315.2,432.8z"/>
				<path class="st13" d="M303.5,432.8h6.1c0.8,0,1.5,0.7,1.5,1.5v5.3c0,0.8-0.7,1.5-1.5,1.5h-6.1c-0.8,0-1.5-0.7-1.5-1.5v-5.3
					C302,433.5,302.7,432.8,303.5,432.8z"/>
				<path class="st13" d="M291.7,432.8h6.1c0.8,0,1.5,0.7,1.5,1.5v5.3c0,0.8-0.7,1.5-1.5,1.5h-6.1c-0.8,0-1.5-0.7-1.5-1.5v-5.3
					C290.3,433.5,290.9,432.8,291.7,432.8z"/>
				<path class="st13" d="M280,432.8h6.1c0.8,0,1.5,0.7,1.5,1.5v5.3c0,0.8-0.7,1.5-1.5,1.5H280c-0.8,0-1.5-0.7-1.5-1.5v-5.3
					C278.5,433.5,279.2,432.8,280,432.8z"/>
				<path class="st13" d="M268.2,432.8h6.1c0.8,0,1.5,0.7,1.5,1.5v5.3c0,0.8-0.7,1.5-1.5,1.5h-6.1c-0.8,0-1.5-0.7-1.5-1.5v-5.3
					C266.8,433.5,267.4,432.8,268.2,432.8z"/>
				<path class="st13" d="M256.5,432.8h6.1c0.8,0,1.5,0.7,1.5,1.5v5.3c0,0.8-0.7,1.5-1.5,1.5h-6.1c-0.8,0-1.5-0.7-1.5-1.5v-5.3
					C255,433.5,255.7,432.8,256.5,432.8z"/>
				<path class="st13" d="M244.7,432.8h6.1c0.8,0,1.5,0.7,1.5,1.5v5.3c0,0.8-0.7,1.5-1.5,1.5h-6.1c-0.8,0-1.5-0.7-1.5-1.5v-5.3
					C243.3,433.5,243.9,432.8,244.7,432.8z"/>
				<path class="st13" d="M233,432.8h6.1c0.8,0,1.5,0.7,1.5,1.5v5.3c0,0.8-0.7,1.5-1.5,1.5H233c-0.8,0-1.5-0.7-1.5-1.5v-5.3
					C231.5,433.5,232.2,432.8,233,432.8z"/>
				<path class="st13" d="M221.3,432.8h6.1c0.8,0,1.5,0.7,1.5,1.5v5.3c0,0.8-0.7,1.5-1.5,1.5h-6.1c-0.8,0-1.5-0.7-1.5-1.5v-5.3
					C219.8,433.5,220.5,432.8,221.3,432.8z"/>
				<path class="st13" d="M208.1,432.8h7.1c0.8,0,1.5,0.7,1.5,1.5v5.3c0,0.8-0.7,1.5-1.5,1.5h-7.1c-0.8,0-1.5-0.7-1.5-1.5v-5.3
					C206.6,433.5,207.3,432.8,208.1,432.8z"/>
				<path class="st13" d="M361.7,442.9h6.3c1,0,1.8,0.8,1.8,1.8v7.2c0,1-0.8,1.8-1.8,1.8h-6.3c-1,0-1.8-0.8-1.8-1.8v-7.2
					C359.9,443.7,360.7,442.9,361.7,442.9z"/>
				<path class="st13" d="M349,442.9h6.3c1,0,1.8,0.8,1.8,1.8v7.2c0,1-0.8,1.8-1.8,1.8H349c-1,0-1.8-0.8-1.8-1.8v-7.2
					C347.2,443.7,348,442.9,349,442.9z"/>
				<path class="st13" d="M336.2,442.9h6.3c1,0,1.8,0.8,1.8,1.8v7.2c0,1-0.8,1.8-1.8,1.8h-6.3c-1,0-1.8-0.8-1.8-1.8v-7.2
					C334.5,443.7,335.3,442.9,336.2,442.9z"/>
				<path class="st13" d="M323.5,442.9h6.3c1,0,1.8,0.8,1.8,1.8v7.2c0,1-0.8,1.8-1.8,1.8h-6.3c-1,0-1.8-0.8-1.8-1.8v-7.2
					C321.7,443.7,322.5,442.9,323.5,442.9z"/>
				<path class="st13" d="M310.7,442.9h6.3c1,0,1.8,0.8,1.8,1.8v7.2c0,1-0.8,1.8-1.8,1.8h-6.3c-1,0-1.8-0.8-1.8-1.8v-7.2
					C309,443.7,309.8,442.9,310.7,442.9z"/>
				<path class="st13" d="M298,442.9h6.3c1,0,1.8,0.8,1.8,1.8v7.2c0,1-0.8,1.8-1.8,1.8H298c-1,0-1.8-0.8-1.8-1.8v-7.2
					C296.2,443.7,297,442.9,298,442.9z"/>
				<path class="st13" d="M285.3,442.9h6.3c1,0,1.8,0.8,1.8,1.8v7.2c0,1-0.8,1.8-1.8,1.8h-6.3c-1,0-1.8-0.8-1.8-1.8v-7.2
					C283.5,443.7,284.3,442.9,285.3,442.9z"/>
				<path class="st13" d="M272.5,442.9h6.3c1,0,1.8,0.8,1.8,1.8v7.2c0,1-0.8,1.8-1.8,1.8h-6.3c-1,0-1.8-0.8-1.8-1.8v-7.2
					C270.8,443.7,271.5,442.9,272.5,442.9z"/>
				<path class="st13" d="M259.8,442.9h6.3c1,0,1.8,0.8,1.8,1.8v7.2c0,1-0.8,1.8-1.8,1.8h-6.3c-1,0-1.8-0.8-1.8-1.8v-7.2
					C258,443.7,258.8,442.9,259.8,442.9z"/>
				<path class="st13" d="M247,442.9h6.3c1,0,1.8,0.8,1.8,1.8v7.2c0,1-0.8,1.8-1.8,1.8H247c-1,0-1.8-0.8-1.8-1.8v-7.2
					C245.3,443.7,246.1,442.9,247,442.9z"/>
				<path class="st13" d="M234.3,442.9h6.3c1,0,1.8,0.8,1.8,1.8v7.2c0,1-0.8,1.8-1.8,1.8h-6.3c-1,0-1.8-0.8-1.8-1.8v-7.2
					C232.5,443.7,233.3,442.9,234.3,442.9z"/>
				<path class="st13" d="M221.6,442.9h6.3c1,0,1.8,0.8,1.8,1.8v7.2c0,1-0.8,1.8-1.8,1.8h-6.3c-1,0-1.8-0.8-1.8-1.8v-7.2
					C219.8,443.7,220.6,442.9,221.6,442.9z"/>
				<path class="st13" d="M208.4,442.9h6.4c1,0,1.8,0.8,1.8,1.8v7.1c0,1-0.8,1.8-1.8,1.8h-6.4c-1,0-1.8-0.8-1.8-1.8v-7.1
					C206.6,443.7,207.4,442.9,208.4,442.9z"/>
				<path class="st13" d="M208.5,455.4h13.2c1.1,0,1.9,0.9,1.9,1.9v6.9c0,1.1-0.9,1.9-1.9,1.9h-13.2c-1.1,0-1.9-0.9-1.9-1.9v-6.9
					C206.6,456.3,207.5,455.4,208.5,455.4z"/>
				<path class="st13" d="M208.5,468h15.7c1.1,0,1.9,0.9,1.9,1.9v6.9c0,1.1-0.9,1.9-1.9,1.9h-15.7c-1.1,0-1.9-0.9-1.9-1.9v-6.9
					C206.6,468.8,207.5,468,208.5,468z"/>
				<path class="st13" d="M208.5,480.5h22.6c1.1,0,1.9,0.9,1.9,1.9v6.9c0,1.1-0.9,1.9-1.9,1.9h-22.6c-1.1,0-1.9-0.9-1.9-1.9v-6.9
					C206.6,481.4,207.5,480.5,208.5,480.5z"/>
				<path class="st13" d="M208.5,493.1h9.4c1.1,0,1.9,0.9,1.9,1.9v6.9c0,1.1-0.9,1.9-1.9,1.9h-9.4c-1.1,0-1.9-0.9-1.9-1.9V495
					C206.6,493.9,207.5,493.1,208.5,493.1z"/>
				<path class="st13" d="M227.1,455.4h6.8c1,0,1.9,0.8,1.9,1.9v6.9c0,1-0.8,1.9-1.9,1.9h-6.8c-1,0-1.9-0.8-1.9-1.9v-6.9
					C225.3,456.3,226.1,455.4,227.1,455.4z"/>
				<path class="st13" d="M240.1,455.4h6.8c1,0,1.9,0.8,1.9,1.9v6.9c0,1-0.8,1.9-1.9,1.9h-6.8c-1,0-1.9-0.8-1.9-1.9v-6.9
					C238.2,456.3,239.1,455.4,240.1,455.4z"/>
				<path class="st13" d="M253.1,455.4h6.8c1,0,1.9,0.8,1.9,1.9v6.9c0,1-0.8,1.9-1.9,1.9h-6.8c-1,0-1.9-0.8-1.9-1.9v-6.9
					C251.2,456.3,252.1,455.4,253.1,455.4z"/>
				<path class="st13" d="M266.1,455.4h6.8c1,0,1.9,0.8,1.9,1.9v6.9c0,1-0.8,1.9-1.9,1.9h-6.8c-1,0-1.9-0.8-1.9-1.9v-6.9
					C264.2,456.3,265,455.4,266.1,455.4z"/>
				<path class="st13" d="M279.1,455.4h6.8c1,0,1.9,0.8,1.9,1.9v6.9c0,1-0.8,1.9-1.9,1.9h-6.8c-1,0-1.9-0.8-1.9-1.9v-6.9
					C277.2,456.3,278,455.4,279.1,455.4z"/>
				<path class="st13" d="M292,455.4h6.8c1,0,1.9,0.8,1.9,1.9v6.9c0,1-0.8,1.9-1.9,1.9H292c-1,0-1.9-0.8-1.9-1.9v-6.9
					C290.2,456.3,291,455.4,292,455.4z"/>
				<path class="st13" d="M305,455.4h6.8c1,0,1.9,0.8,1.9,1.9v6.9c0,1-0.8,1.9-1.9,1.9H305c-1,0-1.9-0.8-1.9-1.9v-6.9
					C303.1,456.3,304,455.4,305,455.4z"/>
				<path class="st13" d="M318,455.4h6.8c1,0,1.9,0.8,1.9,1.9v6.9c0,1-0.8,1.9-1.9,1.9H318c-1,0-1.9-0.8-1.9-1.9v-6.9
					C316.1,456.3,317,455.4,318,455.4z"/>
				<path class="st13" d="M331,455.4h6.8c1,0,1.9,0.8,1.9,1.9v6.9c0,1-0.8,1.9-1.9,1.9H331c-1,0-1.9-0.8-1.9-1.9v-6.9
					C329.1,456.3,329.9,455.4,331,455.4z"/>
				<path class="st13" d="M344,455.4h6.8c1,0,1.9,0.8,1.9,1.9v6.9c0,1-0.8,1.9-1.9,1.9H344c-1,0-1.9-0.8-1.9-1.9v-6.9
					C342.1,456.3,342.9,455.4,344,455.4z"/>
				<path class="st13" d="M356.9,455.4h6.8c1,0,1.9,0.8,1.9,1.9v6.9c0,1-0.8,1.9-1.9,1.9h-6.8c-1,0-1.9-0.8-1.9-1.9v-6.9
					C355.1,456.3,355.9,455.4,356.9,455.4z"/>
				<path class="st13" d="M369.9,455.4h6.8c1,0,1.9,0.8,1.9,1.9v6.9c0,1-0.8,1.9-1.9,1.9h-6.8c-1,0-1.9-0.8-1.9-1.9v-6.9
					C368,456.3,368.9,455.4,369.9,455.4z"/>
				<path class="st13" d="M230.7,468h6.8c1,0,1.9,0.8,1.9,1.9v6.9c0,1-0.8,1.9-1.9,1.9h-6.8c-1,0-1.9-0.8-1.9-1.9v-6.9
					C228.9,468.8,229.7,468,230.7,468z"/>
				<path class="st13" d="M243.7,468h6.8c1,0,1.9,0.8,1.9,1.9v6.9c0,1-0.8,1.9-1.9,1.9h-6.8c-1,0-1.9-0.8-1.9-1.9v-6.9
					C241.8,468.8,242.7,468,243.7,468z"/>
				<path class="st13" d="M256.7,468h6.8c1,0,1.9,0.8,1.9,1.9v6.9c0,1-0.8,1.9-1.9,1.9h-6.8c-1,0-1.9-0.8-1.9-1.9v-6.9
					C254.8,468.8,255.7,468,256.7,468z"/>
				<path class="st13" d="M269.7,468h6.8c1,0,1.9,0.8,1.9,1.9v6.9c0,1-0.8,1.9-1.9,1.9h-6.8c-1,0-1.9-0.8-1.9-1.9v-6.9
					C267.8,468.8,268.7,468,269.7,468z"/>
				<path class="st13" d="M282.7,468h6.8c1,0,1.9,0.8,1.9,1.9v6.9c0,1-0.8,1.9-1.9,1.9h-6.8c-1,0-1.9-0.8-1.9-1.9v-6.9
					C280.8,468.8,281.6,468,282.7,468z"/>
				<path class="st13" d="M295.6,468h6.8c1,0,1.9,0.8,1.9,1.9v6.9c0,1-0.8,1.9-1.9,1.9h-6.8c-1,0-1.9-0.8-1.9-1.9v-6.9
					C293.8,468.8,294.6,468,295.6,468z"/>
				<path class="st13" d="M308.6,468h6.8c1,0,1.9,0.8,1.9,1.9v6.9c0,1-0.8,1.9-1.9,1.9h-6.8c-1,0-1.9-0.8-1.9-1.9v-6.9
					C306.7,468.8,307.6,468,308.6,468z"/>
				<path class="st13" d="M321.6,468h6.8c1,0,1.9,0.8,1.9,1.9v6.9c0,1-0.8,1.9-1.9,1.9h-6.8c-1,0-1.9-0.8-1.9-1.9v-6.9
					C319.7,468.8,320.6,468,321.6,468z"/>
				<path class="st13" d="M334.6,468h6.8c1,0,1.9,0.8,1.9,1.9v6.9c0,1-0.8,1.9-1.9,1.9h-6.8c-1,0-1.9-0.8-1.9-1.9v-6.9
					C332.7,468.8,333.6,468,334.6,468z"/>
				<path class="st13" d="M347.6,468h6.8c1,0,1.9,0.8,1.9,1.9v6.9c0,1-0.8,1.9-1.9,1.9h-6.8c-1,0-1.9-0.8-1.9-1.9v-6.9
					C345.7,468.8,346.5,468,347.6,468z"/>
				<path class="st13" d="M360.5,468h6.8c1,0,1.9,0.8,1.9,1.9v6.9c0,1-0.8,1.9-1.9,1.9h-6.8c-1,0-1.9-0.8-1.9-1.9v-6.9
					C358.7,468.8,359.5,468,360.5,468z"/>
				<path class="st13" d="M237.5,480.5h6.8c1,0,1.9,0.8,1.9,1.9v6.9c0,1-0.8,1.9-1.9,1.9h-6.8c-1,0-1.9-0.8-1.9-1.9v-6.9
					C235.7,481.4,236.5,480.5,237.5,480.5z"/>
				<path class="st13" d="M250.5,480.5h6.8c1,0,1.9,0.8,1.9,1.9v6.9c0,1-0.8,1.9-1.9,1.9h-6.8c-1,0-1.9-0.8-1.9-1.9v-6.9
					C248.6,481.4,249.5,480.5,250.5,480.5z"/>
				<path class="st13" d="M263.5,480.5h6.8c1,0,1.9,0.8,1.9,1.9v6.9c0,1-0.8,1.9-1.9,1.9h-6.8c-1,0-1.9-0.8-1.9-1.9v-6.9
					C261.6,481.4,262.5,480.5,263.5,480.5z"/>
				<path class="st13" d="M276.5,480.5h6.8c1,0,1.9,0.8,1.9,1.9v6.9c0,1-0.8,1.9-1.9,1.9h-6.8c-1,0-1.9-0.8-1.9-1.9v-6.9
					C274.6,481.4,275.4,480.5,276.5,480.5z"/>
				<path class="st13" d="M289.5,480.5h6.8c1,0,1.9,0.8,1.9,1.9v6.9c0,1-0.8,1.9-1.9,1.9h-6.8c-1,0-1.9-0.8-1.9-1.9v-6.9
					C287.6,481.4,288.4,480.5,289.5,480.5z"/>
				<path class="st13" d="M302.4,480.5h6.8c1,0,1.9,0.8,1.9,1.9v6.9c0,1-0.8,1.9-1.9,1.9h-6.8c-1,0-1.9-0.8-1.9-1.9v-6.9
					C300.6,481.4,301.4,480.5,302.4,480.5z"/>
				<path class="st13" d="M315.4,480.5h6.8c1,0,1.9,0.8,1.9,1.9v6.9c0,1-0.8,1.9-1.9,1.9h-6.8c-1,0-1.9-0.8-1.9-1.9v-6.9
					C313.5,481.4,314.4,480.5,315.4,480.5z"/>
				<path class="st13" d="M328.4,480.5h6.8c1,0,1.9,0.8,1.9,1.9v6.9c0,1-0.8,1.9-1.9,1.9h-6.8c-1,0-1.9-0.8-1.9-1.9v-6.9
					C326.5,481.4,327.4,480.5,328.4,480.5z"/>
				<path class="st13" d="M341.4,480.5h6.8c1,0,1.9,0.8,1.9,1.9v6.9c0,1-0.8,1.9-1.9,1.9h-6.8c-1,0-1.9-0.8-1.9-1.9v-6.9
					C339.5,481.4,340.3,480.5,341.4,480.5z"/>
				<path class="st13" d="M354.4,480.5h6.8c1,0,1.9,0.8,1.9,1.9v6.9c0,1-0.8,1.9-1.9,1.9h-6.8c-1,0-1.9-0.8-1.9-1.9v-6.9
					C352.5,481.4,353.3,480.5,354.4,480.5z"/>
				<path class="st13" d="M367.4,480.5h12.2c1.1,0,1.9,0.9,1.9,1.9v6.9c0,1.1-0.9,1.9-1.9,1.9h-12.2c-1.1,0-1.9-0.9-1.9-1.9v-6.9
					C365.5,481.4,366.3,480.5,367.4,480.5z"/>
				<path class="st13" d="M224.3,493.1h6.8c1,0,1.9,0.8,1.9,1.9v6.9c0,1-0.8,1.9-1.9,1.9h-6.8c-1,0-1.9-0.8-1.9-1.9V495
					C222.5,493.9,223.3,493.1,224.3,493.1z"/>
				<path class="st13" d="M237.3,493.1h6.8c1,0,1.9,0.8,1.9,1.9v6.9c0,1-0.8,1.9-1.9,1.9h-6.8c-1,0-1.9-0.8-1.9-1.9V495
					C235.5,493.9,236.3,493.1,237.3,493.1z"/>
				<path class="st13" d="M250.3,493.1h6.8c1,0,1.9,0.8,1.9,1.9v6.9c0,1-0.8,1.9-1.9,1.9h-6.8c-1,0-1.9-0.8-1.9-1.9V495
					C248.4,493.9,249.3,493.1,250.3,493.1z"/>
				<path class="st13" d="M263.3,493.1h6.8c1,0,1.9,0.8,1.9,1.9v6.9c0,1-0.8,1.9-1.9,1.9h-6.8c-1,0-1.9-0.8-1.9-1.9V495
					C261.4,493.9,262.3,493.1,263.3,493.1z"/>
				<path class="st13" d="M276.3,493.1h6.8c1,0,1.9,0.8,1.9,1.9v6.9c0,1-0.8,1.9-1.9,1.9h-6.8c-1,0-1.9-0.8-1.9-1.9V495
					C274.4,493.9,275.2,493.1,276.3,493.1z"/>
				<path class="st13" d="M289.2,493.1h6.8c1,0,1.9,0.8,1.9,1.9v6.9c0,1-0.8,1.9-1.9,1.9h-6.8c-1,0-1.9-0.8-1.9-1.9V495
					C287.4,493.9,288.2,493.1,289.2,493.1z"/>
				<path class="st13" d="M302.2,493.1h6.8c1,0,1.9,0.8,1.9,1.9v6.9c0,1-0.8,1.9-1.9,1.9h-6.8c-1,0-1.9-0.8-1.9-1.9V495
					C300.3,493.9,301.2,493.1,302.2,493.1z"/>
				<path class="st13" d="M315.2,493.1h6.8c1,0,1.9,0.8,1.9,1.9v6.9c0,1-0.8,1.9-1.9,1.9h-6.8c-1,0-1.9-0.8-1.9-1.9V495
					C313.3,493.9,314.2,493.1,315.2,493.1z"/>
				<path class="st13" d="M328.2,493.1h6.8c1,0,1.9,0.8,1.9,1.9v6.9c0,1-0.8,1.9-1.9,1.9h-6.8c-1,0-1.9-0.8-1.9-1.9V495
					C326.3,493.9,327.2,493.1,328.2,493.1z"/>
				<path class="st13" d="M341.2,493.1h6.8c1,0,1.9,0.8,1.9,1.9v6.9c0,1-0.8,1.9-1.9,1.9h-6.8c-1,0-1.9-0.8-1.9-1.9V495
					C339.3,493.9,340.1,493.1,341.2,493.1z"/>
				<path class="st13" d="M354.2,493.1h12.2c1.1,0,1.9,0.9,1.9,1.9v6.9c0,1.1-0.9,1.9-1.9,1.9h-12.2c-1.1,0-1.9-0.9-1.9-1.9V495
					C352.3,493.9,353.1,493.1,354.2,493.1z"/>
				<path class="st13" d="M373.3,493.1h6.4c1,0,1.8,0.8,1.8,1.8v7.1c0,1-0.8,1.8-1.8,1.8h-6.4c-1,0-1.8-0.8-1.8-1.8v-7.1
					C371.5,493.9,372.3,493.1,373.3,493.1z"/>
				<path class="st13" d="M271.8,512.8h67.4c1,0,1.9,0.8,1.9,1.9v32.4c0,1-0.8,1.9-1.9,1.9h-67.4c-1,0-1.9-0.8-1.9-1.9v-32.4
					C270,513.6,270.8,512.8,271.8,512.8z"/>
				<path class="st13" d="M270.4,551.4h33.5c0.2,0,0.4,0.2,0.4,0.4v6.7c0,0.2-0.2,0.4-0.4,0.4h-33.5c-0.2,0-0.4-0.2-0.4-0.4v-6.7
					C270,551.6,270.1,551.4,270.4,551.4z"/>
				<path class="st13" d="M307.2,551.4h33.5c0.2,0,0.4,0.2,0.4,0.4v6.7c0,0.2-0.2,0.4-0.4,0.4h-33.5c-0.2,0-0.4-0.2-0.4-0.4v-6.7
					C306.8,551.6,307,551.4,307.2,551.4z"/>
			</g>
			<g>
				<g>
					<g>
						<path class="st19" d="M197.7,364.8c21.1,0,42.2,0,63.3,0c21.1,0,42.2,0,63.4,0c0.1,5.2,0.1,10.5,0.2,15.7
							c0.1,5.2,0.1,10.5,0.2,15.7c-19.7,0-39.4,0-59.1,0c-19.7,0-39.4,0-59.1,0c-1.5-5.2-3-10.5-4.4-15.7
							C200.7,375.3,199.2,370.1,197.7,364.8z"/>
						<path class="st20" d="M197.7,364.8c21.1,0,42.2,0,63.3,0c21.1,0,42.2,0,63.4,0c0,0.6,0,1.2,0,1.8c-21,0-42.1,0-63.1,0
							c-21,0-42.1,0-63.1,0C198.1,366,197.9,365.4,197.7,364.8z"/>
					</g>
					<g>
						<path class="st21" d="M275.5,369.7c-9.1,0-16.2,2.9-15.8,5.2c0.3,2.3,3.1,3.2,7.3,4.2c-0.7,0.7-1.3,1.4-2,2.1
							c1.8-0.5,3.6-1,5.4-1.5c1.9,0.3,0.7,0.4,6.3,0.4c5.6,0,16-2.3,15.8-5.2C292.3,372.1,284.6,369.7,275.5,369.7z"/>
						<g>
							<path class="st14" d="M268.8,374.2c1.2,0,2.3,0.4,2.3,0.8c0,0.4-0.9,0.8-2.1,0.8c-1.2,0-2.2-0.4-2.3-0.8
								C266.6,374.6,267.6,374.2,268.8,374.2z"/>
							<path class="st14" d="M276,374.2c1.2,0,2.3,0.4,2.3,0.8c0,0.4-0.9,0.8-2.2,0.8c-1.2,0-2.3-0.4-2.3-0.8
								C273.8,374.6,274.7,374.2,276,374.2z"/>
							<path class="st14" d="M283.2,374.2c1.2,0,2.2,0.4,2.3,0.8c0,0.4-0.9,0.8-2.1,0.8c-1.2,0-2.2-0.4-2.3-0.8
								C281,374.6,281.9,374.2,283.2,374.2z"/>
						</g>
					</g>
					<g>
						<path class="st22" d="M241.5,373.7c9.1,0,16.9,2.9,17.2,5.2c0.4,2.3-2.1,3.2-5.9,4.2c0.9,0.7,1.7,1.4,2.6,2.1
							c-1.9-0.5-3.9-1-5.8-1.5c-1.9,0.3-0.6,0.4-6.1,0.4c-5.5,0-16.6-2.3-17.3-5.2C225.5,376,232.4,373.7,241.5,373.7z"/>
						<g>
							<path class="st14" d="M249.5,378.1c-1.2,0-2.1,0.4-2.1,0.8c0.1,0.4,1.1,0.8,2.3,0.8c1.2,0,2.1-0.4,2.1-0.8
								C251.7,378.5,250.7,378.1,249.5,378.1z"/>
							<path class="st14" d="M242.3,378.1c-1.2,0-2.2,0.4-2,0.8c0.1,0.4,1.1,0.8,2.4,0.8c1.2,0,2.1-0.4,2-0.8
								C244.6,378.5,243.6,378.1,242.3,378.1z"/>
							<path class="st14" d="M235.2,378.1c-1.2,0-2.1,0.4-2,0.8c0.1,0.4,1.1,0.8,2.3,0.8c1.2,0,2.1-0.4,2-0.8
								C237.5,378.5,236.4,378.1,235.2,378.1z"/>
						</g>
					</g>
					<g>
						<path class="st14" d="M273.3,382.1c-8.9,0-15.7,2.9-15.3,5.2c0.4,2.3,3.1,3.2,7.2,4.2c-0.7,0.7-1.3,1.4-1.9,2.1
							c1.8-0.5,3.5-1,5.2-1.5c1.9,0.3,0.7,0.4,6.1,0.4c5.4,0,15.6-2.3,15.3-5.2C289.7,384.4,282.2,382.1,273.3,382.1z"/>
						<g>
							<path class="st21" d="M266.9,386.5c1.2,0,2.2,0.4,2.3,0.8c0.1,0.4-0.9,0.8-2.1,0.8c-1.2,0-2.2-0.4-2.3-0.8
								C264.7,386.9,265.7,386.5,266.9,386.5z"/>
							<path class="st21" d="M273.9,386.5c1.2,0,2.2,0.4,2.3,0.8c0,0.4-0.9,0.8-2.1,0.8c-1.2,0-2.2-0.4-2.3-0.8
								C271.8,386.9,272.7,386.5,273.9,386.5z"/>
							<path class="st21" d="M280.9,386.5c1.2,0,2.2,0.4,2.2,0.8c0,0.4-0.9,0.8-2.1,0.8c-1.2,0-2.2-0.4-2.2-0.8
								C278.7,386.9,279.7,386.5,280.9,386.5z"/>
						</g>
					</g>
				</g>
				<g>
					<g>
						<path class="st23" d="M231,342.8c22.1,0,44.2,0,66.3,0c22.1,0,44.2,0,66.3,0c-0.4,5.2-0.7,10.5-1.1,15.7
							c-0.4,5.2-0.7,10.5-1.1,15.7c-20.7,0-41.4,0-62.1,0c-20.7,0-41.4,0-62.1,0c-1.1-5.2-2.1-10.5-3.2-15.7
							C233.1,353.3,232,348.1,231,342.8z"/>
						<path class="st24" d="M231,342.8c22.1,0,44.2,0,66.3,0c22.1,0,44.2,0,66.3,0c-0.1,0.6-0.1,1.2-0.1,1.8c-22.1,0-44.1,0-66.1,0
							c-22,0-44.1,0-66.1,0C231.2,344,231.1,343.4,231,342.8z"/>
					</g>
					<path class="st25" d="M271.9,347.6c16.3,0,32.7,0,49.1,0c0,1.1,0,2.2,0.1,3.3c-16.3,0-32.5,0-48.7,0
						C272.1,349.8,272,348.7,271.9,347.6z"/>
					<path class="st25" d="M241.3,352.4c18.5,0,37,0,55.4,0c18.5,0,37,0,55.5,0c0-0.2,0-0.4,0-0.6c-18.5,0-37,0-55.5,0
						c-18.5,0-37,0-55.5,0C241.2,352,241.3,352.2,241.3,352.4z"/>
					<path class="st14" d="M241.5,353.5c18.4,0,36.9,0,55.3,0c18.4,0,36.9,0,55.3,0c0-0.2,0-0.4,0-0.6c-18.5,0-37,0-55.4,0
						s-36.9,0-55.4,0C241.4,353.1,241.5,353.3,241.5,353.5z"/>
					<path class="st21" d="M241.6,354.4c10,0,19.9,0,29.9,0c0.2,1.1,0.3,2.2,0.4,3.3c-9.9,0-19.8,0-29.7,0
						C242.1,356.6,241.9,355.5,241.6,354.4z"/>
					<path class="st22" d="M281.9,354.4c10,0,19.9,0,29.9,0c0,1.1,0.1,2.2,0.2,3.3c-9.9,0-19.8,0-29.6,0
						C282.2,356.6,282.1,355.5,281.9,354.4z"/>
					<path class="st26" d="M322.2,354.4c9.9,0,19.9,0,29.9,0c0,1.1-0.1,2.2-0.1,3.3c-9.9,0-19.8,0-29.6,0
						C322.3,356.6,322.2,355.5,322.2,354.4z"/>
					<path class="st14" d="M242.5,359c9.8,0,19.7,0,29.6,0c0-0.2,0-0.4-0.1-0.6c-9.9,0-19.8,0-29.6,0
						C242.4,358.6,242.5,358.8,242.5,359z"/>
					<path class="st14" d="M242.7,360.1c9.8,0,19.7,0,29.5,0c0-0.2,0-0.4-0.1-0.6c-9.9,0-19.7,0-29.6,0
						C242.6,359.7,242.7,359.9,242.7,360.1z"/>
					<path class="st14" d="M242.9,361.2c9.8,0,19.6,0,29.4,0c0-0.2,0-0.4-0.1-0.6c-9.8,0-19.7,0-29.5,0
						C242.8,360.8,242.9,361,242.9,361.2z"/>
					<path class="st14" d="M243.1,362.3c9.8,0,19.6,0,29.4,0c0-0.2,0-0.4-0.1-0.6c-9.8,0-19.6,0-29.4,0
						C243.1,361.9,243.1,362.1,243.1,362.3z"/>
					<path class="st14" d="M282.4,359c9.9,0,19.7,0,29.6,0c0-0.2,0-0.4,0-0.6c-9.9,0-19.8,0-29.6,0
						C282.4,358.6,282.4,358.8,282.4,359z"/>
					<path class="st14" d="M282.5,360.1c9.8,0,19.6,0,29.5,0c0-0.2,0-0.4,0-0.6c-9.8,0-19.7,0-29.5,0
						C282.5,359.7,282.5,359.9,282.5,360.1z"/>
					<path class="st14" d="M282.6,361.2c9.8,0,19.6,0,29.4,0c0-0.2,0-0.4,0-0.6c-9.8,0-19.7,0-29.5,0
						C282.6,360.8,282.6,361,282.6,361.2z"/>
					<path class="st14" d="M282.7,362.3c9.8,0,19.6,0,29.4,0c0-0.2,0-0.4,0-0.6c-9.8,0-19.6,0-29.4,0
						C282.7,361.9,282.7,362.1,282.7,362.3z"/>
					<path class="st14" d="M322.3,359c9.8,0,19.7,0,29.6,0c0-0.2,0-0.4,0-0.6c-9.9,0-19.7,0-29.6,0
						C322.3,358.6,322.3,358.8,322.3,359z"/>
					<path class="st14" d="M322.3,360.1c9.8,0,19.6,0,29.5,0c0-0.2,0-0.4,0-0.6c-9.9,0-19.7,0-29.5,0
						C322.3,359.7,322.3,359.9,322.3,360.1z"/>
					<path class="st14" d="M322.3,361.2c9.8,0,19.6,0,29.4,0c0-0.2,0-0.4,0-0.6c-9.8,0-19.6,0-29.5,0
						C322.3,360.8,322.4,361,322.3,361.2z"/>
					<path class="st14" d="M322.4,362.3c9.8,0,19.6,0,29.4,0c0-0.2,0-0.4,0-0.6c-9.8,0-19.6,0-29.4,0
						C322.4,361.9,322.4,362.1,322.4,362.3z"/>
					<path class="st25" d="M243.4,364.1c18,0,36.1,0,54.1,0c18,0,36.1,0,54.1,0c0-0.2,0-0.4,0-0.6c-18.1,0-36.1,0-54.2,0
						c-18,0-36.1,0-54.2,0C243.4,363.7,243.4,363.9,243.4,364.1z"/>
					<path class="st14" d="M263.9,365.3c10.4,0,20.8,0,31.3,0c0-0.2,0-0.4,0-0.6c-10.5,0-20.9,0-31.3,0
						C263.8,364.9,263.8,365.1,263.9,365.3z"/>
					<path class="st14" d="M264,366.4c10.4,0,20.8,0,31.2,0c0-0.2,0-0.4,0-0.6c-10.4,0-20.8,0-31.3,0C264,366,264,366.2,264,366.4z"
						/>
					<path class="st22" d="M243.5,364.7c5.1,0,10.2,0,15.4,0c0.1,0.6,0.2,1.1,0.2,1.7c-5.1,0-10.2,0-15.3,0
						C243.8,365.9,243.7,365.3,243.5,364.7z"/>
					<path class="st14" d="M320.3,365.3c10.4,0,20.8,0,31.3,0c0-0.2,0-0.4,0-0.6c-10.5,0-20.9,0-31.3,0
						C320.3,364.9,320.3,365.1,320.3,365.3z"/>
					<path class="st14" d="M320.3,366.4c10.4,0,20.8,0,31.2,0c0-0.2,0-0.4,0-0.6c-10.4,0-20.8,0-31.2,0
						C320.3,366,320.3,366.2,320.3,366.4z"/>
					<path class="st26" d="M300.1,364.7c5.1,0,10.2,0,15.4,0c0,0.6,0,1.1,0,1.7c-5.1,0-10.2,0-15.3,0
						C300.1,365.9,300.1,365.3,300.1,364.7z"/>
					<path class="st14" d="M264.2,367.7c10.4,0,20.7,0,31.1,0c0-0.2,0-0.4,0-0.6c-10.4,0-20.8,0-31.2,0
						C264.2,367.3,264.2,367.5,264.2,367.7z"/>
					<path class="st14" d="M264.4,368.8c10.3,0,20.7,0,31.1,0c0-0.2,0-0.4,0-0.6c-10.4,0-20.7,0-31.1,0
						C264.3,368.4,264.3,368.6,264.4,368.8z"/>
					<path class="st21" d="M244,367.1c5.1,0,10.2,0,15.3,0c0.1,0.6,0.2,1.1,0.3,1.7c-5.1,0-10.1,0-15.2,0
						C244.2,368.3,244.1,367.7,244,367.1z"/>
					<path class="st14" d="M320.4,367.7c10.4,0,20.7,0,31.1,0c0-0.2,0-0.4,0-0.6c-10.4,0-20.7,0-31.1,0
						C320.4,367.3,320.4,367.5,320.4,367.7z"/>
					<path class="st14" d="M320.4,368.8c10.3,0,20.7,0,31,0c0-0.2,0-0.4,0-0.6c-10.4,0-20.7,0-31.1,0
						C320.4,368.4,320.4,368.6,320.4,368.8z"/>
					<path class="st22" d="M300.2,367.1c5.1,0,10.2,0,15.3,0c0,0.6,0,1.1,0.1,1.7c-5.1,0-10.1,0-15.2,0
						C300.3,368.3,300.3,367.7,300.2,367.1z"/>
					<path class="st14" d="M264.6,370.1c10.3,0,20.6,0,31,0c0-0.2,0-0.4-0.1-0.6c-10.3,0-20.7,0-31,0
						C264.5,369.7,264.5,369.9,264.6,370.1z"/>
					<path class="st14" d="M264.7,371.2c10.3,0,20.6,0,30.9,0c0-0.2,0-0.4,0-0.6c-10.3,0-20.6,0-30.9,0
						C264.7,370.8,264.7,371,264.7,371.2z"/>
					<path class="st26" d="M244.4,369.5c5.1,0,10.1,0,15.2,0c0.1,0.6,0.2,1.1,0.3,1.7c-5,0-10.1,0-15.1,0
						C244.6,370.7,244.5,370.1,244.4,369.5z"/>
					<path class="st14" d="M320.4,370.1c10.3,0,20.6,0,31,0c0-0.2,0-0.4,0-0.6c-10.3,0-20.7,0-31,0
						C320.4,369.7,320.4,369.9,320.4,370.1z"/>
					<path class="st14" d="M320.4,371.2c10.3,0,20.6,0,30.9,0c0-0.2,0-0.4,0-0.6c-10.3,0-20.6,0-30.9,0
						C320.4,370.8,320.4,371,320.4,371.2z"/>
					<path class="st21" d="M300.4,369.5c5.1,0,10.1,0,15.2,0c0,0.6,0,1.1,0.1,1.7c-5,0-10.1,0-15.1,0
						C300.4,370.7,300.4,370.1,300.4,369.5z"/>
				</g>
				<g>
					<g>
						<path class="st21" d="M284.8,355.3c21.5,0,43.1,0,64.6,0c21.6,0,43.1,0,64.7,0c-0.9,5.2-1.8,10.5-2.7,15.7
							c-0.9,5.2-1.8,10.5-2.8,15.7c-20.2,0-40.3,0-60.4,0c-20.1,0-40.3,0-60.4,0c-0.5-5.2-1-10.5-1.5-15.7
							C285.8,365.8,285.3,360.6,284.8,355.3z"/>
						<path class="st5" d="M284.8,355.3c21.5,0,43.1,0,64.6,0c21.6,0,43.1,0,64.7,0c-0.1,0.6-0.2,1.2-0.3,1.8c-21.5,0-43,0-64.4,0
							c-21.4,0-42.9,0-64.4,0C285,356.5,284.9,355.9,284.8,355.3z"/>
					</g>
					<g>
						<path class="st5" d="M306.4,377.1c14.1,0,28.1,0,42.2,0c14,0,28.1,0,42.2,0c0,0.3-0.1,0.7-0.1,1c-14,0-28.1,0-42.1,0
							c-14,0-28.1,0-42.1,0C306.4,377.7,306.4,377.4,306.4,377.1z"/>
						<path class="st23" d="M317,376.2c-0.6,0-1.2,0-1.8,0c0,0.9,0,1.8,0.1,2.7c0.6,0,1.2,0,1.8,0C317,378,317,377.1,317,376.2z"/>
						<path class="st26" d="M333.5,362.9c8.9,0,17.7,0,26.5,0c3.8,0,6.8,1.1,6.7,2.4c-0.1,1.4-0.2,2.7-0.3,4.1
							c-0.1,1.3-3.2,2.4-6.9,2.4c-8.7,0-17.4,0-26,0c-3.7,0-6.7-1.1-6.7-2.4c0-1.4,0-2.7,0-4.1C326.7,364,329.8,362.9,333.5,362.9z"
							/>
						<path class="st14" d="M340.7,364.8c4,0.9,8,1.7,12,2.6c-4.1,0.9-8.1,1.7-12.1,2.6C340.6,368.2,340.6,366.5,340.7,364.8z"/>
						<path class="st5" d="M378.8,379.7c0.9,0,1.8,0,2.8,0c0,0.1,0,0.3,0,0.4c-0.5,0-1.1,0-1.6,0c0,0.2,0,0.4-0.1,0.6
							c-0.4,0-0.8,0-1.2,0C378.8,380.4,378.8,380.1,378.8,379.7L378.8,379.7z M379.9,381.2c0,0.2,0,0.4-0.1,0.6c0.5,0,1,0,1.6,0
							c0,0.1,0,0.3,0,0.4c-0.9,0-1.8,0-2.7,0c0-0.3,0.1-0.7,0.1-1C379.1,381.2,379.5,381.2,379.9,381.2L379.9,381.2z M386,379.7
							c0.9,0,1.9,0,2.8,0c0,0.3-0.1,0.7-0.1,1c-0.4,0-0.8,0-1.2,0c0-0.2,0-0.4,0.1-0.6c-0.5,0-1.1,0-1.6,0
							C386,380,386,379.9,386,379.7L386,379.7z M388.6,381.2c0,0.3-0.1,0.7-0.1,1c-0.9,0-1.8,0-2.8,0c0-0.1,0-0.3,0-0.4
							c0.5,0,1,0,1.6,0c0-0.2,0-0.4,0.1-0.6C387.8,381.2,388.2,381.2,388.6,381.2z"/>
						<g>
							<path class="st5" d="M352.2,379.8c-1.1,0.2-2.2,0.4-3.3,0.6c-0.6,0-1.2,0-1.8,0c0,0.4,0,0.8,0,1.2c0.6,0,1.2,0,1.8,0
								c1.1,0.2,2.1,0.4,3.2,0.6C352.1,381.3,352.1,380.6,352.2,379.8z"/>
							<path class="st6" d="M353.5,379.7c0.9,0.1,1.5,0.4,1.8,0.7c0.2,0.2,0.2,0.3,0.2,0.5c0,0.2-0.1,0.3-0.3,0.5
								c-0.3,0.3-1,0.5-1.9,0.7c-0.1-0.1-0.1-0.1-0.2-0.2c0.7-0.1,1.3-0.3,1.6-0.6c0.2-0.1,0.3-0.3,0.3-0.4c0-0.2,0-0.3-0.2-0.5
								c-0.3-0.3-0.8-0.5-1.6-0.6C353.4,379.9,353.5,379.8,353.5,379.7z"/>
							<path class="st6" d="M353.5,380.1c0.3,0.1,0.5,0.2,0.7,0.3l0,0c0.3,0.2,0.4,0.3,0.4,0.5c0,0.2-0.1,0.4-0.4,0.5
								c-0.2,0.1-0.4,0.2-0.8,0.3c-0.1,0-0.2-0.1-0.2-0.2c0.3-0.1,0.5-0.1,0.6-0.2c0.2-0.1,0.3-0.3,0.4-0.4c0-0.2-0.1-0.3-0.3-0.4
								l0,0c-0.1-0.1-0.3-0.2-0.6-0.2C353.4,380.2,353.4,380.2,353.5,380.1z"/>
						</g>
						<path class="st6" d="M340.8,381.8v-0.3l0,0c0.2,0,0.3,0,0.4-0.1c0.1,0,0.2-0.1,0.2-0.2c0-0.1,0-0.2-0.2-0.2
							c-0.1-0.1-0.3-0.1-0.4-0.1h0v-0.2c0,0,0.1,0,0.1,0c0.4,0,0.7,0,0.9,0.1c0.2,0.1,0.4,0.2,0.4,0.4c0,0.2-0.1,0.3-0.4,0.4
							C341.5,381.8,341.2,381.8,340.8,381.8L340.8,381.8z M340.8,380.4v-0.3l0.1,0c0.3,0,0.6,0,0.8,0.1c0.2,0.1,0.4,0.2,0.4,0.3
							c-0.3,0-0.6,0-0.9,0c0-0.1,0-0.1-0.1-0.1C341.1,380.4,340.9,380.4,340.8,380.4L340.8,380.4z M340.8,380.1v0.3
							c-0.2,0-0.3,0-0.4,0.1c-0.1,0.1-0.2,0.2-0.2,0.4c0.2-0.1,0.4-0.1,0.7-0.1v0.2c-0.2,0-0.3,0-0.4,0.1c-0.1,0.1-0.2,0.1-0.2,0.2
							c0,0.1,0.1,0.2,0.2,0.2c0.1,0,0.2,0.1,0.4,0.1v0.3h0c-0.5,0-0.9-0.1-1.1-0.2c-0.3-0.1-0.4-0.3-0.4-0.6c0-0.3,0.2-0.5,0.5-0.7
							C340,380.2,340.3,380.1,340.8,380.1L340.8,380.1z M326.4,381.8v-0.3l0,0c0.1,0,0.2,0,0.3,0c0.1,0,0.1-0.1,0.2-0.1
							c0.1-0.1,0.1-0.2,0.1-0.4c0-0.2,0-0.3,0-0.4c-0.1-0.1-0.1-0.1-0.2-0.1c-0.1,0-0.2,0-0.3,0h0v-0.3h0c0.4,0,0.8,0.1,1,0.2
							c0.3,0.1,0.4,0.4,0.4,0.7c0,0.3-0.1,0.5-0.4,0.7C327.2,381.7,326.9,381.8,326.4,381.8L326.4,381.8L326.4,381.8z M328.2,381.8
							c0.3-0.6,0.7-1.1,1.1-1.7c0.2,0,0.4,0,0.6,0c-0.4,0.6-0.7,1.1-1.1,1.7C328.6,381.8,328.4,381.8,328.2,381.8L328.2,381.8z
							 M333.1,381.5c0,0.1,0,0.2,0,0.3c-1,0-2,0-3,0c0-0.1,0.1-0.2,0.3-0.3c0.2-0.1,0.5-0.2,1-0.4c0.4-0.1,0.6-0.2,0.7-0.3
							c0.1-0.1,0.2-0.1,0.2-0.2c0-0.1,0-0.1-0.1-0.2c-0.1,0-0.2-0.1-0.4-0.1c-0.2,0-0.3,0-0.4,0.1c-0.1,0-0.2,0.1-0.2,0.2
							c-0.3,0-0.6,0-0.9,0c0-0.2,0.2-0.3,0.5-0.4c0.3-0.1,0.6-0.1,1-0.1c0.4,0,0.8,0,1,0.1c0.2,0.1,0.4,0.2,0.4,0.3
							c0,0.1,0,0.1-0.1,0.2c-0.1,0.1-0.2,0.1-0.3,0.2c-0.1,0.1-0.3,0.1-0.6,0.2c-0.2,0.1-0.4,0.2-0.5,0.2c-0.1,0-0.1,0.1-0.2,0.1
							C331.9,381.5,332.5,381.5,333.1,381.5L333.1,381.5z M334,380.9c0-0.1,0-0.2,0-0.3c0.3,0,0.6,0,0.9,0c0,0.1,0,0.2,0,0.3
							C334.6,380.9,334.3,380.9,334,380.9L334,380.9z M334,381.8c0-0.1,0-0.2,0-0.3c0.3,0,0.6,0,0.9,0c0,0.1,0,0.2,0,0.3
							C334.6,381.8,334.3,381.8,334,381.8L334,381.8z M335.7,381.4c0.3,0,0.6,0,0.9,0c0,0.1,0.1,0.1,0.2,0.2c0.1,0,0.3,0.1,0.4,0.1
							c0.2,0,0.3,0,0.4-0.1c0.1-0.1,0.2-0.1,0.2-0.2c0-0.1-0.1-0.2-0.2-0.2c-0.1-0.1-0.3-0.1-0.5-0.1c-0.2,0-0.5,0-0.7,0.1
							c-0.2,0-0.5,0-0.7,0c0.1-0.3,0.3-0.6,0.5-0.9c0.7,0,1.5,0,2.2,0c0,0.1,0,0.2,0,0.3c-0.5,0-1.1,0-1.6,0
							c-0.1,0.1-0.1,0.2-0.2,0.3c0.2,0,0.4-0.1,0.6-0.1c0.4,0,0.7,0.1,0.9,0.1c0.3,0.1,0.4,0.2,0.4,0.4c0,0.1-0.1,0.3-0.3,0.4
							c-0.3,0.2-0.7,0.2-1.2,0.2c-0.4,0-0.8,0-1-0.1C335.9,381.6,335.8,381.5,335.7,381.4z M326.4,380.1v0.3c-0.1,0-0.2,0-0.3,0
							c-0.1,0-0.1,0.1-0.2,0.1c-0.1,0.1-0.1,0.2-0.1,0.4c0,0.2,0,0.3,0.1,0.4c0.1,0.1,0.1,0.1,0.2,0.1c0.1,0,0.2,0,0.3,0v0.3
							c-0.4,0-0.8-0.1-1-0.2c-0.3-0.1-0.4-0.3-0.4-0.7s0.2-0.5,0.4-0.7C325.6,380.2,326,380.1,326.4,380.1L326.4,380.1z
							 M322.9,381.8v-0.3h0c0.1,0,0.2,0,0.3,0c0.1,0,0.2-0.1,0.2-0.1c0.1-0.1,0.1-0.2,0.1-0.4c0-0.2,0-0.3-0.1-0.4
							c-0.1-0.1-0.1-0.1-0.2-0.1c0,0-0.1,0-0.3,0v-0.3c0.4,0,0.8,0.1,1,0.2c0.3,0.1,0.4,0.4,0.4,0.7c0,0.3-0.1,0.5-0.4,0.7
							C323.7,381.8,323.4,381.8,322.9,381.8L322.9,381.8z M317.4,380.1c0.4,0,0.8,0.1,1,0.2c0.3,0.1,0.4,0.4,0.4,0.7
							c0,0.3-0.1,0.6-0.4,0.7c-0.3,0.1-0.6,0.2-1,0.2h0v-0.3l0,0c0.1,0,0.2,0,0.3,0c0.1,0,0.1-0.1,0.2-0.1c0.1-0.1,0.1-0.2,0.1-0.4
							c0-0.2,0-0.3-0.1-0.4c-0.1-0.1-0.1-0.1-0.2-0.1c-0.1,0-0.2,0-0.3,0V380.1L317.4,380.1z M322.9,380.1v0.3h0c-0.1,0-0.2,0-0.3,0
							c-0.1,0-0.1,0.1-0.2,0.1c-0.1,0.1-0.1,0.2-0.1,0.4c0,0.2,0,0.3,0.1,0.4c0.1,0.1,0.1,0.1,0.2,0.1c0.1,0,0.2,0,0.3,0v0.3
							c-0.4,0-0.8-0.1-1-0.2c-0.2-0.1-0.4-0.3-0.4-0.7s0.2-0.5,0.4-0.7C322.2,380.2,322.5,380.1,322.9,380.1L322.9,380.1
							L322.9,380.1z M319.8,380.9c0-0.1,0-0.2,0-0.3c0.3,0,0.6,0,0.9,0c0,0.1,0,0.2,0,0.3C320.3,380.9,320,380.9,319.8,380.9
							L319.8,380.9z M319.8,381.8c0-0.1,0-0.2,0-0.3c0.3,0,0.6,0,0.9,0c0,0.1,0,0.2,0,0.3C320.4,381.8,320.1,381.8,319.8,381.8z
							 M317.4,380.1L317.4,380.1l0,0.3h0c-0.1,0-0.2,0-0.3,0c-0.1,0-0.1,0.1-0.2,0.1c-0.1,0.1-0.1,0.2-0.1,0.4c0,0.2,0,0.3,0.1,0.4
							c0.1,0.1,0.1,0.1,0.2,0.1c0.1,0,0.2,0,0.3,0v0.3c-0.4,0-0.8-0.1-1-0.2c-0.3-0.1-0.4-0.3-0.4-0.7c0-0.3,0.1-0.5,0.4-0.7
							C316.6,380.2,316.9,380.1,317.4,380.1z"/>
						<path class="st5" d="M306.5,379.8c1.7,0.4,3.5,0.8,5.2,1.1c-1.7,0.4-3.4,0.8-5.1,1.1C306.6,381.3,306.6,380.6,306.5,379.8z"/>
					</g>
				</g>
			</g>
		</g>
		<path class="st11" d="M468.6,616.6l-2.7-10.8l3.9-1l-3-11.9l3.6-0.9l-2.4-9.5c-2.8-0.6-5.1-1.8-6.6-3.7L444.9,558l-4-17.1
			c1.3-3.9,8.8-8.9,10.6-0.6l1.8,8l5.7,8.3c-1.4-5.3-2.5-9.9-3.5-13.6l-8.6-25.1l-4.6-11.1c-2.5-7.3,8.4-10.7,10.8-3.7l4.2,10.1
			l7.2,21.1c0.4-0.4,0.8-0.8,1.3-1.2l-4.9-21.1l-5.2-15c-1.7-7.3,8.6-9.7,11.1-2.6l5.3,15.3l4.2,18.2c0.2-0.1,0.9-0.2,1.2-0.2
			l-2.6-17.9l-3.9-13.3c-1-6.8,10.1-9.6,11.3-1.4l4,13.6l3.1,20.2c0.5,0.2,1.1,0.5,1.5,0.8l-0.8-13.3l-2.8-10.1
			c-2.2-7.9,11-8.8,11.4-0.7l3.1,11.6l0.8,23c3.5,14.7,2,25.6-3.8,32.8l2.8,11.1l3.6-0.9l3,11.9l3.9-1l5.7,22.5H468.6z"/>
		<g>
			
				<rect x="459.1" y="558.6" transform="matrix(0.9692 -0.2465 0.2465 0.9692 -128.5947 135.0813)" class="st27" width="32.5" height="45.3"/>
			<path class="st27" d="M444,533.3c1,3.7,2.2,8.2,3.5,13.6l-5.7-8.3l-1.8-8c-1.8-8.3-9.3-3.2-10.6,0.6l4,17.1l16.3,20.8
				c3.9,4.9,13.6,5,22.1,3.1c17.4-3.9,25.2-17.9,19.4-41.8l-0.8-23l-3.1-11.6c-0.4-8.1-13.5-7.2-11.4,0.7l2.8,10.1l0.8,13.3
				c-0.4-0.3-1-0.6-1.5-0.8l-3.1-20.2l-4-13.6c-1.2-8.1-12.3-5.4-11.3,1.4l3.9,13.3l2.6,17.9c-0.3,0-1,0.2-1.2,0.2l-4.2-18.2
				l-5.3-15.3c-2.5-7.1-12.8-4.7-11.1,2.6l5.2,15l4.9,21.1c-0.4,0.4-0.9,0.8-1.3,1.2l-7.2-21.1l-4.2-10.1c-2.4-7-13.3-3.6-10.8,3.7
				l4.6,11.1L444,533.3z"/>
			
				<rect x="456.2" y="578" transform="matrix(0.9691 -0.2465 0.2465 0.9691 -129.3026 135.37)" class="st14" width="39.8" height="12.3"/>
			<polygon class="st21" points="459.7,616.6 454.4,596 500.8,584.3 509,616.6 			"/>
		</g>
		<path class="st11" d="M180.7,616.6l17-29.8l-3.4-2l6.1-10.7l-3.2-1.8l5-8.7c2.8,0.1,5.3-0.4,7.2-1.6l38.2-23.4
			c-0.7-4.1-4.8-10.4-12.4-6.5l-17.8,9.2c2.8-4.8,5.1-8.8,7.1-12.1l25-36.5c4.4-6.4-5.2-12.6-9.4-6.5l-22,32.1
			c-0.3-0.5-0.6-1-0.9-1.5l9.3-17.1c3.6-6.6-6.4-12.1-10-5.5l-8,14.7c-0.2-0.1-0.8-0.4-1.1-0.5l5.3-12.1c2.8-6.3-7.1-11.9-10.5-4.4
			l-6.7,14.4c-0.6,0.1-1.2,0.2-1.7,0.4l2.6-7.6c2.6-7.8-8.2-11.4-10.8-3.7l-5.9,18.3c-7.3,13.2-8.7,24.2-5.1,32.6l-5.7,9.9l-3.2-1.8
			l-6.1,10.7l-3.4-2l-30.6,53.5H180.7z"/>
		<g>
			
				<rect x="147.5" y="541" transform="matrix(0.497 -0.8678 0.8678 0.497 -397.9184 427.9665)" class="st27" width="45.3" height="32.5"/>
			<path class="st27" d="M213.2,519.4c-2,3.3-4.3,7.4-7.1,12.1l17.8-9.2c7.5-3.9,11.7,2.4,12.4,6.5l-38.2,23.4
				c-5.3,3.3-14.5,1.2-22.1-2.9c-15.8-8.5-19.5-24-7.6-45.4l5.9-18.3c2.6-7.7,13.4-4,10.8,3.7l-2.6,7.6c0.5-0.2,1.1-0.3,1.7-0.4
				l6.7-14.4c3.4-7.5,13.3-1.9,10.5,4.4l-5.3,12.1c0.3,0.1,0.9,0.4,1.1,0.5l8-14.7c3.6-6.6,13.6-1.1,10,5.5l-9.3,17.1
				c0.3,0.5,0.6,1,0.9,1.5l22-32.1c4.2-6.1,13.7,0.1,9.4,6.5L213.2,519.4z"/>
			
				<rect x="162.5" y="539.9" transform="matrix(0.497 -0.8678 0.8678 0.497 -400.9396 427.9896)" class="st14" width="12.3" height="39.8"/>
			<polygon class="st21" points="163.7,616.6 186.4,577 144.9,553.3 108.7,616.6 			"/>
		</g>
		<path class="st11" d="M100.3,167.4h42.3c8,0,14.6,6.6,14.6,14.6l0,81c0,8-6.6,14.6-14.6,14.6l-42.3,0c-8,0-14.6-6.6-14.6-14.6
			l0-81C85.7,173.9,92.3,167.4,100.3,167.4z"/>
		<path class="st11" d="M504.9,192.9l25,0c4.7,0,8.6,3.9,8.6,8.6v67.3c0,4.7-3.9,8.6-8.6,8.6h-25c-4.7,0-8.6-3.9-8.6-8.6v-67.3
			C496.2,196.8,500.1,192.9,504.9,192.9z"/>
		<path class="st11" d="M240.9,190.2v64.6c0,12.5,10.2,22.7,22.7,22.7h111.5c12.5,0,22.7-10.2,22.7-22.7v-64.6
			c0-12.5-10.2-22.7-22.7-22.7H263.7C251.2,167.5,240.9,177.7,240.9,190.2z"/>
		<g>
			<g>
				<path class="st14" d="M88,156.9h42.3c8,0,14.6,6.6,14.6,14.6l0,81c0,8-6.6,14.6-14.6,14.6H88c-8,0-14.6-6.6-14.6-14.6l0-81
					C73.5,163.4,80,156.9,88,156.9z"/>
				<rect x="77.7" y="168.4" class="st21" width="63" height="83.4"/>
				<path class="st13" d="M98.6,162.9h21.2c0.6,0,1-0.5,1-1l0,0c0-0.6-0.5-1-1-1H98.6c-0.6,0-1,0.5-1,1v0
					C97.6,162.5,98,162.9,98.6,162.9z"/>
				<path class="st13" d="M91.4,261.1H127c0.9,0,1.6-0.7,1.6-1.6l0,0c0-0.9-0.7-1.6-1.6-1.6H91.4c-0.9,0-1.6,0.7-1.6,1.6l0,0
					C89.7,260.4,90.5,261.1,91.4,261.1z"/>
				<circle class="st14" cx="109.2" cy="259.5" r="6.3"/>
				<circle class="st13" cx="109.2" cy="259.5" r="4.5"/>
			</g>
			<rect x="97.9" y="173.1" class="st25" width="22.6" height="10.5"/>
			<rect x="83.4" y="186.3" class="st25" width="51.5" height="1.8"/>
			<rect x="83.4" y="189.7" class="st14" width="51.5" height="1.8"/>
			<rect x="83.4" y="194.5" class="st23" width="13.9" height="10.5"/>
			<rect x="102.2" y="194.5" class="st22" width="13.9" height="10.5"/>
			<rect x="121" y="194.5" class="st26" width="13.9" height="10.5"/>
			<rect x="83.4" y="207.2" class="st14" width="13.9" height="1.8"/>
			<rect x="83.4" y="210.7" class="st14" width="13.9" height="1.8"/>
			<rect x="83.4" y="214.1" class="st14" width="13.9" height="1.8"/>
			<rect x="83.4" y="217.6" class="st14" width="13.9" height="1.8"/>
			<rect x="102.2" y="207.2" class="st14" width="13.9" height="1.8"/>
			<rect x="102.2" y="210.7" class="st14" width="13.9" height="1.8"/>
			<rect x="102.2" y="214.1" class="st14" width="13.9" height="1.8"/>
			<rect x="102.2" y="217.6" class="st14" width="13.9" height="1.8"/>
			<rect x="121" y="207.2" class="st14" width="13.9" height="1.8"/>
			<rect x="121" y="210.7" class="st14" width="13.9" height="1.8"/>
			<rect x="121" y="214.1" class="st14" width="13.9" height="1.8"/>
			<rect x="121" y="217.6" class="st14" width="13.9" height="1.8"/>
			<rect x="83.4" y="223" class="st25" width="51.5" height="1.8"/>
			<rect x="93.1" y="227" class="st14" width="14.9" height="1.8"/>
			<rect x="93.1" y="230.4" class="st14" width="14.9" height="1.8"/>
			<rect x="83.4" y="227" class="st22" width="7.3" height="5.4"/>
			<rect x="120" y="227" class="st14" width="14.9" height="1.8"/>
			<rect x="120" y="230.4" class="st14" width="14.9" height="1.8"/>
			<rect x="110.4" y="227" class="st26" width="7.3" height="5.4"/>
			<rect x="93.1" y="234.6" class="st14" width="14.9" height="1.8"/>
			<rect x="93.1" y="238" class="st14" width="14.9" height="1.8"/>
			<rect x="83.4" y="234.6" class="st23" width="7.3" height="5.4"/>
			<rect x="120" y="234.6" class="st14" width="14.9" height="1.8"/>
			<rect x="120" y="238" class="st14" width="14.9" height="1.8"/>
			<rect x="110.4" y="234.6" class="st22" width="7.3" height="5.4"/>
			<rect x="93.1" y="242.2" class="st14" width="14.9" height="1.8"/>
			<rect x="93.1" y="245.6" class="st14" width="14.9" height="1.8"/>
			<rect x="83.4" y="242.2" class="st26" width="7.3" height="5.4"/>
			<rect x="120" y="242.2" class="st14" width="14.9" height="1.8"/>
			<rect x="120" y="245.6" class="st14" width="14.9" height="1.8"/>
			<rect x="110.4" y="242.2" class="st23" width="7.3" height="5.4"/>
		</g>
		<g>
			<g>
				<path class="st14" d="M492.6,182.4l25,0c4.7,0,8.6,3.9,8.6,8.6v67.3c0,4.7-3.9,8.6-8.6,8.6h-25c-4.7,0-8.6-3.9-8.6-8.6l0-67.3
					C484,186.3,487.9,182.4,492.6,182.4z"/>
				<rect x="487.1" y="191.3" class="st21" width="36.1" height="64"/>
				<path class="st13" d="M497,187.1l16.3,0c0.4,0,0.8-0.4,0.8-0.8l0,0c0-0.4-0.4-0.8-0.8-0.8H497c-0.4,0-0.8,0.4-0.8,0.8l0,0
					C496.2,186.7,496.6,187.1,497,187.1z"/>
				<path class="st13" d="M491.5,262.5l27.4,0c0.7,0,1.2-0.6,1.2-1.2l0,0c0-0.7-0.6-1.2-1.2-1.2h-27.4c-0.7,0-1.2,0.6-1.2,1.2l0,0
					C490.2,261.9,490.8,262.5,491.5,262.5z"/>
				<circle class="st14" cx="505.1" cy="261.3" r="4.9"/>
				<circle class="st13" cx="505.1" cy="261.3" r="3.4"/>
			</g>
			<g>
				<path class="st23" d="M511.3,193.6c-5.4,0-9.8,3.8-9.8,8.5c0,2.8,1.6,5.3,4,6.8l-1.4,3.5l3.4-2.5c1.2,0.4,2.4,0.7,3.8,0.7
					c5.4,0,9.8-3.8,9.8-8.5C521.1,197.4,516.7,193.6,511.3,193.6z"/>
				<g>
					<circle class="st14" cx="507" cy="202.2" r="1.3"/>
					<circle class="st14" cx="511.3" cy="202.2" r="1.3"/>
					<circle class="st14" cx="515.6" cy="202.2" r="1.3"/>
				</g>
			</g>
			<g>
				<path class="st22" d="M499,213.4c5.4,0,9.8,3.8,9.8,8.5c0,2.8-1.6,5.3-4,6.8l1.4,3.5l-3.4-2.5c-1.2,0.4-2.4,0.7-3.8,0.7
					c-5.4,0-9.8-3.8-9.8-8.5C489.2,217.2,493.6,213.4,499,213.4z"/>
				<g>
					<circle class="st14" cx="503.3" cy="222" r="1.3"/>
					<circle class="st14" cx="499" cy="222" r="1.3"/>
					<circle class="st14" cx="494.7" cy="222" r="1.3"/>
				</g>
			</g>
			<g>
				<path class="st14" d="M511.3,233.9c-5.4,0-9.8,3.8-9.8,8.5c0,2.8,1.6,5.3,4,6.8l-1.4,3.5l3.4-2.5c1.2,0.4,2.4,0.7,3.8,0.7
					c5.4,0,9.8-3.8,9.8-8.5C521.1,237.7,516.7,233.9,511.3,233.9z"/>
				<g>
					<circle class="st21" cx="507" cy="242.6" r="1.3"/>
					<circle class="st21" cx="511.3" cy="242.6" r="1.3"/>
					<circle class="st21" cx="515.6" cy="242.6" r="1.3"/>
				</g>
			</g>
		</g>
		<g>
			<g>
				<path class="st14" d="M228.7,179.7v64.6c0,12.5,10.2,22.7,22.7,22.7h111.5c12.5,0,22.7-10.2,22.7-22.7v-64.6
					c0-12.5-10.2-22.7-22.7-22.7H251.4C238.9,157,228.7,167.2,228.7,179.7z"/>
				<path class="st21" d="M241.8,165.1v93.7c0,0.2,0.1,0.3,0.3,0.3h128.6c0.2,0,0.3-0.1,0.3-0.3v-93.7c0-0.2-0.1-0.3-0.3-0.3H242.2
					C242,164.8,241.8,165,241.8,165.1z"/>
				<path class="st13" d="M232.6,199.9v24.1c0,0.7,0.5,1.2,1.2,1.2h0c0.7,0,1.2-0.5,1.2-1.2v-24.1c0-0.7-0.5-1.2-1.2-1.2h0
					C233.1,198.8,232.6,199.3,232.6,199.9z"/>
				<circle class="st13" cx="378.2" cy="212" r="4"/>
			</g>
			<rect x="258.5" y="237.1" class="st5" width="97.4" height="3.2"/>
			<rect x="268.7" y="234.5" class="st23" width="2" height="8.4"/>
			<path class="st26" d="M289.7,192.6h29.7c4.2,0,7.6,3.4,7.6,7.6V213c0,4.2-3.4,7.6-7.6,7.6h-29.7c-4.2,0-7.6-3.4-7.6-7.6v-12.7
				C282,196,285.5,192.6,289.7,192.6z"/>
			<polygon class="st14" points="297.7,198.4 311.3,206.6 297.7,214.8 			"/>
			<path class="st5" d="M342.3,245.5h3.2v1.3h-1.8v1.9h-1.4V245.5L342.3,245.5z M343.8,250.1v1.9h1.8v1.3h-3.2v-3.2H343.8
				L343.8,250.1z M350.7,245.5h3.2v3.2h-1.4v-1.9h-1.8V245.5L350.7,245.5z M353.9,250.1v3.2h-3.2V252h1.8v-1.9H353.9z"/>
			<g>
				<polygon class="st5" points="311.4,245.8 307.6,247.5 305.5,247.5 305.5,251.2 307.6,251.2 311.4,252.9 				"/>
				<path class="st6" d="M313,245.5c1.1,0.4,1.8,1.3,2.2,2.3c0.2,0.5,0.3,1.1,0.3,1.6c0,0.6-0.1,1.1-0.3,1.6
					c-0.4,0.9-1.1,1.7-2.1,2.1l-0.2-0.5c0.9-0.3,1.5-1,1.8-1.8c0.2-0.4,0.3-0.9,0.3-1.4c0-0.5-0.1-1-0.2-1.4c-0.3-0.9-0.9-1.6-1.9-2
					L313,245.5z"/>
				<path class="st6" d="M313,246.8c0.3,0.2,0.6,0.5,0.8,0.8l0,0c0.3,0.5,0.5,1.1,0.5,1.7c0,0.6-0.1,1.2-0.4,1.7
					c-0.2,0.3-0.5,0.7-0.9,0.9l-0.3-0.5c0.3-0.2,0.5-0.4,0.7-0.7c0.3-0.4,0.4-0.9,0.4-1.4c0-0.5-0.2-1-0.4-1.4v0
					c-0.2-0.3-0.4-0.5-0.7-0.7L313,246.8z"/>
			</g>
			<text transform="matrix(1 0 0 1 269.4414 252.6986)" class="st6 st28 st29">0:00/2:56</text>
			<polygon class="st5" points="258.5,245.7 264.5,249.4 258.5,253 			"/>
		</g>
	</g>
</g>
</svg>
