<?xml version="1.0" encoding="utf-8"?>
<!-- Generator: Adobe Illustrator 20.1.0, SVG Export Plug-In . SVG Version: 6.00 Build 0)  -->
<svg version="1.1" id="Layer_1" xmlns="http://www.w3.org/2000/svg" xmlns:xlink="http://www.w3.org/1999/xlink" x="0px" y="0px"
	 viewBox="0 0 612 612" style="enable-background:new 0 0 612 612;" xml:space="preserve">
<style type="text/css">
	.st0{fill:#329CC6;}
	.st1{fill:#FFFFFF;}
	.st2{fill:#102F55;}
	.st3{fill:#AFD149;}
	.st4{fill:none;}
	.st5{fill:#003752;}
	.st6{fill:none;stroke:#102F55;stroke-width:3;stroke-miterlimit:10;}
	.st7{fill:#00AEC3;}
	.st8{fill:#A0A0A0;}
	.st9{fill:none;stroke:#A0A0A0;stroke-miterlimit:10;}
	.st10{fill:#52AAB9;}
	.st11{fill:#40949D;}
	.st12{fill:#60C2CD;}
	.st13{fill:#5BC5C9;}
	.st14{fill:#CBCACA;}
	.st15{fill:#CBCACA;stroke:#000000;stroke-width:0.5437;stroke-miterlimit:10;}
	.st16{fill:#020202;}
	.st17{font-family:'Arial-Black';}
	.st18{font-size:5.9423px;}
	.st19{fill:#008688;}
</style>
<g>
	<circle class="st0" cx="306" cy="306" r="306"/>
	<g>
		<path class="st1" d="M141.7,488.7c-0.6,0.3-1.8,0.6-3.3,0.6c-3.5,0-6.1-2.2-6.1-6.2c0-3.9,2.6-6.5,6.4-6.5c1.5,0,2.5,0.3,2.9,0.5
			l-0.4,1.3c-0.6-0.3-1.5-0.5-2.5-0.5c-2.9,0-4.8,1.8-4.8,5.1c0,3,1.7,5,4.7,5c1,0,2-0.2,2.6-0.5L141.7,488.7z"/>
		<path class="st1" d="M143.6,476.2h1.6v13h-1.6V476.2z"/>
		<path class="st1" d="M149.7,477.8c0,0.5-0.4,1-1,1s-1-0.4-1-1s0.4-1,1-1S149.7,477.3,149.7,477.8z M147.9,489.1v-8.8h1.6v8.8
			H147.9z"/>
		<path class="st1" d="M153.1,485c0,2.2,1.4,3.1,3,3.1c1.2,0,1.8-0.2,2.4-0.5l0.3,1.2c-0.6,0.3-1.5,0.5-2.9,0.5
			c-2.7,0-4.3-1.8-4.3-4.5s1.6-4.8,4.1-4.8c2.9,0,3.7,2.5,3.7,4.2c0,0.3,0,0.6-0.1,0.7L153.1,485L153.1,485z M157.8,483.9
			c0-1-0.4-2.6-2.2-2.6c-1.6,0-2.3,1.5-2.5,2.6H157.8z"/>
		<path class="st1" d="M161.3,482.7c0-0.9,0-1.7-0.1-2.4h1.4l0.1,1.5l0,0c0.4-0.8,1.5-1.7,2.9-1.7c1.2,0,3.1,0.7,3.1,3.8v5.3h-1.6
			v-5.1c0-1.4-0.5-2.6-2-2.6c-1.1,0-1.9,0.7-2.2,1.6c-0.1,0.2-0.1,0.5-0.1,0.7v5.3h-1.6v-6.4L161.3,482.7L161.3,482.7z"/>
		<path class="st1" d="M173.3,477.8v2.5h2.3v1.2h-2.3v4.8c0,1.1,0.3,1.7,1.2,1.7c0.4,0,0.7-0.1,0.9-0.1l0.1,1.2
			c-0.3,0.1-0.8,0.2-1.4,0.2c-0.7,0-1.4-0.2-1.7-0.7c-0.5-0.5-0.6-1.3-0.6-2.3v-4.8h-1.4v-1.2h1.4v-2.1L173.3,477.8z"/>
		<path class="st1" d="M177.2,487.5c0.5,0.3,1.3,0.6,2.1,0.6c1.2,0,1.7-0.6,1.7-1.3c0-0.8-0.5-1.2-1.6-1.6c-1.6-0.6-2.3-1.4-2.3-2.5
			c0-1.4,1.2-2.6,3-2.6c0.9,0,1.7,0.3,2.2,0.5l-0.4,1.2c-0.3-0.2-1-0.5-1.8-0.5c-1,0-1.5,0.5-1.5,1.2s0.5,1.1,1.7,1.5
			c1.5,0.6,2.3,1.4,2.3,2.7c0,1.6-1.2,2.6-3.3,2.6c-1,0-1.9-0.2-2.5-0.6L177.2,487.5z"/>
		<path class="st1" d="M186.5,477.8c0,0.5-0.4,1-1,1s-1-0.4-1-1s0.4-1,1-1S186.5,477.3,186.5,477.8z M184.7,489.1v-8.8h1.6v8.8
			H184.7z"/>
		<path class="st1" d="M196.6,476.2v10.7c0,0.8,0,1.7,0.1,2.3h-1.4l-0.1-1.5l0,0c-0.5,1-1.6,1.7-3,1.7c-2.1,0-3.8-1.8-3.8-4.5
			c0-2.9,1.8-4.7,4-4.7c1.4,0,2.3,0.6,2.7,1.4l0,0v-5.3h1.5V476.2z M195,483.9c0-0.2,0-0.5-0.1-0.7c-0.2-1-1.1-1.9-2.3-1.9
			c-1.7,0-2.6,1.5-2.6,3.4c0,1.8,0.9,3.3,2.6,3.3c1.1,0,2.1-0.7,2.4-1.9c0.1-0.2,0.1-0.4,0.1-0.7L195,483.9L195,483.9z"/>
		<path class="st1" d="M200.1,485c0,2.2,1.4,3.1,3,3.1c1.2,0,1.8-0.2,2.4-0.5l0.3,1.2c-0.6,0.3-1.5,0.5-2.9,0.5
			c-2.7,0-4.3-1.8-4.3-4.5s1.6-4.8,4.1-4.8c2.9,0,3.7,2.5,3.7,4.2c0,0.3,0,0.6-0.1,0.7L200.1,485L200.1,485z M204.9,483.9
			c0-1-0.4-2.6-2.2-2.6c-1.6,0-2.3,1.5-2.5,2.6H204.9z"/>
		<path class="st1" d="M214.3,485.3l-1.3,3.9h-1.6l4.2-12.3h1.9l4.2,12.3H220l-1.3-3.9H214.3z M218.4,484l-1.2-3.5
			c-0.3-0.8-0.5-1.5-0.6-2.2l0,0c-0.2,0.7-0.4,1.5-0.6,2.2l-1.2,3.6h3.6V484z"/>
		<path class="st1" d="M223.4,483.2c0-1.1,0-2-0.1-2.9h1.4l0.1,1.5l0,0c0.7-1.1,1.7-1.7,3.1-1.7c2.1,0,3.7,1.8,3.7,4.5
			c0,3.2-1.9,4.7-4,4.7c-1.2,0-2.2-0.5-2.7-1.4l0,0v4.8h-1.6v-9.5H223.4z M225,485.5c0,0.2,0,0.5,0.1,0.7c0.3,1.1,1.3,1.9,2.4,1.9
			c1.7,0,2.7-1.4,2.7-3.4c0-1.8-0.9-3.3-2.6-3.3c-1.1,0-2.1,0.8-2.4,2c-0.1,0.2-0.1,0.4-0.1,0.7L225,485.5L225,485.5z"/>
		<path class="st1" d="M233.8,483.2c0-1.1,0-2-0.1-2.9h1.4l0.1,1.5l0,0c0.7-1.1,1.7-1.7,3.1-1.7c2.1,0,3.7,1.8,3.7,4.5
			c0,3.2-1.9,4.7-4,4.7c-1.2,0-2.2-0.5-2.7-1.4l0,0v4.8h-1.6v-9.5H233.8z M235.4,485.5c0,0.2,0,0.5,0.1,0.7c0.3,1.1,1.3,1.9,2.4,1.9
			c1.7,0,2.7-1.4,2.7-3.4c0-1.8-0.9-3.3-2.6-3.3c-1.1,0-2.1,0.8-2.4,2c-0.1,0.2-0.1,0.4-0.1,0.7L235.4,485.5L235.4,485.5z"/>
		<path class="st1" d="M244.2,476.2h1.6v13h-1.6V476.2z"/>
		<path class="st1" d="M250.3,477.8c0,0.5-0.4,1-1,1s-1-0.4-1-1s0.4-1,1-1C249.9,476.8,250.3,477.3,250.3,477.8z M248.5,489.1v-8.8
			h1.6v8.8H248.5z"/>
		<path class="st1" d="M259.1,488.8c-0.4,0.2-1.4,0.5-2.5,0.5c-2.7,0-4.4-1.8-4.4-4.5s1.9-4.7,4.7-4.7c0.9,0,1.8,0.2,2.2,0.5
			l-0.4,1.2c-0.4-0.2-1-0.4-1.9-0.4c-2,0-3.1,1.5-3.1,3.3c0,2,1.3,3.3,3.1,3.3c0.9,0,1.5-0.2,2-0.4L259.1,488.8z"/>
		<path class="st1" d="M265.8,489.1l-0.1-1.1h-0.1c-0.5,0.7-1.4,1.3-2.7,1.3c-1.8,0-2.7-1.3-2.7-2.5c0-2.1,1.9-3.3,5.3-3.3v-0.2
			c0-0.7-0.2-2-2-2c-0.8,0-1.7,0.3-2.3,0.7l-0.4-1.1c0.7-0.5,1.8-0.8,2.9-0.8c2.7,0,3.4,1.8,3.4,3.6v3.3c0,0.8,0,1.5,0.1,2.1H265.8z
			 M265.6,484.6c-1.8,0-3.7,0.3-3.7,2c0,1,0.7,1.5,1.5,1.5c1.2,0,1.9-0.7,2.1-1.5c0.1-0.2,0.1-0.3,0.1-0.5V484.6z"/>
		<path class="st1" d="M271.6,477.8v2.5h2.3v1.2h-2.3v4.8c0,1.1,0.3,1.7,1.2,1.7c0.4,0,0.7-0.1,0.9-0.1l0.1,1.2
			c-0.3,0.1-0.8,0.2-1.4,0.2c-0.7,0-1.4-0.2-1.7-0.7c-0.5-0.5-0.6-1.3-0.6-2.3v-4.8h-1.4v-1.2h1.4v-2.1L271.6,477.8z"/>
		<path class="st1" d="M277.5,477.8c0,0.5-0.4,1-1,1s-1-0.4-1-1s0.4-1,1-1S277.5,477.3,277.5,477.8z M275.7,489.1v-8.8h1.6v8.8
			H275.7z"/>
		<path class="st1" d="M288,484.7c0,3.3-2.3,4.7-4.4,4.7c-2.4,0-4.2-1.8-4.2-4.5c0-3,1.9-4.7,4.4-4.7C286.3,480.1,288,482,288,484.7
			z M281,484.7c0,1.9,1.1,3.4,2.7,3.4c1.5,0,2.7-1.4,2.7-3.4c0-1.5-0.7-3.4-2.6-3.4S281,483.1,281,484.7z"/>
		<path class="st1" d="M290,482.7c0-0.9,0-1.7-0.1-2.4h1.4l0.1,1.5l0,0c0.4-0.8,1.5-1.7,2.9-1.7c1.2,0,3.1,0.7,3.1,3.8v5.3h-1.6
			v-5.1c0-1.4-0.5-2.6-2-2.6c-1.1,0-1.9,0.7-2.2,1.6c-0.1,0.2-0.1,0.5-0.1,0.7v5.3H290V482.7z"/>
	</g>
	<g>
		<path class="st1" d="M373.2,507.1l-1.3,3.9h-1.6l4.2-12.3h1.9l4.2,12.3h-1.7l-1.3-3.9H373.2z M377.2,505.8l-1.2-3.5
			c-0.3-0.8-0.5-1.5-0.6-2.2l0,0c-0.2,0.7-0.4,1.5-0.6,2.2l-1.2,3.6h3.6L377.2,505.8L377.2,505.8z"/>
		<path class="st1" d="M389.5,508.5c0,0.9,0,1.7,0.1,2.4h-1.4l-0.1-1.4l0,0c-0.4,0.7-1.4,1.6-2.9,1.6c-1.4,0-3.1-0.8-3.1-3.9V502
			h1.6v4.9c0,1.7,0.5,2.8,2,2.8c1.1,0,1.8-0.7,2.1-1.5c0.1-0.2,0.1-0.5,0.1-0.8V502h1.6L389.5,508.5L389.5,508.5z"/>
		<path class="st1" d="M394.1,499.6v2.5h2.3v1.2h-2.3v4.8c0,1.1,0.3,1.7,1.2,1.7c0.4,0,0.7-0.1,0.9-0.1l0.1,1.2
			c-0.3,0.1-0.8,0.2-1.4,0.2c-0.7,0-1.4-0.2-1.7-0.7c-0.5-0.5-0.6-1.3-0.6-2.3v-4.8h-1.4v-1.2h1.4V500L394.1,499.6z"/>
		<path class="st1" d="M406.1,506.5c0,3.3-2.3,4.7-4.4,4.7c-2.4,0-4.2-1.8-4.2-4.5c0-3,1.9-4.7,4.4-4.7
			C404.4,501.9,406.1,503.8,406.1,506.5z M399.1,506.5c0,1.9,1.1,3.4,2.7,3.4c1.5,0,2.7-1.4,2.7-3.4c0-1.5-0.7-3.4-2.6-3.4
			S399.1,504.9,399.1,506.5z"/>
		<path class="st1" d="M408.1,504.5c0-0.9,0-1.7-0.1-2.4h1.4l0.1,1.4h0.1c0.5-0.8,1.3-1.6,2.8-1.6c1.2,0,2.1,0.7,2.5,1.8l0,0
			c0.3-0.5,0.6-0.9,1-1.2c0.5-0.4,1.1-0.6,2-0.6c1.2,0,2.9,0.8,2.9,3.8v5.2h-1.6v-5c0-1.7-0.6-2.7-1.9-2.7c-0.9,0-1.6,0.7-1.9,1.5
			c-0.1,0.2-0.1,0.5-0.1,0.8v5.5h-1.6v-5.3c0-1.4-0.6-2.4-1.8-2.4c-1,0-1.7,0.8-2,1.6c-0.1,0.2-0.1,0.5-0.1,0.8v5.3h-1.6
			L408.1,504.5L408.1,504.5z"/>
		<path class="st1" d="M428.2,510.9l-0.1-1.1H428c-0.5,0.7-1.4,1.3-2.7,1.3c-1.8,0-2.7-1.3-2.7-2.5c0-2.1,1.9-3.3,5.3-3.3v-0.2
			c0-0.7-0.2-2-2-2c-0.8,0-1.7,0.3-2.3,0.7l-0.4-1.1c0.7-0.5,1.8-0.8,2.9-0.8c2.7,0,3.4,1.8,3.4,3.6v3.3c0,0.8,0,1.5,0.1,2.1H428.2z
			 M428,506.4c-1.8,0-3.7,0.3-3.7,2c0,1,0.7,1.5,1.5,1.5c1.2,0,1.9-0.7,2.1-1.5c0.1-0.2,0.1-0.3,0.1-0.5V506.4z"/>
		<path class="st1" d="M434,499.6v2.5h2.3v1.2H434v4.8c0,1.1,0.3,1.7,1.2,1.7c0.4,0,0.7-0.1,0.9-0.1l0.1,1.2
			c-0.3,0.1-0.8,0.2-1.4,0.2c-0.7,0-1.4-0.2-1.7-0.7c-0.5-0.5-0.6-1.3-0.6-2.3v-4.8h-1.4v-1.2h1.4V500L434,499.6z"/>
		<path class="st1" d="M438.9,506.8c0,2.2,1.4,3.1,3,3.1c1.2,0,1.8-0.2,2.4-0.5l0.3,1.2c-0.6,0.3-1.5,0.5-2.9,0.5
			c-2.7,0-4.3-1.8-4.3-4.5s1.6-4.8,4.1-4.8c2.9,0,3.7,2.5,3.7,4.2c0,0.3,0,0.6-0.1,0.7L438.9,506.8L438.9,506.8z M443.6,505.7
			c0-1-0.4-2.6-2.2-2.6c-1.6,0-2.3,1.5-2.5,2.6H443.6z"/>
		<path class="st1" d="M454.8,498v10.7c0,0.8,0,1.7,0.1,2.3h-1.4l-0.1-1.5l0,0c-0.5,1-1.6,1.7-3,1.7c-2.1,0-3.8-1.8-3.8-4.5
			c0-2.9,1.8-4.7,4-4.7c1.4,0,2.3,0.6,2.7,1.4l0,0V498H454.8z M453.2,505.7c0-0.2,0-0.5-0.1-0.7c-0.2-1-1.1-1.9-2.3-1.9
			c-1.7,0-2.6,1.5-2.6,3.4c0,1.8,0.9,3.3,2.6,3.3c1.1,0,2.1-0.7,2.4-1.9c0.1-0.2,0.1-0.4,0.1-0.7v-1.5L453.2,505.7L453.2,505.7z"/>
		<path class="st1" d="M463,500h-3.7v-1.4h9.1v1.4h-3.8v11H463V500z"/>
		<path class="st1" d="M469.3,506.8c0,2.2,1.4,3.1,3,3.1c1.2,0,1.8-0.2,2.4-0.5l0.3,1.2c-0.6,0.3-1.5,0.5-2.9,0.5
			c-2.7,0-4.3-1.8-4.3-4.5s1.6-4.8,4.1-4.8c2.9,0,3.7,2.5,3.7,4.2c0,0.3,0,0.6-0.1,0.7L469.3,506.8L469.3,506.8z M474,505.7
			c0-1-0.4-2.6-2.2-2.6c-1.6,0-2.3,1.5-2.5,2.6H474z"/>
		<path class="st1" d="M477.3,509.3c0.5,0.3,1.3,0.6,2.1,0.6c1.2,0,1.7-0.6,1.7-1.3c0-0.8-0.5-1.2-1.6-1.6c-1.6-0.6-2.3-1.4-2.3-2.5
			c0-1.4,1.2-2.6,3.1-2.6c0.9,0,1.7,0.3,2.2,0.5l-0.4,1.2c-0.3-0.2-1-0.5-1.8-0.5c-0.9,0-1.5,0.5-1.5,1.2s0.5,1.1,1.7,1.5
			c1.5,0.6,2.3,1.4,2.3,2.7c0,1.6-1.2,2.6-3.3,2.6c-1,0-1.9-0.2-2.5-0.6L477.3,509.3z"/>
		<path class="st1" d="M486.7,499.6v2.5h2.3v1.2h-2.3v4.8c0,1.1,0.3,1.7,1.2,1.7c0.4,0,0.7-0.1,0.9-0.1l0.1,1.2
			c-0.3,0.1-0.8,0.2-1.4,0.2c-0.7,0-1.4-0.2-1.7-0.7c-0.5-0.5-0.6-1.3-0.6-2.3v-4.8h-1.4v-1.2h1.4V500L486.7,499.6z"/>
		<path class="st1" d="M492.6,499.6c0,0.5-0.4,1-1,1s-1-0.4-1-1s0.4-1,1-1S492.6,499.1,492.6,499.6z M490.8,510.9v-8.8h1.6v8.8
			H490.8z"/>
		<path class="st1" d="M495.1,504.5c0-0.9,0-1.7-0.1-2.4h1.4l0.1,1.5l0,0c0.4-0.8,1.5-1.7,2.9-1.7c1.2,0,3.1,0.7,3.1,3.8v5.3H501
			v-5.1c0-1.4-0.5-2.6-2-2.6c-1.1,0-1.9,0.7-2.2,1.6c-0.1,0.2-0.1,0.5-0.1,0.7v5.3h-1.6L495.1,504.5L495.1,504.5z"/>
		<path class="st1" d="M512.8,502.1c0,0.6-0.1,1.4-0.1,2.4v5.1c0,2-0.4,3.3-1.3,4c-0.9,0.8-2.1,1.1-3.2,1.1s-2.2-0.3-2.9-0.7
			l0.4-1.2c0.6,0.4,1.5,0.7,2.6,0.7c1.6,0,2.8-0.9,2.8-3.1v-1l0,0c-0.5,0.8-1.4,1.5-2.8,1.5c-2.2,0-3.8-1.9-3.8-4.3c0-3,2-4.7,4-4.7
			c1.5,0,2.4,0.8,2.8,1.5l0,0l0.1-1.3L512.8,502.1L512.8,502.1z M511.2,505.6c0-0.3,0-0.5-0.1-0.7c-0.3-0.9-1.1-1.7-2.2-1.7
			c-1.5,0-2.6,1.3-2.6,3.3c0,1.7,0.9,3.2,2.6,3.2c1,0,1.9-0.6,2.2-1.6c0.1-0.3,0.1-0.6,0.1-0.9V505.6z"/>
	</g>
	<g>
		<path class="st1" d="M385.1,72.8c0.7,0.4,1.8,0.8,2.8,0.8c1.6,0,2.6-0.9,2.6-2.1s-0.7-1.8-2.3-2.4c-2-0.7-3.3-1.8-3.3-3.5
			c0-1.9,1.6-3.3,4-3.3c1.3,0,2.2,0.3,2.7,0.6l-0.4,1.3c-0.4-0.2-1.2-0.6-2.3-0.6c-1.7,0-2.3,1-2.3,1.8c0,1.2,0.7,1.7,2.4,2.4
			c2.1,0.8,3.1,1.8,3.1,3.6c0,1.9-1.4,3.5-4.3,3.5c-1.2,0-2.5-0.3-3.1-0.8L385.1,72.8z"/>
		<path class="st1" d="M402.4,70.2c0,3.3-2.3,4.7-4.4,4.7c-2.4,0-4.2-1.8-4.2-4.5c0-3,1.9-4.7,4.4-4.7
			C400.7,65.7,402.4,67.5,402.4,70.2z M395.4,70.3c0,1.9,1.1,3.4,2.7,3.4c1.5,0,2.7-1.4,2.7-3.4c0-1.5-0.7-3.4-2.6-3.4
			S395.4,68.6,395.4,70.3z"/>
		<path class="st1" d="M404.6,74.7v-7.6h-1.2v-1.2h1.2v-0.4c0-1.2,0.3-2.4,1-3.1c0.6-0.6,1.4-0.8,2.2-0.8c0.6,0,1.1,0.1,1.4,0.3
			l-0.2,1.2c-0.2-0.1-0.6-0.2-1-0.2c-1.4,0-1.7,1.2-1.7,2.6V66h2.1v1.2h-2.1v7.6L404.6,74.7L404.6,74.7z"/>
		<path class="st1" d="M411.9,63.3v2.5h2.3V67h-2.3v4.8c0,1.1,0.3,1.7,1.2,1.7c0.4,0,0.7-0.1,0.9-0.1l0.1,1.2
			c-0.3,0.1-0.8,0.2-1.4,0.2c-0.7,0-1.4-0.2-1.7-0.7c-0.5-0.5-0.6-1.3-0.6-2.3V67H409v-1.2h1.4v-2.1L411.9,63.3z"/>
		<path class="st1" d="M416.8,65.9l1.2,4.5c0.3,1,0.5,1.9,0.7,2.8h0.1c0.2-0.9,0.5-1.8,0.8-2.8l1.4-4.5h1.4l1.4,4.4
			c0.3,1.1,0.6,2,0.8,2.9h0.1c0.1-0.9,0.4-1.8,0.7-2.9l1.3-4.4h1.6l-2.8,8.8H424l-1.4-4.2c-0.3-1-0.6-1.9-0.8-2.9l0,0
			c-0.2,1.1-0.5,2-0.8,2.9l-1.4,4.2h-1.5l-2.7-8.8H416.8z"/>
		<path class="st1" d="M434.4,74.7l-0.1-1.1h-0.1c-0.5,0.7-1.4,1.3-2.7,1.3c-1.8,0-2.7-1.3-2.7-2.5c0-2.1,1.9-3.3,5.3-3.3v-0.2
			c0-0.7-0.2-2-2-2c-0.8,0-1.7,0.3-2.3,0.7l-0.4-1.1c0.7-0.5,1.8-0.8,2.9-0.8c2.7,0,3.4,1.8,3.4,3.6v3.3c0,0.8,0,1.5,0.1,2.1H434.4z
			 M434.2,70.2c-1.8,0-3.7,0.3-3.7,2c0,1,0.7,1.5,1.5,1.5c1.2,0,1.9-0.7,2.1-1.5c0.1-0.2,0.1-0.3,0.1-0.5V70.2z"/>
		<path class="st1" d="M438.3,68.6c0-1,0-1.9-0.1-2.8h1.4l0.1,1.7h0.1c0.4-1.2,1.4-1.9,2.4-1.9c0.2,0,0.3,0,0.5,0.1v1.5
			c-0.2,0-0.3-0.1-0.5-0.1c-1.1,0-1.9,0.9-2.2,2.1c0,0.2-0.1,0.5-0.1,0.7v4.7h-1.6L438.3,68.6L438.3,68.6z"/>
		<path class="st1" d="M445,70.6c0,2.2,1.4,3.1,3,3.1c1.2,0,1.8-0.2,2.4-0.5l0.3,1.2c-0.6,0.3-1.5,0.5-2.9,0.5
			c-2.7,0-4.3-1.8-4.3-4.5s1.6-4.8,4.1-4.8c2.9,0,3.7,2.5,3.7,4.2c0,0.3,0,0.6-0.1,0.7H445V70.6z M449.7,69.4c0-1-0.4-2.6-2.2-2.6
			c-1.6,0-2.3,1.5-2.5,2.6H449.7z"/>
		<path class="st1" d="M380.1,91.2c-0.1-1.7-0.2-3.8-0.2-5.3h-0.1c-0.4,1.4-0.9,3-1.6,4.7l-2.2,6h-1.2l-2-5.9
			c-0.6-1.7-1.1-3.3-1.4-4.8l0,0c0,1.5-0.1,3.6-0.2,5.4l-0.3,5.3h-1.5l0.9-12.3h2l2.1,6c0.5,1.5,0.9,2.9,1.2,4.1h0.1
			c0.3-1.2,0.7-2.6,1.3-4.1l2.2-6h2l0.8,12.3h-1.6L380.1,91.2z"/>
		<path class="st1" d="M389.3,96.6l-0.1-1.1h-0.1c-0.5,0.7-1.4,1.3-2.7,1.3c-1.8,0-2.7-1.3-2.7-2.5c0-2.1,1.9-3.3,5.3-3.3v-0.2
			c0-0.7-0.2-2-2-2c-0.8,0-1.7,0.3-2.3,0.7l-0.4-1.1c0.7-0.5,1.8-0.8,2.9-0.8c2.7,0,3.4,1.8,3.4,3.6v3.3c0,0.8,0,1.5,0.1,2.1H389.3z
			 M389.1,92.1c-1.8,0-3.7,0.3-3.7,2c0,1,0.7,1.5,1.5,1.5c1.2,0,1.9-0.7,2.1-1.5c0.1-0.2,0.1-0.3,0.1-0.5V92.1z"/>
		<path class="st1" d="M395,85.3c0,0.5-0.4,1-1,1s-1-0.4-1-1s0.4-1,1-1S395,84.7,395,85.3z M393.2,96.6v-8.8h1.6v8.8H393.2z"/>
		<path class="st1" d="M397.5,90.2c0-0.9,0-1.7-0.1-2.4h1.4l0.1,1.5l0,0c0.4-0.8,1.5-1.7,2.9-1.7c1.2,0,3.1,0.7,3.1,3.8v5.3h-1.6
			v-5.1c0-1.4-0.5-2.6-2-2.6c-1.1,0-1.9,0.7-2.2,1.6c-0.1,0.2-0.1,0.5-0.1,0.7v5.3h-1.6v-6.4C397.4,90.2,397.5,90.2,397.5,90.2z"/>
		<path class="st1" d="M409.5,85.2v2.5h2.3V89h-2.3v4.8c0,1.1,0.3,1.7,1.2,1.7c0.4,0,0.7-0.1,0.9-0.1l0.1,1.2
			c-0.3,0.1-0.8,0.2-1.4,0.2c-0.7,0-1.4-0.2-1.7-0.7c-0.5-0.5-0.6-1.3-0.6-2.3V89h-1.4v-1.2h1.4v-2.1L409.5,85.2z"/>
		<path class="st1" d="M414.4,92.5c0,2.2,1.4,3.1,3,3.1c1.2,0,1.8-0.2,2.4-0.5l0.3,1.2c-0.6,0.3-1.5,0.5-2.9,0.5
			c-2.7,0-4.3-1.8-4.3-4.5s1.6-4.8,4.1-4.8c2.9,0,3.7,2.5,3.7,4.2c0,0.3,0,0.6-0.1,0.7h-6.2V92.5z M419.1,91.3c0-1-0.4-2.6-2.2-2.6
			c-1.6,0-2.3,1.5-2.5,2.6H419.1z"/>
		<path class="st1" d="M422.7,90.2c0-0.9,0-1.7-0.1-2.4h1.4l0.1,1.5l0,0c0.4-0.8,1.5-1.7,2.9-1.7c1.2,0,3.1,0.7,3.1,3.8v5.3h-1.6
			v-5.1c0-1.4-0.5-2.6-2-2.6c-1.1,0-1.9,0.7-2.2,1.6c-0.1,0.2-0.1,0.5-0.1,0.7v5.3h-1.6v-6.4C422.6,90.2,422.7,90.2,422.7,90.2z"/>
		<path class="st1" d="M437.7,96.6l-0.1-1.1h-0.1c-0.5,0.7-1.4,1.3-2.7,1.3c-1.8,0-2.7-1.3-2.7-2.5c0-2.1,1.9-3.3,5.3-3.3v-0.2
			c0-0.7-0.2-2-2-2c-0.8,0-1.7,0.3-2.3,0.7l-0.4-1.1c0.7-0.5,1.8-0.8,2.9-0.8c2.7,0,3.4,1.8,3.4,3.6v3.3c0,0.8,0,1.5,0.1,2.1H437.7z
			 M437.4,92.1c-1.8,0-3.7,0.3-3.7,2c0,1,0.7,1.5,1.5,1.5c1.2,0,1.9-0.7,2.1-1.5c0.1-0.2,0.1-0.3,0.1-0.5V92.1z"/>
		<path class="st1" d="M441.6,90.2c0-0.9,0-1.7-0.1-2.4h1.4l0.1,1.5l0,0c0.4-0.8,1.5-1.7,2.9-1.7c1.2,0,3.1,0.7,3.1,3.8v5.3h-1.6
			v-5.1c0-1.4-0.5-2.6-2-2.6c-1.1,0-1.9,0.7-2.2,1.6c-0.1,0.2-0.1,0.5-0.1,0.7v5.3h-1.6v-6.4C441.5,90.2,441.6,90.2,441.6,90.2z"/>
		<path class="st1" d="M458,96.3c-0.4,0.2-1.4,0.5-2.5,0.5c-2.7,0-4.4-1.8-4.4-4.5s1.9-4.7,4.7-4.7c0.9,0,1.8,0.2,2.2,0.5l-0.4,1.2
			c-0.4-0.2-1-0.4-1.9-0.4c-2,0-3.1,1.5-3.1,3.3c0,2,1.3,3.3,3.1,3.3c0.9,0,1.5-0.2,2-0.4L458,96.3z"/>
		<path class="st1" d="M460.7,92.5c0,2.2,1.4,3.1,3,3.1c1.2,0,1.8-0.2,2.4-0.5l0.3,1.2c-0.6,0.3-1.5,0.5-2.9,0.5
			c-2.7,0-4.3-1.8-4.3-4.5s1.6-4.8,4.1-4.8c2.9,0,3.7,2.5,3.7,4.2c0,0.3,0,0.6-0.1,0.7h-6.2V92.5z M465.4,91.3c0-1-0.4-2.6-2.2-2.6
			c-1.6,0-2.3,1.5-2.5,2.6H465.4z"/>
	</g>
	<g>
		<g>
			<path class="st2" d="M506.5,384.2h-125c-1.7,0-3.1,1.2-3.1,2.9v86.3c0,1.7,1.4,3.3,3.1,3.3h125c1.7,0,2.8-1.6,2.8-3.3v-86.3
				C509.3,385.4,508.2,384.2,506.5,384.2z"/>
			<path class="st1" d="M502,466c0,1.9-0.5,2-2.3,2h-111c-1.8,0-3.7-0.1-3.7-2v-71.6c0-1.9,2-3.4,3.7-3.4h111c1.8,0,2.3,1.5,2.3,3.4
				V466z"/>
			<path class="st2" d="M520.4,485.8c0,0.7-0.6,1.3-1.3,1.3h-151c-0.7,0-1.3-0.6-1.3-1.3v-5c0-0.7,0.6-1.3,1.3-1.3h151
				c0.7,0,1.3,0.6,1.3,1.3V485.8z"/>
		</g>
		<path id="MobileMe_13_" class="st3" d="M299.5,191.6c0,4.9-3.9,8.9-8.8,8.9h-27.2c-4.9,0-8.8-4-8.8-8.9c0-4.4,3.2-8.1,7.4-8.8
			c-0.1-0.3-0.1-0.6-0.1-1c0-3.1,2.5-5.6,5.6-5.6c1.4,0,2.6,0.5,3.6,1.3c1.7-3.9,4-7.5,10.2-7.5c7.6,0,11.1,5.9,11.1,12.1
			c0,0.3,0,0.5,0,0.8C296.5,183.7,299.5,187.3,299.5,191.6z"/>
		<g>
			<g>
				<rect x="485" y="209" class="st4" width="4" height="4"/>
				<g>
					<circle class="st5" cx="486.9" cy="210.5" r="1.9"/>
				</g>
			</g>
			<g>
				<rect x="485" y="216" class="st4" width="4" height="3"/>
				<g>
					<circle class="st5" cx="486.9" cy="217.3" r="1.9"/>
				</g>
			</g>
			<g>
				<rect x="485" y="223" class="st4" width="4" height="3"/>
				<g>
					<circle class="st5" cx="486.9" cy="224.2" r="1.9"/>
				</g>
			</g>
			<g>
				<rect x="485" y="230" class="st4" width="4" height="3"/>
				<g>
					<circle class="st5" cx="486.8" cy="231.1" r="1.9"/>
				</g>
			</g>
			<g>
				<rect x="485" y="236" class="st4" width="4" height="4"/>
				<g>
					<circle class="st5" cx="486.8" cy="238" r="1.9"/>
				</g>
			</g>
			<g>
				<rect x="485" y="243" class="st4" width="4" height="3"/>
				<g>
					<circle class="st5" cx="486.8" cy="244.9" r="1.9"/>
				</g>
			</g>
			<g>
				<rect x="485" y="250" class="st4" width="4" height="4"/>
				<g>
					<circle class="st5" cx="486.8" cy="251.8" r="1.9"/>
				</g>
			</g>
			<g>
				<rect x="485" y="257" class="st4" width="4" height="3"/>
				<g>
					<circle class="st5" cx="486.7" cy="258.6" r="1.9"/>
				</g>
			</g>
			<g>
				<rect x="485" y="263" class="st4" width="4" height="4"/>
				<g>
					<circle class="st5" cx="486.7" cy="265.5" r="1.9"/>
				</g>
			</g>
			<g>
				<rect x="485" y="270" class="st4" width="4" height="5"/>
				<g>
					<circle class="st5" cx="486.7" cy="272.4" r="1.9"/>
				</g>
			</g>
			<g>
				<rect x="485" y="278" class="st4" width="4" height="4"/>
				<g>
					<circle class="st5" cx="486.7" cy="279.3" r="1.9"/>
				</g>
			</g>
			<g>
				<rect x="485" y="285" class="st4" width="4" height="4"/>
				<g>
					<circle class="st5" cx="486.6" cy="286.2" r="1.9"/>
				</g>
			</g>
			<g>
				<rect x="477" y="285" class="st4" width="5" height="4"/>
				<g>
					<circle class="st5" cx="479.9" cy="286.3" r="1.9"/>
				</g>
			</g>
			<g>
				<rect x="471" y="285" class="st4" width="3" height="4"/>
				<g>
					<circle class="st5" cx="473" cy="286.3" r="1.9"/>
				</g>
			</g>
			<g>
				<rect x="464" y="285" class="st4" width="4" height="4"/>
				<g>
					<circle class="st5" cx="466.1" cy="286.3" r="1.9"/>
				</g>
			</g>
			<g>
				<rect x="457" y="285" class="st4" width="3" height="4"/>
				<g>
					<circle class="st5" cx="459.3" cy="286.3" r="1.9"/>
				</g>
			</g>
			<g>
				<rect x="450" y="285" class="st4" width="4" height="4"/>
				<g>
					<circle class="st5" cx="452.4" cy="286.3" r="1.9"/>
				</g>
			</g>
			<g>
				<rect x="444" y="285" class="st4" width="3" height="4"/>
				<g>
					<circle class="st5" cx="445.5" cy="286.3" r="1.9"/>
				</g>
			</g>
			<g>
				<rect x="437" y="285" class="st4" width="5" height="4"/>
				<g>
					<circle class="st5" cx="438.6" cy="286.3" r="1.9"/>
				</g>
			</g>
			<g>
				<rect x="431" y="285" class="st4" width="2" height="4"/>
				<g>
					<circle class="st5" cx="431.7" cy="286.3" r="1.9"/>
				</g>
			</g>
			<g>
				<rect x="423" y="285" class="st4" width="4" height="4"/>
				<g>
					<circle class="st5" cx="424.8" cy="286.3" r="1.9"/>
				</g>
			</g>
			<g>
				<rect x="416" y="285" class="st4" width="4" height="4"/>
				<g>
					<circle class="st5" cx="418" cy="286.3" r="1.9"/>
				</g>
			</g>
			<g>
				<rect x="408" y="285" class="st4" width="5" height="4"/>
				<g>
					<circle class="st5" cx="411.1" cy="286.3" r="1.9"/>
				</g>
			</g>
			<g>
				<rect x="402" y="285" class="st4" width="4" height="4"/>
				<g>
					<circle class="st5" cx="404.2" cy="286.3" r="1.9"/>
				</g>
			</g>
			<g>
				<rect x="396" y="285" class="st4" width="5" height="4"/>
				<g>
					<circle class="st5" cx="397.8" cy="286.3" r="1.9"/>
				</g>
			</g>
			<g>
				<rect x="389" y="285" class="st4" width="3" height="4"/>
				<g>
					<circle class="st5" cx="390.9" cy="286.3" r="1.9"/>
				</g>
			</g>
			<g>
				<rect x="382" y="285" class="st4" width="4" height="4"/>
				<g>
					<circle class="st5" cx="384.1" cy="286.3" r="1.9"/>
				</g>
			</g>
			<g>
				<rect x="374" y="285" class="st4" width="5" height="4"/>
				<g>
					<circle class="st5" cx="377.2" cy="286.3" r="1.9"/>
				</g>
			</g>
			<g>
				<rect x="368" y="285" class="st4" width="4" height="4"/>
				<g>
					<circle class="st5" cx="370.3" cy="286.3" r="1.9"/>
				</g>
			</g>
			<g>
				<rect x="362" y="285" class="st4" width="4" height="4"/>
				<g>
					<circle class="st5" cx="363.4" cy="286.3" r="1.9"/>
				</g>
			</g>
			<g>
				<rect x="354" y="285" class="st4" width="4" height="4"/>
				<g>
					<circle class="st5" cx="355.1" cy="286.3" r="1.9"/>
				</g>
			</g>
			<g>
				<rect x="347" y="285" class="st4" width="3" height="4"/>
				<g>
					<circle class="st5" cx="348.2" cy="286.3" r="1.9"/>
				</g>
			</g>
			<g>
				<rect x="339" y="285" class="st4" width="4" height="4"/>
				<g>
					<circle class="st5" cx="341.4" cy="286.3" r="1.9"/>
				</g>
			</g>
			<g>
				<rect x="331" y="285" class="st4" width="5" height="4"/>
				<g>
					<circle class="st5" cx="334.5" cy="286.3" r="1.9"/>
				</g>
			</g>
			<g>
				<rect x="325" y="285" class="st4" width="3" height="4"/>
				<g>
					<circle class="st5" cx="327.6" cy="286.3" r="1.9"/>
				</g>
			</g>
			<g>
				<rect x="319" y="285" class="st4" width="4" height="4"/>
				<g>
					<circle class="st5" cx="320.7" cy="286.3" r="1.9"/>
				</g>
			</g>
		</g>
		<g>
			<path class="st2" d="M317.2,276.7H99.9c-3,0-6,1.7-6,4.7v149.9c0,3,3,5.2,6,5.2H181l0.1,13.9H170c-2.7,0-4.9,2.1-4.9,4.8
				c0,2.7,2.2,4.8,4.9,4.8h79.9c2.7,0,4.9-2.1,4.9-4.8c0-2.7-2.2-4.8-4.9-4.8h-11.6l-0.1-13.9h79c3,0,5.9-2.2,5.9-5.2V281.4
				C323.1,278.4,320.2,276.7,317.2,276.7z"/>
			<path class="st1" d="M315,412.3c0,3.1-2.5,5.7-5.5,5.7h-198c-3.1,0-5.5-2.5-5.5-5.7V292.7c0-3.1,2.5-5.7,5.5-5.7h198
				c3.1,0,5.5,2.5,5.5,5.7V412.3z"/>
		</g>
		<path class="st6" d="M212.6,161.7h81.6c0,0,16.3-0.6,16.3,15.9v103.8"/>
		<rect x="211" y="156" class="st2" width="3.8" height="10.2"/>
		<rect x="91.6" y="298.8" class="st2" width="5.5" height="14.7"/>
		<polygon class="st7" points="362.6,401.6 362.6,403.1 338.5,403.1 338.5,379 340,379 340,401.6 		"/>
		<polygon class="st3" points="349.3,387.4 355.4,388.9 357.5,385.3 359.5,386.5 359.6,380.5 354.3,383.4 356.2,384.6 354.7,387.2 
			348.8,385.7 342.5,392 343.6,393.1 		"/>
		<polygon class="st7" points="347.5,400.1 350.5,400.1 350.5,389.2 349.7,389 347.5,391.2 		"/>
		<polygon class="st7" points="343,394.7 343,400.1 346,400.1 346,392.7 343.6,395.2 		"/>
		<polygon class="st7" points="356.6,389.9 356.6,400.1 359.6,400.1 359.6,388.3 358.1,387.4 		"/>
		<polygon class="st7" points="355.1,400.1 355.1,390.3 352,389.6 352,400.1 		"/>
		<path class="st6" d="M382.1,427.2h-45.6c0,0-16.3,0.6-16.3-15.9v-56.4"/>
		<rect x="375.4" y="421.8" class="st2" width="5.1" height="11.5"/>
		<rect x="119.7" y="305.7" class="st7" width="178.6" height="26.7"/>
		<rect x="118" y="394" class="st8" width="136" height="9"/>
		<rect x="258" y="394" class="st8" width="39" height="9"/>
		<rect x="119.7" y="337.5" class="st3" width="39.4" height="27.4"/>
		<rect x="166.1" y="337.5" class="st3" width="39.4" height="27.4"/>
		<rect x="212.5" y="337.5" class="st3" width="39.4" height="27.4"/>
		<rect x="258.8" y="337.5" class="st3" width="39.4" height="27.4"/>
		<polygon class="st3" points="271.3,199.7 282.4,199.7 276.9,205.9 		"/>
		<polygon class="st3" points="271.3,211.1 282.4,211.1 276.9,217.4 		"/>
		<polygon class="st3" points="271.3,222.6 282.4,222.6 276.9,228.8 		"/>
		<polygon class="st3" points="288.3,399.9 277.2,399.9 282.8,393.7 		"/>
		<polygon class="st3" points="288.3,388.4 277.2,388.4 282.8,382.2 		"/>
		<polygon class="st3" points="288.3,377 277.2,377 282.8,370.8 		"/>
		<g>
			<path class="st1" d="M286.4,189.5h-0.6c-0.2,0-0.4-0.2-0.4-0.3c-0.1-0.2-0.1-0.3-0.2-0.5s-0.1-0.4,0.1-0.6l0.5-0.5
				c0.3-0.3,0.3-0.8,0-1.2l-0.7-0.7c-0.2-0.2-0.4-0.2-0.6-0.2s-0.4,0.1-0.6,0.2l-0.5,0.5c-0.1,0.1-0.2,0.1-0.3,0.1
				c-0.1,0-0.2,0-0.2,0c-0.2-0.1-0.3-0.2-0.5-0.2c-0.2-0.1-0.3-0.3-0.3-0.4V185c0-0.5-0.4-0.8-0.8-0.8h-1c-0.5,0-0.8,0.4-0.8,0.8
				v0.6c0,0.2-0.2,0.4-0.3,0.4c-0.2,0.1-0.3,0.1-0.5,0.2c-0.1,0-0.1,0-0.2,0s-0.3,0-0.3-0.1l-0.5-0.5c-0.2-0.2-0.4-0.2-0.6-0.2
				s-0.4,0.1-0.6,0.2l-0.7,0.7c-0.2,0.2-0.2,0.4-0.2,0.6c0,0.2,0.1,0.4,0.2,0.6l0.5,0.5c0.1,0.1,0.2,0.4,0.1,0.6
				c-0.1,0.2-0.2,0.3-0.2,0.5c-0.1,0.2-0.3,0.3-0.4,0.3h-0.6c-0.5,0-0.8,0.4-0.8,0.8v1c0,0.5,0.4,0.8,0.8,0.8h0.6
				c0.2,0,0.4,0.2,0.4,0.3c0.1,0.2,0.1,0.3,0.2,0.5s0.1,0.4-0.1,0.6l-0.5,0.5c-0.3,0.3-0.3,0.8,0,1.2l0.7,0.7
				c0.2,0.2,0.4,0.2,0.6,0.2s0.4-0.1,0.6-0.2l0.5-0.5c0.1-0.1,0.2-0.1,0.3-0.1c0.1,0,0.2,0,0.2,0c0.2,0.1,0.3,0.2,0.5,0.2
				c0.2,0.1,0.3,0.3,0.3,0.4v0.6c0,0.5,0.4,0.8,0.8,0.8h1c0.5,0,0.8-0.4,0.8-0.8v-0.6c0-0.2,0.2-0.4,0.3-0.4
				c0.2-0.1,0.3-0.1,0.5-0.2c0.1,0,0.1,0,0.2,0s0.3,0,0.3,0.1l0.5,0.5c0.2,0.2,0.4,0.2,0.6,0.2s0.4-0.1,0.6-0.2l0.7-0.7
				c0.3-0.3,0.3-0.8,0-1.2l-0.5-0.5c-0.1-0.1-0.2-0.4-0.1-0.6c0.1-0.2,0.2-0.3,0.2-0.5c0.1-0.2,0.3-0.3,0.4-0.3h0.6
				c0.5,0,0.8-0.4,0.8-0.8v-1C287.3,189.9,286.9,189.5,286.4,189.5z M283,190.9c0,1.3-1.1,2.4-2.4,2.4s-2.4-1.1-2.4-2.4
				c0-1.3,1.1-2.4,2.4-2.4S283,189.5,283,190.9z"/>
			<path class="st1" d="M275.6,184.3C275.6,184.2,275.7,184.2,275.6,184.3l0.4-0.1c0.3,0,0.5-0.2,0.5-0.5v-0.5
				c0-0.3-0.2-0.5-0.5-0.5h-0.3c0,0-0.1,0-0.1-0.1s-0.1-0.2-0.1-0.3v-0.1l0.2-0.2c0.2-0.2,0.2-0.6,0-0.8l-0.4-0.4
				c-0.1-0.1-0.2-0.2-0.4-0.2c-0.1,0-0.3,0.1-0.4,0.2l-0.2,0.2c0,0,0,0-0.1,0c0,0,0,0-0.1,0s-0.2-0.1-0.3-0.1l-0.1-0.1v-0.3
				c0-0.3-0.2-0.5-0.5-0.5h-0.5c-0.3,0-0.5,0.2-0.5,0.5v0.3c0,0,0,0.1-0.1,0.1s-0.2,0.1-0.3,0.1c0,0,0,0-0.1,0h-0.1l-0.2-0.2
				c-0.1-0.1-0.2-0.2-0.4-0.2c-0.1,0-0.3,0.1-0.4,0.2l-0.4,0.4c-0.2,0.2-0.2,0.6,0,0.8l0.2,0.2v0.1c0,0.1-0.1,0.2-0.1,0.3l-0.1,0.1
				h-0.3c-0.3,0-0.5,0.2-0.5,0.5v0.5c0,0.3,0.2,0.5,0.5,0.5h0.3c0,0,0.1,0,0.1,0.1s0.1,0.2,0.1,0.3v0.1l-0.2,0.2
				c-0.1,0.1-0.2,0.2-0.2,0.4c0,0.1,0.1,0.3,0.2,0.4l0.4,0.4c0.1,0.1,0.2,0.2,0.4,0.2c0.1,0,0.3-0.1,0.4-0.2l0.2-0.2c0,0,0,0,0.1,0
				c0,0,0,0,0.1,0s0.2,0.1,0.3,0.1l0.1,0.1v0.3c0,0.3,0.2,0.5,0.5,0.5h0.5c0.3,0,0.5-0.2,0.5-0.5V186c0,0,0-0.1,0.1-0.1
				s0.2-0.1,0.3-0.1c0,0,0,0,0.1,0h0.1l0.2,0.2c0.1,0.1,0.2,0.2,0.4,0.2c0.1,0,0.3-0.1,0.4-0.2l0.4-0.4c0.2-0.2,0.2-0.6,0-0.8
				l-0.2-0.2v-0.1C275.6,184.4,275.6,184.4,275.6,184.3z M274.2,183.4c0,0.6-0.5,1.1-1.1,1.1s-1.1-0.5-1.1-1.1s0.5-1.1,1.1-1.1
				C273.7,182.3,274.2,182.8,274.2,183.4z"/>
		</g>
		<line class="st9" x1="119" y1="370.5" x2="150" y2="370.5"/>
		<line class="st9" x1="119" y1="374.5" x2="150" y2="374.5"/>
		<line class="st9" x1="119" y1="377.5" x2="147" y2="377.5"/>
		<line class="st9" x1="119" y1="381.5" x2="156" y2="381.5"/>
		<line class="st9" x1="119" y1="383.5" x2="154" y2="383.5"/>
		<line class="st9" x1="119" y1="387.5" x2="161" y2="387.5"/>
		<line class="st9" x1="212" y1="370.5" x2="242" y2="370.5"/>
		<line class="st9" x1="212" y1="374.5" x2="242" y2="374.5"/>
		<line class="st9" x1="212" y1="377.5" x2="247" y2="377.5"/>
		<line class="st9" x1="212" y1="381.5" x2="254" y2="381.5"/>
		<line class="st9" x1="212" y1="383.5" x2="246" y2="383.5"/>
		<line class="st9" x1="212" y1="387.5" x2="254" y2="387.5"/>
		<line class="st9" x1="166" y1="370.5" x2="205" y2="370.5"/>
		<line class="st9" x1="166" y1="374.5" x2="200" y2="374.5"/>
		<line class="st9" x1="166" y1="377.5" x2="193" y2="377.5"/>
		<line class="st9" x1="166" y1="381.5" x2="205" y2="381.5"/>
		<line class="st9" x1="166" y1="383.5" x2="205" y2="383.5"/>
		<line class="st9" x1="166" y1="387.5" x2="205" y2="387.5"/>
		<g>
			<g>
				<path class="st1" d="M339.1,463.3l5.2-6.5c1,1.3,2.3,2.3,3.8,3l-5.2,6.5c-0.8,1-2.3,1.2-3.4,0.4
					C338.4,465.8,338.2,464.3,339.1,463.3z"/>
				<path class="st1" d="M354,459.2c5.3-0.6,9.1-5.4,8.5-10.7c-0.6-5.3-5.4-9.1-10.7-8.5c-5.3,0.6-9.1,5.4-8.5,10.7
					C344,456,348.7,459.8,354,459.2z M345.8,450.5c-0.5-4,2.4-7.5,6.3-8c4-0.5,7.5,2.4,8,6.3c0.5,4-2.4,7.5-6.3,8
					C349.8,457.3,346.2,454.4,345.8,450.5z"/>
				<path class="st1" d="M358.5,449l-1.6,0.2c-0.3-2.2-2.2-3.8-4.4-3.5l-0.2-1.6C355.4,443.7,358.1,445.9,358.5,449z"/>
			</g>
		</g>
		<g>
			<g>
				<rect x="414.9" y="405.8" class="st10" width="40.1" height="48.4"/>
				<polygon class="st11" points="463.9,448.6 455,454.2 455,405.8 463.9,396.7 				"/>
				<polygon class="st12" points="455,405.8 414.9,405.8 423,396.7 463.9,396.7 				"/>
				<rect x="418.2" y="410.8" class="st1" width="33.7" height="2.1"/>
				<rect x="424.5" y="415.4" class="st1" width="21.2" height="2.1"/>
				<rect x="424.5" y="449.7" class="st1" width="21.2" height="2.1"/>
			</g>
			<g>
				<ellipse class="st13" cx="417" cy="443.7" rx="13.5" ry="13.7"/>
				<ellipse class="st14" cx="417" cy="443.7" rx="4.9" ry="5"/>
				<ellipse class="st1" cx="417" cy="443.7" rx="3.8" ry="3.9"/>
			</g>
		</g>
		<g>
			<g>
				<path class="st15" d="M479.1,453.3h-25.9c-2.5,0-4.5-2-4.5-4.5v-23.2c0-2.5,2-4.5,4.5-4.5h25.9c2.5,0,4.5,2,4.5,4.5v23.2
					C483.7,451.2,481.6,453.3,479.1,453.3z"/>
				<rect x="450.1" y="423.7" class="st16" width="32.2" height="23.6"/>
				<text transform="matrix(0.915 0 0 1 452.4131 430.5505)" class="st1 st17 st18">&gt;_</text>
				<g>
					<ellipse class="st16" cx="451.9" cy="449.3" rx="0.4" ry="0.5"/>
					<ellipse class="st16" cx="453.5" cy="449.3" rx="0.4" ry="0.5"/>
					<ellipse class="st16" cx="455.1" cy="449.3" rx="0.4" ry="0.5"/>
					<ellipse class="st16" cx="456.6" cy="449.3" rx="0.4" ry="0.5"/>
					<ellipse class="st16" cx="458.2" cy="449.3" rx="0.4" ry="0.5"/>
					<ellipse class="st16" cx="459.8" cy="449.3" rx="0.4" ry="0.5"/>
					<ellipse class="st16" cx="461.4" cy="449.3" rx="0.4" ry="0.5"/>
					<ellipse class="st16" cx="463" cy="449.3" rx="0.4" ry="0.5"/>
					<ellipse class="st16" cx="464.5" cy="449.3" rx="0.4" ry="0.5"/>
					<ellipse class="st16" cx="466.1" cy="449.3" rx="0.4" ry="0.5"/>
					<ellipse class="st16" cx="467.7" cy="449.3" rx="0.4" ry="0.5"/>
					<ellipse class="st16" cx="469.3" cy="449.3" rx="0.4" ry="0.5"/>
					<ellipse class="st16" cx="470.8" cy="449.3" rx="0.4" ry="0.5"/>
					<ellipse class="st16" cx="472.4" cy="449.3" rx="0.4" ry="0.5"/>
					<ellipse class="st16" cx="474" cy="449.3" rx="0.4" ry="0.5"/>
					<ellipse class="st16" cx="475.6" cy="449.3" rx="0.4" ry="0.5"/>
					<ellipse class="st16" cx="477.1" cy="449.3" rx="0.4" ry="0.5"/>
					<ellipse class="st16" cx="478.7" cy="449.3" rx="0.4" ry="0.5"/>
					<ellipse class="st16" cx="480.3" cy="449.3" rx="0.4" ry="0.5"/>
				</g>
				<g>
					<ellipse class="st16" cx="452.7" cy="450.4" rx="0.4" ry="0.5"/>
					<ellipse class="st16" cx="454.3" cy="450.4" rx="0.4" ry="0.5"/>
					<ellipse class="st16" cx="455.9" cy="450.4" rx="0.4" ry="0.5"/>
					<ellipse class="st16" cx="457.4" cy="450.4" rx="0.4" ry="0.5"/>
					<ellipse class="st16" cx="459" cy="450.4" rx="0.4" ry="0.5"/>
					<ellipse class="st16" cx="460.6" cy="450.4" rx="0.4" ry="0.5"/>
					<ellipse class="st16" cx="462.2" cy="450.4" rx="0.4" ry="0.5"/>
					<ellipse class="st16" cx="463.8" cy="450.4" rx="0.4" ry="0.5"/>
					<ellipse class="st16" cx="465.3" cy="450.4" rx="0.4" ry="0.5"/>
					<ellipse class="st16" cx="466.9" cy="450.4" rx="0.4" ry="0.5"/>
					<ellipse class="st16" cx="468.5" cy="450.4" rx="0.4" ry="0.5"/>
					<ellipse class="st16" cx="470.1" cy="450.4" rx="0.4" ry="0.5"/>
					<ellipse class="st16" cx="471.6" cy="450.4" rx="0.4" ry="0.5"/>
					<ellipse class="st16" cx="473.2" cy="450.4" rx="0.4" ry="0.5"/>
					<ellipse class="st16" cx="474.8" cy="450.4" rx="0.4" ry="0.5"/>
					<ellipse class="st16" cx="476.4" cy="450.4" rx="0.4" ry="0.5"/>
					<ellipse class="st16" cx="477.9" cy="450.4" rx="0.4" ry="0.5"/>
					<ellipse class="st16" cx="479.5" cy="450.4" rx="0.4" ry="0.5"/>
				</g>
			</g>
			<g>
				<path class="st15" d="M470,465.4h-25.9c-2.5,0-4.5-2-4.5-4.5v-23.2c0-2.5,2-4.5,4.5-4.5H470c2.5,0,4.5,2,4.5,4.5v23.2
					C474.5,463.4,472.5,465.4,470,465.4z"/>
				<rect x="440.9" y="435.8" class="st16" width="32.2" height="23.6"/>
				<text transform="matrix(0.915 0 0 1 443.2383 442.6784)" class="st1 st17 st18">&gt;_</text>
				<g>
					<ellipse class="st16" cx="442.7" cy="461.4" rx="0.4" ry="0.5"/>
					<ellipse class="st16" cx="444.3" cy="461.4" rx="0.4" ry="0.5"/>
					<ellipse class="st16" cx="445.9" cy="461.4" rx="0.4" ry="0.5"/>
					<ellipse class="st16" cx="447.5" cy="461.4" rx="0.4" ry="0.5"/>
					<ellipse class="st16" cx="449" cy="461.4" rx="0.4" ry="0.5"/>
					<ellipse class="st16" cx="450.6" cy="461.4" rx="0.4" ry="0.5"/>
					<ellipse class="st16" cx="452.2" cy="461.4" rx="0.4" ry="0.5"/>
					<ellipse class="st16" cx="453.8" cy="461.4" rx="0.4" ry="0.5"/>
					<ellipse class="st16" cx="455.4" cy="461.4" rx="0.4" ry="0.5"/>
					<ellipse class="st16" cx="456.9" cy="461.4" rx="0.4" ry="0.5"/>
					<ellipse class="st16" cx="458.5" cy="461.4" rx="0.4" ry="0.5"/>
					<ellipse class="st16" cx="460.1" cy="461.4" rx="0.4" ry="0.5"/>
					<ellipse class="st16" cx="461.7" cy="461.4" rx="0.4" ry="0.5"/>
					<ellipse class="st16" cx="463.2" cy="461.4" rx="0.4" ry="0.5"/>
					<ellipse class="st16" cx="464.8" cy="461.4" rx="0.4" ry="0.5"/>
					<ellipse class="st16" cx="466.4" cy="461.4" rx="0.4" ry="0.5"/>
					<ellipse class="st16" cx="468" cy="461.4" rx="0.4" ry="0.5"/>
					<ellipse class="st16" cx="469.6" cy="461.4" rx="0.4" ry="0.5"/>
					<ellipse class="st16" cx="471.1" cy="461.4" rx="0.4" ry="0.5"/>
				</g>
				<g>
					<ellipse class="st16" cx="443.5" cy="462.6" rx="0.4" ry="0.5"/>
					<ellipse class="st16" cx="445.1" cy="462.6" rx="0.4" ry="0.5"/>
					<ellipse class="st16" cx="446.7" cy="462.6" rx="0.4" ry="0.5"/>
					<ellipse class="st16" cx="448.3" cy="462.6" rx="0.4" ry="0.5"/>
					<ellipse class="st16" cx="449.8" cy="462.6" rx="0.4" ry="0.5"/>
					<ellipse class="st16" cx="451.4" cy="462.6" rx="0.4" ry="0.5"/>
					<ellipse class="st16" cx="453" cy="462.6" rx="0.4" ry="0.5"/>
					<ellipse class="st16" cx="454.6" cy="462.6" rx="0.4" ry="0.5"/>
					<ellipse class="st16" cx="456.2" cy="462.6" rx="0.4" ry="0.5"/>
					<ellipse class="st16" cx="457.7" cy="462.6" rx="0.4" ry="0.5"/>
					<ellipse class="st16" cx="459.3" cy="462.6" rx="0.4" ry="0.5"/>
					<ellipse class="st16" cx="460.9" cy="462.6" rx="0.4" ry="0.5"/>
					<ellipse class="st16" cx="462.5" cy="462.6" rx="0.4" ry="0.5"/>
					<ellipse class="st16" cx="464" cy="462.6" rx="0.4" ry="0.5"/>
					<ellipse class="st16" cx="465.6" cy="462.6" rx="0.4" ry="0.5"/>
					<ellipse class="st16" cx="467.2" cy="462.6" rx="0.4" ry="0.5"/>
					<ellipse class="st16" cx="468.8" cy="462.6" rx="0.4" ry="0.5"/>
					<ellipse class="st16" cx="470.4" cy="462.6" rx="0.4" ry="0.5"/>
				</g>
			</g>
		</g>
		<g>
			<path class="st2" d="M491.3,104.3h-125c-1.7,0-3.1,1.2-3.1,2.9v86.3c0,1.7,1.4,3.3,3.1,3.3h125c1.7,0,2.8-1.6,2.8-3.3v-86.3
				C494.1,105.5,493,104.3,491.3,104.3z"/>
			<path class="st1" d="M487,186.1c0,1.9-0.7,1.9-2.4,1.9h-111c-1.8,0-3.6,0-3.6-1.9v-71.6c0-1.9,1.8-2.5,3.6-2.5h111
				c1.8,0,2.4,0.6,2.4,2.5V186.1z"/>
			<path class="st2" d="M505.2,205.9c0,0.7-0.6,1.3-1.3,1.3h-151c-0.7,0-1.3-0.6-1.3-1.3v-5c0-0.7,0.6-1.3,1.3-1.3h151
				c0.7,0,1.3,0.6,1.3,1.3V205.9z"/>
		</g>
		<g>
			<g>
				<rect x="401.1" y="124.7" class="st10" width="40.1" height="48.4"/>
				<polygon class="st11" points="450.1,167.4 441.2,173.1 441.2,124.7 450.1,115.5 				"/>
				<polygon class="st12" points="441.2,124.7 401.1,124.7 409.2,115.5 450.1,115.5 				"/>
				<rect x="404.4" y="129.7" class="st1" width="33.7" height="2.1"/>
				<rect x="410.7" y="134.3" class="st1" width="21.2" height="2.1"/>
				<rect x="410.7" y="168.5" class="st1" width="21.2" height="2.1"/>
			</g>
			<g>
				<ellipse class="st13" cx="403.2" cy="162.5" rx="13.5" ry="13.7"/>
				<ellipse class="st14" cx="403.2" cy="162.5" rx="4.9" ry="5"/>
				<ellipse class="st1" cx="403.2" cy="162.5" rx="3.8" ry="3.9"/>
			</g>
		</g>
		<g id="settings_2_">
			<path class="st19" d="M459.8,170.3l10.9,10c0.4,0.3,0.4,0.8,0,1.2l-6,6c-0.3,0.3-0.9,0.3-1.2,0l-9.8-10.8L459.8,170.3z
				 M438.4,159.5c0.5,0,1.1,0.2,1.5,0.6l5.1,5l3.3-3.1l-5.2-5.1c-0.3-0.3-0.6-1-0.6-1.5v-0.9c0-0.5-0.3-1.1-0.7-1.3l-4.8-3.1
				c-0.4-0.3-1-0.2-1.3,0.1l-2.4,2.4c-0.3,0.3-0.4,0.9-0.1,1.3l3.1,4.8c0.3,0.4,0.9,0.7,1.3,0.7L438.4,159.5z M472.9,157l-8.2,4.1
				l-4.7-7.6l8.5-4.5c-3.3-2.3-6.8-2.1-10-0.3c-4.2,2.4-6,7.3-4.6,11.6L434.2,180c-0.7,0.7-0.7,1.7,0,2.4l3.6,3.6
				c0.7,0.7,1.7,0.7,2.4,0l2.4-2.4l17.1-17.1c2.6,0.9,5.6,0.7,8.3-0.8C471.2,163.9,473.2,161,472.9,157z"/>
		</g>
		<g>
			<path class="st2" d="M236.1,120.5h-125c-1.7,0-3.1,1.2-3.1,2.9v86.3c0,1.7,1.4,3.3,3.1,3.3h125c1.7,0,2.8-1.6,2.8-3.3v-86.3
				C238.9,121.6,237.8,120.5,236.1,120.5z"/>
			<path class="st1" d="M231,202.2c0,1.9,0.1,2.8-1.6,2.8h-111c-1.8,0-4.4-0.9-4.4-2.8v-71.6c0-1.9,2.6-3.6,4.4-3.6h111
				c1.8,0,1.6,1.7,1.6,3.6V202.2z"/>
			<path class="st2" d="M250,222.1c0,0.7-0.6,1.3-1.3,1.3h-151c-0.7,0-1.3-0.6-1.3-1.3v-5c0-0.7,0.6-1.3,1.3-1.3h151
				c0.7,0,1.3,0.6,1.3,1.3V222.1z"/>
		</g>
		<g>
			<g>
				<rect x="141.6" y="140" class="st10" width="40.1" height="48.4"/>
				<polygon class="st11" points="190.6,182.7 181.7,188.3 181.7,140 190.6,130.8 				"/>
				<polygon class="st12" points="181.7,140 141.6,140 149.7,130.8 190.6,130.8 				"/>
				<rect x="144.9" y="145" class="st1" width="33.7" height="2.1"/>
				<rect x="151.1" y="149.6" class="st1" width="21.2" height="2.1"/>
				<rect x="151.1" y="183.8" class="st1" width="21.2" height="2.1"/>
			</g>
			<g>
				<ellipse class="st13" cx="143.7" cy="177.8" rx="13.5" ry="13.7"/>
				<ellipse class="st14" cx="143.7" cy="177.8" rx="4.9" ry="5"/>
				<ellipse class="st1" cx="143.7" cy="177.8" rx="3.8" ry="3.9"/>
			</g>
		</g>
		<g id="cogwheels_4_">
			<g id="cogwheel_4_">
				<g>
					<path class="st19" d="M201.6,184.9c0.1-0.7,0.2-1.4,0.2-2.1c0-0.7-0.1-1.4-0.2-2.1l-4.3-1.1c-0.3-1.1-0.7-2.1-1.2-3l2.3-3.8
						c-0.9-1.1-1.9-2.1-3-3l-3.8,2.3c-0.9-0.5-1.9-1-3-1.2l-1.1-4.3c-0.7-0.1-1.4-0.2-2.1-0.2c-0.7,0-1.4,0.1-2.1,0.2l-1.1,4.3
						c-1.1,0.3-2.1,0.7-3,1.2l-3.8-2.3c-1.1,0.9-2.1,1.9-3,3l2.3,3.8c-0.5,0.9-1,1.9-1.2,3l-4.3,1.1c-0.1,0.7-0.2,1.4-0.2,2.1
						c0,0.7,0.1,1.4,0.2,2.1l4.3,1.1c0.3,1.1,0.7,2.1,1.2,3l-2.3,3.8c0.9,1.1,1.9,2.1,3,3l3.8-2.3c0.9,0.5,1.9,1,3,1.2l1.1,4.3
						c0.7,0.1,1.4,0.2,2.1,0.2c0.7,0,1.4-0.1,2.1-0.2l1.1-4.3c1.1-0.3,2.1-0.7,3-1.2l3.8,2.3c1.1-0.9,2.1-1.9,3-3L196,189
						c0.5-0.9,1-1.9,1.2-3L201.6,184.9z M185.3,188.6c-3.2,0-5.8-2.6-5.8-5.8s2.6-5.8,5.8-5.8s5.8,2.6,5.8,5.8
						S188.5,188.6,185.3,188.6z"/>
				</g>
			</g>
			<path class="st19" d="M207.4,203c-0.3,0-0.7,0-1-0.1l-0.5-2.1h-0.1c-0.4-0.1-0.9-0.3-1.3-0.5h-0.1l-1.8,1.1
				c-0.6-0.5-1-0.9-1.4-1.4l1.1-1.8v-0.1c-0.2-0.4-0.4-0.8-0.5-1.3v-0.1l-2.1-0.5c0-0.4-0.1-0.7-0.1-1s0-0.7,0.1-1l2.1-0.5v-0.1
				c0.1-0.4,0.3-0.9,0.5-1.3v-0.1l-1.1-1.8c0.5-0.6,0.9-1,1.4-1.4l1.8,1.1h0.1c0.4-0.2,0.8-0.4,1.3-0.5h0.1l0.5-2.1
				c0.4,0,0.7-0.1,1-0.1s0.7,0,1,0.1l0.5,2.1h0.1c0.4,0.1,0.9,0.3,1.3,0.5h0.1l1.8-1.1c0.6,0.5,1,0.9,1.4,1.4l-1.1,1.8v0.1
				c0.2,0.4,0.4,0.8,0.5,1.3v0.1l2.1,0.5c0,0.4,0.1,0.7,0.1,1s0,0.7-0.1,1l-2.1,0.5v0.1c-0.1,0.4-0.3,0.9-0.5,1.3v0.1l1.1,1.8
				c-0.5,0.6-0.9,1-1.4,1.4l-1.8-1.1h-0.1c-0.4,0.2-0.8,0.4-1.3,0.5h-0.1l-0.5,2.1C208,203,207.7,203,207.4,203z M207.4,192.2
				c-1.6,0-3,1.3-3,3c0,1.6,1.3,3,3,3c1.6,0,3-1.3,3-3C210.3,193.5,209,192.2,207.4,192.2z"/>
		</g>
	</g>
	<g>
		<path class="st1" d="M98.8,248.1v-12.3h1.7l3.9,6.2c0.9,1.4,1.6,2.7,2.2,4l0,0c-0.1-1.6-0.2-3.1-0.2-5.1v-5.2h1.5V248h-1.6
			l-3.9-6.2c-0.9-1.4-1.7-2.8-2.3-4.1H100c0.1,1.6,0.1,3,0.1,5.1v5.3H98.8z"/>
		<path class="st1" d="M111.7,243.9c0,2.2,1.4,3.1,3,3.1c1.2,0,1.8-0.2,2.4-0.5l0.3,1.2c-0.6,0.3-1.5,0.5-2.9,0.5
			c-2.7,0-4.3-1.8-4.3-4.5s1.6-4.8,4.1-4.8c2.9,0,3.7,2.5,3.7,4.2c0,0.3,0,0.6-0.1,0.7h-6.2V243.9z M116.4,242.8
			c0-1-0.4-2.6-2.2-2.6c-1.6,0-2.3,1.5-2.5,2.6H116.4z"/>
		<path class="st1" d="M120.6,239.2l1.2,4.5c0.3,1,0.5,1.9,0.7,2.8h0.1c0.2-0.9,0.5-1.8,0.8-2.8l1.4-4.5h1.4l1.4,4.4
			c0.3,1.1,0.6,2,0.8,2.9h0.1c0.1-0.9,0.4-1.8,0.7-2.9l1.3-4.4h1.6l-2.8,8.8h-1.5l-1.4-4.2c-0.3-1-0.6-1.9-0.8-2.9l0,0
			c-0.2,1.1-0.5,2-0.8,2.9l-1.4,4.2h-1.5l-2.7-8.8H120.6z"/>
		<path class="st1" d="M137.3,235.9c1-0.1,2.1-0.3,3.4-0.3c2.3,0,3.9,0.5,5,1.5s1.7,2.4,1.7,4.4s-0.6,3.7-1.8,4.8
			c-1.2,1.2-3.1,1.8-5.4,1.8c-1.1,0-2.1-0.1-2.9-0.1V235.9z M138.9,246.8c0.4,0.1,1,0.1,1.6,0.1c3.4,0,5.2-1.9,5.2-5.2
			c0-2.9-1.6-4.7-5-4.7c-0.8,0-1.4,0.1-1.9,0.2L138.9,246.8L138.9,246.8z"/>
		<path class="st1" d="M150.4,243.9c0,2.2,1.4,3.1,3,3.1c1.2,0,1.8-0.2,2.4-0.5l0.3,1.2c-0.6,0.3-1.5,0.5-2.9,0.5
			c-2.7,0-4.3-1.8-4.3-4.5s1.6-4.8,4.1-4.8c2.9,0,3.7,2.5,3.7,4.2c0,0.3,0,0.6-0.1,0.7h-6.2V243.9z M155.1,242.8
			c0-1-0.4-2.6-2.2-2.6c-1.6,0-2.3,1.5-2.5,2.6H155.1z"/>
		<path class="st1" d="M159.2,239.2l1.7,5c0.3,0.8,0.5,1.5,0.7,2.3h0.1c0.2-0.7,0.5-1.5,0.7-2.3l1.7-5h1.7l-3.5,8.8h-1.5l-3.4-8.8
			H159.2z"/>
		<path class="st1" d="M168.1,243.9c0,2.2,1.4,3.1,3,3.1c1.2,0,1.8-0.2,2.4-0.5l0.3,1.2c-0.6,0.3-1.5,0.5-2.9,0.5
			c-2.7,0-4.3-1.8-4.3-4.5s1.6-4.8,4.1-4.8c2.9,0,3.7,2.5,3.7,4.2c0,0.3,0,0.6-0.1,0.7h-6.2V243.9z M172.8,242.8
			c0-1-0.4-2.6-2.2-2.6c-1.6,0-2.3,1.5-2.5,2.6H172.8z"/>
		<path class="st1" d="M176.4,235.1h1.6v13h-1.6V235.1z"/>
		<path class="st1" d="M188.7,243.6c0,3.3-2.3,4.7-4.4,4.7c-2.4,0-4.2-1.8-4.2-4.5c0-3,1.9-4.7,4.4-4.7
			C187,239,188.7,240.9,188.7,243.6z M181.7,243.7c0,1.9,1.1,3.4,2.7,3.4c1.5,0,2.7-1.4,2.7-3.4c0-1.5-0.7-3.4-2.6-3.4
			S181.7,242,181.7,243.7z"/>
		<path class="st1" d="M190.7,242.1c0-1.1,0-2-0.1-2.9h1.4l0.1,1.5l0,0c0.7-1.1,1.7-1.7,3.1-1.7c2.1,0,3.7,1.8,3.7,4.5
			c0,3.2-1.9,4.7-4,4.7c-1.2,0-2.2-0.5-2.7-1.4l0,0v4.8h-1.6v-9.5L190.7,242.1L190.7,242.1z M192.3,244.5c0,0.2,0,0.5,0.1,0.7
			c0.3,1.1,1.3,1.9,2.4,1.9c1.7,0,2.7-1.4,2.7-3.4c0-1.8-0.9-3.3-2.6-3.3c-1.1,0-2.1,0.8-2.4,2c-0.1,0.2-0.1,0.4-0.1,0.7
			L192.3,244.5L192.3,244.5z"/>
		<path class="st1" d="M201.1,241.6c0-0.9,0-1.7-0.1-2.4h1.4l0.1,1.4h0.1c0.5-0.8,1.3-1.6,2.8-1.6c1.2,0,2.1,0.7,2.5,1.8l0,0
			c0.3-0.5,0.6-0.9,1-1.2c0.5-0.4,1.1-0.6,2-0.6c1.2,0,2.9,0.8,2.9,3.8v5.2h-1.6v-5c0-1.7-0.6-2.7-1.9-2.7c-0.9,0-1.6,0.7-1.9,1.5
			c-0.1,0.2-0.1,0.5-0.1,0.8v5.5h-1.6v-5.3c0-1.4-0.6-2.4-1.8-2.4c-1,0-1.7,0.8-2,1.6c-0.1,0.2-0.1,0.5-0.1,0.8v5.3h-1.6
			L201.1,241.6L201.1,241.6z"/>
		<path class="st1" d="M217.2,243.9c0,2.2,1.4,3.1,3,3.1c1.2,0,1.8-0.2,2.4-0.5l0.3,1.2c-0.6,0.3-1.5,0.5-2.9,0.5
			c-2.7,0-4.3-1.8-4.3-4.5s1.6-4.8,4.1-4.8c2.9,0,3.7,2.5,3.7,4.2c0,0.3,0,0.6-0.1,0.7h-6.2V243.9z M221.9,242.8
			c0-1-0.4-2.6-2.2-2.6c-1.6,0-2.3,1.5-2.5,2.6H221.9z"/>
		<path class="st1" d="M225.5,241.6c0-0.9,0-1.7-0.1-2.4h1.4l0.1,1.5l0,0c0.4-0.8,1.5-1.7,2.9-1.7c1.2,0,3.1,0.7,3.1,3.8v5.3h-1.6
			V243c0-1.4-0.5-2.6-2-2.6c-1.1,0-1.9,0.7-2.2,1.6c-0.1,0.2-0.1,0.5-0.1,0.7v5.3h-1.6v-6.4H225.5z"/>
		<path class="st1" d="M237.5,236.7v2.5h2.3v1.2h-2.3v4.8c0,1.1,0.3,1.7,1.2,1.7c0.4,0,0.7-0.1,0.9-0.1l0.1,1.2
			c-0.3,0.1-0.8,0.2-1.4,0.2c-0.7,0-1.4-0.2-1.7-0.7c-0.5-0.5-0.6-1.3-0.6-2.3v-4.8h-1.4v-1.2h1.4v-2.1L237.5,236.7z"/>
	</g>
</g>
</svg>
