<?xml version="1.0" encoding="utf-8"?>
<!-- Generator: Adobe Illustrator 20.0.0, SVG Export Plug-In . SVG Version: 6.00 Build 0)  -->
<svg version="1.1" id="Layer_1" xmlns="http://www.w3.org/2000/svg" xmlns:xlink="http://www.w3.org/1999/xlink" x="0px" y="0px"
	 viewBox="0 0 612 612" style="enable-background:new 0 0 612 612;" xml:space="preserve">
<style type="text/css">
	.st0{fill:#575757;}
	.st1{opacity:0.5;clip-path:url(#SVGID_2_);enable-background:new    ;}
	.st2{opacity:0.5;fill:#F17AA9;enable-background:new    ;}
	.st3{opacity:0.2;clip-path:url(#SVGID_5_);}
	.st4{fill:#FFFFFF;}
	.st5{clip-path:url(#SVGID_7_);fill:#F17AA9;}
	.st6{fill:#FFD135;}
	.st7{clip-path:url(#SVGID_9_);}
	.st8{clip-path:url(#SVGID_11_);}
	.st9{fill:#FFFFFF;stroke:#000000;stroke-width:2;stroke-miterlimit:10;}
	.st10{font-family:'Arial-Black';}
	.st11{font-size:13.9493px;}
	.st12{fill:#020202;}
	.st13{fill:#78909C;}
	.st14{fill:#546E7A;}
	.st15{opacity:0.3;fill:#78909C;enable-background:new    ;}
	.st16{opacity:0.89;fill:#78909C;enable-background:new    ;}
	.st17{fill:none;stroke:#FFFFFF;stroke-width:2;stroke-miterlimit:10;}
</style>
<g>
	<polygon class="st0" points="315.4,259.3 328.6,268 315.4,276.5 315.4,271.5 226.5,271.5 226.5,265.2 315.4,265.2 	"/>
	<g>
		<g>
			<defs>
				<circle id="SVGID_1_" cx="306" cy="306" r="306"/>
			</defs>
			<clipPath id="SVGID_2_">
				<use xlink:href="#SVGID_1_"  style="overflow:visible;"/>
			</clipPath>
			<g class="st1">
				<g>
					<circle id="SVGID_3_" class="st2" cx="306" cy="306" r="306"/>
				</g>
			</g>
		</g>
		<g>
			<defs>
				<circle id="SVGID_4_" cx="306" cy="306" r="306"/>
			</defs>
			<clipPath id="SVGID_5_">
				<use xlink:href="#SVGID_4_"  style="overflow:visible;"/>
			</clipPath>
			<g class="st3">
				<path class="st4" d="M582,343.8c-0.7-1.7-2.1-3.4-2.9-4.9c-0.8-1.3-1.7-2.7-2.7-3.4s-1-2.9-2.2-5s-3.1-2.4-3.7-2.9
					s-0.2-1.8-0.4-3.2c-0.1-1.3-1-2.4-1-2.4c-0.5-0.6-0.5-2.2-0.6-3.1c-0.1-0.9-0.7-0.9-1.5-1.6c-0.7-0.7-1,0.6-1.6,0.1
					s0.1-1.7,0.1-3.1c0-1.3-0.9-1.1-1.5-2.4c-0.6-1.3-1.6-3.2-1.6-3.2c-1.1-1.5-1,2-0.8,3.4c0.1,1.5-0.6,4.7-0.5,6.6
					c0.1,1.8-0.7,5.6-1.4,6.7c-0.6,1.1-2.1-0.5-2.7-1.8c-0.6-1.3-2.4-1.8-3.8-2.9s-2.1-2.7-1.8-4.3c0.2-1.5,1.1-1.6,1.2-3.8
					c0.1-2.2-2.9-1.1-4.4-1.1c-1.3,0-3.8,0.2-4.8,0.6c-0.8,0.4-3.4,1.5-3.9,2.7c-0.5,1.2-1.1,3.2-2.1,3.4c-1,0.3-1.8-1.5-2.8-2.1
					s-2,0.2-2.5,0.9c-0.5,0.6-3.3,3.7-4.4,4.5s-2.6,1.9-2.9,3.7c-0.4,1.7-1.5,3.2-2.8,4.5c-1.3,1.2-5.4,1-8.2,3
					c-2.8,2.1-4.7,3.2-5.2,6.2s0,7.9,0.7,9.9c0.7,2,1.8,7.9,2.3,10s-0.5,6.4,1.3,8s5.7-1.6,7.1-1.8c1.3-0.2,7.2-1.7,8.9-2.7
					s5.2-2.6,8-2.4c2.8,0.1,7.3-0.1,9.5,1s1.5,3.9,3.4,5.1c1.9,1.1,3.2-2.8,3.2-2.8s0.2,1.8,1.1,3.3c0.9,1.5,1.5,2.7,2.7,3.7
					s0.9,4.5,2.4,6c1.6,1.5,4.6,2,5.7,1.5s2.1-1.2,2.6-0.5c0.5,0.7,1.6,2.2,3.3,1.7c1.7-0.5,1.5-2.8,1.5-2.8s2.2-0.3,3.9-1.5
					c1.7-1.2,0-1.6,0.6-3.8c0.6-2.2,1.8-5.6,3-8.2c1.2-2.6,2.3-2.9,3.1-5.7c0.7-2.7,0.4-5.1-0.1-6.7
					C582.7,348.2,582.7,345.5,582,343.8z"/>
				<path class="st4" d="M569.7,383.6c-1.5,0.1-2.9-0.9-2.9-0.9s-0.1,4.1,0.4,5.4c0.5,1.2,2.1,2.2,3.8,2.8c1.7,0.6,2-1.3,2.6-3.4
					c0.6-2.1,0.2-3.8-0.4-4.4C572.5,382.7,571.1,383.5,569.7,383.6z"/>
				<path class="st4" d="M622.4,384.4c-0.7-0.4-1.6-1.2-1.6-1.2c-1-0.4-2.3,2.9-2.7,4.3c-0.4,1.2-2.3,3.4-3.4,4.4
					c-1.1,0.8-2.9,2.4-4.6,3.2c-1.6,0.7-2,3.4-1.2,3.3c0.7-0.1,2.4,0.4,4.4,1.1c1.8,0.7,2.4-1.1,3.3-2.3c0.9-1.2,2-2.8,3.2-4.7
					c1.2-1.8,3.3-3.3,3.9-5.3C624.4,385,623.2,384.7,622.4,384.4z"/>
				<path class="st4" d="M628.2,376.1c-0.9-0.5-2.2-2.8-2.7-3.8s-2.2-3.9-3.3-4.2c-1.1-0.2-1.1,1.3-0.1,2.8s2.6,2.3,2.4,3.7
					c-0.1,1.4,0,4.7-0.8,5.1c0,0,1.3,0.9,1.7,2c0.4,1.1-0.9,2.6,0,3.2c0.9,0.6,2.3,0.4,2.8-0.9c0.5-1.2,1.1-3.2,1.8-4.3
					s2.1-1.8,1.8-2.6C631.6,376.5,629,376.6,628.2,376.1z"/>
				<path class="st4" d="M541.5,285.6c0,0,0.4,1.2,1.6,1.6s2.8-0.1,2.7,0.5c-0.1,0.6-2.1,0.5-2.2,1.2c-0.1,0.7,0.1,1.8,1.1,2.1
					c1,0.2,2.6,0,3.3,0.5s5,2.8,5.6,3.5c0.6,0.7,2.2,3.5,2.4,4.7c0.2,1.1,1.1,1.2,1.7,2.2c0.6,1,2.9,2.4,4.6,2.2
					c1.6-0.2,2.3-2.7,2.9-2.4c0.6,0.2,2.8-0.1,3.7,0.6c0.9,0.7,2.7,3.4,4.1,4.5s4.1,2.7,4.5,1.5c0.4-1.2-2.6-5.1-3.5-5.7
					c-1-0.6-2.3-2.7-2.3-3.2s1.7-0.4,1.2-1.2c-0.5-0.9-0.7-1.8-2-2.4c-1.2-0.6-2.1-2.7-3.4-3.4c-1.3-0.7-8.2-3.8-10-4.4
					s-3.7-1.2-4.1-1.2c-0.4,0-1.8,2.2-3.1,2.6c-1.2,0.4-2.3-0.5-2.7-1.5c-0.4-1,0.7-2-0.4-3.1C546.2,283.6,541.7,283,541.5,285.6z"
					/>
				<path class="st4" d="M575.2,297c0.6,0.2,2.8,0.4,4.1,0.1c1.2-0.2,3.1-1.8,3.4-2.9c0.4-1.1,0.4-2.6-0.5-3.2
					c-0.9-0.6-1.8,0-1.4,0.7c0.5,0.7-0.4,2.2-1.1,2.9c-0.7,0.7-5,0.9-5,0.9C574,295.9,574.6,296.8,575.2,297z"/>
				<path class="st4" d="M518.9,295c0.8,0.7,2.2,0.9,2.3,0.1c0.1-0.7-0.4-2.8,0.1-3.7c0.5-0.9,1-1.2,1.4-0.4c0.4,0.9,0,2.3,1,2.7
					c1,0.4,2.2,0,2.5-0.5c0.2-0.5-0.5-2.4-1.2-3.3c-0.7-0.9-2-2.1-2-2.1s1.5-0.6,2-1.2c0.5-0.6,1.9-0.7,1.9-1.2s-1-1-2.3-0.7
					c-1.3,0.2-2.6,0.4-2.6,0.4l-0.7-1c0,0-0.4-2.7,0.5-2.4c0.9,0.2,4.3,0.2,5.1,0.5c0.8,0.2,2.3-0.4,2.7-1c0.4-0.6,1.6-2.2,0.6-2.4
					c-1-0.2-2,1.1-3.2,1.3c-1.2,0.2-3.3,0-3.9-0.5s-3.5,0.9-3.7,1.8c-0.1,1,0.2,3.1,0,3.9c-0.2,0.9-0.4,2.8-0.5,4.4
					c-0.1,1.5,0.6,2.3,0.5,3.1C519.1,293.3,518,294.2,518.9,295z"/>
				<path class="st4" d="M499.5,282.2c0.4,1.2,1.1,3.1,1.1,3.1s0.6-0.5,0.9,0.4c0.3,0.9-0.1,2.1,0.7,2.7c0.9,0.6,2.3,0.4,2.8,0.7
					c0.5,0.4,1.3,0.9,2,1.1c0.6,0.2,2.3-0.5,2.3-0.5s1.1,1.1,2.3,0.9c1.2-0.3,2.2-1.7,2.7-2.7s1.1-3.2,1.3-4.1
					c0.2-0.9,0.2-1.8,0.7-2.6c0.5-0.7,1.8-0.3,1.5-1.5c-0.4-1.2-0.8-1.3-1.3-2.4c-0.5-1.1-1-2.6-1.1-3.1s-0.4-1.7,0.3-1.6
					c0.6,0.1,1.6,0.4,1.6-0.1s-0.2-1.2-0.2-1.2s0.8,0.1,1.2-0.5c0.4-0.6,0.2-0.8-0.6-1.7c-0.9-0.8-1.5-2-2.2-2.6
					c-0.7-0.6-2.3,0.4-2.7,1.2c-0.4,0.9,0.5,2.6-0.9,3.1c-1.3,0.5-2.1,0.4-2.8,1.6c-0.7,1.2-1,2.2-2.1,2.3c-1.1,0.1-2.5,1.4-2.7,1.7
					c-0.2,0.4,0,2.5-0.9,1.8c-0.9-0.6-1.8-1.6-2.7-0.9C499.9,278.1,499.1,280.9,499.5,282.2z"/>
				<path class="st4" d="M514.4,304.2c1.3,0.4,3.3,0.2,4.4,0c1-0.2-0.7-1-1.3-1.1c-0.6-0.1-2.6,0.1-3.2-0.1
					c-0.6-0.2-1.3-1.2-1.8-1.7c-0.5-0.5-1.8-1.1-2.3-1.9c-0.5-0.9-1.7-1.1-2.2-1.6s-1.7-0.5-2.9-1s-3.1,0.5-4.5,0.4
					c-1.3-0.1-1.6-1.1-2.9-1.2c-1.4-0.1-3.6,0-3.6,0c-1.5,0.7-0.9,2.1,0.1,2.7s2.8,1.7,3.4,1.7s3.3,0,4.6,0.2
					c1.2,0.2,6.5,1.6,7.8,1.7C511,302.4,513,303.8,514.4,304.2z"/>
				<path class="st4" d="M523.7,304.2c1-0.1,2.6-0.2,2.3-0.7s-5.4-1.5-5.4,0.1C520.8,303.6,522.8,304.3,523.7,304.2z"/>
				<path class="st4" d="M519.8,306.8c0.7,0.5,2.1,1.1,2.3,0.4c0.2-0.7-2.2-1.5-2.2-1.5C518.9,305.7,519,306.3,519.8,306.8z"/>
				<path class="st4" d="M493.3,294.1c0.4-1.5,1.7-3.7,1.1-4.6c-0.6-0.8-0.7-1.6-1.6-2.6c-0.8-1-1-2.3-2.1-3.4
					c-1.1-1.1-1.5-2.2-2.3-2.7c-0.9-0.5-1.7-2-2.6-2.6c-0.8-0.6-1.8-3.1-3-3.8c-1.2-0.7-2.4-2.9-3.2-3.7c-0.7-0.7-0.7-0.9-2.2-1.5
					c-1.5-0.6-2.3-1.6-3.2-1.5c-0.9,0.1-0.9,1.8,0.2,3.5c1.1,1.7,2.8,3.9,3.3,4.6c0.5,0.6,2.1,0.9,2.6,1.8c0.5,1,0.6,2,1.1,3.2
					c0.5,1.2,1.7,2.4,2.3,3.7c0.6,1.2,2.1,3.5,2.6,4.3c0.5,0.6,0.1,2.8,1.3,3.5c0,0,1.7,1.1,2.7,1.5
					C491.3,294.2,492.9,295.6,493.3,294.1z"/>
				<path class="st4" d="M531.6,260.2c-1.5,0.1-1.3,1.1-2.6,1.3c-1.2,0.3-2.2,0.3-2.9,0.3s-1.8,0.4-1.6,1.5c0.1,0.4,0.6,0.9,1.7,1.2
					c1.1,0.4,1.6,0.4,1.8,1.8c0.3,1.5,1.1,2.7,2.1,2.4c1-0.2,1.2-1.2,1.5-2.4c0.2-1.2,1.7-1.2,1.2-2.6
					C532.3,262.5,533,260.1,531.6,260.2z"/>
				<path class="st4" d="M529,307.3c0.6-0.5,1.8-1.6,3.3-2.2s1.6-1.2,1.3-1.8s-1,0-1.8,0.4s-2,0.5-2.8,1.2c-0.9,0.7-2.9,2.8-2.9,2.8
					C525.6,310.1,528.4,307.8,529,307.3z"/>
				<path class="st4" d="M521.3,243.6c0,0.7-1.3,0.3-1.3,0.3c-0.4,0.6,1,2.6,1.5,3.3c0.5,0.7,0.1,1.6,0,2.1
					c-0.1,0.5-0.9,1.5-0.1,2.1c0.7,0.6,1.4,1.7,2,1.6c0.6-0.1-0.5-1.7-0.7-2.1c-0.2-0.4,0.4-1.3,1.2-1.2c0.8,0.1,1.7,0.7,2.6,1.5
					c0.9,0.7,1.8,1.2,2.1,0.4c0.2-0.9-0.4-1.8-0.9-2.7c-0.5-0.9-1.3-0.5-1.7-0.6s-1.6,0.2-2.1-0.2c-0.5-0.5-0.5-1.8-0.6-2.8
					c-0.1-1,1.5-2.1,2.3-3.2c0.9-1.1-0.5-2.6-0.8-4.3c-0.4-1.6-1.6-0.5-2.3-0.2c-0.7,0.2-1,1.3-1,2.2
					C521.3,240.5,521.3,242.8,521.3,243.6z"/>
				<path class="st4" d="M525.6,256.1c0.1-0.6-0.5-1.7-0.5-1.7s-1.5,0-1.6,1s-0.4,2.6,0.4,2.2C524.6,257.2,525.5,256.7,525.6,256.1z
					"/>
				<path class="st4" d="M444.8,259.8c0,0-1.1,2.7-1.3,3.3c-0.2,0.6,0.1,3.5,0.9,4.9c0.7,1.2,1.8,0.5,2.8-0.2c1-0.7,1-2.1,0.2-4.6
					C446.6,260.6,444.8,259.8,444.8,259.8z"/>
				<path class="st4" d="M504.5,234.9c-0.1-0.9-1.8,0.4-3.2,1c-1.3,0.6-2.2,1.5-2.2,1.5s0.9,1.6,1.5,2.1c0.6,0.5,1.6-0.2,2.7-0.8
					C504.4,238.1,504.6,235.8,504.5,234.9z"/>
				<path class="st4" d="M524.5,225.9c0.5-1.2,0.5-2.3,0.4-3.3c-0.1-1-0.1-1.6-0.7-1.3c-0.6,0.2-2.1,2.3-2.4,3.3
					c-0.4,1-0.2,3.9-0.2,3.9S524,227.1,524.5,225.9z"/>
				<path class="st4" d="M541.7,199.9l-1.9,1.5c0,0,1.2,0.9,1,1.8c-0.2,1-1.7,2.9-0.5,3.4s1.8,0.2,2.1-0.5c0.2-0.7,1.6-2.2,0.9-3.8
					C542.4,200.8,541.7,199.9,541.7,199.9z"/>
				<path class="st4" d="M556.3,189.6c-0.8,1.2-2.2,2.9-2.9,2.9c-0.7,0-1.6-0.9-1.7-0.4c-0.1,0.5-0.1,1.8-0.7,2.7
					c-0.6,0.9-1,0.4-2.1,0.6c-1.1,0.2-2.5,0.9-3.2,1.3c-0.7,0.5-2.1,1.5-2.1,1.5s2.2,0.1,3.3-0.1c1.1-0.2,2.7,0.5,2.7,0.5
					s-0.4,2,0.7,1.6c1.1-0.4,2.3-1.5,2.3-1.5s1.7-0.1,3.1-0.9c1.3-0.7,3.1-1.2,3.4-2.4c0.4-1.2,1-3.9,1-5.1c0-1.1,0.4-2.3,0.7-2.6
					c0.4-0.2,1.9-3.2,1.3-4.3s-0.9-2.1-1.7-2.3c-0.9-0.3-1.9-0.3-2,2.2C558.4,185.9,557.1,188.2,556.3,189.6z"/>
				<path class="st4" d="M544.6,200.4c0,0,0.4,2.8,0.8,3.2c0.5,0.4,0.7-1.2,1.2-2c0.5-0.7,1.6-0.7,1.7-1.6c0.1-0.9-1-0.9-2-1
					C545.4,199,544.6,200.4,544.6,200.4z"/>
				<path class="st4" d="M561,175c-0.9,0.2-1.7,0.5-1.7,0.5s-0.9,1.2-0.7,2c0.1,0.7,0.7,1.7,0.7,1.7l1.1-0.4c0,0-0.7-1.2,0.1-1.6
					c0.8-0.4,0.8,0.4,2.2,0.5c1.3,0.1,2.6-0.6,3.7-1.2c1.1-0.6,2.8-0.2,2.7-1.1c-0.1-0.8,0.6-1.5-1.3-2.1c-2-0.6-3.2-0.7-4.3-2.2
					c-1-1.5-1-3.2-1.6-2c-0.6,1.2-0.4,1.7-0.2,2.9C561.9,173.2,561.9,174.7,561,175z"/>
				<path class="st4" d="M574,170c-0.6,0.4-1.7,1.5-1.7,1.5s3.3-1,3.4-1.8c0.1-0.9-0.4-1.6-0.4-1.6S574.6,169.6,574,170z"/>
				<path class="st4" d="M577.8,166.4c-0.6,0.1-1.1,2.1-1.1,2.1s1.5-0.4,2.6-1.6C580.4,165.7,578.4,166.3,577.8,166.4z"/>
				<path class="st4" d="M563.6,166.2l1.9,1.2c0,0-1-2.7-1-4.2c0-1.5,0.7-4.3,0.7-4.3l2-0.2c0,0-0.6-2.6-1-3.9
					c-0.4-1.3,0.1-3.4-0.4-4.7c-0.5-1.2-0.9-2.1-0.9-2.6s0.4-2.5-0.2-2.6c-0.6-0.1-1.2,1.5-1.2,2.3c0,0.9-0.7,1.1-0.7,2.9
					c0,1.8,0.1,5.1,0.1,6.3s0.1,4.6,0.1,5.6s-0.2,4.9-0.2,4.9L563.6,166.2z"/>
				<path class="st4" d="M530.1,81.9c1.2-0.2,2.9-1.3,3.1-1.8c0.1-0.5-2.1-2.3-3.8-2.2s-3.2,0.7-2.4,1.8
					C527,80,528.9,82.1,530.1,81.9z"/>
				<path class="st4" d="M565.9,78.5c-1.1-0.7-2.3-1.9-3.4-1.3c-1.1,0.6-2.3,2.7-2.3,2.7s1.4,0.5,3.5,0.6
					C565.9,80.5,567,79.2,565.9,78.5z"/>
				<path class="st4" d="M395.2,87.4c0.5,1-0.6,2.5-0.1,2.7c0.5,0.2,4.1,0,4.7,0.1c0.6,0.1,3.2-0.6,3.2-0.6s-3.3-2-3.7-3.4
					c-0.4-1.5,0.9-6.3,1.3-7.2c0.5-0.9,2.7-3.9,5.8-5.2c3.1-1.2,9-2.7,11.2-3.5c2.2-0.8,3.6-1.1,3.6-2.1s1.7-2.6-1.8-1.3
					c-3.5,1.2-7.1,2.4-9.4,2.4c-2.3,0-1.7,0.5-6,1.6c-4.2,1.1-7.4,1.8-8.6,4.4c-1.2,2.4-1,4.6-2.4,6.8c-1.5,2.2-3.4,3.1-2.6,4.5
					C391.3,87.7,394.7,86.4,395.2,87.4z"/>
				<path class="st4" d="M381,319.5c-1.9,0.8-5.6,2.3-4.4,4.8c1.2,2.3-0.4,6-2.4,8.7c-1.9,2.7,0,6.3,4.4,10.3
					c4.4,3.9,2.3-2.3,3.9-6.7s3.9-9.5,4.8-14.3c0.8-4.8-0.4-9.5-0.4-9.5S383.1,318.8,381,319.5z"/>
				<path class="st4" d="M283.7,141.5c0,0,2.4,1.6,3.5,3.1c1.2,1.6-3.5,1.6-3.5,1.6s1.2,4.8,2.4,4.8c1.2,0-3.1,4.4-3.1,4.4
					s4.8-1.6,6.4-2.4c1.6-0.8,5.6-2.3,5.6-2.3s0-2.3-0.8-4.4c-0.8-2-3.5-5.2-5.2-7.9c-1.6-2.7,1.2-6.7,1.2-6.7l-3.5,0.8
					c0,0-0.4-4.8-2-4.8s-3.1,4.8-2.7,7.5C282.1,137.9,283.7,141.5,283.7,141.5z"/>
				<path class="st4" d="M279.4,147.8c2.3-2.3,0.8-3.1,1.6-5.6c0.8-2.3-1.6-2-1.6-2l-2.7,0.4c0,0-2,2.3-2,4.8c0,2.3-1.2,3.9-0.4,5.6
					C275,152.6,277,150.2,279.4,147.8z"/>
				<path class="st4" d="M653.3,107.5c-1.3-1.3-3.2-2.9-4.7-3.1c-1.5-0.1-2.1-0.2-2.6,0.7c-0.5,1-1.5,0.4-1.3-0.2
					c0.1-0.6,0.9-1.6-0.2-2c-1.1-0.4-6-4.4-7.9-5.7c-2-1.3-1.5-2.4-3-2.9c-1.6-0.5-3.4,0.4-4.3-0.1c-0.7-0.5-1.2-1.8-2.3-2.1
					c-1.1-0.2-8.2-0.2-8.9-0.4c-0.7-0.1-0.5,0.7-0.5,2.2s0.4,3.1-1,3.2c-1.3,0.1-2.5-0.4-2.6-0.9c-0.1-0.5-0.5-2.8-1-2.9
					c-0.5-0.1-7.2,0.1-9.3,0.5c-2.1,0.4-3.3,2-3.5,2.3c-0.3,0.4-1.2-1.6-1.8-2.5c-0.6-0.8,0.9-1.9-1.1-2.9c0,0-7.3-1.7-8.8-1.7
					s-9.5,1.2-10.7,1.1c-1.2-0.1-1.1-1.8-1-2.7c0.1-0.9,0.6-2.2-1.1-2.7c-1.7-0.5-3.9,2.9-4.9,3.3c-0.9,0.4-1-1-1.6-2
					c-0.6-1-1.2-2.6-2.1-2.7c-0.9-0.1-5.1-0.5-6.7-0.5c-1.6,0-2.6,1-2.2,2.2c0.4,1.2,1.7,3.2,0.7,2.9c-1-0.2-1.6-1-2.8-0.5
					s-2,0.7-3.1,0c-1.1-0.7-2.2-1.5-2.8-1.5c-0.6,0-2.7,1.6-3.4,1.8c-0.7,0.2-2.6,0.6-2.7,1.2c-0.1,0.6,0.1,2.9-0.9,2.2
					s-2.8-2.7-4.9-3.7s-4.9-3.1-6.3-3.4c-1.5-0.4-7.2-1.8-8.9-1.8s-4.5-1.2-5.1-1.6c-0.6-0.4,1-1.5-0.7-1.8
					c-1.7-0.4-5.2-1.1-6.3-0.6s-2.3,1.1-3.2,1.2c-0.8,0.1-5.2,0.1-6.2,1c-1,0.9-1.6-1.5-1.6-1.5s0.2-1.7,1.3-2.2
					c1.1-0.5,4.5-1.2,6.3-1.7c1.8-0.5,2.3-0.6,1.9-1.7c-0.4-1.1-0.2-2.3-1-3.3c-0.7-1-1.6-3.1-3.2-3.4c-1.6-0.4-3.6,0.2-4.7,0.6
					c-1.1,0.4-2.8,0.7-2.8,0.7s0.4-1.8-1.5-2.1c-1.8-0.2-1.7-2.1-2.6-2s-4.6,0-5.9,0.7c-1.2,0.7-2.6,1.9-3,2.8
					c-0.5,0.8-2.6,0.7-2.9,1.2c-0.4,0.5-0.7,1.1-1.8,1.7c-1.1,0.6-2.9,0.9-2.9,0.9s0.9-1.6,0.4-1.8c-0.5-0.3-4.3,0.6-6.5,0.7
					c-2.2,0.1-6.6,1.3-7.7,1.8s-3.4,2.2-3.9,3.1c-0.5,0.8,0,1.7,0,2.6c0,0.9-1.7,1.3-2.7,1c-1-0.4-1.3-1.7-3.5-0.9
					c-2.2,0.9-4.6-0.1-5,2s-1.1,3.2,0,3.8s2.8-0.5,3.2,1.2c0.4,1.7-0.5,2.2-1.5,2.1c-1-0.1-2.7-1.5-4.2-2.1c-1.5-0.6-2.3-1.1-3.7,0
					c-1.3,1.1-2.7,1.6-2.8,1.9c-0.1,0.4-1.1,2.9-1.8,2.1c-0.7-0.9-1.5-2.9-2.6-2.1c-1.1,0.9-1,2.2-0.7,3.3c0.2,1.1,0,3.4,0.7,3.9
					c0.7,0.5,2.1-0.2,3.3,0c1.2,0.2,2.8,0.4,3.5,1.5s0.9,3,0.6,3.9c-0.2,0.8-1.6,1.5-1.8,0.5c-0.2-1-1.5-4.6-2.6-3.8
					c-1.1,0.7-2.8,0.6-2.6,1.9c0.2,1.4,0.2,3.2-0.6,3.8s-2.2,0.1-2.2-0.7c0-0.9,1-2.3-0.2-4.1c-1.2-1.7-1-3.7-1.3-5.6
					c-0.4-1.8-0.1-3.1,0.4-4.6c0.5-1.5,2.7-3.8,0.4-4.9c-2.3-1-6.1,0-6.3,0.8c-0.2,0.9-4.3,4.5-3.8,6.2c0.4,1.7,1.1,3.9,1.7,5.7
					c0.6,1.7,1.5,2.8,0.5,4.1c-1,1.2-3.7-3.2-5.1-3.7c-1.3-0.5-6.3-1.8-7.9-1.5c-1.6,0.4-1.1,2.6-1.5,3.2c-0.4,0.6-2.6,0.7-3.2,0.4
					c-0.6-0.4-4.5,0.1-5.3,0.2c-0.9,0.1-11.3,1.2-14.3,3.1c-2.8,1.8-2,4.3-3.9,4.3c-2,0-1.2-2-2.9-2.2c-1.7-0.2-2.7,1.2-3.4,2.1
					c-0.7,0.9-1.8,0.1-2.7,0.1s-2.8,0.7-3,1.7c-0.2,1,1.9,2.7,0.1,2.9c-1.8,0.2-7.2,2.9-8.4,2.2c-1.2-0.7-1.1-4.2-1.7-4.9
					c-0.6-0.6-2.9-2.1-3.4-2.9c-0.5-0.9,0.7-1.7,2.1-1.3c1.4,0.4,4.4,1.7,5.7,2.1c1.3,0.4,5.4-0.5,6-1.8s-0.4-3.3-2.3-4.7
					c-2-1.3-13.1-5.4-15.6-6.3c-2.4-1-8-2.2-8.9-1.8s-1.5,2.4-2.2,2c-0.7-0.5-2.1-1.2-2.9-1.1c-0.9,0.1-3.7,1.3-4.3,1.5
					c-0.5,0.1-6.4,3.1-7.4,4.7c-1,1.6-5.1,8.8-6.9,10c-1.8,1.2-4.9,6.4-6.9,7.1c-2.1,0.6-4.7,2.3-6.2,4.7c-1.5,2.3-2.3,5-2.1,6.8
					c0.3,1.8-1.3,4.5,0.7,5.2c2.1,0.7,5-1.2,6.7-1.6c1.7-0.4,3.4-0.2,3.8,0.5c0.4,0.7,1.6,4.6,2.2,5.4c0.6,0.7-0.1,2.1,1.2,2.4
					c1.3,0.4,2.7,0.4,4.4-1.6c1.6-1.9,1.6-4.4,2.3-6s3.2-3.8,2.1-5.4s-1.3-2.7-1.7-3.8s0-2.6,1.2-4.3c1.2-1.6,5.7-3.5,6.1-5
					c0.4-1.3,0.7-4.2,2.3-5c1.6-0.7,3.7-2,4.5-0.2c0.7,1.7,1.9,1.6-0.9,5.2c-2.8,3.5-4.5,1.7-3.5,5.4c0.9,3.5,2.7,6.5,3.2,7.1
					s4.7-0.4,6.2-0.6c1.5-0.2,3.4,0.5,4.5,0.5s1.6-2.6,2.6-3.2c1-0.6,2,0.1,2.4,0.7c0.5,0.6,0.4,2.4,0,2.7
					c-0.4,0.2-8.6,2.3-10.5,3.1c-1.8,0.7-5.3,0.7-5.6,1.9c-0.3,1.2,0,4.7-1.2,5.2c-1.2,0.5-1.5-2.2-2.6-0.9
					c-1.1,1.3-2.3,6.3-3.1,7.7c-0.7,1.3-2,2.2-5,2.3c-2.9,0.1-8.5,0-9.8,0.2c-1,0.2-1.8,0.2-3,0.2c-0.1-0.8-1.1-1.1-1.5-2.4
					c-0.5-1.6,0.1-2.3,0.7-4.2c0.6-1.8,0.3-2.2-0.1-3s-0.8-0.8-1.8,0.1c-0.9,1-2,1.2-2.6,2.2s0.5,3.4,1.2,5.3
					c0.4,1.1,0.3,2.4,0.1,3.2c-3.4,1.8-8.2,4.9-9.2,5.9c-1.5,1.3-5.1,2.6-5.7,4.2c-0.6,1.6-3.4,2.7-4.1,2.4
					c-0.6-0.2-0.6,0.7-1.8,1.6c-1.2,0.9-2.6-0.4-3.7,0.5c-1.1,0.9,0.1,2,1.7,4.1c1.6,2.1,3.1,2.8,3.5,4.9c0.5,2,1.5,5.5-0.7,5.3
					c-2.2-0.1-7.8-0.8-10-0.7c-2.2,0.1-3.2,2.8-3.5,3.9c-0.4,1.1-0.6,7.1-0.7,8.3s-0.7,2.8,0.9,3.9c1.6,1.1,3.5,1,4.1,1.3
					c0.5,0.4,0.2,1.2,2,1.2c1.7,0,3.4,0.6,5.2-0.4c1.7-1,4.5-3.3,4.9-4.5c0.4-1.1,1.2-3.2,1.7-4.3s3.9-4.4,4.6-5
					c0.6-0.6,0-2.2,1.3-2.8c1.4-0.6,3.4-0.5,4.6-0.7c1.1-0.2,3.5-2.7,4.4-2.9c0.7-0.2,3.5,1.8,4.1,2.7c0.5,0.8,2.9,4.6,5.6,6.7
					c2.6,2.1,3.4,2.4,3.9,3.1c0.5,0.6,0.9,1.6,0.5,2.8c-0.4,1.2-1.2,2.3-1.3,2.7c-0.1,0.4,1.6,1.3,2.3,0.2c0.7-1.1,1.2-3.7,1.2-3.7
					l-0.6-2.8c0,0,1.2,0.2,1.8,0.4c0.6,0.1,1.5-1.7-0.1-2.6c-1.6-0.9-5-1.8-5.7-2.7c-0.7-0.9-2.9-3.9-3.5-5.2
					c-0.6-1.2,0-2.8,0.4-3.2c0.4-0.4,2.3,0.1,3.2,1.2c0.9,1.1,3.2,3.4,4.3,4.5s3.5,2.2,4.1,2.8c0.5,0.6,0.1,3.3,1,3.9
					c0.9,0.6,2.9,4.3,3.5,5.6c0.6,1.3-0.1,3.7,1.4,3.3c1.5-0.4,3.8-2.1,4.3-2.4c0.4-0.4-1.1-2.3-1.7-3.8s0.8-4.2,2.3-3.9
					s4.4,0.7,4.4,0.7l2.2-2.9l0.9-3.9c0.2-1,1.8-6.2,3.4-7.2c1.6-1,3.9-1.6,5.8-1c1.8,0.6,6.2-0.7,6.6-0.9c0,0,1.5,0.4,2.1,2.2
					c0.6,1.8,2.6,5,4.3,6.8c1.6,1.8,4.9,2.1,2.8,3.9c-1.9,1.8-5.8,2.3-7.9,1.5c-2.1-0.9-3.8-3.1-6.7-1.8c-2.8,1.2-5.1,0.9-7.7,2.7
					c-2.6,1.8-4.4,2.1-4.6,4.5c-0.2,2.3-0.7,4.3,0.5,5.5c1.2,1.2,3.2,3.5,4.3,3.1c1-0.5,1.7-2.4,3.1-2.1c1.3,0.4,3.9,0.6,5.2,0.2
					c1.2-0.4,2.2,0.1,2.7,0.2s0.2,3.4,0.4,3.9c0.1,0.5-1.3,5.7-2.2,7.1c-0.9,1.3-5.5,2.4-7.1,2.4s-13.5-2.2-16.3-3.3
					c-2.8-1.1-4.9,1.3-5.5,2.9c-0.6,1.6-0.6,4.3-2.6,2.9c-2-1.2-8.7-5.5-11.1-6c-2.5-0.5-3.7-3.3-4.3-5.1s-1-5.7-1-5.7
					s-3.5-0.4-7.6,0c-3.9,0.4-11.5,3.1-13.5,3.3c-2,0.2-5.6,0.6-7.1,0.4s-2.1,1.5-2.8,2s-4.4,3.3-5.2,4.3c-0.9,0.9-0.7,4.3-0.9,6.2
					c-0.1,2-2.4,6-4.4,6.7c-1.8,0.7-6.6,8.2-7.9,11.2c-1.3,3.1-1.5,4.5-1.1,6.5s1.2,8.3,0.5,10.5c-0.7,2.2-1.5,2.8-1.1,4.7
					c0.4,1.8,1.8,4.9,3,6.8c1.2,1.9,2.3,6.1,5,9s5.8,7.4,8.9,7.5c3.1,0.1,4.7-1.1,6.7-1c2,0.1,9.5-2.1,10.6-2.7s5.4-0.1,6.7-0.1
					s0.8,2.6,2.7,3.4c1.8,0.8,5.2,0.2,6.1,1.2c0.8,1,1.2,4.4,0.5,7.1c-0.7,2.7-1.3,4.6-0.6,5.6s5.8,6.8,6.6,11.3
					c0.7,4.6,2.4,8.3,2.3,10c-0.1,1.7,0.2,5.8-1.7,9c-2,3.2-2.3,7.4-2.1,8.9c0.3,1.5,2.9,7.4,4.1,10.1c1.1,2.7,2.2,8.3,2.3,10.2
					c0.1,1.9,2.2,4.7,3.1,7.7c0.9,2.9,2.4,5.3,2.3,6.8s-1.3,4.3,0.1,5.8c1.5,1.6,4.5,1.7,7.2,1.1c2.7-0.6,6.5-1.2,8.8-2.8
					c2.3-1.6,6.1-6.1,7.9-8.5c1.8-2.4,3.1-5.6,3.3-6.9c0.2-1.3-0.5-3.9,0.7-4.6c1.2-0.6,4.5-1.7,4.7-2.4c0.2-0.7-0.5-5.8-0.9-7.2
					c-0.4-1.3,0-5.1,0.5-5.8c0.5-0.7,1.5-2.4,2.2-2.8c0.7-0.4,5.6-3.2,6.3-4.3s2-6.6,1.7-8.9c-0.2-2.3-0.8-6.5-1.2-7.4
					c-0.4-1-0.3-3.3-0.4-3.7c-0.1-0.4-0.6-2.5-1-3.1c-0.4-0.6,1.5-8,5.7-13.1c4.2-5.1,8.8-8.4,9.5-9.6c0.7-1.2,3.2-6.4,4.4-8.8
					c1.1-2.3,3.3-5.8,2.9-8c-0.4-2.2-1.7-2.3-2.7-2.1c-1,0.2-4.4,1.6-5.7,1.3c-1.3-0.2-2.6,1-4.3-0.1s-2.6-4.1-3.7-5.2
					c-1.1-1.1-4.4-5.8-5.1-7.1c-0.7-1.2,0-4.3-2.3-6.7c-2.3-2.4-1.3-4.1-2.3-6.6c-1-2.4-2.1-6.5-3.1-7.9c-1-1.5-1.6-3.5-2.8-6.2
					c0,0-1-3.2,0.4-2.8c1.3,0.4,2.9-0.2,3.9,2.4c1,2.7,4.3,6.3,5.2,9.5c1,3.2,2.9,6.4,4.3,8.3c1.2,1.8,2.9,6.6,3.4,9.2
					c0.5,2.6,0.9,5.2,1.7,6.2c0.8,1,6.1,0.4,8.4-1.2c2.3-1.6,5.8-5,8.2-6.3c2.3-1.3,5.7-3.1,7.4-5.1c1.7-1.9,2.8-3.5,3.9-5.7
					s2.8-2.7,1.4-4.3c-1.5-1.5-3.5-2.4-4.9-4.4c-1.2-1.8-2.1-2.4-2.1-2.4s-2,3.2-3.9,3.4c-2,0.2-4.9-0.4-4.9-1
					c0-0.6,0.1-2.7-0.2-2.9c-0.4-0.2-1.2-0.1-1.6-0.9c-0.4-0.7-2.9-5.7-3.3-6.6c-0.4-0.9-0.2-2.7,0.5-3.2c0.7-0.5,2.8-1,3.3-0.2
					c0.5,0.7,1.9,3.4,3.1,5.1c1.1,1.6,3.9,3.5,5.8,3.2c1.8-0.4,3.7-1.1,4.4-0.1c0.6,1,3.4,3.4,5,3.9s9.7-0.6,10.7-0.5
					c1,0.1,2.3,0.1,3.9,2.3c1.6,2.2,3.9,3.5,4.5,3.7c0.5,0.1,0.1,0.4-0.2,2.1c-0.4,1.7-0.4,3.3,1.5,3.5c1.8,0.2,3.5-3.8,3.5-3.8
					s1.2,3.4,0.9,4.5c-0.4,1,0.7,9.4,1.6,12.2c0.8,2.7,3.3,10.2,4.1,12c0.7,1.7,0.7,4.6,2.4,4.1s4.1-4.1,4.3-5.1
					c0.1-1,1.1-4.7,0.7-6.9c-0.4-2.2,0.1-4.9,0.6-5c0.5-0.1,7.3-6.7,9.6-8.3c2.3-1.6,1.8-2.7,3.7-4.3c1.8-1.5,4.7-2.1,5.8-2.7
					c1.1-0.6,2.7-0.9,3.7,0.9c1,1.7,2,3.8,2.7,4.5c0.7,0.6,2.2,3.8,1.9,5.9c-0.3,1.9-1.8,3.3-0.4,3.4c1.5,0.1,2.9-2.1,3.3-2.3
					c0.4-0.2,2.7,0.2,3,2.2c0.4,1.9,1.6,7.5,1.8,9.9c0.3,2.3,0.7,3.4,0.1,5.2c-0.6,1.7,0,3.5,1,5.2s1.6,4.3,2.1,5.5
					c0.5,1.2,0.2,4.4,1.5,5c1.2,0.6,2.1,2.8,2.9,3.1c0.9,0.2,2.1,0.4,2.1,0c0-0.4-1.2-1.6-1.1-3.8c0.1-2.2,0.7-3.4-0.7-4.6
					c-1.5-1.1-3.9-4.7-4.7-5.4c-0.7-0.6-1.8-3.5-1.8-3.9s1.2-4.4,1.3-6c0.1-1.6,0.2-3.3,0.2-3.3s1.5,0.1,2.3,1.2
					c0.9,1.1,2.4,3.1,3,3.9c0.6,0.9,1.7,1.5,2.2,2.1s0.6,2.8,0.6,3.2s0,1.5,0.7,0.7c0.7-0.7,1-1.7,0.9-2.2s-0.1-1.8-0.1-1.8
					s2,0.9,3.2,0.2c1.2-0.6,3.5-2.1,3.7-3.2c0.1-1.1,0.1-3.1-0.2-4.7c-0.4-1.6-1.2-4.4-2.2-5.7c-1-1.4-2.4-2.6-3.1-3.4
					c-0.6-0.9-1.8-2.6-1.6-3.7c0.2-1.1,1.6-3,2.3-3.8c0.7-0.7,2.4-2.4,3.4-2.6c1-0.1,1.7,0.2,1.8,1.1s0.6,2.2,1,2.3
					c0.4,0.1,0.6-1.4,0.9-1.7c0.2-0.4,2.4-1.7,3.2-2.1c0.7-0.4,2.3-1,2.6-1.3c0.2-0.4,1-1.5,1-1.5s0.2,1.3,1,1
					c0.7-0.4,2.8-0.2,3.1-1c0.2-0.7,1.6-2.1,1.6-2.1s1.6-1.7,2.8-2.3c1.2-0.6,1.8-1.2,2-2.3c0.1-1.1,0.3-2.8,1.2-4.6
					c1-1.7,2.1-4.4,2.7-5.1s0.8-1.8,0.1-2.3S523,207,523,207s-0.7-2.7-0.1-2.7s0.2-2.6-0.6-3.7c-0.9-1.1-1.9-2.6-1.8-4.3
					c0.1-1.6,2.1-3.7,2.7-4.4c0.6-0.6,4.7-0.4,2.8-1.6s-3.2-1.1-4.4-0.6c-1.1,0.5-2.2,1.7-2.8,1c-0.6-0.7-1.9-3.3-1.9-3.7
					c0-0.4,1.5-0.6,2.3-1.7c0.8-1.1,3-2.8,3.7-3.7c0.6-0.9,1.1-0.7,1.8-0.6c0.7,0.1-0.1,1.5-0.4,2.3c-0.2,0.9-1.2,2.8,0,2.4
					c1.2-0.4,3.7-1.7,4.4-1.8c0.6-0.1,2.6-0.7,2.3,0.6c-0.2,1.3-1.6,2.7-0.9,3.5c0.7,0.9,2.6,1.7,2.6,1.7l1.1-0.4
					c0,0,0.6,1.5,0.4,2.7s0,3.3-0.4,4.3c-0.4,0.8-0.9,2.2,0.2,1.8c1.1-0.4,2.9-1.6,3.3-2.1c0.4-0.5,1.3-2.2,1-4.1
					c-0.4-1.8-1.5-4.4-2.1-5.2c-0.6-0.9-0.8-2.6-0.8-2.9c0-0.4,2.2-1.6,2.9-2.7c0.7-1.1,0.4-2.2,1.2-3.4c0.8-1.2,2.7-2.4,3.3-3.1
					c0.6-0.6,1.3,0,2.1,0.4c0.7,0.4,1.5,2,2.6,0.6c1.1-1.3,6.1-7.3,7.2-8.7c1.1-1.3,2.9-5.3,3.7-6.8c0.7-1.5,1.4-4.7,1.5-5.8
					c0.1-1.1,1.2-2,0.5-4.5c-0.7-2.4-1.4-4.7-2.6-4.7c-1.2,0-1.6,1.7-3,1.6c-1.5-0.1-1.9-2.8-2.2-3.2c-0.2-0.4-2.4-0.5-2.6-0.9
					c-0.1-0.4,6.8-7.7,9.4-10.4c2.6-2.7,4.1-5.4,6.8-5.8c2.7-0.5,6.7-0.4,7.9,0.2c1.2,0.6,3.9-0.6,4.7-0.9c0.7-0.2,3.2-0.7,3.7-0.2
					s-1.5,2.6-0.5,2.9c1,0.4,3.8-0.5,5-1.2c1.1-0.7-0.6-2.6,0.5-3.7c1.1-1.1,3.5-3.4,4.9-3.8c1.2-0.4,4.4-1.1,4.9-0.6
					s0.5,2.1,1.1,2.9c0.6,0.9,3-1.5,3.6-2.2c0.6-0.7,1.1-2.2,2.1-2.9c1-0.7,2.7-0.4,3.1-0.1c0.4,0.2-1,0.6-1.6,2.7
					c-0.6,2.1-1.1,2.7-2.9,3.7c-1.8,1-4.8,4.1-5.4,5c-0.6,0.9-3.8,2.7-4.6,4.4s-0.6,3.2-1.2,3.4c-0.6,0.3-1.8,0.5-2.1,2.5
					c-0.3,2,0.6,6.6,0.7,7.7c0.1,1.1,0.5,3.5,0.7,4.9c0.2,1.2,0.1,2.7,1.1,2.3c1-0.4,2.2-1.5,2.3-2.6c0.1-1.1,0.6-2.6,1.5-2.9
					c0.9-0.4,1.2-1.6,1.5-2.6c0.2-1,1.5-1.1,2.4-2.1c1-1,0.3-2.8,0.7-4.3c0.5-1.3,2.8-0.9,2.4-2.2c-0.4-1.3,0-2.8-0.2-3.8
					c-0.3-1-0.8-2.7-0.5-3.4c0.2-0.7,2.4-4.5,2.4-4.5s2.2-0.4,3.2-1.1c1-0.7,2.4-0.4,3.2-0.6c0.7-0.2,3.3-0.2,3.9,0.2
					c0.6,0.5,0.7,2.7,1.8,2.1c1.1-0.6,1.8-3.3,3.8-4.5c2-1.1,7.6-3.5,8.8-3.7c1.2-0.1,2.7,0.9,3.3,0.1c0.6-0.7,0-1.2-0.6-2.9
					c-0.6-1.7-1.6-3.7-0.7-3.7c0.9,0,3.1,0.1,3.5-1c0.5-1.1,0.7-3.2,1-3.5c0.3-0.4,1-0.4,1.3,0.7c0.4,1.1,2,1.1,3.2,1
					c1.2-0.1,2.4,1.2,2.8,1.8c0.4,0.6,2.1,1.3,3.6,2c1.5,0.6,2.3,0,2.2-1.2c-0.1-1.2,0.4-2.1,1-2c0.6,0.1,2.1,0.5,2.4,0
					C653.3,108.9,654.6,108.9,653.3,107.5z"/>
				<path class="st4" d="M308.7,179.1c0.3,0.7,1.4,0.1,2.2-1c0.8-1.1-0.1-2.9-0.1-2.9C309.7,175,308.5,178.5,308.7,179.1z"/>
				<path class="st4" d="M309,182c0,0-0.1,3.5,0.8,4.6c1,1,1.1-0.5,1.5-1.9c0.4-1.4,0.3-2.5-0.4-3.6C310.3,179.8,309,182,309,182z"
					/>
				<path class="st4" d="M182.5,158.5c2.3,2.3,4.8,1.2,6.3,2c1.6,0.8,6.4,4.4,6,2.7c-0.4-1.6-2.4-6.4-4.4-6.7
					c-2-0.4-3.9-1.6-3.9-1.6v-3.1C186.4,151.8,180,156.1,182.5,158.5z"/>
				<path class="st4" d="M141.7,226.1c-1.5-1.2-7.5-0.8-7.5-0.8l9.5,6c0,0,5.2,1.6,7.1,2c2,0.4-0.8-1.6-1.9-2.3
					C147.6,230.1,143.3,227.3,141.7,226.1z"/>
				<path class="st4" d="M154.7,233.3c0,0,1.6,4.8,3.9,4.4c2.3-0.4,3.9-2.3,2.7-3.1C160.3,233.7,155.9,232.9,154.7,233.3z"/>
				<path class="st4" d="M171.3,107.8c1.6-2,3.5-6,3.5-6s-7.1-0.8-9.1-2.3c-2-1.6-2-5.2-2-6.3c0-1.2-0.4-4.8-3.5-6.4
					s-9.5-3.1-11.4-3.9c-2-0.8-1.2-3.5-3.1-5.2c-1.9-1.6-6.7-1.2-6.7-1.2l-4.4,0.8l-3.5,5.6l-1.2-6c0,0-3.9-0.4-5.6,2.3
					c-1.6,2.7-2.7,4.8-1.2,6.4c1.6,1.6,4.8,3.5,6.3,3.1c1.6-0.4,8.7,3.1,8.7,3.1s0.4-1.2,3.1-1.2c2.7,0,6,1.2,7.9,2.7
					c2,1.6,3.5,2,4.4,4.8c0.8,2.7,0,4.8-0.4,6.7c-0.4,2-8.3,6.4-8.3,6.4s7.5-1.6,9.1,0c1.6,1.6,2.3,4.4,5.2,5.2
					c2.2,0.6,7.7,1,8.9,1.1c-1.5-0.4-8.8-7-5.4-5.9c3.5,1.2,6.7,1.2,5.2-0.8c-1.6-2-4.4-4.4-4.4-4.4l-3.9-2l6-0.4
					C165.5,104.3,169.8,109.9,171.3,107.8z"/>
				<path class="st4" d="M168.1,117.7c0.1,0,0.1,0,0.2,0C168.4,117.8,168.3,117.8,168.1,117.7z"/>
				<path class="st4" d="M248.1,88.5c-2-1.6-2.3-3.1,0-3.5c2.3-0.4,4.4,0.4,3.9-2.3s1.6-3.5,2.4-4.8c0.8-1.2,1.2-3.9,1.2-3.9v-4.9
					c0,0,0-2-0.4-3.1c-0.4-1.2,0.4-2.7,0.8-4.4c0.4-1.6,3.9-6,3.9-6l2.7-3.9c0,0,2-2.3,3.1-2.7c1.2-0.4,3.5-2,3.5-2s-5.2-2-9.1-0.4
					c-3.9,1.6-7.9,3.5-9.9,2.7s0-3.5-1.2-3.5s-8.7,0-8.7,0s15.8-2.7,12.3-3.5c-3.5-0.8-8.3-2.3-11-3.1s-8.7-2.4-14.7-1.6
					c-6,0.8-8.7,2-11.8,2.3c-3.1,0.4-6.7,0.8-8.3,2c-1.6,1.2,0,3.9-1.2,4.8c-1.2,0.8-3.1-0.4-4.8-1.6c-1.6-1.2-4.4-0.8-4.4-0.8
					s-2,3.1-3.5,2.7c-1.6-0.4-4.4-2-4.4-2s-9.1,1.2-10.6,1.6c-1.6,0.4-1.9,3.5-4.4,3.1c-2.3-0.4-6.7,1.9-7.5,3.1
					c-0.8,1.2,3.9-0.8,3.9,1.2c0,2,0.4,4.4-1.9,3.9c-2.4-0.4-5.2-0.4-8.3,0.8c-3.1,1.2-7.5,2.7-4.8,3.1c2.7,0.4,12.7,0.8,12.7,0.8
					l-9.5,3.9l5.6,2.3c0,0,8.3-1.2,11-0.4c2.7,0.8,9.1,3.5,11,5.2c2,1.6,3.9,8.3,3.1,9.9c-0.8,1.6,3.1,0,4.8,2.3
					c1.6,2.3,1.2,3.9,0,4.8c-1.2,0.8-4.8,0.8-3.1,2.4c1.5,1.6,6,1.2,5.2,2.7c-0.8,1.6-3.9,2.3-3.9,4.4c0,2,3.1,9.5,3.9,11.4
					c0.8,2,3.9,7.1,5.2,7.9c1.2,0.8,3.9,2.7,3.9,2.7s2.3,1.2,4.8,2c2.3,0.8,3.5-6.8,4.8-9.1c1.2-2.3,9.9-11.4,12.3-12.3
					c2.4-0.8,8.7-6,8.7-6c3.1-0.4,9.5-3.5,12.7-4.8C251.3,91.2,250.1,90,248.1,88.5z"/>
				<path class="st4" d="M266.3,108.2c0.8-2.7-0.8-3.9-2.7-4.4c-2-0.4-8.3,3.9-8.3,3.9l-3.9-2c-3.5,0.8-3.9,2.3-3.5,3.9
					c0.4,1.6,6,4.4,9.5,3.9C260.7,113.4,265.5,111,266.3,108.2z"/>
				<path class="st4" d="M63.8,83.7c1.6-0.8,3.9,1.6,5.6,2.7c1.5,1.2,4.4,1.2,7.1,2.3c2.7,1.2-6,2.4-6,2.4s2.7,1.6,4.4,2.3
					c1.6,0.8,6,2.3,8.3,2.3c2.3,0,8.3-3.5,8.3-3.5s2.7,1.2,6,1.6c3.1,0.4,3.1-2.3,1.9-4.4c-1.2-2-3.1-1.2-4.8-2
					c-1.6-0.8-2.3-6-2.3-6l-3.1-3.1c0,0-1.9,2-2.7,0.4c-0.8-1.6-2.3,0.8-3.9,1.6c-1.6,0.8-3.5,1.2-6-1.6c-2.3-2.7-4.4-3.1-7.1-4.8
					c-2.7-1.6-5.2-2-8.7-1.2c-3.5,0.8-4.8,1.6-5.2,3.1c-0.4,1.6,0.4,6.7,2.7,8.7C60.6,86.9,62.2,84.5,63.8,83.7z"/>
				<path class="st4" d="M105.3,75.8c-2.3,0.4-4.4,0.4-4.4,2s0,1.6,0,1.6l-2.3,1.6c0,0,2.3,3.5,5.2,4.4c2.7,0.8,8.3-1.2,6.3-2.7
					c-2-1.6-3.9-4.4-3.9-4.4S107.6,75.4,105.3,75.8z"/>
				<path class="st4" d="M118.8,79c-0.8-2-6-2-6-2s0.4,3.5,0,6c-0.4,2.3-2.7,5.6-2.7,5.6s1.6,2,2.7,2.7c1.2,0.8,5.2-2.4,5.2-2.4
					l-3.5-3.5l1.2-3.9C115.5,81.3,119.6,80.9,118.8,79z"/>
				<path class="st4" d="M110.1,93.6c0.8-1.2-3.1-2-3.1-2s-2.7,2-1.6,2.3C106.5,94.4,109.3,94.8,110.1,93.6z"/>
				<path class="st4" d="M112.2,66.1c-1.2-0.2-2.2-0.2-2.2-0.2C110.3,66.3,111.1,66.3,112.2,66.1z"/>
				<path class="st4" d="M114,55.6c1.6,0.8,2.7,3.5,3.1,4.4c0.4,0.8,0.4,2.3,3.1,1.2c2.7-1.2,6.3-0.4,6.3-0.4s-2.7,1.6-3.9,2
					c-0.9,0.3-7.1,2.7-10.4,3.3c2,0.3,4.7,0.8,5,1.7c0.4,1.6,1.2,5.6,2.3,6c1.2,0.4,9.9-0.8,9.9-0.8s6.4-0.4,7.9-0.4
					c1.6,0,7.1-2.3,3.9-2.7c-3.1-0.4-11.4,0.4-13.1,0.4c-1.6,0-4.8-1.6-4.8-1.6s2.4-2.7,4.4-2.3c1.9,0.4,7.9,0.4,10.6-0.4
					c2.7-0.8,4.8,0,4.8-1.6c0-1.6,1.2-2,3.1-3.1c1.9-1.2,3.1-2.7,3.1-2.7c-0.4-1.9-0.8-4.4,0.8-4.4s5.6-0.8,5.6-0.8s6.4-4.4,7.5-5.2
					c1.2-0.8,4.4-1.6,6.4-2.3c2-0.8,5.2-2,5.2-2s-1.2-1.2-6.7-2.3c-5.6-1.2-11.8,2.3-15.4,2.3s-7.9-0.4-11.8,0.4
					c-3.9,0.8-7.5-1.6-11.8,0c-4.4,1.6-6.4,2-7.1,3.1c-0.8,1.2-3.1,0.8-5.6,0.8c-2.3,0-7.1,3.5-5.6,4.8
					C112.4,54.1,112.4,54.9,114,55.6z"/>
				<path class="st4" d="M112.8,69.9c0,0-3.1,2.7-2,3.1c1.2,0.4,3.5,1.2,3.5,1.2L112.8,69.9z"/>
				<path class="st4" d="M93.5,65.9c0,0,0.4,2,1.2,3.5c0.8,1.6,3.9,1.2,5.2,2.3c1.2,1.2,4.8,0.8,6.7-0.4c1.9-1.2-1.6-4.8-1.6-4.8
					L101,67L93.5,65.9z"/>
				<path class="st4" d="M76,71.5c0,0,1.2,3.1,2.7,2.4c1.6-0.8,5.2-2,6.7-1.6c1.6,0.4,4.4-1.2,4.4-3.9s-4.4-2.7-4.4-2.7l-3.1,3.5
					c0,0-4.4-1.2-6.4-2c-1.9-0.8-4.4,0.8-3.9,2.7C72.5,71.9,76,71.5,76,71.5z"/>
				<path class="st4" d="M59.4,69.9c2.7,2,3.5-1.2,4.8-2.7c1.2-1.6,3.5,0.8,5.6-1.2c2-2,1.6-4.8,1.6-4.8s-9.1,2.3-11,3.5
					C58.2,65.9,56.6,67.9,59.4,69.9z"/>
				<path class="st4" d="M79.6,65.1c1.9,0.8,2.3-0.8,3.9-2.3c1.6-1.6,1.2-3.5,0-4.4c-1.2-0.8-7.1,2.7-7.1,2.7S77.6,64.3,79.6,65.1z"
					/>
				<path class="st4" d="M93.1,60.3c1.6-0.4,5.6,1.2,7.9,2.3c2.3,1.2,3.5,0.4,3.5-1.2c0-1.6-2.4-3.1-4.4-4.4
					c-1.9-1.2-7.1-0.4-7.1-0.4S91.4,60.8,93.1,60.3z"/>
				<path class="st4" d="M113.6,64.3c2.7,0.4,3.1-2.3,2-3.1c-1.2-0.8-3.1-2-3.1-2l-6-1.2C106.5,58,110.8,63.9,113.6,64.3z"/>
				<path class="st4" d="M217.3,289.8c-2.4-1.2-9.1-4.4-12.3-6.4c-3.1-1.9-7.1,0.8-7.1,0.8l-0.4-6c0,0-1.6-6-3.9-9.9
					s-6.7-2-10.3-1.6c-3.5,0.4-4.4-3.5-6-4.4c-1.6-0.8-1.9-3.5-1.9-3.5s-3.9-1.2-6-2c-1.9-0.8-8.3-2.3-9.9-2.7
					c-1.5-0.4-2.3,4.4-3.5,3.9c-1.2-0.4-0.8-4.4-2.3-4.4c-1.6,0-6.7,6.4-6.7,6.4l-0.4,2.3l-3.9-3.9l-6.4,0.8c0,0-1.2-2.7-2.7-4.8
					c-1.6-1.9,0-3.1,0.8-6.3c0.8-3.1-2.3-2.7-4.8-3.5c-2.3-0.8-5.2-0.8-5.2-0.8l1.2-5.2c0,0,1.6-7.1,1.2-8.3c-0.4-1.2-4.4,0-5.2,1.2
					s-3.5,4.8-3.5,4.8s-5.2,1.6-6.8,0.4s-2-3.1-3.5-5.2c-1.6-2-2-6.4-2.3-10.3c-0.4-3.9,0.4-6.3,1.2-7.5c0.8-1.2,5.2-3.5,7.5-4.8
					c2.3-1.2,6.4,0,6.4,0s3.9-0.8,7.1-1.6c3.1-0.8,5.6,3.1,6.7,5.2c1.2,2,2.7,7.1,5.6,5.6c2.7-1.6,0-3.9-0.4-6c-0.4-2,0.8-6,1.2-9.5
					c0.4-3.5,2.7-2.7,5.6-6.7c2.7-3.9,0.8-3.9,0.8-6s1.2-3.5,3.5-5.2c2.4-1.6,2-1.6,6-4.8c3.9-3.1,1.6-3.5,4.4-7.9
					c1.9-3,3.6-3.5,5.7-5l1.9,1.4c0,0-0.8,2.7-0.4,4.8c0.4,2,2.7-2,3.9-3.1c1.2-1.2,3.5-2.7,3.9-4.8c0.4-2-2.4,0.8-3.5,0
					c-0.7-0.5-1.6-1.3-2.3-2c1.7-2.9-0.6-3.8-2-6.4c-1.6-2.7-6.7,2-6.7,2s3.5-4.4,4.8-5.2c1.2-0.8,6,0,10.3,0c4.4,0,5.2-4.4,8.7-5.6
					c3.5-1.2,2-2.7,0.8-4.4c-1.2-1.6-5.2-2.7-7.1-4.4c-2-1.6-3.9-2.4-4.4-8.3c-0.4-6-5.2-6.7-5.2-6.7s-3.9,4.8-6.7,3.9
					c-2.7-0.8-1.6-4.4-2.7-6.7c-1.2-2.3-6.3-3.5-9.1-3.1c-2.7,0.4-5.6-0.4-6.7,2.3c-1.2,2.7,1.2,6.7,3.1,9.1c2,2.3-1.2,8.7-2.3,9.9
					c-1.2,1.2-0.8,9.1-3.9,9.9c-3.1,0.8-3.9-9.5-5.6-10.3c-1.6-0.8-13.5-6-15.4-7.9c-2-1.9-6.4-3.5-7.9-7.1
					c-1.6-3.5,9.1-9.5,10.6-10.6c1.6-1.2,4.4,0,6.8,0.8c2.3,0.8,3.5,0.4,4.8-1.2c1.2-1.6,1.2-3.1,1.2-3.1s-9.1,0-7.5-0.4
					c1.6-0.4,4.8-3.1,4.8-3.1s3.5-3.1,6.8-6c3.1-2.7-0.8-3.1-2-6c-1.2-2.7-4.8-1.2-4.8-1.2l-2.3,6.7c0,0-3.1-0.4-3.9-1.6
					c-0.8-1.2-4.4-4.8-6.8-5.9c-2.3-1.2-3.9,1.2-4.8,2.7c-0.8,1.6-6.7,1.6-6.7,1.6s-4.8,0.8-6.4,1.6c-1.6,0.8-8.7-1.9-11.8-2.3
					c-3.1-0.4-0.4,6-1.2,7.1c-0.8,1.2-4.4-2.3-6.4-3.1c-2-0.8-6.7-2-6.7-2s-5.9-3.5-8.7-4.8c-2.7-1.2-11.4-2-14.3-4.4
					c-2.7-2.3-6,0.4-7.5,0c-1.6-0.4-5.6,3.5-7.1,3.9c-1.6,0.4-5.6-0.8-10.6-0.8c-5.2,0-13.5-3.5-17-5.6S-5.2,88.7-7.6,89
					c-2.3,0.4-8.3,1.2-8.7,4.4c-0.4,3.1-7.1,4.8-7.1,4.8l9.9,3.9c0,0-2.3,2-3.5,2s-4.8-3.1-6.3-2c-1.6,1.2-2,3.5-1.2,5.2
					s5.6,1.6,9.1,0.8c3.5-0.8,2.3,2.3,2.7,3.9c0.4,1.6-5.2,1.2-6.7,2c-1.6,0.8-1.6,4.8,0,7.1c1.6,2.3,4.4,4.8,7.1,5.6
					c2.7,0.8,4.4,1.6,4.4,1.6s-3.5,5.2-2.3,6.7c1.2,1.6,4.4-3.5,6-4.8s5.2-5.6,5.2-5.6l3.5-6.4l-0.8,6.4c0,0,1.9,2,5.2-1.2
					c3.1-3.1,2-4.8,2-4.8s7.9,4.4,9.5,3.9c1.6-0.4,7.5,1.2,9.9,3.5c2.3,2.3,5.2,7.5,6.4,7.5c1.2,0-0.8-3.1,1.2-2.7
					c1.9,0.4,6,6.4,7.5,9.5c1.6,3.1,4.8,10.3,5.6,11.8c0.8,1.6,2.3,1.2,3.5,3.1c1.2,2,3.1,7.1,3.1,9.1c0,2-0.8,8.7,0.8,15.1
					c1.6,6.3,3.5,14.3,7.1,17c3.5,2.7,5.6,7.5,6.3,9.1c0.8,1.6,3.5,9.1,5.6,13.1s4.8,6.7,5.2,3.9c0.4-2.7-8.7-18.2-8.7-18.2
					s1.6-1.6,2.7-1.6c1.2,0,3.5,8.3,3.5,8.3s9.5,12.7,10.3,14.3c0.8,1.6,0.8,7.5,3.1,10.7c2.4,3.1,18.6,6.3,19.7,6
					c1.2-0.4,3.9,3.9,5.2,5.2s7.5,3.1,9.5,4.8c2,1.6,2.7,5.6,4.8,8.3c1.9,2.7,3.5,1.9,6,2.3c2.3,0.4,3.1-1.2,3.1-1.2l2.7,3.9
					c0,0,0.4,5.6,0,6.8c-0.4,1.2-2.3,5.6-3.9,8.7c-1.6,3.1-0.8,5.6-0.8,7.5c0,2-0.4,6.7,2.3,9.5c2.7,2.7,4.4,11,5.6,13.9
					c1.2,2.7,6.4,7.9,8.3,9.5c2,1.6,2.7,6,3.5,9.1c0.8,3.1-0.8,10.3-0.8,11.8c0,1.6-1.6,21-2,23c-0.4,2-2.7,11.4-2.7,13.5
					c0,2-1.2,7.1-1.2,7.1s1.6,1.9,0.4,5.2c-1.2,3.1-2,7.1-2.3,9.9c-0.4,2.7,0,11,1.2,13.1c1.2,2,3.9,6.3,7.5,8.7
					c3.5,2.4,4.8-2.3,4.8-2.3s-2.3-5.6-3.1-7.9c-0.8-2.3,1.2-4.4,3.5-8.3c2.4-3.9,1.2-3.5-0.8-5.6c-1.9-2,1.6-4.4,4.4-7.5
					c2.7-3.1,0.8-4.4,1.6-6c0.8-1.6,2.7-3.5,2.7-4.8c0-1.2,5.2-1.9,8.3-3.1c3.1-1.2,3.9-3.9,2.7-7.5c-1.2-3.5-1.6-6.7-1.6-6.7
					s5.2,2.7,9.1-0.4s3.5-5.2,6.7-9.5c3.1-4.4,1.2-6,1.6-9.5c0.4-3.5,6-5.2,10.7-7.1c4.8-1.9,4.4-1.6,7.1-6.3
					c2.7-4.8,1.9-10.3,1.6-13.5c-0.4-3.1,2.7-5.9,5.2-9.1c2.3-3.1,3.9-8.7,3.1-12.3C225.6,291.8,219.6,291,217.3,289.8z"/>
				<path class="st4" d="M492.3,59.4c-1.8-1.8-4.4-1.8-5.3-2c-0.9-0.2-3.6,4.2-3.6,4.2s3.8-0.9,5.5-1.1
					C490.5,60.1,494.1,61.3,492.3,59.4z"/>
				<path class="st4" d="M471.7,56.9c0.9-0.2,2,0.7,3.6,0.7s4.4,0.9,4.4,0.9l3.2-1.6c0,0-0.2-0.9-1.1-1.4c-0.9-0.5-0.9-1.4-1.8-2
					c-0.9-0.7-1.1-1.4-2.7-2.5c-1.6-1.1-1.1-0.7-2.5,0c-1.4,0.7-2,1.6-3.2,2.7c-1.1,1.1-3.9,0.2-3.2,2.5
					C468.9,58.5,470.7,57.1,471.7,56.9z"/>
				<path class="st4" d="M318.8,60.8c0.9,0.4,2.3,1.4,2.3,1.4s-2.3,2.9-2.3,3.9c0,0.9,2.3,1.1,5.5,2c3.2,0.9,4.2-2,4.2-2
					s0.7-1.8,1.3-2c0.7-0.2,2.3,0.5,3.4,1.6c1.1,1.1,2.5,0.9,5.1-0.2c2.5-1.1-2.5-1.8-2.5-1.8s-3.2-1.4-4.2-2.7
					c-0.9-1.4-2.7-2.3-3.6-2.9c-0.9-0.7-2.7-3.2-2.7-3.2s-2.7,0.9-3.6,0.7c-0.9-0.2-1.8-1.6-2.9-1.1c-1.1,0.5-2.3,0.9-2,2.9
					C316.6,59.1,317.7,60.3,318.8,60.8z"/>
				<path class="st4" d="M332.2,57.1c1.4,0,5.5,0.7,8.3,1.1c2.7,0.4,5.1-2.9,4.6-3.9c-0.5-0.9-3.4,0.2-4.2,0.2
					c-0.7,0-4.6-0.9-6.4-2.3c-1.8-1.4-4.4,0.7-4.4,0.7l-1.1,1.6C329.1,54.6,330.9,57.1,332.2,57.1z"/>
			</g>
		</g>
		<g>
			<defs>
				<circle id="SVGID_6_" cx="306" cy="306" r="306"/>
			</defs>
			<clipPath id="SVGID_7_">
				<use xlink:href="#SVGID_6_"  style="overflow:visible;"/>
			</clipPath>
			<rect x="-8.6" y="391.4" class="st5" width="657.7" height="238.8"/>
		</g>
	</g>
	<g>
		<path class="st4" d="M543.9,255.8c0-0.3,0-0.6,0-1c0-11.7-11.1-21.4-24.8-21.4c-13.7,0-24.8,9.5-24.8,21.4c0,1.5,0.2,3.1,0.6,4.6
			c2.1,45.7-27.1,42.9-27.1,71c-19.2,19,18.8,61.9,55.5,62.6c40.9,0.7,69.3-28.4,55.8-65.3C579,296.3,553.9,293.7,543.9,255.8z"/>
		<g>
			<path d="M473.2,340.8c-0.5-2.5-1.4-5.3-1.4-8c-0.1-9.2,3.6-17.1,8.3-24.8c0.1-0.2,0.3-0.2,0.5-0.3c-0.2,1.2-0.8,2.1-1.3,3
				c-3.4,6.6-6.6,13.4-6.7,21c-0.1,4.2,0.7,8.1,4.3,11.4c0-0.9-0.1-1.5-0.1-2.1c0.1-2.9,0-6,0.4-8.9c1-7.4,3.6-14.2,7.2-20.7
				c2.3-4.3,5.1-7.3,9.7-8.6c0.7-0.2,1.3-0.7,2.2-1.2c-1.3-0.8-2.3-1.4-3.3-2.1c-2.2-1.5-2.8-3.6-1.6-6.2c0.6-1.2,1.1-2.5,2-3.5
				c3.2-3.6,5-7.7,4.6-12.7c0-0.1,0-0.2,0-0.4c0.2-1.3-0.1-2.3-1-3.3c-3.6-4.2-3.3-8.5,0.8-11.9c1-0.9,1-1.5,0.5-2.6
				c-1.7-4.4-2.1-8.9-0.5-13.4c1.3-3.7,5.3-4.9,8.2-2.4c1.9,1.7,3.3,3.7,3.7,6.5c0.2,1.3,0.2,2.5,0.3,3.8c2.4,0,4.9,0,7.4,0
				c0-0.6,0.1-1.2,0-1.8c-0.3-2.7,0.6-5,2-7.2c2.8-4.5,9.4-5.4,12.7-1.6c3,3.5,4.8,7.7,3.9,12.5c-0.3,1.7-0.9,3.4-1.4,5.2
				c1.9,1.2,3.2,2.9,3,5.3c-0.2,2-0.9,4.1-1.3,6.1c-0.2,0.8-0.4,1.8-0.2,2.5c0.8,2.3,1.9,4.6,2.9,6.8c1.1,2.5,2.3,5.1,3.4,7.6
				c2.8,6.6,5.6,13.2,8.3,19.7c1.1,2.6,2.3,5.3,3,7.9c2.3,8.4,2.8,16.9,2,25.5c-0.1,1,0.1,1.5,1.1,1.9c2.1,0.8,3.1,2.5,3.1,4.8
				c0,0.9-0.2,1.9-0.1,2.7c0.1,0.9,0.4,1.9,1,2.5c2.3,2.1,6.1,2.1,8.8,0.5c3.2-2,5.3-5,7.4-8.5c-5.8-4.7-11.9-5.4-18.7-2.1
				c0.7-0.8,1.5-1.8,2.4-1.9c2.6-0.3,3.3-2.1,3.9-4.3c0.3-1.2,0.8-2.4,1.1-3.7c2.4-9.3,0.8-17.8-5.6-25.1c-1.6-1.9-3.7-3.4-5.7-5.1
				c4.5,2.2,8,5.5,10.5,9.7c5.4,9.1,3.3,18.4,0.3,27.6c7.3,0.5,9.8,1.4,12.7,4.5c1-0.1,2-0.2,2.9-0.4c0.4-0.1,1-0.4,1.1-0.8
				c0.6-1.7,1.2-3.4,1.5-5.2c1-5.2-0.2-10.2-1.7-15.2c-3-10.4-8.2-19.8-14.5-28.7c-3.9-5.6-8-11-11.3-16.9
				c-4.8-8.5-7.3-17.6-7.1-27.5c0.1-3.5-0.1-7.2-0.8-10.6c-1.1-6.2-3.2-12-7.8-16.6c-8.6-8.5-18.8-11.1-30.6-8
				c-5.8,1.5-11,4.2-14.3,9.5c-2.6,4.4-3.7,9.2-3.6,14.2c0.1,9.1,0.1,18.3,1,27.4c0.8,8-0.5,14.9-6.1,21c-2.2,2.4-4.1,5.1-6,7.8
				c-8,11-13.3,23.6-17.9,36.3c-1.2,3.2-1.7,6.5-0.6,10C466.3,339.5,469.9,338.7,473.2,340.8z"/>
			<path d="M542.9,270.5c1.8,0.9,3.5,1.9,5.1,3.1c0.6,0.4,0.8,1.4,1,1.8c0,2.3-1.5,3.3-3.1,2.4c-2.4-1.3-3.6-3.5-4.3-6.2
				C541.5,270.7,542.1,270,542.9,270.5z"/>
			<path d="M529.6,238.7c2.8-0.4,5.9,2.1,6.8,5.6C534.6,241.8,532.8,239.5,529.6,238.7z"/>
			<path d="M530.8,223.7c1.9,0,2.5,1.5,3.1,2.9c0.6,1.4-0.8,1.7-1.6,2.3c-0.2,0.1-0.4,0.2-0.7,0.3c-2.5,1.1-3.2,0.6-3.2-2.1
				C528.6,224.5,529.1,223.7,530.8,223.7z"/>
			<path d="M510.2,244.1c-1.9-1.5-3.7-3-5.6-4.5C506.8,239.5,509.3,241.5,510.2,244.1z"/>
			<path class="st6" d="M501.8,390.3c0.6,2.9-0.9,5.3-3.5,7.1c-0.9,0.6-1.6,1.3-2.4,2c-3.1,3.3-7,3.9-11.2,2.9
				c-2.2-0.5-4.5-1.2-6.5-2c-8-3.2-16.3-5.3-24.7-7c-2.9-0.6-5.8-1.3-8.6-2.3c-3.9-1.4-5.3-3.7-4.4-7.8c1.2-5.9,1.2-11.7,0.3-17.7
				c-0.7-4.7,0.4-6.3,5-7.5c1.7-0.4,3.4-1,5.3-1.3c3.2-0.6,5.7-2.3,7.6-4.9c1.6-2.3,3.2-4.7,5.3-6.7c3.4-3.5,6.6-3.7,9.8,0
				c3.6,4.2,6.9,8.5,10,13.1c5.2,7.6,9.5,15.8,15.4,22.9C501.1,383.6,502.1,386.6,501.8,390.3z"/>
			<path class="st6" d="M597,378.5c-1.7,1.4-3.6,2.5-5.6,3.6c-8.2,4.7-16.2,9.7-23.1,16.3c-3.3,3.2-7.4,4.3-11.8,4.3
				c-1.3-0.1-2.6-0.1-3.8-0.2c-4.8-0.6-7.5-3.3-8.5-8c-0.8-3.8-0.6-7.7,0.3-11.4c2.2-10.2,2.3-20.7,2.4-31c0.1-4.7,1.2-6.2,6.5-6
				c3.6,0.1,4.2,0.6,3.7,4.2c-0.5,4.4,2.7,7.7,7.8,8.2c5.5,0.5,9-2.6,12.3-6.4c0.7-0.8,1.1-1.7,1.7-2.6c1.4-2.1,4.4-2,5.3,0.4
				c0.6,1.4,0.9,3.1,0.7,4.7c-0.4,3.5,1,6.2,3.3,8.4c2.6,2.4,5.5,4.9,8.4,7C599.8,372.4,600.3,375.9,597,378.5z"/>
			<path class="st6" d="M510.1,281.5c4.8,0.8,9-0.2,13.1-2.9c2.1-1.4,4.4-2.9,6.7-3.8c3.6-1.4,5.5-3.7,5.8-7.6
				c0.2-3.1-0.3-4.4-3.3-5.6c-1.5-0.6-3-1.1-4.9-1.7c2.5-0.8,3.9-2.2,4.2-4.7c0.2-2.2-0.5-4.4-2-6c-1.4-1.5-3.2-1.4-5.1-0.8
				c-1.9,0.7-2.5,2.5-2.6,4.4c-0.1,1.6,0,3.2,0,4.9c-4.9-3-10-2.7-15.2-0.8c-0.2-1.8-0.2-3.7-0.7-5.5c-0.5-2.1-2.5-3.3-4.3-3
				c-1.6,0.3-2.7,1.9-2.8,4.3c-0.1,3.1,1.3,5.6,3.5,7.7c-1.1,1-2.2,1.9-3.3,2.8c-3.5,3-3.7,6.4-0.5,9.7c2.6,2.7,5.5,5.2,8.4,7.6
				C507.9,281,509.1,281.3,510.1,281.5z"/>
			<path d="M527.6,249.5c0.6,0.4,1.3,0.7,1.7,1.2c0.3,0.3,0.1,1,0.2,1.5c-0.2,0-0.4,0.1-0.6,0.1c-0.6-0.8-1.2-1.6-1.7-2.3
				C527.2,249.9,527.3,249.7,527.6,249.5z"/>
			<path d="M515.2,257.4c0.9,0.1,1.9,0.2,2.8,0.5c0.3,0.1,0.4,0.9,0.6,1.4c-0.2,0.1-0.4,0.3-0.5,0.4c-1-0.5-2.1-1-3.1-1.5
				C515.1,257.9,515.2,257.7,515.2,257.4z"/>
			<path d="M508,258c0.5-0.3,1.1-0.2,1.7-0.3c0.1,0.2,0.1,0.3,0.2,0.5c-0.4,0.4-0.8,0.8-1.3,1c-0.4,0.2-1,0-1.5,0
				C507.4,258.8,507.6,258.3,508,258z"/>
			<path d="M502.4,250.2c0.1-0.1,0.2-0.3,0.3-0.4c0.5,0.2,1.2,0.3,1.4,0.6c0.3,0.8,0.4,1.7,0.6,2.6c-0.2,0-0.4,0-0.6,0
				C503.6,252,502.9,251.1,502.4,250.2z"/>
			<path d="M497.3,269.2c0.2-0.2,0.4-0.3,0.5-0.5c0.6,0.4,1.2,0.7,1.7,1.2c5.7,5.2,12.2,5.4,18.7,2.3c4.1-1.8,7.8-4.3,11.7-6.3
				c0.8-0.4,1.8-0.6,2.7-0.8c0.1,0.2,0.2,0.4,0.2,0.6c-0.3,0.3-0.5,0.8-0.9,1c-5.5,3.4-10.8,7.2-17.3,8.7c-6,1.3-11.4,0.3-15.9-4.2
				C498.2,270.8,497.8,270,497.3,269.2z"/>
			<path d="M542.5,372.1c-0.9,7.5-1.8,14.6-2.7,21.9c-11.2-2.8-23-0.3-34.5-0.3c-0.3-3.2-0.5-6.5-0.8-9.7
				C518.6,385.7,531.6,382.4,542.5,372.1z"/>
			<path d="M493.4,358.5c1.8,1.5,3.6,3.1,5.5,4.8c1.6,1.5,2.1,3.6,1.8,5.8c-0.2,1.8-1.9,3.5-3.7,3.4c-0.5,0-1.2-0.7-1.5-1.3
				c-4.1-6.4-8.1-12.8-12.2-19c-0.9-1.4-2-2.8-3-4.3c0-0.1,0.1-0.1,0.1-0.2C484.7,351.3,489.1,354.8,493.4,358.5z"/>
			<g>
				<g>
					<defs>
						<path id="SVGID_8_" d="M516.6,278.9c4.8-0.4,8.7-2.4,12-6c1.7-1.9,3.5-3.9,5.6-5.4c3.2-2.3,4.4-5,3.8-8.8
							c-0.6-3.1-1.4-4.2-4.6-4.6c-1.6-0.2-3.2-0.3-5.1-0.5c2.3-1.4,3.3-3.1,2.9-5.5c-0.3-2.2-1.5-4.1-3.4-5.3
							c-1.7-1.1-3.5-0.6-5.1,0.4c-1.7,1.2-1.8,3.1-1.5,4.9c0.3,1.6,0.8,3.1,1.2,4.7c-5.5-1.8-10.4-0.2-14.9,2.9
							c-0.6-1.7-1.1-3.6-2-5.1c-1-1.9-3.3-2.6-4.9-1.9c-1.5,0.7-2.2,2.5-1.7,4.8c0.7,3.1,2.6,5.1,5.3,6.6c-0.8,1.3-1.7,2.4-2.6,3.6
							c-2.7,3.8-2.1,7.1,1.9,9.6c3.2,2,6.6,3.7,10,5.3C514.3,278.9,515.6,278.9,516.6,278.9z"/>
					</defs>
					<clipPath id="SVGID_9_">
						<use xlink:href="#SVGID_8_"  style="overflow:visible;"/>
					</clipPath>
					
						<ellipse transform="matrix(0.9702 -0.2424 0.2424 0.9702 -46.5627 129.441)" class="st7" cx="502.8" cy="254" rx="4.3" ry="6.5"/>
				</g>
				<g>
					<defs>
						<path id="SVGID_10_" d="M543.9,281.4c2.9-3.8,4-8.1,3.5-12.9c-0.3-2.5-0.6-5.2-0.3-7.7c0.4-3.9-0.8-6.6-4-8.6
							c-2.7-1.6-4-1.8-6.5,0.4c-1.2,1.1-2.4,2.2-3.8,3.5c0.5-2.6-0.1-4.5-2.2-5.8c-1.9-1.2-4.1-1.6-6.2-1c-2,0.5-2.8,2.2-3.1,4.1
							c-0.3,2,1.1,3.4,2.6,4.4c1.4,0.8,2.9,1.5,4.3,2.3c-4.9,2.9-7.1,7.6-7.8,13.1c-1.7-0.7-3.4-1.6-5.2-1.9
							c-2.1-0.5-4.1,0.7-4.7,2.4c-0.5,1.6,0.4,3.3,2.4,4.5c2.7,1.5,5.5,1.4,8.5,0.4c0.4,1.5,0.7,2.9,1,4.3c1,4.5,3.9,6.3,8.4,5
							c3.6-1.1,7.1-2.4,10.6-3.9C542.4,283.1,543.2,282.2,543.9,281.4z"/>
					</defs>
					<clipPath id="SVGID_11_">
						<use xlink:href="#SVGID_10_"  style="overflow:visible;"/>
					</clipPath>
					
						<ellipse transform="matrix(0.4648 -0.8854 0.8854 0.4648 57.5257 602.2452)" class="st8" cx="526.9" cy="253.5" rx="6.7" ry="5.7"/>
				</g>
			</g>
		</g>
		<g>
			<path class="st9" d="M443.6,360h-80.7c-2.5,0-4.6-2-4.6-4.6v-66.7c0-2.5,2-4.6,4.6-4.6h80.7c2.5,0,4.6,2,4.6,4.6v66.7
				C448.2,357.9,446,360,443.6,360z"/>
			<rect x="362" y="290.5" class="st0" width="82.6" height="55.5"/>
			<text transform="matrix(1 0 0 1 367.9248 306.5811)" class="st4 st10 st11">&gt;_</text>
			<g>
				<circle class="st12" cx="366.7" cy="350.6" r="1.1"/>
				<circle class="st12" cx="370.7" cy="350.6" r="1.1"/>
				<circle class="st12" cx="374.8" cy="350.6" r="1.1"/>
				<circle class="st12" cx="378.8" cy="350.6" r="1.1"/>
				<circle class="st12" cx="382.9" cy="350.6" r="1.1"/>
				<circle class="st12" cx="386.9" cy="350.6" r="1.1"/>
				<circle class="st12" cx="391" cy="350.6" r="1.1"/>
				<circle class="st12" cx="395" cy="350.6" r="1.1"/>
				<circle class="st12" cx="399.1" cy="350.6" r="1.1"/>
				<circle class="st12" cx="403.1" cy="350.6" r="1.1"/>
				<circle class="st12" cx="407.1" cy="350.6" r="1.1"/>
				<circle class="st12" cx="411.1" cy="350.6" r="1.1"/>
				<circle class="st12" cx="415.2" cy="350.6" r="1.1"/>
				<circle class="st12" cx="419.2" cy="350.6" r="1.1"/>
				<circle class="st12" cx="423.3" cy="350.6" r="1.1"/>
				<circle class="st12" cx="427.3" cy="350.6" r="1.1"/>
				<circle class="st12" cx="431.4" cy="350.6" r="1.1"/>
				<circle class="st12" cx="435.4" cy="350.6" r="1.1"/>
				<circle class="st12" cx="439.5" cy="350.6" r="1.1"/>
			</g>
			<g>
				<circle class="st12" cx="368.7" cy="353.3" r="1.1"/>
				<circle class="st12" cx="372.7" cy="353.3" r="1.1"/>
				<circle class="st12" cx="376.8" cy="353.3" r="1.1"/>
				<circle class="st12" cx="380.8" cy="353.3" r="1.1"/>
				<circle class="st12" cx="384.9" cy="353.3" r="1.1"/>
				<circle class="st12" cx="388.9" cy="353.3" r="1.1"/>
				<circle class="st12" cx="393" cy="353.3" r="1.1"/>
				<circle class="st12" cx="397" cy="353.3" r="1.1"/>
				<circle class="st12" cx="401.1" cy="353.3" r="1.1"/>
				<circle class="st12" cx="405.1" cy="353.3" r="1.1"/>
				<circle class="st12" cx="409.2" cy="353.3" r="1.1"/>
				<circle class="st12" cx="413.2" cy="353.3" r="1.1"/>
				<circle class="st12" cx="417.3" cy="353.3" r="1.1"/>
				<circle class="st12" cx="421.3" cy="353.3" r="1.1"/>
				<circle class="st12" cx="425.4" cy="353.3" r="1.1"/>
				<circle class="st12" cx="429.4" cy="353.3" r="1.1"/>
				<circle class="st12" cx="433.5" cy="353.3" r="1.1"/>
				<circle class="st12" cx="437.5" cy="353.3" r="1.1"/>
			</g>
		</g>
		<g>
			<path class="st9" d="M411.7,395.4H331c-2.5,0-4.6-2-4.6-4.6v-66.6c0-2.5,2-4.6,4.6-4.6h80.7c2.5,0,4.6,2,4.6,4.6V391
				C416.3,393.4,414.2,395.4,411.7,395.4z"/>
			<rect x="330.1" y="326" class="st0" width="82.6" height="55.5"/>
			<text transform="matrix(1 0 0 1 336.0469 342.0645)" class="st4 st10 st11">&gt;_</text>
			<g>
				<circle class="st12" cx="334.8" cy="386" r="1.1"/>
				<circle class="st12" cx="338.8" cy="386" r="1.1"/>
				<circle class="st12" cx="342.9" cy="386" r="1.1"/>
				<circle class="st12" cx="346.9" cy="386" r="1.1"/>
				<circle class="st12" cx="351" cy="386" r="1.1"/>
				<circle class="st12" cx="355" cy="386" r="1.1"/>
				<circle class="st12" cx="359.1" cy="386" r="1.1"/>
				<circle class="st12" cx="363.1" cy="386" r="1.1"/>
				<circle class="st12" cx="367.2" cy="386" r="1.1"/>
				<circle class="st12" cx="371.2" cy="386" r="1.1"/>
				<circle class="st12" cx="375.3" cy="386" r="1.1"/>
				<circle class="st12" cx="379.3" cy="386" r="1.1"/>
				<circle class="st12" cx="383.4" cy="386" r="1.1"/>
				<circle class="st12" cx="387.4" cy="386" r="1.1"/>
				<circle class="st12" cx="391.5" cy="386" r="1.1"/>
				<circle class="st12" cx="395.4" cy="386" r="1.1"/>
				<circle class="st12" cx="399.5" cy="386" r="1.1"/>
				<circle class="st12" cx="403.5" cy="386" r="1.1"/>
				<circle class="st12" cx="407.6" cy="386" r="1.1"/>
			</g>
			<g>
				<circle class="st12" cx="336.8" cy="388.7" r="1.1"/>
				<circle class="st12" cx="340.8" cy="388.7" r="1.1"/>
				<circle class="st12" cx="344.9" cy="388.7" r="1.1"/>
				<circle class="st12" cx="348.9" cy="388.7" r="1.1"/>
				<circle class="st12" cx="353" cy="388.7" r="1.1"/>
				<circle class="st12" cx="357" cy="388.7" r="1.1"/>
				<circle class="st12" cx="361.1" cy="388.7" r="1.1"/>
				<circle class="st12" cx="365.1" cy="388.7" r="1.1"/>
				<circle class="st12" cx="369.2" cy="388.7" r="1.1"/>
				<circle class="st12" cx="373.2" cy="388.7" r="1.1"/>
				<circle class="st12" cx="377.3" cy="388.7" r="1.1"/>
				<circle class="st12" cx="381.3" cy="388.7" r="1.1"/>
				<circle class="st12" cx="385.4" cy="388.7" r="1.1"/>
				<circle class="st12" cx="389.4" cy="388.7" r="1.1"/>
				<circle class="st12" cx="393.5" cy="388.7" r="1.1"/>
				<circle class="st12" cx="397.5" cy="388.7" r="1.1"/>
				<circle class="st12" cx="401.6" cy="388.7" r="1.1"/>
				<circle class="st12" cx="405.6" cy="388.7" r="1.1"/>
			</g>
		</g>
		<g>
			<path class="st9" d="M455.8,421.9h-80.7c-2.5,0-4.6-2-4.6-4.6v-66.7c0-2.5,2-4.6,4.6-4.6h80.7c2.5,0,4.6,2,4.6,4.6v66.7
				C460.3,419.9,458.3,421.9,455.8,421.9z"/>
			<rect x="374.1" y="352.6" class="st12" width="82.6" height="55.5"/>
			<text transform="matrix(1 0 0 1 380.1152 368.5938)" class="st4 st10 st11">&gt;_</text>
			<g>
				<circle class="st12" cx="378.8" cy="412.5" r="1.1"/>
				<circle class="st12" cx="382.9" cy="412.5" r="1.1"/>
				<circle class="st12" cx="386.9" cy="412.5" r="1.1"/>
				<circle class="st12" cx="391" cy="412.5" r="1.1"/>
				<circle class="st12" cx="395" cy="412.5" r="1.1"/>
				<circle class="st12" cx="399.1" cy="412.5" r="1.1"/>
				<circle class="st12" cx="403.1" cy="412.5" r="1.1"/>
				<circle class="st12" cx="407.2" cy="412.5" r="1.1"/>
				<circle class="st12" cx="411.2" cy="412.5" r="1.1"/>
				<circle class="st12" cx="415.3" cy="412.5" r="1.1"/>
				<circle class="st12" cx="419.3" cy="412.5" r="1.1"/>
				<circle class="st12" cx="423.4" cy="412.5" r="1.1"/>
				<circle class="st12" cx="427.4" cy="412.5" r="1.1"/>
				<circle class="st12" cx="431.5" cy="412.5" r="1.1"/>
				<circle class="st12" cx="435.5" cy="412.5" r="1.1"/>
				<circle class="st12" cx="439.6" cy="412.5" r="1.1"/>
				<circle class="st12" cx="443.6" cy="412.5" r="1.1"/>
				<circle class="st12" cx="447.7" cy="412.5" r="1.1"/>
				<circle class="st12" cx="451.7" cy="412.5" r="1.1"/>
			</g>
			<g>
				<circle class="st12" cx="380.9" cy="415.3" r="1.1"/>
				<circle class="st12" cx="384.9" cy="415.3" r="1.1"/>
				<circle class="st12" cx="388.9" cy="415.3" r="1.1"/>
				<circle class="st12" cx="393" cy="415.3" r="1.1"/>
				<circle class="st12" cx="397" cy="415.3" r="1.1"/>
				<circle class="st12" cx="401.1" cy="415.3" r="1.1"/>
				<circle class="st12" cx="405.1" cy="415.3" r="1.1"/>
				<circle class="st12" cx="409.2" cy="415.3" r="1.1"/>
				<circle class="st12" cx="413.2" cy="415.3" r="1.1"/>
				<circle class="st12" cx="417.3" cy="415.3" r="1.1"/>
				<circle class="st12" cx="421.3" cy="415.3" r="1.1"/>
				<circle class="st12" cx="425.4" cy="415.3" r="1.1"/>
				<circle class="st12" cx="429.4" cy="415.3" r="1.1"/>
				<circle class="st12" cx="433.5" cy="415.3" r="1.1"/>
				<circle class="st12" cx="437.5" cy="415.3" r="1.1"/>
				<circle class="st12" cx="441.6" cy="415.3" r="1.1"/>
				<circle class="st12" cx="445.6" cy="415.3" r="1.1"/>
				<circle class="st12" cx="449.7" cy="415.3" r="1.1"/>
			</g>
		</g>
	</g>
	<g>
		<g>
			<path class="st13" d="M46.5,321.5V392H92c0-10.5,13-25,29-25s29,14.5,29,25h45.6v-70.5H46.5z"/>
			<g>
				<g>
					<rect x="58.6" y="338.9" class="st4" width="44.1" height="9.3"/>
					<rect x="58.6" y="348.2" class="st14" width="44.1" height="4.9"/>
				</g>
				<g>
					<rect x="139.2" y="338.9" class="st4" width="44.1" height="9.3"/>
					<rect x="139.2" y="348.2" class="st14" width="44.1" height="4.9"/>
				</g>
			</g>
			<rect x="61.6" y="188.2" class="st14" width="118.9" height="13.3"/>
			<rect x="37.4" y="316.8" class="st14" width="167.3" height="9.3"/>
			<rect x="61.6" y="196.6" class="st13" width="118.9" height="120.2"/>
			<g>
				<g>
					<rect x="74.1" y="207" class="st4" width="15.1" height="15.6"/>
					<rect x="72.2" y="222.6" class="st14" width="19" height="4.3"/>
				</g>
				<g>
					<rect x="100.3" y="207" class="st4" width="15.1" height="15.6"/>
					<rect x="98.4" y="222.6" class="st14" width="19" height="4.3"/>
				</g>
				<g>
					<rect x="126.6" y="207" class="st4" width="15.1" height="15.6"/>
					<rect x="124.5" y="222.6" class="st14" width="19" height="4.3"/>
				</g>
				<g>
					<rect x="152.7" y="207" class="st4" width="15.1" height="15.6"/>
					<rect x="150.8" y="222.6" class="st14" width="19" height="4.3"/>
				</g>
				<g>
					<rect x="74.1" y="234.4" class="st4" width="15.1" height="15.6"/>
					<rect x="72.2" y="250" class="st14" width="19" height="4.3"/>
				</g>
				<g>
					<rect x="100.3" y="234.4" class="st4" width="15.1" height="15.6"/>
					<rect x="98.4" y="250" class="st14" width="19" height="4.3"/>
				</g>
				<g>
					<rect x="126.6" y="234.4" class="st4" width="15.1" height="15.6"/>
					<rect x="124.5" y="250" class="st14" width="19" height="4.3"/>
				</g>
				<g>
					<rect x="152.7" y="234.4" class="st4" width="15.1" height="15.6"/>
					<rect x="150.8" y="250" class="st14" width="19" height="4.3"/>
				</g>
				<g>
					<rect x="74.1" y="262" class="st4" width="15.1" height="15.6"/>
					<rect x="72.2" y="277.4" class="st14" width="19" height="4.3"/>
				</g>
				<g>
					<rect x="100.3" y="262" class="st4" width="15.1" height="15.6"/>
					<rect x="98.4" y="277.4" class="st14" width="19" height="4.3"/>
				</g>
				<g>
					<rect x="126.6" y="262" class="st4" width="15.1" height="15.6"/>
					<rect x="124.5" y="277.4" class="st14" width="19" height="4.3"/>
				</g>
				<g>
					<rect x="152.7" y="262" class="st4" width="15.1" height="15.6"/>
					<rect x="150.8" y="277.4" class="st14" width="19" height="4.3"/>
				</g>
				<g>
					<rect x="74.1" y="289.4" class="st4" width="15.1" height="15.6"/>
					<rect x="72.2" y="305" class="st14" width="19" height="4.3"/>
				</g>
				<g>
					<rect x="100.3" y="289.4" class="st4" width="15.1" height="15.6"/>
					<rect x="98.4" y="305" class="st14" width="19" height="4.3"/>
				</g>
				<g>
					<rect x="126.6" y="289.4" class="st4" width="15.1" height="15.6"/>
					<rect x="124.5" y="305" class="st14" width="19" height="4.3"/>
				</g>
				<g>
					<rect x="152.7" y="289.4" class="st4" width="15.1" height="15.6"/>
					<rect x="150.8" y="305" class="st14" width="19" height="4.3"/>
				</g>
			</g>
		</g>
		<path class="st15" d="M46.5,392l-20.7,39.1c0,0,11.1,28.7,38.2,62.2l132.4-101.2L46.5,392z"/>
	</g>
	<g>
		<g>
			<rect x="273.7" y="182.1" class="st14" width="43.1" height="49.8"/>
			<polygon class="st16" points="316.8,182.1 273.7,182.1 279.5,177.4 325.8,177.4 			"/>
			<polygon class="st16" points="325.9,223.7 316.8,231.9 316.8,182.1 325.8,177.4 			"/>
		</g>
		<g>
			<path class="st4" d="M325.3,222.3h-1.8c-0.3-1.5-0.8-2.7-1.6-3.8l1.3-1.4c0.3-0.3,0.4-0.7,0.4-1.1c0-0.4-0.2-0.8-0.4-1.1
				l-1.1-1.1c-0.6-0.6-1.5-0.6-2.1,0l-1.4,1.3c-1.1-0.7-2.3-1.2-3.8-1.5v-1.9c0-0.8-0.5-1.4-1.4-1.4h-1.6c-0.8,0-1.6,0.5-1.6,1.4
				v1.9c-1.2,0.3-2.6,0.8-3.7,1.5l-1.3-1.3c-0.6-0.6-1.5-0.6-2.1,0l-1.1,1.1c-0.3,0.3-0.4,0.7-0.4,1.1c0,0.4,0.2,0.8,0.4,1.1
				l1.3,1.4c-0.7,1.1-1.3,2.3-1.6,3.8h-1.8c-0.8,0-1.3,0.5-1.3,1.3v1.6c0,0.8,0.5,1.3,1.3,1.3h1.8c0.3,1.5,0.8,2.7,1.6,3.8l-1.3,1.4
				c-0.3,0.3-0.4,0.7-0.4,1.1c0,0.4,0.2,0.8,0.4,1.1l1.1,1.1c0.6,0.6,1.5,0.6,2.1,0l1.3-1.3c1.1,0.7,2.5,1.2,3.7,1.5v1.9
				c0,0.8,0.7,1.3,1.6,1.3h1.6c0.8,0,1.4-0.5,1.4-1.3v-1.9c1.5-0.3,2.7-0.8,3.8-1.5l1.4,1.3c0.6,0.6,1.5,0.6,2.1,0l1.1-1.1
				c0.3-0.3,0.4-0.7,0.4-1.1c0-0.4-0.2-0.8-0.4-1.1l-1.3-1.4c0.7-1.1,1.3-2.3,1.6-3.8h1.8c0.8,0,1.4-0.5,1.4-1.3v-1.6
				C326.8,222.8,326.2,222.3,325.3,222.3z M312.5,229.2c-2.7,0-4.9-2.1-4.9-4.9c0-2.6,2.2-4.9,4.9-4.9c2.7,0,4.9,2.1,4.9,4.9
				C317.3,227.1,315.2,229.2,312.5,229.2z"/>
		</g>
		<g>
			<path class="st4" d="M279.8,215c-6,0-10.8,4.9-10.8,10.8s4.9,10.8,10.8,10.8s10.8-4.9,10.8-10.8S285.7,215,279.8,215z
				 M279.8,230.4c-2.5,0-4.6-2-4.6-4.6s2-4.6,4.6-4.6s4.6,2,4.6,4.6S282.3,230.4,279.8,230.4z"/>
		</g>
	</g>
	<line class="st17" x1="280.7" y1="190.9" x2="307.8" y2="191.1"/>
	<line class="st17" x1="280.7" y1="194.7" x2="307.8" y2="194.9"/>
</g>
</svg>
