<?xml version="1.0" encoding="utf-8"?>
<!-- Generator: Adobe Illustrator 20.0.0, SVG Export Plug-In . SVG Version: 6.00 Build 0)  -->
<svg version="1.1" id="Layer_1" xmlns="http://www.w3.org/2000/svg" xmlns:xlink="http://www.w3.org/1999/xlink" x="0px" y="0px"
	 viewBox="0 0 612 612" style="enable-background:new 0 0 612 612;" xml:space="preserve">
<style type="text/css">
	.st0{fill:#FEE7A5;}
	.st1{clip-path:url(#SVGID_2_);}
	.st2{opacity:0.6;fill:#16A4B1;enable-background:new    ;}
	.st3{fill:#15A4B3;}
	.st4{fill:#FDFEFD;}
	.st5{fill:#16A4B1;}
	.st6{fill:#62A1C4;}
	.st7{fill:#6AA8CD;}
	.st8{fill:#125CA5;}
	.st9{fill:#39A1D4;}
	.st10{fill:#C4DEE1;}
	.st11{fill:#9FC4D5;}
	.st12{fill:#EFB378;}
	.st13{fill:#383739;}
	.st14{fill:#0C0C0C;}
	.st15{fill:#F2F2F2;}
	.st16{fill:#FEE18F;}
	.st17{fill:#FFCA2A;}
	.st18{fill:#3A9444;}
	.st19{fill:#EF4237;}
	.st20{fill:#BE202E;}
	.st21{fill:#55595C;}
	.st22{fill:#BBBDBF;}
	.st23{fill:#333333;}
	.st24{fill:#FFFFFF;}
	.st25{fill:#E7E7E7;}
	.st26{opacity:0.8;}
	.st27{fill:#FFFDF6;}
	.st28{opacity:0.6;}
	.st29{fill:none;stroke:#FFFFFF;stroke-width:2;stroke-miterlimit:10;stroke-dasharray:6;}
	.st30{fill:#F6C89E;}
</style>
<g id="Arrow_7">
</g>
<g>
	<path class="st0" d="M306,0c169,0,306,137,306,306S475,612,306,612S0,475,0,306C0,137.1,137,0,306,0L306,0z"/>
	<g>
		<g>
			<g>
				<defs>
					<path id="SVGID_1_" d="M306,0c169,0,306,137,306,306S475,612,306,612S0,475,0,306C0,137.1,137,0,306,0L306,0z"/>
				</defs>
				<clipPath id="SVGID_2_">
					<use xlink:href="#SVGID_1_"  style="overflow:visible;"/>
				</clipPath>
				<g class="st1">
					<rect id="sky" x="-20.7" y="-24.1" class="st0" width="646.3" height="646.3"/>
					<g id="Element">
						<g id="building">
							<rect x="251.6" y="319.7" class="st2" width="106.5" height="302.5"/>
							<rect x="30" y="352.3" class="st2" width="97.6" height="269.9"/>
							<rect x="406.1" y="352.3" class="st2" width="89.9" height="269.9"/>
							<rect x="556.8" y="385.4" class="st2" width="71.4" height="236.8"/>
							<rect x="91.9" y="374.6" class="st3" width="71.4" height="247.6"/>
							<rect x="320.2" y="374.6" class="st4" width="71.4" height="247.6"/>
							<g>
								<polygon class="st5" points="309.6,360.2 254.9,360.2 254.9,409.9 238.8,409.9 238.8,341.6 205.3,341.6 205.3,622.2 
									309.6,622.2 								"/>
								<g>
									<g>
										<rect x="220.8" y="418" class="st4" width="11.8" height="13.7"/>
										<rect x="220.8" y="396.9" class="st4" width="11.8" height="13.7"/>
										<rect x="220.8" y="375.8" class="st4" width="11.8" height="13.7"/>
										<rect x="220.8" y="354.7" class="st4" width="11.8" height="13.7"/>
										<rect x="241.3" y="418" class="st4" width="11.8" height="13.7"/>
										<rect x="260.8" y="418" class="st4" width="11.8" height="13.7"/>
										<rect x="280.1" y="418" class="st4" width="11.8" height="13.7"/>
										<rect x="260.8" y="397.5" class="st4" width="11.8" height="13.7"/>
										<rect x="280.1" y="397.5" class="st4" width="11.8" height="13.7"/>
										<rect x="260.8" y="378.9" class="st4" width="11.8" height="13.7"/>
										<rect x="280.1" y="378.9" class="st4" width="11.8" height="13.7"/>
									</g>
								</g>
								<g>
									<g>
										<rect x="220.8" y="442.8" class="st4" width="11.8" height="13.7"/>
										<rect x="241.3" y="442.8" class="st4" width="11.8" height="13.7"/>
										<rect x="260.8" y="442.8" class="st4" width="11.8" height="13.7"/>
										<rect x="280.1" y="442.8" class="st4" width="11.8" height="13.7"/>
									</g>
								</g>
								<g>
									<g>
										<rect x="220.8" y="465.1" class="st4" width="11.8" height="13.7"/>
										<rect x="241.3" y="465.1" class="st4" width="11.8" height="13.7"/>
										<rect x="260.8" y="465.1" class="st4" width="11.8" height="13.7"/>
										<rect x="280.1" y="465.1" class="st4" width="11.8" height="13.7"/>
									</g>
								</g>
								<g>
									<g>
										<rect x="220.8" y="490" class="st4" width="11.8" height="13.7"/>
										<rect x="241.3" y="490" class="st4" width="11.8" height="13.7"/>
										<rect x="260.8" y="490" class="st4" width="11.8" height="13.7"/>
										<rect x="280.1" y="490" class="st4" width="11.8" height="13.7"/>
									</g>
								</g>
								<g>
									<g>
										<rect x="220.8" y="513.5" class="st4" width="11.8" height="13.7"/>
										<rect x="241.3" y="513.5" class="st4" width="11.8" height="13.7"/>
										<rect x="260.8" y="513.5" class="st4" width="11.8" height="13.7"/>
										<rect x="280.1" y="513.5" class="st4" width="11.8" height="13.7"/>
									</g>
								</g>
								<g>
									<g>
										<rect x="220.8" y="538.4" class="st4" width="11.8" height="13.7"/>
										<rect x="241.3" y="538.4" class="st4" width="11.8" height="13.7"/>
										<rect x="260.8" y="538.4" class="st4" width="11.8" height="13.7"/>
										<rect x="280.1" y="538.4" class="st4" width="11.8" height="13.7"/>
									</g>
								</g>
								<g>
									<g>
										<rect x="220.8" y="558.9" class="st4" width="11.8" height="13.7"/>
										<rect x="241.3" y="558.9" class="st4" width="11.8" height="13.7"/>
										<rect x="260.8" y="558.9" class="st4" width="11.8" height="13.7"/>
										<rect x="280.1" y="558.9" class="st4" width="11.8" height="13.7"/>
									</g>
								</g>
								<g>
									<g>
										<rect x="220.8" y="583.7" class="st4" width="11.8" height="13.7"/>
										<rect x="241.3" y="583.7" class="st4" width="11.8" height="13.7"/>
										<rect x="260.8" y="583.7" class="st4" width="11.8" height="13.7"/>
										<rect x="280.1" y="583.7" class="st4" width="11.8" height="13.7"/>
									</g>
								</g>
								<rect x="249.4" y="604.2" class="st4" width="15.5" height="18"/>
							</g>
							<g>
								<rect x="512.4" y="426.3" class="st6" width="104.3" height="195.9"/>
								<g>
									<g>
										<rect x="527.9" y="442.8" class="st4" width="11.8" height="13.7"/>
										<rect x="548.4" y="442.8" class="st4" width="11.8" height="13.7"/>
										<rect x="567.9" y="442.8" class="st4" width="11.8" height="13.7"/>
										<rect x="587.2" y="442.8" class="st4" width="11.8" height="13.7"/>
									</g>
								</g>
								<g>
									<g>
										<rect x="527.9" y="465.1" class="st4" width="11.8" height="13.7"/>
										<rect x="548.4" y="465.1" class="st4" width="11.8" height="13.7"/>
										<rect x="567.9" y="465.1" class="st4" width="11.8" height="13.7"/>
										<rect x="587.2" y="465.1" class="st4" width="11.8" height="13.7"/>
									</g>
								</g>
								<g>
									<g>
										<rect x="527.9" y="490" class="st4" width="11.8" height="13.7"/>
										<rect x="548.4" y="490" class="st4" width="11.8" height="13.7"/>
										<rect x="567.9" y="490" class="st4" width="11.8" height="13.7"/>
										<rect x="587.2" y="490" class="st4" width="11.8" height="13.7"/>
									</g>
								</g>
								<g>
									<g>
										<rect x="527.9" y="513.5" class="st4" width="11.8" height="13.7"/>
										<rect x="548.4" y="513.5" class="st4" width="11.8" height="13.7"/>
										<rect x="567.9" y="513.5" class="st4" width="11.8" height="13.7"/>
										<rect x="587.2" y="513.5" class="st4" width="11.8" height="13.7"/>
									</g>
								</g>
								<g>
									<g>
										<rect x="527.9" y="538.4" class="st4" width="11.8" height="13.7"/>
										<rect x="548.4" y="538.4" class="st4" width="11.8" height="13.7"/>
										<rect x="567.9" y="538.4" class="st4" width="11.8" height="13.7"/>
										<rect x="587.2" y="538.4" class="st4" width="11.8" height="13.7"/>
									</g>
								</g>
								<g>
									<g>
										<rect x="527.9" y="558.9" class="st4" width="11.8" height="13.7"/>
										<rect x="548.4" y="558.9" class="st4" width="11.8" height="13.7"/>
										<rect x="567.9" y="558.9" class="st4" width="11.8" height="13.7"/>
										<rect x="587.2" y="558.9" class="st4" width="11.8" height="13.7"/>
									</g>
								</g>
								<g>
									<g>
										<rect x="527.9" y="583.7" class="st4" width="11.8" height="13.7"/>
										<rect x="548.4" y="583.7" class="st4" width="11.8" height="13.7"/>
										<rect x="567.9" y="583.7" class="st4" width="11.8" height="13.7"/>
										<rect x="587.2" y="583.7" class="st4" width="11.8" height="13.7"/>
									</g>
								</g>
								<rect x="556.4" y="604.2" class="st4" width="15.5" height="18"/>
							</g>
							<g>
								<rect x="137.4" y="384.4" class="st6" width="67.9" height="237.7"/>
								<rect x="148.2" y="394.8" class="st4" width="17.9" height="20.8"/>
								<rect x="173.7" y="394.8" class="st4" width="17.9" height="20.8"/>
								<rect x="148.2" y="424.1" class="st4" width="17.9" height="20.8"/>
								<rect x="173.7" y="424.1" class="st4" width="17.9" height="20.8"/>
								<rect x="148.2" y="454.3" class="st4" width="17.9" height="20.8"/>
								<rect x="173.7" y="454.3" class="st4" width="17.9" height="20.8"/>
								<rect x="148.2" y="482.6" class="st4" width="17.9" height="20.8"/>
								<rect x="173.7" y="482.6" class="st4" width="17.9" height="20.8"/>
								<rect x="148.2" y="511.8" class="st4" width="17.9" height="20.8"/>
								<rect x="173.7" y="511.8" class="st4" width="17.9" height="20.8"/>
								<rect x="148.2" y="541" class="st4" width="17.9" height="20.8"/>
								<rect x="173.7" y="541" class="st4" width="17.9" height="20.8"/>
								<rect x="148.2" y="569.3" class="st4" width="17.9" height="20.8"/>
								<rect x="173.7" y="569.3" class="st4" width="17.9" height="20.8"/>
								<rect x="158.7" y="594.8" class="st4" width="23.6" height="27.4"/>
							</g>
							<g>
								<g>
									<g>
										<rect x="444.4" y="384.4" class="st6" width="67.9" height="237.7"/>
									</g>
								</g>
							</g>
							<g>
								<rect x="-20.7" y="420" class="st6" width="88.6" height="202.1"/>
								<g>
									<g>
										<g>
											<rect x="-8.1" y="434" class="st4" width="63.4" height="13.9"/>
										</g>
										<g>
											<rect x="-8.1" y="463.9" class="st4" width="63.4" height="13.9"/>
										</g>
										<g>
											<rect x="-8.1" y="493.9" class="st4" width="63.4" height="13.9"/>
										</g>
										<g>
											<rect x="-8.1" y="523.9" class="st4" width="63.4" height="13.9"/>
										</g>
										<g>
											<rect x="-8.1" y="553.9" class="st4" width="63.4" height="13.9"/>
										</g>
									</g>
								</g>
								<rect x="-8.1" y="407.9" class="st6" width="63.4" height="24.3"/>
							</g>
							<g>
								<rect x="355.9" y="420" class="st7" width="88.6" height="202.1"/>
								<g>
									<rect x="368.5" y="434" class="st8" width="63.4" height="13.9"/>
									<rect x="368.5" y="463.9" class="st8" width="63.4" height="13.9"/>
									<rect x="368.5" y="493.9" class="st8" width="63.4" height="13.9"/>
									<rect x="368.5" y="523.9" class="st8" width="63.4" height="13.9"/>
									<rect x="368.5" y="553.9" class="st8" width="63.4" height="13.9"/>
								</g>
								<rect x="368.5" y="407.9" class="st9" width="63.4" height="24.3"/>
							</g>
							<g>
								<rect x="68.2" y="440.9" class="st10" width="69.2" height="181.2"/>
								<g>
									<g>
										<g>
											<rect x="77.9" y="453.8" class="st4" width="18.4" height="13.1"/>
										</g>
										<g>
											<rect x="109.2" y="453.8" class="st4" width="18.4" height="13.1"/>
										</g>
									</g>
								</g>
								<g>
									<g>
										<g>
											<rect x="77.9" y="475.1" class="st4" width="18.4" height="13.1"/>
										</g>
										<g>
											<rect x="109.2" y="475.1" class="st4" width="18.4" height="13.1"/>
										</g>
									</g>
								</g>
								<g>
									<g>
										<g>
											<rect x="77.9" y="496.3" class="st4" width="18.4" height="13.1"/>
										</g>
										<g>
											<rect x="109.2" y="496.3" class="st4" width="18.4" height="13.1"/>
										</g>
									</g>
								</g>
								<g>
									<g>
										<g>
											<rect x="77.9" y="517.6" class="st4" width="18.4" height="13.1"/>
										</g>
										<g>
											<rect x="109.2" y="517.6" class="st4" width="18.4" height="13.1"/>
										</g>
									</g>
								</g>
								<g>
									<g>
										<g>
											<rect x="77.9" y="539.3" class="st4" width="18.4" height="13.1"/>
										</g>
										<g>
											<rect x="109.2" y="539.3" class="st4" width="18.4" height="13.1"/>
										</g>
									</g>
								</g>
								<g>
									<g>
										<g>
											<rect x="77.9" y="560.9" class="st4" width="18.4" height="13.1"/>
										</g>
										<g>
											<rect x="109.2" y="560.9" class="st4" width="18.4" height="13.1"/>
										</g>
									</g>
								</g>
								<rect x="88.5" y="581.4" class="st4" width="28.4" height="40.8"/>
							</g>
							<g>
								<g>
									<g>
										<g>
											<rect x="298.7" y="440.9" class="st4" width="69.2" height="181.2"/>
										</g>
									</g>
								</g>
								<g>
									<g>
										<g>
											<g>
												<rect x="308.4" y="453.8" class="st9" width="18.4" height="13.1"/>
											</g>
											<g>
												<rect x="339.7" y="453.8" class="st9" width="18.4" height="13.1"/>
											</g>
										</g>
										<g>
											<g>
												<rect x="308.4" y="475.1" class="st9" width="18.4" height="13.1"/>
											</g>
											<g>
												<rect x="339.7" y="475.1" class="st9" width="18.4" height="13.1"/>
											</g>
										</g>
										<g>
											<g>
												<rect x="308.4" y="496.3" class="st9" width="18.4" height="13.1"/>
											</g>
											<g>
												<rect x="339.7" y="496.3" class="st9" width="18.4" height="13.1"/>
											</g>
										</g>
										<g>
											<g>
												<rect x="308.4" y="517.6" class="st9" width="18.4" height="13.1"/>
											</g>
											<g>
												<rect x="339.7" y="517.6" class="st9" width="18.4" height="13.1"/>
											</g>
										</g>
										<g>
											<g>
												<rect x="308.4" y="539.3" class="st9" width="18.4" height="13.1"/>
											</g>
											<g>
												<rect x="339.7" y="539.3" class="st9" width="18.4" height="13.1"/>
											</g>
										</g>
										<g>
											<g>
												<rect x="308.4" y="560.9" class="st9" width="18.4" height="13.1"/>
											</g>
											<g>
												<rect x="339.7" y="560.9" class="st9" width="18.4" height="13.1"/>
											</g>
										</g>
										<rect x="319.1" y="581.4" class="st9" width="28.4" height="40.8"/>
									</g>
								</g>
							</g>
							<g>
								<g>
									<rect x="455.3" y="394.8" class="st11" width="17.9" height="20.8"/>
									<rect x="480.8" y="394.8" class="st11" width="17.9" height="20.8"/>
									<rect x="455.3" y="424.1" class="st11" width="17.9" height="20.8"/>
									<rect x="480.8" y="424.1" class="st11" width="17.9" height="20.8"/>
									<rect x="455.3" y="454.3" class="st11" width="17.9" height="20.8"/>
									<rect x="480.8" y="454.3" class="st11" width="17.9" height="20.8"/>
									<rect x="455.3" y="482.6" class="st11" width="17.9" height="20.8"/>
									<rect x="480.8" y="482.6" class="st11" width="17.9" height="20.8"/>
									<rect x="455.3" y="511.8" class="st11" width="17.9" height="20.8"/>
									<rect x="480.8" y="511.8" class="st11" width="17.9" height="20.8"/>
									<rect x="455.3" y="541" class="st11" width="17.9" height="20.8"/>
									<rect x="480.8" y="541" class="st11" width="17.9" height="20.8"/>
									<rect x="455.3" y="569.3" class="st11" width="17.9" height="20.8"/>
									<rect x="480.8" y="569.3" class="st11" width="17.9" height="20.8"/>
									<rect x="465.8" y="594.8" class="st11" width="23.6" height="27.4"/>
								</g>
							</g>
						</g>
						<g id="hand__and_mobile">
							<path class="st12" d="M362.1,361.3c3.2,7.4-0.1,16-7.5,19.2l-41.2,21.3c-7.4,3.2-16-0.1-19.2-7.5l0,0
								c-3.2-7.4,0.1-16,7.5-19.2l41.2-21.3C350.3,350.5,358.9,353.9,362.1,361.3L362.1,361.3z"/>
							<g>
								<g>
									<g>
										<path class="st12" d="M251.5,521.4l40.7-60.8c8.4-10.3,6.9-25.5-3.4-34l-30.5-24.8c-10.3-8.4-25.5-6.9-34,3.4l-65.5,81.4
											L251.5,521.4z"/>
									</g>
									<g>
										<path class="st12" d="M259.7,377.1c-19.2,1.9-33.2,19.1-31.3,38.3l5.7,56.6c1.9,19.2,19.1,33.2,38.3,31.3l75.9-7.5
											c19.2-1.9,33.2-19.1,31.3-38.3l-5.7-56.6c-1.9-19.2-19.1-33.2-38.3-31.3L259.7,377.1z"/>
									</g>
									<g>
										<g>
											<path class="st13" d="M382.2,474.2c0,5.3-4.3,9.6-9.6,9.6H275c-5.3,0-9.6-4.3-9.6-9.6V274.4c0-5.3,4.3-9.6,9.6-9.6h97.6
												c5.3,0,9.6,4.3,9.6,9.6V474.2z"/>
										</g>
										<g>
											<path class="st14" d="M372.5,264.8h-48.8v219h48.8c5.3,0,9.6-4.3,9.6-9.6V274.4C382.2,269.1,377.8,264.8,372.5,264.8z"/>
										</g>
										<rect x="272.5" y="288.4" class="st15" width="102.4" height="161.6"/>
										<g>
											<g>
												<rect x="272.5" y="288.4" class="st16" width="102.4" height="161.6"/>
											</g>
											<g>
												<path class="st17" d="M374.9,327.2c-4.1-3.7-9.2-6.3-14.8-8c-18.4-5.7-39.7-11.7-44.6-30.9h-6.6
													c3.9,17.9,19.8,28,37.7,33.8c2.7,0.9,5.4,1.6,8.1,2.3c-0.6,0.4-1.1,1-1.3,2c-2.4,14.7-8.6,28.3-12.3,42.6
													c-1.1,4.1,5.2,5.8,6.3,1.7c3.7-14.3,9.9-27.9,12.3-42.6c0.1-0.9-0.1-1.7-0.4-2.3c6.1,2.1,11.7,5,15.2,11.1
													c0.1,0.3,0.3,0.5,0.4,0.8L374.9,327.2L374.9,327.2z"/>
												<path class="st17" d="M292.1,288.4c-0.6,15.3-10.1,28.8-19.5,40.8v10.4c3.7-4.7,7.6-9.5,11.2-14.6
													c6.7,6.9,14.6,12.9,19.4,21.3c3,5.3,3.5,12.1,4.2,18.1c0.7,6.2,1,12.4,1.2,18.6c0.3,10.6-0.2,21.4-0.5,32.1
													c-11.7-0.2-22.8,3.7-33.7,7.4c-0.8,0.3-1.3,0.7-1.7,1.3v3.8c0.7,1.1,1.9,1.7,3.4,1.2c10.4-3.5,20.8-7.3,31.8-7.1
													c-0.2,9.5-0.1,19,0.8,28.5h6.5c-1.3-12-0.6-24.1-0.2-36.1c0.2-6.1,0.3-12.2,0.3-18.3c14.7,10.8,31.8,17.6,47.1,27.6
													c3.5,2.3,6.8-3.3,3.3-5.6c-16.2-10.6-34.9-17.5-49.9-29.8c-0.2-0.1-0.4-0.3-0.6-0.4c-0.1-4-0.2-8-0.4-12
													c-0.5-11.2-1.1-23.8-6.7-33.8c-5-8.8-13.6-14.9-20.5-22.2c6.1-9.5,10.7-19.8,11.1-31h-6.6L292.1,288.4L292.1,288.4z"/>
											</g>
											<g>
												<polygon class="st18" points="374.9,339.7 360.8,334 338.8,400.8 374.9,418.3 												"/>
											</g>
											<g>
												<g>
													<g>
														<path class="st19" d="M332.6,350L332.6,350c-15.6,0-28.2,12.6-28.2,28.2c0,5.1,1.4,9.9,3.8,14.1l24.4,42.3l24.4-42.3
															c2.4-4.1,3.8-9,3.8-14.1C360.8,362.6,348.2,350,332.6,350z M332.6,385.2L332.6,385.2c-3.9,0-7-3.2-7-7
															c0-3.9,3.2-7,7-7l0,0c3.9,0,7,3.2,7,7C339.7,382.1,336.5,385.2,332.6,385.2z"/>
													</g>
												</g>
												<path class="st20" d="M332.6,350c-0.1,0-0.2,0-0.3,0v21.1c0.1,0,0.2,0,0.3,0c3.9,0,7,3.2,7,7c0,3.9-3.2,7-7,7
													c-0.1,0-0.2,0-0.3,0v48.8l0.3,0.5l24.4-42.3c2.4-4.1,3.8-9,3.8-14.1C360.8,362.6,348.2,350,332.6,350z"/>
											</g>
										</g>
										<path class="st21" d="M309,279.2c-1.7,0-3-1.3-3-3s1.3-3,3-3h29.5c1.7,0,3,1.3,3,3s-1.3,3-3,3H309z"/>
										<path class="st22" d="M334.6,472.4c0,2.7-2.2,4.8-4.8,4.8h-12c-2.7,0-4.8-2.2-4.8-4.8v-12c0-2.7,2.2-4.8,4.8-4.8h12
											c2.7,0,4.8,2.2,4.8,4.8V472.4z"/>
										<path class="st23" d="M317.7,457.5c-1.6,0-2.9,1.3-2.9,2.9v12c0,1.6,1.3,2.9,2.9,2.9h12c1.6,0,2.9-1.3,2.9-2.9v-12
											c0-1.6-1.3-2.9-2.9-2.9H317.7z M317.7,457.5c-1.6,0-2.9,1.3-2.9,2.9v12c0,1.6,1.3,2.9,2.9,2.9h12c1.6,0,2.9-1.3,2.9-2.9
											v-12c0-1.6-1.3-2.9-2.9-2.9H317.7z"/>
										<g>
											<path class="st14" d="M329.7,457.5h-6v17.8h6c1.6,0,2.9-1.3,2.9-2.9v-12C332.6,458.8,331.3,457.5,329.7,457.5z"/>
										</g>
									</g>
								</g>
							</g>
							<g>
								<g>
									<g>
										<g>
											<path class="st12" d="M270.4,360.1V318c0-11.1-8.7-20.4-19.4-20.8l-6.5-0.2c-0.3,0-0.5,0-0.8,0l-0.1,40.3L270.4,360.1z"
												/>
										</g>
									</g>
									<g>
										<polygon class="st12" points="270.4,327.8 270.4,384.5 242.7,376.1 243.6,323.6 										"/>
									</g>
									<g>
										<path class="st12" d="M180.5,456.3l67-92.7c2.7,1.2,9.3-2.8,11.8-1.1c24,17.3,18.7,56.9-4.1,88.5
											c-11.9,16.5-21.7,27.6-37.7,32L180.5,456.3z"/>
									</g>
								</g>
							</g>
							<g>
								<g>
									
										<rect x="187.2" y="421.3" transform="matrix(0.8692 -0.4944 0.4944 0.8692 -208.1763 168.2874)" class="st24" width="53.7" height="112.8"/>
									<polygon class="st14" points="-20.7,541.8 -20.7,622.2 83.2,622.2 241.7,532 181.8,426.6 									"/>
									
										<rect x="200.5" y="421.7" transform="matrix(0.8692 -0.4944 0.4944 0.8692 -211.4299 165.1854)" class="st13" width="12.1" height="121.2"/>
								</g>
								<path class="st25" d="M248.3,514c-2.6,1.5-5.9,0.6-7.4-2s-0.6-5.9,2-7.4s5.9-0.6,7.4,2C251.8,509.3,250.9,512.6,248.3,514z"
									/>
							</g>
							<path class="st12" d="M402.8,449.9c0.7,7.1-4.5,13.5-11.6,14.2l-5.9,0.6c-7.1,0.7-13.4-4.5-14.2-11.6l0,0
								c-0.7-7.1,4.5-13.5,11.6-14.2l5.9-0.7C395.8,437.6,402.1,442.8,402.8,449.9L402.8,449.9z"/>
							<path class="st12" d="M403.8,422.9c0.7,7.1-4.5,13.5-11.6,14.2l-6,0.6c-7.1,0.7-13.4-4.5-14.2-11.6l0,0
								c-0.7-7.1,4.5-13.5,11.6-14.2l5.9-0.7C396.7,410.6,403.1,415.8,403.8,422.9L403.8,422.9z"/>
							<path class="st12" d="M403.8,395.9c0.7,7.1-4.5,13.5-11.6,14.2l-6,0.6c-7.1,0.7-13.4-4.5-14.2-11.6l0,0
								c-0.7-7.1,4.5-13.5,11.6-14.2l5.9-0.7C396.7,383.7,403.1,388.8,403.8,395.9L403.8,395.9z"/>
							<path class="st12" d="M403.8,368.8c0.7,7.1-4.5,13.5-11.6,14.2l-7.1,0.6c-7.1,0.7-13.4-4.5-14.2-11.6l0,0
								c-0.7-7.1,4.5-13.5,11.6-14.2l7.1-0.7C396.7,356.5,403.1,361.7,403.8,368.8L403.8,368.8z"/>
						</g>
						<g id="icon">
							<g class="st26">
								<g>
									<path class="st27" d="M458.1,32.1l-8.7-9.5c0,0-0.1,0-0.1-0.1c1.3-2.4,1.7-5.2,0.9-8c-1.7-5.3-7.3-8.3-12.6-6.6
										c-5.3,1.7-8.3,7.3-6.6,12.7c1.7,5.3,7.3,8.3,12.6,6.6c0.8-0.3,1.6-0.6,2.3-1.1l8.5,9.3c0.3,0.3,0.8,0.2,1.3-0.2l2-1.8
										C458.2,32.9,458.3,32.4,458.1,32.1z M433.5,19.8c-1.2-3.9,0.9-8,4.8-9.2s8,0.9,9.2,4.8c1.2,3.9-1,8-4.8,9.2
										C438.9,25.8,434.7,23.7,433.5,19.8z"/>
									<g>
										<path class="st27" d="M437,14.6c3.9-1.2,8.2,1,9.4,4.9c0,0.1,0.1,0.2,0.1,0.3c0.5-1.3,0.6-2.7,0.1-4.1
											c-1-3.3-4.6-5.2-7.9-4.1c-2.1,0.7-3.6,2.4-4.2,4.4C435.3,15.4,436.1,14.9,437,14.6z"/>
									</g>
								</g>
								<g>
									<path class="st27" d="M279.9,126.8c2.2,0,3.9,1.6,4.1,3.7h0.1l1.5-0.6c-0.4-2.7-2.8-4.7-5.6-4.7c-2.9,0-5.2,2.1-5.6,4.8
										l1.3,0.6h0.2C275.9,128.4,277.7,126.8,279.9,126.8z"/>
									<path class="st27" d="M279.7,117.8c-6,0-10.9,4.3-11.7,9.9l2.8,1.3h0.3c0.4-4.3,4-7.6,8.5-7.6s8.1,3.3,8.5,7.6h0.2l3.1-1.3
										C290.6,122,285.7,117.8,279.7,117.8z"/>
									<path class="st27" d="M280.1,107.9c-10.3,0-18.9,7.4-20.3,17.1l4.8,2.2h0.6c0.6-7.4,7-13.2,14.8-13.2s14.1,5.8,14.8,13.2
										h0.3l5.4-2.2C299,115.3,290.5,107.9,280.1,107.9z"/>
									<path class="st27" d="M285.5,146H281v-11.1c0.9-0.5,1.6-1.4,1.6-2.5c0-1.6-1.3-2.8-2.8-2.8c-1.6,0-2.8,1.3-2.8,2.8
										c0,1.1,0.7,2.1,1.7,2.6v11.1h-4.4c-1,0-1.9,0.7-1.9,1.5s0.8,1.5,1.9,1.5h11.3c1,0,1.9-0.7,1.9-1.5
										C287.4,146.6,286.5,146,285.5,146z"/>
								</g>
								<g>
									<path class="st27" d="M324,177.7c-6.1,0-11.1,5-11.1,11.1s11.1,20.8,11.1,20.8s11.1-14.6,11.1-20.8
										C335.1,182.7,330.1,177.7,324,177.7z M324,193.6c-3.1,0-5.5-2.5-5.5-5.5c0-3.1,2.5-5.5,5.5-5.5c3.1,0,5.5,2.5,5.5,5.5
										S327.1,193.6,324,193.6z"/>
								</g>
								<path class="st27" d="M267.1,244.2c0-2-1.5-3.7-3.4-4c0.1-0.9,0.2-1.7,0.2-2.6c0-9.3-7.5-16.8-16.8-16.8
									s-16.8,7.5-16.8,16.8c0,0.8,0.1,1.5,0.2,2.2c-2.1,0.1-3.8,1.9-3.8,4.1c0,2.3,1.8,4.1,4.1,4.1c0.2,0,0.4,0,0.6-0.1v1.7
									c0,1,0.8,1.8,1.8,1.8h2.9c1,0,1.8-0.8,1.8-1.8v-11.1c0-1-0.8-1.8-1.8-1.8h-2.9c-0.3,0-0.6,0.1-0.9,0.3
									c1.3-7,7.4-12.3,14.8-12.3c7.5,0,13.8,5.5,14.9,12.8c-0.3-0.4-0.8-0.7-1.4-0.7h-2.9c-1,0-1.8,0.8-1.8,1.8v11.1
									c0,1,0.8,1.8,1.8,1.8h2.9c0.3,0,0.5-0.1,0.7-0.2c-1.7,3.6-4.6,6.4-8.1,7.4c-0.4-1.4-1.8-2.4-3.5-2.4c-2,0-3.7,1.4-3.7,3.1
									s1.6,3.1,3.7,3.1c1.5,0,2.9-0.8,3.4-2c5.4-1,9.6-6,10.7-12.3C265.7,247.9,267.1,246.2,267.1,244.2z M262.4,248.2
									L262.4,248.2c0,0.1,0,0.1,0,0.1V248.2z"/>
								<g>
									<path class="st27" d="M203.4,196.8v-9.1c0-2.3-1-3.6-1.9-4.3c-0.9-0.7-1.9-0.9-2-0.9h-0.1l-4.9,0.1c0.1-2.4,0.1-5-0.2-6
										c-0.3-1.1-1.2-1.8-2.3-1.8c-0.9,0-1.6,0.4-1.8,0.6l-0.3,0.2l-4.9,7.1l-7.9,2.9v12.7l9.1,5.3l13.6-0.1l0.3-0.1
										C203.5,201.7,203.4,197.5,203.4,196.8z M199.5,202.1L199.5,202.1l-13,0.1l-8.2-4.8v-11.1l7.4-2.7l5-7.3h0.1
										c0,0,0.6-0.4,1.2-0.4c0.5,0,0.9,0.3,1.1,0.9c0.3,1.1,0.2,5.7,0.1,6.9l6.1-0.1l0,0c0,0,0.7,0.1,1.5,0.7
										c0.7,0.5,1.4,1.5,1.4,3.3v9.2C202.1,197.1,202.3,200.9,199.5,202.1z"/>
									<rect x="167.5" y="184.6" class="st27" width="7.9" height="15"/>
								</g>
								<g>
									<path class="st27" d="M522.5,188.1h-3.1c2.2-0.7,3.7-2.7,3.7-5.1v-22c0-2.9-2.4-5.3-5.3-5.3h-28.2c-2.9,0-5.3,2.4-5.3,5.3
										v22c0,2.4,1.6,4.4,3.7,5.1h-3.4c-1.5,0-2.8,1.2-2.8,2.8c0,1.5,1.2,2.8,2.8,2.8h37.9c1.5,0,2.8-1.2,2.8-2.8
										C525.3,189.3,524.1,188.1,522.5,188.1z M507.2,192.2h-7.5c-0.4,0-0.7-0.3-0.7-0.7c0-0.4,0.3-0.7,0.7-0.7h7.5
										c0.4,0,0.7,0.3,0.7,0.7C507.9,191.9,507.6,192.2,507.2,192.2z M489.6,185.9c-1.6,0-2.9-1.3-2.9-2.9v-22
										c0-1.6,1.3-2.9,2.9-2.9h28.2c1.6,0,2.9,1.3,2.9,2.9v22c0,1.6-1.3,2.9-2.9,2.9H489.6z"/>
									<polygon class="st27" points="497.8,180.4 513.4,172 497.7,164.3 									"/>
								</g>
								<path class="st27" d="M87.4,257.8l-5.6-21.3c-0.3-0.9-1.2-1.5-2.2-1.3c-0.9,0.2-1.4,1-1.3,1.9l-30.5,14.7l-2.3,0.6l2.7,10.4
									l2.3-0.6l-1.1-3.9l0.8-0.2l1.1,3.8l7.3-0.6c0,0.4,0.1,0.9,0.2,1.3c0.9,3.3,4.1,5.2,7.2,4.4c2.9-0.8,4.7-3.7,4.3-6.7
									l13.5-1.1L79.3,243l0.6-0.2l4.7,16.8c0.4,0.3,0.9,0.4,1.5,0.3C87.1,259.7,87.7,258.7,87.4,257.8z M65.4,264.5
									c-1.8,0.5-3.7-0.7-4.2-2.6c-0.1-0.3-0.1-0.6-0.1-0.8l6.8-0.6C68.1,262.4,67.1,264.1,65.4,264.5z M75.8,242.6l-23.7,11.8
									c-0.7,0.3-1.5,0.1-1.8-0.6s-0.1-1.5,0.6-1.8l23.7-11.8c0.7-0.3,1.5-0.1,1.8,0.6C76.8,241.5,76.5,242.3,75.8,242.6z"/>
								<g>
									<path class="st27" d="M547,83.6c-1.9,0-3.4,1.5-3.4,3.3s1.5,3.3,3.4,3.3s3.4-1.5,3.4-3.3S548.9,83.6,547,83.6z"/>
									<path class="st27" d="M580,76.3h-15.7c-2.5,0-4.5,2-4.5,4.5v2.8h-3V80c0-2.5-2-4.5-4.5-4.5h-10.4c-2.5,0-4.5,2-4.5,4.5
										v32.5c0,2.5,2,4.5,4.5,4.5h10.4c2.5,0,4.5-2,4.5-4.5V88.4h3v2c0,2.5,2,4.5,4.5,4.5H580c2.5,0,4.5-2,4.5-4.5v-9.6
										C584.6,78.3,582.5,76.3,580,76.3z M551.6,112.5h-9.9c-0.9,0-1.7-0.8-1.7-1.7s0.8-1.7,1.7-1.7h9.9c0.9,0,1.7,0.8,1.7,1.7
										S552.6,112.5,551.6,112.5z M547,94c-4,0-7.2-3.2-7.2-7.1c0-3.9,3.2-7.1,7.2-7.1c3.9,0,7.2,3.2,7.2,7.1S551,94,547,94z
										 M580.8,90.5c0,0.4-0.3,0.8-0.7,0.8h-15.7c-0.4,0-0.8-0.3-0.8-0.8v-9.7c0-0.4,0.3-0.8,0.8-0.8H580c0.4,0,0.7,0.3,0.7,0.8
										L580.8,90.5L580.8,90.5z"/>
								</g>
								<path class="st27" d="M212,49.4c1-2.3,1.5-4.9,1.5-7.6c0-11.1-9-20.1-20.1-20.1s-20.1,9-20.1,20.1s9,20.1,20.1,20.1
									c8.2,0,15.3-4.9,18.4-12h0.2L212,49.4L212,49.4z M193.5,58.8c-2.7,0-5.5-3.5-7-9h14.1C199,55.3,196.1,58.8,193.5,58.8z
									 M185.8,46.8c-0.3-1.6-0.4-3.3-0.4-5.1c0-1.6,0.1-3.1,0.3-4.5h15.6c0.2,1.4,0.3,2.9,0.3,4.5c0,1.8-0.1,3.5-0.4,5.1H185.8z
									 M193.5,24.7c2.8,0,5.7,3.8,7.2,9.6h-14.4C187.7,28.5,190.7,24.7,193.5,24.7z M204.3,37.3h5.7c0.4,1.4,0.6,2.9,0.6,4.5
									c0,1.8-0.3,3.5-0.8,5.1h-5.6c0.2-1.6,0.4-3.3,0.4-5.1C204.6,40.2,204.5,38.7,204.3,37.3z M208.8,34.3h-5.1
									c-0.7-3.2-1.8-6-3.3-8.1C204.1,27.8,207.1,30.7,208.8,34.3z M186.5,26.2c-1.4,2.1-2.6,4.9-3.3,8.1h-5.1
									C179.9,30.7,182.8,27.8,186.5,26.2z M177,37.3h5.7c-0.2,1.4-0.3,3-0.3,4.5c0,1.8,0.1,3.5,0.4,5.1h-5.6
									c-0.5-1.6-0.8-3.3-0.8-5.1C176.4,40.2,176.6,38.7,177,37.3z M178.4,49.8h4.9c0.7,2.9,1.8,5.5,3.2,7.5
									C183,55.8,180.2,53.1,178.4,49.8z M200.5,57.3c1.4-2,2.4-4.6,3.2-7.5h4.9C206.7,53.1,203.9,55.8,200.5,57.3z"/>
								<g>
									<path class="st27" d="M523.8,251.7c0-0.3,0-0.6,0-0.9s0-0.6,0-0.9l-1.1-0.3c-0.1-0.6-0.2-1.2-0.5-1.7l0.8-0.8
										c-0.3-0.6-0.6-1.1-0.9-1.6l-1.1,0.3c-0.4-0.5-0.8-0.9-1.2-1.2l0.3-1.1c-0.5-0.4-1-0.7-1.6-0.9l-0.8,0.8
										c-0.5-0.2-1.1-0.4-1.7-0.5l-0.3-1.1c-0.3,0-0.6,0-0.9,0v4.1c2.8,0,5,2.2,5,5s-2.2,5-5,5v4.1c0.3,0,0.6,0,0.9,0l0.3-1.1
										c0.6-0.1,1.2-0.2,1.7-0.5l0.8,0.8c0.6-0.3,1.1-0.6,1.6-0.9l-0.3-1.1c0.5-0.4,0.9-0.8,1.2-1.2l1.1,0.3
										c0.4-0.5,0.7-1,0.9-1.6l-0.8-0.8c0.2-0.5,0.4-1.1,0.5-1.7L523.8,251.7z M514.7,241.6L514.7,241.6c-0.3,0-0.6,0-0.9,0
										l-0.3,1.1c-0.6,0.1-1.2,0.2-1.7,0.5l-0.8-0.8c-0.6,0.3-1.1,0.6-1.6,0.9l0.3,1.1c-0.5,0.4-0.9,0.8-1.2,1.2l-1.1-0.3
										c-0.4,0.5-0.7,1-0.9,1.6l0.8,0.8c-0.2,0.5-0.4,1.1-0.5,1.7l-1.1,0.3c0,0.3,0,0.6,0,0.9s0,0.6,0,0.9l1.1,0.3
										c0.1,0.6,0.2,1.2,0.5,1.7l-0.8,0.8c0.3,0.6,0.6,1.1,0.9,1.6l1.1-0.3c0.4,0.5,0.8,0.9,1.2,1.2l-0.3,1.1
										c0.5,0.4,1,0.7,1.6,0.9l0.8-0.8c0.5,0.2,1.1,0.4,1.7,0.5l0.3,1.1c0.3,0,0.6,0,0.9,0l0,0v-3.8c-2.8,0-5-2.2-5-5s2.2-5,5-5
										V241.6z"/>
									<path class="st27" d="M539.1,261c0.1,0.4,0.2,0.7,0.3,1.1s0.2,0.7,0.2,1.1l-1.2,0.7c0.1,0.7,0.1,1.5,0,2.2l1.2,0.7
										c-0.1,0.8-0.3,1.5-0.6,2.2h-1.4c-0.3,0.7-0.7,1.3-1.1,1.9l0.7,1.2c-0.5,0.6-1,1.1-1.6,1.6l-1.2-0.7
										c-0.6,0.4-1.2,0.8-1.9,1.1v1.4c-0.4,0.1-0.7,0.2-1.1,0.3c-0.4,0.1-0.7,0.2-1.1,0.2l-0.7-1.2c-0.3,0-0.6,0-1,0V271
										c0.5,0,1-0.1,1.5-0.2c3.3-0.8,5.3-4.2,4.4-7.5c-0.7-2.8-3.2-4.6-6-4.6v-3.8c0.4,0,0.8,0,1.2,0.1l0.7-1.2
										c0.8,0.1,1.5,0.3,2.2,0.6v1.4c0.7,0.3,1.3,0.7,1.9,1.1l1.2-0.7c0.6,0.5,1.1,1,1.6,1.6l-0.7,1.2c0.4,0.6,0.8,1.2,1.1,1.9
										L539.1,261z M528.6,274.8c-0.4,0-0.8,0-1.2-0.1l-0.7,1.2c-0.8-0.1-1.5-0.3-2.2-0.6v-1.4c-0.7-0.3-1.3-0.7-1.9-1.1l-1.2,0.7
										c-0.6-0.5-1.1-1-1.6-1.6l0.7-1.2c-0.4-0.6-0.8-1.2-1.1-1.9H518c-0.1-0.4-0.2-0.7-0.3-1.1s-0.2-0.7-0.2-1.1l1.2-0.7
										c-0.1-0.7-0.1-1.5,0-2.2l-1.2-0.7c0.1-0.8,0.3-1.5,0.6-2.2h1.4c0.3-0.7,0.7-1.3,1.1-1.9l-0.7-1.2c0.5-0.6,1-1.1,1.6-1.6
										l1.2,0.7c0.6-0.4,1.2-0.8,1.9-1.1v-1.4c0.4-0.1,0.7-0.2,1.1-0.3c0.4-0.1,0.7-0.2,1.1-0.2l0.7,1.2c0.3,0,0.7,0,1,0v3.8
										c-0.5,0-1,0.1-1.5,0.2c-3.3,0.8-5.3,4.2-4.4,7.5c0.7,2.8,3.2,4.6,6,4.6L528.6,274.8L528.6,274.8z"/>
								</g>
								<path class="st27" d="M118.4,90.3c0-0.6-0.1-1.1-0.4-1.6c0-0.1-0.1-0.3-0.1-0.4l-2.5-6.3v-0.1c-0.9-2.6-2.1-5.1-5.3-5.1
									H97.9c-3.3,0-4.4,2.5-5.3,5.1L90,88.2c-0.4,0.6-0.6,1.3-0.6,2.1v1.9c0,0.3,0,0.6,0.1,0.9c-0.1,0.2-0.1,0.4-0.1,0.6v5.8
									c0,0.9,0.7,1.5,1.5,1.5H94c0.8,0,1.5-0.7,1.5-1.5v-2.9h16.7v2.9c0,0.9,0.7,1.5,1.5,1.5h3c0.8,0,1.5-0.7,1.5-1.5v-5.8
									c0-0.2,0-0.4-0.1-0.6c0.1-0.3,0.1-0.6,0.1-0.9v-1.9H118.4z M94.4,82.6c1-2.8,1.8-3.7,3.5-3.7h12.2c1.6,0,2.5,1,3.4,3.7
									l1.8,3.7c-0.6-0.2-1.3-0.3-2-0.3h-19c-0.6,0-1.2,0.1-1.8,0.3L94.4,82.6z M96,93h-3.4c-0.6,0-1.1-0.5-1.1-1.1
									s0.5-1.1,1.1-1.1H96c0.6,0,1.1,0.5,1.1,1.1S96.6,93,96,93L96,93z M107.9,92.8h-7.8c-0.4,0-0.7-0.3-0.7-0.7s0.3-0.7,0.7-0.7
									h7.8c0.4,0,0.7,0.3,0.7,0.7S108.3,92.8,107.9,92.8L107.9,92.8z M115,93h-3.4c-0.6,0-1.1-0.5-1.1-1.1s0.5-1.1,1.1-1.1h3.4
									c0.6,0,1.1,0.5,1.1,1.1S115.6,93,115,93L115,93z"/>
								<g>
									<path class="st27" d="M387.9,244.1c-0.1-0.1-2.1-2.4-5.2-4.6c-4.3-3-8.7-4.7-12.8-4.7c-4.1,0-8.6,1.6-12.8,4.7
										c-3.2,2.3-5.2,4.5-5.2,4.6c-0.3,0.4-0.3,1,0,1.4c0.1,0.1,2.1,2.4,5.2,4.6c4.3,3,8.7,4.7,12.8,4.7c4.1,0,8.6-1.6,12.8-4.7
										c3.2-2.3,5.2-4.5,5.2-4.6C388.3,245.1,388.3,244.5,387.9,244.1z M381.4,248.4c-2.7,1.9-6.9,4.2-11.6,4.2
										c-4.6,0-8.9-2.3-11.6-4.2c-2-1.4-3.5-2.8-4.3-3.7c0.8-0.8,2.3-2.2,4.3-3.7c2.7-1.9,6.9-4.2,11.6-4.2
										c4.6,0,8.9,2.3,11.6,4.2c2,1.4,3.5,2.8,4.3,3.7C384.9,245.6,383.4,247,381.4,248.4z"/>
									<path class="st27" d="M375.2,243.8c-0.6,0-1,0.5-1,1c0,2.4-2,4.4-4.4,4.4s-4.3-2-4.3-4.4s2-4.4,4.3-4.4
										c1.1,0,2.1,0.4,2.9,1.1c0.4,0.4,1.1,0.3,1.5-0.1s0.3-1.1-0.1-1.5c-1.2-1-2.7-1.6-4.2-1.6c-3.5,0-6.4,2.9-6.4,6.4
										s2.9,6.4,6.4,6.4s6.4-2.9,6.4-6.4C376.3,244.2,375.8,243.8,375.2,243.8z"/>
									<circle class="st27" cx="369.9" cy="244.8" r="2.1"/>
								</g>
								<g>
									<path class="st27" d="M392.9,125L392.9,125h-3c-0.4,0-0.8,0.3-0.8,0.7c0,0.4,0.3,0.8,0.7,0.8l0,0h3c0.4,0,0.8-0.3,0.8-0.7
										C393.7,125.4,393.4,125,392.9,125z"/>
									<path class="st27" d="M399.5,125.8c0,1.4,1.1,2.5,2.5,2.5s2.5-1.1,2.5-2.5s-1.1-2.5-2.5-2.5S399.5,124.4,399.5,125.8z
										 M402.9,125.8c0,0.5-0.4,1-1,1c-0.5,0-1-0.4-1-1c0-0.5,0.4-1,1-1S402.9,125.2,402.9,125.8z"/>
									<path class="st27" d="M402.7,113.5c-0.1-0.3-0.4-0.5-0.7-0.5c-0.3,0-0.6,0.2-0.7,0.5l-4.5,12.1c-0.1,0.2-0.1,0.4,0,0.5
										l4.5,12.1c0.1,0.4,0.6,0.6,1,0.4c0.2-0.1,0.4-0.2,0.4-0.4l4.5-12.1c0.1-0.2,0.1-0.4,0-0.5L402.7,113.5z M402,135.7
										l-3.7-9.9l3.7-9.9l3.7,9.9L402,135.7z"/>
									<path class="st27" d="M407.1,107.6c-0.7-2.2-2.7-3.8-5.1-3.8s-4.4,1.6-5.1,3.8c-7.9,2.2-13.7,9.5-13.7,18.2
										c0,10.4,8.5,18.9,18.9,18.9s18.9-8.5,18.9-18.9C420.8,117.2,415,109.9,407.1,107.6z M402,105.4c1.4,0,2.6,0.7,3.3,1.9
										c-1.1-0.2-2.2-0.3-3.3-0.3c-1.1,0-2.2,0.1-3.3,0.3C399.4,106.1,400.6,105.4,402,105.4z M402,143.1
										c-9.6,0-17.4-7.8-17.4-17.4s7.8-17.4,17.4-17.4s17.4,7.8,17.4,17.4C419.3,135.4,411.6,143.1,402,143.1z"/>
									<path class="st27" d="M402,109.5c-9,0-16.3,7.3-16.3,16.3s7.3,16.3,16.3,16.3s16.3-7.3,16.3-16.3
										C418.2,116.8,410.9,109.5,402,109.5z M402,140.5c-8.2,0-14.8-6.6-14.8-14.8c0-8.2,6.6-14.8,14.8-14.8
										c8.2,0,14.8,6.6,14.8,14.8C416.7,133.9,410.1,140.5,402,140.5z"/>
									<path class="st27" d="M414.1,125C414.1,125,414,125,414.1,125h-3c-0.4,0-0.8,0.3-0.8,0.7c0,0.4,0.3,0.8,0.7,0.8l0,0h3
										c0.4,0,0.8-0.3,0.8-0.7C414.8,125.4,414.5,125,414.1,125z"/>
								</g>
								<g>
									<path class="st27" d="M327.1,21.5h-24.4c-0.6,0-1.1,0.5-1.1,1.1v38.2c0,0.6,0.5,1.1,1.1,1.1h24.4c0.6,0,1.1-0.5,1.1-1.1
										v-5.7c0,0,0,0,0.1,0h1.3V57c0,1.7,1.4,3,3,3c1.7,0,3-1.4,3-3V42.7c0-0.2,0-0.3-0.1-0.5l-1.4-3v-5.9c0-0.2,0-0.4-0.1-0.5
										l-1.6-3c-0.3-0.5-1-0.7-1.5-0.4s-0.7,1-0.4,1.5l1.5,2.7v5.9c0,0.2,0,0.3,0.1,0.5l1.4,3v14c0,0.5-0.4,0.9-0.9,0.9
										s-0.9-0.4-0.9-0.9v-3c0-0.6-0.5-1.1-1.1-1.1l-2.4-0.1l0,0h-0.1V22.4C328.2,22,327.7,21.5,327.1,21.5L327.1,21.5z M326,59.8
										h-22.2V23.7H326V59.8L326,59.8z"/>
									<path class="st27" d="M307.6,37.2h14.6c0.6,0,1.1-0.5,1.1-1.1v-7.9c0-0.6-0.5-1.1-1.1-1.1h-14.6c-0.6,0-1.1,0.5-1.1,1.1
										v7.9C306.5,36.7,307,37.2,307.6,37.2L307.6,37.2z M308.7,29.3h12.5V35h-12.5V29.3z"/>
								</g>
							</g>
							<g class="st28">
								<path class="st27" d="M470,220.8c2.4-2.6,3.8-6.1,3.8-10c0-8.3-6.7-15-15-15c-1,0-1.9,0.1-2.8,0.3
									c-5.5-10.5-16.5-17.7-29.2-17.7c-11.3,0-21.3,5.7-27.2,14.4c-2.9-1.2-6.1-1.9-9.4-1.9c-10.8,0-19.9,7.2-22.7,17
									c-1.8-0.8-3.8-1.2-5.9-1.2c-8,0-14.5,6.3-14.9,14.1L470,220.8L470,220.8z"/>
								<path class="st27" d="M233.3,163.9c-6.6-11.6-19-19.4-33.3-19.4c-0.7,0-1.3,0-2,0.1c-5.6-14.3-19.4-24.4-35.7-24.4
									c-14.8,0-27.7,8.5-34.1,20.8c-3.1-1.6-6.6-2.6-10.3-2.6c-12.1,0-21.9,9.8-21.9,21.9c0,1.2,0.1,2.5,0.3,3.6H233.3z"/>
								<path class="st27" d="M550.7,71.7c0.1-0.6,0.1-1.2,0.1-1.9c0-6.5-3.3-12.3-8.3-15.7c0-0.1,0-0.2,0-0.3
									c0-8-6.5-14.5-14.5-14.5c-1.8,0-3.5,0.3-5.1,0.9c-3.5-7.4-11-12.4-19.7-12.4c-10,0-18.4,6.7-21,15.9c-2.3-1.4-5-2.2-7.9-2.2
									c-8.7,0-15.7,7-15.7,15.7c-8.2,0-14.9,6.3-15.6,14.4h107.7V71.7z"/>
								<path class="st27" d="M35.3,47.3c0-0.4-0.1-0.9-0.1-1.3c0-4.5,2.3-8.5,5.8-10.9c0-0.1,0-0.1,0-0.2c0-5.5,4.5-10,10-10
									c1.2,0,2.4,0.2,3.5,0.6c2.4-5.1,7.6-8.6,13.7-8.6c6.9,0,12.8,4.7,14.6,11c1.6-1,3.5-1.5,5.5-1.5c6,0,10.9,4.9,10.9,10.9
									c5.7,0,10.4,4.4,10.8,10H35.3z"/>
								<line class="st29" x1="342.5" y1="49.8" x2="402" y2="49.8"/>
								<line class="st29" x1="402" y1="49.8" x2="402" y2="101.2"/>
								<g>
									<line class="st29" x1="427.1" y1="125.8" x2="496.9" y2="125.8"/>
									<line class="st29" x1="496.9" y1="125.8" x2="496.9" y2="151.4"/>
								</g>
								<g>
									<g>
										<line class="st29" x1="125" y1="89" x2="314.9" y2="89"/>
										<line class="st29" x1="314.9" y1="89" x2="314.9" y2="66.8"/>
									</g>
								</g>
								<g>
									<line class="st29" x1="560.9" y1="103.8" x2="584.6" y2="103.8"/>
									<line class="st29" x1="584.6" y1="103.8" x2="584.6" y2="262.8"/>
									<line class="st29" x1="584.6" y1="262.8" x2="543.7" y2="262.8"/>
								</g>
								<line class="st29" x1="60.9" y1="238.4" x2="60.9" y2="199.6"/>
								<line class="st29" x1="65.6" y1="199.6" x2="157" y2="199.6"/>
								<line class="st29" x1="182.8" y1="209.5" x2="182.8" y2="241.6"/>
								<line class="st29" x1="182.8" y1="241.6" x2="220" y2="241.6"/>
								<line class="st29" x1="279.9" y1="155.7" x2="279.9" y2="203.5"/>
								<line class="st29" x1="279.9" y1="203.5" x2="314.9" y2="203.5"/>
								<line class="st29" x1="393.7" y1="244.8" x2="497.7" y2="244.8"/>
								<line class="st29" x1="497.7" y1="242.7" x2="497.7" y2="203.5"/>
							</g>
						</g>
					</g>
					<g>
						<path class="st30" d="M403,527.3l-23.7-40c-5.1-8.6-16.1-11.4-24.7-6.3l-5.2,3.1c-0.2,0.1-0.4,0.3-0.6,0.4l20.3,34.2
							L403,527.3z"/>
						<path class="st30" d="M412.9,513.7l-41.4-10.6c-3.9-1-7.9-0.6-11.3,0.8l15.3,25.8l55.4,14.1L412.9,513.7z"/>
						<path class="st30" d="M388.2,407.9c5.8-3.4,13.3-1.5,16.7,4.3l45.8,77.3c3.4,5.8,1.5,13.3-4.3,16.7l0,0
							c-5.8,3.4-13.3,1.5-16.7-4.3l-45.8-77.3C380.4,418.8,382.4,411.3,388.2,407.9L388.2,407.9z"/>
						<path class="st30" d="M410.2,528.4c8.9,15.1,28.4,20,43.4,11.1l44.3-26.3c15-8.9,20-28.4,11.1-43.4l-26.3-44.3
							c-8.9-15.1-28.4-20-43.4-11.1L395,440.7c-15.1,8.9-20,28.4-11.1,43.4L410.2,528.4z"/>
						<path class="st30" d="M445.1,385.9c5.8-3.4,13.3-1.5,16.7,4.3l29.3,49.5c3.4,5.8,1.5,13.3-4.3,16.7l0,0
							c-5.8,3.4-13.3,1.5-16.7-4.3l-29.3-49.5C437.3,396.8,439.3,389.4,445.1,385.9L445.1,385.9z"/>
						<path class="st30" d="M414.2,392.4c5.8-3.4,13.3-1.5,16.7,4.3l45.8,77.3c3.4,5.8,1.5,13.3-4.3,16.7l0,0
							c-5.8,3.4-13.3,1.5-16.7-4.3l-45.8-77.3C406.5,403.3,408.4,395.9,414.2,392.4L414.2,392.4z"/>
						<path class="st30" d="M342.1,389.4c5.8-3.4,13.3-1.5,16.7,4.3l47.4,80c3.4,5.8,1.5,13.3-4.3,16.7l0,0
							c-5.8,3.4-13.3,1.5-16.7-4.3l-47.4-80C334.4,400.4,336.3,392.9,342.1,389.4L342.1,389.4z"/>
						<path class="st30" d="M558.3,577.9L493.1,468c-6.1-10.2-19.2-13.6-29.5-7.5l-30.1,17.8c-10.2,6.1-13.6,19.2-7.5,29.5
							l65.2,109.9L558.3,577.9z"/>
						<g>
							<g>
								
									<rect x="446.2" y="530.6" transform="matrix(0.8692 -0.4944 0.4944 0.8692 -209.4895 319.3257)" class="st24" width="105.4" height="50.2"/>
								<polygon class="st14" points="549.5,529.8 451.1,585.8 471.8,622.2 602.1,622.2 								"/>
								
									<rect x="446.5" y="557.1" transform="matrix(0.8692 -0.4944 0.4944 0.8692 -212.4212 322.3452)" class="st13" width="113.3" height="11.3"/>
							</g>
							<path class="st25" d="M532.8,523.7c1.4,2.4,0.5,5.5-1.9,6.9s-5.5,0.5-6.9-1.9s-0.5-5.5,1.9-6.9S531.4,521.3,532.8,523.7z"/>
						</g>
					</g>
				</g>
			</g>
		</g>
	</g>
</g>
</svg>
