<?xml version="1.0" encoding="utf-8"?>
<!-- Generator: Adobe Illustrator 20.0.0, SVG Export Plug-In . SVG Version: 6.00 Build 0)  -->
<svg version="1.1" id="Layer_1" xmlns="http://www.w3.org/2000/svg" xmlns:xlink="http://www.w3.org/1999/xlink" x="0px" y="0px"
	 viewBox="0 0 612 612" style="enable-background:new 0 0 612 612;" xml:space="preserve">
<style type="text/css">
	.st0{fill:#2CB89A;}
	.st1{fill:none;stroke:#FFFFFF;stroke-width:2;stroke-miterlimit:10;stroke-dasharray:12.0218,12.0218;}
	.st2{fill:#1F4368;}
	.st3{fill:#F7CA2A;}
	.st4{fill:#F59B2D;}
	.st5{fill:#FFFFFF;}
	.st6{fill:#313E51;}
	.st7{fill:#5AC7DA;stroke:#FFFFFF;stroke-width:2;stroke-miterlimit:10;}
	.st8{fill:#F37046;stroke:#FFFFFF;stroke-width:2;stroke-miterlimit:10;}
	.st9{fill-rule:evenodd;clip-rule:evenodd;fill:#F7CA2A;}
	.st10{fill:#0D3754;}
	.st11{fill:#154F78;}
	.st12{fill:none;stroke:#FFFFFF;stroke-width:3;stroke-miterlimit:10;}
</style>
<g>
	<circle class="st0" cx="306" cy="306" r="306"/>
	<g>
		<g>
			<ellipse class="st1" cx="321.2" cy="308" rx="214.3" ry="214.3"/>
		</g>
		<g>
			<g>
				<path class="st2" d="M322,248.6c1.1,0.1,1.9,1,1.9,2.1l-0.6,10.8c-0.1,1.1,0.8,2,1.9,2.1l10.3,0.6c1.1,0.1,1.5,0.9,0.9,1.8
					l-21.9,32.3c-0.6,0.9-1.5,0.9-2.1-0.1l-18.3-34.5c-0.5-1,0-1.7,1.1-1.7l10.3,0.6c1.1,0.1,2-0.8,2.1-1.9l0.6-10.8
					c0.1-1.1,1-1.9,2.1-1.9L322,248.6z"/>
			</g>
		</g>
		<g>
			<g>
				<path class="st3" d="M354,426.1c1.1,0,2,0.9,2,2v88.6c0,1.1-0.9,2-2,2H220.8c-1.1,0-2-0.9-2-2v-88.6c0-1.1,0.9-2,2-2H354z"/>
			</g>
			<g>
				<path class="st4" d="M354,426.1c1.1,0,2,0.9,2,2v88.6c0,1.1-0.9,2-2,2h-61.6c-1.1,0-2-0.9-2-2v-88.6c0-1.1,0.9-2,2-2H354z"/>
			</g>
			<g>
				<path class="st2" d="M366.9,518.6c1.1,0,1.6,0.8,1.1,1.8l-13.9,26.3c-0.5,1-1.8,1.8-2.9,1.8h-72.6c-1.1,0-2.4-0.8-3-1.7
					c0,0-10.4-18.7-22.3-18.7c-11.9,0-22.3,18.7-22.3,18.7c-0.5,1-1.9,1.7-3,1.7h-7.2c-1.1,0-2-0.9-2-2v-25.9c0-1.1,0.9-2,2-2H366.9
					z"/>
			</g>
			<path class="st5" d="M253.3,532c10.8,0,19.5,8.7,19.5,19.5c0,10.8-8.7,19.5-19.5,19.5c-10.8,0-19.5-8.7-19.5-19.5
				C233.8,540.8,242.6,532,253.3,532z"/>
			<g>
				<path class="st3" d="M279.3,555.5c-2.2,0-4-1.8-4-4c0-12.1-9.9-22-22-22c-12.1,0-22,9.9-22,22c0,2.2-1.8,4-4,4c-2.2,0-4-1.8-4-4
					c0-16.5,13.4-29.9,29.9-29.9c16.5,0,29.9,13.4,29.9,29.9C283.2,553.7,281.5,555.5,279.3,555.5L279.3,555.5z"/>
			</g>
			<path class="st6" d="M253.3,560.7c5.1,0,9.2-4.1,9.2-9.2c0-5.1-4.1-9.2-9.2-9.2c-5.1,0-9.2,4.1-9.2,9.2
				C244.1,556.6,248.2,560.7,253.3,560.7z"/>
			<g>
				<path class="st2" d="M379.2,522c-6,0-14.5,4-14.5,4c-1,0.5-1.8,0-1.8-1.1v-69.2c0-1.1,0.9-2,2-2h37.8c1.1,0,2.3,0.8,2.7,1.9
					l15.2,42.6c0.4,1,0.7,2.8,0.7,3.9v44.5c0,1.1-0.9,2-2,2h-8.7c-1.1,0-2.4-0.8-2.9-1.8C407.7,546.7,394.5,522,379.2,522z"/>
			</g>
			<polygon class="st5" points="401,459.7 372.9,459.7 372.9,495.9 413.9,495.9 			"/>
			<g>
				<path class="st5" d="M414.9,515.1c0.7-0.3,2.1-0.6,3.2-0.6h3.5c1.1,0,2,0.9,2,2V537c0,1.1-0.9,2-2,2h-3.5
					c-1.1,0-2.6-0.3-3.2-0.6c-0.7-0.3-1.2-2.8-1.2-3.9v-15.4C413.7,518,414.2,515.5,414.9,515.1z"/>
			</g>
			<rect x="372.9" y="501.2" class="st5" width="3" height="10.9"/>
			<g>
				<path class="st5" d="M379.2,532c10.7,0,19.5,8.7,19.5,19.5c0,10.8-8.7,19.5-19.5,19.5c-10.8,0-19.5-8.7-19.5-19.5
					C359.7,540.8,368.4,532,379.2,532z"/>
				<path class="st6" d="M379.2,560.7c5.1,0,9.2-4.1,9.2-9.2c0-5.1-4.1-9.2-9.2-9.2c-5.1,0-9.2,4.1-9.2,9.2
					C370,556.6,374.1,560.7,379.2,560.7z"/>
				<g>
					<g>
						<path class="st3" d="M405.1,555.5c-2.2,0-4-1.8-4-4c0-12.1-9.9-22-22-22c-12.1,0-22,9.9-22,22c0,2.2-1.8,4-4,4
							c-2.2,0-4-1.8-4-4c0-16.5,13.4-29.9,29.9-29.9c16.5,0,29.9,13.4,29.9,29.9C409.1,553.7,407.3,555.5,405.1,555.5L405.1,555.5z"
							/>
					</g>
				</g>
			</g>
		</g>
		<g>
			<polygon class="st7" points="478.3,252.6 451.8,206.7 478.3,160.7 531.4,160.7 557.9,206.7 531.4,252.6 			"/>
			<g>
				<g>
					<g>
						<path class="st5" d="M516.6,234.6h-31.8c-1.6,0-2.9-1.3-2.9-2.9v-48.2c0-1.6,1.3-2.9,2.9-2.9h7.8c0.6,0,1,0.5,1,1s-0.5,1-1,1
							h-7.8c-0.5,0-0.8,0.4-0.8,0.8v48.2c0,0.5,0.4,0.8,0.8,0.8h31.8c0.2,0,0.4-0.1,0.6-0.2l6.5-6.5c0.2-0.2,0.2-0.4,0.2-0.6v-41.7
							c0-0.5-0.4-0.8-0.8-0.8h-7.8c-0.6,0-1-0.5-1-1s0.5-1,1-1h7.8c1.6,0,2.9,1.3,2.9,2.9v41.7c0,0.8-0.3,1.5-0.9,2.1l-6.5,6.5
							C518.1,234.3,517.4,234.6,516.6,234.6z"/>
					</g>
					<g>
						<path class="st5" d="M514.2,181.6"/>
					</g>
					<g>
						<path class="st5" d="M493.8,181.6"/>
					</g>
					<g>
						<path class="st5" d="M517.4,234.2c-0.6,0-1-0.5-1-1v-5.4c0-1.6,1.3-2.9,2.9-2.9h5.4c0.6,0,1,0.5,1,1c0,0.6-0.5,1-1,1h-5.4
							c-0.5,0-0.8,0.4-0.8,0.8v5.4C518.4,233.8,518,234.2,517.4,234.2z"/>
					</g>
				</g>
				<g>
					<path class="st5" d="M504,175.1"/>
				</g>
				<g>
					<line class="st5" x1="500.2" y1="181.1" x2="507.8" y2="181.1"/>
				</g>
				<g>
					<g>
						<path class="st5" d="M511.2,178H509v3.1c0,0.7-0.6,1.3-1.3,1.3h-7.6c-0.7,0-1.3-0.6-1.3-1.3V178h-2.1c-0.9,0-1.6,0.7-1.6,1.6
							v4c0,0.9,0.7,1.6,1.6,1.6h14.4c0.9,0,1.6-0.7,1.6-1.6v-4C512.7,178.7,512,178,511.2,178z"/>
						<path class="st5" d="M511.2,185.3h-14.4c-1,0-1.8-0.8-1.8-1.8v-4c0-1,0.8-1.8,1.8-1.8h2.1c0.1,0,0.2,0.1,0.2,0.2v3.1
							c0,0.6,0.5,1.1,1.1,1.1h7.6c0.6,0,1.1-0.5,1.1-1.1V178c0-0.1,0.1-0.2,0.2-0.2h2.1c1,0,1.8,0.8,1.8,1.8v4
							C512.9,184.5,512.1,185.3,511.2,185.3z M496.8,178.2c-0.7,0-1.3,0.6-1.3,1.3v4c0,0.7,0.6,1.3,1.3,1.3h14.4
							c0.7,0,1.3-0.6,1.3-1.3v-4c0-0.7-0.6-1.3-1.3-1.3h-1.9v2.9c0,0.8-0.7,1.5-1.5,1.5h-7.6c-0.8,0-1.5-0.7-1.5-1.5v-2.9H496.8z"/>
					</g>
					<g>
						<rect x="501.5" y="178" class="st5" width="5" height="1.8"/>
						<path class="st5" d="M506.5,180h-5c-0.1,0-0.2-0.1-0.2-0.2V178c0-0.1,0.1-0.2,0.2-0.2h5c0.1,0,0.2,0.1,0.2,0.2v1.8
							C506.7,179.9,506.6,180,506.5,180z M501.7,179.6h4.6v-1.4h-4.6V179.6z"/>
					</g>
				</g>
				<g>
					<path class="st5" d="M504,171.5c-2.1,0-3.8,1.7-3.8,3.8v5.8h7.6v-5.8C507.8,173.2,506.1,171.5,504,171.5z M504,177.8
						c-0.9,0-1.5-0.7-1.5-1.5c0-0.9,0.7-1.5,1.5-1.5c0.9,0,1.5,0.7,1.5,1.5C505.5,177.1,504.8,177.8,504,177.8z"/>
				</g>
				<g>
					<path class="st5" d="M511.2,190.5h-23.7c-0.6,0-1-0.5-1-1c0-0.6,0.5-1,1-1h23.7c0.6,0,1,0.5,1,1
						C512.2,190,511.8,190.5,511.2,190.5z"/>
				</g>
				<g>
					<path class="st5" d="M511.2,195.7h-23.7c-0.6,0-1-0.5-1-1c0-0.6,0.5-1,1-1h23.7c0.6,0,1,0.5,1,1
						C512.2,195.2,511.8,195.7,511.2,195.7z"/>
				</g>
				<g>
					<path class="st5" d="M520.4,200.9h-32.9c-0.6,0-1-0.5-1-1c0-0.6,0.5-1,1-1h32.9c0.6,0,1,0.5,1,1
						C521.5,200.4,521,200.9,520.4,200.9z"/>
				</g>
				<g>
					<path class="st5" d="M520.4,206.1h-32.9c-0.6,0-1-0.5-1-1c0-0.6,0.5-1,1-1h32.9c0.6,0,1,0.5,1,1
						C521.5,205.6,521,206.1,520.4,206.1z"/>
				</g>
				<g>
					<path class="st5" d="M520.4,211.3h-32.9c-0.6,0-1-0.5-1-1c0-0.6,0.5-1,1-1h32.9c0.6,0,1,0.5,1,1
						C521.5,210.8,521,211.3,520.4,211.3z"/>
				</g>
				<g>
					<path class="st5" d="M520.4,216.5h-32.9c-0.6,0-1-0.5-1-1c0-0.6,0.5-1,1-1h32.9c0.6,0,1,0.5,1,1
						C521.5,216,521,216.5,520.4,216.5z"/>
				</g>
			</g>
		</g>
		<g>
			<polygon class="st8" points="68.9,290.9 40.2,241.1 68.9,191.3 126.4,191.3 155.1,241.1 126.4,290.9 			"/>
			<g>
				<path class="st5" d="M93.6,252.9c-1.6-2.4-4.2-7.1-6.1-10.9c-1.9-3.8-4.1-8.7-5.2-11.4l8.6-4.3l-1.3-2.5
					c-4.6-9.2-12.5-12.6-21.8-7.9l-0.8,0.4c0,0-1.4,7.7,10.2,30.8c10.8,21.5,18.6,26.6,18.6,26.6h0c9.7-4.9,12-13.7,7.1-23.4
					l-0.8-1.7L93.6,252.9z"/>
			</g>
			<g>
				<path class="st5" d="M112,260.8c-0.6,0-1.3-0.4-1.6-1c-0.4-0.9-0.1-1.9,0.8-2.3c5.8-2.8,10.1-7.7,12.2-13.7
					c2.1-6.1,1.7-12.6-1.1-18.3c-2.8-5.8-7.7-10.1-13.7-12.2c-6.1-2.1-12.6-1.7-18.3,1.1c-0.9,0.4-1.9,0.1-2.3-0.8
					c-0.4-0.9-0.1-1.9,0.8-2.3c6.6-3.2,14.1-3.6,21-1.2c6.9,2.4,12.5,7.4,15.7,14c3.2,6.6,3.6,14.1,1.2,21
					c-2.4,6.9-7.4,12.5-14,15.7C112.5,260.8,112.2,260.8,112,260.8z"/>
			</g>
			<g>
				<path class="st5" d="M92.2,230.4c1.5-0.2,2.9-0.4,4.8-0.4c2.3,0,3.3,1.7,3.3,3.5c0,2.8-3.7,5.7-4.8,6.5h4.8v1.7h-8v-1.6
					c1.6-1.1,6.2-4.5,6.2-6.6c0-1.1-0.6-1.7-2-1.7h-4.3V230.4z"/>
				<path class="st5" d="M105.7,230.1h2.1l-3.9,7.1h3.4v-2.9l0.5-1.2h1.3v4.1h1.3v1.4l-1.3,0.4v2.6h-1.8V239h-5.5l-0.5-0.9
					L105.7,230.1z"/>
				<path class="st5" d="M111.5,229.3h1.8v4.9c0.8-0.5,1.5-1.1,2.8-1.1c1.8,0,2.5,1.3,2.5,2.8v5.7h-1.8V236c0-0.9-0.4-1.3-1.1-1.3
					c-1,0-1.6,0.3-2.4,0.8v6.2h-1.8V229.3z"/>
			</g>
		</g>
		<g>
			<polygon class="st7" points="107.6,451.8 78.8,402 107.6,352.3 165.1,352.3 193.8,402 165.1,451.8 			"/>
			<g>
				<path class="st5" d="M104.2,401.3c1.7,0,3.4,0,5.1,0.1c0.2,0,0.5,0,0.8,0c0,0.8,0,1.4,0,2.2c-2,0-3.9,0-5.9,0
					C104.2,402.8,104.2,402.1,104.2,401.3z"/>
				<path class="st5" d="M168.8,403.6c-1.7,0-3.3,0-5,0c-0.3,0-0.5,0-0.9,0c0-0.7,0-1.4,0-2.2c2,0,3.9,0,5.8,0
					C168.8,402.1,168.8,402.8,168.8,403.6z"/>
				<path class="st5" d="M142.4,436.1c-4.1,0-8.1,0-12.3,0c0-0.8,0-1.7,0-2.5c0-1.3,0.3-2.6-0.1-3.8c-0.4-1.1-1.4-2.1-2.1-3.1
					c-1.2-1.7-2.5-3.5-3.6-5.3c-1.8-2.9-2.5-6.2-2.5-9.6c0-1,0-2.1,0.2-3.1c0.5-2.1,2.2-3.4,4.4-3.4c6.5,0,13,0,19.5,0
					c2.5,0,4.4,1.9,4.6,4.4c0.2,3.5-0.1,6.9-1.7,10.1c-0.5,1.1-1.1,2.1-1.8,3c-1.4,2.1-2.9,4.1-4.3,6.2c-0.3,0.5-0.5,0.9-0.4,1.5
					C142.5,432.4,142.4,434.2,142.4,436.1z M128.7,411.3c1.1,2.3,4.3,4.7,8.2,4.3c2.9-0.3,5-1.8,6.5-4.3
					C138.5,411.3,133.6,411.3,128.7,411.3z"/>
				<path class="st5" d="M144.1,401.4c-2.3,0-4.5,0-6.8,0c0-8.2,0-16.3,0-24.5c2.2,0,4.5,0,6.8,0
					C144.1,385.1,144.1,393.2,144.1,401.4z"/>
				<path class="st5" d="M126.3,401.4c-1.9,0-3.8,0-5.7,0c0-8.2,0-16.3,0-24.5c1.9,0,3.8,0,5.7,0
					C126.3,385.1,126.3,393.2,126.3,401.4z"/>
				<path class="st5" d="M156.7,376.9c1.4,0,2.8,0,4.3,0c0,8.2,0,16.3,0,24.5c-1.4,0-2.9,0-4.3,0
					C156.7,393.2,156.7,385.1,156.7,376.9z"/>
				<path class="st5" d="M112.2,376.9c1.3,0,2.7,0,4,0c0,8.1,0,16.3,0,24.5c-1.3,0-2.7,0-4,0C112.2,393.2,112.2,385.1,112.2,376.9z"
					/>
				<path class="st5" d="M133.9,376.9c0,8.2,0,16.3,0,24.5c-1,0-1.9,0-2.9,0c0-8.2,0-16.3,0-24.5C132,376.9,132.9,376.9,133.9,376.9
					z"/>
				<path class="st5" d="M154.9,401.4c-0.8,0-1.5,0-2.2,0c0-8.2,0-16.3,0-24.5c0.7,0,1.4,0,2.2,0
					C154.9,385.1,154.9,393.2,154.9,401.4z"/>
				<path class="st5" d="M112.2,403.3c1.3,0,2.6,0,3.9,0c0,3.9,0,7.7,0,11.6c-1.3,0-2.6,0-3.9,0
					C112.2,411.1,112.2,407.2,112.2,403.3z"/>
				<path class="st5" d="M156.7,415.2c0-3.9,0-7.7,0-11.6c1.3,0,2.6,0,3.9,0c0,3.9,0,7.7,0,11.6C159.3,415.2,158,415.2,156.7,415.2z
					"/>
				<path class="st5" d="M148.4,376.9c0.6,0,1.1,0,1.6,0c0,8.2,0,16.3,0,24.5c-0.5,0-1.1,0-1.6,0
					C148.4,393.2,148.4,385.1,148.4,376.9z"/>
			</g>
		</g>
		<g>
			<g>
				<polygon class="st8" points="483.8,439.7 454.5,388.9 483.8,338 542.5,338 571.8,388.9 542.5,439.7 				"/>
				<g>
					<g>
						<g>
							<rect x="481.8" y="366.1" class="st5" width="4.6" height="45.5"/>
						</g>
						<g>
							<rect x="490.7" y="366.1" class="st5" width="3.4" height="35.9"/>
						</g>
						<g>
							<rect x="499" y="366.1" class="st5" width="3.4" height="35.9"/>
						</g>
						<g>
							<rect x="507.3" y="366.1" class="st5" width="3.4" height="35.9"/>
						</g>
						<g>
							<rect x="515.6" y="366.1" class="st5" width="3.4" height="35.9"/>
						</g>
						<g>
							<rect x="523.9" y="366.1" class="st5" width="3.4" height="35.9"/>
						</g>
						<g>
							<rect x="532.2" y="366.1" class="st5" width="3.4" height="35.9"/>
						</g>
						<g>
							<rect x="539.9" y="366.1" class="st5" width="4.6" height="45.5"/>
						</g>
					</g>
					<g>
						<g>
							<path class="st5" d="M489.8,406l1.1-0.7h1.1v5.9H491v-4.8l-1.1,0.3V406z"/>
							<path class="st5" d="M496.8,405.5c0.7-0.1,1.4-0.2,2.4-0.2c1.2,0,1.7,0.8,1.7,1.8c0,1.3-1.7,2.7-2.2,3.1h2.2v1h-4.1v-1
								c0.8-0.5,3-2.2,3-3.1c0-0.5-0.3-0.8-1-0.8h-2.1V405.5z"/>
							<path class="st5" d="M505.5,405.5c0.7-0.2,1.7-0.2,2.6-0.2c0.9,0,1.5,0.6,1.5,1.4v0.4c0,0.6-0.2,1-0.6,1.1
								c0.4,0.2,0.6,0.6,0.6,1.2v0.3c0,0.9-0.5,1.4-1.5,1.4c-0.9,0-1.8,0-2.5-0.2l0-0.8h2c0.5,0,0.8,0,0.8-0.5v-0.3
								c0-0.5-0.3-0.6-0.8-0.6l-1.6-0.1v-0.9l1.6-0.1c0.6,0,0.8-0.2,0.8-0.6v-0.3c0-0.5-0.4-0.6-0.8-0.6h-2.1V405.5z"/>
							<path class="st5" d="M516.2,405.3h1.2l-1.8,3.5h1.5v-1.3l0.3-0.6h0.9v2h0.6v0.9l-0.6,0.2v1.3h-1.1v-1.3h-2.8l-0.3-0.5
								L516.2,405.3z"/>
							<path class="st5" d="M522.1,411.5h2.9c0.7,0,0.8-0.4,0.8-0.7v-0.7c0-0.3-0.1-0.7-0.7-0.7h-1c-0.4,0-0.6,0.2-0.6,0.6h-1.4
								l0.2-4.6h4.6v1.3h-3.2l-0.1,1.7c0.2-0.2,0.5-0.2,0.7-0.3c0.4,0,0.9,0,1.1,0c1.2,0.1,1.7,0.8,1.7,1.9v1.1
								c0,1.4-1.1,1.9-1.9,1.9c-1.3,0-1.8,0-3.2-0.2V411.5z"/>
							<path class="st5" d="M535.1,405.3c1-0.1,2.3,0,3.3,0.2v1.1h-2.6c-0.9,0-1,1.1-1,1.9c0.6-0.2,1.3-0.2,2.1-0.2
								c1.5,0,1.8,0.8,1.8,1.8v1.1c0,1.3-0.7,1.7-1.8,1.7h-1.5c-1.2,0-2-0.7-2-4C533.3,406.2,534.2,405.4,535.1,405.3z M535.7,411.6
								h0.8c0.4,0,0.6-0.1,0.6-0.6v-0.7c0-0.5-0.2-0.7-0.6-0.7h-1.8C534.8,410.6,534.9,411.6,535.7,411.6z"/>
						</g>
					</g>
				</g>
			</g>
			<g>
				<g>
					<g>
						
							<rect x="546.2" y="429.5" transform="matrix(0.758 -0.6522 0.6522 0.758 -153.4012 464.0777)" class="st3" width="5.1" height="18.5"/>
						<path class="st2" d="M557.4,455.2c1.5,1.7,4.1,1.9,5.8,0.4c1.7-1.5,1.9-4.1,0.4-5.8l-11.4-13.2c-1.5-1.7-4.1-1.9-5.8-0.4
							c-1.7,1.5-1.9,4.1-0.4,5.8L557.4,455.2z"/>
						<path class="st2" d="M536.8,400.6c3.5,1,6.7,3,9.3,5.9c6.8,8,5.9,19.9-2,26.8c-5,4.3-11.6,5.5-17.5,3.9l1-3.4
							c4.8,1.3,10.2,0.3,14.2-3.2l0,0c6.5-5.6,7.2-15.3,1.6-21.8c-2.1-2.4-4.7-4-7.5-4.8L536.8,400.6z M519.3,404.5
							c5-4.3,11.6-5.5,17.5-3.9l-1,3.4c-4.8-1.3-10.2-0.3-14.2,3.2c-6.5,5.6-7.2,15.3-1.6,21.8c2.1,2.4,4.7,4,7.6,4.8l-1,3.4
							c-3.5-1-6.7-3-9.3-5.9C510.4,423.4,511.3,411.4,519.3,404.5z"/>
						
							<ellipse transform="matrix(0.2691 -0.9631 0.9631 0.2691 -20.8778 846.0884)" class="st9" cx="547" cy="436.8" rx="2.6" ry="2.6"/>
					</g>
				</g>
			</g>
		</g>
		<g>
			<g>
				<g>
					<g>
						<rect x="225.1" y="53.9" class="st10" width="138.9" height="160.3"/>
						<polygon class="st11" points="364,53.9 225.1,53.9 243.8,39 392.9,39 						"/>
						<polygon class="st11" points="393.3,187.7 364,214.2 364,53.9 392.9,39 						"/>
					</g>
					<g>
						<path class="st5" d="M244.6,153.9c-19.3,0-35,15.7-35,35s15.7,35,35,35s35-15.7,35-35S264,153.9,244.6,153.9z M244.6,203.6
							c-8.1,0-14.6-6.5-14.6-14.6s6.5-14.6,14.6-14.6s14.6,6.5,14.6,14.6S252.7,203.6,244.6,203.6z"/>
					</g>
				</g>
				<line class="st12" x1="233.7" y1="93.9" x2="332.5" y2="93.9"/>
				<line class="st12" x1="241.8" y1="104.9" x2="324" y2="104.8"/>
			</g>
		</g>
		<g id="roundabout_4_">
			<path class="st5" d="M306,325.4c-0.7,0.2-9.6,2.4-10.9,2.7c-1.3,0.3-1.5,0.3-1.5-0.9c0-1.2,0.4-10.7,0.4-11.5
				c0.1-0.8,0.4-1.1,1.2-0.4c0.7,0.6,3.1,2.6,3.1,2.6c2.3-1.8,4.9-3.2,7.9-4c8.1-2.2,16.3,0.3,21.8,5.7l-5.1,3
				c-4.1-3.4-9.7-4.8-15.2-3.3c-1.8,0.5-3.4,1.3-4.9,2.2c0,0,2.7,2.2,3.3,2.7C306.6,324.6,306.7,325.2,306,325.4z M304.7,350.7
				c-4.2-2.1-7.5-5.8-8.8-10.7c-0.7-2.5-0.8-5-0.3-7.5l-5.1-2.9c-1,3.8-1.1,7.8,0,11.9c1.9,7.1,7.1,12.4,13.4,15
				c0,0-0.6,3.8-0.7,4.6c-0.1,0.9,0.2,0.9,1,0.5c0.8-0.4,9.7-5.3,10.3-5.6c0.6-0.4,0.7-0.6,0.1-1.4c-0.7-0.7-7.5-7.5-8.1-8.1
				c-0.6-0.6-1-0.5-1.1,0.3C305.1,347.9,304.7,350.7,304.7,350.7z M338.4,329.4c-2.6-1.5-10.2-5.7-10.6-6c-0.5-0.3-0.8-0.1-0.9,0.4
				c-0.1,0.4-2,8.4-2.7,11.6c-0.2,0.8,0,1.1,0.7,0.8c0.7-0.3,4.1-1.7,4.1-1.7c0.2,3.3-0.5,6.6-2.1,9.5c-2,3.6-5.3,6.2-9.1,7.6l0,5.9
				c0.1,0,0.3,0,0.4-0.1c6-1.6,10.8-5.6,13.6-10.6c2.5-4.3,3.5-9.5,2.7-14.6c0,0,3.7-1.6,4-1.7C338.9,330.2,339,329.7,338.4,329.4z"
				/>
		</g>
	</g>
</g>
</svg>
