<?xml version="1.0" encoding="utf-8"?>
<!-- Generator: Adobe Illustrator 20.0.0, SVG Export Plug-In . SVG Version: 6.00 Build 0)  -->
<svg version="1.1" id="Layer_1" xmlns="http://www.w3.org/2000/svg" xmlns:xlink="http://www.w3.org/1999/xlink" x="0px" y="0px"
	 viewBox="0 0 612 612" style="enable-background:new 0 0 612 612;" xml:space="preserve">
<style type="text/css">
	.st0{fill:#FFE200;}
	.st1{fill:none;stroke:#929497;stroke-width:2;stroke-linejoin:round;stroke-miterlimit:10;stroke-dasharray:6;}
	.st2{fill:#6D6E71;}
	.st3{fill:#424143;}
	.st4{fill:#67BAE8;}
	.st5{fill:url(#SVGID_1_);}
	.st6{fill:#F1F1F1;}
	.st7{fill:#FFFFFF;}
	.st8{fill:#0CBBD1;}
	.st9{fill:#BCBDBF;}
	.st10{fill:#07B158;}
	.st11{fill:#038443;}
	.st12{fill:#995BA4;}
	.st13{fill:#0F9BD7;}
	.st14{fill:#73CBF2;}
	.st15{fill:#19B3E8;}
	.st16{fill:#EE4043;}
	.st17{fill:#F79721;}
	.st18{fill:#F06666;}
	.st19{fill:#20A99F;}
	.st20{fill:#F05A26;}
	.st21{fill:#EA1F4A;}
	.st22{fill:#D73A53;}
	.st23{fill:#F16D64;}
	.st24{opacity:0.6;fill:#F16D64;}
	.st25{opacity:0.2;fill:#F16D64;}
	.st26{fill:#333333;}
	.st27{fill:#545454;}
	.st28{fill:#29A9E1;}
	.st29{fill:#DBE3E5;}
	.st30{fill:#CDD4D7;}
</style>
<g>
	<g>
		<circle class="st0" cx="306" cy="306" r="306"/>
	</g>
	<g>
		<polygon class="st1" points="379.6,78.6 498.8,165.1 544.3,305.2 498.8,445.2 379.6,531.8 232.4,531.8 113.2,445.2 67.7,305.2 
			113.2,165.1 232.4,78.6 		"/>
		<g>
			<g>
				<path class="st2" d="M131.8,252.5c1.5,1.7,1.2,4.3-0.5,5.8l-1.6,1.4c-1.7,1.5-4.3,1.2-5.8-0.5l-11.9-14c-0.9-1,1-3.8,1.7-4.4
					l0.3-0.3c1.7-1.5,4.9-3.2,5.9-2L131.8,252.5z"/>
				
					<ellipse transform="matrix(0.7624 -0.6472 0.6472 0.7624 -129.0083 132.588)" class="st3" cx="116" cy="242" rx="5.2" ry="2.6"/>
				<path class="st4" d="M114.1,235.4c9.1-9.5,9.7-24.5,1-34.8c-9.3-11-25.7-12.3-36.7-3c-11,9.3-12.3,25.7-3,36.7
					c8.7,10.2,23.6,12.1,34.5,4.7l2.8,3.3c0.9,1.1,2.5,1.2,3.6,0.3l0.3-0.3c1.1-0.9,1.2-2.5,0.3-3.6L114.1,235.4z"/>
				
					<linearGradient id="SVGID_1_" gradientUnits="userSpaceOnUse" x1="117.0031" y1="172.5811" x2="160.8405" y2="172.5811" gradientTransform="matrix(0.9967 8.150000e-02 -8.150000e-02 0.9967 -29.1418 34.1464)">
					<stop  offset="0" style="stop-color:#57BBEA"/>
					<stop  offset="1" style="stop-color:#0976BC"/>
				</linearGradient>
				<circle class="st5" cx="95.3" cy="217.5" r="21.9"/>
				
					<ellipse transform="matrix(0.7624 -0.6471 0.6471 0.7624 -118.1033 113.322)" class="st6" cx="95.3" cy="217.5" rx="20.5" ry="20.5"/>
				<path class="st7" d="M112.8,236.7l0.9-0.8l2.7,3.2c0,0,0.7,0.8,0,1.5L112.8,236.7z"/>
			</g>
		</g>
		<g>
			<g>
				<rect x="141" y="101.5" class="st7" width="39.7" height="54.9"/>
				<rect x="141" y="101.5" class="st8" width="39.7" height="8.3"/>
				<g>
					<g>
						<rect x="148.3" y="114.6" class="st9" width="27.5" height="1.8"/>
						<rect x="148.3" y="121.7" class="st9" width="27.5" height="1.8"/>
						<rect x="148.3" y="129.1" class="st9" width="27.5" height="1.8"/>
					</g>
					<rect x="148.3" y="137.1" class="st9" width="27.5" height="13.2"/>
				</g>
			</g>
			<g>
				<g>
					<path class="st10" d="M158.7,155.5l7.9-8.4l7.6,11c0,0,8.1-20.3,26.5-31.2l1.2,0.8c0,0-16.2,12.1-24,42.2l-1.7,0.6L158.7,155.5
						z"/>
					<polygon class="st11" points="158.7,155.5 176.2,170.3 171.6,170.4 158.2,159.2 					"/>
					<path class="st11" d="M174.2,158c0,0,8.1-20.3,26.5-31.2c-15.8,8.4-27.5,27.5-28,29.1L174.2,158z"/>
				</g>
			</g>
		</g>
		<g>
			<g>
				<rect x="326.2" y="64.4" class="st12" width="40" height="36.9"/>
				<polygon class="st12" points="314.1,96 346.2,123.9 378.3,96 				"/>
			</g>
			<g>
				<g>
					<path class="st7" d="M345.3,101.7v-2.4c-1.4,0-2.8-0.4-3.6-1l0.6-1.6c0.8,0.6,2.1,1,3.4,1c1.7,0,2.8-1,2.8-2.3
						c0-1.3-0.9-2.1-2.7-2.8c-2.4-0.9-3.9-2-3.9-4.1c0-1.9,1.4-3.4,3.5-3.8v-2.4h1.5v2.3c1.4,0,2.4,0.4,3.1,0.8l-0.6,1.5
						c-0.5-0.3-1.5-0.8-3-0.8c-1.8,0-2.5,1.1-2.5,2c0,1.2,0.9,1.8,2.9,2.7c2.4,1,3.6,2.2,3.6,4.3c0,1.9-1.3,3.6-3.7,4v2.4H345.3z"/>
				</g>
				<g>
					<path class="st7" d="M346.2,79.4c2.7,0,5.2,0.8,7.2,2.3l2-2c-2.6-1.9-5.7-3-9.2-3c-4.1,0-7.9,1.6-10.6,4.2l1.9,1.9
						C339.8,80.7,342.8,79.4,346.2,79.4z"/>
					<path class="st7" d="M346.2,105c-3.3,0-6.3-1.3-8.5-3.3l-1.9,1.9c2.8,2.5,6.4,4.1,10.5,4.1c3.4,0,6.5-1.1,9-2.9l-2-2
						C351.2,104.2,348.8,105,346.2,105z"/>
					<path class="st7" d="M333.4,92.2c0-2.6,0.8-5,2.1-7l-2-2c-1.8,2.5-2.9,5.6-2.9,9c0,3.4,1.1,6.6,3,9.2l2-2
						C334.3,97.4,333.4,94.9,333.4,92.2z"/>
					<path class="st7" d="M359,92.2c0,3.4-1.3,6.4-3.4,8.7l1.9,1.9c2.6-2.8,4.2-6.5,4.2-10.6c0-4-1.6-7.7-4.1-10.5l-1.9,1.9
						C357.7,85.9,359,88.9,359,92.2z"/>
				</g>
			</g>
		</g>
		<g>
			<circle class="st13" cx="452.2" cy="123.9" r="15.4"/>
			<g>
				<path class="st14" d="M441.3,128.5c0,0.1,0,0.3,0.1,0.3c0.1,0,0.3,0,0.3,0c0-0.1,0-0.2,0-0.3c0-0.1,0-0.1,0.1-0.3
					c0.1-0.1,0.3-0.3,0.3-0.3s0.1-0.2,0.2-0.1c0,0.1,0.1,0.2,0.1,0.3c0,0.1,0,0.1,0.2,0.1c0.1,0,0.2,0,0.2-0.2
					c-0.1-0.1,0-0.2-0.1-0.3c-0.1-0.2-0.1,0.1-0.1-0.2c0-0.2,0.1-0.4,0.1-0.4s-0.2-0.2,0-0.2c0.2,0,0.2,0.1,0.2,0.1s0.1,0.1,0.1,0.1
					c0.1,0,0.2-0.1,0.2-0.2c0-0.1-0.1-0.3-0.1-0.3s-0.3-0.1-0.1-0.4c0.2-0.3,0.3-0.4,0.3-0.5c0-0.1,0.1-0.4,0.1-0.4l0.3-0.3
					c0,0,0.1,0,0.1,0.1c0,0.1-0.1,0.1,0,0.2c0.1,0,0.1,0,0.3,0c0.2,0,0.4,0,0.5,0.1c0,0.1,0.4,0.5,0.4,0.5s0.3,0.1,0.4,0.2
					c0.1,0.1,0.4,0.1,0.5,0.2c0,0.1,0.6,0.5,0.7,0.6c0.1,0.1,0.1,0.4,0.1,0.5c0,0.2,0.1,0.3,0.1,0.4c0,0.1,0.3,0.3,0.3,0.3
					s0.1,0.2,0.1,0.3c0,0.1,0.1,0.1,0.2,0.2c0.1,0.1,0.2,0.2,0.2,0.2s0.3,0.1,0.3-0.1c-0.1-0.2-0.1-0.2-0.1-0.3
					c0-0.1,0.3-0.5,0.2-0.6c0-0.1,0-0.4-0.1-0.5c0-0.1,0-0.3,0-0.5c0-0.1,0.1-0.4,0.1-0.5c0-0.1,0-0.2,0-0.4c0-0.3,0.1-0.4,0-0.4
					c0-0.1-0.1-0.3-0.2-0.4c-0.1-0.1,0-0.3,0-0.3s0.1,0.1,0.2,0.2c0,0.1,0.2,0.1,0.2,0.1l0.3-0.1l0.1-0.3l-0.1-0.1l-0.1-0.2l0.2-0.1
					c0,0,0.4-0.1,0.3-0.2c0-0.1,0.1-0.3,0.1-0.3s-0.1-0.2,0.1-0.2c0.1-0.1,0.4-0.2,0.5-0.2c0.1,0,0.6-0.1,0.6-0.1l0.3-0.1l0.6-0.3
					c0,0,0.1-0.1,0.1-0.3c0-0.2,0.3-0.3,0.3-0.3s0,0.1,0.2,0.1c0.2,0,0.3,0,0.4-0.1c0.2-0.1,0.3-0.2,0.3-0.4c0-0.1,0-0.2,0.1-0.4
					c0-0.2,0.1-0.4,0.1-0.4l0.3-0.2c0,0,0.1-0.1,0.2,0c0.1,0.1-0.1,0,0.1,0.1c0.2,0.1,0.3-0.1,0.3,0.1c0,0.2,0,0.4,0,0.5
					c-0.1,0.2-0.1,0.3-0.1,0.3c0,0.1,0,0.1,0,0.3c0,0.1,0,0.2-0.1,0.2c-0.1,0.1-0.2,0.1-0.2,0.2c0,0.1,0.1,0.2,0,0.3
					c-0.1,0.1-0.5,0.2-0.5,0.2s0,0.1-0.2,0c-0.2-0.1,0,0-0.2-0.1c-0.1-0.1-0.2-0.2-0.2-0.2s-0.2-0.1-0.2,0c0,0.1,0,0.2,0,0.2
					s0.1,0.1,0,0.1c-0.1,0.1-0.1,0.1-0.2,0.2c-0.1,0.1-0.1,0.2-0.1,0.2s-0.2,0.1-0.2,0.2c0,0.1-0.1,0.2,0,0.3
					c0.1,0.1,0.3,0.1,0.4,0.2c0.2,0.1,0.3,0.3,0.4,0.4c0.1,0.1,0.3,0.1,0.4,0.2c0.2,0.1,0.3,0.1,0.5,0c0.2,0,0.4-0.2,0.5-0.1
					c0.1,0.1,0.1,0.2,0.3,0.2c0.2,0,0.8,0,0.8,0s0.1,0.1,0.2,0.1c0.1,0,0.2,0,0.3,0c0.2,0,0.4-0.2,0.4-0.2s0.1,0,0.2,0
					c0.1,0,0.3-0.1,0.2-0.3c0-0.2,0-0.4-0.1-0.5c-0.1-0.1-0.1-0.8-0.1-0.8s0-0.1,0-0.3c0.1-0.3,0.1-0.4,0.1-0.4s0.2-0.5,0.1-0.6
					c-0.1-0.1-0.1-0.2-0.2-0.3c0-0.1-0.1-0.2,0-0.3c0.1-0.1,0.3-0.4,0.3-0.4l-0.1-0.5c0,0,0-0.3,0-0.4c0-0.1,0-0.3,0-0.3
					s0.4,0,0.5,0.3c0,0,0.3,0.4,0.2,0.6c-0.1,0.2-0.1,0.3-0.1,0.5c0.1,0.2,0.2,0.2,0.1,0.4c-0.1,0.2,0-0.1-0.1,0.2
					c0,0.2,0,0.4,0.1,0.6c0.1,0.2,0.2,0.3,0.1,0.5c-0.1,0.2-0.1-0.1-0.1,0.2c-0.1,0.3,0,0.4,0,0.5c0,0.1,0.1-0.2,0,0.1
					c-0.1,0.3-0.2,0.4-0.1,0.5c0.2,0.1,0.4,0.2,0.3,0.4c-0.1,0.2-0.1,0.3-0.2,0.3c-0.1,0-0.2-0.3-0.2-0.3c-0.2,0.2-0.3,0.3-0.3,0.5
					c0,0.1-0.1-0.1,0,0.1c0.1,0.2,0,0.4-0.1,0.4c-0.1,0.1-0.1,0-0.3,0.1c-0.3,0.1-0.3,0.1-0.5,0.1c-0.2,0-0.3,0.1-0.4,0.2
					c-0.1,0.1-0.3,0.2-0.4,0.1c-0.1,0-0.2-0.2-0.3,0c-0.1,0.2-0.3,0-0.1,0.2c0.2,0.2,0.3,0.2,0.4,0.3c0.1,0.1,1,0.9,1.2,1
					c0.2,0.2,0.2,0.2,0.4,0.3c0.2,0,0.5,0,0.5,0s0-0.1,0.3,0.1c0.3,0.1,0.5,0.2,0.7,0.3c0.1,0.1,0.4,0.2,0.4,0.2s0.3,0.2,0.5,0.4
					c0.2,0.2,0.3,0.1,0.3,0.4c0,0.2-0.1,0.3-0.1,0.4c0,0.1,0,0.2,0,0.4c0,0.2,0,0.2,0,0.2l-0.2,0.4c0,0,0,0.2,0.1,0.4
					c0.2,0.2,0.1,0.3,0.2,0.4c0.2,0.1,0.2,0.1,0.4,0.1c0.2,0,0.1-0.2,0.4-0.1c0.2,0.1,0,0,0.2,0.1c0.2,0.2,0.3,0.4,0.3,0.4
					s-0.2,0.1-0.2,0.3c0,0.1-0.2,0.1,0,0.1c0.2,0.1,0-0.1,0.2,0.1c0.2,0.1,0.3,0.2,0.3,0.4c0.1,0.1,0.5,0.2,0.5,0.2s0.3,0,0.4,0
					c0.1-0.1,1.1-1,1.4-2.4c0.4-1.4,0.7-2.2,0.6-2.5c0-0.3,0-0.6-0.1-0.9c-0.1-0.3,0-0.9,0-1c0-0.2,0.4-1.1,0.2-1.8
					c-0.2-0.7-0.3-0.8-0.3-1.3c0-0.4,0.1-0.9,0.2-1c0-0.1,0.3-0.4,0.4-0.6c0.1-0.2,0.6-0.9,0.6-1.1c0-0.2-0.4-1.8-1.3-3.1
					c-0.9-1.3-1.7-1.6-2.2-1.8c-0.4-0.3-0.6-0.5-0.7-0.5c-0.1,0-0.1,0.1-0.4,0.2c-0.3,0.2-0.3,0.1-0.5,0.2c-0.2,0-0.3,0.3-0.5,0.4
					c-0.1,0.1-0.3-0.2-0.1,0.1c0.2,0.3-0.1,0.1,0.2,0.3c0.3,0.2,0.4,0.2,0.3,0.5c-0.1,0.3-0.2,0.3-0.2,0.5c0,0.1,0,0.3,0,0.4
					c-0.1,0.2-0.1,0.2-0.3,0.4c-0.1,0.1-0.2,0.2-0.3,0.2c-0.1-0.1-0.2-0.4-0.2-0.4s-0.1-0.2-0.3-0.1c-0.1,0.1-0.3,0.3-0.3,0.5
					c-0.1,0.2-0.1,0.4-0.3,0.5c-0.2,0.2-0.2,0.2-0.2,0.2s-0.3,0.3-0.5,0.3c-0.3,0.1-0.5,0.3-0.7,0.3c-0.2,0-0.3-0.2-0.5-0.3
					c-0.2-0.2-0.4-0.5-0.5-0.6c0-0.1-0.2-0.3,0.1-0.4c0.4-0.1,0.5-0.1,0.7-0.1c0.2,0,0.7-0.1,0.5-0.4c-0.2-0.3-0.1-0.8-0.2-0.9
					c-0.1,0-0.3-0.1-0.4,0c-0.1,0.1-0.1,0.1-0.4,0.2c-0.3,0.1-0.3,0.1-0.5,0.1c-0.3,0.1-0.4,0.1-0.6,0.1c-0.2,0.1-0.2,0.2-0.4,0.2
					c-0.2,0-0.3,0.2-0.5,0.1c-0.1-0.1-0.3-0.1-0.1-0.4c0.2-0.3,0.6-0.3,0.6-0.6c0-0.3,0-0.6,0.1-0.6c0.1-0.1-0.2-0.3,0.3-0.2
					c0.5,0.1,0.7,0.2,0.9,0.3c0.1,0.1,0.3,0.1,0.4,0.2c0.1,0.2,0.3,0.1,0.4,0.1c0.1,0,0-0.1,0.2-0.2c0.2,0,0.4-0.1,0.4,0
					c0,0.1,0.1,0.3,0.2,0.4c0.1,0.1,0.1,0.4,0.3,0.2c0.2-0.1,0.2,0.1,0.2-0.1c0-0.2-0.1-0.3-0.2-0.4c-0.1-0.2-0.1-0.4-0.2-0.4
					c-0.1-0.1-0.2-0.1-0.3-0.2c-0.1-0.1-0.1-0.3,0-0.3c0.1-0.1,0.2-0.2,0.2-0.3c0-0.1-0.1-0.3-0.1-0.3c-0.2-0.2-0.2-0.2-0.2-0.2
					s0-0.3,0.2-0.2c0.2,0.1,0.2,0.1,0.3,0.2c0.1,0.1,0.1,0.1,0.2,0.3c0,0.2,0.1,0.3,0,0.4c0,0.1-0.1,0.2-0.1,0.3
					c0,0.1,0.2,0.2,0.3,0.2c0.1-0.1,0.1-0.1,0.1-0.3c0-0.2,0.1-0.4,0-0.5c0-0.1,0-0.2-0.1-0.3c0-0.1-0.1-0.3-0.1-0.3s0-0.3,0.2-0.1
					c0.1,0.1-0.1,0.1,0.1,0.1c0.2,0,0.2,0,0.4-0.1c0.1,0,0.1-0.2,0.2-0.1c0.2,0.1,0.3,0.1,0.4,0.2c0.1,0.1,0-0.1,0.3,0.1
					c0.4,0.2,0.5,0.3,0.5,0.3l0.2-0.1c0,0,0.1-0.1,0.1-0.2c-0.1-0.1,0-0.3-0.2-0.4c-0.2-0.1-0.3-0.2-0.5-0.3
					c-0.2-0.1-0.3-0.3-0.4-0.3c-0.1,0-0.4,0.1-0.6,0.2c-0.2,0-0.7-0.2-0.8-0.4c-0.1-0.2-0.1-0.2-0.3-0.2c-0.2,0.1-0.1,0.1-0.3,0.1
					c-0.3-0.1-0.6-0.1-0.6-0.1s-0.2,0-0.3,0c-0.1,0-0.3-0.1-0.3-0.1c-0.1,0-0.2,0-0.3,0.1c-0.1,0.1-0.3,0.3-0.5,0.3
					c-0.2,0-0.4-0.1-0.5,0c0,0.1,0,0.2-0.2,0.2c-0.2,0-0.3,0.1-0.3,0c-0.1-0.1,0-0.3-0.2-0.3c-0.1,0-0.2-0.1-0.3,0
					c-0.1,0-0.2,0.2-0.3,0.2c-0.1-0.1-0.2-0.2-0.2-0.2c-0.1,0-0.3,0-0.4,0.1c-0.1,0-0.3,0-0.3,0c0-0.1-0.1-0.2,0.1-0.3
					c0.2-0.1,0.4-0.2,0.4-0.2l0-0.2l-0.2,0c0,0-0.2-0.1-0.3-0.1c-0.1,0-0.3,0-0.3,0s-0.1-0.2,0.1-0.3c0.2,0,0.5,0,0.6,0
					c0.1,0,0.3,0.1,0.5,0.1c0.1,0.1,0.3,0,0.4,0.1c0.1,0.1,0.3,0.2,0.3,0.2s0.2,0,0.2,0.1c0.1,0.1,0.2,0.2,0.2,0.2
					c0.1,0,0.3,0,0.3-0.1c0-0.1-0.1-0.2-0.2-0.3c-0.1,0-0.2-0.2-0.2-0.2c0.2-0.1,0.2-0.3,0.2-0.3s0-0.1-0.2-0.1
					c-0.2,0-0.4,0.1-0.7,0.1c-0.3,0-0.6,0-0.8-0.1c-0.2-0.1-0.4-0.1-0.6-0.1c-0.1,0-0.5-0.1-0.5-0.1c-0.1,0-0.3,0-0.5,0.1
					c-0.2,0.1-0.3,0.1-0.4,0.2c-0.1,0.1-0.2,0.2-0.3,0.3c-0.1,0.1-0.2,0.3-0.2,0.3c0,0.1,0,0.1,0.2,0.1c0.2,0,0.3-0.1,0.4-0.2
					c0.1,0,0.1-0.1,0.2,0c0,0.1,0,0.2,0.1,0.2c0,0.1,0.1,0.2,0.1,0.3c0,0.1-0.1,0.2-0.3,0.2c-0.2,0-0.3,0-0.4-0.1
					c-0.1,0-0.1-0.1-0.3-0.1c-0.2,0-0.7-0.1-0.8-0.1c-0.1,0-0.4,0.1-0.5,0.1c-0.1,0-0.6,0.3-0.8,0.2c-0.2-0.1,0.1-0.3-0.3-0.2
					c-0.3,0.1-0.4,0.2-0.4,0.3c-0.1,0.1-0.1,0.3-0.2,0.2c-0.1-0.1-0.3,0.1-0.4,0c-0.1-0.1-0.1-0.3-0.1-0.3s0.2-0.3-0.1-0.2
					c-0.2,0.1-0.3,0.2-0.4,0.3c0,0.1,0,0.2-0.2,0.2c-0.1,0-0.2,0.1-0.2-0.1c0-0.1,0-0.4,0-0.4s0.1-0.2-0.1-0.3
					c-0.2-0.1-0.2-0.2-0.3-0.2c-0.1,0-0.3,0-0.3,0.1c0,0.1,0,0.3-0.2,0.3c-0.1,0.1-0.3,0.1-0.3,0.1c-0.1,0-0.5,0-0.5,0l-0.3-0.1
					l-0.5,0c0,0-1.5,1.2-2,1.9c0,0-0.5,1.1-0.6,1.3c-0.1,0.2-0.3,0.5-0.3,0.5l-0.4,0.3c0,0-0.2,0.3-0.3,0.6c-0.1,0.3-0.3,1-0.3,1.3
					c-0.1,0.2,0,0.2,0,0.5c0,0.3,0,0.4,0,0.5c0,0.1,0,0.1-0.1,0.3c0,0.1-0.3,0.5-0.3,0.7c0,0.2-0.1,0.6,0,0.4
					c0.1-0.2,0.2-0.3,0.3-0.5c0.1-0.2,0-0.2,0.1-0.4c0.1-0.1-0.1-0.1,0.1-0.1c0.2-0.1,0.3-0.2,0.3,0c0,0.2,0,0.4,0.1,0.5
					c0,0.1,0.1,0.3,0,0.4c-0.1,0.1-0.2,0.2-0.3,0.2c-0.1,0,0,0.3,0,0.5c0,0.2-0.2,0.6-0.2,0.6s-0.2,0.7-0.2,1
					c0.1,0.2,0.2,0.4,0.2,0.5c-0.1,0.2-0.1,0.3-0.1,0.3s0.2,0.5,0.3,0.7c0.1,0.2-0.1,0.3,0.3,0.5c0.4,0.2,0.5,0.1,0.7,0.1
					c0.2,0.1,0.3,0.2,0.4,0.3c0,0.1,0.1,0.6,0.1,0.7c-0.1,0.2-0.2,0.5-0.2,0.5s-0.2,0.1-0.2,0.3c0,0.2,0.1,0.5,0.1,0.7
					c0,0.2,0,0.2,0.1,0.2C441.1,128.5,441.3,128.5,441.3,128.5z M450.7,118.7c0-0.1,0.2-0.3,0.2-0.3c0-0.1,0.1-0.2,0.1-0.2
					s0.1-0.2,0.2-0.4c0.1-0.2-0.1-0.2-0.1-0.3c-0.1-0.1-0.1,0-0.2-0.1c-0.1,0-0.1,0-0.2-0.2c-0.1-0.2,0-0.2,0-0.3c0-0.1,0.2,0,0.2,0
					l0.2,0.1c0,0,0.3,0.1,0.4,0.2c0.1,0,0.3,0.1,0.5,0.2c0.2,0.1,0,0,0.1,0.1c0.1,0.1,0,0.2,0,0.3c0,0.1-0.2,0.3-0.2,0.3
					s0,0.2,0.1,0.3c0.1,0.1,0.1,0,0.2,0.1c0.1,0.1,0.1,0.2,0.1,0.4c0.1,0.2,0,0.2-0.1,0.4c-0.1,0.1-0.4,0.4-0.4,0.4
					c-0.1,0.2-0.1,0.1-0.4,0.1c-0.2-0.1,0,0,0-0.1c0-0.1-0.1-0.1-0.2-0.2c-0.1-0.1,0-0.2,0-0.2s0.1-0.2,0.1-0.2
					c0-0.1-0.1-0.2-0.3-0.1C450.8,118.9,450.9,118.9,450.7,118.7C450.6,118.7,450.7,118.8,450.7,118.7z M449.2,117.9
					C449.2,117.8,449.2,117.9,449.2,117.9c0-0.2,0.2-0.2,0.2-0.2s0,0,0.1,0.1c0.1,0.1,0.2,0,0.3,0c0.1,0,0,0.1,0,0.2
					c0,0.1,0,0.2-0.1,0.4c0,0.2-0.2,0.1-0.2,0.1s-0.1-0.1-0.1-0.2c-0.1-0.1-0.1,0-0.2,0C449.1,118.1,449.1,118.1,449.2,117.9z
					 M443.7,119.9c-0.1-0.2,0,0,0.1-0.2c0.1-0.2,0,0,0-0.1c0-0.1,0.3,0,0.3,0l0,0.3c0,0-0.1,0.2-0.3,0.1
					C443.6,120.1,443.8,120.1,443.7,119.9z"/>
				<path class="st14" d="M440.2,129.6c0-0.1-0.1-0.2-0.1-0.3c0-0.1,0.1,0,0.1,0s0.2,0.3,0.5,0.7c0.4,0.5,0.2,0.2,0.3,0.3
					c0.1,0.1,0.1,0.2,0.3,0.3c0.1,0.1,0.2,0.1,0.3,0.2c0.1,0.1,0.1,0.4,0.2,0.6c0,0.2-0.4,0.2-0.6,0.1c-0.2-0.1-0.1-0.1-0.2-0.3
					c0-0.1-0.1-0.2-0.1-0.3c0-0.1-0.2-0.2-0.3-0.3c-0.1-0.1-0.1-0.2-0.1-0.4c0-0.1-0.1-0.2-0.1-0.3
					C440.4,129.8,440.2,129.7,440.2,129.6z"/>
				<path class="st14" d="M442.3,130c0-0.1,0-0.1,0.1-0.3c0.1-0.2,0-0.2,0.2-0.3c0.1-0.1,0.1,0.1,0.1-0.1c0-0.2,0-0.4,0-0.4
					s0-0.2,0.1-0.2c0.1,0,0.3,0.1,0.3,0.3c0,0.2-0.1,0.2-0.1,0.3c-0.1,0.1-0.1,0.2-0.1,0.3c0,0.1,0,0.2,0,0.3c0,0.2,0.1,0.4,0.1,0.4
					s0,0.1-0.1,0.2c-0.1,0.1-0.2,0.2-0.2,0c0-0.1-0.1-0.3-0.1-0.4C442.4,130.2,442.3,130.1,442.3,130z"/>
				<path class="st14" d="M442.7,131.5c0.1-0.1,0.1-0.1,0.1-0.3c0-0.2-0.3,0,0-0.2c0.3-0.2,0.1,0,0.3-0.2c0.1-0.2,0.2-0.2,0.2-0.3
					c0-0.1,0.1-0.2,0.1-0.2l0.1-0.1c0,0,0.1-0.1,0.2,0c0,0.1,0.1,0.1,0,0.3c-0.1,0.2,0,0.2-0.2,0.3c-0.1,0.2,0-0.1-0.1,0.2
					c-0.1,0.3-0.1,0.3-0.1,0.4c0,0.1,0,0.2,0,0.3c0,0.1,0.1,0.2,0,0.4c-0.1,0.1-0.2,0.3-0.2,0.3l-0.2,0.1c-0.1-0.2-0.1-0.4-0.2-0.5
					c-0.1-0.1-0.2,0-0.1-0.2C442.7,131.5,442.6,131.6,442.7,131.5z"/>
				<path class="st14" d="M446.7,129.1c0-0.1,0,0,0-0.2c0-0.2,0.1,0,0.2,0c0.1,0,0.1,0.2,0.1,0.2s0.1,0.1,0.2,0.2
					c0.1,0.1,0,0.2-0.1,0.4c-0.1,0.1-0.3,0-0.4-0.1l-0.1-0.2c0,0,0,0,0.1-0.2C446.8,129.1,446.7,129.3,446.7,129.1z"/>
				<path class="st14" d="M456.9,131.9c0.1,0,0.2,0,0.2,0l0.2,0.1c0,0,0.1,0.1,0.2,0.2c0.1,0,0.1,0,0.3,0c0.1,0,0.2-0.1,0.3-0.1
					c0.2,0,0,0,0.1,0c0.1,0,0.2,0.1,0.2,0.1l0,0.2l-0.2,0.2c0,0,0,0.2,0.1,0.3c0.1,0.1,0,0,0.1,0c0.1,0,0.2,0.1,0.2,0.1s0,0,0,0.2
					c0,0.2-0.2,0.2-0.2,0.4c0,0,0,0.2,0,0.3c0,0.1-0.2,0.1-0.6,0.1c-0.4,0,0,0-0.1-0.1c-0.1-0.1-0.1-0.1-0.2-0.3
					c-0.1-0.1-0.1-0.2-0.2-0.4c-0.1-0.1-0.1-0.2-0.1-0.2c0-0.1-0.3-0.2-0.3-0.4c0-0.2,0-0.1-0.1-0.2c0-0.1,0-0.2,0-0.4
					C456.9,131.7,456.8,131.9,456.9,131.9z"/>
			</g>
			<path class="st15" d="M482.2,123.4h-9c-0.2-11.4-9.5-20.5-21-20.5c0,0,0,0,0,0v-8.8c0-0.4-0.3-0.7-0.7-0.7
				c-0.4,0-0.7,0.3-0.7,0.7v8.8c-10.7,0.7-19.3,9.6-19.5,20.5h-8.8c-0.4,0-0.7,0.3-0.7,0.7c0,0.4,0.3,0.7,0.7,0.7h8.8
				c0.5,10.6,8.9,19.1,19.5,19.9v8.8c0,0.4,0.3,0.7,0.7,0.7c0.4,0,0.7-0.3,0.7-0.7v-8.8c0,0,0,0,0,0c11.2,0,20.4-8.9,20.9-19.9h9
				c0.4,0,0.7-0.3,0.7-0.7C482.9,123.8,482.6,123.4,482.2,123.4z M452.2,143.4c-10.8,0-19.5-8.8-19.5-19.5
				c0-10.8,8.8-19.5,19.5-19.5c10.8,0,19.5,8.8,19.5,19.5C471.8,134.6,463,143.4,452.2,143.4z"/>
		</g>
		<g>
			<g>
				<rect x="491.5" y="210.9" class="st3" width="41.3" height="25"/>
				<path class="st3" d="M497,244.5c0,2.9,2.4,5.3,5.3,5.3c2.9,0,5.3-2.4,5.3-5.3c0-2.9-2.4-5.3-5.3-5.3
					C499.3,239.2,497,241.6,497,244.5z M499.4,244.5c0-1.6,1.3-2.8,2.8-2.8c1.6,0,2.8,1.3,2.8,2.8s-1.3,2.8-2.8,2.8
					C500.7,247.3,499.4,246,499.4,244.5z"/>
				<g>
					<path class="st3" d="M489.7,234.1v8.1h6c1-2.6,3.5-4.5,6.4-4.5c3,0,5.5,1.9,6.4,4.5h23.1c1-2.6,3.5-4.5,6.4-4.5
						c3,0,5.5,1.9,6.4,4.5h8.6c0,0,2.3-1.5,2.3-3.7c0-2.2,0-8.6,0-8.6s-1-2-1.7-2.1c-0.7-0.1-4.2-10.8-4.2-10.8s-0.1-1.1-2.1-1.2
						c-2-0.1-13.1,0-13.1,0v18.2H489.7z M536.2,217.9h11.5l3.8,10h-15.3V217.9z"/>
					<path class="st3" d="M532.9,244.5c0,2.9,2.4,5.3,5.3,5.3c2.9,0,5.3-2.4,5.3-5.3c0-2.9-2.4-5.3-5.3-5.3
						C535.3,239.2,532.9,241.6,532.9,244.5z M535.4,244.5c0-1.6,1.3-2.8,2.8-2.8c1.6,0,2.8,1.3,2.8,2.8s-1.3,2.8-2.8,2.8
						C536.6,247.3,535.4,246,535.4,244.5z"/>
				</g>
			</g>
			<g>
				<g>
					<path class="st16" d="M524.1,177.5C519.7,165.6,508,166,508,166s-11.7-0.5-16.1,11.5c-4.4,11.9,5,18.8,7.7,21.4
						c2.7,2.6,8.4,8.6,8.4,8.6s5.7-6,8.4-8.6C519.1,196.3,528.5,189.5,524.1,177.5z M508,195c-6.4,0-11.5-5.2-11.5-11.5
						c0-6.4,5.2-11.5,11.5-11.5c6.4,0,11.5,5.2,11.5,11.5C519.5,189.9,514.4,195,508,195z"/>
					<circle class="st17" cx="508" cy="183.5" r="7.1"/>
				</g>
			</g>
		</g>
		<g>
			<g>
				<path class="st7" d="M67.2,294.6l-11.3,4.6c-4.7,1.9-7,7.2-5.1,11.9l4.2,10.3c1.9,4.7,7.2,7,11.9,5.1l11.3-4.6
					c4.7-1.9,7-7.2,5.1-11.9l-4.2-10.3C77.2,295,71.8,292.7,67.2,294.6z M65.8,308.3c-4.4,1.8-7.1-5-2.7-6.8
					C67.4,299.8,70.1,306.6,65.8,308.3z"/>
				<path class="st7" d="M71.7,311.1l21.8,51.6c0.9,2.3,0.7,4.7-1.7,5.6l-2.7,1.1c-2.3,0.9-5-0.2-6-2.5l-21-51.9"/>
				<path class="st7" d="M72.5,308.2l7.6,18.8c0.9,2.3-0.2,5-2.5,6l-2.7,1.1c-2.3,0.9-5-0.2-6-2.5l-7.6-18.8"/>
				<path class="st18" d="M87.6,364.3c0.3,0.7-0.1,1.5-0.8,1.8l0,0c-0.7,0.3-1.5-0.1-1.8-0.8l-13.9-34.4c-0.3-0.7,0.1-1.5,0.8-1.8
					l0,0c0.7-0.3,1.5,0.1,1.8,0.8L87.6,364.3z"/>
				<path class="st7" d="M83.1,330.5c0.5,1.3-0.1,2.8-1.4,3.3l0,0c-1.3,0.5-2.8-0.1-3.3-1.4l-0.3-0.6c-0.5-1.3,0.1-2.8,1.4-3.3l0,0
					c1.3-0.5,2.8,0.1,3.3,1.4L83.1,330.5z"/>
				<path class="st7" d="M85.2,335.6c0.5,1.3-0.1,2.8-1.4,3.3l0,0c-1.3,0.5-2.8-0.1-3.3-1.4l-0.3-0.6c-0.5-1.3,0.1-2.8,1.4-3.3l0,0
					c1.3-0.5,2.8,0.1,3.3,1.4L85.2,335.6z"/>
				<path class="st7" d="M87.2,340.7c0.5,1.3-0.1,2.8-1.4,3.3l0,0c-1.3,0.5-2.8-0.1-3.3-1.4l-0.3-0.6c-0.5-1.3,0.1-2.8,1.4-3.3l0,0
					c1.3-0.5,2.8,0.1,3.3,1.4L87.2,340.7z"/>
				<path class="st7" d="M89.3,345.8c0.5,1.3-0.1,2.8-1.4,3.3l0,0c-1.3,0.5-2.8-0.1-3.3-1.4l-0.3-0.6c-0.5-1.3,0.1-2.8,1.4-3.3l0,0
					c1.3-0.5,2.8,0.1,3.3,1.4L89.3,345.8z"/>
				<path class="st7" d="M91.4,350.9c0.5,1.3-0.1,2.8-1.4,3.3l0,0c-1.3,0.5-2.8-0.1-3.3-1.4l-0.3-0.6c-0.5-1.3,0.1-2.8,1.4-3.3l0,0
					c1.3-0.5,2.8,0.1,3.3,1.4L91.4,350.9z"/>
				<path class="st7" d="M93.4,356c0.5,1.3-0.1,2.8-1.4,3.3l0,0c-1.3,0.5-2.8-0.1-3.3-1.4l-0.3-0.6c-0.5-1.3,0.1-2.8,1.4-3.3l0,0
					c1.3-0.5,2.8,0.1,3.3,1.4L93.4,356z"/>
				<path class="st7" d="M95.5,361.1c0.5,1.3-0.1,2.8-1.4,3.3l0,0c-1.3,0.5-2.8-0.1-3.3-1.4l-0.3-0.6c-0.5-1.3,0.1-2.8,1.4-3.3l0,0
					c1.3-0.5,2.8,0.1,3.3,1.4L95.5,361.1z"/>
			</g>
			<g>
				<path class="st7" d="M60.1,316l0.9,56c0,2.5-1.1,4.6-3.7,4.6h-2.9c-2.5,0-4.6-2.1-4.6-4.6v-56"/>
				<path class="st7" d="M62,313.8V334c0,2.5-2.1,4.6-4.6,4.6h-2.9c-2.5,0-4.6-2.1-4.6-4.6v-20.2"/>
				<path class="st18" d="M54.9,371.4c0,0.8-0.6,1.4-1.4,1.4l0,0c-0.8,0-1.4-0.6-1.4-1.4v-37.1c0-0.8,0.6-1.4,1.4-1.4l0,0
					c0.8,0,1.4,0.6,1.4,1.4V371.4z"/>
				<path class="st7" d="M63.4,338.4c0,1.4-1.1,2.5-2.5,2.5l0,0c-1.4,0-2.5-1.1-2.5-2.5v-0.7c0-1.4,1.1-2.5,2.5-2.5l0,0
					c1.4,0,2.5,1.1,2.5,2.5V338.4z"/>
				<path class="st7" d="M63.4,343.9c0,1.4-1.1,2.5-2.5,2.5l0,0c-1.4,0-2.5-1.1-2.5-2.5v-0.7c0-1.4,1.1-2.5,2.5-2.5l0,0
					c1.4,0,2.5,1.1,2.5,2.5V343.9z"/>
				<path class="st7" d="M63.4,349.4c0,1.4-1.1,2.5-2.5,2.5l0,0c-1.4,0-2.5-1.1-2.5-2.5v-0.7c0-1.4,1.1-2.5,2.5-2.5l0,0
					c1.4,0,2.5,1.1,2.5,2.5V349.4z"/>
				<path class="st7" d="M63.4,354.9c0,1.4-1.1,2.5-2.5,2.5l0,0c-1.4,0-2.5-1.1-2.5-2.5v-0.7c0-1.4,1.1-2.5,2.5-2.5l0,0
					c1.4,0,2.5,1.1,2.5,2.5V354.9z"/>
				<path class="st7" d="M63.4,360.4c0,1.4-1.1,2.5-2.5,2.5l0,0c-1.4,0-2.5-1.1-2.5-2.5v-0.7c0-1.4,1.1-2.5,2.5-2.5l0,0
					c1.4,0,2.5,1.1,2.5,2.5V360.4z"/>
				<path class="st7" d="M63.4,365.9c0,1.4-1.1,2.5-2.5,2.5l0,0c-1.4,0-2.5-1.1-2.5-2.5v-0.7c0-1.4,1.1-2.5,2.5-2.5l0,0
					c1.4,0,2.5,1.1,2.5,2.5V365.9z"/>
				<path class="st7" d="M63.4,371.4c0,1.4-1.1,2.5-2.5,2.5l0,0c-1.4,0-2.5-1.1-2.5-2.5v-0.7c0-1.4,1.1-2.5,2.5-2.5l0,0
					c1.4,0,2.5,1.1,2.5,2.5V371.4z"/>
				<path class="st18" d="M62.1,299.1H49.8c-5.1,0-9.2,4.1-9.2,9.2v11.1c0,5.1,4.1,9.2,9.2,9.2h12.2c5.1,0,9.2-4.1,9.2-9.2v-11.1
					C71.2,303.2,67.1,299.1,62.1,299.1z M55.6,311.3c-4.7,0-4.7-7.3,0-7.3C60.4,304,60.4,311.3,55.6,311.3z"/>
			</g>
		</g>
		<g>
			<g>
				<g>
					<path class="st10" d="M554.2,294.1c0,5.9-4.8,10.7-10.8,10.7c-5.9,0-10.7-4.8-10.7-10.7c0-5.9,4.8-10.8,10.7-10.8
						C549.4,283.3,554.2,288.1,554.2,294.1z"/>
					<rect x="539.4" y="299.6" class="st10" width="8.1" height="11.5"/>
					<path class="st10" d="M527.9,330.1v-16.3c0-4,2.2-7.2,6.6-7.2h18c4.4,0,6.6,3.2,6.6,7.2v16.3"/>
				</g>
				<g>
					<circle class="st7" cx="532.7" cy="298.4" r="10.8"/>
					<rect x="528.6" y="303.9" class="st7" width="8.1" height="11.5"/>
					<path class="st7" d="M517.1,334.4v-16.3c0-4,2.2-7.2,6.6-7.2h18c4.4,0,6.6,3.2,6.6,7.2v16.3"/>
				</g>
			</g>
			<g>
				<path class="st10" d="M573.2,313.7c0,1-0.8,1.7-1.7,1.7l0,0c-1,0-1.7-0.8-1.7-1.7v-17.9c0-1,0.8-1.7,1.7-1.7l0,0
					c1,0,1.7,0.8,1.7,1.7V313.7z"/>
				<path class="st10" d="M580.4,303c1,0,1.7,0.8,1.7,1.7l0,0c0,1-0.8,1.7-1.7,1.7h-17.9c-1,0-1.7-0.8-1.7-1.7l0,0
					c0-1,0.8-1.7,1.7-1.7H580.4z"/>
			</g>
		</g>
		<g id="envelope_11_">
			<path class="st12" d="M289.4,544.3l-27-27h54L289.4,544.3z M289.4,548.8l-11.2-11.2l-15.7,15.7h54l-15.7-15.7L289.4,548.8z
				 M302.8,535.3l13.5,13.5v-27L302.8,535.3z M262.4,521.8v27l13.5-13.5L262.4,521.8z"/>
		</g>
		<g id="user_x5F_remove">
			<path class="st8" d="M77.1,424.5c-0.7,0-1.3-0.6-1.3-1.3v-2.5c0-0.7,0.6-1.3,1.3-1.3h17.5c0.7,0,1.3,0.6,1.3,1.3v2.5
				c0,0.7-0.6,1.3-1.3,1.3H77.1z"/>
			<g id="user_38_">
				<path id="user_39_" class="st8" d="M138.4,440c-1.6-0.9-12.1-7.1-17.5-9.3v-9.4c1.6-1.1,2.5-2.9,2.5-5.6v-7.5
					c0-6.2-3.8-11.3-11.3-11.3s-11.3,5.1-11.3,11.3c0,0,0,1.2,0,7.5c0,2.7,0.9,4.4,2.5,5.6v9.4c-5.1,2.2-15.9,8.4-17.5,9.3
					c-2,1.1-2.5,2.2-2.5,4.9c0,1.1,0,5.9,0,5.9c0,0.7,0.6,1.3,1.3,1.3h55c0.7,0,1.3-0.6,1.3-1.3c0,0,0-4.8,0-5.9
					C140.9,442.3,140.4,441.2,138.4,440z"/>
			</g>
			<g id="user_33_">
				<path id="user_34_" class="st7" d="M145.1,446.8c-1.6-0.9-12.1-7.1-17.5-9.3V428c1.6-1.1,2.5-2.9,2.5-5.6V415
					c0-6.2-3.8-11.3-11.3-11.3s-11.3,5.1-11.3,11.3c0,0,0,1.2,0,7.5c0,2.7,0.9,4.4,2.5,5.6v9.4c-5.1,2.2-15.9,8.4-17.5,9.3
					c-2,1.1-2.5,2.2-2.5,4.9c0,1.1,0,5.9,0,5.9c0,0.7,0.6,1.3,1.3,1.3h55c0.7,0,1.3-0.6,1.3-1.3c0,0,0-4.8,0-5.9
					C147.6,449,147.1,447.9,145.1,446.8z"/>
			</g>
		</g>
		<g id="coins">
			<g>
				<g>
					<path class="st19" d="M527.9,419c-2.2,0-4.5-0.4-6.6-1.2c-2.4,0.6-4.9,1-7.4,1.2c-4.5,0.3-9.2-0.1-13.6-1.3
						c-2.7-0.7-6.1-1.8-7.6-4.3c-1-1.7-0.6-4.3-0.6-6.2c0-1.1,0.5-2.1,1.5-3.1c-1.1-1-1.7-2-1.7-3.1v-4.1c0-1.5,1-2.9,2.8-4.1
						c-0.5-0.7-0.7-1.4-0.7-2.2v-4.1c0-1.5,1-2.9,2.8-4.1c-0.5-0.7-0.7-1.4-0.7-2.2v-4.1c0-4.2,6.4-6,9.5-6.7
						c5-1.2,10.5-1.3,15.6-0.6c3.9,0.5,9.2,1.5,12,4.7c1.6,1.8,1.1,4.6,1.1,6.8c0,0.6-0.2,1.1-0.5,1.6c8.7,2.8,14.3,12,12.9,21
						C545.4,412,537.1,419,527.9,419z M527.9,385c-1.9,0-3.7,0.4-5.4,1c-8.1,3.2-11.7,12.9-7.9,20.6c2.1,4.3,6.4,7.4,11.2,8
						c8.6,1.5,16.8-5.7,17-14.2C543.1,392.3,536.2,385,527.9,385z M495.1,407.3c0.6,2.3,5.2,3.1,7.1,3.6c3.9,0.9,7.7,0.7,11.6,0.9
						c-0.8-0.9-1.6-2-2.2-3.1c-5-0.2-13.5-1.4-14.5-2.9l-0.2-0.4C495.1,406,495.1,407.3,495.1,407.3z M495.1,396.9
						c0.5,1.8,4.1,2.7,5.6,3.2c2.9,0.9,6,1.2,9.1,1.3c-0.1-1.4,0-2.7,0.1-4c-4-0.3-8.2-0.9-11.7-2.9c-0.9,0.4-2.7,1.1-3.1,2.2l0,0.1
						L495.1,396.9z M497.1,386.6c0.6,2.2,5.1,3.1,6.9,3.5c2.6,0.6,5.3,0.9,8,1c0.8-1.4,1.8-2.7,2.9-3.9c-5-0.1-12.4-1.9-14.8-3
						C497.9,385,497.1,386.6,497.1,386.6z M499.2,376.2c0.6,2.2,5.1,3.1,6.9,3.5c3,0.7,6.1,1,9.1,1c3.6,0,7-0.5,10.5-1.4
						c1.7-0.5,4.9-1.1,5.5-3.1l0-0.1c-0.5-1.9-3.9-2.7-5.5-3.1c-3.4-1-7-1.4-10.5-1.4c-3.6,0-7.3,0.3-10.7,1.4
						c-1.7,0.5-4.7,1.2-5.2,3.1L499.2,376.2z"/>
				</g>
				<ellipse class="st7" cx="527.9" cy="400" rx="14.9" ry="14.9"/>
			</g>
		</g>
		<g id="charts_14_">
			<path class="st20" d="M417.7,534.5v-30.8c0-0.6-0.5-1.1-1.1-1.1h-8.5c-0.6,0-1.1,0.5-1.1,1.1v30.8H405v-45.7
				c0-0.6-0.5-1.1-1.1-1.1h-8.5c-0.6,0-1.1,0.5-1.1,1.1v45.7h-2.1v-22.3c0-0.6-0.5-1.1-1.1-1.1h-8.5c-0.6,0-1.1,0.5-1.1,1.1v22.3
				h-2.1v-9.6c0-0.6-0.5-1.1-1.1-1.1h-8.5c-0.6,0-1.1,0.5-1.1,1.1v1.1v8.5h-4.3v4.3H422v-2.1v-2.1H417.7z"/>
		</g>
		<g>
			<ellipse class="st0" cx="187.1" cy="498.7" rx="22.1" ry="22.2"/>
			<g>
				<path class="st7" d="M199.3,492.5l-8,8c0.1,0.4,0.2,0.8,0.2,1.2c0,2.7-2.2,4.9-4.9,4.9c-1.8,0-3.4-1.3-4.3-2.5h-6.8
					c-0.7,0-1.2-0.6-1.2-1.3v-2.3c0-0.7,0.6-1.3,1.2-1.3h6.8c0.8-1.2,2.4-2.5,4.3-2.5c0.5,0,0.9,0.1,1.4,0.3l7.9-7.9
					c0.5-0.5,1.3-0.5,1.7,0l1.7,1.7C199.8,491.3,199.8,492.1,199.3,492.5z"/>
			</g>
			<path class="st21" d="M216.1,503.4c0.3-2.5,0.5-3.3,0.5-4.9c0-16.2-13.2-29.4-29.4-29.4s-29.4,13.2-29.4,29.4
				c0,16.2,12.3,29.4,29.4,29.4v0c4.9,0,11.1-1.6,16-4.8l0.1-0.1l3.6,5c0.4,0.5,0.9,0.5,1.1-0.2l5.4-15.8c0.2-0.6-0.2-1.2-0.9-1.2
				l-16.8,0c-0.7,0-0.9,0.4-0.5,1l3.7,5.2c-3.7,2.4-6.9,3.5-11.8,3.5v0c-12.3,0-22.1-9.9-22.1-22.1c0-12.2,9.9-22.1,22.1-22.1
				c12.2,0,22.1,9.9,22.1,22.1c0,1.7-0.2,2.5-0.6,4.9H216.1z"/>
		</g>
		<g id="cogwheels_7_">
			<g>
				<g id="cogwheel_8_">
					<path class="st22" d="M489.8,469.4c0.1-1,0.2-1.9,0.2-3c0-1-0.1-2-0.2-3l-6.1-1.5c-0.4-1.5-1-2.9-1.7-4.2l3.2-5.3
						c-1.2-1.6-2.6-3-4.2-4.2l-5.3,3.2c-1.3-0.7-2.7-1.3-4.2-1.7l-1.5-6.1c-1-0.1-1.9-0.2-3-0.2c-1,0-2,0.1-3,0.2l-1.5,6.1
						c-1.5,0.4-2.9,1-4.2,1.7l-5.3-3.2c-1.6,1.2-3,2.6-4.2,4.2l3.2,5.3c-0.7,1.3-1.3,2.7-1.7,4.2l-6.1,1.5c-0.1,1-0.2,1.9-0.2,3
						c0,1,0.1,2,0.2,3l6.1,1.5c0.4,1.5,1,2.9,1.7,4.2l-3.2,5.3c1.2,1.6,2.6,3,4.2,4.2l5.3-3.2c1.3,0.7,2.7,1.3,4.2,1.7l1.5,6.1
						c1,0.1,1.9,0.2,3,0.2c1,0,2-0.1,3-0.2l1.5-6.1c1.5-0.4,2.9-1,4.2-1.7l5.3,3.2c1.6-1.2,3-2.6,4.2-4.2l-3.2-5.3
						c0.7-1.3,1.3-2.7,1.7-4.2L489.8,469.4z M467.1,474.5c-4.4,0-8-3.6-8-8s3.6-8,8-8c4.4,0,8,3.6,8,8S471.5,474.5,467.1,474.5z"/>
				</g>
				<path class="st22" d="M497.9,494.6c-0.5,0-1,0-1.4-0.1l-0.7-2.9l-0.1,0c-0.6-0.2-1.2-0.4-1.8-0.7l-0.1-0.1l-2.6,1.5
					c-0.8-0.6-1.5-1.3-2-2l1.5-2.6l-0.1-0.1c-0.3-0.6-0.6-1.2-0.7-1.8l0-0.1L487,485c-0.1-0.5-0.1-1-0.1-1.4c0-0.5,0-1,0.1-1.4
					l2.9-0.7l0-0.1c0.2-0.6,0.4-1.2,0.7-1.8l0.1-0.1l-1.5-2.6c0.6-0.8,1.3-1.4,2-2l2.6,1.5l0.1-0.1c0.6-0.3,1.2-0.6,1.8-0.7l0.1,0
					l0.7-2.9c0.5-0.1,1-0.1,1.4-0.1c0.5,0,1,0,1.4,0.1l0.7,2.9l0.1,0c0.6,0.2,1.2,0.4,1.8,0.7l0.1,0.1l2.6-1.5c0.8,0.6,1.5,1.3,2,2
					l-1.5,2.6l0.1,0.1c0.3,0.6,0.6,1.2,0.7,1.8l0,0.1l2.9,0.7c0.1,0.5,0.1,1,0.1,1.4c0,0.5,0,1-0.1,1.4l-2.9,0.7l0,0.1
					c-0.2,0.6-0.4,1.2-0.7,1.8l-0.1,0.1l1.5,2.6c-0.6,0.8-1.3,1.5-2,2l-2.6-1.5l-0.1,0.1c-0.6,0.3-1.2,0.6-1.8,0.7l-0.1,0l-0.7,2.9
					C498.7,494.6,498.3,494.6,497.9,494.6z M497.9,479.5c-2.3,0-4.1,1.8-4.1,4.1c0,2.3,1.8,4.1,4.1,4.1c2.3,0,4.1-1.8,4.1-4.1
					C502,481.3,500.1,479.5,497.9,479.5z"/>
				<g>
					<circle class="st0" cx="467.1" cy="466.4" r="8"/>
				</g>
			</g>
		</g>
		<g id="pie_x5F_chart_8_">
			<g>
				<path class="st23" d="M227,81.4c0-14.4,11.8-26.2,26.2-26.2c7.2,0,13.7,2.9,18.5,7.7l-18.6,18.5v26.2
					C239,107.5,227,95.8,227,81.4z"/>
			</g>
			<path class="st24" d="M257.9,81.4l18.5-18.5c10.2,10.2,10.2,26.8,0,37L257.9,81.4z"/>
			<path class="st25" d="M255.5,83.5v26.2c7,0,13.4-2.6,18.5-7.7L255.5,83.5z"/>
		</g>
	</g>
	<g>
		<g>
			<g>
				<g>
					<g>
						<g>
							<g>
								<g>
									<path class="st26" d="M425.4,373.8V229.4c0-3.3-2.7-6-5.9-6H192.6c-3.3,0-5.9,2.7-5.9,6v144.4H425.4z"/>
									<path class="st27" d="M425.4,374.1H186.6c-0.2,0-0.3-0.1-0.3-0.3V229.4c0-3.5,2.8-6.3,6.3-6.3h226.9c3.5,0,6.3,2.8,6.3,6.3
										v144.4C425.7,374,425.6,374.1,425.4,374.1z M186.9,373.5h238.2V229.4c0-3.1-2.5-5.6-5.6-5.6H192.6c-3.1,0-5.6,2.5-5.6,5.6
										V373.5z"/>
								</g>
								<path class="st7" d="M345.7,416.3h-79.4c-2,0-3.7,1.9-3.7,4.3v1.6h86.7v-1.6C349.4,418.2,347.7,416.3,345.7,416.3z"/>
								<path class="st7" d="M186.6,373.8v17.1c0,3.3,2.7,5.9,5.9,5.9h226.9c3.3,0,5.9-2.7,5.9-5.9v-17.1H186.6z"/>
								<rect x="196.4" y="232.7" class="st28" width="219.2" height="131.2"/>
								<path class="st29" d="M341.2,416.3c-1.6-6.5-3.2-13-4.8-19.5h-60.9c-1.6,6.5-3.2,13-4.8,19.5H341.2z"/>
								<path class="st30" d="M270.8,416.3h32.3l19.5-19.5h-47C274,403.3,272.4,409.8,270.8,416.3z"/>
							</g>
						</g>
					</g>
				</g>
			</g>
		</g>
		<g>
			<g>
				<path class="st7" d="M213.2,281.7h8.7v1.8h-6.6v5.4h6.1v1.7h-6.1v7.3h-2.1V281.7z"/>
				<path class="st7" d="M224.5,280.8h2.1v17.1h-2.1V280.8z"/>
				<path class="st7" d="M231.3,292.5c0,2.9,1.9,4,4,4c1.5,0,2.4-0.3,3.2-0.6l0.4,1.5c-0.7,0.3-2,0.7-3.9,0.7
					c-3.6,0-5.7-2.4-5.7-5.9s2.1-6.3,5.5-6.3c3.8,0,4.8,3.3,4.8,5.5c0,0.4,0,0.8-0.1,1H231.3z M237.5,290.9c0-1.3-0.6-3.4-2.9-3.4
					c-2.1,0-3.1,2-3.2,3.4H237.5z"/>
				<path class="st7" d="M243.4,292.5c0,2.9,1.9,4,4,4c1.5,0,2.4-0.3,3.2-0.6l0.4,1.5c-0.7,0.3-2,0.7-3.9,0.7
					c-3.6,0-5.7-2.4-5.7-5.9s2.1-6.3,5.5-6.3c3.8,0,4.8,3.3,4.8,5.5c0,0.4,0,0.8-0.1,1H243.4z M249.6,290.9c0-1.3-0.6-3.4-2.9-3.4
					c-2.1,0-3.1,2-3.2,3.4H249.6z"/>
				<path class="st7" d="M256.8,282.9v3.3h3v1.6h-3v6.3c0,1.4,0.4,2.3,1.6,2.3c0.6,0,1-0.1,1.2-0.1l0.1,1.6
					c-0.4,0.2-1.1,0.3-1.9,0.3c-1,0-1.8-0.3-2.3-0.9c-0.6-0.6-0.8-1.7-0.8-3v-6.4H253v-1.6h1.8v-2.8L256.8,282.9z"/>
				<path class="st7" d="M281.1,290.8c-0.1-2.3-0.3-5-0.2-7h-0.1c-0.6,1.9-1.2,3.9-2,6.2l-2.9,7.9h-1.6l-2.6-7.7
					c-0.8-2.3-1.4-4.4-1.9-6.3h0c0,2-0.2,4.7-0.3,7.2l-0.4,7h-2l1.1-16.2h2.7l2.8,7.8c0.7,2,1.2,3.8,1.6,5.5h0.1
					c0.4-1.6,1-3.4,1.7-5.5l2.9-7.8h2.7l1,16.2h-2L281.1,290.8z"/>
				<path class="st7" d="M293.3,297.9l-0.2-1.5h-0.1c-0.6,0.9-1.9,1.7-3.6,1.7c-2.4,0-3.6-1.7-3.6-3.3c0-2.8,2.5-4.4,7-4.3v-0.2
					c0-1-0.3-2.7-2.6-2.7c-1.1,0-2.2,0.3-3,0.9l-0.5-1.4c1-0.6,2.4-1,3.8-1c3.6,0,4.4,2.4,4.4,4.8v4.4c0,1,0,2,0.2,2.8H293.3z
					 M293,292c-2.3,0-4.9,0.4-4.9,2.6c0,1.4,0.9,2,2,2c1.5,0,2.5-1,2.8-1.9c0.1-0.2,0.1-0.5,0.1-0.7V292z"/>
				<path class="st7" d="M298.5,289.4c0-1.2,0-2.2-0.1-3.2h1.9l0.1,1.9h0c0.6-1.1,1.9-2.2,3.9-2.2c1.6,0,4.1,1,4.1,5v7h-2.1v-6.7
					c0-1.9-0.7-3.4-2.7-3.4c-1.4,0-2.5,1-2.8,2.2c-0.1,0.3-0.1,0.6-0.1,1v7h-2.1V289.4z"/>
				<path class="st7" d="M318.3,297.9l-0.2-1.5h-0.1c-0.6,0.9-1.9,1.7-3.6,1.7c-2.4,0-3.6-1.7-3.6-3.3c0-2.8,2.5-4.4,7-4.3v-0.2
					c0-1-0.3-2.7-2.6-2.7c-1.1,0-2.2,0.3-3,0.9l-0.5-1.4c1-0.6,2.4-1,3.8-1c3.6,0,4.4,2.4,4.4,4.8v4.4c0,1,0,2,0.2,2.8H318.3z
					 M318,292c-2.3,0-4.9,0.4-4.9,2.6c0,1.4,0.9,2,2,2c1.5,0,2.5-1,2.8-1.9c0.1-0.2,0.1-0.5,0.1-0.7V292z"/>
				<path class="st7" d="M333.5,286.3c0,0.8-0.1,1.8-0.1,3.2v6.8c0,2.7-0.5,4.3-1.7,5.3c-1.1,1.1-2.8,1.4-4.2,1.4
					c-1.4,0-2.9-0.3-3.9-1l0.5-1.6c0.8,0.5,2,0.9,3.4,0.9c2.2,0,3.8-1.1,3.8-4.1v-1.3h0c-0.6,1.1-1.9,1.9-3.7,1.9
					c-2.9,0-5-2.5-5-5.7c0-3.9,2.6-6.2,5.2-6.2c2,0,3.1,1.1,3.6,2h0l0.1-1.8H333.5z M331.3,290.9c0-0.4,0-0.7-0.1-1
					c-0.4-1.2-1.4-2.2-3-2.2c-2,0-3.5,1.7-3.5,4.4c0,2.3,1.2,4.2,3.4,4.2c1.3,0,2.5-0.8,2.9-2.2c0.1-0.4,0.2-0.8,0.2-1.1V290.9z"/>
				<path class="st7" d="M338.1,292.5c0,2.9,1.9,4,4,4c1.5,0,2.4-0.3,3.2-0.6l0.4,1.5c-0.7,0.3-2,0.7-3.9,0.7
					c-3.6,0-5.7-2.4-5.7-5.9s2.1-6.3,5.5-6.3c3.8,0,4.8,3.3,4.8,5.5c0,0.4,0,0.8-0.1,1H338.1z M344.3,290.9c0-1.3-0.6-3.4-2.9-3.4
					c-2.1,0-3.1,2-3.2,3.4H344.3z"/>
				<path class="st7" d="M349,289.4c0-1.2,0-2.2-0.1-3.2h1.9l0.1,1.9h0.1c0.6-1.1,1.7-2.1,3.7-2.1c1.6,0,2.8,1,3.3,2.3h0
					c0.4-0.6,0.8-1.2,1.3-1.5c0.7-0.5,1.5-0.8,2.6-0.8c1.5,0,3.8,1,3.8,5.1v6.9h-2.1v-6.6c0-2.2-0.8-3.6-2.5-3.6
					c-1.2,0-2.1,0.9-2.5,1.9c-0.1,0.3-0.2,0.7-0.2,1.1v7.2h-2.1v-7c0-1.9-0.8-3.2-2.4-3.2c-1.3,0-2.3,1.1-2.6,2.1
					c-0.1,0.3-0.2,0.7-0.2,1v7H349V289.4z"/>
				<path class="st7" d="M370.2,292.5c0,2.9,1.9,4,4,4c1.5,0,2.4-0.3,3.2-0.6l0.4,1.5c-0.7,0.3-2,0.7-3.9,0.7
					c-3.6,0-5.7-2.4-5.7-5.9s2.1-6.3,5.5-6.3c3.8,0,4.8,3.3,4.8,5.5c0,0.4,0,0.8-0.1,1H370.2z M376.4,290.9c0-1.3-0.6-3.4-2.9-3.4
					c-2.1,0-3.1,2-3.2,3.4H376.4z"/>
				<path class="st7" d="M381.1,289.4c0-1.2,0-2.2-0.1-3.2h1.9l0.1,1.9h0c0.6-1.1,1.9-2.2,3.9-2.2c1.6,0,4.1,1,4.1,5v7h-2.1v-6.7
					c0-1.9-0.7-3.4-2.7-3.4c-1.4,0-2.5,1-2.8,2.2c-0.1,0.3-0.1,0.6-0.1,1v7h-2.1V289.4z"/>
				<path class="st7" d="M396.9,282.9v3.3h3v1.6h-3v6.3c0,1.4,0.4,2.3,1.6,2.3c0.6,0,1-0.1,1.2-0.1l0.1,1.6
					c-0.4,0.2-1.1,0.3-1.9,0.3c-1,0-1.8-0.3-2.3-0.9c-0.6-0.6-0.8-1.7-0.8-3v-6.4h-1.8v-1.6h1.8v-2.8L396.9,282.9z"/>
				<path class="st7" d="M262.7,324.3c0.9,0.6,2.3,1.1,3.8,1.1c2.1,0,3.4-1.1,3.4-2.8c0-1.5-0.9-2.4-3.1-3.2
					c-2.6-0.9-4.3-2.3-4.3-4.6c0-2.5,2.1-4.4,5.2-4.4c1.7,0,2.9,0.4,3.6,0.8l-0.6,1.7c-0.5-0.3-1.6-0.8-3.1-0.8
					c-2.2,0-3.1,1.3-3.1,2.4c0,1.5,1,2.3,3.2,3.1c2.7,1.1,4.1,2.4,4.1,4.8c0,2.5-1.9,4.7-5.7,4.7c-1.6,0-3.3-0.5-4.1-1L262.7,324.3z
					"/>
				<path class="st7" d="M285.5,320.9c0,4.3-3,6.2-5.8,6.2c-3.2,0-5.6-2.3-5.6-6c0-3.9,2.6-6.2,5.8-6.2
					C283.2,314.9,285.5,317.3,285.5,320.9z M276.2,321c0,2.6,1.5,4.5,3.5,4.5c2,0,3.5-1.9,3.5-4.5c0-2-1-4.5-3.5-4.5
					C277.3,316.5,276.2,318.8,276.2,321z"/>
				<path class="st7" d="M288.4,326.8v-10h-1.6v-1.6h1.6v-0.6c0-1.6,0.4-3.1,1.3-4.1c0.8-0.8,1.9-1.1,2.8-1.1c0.7,0,1.4,0.2,1.8,0.3
					l-0.3,1.6c-0.3-0.1-0.7-0.3-1.3-0.3c-1.8,0-2.3,1.6-2.3,3.4v0.6h2.8v1.6h-2.8v10H288.4z"/>
				<path class="st7" d="M298,311.8v3.3h3v1.6h-3v6.3c0,1.4,0.4,2.3,1.6,2.3c0.6,0,1-0.1,1.2-0.1l0.1,1.6c-0.4,0.2-1.1,0.3-1.9,0.3
					c-1,0-1.8-0.3-2.3-0.9c-0.6-0.6-0.8-1.7-0.8-3v-6.4h-1.8v-1.6h1.8v-2.8L298,311.8z"/>
				<path class="st7" d="M304.5,315.2l1.5,5.9c0.3,1.3,0.6,2.5,0.9,3.7h0.1c0.3-1.2,0.6-2.4,1-3.7l1.9-5.9h1.8l1.8,5.8
					c0.4,1.4,0.8,2.6,1,3.8h0.1c0.2-1.2,0.5-2.4,0.9-3.8l1.7-5.8h2.1l-3.8,11.7h-1.9l-1.8-5.6c-0.4-1.3-0.7-2.5-1-3.8h0
					c-0.3,1.4-0.6,2.6-1.1,3.9l-1.9,5.5h-1.9l-3.5-11.7H304.5z"/>
				<path class="st7" d="M327.7,326.8l-0.2-1.5h-0.1c-0.6,0.9-1.9,1.7-3.6,1.7c-2.4,0-3.6-1.7-3.6-3.3c0-2.8,2.5-4.4,7-4.3v-0.2
					c0-1-0.3-2.7-2.6-2.7c-1.1,0-2.2,0.3-3,0.9l-0.5-1.4c1-0.6,2.4-1,3.8-1c3.6,0,4.4,2.4,4.4,4.8v4.4c0,1,0,2,0.2,2.8H327.7z
					 M327.4,320.9c-2.3,0-4.9,0.4-4.9,2.6c0,1.4,0.9,2,2,2c1.5,0,2.5-1,2.8-1.9c0.1-0.2,0.1-0.5,0.1-0.7V320.9z"/>
				<path class="st7" d="M332.9,318.8c0-1.4,0-2.6-0.1-3.6h1.9l0.1,2.3h0.1c0.5-1.6,1.8-2.6,3.2-2.6c0.2,0,0.4,0,0.6,0.1v2
					c-0.2,0-0.4-0.1-0.7-0.1c-1.5,0-2.6,1.1-2.8,2.7c0,0.3-0.1,0.6-0.1,1v6.2h-2.1V318.8z"/>
				<path class="st7" d="M341.7,321.4c0,2.9,1.9,4,4,4c1.5,0,2.4-0.3,3.2-0.6l0.4,1.5c-0.7,0.3-2,0.7-3.9,0.7
					c-3.6,0-5.7-2.4-5.7-5.9c0-3.5,2.1-6.3,5.5-6.3c3.8,0,4.8,3.3,4.8,5.5c0,0.4,0,0.8-0.1,1H341.7z M347.9,319.8
					c0-1.3-0.6-3.4-2.9-3.4c-2.1,0-3.1,2-3.2,3.4H347.9z"/>
			</g>
		</g>
	</g>
</g>
</svg>
