<?xml version="1.0" encoding="utf-8"?>
<!-- Generator: Adobe Illustrator 20.0.0, SVG Export Plug-In . SVG Version: 6.00 Build 0)  -->
<svg version="1.1" id="Layer_1" xmlns="http://www.w3.org/2000/svg" xmlns:xlink="http://www.w3.org/1999/xlink" x="0px" y="0px"
	 viewBox="0 0 612 612" style="enable-background:new 0 0 612 612;" xml:space="preserve">
<style type="text/css">
	.st0{fill:#6BCDEE;}
	.st1{opacity:0.48;fill:url(#SVGID_1_);}
	.st2{fill:none;stroke:#FFFFFF;stroke-width:2;stroke-miterlimit:10;stroke-dasharray:2;}
	.st3{fill-rule:evenodd;clip-rule:evenodd;fill:#068C98;}
	.st4{fill-rule:evenodd;clip-rule:evenodd;fill:#EF5062;}
	.st5{fill-rule:evenodd;clip-rule:evenodd;fill:#EA8452;}
	.st6{fill-rule:evenodd;clip-rule:evenodd;fill:#E7A323;}
	.st7{fill-rule:evenodd;clip-rule:evenodd;fill:#FAC0B3;}
	.st8{fill-rule:evenodd;clip-rule:evenodd;fill:#EFBB82;}
	.st9{fill:#FFFFFF;}
	.st10{fill-rule:evenodd;clip-rule:evenodd;fill:#B1BBC5;}
	.st11{fill-rule:evenodd;clip-rule:evenodd;fill:#97AAB7;}
	.st12{fill-rule:evenodd;clip-rule:evenodd;fill:#E4E7E8;}
	.st13{fill-rule:evenodd;clip-rule:evenodd;fill:#C6CED4;}
	.st14{fill-rule:evenodd;clip-rule:evenodd;fill:#323A44;}
	.st15{fill-rule:evenodd;clip-rule:evenodd;fill:#262C38;}
	.st16{fill-rule:evenodd;clip-rule:evenodd;fill:#E8F3F3;}
	.st17{fill-rule:evenodd;clip-rule:evenodd;fill:#D4E9E9;}
	.st18{fill-rule:evenodd;clip-rule:evenodd;fill:#FCC490;}
	.st19{fill-rule:evenodd;clip-rule:evenodd;fill:#49AAB3;}
	.st20{fill-rule:evenodd;clip-rule:evenodd;fill:#D73A53;}
	.st21{fill-rule:evenodd;clip-rule:evenodd;fill:#8095A7;}
	.st22{fill-rule:evenodd;clip-rule:evenodd;fill:#DAE0E6;}
	.st23{fill-rule:evenodd;clip-rule:evenodd;fill:#B2BBC8;}
	.st24{fill:#D73A53;stroke:#FFFFFF;stroke-width:5;stroke-miterlimit:10;}
	.st25{fill:none;stroke:#FFFFFF;stroke-width:2;stroke-miterlimit:10;}
</style>
<g>
	<g>
		<g>
			<ellipse class="st0" cx="306" cy="306" rx="306" ry="304.7"/>
		</g>
		
			<linearGradient id="SVGID_1_" gradientUnits="userSpaceOnUse" x1="5992.3311" y1="-5685" x2="6360.7222" y2="-5685" gradientTransform="matrix(0 1 1 0 5991 -5991)">
			<stop  offset="0" style="stop-color:#FFFFFF;stop-opacity:0"/>
			<stop  offset="1" style="stop-color:#FFFFFF"/>
		</linearGradient>
		<path class="st1" d="M306,1.3c169,0,306,136.4,306,304.7H0C0,137.7,137,1.3,306,1.3z"/>
	</g>
	<g>
		<line class="st2" x1="185.9" y1="217.4" x2="185.9" y2="351.5"/>
		<line class="st2" x1="185.3" y1="460.4" x2="228.3" y2="460.4"/>
		<line class="st2" x1="227.4" y1="432.3" x2="227.4" y2="461.5"/>
		<line class="st2" x1="149.5" y1="460.4" x2="192.4" y2="460.4"/>
		<line class="st2" x1="150.6" y1="432.3" x2="150.6" y2="461.5"/>
		<line class="st2" x1="123.9" y1="409.7" x2="166.9" y2="409.7"/>
		<line class="st2" x1="206.4" y1="409.7" x2="249.4" y2="409.7"/>
		<line class="st2" x1="125" y1="381.6" x2="125" y2="410.8"/>
		<line class="st2" x1="248.6" y1="381.6" x2="248.6" y2="410.8"/>
		<line class="st2" x1="136.6" y1="364.8" x2="237.5" y2="364.8"/>
		<path class="st3" d="M110.3,344h31.2c2.4,0,4.4,2,4.4,4.4v31.2c0,2.4-2,4.4-4.4,4.4h-31.2c-2.4,0-4.4-2-4.4-4.4v-31.2
			C106,345.9,107.9,344,110.3,344z"/>
		<path class="st4" d="M171.2,344h31.2c2.4,0,4.4,2,4.4,4.4v31.2c0,2.4-2,4.4-4.4,4.4h-31.2c-2.4,0-4.4-2-4.4-4.4v-31.2
			C166.9,345.9,168.8,344,171.2,344z"/>
		<path class="st5" d="M146.5,393.5h31.2c2.4,0,4.4,2,4.4,4.4V429c0,2.4-2,4.4-4.4,4.4h-31.2c-2.4,0-4.4-2-4.4-4.4v-31.2
			C142.1,395.4,144.1,393.5,146.5,393.5z"/>
		<path class="st6" d="M199.5,393.5h31.2c2.4,0,4.4,2,4.4,4.4V429c0,2.4-2,4.4-4.4,4.4h-31.2c-2.4,0-4.4-2-4.4-4.4v-31.2
			C195.1,395.4,197.1,393.5,199.5,393.5z"/>
		<path class="st7" d="M171.8,440H203c2.4,0,4.4,2,4.4,4.4v31.2c0,2.4-2,4.4-4.4,4.4h-31.2c-2.4,0-4.4-2-4.4-4.4v-31.2
			C167.4,442,169.4,440,171.8,440z"/>
		<path class="st8" d="M232.1,344h31.2c2.4,0,4.4,2,4.4,4.4v31.2c0,2.4-2,4.4-4.4,4.4h-31.2c-2.4,0-4.4-2-4.4-4.4v-31.2
			C227.8,345.9,229.7,344,232.1,344z"/>
		<g id="database_x5F_lock_23_">
			<path class="st9" d="M256.8,370.4c0.1,0.1,0.1,0.3,0.1,0.4v3.6c0,1.3-4,2.4-8.9,2.4c-4.9,0-8.9-1.1-8.9-2.4v-3.6
				c0-0.1,0.1-0.3,0.1-0.4c2.4,1.5,7.5,1.6,8.7,1.6C249.3,372,254.4,371.9,256.8,370.4z M248.1,366c-1.3,0-6.3-0.1-8.7-1.6
				c-0.1,0.1-0.1,0.3-0.1,0.4v3.6c0,1.3,4,2.4,8.9,2.4c4.9,0,8.9-1.1,8.9-2.4v-3.6c0-0.1-0.1-0.3-0.1-0.4
				C254.4,365.9,249.3,366,248.1,366z M248.1,360.1c-1.3,0-6.3-0.1-8.7-1.6c-0.1,0.1-0.1,0.3-0.1,0.4v3.6c0,1.3,4,2.4,8.9,2.4
				c4.9,0,8.9-1.1,8.9-2.4v-3.6c0-0.1-0.1-0.3-0.1-0.4C254.4,360,249.3,360.1,248.1,360.1z M257,353v3.6c0,1.3-4,2.4-8.9,2.4
				c-4.9,0-8.9-1.1-8.9-2.4V353c0-1.3,4-2.4,8.9-2.4C253,350.6,257,351.7,257,353z M251.9,352.4c0-0.4-1.7-0.8-3.8-0.8
				s-3.8,0.3-3.8,0.8c0,0.4,1.7,0.8,3.8,0.8S251.9,352.8,251.9,352.4z"/>
		</g>
		<g id="database_x5F_lock_31_">
			<path class="st9" d="M195,370.4c0.1,0.1,0.1,0.3,0.1,0.4v3.6c0,1.3-4,2.4-8.9,2.4s-8.9-1.1-8.9-2.4v-3.6c0-0.1,0.1-0.3,0.1-0.4
				c2.4,1.5,7.5,1.6,8.7,1.6C187.5,372,192.5,371.9,195,370.4z M186.2,366c-1.3,0-6.3-0.1-8.7-1.6c-0.1,0.1-0.1,0.3-0.1,0.4v3.6
				c0,1.3,4,2.4,8.9,2.4s8.9-1.1,8.9-2.4v-3.6c0-0.1-0.1-0.3-0.1-0.4C192.5,365.9,187.5,366,186.2,366z M186.2,360.1
				c-1.3,0-6.3-0.1-8.7-1.6c-0.1,0.1-0.1,0.3-0.1,0.4v3.6c0,1.3,4,2.4,8.9,2.4s8.9-1.1,8.9-2.4v-3.6c0-0.1-0.1-0.3-0.1-0.4
				C192.5,360,187.5,360.1,186.2,360.1z M195.1,353v3.6c0,1.3-4,2.4-8.9,2.4s-8.9-1.1-8.9-2.4V353c0-1.3,4-2.4,8.9-2.4
				S195.1,351.7,195.1,353z M190.1,352.4c0-0.4-1.7-0.8-3.8-0.8s-3.8,0.3-3.8,0.8c0,0.4,1.7,0.8,3.8,0.8S190.1,352.8,190.1,352.4z"
				/>
		</g>
		<g id="database_x5F_lock_32_">
			<path class="st9" d="M170.8,420.2c0.1,0.1,0.1,0.3,0.1,0.4v3.6c0,1.3-4,2.4-8.9,2.4c-4.9,0-8.9-1.1-8.9-2.4v-3.6
				c0-0.1,0.1-0.3,0.1-0.4c2.4,1.5,7.5,1.6,8.7,1.6C163.3,421.7,168.4,421.6,170.8,420.2z M162.1,415.8c-1.3,0-6.3-0.1-8.7-1.6
				c-0.1,0.1-0.1,0.3-0.1,0.4v3.6c0,1.3,4,2.4,8.9,2.4c4.9,0,8.9-1.1,8.9-2.4v-3.6c0-0.1-0.1-0.3-0.1-0.4
				C168.4,415.7,163.3,415.8,162.1,415.8z M162.1,409.9c-1.3,0-6.3-0.1-8.7-1.6c-0.1,0.1-0.1,0.3-0.1,0.4v3.6c0,1.3,4,2.4,8.9,2.4
				c4.9,0,8.9-1.1,8.9-2.4v-3.6c0-0.1-0.1-0.3-0.1-0.4C168.4,409.8,163.3,409.9,162.1,409.9z M170.9,402.8v3.6c0,1.3-4,2.4-8.9,2.4
				c-4.9,0-8.9-1.1-8.9-2.4v-3.6c0-1.3,4-2.4,8.9-2.4C167,400.4,170.9,401.5,170.9,402.8z M165.9,402.2c0-0.4-1.7-0.8-3.8-0.8
				s-3.8,0.3-3.8,0.8s1.7,0.8,3.8,0.8S165.9,402.6,165.9,402.2z"/>
		</g>
		<g id="database_x5F_lock_33_">
			<path class="st9" d="M223.8,420.9c0.1,0.1,0.1,0.3,0.1,0.4v3.6c0,1.3-4,2.4-8.9,2.4c-4.9,0-8.9-1.1-8.9-2.4v-3.6
				c0-0.1,0.1-0.3,0.1-0.4c2.4,1.5,7.5,1.6,8.7,1.6C216.3,422.5,221.4,422.4,223.8,420.9z M215.1,416.6c-1.3,0-6.3-0.1-8.7-1.6
				c-0.1,0.1-0.1,0.3-0.1,0.4v3.6c0,1.3,4,2.4,8.9,2.4c4.9,0,8.9-1.1,8.9-2.4v-3.6c0-0.1-0.1-0.3-0.1-0.4
				C221.4,416.5,216.3,416.6,215.1,416.6z M215.1,410.7c-1.3,0-6.3-0.1-8.7-1.6c-0.1,0.1-0.1,0.3-0.1,0.4v3.6c0,1.3,4,2.4,8.9,2.4
				c4.9,0,8.9-1.1,8.9-2.4v-3.6c0-0.1-0.1-0.3-0.1-0.4C221.4,410.6,216.3,410.7,215.1,410.7z M224,403.6v3.6c0,1.3-4,2.4-8.9,2.4
				c-4.9,0-8.9-1.1-8.9-2.4v-3.6c0-1.3,4-2.4,8.9-2.4C220,401.2,224,402.2,224,403.6z M218.9,403c0-0.4-1.7-0.8-3.8-0.8
				s-3.8,0.3-3.8,0.8s1.7,0.8,3.8,0.8S218.9,403.4,218.9,403z"/>
		</g>
		<g id="database_x5F_lock_34_">
			<path class="st9" d="M197,466.7c0.1,0.1,0.1,0.3,0.1,0.4v3.6c0,1.3-4,2.4-8.9,2.4c-4.9,0-8.9-1.1-8.9-2.4v-3.6
				c0-0.1,0.1-0.3,0.1-0.4c2.4,1.5,7.5,1.6,8.7,1.6C189.6,468.3,194.6,468.2,197,466.7z M188.3,462.3c-1.3,0-6.3-0.1-8.7-1.6
				c-0.1,0.1-0.1,0.3-0.1,0.4v3.6c0,1.3,4,2.4,8.9,2.4c4.9,0,8.9-1.1,8.9-2.4v-3.6c0-0.1-0.1-0.3-0.1-0.4
				C194.6,462.2,189.6,462.3,188.3,462.3z M188.3,456.4c-1.3,0-6.3-0.1-8.7-1.6c-0.1,0.1-0.1,0.3-0.1,0.4v3.6c0,1.3,4,2.4,8.9,2.4
				c4.9,0,8.9-1.1,8.9-2.4v-3.6c0-0.1-0.1-0.3-0.1-0.4C194.6,456.3,189.6,456.4,188.3,456.4z M197.2,449.3v3.6c0,1.3-4,2.4-8.9,2.4
				c-4.9,0-8.9-1.1-8.9-2.4v-3.6c0-1.3,4-2.4,8.9-2.4C193.2,446.9,197.2,448,197.2,449.3z M192.1,448.7c0-0.4-1.7-0.8-3.8-0.8
				s-3.8,0.3-3.8,0.8c0,0.4,1.7,0.8,3.8,0.8S192.1,449.1,192.1,448.7z"/>
		</g>
		<g id="database_x5F_lock_30_">
			<path class="st9" d="M134.1,370.4c0.1,0.1,0.1,0.3,0.1,0.4v3.6c0,1.3-4,2.4-8.9,2.4c-4.9,0-8.9-1.1-8.9-2.4v-3.6
				c0-0.1,0.1-0.3,0.1-0.4c2.4,1.5,7.5,1.6,8.7,1.6C126.6,372,131.6,371.9,134.1,370.4z M125.3,366c-1.3,0-6.3-0.1-8.7-1.6
				c-0.1,0.1-0.1,0.3-0.1,0.4v3.6c0,1.3,4,2.4,8.9,2.4c4.9,0,8.9-1.1,8.9-2.4v-3.6c0-0.1-0.1-0.3-0.1-0.4
				C131.6,365.9,126.6,366,125.3,366z M125.3,360.1c-1.3,0-6.3-0.1-8.7-1.6c-0.1,0.1-0.1,0.3-0.1,0.4v3.6c0,1.3,4,2.4,8.9,2.4
				c4.9,0,8.9-1.1,8.9-2.4v-3.6c0-0.1-0.1-0.3-0.1-0.4C131.6,360,126.6,360.1,125.3,360.1z M134.2,353v3.6c0,1.3-4,2.4-8.9,2.4
				c-4.9,0-8.9-1.1-8.9-2.4V353c0-1.3,4-2.4,8.9-2.4C130.2,350.6,134.2,351.7,134.2,353z M129.2,352.4c0-0.4-1.7-0.8-3.8-0.8
				s-3.8,0.3-3.8,0.8c0,0.4,1.7,0.8,3.8,0.8S129.2,352.8,129.2,352.4z"/>
		</g>
		<polyline class="st9" points="129.4,394 125,398.3 120.7,394 		"/>
		<polyline class="st9" points="154.3,360.5 158.7,364.8 154.3,369.2 		"/>
		<polyline class="st9" points="216.3,360.5 220.7,364.8 216.3,369.2 		"/>
		<polyline class="st9" points="155,444.6 150.6,449 146.2,444.6 		"/>
		<polyline class="st9" points="223,449.1 227.4,444.8 231.8,449.1 		"/>
		<polyline class="st9" points="244.2,398.4 248.6,394 252.9,398.4 		"/>
	</g>
	<line class="st2" x1="185.9" y1="217.4" x2="207.7" y2="217.4"/>
	<g>
		<g>
			<polygon class="st10" points="283.3,256.5 277.1,292.1 306,292.1 306,256.5 			"/>
			<polygon class="st11" points="328.7,256.5 334.9,292.1 306,292.1 306,256.5 			"/>
		</g>
		<path class="st12" d="M214.4,129.2h183.2c5.4,0,9.8,4.4,9.8,9.8v118.9c0,5.4-4.4,9.8-9.8,9.8H214.4c-5.4,0-9.8-4.4-9.8-9.8V139
			C204.6,133.6,209,129.2,214.4,129.2z"/>
		<path class="st13" d="M407.4,247.4v10.6c0,5.4-4.4,9.8-9.8,9.8H306v-20.3H407.4z"/>
		<path class="st14" d="M214.4,129.2h183.2c5.4,0,9.8,4.4,9.8,9.8v108.4H204.6V139C204.6,133.6,209,129.2,214.4,129.2z"/>
		<path class="st15" d="M306,129.2h91.6c5.4,0,9.8,4.4,9.8,9.8v108.4H306V129.2z"/>
		<rect x="215.2" y="142.1" class="st16" width="181.6" height="92.5"/>
		<path class="st12" d="M272.5,285.2h67.1c4.1,0,7.5,3.4,7.5,7.5v1.8h-82v-1.8C265,288.5,268.4,285.2,272.5,285.2z"/>
		<path class="st13" d="M306,285.2h33.5c4.1,0,7.5,3.4,7.5,7.5v1.8h-41V285.2z"/>
		<circle class="st15" cx="306" cy="257.1" r="5.7"/>
		<path class="st14" d="M306,251.4c-3.1,0-5.7,2.6-5.7,5.7c0,3.1,2.5,5.7,5.7,5.7V251.4z"/>
		<rect x="306" y="142.1" class="st17" width="90.8" height="92.5"/>
		<path class="st18" d="M231,176.6h58c1.7,0,3.1,1.4,3.1,3.1v40.1c0,1.7-1.4,3.1-3.1,3.1h-58c-1.7,0-3.1-1.4-3.1-3.1v-40.1
			C227.9,178,229.3,176.6,231,176.6z"/>
		<path class="st5" d="M292.1,200.6v19.2c0,1.7-1.4,3.1-3.1,3.1h-58c-1.7,0-3.1-1.4-3.1-3.1v-12.4l18.5-11.1l11.8,8l20.6-17.1
			L292.1,200.6z"/>
		<path class="st19" d="M231,153.7h75v14h-75c-1.7,0-3.1-1.4-3.1-3.1v-7.8C227.9,155.1,229.3,153.7,231,153.7z"/>
		<path class="st3" d="M381,153.7h-75v14h75c1.7,0,3.1-1.4,3.1-3.1v-7.8C384.1,155.1,382.7,153.7,381,153.7z"/>
		<path class="st20" d="M357.3,212.6c1,0,1.8,0.8,1.8,1.8v6.7c0,1-0.8,1.8-1.8,1.8h-36.9c-1,0-1.8-0.8-1.8-1.8v-6.7
			c0-1,0.8-1.8,1.8-1.8H357.3z"/>
		<g>
			<g>
				<path class="st21" d="M382.3,176.6h-62c-1,0-1.8,0.8-1.8,1.8v2.7c0,1,0.8,1.8,1.8,1.8h62c1,0,1.8-0.8,1.8-1.8v-2.7
					C384.1,177.5,383.3,176.6,382.3,176.6z"/>
				<path class="st21" d="M382.3,188.6h-62c-1,0-1.8,0.8-1.8,1.8v2.7c0,1,0.8,1.8,1.8,1.8h62c1,0,1.8-0.8,1.8-1.8v-2.7
					C384.1,189.4,383.3,188.6,382.3,188.6z"/>
				<path class="st21" d="M357.3,200.6h-37c-1,0-1.8,0.8-1.8,1.8v2.7c0,1,0.8,1.8,1.8,1.8h37c1,0,1.8-0.8,1.8-1.8v-2.7
					C359.2,201.4,358.3,200.6,357.3,200.6z"/>
			</g>
		</g>
		<path class="st22" d="M379.4,295.2h7v10.3h-14.4v-2.9C371.9,298.6,375.3,295.2,379.4,295.2z"/>
		<path class="st23" d="M393.3,295.2h-7v10.3h14.4v-2.9C400.8,298.6,397.4,295.2,393.3,295.2z"/>
		<rect x="248.7" y="298.1" class="st22" width="114.7" height="7.5"/>
	</g>
	<polyline class="st9" points="181.8,248.2 185.7,244.3 189.5,248.2 	"/>
	<circle class="st24" cx="457.7" cy="404.6" r="56.5"/>
	<polyline class="st9" points="182,312.4 185.9,308.5 189.8,312.4 	"/>
	<g id="database_x5F_lock_35_">
		<path class="st9" d="M479.5,420.5c0.2,0.3,0.3,0.6,0.3,1v8.9c0,3.3-9.9,5.9-22.1,5.9s-22.1-2.6-22.1-5.9v-8.9c0-0.3,0.1-0.7,0.3-1
			c6.1,3.7,18.6,3.9,21.8,3.9C460.9,424.5,473.4,424.2,479.5,420.5z M457.7,409.7c-3.1,0-15.7-0.2-21.8-3.9c-0.2,0.3-0.3,0.6-0.3,1
			v8.9c0,3.3,9.9,5.9,22.1,5.9s22.1-2.6,22.1-5.9v-8.9c0-0.3-0.1-0.7-0.3-1C473.4,409.5,460.9,409.7,457.7,409.7z M457.7,394.9
			c-3.1,0-15.7-0.2-21.8-3.9c-0.2,0.3-0.3,0.6-0.3,1v8.9c0,3.3,9.9,5.9,22.1,5.9s22.1-2.6,22.1-5.9V392c0-0.3-0.1-0.7-0.3-1
			C473.4,394.7,460.9,394.9,457.7,394.9z M479.8,377.2v8.9c0,3.3-9.9,5.9-22.1,5.9s-22.1-2.6-22.1-5.9v-8.9c0-3.3,9.9-5.9,22.1-5.9
			S479.8,374,479.8,377.2z M467.2,375.7c0-1.1-4.3-1.9-9.5-1.9s-9.5,0.9-9.5,1.9s4.3,1.9,9.5,1.9S467.2,376.8,467.2,375.7z"/>
	</g>
	<line class="st25" x1="281.7" y1="403.9" x2="371.9" y2="403.9"/>
	<polyline class="st9" points="369.6,395 378.4,404.2 369.2,412.9 	"/>
	
		<image style="overflow:visible;" width="2000" height="1905" xlink:href="../../../404.html"  transform="matrix(4.689098e-02 0 0 4.689098e-02 258.4435 482.9059)">
	</image>
</g>
</svg>
