<?xml version="1.0" encoding="utf-8"?>
<!-- Generator: Adobe Illustrator 20.0.0, SVG Export Plug-In . SVG Version: 6.00 Build 0)  -->
<svg version="1.1" id="Layer_1" xmlns="http://www.w3.org/2000/svg" xmlns:xlink="http://www.w3.org/1999/xlink" x="0px" y="0px"
	 viewBox="0 0 612 612" style="enable-background:new 0 0 612 612;" xml:space="preserve">
<style type="text/css">
	.st0{clip-path:url(#SVGID_2_);fill:url(#SVGID_3_);}
	.st1{fill:none;stroke:#FFFFFF;stroke-width:2;stroke-linecap:round;stroke-linejoin:round;stroke-dasharray:0,5,0,0,5,0;}
	.st2{fill:#FFFFFF;}
	.st3{fill:url(#bottom_shadow_8_);}
	.st4{fill:url(#bottom_shadow_9_);}
	.st5{fill:url(#bottom_shadow_10_);}
	.st6{fill:url(#bottom_shadow_11_);}
	.st7{fill:url(#bottom_shadow_12_);}
	.st8{fill:url(#bottom_shadow_13_);}
	.st9{fill:url(#bottom_shadow_14_);}
	.st10{fill:url(#SVGID_4_);}
	.st11{opacity:0.8;}
	.st12{fill:#4CC0BD;}
	.st13{opacity:0.2;}
	.st14{fill:url(#SVGID_5_);}
	.st15{fill:url(#SVGID_6_);}
	.st16{fill:#449443;}
	.st17{fill:url(#SVGID_7_);}
	.st18{fill:url(#SVGID_8_);}
	.st19{opacity:0.9;}
	.st20{fill:#3A6088;}
	.st21{fill:url(#SVGID_9_);}
	.st22{fill:url(#SVGID_10_);}
	.st23{fill:#F79225;}
	.st24{fill:url(#SVGID_11_);}
	.st25{fill:url(#SVGID_12_);}
	.st26{fill:#9F4887;}
	.st27{fill:url(#SVGID_13_);}
	.st28{fill:#43ACC8;}
	.st29{fill:url(#SVGID_14_);}
	.st30{opacity:0.3;}
	.st31{opacity:0.9;fill:#FFFFFF;enable-background:new    ;}
	.st32{opacity:0.8;fill:#FFFFFF;enable-background:new    ;}
	.st33{fill:url(#SVGID_15_);}
	.st34{fill:#F27AAA;}
	.st35{fill:url(#SVGID_16_);}
	.st36{opacity:0.7;}
	.st37{enable-background:new    ;}
	.st38{fill:url(#SVGID_17_);}
	.st39{fill:#999999;}
</style>
<g id="Arrow_7_1_">
</g>
<g id="Arrow_7_3_">
</g>
<g>
	<g>
		<g>
			<defs>
				<circle id="SVGID_1_" cx="306.6" cy="306.3" r="306"/>
			</defs>
			<clipPath id="SVGID_2_">
				<use xlink:href="#SVGID_1_"  style="overflow:visible;"/>
			</clipPath>
			
				<linearGradient id="SVGID_3_" gradientUnits="userSpaceOnUse" x1="331.9472" y1="212.6474" x2="331.9472" y2="1284.9475" gradientTransform="matrix(1 0 0 -1 0 614)">
				<stop  offset="0" style="stop-color:#E2E9EE"/>
				<stop  offset="1" style="stop-color:#6B93AB"/>
			</linearGradient>
			<rect x="-73.1" y="-173.6" class="st0" width="810.1" height="810.1"/>
		</g>
	</g>
	<g>
		<g>
			<polyline class="st1" points="293.5,309.4 293.5,357 283.3,357 			"/>
			<g>
				<polygon class="st2" points="283.4,312.4 293.6,294.9 303.7,312.4 				"/>
			</g>
		</g>
	</g>
	
		<radialGradient id="bottom_shadow_8_" cx="-1913.7101" cy="478.9607" r="100.2889" gradientTransform="matrix(1.6742 0 0 -0.24 3502.7695 625.1185)" gradientUnits="userSpaceOnUse">
		<stop  offset="0" style="stop-color:#BCBCBC"/>
		<stop  offset="0.3686" style="stop-color:#DEDEDE"/>
		<stop  offset="0.7021" style="stop-color:#F6F6F6"/>
		<stop  offset="0.908" style="stop-color:#FFFFFF"/>
	</radialGradient>
	<ellipse id="bottom_shadow_3_" class="st3" cx="298.8" cy="510.2" rx="168.1" ry="24.1"/>
	
		<radialGradient id="bottom_shadow_9_" cx="14883.3018" cy="1052.3929" r="247.8185" gradientTransform="matrix(0.2835 0 0 -0.2587 -4107.7036 586.2863)" gradientUnits="userSpaceOnUse">
		<stop  offset="0" style="stop-color:#BCBCBC"/>
		<stop  offset="0.1971" style="stop-color:#C3C3C3"/>
		<stop  offset="0.47" style="stop-color:#D4D4D4"/>
		<stop  offset="0.7859" style="stop-color:#F2F2F2"/>
		<stop  offset="0.908" style="stop-color:#FFFFFF"/>
	</radialGradient>
	<ellipse id="bottom_shadow_1_" class="st4" cx="111.7" cy="314" rx="70.3" ry="64.1"/>
	
		<radialGradient id="bottom_shadow_10_" cx="15072.4248" cy="1477.7695" r="247.8311" gradientTransform="matrix(0.2835 0 0 -0.2587 -4107.7036 586.2863)" gradientUnits="userSpaceOnUse">
		<stop  offset="0" style="stop-color:#BCBCBC"/>
		<stop  offset="0.2172" style="stop-color:#C0C0C0"/>
		<stop  offset="0.4436" style="stop-color:#CDCDCD"/>
		<stop  offset="0.6744" style="stop-color:#E2E2E2"/>
		<stop  offset="0.9067" style="stop-color:#FFFFFF"/>
		<stop  offset="0.908" style="stop-color:#FFFFFF"/>
	</radialGradient>
	<ellipse id="bottom_shadow_2_" class="st5" cx="165.9" cy="210.5" rx="70.3" ry="64.1"/>
	
		<radialGradient id="bottom_shadow_11_" cx="15504.0615" cy="1350.255" r="247.8185" gradientTransform="matrix(0.2835 0 0 -0.2587 -4107.7036 586.2863)" gradientUnits="userSpaceOnUse">
		<stop  offset="0" style="stop-color:#BCBCBC"/>
		<stop  offset="0.1971" style="stop-color:#C3C3C3"/>
		<stop  offset="0.47" style="stop-color:#D4D4D4"/>
		<stop  offset="0.7859" style="stop-color:#F2F2F2"/>
		<stop  offset="0.908" style="stop-color:#FFFFFF"/>
	</radialGradient>
	<ellipse id="bottom_shadow_4_" class="st6" cx="287.7" cy="237" rx="70.3" ry="64.1"/>
	
		<radialGradient id="bottom_shadow_12_" cx="16056.2451" cy="1021.4716" r="169.1934" gradientTransform="matrix(0.2835 0 0 -0.2587 -4107.7036 586.2863)" gradientUnits="userSpaceOnUse">
		<stop  offset="0" style="stop-color:#BCBCBC"/>
		<stop  offset="0.1971" style="stop-color:#C3C3C3"/>
		<stop  offset="0.47" style="stop-color:#D4D4D4"/>
		<stop  offset="0.7859" style="stop-color:#F2F2F2"/>
		<stop  offset="0.908" style="stop-color:#FFFFFF"/>
	</radialGradient>
	<ellipse id="bottom_shadow_5_" class="st7" cx="444.2" cy="322" rx="48" ry="43.7"/>
	
		<radialGradient id="bottom_shadow_13_" cx="16255.9023" cy="1127.8198" r="186.0918" gradientTransform="matrix(0.2835 0 0 -0.2862 -4107.7036 536.7719)" gradientUnits="userSpaceOnUse">
		<stop  offset="0" style="stop-color:#BCBCBC"/>
		<stop  offset="0.2724" style="stop-color:#BFBFBF"/>
		<stop  offset="0.4741" style="stop-color:#C9C9C9"/>
		<stop  offset="0.653" style="stop-color:#D9D9D9"/>
		<stop  offset="0.8177" style="stop-color:#EFEFEF"/>
		<stop  offset="0.908" style="stop-color:#FFFFFF"/>
	</radialGradient>
	<ellipse id="bottom_shadow_6_" class="st8" cx="500.8" cy="214" rx="52.8" ry="53.3"/>
	
		<radialGradient id="bottom_shadow_14_" cx="15873.7314" cy="1337.6229" r="143.6124" gradientTransform="matrix(0.2835 0 0 -0.2862 -4107.7036 536.7719)" gradientUnits="userSpaceOnUse">
		<stop  offset="0" style="stop-color:#BCBCBC"/>
		<stop  offset="0.2724" style="stop-color:#BFBFBF"/>
		<stop  offset="0.4741" style="stop-color:#C9C9C9"/>
		<stop  offset="0.653" style="stop-color:#D9D9D9"/>
		<stop  offset="0.8177" style="stop-color:#EFEFEF"/>
		<stop  offset="0.908" style="stop-color:#FFFFFF"/>
	</radialGradient>
	<ellipse id="bottom_shadow_7_" class="st9" cx="392.5" cy="153.9" rx="40.7" ry="41.1"/>
	<g>
		
			<linearGradient id="SVGID_4_" gradientUnits="userSpaceOnUse" x1="398.008" y1="279.21" x2="490.9326" y2="279.21" gradientTransform="matrix(1 0 0 -1 0 614)">
			<stop  offset="0" style="stop-color:#5F89A3"/>
			<stop  offset="4.224508e-02" style="stop-color:#6F92AA"/>
			<stop  offset="0.179" style="stop-color:#9DB1C3"/>
			<stop  offset="0.3065" style="stop-color:#C3CED9"/>
			<stop  offset="0.421" style="stop-color:#E1E6EB"/>
			<stop  offset="0.5183" style="stop-color:#F5F6F8"/>
			<stop  offset="0.5869" style="stop-color:#FFFFFF"/>
			<stop  offset="0.664" style="stop-color:#F9FAFB"/>
			<stop  offset="0.7297" style="stop-color:#EDF0F2"/>
			<stop  offset="0.7914" style="stop-color:#DCE1E8"/>
			<stop  offset="0.8505" style="stop-color:#C4CFDA"/>
			<stop  offset="0.9078" style="stop-color:#A6BACA"/>
			<stop  offset="0.9631" style="stop-color:#85A3B8"/>
			<stop  offset="1" style="stop-color:#6B93AB"/>
		</linearGradient>
		<path class="st10" d="M443.8,342c-15.2,0-26.8-13.3-32.9-25.4v8.7c2,16.1,15.7,27.7,33,27.7c18,0,33-13.7,33-30.8
			c0-0.3-0.1-3.8-0.1-4.2C472.2,330.2,458.9,342,443.8,342z"/>
		<g class="st11">
			<ellipse class="st12" cx="444.2" cy="317.6" rx="32.9" ry="30.9"/>
		</g>
		<g class="st13">
			
				<linearGradient id="SVGID_5_" gradientUnits="userSpaceOnUse" x1="425.2687" y1="319.0858" x2="464.6772" y2="272.0148" gradientTransform="matrix(1 0 0 -1 0 614)">
				<stop  offset="0.5" style="stop-color:#FFFFFF;stop-opacity:0"/>
				<stop  offset="0.5" style="stop-color:#FFFFFF"/>
			</linearGradient>
			<ellipse class="st14" cx="444.2" cy="317.6" rx="32.9" ry="30.9"/>
		</g>
	</g>
	<g>
		
			<linearGradient id="SVGID_6_" gradientUnits="userSpaceOnUse" x1="431.8193" y1="386.4922" x2="572.8725" y2="386.4922" gradientTransform="matrix(1 0 0 -1 0 614)">
			<stop  offset="0" style="stop-color:#5F89A3"/>
			<stop  offset="4.224508e-02" style="stop-color:#6F92AA"/>
			<stop  offset="0.179" style="stop-color:#9DB1C3"/>
			<stop  offset="0.3065" style="stop-color:#C3CED9"/>
			<stop  offset="0.421" style="stop-color:#E1E6EB"/>
			<stop  offset="0.5183" style="stop-color:#F5F6F8"/>
			<stop  offset="0.5869" style="stop-color:#FFFFFF"/>
			<stop  offset="0.664" style="stop-color:#F9FAFB"/>
			<stop  offset="0.7297" style="stop-color:#EDF0F2"/>
			<stop  offset="0.7914" style="stop-color:#DCE1E8"/>
			<stop  offset="0.8505" style="stop-color:#C4CFDA"/>
			<stop  offset="0.9078" style="stop-color:#A6BACA"/>
			<stop  offset="0.9631" style="stop-color:#85A3B8"/>
			<stop  offset="1" style="stop-color:#6B93AB"/>
		</linearGradient>
		<path class="st15" d="M501.1,238.6c-23.3,0-42.6-20.5-49.7-39.1v13.4c1,24.8,23.2,42.6,49.8,42.6c27.7,0,50.2-21.1,50.2-47.3
			c0-0.5,0.1-5.9,0.1-6.4C544.5,220.5,524.3,238.6,501.1,238.6z"/>
		<g class="st11">
			<path class="st16" d="M500.8,153.6c27.8,0,50.5,21.3,50.5,47.4c0,26.2-22.6,47.4-50.5,47.4c-27.8,0-50.5-21.3-50.5-47.4
				C450.3,174.9,473,153.6,500.8,153.6z"/>
		</g>
		<g class="st13">
			
				<linearGradient id="SVGID_7_" gradientUnits="userSpaceOnUse" x1="469.2137" y1="444.6021" x2="535.0311" y2="378.7846" gradientTransform="matrix(1 0 0 -1 0 614)">
				<stop  offset="0.5" style="stop-color:#FFFFFF;stop-opacity:0"/>
				<stop  offset="0.5" style="stop-color:#FFFFFF"/>
			</linearGradient>
			<path class="st17" d="M500.8,153.6c27.8,0,50.5,21.3,50.5,47.4c0,26.2-22.6,47.4-50.5,47.4c-27.8,0-50.5-21.3-50.5-47.4
				C450.3,174.9,473,153.6,500.8,153.6z"/>
		</g>
	</g>
	<g>
		
			<linearGradient id="SVGID_8_" gradientUnits="userSpaceOnUse" x1="216.5355" y1="353.7355" x2="362.0334" y2="353.7355" gradientTransform="matrix(1 0 0 -1 0 614)">
			<stop  offset="0" style="stop-color:#5F89A3"/>
			<stop  offset="4.224508e-02" style="stop-color:#6F92AA"/>
			<stop  offset="0.179" style="stop-color:#9DB1C3"/>
			<stop  offset="0.3065" style="stop-color:#C3CED9"/>
			<stop  offset="0.421" style="stop-color:#E1E6EB"/>
			<stop  offset="0.5183" style="stop-color:#F5F6F8"/>
			<stop  offset="0.5869" style="stop-color:#FFFFFF"/>
			<stop  offset="0.664" style="stop-color:#F9FAFB"/>
			<stop  offset="0.7297" style="stop-color:#EDF0F2"/>
			<stop  offset="0.7914" style="stop-color:#DCE1E8"/>
			<stop  offset="0.8505" style="stop-color:#C4CFDA"/>
			<stop  offset="0.9078" style="stop-color:#A6BACA"/>
			<stop  offset="0.9631" style="stop-color:#85A3B8"/>
			<stop  offset="1" style="stop-color:#6B93AB"/>
		</linearGradient>
		<path class="st18" d="M288.1,271.7c-23.9,0-44.2-21-51.3-40.2v13.7c2,25.5,24.1,43.8,51.4,43.8c28.6,0,51.8-21.7,51.8-48.6
			c0-0.5,0.1-6.1,0.1-6.6C332.8,253,312,271.7,288.1,271.7z"/>
		<g class="st19">
			<path class="st20" d="M288,184.3c28.7,0,51.9,21.9,51.9,48.8s-23.3,48.8-51.9,48.8c-28.7,0-51.9-21.9-51.9-48.8
				S259.3,184.3,288,184.3z"/>
		</g>
		<g class="st13">
			
				<linearGradient id="SVGID_9_" gradientUnits="userSpaceOnUse" x1="251.7667" y1="415.9572" x2="324.4956" y2="345.5366" gradientTransform="matrix(1 0 0 -1 0 614)">
				<stop  offset="0.5" style="stop-color:#FFFFFF;stop-opacity:0"/>
				<stop  offset="0.5" style="stop-color:#FFFFFF"/>
			</linearGradient>
			<path class="st21" d="M288,184.3c28.7,0,51.9,21.9,51.9,48.8s-23.3,48.8-51.9,48.8c-28.7,0-51.9-21.9-51.9-48.8
				S259.3,184.3,288,184.3z"/>
		</g>
	</g>
	<g>
		
			<linearGradient id="SVGID_10_" gradientUnits="userSpaceOnUse" x1="101.0131" y1="396.8205" x2="232.5851" y2="396.8205" gradientTransform="matrix(1 0 0 -1 0 614)">
			<stop  offset="0" style="stop-color:#5F89A3"/>
			<stop  offset="4.224508e-02" style="stop-color:#6F92AA"/>
			<stop  offset="0.179" style="stop-color:#9DB1C3"/>
			<stop  offset="0.3065" style="stop-color:#C3CED9"/>
			<stop  offset="0.421" style="stop-color:#E1E6EB"/>
			<stop  offset="0.5183" style="stop-color:#F5F6F8"/>
			<stop  offset="0.5869" style="stop-color:#FFFFFF"/>
			<stop  offset="0.664" style="stop-color:#F9FAFB"/>
			<stop  offset="0.7297" style="stop-color:#EDF0F2"/>
			<stop  offset="0.7914" style="stop-color:#DCE1E8"/>
			<stop  offset="0.8505" style="stop-color:#C4CFDA"/>
			<stop  offset="0.9078" style="stop-color:#A6BACA"/>
			<stop  offset="0.9631" style="stop-color:#85A3B8"/>
			<stop  offset="1" style="stop-color:#6B93AB"/>
		</linearGradient>
		<path class="st22" d="M165.8,227.5c-21.6,0-39.4-18.9-46.5-36.3v12.4c2,23,21.9,39.6,46.6,39.6c25.7,0,46.9-19.5,46.9-43.8
			c0-0.4,0-5.5,0-6C206.1,210.5,187.4,227.5,165.8,227.5z"/>
		<g class="st11">
			<path class="st23" d="M165.9,148.7c25.9,0,46.9,19.7,46.9,44s-21,44-46.9,44S119,217,119,192.7C119,168.3,140,148.7,165.9,148.7z
				"/>
		</g>
		<g class="st13">
			
				<linearGradient id="SVGID_11_" gradientUnits="userSpaceOnUse" x1="132.2425" y1="452.3725" x2="197.3756" y2="392.1651" gradientTransform="matrix(1 0 0 -1 0 614)">
				<stop  offset="0.5" style="stop-color:#FFFFFF;stop-opacity:0"/>
				<stop  offset="0.5" style="stop-color:#FFFFFF"/>
			</linearGradient>
			<path class="st24" d="M165.9,148.7c25.9,0,46.9,19.7,46.9,44s-21,44-46.9,44S119,217,119,192.7C119,168.3,140,148.7,165.9,148.7z
				"/>
		</g>
	</g>
	<g>
		
			<linearGradient id="SVGID_12_" gradientUnits="userSpaceOnUse" x1="47.4109" y1="280.2731" x2="178.5208" y2="280.2731" gradientTransform="matrix(1 0 0 -1 0 614)">
			<stop  offset="0" style="stop-color:#5F89A3"/>
			<stop  offset="4.224508e-02" style="stop-color:#6F92AA"/>
			<stop  offset="0.179" style="stop-color:#9DB1C3"/>
			<stop  offset="0.3065" style="stop-color:#C3CED9"/>
			<stop  offset="0.421" style="stop-color:#E1E6EB"/>
			<stop  offset="0.5183" style="stop-color:#F5F6F8"/>
			<stop  offset="0.5869" style="stop-color:#FFFFFF"/>
			<stop  offset="0.664" style="stop-color:#F9FAFB"/>
			<stop  offset="0.7297" style="stop-color:#EDF0F2"/>
			<stop  offset="0.7914" style="stop-color:#DCE1E8"/>
			<stop  offset="0.8505" style="stop-color:#C4CFDA"/>
			<stop  offset="0.9078" style="stop-color:#A6BACA"/>
			<stop  offset="0.9631" style="stop-color:#85A3B8"/>
			<stop  offset="1" style="stop-color:#6B93AB"/>
		</linearGradient>
		<path class="st25" d="M111.8,344c-21.6,0-40.1-18.9-46.2-36.3v12.4c2,23,21.7,39.6,46.4,39.6c25.7,0,46.7-19.5,46.7-43.8
			c0-0.5,0.1-5.5,0.1-6C152.1,327.2,133.5,344,111.8,344z"/>
		<g class="st11">
			<path class="st26" d="M111.7,265.2c25.9,0,46.9,19.7,46.9,44s-21,44-46.9,44s-46.9-19.7-46.9-44S85.8,265.2,111.7,265.2z"/>
		</g>
		<g class="st13">
			
				<linearGradient id="SVGID_13_" gradientUnits="userSpaceOnUse" x1="79.061" y1="338.7735" x2="143.0999" y2="271.9979" gradientTransform="matrix(1 0 0 -1 0 614)">
				<stop  offset="0.5" style="stop-color:#FFFFFF;stop-opacity:0"/>
				<stop  offset="0.5" style="stop-color:#FFFFFF"/>
			</linearGradient>
			<path class="st27" d="M111.7,265.2c25.9,0,46.9,19.7,46.9,44s-21,44-46.9,44s-46.9-19.7-46.9-44S85.8,265.2,111.7,265.2z"/>
		</g>
	</g>
	<g>
		<path class="st28" d="M257.5,345.3c19.9,0,37.3,10.2,46.7,25.3c6.4-5.2,14.2-8.2,22.5-8.2c16.7,0,31,12,36.8,29.2
			c4.3-1.4,9.1-2.2,14.2-2.2c6.5,0,13.4,1.2,20.2,3.6c17.9,6.6,29.8,20.2,29.8,32.8c20.6,0.9,36.9,17.5,36.9,37.9
			c0,21-17.3,37.9-38.7,37.9c-1.1,0-240.8,0.3-242.8,0.3c-23.2,0-42-17.5-42-39.3c0-17.3,11.9-32.1,28.5-37.4
			c3.3-15.5,17.2-27.4,34.2-29C203.6,368.1,227.8,345.3,257.5,345.3z"/>
	</g>
	
		<linearGradient id="SVGID_14_" gradientUnits="userSpaceOnUse" x1="140.4695" y1="124.691" x2="464.5945" y2="124.691" gradientTransform="matrix(1 0 0 -1 0 614)">
		<stop  offset="0" style="stop-color:#5F89A3"/>
		<stop  offset="3.497762e-02" style="stop-color:#6F92AA"/>
		<stop  offset="0.1482" style="stop-color:#9DB1C3"/>
		<stop  offset="0.2538" style="stop-color:#C3CED9"/>
		<stop  offset="0.3485" style="stop-color:#E1E6EB"/>
		<stop  offset="0.4291" style="stop-color:#F5F6F8"/>
		<stop  offset="0.4859" style="stop-color:#FFFFFF"/>
		<stop  offset="0.5818" style="stop-color:#F9FAFB"/>
		<stop  offset="0.6637" style="stop-color:#EDF0F2"/>
		<stop  offset="0.7404" style="stop-color:#DCE1E8"/>
		<stop  offset="0.814" style="stop-color:#C4CFDA"/>
		<stop  offset="0.8853" style="stop-color:#A6BACA"/>
		<stop  offset="0.954" style="stop-color:#85A3B8"/>
		<stop  offset="1" style="stop-color:#6B93AB"/>
	</linearGradient>
	<path class="st29" d="M464.6,466c-0.3,5.2-1.8,10.1-3.9,14.6c-0.1,0.2-0.2,0.3-0.3,0.5c-1.6,3-4.1,5.9-6.4,8.3
		c-2.2,2.2-4.5,4.3-6.8,6c-0.8,0.5-1.6,1-2.4,1.4c-3.8,2-7.8,3.4-11.9,4.2c-0.1,0-0.2,0-0.2,0c-0.3,0.1-0.7,0.1-1.1,0.2
		c-0.5,0.1-1,0.1-1.6,0.2c-0.1,0-0.2,0-0.3,0c-0.5,0-1,0.1-1.6,0.1c-0.1,0-0.2,0-0.3,0c-0.6,0-1.2,0-1.8,0c-1.1,0-233.8,0.2-243,0.2
		c-0.1,0-0.2,0-0.3,0c-23.3,0-42-17.3-42-39.1v14.1c0,21.8,18.8,39.2,42.1,39.2H182v0.2c3,0,242.3-0.3,243.4-0.3
		c0.6,0,1.3,0,1.9-0.1c0.1,0,0.3,0,0.4,0c0.5,0,1.1-0.1,1.6-0.1c0.1,0,0.2,0,0.2,0c0.6-0.1,1.1-0.1,1.7-0.2c0.3,0,0.5-0.1,0.8-0.1
		c0.2,0,0.4-0.1,0.6-0.1c3.6-0.7,7.2-1.8,10.3-3.4c1.1-0.5,2.2-1.1,3.3-1.7c0.3-0.2,0.7-0.5,1-0.8c5.1-3.3,9.2-7.8,12.3-13.1
		c0.3-0.4,0.5-0.9,0.7-1.3c0.1-0.1,0.1-0.3,0.2-0.4c2.1-4.4,3.5-9.1,3.8-14.3C464.6,480.2,464.6,466,464.6,466z"/>
	<g class="st30">
		<path class="st2" d="M250.1,310.5c-0.9-0.9-2.4-0.9-3.3,0l-6,6l3.3,3.3l6-6C251,313,251,311.5,250.1,310.5z M242.3,316.2l5.1-5.1
			c0.1-0.1,0.3-0.1,0.4,0c0.1,0.1,0.1,0.3,0,0.4l-5.1,5.1L242.3,316.2z M243.1,317.1l5.5-5.5c0.1-0.1,0.3-0.1,0.4,0
			c0.1,0.1,0.1,0.3,0,0.4l-5.5,5.5L243.1,317.1z M249.5,313.2l-5.1,5.1l-0.4-0.4l5.1-5.1c0.1-0.1,0.3-0.1,0.4,0
			C249.6,312.9,249.6,313.1,249.5,313.2z M242.1,319.5l-2.8,2.8l0.3,0.3l-0.4,0.7l-3.5,2.2l-0.7-0.7l2.2-3.5l0.7-0.3l0.3,0.3
			l2.8-2.8L242.1,319.5z M237.6,317.3c-2.1,0-3.7-1.7-3.7-3.7c0-0.5,0.1-0.9,0.2-1.3c0.1,0.1,0.1,0.2,0.2,0.2l1.3,1.3
			c0.7,0.7,1.8,0.7,2.5,0c0.7-0.7,0.7-1.8,0-2.5l-1.3-1.3c0,0-0.1,0-0.1-0.1c0.3-0.1,0.6-0.1,0.9-0.1c2.1,0,3.7,1.7,3.7,3.7
			C241.3,315.6,239.7,317.3,237.6,317.3z M246.1,318.7l-2.9,2.9l3,3c0.8,0.8,2.1,0.8,2.9,0c0.8-0.8,0.8-2.1,0-2.9L246.1,318.7z
			 M248.3,323.9c-0.3,0.3-0.9,0.3-1.2,0c-0.3-0.3-0.3-0.9,0-1.2c0.3-0.3,0.9-0.3,1.2,0C248.7,323,248.7,323.6,248.3,323.9z"/>
		<path class="st2" d="M468.9,361.3h3.3l-1.6-3l0,0L468.9,361.3L468.9,361.3z M473.6,361.3L473.6,361.3l2.1-3h-4.6L473.6,361.3
			L473.6,361.3z M474.1,361.3h5.6l-2.8-3L474.1,361.3L474.1,361.3z M480.2,361.3L480.2,361.3l2.5-3h-4.6L480.2,361.3L480.2,361.3z
			 M481.4,361.3h3.3l-1.7-3l0,0L481.4,361.3L481.4,361.3z M476.9,358.3L476.9,358.3L476.9,358.3L476.9,358.3L476.9,358.3z
			 M468.9,362.1h3.9l3.9,9.8l3.9-9.8h3.9l-7.9,9.8l2.8-9.8H474l2.8,9.8L468.9,362.1L468.9,362.1z M485.5,353.2l0.4,1.3l1.3,0.4
			l-1.3,0.4l-0.4,1.3l-0.4-1.3l-1.3-0.4l1.3-0.4L485.5,353.2L485.5,353.2z M469.4,368.5l0.6,1.9l1.9,0.6l-1.9,0.6l-0.6,1.8l-0.6-1.8
			l-1.8-0.6l1.8-0.6L469.4,368.5L469.4,368.5z"/>
		<path class="st2" d="M97.2,240.5h3.3l-1.6-3l0,0L97.2,240.5L97.2,240.5z M101.9,240.5L101.9,240.5l2.1-3h-4.6L101.9,240.5
			L101.9,240.5z M102.4,240.5h5.6l-2.8-3L102.4,240.5L102.4,240.5z M108.5,240.5L108.5,240.5l2.5-3h-4.6L108.5,240.5L108.5,240.5z
			 M109.7,240.5h3.3l-1.7-3l0,0L109.7,240.5L109.7,240.5z M105.1,237.5L105.1,237.5L105.1,237.5L105.1,237.5L105.1,237.5z
			 M97.2,241.3h3.9l3.9,9.8l3.9-9.8h3.9l-7.9,9.8l2.8-9.8h-5.7l2.8,9.8L97.2,241.3L97.2,241.3z M113.7,232.4l0.4,1.3l1.3,0.4
			l-1.3,0.4l-0.4,1.3l-0.4-1.3l-1.3-0.4l1.3-0.4L113.7,232.4L113.7,232.4z M97.6,247.7l0.6,1.9l1.9,0.6l-1.9,0.6l-0.6,1.9l-0.6-1.9
			l-1.8-0.6l1.8-0.6L97.6,247.7L97.6,247.7z"/>
		<path class="st2" d="M361.9,263.2h3.3l-1.6-3l0,0L361.9,263.2L361.9,263.2z M366.5,263.2L366.5,263.2l2.1-3H364L366.5,263.2
			L366.5,263.2z M367.1,263.2h5.6l-2.8-3L367.1,263.2L367.1,263.2z M373.2,263.2L373.2,263.2l2.5-3h-4.6L373.2,263.2L373.2,263.2z
			 M374.4,263.2h3.3l-1.7-3l0,0L374.4,263.2L374.4,263.2z M369.8,260.2L369.8,260.2L369.8,260.2L369.8,260.2L369.8,260.2z
			 M361.9,264h3.9l3.9,9.8l3.9-9.8h3.9l-7.9,9.8l2.8-9.8H367l2.8,9.8L361.9,264L361.9,264z M378.4,255.1l0.4,1.3l1.3,0.4l-1.3,0.4
			l-0.4,1.3l-0.4-1.3l-1.3-0.4l1.3-0.4L378.4,255.1L378.4,255.1z M362.3,270.4l0.6,1.9l1.9,0.6l-1.9,0.6l-0.6,1.9l-0.6-1.9l-1.8-0.6
			l1.8-0.6L362.3,270.4L362.3,270.4z"/>
		<g>
			<path class="st31" d="M369.1,300.7c0.5,0,0.9-0.4,0.9-0.9s-0.4-0.9-0.9-0.9h-8.8l-0.5-1.4h9.3v-7.1h-11.6l-1.7-5.1
				c-0.1-0.4-0.5-0.6-0.9-0.6h-4.8c-0.5,0-0.9,0.4-0.9,0.9s0.4,0.9,0.9,0.9h4.1l4.6,13.6c0.1,0.4,0.5,0.6,0.9,0.6H369.1z"/>
			<circle class="st31" cx="360.8" cy="303" r="1.5"/>
			<circle class="st31" cx="368.3" cy="303" r="1.5"/>
		</g>
		<path class="st32" d="M270.7,306c2.6,0,4.8,2.1,4.8,4.8h-0.9c0-2.1-1.7-3.8-3.8-3.8L270.7,306L270.7,306z M266.8,304.7
			c0.4-0.3,0.7-0.5,1-0.4c0.3,0,0.6,0.3,1,0.7c1,1.2,1.1,2.2,0.2,2.9l-0.3,0.2c-0.2-0.8-1.8-3-2.2-3.2L266.8,304.7z M276.1,316.9
			c-2.1,1.9-4.4-0.2-5.3-0.9c-0.9-0.7-1.7-1.5-2.4-2.4c-0.8-0.9-1.5-1.9-2-2.8c-0.6-1-2.1-2.7-0.1-5.3c0.3-0.4,1.9,2.3,2.1,3.2
			l-0.1,0.1c-0.6,0.5-0.1,1.7,1.4,3.5c1.6,1.9,2.7,2.6,3.3,2.1l0.1-0.1C274.1,314.1,276.5,316.6,276.1,316.9z M276.4,316.6
			c-0.2-0.5-1.4-2.3-2.8-2.7l0.2-0.2c0.5-0.4,1-0.6,1.4-0.5c0.5,0.1,1,0.5,1.5,1.1c0.4,0.4,0.5,0.8,0.5,1.1
			C277.4,316,276.4,316.6,276.4,316.6z M276.7,310.9c0-3.3-2.6-6-6-6V304c3.8,0,6.9,3.1,6.9,6.9H276.7z M278.8,310.9
			c0-4.5-3.6-8.1-8.1-8.1v-0.9c5,0,9.1,4.1,9.1,9.1h-1V310.9z"/>
		<path class="st32" d="M231,183.4c-5.2,0-9.2,4.2-9.2,9.2c0,5.2,4.2,9.2,9.2,9.2c5.2,0,9.2-4.2,9.2-9.2
			C240.2,187.6,236.1,183.4,231,183.4z M223.4,192.8c-0.2,0-0.3-0.1-0.3-0.3c0-0.2,0.1-0.3,0.3-0.3s0.3,0.1,0.3,0.3
			C223.8,192.7,223.6,192.8,223.4,192.8z M230.9,200.2c-0.2,0-0.3-0.1-0.3-0.3c0-0.2,0.1-0.3,0.3-0.3s0.3,0.1,0.3,0.3
			C231.2,200.1,231.1,200.2,230.9,200.2z M236.2,198c-0.2,0.2-0.5,0.2-0.7,0l-4.3-4.3c-0.1,0-0.2,0-0.3,0c-0.6,0-1.1-0.5-1.1-1.1
			c0-0.4,0.2-0.7,0.5-0.9v-6.5c0-0.3,0.2-0.5,0.5-0.5c0.3,0,0.5,0.2,0.5,0.5v6.4c0.4,0.2,0.7,0.6,0.7,1.1c0,0.2,0,0.3-0.1,0.5
			l4.2,4.2C236.4,197.5,236.4,197.8,236.2,198z M238.3,192.8c-0.2,0-0.3-0.1-0.3-0.3c0-0.2,0.1-0.3,0.3-0.3s0.3,0.1,0.3,0.3
			S238.5,192.8,238.3,192.8z"/>
		<path id="icon_1_" class="st31" d="M317.5,162.3c-0.2,0-0.4,0.2-0.4,0.4v4.6c0,0.2,0.2,0.4,0.4,0.4h5.4c0.2,0,0.4-0.2,0.4-0.4
			v-4.6c0-0.2-0.2-0.4-0.4-0.4H317.5z M322.8,170.1h-5.4c-0.2,0-0.4,0.2-0.4,0.4v4.6c0,0.2,0.2,0.4,0.4,0.4h5.4
			c0.2,0,0.4-0.2,0.4-0.4v-4.6C323.1,170.3,323,170.1,322.8,170.1z M331.3,170.1H326c-0.2,0-0.4,0.2-0.4,0.4v4.6
			c0,0.2,0.2,0.4,0.4,0.4h5.4c0.2,0,0.4-0.2,0.4-0.4v-4.6C331.6,170.3,331.5,170.1,331.3,170.1z M331.6,169.2v-0.6
			c0-0.1-0.1-0.2-0.2-0.2h-6.3c-0.1,0-0.2-0.3-0.2-0.5v-5.4c0-0.1-0.1-0.2-0.2-0.2h-0.6c-0.1,0-0.2,0.1-0.2,0.2v5.4
			c0,0.1-0.1,0.5-0.2,0.5h-6.3c-0.1,0-0.2,0.1-0.2,0.2v0.6c0,0.1,0.1,0.2,0.2,0.2h6.3c0.1,0,0.2,0.3,0.2,0.5v5.3
			c0,0.1,0.1,0.2,0.2,0.2h0.6c0.1,0,0.2-0.1,0.2-0.2v-5.3c0-0.1,0.1-0.5,0.2-0.5h6.3C331.5,169.4,331.6,169.3,331.6,169.2z
			 M331.2,160.7c0,0-0.1-1.6-0.3-2.2c-0.2-0.5-1.3-0.7-1.5-0.2c-0.2,0.4,1.2,1.9,1.2,1.9L331.2,160.7z M332.3,161.6
			c0,0,2.3-2.4,2.1-2.9c-0.2-0.6-2.1-2-2.5-1.3s-0.4,3.4-0.4,3.4L332.3,161.6z M333.5,162.8l0.6,0.6c0,0,1.6,1.4,2.1,1.1
			c0.5-0.2,0.2-1.4-0.3-1.5C335.2,162.9,333.5,162.8,333.5,162.8z M332.5,161.8l0.8,0.8c0,0,2.7-0.1,3.4-0.6
			c0.7-0.4-0.8-2.3-1.4-2.4C334.7,159.4,332.5,161.8,332.5,161.8z M337,167l-10.1-9.6c-0.1-0.1-0.4-0.1-0.5,0l-1.2,1.2
			c-0.1,0.1-0.1,0.4,0,0.5l3.4,3.2H326c-0.2,0-0.4,0.2-0.4,0.4v4.6c0,0.2,0.2,0.4,0.4,0.4h5.4c0.2,0,0.4-0.2,0.4-0.4v-2l3.5,3.4
			c0.1,0.1,0.4,0.1,0.5,0l1.2-1.2C337.1,167.3,337.1,167.1,337,167z M318.4,155.5l0.7,0.5c0.2,0.1,0.3,0.4,0.3,0.6v0.9
			c0,0.1,0,0.2,0.1,0.2c0,0,0,0,0.1,0c0.2,0,0.4,0.1,0.6,0.1c1.1,0.4,1.9,1.7,2.2,2.3c0.1,0.2,0.2,0.3,0.2,0.3l0.1,0.1
			c0,0,0.1,0,0.1-0.1l0,0c1.1-3.3,0-5.8,0-5.8l0,0c0-0.1-0.1-0.1-0.2-0.1h-0.9c-0.2,0-0.5-0.2-0.6-0.3l-0.5-0.7
			c-0.1-0.2-0.3-0.2-0.3,0l-0.3,0.8c-0.1,0.2-0.3,0.4-0.5,0.5l-0.8,0.2C318.3,155.2,318.2,155.3,318.4,155.5z M322,155.6l0.5-0.6
			c0,0.1,0.1,0.1,0.1,0.2c0.1,0.3,0.2,0.7,0.3,1.1c0.1,0.8,0.1,2-0.2,3.3c0-1-0.3-1.8-0.6-2.3c0,0,0-0.1,0-0.2l-0.2-0.8
			C321.8,156.1,321.9,155.8,322,155.6z M320.4,157.2c0.2-0.1,0.5-0.2,0.7-0.1l0.8,0.3l0,0c0.1,0.1,0.1,0.3,0.2,0.5
			c0.2,0.5,0.4,1.3,0.4,2.1c-0.3-0.6-1.1-1.9-2.3-2.4c-0.1,0-0.3-0.1-0.4-0.1L320.4,157.2z M317.5,161.4L317.5,161.4
			c0.1-0.1,0.2-0.2,0.3-0.3c0.5-0.4,1.4-0.4,1.8-0.4c0.1,0,0.2,0,0.2,0s0,0,0.1,0c0,0,0,0,0-0.1l0,0c-1.3-1.6-2.8-1.8-2.8-1.8l0,0
			c0,0-0.1,0-0.1,0.1l-0.3,0.4c-0.1,0.1-0.2,0.2-0.4,0.2h-0.5c-0.1,0-0.2,0.1-0.1,0.2l0.3,0.4c0.1,0.1,0.1,0.3,0.1,0.4l-0.1,0.5
			c0,0.1,0,0.2,0.1,0.1l0.5-0.2c0.1,0,0.3,0,0.4,0.1l0.4,0.3C317.4,161.5,317.4,161.5,317.5,161.4z M317.7,161.1
			c-0.1,0-0.1,0.1-0.2,0.2v-0.4c0-0.1,0.1-0.3,0.2-0.4l0.4-0.3l0,0c0.1,0,0.2,0,0.3,0c0.3,0.1,0.8,0.2,1.2,0.5
			C319.2,160.6,318.3,160.6,317.7,161.1z M317.1,159.1c0,0,0.1,0,0.2,0c0.2,0,0.4,0.1,0.7,0.2c0.5,0.2,1,0.5,1.6,1.1
			c-0.5-0.3-1-0.4-1.3-0.4c0,0,0-0.1-0.1-0.1l-0.5-0.1c-0.1,0-0.3-0.2-0.3-0.3L317.1,159.1z"/>
		<path id="icon_4_" class="st31" d="M410,361.6c-0.2,0-0.3,0.1-0.3,0.3v3.7c0,0.2,0.1,0.3,0.3,0.3h4.4c0.2,0,0.3-0.1,0.3-0.3v-3.7
			c0-0.2-0.1-0.3-0.3-0.3H410z M414.5,368h-4.4c-0.2,0-0.3,0.1-0.3,0.3v3.7c0,0.2,0.1,0.3,0.3,0.3h4.4c0.2,0,0.3-0.1,0.3-0.3v-3.7
			C414.8,368.2,414.7,368,414.5,368z M421.5,368h-4.4c-0.2,0-0.3,0.1-0.3,0.3v3.7c0,0.2,0.1,0.3,0.3,0.3h4.4c0.2,0,0.3-0.1,0.3-0.3
			v-3.7C421.8,368.2,421.7,368,421.5,368z M421.8,367.3v-0.5c0-0.1-0.1-0.2-0.2-0.2h-5.2c-0.1,0-0.2-0.3-0.2-0.4v-4.4
			c0-0.1-0.1-0.2-0.2-0.2h-0.5c-0.1,0-0.2,0.1-0.2,0.2v4.4c0,0.1-0.1,0.4-0.2,0.4h-5.2c-0.1,0-0.2,0.1-0.2,0.2v0.5
			c0,0.1,0.1,0.2,0.2,0.2h5.2c0.1,0,0.2,0.3,0.2,0.4v4.4c0,0.1,0.1,0.2,0.2,0.2h0.5c0.1,0,0.2-0.1,0.2-0.2v-4.4
			c0-0.1,0.1-0.4,0.2-0.4h5.2C421.7,367.5,421.8,367.4,421.8,367.3z M421.5,360.3c0,0-0.1-1.4-0.2-1.8c-0.1-0.4-1-0.6-1.2-0.2
			c-0.1,0.4,1,1.5,1,1.5L421.5,360.3z M422.2,361c0,0,1.9-1.9,1.7-2.4c-0.2-0.5-1.7-1.6-2-1c-0.3,0.6-0.3,2.8-0.3,2.8L422.2,361z
			 M423.2,361.9l0.5,0.5c0,0,1.3,1.1,1.7,0.9c0.4-0.2,0.2-1.2-0.3-1.3C424.6,362,423.2,361.9,423.2,361.9z M422.4,361.2l0.7,0.6
			c0,0,2.2-0.1,2.8-0.5c0.6-0.4-0.6-1.9-1.1-2C424.3,359.2,422.4,361.2,422.4,361.2z M426.1,365.4l-8.3-7.9c-0.1-0.1-0.3-0.1-0.4,0
			l-1,1c-0.1,0.1-0.1,0.3,0,0.4l2.8,2.6h-2.1c-0.2,0-0.3,0.1-0.3,0.3v3.7c0,0.2,0.1,0.3,0.3,0.3h4.4c0.2,0,0.3-0.1,0.3-0.3v-1.5
			l2.9,2.8c0.1,0.1,0.3,0.1,0.4,0l1-1C426.2,365.8,426.2,365.6,426.1,365.4z M410.8,356l0.6,0.4c0.1,0.1,0.2,0.3,0.2,0.5v0.7
			c0,0.1,0,0.2,0.1,0.2l0,0c0.2,0,0.3,0,0.5,0.1c0.9,0.3,1.5,1.4,1.8,1.9c0.1,0.2,0.1,0.3,0.1,0.3s0,0.1,0.1,0c0,0,0.1,0,0.1-0.1
			l0,0c0.9-2.7,0-4.7,0-4.8l0,0c0,0-0.1-0.1-0.2-0.1h-0.7c-0.2,0-0.4-0.1-0.5-0.3l-0.4-0.6c-0.1-0.1-0.2-0.1-0.3,0l-0.2,0.7
			c-0.1,0.2-0.2,0.3-0.4,0.4l-0.7,0.2C410.7,355.8,410.7,355.9,410.8,356z M413.9,356.1l0.4-0.5c0,0.1,0,0.1,0.1,0.2
			c0.1,0.2,0.2,0.5,0.2,0.9c0.1,0.7,0.1,1.6-0.1,2.7c0-0.8-0.3-1.5-0.5-1.9c0,0,0-0.1,0-0.2l-0.2-0.7
			C413.7,356.5,413.8,356.3,413.9,356.1z M412.4,357.4c0.1-0.1,0.4-0.1,0.6-0.1l0.7,0.3l0,0c0.1,0.1,0.1,0.2,0.2,0.4
			c0.2,0.4,0.3,1,0.3,1.7c-0.3-0.5-0.9-1.6-1.9-1.9c-0.1,0-0.2-0.1-0.3-0.1L412.4,357.4z M410.1,360.9L410.1,360.9
			c0.1-0.1,0.1-0.2,0.2-0.2c0.4-0.4,1.2-0.3,1.5-0.3c0.1,0,0.2,0,0.2,0s0,0,0.1,0c0,0,0,0,0-0.1l0,0c-1.1-1.3-2.3-1.5-2.3-1.5l0,0
			c0,0-0.1,0-0.1,0.1l-0.2,0.3c-0.1,0.1-0.2,0.2-0.3,0.2h-0.4c-0.1,0-0.1,0.1-0.1,0.2l0.3,0.3c0.1,0.1,0.1,0.2,0.1,0.3l-0.1,0.4
			c0,0.1,0,0.2,0.1,0.1l0.4-0.1c0.1,0,0.2,0,0.3,0l0.3,0.2C410,360.9,410,360.9,410.1,360.9z M410.2,360.6l-0.1,0.1v-0.3
			c0-0.1,0.1-0.2,0.1-0.3l0.3-0.2l0,0c0.1,0,0.2,0,0.3,0c0.3,0.1,0.6,0.2,1,0.4C411.4,360.2,410.7,360.2,410.2,360.6z M409.8,359
			h0.1c0.1,0,0.3,0.1,0.5,0.2c0.4,0.2,0.8,0.4,1.3,0.9c-0.4-0.2-0.8-0.3-1.1-0.4c0,0,0,0-0.1-0.1l-0.4-0.1c-0.1,0-0.2-0.1-0.2-0.2
			L409.8,359z"/>
		<path class="st31" d="M345.8,320.6c-2.3,1.8-5.8,1.4-7.6-0.9c-1.8-2.3-1.4-5.8,0.9-7.6c2.3-1.8,5.8-1.4,7.6,0.9
			C348.7,315.3,348.2,318.7,345.8,320.6z M345.8,313.6c-1.4-1.8-4.2-2.1-6-0.7s-2.2,4.2-0.7,6c1.4,1.8,4.2,2.1,6,0.7
			C346.9,318.2,347.3,315.6,345.8,313.6z M345.8,320.9l0.3-0.3c0.3-0.2,0.7-0.2,0.9,0.1l0.9,1.2l-1.3,1l-0.9-1.2
			C345.5,321.5,345.6,321.1,345.8,320.9z M348.9,324.1l-0.3,0.3c-0.3,0.2-0.7,0.2-0.9-0.1l-0.6-0.8l1.3-1l0.6,0.8
			C349.2,323.4,349.2,323.9,348.9,324.1z M345.3,314.9C345.3,314.9,345.2,314.9,345.3,314.9c-0.2,0-0.4,0-0.5-0.2
			c-0.3-0.6-0.6-0.9-1-1c-0.4-0.1-0.7-0.1-0.9-0.1c-0.1,0-0.1,0-0.2,0l0,0l0,0c-0.2,0-0.4-0.1-0.4-0.3c0-0.2,0.1-0.4,0.3-0.4
			c0,0,0.1,0,0.2,0c0.3,0,0.8,0,1.3,0.2c0.5,0.2,1.1,0.6,1.4,1.4C345.6,314.6,345.5,314.8,345.3,314.9z M345,315.8
			c0-0.2,0.1-0.4,0.3-0.4s0.4,0.1,0.4,0.3c0,0.2-0.1,0.4-0.3,0.4C345.2,316.1,345,316,345,315.8z"/>
		<path id="icon_2_" class="st2" d="M129.5,249c-0.1,0-0.3,0.1-0.3,0.3v3.3c0,0.1,0.1,0.3,0.3,0.3h3.8c0.1,0,0.3-0.1,0.3-0.3v-3.3
			c0-0.1-0.1-0.3-0.3-0.3H129.5z M133.4,254.6h-3.8c-0.1,0-0.3,0.1-0.3,0.3v3.3c0,0.1,0.1,0.3,0.3,0.3h3.8c0.1,0,0.3-0.1,0.3-0.3
			v-3.3C133.7,254.7,133.6,254.6,133.4,254.6z M139.6,254.6h-3.8c-0.1,0-0.3,0.1-0.3,0.3v3.3c0,0.1,0.1,0.3,0.3,0.3h3.8
			c0.1,0,0.3-0.1,0.3-0.3v-3.3C139.9,254.7,139.7,254.6,139.6,254.6z M139.9,254v-0.4c0-0.1-0.1-0.2-0.2-0.2h-4.6
			c-0.1,0-0.2-0.2-0.2-0.3v-3.8c0-0.1-0.1-0.2-0.2-0.2h-0.4c-0.1,0-0.2,0.1-0.2,0.2v3.8c0,0.1-0.1,0.3-0.2,0.3h-4.5
			c-0.1,0-0.2,0.1-0.2,0.2v0.4c0,0.1,0.1,0.2,0.2,0.2h4.6c0.1,0,0.2,0.2,0.2,0.3v3.8c0,0.1,0.1,0.2,0.2,0.2h0.4
			c0.1,0,0.2-0.1,0.2-0.2v-3.8c0-0.1,0.1-0.3,0.2-0.3h4.6C139.8,254.1,139.9,254.1,139.9,254z M139.6,247.8c0,0-0.1-1.2-0.2-1.6
			c-0.1-0.4-0.9-0.5-1-0.2c-0.1,0.3,0.8,1.3,0.8,1.3L139.6,247.8z M140.3,248.5c0,0,1.6-1.7,1.5-2.1c-0.1-0.4-1.5-1.4-1.8-0.9
			s-0.3,2.5-0.3,2.5L140.3,248.5z M141.1,249.3l0.4,0.4c0,0,1.2,1,1.5,0.8s0.2-1-0.2-1.1C142.4,249.3,141.1,249.3,141.1,249.3z
			 M140.4,248.6l0.6,0.6c0,0,2-0.1,2.4-0.4c0.5-0.3-0.6-1.6-1-1.8C142,246.9,140.4,248.6,140.4,248.6z M143.6,252.4l-7.3-6.9
			c-0.1-0.1-0.3-0.1-0.4,0l-0.8,0.9c-0.1,0.1-0.1,0.3,0,0.4l2.4,2.3h-1.9c-0.1,0-0.3,0.1-0.3,0.3v3.3c0,0.1,0.1,0.3,0.3,0.3h3.8
			c0.1,0,0.3-0.1,0.3-0.3v-1.4l2.5,2.4c0.1,0.1,0.3,0.1,0.4,0l0.8-0.9C143.7,252.6,143.7,252.5,143.6,252.4z M130.2,244.1l0.5,0.4
			c0.1,0.1,0.2,0.3,0.2,0.5v0.6c0,0.1,0,0.1,0.1,0.2l0,0c0.2,0,0.3,0,0.4,0.1c0.8,0.3,1.4,1.2,1.6,1.6c0.1,0.1,0.1,0.2,0.1,0.2
			s0,0,0.1,0h0.1l0,0c0.8-2.4,0-4.2,0-4.2l0,0c0,0-0.1-0.1-0.2-0.1h-0.6c-0.2,0-0.4-0.1-0.4-0.2l-0.3-0.5c-0.1-0.1-0.2-0.1-0.2,0
			l-0.2,0.6c-0.1,0.1-0.2,0.3-0.4,0.3l-0.6,0.2C130.1,243.9,130.1,244,130.2,244.1z M132.9,244.2l0.4-0.4c0,0,0,0.1,0.1,0.2
			c0.1,0.2,0.1,0.5,0.2,0.8c0.1,0.6,0.1,1.4-0.1,2.3c0-0.7-0.2-1.3-0.4-1.7c0,0,0-0.1,0-0.2l-0.2-0.6
			C132.8,244.5,132.8,244.3,132.9,244.2z M131.7,245.3c0.1-0.1,0.4-0.1,0.5-0.1l0.6,0.2l0,0c0,0.1,0.1,0.2,0.1,0.3
			c0.1,0.4,0.3,0.9,0.3,1.5c-0.2-0.5-0.8-1.4-1.7-1.7c-0.1,0-0.2-0.1-0.3-0.1L131.7,245.3z M129.6,248.4L129.6,248.4
			c0.1-0.1,0.1-0.1,0.2-0.2c0.4-0.3,1-0.3,1.3-0.3c0.1,0,0.2,0,0.2,0l0,0l0,0l0,0c-0.9-1.1-2-1.3-2-1.3l0,0c0,0-0.1,0-0.1,0.1
			L129,247c-0.1,0.1-0.2,0.1-0.3,0.1h-0.4c-0.1,0-0.1,0.1-0.1,0.1l0.2,0.3c0.1,0.1,0.1,0.2,0.1,0.3l-0.1,0.3c0,0.1,0,0.1,0.1,0.1
			l0.3-0.1c0.1,0,0.2,0,0.3,0l0.3,0.2C129.5,248.4,129.5,248.4,129.6,248.4z M129.7,248.1l-0.1,0.1v-0.3c0-0.1,0.1-0.2,0.1-0.3
			l0.3-0.2l0,0c0.1,0,0.1,0,0.2,0c0.2,0.1,0.5,0.2,0.9,0.3C130.8,247.8,130.1,247.8,129.7,248.1z M129.3,246.7h0.1
			c0.1,0,0.3,0.1,0.5,0.2c0.3,0.1,0.7,0.4,1.1,0.8c-0.4-0.2-0.7-0.3-1-0.3c0,0,0,0-0.1-0.1l-0.4-0.1c-0.1,0-0.2-0.1-0.2-0.2
			L129.3,246.7z"/>
		<path class="st31" d="M197.8,310.1l2.3-2.3c0.1-0.1,0.3-0.1,0.3,0.1l0.2,2.1l2.1,0.2c0.2,0,0.2,0.2,0.1,0.3l-2.3,2.3
			c-0.1,0.1-0.4,0.2-0.6,0.2l-1.4-0.1l-3.9,3.9c0.3,0.7,0.2,1.5-0.4,2c-0.7,0.7-1.8,0.7-2.5,0c-0.7-0.7-0.7-1.8,0-2.5
			c0.5-0.5,1.4-0.7,2-0.4l3.9-3.9l-0.1-1.4C197.6,310.5,197.7,310.2,197.8,310.1z M202.1,312.1l-1.1,1.1c-0.2,0.2-0.5,0.3-0.7,0.4
			c0.6,1.2,1,2.5,1,4.1c0,4.6-3.7,8.3-8.3,8.3c-4.6,0-8.3-3.7-8.3-8.3s3.7-8.3,8.3-8.3c1.5,0,2.8,0.4,4.1,1.1
			c0.1-0.3,0.2-0.5,0.4-0.7l1.1-1.1c-1.6-1-3.5-1.5-5.6-1.5c-5.9,0-10.6,4.8-10.6,10.6c0,5.9,4.8,10.6,10.6,10.6
			c5.9,0,10.6-4.8,10.6-10.6C203.7,315.7,203,313.7,202.1,312.1z M192.9,314.1c0.6,0,1.1,0.1,1.5,0.4l1.9-1.9
			c-1-0.7-2.2-1.1-3.5-1.1c-3.4,0-6.3,2.8-6.3,6.3c0,3.4,2.8,6.3,6.3,6.3s6.3-2.8,6.3-6.3c0-1.3-0.4-2.4-1-3.4l-1.9,1.9
			c0.2,0.4,0.3,0.9,0.3,1.5c0,1.9-1.6,3.5-3.5,3.5s-3.5-1.6-3.5-3.5C189.4,315.7,191,314.1,192.9,314.1z"/>
		<path class="st2" d="M144.4,378.7l5.6-4.8v10.9L144.4,378.7z M131.6,374v11.2l6-6.4L131.6,374z M149.3,373.3h-16.9l8.6,7.1
			L149.3,373.3z M143.7,379.4l-2.3,2l-0.3,0.3l-0.3-0.3l-2.4-1.9l-5.9,6.3h17L143.7,379.4z"/>
		<path class="st32" d="M432.1,256.7l6.4-5.5v12.5L432.1,256.7z M417.3,251.3v12.9l6.8-7.3L417.3,251.3z M437.6,250.5h-19.2l9.8,8.1
			L437.6,250.5z M420.5,264.7h17.2l-6.6-7.2l-2.6,2.2l-0.4,0.3l-0.4-0.3l-2.7-2.2l-6.7,7.2H420.5"/>
		<path class="st31" d="M268.2,164.9c0-0.1,0-0.1,0-0.2c0-1,0.8-1.9,1.9-1.9c0.1,0,0.1,0,0.2,0s0.1,0,0.2,0l0,0
			c0.3,0.1,0.5,0.2,0.7,0.3l0,0l0.1,0.1l0,0c0.1,0.1,0.1,0.1,0.2,0.2l0,0c0,0.1,0.1,0.1,0.1,0.2c0,0,0,0,0,0.1
			c0,0.1,0.1,0.1,0.1,0.2l0,0c0,0.1,0.1,0.1,0.1,0.2c0,0,0,0,0,0.1c0,0.1,0,0.1,0,0.2c0,0,0,0,0,0.1c0,0.1,0,0.2,0,0.2
			c0,1-0.8,1.9-1.9,1.9c-0.1,0-0.1,0-0.2,0c0,0,0,0-0.1,0h-0.1c0,0,0,0-0.1,0h-0.1c0,0,0,0-0.1,0c0,0,0,0-0.1,0H269c0,0,0,0-0.1,0
			s-0.1-0.1-0.2-0.1l0,0c-0.1-0.1-0.2-0.1-0.3-0.2l0,0l-0.1-0.1l0,0c0,0,0-0.1-0.1-0.1c0,0,0,0,0-0.1c0,0,0,0-0.1-0.1v-0.1
			c0,0,0-0.1-0.1-0.1c0,0,0-0.1-0.1-0.1c0,0,0,0,0-0.1v-0.1c0,0,0,0,0-0.1v-0.1c0,0,0,0,0-0.1C268.2,165,268.2,165,268.2,164.9
			L268.2,164.9z M278.3,176.9c0,0.1-0.1,0.2-0.2,0.2h-0.2c-0.1,0.7-0.8,3.3-0.8,3.4c0,0.1-0.1,0.2-0.2,0.2h-4.8c0,0.4,0,0.7,0,0.7
			v0.1v0.1l0,0c-0.1,0.1-0.1,0.3-0.3,0.4c0,0-0.1,0-0.1,0.1l0,0c-0.2,0.1-0.4,0.1-0.6,0.1H271l0,0l0,0c-0.1,0-0.1,0-0.2-0.1l0,0l0,0
			l0,0l0,0c-0.1-0.1-0.2-0.2-0.3-0.4l0,0v-0.1l0,0c0,0,0-0.1,0-0.2c0,0,0-5,0-5.6v-0.1h-0.1h-0.2v5.6c0,0.4-0.4,0.8-0.8,0.8h-0.1
			l0,0c-0.1,0-0.2,0-0.2,0c-0.2-0.1-0.3-0.1-0.5-0.3l0,0l-0.1-0.1l0,0c0,0,0,0,0-0.1l0,0v-0.1l0,0v-0.1v-5.7h-1.2
			c-0.1,0-0.2,0-0.2-0.1l0,0c0,0-0.1,0-0.1-0.1l0,0c0,0,0,0-0.1-0.1l0,0c0,0,0,0,0-0.1c0,0,0,0,0-0.1c0,0,0,0,0-0.1v-0.1l0,0V175
			l0,0l0,0l0,0l0,0l0,0c0,0,0,0,0-0.1c0,0,0,0,0-0.1c0,0,0,0,0-0.1c0.2-0.6,0.7-2.1,1.2-3.4l0,0c0.4-1,0.7-1.9,0.7-1.9h-0.2
			l-1.6,4.5c-0.1,0.3-0.5,0.5-0.8,0.4c-0.4-0.1-0.6-0.4-0.5-0.8l1.6-4.6c0.5-1.8,1.9-1.7,1.9-1.7h2.5l0,0l0,0c0.1,0,0.8,0,1.4,0.7
			l0,0c0,0.1,0.1,0.1,0.1,0.2l0,0c0,0.1,0.1,0.1,0.1,0.2l0,0c0,0.1,0.1,0.2,0.1,0.2l0,0c0,0.1,0.1,0.2,0.1,0.3l1.6,4.6
			c0,0.1,0,0.2,0,0.3l1.5,2.9h1.6C278.2,176.7,278.3,176.7,278.3,176.9z M273.4,174.3l0.1-0.3c0-0.1-0.1-0.1-0.1-0.2l-1.5-4.5h-0.2
			L273.4,174.3z M272.6,177.3h-0.5c0,0.5,0,1.2,0,1.8c0.1,0.5,0.2,0.9,0.2,0.9s0.1,0,0.3,0V177.3z M272.6,175.8c-0.3,0-0.6,0-0.6,0
			s0,0.4,0,0.9h0.1L272.6,175.8z M274.1,177.3h-0.9v2.7c0.3,0,0.6,0,0.9,0V177.3z M275.5,177.3h-0.9v2.7c0.3,0,0.6,0,0.9,0V177.3z
			 M275.7,176.7l-1.2-2.5c-0.1,0-0.1,0.1-0.2,0.1h-0.1l0,0h-0.1l0,0l0,0l-0.4,0.7v0.1c0.2,0.7-0.1,0.7-0.3,0.7c0,0,0,0-0.1,0
			l-0.4,0.9L275.7,176.7L275.7,176.7z M277,177.3h-0.8v2.7c0.1,0,0.2,0,0.2,0l0,0C276.5,180.1,277,177.5,277,177.3z"/>
		<path class="st31" d="M440.6,223.8c0-0.1,0-0.1,0-0.2c0-1,0.8-1.9,1.9-1.9c0.1,0,0.1,0,0.2,0s0.1,0,0.2,0l0,0
			c0.3,0.1,0.5,0.2,0.7,0.3l0,0l0.1,0.1l0,0c0.1,0.1,0.1,0.1,0.2,0.2l0,0c0,0.1,0.1,0.1,0.1,0.2c0,0,0,0,0,0.1
			c0,0.1,0.1,0.1,0.1,0.2l0,0c0,0.1,0.1,0.1,0.1,0.2c0,0,0,0,0,0.1c0,0.1,0,0.1,0,0.2c0,0,0,0,0,0.1c0,0.1,0,0.2,0,0.2
			c0,1-0.8,1.9-1.9,1.9c-0.1,0-0.1,0-0.2,0c0,0,0,0-0.1,0h-0.1c0,0,0,0-0.1,0h-0.1c0,0,0,0-0.1,0c0,0,0,0-0.1,0h-0.1l0,0
			c-0.1,0-0.1-0.1-0.2-0.1l0,0c-0.1-0.1-0.2-0.1-0.2-0.2l0,0l-0.1-0.1l0,0c0,0,0,0-0.1-0.1c0,0,0,0,0-0.1c0,0,0,0-0.1-0.1v-0.1
			c0,0,0-0.1-0.1-0.1c0,0,0-0.1-0.1-0.1c0,0,0,0,0-0.1v-0.1c0,0,0,0,0-0.1v-0.1c0,0,0,0,0-0.1C440.6,224,440.6,223.9,440.6,223.8
			C440.6,223.9,440.6,223.9,440.6,223.8z M450.7,235.9c0,0.1-0.1,0.2-0.2,0.2h-0.2c-0.1,0.7-0.8,3.3-0.8,3.4c0,0.1-0.1,0.2-0.2,0.2
			h-4.8c0,0.4,0,0.7,0,0.7v0.1v0.1l0,0c-0.1,0.1-0.1,0.3-0.3,0.4c0,0-0.1,0-0.1,0.1l0,0c-0.2,0.1-0.4,0.1-0.6,0.1h-0.1l0,0l0,0
			c-0.1,0-0.1,0-0.2-0.1l0,0l0,0l0,0l0,0c-0.1-0.1-0.2-0.2-0.3-0.4l0,0v-0.1l0,0c0,0,0-0.1,0-0.2c0,0,0-5,0-5.6v-0.1h-0.1h-0.5v5.6
			c0,0.4-0.4,0.8-0.8,0.8h-0.1l0,0c-0.1,0-0.2,0-0.2,0c-0.2-0.1-0.3-0.1-0.5-0.3l0,0l-0.1-0.1l0,0c0,0,0,0,0-0.1l0,0v-0.1l0,0v-0.1
			v-5.7h-1.2c-0.1,0-0.2,0-0.2-0.1l0,0c0,0-0.1,0-0.1-0.1l0,0c0,0,0,0-0.1-0.1l0,0c0,0,0,0,0-0.1c0,0,0,0,0-0.1c0,0,0,0,0-0.1V234
			l0,0v-0.1l0,0l0,0l0,0l0,0l0,0c0,0,0,0,0-0.1c0,0,0,0,0-0.1c0,0,0,0,0-0.1c0.2-0.6,0.7-2.1,1.2-3.4l0,0c0.4-1,0.7-1.9,0.7-1.9
			h-0.2l-1.6,4.5c-0.1,0.3-0.5,0.5-0.8,0.4c-0.4-0.1-0.6-0.4-0.5-0.8l1.6-4.6c0.5-1.8,1.9-1.7,1.9-1.7h2.5l0,0l0,0
			c0.1,0,0.8,0,1.4,0.7l0,0c0,0.1,0.1,0.1,0.1,0.2l0,0c0,0.1,0.1,0.1,0.1,0.2l0,0c0,0.1,0.1,0.2,0.1,0.2l0,0c0,0.1,0.1,0.2,0.1,0.3
			l1.6,4.6c0,0.1,0,0.2,0,0.3l1.5,2.9h1.6C450.6,235.7,450.7,235.8,450.7,235.9z M445.9,233.2l0.1-0.3c0-0.1-0.1-0.1-0.1-0.2
			l-1.5-4.5h-0.2L445.9,233.2z M445.1,236.3h-0.5c0,0.5,0,1.2,0,1.8c0.1,0.5,0.2,0.9,0.2,0.9s0.1,0,0.3,0V236.3z M445.2,234.7
			c-0.3,0-0.6,0-0.6,0s0,0.4,0,0.9h0.1L445.2,234.7z M446.6,236.3h-0.9v2.7c0.3,0,0.6,0,0.9,0V236.3z M448,236.3h-0.9v2.7
			c0.3,0,0.6,0,0.9,0V236.3z M448.2,235.7l-1.2-2.5c-0.1,0-0.1,0.1-0.2,0.1h-0.1l0,0h-0.1l0,0l0,0l-0.4,0.7v0.1
			c0.2,0.7-0.1,0.7-0.3,0.7c0,0,0,0-0.1,0l-0.4,0.9L448.2,235.7L448.2,235.7z M449.4,236.3h-0.8v2.7c0.1,0,0.2,0,0.2,0l0,0
			C448.9,239,449.4,236.6,449.4,236.3z"/>
	</g>
	<g>
		
			<linearGradient id="SVGID_15_" gradientUnits="userSpaceOnUse" x1="320.9382" y1="459.3976" x2="465.6624" y2="459.3976" gradientTransform="matrix(1 0 0 -1 0 614)">
			<stop  offset="0" style="stop-color:#5F89A3"/>
			<stop  offset="4.224508e-02" style="stop-color:#6F92AA"/>
			<stop  offset="0.179" style="stop-color:#9DB1C3"/>
			<stop  offset="0.3065" style="stop-color:#C3CED9"/>
			<stop  offset="0.421" style="stop-color:#E1E6EB"/>
			<stop  offset="0.5183" style="stop-color:#F5F6F8"/>
			<stop  offset="0.5869" style="stop-color:#FFFFFF"/>
			<stop  offset="0.664" style="stop-color:#F9FAFB"/>
			<stop  offset="0.7297" style="stop-color:#EDF0F2"/>
			<stop  offset="0.7914" style="stop-color:#DCE1E8"/>
			<stop  offset="0.8505" style="stop-color:#C4CFDA"/>
			<stop  offset="0.9078" style="stop-color:#A6BACA"/>
			<stop  offset="0.9631" style="stop-color:#85A3B8"/>
			<stop  offset="1" style="stop-color:#6B93AB"/>
		</linearGradient>
		<path class="st33" d="M392.2,165.9c-23.7,0-44-20.8-51.1-39.8v13.6c1,25.2,24.2,43.4,51.3,43.4c28.3,0,51.4-21.5,51.4-48.1
			c0-0.5,0-6.1,0-6.5C436.5,147.5,415.9,165.9,392.2,165.9z"/>
		<g class="st11">
			<path class="st34" d="M392.6,79.5c28.4,0,51.4,21.6,51.4,48.3c0,26.6-23,48.3-51.4,48.3c-28.4,0-51.4-21.6-51.4-48.3
				S364.1,79.5,392.6,79.5z"/>
		</g>
		<g class="st13">
			
				<linearGradient id="SVGID_16_" gradientUnits="userSpaceOnUse" x1="358.4751" y1="520.3055" x2="426.488" y2="452.2926" gradientTransform="matrix(1 0 0 -1 0 614)">
				<stop  offset="0.5" style="stop-color:#FFFFFF;stop-opacity:0"/>
				<stop  offset="0.5" style="stop-color:#FFFFFF"/>
			</linearGradient>
			<path class="st35" d="M392.6,79.5c28.4,0,51.4,21.6,51.4,48.3c0,26.6-23,48.3-51.4,48.3c-28.4,0-51.4-21.6-51.4-48.3
				S364.1,79.5,392.6,79.5z"/>
		</g>
	</g>
	<g class="st36">
		<g>
			<path class="st2" d="M464.4,463.8c0,0,0,0.4,0,1c0,0.7,0,1.7-0.1,3c-0.3,2.6-0.9,6.6-2.9,11.2c-2,4.6-5.5,9.8-10.9,14.4
				c-2.7,2.2-6,4.2-9.6,5.8c-3.6,1.5-7.8,2.5-12.2,2.8c-1.1,0.1-2.2,0.1-3.3,0.2c-1.1,0-2.2,0-3.3,0c-2.2,0-4.6,0-6.8,0
				c-4.7,0-9.4,0.1-14.4,0.1c-9.8,0.1-20.3,0.1-31,0.2c-21.5,0.1-44.5,0.1-67.3,0.2c-22.9,0-45.9,0-67.3-0.1
				c-10.7,0-21.2-0.1-31-0.1c-5,0-9.7,0-14.4-0.1c-2.3,0-4.7,0-6.9,0c-2.2-0.1-4.5-0.2-6.6-0.6c-1.1-0.2-2.1-0.3-3.1-0.6
				s-2-0.5-3-0.8c-1.9-0.7-3.9-1.3-5.7-2.2c-1.8-0.7-3.4-1.8-5.1-2.7c-0.8-0.5-1.5-1.1-2.2-1.6c-0.4-0.3-0.7-0.5-1.1-0.8
				c-0.3-0.3-0.7-0.6-1-0.9c-5.4-4.6-8.9-9.8-10.9-14.4c-2-4.7-2.5-8.6-2.9-11.2c-0.1-2.7-0.2-4.2-0.2-4.2s0.1,1.4,0.3,4.2
				c0.4,2.6,1.1,6.6,3.1,11.1c2,4.6,5.7,9.6,11,14c0.3,0.3,0.7,0.5,1,0.8c0.4,0.2,0.7,0.5,1.1,0.7c0.7,0.5,1.5,1,2.2,1.5
				c1.6,0.9,3.2,1.9,5.1,2.6c1.7,0.8,3.6,1.4,5.6,2c1,0.3,2,0.5,3,0.7c1,0.3,2,0.4,3.1,0.5c2,0.4,4.3,0.4,6.5,0.5c2.2,0,4.5,0,6.8,0
				c4.7,0,9.4-0.1,14.4-0.1c9.8-0.1,20.3-0.1,31-0.2c21.5-0.1,44.5-0.1,67.3-0.2c22.9,0,45.9,0,67.3,0.1c10.7,0,21.2,0.1,31,0.1
				c5,0,9.7,0,14.4,0.1c2.3,0,4.6,0,6.8,0c1.1,0,2.2,0,3.3,0c1.1,0,2.1-0.1,3.2-0.1c4.3-0.3,8.2-1.2,11.8-2.6
				c3.5-1.5,6.8-3.3,9.5-5.5c5.5-4.4,9-9.4,11-14c2.1-4.6,2.7-8.5,3.1-11.1c0.1-1.3,0.2-2.3,0.2-3
				C464.4,464.1,464.4,463.8,464.4,463.8z"/>
		</g>
	</g>
	<g>
		<g>
			<polyline class="st1" points="109.2,381.3 109.2,438 132.5,438 			"/>
			<g>
				<polygon class="st2" points="98.8,384.3 108.9,366.8 118.9,384.3 				"/>
			</g>
		</g>
	</g>
	<g>
		<g>
			<polyline class="st1" points="168.9,271.9 168.9,394.4 182.1,394.4 			"/>
			<g>
				<polygon class="st2" points="158.7,274.9 168.7,257.4 178.8,274.9 				"/>
			</g>
		</g>
	</g>
	<g>
		<g>
			<polyline class="st1" points="446.4,371.1 446.4,417.7 436.2,417.7 			"/>
			<g>
				<polygon class="st2" points="436.1,373.2 446.3,355.6 456.4,373.2 				"/>
			</g>
		</g>
	</g>
	<g>
		<g>
			<polyline class="st1" points="392.7,207.1 392.7,379.2 376.5,379.2 			"/>
			<g>
				<polygon class="st2" points="382.8,209.1 392.9,191.6 403,209.1 				"/>
			</g>
		</g>
	</g>
	<g>
		<g>
			<polyline class="st1" points="501,274.9 501,443 473.7,443 			"/>
			<g>
				<polygon class="st2" points="491.2,278 501.2,260.5 511.4,278 				"/>
			</g>
		</g>
	</g>
	<g class="st37">
		<path class="st2" d="M235.3,427.6h7.1v5h-7.1V447h-5.5v-34.9h14.5v5h-9V427.6z"/>
		<path class="st2" d="M246.5,420.5c0-5.6,2.9-8.8,8.3-8.8c5.4,0,8.3,3.2,8.3,8.8v18.1c0,5.6-2.9,8.8-8.3,8.8
			c-5.4,0-8.3-3.2-8.3-8.8V420.5z M251.9,439c0,2.5,1.1,3.4,2.8,3.4c1.7,0,2.8-0.9,2.8-3.4v-18.8c0-2.5-1.1-3.4-2.8-3.4
			c-1.7,0-2.8,0.9-2.8,3.4V439z"/>
		<path class="st2" d="M278.1,447c-0.3-0.9-0.5-1.4-0.5-4.3v-5.5c0-3.2-1.1-4.4-3.6-4.4h-1.9V447h-5.5v-34.9h8.3
			c5.7,0,8.1,2.6,8.1,8v2.7c0,3.6-1.1,5.9-3.6,7v0.1c2.7,1.1,3.6,3.7,3.6,7.4v5.4c0,1.7,0,2.9,0.6,4.2H278.1z M272.1,417.1v10.7h2.1
			c2,0,3.3-0.9,3.3-3.7v-3.4c0-2.5-0.8-3.6-2.8-3.6H272.1z"/>
		<path class="st2" d="M285.1,412.1H302v5h-5.7V447h-5.5v-29.9h-5.7V412.1z"/>
		<path class="st2" d="M309.6,412.1v26.9c0,2.5,1.1,3.4,2.8,3.4s2.8-0.9,2.8-3.4v-26.9h5.2v26.6c0,5.6-2.8,8.8-8.2,8.8
			c-5.4,0-8.2-3.2-8.2-8.8v-26.6H309.6z"/>
		<path class="st2" d="M329.2,421.8L329.2,421.8l-0.1,25.3h-4.9v-34.9h6.9l5.5,20.9h0.1v-20.9h4.9V447H336L329.2,421.8z"/>
		<path class="st2" d="M351,426.8h7.5v5H351V442h9.5v5h-15v-34.9h15v5H351V426.8z"/>
	</g>
	<g class="st37">
		<path class="st2" d="M308.1,461.2c3.1,0,3.8-1.5,4.4-3.2h2.7v25.5h-4V464h-3.1V461.2z"/>
		<path class="st2" d="M319.7,464.1c0-4.1,2.2-6.4,6.1-6.4s6.1,2.3,6.1,6.4v13.3c0,4.1-2.2,6.4-6.1,6.4s-6.1-2.3-6.1-6.4V464.1z
			 M323.7,477.6c0,1.8,0.8,2.5,2.1,2.5c1.3,0,2.1-0.7,2.1-2.5v-13.8c0-1.8-0.8-2.5-2.1-2.5c-1.3,0-2.1,0.7-2.1,2.5V477.6z"/>
		<path class="st2" d="M334.1,464.1c0-4.1,2.2-6.4,6.1-6.4s6.1,2.3,6.1,6.4v13.3c0,4.1-2.2,6.4-6.1,6.4s-6.1-2.3-6.1-6.4V464.1z
			 M338.1,477.6c0,1.8,0.8,2.5,2.1,2.5c1.3,0,2.1-0.7,2.1-2.5v-13.8c0-1.8-0.8-2.5-2.1-2.5c-1.3,0-2.1,0.7-2.1,2.5V477.6z"/>
		<path class="st2" d="M348.6,464.1c0-4.1,2.2-6.4,6.1-6.4s6.1,2.3,6.1,6.4v13.3c0,4.1-2.2,6.4-6.1,6.4s-6.1-2.3-6.1-6.4V464.1z
			 M352.6,477.6c0,1.8,0.8,2.5,2.1,2.5c1.3,0,2.1-0.7,2.1-2.5v-13.8c0-1.8-0.8-2.5-2.1-2.5c-1.3,0-2.1,0.7-2.1,2.5V477.6z"/>
	</g>
	<g>
		<g id="database_x5F_lock_12_">
			<path class="st2" d="M118.8,324.3c0.1,0.2,0.2,0.5,0.2,0.7v6.3c0,2.3-7,4.2-15.6,4.2s-15.6-1.8-15.6-4.2V325
				c0-0.2,0.1-0.5,0.2-0.7c4.3,2.6,13.2,2.7,15.4,2.7S114.5,326.9,118.8,324.3z M103.4,316.7c-2.2,0-11.1-0.2-15.4-2.7
				c-0.1,0.2-0.2,0.5-0.2,0.7v6.3c0,2.3,7,4.2,15.6,4.2s15.6-1.8,15.6-4.2v-6.3c0-0.2-0.1-0.5-0.2-0.7
				C114.5,316.5,105.6,316.7,103.4,316.7z M103.4,306.2c-2.2,0-11.1-0.2-15.4-2.7c-0.1,0.2-0.2,0.5-0.2,0.7v6.3
				c0,2.3,7,4.2,15.6,4.2s15.6-1.8,15.6-4.2v-6.3c0-0.2-0.1-0.5-0.2-0.7C114.5,306,105.6,306.2,103.4,306.2z M119,293.7v6.3
				c0,2.3-7,4.2-15.6,4.2s-15.6-1.8-15.6-4.2v-6.3c0-2.3,7-4.2,15.6-4.2S119,291.4,119,293.7z M110.1,292.7c0-0.7-3-1.3-6.7-1.3
				c-3.6,0-6.7,0.6-6.7,1.3s3,1.3,6.7,1.3C107.1,294,110.1,293.4,110.1,292.7z"/>
		</g>
		<g id="woman_6_">
			<path id="woman_7_" class="st2" d="M145.3,320.2c-0.7-0.4-5-1.7-7-2.7c0,0,0-1.7,0-2.3c2-0.1,3.7-1.3,4.5-2
				c0.7-0.7-0.6-1.4-1.6-2.6c-1-1.1-1.2-2.1-1.2-4.5c0-2.1-1.8-4.6-4.7-4.7c-2.8,0-4.7,2.4-4.7,4.7c0,2.3-0.2,3.3-1.2,4.5
				s-2.3,1.8-1.6,2.6c0.7,0.7,2.4,1.9,4.5,2c0,0.6,0,2.3,0,2.3c-2,1-6.2,2.3-7,2.7c-0.7,0.4-1.1,0.9-1.1,1.7v1.2
				c0,0.3,0.2,0.5,0.5,0.5h21.3c0.3,0,0.5-0.2,0.5-0.5v-1.2C146.4,321,146,320.5,145.3,320.2z"/>
		</g>
	</g>
	<g>
		<g id="database_x5F_lock_11_">
			<path class="st2" d="M510.4,212.8c0.1,0.2,0.2,0.5,0.2,0.7v6.3c0,2.3-7,4.2-15.6,4.2c-8.6,0-15.6-1.8-15.6-4.2v-6.3
				c0-0.2,0.1-0.5,0.2-0.7c4.3,2.6,13.2,2.7,15.4,2.7C497.2,215.5,506.1,215.4,510.4,212.8z M495,205.2c-2.2,0-11.1-0.2-15.4-2.7
				c-0.1,0.2-0.2,0.5-0.2,0.7v6.3c0,2.3,7,4.2,15.6,4.2s15.6-1.8,15.6-4.2v-6.4c0-0.2-0.1-0.5-0.2-0.7
				C506.1,205,497.2,205.2,495,205.2z M495,194.8c-2.2,0-11.1-0.2-15.4-2.7c-0.1,0.2-0.2,0.5-0.2,0.7v6.3c0,2.3,7,4.2,15.6,4.2
				s15.6-1.8,15.6-4.2v-6.3c0-0.2-0.1-0.5-0.2-0.7C506.1,194.5,497.2,194.8,495,194.8z M510.6,182.2v6.3c0,2.3-7,4.2-15.6,4.2
				s-15.6-1.8-15.6-4.2v-6.3c0-2.3,7-4.2,15.6-4.2S510.6,180,510.6,182.2z M501.7,181.2c0-0.7-3-1.3-6.7-1.3c-3.6,0-6.7,0.6-6.7,1.3
				s3,1.3,6.7,1.3C498.6,182.5,501.7,181.9,501.7,181.2z"/>
		</g>
		<g id="woman_4_">
			<path id="woman_5_" class="st2" d="M536.9,208.7c-0.7-0.4-5-1.7-7-2.7c0,0,0-1.7,0-2.3c2-0.1,3.7-1.3,4.5-2
				c0.7-0.7-0.6-1.4-1.6-2.6c-1-1.1-1.2-2.1-1.2-4.5c0-2.1-1.8-4.6-4.7-4.7c-2.8,0-4.7,2.4-4.7,4.7c0,2.3-0.2,3.3-1.2,4.5
				c-1,1.1-2.3,1.8-1.6,2.6c0.7,0.7,2.4,1.9,4.5,2c0,0.6,0,2.3,0,2.3c-2,1-6.2,2.3-7,2.7c-0.7,0.4-1.1,0.9-1.1,1.7v1.2
				c0,0.3,0.2,0.5,0.5,0.5h21.3c0.3,0,0.5-0.2,0.5-0.5v-1.2C538,209.6,537.6,209.1,536.9,208.7z"/>
		</g>
	</g>
	<g>
		<g id="database_x5F_lock_10_">
			<path class="st2" d="M447.8,327.6c0.1,0.2,0.2,0.3,0.2,0.5v4.7c0,1.7-5.2,3-11.5,3c-6.4,0-11.5-1.4-11.5-3v-4.7
				c0-0.2,0.1-0.3,0.2-0.5c3.1,1.9,9.7,2,11.4,2C438,329.6,444.5,329.5,447.8,327.6z M436.3,321.9c-1.6,0-8.2-0.1-11.4-2
				c-0.1,0.2-0.2,0.3-0.2,0.5v4.7c0,1.7,5.2,3,11.5,3s11.5-1.4,11.5-3v-4.7c0-0.2-0.1-0.3-0.2-0.5
				C444.5,321.8,438,321.9,436.3,321.9z M436.3,314.2c-1.6,0-8.2-0.1-11.4-2c-0.1,0.2-0.2,0.3-0.2,0.5v4.7c0,1.7,5.2,3,11.5,3
				s11.5-1.4,11.5-3v-4.7c0-0.2-0.1-0.3-0.2-0.5C444.5,314,438,314.2,436.3,314.2z M447.9,304.9v4.7c0,1.7-5.2,3-11.5,3
				s-11.5-1.4-11.5-3v-4.7c0-1.7,5.2-3,11.5-3S447.9,303.2,447.9,304.9z M441.3,304.1c0-0.5-2.2-1-5-1c-2.7,0-5,0.4-5,1
				c0,0.5,2.2,1,5,1C439.1,305.1,441.3,304.7,441.3,304.1z"/>
		</g>
		<g id="user_9_">
			<path id="user_10_" class="st2" d="M470.1,324c-0.5-0.3-4.1-2.3-5.9-3.1v-3.1c0.5-0.4,0.8-1,0.8-1.8v-2.4c0-2-1.2-3.7-3.7-3.7
				s-3.7,1.7-3.7,3.7c0,0,0,0.4,0,2.5c0,0.9,0.3,1.5,0.8,1.8v3.1c-1.7,0.7-5.3,2.8-5.9,3.1c-0.7,0.4-0.8,0.7-0.8,1.6
				c0,0.4,0,1.9,0,1.9c0,0.2,0.2,0.4,0.4,0.4h18.3c0.2,0,0.4-0.2,0.4-0.4c0,0,0-1.6,0-1.9C471,324.8,470.8,324.4,470.1,324z"/>
		</g>
	</g>
	<g>
		<g id="database_x5F_lock_9_">
			<path class="st2" d="M166.9,203.1c0.1,0.2,0.2,0.5,0.2,0.7v6.3c0,2.3-7,4.2-15.6,4.2c-8.6,0-15.6-1.8-15.6-4.2v-6.3
				c0-0.2,0.1-0.5,0.2-0.7c4.3,2.6,13.2,2.7,15.4,2.7C153.7,205.8,162.6,205.6,166.9,203.1z M151.5,195.4c-2.2,0-11.1-0.2-15.4-2.7
				c-0.1,0.2-0.2,0.5-0.2,0.7v6.3c0,2.3,7,4.2,15.6,4.2c8.6,0,15.6-1.8,15.6-4.2v-6.3c0-0.2-0.1-0.5-0.2-0.7
				C162.6,195.2,153.7,195.4,151.5,195.4z M151.5,184.9c-2.2,0-11.1-0.2-15.4-2.7c-0.1,0.2-0.2,0.5-0.2,0.7v6.3
				c0,2.3,7,4.2,15.6,4.2c8.6,0,15.6-1.8,15.6-4.2v-6.4c0-0.2-0.1-0.5-0.2-0.7C162.6,184.7,153.7,184.9,151.5,184.9z M167.2,172.5
				v6.3c0,2.3-7,4.2-15.6,4.2s-15.6-1.8-15.6-4.2v-6.3c0-2.3,7-4.2,15.6-4.2C160.2,168.2,167.2,170.1,167.2,172.5z M158.3,171.4
				c0-0.7-3-1.3-6.7-1.3c-3.7,0-6.7,0.6-6.7,1.3c0,0.7,3,1.3,6.7,1.3C155.3,172.8,158.3,172.2,158.3,171.4z"/>
		</g>
		<g id="parents_1_">
			<path class="st2" d="M194.6,197.5c-0.6-0.4-4.9-2.9-7.1-3.7v-3.8c0.6-0.5,1-1.2,1-2.2v-3c0-2.5-1.5-4.6-4.6-4.6
				c-3,0-4.6,2-4.6,4.6c0,0,0,0.5,0,3c0,1.1,0.4,1.8,1,2.2v3.8c-2,0.9-6.5,3.4-7.1,3.7c-0.8,0.5-1,0.9-1,1.9c0,0.4,0,2.4,0,2.4
				c0,0.3,0.2,0.5,0.5,0.5h22.3c0.3,0,0.5-0.2,0.5-0.5c0,0,0-1.9,0-2.4C195.7,198.4,195.5,197.9,194.6,197.5z M203.8,199.4
				c-0.6-0.4-3-1.5-5.1-2.4c0,0,0-1.4,0-2c2-0.1,3.3-1.1,3.9-1.8c0.6-0.6-0.5-1.2-1.3-2.2c-0.9-1-1-1.8-1-3.8c0-1.9-1.5-3.9-3.9-3.9
				s-4.1,2.1-4.1,3.9c0,2-0.2,2.8-1,3.8c-0.9,1-2,1.6-1.4,2.2c0.2,0.2,0.4,0.4,0.7,0.7c0.5,0.2,0.9,0.5,1.4,0.8
				c0.5,0.2,1,0.3,1.6,0.3c0,0.1,0,0.1,0,0.4c0.5,0.3,0.9,0.5,1.3,0.7c1.4,0.8,1.7,1.6,1.7,2.9v3.3h7.6c0.3,0,0.5-0.2,0.5-0.5v-1
				C204.8,200.1,204.4,199.7,203.8,199.4z"/>
		</g>
	</g>
	<g>
		<g>
			<g id="database_x5F_lock_6_">
				<path class="st2" d="M289.4,247.3c0.1,0.2,0.2,0.5,0.2,0.7v6.3c0,2.3-7,4.2-15.6,4.2c-8.6,0-15.6-1.8-15.6-4.2V248
					c0-0.2,0.1-0.5,0.2-0.7c4.3,2.6,13.2,2.7,15.4,2.7C276.3,250,285.2,249.9,289.4,247.3z M274,239.7c-2.2,0-11.1-0.2-15.4-2.7
					c-0.1,0.2-0.2,0.5-0.2,0.7v6.3c0,2.3,7,4.2,15.6,4.2c8.6,0,15.6-1.8,15.6-4.2v-6.3c0-0.2-0.1-0.5-0.2-0.7
					C285.2,239.5,276.3,239.7,274,239.7z M274,229.3c-2.2,0-11.1-0.2-15.4-2.7c-0.1,0.2-0.2,0.5-0.2,0.7v6.3c0,2.3,7,4.2,15.6,4.2
					c8.6,0,15.6-1.8,15.6-4.2v-6.3c0-0.2-0.1-0.5-0.2-0.7C285.2,229.1,276.3,229.3,274,229.3z M289.7,216.7v6.3
					c0,2.3-7,4.2-15.6,4.2c-8.6,0-15.6-1.8-15.6-4.2v-6.3c0-2.3,7-4.2,15.6-4.2C282.7,212.6,289.7,214.5,289.7,216.7z M280.8,215.7
					c0-0.7-3-1.3-6.7-1.3c-3.7,0-6.7,0.6-6.7,1.3s3,1.3,6.7,1.3C277.8,217,280.8,216.4,280.8,215.7z"/>
			</g>
			<g id="user_7_">
				<path id="user_8_" class="st2" d="M319.7,242.5c-0.7-0.4-5.5-3.2-7.9-4.2v-4.3c0.7-0.5,1.1-1.3,1.1-2.5v-3.3
					c0-2.8-1.7-5.1-5.1-5.1c-3.3,0-5.1,2.3-5.1,5.1c0,0,0,0.5,0,3.3c0,1.2,0.4,2,1.1,2.5v4.3c-2.3,1-7.2,3.7-7.9,4.2
					c-0.9,0.5-1.1,1-1.1,2.2c0,0.5,0,2.6,0,2.6c0,0.3,0.3,0.6,0.6,0.6h24.8c0.3,0,0.6-0.3,0.6-0.6c0,0,0-2.1,0-2.6
					C320.8,243.6,320.6,243.1,319.7,242.5z"/>
			</g>
		</g>
	</g>
	<g>
		<g id="database_x5F_lock_3_">
			<path class="st2" d="M397.3,139.3c0.1,0.2,0.2,0.5,0.2,0.7v6.3c0,2.3-7,4.2-15.6,4.2c-8.6,0-15.6-1.8-15.6-4.2V140
				c0-0.2,0.1-0.5,0.2-0.7c4.3,2.6,13.2,2.7,15.4,2.7C384.1,142,393,141.9,397.3,139.3z M381.9,131.7c-2.2,0-11.1-0.2-15.4-2.7
				c-0.1,0.2-0.2,0.5-0.2,0.7v6.3c0,2.3,7,4.2,15.6,4.2c8.6,0,15.6-1.8,15.6-4.2v-6.3c0-0.2-0.1-0.5-0.2-0.7
				C393,131.5,384.1,131.7,381.9,131.7z M381.9,121.2c-2.2,0-11.1-0.2-15.4-2.7c-0.1,0.2-0.2,0.5-0.2,0.7v6.3c0,2.3,7,4.2,15.6,4.2
				c8.6,0,15.6-1.8,15.6-4.2v-6.3c0-0.2-0.1-0.5-0.2-0.7C393,121,384.1,121.2,381.9,121.2z M397.6,108.7v6.3c0,2.3-7,4.2-15.6,4.2
				c-8.6,0-15.6-1.8-15.6-4.2v-6.3c0-2.3,7-4.2,15.6-4.2C390.6,104.5,397.6,106.5,397.6,108.7z M388.7,107.7c0-0.7-3-1.3-6.7-1.3
				c-3.6,0-6.7,0.6-6.7,1.3s3,1.3,6.7,1.3C385.6,109,388.7,108.5,388.7,107.7z"/>
		</g>
		<g id="user_5_">
			<path id="user_6_" class="st2" d="M427.5,134.5c-0.7-0.4-5.5-3.2-7.9-4.2v-4.3c0.7-0.5,1.1-1.3,1.1-2.5v-3.3
				c0-2.8-1.7-5.1-5.1-5.1c-3.3,0-5.1,2.3-5.1,5.1c0,0,0,0.5,0,3.3c0,1.2,0.4,2,1.1,2.5v4.3c-2.3,1-7.2,3.7-7.9,4.2
				c-0.9,0.5-1.1,1-1.1,2.2c0,0.5,0,2.6,0,2.6c0,0.3,0.3,0.6,0.6,0.6h24.8c0.3,0,0.6-0.3,0.6-0.6c0,0,0-2.1,0-2.6
				C428.6,135.5,428.4,135,427.5,134.5z"/>
		</g>
	</g>
	<g class="st13">
		
			<linearGradient id="SVGID_17_" gradientUnits="userSpaceOnUse" x1="211.1446" y1="243.1561" x2="379.8087" y2="74.4919" gradientTransform="matrix(1 0 0 -1 0 614)">
			<stop  offset="0.5" style="stop-color:#FFFFFF;stop-opacity:0"/>
			<stop  offset="0.5" style="stop-color:#FFFFFF"/>
		</linearGradient>
		<path class="st38" d="M258.3,345.3c19.9,0,37.3,10.2,46.7,25.3c6.4-5.2,14.2-8.2,22.5-8.2c16.7,0,31,12,36.8,29.2
			c4.3-1.4,9.1-2.2,14.2-2.2c6.5,0,13.4,1.2,20.2,3.6c17.9,6.6,29.8,20.2,29.8,32.8c20.6,0.9,36.9,17.5,36.9,37.9
			c0,21-17.3,37.9-38.7,37.9c-1.1,0-240.8,0.3-242.8,0.3c-23.2,0-42-17.5-42-39.3c0-17.3,11.9-32.1,28.5-37.4
			c3.3-15.5,17.2-27.4,34.2-29C204.4,368.1,228.5,345.3,258.3,345.3z"/>
	</g>
	<g>
		<circle class="st2" cx="294.1" cy="337" r="10.1"/>
		<g id="refresh_1_">
			<path class="st39" d="M289.8,338.4h-1.4c-0.4-1.6-0.1-3.4,0.9-4.9c1.8-2.5,5.4-3.2,8-1.5l0,0l0.7-1c0.1-0.1,0.2-0.1,0.2,0l0.9,3
				c0,0.1,0,0.2-0.2,0.2l-3.1,0.1c-0.1,0-0.2-0.1-0.1-0.2l0.7-1c-1.9-1.3-4.6-0.8-6,1.1C289.6,335.6,289.4,337.1,289.8,338.4
				L289.8,338.4z M299.7,335.6h-1.5c0.4,1.3,0.3,2.8-0.6,3.9c-1.4,1.9-3.9,2.4-6,1.1l0.7-1c0.1-0.1,0-0.2-0.1-0.2l-3.1,0.1
				c-0.1,0-0.2,0.1-0.2,0.2l0.9,3c0,0.1,0.1,0.1,0.2,0l0.7-1l0,0c2.6,1.7,6.2,1.1,8-1.5C299.8,339,300.2,337.2,299.7,335.6z"/>
		</g>
	</g>
	<g>
		<circle class="st2" cx="501.6" cy="379.6" r="10.1"/>
		<g id="refresh_4_">
			<path class="st39" d="M497.3,381.2h-1.4c-0.4-1.6-0.1-3.4,0.9-4.9c1.8-2.5,5.4-3.2,8-1.5l0,0l0.7-1c0.1-0.1,0.2-0.1,0.2,0l0.9,3
				c0,0.1,0,0.2-0.2,0.2l-3.1,0.1c-0.1,0-0.2-0.1-0.1-0.2l0.7-1c-1.9-1.3-4.6-0.8-6,1.1C497.1,378.3,496.9,379.8,497.3,381.2
				L497.3,381.2z M507.2,378.2h-1.5c0.4,1.3,0.3,2.8-0.6,3.9c-1.4,1.9-3.9,2.4-6,1.1l0.7-1c0.1-0.1,0-0.2-0.1-0.2l-3.1,0.1
				c-0.1,0-0.2,0.1-0.2,0.2l0.9,3c0,0.1,0.1,0.1,0.2,0l0.7-1l0,0c2.6,1.7,6.2,1.1,8-1.5C507.3,381.7,507.6,379.8,507.2,378.2z"/>
		</g>
	</g>
	<g>
		<circle class="st2" cx="168.5" cy="365.7" r="10.1"/>
		<g id="ok_x5F_2_1_">
			<path class="st39" d="M174.4,362.6c0.1,0.1,0.1,0.3,0,0.4l-7.4,7.4c-0.1,0.1-0.3,0.1-0.4,0l-1.6-1.6c-0.1-0.1-0.3-0.3-0.4-0.4
				l-2-2c-0.1-0.1-0.1-0.3,0-0.4l1.6-1.6c0.1-0.1,0.3-0.1,0.4,0l2,2c0.1,0.1,0.3,0.1,0.4,0l5.4-5.4c0.1-0.1,0.3-0.1,0.4,0
				L174.4,362.6z"/>
		</g>
	</g>
	<g id="Layer_5">
	</g>
</g>
</svg>
