<?xml version="1.0" encoding="utf-8"?>
<!-- Generator: Adobe Illustrator 21.0.2, SVG Export Plug-In . SVG Version: 6.00 Build 0)  -->
<svg version="1.1" id="Layer_1" xmlns="http://www.w3.org/2000/svg" xmlns:xlink="http://www.w3.org/1999/xlink" x="0px" y="0px"
	 viewBox="0 0 220 231.1" style="enable-background:new 0 0 220 231.1;" xml:space="preserve">
<style type="text/css">
	.st0{enable-background:new    ;}
	.st1{fill:#9E9E9E;}
	.st2{fill:#666666;}
	.st3{fill:#00AEEF;}
	.st4{fill:#E2E2E2;}
	.st5{fill:#FFFFFF;}
	.st6{fill:none;}
</style>
<title>5</title>
<g>
	<g class="st0">
		<path class="st1" d="M36.1,223h-8.3v-1.2l4.2-4.7c0.8-0.8,1.3-1.5,1.5-2s0.4-1,0.4-1.5c0-0.6-0.2-1.2-0.6-1.6
			c-0.4-0.4-0.9-0.7-1.5-0.7c-0.9,0-1.5,0.2-2,0.7s-0.6,1.1-0.6,1.9h-1.7l0-0.1c0-1.1,0.3-2,1.1-2.8s1.8-1.1,3.2-1.1
			c1.1,0,2.1,0.3,2.7,1s1,1.5,1,2.6c0,0.7-0.2,1.4-0.6,2.1s-1,1.5-1.7,2.3l-3.4,3.7l0,0h6.2V223z"/>
		<path class="st1" d="M46.1,218.1c0,1.6-0.4,2.9-1.1,3.8c-0.7,0.9-1.7,1.3-3,1.3s-2.3-0.4-3-1.3s-1.1-2.1-1.1-3.8v-3
			c0-1.6,0.4-2.9,1.1-3.8c0.7-0.9,1.7-1.3,3-1.3c1.3,0,2.3,0.4,3,1.3c0.7,0.9,1.1,2.1,1.1,3.8V218.1z M44.3,214.7
			c0-1.1-0.2-1.9-0.6-2.5c-0.4-0.6-1-0.8-1.7-0.8s-1.3,0.3-1.7,0.8c-0.4,0.6-0.6,1.4-0.6,2.5v3.8c0,1.1,0.2,1.9,0.6,2.5
			c0.4,0.6,1,0.8,1.7,0.8s1.3-0.3,1.7-0.8c0.4-0.6,0.6-1.4,0.6-2.5V214.7z"/>
		<path class="st1" d="M53.1,223h-1.7v-11.1l-2.6,0v-1.2l4.4-0.5V223z"/>
		<path class="st1" d="M58.7,217.2l0.7-7h6.4v1.5h-4.9l-0.4,3.6c0.3-0.2,0.6-0.4,0.9-0.5c0.3-0.1,0.7-0.2,1.1-0.2
			c1.2,0,2.1,0.4,2.8,1.2s1,1.8,1,3.1c0,1.3-0.3,2.3-1,3.1s-1.7,1.2-3,1.2c-1.1,0-2-0.3-2.7-0.9s-1.1-1.5-1-2.6l0-0.1h1.6
			c0,0.7,0.2,1.2,0.6,1.6s0.9,0.6,1.6,0.6c0.7,0,1.3-0.3,1.7-0.8c0.4-0.5,0.6-1.2,0.6-2.1c0-0.8-0.2-1.5-0.6-2
			c-0.4-0.5-1-0.8-1.7-0.8c-0.7,0-1.2,0.1-1.5,0.3s-0.5,0.5-0.7,0.9L58.7,217.2z"/>
	</g>
	<g class="st0">
		<path class="st2" d="M99,223h-8.3v-1.2l4.2-4.7c0.8-0.8,1.3-1.5,1.5-2s0.4-1,0.4-1.5c0-0.6-0.2-1.2-0.6-1.6
			c-0.4-0.4-0.9-0.7-1.5-0.7c-0.9,0-1.5,0.2-2,0.7s-0.6,1.1-0.6,1.9h-1.7l0-0.1c0-1.1,0.3-2,1.1-2.8s1.8-1.1,3.2-1.1
			c1.1,0,2.1,0.3,2.7,1s1,1.5,1,2.6c0,0.7-0.2,1.4-0.6,2.1s-1,1.5-1.7,2.3l-3.4,3.7l0,0H99V223z"/>
		<path class="st2" d="M109,218.1c0,1.6-0.4,2.9-1.1,3.8c-0.7,0.9-1.7,1.3-3,1.3s-2.3-0.4-3-1.3s-1.1-2.1-1.1-3.8v-3
			c0-1.6,0.4-2.9,1.1-3.8c0.7-0.9,1.7-1.3,3-1.3c1.3,0,2.3,0.4,3,1.3c0.7,0.9,1.1,2.1,1.1,3.8V218.1z M107.2,214.7
			c0-1.1-0.2-1.9-0.6-2.5c-0.4-0.6-1-0.8-1.7-0.8s-1.3,0.3-1.7,0.8c-0.4,0.6-0.6,1.4-0.6,2.5v3.8c0,1.1,0.2,1.9,0.6,2.5
			c0.4,0.6,1,0.8,1.7,0.8s1.3-0.3,1.7-0.8c0.4-0.6,0.6-1.4,0.6-2.5V214.7z"/>
		<path class="st2" d="M116,223h-1.7v-11.1l-2.6,0v-1.2l4.4-0.5V223z"/>
		<path class="st2" d="M126,210c0.4,0,0.9,0,1.3,0.1s0.8,0.2,1.1,0.4l-0.4,1.3c-0.3-0.1-0.6-0.3-0.9-0.4s-0.7-0.1-1.1-0.1
			c-0.9,0-1.7,0.4-2.2,1.1s-0.8,1.7-0.8,2.9v0.2c0.4-0.3,0.8-0.6,1.3-0.8c0.5-0.2,1-0.3,1.6-0.3c1.1,0,2.1,0.4,2.7,1.2
			c0.7,0.8,1,1.8,1,3c0,1.3-0.4,2.4-1.1,3.2c-0.7,0.8-1.7,1.3-2.9,1.3c-1.3,0-2.3-0.5-3.1-1.4s-1.2-2.2-1.2-3.8v-2.4
			c0-1.6,0.5-3,1.4-4S124.7,210,126,210z M125.5,215.8c-0.6,0-1.1,0.1-1.5,0.4c-0.4,0.2-0.7,0.6-0.9,1v1c0,1.2,0.2,2.1,0.7,2.7
			s1.1,1,1.9,1c0.7,0,1.3-0.3,1.7-0.9s0.6-1.3,0.6-2.2c0-0.8-0.2-1.5-0.6-2.1S126.2,215.8,125.5,215.8z"/>
	</g>
	<g class="st0">
		<path class="st3" d="M161.9,223h-8.3v-1.2l4.2-4.7c0.8-0.8,1.3-1.5,1.5-2s0.4-1,0.4-1.5c0-0.6-0.2-1.2-0.6-1.6
			c-0.4-0.4-0.9-0.7-1.5-0.7c-0.9,0-1.5,0.2-2,0.7s-0.6,1.1-0.6,1.9h-1.7l0-0.1c0-1.1,0.3-2,1.1-2.8s1.8-1.1,3.2-1.1
			c1.1,0,2.1,0.3,2.7,1s1,1.5,1,2.6c0,0.7-0.2,1.4-0.6,2.1s-1,1.5-1.7,2.3l-3.4,3.7l0,0h6.2V223z"/>
		<path class="st3" d="M171.9,218.1c0,1.6-0.4,2.9-1.1,3.8c-0.7,0.9-1.7,1.3-3,1.3s-2.3-0.4-3-1.3s-1.1-2.1-1.1-3.8v-3
			c0-1.6,0.4-2.9,1.1-3.8c0.7-0.9,1.7-1.3,3-1.3c1.3,0,2.3,0.4,3,1.3c0.7,0.9,1.1,2.1,1.1,3.8V218.1z M170.2,214.7
			c0-1.1-0.2-1.9-0.6-2.5c-0.4-0.6-1-0.8-1.7-0.8s-1.3,0.3-1.7,0.8c-0.4,0.6-0.6,1.4-0.6,2.5v3.8c0,1.1,0.2,1.9,0.6,2.5
			c0.4,0.6,1,0.8,1.7,0.8s1.3-0.3,1.7-0.8c0.4-0.6,0.6-1.4,0.6-2.5V214.7z"/>
		<path class="st3" d="M178.9,223h-1.7v-11.1l-2.6,0v-1.2l4.4-0.5V223z"/>
		<path class="st3" d="M192.4,211.6c-1.5,1.8-2.6,3.5-3.1,4.9s-0.9,3.1-1.2,5.2l-0.1,1.4h-1.7l0.1-1.4c0.2-2,0.7-3.8,1.4-5.4
			s1.7-3.1,2.9-4.6h-7v-1.4h8.7V211.6z"/>
	</g>
</g>
<g>
	<path class="st4" d="M110,188.3c-52,0-94.2-42.2-94.2-94.2S57.9,0,110,0s94.2,42.2,94.2,94.2l0,0
		C204.1,146.1,161.9,188.3,110,188.3z M110,5C60.7,5,20.8,44.9,20.8,94.2s39.9,89.2,89.2,89.2s89.2-39.9,89.2-89.2l0,0
		C199.1,44.9,159.2,5.1,110,5L110,5z"/>
	<path class="st4" d="M110,179.4c-47.1,0-85.2-38.2-85.2-85.2S62.9,9,110,9s85.2,38.1,85.2,85.2l0,0
		C195.1,141.2,157,179.3,110,179.4z M110,14c-44.3,0-80.2,35.9-80.2,80.2s35.9,80.2,80.2,80.2s80.2-35.9,80.2-80.2l0,0
		C190.1,49.9,154.2,14,110,14z"/>
	<path class="st4" d="M110,170.1c-41.9,0-75.9-34-75.9-75.9s34-75.9,75.9-75.9s75.9,34,75.9,75.9C185.8,136.1,151.9,170,110,170.1z
		 M110,23.2c-39.2,0-71,31.8-71,70.9S70.7,165,109.9,165s70.9-31.7,70.9-70.9C180.8,55,149.1,23.3,110,23.2L110,23.2z"/>
	<path class="st3" d="M151.4,177.8l-6.2-3.6c-0.1-1.9-1.7-3.5-3.6-3.5h-19.4c-2,0-3.6,1.6-3.6,3.6l0,0v6.9c0,2,1.6,3.6,3.6,3.6l0,0
		h19.4c1.9,0,3.5-1.5,3.6-3.5L151.4,177.8z"/>
	<path class="st5" d="M128.8,178.9h1.1v1.2h-1.1v1.9h-1.4v-1.9h-3.6v-0.9l3.7-5.8h1.5L128.8,178.9z M125.1,178.9h2.3v-3.5l0,0
		l-0.1,0.3L125.1,178.9z"/>
	<path class="st5" d="M132.5,177.1h1c0.4,0,0.7-0.1,1-0.3c0.2-0.3,0.3-0.6,0.3-1s-0.1-0.7-0.3-1c-0.3-0.3-0.6-0.4-1-0.3
		c-0.3,0-0.7,0.1-0.9,0.3c-0.2,0.2-0.4,0.5-0.4,0.9h-1.4l0,0c0-0.6,0.2-1.2,0.7-1.6c0.5-0.5,1.2-0.7,1.9-0.7c0.7,0,1.4,0.2,2,0.6
		c0.5,0.5,0.8,1.1,0.7,1.8c0,0.4-0.1,0.7-0.3,1.1c-0.2,0.3-0.6,0.6-0.9,0.8c0.4,0.1,0.8,0.4,1.1,0.8c0.2,0.4,0.3,0.8,0.3,1.2
		c0,0.7-0.3,1.4-0.8,1.8c-1.2,0.8-2.8,0.8-4,0c-0.5-0.4-0.8-1.1-0.8-1.7l0,0h1.4c0,0.3,0.1,0.7,0.4,0.9c0.3,0.2,0.6,0.4,1,0.4
		c0.4,0,0.7-0.1,1-0.4c0.3-0.3,0.4-0.6,0.4-1s-0.1-0.8-0.4-1.1c-0.3-0.3-0.7-0.4-1.1-0.3h-1L132.5,177.1z"/>
	<path class="st5" d="M137.3,178.5c0-0.5,0.4-0.9,0.9-0.9s0.9,0.4,0.9,0.9l0,0v0.2c0,0.5-0.3,0.9-0.8,0.9h-0.1
		c-0.2,0-0.5-0.1-0.7-0.3c-0.2-0.2-0.2-0.4-0.2-0.6C137.3,178.7,137.3,178.5,137.3,178.5z M137.8,178.7c0,0.1,0,0.2,0.1,0.3
		c0.1,0.1,0.2,0.1,0.3,0.1c0.1,0,0.2,0,0.3-0.1s0.1-0.2,0.1-0.3v-0.2c0-0.1,0-0.2-0.1-0.3c-0.2-0.2-0.4-0.2-0.6,0l0,0
		c-0.1,0.1-0.1,0.2-0.1,0.3C137.8,178.5,137.8,178.7,137.8,178.7z M138.4,181.6l-0.4-0.2l2.1-3.3l0.4,0.2L138.4,181.6z M139.4,180.9
		c0-0.5,0.4-0.9,0.9-0.9s0.9,0.4,0.9,0.9v0.2c0,0.5-0.3,0.9-0.8,0.9h-0.1c-0.2,0-0.5-0.1-0.7-0.3s-0.2-0.4-0.2-0.6
		C139.4,181.1,139.4,180.9,139.4,180.9z M139.9,181.1c0,0.1,0,0.2,0.1,0.3s0.2,0.1,0.3,0.1c0.1,0,0.2,0,0.3-0.1s0.1-0.2,0.1-0.3
		v-0.2c0-0.1,0-0.2-0.1-0.3c-0.2-0.2-0.4-0.2-0.6,0l0,0c-0.1,0.1-0.1,0.2-0.1,0.3L139.9,181.1z"/>
	<path class="st6" d="M110,14L110,14c-44.3,0-80.2,35.9-80.2,80.2s35.9,80.2,80.2,80.2s80.2-35.9,80.2-80.2c0-1.7-0.1-3.3-0.2-5
		l-0.8,0.2l0.8-0.2C187.3,46.9,152.3,14,110,14z"/>
	<path class="st2" d="M190,89.1l4.9-1.5C191.5,43.3,154.5,9,110,9v5C152.3,14,187.3,46.9,190,89.1z"/>
	<path class="st2" d="M189,89.1l-6.2-3.6c-0.1-1.9-1.7-3.5-3.6-3.5h-19.4c-2,0-3.6,1.6-3.6,3.6l0,0v6.8c0,2,1.6,3.6,3.6,3.6l0,0
		h19.4c1.9,0,3.5-1.5,3.6-3.5L189,89.1z"/>
	<path class="st5" d="M167.3,93.3h-5.6v-1l2.8-3c0.4-0.4,0.7-0.8,0.9-1.2c0.2-0.3,0.3-0.6,0.3-0.9c0-0.4-0.1-0.7-0.3-1
		s-0.6-0.4-0.9-0.4c-0.4,0-0.8,0.1-1.1,0.4s-0.4,0.7-0.4,1.2h-1.4l0,0c0-0.7,0.2-1.4,0.7-1.9c0.6-0.5,1.3-0.8,2.1-0.8
		c0.7,0,1.4,0.2,1.9,0.7s0.7,1.1,0.7,1.8c0,0.5-0.1,1-0.4,1.4c-0.4,0.6-0.8,1.1-1.3,1.6l-1.9,2l0,0h3.8L167.3,93.3z"/>
	<path class="st5" d="M173.3,90.3h1.1v1.1h-1.1v1.9h-1.5v-1.9h-3.7v-0.9l3.6-5.8h1.5L173.3,90.3z M169.5,90.3h2.3v-3.5l0,0l-0.2,0.3
		L169.5,90.3z"/>
	<path class="st5" d="M174.9,89.8c0-0.5,0.4-0.9,0.9-0.9s0.9,0.4,0.9,0.9V90c0,0.5-0.3,0.9-0.8,0.9h-0.1c-0.2,0-0.5-0.1-0.7-0.3
		c-0.2-0.2-0.2-0.4-0.2-0.6L174.9,89.8L174.9,89.8z M175.4,90.1c0,0.1,0,0.2,0.1,0.3c0.1,0.1,0.2,0.1,0.3,0.1s0.2,0,0.3-0.1
		s0.1-0.2,0.1-0.3v-0.2c0-0.1,0-0.2-0.1-0.3c-0.2-0.2-0.4-0.2-0.6,0l0,0c-0.1,0.1-0.1,0.2-0.1,0.3V90.1z M176,93l-0.4-0.2l2.1-3.3
		l0.4,0.2L176,93z M177,92.2c0-0.5,0.4-0.9,0.9-0.9s0.9,0.4,0.9,0.9l0,0v0.2c0,0.5-0.3,0.9-0.8,0.9h-0.1c-0.2,0-0.5-0.1-0.7-0.3
		c-0.2-0.2-0.2-0.4-0.2-0.6L177,92.2L177,92.2z M177.5,92.5c0,0.1,0,0.2,0.1,0.3c0.1,0.1,0.2,0.1,0.3,0.1s0.2,0,0.3-0.1
		s0.1-0.2,0.1-0.3v-0.2c0-0.1,0-0.2-0.1-0.3c-0.2-0.2-0.4-0.2-0.6,0l0,0c-0.1,0.1-0.1,0.2-0.1,0.3V92.5z"/>
	<path class="st1" d="M136.9,34.3l-6.2-3.6c-0.1-1.9-1.7-3.5-3.6-3.5h-19.4c-2,0-3.6,1.6-3.6,3.6v6.8c0,2,1.6,3.6,3.6,3.6h19.4
		c1.9,0,3.5-1.5,3.6-3.5L136.9,34.3z"/>
	<path class="st5" d="M113.1,38.5h-1.4l-0.2-7.2h-1.7v-1l3.2-0.4L113.1,38.5z"/>
	<path class="st5" d="M121.9,35.1c0.1,0.9-0.2,1.8-0.7,2.5c-1.1,1.2-2.8,1.2-4,0.2l-0.1-0.1c-0.6-0.7-0.9-1.6-0.8-2.5v-2
		c-0.1-0.9,0.2-1.8,0.7-2.5c1-1.2,2.8-1.2,4-0.2l0.1,0.1c0.6,0.7,0.9,1.6,0.8,2.5V35.1z M120.4,32.9c0-0.5-0.1-1.1-0.4-1.5
		c-0.5-0.6-1.3-0.6-1.8-0.2c-0.1,0.1-0.1,0.1-0.2,0.2c-0.3,0.5-0.4,1-0.3,1.6l0.1,2.4c0,0.5,0.1,1.1,0.4,1.5c0.2,0.3,0.6,0.5,1,0.5
		s0.8-0.2,1-0.5c0.3-0.5,0.4-1,0.3-1.6L120.4,32.9z"/>
	<path class="st5" d="M122.8,34.8c0-0.5,0.4-0.9,0.9-0.9s0.9,0.4,0.9,0.9V35c0,0.2-0.1,0.5-0.2,0.6c-0.2,0.2-0.4,0.3-0.7,0.3
		c-0.2,0-0.5-0.1-0.7-0.2c-0.2-0.2-0.3-0.4-0.3-0.6L122.8,34.8z M123.3,35c0,0.1,0,0.2,0.1,0.3s0.2,0.1,0.3,0.1
		c0.1,0,0.2-0.1,0.3-0.1c0.1-0.1,0.1-0.2,0.1-0.3v-0.2c0-0.1,0-0.2-0.1-0.3c-0.2-0.2-0.4-0.2-0.6,0l0,0c-0.1,0.1-0.1,0.2-0.1,0.3
		C123.3,34.8,123.3,35,123.3,35z M123.9,37.9l-0.4-0.2l2-3.4l0.4,0.2L123.9,37.9z M124.9,37.2c0-0.5,0.4-0.9,1-0.9
		c0.2,0,0.4,0.1,0.6,0.2c0.2,0.2,0.3,0.4,0.3,0.6v0.2c0,0.5-0.3,0.9-0.8,0.9h-0.1c-0.2,0-0.5-0.1-0.7-0.2c-0.2-0.2-0.3-0.4-0.3-0.6
		V37.2z M125.4,37.4c0,0.1,0,0.2,0.1,0.3s0.2,0.1,0.3,0.1c0.1,0,0.2,0,0.3-0.1c0.1-0.1,0.1-0.2,0.1-0.3v-0.2c0-0.1,0-0.2-0.1-0.3
		s-0.2-0.1-0.3-0.1c-0.1,0-0.2,0-0.3,0.1c-0.1,0.1-0.1,0.2-0.1,0.3V37.4z"/>
	<path class="st3" d="M204.1,94.2C204,42.2,161.9,0.1,109.9,0h-0.3v5h0.3c49.2,0,89.2,39.9,89.2,89.1c0,33.4-18.6,64-48.3,79.3
		l2.7,4.2C184.6,161.4,204.1,129.2,204.1,94.2z"/>
	<path class="st1" d="M110,23.3c9.8,0,19.5,2,28.5,6l3.8-3.8c-10.1-4.8-21.1-7.2-32.3-7.2h-0.3v5H110z"/>
</g>
</svg>
