<?xml version="1.0" encoding="utf-8"?>
<!-- Generator: Adobe Illustrator 21.0.2, SVG Export Plug-In . SVG Version: 6.00 Build 0)  -->
<svg version="1.1" id="Layer_1" xmlns="http://www.w3.org/2000/svg" xmlns:xlink="http://www.w3.org/1999/xlink" x="0px" y="0px"
	 viewBox="0 0 220 231.1" style="enable-background:new 0 0 220 231.1;" xml:space="preserve">
<style type="text/css">
	.st0{fill:#E2E2E2;}
	.st1{fill:#00AEEF;}
	.st2{fill:#FFFFFF;}
	.st3{fill:none;}
	.st4{fill:#666666;}
	.st5{fill:#9E9E9E;}
	.st6{enable-background:new    ;}
</style>
<title>4</title>
<g>
	<path class="st0" d="M110,188.3c-52,0-94.2-42.2-94.2-94.2S57.9,0,110,0s94.2,42.2,94.2,94.2l0,0
		C204.1,146.1,161.9,188.3,110,188.3z M110,5C60.7,5,20.8,44.9,20.8,94.2s39.9,89.2,89.2,89.2s89.2-39.9,89.2-89.2l0,0
		C199.1,44.9,159.2,5.1,110,5L110,5z"/>
	<path class="st0" d="M110,179.4c-47.1,0-85.2-38.2-85.2-85.2S62.9,9,110,9s85.2,38.1,85.2,85.2l0,0
		C195.1,141.2,157,179.3,110,179.4z M110,14c-44.3,0-80.2,35.9-80.2,80.2s35.9,80.2,80.2,80.2s80.2-35.9,80.2-80.2l0,0
		C190.1,49.9,154.2,14,110,14z"/>
	<path class="st0" d="M110,170.1c-41.9,0-75.9-34-75.9-75.9s34-75.9,75.9-75.9s75.9,34,75.9,75.9C185.8,136.1,151.9,170,110,170.1z
		 M110,23.2c-39.2,0-71,31.8-71,70.9S70.7,165,109.9,165s70.9-31.7,70.9-70.9C180.8,55,149.1,23.3,110,23.2L110,23.2z"/>
	<path class="st1" d="M135.8,184.9l-6.2-3.6c-0.1-1.9-1.7-3.5-3.6-3.5h-19.4c-2,0-3.6,1.6-3.6,3.6l0,0v6.9c0,2,1.6,3.6,3.6,3.6l0,0
		H126c1.9,0,3.5-1.5,3.6-3.5L135.8,184.9z"/>
	<path class="st2" d="M113.2,186h1.1v1.1h-1.1v1.9h-1.4v-1.9h-3.7v-0.9l3.7-5.8h1.5L113.2,186z M109.5,186h2.3v-3.5l0,0l-0.1,0.3
		L109.5,186z"/>
	<path class="st2" d="M115.5,185.2l0.5-4.7h4.5v1.2h-3.3l-0.3,2.1c0.2-0.1,0.4-0.2,0.6-0.3s0.5-0.1,0.8-0.1c0.7,0,1.4,0.2,1.9,0.8
		s0.7,1.4,0.7,2.1c0,0.7-0.2,1.5-0.7,2.1s-1.3,0.9-2.1,0.8c-0.7,0-1.4-0.2-1.9-0.6c-0.5-0.4-0.8-1.1-0.8-1.8l0,0h1.3
		c0,0.4,0.1,0.7,0.4,1c0.3,0.2,0.6,0.4,0.9,0.3c0.4,0,0.8-0.2,1-0.5c0.2-0.4,0.4-0.8,0.3-1.2c0-0.4-0.1-0.9-0.4-1.3
		c-0.2-0.3-0.6-0.5-1-0.5c-0.3,0-0.6,0-0.9,0.2c-0.2,0.1-0.3,0.3-0.4,0.6L115.5,185.2z"/>
	<path class="st2" d="M121.7,185.6c0-0.5,0.4-0.9,0.9-0.9s0.9,0.4,0.9,0.9v0.2c0,0.5-0.3,0.9-0.8,0.9h-0.1c-0.2,0-0.5-0.1-0.7-0.3
		s-0.2-0.4-0.2-0.6C121.7,185.8,121.7,185.6,121.7,185.6z M122.2,185.8c0,0.1,0,0.2,0.1,0.3s0.2,0.1,0.3,0.1c0.1,0,0.2,0,0.3-0.1
		c0.1-0.1,0.1-0.2,0.1-0.3v-0.2c0-0.1,0-0.2-0.1-0.3c-0.2-0.2-0.4-0.2-0.6,0l0,0c-0.1,0.1-0.1,0.2-0.1,0.3
		C122.2,185.6,122.2,185.8,122.2,185.8z M122.7,188.7l-0.4-0.2l2.1-3.3l0.4,0.2L122.7,188.7z M123.7,188c0-0.5,0.4-0.9,0.9-0.9
		s0.9,0.4,0.9,0.9l0,0v0.2c0,0.5-0.3,0.9-0.8,0.9h-0.1c-0.2,0-0.5-0.1-0.7-0.3s-0.2-0.4-0.2-0.6C123.7,188.2,123.7,188,123.7,188z
		 M124.2,188.2c0,0.1,0,0.2,0.1,0.3s0.2,0.1,0.3,0.1c0.1,0,0.2,0,0.3-0.1c0.1-0.1,0.1-0.2,0.1-0.3V188c0-0.1,0-0.2-0.1-0.3
		c-0.2-0.2-0.4-0.2-0.6,0l0,0c-0.1,0.1-0.1,0.2-0.1,0.3L124.2,188.2z"/>
	<path class="st3" d="M29.7,94.2c0,44.3,35.8,80.2,80.1,80.2c23.4,0,45.7-10.2,60.9-28l-1.5-1.3l1.5,1.3
		c28.9-33.5,25.1-84.1-8.4-113C147.8,20.8,129.2,13.9,110,14l0,0C65.7,14,29.8,49.9,29.7,94.2z"/>
	<path class="st4" d="M110,9v5c44.3,0,80.2,35.8,80.2,80.1c0,19.2-6.9,37.8-19.4,52.4l3.7,3.3c30.7-35.6,26.7-89.4-8.9-120.1
		C150.1,16.3,130.4,8.9,110,9z"/>
	<path class="st4" d="M172.2,149.1l-6.2-3.6c-0.1-1.9-1.7-3.5-3.6-3.5H143c-2,0-3.6,1.6-3.6,3.6l0,0v6.9c0,2,1.6,3.6,3.6,3.6l0,0
		h19.4c1.9,0,3.5-1.5,3.6-3.5L172.2,149.1z"/>
	<path class="st2" d="M146.4,148.3h1c0.4,0,0.7-0.1,1-0.3c0.2-0.3,0.3-0.6,0.3-1s-0.1-0.7-0.3-1c-0.3-0.3-0.6-0.4-1-0.3
		c-0.3,0-0.7,0.1-0.9,0.3s-0.4,0.5-0.4,0.9h-1.4l0,0c0-0.6,0.2-1.2,0.7-1.6c0.5-0.5,1.2-0.7,1.9-0.7s1.4,0.2,2,0.6
		c0.5,0.5,0.8,1.1,0.7,1.8c0,0.4-0.1,0.7-0.3,1.1c-0.2,0.3-0.6,0.6-0.9,0.8c0.4,0.1,0.8,0.4,1.1,0.8c0.2,0.4,0.3,0.8,0.3,1.2
		c0,0.7-0.3,1.4-0.8,1.8c-1.2,0.8-2.8,0.8-4,0c-0.5-0.4-0.8-1.1-0.8-1.7l0,0h1.4c0,0.3,0.1,0.7,0.4,0.9c0.3,0.2,0.6,0.4,1,0.4
		s0.7-0.1,1-0.4c0.3-0.3,0.4-0.6,0.4-1s-0.1-0.8-0.4-1.1c-0.3-0.3-0.7-0.4-1.1-0.3h-1L146.4,148.3z"/>
	<path class="st2" d="M157,146.9c0,0.4-0.1,0.8-0.3,1.1c-0.3,0.3-0.6,0.6-1,0.8c0.4,0.2,0.8,0.4,1.1,0.8c0.3,0.4,0.4,0.8,0.4,1.2
		c0,0.7-0.3,1.4-0.8,1.8c-1.2,0.8-2.9,0.8-4.1,0c-0.5-0.4-0.8-1.1-0.8-1.8c0-0.4,0.1-0.9,0.4-1.2c0.3-0.4,0.7-0.7,1.1-0.8
		c-0.4-0.1-0.7-0.4-1-0.8c-0.2-0.3-0.4-0.7-0.4-1.1c0-0.7,0.2-1.3,0.7-1.8c1.1-0.8,2.7-0.8,3.8,0C156.7,145.6,157,146.2,157,146.9z
		 M155.8,150.8c0-0.4-0.1-0.7-0.4-1c-0.3-0.3-0.6-0.4-1-0.4c-0.7,0-1.4,0.5-1.4,1.3v0.1c0,0.4,0.1,0.7,0.4,1c0.3,0.2,0.6,0.4,1,0.4
		s0.7-0.1,1-0.4C155.6,151.5,155.8,151.2,155.8,150.8L155.8,150.8z M155.6,147c0-0.3-0.1-0.7-0.3-0.9c-0.5-0.5-1.3-0.5-1.7,0
		c-0.2,0.3-0.3,0.6-0.3,0.9c0,0.3,0.1,0.7,0.3,0.9s0.5,0.4,0.9,0.4c0.3,0,0.6-0.1,0.9-0.4C155.5,147.6,155.6,147.3,155.6,147
		L155.6,147z"/>
	<path class="st2" d="M158.1,149.8c0-0.5,0.4-0.9,0.9-0.9s0.9,0.4,0.9,0.9v0.2c0,0.5-0.3,0.9-0.8,0.9H159c-0.2,0-0.5-0.1-0.7-0.3
		s-0.2-0.4-0.2-0.6L158.1,149.8L158.1,149.8z M158.6,150c0,0.1,0,0.2,0.1,0.3s0.2,0.1,0.3,0.1s0.2,0,0.3-0.1s0.1-0.2,0.1-0.3v-0.2
		c0-0.1,0-0.2-0.1-0.3c-0.2-0.2-0.4-0.2-0.6,0l0,0c-0.1,0.1-0.1,0.2-0.1,0.3V150z M159.1,152.9l-0.4-0.2l2.1-3.3l0.4,0.2
		L159.1,152.9z M160.1,152.1c0-0.5,0.4-0.9,0.9-0.9s0.9,0.4,0.9,0.9l0,0v0.2c0,0.5-0.3,0.9-0.8,0.9H161c-0.2,0-0.5-0.1-0.7-0.3
		s-0.2-0.4-0.2-0.6L160.1,152.1L160.1,152.1z M160.6,152.4c0,0.1,0,0.2,0.1,0.3s0.2,0.1,0.3,0.1s0.2,0,0.3-0.1s0.1-0.2,0.1-0.3v-0.2
		c0-0.1,0-0.2-0.1-0.3c-0.2-0.2-0.4-0.2-0.6,0l0,0c-0.1,0.1-0.1,0.2-0.1,0.3V152.4z"/>
	<path class="st5" d="M158.9,45.3l-6.2-3.5c-0.1-1.9-1.7-3.5-3.6-3.5h-19.4c-2,0-3.6,1.6-3.6,3.6v6.8c0,2,1.6,3.6,3.6,3.6h19.4
		c1.9,0,3.5-1.5,3.6-3.5L158.9,45.3z"/>
	<path class="st2" d="M137.2,49.5l-5.7,0.1v-1l2.7-3.1c0.3-0.4,0.7-0.8,0.9-1.2c0.2-0.3,0.2-0.6,0.2-0.9c0-0.4-0.1-0.7-0.4-1
		c-0.2-0.3-0.6-0.4-0.9-0.4c-0.4,0-0.8,0.1-1.1,0.5c-0.3,0.3-0.4,0.8-0.3,1.2h-1.4l0,0c-0.1-0.7,0.2-1.4,0.7-1.9
		c0.6-0.5,1.3-0.8,2.1-0.8c0.7-0.1,1.4,0.2,2,0.6c0.5,0.5,0.8,1.1,0.8,1.8c0,0.5-0.1,1-0.4,1.4c-0.4,0.6-0.8,1.1-1.2,1.7l-1.9,2l0,0
		l3.8-0.1L137.2,49.5z"/>
	<path class="st2" d="M143.1,46.3h1.1v1.1h-1.1v1.9h-1.4v-1.9l-3.7,0.1l-0.1-0.9l3.5-5.8h1.5L143.1,46.3z M139.4,46.4h2.3l-0.1-3.5
		l0,0l-0.1,0.3L139.4,46.4z"/>
	<path class="st2" d="M144.8,45.9c0-0.5,0.4-0.9,0.9-0.9s0.9,0.4,0.9,0.9v0.2c0,0.2-0.1,0.5-0.2,0.6c-0.2,0.2-0.4,0.3-0.6,0.3
		c-0.2,0-0.5-0.1-0.7-0.2c-0.2-0.2-0.3-0.4-0.3-0.6L144.8,45.9z M145.3,46.1c0,0.1,0,0.2,0.1,0.3s0.2,0.1,0.3,0.1s0.2-0.1,0.3-0.1
		c0.1-0.1,0.1-0.2,0.1-0.3v-0.2c0-0.1,0-0.2-0.1-0.3c-0.2-0.2-0.4-0.2-0.6,0l0,0c-0.1,0.1-0.1,0.2-0.1,0.3V46.1z M145.9,49l-0.4-0.2
		l2-3.4l0.4,0.2L145.9,49z M146.9,48.3c0-0.5,0.4-0.9,1-0.9c0.2,0,0.4,0.1,0.6,0.2c0.2,0.2,0.3,0.4,0.3,0.6v0.2
		c0,0.5-0.3,0.9-0.8,0.9h-0.1c-0.2,0-0.5-0.1-0.7-0.2c-0.2-0.2-0.3-0.4-0.3-0.6V48.3z M147.4,48.5c0,0.1,0,0.2,0.1,0.3
		s0.2,0.1,0.3,0.1s0.2,0,0.3-0.1s0.1-0.2,0.1-0.3v-0.2c0-0.1,0-0.2-0.1-0.3s-0.2-0.1-0.3-0.1s-0.2,0-0.3,0.1s-0.1,0.2-0.1,0.3V48.5z
		"/>
	<path class="st1" d="M110,0l-1.3,0.1v5h1.3c49.2,0,89.2,39.9,89.2,89.2c0,39.1-25.4,73.6-62.8,85.2l1.7,4.7
		c49.6-15.6,77.2-68.4,61.6-118C187.4,26.8,151.1,0.1,110,0L110,0z"/>
	<path class="st5" d="M110,23.1c17.8,0.1,35,6.9,48,19.1l2.9-4.1c-13.9-12.8-32-19.9-50.9-20c-0.4,0-0.8,0-1.3,0v5
		C109.1,23.1,109.6,23.1,110,23.1z"/>
</g>
<path class="st3" d="M-82.3,97.2"/>
<g>
	<g class="st6">
		<path class="st5" d="M36.1,223h-8.3v-1.2l4.2-4.7c0.8-0.8,1.3-1.5,1.5-2s0.4-1,0.4-1.5c0-0.6-0.2-1.2-0.6-1.6
			c-0.4-0.4-0.9-0.7-1.5-0.7c-0.9,0-1.5,0.2-2,0.7s-0.6,1.1-0.6,1.9h-1.7l0-0.1c0-1.1,0.3-2,1.1-2.8s1.8-1.1,3.2-1.1
			c1.1,0,2.1,0.3,2.7,1s1,1.5,1,2.6c0,0.7-0.2,1.4-0.6,2.1s-1,1.5-1.7,2.3l-3.4,3.7l0,0h6.2V223z"/>
		<path class="st5" d="M46.1,218.1c0,1.6-0.4,2.9-1.1,3.8c-0.7,0.9-1.7,1.3-3,1.3s-2.3-0.4-3-1.3s-1.1-2.1-1.1-3.8v-3
			c0-1.6,0.4-2.9,1.1-3.8c0.7-0.9,1.7-1.3,3-1.3c1.3,0,2.3,0.4,3,1.3c0.7,0.9,1.1,2.1,1.1,3.8V218.1z M44.3,214.7
			c0-1.1-0.2-1.9-0.6-2.5c-0.4-0.6-1-0.8-1.7-0.8s-1.3,0.3-1.7,0.8c-0.4,0.6-0.6,1.4-0.6,2.5v3.8c0,1.1,0.2,1.9,0.6,2.5
			c0.4,0.6,1,0.8,1.7,0.8s1.3-0.3,1.7-0.8c0.4-0.6,0.6-1.4,0.6-2.5V214.7z"/>
		<path class="st5" d="M53.1,223h-1.7v-11.1l-2.6,0v-1.2l4.4-0.5V223z"/>
		<path class="st5" d="M58.7,217.2l0.7-7h6.4v1.5h-4.9l-0.4,3.6c0.3-0.2,0.6-0.4,0.9-0.5c0.3-0.1,0.7-0.2,1.1-0.2
			c1.2,0,2.1,0.4,2.8,1.2s1,1.8,1,3.1c0,1.3-0.3,2.3-1,3.1s-1.7,1.2-3,1.2c-1.1,0-2-0.3-2.7-0.9s-1.1-1.5-1-2.6l0-0.1h1.6
			c0,0.7,0.2,1.2,0.6,1.6s0.9,0.6,1.6,0.6c0.7,0,1.3-0.3,1.7-0.8c0.4-0.5,0.6-1.2,0.6-2.1c0-0.8-0.2-1.5-0.6-2
			c-0.4-0.5-1-0.8-1.7-0.8c-0.7,0-1.2,0.1-1.5,0.3s-0.5,0.5-0.7,0.9L58.7,217.2z"/>
	</g>
	<g class="st6">
		<path class="st4" d="M99,223h-8.3v-1.2l4.2-4.7c0.8-0.8,1.3-1.5,1.5-2s0.4-1,0.4-1.5c0-0.6-0.2-1.2-0.6-1.6
			c-0.4-0.4-0.9-0.7-1.5-0.7c-0.9,0-1.5,0.2-2,0.7s-0.6,1.1-0.6,1.9h-1.7l0-0.1c0-1.1,0.3-2,1.1-2.8s1.8-1.1,3.2-1.1
			c1.1,0,2.1,0.3,2.7,1s1,1.5,1,2.6c0,0.7-0.2,1.4-0.6,2.1s-1,1.5-1.7,2.3l-3.4,3.7l0,0H99V223z"/>
		<path class="st4" d="M109,218.1c0,1.6-0.4,2.9-1.1,3.8c-0.7,0.9-1.7,1.3-3,1.3s-2.3-0.4-3-1.3s-1.1-2.1-1.1-3.8v-3
			c0-1.6,0.4-2.9,1.1-3.8c0.7-0.9,1.7-1.3,3-1.3c1.3,0,2.3,0.4,3,1.3c0.7,0.9,1.1,2.1,1.1,3.8V218.1z M107.2,214.7
			c0-1.1-0.2-1.9-0.6-2.5c-0.4-0.6-1-0.8-1.7-0.8s-1.3,0.3-1.7,0.8c-0.4,0.6-0.6,1.4-0.6,2.5v3.8c0,1.1,0.2,1.9,0.6,2.5
			c0.4,0.6,1,0.8,1.7,0.8s1.3-0.3,1.7-0.8c0.4-0.6,0.6-1.4,0.6-2.5V214.7z"/>
		<path class="st4" d="M116,223h-1.7v-11.1l-2.6,0v-1.2l4.4-0.5V223z"/>
		<path class="st4" d="M126,210c0.4,0,0.9,0,1.3,0.1s0.8,0.2,1.1,0.4l-0.4,1.3c-0.3-0.1-0.6-0.3-0.9-0.4s-0.7-0.1-1.1-0.1
			c-0.9,0-1.7,0.4-2.2,1.1s-0.8,1.7-0.8,2.9v0.2c0.4-0.3,0.8-0.6,1.3-0.8c0.5-0.2,1-0.3,1.6-0.3c1.1,0,2.1,0.4,2.7,1.2
			c0.7,0.8,1,1.8,1,3c0,1.3-0.4,2.4-1.1,3.2c-0.7,0.8-1.7,1.3-2.9,1.3c-1.3,0-2.3-0.5-3.1-1.4s-1.2-2.2-1.2-3.8v-2.4
			c0-1.6,0.5-3,1.4-4S124.7,210,126,210z M125.5,215.8c-0.6,0-1.1,0.1-1.5,0.4c-0.4,0.2-0.7,0.6-0.9,1v1c0,1.2,0.2,2.1,0.7,2.7
			s1.1,1,1.9,1c0.7,0,1.3-0.3,1.7-0.9s0.6-1.3,0.6-2.2c0-0.8-0.2-1.5-0.6-2.1S126.2,215.8,125.5,215.8z"/>
	</g>
	<g class="st6">
		<path class="st1" d="M161.9,223h-8.3v-1.2l4.2-4.7c0.8-0.8,1.3-1.5,1.5-2s0.4-1,0.4-1.5c0-0.6-0.2-1.2-0.6-1.6
			c-0.4-0.4-0.9-0.7-1.5-0.7c-0.9,0-1.5,0.2-2,0.7s-0.6,1.1-0.6,1.9h-1.7l0-0.1c0-1.1,0.3-2,1.1-2.8s1.8-1.1,3.2-1.1
			c1.1,0,2.1,0.3,2.7,1s1,1.5,1,2.6c0,0.7-0.2,1.4-0.6,2.1s-1,1.5-1.7,2.3l-3.4,3.7l0,0h6.2V223z"/>
		<path class="st1" d="M171.9,218.1c0,1.6-0.4,2.9-1.1,3.8c-0.7,0.9-1.7,1.3-3,1.3s-2.3-0.4-3-1.3s-1.1-2.1-1.1-3.8v-3
			c0-1.6,0.4-2.9,1.1-3.8c0.7-0.9,1.7-1.3,3-1.3c1.3,0,2.3,0.4,3,1.3c0.7,0.9,1.1,2.1,1.1,3.8V218.1z M170.2,214.7
			c0-1.1-0.2-1.9-0.6-2.5c-0.4-0.6-1-0.8-1.7-0.8s-1.3,0.3-1.7,0.8c-0.4,0.6-0.6,1.4-0.6,2.5v3.8c0,1.1,0.2,1.9,0.6,2.5
			c0.4,0.6,1,0.8,1.7,0.8s1.3-0.3,1.7-0.8c0.4-0.6,0.6-1.4,0.6-2.5V214.7z"/>
		<path class="st1" d="M178.9,223h-1.7v-11.1l-2.6,0v-1.2l4.4-0.5V223z"/>
		<path class="st1" d="M192.4,211.6c-1.5,1.8-2.6,3.5-3.1,4.9s-0.9,3.1-1.2,5.2l-0.1,1.4h-1.7l0.1-1.4c0.2-2,0.7-3.8,1.4-5.4
			s1.7-3.1,2.9-4.6h-7v-1.4h8.7V211.6z"/>
	</g>
</g>
</svg>
