<?xml version="1.0" encoding="utf-8"?>
<!-- Generator: Adobe Illustrator 21.1.0, SVG Export Plug-In . SVG Version: 6.00 Build 0)  -->
<svg version="1.1" xmlns="http://www.w3.org/2000/svg" xmlns:xlink="http://www.w3.org/1999/xlink" x="0px" y="0px"
	 viewBox="0 0 74 74" style="enable-background:new 0 0 74 74;" xml:space="preserve">
<style type="text/css">
	.st0{fill:none;stroke:#006FAF;stroke-width:2;stroke-miterlimit:10;}
	.st1{fill:#006FAF;stroke:#006FAF;stroke-miterlimit:10;}
	.st2{fill:#006FAF;}
	.st3{fill:#006FAF;stroke:#006FAF;stroke-width:0.75;stroke-miterlimit:10;}
	.st4{fill:none;stroke:#006FAF;stroke-width:1.5;stroke-miterlimit:10;}
	.st5{fill:none;stroke:#006FAF;stroke-miterlimit:10;}
	.st6{fill:#006FAF;stroke:#006FAF;stroke-width:0.5;stroke-miterlimit:10;}
	.st7{fill:#006FAF;stroke:#006FAF;stroke-width:1.5;stroke-miterlimit:10;}
	.st8{fill:none;stroke:#006FAF;stroke-width:0.75;stroke-miterlimit:10;}
</style>
<g id="independent-sales-organizations">
	<g id="Layer_13">
	</g>
</g>
<g id="payment-gateways">
</g>
<g id="acquirers">
	<circle class="st0" cx="37.7" cy="37" r="36"/>
	<g>
		<path class="st2" d="M57.6,29.3L38,19.6c-0.2-0.1-0.4-0.1-0.6,0l-19.6,9.8c-0.3,0.1-0.4,0.5-0.3,0.7c0.1,0.3,0.3,0.5,0.7,0.5h4V50
			h-1.5c-0.4,0-0.7,0.3-0.7,0.7c0,0.4,0.3,0.7,0.7,0.7h34.3c0.4,0,0.7-0.3,0.7-0.7c0-0.4-0.3-0.7-0.7-0.7h-1.5V30.6h4
			c0.3,0,0.6-0.2,0.7-0.5S57.9,29.5,57.6,29.3z M23.4,30.6h2V50h-2V30.6z M48.7,30.6V50h-8.6V30.6H48.7z M38.7,49.9h-2V30.6h2V49.9z
			 M35.3,49.9h-8.6V30.6h8.6V49.9z M52,49.9h-2V30.6h2V49.9z M21,29.3l16.7-8.3l16.7,8.3H21z M55.5,53.9c0,0.4-0.3,0.7-0.7,0.7H20.5
			c-0.4,0-0.7-0.3-0.7-0.7c0-0.4,0.3-0.7,0.7-0.7h34.3C55.2,53.2,55.5,53.4,55.5,53.9z M35.1,25.7c0,1.4,1.2,2.6,2.6,2.6
			c1.4,0,2.6-1.2,2.6-2.6s-1.2-2.6-2.6-2.6C36.3,23.2,35.1,24.3,35.1,25.7z M38.8,25.7c0,0.7-0.5,1.2-1.2,1.2
			c-0.7,0-1.2-0.5-1.2-1.2s0.5-1.2,1.2-1.2C38.3,24.5,38.8,25.1,38.8,25.7z"/>
	</g>
</g>
<g id="merchants">
</g>
<g id="processors-payment-transfers">
</g>
<g id="technology-providers">
</g>
<g id="mobile-payment-providers">
</g>
<g id="alternate-payment-providers">
</g>
<g id="white-label-payment-gateway">
</g>
<g id="deep-financial-services">
</g>
</svg>
