<?xml version="1.0" encoding="utf-8"?>
<!-- Generator: Adobe Illustrator 21.0.2, SVG Export Plug-In . SVG Version: 6.00 Build 0)  -->
<svg version="1.1" id="Layer_1" xmlns="http://www.w3.org/2000/svg" xmlns:xlink="http://www.w3.org/1999/xlink" x="0px" y="0px"
	 viewBox="0 0 74 74" style="enable-background:new 0 0 74 74;" xml:space="preserve">
<style type="text/css">
	.st0{fill:none;stroke:#006FAF;stroke-width:2;stroke-miterlimit:10;}
	.st1{fill:#006FAF;}
	.st2{fill:none;stroke:#006FAF;stroke-width:1.5;stroke-miterlimit:10;}
</style>
<circle class="st0" cx="37" cy="37" r="36"/>
<g>
	<g>
		<path class="st1" d="M53,27.7c0-3.3-2.4-5.8-5.8-5.8h-0.7v1.7h0.1c0.1,0,0.3,0,0.4,0c0.5,0,1,0,1.7,0.2c1.7,0.6,2.6,2,2.6,3.9
			v10.7v4.6c0,0.6,0,0.6,0,1.2c0,1.4,0,5.5,0,7c0,1.1-0.3,2.1-1.1,2.9c-0.8,0.8-1.9,1.2-3,1.2c-2.7,0-5.5,0-9,0H26.8
			c-2.4,0-4.1-1.7-4.1-4.1c0-7.2,0-14.8,0-23c0-0.6,0-1.3,0.2-1.9c0.5-1.6,1.7-2.5,3.2-2.7c0.3-0.1,0.8-0.1,1.3-0.1h0.1v-1.7h-1
			c-0.4,0-0.8,0.1-1.2,0.1c-2.6,0.6-4.3,2.8-4.3,5.5v12.3c0,3.1,0,8.3,0,11.5c0,0.5,0.1,1,0.2,1.6c0.5,2.1,2.4,4.1,5.4,4.1l0,0h0.1
			c0.8,0,1.7,0,2.7,0c0.7,0,1.4,0,2.1,0s1.4,0,2.1,0h1.2h6.1c1.9,0,4.4,0,6.9,0c2.6,0,5-2.3,5.2-4.9c0.1-1.3,0.1-2.7,0.1-4v-3.7
			C53,36.5,53,33.6,53,27.7z"/>
		<path class="st1" d="M43.4,20.7c-1,0-1.9-0.2-2.7-0.9c-0.5-0.5-0.8-1-1.2-1.7c-0.4-0.8-1-1.2-1.9-1.2c-0.4,0-0.9,0-1.3,0
			c-0.8,0-1.4,0.3-1.7,1c-0.2,0.3-0.3,0.6-0.6,0.9c-0.5,0.9-1.3,1.4-2.3,1.7c-0.6,0.1-1.2,0.1-1.7,0.1s-0.8,0.3-0.8,0.8
			c0,0.6,0,1.5,0,2.1c0,0.8,0.2,1,1,1H44c0.6,0,0.9-0.3,0.9-0.9c0-0.5,0-1.2,0-1.7C44.8,20.8,44.7,20.7,43.4,20.7z M43.1,22.9H30.8
			v-0.6c0.3,0,0.8,0,1.2-0.1c1.4-0.3,2.7-1.2,3.4-2.5c0.1-0.1,0.1-0.3,0.2-0.4c0.1-0.1,0.2-0.3,0.3-0.5c0.1-0.1,0.1-0.1,0.3-0.1
			c0.1,0,0.2,0,0.3,0h0.6c0.1,0,0.3,0,0.4,0c0.1,0,0.3,0,0.5,0.3l0.1,0.1c0.3,0.6,0.8,1.3,1.4,1.9c0.9,0.9,2.1,1.4,3.6,1.4
			L43.1,22.9L43.1,22.9z"/>
	</g>
	<g>
		<polyline class="st2" points="28.7,38.3 31.9,38.3 33.7,33.9 37,41.8 39.7,31.5 42.3,38.2 45,38.2 		"/>
		<line class="st0" x1="28.8" y1="46.2" x2="45.3" y2="46.2"/>
		<line class="st0" x1="28.8" y1="49.5" x2="45.3" y2="49.5"/>
	</g>
</g>
</svg>
