<?xml version="1.0" encoding="utf-8"?>
<!-- Generator: Adobe Illustrator 21.0.2, SVG Export Plug-In . SVG Version: 6.00 Build 0)  -->
<svg version="1.1" id="Layer_1" xmlns="http://www.w3.org/2000/svg" xmlns:xlink="http://www.w3.org/1999/xlink" x="0px" y="0px"
	 viewBox="0 0 74 74" style="enable-background:new 0 0 74 74;" xml:space="preserve">
<style type="text/css">
	.st0{fill:#006FAF;}
</style>
<title>health-checks</title>
<path class="st0" d="M37,74C16.6,74,0,57.4,0,37S16.6,0,37,0s37,16.6,37,37S57.4,74,37,74z M37,2C17.7,2,2,17.7,2,37s15.7,35,35,35
	s35-15.7,35-35S56.3,2,37,2z"/>
<g>
	<path class="st0" d="M52.2,43.2l-7.6,2.7c0-0.7,0-0.3,0-0.6c0-1.3-1-2.3-2.3-2.3h-5.1c-1.5-1.4-3.9-2-5.7-2c-0.2,0-6.9,0-6.9,0v8.9
		l1.9,0.7l11.2,4.1L55.5,48L52.2,43.2z M25.9,49v-6.6h5.5c1.5,0,3.6,0.6,4.8,1.6l0.4,0.4h5.6c0.5,0,1,0.4,1,0.9v1.1h-8.1
		c-0.3,0-0.7,0.3-0.7,0.7c0,0.4,0.3,0.7,0.7,0.7H44c0.2-0.3,7.7-2.9,7.7-2.9l1.7,2.5l-15.8,5.8L25.9,49z"/>
	<path class="st0" d="M25,39.3h-5.3c-0.6,0-1.2,0.3-1.2,0.8V51c0,0.5,0.6,1.2,1.2,1.2H25c0.6,0,0.9-0.6,0.9-1.2V40.1
		C25.9,39.6,25.6,39.3,25,39.3z M24.6,50.8h-4.7V40.7h4.7V50.8z"/>
	<path class="st0" d="M51.9,27.8h-0.7c-0.2-0.7-0.5-1.4-0.8-2l0.5-0.6c0.6-0.6,0.6-1.7-0.1-2.4l-1-1c-0.7-0.7-1.7-0.7-2.4-0.1
		l-0.6,0.5c-0.6-0.3-1.3-0.6-2-0.8v-0.7c0-0.9-0.7-1.3-1.6-1.3h-1.4c-1,0-2,0.4-2,1.3v0.7c-0.7,0.2-1.2,0.5-1.8,0.8l-0.4-0.5
		c-0.6-0.6-1.7-0.6-2.3,0.1l-1,1c-0.7,0.7-0.7,1.7-0.1,2.4l0.5,0.7c-0.3,0.6-0.6,1.4-0.8,2h-0.7c-0.9,0-1.9,0.5-1.9,1.5v1.4
		c0,1,1,1.9,1.9,1.9h0.7c0.2,0.7,0.5,1.3,0.8,1.9l-0.5,0.5c-0.6,0.6-0.6,1.7,0.1,2.4l1,1c0.7,0.7,1.7,0.7,2.4,0.1l0.4-0.5
		c0.6,0.3,1.1,0.6,1.8,0.8v0.7c0,0.9,1.1,1.7,2,1.7h1.4c1,0,1.6-0.8,1.6-1.7v-0.7c0.7-0.2,1.4-0.5,2-0.8l0.6,0.5
		c0.6,0.6,1.7,0.6,2.4-0.1l1-1c0.7-0.7,0.7-1.7,0.1-2.4l-0.5-0.5c0.3-0.6,0.6-1.2,0.8-1.9h0.7c0.9,0,1.5-0.9,1.5-1.9v-1.4
		C53.3,28.3,52.8,27.8,51.9,27.8z M52,30.7c0,0.2,0,0.5-0.1,0.5h-1.8l-0.3,0.9c-0.2,0.6-0.4,1.1-0.7,1.6l-0.5,0.9l1.3,1.2
		c0.1,0.1,0.1,0.3-0.1,0.5l-1,1c-0.1,0.1-0.2,0.1-0.3,0.1c-0.1,0-0.1,0-0.2-0.1l-1.3-1.3l-0.9,0.5c-0.5,0.3-1.1,0.5-1.7,0.7l-1,0.3
		v1.8c0,0.1-0.1,0.3-0.3,0.3h-1.4c-0.2,0-0.7-0.2-0.7-0.3v-1.8l-0.8-0.3c-0.6-0.2-1-0.4-1.5-0.7l-0.9-0.5l-1.2,1.3
		c0,0-0.1,0.1-0.1,0.1c-0.1,0-0.2,0-0.3-0.1l-1-1c-0.2-0.2-0.2-0.4-0.1-0.5l1.3-1.3l-0.5-0.9c-0.3-0.5-0.5-1-0.7-1.6L35,31.2h-1.8
		c-0.1,0-0.5-0.3-0.5-0.5v-1.4c0-0.2,0.4-0.1,0.5-0.1H35l0.3-1.1c0.2-0.6,0.4-1.2,0.7-1.7l0.5-0.9l-1.3-1.3
		c-0.1-0.1-0.1-0.3,0.1-0.5l1-1c0.1-0.1,0.2-0.1,0.3-0.1c0.1,0,0.1,0,0.2,0.1l1.3,1.2l0.9-0.5c0.5-0.3,0.9-0.5,1.5-0.7l0.8-0.3v-1.8
		c0-0.1,0.5,0.1,0.7,0.1h1.4c0.2,0,0.3-0.2,0.3-0.1v1.8l1,0.3c0.6,0.2,1.1,0.4,1.7,0.7l0.9,0.5l1.3-1.2c0,0,0.1-0.1,0.2-0.1
		c0.1,0,0.2,0,0.3,0.1l1,1c0.1,0.1,0.1,0.2,0.1,0.3c0,0.1,0,0.1-0.1,0.2l-1.3,1.3l0.5,0.9c0.3,0.5,0.5,1.2,0.7,1.8l0.3,1.1h1.8
		c0.1,0,0.1-0.1,0.1,0.1V30.7z"/>
	<g>
		<path class="st0" d="M37.8,33.1h-1v-5.8h1V33.1z"/>
		<path class="st0" d="M42.3,31.6c0-0.2-0.1-0.4-0.3-0.6c-0.2-0.2-0.5-0.3-1-0.4c-0.7-0.2-1.2-0.4-1.5-0.7c-0.4-0.3-0.5-0.7-0.5-1.1
			c0-0.5,0.2-0.9,0.6-1.2s0.9-0.5,1.5-0.5c0.6,0,1.2,0.2,1.5,0.5c0.4,0.3,0.6,0.8,0.6,1.2l0,0h-0.9c0-0.3-0.1-0.5-0.3-0.7
			S41.5,28,41.1,28c-0.4,0-0.6,0.1-0.8,0.2c-0.2,0.2-0.3,0.4-0.3,0.6c0,0.2,0.1,0.4,0.3,0.6c0.2,0.1,0.6,0.3,1,0.4
			c0.6,0.2,1.1,0.4,1.4,0.7c0.3,0.3,0.5,0.7,0.5,1.1c0,0.5-0.2,0.9-0.6,1.2c-0.4,0.3-0.9,0.4-1.5,0.4c-0.6,0-1.1-0.2-1.6-0.5
			s-0.7-0.8-0.7-1.3l0,0h0.9c0,0.4,0.1,0.6,0.4,0.8c0.2,0.2,0.6,0.3,1,0.3c0.4,0,0.6-0.1,0.8-0.2C42.2,32.1,42.3,31.9,42.3,31.6z"/>
		<path class="st0" d="M46.2,31.6l0.1,0.4h0l0.1-0.4l1.4-4.3h1l-2.1,5.8h-0.9l-2.1-5.8h1L46.2,31.6z"/>
	</g>
</g>
</svg>
