<?xml version="1.0" encoding="utf-8"?>
<!-- Generator: Adobe Illustrator 21.0.2, SVG Export Plug-In . SVG Version: 6.00 Build 0)  -->
<svg version="1.1" id="Layer_1" xmlns="http://www.w3.org/2000/svg" xmlns:xlink="http://www.w3.org/1999/xlink" x="0px" y="0px"
	 viewBox="0 0 74 74" style="enable-background:new 0 0 74 74;" xml:space="preserve">
<style type="text/css">
	.st0{fill:#006FAF;}
</style>
<title>health-checks</title>
<path class="st0" d="M37,74C16.6,74,0,57.4,0,37S16.6,0,37,0s37,16.6,37,37S57.4,74,37,74z M37,2C17.7,2,2,17.7,2,37s15.7,35,35,35
	s35-15.7,35-35S56.3,2,37,2z"/>
<g>
	<g>
		<path class="st0" d="M47.9,39.9c-3.7,0-6.7,2.4-7.7,5.8l-2.6-2.5l0-3.4h7.5v-7.4c0-3.4-2.7-5.2-4.7-5.9c0.9-0.9,1.5-2.1,1.5-3.5
			c0-2.7-2.2-4.9-4.9-4.9s-4.9,2.2-4.9,4.9c0,1.4,0.6,2.6,1.5,3.5c-2,0.7-4.7,2.6-4.7,5.9v7.4h7.5l0,3.4l-2.5,2.5
			c-0.9-3-4.2-5.8-7.7-5.8c-4.5,0-8.1,3.6-8.1,8.1c0,4.5,3.6,8.1,8.1,8.1s8.1-3.6,8.1-8.1c0-0.2,0-0.5,0-0.7l2.9-2.8l2.9,2.9
			c0,0.2,0,0.5,0,0.7c0,4.5,3.6,8.1,8.1,8.1c4.5,0,8.1-3.6,8.1-8.1S52.4,39.9,47.9,39.9z M33.6,22.9c0-1.9,1.5-3.4,3.4-3.4
			s3.4,1.5,3.4,3.4c0,1.9-1.5,3.4-3.4,3.4S33.6,24.8,33.6,22.9z M33,32.9c0,0.7,0,4.1,0,5.3h-2.6v-5.9c0-2.6,2.5-4.6,5-4.6l1.4,1.7
			L35.4,36l1.6,1.6l1.6-1.6l-1.4-6.6c0,0,1.4-1.7,1.4-1.7c2.6,0,5,2.1,5,4.6v5.9H41c0-1.2,0-4.6,0-5.3c0-0.8-0.8-0.9-0.8-0.9
			s0,4.7,0,6.2h-6.4V32C33.8,32,33,32,33,32.9z M26.1,54.3c-3.6,0-6.5-2.9-6.5-6.5s2.9-6.5,6.5-6.5s6.5,2.9,6.5,6.5
			S29.7,54.3,26.1,54.3z M47.9,54.5c-3.6,0-6.5-2.9-6.5-6.5c0-3.6,2.9-6.5,6.5-6.5c3.6,0,6.5,2.9,6.5,6.5
			C54.5,51.5,51.5,54.5,47.9,54.5z M50.4,48.1c0,0.2-0.2,0.3-0.3,0.3h-2.4v-2.9c0-0.2,0.2-0.3,0.3-0.3c0.2,0,0.3,0.2,0.3,0.3v2.2H50
			C50.2,47.8,50.4,47.9,50.4,48.1z M49.1,43.9v-0.6h-2.3V44c-1.8,0.5-3.2,2.2-3.2,4.2c0,2.4,2,4.3,4.3,4.3c2.4,0,4.3-2,4.3-4.3
			C52.3,46.1,51,44.4,49.1,43.9z M48,51.4c-1.8,0-3.3-1.5-3.3-3.3c0-1.8,1.5-3.3,3.3-3.3c1.8,0,3.3,1.5,3.3,3.3
			C51.2,49.9,49.8,51.4,48,51.4z M26.5,47.1v-2c0.4,0.1,0.6,0.4,0.7,0.8l1.4-0.2c-0.1-0.5-0.4-1.5-2.1-1.7v-0.8h-0.8v0.8
			c-0.6,0.1-2.1,0.5-2.1,2c0,1.5,1.4,2,2.1,2.2v2.1c-0.2-0.1-0.7-0.2-0.9-1.1l-1.5,0.1c0.3,1.8,1.7,2.1,2.4,2.2v0.8h0.8v-0.8
			c0.7-0.1,2.3-0.5,2.3-2.3C28.8,48.7,28.7,47.6,26.5,47.1z M25.7,46.9c-0.2-0.1-0.7-0.2-0.7-0.9c0-0.6,0.5-0.8,0.7-0.9V46.9z
			 M26.5,50.5v-1.9c0.3,0.1,1,0.3,1,0.9C27.4,50.2,26.8,50.4,26.5,50.5z"/>
	</g>
</g>
</svg>
