<?xml version="1.0" encoding="utf-8"?>
<!-- Generator: Adobe Illustrator 21.0.2, SVG Export Plug-In . SVG Version: 6.00 Build 0)  -->
<svg version="1.1" id="Layer_1" xmlns="http://www.w3.org/2000/svg" xmlns:xlink="http://www.w3.org/1999/xlink" x="0px" y="0px"
	 viewBox="0 0 74 74" style="enable-background:new 0 0 74 74;" xml:space="preserve">
<style type="text/css">
	.st0{fill:none;stroke:#006FAF;stroke-width:2;stroke-miterlimit:10;}
	.st1{fill:#006FAF;}
</style>
<title>Cloud &amp;amp; Infrastructure Services</title>
<circle class="st0" cx="37" cy="37" r="36"/>
<g>
	<path class="st1" d="M49.4,54.7h-1.2h-2.4H28.1h-2.4h-1.2c-0.3,0-0.6-0.3-0.6-0.6c0-0.3,0.3-0.6,0.6-0.6h0.6v-29
		c0-0.3,0.3-0.6,0.6-0.6h3v-1.8c0-0.3,0.3-0.6,0.6-0.6h7.1v-1.8c0-0.3,0.3-0.6,0.6-0.6c0.3,0,0.6,0.3,0.6,0.6v1.8h7.1
		c0.3,0,0.6,0.3,0.6,0.6V24h3c0.3,0,0.6,0.3,0.6,0.6v29h0.6c0.3,0,0.6,0.3,0.6,0.6C50,54.5,49.7,54.7,49.4,54.7z M45.3,53.5v-8.3
		h-3.5v8.3H45.3z M42.9,31.1v2.4h2.4v-2.4H42.9z M45.3,29.9v-2.4h-2.4v2.4H45.3z M42.9,34.6V37h2.4v-2.4H42.9z M42.9,38.2v2.4h2.4
		v-2.4H42.9z M42.9,41.7v2.4h2.4v-2.4H42.9z M39.4,31.1v2.4h2.4v-2.4H39.4z M41.7,29.9v-2.4h-2.4v2.4H41.7z M39.4,34.6V37h2.4v-2.4
		H39.4z M39.4,38.2v2.4h2.4v-2.4H39.4z M39.4,41.7v2.4h2.4v-2.4H39.4z M40.5,53.5v-8.3h-3v8.3H40.5z M35.8,31.1v2.4h2.4v-2.4H35.8z
		 M38.2,29.9v-2.4h-2.4v2.4H38.2z M35.8,34.6V37h2.4v-2.4H35.8z M35.8,38.2v2.4h2.4v-2.4H35.8z M35.8,41.7v2.4h2.4v-2.4H35.8z
		 M36.4,53.5v-8.3h-3v8.3H36.4z M32.3,31.1v2.4h2.4v-2.4H32.3z M34.6,29.9v-2.4h-2.4v2.4H34.6z M32.3,34.6V37h2.4v-2.4H32.3z
		 M32.3,38.2v2.4h2.4v-2.4H32.3z M32.3,41.7v2.4h2.4v-2.4H32.3z M32.3,53.5v-8.3h-3.5v8.3H32.3z M28.7,29.9h2.4v-2.4h-2.4V29.9z
		 M28.7,31.1v2.4h2.4v-2.4H28.7z M28.7,34.6V37h2.4v-2.4H28.7z M28.7,38.2v2.4h2.4v-2.4H28.7z M28.7,41.7v2.4h2.4v-2.4H28.7z
		 M44.1,22.8H29.9V24h14.2V22.8z M47.6,25.2h-3H29.3h-3v28.4h1.2V27c0-0.3,0.3-0.6,0.6-0.6h17.7c0.3,0,0.6,0.3,0.6,0.6v26.6h1.2
		V25.2z"/>
</g>
</svg>
