<?xml version="1.0" encoding="utf-8"?>
<!-- Generator: Adobe Illustrator 21.0.2, SVG Export Plug-In . SVG Version: 6.00 Build 0)  -->
<svg version="1.1" id="Layer_1" xmlns="http://www.w3.org/2000/svg" xmlns:xlink="http://www.w3.org/1999/xlink" x="0px" y="0px"
	 viewBox="0 0 74 74" style="enable-background:new 0 0 74 74;" xml:space="preserve">
<style type="text/css">
	.st0{fill:#006FAF;}
</style>
<title>user-experience</title>
<path class="st0" d="M37,0C16.6,0,0,16.6,0,37c0,20.4,16.6,37,37,37c20.4,0,37-16.6,37-37C74,16.6,57.4,0,37,0z M37,72
	C17.7,72,2,56.3,2,37S17.7,2,37,2s35,15.7,35,35S56.3,72,37,72z"/>
<g>
	<path class="st0" d="M55,38.4c0,0.5,0,0.9,0,1.4c0,0.1,0,0.2-0.2,0.3c-0.7,0.3-1.4,0.7-2.2,1c-0.3,0.1-0.7-0.2-0.7-0.4
		c0-0.6,0-1.3,0-1.9c0-0.2-0.1-0.3-0.3-0.4c-0.6-0.2-1.1-0.4-1.7-0.6c-0.2-0.1-0.2-0.1-0.2-0.3c0-0.4,0.1-0.6,0.5-0.7
		c0.7-0.3,1.3-0.6,2-0.9c0.1,0,0.2,0,0.3,0c0.8,0.3,1.5,0.7,2.3,1C55,36.8,55,36.9,55,37C55,37.5,55,37.9,55,38.4z"/>
	<g>
		<g>
			<path class="st0" d="M53.7,55.4H19.4v-9.3h34.3V55.4z M20.9,53.9h31.3v-6.4H20.9V53.9z"/>
		</g>
		<g>
			<path class="st0" d="M37.1,47.2c-0.2,0.1-0.3,0-0.5,0l-12.4-7.9c-0.3-0.2-0.4-0.6-0.3-1s0.5-0.5,0.8-0.3l12.4,7.8
				c0.3,0.2,0.4,0.6,0.3,1C37.4,47,37.3,47.1,37.1,47.2z"/>
		</g>
		<g>
			<path class="st0" d="M22.7,39.5c-2.1,0-3.7-1.7-3.7-3.9c0-2.2,1.7-3.9,3.7-3.9s3.7,1.7,3.7,3.9C26.6,37.7,24.8,39.5,22.7,39.5z
				 M22.7,33.2c-1.3,0-2.2,1-2.2,2.4c0,1.3,1,2.4,2.2,2.4c1.2,0,2.2-1,2.2-2.4C25,34.3,24,33.2,22.7,33.2z"/>
		</g>
		<g>
			<path class="st0" d="M25.6,34.1c-0.2,0-0.5-0.2-0.7-0.4c-0.2-0.4,0-0.8,0.3-1l17.4-8.9c0.3-0.2,0.7,0,0.8,0.4
				c0.2,0.4,0,0.8-0.3,1l-17.4,8.9C25.7,34.1,25.7,34.1,25.6,34.1z"/>
		</g>
		<path class="st0" d="M46.8,42.4c0,0.4,0,0.8,0,1.2c0,0.1,0,0.2-0.2,0.3c-0.7,0.3-1.4,0.6-2.1,0.9c-0.1,0-0.2,0-0.2,0
			c-0.7-0.3-1.4-0.6-2.1-0.9c-0.1,0-0.2-0.1-0.2-0.2c0-0.8,0-1.6,0-2.4c0-0.1,0.1-0.2,0.2-0.3c0.7-0.3,1.3-0.6,2-0.9
			c0.1,0,0.2,0,0.3,0c0.7,0.3,1.5,0.6,2.2,0.9c0.1,0,0.2,0.1,0.2,0.2C46.8,41.6,46.8,42,46.8,42.4C46.8,42.4,46.8,42.4,46.8,42.4z"
			/>
		<path class="st0" d="M51,40.4c0,0.4,0,0.9,0,1.3c0,0.2,0,0.3-0.2,0.3c-0.7,0.3-1.4,0.6-2.1,0.9c-0.3,0.1-0.5,0.1-0.7,0
			c-0.3-0.1-0.4-0.3-0.4-0.6c0-0.6,0-1.2,0-1.7c0-0.2-0.1-0.3-0.2-0.3c-0.6-0.2-1.2-0.5-1.7-0.7c-0.2-0.1-0.2-0.1-0.2-0.3
			c0-0.5,0-0.5,0.5-0.7c0.7-0.3,1.4-0.6,2.1-0.9c0.1,0,0.3,0,0.4,0c0.8,0.3,1.6,0.6,2.4,1c0.2,0.1,0.2,0.1,0.2,0.3
			C51,39.5,51,39.9,51,40.4C51,40.4,51,40.4,51,40.4z"/>
		<path class="st0" d="M37.8,40.4c0-0.4,0-0.9,0-1.3c0-0.1,0-0.2,0.2-0.3c0.7-0.3,1.5-0.7,2.2-1c0.1,0,0.2,0,0.3,0
			c0.7,0.3,1.5,0.7,2.2,1c0.1,0.1,0.2,0.1,0.2,0.3c0.1,0.4-0.1,0.6-0.5,0.8c-0.4,0.1-0.7,0.3-1.1,0.5c-0.1,0.1-0.2,0.1-0.2,0.3
			c0,0.7,0,1.3,0,2c0,0.2-0.1,0.2-0.2,0.3c-0.4,0.2-0.7,0.2-1.1,0c-0.6-0.3-1.3-0.6-2-0.8c-0.1-0.1-0.2-0.1-0.2-0.3
			C37.8,41.3,37.8,40.8,37.8,40.4C37.8,40.4,37.8,40.4,37.8,40.4z"/>
		<path class="st0" d="M39,37.5c-0.6,0.3-1.3,0.5-1.9,0.7c-0.2,0.1-0.2,0.2-0.2,0.3c0,0.6,0,1.3,0,1.9c0,0.3-0.4,0.5-0.7,0.4
			c-0.7-0.3-1.4-0.7-2.2-1c-0.1,0-0.2-0.2-0.2-0.3c0-0.9,0-1.8,0-2.7c0-0.1,0-0.2,0.2-0.3c0.7-0.3,1.5-0.7,2.2-1c0.1,0,0.3,0,0.4,0
			c0.7,0.3,1.5,0.6,2.2,1c0.1,0.1,0.2,0.1,0.2,0.3C39,37.2,39,37.4,39,37.5z"/>
		<g>
			<path class="st0" d="M45.4,26.3c-2.1,0-3.7-1.7-3.7-3.9s1.7-3.9,3.7-3.9c0.4,0,0.7,0.3,0.7,0.7c0,0.4-0.3,0.7-0.7,0.7
				c-1.3,0-2.2,1-2.2,2.4s1,2.4,2.2,2.4s2.2-1,2.2-2.4c0-0.4,0.3-0.7,0.7-0.7c0.4,0,0.7,0.3,0.7,0.7C49.2,24.6,47.5,26.3,45.4,26.3z
				"/>
		</g>
	</g>
</g>
</svg>
