<?xml version="1.0" encoding="utf-8"?>
<!-- Generator: Adobe Illustrator 21.0.2, SVG Export Plug-In . SVG Version: 6.00 Build 0)  -->
<svg version="1.1" id="Layer_1" xmlns="http://www.w3.org/2000/svg" xmlns:xlink="http://www.w3.org/1999/xlink" x="0px" y="0px"
	 viewBox="0 0 74 74" style="enable-background:new 0 0 74 74;" xml:space="preserve">
<style type="text/css">
	.st0{fill:none;stroke:#006FAF;stroke-width:2;stroke-miterlimit:10;}
	.st1{fill:#006FAF;}
	.st2{enable-background:new    ;}
</style>
<g id="Department_Stores">
	<g id="Layer_13">
	</g>
</g>
<circle class="st0" cx="36.7" cy="37" r="36"/>
<g>
	<path class="st1" d="M46.8,36.2V25l0,0c0-0.3-0.1-0.4-0.2-0.7l-4.7-6.4c-0.2-0.3-0.5-0.4-0.9-0.4H23.3c-0.3,0-0.7,0.2-0.9,0.4
		l-4.7,6.4c-0.2,0.2-0.2,0.4-0.2,0.7l0,0v25.5c0,0.6,0.5,1.1,1.1,1.1h19.1c1.8,2.9,5,4.9,8.6,4.9c5.6,0,10.2-4.6,10.2-10.2
		C56.3,40.8,52.1,36.4,46.8,36.2z M23.8,19.6h16.6l3.1,4.2H20.6L23.8,19.6z M44.6,26v1.9c0,1.3-1,2.3-2.3,2.3s-2.3-1-2.3-2.3V26
		C39.9,26,44.6,26,44.6,26z M37.8,26v1.9c0,1.3-1,2.3-2.3,2.3c-1.3,0-2.3-1-2.3-2.3V26C33.1,26,37.8,26,37.8,26z M31,26v1.9
		c0,1.3-1,2.3-2.3,2.3s-2.3-1-2.3-2.3V26L31,26L31,26z M19.6,26h4.7v1.9c0,1.3-1,2.3-2.3,2.3c-1.3,0-2.3-1-2.3-2.3L19.6,26L19.6,26z
		 M31.3,49.4h-7.7V38.2h7.7V49.4L31.3,49.4z M36.6,49.4h-3.1V37c0-0.6-0.5-1.1-1.1-1.1h-9.8c-0.6,0-1.1,0.5-1.1,1.1v12.3h-2V31.7
		c0.7,0.4,1.5,0.7,2.3,0.7c1.4,0,2.6-0.6,3.4-1.6c0.9,0.9,2.1,1.6,3.4,1.6c1.4,0,2.6-0.6,3.4-1.6c0.9,0.9,2.1,1.6,3.4,1.6
		c1.4,0,2.6-0.6,3.4-1.6c0.9,0.9,2.1,1.6,3.4,1.6c0.9,0,1.6-0.3,2.3-0.7v4.6c-4.8,0.8-8.5,4.9-8.5,10C36.1,47.3,36.2,48.3,36.6,49.4
		z M46.1,54.2c-4.4,0-8-3.5-8-8c0-4.4,3.5-7.9,8-7.9s8,3.5,8,7.9C54.2,50.7,50.5,54.2,46.1,54.2z"/>
	<g class="st2">
		<path class="st1" d="M43.2,46.9c-0.3,0-0.6-0.1-0.9-0.2c-0.2-0.1-0.4-0.3-0.6-0.6c-0.1-0.2-0.2-0.5-0.3-0.8
			c-0.1-0.3-0.1-0.7-0.1-1V44c0-0.4,0-0.7,0.1-1c0.1-0.3,0.2-0.6,0.3-0.8c0.1-0.2,0.3-0.4,0.6-0.5c0.2-0.1,0.5-0.2,0.9-0.2l0,1
			c-0.1,0-0.2,0.1-0.3,0.2s-0.1,0.2-0.2,0.3c0,0.1-0.1,0.3-0.1,0.5c0,0.2,0,0.4,0,0.6v0.3c0,0.2,0,0.4,0,0.6c0,0.2,0,0.3,0.1,0.5
			c0,0.1,0.1,0.3,0.2,0.4c0.1,0.1,0.2,0.2,0.3,0.2V46.9z M43.5,41.4c0.3,0,0.6,0.1,0.9,0.2c0.2,0.1,0.4,0.3,0.6,0.5
			c0.1,0.2,0.2,0.5,0.3,0.8s0.1,0.6,0.1,1v0.3c0,0.4,0,0.7-0.1,1s-0.2,0.6-0.3,0.8c-0.1,0.2-0.3,0.4-0.6,0.6
			c-0.2,0.1-0.5,0.2-0.9,0.2l0-1c0.1,0,0.2-0.1,0.3-0.2s0.1-0.2,0.2-0.4c0-0.1,0.1-0.3,0.1-0.5c0-0.2,0-0.4,0-0.6V44
			c0-0.2,0-0.4,0-0.6c0-0.2,0-0.3-0.1-0.5c0-0.1-0.1-0.2-0.2-0.3c-0.1-0.1-0.2-0.1-0.3-0.2V41.4z M47.3,41.3h0.9L45,51.4h-0.9
			L47.3,41.3z M48.8,51.4c-0.3,0-0.6-0.1-0.9-0.2c-0.2-0.1-0.4-0.3-0.6-0.6c-0.1-0.2-0.2-0.5-0.3-0.8c-0.1-0.3-0.1-0.7-0.1-1v-0.3
			c0-0.4,0-0.7,0.1-1c0.1-0.3,0.2-0.6,0.3-0.8c0.1-0.2,0.3-0.4,0.6-0.5c0.2-0.1,0.5-0.2,0.9-0.2l0,1c-0.1,0-0.2,0.1-0.3,0.2
			c-0.1,0.1-0.1,0.2-0.2,0.3c0,0.1-0.1,0.3-0.1,0.5c0,0.2,0,0.4,0,0.6v0.3c0,0.2,0,0.4,0,0.6c0,0.2,0,0.3,0.1,0.5
			c0,0.1,0.1,0.3,0.2,0.4c0.1,0.1,0.2,0.2,0.3,0.2V51.4z M49.1,45.9c0.3,0,0.6,0.1,0.9,0.2c0.2,0.1,0.4,0.3,0.6,0.5
			c0.1,0.2,0.2,0.5,0.3,0.8c0.1,0.3,0.1,0.6,0.1,1v0.3c0,0.4,0,0.7-0.1,1c-0.1,0.3-0.2,0.6-0.3,0.8c-0.1,0.2-0.3,0.4-0.6,0.6
			c-0.2,0.1-0.5,0.2-0.9,0.2l0-1c0.1,0,0.2-0.1,0.3-0.2c0.1-0.1,0.1-0.2,0.2-0.4c0-0.1,0.1-0.3,0.1-0.5c0-0.2,0-0.4,0-0.6v-0.3
			c0-0.2,0-0.4,0-0.6c0-0.2,0-0.3-0.1-0.5c0-0.1-0.1-0.2-0.2-0.3C49.3,47,49.2,47,49.1,47V45.9z"/>
	</g>
</g>
<g id="Food_and_Grocery">
</g>
<g id="E-Commerce__x2F__E-Tailers">
</g>
<g id="Specialty_Stores">
</g>
<g id="Fashion__x26__Apparel">
</g>
<g id="Distributors__x26__Wholesalers">
</g>
</svg>
