<?xml version="1.0" encoding="utf-8"?>
<!-- Generator: Adobe Illustrator 21.0.2, SVG Export Plug-In . SVG Version: 6.00 Build 0)  -->
<svg version="1.1" id="Layer_1" xmlns="http://www.w3.org/2000/svg" xmlns:xlink="http://www.w3.org/1999/xlink" x="0px" y="0px"
	 viewBox="0 0 74 74" style="enable-background:new 0 0 74 74;" xml:space="preserve">
<style type="text/css">
	.st0{fill:none;stroke:#006FAF;stroke-width:2;stroke-miterlimit:10;}
	.st1{fill:#006FAF;}
</style>
<g id="Department_Stores">
	<g id="Layer_13">
	</g>
</g>
<g id="Discount_Stores">
</g>
<g id="Food_and_Grocery">
</g>
<g id="E-Commerce__x2F__E-Tailers">
</g>
<g id="Specialty_Stores">
</g>
<g id="Fashion__x26__Apparel">
</g>
<circle class="st0" cx="37.1" cy="37" r="36"/>
<g>
	<path class="st1" d="M27.8,28.5h-3.8c-0.4,0-0.8,0.2-1,0.6l-4.2,6.6c-0.4,0.6-0.2,1.3,0.4,1.6c0.2,0.1,0.4,0.2,0.7,0.2h8
		c0.7,0,1.2-0.6,1.2-1.2v-6.6C28.9,29.1,28.4,28.5,27.8,28.5z M27.6,36.2h-7.5l3.9-6.3h3.6C27.6,29.9,27.6,36.2,27.6,36.2z
		 M56.5,22.3H37.6c-1.5,0-2.7,1.3-2.7,2.7l0,0v15.9c0,0.2-0.1,0.3-0.3,0.3l0,0c-0.1,0-0.1,0-0.2-0.1c-0.1-0.1-0.1-0.1-0.1-0.2V27.3
		c0-1.2-1-2.1-2.1-2.1h-8.9c-1,0-1.9,0.5-2.4,1.3l-6,9.3c-0.5,0.7-0.7,1.4-0.7,2.3v9c0,1.4,1.3,2.7,2.7,2.7h2c1,2.4,3.2,3.9,5.8,3.9
		c2.5,0,4.8-1.5,5.8-3.9h12.1c1,2.4,3.2,3.9,5.8,3.9s4.8-1.5,5.8-3.9h2.4c1.4,0,2.7-1.3,2.7-2.7V25C59.2,23.6,57.9,22.3,56.5,22.3z
		 M57.9,47.2c0,0.8-0.6,1.3-1.3,1.3h-2.9c-0.3,0-0.6,0.2-0.7,0.5c-0.6,2-2.5,3.5-4.6,3.5c-2.1,0-4-1.4-4.6-3.5
		c-0.1-0.3-0.4-0.5-0.7-0.5H30c-0.3,0-0.6,0.2-0.7,0.5c-0.6,2-2.5,3.5-4.6,3.5s-4-1.4-4.6-3.5c-0.1-0.3-0.4-0.5-0.7-0.5h-2.5
		c-0.8,0-1.3-0.6-1.3-1.3v-9c0-0.6,0.2-1.1,0.5-1.5l6-9.3c0.3-0.5,0.8-0.7,1.2-0.7h9c0.4,0,0.8,0.3,0.8,0.8v13.5
		c0,0.9,0.8,1.6,1.6,1.6l0,0c0.9,0,1.6-0.7,1.6-1.6l0,0V25c0-0.8,0.6-1.3,1.3-1.3h18.8c0.8,0,1.3,0.6,1.3,1.3
		C57.9,25,57.9,47.2,57.9,47.2z M48.3,44.3c-1.9,0-3.5,1.5-3.5,3.5s1.5,3.5,3.5,3.5s3.5-1.5,3.5-3.5C51.7,45.9,50.3,44.3,48.3,44.3z
		 M48.3,49.7c-1.2,0.1-2.1-0.8-2.2-1.9s0.8-2.1,1.9-2.2c0.1,0,0.2,0,0.3,0c1.2,0,2,1,2,2C50.5,48.9,49.5,49.7,48.3,49.7L48.3,49.7z
		 M24.7,44.3c-1.9,0-3.4,1.5-3.5,3.5c0,1.9,1.5,3.4,3.5,3.5c1.9,0,3.4-1.5,3.5-3.5C28,45.9,26.6,44.3,24.7,44.3L24.7,44.3z
		 M24.7,49.7c-1.2,0-2-1-2-2c0-1.2,1-2,2-2c1.2,0,2,1,2,2C26.8,48.9,25.8,49.7,24.7,49.7L24.7,49.7z"/>
</g>
</svg>
