<?xml version="1.0" encoding="utf-8"?>
<!-- Generator: Adobe Illustrator 21.0.2, SVG Export Plug-In . SVG Version: 6.00 Build 0)  -->
<svg version="1.1" id="Layer_1" xmlns="http://www.w3.org/2000/svg" xmlns:xlink="http://www.w3.org/1999/xlink" x="0px" y="0px"
	 viewBox="0 0 74 74" style="enable-background:new 0 0 74 74;" xml:space="preserve">
<style type="text/css">
	.st0{fill:none;stroke:#006FAF;stroke-width:2;stroke-miterlimit:10;}
	.st1{fill:#006FAF;}
</style>
<g id="Department_Stores">
	<g id="Layer_13">
	</g>
</g>
<g id="Discount_Stores">
</g>
<g id="Food_and_Grocery">
</g>
<circle class="st0" cx="37" cy="37" r="36"/>
<g>
	<path class="st1" d="M30.1,28.3c0.4,0,0.7-0.3,0.7-0.7v-9.2H41v9.2c0,0.4,0.3,0.7,0.7,0.7c0.4,0,0.7-0.3,0.7-0.7v-9.9
		c0-0.4-0.3-0.7-0.7-0.7H30.1c-0.4,0-0.7,0.3-0.7,0.7v9.9C29.4,28,29.7,28.3,30.1,28.3z"/>
	<path class="st1" d="M44.3,21.8h3.4v5.8c0,0.4,0.3,0.7,0.7,0.7c0.4,0,0.7-0.3,0.7-0.7v-6.5c0-0.4-0.3-0.7-0.7-0.7h-4
		c-0.4,0-0.7,0.3-0.7,0.7S43.9,21.8,44.3,21.8z"/>
	<path class="st1" d="M38.4,20l-4,4.9l-1.2-2.1c-0.2-0.3-0.6-0.4-0.9-0.2c-0.3,0.2-0.4,0.6-0.2,0.9l1.7,3c0.1,0.2,0.3,0.3,0.5,0.3
		l0,0c0.2,0,0.4-0.1,0.5-0.3l4.5-5.7c0.2-0.3,0.2-0.7-0.1-0.9C39.1,19.7,38.7,19.8,38.4,20z"/>
	<path class="st1" d="M52.2,48.3H32.4c-0.4,0-0.8-0.2-1-0.5c-0.2-0.3-0.3-0.7-0.2-1.1l0.9-2.6L48.5,43c0.3,0,0.5-0.2,0.6-0.5l3.9-12
		c0.1-0.2,0-0.4-0.1-0.6c-0.1-0.2-0.3-0.3-0.5-0.3H26.9l-2.1-5.4c-0.1-0.3-0.3-0.4-0.6-0.4h-2.6c-0.4,0-0.7,0.3-0.7,0.7
		s0.3,0.7,0.7,0.7h2.1l7,18.5l-0.9,2.8c-0.3,0.8-0.1,1.6,0.4,2.3c0.5,0.7,1.3,1.1,2.1,1.1h20c0.4,0,0.7-0.3,0.7-0.7
		C52.9,48.6,52.6,48.3,52.2,48.3z M51.3,31l-3.5,10.7L32,42.7l-4.5-11.9L51.3,31L51.3,31z"/>
	<path class="st1" d="M32.8,51c-1.6,0-3,1.3-3,3c0,1.6,1.3,3,3,3c1.7,0,3-1.3,3-3C35.7,52.3,34.3,51,32.8,51z M32.8,55.6
		c-0.9,0-1.7-0.7-1.7-1.6c0-0.9,0.7-1.6,1.7-1.6c1,0,1.7,0.7,1.7,1.6C34.4,54.9,33.6,55.6,32.8,55.6z"/>
	<path class="st1" d="M46.9,51c-1.6,0-3,1.3-3,3c0,1.6,1.3,3,3,3c1.7,0,3-1.3,3-3C49.8,52.3,48.5,51,46.9,51z M46.9,55.6
		c-0.9,0-1.7-0.7-1.7-1.6c0-0.9,0.7-1.6,1.7-1.6c1,0,1.7,0.7,1.7,1.6C48.6,54.9,47.8,55.6,46.9,55.6z"/>
</g>
<g id="Specialty_Stores">
</g>
<g id="Fashion__x26__Apparel">
</g>
</svg>
