<?xml version="1.0" encoding="utf-8"?>
<!-- Generator: Adobe Illustrator 21.1.0, SVG Export Plug-In . SVG Version: 6.00 Build 0)  -->
<svg version="1.1" xmlns="http://www.w3.org/2000/svg" xmlns:xlink="http://www.w3.org/1999/xlink" x="0px" y="0px"
	 viewBox="0 0 74 74" style="enable-background:new 0 0 74 74;" xml:space="preserve">
<style type="text/css">
	.st0{fill:none;stroke:#006FAF;stroke-width:2;stroke-miterlimit:10;}
	.st1{fill:none;stroke:#006FAF;stroke-miterlimit:10;}
	.st2{fill:#006FAF;}
	.st3{fill:none;stroke:#006FAF;stroke-width:1.2;stroke-miterlimit:10;}
</style>
<g id="Oil__x26__Gas_Upstream">
	<g id="Layer_13">
	</g>
</g>
<g id="Oil__x26__Gas_Downstream">
</g>
<g id="Oil__x26__Gas_Midstream">
</g>
<g id="Oil-Field_Services">
</g>
<g id="Energy_Commodity_Markets">
</g>
<g id="Energy_Technology">
	<circle class="st0" cx="37.1" cy="37" r="36"/>
	<g>
		<path class="st2" d="M29.6,58.9c2.3,0.8,4.7,1.2,7.1,1.2c7.4,0,14.6-3.8,18.6-10.3c0.3-0.5,0.1-1.2-0.3-1.5
			c-0.5-0.3-1.2-0.1-1.5,0.3c-4.9,7.8-14.6,11.2-23.2,8.3c-8.4-2.9-13.8-11.3-13.1-20l2.8,2.9l1.5-1.5L17,33.6
			c-0.2-0.2-0.4-0.3-0.8-0.3l0,0c-0.3,0-0.6,0.1-0.8,0.3l-4.6,4.5l1.5,1.5l2.6-2.6C14.5,46.7,20.5,55.7,29.6,58.9z"/>
		<path class="st2" d="M58.6,38.9c0.3-9.4-5.7-18.1-14.7-21.2c-9.5-3.3-20.4,0.5-25.7,9.1c-0.3,0.5-0.1,1.2,0.3,1.5
			c0.5,0.3,1.2,0.1,1.5-0.3c4.8-7.7,14.5-11.2,23.2-8.2c8.1,2.8,13.4,10.6,13.2,19.1l-2.7-2.7l-1.5,1.5l4.5,4.5
			c0.2,0.2,0.4,0.3,0.8,0.3l0,0c0.3,0,0.6-0.1,0.8-0.3l4.5-4.5l-1.5-1.5L58.6,38.9z"/>
		<path class="st2" d="M29.4,33c-1.8,2-3.5,3.8-4.2,6c-2.4,7.3,4.3,13,8.2,14.9c0.1,0.1,0.3,0.1,0.4,0.1c0.4,0,0.8-0.2,1-0.6
			c0.3-0.6,0.1-1.2-0.3-1.6c-0.7-0.6-2.3-2.1-1.6-4.2c0.3-1.1,1-1.9,1.9-2.3c0.8-0.4,2.2-0.5,3.3,0.1c0.8,0.4,1.2,1.2,1.3,2.3
			c0.3,2.1-1,3.8-1,3.8c-0.3,0.4-0.3,0.9-0.1,1.3c0.3,0.4,0.7,0.6,1.1,0.6c1.8-0.4,8.8-4.5,8.8-12.3c0-3.8-1.5-7.6-4.5-11.7
			c-3-4-6.5-6.7-7.5-7.4c-0.4-0.3-0.8-0.3-1.2,0c-0.4,0.3-0.5,0.8-0.4,1.2c0.3,1.3-0.4,2.8-1,4.1C32.5,29.5,30.9,31.3,29.4,33z
			 M35.5,28.7c0.5-1,1-2.1,1.2-3.3c4.1,3.4,9.4,9.6,9.4,15.8c0,4.2-2.7,7-4.7,8.6c0.1-0.7,0.2-1.6,0.1-2.4c-0.3-2.3-1.5-3.4-2.4-4
			c-0.9-0.5-1.9-0.7-2.8-0.7c-0.9,0-1.8,0.2-2.4,0.5c-1.4,0.7-2.5,2.1-3,3.7c-0.3,0.8-0.3,1.6-0.3,2.3c-2.3-2.1-4.5-5.3-3.2-9.2
			c0.6-1.7,2.1-3.4,3.7-5.2C32.6,32.9,34.2,31,35.5,28.7z"/>
	</g>
</g>
</svg>
