<?xml version="1.0" encoding="utf-8"?>
<!-- Generator: Adobe Illustrator 21.0.2, SVG Export Plug-In . SVG Version: 6.00 Build 0)  -->
<svg version="1.1" id="Layer_1" xmlns="http://www.w3.org/2000/svg" xmlns:xlink="http://www.w3.org/1999/xlink" x="0px" y="0px"
	 viewBox="0 0 74 74" style="enable-background:new 0 0 74 74;" xml:space="preserve">
<style type="text/css">
	.st0{fill:none;stroke:#006FAF;stroke-width:2;stroke-miterlimit:10;}
	.st1{fill:#006FAF;}
</style>
<g id="Department_Stores">
	<g id="Layer_13">
	</g>
</g>
<g id="Discount_Stores">
</g>
<circle class="st0" cx="37.4" cy="37" r="36"/>
<g transform="translate(0,-288.53332)">
	<path class="st1" d="M31.1,313.7c-0.4,0-0.7,0.3-0.7,0.7l0,0v3.4h1.3V315h22.5c0,0.9,0,17.7,0,26.4c0,1.5-1.2,2.7-2.7,2.7H38.3v1.3
		h13.2c2.2,0,3.9-1.8,3.9-3.9c0-9.1,0-27.1,0-27.1c0-0.4-0.3-0.7-0.7-0.7l0,0L31.1,313.7L31.1,313.7z"/>
	<path class="st1" d="M38.3,337.5v1.3h16.8v-1.3H38.3z"/>
	<path class="st1" d="M22.1,319c-0.4,0-0.7,0.3-0.7,0.7l0,0v3.1l-2.8,4c-0.1,0.1-0.1,0.2-0.1,0.4v17.7c0,0.4,0.3,0.7,0.7,0.7h17.2
		c0.4,0,0.7-0.3,0.7-0.7l0,0v-17.6c0-0.1,0-0.3-0.1-0.4l-2.8-4.1v-3.1c0-0.4-0.3-0.7-0.7-0.7C33.5,319,22.1,319,22.1,319z
		 M22.7,320.3h10.2v2.6c0,0.1,0,0.3,0.1,0.4l2.8,4.1V344H19.9v-16.8l2.8-4c0.1-0.1,0.1-0.2,0.1-0.4L22.7,320.3L22.7,320.3z"/>
	<path class="st1" d="M30.3,332.9c-0.2,0-0.4,0.1-0.5,0.3c0,0-0.3,0.6-0.7,1.2c-0.2,0.3-0.3,0.7-0.5,1c-0.1,0.3-0.3,0.6-0.3,1
		c0,1.1,1,1.8,2,1.8c1.1,0,2-0.8,2-1.8c0-0.4-0.1-0.7-0.3-1s-0.3-0.7-0.5-1c-0.3-0.7-0.7-1.2-0.7-1.2
		C30.8,333,30.6,332.8,30.3,332.9z M30.4,334.9C30.4,335,30.4,335,30.4,334.9c0.3,0.4,0.4,0.7,0.5,1s0.2,0.5,0.2,0.5
		c0,0.2-0.2,0.5-0.7,0.5c-0.4,0-0.7-0.3-0.7-0.5c0,0.1,0-0.2,0.2-0.5C30,335.6,30.2,335.3,30.4,334.9C30.3,335,30.3,335,30.4,334.9z
		"/>
	<path class="st1" d="M22.2,322.6c-0.4,0-0.6,0.3-0.6,0.7c0,0.1,0,0.2,0.1,0.3l2.6,4.1v16.7c0,0.4,0.2,0.7,0.6,0.7s0.7-0.2,0.7-0.6
		v-0.1v-16.9c0-0.1,0-0.2-0.1-0.4l-2.7-4.3C22.5,322.7,22.3,322.5,22.2,322.6L22.2,322.6z"/>
	<path class="st1" d="M21.2,326.9v1.3h15.2v-1.3H21.2z"/>
	<path class="st1" d="M24.5,322.2v1.3h9.3v-1.3H24.5z"/>
	<path class="st1" d="M40.9,313.9c-0.6,0.6,0.3,1.5,0.9,0.9l8.3-7.5c1.6,1.9,2.5,4.3,2.3,6.8c-0.1,0.9,1.3,1,1.3,0.1
		c0.3-3.1-0.9-6.1-3.1-8.4c-0.3-0.3-0.7-0.3-0.9,0L40.9,313.9L40.9,313.9L40.9,313.9z"/>
	<path class="st1" d="M48.2,307.5c-0.3,0.3-0.3,0.7,0,0.9c1.4,1.5,2.1,3.6,2,5.5c0,0.4,0.2,0.7,0.6,0.7c0.4,0,0.7-0.2,0.7-0.6l0,0
		c0.2-2.5-0.6-4.8-2.3-6.6C48.9,307.3,48.4,307.3,48.2,307.5L48.2,307.5L48.2,307.5z"/>
	<path class="st1" d="M46.2,311.4c-0.2,0-0.3,0.1-0.4,0.2l-0.3,0.3c-0.3,0.3-0.3,0.7,0,1c0.3,0.3,0.7,0.3,1,0l0.3-0.3
		c0.3-0.3,0.3-0.7,0-0.9C46.6,311.4,46.4,311.3,46.2,311.4L46.2,311.4z"/>
	<path class="st1" d="M48.3,310.6c-0.4,0-0.7,0.3-0.7,0.7c0,0.2,0.1,0.4,0.2,0.5l0.3,0.3c0.3,0.3,0.7,0.3,1,0s0.3-0.7,0-1l-0.3-0.3
		C48.7,310.7,48.5,310.6,48.3,310.6L48.3,310.6z"/>
	<path class="st1" d="M47.2,313c-0.4,0-0.7,0.3-0.7,0.7c0,0.2,0.1,0.4,0.2,0.5l0.3,0.3c0.2,0.3,0.7,0.3,0.9,0.1
		c0.3-0.2,0.3-0.7,0.1-0.9c0,0,0-0.1-0.1-0.1l-0.3-0.3C47.6,313.1,47.4,313,47.2,313L47.2,313z"/>
	<path class="st1" d="M36.7,309c-0.7,0.3-1.1,0.8-1.4,1.4c-0.3,0.6-0.5,1.2-0.6,1.7c-0.2,0.9-0.3,1.3-0.3,2.3h1.3c0-1,0-1.1,0.2-1.9
		c0.1-0.5,0.3-1,0.5-1.4s0.4-0.7,0.7-0.8c0.1,0,0.7,0,1.2,0.2c0.5,0.2,0.9,0.4,0.9,0.4l0.3-0.6l0.3,0.6c0,0,0.4-0.2,0.9-0.4
		c0.5-0.2,1.1-0.2,1.2-0.2c0.3,0.1,0.5,0.4,0.7,0.8s0.4,0.9,0.5,1.4l1.3-0.4c-0.1-0.5-0.3-1.1-0.6-1.7c-0.3-0.6-0.7-1.1-1.4-1.4
		c-0.8-0.3-1.5,0-2.1,0.2c-0.4,0.2-0.6,0.3-0.8,0.3c-0.2-0.1-0.3-0.2-0.8-0.3C38.1,309,37.4,308.7,36.7,309z"/>
	<path class="st1" d="M40,307c-0.2,0-0.5,0.2-0.6,0.4c0,0-0.5,0.9-0.6,1.7c-0.1,0.7-0.1,1.7-0.1,1.7c0,0.4,0.3,0.7,0.6,0.7
		c0.4,0,0.7-0.3,0.7-0.6v-0.1c0,0,0-1.1,0-1.4c0.1-0.3,0.5-1.4,0.5-1.4c0.2-0.3,0-0.7-0.3-0.9C40.2,307,40.1,307,40,307z"/>
</g>
<g id="E-Commerce__x2F__E-Tailers">
</g>
<g id="Specialty_Stores">
</g>
<g id="Fashion__x26__Apparel">
</g>
</svg>
