<?xml version="1.0" encoding="utf-8"?>
<!-- Generator: Adobe Illustrator 21.0.2, SVG Export Plug-In . SVG Version: 6.00 Build 0)  -->
<svg version="1.1" id="Layer_1" xmlns="http://www.w3.org/2000/svg" xmlns:xlink="http://www.w3.org/1999/xlink" x="0px" y="0px"
	 viewBox="0 0 74 74" style="enable-background:new 0 0 74 74;" xml:space="preserve">
<style type="text/css">
	.st0{fill:none;stroke:#006FAF;stroke-width:2;stroke-miterlimit:10;}
</style>
<circle class="st0" cx="37" cy="37" r="36"/>
<g>
	<path class="st0" d="M27.7,31.1c0,0-2.4,1.3,0.9,5c0,0,2.9,8.9,9.2,8.1c6.3-0.8,7.6-7.7,7.6-7.7s3.4-3,1.1-5.3
		c0,0,3.6-13.4-9.8-13.4C23.2,17.7,27.7,31.1,27.7,31.1z"/>
	<path class="st0" d="M30.4,41.8c0,0-12.9,1.1-13.4,9.3v5.3h40v-6.6c0,0-0.7-4.6-13.1-7.4C43.9,42.4,37.3,55.3,30.4,41.8z"/>
	<path class="st0" d="M24.3,50.8c-0.2-0.3,0-0.8,0.3-0.9l0,0c0.3-0.2,0.8,0,0.9,0.3l0,0c0.2,0.3,0,0.8-0.3,0.9l0,0
		C24.9,51.3,24.5,51.2,24.3,50.8L24.3,50.8z"/>
	<path class="st0" d="M49.9,47.7c-0.2-0.3,0-0.8,0.3-0.9l0,0c0.3-0.2,0.8,0,0.9,0.3l0,0c0.2,0.3,0,0.8-0.3,0.9l0,0
		C50.4,48.2,50,48.1,49.9,47.7L49.9,47.7z"/>
	<path class="st0" d="M28.1,49c-0.1-0.3,0-0.7,0.3-0.8l0,0c0.3-0.1,0.7,0,0.8,0.3l0,0c0.1,0.3,0,0.7-0.3,0.8l0,0
		C28.6,49.5,28.3,49.3,28.1,49L28.1,49z"/>
	<path class="st0" d="M28.4,48.2c0,0,0.6-3.2-3.3-2.6c-3.9,0.6-1.8,4.3-0.6,4.4"/>
	<path class="st0" d="M24.5,45.7c0,0-0.8-1.4,0.2-2.6"/>
	<path class="st0" d="M50.2,46.8c0,0,0.8-1.4-0.2-2.6"/>
</g>
</svg>
