<?xml version="1.0" encoding="utf-8"?>
<!-- Generator: Adobe Illustrator 21.0.2, SVG Export Plug-In . SVG Version: 6.00 Build 0)  -->
<svg version="1.1" id="Layer_1" xmlns="http://www.w3.org/2000/svg" xmlns:xlink="http://www.w3.org/1999/xlink" x="0px" y="0px"
	 viewBox="0 0 74 74" style="enable-background:new 0 0 74 74;" xml:space="preserve">
<style type="text/css">
	.st0{fill:none;stroke:#006FAF;stroke-width:2;stroke-miterlimit:10;}
	.st1{fill:#006FAF;}
</style>
<circle class="st0" cx="37" cy="37" r="36"/>
<g id="Shape_5">
	<g>
		<path class="st1" d="M27.5,35.5h3.7v-3.7h3.7v-3.7h-3.7v-3.7h-3.7v3.7h-3.7v3.7h3.7V35.5z M23.1,42.1h13.1v-0.7H23.1V42.1z
			 M23.1,44.2h13.1v-0.7H23.1V44.2z M23.1,39.9h13.1v-0.7H23.1V39.9z M57.2,37.6h-0.7v-5.1c0-1.2-1-2.2-2.2-2.2h-2.3V27h-7.8v3.4
			h-2.3c-0.2,0-0.3,0-0.5,0.1v-8.9c0-1.6-1.2-2.1-2.8-2.1H20.8c-1.6,0-2.8,0.5-2.8,2.1v30.8c0,1.6,1.2,2.1,2.8,2.1h17.7
			c1.6,0,2.8-0.5,2.8-2.1v-5.5c0.2,0,0.3,0.1,0.5,0.1h2.3v3.3H52V47h2.3c1.2,0,2.2-1,2.2-2.2v-5.1h0.7c0.4,0,0.7-0.3,0.7-0.7v-0.7
			C57.9,37.9,57.6,37.6,57.2,37.6z M30,53.7c-1,0-1.8-0.8-1.8-1.8c0-1,0.8-1.8,1.8-1.8c1,0,1.8,0.8,1.8,1.8
			C31.8,52.9,31,53.7,30,53.7z M38.7,46.6c0,1.3-1.1,1.7-2.4,1.7H22.9c-1.3,0-2.4-0.3-2.4-1.7V23.8c0-1.3,1.1-1.7,2.4-1.7h13.4
			c1.3,0,2.4,0.3,2.4,1.7V46.6z M55.1,44.1c0,0.8-0.7,1.4-1.4,1.4H42.4c-0.5,0-0.9-0.2-1.2-0.7V32.5c0.2-0.4,0.7-0.7,1.2-0.7h11.1
			c0.7,0,1.4,0.7,1.4,1.4L55.1,44.1L55.1,44.1z M47.5,40.2l-2.7-2.3l-0.3,0.3l2.9,2.5l0.2-0.2l0.2,0.2l4.9-4.5l-0.3-0.3L47.5,40.2z"
			/>
	</g>
</g>
</svg>
