<?xml version="1.0" encoding="utf-8"?>
<!-- Generator: Adobe Illustrator 21.0.2, SVG Export Plug-In . SVG Version: 6.00 Build 0)  -->
<svg version="1.1" id="Layer_1" xmlns="http://www.w3.org/2000/svg" xmlns:xlink="http://www.w3.org/1999/xlink" x="0px" y="0px"
	 viewBox="0 0 74 74" style="enable-background:new 0 0 74 74;" xml:space="preserve">
<style type="text/css">
	.st0{fill:#006FAF;}
	.st1{fill:none;stroke:#006FAF;stroke-width:1.2;stroke-miterlimit:10;}
	.st2{fill:none;stroke:#006FAF;stroke-miterlimit:10;}
</style>
<title>health-checks</title>
<path class="st0" d="M37,74C16.6,74,0,57.4,0,37S16.6,0,37,0s37,16.6,37,37S57.4,74,37,74z M37,2C17.7,2,2,17.7,2,37s15.7,35,35,35
	s35-15.7,35-35S56.3,2,37,2z"/>
<g>
	<path class="st0" d="M56.9,32.1h-0.6c-0.1-0.5-0.3-1.1-0.6-1.5l0.4-0.4c0.5-0.5,0.4-1.3-0.1-1.8l-0.7-0.8c-0.5-0.5-1.3-0.5-1.8-0.1
		l-0.4,0.4c-0.4-0.2-1-0.5-1.5-0.6v-0.6c0-0.7-0.5-1-1.2-1h-1c-0.7,0-1.5,0.3-1.5,1v0.6c-0.5,0.1-0.9,0.3-1.3,0.6l-0.3-0.4
		c-0.5-0.5-1.2-0.4-1.7,0.1l-0.7,0.7c-0.5,0.5-0.5,1.3,0,1.8l0.4,0.5c-0.2,0.4-0.4,1-0.6,1.5H43c-0.7,0-1.4,0.4-1.4,1.1v1
		c0,0.7,0.7,1.4,1.4,1.4h0.6c0.1,0.5,0.3,0.9,0.6,1.4l-0.4,0.4c-0.5,0.5-0.4,1.2,0.1,1.8l0.7,0.7c0.5,0.5,1.3,0.5,1.8,0.1l0.3-0.4
		c0.4,0.2,0.8,0.4,1.3,0.6v0.6c0,0.7,0.8,1.3,1.5,1.3h1c0.7,0,1.2-0.6,1.2-1.3v-0.6c0.5-0.1,1-0.3,1.5-0.6l0.4,0.4
		c0.5,0.5,1.3,0.4,1.8-0.1l0.7-0.7c0.5-0.5,0.5-1.3,0.1-1.8L55.8,37c0.2-0.4,0.4-0.9,0.6-1.4h0.6c0.7,0,1.1-0.7,1.1-1.4v-1
		C58,32.5,57.6,32.1,56.9,32.1z M57,34.2c0,0.2,0,0.4-0.1,0.4h-1.3l-0.2,0.7c-0.1,0.4-0.3,0.8-0.5,1.2l-0.4,0.7l0.9,0.9
		c0.1,0.1,0.1,0.2-0.1,0.3l-0.7,0.7c-0.1,0.1-0.1,0.1-0.2,0.1c-0.1,0-0.1,0-0.1,0l-0.9-0.9l-0.7,0.4c-0.4,0.2-0.8,0.4-1.2,0.5
		l-0.8,0.2v1.3c0,0.1,0,0.2-0.2,0.2h-1c-0.2,0-0.5-0.1-0.5-0.2v-1.3l-0.6-0.2c-0.4-0.1-0.8-0.3-1.2-0.5l-0.6-0.4l-0.9,0.9
		c0,0-0.1,0-0.1,0c-0.1,0-0.2,0-0.2-0.1l-0.7-0.7c-0.1-0.1-0.1-0.3-0.1-0.3l0.9-0.9l-0.4-0.7c-0.2-0.4-0.4-0.7-0.5-1.2l-0.2-0.7H43
		c-0.1,0-0.4-0.2-0.4-0.4v-1c0-0.2,0.3-0.1,0.4-0.1h1.3l0.2-0.8c0.1-0.4,0.3-0.9,0.5-1.3l0.4-0.7l-0.9-0.9c-0.1-0.1-0.1-0.2,0.1-0.3
		l0.7-0.7c0.1-0.1,0.1-0.1,0.2-0.1c0.1,0,0.1,0,0.1,0l0.9,0.9l0.7-0.4c0.4-0.2,0.7-0.4,1.1-0.5l0.6-0.2v-1.3c0-0.1,0.3,0,0.5,0h1
		c0.2,0,0.2-0.1,0.2,0v1.3l0.8,0.2c0.4,0.1,0.8,0.3,1.2,0.5l0.7,0.4l0.9-0.9c0,0,0.1,0,0.1,0c0.1,0,0.2,0,0.2,0.1l0.7,0.7
		c0.1,0.1,0.1,0.2,0.1,0.2c0,0.1,0,0.1,0,0.1l-0.9,0.9l0.4,0.7c0.2,0.4,0.4,0.9,0.5,1.3l0.2,0.8h1.3c0.1,0,0.1-0.1,0.1,0.1V34.2z"/>
	<path class="st1" d="M51.9,35.7c-1,1-2.6,1-3.6,0c-1-1-1-2.6,0-3.6c1-1,2.6-1,3.6,0c0,0,0,0,0,0C52.9,33,52.9,34.7,51.9,35.7z"/>
	<path class="st1" d="M51.4,44.7L42.6,44l-3.2-6c-0.4-0.7-0.8-1.3-1.4-1.9l0,0c-0.3-0.3-0.6-0.6-1-0.9c-1.2-0.9-2.5-1.8-3.9-2.5
		l-2.1,10l-1-6.6l0.7-1.1l-1-1.3l2.7-1.7v-1.1c0.3-0.4,0.4-0.9,0.5-1.4c0.2,0,0.5-0.3,0.7-1.3c0.4-1.4,0-1.6-0.4-1.5
		c0.1-0.2,0.1-0.4,0.1-0.6c0.6-3.5-1.1-3.6-1.1-3.6c-0.3-0.4-0.6-0.7-1-1C30.7,21,30,20.9,29.2,21c-0.3,0-0.6,0.1-0.9,0.2l0,0
		c-0.3,0.1-0.6,0.3-0.9,0.5c-0.4,0.2-0.7,0.5-1,0.8c-0.5,0.5-0.9,1.1-1,1.8c-0.1,0.6-0.1,1.2,0,1.8l0,0c0,0.2,0.1,0.4,0.1,0.6
		c-0.3,0-0.8,0.2-0.4,1.5c0.3,1,0.5,1.3,0.7,1.3c0.1,0.5,0.3,1,0.5,1.4v1.1l2.7,1.7l-1,1.3l0.7,1.1l-1,6.6l-2.1-9.9
		c-1.3,0.7-2.6,1.5-3.8,2.4c-1.1,0.8-2,1.9-2.5,3.2l-1.5,3.3l-1.7,3.6c-0.3,0.6-0.3,1.4,0.1,2l3.9,5.9h15.9l0.5-10.2l3,4.1
		c0.5,0.7,1.3,1,2.1,1l9.8-0.8c0.7,0,1.2-0.6,1.1-1.3C52.5,45.3,52,44.8,51.4,44.7z"/>
	<path class="st2" d="M20.4,46.6c-0.1-0.2-0.1-0.5,0-0.7l2.3-3.5l0.5,8.9L20.4,46.6z"/>
</g>
</svg>
