<?xml version="1.0" encoding="utf-8"?>
<!-- Generator: Adobe Illustrator 21.0.2, SVG Export Plug-In . SVG Version: 6.00 Build 0)  -->
<svg version="1.1" id="Layer_1" xmlns="http://www.w3.org/2000/svg" xmlns:xlink="http://www.w3.org/1999/xlink" x="0px" y="0px"
	 viewBox="0 0 74 74" style="enable-background:new 0 0 74 74;" xml:space="preserve">
<style type="text/css">
	.st0{fill:none;stroke:#006FAF;stroke-width:2;stroke-miterlimit:10;}
	.st1{fill:#006FAF;}
</style>
<title>Cloud &amp;amp; Infrastructure Services</title>
<circle class="st0" cx="37" cy="37" r="36"/>
<g>
	<path class="st1" d="M19.7,53.3c-0.2,0-0.3-0.2-0.4-0.3c0-0.2,0.1-0.5,0.3-0.5c0.1,0,0.1,0,0.1,0c0,0,0.1,0,0.1,0l2.1,0
		c-0.3-0.3-0.4-0.7-0.5-1.1c-0.1-0.1-0.1-0.2-0.1-0.3c0.1-0.3,0.3-0.4,0.5-0.4l0.1,0l29.9,0c0.8,0,1.1-0.3,1.3-1.1
		c0.1-0.4,0-0.9-0.3-1.2c-0.2-0.2-0.4-0.3-0.7-0.3c-0.4,0-0.6,0-0.9,0l-1.7,0c-0.5,0-1-0.2-1.4-0.5c-0.5-0.4-1-0.9-1.4-1.3l-0.1-0.1
		c-0.4-0.5-0.4-1.2,0.1-1.6l0.1-0.1c0.2-0.2,0.5-0.5,0.7-0.7c-0.2-0.1-0.4-0.2-0.6-0.2l-25.2,0c-0.2,0-0.5,0-0.5-0.4
		c0-0.2,0.1-0.4,0.3-0.5c0.1,0,0.2,0,0.2,0h4V32c-0.2-0.1-0.3-0.2-0.3-0.5v-4.3c0-0.2,0.1-0.4,0.3-0.5v0h-2.1v1.4
		c0,0.3-0.2,0.5-0.5,0.5h-3.1c-0.3,0-0.5-0.2-0.5-0.5v-1.4h-0.4c-0.3,0-0.5-0.2-0.5-0.5v-1l0-0.1l0,0l0.1-0.1l0.1-0.1l8.6-4.3h0.2
		l10.4,2.8l6,0l0.1,0l3,2.4l0.1,0.1l0,0.1l0,0.1v0.3l0,0.1l0,0l-0.1,0.1l-0.1,0.1h-0.1l-0.1,0H36.4v3.1c0,0,0,0,0.1,0.1
		c0.1,0.1,0.1,0.2,0.1,0.3c0,0.1-0.1,0.3-0.1,0.3l-0.9,0.9c0,0,0,0.1,0,0.1c0,0,0,0.1,0.1,0.1c0,0,0.1,0.1,0.2,0.2
		c0.2,0.1,0.3,0.3,0.4,0.5c0.1,0.2,0.1,0.3,0.1,0.5c0,0.3-0.1,0.6-0.3,0.8c-0.2,0.2-0.5,0.3-0.8,0.3h-0.1c-0.3,0-0.6-0.1-0.8-0.3
		c-0.2-0.2-0.3-0.3-0.3-0.5c0-0.2,0-0.3,0.1-0.4c0.1-0.1,0.2-0.1,0.3-0.2c0,0,0,0,0,0c0.2,0,0.4,0.1,0.4,0.3c0,0.1,0.1,0.2,0.1,0.2
		c0.1,0.1,0.2,0.1,0.3,0.1c0.1,0,0.2,0,0.3-0.1c0.1-0.1,0.1-0.2,0.1-0.3c0,0,0-0.1,0-0.1c-0.1-0.1-0.1-0.2-0.2-0.2
		c-0.1-0.1-0.2-0.2-0.3-0.3c-0.1-0.1-0.1-0.2-0.2-0.3c0-0.1-0.1-0.2-0.1-0.4l-0.9-0.9c-0.1-0.1-0.1-0.1-0.1-0.2
		c-0.1-0.2,0-0.4,0.2-0.5v-3.1h-4.1v0.2c0.3,0.2,0.4,0.5,0.5,0.8c0.1,0.5,0.2,1,0.2,1.5c0,0.7-0.1,2.3-0.8,2.7v10.6H32v-5.1
		c0-0.3,0.2-0.6,0.4-0.7l6-2.7l0,0l0.1-0.1v-2.4c0-0.3,0.1-0.6,0.4-0.7c1.7-0.7,3.4-1.5,5-2.2c0.1-0.1,0.3-0.1,0.4-0.1
		c0.1,0,0.2,0,0.3,0.1l4.2,1.4c0.2,0.1,0.3,0.1,0.4,0.2c0.1,0.1,0.2,0.1,0.4,0.2c0.3,0.1,0.5,0.4,0.5,0.7l0,13.6l3.3,2.9
		c0.7,0.5,1,1.5,0.7,2.4c-0.2,0.8-0.6,1.4-1.5,1.6c-0.2,0-0.4,0.1-0.7,0.1h-1.6c-0.1,0.4-0.2,0.7-0.4,0.9c0,0,4.7,0,4.7,0
		c0.3,0,0.5,0.2,0.5,0.4c0,0.3-0.2,0.4-0.4,0.4l-34.8,0c0,0-0.1,0-0.1,0S19.8,53.3,19.7,53.3z M33.4,52.4c-0.2-0.3-0.4-0.6-0.5-0.9
		h-4.3c-0.1,0.3-0.2,0.7-0.5,0.9H33.4z M36.5,52.4c0,0-0.1-0.1-0.1-0.1c0,0-0.1,0.1-0.1,0.1H36.5z M25.2,52.4
		C25.1,52.4,25.1,52.3,25.2,52.4c-0.1-0.1-0.1,0-0.2,0H25.2z M43.9,52.4c-0.2-0.3-0.3-0.5-0.4-0.8c0-0.1,0-0.1,0-0.1l-2.1,0h-1.5
		c-0.1,0.3-0.2,0.7-0.5,0.9H43.9z M47.1,52.4c0,0-0.1-0.1-0.1-0.1c0,0-0.1,0.1-0.1,0.1H47.1z M44.5,51.5c0.1,0.4,0.5,0.7,0.9,0.7
		l0.1,0c0.4,0,0.7-0.3,0.8-0.7L44.5,51.5z M47.7,51.5c0.1,0.4,0.5,0.7,0.9,0.7l0,0c0.4,0,0.7-0.3,0.8-0.7L47.7,51.5z M34,51.6
		c0.1,0.2,0.4,0.4,0.6,0.5c0.1,0,0.2,0,0.2,0c0.4,0,0.7-0.2,0.9-0.5H34z M25.8,51.6c0.1,0.2,0.4,0.4,0.6,0.5c0.1,0,0.2,0,0.2,0
		c0.4,0,0.7-0.2,0.9-0.5H25.8z M22.7,51.6c0.1,0.2,0.4,0.4,0.6,0.5c0.1,0,0.2,0,0.2,0c0.4,0,0.7-0.2,0.9-0.5H22.7z M37.1,51.6
		c0.2,0.3,0.5,0.5,0.9,0.5c0.4,0,0.7-0.2,0.9-0.5H37.1z M48,44.6c-0.2,0.2-0.4,0.4-0.6,0.6c-0.1,0.1-0.1,0.2-0.1,0.2
		c0,0.1,0,0.1,0.1,0.2c0.5,0.5,1,0.9,1.4,1.3c0.2,0.2,0.4,0.3,0.6,0.3h2.2l-3.3-2.9L48,44.6z M47.1,42.5c0.5,0,1.1,0.2,1.5,0.6
		l0.7,0.6V31.3c-0.2-0.1-0.4-0.2-0.6-0.2L45,29.9v4.4l0.5,0.2c0.2,0,0.3,0.1,0.4,0.3c0.1,0.1,0.1,0.3,0.1,0.5l0,7.3L47.1,42.5z
		 M40.5,42.5v-8.2l-0.3,0.1c-1.2,0.6-2.5,1.1-3.8,1.7c-1.2,0.5-2.3,1-3.4,1.5l0,4.8H40.5z M45.1,42.5v-7.1c-0.6-0.2-1.2-0.4-1.8-0.6
		c-0.6-0.2-1.2-0.4-1.8-0.6l0,8.3H45.1z M27.9,42.5l-1.1-1.1v1.1H27.9z M28.7,42v-1.2h-1.2L28.7,42z M27.8,39.8l-1-1v1H27.8z
		 M28.7,39.3v-1.1h-1.1L28.7,39.3z M27.9,37.3l-1.1-1.1v1.1H27.9z M28.7,36.8v-1h-1L28.7,36.8z M28.2,34.8l-1.4-1.4v1.4H28.2z
		 M41.1,32.8c0.1,0,0.2,0,0.2,0c0.7,0.3,1.4,0.5,2.1,0.8l0.6,0.2v-4.1c-1.4,0.6-2.9,1.3-4.3,1.9l0,1.7c0.2-0.1,0.4-0.2,0.6-0.3
		l0.5-0.2C40.9,32.9,41,32.8,41.1,32.8z M28.7,33.9V32h-1.9L28.7,33.9z M29.2,31.1c0.2-0.3,0.4-1.5,0.2-2.7
		c-0.1-0.4-0.2-0.6-0.2-0.7h-2.8v3.4H29.2z M35.5,29.8v-2.4h-0.5v2.4H35.5z M22.7,27.7v-0.9h-2.1v0.9H22.7z M35.5,26.4v-0.2h-0.5
		v0.2H35.5z M28.7,25.8l-0.4-1.4v1.4H28.7z M27.3,25.8v-1.1L27,25.8H27.3z M32.7,25.8c0-0.2,0-0.5,0.2-0.7l-0.6-0.5l-1.5,1.2H32.7z
		 M45.6,25.8L44,24.6l-1.5,1.2H45.6z M39.7,25.8l-1.5-1.2l-0.6,0.5c0.1,0.2,0.2,0.4,0.2,0.7H39.7z M25.9,25.8l1-3.6L21.3,25l3,0
		l0.2,0c0.3,0,0.5,0.2,0.5,0.5v0.3H25.9z M33.8,25.6C33.8,25.6,33.7,25.6,33.8,25.6c-0.1,0.1,0,0.1,0,0.1
		C33.9,25.6,33.8,25.6,33.8,25.6z M41.1,25.6l1.5-1.2h-3L41.1,25.6z M29.6,25.4l2.4-1.9l0.2,0h2.2l-6-1.6L29.6,25.4z M35.7,25.2
		c0.1-0.3,0.4-0.5,0.7-0.5l0.2-0.2h-3l0.2,0.2c0,0,0,0,0,0c0.3,0,0.6,0.2,0.8,0.5H35.7z"/>
	<path class="st1" d="M38.1,48.6l-0.1,0c-0.1,0-0.2-0.1-0.3-0.2s-0.1-0.2,0-0.4l0-3.7l0-0.1c0-0.3,0.3-0.4,0.5-0.4l4.6,0
		c0.1,0,0.2,0.1,0.3,0.2c0.1,0.1,0.1,0.2,0.1,0.4l0,3.7c0,0.4-0.2,0.5-0.6,0.5h-2.4l0,0L38.1,48.6L38.1,48.6L38.1,48.6z M38.6,44.6
		C38.5,44.6,38.5,44.6,38.6,44.6l0,3.1l3.8,0l0-3.1l-1.9,0H38.6l0-0.1L38.6,44.6v-0.2V44.6z"/>
	<path class="st1" d="M40.4,48.4h2.2c0.3,0,0.4-0.1,0.4-0.3c0-1.3,0-2.5,0-3.8c0-0.2-0.1-0.3-0.2-0.3c0,0-0.1,0-0.1,0h-4.4
		c-0.2,0-0.3,0.1-0.4,0.3c0,0,0,0.1,0,0.1c0,1.2,0,2.5,0,3.8c0,0.1,0,0.3,0.2,0.3c0,0,0.1,0,0.1,0L40.4,48.4L40.4,48.4z M38.6,44.4
		c0.6,0,1.2,0,1.9,0s1.2,0,1.9,0c0.2,0,0.2,0,0.2,0.2c0,1,0,2.1,0,3.1c0,0.2,0,0.2-0.2,0.2c-1.2,0-2.5,0-3.8,0
		c-0.2,0-0.2-0.1-0.2-0.2c0-1,0-2,0-3.1C38.3,44.5,38.4,44.4,38.6,44.4L38.6,44.4z"/>
	<path class="st1" d="M30.5,48.6l-0.1,0c-0.1,0-0.2-0.1-0.3-0.2c-0.1-0.1-0.1-0.2,0-0.4l0-3.7c0,0,0-0.1,0-0.1
		c0-0.2,0.3-0.4,0.5-0.4l0.1,0l4.4,0l0.1,0.2l0-0.2c0.3,0.1,0.4,0.3,0.4,0.6l0,3.7c0,0.4-0.2,0.5-0.6,0.5h-2.3l0,0L30.5,48.6
		L30.5,48.6L30.5,48.6z M31,44.6C31,44.6,30.9,44.6,31,44.6l0,3.1l3.8,0c0-1.1,0-2.1,0-3.1l-1.9,0H31l0-0.1L31,44.6v-0.2V44.6z"/>
	<path class="st1" d="M32.9,48.4h2.2c0.3,0,0.4-0.1,0.4-0.3c0-1.3,0-2.5,0-3.8c0-0.2-0.1-0.3-0.2-0.3c0,0-0.1,0-0.1,0h-4.4
		c-0.2,0-0.3,0.1-0.4,0.2c0,0,0,0.1,0,0.1c0,1.2,0,2.5,0,3.8c0,0.1,0,0.3,0.2,0.3c0,0,0.1,0,0.1,0L32.9,48.4L32.9,48.4z M31,44.4
		c0.6,0,1.2,0,1.9,0s1.2,0,1.9,0c0.2,0,0.2,0,0.2,0.2c0,1,0,2,0,3.1c0,0.2,0,0.2-0.2,0.2c-1.2,0-2.5,0-3.8,0c-0.2,0-0.2-0.1-0.2-0.2
		c0-1,0-2,0-3.1C30.8,44.5,30.8,44.4,31,44.4L31,44.4z"/>
	<path class="st1" d="M23,48.6l-0.1,0c-0.1,0-0.2-0.1-0.3-0.2s-0.1-0.2,0-0.4l0-3.7l0-0.1c0-0.2,0.3-0.4,0.5-0.4l4.5,0
		c0,0,0.1,0,0.1,0c0,0,0.1,0,0.1,0c0.1,0,0.2,0.1,0.3,0.2c0.1,0.1,0.1,0.2,0.1,0.4l0,3.7c0,0.4-0.2,0.5-0.6,0.5h-2.4v0L23,48.6
		L23,48.6L23,48.6z M23.4,44.6l0,3.1l3.8,0l0-3.1l-1.9,0L23.4,44.6C23.4,44.6,23.4,44.6,23.4,44.6z"/>
	<path class="st1" d="M25.3,48.4h2.2c0.3,0,0.4-0.1,0.4-0.3c0-1.3,0-2.5,0-3.8c0-0.2-0.1-0.3-0.2-0.3c0,0-0.1,0-0.1,0h-4.4
		c-0.2,0-0.3,0.1-0.4,0.3c0,0,0,0.1,0,0.1c0,1.2,0,2.5,0,3.8c0,0.1,0,0.3,0.2,0.3c0,0,0.1,0,0.1,0L25.3,48.4L25.3,48.4z M23.5,44.4
		c0.6,0,1.2,0,1.9,0c0.6,0,1.2,0,1.9,0c0.2,0,0.2,0,0.2,0.2c0,1,0,2.1,0,3.1c0,0.2,0,0.2-0.2,0.2c-1.2,0-2.5,0-3.8,0
		c-0.2,0-0.2-0.1-0.2-0.2c0-1,0-2,0-3.1C23.2,44.5,23.3,44.4,23.5,44.4z"/>
</g>
</svg>
