<?xml version="1.0" encoding="utf-8"?>
<!-- Generator: Adobe Illustrator 21.0.2, SVG Export Plug-In . SVG Version: 6.00 Build 0)  -->
<svg version="1.1" id="Layer_1" xmlns="http://www.w3.org/2000/svg" xmlns:xlink="http://www.w3.org/1999/xlink" x="0px" y="0px"
	 viewBox="0 0 74 74" style="enable-background:new 0 0 74 74;" xml:space="preserve">
<style type="text/css">
	.st0{fill:none;stroke:#006FAF;stroke-width:2;stroke-miterlimit:10;}
	.st1{fill:#006FAF;}
</style>
<title>Cloud &amp;amp; Infrastructure Services</title>
<circle class="st0" cx="37" cy="37" r="36"/>
<g>
	<path class="st1" d="M37.9,37c0,0.5-0.4,0.9-0.9,0.9l0,0c-0.5,0-0.9-0.4-0.9-0.9v-6.2c0-0.5,0.4-0.9,0.9-0.9l0,0
		c0.5,0,0.9,0.4,0.9,0.9V37z"/>
	<path class="st1" d="M30.5,42.7c-0.4,0.3-1,0.2-1.3-0.2l0,0c-0.3-0.4-0.2-1,0.2-1.3l7.1-4.9c0.4-0.3,1-0.2,1.3,0.2l0,0
		c0.3,0.4,0.2,1-0.2,1.3L30.5,42.7z"/>
	<g>
		<path class="st1" d="M37,50.2c-3.5,0-6.8-1.4-9.3-3.9c-2.5-2.5-3.9-5.8-3.9-9.3c0-3.5,1.4-6.8,3.9-9.3c2.5-2.5,5.8-3.9,9.3-3.9
			c3.5,0,6.8,1.4,9.3,3.9c2.5,2.5,3.9,5.8,3.9,9.3c0,1.3-0.2,2.5-0.5,3.7h1.9c0.3-1.2,0.5-2.4,0.5-3.7c0-8.3-6.7-15-15-15
			s-15,6.7-15,15s6.7,15,15,15c1.3,0,2.5-0.2,3.7-0.5v-1.9C39.5,50,38.3,50.2,37,50.2z"/>
	</g>
	<polygon class="st1" points="47.4,41.9 47.4,37.3 41.9,37.3 41.9,41.9 37.3,41.9 37.3,47.4 41.9,47.4 41.9,52 47.4,52 47.4,47.4 
		52,47.4 52,41.9 	"/>
</g>
</svg>
