<?xml version="1.0" encoding="utf-8"?>
<!-- Generator: Adobe Illustrator 21.0.0, SVG Export Plug-In . SVG Version: 6.00 Build 0)  -->
<svg version="1.1" id="Layer_1" xmlns="http://www.w3.org/2000/svg" xmlns:xlink="http://www.w3.org/1999/xlink" x="0px" y="0px"
	 viewBox="0 0 74 74" style="enable-background:new 0 0 74 74;" xml:space="preserve">
<style type="text/css">
	.st0{fill:#006FAF;}
</style>
<title>health-checks</title>
<path class="st0" d="M37,74C16.6,74,0,57.4,0,37S16.6,0,37,0s37,16.6,37,37S57.4,74,37,74z M37,2C17.7,2,2,17.7,2,37s15.7,35,35,35
	s35-15.7,35-35S56.3,2,37,2z"/>
<g>
	<path class="st0" d="M47,26.7H17.5c-0.3,0-0.5,0.3-0.5,0.5v26.5c0,0.3,0.3,0.5,0.5,0.5h29.5c0.3,0,0.5-0.3,0.5-0.5V27.2
		C47.4,26.9,47.3,26.7,47,26.7z M46.5,53.2H18V27.6h18v3H19.5c-0.3,0-0.5,0.3-0.5,0.5c0,0.3,0.3,0.5,0.5,0.5h25.6
		c0.3,0,0.5-0.3,0.5-0.5c0-0.3-0.3-0.5-0.5-0.5H37v-3h9.5V53.2z"/>
	<circle class="st0" cx="41.8" cy="29.1" r="0.5"/>
	<circle class="st0" cx="39.1" cy="29.1" r="0.5"/>
	<circle class="st0" cx="44.3" cy="29.1" r="0.5"/>
	<g>
		<g>
			<path class="st0" d="M42.5,42.5l-1.2-0.6l-0.6-3c-0.1-0.8-0.9-1.3-1.7-1.3h-3.5V37c0-0.3-0.1-0.4-0.4-0.4H22.4
				c-0.3,0-0.4,0.1-0.4,0.4v10c0,0.3,0.1,0.4,0.4,0.4h1.3c0.3,0.9,1,1.7,2.1,1.7s1.8-0.8,2.1-1.7h8.5l0,0c0.3,0.9,1,1.7,2.1,1.7
				s1.8-0.8,2.1-1.7h2.2c0.3,0,0.4-0.1,0.4-0.4v-4.1C42.8,42.7,42.7,42.6,42.5,42.5z M25.6,48.3c-0.6,0-1.3-0.5-1.3-1.3
				s0.5-1.3,1.3-1.3c0.6,0,1.3,0.5,1.3,1.3S26.2,48.3,25.6,48.3z M34.7,45.1H31c-0.3,0-0.4,0.1-0.4,0.4c0,0.3,0.1,0.4,0.4,0.4h3.7
				v0.6h-7.1c-0.3-0.9-1-1.7-2.1-1.7s-1.8,0.8-2.1,1.7h-0.9v-2.2h12.1L34.7,45.1L34.7,45.1z M34.7,38v5.7H22.6v-6.2h12.1V38z
				 M37.9,38.4h1c0.4,0,0.8,0.3,0.9,0.6l0.6,2.6h-2.6V38.4L37.9,38.4z M38.2,48.3c-0.6,0-1.2-0.5-1.3-1.2c0,0,0,0,0-0.1
				c0,0,0,0,0-0.1c0-0.6,0.6-1.2,1.3-1.2s1.3,0.5,1.3,1.3S38.8,48.3,38.2,48.3z M41.9,44.5h-0.8v-0.4h0.8V44.5z M41.9,43.3h-1.2
				c-0.3,0-0.4,0.1-0.4,0.4v1.3c0,0.3,0.1,0.4,0.4,0.4h1.2v1.2h-1.7c-0.3-0.9-1-1.7-2.1-1.7s-1.8,0.8-2.1,1.7h-0.6v-8.2H37v3.9
				c0,0.3,0.1,0.4,0.4,0.4h3.5l1,0.6V43.3L41.9,43.3z"/>
		</g>
	</g>
	<path class="st0" d="M56.4,24.6h-2.3c-0.1-0.4-0.3-0.9-0.5-1.3l1.7-1.7c0.1-0.1,0.1-0.3,0.1-0.4c0-0.1,0-0.3-0.1-0.4l-2.1-1.9
		c-0.3-0.3-0.5-0.3-0.8,0l-1.7,1.7c-0.4-0.3-0.9-0.4-1.3-0.5v-2.4c0-0.3-0.3-0.5-0.5-0.5h-3c-0.3,0-0.5,0.3-0.5,0.5V20
		c-0.4,0.1-0.9,0.3-1.3,0.5l-1.7-1.5c-0.3-0.3-0.5-0.3-0.8,0L39.7,21c-0.1,0-0.1,0.3-0.1,0.4s0,0.3,0.1,0.4l1.7,1.7
		c-0.3,0.4-0.4,0.9-0.5,1.3h-2.3c-0.3,0-0.5,0.3-0.5,0.5v1.4h1v-0.9h2.2c0.3,0,0.5-0.1,0.5-0.4c0.1-0.6,0.4-1.2,0.8-1.8
		c0.1-0.3,0.1-0.5-0.1-0.6l-1.5-1.5l1.3-1.3l1.5,1.5c0.1,0.1,0.5,0.3,0.6,0.1c0.5-0.4,1.2-0.6,1.8-0.8c0.3,0,0.4-0.3,0.4-0.5v-2.2
		h1.8v2.2c0,0.3,0.1,0.5,0.4,0.5c0.6,0.1,1.2,0.4,1.8,0.8c0.3,0.1,0.5,0.1,0.6-0.1l1.5-1.5l1.3,1.3l-1.5,1.5
		c-0.1,0.1-0.3,0.5-0.1,0.6c0.4,0.5,0.6,1.2,0.8,1.8c0,0.3,0.3,0.4,0.5,0.4h2.2v1.8h-2.1c-0.3,0-0.5,0.1-0.5,0.4
		c-0.1,0.6-0.4,1.2-0.8,1.8c-0.1,0.3-0.1,0.5,0.1,0.6l1.5,1.5l-1.3,1.3l-1.5-1.5c-0.1-0.1-0.5-0.3-0.6-0.1c-0.5,0.4-1.2,0.6-1.8,0.8
		c-0.3,0-0.4,0.3-0.4,0.5V35H47v1H49c0.3,0,0.5-0.3,0.5-0.5v-2.3c0.4-0.1,0.9-0.3,1.3-0.5l1.7,1.7c0.3,0.3,0.5,0.3,0.8,0l2.1-2.1
		c0.1-0.1,0.1-0.3,0.1-0.4s0-0.3-0.1-0.4l-1.7-1.7c0.3-0.4,0.4-0.9,0.5-1.3h2.3c0.3,0,0.5-0.3,0.5-0.5v-3
		C57,24.9,56.7,24.6,56.4,24.6z"/>
</g>
</svg>
