<?xml version="1.0" encoding="utf-8"?>
<!-- Generator: Adobe Illustrator 21.0.0, SVG Export Plug-In . SVG Version: 6.00 Build 0)  -->
<svg version="1.1" id="Layer_1" xmlns="http://www.w3.org/2000/svg" xmlns:xlink="http://www.w3.org/1999/xlink" x="0px" y="0px"
	 viewBox="0 0 74 74" style="enable-background:new 0 0 74 74;" xml:space="preserve">
<style type="text/css">
	.st0{fill:#006FAF;}
</style>
<title>health-checks</title>
<path class="st0" d="M37,74C16.6,74,0,57.4,0,37S16.6,0,37,0s37,16.6,37,37S57.4,74,37,74z M37,2C17.7,2,2,17.7,2,37s15.7,35,35,35
	s35-15.7,35-35S56.3,2,37,2z"/>
<g>
	<g>
		<path class="st0" d="M51.4,46.5H29.1c-0.6,0-1.1-0.2-1.4-0.7c-0.3-0.4-0.5-1-0.3-1.5l3-14.7c0.2-1.1,1.3-2,2.5-2h22.3
			c0.6,0,1.1,0.2,1.4,0.7c0.3,0.4,0.5,1,0.3,1.5l-3,14.7C53.7,45.6,52.6,46.5,51.4,46.5z M32.8,28.4c-0.7,0-1.5,0.6-1.6,1.3l-3,14.7
			c-0.1,0.3,0,0.6,0.2,0.8c0.2,0.2,0.5,0.3,0.8,0.3h22.3c0.7,0,1.5-0.6,1.6-1.3l0,0l3-14.7c0.1-0.3,0-0.6-0.2-0.8
			c-0.2-0.2-0.5-0.3-0.8-0.3C55.2,28.4,32.8,28.4,32.8,28.4z"/>
		<path class="st0" d="M41.9,39.2c-0.6,0-1.3-0.2-1.7-0.7l-8.5-8.9c-0.2-0.2-0.2-0.4,0-0.6c0.2-0.2,0.4-0.2,0.6,0l8.5,8.9
			c0.5,0.5,1.4,0.6,2,0.2l12.5-9.2c0.2-0.1,0.5-0.1,0.6,0.1c0.1,0.2,0.1,0.5-0.1,0.6l-12.5,9.2C42.9,39,42.4,39.2,41.9,39.2z"/>
	</g>
	<path class="st0" d="M27.4,30.7h-5.7c-0.2,0-0.4-0.2-0.4-0.4c0-0.2,0.2-0.4,0.4-0.4h5.7c0.2,0,0.4,0.2,0.4,0.4
		C27.8,30.6,27.6,30.7,27.4,30.7z"/>
	<path class="st0" d="M26.2,36.5h-8.8c-0.2,0-0.4-0.2-0.4-0.4c0-0.2,0.2-0.4,0.4-0.4h8.8c0.2,0,0.4,0.2,0.4,0.4
		C26.7,36.3,26.5,36.5,26.2,36.5z"/>
	<path class="st0" d="M24.8,41.6h-4.3c-0.2,0-0.4-0.2-0.4-0.4c0-0.2,0.2-0.4,0.4-0.4h4.3c0.2,0,0.4,0.2,0.4,0.4
		C25.2,41.4,25,41.6,24.8,41.6z"/>
</g>
</svg>
