<?xml version="1.0" encoding="utf-8"?>
<!-- Generator: Adobe Illustrator 21.0.2, SVG Export Plug-In . SVG Version: 6.00 Build 0)  -->
<svg version="1.1" id="Layer_1" xmlns="http://www.w3.org/2000/svg" xmlns:xlink="http://www.w3.org/1999/xlink" x="0px" y="0px"
	 viewBox="0 0 74 74" style="enable-background:new 0 0 74 74;" xml:space="preserve">
<style type="text/css">
	.st0{fill:#006FAF;}
	.st1{fill:none;stroke:#006FAF;stroke-width:2;stroke-miterlimit:10;}
</style>
<g>
	<path class="st0" d="M57,40.2c0-3.2-2.6-5.8-5.8-5.8c-3.2,0-5.8,2.6-5.8,5.8c0,2.9,2.1,5.2,4.7,5.7v0.4c0,5.5-4.4,9.9-9.9,9.9
		s-9.9-4.4-9.9-9.9v-3.3c2.8-0.3,5.4-1.4,7.4-3.3c2.5-2.3,3.9-5.5,3.9-8.8v-7.7c0-2.9-2.2-5.2-5.1-5.4c-0.4-1.1-1.5-1.9-2.8-1.9
		c-1.7,0-3,1.4-3,3s1.4,3,3,3c1.2,0,2.3-0.8,2.8-1.9c1.7,0.1,3,1.7,3,3.3v7.7c0,2.8-1.1,5.4-3.2,7.3c-2.1,1.9-4.7,2.9-7.6,2.8
		c-5.4-0.3-9.7-4.8-9.7-10.5v-7.4c0-1.5,1.1-2.8,2.5-3.2c0.4,1.1,1.5,1.8,2.8,1.8c1.7,0,3-1.4,3-3s-1.4-3-3-3
		c-1.4,0-2.5,0.8-2.9,2.1c-2.5,0.4-4.4,2.6-4.4,5.4v7.4c0,6.5,4.8,12,11.2,12.6v3.3c0,6.6,5.4,12,12,12s12-5.4,12-12V46
		C54.9,45.4,57,42.9,57,40.2z"/>
</g>
<circle class="st1" cx="37" cy="37" r="36"/>
</svg>
