<?xml version="1.0" encoding="utf-8"?>
<!-- Generator: Adobe Illustrator 21.1.0, SVG Export Plug-In . SVG Version: 6.00 Build 0)  -->
<svg version="1.1" xmlns="http://www.w3.org/2000/svg" xmlns:xlink="http://www.w3.org/1999/xlink" x="0px" y="0px"
	 viewBox="0 0 74 74" style="enable-background:new 0 0 74 74;" xml:space="preserve">
<style type="text/css">
	.st0{fill:none;stroke:#006FAF;stroke-width:2;stroke-miterlimit:10;}
	.st1{fill:#006FAF;stroke:#006FAF;stroke-miterlimit:10;}
	.st2{fill:#006FAF;}
	.st3{fill:#006FAF;stroke:#006FAF;stroke-width:0.75;stroke-miterlimit:10;}
	.st4{fill:none;stroke:#006FAF;stroke-width:1.5;stroke-miterlimit:10;}
	.st5{fill:none;stroke:#006FAF;stroke-miterlimit:10;}
	.st6{fill:#006FAF;stroke:#006FAF;stroke-width:0.5;stroke-miterlimit:10;}
	.st7{fill:#006FAF;stroke:#006FAF;stroke-width:1.5;stroke-miterlimit:10;}
	.st8{fill:none;stroke:#006FAF;stroke-width:0.75;stroke-miterlimit:10;}
</style>
<g id="independent-sales-organizations">
	<g id="Layer_13">
	</g>
</g>
<g id="payment-gateways">
</g>
<g id="acquirers">
</g>
<g id="merchants">
	<circle class="st0" cx="37" cy="37" r="36"/>
	<g>
		<path class="st3" d="M43.8,39.9c-0.2-0.2-0.5-0.2-0.8,0c-0.2,0.2-0.2,0.5,0,0.8l6.2,6.2c0.5,0.5,0.5,1.2,0,1.7
			c-0.5,0.5-1.2,0.5-1.7,0l-6.2-6.2c-0.2-0.2-0.6-0.2-0.8,0c-0.2,0.2-0.2,0.5,0,0.8l6.2,6.2l1.7,1.7c0.2,0.2,0.4,0.5,0.4,0.9
			c0,0.3-0.1,0.6-0.4,0.9c-0.5,0.5-1.3,0.5-1.7,0l-0.8-0.8l-6.6-6.6c-0.2-0.2-0.5-0.2-0.8,0c-0.2,0.2-0.2,0.5,0,0.8l6.6,6.6
			c0.5,0.5,0.5,1.2,0,1.7c-0.5,0.5-1.2,0.5-1.7,0l-0.8-0.8l-5.4-5.4c-0.2-0.2-0.6-0.2-0.8,0c-0.2,0.2-0.2,0.6,0,0.8l5.4,5.4l0,0
			c0.2,0.2,0.4,0.5,0.4,0.9c0,0.3-0.1,0.6-0.4,0.9c-0.5,0.5-1.2,0.5-1.7,0l-9.9-9.9c-1.5-1.5-1.9-3.4-2.2-5.1
			c-0.2-1.4-0.5-2.7-1.4-3.6c-0.2-0.2-0.5-0.2-0.8,0c-0.2,0.2-0.2,0.6,0,0.8c0.6,0.6,0.8,1.8,1.1,3.1c0.3,1.8,0.7,4,2.4,5.7l9.9,9.9
			c0.4,0.4,1,0.7,1.6,0.7s1.2-0.2,1.6-0.7c0.3-0.3,0.6-0.8,0.6-1.2c0.9,0.4,1.9,0.3,2.7-0.4c0.3-0.3,0.6-0.8,0.6-1.2
			c0.3,0.2,0.7,0.3,1.1,0.3l0,0c0.6,0,1.2-0.2,1.6-0.7c0.4-0.4,0.7-1,0.7-1.6c0-0.6-0.2-1.2-0.7-1.6l-0.3-0.3
			c0.4-0.1,0.8-0.3,1.1-0.6c0.9-0.9,0.9-2.3,0-3.2L43.8,39.9z M53.4,34.9c-0.9,0.9-1.3,2.5-1.6,4c-0.3,1.3-0.6,2.7-1.3,3.4l-0.8,0.8
			c-0.2,0.2-0.2,0.5,0,0.8c0.1,0.1,0.2,0.2,0.4,0.2c0.1,0,0.3-0.1,0.4-0.2l0.8-0.8c0.9-0.9,1.3-2.5,1.6-4c0.3-1.3,0.6-2.7,1.3-3.4
			c0.2-0.2,0.2-0.6,0-0.8C54,34.7,53.6,34.7,53.4,34.9z M31.6,38.6c0,0.3,0.1,0.6,0.3,0.8l0.4,0.4c0.5,0.5,1.3,0.8,2,0.8
			c0.8,0,1.5-0.3,2-0.8l2.9-2.9c2.5,2.1,6.3,2,8.6-0.4c0.2-0.2,0.2-0.6,0-0.8c-0.2-0.2-0.6-0.2-0.8,0c-2.1,2.1-5.4,2.1-7.5,0
			c-0.2-0.2-0.5-0.2-0.8,0L35.6,39c-0.7,0.7-1.9,0.7-2.5,0l-0.4-0.4v-0.1l7-7c0.7-0.7,1.3-0.7,2.1-0.7c0.9,0,1.9,0,2.9-1l1.7-1.7
			c0.2-0.2,0.2-0.5,0-0.8c-0.2-0.2-0.6-0.2-0.8,0l-1.7,1.7c-0.7,0.7-1.3,0.7-2.1,0.7c-0.9,0-1.9,0-2.9,1l-7,7
			C31.7,38,31.6,38.3,31.6,38.6z M33.2,29.9c-0.2,0.2-0.2,0.5,0,0.8l1.7,1.7c0.1,0.1,0.2,0.2,0.4,0.2c0.1,0,0.3-0.1,0.4-0.2
			c0.2-0.2,0.2-0.5,0-0.8l-1.7-1.7C33.7,29.7,33.4,29.7,33.2,29.9z M60.6,27.5c-0.2-0.2-0.5-0.2-0.8,0c-0.2,0.2-0.2,0.6,0,0.8
			c0.8,0.8,1.1,1.5,1.1,2.1c-0.1,0.7-0.7,1.2-0.7,1.2c0,0,0,0-0.1,0.1l-3.4,3l-9.2-9.2l2-2c0.2-0.2,0.2-0.6,0-0.8
			c-0.2-0.2-0.5-0.2-0.8,0L46.4,25c-0.1,0.1-0.2,0.2-0.2,0.4c0,0.1,0.1,0.3,0.2,0.4l9.9,9.9c0.1,0.1,0.2,0.2,0.4,0.2
			c0.1,0,0.3,0,0.4-0.1l3.7-3.3c0.2-0.1,1.1-0.8,1.2-1.9C62.1,29.5,61.6,28.5,60.6,27.5z M33.8,27.7c0-0.1-0.1-0.3-0.2-0.4L31.3,25
			c-0.2-0.2-0.5-0.2-0.8,0c-0.2,0.2-0.2,0.5,0,0.8l2,2l-9.2,9.2l-3.4-3c0,0,0,0-0.1-0.1c0,0-0.7-0.4-0.7-1.2
			c-0.1-0.6,0.3-1.3,1.1-2.1c0.2-0.2,0.2-0.5,0-0.8c-0.2-0.2-0.5-0.2-0.8,0c-1,1-1.5,2-1.4,3c0.1,1.1,1,1.8,1.2,1.9l3.7,3.3
			c0.1,0.1,0.2,0.1,0.4,0.1c0.1,0,0.3-0.1,0.4-0.2l9.9-9.9C33.7,28,33.8,27.8,33.8,27.7z M36.6,56.3c-0.3,0.2-0.9,0.2-1.4-0.3
			c-0.5-0.5-0.5-1.1-0.3-1.4c0.1-0.2,0.1-0.5-0.1-0.7c-0.2-0.2-0.5-0.2-0.7,0c-0.5,0.5-1.2,0.5-1.7,0c-0.2-0.2-0.4-0.5-0.4-0.9
			c0-0.3,0.1-0.6,0.4-0.9c0.2-0.2,0.2-0.5,0-0.8c-0.2-0.2-0.6-0.2-0.8,0l-0.4,0.4c-0.5,0.5-1.2,0.5-1.7,0C29.1,51.6,29,51.3,29,51
			s0.1-0.6,0.4-0.9l0.4-0.4c0.2-0.2,0.2-0.5,0-0.7c-0.2-0.2-0.5-0.3-0.7-0.1c-0.3,0.2-0.9,0.2-1.4-0.3c-0.5-0.5-0.5-1.1-0.4-1.4
			c0.2-0.2,0.1-0.6-0.1-0.7c-0.2-0.2-0.6-0.1-0.7,0.1C26,47.2,26,48.4,27,49.3c0.4,0.4,0.8,0.6,1.2,0.7c-0.1,0.3-0.2,0.6-0.2,1
			c0,0.6,0.2,1.2,0.7,1.6c0.6,0.6,1.5,0.8,2.2,0.6c0,0.6,0.3,1.1,0.7,1.5c0.6,0.6,1.4,0.8,2.2,0.6c0.1,0.5,0.3,1,0.7,1.5
			c0.5,0.5,1.2,0.7,1.7,0.7c0.4,0,0.7-0.1,1-0.2c0.3-0.1,0.4-0.5,0.2-0.7C37.2,56.3,36.9,56.2,36.6,56.3z"/>
	</g>
</g>
<g id="processors-payment-transfers">
</g>
<g id="technology-providers">
</g>
<g id="mobile-payment-providers">
</g>
<g id="alternate-payment-providers">
</g>
<g id="white-label-payment-gateway">
</g>
<g id="deep-financial-services">
</g>
</svg>
