<?xml version="1.0" encoding="utf-8"?>
<!-- Generator: Adobe Illustrator 21.1.0, SVG Export Plug-In . SVG Version: 6.00 Build 0)  -->
<svg version="1.1" xmlns="http://www.w3.org/2000/svg" xmlns:xlink="http://www.w3.org/1999/xlink" x="0px" y="0px"
	 viewBox="0 0 74 74" style="enable-background:new 0 0 74 74;" xml:space="preserve">
<style type="text/css">
	.st0{fill:none;stroke:#006FAF;stroke-width:2;stroke-miterlimit:10;}
	.st1{fill:#006FAF;stroke:#006FAF;stroke-miterlimit:10;}
	.st2{fill:#006FAF;}
	.st3{fill:#006FAF;stroke:#006FAF;stroke-width:0.75;stroke-miterlimit:10;}
	.st4{fill:none;stroke:#006FAF;stroke-width:1.5;stroke-miterlimit:10;}
	.st5{fill:none;stroke:#006FAF;stroke-miterlimit:10;}
	.st6{fill:#006FAF;stroke:#006FAF;stroke-width:0.5;stroke-miterlimit:10;}
	.st7{fill:#006FAF;stroke:#006FAF;stroke-width:1.5;stroke-miterlimit:10;}
	.st8{fill:none;stroke:#006FAF;stroke-width:0.75;stroke-miterlimit:10;}
</style>
<g id="independent-sales-organizations">
	<g id="Layer_13">
	</g>
</g>
<g id="payment-gateways">
</g>
<g id="acquirers">
</g>
<g id="merchants">
</g>
<g id="processors-payment-transfers">
</g>
<g id="technology-providers">
</g>
<g id="mobile-payment-providers">
	<circle class="st0" cx="37.1" cy="37" r="36"/>
	<g>
		<path class="st4" d="M32.6,30.6v12.6c0,1.2,1,2.1,2.1,2.1h10.6v6.7c0,1.6-1.3,2.9-2.8,2.9H27.6c-1.6,0-2.9-1.3-2.9-2.9V22.8
			c0-1.6,1.3-2.8,2.9-2.8h14.9c1.6,0,2.8,1.3,2.8,2.8v5.7H34.7C33.5,28.6,32.6,29.5,32.6,30.6z"/>
		<line class="st4" x1="24.8" y1="24.9" x2="45.3" y2="24.9"/>
		<line class="st4" x1="24.8" y1="49" x2="45.3" y2="49"/>
		<line class="st4" x1="33.3" y1="51.9" x2="36.8" y2="51.9"/>
		<line class="st5" x1="35.1" y1="37.6" x2="37.7" y2="37.6"/>
		<path class="st5" d="M38.4,33.9c0,0.2-0.2,0.4-0.4,0.4h-2.5c-0.2,0-0.4-0.2-0.4-0.4v-2.5c0-0.2,0.2-0.4,0.4-0.4h2.5
			c0.2,0,0.4,0.2,0.4,0.4L38.4,33.9L38.4,33.9z"/>
		<path class="st5" d="M54.9,41.8c0,0.8-0.7,1.5-1.5,1.5c-0.4,0-0.8-0.2-1-0.4c-0.3,0.3-0.6,0.4-1,0.4c-0.8,0-1.5-0.7-1.5-1.5
			c0-0.8,0.7-1.5,1.5-1.5c0.4,0,0.8,0.2,1,0.4c0.3-0.3,0.6-0.4,1-0.4C54.2,40.3,54.9,41,54.9,41.8z"/>
		<line class="st5" x1="35.1" y1="41.8" x2="42.6" y2="41.8"/>
		<line class="st5" x1="39.9" y1="37.6" x2="42.6" y2="37.6"/>
		<line class="st5" x1="44.8" y1="37.6" x2="47.5" y2="37.6"/>
		<line class="st5" x1="49.6" y1="37.6" x2="52.4" y2="37.6"/>
		<path class="st4" d="M57.3,43.3c0,1.2-0.9,2.1-2.1,2.1H34.7c-1.2,0-2.1-0.9-2.1-2.1V30.7c0-1.2,0.9-2.1,2.1-2.1h20.5
			c1.2,0,2.1,0.9,2.1,2.1V43.3z"/>
	</g>
</g>
<g id="alternate-payment-providers">
</g>
<g id="white-label-payment-gateway">
</g>
<g id="deep-financial-services">
</g>
</svg>
