<?xml version="1.0" encoding="utf-8"?>
<!-- Generator: Adobe Illustrator 21.1.0, SVG Export Plug-In . SVG Version: 6.00 Build 0)  -->
<svg version="1.1" xmlns="http://www.w3.org/2000/svg" xmlns:xlink="http://www.w3.org/1999/xlink" x="0px" y="0px"
	 viewBox="0 0 74 74" style="enable-background:new 0 0 74 74;" xml:space="preserve">
<style type="text/css">
	.st0{fill:none;stroke:#006FAF;stroke-width:2;stroke-miterlimit:10;}
	.st1{fill:none;stroke:#006FAF;stroke-miterlimit:10;}
	.st2{fill:#006FAF;}
	.st3{fill:none;stroke:#006FAF;stroke-width:1.2;stroke-miterlimit:10;}
</style>
<g id="Oil__x26__Gas_Upstream">
	<g id="Layer_13">
	</g>
</g>
<g id="Oil__x26__Gas_Downstream">
</g>
<g id="Oil__x26__Gas_Midstream">
	<circle class="st0" cx="37.4" cy="37" r="36"/>
	<g>
		<path class="st3" d="M57.4,41.6c-1.5-1-3-1.9-4.6-2.4c-0.9-0.3-0.6-1.2-0.6-1.9c-0.1-0.6-0.1-1.2-0.9-1.2c-0.8,0-0.8,0.6-0.8,1.2
			c0,2.9,0,5.7,0,8.6c0,0.6,0,1.2,0.8,1.2c0.8,0,0.9-0.5,0.9-1.1c0-1.4,0.6-1.2,1.4-0.5c1.4,1.2,1.5,2.1,0.5,3.6
			c-8,11.3-25.1,11.5-33.3,0.3c-1-1.4-0.3-3.8,1.4-4.4c0.9-0.3,0.7,0.4,0.7,0.8c0.1,0.6-0.1,1.3,0.9,1.3c0.9,0,0.8-0.8,0.8-1.4
			c0-2.7,0-5.5,0-8.2c0-0.6,0.2-1.3-0.8-1.4c-0.9,0-0.9,0.7-0.9,1.3c0.1,1.2-0.4,1.8-1.6,2.1c-1.1,0.3-2.1,0.9-2.9,1.6
			c-1.2,1.1-1.3,0.1-1.5-0.8c-0.9-6.4,0.7-12.1,5-17c6-6.8,15.6-8.8,23.8-5.1c8.2,3.7,13.1,12.3,12,21.3
			C57.8,40.2,57.6,40.8,57.4,41.6z"/>
		<path class="st3" d="M37.9,33.4c2,0,4,0,6,0c0.6,0,1.2,0,1.2,0.8c0,0.8-0.6,0.8-1.2,0.9c-1.7,0.2-2.4,1.4-1.8,3
			c0.3,1,1.2,0.8,1.9,0.7c1.4-0.2,2.9,0.7,4.1-0.6c0.1-0.1,0.1-0.4,0.1-0.7c0.1-0.6-0.1-1.5,0.9-1.4c0.9,0.1,0.7,0.9,0.7,1.4
			c0,2.7,0,5.5,0,8.2c0,0.6,0.1,1.3-0.8,1.3c-1,0-0.9-0.8-0.8-1.3c0.1-1.4-0.6-1.7-1.8-1.6c-0.6,0-1.2,0.1-1.8,0
			c-1.5-0.2-2.4,0.1-3,1.8c-0.6,1.7-2.3,2.3-4.1,2.3c-1.8,0-3.3-0.8-3.8-2.5c-0.5-1.5-1.3-1.7-2.6-1.6c-0.5,0.1-1,0.1-1.5,0
			C28,44,27.1,44.3,27.3,46c0.1,0.6-0.1,1.1-0.9,1.1c-0.7,0-0.8-0.6-0.8-1.1c0-3,0-5.9,0-8.9c0-0.5,0.1-1,0.8-1c0.7,0,0.9,0.4,0.8,1
			c-0.2,1.6,0.7,1.9,2,1.8c0.5,0,1,0,1.5,0c2,0,2.8-1.2,2.2-3.1c-0.3-0.7-0.9-0.6-1.4-0.6c-0.5-0.1-1.2,0-1.2-0.8
			c0-0.9,0.7-0.9,1.3-0.9C33.7,33.4,35.8,33.4,37.9,33.4z"/>
		<path class="st3" d="M34.8,29.8c-1.7-1.3-3.2-2.5-4.8-3.7c-0.6-0.5-1.4-0.4-2.1-0.4c-0.8,0-1.5-0.3-1.5-1.2c0-1,0.7-1.1,1.5-1.1
			c2,0,3.9,0,5.9,0c1,0,2.1,0.2,3-0.6c0.2-0.2,0.7-0.2,1-0.1c2.9,1.4,5.9,0.4,8.9,0.7c0.3,0,0.7,0,1,0.1c0.6,0.1,1,0.5,1,1.1
			c0,0.6-0.4,1.1-1.1,1.1c-3-0.1-4.5,2.3-6.5,3.8c-0.9,0.7,0.4,1.3,1,1.5c0.5,0.2,1.2,0.1,1.8,0.1c0.6,0,1.2,0.1,1.1,0.9
			c0,0.7-0.6,0.8-1.1,0.8c-1.2,0-2.5,0-3.7,0c-2.9,0-5.7,0-8.6,0c-0.6,0-1.5,0.2-1.4-0.9c0-0.9,0.9-0.8,1.4-0.7
			C33,31.2,33.7,30.4,34.8,29.8z"/>
		<path class="st3" d="M42.5,26.1c-0.7,0.6-1.4,1.2-2.2,1.7c-0.5,0.3-0.9,1.2-1.5,0.7c-0.5-0.4-0.2-1.4-0.1-2.1
			c0.1-0.8,0.7-0.7,1.3-0.7c0.8,0,1.5,0,2.3,0C42.4,25.8,42.5,25.9,42.5,26.1z"/>
		<path class="st3" d="M32.6,25.9c0.8-0.4,1.5-0.2,2-0.3c1.6-0.2,1.9,0.7,1.8,2c-0.1,0.8-0.4,1-1,0.5C34.5,27.4,33.7,26.7,32.6,25.9
			z"/>
	</g>
</g>
<g id="Oil-Field_Services">
</g>
<g id="Energy_Commodity_Markets">
</g>
<g id="Energy_Technology">
</g>
</svg>
