<?xml version="1.0" encoding="utf-8"?>
<!-- Generator: Adobe Illustrator 21.1.0, SVG Export Plug-In . SVG Version: 6.00 Build 0)  -->
<svg version="1.1" xmlns="http://www.w3.org/2000/svg" xmlns:xlink="http://www.w3.org/1999/xlink" x="0px" y="0px"
	 viewBox="0 0 74 74" style="enable-background:new 0 0 74 74;" xml:space="preserve">
<style type="text/css">
	.st0{fill:none;stroke:#006FAF;stroke-width:2;stroke-miterlimit:10;}
	.st1{fill:none;stroke:#006FAF;stroke-miterlimit:10;}
	.st2{fill:#006FAF;}
	.st3{fill:none;stroke:#006FAF;stroke-width:1.2;stroke-miterlimit:10;}
</style>
<g id="Oil__x26__Gas_Upstream">
	<g id="Layer_13">
	</g>
</g>
<g id="Oil__x26__Gas_Downstream">
</g>
<g id="Oil__x26__Gas_Midstream">
</g>
<g id="Oil-Field_Services">
	<circle class="st0" cx="37" cy="37" r="36"/>
	<g>
		<path class="st1" d="M45.7,25.5c0,2-0.1,3.9,0,5.8c0.1,1.1-0.3,1.9-1,2.8c-2.4,2.7-4.7,5.5-6.3,8.7c-2.2,4.4-1.7,7.9,1.7,11.5
			c0.1,0.1,0.2,0.2,0.5,0.5c-0.5,0-0.9,0-1.2,0c-5.3,0-10.5,0-15.8,0c-1.6,0-2.6-0.7-2.6-2c0-1.2,0.8-2,2.4-2.1c0.1,0,0.1,0,0.3-0.1
			c0-2.7,0-5.5,0-8.4c1.1,0,2.1,0,3.1,0c0.8,0,1.5-0.2,1.5-1.1c0-0.9-0.7-1.1-1.5-1.1c-1.1,0-2.3,0-3.4,0c-1.4,0-2.4-0.8-2.4-2
			c0-1.2,0.8-2,2.2-2.1c0.1,0,0.3,0,0.5-0.1c0-2.8,0-5.5,0-8.4c1.1,0,2.1,0,3.1,0c0.8,0,1.5-0.2,1.5-1.1c0-0.8-0.7-1.1-1.4-1
			c-1.2,0-2.3,0-3.5,0c-1.5,0-2.4-0.8-2.4-2c0-1.2,0.9-2,2.4-2c7.6,0,15.2,0,22.8,0c1.4,0,2.3,0.8,2.3,2c0.1,1.1-0.8,2-2.1,2.1
			C46.2,25.4,46,25.5,45.7,25.5z"/>
		<path class="st1" d="M47.1,54.8c-5.3,0-9.2-5.7-6.7-10.5c1.6-3.2,3.8-5.9,6.1-8.5c0.4-0.5,0.8-0.5,1.3,0c2.3,2.6,4.5,5.4,6.1,8.5
			C56.4,49.2,52.4,54.9,47.1,54.8z M48,52c-3.6-1.1-5.4-3.4-5.5-7.3c-1.5,1.7-1.1,4-0.1,5.4C43.7,52,45.9,52.8,48,52z"/>
	</g>
</g>
<g id="Energy_Commodity_Markets">
</g>
<g id="Energy_Technology">
</g>
</svg>
