<?xml version="1.0" encoding="utf-8"?>
<!-- Generator: Adobe Illustrator 21.1.0, SVG Export Plug-In . SVG Version: 6.00 Build 0)  -->
<svg version="1.1" xmlns="http://www.w3.org/2000/svg" xmlns:xlink="http://www.w3.org/1999/xlink" x="0px" y="0px"
	 viewBox="0 0 74 74" style="enable-background:new 0 0 74 74;" xml:space="preserve">
<style type="text/css">
	.st0{fill:none;stroke:#006FAF;stroke-width:2;stroke-miterlimit:10;}
	.st1{fill:none;stroke:#006FAF;stroke-miterlimit:10;}
	.st2{fill:#006FAF;}
	.st3{fill:none;stroke:#006FAF;stroke-width:1.2;stroke-miterlimit:10;}
</style>
<g id="Oil__x26__Gas_Upstream">
	<circle class="st0" cx="37" cy="37" r="36"/>
	<g id="Layer_13">
		<g>
			<g>
				<path class="st1" d="M58.1,56.5c0-2.9,0-5.9,0-9.7c-0.1-3.6,0.2-8.2,0.1-12.7c-0.1-3.8-0.6-7.5-2.2-11c-0.8-1.8-2-3.4-3.4-4.8
					c-0.8-0.7-1.3-0.8-2.1-0.2c-1.1,0.7-2.1,1.5-3.2,2.2c-0.8,0.6-0.9,1.1-0.5,2c0.3,0.8,0.7,1.6,1.1,2.4c0.3,0.6,0.1,0.8-0.4,1
					c-6.4,2.3-12.8,4.7-19.2,7.1c-3.5,1.3-6.9,2.6-10.4,3.8c-0.7,0.3-1.4,0.5-1.5,1.4c-0.1,1,0.3,1.7,1.1,2.3c1.4,1,2.8,1.4,4.4,0.5
					c0.2-0.1,0.4-0.1,0.5-0.2c0.5-0.2,0.6,0,0.5,0.5c-0.5,2.1-1,4.2-1.5,6.3c0,0.1,0,0.2-0.1,0.2c-0.3,1.4-1.1,1.9-2.5,1.6
					c-0.7-0.2-1.4-0.4-2.1-0.6c-1.2-0.3-1.9,0.1-2.4,1.2c-0.2,0.5-0.4,0.9-0.6,1.4c-0.4,1-0.2,1.4,0.8,1.7c0.7,0.2,1.4,0.4,2.1,0.6"
					/>
				<path class="st1" d="M56.7,48c0,2.8,0,5.6,0,8.4c0,0.7-0.2,1-0.9,0.9c-2.3,0-4.7,0-7,0c-0.7,0-0.9-0.2-1-0.9
					c-1.8-7.5-3.6-15-5.5-22.4c-0.2-0.7,0-1,0.6-1.2c2.2-0.8,4.4-1.6,6.5-2.4c0.7-0.3,1-0.1,1.2,0.6c0.8,1.8,1.6,3.6,2.4,5.5
					c0.4,1.1,1.1,1.6,2.2,1.8c1.8,0.3,1.6-0.1,1.6,1.9C56.7,42.8,56.7,45.4,56.7,48z"/>
				<path class="st1" d="M28.2,53.5c0.1-1.3-0.3-1.9-1.6-2.2c-0.6-0.2-1.3-0.4-1.9-0.5c-1-0.1-1.5-1-2.3-1.4
					c-0.3-0.1-0.1-0.4-0.1-0.6c0.7-2.8,1.3-5.7,2-8.5c0.1-0.4,0.3-0.5,0.7-0.7c2.4-0.9,4.9-1.8,7.3-2.7c0.6-0.2,0.7-0.1,0.5,0.5
					c-1.6,6.5-3.2,12.9-4.7,19.4c-0.2,0.7-0.9,0.9-2,0.7c-0.7-0.1-0.3-0.7-0.4-1.1c-0.1-0.3,0.1-0.4,0.5-0.4c1.8,0.2,1.8,0.1,2-1.7
					C28.1,54,28.1,53.7,28.2,53.5z"/>
				<path class="st1" d="M37.8,57.4c-1.9,0-3.8,0-5.6,0c-0.6,0-0.7-0.2-0.6-0.7c0.1-0.7,0.4-1.1,1-1.5c3-1.8,6-3.6,8.9-5.4
					c0.6-0.4,0.8-0.4,1,0.4c0.5,2.1,1,4.2,1.5,6.3c0.2,1,0.2,1-0.7,1C41.5,57.4,39.7,57.4,37.8,57.4z"/>
				<path class="st1" d="M41.4,48.3c-2.9,1.8-5.8,3.5-8.8,5.3c-0.1,0-0.1-0.1-0.2-0.1c0.4-1.7,0.8-3.3,1.2-5
					c0.1-0.3,0.3-0.4,0.6-0.4c2.4,0,4.7,0,7.1,0C41.3,48.2,41.4,48.3,41.4,48.3z"/>
				<path class="st1" d="M41.2,46.1c-1.2,0-2.3,0-3.5,0c-0.9,0-1.8,0-2.7,0c-0.5,0-0.8-0.1-0.6-0.7c0.3-1.1,0.6-2.3,0.9-3.4
					c0.1-0.3,0.2-0.6,0.6-0.3c1.8,1.4,3.7,2.8,5.5,4.2C41.3,45.9,41.3,46,41.2,46.1z"/>
				<path class="st1" d="M39.8,35.5c0,1.1-0.8,1.8-1.8,1.8c-1,0-1.9-0.8-1.9-1.9c0-1,0.8-1.8,1.8-1.8C39.1,33.7,39.8,34.4,39.8,35.5
					z"/>
				<path class="st1" d="M40.7,43.7c-1.6-1.2-3.1-2.4-4.7-3.6c-0.2-0.1-0.3-0.3-0.2-0.5c0.1-0.2,0.3-0.1,0.4,0
					c1,0.4,2.1,0.4,3.2,0.1c0.3-0.1,0.5,0,0.5,0.3c0.3,1.2,0.6,2.4,0.9,3.7C40.9,43.6,40.8,43.7,40.7,43.7z"/>
				<path class="st1" d="M20.7,51.1c0.9,0,1.6,0.7,1.6,1.5c0,0.9-0.7,1.6-1.6,1.6c-0.9,0-1.5-0.7-1.5-1.6
					C19.2,51.8,19.8,51.1,20.7,51.1z"/>
			</g>
			<line class="st1" x1="16.3" y1="53.3" x2="25.4" y2="56.2"/>
			<line class="st1" x1="58.1" y1="55.9" x2="58.1" y2="57.5"/>
			<line class="st1" x1="55.7" y1="57.4" x2="58.5" y2="57.4"/>
		</g>
	</g>
</g>
<g id="Oil__x26__Gas_Downstream">
</g>
<g id="Oil__x26__Gas_Midstream">
</g>
<g id="Oil-Field_Services">
</g>
<g id="Energy_Commodity_Markets">
</g>
<g id="Energy_Technology">
</g>
</svg>
