<?xml version="1.0" encoding="utf-8"?>
<!-- Generator: Adobe Illustrator 21.0.2, SVG Export Plug-In . SVG Version: 6.00 Build 0)  -->
<svg version="1.1" id="Layer_1" xmlns="http://www.w3.org/2000/svg" xmlns:xlink="http://www.w3.org/1999/xlink" x="0px" y="0px"
	 viewBox="0 0 74 74" style="enable-background:new 0 0 74 74;" xml:space="preserve">
<style type="text/css">
	.st0{fill:none;stroke:#006FAF;stroke-width:2;stroke-miterlimit:10;}
	.st1{display:none;}
	.st2{display:inline;fill:#006FAF;stroke:#006FAF;stroke-miterlimit:10;}
	.st3{display:inline;}
	.st4{fill:#006FAF;stroke:#006FAF;stroke-miterlimit:10;}
</style>
<circle class="st0" cx="37" cy="37" r="36"/>
<g class="st1">
	<circle class="st2" cx="45.4" cy="45.4" r="10.6"/>
	<line class="st2" x1="49.9" y1="40.9" x2="40.9" y2="49.9"/>
	<g class="st3">
		<path class="st4" d="M20.4,50.3L20.4,50.3c-3.1-3.1-3.1-8.1,0-11.2l18.7-18.7c3.1-3.1,8.1-3.1,11.2,0l0,0c3.1,3.1,3.1,8.1,0,11.2
			L31.6,50.3C28.5,53.4,23.5,53.4,20.4,50.3z"/>
		<line class="st4" x1="30.1" y1="30.1" x2="40.6" y2="40.6"/>
		<path class="st4" d="M47.6,23c0,0-3.6-3.2-7.6,0.8L32,32"/>
	</g>
</g>
<g>
	<g>
		<path class="st4" d="M53.6,37.1c-1.3-1.3-2.9-2.3-4.5-2.8l2-2c1.7-1.7,2.6-4,2.6-6.3s-1-4.6-2.6-6.3c-1.7-1.7-4-2.6-6.3-2.6
			s-4.6,1-6.3,2.6L19.6,38.3C18,40,17,42.3,17,44.7s1,4.6,2.6,6.3c1.7,1.7,4,2.6,6.3,2.6s4.6-1,6.3-2.6l2-2c0.6,1.7,1.5,3.3,2.8,4.5
			c2.2,2.2,5.1,3.4,8.2,3.4c3.1,0,6-1.2,8.2-3.4s3.4-5.1,3.4-8.2C57,42.3,55.8,39.4,53.6,37.1z M39.8,21.1c1.6-1.3,3-2,4.9-2
			c1.8,0,3.5,0.7,4.9,2c1.3,1.3,2,3,2,4.9c0,1.8-0.7,3.5-2,4.9l-3,3l-2.1,2.1l-3.5,3.5l-7.2-7.3l7.5-7.4c3.2-3.2,5.5-1.3,5.8-1
			c0.4,0.4,1.1,0.3,1.5-0.1s0.3-1.1-0.1-1.5c-1.5-1.3-4.4-3.4-8.7,1l-7.5,7.5l-1-1L39.8,21.1z M33.8,46.6l-3,3c-1.3,1.3-3,2-4.9,2
			c-1.8,0-3.5-0.7-4.9-2c-1.3-1.3-2-3-2-4.9s0.7-3.5,2-4.9l8.6-8.6l9.7,9.7l-3.5,3.5L33.8,46.6z M52.1,52.1
			c-1.8,1.8-4.2,2.8-6.7,2.8c-2.5,0-4.9-1-6.7-2.8c-1.3-1.3-2.2-3-2.6-4.8L47.3,36c1.8,0.4,3.4,1.3,4.8,2.6c1.7,1.8,2.7,4.2,2.7,6.8
			S53.9,50.3,52.1,52.1z"/>
		<path class="st4" d="M49.1,40.1l-9,9c-0.4,0.4-0.4,1.1,0,1.5c0.2,0.2,0.5,0.3,0.7,0.3c0.3,0,0.5-0.1,0.7-0.3l9-9
			c0.4-0.4,0.4-1.1,0-1.5S49.5,39.7,49.1,40.1z"/>
	</g>
</g>
</svg>
