<?xml version="1.0" encoding="utf-8"?>
<!-- Generator: Adobe Illustrator 21.0.2, SVG Export Plug-In . SVG Version: 6.00 Build 0)  -->
<svg version="1.1" id="Layer_1" xmlns="http://www.w3.org/2000/svg" xmlns:xlink="http://www.w3.org/1999/xlink" x="0px" y="0px"
	 viewBox="0 0 74 74" style="enable-background:new 0 0 74 74;" xml:space="preserve">
<style type="text/css">
	.st0{fill:none;stroke:#006FAF;stroke-width:2;stroke-miterlimit:10;}
	.st1{fill:#006FAF;}
</style>
<title>Cloud &amp;amp; Infrastructure Services</title>
<circle class="st0" cx="37" cy="37" r="36"/>
<g>
	<path class="st1" d="M46.5,26.9c0-5.2-4.3-9.4-9.4-9.4c-5.2,0-9.4,4.3-9.4,9.4c0,5.2,4.3,9.4,9.4,9.4
		C42.3,36.4,46.5,32.1,46.5,26.9z M37,34.7c-4.3,0-7.8-3.5-7.8-7.8c0-4.3,3.5-7.8,7.8-7.8c4.3,0,7.8,3.5,7.8,7.8S41.4,34.7,37,34.7z
		"/>
	<path class="st1" d="M40.6,26.1h-2.7v-2.7c0-0.5-0.3-0.8-0.8-0.8c-0.5,0-0.8,0.3-0.8,0.8v2.7h-2.7c-0.5,0-0.8,0.3-0.8,0.8
		s0.3,0.8,0.8,0.8h2.7v2.7c0,0.5,0.3,0.8,0.8,0.8c0.5,0,0.8-0.3,0.8-0.8v-2.7h2.7c0.5,0,0.8-0.3,0.8-0.8
		C41.4,26.5,41.1,26.1,40.6,26.1z"/>
	<path class="st1" d="M34,45.2L27.9,41v-2.6c0-1.1-0.6-1.9-1.5-2.4v-3.3c0-1.9-1.6-3.4-3.4-3.4s-3.4,1.6-3.4,3.4v10.8
		c0,1.1,0.6,2.2,1.6,2.9l7.6,5.1v4.1c0,0.5,0.3,0.8,0.8,0.8s0.8-0.3,0.8-0.8V51c0-0.2-0.2-0.5-0.3-0.7L22,45
		c-0.5-0.3-0.8-0.9-0.8-1.5V32.7c0-1,0.8-1.8,1.8-1.8s1.8,0.8,1.8,1.8v3c-1.3,0.2-2.3,1.3-2.3,2.6v4c0,0.5,0.3,0.8,0.8,0.8
		c0.5,0,0.8-0.3,0.8-0.8v-4c0-0.6,0.5-1.1,1.1-1.1s1.1,0.5,1.1,1.1v3v0.1c0,0.1,0,0.1,0,0.2s0,0.1,0.1,0.2c0,0.1,0.1,0.1,0.1,0.2
		c0,0.1,0.1,0.1,0.1,0.1s0,0,0.1,0.1l6.5,4.5c0.5,0.3,0.8,0.9,0.8,1.5v7.6c0,0.5,0.3,0.8,0.8,0.8c0.5,0,0.8-0.3,0.8-0.8v-7.6
		C35.6,46.9,35,45.8,34,45.2z"/>
	<path class="st1" d="M51.1,29.3c-1.9,0-3.4,1.6-3.4,3.4V36c-0.8,0.4-1.5,1.3-1.5,2.4V41L40,45.2c-1,0.7-1.6,1.7-1.6,2.9v7.6
		c0,0.5,0.3,0.8,0.8,0.8c0.5,0,0.8-0.3,0.8-0.8v-7.6c0-0.6,0.3-1.1,0.8-1.5l6.5-4.5c0,0,0,0,0.1-0.1c0.1,0,0.1-0.1,0.1-0.1
		s0.1-0.1,0.1-0.2c0-0.1,0-0.1,0.1-0.2c0-0.1,0-0.1,0-0.2v-0.1v-3c0-0.6,0.5-1.1,1.1-1.1c0.6,0,1.1,0.5,1.1,1.1v4
		c0,0.5,0.3,0.8,0.8,0.8s0.8-0.3,0.8-0.8v-4c0-1.3-1-2.5-2.3-2.6v-3c0-1,0.8-1.8,1.8-1.8s1.8,0.8,1.8,1.8v10.8
		c0,0.6-0.3,1.1-0.8,1.5l-8,5.3c-0.2,0.2-0.3,0.4-0.3,0.7v4.6c0,0.5,0.3,0.8,0.8,0.8s0.8-0.3,0.8-0.8v-4.1l7.6-5.1
		c1-0.7,1.6-1.7,1.6-2.9V32.7C54.5,30.8,52.9,29.3,51.1,29.3z"/>
</g>
</svg>
