<?xml version="1.0" encoding="utf-8"?>
<!-- Generator: Adobe Illustrator 21.0.2, SVG Export Plug-In . SVG Version: 6.00 Build 0)  -->
<svg version="1.1" id="Layer_1" xmlns="http://www.w3.org/2000/svg" xmlns:xlink="http://www.w3.org/1999/xlink" x="0px" y="0px"
	 viewBox="0 0 74 74" style="enable-background:new 0 0 74 74;" xml:space="preserve">
<style type="text/css">
	.st0{fill:none;stroke:#006FAF;stroke-width:2;stroke-miterlimit:10;}
	.st1{fill:#006FAF;}
	.st2{fill:none;stroke:#006FAF;stroke-miterlimit:10;}
</style>
<title>user-experience</title>
<circle class="st0" cx="37" cy="37" r="36"/>
<g>
	<path class="st1" d="M46.5,52C46.5,52,46.5,52,46.5,52h-3.4c-0.9,0-1.7-0.6-1.8-1.5c0-0.3-0.1-0.6-0.1-1c-0.1-1.1-0.4-3.2-0.6-3.9
		c-0.3-0.8-0.7-1.6-1.2-2.4c-0.5-0.7-1-1.4-1.9-2.4c-0.3-0.3-0.6-0.6-0.9-0.9c-1-1.1-2.2-2.3-2.8-3.9c-0.1-0.5-0.2-0.9-0.2-1.1
		c0-0.1,0-0.2,0-0.3c0-1,0.8-1.8,1.8-1.8h18.8c1,0,1.8,0.8,1.8,1.7l0,0.3c0,0.2-0.1,0.6-0.2,1.1c-0.4,1.5-1.4,2.5-2.4,3.5
		c-0.4,0.5-0.9,0.9-1.2,1.4c-0.9,1-1.5,1.8-1.9,2.5c-0.5,0.8-0.9,1.6-1.2,2.4c-0.2,0.6-0.5,2.7-0.6,3.8c0,0.4-0.1,0.7-0.1,1
		C48.2,51.4,47.4,52,46.5,52z M46.5,49.7L46.5,49.7L46.5,49.7C46.5,49.7,46.5,49.7,46.5,49.7z M43.6,49.7h2.5c0-0.1,0-0.3,0.1-0.5
		c0.2-1.9,0.4-3.6,0.7-4.4c0.4-1,0.9-1.9,1.5-2.8c0.5-0.8,1.2-1.6,2.1-2.6c0.4-0.5,0.9-1,1.4-1.5c0.8-0.9,1.5-1.6,1.8-2.5
		c0-0.1,0-0.1,0-0.2H36.1c0,0.1,0,0.1,0.1,0.2c0.3,1,1.3,2,2.2,3c0.3,0.3,0.7,0.7,0.9,1c0.9,1,1.5,1.9,2.1,2.6
		c0.6,0.9,1.1,1.9,1.5,2.8c0.3,0.8,0.5,2.5,0.7,4.4C43.6,49.4,43.6,49.6,43.6,49.7z M53.7,34.4C53.7,34.5,53.7,34.5,53.7,34.4
		L53.7,34.4z"/>
	<path id="rect27661-03" class="st1" d="M21.2,26.2c-1.7,0-3.2,1.4-3.2,3.2s1.4,3.2,3.2,3.2h15.1c1.7,0,3.2-1.4,3.2-3.2
		s-1.4-3.2-3.2-3.2H21.2z M21.2,27.5h15.1c1,0,1.9,0.8,1.9,1.9s-0.8,1.9-1.9,1.9H21.2c-1,0-1.9-0.8-1.9-1.9S20.1,27.5,21.2,27.5z"/>
	<path id="path27663-3" class="st1" d="M22.4,28.1c-0.7,0-1.3,0.6-1.3,1.3c0,0.7,0.6,1.3,1.3,1.3c0.7,0,1.3-0.6,1.3-1.3
		C23.7,28.7,23.1,28.1,22.4,28.1z"/>
	<path id="path27665-6" class="st1" d="M26.6,28.1c-0.7,0-1.3,0.6-1.3,1.3c0,0.7,0.6,1.3,1.3,1.3s1.3-0.6,1.3-1.3
		C27.9,28.7,27.3,28.1,26.6,28.1z"/>
	<path id="path27667-2" class="st1" d="M30.8,28.1c-0.7,0-1.3,0.6-1.3,1.3c0,0.7,0.6,1.3,1.3,1.3c0.7,0,1.3-0.6,1.3-1.3
		C32.1,28.7,31.5,28.1,30.8,28.1z"/>
	<path id="path27669-2" class="st1" d="M35,28.1c-0.7,0-1.3,0.6-1.3,1.3c0,0.7,0.6,1.3,1.3,1.3s1.3-0.6,1.3-1.3
		C36.3,28.7,35.7,28.1,35,28.1z"/>
	<path id="rect27972" class="st2" d="M22.3,22h2c0.3,0,0.5,0.2,0.5,0.5v2c0,0.3-0.2,0.5-0.5,0.5h-2c-0.3,0-0.5-0.2-0.5-0.5v-2
		C21.8,22.2,22.1,22,22.3,22z"/>
	<path id="rect27974" class="st2" d="M27.2,22h2c0.3,0,0.5,0.2,0.5,0.5v2c0,0.3-0.2,0.5-0.5,0.5h-2c-0.3,0-0.5-0.2-0.5-0.5v-2
		C26.8,22.2,27,22,27.2,22z"/>
	<path id="rect27976" class="st2" d="M32.2,22h2c0.3,0,0.5,0.2,0.5,0.5v2c0,0.3-0.2,0.5-0.5,0.5h-2c-0.3,0-0.5-0.2-0.5-0.5v-2
		C31.7,22.2,31.9,22,32.2,22z"/>
	<path id="rect27978" class="st2" d="M38,22.2l1.9,0.6c0.3,0.1,0.4,0.4,0.3,0.6l-0.6,1.9c-0.1,0.3-0.4,0.4-0.6,0.3l-1.9-0.6
		c-0.3-0.1-0.4-0.4-0.3-0.6l0.6-1.9C37.4,22.3,37.7,22.1,38,22.2z"/>
	<path id="rect27980" class="st2" d="M43.5,25.3l1.7,1.3c0.2,0.2,0.3,0.5,0.1,0.7l-1.3,1.7c-0.2,0.2-0.5,0.3-0.7,0.1l-1.7-1.3
		c-0.2-0.2-0.3-0.5-0.1-0.7l1.3-1.7C42.9,25.1,43.2,25.1,43.5,25.3z"/>
	<path id="rect27982" class="st2" d="M44.7,31.7c-0.1,0-0.2,0-0.2,0.1l-1.7,0.9c-0.1,0-0.1,0.1-0.1,0.1c1,0,2,0,3,0L45.1,32
		C45,31.8,44.9,31.7,44.7,31.7z"/>
</g>
</svg>
