<?xml version="1.0" encoding="utf-8"?>
<!-- Generator: Adobe Illustrator 21.1.0, SVG Export Plug-In . SVG Version: 6.00 Build 0)  -->
<svg version="1.1" xmlns="http://www.w3.org/2000/svg" xmlns:xlink="http://www.w3.org/1999/xlink" x="0px" y="0px"
	 viewBox="0 0 74 74" style="enable-background:new 0 0 74 74;" xml:space="preserve">
<style type="text/css">
	.st0{fill:none;stroke:#006FAF;stroke-width:2;stroke-miterlimit:10;}
	.st1{fill:#006FAF;stroke:#006FAF;stroke-miterlimit:10;}
	.st2{fill:#006FAF;}
	.st3{fill:#006FAF;stroke:#006FAF;stroke-width:0.75;stroke-miterlimit:10;}
	.st4{fill:none;stroke:#006FAF;stroke-width:1.5;stroke-miterlimit:10;}
	.st5{fill:none;stroke:#006FAF;stroke-miterlimit:10;}
	.st6{fill:#006FAF;stroke:#006FAF;stroke-width:0.5;stroke-miterlimit:10;}
	.st7{fill:#006FAF;stroke:#006FAF;stroke-width:1.5;stroke-miterlimit:10;}
	.st8{fill:none;stroke:#006FAF;stroke-width:0.75;stroke-miterlimit:10;}
</style>
<g id="independent-sales-organizations">
	<g id="Layer_13">
	</g>
</g>
<g id="payment-gateways">
</g>
<g id="acquirers">
</g>
<g id="merchants">
</g>
<g id="processors-payment-transfers">
	<circle class="st0" cx="37" cy="37" r="36"/>
	<g transform="translate(0,-952.36218)">
		<path class="st2" d="M24.1,971.9c-0.5,0-0.8,0.4-0.8,0.9v4.6h-2.8c0,0-0.1,0-0.1,0c-0.5,0-0.8,0.4-0.8,0.9v7.4h-0.9
			c0,0-0.1,0-0.1,0c-0.5,0-0.8,0.4-0.8,0.9v7.4c0,0.5,0.4,0.9,0.9,0.9h0.9v7.1c-0.1,0.4,0,0.9,0.4,1.1c0,0,0,0,0,0c0,0,0,0,0,0
			c0,0,0.1,0,0.1,0c0,0,0,0,0,0c0,0,0,0,0.1,0c0,0,0,0,0,0c0,0,0,0,0,0c0,0,0,0,0,0c0.1,0,0.2,0,0.3,0h20.5c0.5,0,0.9-0.4,0.9-0.9
			s-0.4-0.9-0.9-0.9c0,0,0,0,0,0H21.5v-6.4h13.8c0.5,0,0.9-0.4,0.9-0.9v-7.4c0-0.5-0.4-0.9-0.9-0.9H21.5v-6.4h28.1h0.9
			c0.5,0,1-0.1,1.4-0.3v11.8c0,0.5,0.4,0.9,0.9,0.9c0.5,0,0.9-0.4,0.9-0.9c0,0,0,0,0,0V976v-0.5c0,0,0-0.1,0-0.1v-0.4
			c0-1.8-1.5-3.2-3.2-3.2L24.1,971.9C24.2,971.9,24.2,971.9,24.1,971.9L24.1,971.9z M25.2,973.7h25.3c0.8,0,1.4,0.6,1.4,1.4v0.4
			c0,0,0,0,0,0.1v0.5c0,0.8-0.6,1.4-1.4,1.4h-0.9H25.2C25.2,977.4,25.2,973.7,25.2,973.7z M19.6,987.5h14.7v5.5H19.6
			C19.6,993.1,19.6,987.5,19.6,987.5z M31.6,988c-1.3,0-2.3,1-2.3,2.3c0,1.3,1,2.3,2.3,2.3c1.3,0,2.3-1,2.3-2.3
			C33.9,989,32.9,988,31.6,988z M31.6,989.8c0.3,0,0.5,0.2,0.5,0.5c0,0.3-0.2,0.5-0.5,0.5s-0.5-0.2-0.5-0.5
			C31.1,990,31.3,989.8,31.6,989.8z M48.1,991.2c-0.2,0-0.4,0.1-0.6,0.2l-3.7,3.2c-0.4,0.3-0.4,0.9-0.1,1.3c0,0,0.1,0.1,0.1,0.1
			l3.7,3.2c0.4,0.3,1,0.3,1.3-0.1c0.3-0.4,0.3-1-0.1-1.3c0,0,0,0,0,0l-1.8-1.6h6.7c0.5,0,0.9-0.4,0.9-0.9s-0.4-0.9-0.9-0.9
			c0,0,0,0,0,0h-6.8l1.8-1.6c0.4-0.3,0.4-0.9,0.1-1.3C48.7,991.3,48.4,991.2,48.1,991.2L48.1,991.2z M50.9,998.6
			c-0.5,0-0.9,0.5-0.9,1c0,0.3,0.1,0.5,0.3,0.6l1.8,1.6h-6.8c0,0-0.1,0-0.1,0c-0.5,0-0.9,0.5-0.9,1c0,0.5,0.5,0.9,1,0.9c0,0,0,0,0,0
			h6.7l-1.8,1.6c-0.4,0.3-0.4,0.9-0.1,1.3c0.3,0.4,0.9,0.4,1.3,0.1l3.7-3.2c0.4-0.3,0.4-0.9,0.1-1.3c0,0-0.1-0.1-0.1-0.1l-3.7-3.2
			C51.4,998.6,51.1,998.5,50.9,998.6L50.9,998.6z"/>
	</g>
</g>
<g id="technology-providers">
</g>
<g id="mobile-payment-providers">
</g>
<g id="alternate-payment-providers">
</g>
<g id="white-label-payment-gateway">
</g>
<g id="deep-financial-services">
</g>
</svg>
