<?xml version="1.0" encoding="utf-8"?>
<!-- Generator: Adobe Illustrator 21.0.2, SVG Export Plug-In . SVG Version: 6.00 Build 0)  -->
<svg version="1.1" id="Layer_1" xmlns="http://www.w3.org/2000/svg" xmlns:xlink="http://www.w3.org/1999/xlink" x="0px" y="0px"
	 viewBox="0 0 74 74" style="enable-background:new 0 0 74 74;" xml:space="preserve">
<style type="text/css">
	.st0{fill:none;stroke:#006FAF;stroke-width:2;stroke-miterlimit:10;}
	.st1{fill:#006FAF;}
</style>
<title>Cloud &amp;amp; Infrastructure Services</title>
<circle class="st0" cx="37" cy="37" r="36"/>
<g>
	<path class="st1" d="M49.7,17.3c-2.3-0.9-9,2.5-11.3,8.4s0.5,12.9,2.8,13.8s9-2.5,11.3-8.4S52,18.2,49.7,17.3z M41.6,38.5
		c-0.7-0.3-1.6-1.6-2.2-3.4c1,0.5,2,1,3,1.4c1,0.4,2.1,0.7,3.1,1C43.9,38.4,42.3,38.8,41.6,38.5z M51.6,30.7
		c-0.9,2.3-2.4,4.2-4.4,5.7c-1.5-0.3-2.9-0.7-4.3-1.2c-1.4-0.5-2.7-1.2-4-1.9c-0.5-2.4-0.3-4.9,0.5-7.1c0.9-2.3,2.4-4.2,4.4-5.7
		c2.9,0.6,5.7,1.7,8.3,3.2C52.6,26,52.4,28.4,51.6,30.7z M48.6,20.3c-1-0.4-2.1-0.7-3.1-1c1.7-0.9,3.2-1.3,3.9-1.1
		c0.7,0.3,1.6,1.6,2.2,3.4C50.6,21.1,49.6,20.7,48.6,20.3z"/>
	<polygon class="st1" points="45.2,24.6 46.2,25 45.9,26 44.8,25.6 44.5,26.4 45.6,26.8 45.2,27.8 44.1,27.4 43.8,28.3 44.9,28.7 
		44.5,29.6 43.5,29.2 43.1,30.1 44.2,30.5 43.8,31.4 42.8,31 42.4,31.9 43.5,32.3 44.4,32.6 45.4,33 45.8,32.2 44.7,31.8 45.1,30.8 
		46.1,31.2 46.5,30.4 45.4,30 45.8,29 46.8,29.4 47.2,28.5 46.1,28.1 46.5,27.2 47.5,27.6 47.9,26.7 46.8,26.3 47.2,25.4 48.2,25.8 
		48.5,24.9 45.5,23.7 	"/>
	<path class="st1" d="M25.3,31.9c-5.9,1.6-9.5,7.7-7.9,13.6C19,51.5,25.1,55,31,53.4c5.9-1.6,9.5-7.7,7.9-13.6
		C37.3,33.9,31.2,30.3,25.3,31.9C25.3,31.9,25.3,31.9,25.3,31.9z M25.4,33.3l0.2-0.1c2.7-0.7,5.6-0.2,7.9,1.3
		c-2.1,1.1-5.1,3.9-8.7,8.4c-0.5-0.6-0.9-1.3-1.1-2.1c-0.4-1.9-0.2-3.8,0.6-5.5C24.6,34.6,25,34,25.4,33.3z M24.1,33.8
		c-0.2,0.4-0.4,0.8-0.6,1.3c-0.6,1.5-1.2,3.8-0.6,6c0.3,0.9,0.7,1.8,1.3,2.6c-0.4,0.5-0.8,1-1.1,1.5c-1.3-1.3-2.4-2.8-3.3-4.4
		c-0.2-0.5-0.4-1-0.6-1.5c0-0.1-0.1-0.3-0.1-0.4C20.2,36.5,22,34.8,24.1,33.8L24.1,33.8z M18.7,40.1c0.1,0.3,0.2,0.6,0.4,1
		c0.9,1.8,2.1,3.4,3.5,4.8c-0.2,0.3-0.5,0.7-0.7,1c-0.9-0.8-1.9-1.5-3-1.9c-0.1,0-0.2-0.1-0.4-0.2C18.3,43.2,18.3,41.6,18.7,40.1z
		 M18.9,45.7c1,0.4,1.9,1,2.7,1.8c-0.3,0.5-0.6,1-0.8,1.6C20,48.1,19.3,47,18.9,45.7z M21.4,49.8c0.2-0.6,0.5-1.1,0.8-1.6
		c0.8,0.8,1.5,1.7,2.1,2.7c0.2,0.4,0.5,0.8,0.8,1.2C23.7,51.5,22.5,50.8,21.4,49.8L21.4,49.8z M30.7,52.1c-1.4,0.4-2.8,0.4-4.2,0.2
		c-0.5-0.6-1-1.2-1.4-1.9c-0.7-1.1-1.5-2.1-2.4-3c0.2-0.3,0.4-0.7,0.7-1c2.2,2,4.8,3.5,7.7,4.4c0.7,0.2,1.4,0.3,2.2,0.3
		C32.3,51.5,31.5,51.9,30.7,52.1L30.7,52.1L30.7,52.1z M34.4,50.1c-1.1,0.2-2.2,0.1-3.3-0.2c-2.8-0.8-5.3-2.3-7.4-4.3
		c0.3-0.5,0.7-1,1.1-1.5c1.6,1.4,4.3,1.6,8.2,0.7l1-0.3c1.4-0.3,2.7-0.8,3.9-1.5C37.8,45.8,36.5,48.4,34.4,50.1L34.4,50.1L34.4,50.1
		z M37.9,42.1c-0.8,0.6-2.1,1.2-4.1,1.7l-1,0.2c-3.6,0.9-6.1,0.7-7.4-0.5c4.8-5.9,7.5-7.9,8.9-8.4C36.4,36.8,37.7,39.4,37.9,42.1
		L37.9,42.1L37.9,42.1z"/>
	<path class="st1" d="M39.7,48.2c0,4.8,3.9,8.6,8.6,8.6S57,53,57,48.2c0-4.8-3.9-8.6-8.6-8.6C43.6,39.6,39.7,43.5,39.7,48.2
		C39.7,48.2,39.7,48.2,39.7,48.2z M40.7,49.6c-0.1-0.8-0.2-1.6-0.1-2.3c0,0.4,0.1,0.8,0.2,1.2v0.1C40.8,48.9,40.7,49.3,40.7,49.6
		L40.7,49.6L40.7,49.6z M42.8,53.7L42.8,53.7z M41.4,48.3c-0.2-0.9-0.2-1.8,0.1-2.7l0.1-0.3c0.4-0.8,1-1.5,1.6-2l0.2,0
		c0.5-0.1,1.1-0.1,1.6,0.1c0,0.8,0.1,2.2,0.1,2.7c-0.8,0.8-1.5,1.7-2.2,2.6C42.4,48.6,41.9,48.5,41.4,48.3L41.4,48.3L41.4,48.3z
		 M45.5,46.5c0.8,0.1,2.7,0.5,3.3,0.6c0.5,1.2,0.9,2.3,1.3,3.5c-0.6,0.8-1.3,1.6-2.1,2.3c-1.2-0.1-2.4-0.3-3.5-0.8l0,0
		c-0.5-1-0.9-2-1.1-3.1C44,48.2,44.7,47.3,45.5,46.5L45.5,46.5L45.5,46.5z M47.8,56c-1.1-0.1-2.2-0.4-3.2-1
		c-0.4-0.5-0.8-0.9-1.2-1.4c0.3-0.2,0.6-0.5,0.9-0.8c1.1,0.5,2.3,0.7,3.6,0.8c0.4,0.5,0.8,1.1,1.4,1.5C48.8,55.5,48.3,55.8,47.8,56
		L47.8,56L47.8,56z M49.2,56c0.3-0.2,0.5-0.3,0.7-0.6v0c1.1-0.2,2.1-0.6,3-1.2c0.1,0,0.2,0.1,0.4,0.1C52.1,55.2,50.7,55.8,49.2,56
		L49.2,56L49.2,56z M56.1,48.8c-0.1,1.8-0.9,3.5-2.1,4.8c-0.2,0-0.4,0-0.6,0c0.2-0.7,0.4-1.5,0.4-2.3l0,0c0.7-0.8,1.3-1.8,1.7-2.8
		C55.7,48.6,55.9,48.7,56.1,48.8L56.1,48.8L56.1,48.8z M55,48.1v0.1c-0.4,1-1,1.9-1.7,2.7c-0.7-0.1-2.1-0.3-2.7-0.4
		c-0.1-0.4-0.8-2.5-1.3-3.5c0.5-0.7,1.4-2,1.7-2.4c1,0.1,1.9,0.3,2.8,0.7l0.1,0.1C54.5,46.2,54.9,47.1,55,48.1z M49.6,41L49.6,41
		c0.5,0,0.9,0,1.3,0.2c0.2,0.1,0.4,0.2,0.5,0.2c2.1,1.2,2.8,2.4,2.8,2.4v0c0,0.2-0.1,0.5-0.2,0.7c-0.9-0.4-1.9-0.6-2.9-0.7
		c-0.6-0.7-1.3-1.4-2.1-2C49.2,41.5,49.4,41.2,49.6,41z M48.4,41.7c-1.1,0.2-2.1,0.6-3.1,1.1l0,0c-0.5-0.2-1.1-0.2-1.7-0.2
		c0.2-0.4,0.5-0.8,0.8-1.1c1.1-0.6,2.3-1,3.5-1c0.3,0.1,0.6,0.2,0.9,0.3C48.7,41,48.6,41.3,48.4,41.7L48.4,41.7L48.4,41.7z"/>
	<path class="st1" d="M32.4,22.2c-2.5,0-4.6,2-4.6,4.6c0,2.5,2,4.6,4.6,4.6s4.6-2,4.6-4.6c0,0,0,0,0,0C37,24.2,35,22.2,32.4,22.2z
		 M34.8,23.6L34.8,23.6L34.8,23.6L34.8,23.6z M34.6,23.4l-0.1,0.1l-0.1-0.3L34.6,23.4z M31.4,22.9c0.9-0.2,1.9-0.2,2.7,0.3h0
		c-0.1,0-0.1,0.1-0.1,0.2l0.2,0.4c-0.1,0.1-0.2,0.2-0.3,0.3l-0.1-0.3c0-0.1-0.1-0.1-0.2-0.1c0,0,0,0,0,0l0,0c-0.1,0-0.1,0.1-0.1,0.2
		l0.1,0.5c-0.1,0.1-0.3,0.2-0.4,0.3v-0.3c0-0.1-0.1-0.2-0.2-0.2c-0.1,0-0.2,0.1-0.2,0.2v0.5c-0.1,0.1-0.3,0.1-0.4,0.2l0.1-0.3
		c0.1-0.1,0.1-0.2,0-0.2c-0.1-0.1-0.2-0.1-0.2,0c0,0,0,0.1,0,0.1l-0.2,0.5h-0.1l-0.3,0.1l0.2-0.3c0-0.1,0-0.2-0.1-0.2
		c-0.1,0-0.2,0-0.2,0.1l-0.3,0.5c-0.1,0-0.3,0-0.4,0l0.2-0.2c0.1-0.1,0.1-0.2,0-0.2c-0.1-0.1-0.2-0.1-0.2,0l0,0l-0.4,0.5
		c-0.1,0-0.3,0-0.4,0l0.3-0.2c0.1-0.1,0.1-0.2,0-0.2c-0.1-0.1-0.2-0.1-0.2,0l-0.5,0.4c-0.1,0-0.2-0.1-0.3-0.1l0.3-0.2
		c0-0.1,0-0.2-0.1-0.2c0,0-0.1,0-0.1,0l0,0L29,24.9C29.5,23.9,30.4,23.2,31.4,22.9L31.4,22.9L31.4,22.9z M30.1,29.9L30,29.8
		L30.1,29.9L30.1,29.9z M30.3,30l0.1-0.1l0.1,0.3L30.3,30z M33.5,30.5c-0.9,0.2-1.9,0.2-2.7-0.3l0,0c0.1,0,0.1-0.1,0.1-0.2l-0.2-0.4
		c0.1-0.1,0.2-0.2,0.3-0.3l0.1,0.3c0,0.1,0.1,0.1,0.2,0.1c0,0,0,0,0,0l0,0c0.1,0,0.1-0.1,0.1-0.2l-0.1-0.5c0.1-0.1,0.3-0.2,0.4-0.3
		v0.3c0,0.1,0.1,0.2,0.1,0.2c0,0,0,0,0,0h0.1c0.1,0,0.1-0.1,0.1-0.1v-0.5c0.1-0.1,0.3-0.1,0.4-0.2l-0.1,0.3c0,0.1,0,0.2,0.1,0.2
		c0,0,0,0,0,0l0,0c0.1,0,0.2,0,0.2-0.1l0.2-0.5l0.1,0l0.4-0.1l-0.2,0.3c0,0.1,0,0.2,0.1,0.2c0.1,0,0.2,0,0.2-0.1l0.3-0.5
		c0.1,0,0.3,0,0.4,0l-0.2,0.2c-0.1,0-0.1,0.1-0.1,0.2c0,0.1,0.1,0.1,0.2,0.1c0,0,0,0,0.1-0.1l0.4-0.4l0.4,0l-0.3,0.2
		c-0.1,0.1-0.1,0.1,0,0.2c0,0.1,0.1,0.1,0.2,0.1h0.1l0.5-0.4l0.3,0.1l-0.3,0.2c-0.1,0-0.1,0.1-0.1,0.2c0,0.1,0.1,0.1,0.2,0.1l0,0
		l0.4-0.2C35.3,29.6,34.5,30.3,33.5,30.5L33.5,30.5z M36.2,28v-0.1c0-0.1-0.1-0.2-0.2-0.2c-0.1,0-0.2,0.1-0.2,0.2v0.3
		c-0.2-0.1-0.3-0.1-0.5-0.2l-0.1-0.4c0-0.1-0.1-0.1-0.2-0.1c0,0,0,0,0,0l0,0c-0.1,0-0.1,0.1-0.1,0.2L35,28c-0.2,0-0.4-0.1-0.5-0.1
		l-0.2-0.4c0-0.1-0.1-0.1-0.2-0.1s-0.1,0.1-0.1,0.2l0.1,0.2c-0.2,0-0.4,0-0.6,0l-0.3-0.3c-0.1-0.1-0.2-0.1-0.2,0
		c-0.1,0.1-0.1,0.1,0,0.2l0.2,0.2c-0.1,0-0.3,0-0.4,0.1l-0.2,0l-0.4-0.3c-0.1,0-0.2,0-0.2,0c0,0.1,0,0.2,0,0.2l0,0l0.2,0.1
		c-0.2,0.1-0.3,0.1-0.5,0.2l-0.5-0.2c-0.1,0-0.2,0-0.2,0.1c0,0.1,0,0.2,0.1,0.2l0.2,0.1c-0.1,0.1-0.3,0.2-0.4,0.3l-0.5-0.1
		c-0.1,0-0.2,0-0.2,0.1c0,0.1,0,0.2,0.1,0.2l0,0l0,0l0.3,0.1c-0.1,0.1-0.2,0.2-0.3,0.3h-0.6c0,0-0.1,0-0.1,0.1c-1.1-1-1.4-2.6-1-4
		v0.1c0,0.1,0.1,0.2,0.2,0.2c0,0,0,0,0,0h0c0.1,0,0.1-0.1,0.1-0.1v-0.3c0.2,0.1,0.3,0.1,0.5,0.2l0.1,0.4c0,0.1,0.1,0.1,0.2,0.1
		c0,0,0,0,0,0l0,0c0.1,0,0.1-0.1,0.1-0.2c0,0,0,0,0,0l0,0l-0.1-0.3c0.2,0,0.4,0.1,0.5,0.1l0.2,0.4c0,0.1,0.1,0.1,0.2,0.1h0
		c0.1,0,0.1-0.1,0.1-0.2l0,0l-0.1-0.2c0.2,0,0.4,0,0.6,0l0.3,0.3c0.1,0.1,0.2,0.1,0.2,0c0.1-0.1,0.1-0.2,0-0.2l0,0l-0.2-0.2
		c0.1,0,0.3,0,0.4-0.1l0.2,0l0.4,0.3c0.1,0,0.2,0,0.2,0c0-0.1,0-0.2,0-0.2l-0.2-0.1c0.2-0.1,0.3-0.1,0.5-0.2l0.5,0.2
		c0.1,0,0.2,0,0.2-0.1c0-0.1,0-0.2-0.1-0.2l0,0l-0.2-0.1c0.1-0.1,0.3-0.2,0.4-0.3l0.5,0.1h0.1c0.1,0,0.1-0.1,0.1-0.2
		c0-0.1-0.1-0.1-0.1-0.1l-0.3-0.1c0.1-0.1,0.2-0.2,0.3-0.3h0.6c0,0,0.1,0,0.1,0C36.3,25,36.6,26.6,36.2,28L36.2,28L36.2,28z"/>
</g>
</svg>
