<?xml version="1.0" encoding="utf-8"?>
<!-- Generator: Adobe Illustrator 21.0.2, SVG Export Plug-In . SVG Version: 6.00 Build 0)  -->
<svg version="1.1" id="Layer_1" xmlns="http://www.w3.org/2000/svg" xmlns:xlink="http://www.w3.org/1999/xlink" x="0px" y="0px"
	 viewBox="0 0 74 74" style="enable-background:new 0 0 74 74;" xml:space="preserve">
<style type="text/css">
	.st0{fill:none;stroke:#006FAF;stroke-width:2;stroke-miterlimit:10;}
	.st1{fill:#006FAF;}
</style>
<title>Cloud &amp;amp; Infrastructure Services</title>
<circle class="st0" cx="37" cy="37" r="36"/>
<g>
	<g>
		<path class="st1" d="M33.1,49.9c-1.7,0-2.5-0.8-2.6-2.5v-8.6c0-1.6,0.9-2.5,2.5-2.5h13.7c1.7,0,2.6,0.8,2.6,2.4c0,2.9,0,5.8,0,8.8
			c0,1.6-0.9,2.4-2.6,2.4H33.1z M33.3,38.1c-0.7,0-0.8,0-0.8,0.8c0,2.8,0,5.6,0,8.4c0,0.7,0,0.8,0.8,0.8h13.4c0.8,0,0.8-0.1,0.8-0.8
			V39c0-0.8-0.1-0.8-0.8-0.8H33.3z"/>
		<path class="st1" d="M29.6,54c-0.7,0-1-0.3-1.1-0.9c0-0.3,0.1-0.5,0.2-0.7c0.2-0.2,0.5-0.3,0.7-0.3c0.1,0,0.2,0,0.3,0
			c0.1,0,0.2,0,0.3,0h21.3c0.3,0,0.6,0.1,0.7,0.3c0.2,0.2,0.2,0.4,0.2,0.6c0,0.5-0.3,0.8-0.9,0.9H30.1L30,54
			C29.8,54,29.7,54,29.6,54z"/>
	</g>
	<path class="st1" d="M52.1,31.9c-1.2-0.8-1.7-1.4-2-2.9c-0.6-4.7-4.4-8.2-8.9-8.5c-5-0.4-9.2,2.2-10.8,6.8
		c-0.3,0.8-0.6,0.8-1.3,0.6c-1.5-0.5-3-0.5-4.5,0c-3.9,1.2-6.2,4.8-5.6,9c0.5,3.9,4,6.8,8.3,6.8c0.4,0,0.8,0,1.2,0
		c0.6,0,1.1-0.2,1.1-0.8s-0.5-0.9-1-0.9c-0.5,0-1,0-1.4,0c-2.8-0.1-5.1-1.6-6.1-4.2c-0.9-2.4-0.2-5.1,1.7-6.9
		c1.9-1.8,4.7-2.1,7.2-0.9c1.3,0.6,1.6,0.5,1.8-0.9c0.4-2,1.3-3.7,2.9-5c2.8-2.3,5.9-2.7,9.1-1.1c3.2,1.6,4.9,4.3,4.8,7.9
		c0,0.9,0,1.6,1.2,1.8c1.9,0.5,3.1,1.7,3.4,3.6c0.3,2-0.3,3.5-2,4.7c-0.6,0.4-1,0.8-0.5,1.4c0.5,0.7,1,0.2,1.6-0.1
		C55.9,39.9,55.9,34.3,52.1,31.9z"/>
</g>
</svg>
