<?xml version="1.0" encoding="utf-8"?>
<!-- Generator: Adobe Illustrator 21.0.2, SVG Export Plug-In . SVG Version: 6.00 Build 0)  -->
<svg version="1.1" id="Layer_1" xmlns="http://www.w3.org/2000/svg" xmlns:xlink="http://www.w3.org/1999/xlink" x="0px" y="0px"
	 viewBox="0 0 74 74" style="enable-background:new 0 0 74 74;" xml:space="preserve">
<style type="text/css">
	.st0{fill:none;stroke:#006FAF;stroke-width:2;stroke-miterlimit:10;}
	.st1{fill:#006FAF;}
</style>
<title>Cloud &amp;amp; Infrastructure Services</title>
<circle class="st0" cx="37" cy="37" r="36"/>
<g>
	<rect x="31.8" y="17.5" class="st1" width="1.5" height="4.5"/>
	<rect x="34.8" y="17.5" class="st1" width="1.5" height="4.5"/>
	<rect x="37.8" y="17.5" class="st1" width="1.5" height="4.5"/>
	<rect x="40.8" y="17.5" class="st1" width="1.5" height="4.5"/>
	<rect x="31" y="23.6" class="st1" width="12" height="1.5"/>
	<path class="st0" d="M27.6,27.1c-0.4,0-0.6,0.3-0.6,0.6v18.8c0,0.4,0.3,0.6,0.6,0.6h18.8c0.4,0,0.6-0.3,0.6-0.6v-2.9v-0.1V30.7v0
		v-2.9c0-0.4-0.3-0.6-0.6-0.6L27.6,27.1z"/>
	<path class="st1" d="M30.9,30.3C31,30.3,31,30.3,30.9,30.3c0.5,0,0.8,0.3,0.8,0.8c0,0.4-0.3,0.8-0.8,0.8c-0.4,0-0.7-0.3-0.7-0.8
		C30.2,30.7,30.6,30.4,30.9,30.3L30.9,30.3z"/>
	<path class="st1" d="M33.9,30.3C34,30.3,34,30.3,33.9,30.3c0.5,0,0.8,0.3,0.8,0.8c0,0.4-0.3,0.8-0.8,0.8s-0.8-0.3-0.8-0.8
		C33.2,30.7,33.6,30.4,33.9,30.3L33.9,30.3z"/>
	<path class="st1" d="M36.9,30.3C37,30.3,37,30.3,36.9,30.3c0.5,0,0.8,0.3,0.8,0.8c0,0.4-0.3,0.8-0.8,0.8s-0.8-0.3-0.8-0.8
		C36.2,30.7,36.6,30.4,36.9,30.3L36.9,30.3z"/>
	<path class="st1" d="M39.9,30.3C40,30.3,40,30.3,39.9,30.3c0.5,0,0.8,0.3,0.8,0.8c0,0.4-0.3,0.8-0.8,0.8c-0.4,0-0.8-0.3-0.8-0.8
		C39.2,30.7,39.6,30.4,39.9,30.3L39.9,30.3z"/>
	<path class="st1" d="M42.9,30.3C43,30.3,43,30.3,42.9,30.3c0.5,0,0.8,0.3,0.8,0.8c0,0.4-0.3,0.8-0.8,0.8s-0.8-0.3-0.8-0.8
		C42.2,30.7,42.6,30.4,42.9,30.3L42.9,30.3z"/>
	<rect x="23.5" y="31.1" class="st1" width="1.5" height="12"/>
	<rect x="49" y="31.1" class="st1" width="1.5" height="12"/>
	<rect x="17.5" y="31.8" class="st1" width="4.5" height="1.5"/>
	<rect x="52" y="31.8" class="st1" width="4.5" height="1.5"/>
	<path class="st1" d="M32.4,33.3C32.5,33.3,32.5,33.3,32.4,33.3c0.5,0,0.8,0.3,0.8,0.8c0,0.4-0.3,0.8-0.8,0.8s-0.8-0.3-0.8-0.8
		C31.7,33.7,32.1,33.4,32.4,33.3L32.4,33.3z"/>
	<path class="st1" d="M35.4,33.3C35.5,33.3,35.5,33.3,35.4,33.3c0.5,0,0.8,0.3,0.8,0.8c0,0.4-0.3,0.8-0.8,0.8
		c-0.4,0-0.8-0.3-0.8-0.8C34.7,33.7,35.1,33.4,35.4,33.3L35.4,33.3z"/>
	<path class="st1" d="M38.4,33.3C38.5,33.3,38.5,33.3,38.4,33.3c0.5,0,0.8,0.3,0.8,0.8c0,0.4-0.3,0.8-0.8,0.8s-0.8-0.3-0.8-0.8
		C37.7,33.7,38.1,33.4,38.4,33.3L38.4,33.3z"/>
	<path class="st1" d="M41.4,33.3C41.5,33.3,41.5,33.3,41.4,33.3c0.5,0,0.8,0.3,0.8,0.8c0,0.4-0.3,0.8-0.8,0.8
		c-0.4,0-0.8-0.3-0.8-0.8C40.7,33.7,41.1,33.4,41.4,33.3L41.4,33.3z"/>
	<rect x="17.5" y="34.8" class="st1" width="4.5" height="1.5"/>
	<rect x="52" y="34.8" class="st1" width="4.5" height="1.5"/>
	<path class="st1" d="M30.9,36.3C31,36.3,31,36.3,30.9,36.3c0.5,0,0.8,0.3,0.8,0.8c0,0.4-0.3,0.8-0.8,0.8c-0.4,0-0.7-0.3-0.7-0.8
		C30.2,36.7,30.6,36.4,30.9,36.3L30.9,36.3z"/>
	<path class="st1" d="M33.9,36.3C34,36.3,34,36.3,33.9,36.3c0.5,0,0.8,0.3,0.8,0.8c0,0.4-0.3,0.8-0.8,0.8s-0.8-0.3-0.8-0.8
		C33.2,36.7,33.6,36.4,33.9,36.3L33.9,36.3z"/>
	<path class="st1" d="M36.9,36.3C37,36.3,37,36.3,36.9,36.3c0.5,0,0.8,0.3,0.8,0.8c0,0.4-0.3,0.8-0.8,0.8s-0.8-0.3-0.8-0.8
		C36.2,36.7,36.6,36.4,36.9,36.3L36.9,36.3z"/>
	<path class="st1" d="M39.9,36.3C40,36.3,40,36.3,39.9,36.3c0.5,0,0.8,0.3,0.8,0.8c0,0.4-0.3,0.8-0.8,0.8c-0.4,0-0.8-0.3-0.8-0.8
		C39.2,36.7,39.6,36.4,39.9,36.3L39.9,36.3z"/>
	<path class="st1" d="M42.9,36.3C43,36.3,43,36.3,42.9,36.3c0.5,0,0.8,0.3,0.8,0.8c0,0.4-0.3,0.8-0.8,0.8s-0.8-0.3-0.8-0.8
		C42.2,36.7,42.6,36.4,42.9,36.3L42.9,36.3z"/>
	<rect x="17.5" y="37.8" class="st1" width="4.5" height="1.5"/>
	<rect x="52" y="37.8" class="st1" width="4.5" height="1.5"/>
	<path class="st1" d="M32.4,39.3C32.5,39.3,32.5,39.3,32.4,39.3c0.5,0,0.8,0.3,0.8,0.8c0,0.4-0.3,0.8-0.8,0.8s-0.8-0.3-0.8-0.8
		C31.7,39.7,32.1,39.4,32.4,39.3L32.4,39.3z"/>
	<path class="st1" d="M35.4,39.3C35.5,39.3,35.5,39.3,35.4,39.3c0.5,0,0.8,0.3,0.8,0.8c0,0.4-0.3,0.8-0.8,0.8
		c-0.4,0-0.8-0.3-0.8-0.8C34.7,39.7,35.1,39.4,35.4,39.3L35.4,39.3z"/>
	<path class="st1" d="M38.4,39.3C38.5,39.3,38.5,39.3,38.4,39.3c0.5,0,0.8,0.3,0.8,0.8c0,0.4-0.3,0.8-0.8,0.8s-0.8-0.3-0.8-0.8
		C37.7,39.7,38.1,39.4,38.4,39.3L38.4,39.3z"/>
	<path class="st1" d="M41.4,39.3C41.5,39.3,41.5,39.3,41.4,39.3c0.5,0,0.8,0.3,0.8,0.8c0,0.4-0.3,0.8-0.8,0.8
		c-0.4,0-0.8-0.3-0.8-0.8C40.7,39.7,41.1,39.4,41.4,39.3L41.4,39.3z"/>
	<rect x="17.5" y="40.8" class="st1" width="4.5" height="1.5"/>
	<rect x="52" y="40.8" class="st1" width="4.5" height="1.5"/>
	<path class="st1" d="M30.9,42.3C31,42.3,31,42.3,30.9,42.3c0.5,0,0.8,0.3,0.8,0.8c0,0.4-0.3,0.8-0.8,0.8c-0.4,0-0.7-0.3-0.7-0.8
		C30.2,42.7,30.6,42.4,30.9,42.3L30.9,42.3z"/>
	<path class="st1" d="M33.9,42.3C34,42.3,34,42.3,33.9,42.3c0.5,0,0.8,0.3,0.8,0.8c0,0.4-0.3,0.8-0.8,0.8s-0.8-0.3-0.8-0.8
		C33.2,42.7,33.6,42.4,33.9,42.3L33.9,42.3z"/>
	<path class="st1" d="M36.9,42.3C37,42.3,37,42.3,36.9,42.3c0.5,0,0.8,0.3,0.8,0.8c0,0.4-0.3,0.8-0.8,0.8s-0.8-0.3-0.8-0.8
		C36.2,42.7,36.6,42.4,36.9,42.3L36.9,42.3z"/>
	<path class="st1" d="M39.9,42.3C40,42.3,40,42.3,39.9,42.3c0.5,0,0.8,0.3,0.8,0.8c0,0.4-0.3,0.8-0.8,0.8c-0.4,0-0.8-0.3-0.8-0.8
		C39.2,42.7,39.6,42.4,39.9,42.3L39.9,42.3z"/>
	<path class="st1" d="M42.9,42.3C43,42.3,43,42.3,42.9,42.3c0.5,0,0.8,0.3,0.8,0.8c0,0.4-0.3,0.8-0.8,0.8s-0.8-0.3-0.8-0.8
		C42.2,42.7,42.6,42.4,42.9,42.3L42.9,42.3z"/>
	<rect x="31" y="49.1" class="st1" width="12" height="1.5"/>
	<rect x="31.8" y="52" class="st1" width="1.5" height="4.5"/>
	<rect x="34.8" y="52" class="st1" width="1.5" height="4.5"/>
	<rect x="37.8" y="52" class="st1" width="1.5" height="4.5"/>
	<rect x="40.8" y="52" class="st1" width="1.5" height="4.5"/>
</g>
</svg>
