<?xml version="1.0" encoding="utf-8"?>
<!-- Generator: Adobe Illustrator 21.0.2, SVG Export Plug-In . SVG Version: 6.00 Build 0)  -->
<svg version="1.1" id="Layer_1" xmlns="http://www.w3.org/2000/svg" xmlns:xlink="http://www.w3.org/1999/xlink" x="0px" y="0px"
	 viewBox="0 0 74 74" style="enable-background:new 0 0 74 74;" xml:space="preserve">
<style type="text/css">
	.st0{fill:none;stroke:#006FAF;stroke-width:2;stroke-miterlimit:10;}
	.st1{fill:#006FAF;}
</style>
<title>Cloud &amp;amp; Infrastructure Services</title>
<circle class="st0" cx="37" cy="37" r="36"/>
<g>
	<path class="st1" d="M44.1,16.4c-0.6,0.1-1.5-0.3-1.7,0.8c-0.1,0.8,0.5,1,1.2,1c4.1,0.1,6.3,2,6.6,6.5c0.1,0.6,0.2,1.1,0.9,1.1
		c0.7,0,0.8-0.6,0.9-1.2C52.1,20.2,48.6,16.5,44.1,16.4z"/>
	<path class="st1" d="M42.8,18.6c-0.6,0-1.1,0.2-1.1,0.9c0,0.6,0.5,0.8,1,0.9c0.2,0,0.3,0,0.5,0.1c2.7,0.3,4.3,1.9,4.5,4.5
		c0.1,0.7,0.1,1.4,1,1.4c0.9-0.1,0.8-0.8,0.8-1.5C49.4,21.3,46.4,18.5,42.8,18.6z"/>
	<path class="st1" d="M42.3,21c-0.6,0-1.1,0.2-1.2,0.9c0,0.6,0.4,0.8,1,0.9c2.4,0.4,2.9,0.9,3.2,3.2c0.1,0.6,0.3,1.1,1,1
		c0.6-0.1,0.9-0.6,0.8-1.2C47.2,23.2,44.9,21,42.3,21z"/>
	<path class="st1" d="M39.1,24.7c-4.4,0-8.8,0-13.2,0c-2.6,0-3.9,1.3-3.9,3.9c0,8.4,0,16.8,0,25.2c0,2.5,1.4,3.9,3.9,3.9
		c4.4,0,8.8,0,13.2,0c2.8,0,4.2-1.3,4.2-4.1c0-4.1,0-8.2,0-12.3s0-8.2,0-12.3C43.2,26,42.1,24.7,39.1,24.7z M41.5,53.8
		c0,1.5-0.6,2.1-2.1,2.1c-4.5,0-9,0-13.5,0c-1.4,0-2.1-0.6-2.1-2.1c0-8.4,0-16.8,0-25.2c0-1.5,0.6-2.1,2.1-2.1c0.1,0,0.3,0,0.4,0
		l0,0h13.2l0,0c1.4,0.1,1.9,0.6,1.9,2.3c0,6.8,0,13.5,0,20.3C41.5,50.7,41.5,52.3,41.5,53.8z"/>
	<path class="st1" d="M32.7,51.1c-1.8,0-3.7,0-5.5,0c-1.7-0.1-2.4-0.8-2.4-2.5V32c0-1.7,0.9-2.7,2.6-2.7c1.7,0,3.4,0,5.1,0
		c1.7,0,3.4,0,5.1,0c1.7,0,2.7,1,2.7,2.8v16.6c0,1.6-0.6,2.3-2.2,2.3C36.4,51.1,34.6,51.1,32.7,51.1z M27.9,30.3
		c-1.6,0-2.1,0.5-2.1,2.1c0,1.8,0,3.5,0,5.3c0,3.4,0,7,0,10.5c0,1.3,0.5,1.8,1.7,1.8c1.7,0,3.4,0,5.1,0c1.7,0,3.4,0,5.1,0
		c0,0,0,0,0,0c0.4,0,1,0,1.3-0.4c0.3-0.3,0.4-0.7,0.3-1.3c0-1.7,0-3.5,0-5.3c0-0.9,0-1.8,0-2.6v-8.1c0-1.4-0.7-2.1-2.1-2.1H27.9z"/>
	<path class="st1" d="M32.8,51.6c-1,0-1.9,0.9-1.9,1.9c0,1.1,0.8,1.9,1.9,1.9c1.1,0,1.9-0.8,1.9-1.9C34.8,52.5,33.9,51.6,32.8,51.6z
		"/>
	<path class="st1" d="M30.4,28.3h4.4c0.3,0,0.6-0.3,0.6-0.6s-0.3-0.6-0.6-0.6h-4.4c-0.3,0-0.6,0.3-0.6,0.6
		C29.9,28,30.1,28.3,30.4,28.3z"/>
	<g>
		<g>
			<path class="st1" d="M29.8,42c-0.6,0-1.1-0.4-1.2-1c0-0.4-0.4-0.8-0.8-0.8h-0.1c-0.4,0-0.5-0.3-0.7-0.6c-0.2-0.4-0.3-0.8,0.1-1.1
				c0.2-0.1,0.3-0.4,0.3-0.6c0-0.2-0.1-0.5-0.3-0.6c-0.4-0.3-0.3-0.6-0.1-1s0.3-0.6,0.7-0.6h0.1c0.5,0,0.9-0.3,0.9-0.7
				c0-0.1,0-0.1,0-0.2c0-0.4,0.2-0.5,0.6-0.7l0.1,0c0.2-0.1,0.4-0.1,0.6-0.2c0.2,0,0.3,0.1,0.4,0.2c0.2,0.2,0.4,0.3,0.7,0.3
				c0.2,0,0.5-0.1,0.6-0.3c0.1-0.1,0.3-0.2,0.5-0.2c0.2,0,0.4,0.1,0.5,0.1l0.1,0c0.3,0.1,0.6,0.3,0.6,0.7c0,0.6,0.3,0.9,1,0.9
				c0.4,0,0.6,0.3,0.7,0.6c0.1,0.3,0.3,0.7,0,1c-0.2,0.2-0.3,0.4-0.4,0.6c0,0.3,0.2,0.5,0.4,0.6c0.3,0.3,0.2,0.6,0.1,0.9l-0.1,0.2
				c-0.1,0.3-0.2,0.5-0.6,0.5h-0.1c-0.5,0-0.8,0.3-0.9,0.8c0,0.1,0,0.1,0,0.2c0,0.5-0.3,0.6-0.6,0.7l0,0c-0.2,0.1-0.3,0.1-0.5,0.1
				c-0.2,0-0.3-0.1-0.5-0.2c-0.3-0.3-0.8-0.4-1.1-0.1c-0.1,0-0.1,0.1-0.2,0.2C30.2,41.9,30,41.9,29.8,42z M30.9,40.8
				c0.3,0,0.6,0.1,0.8,0.3c0.1,0,0.1,0.1,0.1,0.1c0,0,0.1,0.1,0.2,0.1l0.1,0l0.1-0.1c0.2-0.1,0.3-0.1,0.4-0.4
				c0.1-0.7,0.6-1.3,1.3-1.3c0.2,0,0.3-0.1,0.4-0.2c0.1-0.2,0-0.4-0.1-0.5c-0.4-0.5-0.4-1.3,0-1.8c0.1-0.1,0.2-0.3,0.1-0.5
				c-0.1-0.1-0.2-0.2-0.5-0.3c-0.6-0.1-1.2-0.6-1.3-1.2c-0.1-0.3-0.1-0.5-0.4-0.5c-0.2,0-0.3,0.1-0.4,0.2c-0.5,0.4-1.2,0.4-1.7,0
				c-0.1-0.1-0.3-0.2-0.4-0.2c-0.2,0-0.3,0.2-0.4,0.5c-0.1,0.6-0.6,1.1-1.3,1.2c-0.3,0.1-0.4,0.2-0.4,0.3c0,0.2,0,0.4,0.1,0.5
				c0.4,0.5,0.4,1.2,0,1.7c-0.2,0.3-0.2,0.4-0.1,0.5c0.1,0.1,0.2,0.2,0.5,0.3c0.6,0.1,1.1,0.6,1.2,1.2c0.1,0.3,0.1,0.5,0.4,0.5
				c0.2,0,0.3-0.1,0.4-0.2C30.3,40.9,30.6,40.8,30.9,40.8L30.9,40.8z"/>
			<path class="st1" d="M30.9,39.4c-0.4,0-0.8-0.1-1-0.4c-0.6-0.6-0.5-1.6,0.1-2.2c0.3-0.3,0.6-0.4,1-0.4h0c0.4,0,0.8,0.2,1.1,0.5
				c0.3,0.3,0.4,0.7,0.4,1.1C32.4,38.7,31.8,39.4,30.9,39.4C31,39.4,31,39.4,30.9,39.4L30.9,39.4z M30.9,36.9L30.9,36.9
				c-0.6,0-1,0.5-1,1c0,0.5,0.4,1,0.9,1c0,0,0,0,0.1,0H31c0.3,0,0.5-0.1,0.7-0.3c0.2-0.2,0.3-0.4,0.2-0.7c0-0.3-0.1-0.5-0.3-0.7
				C31.5,37,31.2,36.9,30.9,36.9L30.9,36.9z"/>
		</g>
		<path class="st1" d="M35.1,46.6c-0.4,0-0.8-0.3-0.9-0.7c0-0.2-0.2-0.4-0.4-0.4h-0.1c-0.3,0-0.4-0.2-0.5-0.4s-0.2-0.5,0.1-0.8
			c0.1-0.1,0.1-0.2,0.1-0.3c0-0.1-0.1-0.2-0.1-0.3c-0.3-0.3-0.2-0.5-0.1-0.8c0.1-0.2,0.2-0.5,0.5-0.5c0.3,0,0.5-0.1,0.5-0.4
			c0-0.3,0.2-0.5,0.4-0.5c0.1-0.1,0.3-0.1,0.4-0.1c0.1,0,0.3,0.1,0.3,0.2c0.1,0.1,0.2,0.2,0.3,0.2c0.1,0,0.2-0.1,0.3-0.1
			c0.1-0.1,0.2-0.2,0.4-0.2c0.1,0,0.3,0,0.4,0.1l0.1,0c0.2,0.1,0.4,0.2,0.4,0.5c0,0.3,0.1,0.4,0.5,0.4s0.4,0.3,0.5,0.5
			c0.2,0.2,0.2,0.5,0,0.7c-0.1,0.1-0.2,0.2-0.2,0.3c0,0.1,0.1,0.2,0.2,0.3c0.2,0.2,0.1,0.5,0.1,0.7l-0.1,0c0,0.3-0.2,0.5-0.5,0.5
			h-0.1c-0.2,0-0.4,0.2-0.4,0.4c0,0,0,0,0,0.1c0,0.4-0.2,0.5-0.5,0.6c-0.1,0.1-0.3,0.1-0.4,0.1c-0.1,0-0.3-0.1-0.4-0.2
			c-0.1-0.1-0.2-0.1-0.3-0.1c-0.1,0-0.2,0.1-0.3,0.2C35.4,46.5,35.2,46.6,35.1,46.6z M35.7,45.6c0.2,0,0.4,0.1,0.6,0.2
			c0,0,0.1,0,0.1,0.1c0,0,0.1,0,0.1,0.1c0.1-0.1,0.1-0.1,0.2-0.2c0-0.5,0.4-0.9,0.9-0.9c0.1,0,0.1,0,0.2-0.1c0,0,0-0.1-0.1-0.2
			c-0.3-0.4-0.3-0.9,0-1.3c0.1-0.1,0.1-0.2,0.1-0.2c0,0-0.1-0.1-0.2-0.1c-0.4-0.1-0.8-0.4-0.9-0.8c0-0.2-0.1-0.2-0.1-0.2
			c-0.1,0-0.1,0-0.2,0.1c-0.3,0.2-0.8,0.2-1.2,0C35.1,42,35,42,35,41.9c0,0-0.1,0-0.1,0.2c-0.1,0.4-0.4,0.8-0.9,0.8
			c-0.1,0-0.2,0.1-0.2,0.1c0,0,0,0.1,0.1,0.2c0.3,0.4,0.3,0.8,0,1.2c-0.1,0.1-0.1,0.2-0.1,0.2s0.1,0.1,0.2,0.1
			c0.4,0.1,0.8,0.4,0.8,0.8c0,0.2,0.1,0.2,0.1,0.2c0.1,0,0.1,0,0.2-0.1C35.3,45.7,35.5,45.6,35.7,45.6z"/>
		<path class="st1" d="M35.1,46.5c-0.4,0-0.8-0.3-0.9-0.7c0-0.2-0.2-0.4-0.4-0.4h-0.1c-0.3,0-0.4-0.2-0.5-0.4
			c-0.1-0.2-0.2-0.5,0.1-0.8c0.1-0.1,0.1-0.2,0.1-0.3c0-0.1-0.1-0.2-0.2-0.3c-0.3-0.2-0.2-0.5-0.1-0.7c0.1-0.2,0.2-0.5,0.5-0.5l0,0
			c0.3,0,0.5-0.2,0.5-0.5c0-0.3,0.2-0.4,0.4-0.5c0.1-0.1,0.3-0.1,0.4-0.1c0.1,0,0.2,0.1,0.3,0.1c0.1,0.1,0.2,0.2,0.3,0.2
			c0.1,0,0.2-0.1,0.3-0.2c0.1-0.1,0.2-0.2,0.4-0.2c0.1,0,0.3,0,0.4,0.1l0.1,0c0.2,0.1,0.4,0.2,0.4,0.5s0.1,0.5,0.5,0.5
			c0.4,0,0.4,0.3,0.5,0.5s0.2,0.5,0,0.7c-0.1,0.1-0.2,0.2-0.2,0.3s0.1,0.2,0.2,0.3c0.2,0.2,0.1,0.5,0.1,0.7l0,0
			c0,0.2-0.1,0.5-0.5,0.5h-0.1c-0.2,0-0.4,0.2-0.4,0.4c0,0,0,0,0,0.1c0,0.3-0.2,0.5-0.5,0.5c-0.1,0.1-0.3,0.1-0.4,0.1
			c-0.1,0-0.3-0.1-0.4-0.2c-0.1-0.2-0.3-0.2-0.5-0.1c0,0-0.1,0.1-0.1,0.1C35.4,46.5,35.2,46.5,35.1,46.5z M35.7,45.6
			c0.2,0,0.4,0.1,0.6,0.2c0,0,0.1,0,0.1,0.1c0,0,0.1,0,0.1,0.1c0.1-0.1,0.2-0.1,0.2-0.2c0-0.5,0.4-0.8,0.9-0.9c0.1,0,0.2,0,0.2-0.1
			c0-0.1,0-0.1-0.1-0.2c-0.3-0.4-0.3-0.9,0-1.2c0.1-0.1,0.1-0.2,0.1-0.2S37.6,43,37.5,43c-0.4-0.1-0.8-0.4-0.8-0.8
			c-0.1-0.2-0.1-0.2-0.1-0.2c-0.1,0-0.2,0-0.2,0.1c-0.3,0.2-0.8,0.2-1.1,0c-0.1,0-0.1-0.1-0.2-0.1c0,0-0.1,0-0.1,0.2
			c-0.1,0.4-0.4,0.8-0.8,0.8c-0.1,0-0.2,0.1-0.2,0.1c0,0,0,0.1,0.1,0.2c0.3,0.4,0.3,0.8,0,1.2c-0.1,0.1-0.1,0.2-0.1,0.2
			c0,0,0.1,0.1,0.2,0.1c0.4,0.1,0.7,0.4,0.8,0.8c0.1,0.2,0.1,0.2,0.1,0.2c0.1,0,0.2,0,0.2-0.1C35.3,45.7,35.5,45.6,35.7,45.6z"/>
		<path class="st1" d="M35.7,45c-0.3,0-0.5-0.1-0.7-0.3c-0.4-0.4-0.4-1.1,0-1.5c0.2-0.2,0.4-0.3,0.7-0.3c0.3,0,0.5,0.1,0.7,0.3
			c0.2,0.2,0.3,0.5,0.3,0.7C36.8,44.5,36.3,45,35.7,45C35.8,45,35.8,45,35.7,45L35.7,45z M35.8,43.4c-0.3,0-0.5,0.2-0.5,0.5
			c0,0.3,0.2,0.5,0.5,0.5c0,0,0,0,0,0c0.1,0,0.3,0,0.4-0.1c0.1-0.1,0.1-0.2,0.1-0.3C36.3,43.7,36.1,43.4,35.8,43.4L35.8,43.4
			L35.8,43.4z"/>
		<path class="st1" d="M35.7,44.9c-0.3,0-0.5-0.1-0.7-0.3c-0.4-0.4-0.4-1.1,0-1.5c0.2-0.2,0.4-0.3,0.7-0.3c0.3,0,0.5,0.1,0.7,0.3
			c0.2,0.2,0.3,0.5,0.3,0.7C36.8,44.5,36.3,44.9,35.7,44.9C35.8,44.9,35.8,44.9,35.7,44.9L35.7,44.9z M35.7,43.4
			c-0.3,0-0.5,0.2-0.5,0.5c0,0.3,0.2,0.5,0.5,0.5c0,0,0,0,0,0c0.1,0,0.3-0.1,0.4-0.2c0.1-0.1,0.1-0.2,0.1-0.4
			C36.3,43.7,36,43.4,35.7,43.4L35.7,43.4L35.7,43.4z"/>
	</g>
</g>
</svg>
