<?xml version="1.0" encoding="utf-8"?>
<!-- Generator: Adobe Illustrator 21.0.2, SVG Export Plug-In . SVG Version: 6.00 Build 0)  -->
<svg version="1.1" id="Layer_1" xmlns="http://www.w3.org/2000/svg" xmlns:xlink="http://www.w3.org/1999/xlink" x="0px" y="0px"
	 viewBox="0 0 74 74" style="enable-background:new 0 0 74 74;" xml:space="preserve">
<style type="text/css">
	.st0{fill:none;stroke:#006FAF;stroke-width:2;stroke-miterlimit:10;}
	.st1{fill:#006FAF;}
</style>
<g id="Department_Stores">
	<g id="Layer_13">
	</g>
</g>
<g id="Discount_Stores">
</g>
<g id="Food_and_Grocery">
</g>
<g id="E-Commerce__x2F__E-Tailers">
</g>
<circle class="st0" cx="37" cy="37" r="36"/>
<g>
	<path class="st1" d="M25,16.6v8.7c-0.8,0.9-1.3,1.5-1.8,2.1c-0.9,1.1-1.1,2-1.1,3.3c0,1.7,1.3,3.2,3,3.2v23.3
		c0,0.4,0.4,0.8,0.8,0.8h22.5c0.4,0,0.8-0.4,0.8-0.8V33.9c1.6-0.1,3-1.5,3-3.2v-0.1c0-1.1-0.2-2.1-1-3.2c-0.5-0.6-1.1-1.2-2-2.2
		v-8.5c0-0.4-0.4-0.8-0.8-0.8H25.6C25.6,16,25,16.2,25,16.6z M26.4,17.4h21v6.2c-0.5-0.5-0.9-0.9-1.5-1.5C45.8,22,45.7,22,45.6,22
		l0,0H28.2h-0.1c-0.2,0-0.3,0.1-0.4,0.2c-0.6,0.7-0.9,1-1.3,1.5V17.4z M33.9,18.8v1.5h6v-1.5H33.9z M28.7,23.4h16.4
		c2,2,3.2,3.2,3.9,4.1H25C25.7,26.5,26.9,25.4,28.7,23.4z M23.7,29h26.5c0.2,0.5,0.2,0.8,0.2,1.5v0.1c0,1-0.8,1.7-1.6,1.7
		s-1.6-0.8-1.6-1.7c0-0.4-0.4-0.8-0.8-0.8c-0.4,0-0.8,0.4-0.8,0.8c0,1-0.8,1.7-1.6,1.7s-1.6-0.8-1.6-1.7c0-0.4-0.4-0.8-0.8-0.8
		c-0.4,0-0.8,0.4-0.8,0.8c0,1-0.7,1.7-1.6,1.7c-1,0-1.6-0.8-1.6-1.7c0-0.4-0.4-0.8-0.8-0.8S36,30.3,36,30.6c0,1-0.8,1.7-1.6,1.7
		s-1.6-0.8-1.6-1.7c0-0.1,0-0.1,0-0.1c0-0.1-0.1-0.3-0.2-0.4h-0.1c-0.1-0.1-0.1-0.1-0.2-0.1s-0.1,0-0.2,0H32c-0.1,0-0.1,0-0.1,0
		c-0.3,0.1-0.6,0.4-0.6,0.7c0,1-0.8,1.7-1.6,1.7c-0.5,0-0.9-0.2-1.1-0.5c-0.3-0.3-0.5-0.7-0.5-1.1c0-0.4-0.4-0.8-0.8-0.8
		s-0.8,0.4-0.8,0.8c0,0.5-0.2,0.9-0.5,1.1c-0.3,0.3-0.7,0.5-1.1,0.5c-0.9,0-1.6-0.8-1.6-1.7C23.4,29.9,23.4,29.5,23.7,29z
		 M36.9,32.5c0.6,0.8,1.3,1.4,2.4,1.4c1.1,0,1.8-0.6,2.4-1.3c0.5,0.7,1.1,1.1,2,1.3v15.8H30.1V33.8c0.9-0.1,1.5-0.7,2-1.3
		c0.6,0.8,1.3,1.3,2.4,1.3C35.6,33.9,36.3,33.2,36.9,32.5z M27.4,32.5c0.1,0.1,0.1,0.3,0.2,0.4c0.3,0.3,0.7,0.6,1.1,0.8v16.7v0.8
		h0.8h15h0.8v-0.8V33.6c0.5-0.3,1-0.7,1.2-1.1c0.3,0.4,0.6,0.8,1,1v22.9H26.4V33.5c0.3-0.2,0.6-0.4,0.9-0.6
		C27.4,32.8,27.3,32.7,27.4,32.5z M36.7,51.9L36.7,51.9c-0.9,0.1-1.3,0.8-1.3,1.5c0,0.9,0.7,1.5,1.5,1.5l0,0c0.9,0,1.5-0.7,1.5-1.5
		l0,0c0-0.9-0.7-1.5-1.5-1.5l0,0C36.8,51.9,36.8,51.9,36.7,51.9z"/>
</g>
<g id="Fashion__x26__Apparel">
</g>
<g id="Distributors__x26__Wholesalers">
</g>
</svg>
