<?xml version="1.0" encoding="utf-8"?>
<!-- Generator: Adobe Illustrator 21.0.2, SVG Export Plug-In . SVG Version: 6.00 Build 0)  -->
<svg version="1.1" id="Layer_1" xmlns="http://www.w3.org/2000/svg" xmlns:xlink="http://www.w3.org/1999/xlink" x="0px" y="0px"
	 viewBox="0 0 74 74" style="enable-background:new 0 0 74 74;" xml:space="preserve">
<style type="text/css">
	.st0{fill:none;stroke:#006FAF;stroke-width:2;stroke-miterlimit:10;}
	.st1{fill:#006FAF;}
	.st2{fill:none;stroke:#006FAF;stroke-width:1.5;stroke-miterlimit:10;}
</style>
<title>Cloud &amp;amp; Infrastructure Services</title>
<circle class="st0" cx="37" cy="37" r="36"/>
<g>
	<path class="st1" d="M31.5,38.6c0,1.2,1,2.2,2.2,2.2c1.2,0,2.2-1,2.2-2.2c0-0.1,0-0.3,0-0.4l0.6-0.5c0.3-0.2,0.4-0.6,0.3-1
		l-0.3-1.2h0.7l0.5,0.9c0.2,0.3,0.5,0.5,0.9,0.5h0.4c-0.4,0.4-0.7,1-0.7,1.6c0,1.2,1,2.2,2.2,2.2c1.2,0,2.2-1,2.2-2.2
		c0-1.1-0.8-1.9-1.8-2.1c0-0.1,0-0.1,0-0.2c0-0.4-0.3-0.7-0.7-0.7h-1.1l-0.2-1.2c-0.1-0.4-0.4-0.6-0.7-0.6h-3.1
		c-0.3,0-0.6,0.2-0.8,0.4c-0.2,0.3-0.2,0.6-0.1,0.9l0.7,1.7c-0.3-0.2-0.7-0.3-1.1-0.3C32.5,36.4,31.5,37.4,31.5,38.6z M36.2,37.3
		l-1.8,1.4c-0.2,0.1-0.4,0.1-0.5-0.1l0,0c-0.1-0.1-0.1-0.2-0.1-0.3c0-0.1,0.1-0.2,0.1-0.2c0.6-0.4,1.4-1,1.4-1
		c0.1-0.1,0.1-0.2,0.1-0.3l-0.9-2c-0.1-0.1,0-0.3,0-0.4c0.1-0.1,0.2-0.2,0.4-0.2H38c0.1,0,0.3,0.1,0.3,0.2l0.2,1.4
		c0,0.1,0.1,0.2,0.2,0.2h1.4c0.1,0,0.2,0.1,0.2,0.2c0,0.1-0.1,0.2-0.2,0.2h-1.6c-0.2,0-0.4-0.1-0.5-0.3l-0.6-1
		c0-0.1-0.1-0.1-0.2-0.1h-1.1c-0.1,0-0.1,0-0.2,0.1c0,0.1-0.1,0.1,0,0.2l0.4,1.5C36.4,37,36.3,37.2,36.2,37.3z M39.5,37h0.6
		c0.2,0,0.4-0.1,0.5-0.2c0.9,0.1,1.6,0.9,1.6,1.8c0,1-0.8,1.8-1.8,1.8c-1,0-1.8-0.8-1.8-1.8C38.5,37.9,38.9,37.3,39.5,37z
		 M31.9,38.6c0-1,0.8-1.8,1.8-1.8c0.3,0,0.6,0.1,0.9,0.2c-0.3,0.2-0.7,0.5-1,0.7c-0.2,0.1-0.3,0.3-0.3,0.6s0,0.5,0.2,0.6l0,0
		c0.2,0.2,0.4,0.3,0.7,0.3c0.2,0,0.4-0.1,0.5-0.2l0.9-0.7c0,0,0,0.1,0,0.1c0,1-0.8,1.8-1.8,1.8S31.9,39.6,31.9,38.6z"/>
	<path class="st1" d="M41,34.2c0-0.5-0.4-1-1-1s-1,0.4-1,1s0.4,1,1,1C40.6,35.2,41,34.8,41,34.2z M40.5,34.2c0,0.3-0.2,0.5-0.5,0.5
		s-0.5-0.2-0.5-0.5s0.2-0.5,0.5-0.5C40.3,33.7,40.5,34,40.5,34.2z"/>
</g>
<g>
	<path class="st2" d="M36.3,54.5c-0.4,0-0.7-0.1-1.1-0.1c-1.8-0.2-3.5-0.6-5.1-1.3c-3.1-1.3-5.6-3.4-7.5-6.1
		c-0.6-0.9-0.7-1.8-0.1-2.8c0.5-0.9,1.4-1.4,2.4-1.3c0.8,0.1,1.5,0.4,1.9,1.1c0.8,1.2,1.9,2.2,3.1,3.1c1.6,1.1,3.4,1.9,5.4,2.1
		c4.5,0.6,8.9-1.3,11.6-4.9c0.5-0.6,1-1.1,1.8-1.2c1.6-0.3,3.1,1,3,2.6c0,0.5-0.2,1-0.5,1.4c-2.7,3.7-6.3,6.1-10.8,7
		c-0.8,0.2-1.6,0.2-2.5,0.3c-0.1,0-0.1,0-0.2,0C37.3,54.5,36.8,54.5,36.3,54.5z"/>
	<path class="st2" d="M37.8,19.5c0.4,0,0.7,0.1,1.1,0.1c2.2,0.2,4.3,0.9,6.3,1.9c2.4,1.3,4.5,3.1,6.1,5.3c1.2,1.6,0.2,3.8-1.7,4.1
		c-1,0.1-1.8-0.2-2.4-1c-0.8-1.1-1.7-2-2.8-2.8c-1.9-1.4-3.9-2.2-6.2-2.3c-4.6-0.3-8.3,1.4-11.1,5.1c-0.4,0.6-0.9,1-1.6,1.2
		c-1,0.2-2.1-0.2-2.7-1c-0.6-0.9-0.6-2,0-2.9c1-1.5,2.3-2.8,3.7-3.9c1.9-1.5,4.1-2.5,6.5-3.1c1.1-0.3,2.2-0.4,3.3-0.5
		c0.1,0,0.1,0,0.2,0C36.8,19.5,37.3,19.5,37.8,19.5z"/>
	<path class="st2" d="M54.5,37.4c0,0.2-0.1,0.4-0.1,0.6c-0.5,1.7-2,2.8-3.8,2.7c-1.7-0.1-3.1-1.4-3.4-3.1c-0.3-2,1.1-3.9,3-4.2
		c2-0.3,3.9,1,4.2,3c0,0.1,0,0.2,0.1,0.3C54.5,36.9,54.5,37.1,54.5,37.4z"/>
	<path class="st2" d="M19.5,36.6c0-0.2,0.1-0.5,0.1-0.7c0.5-1.7,2.1-2.8,3.8-2.6c1.7,0.1,3.1,1.5,3.3,3.1c0.3,2.4-1.6,4.4-3.9,4.2
		c-1.7-0.1-3.1-1.5-3.3-3.2c0-0.1,0-0.1,0-0.2C19.5,37.1,19.5,36.9,19.5,36.6z"/>
	<path class="st2" d="M44.4,27.8c0,0.1,0,0.1,0,0.2c0,5.1,0,10.2,0,15.2c0,0.1,0,0.2-0.2,0.3c-2.4,1.5-4.7,2.9-7.1,4.4
		C37,48,37,48,36.8,48c-2.4-1.5-4.7-2.9-7.1-4.4c-0.1-0.1-0.1-0.1-0.1-0.3c0-5.1,0-10.2,0-15.3c0-0.1,0-0.1,0-0.2
		C34.5,27.8,39.4,27.8,44.4,27.8z"/>
</g>
</svg>
