<?xml version="1.0" encoding="utf-8"?>
<!-- Generator: Adobe Illustrator 21.1.0, SVG Export Plug-In . SVG Version: 6.00 Build 0)  -->
<svg version="1.1" xmlns="http://www.w3.org/2000/svg" xmlns:xlink="http://www.w3.org/1999/xlink" x="0px" y="0px"
	 viewBox="0 0 74 74" style="enable-background:new 0 0 74 74;" xml:space="preserve">
<style type="text/css">
	.st0{fill:none;stroke:#006FAF;stroke-width:2;stroke-miterlimit:10;}
	.st1{fill:#006FAF;stroke:#006FAF;stroke-miterlimit:10;}
	.st2{fill:#006FAF;}
	.st3{fill:#006FAF;stroke:#006FAF;stroke-width:0.75;stroke-miterlimit:10;}
	.st4{fill:none;stroke:#006FAF;stroke-width:1.5;stroke-miterlimit:10;}
	.st5{fill:none;stroke:#006FAF;stroke-miterlimit:10;}
	.st6{fill:#006FAF;stroke:#006FAF;stroke-width:0.5;stroke-miterlimit:10;}
	.st7{fill:#006FAF;stroke:#006FAF;stroke-width:1.5;stroke-miterlimit:10;}
	.st8{fill:none;stroke:#006FAF;stroke-width:0.75;stroke-miterlimit:10;}
</style>
<g id="independent-sales-organizations">
	<g id="Layer_13">
	</g>
</g>
<g id="payment-gateways">
</g>
<g id="acquirers">
</g>
<g id="merchants">
</g>
<g id="processors-payment-transfers">
</g>
<g id="technology-providers">
	<circle class="st0" cx="37.1" cy="37" r="36"/>
	<g>
		<path class="st2" d="M48.9,28.9L48,29.2c-0.4-0.5-0.8-0.9-1.3-1.3l0.4-1.1c0-0.1,0-0.2,0-0.2c0-0.1-0.1-0.1-0.2-0.2l-1.4-0.6
			c-0.2-0.1-0.4,0-0.4,0.2l-0.5,1.1c-0.5-0.1-1.1-0.1-1.6,0l-0.4-1c0-0.2-0.3-0.2-0.4-0.2l-1.5,0.6c-0.2,0-0.2,0.3-0.2,0.4l0.4,1
			c-0.5,0.3-0.9,0.7-1.2,1.1l-1.2-0.5c-0.2-0.1-0.4,0-0.4,0.2l-0.6,1.5c0,0.1,0,0.2,0,0.2c0,0,0.1,0.1,0.2,0.2l1.1,0.5
			c-0.1,0.6-0.1,1.2,0,1.9l-0.9,0.4c-0.2,0-0.2,0.3-0.2,0.4l0.6,1.5c0,0.2,0.3,0.2,0.4,0.2l0.9-0.4c0.3,0.5,0.7,0.9,1.1,1.2l-0.4,1
			c0,0.1,0,0.2,0,0.2c0,0.1,0.1,0.1,0.2,0.2l1.5,0.6c0.1,0,0.2,0,0.2,0c0.1,0,0.1-0.1,0.2-0.2l0.4-1c0.6,0.1,1.2,0.1,1.9,0l0.4,0.8
			c0,0.2,0.3,0.2,0.4,0.2l1.5-0.6c0.2,0,0.2-0.3,0.2-0.4l-0.4-0.9c0.5-0.4,0.9-0.8,1.3-1.3l0.8,0.4c0.1,0,0.2,0,0.2,0
			c0.1,0,0.1-0.1,0.2-0.2l0.6-1.5c0-0.1,0-0.2,0-0.2c0-0.1-0.1-0.1-0.2-0.2l-0.9-0.4c0.1-0.5,0.1-1.1,0-1.7l0.9-0.4
			c0.2,0,0.2-0.3,0.2-0.4l-0.6-1.5C49.3,28.9,49,28.8,48.9,28.9z M44.9,35c-1.6,0.6-3.4-0.1-4.1-1.7c-0.6-1.6,0.1-3.4,1.7-4.1
			s3.4,0.1,4.1,1.7C47.3,32.5,46.5,34.4,44.9,35z"/>
		<path class="st4" d="M53.1,45.1l-8.7,2.5v0c0.2,0.9,0.1,1.8-0.4,2.6c-0.5,0.8-1.2,1.5-2.2,1.7c-0.9,0.3-1.9,0.1-2.7-0.3l-5-2.8
			l0.5-0.8l5,2.8c0.6,0.4,1.3,0.4,2,0.2c0.7-0.2,1.2-0.6,1.5-1.2c0.2-0.3,0.3-0.7,0.3-1c0.1-0.9-0.3-1.7-1-2.2l-12.1-6.8
			c0,0-1.3-0.8-3-0.4c0,0,0,0,0,0c-0.3,0-13.4,3.8-14,4h0l2.7,9.4l8.8-2.5c0.9,0.5,7.6,4.7,8.4,5.1c1.5,0.8,3.3,0.4,3.7,0.3
			c0,0,17.9-5.1,17.9-5.1c1.2-0.4,2.3-2,1.8-3.7C56,45.5,54.6,44.7,53.1,45.1z"/>
		<path class="st2" d="M51.2,37.2c1.1-1.5,1.7-3.4,1.7-5.4c0-2.5-0.9-4.8-2.7-6.6c-1.7-1.8-4.1-2.7-6.5-2.7c-5.1,0-9.2,4.2-9.2,9.2
			s4.2,9.2,9.2,9.2c0.9,0,1.7-0.1,2.6-0.4l-0.2-0.9c-0.8,0.2-1.6,0.4-2.4,0.4c-4.6,0-8.4-3.7-8.4-8.3s3.7-8.3,8.3-8.3
			s8.3,3.7,8.3,8.3c0,1.8-0.5,3.4-1.6,4.9L51.2,37.2z"/>
		<path class="st2" d="M51.5,24.1c-2.1-2.1-4.9-3.2-7.8-3.2c-1,0-2,0.1-3,0.4l0.2,0.8c0.9-0.3,1.9-0.4,2.8-0.4
			c5.6,0,10.2,4.6,10.2,10.2s-4.6,10.2-10.2,10.2c-5.6,0-10.2-4.6-10.2-10.2c0-2.1,0.7-4.2,1.9-5.9l-0.8-0.4c-1.3,1.9-2,4-2,6.3
			c0,6.1,5,11,11,11c6.1,0,11.1-5,11.1-11C54.8,28.9,53.6,26.2,51.5,24.1z"/>
	</g>
</g>
<g id="mobile-payment-providers">
</g>
<g id="alternate-payment-providers">
</g>
<g id="white-label-payment-gateway">
</g>
<g id="deep-financial-services">
</g>
</svg>
