<?xml version="1.0" encoding="utf-8"?>
<!-- Generator: Adobe Illustrator 21.0.0, SVG Export Plug-In . SVG Version: 6.00 Build 0)  -->
<svg version="1.1" id="Layer_1" xmlns="http://www.w3.org/2000/svg" xmlns:xlink="http://www.w3.org/1999/xlink" x="0px" y="0px"
	 viewBox="0 0 74 74" style="enable-background:new 0 0 74 74;" xml:space="preserve">
<style type="text/css">
	.st0{fill:#006FAF;}
</style>
<title>health-checks</title>
<path class="st0" d="M37,74C16.6,74,0,57.4,0,37S16.6,0,37,0s37,16.6,37,37S57.4,74,37,74z M37,2C17.7,2,2,17.7,2,37s15.7,35,35,35
	s35-15.7,35-35S56.3,2,37,2z"/>
<g>
	<g>
		<path class="st0" d="M56.5,36.4l-2.3-1.3l-1.3-5.6C52.6,28,51.3,27,49.7,27h-6.6v-1.1c0-0.5-0.4-0.8-0.8-0.8H17.8
			c-0.5,0-0.8,0.4-0.8,0.8v19c0,0.5,0.4,0.8,0.8,0.8h2.6c0.4,1.9,1.9,3.1,3.9,3.1s3.5-1.4,3.9-3.1h16.1l0,0c0.4,1.9,1.9,3.1,3.9,3.1
			c1.9,0,3.5-1.4,3.9-3.1h4.1c0.5,0,0.8-0.4,0.8-0.8v-7.7C57,36.9,56.8,36.6,56.5,36.4z M24.3,47.3c-1.3,0-2.4-1.1-2.4-2.4
			s1.1-2.4,2.4-2.4c1.3,0,2.4,1.1,2.4,2.4S25.6,47.3,24.3,47.3z M41.5,41.3h-7.1c-0.5,0-0.8,0.4-0.8,0.8c0,0.5,0.4,0.8,0.8,0.8h7.1
			v1.3H28.2c-0.4-1.9-1.9-3.1-3.9-3.1s-3.5,1.4-3.9,3.1h-1.8v-4.1h22.9V41.3L41.5,41.3z M41.5,27.7v10.6H18.7V26.7h22.9V27.7z
			 M47.7,28.6h2c0.8,0,1.5,0.6,1.7,1.3l1.2,5h-4.8L47.7,28.6L47.7,28.6z M48.2,47.3c-1.3,0-2.3-1-2.4-2.2c0-0.1,0-0.1,0-0.2
			s0-0.1,0-0.2c0.1-1.2,1.1-2.2,2.4-2.2c1.3,0,2.4,1.1,2.4,2.4C50.6,46.2,49.5,47.3,48.2,47.3z M55.3,40.3h-1.5v-0.8h1.5V40.3z
			 M55.3,37.9H53c-0.5,0-0.8,0.4-0.8,0.8v2.4c0,0.5,0.4,0.8,0.8,0.8h2.3v2.2h-3.2c-0.4-1.9-1.9-3.1-3.9-3.1c-1.9,0-3.5,1.4-3.9,3.1
			h-1.2V28.6h3.1v7.1c0,0.5,0.4,0.8,0.8,0.8h6.4l2,1.2L55.3,37.9L55.3,37.9z"/>
	</g>
</g>
</svg>
