<?xml version="1.0" encoding="utf-8"?>
<!-- Generator: Adobe Illustrator 21.0.2, SVG Export Plug-In . SVG Version: 6.00 Build 0)  -->
<svg version="1.1" id="Layer_1" xmlns="http://www.w3.org/2000/svg" xmlns:xlink="http://www.w3.org/1999/xlink" x="0px" y="0px"
	 viewBox="0 0 74 74" style="enable-background:new 0 0 74 74;" xml:space="preserve">
<style type="text/css">
	.st0{fill:none;stroke:#006FAF;stroke-width:2;stroke-miterlimit:10;}
	.st1{fill:#006FAF;}
</style>
<title>Cloud &amp;amp; Infrastructure Services</title>
<circle class="st0" cx="37" cy="37" r="36"/>
<g>
	<path class="st1" d="M51.7,39.6c-1.3,0-2.5,0.8-2.9,2.1l-0.1,0.2h-6.2l0-9.8h5.9l0.3,0.1l0.1,0.2c0,0,0,0.1,0.1,0.1l0.1,0.1
		c0.1,0.2,0.2,0.4,0.4,0.6c0.1,0.1,0.2,0.3,0.3,0.4l0.1,0.1c0.2,0.2,0.4,0.3,0.6,0.4c0.5,0.2,0.9,0.4,1.4,0.4c0.3,0,0.5,0,0.9-0.1
		l0.2,0c0.1,0,0.2-0.1,0.3-0.1c0.1,0,0.1-0.1,0.2-0.1c0.1-0.1,0.2-0.1,0.3-0.2c0.1-0.1,0.2-0.2,0.3-0.3c0,0,0.1-0.1,0.2-0.2
		c0.1-0.1,0.1-0.2,0.2-0.2c0-0.1,0.1-0.1,0.1-0.2c0.1-0.1,0.1-0.2,0.2-0.3c0,0,0-0.1,0.1-0.1c0.2-0.4,0.2-0.8,0.2-1.2
		c0-0.4-0.1-0.8-0.2-1.1c-0.1-0.2-0.1-0.3-0.2-0.4c-0.1-0.1-0.1-0.2-0.2-0.3c-0.1-0.1-0.2-0.3-0.3-0.4c-0.1-0.1-0.1-0.1-0.2-0.2
		c-0.1-0.1-0.2-0.2-0.4-0.3c-0.1,0-0.1-0.1-0.2-0.1c-0.2-0.1-0.5-0.2-0.8-0.3c-0.1,0-0.2,0-0.3,0l-0.1,0c-0.1,0-0.1,0-0.2,0
		c-1.3,0-2.5,0.8-2.9,2l-0.1,0.2l-7.9,0l0,5.9h-4.1c0.1,0.3,0.1,0.5,0.1,0.8c0,0.3,0,0.6-0.1,0.9h4.2l0,5.6l7.9,0l0.1,0.2
		c0.5,1.2,1.6,2.1,2.9,2.1c1.7,0,3.2-1.4,3.2-3.2C54.8,41,53.4,39.6,51.7,39.6z M51.7,29.8L51.7,29.8L51.7,29.8
		c0.8,0.1,1.4,0.7,1.4,1.5c0,0.8-0.7,1.5-1.5,1.5c-0.8-0.1-1.4-0.7-1.4-1.4C50.2,30.5,50.9,29.8,51.7,29.8z M51.7,44.2
		c-0.8,0-1.5-0.7-1.5-1.5s0.7-1.5,1.5-1.5c0.8,0,1.5,0.7,1.5,1.5S52.5,44.2,51.7,44.2z"/>
	<path class="st1" d="M33.8,33.9c-0.3-0.1-0.7-0.1-1-0.1c-0.3,0-0.5,0-0.8,0.1c-0.2,0-0.5,0.1-0.5,0.1c0-0.1-0.1-0.3-0.2-0.5
		c-0.8-1.8-2.7-3-4.7-3l-0.3,0c-2,0-3.9,1.2-4.7,3c-0.3,0.5-0.5,1-0.5,1.6c0,0.2,0,0.5,0,0.5c0,0-0.2,0.1-0.3,0.2l-0.3,0.2
		c-1.4,0.8-2,2.4-1.6,4c0.5,1.5,1.8,2.5,3.4,2.5h10.5c2.2,0,3.9-1.7,4.2-3.8C37.2,36.3,35.8,34.4,33.8,33.9z M35,38.8
		c-0.3,1-1.3,1.7-2.4,1.7c0,0-9.9,0-9.9,0l-0.1,0c-0.8,0-1.5-0.5-1.7-1.3l0-0.1c-0.1-0.4,0-0.8,0.2-1.1c0.2-0.4,0.6-0.7,1-0.8
		c0.6-0.2,1.1-0.8,1-1.4c0-0.7,0.2-1.4,0.6-2c0.6-1,1.7-1.6,2.9-1.6c0.2,0,0.4,0,0.7,0.1c1.4,0.2,2.6,1.3,2.9,2.7
		c0.2,0.7,0.4,1.1,0.9,1.1c0.2,0,0.5-0.1,0.9-0.3c0.3-0.1,0.7-0.2,1-0.2c0.6,0,1.3,0.2,1.7,0.7C35.1,36.9,35.3,37.9,35,38.8z"/>
</g>
</svg>
