<svg id="Layer_1" data-name="Layer 1" xmlns="http://www.w3.org/2000/svg" viewBox="0 0 74 74"><defs><style>.cls-1,.cls-2,.cls-3{fill:none;stroke:#006faf;stroke-width:2px;}.cls-1{stroke-miterlimit:10;}.cls-2{stroke-linecap:round;}.cls-2,.cls-3{stroke-linejoin:round;}</style></defs><title>datacenter-migration</title><circle class="cls-1" cx="37" cy="37" r="36"/><path id="path3-71-6" class="cls-2" d="M48.1,46.6h.5a7.31,7.31,0,0,0,1.3-14.5v-.9A9.18,9.18,0,0,0,32.1,28a5,5,0,0,0-3.5-1.6,4.69,4.69,0,0,0-4.7,4.7,2.77,2.77,0,0,0,.1.9,7.3,7.3,0,0,0,1.2,14.5h6.2"/><path id="path5-7-1-7" class="cls-3" d="M44.1,30.6a1.5,1.5,0,0,1,1.4,1.1,4.74,4.74,0,0,1,0,1.2V48.5a19.22,19.22,0,0,1,0,2.4,1.39,1.39,0,0,1-1.3,1.2H35.4a1.48,1.48,0,0,1-1.3-1.2v-19a1.38,1.38,0,0,1,1.2-1.2,9.63,9.63,0,0,1,1.7,0h5.1Z"/><path id="rect6287-6-2-2-2-1-2-3-6-5-1-6-8-2-5" class="cls-2" d="M42.5,33.3h-2"/><path id="rect6287-6-2-2-2-1-2-3-6-5-1-6-8-2-2" class="cls-2" d="M43,38.7H36.8"/><path id="rect6287-6-2-2-2-1-2-3-6-5-1-6-8-2-2-5" class="cls-2" d="M43,41.9H36.8"/><path id="rect6287-6-2-2-2-1-2-3-6-5-1-6-8-2-2-0" class="cls-2" d="M43,45.1H36.8"/><path id="rect6287-6-2-2-2-1-2-3-6-5-1-6-8-2-2-2" class="cls-2" d="M43,48.3H36.8"/></svg>