<?xml version="1.0" encoding="utf-8"?>
<!-- Generator: Adobe Illustrator 21.1.0, SVG Export Plug-In . SVG Version: 6.00 Build 0)  -->
<svg version="1.1" id="Layer_1" xmlns="http://www.w3.org/2000/svg" xmlns:xlink="http://www.w3.org/1999/xlink" x="0px" y="0px"
	 viewBox="0 0 74 74" style="enable-background:new 0 0 74 74;" xml:space="preserve">
<style type="text/css">
	.st0{fill:#006FAF;}
</style>
<title>Cloud &amp;amp; Infrastructure Services</title>
<path class="st0" d="M37,74C16.6,74,0,57.4,0,37S16.6,0,37,0s37,16.6,37,37S57.4,74,37,74z M37,2C17.7,2,2,17.7,2,37s15.7,35,35,35
	s35-15.7,35-35S56.3,2,37,2z"/>
<g>
	<path class="st0" d="M27.2,51.5c-2.2,0-4.2-0.8-5.8-2.4c-1.5-1.5-2.4-3.5-2.4-5.7s0.8-4.3,2.4-5.8c1.6-1.6,3.6-2.4,5.8-2.4
		s4.2,0.8,5.8,2.4l2.3,2.3c0.2,0.2,0.4,0.5,0.4,0.8s-0.1,0.6-0.4,0.8c-0.2,0.2-0.5,0.3-0.8,0.3s-0.6-0.1-0.8-0.3l-2.3-2.3
		c-1.1-1.1-2.5-1.7-4-1.7s-2.9,0.6-4,1.7c-1.1,1-1.7,2.4-1.7,3.9s0.6,3,1.7,4.1s2.5,1.7,4,1.7s2.9-0.6,4-1.7l9.7-9.7
		c1.6-1.6,3.6-2.4,5.8-2.4c2.1,0,4.2,0.8,5.8,2.3C54.1,39,55,41,55,43.1c0,2.2-0.8,4.3-2.4,5.8c-1.6,1.6-3.6,2.4-5.8,2.4
		s-4.3-0.9-5.7-2.4l-2.3-2.3c-0.2-0.2-0.4-0.5-0.4-0.8s0.1-0.6,0.4-0.8c0.2-0.2,0.5-0.3,0.8-0.3s0.6,0.1,0.9,0.3l2.3,2.3
		c1.1,1.1,2.5,1.7,4,1.7s3-0.6,4-1.7c1.1-1,1.7-2.4,1.7-3.9s-0.6-3-1.7-4.1c-1.1-1.1-2.5-1.7-4-1.7s-2.9,0.6-4,1.7L33,49.1
		C31.4,50.6,29.4,51.5,27.2,51.5z"/>
	<path class="st0" d="M42.9,46.4v-6.3l-2,2v2.3l0.1,0.1L42.9,46.4z"/>
	<path class="st0" d="M31.1,26.1l-1.9-6.7c-0.1-0.5-0.5-0.8-1-0.8h-1.9l0,0c-0.4,0-0.8,0.3-0.9,0.7L23.6,26
		c-0.1,0.3-0.1,0.6,0.1,0.8l1.8,2.9c0.2,0.3,0.5,0.5,0.8,0.5v4c0.3,0,0.5,0,0.8,0c0.4,0,0.8,0,1.2,0.1v-4c0.3,0,0.6-0.2,0.8-0.4
		L31,27C31.2,26.6,31.2,26.4,31.1,26.1z M27.8,28.3h-0.4l0,0l0,0H27l-1.3-2.1l1.6-5.7h0.4l0,0l1.6,5.7L27.8,28.3z"/>
	<path class="st0" d="M46.5,52L46.5,52c-0.7,0-1.2-0.1-1.8-0.2v3.7h1.8V52z"/>
	<path class="st0" d="M30.5,51.5v4.1h2v-5.2C31.9,50.8,31.2,51.2,30.5,51.5z"/>
	<path class="st0" d="M22.3,50.6v4.9h2v-3.9C23.6,51.4,22.9,51.1,22.3,50.6z"/>
	<path class="st0" d="M24.5,47.3c0.1-0.4,0.3-0.7,0.5-1c0.4-0.4,0.8-0.6,1.4-0.6h1l0,0l0,0h1l0,0c0.5,0,1,0.2,1.4,0.6l0,0
		c0.2,0.2,0.4,0.5,0.5,0.8c0.2-0.1,0.3-0.3,0.5-0.4l1-1c-0.2-0.3-0.4-0.6-0.6-0.8l0,0l0,0c-0.7-0.7-1.7-1.1-2.8-1.1v-5.3
		c-0.3-0.1-0.7-0.1-1.1-0.1c-0.3,0-0.6,0-0.9,0.1v5.3c-1.1,0-2.1,0.4-2.8,1.1c-0.2,0.2-0.4,0.5-0.6,0.8c0.2,0.4,0.5,0.7,0.8,1
		C24,46.9,24.3,47.1,24.5,47.3z"/>
	<path class="st0" d="M44.9,38.7v9.2c0.6,0.3,1.2,0.4,1.9,0.4h0.1v-10h-0.1C46.1,38.3,45.5,38.4,44.9,38.7z"/>
	<path class="st0" d="M41.1,49.8v5.8h1.8v-4.4C42.3,50.8,41.6,50.3,41.1,49.8z"/>
	<path class="st0" d="M42.8,30.7c0-0.5-0.3-0.9-0.7-1c-1-0.4-1.8-1-2.4-1.8c-0.6-0.8-0.9-1.8-0.9-2.9c0-1,0.3-2,0.8-2.8
		c0.2-0.3,0.5-0.7,0.8-1V26c0,0.5,0.4,1,1,1l0,0h4.9c0.5,0,1-0.4,1-1l0,0v-4.8c0.3,0.3,0.6,0.6,0.8,1l0,0c0.5,0.8,0.8,1.7,0.8,2.8
		c0,1.1-0.3,2.1-0.9,2.9c-0.6,0.9-1.5,1.5-2.5,1.9c-0.4,0.1-0.7,0.5-0.7,0.9l0,0v3.9c0.6-0.1,1.2-0.2,1.9-0.2h0.1v-3
		c1.1-0.5,2.1-1.3,2.8-2.3c0.8-1.2,1.3-2.6,1.3-4.1c0-1.4-0.4-2.7-1.1-3.8c-0.7-1.1-1.7-2-2.9-2.6l0,0c-0.1-0.1-0.3-0.1-0.5-0.1
		c-0.5,0-1,0.4-1,1v5.7h-2.9v-5.7l0,0c0-0.1,0-0.3-0.1-0.4c-0.2-0.5-0.8-0.7-1.3-0.5c-1.2,0.6-2.3,1.5-3,2.6S37,23.6,37,25
		c0,1.5,0.5,2.9,1.3,4.1c0.7,1,1.7,1.8,2.8,2.3v5.4c0.6-0.6,1.3-1.1,2-1.4v-4.7H42.8z"/>
</g>
</svg>
