<?xml version="1.0" encoding="utf-8"?>
<!-- Generator: Adobe Illustrator 21.0.2, SVG Export Plug-In . SVG Version: 6.00 Build 0)  -->
<svg version="1.1" id="Layer_1" xmlns="http://www.w3.org/2000/svg" xmlns:xlink="http://www.w3.org/1999/xlink" x="0px" y="0px"
	 viewBox="0 0 74 74" style="enable-background:new 0 0 74 74;" xml:space="preserve">
<style type="text/css">
	.st0{fill:#006FAF;}
</style>
<title>digital-transformation</title>
<g>
	<path class="st0" d="M37,74C16.6,74,0,57.4,0,37C0,16.6,16.6,0,37,0c20.4,0,37,16.6,37,37C74,57.4,57.4,74,37,74z M37,2
		C17.7,2,2,17.7,2,37s15.7,35,35,35s35-15.7,35-35S56.3,2,37,2z"/>
</g>
<g>
	<g>
		<path class="st0" d="M36.1,35.9H19.5V19.3h16.6V35.9z"/>
	</g>
	<g>
		<path class="st0" d="M54.5,35.9H37.9V19.3h16.6V35.9L54.5,35.9z"/>
	</g>
	<g>
		<path class="st0" d="M36.1,54.7H19.5V38.1h16.6V54.7z"/>
	</g>
	<g>
		<path class="st0" d="M54.5,54.7H37.9V38.1h16.6V54.7L54.5,54.7z"/>
	</g>
</g>
</svg>
