<?xml version="1.0" encoding="utf-8"?>
<!-- Generator: Adobe Illustrator 21.0.2, SVG Export Plug-In . SVG Version: 6.00 Build 0)  -->
<svg version="1.1" id="Layer_1" xmlns="http://www.w3.org/2000/svg" xmlns:xlink="http://www.w3.org/1999/xlink" x="0px" y="0px"
	 viewBox="0 0 74 74" style="enable-background:new 0 0 74 74;" xml:space="preserve">
<style type="text/css">
	.st0{fill:#006FAF;}
</style>
<title>php</title>
<g>
	<g>
		<path class="st0" d="M37,74C16.6,74,0,57.4,0,37C0,16.6,16.6,0,37,0c20.4,0,37,16.6,37,37C74,57.4,57.4,74,37,74z M37,2
			C17.7,2,2,17.7,2,37s15.7,35,35,35s35-15.7,35-35S56.3,2,37,2z"/>
	</g>
	<g id="Layer_2">
		<g>
			<g>
				<path class="st0" d="M24.4,33.7c1.3,0,2.2,0.2,2.6,0.7c0.4,0.8,0.6,1.7,0.3,2.5c-0.1,1-0.6,2-1.4,2.6c-0.9,0.6-2,0.9-3.1,0.8
					h-2.1l1.3-6.6H24.4z M15.9,47h3.5l0.8-4.2h3c1.1,0,2.2-0.1,3.2-0.4c0.9-0.3,1.7-0.8,2.3-1.4c0.6-0.5,1-1.1,1.4-1.8
					c0.4-0.6,0.7-1.4,0.8-2.1c0.5-1.5,0.2-3.1-0.8-4.4c-0.9-1.1-2.4-1.6-4.4-1.6h-6.6L15.9,47z"/>
			</g>
			<g>
				<path class="st0" d="M33.4,27h3.4L36,31.2h3.1c1.9,0,3.2,0.3,4,1c0.7,0.9,1,2.1,0.7,3.2l-1.4,7.4h-3.5l1.3-7
					c0.1-0.8,0.1-1.3-0.2-1.6c-0.5-0.3-1.1-0.5-1.7-0.4h-2.7l-1.8,9.1h-3.4L33.4,27z"/>
			</g>
			<g>
				<path class="st0" d="M51.3,33.7c1.3,0,2.2,0.2,2.6,0.7c0.4,0.8,0.6,1.7,0.3,2.5c-0.1,1-0.6,2-1.3,2.7c-0.9,0.6-2,0.9-3.1,0.8
					h-2.2l1.3-6.6C48.9,33.8,51.3,33.7,51.3,33.7z M42.9,47h3.5l0.8-4.2h3c1.1,0,2.2-0.1,3.2-0.4c1.6-0.6,2.9-1.7,3.7-3.2
					c0.4-0.6,0.7-1.4,0.8-2.1c0.5-1.5,0.2-3.1-0.8-4.4c-1.2-1.1-2.8-1.7-4.4-1.6h-6.6L42.9,47z"/>
			</g>
		</g>
	</g>
</g>
</svg>
