<?xml version="1.0" encoding="utf-8"?>
<!-- Generator: Adobe Illustrator 21.1.0, SVG Export Plug-In . SVG Version: 6.00 Build 0)  -->
<svg version="1.1" id="Layer_1" xmlns="http://www.w3.org/2000/svg" xmlns:xlink="http://www.w3.org/1999/xlink" x="0px" y="0px"
	 viewBox="0 0 75 75" style="enable-background:new 0 0 75 75;" xml:space="preserve">
<style type="text/css">
	.st0{fill:none;stroke:#006FAF;stroke-width:2;stroke-miterlimit:10;}
	.st1{fill:#006FAF;}
</style>
<circle class="st0" cx="37.5" cy="37.5" r="36"/>
<g>
	<path class="st1" d="M55.2,40c-0.3-0.2-0.7-0.5-1-0.7C53,38,53,36.5,54.4,35.4c0.2-0.2,0.5-0.3,0.7-0.5c1.2-0.7,1.5-1.6,1.1-2.9
		c-0.4-1.5-1.1-2.9-1.8-4.2c-0.6-1-1.4-1.3-2.5-1.1c-0.5,0.1-0.9,0.2-1.4,0.2c-1.7,0.1-2.7-0.9-2.7-2.6c0-0.5,0.1-0.9,0.2-1.4
		c0.2-1.1-0.1-2-1.1-2.6c-1.3-0.8-2.8-1.4-4.3-1.8c-1.2-0.3-1.9,0-2.6,1.1c-0.3,0.4-0.5,0.8-0.8,1.1c-1.1,1.1-2.4,1.2-3.6,0.2
		c-0.4-0.4-0.8-0.8-1.1-1.3c-0.7-1-1.5-1.3-2.6-1c-1.3,0.4-2.6,0.9-3.8,1.5c-1.2,0.6-1.7,1.5-1.4,2.9c0.1,0.6,0.2,1.1,0.2,1.7
		c-0.1,1.3-1,2.2-2.3,2.3c-0.6,0-1.1-0.1-1.6-0.2c-1.1-0.1-2,0.2-2.6,1.2c-0.8,1.3-1.4,2.6-1.8,4c-0.4,1.5-0.1,2.3,1.3,3.1
		c0.3,0.2,0.6,0.4,0.9,0.6c1.2,1.1,1.2,2.7,0,3.8c-0.3,0.3-0.8,0.6-1.2,0.8c-0.9,0.5-1.2,1.3-1,2.3c0.4,1.6,0.9,3.2,1.8,4.6
		c0.6,1,1.4,1.4,2.6,1.2c0.6-0.1,1.2-0.2,1.8-0.2c1.2,0.1,2,0.9,2.2,2.1c0.1,0.6,0,1.3-0.1,1.9c-0.2,1.2,0.1,2.1,1.2,2.7
		c1.3,0.7,2.6,1.3,4,1.6c1.7,0.4,3.1-0.5,3.3-2.3c0-0.4,0.1-0.8,0.1-1.2c0.1-0.5,0.3-0.7,0.8-0.8c0.5,0,1-0.1,1.5-0.1l0,0
		c0.2,0,0.4,0,0.6,0c1.3-0.1,1.6,0.3,1.6,1.6c0,2.2,1.7,3.4,3.8,2.5c0.7-0.3,1.5-0.6,2.2-1c0.5-0.3,1.1-0.5,1.6-0.9
		c0.6-0.5,0.9-1.2,0.7-2c-0.1-0.5-0.2-1-0.3-1.6c-0.2-1.7,1-2.9,2.6-2.9c0.4,0,0.8,0.1,1.3,0.2c1.5,0.4,2.3,0,3-1.4
		c0.6-1.2,1-2.5,1.4-3.8C56.7,41.5,56.5,40.8,55.2,40z M40,49.8c0,0.4-0.2,0.6-0.6,0.5c-0.5-0.1-0.9-0.1-1.4,0.1
		c-0.3,0.1-0.6,0-0.8,0c-0.4-0.1-0.7-0.1-1,0c-0.5,0.1-0.7-0.2-0.7-0.6c0-0.4,0.1-0.8,0.3-1.2c0.1-0.3,0.4-0.4,0.7-0.4
		c0.4,0,0.9,0,1.3,0l0,0c0.4,0,0.8,0,1.2,0c0.7,0,1,0.2,1.1,0.9C40.1,49.3,40.1,49.5,40,49.8z M40.4,43.9c-0.4,0.3-0.6,0.6-0.5,1.1
		c0.1,0.9-0.3,1.3-1.2,1.3c-0.4,0-0.7,0-1.1,0l0,0c-0.5,0-1,0-1.5-0.1c-0.3,0-0.6-0.2-0.5-0.5c0.2-1-0.4-1.6-1.2-2.1
		c-1.8-1.1-2.9-2.6-3.2-4.7c-0.6-3.5,2.3-7,5.8-7.1c1.9-0.1,3.6,0.4,5,1.7c2.4,2.2,2.6,6.4,0.3,8.8C41.8,42.9,41.1,43.4,40.4,43.9z
		 M54.4,42.7c-0.3,0.8-0.6,1.6-0.9,2.3c-0.4,0.8-1.1,1.1-2.1,1c-1.6-0.2-3,0-4.1,1.3c-1.2,1.3-1.5,2.9-1.1,4.7
		c0.2,0.7,0.1,1-0.6,1.3c-0.9,0.4-1.9,0.8-2.8,1.2c-0.4,0.2-0.7,0-0.7-0.5c0-0.7,0-1.3,0-2.2c0.1-0.9-0.1-1.9-0.2-3
		c-0.2-2.1,0.5-3.9,2-5.4S46,40.1,46,38c-0.1-4.6-4.1-8.3-8.7-8.2c-3.4,0.1-7.3,2.3-8,6.8c-0.5,3.1,0.4,5.7,2.8,7.7
		c0.3,0.2,0.5,0.4,0.8,0.6c0.6,0.5,0.8,1.1,0.7,1.9c-0.2,2-0.2,4.1-0.2,6.2c0,0.3,0,0.6,0,0.9c-0.1,0.8-0.5,1.1-1.2,0.8
		s-1.4-0.6-2.1-0.9c-0.9-0.4-1.2-1-1-1.9c0.8-3.3-2.6-6.2-5.7-5.4c-1,0.3-1.4,0-1.8-1c-0.2-0.5-0.4-0.9-0.6-1.4
		c-0.6-1.2-0.5-1.7,0.6-2.5c1.4-1,2.1-2.3,1.9-4c-0.1-1.5-0.8-2.7-2.1-3.6c-1.1-0.7-1.1-1-0.6-2.2c0.2-0.4,0.4-0.9,0.5-1.3
		c0.4-1.1,1-1.5,2.1-1.3c2.7,0.4,4.9-1.1,5.3-3.7c0.1-0.6,0-1.2-0.1-1.8c-0.2-1.1,0-1.4,1-1.8c0.3-0.1,0.7-0.4,1-0.5
		c1.3-0.8,2-0.7,2.9,0.5c1,1.2,2.2,2,3.8,1.9c1.5,0,2.7-0.7,3.5-1.9c0.1-0.2,0.3-0.4,0.4-0.6c0.5-0.7,0.9-0.8,1.7-0.5
		c0.6,0.2,1.3,0.4,1.8,0.7c1,0.5,1.4,1.2,1.2,2.3c-0.7,3.5,2.5,5.8,5.6,5.2c1-0.2,1.2-0.1,1.7,0.8c0.3,0.6,0.6,1.2,0.8,1.9
		s0,1.3-0.4,1.8c-0.2,0.2-0.3,0.4-0.5,0.5c-2.5,1.7-2.3,5.1-0.3,7c0.3,0.3,0.7,0.6,1.1,0.8C54.5,41.9,54.6,42.3,54.4,42.7z"/>
	<path class="st1" d="M41.3,37.2c-0.5-0.4-0.9-0.4-1.4,0c-0.2,0.2-0.4,0.4-0.5,0.7c-0.5,0.9-1,1.8-1.6,2.6c-0.1-0.1-0.2-0.3-0.3-0.4
		c-0.6-1-1.3-1.9-1.9-2.9c-0.4-0.5-0.9-0.6-1.4-0.2c-0.5,0.3-0.6,0.8-0.2,1.3c0.9,1.3,1.7,2.7,2.6,4c0.2,0.2,0.3,0.5,0.5,0.7
		c0.6,0.6,1,0.5,1.5-0.1c1.1-1.5,2-3,2.9-4.6C41.8,37.9,41.7,37.5,41.3,37.2z"/>
</g>
</svg>
