<svg id="Layer_1" data-name="Layer 1" xmlns="http://www.w3.org/2000/svg" width="2.06in" height="2.06in" viewBox="0 0 148 148">
  <defs>
    <style>
      .cls-1 {
        fill: none;
        stroke: #006faf;
        stroke-miterlimit: 10;
        stroke-width: 4px;
      }

      .cls-2 {
        fill: #006faf;
      }
    </style>
  </defs>
  <title>career</title>
  <circle class="cls-1" cx="74" cy="74" r="72"/>
  <path class="cls-2" d="M102.27,97.36a1.75,1.75,0,0,0-.53,1.85l1.06,5.56-5-2.65a2.9,2.9,0,0,0-2.12,0l-5,2.65,1.06-5.56c0-.79,0-1.59-.53-1.85l-4-4,5.56-.79a1.79,1.79,0,0,0,1.59-1.06l2.38-5,2.38,5a2.18,2.18,0,0,0,1.59,1.06l5.56.79Zm-50-38.11A16.49,16.49,0,0,1,68.66,42.85,16.26,16.26,0,0,1,84.8,59.25,16.49,16.49,0,0,1,68.39,75.66,16.26,16.26,0,0,1,52.25,59.25Zm60.6,32A2.8,2.8,0,0,0,111,89.69l-8.73-1.32-4-7.94a2.1,2.1,0,0,0-2.12-1.32,2.7,2.7,0,0,0-2.12,1.32l-2.65,5.29a28.47,28.47,0,0,0-13-8.47,20.69,20.69,0,1,0-31-18,20.49,20.49,0,0,0,10.59,18,31.51,31.51,0,0,0-21.17,29.9h4.5A27,27,0,0,1,88.24,88.89L81.36,90a2.27,2.27,0,0,0-1.85,1.59A2.7,2.7,0,0,0,80,93.92L86.39,100l-1.59,8.73a3,3,0,0,0,.79,2.12,2.49,2.49,0,0,0,2.38.26l7.15-3.7h1.32l7.15,3.7c.26.26.53.26,1.06.26s1.06,0,1.32-.53a2.19,2.19,0,0,0,.79-2.12L105.18,100l6.35-6.09C113.12,93.13,113.38,92.07,112.85,91.27Z" transform="translate(-1.4 -1.4)"/>
</svg>
