<?xml version="1.0" encoding="utf-8"?>
<!-- Generator: Adobe Illustrator 21.0.2, SVG Export Plug-In . SVG Version: 6.00 Build 0)  -->
<svg version="1.1" id="Layer_1" xmlns="http://www.w3.org/2000/svg" xmlns:xlink="http://www.w3.org/1999/xlink" x="0px" y="0px"
	 viewBox="0 0 150 150" style="enable-background:new 0 0 150 150;" xml:space="preserve">
<style type="text/css">
	.st0{fill:none;stroke:#006FAF;stroke-width:4;stroke-miterlimit:10;}
	.st1{fill:#006FAF;}
</style>
<circle class="st0" cx="75.4" cy="75.4" r="72"/>
<path class="st1" d="M99.7,95.2c-0.5,0.5-0.7,1.2-0.5,1.7l1,5l-4.5-2.4c-0.5-0.2-1.2-0.2-1.9,0l-4.5,2.4l1-5c0-0.7,0-1.4-0.5-1.7
	L86,91.6l5-0.7c0.7,0,1.2-0.5,1.4-1l2.2-4.5l2.2,4.5c0.2,0.5,1,1,1.4,1l5,0.7L99.7,95.2z M54.4,60.8c0-8.1,6.7-14.8,14.8-14.8
	s14.6,6.7,14.6,14.8S77.2,75.6,69,75.6S54.4,68.9,54.4,60.8z M109.2,89.7c-0.2-0.7-1-1.2-1.7-1.4l-7.9-1.2l-3.6-7.2
	c-0.2-0.7-1-1.2-1.9-1.2c-0.7,0-1.4,0.5-1.9,1.2l-2.4,4.8c-3.1-3.6-7.2-6.2-11.7-7.7c5.5-3.1,9.3-9.3,9.3-16.3
	c0-10.3-8.4-18.7-18.7-18.7s-18.7,8.4-18.7,18.7c0,6.9,3.8,13.2,9.6,16.3c-11.2,3.8-19.1,14.6-19.1,27h4.1c0-13.6,11-24.4,24.4-24.4
	c7.2,0,13.4,3.1,17.9,7.9l-6.2,1c-0.7,0-1.4,0.7-1.7,1.4c-0.2,0.7,0,1.4,0.5,2.2l5.7,5.5l-1.4,7.9c0,0.7,0.2,1.4,0.7,1.9
	c0.5,0.5,1.4,0.5,2.2,0.2l6.5-3.3l0,0h1.2l6.5,3.3c0.2,0.2,0.5,0.2,1,0.2s1,0,1.2-0.5c0.5-0.5,1-1.2,0.7-1.9l-1.4-7.9l5.7-5.5
	C109.5,91.4,109.7,90.4,109.2,89.7z"/>
</svg>
