<?xml version="1.0" encoding="utf-8"?>
<!-- Generator: Adobe Illustrator 21.0.2, SVG Export Plug-In . SVG Version: 6.00 Build 0)  -->
<svg version="1.1" id="Layer_1" xmlns="http://www.w3.org/2000/svg" xmlns:xlink="http://www.w3.org/1999/xlink" x="0px" y="0px"
	 viewBox="0 0 150 150" style="enable-background:new 0 0 150 150;" xml:space="preserve">
<style type="text/css">
	.st0{fill:none;stroke:#006FAF;stroke-width:4;stroke-miterlimit:10;}
	.st1{fill:none;stroke:#006FAF;stroke-width:4;stroke-linecap:round;stroke-linejoin:round;stroke-miterlimit:10;}
</style>
<circle class="st0" cx="75.4" cy="75.4" r="72"/>
<g>
	<path class="st1" d="M52.8,59.2c3.3,0,6.6,1.3,8.9,3.3"/>
	<path class="st1" d="M88,63.3c2.6-2.6,6.1-4.1,9.9-4.1"/>
	<g>
		<path class="st1" d="M87.8,87.2c0,0,8.4,0,9.9,0c7.7,0,14-6.4,14-14.3s-6.4-14.3-14-14.3c-1,0-2,0.3-3.3,0.5
			c-1.3-9.7-9.4-17.1-19.4-17.1s-18.1,7.4-19.4,17.1c-1-0.3-2-0.5-3.1-0.5c-7.7,0-14.3,6.4-14.3,14.3s6.4,14.3,14,14.3
			c1.8,0,10.5,0,10.5,0"/>
		<circle class="st1" cx="75.3" cy="77.3" r="7.4"/>
		<line class="st1" x1="75.3" y1="103.3" x2="67.1" y2="103.3"/>
		<line class="st1" x1="75.3" y1="84.7" x2="75.3" y2="107.9"/>
		<line class="st1" x1="67.1" y1="97.4" x2="75.3" y2="97.4"/>
	</g>
</g>
</svg>
