<svg id="Layer_1" data-name="Layer 1" xmlns="http://www.w3.org/2000/svg" width="74" height="74" viewBox="0 0 74 74">
  <defs>
    <style>
      .cls-1 {
        fill: none;
        stroke: #006faf;
        stroke-miterlimit: 10;
        stroke-width: 2px;
      }

      .cls-2 {
        fill: #006faf;
      }
    </style>
  </defs>
  <title>api-integration</title>
  <circle class="cls-1" cx="37" cy="37" r="36"/>
  <g>
    <path class="cls-2" d="M49.19,29.72a5.37,5.37,0,0,0-5.27-5.27,5.08,5.08,0,0,0-3.07,1,8.08,8.08,0,0,0-15,3.67,5.82,5.82,0,0,0-4.95,5.69c0,2.7,1.94,5.72,4.71,5.72h9.19l0-.15a.5.5,0,0,0-.08-.17,3,3,0,0,1,.28-2.91,3.09,3.09,0,0,1,2.55-1.53,3.49,3.49,0,0,1,1,.11,3,3,0,0,1,2,1.67,3.23,3.23,0,0,1,.08,2.8l-.09.18h8.33a5.42,5.42,0,0,0,.34-10.82Zm3.31,5.43a3.67,3.67,0,0,1-3.65,3.76H42.51A5.11,5.11,0,0,0,42,36.84a4.61,4.61,0,0,0-3.17-2.54,5.06,5.06,0,0,0-1.21-.15h-.19a4.67,4.67,0,0,0-3.87,2.28,5,5,0,0,0-.78,2.48h-7.2c-1.77,0-3.09-2.16-3.09-4.09a4.19,4.19,0,0,1,3.65-4.1l1.24-.17.05-1.25a6.45,6.45,0,0,1,12.06-2.91l.86,1.52,1.37-1.09a3.47,3.47,0,0,1,2.18-.76,3.75,3.75,0,0,1,3.65,3.78v1.42l1.42.06A3.73,3.73,0,0,1,52.5,35.15Z" transform="translate(-0.5 -0.5)"/>
    <path class="cls-2" d="M45.11,44.57a2.33,2.33,0,0,0-1.7.75V43.25a2,2,0,0,0-2-2H39.24v-.34a2.33,2.33,0,1,0-3.17,0v.34H33.88a2,2,0,0,0-2,2v2.07h-.3a2.33,2.33,0,1,0,0,3.17h.3v2.07a2,2,0,0,0,2,2h2.61a.42.42,0,0,0,.42-.42v-.85a.42.42,0,0,0-.17-.33,1.49,1.49,0,1,1,1.82,0,.42.42,0,0,0-.17.33v.85a.42.42,0,0,0,.42.42h2.61a2,2,0,0,0,2-2V48.49h0a2.33,2.33,0,1,0,1.7-3.92Zm0,3.18a.83.83,0,0,1-.62-.29L44.08,47H41.92v3.55a.49.49,0,0,1-.49.49h-1.1A3,3,0,1,0,35,51h-1.1a.49.49,0,0,1-.49-.49V47H30.94l-.41.46a.84.84,0,1,1-.64-1.39.84.84,0,0,1,.63.28l.41.46h2.46V43.25a.49.49,0,0,1,.49-.49h3.68V40.27l-.46-.41a.84.84,0,1,1,1.4-.63.84.84,0,0,1-.29.62l-.46.41v2.5h3.68a.49.49,0,0,1,.49.49v3.55h2.16l.41-.46a.84.84,0,1,1,.63,1.4Z" transform="translate(-0.5 -0.5)"/>
  </g>
</svg>
