<?xml version="1.0" encoding="utf-8"?>
<!-- Generator: Adobe Illustrator 21.0.2, SVG Export Plug-In . SVG Version: 6.00 Build 0)  -->
<svg version="1.1" id="Layer_1" xmlns="http://www.w3.org/2000/svg" xmlns:xlink="http://www.w3.org/1999/xlink" x="0px" y="0px"
	 viewBox="0 0 74 74" style="enable-background:new 0 0 74 74;" xml:space="preserve">
<style type="text/css">
	.st0{fill:#006FAF;}
</style>
<title>digital-transformation</title>
<g id="Layer_1_3_">
	<g id="Layer_1_1_">
	</g>
	<g id="Layer_1_2_">
	</g>
</g>
<path class="st0" d="M37,0C16.6,0,0,16.6,0,37c0,20.4,16.6,37,37,37c20.4,0,37-16.6,37-37C74,16.6,57.4,0,37,0z M37,72
	C17.7,72,2,56.3,2,37S17.7,2,37,2s35,15.7,35,35S56.3,72,37,72z"/>
<g id="folder_x5F_security">
	<path class="st0" d="M53,44l0-15h-2v-2H31v-2H21v28h32V44C53,44,53,44,53,44C53,44,53,44,53,44z M23,51V27h6v4h22v7.3
		c-1.6-2-4.2-3.3-7-3.3c-5,0-9,4-9,9c0,2.8,1.3,5.3,3.3,7H23z M44,50.9c-3.8,0-6.9-3.1-6.9-6.9c0-3.8,3.1-6.9,6.9-6.9
		c3.8,0,6.9,3.1,6.9,6.9C50.9,47.8,47.8,50.9,44,50.9z M51,51h-1.3c0.5-0.4,0.9-0.9,1.3-1.3V51z"/>
	<path class="st0" d="M47.1,43c0-0.1,0-0.3,0-0.4c0-0.7-0.1-1.5-0.6-2.3C46.1,39.6,45.2,39,44,39c-1.2,0-2.1,0.6-2.6,1.3
		c-0.5,0.8-0.6,1.6-0.6,2.3c0,0.1,0,0.3,0,0.4H40v5h8v-5H47.1z M42.8,42.6c0-0.5,0.1-1,0.3-1.2c0.2-0.2,0.3-0.4,0.9-0.4
		c0.6,0,0.7,0.2,0.9,0.4c0.2,0.2,0.3,0.7,0.3,1.2c0,0.1,0,0.3,0,0.4h-2.3C42.8,42.9,42.8,42.7,42.8,42.6z"/>
</g>
</svg>
