<svg id="Layer_1" data-name="Layer 1" xmlns="http://www.w3.org/2000/svg" viewBox="0 0 74 74"><defs><style>.cls-1{fill:none;stroke:#006faf;stroke-miterlimit:10;stroke-width:2px;}.cls-2{fill:#006faf;fill-rule:evenodd;}</style></defs><title>architecture_&amp;amp;_performance_tuning</title><circle class="cls-1" cx="37" cy="37" r="36"/><path class="cls-2" d="M50.29,42V37.26H46.38A9.5,9.5,0,0,1,37,46.64a9.65,9.65,0,0,1-9.57-9.83c0-4.91,3.7-9.38,8.7-9.61V25.87h0V23H31.59a1.66,1.66,0,0,0-1.74-1.34,2,2,0,0,0,0,4,2.17,2.17,0,0,0,1.74-1.34h3.26v1.56a10.8,10.8,0,0,0-8.48,8.94H24.63V31.45a1.94,1.94,0,0,0,1.3-1.79,2,2,0,1,0-3.91,0,1.69,1.69,0,0,0,1.3,1.79v4.69h2.83V37H23.33v4.69a2,2,0,0,0-1.3,2,2,2,0,1,0,3.91,0,2.38,2.38,0,0,0-1.52-2V38.6h2a10.54,10.54,0,0,0,8.48,8.94v1.79H31.59a2.2,2.2,0,0,0-2-1.34,2,2,0,0,0,0,4,1.9,1.9,0,0,0,2-1.34h4.57v-2.9h1.09v2.9h4.57a1.9,1.9,0,0,0,2,1.34,2,2,0,0,0,0-4,2.2,2.2,0,0,0-2,1.34H38.55V47.76a11.52,11.52,0,0,0,9.13-9.16H49V42a1.94,1.94,0,0,0-1.3,1.79,2,2,0,1,0,3.91,0A1.69,1.69,0,0,0,50.29,42Zm0,1.79v.45h0a.79.79,0,0,1-.65.22.7.7,0,0,1-.65-.67,1,1,0,0,1,.65-.67.71.71,0,0,1,.65.67ZM29.85,24.31a.67.67,0,0,1,0-1.34.67.67,0,0,1,0,1.34ZM23.33,43.74a.58.58,0,0,1,.65-.67.67.67,0,0,1,0,1.34.58.58,0,0,1-.65-.67ZM24,30.34A.67.67,0,0,1,24,29a.67.67,0,0,1,0,1.34Zm5.87,20.33A.58.58,0,0,1,29.2,50a.71.71,0,0,1,.65-.67,1,1,0,0,1,.65.67.7.7,0,0,1-.65.67ZM43.12,50a.71.71,0,0,1,.65-.67,1,1,0,0,1,.65.67.7.7,0,0,1-.65.67.58.58,0,0,1-.65-.67Z"/><path class="cls-2" d="M35.54,36.66a1.83,1.83,0,0,0,1.69,1.84,2.16,2.16,0,0,0,1.69-1h0l3.38-5.73-5.91,3.48h0a1.36,1.36,0,0,0-.84,1.43Z"/><path class="cls-2" d="M43.08,29.22h0l.87-.87h0a12.59,12.59,0,0,0-5.42-2.6V24.23h3.25a1.89,1.89,0,0,0,1.95,1.3,2,2,0,0,0,0-3.91,2.08,2.08,0,0,0-1.95,1.3H37.23v3.91h.22a10,10,0,0,1,5.63,2.39Zm0-5.64a.57.57,0,0,1,.65-.65.65.65,0,0,1,0,1.3.57.57,0,0,1-.65-.65Z"/><path class="cls-2" d="M47.47,34.67a9.55,9.55,0,0,0-2.39-5.19l-.22-.22L44,30.35h0a8.78,8.78,0,0,1,2.39,5.41V36h3.91V31.43a1.89,1.89,0,0,0,1.3-1.95,2,2,0,0,0-3.91,0A2.19,2.19,0,0,0,49,31.43v3.25Zm2.17-4.54a.69.69,0,0,1-.65-.65,1,1,0,0,1,.65-.65.69.69,0,0,1,.65.65.57.57,0,0,1-.65.65Z"/></svg>