<svg id="Layer_1" data-name="Layer 1" xmlns="http://www.w3.org/2000/svg" width="74" height="74" viewBox="0 0 74 74">
  <defs>
    <style>
      .cls-1 {
        fill: none;
        stroke: #006faf;
        stroke-miterlimit: 10;
        stroke-width: 2px;
      }

      .cls-2 {
        fill: #006faf;
      }
    </style>
  </defs>
  <title>assessment-planning</title>
  <circle class="cls-1" cx="37" cy="37" r="36"/>
  <g>
    <path class="cls-2" d="M28,52.76c-1.77,0-2-.2-2-2V39.2c0-1.28,0-2.57,0-3.87,0-2.57,0-5.22,0-7.84,0-.76.15-1.63,1.31-1.63l.31,0a3.64,3.64,0,0,0,.46,0H29l.34,0a1.22,1.22,0,0,0,1.21-.75A2.72,2.72,0,0,1,33,23.89h.23c.5,0,.82,0,1-.65a2.77,2.77,0,0,1,2.75-2,2.81,2.81,0,0,1,2.87,2c.2.49.42.67.81.67H41a2.66,2.66,0,0,1,2.58,1.51.84.84,0,0,0,.87.51h2.12c.54,0,.88,0,1.09.26s.31,1,.28,2.52V50.79c0,1.77-.2,2-2,2ZM37,50.83q4,0,8,0c.88,0,1.11-.23,1.11-1.11-.06-6.9-.06-13.92,0-20.88a2.09,2.09,0,0,1,0-.28c0-.22.07-.47,0-.6a.4.4,0,0,0-.31-.1,3.73,3.73,0,0,1-.59-.07,3.47,3.47,0,0,0-.56-.06.83.83,0,0,0-.81.5A3.47,3.47,0,0,1,40.46,30c-1.15,0-2.28,0-3.41,0s-2.26,0-3.41,0a3.38,3.38,0,0,1-3.35-1.74.86.86,0,0,0-.83-.5,3.58,3.58,0,0,0-.58.07,3.45,3.45,0,0,1-.55.06A.43.43,0,0,0,28,28c-.11.13-.07.37,0,.6a2.4,2.4,0,0,1,0,.32V39.26c0,1.17,0,2.33,0,3.5,0,2.3,0,4.67,0,7,0,.88.23,1.11,1.11,1.11Q33.05,50.83,37,50.83Zm-3.75-25A1.17,1.17,0,0,0,31.93,27c0,.77.42,1.16,1.29,1.16H40.7c.32,0,1.35-.08,1.35-1.11s-.73-1.11-1.35-1.11H39.19a1.43,1.43,0,0,1-1.11-.44,1.14,1.14,0,0,1-.14-.95,1.13,1.13,0,0,0-.14-1,1,1,0,0,0-.79-.3h-.11a.82.82,0,0,0-.63.24,1.29,1.29,0,0,0-.24,1,1.23,1.23,0,0,1-.22,1,1.45,1.45,0,0,1-1.14.38Z"/>
    <path class="cls-2" d="M35.21,44.56a1.28,1.28,0,0,1-.85-.39l-1.54-1.48c-.51-.5-1-1-1.54-1.48a1.23,1.23,0,0,1-.5-.85.92.92,0,0,1,.31-.68,1,1,0,0,1,.66-.27,1.34,1.34,0,0,1,.93.45,19.65,19.65,0,0,1,1.63,1.57c.3.36.53.53.75.53s.48-.18.79-.58c1.51-1.92,3.12-3.82,4.67-5.67l1.67-2a1.26,1.26,0,0,1,1-.63,1.27,1.27,0,0,1,.37.06,1,1,0,0,1,.61.8,1.7,1.7,0,0,1-.5,1l-1.1,1.31C40.46,38.83,38.3,41.4,36.19,44A1.3,1.3,0,0,1,35.21,44.56Z"/>
    <path class="cls-2" d="M43.54,33.23a1.07,1.07,0,0,0-1.27.54c-2.11,2.53-4.28,5.07-6.34,7.66-.66.84-1.09.78-1.69.06a20,20,0,0,0-1.63-1.57,1,1,0,0,0-1.45-.18c-.48.48-.3,1,.18,1.39,1,1,2.05,2,3.08,3a1,1,0,0,0,1.69-.18c2.47-3,5-6,7.48-9a1.64,1.64,0,0,0,.48-1A.85.85,0,0,0,43.54,33.23Z"/>
  </g>
</svg>
