<?xml version="1.0" encoding="utf-8"?>
<!-- Generator: Adobe Illustrator 21.1.0, SVG Export Plug-In . SVG Version: 6.00 Build 0)  -->
<svg version="1.1" xmlns="http://www.w3.org/2000/svg" xmlns:xlink="http://www.w3.org/1999/xlink" x="0px" y="0px"
	 viewBox="0 0 74 74" style="enable-background:new 0 0 74 74;" xml:space="preserve">
<style type="text/css">
	.st0{fill:none;stroke:#006FAF;stroke-width:2;stroke-miterlimit:10;}
	.st1{fill:#006FAF;}
	.st2{fill:none;stroke:#006FAF;stroke-miterlimit:10;}
	.st3{fill:#006FAF;stroke:#006FAF;stroke-width:0.75;stroke-miterlimit:10;}
</style>
<g id="azure-data-protection-and-recovery">
	<g id="Layer_13">
	</g>
</g>
<g id="cloud-dr-and-bc-strategy">
</g>
<g id="cloud-workload-data-protection">
</g>
<g id="hybrid-workload-data-protection">
</g>
<g id="automated-disaster-recovery">
	<circle class="st0" cx="37" cy="37" r="36"/>
	<g>
		<path class="st0" d="M51.2,41c0,0,0.1,1,0.7,1.7c0.6,0.7,1.8,2,1.8,2s0.6,0.7-0.3,2.2s-1.7,1.3-1.7,1.3s-1.8-0.4-2.7-0.5
			c-0.9-0.2-1.8,0.3-1.8,0.3l-1,0.8c0,0-0.6,0.8-0.6,1.7c0,0.9,0.1,2.7,0.1,2.7s0,0.9-1.6,1.5c-1.6,0.6-2.2-0.1-2.2-0.1
			s-1.1-1.4-1.7-2.1c-0.6-0.7-1.6-0.9-1.6-0.9h-1.3c0,0-1,0.3-1.6,0.9c-0.6,0.7-1.7,2.1-1.7,2.1s-0.6,0.7-2.2,0.1
			c-1.6-0.6-1.6-1.5-1.6-1.5s0.1-1.8,0.1-2.7c0-0.9-0.6-1.7-0.6-1.7l-1-0.9c0,0-0.9-0.5-1.8-0.3c-0.9,0.2-2.7,0.5-2.7,0.5
			s-0.9,0.2-1.7-1.3c-0.9-1.5-0.3-2.2-0.3-2.2s1.2-1.3,1.8-2c0.6-0.7,0.7-1.7,0.7-1.7l-0.2-1.2c0,0-0.4-0.9-1.2-1.4
			c-0.8-0.4-2.4-1.3-2.4-1.3s-0.8-0.4-0.5-2.1c0.3-1.7,1.2-1.8,1.2-1.8s1.8-0.3,2.7-0.4c0.9-0.1,1.6-0.9,1.6-0.9l0.6-1.1
			c0,0,0.3-1,0-1.8c-0.3-0.8-1-2.5-1-2.5s-0.3-0.8,1-1.9c1.3-1.1,2.1-0.6,2.1-0.6s1.5,0.9,2.3,1.4c0.8,0.5,1.8,0.4,1.8,0.4l1.1-0.5
			c0,0,0.9-0.6,1.1-1.4c0.3-0.9,0.9-2.6,0.9-2.6s0.3-0.9,2-0.9c1.7,0,2,0.9,2,0.9s0.6,1.7,0.9,2.6c0.3,0.9,1.1,1.4,1.1,1.4l1.2,0.4
			c0,0,1,0.1,1.8-0.4c0.8-0.5,2.3-1.4,2.3-1.4s0.8-0.5,2.1,0.6c1.3,1.1,1,1.9,1,1.9s-0.7,1.7-1,2.5s0,1.8,0,1.8l0.6,1.1
			c0,0,0.7,0.7,1.6,0.9s2.7,0.4,2.7,0.4s0.9,0.1,1.2,1.8c0.3,1.7-0.5,2.1-0.5,2.1s-1.6,0.9-2.4,1.3c-0.8,0.4-1.2,1.4-1.2,1.4
			L51.2,41z"/>
		<circle class="st0" cx="38.1" cy="38.1" r="2.9"/>
		<polyline class="st0" points="29.5,32 32.9,32 32.9,35.5 		"/>
		<polyline class="st0" points="46.6,44.1 43.2,44.1 43.2,40.6 		"/>
		<path class="st0" d="M32.4,32.4c-1.5,1.5-2.3,3.5-2.3,5.7c0,4.4,3.6,8,8,8"/>
		<path class="st0" d="M43.7,43.7c1.5-1.5,2.3-3.5,2.3-5.7c0-4.4-3.6-8-8-8"/>
	</g>
</g>
<g id="regulatory-compliance-management">
</g>
<g id="information-security-and-encryption">
</g>
</svg>
