<?xml version="1.0" encoding="utf-8"?>
<!-- Generator: Adobe Illustrator 21.0.2, SVG Export Plug-In . SVG Version: 6.00 Build 0)  -->
<svg version="1.1" id="Layer_1" xmlns="http://www.w3.org/2000/svg" xmlns:xlink="http://www.w3.org/1999/xlink" x="0px" y="0px"
	 viewBox="0 0 74 74" style="enable-background:new 0 0 74 74;" xml:space="preserve">
<style type="text/css">
	.st0{fill:none;stroke:#006FAF;stroke-width:2;stroke-miterlimit:10;}
	.st1{fill:#006FAF;stroke:#006FAF;stroke-width:0.5;stroke-miterlimit:10;}
	.st2{fill:#006FAF;}
</style>
<title>Cloud &amp;amp; Infrastructure Services</title>
<circle class="st0" cx="37" cy="37" r="36"/>
<g>
	<g>
		<g>
			<path class="st1" d="M18.2,41c0.1,0.3,0.1,0.6,0.2,0.9l0.9-0.2c-0.1-0.3-0.1-0.6-0.2-0.9L18.2,41z"/>
			<path class="st2" d="M28.4,17.5l-0.6,1.2l2,1c-6.2,2.6-10.6,8-11.8,14.4l0,0l-0.1,0.2c-0.1,0.3-0.1,0.7-0.1,1v0.2l1.4,0.2v-0.3
				c0-0.3,0.1-0.4,0.1-0.7l0.1-0.2c0.9-6.1,5.1-11.2,10.9-13.5l-0.9,2l1.2,0.6l2-4.2L28.4,17.5z"/>
			<path class="st1" d="M18.9,38.7L18,38.8c0,0.3,0.1,0.6,0.1,0.9l0.9-0.1C18.9,39.3,18.9,39,18.9,38.7z"/>
			<path class="st1" d="M18.8,37.3c0-0.2,0-0.4,0-0.7l-0.9-0.1c0,0.2,0,0.4,0,0.7v0.2h0.9V37.3z"/>
		</g>
		<g>
			<path class="st1" d="M43.2,19.7c-0.3-0.1-0.6-0.2-0.9-0.3L42,20.3c0.3,0.1,0.6,0.2,0.9,0.3L43.2,19.7z"/>
			<path class="st1" d="M47.1,21.6c-0.2-0.2-0.5-0.3-0.8-0.5l-0.5,0.8c0.3,0.2,0.6,0.3,0.8,0.5L47.1,21.6z"/>
			<path class="st1" d="M45.2,20.6c-0.2-0.2-0.6-0.3-0.8-0.4L44,21c0.3,0.1,0.6,0.2,0.8,0.4L45.2,20.6z"/>
			<path class="st2" d="M57.5,39.2l-1.8,1.1c1.1-6.5-1.5-13.4-6.6-17.6l-0.2-0.2l0,0.1c0,0,0,0,0,0c-0.1-0.1-0.3-0.3-0.4-0.4
				l-0.2-0.1l-0.9,1.1l0.2,0.2c0.2,0.2,0.5,0.4,0.6,0.5l0.1,0.1c4.6,4,6.9,10.1,6.1,16.2l-1.1-1.7L52,39.2l2.5,3.8l3.8-2.5
				L57.5,39.2z"/>
		</g>
		<g>
			<path class="st2" d="M47.1,51.9C47,52,46.9,52,46.7,52.1c-0.1,0.1-0.2,0.1-0.3,0.2l-0.2,0.1l0.8,1.3l0.2-0.2
				c0.1-0.1,0.2-0.2,0.4-0.3c0.1-0.1,0.2-0.1,0.4-0.2l0.2-0.2l-0.9-1.1L47.1,51.9z"/>
			<path class="st2" d="M45.4,52.9c-0.4,0.2-0.6,0.3-0.9,0.4l-0.3,0.1l0.5,1.1l0.1,0.2l0.2-0.1c0.2-0.1,0.6-0.3,0.9-0.4l0.3-0.1
				l-0.6-1.3L45.4,52.9z"/>
			<path class="st2" d="M48.9,50.5l-0.4,0.3c-0.2,0.1-0.4,0.2-0.5,0.4l-0.2,0.2l0.9,1.1l0.2-0.2c0.1-0.1,0.2-0.2,0.3-0.3
				c0.1-0.1,0.3-0.2,0.4-0.3l0.2-0.2L48.9,50.5z"/>
			<path class="st2" d="M43.4,53.8C43.2,54,43,54,42.8,54.1c-0.1,0-0.1,0.1-0.2,0.1c-5.7,2-12.2,0.8-17-3l2.1-0.1l-0.2-1.4L23,49.8
				l0.2,4.6l1.4-0.2l-0.1-2.2c3.4,2.8,7.8,4.4,12.3,4.4c2.2,0,4.2-0.3,6.2-1c0.1,0,0.2-0.1,0.3-0.1c0.2-0.1,0.4-0.2,0.6-0.3l0.2-0.1
				l-0.6-1.3L43.4,53.8z"/>
		</g>
	</g>
	<path class="st2" d="M49.3,38.9v-4.2l-2.5-0.4c-0.3-1-0.6-1.8-1-2.5l1.5-2.1l-3-3l-2.1,1.5c-0.7-0.4-1.6-0.8-2.6-1L39,24.7h-4.2
		l-0.4,2.5c-1,0.3-1.8,0.6-2.5,1l-2.1-1.5l-3,3l1.5,2.1c-0.4,0.7-0.8,1.6-1,2.6L24.8,35v4.2l2.5,0.4c0.2,0.9,0.6,1.7,1,2.5l-1.5,2.1
		l3,3l2.1-1.5c0.7,0.4,1.6,0.8,2.6,1l0.5,2.5l4.2-0.1l0.4-2.5c0.9-0.2,1.7-0.6,2.5-1l2.1,1.5l3-3L45.7,42c0.4-0.7,0.8-1.6,1-2.6
		L49.3,38.9z M45.8,38.4l-0.1,0.3l0,0.1c-0.2,1-0.6,2-1.1,2.9l-0.3,0.3l1.4,2l-1.4,1.4l-2-1.3l-0.3,0.3c-0.8,0.6-1.8,1-2.9,1.2h-0.5
		l-0.4,2.3h-2l-0.4-2.3l-0.4,0c-1-0.2-2-0.6-2.9-1.1l-0.3-0.3l-2,1.4l-1.4-1.4l1.2-1.9l-0.1-0.4l0-0.1c-0.6-0.8-1-1.8-1.3-2.9
		l-0.1-0.4L26.2,38v-2l2.3-0.5l0.1-0.4c0.2-1,0.6-2.1,1.1-2.9l0.3-0.3l-1.4-1.8l1.4-1.4l2,1.3l0.3-0.3c0.7-0.5,1.8-1,2.9-1.3
		l0.4-0.1l0.4-2.3h2l0.5,2.3l0.4,0.1c1,0.2,2.1,0.6,2.9,1.1l0.3,0.3l2-1.4l1.4,1.4l-1.3,2l0.3,0.3c0.6,0.9,1,1.8,1.2,2.9l-0.2,0.5
		l2.4,0.4v2L45.8,38.4z"/>
	<path class="st1" d="M37,30.3c-3.7,0-6.7,3-6.7,6.7s3,6.7,6.7,6.7s6.7-3,6.7-6.7S40.6,30.3,37,30.3z M37,42.9
		c-3.3,0-5.9-2.7-5.9-5.9c0-3.3,2.7-5.9,5.9-5.9s5.9,2.7,5.9,5.9C42.8,40.3,40.3,42.9,37,42.9z"/>
</g>
</svg>
