<?xml version="1.0" encoding="utf-8"?>
<!-- Generator: Adobe Illustrator 21.0.2, SVG Export Plug-In . SVG Version: 6.00 Build 0)  -->
<svg version="1.1" id="Layer_1" xmlns="http://www.w3.org/2000/svg" xmlns:xlink="http://www.w3.org/1999/xlink" x="0px" y="0px"
	 viewBox="0 0 74 74" style="enable-background:new 0 0 74 74;" xml:space="preserve">
<style type="text/css">
	.st0{fill:none;stroke:#006FAF;stroke-width:2;stroke-miterlimit:10;}
	.st1{fill:#006FAF;}
</style>
<title>Cloud &amp;amp; Infrastructure Services</title>
<circle class="st0" cx="37" cy="37" r="36"/>
<g>
	<path class="st1" d="M44.3,19.8c-0.4-0.2-0.9,0-1.1,0.4s0,0.9,0.4,1.1c6.5,2.7,10.7,9,10.7,16s-4.2,13.3-10.7,16
		c-4.2,1.7-9.1,1.7-13.3,0c-6.4-2.6-10.7-8.9-10.7-15.9c0-6.7,3.8-12.7,9.8-15.6l-0.3,0.9c-0.2,0.4,0,0.9,0.4,1.1
		c0.1,0.1,0.2,0.1,0.3,0.1c0.3,0,0.7-0.2,0.7-0.5l1.3-3.2c0.1-0.2,0.1-0.5,0-0.7c-0.1-0.2-0.2-0.3-0.4-0.4l-3.2-1.3
		c-0.4-0.2-0.9,0-1.1,0.4c-0.2,0.4,0,0.9,0.4,1.1l1.9,0.7c-7,3-11.6,9.8-11.6,17.4C18,45,22.6,52,29.7,54.9c2.3,1,4.8,1.5,7.3,1.5
		s5-0.5,7.3-1.5C51.4,52,56,45,56,37.4S51.4,22.7,44.3,19.8z"/>
	<path class="st1" d="M23.8,37.4c0,7.3,5.9,13.2,13.2,13.2s13.2-5.9,13.2-13.2S44.3,24.2,37,24.2S23.8,30.1,23.8,37.4z M36.2,25.9
		v1.6h1.7v-1.6c5.7,0.4,10.2,5,10.7,10.6h-1.6v1.7h1.7c-0.3,5.8-5,10.4-10.7,10.8v-1.6h-1.7v1.6c-5.8-0.4-10.3-5-10.7-10.8h1.7v-1.7
		h-1.6C25.9,30.8,30.5,26.3,36.2,25.9z"/>
	<polygon class="st1" points="41.5,36.6 34.1,36.6 34.1,30 32.5,30 32.5,38.3 41.5,38.3 	"/>
</g>
</svg>
