<?xml version="1.0" encoding="utf-8"?>
<!-- Generator: Adobe Illustrator 21.0.2, SVG Export Plug-In . SVG Version: 6.00 Build 0)  -->
<svg version="1.1" id="Layer_1" xmlns="http://www.w3.org/2000/svg" xmlns:xlink="http://www.w3.org/1999/xlink" x="0px" y="0px"
	 viewBox="0 0 74 74" style="enable-background:new 0 0 74 74;" xml:space="preserve">
<style type="text/css">
	.st0{fill:#006FAF;}
	.st1{fill:none;stroke:#006FAF;stroke-width:2;stroke-miterlimit:10;}
</style>
<path class="st0" d="M37,74C16.6,74,0,57.4,0,37S16.6,0,37,0s37,16.6,37,37S57.4,74,37,74z M37,2C17.7,2,2,17.7,2,37s15.7,35,35,35
	s35-15.7,35-35S56.3,2,37,2z"/>
<g id="cloud-dr-and-bc-strategy">
</g>
<g id="cloud-workload-data-protection">
</g>
<g id="hybrid-workload-data-protection">
</g>
<g id="automated-disaster-recovery">
</g>
<g id="regulatory-compliance-management">
</g>
<g id="information-security-and-encryption">
</g>
<g>
	<path class="st0" d="M31.5,24.9v24.2c0,0.2,0.2,0.4,0.4,0.3L55.2,45c0.2-0.1,0.3-0.2,0.3-0.3V29.3c0-0.2-0.1-0.3-0.3-0.3l-23.3-4.4
		C31.7,24.5,31.5,24.7,31.5,24.9z M34.9,46.4c0,0.1-0.1,0.2-0.2,0.2l-1.1,0.2c-0.2,0-0.3-0.1-0.3-0.2V27.4c0-0.2,0.1-0.3,0.3-0.2
		l1.1,0.2c0.1,0,0.2,0.1,0.2,0.2V46.4z M38.3,45.9c0,0.1-0.1,0.2-0.2,0.2l-0.9,0.2c-0.2,0-0.3-0.1-0.3-0.2V27.9
		c0-0.2,0.1-0.3,0.3-0.2l0.9,0.2c0.1,0,0.2,0.1,0.2,0.2V45.9z M41.3,45.5c0,0.1-0.1,0.2-0.2,0.2l-0.8,0.1c-0.2,0-0.3-0.1-0.3-0.2
		V28.4c0-0.2,0.1-0.3,0.3-0.2l0.8,0.1c0.1,0,0.2,0.1,0.2,0.2V45.5z M44,45c0,0.1-0.1,0.2-0.2,0.2l-0.7,0.1c-0.2,0-0.3-0.1-0.3-0.2
		V28.9c0-0.2,0.1-0.3,0.3-0.2l0.7,0.1c0.1,0,0.2,0.1,0.2,0.2C44,29,44,45,44,45z M46.5,44.7c0,0.1-0.1,0.2-0.2,0.2L45.7,45
		c-0.2,0-0.3-0.1-0.3-0.2V29.2c0-0.2,0.1-0.3,0.3-0.2l0.6,0.1c0.1,0,0.2,0.1,0.2,0.2V44.7z M48.7,44.3c0,0.1-0.1,0.2-0.2,0.2
		l-0.4,0.1c-0.2,0-0.3-0.1-0.3-0.2V29.6c0-0.2,0.1-0.3,0.3-0.2l0.5,0.1c0.1,0,0.2,0.1,0.2,0.2L48.7,44.3L48.7,44.3z M50.8,44
		c0,0.1-0.1,0.2-0.2,0.2l-0.4,0.1c-0.2,0-0.3-0.1-0.3-0.2V30c0-0.2,0.1-0.3,0.3-0.2l0.4,0.1c0.1,0,0.2,0.1,0.2,0.2V44z M52.8,43.7
		c0,0.1-0.1,0.2-0.2,0.2L52.2,44c-0.1,0-0.2-0.1-0.2-0.2V30.2c0-0.1,0.1-0.2,0.3-0.2l0.4,0.1c0.1,0,0.2,0.1,0.2,0.2L52.8,43.7
		L52.8,43.7z M54.5,43.4c0,0.1-0.1,0.2-0.2,0.2L54,43.7c-0.1,0-0.2-0.1-0.2-0.2v-13c0-0.1,0.1-0.2,0.3-0.2l0.3,0.1
		c0.1,0,0.2,0.1,0.2,0.2V43.4z"/>
	<path class="st1" d="M24.2,26.6l-5.4,0.9c-0.2,0.1-0.3,0.2-0.3,0.3v18.3c0,0.2,0.1,0.3,0.3,0.3l5.4,0.9c0.2,0,0.3-0.1,0.3-0.3V26.9
		C24.5,26.7,24.4,26.6,24.2,26.6z"/>
	<path class="st0" d="M23.2,37.4h-1.6c-0.3,0-0.5-0.2-0.5-0.5s0.2-0.5,0.5-0.5h1.6c0.3,0,0.5,0.2,0.5,0.5S23.5,37.4,23.2,37.4z"/>
	<path class="st1" d="M31,25.5l-5.4,0.9c-0.1,0-0.2,0.1-0.2,0.3v20.7c0,0.1,0.1,0.2,0.2,0.3l5.4,0.9c0.2,0.1,0.4-0.1,0.4-0.3V25.8
		C31.4,25.6,31.2,25.5,31,25.5z"/>
	<path class="st0" d="M27.9,37.4h-1.6c-0.3,0-0.5-0.2-0.5-0.5s0.2-0.5,0.5-0.5h1.6c0.3,0,0.5,0.2,0.5,0.5S28.2,37.4,27.9,37.4z"/>
</g>
</svg>
