<?xml version="1.0" encoding="utf-8"?>
<!-- Generator: Adobe Illustrator 21.0.2, SVG Export Plug-In . SVG Version: 6.00 Build 0)  -->
<svg version="1.1" id="Layer_1" xmlns="http://www.w3.org/2000/svg" xmlns:xlink="http://www.w3.org/1999/xlink" x="0px" y="0px"
	 viewBox="0 0 74 74" style="enable-background:new 0 0 74 74;" xml:space="preserve">
<style type="text/css">
	.st0{fill:none;stroke:#006FAF;stroke-width:2;stroke-miterlimit:10;}
	.st1{fill:none;stroke:#006FAF;stroke-width:2;stroke-linecap:round;stroke-linejoin:round;stroke-miterlimit:10;}
	.st2{fill:none;stroke:#006FAF;stroke-width:1.4;stroke-linecap:round;stroke-linejoin:round;stroke-miterlimit:10;}
	.st3{fill:none;stroke:#006FAF;stroke-width:1.3;stroke-linecap:round;stroke-linejoin:round;stroke-miterlimit:10;}
	.st4{fill:none;stroke:#006FAF;stroke-width:0.5;stroke-linecap:round;stroke-linejoin:round;stroke-miterlimit:10;}
</style>
<title>Cloud &amp;amp; Infrastructure Services</title>
<circle class="st0" cx="37" cy="37" r="36"/>
<g>
	<g>
		<path class="st1" d="M50.4,35.7c0.3,0,0.4,0,0.7,0c4,0,7.4,3.3,7.4,7.4c0,4-3.3,7.4-7.4,7.4H24.6c-5,0-9.1-4-9.1-9.1
			c0-5,4-9.1,9.1-9.1c0.8,0,1.4,0.1,2.1,0.3c1.3-5.1,6.1-9,11.7-9C45,23.6,50.4,29,50.4,35.7L50.4,35.7z"/>
		<path class="st1" d="M26.3,35.7c0-1.1,0.2-2.1,0.4-3.1C26.4,33.5,26.3,34.6,26.3,35.7z"/>
	</g>
	<path class="st2" d="M31.7,35c0,0.2,0.1,0.5,0.2,0.8c0.1,0.2,0.2,0.5,0.2,0.8l1.8-0.2c0.2,0.5,0.5,1,0.9,1.4L34,39.4
		c0.4,0.3,0.8,0.6,1.3,0.8l1.2-1.5c0.5,0.2,1.1,0.3,1.6,0.3l0.6,1.8c0.2,0,0.5-0.1,0.8-0.2s0.5-0.2,0.8-0.2l-0.2-1.8
		c0.5-0.2,1-0.5,1.4-0.9l1.7,0.8c0.3-0.4,0.6-0.8,0.8-1.3L42.6,36c0.2-0.5,0.3-1.1,0.3-1.6l1.8-0.6c0-0.2-0.1-0.5-0.2-0.8
		c-0.1-0.2-0.2-0.5-0.2-0.8l-1.8,0.2c-0.2-0.5-0.5-1-0.9-1.4l0.8-1.7c-0.4-0.3-0.8-0.6-1.3-0.8l-1.2,1.5c-0.5-0.2-1.1-0.3-1.6-0.3
		l-0.7-1.7c-0.2,0-0.5,0.1-0.8,0.2c-0.2,0.1-0.5,0.2-0.8,0.2l0.2,1.8c-0.5,0.2-1,0.5-1.4,0.9l-1.7-0.8c-0.3,0.4-0.6,0.8-0.8,1.3
		l1.5,1.2c-0.2,0.5-0.3,1.1-0.3,1.6L31.7,35z M37.7,32.2c1.2-0.2,2.3,0.5,2.6,1.7c0.2,1.2-0.5,2.3-1.7,2.6c-1.2,0.2-2.3-0.5-2.6-1.7
		C35.7,33.7,36.5,32.5,37.7,32.2z"/>
	<path class="st3" d="M30.7,40.5l1.1-0.9c-0.1-0.2-0.2-0.3-0.3-0.5c-0.1-0.2-0.2-0.3-0.4-0.5l-1.2,0.7c-0.3-0.3-0.7-0.5-1.1-0.7
		l0.1-1.4c-0.4-0.1-0.8-0.2-1.2-0.2l-0.4,1.4c-0.4,0-0.8,0.1-1.2,0.2l-0.9-1.1c-0.2,0.1-0.3,0.2-0.5,0.3c-0.2,0.1-0.3,0.2-0.5,0.4
		l0.7,1.2c-0.3,0.3-0.5,0.7-0.7,1.1h-1.5c-0.1,0.4-0.2,0.8-0.2,1.2l1.4,0.4c0,0.4,0.1,0.8,0.2,1.2L23,44.2c0.1,0.2,0.2,0.3,0.3,0.5
		c0.2,0.2,0.2,0.3,0.4,0.5l1.2-0.7c0.3,0.3,0.7,0.5,1.1,0.7L26,46.6c0.4,0.1,0.8,0.2,1.2,0.2l0.4-1.4c0.4,0,0.8-0.1,1.2-0.2l0.9,1.1
		c0.2-0.1,0.3-0.2,0.5-0.3c0.2-0.1,0.3-0.2,0.5-0.4l-0.7-1.2c0.3-0.3,0.5-0.7,0.7-1.1l1.4,0.1c0.1-0.4,0.2-0.8,0.2-1.2l-1.4-0.4
		C30.9,41.3,30.9,41,30.7,40.5z M28.3,43.3c-0.8,0.5-1.8,0.3-2.3-0.4c-0.5-0.8-0.3-1.8,0.4-2.3c0.8-0.5,1.8-0.3,2.3,0.4
		C29.3,41.7,29.1,42.7,28.3,43.3z"/>
	<path class="st3" d="M45.2,39.7c-1.9,0-3.5,1.6-3.5,3.5c0,1.9,1.6,3.5,3.5,3.5s3.5-1.6,3.5-3.5C48.7,41.3,47.1,39.7,45.2,39.7z
		 M45.2,44.6c-0.8,0-1.4-0.6-1.4-1.4c0-0.8,0.6-1.4,1.4-1.4c0.8,0,1.4,0.6,1.4,1.4C46.5,44,45.9,44.6,45.2,44.6z"/>
	<g>
		<path class="st4" d="M45.2,39.7v2.1V39.7z"/>
		<path class="st4" d="M45.2,44.6v2.1V44.6z"/>
		<path class="st4" d="M42.1,45l1.9-1.1L42.1,45z"/>
		<path class="st4" d="M46.3,42.6l1.9-1.1L46.3,42.6z"/>
		<path class="st4" d="M48.2,45l-1.9-1.1L48.2,45z"/>
		<path class="st4" d="M43.9,42.6l-1.8-1.1L43.9,42.6z"/>
	</g>
</g>
</svg>
