<?xml version="1.0" encoding="utf-8"?>
<!-- Generator: Adobe Illustrator 19.2.1, SVG Export Plug-In . SVG Version: 6.00 Build 0)  -->
<svg version="1.1" xmlns="http://www.w3.org/2000/svg" xmlns:xlink="http://www.w3.org/1999/xlink" x="0px" y="0px"
	 viewBox="0 0 74 74" style="enable-background:new 0 0 74 74;" xml:space="preserve">
<style type="text/css">
	.st0{fill:none;stroke:#006FAF;stroke-width:2;stroke-miterlimit:10;}
	.st1{fill:#006FAF;}
	.st2{fill:none;stroke:#006FAF;stroke-width:1.5;stroke-miterlimit:10;}
	.st3{fill:none;}
	.st4{fill:#006FAF;stroke:#006FAF;stroke-width:0.5;stroke-miterlimit:10;}
	.st5{fill:none;stroke:#006FAF;stroke-miterlimit:10;}
	.st6{fill:none;stroke:#006FAF;stroke-width:1.2;stroke-miterlimit:10;}
	.st7{fill:none;stroke:#006FAF;stroke-width:0.5;stroke-miterlimit:10;}
	.st8{fill:#FFFFFF;stroke:#006FAF;stroke-miterlimit:10;}
</style>
<g id="BI">
</g>
<g id="digital-business">
</g>
<g id="Intelligence_Delivery">
</g>
<g id="mouse">
</g>
<g id="BI-platfomr">
	<circle class="st0" cx="37" cy="37" r="36"/>
	<g>
		<path class="st4" d="M54.3,48.1V20.5H19.7v27.5h17.1v4.3h-4.6v1.1h10.3v-1.1h-4.5v-4.3H54.3z M20.8,21.6h32.4V47H20.8V21.6z"/>
		<path class="st4" d="M31.6,24.9c-1.3,0-2.5,0.3-3.8,0.8l0,0c-2.5,1.1-4.2,3-5.1,5.6c-1.2,3.9,0.1,8,3.3,10.4l0,0
			c0.3,0.2,0.5,0.4,0.8,0.5c1.5,0.9,3,1.2,4.6,1.2c3.2,0,6.3-1.7,8-4.6c0.9-1.5,1.2-3,1.2-4.6C40.9,29,36.7,24.9,31.6,24.9z
			 M31.1,25.9v5.7l-2.3-5.1C29.6,26.2,30.3,26,31.1,25.9z M27.8,26.9l2.9,6.4L27,32l-3-1C24.8,29.2,26,27.8,27.8,26.9z M23.7,32.1
			l7.1,2.3l-4.4,6C23.9,38.4,22.9,35.2,23.7,32.1z M33.7,42c-2.1,0.6-4.3,0.3-6.2-0.8c-0.1-0.1-0.2-0.1-0.3-0.2l4.5-6.2l3.7,2.1
			l3,1.7C37.3,40.3,35.7,41.5,33.7,42z M38.9,37.8l-6.8-3.9v-7.9c4.3,0.3,7.7,3.8,7.7,8.1C39.8,35.5,39.5,36.6,38.9,37.8z"/>
		<rect x="42.9" y="30.3" class="st4" width="7.6" height="1.1"/>
		<rect x="42.9" y="32.4" class="st4" width="7.6" height="1.1"/>
		<rect x="42.9" y="34.6" class="st4" width="7.6" height="1.1"/>
		<rect x="42.9" y="36.7" class="st4" width="7.6" height="1.1"/>
	</g>
</g>
<g id="data-visul">
</g>
<g id="collaborate-report">
</g>
<g id="dataops-DB">
</g>
<g id="dataOps">
</g>
<g id="BI-DataOps">
</g>
<g id="devops-mgmt">
</g>
<g id="Layer_12">
</g>
</svg>
