<?xml version="1.0" encoding="utf-8"?>
<!-- Generator: Adobe Illustrator 21.0.0, SVG Export Plug-In . SVG Version: 6.00 Build 0)  -->
<svg version="1.1" id="Layer_1" xmlns="http://www.w3.org/2000/svg" xmlns:xlink="http://www.w3.org/1999/xlink" x="0px" y="0px"
	 viewBox="0 0 74 74" style="enable-background:new 0 0 74 74;" xml:space="preserve">
<style type="text/css">
	.st0{fill:none;stroke:#006FAF;stroke-width:2;stroke-miterlimit:10;}
	.st1{fill:#006FAF;}
</style>
<title>health-checks</title>
<circle class="st0" cx="37" cy="37" r="36"/>
<path class="st1" d="M45.3,54.3c-0.3,0-0.5-0.1-0.7-0.3L38.6,48v3.7c0,0.3-0.1,0.5-0.3,0.7c-0.2,0.2-0.4,0.3-0.7,0.3
	s-0.5-0.1-0.7-0.3c-0.2-0.2-0.3-0.4-0.3-0.7V48l-5.9,5.9c-0.2,0.2-0.4,0.3-0.7,0.3c-0.4,0-0.8-0.3-0.9-0.7c-0.1-0.4-0.1-0.8,0.2-1.1
	l5.9-5.9h-9.8c-1.8,0-3.2-1.4-3.3-3.2l0-18.1h-2.1c-0.4,0-0.6-0.2-0.7-0.3c-0.2-0.2-0.2-0.4-0.2-0.7c0-0.5,0.3-1,1-1h16.5v-0.5
	c0-0.5,0.4-1,1-1c0,0,0,0,0,0c0.3,0,0.5,0.1,0.7,0.3c0.2,0.2,0.3,0.4,0.3,0.7v0.5h16.5c0.7,0,1,0.5,1,1c0,0.5-0.3,1-1,1h-2.1v18
	c0,1.8-1.5,3.3-3.3,3.3H40l5.9,5.9c0.3,0.3,0.4,0.7,0.2,1C46.1,54,45.7,54.3,45.3,54.3z M24.2,43.3c0,0.8,0.6,1.3,1.3,1.3h24.4
	c0.7,0,1.3-0.6,1.3-1.3v-18h-27V43.3z M47.6,40.5c-0.3,0-0.5-0.1-0.7-0.3c-0.2-0.2-0.3-0.4-0.3-0.7v-9.1c0-0.5,0.4-1,1-1
	c0,0,0,0,0,0c0.3,0,0.5,0.1,0.7,0.3c0.2,0.2,0.3,0.4,0.3,0.7v9.1c0,0.3-0.1,0.5-0.3,0.7C48.1,40.4,47.8,40.5,47.6,40.5z M44.5,40.5
	c-0.3,0-0.5-0.1-0.7-0.3c-0.2-0.2-0.3-0.4-0.3-0.7v-6.1c0-0.5,0.4-1,1-1l0,0c0.3,0,0.5,0.1,0.7,0.3c0.2,0.2,0.3,0.4,0.3,0.7v6.1
	c0,0.3-0.1,0.5-0.3,0.7C45.1,40.4,44.8,40.5,44.5,40.5z M41.5,40.5c-0.3,0-0.5-0.1-0.7-0.3c-0.2-0.2-0.3-0.4-0.3-0.7v-3
	c0-0.5,0.4-1,1-1l0,0c0.3,0,0.5,0.1,0.7,0.3c0.2,0.2,0.3,0.4,0.3,0.7v3c0,0.3-0.1,0.5-0.3,0.7C42,40.4,41.7,40.5,41.5,40.5z
	 M31.2,40.4c-0.1,0-0.2,0-0.3,0c-2-0.5-3.6-2.2-4-4.3c-0.4-2.1,0.4-4.2,2.1-5.5c0.2-0.1,0.4-0.2,0.6-0.2c0.4,0,0.8,0.3,0.9,0.7
	c0.1,0.4,0,0.8-0.3,1.1c-1.1,0.8-1.6,2.2-1.3,3.5c0.3,1.3,1.3,2.4,2.6,2.8c0.6,0.1,0.8,0.6,0.7,1.1C32.1,39.9,31.8,40.4,31.2,40.4
	L31.2,40.4z M34,40.2c-0.5,0-0.9-0.4-0.9-0.8c-0.1-0.5,0.2-0.9,0.6-1.1c0.6-0.2,1.1-0.6,1.5-1.1c0.2-0.2,0.4-0.4,0.7-0.4
	c0,0,0,0,0,0c0.4,0,0.8,0.2,0.9,0.6c0.2,0.3,0.1,0.7-0.1,1c-0.6,0.8-1.4,1.4-2.3,1.7C34.3,40.2,34.2,40.2,34,40.2z M36.9,36
	c-0.3,0-0.5-0.1-0.7-0.3c-0.2-0.2-0.3-0.4-0.3-0.7c0-2-1.6-3.6-3.6-3.6c-0.7,0-1-0.5-1-1s0.3-1,1-1c3.1,0,5.6,2.5,5.6,5.5
	c0,0.3-0.1,0.5-0.3,0.7C37.4,35.9,37.2,36,36.9,36z"/>
</svg>
