<?xml version="1.0" encoding="utf-8"?>
<!-- Generator: Adobe Illustrator 21.0.2, SVG Export Plug-In . SVG Version: 6.00 Build 0)  -->
<svg version="1.1" id="Layer_1" xmlns="http://www.w3.org/2000/svg" xmlns:xlink="http://www.w3.org/1999/xlink" x="0px" y="0px"
	 viewBox="0 0 74 74" style="enable-background:new 0 0 74 74;" xml:space="preserve">
<style type="text/css">
	.st0{fill:#006FAF;}
	.st1{fill:none;}
</style>
<title>SQL-server-database-services</title>
<g>
	<g>
		<path class="st0" d="M37,74C16.6,74,0,57.4,0,37S16.6,0,37,0s37,16.6,37,37S57.4,74,37,74z M37,2C17.7,2,2,17.7,2,37
			s15.7,35,35,35s35-15.7,35-35S56.3,2,37,2z"/>
	</g>
</g>
<g>
	<g>
		<defs>
			<rect id="SVGID_1_" x="627.8" y="321.2" width="648" height="21.6"/>
		</defs>
		<clipPath id="SVGID_2_">
			<use xlink:href="#SVGID_1_"  style="overflow:visible;"/>
		</clipPath>
		<g style="clip-path:url(#SVGID_2_);">
			<text transform="matrix(0.9991 0 0 1 627.7656 331.375)"><tspan x="0" y="0" style="fill:#0070C0; font-family:'ArialMT'; font-size:11.0503px;">P</tspan><tspan x="7.3" y="0" style="fill:#0070C0; font-family:'ArialMT'; font-size:11.0503px;">r</tspan><tspan x="11.1" y="0" style="fill:#0070C0; font-family:'ArialMT'; font-size:11.0503px;">oa</tspan><tspan x="23.3" y="0" style="fill:#0070C0; font-family:'ArialMT'; font-size:11.0503px;">c</tspan><tspan x="28.8" y="0" style="fill:#0070C0; font-family:'ArialMT'; font-size:11.0503px;">t</tspan><tspan x="32" y="0" style="fill:#0070C0; font-family:'ArialMT'; font-size:11.0503px;">i</tspan><tspan x="34.4" y="0" style="fill:#0070C0; font-family:'ArialMT'; font-size:11.0503px;">v</tspan><tspan x="39.8" y="0" style="fill:#0070C0; font-family:'ArialMT'; font-size:11.0503px;">e</tspan><tspan x="45.9" y="0" style="fill:#0070C0; font-family:'ArialMT'; font-size:11.0503px;"> </tspan></text>
		</g>
	</g>
	<g>
		<defs>
			<rect id="SVGID_3_" x="627.8" y="321.2" width="648" height="21.6"/>
		</defs>
		<clipPath id="SVGID_4_">
			<use xlink:href="#SVGID_3_"  style="overflow:visible;"/>
		</clipPath>
		<g style="clip-path:url(#SVGID_4_);">
			<text transform="matrix(0.9991 0 0 1 676.7266 331.375)"><tspan x="0" y="0" style="fill:#0070C0; font-family:'ArialMT'; font-size:11.0503px;">S</tspan><tspan x="7.3" y="0" style="fill:#0070C0; font-family:'ArialMT'; font-size:11.0503px;">pend</tspan><tspan x="31.9" y="0" style="fill:#0070C0; font-family:'ArialMT'; font-size:11.0503px;"> </tspan><tspan x="35" y="0" style="fill:#0070C0; font-family:'ArialMT'; font-size:11.0503px;">M</tspan><tspan x="44" y="0" style="fill:#0070C0; font-family:'ArialMT'; font-size:11.0503px;">anage</tspan><tspan x="74.7" y="0" style="fill:#0070C0; font-family:'ArialMT'; font-size:11.0503px;">m</tspan><tspan x="83.9" y="0" style="fill:#0070C0; font-family:'ArialMT'; font-size:11.0503px;">en</tspan><tspan x="96.2" y="0" style="fill:#0070C0; font-family:'ArialMT'; font-size:11.0503px;">t</tspan></text>
		</g>
	</g>
	<g>
		<defs>
			<rect id="SVGID_5_" x="627.8" y="321.2" width="648" height="21.6"/>
		</defs>
		<clipPath id="SVGID_6_">
			<use xlink:href="#SVGID_5_"  style="overflow:visible;"/>
		</clipPath>
		<g style="clip-path:url(#SVGID_6_);">
			<text transform="matrix(0.9991 0 0 1 775.7188 331.375)" style="fill:#0070C0; font-family:'ArialMT'; font-size:11.0503px;"> </text>
		</g>
	</g>
</g>
<path class="st0" d="M28.4,45c0-0.8-0.7-1.5-1.5-1.5h-6.4c-0.8,0-1.5,0.7-1.5,1.5v6.4c0,0.8,0.7,1.5,1.5,1.5h6.4
	c0.8,0,1.5-0.7,1.5-1.5V45z M27.8,51.4c0,0.5-0.4,0.9-0.9,0.9h-6.4c-0.5,0-0.9-0.4-0.9-0.9V45c0-0.5,0.4-0.9,0.9-0.9h6.4
	c0.5,0,0.9,0.4,0.9,0.9V51.4z"/>
<path class="st0" d="M53.6,48v3.5c0,0.5-0.3,0.8-0.8,0.8h-6.5c-0.5,0-0.9-0.3-0.9-0.8V45c0-0.5,0.4-0.9,0.9-0.9h6.5
	c0.4,0,0.7,0.2,0.8,0.5c0.2-0.1,0.3-0.2,0.5-0.3c-0.2-0.5-0.8-0.8-1.4-0.8h-6.5c-0.8,0-1.5,0.7-1.5,1.5v6.5c0,0.8,0.7,1.4,1.5,1.4
	h6.5c0.8,0,1.4-0.6,1.4-1.4v-4.1L53.6,48z"/>
<path class="st0" d="M56.4,43.6c-0.2-0.2-0.6-0.2-0.8,0l-5.7,5.7l-2-2c-0.2-0.2-0.6-0.2-0.8,0c-0.2,0.2-0.2,0.6,0,0.8l2.4,2.4
	c0.1,0.1,0.3,0.2,0.4,0.2s0.3-0.1,0.4-0.2l6.2-6.2C56.6,44.2,56.6,43.8,56.4,43.6z"/>
<path class="st1" d="M52.8,44.6h-6.5c-0.3,0-0.5,0.2-0.5,0.5v6.5c0,0.3,0.3,0.3,0.5,0.3h6.5c0.3,0,0.3-0.1,0.3-0.3v-3.2l-1.6,1.6
	c-0.2,0.2-0.5,0.3-0.7,0.3c-0.3,0-0.5-0.1-0.7-0.3l-2.4-2.4c-0.2-0.2-0.3-0.5-0.3-0.7c0-0.3,0.1-0.5,0.3-0.7
	c0.2-0.2,0.5-0.3,0.7-0.3c0.3,0,0.5,0.1,0.7,0.3l1.7,1.7l2.5-2.5l-0.1-0.3C53.1,44.7,53,44.6,52.8,44.6z"/>
<path class="st1" d="M26.9,44.6h-6.4c-0.3,0-0.5,0.2-0.5,0.5v6.4c0,0.3,0.2,0.5,0.5,0.5h6.4c0.3,0,0.5-0.2,0.5-0.5V45
	C27.3,44.8,27.2,44.6,26.9,44.6z"/>
<path class="st0" d="M53.1,48.3v3.2c0,0.3-0.1,0.3-0.3,0.3h-6.5c-0.2,0-0.5-0.1-0.5-0.3V45c0-0.3,0.2-0.5,0.5-0.5h6.5
	c0.2,0,0.3,0.1,0.4,0.3l0.1,0.3l1.1-1.1c-0.3-0.6-1-0.9-1.7-0.9h-6.5c-1.1,0-2,0.9-2,2v2.6l-1.4-1.4c-0.1-0.1-0.3-0.2-0.5-0.2
	s-0.4,0.1-0.5,0.2c-0.2,0.2-0.2,0.4-0.2,0.5c0,0.1,0,0.3,0.2,0.5l0.4,0.3h-4.7c3.7-2,6-5.9,6-10.2c0-1.4-0.2-2.7-0.7-4
	c0,0,0.1,0,0.1,0c0.6,0.2,1.2,0.3,1.8,0.3c0,0,0,0,0,0c2.6,0,4.8-1.6,5.6-4.1c0.5-1.5,0.4-3-0.3-4.4c-0.7-1.4-1.9-2.5-3.5-3
	c-0.1,0-0.3-0.1-0.4-0.1l0.3-0.2c0.3-0.2,0.4-0.7,0.2-1.1c-0.1-0.2-0.4-0.3-0.6-0.3c-0.1,0-0.3,0-0.4,0.1l-2.1,1.5l-0.2,0.2v0l0,0
	v0.1c0,0.3,0.1,0.6,0.3,0.8l2.1,1.2c0.1,0.1,0.2,0.1,0.4,0.1c0.3,0,0.5-0.1,0.7-0.4c0.1-0.2,0.1-0.3,0.1-0.5c0.8,0.4,1.5,1.1,2,1.9
	c0.5,1.1,0.6,2.3,0.2,3.4c-0.6,1.8-2.3,3-4.2,3c-0.5,0-0.9-0.1-1.4-0.2c-0.7-0.2-1.4-0.6-1.8-1.1c-2.2-3.3-5.9-5.3-9.8-5.3
	c-2.8,0-5.5,1-7.7,2.8l0.2-1.4c0-0.2,0-0.4-0.1-0.5c-0.1-0.2-0.3-0.3-0.5-0.3l-0.1,0h0c-0.4,0-0.7,0.3-0.7,0.7l-0.4,3.7v0.1l0,0
	c0.1,0.4,0.4,0.6,0.8,0.6c0,0,3.8-0.5,3.8-0.5c0.4-0.1,0.6-0.4,0.6-0.9c-0.1-0.4-0.4-0.6-0.8-0.6c0,0-1.7,0.2-1.7,0.2
	c1.8-1.6,4.2-2.4,6.6-2.4c5.7,0,10.3,4.6,10.3,10.2c0,5.6-4.6,10.2-10.3,10.2h-2.9V45c0-1.1-0.9-2-2-2h-6.4c-1.1,0-2,0.9-2,2v6.4
	c0,1.1,0.9,2,2,2h6.4c1.1,0,2-0.9,2-2v-2.3h13.4l-0.5,0.5c-0.3,0.3-0.3,0.8,0,1.1c0.1,0.1,0.3,0.2,0.5,0.2c0.2,0,0.4-0.1,0.5-0.2
	l1.5-1.5v2.2c0,1.1,0.9,1.8,2,1.8h6.5c1.1,0,1.8-0.8,1.8-1.8v-4.7L53.1,48.3z M27.3,51.4c0,0.3-0.2,0.5-0.5,0.5h-6.4
	c-0.3,0-0.5-0.2-0.5-0.5V45c0-0.3,0.2-0.5,0.5-0.5h6.4c0.3,0,0.5,0.2,0.5,0.5V51.4z"/>
</svg>
