<?xml version="1.0" encoding="utf-8"?>
<!-- Generator: Adobe Illustrator 21.0.2, SVG Export Plug-In . SVG Version: 6.00 Build 0)  -->
<svg version="1.1" id="Layer_1" xmlns="http://www.w3.org/2000/svg" xmlns:xlink="http://www.w3.org/1999/xlink" x="0px" y="0px"
	 viewBox="0 0 74 74" style="enable-background:new 0 0 74 74;" xml:space="preserve">
<style type="text/css">
	.st0{fill:none;stroke:#006FAF;stroke-width:2;stroke-miterlimit:10;}
	.st1{fill:none;stroke:#006FAF;stroke-width:1.2;}
	.st2{fill:#006FAF;}
</style>
<title>Cloud &amp;amp; Infrastructure Services</title>
<circle class="st0" cx="37" cy="37" r="36"/>
<g>
	<path id="Rectangle-2" class="st1" d="M32.7,33.3h8.6c1.7,0,3,1.4,3,3v5.8c0,1.7-1.4,3-3,3h-8.6c-1.7,0-3-1.4-3-3v-5.8
		C29.7,34.6,31,33.3,32.7,33.3z"/>
	<path id="Rectangle-4" class="st2" d="M34.3,36.9L34.3,36.9c0.5,0,0.9,0.4,0.9,0.9l0,0c0,0.5-0.4,0.9-0.9,0.9l0,0
		c-0.5,0-0.9-0.4-0.9-0.9l0,0C33.3,37.3,33.7,36.9,34.3,36.9z"/>
	<rect id="Rectangle-4-Copy-2-2" x="36.6" y="31.4" class="st2" width="0.7" height="1.8"/>
	<path id="Rectangle-4-Copy-6" class="st2" d="M35.9,28.8h2.1c0.4,0,0.8,0.3,0.8,0.8v1.2c0,0.4-0.3,0.8-0.8,0.8h-2.1
		c-0.4,0-0.8-0.3-0.8-0.8v-1.2C35.2,29.2,35.5,28.8,35.9,28.8z"/>
	<path id="Rectangle-4-Copy-6-2" class="st2" d="M28.8,36.9H30c0.4,0,0.8,0.3,0.8,0.8v2.1c0,0.4-0.3,0.8-0.8,0.8h-1.2
		c-0.4,0-0.8-0.3-0.8-0.8v-2.1C28,37.3,28.3,36.9,28.8,36.9z"/>
	<path id="Rectangle-4-Copy-7" class="st2" d="M44,36.9h1.2c0.4,0,0.8,0.3,0.8,0.8v2.1c0,0.4-0.3,0.8-0.8,0.8H44
		c-0.4,0-0.8-0.3-0.8-0.8v-2.1C43.3,37.3,43.6,36.9,44,36.9z"/>
	<path id="Rectangle-4-Copy" class="st2" d="M39.7,36.9L39.7,36.9c0.5,0,0.9,0.4,0.9,0.9l0,0c0,0.5-0.4,0.9-0.9,0.9l0,0
		c-0.5,0-0.9-0.4-0.9-0.9l0,0C38.8,37.3,39.2,36.9,39.7,36.9z"/>
	<path class="st2" d="M33.3,41.3c0,0,1,1.8,3.7,1.8c2.7,0,3.7-1.8,3.7-1.8H33.3z"/>
</g>
<path class="st2" d="M45,15.7H29c-2.2,0-4,1.8-4,4v34.7c0,2.2,1.8,4,4,4h16c2.2,0,4-1.8,4-4V19.7C49,17.5,47.2,15.7,45,15.7z
	 M33.7,18.3h6.7v1.3h-6.7V18.3z M37,57c-1.1,0-2-0.9-2-2s0.9-2,2-2s2,0.9,2,2S38.1,57,37,57z M47.7,51.7H26.3V22.3h21.3V51.7z"/>
</svg>
