<?xml version="1.0" encoding="utf-8"?>
<!-- Generator: Adobe Illustrator 21.0.0, SVG Export Plug-In . SVG Version: 6.00 Build 0)  -->
<svg version="1.1" id="Layer_1" xmlns="http://www.w3.org/2000/svg" xmlns:xlink="http://www.w3.org/1999/xlink" x="0px" y="0px"
	 viewBox="0 0 74 74" style="enable-background:new 0 0 74 74;" xml:space="preserve">
<style type="text/css">
	.st0{fill:none;stroke:#006FAF;stroke-width:2;stroke-miterlimit:10;}
	.st1{fill:#006FAF;}
</style>
<title>os-patch-management</title>
<g id="text">
</g>
<g>
	<circle class="st0" cx="37" cy="37" r="36"/>
	<g>
		<path class="st1" d="M48.1,30.4c0.4,0.3,0.7,0.5,1,0.8l4.1-2.7c0.5,0.3,1.1,0.5,1.7,0.5c0.9,0,1.6-0.3,2.2-0.9
			c0.6-0.6,0.9-1.3,0.9-2.2c0-0.9-0.3-1.6-0.9-2.2c-0.6-0.6-1.3-0.9-2.2-0.9s-1.6,0.3-2.2,0.9c-0.6,0.6-0.9,1.3-0.9,2.2
			c0,0.4,0.1,0.9,0.3,1.3l-4.4,2.9C47.8,30.2,48,30.3,48.1,30.4z M54,25c0.2-0.2,0.6-0.4,0.9-0.4s0.7,0.1,0.9,0.4
			c0.2,0.2,0.4,0.6,0.4,0.9c0,0.4-0.1,0.7-0.4,0.9c-0.2,0.2-0.6,0.4-0.9,0.4c-0.4,0-0.7-0.1-0.9-0.4c-0.2-0.2-0.4-0.6-0.4-0.9
			C53.6,25.6,53.7,25.2,54,25z"/>
		<path class="st1" d="M46.5,33L46.5,33C46.5,33,46.4,32.9,46.5,33c-0.6-0.4-1.2-0.7-1.9-0.9l-5.5,3.7c0,0,0,0,0,0
			c-0.1-0.3-0.3-0.5-0.6-0.8c-0.6-0.6-1.3-0.9-2.2-0.9c-0.9,0-1.6,0.3-2.2,0.9c-0.6,0.6-0.9,1.3-0.9,2.2c0,0.9,0.3,1.6,0.9,2.2
			c0.6,0.6,1.3,0.9,2.2,0.9c0.9,0,1.6-0.3,2.2-0.9c0.2-0.2,0.4-0.5,0.6-0.8c0,0,0,0,0,0l6.3,4.2c0.6-0.2,1.1-0.6,1.6-1.1l-6.9-4.5
			L46.5,33z M37.3,38.1c-0.2,0.2-0.6,0.4-0.9,0.4c-0.4,0-0.7-0.1-0.9-0.4c-0.2-0.2-0.4-0.6-0.4-0.9c0-0.4,0.1-0.7,0.4-0.9
			c0.2-0.2,0.6-0.4,0.9-0.4c0.4,0,0.7,0.1,0.9,0.4c0.2,0.2,0.4,0.6,0.4,0.9C37.7,37.6,37.5,37.9,37.3,38.1z M39.2,38.4
			C39.2,38.5,39.2,38.5,39.2,38.4C39.2,38.5,39.2,38.5,39.2,38.4z M39.1,35.9C39.2,35.9,39.2,35.9,39.1,35.9
			C39.2,35.9,39.2,35.9,39.1,35.9z M39.2,36.1C39.2,36.1,39.2,36.1,39.2,36.1C39.2,36.1,39.2,36.1,39.2,36.1z M39.3,36.2
			C39.3,36.3,39.3,36.3,39.3,36.2C39.3,36.3,39.3,36.3,39.3,36.2z M39.3,36.4C39.3,36.5,39.3,36.5,39.3,36.4
			C39.3,36.5,39.3,36.5,39.3,36.4z M39.4,36.6C39.4,36.6,39.4,36.7,39.4,36.6C39.4,36.7,39.4,36.6,39.4,36.6z M39.4,36.8
			C39.4,36.8,39.4,36.8,39.4,36.8C39.4,36.8,39.4,36.8,39.4,36.8z M39.4,37C39.4,37,39.4,37,39.4,37C39.4,37,39.4,37,39.4,37z
			 M39.4,37.4C39.4,37.4,39.4,37.4,39.4,37.4C39.4,37.4,39.4,37.4,39.4,37.4z M39.4,37.6C39.4,37.6,39.4,37.6,39.4,37.6
			C39.4,37.6,39.4,37.6,39.4,37.6z M39.4,37.7C39.4,37.7,39.4,37.8,39.4,37.7C39.4,37.8,39.4,37.7,39.4,37.7z M39.4,37.9
			C39.3,37.9,39.3,37.9,39.4,37.9C39.3,37.9,39.3,37.9,39.4,37.9z M39.3,38.1C39.3,38.1,39.3,38.1,39.3,38.1
			C39.3,38.1,39.3,38.1,39.3,38.1z M39.2,38.3C39.2,38.3,39.2,38.3,39.2,38.3C39.2,38.3,39.2,38.3,39.2,38.3z"/>
		<path class="st1" d="M54.9,45c-0.7,0-1.4,0.3-1.9,0.7l-3.3-2.2c-0.1,0.1-0.1,0.2-0.2,0.2c-0.3,0.4-0.7,0.7-1.1,1l3.7,2.4
			c-0.1,0.3-0.2,0.6-0.2,1c0,0.9,0.3,1.6,0.9,2.2c0.6,0.6,1.3,0.9,2.2,0.9c0.9,0,1.6-0.3,2.2-0.9c0.6-0.6,0.9-1.3,0.9-2.2
			c0-0.9-0.3-1.6-0.9-2.2C56.5,45.3,55.8,45,54.9,45z M55.8,49c-0.2,0.2-0.6,0.4-0.9,0.4c-0.4,0-0.7-0.1-0.9-0.4
			c-0.2-0.2-0.4-0.6-0.4-0.9c0-0.4,0.1-0.7,0.4-0.9c0.2-0.2,0.6-0.4,0.9-0.4c0.4,0,0.7,0.1,0.9,0.4c0.2,0.2,0.4,0.6,0.4,0.9
			S56.1,48.8,55.8,49z"/>
		<path class="st1" d="M51.2,37.6c0-1-0.2-2-0.5-2.8c-0.6-1.6-1.6-2.9-2.9-3.8c-1.3-0.9-2.8-1.4-4.4-1.4c-0.5,0-1.1,0.1-1.6,0.2
			c-0.5-1.3-1.4-2.5-2.5-3.3c-1.3-1-2.9-1.6-4.6-1.6c-1.7,0-3.3,0.6-4.6,1.6c-1.1,0.8-2,2-2.5,3.3l0,0c-0.5-0.1-1.1-0.2-1.6-0.2
			c-1.6,0-3.1,0.5-4.4,1.4c-1.3,0.9-2.4,2.2-2.9,3.8c-0.3,0.9-0.5,1.8-0.5,2.8c0,2.2,0.9,4.2,2.3,5.7c1.4,1.5,3.4,2.4,5.5,2.4h17.7
			c2.1,0,4.1-0.9,5.5-2.4C50.3,41.8,51.2,39.8,51.2,37.6z M43.4,43.8H25.8c-1.7,0-3.1-0.7-4.2-1.8c-1.1-1.1-1.8-2.7-1.8-4.4
			c0-0.8,0.1-1.6,0.4-2.2c0.4-1.3,1.3-2.3,2.3-2.9c1-0.7,2.2-1.1,3.4-1.1c0.6,0,1.3,0.1,1.9,0.3l0.9,0.3l0.3-0.9
			c0.4-1.3,1.2-2.4,2.2-3.2h0c1-0.8,2.2-1.2,3.6-1.2c1.3,0,2.6,0.5,3.6,1.2c1,0.8,1.8,1.9,2.2,3.2l0.3,0.9l0.9-0.3
			c0.6-0.2,1.3-0.3,1.9-0.3c1.2,0,2.4,0.4,3.4,1.1c1,0.7,1.8,1.7,2.3,2.9c0.2,0.7,0.4,1.4,0.4,2.2c0,1.7-0.7,3.3-1.8,4.4
			C46.6,43.1,45.1,43.8,43.4,43.8z"/>
	</g>
</g>
</svg>
