<svg id="Layer_1" data-name="Layer 1" xmlns="http://www.w3.org/2000/svg" width="74" height="74" viewBox="0 0 74 74">
  <defs>
    <style>
      .cls-1 {
        fill: none;
        stroke: #006faf;
        stroke-miterlimit: 10;
        stroke-width: 2px;
      }

      .cls-2 {
        fill: #006faf;
      }
    </style>
  </defs>
  <title>azure-app-development</title>
  <circle class="cls-1" cx="37" cy="37" r="36"/>
  <g>
    <path class="cls-2" d="M27.13,45.06a8.34,8.34,0,0,1-2.74-16.31,7.76,7.76,0,0,1,4.66,0,2,2,0,0,0,.58.13c.22,0,.4-.11.59-.66a10.41,10.41,0,0,1,10.11-7.07c.34,0,.68,0,1,0A10.19,10.19,0,0,1,50.54,30a3.61,3.61,0,0,0,2,2.94,6.4,6.4,0,0,1,3,5.31,6.5,6.5,0,0,1-2.76,5.54l-.19.11a1.86,1.86,0,0,1-.87.34h0a.79.79,0,0,1-.67-.42.92.92,0,0,1-.21-.71,1.6,1.6,0,0,1,.77-.91,4.39,4.39,0,0,0,2-4.68,4.3,4.3,0,0,0-3.4-3.64c-1.26-.31-1.26-1.05-1.26-2a8.21,8.21,0,0,0-4.9-8A8.9,8.9,0,0,0,40.16,23,8.4,8.4,0,0,0,34.81,25a8.1,8.1,0,0,0-3,5c-.18.91-.38,1.4-.91,1.4a2.78,2.78,0,0,1-1.13-.39,6.74,6.74,0,0,0-3-.72A6.11,6.11,0,0,0,22.6,32a6.39,6.39,0,0,0-1.74,7A6.54,6.54,0,0,0,27,43.14h1.47c.74,0,1.16.36,1.16,1,0,.42-.21.93-1.22.93Z"/>
    <path class="cls-2" d="M37.52,54a3.31,3.31,0,0,1-3.37-2.82,1.74,1.74,0,0,0-1.73-1.64h-.29c-1.27,0-1.63-.83-2-1.72-.42-1-.84-2.09.22-3.07a1.62,1.62,0,0,0,.58-1.19,1.78,1.78,0,0,0-.64-1.3c-1-1-.74-1.88-.29-2.92.29-.76.69-1.8,2-1.8h.13A1.74,1.74,0,0,0,34,35.58c-.07-1.26.79-1.69,1.67-2l.12-.05a4,4,0,0,1,1.51-.43,1.76,1.76,0,0,1,1.28.58,2,2,0,0,0,1.43.75,1.83,1.83,0,0,0,1.33-.68,1.86,1.86,0,0,1,1.35-.61,3.69,3.69,0,0,1,1.43.38l.26.12c.79.35,1.6.71,1.6,2s.63,1.88,2.08,1.94c1.3.07,1.65,1,2,1.8s.83,1.79-.09,2.78c-.57.57-.81,1-.81,1.38s.27.81.87,1.38c.89.89.52,1.85.19,2.7l-.16.09.11,0c-.32.82-.67,1.76-2,1.76h-.28a1.74,1.74,0,0,0-1.8,1.95c0,1.34-.89,1.77-1.8,2.1l-.11,0a4,4,0,0,1-1.45.39,1.82,1.82,0,0,1-1.36-.66,1.63,1.63,0,0,0-2.62.07A1.84,1.84,0,0,1,37.52,54Zm2.56-3.49a4.09,4.09,0,0,1,2.21.69,2.75,2.75,0,0,1,.37.24,2.63,2.63,0,0,0,.35.22l.09-.07c.43-.15.69-.25.74-.7a3.89,3.89,0,0,1,3.48-3.55c.29,0,.67-.15.78-.42s0-.55-.26-.93A4.11,4.11,0,0,1,47.78,41q.44-.63.3-1c-.09-.22-.39-.37-.89-.46a3.85,3.85,0,0,1-3.35-3.21c-.19-.91-.43-1-.65-1a2,2,0,0,0-.9.38,3.91,3.91,0,0,1-4.51,0,2,2,0,0,0-.91-.38c-.22,0-.45.12-.64,1a3.9,3.9,0,0,1-3.35,3.28c-.5.12-.78.29-.87.52s0,.54.28,1a4,4,0,0,1,.07,4.64c-.33.53-.44.85-.35,1.06s.4.36,1,.49a4,4,0,0,1,3.21,3.21c.19.91.43,1,.65,1a2,2,0,0,0,.9-.38A4.51,4.51,0,0,1,40.08,50.47Z"/>
    <path class="cls-2" d="M40.35,39.52a4,4,0,0,0-4.15,3.9,3.84,3.84,0,0,0,3.9,4.09,4,4,0,1,0,.26-8Zm0,6.13a2.08,2.08,0,0,1-2.24-2.11,2.22,2.22,0,0,1,2-2.17,2.17,2.17,0,0,1,2.24,2.17A2,2,0,0,1,40.35,45.65Z"/>
  </g>
</svg>
