<?xml version="1.0" encoding="utf-8"?>
<!-- Generator: Adobe Illustrator 21.0.2, SVG Export Plug-In . SVG Version: 6.00 Build 0)  -->
<svg version="1.1" id="Layer_1" xmlns="http://www.w3.org/2000/svg" xmlns:xlink="http://www.w3.org/1999/xlink" x="0px" y="0px"
	 viewBox="0 0 74 74" style="enable-background:new 0 0 74 74;" xml:space="preserve">
<style type="text/css">
	.st0{fill:none;stroke:#006FAF;stroke-width:2;stroke-miterlimit:10;}
	.st1{fill:#006FAF;}
</style>
<g id="azure-data-protection-and-recovery">
	<g id="Layer_13">
	</g>
</g>
<g id="cloud-dr-and-bc-strategy">
</g>
<circle class="st0" cx="37" cy="37" r="36"/>
<g id="hybrid-workload-data-protection">
</g>
<g id="automated-disaster-recovery">
</g>
<g id="regulatory-compliance-management">
</g>
<g>
	<path class="st1" d="M37,18.2c1.5,0,2.7,1.2,2.7,2.7s-1.2,2.7-2.7,2.7s-2.7-1.2-2.7-2.7S35.5,18.2,37,18.2 M37,16.8
		c-2.3,0-4.1,1.8-4.1,4.1s1.8,4.1,4.1,4.1s4.1-1.8,4.1-4.1S39.3,16.8,37,16.8L37,16.8z"/>
	<path class="st1" d="M37,50.3c1.5,0,2.7,1.2,2.7,2.7s-1.2,2.7-2.7,2.7s-2.7-1.2-2.7-2.7S35.5,50.3,37,50.3 M37,48.9
		c-2.3,0-4.1,1.8-4.1,4.1s1.8,4.1,4.1,4.1s4.1-1.8,4.1-4.1S39.3,48.9,37,48.9L37,48.9z"/>
	<path class="st1" d="M23.1,26.3L23.1,26.3c0.5,0,0.9,0.1,1.3,0.4c1.3,0.8,1.8,2.4,1,3.7c-0.5,0.8-1.4,1.3-2.3,1.3
		c-0.5,0-0.9-0.1-1.3-0.4c-1.3-0.8-1.8-2.4-1-3.7C21.2,26.8,22.1,26.3,23.1,26.3 M23.1,24.9c-1.4,0-2.8,0.7-3.6,2
		c-1.1,2-0.4,4.4,1.5,5.6c0.7,0.4,1.3,0.6,2,0.6c1.4,0,2.8-0.7,3.6-2c1.1-2,0.4-4.4-1.5-5.6C24.5,25.1,23.8,24.9,23.1,24.9
		L23.1,24.9z"/>
	<path class="st1" d="M50.9,42.3L50.9,42.3c0.5,0,0.9,0.1,1.3,0.4c0.6,0.4,1.1,1,1.3,1.7c0.2,0.7,0.1,1.4-0.3,2.1
		c-0.5,0.8-1.4,1.3-2.3,1.3c-0.5,0-0.9-0.1-1.3-0.4c-1.3-0.8-1.8-2.4-1-3.7C49,42.8,49.9,42.3,50.9,42.3 M50.9,40.9
		c-1.4,0-2.8,0.7-3.6,2c-1.1,2-0.4,4.4,1.5,5.6c0.7,0.4,1.3,0.6,2,0.6c1.4,0,2.8-0.7,3.6-2c1.1-2,0.4-4.4-1.5-5.6
		C52.3,41.1,51.6,40.9,50.9,40.9L50.9,40.9z"/>
	<path class="st1" d="M23.1,42.3L23.1,42.3c1,0,1.9,0.5,2.3,1.3c0.8,1.3,0.3,3-1,3.7c-0.4,0.2-0.9,0.4-1.3,0.4c-1,0-1.9-0.5-2.3-1.3
		c-0.4-0.6-0.4-1.3-0.3-2.1c0.2-0.7,0.6-1.3,1.3-1.7C22.2,42.4,22.6,42.3,23.1,42.3 M23.1,40.9c-0.7,0-1.4,0.2-2,0.6
		c-2,1.1-2.6,3.6-1.5,5.6c0.8,1.3,2.1,2,3.6,2c0.7,0,1.4-0.2,2-0.6c2-1.1,2.6-3.6,1.5-5.6C25.9,41.6,24.5,40.9,23.1,40.9L23.1,40.9z
		"/>
	<path class="st1" d="M50.9,26.3L50.9,26.3c1,0,1.9,0.5,2.3,1.3c0.8,1.3,0.3,3-1,3.7c-0.4,0.2-0.9,0.4-1.3,0.4c-1,0-1.9-0.5-2.3-1.3
		c-0.8-1.3-0.3-3,1-3.7C50,26.4,50.4,26.3,50.9,26.3 M50.9,24.9c-0.7,0-1.4,0.2-2,0.6c-2,1.1-2.6,3.6-1.5,5.6c0.8,1.3,2.1,2,3.6,2
		c0.7,0,1.4-0.2,2-0.6c2-1.1,2.6-3.6,1.5-5.6C53.7,25.6,52.3,24.9,50.9,24.9L50.9,24.9z"/>
	<g>
		<path class="st1" d="M23.4,33.7c-0.1,0-0.2,0-0.3,0c-0.1,0-0.2,0-0.3,0v6.5c0.1,0,0.2,0,0.3,0c0.1,0,0.2,0,0.3,0V33.7z"/>
		<path class="st1" d="M50.9,33.7c-0.1,0-0.2,0-0.3,0v6.5c0.1,0,0.2,0,0.3,0c0.1,0,0.2,0,0.3,0v-6.5C51.1,33.7,51,33.7,50.9,33.7z"
			/>
		<path class="st1" d="M33,50.4l-5.6-3.2c-0.1,0.2-0.2,0.4-0.3,0.6l5.7,3.2C32.8,50.7,32.9,50.5,33,50.4z"/>
		<path class="st1" d="M46.6,47.1L41,50.3c0.1,0.2,0.2,0.4,0.3,0.6l5.7-3.2C46.8,47.5,46.7,47.3,46.6,47.1z"/>
		<path class="st1" d="M41,23.6l5.6,3.2c0.1-0.2,0.2-0.4,0.3-0.6l-5.7-3.2C41.2,23.2,41.1,23.4,41,23.6z"/>
		<path class="st1" d="M27.4,26.9l5.6-3.3c-0.1-0.2-0.2-0.4-0.3-0.6l-5.6,3.3C27.2,26.5,27.3,26.7,27.4,26.9z"/>
		<path class="st1" d="M43.4,33.7l3.5-2.1c-0.1-0.1-0.1-0.2-0.2-0.3c-0.1-0.1-0.1-0.2-0.2-0.3l-3.9,2.3
			C42.9,33.5,43.2,33.6,43.4,33.7z"/>
		<path class="st1" d="M44.5,40.9c-0.2,0.2-0.3,0.3-0.5,0.5l2.6,1.4c0-0.1,0.1-0.2,0.1-0.3c0.1-0.1,0.1-0.2,0.2-0.3L44.5,40.9z"/>
		<path class="st1" d="M36.7,42.8v5.4c0.1,0,0.2,0,0.3,0s0.2,0,0.3,0v-5.4H36.7z"/>
		<path class="st1" d="M32.2,34.4c0-0.2,0-0.4,0.1-0.7l-4.9-2.7c0,0.1-0.1,0.2-0.2,0.3c-0.1,0.1-0.1,0.2-0.2,0.3l5,2.8
			C32.1,34.4,32.2,34.4,32.2,34.4z"/>
		<path class="st1" d="M37.3,30.3v-4.6c-0.1,0-0.2,0-0.3,0s-0.2,0-0.3,0v4.6C36.9,30.3,37.1,30.3,37.3,30.3z"/>
		<path class="st1" d="M29.6,40.8l-2.6,1.5c0.1,0.1,0.1,0.2,0.2,0.3s0.1,0.2,0.1,0.3l2.6-1.6C29.9,41.2,29.8,41,29.6,40.8z"/>
	</g>
	<path class="st1" d="M33.2,42.1c-2,0-3.6-1.6-3.6-3.6c0-1.9,1.4-3.4,3.3-3.6c0-0.1,0-0.3,0-0.4c0-2,1.6-3.6,3.6-3.6
		c1.7,0,3.1,1.2,3.5,2.8c0.2,0,0.5-0.1,0.8-0.1c2.3,0,4.2,2,4.2,4.3c0,2.2-1.9,3.9-4.1,4.2l0,0l0,0C40.8,42.1,33.2,42.1,33.2,42.1z
		 M33.2,36.1c-1.7,0.1-2.4,1-2.4,2.3c0,1.3,1,2.3,2.4,2.3h7.6c1.7,0,3.1-1.3,3.1-3s-1.4-3-3.1-3c-1,0-1.9,0.5-2.5,1.4l-0.2,0.2
		l-0.9-0.6l0.2-0.2c0.4-0.6,1-1.1,1.6-1.4c-0.2-1.2-1.2-2-2.4-2c-1.4,0-2.5,1.1-2.5,2.5c0,0.2,0,0.4,0.1,0.6l0.3,1L33.2,36.1
		L33.2,36.1z"/>
</g>
</svg>
