<?xml version="1.0" encoding="utf-8"?>
<!-- Generator: Adobe Illustrator 21.0.2, SVG Export Plug-In . SVG Version: 6.00 Build 0)  -->
<svg version="1.1" id="Layer_1" xmlns="http://www.w3.org/2000/svg" xmlns:xlink="http://www.w3.org/1999/xlink" x="0px" y="0px"
	 viewBox="0 0 74 74" style="enable-background:new 0 0 74 74;" xml:space="preserve">
<style type="text/css">
	.st0{fill:none;stroke:#006FAF;stroke-width:2;stroke-miterlimit:10;}
	.st1{fill:#006FAF;}
</style>
<title>Cloud &amp;amp; Infrastructure Services</title>
<circle class="st0" cx="37" cy="37" r="36"/>
<g>
	<polygon class="st1" points="33.3,41 32.2,42 34.8,44.9 34.8,45 35.3,45.5 35.8,46 35.8,46 35.8,46 36.3,45.5 36.9,45 36.9,45 
		41.8,40 40.8,39 35.9,43.9 	"/>
	<path class="st1" d="M50.6,29.2c-0.2-0.1-0.4-0.4-0.3-0.7c0-5.1-4.1-9.2-9.2-9.2c-2.8,0-5.4,1.2-7.1,3.3c-0.7-0.3-1.5-0.4-2.2-0.4
		c-3.2,0-5.9,2.2-6.5,5.3c-0.1,0.4-0.3,0.7-0.7,0.9c-2.9,1.1-5,4.5-5,7.9c0,4.6,4,8.5,8.7,8.6c0.5,1.4,1.1,2.8,2,4
		c1.8,2.5,4.1,4,6.3,5.4l0.5,0.3l0.5-0.3c2.2-1.4,4.5-2.9,6.3-5.3c0.9-1.2,1.5-2.6,2-4c0.5,0,2.4,0,2.8-0.1c3.6-0.7,5.8-3.9,5.8-8.5
		C54.5,33.5,53,30.8,50.6,29.2z M42.6,48.1c-1.5,2.1-3.5,3.4-5.6,4.8c-2.1-1.3-4-2.6-5.6-4.8c-1.9-2.6-2.9-6.3-3-11.2
		c3-1.2,5.9-2.7,8.6-4.6c2.7,1.9,5.5,3.4,8.6,4.6C45.4,41.8,44.4,45.5,42.6,48.1z M48.4,43.4c-0.2,0-1.4,0.1-2.1,0.1
		c0.6-2.5,0.9-5,0.9-7.6c-3.6-1.3-7-3.1-10.1-5.5c-3.1,2.3-6.5,4.2-10.1,5.5c0,2.6,0.3,5.1,0.8,7.6C24,43.1,21,40,21,36.4
		c0-2.8,1.7-5.6,4-6.5c0.8-0.4,1.4-1.1,1.6-2c0.5-2.4,2.6-4.1,5.1-4.1c0.7,0,1.5,0.2,2.1,0.5c0.3,0.2,0.7,0.1,0.9-0.2
		c2.5-3.4,7.3-4.2,10.8-1.7c2,1.5,3.2,3.8,3.2,6.3c0,0.8,0.4,1.5,1,1.9c2,1.3,3.2,3.5,3.2,5.9C53,40.3,51.3,42.9,48.4,43.4z"/>
</g>
</svg>
