<svg id="Layer_1" data-name="Layer 1" xmlns="http://www.w3.org/2000/svg" width="74" height="74" viewBox="0 0 74 74">
  <defs>
    <style>
      .cls-1 {
        fill: none;
        stroke: #006faf;
        stroke-miterlimit: 10;
        stroke-width: 2px;
      }

      .cls-2 {
        fill: #006faf;
      }
    </style>
  </defs>
  <title>Code-Inspection-Continuous-Integration</title>
  <circle class="cls-1" cx="37" cy="37" r="36"/>
  <g>
    <path class="cls-2" d="M36.8,19A11.4,11.4,0,1,0,48.2,30.4,11.39,11.39,0,0,0,36.8,19Zm0,20.9a9.5,9.5,0,1,1,9.5-9.5A9.56,9.56,0,0,1,36.8,39.9Z"/>
    <rect class="cls-2" x="35.9" y="12.4" width="1.9" height="5"/>
    <rect class="cls-2" x="45.52" y="18.61" width="5" height="1.9" transform="translate(0.24 39.68) rotate(-45)"/>
    <rect class="cls-2" x="41.3" y="16.4" width="2.5" height="1.9" transform="translate(10.23 50.02) rotate(-67.5)"/>
    <rect class="cls-2" x="46.95" y="38.99" width="1.9" height="5" transform="translate(-15.31 46.02) rotate(-45)"/>
    <rect class="cls-2" x="49.2" y="34.81" width="1.9" height="2.5" transform="translate(-2.36 68.6) rotate(-67.5)"/>
    <rect class="cls-2" x="49.98" y="29.66" width="5" height="1.9"/>
    <rect class="cls-2" x="48.95" y="24.06" width="2.5" height="1.9" transform="translate(-5.75 21.11) rotate(-22.5)"/>
    <rect class="cls-2" x="24.92" y="16.78" width="1.9" height="5" transform="translate(-6.06 23.94) rotate(-45)"/>
    <rect class="cls-2" x="30.53" y="15.82" width="1.9" height="2.5" transform="translate(-4.14 13.35) rotate(-22.5)"/>
    <rect class="cls-2" x="23.62" y="40.38" width="5" height="1.9" transform="translate(-21.57 30.58) rotate(-45)"/>
    <rect class="cls-2" x="22.61" y="34.76" width="2.5" height="1.9" transform="translate(-11.85 11.85) rotate(-22.5)"/>
    <rect class="cls-2" x="18.99" y="29.31" width="5" height="1.9"/>
    <rect class="cls-2" x="22.87" y="23.6" width="1.9" height="2.5" transform="translate(-8.26 37.35) rotate(-67.5)"/>
    <rect class="cls-2" x="30.69" y="29.29" width="12.3" height="1.9" transform="translate(-6.81 49.39) rotate(-63.06)"/>
    <polygon class="cls-2" points="33.5 28.2 32.2 26.9 30.4 28.6 30.4 28.6 29.1 30 29.1 30 29.1 30 30.4 31.3 30.4 31.3 32.2 33 33.5 31.7 31.8 30 33.5 28.2"/>
    <polygon class="cls-2" points="40.8 28.2 42.1 26.9 43.9 28.6 43.9 28.6 45.2 30 45.2 30 45.2 30 43.9 31.3 43.9 31.3 42.1 33 40.8 31.7 42.5 30 40.8 28.2"/>
    <rect class="cls-2" x="33.8" y="40.8" width="1.9" height="4.4"/>
    <rect class="cls-2" x="38.1" y="40.8" width="1.9" height="4.4"/>
    <path class="cls-2" d="M41.7,48.5V45.3a1.79,1.79,0,0,0-1.8-1.8H38.1v1.6h.1c1.7,0,1.8.4,1.8,1.8v8.6h0v1.3a3.12,3.12,0,0,1-3.1,3.1h0a3.12,3.12,0,0,1-3.1-3.1V48.5h0V47c0-1.4.2-1.8,1.8-1.8h.1V43.6H33.9a1.79,1.79,0,0,0-1.8,1.8v3.2h0v8.3a4.69,4.69,0,0,0,4.7,4.7h0a4.69,4.69,0,0,0,4.7-4.7V55h0l.2-6.5Z"/>
    <rect class="cls-2" x="36" y="48" width="1.9" height="1.9"/>
    <rect class="cls-2" x="36" y="51.8" width="1.9" height="1.9"/>
    <rect class="cls-2" x="36" y="55.6" width="1.9" height="1.9"/>
  </g>
</svg>
