<?xml version="1.0" encoding="utf-8"?>
<!-- Generator: Adobe Illustrator 21.0.2, SVG Export Plug-In . SVG Version: 6.00 Build 0)  -->
<svg version="1.1" id="Layer_1" xmlns="http://www.w3.org/2000/svg" xmlns:xlink="http://www.w3.org/1999/xlink" x="0px" y="0px"
	 viewBox="0 0 75 75" style="enable-background:new 0 0 75 75;" xml:space="preserve">
<style type="text/css">
	.st0{fill:none;stroke:#006FAF;stroke-width:2;stroke-miterlimit:10;}
	.st1{fill:#0070AF;}
</style>
<circle class="st0" cx="37.5" cy="37.5" r="36"/>
<g>
	<path class="st1" d="M43.5,29.2c-0.3-0.5-0.7-0.9-1.2-1.4c-0.3-0.3-0.4-0.6-0.3-1.1c0.5-2,0-3.3-1.6-4.4c-1.4-1-2.8-1.2-4.4-0.3
		c-1.7,1.1-2.3,2.5-1.9,4.5c0.1,0.4,0.1,0.7-0.3,1c-1.1,0.8-1.6,2.1-1.9,3.4c-0.4,1.6,0.2,2.8,1.7,3.5c1.4,0.7,2.9,0.5,4.4,0.7
		c0.8-0.1,1.8-0.1,2.7-0.2C44.1,34.6,45.3,31.9,43.5,29.2z M40.7,33.3c-0.8,0.1-1.7,0-2.8,0c-0.9-0.1-2,0.2-3.1-0.2
		c-1.2-0.5-1.5-1.1-1-2.3c0.4-0.9,0.9-1.8,1.8-2.3c0.7-0.4,0.7-0.7,0.4-1.4c-0.8-1.7,0.1-3.2,1.9-3.4c0.9-0.1,1.6,0.2,2,1
		c0.5,0.9,0.7,1.7,0.1,2.6c-0.4,0.5-0.3,0.8,0.2,1.1c1,0.6,1.7,1.5,2,2.7C42.7,32.4,42.2,33.2,40.7,33.3z"/>
	<path class="st1" d="M55.7,47.4c-0.3-0.5-0.7-0.9-1.2-1.4c-0.3-0.3-0.4-0.6-0.3-1.1c0.5-2,0-3.3-1.6-4.4c-1.4-1-2.8-1.2-4.4-0.3
		c-1.7,1.1-2.3,2.5-1.9,4.5c0.1,0.4,0.1,0.7-0.3,1c-1.1,0.8-1.6,2.1-1.9,3.4c-0.4,1.6,0.2,2.8,1.7,3.5c1.4,0.7,2.9,0.5,4.4,0.7
		c0.8-0.1,1.8-0.1,2.7-0.2C56.2,52.9,57.5,50.1,55.7,47.4z M52.9,51.6c-0.8,0.1-1.7,0-2.8,0c-0.9-0.1-2,0.2-3.1-0.2
		c-1.2-0.5-1.5-1.1-1-2.3c0.4-0.9,0.9-1.8,1.8-2.3c0.7-0.4,0.7-0.7,0.4-1.4c-0.8-1.7,0.1-3.2,1.9-3.4c0.9-0.1,1.6,0.2,2,1
		c0.5,0.9,0.7,1.7,0.1,2.6c-0.4,0.5-0.3,0.8,0.2,1.1c1,0.6,1.7,1.5,2,2.7C54.8,50.7,54.3,51.5,52.9,51.6z"/>
	<path class="st1" d="M30.2,47.4c-0.3-0.5-0.7-0.9-1.2-1.4c-0.3-0.3-0.4-0.6-0.3-1.1c0.5-2,0-3.3-1.6-4.4c-1.4-1-2.8-1.2-4.4-0.3
		c-1.7,1.1-2.3,2.5-1.9,4.5c0.1,0.4,0.1,0.7-0.3,1c-1.1,0.8-1.6,2.1-1.9,3.4c-0.4,1.6,0.2,2.8,1.7,3.5c1.4,0.7,2.9,0.5,4.4,0.7
		c0.8-0.1,1.8-0.1,2.7-0.2C30.7,52.9,32,50.1,30.2,47.4z M27.3,51.6c-0.8,0.1-1.7,0-2.8,0c-0.9-0.1-2,0.2-3.1-0.2
		c-1.2-0.5-1.5-1.1-1-2.3c0.4-0.9,0.9-1.8,1.8-2.3c0.7-0.4,0.7-0.7,0.4-1.4c-0.8-1.7,0.1-3.2,1.9-3.4c0.9-0.1,1.6,0.2,2,1
		c0.5,0.9,0.7,1.7,0.1,2.6c-0.4,0.5-0.3,0.8,0.2,1.1c1,0.6,1.7,1.5,2,2.7C29.3,50.7,28.8,51.5,27.3,51.6z"/>
	<circle class="st1" cx="26.1" cy="37.6" r="1.1"/>
	<circle class="st1" cx="27.8" cy="35.7" r="1.1"/>
	<circle class="st1" cx="29.7" cy="33.6" r="1.1"/>
	<circle class="st1" cx="46.2" cy="33.4" r="1.1"/>
	<circle class="st1" cx="47.8" cy="35.5" r="1.1"/>
	<circle class="st1" cx="49.2" cy="37.6" r="1.1"/>
	<circle class="st1" cx="34.7" cy="51.1" r="1.1"/>
	<circle class="st1" cx="37.5" cy="51.1" r="1.1"/>
	<circle class="st1" cx="40.3" cy="51.1" r="1.1"/>
</g>
</svg>
