<?xml version="1.0" encoding="utf-8"?>
<!-- Generator: Adobe Illustrator 21.0.2, SVG Export Plug-In . SVG Version: 6.00 Build 0)  -->
<svg version="1.1" id="Layer_1" xmlns="http://www.w3.org/2000/svg" xmlns:xlink="http://www.w3.org/1999/xlink" x="0px" y="0px"
	 viewBox="0 0 74 74" style="enable-background:new 0 0 74 74;" xml:space="preserve">
<style type="text/css">
	.st0{fill:#006FAF;}
</style>
<title>Cloud &amp;amp; Infrastructure Services</title>
<path class="st0" d="M37,74C16.6,74,0,57.4,0,37C0,16.6,16.6,0,37,0c20.4,0,37,16.6,37,37C74,57.4,57.4,74,37,74z M37,2
	C17.7,2,2,17.7,2,37s15.7,35,35,35s35-15.7,35-35S56.3,2,37,2z"/>
<g>
	<g>
		<path class="st0" d="M33,54.2V51l1.4-1.4c0.2-0.2,0.3-0.4,0.3-0.6v-3h-7.3l-2.4-3.4c-0.2-0.3-0.5-0.4-0.8-0.4h-0.2
			c-0.6,0-1,0.5-1,1c0,0.2,0.1,0.4,0.2,0.5l4.2,6.8l0,3.7h-1.4v-3.3l-4-6.5c-0.2-0.4-0.4-0.8-0.4-1.3c0-1.3,1.1-2.4,2.4-2.4h0.2
			c0.8,0,1.5,0.4,2,1l2,2.8h8V49c0,0.6-0.2,1.2-0.7,1.6l-1,1v2.6H33z"/>
		<path class="st0" d="M34.3,54h-1.1v-3l1.3-1.3c0.2-0.2,0.3-0.5,0.3-0.7v-3.2h-7.4L25,42.4c-0.2-0.3-0.6-0.5-0.9-0.5h-0.2
			c-0.6,0-1.2,0.5-1.2,1.2c0,0.2,0.1,0.4,0.2,0.6l4.2,6.8V54H26v-3.1L22,44.3c-0.2-0.4-0.3-0.8-0.3-1.2c0-1.2,1-2.3,2.3-2.3h0.2
			c0.7,0,1.4,0.4,1.8,0.9l2.1,2.9h7.9v4.3c0,0.6-0.2,1.1-0.6,1.5l-1,1V54z"/>
	</g>
	<g>
		<path class="st0" d="M49.9,33.3c-0.8,0-1.5-0.4-2-1l-2-2.8h-8v-4.4c0-0.6,0.2-1.2,0.7-1.6l1-1v-2.6H41V23l-1.4,1.4
			c-0.2,0.2-0.3,0.4-0.3,0.6v3h7.3l2.4,3.4c0.2,0.3,0.5,0.4,0.8,0.4h0.2c0.6,0,1-0.5,1-1c0-0.2-0.1-0.4-0.1-0.5l-4.2-6.8l0-3.7h1.4
			v3.3l4,6.5c0.2,0.4,0.4,0.8,0.4,1.3c0,1.3-1.1,2.4-2.4,2.4H49.9z"/>
		<path class="st0" d="M50.1,33.2h-0.2c-0.7,0-1.4-0.4-1.8-0.9L46,29.3h-7.9v-4.3c0-0.6,0.2-1.1,0.6-1.5l1-1V20h1.1v3l-1.3,1.3
			c-0.2,0.2-0.3,0.5-0.3,0.7v3.2h7.4l2.4,3.4c0.2,0.3,0.6,0.5,0.9,0.5h0.2c0.6,0,1.2-0.5,1.2-1.2c0-0.2-0.1-0.4-0.2-0.6l-4.2-6.8V20
			H48v3.1l4.1,6.6c0.2,0.4,0.3,0.8,0.3,1.2C52.4,32.1,51.3,33.2,50.1,33.2z"/>
	</g>
	<g>
		<rect x="36.9" y="28.1" class="st0" width="3" height="1.4"/>
		<rect x="37" y="28.2" class="st0" width="2.7" height="1.1"/>
	</g>
	<g>
		<path class="st0" d="M34.1,45.9v-1.4h2.2v-4.4c0-0.5,0.3-0.9,0.7-1.1c0.2-0.1,0.4-0.1,0.6-0.1c0.3,0,0.5,0.1,0.7,0.2
			c0.4,0.3,0.9,0.5,1.5,0.5c0.8,0,1.5-0.3,2-1s0.7-1.4,0.5-2.2c-0.2-1-1-1.8-2-2c-0.2,0-0.4-0.1-0.6-0.1c-0.5,0-1.1,0.2-1.5,0.5
			c-0.2,0.1-0.5,0.2-0.7,0.2c-0.2,0-0.4,0-0.6-0.1c-0.4-0.2-0.7-0.6-0.7-1.1v-4.4h-4.1c0.5,0.9,0.7,1.9,0.5,2.9
			c-0.3,1.5-1.5,2.7-3,3c-0.3,0.1-0.6,0.1-0.9,0.1c-0.9,0-1.8-0.3-2.5-0.9c-0.9-0.8-1.5-1.9-1.5-3.1c0-0.7,0.2-1.4,0.6-2l-4.1,0
			v15.1h2.2v1.4h-3.6V28.1h5.8c0.5,0,0.9,0.3,1.1,0.7c0.2,0.4,0.2,0.9-0.1,1.3c-0.3,0.4-0.5,0.9-0.5,1.5c0,0.8,0.4,1.5,1,2
			c0.5,0.4,1,0.6,1.6,0.6c0.2,0,0.4,0,0.6-0.1c1-0.2,1.8-1,2-2c0.2-0.7,0-1.5-0.4-2.1c-0.3-0.4-0.3-0.9-0.1-1.3
			c0.2-0.4,0.6-0.7,1.1-0.7h5.8v5.5c0.6-0.4,1.3-0.6,2-0.6c0.3,0,0.6,0,0.9,0.1c1.5,0.3,2.7,1.5,3,3c0.3,1.2,0,2.4-0.8,3.4
			c-0.8,0.9-1.9,1.5-3.1,1.5c-0.7,0-1.4-0.2-2-0.6l0,5.5H34.1z"/>
		<path class="st0" d="M37.5,45.8h-3.3v-1.1h2.2v-4.5c0-0.4,0.2-0.8,0.6-1c0.4-0.2,0.8-0.2,1.2,0.1c0.5,0.3,1,0.5,1.6,0.5
			c0.8,0,1.6-0.4,2.1-1c0.5-0.6,0.7-1.5,0.5-2.3c-0.2-1-1-1.9-2.1-2.1c-0.8-0.2-1.6,0-2.2,0.4C37.8,35,37.4,35,37,34.8
			c-0.4-0.2-0.6-0.6-0.6-1v-4.5h-4.5c0.6,0.9,0.8,2,0.6,3c-0.3,1.4-1.5,2.6-2.9,2.9c-1.2,0.2-2.3,0-3.2-0.8c-0.9-0.7-1.4-1.8-1.4-3
			c0-0.8,0.2-1.5,0.7-2.2l-4.5,0v15.4h2.2v1.1H20V28.2h5.6c0.4,0,0.8,0.2,1,0.6c0.2,0.4,0.2,0.8-0.1,1.2c-0.3,0.5-0.5,1-0.5,1.6
			c0,0.8,0.4,1.6,1,2.1c0.6,0.5,1.5,0.7,2.3,0.5c1-0.2,1.9-1,2.1-2.1c0.2-0.8,0-1.6-0.4-2.2c-0.2-0.3-0.3-0.8-0.1-1.1
			c0.2-0.4,0.6-0.6,1-0.6h5.6v5.6c0.9-0.6,2-0.8,3-0.6c1.4,0.3,2.6,1.5,2.9,2.9c0.2,1.2,0,2.3-0.8,3.2c-0.7,0.9-1.8,1.4-3,1.4
			c-0.8,0-1.5-0.2-2.2-0.7L37.5,45.8z"/>
	</g>
	<g>
		<path class="st0" d="M48.9,45.9c-0.5,0-0.9-0.3-1.1-0.7c-0.2-0.4-0.2-0.9,0.1-1.3c0.3-0.4,0.5-0.9,0.5-1.5c0-0.8-0.3-1.5-1-2
			c-0.5-0.4-1-0.6-1.6-0.6c-0.2,0-0.4,0-0.6,0.1c-1,0.2-1.8,1-2,2c-0.2,0.7,0,1.5,0.4,2.1c0.3,0.4,0.3,0.9,0.1,1.3
			c-0.2,0.4-0.6,0.7-1.1,0.7h-5.8v-1.4h5.5c-0.5-0.9-0.7-1.9-0.5-2.9c0.3-1.5,1.5-2.7,3-3c0.3-0.1,0.6-0.1,0.9-0.1
			c0.9,0,1.8,0.3,2.5,0.9c0.9,0.8,1.5,1.9,1.5,3.1c0,0.7-0.2,1.4-0.6,2l3.5,0V29.5h-2.2v-1.4h3.6v17.8H48.9z"/>
		<path class="st0" d="M54,45.8h-5.1c-0.4,0-0.8-0.2-1-0.6c-0.2-0.4-0.2-0.8,0.1-1.2c0.3-0.5,0.5-1,0.5-1.6c0-0.8-0.4-1.6-1-2.1
			c-0.6-0.5-1.5-0.7-2.3-0.5c-1,0.2-1.9,1-2.1,2.1c-0.2,0.8,0,1.6,0.4,2.2c0.2,0.3,0.3,0.8,0.1,1.1c-0.2,0.4-0.6,0.6-1,0.6H37v-1.1
			h5.6c-0.6-0.9-0.8-2-0.6-3c0.3-1.4,1.5-2.6,2.9-2.9c1.2-0.2,2.3,0,3.2,0.8c0.9,0.7,1.4,1.8,1.4,3c0,0.8-0.2,1.5-0.7,2.2l4,0V29.3
			h-2.2v-1.1H54V45.8z"/>
	</g>
</g>
</svg>
