<?xml version="1.0" encoding="utf-8"?>
<!-- Generator: Adobe Illustrator 21.0.2, SVG Export Plug-In . SVG Version: 6.00 Build 0)  -->
<svg version="1.1" id="Layer_1" xmlns="http://www.w3.org/2000/svg" xmlns:xlink="http://www.w3.org/1999/xlink" x="0px" y="0px"
	 viewBox="0 0 74 74" style="enable-background:new 0 0 74 74;" xml:space="preserve">
<style type="text/css">
	.st0{fill:#006FAF;}
</style>
<title>digital-transformation</title>
<path class="st0" d="M37,74C16.6,74,0,57.4,0,37C0,16.6,16.6,0,37,0c20.4,0,37,16.6,37,37C74,57.4,57.4,74,37,74z M37,2
	C17.7,2,2,17.7,2,37s15.7,35,35,35s35-15.7,35-35S56.3,2,37,2z"/>
<g>
	<path class="st0" d="M54.6,46.9L54.6,46.9L39.5,20.7c-0.8-1.4-2.5-1.8-3.9-1c-0.4,0.2-0.8,0.6-1,1L19.4,46.9l0,0
		c-0.7,1.2-0.4,4.4,0.6,6.1c0.9,1.5,2,1.7,2.6,1.7h28.9c0.6,0,1.7-0.2,2.6-1.7C55,51.3,55.3,48.2,54.6,46.9z M52.5,48.1L52.5,48.1
		L52.5,48.1L52.5,48.1L52.5,48.1L52.5,48.1z M36.7,21.9c0.1-0.2,0.4-0.3,0.6-0.1c0.1,0,0.1,0.1,0.1,0.1l15.2,26.2
		c0,0.1,0,0.2,0.1,0.3c0,0.5-0.4,0.9-0.9,0.9H22.4c-0.5,0-0.9-0.4-0.9-0.9c0-0.1,0-0.2,0.1-0.3L36.7,21.9z M21.5,48.1L21.5,48.1
		L21.5,48.1L21.5,48.1L21.5,48.1L21.5,48.1z M51.4,52.3H22.6c-0.2-0.1-0.3-0.2-0.4-0.3c-0.3-0.5-0.5-1.1-0.6-1.6
		c0.3,0.1,0.5,0.2,0.8,0.2h29.2c0.3,0,0.5-0.1,0.8-0.2c-0.1,0.6-0.3,1.1-0.6,1.6C51.7,52.2,51.6,52.3,51.4,52.3z"/>
	<path class="st0" d="M31.2,42.2c0,0,1.6,2.5,1.7,2.6l0,0c0.2,0.3,0.4,0.6,0.6,0.8c0,0,0,0,0.1,0.1c0.3,0.3,0.6,0.6,1,0.9
		c1.1,0.7,2.5,0.9,3.8,0.6c2.2-0.5,3.8-2.4,3.9-4.6v-0.4l0,0v-6.8c0-0.5-0.4-0.9-1-0.9c-0.5,0-0.9,0.4-0.9,0.9v3.1
		c0,0.1-0.1,0.2-0.2,0.2c-0.1,0-0.2-0.1-0.2-0.2v-4.7c0-0.5-0.4-1-1-1c-0.5,0-1,0.4-1,1c0,0,0,0,0,0V38c0,0.1-0.1,0.2-0.2,0.2
		c-0.1,0-0.2-0.1-0.2-0.2v-5.4c0-0.5-0.4-1-1-1c-0.5,0-1,0.4-1,1c0,0,0,0,0,0v5.4c0,0.1-0.1,0.2-0.2,0.2c-0.1,0-0.2-0.1-0.2-0.2l0,0
		v-4.7c0-0.5-0.4-1-1-1c-0.5,0-1,0.4-1,1c0,0,0,0,0,0V41c0,0.1-0.1,0.2-0.2,0.2c0,0-0.1,0-0.1-0.1L31.6,39c-0.3-0.5-0.9-0.6-1.4-0.4
		c-0.5,0.3-0.6,0.9-0.4,1.4l0,0L31.2,42.2z"/>
</g>
</svg>
