<?xml version="1.0" encoding="utf-8"?>
<!-- Generator: Adobe Illustrator 21.0.2, SVG Export Plug-In . SVG Version: 6.00 Build 0)  -->
<svg version="1.1" id="Layer_1" xmlns="http://www.w3.org/2000/svg" xmlns:xlink="http://www.w3.org/1999/xlink" x="0px" y="0px"
	 viewBox="0 0 74 74" style="enable-background:new 0 0 74 74;" xml:space="preserve">
<style type="text/css">
	.st0{fill:none;stroke:#006FAF;stroke-width:2;stroke-miterlimit:10;}
	.st1{fill:#006FAF;}
	.st2{fill:none;stroke:#006FAF;stroke-width:2;stroke-linecap:round;stroke-miterlimit:10;}
</style>
<title>Cloud &amp;amp; Infrastructure Services</title>
<circle class="st0" cx="37" cy="37" r="36"/>
<g>
	<path class="st1" d="M39.8,37c0-0.8-0.3-1.4-0.8-2c-0.6-0.6-1.2-0.8-2-0.8s-1.4,0.3-2,0.8c-0.6,0.6-0.8,1.2-0.8,2s0.3,1.4,0.8,2
		c0.6,0.6,1.2,0.8,2,0.8s1.4-0.3,2-0.8C39.6,38.4,39.8,37.8,39.8,37z M45.5,35.8v2.5c0,0.1,0,0.2-0.1,0.3c-0.1,0.1-0.1,0.1-0.2,0.1
		l-2,0.3c-0.1,0.4-0.3,0.7-0.4,1c0.3,0.4,0.7,0.9,1.2,1.5c0.1,0.1,0.1,0.2,0.1,0.3c0,0.1,0,0.2-0.1,0.3c-0.2,0.3-0.6,0.7-1.1,1.2
		s-0.9,0.8-1,0.8c-0.1,0-0.2,0-0.3-0.1L40,42.7c-0.3,0.2-0.7,0.3-1,0.4c-0.1,1-0.2,1.7-0.3,2.1c-0.1,0.2-0.2,0.3-0.4,0.3h-2.5
		c-0.1,0-0.2,0-0.3-0.1c-0.1-0.1-0.1-0.1-0.1-0.2l-0.3-2c-0.4-0.1-0.7-0.3-1-0.4l-1.6,1.2C32.4,44,32.3,44,32.2,44
		c-0.1,0-0.2,0-0.3-0.1C31,43,30.4,42.4,30.1,42C30.1,42,30,41.9,30,41.8c0-0.1,0-0.2,0.1-0.3c0.1-0.2,0.3-0.4,0.6-0.7
		c0.3-0.3,0.5-0.6,0.6-0.8c-0.2-0.4-0.4-0.7-0.5-1.1l-2-0.3c-0.1,0-0.2-0.1-0.2-0.1c-0.1-0.1-0.1-0.2-0.1-0.3v-2.5
		c0-0.1,0-0.2,0.1-0.3c0.1-0.1,0.1-0.1,0.2-0.1l2.1-0.3c0.1-0.3,0.2-0.7,0.4-1c-0.3-0.4-0.7-0.9-1.2-1.5C30,32.4,30,32.3,30,32.2
		c0-0.1,0-0.2,0.1-0.3c0.2-0.3,0.6-0.7,1.1-1.2c0.5-0.5,0.9-0.8,1-0.8c0.1,0,0.2,0,0.3,0.1l1.5,1.2c0.3-0.2,0.7-0.3,1-0.4
		c0.1-1,0.2-1.7,0.3-2.1c0.1-0.2,0.2-0.3,0.4-0.3h2.5c0.1,0,0.2,0,0.3,0.1c0.1,0.1,0.1,0.1,0.1,0.2l0.3,2c0.4,0.1,0.7,0.3,1,0.4
		l1.6-1.2c0.1-0.1,0.2-0.1,0.3-0.1c0.1,0,0.2,0,0.3,0.1c1,0.9,1.6,1.5,1.8,1.9c0.1,0.1,0.1,0.1,0.1,0.2c0,0.1,0,0.2-0.1,0.3
		c-0.1,0.2-0.3,0.4-0.6,0.7s-0.5,0.6-0.6,0.8c0.2,0.4,0.3,0.7,0.5,1.1l2,0.3c0.1,0,0.2,0.1,0.2,0.1C45.5,35.6,45.5,35.7,45.5,35.8z"
		/>
	<g>
		<line class="st2" x1="22.6" y1="30.3" x2="22.6" y2="22.6"/>
		<line class="st2" x1="22.6" y1="30.3" x2="22.6" y2="22.6"/>
		<line class="st2" x1="30.4" y1="22.6" x2="22.7" y2="22.6"/>
	</g>
	<g>
		<line class="st2" x1="30.3" y1="51.4" x2="22.7" y2="51.4"/>
		<line class="st2" x1="30.3" y1="51.4" x2="22.7" y2="51.4"/>
		<line class="st2" x1="22.7" y1="43.5" x2="22.7" y2="51.2"/>
	</g>
	<g>
		<line class="st2" x1="51.4" y1="30.3" x2="51.4" y2="22.6"/>
		<line class="st2" x1="51.4" y1="30.3" x2="51.4" y2="22.6"/>
		<line class="st2" x1="43.6" y1="22.6" x2="51.3" y2="22.6"/>
	</g>
	<g>
		<line class="st2" x1="43.7" y1="51.4" x2="51.3" y2="51.4"/>
		<line class="st2" x1="43.7" y1="51.4" x2="51.3" y2="51.4"/>
		<line class="st2" x1="51.3" y1="43.5" x2="51.3" y2="51.2"/>
	</g>
</g>
</svg>
