<?xml version="1.0" encoding="utf-8"?>
<!-- Generator: Adobe Illustrator 21.0.0, SVG Export Plug-In . SVG Version: 6.00 Build 0)  -->
<svg version="1.1" id="Layer_1" xmlns="http://www.w3.org/2000/svg" xmlns:xlink="http://www.w3.org/1999/xlink" x="0px" y="0px"
	 viewBox="0 0 74 74" style="enable-background:new 0 0 74 74;" xml:space="preserve">
<style type="text/css">
	.st0{fill:none;stroke:#006FAF;stroke-width:2;stroke-miterlimit:10;}
	.st1{fill:#006FAF;}
</style>
<title>Azure_Site_Recovery</title>
<circle class="st0" cx="37.1" cy="37" r="36"/>
<g>
	<g>
		<path class="st1" d="M38.2,34.4c-0.4,0.4-0.4,1.1,0,1.6c1.8,1.8,1.8,4.8,0,6.6l-9.5,9.5c-1.8,1.8-4.8,1.8-6.6,0l-1.4-1.4
			c-1.8-1.8-1.8-4.8,0-6.6l9.5-9.5c0.4-0.4,0.4-1.1,0-1.6c-0.4-0.4-1.1-0.4-1.6,0l-9.5,9.5c-1.3,1.3-2,3-2,4.9c0,1.8,0.7,3.6,2,4.9
			l1.4,1.4c1.3,1.3,3.1,2,4.9,2s3.5-0.7,4.9-2l9.5-9.5c2.7-2.7,2.7-7.1,0-9.7C39.4,33.9,38.7,33.9,38.2,34.4z"/>
		<path class="st1" d="M55.1,21.9l-1.4-1.4c-2.7-2.7-7.1-2.7-9.7,0l-9.5,9.5c-2.7,2.7-2.7,7.1,0,9.7c0.4,0.4,1.1,0.4,1.6,0
			c0.4-0.4,0.4-1.1,0-1.6c-1.8-1.8-1.8-4.8,0-6.6l9.5-9.5c1.8-1.8,4.8-1.8,6.6,0l1.4,1.4c1.8,1.8,1.8,4.8,0,6.6L44,39.5
			c-0.4,0.4-0.4,1.1,0,1.6c0.2,0.2,0.5,0.3,0.8,0.3c0.3,0,0.6-0.1,0.8-0.3l9.5-9.5c1.3-1.3,2-3,2-4.9S56.4,23.2,55.1,21.9z"/>
	</g>
</g>
</svg>
