<?xml version="1.0" encoding="utf-8"?>
<!-- Generator: Adobe Illustrator 21.0.2, SVG Export Plug-In . SVG Version: 6.00 Build 0)  -->
<svg version="1.1" id="Layer_1" xmlns="http://www.w3.org/2000/svg" xmlns:xlink="http://www.w3.org/1999/xlink" x="0px" y="0px"
	 viewBox="0 0 74 74" style="enable-background:new 0 0 74 74;" xml:space="preserve">
<style type="text/css">
	.st0{fill:none;stroke:#006FAF;stroke-width:2;stroke-miterlimit:10;}
	.st1{fill:#006FAF;}
</style>
<title>Cloud &amp;amp; Infrastructure Services</title>
<circle class="st0" cx="37" cy="37" r="36"/>
<g>
	<g>
		<rect x="36.1" y="22.2" class="st1" width="1.3" height="1.2"/>
		<rect x="33.9" y="50.5" class="st1" width="5.9" height="1.2"/>
		<path class="st1" d="M43.9,54.7H30.1c-1.7,0-3-1.3-3-3V22.3c0-1.7,1.4-3,3-3h13.8c1.7,0,3,1.4,3,3v29.4
			C46.9,53.4,45.6,54.7,43.9,54.7z M30.1,20.5c-1,0-1.8,0.9-1.8,1.8v29.4c0,1,0.9,1.8,1.8,1.8h13.8c1,0,1.8-0.9,1.8-1.8V22.3
			c0-1-0.9-1.8-1.8-1.8H30.1z"/>
		<rect x="27.6" y="25.1" class="st1" width="18.8" height="1.2"/>
		<rect x="27.6" y="47.7" class="st1" width="18.8" height="1.2"/>
		<g>
			<g>
				<path class="st1" d="M33.7,31.8h-3.8V28h3.8V31.8z M31.1,30.6h1.2v-1.2h-1.2V30.6z"/>
				<path class="st1" d="M38.9,31.8h-3.8V28h3.8V31.8z M36.3,30.6h1.2v-1.2h-1.2V30.6z"/>
				<path class="st1" d="M44.1,31.8h-3.8V28h3.8V31.8z M41.5,30.6h1.2v-1.2h-1.2V30.6z"/>
			</g>
			<g>
				<path class="st1" d="M33.7,36.5h-3.8v-3.8h3.8V36.5z M31.1,35.3h1.2v-1.2h-1.2V35.3z"/>
				<path class="st1" d="M38.9,36.5h-3.8v-3.8h3.8V36.5L38.9,36.5z M36.3,35.3h1.2v-1.2h-1.2V35.3z"/>
			</g>
			<g>
				<path class="st1" d="M33.7,46h-3.8v-3.8h3.8V46z M31.1,44.8h1.2v-1.2h-1.2V44.8z"/>
				<path class="st1" d="M38.9,46h-3.8v-3.8h3.8V46z M36.3,44.8h1.2v-1.2h-1.2V44.8z"/>
				<path class="st1" d="M44.1,46h-3.8v-3.8h3.8V46z M41.5,44.8h1.2v-1.2h-1.2V44.8z"/>
			</g>
		</g>
	</g>
	<g>
		<path class="st1" d="M25.3,29.2H24V28h1.2V29.2z M22.7,29.2h-1.2V28h1.2V29.2L22.7,29.2z"/>
		<rect x="19" y="28" class="st1" width="1.2" height="1.2"/>
		<path class="st1" d="M20.2,43.5H19v-1.2h1.2V43.5z M20.2,41.2H19v-1.2h1.2V41.2z M20.2,38.8H19v-1.2h1.2V38.8z M20.2,36.4H19v-1.2
			h1.2V36.4z M20.2,34.1H19v-1.2h1.2V34.1z M20.2,31.6H19v-1.2h1.2V31.6z"/>
		<rect x="19" y="44.8" class="st1" width="1.2" height="1.2"/>
		<path class="st1" d="M25.3,46H24v-1.2h1.2V46z M22.7,46h-1.2v-1.2h1.2V46z"/>
	</g>
	<g>
		<rect x="48.5" y="28" class="st1" width="6.5" height="1.2"/>
		<rect x="48.5" y="30.4" class="st1" width="6.5" height="1.2"/>
		<rect x="48.5" y="32.8" class="st1" width="6.5" height="1.2"/>
		<rect x="48.5" y="35.2" class="st1" width="6.5" height="1.2"/>
		<rect x="48.5" y="37.6" class="st1" width="6.5" height="1.2"/>
		<rect x="48.5" y="39.9" class="st1" width="6.5" height="1.2"/>
		<rect x="48.5" y="42.4" class="st1" width="6.5" height="1.2"/>
		<rect x="48.5" y="44.8" class="st1" width="6.5" height="1.2"/>
	</g>
</g>
</svg>
