<?xml version="1.0" encoding="utf-8"?>
<!-- Generator: Adobe Illustrator 21.0.2, SVG Export Plug-In . SVG Version: 6.00 Build 0)  -->
<svg version="1.1" id="Layer_1" xmlns="http://www.w3.org/2000/svg" xmlns:xlink="http://www.w3.org/1999/xlink" x="0px" y="0px"
	 viewBox="0 0 74 74" style="enable-background:new 0 0 74 74;" xml:space="preserve">
<style type="text/css">
	.st0{fill:none;stroke:#006FAF;stroke-width:2;stroke-miterlimit:10;}
	.st1{fill:none;}
	.st2{fill:#006FAF;}
</style>
<title>Cloud &amp;amp; Infrastructure Services</title>
<circle class="st0" cx="37" cy="37" r="36"/>
<rect x="20" y="20" class="st1" width="34" height="34"/>
<rect x="20" y="20" class="st1" width="34" height="34"/>
<g>
	<path class="st2" d="M25.9,28.2l-0.8-0.8l-1.8,1.8v-3.3c0-1.7,1.4-3.1,3.1-3.1h5.8v-1.1h-5.7c-2.3,0-4.2,1.9-4.2,4.2v3.3l-1.8-1.8
		l-0.8,0.8l3.1,3.1L25.9,28.2z"/>
	<path class="st2" d="M28.1,49.5l1.8,1.8h-3.3c-1.7,0-3.1-1.4-3.1-3.1v-5.8h-1.1v5.8c0,2.3,1.9,4.2,4.2,4.2h3.3l-1.8,1.8l0.8,0.8
		l3.1-3.1l-3.1-3.1L28.1,49.5z"/>
	<path class="st2" d="M45.9,24.5l-1.8-1.8h3.3c1.7,0,3.1,1.4,3.1,3.1v5.8h1.1v-5.8c0-2.3-1.9-4.2-4.2-4.2h-3.3l1.8-1.8l-0.8-0.7
		L42,22.2l3.1,3.1L45.9,24.5z"/>
	<path class="st2" d="M51.2,42.8L51.2,42.8l-3.1,3l0.8,0.8l1.8-1.8v3.3c0,1.7-1.4,3.1-3.1,3.1h-5.8v1.1h5.8c2.3,0,4.2-1.9,4.2-4.2
		v-3.3l1.8,1.8l0.8-0.8L51.2,42.8z"/>
	<path class="st2" d="M45.7,43.1l-1.3-1.8c0.4-0.6,0.7-1.4,0.9-2.2l2.1-0.4v-3.5l-2.1-0.4c-0.2-0.8-0.5-1.5-0.9-2.2l1.2-1.8
		l-2.5-2.5l-1.8,1.3c-0.7-0.4-1.5-0.7-2.2-0.9l-0.4-2.1h-3.5l-0.4,2.1c-0.8,0.2-1.5,0.5-2.2,0.9l-1.8-1.2l-2.5,2.5l1.3,1.8
		c-0.4,0.7-0.7,1.5-0.9,2.2l-2.1,0.4v3.5l2.1,0.4c0.2,0.8,0.5,1.5,0.9,2.2l-1.2,1.8l2.5,2.5l1.8-1.3c0.6,0.4,1.4,0.7,2.2,0.9
		l0.4,2.1h3.5l0.4-2.1c0.8-0.2,1.5-0.5,2.2-0.9l1.8,1.2L45.7,43.1z M37.9,46.4h-1.7l-0.4-2l-0.4-0.1c-0.8-0.1-1.6-0.5-2.5-1
		l-0.3-0.2L31,44.2L29.7,43l1.1-1.7L30.6,41c-0.5-0.8-0.9-1.6-1.1-2.5v-0.3l-2-0.3v-1.7l2-0.4l0.1-0.4c0.1-0.8,0.5-1.6,1-2.5
		l0.2-0.3L29.8,31l1.2-1.3l1.7,1.1l0.3-0.2c0.8-0.5,1.6-0.9,2.5-1.1l0.4-0.1l0.4-2h1.7l0.4,1.9l0.3,0.1c1,0.2,1.8,0.6,2.5,1l0.3,0.2
		l1.7-1.1l1.3,1.2l-1.3,1.8l0.2,0.3c0.5,0.8,0.9,1.6,1.1,2.5l0.1,0.4l2,0.4v1.7l-1.9,0.4l-0.1,0.3c-0.2,1-0.6,1.8-1,2.5l-0.2,0.3
		l1.1,1.7l-1.2,1.3l-1.7-1.2l-0.3,0.2c-0.8,0.5-1.6,0.9-2.5,1.1l-0.4,0.1L37.9,46.4z"/>
	<path class="st2" d="M41.6,37c0-2.6-2.1-4.6-4.6-4.6c-1.2,0-2.4,0.5-3.3,1.4c-0.9,0.9-1.3,2-1.3,3.3c0,2.6,2.1,4.6,4.6,4.6
		c1.2,0,2.4-0.5,3.3-1.4C41.2,39.4,41.6,38.2,41.6,37z M40.7,37c-0.1,1-0.5,1.9-1.1,2.5c-0.7,0.7-1.6,1-2.5,1c-2,0-3.6-1.6-3.6-3.6
		c0-0.9,0.4-1.8,1-2.5c0.7-0.7,1.6-1,2.6-1C39.1,33.4,40.7,35,40.7,37z"/>
</g>
</svg>
