<?xml version="1.0" encoding="utf-8"?>
<!-- Generator: Adobe Illustrator 21.0.2, SVG Export Plug-In . SVG Version: 6.00 Build 0)  -->
<svg version="1.1" id="Layer_1" xmlns="http://www.w3.org/2000/svg" xmlns:xlink="http://www.w3.org/1999/xlink" x="0px" y="0px"
	 viewBox="0 0 74 74" style="enable-background:new 0 0 74 74;" xml:space="preserve">
<style type="text/css">
	.st0{fill:#006FAF;}
</style>
<title>Cloud &amp;amp; Infrastructure Services</title>
<path class="st0" d="M37,74C16.6,74,0,57.4,0,37C0,16.6,16.6,0,37,0c20.4,0,37,16.6,37,37C74,57.4,57.4,74,37,74z M37,2
	C17.7,2,2,17.7,2,37s15.7,35,35,35s35-15.7,35-35S56.3,2,37,2z"/>
<g>
	<rect x="34.4" y="25.7" class="st0" width="10.8" height="1.3"/>
	<rect x="31.8" y="29.9" class="st0" width="16" height="1.3"/>
	<rect x="31.8" y="34.1" class="st0" width="16" height="1.3"/>
	<path class="st0" d="M52.7,49.6l-0.9,0.9l1,1H41.9v-9h2.6v5.3h4.3l-1,1l0.9,0.9l2.4-2.6l-2.4-2.6l-0.9,0.9l1,1h-3v-4h2v-2.5h3v-18
		l-4.5-4.5H28.8V20h-2.7v22.5h2v4h-3l1-1l-0.9-0.9l-2.4,2.6l2.4,2.6l0.9-0.9l-1-1h4.3v-5.3h2.6v9H21.1l1.1-1.1l-0.9-0.9l-2.6,2.6
		l2.6,2.6l0.9-0.9l-1.1-1h12.2V42.5h3v11.8l-1.2-1.2L34.3,54l2.7,2.7l2.7-2.7l-0.9-0.9l-1.2,1.2V42.5h3v10.3h12.2l-1,1l0.9,0.9
		l2.6-2.6L52.7,49.6z M48.6,21.5h-1.9v-1.9L48.6,21.5z M49.5,22.8v15.8H30.1v-20h15.2v4.1H49.5z M27.5,21.2h1.4v18.6h17.7v1.4H27.5
		V21.2z"/>
</g>
</svg>
