<?xml version="1.0" encoding="utf-8"?>
<!-- Generator: Adobe Illustrator 21.0.2, SVG Export Plug-In . SVG Version: 6.00 Build 0)  -->
<svg version="1.1" id="Layer_1" xmlns="http://www.w3.org/2000/svg" xmlns:xlink="http://www.w3.org/1999/xlink" x="0px" y="0px"
	 viewBox="0 0 74 74" style="enable-background:new 0 0 74 74;" xml:space="preserve">
<style type="text/css">
	.st0{fill:none;stroke:#006FAF;stroke-width:2;stroke-miterlimit:10;}
	.st1{fill:#006FAF;}
	.st2{fill:#0070AF;}
</style>
<title>Cloud &amp;amp; Infrastructure Services</title>
<circle class="st0" cx="37" cy="37" r="36"/>
<g>
	<path class="st1" d="M21.4,25.5v2.4L20,26.5l-1.4,1.4l3.8,3.8l3.8-3.8l-1.4-1.4l-1.4,1.4v-2.4c0-1.5,1.3-2.8,2.8-2.8h6.4v-2h-6.3
		C23.5,20.8,21.4,22.9,21.4,25.5z"/>
	<path class="st1" d="M27.2,49.9l1.5,1.5h-2.4c-1.5,0-2.8-1.3-2.8-2.8v-6.4h-2v6.4c0,2.6,2.1,4.7,4.7,4.7h2.4l-1.4,1.4l1.4,1.4
		l3.8-3.8l-3.8-3.8L27.2,49.9z"/>
	<path class="st1" d="M46.8,24.1l-1.4-1.4h2.4c1.5,0,2.8,1.3,2.8,2.8v6.4h2v-6.4c0-2.6-2.1-4.7-4.7-4.7h-2.4l1.5-1.5L45.3,18
		l-3.8,3.8l3.8,3.8L46.8,24.1z"/>
	<path class="st1" d="M51.7,42.4l-3.8,3.7l1.4,1.4l1.4-1.4v2.4c0,1.5-1.3,2.8-2.8,2.8h-6.4v2h6.4c2.6,0,4.7-2.1,4.7-4.7V46l1.4,1.4
		l1.4-1.4L51.7,42.4z"/>
</g>
<path class="st2" d="M37,43.8c-0.4,0-0.8-0.3-0.9-0.8l-2-9l-0.9,1.7c-0.2,0.3-0.5,0.5-0.9,0.5L27,36.3c-0.6,0-1-0.4-1-1
	c0-0.6,0.4-1,1-1l4.6-0.1l2-3.5c0.2-0.3,0.5-0.5,0.9-0.5c0,0,0.1,0,0.1,0c0.4,0.1,0.7,0.4,0.8,0.8l1.9,8.5l1.2-3
	c0.1-0.3,0.4-0.6,0.8-0.6c0.1,0,0.1,0,0.2,0c0.3,0,0.6,0.1,0.8,0.4l1.1,1.3l1.7-2.6c0.2-0.3,0.5-0.5,0.8-0.5l3.1,0c0.6,0,1,0.4,1,1
	c0,0.6-0.4,1-1,1l-2.5,0l-2.2,3.3c-0.2,0.3-0.5,0.4-0.8,0.5c0,0,0,0,0,0c-0.4,0-0.6-0.1-0.8-0.4l-0.9-1.1L38,43.2
	C37.9,43.5,37.5,43.8,37,43.8L37,43.8z"/>
</svg>
