<?xml version="1.0" encoding="utf-8"?>
<!-- Generator: Adobe Illustrator 21.0.0, SVG Export Plug-In . SVG Version: 6.00 Build 0)  -->
<svg version="1.1" id="Layer_1" xmlns="http://www.w3.org/2000/svg" xmlns:xlink="http://www.w3.org/1999/xlink" x="0px" y="0px"
	 viewBox="0 0 74 74" style="enable-background:new 0 0 74 74;" xml:space="preserve">
<style type="text/css">
	.st0{fill:none;stroke:#006FAF;stroke-width:2;stroke-miterlimit:10;}
	.st1{fill-rule:evenodd;clip-rule:evenodd;fill:#006FAF;}
	.st2{fill:#006FAF;}
</style>
<title>anti-virus-management</title>
<g id="support">
</g>
<g>
	<circle class="st0" cx="37" cy="37" r="36"/>
	<path class="st1" d="M33.4,41.3c0-3.9,0-3.9,0-3.9c7.3,0,7.3,0,7.3,0c0,3.9,0,3.9,0,3.9c-1.3,0.5-1.8,1.4-1.8,2.4
		c0,1.4,1,2.6,2.6,2.6c1.6,0,2.9-1.2,2.9-2.6c0-1-0.8-1.9-1.8-2.4c0-3.9,0-3.9,0-3.9l0,0c0-1.9,0-1.9,0-1.9c-4.7,0-4.7,0-4.7,0
		c0-2.9,0-2.9,0-2.9c1-0.5,1.8-1.4,1.8-2.4c0-1.4-1-2.6-2.6-2.6s-2.9,1.2-2.9,2.6c0,1,0.8,1.9,1.8,2.2c0,3.1,0,3.1,0,3.1
		c-4.4,0-4.4,0-4.4,0c0,1.7,0,1.7,0,1.7c0,0.2,0,0.2,0,0.2c0,3.9,0,3.9,0,3.9c-1,0.5-1.8,1.4-1.8,2.4c0,1.4,1.3,2.6,2.9,2.6
		c1.6,0,2.6-1.2,2.6-2.6C35.2,42.8,34.7,41.8,33.4,41.3L33.4,41.3z M33.4,43.7c0,0.5-0.3,1-0.8,1c-0.5,0-0.8-0.5-0.8-1
		s0.3-0.7,0.8-0.7C33.1,43,33.4,43.3,33.4,43.7L33.4,43.7z M42.2,43.7c0,0.5-0.3,0.7-0.8,0.7c-0.5,0-0.8-0.2-0.8-0.7
		s0.3-0.7,0.8-0.7C41.9,43,42.2,43.3,42.2,43.7L42.2,43.7z M37,31c-0.5,0-0.8-0.2-0.8-0.7c0-0.5,0.3-1,0.8-1c0.5,0,0.8,0.5,0.8,1
		C37.8,30.7,37.5,31,37,31L37,31z"/>
	<path class="st2" d="M34.6,57.5c-0.2,0-0.5-0.1-0.6-0.3c-0.2-0.2-0.3-0.4-0.3-0.6v-4.1l-0.2,0c-0.5-0.1-0.9-0.2-1.4-0.4l-0.2-0.1
		l-2,3.5c-0.1,0.1-0.3,0.2-0.4,0.3c-0.1,0.1-0.2,0.1-0.4,0.1c-0.1,0-0.2,0-0.3-0.1l-4-2.3c-0.4-0.2-0.6-0.8-0.3-1.2l2-3.5l-0.2-0.1
		c-0.4-0.2-0.7-0.5-1-0.8l-0.1-0.2l-3.5,2c-0.1,0-0.2,0.1-0.3,0.1c-0.1,0-0.2,0-0.3-0.1c-0.3-0.1-0.4-0.2-0.6-0.4l-2.3-4
		c-0.2-0.4-0.1-1,0.3-1.2l3.5-2.1l-0.1-0.2c-0.1-0.5-0.3-0.9-0.4-1.4l0-0.2h-4.1c-0.5,0-0.9-0.4-0.9-0.9v-4.6c0-0.5,0.4-0.9,0.9-0.9
		h4.1l0-0.2c0.1-0.5,0.2-1,0.4-1.4l0.1-0.2l-3.5-2.1c-0.4-0.2-0.5-0.7-0.3-1.1l2.3-4c0.1-0.2,0.3-0.3,0.5-0.4c0.1,0,0.2,0,0.2,0
		c0.2,0,0.3,0,0.5,0.1l3.5,2l0.1-0.2c0.2-0.4,0.6-0.7,1-1l0.2-0.1l-2-3.7c-0.2-0.4-0.1-1,0.3-1.2l4-2.3c0.1,0,0.2-0.1,0.3-0.1
		c0.1,0,0.2,0,0.3,0.1c0.2,0.1,0.3,0.2,0.4,0.4l2.1,3.5l0.2-0.1c0.5-0.1,0.9-0.3,1.4-0.4l0.2,0v-4.1c0-0.5,0.4-0.9,0.9-0.9h4.6
		c0.5,0,0.9,0.4,0.9,0.9v4.1l0.2,0c0.5,0.1,1,0.2,1.4,0.4l0.2,0.1l2-3.4c0.1-0.2,0.3-0.4,0.5-0.4c0.1-0.1,0.3-0.1,0.4-0.1
		c0.1,0,0.2,0,0.3,0.1l4,2.3c0.4,0.2,0.6,0.8,0.3,1.2l-2,3.5l0.2,0.1c0.4,0.2,0.7,0.5,1,0.9l0.1,0.2l3.5-2c0.1,0,0.2-0.1,0.3-0.1
		c0.1,0,0.2,0,0.3,0.1c0.2,0.1,0.4,0.2,0.6,0.4l2.3,4c0.2,0.4,0.1,1-0.3,1.2L52.1,32l0.1,0.2c0.1,0.5,0.3,0.9,0.4,1.4l0,0.2h4.1
		c0.5,0,0.9,0.4,0.9,0.9v4.6l0,0.1c0,0.5-0.4,0.9-0.9,0.9h-4.1l0,0.2c-0.1,0.5-0.2,0.9-0.4,1.4l-0.1,0.2l3.5,2
		c0.3,0.2,0.5,0.7,0.3,1.1l-2.3,4c-0.1,0.2-0.3,0.3-0.5,0.4c-0.1,0.1-0.3,0.1-0.4,0.1c-0.1,0-0.2,0-0.3-0.1l-3.5-2l-0.1,0.2
		c-0.3,0.3-0.7,0.7-1,1l-0.2,0.1l2,3.5c0.1,0.2,0.2,0.4,0.1,0.7c0,0.3-0.2,0.5-0.3,0.6l-4,2.3c-0.1,0-0.2,0.1-0.3,0.1
		c-0.1,0-0.2,0-0.3-0.1c-0.3-0.1-0.4-0.2-0.6-0.4L42,52.1l-0.2,0.1c-0.5,0.1-0.9,0.3-1.4,0.4l-0.2,0v4.1c0,0.5-0.4,0.9-0.9,0.9h-4.6
		L34.6,57.5z M31.5,50.1c0.1,0,0.2,0,0.3,0.1c0.9,0.4,1.9,0.6,2.9,0.8c0.4,0.1,0.7,0.4,0.7,0.9v3.9h2.8v-3.9c0-0.4,0.3-0.8,0.8-0.9
		c1-0.2,2-0.4,2.9-0.8c0.1,0,0.2-0.1,0.3-0.1c0.3,0,0.6,0.2,0.8,0.5l2,3.4l2.5-1.4l-1.8-3.1l-0.1-0.3c-0.2-0.4-0.1-0.9,0.2-1.1
		c0.8-0.6,1.5-1.4,2.1-2.1c0.2-0.2,0.4-0.3,0.7-0.3c0.2,0,0.3,0,0.4,0.1l3.4,2l1.4-2.5l-3.4-2c-0.4-0.2-0.5-0.7-0.4-1.1
		c0.4-0.9,0.6-1.9,0.8-2.9c0.1-0.4,0.4-0.7,0.9-0.7h3.9v-2.8h-3.9c-0.4,0-0.8-0.3-0.9-0.8c-0.2-1-0.4-2-0.8-2.9
		c-0.2-0.4,0-0.9,0.4-1.1l3.4-2l-1.4-2.5l-3.4,2c-0.1,0.1-0.3,0.1-0.4,0.1c-0.3,0-0.5-0.1-0.7-0.3c-0.6-0.8-1.4-1.5-2.1-2.1
		c-0.3-0.3-0.4-0.8-0.2-1.1l2-3.4l-2.5-1.4l-2,3.4c-0.2,0.3-0.5,0.5-0.8,0.5c-0.1,0-0.2,0-0.3-0.1c-0.9-0.4-1.9-0.6-2.9-0.8
		c-0.4-0.1-0.7-0.4-0.7-0.9v-3.9h-2.8v3.9c0,0.4-0.3,0.8-0.8,0.9c-1,0.2-2,0.4-2.9,0.8c-0.1,0-0.2,0.1-0.3,0.1
		c-0.3,0-0.6-0.2-0.8-0.5l-1.9-3.4l-2.5,1.4l2,3.4c0.2,0.4,0.1,0.9-0.2,1.1c-0.8,0.6-1.5,1.4-2.1,2.1c-0.2,0.2-0.4,0.3-0.7,0.3
		c-0.2,0-0.3,0-0.4-0.1l-3.4-2l-1.4,2.5l3.4,2c0.4,0.2,0.6,0.7,0.4,1.1c-0.4,0.9-0.6,1.9-0.8,2.9c-0.1,0.4-0.4,0.7-0.9,0.7h-3.9v2.8
		h3.9c0.4,0,0.8,0.3,0.9,0.8c0.2,1,0.4,2,0.8,2.9c0.2,0.4,0,0.9-0.4,1.1l-3.4,2l1.4,2.5l3.4-2c0.1-0.1,0.3-0.1,0.4-0.1
		c0.3,0,0.5,0.1,0.7,0.3c0.6,0.8,1.4,1.5,2.1,2.1c0.3,0.3,0.4,0.8,0.2,1.1l-2,3.4l2.5,1.4l1.9-3.4C30.9,50.3,31.2,50.1,31.5,50.1z"
		/>
</g>
</svg>
