<?xml version="1.0" encoding="utf-8"?>
<!-- Generator: Adobe Illustrator 21.0.0, SVG Export Plug-In . SVG Version: 6.00 Build 0)  -->
<svg version="1.1" id="Layer_1" xmlns="http://www.w3.org/2000/svg" xmlns:xlink="http://www.w3.org/1999/xlink" x="0px" y="0px"
	 viewBox="0 0 74 74" style="enable-background:new 0 0 74 74;" xml:space="preserve">
<style type="text/css">
	.st0{fill:none;stroke:#006FAF;stroke-width:2;stroke-miterlimit:10;}
	.st1{fill:#006FAF;}
</style>
<title>Azure_Site_Recovery</title>
<circle class="st0" cx="37" cy="37" r="36"/>
<g>
	<g>
		<path class="st1" d="M52.9,27.4l-10-10C42.7,17.1,42.3,17,42,17H22c-0.7,0-1.3,0.6-1.3,1.3v11.3h2.5v-10h17.5v8.8
			c0,0.7,0.6,1.3,1.3,1.3h8.8v25H23.3V42h-2.5v13.8c0,0.7,0.6,1.3,1.3,1.3h30c0.7,0,1.3-0.6,1.3-1.3V28.3
			C53.3,27.9,53.1,27.6,52.9,27.4z M43.3,27v-5.7L49,27H43.3z"/>
	</g>
</g>
<g>
	<g>
		<path class="st1" d="M50.1,35.9l-5-2.5c-0.2-0.1-0.4-0.1-0.6-0.1h-20c-0.7,0-1.3,0.6-1.3,1.3v5c0,0.7,0.6,1.3,1.3,1.3h20
			c0.2,0,0.4,0,0.6-0.1l5-2.5c0.4-0.2,0.7-0.6,0.7-1.1C50.8,36.5,50.5,36.1,50.1,35.9z M28.3,38.3h-2.5v-2.5h2.5V38.3z M44.2,38.3
			H30.8v-2.5h13.5l2.5,1.3L44.2,38.3z"/>
	</g>
</g>
<g>
	<g>
		<rect x="28.6" y="43.1" class="st1" width="22.5" height="2.5"/>
	</g>
</g>
<g>
	<g>
		<rect x="33.6" y="48.1" class="st1" width="17.5" height="2.5"/>
	</g>
</g>
<g>
	<g>
		<rect x="28.6" y="48.1" class="st1" width="2.5" height="2.5"/>
	</g>
</g>
</svg>
