<?xml version="1.0" encoding="utf-8"?>
<!-- Generator: Adobe Illustrator 21.0.2, SVG Export Plug-In . SVG Version: 6.00 Build 0)  -->
<svg version="1.1" id="Layer_1" xmlns="http://www.w3.org/2000/svg" xmlns:xlink="http://www.w3.org/1999/xlink" x="0px" y="0px"
	 viewBox="0 0 74 74" style="enable-background:new 0 0 74 74;" xml:space="preserve">
<style type="text/css">
	.st0{fill:none;stroke:#006FAF;stroke-width:2;stroke-miterlimit:10;}
	.st1{fill:#006FAF;}
</style>
<title>Cloud &amp;amp; Infrastructure Services</title>
<circle class="st0" cx="37" cy="37" r="36"/>
<path class="st1" d="M43.6,19.2l0.4-1.3l-2.5,0.7l-2,0.5l1.1,1.1l2.1,2.1l0.4-1.4c6.4,2.5,11,8.7,11,16c0,9.5-7.7,17.2-17.2,17.2
	c-9.5,0-17.2-7.7-17.2-17.2c0-8.1,5.7-15,13.3-16.7l-0.4-1.8C24.3,20.4,18,28,18,37c0,10.5,8.5,19,19,19c10.5,0,19-8.5,19-19
	C56,28.9,50.8,21.9,43.6,19.2z"/>
<path class="st1" d="M37.4,24.5C37.4,24.5,37.4,24.5,37.4,24.5C37.4,24.5,37.3,24.4,37.4,24.5c-0.1-0.1-0.1-0.1-0.1-0.1
	c0,0-0.1,0-0.2-0.1c0,0,0,0-0.1,0c0,0,0,0-0.1,0s0,0-0.1,0s0,0-0.1,0s-0.1,0-0.1,0s0,0-0.1,0c0,0,0,0,0,0l0,0c0,0,0,0,0,0l-2.2,2.2
	c-0.3,0.3-0.3,0.7,0,1c0.3,0.3,0.7,0.3,1,0l1-1v5.7c0,0.4,0.3,0.7,0.7,0.7s0.7-0.3,0.7-0.7v-5.7l1,1c0.3,0.3,0.7,0.3,1,0
	c0.3-0.3,0.3-0.7,0-1L37.4,24.5z"/>
<path class="st1" d="M36.1,39.7c0-0.7,0-1.4,0-2.1c-0.1,0-0.1,0-0.2,0c-1.2,0-2.5,0-3.7,0c-0.6,0-1-0.4-1-1c0-1,0-2,0-2.9
	c0-0.6,0.4-0.9,0.9-0.9c3.1,0,6.2,0,9.3,0c0.5,0,0.9,0.4,0.9,0.9c0,1,0,2,0,3c0,0.5-0.4,0.9-0.9,0.9c-1.1,0-2.3,0-3.4,0
	c-0.1,0-0.1,0-0.2,0c0,0.7,0,1.4,0,2.1c0.1,0,0.1,0,0.2,0c0.9,0,1.9,0,2.8,0c1.4,0.1,2.4,0.7,3,1.9c0.2,0.3,0.2,0.7,0.2,1
	c0,0.4,0,0.8,0,1.2c0,0.1,0,0.2,0.2,0.3c0.9,0.4,1.4,1.1,1.6,2.1c0.1,0.7-0.1,1.4-0.6,2c-0.6,0.7-1.4,1.2-2.4,1.1
	c-0.9-0.1-1.5-0.6-2-1.3c-0.6-1-0.5-2.1,0.3-3c0.3-0.3,0.6-0.6,1-0.8c0.1,0,0.1-0.1,0.1-0.2c0-0.4,0-0.8,0-1.2c0-0.5-0.2-0.8-0.6-1
	c-0.2-0.1-0.5-0.2-0.8-0.2c-2.6,0-5.3,0-7.9,0c-0.3,0-0.6,0.1-0.8,0.2c-0.4,0.2-0.6,0.5-0.6,0.9c0,0.4,0,0.8,0,1.3
	c0,0.1,0,0.2,0.1,0.2c0.8,0.4,1.4,1.1,1.6,2c0.2,0.7-0.1,1.4-0.5,2c-0.6,0.8-1.4,1.2-2.4,1.2c-0.9-0.1-1.6-0.6-2.1-1.3
	c-0.7-1-0.6-2.2,0.3-3.2c0.3-0.3,0.6-0.6,1-0.7c0.1,0,0.1-0.1,0.1-0.2c0-0.3,0-0.7,0-1c0-1,0.4-1.7,1.1-2.3c0.7-0.6,1.5-0.8,2.3-0.8
	c0.8,0,1.7,0,2.5,0C36,39.7,36,39.7,36.1,39.7z M40.7,34.5c-2.5,0-5.1,0-7.6,0c0,0.4,0,0.8,0,1.3c2.5,0,5.1,0,7.6,0
	C40.7,35.4,40.7,34.9,40.7,34.5z M29.8,46.5c0,0.1,0,0.1,0,0.2c0,0.4,0.2,0.7,0.6,0.7c0.2,0,0.3,0,0.5,0c0.4,0,0.7-0.2,0.8-0.6
	c0-0.2,0-0.3,0-0.5c-0.1-0.5-0.3-0.7-0.8-0.8C30.2,45.5,29.8,45.8,29.8,46.5z M42.3,46.4c0,0.5,0.1,0.7,0.3,0.9c0.3,0.2,1,0.2,1.3,0
	c0.4-0.3,0.4-1.2,0-1.5c-0.4-0.2-0.8-0.2-1.2-0.1C42.4,45.8,42.3,46.2,42.3,46.4z"/>
</svg>
