<?xml version="1.0" encoding="utf-8"?>
<!-- Generator: Adobe Illustrator 21.0.2, SVG Export Plug-In . SVG Version: 6.00 Build 0)  -->
<svg version="1.1" id="Layer_1" xmlns="http://www.w3.org/2000/svg" xmlns:xlink="http://www.w3.org/1999/xlink" x="0px" y="0px"
	 viewBox="0 0 74 74" style="enable-background:new 0 0 74 74;" xml:space="preserve">
<style type="text/css">
	.st0{fill:none;stroke:#006FAF;stroke-width:2;stroke-miterlimit:10;}
	.st1{fill:#0B77BD;}
</style>
<title>Cloud &amp;amp; Infrastructure Services</title>
<circle class="st0" cx="37" cy="37" r="36"/>
<path class="st1" d="M38.2,21.4c0,0-0.1,0-0.1,0c-0.6,0.1-1,0.6-1,1.2v0.6c-0.5,0.1-0.9,0.3-1.3,0.7c-0.8,0.6-1.4,1.5-1.4,2.7
	c0,1.5,1,2.4,1.9,3c0.8,0.6,1.6,0.8,1.6,0.8s0.5,0.2,1.1,0.6s0.9,0.8,0.9,1.1c0,0.4-0.1,0.6-0.4,0.8c-0.3,0.2-0.8,0.4-1.1,0.4
	c-1.4,0-2-0.5-2-0.5c-0.5-0.4-1.2-0.3-1.6,0.2c-0.4,0.5-0.3,1.2,0.2,1.6c0,0,0,0,0,0c0,0,0.9,0.6,2.3,0.9v0.5c0,0.6,0.5,1.2,1.2,1.2
	c0.6,0,1.2-0.5,1.2-1.2c0,0,0,0,0,0v-0.6c0.5-0.1,0.9-0.3,1.3-0.7c0.8-0.6,1.4-1.5,1.4-2.7c0-1.5-1-2.4-1.9-3
	c-0.8-0.6-1.6-0.8-1.6-0.8s-0.5-0.2-1.1-0.6c-0.5-0.4-0.9-0.8-0.9-1.1c0-0.4,0.1-0.6,0.4-0.8c0.3-0.2,0.8-0.4,1.1-0.4
	c1.4,0,2,0.5,2,0.5c0.5,0.4,1.2,0.3,1.6-0.2s0.3-1.2-0.2-1.6c0,0,0,0,0,0c0,0-0.9-0.6-2.3-0.9v-0.5C39.3,22,38.8,21.4,38.2,21.4
	C38.2,21.4,38.2,21.4,38.2,21.4z M47.8,25.7c-0.6,0-1.1,0.6-1.1,1.2s0.6,1.1,1.2,1.1l0,0h2.7L38,40.9l-8.1-6c-0.4-0.3-1-0.3-1.4,0
	L20,41.5c-0.5,0.4-0.6,1.1-0.2,1.6c0.4,0.5,1.1,0.6,1.6,0.2l7.9-6.1l8.2,6.1c0.5,0.3,1.1,0.3,1.5-0.1l13.2-13.5v2.6
	c0,0.6,0.5,1.2,1.2,1.2c0.6,0,1.2-0.5,1.2-1.2c0,0,0,0,0,0v-5.4c0-0.6-0.5-1.2-1.2-1.2h-5.4C47.8,25.7,47.8,25.7,47.8,25.7z
	 M49.8,34.6c0,0-0.1,0-0.1,0c-0.6,0.1-1,0.6-1,1.2v15.6c0,0.6,0.5,1.2,1.2,1.2c0.6,0,1.2-0.5,1.2-1.2c0,0,0,0,0,0V35.8
	C51,35.2,50.5,34.7,49.8,34.6C49.8,34.6,49.8,34.6,49.8,34.6z M26.5,40.9c0,0-0.1,0-0.1,0c-0.6,0.1-1,0.6-1,1.2v9.3
	c0,0.6,0.5,1.2,1.2,1.2c0.6,0,1.2-0.5,1.2-1.2c0,0,0,0,0,0v-9.3C27.7,41.4,27.2,40.9,26.5,40.9C26.5,40.9,26.5,40.9,26.5,40.9z
	 M44,40.9c0,0-0.1,0-0.1,0c-0.6,0.1-1,0.6-1,1.2v9.3c0,0.6,0.5,1.2,1.2,1.2c0.6,0,1.2-0.5,1.2-1.2c0,0,0,0,0,0v-9.3
	C45.2,41.4,44.7,40.9,44,40.9C44,40.9,44,40.9,44,40.9z M32.3,41.3c0,0-0.1,0-0.1,0c-0.6,0.1-1,0.6-1,1.2v8.9c0,0.6,0.5,1.2,1.2,1.2
	c0.6,0,1.2-0.5,1.2-1.2c0,0,0,0,0,0v-8.9C33.5,41.8,33,41.3,32.3,41.3C32.3,41.3,32.3,41.3,32.3,41.3z M38.2,45.1c0,0-0.1,0-0.1,0
	c-0.6,0.1-1,0.6-1,1.2v5.1c0,0.6,0.5,1.2,1.2,1.2c0.6,0,1.2-0.5,1.2-1.2c0,0,0,0,0,0v-5.1C39.3,45.7,38.8,45.2,38.2,45.1
	C38.2,45.1,38.2,45.1,38.2,45.1z"/>
</svg>
