<?xml version="1.0" encoding="utf-8"?>
<!-- Generator: Adobe Illustrator 21.0.2, SVG Export Plug-In . SVG Version: 6.00 Build 0)  -->
<svg version="1.1" id="Layer_1" xmlns="http://www.w3.org/2000/svg" xmlns:xlink="http://www.w3.org/1999/xlink" x="0px" y="0px"
	 viewBox="0 0 75 75" style="enable-background:new 0 0 75 75;" xml:space="preserve">
<style type="text/css">
	.st0{fill:none;stroke:#006FAF;stroke-width:2;stroke-miterlimit:10;}
	.st1{fill:#006FAF;}
</style>
<circle class="st0" cx="37.5" cy="37.5" r="36"/>
<g>
	<path class="st1" d="M26.6,49.5c-4.2-0.1-7.7-3.3-8.1-7.5c-0.3-4,2.3-7.8,6.2-8.9c0.6-0.2,1.3-0.3,1.9-0.3c0.5,0,1,0.1,1.5,0.2
		c0.4,0.1,0.7,0.2,1,0.2c0.4,0.1,0.6,0.2,0.8,0.2c0.4,0,0.5-0.3,0.7-0.7c0.1-0.3,0.2-0.6,0.5-1.1c1.6-3.7,5.3-6,9.3-6
		c0.1,0,0.2,0,0.4,0l0.2,0c4,0,7.7,2.4,9.4,6c0.6,0.9,0.9,2,0.9,3c0,1.8,0.1,1.9,1.3,2.5c0.2,0.1,0.4,0.2,0.6,0.3
		c2.6,1.5,3.8,4.6,3,7.4c-0.9,2.8-3.5,4.7-6.5,4.7C49.8,49.5,26.6,49.5,26.6,49.5z M27.3,47.9h21.9c0.1,0,0.2,0,0.4,0
		c2.2,0,4.2-1.4,4.8-3.5l0.1-0.2c0.7-2.5-0.7-5.2-3.2-5.9c-0.9-0.2-1.5-1.1-1.4-2c0-1.8-0.5-3.6-1.6-5.1c-1.6-2.5-4.3-4-7.2-4
		c-0.5,0-1.1,0.1-1.6,0.2c-3.6,0.6-6.4,3.2-7.3,6.7c-0.4,1.3-0.6,1.6-0.9,1.6c-0.3,0-0.8-0.2-1.5-0.5c-0.9-0.4-1.8-0.6-2.7-0.6
		c-1.7,0-3.3,0.7-4.6,1.8c-1.9,1.7-2.5,4.5-1.6,6.9c0.9,2.7,3.4,4.5,6.2,4.5L27.3,47.9L27.3,47.9z"/>
	<path class="st1" d="M43.6,47c-0.2,0-0.4-0.1-0.6-0.2c-0.2-0.2-0.2-0.4-0.2-0.6c0-0.2,0.1-0.4,0.2-0.6l0.6-0.7h-1.7
		c-0.2,0-0.4-0.1-0.6-0.2l-1.7-2.1c-0.3-0.3-0.3-0.8,0-1.1c0.2-0.2,0.4-0.2,0.6-0.2s0.4,0.1,0.6,0.2l1.4,1.8h1.3L43,42.7
		c-0.2-0.2-0.2-0.4-0.2-0.6s0.1-0.4,0.2-0.6c0.2-0.2,0.4-0.2,0.6-0.2c0.2,0,0.4,0.1,0.6,0.2l2,2c0.2,0.1,0.3,0.3,0.3,0.6
		c0,0.2-0.1,0.5-0.3,0.6l-2,2C44,46.9,43.8,47,43.6,47z"/>
	<path class="st1" d="M38.3,39.7c-0.2,0-0.4-0.1-0.6-0.2l-1.4-1.8h-2.9c-0.4,0-0.8-0.4-0.8-0.8S33,36,33.4,36c0,0,3.2,0,3.2,0
		c0.2,0,0.4,0.1,0.6,0.2l1.7,2.1c0.1,0.1,0.2,0.3,0.2,0.5s-0.1,0.4-0.2,0.6C38.7,39.6,38.5,39.7,38.3,39.7z"/>
	<path class="st1" d="M33.4,45c-0.4,0-0.8-0.4-0.8-0.8s0.4-0.8,0.8-0.8h2.8l5.1-7c0.2-0.2,0.4-0.3,0.6-0.3l1.8,0L43,35.4
		c-0.3-0.3-0.3-0.8,0-1.1c0.2-0.2,0.4-0.2,0.6-0.2c0.2,0,0.4,0.1,0.6,0.2l2,2c0.1,0.1,0.2,0.3,0.3,0.6c0,0.2-0.1,0.4-0.2,0.6l-2,2
		c-0.2,0.2-0.4,0.2-0.6,0.2c-0.2,0-0.4-0.1-0.6-0.2c-0.3-0.3-0.3-0.8,0-1.1l0.7-0.7h-1.3l-5.1,7c-0.2,0.2-0.4,0.3-0.6,0.3H33.4z"/>
</g>
</svg>
