<svg id="Layer_1" data-name="Layer 1" xmlns="http://www.w3.org/2000/svg" width="74" height="74" viewBox="0 0 74 74">
  <defs>
    <style>
      .cls-1 {
        fill: none;
        stroke: #006faf;
        stroke-miterlimit: 10;
        stroke-width: 2px;
      }

      .cls-2 {
        fill: #006faf;
      }
    </style>
  </defs>
  <title>custom-software</title>
  <circle class="cls-1" cx="37" cy="37" r="36"/>
  <g>
    <path class="cls-2" d="M28.49,44.29a3.92,3.92,0,0,1-3.92-3.92V38.62H23.1a4.2,4.2,0,0,1-4.2-4.2V34.3a4.2,4.2,0,0,1,3.8-4.2h.12a.89.89,0,1,1,0,1.77h-.11a2.37,2.37,0,0,0-1.92,2.31v.22a2.4,2.4,0,0,0,2.37,2.37h1.36V29.25a3.92,3.92,0,0,1,3.92-3.92H45.62a3.92,3.92,0,0,1,3.92,3.92v7.48h1.19a2.4,2.4,0,0,0,2.37-2.37v-.22a2.42,2.42,0,0,0-1.94-2.32h-.09a.89.89,0,0,1,0-1.77h.11a4.4,4.4,0,0,1,3.92,4.14v.12a4.2,4.2,0,0,1-4.2,4.2H49.6v1.87a3.92,3.92,0,0,1-3.92,3.92Zm-2.15-4.37a2.6,2.6,0,0,0,2.6,2.6H45.12a2.6,2.6,0,0,0,2.6-2.6V38.56H38.6a.89.89,0,1,1,0-1.77h9.05v-7a2.6,2.6,0,0,0-2.6-2.6H28.94a2.6,2.6,0,0,0-2.6,2.6v7.09h6.4l-1-1a1,1,0,0,1,0-1.27,1,1,0,0,1,.65-.24.85.85,0,0,1,.61.24l2.3,2.3a.91.91,0,0,1,0,1.26l-2.3,2.3a1,1,0,0,1-.65.24.85.85,0,0,1-.61-.24,1,1,0,0,1,0-1.26l.72-.67H26.35Z"/>
    <path class="cls-2" d="M21.3,48.67a.89.89,0,1,1,0-1.77H52.53a.89.89,0,0,1,.83.89.87.87,0,0,1-.89.89Z"/>
  </g>
</svg>
