<svg id="Layer_1" data-name="Layer 1" xmlns="http://www.w3.org/2000/svg" width="74" height="74" viewBox="0 0 74 74">
  <defs>
    <style>
      .cls-1 {
        fill: none;
        stroke: #006faf;
        stroke-miterlimit: 10;
        stroke-width: 2px;
      }

      .cls-2 {
        fill: #006faf;
      }
    </style>
  </defs>
  <title>user-experience-design</title>
  <circle class="cls-1" cx="37" cy="37" r="36"/>
  <g>
    <path class="cls-2" d="M20,55.09a1,1,0,0,1-.71-.37A1,1,0,0,1,18.9,54c0-.42.39-.75.73-1,2.2-2,4.48-4.1,6.74-6.24a1.76,1.76,0,0,1,1.26-.62,1.85,1.85,0,0,1,.72.16c.63.23,1.26.43,1.89.63s1.46.47,2.17.74a1.86,1.86,0,0,0,.62.13c.4,0,.7-.2,1.07-.72,1-1.28,2-2.55,3-3.82s2-2.57,3-3.86a1.94,1.94,0,0,1,1.57-1,2.41,2.41,0,0,1,.72.12c.88.28,1.8.49,2.69.69.69.15,1.38.31,2.05.5a1.94,1.94,0,0,0,.47.07,1,1,0,0,0,.92-.59l1.38-1.84c.58-.77,1.18-1.57,1.82-2.44H49.1c-1.06,0-1.29-.53-1.29-1,0-.69.41-1,1.22-1H54a1.16,1.16,0,0,1,.93.32,1.08,1.08,0,0,1,.16.92V39c0,.75-.35,1.16-1,1.16s-1-.45-1-1.22V36.16l-.73,1c-1,1.32-1.89,2.47-2.71,3.67a2.12,2.12,0,0,1-1.74,1.07A2.76,2.76,0,0,1,47,41.7c-.71-.22-1.45-.37-2.17-.53s-1.47-.31-2.2-.53a2.28,2.28,0,0,0-.51-.06,1.37,1.37,0,0,0-1.14.66c-1,1.34-2,2.67-3.06,4s-2.06,2.65-3.06,4A1.49,1.49,0,0,1,33.6,50a2.41,2.41,0,0,1-.7-.12c-.6-.22-1.21-.4-1.82-.58-.78-.23-1.59-.48-2.38-.79a1.6,1.6,0,0,0-.67-.17,1.78,1.78,0,0,0-1.16.59c-1.31,1.27-2.65,2.51-4,3.74L21,54.42A1.58,1.58,0,0,1,20,55.09Z"/>
    <path class="cls-2" d="M24.85,44.83c-.61,0-.87-.61-1-1.07a10.65,10.65,0,0,1,1.33-9.15,10.77,10.77,0,0,1,7.88-5,14.32,14.32,0,0,1,1.46-.08,11.17,11.17,0,0,1,9,4.42c.19.26.44.63.63.95a1.7,1.7,0,0,1,.35,1.22,1,1,0,0,1-.51.6,1,1,0,0,1-.5.14c-.46,0-.76-.39-1.07-.86a9,9,0,0,0-7.83-4.43q-.46,0-.94,0a9,9,0,0,0-8.27,9.14,11.35,11.35,0,0,0,.43,2.53,1.42,1.42,0,0,1,0,1.08.87.87,0,0,1-.57.42A1.17,1.17,0,0,1,24.85,44.83Z"/>
    <path class="cls-2" d="M32.57,28.47a4.89,4.89,0,0,1-4.8-4.85,4.81,4.81,0,0,1,9.63.06,4.63,4.63,0,0,1-1.31,3.37,4.72,4.72,0,0,1-3.41,1.41Zm.05-7.56a3,3,0,0,0-2.06.94,2.62,2.62,0,0,0-.71,1.89,2.81,2.81,0,0,0,2.83,2.71,2.75,2.75,0,0,0,2.71-2.83,2.73,2.73,0,0,0-2.67-2.71Z"/>
  </g>
</svg>
