<?xml version="1.0" encoding="utf-8"?>
<!-- Generator: Adobe Illustrator 21.0.2, SVG Export Plug-In . SVG Version: 6.00 Build 0)  -->
<svg version="1.1" id="Layer_1" xmlns="http://www.w3.org/2000/svg" xmlns:xlink="http://www.w3.org/1999/xlink" x="0px" y="0px"
	 viewBox="0 0 74 74" style="enable-background:new 0 0 74 74;" xml:space="preserve">
<style type="text/css">
	.st0{fill:none;stroke:#006FAF;stroke-width:2;stroke-miterlimit:10;}
</style>
<title>Cloud &amp;amp; Infrastructure Services</title>
<circle class="st0" cx="37" cy="37" r="36"/>
<g>
	<g>
		<path class="st0" d="M22.4,31.9c-0.2,0.9-0.3,1.9-0.3,2.9c0,0.6,0,1.2,0.1,1.9"/>
		<path class="st0" d="M51.4,36.7c0.1-0.6,0.1-1.3,0.1-1.9c0-8.1-6.6-14.7-14.7-14.7c-6.2,0-11.4,3.8-13.6,9.2"/>
		<path class="st0" d="M39.4,53.6c2.6-0.6,4.9-1.9,6.6-3.8c0.8-0.9,1.5-2,2.1-3.1"/>
		<path class="st0" d="M25.6,46.8c2,4.2,6.3,7.1,11.2,7.1"/>
		<path class="st0" d="M26.8,45.6c2.2,2,4.9,3.4,8,3.8"/>
		<path class="st0" d="M51.7,45.3c-0.3,1.3-1.6,2-2.9,1.7c-1.3-0.3-2-1.6-1.7-2.9l1.4-5.2c0.3-1.3,1.6-2,2.9-1.7
			c1.3,0.3,2,1.6,1.7,2.9L51.7,45.3z"/>
		<path class="st0" d="M22.3,45.3c0.3,1.3,1.6,2,2.9,1.7c1.3-0.3,2-1.6,1.7-2.9l-1.4-5.2c-0.3-1.3-1.6-2-2.9-1.7
			c-1.3,0.3-2,1.6-1.7,2.9L22.3,45.3z"/>
		<circle class="st0" cx="36.1" cy="49.5" r="1.8"/>
	</g>
</g>
</svg>
