<?xml version="1.0" encoding="utf-8"?>
<!-- Generator: Adobe Illustrator 21.0.0, SVG Export Plug-In . SVG Version: 6.00 Build 0)  -->
<svg version="1.1" id="Layer_1" xmlns="http://www.w3.org/2000/svg" xmlns:xlink="http://www.w3.org/1999/xlink" x="0px" y="0px"
	 viewBox="0 0 74 74" style="enable-background:new 0 0 74 74;" xml:space="preserve">
<style type="text/css">
	.st0{fill:none;stroke:#006FAF;stroke-width:2;stroke-miterlimit:10;}
	.st1{fill:#006FAF;}
</style>
<title>health-checks</title>
<circle class="st0" cx="37" cy="37" r="36"/>
<g>
	<path class="st1" d="M51.3,23.5H22.7c-1.6,0-2.9,1.3-2.9,2.9v17c0,1.6,1.3,2.9,2.9,2.9h13.4v-0.8l2.3,2.3c0,0,0,0.1,0,0.1h-1.6v3.2
		h-1.1v3.8h1.5v-2.3h9.1v2.3h1.5v-7h-1.1l0,0c0.3-0.7,0.5-1.3,0.6-2v0.3h4c1.6,0,2.9-1.3,2.9-2.9v-17C54.2,24.8,53,23.5,51.3,23.5z
		 M46.3,51.1h-8v-1.7h8V51.1z M46.3,42c0,1.8-0.4,3.6-1,5.4c-0.1,0.2-0.1,0.3-0.1,0.4v0.2h-5.3c0-0.4-0.2-0.9-0.5-1.2L34,41.3l0,0
		c0.1-0.1,0.3-0.2,0.5-0.2s0.3,0.1,0.5,0.2l2,1.9c0.2,0.2,0.5,0.3,0.8,0.3s0.6-0.1,0.8-0.3l0.4-0.4c0.3-0.3,0.5-0.7,0.5-1.2v-8.2
		c0-0.1,0-0.1,0.1-0.2c0.1-0.1,0.2-0.1,0.3-0.1c0.1,0,0.3,0.2,0.3,0.4V40h1.5v-1.7c0-0.1,0-0.2,0.1-0.2c0.1-0.1,0.2-0.1,0.3-0.1
		c0.1,0,0.3,0.2,0.3,0.4V40h1.5v-1.6c0-0.1,0-0.1,0.1-0.2c0.1-0.1,0.2-0.1,0.3-0.1c0.1,0,0.3,0.2,0.3,0.4V40h1.5v-1l0.1-0.1
		c0,0,0.1-0.1,0.1-0.1l0.1,0c0.1,0,0.3,0.2,0.3,0.4V42z M52.7,43.4c0,0.8-0.6,1.4-1.4,1.4h-3.7c0.2-0.9,0.2-1.9,0.2-2.8v-2.8
		c0-0.9-0.7-1.7-1.6-1.9c-0.1,0-0.1,0-0.2,0c-0.2,0-0.4,0.1-0.6,0.1c-0.3-0.5-0.8-0.7-1.3-0.8c-0.1,0-0.1,0-0.2,0
		c-0.4,0-0.7,0.1-1.1,0.3c-0.3-0.2-0.6-0.3-0.9-0.4c-0.2,0-0.3,0-0.5,0v-3.2c0-1-0.7-1.7-1.7-1.9c-0.1,0-0.1,0-0.2,0
		c-0.4,0-0.9,0.2-1.2,0.5c-0.4,0.4-0.6,0.9-0.6,1.3l0,1.1l-0.1-0.2c-0.3-0.4-0.4-0.9-0.4-1.4c0-1.4,1.1-2.4,2.4-2.4s2.4,1.1,2.4,2.4
		c0,0.4-0.1,0.8-0.2,1.1l-0.1,0.2l1.3,0.7l0.1-0.2c0.3-0.6,0.4-1.2,0.4-1.8c0-2.2-1.7-3.9-3.9-3.9c-2.2,0-3.9,1.7-3.9,3.9
		c0,0.8,0.2,1.6,0.7,2.2l0.1,0.2l1.3-0.8l0,7.2c0,0,0,0.1,0,0.1l-0.1,0.1l-1.7-1.6c-0.4-0.4-1-0.6-1.5-0.6c-0.5,0-1,0.2-1.4,0.5
		l-0.4,0.3c-0.2,0.2-0.3,0.5-0.3,0.8s0.1,0.6,0.3,0.8l2.7,2.7H22.7c-0.8,0-1.4-0.6-1.4-1.4v-17c0-0.8,0.6-1.4,1.4-1.4h28.7
		c0.8,0,1.4,0.6,1.4,1.4V43.4z"/>
	<rect x="21.9" y="34.1" class="st1" width="1.5" height="2.6"/>
	<rect x="50.6" y="33.1" class="st1" width="1.5" height="4.7"/>
	<polygon class="st1" points="24,44.1 33,44.1 33,42.6 25.5,42.6 25.5,27.1 48.5,27.1 48.5,44.1 50,44.1 50,25.6 24,25.6 	"/>
	<rect x="31.4" y="32" class="st1" width="1.5" height="1.5"/>
	<rect x="29.3" y="32" class="st1" width="1.5" height="1.5"/>
	<rect x="27.2" y="32" class="st1" width="1.5" height="1.5"/>
	<rect x="33.5" y="32" class="st1" width="1.5" height="1.5"/>
</g>
</svg>
