<?xml version="1.0" encoding="utf-8"?>
<!-- Generator: Adobe Illustrator 21.0.0, SVG Export Plug-In . SVG Version: 6.00 Build 0)  -->
<svg version="1.1" id="Layer_1" xmlns="http://www.w3.org/2000/svg" xmlns:xlink="http://www.w3.org/1999/xlink" x="0px" y="0px"
	 viewBox="0 0 74 74" style="enable-background:new 0 0 74 74;" xml:space="preserve">
<style type="text/css">
	.st0{fill:none;stroke:#006FAF;stroke-width:2;stroke-miterlimit:10;}
	.st1{fill:#006FAF;}
</style>
<title>Azure_Site_Recovery</title>
<circle class="st0" cx="37.1" cy="37" r="36"/>
<g transform="translate(1 1)">
	<g>
		<g>
			<path class="st1" d="M36.1,42.2c-1.4,0-2.6,1.2-2.6,2.6c0,1.2,0.8,2.2,1.9,2.5v1.4c0,0.4,0.3,0.6,0.6,0.6c0.4,0,0.6-0.3,0.6-0.6
				v-1.4c1.1-0.3,1.9-1.3,1.9-2.5C38.7,43.4,37.5,42.2,36.1,42.2z M36.1,46.1c-0.7,0-1.3-0.6-1.3-1.3c0-0.7,0.6-1.3,1.3-1.3
				s1.3,0.6,1.3,1.3C37.4,45.5,36.8,46.1,36.1,46.1z"/>
			<path class="st1" d="M49.6,27c-0.4-5.8-5.1-10.4-10.9-10.4c-3.5,0-6.8,1.7-8.9,4.5c-0.1,0-0.2-0.1-0.3-0.1
				c-0.7-0.4-1.5-0.5-2.4-0.5c-1,0-1.9,0.2-2.8,0.7c-0.2,0.1-0.3,0.2-0.5,0.3c-0.2,0.2-0.4,0.3-0.7,0.5c-0.1,0.1-0.3,0.3-0.4,0.4
				c-0.2,0.2-0.4,0.4-0.5,0.7c-0.1,0.2-0.2,0.3-0.3,0.5c-0.1,0.2-0.2,0.5-0.3,0.8c-0.1,0.2-0.1,0.4-0.2,0.5
				c-0.1,0.5-0.2,0.9-0.2,1.4c0,0.1,0,0.2,0,0.3c-2.6,1.5-4.5,4.5-4.5,7.6c0,4.5,3.7,8.2,8.2,8.2h0.8V48c0,2.8,2.3,5.1,5.1,5.1h10.2
				c2.8,0,5.1-2.3,5.1-5.1v-5.8h1c3.9,0,7.3-2.8,7.9-6.5C55.8,31.8,53.3,27.9,49.6,27z M45.1,48c0,2.1-1.7,3.8-3.8,3.8H31
				c-2.1,0-3.8-1.7-3.8-3.8v-5.8v-2.4c0-0.1,0.1-0.2,0.2-0.2h1.7h2.6h9h2.6h1.7c0.1,0,0.2,0.1,0.2,0.2v2.4L45.1,48L45.1,48z
				 M42.5,38.4h-1.3v-1.9c0-2.8-2.3-5.1-5.1-5.1S31,33.6,31,36.5v1.9h-1.3v-1.9c0-3.5,2.9-6.4,6.4-6.4s6.4,2.9,6.4,6.4L42.5,38.4
				L42.5,38.4z M32.3,38.4v-1.9c0-2.1,1.7-3.8,3.8-3.8s3.8,1.7,3.8,3.8v1.9H32.3z M54,35.5c-0.5,3.1-3.3,5.4-6.6,5.4h-1v-1.1
				c0-0.8-0.6-1.5-1.5-1.5h-1.1v-1.9c0-4.2-3.5-7.7-7.7-7.7s-7.7,3.5-7.7,7.7v1.9h-1.1c-0.8,0-1.5,0.6-1.5,1.5v1.1h-0.8
				c-3.8,0-6.9-3.1-6.9-6.9c0-2.7,1.7-5.4,4.1-6.5l0.4-0.2v-0.4c0-0.1,0-0.2,0-0.3v-0.1v-0.1c0-0.1,0-0.1,0-0.2c0-2.5,2-4.5,4.5-4.5
				c0.1,0,0.1,0,0.2,0c0,0,0,0,0.1,0c0.1,0,0.1,0,0.2,0c0,0,0,0,0,0c0.1,0,0.1,0,0.2,0c0,0,0,0,0,0c0.1,0,0.1,0,0.2,0c0,0,0,0,0,0
				c2,0.4,3.6,2.2,3.6,4.4c0,0.4,0.3,0.6,0.6,0.6c0.4,0,0.6-0.3,0.6-0.6c0-1.8-0.8-3.3-2-4.4c1.8-2.4,4.8-3.9,7.8-3.9
				c5,0,9.1,3.9,9.5,9c-0.7,0-1.7-0.1-2.7,0.1c-0.3,0-0.6,0.4-0.5,0.7c0.1,0.3,0.3,0.5,0.6,0.5h0.1c1.5-0.2,3,0,3,0l0,0
				C52.2,28.8,54.5,32,54,35.5z"/>
		</g>
	</g>
</g>
</svg>
