<?xml version="1.0" encoding="utf-8"?>
<!-- Generator: Adobe Illustrator 21.0.2, SVG Export Plug-In . SVG Version: 6.00 Build 0)  -->
<svg version="1.1" id="Layer_1" xmlns="http://www.w3.org/2000/svg" xmlns:xlink="http://www.w3.org/1999/xlink" x="0px" y="0px"
	 viewBox="0 0 74 74" style="enable-background:new 0 0 74 74;" xml:space="preserve">
<style type="text/css">
	.st0{fill:none;stroke:#006FAF;stroke-width:2;stroke-miterlimit:10;}
	.st1{fill:#006FAF;}
	.st2{fill:none;stroke:#006FAF;stroke-miterlimit:10;}
</style>
<g id="azure-data-protection-and-recovery">
	<g id="Layer_13">
	</g>
</g>
<g id="cloud-dr-and-bc-strategy">
</g>
<g id="cloud-workload-data-protection">
</g>
<circle class="st0" cx="37" cy="37" r="36"/>
<g id="automated-disaster-recovery">
</g>
<g id="regulatory-compliance-management">
</g>
<g id="information-security-and-encryption">
</g>
<g id="Layer_13_1_">
	<g>
		<g>
			<g>
				<path class="st1" d="M37,58c-0.1,0-0.2,0-0.3,0C25,54,19.5,46,19.5,32.6V22.1c0-0.4,0.2-0.8,0.6-0.9L36.7,16
					c0.2-0.1,0.4-0.1,0.5,0l16.6,5.2c0.4,0.1,0.6,0.5,0.6,0.9v10.5C54.5,46,49,54,37.3,58C37.2,58,37.1,58,37,58z M21.3,22.8v9.9
					c0,12.6,4.9,19.9,15.7,23.6c10.9-3.7,15.7-11,15.7-23.6v-9.9l-15.7-5L21.3,22.8z"/>
			</g>
		</g>
		<g>
			<path class="st1" d="M39.1,37.2c-0.6,0-1.2,0.4-1.5,0.9h-9.2c-1.6,0-2.8-1.3-2.8-2.9c0-1.6,1.3-2.9,2.8-2.9h1.3
				c0-0.3,0.2-0.6,0.2-0.9c0.1-0.1,0.1-0.2,0.2-0.3c0.6-1.2,1.9-2,3.3-2c1.3,0,2.4,0.6,3.1,1.6c0.4-0.2,0.8-0.3,1.3-0.4
				c-0.9-1.5-2.4-2.4-4.3-2.4c-2.1,0-3.9,1.3-4.7,3.2h-0.3c-2.3,0-4.2,1.9-4.2,4.2c0,2.4,1.9,4.2,4.2,4.2h9.3
				c0.2,0.5,0.8,0.9,1.5,0.9c0.9,0,1.6-0.7,1.6-1.6C40.7,37.8,40,37.2,39.1,37.2z"/>
			<path class="st2" d="M44.2,34c-0.9-1.9-2.9-3.2-5.1-3.2c-2.7,0-5,2-5.6,4.5c-1.3,0.2-2.5,0.9-3.2,1.9h6.8c0.5-0.6,1.2-0.9,2-0.9
				c1.4,0,2.5,1.2,2.5,2.6c0,1.4-1.2,2.6-2.5,2.6c-0.8,0-1.5-0.4-2-0.9h-7.6c0.3,2.2,2.2,3.9,4.4,3.9h10.2c2.8,0,5.1-2.3,5.1-5.2
				S47,34.1,44.2,34L44.2,34z"/>
		</g>
	</g>
</g>
</svg>
