<?xml version="1.0" encoding="utf-8"?>
<!-- Generator: Adobe Illustrator 21.0.0, SVG Export Plug-In . SVG Version: 6.00 Build 0)  -->
<svg version="1.1" id="Layer_1" xmlns="http://www.w3.org/2000/svg" xmlns:xlink="http://www.w3.org/1999/xlink" x="0px" y="0px"
	 viewBox="0 0 74 74" style="enable-background:new 0 0 74 74;" xml:space="preserve">
<style type="text/css">
	.st0{fill:none;stroke:#006FAF;stroke-width:2;stroke-miterlimit:10;}
	.st1{fill:none;stroke:#006FAF;stroke-width:1.7;stroke-miterlimit:10;}
	.st2{fill:#006FAF;}
	.st3{fill:#006FAF;stroke:#006FAF;stroke-width:0.8619;stroke-miterlimit:10;}
</style>
<title>Azure_Site_Recovery</title>
<circle class="st0" cx="37.1" cy="37.2" r="36"/>
<g>
	<path class="st1" d="M20.8,33.6c0.3,0.3,1.7-10.2,12.8-12.9"/>
	<polygon class="st2" points="17.6,32 20.1,38.3 24.3,33 	"/>
	<path class="st1" d="M33.7,53.5c0.3-0.3-10.3-1.2-13.5-12.2"/>
	<polygon class="st2" points="32.5,56.6 38.2,53.9 33,50.3 	"/>
	<path class="st1" d="M53.4,40.8c-0.3-0.3-1.8,10.2-12.9,12.8"/>
	<polygon class="st2" points="56.6,42.4 54.1,36.1 49.9,41.4 	"/>
	<path class="st1" d="M40.5,20.9c-0.3,0.3,10.2,1.3,13.5,12.2"/>
	<polygon class="st2" points="41.7,17.8 36,20.5 41.1,24.1 	"/>
</g>
<path class="st3" d="M45.2,30.2c-0.3-1.6-3.1-3.2-8-3.2s-7.6,1.6-8,3.2c0,0,0,0.1,0,0.2v0.2v4.3v0.2v0.2v4.1v0.2v0.2v4.5
	c0,0.1,0,0.1,0,0.1c0.3,1.8,3.8,3.2,8,3.2s7.6-1.4,8-3.2c0,0,0-0.1,0-0.2v-4.5v-0.2v-0.2v-4.1V35v-0.2v-4.3v-0.2
	C45.4,30.3,45.2,30.3,45.2,30.2z M44.7,39.7v0.1v0.1c0,0,0,0.1-0.1,0.1c0,0,0,0.1-0.1,0.1l-0.1,0.1c0,0,0,0.1-0.1,0.1l-0.1,0.1
	c0,0,0,0-0.1,0.1c-0.1,0.1-0.1,0.1-0.2,0.2c0,0,0,0-0.1,0c-0.1,0.1-0.2,0.1-0.3,0.2l0,0c-0.1,0.1-0.2,0.1-0.3,0.2l0,0
	c-0.7,0.3-1.6,0.6-2.8,0.8l0,0c-0.2,0-0.5,0.1-0.7,0.1h-0.1c-0.2,0-0.3,0-0.6,0.1c-0.1,0-0.2,0-0.2,0c-0.1,0-0.3,0-0.5,0
	c-0.2,0-0.5,0-0.8,0s-0.6,0-0.8,0c-0.1,0-0.3,0-0.5,0c-0.1,0-0.2,0-0.2,0c-0.2,0-0.3,0-0.6-0.1h-0.1c-0.2,0-0.5-0.1-0.7-0.1l0,0
	c-1-0.2-2.1-0.5-2.8-0.8l0,0c-0.1-0.1-0.2-0.1-0.3-0.2l0,0C31.2,41,31.1,41,31,40.9c0,0,0,0-0.1,0c-0.1,0-0.1-0.1-0.2-0.2
	c0,0,0,0-0.1-0.1c-0.1,0-0.1-0.1-0.1-0.1l-0.1-0.1l-0.1-0.1c0,0,0-0.1-0.1-0.1c0,0,0-0.1-0.1-0.1v-0.1v-0.1c0-0.1,0-0.1,0-0.2v-0.1
	v-0.1v-2.8l0,0c0.1,0.1,0.1,0.1,0.2,0.2c1.3,1,3.7,1.8,7.1,1.8s5.9-0.8,7.1-1.8c0.1-0.1,0.2-0.1,0.2-0.2l0,0v2.8v0.1v0.1
	C44.7,39.6,44.7,39.7,44.7,39.7z M44.7,32v2.8v0.1V35c0,0.1,0,0.1,0,0.2v0.1v0.1c0,0,0,0.1-0.1,0.1c0,0,0,0.1-0.1,0.1l-0.1,0.1
	c0,0,0,0.1-0.1,0.1L44.1,36c0,0,0,0-0.1,0.1c-0.1,0.1-0.1,0.1-0.2,0.2c0,0,0,0-0.1,0c-0.1,0.1-0.2,0.1-0.3,0.2l0,0
	c-0.1,0.1-0.2,0.1-0.3,0.2l0,0c-0.7,0.3-1.6,0.6-2.8,0.8l0,0c-0.2,0-0.5,0.1-0.7,0.1h-0.1c-0.2,0-0.3,0-0.6,0.1c-0.1,0-0.2,0-0.2,0
	c-0.1,0-0.3,0-0.5,0c-0.2,0-0.5,0-0.8,0s-0.6,0-0.8,0c-0.1,0-0.3,0-0.5,0c-0.1,0-0.2,0-0.2,0c-0.2,0-0.3,0-0.6-0.1h-0.1
	c-0.2,0-0.5-0.1-0.7-0.1l0,0c-1-0.2-2.1-0.5-2.8-0.8l0,0c-0.1-0.1-0.2-0.1-0.3-0.2l0,0c-0.1-0.1-0.2-0.1-0.3-0.2c0,0,0,0-0.1,0
	c-0.1,0-0.1-0.1-0.2-0.2c0,0,0,0-0.1-0.1c-0.1,0-0.1-0.1-0.1-0.1l-0.1-0.1l-0.1-0.1c0,0,0-0.1-0.1-0.1c0,0,0-0.1-0.1-0.1v-0.1v-0.1
	c0-0.1,0-0.1,0-0.2v-0.1v-0.1V32l0.1,0.1c0,0,0,0,0.1,0.1c0.1,0.1,0.2,0.2,0.3,0.2c0,0,0,0,0.1,0c0.1,0.1,0.2,0.1,0.3,0.2
	c0,0,0.1,0,0.1,0.1c0.1,0.1,0.2,0.1,0.3,0.2c0,0,0,0,0.1,0c0.1,0.1,0.3,0.1,0.5,0.2h0.1c0.1,0,0.2,0.1,0.5,0.1h0.1
	c0.2,0.1,0.3,0.1,0.6,0.1h0.1c0.2,0,0.3,0.1,0.6,0.1c0.1,0,0.1,0,0.2,0c0.2,0,0.3,0.1,0.6,0.1h0.1c0.2,0,0.5,0.1,0.7,0.1
	c0.1,0,0.1,0,0.2,0c0.2,0,0.5,0,0.6,0c0.1,0,0.1,0,0.2,0c0.2,0,0.6,0,0.8,0s0.6,0,0.8,0c0.1,0,0.1,0,0.2,0c0.2,0,0.5,0,0.6,0
	c0.1,0,0.1,0,0.2,0c0.2,0,0.5,0,0.7-0.1h0.1c0.2,0,0.3-0.1,0.6-0.1c0.1,0,0.1,0,0.2,0c0.2,0,0.3-0.1,0.6-0.1h0.1
	c0.2,0,0.3-0.1,0.6-0.1h0.1c0.1,0,0.2-0.1,0.5-0.1h0.1c0.1-0.1,0.3-0.1,0.5-0.2c0,0,0,0,0.1,0c0.1-0.1,0.2-0.1,0.3-0.2
	c0,0,0.1,0,0.1-0.1c0.1-0.1,0.2-0.1,0.3-0.2c0,0,0,0,0.1,0c0.1-0.1,0.2-0.1,0.3-0.2c0,0,0,0,0.1-0.1C44.6,32.1,44.7,32,44.7,32z
	 M37.3,27.8c4.4,0,7.4,1.5,7.4,2.8c0,1.4-3,2.8-7.4,2.8S30,31.8,30,30.5C29.8,29.2,32.9,27.8,37.3,27.8z M44.7,44.1
	C44.7,44.1,44.7,44.2,44.7,44.1c-0.2,1.4-3.2,2.8-7.4,2.8s-7.2-1.4-7.4-2.6l0,0v-3.1l0,0c0.1,0.1,0.1,0.1,0.2,0.2
	c1.3,1,3.7,1.8,7.1,1.8s5.9-0.8,7.1-1.8c0.1-0.1,0.2-0.1,0.2-0.2l0,0V44.1z"/>
</svg>
