<?xml version="1.0" encoding="utf-8"?>
<!-- Generator: Adobe Illustrator 21.0.2, SVG Export Plug-In . SVG Version: 6.00 Build 0)  -->
<svg version="1.1" id="Layer_1" xmlns="http://www.w3.org/2000/svg" xmlns:xlink="http://www.w3.org/1999/xlink" x="0px" y="0px"
	 viewBox="0 0 75 75" style="enable-background:new 0 0 75 75;" xml:space="preserve">
<style type="text/css">
	.st0{fill:none;stroke:#006FAF;stroke-width:2;stroke-miterlimit:10;}
	.st1{fill:none;stroke:#006FAF;stroke-width:2;stroke-linejoin:round;}
	.st2{fill:#006FAF;}
</style>
<circle class="st0" cx="37.5" cy="37.5" r="36"/>
<g>
	<ellipse class="st1" cx="34.1" cy="29.3" rx="12.5" ry="4.2"/>
	<path class="st1" d="M30.8,39.1c-5.3-0.5-9.2-2.1-9.2-4"/>
	<path class="st1" d="M28.3,44.6c-4-0.7-6.7-2.1-6.7-3.7V29.3"/>
	<line class="st1" x1="46.6" y1="29.3" x2="46.6" y2="33.4"/>
	<polyline class="st1" points="38.6,44.3 40.3,45.9 45.3,40.9 	"/>
	<path class="st2" d="M51.2,42l-0.4-0.2c-0.5-0.3-0.5-0.3-0.6-1.2c0-0.7-0.3-1.4-0.6-1.9c-1.1-2.3-3.4-3.8-5.9-3.8l-0.4,0
		c-2.5,0-4.8,1.5-5.9,3.8c-0.2,0.3-0.2,0.6-0.3,0.7c0,0.1-0.1,0.2-0.1,0.2c-0.1,0-0.2,0-0.4-0.1c-0.2,0-0.3-0.1-0.6-0.1
		c-0.3-0.1-0.7-0.1-1-0.1c-0.4,0-0.8,0.1-1.2,0.2c-2.5,0.7-4.2,3.1-4,5.7c0.3,2.7,2.5,4.7,5.2,4.8c0,0,13.8,0,13.8,0
		c1.9,0,3.6-1.2,4.2-3.1C53.7,45,52.9,43,51.2,42z M38.8,40.5c0.5-2,2.1-3.4,4.1-3.7c0.3-0.1,0.6-0.1,0.9-0.1c1.6,0,3.1,0.8,4,2.2
		c0.6,0.8,0.9,1.8,0.9,2.8c-0.1,0.7,0.4,1.4,1.1,1.6c1.3,0.4,2,1.7,1.7,2.9h0l0,0.1c-0.3,1.1-1.4,1.9-2.6,1.9c-0.1,0-0.1,0-0.2,0
		h-13l-0.1,0c-1.5,0-2.9-1-3.4-2.5c-0.5-1.3-0.2-2.8,0.9-3.7c0.7-0.6,1.5-1,2.5-1c0.5,0,1,0.1,1.5,0.3c0.5,0.2,0.8,0.3,1,0.3
		C38.4,41.7,38.5,41.3,38.8,40.5z"/>
</g>
</svg>
