<?xml version="1.0" encoding="utf-8"?>
<!-- Generator: Adobe Illustrator 21.0.2, SVG Export Plug-In . SVG Version: 6.00 Build 0)  -->
<svg version="1.1" id="Layer_1" xmlns="http://www.w3.org/2000/svg" xmlns:xlink="http://www.w3.org/1999/xlink" x="0px" y="0px"
	 viewBox="0 0 74 74" style="enable-background:new 0 0 74 74;" xml:space="preserve">
<style type="text/css">
	.st0{fill:none;stroke:#006FAF;stroke-width:2;stroke-miterlimit:10;}
	.st1{fill:none;}
	.st2{fill-rule:evenodd;clip-rule:evenodd;fill:none;stroke:#006FAF;stroke-width:2;stroke-miterlimit:10;}
	.st3{fill:#FFFFFF;}
	.st4{fill:#006FAF;}
	.st5{fill-rule:evenodd;clip-rule:evenodd;fill:none;stroke:#006699;stroke-width:2;stroke-miterlimit:10;}
	.st6{fill:#006FAF;stroke:#006FAF;stroke-width:0.5;stroke-miterlimit:10;}
	.st7{fill:none;stroke:#006FAF;stroke-width:1.75;stroke-miterlimit:10;}
	.st8{fill:none;stroke:#006FAF;stroke-width:1.5;stroke-miterlimit:10;}
	.st9{fill:#006FAF;stroke:#006FAF;stroke-width:2;stroke-miterlimit:10;}
	.st10{fill:#006FAF;stroke:#006FAF;stroke-miterlimit:10;}
	.st11{fill:none;stroke:#006FAF;stroke-width:2;stroke-linecap:round;stroke-miterlimit:10;}
	.st12{fill:none;stroke:#006FAF;stroke-width:2;stroke-linejoin:round;stroke-miterlimit:10;}
</style>
<circle class="st0" cx="37" cy="37" r="36"/>
<g>
	<path class="st6" d="M30.9,45c-0.3-0.2-0.8-0.1-1,0.1l-2.7,3.7l-1.9-1.9c-0.3-0.3-0.7-0.3-1,0c-0.3,0.3-0.3,0.7,0,1l2.5,2.6
		c0.1,0.1,0.3,0.2,0.5,0.2h0c0.2,0,0.4-0.1,0.5-0.3l3.2-4.4C31.3,45.7,31.2,45.2,30.9,45z"/>
	<path class="st6" d="M39.6,21c-8.8,0-16,7.2-16,16c0,1.6,0.2,3.3,0.7,4.9c-0.3,0.5-0.5,1.2-0.5,1.8c0,0.1,0,0.2,0,0.4
		c-0.4-0.1-0.8-0.1-1.2-0.1c-2.4,0-4.1,1.9-4.1,4.5c0,2.5,2,4.5,4.5,4.5h10.8c0.6,0,1.2-0.1,1.7-0.4c1.3,0.3,2.6,0.5,3.9,0.5
		c8.8,0,16-7.2,16-16S48.3,21,39.6,21z M23.1,51.9c-1.9,0-3.5-1.6-3.5-3.5c0-1.8,0.9-3.5,3.1-3.5c0.6,0,1.2,0.1,1.7,0.4
		c0.2,0.1,0.5,0,0.7-0.2c0.1-0.2,0.1-0.4-0.1-0.6c-0.1-0.3-0.1-0.6-0.1-0.9c0-1.9,2-3.5,4.6-3.5s4.6,1.5,4.6,3.5
		c0,0.2,0,0.5-0.1,0.7c0,0.2,0.1,0.5,0.3,0.6c1.3,0.3,2.7,1.8,2.7,3.5c0,1.9-1.3,3.5-2.9,3.5L23.1,51.9L23.1,51.9z M39.6,52
		c-1,0-2-0.1-2.9-0.3c0.7-0.8,1.2-1.9,1.2-3.2c0-2-1.5-3.7-3-4.3c0-0.2,0-0.3,0-0.5c0-2.5-2.5-4.5-5.5-4.5c-1.7,0-3.3,0.6-4.3,1.6
		c-0.3-1.2-0.5-2.5-0.5-3.9c0-8.3,6.7-15,15-15s15,6.7,15,15S47.8,52,39.6,52z"/>
	<path class="st6" d="M39.6,30.8c-3.4,0-6.2,2.8-6.2,6.2s2.8,6.2,6.2,6.2s6.2-2.8,6.2-6.2S42.9,30.8,39.6,30.8z M39.6,42.2
		c-2.9,0-5.2-2.3-5.2-5.2s2.3-5.2,5.2-5.2s5.2,2.3,5.2,5.2S42.4,42.2,39.6,42.2z"/>
	<path class="st6" d="M39.6,33.7c-1.8,0-3.2,1.4-3.2,3.2s1.4,3.2,3.2,3.2s3.2-1.4,3.2-3.2S41.3,33.7,39.6,33.7z M39.6,39.2
		c-1.2,0-2.2-1-2.2-2.2s1-2.2,2.2-2.2s2.2,1,2.2,2.2S40.7,39.2,39.6,39.2z"/>
</g>
</svg>
