<?xml version="1.0" encoding="utf-8"?>
<!-- Generator: Adobe Illustrator 21.0.2, SVG Export Plug-In . SVG Version: 6.00 Build 0)  -->
<svg version="1.1" id="Layer_1" xmlns="http://www.w3.org/2000/svg" xmlns:xlink="http://www.w3.org/1999/xlink" x="0px" y="0px"
	 viewBox="0 0 75 75" style="enable-background:new 0 0 75 75;" xml:space="preserve">
<style type="text/css">
	.st0{fill:none;stroke:#006FAF;stroke-width:2;stroke-miterlimit:10;}
	.st1{fill:none;stroke:#006FAF;stroke-width:1.6;stroke-linecap:round;stroke-miterlimit:10;}
</style>
<circle class="st0" cx="37.5" cy="37.5" r="36"/>
<g>
	<path class="st1" d="M29.4,37.8l-1.3,0.9c0,0-1,0.9,0.2,1.4l7.7,3.4c0,0,1.5,0.8,3.1,0l7.5-3.4c0,0,1.7-0.6,0.3-1.1l-1.4-0.6"/>
	<path class="st1" d="M29.4,33l-1.3,0.9c0,0-1,0.9,0.2,1.4l7.7,3.4c0,0,1.5,0.8,3.1,0l7.5-3.4c0,0,1.7-0.6,0.3-1.1l-1.4-0.6"/>
	<path class="st1" d="M45,28.4l1.9,0.8c0.9,0.7-0.3,1.2-0.3,1.2l-7.4,3.4c-1.8,0.9-3.5,0-3.5,0l-6.9-3c0,0-0.1,0-0.1,0
		c-2.1-1,0.4-1.9,0.4-1.9l7.3-3.3c1-0.4,1.7,0,1.7,0l2.1,0.9L45,28.4z"/>
	<g>
		<line class="st1" x1="49.2" y1="34.2" x2="56.4" y2="34.2"/>
		<circle class="st1" cx="58.6" cy="34.2" r="1.4"/>
	</g>
	<g>
		<line class="st1" x1="25.8" y1="34.2" x2="18.6" y2="34.2"/>
		<circle class="st1" cx="16.4" cy="34.2" r="1.4"/>
	</g>
	<g>
		<line class="st1" x1="37.3" y1="45.7" x2="37.3" y2="52.9"/>
		<circle class="st1" cx="37.3" cy="55.1" r="1.4"/>
	</g>
	<g>
		<line class="st1" x1="37.3" y1="29.3" x2="37.3" y2="22.1"/>
		<circle class="st1" cx="37.3" cy="19.9" r="1.4"/>
	</g>
</g>
</svg>
