<?xml version="1.0" encoding="utf-8"?>
<!-- Generator: Adobe Illustrator 21.0.2, SVG Export Plug-In . SVG Version: 6.00 Build 0)  -->
<svg version="1.1" id="Layer_1" xmlns="http://www.w3.org/2000/svg" xmlns:xlink="http://www.w3.org/1999/xlink" x="0px" y="0px"
	 viewBox="0 0 74 74" style="enable-background:new 0 0 74 74;" xml:space="preserve">
<style type="text/css">
	.st0{fill:none;stroke:#006FAF;stroke-width:2;stroke-miterlimit:10;}
	.st1{fill:none;}
	.st2{fill-rule:evenodd;clip-rule:evenodd;fill:none;stroke:#006FAF;stroke-width:2;stroke-miterlimit:10;}
	.st3{fill:#FFFFFF;}
	.st4{fill:#006FAF;}
	.st5{fill-rule:evenodd;clip-rule:evenodd;fill:none;stroke:#006699;stroke-width:2;stroke-miterlimit:10;}
	.st6{fill:#006FAF;stroke:#006FAF;stroke-width:0.5;stroke-miterlimit:10;}
	.st7{fill:none;stroke:#006FAF;stroke-width:1.75;stroke-miterlimit:10;}
	.st8{fill:none;stroke:#006FAF;stroke-width:1.5;stroke-miterlimit:10;}
	.st9{fill:#006FAF;stroke:#006FAF;stroke-width:2;stroke-miterlimit:10;}
	.st10{fill:#006FAF;stroke:#006FAF;stroke-miterlimit:10;}
	.st11{fill:none;stroke:#006FAF;stroke-width:2;stroke-linecap:round;stroke-miterlimit:10;}
	.st12{fill:none;stroke:#006FAF;stroke-width:2;stroke-linejoin:round;stroke-miterlimit:10;}
</style>
<circle class="st2" cx="37" cy="37" r="36"/>
<g>
	<path class="st6" d="M54.8,48V27.1c0-1.3-1-2.3-2.3-2.3h-7.9c-2-1.9-4.5-3-7.4-3.1c-3-0.1-5.9,1.1-7.9,3.1h-7.8
		c-1.3,0-2.3,1-2.3,2.3V48H17v1.8l1.7,2.4h36.6l1.7-2.4V48L54.8,48L54.8,48z M20.1,27.1c0-0.7,0.6-1.3,1.4-1.3h7
		c-0.9,1-1.6,2.3-2,3.6l0.9,0.3c1.3-4.3,5.4-7.1,9.9-7c4.5,0.1,8.4,3.3,9.5,7.6h-2.8l3.4,4.4l3.4-4.4h-3c-0.4-1.7-1.2-3.2-2.3-4.5
		h7.2c0.7,0,1.4,0.6,1.4,1.3V48H20.1V27.1z M48.8,31.1l-1.5,2l-1.5-2H48.8z M56,49.5l-1.2,1.7H19.2L18,49.5v-0.6h38.1L56,49.5
		L56,49.5z"/>
	<path class="st6" d="M31.2,34.3c0.1,0.5,0.3,0.9,0.5,1.3L31,36.9l1.8,1.8l1.2-0.9c0.4,0.2,0.9,0.4,1.3,0.5l0.2,1.4H38l0.2-1.4
		c0.5-0.1,0.9-0.3,1.3-0.5l1.2,0.8l1.8-1.8l-0.9-1.2c0.2-0.4,0.4-0.9,0.5-1.3l1.4-0.2v-2.5l-1.4-0.2c-0.1-0.5-0.3-0.9-0.5-1.3
		l0.8-1.2l-1.8-1.8l-1.2,0.9c-0.4-0.2-0.9-0.4-1.3-0.5L38,25.8h-2.5l-0.2,1.4c-0.5,0.1-0.9,0.3-1.3,0.5L32.7,27l-1.8,1.7l0.9,1.2
		c-0.2,0.4-0.4,0.9-0.5,1.3l-1.4,0.2V34L31.2,34.3z M32,32.1l0.1-0.3c0.1-0.5,0.4-1.1,0.7-1.6l0.2-0.2l-0.7-1l0.7-0.7L34,29l0.2-0.2
		c0.5-0.3,1-0.5,1.6-0.7l0.3-0.1l0.2-1.3h1l0.2,1.3l0.3,0.1c0.5,0.1,1.1,0.4,1.6,0.7l0.2,0.2l1-0.7l0.7,0.7L40.7,30l0.2,0.2
		c0.3,0.5,0.5,1,0.7,1.6l0.1,0.3l1.3,0.2v1l-1.3,0.1l-0.1,0.3c-0.1,0.6-0.4,1.1-0.7,1.6l-0.2,0.2l0.7,1l-0.7,0.7l-1-0.7l-0.2,0.2
		c-0.5,0.3-1,0.5-1.6,0.7l-0.3,0.1l-0.2,1.3h-1l-0.2-1.3l-0.3-0.1c-0.5-0.1-1.1-0.4-1.6-0.7l-0.3-0.2l-1,0.7l-0.7-0.7l0.7-1.1
		l-0.2-0.2c-0.3-0.5-0.5-1-0.7-1.6L32,33.5l-1.3-0.2v-1L32,32.1z"/>
	<path class="st6" d="M36.8,35.9L36.8,35.9c1.8,0,3.2-1.5,3.2-3.2c0-1.7-1.4-3.2-3.2-3.2s-3.2,1.5-3.2,3.2
		C33.6,34.5,35,35.9,36.8,35.9z M36.8,30.5c1.2,0,2.3,1,2.3,2.3c0,1.2-1,2.3-2.3,2.3v0.5V35c-1.2,0-2.3-1-2.3-2.3
		C34.5,31.5,35.5,30.5,36.8,30.5z"/>
	<path class="st6" d="M36.8,42.9c-4.5-0.1-8.4-3.3-9.5-7.6h2.8l-3.4-4.4l-3.4,4.4h3c1.1,4.8,5.4,8.4,10.4,8.5c0.1,0,0.2,0,0.3,0
		c4.8,0,9-3.1,10.5-7.6l-0.9-0.3C45.4,40,41.3,43,36.8,42.9z M26.8,32.3l1.5,2h-3L26.8,32.3z"/>
</g>
</svg>
