<?xml version="1.0" encoding="utf-8"?>
<!-- Generator: Adobe Illustrator 21.0.2, SVG Export Plug-In . SVG Version: 6.00 Build 0)  -->
<svg version="1.1" id="Layer_1" xmlns="http://www.w3.org/2000/svg" xmlns:xlink="http://www.w3.org/1999/xlink" x="0px" y="0px"
	 viewBox="0 0 75 75" style="enable-background:new 0 0 75 75;" xml:space="preserve">
<style type="text/css">
	.st0{fill:none;stroke:#006FAF;stroke-width:2;stroke-miterlimit:10;}
	.st1{fill:#006FAF;}
</style>
<circle class="st0" cx="37.5" cy="37.5" r="36"/>
<g>
	<path class="st1" d="M27.9,46.2c-3.3,0-5.2-1.9-5.2-5.2V28.8c0-3,1.9-5,4.7-5.1c3.3,0,6.7-0.1,10-0.1c3.3,0,6.6,0,10,0
		c2.9,0.1,4.8,2.1,4.9,5.1c0.1,4.1,0.1,8.3,0,12.4c-0.1,3.2-2,5.1-5.3,5.1H27.9z M27.9,25.6c-2.2,0.1-3.4,1.2-3.4,3.4
		c0,4.1,0,7.9-0.1,11.8c0,2.5,1.1,3.6,3.6,3.6h18.8c2.2,0,3.4-1.2,3.4-3.4c0.1-4,0.1-8,0-12c0-2.2-1.2-3.4-3.4-3.4H27.9L27.9,25.6z"
		/>
	<path class="st1" d="M19,51.3c-0.1,0-0.2,0-0.3,0c-0.4-0.1-0.7-0.3-0.8-0.8c-0.1-0.5,0.2-0.8,0.7-1c0.4-0.1,0.9-0.1,1.2-0.1h35.4
		c0.1,0,0.7,0,0.8,0c0.1,0,0.2,0,0.3,0c0.3,0,0.5,0.1,0.6,0.2c0.1,0.1,0.2,0.3,0.2,0.6c0,0.3-0.1,0.6-0.2,0.7
		c-0.2,0.2-0.4,0.2-0.6,0.2H19.8C19.7,51.3,19.1,51.3,19,51.3z"/>
	<path class="st1" d="M36.8,35.4l4.1,4.1c-0.5,0.5-1.2,1-1.9,1.3s-1.5,0.5-2.2,0.5c-1,0-2-0.3-2.9-0.8s-1.6-1.2-2.1-2.1
		c-0.5-0.9-0.8-1.9-0.8-2.9c0-1,0.3-2,0.8-2.9c0.5-0.9,1.2-1.6,2.1-2.1s1.9-0.8,2.9-0.8V35.4z M38.2,35.4H44c0,0.8-0.2,1.5-0.5,2.2
		c-0.3,0.7-0.7,1.3-1.3,1.9L38.2,35.4z M43.5,34.5h-5.8v-5.8c1,0,2,0.3,2.9,0.8s1.6,1.2,2.1,2.1C43.3,32.5,43.5,33.4,43.5,34.5z"/>
</g>
</svg>
