<?xml version="1.0" encoding="utf-8"?>
<!-- Generator: Adobe Illustrator 21.0.2, SVG Export Plug-In . SVG Version: 6.00 Build 0)  -->
<svg version="1.1" id="Layer_1" xmlns="http://www.w3.org/2000/svg" xmlns:xlink="http://www.w3.org/1999/xlink" x="0px" y="0px"
	 viewBox="0 0 74 74" style="enable-background:new 0 0 74 74;" xml:space="preserve">
<style type="text/css">
	.st0{fill:none;stroke:#006FAF;stroke-width:2;stroke-miterlimit:10;}
	.st1{fill:none;}
	.st2{fill:#006FAF;}
</style>
<title>Cloud &amp;amp; Infrastructure Services</title>
<circle class="st0" cx="37" cy="37" r="36"/>
<rect x="20" y="20" class="st1" width="34" height="34"/>
<rect x="20" y="20" class="st1" width="34" height="34"/>
<g>
	<path class="st2" d="M52.4,26.4c-2.1-3.7-5.8-6.3-10.2-7.3c-4.2-0.9-8.8-0.3-12.9,1.7c-0.3-0.2-0.6-0.4-0.9-0.6
		c-1.5-0.7-3.7-1-6.3,1.5c-0.7,0.5-6.1,5.3,2.1,21C31,53.6,36.6,55.3,39.3,55.3c1,0,1.6-0.2,1.8-0.3c2.7-0.8,4.2-2.4,4.4-4.7
		c0-0.4,0-0.7,0-1.1c3.8-2.5,6.7-6.2,8-10.3C54.9,34.5,54.5,30.1,52.4,26.4z M30.6,29.3c-0.4,1.2-1.4,1.8-2.9,1.9l-0.5,0l-0.3,0.4
		c-2.3,3,1,8.2,1.4,8.7c0.3,0.6,3.1,6.1,6.9,5.6l0.4-0.1l0.2-0.4c0.8-1.3,1.8-1.9,3.1-1.6c1.2,0.2,2.4,1.1,3.4,2.4
		c1,1.3,1.5,2.7,1.4,4c-0.1,1.5-1.2,2.5-3.1,3.1l-0.1,0c-0.1,0-5.9,2.5-14.7-11.5c-7.7-14.6-2.7-18.5-2.6-18.5l0.1-0.1
		c1-1,2-1.4,3-1.4c0.4,0,0.9,0.1,1.3,0.3c1.1,0.5,2.1,1.7,2.7,3.2C30.8,26.6,31,28.2,30.6,29.3z M39.3,41.9
		c-1.9-0.4-3.6,0.4-4.8,2.1c-2.4-0.2-4.5-4.4-4.6-4.6l-0.1-0.1c0,0-2.8-4.1-1.7-6.3c2.1-0.2,3.6-1.3,4.2-3.1
		c0.5-1.6,0.4-3.6-0.4-5.5c-0.3-0.8-0.8-1.6-1.3-2.2c3.6-1.6,7.4-2.1,11.1-1.3c3.9,0.9,7.1,3.1,9,6.4c1.9,3.2,2.2,7.1,1,11
		c-1.1,3.5-3.5,6.7-6.7,8.9c-0.3-0.8-0.7-1.5-1.2-2.2C42.6,43.4,40.9,42.3,39.3,41.9z"/>
	<path class="st2" d="M44.8,37.1h1.7v-2h1.1v-1.6h-1.1v-5.4h-1.4l-4,5.7v1.4h3.6V37.1z M44.8,31.2v2.3h-1.6L44.8,31.2z"/>
	<path class="st2" d="M38.5,34.4c0.8-0.6,1.3-1.1,1.6-1.5c0.3-0.4,0.6-0.8,0.7-1.1c0.2-0.4,0.2-0.7,0.2-1.1c0-0.8-0.3-1.4-0.8-1.9
		C39.7,28.3,39,28,38.1,28c-0.9,0-1.6,0.2-2.1,0.7c-0.5,0.5-0.9,1.2-0.9,2l0,0.3l1.8,0.2l0-0.4c0-0.4,0.1-0.8,0.3-1
		c0.2-0.2,0.5-0.3,0.9-0.3c0.4,0,0.7,0.1,0.9,0.3c0.2,0.2,0.3,0.5,0.3,0.8c0,0.3-0.1,0.7-0.4,1c-0.3,0.4-0.9,1-1.8,1.7
		c-0.6,0.5-1.1,0.9-1.4,1.3c-0.3,0.4-0.6,0.8-0.7,1.2c-0.1,0.3-0.2,0.6-0.1,0.8l0,0.3h6.2v-1.7h-3.7C37.5,35.3,37.9,34.9,38.5,34.4z
		"/>
</g>
</svg>
