<?xml version="1.0" encoding="utf-8"?>
<!-- Generator: Adobe Illustrator 21.0.2, SVG Export Plug-In . SVG Version: 6.00 Build 0)  -->
<svg version="1.1" id="Layer_1" xmlns="http://www.w3.org/2000/svg" xmlns:xlink="http://www.w3.org/1999/xlink" x="0px" y="0px"
	 viewBox="0 0 74 74" style="enable-background:new 0 0 74 74;" xml:space="preserve">
<style type="text/css">
	.st0{fill:none;stroke:#006FAF;stroke-width:2;stroke-miterlimit:10;}
	.st1{fill:none;stroke:#006FAF;stroke-width:2;stroke-linecap:round;stroke-linejoin:round;}
</style>
<title>Cloud &amp;amp; Infrastructure Services</title>
<circle class="st0" cx="37" cy="37" r="36"/>
<path id="path5576-8-7-6" class="st1" d="M30.5,22.8c3.2-2.4,7.1-0.7,8.7,3.8c1.7,4.5,0.5,10.2-2.7,12.6c-3.2,2.4-7.1,0.7-8.7-3.8
	C26.1,30.9,27.3,25.2,30.5,22.8"/>
<path id="path7-0-5-5-61-9-8-9-0" class="st1" d="M30.2,39.1c-2.5,1.5-5.6,2.5-7.5,3.5c-2,1-3.6,4.7-3.6,7.7c3.9,1.7,11.4,2,14.6,2
	c0.8,0,1.9,0,3.1-0.1c0.6,0,1.2-0.1,1.9-0.1"/>
<path id="path375-2" class="st1" d="M38.2,42.3v3.4h1.9c0.6,0,1.1,1.3,0.7,1.8l-1.3,1.3l2.4,2.4l1.3-1.3c0.5-0.5,1.8,0.1,1.8,0.8
	v1.8h3.4v-1.8c0-0.7,1.3-1.2,1.8-0.8l1.3,1.3l2.4-2.4l-1.3-1.3c-0.4-0.4,0.1-1.8,0.7-1.8H55v-3.4h-1.9c-0.6,0-1.2-1.3-0.7-1.7
	l1.4-1.4l-2.4-2.4l-1.4,1.4c-0.4,0.4-1.7-0.1-1.7-0.7v-2h-3.4v2c0,0.6-1.2,1.1-1.7,0.7l-1.4-1.4l-2.4,2.4l1.4,1.4
	c0.4,0.4-0.1,1.7-0.7,1.7H38.2z"/>
<path id="path4318-4" class="st1" d="M43.6,43.9c0-1.7,1.3-3,3-3c1.7,0,3,1.3,3,3s-1.3,3-3,3C45,46.9,43.6,45.6,43.6,43.9z"/>
</svg>
