<?xml version="1.0" encoding="utf-8"?>
<!-- Generator: Adobe Illustrator 21.0.2, SVG Export Plug-In . SVG Version: 6.00 Build 0)  -->
<svg version="1.1" id="Layer_1" xmlns="http://www.w3.org/2000/svg" xmlns:xlink="http://www.w3.org/1999/xlink" x="0px" y="0px"
	 viewBox="0 0 75 75" style="enable-background:new 0 0 75 75;" xml:space="preserve">
<style type="text/css">
	.st0{fill:none;stroke:#006FAF;stroke-width:2;stroke-miterlimit:10;}
	.st1{fill:#006FAF;}
</style>
<circle class="st0" cx="37.5" cy="37.5" r="36"/>
<path class="st1" d="M28.1,21.2c0-0.1,0.1-0.2,0.2-0.2h0.9c0.1,0,0.2,0.1,0.2,0.2s-0.1,0.2-0.2,0.2h-0.9
	C28.2,21.4,28.1,21.3,28.1,21.2z M31.8,21.4h0.9c0.1,0,0.2-0.1,0.2-0.2S32.8,21,32.7,21h-0.9c-0.1,0-0.2,0.1-0.2,0.2
	S31.6,21.4,31.8,21.4z M30,21.4h0.9c0.1,0,0.2-0.1,0.2-0.2S31,21,30.9,21H30c-0.1,0-0.2,0.1-0.2,0.2S29.9,21.4,30,21.4z M29.2,25.4
	h-0.9c-0.1,0-0.2,0.1-0.2,0.2s0.1,0.2,0.2,0.2h0.9c0.1,0,0.2-0.1,0.2-0.2C29.4,25.5,29.3,25.4,29.2,25.4z M32.7,25.4h-0.9
	c-0.1,0-0.2,0.1-0.2,0.2s0.1,0.2,0.2,0.2h0.9c0.1,0,0.2-0.1,0.2-0.2S32.8,25.4,32.7,25.4z M30.9,25.4H30c-0.1,0-0.2,0.1-0.2,0.2
	s0.1,0.2,0.2,0.2h0.9c0.1,0,0.2-0.1,0.2-0.2C31.1,25.5,31,25.4,30.9,25.4z M30,30.2h0.9c0.1,0,0.2-0.1,0.2-0.2
	c0-0.1-0.1-0.2-0.2-0.2H30c-0.1,0-0.2,0.1-0.2,0.2C29.8,30.1,29.9,30.2,30,30.2z M31.8,30.2h0.9c0.1,0,0.2-0.1,0.2-0.2
	c0-0.1-0.1-0.2-0.2-0.2h-0.9c-0.1,0-0.2,0.1-0.2,0.2C31.6,30.1,31.6,30.2,31.8,30.2z M28.3,30.2h0.9c0.1,0,0.2-0.1,0.2-0.2
	c0-0.1-0.1-0.2-0.2-0.2h-0.9c-0.1,0-0.2,0.1-0.2,0.2C28.1,30.1,28.2,30.2,28.3,30.2z M51.7,19.8v2.8c0,0.2-0.2,0.4-0.4,0.4h-0.4v0.8
	h0.4c0.2,0,0.4,0.2,0.4,0.4V27c0,0.2-0.2,0.4-0.4,0.4h-0.4v0.8h0.4c0.2,0,0.4,0.2,0.4,0.4v2.8c0,0.2-0.2,0.4-0.4,0.4H41.2
	c-0.2,0-0.4-0.2-0.4-0.4v-2.8c0-0.2,0.2-0.4,0.4-0.4h0.4v-0.8h-0.4c-0.2,0-0.4-0.2-0.4-0.4v-1h-1.9c-0.1,0.4-0.5,0.8-0.9,0.9v1
	l1.1,1.8c0.1,0.1,0.1,0.2,0.1,0.3c0,0.2-0.2,0.4-0.4,0.4c0,0,0,0,0,0h-0.7V33h0.7c0.1,0,0.3,0.1,0.4,0.2s0.1,0.3,0,0.4l-1.1,1.9v0.8
	h9.8c0.5,0,0.8,0.4,0.8,0.8V51l1.7,3.4c0.1,0.3,0.1,0.6,0,0.8c-0.1,0.2-0.4,0.4-0.7,0.4H25.5c-0.3,0-0.5-0.1-0.7-0.4
	c-0.1-0.2-0.2-0.5,0-0.8l1.7-3.4V37.1c0-0.5,0.4-0.8,0.8-0.8h9.8v-0.8L36,33.6c-0.1-0.1-0.1-0.3,0-0.4c0.1-0.1,0.2-0.2,0.4-0.2h0.7
	v-2.5h-0.7c-0.1,0-0.3-0.1-0.4-0.2s-0.1-0.3,0-0.4l1.1-1.9v-1c-0.4-0.1-0.8-0.5-0.9-0.9h-1.9v1c0,0.2-0.2,0.4-0.4,0.4h-0.4v0.8h0.4
	c0.2,0,0.4,0.2,0.4,0.4v2.8c0,0.2-0.2,0.4-0.4,0.4H23.7c-0.2,0-0.4-0.2-0.4-0.4v-2.8c0-0.2,0.2-0.4,0.4-0.4h0.4v-0.8h-0.4
	c-0.2,0-0.4-0.2-0.4-0.4v-2.8c0-0.2,0.2-0.4,0.4-0.4h0.4V23h-0.4c-0.2,0-0.4-0.2-0.4-0.4v-2.8c0-0.2,0.2-0.4,0.4-0.4h10.1
	c0.2,0,0.4,0.2,0.4,0.4v2.8c0,0.2-0.2,0.4-0.4,0.4h-0.4v0.8h0.4c0.2,0,0.4,0.2,0.4,0.4v1h1.9c0.2-0.6,0.7-1,1.3-1s1.1,0.4,1.3,1h1.9
	v-1c0-0.2,0.2-0.4,0.4-0.4h0.4V23h-0.4c-0.2,0-0.4-0.2-0.4-0.4v-2.8c0-0.2,0.2-0.4,0.4-0.4h10.1C51.5,19.3,51.7,19.5,51.7,19.8z
	 M24.1,22.2h9.3v-2h-9.3V22.2z M25,23.8h7.6V23H25V23.8z M33.4,29h-9.3v2h9.3V29z M32.6,27.4H25v0.8h7.6L32.6,27.4L32.6,27.4z
	 M33.4,24.6h-9.3v2h9.3V24.6z M48.2,54l-1-2H27.8l-1,2H48.2z M46.9,37.9H28.1v12.5h18.8L46.9,37.9L46.9,37.9z M37.9,33.8h-0.9
	l0.4,0.8L37.9,33.8z M37.9,29.6l-0.4-0.8l-0.4,0.8H37.9z M38.1,25.6c0-0.3-0.3-0.6-0.6-0.6s-0.6,0.3-0.6,0.6s0.3,0.6,0.6,0.6
	S38.1,25.9,38.1,25.6z M50.9,29h-9.3v2h9.3V29z M50,27.4h-7.6v0.8H50L50,27.4L50,27.4z M50.9,24.6h-9.3v2h9.3V24.6z M50,23h-7.6v0.8
	H50L50,23L50,23z M50.9,20.2h-9.3v2h9.3V20.2z M47.5,21.4h0.9c0.1,0,0.2-0.1,0.2-0.2S48.5,21,48.4,21h-0.9c-0.1,0-0.2,0.1-0.2,0.2
	S47.3,21.4,47.5,21.4z M49.2,21.4h0.9c0.1,0,0.2-0.1,0.2-0.2S50.2,21,50.1,21h-0.9c-0.1,0-0.2,0.1-0.2,0.2S49.1,21.4,49.2,21.4z
	 M45.7,21.4h0.9c0.1,0,0.2-0.1,0.2-0.2S46.7,21,46.6,21h-0.9c-0.1,0-0.2,0.1-0.2,0.2S45.6,21.4,45.7,21.4z M47.5,25.8h0.9
	c0.1,0,0.2-0.1,0.2-0.2s-0.1-0.2-0.2-0.2h-0.9c-0.1,0-0.2,0.1-0.2,0.2C47.3,25.7,47.3,25.8,47.5,25.8z M49.2,25.8h0.9
	c0.1,0,0.2-0.1,0.2-0.2s-0.1-0.2-0.2-0.2h-0.9c-0.1,0-0.2,0.1-0.2,0.2C49,25.7,49.1,25.8,49.2,25.8z M45.7,25.8h0.9
	c0.1,0,0.2-0.1,0.2-0.2s-0.1-0.2-0.2-0.2h-0.9c-0.1,0-0.2,0.1-0.2,0.2C45.5,25.7,45.6,25.8,45.7,25.8z M45.7,30.2h0.9
	c0.1,0,0.2-0.1,0.2-0.2c0-0.1-0.1-0.2-0.2-0.2h-0.9c-0.1,0-0.2,0.1-0.2,0.2C45.5,30.1,45.6,30.2,45.7,30.2z M49.2,30.2h0.9
	c0.1,0,0.2-0.1,0.2-0.2c0-0.1-0.1-0.2-0.2-0.2h-0.9c-0.1,0-0.2,0.1-0.2,0.2C49,30.1,49.1,30.2,49.2,30.2z M47.5,30.2h0.9
	c0.1,0,0.2-0.1,0.2-0.2c0-0.1-0.1-0.2-0.2-0.2h-0.9c-0.1,0-0.2,0.1-0.2,0.2C47.3,30.1,47.3,30.2,47.5,30.2z M55.5,25.6
	c0,0.4-0.3,0.7-0.7,0.7c-0.4,0-0.7-0.3-0.7-0.7c0-0.4,0.3-0.7,0.7-0.7C55.2,24.9,55.5,25.2,55.5,25.6z M20.9,25.6
	c0,0.4-0.3,0.7-0.7,0.7c-0.4,0-0.7-0.3-0.7-0.7c0-0.4,0.3-0.7,0.7-0.7C20.6,24.9,20.9,25.2,20.9,25.6z M53.5,25.6
	c0,0.4-0.3,0.7-0.7,0.7c-0.4,0-0.7-0.3-0.7-0.7c0-0.4,0.3-0.7,0.7-0.7C53.2,24.9,53.5,25.2,53.5,25.6z M22.8,25.6
	c0,0.4-0.3,0.7-0.7,0.7c-0.4,0-0.7-0.3-0.7-0.7c0-0.4,0.3-0.7,0.7-0.7C22.5,24.9,22.8,25.2,22.8,25.6z M30.1,43.3
	c0-0.9,0.7-1.5,1.5-1.5c0.5,0,1,0.3,1.2,0.6l6.9-0.8c0.1-1,0.9-1.7,1.9-1.7c1.1,0,1.9,0.9,1.9,1.9c0,1.1-0.8,1.9-1.9,1.9l-0.9,3.4
	c0.4,0.2,0.7,0.7,0.7,1.2c0,0.8-0.6,1.4-1.4,1.4c-0.7,0-1.3-0.6-1.4-1.3l-6.2-3.9c-0.3,0.2-0.6,0.4-1,0.4
	C30.8,44.8,30.1,44.1,30.1,43.3z M40.7,48.3c0-0.3-0.3-0.6-0.6-0.6c-0.3,0-0.6,0.3-0.6,0.6c0,0.3,0.3,0.6,0.6,0.6
	C40.5,48.9,40.7,48.6,40.7,48.3z M40.5,41.7c0,0.6,0.5,1.1,1.1,1.1c0.6,0,1.1-0.5,1.1-1.1s-0.5-1.1-1.1-1.1
	C41,40.6,40.5,41.1,40.5,41.7z M33.1,43.1c0,0,0,0.1,0,0.1c0,0.2,0,0.3-0.1,0.5l5.9,3.8c0.2-0.3,0.6-0.6,1-0.6l0.9-3.4
	c-0.5-0.2-0.9-0.7-1.1-1.2L33.1,43.1z M30.9,43.3c0,0.4,0.3,0.7,0.7,0.7c0.4,0,0.7-0.3,0.7-0.7c0-0.4-0.3-0.7-0.7-0.7
	C31.2,42.5,30.9,42.9,30.9,43.3z"/>
</svg>
