<?xml version="1.0" encoding="utf-8"?>
<!-- Generator: Adobe Illustrator 21.0.0, SVG Export Plug-In . SVG Version: 6.00 Build 0)  -->
<svg version="1.1" id="Layer_1" xmlns="http://www.w3.org/2000/svg" xmlns:xlink="http://www.w3.org/1999/xlink" x="0px" y="0px"
	 viewBox="0 0 74 74" style="enable-background:new 0 0 74 74;" xml:space="preserve">
<style type="text/css">
	.st0{fill:none;stroke:#006FAF;stroke-width:2;stroke-miterlimit:10;}
</style>
<title>python</title>
<g>
	<circle class="st0" cx="37" cy="37" r="36"/>
	<g id="Layer_75">
		<path class="st0" d="M46.8,29.6h2.5c2,0,3.7,1.7,3.7,3.7V37c0,2-1.7,3.7-3.7,3.7H24.7c-2,0-3.7,1.7-3.7,3.7v2.5
			c0,2,1.7,3.7,3.7,3.7H53"/>
		<path class="st0" d="M30.8,23.5h12.3c2,0,3.7,1.7,3.7,3.7v4.9c0,2-1.7,3.7-3.7,3.7H30.8V23.5z"/>
		<polyline class="st0" points="30.8,25.9 21,25.9 21,33.3 27.2,33.3 		"/>
	</g>
	<g id="Layer_5">
	</g>
</g>
</svg>
