<?xml version="1.0" encoding="utf-8"?>
<!-- Generator: Adobe Illustrator 21.0.2, SVG Export Plug-In . SVG Version: 6.00 Build 0)  -->
<svg version="1.1" id="Layer_1" xmlns="http://www.w3.org/2000/svg" xmlns:xlink="http://www.w3.org/1999/xlink" x="0px" y="0px"
	 viewBox="0 0 74 74" style="enable-background:new 0 0 74 74;" xml:space="preserve">
<style type="text/css">
	.st0{fill:#006FAF;}
</style>
<title>control-systems</title>
<g>
	<path class="st0" d="M37,74C16.6,74,0,57.4,0,37S16.6,0,37,0s37,16.6,37,37S57.4,74,37,74z M37,2C17.7,2,2,17.7,2,37s15.7,35,35,35
		s35-15.7,35-35S56.3,2,37,2z"/>
</g>
<g>
	<path class="st0" d="M56,45.2c-0.3-0.2-0.6-0.4-1-0.4h-1.4c0.1-0.1,0.2-0.3,0.2-0.4V26c0-0.7-0.3-1.3-0.8-1.8
		c-0.5-0.5-1.1-0.8-1.8-0.8H22.7c-0.7,0-1.3,0.3-1.8,0.8c-0.5,0.5-0.8,1.1-0.8,1.8v18.5c0,0.2,0.1,0.3,0.2,0.4h-1.4
		c-0.4,0-0.7,0.1-1,0.4c-0.3,0.3-0.5,0.6-0.5,1l0,1.7c0,0.1,0,0.2,0.1,0.3l0.3,0.4c0.2,0.3,0.4,0.6,0.7,0.7c0.3,0.1,0.5,0.2,0.9,0.2
		h35.2c0.3,0,0.6-0.1,0.9-0.2c0.3-0.2,0.5-0.4,0.7-0.7l0.2-0.4c0.1-0.1,0.1-0.2,0.1-0.4v-1.7C56.5,45.8,56.3,45.5,56,45.2z
		 M55.2,47.7L55,48c-0.1,0.1-0.1,0.2-0.2,0.2c-0.1,0-0.1,0-0.2,0H19.4c-0.1,0-0.2,0-0.2,0c-0.1,0-0.1-0.1-0.2-0.2l-0.2-0.3l0-1.5
		c0,0,0.1,0,0.1,0h11.3v0c0,0.3,0.1,0.5,0.3,0.7c0.2,0.2,0.4,0.3,0.6,0.3h11.7c0.3,0,0.5-0.1,0.6-0.3c0.2-0.2,0.3-0.4,0.3-0.7v0H55
		c0.1,0,0.1,0,0.1,0V47.7z M21.5,44.4V26c0-0.3,0.1-0.6,0.4-0.9c0.2-0.2,0.5-0.4,0.9-0.4h28.5c0.3,0,0.6,0.1,0.9,0.4
		c0.2,0.2,0.4,0.5,0.4,0.9v18.5c0,0.2,0.1,0.3,0.2,0.4H21.3C21.4,44.7,21.5,44.6,21.5,44.4z M43.2,46.2L43.2,46.2
		c0,0.1,0,0.2-0.1,0.3c-0.1,0.1-0.1,0.1-0.2,0.1H31.1c-0.1,0-0.2,0-0.2-0.1c-0.1-0.1-0.1-0.2-0.1-0.3v0H43.2z"/>
	<path class="st0" d="M51.1,26.4H22.9c-0.3,0-0.5,0.2-0.5,0.5v16.9c0,0.3,0.2,0.5,0.5,0.5h28.2c0.3,0,0.5-0.2,0.5-0.5V26.9
		C51.6,26.6,51.4,26.4,51.1,26.4z M34.5,41.3c0.7-0.7,1.6-1.1,2.5-1.1c1,0,1.9,0.4,2.5,1.1c0.5,0.5,0.9,1.2,1,2h-7.1
		C33.6,42.6,33.9,41.9,34.5,41.3z M40.3,40.6c-0.9-0.9-2-1.4-3.3-1.4c-1.2,0-2.4,0.5-3.3,1.4c-0.7,0.7-1.2,1.7-1.3,2.7H32
		c0.1-1.1,0.6-2.2,1.4-3c1-1,2.2-1.5,3.6-1.5c1.4,0,2.6,0.5,3.6,1.5c0.8,0.8,1.3,1.9,1.4,3h-0.5C41.4,42.3,41,41.4,40.3,40.6z
		 M41.2,39.7c-1.1-1.1-2.6-1.8-4.2-1.8c-1.6,0-3.1,0.6-4.2,1.8c-1,1-1.6,2.3-1.7,3.6h-5v-1.2l0.1-0.1h1.9c0.2,0,0.5-0.2,0.5-0.4
		c0.1-0.3,0.2-0.7,0.3-1c0.1-0.3,0.3-0.7,0.5-1c0.1-0.2,0.1-0.4-0.1-0.6L28,37.6v-0.2l2.5-2.5h0.2l1.4,1.4c0.1,0.1,0.2,0.2,0.4,0.2
		c0.1,0,0.2,0,0.3-0.1c0.3-0.2,0.6-0.3,1-0.5c0.3-0.1,0.7-0.3,1-0.4c0.2-0.1,0.4-0.3,0.4-0.5v-1.9l0.1-0.1h3.6l0.1,0.1V35
		c0,0.2,0.2,0.5,0.4,0.5c0.3,0.1,0.7,0.2,1,0.3c0.3,0.1,0.7,0.3,1,0.5c0.1,0,0.2,0.1,0.3,0.1c0.1,0,0.3-0.1,0.4-0.1l1.4-1.4l0.1,0.1
		l2.6,2.6l0.1-0.2L46,37.6L44.6,39c-0.2,0.2-0.2,0.4-0.1,0.6c0.2,0.3,0.3,0.6,0.5,1c0.1,0.3,0.3,0.7,0.4,1c0.1,0.2,0.3,0.4,0.5,0.4
		h1.9l0.1,0.1v1.2h-5C42.8,41.9,42.2,40.7,41.2,39.7z M48.6,41.3c-0.2-0.2-0.5-0.3-0.8-0.3h-1.6c-0.1-0.3-0.2-0.5-0.3-0.8
		c-0.1-0.3-0.2-0.5-0.4-0.8l1.1-1.1c0.2-0.2,0.3-0.5,0.3-0.8c0-0.3-0.1-0.6-0.3-0.8l-2.5-2.5c-0.2-0.2-0.5-0.3-0.8-0.3
		c-0.3,0-0.6,0.1-0.8,0.3l-1.1,1.1c-0.2-0.1-0.5-0.2-0.8-0.4c-0.3-0.1-0.5-0.2-0.8-0.3v-1.6c0-0.3-0.1-0.6-0.3-0.8
		c-0.2-0.2-0.5-0.3-0.8-0.3h-3.6c-0.3,0-0.6,0.1-0.8,0.3c-0.2,0.2-0.3,0.5-0.3,0.8v1.6c-0.3,0.1-0.5,0.2-0.8,0.3
		c-0.3,0.1-0.5,0.2-0.8,0.4l-1.1-1.1c-0.2-0.2-0.5-0.3-0.8-0.3s-0.6,0.1-0.8,0.3l-2.5,2.5c-0.2,0.2-0.3,0.5-0.3,0.8
		c0,0.3,0.1,0.6,0.3,0.8l1.1,1.1c-0.1,0.2-0.2,0.5-0.4,0.8c-0.1,0.3-0.2,0.5-0.3,0.8h-1.6c-0.3,0-0.6,0.1-0.8,0.3
		c-0.2,0.2-0.3,0.5-0.3,0.8v1.2h-1.6V27.5h27.2v15.8H49v-1.2C49,41.8,48.8,41.5,48.6,41.3z"/>
	<path class="st0" d="M36.5,26.1c0.1,0.1,0.3,0.2,0.5,0.2c0.2,0,0.4-0.1,0.5-0.2v0c0.1-0.1,0.2-0.3,0.2-0.5c0-0.2-0.1-0.4-0.2-0.5
		c-0.1-0.1-0.3-0.2-0.5-0.2c-0.2,0-0.4,0.1-0.5,0.2c-0.1,0.1-0.2,0.3-0.2,0.5C36.3,25.8,36.3,26,36.5,26.1L36.5,26.1z M36.8,25.4
		L36.8,25.4c0.1-0.1,0.1-0.1,0.2-0.1c0.1,0,0.2,0,0.2,0.1l0,0c0.1,0.1,0.1,0.1,0.1,0.2c0,0.1,0,0.2-0.1,0.2l0,0
		c-0.1,0.1-0.1,0.1-0.2,0.1c-0.1,0-0.2,0-0.2-0.1l0,0c-0.1-0.1-0.1-0.1-0.1-0.2C36.7,25.5,36.7,25.4,36.8,25.4z"/>
</g>
</svg>
