<svg id="Layer_1" data-name="Layer 1" xmlns="http://www.w3.org/2000/svg" width="74" height="74" viewBox="0 0 74 74">
  <defs>
    <style>
      .cls-1, .cls-3, .cls-4 {
        fill: none;
        stroke: #006faf;
        stroke-miterlimit: 10;
      }

      .cls-1, .cls-3 {
        stroke-width: 2px;
      }

      .cls-2 {
        fill: #006faf;
      }

      .cls-3, .cls-4 {
        stroke-linecap: round;
      }
    </style>
  </defs>
  <title>devops-containerization</title>
  <circle class="cls-1" cx="37" cy="37" r="36"/>
  <g>
    <path class="cls-2" d="M28,40.47a7.4,7.4,0,0,1-5.34-2.23A7.29,7.29,0,0,1,20.4,33a7.54,7.54,0,0,1,12.9-5.39l2.13,2.13a1.11,1.11,0,0,1-1.56,1.56l-2.13-2.13A5.15,5.15,0,0,0,28,27.62a5.29,5.29,0,0,0-3.7,1.57,5.06,5.06,0,0,0-1.55,3.62,5.25,5.25,0,0,0,1.55,3.78,5.15,5.15,0,0,0,7.4,0l9-9A7.52,7.52,0,0,1,46,25.39a7.76,7.76,0,0,1,5.33,2.15,7.31,7.31,0,0,1,2.22,5.23A7.58,7.58,0,0,1,46,40.39a7.26,7.26,0,0,1-5.27-2.24L38.65,36a1.1,1.1,0,0,1,.78-1.88,1.12,1.12,0,0,1,.78.31l2.13,2.13A5.15,5.15,0,0,0,46,38.16a5,5,0,0,0,3.69-1.56A5.1,5.1,0,0,0,51.3,33a5.24,5.24,0,0,0-1.55-3.78,5.15,5.15,0,0,0-7.4,0l-9,9A7.51,7.51,0,0,1,28,40.47Z"/>
    <line class="cls-3" x1="21.33" y1="44.98" x2="52.67" y2="44.98"/>
    <line class="cls-4" x1="21.33" y1="48.61" x2="52.67" y2="48.61"/>
  </g>
</svg>
