<?xml version="1.0" encoding="utf-8"?>
<!-- Generator: Adobe Illustrator 21.0.2, SVG Export Plug-In . SVG Version: 6.00 Build 0)  -->
<svg version="1.1" id="Layer_1" xmlns="http://www.w3.org/2000/svg" xmlns:xlink="http://www.w3.org/1999/xlink" x="0px" y="0px"
	 viewBox="0 0 74 74" style="enable-background:new 0 0 74 74;" xml:space="preserve">
<style type="text/css">
	.st0{fill:#006FAF;}
</style>
<title>health-checks</title>
<g>
	<path class="st0" d="M37,0C16.6,0,0,16.6,0,37s16.6,37,37,37s37-16.6,37-37S57.4,0,37,0z M37,72C17.7,72,2,56.3,2,37S17.7,2,37,2
		s35,15.7,35,35S56.3,72,37,72z"/>
	<path class="st0" d="M22,52.4v2h12.7c-1.4-0.4-2.7-1.1-3.8-2H22z"/>
	<path class="st0" d="M42.8,53.7c-0.6,0.3-1.2,0.5-1.8,0.7H52v-2h-6.6L42.8,53.7z"/>
	<path class="st0" d="M24.6,40.5l1.1,2.2c0.6-0.4,1.2-0.6,1.9-0.6l-1.2-2.5c-2-3.9-0.5-8.7,3.4-10.9l1.9,3.7l4.8-2.6L32.3,22
		l1.2-0.6l-1.8-3.6l-7.4,3.8l1.8,3.6l1.4-0.7l1.3,2.5C24,29.7,22.1,35.6,24.6,40.5z M32.5,29.7l-2.6-5l1.2-0.6l2.6,4.9L32.5,29.7z"
		/>
	<path class="st0" d="M46.6,51.1l-0.9-1.8l-4.2,2.1c-1.9,1-4.2,1.1-6.3,0.4c-2-0.7-3.7-2.1-4.7-4c-0.4,0.5-1,0.9-1.6,1.2
		c1.3,2.2,3.2,3.8,5.7,4.7c1.1,0.4,2.2,0.5,3.3,0.5c1.6,0,3.1-0.4,4.5-1.1L46.6,51.1z"/>
	<path class="st0" d="M27.7,42.7c-1.7,0-3.1,1.4-3.1,3.1s1.4,3.1,3.1,3.1c1.7,0,3.1-1.4,3.1-3.1c0-0.2,0-0.4-0.1-0.6l12.1-6.2
		l-0.9-1.8l-12.2,6.3C29.2,43,28.5,42.7,27.7,42.7z M27.7,46.8c-0.6,0-1.1-0.5-1.1-1.1s0.5-1.1,1.1-1.1s1.1,0.5,1.1,1.1
		S28.3,46.8,27.7,46.8z"/>
	<path class="st0" d="M33,34.8c0.4,0.7,0.9,1,1.4,1c0.5,0,1-0.3,1.3-0.4c0.1-0.1,0.3-0.1,0.5-0.2c0.1-0.1,0.2-0.1,0.4-0.2
		c0.6-0.3,2-1,1.2-2.6l-0.9-1.7l-4.6,2.6L33,34.8z"/>
</g>
</svg>
