<?xml version="1.0" encoding="utf-8"?>
<!-- Generator: Adobe Illustrator 21.0.2, SVG Export Plug-In . SVG Version: 6.00 Build 0)  -->
<svg version="1.1" id="Layer_1" xmlns="http://www.w3.org/2000/svg" xmlns:xlink="http://www.w3.org/1999/xlink" x="0px" y="0px"
	 viewBox="0 0 75 75" style="enable-background:new 0 0 75 75;" xml:space="preserve">
<style type="text/css">
	.st0{fill:none;stroke:#006FAF;stroke-width:2;stroke-miterlimit:10;}
	.st1{fill:#006FAF;}
</style>
<circle class="st0" cx="37.5" cy="37.5" r="36"/>
<path class="st1" d="M49.9,33.8l1.8-0.3L51.5,33c-1.9-5.4-5.4-8.8-10.6-10.2l0.2-1c5.5,1.5,9.4,5.2,11.5,11.2l0.1,0.3l2.2-0.3
	L53,37.7L49.9,33.8z"/>
<path class="st1" d="M37,52.9l4.2-2.9l0.2,1.8l0.5-0.1c5.4-1.6,9-5,10.6-10l1,0.3c-1.7,5.4-5.7,9.1-11.7,10.8l-0.3,0.1l0.2,2.2
	L37,52.9z"/>
<path class="st1" d="M33.8,53.1c-5.6-1.4-9.4-5.2-11.5-11.1l-0.1-0.3L20,41.9l1.9-4.7l3.2,4l-1.8,0.3l0.2,0.5
	c1.9,5.4,5.5,8.8,10.6,10.1L33.8,53.1z"/>
<path class="st1" d="M21.5,33.2c1.7-5.5,5.7-9.1,11.7-10.9l0.3-0.1L33.3,20l4.7,2.1l-4.2,3l-0.2-1.8l-0.5,0.1
	c-5.5,1.6-9.1,5-10.7,10.1L21.5,33.2z"/>
<path class="st1" d="M38.2,31.2C38.2,31.1,38.2,31.1,38.2,31.2c-0.1-0.1-0.1-0.1-0.1-0.1S38,31.1,38,31c-0.1-0.1-0.2-0.1-0.3-0.1
	s-0.1,0-0.1,0c-0.1,0-0.1,0-0.1,0h-0.1c-0.1,0-0.1,0-0.1,0c-0.1,0-0.1,0.1-0.2,0.1s-0.3,0-0.4,0c0,0-0.1,0-0.1,0.1l0,0
	c0,0,0,0,0,0.1l-3.3,3.3c-0.4,0.4-0.4,1.1,0,1.5s1.1,0.4,1.5,0l1.5-1.5v8.6c0,0.6,0.5,1.1,1.1,1.1s1.1-0.5,1.1-1.1v-8.6L40,36
	c0.4,0.4,1.1,0.4,1.5,0s0.4-1.1,0-1.5L38.2,31.2z"/>
</svg>
