<?xml version="1.0" encoding="utf-8"?>
<!-- Generator: Adobe Illustrator 21.0.2, SVG Export Plug-In . SVG Version: 6.00 Build 0)  -->
<svg version="1.1" id="Layer_1" xmlns="http://www.w3.org/2000/svg" xmlns:xlink="http://www.w3.org/1999/xlink" x="0px" y="0px"
	 viewBox="0 0 75 75" style="enable-background:new 0 0 75 75;" xml:space="preserve">
<style type="text/css">
	.st0{fill:none;stroke:#006FAF;stroke-width:2;stroke-miterlimit:10;}
	.st1{fill:none;stroke:#006FAF;stroke-width:1.7;stroke-miterlimit:10;}
	.st2{fill:#006FAF;}
</style>
<circle class="st0" cx="37.5" cy="37.5" r="36"/>
<g>
	<path class="st1" d="M21.2,33.9C21.5,34.2,22.9,23.7,34,21"/>
	<polygon class="st2" points="18,32.3 20.5,38.6 24.7,33.3 	"/>
	<path class="st1" d="M34.1,53.8c0.3-0.3-10.3-1.2-13.5-12.2"/>
	<polygon class="st2" points="32.9,56.9 38.6,54.2 33.4,50.6 	"/>
	<path class="st1" d="M53.8,41.1c-0.3-0.3-1.8,10.2-12.9,12.8"/>
	<polygon class="st2" points="57,42.7 54.5,36.4 50.3,41.7 	"/>
	<path class="st1" d="M40.9,21.2c-0.3,0.3,10.2,1.3,13.5,12.2"/>
	<polygon class="st2" points="42.1,18.1 36.4,20.8 41.5,24.4 	"/>
	<g>
		<path class="st2" d="M32.6,42.2h9.8c1.8,0,2.9-1.1,2.9-2.8c0-2.1,0-4.2,0-6.4c0-1.7-1.1-2.8-2.7-2.8c-1.7,0-3.4,0-5.1,0
			c-1.7,0-3.4,0-5.1,0c-1.6,0-2.6,1.1-2.6,2.8v6.3C29.7,41.1,30.8,42.2,32.6,42.2z M42.4,31.6c1,0,1.5,0.5,1.5,1.6c0,2,0,4.1,0,6.1
			c0,1-0.5,1.5-1.6,1.5h-9.7c-1.2,0-1.7-0.5-1.7-1.6c0-2,0-4,0-6c0-1,0.5-1.5,1.5-1.6H42.4z"/>
		<path class="st2" d="M47.6,43.6c-0.1-0.1-0.2-0.2-0.4-0.2c-0.1,0-0.1,0-0.2,0c-0.1,0-0.3,0-0.4,0H28.4c-0.2,0-0.5,0-0.7,0
			c-0.4,0.1-0.5,0.4-0.5,0.7c0,0.3,0.2,0.5,0.6,0.6c0.1,0,0.1,0,0.2,0c0.1,0,0.3,0,0.4,0h18.7c0.4,0,0.7-0.3,0.7-0.7
			C47.8,43.9,47.7,43.7,47.6,43.6z"/>
	</g>
</g>
</svg>
