<?xml version="1.0" encoding="utf-8"?>
<!-- Generator: Adobe Illustrator 21.0.2, SVG Export Plug-In . SVG Version: 6.00 Build 0)  -->
<svg version="1.1" id="Layer_1" xmlns="http://www.w3.org/2000/svg" xmlns:xlink="http://www.w3.org/1999/xlink" x="0px" y="0px"
	 viewBox="0 0 74 74" style="enable-background:new 0 0 74 74;" xml:space="preserve">
<style type="text/css">
	.st0{fill:none;stroke:#006FAF;stroke-width:2;stroke-miterlimit:10;}
	.st1{fill:none;stroke:#006FAF;stroke-width:1.6;stroke-miterlimit:10;}
	.st2{fill:none;stroke:#006FAF;stroke-width:1.6;stroke-miterlimit:10;stroke-dasharray:2,2;}
	.st3{fill:none;}
	.st4{fill:#006FAF;}
</style>
<title>Cloud &amp;amp; Infrastructure Services</title>
<circle class="st0" cx="37" cy="37" r="36"/>
<g>
	<line class="st1" x1="44.8" y1="40.9" x2="44.7" y2="40.9"/>
	<path class="st2" d="M43.1,42.2c-3.7,2.5-8.4,2.5-12.1,0.1c-0.3-0.2-0.7-0.4-1-0.7"/>
	<polygon class="st3" points="21.4,48.3 21.4,47.2 20.5,47.7 	"/>
	<polygon class="st3" points="52.6,47.2 52.6,48.3 53.5,47.7 	"/>
	<path class="st4" d="M57,47.7l-6.2-3.8v2.9h-3.9c-0.2-0.8-0.7-1.6-1.5-2.2c-0.5,0.4-1.1,0.7-1.7,0.9l0.2,0.2c0.6,0.4,1.3,1.2,1.3,2
		c0,2.1-3.9,4-8.3,4c-4.4,0-8.3-1.9-8.3-4c0-0.9,0.7-1.6,1.3-2l0.1-0.1c-0.3-0.1-0.5-0.3-0.7-0.4c-0.3-0.2-0.6-0.4-0.8-0.6
		c-0.8,0.7-1.3,1.4-1.5,2.3h-3.6v-2.9L17,47.7l6.2,3.8v-2.9h3.6c0.7,2.8,4.9,4.9,10,4.9c5.1,0,9.2-2,10-4.9h3.9v2.9L57,47.7z
		 M52.6,47.2l0.9,0.6l-0.9,0.6V47.2z M21.4,48.3l-0.9-0.6l0.9-0.6V48.3z"/>
	<path class="st4" d="M30,45.6L30,45.6L30,45.6C30,45.6,30,45.6,30,45.6z"/>
	<line class="st1" x1="29.3" y1="41" x2="29.3" y2="40.9"/>
	<line class="st1" x1="38.6" y1="22.2" x2="38.7" y2="22.2"/>
	<path class="st2" d="M40.6,22.7c5.7,2,8.8,8.3,6.7,14c-0.1,0.2-0.1,0.4-0.2,0.6"/>
	<line class="st1" x1="46.7" y1="38.2" x2="46.7" y2="38.3"/>
	<line class="st1" x1="27.3" y1="38.3" x2="27.3" y2="38.3"/>
	<path class="st2" d="M26.5,36.4c-1.8-5.8,1.4-12,7.2-13.8c0.2-0.1,0.4-0.1,0.6-0.2"/>
	<line class="st1" x1="35.3" y1="22.2" x2="35.4" y2="22.2"/>
	<path class="st1" d="M35.3,22.1L35.3,22.1c0,0.9,0.7,1.6,1.6,1.6c0.9,0,1.6-0.7,1.6-1.6c0-0.9-0.7-1.6-1.6-1.6l0,0
		C36.1,20.5,35.3,21.2,35.3,22.1z"/>
	<path class="st1" d="M44.2,39.7L44.2,39.7c0,0.9,0.7,1.6,1.6,1.6s1.6-0.7,1.6-1.6s-0.7-1.6-1.6-1.6l0,0
		C45,38.1,44.2,38.8,44.2,39.7z"/>
	<path class="st1" d="M26.5,39.7L26.5,39.7c0,0.9,0.7,1.6,1.6,1.6c0.9,0,1.6-0.7,1.6-1.6s-0.7-1.6-1.6-1.6l0,0
		C27.3,38.1,26.5,38.8,26.5,39.7z"/>
</g>
</svg>
