<?xml version="1.0" encoding="utf-8"?>
<!-- Generator: Adobe Illustrator 21.0.2, SVG Export Plug-In . SVG Version: 6.00 Build 0)  -->
<svg version="1.1" id="Layer_1" xmlns="http://www.w3.org/2000/svg" xmlns:xlink="http://www.w3.org/1999/xlink" x="0px" y="0px"
	 viewBox="0 0 74 74" style="enable-background:new 0 0 74 74;" xml:space="preserve">
<style type="text/css">
	.st0{fill:none;stroke:#006FAF;stroke-width:2;stroke-miterlimit:10;}
	.st1{fill:none;}
	.st2{fill:#006FAF;}
	.st3{fill:none;stroke:#006FAF;stroke-width:2;stroke-miterlimit:22.9256;}
	.st4{fill:none;stroke:#006FAF;stroke-width:2;stroke-linecap:round;stroke-linejoin:round;stroke-miterlimit:22.9256;}
</style>
<title>Cloud &amp;amp; Infrastructure Services</title>
<circle class="st0" cx="37" cy="37" r="36"/>
<polygon class="st1" points="11.2,48.8 11.2,45.1 8.2,47 "/>
<polygon class="st1" points="63.9,45.1 63.9,48.8 66.9,47 "/>
<g>
	<path class="st1" d="M36.6,54.6c0.3,0.2,0.6,0.3,1,0.3c0.4,0,0.7-0.1,1-0.3c-0.4,0-0.9,0-1.3,0C37,54.7,36.8,54.7,36.6,54.6z"/>
	<path class="st2" d="M63,43.8l-7.2-4.5v3.6h-5.9c-0.2-1.3-1.1-2.5-2.4-3.5l-1,1.3c0.8,0.6,1.8,1.7,1.8,3c0,1.2-0.8,2.3-2.1,3.2
		c-1.8,1.2-4.5,2.1-7.6,2.4c-0.6,0-1.1,0.1-1.7,0.1c-0.4,0-0.8,0-1.3,0c-3.1-0.2-5.8-1-7.7-2.1c-1.6-1-2.5-2.2-2.5-3.5
		c0-1.3,1-2.4,1.8-3l-1-1.3c-1.3,1-2.2,2.2-2.4,3.5h-5.5v-3.6L11,43.8l7.2,4.5v-3.6h5.5c0.4,1.8,1.9,3.4,4.1,4.6
		c2.2,1.1,5.1,1.8,8.4,1.9c0.2,0,0.3,0,0.5,0c0.3,0,0.7,0,1,0c3.3-0.1,6.2-0.9,8.3-2.1c2-1.1,3.4-2.7,3.7-4.4h5.9v3.6L63,43.8z
		 M16.5,45.2l-2.4-1.5l2.4-1.5V45.2z M57.5,42.3l2.4,1.5l-2.4,1.5V42.3z"/>
	<g>
		<path class="st3" d="M28,22.9c3,0,7.3-2.4,9.1-3.8c1.8,1.5,5.9,3.8,8.8,3.8c0,4.3,0,3.5,0,7.8c0,5.8-5.3,8.5-8.9,10.7
			c-2.9-1.8-8.9-4.9-9-10.3C27.9,26.6,28,27.4,28,22.9z"/>
		<polyline class="st4" points="33.2,30 36,32.8 40.8,28 		"/>
	</g>
</g>
</svg>
