<svg id="Layer_1" data-name="Layer 1" xmlns="http://www.w3.org/2000/svg" width="74" height="74" viewBox="0 0 74 74">
  <defs>
    <style>
      .cls-1 {
        fill: none;
        stroke: #006faf;
        stroke-miterlimit: 10;
        stroke-width: 2px;
      }

      .cls-2 {
        fill: #006faf;
      }
    </style>
  </defs>
  <title>ene-to-end-devops</title>
  <circle class="cls-1" cx="37" cy="37" r="36"/>
  <g>
    <path class="cls-2" d="M31.88,48.47a2.41,2.41,0,1,0,4.83,0V43.33H37v5.14a2.41,2.41,0,1,0,4.83,0V41.23a4.89,4.89,0,0,0,.9-2.84V32.81a5,5,0,0,0-3.18-4.61,4.09,4.09,0,1,0-5.42,0A5,5,0,0,0,31,32.81v5.58a4.89,4.89,0,0,0,.9,2.84Zm5.48-19-.49.41-.49-.41Zm-3,.39,1.71,1.44v3.94h1.6V31.29l1.71-1.44a3.36,3.36,0,0,1,1.78,3v5.58a3.31,3.31,0,0,1-.72,2.08l-.17.22v7.78a.82.82,0,1,1-1.63,0V42.52l0-.79H35.11v6.74a.82.82,0,1,1-1.63,0V40.68l-.17-.22a3.31,3.31,0,0,1-.73-2.08V32.81A3.36,3.36,0,0,1,34.36,29.86Zm0-4.72a2.49,2.49,0,1,1,2.49,2.49A2.49,2.49,0,0,1,34.38,25.14Z"/>
    <path class="cls-2" d="M54.48,47.88,49,44.51v2.56H45.59A4.28,4.28,0,0,0,44,44.83l-.2-.15-1,1.26.2.15a2.45,2.45,0,0,1,1.1,1.78c0,1.85-3.38,3.47-7.23,3.47s-7.23-1.62-7.23-3.47a2.44,2.44,0,0,1,1.1-1.78l.2-.15-1-1.26-.2.15a4.29,4.29,0,0,0-1.62,2.25H25V44.51l-5.45,3.36L25,51.24V48.67h3.17c.65,2.49,4.26,4.27,8.72,4.27s8.07-1.78,8.72-4.27H49v2.56Zm-3,0-.81.5v-1Zm-28.86,0,.81-.5v1Z"/>
  </g>
</svg>
