<?xml version="1.0" encoding="utf-8"?>
<!-- Generator: Adobe Illustrator 21.0.2, SVG Export Plug-In . SVG Version: 6.00 Build 0)  -->
<svg version="1.1" id="Layer_1" xmlns="http://www.w3.org/2000/svg" xmlns:xlink="http://www.w3.org/1999/xlink" x="0px" y="0px"
	 viewBox="0 0 74 74" style="enable-background:new 0 0 74 74;" xml:space="preserve">
<style type="text/css">
	.st0{fill:none;stroke:#006FAF;stroke-width:2;stroke-miterlimit:10;}
	.st1{fill:#006FAF;}
</style>
<title>os-patch-management</title>
<g id="text">
</g>
<circle class="st0" cx="37" cy="37" r="36"/>
<g>
	<path class="st1" d="M37.8,38.9c-1.6,0-2.8-1.3-2.8-2.8c0-1.6,1.3-2.8,2.8-2.8c1.6,0,2.8,1.3,2.8,2.8
		C40.6,37.6,39.3,38.9,37.8,38.9z M37.8,34.8c-0.7,0-1.2,0.5-1.2,1.2s0.5,1.2,1.2,1.2S39,36.7,39,36S38.5,34.8,37.8,34.8z"/>
	<path class="st1" d="M37.8,43.7c-3.7,0-6.7-3-6.7-6.7s3-6.7,6.7-6.7s6.7,3,6.7,6.7S41.5,43.7,37.8,43.7z M35.8,41.6
		c0.7,0.3,1.3,0.4,2,0.4s1.3-0.1,2-0.4c-0.5-0.6-1.2-1-2-1S36.3,41,35.8,41.6z M37.8,31.9c-2.8,0-5.1,2.3-5.1,5.1
		c0,1.4,0.6,2.8,1.7,3.8c0.8-1.1,2.1-1.8,3.4-1.8c1.3,0,2.6,0.7,3.4,1.8c1.1-1,1.7-2.3,1.7-3.8C42.8,34.2,40.6,31.9,37.8,31.9z"/>
	<rect x="36.9" y="21.5" class="st1" width="1.8" height="1.6"/>
	<rect x="34.5" y="50.9" class="st1" width="6.6" height="1.6"/>
	<path class="st1" d="M29.3,56c-1.9,0-3.4-1.5-3.4-3.4v-1.4h-7.6v-8.9h7.6V21.4c0-1.9,1.5-3.4,3.4-3.4h16.9c1.9,0,3.4,1.5,3.4,3.4
		v31.2c0,0.9-0.4,1.8-1,2.4c-0.6,0.6-1.5,1-2.4,1H29.3z M27.5,52.6c0,1,0.8,1.8,1.8,1.8h16.9c1,0,1.8-0.8,1.8-1.8V21.4
		c0-1-0.8-1.8-1.8-1.8H29.3c-1,0-1.8,0.8-1.8,1.8v20.9h1V24.2H47v25.6H30.2v1.4h-2.6v1.4H27.5z M28.5,49.6v-5.7H20v5.7H28.5z
		 M45.4,48.2V25.8H30.2v22.3h15.2V48.2z"/>
	<rect x="21.6" y="47.2" class="st1" width="2.8" height="1.6"/>
	<rect x="21.6" y="44.8" class="st1" width="5.2" height="1.6"/>
</g>
</svg>
