<?xml version="1.0" encoding="utf-8"?>
<!-- Generator: Adobe Illustrator 21.0.0, SVG Export Plug-In . SVG Version: 6.00 Build 0)  -->
<svg version="1.1" id="Layer_1" xmlns="http://www.w3.org/2000/svg" xmlns:xlink="http://www.w3.org/1999/xlink" x="0px" y="0px"
	 viewBox="0 0 75 75" style="enable-background:new 0 0 75 75;" xml:space="preserve">
<style type="text/css">
	.st0{fill:none;stroke:#006FAF;stroke-width:2;stroke-miterlimit:10;}
	.st1{fill:#006FAF;}
</style>
<circle class="st0" cx="37.6" cy="37.6" r="36"/>
<g>
	<g>
		<g>
			<path class="st1" d="M48.3,33.5c-0.3,0-0.5,0.3-0.5,0.5v18.6H27.4V46c0-0.3-0.3-0.5-0.5-0.5c-0.3,0-0.5,0.3-0.5,0.5v7.1
				c0,0.3,0.3,0.5,0.5,0.5h21.6c0.3,0,0.5-0.3,0.5-0.5V34.1C49,33.8,48.7,33.5,48.3,33.5z"/>
		</g>
	</g>
	<g>
		<g>
			<path class="st1" d="M51,22.4h-5v-0.8c0-0.3-0.3-0.5-0.5-0.5h-4.8c-0.5-1.2-1.7-2-3-2c-1.4,0-2.5,0.8-3,2H30
				c-0.3,0-0.5,0.3-0.5,0.5v0.8h-5.3c-0.3,0-0.5,0.3-0.5,0.5v32.5c0,0.3,0.3,0.5,0.5,0.5h26.6c0.3,0,0.5-0.3,0.5-0.5V23.1
				C51.4,22.7,51.1,22.4,51,22.4z M30.3,22.3H35c0.3,0,0.5-0.2,0.5-0.5c0.3-0.9,1.1-1.6,2-1.6s1.9,0.6,2,1.6c0,0.3,0.3,0.5,0.5,0.5
				h4.7v3.4H30.2v-3.4H30.3z M50.4,55.1H24.9V23.5h4.5v0.9h-2.5c-0.3,0-0.5,0.3-0.5,0.5v19.3c0,0.3,0.3,0.5,0.5,0.5
				c0.3,0,0.5-0.3,0.5-0.5V25.5h2v0.6c0,0.3,0.3,0.5,0.5,0.5h15.5c0.3,0,0.5-0.3,0.5-0.5v-0.6h2v6.7c0,0.3,0.3,0.5,0.5,0.5
				c0.3,0,0.5-0.3,0.5-0.5v-7.1c0-0.3-0.3-0.5-0.5-0.5h-2.5v-0.9h4.5V55.1L50.4,55.1z"/>
		</g>
	</g>
	<g>
		<g>
			<path class="st1" d="M42,30.4c-0.3-0.2-0.6-0.2-0.8,0.2c-0.2,0.3-0.2,0.6,0.2,0.8c2,1.4,3.3,3.6,3.4,5.9h-6.1h-1.4l-3.6-5.6
				l-0.2-0.3l-0.3-0.5c1.1-0.6,2.5-0.9,3.7-0.9c0.9,0,1.9,0.2,2.8,0.5c0.3,0.2,0.6,0,0.8-0.3s0-0.6-0.3-0.8c-1.1-0.3-2-0.6-3.1-0.6
				c-1.7,0-3.4,0.5-4.8,1.4c-0.3,0.2-0.3,0.5-0.2,0.8l0.3,0.5c-2,1.4-3.1,3.7-3.1,6.2s1.1,4.7,3,6.2c0.2,0,0.2,0.2,0.3,0.2l0,0
				c0.2,0,0.3-0.2,0.3-0.2l0.5-0.6c1.1,0.6,2.3,1.1,3.6,1.1c3.4,0,6.2-2.6,6.5-6.1h1.7l0,0c0.2,0,0.3,0,0.3-0.2
				c0.2-0.2,0.2-0.3,0.2-0.3C45.9,34.7,44.5,31.9,42,30.4z M33,42L33,42l-0.5,0.5c-1.4-1.2-2.2-3.1-2.2-5c0-2,0.9-4,2.6-5.3l3.4,5.3
				L33,42z M37,43.1c-1.1,0-2-0.3-3-0.8l3.1-4h1.6h3.7C42.3,40.9,40,43.1,37,43.1z"/>
		</g>
	</g>
	<g>
		<g>
			<path class="st1" d="M44.5,46.7H30.8c-0.3,0-0.5,0.3-0.5,0.5s0.3,0.5,0.5,0.5h13.7c0.3,0,0.5-0.3,0.5-0.5S44.8,46.7,44.5,46.7z"
				/>
		</g>
	</g>
	<g>
		<g>
			<path class="st1" d="M42.3,49.2h-9.5c-0.3,0-0.5,0.3-0.5,0.5c0,0.3,0.3,0.5,0.5,0.5h9.5c0.3,0,0.5-0.3,0.5-0.5
				C42.9,49.5,42.6,49.2,42.3,49.2z"/>
		</g>
	</g>
</g>
</svg>
