<?xml version="1.0" encoding="utf-8"?>
<!-- Generator: Adobe Illustrator 21.0.0, SVG Export Plug-In . SVG Version: 6.00 Build 0)  -->
<svg version="1.1" id="Layer_1" xmlns="http://www.w3.org/2000/svg" xmlns:xlink="http://www.w3.org/1999/xlink" x="0px" y="0px"
	 viewBox="0 0 74 74" style="enable-background:new 0 0 74 74;" xml:space="preserve">
<style type="text/css">
	.st0{fill:none;stroke:#006FAF;stroke-width:2;stroke-miterlimit:10;}
	.st1{fill:#006FAF;}
</style>
<title>Azure_Site_Recovery</title>
<circle class="st0" cx="37" cy="37" r="36"/>
<g>
	<g>
		<path class="st1" d="M46.7,23c-0.3-0.2-0.8-0.1-1,0.2c-0.2,0.3-0.1,0.8,0.2,1c5.1,3.1,8.2,8.6,8.2,14.6c0,1.5-0.2,3-0.6,4.4
			c-0.1,0.4,0.1,0.8,0.5,0.9c0.1,0,0.1,0,0.2,0c0.3,0,0.6-0.2,0.7-0.5c0.4-1.6,0.6-3.2,0.6-4.8C55.6,32.3,52.3,26.4,46.7,23z"/>
		<path class="st1" d="M43.6,54.7C41.5,55.5,39.3,56,37,56c-4.8,0-9.4-2-12.7-5.6c-0.3-0.3-0.7-0.3-1,0c-0.3,0.3-0.3,0.7,0,1
			c3.5,3.9,8.5,6.1,13.7,6.1c2.5,0,4.8-0.5,7.1-1.4c0.4-0.2,0.5-0.6,0.4-0.9C44.4,54.7,43.9,54.5,43.6,54.7z"/>
		<path class="st1" d="M32.9,22.2c0.4-0.1,0.6-0.5,0.5-0.9c-0.1-0.4-0.5-0.6-0.9-0.5c-7.9,1.9-13.5,8.6-14.1,16.7
			c0,0.4,0.3,0.7,0.7,0.8c0,0,0,0,0.1,0c0.4,0,0.7-0.3,0.7-0.7C20.5,30.1,25.7,23.9,32.9,22.2z"/>
	</g>
	<circle class="st1" cx="37" cy="21" r="4.3"/>
	<circle class="st1" cx="21.3" cy="47.4" r="4.3"/>
	<circle class="st1" cx="52.7" cy="47.4" r="4.3"/>
</g>
<g>
	<path class="st1" d="M43.9,32.4L43.9,32.4L43.9,32.4l-13.5,0h-0.1v0c-0.4,0-0.8,0.4-0.8,0.8v0.1v8.8c0,0.2,0,0.3,0.1,0.4
		c0.2,0.3,0.4,0.5,0.8,0.5h4.9v1.2h-0.9c-0.2,0-0.4,0.2-0.4,0.4c0,0.2,0.2,0.4,0.4,0.4h5.5c0.2,0,0.4-0.2,0.4-0.4
		c0-0.2-0.2-0.4-0.4-0.4h-0.9v-1.2h4.9c0.3,0,0.6-0.2,0.8-0.5c0.1-0.1,0.1-0.3,0.1-0.4v-8.8v-0.1C44.7,32.7,44.3,32.4,43.9,32.4z
		 M43.9,33.2v8.8c0,0.1,0,0.1-0.1,0.1H30.4c-0.1,0-0.1,0-0.1-0.1v-8.8v-0.1L43.9,33.2L43.9,33.2L43.9,33.2z"/>
</g>
</svg>
