<?xml version="1.0" encoding="utf-8"?>
<!-- Generator: Adobe Illustrator 21.0.0, SVG Export Plug-In . SVG Version: 6.00 Build 0)  -->
<svg version="1.1" id="Layer_1" xmlns="http://www.w3.org/2000/svg" xmlns:xlink="http://www.w3.org/1999/xlink" x="0px" y="0px"
	 viewBox="0 0 74 74" style="enable-background:new 0 0 74 74;" xml:space="preserve">
<style type="text/css">
	.st0{fill:none;stroke:#006FAF;stroke-width:2;stroke-miterlimit:10;}
	.st1{fill:#006FAF;}
</style>
<title>Azure_Site_Recovery</title>
<circle class="st0" cx="37" cy="37" r="36"/>
<g>
	<g>
		<path class="st1" d="M48.3,32.2v-0.9h1.3v-2.6h1.9v-3.9h-3.7l-13.1-8.5l-13.1,8.5H18v3.9h1.9v2.6h1.3v10.3h-1.3v2.6H18v3.9h16.1
			c1.6,4.9,6.2,8.4,11.6,8.4C52.5,56.5,58,51,58,44.2C58,38.3,53.8,33.4,48.3,32.2z M47,32c-0.4,0-0.9-0.1-1.3-0.1v-0.6H47V32z
			 M33.6,42.9c0,0.4-0.1,0.9-0.1,1.3H29v-1.3H33.6z M33.8,41.6h-0.9v-1.3h-1.3v1.3h-1.3V31.3h1.3V39h1.3v-7.7h1.3v-2.6h1.3v2.6h1.3
			v4.6C35.3,37.5,34.2,39.5,33.8,41.6z M29,30v-1.3h3.9V30H29z M36.7,30v-1.3h3.9V30H36.7z M38,31.3h1.3v2.5
			c-0.4,0.3-0.9,0.6-1.3,0.9V31.3z M40.6,31.3h1.3v-2.6h1.3v2.6h1.3V32c-1.4,0.1-2.7,0.5-3.9,1.1V31.3z M48.3,30h-3.9v-1.3h3.9V30z
			 M34.8,19.7c1.1,0,1.9,0.9,1.9,1.9s-0.9,1.9-1.9,1.9s-1.9-0.9-1.9-1.9S33.7,19.7,34.8,19.7z M35.9,18.6c-0.4-0.1-0.7-0.2-1.1-0.2
			s-0.8,0.1-1.1,0.2l1.1-0.7L35.9,18.6z M32.5,19.4c-0.6,0.6-0.9,1.4-0.9,2.2c0,1.8,1.4,3.2,3.2,3.2s3.2-1.4,3.2-3.2
			c0-0.9-0.4-1.7-0.9-2.2l8.4,5.5H34.8H24L32.5,19.4z M19.3,27.4v-1.3h0.4h30.2h0.4v1.3h-0.6h-6.5h-1.3h-6.5h-1.3h-6.5h-1.3h-6.5
			H19.3z M25.1,28.7V30h-3.9v-1.3H25.1z M22.5,31.3h1.3v1.3h1.3v-1.3h1.3v-2.6h1.3v2.6H29v10.3h-1.3v2.6h-1.3v-2.6h-1.3v-7.7h-1.3
			v7.7h-1.3V31.3z M21.2,42.9h3.9v1.3h-3.9V42.9z M19.3,46.8v-1.3h0.6h6.5h1.3h5.9c0,0.4,0.1,0.9,0.2,1.3H19.3z M45.7,55.2
			c-6,0-11-4.9-11-11c0-3,1.2-5.8,3.2-7.7h0v0c2-2,4.7-3.2,7.7-3.2c6,0,11,4.9,11,11S51.8,55.2,45.7,55.2z"/>
	</g>
	<path class="st1" d="M45.8,34.8c-5.2,0-9.4,4.2-9.4,9.4s4.2,9.4,9.4,9.4s9.4-4.2,9.4-9.4S51,34.8,45.8,34.8z M45.8,52.5
		c-4.6,0-8.3-3.7-8.3-8.3s3.7-8.3,8.3-8.3s8.3,3.7,8.3,8.3S50.3,52.5,45.8,52.5z"/>
	<path class="st1" d="M48.5,38.7h-2.2V37h-1.1v1.7H43c-1.5,0-2.8,1.2-2.8,2.8V42c0,1.5,1.2,2.8,2.8,2.8h5.5c0.9,0,1.7,0.7,1.7,1.7
		V47c0,0.9-0.7,1.7-1.7,1.7H43c-0.9,0-1.7-0.7-1.7-1.7v-1.1h-1.1V47c0,1.5,1.2,2.8,2.8,2.8h2.2v1.7h1.1v-1.7h2.2
		c1.5,0,2.8-1.2,2.8-2.8v-0.6c0-1.5-1.2-2.8-2.8-2.8H43c-0.9,0-1.7-0.7-1.7-1.7v-0.6c0-0.9,0.7-1.7,1.7-1.7h5.5
		c0.9,0,1.7,0.7,1.7,1.7v1.1h1.1v-1.1C51.3,39.9,50.1,38.7,48.5,38.7z"/>
</g>
</svg>
