<?xml version="1.0" encoding="utf-8"?>
<!-- Generator: Adobe Illustrator 21.1.0, SVG Export Plug-In . SVG Version: 6.00 Build 0)  -->
<svg version="1.1" xmlns="http://www.w3.org/2000/svg" xmlns:xlink="http://www.w3.org/1999/xlink" x="0px" y="0px"
	 viewBox="0 0 74 74" style="enable-background:new 0 0 74 74;" xml:space="preserve">
<style type="text/css">
	.st0{fill:none;stroke:#006FAF;stroke-width:2;stroke-miterlimit:10;}
	.st1{fill:#006FAF;}
	.st2{fill:none;stroke:#006FAF;stroke-miterlimit:10;}
	.st3{fill:#006FAF;stroke:#006FAF;stroke-width:0.75;stroke-miterlimit:10;}
</style>
<g id="azure-data-protection-and-recovery">
	<g id="Layer_13">
	</g>
</g>
<g id="cloud-dr-and-bc-strategy">
</g>
<g id="cloud-workload-data-protection">
</g>
<g id="hybrid-workload-data-protection">
	<circle class="st0" cx="37" cy="37" r="36"/>
	<g>
		<path class="st0" d="M41.9,26c-3.3,0-6.1,2.2-7,5.2c-0.5-0.1-1-0.1-1.5-0.1c-4.1,0-7.5,3-8.3,6.9c-3.6,0-6.5,2.9-6.5,6.5
			c0,2.8,1.9,5.4,4.6,6.2c0.6,0.2,1.2,0.3,1.8,0.3h17.7c0.7,0,1.3-0.1,1.9-0.3c3.1-1,5.2-3.8,5.2-7c0-0.1,0-0.2,0-0.2h0.2
			c0.6,0,1.2-0.1,1.7-0.3c2.7-0.9,4.5-3.3,4.5-6.2c0-3.6-2.9-6.5-6.5-6.5c-0.3,0-0.6,0-0.9,0.1C47.5,27.7,44.9,26,41.9,26z
			 M49.7,43.3c-0.4-3.7-4.3-7.1-7.4-7.1c-0.4,0-0.8,0-1.2,0.1c-0.8-5.8-4.5-4.9-6.2-5.1 M50.8,40.7 M48.3,33.1 M47,33.6 M46.6,32.2
			 M41.9,28.5L41.9,28.5"/>
		<g>
			<path class="st1" d="M36.5,39.9v-1.1h0.9c0.3,0,0.5-0.2,0.5-0.5s-0.2-0.5-0.5-0.5h-8.2c-0.3,0-0.5,0.2-0.5,0.5s0.2,0.5,0.5,0.5
				h0.9v1c0,0.6,0.3,1.2,0.8,1.6l1.7,1.2l-1.7,1.2c-0.5,0.4-0.9,1-0.9,1.7v1.1h-0.9c-0.3,0-0.5,0.2-0.5,0.5s0.2,0.5,0.5,0.5h8.2
				c0.3,0,0.5-0.2,0.5-0.5s-0.2-0.5-0.5-0.5h-0.9v-1.1c0-0.7-0.3-1.3-0.9-1.7L34,42.7l1.7-1.3C36.2,41.1,36.5,40.5,36.5,39.9z
				 M35.6,45.6v1.1h-4.5v-1.1c0-0.4,0.2-0.7,0.5-1l1.7-1.3l1.8,1.3C35.5,44.8,35.6,45.2,35.6,45.6z M35.2,40.7L33.4,42l-1.9-1.3
				c-0.3-0.2-0.5-0.5-0.5-0.9v-1h4.5v1.1C35.6,40.2,35.5,40.5,35.2,40.7z"/>
		</g>
	</g>
</g>
<g id="automated-disaster-recovery">
</g>
<g id="regulatory-compliance-management">
</g>
<g id="information-security-and-encryption">
</g>
</svg>
