<?xml version="1.0" encoding="utf-8"?>
<!-- Generator: Adobe Illustrator 21.0.2, SVG Export Plug-In . SVG Version: 6.00 Build 0)  -->
<svg version="1.1" id="Layer_1" xmlns="http://www.w3.org/2000/svg" xmlns:xlink="http://www.w3.org/1999/xlink" x="0px" y="0px"
	 viewBox="0 0 74 74" style="enable-background:new 0 0 74 74;" xml:space="preserve">
<style type="text/css">
	.st0{fill:none;stroke:#006FAF;stroke-width:2;stroke-miterlimit:10;}
	.st1{fill:none;stroke:#006FAF;stroke-width:2;stroke-linecap:round;stroke-linejoin:round;}
</style>
<g id="independent-sales-organizations">
	<g id="Layer_13">
	</g>
</g>
<g id="payment-gateways">
</g>
<g id="acquirers">
</g>
<g id="merchants">
</g>
<g id="processors-payment-transfers">
</g>
<circle class="st0" cx="37.1" cy="37" r="36"/>
<g id="mobile-payment-providers">
</g>
<g id="alternate-payment-providers">
</g>
<g id="white-label-payment-gateway">
</g>
<g id="deep-financial-services">
</g>
<g>
	<path class="st1" d="M37,37c1.2,6-0.6,11.9-4.3,16.1"/>
	<path class="st1" d="M32.9,38c0,0,0-0.1,0-0.1l0,0c-0.5-2.3,1-4.5,3.3-4.9c2.3-0.5,4.5,1,4.9,3.3l0,0c1.3,6.3-0.2,12.6-3.6,17.5"/>
	<path class="st1" d="M33.2,40.6c0,4.2-1.7,8.1-4.6,10.8"/>
	<path class="st1" d="M45.5,44.2c-0.4,3-1.2,5.8-2.5,8.4"/>
	<path class="st1" d="M45.7,41.6c0.1-2-0.1-4.1-0.5-6.2l0,0c-0.9-4.5-5.3-7.5-9.8-6.5c-4.5,0.9-7.5,5.3-6.5,9.8l0,0
		c0.8,3.9-0.7,7.8-3.6,10.2"/>
	<path class="st1" d="M41.5,25.3c3.9,1.5,6.9,4.8,7.8,9.2l0,0c1,4.9,0.8,9.7-0.4,14.2"/>
	<path class="st1" d="M24.8,34.2c1.1-4.7,4.7-8.5,9.7-9.5c1.5-0.3,3-0.3,4.4-0.1"/>
	<path class="st1" d="M24.5,36.8c0,0.9,0.1,1.8,0.2,2.6l0,0c0.5,2.3-0.4,4.6-2.1,6"/>
	<path class="st1" d="M53.7,37.3c0-1.2-0.1-2.4-0.3-3.6l0,0c-1.8-9-10.6-14.9-19.7-13.1c-2.4,0.5-4.6,1.5-6.5,2.8"/>
	<path class="st1" d="M25.2,25.2c-3.8,3.8-5.8,9.4-4.6,15.1l0,0c0,0.2,0.1,0.5,0.2,0.7"/>
</g>
</svg>
