<?xml version="1.0" encoding="utf-8"?>
<!-- Generator: Adobe Illustrator 21.0.2, SVG Export Plug-In . SVG Version: 6.00 Build 0)  -->
<svg version="1.1" id="Layer_1" xmlns="http://www.w3.org/2000/svg" xmlns:xlink="http://www.w3.org/1999/xlink" x="0px" y="0px"
	 viewBox="0 0 74 74" style="enable-background:new 0 0 74 74;" xml:space="preserve">
<style type="text/css">
	.st0{fill:#006FAF;}
</style>
<title>Cloud &amp;amp; Infrastructure Services</title>
<g>
	<path class="st0" d="M37,74C16.6,74,0,57.4,0,37C0,16.6,16.6,0,37,0c20.4,0,37,16.6,37,37C74,57.4,57.4,74,37,74z M37,2
		C17.7,2,2,17.7,2,37s15.7,35,35,35s35-15.7,35-35S56.3,2,37,2z"/>
</g>
<g>
	<path class="st0" d="M27,27.9h-7.3c-0.4,0-0.7-0.3-0.7-0.7c0-0.4,0.3-0.7,0.7-0.7H27c0.4,0,0.7,0.3,0.7,0.7
		C27.7,27.6,27.4,27.9,27,27.9z"/>
	<path class="st0" d="M36.6,31.9H24.9c-0.4,0-0.7-0.3-0.7-0.7s0.3-0.7,0.7-0.7h11.6c0.4,0,0.7,0.3,0.7,0.7S36.9,31.9,36.6,31.9z"/>
	<path class="st0" d="M46.1,35.5H28.2c-0.4,0-0.7-0.3-0.7-0.7s0.3-0.7,0.7-0.7h17.9c0.4,0,0.7,0.3,0.7,0.7S46.5,35.5,46.1,35.5z"/>
	<path class="st0" d="M45.8,39.5h-7.3c-0.4,0-0.7-0.3-0.7-0.7s0.3-0.7,0.7-0.7h7.3c0.4,0,0.7,0.3,0.7,0.7S46.1,39.5,45.8,39.5z"/>
	<path class="st0" d="M51.4,43.1H32.2c-0.4,0-0.7-0.3-0.7-0.7c0-0.4,0.3-0.7,0.7-0.7h19.2c0.4,0,0.7,0.3,0.7,0.7
		C52,42.8,51.7,43.1,51.4,43.1z"/>
	<path class="st0" d="M54.3,46.7H46c-0.4,0-0.7-0.3-0.7-0.7s0.3-0.7,0.7-0.7h8.3c0.4,0,0.7,0.3,0.7,0.7S54.7,46.7,54.3,46.7z"/>
	<rect x="48" y="47.4" class="st0" width="0.7" height="4.6"/>
	<rect x="25.3" y="22" class="st0" width="0.7" height="4"/>
	<path class="st0" d="M52.9,50.6c0,1.1-0.9,2-2,2H23c-1.1,0-2-0.9-2-2v-22h-1.3v22c0,1.8,1.5,3.3,3.3,3.3h28c1.8,0,3.3-1.5,3.3-3.3
		v-3.3h-1.3V50.6z"/>
	<path class="st0" d="M50.6,20H23c-1.8,0-3.3,1.4-3.3,3.3V26H21v-2.7c0-1.1,0.9-1.9,2-1.9h28c1.1,0,2,0.9,2,1.9v21.4h1.3V23.3
		C54.2,21.5,52.4,20,50.6,20z"/>
	<rect x="34.5" y="22" class="st0" width="0.7" height="7.9"/>
	<rect x="29.9" y="22" class="st0" width="0.7" height="7.9"/>
	<rect x="25.3" y="28.6" class="st0" width="0.7" height="1.3"/>
	<rect x="25.3" y="32.6" class="st0" width="0.7" height="19.4"/>
	<rect x="38.8" y="22" class="st0" width="0.7" height="11.5"/>
	<rect x="34.5" y="32.6" class="st0" width="0.7" height="1"/>
	<rect x="29.9" y="32.6" class="st0" width="0.7" height="1"/>
	<rect x="29.9" y="36.2" class="st0" width="0.7" height="15.8"/>
	<rect x="43.4" y="36.2" class="st0" width="0.7" height="1.3"/>
	<rect x="38.8" y="36.2" class="st0" width="0.7" height="1.3"/>
	<rect x="48" y="43.8" class="st0" width="0.7" height="1"/>
	<rect x="43.4" y="40.1" class="st0" width="0.7" height="1"/>
	<rect x="43.4" y="43.8" class="st0" width="0.7" height="8.2"/>
	<rect x="38.8" y="40.1" class="st0" width="0.7" height="1"/>
	<rect x="38.8" y="43.8" class="st0" width="0.7" height="8.2"/>
	<rect x="34.5" y="43.8" class="st0" width="0.7" height="8.2"/>
	<rect x="34.5" y="36.2" class="st0" width="0.7" height="4.9"/>
	<polygon class="st0" points="43.4,29 44,28.4 44,22 43.4,22 43.4,29 	"/>
	<path class="st0" d="M43.4,32.2C43.4,32.2,43.4,32.2,43.4,32.2l-0.1,1.4H44V32C44,32.1,43.6,32.2,43.4,32.2z"/>
	<path class="st0" d="M48.6,24.6V22H48v2.7C48,24.6,48.3,24.6,48.6,24.6z"/>
	<polygon class="st0" points="48,28.4 48,41.1 48.6,41.1 48.6,27.7 	"/>
	<path class="st0" d="M49,25.4c-0.3-0.3-0.7-0.3-0.9,0L43.5,30l-2.1-2.2c-0.3-0.3-0.7-0.3-0.9,0c-0.3,0.3-0.3,0.7,0,0.9l2.6,2.6
		c0.1,0.1,0.3,0.2,0.5,0.2s0.3-0.1,0.5-0.2l5-5C49.3,26.1,49.3,25.7,49,25.4z"/>
</g>
</svg>
