<?xml version="1.0" encoding="utf-8"?>
<!-- Generator: Adobe Illustrator 21.0.2, SVG Export Plug-In . SVG Version: 6.00 Build 0)  -->
<svg version="1.1" id="Layer_1" xmlns="http://www.w3.org/2000/svg" xmlns:xlink="http://www.w3.org/1999/xlink" x="0px" y="0px"
	 viewBox="0 0 74 74" style="enable-background:new 0 0 74 74;" xml:space="preserve">
<style type="text/css">
	.st0{fill:none;stroke:#006FAF;stroke-width:2;stroke-miterlimit:10;}
	.st1{fill:#006FAF;}
</style>
<title>os-patch-management</title>
<g id="text">
</g>
<circle class="st0" cx="37" cy="37" r="36"/>
<rect x="36.1" y="21.4" class="st1" width="1.4" height="1.3"/>
<rect x="33.7" y="51.3" class="st1" width="6.2" height="1.3"/>
<path class="st1" d="M44.3,55.7H29.7c-1.8,0-3.2-1.4-3.2-3.2v-31c0-1.8,1.5-3.2,3.2-3.2h14.6c1.8,0,3.2,1.5,3.2,3.2v31
	C47.5,54.3,46.1,55.7,44.3,55.7z M29.7,19.6c-1.1,0-1.9,0.9-1.9,1.9v31c0,1.1,0.9,1.9,1.9,1.9h14.6c1.1,0,1.9-0.9,1.9-1.9v-31
	c0-1.1-0.9-1.9-1.9-1.9C44.3,19.6,29.7,19.6,29.7,19.6z"/>
<rect x="27.1" y="24.4" class="st1" width="19.8" height="1.3"/>
<rect x="27.1" y="48.3" class="st1" width="19.8" height="1.3"/>
<path class="st1" d="M37,44.4l-0.7-0.4c-2-1.2-5.2-3.1-5.3-6.4c0-1.6,0-2.1,0-2.8c0-0.5,0-1,0-2.1V32h0.6c1.6,0,3.9-1.3,5.1-2.2
	l0.4-0.3l0.4,0.3c1.1,0.9,3.4,2.2,4.9,2.2H43v5.3c0,3.6-3,5.4-5.3,6.7L37,44.4z M32.2,33.1c0,0.7,0,1.2,0,1.6c0,0.7,0,1.2,0,2.8
	c0.1,2.7,3,4.4,4.7,5.5L37,43l0.1-0.1c2.1-1.2,4.7-2.7,4.7-5.7v-4.2c-1.7-0.2-3.6-1.3-4.7-2.1C35.9,31.9,33.9,32.9,32.2,33.1z"/>
<path class="st1" d="M36.4,39c-0.2,0-0.3-0.1-0.4-0.2l-1.7-1.7c-0.2-0.2-0.2-0.6,0-0.8c0.2-0.2,0.6-0.2,0.8,0l1.2,1.2l2.5-2.5
	c0.2-0.2,0.6-0.2,0.8,0c0.2,0.2,0.2,0.6,0,0.8l-2.9,2.9C36.7,39,36.6,39,36.4,39C36.4,39,36.4,39,36.4,39z"/>
</svg>
