<?xml version="1.0" encoding="utf-8"?>
<!-- Generator: Adobe Illustrator 21.0.2, SVG Export Plug-In . SVG Version: 6.00 Build 0)  -->
<svg version="1.1" id="Layer_1" xmlns="http://www.w3.org/2000/svg" xmlns:xlink="http://www.w3.org/1999/xlink" x="0px" y="0px"
	 viewBox="0 0 74 74" style="enable-background:new 0 0 74 74;" xml:space="preserve">
<style type="text/css">
	.st0{fill:#006FAF;}
</style>
<title>health-checks</title>
<path class="st0" d="M37,0C16.6,0,0,16.6,0,37s16.6,37,37,37s37-16.6,37-37S57.4,0,37,0z M37,72C17.7,72,2,56.3,2,37S17.7,2,37,2
	s35,15.7,35,35S56.3,72,37,72z"/>
<g>
	<path class="st0" d="M53.2,37.9c-0.4-0.2-0.9-0.3-1.3-0.1l-6.1,3V28c0-0.3-0.3-0.6-0.6-0.6h-2.7c-0.3,0-0.6,0.3-0.6,0.6v10.7
		l-4.3,2.1v-3.1c0-0.1,0-0.1,0-0.2v-4.3c0-0.3-0.3-0.6-0.6-0.6h-2.7c-0.3,0-0.6,0.3-0.6,0.6v5.4l-4.2,2.1V39c0-0.5-0.2-0.9-0.6-1.1
		c-0.4-0.2-0.9-0.3-1.3-0.1l-6.6,3.3c-0.5,0.2-0.7,0.7-0.7,1.2v12.4c0,0.7,0.6,1.3,1.3,1.3h6.6h0.7H37h0.7h7.4h0.7h7.3
		c0.3,0,0.6-0.3,0.6-0.6V39C53.8,38.5,53.6,38.1,53.2,37.9z M21.5,54.8c-0.1,0-0.1-0.1-0.1-0.1V42.3c0,0,0-0.1,0.1-0.1l6.6-3.3
		c0.1,0,0.1,0,0.1,0c0,0,0.1,0,0.1,0.1v3.1c0,0.1,1.3,0.1,1.3,0.1l4.9-2.4c0.2-0.1,0.3-0.3,0.3-0.5V34h1.5v3.9c0,0.1,0,0.1,0,0.2
		v4.2c0,0,1.3-0.1,1.3-0.1l5.1-2.5c0.2-0.1,0.3-0.3,0.3-0.5V28.6h1.5v13.7c0,0.3,1.2,0.3,1.2,0c0,0,0-0.1,0.1-0.1l6.6-3.3
		c0.1,0,0.1,0,0.1,0c0,0,0.1,0,0.1,0.1v15.8"/>
	<path class="st0" d="M24.2,50.2h3.2v-4.2h-3.2V50.2z M25,46.9h1.6v2.6H25V46.9z"/>
	<path class="st0" d="M32.8,50.2H36v-4.2h-3.2V50.2z M33.6,46.9h1.6v2.6h-1.6V46.9z"/>
	<path class="st0" d="M41.4,50.2h3.2v-4.2h-3.2V50.2z M42.2,46.9h1.6v2.6h-1.6V46.9z"/>
	<path class="st0" d="M35,22.6c2.3-2.1,5.3-3.2,8.3-3.2c3.1,0,6,1.1,8.3,3.2l0.2,0.2l1.1-1l-0.3-0.2c-2.6-2.3-5.9-3.6-9.4-3.6
		c-3.5,0-6.8,1.3-9.4,3.6l-0.3,0.2l1.1,1L35,22.6z"/>
	<path class="st0" d="M49.7,25l1-1l-0.3-0.2c-2-1.7-4.5-2.7-7.2-2.7s-5.2,1-7.2,2.7L35.9,24l1,1l0.2-0.2c1.7-1.5,3.9-2.3,6.2-2.3
		c2.3,0,4.4,0.8,6.2,2.3L49.7,25z"/>
	<path class="st0" d="M38.3,26L38,26.2l1,1l0.2-0.2c1.2-0.9,2.6-1.5,4.1-1.5s2.9,0.5,4.1,1.5l0.2,0.2l1-1L48.3,26
		c-1.4-1.2-3.2-1.8-5-1.8C41.5,24.1,39.7,24.8,38.3,26z"/>
</g>
</svg>
