<?xml version="1.0" encoding="utf-8"?>
<!-- Generator: Adobe Illustrator 21.0.2, SVG Export Plug-In . SVG Version: 6.00 Build 0)  -->
<svg version="1.1" id="Layer_1" xmlns="http://www.w3.org/2000/svg" xmlns:xlink="http://www.w3.org/1999/xlink" x="0px" y="0px"
	 viewBox="0 0 74 74" style="enable-background:new 0 0 74 74;" xml:space="preserve">
<style type="text/css">
	.st0{fill:none;stroke:#006FAF;stroke-width:2;stroke-miterlimit:10;}
	.st1{fill:#006FAF;}
</style>
<title>Cloud &amp;amp; Infrastructure Services</title>
<circle class="st0" cx="37" cy="37" r="36"/>
<g>
	<path class="st1" d="M49.9,37.3c-0.4-3.8-3.6-6.8-7.5-6.8c-0.6,0-1.2,0.1-1.8,0.2c-1.6-2.6-4.4-4.2-7.5-4.2c-4.8,0-8.7,3.9-8.8,8.7
		c-2.8,0.7-4.8,3.2-4.8,6.1c0,3.2,2.5,6,5.7,6.3l0.1,0l23.8,0c2.9,0,5.2-2.3,5.2-5.2C54.4,39.8,52.5,37.6,49.9,37.3z M49.2,46H25.6
		l0,0c-2.5-0.2-4.5-2.3-4.5-4.8c0-2.4,1.8-4.5,4.2-4.8c0.2,0,0.4-0.2,0.5-0.3c0.1-0.1,0.1-0.3,0.1-0.4v-0.5c0-4,3.3-7.3,7.3-7.3
		c2.7,0,5.2,1.5,6.5,4c0.2,0.3,0.5,0.5,0.9,0.4c0.6-0.2,1.2-0.3,1.9-0.3c3.3,0,6,2.7,6,6c0,0.4,0.3,0.8,0.8,0.8c2,0,3.7,1.6,3.7,3.7
		S51.2,46,49.2,46z"/>
	<path class="st1" d="M41.1,35.2c-1.1,0-2,0.4-2.8,1.2l-4.5,4.5c-0.5,0.5-1.1,0.7-1.7,0.7s-1.2-0.3-1.7-0.7
		c-0.5-0.5-0.7-1.1-0.7-1.7c0-0.6,0.3-1.2,0.7-1.7c0.5-0.5,1.1-0.7,1.7-0.7c0.6,0,1.2,0.2,1.7,0.7l1.1,1.1c0.3,0.3,0.8,0.3,1.1,0
		c0.1-0.1,0.2-0.3,0.2-0.5s-0.1-0.4-0.2-0.5l-1.1-1.1c-0.8-0.8-1.7-1.2-2.8-1.2c-1.1,0-2,0.4-2.8,1.2c-0.8,0.8-1.2,1.8-1.2,2.8
		c0,1,0.4,2,1.2,2.7c0.8,0.8,1.7,1.2,2.8,1.2c1.1,0,2-0.4,2.8-1.2l4.5-4.5c0.5-0.5,1.1-0.7,1.7-0.7c0.6,0,1.2,0.2,1.7,0.7
		c0.5,0.5,0.7,1.1,0.7,1.7c0,0.6-0.3,1.2-0.7,1.7c-0.4,0.5-1,0.7-1.7,0.7c-0.6,0-1.2-0.3-1.7-0.7l-1.1-1.1c-0.3-0.3-0.8-0.3-1.1,0
		c-0.1,0.1-0.2,0.3-0.2,0.5s0.1,0.4,0.2,0.5l1.1,1.1c0.7,0.7,1.7,1.2,2.8,1.2c1.1,0,2-0.4,2.8-1.2c0.8-0.8,1.2-1.8,1.2-2.8
		c0-1-0.4-2-1.2-2.7C43.2,35.6,42.2,35.2,41.1,35.2z"/>
</g>
</svg>
