<?xml version="1.0" encoding="utf-8"?>
<!-- Generator: Adobe Illustrator 21.0.2, SVG Export Plug-In . SVG Version: 6.00 Build 0)  -->
<svg version="1.1" id="Layer_1" xmlns="http://www.w3.org/2000/svg" xmlns:xlink="http://www.w3.org/1999/xlink" x="0px" y="0px"
	 viewBox="0 0 74 74" style="enable-background:new 0 0 74 74;" xml:space="preserve">
<style type="text/css">
	.st0{fill:#006FAF;}
</style>
<title>intelligent-business-app</title>
<g>
	<path class="st0" d="M37,74C16.6,74,0,57.4,0,37C0,16.6,16.6,0,37,0c20.4,0,37,16.6,37,37C74,57.4,57.4,74,37,74z M37,2
		C17.7,2,2,17.7,2,37s15.7,35,35,35s35-15.7,35-35S56.3,2,37,2z"/>
</g>
<g>
	<g>
		<polygon class="st0" points="42,58.4 35.8,55.5 41.4,51.5 		"/>
	</g>
	<g>
		<g>
			<path class="st0" d="M54.8,34c-0.6-0.1-0.7-0.6-1-1.4C53,30,50.3,22,40.6,19.7l0.5-1.9c7.2,1.7,12.1,6.5,14.6,14.2
				c0.1,0.3,0.1,0.4,0.2,0.5c-0.1-0.1-0.3-0.4-0.7-0.5l-0.2,1l0.7,0.7L54.8,34z"/>
		</g>
		<g>
			<polygon class="st0" points="58,31.8 55.6,37.6 51.8,32.7 			"/>
		</g>
		<g>
			<path class="st0" d="M41.2,55.9c0.1-0.1,0.4-0.3,0.5-0.6l-1-0.2L40,55.8l-0.2-1c0.2-0.6,0.6-0.7,1.5-0.9
				c2.6-0.7,10.7-2.9,13.5-12.5l1.9,0.6c-2.1,7.1-7.1,11.7-14.8,13.9C41.5,55.8,41.3,55.9,41.2,55.9z"/>
		</g>
		<g>
			<path class="st0" d="M33,56.1c-7.2-1.7-12.1-6.4-14.7-14.1c-0.1-0.3-0.1-0.4-0.2-0.5c0.1,0.1,0.3,0.4,0.7,0.5l0.2-1l-0.7-0.7
				l1-0.3c0.6,0.1,0.8,0.6,1,1.4c0.9,2.6,3.5,10.5,13.3,12.8L33,56.1z"/>
		</g>
		<g>
			<polygon class="st0" points="16,42.2 18.3,36.3 22.2,41.3 			"/>
		</g>
		<g>
			<path class="st0" d="M19.3,32.7l-1.9-0.6c2.1-7.1,7.1-11.8,14.8-14c0.3-0.1,0.5-0.1,0.6-0.2c-0.1,0.1-0.4,0.3-0.5,0.6l1,0.2
				l0.8-0.7l0.2,1c-0.2,0.6-0.6,0.7-1.5,1C30.1,20.9,22.1,23.2,19.3,32.7z"/>
		</g>
		<g>
			<polygon class="st0" points="32,15.6 38.2,18.5 32.6,22.4 			"/>
		</g>
		<g>
			<g>
				<path class="st0" d="M44.5,38.1c0-1.4,0-2.8,0-4.2c0-0.6-0.2-0.8-0.7-1c-3.5-1.1-7.1-2.2-10.7-3.2c-0.6-0.2-1.2-0.4-1.9-0.6
					c-0.7-0.2-1.2,0.2-1.2,0.9c0,1.9,0,3.8,0,5.6c0,0.2,0,0.3-0.1,0.4c-0.1,0.2-0.3,0.3-0.4,0.3s-0.4-0.2-0.5-0.3
					c-0.1-0.1-0.1-0.3-0.1-0.4c0-1.9,0-3.7,0-5.6c0-1.4,1.1-2.3,2.5-1.9c3.4,1,6.9,2.1,10.4,3.1c0.7,0.2,1.4,0.4,2.2,0.7
					c0.9,0.3,1.4,0.9,1.4,1.9c0,2.8,0,5.6,0,8.4c0,1.2-0.5,1.9-1.5,2.1c-0.2,0.1-0.4,0.1-0.5,0c-0.6-0.2-1.1-0.3-1.6-0.5
					c-0.3-0.1-0.4-0.3-0.4-0.6c0.1-0.3,0.4-0.4,0.6-0.3c0.4,0.1,0.8,0.3,1.2,0.4c0.8,0.2,1.3-0.2,1.3-1
					C44.5,40.9,44.5,39.5,44.5,38.1z"/>
			</g>
			<g>
				<path class="st0" d="M38,40c0-1.6,0-3.1,0-4.7c0-0.6,0.3-1,0.8-1.1c0.5-0.2,1.1,0,1.3,0.5c0.1,0.2,0.2,0.5,0.2,0.8
					c0,3,0,6.1-0.1,9.1c0,0.3-0.2,0.7-0.3,1c-0.3,0.4-0.8,0.5-1.2,0.3c-0.5-0.2-0.7-0.6-0.7-1.1C38,43.2,38,41.6,38,40z"/>
			</g>
			<g>
				<path class="st0" d="M34.9,40.1c0-1.2,0-2.4,0-3.6c0-0.6,0.4-1,0.9-1.1c0.5-0.1,1.1,0.2,1.2,0.7c0.1,0.3,0.1,0.5,0.1,0.8
					c0,2.3,0,4.5,0,6.7c0,0.8-0.5,1.2-1.2,1.2c-0.7,0-1.1-0.5-1.1-1.2C34.9,42.4,34.9,41.2,34.9,40.1z"/>
			</g>
			<g>
				<path class="st0" d="M31.7,40c0-0.8,0-1.5,0-2.3c0-0.7,0.5-1.1,1.1-1.1c0.6,0,1.1,0.5,1.1,1.1c0,1.5,0,3.1,0,4.6
					c0,0.7-0.5,1.2-1.1,1.2c-0.7,0-1.1-0.5-1.1-1.2C31.7,41.6,31.7,40.8,31.7,40z"/>
			</g>
			<g>
				<path class="st0" d="M30.7,40.1c0,0.4,0,0.8,0,1.2c0,0.7-0.5,1.1-1.1,1.2c-0.6,0-1.1-0.5-1.1-1.1c-0.1-0.9-0.1-1.8,0-2.7
					c0-0.6,0.6-1.1,1.2-1c0.6,0,1,0.5,1.1,1.1C30.7,39.2,30.7,39.6,30.7,40.1z"/>
			</g>
		</g>
	</g>
</g>
</svg>
