<?xml version="1.0" encoding="utf-8"?>
<!-- Generator: Adobe Illustrator 21.0.2, SVG Export Plug-In . SVG Version: 6.00 Build 0)  -->
<svg version="1.1" id="Layer_1" xmlns="http://www.w3.org/2000/svg" xmlns:xlink="http://www.w3.org/1999/xlink" x="0px" y="0px"
	 viewBox="0 0 74 74" style="enable-background:new 0 0 74 74;" xml:space="preserve">
<style type="text/css">
	.st0{fill:none;stroke:#006FAF;stroke-width:2;stroke-miterlimit:10;}
	.st1{fill:#006FAF;}
</style>
<title>intelligent-business-app</title>
<circle class="st0" cx="37" cy="37" r="36"/>
<g>
	<path class="st1" d="M22.1,32.2c-2.6,0.1-5.2,0.1-7.8,0c-0.7,0-0.9,0.2-0.9,0.9c0.1,1.3,0,2.6,0,3.9c0,1.3,0.1,2.7,0,4
		c0,0.7,0.3,0.9,0.9,0.9c2.6-0.1,5.2-0.1,7.8,0c0.7,0,1-0.2,0.9-0.9c-0.1-2.6-0.1-5.2,0-7.8C23.1,32.3,22.8,32.2,22.1,32.2z
		 M18.4,40c-3.1,0-3.1,0-3.1-3c0-2.9,0-2.9,2.9-2.9c3.1,0,3.1,0,3.1,3.1C21.3,40,21.3,40,18.4,40z"/>
	<path class="st1" d="M34.2,32.2c-1.9-0.1-3.7-0.1-5.6,0c-1.1,0-1.9,0.7-1.9,1.8c-0.1,2-0.1,4,0,5.9c0.1,1.1,0.8,1.8,2,1.8
		c0.9,0,1.8,0,2.8,0s1.8,0,2.8,0c1.3-0.1,2.1-0.7,2.1-1.9c0.1-1.9,0.1-3.8,0-5.7C36.2,32.9,35.4,32.2,34.2,32.2z M31.5,40
		c-3,0-3,0-3-3c0-3,0-3,2.9-3c3,0,3,0,3,3C34.4,40,34.4,40,31.5,40z"/>
	<path class="st1" d="M48.4,35.7c-0.1-1.9-1.6-3.4-3.5-3.5c-0.6,0-1.1,0-1.7,0c-1.9-0.1-3.3,0.5-4.1,2.3c-0.8,1.9-0.3,5.3,0.9,6.4
		c1.1,1,2.3,1,3.6,0.9c3.3,0.3,5.2-1.4,4.9-4.8C48.4,36.6,48.5,36.1,48.4,35.7z M43.6,40c-2.5,0-2.9-0.5-2.9-3.1
		c0-2.5,0.5-2.9,3.1-2.9c2.4,0,2.8,0.4,2.8,3.1C46.6,39.6,46.2,40,43.6,40z"/>
	<path class="st1" d="M55.7,32.2c-2.6,0-4.8,2.1-4.8,4.8c0,2.7,2.1,4.8,4.8,4.8c2.6,0,4.8-2.1,4.8-4.8S58.3,32.2,55.7,32.2z
		 M55.7,40c-1.6,0-2.9-1.3-3-2.9c-0.1-1.6,1.4-3.1,3-3.1c1.6,0,2.9,1.4,2.9,3C58.7,38.6,57.3,39.9,55.7,40z"/>
</g>
</svg>
