<?xml version="1.0" encoding="utf-8"?>
<!-- Generator: Adobe Illustrator 21.0.2, SVG Export Plug-In . SVG Version: 6.00 Build 0)  -->
<svg version="1.1" id="Layer_1" xmlns="http://www.w3.org/2000/svg" xmlns:xlink="http://www.w3.org/1999/xlink" x="0px" y="0px"
	 viewBox="0 0 74 74" style="enable-background:new 0 0 74 74;" xml:space="preserve">
<style type="text/css">
	.st0{fill:#006FAF;}
</style>
<title>digital-transformation</title>
<path class="st0" d="M37,74C16.6,74,0,57.4,0,37C0,16.6,16.6,0,37,0c20.4,0,37,16.6,37,37C74,57.4,57.4,74,37,74z M37,2
	C17.7,2,2,17.7,2,37s15.7,35,35,35s35-15.7,35-35S56.3,2,37,2z"/>
<g>
	<path class="st0" d="M29.9,44.5c0.3,0,0.4,0.3,0.5,0.5c3.5,5.8,11.8,6.8,16.4,1.8c0.3-0.3,0.5-0.4,0.8,0c0.3,0.3,0.6,0.6,0.9,0.9
		c0.3,0.3,0.9,0.5,0.2,1.2c-0.6,0.6-0.9,0.5-1.3-0.1c-0.5-0.6-0.8-0.2-1.2,0.1c-5.5,4.1-13.4,2.6-16.9-3.2
		C28.9,44.9,29.2,44.7,29.9,44.5z"/>
	<path class="st0" d="M27.2,43.9c-0.7,0-0.4-0.6-0.6-0.9c-0.2-0.4,0.1-0.6,0.4-0.6c1.1,0,1-0.8,0.9-1.5c-0.5-5.2,2.7-10.1,7.6-11.8
		c0.4-0.1,0.8-0.4,1,0.2c0.2,0.6-0.1,0.7-0.5,0.9c-5.4,2.2-7.8,6.8-6.5,12.4c0.1,0.5,0.2,0.8-0.5,0.9C28.3,43.5,27.7,43.7,27.2,43.9
		z"/>
	<path class="st0" d="M45.8,31.7c0.4-0.4,0.9-0.7,1.3-1.1c0.4-0.3,0.6-1,1.3-0.3c0.7,0.6,0.4,0.9-0.1,1.3c-0.6,0.4-0.2,0.7,0.1,1.1
		c2.8,3.9,3.2,8,1,12.3c-0.1,0.3-0.2,0.8-0.8,0.5c-0.4-0.2-0.6-0.4-0.3-1C50.6,39.7,49.9,36,45.8,31.7z"/>
	<path class="st0" d="M38.5,28c0.3-0.4-0.6-1.3,0.7-1.3c0.6,0,1,0.1,0.9,0.8c-0.1,0.6,0.2,0.8,0.8,0.9c1.4,0.2,2.8,0.6,4.1,1.4
		c0.4,0.2,0.7,0.4,0.3,0.9c-0.3,0.4-0.5,0.5-0.9,0.2c-1.6-0.9-3.4-1.3-5.3-1.4C38.5,29.5,38.5,29.5,38.5,28z"/>
	<path class="st0" d="M39.2,17c-2.5,0-4.6,2-4.6,4.5c0,2.5,2,4.5,4.6,4.5c2.6,0,4.7-2,4.6-4.6C43.8,19,41.7,17,39.2,17z M39.2,24.4
		c-1.7,0-3-1.4-3-3c0-1.6,1.4-2.9,3.1-2.9c1.6,0,2.9,1.4,2.9,2.9C42.2,23.1,40.8,24.5,39.2,24.4z"/>
	<path class="st0" d="M52.5,48c-2.6,0-4.6,2-4.6,4.5c0,2.5,2,4.5,4.6,4.5c2.6,0,4.5-1.9,4.6-4.5C57,50,55.1,48,52.5,48z M52.3,55.4
		c-1.6,0-2.9-1.4-2.9-2.9c0-1.6,1.4-2.9,3-2.9c1.7,0,2.9,1.3,2.9,3C55.4,54.2,54.1,55.5,52.3,55.4z"/>
	<path class="st0" d="M52,22.1c-2.5,0.1-4.5,2.1-4.5,4.6c0,2.5,2.1,4.5,4.6,4.5c2.5,0,4.6-2.1,4.6-4.6C56.7,24.2,54.5,22.1,52,22.1z
		 M52.1,29.7c-1.6,0-3-1.4-3-3c0-1.6,1.4-3,3-3c1.6,0,2.9,1.4,3,2.9C55.2,28.2,53.7,29.7,52.1,29.7z"/>
	<path class="st0" d="M21.5,40C19,40,17,42,17,44.6c0,2.5,2,4.5,4.5,4.6c2.5,0,4.7-2.1,4.6-4.6C26.1,42,24.1,40,21.5,40z M21.6,47.5
		c-1.7,0-3-1.3-3-3c0-1.7,1.3-3,3-3c1.6,0,2.9,1.3,2.9,2.9C24.6,46.2,23.2,47.5,21.6,47.5z"/>
	<g>
		<path class="st0" d="M39.3,30.7c-5.1,0-9.2,4-9.2,9.1c0,5,4.1,9.1,9.2,9.1c5.1,0,9.2-4,9.2-9.1C48.5,34.7,44.4,30.7,39.3,30.7z
			 M39.3,47.3c-4.3,0-7.7-3.4-7.7-7.5c0-4.2,3.4-7.5,7.7-7.5c4.2,0,7.5,3.3,7.5,7.5C46.9,44,43.6,47.3,39.3,47.3z"/>
		<path class="st0" d="M43,39c-0.6,0-0.6-0.4-0.6-0.9c0-0.5,0-1.1-0.1-1.6c-0.4-1.5-1.6-2.4-3.1-2.3c-1.5,0.1-2.7,1.2-2.9,2.8
			c0,0.5,0,0.9,0,1.4c0,0.3,0,0.6-0.4,0.6c-0.8,0.1-1,0.7-1,1.5c0,0.8,0,1.6,0,2.4c-0.1,1.1,0.5,1.5,1.5,1.5c1,0,2,0,3,0
			c0.8,0,1.7,0,2.5,0c0.8,0,1.8,0.1,1.8-0.9c0-1.5,0.7-3.1-0.5-4.4C43.1,39.1,43,39,43,39z M39.3,43c-0.7,0,0.1-1.7-0.8-1.7
			c-0.4,0,0.3-1,0.8-1c0.6,0.1,0.8,0.4,0.8,1C39.3,41.4,40,43,39.3,43z M40.8,39c-0.5,0-1.1,0-1.6,0c-0.1,0-0.2,0-0.3,0
			c-0.6-0.2-1.6,0.6-1.7-0.6c-0.2-1.8,0.5-2.9,1.7-3.1c1.1-0.2,2.2,0.4,2.4,1.4c0.1,0.6,0.1,1.2,0.1,1.8C41.4,38.9,41.2,39,40.8,39z
			"/>
	</g>
</g>
</svg>
