<?xml version="1.0" encoding="utf-8"?>
<!-- Generator: Adobe Illustrator 21.0.2, SVG Export Plug-In . SVG Version: 6.00 Build 0)  -->
<svg version="1.1" id="Layer_1" xmlns="http://www.w3.org/2000/svg" xmlns:xlink="http://www.w3.org/1999/xlink" x="0px" y="0px"
	 viewBox="0 0 74 74" style="enable-background:new 0 0 74 74;" xml:space="preserve">
<style type="text/css">
	.st0{fill:none;stroke:#006FAF;stroke-width:2;stroke-miterlimit:10;}
	.st1{fill:#006FAF;}
</style>
<title>Cloud &amp;amp; Infrastructure Services</title>
<circle class="st0" cx="37" cy="37" r="36"/>
<path class="st1" d="M45.1,23l2.4,2.5l-10.3,7.9c-0.3,0-0.6,0-0.9,0l-6.2-2.8c-0.3-0.1-0.6-0.1-0.9,0.1L22,35.1
	c-0.5,0.3-0.6,0.9-0.3,1.3c0.2,0.3,0.5,0.5,0.8,0.5c0.2,0,0.3-0.1,0.5-0.1l6.8-4.2l2.6,1.2c-0.7,0.1-1.4,0.3-2.1,0.6
	c-1.3,0.5-1.7,1-1.7,2.4v4.6v2.2v6.7c0,2.1,0.3,2.5,2.4,3.1c2.3,0.6,4.4,0.7,6.3,0.7c2.3,0,4.7-0.1,7.1-0.9c0.6-0.2,1.5-0.5,1.7-1.5
	l0.1-7.3l0-0.2c0,0,0-0.4,0-0.6c0-0.1,0-0.1,0-0.1l0-2l0-2.3c0-0.1,0-0.2,0-0.3l0-1.8l0-0.1l0,0c0.3-2-1.3-2.4-2.3-2.7
	c-1.1-0.3-2.3-0.5-3.6-0.6l8.6-6.6l2.2,2.3l2.5-8.3L45.1,23z M43.5,51.5c-1.8,0.5-3.7,0.7-6.1,0.7c-2.4,0-4.4-0.2-6.2-0.7
	c-0.6-0.2-0.8-0.4-0.7-1c0.1-0.6,0-1.2,0-1.8c0-0.2,0-0.3,0-0.5c3.1,0.6,5.2,0.8,7.1,0.8c2,0,3.9-0.2,6.7-0.9c0,0.1,0,0.5,0,0.5
	c0,0.6,0,1.2,0,1.8C44.4,51.1,44.1,51.3,43.5,51.5z M44.3,45.9c0,0.2,0,0.2-0.5,0.3c-1.2,0.5-2.4,0.6-3.7,0.7c-1,0.1-2,0.1-2.9,0.1
	c-2,0-3.8-0.2-5.5-0.6c-1.2-0.3-1.2-0.3-1.2-1.4l0-1.6l0-0.6c0.8,0.2,1.8,0.4,2.8,0.6c1.3,0.2,2.7,0.3,4.1,0.3c1.4,0,2.8-0.1,4-0.3
	c1-0.1,1.9-0.3,2.8-0.5v0.5V45.9z M44.3,38.1v2.5c0,0.2-0.1,0.2-0.3,0.3L43.8,41c-0.3,0.1-0.6,0.2-1,0.3c-0.6,0.1-1.2,0.2-1.9,0.3
	c-0.1,0-0.3,0-0.4,0c-1.2,0.1-2.3,0.2-3.4,0.2c-1,0-2-0.1-3-0.2c-0.8-0.1-1.5-0.2-2.3-0.4c-0.1,0-0.3-0.1-0.4-0.1
	c-0.8-0.2-1-0.4-1-1.4c0-0.5,0-0.9,0-1.4l0-0.3c2.4,0.6,4.7,0.8,7,0.8C39.7,39,42,38.7,44.3,38.1z M43.7,36.2
	c-1.2,0.5-3.6,0.9-6.3,0.9c-2.6,0-5-0.3-6.3-0.8c1-0.5,2.8-0.8,4.9-0.9l0.6,0.3c0.3,0.1,0.7,0.1,1-0.1l0.2-0.2
	C40.3,35.4,42.5,35.7,43.7,36.2z"/>
</svg>
