<?xml version="1.0" encoding="utf-8"?>
<!-- Generator: Adobe Illustrator 21.0.2, SVG Export Plug-In . SVG Version: 6.00 Build 0)  -->
<svg version="1.1" id="Layer_1" xmlns="http://www.w3.org/2000/svg" xmlns:xlink="http://www.w3.org/1999/xlink" x="0px" y="0px"
	 viewBox="0 0 75 75" style="enable-background:new 0 0 75 75;" xml:space="preserve">
<style type="text/css">
	.st0{fill:none;stroke:#006FAF;stroke-width:2;stroke-miterlimit:10;}
	.st1{fill:#006FAF;}
</style>
<circle class="st0" cx="37.5" cy="37.5" r="36"/>
<g>
	<path class="st1" d="M27.9,46.2c-3.3,0-5.2-1.9-5.2-5.2V28.8c0-3,1.9-5,4.7-5.1c3.3,0,6.7-0.1,10-0.1c3.3,0,6.6,0,10,0
		c2.9,0.1,4.8,2.1,4.9,5.1c0.1,4.1,0.1,8.3,0,12.4c-0.1,3.2-2,5.1-5.3,5.1H27.9z M27.9,25.6c-2.2,0.1-3.4,1.2-3.4,3.4
		c0,4.1,0,7.9-0.1,11.8c0,2.5,1.1,3.6,3.6,3.6h18.8c2.2,0,3.4-1.2,3.4-3.4c0.1-4,0.1-8,0-12c0-2.2-1.2-3.4-3.4-3.4H27.9L27.9,25.6z"
		/>
	<path class="st1" d="M19,51.3c-0.1,0-0.2,0-0.3,0c-0.4-0.1-0.7-0.3-0.8-0.8c-0.1-0.5,0.2-0.8,0.7-1c0.4-0.1,0.9-0.1,1.2-0.1h35.4
		c0.1,0,0.7,0,0.8,0c0.1,0,0.2,0,0.3,0c0.3,0,0.5,0.1,0.6,0.2c0.1,0.1,0.2,0.3,0.2,0.6c0,0.3-0.1,0.6-0.2,0.7
		c-0.2,0.2-0.4,0.2-0.6,0.2H19.8C19.7,51.3,19.1,51.3,19,51.3z"/>
	<g>
		<polygon class="st1" points="31.3,34.6 35.3,29.3 39.5,32 42.9,29 43.6,29.8 39.6,33.4 35.6,30.8 32.1,35.2 		"/>
		<circle class="st1" cx="31.4" cy="35.3" r="1.2"/>
		<circle class="st1" cx="43.6" cy="29" r="1.2"/>
		<circle class="st1" cx="39.5" cy="32.7" r="1.2"/>
		<circle class="st1" cx="35.5" cy="30.1" r="1.2"/>
		<rect x="30.4" y="37.6" class="st1" width="2.1" height="4.7"/>
		<rect x="38.5" y="35.2" class="st1" width="2.1" height="7"/>
		<rect x="42.6" y="32.1" class="st1" width="2.1" height="10.2"/>
		<rect x="34.4" y="33.3" class="st1" width="2.1" height="9"/>
	</g>
</g>
</svg>
