<?xml version="1.0" encoding="utf-8"?>
<!-- Generator: Adobe Illustrator 21.0.2, SVG Export Plug-In . SVG Version: 6.00 Build 0)  -->
<svg version="1.1" id="Layer_1" xmlns="http://www.w3.org/2000/svg" xmlns:xlink="http://www.w3.org/1999/xlink" x="0px" y="0px"
	 viewBox="0 0 74 74" style="enable-background:new 0 0 74 74;" xml:space="preserve">
<style type="text/css">
	.st0{fill:none;stroke:#006FAF;stroke-width:2;stroke-miterlimit:10;}
	.st1{fill:none;}
	.st2{fill:#006FAF;}
</style>
<title>Cloud &amp;amp; Infrastructure Services</title>
<circle class="st0" cx="37" cy="37" r="36"/>
<rect x="20" y="20" class="st1" width="34" height="34"/>
<rect x="20" y="20" class="st1" width="34" height="34"/>
<path class="st2" d="M39,43.5c-1.2-0.2-2.5,0.2-3.4,1.8l-0.1,0.2l-0.3,0c-3.6,0.5-6.3-4.9-6.5-5.4c-0.3-0.5-3.6-5.5-1.4-8.4l0.2-0.2
	l0.3,0c1.8,0,2.9-0.9,3.3-2.1c0.4-1.3,0.2-2.9-0.4-4.4c-0.6-1.5-1.7-2.8-2.9-3.3c-1.3-0.6-2.9-0.4-4.6,1.2L23,23
	c0,0-5.5,3.9,2.5,18.9c9.1,14.4,15.1,11.6,15.2,11.6l0.1,0c2.3-0.6,3.2-1.9,3.4-3.4c0.1-1.4-0.5-2.9-1.4-4.2
	C41.7,44.7,40.3,43.7,39,43.5L39,43.5z M34.7,44.4c1.2-1.9,2.9-2.4,4.5-2.1c1.6,0.3,3.2,1.5,4.3,2.9c1.1,1.5,1.8,3.3,1.7,5
	c-0.2,1.9-1.4,3.6-4.2,4.4c-0.6,0.2-7.4,2.5-16.6-12.1l0,0c-8.2-15.5-2.6-20.1-2.2-20.5c2.1-2,4.2-2.2,5.9-1.4
	c1.6,0.7,2.8,2.2,3.5,4c0.7,1.7,0.9,3.7,0.4,5.2c-0.5,1.6-1.8,2.8-4.1,2.9c-1.4,2.3,1.6,6.8,1.6,6.8l0,0.1
	C29.7,39.6,32,44.4,34.7,44.4L34.7,44.4z"/>
<path class="st2" d="M44.3,48.2c3.9-2.4,6.6-6,7.8-9.8c1.2-3.8,1-7.8-1-11.3c-2-3.4-5.4-5.7-9.2-6.5c-3.9-0.9-8.3-0.3-12.4,1.9
	l-0.6-1.1c4.3-2.3,9-2.9,13.2-2c4.2,0.9,7.8,3.3,10,7.1c2.2,3.7,2.4,8.1,1.1,12.2c-1.3,4.1-4.2,7.9-8.3,10.5L44.3,48.2L44.3,48.2z"
	/>
<path class="st2" d="M45.3,29.8c-1,0-1.9,0.4-2.6,1.1l-4.2,4.2c-0.4,0.4-1,0.7-1.6,0.7c-0.6,0-1.2-0.2-1.6-0.7
	c-0.4-0.4-0.7-1-0.7-1.6c0-0.6,0.2-1.2,0.7-1.6c0.4-0.4,1-0.7,1.6-0.7c0.6,0,1.2,0.2,1.6,0.7l1,1c0.3,0.3,0.7,0.3,1,0
	c0.1-0.1,0.2-0.3,0.2-0.5s-0.1-0.4-0.2-0.5l-1-1c-0.7-0.7-1.6-1.1-2.6-1.1c-1,0-1.9,0.4-2.6,1.1c-0.7,0.7-1.1,1.7-1.1,2.7
	c0,1,0.4,1.9,1.1,2.6c0.7,0.7,1.6,1.1,2.6,1.1c1,0,1.9-0.4,2.6-1.1l4.3-4.3c0.4-0.4,1-0.7,1.6-0.7c0.6,0,1.2,0.2,1.6,0.7
	c0.4,0.4,0.7,1,0.7,1.6c0,0.6-0.2,1.2-0.7,1.6c-0.4,0.4-1,0.7-1.6,0.7c-0.6,0-1.2-0.2-1.6-0.7l-1-1c-0.3-0.3-0.7-0.3-1,0
	c-0.1,0.1-0.2,0.3-0.2,0.5s0.1,0.4,0.2,0.5l1,1c0.7,0.7,1.6,1.1,2.6,1.1c1,0,1.9-0.4,2.6-1.1c0.7-0.7,1.1-1.7,1.1-2.7
	c0-1-0.4-1.9-1.1-2.6C47.3,30.2,46.3,29.8,45.3,29.8z"/>
</svg>
