<svg id="Layer_1" data-name="Layer 1" xmlns="http://www.w3.org/2000/svg" width="74" height="74" viewBox="0 0 74 74">
  <defs>
    <style>
      .cls-1, .cls-2 {
        fill: none;
      }

      .cls-1 {
        stroke: #006faf;
        stroke-miterlimit: 10;
        stroke-width: 2px;
      }

      .cls-3 {
        fill: #006faf;
      }
    </style>
  </defs>
  <title>managed-services</title>
  <circle class="cls-1" cx="37" cy="37" r="36"/>
  <rect class="cls-2" x="20" y="20" width="34" height="34"/>
  <rect class="cls-2" x="20" y="20" width="34" height="34"/>
  <g>
    <path class="cls-3" d="M39,43.46a3.17,3.17,0,0,0-3.45,1.78l-.15.25-.28,0c-3.55.49-6.28-4.9-6.54-5.42S25,34.57,27.19,31.73l.17-.22h.29a3.17,3.17,0,0,0,3.27-2.09,6.37,6.37,0,0,0-.37-4.36,6.28,6.28,0,0,0-2.92-3.33c-1.32-.6-2.93-.41-4.62,1.22L23,23s-5.46,3.86,2.5,18.94C34.55,56.36,40.6,53.57,40.62,53.56l.07,0c2.26-.65,3.23-1.94,3.37-3.39A6.28,6.28,0,0,0,42.62,46,6.36,6.36,0,0,0,39,43.46Zm-4.3.91a4.21,4.21,0,0,1,4.53-2.08,7.56,7.56,0,0,1,4.31,2.95,7.46,7.46,0,0,1,1.67,5c-.18,1.91-1.4,3.6-4.2,4.41-.58.23-7.37,2.54-16.6-12.13l0,0C16.25,27,21.84,22.35,22.23,22.05c2.1-2,4.17-2.21,5.9-1.41a7.47,7.47,0,0,1,3.52,4A7.56,7.56,0,0,1,32,29.8,4.21,4.21,0,0,1,28,32.68c-1.43,2.35,1.63,6.78,1.64,6.79l0,.08s2.32,4.88,5.06,4.82Z"/>
    <path class="cls-3" d="M44.28,48.23a18.28,18.28,0,0,0,7.8-9.81A13.5,13.5,0,0,0,41.82,20.63a18.28,18.28,0,0,0-12.4,1.85l-.55-1.05a19.47,19.47,0,0,1,13.21-2,14.69,14.69,0,0,1,11.15,19.3,19.47,19.47,0,0,1-8.31,10.46l-.63-1Z"/>
    <path class="cls-3" d="M45.12,33.83V30.06l-2.61,3.77h2.61Zm0,2.94v-2H41.5v-.94l3.81-5.41h.84v5.41h1.13v.94H46.15v2h-1Zm-4.39-1v1H35.21a1.8,1.8,0,0,1,.12-.71A3.76,3.76,0,0,1,36,34.95a10.86,10.86,0,0,1,1.34-1.26,11.36,11.36,0,0,0,1.84-1.77,2.12,2.12,0,0,0,.48-1.23,1.38,1.38,0,0,0-.44-1,1.78,1.78,0,0,0-2.32,0,1.67,1.67,0,0,0-.45,1.23l-1.05-.11a2.6,2.6,0,0,1,.81-1.8,2.78,2.78,0,0,1,1.9-.62A2.65,2.65,0,0,1,40,29a2.19,2.19,0,0,1,.7,1.65,2.48,2.48,0,0,1-.21,1,3.79,3.79,0,0,1-.68,1,16.36,16.36,0,0,1-1.58,1.47q-.92.78-1.18,1.05a3.31,3.31,0,0,0-.43.55h4.1Z"/>
  </g>
</svg>
