<?xml version="1.0" encoding="utf-8"?>
<!-- Generator: Adobe Illustrator 21.0.2, SVG Export Plug-In . SVG Version: 6.00 Build 0)  -->
<svg version="1.1" id="Layer_1" xmlns="http://www.w3.org/2000/svg" xmlns:xlink="http://www.w3.org/1999/xlink" x="0px" y="0px"
	 viewBox="0 0 74 74" style="enable-background:new 0 0 74 74;" xml:space="preserve">
<style type="text/css">
	.st0{fill:none;stroke:#006FAF;stroke-width:2;stroke-miterlimit:10;}
	.st1{fill:#006FAF;}
	.st2{fill:none;stroke:#006FAF;stroke-width:1.3;stroke-linecap:round;stroke-miterlimit:10;}
</style>
<title>Cloud &amp;amp; Infrastructure Services</title>
<circle class="st0" cx="37" cy="37" r="36"/>
<path class="st1" d="M25.5,44.8c3.8,0,7.7,0,11.5,0s7.7,0,11.5,0c2.3,0,3.6-1.2,3.6-3.4c0.1-4.9,0.1-9.9,0-14.8
	c0-2.3-1.3-3.4-3.6-3.4c-7.7,0-15.4,0-23.1,0c-2.4,0-3.6,1.2-3.6,3.6c0,4.8,0,9.7,0,14.5C21.9,43.6,23.1,44.8,25.5,44.8z M23.8,26.9
	c0-1.6,0.4-1.9,2-1.9c7.5,0,15.1,0,22.6,0c1.6,0,2.1,0.4,2.1,2.1c0,4.6,0,9.3,0,13.9c0,1.7-0.4,2.1-2.1,2.1c-3.8,0-7.5,0-11.3,0
	c-3.8,0-7.5,0-11.3,0c-1.7,0-2-0.3-2-1.9C23.8,36.3,23.8,31.6,23.8,26.9z"/>
<path class="st1" d="M55.1,49c-0.3,0-0.6,0-0.9,0c-5.7,0-11.4,0-17.1,0s-11.4,0-17.1,0c-0.8,0-1.9-0.4-1.9,0.9
	c0.1,1.2,1.2,0.9,1.9,0.9c11.3,0,22.7,0,34,0c0.4,0,0.8,0,1.2,0c0.6-0.1,0.9-0.4,0.9-0.9C56.1,49.4,55.7,49,55.1,49z"/>
<g>
	<path class="st2" d="M31.6,36.4l-0.8,0.6c0,0-0.7,0.6,0.1,0.9l5.1,2.2c0,0,1,0.5,2,0l4.9-2.3c0,0,1.1-0.4,0.2-0.7l-0.9-0.4"/>
	<path class="st2" d="M31.6,32.9l-0.8,0.6c0,0-0.7,0.6,0.1,0.9l5.1,2.2c0,0,1,0.5,2,0l4.9-2.3c0,0,1.1-0.4,0.2-0.7l-0.9-0.4"/>
	<path class="st2" d="M41.9,29.5l1.2,0.5c0.6,0.4-0.2,0.8-0.2,0.8L38,33.1c-1.2,0.6-2.3,0-2.3,0l-4.6-2c0,0,0,0-0.1,0
		c-1.4-0.7,0.2-1.3,0.2-1.3l4.8-2.2c0.7-0.3,1.1,0,1.1,0l1.4,0.6L41.9,29.5z"/>
</g>
</svg>
