<?xml version="1.0" encoding="utf-8"?>
<!-- Generator: Adobe Illustrator 21.0.2, SVG Export Plug-In . SVG Version: 6.00 Build 0)  -->
<svg version="1.1" id="Layer_1" xmlns="http://www.w3.org/2000/svg" xmlns:xlink="http://www.w3.org/1999/xlink" x="0px" y="0px"
	 viewBox="0 0 74 74" style="enable-background:new 0 0 74 74;" xml:space="preserve">
<style type="text/css">
	.st0{fill:none;stroke:#006FAF;stroke-width:2;stroke-miterlimit:10;}
	.st1{fill:none;}
	.st2{fill:#006FAF;}
	.st3{fill:none;stroke:#006FAF;stroke-miterlimit:10;}
</style>
<title>Cloud &amp;amp; Infrastructure Services</title>
<circle class="st0" cx="37" cy="37" r="36"/>
<polygon class="st1" points="47.7,39.4 47.7,38.6 47.7,38.6 "/>
<polygon class="st1" points="49.6,36.7 49.5,35.7 49.5,36.7 "/>
<path class="st2" d="M21.3,48.7c-0.5,0-0.9-0.4-0.9-0.9s0.4-0.9,0.9-0.9h31.2c0.4,0,0.8,0.4,0.8,0.9c0,0.5-0.4,0.9-0.9,0.9H21.3z"/>
<path class="st2" d="M49.5,36.7v-1.1v-6.4c0-2.2-1.8-3.9-3.9-3.9H28.4c-2.2,0-3.9,1.8-3.9,3.9v2.9v4.6l0.1,1.8v1.8
	c0,2.2,1.8,3.9,3.9,3.9h17.2c2.2,0,3.9-1.8,3.9-3.9v-1.1L49.5,36.7L49.5,36.7z M47.7,39.4v0.5c0,1.4-1.2,2.6-2.6,2.6H28.9
	c-1.4,0-2.6-1.2-2.6-2.6v-1.4v-1.7v-4.3v-2.7c0-1.4,1.2-2.6,2.6-2.6h16.1c1.4,0,2.6,1.2,2.6,2.6v5.6l0,3.2h0V39.4z"/>
<polygon class="st3" points="39.6,34.8 34.6,32.2 34.6,37.4 "/>
</svg>
