<?xml version="1.0" encoding="utf-8"?>
<!-- Generator: Adobe Illustrator 21.0.2, SVG Export Plug-In . SVG Version: 6.00 Build 0)  -->
<svg version="1.1" id="Layer_1" xmlns="http://www.w3.org/2000/svg" xmlns:xlink="http://www.w3.org/1999/xlink" x="0px" y="0px"
	 viewBox="0 0 74 74" style="enable-background:new 0 0 74 74;" xml:space="preserve">
<style type="text/css">
	.st0{fill:none;stroke:#006FAF;stroke-width:2;stroke-miterlimit:10;}
	.st1{fill:#006FAF;}
</style>
<title>os-patch-management</title>
<g id="text">
</g>
<circle class="st0" cx="37" cy="37" r="36"/>
<g>
	<g>
		<rect x="36.1" y="21.4" class="st1" width="1.4" height="1.3"/>
		<rect x="33.7" y="51.3" class="st1" width="6.2" height="1.3"/>
		<path class="st1" d="M44.3,55.7H29.7c-1.8,0-3.2-1.4-3.2-3.2v-31c0-1.8,1.5-3.2,3.2-3.2h14.6c1.8,0,3.2,1.5,3.2,3.2v31
			C47.5,54.3,46.1,55.7,44.3,55.7z M29.7,19.6c-1.1,0-1.9,0.9-1.9,1.9v31c0,1.1,0.9,1.9,1.9,1.9h14.6c1.1,0,1.9-0.9,1.9-1.9v-31
			c0-1.1-0.9-1.9-1.9-1.9C44.3,19.6,29.7,19.6,29.7,19.6z"/>
		<rect x="27.1" y="24.4" class="st1" width="19.8" height="1.3"/>
		<rect x="27.1" y="48.3" class="st1" width="19.8" height="1.3"/>
		<g>
			<g>
				<path class="st1" d="M33.5,31.5h-4v-4h4V31.5z M30.8,30.2h1.3v-1.3h-1.3V30.2z"/>
				<path class="st1" d="M39,31.5h-4v-4h4V31.5z M36.3,30.2h1.3v-1.3h-1.3V30.2z"/>
				<path class="st1" d="M44.5,31.5h-4v-4h4V31.5z M41.8,30.2h1.3v-1.3h-1.3V30.2z"/>
			</g>
			<g>
				<path class="st1" d="M33.5,36.5h-4v-4h4V36.5z M30.8,35.2h1.3v-1.3h-1.3V35.2z"/>
				<path class="st1" d="M39,36.5h-4v-4h4V36.5L39,36.5z M36.3,35.2h1.3v-1.3h-1.3V35.2z"/>
			</g>
			<g>
				<path class="st1" d="M33.5,46.5h-4v-4h4V46.5z M30.8,45.2h1.3v-1.3h-1.3V45.2z"/>
				<path class="st1" d="M39,46.5h-4v-4h4V46.5z M36.3,45.2h1.3v-1.3h-1.3V45.2z"/>
				<path class="st1" d="M44.5,46.5h-4v-4h4V46.5z M41.8,45.2h1.3v-1.3h-1.3V45.2z"/>
			</g>
		</g>
	</g>
	<g>
		<path class="st1" d="M24.6,28.8h-1.3v-1.3h1.3V28.8z M21.9,28.8h-1.3v-1.3h1.3V28.8L21.9,28.8z"/>
		<rect x="18" y="27.5" class="st1" width="1.3" height="1.3"/>
		<path class="st1" d="M19.3,43.9H18v-1.3h1.3V43.9z M19.3,41.4H18v-1.3h1.3V41.4z M19.3,38.9H18v-1.3h1.3V38.9z M19.3,36.4H18v-1.3
			h1.3V36.4z M19.3,33.9H18v-1.3h1.3V33.9z M19.3,31.3H18V30h1.3V31.3z"/>
		<rect x="18" y="45.2" class="st1" width="1.3" height="1.3"/>
		<path class="st1" d="M24.6,46.5h-1.3v-1.3h1.3V46.5z M21.9,46.5h-1.3v-1.3h1.3V46.5z"/>
	</g>
	<g>
		<rect x="49.1" y="27.5" class="st1" width="6.9" height="1.3"/>
		<rect x="49.1" y="30" class="st1" width="6.9" height="1.3"/>
		<rect x="49.1" y="32.6" class="st1" width="6.9" height="1.3"/>
		<rect x="49.1" y="35.1" class="st1" width="6.9" height="1.3"/>
		<rect x="49.1" y="37.6" class="st1" width="6.9" height="1.3"/>
		<rect x="49.1" y="40.1" class="st1" width="6.9" height="1.3"/>
		<rect x="49.1" y="42.7" class="st1" width="6.9" height="1.3"/>
		<rect x="49.1" y="45.2" class="st1" width="6.9" height="1.3"/>
	</g>
</g>
</svg>
