<?xml version="1.0" encoding="utf-8"?>
<!-- Generator: Adobe Illustrator 21.0.2, SVG Export Plug-In . SVG Version: 6.00 Build 0)  -->
<svg version="1.1" id="Layer_1" xmlns="http://www.w3.org/2000/svg" xmlns:xlink="http://www.w3.org/1999/xlink" x="0px" y="0px"
	 viewBox="0 0 74 74" style="enable-background:new 0 0 74 74;" xml:space="preserve">
<style type="text/css">
	.st0{fill:none;stroke:#006FAF;stroke-width:2;stroke-miterlimit:10;}
	.st1{fill:#006FAF;}
</style>
<title>Cloud &amp;amp; Infrastructure Services</title>
<circle class="st0" cx="37" cy="37" r="36"/>
<path class="st1" d="M43.4,18.4c-0.5,0.1-1.3-0.3-1.5,0.7c-0.1,0.7,0.4,0.9,1,0.9c3.7,0.1,5.6,1.8,6,5.9c0.1,0.6,0.2,1,0.8,1
	c0.6,0,0.8-0.5,0.8-1C50.6,21.9,47.4,18.6,43.4,18.4z"/>
<path class="st1" d="M42.2,20.5c-0.6,0-1,0.2-1,0.8c0,0.5,0.4,0.8,0.9,0.8c0.2,0,0.3,0,0.5,0.1c2.4,0.2,3.9,1.7,4,4.1
	c0.1,0.6,0.1,1.3,0.9,1.2c0.8-0.1,0.7-0.8,0.7-1.3C48.1,22.9,45.4,20.4,42.2,20.5z"/>
<path class="st1" d="M41.7,22.6c-0.6,0-1,0.2-1,0.8c0,0.6,0.3,0.7,0.9,0.8c2.1,0.3,2.6,0.8,2.9,2.8c0.1,0.6,0.2,1,0.9,0.9
	c0.6-0.1,0.8-0.5,0.8-1.1C46.1,24.5,44.1,22.6,41.7,22.6z"/>
<path class="st1" d="M38.9,25.9c-3.9,0-7.9,0-11.8,0c-2.3,0-3.5,1.2-3.5,3.5c0,7.5,0,15.1,0,22.6c0,2.3,1.3,3.5,3.5,3.5
	c3.9,0,7.9,0,11.8,0c2.6,0,3.8-1.2,3.8-3.7c0-3.7,0-7.4,0-11s0-7.4,0-11C42.6,27.1,41.6,25.9,38.9,25.9z M41,52.1
	c0,1.3-0.6,1.9-1.9,1.9c-4.1,0-8.1,0-12.2,0c-1.3,0-1.9-0.6-1.9-1.9c0-7.5,0-15.1,0-22.6c0-1.4,0.5-1.9,1.9-1.9c0.1,0,0.2,0,0.3,0
	l0,0h11.9l0,0c1.3,0.1,1.7,0.6,1.7,2c0,6.1,0,12.2,0,18.3C41,49.3,41,50.7,41,52.1z"/>
<path class="st1" d="M33.2,49.6c-1.6,0-3.3,0-4.9,0c-1.5,0-2.1-0.7-2.1-2.2V32.5c0-1.5,0.8-2.4,2.3-2.4c1.5,0,3.1,0,4.6,0
	s3.1,0,4.6,0c1.5,0,2.3,0.9,2.3,2.5v15c0,1.4-0.5,2-1.9,2C36.4,49.6,34.8,49.6,33.2,49.6z M28.8,30.9c-1.5,0-1.9,0.4-1.9,2
	c0,1.6,0,3.2,0,4.8c0,3.1,0,6.3,0,9.5c0,1.2,0.5,1.7,1.6,1.7c1.5,0,3.1,0,4.6,0s3.1,0,4.6,0c0,0,0,0,0,0c0.4,0,0.9,0,1.2-0.4
	c0.3-0.3,0.3-0.9,0.3-1.2c0-1.6,0-3.2,0-4.7c0-0.8,0-1.6,0-2.4v-7.3c0-1.3-0.6-1.9-1.9-1.9H28.8z"/>
<path class="st1" d="M33.3,50.2c-0.9,0-1.7,0.8-1.7,1.7c0,1,0.8,1.7,1.7,1.7s1.7-0.8,1.7-1.7C35,51,34.2,50.2,33.3,50.2z"/>
<path class="st1" d="M31,29.1H35c0.3,0,0.5-0.2,0.5-0.5s-0.2-0.5-0.5-0.5H31c-0.3,0-0.5,0.2-0.5,0.5C30.6,28.9,30.8,29.1,31,29.1z"
	/>
</svg>
