<?xml version="1.0" encoding="utf-8"?>
<!-- Generator: Adobe Illustrator 21.0.2, SVG Export Plug-In . SVG Version: 6.00 Build 0)  -->
<svg version="1.1" id="Layer_1" xmlns="http://www.w3.org/2000/svg" xmlns:xlink="http://www.w3.org/1999/xlink" x="0px" y="0px"
	 viewBox="0 0 74 74" style="enable-background:new 0 0 74 74;" xml:space="preserve">
<style type="text/css">
	.st0{fill:none;stroke:#006FAF;stroke-width:2;stroke-miterlimit:10;}
	.st1{fill:#006FAF;}
	.st2{fill:none;stroke:#006FAF;stroke-width:0.5;stroke-miterlimit:10;}
</style>
<title>Cloud &amp;amp; Infrastructure Services</title>
<circle class="st0" cx="37" cy="37" r="36"/>
<g>
	<path class="st1" d="M44.5,18.7H29.6c-2.8,0-4.1,1.3-4.1,4.1v28.5c0,2.7,1.4,4.1,4.1,4.1h14.9c3.1,0,4.4-1.3,4.4-4.4V23.2
		C48.8,19.9,47.6,18.7,44.5,18.7z M26.8,51.4V22.9c0-1.9,0.8-2.7,2.7-2.7l15.4,0c1.8,0.1,2.5,0.9,2.5,2.9v28.3
		c0,1.8-0.8,2.6-2.7,2.7H29.5C27.7,54.1,26.8,53.2,26.8,51.4z"/>
	<path class="st1" d="M37.3,48.2c-2.1,0-4.2,0-6.2-0.1c-1.9-0.1-2.6-0.9-2.6-2.7V26.6c0-1.9,1-3,2.9-3c1.9,0,3.9-0.1,5.8-0.1
		c1.9,0,3.9,0,5.8,0.1c1.9,0,2.9,1.1,2.9,3.2v18.9c0,1.8-0.7,2.5-2.4,2.5C41.4,48.2,39.3,48.2,37.3,48.2z M31.8,24.6
		c-1.9,0-2.4,0.6-2.4,2.5c0,2,0,4,0,6c0,3.9,0,7.9,0,11.9c0,1.5,0.6,2.1,2,2.1c1.9,0,3.9-0.1,5.8-0.1s3.9,0,5.8,0.1c0,0,0,0,0,0
		c0.5,0,1.1-0.1,1.5-0.5c0.4-0.4,0.4-1.1,0.4-1.5c0-2,0-4,0-6c0-1,0-2,0-3V27c0-1.6-0.8-2.4-2.4-2.4H31.8z"/>
	<path class="st1" d="M37.3,47.8c-2.1,0-4.1,0-6.2-0.1c-1.6-0.1-2.2-0.7-2.2-2.3V26.6c0-1.7,0.8-2.6,2.5-2.6c1.9,0,3.9-0.1,5.8-0.1
		c1.9,0,3.9,0,5.8,0.1c1.7,0,2.5,0.9,2.5,2.7v18.9c0,1.6-0.5,2.1-2,2.1C41.4,47.7,39.3,47.8,37.3,47.8z M31.8,24.2
		c-2.1,0-2.8,0.8-2.8,2.9c0,1.9,0,3.8,0,5.7l0,0.3c0,3.9,0,7.9,0,11.9c0,1.7,0.8,2.5,2.5,2.5c1.9,0,3.9-0.1,5.8-0.1
		c1.9,0,3.9,0,5.8,0.1c0,0,0,0,0,0c0.6,0,1.3-0.1,1.8-0.6c0.5-0.6,0.5-1.3,0.5-1.8c0-1.9,0-3.8,0-5.7l0-0.2c0-1,0-2,0-3V27
		c0-1.8-1-2.8-2.8-2.8H31.8z"/>
	<path class="st1" d="M37.5,52.8c-1,0-1.8-0.8-1.8-1.8c0-1,0.8-1.8,1.7-1.8c0.9,0,1.8,0.8,1.8,1.8C39.2,52.1,38.4,52.8,37.5,52.8z"
		/>
	<path class="st1" d="M35,22.3h4.2c0.3,0,0.6-0.2,0.6-0.6s-0.2-0.6-0.6-0.6H35c-0.3,0-0.6,0.2-0.6,0.6C34.5,22,34.7,22.3,35,22.3z"
		/>
	<path class="st1" d="M34.6,22c-0.1,0-0.2-0.1-0.2-0.3c0,0,0.1-0.1,0.2-0.1h5c0.1,0,0.2,0.1,0.2,0.2S39.7,22,39.6,22H34.6z"/>
	<rect x="35.7" y="42" class="st2" width="2.6" height="2.6"/>
	<rect x="39.4" y="42" class="st2" width="2.6" height="2.6"/>
	<rect x="31.9" y="34.4" class="st2" width="2.6" height="2.6"/>
	<rect x="35.7" y="34.4" class="st2" width="2.6" height="2.6"/>
	<rect x="31.9" y="30.6" class="st2" width="2.6" height="2.6"/>
	<rect x="35.7" y="30.6" class="st2" width="2.6" height="2.6"/>
	<rect x="39.4" y="30.6" class="st2" width="2.6" height="2.6"/>
	<rect x="31.9" y="26.9" class="st2" width="2.6" height="2.6"/>
	<rect x="35.7" y="26.9" class="st2" width="2.6" height="2.6"/>
	<g>
		<rect x="34" y="42" class="st1" width="0.5" height="0.5"/>
		<rect x="34" y="43" class="st1" width="0.5" height="0.5"/>
		<rect x="31.9" y="43" class="st1" width="0.5" height="0.5"/>
		<rect x="33" y="42" class="st1" width="0.5" height="0.5"/>
		<rect x="33" y="44.1" class="st1" width="0.5" height="0.5"/>
		<rect x="31.9" y="42" class="st1" width="0.5" height="0.5"/>
		<rect x="34" y="44.1" class="st1" width="0.5" height="0.5"/>
		<rect x="31.9" y="44.1" class="st1" width="0.5" height="0.5"/>
	</g>
	<rect x="23.2" y="43" class="st1" width="8.2" height="0.5"/>
	<rect x="20" y="42" class="st2" width="2.6" height="2.6"/>
	<g>
		<rect x="53.5" y="26.9" class="st1" width="0.5" height="0.5"/>
		<rect x="53.5" y="27.9" class="st1" width="0.5" height="0.5"/>
		<rect x="51.4" y="27.9" class="st1" width="0.5" height="0.5"/>
		<rect x="52.4" y="26.9" class="st1" width="0.5" height="0.5"/>
		<rect x="52.4" y="29" class="st1" width="0.5" height="0.5"/>
		<rect x="51.4" y="26.9" class="st1" width="0.5" height="0.5"/>
		<rect x="53.5" y="29" class="st1" width="0.5" height="0.5"/>
		<rect x="51.4" y="29" class="st1" width="0.5" height="0.5"/>
	</g>
	<rect x="42.6" y="27.9" class="st1" width="8.2" height="0.5"/>
	<rect x="39.4" y="26.9" class="st2" width="2.6" height="2.6"/>
</g>
</svg>
