<?xml version="1.0" encoding="utf-8"?>
<!-- Generator: Adobe Illustrator 21.0.0, SVG Export Plug-In . SVG Version: 6.00 Build 0)  -->
<svg version="1.1" id="Layer_1" xmlns="http://www.w3.org/2000/svg" xmlns:xlink="http://www.w3.org/1999/xlink" x="0px" y="0px"
	 viewBox="0 0 74 74" style="enable-background:new 0 0 74 74;" xml:space="preserve">
<style type="text/css">
	.st0{fill:none;stroke:#006FAF;stroke-width:2;stroke-miterlimit:10;}
	.st1{fill:none;stroke:#006FAF;stroke-width:1.65;stroke-miterlimit:10;}
	.st2{fill:#006FAF;}
</style>
<title>os-patch-management</title>
<g id="text">
</g>
<g>
	<circle class="st0" cx="37" cy="37" r="36"/>
	<path id="Rectangle-3" class="st1" d="M22.4,44.1V25.3c0-0.6,0.5-1.1,1.1-1.1h26.3c0.6,0,1.1,0.5,1.1,1.1v4"/>
	<polyline id="Rectangle-3-Copy" class="st1" points="41.3,41.3 25.6,41.3 25.6,27 47.9,27 47.9,28.7 	"/>
	<path id="Rectangle-5" class="st1" d="M41.3,47H19c-0.6,0-1.1-0.5-1.1-1.1v-1.7h23.4"/>
	<path id="Rectangle-6" class="st2" d="M33,44.1h7.4V45c0,0.3-0.3,0.6-0.6,0.6h-6.3c-0.3,0-0.6-0.3-0.6-0.6L33,44.1L33,44.1z"/>
	<path class="st2" d="M44.7,52.9c-1.3,0-2.4-1.1-2.4-2.4V32.7c0-1.3,1.1-2.4,2.4-2.4h8c1.3,0,2.4,1.1,2.4,2.4v17.7
		c0,1.3-1.1,2.4-2.4,2.4L44.7,52.9L44.7,52.9z M44.7,31.7c-0.5,0-1,0.4-1,1v17.7c0,0.5,0.4,1,1,1h8c0.5,0,1-0.4,1-1V32.7
		c0-0.5-0.4-1-1-1H44.7z"/>
	<path id="Rectangle" class="st2" d="M43.6,32.7v17.7c0,0.6,0.5,1.1,1.1,1.1h8c0.6,0,1.1-0.5,1.1-1.1V32.7c0-0.6-0.5-1.1-1.1-1.1h-8
		C44.1,31.6,43.6,32.1,43.6,32.7z M42.4,32.7c0-1.3,1-2.3,2.3-2.3h8c1.3,0,2.3,1,2.3,2.3v17.7c0,1.3-1,2.3-2.3,2.3h-8
		c-1.3,0-2.3-1-2.3-2.3V32.7z"/>
	<path id="Line" class="st1" d="M43.3,48.7h10.6"/>
	<path id="Line-Copy" class="st1" d="M43.4,34.1H54"/>
	<circle id="Oval" class="st2" cx="48.7" cy="50.4" r="0.6"/>
</g>
</svg>
