<svg id="Layer_1" data-name="Layer 1" xmlns="http://www.w3.org/2000/svg" width="74" height="74" viewBox="0 0 74 74">
  <defs>
    <style>
      .cls-1 {
        fill: none;
        stroke: #006faf;
        stroke-miterlimit: 10;
        stroke-width: 2px;
      }

      .cls-2 {
        fill: #006faf;
      }
    </style>
  </defs>
  <title>multi-tenancy</title>
  <circle class="cls-1" cx="37" cy="37" r="36"/>
  <path class="cls-2" d="M36.94,55.25a2.86,2.86,0,0,1-2.77-2.14l0-.15-.16,0a16.32,16.32,0,0,1-9.3-5.41l-.11-.12-.16,0a2.81,2.81,0,0,1-.82.12,2.88,2.88,0,0,1-2.49-1.43,2.84,2.84,0,0,1,.52-3.52l.12-.11-.05-.15a16.17,16.17,0,0,1,0-10.67l.05-.15-.12-.11a2.84,2.84,0,0,1-.52-3.52,2.88,2.88,0,0,1,2.49-1.43,2.82,2.82,0,0,1,.82.12l.16,0,.11-.12A16.31,16.31,0,0,1,34,21.08l.16,0,0-.15a2.87,2.87,0,0,1,5.54,0l0,.15.16,0a16.29,16.29,0,0,1,9.47,5.41l.1.12.15,0a2.76,2.76,0,0,1,.67-.08,2.88,2.88,0,0,1,2.49,1.43,2.84,2.84,0,0,1-.39,3.39l-.11.11.05.14a16.13,16.13,0,0,1,0,11l-.05.14.11.11a2.83,2.83,0,0,1,.39,3.39,2.88,2.88,0,0,1-2.49,1.43,2.8,2.8,0,0,1-.67-.08l-.15,0-.1.12A16.3,16.3,0,0,1,39.9,53l-.16,0,0,.15A2.88,2.88,0,0,1,36.94,55.25Zm0-4.65a1.78,1.78,0,1,0,1.79,1.78A1.79,1.79,0,0,0,36.94,50.6ZM42,40.76a6.39,6.39,0,0,1-4.35,2.53l-.22,0v6.25l.19,0a2.85,2.85,0,0,1,1.86,1.53l.08.17.19,0a14.67,14.67,0,0,0,8.13-4.63l.13-.15-.12-.16a2.83,2.83,0,0,1-.42-2.44l.05-.19-5.4-3.13Zm-15.74,3,0,.19A2.84,2.84,0,0,1,26,46.23l-.1.16.12.14a14.67,14.67,0,0,0,8.07,4.72l.19,0,.09-.17a3,3,0,0,1,1.91-1.5l.19,0V43.32l-.22,0a6.47,6.47,0,0,1-4.36-2.45l-.13-.17Zm24-.87a1.8,1.8,0,0,0-1.55.89,1.78,1.78,0,0,0,1.54,2.67,1.79,1.79,0,0,0,1.55-.89,1.78,1.78,0,0,0-1.54-2.67Zm-26.71,0A1.78,1.78,0,0,0,22,45.58a1.79,1.79,0,0,0,2.44.65,1.78,1.78,0,0,0,.65-2.43A1.79,1.79,0,0,0,23.58,42.91Zm0-1.08a2.88,2.88,0,0,1,2.06.88l.14.14,5.42-3.1-.09-.21a6.32,6.32,0,0,1,0-5.11l.09-.21-5.39-3.13-.14.15a2.87,2.87,0,0,1-2.11.93h-.3l-.06.18a14.54,14.54,0,0,0,0,9.33l.06.18Zm19.15-7.44.08.2a6.28,6.28,0,0,1,0,4.85l-.09.2,5.42,3.15.14-.13a2.9,2.9,0,0,1,2-.83l.3,0,.2,0,.06-.19a14.53,14.53,0,0,0,0-9.36l-.06-.19-.2,0-.29,0a2.85,2.85,0,0,1-2-.78l-.13-.13Zm-5.79-2.66A5.27,5.27,0,1,0,42.21,37,5.28,5.28,0,0,0,36.94,31.73Zm2.59-8.89a2.86,2.86,0,0,1-1.86,1.54l-.19,0v6.25l.22,0a6.38,6.38,0,0,1,4.37,2.56l.13.18,5.41-3.1-.06-.19a2.88,2.88,0,0,1,.4-2.51l.12-.16-.13-.15a14.66,14.66,0,0,0-8.13-4.63l-.19,0Zm-5.43-.1A14.68,14.68,0,0,0,26,27.47l-.12.14.1.16A2.87,2.87,0,0,1,26.38,30l0,.18,5.44,3.16.13-.17a6.48,6.48,0,0,1,4.34-2.42l.22,0V24.43l-.19,0a3,3,0,0,1-1.91-1.51l-.09-.17Zm16.19,4.78a1.8,1.8,0,0,0-.89.24,1.78,1.78,0,0,0-.65,2.43,1.79,1.79,0,0,0,2.44.65,1.78,1.78,0,0,0,.65-2.43A1.79,1.79,0,0,0,50.28,27.52Zm-26.7,0a1.79,1.79,0,0,0-1.55.89,1.78,1.78,0,0,0,1.54,2.67,1.8,1.8,0,0,0,1.55-.89,1.78,1.78,0,0,0-.65-2.43A1.79,1.79,0,0,0,23.59,27.52Zm13.35-7.69a1.78,1.78,0,1,0,1.79,1.78A1.79,1.79,0,0,0,36.94,19.83Z"/>
</svg>
