<?xml version="1.0" encoding="utf-8"?>
<!-- Generator: Adobe Illustrator 21.0.2, SVG Export Plug-In . SVG Version: 6.00 Build 0)  -->
<svg version="1.1" id="Layer_1" xmlns="http://www.w3.org/2000/svg" xmlns:xlink="http://www.w3.org/1999/xlink" x="0px" y="0px"
	 viewBox="0 0 74 74" style="enable-background:new 0 0 74 74;" xml:space="preserve">
<style type="text/css">
	.st0{fill:none;stroke:#006FAF;stroke-width:2;stroke-miterlimit:10;}
	.st1{fill:#006FAF;}
</style>
<title>Cloud &amp;amp; Infrastructure Services</title>
<circle class="st0" cx="37" cy="37" r="36"/>
<path class="st1" d="M52.9,43.5v-5.4h-4.4c0.1-0.4,0.1-0.7,0.1-1.1c0-0.4,0-0.7-0.1-1.1h4.4v-5.4c0.9-0.2,1.6-1,1.6-2
	c0-1.1-0.9-2-2-2c-1.1,0-2,0.9-2,2c0,1,0.7,1.8,1.6,2v4.6h-3.7c-0.4-2.5-1.7-4.9-3.6-6.7c-1.7-1.5-3.7-2.5-6-2.9v-3.7h4.6
	c0.2,0.9,1,1.6,2,1.6c1.1,0,2-0.9,2-2s-0.9-2-2-2c-1,0-1.8,0.7-2,1.6h-5.4v4.4c-0.4-0.1-0.7-0.1-1.1-0.1c-0.4,0-0.7,0-1.1,0.1v-4.4
	h-5.4c-0.2-0.9-1-1.6-2-1.6c-1.1,0-2,0.9-2,2c0,1.1,0.9,2,2,2c1,0,1.8-0.7,2-1.6h4.6v3.7c-2.2,0.4-4.3,1.3-6,2.9
	c-1.9,1.8-3.1,4.1-3.6,6.7h-3.7v-4.6c0.9-0.2,1.6-1,1.6-2c0-1.1-0.9-2-2-2c-1.1,0-2,0.9-2,2c0,1,0.7,1.8,1.6,2v5.4h4.4
	c-0.1,0.4-0.1,0.7-0.1,1.1c0,0.4,0,0.7,0.1,1.1h-4.4v5.4c-0.9,0.2-1.6,1-1.6,2c0,1.1,0.9,2,2,2c1.1,0,2-0.9,2-2c0-1-0.7-1.8-1.6-2
	v-4.5h3.7c0.4,2.5,1.7,4.9,3.6,6.7c1.7,1.5,3.7,2.5,6,2.9v3.7h-4.6c-0.2-0.9-1-1.6-2-1.6c-1.1,0-2,0.9-2,2c0,1.1,0.9,2,2,2
	c1,0,1.8-0.7,2-1.6h5.4v-4.4c0.4,0.1,0.7,0.1,1.1,0.1c0.4,0,0.7,0,1.1-0.1v4.4h5.4c0.2,0.9,1,1.6,2,1.6c1.1,0,2-0.9,2-2
	c0-1.1-0.9-2-2-2c-1,0-1.8,0.7-2,1.6h-4.5v-3.7c2.2-0.4,4.3-1.3,6-2.9c1.9-1.8,3.1-4.1,3.6-6.7h3.7v4.6c-0.9,0.2-1.6,1-1.6,2
	c0,1.1,0.9,2,2,2c1.1,0,2-0.9,2-2C54.5,44.4,53.8,43.6,52.9,43.5z M51.3,28.7c0-0.6,0.5-1.2,1.2-1.2c0.6,0,1.2,0.5,1.2,1.2
	c0,0.6-0.5,1.2-1.2,1.2C51.8,29.8,51.3,29.3,51.3,28.7z M45.4,20.4c0.6,0,1.2,0.5,1.2,1.2s-0.5,1.2-1.2,1.2c-0.6,0-1.2-0.5-1.2-1.2
	S44.7,20.4,45.4,20.4z M28.6,22.7c-0.6,0-1.2-0.5-1.2-1.2s0.5-1.2,1.2-1.2c0.6,0,1.2,0.5,1.2,1.2S29.3,22.7,28.6,22.7z M20.4,28.7
	c0-0.6,0.5-1.2,1.2-1.2s1.2,0.5,1.2,1.2c0,0.6-0.5,1.2-1.2,1.2S20.4,29.3,20.4,28.7z M22.7,45.4c0,0.6-0.5,1.2-1.2,1.2
	s-1.2-0.5-1.2-1.2c0-0.6,0.5-1.2,1.2-1.2S22.7,44.8,22.7,45.4z M28.6,53.7c-0.6,0-1.2-0.5-1.2-1.2c0-0.6,0.5-1.2,1.2-1.2
	c0.6,0,1.2,0.5,1.2,1.2C29.8,53.1,29.3,53.7,28.6,53.7z M45.4,51.3c0.6,0,1.2,0.5,1.2,1.2c0,0.6-0.5,1.2-1.2,1.2
	c-0.6,0-1.2-0.5-1.2-1.2C44.2,51.9,44.7,51.3,45.4,51.3z M47.8,36.6h-4.7c-0.1-2.1-0.4-4.1-0.9-5.7c0.9-0.4,1.6-1,2.3-1.5
	C46.5,31.3,47.7,33.9,47.8,36.6z M37.4,26.3c1.5,0.3,2.9,1.9,3.8,4.2c-1.2,0.5-2.5,0.8-3.8,0.9V26.3z M39.7,26.6
	c1.5,0.4,3,1.2,4.3,2.2c-0.6,0.5-1.3,1-2,1.3C41.3,28.7,40.6,27.4,39.7,26.6z M36.6,26.3v5c-1.3-0.1-2.6-0.3-3.8-0.9
	C33.7,28.2,35.1,26.5,36.6,26.3z M32.1,30.1c-0.7-0.4-1.4-0.8-2-1.3l0,0c1.3-1.1,2.7-1.8,4.3-2.2C33.4,27.4,32.7,28.7,32.1,30.1z
	 M36.6,32.1v4.5h-4.9c0.1-2,0.3-3.8,0.9-5.4C33.9,31.8,35.2,32.1,36.6,32.1z M36.6,37.4v4.5c-1.4,0.1-2.8,0.4-4.1,0.9
	c-0.5-1.6-0.8-3.4-0.9-5.4L36.6,37.4L36.6,37.4z M36.6,42.7v5c-1.5-0.3-2.9-1.9-3.8-4.2C34,43.1,35.3,42.8,36.6,42.7z M34.3,47.5
	c-1.5-0.4-3-1.2-4.3-2.2l0,0c0.6-0.5,1.3-1,2-1.3C32.7,45.4,33.4,46.6,34.3,47.5z M37.4,47.8v-5c1.3,0.1,2.6,0.3,3.8,0.9
	C40.3,45.9,38.9,47.5,37.4,47.8z M41.9,43.9c0.7,0.4,1.4,0.8,2,1.3c-1.2,1.1-2.7,1.8-4.3,2.2C40.6,46.6,41.3,45.4,41.9,43.9z
	 M37.4,41.9v-4.5h4.9c-0.1,2-0.3,3.8-0.9,5.4C40.1,42.3,38.8,42,37.4,41.9z M37.4,36.6v-4.5c1.4-0.1,2.8-0.4,4.1-0.9
	c0.5,1.6,0.8,3.4,0.9,5.4H37.4z M29.5,29.3c0.7,0.6,1.5,1.1,2.3,1.5c-0.5,1.7-0.9,3.6-0.9,5.7h-4.7C26.3,33.9,27.5,31.3,29.5,29.3z
	 M26.2,37.4h4.7c0.1,2.1,0.4,4.1,0.9,5.7c-0.9,0.4-1.6,1-2.3,1.5C27.5,42.8,26.3,40.2,26.2,37.4z M29.6,44.9
	C29.6,44.9,29.6,44.9,29.6,44.9C29.6,44.9,29.6,44.9,29.6,44.9z M44.5,44.7c-0.7-0.6-1.5-1.1-2.3-1.5c0.5-1.7,0.9-3.6,0.9-5.7h4.7
	C47.7,40.2,46.5,42.8,44.5,44.7z M52.5,46.6c-0.6,0-1.2-0.5-1.2-1.2c0-0.6,0.5-1.2,1.2-1.2c0.6,0,1.2,0.5,1.2,1.2
	C53.7,46.1,53.1,46.6,52.5,46.6z"/>
</svg>
