<?xml version="1.0" encoding="utf-8"?>
<!-- Generator: Adobe Illustrator 21.0.2, SVG Export Plug-In . SVG Version: 6.00 Build 0)  -->
<svg version="1.1" id="Layer_1" xmlns="http://www.w3.org/2000/svg" xmlns:xlink="http://www.w3.org/1999/xlink" x="0px" y="0px"
	 viewBox="0 0 74 74" style="enable-background:new 0 0 74 74;" xml:space="preserve">
<style type="text/css">
	.st0{fill:none;stroke:#006FAF;stroke-width:2;stroke-miterlimit:10;}
	.st1{fill:none;stroke:#006FAF;stroke-width:1.6;stroke-miterlimit:10;}
	.st2{fill:#006FAF;}
</style>
<title>Cloud &amp;amp; Infrastructure Services</title>
<circle class="st0" cx="37" cy="37" r="36"/>
<path class="st1" d="M45.3,47.4c-0.4,0.2-0.9,0.3-1.4,0.3c-2,0-3.7-1.7-3.7-3.7s1.7-3.7,3.7-3.7s3.7,1.7,3.7,3.7
	c0,0.7-0.2,1.4-0.5,1.9l4.7,4.7c0.1-0.3,0.2-0.6,0.2-0.9V24.3c0-1.3-1.1-2.4-2.4-2.4H40l-6.6,6.6c0.2,0.5,0.4,1,0.4,1.6
	c0,2-1.7,3.7-3.7,3.7s-3.7-1.7-3.7-3.7s1.7-3.7,3.7-3.7c0.6,0,1.1,0.2,1.7,0.4l5-4.8H24.4c-1.3,0-2.4,1.1-2.4,2.4v25.3
	c0,1.3,1.1,2.4,2.4,2.4h25.2c0.2,0,0.3,0,0.5-0.1L45.3,47.4z M30.1,47.8c-2,0-3.7-1.7-3.7-3.7s1.7-3.7,3.7-3.7
	c0.6,0,1.1,0.1,1.6,0.4l0,0l9.2-8.9c-0.3-0.5-0.5-1.1-0.5-1.8c0-2,1.7-3.7,3.7-3.7s3.7,1.7,3.7,3.7s-1.7,3.7-3.7,3.7
	c-0.6,0-1.2-0.2-1.7-0.4l-8.9,9c0.3,0.5,0.4,1.1,0.4,1.7C33.8,46.2,32.1,47.8,30.1,47.8z"/>
<circle class="st2" cx="30.1" cy="44.1" r="1.3"/>
<circle class="st2" cx="44.1" cy="30.1" r="1.3"/>
<circle class="st2" cx="43.9" cy="44" r="1.3"/>
<circle class="st2" cx="30.1" cy="30.1" r="1.3"/>
</svg>
