<?xml version="1.0" encoding="utf-8"?>
<!-- Generator: Adobe Illustrator 21.0.2, SVG Export Plug-In . SVG Version: 6.00 Build 0)  -->
<svg version="1.1" id="Layer_1" xmlns="http://www.w3.org/2000/svg" xmlns:xlink="http://www.w3.org/1999/xlink" x="0px" y="0px"
	 viewBox="0 0 74 74" style="enable-background:new 0 0 74 74;" xml:space="preserve">
<style type="text/css">
	.st0{fill:#006FAF;}
</style>
<title>digital-transformation</title>
<path class="st0" d="M37,74C16.6,74,0,57.4,0,37C0,16.6,16.6,0,37,0c20.4,0,37,16.6,37,37C74,57.4,57.4,74,37,74z M37,2
	C17.7,2,2,17.7,2,37s15.7,35,35,35s35-15.7,35-35S56.3,2,37,2z"/>
<g transform="translate(-216.07358,-549.28882)">
	<g transform="matrix(1.8232952,0,0,1.8232952,-597.71681,-124.12247)">
		<g transform="translate(0,-91.137241)">
			<g transform="matrix(0.74069815,0,0,0.74069815,98.5698,-8.2505871)">
				<path class="st0" d="M483.9,669.8v-19l16.8-6.2l9.1,2.9v25.6l-9.1,2.8L483.9,669.8l16.8,2.1v-22.1l-11,2.5v14.9L483.9,669.8z"/>
			</g>
		</g>
	</g>
</g>
</svg>
