<?xml version="1.0" encoding="utf-8"?>
<!-- Generator: Adobe Illustrator 21.0.0, SVG Export Plug-In . SVG Version: 6.00 Build 0)  -->
<svg version="1.1" id="Layer_1" xmlns="http://www.w3.org/2000/svg" xmlns:xlink="http://www.w3.org/1999/xlink" x="0px" y="0px"
	 viewBox="0 0 74 74" style="enable-background:new 0 0 74 74;" xml:space="preserve">
<style type="text/css">
	.st0{fill:none;stroke:#006FAF;stroke-width:2;stroke-miterlimit:10;}
	.st1{fill:#006FAF;}
</style>
<title>Azure_Site_Recovery</title>
<circle class="st0" cx="37" cy="37" r="36"/>
<g>
	<path class="st1" d="M36.9,56.9c-0.1,0-0.2-0.1-0.3-0.1c-3.2-0.1-6.2-0.9-9-2.4c0,0-0.1,0-0.2,0c-0.1,0.7-0.2,1.3-0.3,2
		c-1.1-1.8-2.1-3.6-3.2-5.5c2.1,0.6,4.1,1.1,6.2,1.7c-0.6,0.3-1.2,0.5-1.9,0.8c0.2,0.1,0.3,0.2,0.4,0.2c2.2,1.1,4.5,1.8,6.9,2
		c4.5,0.4,8.7-0.6,12.5-3.2c0.4-0.3,0.7-0.2,0.9,0.1c0.2,0.3,0.1,0.6-0.3,0.9c-0.3,0.2-0.7,0.5-1,0.7c-2.3,1.4-4.8,2.3-7.5,2.6
		c-0.6,0.1-1.3,0.1-1.9,0.2c-0.2,0-0.3,0.1-0.4,0.1C37.4,56.9,37.1,56.9,36.9,56.9z"/>
	<path class="st1" d="M17.3,36.4c0-0.1,0.1-0.3,0.1-0.4c0.1-3,0.9-5.8,2.3-8.5c0.1-0.1,0.1-0.3,0.2-0.5c-0.7-0.1-1.4-0.2-2.1-0.3
		c1.8-1.1,3.6-2.1,5.5-3.2c-0.6,2.1-1.1,4.1-1.7,6.2c-0.3-0.7-0.5-1.2-0.8-1.9c-0.1,0.2-0.2,0.3-0.2,0.4c-1,1.9-1.6,4-1.9,6.1
		c-0.5,3.8,0.1,7.5,1.8,11c0.4,0.8,0.9,1.5,1.3,2.3c0.1,0.2,0.2,0.4,0.1,0.6c0,0.1-0.3,0.3-0.4,0.3c-0.2,0-0.5-0.1-0.6-0.3
		c-0.5-0.8-1-1.6-1.5-2.4c-1.1-2-1.7-4.2-2-6.5c-0.1-0.5-0.1-1-0.1-1.6c0-0.2-0.1-0.4-0.1-0.5C17.3,36.9,17.3,36.6,17.3,36.4z"/>
	<path class="st1" d="M37.8,16.8c0.2,0,0.4,0.1,0.5,0.1c2.9,0.1,5.7,0.9,8.3,2.2c0.2,0.1,0.3,0.1,0.5,0.2c0.1-0.7,0.2-1.4,0.3-2.1
		c1.1,1.8,2.1,3.6,3.2,5.5c-2.1-0.6-4.1-1.1-6.2-1.6c0.7-0.3,1.2-0.5,1.8-0.8c0,0,0-0.1,0-0.1c-0.4-0.2-0.7-0.4-1.1-0.5
		c-1.9-0.9-3.9-1.4-6-1.6c-3.5-0.3-6.8,0.2-9.9,1.7c-0.8,0.4-1.6,0.9-2.4,1.3c-0.1,0-0.2,0.1-0.2,0.2c-0.4,0.3-0.7,0.3-1,0
		c-0.2-0.3-0.1-0.6,0.3-0.9c0.6-0.4,1.2-0.8,1.8-1.1c2.2-1.2,4.6-1.9,7.1-2.3c0.5-0.1,1-0.1,1.6-0.1c0.2,0,0.4-0.1,0.5-0.1
		C37.2,16.8,37.5,16.8,37.8,16.8z"/>
	<path class="st1" d="M37.3,21.6c0.4,0,0.9,0,1.3,0c1,0,1.9,0.9,2,1.9c0,0.6,0.1,1.3,0.1,2c0,0.2,0.1,0.4,0.3,0.5
		c1.4,0.5,2.6,1.1,3.7,2c0.1,0.1,0.3,0.1,0.5,0c0.4-0.2,0.9-0.5,1.3-0.7c1.2-0.7,2.7-0.3,3.4,0.9c0.4,0.6,0.7,1.3,1.1,1.9
		c0.7,1.3,0.4,2.5-0.9,3.3c-0.4,0.2-0.8,0.5-1.2,0.7c-0.2,0.1-0.3,0.2-0.2,0.5c0.3,1.5,0.4,2.9,0.1,4.4c0,0.2,0,0.4,0.3,0.5
		c0.3,0.2,0.7,0.4,1,0.6c1.2,0.7,1.7,2.1,1,3.3c-0.4,0.8-0.9,1.6-1.3,2.3c-0.6,0.9-1.8,1.2-2.8,0.7c-0.4-0.2-0.8-0.4-1.2-0.7
		c-0.2-0.1-0.4-0.1-0.6,0c-1.1,1.1-2.4,1.9-3.9,2.4c-0.3,0.1-0.4,0.2-0.4,0.5c0,0.4,0,0.9,0,1.3c-0.1,1.2-1.1,2.2-2.3,2.2
		c-0.9,0-1.8,0-2.7,0c-1.1,0-2-0.9-2.1-2c0-0.5-0.1-1-0.1-1.5c0-0.2-0.1-0.3-0.3-0.4c-1.5-0.5-2.9-1.3-4-2.3c-0.2-0.1-0.3-0.2-0.5,0
		c-0.3,0.2-0.7,0.4-1,0.6c-1.2,0.7-2.7,0.3-3.4-0.9c-0.4-0.7-0.8-1.4-1.2-2.1c-0.6-1-0.3-2.2,0.7-2.9c0.4-0.3,0.9-0.6,1.4-0.9
		c0.2-0.1,0.3-0.2,0.2-0.5c-0.3-1.5-0.3-3,0-4.5c0-0.2,0-0.4-0.2-0.5c-0.4-0.2-0.8-0.4-1.1-0.6c-1.2-0.7-1.6-2-1.1-3.2
		c0.4-0.8,0.9-1.6,1.4-2.4c0.6-0.9,1.7-1.2,2.7-0.7c0.6,0.3,1.1,0.6,1.7,0.9c0.2,0.1,0.4,0.1,0.6-0.1c1.1-0.9,2.3-1.7,3.6-2.1
		c0.2-0.1,0.3-0.2,0.3-0.4c0-0.7,0-1.3,0.1-2c0.1-1,1.1-2,2.2-2C36.3,21.6,36.8,21.6,37.3,21.6C37.3,21.6,37.3,21.6,37.3,21.6z
		 M34.7,25.2c0,0.4,0,0.8,0,1.2c0,0.3-0.1,0.4-0.3,0.5c-1.8,0.5-3.3,1.4-4.6,2.7c-0.2,0.2-0.3,0.2-0.6,0.1c-0.7-0.4-1.3-0.8-2-1.2
		c-0.6-0.3-1.2-0.2-1.6,0.3c-0.4,0.7-0.9,1.4-1.2,2.1c-0.4,0.7-0.1,1.4,0.5,1.8c0.6,0.4,1.2,0.7,1.8,1c0.3,0.2,0.4,0.3,0.3,0.6
		c-0.5,1.8-0.5,3.6,0,5.4c0.1,0.3,0,0.4-0.2,0.6c-0.6,0.3-1.2,0.7-1.8,1.1c-0.7,0.4-0.8,1-0.4,1.7c0.4,0.6,0.7,1.2,1.1,1.9
		c0.4,0.7,1.2,0.9,1.9,0.5c0.5-0.3,1.1-0.6,1.6-0.9c0.3-0.2,0.4-0.1,0.6,0.1c1.4,1.4,3,2.3,4.9,2.8c0.3,0.1,0.4,0.2,0.4,0.5
		c0,0.7,0,1.4,0,2c0,0.6,0.4,1.1,1,1.1c0.8,0,1.7,0,2.5,0c0.7,0,1.3-0.6,1.3-1.3c0-0.7,0-1.3,0-2c0-0.3,0.1-0.4,0.3-0.4
		c1.9-0.5,3.5-1.5,4.8-2.9c0.2-0.2,0.4-0.2,0.7-0.1c0.6,0.4,1.2,0.7,1.8,1c0.6,0.3,1.2,0.2,1.4-0.3c0.5-0.7,0.9-1.5,1.3-2.2
		c0.4-0.7,0.1-1.4-0.6-1.8c-0.6-0.3-1.2-0.7-1.8-1c-0.2-0.1-0.3-0.3-0.2-0.5c0.4-1.8,0.4-3.7-0.2-5.5c-0.1-0.3,0-0.4,0.2-0.5
		c0.7-0.4,1.3-0.7,2-1.1c0.7-0.4,0.8-1,0.4-1.7c-0.4-0.6-0.7-1.3-1.1-1.9c-0.4-0.7-1.2-0.9-1.9-0.5c-0.7,0.4-1.3,0.8-2,1.1
		c-0.2,0.1-0.4,0.1-0.5-0.1c-1.3-1.2-2.9-2.1-4.6-2.5c-0.3-0.1-0.4-0.2-0.4-0.5c0-0.8,0-1.6,0-2.5c0-0.6-0.4-1.1-1-1.1
		c-0.9,0-1.7,0-2.6,0c-0.7,0-1.2,0.6-1.2,1.3C34.7,24.4,34.7,24.8,34.7,25.2z"/>
	<path class="st1" d="M54.8,46.7c0.7,0.1,1.4,0.2,2.1,0.3c-1.8,1.1-3.6,2.1-5.5,3.2c0.6-2.1,1.1-4.1,1.7-6.2
		c0.3,0.7,0.5,1.2,0.8,1.9c0.1-0.2,0.2-0.3,0.3-0.4c1.1-2.1,1.8-4.4,2-6.8c0.3-3.8-0.3-7.4-2.1-10.8c-0.3-0.6-0.7-1.2-1.1-1.7
		c-0.2-0.4-0.2-0.7,0.1-0.9c0.3-0.2,0.6-0.1,0.8,0.3c1.6,2.3,2.6,4.8,3.1,7.5c0.4,1.8,0.4,3.7,0.3,5.5c-0.2,2.7-0.9,5.2-2.2,7.6
		C54.9,46.3,54.9,46.5,54.8,46.7z"/>
	<path class="st1" d="M37.3,42.4c-2.7,0-5.3-2.1-5.3-5.3c0-2.9,2.2-5.3,5.1-5.4c3-0.1,5.5,2.2,5.5,5.3
		C42.7,40.2,40.1,42.4,37.3,42.4z M33.1,37c-0.1,2.1,1.7,4.1,3.8,4.2c2.7,0.2,4.6-1.9,4.6-4.1c0-2.3-1.8-4.2-4.1-4.3
		C34.9,32.8,33,34.9,33.1,37z"/>
</g>
</svg>
