<?xml version="1.0" encoding="utf-8"?>
<!-- Generator: Adobe Illustrator 21.1.0, SVG Export Plug-In . SVG Version: 6.00 Build 0)  -->
<svg version="1.1" xmlns="http://www.w3.org/2000/svg" xmlns:xlink="http://www.w3.org/1999/xlink" x="0px" y="0px"
	 viewBox="0 0 74 74" style="enable-background:new 0 0 74 74;" xml:space="preserve">
<style type="text/css">
	.st0{fill:none;stroke:#006FAF;stroke-width:2;stroke-miterlimit:10;}
	.st1{fill:none;stroke:#006FAF;stroke-width:2;}
	.st2{fill:#006FAF;}
	.st3{fill:#006FAF;stroke:#006FAF;stroke-width:0.5;}
	.st4{fill:#006FAF;stroke:#006FAF;stroke-miterlimit:10;}
	.st5{fill:#006FAF;stroke:#006FAF;stroke-width:0.5;stroke-miterlimit:10;}
	.st6{fill:none;stroke:#006FAF;stroke-miterlimit:10;}
</style>
<g id="software-devops-and-maintenance">
</g>
<g id="test-data-management">
</g>
<g id="shell-scripting">
</g>
<g id="testlink">
</g>
<g id="create-and-sustain-digital-advantage">
</g>
<g id="Platform-solution-development">
	<circle class="st0" cx="37" cy="38" r="36"/>
	<g>
		<path class="st5" d="M51.7,46.6c-0.5-0.2-1-0.2-1.5,0l-7.1,3.2c0-0.1,0.1-0.2,0.1-0.3c0-1-0.8-1.8-1.8-1.8l0,0l0,0c0,0,0,0-0.1,0
			l0,0h-5l-3.8-1.8c-0.8-0.4-1.7-0.5-2.5-0.5h-2.9V44h-8v0.8h7.2V55h-5.8v0.8h6.6v-1.3h2.2l6.9,2.3c0.5,0.2,0.9,0.2,1.4,0.2
			c0.7,0,1.5-0.2,2.1-0.5l12-6.2c0.5-0.2,0.9-0.6,1.1-1.1c0.2-0.5,0.2-1,0-1.5S52.2,46.8,51.7,46.6z M52,48.9
			c-0.1,0.3-0.3,0.5-0.6,0.6l-12,6.2c-0.9,0.4-1.9,0.5-2.9,0.2l-6.9-2.3h-2.4v-7.5h2.9c0.8,0,1.5,0.2,2.2,0.5l3.9,1.8h5.2
			c0.5,0,1,0.5,1,1c0,0.6-0.5,1-1,1h-6.1h-0.1c-0.5,0.1-1.6,0.6-1.6,1.7h0.8c0-0.6,0.8-0.8,0.9-0.9h6l0,0c0.3,0,0.6-0.1,0.8-0.2l0,0
			l8.3-3.7c0.6-0.3,1.3,0.1,1.5,0.6C52.1,48.3,52.1,48.6,52,48.9z"/>
		<rect x="22.5" y="53.3" class="st5" width="0.8" height="0.8"/>
		<rect x="24.2" y="53.3" class="st5" width="0.8" height="0.8"/>
		<path class="st5" d="M53.7,29.3c-0.2-0.5-0.5-0.8-1-1c-0.2-0.1-0.4-0.1-0.6-0.2L53,26l-2.1-0.9c0.2-0.2,0.3-0.3,0.3-0.5
			c0.4-1-0.1-2-1-2.5C50,22.1,49.7,22,49.4,22c-0.8,0-1.5,0.4-1.7,1.2c-0.1,0.2-0.1,0.4-0.2,0.6l-2.1-0.9L44.6,25
			c-0.2-0.2-0.3-0.3-0.5-0.3c-0.2-0.1-0.5-0.2-0.8-0.2c-0.8,0-1.5,0.4-1.7,1.2c-0.4,1,0.1,2.1,1,2.5c0.2,0.1,0.4,0.1,0.6,0.2
			l-0.9,2.1l7.5,3.1l0.9-2.1c0.2,0.2,0.3,0.3,0.5,0.3c0.2,0.1,0.5,0.2,0.8,0.2c0.8,0,1.5-0.4,1.7-1.2C53.9,30.3,53.9,29.8,53.7,29.3
			z M53,30.5c-0.2,0.5-0.9,0.8-1.5,0.6c-0.3-0.1-0.5-0.3-0.6-0.5l-0.4-0.9l-1.2,2.9l-6-2.5l1.2-2.9l-0.9,0.3c-0.3,0.1-0.5,0.1-0.8,0
			c-0.5-0.2-0.8-0.9-0.6-1.5c0.2-0.5,0.9-0.8,1.4-0.6c0.3,0.1,0.4,0.3,0.6,0.5l0.4,0.9l1.2-2.9l2.9,1.2l-0.3-0.9
			c-0.1-0.3-0.1-0.5,0-0.8c0.2-0.5,0.9-0.8,1.5-0.6c0.5,0.2,0.8,0.9,0.6,1.4c-0.1,0.3-0.3,0.5-0.5,0.6l-0.9,0.4l2.9,1.2l-1.2,2.9
			l0.9-0.3c0.3-0.1,0.5-0.1,0.8,0c0.3,0.1,0.5,0.3,0.6,0.6C53.1,29.9,53.1,30.2,53,30.5z"/>
		<path class="st5" d="M31.9,34.5v1.5c-0.2-0.1-0.4-0.1-0.6-0.1c-1,0-1.9,0.9-1.9,1.9c0,1,0.9,1.9,1.9,1.9c0.2,0,0.4-0.1,0.6-0.1
			v2.3h2.3c-0.1,0.2-0.1,0.4-0.1,0.6c0,1,0.9,1.9,1.9,1.9c1,0,1.9-0.9,1.9-1.9c0-0.2-0.1-0.4-0.1-0.6H40l0,0h1.5
			c-0.1,0.2-0.1,0.4-0.1,0.6c0,1,0.9,1.9,1.9,1.9c1,0,1.9-0.9,1.9-1.9c0-0.2-0.1-0.4-0.1-0.6h2.3v-2.3c0.2,0.1,0.4,0.1,0.6,0.1
			c1,0,1.9-0.9,1.9-1.9c0-1-0.9-1.9-1.9-1.9c-0.2,0-0.4,0.1-0.6,0.1v-2.3h-7.2v-3.1l-0.7,0.6c-0.2,0.2-0.5,0.3-0.8,0.3
			c-0.6,0-1.1-0.5-1.1-1.1s0.5-1.1,1.1-1.1c0.3,0,0.5,0.1,0.8,0.3l0.7,0.6v-3.9h-2.3c0.1-0.2,0.1-0.4,0.1-0.6c0-1-0.9-1.9-1.9-1.9
			c-1.1-0.1-1.9,0.8-1.9,1.9c0,0.2,0.1,0.4,0.1,0.6h-2.3v2.3c-0.2-0.1-0.4-0.1-0.6-0.1c-1,0-1.9,0.9-1.9,1.9s0.9,1.9,1.9,1.9
			c0.2,0,0.4-0.1,0.6-0.1v1.5V34.5z M39.2,41h-3.1l0.6,0.7c0.2,0.2,0.3,0.5,0.3,0.8c0,0.6-0.5,1.1-1.1,1.1s-1.1-0.5-1.1-1.1
			c0-0.3,0.1-0.5,0.3-0.8l0.6-0.7h-3.1v-3.1L32,38.5c-0.2,0.2-0.5,0.3-0.8,0.3c-0.6,0-1.1-0.5-1.1-1.1s0.5-1.1,1.1-1.1
			c0.3,0,0.5,0.1,0.8,0.3l0.7,0.6v-3.1h6.5v1.5c-0.2-0.1-0.4-0.1-0.6-0.1c-0.3,0-0.5,0.1-0.8,0.2c-0.7,0.3-1.2,1-1.2,1.7
			c0,1,0.9,1.9,1.9,1.9c0.2,0,0.4-0.1,0.6-0.1L39.2,41L39.2,41z M40.1,34.5h6.5v3.1l0.7-0.6c0.2-0.2,0.4-0.3,0.8-0.3
			c0.6,0,1.1,0.5,1.1,1.1s-0.5,1.1-1.1,1.1c-0.3,0-0.5-0.1-0.8-0.3l-0.7-0.6V41h-3.1l0.6,0.7c0.2,0.2,0.3,0.5,0.3,0.8
			c0,0.6-0.5,1.1-1.1,1.1s-1.1-0.5-1.1-1.1c0-0.3,0.1-0.5,0.3-0.8l0.6-0.7h-3.1v-3.1l0,0l0,0l-0.7,0.6c-0.1,0.1-0.2,0.2-0.3,0.2
			c-0.1,0.1-0.3,0.1-0.4,0.1c-0.6,0-1.1-0.5-1.1-1.1c0-0.4,0.3-0.9,0.6-1c0.1-0.1,0.3-0.1,0.4-0.1c0.3,0,0.5,0.1,0.8,0.3l0.7,0.6
			l0,0l0,0L40.1,34.5L40.1,34.5z M32.7,33.7v-3.1L32,31.2c-0.2,0.2-0.5,0.3-0.8,0.3c-0.6,0-1.1-0.5-1.1-1.1s0.5-1.1,1.1-1.1
			c0.3,0,0.5,0.1,0.8,0.3l0.7,0.6v-3.1h3.1l-0.6-0.7c-0.2-0.2-0.3-0.4-0.3-0.7c0-0.6,0.5-1.1,1.1-1.1s1.1,0.5,1.1,1.1
			c0,0.3-0.1,0.5-0.3,0.8l-0.6,0.7h3.1v1.5c-0.2-0.1-0.4-0.1-0.6-0.1c-1,0-1.9,0.9-1.9,1.9s0.9,1.9,1.9,1.9c0.2,0,0.4-0.1,0.6-0.1
			v1.5H37l0,0h-2.2l0,0H32.7z"/>
		<polygon class="st5" points="49.9,36.9 49.9,36.9 50.7,36.9 		"/>
	</g>
</g>
<g id="empower-users-with-robust-bi-capabilities">
</g>
<g id="Hibernate">
</g>
</svg>
