<?xml version="1.0" encoding="utf-8"?>
<!-- Generator: Adobe Illustrator 21.0.2, SVG Export Plug-In . SVG Version: 6.00 Build 0)  -->
<svg version="1.1" id="Layer_1" xmlns="http://www.w3.org/2000/svg" xmlns:xlink="http://www.w3.org/1999/xlink" x="0px" y="0px"
	 viewBox="0 0 74 74" style="enable-background:new 0 0 74 74;" xml:space="preserve">
<style type="text/css">
	.st0{fill:none;stroke:#006FAF;stroke-width:2;stroke-miterlimit:10;}
	.st1{fill:#006FAF;}
</style>
<title>Cloud &amp;amp; Infrastructure Services</title>
<circle class="st0" cx="37" cy="37" r="36"/>
<g>
	<path class="st1" d="M28.8,46.9c2.7,0,5.5,0,8.2,0c2.8,0,5.6,0,8.3,0s4.5-1.7,4.6-4.4c0-3,0-6,0-9c0,0,0,0-0.1,0
		c-0.3,0.1-0.6,0.3-1.1,0.3c-0.2,0-0.4,0-0.6-0.1c0,2.9,0,5.8,0,8.6c0,1.9-1.1,2.9-2.9,2.9c-2.7,0-5.5,0-8.2,0c-2.7,0-5.4,0-8.1,0
		c-2.2,0-3.1-0.9-3.1-3.1c0.1-3.3,0.1-6.7,0.1-10.2c0-1.9,1-2.9,2.9-2.9c4.3,0,8.5,0,12.8,0c0-0.4,0.2-0.8,0.5-1.2
		c-0.2-0.2-0.3-0.3-0.4-0.5c-4.5,0-8.9,0-13.4,0c-2.5,0.1-4.1,1.8-4.1,4.4c0,3.5,0,7,0,10.6C24.3,45.2,26,46.9,28.8,46.9z"/>
	<path class="st1" d="M53.3,49.6c-0.3-0.1-0.6,0-1,0c-10.2,0-20.4,0-30.6,0c-0.3,0-0.7,0-1.1,0.1c-0.4,0.1-0.7,0.4-0.6,0.8
		c0.1,0.4,0.3,0.6,0.7,0.7c0.3,0.1,0.6,0,1,0c5.1,0,10.3,0,15.4,0c5,0,9.9,0,14.9,0c0.5,0,0.8,0,1.3,0c0.5,0,0.8-0.3,0.8-0.8
		C54,49.9,53.8,49.7,53.3,49.6z"/>
	<path class="st1" d="M41.8,32.3c-2.9,2-5.7,4-8.7,5.8c-1.9,1.1-3.1,2.8-4.5,4.8c1.7-0.7,3.3-0.7,4.5-1.6c3.5-2.3,6.8-4.6,10.2-6.8
		c0.8-0.6,0.8-1.1,0.3-1.8C43.2,31.9,42.6,31.8,41.8,32.3z"/>
	<g>
		<path class="st1" d="M52.3,28.4c-0.3-0.3-0.4-0.4-0.4-0.6c0-0.2,0.1-0.3,0.4-0.6c0.5-0.5,0.3-1,0.1-1.4c-0.2-0.4-0.3-0.9-1-0.9
			c-0.6,0-0.9-0.2-0.9-0.8c0-0.7-0.4-0.9-0.8-1L49.5,23c-0.3-0.1-0.5-0.2-0.7-0.2c-0.3,0-0.5,0.1-0.7,0.3c-0.2,0.2-0.4,0.3-0.6,0.3
			c-0.2,0-0.4-0.1-0.6-0.3c-0.2-0.2-0.4-0.3-0.7-0.3c-0.3,0-0.5,0.1-0.8,0.2c-0.4,0.2-0.9,0.4-0.9,1.1c0,0.5-0.3,0.8-0.9,0.8
			c0,0,0,0,0,0c-0.7,0-0.9,0.6-1,0.9c-0.2,0.5-0.4,1,0.2,1.5c0.2,0.2,0.3,0.4,0.3,0.5c0,0.2-0.1,0.3-0.2,0.5
			c-0.6,0.5-0.3,1.1-0.1,1.6c0.2,0.4,0.4,0.9,1,0.9l0.1,0c0.4,0,0.6,0.2,0.7,0.7c0.1,0.9,0.8,1.4,1.7,1.4c0.2,0,0.5-0.1,0.7-0.3
			c0.2-0.2,0.4-0.3,0.6-0.3c0.2,0,0.4,0.1,0.5,0.3c0.2,0.2,0.5,0.3,0.7,0.3c0.2,0,0.5-0.1,0.8-0.2c0.4-0.2,0.9-0.4,0.9-1.1
			c0-0.5,0.3-0.8,0.8-0.8l0.1,0c0.7,0,0.9-0.5,1-0.9l0,0l0,0l0,0C52.6,29.4,52.8,28.9,52.3,28.4z M48.9,31.6c0,0-0.1,0-0.1-0.1
			c-0.1,0-0.1-0.1-0.2-0.1c-0.4-0.2-0.7-0.3-1.1-0.3c-0.4,0-0.8,0.1-1.1,0.3c-0.2,0.1-0.3,0.2-0.4,0.2c0,0-0.1,0-0.2-0.4
			c-0.2-0.9-0.7-1.4-1.6-1.6c-0.3-0.1-0.4-0.1-0.4-0.2c0,0,0-0.2,0.2-0.4c0.5-0.8,0.5-1.6,0-2.3c-0.1-0.2-0.1-0.3-0.1-0.4
			c0,0,0.1-0.1,0.3-0.2c0.9-0.2,1.5-0.7,1.7-1.6C45.9,24,45.9,24,46,24c0.1,0,0.2,0.1,0.4,0.2c0.4,0.2,0.8,0.4,1.1,0.4
			s0.8-0.1,1.1-0.4c0.2-0.1,0.3-0.2,0.4-0.2c0,0,0.1,0,0.2,0.4c0.2,0.9,0.8,1.5,1.7,1.6c0.3,0,0.3,0.1,0.3,0.2c0,0,0,0.1-0.1,0.4
			c-0.5,0.8-0.5,1.7,0,2.4c0.1,0.2,0.1,0.3,0.1,0.3c0,0.1-0.1,0.1-0.3,0.1c-1,0.2-1.6,0.8-1.7,1.8C49.2,31.4,49.1,31.5,48.9,31.6z"
			/>
		<path class="st1" d="M47.5,25.8c-1.1,0-2,0.9-2,2c0,0.6,0.2,1.1,0.6,1.5c0.4,0.4,0.9,0.6,1.4,0.6l0.1,0c1.1,0,2-0.8,2-2
			c0-0.5-0.2-1.1-0.5-1.4C48.6,26,48.1,25.8,47.5,25.8z M48.4,27.8c0,0.2-0.1,0.5-0.2,0.6c-0.2,0.2-0.4,0.3-0.7,0.3
			c-0.5,0-0.9-0.4-0.9-0.9c0-0.5,0.4-0.9,0.9-0.9l0-0.1c0,0,0,0,0,0v0.1C48,26.9,48.4,27.3,48.4,27.8z"/>
	</g>
</g>
</svg>
