<?xml version="1.0" encoding="utf-8"?>
<!-- Generator: Adobe Illustrator 21.0.2, SVG Export Plug-In . SVG Version: 6.00 Build 0)  -->
<svg version="1.1" id="Layer_1" xmlns="http://www.w3.org/2000/svg" xmlns:xlink="http://www.w3.org/1999/xlink" x="0px" y="0px"
	 viewBox="0 0 74 74" style="enable-background:new 0 0 74 74;" xml:space="preserve">
<style type="text/css">
	.st0{fill:none;stroke:#006FAF;stroke-width:2;stroke-miterlimit:10;}
	.st1{fill:#006FAF;}
</style>
<title>Cloud &amp;amp; Infrastructure Services</title>
<circle class="st0" cx="37" cy="37" r="36"/>
<g>
	<path class="st1" d="M47.1,32v-5.7l-7.4-7.4H19v36.2h28.1V42h-1.6v11.5h-25V20.5h18.1v6.9h6.9V32H47.1z M44.5,25.8h-4.3v-4.3
		L44.5,25.8z"/>
	<g>
		<path class="st1" d="M35.4,46.8h-4.6v-2.1c-0.5-0.2-1-0.4-1.5-0.6l-1.5,1.5l-3.3-3.3l1.5-1.5c-0.3-0.5-0.5-1-0.6-1.5h-2.1v-4.6
			h2.1c0.2-0.5,0.4-1,0.6-1.5l-1.5-1.5l3.3-3.3l1.5,1.5c0.5-0.3,1-0.5,1.5-0.6v-2.1h4.6v2.1c0.5,0.2,1,0.4,1.5,0.6l1.5-1.5l3.3,3.3
			l-1.5,1.5c0.3,0.5,0.5,1,0.6,1.5h0.1v0.2c0,0.1,0,0.1,0.1,0.2l-0.1,0v0.7h-1l-0.1-0.4c-0.2-0.7-0.5-1.4-0.8-2L38.7,33l1.3-1.3
			l-1.6-1.6l-1.3,1.3l-0.4-0.2c-0.6-0.4-1.3-0.7-2-0.8l-0.4-0.1v-1.8h-2.3v1.8l-0.4,0.1c-0.7,0.2-1.4,0.5-2,0.8L29,31.3l-1.3-1.3
			l-1.6,1.6l1.3,1.3l-0.2,0.4c-0.4,0.6-0.7,1.3-0.8,2l-0.1,0.4h-1.8v2.3h1.8l0.1,0.4c0.2,0.7,0.5,1.4,0.8,2l0.2,0.4l-1.3,1.3
			l1.6,1.6l1.3-1.3l0.4,0.2c0.6,0.4,1.3,0.7,2,0.8l0.4,0.1v1.8h2.3v-1.8l0.4-0.1c0.7-0.2,1.4-0.5,2-0.8l0.4-0.2l1.3,1.3l1.6-1.6
			L38.7,41l0.2-0.4c0.4-0.6,0.7-1.3,0.8-2l0.1-0.4h1v0.7l0.1,0c0,0.1,0,0.1-0.1,0.2v0.2h-0.1c-0.2,0.5-0.4,1-0.6,1.5l1.5,1.5
			l-3.3,3.3l-1.5-1.5c-0.5,0.3-1,0.5-1.5,0.6C35.4,44.7,35.4,46.8,35.4,46.8z"/>
	</g>
	<g>
		<path class="st1" d="M33.1,41.6c-2.5,0-4.6-2.1-4.6-4.6s2.1-4.6,4.6-4.6s4.6,2.1,4.6,4.6S35.6,41.6,33.1,41.6z M33.1,33.5
			c-1.9,0-3.5,1.6-3.5,3.5s1.6,3.5,3.5,3.5s3.5-1.6,3.5-3.5S35,33.5,33.1,33.5z"/>
	</g>
	<g>
		<path class="st1" d="M45.8,42.8c-3.2,0-5.8-2.6-5.8-5.8s2.6-5.8,5.8-5.8c1.8,0,3.5,0.9,4.6,2.3H55v6.9h-4.6
			C49.3,41.9,47.6,42.8,45.8,42.8z M45.8,32.4c-2.5,0-4.6,2.1-4.6,4.6s2.1,4.6,4.6,4.6c1.5,0,3-0.8,3.8-2.1l0.2-0.3h4.1v-4.6h-4.1
			l-0.2-0.3C48.7,33.1,47.3,32.4,45.8,32.4z"/>
	</g>
	<g>
		<rect x="51" y="33" class="st1" width="1.2" height="8.1"/>
	</g>
	<g>
		<rect x="46.3" y="36.4" class="st1" width="5.2" height="1.2"/>
	</g>
	<g>
		<path class="st1" d="M45.8,38.7c-1,0-1.7-0.8-1.7-1.7s0.8-1.7,1.7-1.7s1.7,0.8,1.7,1.7S46.7,38.7,45.8,38.7z M45.8,36.4
			c-0.3,0-0.6,0.3-0.6,0.6c0,0.3,0.3,0.6,0.6,0.6s0.6-0.3,0.6-0.6S46.1,36.4,45.8,36.4z"/>
	</g>
	<g>
		<rect x="33.1" y="36.4" class="st1" width="7.5" height="1.2"/>
	</g>
	<g>
		<polygon class="st1" points="33.8,39.7 31.8,37 33.8,34.3 34.7,35 33.2,37 34.7,39 		"/>
	</g>
	<g>
		<rect x="48.1" y="29.5" class="st1" width="3.5" height="1.2"/>
	</g>
	<g>
		<rect x="52.7" y="29.5" class="st1" width="1.2" height="1.2"/>
	</g>
	<g>
		<rect x="49.2" y="27.2" class="st1" width="3.5" height="1.2"/>
	</g>
	<g>
		<rect x="53.8" y="27.2" class="st1" width="1.2" height="1.2"/>
	</g>
	<g>
		<rect x="48.1" y="43.4" class="st1" width="3.5" height="1.2"/>
	</g>
	<g>
		<rect x="52.7" y="43.4" class="st1" width="1.2" height="1.2"/>
	</g>
	<g>
		<rect x="49.2" y="45.7" class="st1" width="3.5" height="1.2"/>
	</g>
	<g>
		<rect x="53.8" y="45.7" class="st1" width="1.2" height="1.2"/>
	</g>
	<g>
		<rect x="43.5" y="51.4" class="st1" width="1.2" height="1.2"/>
	</g>
	<g>
		<rect x="41.1" y="51.4" class="st1" width="1.2" height="1.2"/>
	</g>
	<g>
		<rect x="38.8" y="51.4" class="st1" width="1.2" height="1.2"/>
	</g>
	<g>
		<rect x="21.5" y="21.4" class="st1" width="1.2" height="1.2"/>
	</g>
	<g>
		<rect x="23.8" y="21.4" class="st1" width="1.2" height="1.2"/>
	</g>
	<g>
		<rect x="26.1" y="21.4" class="st1" width="1.2" height="1.2"/>
	</g>
</g>
</svg>
