<?xml version="1.0" encoding="utf-8"?>
<!-- Generator: Adobe Illustrator 21.0.2, SVG Export Plug-In . SVG Version: 6.00 Build 0)  -->
<svg version="1.1" id="Layer_1" xmlns="http://www.w3.org/2000/svg" xmlns:xlink="http://www.w3.org/1999/xlink" x="0px" y="0px"
	 viewBox="0 0 74 74" style="enable-background:new 0 0 74 74;" xml:space="preserve">
<style type="text/css">
	.st0{fill:none;stroke:#006FAF;stroke-width:2;stroke-miterlimit:10;}
	.st1{fill:#006FAF;}
</style>
<title>Cloud &amp;amp; Infrastructure Services</title>
<circle class="st0" cx="37" cy="37" r="36"/>
<g>
	<path class="st1" d="M38.2,39.4C38,39.2,37.7,39,37.4,39c-0.2,0-0.4,0.1-0.6,0.2c-0.2,0.2-0.4,0.4-0.4,0.7c0,0.3,0,0.5,0.2,0.8
		l0.8,1.1c0.2,0.3,0.5,0.4,0.8,0.4c0.2,0,0.4-0.1,0.6-0.2c0.2-0.2,0.4-0.4,0.4-0.7c0-0.3,0-0.5-0.2-0.8L38.2,39.4z"/>
	<path class="st1" d="M40.3,39.6c0.2,0.3,0.5,0.4,0.8,0.4c0.2,0,0.4-0.1,0.6-0.2c0.5-0.3,0.5-1,0.2-1.4l-0.8-1.1
		c-0.2-0.3-0.5-0.4-0.8-0.4c-0.2,0-0.4,0.1-0.6,0.2c-0.5,0.3-0.5,1-0.2,1.4L40.3,39.6z"/>
	<path class="st1" d="M37,18.7c-10.2,0-18.5,8.3-18.5,18.5c0,4.2,1.5,8.4,4.1,11.7c2.6,3.2,6.3,5.5,10.4,6.4l0.1,0l0.1,0l0.1,0
		l0.1,0l0.1,0l0.2-0.1l0.1-0.1l-0.1-0.1l0.2,0.1l0.1-0.1l0.1-0.1l0.1-0.1l0-0.1l0-0.1l0-0.1l0.6-8.6c0-0.4-0.2-0.9-0.7-1
		c-1.3-0.5-2.4-1.3-3.3-2.3l10-7.6l0.1-0.1l0.1-0.1l-0.2-0.1l0.2,0l0-0.1l0-0.1v0c0,0,0-0.1,0-0.1l0-0.1l0-0.1v-3.7
		c3.6,2.3,4.8,7.1,2.7,10.8c-0.9,1.6-2.3,2.8-4,3.5c-0.4,0.2-0.7,0.6-0.6,1l0.6,8.7c0,0.1,0,0.1,0,0.1l0,0.1l0,0.1l0.1,0.1l0.1,0.1
		l0.1,0.1l0.1,0.1c0.1,0.1,0.2,0.1,0.3,0.2l0.1-0.2l0,0.2l0.1,0l0.2,0l0.2,0c8.4-2,14.3-9.4,14.3-18C55.5,27,47.2,18.7,37,18.7z
		 M41.9,52.9l-0.5-6.6c1.6-0.8,2.9-1.9,3.9-3.3c0.1-0.1,0.1-0.2,0.2-0.3c1-1.6,1.6-3.5,1.6-5.4c0-0.2,0-0.4,0-0.6
		c-0.2-3.9-2.7-7.4-6.4-8.8c-0.1,0-0.2-0.1-0.4-0.1c-0.4,0-0.8,0.3-1,0.7c0,0.1-0.1,0.2-0.1,0.4v4.8L37,35.3l-2.3-1.7v-4.8
		c0-0.3-0.1-0.5-0.3-0.7c-0.2-0.2-0.5-0.3-0.7-0.3c-0.1,0-0.3,0-0.4,0.1c-0.2,0.1-0.5,0.2-0.7,0.3c-2.4,1.2-4.3,3.2-5.2,5.8
		c-0.9,2.5-0.8,5.3,0.4,7.7c0.2,0.5,0.5,1,0.8,1.5c0.3,0.5,0.7,0.9,1.1,1.3c0.8,0.9,1.8,1.5,2.9,2L32.3,53
		c-6.9-2.1-11.7-8.5-11.7-15.7c0-9.1,7.4-16.4,16.4-16.4c4.4,0,8.5,1.7,11.6,4.8c4.5,4.5,6,11.2,3.9,17.2
		C50.7,47.6,46.8,51.4,41.9,52.9z M30.4,32.6L30.4,32.6c0.6-0.9,1.4-1.6,2.3-2.2v3.6c0,0.3,0.2,0.6,0.4,0.8l2.2,1.7l-5.5,4.2
		C28.5,38.1,28.7,35,30.4,32.6z"/>
</g>
</svg>
