<?xml version="1.0" encoding="utf-8"?>
<!-- Generator: Adobe Illustrator 21.0.2, SVG Export Plug-In . SVG Version: 6.00 Build 0)  -->
<svg version="1.1" id="Layer_1" xmlns="http://www.w3.org/2000/svg" xmlns:xlink="http://www.w3.org/1999/xlink" x="0px" y="0px"
	 viewBox="0 0 74 74" style="enable-background:new 0 0 74 74;" xml:space="preserve">
<style type="text/css">
	.st0{fill:#006FAF;}
</style>
<title>SQL-server-database-services</title>
<g>
	<g>
		<path class="st0" d="M37,74C16.6,74,0,57.4,0,37S16.6,0,37,0s37,16.6,37,37S57.4,74,37,74z M37,2C17.7,2,2,17.7,2,37
			s15.7,35,35,35s35-15.7,35-35S56.3,2,37,2z"/>
	</g>
</g>
<g>
	<path class="st0" d="M47.2,28.8c-0.1,0-0.3,0.1-0.3,0.3v1.1c0,0.1,0.1,0.3,0.3,0.3c0.1,0,0.3-0.1,0.3-0.3V29
		C47.5,28.9,47.4,28.8,47.2,28.8z"/>
	<path class="st0" d="M46,30.4c0.1,0,0.3-0.1,0.3-0.3v-2.2c0-0.6,0.7-0.7,0.8-0.7h0.9c0.3,0,0.6-0.2,0.6-0.5c0-0.1-0.1-0.3-0.3-0.3
		c-0.1,0-0.3,0.1-0.3,0.2c0,0-0.1,0-0.1,0h-0.9c-0.5,0-1.4,0.2-1.4,1.2v2.2C45.8,30.3,45.9,30.4,46,30.4z"/>
	<path class="st0" d="M51,28.8c-0.1,0-0.3,0.1-0.3,0.3v1c0,0.1,0.1,0.3,0.3,0.3c0.1,0,0.3-0.1,0.3-0.3v-1
		C51.2,28.9,51.1,28.8,51,28.8z"/>
	<path class="st0" d="M50.1,26.7c0-0.1-0.1-0.3-0.3-0.3c-0.1,0-0.3,0.1-0.3,0.3c0,0.2,0.1,0.3,0.2,0.4c0.1,0.1,0.3,0.1,0.4,0.1H51
		c0,0,0.8,0,0.8,0.7v2.2c0,0.1,0.1,0.3,0.3,0.3c0.1,0,0.3-0.1,0.3-0.3v-2.2c0-1-0.9-1.2-1.4-1.2L50.1,26.7
		C50.1,26.7,50.1,26.7,50.1,26.7z"/>
	<path class="st0" d="M49.1,26.3c1,0,1.8-0.9,1.8-2s-0.8-2-1.8-2c-1,0-1.8,0.9-1.8,2S48.1,26.3,49.1,26.3z M49.1,22.9
		c0.7,0,1.3,0.7,1.3,1.5c0,0.8-0.6,1.5-1.3,1.5c-0.7,0-1.3-0.7-1.3-1.5C47.8,23.5,48.4,22.9,49.1,22.9z"/>
	<path class="st0" d="M35.2,28.8c-0.1,0-0.3,0.1-0.3,0.3v1.1c0,0.1,0.1,0.3,0.3,0.3c0.1,0,0.3-0.1,0.3-0.3V29
		C35.4,28.9,35.3,28.8,35.2,28.8z"/>
	<path class="st0" d="M34,30.4c0.1,0,0.3-0.1,0.3-0.3v-2.2c0-0.6,0.7-0.7,0.8-0.7h0.9c0.3,0,0.6-0.2,0.6-0.5c0-0.1-0.1-0.3-0.3-0.3
		c-0.1,0-0.3,0.1-0.3,0.2c0,0-0.1,0-0.1,0h-0.9c-0.5,0-1.4,0.2-1.4,1.2v2.2C33.8,30.3,33.9,30.4,34,30.4z"/>
	<path class="st0" d="M38.9,28.8c-0.1,0-0.3,0.1-0.3,0.3v1c0,0.1,0.1,0.3,0.3,0.3c0.1,0,0.3-0.1,0.3-0.3v-1
		C39.2,28.9,39.1,28.8,38.9,28.8z"/>
	<path class="st0" d="M38.1,26.7c0-0.1-0.1-0.3-0.3-0.3c-0.1,0-0.3,0.1-0.3,0.3c0,0.2,0.1,0.3,0.2,0.4c0.1,0.1,0.3,0.1,0.4,0.1H39
		c0,0,0.8,0,0.8,0.7v2.2c0,0.1,0.1,0.3,0.3,0.3c0.1,0,0.3-0.1,0.3-0.3v-2.2c0-1-0.9-1.2-1.4-1.2L38.1,26.7
		C38.1,26.7,38.1,26.7,38.1,26.7z"/>
	<path class="st0" d="M37.1,26.3c1,0,1.8-0.9,1.8-2s-0.8-2-1.8-2c-1,0-1.8,0.9-1.8,2S36.1,26.3,37.1,26.3z M37.1,22.9
		c0.7,0,1.3,0.7,1.3,1.5c0,0.8-0.6,1.5-1.3,1.5c-0.7,0-1.3-0.7-1.3-1.5C35.8,23.5,36.4,22.9,37.1,22.9z"/>
	<path class="st0" d="M23.1,28.8c-0.1,0-0.3,0.1-0.3,0.3v1.1c0,0.1,0.1,0.3,0.3,0.3c0.1,0,0.3-0.1,0.3-0.3V29
		C23.4,28.9,23.3,28.8,23.1,28.8z"/>
	<path class="st0" d="M22,30.4c0.1,0,0.3-0.1,0.3-0.3v-2.2c0-0.6,0.7-0.7,0.8-0.7H24c0.3,0,0.6-0.2,0.6-0.5c0-0.1-0.1-0.3-0.3-0.3
		c-0.2,0-0.3,0.1-0.3,0.2c0,0-0.1,0-0.1,0h-0.9c-0.5,0-1.4,0.2-1.4,1.2v2.2C21.7,30.3,21.8,30.4,22,30.4z"/>
	<path class="st0" d="M26.9,28.8c-0.1,0-0.3,0.1-0.3,0.3v1c0,0.1,0.1,0.3,0.3,0.3s0.3-0.1,0.3-0.3v-1C27.1,28.9,27,28.8,26.9,28.8z"
		/>
	<path class="st0" d="M26,26.7c0-0.1-0.1-0.3-0.3-0.3c-0.1,0-0.3,0.1-0.3,0.3c0,0.2,0.1,0.3,0.2,0.4c0.1,0.1,0.3,0.1,0.4,0.1h0.9
		c0.1,0,0.8,0,0.8,0.7v2.2c0,0.1,0.1,0.3,0.3,0.3c0.1,0,0.3-0.1,0.3-0.3v-2.2c0-1-0.9-1.2-1.4-1.2L26,26.7C26,26.7,26,26.7,26,26.7z
		"/>
	<path class="st0" d="M25,26.3c1,0,1.8-0.9,1.8-2s-0.8-2-1.8-2c-1,0-1.8,0.9-1.8,2S24,26.3,25,26.3z M25,22.9c0.7,0,1.3,0.7,1.3,1.5
		c0,0.8-0.6,1.5-1.3,1.5c-0.7,0-1.3-0.7-1.3-1.5C23.7,23.5,24.3,22.9,25,22.9z"/>
	<path class="st0" d="M30.6,29.1v-5.6c0-1.6-1.3-2.9-2.9-2.9h-5.6c-1.6,0-2.9,1.3-2.9,2.9v5.7c0,1.6,1.3,2.9,2.9,2.9h5.6
		C29.3,32,30.6,30.7,30.6,29.1z M22.1,21.7h0.3v0h5.3c1,0,1.8,0.8,1.8,1.8v5.7c0,1-0.8,1.8-1.8,1.8h-5.6c-1,0-1.8-0.8-1.8-1.8v-5.6
		C20.3,22.5,21.1,21.7,22.1,21.7z"/>
	<path class="st0" d="M34.2,32h5.6c1.6,0,2.9-1.3,2.9-2.9v-5.6c0-1.6-1.3-2.9-2.9-2.9h-5.6c-1.6,0-2.9,1.3-2.9,2.9v5.7
		C31.3,30.7,32.6,32,34.2,32z M34.2,21.7h0.3v0h5.3c1,0,1.8,0.8,1.8,1.8v5.7c0,1-0.8,1.8-1.8,1.8h-5.6c-1,0-1.8-0.8-1.8-1.8v-5.6
		C32.4,22.5,33.2,21.7,34.2,21.7z"/>
	<path class="st0" d="M51.9,20.6h-5.6c-1.6,0-2.9,1.3-2.9,2.9v5.7c0,1.6,1.3,2.9,2.9,2.9h5.6c1.6,0,2.9-1.3,2.9-2.9v-5.6
		C54.8,21.9,53.5,20.6,51.9,20.6z M46.3,21.7h0.3v0h5.3c1,0,1.8,0.8,1.8,1.8v5.7c0,1-0.8,1.8-1.8,1.8h-5.6c-1,0-1.8-0.8-1.8-1.8
		v-5.6C44.5,22.5,45.3,21.7,46.3,21.7z"/>
	<path class="st0" d="M37.6,43.4c-0.2,0-0.3,0-0.5,0c-1.3,0-2.4,1.1-2.4,2.4v7.4c0,0.1,0.1,0.3,0.3,0.3c0.1,0,0.3-0.1,0.3-0.3v-7.4
		c0-1,0.8-1.8,1.8-1.8c0.1,0,0.2,0,0.4,0c0.9,0.2,1.5,0.9,1.5,1.8v7.4c0,0.1,0.1,0.3,0.3,0.3s0.3-0.1,0.3-0.3v-7.4
		C39.4,44.6,38.7,43.6,37.6,43.4z"/>
	<path class="st0" d="M38,50.1h-1.8c-0.1,0-0.3,0.1-0.3,0.3c0,0.1,0.1,0.3,0.3,0.3H38c0.1,0,0.3-0.1,0.3-0.3
		C38.2,50.2,38.1,50.1,38,50.1z"/>
	<path class="st0" d="M37.7,51.3h-1.3c-0.1,0-0.3,0.1-0.3,0.3c0,0.1,0.1,0.3,0.3,0.3h1.3c0.1,0,0.3-0.1,0.3-0.3
		C38,51.5,37.9,51.3,37.7,51.3z"/>
	<path class="st0" d="M37.1,44.6H37c-0.7,0-1.4,0.6-1.4,1.4v1.2c0,0,0,0.1,0,0.1c0,0.1,0.1,0.2,0.3,0.2h2.3c0.1,0,0.3-0.1,0.3-0.3
		c0,0,0-0.1,0-0.1V46C38.5,45.2,37.9,44.6,37.1,44.6z M38,47h-1.8v-1c0-0.5,0.4-0.8,0.8-0.8h0.1c0.5,0,0.8,0.4,0.8,0.8V47z"/>
	<path class="st0" d="M37.2,38.6c0.2,0,0.3-0.1,0.4-0.2c0.1-0.1,0.2-0.3,0.1-0.4v-2.3c0.4-0.2,0.7-0.6,0.7-1.2
		c0-0.7-0.6-1.3-1.3-1.3c-0.7,0-1.3,0.6-1.3,1.3c0,0.5,0.3,0.9,0.7,1.2V38C36.6,38.3,36.9,38.6,37.2,38.6z M37.2,33.8
		c0.4,0,0.8,0.3,0.8,0.8c0,0.3-0.2,0.5-0.4,0.6c-0.1-0.1-0.2-0.2-0.4-0.2c-0.2,0-0.3,0.1-0.4,0.2c-0.2-0.1-0.4-0.4-0.4-0.6
		C36.4,34.2,36.7,33.8,37.2,33.8z"/>
	<path class="st0" d="M49.2,33.3c-0.7,0-1.3,0.6-1.3,1.3c0,0.5,0.3,0.9,0.7,1.2v7.5h-6.5v-1.8c0-1.4-1.2-2.6-2.6-2.6h-5
		c-1.4,0-2.6,1.2-2.6,2.6v1.8h-6.6v-7.5c0.4-0.2,0.7-0.6,0.7-1.2c0-0.7-0.6-1.3-1.3-1.3c-0.7,0-1.3,0.6-1.3,1.3
		c0,0.5,0.3,0.9,0.7,1.2v8.1c0,0.3,0.3,0.6,0.6,0.6H32v2c0,0.8,0.4,1.6,1,2.1c0.1,0.1,0.2,0.1,0.3,0.1c0.2,0,0.4-0.1,0.5-0.2
		c0.1-0.1,0.1-0.3,0.1-0.4c0-0.1-0.1-0.3-0.2-0.3c-0.4-0.3-0.6-0.7-0.6-1.2v-4.9c0-0.8,0.7-1.5,1.5-1.5h5c0.8,0,1.5,0.7,1.5,1.5v4.9
		c0,0.5-0.3,1-0.7,1.2c-0.1,0.1-0.2,0.2-0.3,0.3c0,0.1,0,0.3,0.1,0.4c0.1,0.2,0.3,0.3,0.5,0.3c0.1,0,0.2,0,0.3-0.1
		c0.8-0.5,1.2-1.3,1.2-2.2v-2h7c0.3,0,0.6-0.3,0.6-0.6v-8.1c0.4-0.2,0.7-0.6,0.7-1.2C50.4,33.9,49.9,33.3,49.2,33.3z M24.8,33.8
		c0.4,0,0.8,0.3,0.8,0.8c0,0.3-0.2,0.5-0.4,0.6c-0.1-0.1-0.2-0.2-0.4-0.2c-0.2,0-0.3,0.1-0.4,0.2c-0.2-0.1-0.4-0.4-0.4-0.6
		C24.1,34.2,24.4,33.8,24.8,33.8z M49.6,35.2c-0.1-0.1-0.2-0.2-0.4-0.2c-0.2,0-0.3,0.1-0.4,0.2c-0.2-0.1-0.4-0.4-0.4-0.6
		c0-0.4,0.3-0.8,0.8-0.8c0.4,0,0.8,0.3,0.8,0.8C49.9,34.9,49.8,35.1,49.6,35.2z"/>
</g>
<g>
	<g>
		<defs>
			<rect id="SVGID_1_" x="627.8" y="321.2" width="648" height="21.6"/>
		</defs>
		<clipPath id="SVGID_2_">
			<use xlink:href="#SVGID_1_"  style="overflow:visible;"/>
		</clipPath>
		<g style="clip-path:url(#SVGID_2_);">
			<text transform="matrix(0.9991 0 0 1 627.7656 331.375)"><tspan x="0" y="0" style="fill:#0070C0; font-family:'ArialMT'; font-size:11.0503px;">P</tspan><tspan x="7.3" y="0" style="fill:#0070C0; font-family:'ArialMT'; font-size:11.0503px;">r</tspan><tspan x="11.1" y="0" style="fill:#0070C0; font-family:'ArialMT'; font-size:11.0503px;">oa</tspan><tspan x="23.3" y="0" style="fill:#0070C0; font-family:'ArialMT'; font-size:11.0503px;">c</tspan><tspan x="28.8" y="0" style="fill:#0070C0; font-family:'ArialMT'; font-size:11.0503px;">t</tspan><tspan x="32" y="0" style="fill:#0070C0; font-family:'ArialMT'; font-size:11.0503px;">i</tspan><tspan x="34.4" y="0" style="fill:#0070C0; font-family:'ArialMT'; font-size:11.0503px;">v</tspan><tspan x="39.8" y="0" style="fill:#0070C0; font-family:'ArialMT'; font-size:11.0503px;">e</tspan><tspan x="45.9" y="0" style="fill:#0070C0; font-family:'ArialMT'; font-size:11.0503px;"> </tspan></text>
		</g>
	</g>
	<g>
		<defs>
			<rect id="SVGID_3_" x="627.8" y="321.2" width="648" height="21.6"/>
		</defs>
		<clipPath id="SVGID_4_">
			<use xlink:href="#SVGID_3_"  style="overflow:visible;"/>
		</clipPath>
		<g style="clip-path:url(#SVGID_4_);">
			<text transform="matrix(0.9991 0 0 1 676.7266 331.375)"><tspan x="0" y="0" style="fill:#0070C0; font-family:'ArialMT'; font-size:11.0503px;">S</tspan><tspan x="7.3" y="0" style="fill:#0070C0; font-family:'ArialMT'; font-size:11.0503px;">pend</tspan><tspan x="31.9" y="0" style="fill:#0070C0; font-family:'ArialMT'; font-size:11.0503px;"> </tspan><tspan x="35" y="0" style="fill:#0070C0; font-family:'ArialMT'; font-size:11.0503px;">M</tspan><tspan x="44" y="0" style="fill:#0070C0; font-family:'ArialMT'; font-size:11.0503px;">anage</tspan><tspan x="74.7" y="0" style="fill:#0070C0; font-family:'ArialMT'; font-size:11.0503px;">m</tspan><tspan x="83.9" y="0" style="fill:#0070C0; font-family:'ArialMT'; font-size:11.0503px;">en</tspan><tspan x="96.2" y="0" style="fill:#0070C0; font-family:'ArialMT'; font-size:11.0503px;">t</tspan></text>
		</g>
	</g>
	<g>
		<defs>
			<rect id="SVGID_5_" x="627.8" y="321.2" width="648" height="21.6"/>
		</defs>
		<clipPath id="SVGID_6_">
			<use xlink:href="#SVGID_5_"  style="overflow:visible;"/>
		</clipPath>
		<g style="clip-path:url(#SVGID_6_);">
			<text transform="matrix(0.9991 0 0 1 775.7188 331.375)" style="fill:#0070C0; font-family:'ArialMT'; font-size:11.0503px;"> </text>
		</g>
	</g>
</g>
</svg>
