<?xml version="1.0" encoding="utf-8"?>
<!-- Generator: Adobe Illustrator 21.0.2, SVG Export Plug-In . SVG Version: 6.00 Build 0)  -->
<svg version="1.1" id="Layer_1" xmlns="http://www.w3.org/2000/svg" xmlns:xlink="http://www.w3.org/1999/xlink" x="0px" y="0px"
	 viewBox="0 0 74 74" style="enable-background:new 0 0 74 74;" xml:space="preserve">
<style type="text/css">
	.st0{fill:#006FAF;}
</style>
<title>Cloud &amp;amp; Infrastructure Services</title>
<g>
	<path class="st0" d="M37,74C16.6,74,0,57.4,0,37C0,16.6,16.6,0,37,0c20.4,0,37,16.6,37,37C74,57.4,57.4,74,37,74z M37,2
		C17.7,2,2,17.7,2,37s15.7,35,35,35s35-15.7,35-35S56.3,2,37,2z"/>
</g>
<g id="layer1-5" transform="translate(11.023438,-7.9999834)">
	<path id="path9479-7" class="st0" d="M9.7,25.2c-0.4,0-0.7,0.3-0.7,0.7v5v1.4v24.1v1.4v6.4c0,0.4,0.3,0.7,0.7,0.7h21.3
		c0.4,0,0.7-0.3,0.7-0.7v-7.1l0,0.7l0.7,0l1,0l0.1,0l0.4-0.1l0.7-0.1l-0.2-1.4l-0.7,0.1l-0.3,0l-1,0l-0.7,0v-1.5c0,0,0,0,0,0h2
		c0.4,0,0.7-0.3,0.7-0.7v-1c0.3-0.1,0.6-0.2,0.9-0.4l0.7,0.7c0.3,0.3,0.7,0.3,1,0l1.8-1.8c0.3-0.3,0.3-0.7,0-1L38.1,50
		c0.1-0.3,0.3-0.6,0.4-0.9h1c0.4,0,0.7-0.3,0.7-0.7v-2.6c0-0.4-0.3-0.7-0.7-0.7h-1c-0.1-0.3-0.2-0.6-0.4-0.9l0.7-0.7
		c0.3-0.3,0.3-0.7,0-1L37,40.7c-0.3-0.3-0.7-0.3-1,0l-0.7,0.7c-0.3-0.1-0.6-0.3-0.9-0.4v-1c0-0.4-0.3-0.7-0.7-0.7l-2,0c0,0,0,0,0,0
		v-1.4l0.7,0l1,0l0.4,0.1l0.7,0.1l0.2-1.4l-0.7-0.1l-0.4-0.1l-0.1,0l-1,0l-0.7,0v-4.2v-1.4v-5c0-0.4-0.3-0.7-0.7-0.7L9.7,25.2z
		 M38.5,26.6c-0.1,0-0.1,0.3-0.1,0.4l-0.1,1v0c0.4,0,0.7,0,1.1,0.1c0.3,0.1,0.5,0.2,0.8,0.3c0.2,0.1,0.3,0.2,0.5,0.3
		c0.2-0.4,0.5-0.8,0.7-1.2c-0.5-0.2-0.9-0.5-1.4-0.7C39.5,26.6,39,26.6,38.5,26.6z M10.4,26.6h19.8v4.3H10.4
		C10.4,30.8,10.4,26.6,10.4,26.6z M36.5,27.2c-0.2,0.2-0.4,0.3-0.5,0.5c-0.3,0.2-0.6,0.6-0.8,0.9c-0.2,0.3-0.4,0.7-0.6,1.1
		c0.4,0.2,0.8,0.5,1.2,0.7c0.2-0.3,0.4-0.7,0.6-1c0.2-0.2,0.4-0.4,0.6-0.6c0.1-0.1,0.2-0.2,0.4-0.3C37.1,27.9,36.8,27.5,36.5,27.2z
		 M17.5,28v1.4h5.7V28H17.5z M42.6,29c-0.5,0.1-0.9,0.3-1.4,0.4c0.1,0.4,0.3,0.8,0.3,1.2c0,0.3,0,0.6,0,0.8
		c-0.1,0.3-0.2,0.6-0.3,0.8c-0.1,0.1-0.1,0.3,0.1,0.3c0.4,0.2,0.7,0.4,1.1,0.6c0.2-0.4,0.4-0.7,0.5-1.1c0.2-0.4,0.2-0.8,0.2-1.3
		c0-0.4-0.1-0.8-0.2-1.2C42.7,29.4,42.6,29.2,42.6,29z M35.9,31.1c-0.5,0.1-0.9,0.3-1.4,0.4v0c0.2,0.4,0.2,0.9,0.5,1.3
		c0.2,0.5,0.6,0.8,0.9,1.2c0.1,0.2,0.1,0.1,0.3-0.1l0.9-0.7c-0.3-0.3-0.5-0.6-0.8-1c-0.1-0.2-0.3-0.5-0.3-0.8L35.9,31.1z M10.4,32.3
		h19.8v24.1H10.4C10.4,56.3,10.4,32.3,10.4,32.3z M40.5,33.2c-0.2,0.1-0.5,0.1-0.7,0.2c-0.3,0.1-0.6,0.2-0.9,0.2
		c-0.3,0-0.6,0-0.9-0.1L37.8,35c0.4,0,0.9,0.1,1.3,0c0.5,0,0.9-0.2,1.4-0.3c0.1-0.1,0.4,0,0.4-0.2L40.5,33.2z M18.2,35.1
		c-2.3,0-4.3,1.9-4.3,4.3c0,1.5,0.8,2.9,2.1,3.6v1.4h-1c-1.1,0-1.8,1-1.8,2v0.1c0,0,0,0.1,0,0.1c0.1,2.5,1.4,4.7,3.5,6
		c2.2,1.3,4.9,1.3,7.1,0c2.2-1.3,3.5-3.6,3.5-6.2v-1.3c0-1-0.8-2-1.8-2h-5.3v0c1.3-0.7,2.2-2.1,2.2-3.7C22.5,37,20.6,35.1,18.2,35.1
		z M18.2,36.5c1.6,0,2.8,1.3,2.8,2.8c0,0.7-0.3,1.3-0.7,1.8v-1.2c0,0,0,0,0,0c0-0.1,0-0.3,0-0.4c0,0,0-0.1,0-0.1
		c0-0.1,0-0.1-0.1-0.2c-0.1-0.3-0.3-0.5-0.5-0.7c-0.3-0.2-0.6-0.3-0.9-0.4c0,0,0,0,0,0c0,0,0,0,0,0c0,0,0,0,0,0c0,0,0,0,0,0
		c0,0-0.1,0-0.1-0.1c0,0,0,0,0,0c0,0,0,0-0.1,0c0,0,0,0,0,0c0,0-0.1,0-0.1,0c0,0-0.1,0-0.1,0c-1.1,0-2.1,0.8-2.1,2v1.1
		c-0.4-0.5-0.7-1.1-0.7-1.7C15.4,37.8,16.6,36.5,18.2,36.5z M36.1,37.2l-0.6,1.3l0.6,0.3l0.6,0.3l0.6,0.4l0.6,0.4l0.7-1.2l-0.6-0.4
		l-0.6-0.4l-0.1,0l-0.6-0.3C36.8,37.5,36.1,37.2,36.1,37.2z M18.2,39.3C18.2,39.3,18.2,39.3,18.2,39.3
		C18.2,39.3,18.2,39.3,18.2,39.3c0.3,0,0.7,0.3,0.7,0.6v2.7v1.2c0,0.4,0.3,0.7,0.7,0.7h6c0.2,0,0.4,0.2,0.4,0.6v1.3
		c0,2-1.1,3.9-2.8,4.9c-1.8,1-3.9,1-5.7,0c-1.7-1-2.8-2.8-2.8-4.8c0,0,0-0.1,0-0.1l0,0v0c0-0.4,0.2-0.6,0.4-0.6h1.7
		c0.4,0,0.7-0.3,0.7-0.7v-2.5v-2.6v0c0,0,0,0,0,0C17.5,39.7,17.8,39.4,18.2,39.3C18.1,39.4,18.2,39.3,18.2,39.3L18.2,39.3z
		 M39.9,39.6l-1,1l0.5,0.5l0.1,0.2l0,0L40,42l0.1,0.2l0.4,0.6l1.2-0.7l-0.4-0.6l-0.1-0.2l0-0.1l-0.6-0.8l0,0l-0.2-0.2L39.9,39.6
		L39.9,39.6z M31.6,40.7C31.7,40.7,31.7,40.8,31.6,40.7l1.4,0v0.7c0,0.3,0.2,0.6,0.6,0.7c0.6,0.1,1.1,0.3,1.6,0.7
		c0.3,0.2,0.6,0.1,0.9-0.1l0.5-0.5l0.8,0.8l-0.5,0.5c-0.2,0.2-0.3,0.6-0.1,0.9c0.3,0.5,0.5,1,0.6,1.6c0.1,0.3,0.4,0.6,0.7,0.6h0.7
		v1.2H38c-0.3,0-0.6,0.2-0.7,0.6c-0.1,0.6-0.3,1.1-0.6,1.6c-0.2,0.3-0.1,0.6,0.1,0.9l0.5,0.5L36.5,52L36,51.5
		c-0.2-0.2-0.6-0.3-0.9-0.1c-0.5,0.3-1,0.5-1.6,0.6c-0.3,0.1-0.6,0.4-0.6,0.7v0.7h-1.3c0,0,0,0,0,0V50c1.6,0,2.8-1.3,2.8-2.8
		c0-1.6-1.3-2.8-2.8-2.8C31.6,44.3,31.6,40.7,31.6,40.7z M42.4,43.5L41,43.8l0.2,0.7l0.2,0.8l0.1,0.6l0.1,0.7l1.4-0.2l-0.1-0.7
		L42.8,45l0-0.1l-0.2-0.8L42.4,43.5L42.4,43.5z M31.6,45.7c0.8,0,1.4,0.6,1.4,1.4c0,0.8-0.6,1.4-1.4,1.4V45.7z M41.6,47.7l-0.1,0.7
		L41.4,49l-0.2,0.8L41,50.4l1.4,0.4l0.2-0.7l0.2-0.8l0-0.1l0.1-0.6L43,48L41.6,47.7L41.6,47.7z M40.4,51.5l-0.4,0.6L40,52.3L39.5,53
		l0,0l-0.2,0.2l-0.5,0.5l1,1l0.5-0.5l0.2-0.2l0,0l0.6-0.8l0-0.1l0.1-0.2l0.4-0.6L40.4,51.5L40.4,51.5z M37.9,54.5l-0.6,0.4l-0.6,0.4
		l-0.6,0.3l-0.6,0.3l0.6,1.3l0.6-0.3l0.6-0.3l0.1,0l0.6-0.4l0.6-0.4C38.7,55.7,37.9,54.5,37.9,54.5z M10.4,57.8h19.8v5.7H10.4
		C10.4,63.4,10.4,57.8,10.4,57.8z M20.3,59.2c-0.8,0-1.4,0.6-1.4,1.4c0,0.8,0.6,1.4,1.4,1.4c0.8,0,1.4-0.6,1.4-1.4
		C21.7,59.8,21.1,59.2,20.3,59.2z"/>
</g>
</svg>
