<?xml version="1.0" encoding="utf-8"?>
<!-- Generator: Adobe Illustrator 21.0.2, SVG Export Plug-In . SVG Version: 6.00 Build 0)  -->
<svg version="1.1" id="Layer_1" xmlns="http://www.w3.org/2000/svg" xmlns:xlink="http://www.w3.org/1999/xlink" x="0px" y="0px"
	 viewBox="0 0 74 74" style="enable-background:new 0 0 74 74;" xml:space="preserve">
<style type="text/css">
	.st0{fill:none;stroke:#006FAF;stroke-width:2;stroke-miterlimit:10;}
	.st1{fill:#006FAF;}
</style>
<title>Cloud &amp;amp; Infrastructure Services</title>
<circle class="st0" cx="37" cy="37" r="36"/>
<path class="st1" d="M28.1,45.3c3,0,6,0,8.9,0c3,0,6,0,9.1,0s4.9-1.8,5-4.8c0.1-3.9,0.1-7.8,0-11.7C51,26,49.3,24.1,46.4,24
	c-6.3-0.1-12.5-0.1-18.8,0c-2.8,0.1-4.5,2-4.5,4.8c0,3.8,0,7.6,0,11.5C23.1,43.4,25,45.3,28.1,45.3z M24.9,29c0-2.1,1-3.1,3.1-3.2
	c6,0,12,0,18,0c2,0,3.1,1.2,3.1,3.2c0.1,3.8,0.1,7.5,0,11.3c0,2-1.2,3.1-3.2,3.1c-3,0-6,0-8.9,0c-3,0-5.9,0-8.8,0
	c-2.3,0-3.4-1-3.4-3.3C24.9,36.5,24.9,32.8,24.9,29z"/>
<path class="st1" d="M54.8,48.3c-0.3-0.1-0.7,0-1,0c-11.1,0-22.3,0-33.3,0c-0.4,0-0.8,0-1.2,0.1c-0.4,0.1-0.7,0.4-0.7,0.9
	c0.1,0.4,0.3,0.7,0.7,0.7c0.3,0.1,0.7,0,1,0c5.5,0,11.2,0,16.7,0c5.4,0,10.8,0,16.2,0c0.5,0,0.9,0,1.4,0c0.6,0,0.9-0.4,0.9-0.9
	C55.6,48.6,55.2,48.4,54.8,48.3z"/>
<path class="st1" d="M40.6,31.6c1,0,1.9-0.8,1.9-1.9c0-1-0.8-1.9-1.9-1.9h-7.2l-0.2,0v0c-0.9,0.1-1.7,0.9-1.7,1.9
	c0,1,0.8,1.9,1.9,1.9h5.9v0.6c-0.3,0.1-0.7,0.3-0.9,0.5c-0.3,0.3-0.4,0.6-0.5,0.9h-2.6l-1.4-1.4c-0.1-0.1-0.2-0.1-0.3-0.1
	s-0.2,0-0.3,0.1l-1.5,1.5c-0.2,0.2-0.2,0.5,0,0.7l1.4,1.4v1.3c0,0.1,0.1,0.3,0.1,0.3c0.1,0.1,0.2,0.1,0.3,0.1h2.7v0.6
	c-0.4,0.1-0.7,0.3-0.9,0.5c-0.4,0.4-0.6,0.9-0.6,1.4c0,0.5,0.2,1.1,0.6,1.4c0.4,0.4,0.9,0.6,1.4,0.6c1.1,0,2-0.9,2-2
	c0-1-0.7-1.7-1.5-2v-1c0,0,0,0,0,0c0-0.1-0.1-0.3-0.1-0.3c-0.1-0.1-0.2-0.1-0.3-0.1c0,0,0,0,0,0H34v-0.8l1.3-1.3h2.6
	c0.2,0.9,1,1.5,2,1.5c1.1,0,2-0.9,2-2c0-1-0.7-1.8-1.6-2v-0.6H40.6z M33.4,28.8l7.2,0c0.5,0,0.9,0.4,0.9,0.9c0,0.5-0.4,0.9-0.9,0.9
	h-0.8c0,0,0,0,0,0s0,0,0,0h-6.4c-0.5,0-0.9-0.4-0.9-0.9C32.5,29.2,32.9,28.8,33.4,28.8z M40.6,34.9c-0.2,0.2-0.5,0.3-0.8,0.3
	c-0.3,0-0.5-0.1-0.7-0.3c-0.2-0.2-0.3-0.5-0.3-0.7c0,0,0,0,0,0c0,0,0,0,0,0c0-0.3,0.1-0.5,0.3-0.7c0.2-0.2,0.5-0.3,0.8-0.3
	c0.3,0,0.5,0.1,0.7,0.3c0.2,0.2,0.3,0.5,0.3,0.7C40.9,34.4,40.8,34.7,40.6,34.9z M32.7,34.1l0.9-0.9l0.9,0.9L33.5,35L32.7,34.1z
	 M37.5,40.9c-0.2,0.2-0.5,0.3-0.8,0.3c-0.3,0-0.5-0.1-0.7-0.3c-0.4-0.4-0.4-1.1,0-1.5c0.2-0.2,0.5-0.3,0.7-0.3c0,0,0,0,0,0
	c0,0,0,0,0,0c0.3,0,0.5,0.1,0.7,0.3c0.2,0.2,0.3,0.5,0.3,0.8S37.7,40.7,37.5,40.9z"/>
</svg>
