<?xml version="1.0" encoding="utf-8"?>
<!-- Generator: Adobe Illustrator 21.0.2, SVG Export Plug-In . SVG Version: 6.00 Build 0)  -->
<svg version="1.1" id="Layer_1" xmlns="http://www.w3.org/2000/svg" xmlns:xlink="http://www.w3.org/1999/xlink" x="0px" y="0px"
	 viewBox="0 0 74 74" style="enable-background:new 0 0 74 74;" xml:space="preserve">
<style type="text/css">
	.st0{fill:none;stroke:#006FAF;stroke-width:2;stroke-miterlimit:10;}
	.st1{fill:#006FAF;}
</style>
<title>Cloud &amp;amp; Infrastructure Services</title>
<circle class="st0" cx="37" cy="37" r="36"/>
<path class="st1" d="M33.6,41.6v-4.2l6.8,0v4.1c-1,0.4-1.8,1.4-1.8,2.5c0,1.4,1.2,2.6,2.6,2.6c1.4,0,2.6-1.2,2.6-2.6
	c0-1.1-0.7-2-1.7-2.4v-4.2l0.1,0l0-1.8l-4.5,0v-3.2c1.1-0.4,1.8-1.3,1.8-2.5c0-1.4-1.2-2.6-2.6-2.6c-1.4,0-2.6,1.2-2.6,2.6
	c0,1.1,0.7,2,1.7,2.4v3.2l-4.2,0l0,1.5l0,0.2v4.2c-1,0.4-1.7,1.4-1.7,2.5c0,1.4,1.2,2.6,2.6,2.6s2.6-1.2,2.6-2.6
	C35.3,43,34.6,42,33.6,41.6z M33.5,44.1c0,0.5-0.4,0.8-0.8,0.8s-0.8-0.4-0.8-0.8c0-0.5,0.4-0.8,0.8-0.8S33.5,43.6,33.5,44.1z
	 M42.1,44c0,0.5-0.4,0.8-0.8,0.8c-0.5,0-0.8-0.4-0.8-0.8s0.4-0.8,0.8-0.8C41.7,43.2,42.1,43.5,42.1,44z M36.9,30.8
	c-0.5,0-0.8-0.4-0.8-0.8s0.4-0.8,0.8-0.8c0.5,0,0.8,0.4,0.8,0.8S37.4,30.8,36.9,30.8z"/>
<g>
	<path class="st1" d="M27.9,24.8c0.4-0.3,0.9-0.6,1.5-0.9l0.3,1l2.8-3.3l-4.2-0.8l0.5,1.4c-0.7,0.4-1.3,0.7-1.9,1.2
		c-6.5,4.7-8.7,13.3-5.4,20.5l0.1,0.3l1.4-1L22.9,43C20.1,36.6,22.2,28.9,27.9,24.8z"/>
	<path class="st1" d="M36,22c5.1-0.2,9.9,2.1,12.8,6.2c2.7,3.8,3.5,8.5,2.2,12.9l-1-0.3l0.9,4.2l3.2-2.8l-1.4-0.5
		c1.5-5,0.6-10.3-2.4-14.5c-3.4-4.7-8.8-7.2-14.6-6.9l-0.3,0l0.4,1.7L36,22z"/>
	<path class="st1" d="M46.4,50.6c0.9-0.7,1.8-1.5,2.6-2.3l0.2-0.2l-1.5-0.9l-0.1,0.1c-0.7,0.7-1.4,1.4-2.2,1.9
		c-5.5,4-13,3.7-18.2-0.6l0.9-1.1l-4.2-0.8l1.4,4.1l0.7-0.8C31.9,54.7,40.3,55,46.4,50.6z"/>
</g>
</svg>
