<?xml version="1.0" encoding="utf-8"?>
<!-- Generator: Adobe Illustrator 21.1.0, SVG Export Plug-In . SVG Version: 6.00 Build 0)  -->
<svg version="1.1" xmlns="http://www.w3.org/2000/svg" xmlns:xlink="http://www.w3.org/1999/xlink" x="0px" y="0px"
	 viewBox="0 0 74 74" style="enable-background:new 0 0 74 74;" xml:space="preserve">
<style type="text/css">
	.st0{fill:none;stroke:#006FAF;stroke-width:2;stroke-miterlimit:10;}
	.st1{fill:#006FAF;}
	.st2{fill:none;stroke:#006FAF;stroke-miterlimit:10;}
	.st3{fill:#006FAF;stroke:#006FAF;stroke-width:0.75;stroke-miterlimit:10;}
</style>
<g id="azure-data-protection-and-recovery">
	<g id="Layer_13">
	</g>
</g>
<g id="cloud-dr-and-bc-strategy">
</g>
<g id="cloud-workload-data-protection">
</g>
<g id="hybrid-workload-data-protection">
</g>
<g id="automated-disaster-recovery">
</g>
<g id="regulatory-compliance-management">
	<circle class="st0" cx="37.1" cy="37" r="36"/>
	<path class="st2" d="M34.8,37.7l1.2-1.2c-0.7-1-1.1-2.1-1.3-3.2H33c-0.4,0-0.7-0.3-0.7-0.7v-2c0-0.4,0.3-0.7,0.7-0.7h1.7
		c0.2-1.1,0.7-2.2,1.3-3.2l-1.2-1.2c-0.3-0.3-0.3-0.7,0-1l1.4-1.4c0.3-0.3,0.7-0.3,1,0l1.2,1.2c1-0.7,2.1-1.1,3.2-1.3v-1.7
		c0-0.4,0.3-0.7,0.7-0.7h2c0.4,0,0.7,0.3,0.7,0.7V23c0.5,0.1,1.1,0.3,1.6,0.5L44,26.1c-1.7-0.2-3.4,0.3-4.6,1.6
		c-2.2,2.2-2.2,5.8,0,8c2.2,2.2,5.8,2.2,8,0c1.3-1.3,1.8-3,1.6-4.6l2.7-2.7c0.2,0.5,0.4,1.1,0.5,1.6h1.7c0.4,0,0.7,0.3,0.7,0.7v2
		c0,0.4-0.3,0.7-0.7,0.7H52c-0.2,1.1-0.7,2.2-1.3,3.2l1.2,1.2c0.3,0.3,0.3,0.7,0,1l-1.4,1.4c-0.3,0.3-0.7,0.3-1,0L48.3,39
		c-1,0.7-2.1,1.1-3.2,1.3V42c0,0.4-0.3,0.7-0.7,0.7h-2c-0.4,0-0.7-0.3-0.7-0.7v-1.7c-1.1-0.2-2.2-0.7-3.2-1.3l-1.2,1.1
		c-0.3,0.3-0.7,0.3-1,0l-1.4-1.4C34.5,38.5,34.5,38,34.8,37.7z M54.2,22.2l-1.4-1.4c-0.3-0.3-0.7-0.3-1.1,0L43.6,29l-1.3-1.3
		c-0.1-0.1-0.4-0.1-0.4,0.1l-1.1,6.2c0,0.2,0.1,0.3,0.3,0.3l6.2-1.1c0.2,0,0.3-0.3,0.1-0.4l-1.3-1.3l8.1-8.1
		C54.5,23,54.5,22.5,54.2,22.2z M26.9,53.9l-0.5,1.3c-0.1,0.3-0.5,0.5-0.8,0.3l-1.5-0.6c-0.3-0.1-0.5-0.5-0.3-0.8l0.5-1.3
		c-0.8-0.5-1.5-1.2-2-2L21,51.3c-0.3,0.1-0.6,0-0.7-0.3l-0.6-1.5c-0.1-0.3,0-0.7,0.3-0.8l1.3-0.5c-0.2-0.9-0.2-1.9,0-2.9L20,44.8
		c-0.3-0.1-0.5-0.5-0.3-0.8l0.6-1.5c0.1-0.3,0.5-0.4,0.8-0.3l1.3,0.5c0.5-0.8,1.2-1.5,2-2l-0.5-1.3c-0.1-0.3,0-0.7,0.3-0.8l1.5-0.6
		c0.3-0.1,0.7,0,0.8,0.3l0.5,1.3c0.9-0.2,1.9-0.2,2.9,0l0.5-1.3c0.1-0.3,0.5-0.5,0.8-0.3l1.5,0.6c0.3,0.1,0.5,0.5,0.3,0.8l-0.5,1.3
		c0.8,0.5,1.5,1.2,2,2l1.3-0.5c0.3-0.1,0.7,0,0.8,0.3l0.6,1.5c0.1,0.3,0,0.7-0.3,0.8l-1.3,0.5c0.2,0.9,0.2,1.9,0,2.9l1.3,0.5
		c0.3,0.1,0.5,0.5,0.3,0.8L36.5,51c-0.1,0.3-0.5,0.5-0.8,0.3l-1.3-0.5c-0.5,0.8-1.2,1.5-2,2l0.5,1.3c0.1,0.3,0,0.7-0.3,0.8l-1.5,0.6
		c-0.3,0.1-0.7,0-0.8-0.3l-0.5-1.3C28.9,54.1,27.9,54.1,26.9,53.9z M27.2,49.8l2.5-2.5l1,1c0.1,0.1,0.3,0,0.3-0.1l0.4-4.2
		c0-0.1-0.1-0.2-0.2-0.2L27,44.1c-0.1,0-0.2,0.2-0.1,0.3l1,1L25.3,48c-0.1,0.1-0.1,0.3,0,0.4l1.5,1.5C26.9,49.9,27.1,49.9,27.2,49.8
		z"/>
</g>
<g id="information-security-and-encryption">
</g>
</svg>
