<?xml version="1.0" encoding="utf-8"?>
<!-- Generator: Adobe Illustrator 21.0.2, SVG Export Plug-In . SVG Version: 6.00 Build 0)  -->
<svg version="1.1" id="Layer_1" xmlns="http://www.w3.org/2000/svg" xmlns:xlink="http://www.w3.org/1999/xlink" x="0px" y="0px"
	 viewBox="0 0 74 74" style="enable-background:new 0 0 74 74;" xml:space="preserve">
<style type="text/css">
	.st0{fill:#006FAF;}
</style>
<title>SQL-server-database-services</title>
<g>
	<g>
		<path class="st0" d="M37,74C16.6,74,0,57.4,0,37S16.6,0,37,0s37,16.6,37,37S57.4,74,37,74z M37,2C17.7,2,2,17.7,2,37
			s15.7,35,35,35s35-15.7,35-35S56.3,2,37,2z"/>
	</g>
</g>
<g>
	<g>
		<defs>
			<rect id="SVGID_1_" x="627.8" y="321.2" width="648" height="21.6"/>
		</defs>
		<clipPath id="SVGID_2_">
			<use xlink:href="#SVGID_1_"  style="overflow:visible;"/>
		</clipPath>
		<g style="clip-path:url(#SVGID_2_);">
			<text transform="matrix(0.9991 0 0 1 627.7656 331.375)"><tspan x="0" y="0" style="fill:#0070C0; font-family:'ArialMT'; font-size:11.0503px;">P</tspan><tspan x="7.3" y="0" style="fill:#0070C0; font-family:'ArialMT'; font-size:11.0503px;">r</tspan><tspan x="11.1" y="0" style="fill:#0070C0; font-family:'ArialMT'; font-size:11.0503px;">oa</tspan><tspan x="23.3" y="0" style="fill:#0070C0; font-family:'ArialMT'; font-size:11.0503px;">c</tspan><tspan x="28.8" y="0" style="fill:#0070C0; font-family:'ArialMT'; font-size:11.0503px;">t</tspan><tspan x="32" y="0" style="fill:#0070C0; font-family:'ArialMT'; font-size:11.0503px;">i</tspan><tspan x="34.4" y="0" style="fill:#0070C0; font-family:'ArialMT'; font-size:11.0503px;">v</tspan><tspan x="39.8" y="0" style="fill:#0070C0; font-family:'ArialMT'; font-size:11.0503px;">e</tspan><tspan x="45.9" y="0" style="fill:#0070C0; font-family:'ArialMT'; font-size:11.0503px;"> </tspan></text>
		</g>
	</g>
	<g>
		<defs>
			<rect id="SVGID_3_" x="627.8" y="321.2" width="648" height="21.6"/>
		</defs>
		<clipPath id="SVGID_4_">
			<use xlink:href="#SVGID_3_"  style="overflow:visible;"/>
		</clipPath>
		<g style="clip-path:url(#SVGID_4_);">
			<text transform="matrix(0.9991 0 0 1 676.7266 331.375)"><tspan x="0" y="0" style="fill:#0070C0; font-family:'ArialMT'; font-size:11.0503px;">S</tspan><tspan x="7.3" y="0" style="fill:#0070C0; font-family:'ArialMT'; font-size:11.0503px;">pend</tspan><tspan x="31.9" y="0" style="fill:#0070C0; font-family:'ArialMT'; font-size:11.0503px;"> </tspan><tspan x="35" y="0" style="fill:#0070C0; font-family:'ArialMT'; font-size:11.0503px;">M</tspan><tspan x="44" y="0" style="fill:#0070C0; font-family:'ArialMT'; font-size:11.0503px;">anage</tspan><tspan x="74.7" y="0" style="fill:#0070C0; font-family:'ArialMT'; font-size:11.0503px;">m</tspan><tspan x="83.9" y="0" style="fill:#0070C0; font-family:'ArialMT'; font-size:11.0503px;">en</tspan><tspan x="96.2" y="0" style="fill:#0070C0; font-family:'ArialMT'; font-size:11.0503px;">t</tspan></text>
		</g>
	</g>
	<g>
		<defs>
			<rect id="SVGID_5_" x="627.8" y="321.2" width="648" height="21.6"/>
		</defs>
		<clipPath id="SVGID_6_">
			<use xlink:href="#SVGID_5_"  style="overflow:visible;"/>
		</clipPath>
		<g style="clip-path:url(#SVGID_6_);">
			<text transform="matrix(0.9991 0 0 1 775.7188 331.375)" style="fill:#0070C0; font-family:'ArialMT'; font-size:11.0503px;"> </text>
		</g>
	</g>
</g>
<g>
	<polygon class="st0" points="29.8,50.5 30.7,50.5 30.7,54.1 32.5,54.1 32.5,48.7 29.8,48.7 	"/>
	<polygon class="st0" points="41.5,54.1 43.3,54.1 43.3,50.5 44.2,50.5 44.2,48.7 41.5,48.7 	"/>
	<rect x="36.1" y="49.1" class="st0" width="1.8" height="1.8"/>
	<rect x="36.1" y="52.2" class="st0" width="1.8" height="1.8"/>
	<g>
		<path class="st0" d="M39.2,41.7h-2c2.5-0.1,4.2-1.9,4.2-4.4c0-2.6-1.9-4.5-4.5-4.5s-4.5,1.9-4.5,4.5c0,2.5,1.8,4.3,4.2,4.4h-2
			c-4,0-7.1,3-7.1,6.9v4.8c0,0.5,0.4,0.8,0.9,0.8s0.9-0.4,0.9-0.8v-4.8c0-2.6,2-5.2,5.3-5.2h4.5c3.3,0,5.3,2.7,5.3,5.2v4.8
			c0,0.5,0.4,0.8,0.9,0.8c0.3,0,0.5-0.1,0.7-0.3c0.2-0.2,0.2-0.4,0.2-0.6v-4.8C46.4,44.7,43.2,41.7,39.2,41.7z M34.3,37.3
			c0-1.7,1.1-2.8,2.7-2.8c1.6,0,2.7,1.2,2.7,2.8c0,1.7-1.1,2.8-2.7,2.8C35.4,40.1,34.3,38.9,34.3,37.3z"/>
		<rect x="36.1" y="46" class="st0" width="1.8" height="1.8"/>
		<path class="st0" d="M36.1,25v5.5h1.8V25c1-0.4,1.8-1.4,1.8-2.5c0-1.5-1.2-2.7-2.7-2.7s-2.7,1.2-2.7,2.7
			C34.3,23.6,35.1,24.6,36.1,25z M37,23.3c-0.5,0-0.9-0.4-0.9-0.9c0-0.5,0.4-0.9,0.9-0.9c0.5,0,0.9,0.4,0.9,0.9
			C37.9,22.9,37.5,23.3,37,23.3z"/>
		<path class="st0" d="M21.4,30.8c0.4,0.2,0.9,0.4,1.3,0.4c0.2,0,0.4,0,0.7-0.1c0.4-0.1,0.7-0.3,1-0.6l4.8,2.8l0.9-1.6L25.3,29
			c0.2-1.1-0.3-2.2-1.3-2.8c-0.4-0.2-0.9-0.4-1.4-0.4c-0.2,0-0.5,0-0.7,0.1c-0.7,0.2-1.3,0.6-1.6,1.3c-0.4,0.6-0.5,1.3-0.3,2
			C20.3,29.9,20.7,30.5,21.4,30.8z M23.6,28.2c0.1,0.2,0,0.5-0.1,0.7c-0.2,0.3-0.4,0.4-0.8,0.4c-0.2,0-0.3,0-0.4-0.1
			c-0.2-0.1-0.3-0.3-0.4-0.5c-0.1-0.2,0-0.5,0.1-0.7c0.2-0.3,0.5-0.4,0.8-0.4c0.1,0,0.3,0,0.4,0.1C23.3,27.8,23.5,28,23.6,28.2z"/>
		<path class="st0" d="M48.7,29l-4.8,2.8l0.9,1.6l4.8-2.8c0.3,0.3,0.6,0.4,1,0.5c0.2,0.1,0.5,0.1,0.7,0.1c0.5,0,0.9-0.1,1.3-0.4
			c0.6-0.4,1.1-0.9,1.3-1.6c0.2-0.7,0.1-1.4-0.3-2c-0.4-0.6-0.9-1.1-1.6-1.3c-0.2-0.1-0.5-0.1-0.7-0.1c-0.5,0-0.9,0.1-1.3,0.4
			c-0.6,0.4-1.1,0.9-1.3,1.6C48.6,28.2,48.6,28.6,48.7,29z M50.4,28.3c0.1-0.2,0.2-0.4,0.4-0.5c0.1-0.1,0.3-0.1,0.4-0.1
			c0.1,0,0.2,0,0.2,0c0.2,0.1,0.4,0.2,0.5,0.4c0.2,0.4,0.1,1-0.3,1.2c-0.1,0.1-0.3,0.1-0.4,0.1c-0.3,0-0.6-0.2-0.8-0.4
			C50.4,28.7,50.4,28.5,50.4,28.3z"/>
		<path class="st0" d="M53.9,43.9c-0.2-0.7-0.6-1.3-1.3-1.6c-0.4-0.2-0.9-0.4-1.4-0.4c-0.2,0-0.5,0-0.7,0.1c-0.4,0.1-0.7,0.3-1,0.5
			l-4.8-2.8l-0.9,1.6l4.8,2.8c-0.1,0.4-0.1,0.8,0,1.2c0.2,0.7,0.6,1.3,1.3,1.6c0.4,0.2,0.9,0.4,1.3,0.4c0.2,0,0.5,0,0.7-0.1
			c0.7-0.2,1.3-0.6,1.6-1.3C54,45.3,54.1,44.5,53.9,43.9z M50.5,44.8c-0.1-0.2,0-0.5,0.1-0.7c0.1-0.2,0.3-0.3,0.5-0.4
			c0.1,0,0.2,0,0.2,0c0.2,0,0.3,0,0.4,0.1c0.2,0.1,0.3,0.3,0.4,0.5c0.1,0.2,0,0.5-0.1,0.7c-0.1,0.2-0.3,0.3-0.5,0.4
			c-0.1,0-0.1,0-0.2,0c-0.2,0-0.3,0-0.4-0.1C50.7,45.2,50.5,45,50.5,44.8z"/>
		<path class="st0" d="M30.1,41.3l-0.9-1.6l-4.8,2.8c-0.3-0.3-0.6-0.4-1-0.5c-0.2-0.1-0.5-0.1-0.7-0.1c-0.5,0-0.9,0.1-1.3,0.4
			c-0.6,0.4-1.1,0.9-1.3,1.6c-0.2,0.7-0.1,1.4,0.3,2c0.5,0.8,1.4,1.3,2.3,1.3c0.5,0,0.9-0.1,1.4-0.4c0.6-0.4,1.1-0.9,1.3-1.6
			c0.1-0.4,0.1-0.8,0-1.2L30.1,41.3z M23.6,44.8c-0.1,0.2-0.2,0.4-0.4,0.5c-0.1,0.1-0.3,0.1-0.4,0.1c-0.3,0-0.6-0.2-0.8-0.4
			c-0.1-0.2-0.1-0.4-0.1-0.7c0.1-0.2,0.2-0.4,0.4-0.5c0.1-0.1,0.3-0.1,0.4-0.1c0,0,0.1,0,0.2,0c0.2,0.1,0.4,0.2,0.5,0.4
			C23.6,44.3,23.6,44.6,23.6,44.8z"/>
		<rect x="21.8" y="32.4" class="st0" width="1.8" height="8.3"/>
		<rect x="50.4" y="32.6" class="st0" width="1.8" height="7.8"/>
		<polygon class="st0" points="47.6,27.3 48.2,25.6 41.4,23 40.7,24.7 		"/>
		<polygon class="st0" points="33.1,24.2 32.4,22.5 26.1,25.2 26.7,26.9 		"/>
	</g>
</g>
<g>
	<g>
		<defs>
			<rect id="SVGID_7_" x="627.8" y="321.2" width="648" height="21.6"/>
		</defs>
		<clipPath id="SVGID_8_">
			<use xlink:href="#SVGID_7_"  style="overflow:visible;"/>
		</clipPath>
		<g style="clip-path:url(#SVGID_8_);">
			<text transform="matrix(0.9991 0 0 1 627.7656 331.375)"><tspan x="0" y="0" style="fill:#0070C0; font-family:'ArialMT'; font-size:11.0503px;">R</tspan><tspan x="7.9" y="0" style="fill:#0070C0; font-family:'ArialMT'; font-size:11.0503px;">e</tspan><tspan x="14.1" y="0" style="fill:#0070C0; font-family:'ArialMT'; font-size:11.0503px;">s</tspan><tspan x="19.6" y="0" style="fill:#0070C0; font-family:'ArialMT'; font-size:11.0503px;">ou</tspan><tspan x="31.9" y="0" style="fill:#0070C0; font-family:'ArialMT'; font-size:11.0503px;">r</tspan><tspan x="35.6" y="0" style="fill:#0070C0; font-family:'ArialMT'; font-size:11.0503px;">c</tspan><tspan x="41.1" y="0" style="fill:#0070C0; font-family:'ArialMT'; font-size:11.0503px;">e</tspan><tspan x="47.2" y="0" style="fill:#0070C0; font-family:'ArialMT'; font-size:11.0503px;"> </tspan></text>
		</g>
	</g>
	<g>
		<defs>
			<rect id="SVGID_9_" x="627.8" y="321.2" width="648" height="21.6"/>
		</defs>
		<clipPath id="SVGID_10_">
			<use xlink:href="#SVGID_9_"  style="overflow:visible;"/>
		</clipPath>
		<g style="clip-path:url(#SVGID_10_);">
			<text transform="matrix(0.9991 0 0 1 678.0391 331.375)"><tspan x="0" y="0" style="fill:#0070C0; font-family:'ArialMT'; font-size:11.0503px;">R</tspan><tspan x="7.9" y="0" style="fill:#0070C0; font-family:'ArialMT'; font-size:11.0503px;">i</tspan><tspan x="10.2" y="0" style="fill:#0070C0; font-family:'ArialMT'; font-size:11.0503px;">g</tspan><tspan x="16.5" y="0" style="fill:#0070C0; font-family:'ArialMT'; font-size:11.0503px;">h</tspan><tspan x="22.6" y="0" style="fill:#0070C0; font-family:'ArialMT'; font-size:11.0503px;">t</tspan><tspan x="25.7" y="0" style="fill:#0070C0; font-family:'ArialMT'; font-size:11.0503px;">s</tspan><tspan x="31.2" y="0" style="fill:#0070C0; font-family:'ArialMT'; font-size:11.0503px;">i</tspan><tspan x="33.7" y="0" style="fill:#0070C0; font-family:'ArialMT'; font-size:11.0503px;">z</tspan><tspan x="39.1" y="0" style="fill:#0070C0; font-family:'ArialMT'; font-size:11.0503px;">i</tspan><tspan x="41.5" y="0" style="fill:#0070C0; font-family:'ArialMT'; font-size:11.0503px;">n</tspan><tspan x="47.6" y="0" style="fill:#0070C0; font-family:'ArialMT'; font-size:11.0503px;">g</tspan></text>
		</g>
	</g>
	<g>
		<defs>
			<rect id="SVGID_11_" x="627.8" y="321.2" width="648" height="21.6"/>
		</defs>
		<clipPath id="SVGID_12_">
			<use xlink:href="#SVGID_11_"  style="overflow:visible;"/>
		</clipPath>
		<g style="clip-path:url(#SVGID_12_);">
			<text transform="matrix(0.9991 0 0 1 731.6875 331.375)" style="fill:#0070C0; font-family:'ArialMT'; font-size:11.0503px;"> </text>
		</g>
	</g>
</g>
</svg>
