<?xml version="1.0" encoding="utf-8"?>
<!-- Generator: Adobe Illustrator 21.0.0, SVG Export Plug-In . SVG Version: 6.00 Build 0)  -->
<svg version="1.1" id="Layer_1" xmlns="http://www.w3.org/2000/svg" xmlns:xlink="http://www.w3.org/1999/xlink" x="0px" y="0px"
	 viewBox="0 0 74 74" style="enable-background:new 0 0 74 74;" xml:space="preserve">
<style type="text/css">
	.st0{fill:none;stroke:#006FAF;stroke-width:2;stroke-miterlimit:10;}
	.st1{fill:none;stroke:#006FAF;stroke-width:1.75;stroke-miterlimit:10;}
	.st2{fill:#006FAF;}
</style>
<title>os-patch-management</title>
<g id="text">
</g>
<g>
	<circle class="st0" cx="37" cy="37" r="36"/>
	<g>
		<line class="st1" x1="26.4" y1="21.7" x2="47.3" y2="21.7"/>
		<line class="st1" x1="33.4" y1="48.8" x2="26.4" y2="48.8"/>
		<g>
			<path class="st2" d="M38.3,19.6c0-0.4,0.3-0.7,0.7-0.7l0,0c0.4,0,0.7,0.3,0.7,0.7l0,0c0,0.4-0.3,0.7-0.7,0.7l0,0
				C38.6,20.3,38.3,20,38.3,19.6z M36.2,19.6c0-0.4,0.3-0.7,0.7-0.7l0,0c0.4,0,0.7,0.3,0.7,0.7l0,0c0,0.4-0.3,0.7-0.7,0.7l0,0
				C36.5,20.3,36.2,20,36.2,19.6z M34.1,19.6c0-0.4,0.3-0.7,0.7-0.7l0,0c0.4,0,0.7,0.3,0.7,0.7l0,0c0,0.4-0.3,0.7-0.7,0.7l0,0
				C34.4,20.3,34.1,20,34.1,19.6z"/>
		</g>
		<path class="st1" d="M36.9,54.4h-7.7c-1.5,0-2.8-1.2-2.8-2.8V20.3c0-1.5,1.2-2.8,2.8-2.8h15.3c1.5,0,2.8,1.2,2.8,2.8v18.1"/>
		<g>
			<path class="st1" d="M43.1,42.3v-2.4c0-1,0.7-1.7,1.7-1.7l0,0c1,0,1.8,0.8,1.8,1.7V43v-2.4c0-1,0.7-1.7,1.7-1.7l0,0
				c1,0,1.8,0.8,1.8,1.7v3.1v-1.4c0-1,0.7-1.7,1.7-1.7l0,0c1,0,1.8,0.8,1.8,1.7c0,0,0,4.2,0,7.7c0,7.7-9.7,7.7-13.3,4.9
				c-3-2.3-7.4-12.5-7.4-12.5c-0.5-0.8-0.2-1.9,0.6-2.4l0,0c0.8-0.5,1.9-0.2,2.4,0.6l3.7,5.2V32.2c0-1,0.7-1.7,1.7-1.7l0,0
				c1,0,1.8,0.8,1.8,1.7V42.3z"/>
		</g>
		<path class="st1" d="M35.5,29.3c0,0.4-0.3,0.7-0.7,0.7h-3.5c-0.4,0-0.7-0.3-0.7-0.7v-3.5c0-0.4,0.3-0.7,0.7-0.7h3.5
			c0.4,0,0.7,0.3,0.7,0.7V29.3z"/>
		<path class="st1" d="M35.5,37c0,0.4-0.3,0.7-0.7,0.7h-3.5c-0.4,0-0.7-0.3-0.7-0.7v-3.5c0-0.4,0.3-0.7,0.7-0.7h3.5
			c0.4,0,0.7,0.3,0.7,0.7V37z"/>
		<path class="st1" d="M38.3,29.3v-3.5c0-0.4,0.3-0.7,0.7-0.7h3.5c0.4,0,0.7,0.3,0.7,0.7v2.8"/>
	</g>
</g>
</svg>
