<svg id="Layer_1" data-name="Layer 1" xmlns="http://www.w3.org/2000/svg" width="74" height="74" viewBox="0 0 74 74">
  <defs>
    <style>
      .cls-1, .cls-3 {
        fill: none;
      }

      .cls-1 {
        stroke: #006faf;
        stroke-miterlimit: 10;
        stroke-width: 2px;
      }

      .cls-2 {
        fill: #006faf;
      }
    </style>
  </defs>
  <title>sales</title>
  <circle class="cls-1" cx="37" cy="37" r="36"/>
  <g>
    <path class="cls-2" d="M48.6,31.72h-.07a1.07,1.07,0,0,0-.29,2.12,4.64,4.64,0,0,1,4,4.65c0,1.09-.31,4.64-4.29,4.64H31.06a1,1,0,0,0-.91.55.88.88,0,0,0,0,1,1,1,0,0,0,.88.5H48.18c4.24,0,6.17-3.51,6.17-6.78A7,7,0,0,0,48.6,31.72Z"/>
    <path class="cls-2" d="M36,42l0,0a1.07,1.07,0,0,0,1.45,0L51.3,28.25l-.14,1.44a1,1,0,0,0,.22.72,1,1,0,0,0,.72.34h.12a.9.9,0,0,0,.94-.91l.48-4.32a1,1,0,0,0-.22-.72.9.9,0,0,0-.59-.27h0a.54.54,0,0,0-.25.06l-4.16.46a.76.76,0,0,0-.82.62.83.83,0,0,0,0,.6.67.67,0,0,0,.3.37.88.88,0,0,0,.89.3l1.47-.14-3.53,3.53A6.16,6.16,0,0,0,41,27.88a7.28,7.28,0,0,0-3.19-4.32,7.46,7.46,0,0,0-11.4,7.23,7.19,7.19,0,0,0-6.72,7.1,7.07,7.07,0,0,0,5.86,7.19l-4.8,4.8a1.07,1.07,0,0,0-.27.69.57.57,0,0,0,.1.35,1.25,1.25,0,0,0,.61.6.8.8,0,0,0,.36.09.91.91,0,0,0,.64-.27L33.89,39.59Zm-7.61-10.8a5.43,5.43,0,0,1,1.34-5.59,5.2,5.2,0,0,1,5.59-1.22A5.3,5.3,0,0,1,38.91,29a1.21,1.21,0,0,0,.34.72,1.13,1.13,0,0,0,.84.22h.1A4.32,4.32,0,0,1,45,31.65l-8.23,8.12-2.37-2.37a1.08,1.08,0,0,0-1.45,0L27.35,43H26.18a5,5,0,0,1-4.76-5.24,4.92,4.92,0,0,1,1.79-3.9,5.36,5.36,0,0,1,3.68-1.35l.49,0a1.25,1.25,0,0,0,.84-.34,1.2,1.2,0,0,0,.22-.84Z"/>
  </g>
  <line class="cls-3" x1="56.97" y1="44.82" x2="56.97" y2="46.82"/>
  <line class="cls-3" x1="34.4" y1="23.05" x2="34.4" y2="25.05"/>
</svg>
