<?xml version="1.0" encoding="utf-8"?>
<!-- Generator: Adobe Illustrator 21.0.2, SVG Export Plug-In . SVG Version: 6.00 Build 0)  -->
<svg version="1.1" id="Layer_1" xmlns="http://www.w3.org/2000/svg" xmlns:xlink="http://www.w3.org/1999/xlink" x="0px" y="0px"
	 viewBox="0 0 74 74" style="enable-background:new 0 0 74 74;" xml:space="preserve">
<style type="text/css">
	.st0{fill:none;stroke:#006FAF;stroke-width:2;stroke-miterlimit:10;}
</style>
<title>Azure_Site_Recovery</title>
<circle class="st0" cx="37" cy="37" r="36"/>
<g>
	<path class="st0" d="M43,20.5c0.1,0,0.2,0,0.3,0c2.8,0,5.7,0,8.5,0c0.2,0,0.2,0,0.2,0.2c0,2.8,0,5.7,0,8.5c0,0.1-2.3-2-3.3-3
		c-0.1-0.1-0.2-0.1-0.3,0c-3.3,3.3-6.6,6.6-9.8,9.8c-0.2,0.2-0.3,0.3-0.5,0.5c-0.1,0.1-0.1,0.1-0.2,0c0,0-0.1-0.1-0.1-0.1
		c-1.9-1.9-3.8-3.8-5.6-5.7c-0.1-0.1-0.2-0.1-0.3,0c-2.5,2.5-5,5.1-7.6,7.6c-0.1,0.1-0.2,0.1-0.3,0.1c-0.6,0-1.2,0-1.8,0
		c-0.1,0-0.2,0-0.2-0.2c0-0.6,0-1.2,0-1.8c0-0.1,0-0.2,0.1-0.3c3.3-3.3,6.5-6.5,9.8-9.8c0.1-0.1,0.2-0.1,0.3,0
		c1.9,1.9,3.8,3.8,5.7,5.7c0.1,0.1,0.2,0.1,0.3,0c2.7-2.7,5.4-5.4,8.1-8.1c0.1-0.1,0.1-0.2,0-0.3C45.2,22.7,44.1,21.7,43,20.5z"/>
	<path class="st0" d="M46,43.5c0-3.3,0-6.5,0-9.8c0-0.2,0-0.2,0.2-0.2c1.9,0,3.7,0,5.6,0c0.2,0,0.2,0,0.2,0.2c0,6.5,0,13.1,0,19.6
		c0,0.2,0,0.2-0.2,0.2c-1.9,0-3.7,0-5.6,0c-0.2,0-0.2,0-0.2-0.2C46,50,46,46.7,46,43.5z"/>
	<path class="st0" d="M38,46.4c0-2.2,0-4.5,0-6.7c0-0.2,0-0.3,0.2-0.3c1.6,0,3.2,0,4.8,0c0.1,0,0.2,0,0.2,0.2c0,4.5,0,9.1,0,13.6
		c0,0.1,0,0.2-0.2,0.2c-1.6,0-3.3,0-4.9,0c-0.2,0-0.2-0.1-0.2-0.2C38,51,38,48.7,38,46.4z"/>
	<path class="st0" d="M35.3,47.5c0,1.9,0,3.8,0,5.8c0,0.2,0,0.2-0.2,0.2c-1.6,0-3.3,0-4.9,0c-0.1,0-0.2,0-0.2-0.2
		c0-3.9,0-7.7,0-11.6c0-0.2,0-0.2,0.2-0.2c1.6,0,3.3,0,4.9,0c0.2,0,0.2,0.1,0.2,0.2C35.3,43.6,35.3,45.6,35.3,47.5z"/>
	<path class="st0" d="M22,49.4c0-1.3,0-2.5,0-3.8c0-0.2,0-0.2,0.2-0.2c1.6,0,3.1,0,4.7,0c0.1,0,0.2,0,0.2,0.2c0,2.5,0,5.1,0,7.6
		c0,0.1,0,0.2-0.2,0.2c-1.6,0-3.1,0-4.7,0c-0.1,0-0.2-0.1-0.2-0.2C22,52,22,50.7,22,49.4z"/>
</g>
</svg>
