<?xml version="1.0" encoding="utf-8"?>
<!-- Generator: Adobe Illustrator 21.0.2, SVG Export Plug-In . SVG Version: 6.00 Build 0)  -->
<svg version="1.1" id="Layer_1" xmlns="http://www.w3.org/2000/svg" xmlns:xlink="http://www.w3.org/1999/xlink" x="0px" y="0px"
	 viewBox="0 0 75 75" style="enable-background:new 0 0 75 75;" xml:space="preserve">
<style type="text/css">
	.st0{fill:none;stroke:#006FAF;stroke-width:2;stroke-miterlimit:10;}
	.st1{fill:#006FAF;}
</style>
<circle class="st0" cx="37.5" cy="37.5" r="36"/>
<g>
	<path class="st0" d="M45.7,38.1h1.8h0.3H48h0.3l0,0c4.3-0.3,7.5-4,7.2-8.3c-0.3-4.1-3.7-7.2-7.8-7.2c-0.9,0-1.7,0.2-2.5,0.5
		c-1.3-4.2-5.7-6.5-9.9-5.3c-3.1,0.9-5.3,3.7-5.6,6.9c-1-0.5-2.1-0.8-3.2-0.8c-3.9,0-7.1,3.2-7.1,7.2c0,3.5,2.6,6.4,6,7l0.8,0.1h0.3
		h0.3h2.4"/>
	<path class="st1" d="M33.6,43.9c-0.5,0.2-1,0.5-1.5,0.9h1.5L33.6,43.9z"/>
	<path class="st1" d="M39.8,44.7h1.5c-0.4-0.3-0.9-0.6-1.5-0.9V44.7z"/>
	<path class="st1" d="M35.4,50.1c0,0.6,0.4,1.1,0.9,1.2v2.3H37v-2.3c0.5-0.2,0.9-0.6,0.9-1.2c0-0.7-0.5-1.3-1.2-1.3
		C36,48.9,35.4,49.4,35.4,50.1z"/>
	<path class="st1" d="M45.1,35l-0.7-0.5L43.6,34v0c-0.1,0-0.1,0-0.2,0c-0.2,0-0.3,0.2-0.3,0.3c0,0,0,0.1,0,0.1l0,0l0,0.1l0.1,0.4
		h-0.2h-2.8c-1.2,0-2.2,0.9-2.4,2c0.3,0.1,0.6,0.2,0.9,0.3c0.1-0.8,0.7-1.4,1.5-1.4h2.9l-0.2,0.5c0,0,0,0.1,0,0.1
		c0,0.2,0.2,0.3,0.3,0.3c0.1,0,0.1,0,0.2-0.1v0l1.4-0.9l0.7-0.5v0L45.1,35z"/>
	<path class="st1" d="M37.1,36.9v-2.4v-2.8c0-0.8,0.7-1.5,1.5-1.5h2.1l-0.2,0.5c0,0,0,0.1,0,0.1c0,0.2,0.2,0.3,0.3,0.3
		c0.1,0,0.1,0,0.2,0l1.4-0.9l0.7-0.5l-0.7-0.5L41,28.2c-0.1,0-0.1,0-0.2,0c-0.2,0-0.3,0.2-0.3,0.3c0,0,0,0.1,0,0.1l0.2,0.5h-2.1
		c-0.6,0-1.1,0.2-1.5,0.5v-5.2l0.5,0.2l0,0c0,0,0.1,0,0.1,0c0.2,0,0.3-0.2,0.3-0.3c0-0.1,0-0.1,0-0.2h0h0L36.6,22l0,0l0,0l-1.4,2.1
		h0h0c0,0.1,0,0.1,0,0.2c0,0.2,0.2,0.3,0.3,0.3c0,0,0.1,0,0.1,0v0l0.5-0.2v7.2v0.9v4.4c0.1,0,0.1,0,0.2,0
		C36.6,36.8,36.8,36.8,37.1,36.9z"/>
	<path class="st1" d="M35.3,34.5c0-1.4-1.1-2.5-2.5-2.5h-1.6l0.2-0.5v0c0,0,0-0.1,0-0.1c0-0.2-0.2-0.3-0.3-0.3c-0.1,0-0.1,0-0.2,0v0
		L29.5,32l-0.7,0.5l0,0l0.7,0.5l1.4,0.9v0c0.1,0,0.1,0,0.2,0c0.2,0,0.3-0.2,0.3-0.3c0,0,0-0.1,0-0.1L31.2,33l0,0h1.6
		c0.8,0,1.5,0.7,1.5,1.5v2.9c0.3-0.2,0.6-0.3,1-0.4V34.5z"/>
	<path class="st1" d="M41.4,45.4l0-1.8c0-0.2,0-0.4,0-0.7c-0.1-1.3-0.7-2.4-1.6-3.3c-0.3-0.3-0.7-0.5-1-0.7
		c-0.3-0.1-0.6-0.2-0.9-0.3c-0.3-0.1-0.5-0.1-0.8-0.1c-0.2,0-0.5,0-0.7,0c-0.1,0-0.1,0-0.2,0c-0.3,0-0.5,0.1-0.8,0.1
		c-0.3,0.1-0.6,0.2-0.9,0.4c-0.5,0.3-1,0.6-1.4,1.1c-0.8,1-1.2,2.2-1.2,3.4v1.9c-1.4,1.3-2.3,3.1-2.3,5.1c0,3.9,3.1,7,7,7
		c3.9,0,7-3.1,7-7C43.7,48.5,42.8,46.7,41.4,45.4z M34.5,41.4C34.5,41.4,34.5,41.4,34.5,41.4c0.3-0.3,0.6-0.6,0.9-0.7
		c0.2-0.1,0.5-0.2,0.8-0.3c0.1,0,0.2,0,0.3-0.1c0.2,0,0.4,0,0.6,0c0.3,0,0.5,0.1,0.8,0.2c0.3,0.1,0.5,0.3,0.7,0.4
		c0.1,0.1,0.1,0.1,0.2,0.2c0.5,0.5,0.8,1.1,0.8,1.8c0,0.1,0,0.3,0,0.5v0.6c-0.9-0.4-1.8-0.6-2.9-0.6c-1,0-2,0.2-2.9,0.6l0,0.8h0
		l0-1.5C33.7,42.7,34,42,34.5,41.4z M36.7,55.6c-2.8,0-5.1-2.3-5.1-5.1c0-2.8,2.3-5.1,5.1-5.1s5.1,2.3,5.1,5.1
		C41.8,53.3,39.5,55.6,36.7,55.6z"/>
</g>
</svg>
