<?xml version="1.0" encoding="utf-8"?>
<!-- Generator: Adobe Illustrator 21.0.2, SVG Export Plug-In . SVG Version: 6.00 Build 0)  -->
<svg version="1.1" id="Layer_1" xmlns="http://www.w3.org/2000/svg" xmlns:xlink="http://www.w3.org/1999/xlink" x="0px" y="0px"
	 viewBox="0 0 74 74" style="enable-background:new 0 0 74 74;" xml:space="preserve">
<style type="text/css">
	.st0{fill:#006FAF;}
</style>
<title>digital-transformation</title>
<path class="st0" d="M37,74C16.6,74,0,57.4,0,37C0,16.6,16.6,0,37,0c20.4,0,37,16.6,37,37C74,57.4,57.4,74,37,74z M37,2
	C17.7,2,2,17.7,2,37s15.7,35,35,35s35-15.7,35-35S56.3,2,37,2z"/>
<g id="Layer_1_3_">
	<g id="Layer_1_1_">
	</g>
	<g id="Layer_1_2_">
	</g>
</g>
<path class="st0" d="M36.4,45.7h-7c-0.6,0-1.2,0.5-1.2,1.2v4.6c0,0.6,0.5,1.2,1.2,1.2h2.3v1.2H31c-0.2,0-0.4,0.2-0.4,0.4v0.4
	c0,0.2,0.2,0.4,0.4,0.4h3.9c0.2,0,0.4-0.2,0.4-0.4v-0.4c0-0.2-0.2-0.4-0.4-0.4h-0.8v-1.2h2.3c0.6,0,1.2-0.5,1.2-1.2v-4.6
	C37.6,46.2,37.1,45.7,36.4,45.7z M36.4,51.2c0,0.2-0.2,0.4-0.4,0.4h-6.2c-0.2,0-0.4-0.2-0.4-0.4v-3.9c0-0.2,0.2-0.4,0.4-0.4h6.2
	c0.2,0,0.4,0.2,0.4,0.4V51.2z M53.8,35.3H48c-0.6,0-1.2,0.5-1.2,1.2v7c0,0.6,0.5,1.2,1.2,1.2h5.8c0.6,0,1.2-0.5,1.2-1.2v-7
	C55,35.8,54.5,35.3,53.8,35.3z M53.8,43c0,0.2-0.2,0.4-0.4,0.4h-5.1c-0.2,0-0.4-0.2-0.4-0.4v-6.2c0-0.2,0.2-0.4,0.4-0.4h5.1
	c0.2,0,0.4,0.2,0.4,0.4V43z M40.4,24.8h-0.5v-4.6c0-0.6-0.5-1.2-1.2-1.2h-7c-0.6,0-1.2,0.5-1.2,1.2v4.6h-0.5c-0.3,0-0.6,0.3-0.6,0.6
	v1.1c0,0.3,0.3,0.6,0.6,0.6h10.4c0.3,0,0.6-0.3,0.6-0.6v-1.1C41.1,25.1,40.8,24.8,40.4,24.8z M38.7,24.8h-7v-4.3
	c0-0.2,0.2-0.4,0.4-0.4h6.2c0.2,0,0.4,0.2,0.4,0.4V24.8z M22.5,36.4h-2.3c-0.6,0-1.2,0.5-1.2,1.2v4.6c0,0.6,0.5,1.2,1.2,1.2h2.3
	c0.6,0,1.2-0.5,1.2-1.2v-4.6C23.6,36.9,23.1,36.4,22.5,36.4z M22.5,41.9c0,0.2-0.2,0.4-0.4,0.4h-1.6c-0.2,0-0.4-0.2-0.4-0.4v-3.9
	c0-0.2,0.2-0.4,0.4-0.4h1.6c0.2,0,0.4,0.2,0.4,0.4V41.9z M42.2,38.2c0,1.6-1.3,2.9-2.9,2.9h-8.7c-1.3,0-2.3-1-2.3-2.3
	c0-0.9,0.5-1.6,1.2-2c0-0.1,0-0.2,0-0.3c0-1.3,1-2.3,2.3-2.3c0.1,0,0.3,0,0.4,0c0.6-1.4,2-2.4,3.7-2.4c2.1,0,3.8,1.5,4,3.5
	C41.2,35.6,42.2,36.7,42.2,38.2z M42.2,43.4h-2.3c-0.6,0-1.2,0.5-1.2,1.2v9.3c0,0.6,0.5,1.2,1.2,1.2h2.3c0.6,0,1.2-0.5,1.2-1.2v-9.3
	C43.4,43.9,42.9,43.4,42.2,43.4z M42.2,46.9h-2.3v-1.2h2.3V46.9z M24.8,40.8c0,0.1,0.1,0.2,0.2,0.2h1.8c0.1,0,0.2-0.1,0.2-0.2V39
	c0-0.1-0.1-0.2-0.2-0.2H25c-0.1,0-0.2,0.1-0.2,0.2V40.8z M43.4,40.8c0,0.1,0.1,0.2,0.2,0.2h1.8c0.1,0,0.2-0.1,0.2-0.2V39
	c0-0.1-0.1-0.2-0.2-0.2h-1.8c-0.1,0-0.2,0.1-0.2,0.2V40.8z M34.1,30.4c0,0.1,0.1,0.2,0.2,0.2h1.8c0.1,0,0.2-0.1,0.2-0.2v-1.8
	c0-0.1-0.1-0.2-0.2-0.2h-1.8c-0.1,0-0.2,0.1-0.2,0.2V30.4L34.1,30.4z M34.1,44.3c0,0.1,0.1,0.2,0.2,0.2h1.8c0.1,0,0.2-0.1,0.2-0.2
	v-1.8c0-0.1-0.1-0.2-0.2-0.2h-1.8c-0.1,0-0.2,0.1-0.2,0.2V44.3L34.1,44.3z"/>
</svg>
