<?xml version="1.0" encoding="utf-8"?>
<!-- Generator: Adobe Illustrator 19.2.1, SVG Export Plug-In . SVG Version: 6.00 Build 0)  -->
<svg version="1.1" xmlns="http://www.w3.org/2000/svg" xmlns:xlink="http://www.w3.org/1999/xlink" x="0px" y="0px"
	 viewBox="0 0 74 74" style="enable-background:new 0 0 74 74;" xml:space="preserve">
<style type="text/css">
	.st0{fill:none;stroke:#006FAF;stroke-width:2;stroke-miterlimit:10;}
	.st1{fill:#006FAF;}
	.st2{fill:none;stroke:#006FAF;stroke-width:1.5;stroke-miterlimit:10;}
	.st3{fill:none;}
	.st4{fill:#006FAF;stroke:#006FAF;stroke-width:0.5;stroke-miterlimit:10;}
	.st5{fill:none;stroke:#006FAF;stroke-miterlimit:10;}
	.st6{fill:none;stroke:#006FAF;stroke-width:1.2;stroke-miterlimit:10;}
	.st7{fill:none;stroke:#006FAF;stroke-width:0.5;stroke-miterlimit:10;}
	.st8{fill:#FFFFFF;stroke:#006FAF;stroke-miterlimit:10;}
</style>
<g id="BI">
</g>
<g id="digital-business">
</g>
<g id="Intelligence_Delivery">
</g>
<g id="mouse">
</g>
<g id="BI-platfomr">
</g>
<g id="data-visul">
</g>
<g id="collaborate-report">
	<g>
		<g>
			<path class="st1" d="M45.4,53.6H22.6V20.3h25v16l-0.8-0.1c-0.1,0-0.2,0-0.3,0c-2.6,0-4.9,1.2-6.4,3.2c-1,1.4-1.6,3.1-1.6,4.9
				c0,4,3,7.4,6.9,7.9L45.4,53.6z M24,52.2h17.6c-2.6-1.7-4.4-4.7-4.4-7.9c0-2.1,0.6-4,1.9-5.7c1.7-2.3,4.3-3.6,7.2-3.8V21.7H24
				C24,21.7,24,52.2,24,52.2z"/>
		</g>
		<g>
			<rect x="26" y="24.4" class="st1" width="13.2" height="1.4"/>
		</g>
		<g>
			<rect x="26" y="27.9" class="st1" width="18.1" height="1.4"/>
		</g>
		<g>
			<rect x="26" y="31.4" class="st1" width="18.1" height="1.4"/>
		</g>
		<g>
			<rect x="26" y="34.8" class="st1" width="14.6" height="1.4"/>
		</g>
		<g>
			<path class="st1" d="M46.6,53.7c-0.5,0-0.9,0-1.3-0.1c-4.6-0.7-8.1-4.7-8.1-9.4c0-2.1,0.6-4,1.9-5.7c1.8-2.4,4.5-3.8,7.5-3.8
				c0.1,0,0.2,0,0.3,0c5.1,0.1,9,4.3,9,9.4C56,49.5,51.8,53.7,46.6,53.7z M46.7,36.2C46.6,36.2,46.6,36.2,46.7,36.2
				c-2.6,0-4.9,1.2-6.5,3.2c-1,1.4-1.6,3.1-1.6,4.9c0,4,3,7.4,6.9,7.9c0.3,0.1,0.7,0.1,1.1,0.1c4.4,0,8.1-3.6,8.1-8.1
				c0-4.4-3.4-7.8-7.7-8.1C46.8,36.2,46.7,36.2,46.7,36.2z"/>
		</g>
		<g>
			<path class="st1" d="M42.5,46.7c-1.2,0-2.2-1-2.2-2.2c0-1.2,1-2.2,2.2-2.2c1.2,0,2.2,1,2.2,2.2C44.6,45.7,43.7,46.7,42.5,46.7z
				 M42.5,43.8c-0.4,0-0.8,0.3-0.8,0.8s0.3,0.8,0.8,0.8c0.4,0,0.8-0.3,0.8-0.8S42.9,43.8,42.5,43.8z"/>
		</g>
		<g>
			<path class="st1" d="M48.6,41.9c-0.6,0-1.3-0.3-1.7-0.8c-0.3-0.3-0.5-0.8-0.5-1.3c0-1.2,1-2.2,2.2-2.2s2.2,1,2.2,2.2
				C50.8,41,49.8,41.9,48.6,41.9z M48.6,39c-0.4,0-0.8,0.3-0.8,0.8c0,0.2,0.1,0.3,0.1,0.5c0.1,0.2,0.3,0.3,0.6,0.3
				c0.4,0,0.8-0.3,0.8-0.8C49.3,39.4,49,39,48.6,39z"/>
		</g>
		<g>
			<path class="st1" d="M48.6,51c-1.2,0-2.2-1-2.2-2.2s1-2.2,2.2-2.2c1.2,0,2.2,1,2.2,2.2C50.8,50,49.8,51,48.6,51z M48.6,48
				c-0.4,0-0.8,0.3-0.8,0.8s0.3,0.8,0.8,0.8c0.4,0,0.8-0.3,0.8-0.8S49,48,48.6,48z"/>
		</g>
		<g>
			
				<rect x="43.1" y="41.4" transform="matrix(0.8032 -0.5957 0.5957 0.8032 -16.1372 35.423)" class="st1" width="4.9" height="1.4"/>
		</g>
		<g>
			
				<rect x="45" y="44.2" transform="matrix(0.5828 -0.8126 0.8126 0.5828 -18.7865 56.5213)" class="st1" width="1.4" height="4.7"/>
		</g>
	</g>
	<circle class="st0" cx="37" cy="37" r="36"/>
</g>
<g id="dataops-DB">
</g>
<g id="dataOps">
</g>
<g id="BI-DataOps">
</g>
<g id="devops-mgmt">
</g>
<g id="Layer_12">
</g>
</svg>
