<?xml version="1.0" encoding="utf-8"?>
<!-- Generator: Adobe Illustrator 21.0.0, SVG Export Plug-In . SVG Version: 6.00 Build 0)  -->
<svg version="1.1" id="Layer_1" xmlns="http://www.w3.org/2000/svg" xmlns:xlink="http://www.w3.org/1999/xlink" x="0px" y="0px"
	 viewBox="0 0 74 74" style="enable-background:new 0 0 74 74;" xml:space="preserve">
<style type="text/css">
	.st0{fill:none;stroke:#006FAF;stroke-width:2;stroke-miterlimit:10;}
	.st1{fill:#006FAF;}
</style>
<title>health-checks</title>
<circle class="st0" cx="37" cy="37" r="36"/>
<g>
	<path id="Stroke-1294" class="st0" d="M37.6,25.8c-6.5,0-11.8,5.3-11.8,11.8h-8.3c0-11.1,9-20.1,20.1-20.1V25.8L37.6,25.8z"/>
	<path id="Stroke-1296" class="st0" d="M37.6,21.7v4.2c6.5,0,11.8,5.3,11.8,11.8s-5.3,11.8-11.8,11.8s-11.8-5.3-11.8-11.8h-4.2
		c0,8.8,7.1,15.9,15.9,15.9s15.9-7.1,15.9-15.9S46.4,21.7,37.6,21.7L37.6,21.7z"/>
</g>
<path class="st1" d="M43.8,41.1c-0.8-1.2-2.7-1.8-3.4-2.1c-0.9-0.4-1.2-0.8-1.1-1.5c0-0.3,0-0.7,0.3-1c0.6-0.6,0.7-1.3,0.9-1.5
	c0.3-0.2,0.6-0.6,0.6-1.1c0-0.3-0.1-0.5-0.4-0.7c-0.1-0.1-0.1-0.2-0.2-0.2c0-0.8,0.9-2.9-0.5-2.8c-1.1-1.8-4.7-1.3-5.3,0.6
	c-0.2,0.6,0.3,1.5,0.2,2.2c0,0.1,0,0.2-0.2,0.2c-0.4,0.2-0.4,0.4-0.4,0.7c0,0.5,0.3,0.9,0.6,1.1c0.2,0.2,0.3,0.9,0.9,1.5
	c0.3,0.3,0.3,0.7,0.3,1c0,0.7-0.2,1.1-1.1,1.5c-0.8,0.3-2.6,0.9-3.4,2.1c-0.5,0.8-0.6,1.4-0.6,2.3c0,0.2,0.1,0.4,0.2,0.5
	c0.1,0.1,0.3,0.2,0.6,0.2h6h6c0.5,0,0.7-0.2,0.8-0.7C44.4,42.5,44.3,41.9,43.8,41.1L43.8,41.1z"/>
</svg>
