<?xml version="1.0" encoding="utf-8"?>
<!-- Generator: Adobe Illustrator 21.0.2, SVG Export Plug-In . SVG Version: 6.00 Build 0)  -->
<svg version="1.1" id="Layer_1" xmlns="http://www.w3.org/2000/svg" xmlns:xlink="http://www.w3.org/1999/xlink" x="0px" y="0px"
	 viewBox="0 0 74 74" style="enable-background:new 0 0 74 74;" xml:space="preserve">
<style type="text/css">
	.st0{fill:none;stroke:#006FAF;stroke-width:2;stroke-miterlimit:10;}
	.st1{fill:#006FAF;}
</style>
<title>Cloud &amp;amp; Infrastructure Services</title>
<circle class="st0" cx="37" cy="37" r="36"/>
<g>
	<path class="st1" d="M37.5,44.2c0.2,0,0.3,0.1,0.3,0.3v0.7c0,0.2-0.1,0.3-0.2,0.3l-0.4,0.2l0,0.5l0.4,4.8h-1.3l0.4-4.8l0-0.5
		l-0.4-0.2c-0.1,0-0.2-0.1-0.2-0.3v-0.7c0-0.2,0.1-0.3,0.3-0.3H37.5 M37.5,43.6h-1c-0.6,0-1,0.4-1,1v0.7c0,0.4,0.2,0.7,0.6,0.9
		l-0.4,5.6h2.8l-0.4-5.6c0.3-0.2,0.6-0.5,0.6-0.9v-0.7C38.5,44,38.1,43.6,37.5,43.6L37.5,43.6z"/>
	<path class="st1" d="M43.6,44.2c2.2,0.6,6.5,1.6,8,2.1c0.5,0.1,1.4,1.9,1.5,6.5c-0.6,0.2-1.6,0.6-3.1,0.9C47.7,54.3,43.4,55,37,55
		c-6.4,0-10.7-0.7-13.1-1.2c-1.5-0.3-2.5-0.7-3.1-0.9c0.1-4.6,1.1-6.4,1.5-6.5c1.5-0.4,6-1.5,8.1-2.1c0.1,0.3,0.1,0.5,0.2,0.8
		c1.3,5.1,2.5,8.8,4.8,8.8h2.8c1.7,0,3-1.7,4.2-5.9C43,46.5,43.4,45.2,43.6,44.2 M42.6,42.6c0,0-1.9,9.9-4.2,9.9h-2.8
		c-2,0-3.7-8.8-4.2-9.8c0,0-7.3,1.8-9.4,2.4c-2.1,0.6-2.6,5.3-2.6,8.7c0,0,4.6,2.7,17.5,2.7s17.5-2.7,17.5-2.7
		c0-3.4-0.5-8.1-2.6-8.7S42.6,42.6,42.6,42.6L42.6,42.6z"/>
	<path class="st1" d="M37,19c0.5,0,0.9,0,1.4,0.1v1.3v1l1,0.3c0.6,0.2,1.1,0.4,1.6,0.7l0.9,0.5l0.7-0.7l0.9-0.9c0.7,0.6,1.4,1.2,2,2
		l-0.9,0.9l-0.7,0.7l0.5,0.9c0.3,0.5,0.5,1.1,0.7,1.6l0.3,1h1h1.3c0.1,0.5,0.1,0.9,0.1,1.4s0,0.9-0.1,1.4h-1.3h-1l-0.3,1
		c-0.2,0.6-0.4,1.1-0.7,1.6l-0.5,0.9l0.7,0.7l0.9,0.9c-0.6,0.7-1.2,1.4-2,2l-0.9-0.9l-0.7-0.7L41,37.1c-0.5,0.3-1.1,0.5-1.6,0.7
		l-1,0.3v1v1.3c-0.5,0.1-0.9,0.1-1.4,0.1s-0.9,0-1.4-0.1V39v-1l-1-0.3c-0.6-0.2-1.1-0.4-1.6-0.7l-0.8-0.5l-0.7,0.7l-0.9,0.9
		c-0.7-0.6-1.4-1.2-2-2l0.9-0.9l0.7-0.7l-0.5-0.9c-0.3-0.5-0.5-1.1-0.7-1.6l-0.3-0.9h-1h-1.3c-0.1-0.5-0.1-0.9-0.1-1.4
		c0-0.5,0-0.9,0.1-1.4h1.3h1l0.3-1c0.2-0.6,0.4-1.1,0.7-1.6l0.5-0.9l-0.7-0.7l-0.9-0.9c0.6-0.7,1.2-1.4,2-2l0.9,0.9l0.7,0.7l0.9-0.5
		c0.5-0.3,1.1-0.5,1.6-0.7l1-0.3v-1v-1.3C36.1,19.1,36.6,19,37,19 M37,17.7c-0.9,0-1.9,0.1-2.8,0.3v2.4c-0.7,0.2-1.3,0.5-1.9,0.8
		l-1.7-1.7c-1.6,1-2.9,2.3-3.9,3.9l1.7,1.7c-0.3,0.6-0.6,1.2-0.8,1.9h-2.4c-0.2,0.9-0.3,1.8-0.3,2.8c0,0.9,0.1,1.9,0.3,2.8h2.4
		c0.2,0.7,0.5,1.3,0.8,1.9L26.8,36c1,1.6,2.3,2.9,3.9,3.9l1.7-1.7c0.6,0.3,1.2,0.6,1.9,0.8v2.4c0.9,0.2,1.8,0.3,2.8,0.3
		c0.9,0,1.9-0.1,2.8-0.3V39c0.7-0.2,1.3-0.5,1.9-0.8l1.7,1.7c1.6-1,2.9-2.3,3.9-3.9l-1.7-1.7c0.3-0.6,0.6-1.2,0.8-1.9h2.4
		c0.2-0.9,0.3-1.8,0.3-2.8c0-0.9-0.1-1.9-0.3-2.8h-2.4c-0.2-0.7-0.5-1.3-0.8-1.9l1.7-1.7c-1-1.6-2.3-2.9-3.9-3.9l-1.7,1.7
		c-0.6-0.3-1.2-0.6-1.9-0.8V18C38.9,17.8,37.9,17.7,37,17.7L37,17.7z"/>
	<path class="st1" d="M37,24.3c3,0,5.5,2.5,5.5,5.5S40,35.2,37,35.2c-3,0-5.5-2.5-5.5-5.5C31.5,26.7,34,24.3,37,24.3 M37,23.6
		c-3.4,0-6.1,2.7-6.1,6.1c0,3.4,2.7,6.1,6.1,6.1s6.1-2.7,6.1-6.1S40.4,23.6,37,23.6L37,23.6z"/>
</g>
</svg>
