<?xml version="1.0" encoding="utf-8"?>
<!-- Generator: Adobe Illustrator 21.0.2, SVG Export Plug-In . SVG Version: 6.00 Build 0)  -->
<svg version="1.1" id="Layer_1" xmlns="http://www.w3.org/2000/svg" xmlns:xlink="http://www.w3.org/1999/xlink" x="0px" y="0px"
	 viewBox="0 0 74 74" style="enable-background:new 0 0 74 74;" xml:space="preserve">
<style type="text/css">
	.st0{fill:#006FAF;}
	.st1{fill:none;stroke:#006FAF;stroke-width:2;stroke-miterlimit:10;}
</style>
<title>digital-transformation</title>
<g id="Layer_1_3_">
	<g id="Layer_1_1_">
	</g>
	<g id="Layer_1_2_">
	</g>
</g>
<path class="st0" d="M37,0C16.6,0,0,16.6,0,37c0,20.4,16.6,37,37,37c20.4,0,37-16.6,37-37C74,16.6,57.4,0,37,0z M37,72
	C17.7,72,2,56.3,2,37S17.7,2,37,2s35,15.7,35,35S56.3,72,37,72z"/>
<g>
	<path class="st0" d="M28.5,48.5c-1.7,0-3.1-1.4-3.1-3.1c0-1.7,1.4-3,3.1-3c1.7,0,3.1,1.3,3.1,3.1C31.6,47.1,30.2,48.5,28.5,48.5z"
		/>
	<path class="st0" d="M19.6,42.4c1.7,0,3.1,1.5,3.1,3.1c-0.1,1.7-1.5,3-3.2,3c-1.7,0-3-1.4-3-3.1C16.5,43.7,17.9,42.3,19.6,42.4z"/>
	<path class="st0" d="M19.6,39.6c-1.7,0-3.1-1.4-3.1-3.1c0-1.7,1.4-3.1,3.1-3.1c1.7,0,3,1.4,3.1,3C22.8,38.2,21.3,39.6,19.6,39.6z"
		/>
	<path class="st0" d="M31.6,38.1c-2.4,0-4.4-1.9-4.4-4.3c0-2.4,2-4.3,4.4-4.3c2.3,0,4.3,1.9,4.3,4.3C36,36,34,38,31.6,38.1z"/>
	<g id="Livello_73">
		<path class="st0" d="M28.7,37c-2.4-2.4-2.4-6.3,0-8.7c2.4-2.4,6.3-2.4,8.7,0c2.2,2.2,2.4,5.8,0.4,8.2l-0.9,0.9
			C34.5,39.4,31,39.3,28.7,37 M26.6,39.2c3.2,3.2,8.2,3.6,11.8,1l9.8,9.8c0.6,0.6,1.6,0.6,2.2,0c0.6-0.6,0.6-1.6,0-2.2l-9.8-9.8
			c2.6-3.6,2.2-8.6-1-11.8c-3.6-3.6-9.4-3.6-13,0C23,29.8,23,35.6,26.6,39.2"/>
	</g>
	<polygon class="st1" points="49.5,33.8 53.5,31.2 57.5,28.7 53.5,26.1 49.5,23.5 49.5,26.9 40.1,26.9 40.1,30.5 49.5,30.5 	"/>
</g>
</svg>
