<?xml version="1.0" encoding="utf-8"?>
<!-- Generator: Adobe Illustrator 21.0.2, SVG Export Plug-In . SVG Version: 6.00 Build 0)  -->
<svg version="1.1" id="Layer_1" xmlns="http://www.w3.org/2000/svg" xmlns:xlink="http://www.w3.org/1999/xlink" x="0px" y="0px"
	 viewBox="0 0 74 74" style="enable-background:new 0 0 74 74;" xml:space="preserve">
<style type="text/css">
	.st0{fill:none;stroke:#006FAF;stroke-width:2;stroke-miterlimit:10;}
	.st1{fill:#006FAF;}
</style>
<title>health-checks</title>
<circle class="st0" cx="37" cy="37" r="36"/>
<g>
	<path class="st1" d="M51.2,35.7h-1.3v-8.3c0-0.6-0.5-0.8-1.3-0.8h-9.8l3.7-4c0.3-0.3,0.4-0.5-0.1-0.9c-0.4-0.4-0.8,0-1,0.3L37,26.7
		l0,0l-4.5-4.8c-0.3-0.3-0.8-0.6-1.2-0.3c-0.4,0.4-0.3,0.8,0,1l3.9,4h-9.8c-0.8,0-1.3,0.1-1.3,0.8v8.3h-1.3c-0.8,0-1.3,0.1-1.3,0.8
		v5.2c0,0.8,0.5,1.8,1.3,1.8h1.3v7.2c0,0.8,0.5,1.8,1.3,1.8h23.3c0.8,0,1.3-1,1.3-1.8v-7.2h1.3c0.8,0,1.3-1,1.3-1.8v-5.2
		C52.5,35.9,52,35.7,51.2,35.7z M22.8,42.2V37h2.6v5.2H22.8z M47.3,49.9H26.7V29.3h20.7V49.9z M51.2,42.2h-2.6V37h2.6V42.2z"/>
	<path class="st1" d="M42.2,32.6c-1.4,0-2.6,1.2-2.6,2.6c0,1.4,1.2,2.6,2.6,2.6s2.6-1.2,2.6-2.6C44.8,33.8,43.6,32.6,42.2,32.6z
		 M42.2,36.5c-0.8,0-1.3-0.5-1.3-1.3c0-0.8,0.5-1.3,1.3-1.3c0.8,0,1.3,0.5,1.3,1.3C43.5,36,42.9,36.5,42.2,36.5z"/>
	<path class="st1" d="M31.8,37.8c1.4,0,2.6-1.2,2.6-2.6c0-1.4-1.2-2.6-2.6-2.6c-1.4,0-2.6,1.2-2.6,2.6
		C29.3,36.6,30.4,37.8,31.8,37.8z M31.8,33.9c0.8,0,1.3,0.5,1.3,1.3c0,0.8-0.5,1.3-1.3,1.3c-0.8,0-1.3-0.5-1.3-1.3
		C30.5,34.4,31.1,33.9,31.8,33.9z"/>
	<path class="st1" d="M43.5,43.5c0-0.8-0.5-1.3-1.3-1.3H31.8c-0.8,0-1.3,0.5-1.3,1.3v2.6c0,0.8,0.5,1.3,1.3,1.3h10.3
		c0.8,0,1.3-0.5,1.3-1.3V43.5z M31.8,45.5V43h2.6v2.6H31.8z M35.7,45.5V43h2.6v2.6H35.7z M42.2,45.5h-2.6V43h2.6V45.5z"/>
</g>
</svg>
