<?xml version="1.0" encoding="utf-8"?>
<!-- Generator: Adobe Illustrator 21.0.0, SVG Export Plug-In . SVG Version: 6.00 Build 0)  -->
<svg version="1.1" id="Layer_1" xmlns="http://www.w3.org/2000/svg" xmlns:xlink="http://www.w3.org/1999/xlink" x="0px" y="0px"
	 viewBox="0 0 74 74" style="enable-background:new 0 0 74 74;" xml:space="preserve">
<style type="text/css">
	.st0{fill:none;stroke:#006FAF;stroke-width:2;stroke-miterlimit:10;}
	.st1{fill:#006FAF;}
</style>
<title>health-checks</title>
<circle class="st0" cx="37" cy="37" r="36"/>
<g>
	<path class="st1" d="M39.5,20.6c-7.3,0-13.2,5.9-13.2,13.2c0,0.1,0,0.1,0,0.2l1.7,0.2c0-0.1,0-0.2,0-0.3c0-6.4,5.2-11.5,11.5-11.5
		s11.5,5.2,11.5,11.5c0,6.4-5.2,11.5-11.5,11.5c-4.4,0-8.2-2.5-10.2-6.1l-1.9-0.2c0.4,1,1,2,1.7,2.8L18.9,52.1
		c-0.6,0.6-0.6,1.7,0,2.3c0.3,0.3,0.7,0.5,1.2,0.5c0.4,0,0.8-0.2,1.2-0.5l10.2-10.2c2.2,1.7,5,2.8,8.1,2.8c7.3,0,13.2-5.9,13.2-13.2
		C52.7,26.5,46.8,20.6,39.5,20.6z"/>
	<path class="st1" d="M19.5,43.2l6.4-5.8l8.7,0.9l0.1,0c0.3,0,0.6-0.1,0.8-0.4l5.7-7.3l5.6,4.1c0.2,0.1,0.4,0.2,0.6,0.2
		c0.1,0,0.1,0,0.2,0c0.3-0.1,0.5-0.2,0.6-0.5l1.3-2.3l0-0.1c-0.1-0.8-0.4-1.5-0.7-2.2l-0.1-0.3L47,32.5l-5.4-4
		c-0.2-0.1-0.4-0.2-0.6-0.2c-0.3,0-0.6,0.1-0.8,0.4l-6,7.7l-8.6-0.9l-0.1,0c-0.2,0-0.5,0.1-0.7,0.3l-6.7,6.1c-0.4,0.4-0.4,1-0.1,1.4
		c0.2,0.2,0.4,0.3,0.7,0.3C19.1,43.4,19.3,43.4,19.5,43.2z"/>
	<path class="st1" d="M55.6,19.1c-0.1-0.1-0.3-0.1-0.5-0.1c-0.4,0-0.7,0.2-0.8,0.5l-3.1,5.5l0.1,0.1c0.4,0.5,0.7,1,1,1.5l0.1,0.2
		l3.6-6.4C56.3,19.9,56.1,19.3,55.6,19.1z"/>
</g>
</svg>
