<svg id="Layer_1" data-name="Layer 1" xmlns="http://www.w3.org/2000/svg" viewBox="0 0 74 74"><defs><style>.cls-1{fill:none;stroke:#006faf;stroke-miterlimit:10;stroke-width:2px;}.cls-2{fill:#006faf;}</style></defs><title>intelligen</title><circle class="cls-1" cx="37" cy="37" r="36"/><path class="cls-2" d="M53.7,34.77,37.34,19.58,21,34.77a.57.57,0,0,0,.78.84l1.89-1.76v19H51v-19l1.89,1.76a.57.57,0,0,0,.78-.84Zm-3.81,17H24.8V32.79L37.34,21.14,49.89,32.79Z"/><path class="cls-2" d="M28.22,39.75h8v-8h-8Zm1.14-6.84h5.7v5.7h-5.7Z"/><path class="cls-2" d="M46.47,31.77h-8v8h8Zm-1.14,6.84h-5.7v-5.7h5.7Z"/><path class="cls-2" d="M28.22,50h8V42h-8Zm1.14-6.84h5.7v5.7h-5.7Z"/><path class="cls-2" d="M46.47,42h-8v8h8Zm-1.14,6.84h-5.7v-5.7h5.7Z"/></svg>