<svg id="Layer_1" data-name="Layer 1" xmlns="http://www.w3.org/2000/svg" viewBox="0 0 74 74"><defs><style>.cls-1{fill:none;stroke:#006faf;stroke-miterlimit:10;stroke-width:2px;}.cls-2{fill:#006faf;}</style></defs><title>intelligent</title><circle class="cls-1" cx="37" cy="37" r="36"/><path class="cls-2" d="M52.69,43.71a.58.58,0,0,0-.39-.29s-3.4-.75-7.68-1.34l0-.06c-1.89-4.4-2.51-4.4-2.85-4.4s-2.42.41-4.05.76V34.14h.07a6.56,6.56,0,0,0,7.94-8.31.58.58,0,0,0-.38-.38A6.54,6.54,0,0,0,38,27.93a7.93,7.93,0,0,0-10.25-6.56.58.58,0,0,0-.38.38,7.92,7.92,0,0,0,9.17,10.14v6.74l-.59.13c-1.21-.23-3.2-.49-3.88.18L31,40l-1.61.54c-2,.65-2.62,3.53-2.69,3.88A12.84,12.84,0,0,1,24.78,43a.58.58,0,0,0-.39-.15c-1.28,0-1.74.62-1.74,1.16,0,.17,0,.48,1.22,1.89a28.71,28.71,0,0,0,2.82,2.82c2.08,1.81,5.18,4,8.12,4a25,25,0,0,0,7.57-1.23,9.43,9.43,0,0,1,2.27-.5,44.66,44.66,0,0,0,5.3-.59A.58.58,0,0,0,50.4,50l2.32-5.79A.58.58,0,0,0,52.69,43.71ZM39.56,27.88a5.39,5.39,0,0,1,5.15-1.42,5.4,5.4,0,0,1-6.09,6.66,5.7,5.7,0,0,1,1.67-1.94.58.58,0,0,0-.52-1A5.49,5.49,0,0,0,38,32,5.38,5.38,0,0,1,39.56,27.88Zm-5.64-.21A6,6,0,0,1,36,30.81h0a6.77,6.77,0,0,1-7.59-8.43,6.77,6.77,0,0,1,8.46,7.39,6.61,6.61,0,0,0-2.3-3.06.58.58,0,1,0-.64,1Zm-6.06,17c.14-.71.77-2.65,1.93-3l1.74-.58a.58.58,0,0,0,.23-.14l1.15-1.15a7.31,7.31,0,0,1,3,.15.58.58,0,0,0,.24,0c2.3-.51,4.86-1,5.53-1.13a17.88,17.88,0,0,1,1.66,3.12l-2.05-.23c-5.75-.58-9.06-.08-9.84,1.47a.94.94,0,0,0,0,.93c.48.78,2.18,1.06,6.28,1.06.58,0,.85.15.91.29a.47.47,0,0,1-.14.44,12.08,12.08,0,0,1-5.06.56A15.1,15.1,0,0,1,27.71,45,.57.57,0,0,0,27.86,44.68Zm21.59,4.58a40.47,40.47,0,0,1-4.79.52,10,10,0,0,0-2.59.55,24,24,0,0,1-7.25,1.19c-2.5,0-5.26-1.9-7.14-3.5a23.3,23.3,0,0,1-3.76-4l.28-.05a15.38,15.38,0,0,0,9.36,3.6c2.63.13,5.19-.36,5.72-.89A1.62,1.62,0,0,0,39.69,45c-.15-.37-.62-1-2-1-3.61,0-4.8-.25-5.18-.45.37-.42,1.95-1.38,8.6-.71,4.49.45,8.68,1.26,10.26,1.58Z"/></svg>