<?xml version="1.0" encoding="utf-8"?>
<!-- Generator: Adobe Illustrator 21.0.2, SVG Export Plug-In . SVG Version: 6.00 Build 0)  -->
<svg version="1.1" id="Layer_1" xmlns="http://www.w3.org/2000/svg" xmlns:xlink="http://www.w3.org/1999/xlink" x="0px" y="0px"
	 viewBox="0 0 74 74" style="enable-background:new 0 0 74 74;" xml:space="preserve">
<style type="text/css">
	.st0{fill:#006FAF;}
</style>
<title>Cloud &amp;amp; Infrastructure Services</title>
<path class="st0" d="M37,74C16.6,74,0,57.4,0,37C0,16.6,16.6,0,37,0c20.4,0,37,16.6,37,37C74,57.4,57.4,74,37,74z M37,2
	C17.7,2,2,17.7,2,37s15.7,35,35,35s35-15.7,35-35S56.3,2,37,2z"/>
<g>
	<circle class="st0" cx="35.7" cy="46.3" r="0.9"/>
	<circle class="st0" cx="38.3" cy="46.3" r="0.9"/>
	<circle class="st0" cx="33" cy="46.3" r="0.9"/>
	<path class="st0" d="M42.3,51.9c0.5,0,0.9-0.4,0.9-0.9v-9.3c0-0.5-0.4-0.9-0.9-0.9l-13.3,0c0,0-0.1,0-0.1,0s-0.1,0-0.2,0
		c-0.4,0.1-0.6,0.5-0.6,0.9V51c0,0.5,0.4,0.9,0.9,0.9h1.8l0,1.8c0,0.5,0.5,0.8,0.9,0.8c0.2,0,0.4-0.1,0.5-0.2l2.9-2.5H42.3z
		 M34.3,50.3l-1.8,1.5V51c0-0.5-0.4-0.9-0.9-0.9h-1.8v-7.6h11.6v7.6h-6.6C34.7,50.1,34.5,50.2,34.3,50.3z"/>
	<path class="st0" d="M53,32.8c0-0.2,0-0.5,0-0.6c-0.2-5.5-3.2-10.6-8-13.3c-2.4-1.4-5.2-2.1-8-2.1s-5.6,0.7-8,2.1
		c-4.8,2.8-7.9,7.9-8,13.5c0,0.1,0,1.6,0,1.6l-1.4,0l-0.1,0c-0.4,0.1-0.7,0.5-0.7,0.9v5.7c0,0.5,0.4,0.9,0.9,0.9h2.2
		c0.9,0,1.7-0.3,2.2-0.8c0.2-0.2,0.4-0.4,0.5-0.7h0.9c1.3,0,2.3-1,2.3-2.3c0-1.3-1-2.3-2.3-2.3h-1c-0.1-0.2-0.2-0.4-0.4-0.6
		c-0.4-0.4-0.8-0.6-1.4-0.7l0-1.2c0,0,0-0.4,0-0.4h0c0.1-4.9,2.8-9.5,7.1-12c2.2-1.2,4.6-1.9,7.2-1.9c2.5,0,5,0.7,7.2,1.9
		c4.3,2.4,7,7,7.1,11.8c0,0.1,0,0.2,0,0.3c-1.8,0.2-3.2,1.7-3.2,3.5v3.3c0,1.5,1,2.9,2.5,3.4c-0.2,5.3-4,9.4-10,10.9v-0.2
		c0-0.5-0.4-0.9-0.9-0.9h-3c-0.6,0-1.1,0.3-1.5,0.8c-0.3,0.4-0.4,0.9-0.4,1.5c0,0.6,0.1,1.1,0.4,1.5c0.3,0.5,0.9,0.8,1.5,0.8h3
		c0.5,0,0.9-0.4,0.9-0.9v-0.9c6.9-1.6,11.5-6.5,11.7-12.6c1.7-0.3,2.9-1.8,2.9-3.5V36C55.2,34.6,54.3,33.4,53,32.8z M49.8,39.3V36
		c0-1,0.8-1.8,1.8-1.8c1,0,1.8,0.8,1.8,1.8v3.3c0,1-0.8,1.8-1.8,1.8C50.7,41.1,49.8,40.3,49.8,39.3z M22,35.7c0.4,0,0.7,0.1,0.9,0.3
		c0.2,0.2,0.3,0.5,0.3,1v1.4c0,0.6-0.2,0.9-0.3,1c-0.2,0.2-0.6,0.3-1,0.3h-1.3v-4l1.1,0c0.1,0,0.1,0,0.2,0S21.9,35.7,22,35.7z
		 M25.5,38.3h-0.6v-1.1h0.6c0.4,0,0.5,0.3,0.5,0.6C26,38,25.8,38.3,25.5,38.3z M36.8,54.3h2.1l0,0.2c0,0.1,0,0.2,0,0.4v0.6h-1.1
		l-0.9,0c0,0,0,0-0.1-0.1c-0.1-0.1-0.1-0.3-0.1-0.5C36.6,54.7,36.7,54.5,36.8,54.3z"/>
</g>
</svg>
