<svg id="Layer_1" data-name="Layer 1" xmlns="http://www.w3.org/2000/svg" viewBox="0 0 74 74"><defs><style>.cls-1{fill:none;stroke:#006faf;stroke-miterlimit:10;stroke-width:2px;}.cls-2{fill:#006faf;fill-rule:evenodd;}</style></defs><title>app</title><circle class="cls-1" cx="37" cy="37" r="36"/><path class="cls-2" d="M34.2,37.4H36v1.78a1,1,0,0,0,.89.89h2.67a1,1,0,0,0,.89-.89V37.4h1.78a1,1,0,0,0,.89-.89V33.84a1,1,0,0,0-.89-.89H40.44V31.18a1,1,0,0,0-.89-.89H36.87a1,1,0,0,0-.89.89V33H34.2a1,1,0,0,0-.89.89v2.67a1,1,0,0,0,.89.89Zm.89-2.67h1.78a1,1,0,0,0,.89-.89V32.07h.89v1.78a1,1,0,0,0,.89.89h1.78v.89H39.55a1,1,0,0,0-.89.89v1.78h-.89V36.51a1,1,0,0,0-.89-.89H35.09v-.89Z"/><path class="cls-2" d="M26.55,45h22.5a3.89,3.89,0,0,0,3.85-4V28.56a3.89,3.89,0,0,0-3.85-4H26.55a3.89,3.89,0,0,0-3.85,4V41a3.89,3.89,0,0,0,3.85,4ZM24.48,28.72a2.48,2.48,0,0,1,2.37-2.45H48.76a2.48,2.48,0,0,1,2.37,2.45V40.82a2.48,2.48,0,0,1-2.37,2.45H26.85a2.48,2.48,0,0,1-2.37-2.45V28.72Z"/><path class="cls-2" d="M55.28,46.59h-35c-.59,0-.89.3-.89.74a.79.79,0,0,0,.89.89h35a.79.79,0,0,0,.89-.89c0-.44-.3-.74-.89-.74Z"/></svg>