<svg id="Layer_1" data-name="Layer 1" xmlns="http://www.w3.org/2000/svg" width="74" height="74" viewBox="0 0 74 74">
  <defs>
    <style>
      .cls-1 {
        fill: none;
        stroke: #006faf;
        stroke-miterlimit: 10;
        stroke-width: 2px;
      }

      .cls-2 {
        fill: #006faf;
      }
    </style>
  </defs>
  <title>software-reengineering-saas</title>
  <circle class="cls-1" cx="37" cy="37" r="36"/>
  <g>
    <path class="cls-2" d="M55.25,40a7.39,7.39,0,0,1-1-.73,2.36,2.36,0,0,1,.16-3.87,8.78,8.78,0,0,1,.75-.5A2.32,2.32,0,0,0,56.33,32a16.8,16.8,0,0,0-1.82-4.22A2.17,2.17,0,0,0,52,26.64a10.46,10.46,0,0,1-1.36.2,2.42,2.42,0,0,1-2.72-2.6,6.4,6.4,0,0,1,.17-1.36A2.17,2.17,0,0,0,47,20.29a15.56,15.56,0,0,0-4.3-1.76,2.18,2.18,0,0,0-2.63,1.08,7.27,7.27,0,0,1-.8,1.12,2.46,2.46,0,0,1-3.6.2,6,6,0,0,1-1.08-1.3,2.19,2.19,0,0,0-2.62-1,22,22,0,0,0-3.83,1.53,2.34,2.34,0,0,0-1.39,2.87,6.06,6.06,0,0,1,.16,1.68A2.29,2.29,0,0,1,24.58,27a9.8,9.8,0,0,1-1.63-.16A2.35,2.35,0,0,0,20.45,28a15.17,15.17,0,0,0-1.79,4,2.41,2.41,0,0,0,1.26,3.13,5.69,5.69,0,0,1,.85.63,2.5,2.5,0,0,1,0,3.83,6.68,6.68,0,0,1-1.17.83,1.94,1.94,0,0,0-1,2.26,16.82,16.82,0,0,0,1.76,4.58,2.23,2.23,0,0,0,2.64,1.17,5.66,5.66,0,0,1,1.79-.15A2.4,2.4,0,0,1,27,50.29a5,5,0,0,1-.12,1.89,2.21,2.21,0,0,0,1.22,2.66,17.08,17.08,0,0,0,4,1.62,2.54,2.54,0,0,0,3.33-2.3c0-.39.08-.77.14-1.16a.82.82,0,0,1,.81-.77l1.48-.08h.64c1.29-.05,1.6.25,1.59,1.55a2.55,2.55,0,0,0,3.78,2.5q1.12-.47,2.23-1a6.82,6.82,0,0,0,1.56-.9,1.91,1.91,0,0,0,.74-2c-.11-.52-.24-1-.29-1.56a2.53,2.53,0,0,1,2.65-2.93A5.54,5.54,0,0,1,52,48a2.22,2.22,0,0,0,3-1.4,21.33,21.33,0,0,0,1.4-3.77A2.23,2.23,0,0,0,55.25,40ZM40,49.78c0,.36-.25.57-.61.48a2.89,2.89,0,0,0-1.4.06,1.8,1.8,0,0,1-.84,0,2.3,2.3,0,0,0-1,0c-.47.1-.71-.15-.73-.6a2.58,2.58,0,0,1,.25-1.18.66.66,0,0,1,.7-.36c.44,0,.88,0,1.32,0h0c.41,0,.81,0,1.22,0,.72,0,1,.2,1.11.91A3.08,3.08,0,0,1,40,49.78Zm.36-5.92a1,1,0,0,0-.52,1.07c.09.94-.27,1.31-1.2,1.3H37.58s0,0,0,0c-.49,0-1,0-1.48-.06-.33,0-.56-.18-.49-.54.19-1-.41-1.59-1.2-2.08a6.56,6.56,0,0,1-3.22-4.75A6.28,6.28,0,0,1,37,31.69a6.64,6.64,0,0,1,5,1.72,6.44,6.44,0,0,1,.32,8.82A11,11,0,0,1,40.41,43.86Zm14-1.12c-.29.78-.56,1.56-.89,2.32a1.8,1.8,0,0,1-2.13,1,4.2,4.2,0,0,0-4.06,1.26A5.09,5.09,0,0,0,46.25,52c.15.71.09,1-.58,1.28-.93.43-1.88.8-2.84,1.16-.43.16-.72,0-.74-.53,0-.67,0-1.34,0-2.22a18.86,18.86,0,0,0-.21-3,6.48,6.48,0,0,1,2-5.41A7.16,7.16,0,0,0,46,37.85a8.48,8.48,0,0,0-8.66-8.22,8.22,8.22,0,0,0-8,6.75,7.91,7.91,0,0,0,2.79,7.74c.25.22.52.42.77.64a2.16,2.16,0,0,1,.75,1.89c-.16,2-.17,4.1-.18,6.15,0,.3,0,.6,0,.9-.05.84-.45,1.12-1.23.81s-1.43-.6-2.13-.94a1.5,1.5,0,0,1-1-1.93c.83-3.33-2.57-6.22-5.65-5.43-1,.25-1.35,0-1.76-1-.19-.46-.38-.92-.6-1.36-.6-1.2-.49-1.7.6-2.47a4.25,4.25,0,0,0,1.93-4,4.61,4.61,0,0,0-2.07-3.6c-1.05-.72-1.13-1-.63-2.2.19-.44.36-.88.51-1.34A1.66,1.66,0,0,1,23.52,29a4.46,4.46,0,0,0,5.34-3.74,5.07,5.07,0,0,0-.1-1.79c-.19-1.1,0-1.37,1-1.79a7.48,7.48,0,0,0,1-.54c1.27-.76,2-.66,2.94.51a4.44,4.44,0,0,0,3.75,1.94A4.32,4.32,0,0,0,41,21.73c.14-.18.26-.38.4-.56A1.15,1.15,0,0,1,43,20.71c.6.25,1.25.36,1.84.67a1.9,1.9,0,0,1,1.19,2.29c-.71,3.48,2.55,5.83,5.64,5.19,1-.22,1.25-.13,1.73.8a9.31,9.31,0,0,1,.78,1.91,1.78,1.78,0,0,1-.44,1.76,3.38,3.38,0,0,1-.54.51,4.47,4.47,0,0,0-.25,7,5.77,5.77,0,0,0,1.06.79A.83.83,0,0,1,54.44,42.74Z" transform="translate(-0.5 -0.5)"/>
    <path class="cls-2" d="M41.32,37.23a.93.93,0,0,0-1.38,0,2.56,2.56,0,0,0-.53.72,26.59,26.59,0,0,1-1.64,2.64l-.25-.37c-.65-1-1.29-1.94-1.95-2.91a.92.92,0,0,0-1.38-.25.88.88,0,0,0-.25,1.33c.87,1.35,1.74,2.7,2.62,4a4.07,4.07,0,0,0,.53.66c.57.57,1,.55,1.49-.11a44,44,0,0,0,2.92-4.61A.8.8,0,0,0,41.32,37.23Z" transform="translate(-0.5 -0.5)"/>
  </g>
</svg>
