<?xml version="1.0" encoding="utf-8"?>
<!-- Generator: Adobe Illustrator 21.0.2, SVG Export Plug-In . SVG Version: 6.00 Build 0)  -->
<svg version="1.1" id="Layer_1" xmlns="http://www.w3.org/2000/svg" xmlns:xlink="http://www.w3.org/1999/xlink" x="0px" y="0px"
	 viewBox="0 0 74 74" style="enable-background:new 0 0 74 74;" xml:space="preserve">
<style type="text/css">
	.st0{fill:none;stroke:#006FAF;stroke-width:2;stroke-miterlimit:10;}
	.st1{fill:#006FAF;}
</style>
<title>os-patch-management</title>
<g id="text">
</g>
<circle class="st0" cx="37" cy="37" r="36"/>
<g>
	<path class="st1" d="M21.1,46.8H22v2.6c0,0.3,0.2,0.6,0.4,0.6c0.1,0.1,0.2,0.1,0.3,0.1c0.2,0,0.4-0.1,0.5-0.2l3-3h19
		c0.9,0,1.6-0.7,1.6-1.6v-3.8h6c0.9,0,1.6-0.7,1.6-1.6V25.5c0-0.9-0.7-1.6-1.6-1.6H28.8c-0.9,0-1.6,0.7-1.6,1.6v3.7h-6
		c-0.9,0-1.6,0.7-1.6,1.6v14.3C19.5,46.1,20.2,46.8,21.1,46.8z M28.5,25.5c0-0.2,0.1-0.3,0.3-0.3h24.1c0.2,0,0.3,0.1,0.3,0.3v14.3
		c0,0.2-0.1,0.3-0.3,0.3h-6v-9.2c0-0.9-0.7-1.6-1.6-1.6H28.5V25.5z M20.9,30.9c0-0.2,0.1-0.3,0.3-0.3h6.7h17.4
		c0.2,0,0.3,0.1,0.3,0.3v9.9v4.4c0,0.2-0.1,0.3-0.3,0.3H26c-0.2,0-0.5,0.1-0.6,0.3l-2,2v-1.4c0-0.5-0.4-0.9-0.9-0.9h-1.4
		c-0.2,0-0.3-0.1-0.3-0.3V30.9z"/>
	<path class="st1" d="M33.4,40.1c1.3,0,2.3-1,2.3-2.3s-1-2.3-2.3-2.3s-2.3,1-2.3,2.3S32.1,40.1,33.4,40.1z"/>
	<path class="st1" d="M39.5,40.1c1.3,0,2.3-1,2.3-2.3s-1-2.3-2.3-2.3s-2.3,1-2.3,2.3S38.2,40.1,39.5,40.1z"/>
	<path class="st1" d="M27.3,40.1c1.3,0,2.3-1,2.3-2.3s-1-2.3-2.3-2.3c-1.3,0-2.4,1-2.4,2.3S26.1,40.1,27.3,40.1z"/>
</g>
</svg>
