<?xml version="1.0" encoding="utf-8"?>
<!-- Generator: Adobe Illustrator 21.0.2, SVG Export Plug-In . SVG Version: 6.00 Build 0)  -->
<svg version="1.1" id="Layer_1" xmlns="http://www.w3.org/2000/svg" xmlns:xlink="http://www.w3.org/1999/xlink" x="0px" y="0px"
	 viewBox="0 0 74 74" style="enable-background:new 0 0 74 74;" xml:space="preserve">
<style type="text/css">
	.st0{fill:none;stroke:#006FAF;stroke-width:2;stroke-miterlimit:10;}
	.st1{fill:#006FAF;}
</style>
<title>Cloud &amp;amp; Infrastructure Services</title>
<circle class="st0" cx="37" cy="37" r="36"/>
<g>
	<path class="st1" d="M50.7,35.7c0.2-0.3,0.2-0.6,0.2-0.9c0-2.7-1.7-5-4.3-5.8c-1.3-4.3-5-7.1-9.4-7.1c-4.3,0-8.2,2.8-9.4,6.9
		c-4.4,0.6-7.7,4.4-7.7,8.8c0,4.7,3.8,8.7,8.5,8.8h0.2v2.8c0,1.6,1.3,2.8,2.8,2.8h11c1.6,0,3-1.3,3-2.8v-2.8h3
		c3.1,0,5.5-2.5,5.5-5.7C54,38.6,52.7,36.5,50.7,35.7z M44.1,49.3c0,0.8-0.8,1.4-1.6,1.4h-11c-0.8,0-1.4-0.6-1.4-1.4v-2.8h14V49.3z
		 M44.1,39.7h-14v-2.8c0-0.8,0.6-1.4,1.4-1.4h11c0.9,0,1.6,0.6,1.6,1.4V39.7z M44.1,41.1V45h-14v-3.9H44.1z M48.5,45h-3v-3.9v-1.4
		v-2.8c0-1.6-1.4-2.8-3-2.8h-11c-1.6,0-2.8,1.3-2.8,2.8v2.8v1.4V45h-0.2c-3.9-0.2-7.1-3.5-7.1-7.4s3-7.1,6.8-7.4
		c0.3,0,0.6-0.2,0.6-0.5c0.9-3.8,4.4-6.3,8.2-6.3c3.9,0,7.2,2.5,8,6.5c0,0.2,0.3,0.5,0.5,0.5c2,0.5,3.6,2.4,3.6,4.6
		c0,0.3,0,0.8-0.2,1.3c-0.2,0.3,0.2,0.6,0.5,0.8c1.9,0.5,3.1,2,3.1,3.9C52.6,43.1,50.7,45,48.5,45z"/>
	<path class="st1" d="M41.4,36.7c-0.5,0-0.9,0.3-0.9,0.9c0,0.5,0.5,0.9,0.9,0.9s0.9-0.5,0.9-0.9S42,36.7,41.4,36.7z"/>
	<path class="st1" d="M41.4,44.1c0.5,0,0.9-0.5,0.9-0.9c0-0.6-0.3-0.9-0.9-0.9c-0.5,0-0.9,0.5-0.9,0.9
		C40.5,43.6,40.9,44.1,41.4,44.1z"/>
	<path class="st1" d="M41.4,49.4c0.5,0,0.9-0.3,0.9-0.9c0-0.5-0.3-0.9-0.9-0.9c-0.5,0-0.9,0.5-0.9,0.9S40.9,49.4,41.4,49.4z"/>
</g>
</svg>
