<?xml version="1.0" encoding="utf-8"?>
<!-- Generator: Adobe Illustrator 21.0.0, SVG Export Plug-In . SVG Version: 6.00 Build 0)  -->
<svg version="1.1" id="Layer_1" xmlns="http://www.w3.org/2000/svg" xmlns:xlink="http://www.w3.org/1999/xlink" x="0px" y="0px"
	 viewBox="0 0 74 74" style="enable-background:new 0 0 74 74;" xml:space="preserve">
<style type="text/css">
	.st0{fill:none;stroke:#006FAF;stroke-width:2;stroke-miterlimit:10;}
	.st1{fill:#006FAF;stroke:#006FAF;stroke-width:0.5;stroke-miterlimit:10;}
	.st2{fill:#006FAF;stroke:#006FAF;stroke-width:0.25;stroke-miterlimit:10;}
</style>
<title>Azure_Site_Recovery</title>
<circle class="st0" cx="37" cy="37" r="36"/>
<g>
	<path class="st1" d="M44.3,47.5h-1.5c-0.2,0-0.4-0.1-0.5-0.4c-0.1-0.2,0-0.5,0.1-0.6l1.1-1.1c0.2-0.2,0.2-0.4,0.2-0.6
		c0-0.2-0.1-0.4-0.2-0.6l-1.4-1.4c-0.3-0.3-0.9-0.3-1.2,0l-1.1,1.1c-0.2,0.2-0.4,0.2-0.6,0.1c-0.2-0.1-0.4-0.3-0.4-0.5V42
		c0-0.5-0.4-0.8-0.8-0.8H36c-0.5,0-0.8,0.4-0.8,0.8v1.5c0,0.2-0.1,0.4-0.4,0.5c-0.2,0.1-0.5,0-0.6-0.1l-1.1-1.1
		c-0.3-0.3-0.9-0.3-1.2,0l-1.4,1.4c-0.2,0.2-0.2,0.4-0.2,0.6c0,0.2,0.1,0.4,0.2,0.6l1.1,1.1c0.2,0.2,0.2,0.4,0.1,0.6
		c-0.1,0.2-0.3,0.4-0.5,0.4h-1.5c-0.5,0-0.8,0.4-0.8,0.8v1.9c0,0.5,0.4,0.8,0.8,0.8h1.5c0.2,0,0.4,0.1,0.5,0.4
		c0.1,0.2,0,0.5-0.1,0.6l-1.1,1.1c-0.2,0.2-0.2,0.4-0.2,0.6c0,0.2,0.1,0.4,0.2,0.6l1.4,1.4c0.3,0.3,0.9,0.3,1.2,0l1.1-1.1
		c0.2-0.2,0.4-0.2,0.6-0.1c0.2,0.1,0.4,0.3,0.4,0.5v1.5c0,0.5,0.4,0.8,0.8,0.8H38c0.5,0,0.8-0.4,0.8-0.8v-1.5c0-0.2,0.1-0.4,0.4-0.5
		c0.2-0.1,0.5,0,0.6,0.1l1.1,1.1c0.3,0.3,0.9,0.3,1.2,0l1.4-1.4c0.2-0.2,0.2-0.4,0.2-0.6c0-0.2-0.1-0.4-0.2-0.6l-1.1-1.1
		c-0.2-0.2-0.2-0.4-0.1-0.6c0.1-0.2,0.3-0.4,0.5-0.4h1.5c0.5,0,0.8-0.4,0.8-0.8v-1.9C45.1,47.9,44.8,47.5,44.3,47.5z M44.5,50.3
		c0,0.1-0.1,0.2-0.2,0.2h-1.5c-0.5,0-0.9,0.3-1.1,0.7c-0.2,0.5-0.1,0.9,0.3,1.3l1.1,1.1c0.1,0.1,0.1,0.2,0,0.3l-1.4,1.4
		c-0.1,0.1-0.2,0.1-0.3,0l-1.1-1.1c-0.3-0.3-0.8-0.4-1.3-0.3c-0.5,0.2-0.7,0.6-0.7,1.1v1.5c0,0.1-0.1,0.2-0.2,0.2H36
		c-0.1,0-0.2-0.1-0.2-0.2v-1.5c0-0.5-0.3-0.9-0.7-1.1c-0.2-0.1-0.3-0.1-0.5-0.1c-0.3,0-0.6,0.1-0.8,0.4l-1.1,1.1
		c-0.1,0.1-0.2,0.1-0.3,0L31,53.9c-0.1-0.1-0.1-0.2,0-0.3l1.1-1.1c0.3-0.3,0.4-0.8,0.3-1.3c-0.2-0.5-0.6-0.7-1.1-0.7h-1.5
		c-0.1,0-0.2-0.1-0.2-0.2v-1.9c0-0.1,0.1-0.2,0.2-0.2h1.5c0.5,0,0.9-0.3,1.1-0.7c0.2-0.5,0.1-0.9-0.3-1.3L31,45
		c-0.1-0.1-0.1-0.2,0-0.3l1.4-1.4c0.1-0.1,0.2-0.1,0.3,0l1.1,1.1c0.3,0.3,0.8,0.4,1.3,0.3c0.5-0.2,0.7-0.6,0.7-1.1V42
		c0-0.1,0.1-0.2,0.2-0.2H38c0.1,0,0.2,0.1,0.2,0.2v1.5c0,0.5,0.3,0.9,0.7,1.1c0.5,0.2,0.9,0.1,1.3-0.3l1.1-1.1
		c0.1-0.1,0.2-0.1,0.3,0l1.4,1.4c0.1,0.1,0.1,0.2,0,0.3l-1.1,1.1c-0.3,0.3-0.4,0.8-0.3,1.3c0.2,0.5,0.6,0.7,1.1,0.7h1.5
		c0.1,0,0.2,0.1,0.2,0.2V50.3z"/>
	<path class="st1" d="M37,46.6c-1.5,0-2.7,1.2-2.7,2.7S35.5,52,37,52s2.7-1.2,2.7-2.7S38.5,46.6,37,46.6z M37,51.4
		c-1.2,0-2.1-0.9-2.1-2.1c0-1.2,0.9-2.1,2.1-2.1s2.1,0.9,2.1,2.1C39.1,50.5,38.2,51.4,37,51.4z"/>
</g>
<path class="st2" d="M52.1,22.6c-0.7-2.6-5.9-5.2-15.1-5.2S22.6,20,21.9,22.6c-0.1,0.1-0.1,0.2-0.1,0.3v0.3v7v0.3v0.3v6.7v0.3V38
	v7.3c0,0.1,0,0.2,0.1,0.3c0.4,1.7,2.7,3.2,6.1,4.1c0-0.1,0-0.3,0-0.4c0-0.3,0-0.6,0-0.8c-2.9-0.8-4.8-2.1-5-3.2c0,0,0-0.1,0-0.1V40
	c0,0,0,0,0.1,0c0.1,0.1,0.3,0.2,0.4,0.3c1.4,1.1,3.8,2,7,2.6c0.4-0.4,0.8-0.7,1.3-1.1c-0.1,0-0.2,0-0.2,0c0,0,0,0,0,0
	c-2.1-0.3-3.8-0.8-5.2-1.3c0,0,0,0,0,0c-0.3-0.1-0.5-0.2-0.7-0.3c0,0-0.1,0-0.1,0c-0.2-0.1-0.4-0.2-0.6-0.3c0,0-0.1,0-0.1-0.1
	c-0.2-0.1-0.3-0.2-0.4-0.3c-0.1,0-0.1-0.1-0.2-0.1c-0.1-0.1-0.2-0.2-0.3-0.3c-0.1,0-0.1-0.1-0.2-0.1c-0.1-0.1-0.2-0.2-0.2-0.2
	c0-0.1-0.1-0.1-0.1-0.2c-0.1-0.1-0.1-0.1-0.1-0.2c0-0.1-0.1-0.1-0.1-0.2c0-0.1-0.1-0.1-0.1-0.2c0-0.1,0-0.2,0-0.3c0-0.1,0-0.1,0-0.2
	c0-0.1,0-0.2,0-0.3v-4.5c0,0,0,0,0.1,0c0.1,0.1,0.3,0.2,0.4,0.3c2.3,1.7,6.8,3.1,13.5,3.1c6.6,0,11.1-1.3,13.4-3
	c0.2-0.1,0.3-0.3,0.5-0.4l0,0v4.5c0,0.1,0,0.2,0,0.3c0,0.1,0,0.1,0,0.2c0,0.1,0,0.2,0,0.3c0,0.1,0,0.1-0.1,0.2
	c0,0.1-0.1,0.1-0.1,0.2c0,0.1-0.1,0.1-0.1,0.2c0,0.1-0.1,0.1-0.1,0.2c-0.1,0.1-0.1,0.2-0.2,0.2c0,0-0.1,0.1-0.2,0.1
	c-0.1,0.1-0.2,0.2-0.3,0.3c0,0-0.1,0.1-0.2,0.1c-0.1,0.1-0.3,0.2-0.4,0.3c0,0-0.1,0-0.1,0.1c-0.2,0.1-0.4,0.2-0.6,0.3
	c0,0-0.1,0-0.1,0c-0.2,0.1-0.5,0.2-0.7,0.3c0,0,0,0,0,0c-1.4,0.5-3.1,1-5.2,1.3c0,0,0,0,0,0c-0.1,0-0.2,0-0.2,0
	c0.4,0.3,0.9,0.7,1.2,1.1c3.2-0.5,5.6-1.5,7-2.6c0.2-0.1,0.3-0.3,0.5-0.4l0,0v5.1c0,0,0,0.1,0,0.1c-0.2,1.2-2,2.4-5,3.2
	c0,0.3,0,0.6,0,0.8c0,0.1,0,0.3,0,0.4c3.4-0.9,5.7-2.4,6.1-4.1c0-0.1,0.1-0.2,0.1-0.3V38v-0.3v-0.3v-6.7v-0.3v-0.3v-7v-0.3
	C52.2,22.8,52.1,22.7,52.1,22.6z M50.9,30c0,0.1,0,0.2,0,0.3c0,0.1,0,0.1,0,0.2c0,0.1,0,0.2,0,0.3c0,0.1,0,0.1-0.1,0.2
	c0,0.1-0.1,0.1-0.1,0.2c0,0.1-0.1,0.1-0.1,0.2c0,0.1-0.1,0.1-0.1,0.2c-0.1,0.1-0.1,0.2-0.2,0.2c0,0-0.1,0.1-0.2,0.1
	c-0.1,0.1-0.2,0.2-0.3,0.3c0,0-0.1,0.1-0.2,0.1c-0.1,0.1-0.3,0.2-0.4,0.3c0,0-0.1,0-0.1,0.1c-0.2,0.1-0.4,0.2-0.6,0.3
	c0,0-0.1,0-0.1,0c-0.2,0.1-0.5,0.2-0.7,0.3c0,0,0,0,0,0c-1.4,0.5-3.1,1-5.2,1.3c0,0,0,0,0,0c-0.4,0.1-0.8,0.1-1.2,0.2
	c-0.1,0-0.1,0-0.2,0c-0.4,0-0.7,0.1-1.1,0.1c-0.2,0-0.4,0-0.5,0c-0.3,0-0.6,0-0.9,0c-0.5,0-1,0-1.5,0c-0.5,0-1,0-1.5,0
	c-0.3,0-0.6,0-0.9,0c-0.2,0-0.4,0-0.5,0c-0.4,0-0.8-0.1-1.1-0.1c-0.1,0-0.1,0-0.2,0c-0.4,0-0.8-0.1-1.2-0.2c0,0,0,0,0,0
	c-2.1-0.3-3.8-0.8-5.2-1.3c0,0,0,0,0,0c-0.3-0.1-0.5-0.2-0.7-0.3c0,0-0.1,0-0.1,0c-0.2-0.1-0.4-0.2-0.6-0.3c0,0-0.1,0-0.1-0.1
	c-0.2-0.1-0.3-0.2-0.4-0.3c-0.1,0-0.1-0.1-0.2-0.1c-0.1-0.1-0.2-0.2-0.3-0.3c-0.1,0-0.1-0.1-0.2-0.1c-0.1-0.1-0.2-0.2-0.2-0.2
	c0-0.1-0.1-0.1-0.1-0.2c-0.1-0.1-0.1-0.1-0.1-0.2c0-0.1-0.1-0.1-0.1-0.2c0-0.1-0.1-0.1-0.1-0.2c0-0.1,0-0.2,0-0.3c0-0.1,0-0.1,0-0.2
	c0-0.1,0-0.2,0-0.3v-4.5c0.1,0.1,0.2,0.1,0.2,0.2c0,0,0.1,0.1,0.1,0.1c0.2,0.1,0.4,0.3,0.6,0.4c0,0,0.1,0.1,0.1,0.1
	c0.2,0.1,0.4,0.2,0.6,0.3c0.1,0,0.1,0.1,0.2,0.1c0.2,0.1,0.5,0.2,0.7,0.3c0,0,0.1,0,0.1,0.1c0.3,0.1,0.6,0.2,0.9,0.3
	c0.1,0,0.2,0.1,0.3,0.1c0.2,0.1,0.5,0.2,0.8,0.2c0.1,0,0.2,0.1,0.3,0.1c0.4,0.1,0.7,0.2,1.1,0.3c0.1,0,0.1,0,0.2,0
	c0.3,0.1,0.7,0.1,1.1,0.2c0.1,0,0.2,0,0.4,0.1c0.3,0.1,0.7,0.1,1.1,0.2c0.1,0,0.2,0,0.3,0c0.5,0.1,0.9,0.1,1.4,0.1
	c0.1,0,0.2,0,0.4,0c0.4,0,0.8,0.1,1.2,0.1c0.1,0,0.3,0,0.4,0c0.5,0,1.1,0,1.6,0c0.6,0,1.1,0,1.6,0c0.1,0,0.3,0,0.4,0
	c0.4,0,0.8,0,1.2-0.1c0.1,0,0.2,0,0.4,0c0.5,0,0.9-0.1,1.4-0.1c0.1,0,0.2,0,0.3,0c0.4,0,0.7-0.1,1.1-0.2c0.1,0,0.2,0,0.4-0.1
	c0.4-0.1,0.7-0.1,1.1-0.2c0.1,0,0.1,0,0.2,0c0.4-0.1,0.8-0.2,1.1-0.3c0.1,0,0.2-0.1,0.3-0.1c0.3-0.1,0.5-0.2,0.8-0.2
	c0.1,0,0.2-0.1,0.3-0.1c0.3-0.1,0.6-0.2,0.9-0.3c0,0,0.1,0,0.1-0.1c0.2-0.1,0.5-0.2,0.7-0.3c0.1,0,0.1-0.1,0.2-0.1
	c0.2-0.1,0.4-0.2,0.6-0.3c0,0,0.1-0.1,0.1-0.1c0.2-0.1,0.4-0.3,0.6-0.4c0,0,0.1-0.1,0.1-0.1c0.1-0.1,0.2-0.1,0.2-0.2V30z M37,27.7
	c-8.2,0-13.9-2.4-13.9-4.5c0-2.2,5.7-4.5,13.9-4.5c8.2,0,13.9,2.4,13.9,4.5C50.9,25.3,45.2,27.7,37,27.7z"/>
</svg>
