<?xml version="1.0" encoding="utf-8"?>
<!-- Generator: Adobe Illustrator 21.0.2, SVG Export Plug-In . SVG Version: 6.00 Build 0)  -->
<svg version="1.1" id="Layer_1" xmlns="http://www.w3.org/2000/svg" xmlns:xlink="http://www.w3.org/1999/xlink" x="0px" y="0px"
	 viewBox="0 0 74 74" style="enable-background:new 0 0 74 74;" xml:space="preserve">
<style type="text/css">
	.st0{fill:#006FAF;}
	.st1{fill:none;stroke:#006FAF;stroke-width:2;stroke-miterlimit:10;}
	.st2{fill:#006FAF;stroke:#006FAF;stroke-miterlimit:10;}
</style>
<title>health-checks</title>
<path class="st0" d="M37,0C16.6,0,0,16.6,0,37s16.6,37,37,37s37-16.6,37-37S57.4,0,37,0z M37,72C17.7,72,2,56.3,2,37S17.7,2,37,2
	s35,15.7,35,35S56.3,72,37,72z"/>
<g>
	<path class="st1" d="M36,32.5c0.2-0.2,0.6-0.5,0.9-0.6c0.9-0.6,2.1-0.9,3.3-0.9c3.5,0,6.3,2.8,6.3,6.3c0,3.5-2.8,6.3-6.3,6.3
		c-3.5,0-6.3-2.8-6.3-6.3"/>
	<path class="st2" d="M29.8,34.9c3.6-2,6.9-3.8,12.2,0.5l0.5-0.6c-5.7-4.6-9.5-2.5-13.1-0.5c-3.2,1.7-6.2,3.4-10.5,0.4l-0.5,0.6
		c1.9,1.3,3.6,1.8,5.1,1.8C25.8,37.1,27.8,36,29.8,34.9z"/>
	<path class="st2" d="M28.8,37.6c3.6-1.9,6.9-3.7,12.1,0.4l0.5-0.6c-5.6-4.4-9.3-2.5-13-0.5c-3.2,1.7-6.2,3.4-10.7,0.3l-0.5,0.6
		c1.9,1.3,3.6,1.8,5.2,1.8C24.8,39.8,26.8,38.7,28.8,37.6z"/>
	<path class="st2" d="M39.7,40.6l0.6-0.6c-4.9-4.8-8.8-2.8-12.5-0.7c-3.5,1.9-6.7,3.6-11.2,0.6l-0.5,0.6c1.9,1.3,3.6,1.8,5.2,1.8
		c2.5,0,4.7-1.2,6.8-2.3C31.8,38.1,35.2,36.3,39.7,40.6z"/>
	<path class="st1" d="M23.3,43.1c0.3,0.9,0.7,1.9,1.1,2.8c0.1,0.2,0.5,0.8,0.5,0.8l0.8-0.5c3.2-2.1,6.9,2.3,4.9,4.8l-0.5,0.8
		l0.8,0.5c1.3,0.8,2.8,1.3,4.4,1.8l1,0.2l0.2-0.8c0.6-2.7,3.1-2.6,4-2.6c1,0,1.7,0.6,2.3,1.3c0.2,0.2,0.5,0.8,0.5,1.3l0.2,1l1-0.2
		c1.5-0.2,2.8-1,4.3-1.8l0.8-0.5l-0.5-0.8c-0.5-0.8-0.5-1.5-0.5-2.1c0-1,0.6-1.7,1.3-2.3c1.6-1.3,3.6-0.6,4-0.3l0.8,0.5l0.5-0.8
		c0.8-1.3,1.3-2.8,1.8-4.4l0.2-1l-0.8-0.2c-3.2-0.6-3.2-5-1-6.2c0.3-0.2,2.3-0.7,2.3-0.7l-0.2-1c-0.5-1.5-1-2.8-1.8-4.4l-0.5-0.8
		c0,0-0.6,0.4-0.8,0.5c-4,2.1-6.1-0.4-5.9-2.6c0-0.7,0.6-2,0.8-2.5l0.5-0.8l-0.8-0.5c-1.3-0.8-2.8-1.3-4.4-1.8l-0.9-0.2
		c0,0-0.2,0.8-0.2,1c-0.2,0.8-0.9,1.4-1.3,1.8c-0.7,0.6-1.8,0.8-2.8,0.8c-1,0-2.3-0.6-3-2.5c-0.1-0.2-0.3-1.1-0.3-1.1l-1,0.2
		c-1.5,0.5-2.8,1-4.3,1.8l-0.8,0.5l0.5,0.8c0.5,0.8,0.5,1.5,0.5,2.1C30.8,27,29,28.2,27,28c-0.5,0-0.8-0.2-1.3-0.5L25,27
		c0,0-1.5,4-2.1,5.6c-0.1,0.2-0.2,0.8-0.2,0.8l1,0.2c0.8,0.2,1.5,0.5,1.8,1.3"/>
</g>
</svg>
