<?xml version="1.0" encoding="utf-8"?>
<!-- Generator: Adobe Illustrator 21.0.2, SVG Export Plug-In . SVG Version: 6.00 Build 0)  -->
<svg version="1.1" id="Layer_1" xmlns="http://www.w3.org/2000/svg" xmlns:xlink="http://www.w3.org/1999/xlink" x="0px" y="0px"
	 viewBox="0 0 74 74" style="enable-background:new 0 0 74 74;" xml:space="preserve">
<style type="text/css">
	.st0{fill:none;stroke:#006FAF;stroke-width:2;stroke-miterlimit:10;}
	.st1{fill:#006FAF;}
</style>
<title>Cloud &amp;amp; Infrastructure Services</title>
<circle class="st0" cx="37" cy="37" r="36"/>
<g>
	<path class="st1" d="M50.4,34.5h-5.2c-0.9,0-1.6,0.7-1.6,1.6v11c0,0.5,0.4,1,1,1h2.9v4.5c0,0.3-0.3,0.6-0.6,0.6h-9.1v-2.5h2.6
		c0.5,0,1-0.4,1-1v-11c0-0.9-0.7-1.6-1.6-1.6h-5.2c-0.9,0-1.6,0.7-1.6,1.6v11c0,0.5,0.4,1,1,1h2.6v2.5h-8.5c-0.3,0-0.6-0.3-0.6-0.6
		v-4.5h2.2c0.5,0,1-0.4,1-1v-11c0-0.9-0.7-1.6-1.6-1.6h-5.2c-0.9,0-1.6,0.7-1.6,1.6v11c0,0.5,0.4,1,1,1h2.9v4.5c0,1.1,0.9,2,2,2h19
		c1.1,0,2-0.9,2-2v-4.5H51c0.5,0,1-0.4,1-1v-11C52,35.2,51.3,34.5,50.4,34.5z M44.9,36.1c0-0.2,0.1-0.3,0.3-0.3h5.2
		c0.2,0,0.3,0.1,0.3,0.3v10.6h-5.8V36.1z M34.4,38.4h5.2c0.2,0,0.3,0.1,0.3,0.3v10.6h-5.8V38.7C34.1,38.6,34.2,38.4,34.4,38.4z
		 M23.3,36.1c0-0.2,0.1-0.3,0.3-0.3h5.2c0.2,0,0.3,0.1,0.3,0.3v10.6h-5.8V36.1z"/>
	<rect x="24.1" y="36.8" class="st1" width="4.3" height="0.5"/>
	<rect x="24.1" y="39.4" class="st1" width="4.3" height="0.5"/>
	<rect x="27.5" y="44.5" class="st1" width="0.6" height="1.3"/>
	<rect x="24.1" y="42" class="st1" width="4.3" height="0.5"/>
	<rect x="45.6" y="36.8" class="st1" width="4.3" height="0.5"/>
	<rect x="45.6" y="39.4" class="st1" width="4.3" height="0.5"/>
	<rect x="49.1" y="44.5" class="st1" width="0.6" height="1.3"/>
	<rect x="45.6" y="42" class="st1" width="4.3" height="0.5"/>
	<rect x="34.8" y="39.4" class="st1" width="4.3" height="0.5"/>
	<rect x="34.8" y="42" class="st1" width="4.3" height="0.5"/>
	<rect x="38.3" y="47.1" class="st1" width="0.6" height="1.3"/>
	<rect x="34.8" y="44.6" class="st1" width="4.3" height="0.5"/>
	<path class="st1" d="M49,28.7c-0.2-5.2-4.5-9.3-9.7-9.3c-3.6,0-6.8,1.9-8.5,5.1c-0.6-0.3-1.3-0.4-2-0.4c-2.7,0-4.9,2.1-5,4.8
		c-3.4,0.7-5.8,3.7-5.8,7.2c0,2.1,0.9,4.1,2.5,5.5l0.7,0.6V40L21,39.9c-0.9-1.1-1.5-2.4-1.5-3.8c0-2.8,2-5.3,4.9-5.7l1.1-0.2
		l-0.1-1.1c0-1.9,1.6-3.5,3.5-3.5c0.5,0,1.1,0.1,1.6,0.4l1.1,0.6l0.5-1.1c1.4-2.8,4.2-4.6,7.3-4.6c4.5,0,8.1,3.7,8.1,8.1v1.2h1.2
		c3.2,0,5.8,2.6,5.8,5.8c0,1.4-0.5,2.8-1.5,3.8L52.9,40v2.1l0.7-0.6c1.6-1.4,2.5-3.4,2.5-5.5C56,32.2,52.9,28.9,49,28.7z"/>
</g>
</svg>
