<?xml version="1.0" encoding="utf-8"?>
<!-- Generator: Adobe Illustrator 21.0.0, SVG Export Plug-In . SVG Version: 6.00 Build 0)  -->
<svg version="1.1" id="Layer_1" xmlns="http://www.w3.org/2000/svg" xmlns:xlink="http://www.w3.org/1999/xlink" x="0px" y="0px"
	 viewBox="0 0 74 74" style="enable-background:new 0 0 74 74;" xml:space="preserve">
<style type="text/css">
	.st0{fill:none;stroke:#006FAF;stroke-width:2;stroke-miterlimit:10;}
	.st1{fill-rule:evenodd;clip-rule:evenodd;fill:#006FAF;}
	.st2{fill:#006FAF;}
</style>
<title>os-patch-management</title>
<g id="text">
</g>
<g>
	<circle class="st0" cx="37" cy="37" r="36"/>
	<g>
		<path class="st1" d="M24.3,45.8c4.1,0,8.1,0,12.2,0c4,0,8.1,0,12.2,0c2.3,0,3.8-1.4,3.8-3.8c0-5.5,0-10.8,0-16.3
			c0-2.6-1.3-3.8-3.8-3.8c-8.1,0-16.4,0-24.4,0c-2.5,0-3.8,1.4-3.8,3.9c0,5.3,0,10.6,0,15.9C20.5,44.4,21.8,45.8,24.3,45.8z
			 M22.5,26.1c0-1.7,0.3-2.1,2.1-2.1c7.9,0,15.9,0,23.8,0c1.8,0,2.1,0.3,2.1,2.2c0,5.1,0,10.1,0,15.2c0,1.9-0.3,2.2-2.1,2.2
			c-4,0-7.9,0-11.9,0s-7.9,0-11.9,0c-1.8,0-2.1-0.3-2.1-2.1C22.5,36.5,22.5,31.2,22.5,26.1z"/>
		<path class="st1" d="M57,50.7c0-0.5-0.3-0.9-1-0.9c-0.3,0-0.5,0-0.8,0c-6.1,0-12.1,0-18.2,0c-5.9,0-12.1,0-18,0
			c-0.8,0-2.1-0.4-2,1.1c0,1.3,1.2,1.1,2,1.1c11.9,0,23.9,0,35.8,0c0.5,0,0.8,0,1.3-0.2C56.6,51.8,57.1,51.4,57,50.7z"/>
	</g>
	<g>
		<path class="st2" d="M38.7,36.6c0-0.1,0-0.2,0-0.3l-0.6-1c0.1-0.1,0.2-0.2,0.3-0.3l1,0.6c0.1,0,0.2,0,0.3,0c0.1,0,0.2-0.1,0.2-0.2
			l0.7-1.2c0.1-0.1,0-0.3-0.1-0.4l-1-0.6c0-0.1,0.1-0.3,0.1-0.4h1.1c0.2,0,0.3-0.1,0.3-0.3c0,0,0,0,0,0v-1.3c0-0.2-0.1-0.3-0.3-0.3
			h-1.1c0-0.1-0.1-0.3-0.1-0.4l1-0.6c0.2-0.1,0.2-0.3,0.1-0.5l-0.7-1.2c0-0.1-0.1-0.1-0.2-0.1c-0.1,0-0.2,0-0.3,0l-1,0.6
			c-0.1-0.1-0.2-0.2-0.3-0.3l0.6-1c0.1-0.2,0-0.4-0.1-0.5l-1.2-0.7c-0.1,0-0.2,0-0.3,0c-0.1,0-0.2,0.1-0.2,0.2l-0.6,0.9
			c-0.1,0-0.3-0.1-0.4-0.1v-1.1c0-0.2-0.1-0.3-0.3-0.3h-1.3c-0.2,0-0.3,0.1-0.3,0.3v1.1c-0.1,0-0.3,0.1-0.4,0.1l-0.6-1
			c0-0.1-0.1-0.1-0.2-0.2c-0.1,0-0.2,0-0.3,0L31.4,27c-0.2,0.1-0.2,0.3-0.1,0.5l0.5,1c-0.1,0.1-0.2,0.2-0.3,0.3l-1-0.6
			c-0.1,0-0.2-0.1-0.3,0c-0.1,0-0.2,0.1-0.2,0.2l-0.7,1.2c-0.1,0.2,0,0.3,0.1,0.4l1,0.6c0,0.1-0.1,0.3-0.1,0.4h-1.1
			c-0.2,0-0.3,0.1-0.3,0.3v1.3c0,0.2,0.1,0.3,0.3,0.3h1.1c0,0.1,0.1,0.3,0.1,0.4l-1,0.6c-0.2,0.1-0.2,0.3-0.1,0.5l0.7,1.2
			c0,0.1,0.1,0.1,0.2,0.2c0.1,0,0.2,0,0.3,0l1-0.6c0.1,0.1,0.2,0.2,0.3,0.2l-0.6,1c-0.1,0.2,0,0.4,0.1,0.5l1.2,0.7
			c0.1,0,0.2,0,0.3,0c0.1,0,0.1-0.1,0.2-0.1l0.6-1c0.1,0,0.3,0.1,0.4,0.1v1.1c0,0.2,0.1,0.3,0.3,0.3c0,0,0,0,0,0h1.3
			c0.2,0,0.3-0.1,0.3-0.3v-1.1c0.1,0,0.3-0.1,0.4-0.1l0.6,1c0,0.1,0.1,0.1,0.2,0.2c0.1,0,0.2,0,0.3,0l1.2-0.7
			C38.7,36.7,38.7,36.6,38.7,36.6z M37.4,35.4L37.4,35.4l0.5,0.9l-0.6,0.3l-0.5-0.9c-0.1-0.1-0.3-0.2-0.4-0.1
			c-0.3,0.1-0.5,0.2-0.8,0.2c-0.2,0-0.3,0.2-0.3,0.3v1.1h-0.7v-1.1c0-0.2-0.1-0.3-0.3-0.3c-0.3,0-0.6-0.1-0.8-0.2
			c-0.2-0.1-0.3,0-0.4,0.1l-0.5,0.9L32,36.3l0.5-0.9c0.1-0.1,0-0.3-0.1-0.4c-0.2-0.2-0.4-0.4-0.6-0.6c-0.1-0.1-0.3-0.2-0.4-0.1
			l-0.9,0.5l-0.3-0.6l0.9-0.5c0.1-0.1,0.2-0.3,0.1-0.4c-0.1-0.3-0.2-0.5-0.2-0.8c0-0.2-0.2-0.3-0.3-0.3h-1.1v-0.7h1.1
			c0.2,0,0.3-0.1,0.3-0.3c0-0.3,0.1-0.6,0.2-0.8c0.1-0.2,0-0.3-0.1-0.4l-0.9-0.5l0.3-0.6l0.9,0.5c0.1,0.1,0.3,0,0.4-0.1
			c0.2-0.2,0.4-0.4,0.6-0.6c0.1-0.1,0.2-0.3,0.1-0.4L32,27.4l0.6-0.3l0.5,0.9c0.1,0.1,0.3,0.2,0.4,0.1c0.3-0.1,0.5-0.2,0.8-0.2
			c0.2,0,0.3-0.2,0.3-0.3v-1.1h0.7v1.1c0,0.2,0.1,0.3,0.3,0.3c0.3,0,0.6,0.1,0.8,0.2c0.2,0.1,0.3,0,0.4-0.1l0.5-0.9l0.6,0.3
			l-0.5,0.9c-0.1,0.1,0,0.3,0.1,0.4c0.2,0.2,0.4,0.4,0.6,0.6c0.1,0.1,0.3,0.2,0.4,0.1l0.9-0.5l0.3,0.6L38.9,30
			c-0.1,0.1-0.2,0.3-0.1,0.4c0.1,0.3,0.2,0.5,0.2,0.8c0,0.2,0.2,0.3,0.3,0.3h1.1v0.7h-1.1c-0.2,0-0.3,0.1-0.3,0.3
			c0,0.3-0.1,0.6-0.2,0.8c-0.1,0.2,0,0.3,0.1,0.4l0.9,0.5l-0.3,0.6l-0.9-0.5c-0.1-0.1-0.3,0-0.4,0.1c-0.2,0.2-0.4,0.4-0.6,0.6
			C37.4,35.1,37.3,35.3,37.4,35.4z"/>
		<path class="st2" d="M35,29.2c-1.5,0-2.7,1.2-2.7,2.7c0,1.5,1.2,2.7,2.7,2.7c1.5,0,2.7-1.2,2.7-2.7C37.7,30.4,36.5,29.2,35,29.2z
			 M35,33.9c-1.1,0-2-0.9-2-2c0-1.1,0.9-2,2-2c1.1,0,2,0.9,2,2C37,33,36.1,33.9,35,33.9z"/>
		<path class="st2" d="M45,39.2v-1.3c0-0.2-0.1-0.3-0.3-0.3h-0.5l0.4-0.4c0.1-0.1,0.1-0.3,0-0.5c0,0,0,0,0,0l-0.9-0.9
			c-0.1-0.1-0.3-0.1-0.5,0l-0.4,0.4v-0.6c0-0.2-0.1-0.3-0.3-0.3c0,0,0,0,0,0H41c-0.2,0-0.3,0.1-0.3,0.3v0.5l-0.4-0.4
			c-0.1-0.1-0.3-0.1-0.5,0c0,0,0,0,0,0l-0.9,0.9c-0.1,0.1-0.1,0.3,0,0.5c0,0,0,0,0,0l0.4,0.4h-0.6c-0.2,0-0.3,0.1-0.3,0.3v1.3
			c0,0.2,0.1,0.3,0.3,0.3h0.5l-0.4,0.4c-0.1,0.1-0.1,0.3,0,0.5c0,0,0,0,0,0l0.9,0.9c0.1,0.1,0.3,0.1,0.5,0l0.4-0.4v0.6
			c0,0.2,0.1,0.3,0.3,0.3h1.3c0.2,0,0.3-0.1,0.3-0.3V41l0.4,0.4c0.1,0.1,0.3,0.1,0.5,0c0,0,0,0,0,0l0.9-0.9c0.1-0.1,0.1-0.3,0-0.5
			c0,0,0,0,0,0L44,39.6h0.6C44.8,39.6,45,39.5,45,39.2C45,39.3,45,39.2,45,39.2z M44.3,38.9h-0.4c-0.1,0-0.3,0.1-0.3,0.2
			c0,0.1-0.1,0.3-0.2,0.4c-0.1,0.1,0,0.3,0.1,0.4l0.3,0.3l-0.5,0.5L43,40.4c-0.1-0.1-0.3-0.1-0.4-0.1c-0.1,0.1-0.2,0.1-0.4,0.2
			c-0.1,0-0.2,0.2-0.2,0.3v0.4h-0.7v-0.4c0-0.1-0.1-0.3-0.2-0.3c-0.1,0-0.3-0.1-0.4-0.2c-0.1-0.1-0.3,0-0.4,0.1L40,40.7l-0.5-0.5
			l0.3-0.3c0.1-0.1,0.1-0.3,0.1-0.4c-0.1-0.1-0.1-0.2-0.2-0.4c0-0.1-0.2-0.2-0.3-0.2H39v-0.7h0.4c0.1,0,0.3-0.1,0.3-0.2
			c0-0.1,0.1-0.3,0.2-0.4c0.1-0.1,0-0.3-0.1-0.4l-0.3-0.3l0.5-0.5l0.3,0.3c0.1,0.1,0.3,0.1,0.4,0.1c0.1-0.1,0.2-0.1,0.4-0.2
			c0.1,0,0.2-0.2,0.2-0.3v-0.4H42v0.4c0,0.1,0.1,0.3,0.2,0.3c0.1,0,0.3,0.1,0.4,0.2c0.1,0.1,0.3,0,0.4-0.1l0.3-0.3l0.5,0.5l-0.3,0.3
			c-0.1,0.1-0.1,0.3-0.1,0.4c0.1,0.1,0.1,0.2,0.2,0.4c0,0.1,0.2,0.2,0.3,0.2h0.4V38.9z"/>
		<path class="st2" d="M41.7,37.2c-0.7,0-1.3,0.6-1.3,1.3s0.6,1.3,1.3,1.3s1.3-0.6,1.3-1.3S42.4,37.2,41.7,37.2z M41.7,39.2
			c-0.4,0-0.7-0.3-0.7-0.7s0.3-0.7,0.7-0.7s0.7,0.3,0.7,0.7S42,39.2,41.7,39.2z"/>
	</g>
</g>
</svg>
