<svg id="Layer_1" data-name="Layer 1" xmlns="http://www.w3.org/2000/svg" width="74" height="74" viewBox="0 0 74 74">
  <defs>
    <style>
      .cls-1 {
        fill: none;
        stroke: #006faf;
        stroke-miterlimit: 10;
        stroke-width: 2px;
      }

      .cls-2 {
        fill: #006faf;
      }
    </style>
  </defs>
  <title>tenant-subscription-management</title>
  <circle class="cls-1" cx="37" cy="37" r="36"/>
  <g>
    <path class="cls-1" d="M51.26,33.82l-2-.24a12.05,12.05,0,0,0-1.19-2.94l1.22-1.53a1.42,1.42,0,0,0-.1-1.89l-2.36-2.36a1.42,1.42,0,0,0-1.89-.1l-1.48,1.17a12,12,0,0,0-3.08-1.29l-.21-1.93a1.44,1.44,0,0,0-1.41-1.27H35.4A1.42,1.42,0,0,0,34,22.72l-.21,1.93A11.5,11.5,0,0,0,30.62,26l-1.55-1.22a1.42,1.42,0,0,0-1.89.1l-2.36,2.36a1.42,1.42,0,0,0-.1,1.89L26,30.77a12.15,12.15,0,0,0-1.17,3L22.77,34a1.42,1.42,0,0,0-1.27,1.41v3.37a1.42,1.42,0,0,0,1.27,1.41l2.17.26a13.69,13.69,0,0,0,1.15,2.72L24.7,44.88a1.42,1.42,0,0,0,.1,1.89l2.36,2.36a1.42,1.42,0,0,0,1.89.1l1.72-1.36a13.32,13.32,0,0,0,2.82,1.19l.26,2.22a1.44,1.44,0,0,0,1.41,1.27H38.6A1.42,1.42,0,0,0,40,51.28l.24-2.15a13.25,13.25,0,0,0,3-1.22l1.67,1.31a1.42,1.42,0,0,0,1.89-.1l2.36-2.36a1.42,1.42,0,0,0,.1-1.89L48,43.23a12.36,12.36,0,0,0,1.24-3l2-.24a1.44,1.44,0,0,0,1.27-1.41V35.23A1.4,1.4,0,0,0,51.26,33.82Z"/>
    <circle class="cls-1" cx="37" cy="37" r="10.03"/>
    <path class="cls-2" d="M35.75,34.4c0-.58.56-.88,1.39-.88a7.7,7.7,0,0,1,3.38,1.11l1-2a8,8,0,0,0-3.36-1.16V29.26H36.26v2.25c-1.9.3-3.11,1.46-3.11,3.11,0,3.85,5.77,2.64,5.77,4.71,0,.67-.6,1-1.62,1a6.36,6.36,0,0,1-3.85-1.62l-1,2a7.7,7.7,0,0,0,3.76,1.65v2.34h1.85V42.4c2-.23,3.43-1.34,3.43-3.22C41.54,35.28,35.75,36.4,35.75,34.4Z"/>
  </g>
</svg>
