<?xml version="1.0" encoding="utf-8"?>
<!-- Generator: Adobe Illustrator 21.0.2, SVG Export Plug-In . SVG Version: 6.00 Build 0)  -->
<svg version="1.1" id="Layer_1" xmlns="http://www.w3.org/2000/svg" xmlns:xlink="http://www.w3.org/1999/xlink" x="0px" y="0px"
	 viewBox="0 0 74 74" style="enable-background:new 0 0 74 74;" xml:space="preserve">
<style type="text/css">
	.st0{fill:#006FAF;}
</style>
<title>digital-transformation</title>
<path class="st0" d="M37,74C16.6,74,0,57.4,0,37C0,16.6,16.6,0,37,0c20.4,0,37,16.6,37,37C74,57.4,57.4,74,37,74z M37,2
	C17.7,2,2,17.7,2,37s15.7,35,35,35s35-15.7,35-35S56.3,2,37,2z"/>
<g>
	<path class="st0" d="M52.5,24.3c-5.6-1.2-10.7-4-14.8-8.1c-0.2-0.2-0.4-0.3-0.7-0.3c0,0,0,0,0,0c-0.3,0-0.5,0.1-0.7,0.3
		c-4,4.1-9.1,6.9-14.8,8.1c-0.5,0.1-0.8,0.5-0.8,1v15.3c0,4.1,1.4,7.3,4.5,10.1c2.5,2.3,6,4.3,10,6.5l1.2,0.7
		c0.1,0.1,0.3,0.1,0.5,0.1h0c0.2,0,0.3,0,0.5-0.1l1.2-0.7c4-2.3,7.5-4.2,10-6.5c3.1-2.8,4.5-6.1,4.5-10.1V25.3
		C53.3,24.8,52.9,24.4,52.5,24.3z M51.3,26v14.6c0,3.6-1.2,6.2-3.9,8.7c-2.3,2.2-5.8,4.1-9.9,6.4L37,56l-0.5-0.3
		c-4-2.3-7.5-4.2-9.9-6.4c-2.7-2.5-3.9-5.1-3.9-8.7V26c5.3-1.3,10.3-4,14.3-7.8C41,22,45.9,24.7,51.3,26z"/>
	<path class="st0" d="M46.6,35.4c-0.7-2.7-3.1-4.7-6-4.7c-0.5,0-1,0.1-1.5,0.2c-1.6,0.4-2.9,1.4-3.8,2.8c-0.9,1.4-1.1,3.1-0.7,4.6
		c0.7,2.8,3.1,4.7,6,4.7c0.5,0,0.9-0.1,1.5-0.2c1.6-0.4,2.9-1.4,3.8-2.8C46.8,38.7,47,37,46.6,35.4z M45,39.6
		c-0.7,1.2-1.8,2-3.1,2.3C41.5,42,41.1,42,40.6,42c-2.4,0-4.4-1.6-5-3.9c-0.3-1.3-0.1-2.7,0.6-3.9c0.7-1.2,1.8-2,3.1-2.3
		c0.4-0.1,0.8-0.1,1.2-0.1c2.4,0,4.4,1.6,5,3.9C45.9,37,45.7,38.4,45,39.6z"/>
	<path class="st0" d="M45.2,35.8c-0.5-2.1-2.4-3.6-4.5-3.6c-0.4,0-0.8,0-1.1,0.1c-1.2,0.3-2.2,1.1-2.9,2.1c-0.6,1.1-0.8,2.3-0.5,3.5
		c0.5,2.1,2.4,3.6,4.5,3.6c0.3,0,0.7,0,1.1-0.1C44.3,40.8,45.8,38.3,45.2,35.8z M40.7,40.6c-1.7,0-3.2-1.2-3.6-2.8
		c-0.2-0.9-0.1-1.9,0.4-2.8c0.5-0.8,1.3-1.4,2.3-1.7c0.3-0.1,0.6-0.1,0.9-0.1c1.7,0,3.2,1.2,3.6,2.8c0.2,0.9,0.1,1.9-0.4,2.8
		c-0.5,0.8-1.3,1.4-2.3,1.7C41.3,40.5,41,40.6,40.7,40.6z"/>
	<g>
		<g>
			<path class="st0" d="M40.7,40.3c-1,0-2-0.5-2.7-1.4l0.4-0.4c1.2,1.6,3.3,1.6,4.6,0.1l0.3,0.4C42.6,39.9,41.6,40.3,40.7,40.3z"/>
		</g>
	</g>
	<g>
		<g>
			<path class="st0" d="M45.7,38.9c-0.2,0.4-0.4,0.9-0.7,1.2l6,3.6l0.7-1.2L45.7,38.9z"/>
		</g>
		<g>
			<path class="st0" d="M51.1,44.2l-6.5-3.9l0.2-0.2c0.3-0.4,0.5-0.8,0.7-1.2l0.1-0.3l6.5,3.9L51.1,44.2z M45.4,40.1l5.6,3.4
				l0.5-0.8l-5.6-3.4C45.7,39.6,45.6,39.9,45.4,40.1z"/>
		</g>
	</g>
	<path class="st0" d="M40.2,35.3c-0.1,0-0.1,0-0.2,0c-0.1,0-0.2,0.1-0.3,0.1l-2.1-1.5L37.4,34c-0.1,0.1-0.3,0.2-0.4,0.4l-0.2,0.2
		l2.3,1.6c-0.1,0.2-0.1,0.3,0,0.5c0.1,0.5,0.6,0.9,1.1,0.9c0.1,0,0.1,0,0.2,0c0.3,0,0.5-0.2,0.7-0.5c0.2-0.3,0.2-0.6,0.2-0.9
		C41.2,35.7,40.8,35.3,40.2,35.3z M40.2,36.8c-0.2,0-0.3-0.1-0.4-0.3c0-0.2,0.1-0.4,0.3-0.4c0,0,0,0,0.1,0c0.2,0,0.3,0.1,0.4,0.3
		C40.6,36.6,40.5,36.8,40.2,36.8z"/>
	<path class="st0" d="M33.6,31c0-0.1,0-0.3,0-0.4c-0.1-0.5-0.6-0.9-1.1-0.9c-0.1,0-0.1,0-0.2,0c-0.6,0.1-1,0.7-0.9,1.3
		c0,0.1,0.1,0.3,0.1,0.4L28.6,35c-0.1,0-0.2,0-0.3,0c-0.1,0-0.1,0-0.2,0c-0.2,0-0.3,0.1-0.4,0.2l-2.5-1.1c0-0.1,0-0.2,0-0.2
		c-0.1-0.5-0.6-0.9-1.1-0.9c-0.1,0-0.1,0-0.2,0c-0.3,0.1-0.6,0.2-0.7,0.5c-0.2,0.3-0.2,0.6-0.2,0.9c0,0.2,0.1,0.3,0.2,0.4l-1.4,2.1
		v1.6l2.2-3.2c0.1,0,0.1,0,0.2,0c0.1,0,0.1,0,0.2,0c0.2,0,0.4-0.1,0.6-0.3l2.4,1c0,0.2,0,0.3,0,0.4c0.1,0.5,0.6,0.9,1.1,0.9
		c0.1,0,0.1,0,0.2,0c0.6-0.1,1-0.7,0.9-1.3c0-0.1-0.1-0.3-0.2-0.4l2.9-3.6c0.1,0,0.2,0,0.3,0c0.1,0,0.2,0,0.2,0
		c0.2,0,0.3-0.1,0.4-0.2l3.1,2.3l0.6-0.6L33.6,31z M24.2,34.4c0,0-0.1,0.1-0.1,0.1l-0.1,0l-0.1,0.2l0-0.1l0.1-0.1l0,0h-0.1l-0.1-0.1
		h0l0,0h0c0,0,0,0,0,0l0,0c0,0,0-0.1-0.1-0.1c0-0.2,0.1-0.4,0.3-0.4c0,0,0,0,0.1,0c0.2,0,0.3,0.1,0.4,0.3
		C24.4,34.2,24.3,34.3,24.2,34.4z M28.7,36.3c-0.1,0.1-0.1,0.2-0.3,0.2c-0.2,0-0.3-0.1-0.4-0.3c0-0.1,0-0.1,0-0.1l0.1-0.1
		c0,0,0.1-0.1,0.1-0.1c0,0,0.1,0,0.1-0.1l-0.1-0.2l0.1,0.2l0.1,0h0l0,0l0,0.1l0.1,0.1c0,0,0,0.1,0.1,0.1
		C28.7,36.2,28.7,36.2,28.7,36.3z M32.7,31.1l-0.1,0.1l-0.1,0l0,0c-0.1,0-0.2-0.1-0.3-0.2c0,0,0-0.1,0-0.1c0-0.2,0.1-0.4,0.3-0.4
		c0,0,0,0,0.1,0c0.2,0,0.3,0.1,0.4,0.2l0,0.2C32.8,30.9,32.7,31,32.7,31.1z"/>
</g>
</svg>
