<?xml version="1.0" encoding="utf-8"?>
<!-- Generator: Adobe Illustrator 21.0.2, SVG Export Plug-In . SVG Version: 6.00 Build 0)  -->
<svg version="1.1" id="Layer_1" xmlns="http://www.w3.org/2000/svg" xmlns:xlink="http://www.w3.org/1999/xlink" x="0px" y="0px"
	 viewBox="0 0 74 74" style="enable-background:new 0 0 74 74;" xml:space="preserve">
<style type="text/css">
	.st0{fill:none;stroke:#006FAF;stroke-width:2;stroke-miterlimit:10;}
	.st1{fill:#FFFFFF;stroke:#006FAF;stroke-width:2;stroke-miterlimit:10;}
	.st2{fill:#006FAF;}
</style>
<title>Cloud &amp;amp; Infrastructure Services</title>
<circle class="st0" cx="37" cy="37" r="36"/>
<g>
	<rect x="41.6" y="18.7" class="st1" width="12.3" height="7.9"/>
	<rect x="29.3" y="32.2" class="st1" width="6.1" height="6.1"/>
	<rect x="29.3" y="40.7" class="st1" width="6.1" height="6.1"/>
	<rect x="29.3" y="49.2" class="st1" width="6.1" height="6.1"/>
	<polyline class="st0" points="47.8,29.1 47.8,35.3 41.6,35.3 	"/>
	<path class="st2" d="M42,35.3l1.4-1.4c0.2-0.2,0.2-0.4,0-0.6l-0.1-0.1c-0.2-0.2-0.4-0.2-0.6,0L40.8,35c-0.1,0.1-0.1,0.2-0.1,0.3
		c0,0.1,0,0.2,0.1,0.3l1.8,1.8c0.2,0.2,0.4,0.2,0.6,0l0.1-0.1c0.2-0.2,0.2-0.4,0-0.6L42,35.3z"/>
	<path class="st2" d="M40.9,52.8l1.4-1.4c0.2-0.2,0.2-0.4,0-0.6l-0.1-0.1c-0.2-0.2-0.4-0.2-0.6,0l-1.8,1.8c-0.1,0.1-0.1,0.2-0.1,0.3
		c0,0.1,0,0.2,0.1,0.3l1.8,1.8c0.2,0.2,0.4,0.2,0.6,0l0.1-0.1c0.2-0.2,0.2-0.4,0-0.6L40.9,52.8z"/>
	<path class="st2" d="M22.8,45.2c-0.2,0.2-0.2,0.4,0,0.6l0.1,0.1c0.2,0.2,0.4,0.2,0.6,0l1.8-1.8c0.1-0.1,0.1-0.2,0.1-0.3
		c0-0.1,0-0.2-0.1-0.3l-1.8-1.8c-0.2-0.2-0.4-0.2-0.6,0l-0.1,0.1c-0.2,0.2-0.2,0.4,0,0.6l1.4,1.4L22.8,45.2z"/>
	<polyline class="st0" points="26.4,34.9 20.1,34.9 20.1,43.8 24.3,43.8 	"/>
	<polyline class="st0" points="37.6,43.8 44.7,43.8 44.7,52.8 40.6,52.8 	"/>
</g>
</svg>
