<?xml version="1.0" encoding="utf-8"?>
<!-- Generator: Adobe Illustrator 21.0.2, SVG Export Plug-In . SVG Version: 6.00 Build 0)  -->
<svg version="1.1" id="Layer_1" xmlns="http://www.w3.org/2000/svg" xmlns:xlink="http://www.w3.org/1999/xlink" x="0px" y="0px"
	 viewBox="0 0 75 75" style="enable-background:new 0 0 75 75;" xml:space="preserve">
<style type="text/css">
	.st0{fill:none;stroke:#006FAF;stroke-width:2;stroke-miterlimit:10;}
	.st1{fill:#006FAF;}
</style>
<circle class="st0" cx="37.5" cy="37.5" r="36"/>
<g>
	<g>
		<path class="st1" d="M48.8,50.7l-2.4-2.7v1.6h-2.2c-0.8,0.8-1.8,1.6-2.9,2.1h5.1v1.6L48.8,50.7z"/>
		<path class="st1" d="M45.5,43.9c0-4.3-3.5-7.8-7.9-7.8c-2.5,0-4.6,1.1-6.1,2.9l0,0c-0.5,0.6-0.9,1.3-1.2,2c0,0,0,0.1,0,0.1
			c0,0.1-0.1,0.2-0.1,0.3c-0.3,0.8-0.4,1.6-0.4,2.5c0,1,0.2,1.9,0.5,2.8l-1.5,0.6l3.5,1.4l1.4-3.5l-1.4,0.6
			c-0.2-0.6-0.3-1.3-0.3-1.9c0-3.1,2.6-5.7,5.7-5.7s5.7,2.6,5.7,5.7s-2.6,5.7-5.7,5.7H26.5l1,1l-1,1.1h11.1
			C41.9,51.8,45.5,48.3,45.5,43.9z"/>
		<path class="st1" d="M29.7,40.5c0,0,0.1,0.1,0.1,0.1c0.3-0.7,0.7-1.3,1.1-1.9c0,0-0.1-0.1-0.1-0.1c-0.3-0.3-0.6-0.8-0.6-1.3
			c0-1,0.8-1.8,1.8-1.8c0.1,0,0.3,0,0.4,0l-0.7,1.4l1.5-0.5l2.1-0.7l0-0.1l-1.2-3.4l-0.7,1.4c-0.5-0.2-0.9-0.3-1.4-0.3
			c-2.2,0-4,1.8-4,3.9C28.1,38.6,28.7,39.8,29.7,40.5z"/>
	</g>
	<path class="st1" d="M28.6,44.8c-0.3-0.2-0.6-0.4-0.9-0.4c-0.1,0-0.2,0-0.3,0c-0.3,0-0.7,0.1-1,0.1c-0.2,0-0.4,0.1-0.6,0.1
		c-0.7,0-1.3-0.4-1.8-1.1c-0.6-1-1-2.1-1.4-3.6c-0.2-0.8,0.1-1.5,0.9-2l0.1-0.1c0.3-0.2,0.5-0.3,0.7-0.5c0.4-0.4,0.6-0.8,0.6-1.3
		c0-0.5-0.2-0.9-0.6-1.3c-0.2-0.2-0.4-0.3-0.6-0.5c-1.1-0.7-1.4-1.5-1.1-2.7c0.3-1,0.7-2.1,1.4-3.2c0.4-0.7,1-1,1.8-1
		c0.1,0,0.2,0,0.4,0l0.3,0c0.3,0,0.5,0.1,0.8,0.1c1,0,1.6-0.6,1.7-1.5c0-0.4,0-0.7-0.1-1.2c-0.3-1.2,0.2-2,1.2-2.5
		c0.9-0.4,1.9-0.9,3-1.2c0.2-0.1,0.5-0.1,0.7-0.1c0.7,0,1.2,0.3,1.7,0.9c0.3,0.4,0.5,0.7,0.8,1c0.4,0.3,0.8,0.5,1.2,0.5
		c0.4,0,0.9-0.2,1.3-0.6c0.2-0.2,0.3-0.4,0.5-0.6l0.1-0.2c0.5-0.7,1-1,1.7-1c0.2,0,0.4,0,0.6,0.1c1.1,0.3,2.2,0.7,3.4,1.4
		c0.9,0.5,1.2,1.3,1,2.3c-0.1,0.3-0.1,0.6-0.1,1c0,1.1,0.7,1.8,1.7,1.8l0.1,0c0.3,0,0.6-0.1,0.9-0.1c0.3,0,0.4-0.1,0.6-0.1
		c0.8,0,1.3,0.4,1.7,1c0.6,1,1.1,2.1,1.4,3.3c0.3,1.1,0,1.9-1,2.5L51.2,34c-0.1,0.1-0.3,0.2-0.4,0.3c-0.5,0.4-0.7,0.8-0.7,1.3
		c0,0.5,0.2,0.9,0.6,1.3c0.2,0.2,0.4,0.4,0.7,0.5c1,0.7,1.3,1.4,1,2.6c-0.3,1-0.6,2-1.1,3c-0.4,0.9-1,1.3-1.8,1.3l0,0
		c-0.2,0-0.5,0-0.8-0.1c-0.3-0.1-0.6-0.1-0.9-0.1h0c-0.4,0-0.8,0.1-1.1,0.4l-0.4,0.3l0-0.5c0-0.5-0.1-1.1-0.2-1.6l0-0.2l0.2-0.1
		c0.4-0.2,0.9-0.3,1.4-0.3c0.2,0,0.5,0,0.7,0.1c0.1,0,0.2,0,0.3,0c0.5,0,0.9-0.2,1-0.6c0.2-0.5,0.4-1,0.6-1.5l0.1-0.3
		c0.1-0.3,0-0.4-0.2-0.6c-0.3-0.2-0.6-0.4-0.9-0.6c-0.9-0.8-1.4-2-1.3-3.2c0.1-1.1,0.6-2,1.5-2.7c0.1-0.1,0.2-0.2,0.4-0.3
		c0.3-0.3,0.4-0.7,0.3-1.1c-0.1-0.5-0.4-1-0.6-1.4c-0.3-0.5-0.4-0.6-0.6-0.6c-0.1,0-0.3,0-0.5,0.1c-0.3,0.1-0.6,0.1-0.9,0.1
		c-1.2,0-2.4-0.5-3.1-1.4c-0.7-0.8-0.9-1.9-0.7-3c0.1-0.7-0.1-1.1-0.8-1.5c-0.2-0.1-0.5-0.2-0.8-0.3c-0.2-0.1-0.4-0.1-0.6-0.2
		c-0.2-0.1-0.3-0.1-0.4-0.1c-0.1,0-0.3,0.1-0.5,0.4c-0.1,0.1-0.1,0.2-0.2,0.2l-0.1,0.2c-0.7,1-1.7,1.5-2.9,1.5c0,0,0,0,0,0
		c-1.3,0-2.3-0.5-3.1-1.6c-0.4-0.5-0.7-0.7-1-0.7c-0.3,0-0.6,0.1-0.9,0.3l-0.2,0.1c-0.2,0.1-0.4,0.3-0.6,0.3
		c-0.7,0.3-0.8,0.4-0.6,1.1c0.1,0.5,0.2,1,0.1,1.5c-0.3,1.9-1.8,3.2-3.7,3.2c-0.2,0-0.5,0-0.7-0.1c-0.1,0-0.2,0-0.4,0
		c-0.4,0-0.8,0.1-1,0.9c-0.1,0.4-0.3,0.7-0.4,1.1c-0.3,0.8-0.3,0.9,0.4,1.4c1,0.7,1.6,1.7,1.7,3c0.1,1.4-0.4,2.5-1.6,3.3
		c-0.7,0.5-0.8,0.8-0.4,1.6c0.1,0.3,0.3,0.6,0.4,0.9l0.1,0.2c0.2,0.6,0.4,0.6,0.6,0.6c0.1,0,0.2,0,0.4-0.1c0.3-0.1,0.6-0.1,0.8-0.1
		c0.5,0,1.1,0.1,1.6,0.4l0.2,0.1l0,0.2c-0.1,0.5-0.1,1-0.1,1.5l0,0.8L28.6,44.8z"/>
</g>
</svg>
