<?xml version="1.0" encoding="utf-8"?>
<!-- Generator: Adobe Illustrator 21.0.2, SVG Export Plug-In . SVG Version: 6.00 Build 0)  -->
<svg version="1.1" id="Layer_1" xmlns="http://www.w3.org/2000/svg" xmlns:xlink="http://www.w3.org/1999/xlink" x="0px" y="0px"
	 viewBox="0 0 74 74" style="enable-background:new 0 0 74 74;" xml:space="preserve">
<style type="text/css">
	.st0{fill:#006FAF;}
</style>
<title>Cloud &amp;amp; Infrastructure Services</title>
<path class="st0" d="M37,74C16.6,74,0,57.4,0,37C0,16.6,16.6,0,37,0c20.4,0,37,16.6,37,37C74,57.4,57.4,74,37,74z M37,2
	C17.7,2,2,17.7,2,37s15.7,35,35,35s35-15.7,35-35S56.3,2,37,2z"/>
<g>
	<path class="st0" d="M38.8,53.7h-3.4c-0.4,0-0.6,0.3-0.6,0.6s0.3,0.6,0.6,0.6h3.4c0.4,0,0.6-0.3,0.6-0.6S39.1,53.7,38.8,53.7z"/>
	<path class="st0" d="M40.1,46.3h-6.4c-0.8,0-1.5,0.7-1.5,1.5v3.7c0,0.8,0.7,1.5,1.5,1.5h6.4c0.8,0,1.5-0.7,1.5-1.5v-3.7
		C41.6,47,40.9,46.3,40.1,46.3z M33.3,47.8c0-0.2,0.1-0.3,0.3-0.3h6.4c0.2,0,0.3,0.1,0.3,0.3v3.7c0,0.2-0.1,0.3-0.3,0.3h-6.4
		c-0.2,0-0.3-0.1-0.3-0.3V47.8z"/>
	<path class="st0" d="M35.5,26.9c-0.4,0-0.6,0.3-0.6,0.6s0.3,0.6,0.6,0.6h3.4c0.4,0,0.6-0.3,0.6-0.6s-0.3-0.6-0.6-0.6H35.5z"/>
	<path class="st0" d="M33.8,26.2h6.4c0.8,0,1.5-0.7,1.5-1.5V21c0-0.8-0.7-1.5-1.5-1.5h-6.4c-0.8,0-1.5,0.7-1.5,1.5v3.7
		C32.3,25.5,33,26.2,33.8,26.2z M40.5,24.6c0,0.2-0.1,0.3-0.3,0.3h-6.4c-0.2,0-0.3-0.1-0.3-0.3V21c0-0.2,0.1-0.3,0.3-0.3h6.4
		c0.2,0,0.3,0.1,0.3,0.3V24.6z"/>
	<path class="st0" d="M52.3,40.9h-3.4c-0.4,0-0.6,0.3-0.6,0.6s0.3,0.6,0.6,0.6h3.4c0.4,0,0.6-0.3,0.6-0.6S52.7,40.9,52.3,40.9z"/>
	<path class="st0" d="M53.8,33.5h-6.4c-0.8,0-1.5,0.7-1.5,1.5v3.7c0,0.8,0.7,1.5,1.5,1.5h6.4c0.8,0,1.5-0.7,1.5-1.5V35
		C55.3,34.2,54.6,33.5,53.8,33.5z M47.1,35c0-0.2,0.1-0.3,0.3-0.3h6.4c0.2,0,0.3,0.1,0.3,0.3v3.7c0,0.2-0.1,0.3-0.3,0.3h-6.4
		c-0.2,0-0.3-0.1-0.3-0.3V35z"/>
	<path class="st0" d="M25.2,40.9h-3.4c-0.4,0-0.6,0.3-0.6,0.6s0.3,0.6,0.6,0.6h3.4c0.3,0,0.6-0.3,0.6-0.6
		C25.8,41.2,25.6,40.9,25.2,40.9z"/>
	<path class="st0" d="M26.6,33.5h-6.4c-0.8,0-1.5,0.7-1.5,1.5v3.7c0,0.8,0.7,1.5,1.5,1.5h6.4c0.8,0,1.5-0.7,1.5-1.5V35
		C28.1,34.2,27.5,33.5,26.6,33.5z M19.9,35c0-0.2,0.1-0.3,0.3-0.3h6.4c0.2,0,0.3,0.1,0.3,0.3v3.7c0,0.2-0.1,0.3-0.3,0.3h-6.4
		c-0.2,0-0.3-0.1-0.3-0.3V35z"/>
	<path class="st0" d="M44.6,36.5l-4.8,0c-0.2-1.1-1.1-2-2.2-2.2v-4.9c0-0.4-0.3-0.6-0.6-0.6s-0.6,0.3-0.6,0.6v4.9
		c-1.1,0.2-2,1.1-2.2,2.2h-4.8c-0.4,0-0.6,0.3-0.6,0.6s0.3,0.6,0.6,0.6h4.8c0.2,1.1,1.1,1.9,2.2,2.2v4.8c0,0.4,0.3,0.6,0.6,0.6
		s0.6-0.3,0.6-0.6v-4.8c1.1-0.2,1.9-1.1,2.2-2.2h4.8c0.4,0,0.6-0.3,0.6-0.6S45,36.5,44.6,36.5z M37,36.1c0.6,0,1,0.5,1,1
		c0,0.6-0.5,1-1,1c-0.6,0-1-0.5-1-1C36,36.6,36.4,36.1,37,36.1z"/>
</g>
</svg>
