<?xml version="1.0" encoding="utf-8"?>
<!-- Generator: Adobe Illustrator 21.0.2, SVG Export Plug-In . SVG Version: 6.00 Build 0)  -->
<svg version="1.1" id="Layer_1" xmlns="http://www.w3.org/2000/svg" xmlns:xlink="http://www.w3.org/1999/xlink" x="0px" y="0px"
	 viewBox="0 0 74 74" style="enable-background:new 0 0 74 74;" xml:space="preserve">
<style type="text/css">
	.st0{fill:#006FAF;}
</style>
<title>SQL-server-database-services</title>
<g>
	<g>
		<path class="st0" d="M37,74C16.6,74,0,57.4,0,37S16.6,0,37,0s37,16.6,37,37S57.4,74,37,74z M37,2C17.7,2,2,17.7,2,37
			s15.7,35,35,35s35-15.7,35-35S56.3,2,37,2z"/>
	</g>
</g>
<g>
	<g>
		<defs>
			<rect id="SVGID_1_" x="627.8" y="321.2" width="648" height="21.6"/>
		</defs>
		<clipPath id="SVGID_2_">
			<use xlink:href="#SVGID_1_"  style="overflow:visible;"/>
		</clipPath>
		<g style="clip-path:url(#SVGID_2_);">
			<text transform="matrix(0.9991 0 0 1 627.7656 331.375)"><tspan x="0" y="0" style="fill:#0070C0; font-family:'ArialMT'; font-size:11.0503px;">P</tspan><tspan x="7.3" y="0" style="fill:#0070C0; font-family:'ArialMT'; font-size:11.0503px;">r</tspan><tspan x="11.1" y="0" style="fill:#0070C0; font-family:'ArialMT'; font-size:11.0503px;">oa</tspan><tspan x="23.3" y="0" style="fill:#0070C0; font-family:'ArialMT'; font-size:11.0503px;">c</tspan><tspan x="28.8" y="0" style="fill:#0070C0; font-family:'ArialMT'; font-size:11.0503px;">t</tspan><tspan x="32" y="0" style="fill:#0070C0; font-family:'ArialMT'; font-size:11.0503px;">i</tspan><tspan x="34.4" y="0" style="fill:#0070C0; font-family:'ArialMT'; font-size:11.0503px;">v</tspan><tspan x="39.8" y="0" style="fill:#0070C0; font-family:'ArialMT'; font-size:11.0503px;">e</tspan><tspan x="45.9" y="0" style="fill:#0070C0; font-family:'ArialMT'; font-size:11.0503px;"> </tspan></text>
		</g>
	</g>
	<g>
		<defs>
			<rect id="SVGID_3_" x="627.8" y="321.2" width="648" height="21.6"/>
		</defs>
		<clipPath id="SVGID_4_">
			<use xlink:href="#SVGID_3_"  style="overflow:visible;"/>
		</clipPath>
		<g style="clip-path:url(#SVGID_4_);">
			<text transform="matrix(0.9991 0 0 1 676.7266 331.375)"><tspan x="0" y="0" style="fill:#0070C0; font-family:'ArialMT'; font-size:11.0503px;">S</tspan><tspan x="7.3" y="0" style="fill:#0070C0; font-family:'ArialMT'; font-size:11.0503px;">pend</tspan><tspan x="31.9" y="0" style="fill:#0070C0; font-family:'ArialMT'; font-size:11.0503px;"> </tspan><tspan x="35" y="0" style="fill:#0070C0; font-family:'ArialMT'; font-size:11.0503px;">M</tspan><tspan x="44" y="0" style="fill:#0070C0; font-family:'ArialMT'; font-size:11.0503px;">anage</tspan><tspan x="74.7" y="0" style="fill:#0070C0; font-family:'ArialMT'; font-size:11.0503px;">m</tspan><tspan x="83.9" y="0" style="fill:#0070C0; font-family:'ArialMT'; font-size:11.0503px;">en</tspan><tspan x="96.2" y="0" style="fill:#0070C0; font-family:'ArialMT'; font-size:11.0503px;">t</tspan></text>
		</g>
	</g>
	<g>
		<defs>
			<rect id="SVGID_5_" x="627.8" y="321.2" width="648" height="21.6"/>
		</defs>
		<clipPath id="SVGID_6_">
			<use xlink:href="#SVGID_5_"  style="overflow:visible;"/>
		</clipPath>
		<g style="clip-path:url(#SVGID_6_);">
			<text transform="matrix(0.9991 0 0 1 775.7188 331.375)" style="fill:#0070C0; font-family:'ArialMT'; font-size:11.0503px;"> </text>
		</g>
	</g>
</g>
<g>
	<rect x="22" y="24.4" class="st0" width="13.3" height="1.3"/>
	<path class="st0" d="M32.1,49.4h-1.2v-6.7h-3.2v6.7h-1.2v-4.6h-3.2v4.6h-0.9v1.3h14.1v-1.3h-0.9v-8.1l-0.1-0.2h-3.3V49.4z
		 M29.6,43.9v5.4h-0.7v-5.4H29.6z M24.4,49.4V46h0.7v3.4H24.4z M33.4,49.4v-7.1h0.7v7.1H33.4z"/>
	<polygon class="st0" points="26.2,40.9 23.4,43.6 24.3,44.5 26.7,42.2 29.7,42.2 33.1,38.7 33.1,39.3 34.3,39.3 34.3,36.4 
		31.5,36.4 31.5,37.7 32.2,37.7 29.2,40.9 	"/>
	<path class="st0" d="M54.4,33c0-0.2-0.2-0.9-0.5-1.1l-2.8-6.4c-0.4-0.8-0.9-1.3-1.7-1.5c-0.2-0.1-0.4-0.1-0.5-0.1
		c-0.7,0-1.3,0.2-1.7,0.7c-0.4,0.4-0.6,0.8-0.7,1.3h-1.2v-4.7H19.5v28.4c0,1.9,1.5,3.4,3.3,3.4h24.6c1.8,0,3.3-1.5,3.3-3.3v-9.1
		h-5.4v-8h0.6l0.6,1.5c0,0.6,0.2,1.2,0.5,1.8c1.2,1.8,2.5,2.1,3.5,2.1c0,0,0,0,0,0c1.3,0,2.5-0.7,2.8-1.1c0,0,0.1-0.1,0.1-0.2
		C54.7,35.3,54.5,33.5,54.4,33z M47.8,33.9c0-1.5,1.2-2.7,2.7-2.7c1,0,1.9,0.5,2.3,1.4c0,0.1,0.1,0.3,0.2,0.4c0,0.1,0.1,0.2,0.1,0.2
		c0,0.1,0,0.1,0.1,0.2c0.1,0.9-0.1,1.7-0.6,2.3c-0.6,0.7-1.6,0.9-2.3,0.9c-0.3,0-0.5-0.1-0.6-0.1C49.7,36.4,47.9,35.9,47.8,33.9z
		 M47.5,51.6c-1.1,0-2-0.9-2-2v-7.8h4v7.8C49.5,50.7,48.6,51.6,47.5,51.6z M38.9,36.6c-0.4,0-0.9-0.1-1.3-0.3l-0.1-0.1h-0.1
		c-1.1-0.6-1.4-2-1.3-2.2l0.1-0.1l-0.1-0.1c0-0.2,0.2-1.1,0.3-1.2l0.1,0l0-0.1c0,0,0.5-1.2,2.3-1.3c0.1,0,0.1,0,0.2,0
		c1.4,0,2.5,1.2,2.5,2.7C41.5,35.9,40.1,36.6,38.9,36.6z M20.8,22.4h23.3v3.4h-1.3c-0.1-0.5-0.3-0.9-0.7-1.3
		c-0.1-0.1-0.2-0.2-0.3-0.3c-0.4-0.2-0.8-0.3-1.2-0.3c-0.4,0-0.7,0.1-1.1,0.2c-0.5,0.3-0.9,0.6-1.1,1.1l-2.9,6.5l0,0l0,0.1
		c-1.1,2-0.1,3.8,0.1,4.2l0,0c0.1,0.1,0.6,0.8,1,1c0.3,0.3,1.3,0.7,2.4,0.7c0.8,0,2-0.2,3-1.4l0,0l0.1-0.1C42.3,36,43,35.1,43,34
		l0.6-1.6h0.7v17.1c0,0.8,0.2,1.5,0.7,2H22.6v0.1c-1-0.1-1.8-1-1.8-2V22.4z M42.4,31.8c-0.7-1.2-2-1.9-3.4-1.9
		c-0.4,0-0.8,0.1-1.3,0.2l1.9-4.3c0.1-0.2,0.2-0.4,0.5-0.5c0.2-0.1,0.4-0.1,0.6-0.1c0.2,0,0.5,0.1,0.6,0.1c0,0,0.1,0.1,0.1,0.1
		c0.2,0.2,0.4,0.5,0.4,0.8v0.8h6.2v-0.8c0-0.3,0.1-0.6,0.4-0.8c0.2-0.2,0.5-0.4,0.8-0.4l0.1,0c0.3,0.1,0.7,0.4,0.9,0.8l1.8,4.1
		c-0.4-0.1-0.8-0.2-1.3-0.2c0,0,0,0,0,0c-1.4,0.1-2.7,0.9-3.4,2l-0.2-0.6h-4.3L42.4,31.8z"/>
	<rect x="42.4" y="28.1" class="st0" width="4.6" height="1.3"/>
	<rect x="22" y="27.3" class="st0" width="10.9" height="1.3"/>
	<rect x="22" y="30.2" class="st0" width="12" height="1.3"/>
	<rect x="22" y="33.1" class="st0" width="9.6" height="1.3"/>
</g>
</svg>
