<?xml version="1.0" encoding="utf-8"?>
<!-- Generator: Adobe Illustrator 21.0.0, SVG Export Plug-In . SVG Version: 6.00 Build 0)  -->
<svg version="1.1" id="Layer_1" xmlns="http://www.w3.org/2000/svg" xmlns:xlink="http://www.w3.org/1999/xlink" x="0px" y="0px"
	 viewBox="0 0 74 74" style="enable-background:new 0 0 74 74;" xml:space="preserve">
<style type="text/css">
	.st0{fill:none;stroke:#006FAF;stroke-width:2;stroke-miterlimit:10;}
	.st1{fill:#006FAF;}
</style>
<title>os-patch-management</title>
<g id="text">
</g>
<g>
	<circle class="st0" cx="37" cy="37" r="36"/>
	<g>
		<path id="_219760072" class="st0" d="M37,19L37,19c3.2,0,5.8,2.6,5.8,5.8v11.5c0,3.2-2.6,5.8-5.8,5.8h0c-3.2,0-5.8-2.6-5.8-5.8
			V24.8C31.2,21.6,33.8,19,37,19z"/>
		<path class="st1" d="M37,47.3c-2.9,0-5.7-1.2-7.8-3.2c-2.1-2.1-3.2-4.8-3.2-7.7c0-0.3,0.1-0.5,0.3-0.7c0.2-0.2,0.4-0.3,0.7-0.3
			c0.6,0,1,0.4,1,0.9c0,2.4,1,4.6,2.7,6.3c1.7,1.7,4,2.7,6.4,2.7c2.4,0,4.7-0.9,6.4-2.7c1.7-1.7,2.6-3.9,2.7-6.3
			c0-0.5,0.4-0.9,1-0.9c0.3,0,0.6,0.1,0.7,0.3c0.2,0.2,0.3,0.4,0.3,0.7c0,2.9-1.2,5.6-3.2,7.7C42.7,46.2,39.9,47.3,37,47.3z"/>
		<line id="_219759064" class="st0" x1="37" y1="46.4" x2="37" y2="54.6"/>
		<line id="_219755200" class="st0" x1="31.2" y1="55" x2="42.8" y2="55"/>
	</g>
</g>
</svg>
