<?xml version="1.0" encoding="utf-8"?>
<!-- Generator: Adobe Illustrator 21.0.2, SVG Export Plug-In . SVG Version: 6.00 Build 0)  -->
<svg version="1.1" id="Layer_1" xmlns="http://www.w3.org/2000/svg" xmlns:xlink="http://www.w3.org/1999/xlink" x="0px" y="0px"
	 viewBox="0 0 74 74" style="enable-background:new 0 0 74 74;" xml:space="preserve">
<style type="text/css">
	.st0{fill:none;stroke:#006FAF;stroke-width:2;stroke-miterlimit:10;}
	.st1{fill:#006FAF;}
</style>
<title>Cloud &amp;amp; Infrastructure Services</title>
<circle class="st0" cx="37" cy="37" r="36"/>
<g>
	<path class="st1" d="M38.6,55.3c-8.2,0-15.4-5.5-17.5-13.4c-0.2-0.7-0.5-1.1-1.2-1.4c-2-0.7-3.1-2.7-2.8-4.7c0.4-2.1,2-3.6,4.1-3.7
		c0.1,0,0.2,0,0.2,0c1.8,0,3.6,1.3,4.1,3.1c0.6,2.1-0.3,4.2-2.1,5.1c-1,0.5-0.9,1.1-0.6,1.8c2.3,7,8.6,11.5,16.1,11.5
		c0.6,0,1.1,0,1.7-0.1C47.7,53,54,46.9,55.2,39.5c1.1-7.7-3.2-15-10.4-17.9c-1.9-0.8-4-1.2-6.1-1.2c-5.4,0-10.5,2.6-13.6,7
		c-0.1,0.1-0.1,0.1-0.2,0.3c-0.1,0.1-0.1,0.2-0.2,0.3l0.2,0.3c0.1,0,0.1,0,0.2,0l0.1,0c0.5,0,1-0.2,1.4-0.3c0.2-0.1,0.4-0.2,0.7-0.2
		c0.2-0.1,0.5-0.1,0.7-0.1c0.4,0,0.6,0.2,0.7,0.6c0.1,0.6-0.1,0.9-0.8,1.1c-1.6,0.5-3.1,1-4.6,1.5l-0.1,0c-0.2,0.1-0.4,0.1-0.5,0.1
		c-0.5,0-0.8-0.3-1-0.9c-0.4-1.2-0.7-2.4-1.2-3.6l-0.3-1c-0.1-0.4-0.1-0.7,0-1c0.1-0.1,0.2-0.3,0.5-0.3c0.1,0,0.2,0,0.3,0
		c0.4,0,0.7,0.3,0.8,0.8c0.1,0.4,0.3,0.7,0.4,1.1c0.2,0.4,0.3,0.9,0.5,1.4l0.2,0.5l0.3-0.8c0.4-0.5,0.8-1.1,1.2-1.6
		c3.5-4.3,8.7-6.7,14.2-6.7c2.4,0,4.8,0.5,7,1.4c7.4,3.1,12,10.7,11.3,18.5C56,47,50.1,53.5,41.9,55C40.8,55.2,39.7,55.3,38.6,55.3
		L38.6,55.3z M21.2,33.8c-1.3,0-2.6,1.3-2.7,2.6c0,0.7,0.2,1.4,0.8,1.9c0.5,0.5,1.2,0.9,1.9,0.9c1.5,0,2.8-1.2,2.8-2.7
		C24,35,22.8,33.8,21.2,33.8L21.2,33.8z"/>
	<g>
		<path id="_219760072" class="st0" d="M38.7,26.1L38.7,26.1c1.9,0,3.5,1.6,3.5,3.5v7c0,1.9-1.6,3.5-3.5,3.5l0,0
			c-1.9,0-3.5-1.6-3.5-3.5v-7C35.2,27.7,36.8,26.1,38.7,26.1z"/>
		<path class="st1" d="M38.7,43.2c-1.8,0-3.5-0.7-4.7-1.9c-1.3-1.3-1.9-2.9-1.9-4.7c0-0.2,0.1-0.3,0.2-0.4c0.1-0.1,0.2-0.2,0.4-0.2
			c0.4,0,0.6,0.2,0.6,0.5c0,1.5,0.6,2.8,1.6,3.8s2.4,1.6,3.9,1.6c1.5,0,2.8-0.5,3.9-1.6c1-1,1.6-2.4,1.6-3.8c0-0.3,0.2-0.5,0.6-0.5
			c0.2,0,0.4,0.1,0.4,0.2c0.1,0.1,0.2,0.2,0.2,0.4c0,1.8-0.7,3.4-1.9,4.7C42.2,42.6,40.5,43.2,38.7,43.2z"/>
		<line id="_219759064" class="st0" x1="38.7" y1="42.7" x2="38.7" y2="47.7"/>
		<line id="_219755200" class="st0" x1="35.2" y1="47.9" x2="42.2" y2="47.9"/>
	</g>
</g>
</svg>
