<?xml version="1.0" encoding="utf-8"?>
<!-- Generator: Adobe Illustrator 21.0.2, SVG Export Plug-In . SVG Version: 6.00 Build 0)  -->
<svg version="1.1" id="Layer_1" xmlns="http://www.w3.org/2000/svg" xmlns:xlink="http://www.w3.org/1999/xlink" x="0px" y="0px"
	 viewBox="0 0 74 74" style="enable-background:new 0 0 74 74;" xml:space="preserve">
<style type="text/css">
	.st0{fill:#006FAF;}
</style>
<title>Cloud &amp;amp; Infrastructure Services</title>
<path class="st0" d="M37,74C16.6,74,0,57.4,0,37C0,16.6,16.6,0,37,0c20.4,0,37,16.6,37,37C74,57.4,57.4,74,37,74z M37,2
	C17.7,2,2,17.7,2,37s15.7,35,35,35s35-15.7,35-35S56.3,2,37,2z"/>
<g>
	<path class="st0" d="M48.8,50.7c-0.6,0-1.1-0.3-1.2-0.4C41,43.7,31,33.6,30.4,32.9l-0.3-0.4l-0.5,0.1l-0.3,0.1
		c-0.5,0.1-1.1,0.2-1.7,0.2c-0.7,0-1.5-0.2-2.2-0.5c-0.8-0.4-1.9-0.9-2.7-2.8c-0.2-0.5-0.4-1.3-0.4-2c0.8,0.7,1.1,0.9,2.3,1.9
		c0.7,0.5,1.4,0.8,2.2,0.8c1,0,1.9-0.5,2.7-1.4c0.7-0.8,1.1-1.8,1-2.6c-0.1-0.7-0.4-1.2-0.9-1.6c-1.5-1.2-1.9-1.5-2.6-2.1
		c0.3-0.1,0.8-0.1,1.2-0.1c0.5,0,0.9,0.1,1.3,0.2c1.1,0.3,2.5,1.3,3.1,3.2c0.4,1.4,0.1,3,0.1,3c-0.4,1.6,0.5,2.5,1,3
		c0.1,0.1,0.2,0.2,0.2,0.3l0,0.1l15.7,15.9c0,0,0.5,0.5,0.5,1.1c0,0.4-0.2,0.7-0.5,1.1C49.5,50.6,49.2,50.7,48.8,50.7z"/>
	<path class="st0" d="M50.2,43.2c0-0.1,0.1-0.2,0.1-0.3l-0.1-0.1l0.2-0.6c0.1-0.1,0.1-0.3,0.2-0.5c0-0.1,0.1-0.2,0.1-0.4l0.2-0.6
		c0.1-0.5,0.2-1,0.3-1.4l0.1-0.7h2.8c0.9,0,1.5-0.7,1.5-1.6s-0.7-1.6-1.6-1.6l-2.8,0l-0.1-0.7c-0.1-0.8-0.3-1.7-0.6-2.5l-0.1-0.3
		l-0.3-0.8l2.4-1.4c0.7-0.4,1-1.4,0.6-2.1c-0.3-0.5-0.8-0.8-1.3-0.8c-0.3,0-0.5,0.1-0.8,0.2l-1.8,1.1l-0.7,0.4l-0.4-0.7l-0.4-0.4
		c0,0-0.3-0.3-0.4-0.5c-0.4-0.4-0.9-0.8-1.4-1.3l-0.4-0.4l1.4-2.4c0.4-0.7,0.2-1.7-0.6-2.1c-0.2-0.1-0.5-0.2-0.8-0.2
		c-0.6,0-1.1,0.3-1.3,0.8l-1.4,2.4l-0.6-0.2c-0.4-0.2-0.9-0.3-1.4-0.5L40.4,23l-0.6-0.1c0,0-0.4-0.1-0.6-0.1l-0.7-0.1v-2.8
		c0-0.9-0.7-1.6-1.5-1.6s-1.5,0.7-1.5,1.6l0,2.8l-0.1,0c0.4,0.6,0.7,1.3,1,2.1c0,0,0,0.1,0,0.1c0.2,0,0.4,0,0.7,0
		c6.7,0,12.2,5.5,12.2,12.2c0,1.5-0.3,3-0.8,4.4L50.2,43.2z"/>
	<path class="st0" d="M42.4,50.4c-0.5-0.5-1.1-1.1-1.7-1.7c-1.2,0.4-2.4,0.6-3.7,0.6c-6.7,0-12.2-5.5-12.2-12.2c0-0.3,0-0.6,0-0.9
		c-0.3-0.1-0.6-0.2-0.9-0.4c-0.4-0.2-0.8-0.4-1.2-0.6l-0.1,0.3h-2.8c-0.9,0-1.5,0.7-1.5,1.5s0.7,1.6,1.6,1.6l2.8,0l0.1,0.7
		c0.1,0.8,0.3,1.7,0.7,2.6l0.1,0.2l0.3,0.8l-2.4,1.4c-0.7,0.4-1,1.4-0.6,2.1c0.3,0.5,0.8,0.8,1.3,0.8c0.3,0,0.5-0.1,0.8-0.2l1.8-1.1
		l0.7-0.4l0.3,0.7l0.3,0.3c0,0,0.4,0.4,0.5,0.6c0.4,0.4,0.9,0.8,1.3,1.2l0.6,0.4l-1.4,2.4c-0.2,0.4-0.3,0.8-0.2,1.2
		c0.1,0.4,0.4,0.7,0.7,0.9c0.2,0.1,0.5,0.2,0.8,0.2c0.6,0,1.1-0.3,1.3-0.8l1.4-2.4l0.6,0.2c0.4,0.2,0.9,0.3,1.4,0.5l0.3,0.1h0.1
		l0.1,0l0.7,0.1c0.1,0,0.3,0,0.4,0.1l0.7,0.1v2.8c0,0.9,0.7,1.5,1.6,1.5s1.5-0.7,1.5-1.6l0-2.8l0.7-0.1c0.8-0.1,1.7-0.3,2.5-0.6
		L42.4,50.4z"/>
	<path class="st0" d="M26.6,25.9c-0.1,0.1-0.2,0.2-0.2,0.2c0,0,0,0,0,0c-0.1,0.1-0.2,0.1-0.2,0.2c0,0,0,0,0,0
		c-0.1,0.1-0.1,0.1-0.2,0.2c0,0,0,0,0,0c0,0,0,0,0,0c0.2,0.2,0.4,0.3,0.7,0.5c0.3,0.2,0.4,0.2,0.4,0.2c0,0,0.2-0.1,0.5-0.4
		c0.1-0.1,0.2-0.2,0.2-0.3C27.2,26.4,26.9,26.1,26.6,25.9C26.6,25.9,26.6,25.9,26.6,25.9C26.6,25.9,26.6,25.9,26.6,25.9z"/>
</g>
</svg>
