<?xml version="1.0" encoding="utf-8"?>
<!-- Generator: Adobe Illustrator 21.0.2, SVG Export Plug-In . SVG Version: 6.00 Build 0)  -->
<svg version="1.1" id="Layer_1" xmlns="http://www.w3.org/2000/svg" xmlns:xlink="http://www.w3.org/1999/xlink" x="0px" y="0px"
	 viewBox="0 0 74.2 74" style="enable-background:new 0 0 74.2 74;" xml:space="preserve">
<style type="text/css">
	.st0{fill:none;stroke:#006FAF;stroke-width:2;stroke-miterlimit:10;}
	.st1{fill:#006FAF;}
</style>
<title>xass-solutions</title>
<circle class="st0" cx="37.1" cy="37" r="36"/>
<g>
	<path class="st1" d="M42.5,37.8c-0.5-0.2-0.9-0.8-0.9-1.4c-0.4-3.8-3.2-7-7-7.7c-3.9-0.7-7.8,1.3-9.4,5c-0.3,0.8-0.6,1.1-1.5,0.9
		c-2.6-0.7-5.3,0.4-6.8,2.5c-1.6,2-1.9,4.7-0.7,7c1.1,2.4,3.5,3.9,6.2,3.8h17.6c2.5,0,4.6-1.7,5.3-4.1C46,41.4,44.8,38.9,42.5,37.8z
		 M43.6,42.9c-0.2,1.9-1.8,3.3-3.7,3.2c-3,0.1-6,0-9,0h-8.3c-2.8,0.2-5.2-1.8-5.4-4.6c-0.2-2.8,1.8-5.2,4.6-5.4
		c1-0.1,1.9,0.1,2.8,0.6c1.3,0.6,1.6,0.4,1.9-1c0.7-3.5,4-5.8,7.5-5.3c3.4,0.5,6,3.4,5.9,6.9c0,0.8,0,1.4,1,1.6
		C42.7,39.5,43.8,41.2,43.6,42.9z"/>
	<path class="st1" d="M47.9,35.5c-1.3,0.1-2.6-0.7-3.1-1.9c-0.6-1.1-0.5-2.6,0.3-3.6c0.6-0.9,1.6-1.4,2.6-1.4c0.3,0,0.6,0,0.8,0.1
		h0.1c0-0.1,0-0.1,0.1-0.2C49.4,27,51,26,52.7,26c0.2,0,0.5,0,0.7,0.1c1.9,0.3,3.3,1.9,3.5,3.8c0,0.2,0,0.2,0.2,0.3
		c1.2,0.6,1.8,1.9,1.5,3.2c-0.3,1.2-1.4,2.1-2.7,2.1L47.9,35.5L47.9,35.5z M47.9,30.3c-0.5,0-0.9,0.2-1.2,0.5
		c-0.6,0.5-0.7,1.3-0.5,2c0.3,0.7,1,1.2,1.8,1.2h7.7c0.6,0,1.2-0.4,1.3-1.1c0.1-0.6-0.3-1.2-0.9-1.4c-0.7-0.2-0.7-0.7-0.7-1.1
		c0-1.3-0.9-2.5-2.3-2.7h-0.3c-1.3,0-2.4,0.8-2.7,2.1c-0.1,0.3-0.2,0.9-0.8,0.9c-0.2,0-0.4-0.1-0.6-0.2
		C48.4,30.4,48.2,30.3,47.9,30.3L47.9,30.3z"/>
</g>
</svg>
