<?xml version="1.0" encoding="utf-8"?>
<!-- Generator: Adobe Illustrator 21.0.0, SVG Export Plug-In . SVG Version: 6.00 Build 0)  -->
<svg version="1.1" id="Layer_1" xmlns="http://www.w3.org/2000/svg" xmlns:xlink="http://www.w3.org/1999/xlink" x="0px" y="0px"
	 viewBox="0 0 48 39" style="enable-background:new 0 0 48 39;" xml:space="preserve">
<style type="text/css">
	.st0{fill:#9B9B9B;}
</style>
<g>
	<path class="st0" d="M45.5,24.9H33.8v-3.4c0-2.2,1.7-3.9,3.9-3.9c2.2,0,3.9,1.7,3.9,3.9v0.2c0,0.7,0.5,1.2,1.2,1.2
		c0.7,0,1.2-0.5,1.2-1.2v-0.2c0-3.5-2.8-6.4-6.4-6.4c-3.5,0-6.4,2.8-6.4,6.4v3.4h-1.5c-1.1,0-2,0.9-2,2v9.8h0c0,1.1,0.9,2,2,2h15.6
		c1.1,0,2-0.9,2-2v-9.8C47.5,25.7,46.6,24.9,45.5,24.9z M39.2,34.4c0,0.4-0.3,0.7-0.7,0.7H37c-0.4,0-0.7-0.3-0.7-0.7l0.4-2.5
		c-0.5-0.3-0.9-1-0.9-1.6c0-1.1,0.9-2,2-2c1.1,0,2,0.9,2,2c0,0.7-0.4,1.3-0.9,1.6C38.8,31.9,39,33,39.2,34.4z"/>
	<path class="st0" d="M3.4,9h36c0,0,0,3,0,4.3h2.9V1.9c0-0.8-0.6-1.5-1.5-1.5H2c-0.8,0-1.5,0.7-1.5,1.5v32.5c0,0.8,0.6,1.5,1.5,1.5
		h23.9v-2.9H3.4V9z M36.5,3.4c0.8,0,1.5,0.7,1.5,1.5c0,0.8-0.7,1.5-1.5,1.5c-0.8,0-1.5-0.7-1.5-1.5C35,4.1,35.7,3.4,36.5,3.4z
		 M31.3,3.4c0.8,0,1.5,0.7,1.5,1.5c0,0.8-0.7,1.5-1.5,1.5c-0.8,0-1.5-0.7-1.5-1.5C29.8,4.1,30.5,3.4,31.3,3.4z M26,3.4
		c0.8,0,1.5,0.7,1.5,1.5c0,0.8-0.7,1.5-1.5,1.5c-0.8,0-1.5-0.7-1.5-1.5C24.6,4.1,25.2,3.4,26,3.4z"/>
</g>
</svg>
