<?xml version="1.0" encoding="utf-8"?>
<!-- Generator: Adobe Illustrator 21.0.0, SVG Export Plug-In . SVG Version: 6.00 Build 0)  -->
<svg version="1.1" id="Layer_1" xmlns="http://www.w3.org/2000/svg" xmlns:xlink="http://www.w3.org/1999/xlink" x="0px" y="0px"
	 viewBox="0 0 48 41" style="enable-background:new 0 0 48 41;" xml:space="preserve">
<style type="text/css">
	.st0{fill:#9B9B9B;}
</style>
<g id="Ebene_2">
</g>
<path class="st0" d="M45.7,25.9h-3.6v-5.4c0-1-0.8-1.8-1.8-1.8H25.8v-3.6h3.6c1,0,1.8-0.8,1.8-1.8V2.4c0-1-0.8-1.8-1.8-1.8H18.6
	c-1,0-1.8,0.8-1.8,1.8v10.8c0,1,0.8,1.8,1.8,1.8h3.6v3.6H7.7c-1,0-1.8,0.8-1.8,1.8v5.4H2.3c-1,0-1.8,0.8-1.8,1.8v10.8
	c0,1,0.8,1.8,1.8,1.8h10.8c1,0,1.8-0.8,1.8-1.8V27.7c0-1-0.8-1.8-1.8-1.8H9.5v-3.6h12.7v3.6h-3.6c-1,0-1.8,0.8-1.8,1.8v10.8
	c0,1,0.8,1.8,1.8,1.8h10.8c1,0,1.8-0.8,1.8-1.8V27.7c0-1-0.8-1.8-1.8-1.8h-3.6v-3.6h12.7v3.6h-3.6c-1,0-1.8,0.8-1.8,1.8v10.8
	c0,1,0.8,1.8,1.8,1.8h10.8c1,0,1.8-0.8,1.8-1.8V27.7C47.5,26.7,46.7,25.9,45.7,25.9z M11.3,29.5v7.2H4.1v-7.2H11.3z M27.6,29.5v7.2
	h-7.2v-7.2H27.6z M20.4,11.5V4.2h7.2v7.2H20.4z M43.9,36.8h-7.2v-7.2h7.2V36.8z"/>
</svg>
