<?xml version="1.0" encoding="utf-8"?>
<!-- Generator: Adobe Illustrator 21.0.0, SVG Export Plug-In . SVG Version: 6.00 Build 0)  -->
<svg version="1.1" id="Layer_1" xmlns="http://www.w3.org/2000/svg" xmlns:xlink="http://www.w3.org/1999/xlink" x="0px" y="0px"
	 viewBox="0 0 48 43" style="enable-background:new 0 0 48 43;" xml:space="preserve">
<style type="text/css">
	.st0{fill:#9B9B9B;}
</style>
<g>
	<polygon class="st0" points="19.1,5.4 14.2,0.5 0.5,0.5 0.5,11.5 47.5,11.5 47.5,5.4 	"/>
	<path class="st0" d="M0.5,42.5h47V13.3h-47V42.5z M26.1,38.7h-5.3v-5.3h5.3V38.7z M26.1,31.6h-5.3v-5.3h5.3V31.6z M33.4,38.7h-5.3
		v-5.3h5.3V38.7z M30.2,18.2h5.3v5.3h-5.3V18.2z M31.1,25l4.3,2.8l-2.8,4.3l-4.3-2.8L31.1,25z M24.4,17.1l3.8,3.8l-3.8,3.8l-3.8-3.8
		L24.4,17.1z M13.3,19.4h5.3v5.3h-5.3V19.4z M13.3,26.3h5.3v5.3h-5.3V26.3z M13.3,33.5h5.3v5.3h-5.3V33.5z"/>
</g>
</svg>
