<?xml version="1.0" encoding="utf-8"?>
<!-- Generator: Adobe Illustrator 21.0.2, SVG Export Plug-In . SVG Version: 6.00 Build 0)  -->
<svg version="1.1" id="Layer_1" xmlns="http://www.w3.org/2000/svg" xmlns:xlink="http://www.w3.org/1999/xlink" x="0px" y="0px"
	 viewBox="0 0 48 46" style="enable-background:new 0 0 48 46;" xml:space="preserve">
<style type="text/css">
	.st0{fill:#999999;}
</style>
<g id="Layer_1_1_">
</g>
<g>
	<path id="XMLID_2838_" class="st0" d="M0.8,22.4c0,0,1.1-4,6-4.7c0,0-0.2-8,8.3-9.1L19,8.6c0,0,6.6-7.7,14.4-3.5c0,0,7.7,3,6.9,12
		c0,0,7.6,1.4,7.4,7.9c0,0,0,7.3-6.2,9.1H6.9C6.9,34.1-2,31.6,0.8,22.4z"/>
	<path id="XMLID_2827_" class="st0" d="M27.1,39.4c-0.3-1.1-1.2-2-2.3-2.2v-3.1h-1.7v3.1l-0.1,0.1c-1,0.3-1.8,1.2-2.1,2.2H6.3v2.2
		H21l0.3,0.2c0.5,0.9,1.5,1.5,2.7,1.5l0,0l0,0l0,0c1.2,0,2.3-0.7,2.8-1.7h14.8v-2.3H27.1z M24,41.8c-0.9,0-1.5-0.7-1.5-1.5
		s0.7-1.5,1.5-1.5s1.5,0.7,1.5,1.5S24.8,41.8,24,41.8z"/>
</g>
</svg>
