<?xml version="1.0" encoding="utf-8"?>
<!-- Generator: Adobe Illustrator 21.0.0, SVG Export Plug-In . SVG Version: 6.00 Build 0)  -->
<svg version="1.1" id="Layer_1" xmlns="http://www.w3.org/2000/svg" xmlns:xlink="http://www.w3.org/1999/xlink" x="0px" y="0px"
	 viewBox="0 0 48 38" style="enable-background:new 0 0 48 38;" xml:space="preserve">
<style type="text/css">
	.st0{fill:#9B9B9B;}
</style>
<g>
	<path class="st0" d="M38.5,11.7c-0.4,0-0.8,0-1.2,0.1C37,5.5,31.7,0.5,25.3,0.5c-5.2,0-9.2,3.8-10.8,8.5c-0.9-0.2-2.3-0.8-3.2-0.8
		c-6,0-10.8,4.8-10.8,10.8c0,6,4.8,10.8,10.8,10.8c0.6,0,1.3,0,2.2,0c0.1,1.4,0.9,2.5,2,3.2h-1.8c-0.9,0-1.7,0.8-1.7,1.7v0.6
		c0,0.9,0.8,1.7,1.7,1.7H19c0.3,0.4,0.8,0.6,1.3,0.6h7.7c0.5,0,1-0.2,1.3-0.6h5.4c0.9,0,1.7-0.8,1.7-1.7v-0.6c0-0.9-0.8-1.7-1.7-1.7
		H33c1.1-0.6,1.9-1.8,2-3.2c1.6,0,2.8,0,3.5,0c5,0,9-4,9-9C47.5,15.7,43.5,11.7,38.5,11.7z M19.9,35.2h-6.2v-0.6h6.2V35.2z
		 M28.1,35.8L28.1,35.8h-7.7v-1.7h3.3v-1.8h1v1.8h3.3V35.8z M34.8,34.6v0.6h-6.2v-0.6H34.8z M33.3,29.7c-0.1,1.1-1.1,2-2.3,2H17.4
		c-1.2,0-2.1-0.9-2.3-2c0-0.1,0-0.2,0-0.3c0-1.3,1-2.3,2.3-2.3H31c1.3,0,2.3,1,2.3,2.3C33.3,29.5,33.3,29.6,33.3,29.7z M31,26.2
		H17.4c-1.3,0-2.3-1-2.3-2.3c0-1.3,1-2.3,2.3-2.3H31c1.3,0,2.3,1,2.3,2.3C33.3,25.2,32.3,26.2,31,26.2z M31,20.7H17.4
		c-1.3,0-2.3-1-2.3-2.3s1-2.3,2.3-2.3H31c1.3,0,2.3,1,2.3,2.3C33.3,19.7,32.3,20.7,31,20.7z"/>
	<circle class="st0" cx="30.7" cy="23.9" r="0.8"/>
	<circle class="st0" cx="30.7" cy="18.4" r="0.8"/>
	<path class="st0" d="M30.7,28.7c-0.4,0-0.8,0.4-0.8,0.8c0,0.1,0,0.2,0.1,0.3c0.1,0.3,0.4,0.5,0.7,0.5c0.3,0,0.6-0.2,0.7-0.5
		c0-0.1,0.1-0.2,0.1-0.3C31.5,29,31.1,28.7,30.7,28.7z"/>
</g>
<g id="Layer_1_1_">
</g>
</svg>
