<?xml version="1.0" encoding="utf-8"?>
<!-- Generator: Adobe Illustrator 21.0.0, SVG Export Plug-In . SVG Version: 6.00 Build 0)  -->
<svg version="1.1" id="Layer_1" xmlns="http://www.w3.org/2000/svg" xmlns:xlink="http://www.w3.org/1999/xlink" x="0px" y="0px"
	 viewBox="0 0 48 46" style="enable-background:new 0 0 48 46;" xml:space="preserve">
<style type="text/css">
	.st0{fill:#9B9B9B;}
</style>
<g id="Ebene_2">
</g>
<g>
	<path class="st0" d="M34.7,24.8c-0.9-0.2-1.7-0.3-2.6-0.5c-2.4-0.5-4.7-0.9-7.1-1.4c-0.1-0.1-0.2-0.1-0.3,0c0,0,0.1,0.1,0.2,0.1
		c0.7,0.5,1.5,1,2.2,1.5c0.3,0.2,0.4,0.4,0.2,0.7c-1.2,3.7-2.4,7.5-3.6,11.3c-0.3,0.9-0.6,1.7-0.9,2.7c-0.9-3.6-1.7-7-2.5-10.5
		c0,0-0.1,0-0.1,0c-0.8,3.4-1.7,6.9-2.5,10.4c-0.1-0.2-0.1-0.2-0.1-0.3c-1.5-4.6-2.9-9.2-4.4-13.7c-0.1-0.3,0-0.4,0.2-0.5
		c0.8-0.5,1.6-1.1,2.5-1.7c-0.1,0-0.1,0-0.2,0c-3.3,0.6-6.6,1.3-9.9,1.9c-1.3,0.3-2.2,1.1-2.6,2.4C2.6,30.8,1.8,34.4,1,37.9
		c-0.2,0.7-0.2,1.4-0.5,2c0,0.1,0,0.2,0,0.4c1.2,0.3,2.4,0.8,3.6,1.2c1,0.3,2.1,0.6,2.9,1.4c0.1,0.1,0.2,0.1,0.3,0.2
		c1.7,0.9,3.5,1.5,5.3,1.8c3.3,0.7,6.6,0.8,10,0.7c2.6-0.1,5.2-0.5,7.8-1.2c1.5-0.5,3-1,4.2-2.1c0.1-0.1,0.3-0.2,0.5-0.2
		c1.6-0.6,3.2-1.1,4.8-1.7c0.3-0.1,0.4-0.2,0.3-0.5c-1-4.1-1.9-8.3-2.8-12.5C37.1,25.9,36.2,25.1,34.7,24.8z"/>
	<path class="st0" d="M45.2,0.3c-6.4,0-12.8,0-19.2,0c-0.2,0-0.3,0-0.5,0.1c0.7,0.4,1.4,0.9,1.9,1.5c0.2,0.3,0.5,0.3,0.8,0.3
		c5.7,0,11.3,0,17,0c0.3,0,0.5,0,0.5,0.4c0,4,0,8.1,0,12.1c0,0.3-0.1,0.4-0.4,0.4c-1.4,0-2.8,0-4.1,0c-0.3,0-0.5,0.1-0.7,0.3
		c-1,1-2,2.1-3.1,3.1c-0.1,0.1-0.2,0.3-0.4,0.3c-0.1-0.1,0-0.3,0-0.4c0-0.9,0-1.9,0-2.8c0-0.3-0.1-0.4-0.4-0.4c-1.8,0-3.6,0-5.4,0
		c-0.1,0-0.3,0-0.4,0.1c-0.3,0.6-0.6,1.1-1.1,1.7c0.2,0,0.4,0,0.5,0c1.5,0,2.9,0,4.4,0c0.3,0,0.4,0.1,0.4,0.4c0,1.5,0,2.9,0,4.4
		c0,0.3,0,0.6,0.3,0.7c0.3,0.1,0.5-0.1,0.8-0.3c1.7-1.7,3.3-3.3,5-5c0.2-0.2,0.4-0.3,0.8-0.3c1.2,0,2.4,0,3.7,0
		c0.8,0,1.4-0.4,1.8-1.2c0-0.1,0-0.2,0.1-0.2c0-4.6,0-9.2,0-13.8C47.1,0.7,46.3,0.3,45.2,0.3z"/>
	<path class="st0" d="M13.4,17.6c0.1,0.2,0.1,0.3,0.2,0.4c1.1,2,2.5,3.8,4.5,5.1c0.8,0.5,1.6,0.8,2.5,0.8c1.1-0.1,2-0.6,2.8-1.3
		c2-1.6,3.4-3.7,4.5-6c0.1-0.3,0.3-0.5,0.5-0.7c0.8-0.8,1.2-1.8,1.4-2.9c0.1-0.6,0-1.1-0.6-1.5C29,11.4,29,11.3,29,11.1
		c0-1.2-0.2-2.4-0.4-3.6c-0.4-1.8-1.2-3.4-2.5-4.6c-1.6-1.5-3.5-1.9-5.6-2c-0.4,0-0.9,0-1.3,0.1c-2.4,0.3-4.4,1.4-5.6,3.6
		c-1.2,2-1.6,4.2-1.6,6.5c0,0.3,0,0.5-0.3,0.7c-0.2,0.2-0.4,0.4-0.4,0.7c-0.1,1.2,0.2,2.2,1,3.1C12.7,16.1,13,16.9,13.4,17.6z"/>
	<path class="st0" d="M44.4,6.8c0-0.4-0.1-0.4-0.5-0.4c-2.2,0-4.5,0-6.7,0c-1.3,0-2.6,0-3.9,0c-1,0-2,0-3,0c-0.1,0-0.3-0.1-0.3,0.1
		c0,0.4,0.2,0.7,0.6,0.7c4.4,0,8.8,0,13.3,0C44.2,7.2,44.4,7.2,44.4,6.8z"/>
	<path class="st0" d="M43.9,3.7c-4.9,0-9.8,0-14.6,0c-0.1,0-0.2,0-0.4,0c0.2,0.3,0.2,0.8,0.7,0.8c4.8,0,9.6,0,14.4,0
		c0.3,0,0.4-0.1,0.4-0.4C44.4,3.7,44.2,3.7,43.9,3.7z"/>
	<path class="st0" d="M20.7,24.4c-0.1,0-0.2-0.1-0.3-0.1c-0.7,0.2-1.3,0.5-2,0.7c-0.3,0.1-0.3,0.2-0.1,0.4c0.7,0.9,1.3,1.8,1.9,2.8
		c0.1,0.2,0.2,0.3,0.4,0c0.6-0.9,1.3-1.9,2-2.8c0.2-0.3,0.1-0.3-0.2-0.4C21.8,24.9,21.3,24.7,20.7,24.4z"/>
	<path class="st0" d="M31,9.1c-0.2,0-0.4-0.1-0.4,0.3c0,0.3,0,0.5,0.4,0.5c0.6,0,1.3,0,1.9,0c0.6,0,1.2,0,1.8,0
		c0.3,0,0.4-0.1,0.4-0.4c0-0.3-0.1-0.4-0.4-0.4C33.5,9.1,32.2,9.1,31,9.1z"/>
</g>
</svg>
