<?xml version="1.0" encoding="utf-8"?>
<!-- Generator: Adobe Illustrator 21.0.2, SVG Export Plug-In . SVG Version: 6.00 Build 0)  -->
<svg version="1.1" id="Layer_1" xmlns="http://www.w3.org/2000/svg" xmlns:xlink="http://www.w3.org/1999/xlink" x="0px" y="0px"
	 viewBox="0 0 48 48" style="enable-background:new 0 0 48 48;" xml:space="preserve">
<style type="text/css">
	.st0{fill:#9B9B9B;}
</style>
<g>
	<path class="st0" d="M46.5,2.8H1.5C0.7,2.8,0,3.5,0,4.3v38.5c0,0.8,0.7,1.5,1.5,1.5h44.9c0.8,0,1.5-0.7,1.5-1.5V4.3
		C48,3.5,47.3,2.8,46.5,2.8z M45,41.4H3V5.8h42V41.4z"/>
	<path class="st0" d="M5.4,13.7h37.2c0.4,0,0.7-0.3,0.7-0.7c0-0.4-0.3-0.7-0.7-0.7H5.4c-0.4,0-0.7,0.3-0.7,0.7
		C4.7,13.4,5,13.7,5.4,13.7z"/>
	<path class="st0" d="M34,10.3c0.7,0,1.2-0.6,1.2-1.2c0-0.7-0.6-1.2-1.2-1.2s-1.2,0.6-1.2,1.2S33.3,10.3,34,10.3z"/>
	<path class="st0" d="M38,10.3c0.7,0,1.2-0.6,1.2-1.2c0-0.7-0.6-1.2-1.2-1.2s-1.2,0.6-1.2,1.2S37.4,10.3,38,10.3z"/>
	<path class="st0" d="M42.1,10.3c0.7,0,1.2-0.6,1.2-1.2c0-0.7-0.6-1.2-1.2-1.2s-1.2,0.6-1.2,1.2S41.4,10.3,42.1,10.3z"/>
	<path class="st0" d="M23.9,22.7c1,0,1.8,0.5,2.3,1.3l1.8,0.6c-0.3-1.9-2.1-3.4-4.1-3.4c-2.3,0-4.2,1.9-4.2,4.2c0,2,1.4,3.7,3.3,4.1
		l-0.6-1.8c-0.7-0.5-1.2-1.3-1.2-2.2C21.3,23.9,22.5,22.7,23.9,22.7z"/>
	<path class="st0" d="M18.3,25.4c0-3.1,2.5-5.6,5.6-5.6c3,0,5.5,2.4,5.6,5.4l1.5,0.5c0-0.1,0-0.2,0-0.3c0-3.9-3.2-7.1-7.1-7.1
		s-7.1,3.2-7.1,7.1s3.2,7.1,7.1,7.1c0.1,0,0.2,0,0.3,0L23.7,31C20.7,30.9,18.3,28.4,18.3,25.4z"/>
	<path class="st0" d="M34.5,32.4l2-2c0.4-0.4,0.3-1.1-0.2-1.3l-5.4-1.9l-1.4-0.5L28,26.2l-1.4-0.5L24.6,25c-0.1,0-0.2-0.1-0.3-0.1
		c-0.6,0-1,0.6-0.7,1.2l0.7,1.9l0.5,1.4l0.5,1.4l0.5,1.4l1.9,5.4c0.1,0.3,0.4,0.5,0.7,0.5c0.2,0,0.4-0.1,0.6-0.2l2-2l3.6,3.6
		c0.2,0.2,0.4,0.3,0.7,0.3s0.5-0.1,0.7-0.3l2.2-2.2c0.4-0.4,0.4-1,0-1.3L34.5,32.4z"/>
</g>
</svg>
