<?xml version="1.0" encoding="utf-8"?>
<!-- Generator: Adobe Illustrator 21.0.0, SVG Export Plug-In . SVG Version: 6.00 Build 0)  -->
<svg version="1.1" id="Layer_1" xmlns="http://www.w3.org/2000/svg" xmlns:xlink="http://www.w3.org/1999/xlink" x="0px" y="0px"
	 viewBox="0 0 48 46" style="enable-background:new 0 0 48 46;" xml:space="preserve">
<style type="text/css">
	.st0{fill:#9B9B9B;}
</style>
<g>
	<path class="st0" d="M21.2,40.7l-0.4-0.6c-2.3,0.1-4.5,0-6.7-0.2c-2.7-0.3-5.4-0.9-7.8-2.1c-0.9-0.4-1.8-1-2.4-1.7
		C3.3,35.5,3,34.8,3,34c0-1.4,0-2.7,0-4.1c0-0.1,0-0.3,0-0.5c2.5,2.2,5.5,3,8.5,3.6c2.3,0.4,4.7,0.6,7,0.6c0-0.2,0-0.3,0-0.5v-0.8
		v-0.1c-1.4,0-2.8-0.1-4.1-0.2c-2.9-0.3-5.8-0.8-8.4-2.3c-0.8-0.4-1.4-1-2.1-1.6C3.3,27.6,3,26.9,3,26.1c0-1.5,0-3.1,0-4.7
		c2.4,2.1,5.2,2.9,8.1,3.5c2.9,0.5,5.7,0.8,8.6,0.7c0-0.2,0.1-0.4,0.2-0.6l0.4-0.7l0-0.1c-2.8,0.1-5.7,0-8.5-0.5
		c-2.1-0.4-4.2-0.9-6.1-2c-0.8-0.4-1.6-1-2.2-1.7C3.2,19.5,3,18.9,3,18.2c0-1.4,0-2.9,0-4.2c1.1,0.6,2.2,1.2,3.3,1.6
		c2.7,1.1,5.6,1.6,8.5,1.9c3.1,0.3,6.2,0.2,9.3-0.2c2.8-0.4,5.7-1,8.2-2.3c0.7-0.3,1.2-0.7,1.9-1.1c0,0.1,0,0.2,0,0.3
		c0,0.7,0,1.3,0,1.9h1.1h0.7c0.3,0,0.6,0,0.9,0.2c0-2.3,0-4.6,0-6.8c0-1.8-0.7-3.2-1.9-4.4c-1.1-1-2.4-1.7-3.7-2.3
		c-2.9-1.2-5.9-1.7-8.9-2c-4.5-0.4-8.9-0.1-13.2,1C7,2.4,4.9,3.2,3,4.6C1.3,5.9,0.5,7.5,0.5,9.7c0,8.1,0,16.1,0,24.1
		c0,1.8,0.7,3.3,2,4.6c1.2,1.1,2.6,1.8,4.1,2.4c2.7,1,5.6,1.6,8.5,1.8c2.8,0.2,5.5,0.2,8.2-0.1c0-0.3,0-0.5,0.1-0.8
		c-0.1,0-0.2,0-0.4,0C22.3,41.8,21.6,41.4,21.2,40.7z M3.6,7.7c0.5-0.6,1.2-1.2,1.9-1.6c1.8-1.2,3.9-1.7,5.9-2.1
		c5.4-1,10.7-0.9,16.1,0.3c1.6,0.4,3.2,0.9,4.5,1.8c0.7,0.4,1.3,0.9,1.8,1.6c0.8,0.9,0.8,2.1,0,3.2c-0.6,0.8-1.4,1.3-2.2,1.8
		c-2,1.1-4.1,1.7-6.3,2c-2.2,0.3-4.3,0.5-5.5,0.6c-4.8-0.1-8.4-0.4-11.9-1.7c-1.2-0.4-2.4-1-3.4-1.8c-0.6-0.5-1.1-1-1.3-1.8
		C2.9,9.1,3.1,8.3,3.6,7.7z"/>
	<path class="st0" d="M44.9,34.5l2.6-0.4l-0.2-0.8v-1.8v-0.7l-2.4-0.4c0-0.6-0.2-1.1-0.3-1.6l2.1-1.6l-0.4-0.6l-0.9-1.6L45,24.3
		l-2.2,0.9c-0.3-0.5-0.7-0.9-1.1-1.3l0.9-2.4L42,21l-1.6-0.9l-0.6-0.4l-1.5,1.8c-0.4-0.1-0.8-0.3-1.3-0.4c-0.1,0-0.3-0.1-0.4-0.1
		l-0.4-2.5h-0.7h-1.1h-0.8H33l-0.4,2.3c-0.6,0.1-1.2,0.2-1.7,0.4l-0.6-0.8l-0.9-1.2l0,0l-0.6,0.3l-1.6,0.9l-0.5,0.4l0.8,2.2
		c-0.2,0.1-0.4,0.3-0.6,0.5c-0.2,0.2-0.5,0.5-0.7,0.7l-1-0.4l-1.5-0.6l-0.4,0.6L23.3,24l-0.8,1.4l-0.4,0.6l1.9,1.5
		c-0.2,0.6-0.4,1.1-0.5,1.6l-2.6,0.4v0.8v1.7v0.1V33l2.1,0.3l0.3,0c0,0.6,0.2,1.1,0.3,1.6l-2.1,1.6l0.4,0.6l0.9,1.6l0.4,0.6l2.3-0.9
		c0.2,0.3,0.4,0.5,0.6,0.8c0.1,0.2,0.3,0.4,0.5,0.6l-0.8,2.2l-0.1,0.3l0.6,0.4l1.6,0.9l0.6,0.4l1.5-1.8c0.6,0.2,1.1,0.4,1.7,0.6
		l0.4,2.5h0.7h1.8h0.7l0.4-2.3c0.6-0.1,1.2-0.2,1.7-0.4l1.6,2l0.6-0.4l1.6-0.9l0.6-0.4L41,40.7c0.5-0.4,0.9-0.8,1.3-1.2l2.4,0.9
		l0.4-0.6l0.9-1.6l0.4-0.6l-1.9-1.5C44.6,35.6,44.8,35.1,44.9,34.5z M34.1,39.8c-0.3,0-0.6,0-0.9,0c-1.3-0.1-2.4-0.6-3.4-1.3
		c-1.8-1.2-3-3.2-3.3-5.6c0-0.3,0-0.6,0-0.9c0-0.1,0-0.3,0-0.4c0.2-4.2,3.6-7.5,7.7-7.5c0.1,0,0.2,0,0.4,0c0.9,0,1.8,0.3,2.6,0.6
		c2.8,1.2,4.8,4,4.8,7.3C41.8,36.2,38.4,39.8,34.1,39.8z"/>
</g>
</svg>
