<?xml version="1.0" encoding="utf-8"?>
<!-- Generator: Adobe Illustrator 21.0.0, SVG Export Plug-In . SVG Version: 6.00 Build 0)  -->
<svg version="1.1" id="Layer_1" xmlns="http://www.w3.org/2000/svg" xmlns:xlink="http://www.w3.org/1999/xlink" x="0px" y="0px"
	 viewBox="0 0 48 39" style="enable-background:new 0 0 48 39;" xml:space="preserve">
<style type="text/css">
	.st0{fill:#9B9B9B;}
</style>
<g>
	<path class="st0" d="M46.1,0.7H24.4h-0.7H1.9C1.2,0.7,0.5,1.3,0.5,2v26.8v0.1v2.5v0.2c0,0.8,0.7,1.4,1.4,1.4h17.4
		c0,0.4-0.2,2.4-1.1,3.3c-0.7,0.7-1.7,1.4-1.3,1.8c0.1,0.2,0.5,0.3,1.6,0.3c2.2,0,4.7,0,5.5,0c0.2,0,0.3,0,0.3,0c0.9,0,3.3,0,5.5,0
		c1.2,0,1.6-0.2,1.6-0.5h0v-0.1h0c-0.1-0.4-0.8-0.9-1.4-1.5c-0.9-0.9-1-2.8-1.1-3.3h17.2c0.8,0,1.4-0.6,1.4-1.4v-0.2v-2.5v-0.1V2
		C47.5,1.3,46.9,0.7,46.1,0.7z M24,31.6c-0.5,0-0.9-0.4-0.9-0.9c0-0.5,0.4-0.9,0.9-0.9c0.5,0,0.9,0.4,0.9,0.9
		C24.9,31.2,24.5,31.6,24,31.6z M45.5,26.8h-43V2.6h43V26.8z"/>
	<path class="st0" d="M16,23.2h5.5v-1.8h1.8v1.8h-1.8v0h1.8h1.8H27v0h-1.8v-1.8H27v1.8h6v0c2.8,0,5-2.3,5-5c0-2.8-2.3-5-5-5.1
		c0-0.1,0-0.1,0-0.2c0-3.9-3.2-7.1-7.1-7.1c-2.8,0-5.3,1.7-6.4,4.1c-0.5-0.2-1-0.4-1.6-0.4c-1.8,0-3.3,1.3-3.6,3.1
		c-2.2,0.7-3.7,2.8-3.7,5.2C10.5,20.7,12.9,23.2,16,23.2z M15.1,13.9l0.5-0.2l0.1-0.5c0.1-1.4,1.2-2,2.2-2c1.4-0.1,2.5,0.8,2.5,0.8
		s1.2-4.5,5.6-4.5c3.6,0,5.4,3,5.4,6l0,0.1c0,0,0,0.1,0,0.1l0,0.8l0.7,0c2,0,4.2,1.5,4.2,3.5c0,2-1.6,3.2-3.7,3.2h-7.4v-6.4l2.5,2.5
		l1.1-1.1l-4.1-4.1h-0.9l-4.1,4.1l1.1,1.1l2.5-2.5v6.4h-7.8c-2.3,0-3.1-2.5-3.2-3.7C12.2,15.9,13.5,14.5,15.1,13.9z"/>
</g>
</svg>
