<?xml version="1.0" encoding="utf-8"?>
<!-- Generator: Adobe Illustrator 21.0.0, SVG Export Plug-In . SVG Version: 6.00 Build 0)  -->
<svg version="1.1" id="Layer_1" xmlns="http://www.w3.org/2000/svg" xmlns:xlink="http://www.w3.org/1999/xlink" x="0px" y="0px"
	 viewBox="0 0 48 38" style="enable-background:new 0 0 48 38;" xml:space="preserve">
<style type="text/css">
	.st0{fill:#9B9B9B;}
</style>
<g>
	<path class="st0" d="M9.8,31.5l1.9,3.5h4.8l-2.9-5.5c1.4-1.7,1.7-4.1,0.6-6.2c-1.1-2.1-3.4-3.2-5.6-2.9L11,25l-1.2,2l-2.4-0.1
		L5,22.3c-1.5,1.7-1.8,4.2-0.7,6.3C5.4,30.6,7.6,31.7,9.8,31.5z"/>
	<path class="st0" d="M29.2,29.5c-1.1-2.4-4-3.4-6.5-2.3c-2.4,1.1-3.4,4-2.3,6.5c0.2,0.5,0.5,0.9,0.9,1.2h2.3
		c-0.8-0.3-1.5-0.9-2-1.8c-0.9-1.8-0.1-3.9,1.7-4.7c1.8-0.9,3.9-0.1,4.7,1.7c0.8,1.8,0.1,3.9-1.7,4.7c-0.1,0-0.2,0.1-0.3,0.1h2.3
		C29.7,33.5,30.1,31.4,29.2,29.5z"/>
	<path class="st0" d="M14.3,30l2.6,1.3c0,0.5,0,1,0.1,1.6l-0.8,0.5L17,35h3.7c-0.3-0.3-0.5-0.6-0.7-1c-1.3-2.6-0.1-5.8,2.5-7.1
		c2.6-1.3,5.8-0.1,7.1,2.5c0.9,1.9,0.6,4.1-0.7,5.6h6.5l0.3-0.9c0.1-0.3,0-0.6-0.3-0.8L32.7,32c0-0.5,0-1-0.1-1.6l2.5-1.6
		c0.3-0.2,0.4-0.5,0.2-0.8l-1.1-2.4c-0.1-0.3-0.5-0.4-0.8-0.3l-2.8,0.9c-0.4-0.4-0.8-0.7-1.2-1l0.6-2.9c0.1-0.3-0.1-0.6-0.4-0.7
		l-2.5-0.9c-0.3-0.1-0.6,0-0.8,0.3l-1.3,2.6c-0.5,0-1,0-1.6,0.1l-1.6-2.5c-0.2-0.3-0.5-0.4-0.8-0.2l-2.4,1.1
		c-0.3,0.1-0.4,0.5-0.3,0.8l0.9,2.8c-0.4,0.4-0.7,0.8-1,1.2l-2.8-0.6c0,1.3-0.5,2.6-1.3,3.6L14.3,30z"/>
	<path class="st0" d="M35.8,33.2c0.3,0.1,0.4,0.5,0.3,0.8L35.8,35h1.9l1.6-2.8c0.3-0.6,0.1-1.3-0.4-1.7l0,0l3.9-6.7l0.1,0.1
		c0.1,0.1,0.3,0,0.4-0.1l1.2-2.5c0.1-0.1,0-0.3-0.1-0.4l-0.7-0.4c-0.1-0.1-0.3,0-0.4,0.1l-1.6,2.3c-0.1,0.1,0,0.3,0.1,0.4l0.1,0.1
		L37.9,30l0,0c-0.6-0.3-1.3-0.1-1.7,0.4l-1.4,2.4L35.8,33.2z"/>
	<path class="st0" d="M43.1,0.4H4.9c-2.4,0-4.4,2-4.4,4.4v28.4c0,2.4,2,4.4,4.4,4.4h38.2c2.4,0,4.4-2,4.4-4.4V4.8
		C47.5,2.4,45.5,0.4,43.1,0.4z M42.6,3.2c0.6,0,1,0.5,1,1s-0.5,1-1,1c-0.6,0-1-0.5-1-1S42.1,3.2,42.6,3.2z M34.7,3.3h4.9
		c0.5,0,0.9,0.4,0.9,0.9s-0.4,0.9-0.9,0.9h-4.9c-0.5,0-0.9-0.4-0.9-0.9S34.2,3.3,34.7,3.3z M45.1,33.2L45.1,33.2c0,1.1-0.9,2-2,2
		H4.9c-1.1,0-2-0.9-2-2V7.6h42.2L45.1,33.2L45.1,33.2z"/>
</g>
</svg>
