<?xml version="1.0" encoding="utf-8"?>
<!-- Generator: Adobe Illustrator 21.0.0, SVG Export Plug-In . SVG Version: 6.00 Build 0)  -->
<svg version="1.1" id="Layer_1" xmlns="http://www.w3.org/2000/svg" xmlns:xlink="http://www.w3.org/1999/xlink" x="0px" y="0px"
	 viewBox="0 0 48 46" style="enable-background:new 0 0 48 46;" xml:space="preserve">
<style type="text/css">
	.st0{fill:#9B9B9B;}
</style>
<g id="Layer_1_1_">
</g>
<g>
	<path class="st0" d="M46.2,0.3H1.8c-0.7,0-1.3,0.6-1.3,1.3v26.1v0.6v3.1c0,0.8,0.6,1.5,1.3,1.5h10c0.3-0.1,0.7-0.3,1.1-0.4
		c0.7-0.3,1.4-0.6,2.2-0.9c1.7-0.7,2.7-1.1,3.2-1.4l0-1.7c-0.3-0.3-0.6-0.8-0.8-1.4H3.1V3.5h41.6V27H30.5c-0.3,0.6-0.6,1.1-0.8,1.4
		l0,1.7c0.6,0.3,1.6,0.7,3.2,1.4c0.7,0.3,1.5,0.6,2.2,0.9c0.4,0.1,0.7,0.3,1.1,0.4h10c0.7,0,1.3-0.7,1.3-1.5v-3.1v-0.6V1.6
		C47.5,0.9,46.9,0.3,46.2,0.3z"/>
	<path class="st0" d="M43.7,37.3c-1.8-1.4-4.8-2.5-8.5-3.2c-0.9-0.4-1.9-0.7-2.9-1.1c-0.1,0-0.1,0-0.2-0.1c-3.2-1.3-3.9-1.8-3.9-1.8
		l0-3.2c0,0,0.3-0.2,0.7-0.8c0.4-0.6,0.8-1.6,1-3.1c0.8,0.2,1.6-1.2,1.6-1.9c0-0.7-0.1-2.7-1.1-2.5c0.2-1.5,0.3-2.8,0.3-3.5
		c-0.2-2.6-2.8-5.3-6.7-5.3c-3.9,0-6.4,2.7-6.7,5.3c-0.1,0.7,0.1,2,0.3,3.5c-1-0.2-1.1,1.8-1.1,2.5c0,0.7,0.9,2.1,1.6,1.9
		c0.2,1.5,0.6,2.5,1,3.1c0.4,0.6,0.7,0.8,0.7,0.8l0,3.2c0,0-0.8,0.5-3.9,1.8c-0.1,0-0.1,0-0.2,0.1c-0.6,0.2-1.2,0.5-1.7,0.7
		c-4.3,0.7-7.9,1.9-9.7,3.6c-1.2,1.2,0,8.5,0,8.5h39.5C43.7,45.7,45.1,38.3,43.7,37.3z"/>
	<polygon class="st0" points="8.9,7.8 8.9,6.7 5.6,8.2 5.6,9 8.9,10.5 8.9,9.4 6.7,8.6 6.7,8.6 	"/>
	<polygon class="st0" points="10.5,11.2 12.6,5.1 11.5,5.1 9.4,11.2 	"/>
	<polygon class="st0" points="13.1,9.4 13.1,10.5 16.5,9 16.5,8.2 13.1,6.7 13.1,7.8 15.4,8.6 15.4,8.6 	"/>
</g>
</svg>
