<?xml version="1.0" encoding="utf-8"?>
<!-- Generator: Adobe Illustrator 21.0.0, SVG Export Plug-In . SVG Version: 6.00 Build 0)  -->
<svg version="1.1" id="Layer_1" xmlns="http://www.w3.org/2000/svg" xmlns:xlink="http://www.w3.org/1999/xlink" x="0px" y="0px"
	 viewBox="0 0 48 37" style="enable-background:new 0 0 48 37;" xml:space="preserve">
<style type="text/css">
	.st0{fill:#9B9B9B;}
</style>
<g>
	<path class="st0" d="M27.2,19.6l-2.3-1.4c-0.6-0.5-0.9-0.3-1,0c-0.1,1.3,1,3,1.7,3.8c0.8,0.8,1.9,1.6,2.8,1.5
		c1.4,0,2.6-0.2,3.5,0.6l0.9,0.9l2.9-2.9l-0.9-0.9c-0.8-0.9-1-2.3-1-3.7c0-1.3-0.2-2.1-0.9-2.8c-1.6-1.5-3.6-1.9-6.2-1.2
		c-0.2,0.1-0.3,0.4-0.1,0.5l2.6,1.5c1.3,0.9,0.9,2,0.5,2.9C29.3,19.2,28.3,20.2,27.2,19.6z"/>
	<path class="st0" d="M46.8,33.1L38.7,25L35.7,28l8.1,8.1c0.4,0.5,0.8,0.7,1.5,0.7c1.2,0,2.2-1,2.2-2.2C47.5,34.1,47,33.5,46.8,33.1
		z M44.9,35.3c-0.6,0-1.1-0.5-1.1-1.1s0.5-1.1,1.1-1.1c0.6,0,1.1,0.5,1.1,1.1C46,34.8,45.5,35.3,44.9,35.3z"/>
	<path class="st0" d="M42.3,19.9h1.5l3.7-3.7l-3-3l-3.7,3.7v1.5L32,27.2l-0.8-0.8l-6.7,6.7l0,0c-0.4,0.4-0.6,0.9-0.6,1.5
		c0,1.2,0.9,2.1,2.1,2.1c0.6,0,1.1-0.2,1.5-0.6l0,0l6.7-6.7l-0.8-0.8L42.3,19.9z"/>
	<path class="st0" d="M3.2,8.1h33.5c0,0,0,2.3,0,3.1h2.7V1.6c0-0.7-0.6-1.3-1.3-1.3H1.8c-0.7,0-1.3,0.6-1.3,1.3v30.2
		c0,0.7,0.6,1.3,1.3,1.3h20.4v-2.7H3.2V8.1z M34,2.9c0.8,0,1.4,0.6,1.4,1.4c0,0.8-0.6,1.4-1.4,1.4c-0.8,0-1.4-0.6-1.4-1.4
		C32.6,3.6,33.2,2.9,34,2.9z M29.1,2.9c0.8,0,1.4,0.6,1.4,1.4c0,0.8-0.6,1.4-1.4,1.4c-0.8,0-1.4-0.6-1.4-1.4
		C27.7,3.6,28.3,2.9,29.1,2.9z M24.2,2.9c0.8,0,1.4,0.6,1.4,1.4c0,0.8-0.6,1.4-1.4,1.4c-0.8,0-1.4-0.6-1.4-1.4
		C22.9,3.6,23.5,2.9,24.2,2.9z"/>
</g>
</svg>
