<?xml version="1.0" encoding="utf-8"?>
<!-- Generator: Adobe Illustrator 21.0.0, SVG Export Plug-In . SVG Version: 6.00 Build 0)  -->
<svg version="1.1" id="Layer_1" xmlns="http://www.w3.org/2000/svg" xmlns:xlink="http://www.w3.org/1999/xlink" x="0px" y="0px"
	 viewBox="0 0 48 48" style="enable-background:new 0 0 48 48;" xml:space="preserve">
<style type="text/css">
	.st0{fill:#9B9B9B;}
</style>
<g>
	<path class="st0" d="M45.4,6.7l-33,0l-0.9-4.2c-0.1-0.9-0.9-1.7-1.9-1.7H2.4c-1.1,0-1.9,0.9-1.9,1.9c0,1.1,0.9,1.9,1.9,1.9H8
		l4.5,20c-2.6,1.1-4.1,3.5-4.1,6.3c0,3.7,3,6.8,6.7,6.8h25.6c1.1,0,1.9-0.9,1.9-1.9c0-1.1-0.9-1.9-1.9-1.9H15.1
		c-1.6,0-2.8-1.3-2.8-2.9c0-1.7,1.1-2.8,2.7-3l27.1-3c0.8-0.1,1.5-0.7,1.7-1.5l3.6-14.4C47.8,7.8,46.7,6.7,45.4,6.7z"/>
	<path class="st0" d="M14.8,39.4c-2.1,0-3.9,1.7-3.9,3.9c0,2.1,1.7,3.9,3.9,3.9c2.1,0,3.9-1.7,3.9-3.9
		C18.6,41.1,16.9,39.4,14.8,39.4z M14.8,44.9c-0.9,0-1.6-0.7-1.6-1.6s0.7-1.6,1.6-1.6c0.9,0,1.6,0.7,1.6,1.6
		C16.4,44.2,15.7,44.9,14.8,44.9z"/>
	<path class="st0" d="M37.9,39.4c-2.1,0-3.9,1.7-3.9,3.9c0,2.1,1.7,3.9,3.9,3.9c2.1,0,3.9-1.7,3.9-3.9
		C41.8,41.1,40.1,39.4,37.9,39.4z M37.9,44.9c-0.9,0-1.6-0.7-1.6-1.6s0.7-1.6,1.6-1.6c0.9,0,1.6,0.7,1.6,1.6
		C39.6,44.2,38.8,44.9,37.9,44.9z"/>
</g>
</svg>
