<?xml version="1.0" encoding="utf-8"?>
<!-- Generator: Adobe Illustrator 21.0.0, SVG Export Plug-In . SVG Version: 6.00 Build 0)  -->
<svg version="1.1" id="Layer_1" xmlns="http://www.w3.org/2000/svg" xmlns:xlink="http://www.w3.org/1999/xlink" x="0px" y="0px"
	 viewBox="0 0 48 41" style="enable-background:new 0 0 48 41;" xml:space="preserve">
<style type="text/css">
	.st0{fill:#9B9B9B;}
</style>
<g>
	<path class="st0" d="M45.8,28.3H35.3v-3.1c0-2,1.5-3.5,3.5-3.5s3.5,1.5,3.5,3.5v0.2c0,0.6,0.5,1.1,1.1,1.1c0.6,0,1.1-0.5,1.1-1.1
		v-0.2c0-3.2-2.5-5.8-5.8-5.8c-3.2,0-5.8,2.5-5.8,5.8v3.1h-1.4c-1,0-1.8,0.8-1.8,1.8V39c0,1,0.8,1.8,1.8,1.8h14.1
		c1,0,1.8-0.8,1.8-1.8v-8.9C47.7,29,46.8,28.3,45.8,28.3z M39.9,34.7c-0.1,0,0.1,1,0.3,2.3c0,0.4-0.3,0.6-0.6,0.6h-1.4
		c-0.4,0-0.6-0.3-0.6-0.6l0.4-2.3c-0.5-0.3-0.8-0.9-0.8-1.4c0-1,0.8-1.8,1.8-1.8c1,0,1.8,0.8,1.8,1.8C40.7,33.8,40.3,34.4,39.9,34.7
		z"/>
	<path class="st0" d="M31.2,27c0,0-1-5.6,3.9-7.9L25.7,2.6c-0.8-1.4-2.4-2.4-4-2.4s-3.2,0.9-4,2.4L1.1,31.9c-0.8,1.4-0.8,3.2,0,4.5
		c0.8,1.4,2.4,2.3,4,2.3h23.2l0,0V28.6C28.3,28.6,29,26.9,31.2,27z M24,33.3c-0.5,0.5-1.3,0.7-2,0.7s-1.4-0.3-2-0.7
		c-0.5-0.5-0.9-1.2-0.9-2.1c0-0.8,0.3-1.4,0.8-2c0.5-0.5,1.3-0.8,2-0.8c0.8,0,1.4,0.3,2,0.8c0.5,0.5,0.8,1.2,0.8,2
		C24.9,32.1,24.6,32.8,24,33.3z M24.7,14.4L24,22.7c-0.1,1-0.3,1.8-0.5,2.4c-0.3,0.6-0.8,1-1.5,1c-0.7,0-1.3-0.4-1.5-0.9
		c-0.3-0.5-0.5-1.4-0.5-2.4l-0.5-8.1c-0.1-1.6-0.2-2.7-0.2-3.4c0-1,0.3-1.8,0.8-2.4c0.5-0.5,1.3-0.9,2.2-0.9c1.1,0,1.8,0.4,2.2,1.2
		c0.4,0.7,0.5,1.7,0.5,3C24.9,12.9,24.8,13.7,24.7,14.4z"/>
</g>
</svg>
