<?xml version="1.0" encoding="utf-8"?>
<!-- Generator: Adobe Illustrator 21.0.0, SVG Export Plug-In . SVG Version: 6.00 Build 0)  -->
<svg version="1.1" id="Layer_1" xmlns="http://www.w3.org/2000/svg" xmlns:xlink="http://www.w3.org/1999/xlink" x="0px" y="0px"
	 viewBox="0 0 48 48" style="enable-background:new 0 0 48 48;" xml:space="preserve">
<style type="text/css">
	.st0{fill:#9B9B9B;}
</style>
<g>
	<path class="st0" d="M0.9,17.2c-0.3,0.3-0.4,0.6-0.4,0.9v0.6c0,0.3,0.1,0.7,0.4,0.9C1.1,19.9,1.5,20,1.8,20h1.9v-3.2H1.8
		C1.5,16.9,1.1,17,0.9,17.2z"/>
	<path class="st0" d="M0.9,22.8c-0.3,0.3-0.4,0.6-0.4,0.9v0.6c0,0.3,0.1,0.7,0.4,0.9c0.3,0.3,0.6,0.4,0.9,0.4h1.9v-3.2H1.8
		C1.5,22.4,1.1,22.5,0.9,22.8z"/>
	<path class="st0" d="M0.9,11.7c-0.3,0.3-0.4,0.6-0.4,0.9v0.6c0,0.3,0.1,0.7,0.4,0.9c0.3,0.3,0.6,0.4,0.9,0.4h1.9v-3.2H1.8
		C1.5,11.3,1.1,11.4,0.9,11.7z"/>
	<path class="st0" d="M36.7,1.8c0-0.3-0.1-0.7-0.4-0.9c-0.3-0.3-0.6-0.4-0.9-0.4h-0.6c-0.3,0-0.7,0.1-0.9,0.4
		c-0.3,0.3-0.4,0.6-0.4,0.9v1.9h3.2V1.8z"/>
	<path class="st0" d="M11.3,46.2c0,0.3,0.1,0.7,0.4,0.9c0.3,0.3,0.6,0.4,0.9,0.4h0.6c0.3,0,0.7-0.1,0.9-0.4c0.3-0.3,0.4-0.6,0.4-0.9
		v-1.9h-3.2V46.2z"/>
	<path class="st0" d="M0.9,33.9c-0.3,0.3-0.4,0.6-0.4,0.9v0.6c0,0.3,0.1,0.7,0.4,0.9c0.3,0.3,0.6,0.4,0.9,0.4h1.9v-3.2H1.8
		C1.5,33.5,1.1,33.6,0.9,33.9z"/>
	<path class="st0" d="M14.5,1.8c0-0.3-0.1-0.7-0.4-0.9c-0.3-0.3-0.6-0.4-0.9-0.4h-0.6c-0.3,0-0.7,0.1-0.9,0.4
		c-0.3,0.3-0.4,0.6-0.4,0.9v1.9h3.2V1.8z"/>
	<path class="st0" d="M25.6,1.8L25.6,1.8c0-0.3-0.1-0.7-0.4-0.9c-0.3-0.3-0.6-0.4-0.9-0.4h-0.6c-0.3,0-0.7,0.1-0.9,0.4
		s-0.4,0.6-0.4,0.9v1.9h3.2V1.8z"/>
	<path class="st0" d="M31.1,1.8c0-0.3-0.1-0.7-0.4-0.9c-0.3-0.3-0.6-0.4-0.9-0.4h-0.6c-0.3,0-0.7,0.1-0.9,0.4
		C28.1,1.1,28,1.5,28,1.8v1.9h3.2V1.8z"/>
	<path class="st0" d="M0.9,28.3c-0.3,0.3-0.4,0.6-0.4,0.9v0.6c0,0.3,0.1,0.7,0.4,0.9c0.3,0.3,0.6,0.4,0.9,0.4h1.9V28H1.8
		C1.5,28,1.1,28.1,0.9,28.3z"/>
	<path class="st0" d="M16.9,46.2c0,0.3,0.1,0.7,0.4,0.9c0.3,0.3,0.6,0.4,0.9,0.4h0.6c0.3,0,0.7-0.1,0.9-0.4c0.3-0.3,0.4-0.6,0.4-0.9
		v-1.9h-3.2V46.2z"/>
	<path class="st0" d="M20,1.8c0-0.3-0.1-0.7-0.4-0.9c-0.3-0.3-0.6-0.4-0.9-0.4h-0.6c-0.3,0-0.7,0.1-0.9,0.4
		c-0.3,0.3-0.4,0.6-0.4,0.9v1.9H20C20,3.7,20,1.8,20,1.8z"/>
	<path class="st0" d="M46.2,33.5h-1.9v3.2h1.9c0.3,0,0.7-0.1,0.9-0.4c0.3-0.3,0.4-0.6,0.4-0.9v-0.6c0-0.3-0.1-0.7-0.4-0.9
		C46.9,33.6,46.5,33.5,46.2,33.5z"/>
	<path class="st0" d="M46.2,22.4h-1.9v3.2h1.9c0.3,0,0.7-0.1,0.9-0.4c0.3-0.3,0.4-0.6,0.4-0.9v-0.6c0-0.3-0.1-0.7-0.4-0.9
		C46.9,22.5,46.5,22.4,46.2,22.4z"/>
	<path class="st0" d="M22.4,46.2c0,0.3,0.1,0.7,0.4,0.9c0.3,0.3,0.6,0.4,0.9,0.4h0.6c0.3,0,0.7-0.1,0.9-0.4c0.3-0.3,0.4-0.6,0.4-0.9
		v-1.9h-3.2V46.2z"/>
	<path class="st0" d="M47.1,11.7c-0.3-0.3-0.6-0.4-0.9-0.4h-1.9v3.2h1.9c0.3,0,0.7-0.1,0.9-0.4c0.3-0.3,0.4-0.6,0.4-0.9v-0.6
		C47.5,12.3,47.4,11.9,47.1,11.7z"/>
	<path class="st0" d="M46.2,16.9h-1.9V20h1.9c0.3,0,0.7-0.1,0.9-0.4c0.3-0.3,0.4-0.6,0.4-0.9v-0.6c0-0.3-0.1-0.7-0.4-0.9
		C46.9,17,46.5,16.9,46.2,16.9z"/>
	<path class="st0" d="M46.2,28h-1.9v3.2h1.9c0.3,0,0.7-0.1,0.9-0.4c0.3-0.3,0.4-0.6,0.4-0.9v-0.6c0-0.3-0.1-0.7-0.4-0.9
		C46.9,28.1,46.5,28,46.2,28z"/>
	<path class="st0" d="M28,46.2c0,0.3,0.1,0.7,0.4,0.9c0.3,0.3,0.6,0.4,0.9,0.4h0.6c0.3,0,0.7-0.1,0.9-0.4c0.3-0.3,0.4-0.6,0.4-0.9
		v-1.9H28V46.2z"/>
	<path class="st0" d="M33.5,46.2c0,0.3,0.1,0.7,0.4,0.9c0.3,0.3,0.6,0.4,0.9,0.4h0.6c0.3,0,0.7-0.1,0.9-0.4c0.3-0.3,0.4-0.6,0.4-0.9
		v-1.9h-3.2V46.2z"/>
	<path class="st0" d="M25.6,22.1h-3.1v1.6h3.1c0.2,0,0.4,0,0.5-0.1c0.1-0.1,0.1-0.2,0.1-0.4v-0.6c0-0.2,0-0.3-0.1-0.4
		C26,22.1,25.8,22.1,25.6,22.1z"/>
	<path class="st0" d="M11.9,8.5l-3.4,3.4v24.2l3.4,3.4h24.2l3.4-3.4V11.9l-3.4-3.4C36.1,8.5,11.9,8.5,11.9,8.5z M18.4,25.5
		c0,0.5-0.1,0.9-0.3,1.1c-0.2,0.2-0.6,0.3-1.2,0.3h-3.5c-0.6,0-1-0.1-1.2-0.3c-0.2-0.2-0.3-0.6-0.3-1.1v-3.1c0-0.5,0.1-0.9,0.3-1.1
		c0.2-0.2,0.6-0.3,1.2-0.3h3.5c0.6,0,1,0.1,1.2,0.3c0.2,0.2,0.3,0.6,0.3,1.1V23L17,23.2v-1.1h-3.7v3.7H17v-1.3l1.4,0.3V25.5z
		 M27.5,23.5c0,0.4-0.1,0.7-0.3,0.9c-0.2,0.2-0.5,0.3-1,0.3h-3.7v2.3h-1.3v-5.9h5c0.5,0,0.8,0.1,1,0.3c0.2,0.2,0.3,0.5,0.3,0.9V23.5
		z M36,25.5L36,25.5c0,0.5-0.1,0.9-0.3,1.1c-0.2,0.2-0.6,0.3-1.2,0.3h-3.7c-0.6,0-1-0.1-1.2-0.3c-0.2-0.2-0.3-0.6-0.3-1.1v-4.5h1.4
		v4.8h3.9v-4.8H36V25.5z"/>
	<path class="st0" d="M37.7,5.5c-0.1-0.1-0.4-0.3-0.6-0.3H10.9c-0.2,0-0.5,0.1-0.6,0.3l-4.8,4.8c-0.1,0.1-0.3,0.4-0.3,0.6v26.1
		c0,0.2,0.1,0.5,0.3,0.6l4.8,4.8c0.1,0.1,0.4,0.3,0.6,0.3h26.1c0.2,0,0.5-0.1,0.6-0.3l4.8-4.8c0.1-0.1,0.3-0.4,0.3-0.6V10.9
		c0-0.2-0.1-0.5-0.3-0.6L37.7,5.5z M36.7,40.9H11.3l-4.2-4.2V11.3l4.2-4.2h25.3l4.2,4.2v25.3h0L36.7,40.9z"/>
</g>
</svg>
