<?xml version="1.0" encoding="utf-8"?>
<!-- Generator: Adobe Illustrator 21.0.0, SVG Export Plug-In . SVG Version: 6.00 Build 0)  -->
<svg version="1.1" id="Layer_1" xmlns="http://www.w3.org/2000/svg" xmlns:xlink="http://www.w3.org/1999/xlink" x="0px" y="0px"
	 viewBox="0 0 48 41" style="enable-background:new 0 0 48 41;" xml:space="preserve">
<style type="text/css">
	.st0{fill:#9B9B9B;}
</style>
<g>
	<path class="st0" d="M45.9,0.6H2.1c-0.9,0-1.6,0.7-1.6,1.6v36.5c0,0.9,0.7,1.6,1.6,1.6h43.7c0.9,0,1.6-0.7,1.6-1.6V2.2
		C47.5,1.3,46.8,0.6,45.9,0.6z M41,3.9c0.9,0,1.6,0.7,1.6,1.6c0,0.9-0.7,1.6-1.6,1.6c-0.9,0-1.6-0.7-1.6-1.6
		C39.3,4.7,40.1,3.9,41,3.9z M35.1,3.9c0.9,0,1.6,0.7,1.6,1.6c0,0.9-0.7,1.6-1.6,1.6c-0.9,0-1.6-0.7-1.6-1.6
		C33.5,4.7,34.2,3.9,35.1,3.9z M29.2,3.9c0.9,0,1.6,0.7,1.6,1.6c0,0.9-0.7,1.6-1.6,1.6c-0.9,0-1.6-0.7-1.6-1.6
		C27.6,4.7,28.3,3.9,29.2,3.9z M44.2,37.1H3.8V10.2h40.5V37.1z"/>
	<path class="st0" d="M28.8,22.7V27l0.5,0h7.6c0.3,0,0.5-0.2,0.5-0.5v-3.8c0-0.3-0.2-0.5-0.5-0.5h-3.8h-3.8
		C29,22.3,28.8,22.5,28.8,22.7z M29.7,23.2h6.7v2.9h-6.7V23.2z"/>
	<path class="st0" d="M14.2,28.3c0.1,0.1,0.2,0.1,0.3,0.1l-1.7,1.7l0.7,0.7l0.5-0.5v0v3.8h5.3v0c0.2,1.1,1.2,1.9,2.3,1.9h4.8
		c1.1,0,2.1-0.8,2.3-1.9h4.8v-5.3l0.5,0.5l0.7-0.7L33.1,27l-1.7,1.7l0.7,0.7l0.5-0.5v4.3h-3.9c-0.2-1.1-1.2-1.9-2.3-1.9h-4.8
		c-1.1,0-2.1,0.8-2.3,1.9H15v-2.9v0l0.5,0.5l0.7-0.7l-1.7-1.7c0.1,0,0.2-0.1,0.3-0.1l3.4-3.4c0.2-0.2,0.2-0.5,0-0.7l-3.4-3.4
		c-0.1-0.1-0.2-0.1-0.3-0.1l1.6-1.6l-0.7-0.7L15,19v0v-4.8h4.3c0.2,1.1,1.2,1.9,2.3,1.9h4.8c1.1,0,2.1-0.8,2.3-1.9h3.9V19v1.4
		L32,19.9l-0.7,0.7l1.7,1.7l1.7-1.7l-0.7-0.7l-0.5,0.5V19v-5.7h-4.8c-0.2-1.1-1.2-1.9-2.3-1.9h-4.8c-1.2,0-2.1,0.8-2.3,1.9H14V19v0
		l-0.5-0.5l-0.7,0.7l1.6,1.6c-0.1,0-0.2,0.1-0.3,0.1l-3.4,3.4c-0.2,0.2-0.2,0.5,0,0.7L14.2,28.3z M21.6,32.3h4.8
		c0.8,0,1.4,0.6,1.4,1.4c0,0.8-0.6,1.4-1.4,1.4h-4.8c-0.8,0-1.4-0.6-1.4-1.4C20.2,32.9,20.8,32.3,21.6,32.3z M21.6,12.3h4.8
		c0.8,0,1.4,0.6,1.4,1.4c0,0.8-0.6,1.4-1.4,1.4h-4.8c-0.8,0-1.4-0.6-1.4-1.4C20.2,12.9,20.8,12.3,21.6,12.3z M14.5,22l2.7,2.7
		l-2.7,2.7l-2.7-2.7L14.5,22z"/>
</g>
</svg>
