<?xml version="1.0" encoding="utf-8"?>
<!-- Generator: Adobe Illustrator 21.0.2, SVG Export Plug-In . SVG Version: 6.00 Build 0)  -->
<svg version="1.1" id="Layer_1" xmlns="http://www.w3.org/2000/svg" xmlns:xlink="http://www.w3.org/1999/xlink" x="0px" y="0px"
	 viewBox="0 0 48 48" style="enable-background:new 0 0 48 48;" xml:space="preserve">
<style type="text/css">
	.st0{fill:#9B9B9B;}
</style>
<g>
	<path class="st0" d="M10.5,47.6c-2.7,0-3-0.3-3-3V27.3c0-1.9,0-3.9,0-5.8c0-3.8,0-7.8,0-11.8c0-1.1,0.2-2.4,2-2.4
		c0.1,0,0.3,0,0.5,0c0.2,0,0.5,0,0.7,0s0.4,0,0.7,0c0.2,0,0.5,0,0.7,0c0.2,0,0.3,0,0.5,0c0.6,0,1.3-0.1,1.8-1.1
		C15,5,16.3,4.3,18,4.3c0.1,0,0.2,0,0.4,0c0.8,0,1.2-0.1,1.5-1c0.6-1.8,2-2.9,4.1-3c2.1,0,3.6,1,4.3,3c0.3,0.7,0.6,1,1.2,1
		c0.1,0,0.2,0,0.3,0c0.1,0,0.2,0,0.3,0c1.8,0,3.1,0.8,3.9,2.3c0.3,0.6,0.7,0.8,1.3,0.8c0.1,0,0.3,0,0.4,0c0.1,0,0.3,0,0.4,0l0.7,0
		c0.4,0,1.6,0,1.6,0c0.8,0,1.3,0.1,1.6,0.4c0.5,0.5,0.5,1.4,0.4,3.8l0,0.4v32.9c0,2.7-0.3,3-3,3H10.5z M24,44.7c4,0,8,0,11.9,0.1
		c1.3,0,1.7-0.3,1.7-1.7c-0.1-10.3-0.1-20.9,0-31.3c0-0.1,0-0.3,0-0.4c0-0.3,0.1-0.7-0.1-0.9c-0.1-0.1-0.2-0.2-0.5-0.2
		c-0.3,0-0.6,0-0.9-0.1c-0.3,0-0.6-0.1-0.8-0.1c-0.6,0-0.9,0.2-1.2,0.7c-1,1.8-2.6,2.6-5,2.6c-1.7,0-3.4-0.1-5.1-0.1
		c-1.7,0-3.4,0-5.1,0.1c-2.5,0-4-0.8-5-2.6c-0.3-0.5-0.7-0.7-1.3-0.7c-0.3,0-0.6,0.1-0.9,0.1c-0.3,0-0.6,0.1-0.8,0.1
		c-0.2,0-0.4,0.1-0.5,0.2c-0.2,0.2-0.1,0.6-0.1,0.9c0,0.2,0,0.3,0,0.5v15.5c0,1.8,0,3.5,0,5.2c0,3.4,0,7,0,10.5
		c0,1.3,0.3,1.7,1.7,1.7C16.1,44.8,20.1,44.7,24,44.7z M18.4,7.3c-1.2,0-1.9,0.5-2,1.7c0,1.2,0.6,1.7,1.9,1.7h11.2
		c0.5,0,2-0.1,2-1.7c0-1.4-1.1-1.7-2-1.7h-2.3c-0.8-0.1-1.4-0.3-1.7-0.7c-0.3-0.3-0.3-0.8-0.2-1.4c0.1-0.6,0.1-1.1-0.2-1.4
		C25,3.5,24.6,3.4,24,3.4l-0.2,0c-0.4,0-0.7,0.1-0.9,0.4c-0.3,0.3-0.4,0.8-0.4,1.5c0.1,0.6,0,1.2-0.3,1.5c-0.3,0.4-0.9,0.6-1.7,0.6
		H18.4z"/>
	<path class="st0" d="M21.3,35.3c-0.4,0-0.8-0.2-1.3-0.6c-0.8-0.7-1.5-1.5-2.3-2.2c-0.8-0.7-1.5-1.5-2.3-2.2
		c-0.5-0.4-0.7-0.8-0.7-1.3c0-0.4,0.1-0.7,0.5-1c0.3-0.3,0.6-0.4,1-0.4c0.5,0,0.9,0.2,1.4,0.7c0.9,0.8,1.7,1.6,2.4,2.4
		c0.5,0.5,0.8,0.8,1.1,0.8c0.3,0,0.7-0.3,1.2-0.9c2.3-2.9,4.7-5.7,7-8.5l2.5-3c0.3-0.4,0.8-0.9,1.5-0.9c0.2,0,0.4,0,0.6,0.1
		c0.7,0.2,0.8,0.8,0.9,1.2c0,0.6-0.4,1.1-0.8,1.6l-1.6,2c-3.2,3.8-6.4,7.7-9.6,11.5C22.3,35,21.8,35.3,21.3,35.3z"/>
	<path class="st0" d="M33.8,18.3c-0.9-0.3-1.4,0.2-1.9,0.8c-3.2,3.8-6.4,7.6-9.5,11.5c-1,1.3-1.6,1.2-2.5,0.1
		c-0.7-0.8-1.6-1.6-2.4-2.4c-0.6-0.6-1.4-0.9-2.2-0.3c-0.7,0.7-0.5,1.4,0.3,2.1c1.5,1.4,3.1,3,4.6,4.4c0.9,0.8,1.7,0.7,2.5-0.3
		c3.7-4.5,7.5-9.1,11.2-13.5c0.4-0.5,0.7-0.9,0.7-1.4C34.5,19,34.4,18.5,33.8,18.3z"/>
</g>
</svg>
