<?xml version="1.0" encoding="utf-8"?>
<!-- Generator: Adobe Illustrator 21.0.0, SVG Export Plug-In . SVG Version: 6.00 Build 0)  -->
<svg version="1.1" id="Layer_1" xmlns="http://www.w3.org/2000/svg" xmlns:xlink="http://www.w3.org/1999/xlink" x="0px" y="0px"
	 viewBox="0 0 48 44" style="enable-background:new 0 0 48 44;" xml:space="preserve">
<style type="text/css">
	.st0{fill:#9B9B9B;}
</style>
<g>
	<path class="st0" d="M27.2,38.3c1-2.6,2.1-5.3,3.1-7.9c-1.8-4.6-3.7-9.1-5.6-13.7c-0.8-1.9-1.5-3.9-2.4-5.8c-0.2-0.3-0.3-0.7-0.5-1
		c-0.1-0.1-0.1-0.2-0.2-0.3c-1.1-1.8-2.9-2.7-4.7-2.7c-1.8,0-3.6,0.9-4.7,2.7c-0.1,0.1-0.1,0.2-0.2,0.3c-0.2,0.3-0.3,0.7-0.5,1
		c-0.9,1.9-1.6,3.9-2.4,5.8C7.1,22,5,27.3,2.9,32.6c-0.5,1.2-1,2.4-1.5,3.7c-0.3,0.8-0.6,1.6-0.8,2.4c-0.5,1.9,0.6,3.9,2.4,4.5
		c1.9,0.7,3.8,0.1,4.7-1.7c0.9-1.9,1.7-4,2.5-6c0.2-0.5,0.4-0.7,0.8-0.7c0.1,0,0.2,0,0.3,0c3.8,0,7.6,0,11.5,0c0.1,0,0.2,0,0.3,0
		c0,0,0,0,0.1,0c0.3,0.1,0.5,0.3,0.7,0.7c0.8,2,1.5,4,2.5,6c0.2,0.5,0.5,0.9,0.9,1.2c-0.5-0.9-0.7-2-0.4-3.1
		C26.9,39.2,27.1,38.8,27.2,38.3z M12.9,28.2c1.4-3.8,2.7-7.5,4.2-11.4c1.4,3.9,2.8,7.6,4.2,11.4H12.9z"/>
	<path class="st0" d="M47.4,39.9c-0.1-0.3-0.2-0.7-0.3-1c-1.9-4.9-3.9-9.8-5.8-14.7c-0.4-1.1-1-2.1-2.3-2.5c-0.4-0.1-0.7-0.2-1-0.2
		c-0.3,0-0.7,0.1-1,0.2c-1.2,0.4-1.8,1.3-2.3,2.5c-1.9,4.9-3.9,9.8-5.8,14.7c-0.1,0.3-0.2,0.6-0.3,1c-0.3,1.3,0.4,2.6,1.6,3
		c0.3,0.1,0.5,0.2,0.8,0.2h0c0.2-0.1,0.4-0.1,0.6-0.2c0.5-0.2,1-0.8,1.3-1.3c0.5-0.9,0.8-1.9,1.2-2.8c0.1-0.3,0.5-0.6,0.8-0.6
		c0.8,0,1.6,0,2.4,0c0.4,0,0.8,0,1.3,0c0.7,0,1.4,0,2.2,0c0.3,0,0.7,0.3,0.8,0.6c0.4,0.9,0.7,1.9,1.2,2.9c0.5,1,1.3,1.5,2.2,1.5
		c0,0,0,0,0,0c0.3,0,0.5-0.1,0.8-0.2C47.1,42.5,47.7,41.3,47.4,39.9z M35.9,33.8c0.6-1.8,1.3-3.4,1.9-5.1c0.1,0,0.1,0,0.2,0
		c0,0,0,0,0,0c0,0,0,0,0,0c0,0,0,0,0,0c0.6,1.7,1.2,3.4,1.8,5.1H35.9z"/>
	<path class="st0" d="M29.1,19.7c2.1-0.6,4.1-1.1,6.2-1.7c0.4-0.1,0.9-0.4,1.2-0.7c3.3-3.2,6.5-6.5,9.7-9.7c1.3-1.3,1.6-3.1,0.9-4.7
		c-0.7-1.6-2.2-2.5-4.1-2.5c-0.9,0-1.9,0.4-2.7,1.2c-3.2,3.2-6.5,6.5-9.7,9.7c-0.3,0.3-0.6,0.7-0.7,1.1c-0.6,2.1-1.1,4.2-1.7,6.2
		C27.9,19.7,28.2,20,29.1,19.7z M31.4,12c2.6-2.6,5.1-5.1,7.7-7.7c0.2-0.2,0.6-0.2,0.8-0.1C41.8,4.8,43,6.1,43.7,8
		c0.1,0.4,0.1,0.7-0.2,0.9c-0.6,0.6-1.3,1.2-1.9,1.9c-1.9,2-3.9,3.9-5.7,5.8C34.3,15,32.8,13.6,31.4,12C31.3,12.1,31.3,12.1,31.4,12
		z"/>
	<path class="st0" d="M36.1,14.7c1.9-1.9,3.7-3.8,5.6-5.6c0.1-0.1,0.3-0.3,0.4-0.4c0,0,0-0.1,0-0.1c0-0.2,0-0.3-0.1-0.4
		C41.9,7.9,41.6,8,41.4,8c-0.1,0-0.1,0.1-0.2,0.1c-2,2-4,4-6,6c0,0,0,0.1-0.1,0.1c-0.1,0.1-0.1,0.2-0.1,0.3c0,0.4,0.2,0.6,0.5,0.6
		c0.1,0,0.2,0,0.3-0.1C35.9,14.9,36,14.8,36.1,14.7z"/>
</g>
</svg>
