<?xml version="1.0" encoding="utf-8"?>
<!-- Generator: Adobe Illustrator 21.0.0, SVG Export Plug-In . SVG Version: 6.00 Build 0)  -->
<svg version="1.1" id="Layer_1" xmlns="http://www.w3.org/2000/svg" xmlns:xlink="http://www.w3.org/1999/xlink" x="0px" y="0px"
	 viewBox="0 0 48 52" style="enable-background:new 0 0 48 52;" xml:space="preserve">
<style type="text/css">
	.st0{fill:#9B9B9B;}
</style>
<g>
	<path class="st0" d="M24,11.3c13,0,23.5-2.5,23.5-5.5S37,0.2,24,0.2S0.5,2.7,0.5,5.7S11,11.3,24,11.3z"/>
	<path class="st0" d="M24,40.7c-13,0-23.5-2.5-23.5-5.5v11.1c0,3.1,10.5,5.5,23.5,5.5s23.5-2.5,23.5-5.5V35.2
		C47.5,38.2,37,40.7,24,40.7z"/>
	<path class="st0" d="M24,27.2c-13,0-23.5-2.5-23.5-5.5v11.1c0,3,10.5,5.5,23.5,5.5s23.5-2.5,23.5-5.5V21.7
		C47.5,24.7,37,27.2,24,27.2z"/>
	<path class="st0" d="M24,13.5c-13,0-23.5-2.5-23.5-5.5v11.1c0,3.1,10.5,5.5,23.5,5.5s23.5-2.5,23.5-5.5V8
		C47.5,11.1,37,13.5,24,13.5z"/>
</g>
</svg>
