<?xml version="1.0" encoding="utf-8"?>
<!-- Generator: Adobe Illustrator 21.0.0, SVG Export Plug-In . SVG Version: 6.00 Build 0)  -->
<svg version="1.1" id="Layer_1" xmlns="http://www.w3.org/2000/svg" xmlns:xlink="http://www.w3.org/1999/xlink" x="0px" y="0px"
	 viewBox="0 0 48 38" style="enable-background:new 0 0 48 38;" xml:space="preserve">
<style type="text/css">
	.st0{fill:#9B9B9B;}
</style>
<g>
	<path class="st0" d="M46.1,0.2H24.4h-0.7H1.9c-0.8,0-1.4,0.6-1.4,1.4v26.8v0.1v2.5V31c0,0.8,0.7,1.4,1.4,1.4h17.4
		c0,0.4-0.2,2.4-1.1,3.3c-0.7,0.7-1.7,1.4-1.3,1.8c0.1,0.2,0.5,0.3,1.6,0.3c2.2,0,4.7,0,5.5,0c0.2,0,0.3,0,0.3,0c0.9,0,3.3,0,5.5,0
		c1.2,0,1.6-0.2,1.6-0.5h0v-0.1h0c-0.1-0.4-0.8-0.9-1.4-1.5c-0.9-0.9-1-2.8-1.1-3.3h17.2c0.8,0,1.4-0.6,1.4-1.4v-0.2v-2.5v-0.1V1.5
		C47.5,0.8,46.9,0.2,46.1,0.2z M24,31.1c-0.5,0-0.9-0.4-0.9-0.9c0-0.5,0.4-0.9,0.9-0.9c0.5,0,0.9,0.4,0.9,0.9
		C24.9,30.7,24.5,31.1,24,31.1z M45.5,26.3h-43V2.1h43V26.3z"/>
	<path class="st0" d="M18.6,13.2c1.1,0,2-0.1,2.7,0.5l0.7,0.7l2.3-2.3l-0.7-0.7c-0.6-0.7-0.7-1.8-0.7-2.9c0-1-0.2-1.6-0.7-2.1
		c-1.3-1.1-2.8-1.5-4.8-0.9c-0.1,0.1-0.2,0.3,0,0.4l2,1.2c1,0.7,0.7,1.6,0.4,2.2c-0.3,0.6-1.1,1.3-1.9,0.9l-1.8-1.1
		c-0.5-0.4-0.7-0.3-0.8,0c-0.1,1,0.8,2.3,1.3,3C17,12.7,17.9,13.3,18.6,13.2z"/>
	<path class="st0" d="M26.5,14.3l-2.3,2.3l6.3,6.3c0.3,0.4,0.6,0.6,1.1,0.6c0.9,0,1.7-0.8,1.7-1.7c0-0.4-0.3-0.9-0.6-1.1L26.5,14.3z
		 M31.4,22.4c-0.5,0-0.9-0.4-0.9-0.9s0.4-0.9,0.9-0.9c0.5,0,0.9,0.4,0.9,0.9S31.9,22.4,31.4,22.4z"/>
	<path class="st0" d="M16.7,23.5c0.4,0,0.9-0.2,1.1-0.5l0,0l5.2-5.2l-0.6-0.6l6.9-6.9h1.1l2.9-2.9l-2.3-2.3l-2.9,2.9v1.1l-6.9,6.9
		l-0.6-0.6l-5.2,5.2l0,0c-0.3,0.3-0.5,0.7-0.5,1.1C15.1,22.8,15.8,23.5,16.7,23.5z"/>
</g>
</svg>
