<?xml version="1.0" encoding="utf-8"?>
<!-- Generator: Adobe Illustrator 21.0.2, SVG Export Plug-In . SVG Version: 6.00 Build 0)  -->
<svg version="1.1" id="Layer_1" xmlns="http://www.w3.org/2000/svg" xmlns:xlink="http://www.w3.org/1999/xlink" x="0px" y="0px"
	 viewBox="0 0 48 46" style="enable-background:new 0 0 48 46;" xml:space="preserve">
<style type="text/css">
	.st0{fill:#999999;}
</style>
<g id="Layer_1_1_">
</g>
<g id="settings">
	<g>
		<path class="st0" d="M27.3,0.6c1.6-0.1,3.1,0.5,4.6,1.9l10.7,9.7l1.1-1.2l4.1,3.7l-6.2,6.9l-4.1-3.7l1-1.1L27.8,6.9
			c-1.2-1.1-2.8-1.6-4.6-1.5c-1.2,0.1-2.4,0.3-3.5,0.9C22.1,2.6,24.6,0.8,27.3,0.6z"/>
		<rect x="37.2" y="3.1" transform="matrix(0.6711 -0.7413 0.7413 0.6711 7.6694 30.1775)" class="st0" width="1.3" height="6.6"/>
		<polygon class="st0" points="15.1,26 2,39.7 8.3,45.4 20.7,31.1 		"/>
		<g>
			<polygon class="st0" points="27.7,23 35.3,14.2 30.3,9.8 22.4,18.2 			"/>
			<path class="st0" d="M42,38.5c0.2-0.6,0.2-1.3,0.2-1.9c-0.1-1.9-0.8-3.4-2.2-4.7c-1.4-1.2-3-1.8-4.9-1.7c-0.6,0-1.3,0.1-1.9,0.3
				l-6.7-6.1l0,0l-5.4-4.8l0,0l-7.1-6.4c0.1-0.6,0.2-1.3,0.2-1.9c-0.1-1.9-0.8-3.5-2.2-4.7c-1.4-1.2-3-1.8-4.9-1.7
				c-0.7,0-1.3,0.2-1.9,0.4l5.4,4.9l-4.8,5.4l-5.4-4.9c-0.1,0.6-0.2,1.3-0.2,1.9c0.1,1.9,0.8,3.4,2.2,4.7c1.4,1.2,3,1.8,4.9,1.7
				c0.7,0,1.4-0.2,2-0.4l2.4,2.1l0,0l15.4,13.9l0,0l1.3,1.2c-0.2,0.7-0.2,1.4-0.2,2c0.1,1.9,0.8,3.5,2.2,4.7c1.4,1.2,3,1.8,4.9,1.7
				c0.6,0,1.3-0.2,1.9-0.4l-5.4-4.9l4.9-5.4L42,38.5z"/>
		</g>
	</g>
</g>
</svg>
