<?xml version="1.0" encoding="utf-8"?>
<!-- Generator: Adobe Illustrator 21.0.0, SVG Export Plug-In . SVG Version: 6.00 Build 0)  -->
<svg version="1.1" id="Layer_1" xmlns="http://www.w3.org/2000/svg" xmlns:xlink="http://www.w3.org/1999/xlink" x="0px" y="0px"
	 viewBox="0 0 48 51" style="enable-background:new 0 0 48 51;" xml:space="preserve">
<style type="text/css">
	.st0{fill:#9B9A9A;}
</style>
<path class="st0" d="M47.5,29.3c0-0.6-0.3-1.1-0.8-1.4c-0.5-0.3-1-0.6-1.5-0.8c-0.2-0.1-0.3-0.3-0.3-0.5c0-3.4,0-6.8,0-10.3
	c0-0.7-0.3-1.3-0.9-1.6c-1.3-0.7-2.5-1.4-3.8-2.2c-1.7-1-3.4-2-5.1-2.9c-0.2-0.1-0.3-0.2-0.3-0.5c0-0.7,0-1.3,0-2
	c0-0.5-0.2-0.9-0.5-1.2c-0.3-0.3-0.7-0.5-1.1-0.7c-2.5-1.4-5.1-2.9-7.6-4.3c-0.4-0.2-0.8-0.6-1.3-0.6c-0.3,0-0.6,0-0.8,0
	c-0.1,0.1-0.3,0.1-0.4,0.2c-1.6,0.9-3.3,1.9-4.9,2.8C16.8,4,15.4,4.8,14,5.7c-0.6,0.3-0.8,0.8-0.8,1.5c0,0.7,0,1.3,0,2
	c0,0.2,0,0.3-0.2,0.3c-1.8,1-3.5,2-5.3,3c-1.2,0.7-2.4,1.4-3.6,2.1c-0.2,0.1-0.4,0.2-0.6,0.4c-0.3,0.3-0.4,0.7-0.4,1.2
	c0,3.4,0,6.9,0,10.3c0,0.3-0.1,0.4-0.3,0.5c-0.5,0.2-0.9,0.5-1.4,0.8c-0.6,0.3-0.9,0.8-0.9,1.6c0,3.5,0,7,0,10.5
	c0,0.7,0.3,1.2,0.9,1.5c2.2,1.3,4.4,2.5,6.6,3.8c0.9,0.5,1.7,1,2.6,1.5c0.6,0.3,1.1,0.3,1.6,0c0.5-0.3,1.1-0.6,1.6-0.9
	c0.2-0.1,0.3-0.1,0.4,0c2.6,1.5,5.2,3,7.8,4.5c0.4,0.2,0.8,0.5,1.3,0.7c0.4,0,0.8,0,1.3,0c0.1,0,0.2-0.1,0.3-0.1
	c2.9-1.7,5.8-3.3,8.8-5c0.1-0.1,0.3-0.1,0.4,0c0.6,0.3,1.1,0.6,1.7,0.9c0.6,0.3,1.2,0.3,1.7,0c1-0.6,2-1.2,3-1.7
	c1.4-0.8,2.9-1.6,4.3-2.5c0.6-0.4,1.3-0.7,1.9-1.1c0.5-0.3,0.7-0.8,0.7-1.4C47.5,36.4,47.5,32.8,47.5,29.3z M31.6,9.9
	c0,0.1,0,0.1,0,0.2c0,2.2,0,4.3,0,6.5c0,0.1,0,0.2-0.1,0.3c-1.9,1.1-3.8,2.2-5.7,3.3c0,0-0.1,0-0.1,0.1c0-1.4,0-2.8,0-4.2
	c0-0.8,0-1.7,0-2.5c0-0.1,0-0.2,0.1-0.2C27.7,12.1,29.6,11,31.6,9.9C31.5,9.9,31.5,9.9,31.6,9.9z M19.2,6.5c1.6-0.9,3.1-1.8,4.6-2.7
	c0.1-0.1,0.2-0.1,0.3,0C26,4.9,27.9,6,29.8,7c0,0,0.1,0,0.1,0.1C28,8.2,26,9.3,24.1,10.5c-0.1,0.1-0.2,0-0.3,0c-1.7-1-3.5-2-5.2-3
	c-0.2-0.1-0.3-0.2-0.6-0.3C18.5,6.9,18.8,6.7,19.2,6.5z M16.4,10C16.4,10,16.4,10,16.4,10c0.1-0.1,0.1,0,0.2,0
	c1.9,1.1,3.7,2.1,5.6,3.2c0.1,0.1,0.2,0.1,0.2,0.2c0,2.2,0,4.4,0,6.6c0,0,0,0.1,0,0.1c-0.8-0.5-1.6-0.9-2.4-1.4
	c-1.1-0.6-2.3-1.3-3.4-1.9c-0.1,0-0.2-0.1-0.2-0.2C16.4,14.4,16.4,12.2,16.4,10z M9.7,42.2c0,0,0,0.1,0,0.1c-0.1,0-0.1-0.1-0.2-0.1
	c-1.9-1.1-3.7-2.1-5.6-3.2c-0.1-0.1-0.2-0.1-0.2-0.2c0-2.2,0-4.4,0-6.7c0.1,0,0.1,0,0.2,0.1c1.9,1.1,3.8,2.1,5.6,3.2
	c0.1,0.1,0.1,0.1,0.1,0.2C9.7,37.8,9.7,40,9.7,42.2z M11.8,32.5c-0.3,0.2-0.5,0.2-0.9,0c-1.8-1-3.5-2-5.3-3c-0.1,0-0.1-0.1-0.2-0.1
	c0.2-0.1,0.3-0.2,0.5-0.3c1.8-1,3.5-2,5.3-3c0.1-0.1,0.2-0.1,0.4,0c1.9,1.1,3.7,2.1,5.6,3.2c0,0,0.1,0,0.1,0.1
	C15.4,30.4,13.6,31.4,11.8,32.5z M13.1,42.3c0,0-0.1,0-0.1,0.1c0-0.1,0-0.1,0-0.2c0-2.2,0-4.3,0-6.5c0-0.1,0-0.2,0.1-0.3
	c1.9-1.1,3.8-2.2,5.7-3.2c0,0,0.1-0.1,0.1,0c0,0.1,0,0.1,0,0.2c0,2.1,0,4.3,0,6.4c0,0.1,0,0.2-0.1,0.3C16.9,40.1,15,41.2,13.1,42.3z
	 M30.5,43.7c-2.1,1.2-4.2,2.4-6.3,3.6c-0.1,0.1-0.2,0.1-0.4,0c-2.1-1.2-4.2-2.4-6.3-3.6c-0.1,0-0.1-0.1-0.2-0.1
	c0.1,0,0.1-0.1,0.2-0.1c1.2-0.7,2.5-1.4,3.7-2.1c0.6-0.3,0.9-0.9,0.9-1.6c0-3.5,0-6.9,0-10.4c0-0.7-0.3-1.2-0.9-1.5
	c-3-1.7-6-3.5-9.1-5.2c-0.6-0.3-1.2-0.3-1.7,0c-1.3,0.7-2.6,1.5-3.9,2.2c-0.1,0-0.1,0.1-0.2,0.1c0-0.1,0-0.2,0-0.2c0-2.5,0-5,0-7.5
	c0-0.2,0-0.2,0.2-0.3c2.2-1.2,4.3-2.5,6.4-3.7c0.1,0,0.1-0.1,0.2-0.1c0,1.5,0,2.9,0,4.4c0,0.7,0.3,1.2,0.9,1.6c3,1.7,6,3.4,9,5.1
	c0.6,0.4,1.2,0.4,1.9,0c3-1.7,6-3.4,9-5.1c0.6-0.3,0.9-0.9,0.9-1.6c0-1.4,0-2.8,0-4.2c0-0.1,0-0.2,0-0.2c0.1,0,0.1,0,0.2,0
	c2.2,1.2,4.3,2.5,6.5,3.7c0.1,0.1,0.1,0.1,0.1,0.2c0,2.6,0,5.1,0,7.7c0,0,0,0.1,0,0.1c-0.1,0-0.1,0-0.2-0.1
	c-1.3-0.7-2.5-1.4-3.8-2.2c-0.7-0.4-1.3-0.4-1.9,0c-3,1.7-5.9,3.4-8.9,5.1c-0.7,0.4-1,0.9-0.9,1.7c0,3.4,0,6.8,0,10.2
	c0,0.7,0.3,1.3,1,1.6c1.2,0.7,2.5,1.4,3.7,2.1c0.1,0,0.1,0.1,0.2,0.1C30.6,43.6,30.5,43.6,30.5,43.7z M35,42.2c0,0,0,0.1,0,0.1
	c-0.1,0-0.1-0.1-0.2-0.1c-1.9-1.1-3.7-2.1-5.6-3.2C29.1,39,29,38.9,29,38.8c0-2.2,0-4.4,0-6.5c0,0,0-0.1,0-0.1c0.1,0,0.1,0,0.2,0.1
	c1.9,1.1,3.7,2.1,5.6,3.2c0.1,0.1,0.2,0.1,0.2,0.3C35,37.8,35,40,35,42.2z M36.8,32.6c-0.1,0-0.1,0.1-0.2,0
	c-1.9-1.1-3.9-2.2-5.8-3.3c0,0,0,0,0,0c0-0.1,0.1-0.1,0.1-0.1c1.9-1.1,3.7-2.1,5.6-3.2c0.2-0.1,0.3-0.1,0.4,0
	c1.9,1.1,3.7,2.1,5.6,3.2c0,0,0.1,0.1,0.1,0.1c-1.7,1-3.4,1.9-5,2.9C37.3,32.3,37,32.5,36.8,32.6z M44.1,39
	c-1.9,1.1-3.7,2.1-5.6,3.2c-0.1,0-0.1,0.1-0.2,0.1c0-0.1,0-0.2,0-0.2c0-2.1,0-4.3,0-6.4c0-0.1,0-0.2,0.1-0.3
	c1.9-1.1,3.8-2.2,5.7-3.2c0,0,0.1-0.1,0.2-0.1c0,0.1,0,0.1,0,0.2c0,2.1,0,4.3,0,6.4C44.2,38.9,44.2,39,44.1,39z"/>
</svg>
