<?xml version="1.0" encoding="utf-8"?>
<!-- Generator: Adobe Illustrator 21.0.0, SVG Export Plug-In . SVG Version: 6.00 Build 0)  -->
<svg version="1.1" id="Layer_1" xmlns="http://www.w3.org/2000/svg" xmlns:xlink="http://www.w3.org/1999/xlink" x="0px" y="0px"
	 viewBox="0 0 48 41" style="enable-background:new 0 0 48 41;" xml:space="preserve">
<style type="text/css">
	.st0{fill:#9B9B9B;}
</style>
<g>
	<path class="st0" d="M17.1,8.1h3c0-0.6-0.1-0.9-0.4-1.8c-0.3-0.9-0.1-1.6,0.5-1.9c2.5-1.5,5.2-1.5,7.8,0c0.6,0.4,0.7,1.1,0.4,2
		C28.1,7.3,28,7.5,28,8.1h3C31,7,31.2,6.3,31.6,5c0.5-1.3,0.3-2.3-0.5-2.8c-4.7-2.3-9.5-2.2-13.9,0c-0.9,0.4-1.2,1.4-0.7,2.9
		C16.8,6.4,17.1,7,17.1,8.1z"/>
	<path class="st0" d="M0.5,10.8l0,27.6c-0.1,1.2,0.4,1.9,1.4,2.2h4.5V8.7l-3.7,0C1.2,8.6,0.4,9.2,0.5,10.8z"/>
	<path class="st0" d="M8.8,40.5h30.6V8.8L8.8,8.7V40.5z M14.6,22.7h7v-6.9h4.7v6.9h7v4.8h-7v6.9h-4.7v-6.9h-7V22.7z"/>
	<path class="st0" d="M47.5,11.1c0.1-1.7-0.5-2.5-1.9-2.3l-3.9,0v31.7h4.8c0.7-0.4,1-1,0.9-1.9L47.5,11.1z"/>
</g>
</svg>
