<?xml version="1.0" encoding="utf-8"?>
<!-- Generator: Adobe Illustrator 21.0.0, SVG Export Plug-In . SVG Version: 6.00 Build 0)  -->
<svg version="1.1"
	 id="Layer_1" xmlns:cc="http://creativecommons.org/ns#" xmlns:dc="http://purl.org/dc/elements/1.1/" xmlns:inkscape="http://www.inkscape.org/namespaces/inkscape" xmlns:rdf="http://www.w3.org/1999/02/22-rdf-syntax-ns#" xmlns:sodipodi="http://sodipodi.sourceforge.net/DTD/sodipodi-0.dtd" xmlns:svg="http://www.w3.org/2000/svg"
	 xmlns="http://www.w3.org/2000/svg" xmlns:xlink="http://www.w3.org/1999/xlink" x="0px" y="0px" viewBox="0 0 48 64"
	 style="enable-background:new 0 0 48 64;" xml:space="preserve">
<style type="text/css">
	.st0{fill:#9B9B9B;}
</style>
<g>
	<path class="st0" d="M15.6,49.4c-9.8,2.7,6,8.4,18.4,3c-2-0.8-3.5-1.7-3.5-1.7c-5.6,1.1-8.1,1.1-13.2,0.6
		C13.2,50.8,15.6,49.4,15.6,49.4z"/>
	<polygon class="st0" points="15.6,49.4 15.6,49.4 15.6,49.4 	"/>
	<path class="st0" d="M32.6,44.1c-7.4,1.4-11.6,1.4-17,0.8c-4.2-0.4-1.4-2.5-1.4-2.5c-10.8,3.6,6,7.6,21.1,3.2
		C33.6,45.1,32.6,44.1,32.6,44.1z"/>
	<path class="st0" d="M38.4,13.2c0,0-21.8,5.4-11.4,17.5c3.1,3.5-0.8,6.7-0.8,6.7s7.8-4,4.2-9.1C27,23.6,24.5,21.2,38.4,13.2z"/>
	<path class="st0" d="M43.5,54.6c0,0,1.8,1.5-2,2.6c-7.2,2.2-30,2.8-36.3,0.1c-2.3-1,2-2.4,3.3-2.6c1.4-0.3,2.2-0.2,2.2-0.2
		c-2.5-1.8-16.3,3.5-7,5C29.1,63.5,50.1,57.6,43.5,54.6z"/>
	<path class="st0" d="M34.7,39.1c1.2-0.8,2.9-1.6,2.9-1.6s-4.8,0.9-9.6,1.3c-5.9,0.5-12.2,0.6-15.3,0.2c-7.5-1,4.1-3.7,4.1-3.7h0
		c0,0-4.5-0.3-10,2.4C0.2,40.7,23,42.2,34.7,39.1z"/>
	<path class="st0" d="M37.6,46.8c-0.1,0.1-0.2,0.3-0.2,0.3c16-4.2,10.1-14.8,2.5-12.1c-0.7,0.2-1,0.8-1,0.8s0.4-0.2,1.4-0.4
		C44,34.6,49.5,40.6,37.6,46.8z"/>
	<path class="st0" d="M24.1,35.1c-2.4-5.3-10.3-10,0-18.2C37,6.8,30.4,0.1,30.4,0.1C33,10.7,21,13.8,16.6,20.4
		C13.6,24.9,18.1,29.6,24.1,35.1z"/>
	<path class="st0" d="M38,61.5c-9.8,1.8-21.9,1.6-29,0.4c0,0,1.5,1.2,9,1.7c11.5,0.7,29.1-0.4,29.5-5.8C47.5,57.8,46.7,59.9,38,61.5
		z"/>
</g>
</svg>
