<?xml version="1.0" encoding="utf-8"?>
<!-- Generator: Adobe Illustrator 21.0.0, SVG Export Plug-In . SVG Version: 6.00 Build 0)  -->
<svg version="1.1" id="Layer_1" xmlns:sketch="http://www.bohemiancoding.com/sketch/ns"
	 xmlns="http://www.w3.org/2000/svg" xmlns:xlink="http://www.w3.org/1999/xlink" x="0px" y="0px" viewBox="0 0 48 48"
	 style="enable-background:new 0 0 48 48;" xml:space="preserve">
<style type="text/css">
	.st0{fill:#9B9B9B;}
</style>
<title></title>
<desc></desc>
<g>
	<path class="st0" d="M10.7,39.7H4.4c-0.4,0-0.8,0.4-0.8,0.8c0,0.4,0.4,0.8,0.8,0.8h6.3c0.4,0,0.8-0.4,0.8-0.8
		C11.5,40,11.1,39.7,10.7,39.7z"/>
	<path class="st0" d="M10.7,42.8H4.4c-0.4,0-0.8,0.4-0.8,0.8c0,0.4,0.4,0.8,0.8,0.8h6.3c0.4,0,0.8-0.4,0.8-0.8
		C11.5,43.2,11.1,42.8,10.7,42.8z"/>
	<path class="st0" d="M13,31.8h-11c-0.9,0-1.6,0.7-1.6,1.6v12.5c0,0.9,0.7,1.6,1.6,1.6h11c0.9,0,1.6-0.7,1.6-1.6V33.4
		C14.6,32.5,13.9,31.8,13,31.8z M2.1,45.9V33.4h11l0,12.5H2.1z"/>
	<path class="st0" d="M18.5,13h11c0.4,0,0.8-0.4,0.8-0.8s-0.4-0.8-0.8-0.8h-11c-0.4,0-0.8,0.4-0.8,0.8S18.1,13,18.5,13z"/>
	<path class="st0" d="M4.4,38.1h3.1c0.4,0,0.8-0.4,0.8-0.8c0-0.4-0.4-0.8-0.8-0.8H4.4c-0.4,0-0.8,0.4-0.8,0.8
		C3.6,37.7,4,38.1,4.4,38.1z"/>
	<path class="st0" d="M18.5,8.3h9.4c0.4,0,0.8-0.4,0.8-0.8c0-0.4-0.4-0.8-0.8-0.8h-9.4c-0.4,0-0.8,0.4-0.8,0.8
		C17.7,8,18.1,8.3,18.5,8.3z"/>
	<path class="st0" d="M7.5,30.3c0.4,0,0.8-0.4,0.8-0.8v-3.9h14.9v3.9c0,0.4,0.4,0.8,0.8,0.8c0.4,0,0.8-0.4,0.8-0.8v-3.9h14.9v3.9
		c0,0.4,0.4,0.8,0.8,0.8s0.8-0.4,0.8-0.8v-4.7c0-0.4-0.4-0.8-0.8-0.8H24.8v-5.5c0-0.4-0.4-0.8-0.8-0.8h-8.6c-1.3,0-2.4-1.1-2.4-2.3
		v-11c0-1.3,1.1-2.4,2.4-2.4h17.2c1.3,0,2.4,1.1,2.4,2.4v11c0,1.3-1.1,2.3-2.4,2.3h-5.5c-0.4,0-0.8,0.4-0.8,0.8
		c0,0.4,0.4,0.8,0.8,0.8h5.5c2.2,0,3.9-1.8,3.9-3.9v-11c0-2.2-1.8-3.9-3.9-3.9H15.4c-2.2,0-3.9,1.8-3.9,3.9v11
		c0,2.2,1.8,3.9,3.9,3.9h7.8V24H7.5c-0.4,0-0.8,0.4-0.8,0.8v4.7C6.8,29.9,7.1,30.3,7.5,30.3z"/>
	<path class="st0" d="M37.3,38.1h3.1c0.4,0,0.8-0.4,0.8-0.8c0-0.4-0.4-0.8-0.8-0.8h-3.1c-0.4,0-0.8,0.4-0.8,0.8
		C36.5,37.7,36.9,38.1,37.3,38.1z"/>
	<path class="st0" d="M43.6,39.7h-6.3c-0.4,0-0.8,0.4-0.8,0.8c0,0.4,0.4,0.8,0.8,0.8h6.3c0.4,0,0.8-0.4,0.8-0.8
		C44.4,40,44,39.7,43.6,39.7z"/>
	<path class="st0" d="M43.6,42.8h-6.3c-0.4,0-0.8,0.4-0.8,0.8c0,0.4,0.4,0.8,0.8,0.8h6.3c0.4,0,0.8-0.4,0.8-0.8
		C44.4,43.2,44,42.8,43.6,42.8z"/>
	<path class="st0" d="M20.9,38.1H24c0.4,0,0.8-0.4,0.8-0.8c0-0.4-0.4-0.8-0.8-0.8h-3.1c-0.4,0-0.8,0.4-0.8,0.8
		C20.1,37.7,20.4,38.1,20.9,38.1z"/>
	<path class="st0" d="M45.9,31.8H35c-0.9,0-1.6,0.7-1.6,1.6v12.5c0,0.9,0.7,1.6,1.6,1.6h11c0.9,0,1.6-0.7,1.6-1.6V33.4
		C47.5,32.5,46.8,31.8,45.9,31.8z M35,45.9V33.4h11l0,12.5H35z"/>
	<path class="st0" d="M29.5,31.8h-11c-0.9,0-1.6,0.7-1.6,1.6v12.5c0,0.9,0.7,1.6,1.6,1.6h11c0.9,0,1.6-0.7,1.6-1.6V33.4
		C31,32.5,30.3,31.8,29.5,31.8z M18.5,45.9V33.4h11l0,12.5H18.5z"/>
	<path class="st0" d="M27.1,42.8h-6.3c-0.4,0-0.8,0.4-0.8,0.8c0,0.4,0.4,0.8,0.8,0.8h6.3c0.4,0,0.8-0.4,0.8-0.8
		C27.9,43.2,27.6,42.8,27.1,42.8z"/>
	<path class="st0" d="M27.1,39.7h-6.3c-0.4,0-0.8,0.4-0.8,0.8c0,0.4,0.4,0.8,0.8,0.8h6.3c0.4,0,0.8-0.4,0.8-0.8
		C27.9,40,27.6,39.7,27.1,39.7z"/>
</g>
</svg>
