<?xml version="1.0" encoding="utf-8"?>
<!-- Generator: Adobe Illustrator 21.0.0, SVG Export Plug-In . SVG Version: 6.00 Build 0)  -->
<svg version="1.1" id="Layer_1" xmlns="http://www.w3.org/2000/svg" xmlns:xlink="http://www.w3.org/1999/xlink" x="0px" y="0px"
	 viewBox="0 0 48 52" style="enable-background:new 0 0 48 52;" xml:space="preserve">
<style type="text/css">
	.st0{fill:#9B9B9B;}
</style>
<g>
	<path class="st0" d="M47.4,23.7c-0.3-2.2-0.9-4.3-1.9-6.3c-0.9-1.7-1.9-3.2-3.2-4.5c-0.1-0.1-0.2-0.2-0.3-0.2
		c-0.1,0-0.1,0.1-0.2,0.2c-0.1,0.8-0.2,1.6-0.3,2.4c0,0,0,0,0,0c0,0,0,0,0,0c-1.3,0-2.5,0-3.8,0v0c-0.2-0.3-0.1-0.7-0.2-1
		c0-0.1,0-0.2,0-0.3c0,0,0,0,0,0c0,0,0,0,0,0c0-0.1,0-0.2-0.1-0.2c0-0.1,0-0.2,0-0.3c0,0,0,0,0,0c0,0,0,0,0,0c0-0.1,0-0.2-0.1-0.2
		c0-0.1,0-0.2,0-0.3c0-0.1-0.1,0-0.1,0c-0.6,0.4-1.1,0.8-1.7,1.2c-0.2,0.1-0.3,0.2-0.5,0c-0.7-0.8-1.5-1.5-2.3-2.3
		c-0.2-0.2-0.2-0.3,0-0.5c0.5-0.6,0.9-1.2,1.3-1.8c-0.2,0-0.3-0.1-0.5-0.1c-0.1,0-0.3,0-0.4,0c0-0.1-0.1-0.1-0.2,0
		c-0.1,0-0.3,0-0.4,0c0-0.1-0.1-0.1-0.2,0c-0.1,0-0.3,0-0.4,0c0,0,0,0,0,0c0-0.1-0.1,0-0.2,0c-0.1,0-0.3,0-0.4,0c0,0,0,0,0,0
		c0-0.2,0-0.4,0-0.6c0-0.4,0.1-0.9-0.1-1.3c0,0,0,0,0,0c-0.1-0.1-0.2-0.1-0.2-0.1c-0.1,0-0.3,0-0.4,0c-0.1-0.1-0.2-0.1-0.3-0.1
		c-0.3,0-0.5,0-0.8,0l0,0c-0.6-0.1-1.3-0.1-1.9,0c-0.2,0-0.5,0-0.7,0h0c0,0,0,0,0,0c-0.1,0-0.2,0-0.3,0.1c-0.1,0-0.3,0-0.4,0h0
		c0,0,0,0,0,0c-0.4,0.1-0.8,0.1-1.3,0.2c-1.4,0.3-2.8,0.7-4.1,1.3c-0.2,0.1-0.2,0.2-0.1,0.4c0.4,0.7,0.8,1.4,1.2,2.1
		c0.8,1.3,1.5,2.7,2.3,4c0.1,0.1,0.1,0.3,0.3,0.2c0.8-0.3,1.6-0.5,2.4-0.7c0.1,0,0.3,0,0.4,0l0,0c0,0,0,0,0,0c0.1,0,0.2,0,0.3-0.1
		c0.6,0,1.3,0,1.9,0l0,0c0.1,0.1,0.2,0.1,0.2,0c0.1,0,0.3,0,0.4,0c0,0,0.1,0.1,0.1,0.1c3,0.5,5.4,2,7.2,4.4c1.1,1.5,1.8,3.1,2.1,4.9
		c0,0.1,0,0.1,0.1,0.1c2.5,0,5.1,0,7.6,0v0v0c0,0,0.1,0,0.1,0c0-0.1,0-0.2,0-0.3C47.5,24,47.5,23.9,47.4,23.7
		C47.5,23.8,47.4,23.7,47.4,23.7z M47.3,23.7C47.3,23.7,47.3,23.7,47.3,23.7C47.3,23.7,47.4,23.7,47.3,23.7
		C47.3,23.7,47.3,23.7,47.3,23.7z"/>
	<path class="st0" d="M21.6,34.6c-3.1-2.7-4.4-6-3.9-10c0.3-2.9,1.7-5.2,3.9-7.1c0.2-0.2,0.2-0.3,0.1-0.5c-1.2-2-2.3-4-3.5-6.1
		c-0.2-0.3-0.3-0.2-0.5-0.1c-1.3,0.9-2.4,2-3.4,3.2c-1.3,1.5-2.3,3.3-3.1,5.3c0.3-0.4,0.5-0.1,0.6,0c0.7,0.7,1.4,1.4,2.1,2.1
		c0.2,0.2,0.3,0.4,0.1,0.6c-0.4,0.5-0.8,1.1-1.3,1.7c0.9,0.1,1.7,0.3,2.5,0.4c0,1.3,0,2.5,0,3.8c-0.8,0.1-1.7,0.3-2.5,0.4
		c0.5,0.6,0.9,1.2,1.4,1.8c0.1,0.2,0.1,0.3,0,0.5c-0.7,0.7-1.5,1.4-2.2,2.2c-0.2,0.2-0.4,0.4-0.7,0c1.4,3.6,3.6,6.4,6.6,8.6
		c0.2,0.1,0.3,0.1,0.4-0.1c1.2-2.1,2.4-4.1,3.6-6.2C21.8,34.8,21.8,34.7,21.6,34.6z"/>
	<path class="st0" d="M42.8,27.6c-0.9,0-1.9,0-2.8,0c-0.2,0-0.3,0-0.3,0.2c-0.5,2.9-1.9,5.2-4.2,7c-1.5,1.2-3.2,1.9-5.1,2.2
		c-0.1,0-0.2,0-0.3,0c-0.1,0-0.2,0-0.2,0c-0.3,0-0.6,0-0.9,0c-0.2,0-0.4,0-0.6,0c-0.3,0-0.5,0-0.8,0l0,0c-0.1-0.1-0.2-0.1-0.3-0.1
		c-0.1,0-0.3,0-0.4,0c-0.8-0.2-1.6-0.3-2.3-0.6c-0.2-0.1-0.2,0.1-0.3,0.2c-1.2,2-2.4,4.1-3.6,6.1c-0.1,0.3-0.1,0.4,0.2,0.5
		c1.7,0.7,3.4,1.2,5.2,1.5c0.1,0,0.3,0,0.4,0c0.1,0.1,0.2,0.1,0.2,0c0.2,0,0.5,0,0.7,0c0.2,0.1,0.4,0,0.6,0c0.4,0,0.7,0,1.1,0
		c0.2,0,0.4,0.1,0.7-0.1v0c0.2,0,0.4,0,0.6,0c0.1,0,0.2,0,0.3-0.1c0.1,0,0.3,0,0.4,0c0.1,0,0.1,0,0.2,0c0,0,0,0,0,0
		c0.1-0.6,0-1.2,0.1-1.9c0.1,0,0.3,0,0.4-0.1c0.1,0,0.2,0,0.3-0.1c0.1,0,0.2,0,0.3,0c0.1,0,0.1,0,0.2,0c0.1,0,0.3,0,0.4,0
		c0.1,0,0.1,0,0.2,0c0.1,0,0.3,0,0.4,0c0.1-0.1,0.5,0.1,0.3-0.3c-0.4-0.6-0.8-1.1-1.2-1.6c-0.2-0.2-0.2-0.3,0-0.5
		c0.8-0.8,1.6-1.5,2.3-2.3c0.2-0.2,0.3-0.1,0.4,0c0.5,0.4,1,0.8,1.5,1.2c0.1,0.1,0.1,0.2,0.2,0c0.1-0.1,0.1-0.2,0.1-0.3
		c0.2-0.7,0.2-1.4,0.3-2.1l0,0c1.3,0,2.5,0,3.8,0c0.2,0.3,0.1,0.7,0.2,1.1c0,0.1,0,0.2,0,0.3c0,0.1,0,0.2,0.1,0.3c0,0.1,0,0.2,0,0.3
		c0,0.1,0,0.2,0.1,0.3v0c0,0.1,0,0.2,0,0.3c0,0,0,0,0,0c0,0.3,0.2,0.3,0.4,0.2c0.1-0.1,0.2-0.3,0.4-0.4c1.3-1.3,2.3-2.8,3.1-4.4
		c0.9-1.7,1.4-3.5,1.7-5.4c0-0.1,0-0.3,0-0.4c0.1,0,0-0.1,0-0.2c0,0,0.1-0.1,0.1-0.1c0-0.1,0-0.3,0-0.4c0-0.1,0-0.2,0-0.3
		c0,0-0.1,0-0.1,0C45.9,27.6,44.4,27.6,42.8,27.6z M29.7,44.6C29.7,44.6,29.7,44.6,29.7,44.6C29.7,44.6,29.7,44.6,29.7,44.6
		C29.7,44.6,29.7,44.6,29.7,44.6z"/>
	<path class="st0" d="M32.8,7.8c0,0.2,0.1,0.3,0.3,0.2c0.1,0.1,0.2,0.1,0.3,0.1c0.1,0,0.2,0,0.3,0c0.2,0.1,0.5,0.1,0.7,0.1
		c0,0,0,0,0,0h0c0.1,0,0.3,0,0.4,0c0.3,0,0.4,0.2,0.4,0.4c0.1,0.3,0.2,0.5,0.3,0.8c0.1,0.2,0.1,0.3,0,0.4c-0.4,0.5-0.7,0.9-1.1,1.4
		c-0.1,0.2-0.1,0.2,0,0.4c0.8,0.8,0.8,0.8,1.7,0.2c0.1,0,0.1-0.1,0.2-0.1c0.5-0.4,0.9-0.7,1.5-0.2c0.3,0.2,0.7,0.2,0.7,0.7
		c0,0.1,0,0.2,0,0.3c0,0.1,0,0.2,0.1,0.3v0c0,0.1,0,0.2,0,0.3c0,0.1,0,0.1,0,0.2c0,0,0,0,0,0c0,0,0,0,0,0c0,0.1,0,0.3,0,0.4
		c0,0,0,0,0,0c0,0.1,0,0.2,0.1,0.2v0l0,0h0c0,0,0.1,0,0.1,0c0.4,0.1,0.8,0.1,1.2,0c0,0,0.1,0,0.1,0c0.1,0,0.1-0.1,0-0.2c0,0,0,0,0,0
		c0,0,0,0,0,0c0-0.1,0-0.3,0-0.4c0.1,0,0.1-0.1,0-0.2c0-0.1,0-0.3,0-0.4c0.1,0,0.1-0.1,0-0.2c0-0.1,0-0.3,0-0.4c0,0,0,0,0,0
		c0-0.4,0.3-0.5,0.6-0.7c0.8-0.5,1.3-0.2,1.8,0.3c0.9,0.7,0.9,0.7,1.7-0.2c0,0,0,0,0,0c0.1-0.1,0.1-0.2,0-0.3
		c-0.3-0.3-0.6-0.7-0.8-1c-0.2-0.3-0.6-0.6-0.3-1.1c0.1-0.2,0.2-0.4,0.3-0.6c0.1-0.3,0.2-0.4,0.4-0.5c0.1,0,0.2,0,0.3,0h0
		c0,0,0,0,0,0c0.1,0,0.2,0,0.3-0.1l0,0c0.1,0,0.2,0,0.3,0h0c0,0,0,0,0,0c0.1,0,0.2,0,0.2-0.1c0,0,0,0,0,0l0,0c0.1,0,0.2,0,0.3,0
		c0.1,0,0.1,0,0.2,0c0.1,0,0.2,0,0.2,0c0.1,0,0.1,0,0.1-0.1c0-0.4,0-0.8,0-1.2c0-0.2-0.1-0.2-0.2-0.1c-0.1,0-0.2,0-0.2,0.1
		c0-0.1-0.1-0.1-0.2-0.1c-0.5-0.1-0.9-0.1-1.4-0.2c-0.2,0-0.3-0.1-0.4-0.2c-0.1-0.4-0.4-0.8-0.4-1.2c0-0.4,0.4-0.7,0.7-1
		c0.2-0.3,0.6-0.6,0.6-0.9c0-0.3-0.5-0.5-0.7-0.8c-0.1-0.2-0.3-0.2-0.4,0c-0.4,0.3-0.8,0.6-1.2,0.9c-0.3,0.3-0.6,0.2-0.9,0.1
		c-0.1,0-0.1-0.2-0.3-0.2c-0.4-0.1-0.7-0.3-0.7-0.7c0,0,0,0,0,0c0-0.1,0-0.2,0-0.3c0-0.1,0-0.2-0.1-0.3c0-0.1,0-0.2,0-0.3
		c0,0,0,0,0,0c0-0.1,0-0.2-0.1-0.2c0-0.1,0-0.2,0-0.3c0-0.1,0-0.2-0.1-0.3c-0.4,0-0.9,0-1.3,0c0,0.1-0.1,0.2-0.1,0.3c0,0,0,0,0,0v0
		c0,0.1,0,0.2,0,0.3c-0.1,0.1-0.1,0.2-0.1,0.3c0,0,0,0,0,0c0,0.1,0,0.2,0,0.3l0,0c-0.1,0.1-0.1,0.2-0.1,0.3c0,0,0,0,0,0c0,0,0,0,0,0
		c0,0.1,0,0.2,0,0.3c-0.2,0.2,0.1,0.5-0.2,0.6c-0.4,0.1-0.7,0.3-1.1,0.5c-0.1,0.1-0.2,0-0.3,0c-0.5-0.3-1-0.7-1.4-1.1
		c-0.2-0.1-0.3-0.2-0.4,0c-0.2,0.2-0.4,0.4-0.6,0.6c-0.1,0.1-0.1,0.2,0,0.3c0.2,0.3,0.4,0.6,0.7,0.9c0.4,0.5,0.6,0.9,0.2,1.5
		c-0.1,0.1-0.1,0.2-0.1,0.3c0,0.2-0.1,0.3-0.3,0.3l0,0c-0.1,0-0.2,0-0.3,0l0,0c0,0,0,0,0,0c-0.1,0-0.2,0-0.3,0.1c0,0,0,0,0,0
		c0,0,0,0,0,0c-0.1,0-0.2,0-0.3,0c-0.1,0-0.1,0-0.2,0c0,0,0,0,0,0c0,0,0,0,0,0c-0.1,0-0.3,0-0.4,0c-0.1,0-0.1,0-0.2,0
		c-0.4-0.1-0.6,0.1-0.5,0.5C32.8,7.4,32.8,7.6,32.8,7.8z M39.1,4.8C39.1,4.8,39.1,4.7,39.1,4.8C39.1,4.7,39.1,4.7,39.1,4.8
		c0.3,0,0.5,0,0.8,0c0.9,0.2,1.6,0.7,2,1.5c0.6,1.3,0.1,2.9-1.3,3.5C40.4,9.8,40.2,10,40,9.9l0,0l0,0c-0.3,0-0.7,0-1,0
		c-1.3-0.3-2.1-1.3-2.1-2.6C36.9,6,37.7,5,39.1,4.8z M33.3,6.7C33.3,6.7,33.3,6.7,33.3,6.7C33.3,6.7,33.3,6.7,33.3,6.7
		C33.3,6.7,33.3,6.7,33.3,6.7z M33.3,6.7C33.3,6.7,33.3,6.7,33.3,6.7C33.3,6.7,33.3,6.7,33.3,6.7C33.3,6.7,33.3,6.7,33.3,6.7z"/>
	<path class="st0" d="M46.1,44.2c0-0.2-0.1-0.3-0.3-0.2v0c-0.5-0.1-1-0.2-1.5-0.2c-0.3,0-0.6-0.1-0.6-0.5c0-0.3-0.2-0.5-0.3-0.7
		c-0.1-0.2-0.1-0.3,0-0.5c0.3-0.4,0.7-0.9,1-1.4c0.1-0.2,0.2-0.3,0-0.4c-0.2-0.2-0.4-0.4-0.6-0.6c-0.1-0.1-0.2-0.2-0.4,0
		c-0.4,0.3-0.8,0.6-1.2,0.9c-0.3,0.2-0.5,0.3-0.8,0.1c-0.2-0.1-0.4-0.2-0.7-0.3c-0.2,0-0.3-0.1-0.3-0.3c-0.1-0.6-0.1-1.3-0.3-1.9v0
		l0,0c0,0,0,0,0,0c0,0,0,0-0.1,0c-0.4-0.1-0.8,0-1.3,0c-0.1,0-0.1,0.1-0.1,0.2c-0.1,0.5-0.2,1-0.2,1.6c0,0.4-0.2,0.4-0.5,0.6
		c-0.8,0.5-1.3,0.2-1.9-0.3c-0.3-0.2-0.6-0.6-0.8-0.6c-0.3,0-0.5,0.5-0.8,0.7c-0.2,0.1-0.2,0.2,0,0.4c0.3,0.3,0.5,0.7,0.8,1
		c0.4,0.4,0.5,0.7,0.1,1.2c-0.1,0.1-0.1,0.2-0.1,0.4c0,0.4-0.3,0.4-0.6,0.5c-0.5,0.1-1,0.1-1.4,0.2c-0.3,0-0.4,0.1-0.4,0.4
		c0,0.2,0,0.4,0,0.6c-0.1,0.4,0.1,0.5,0.5,0.5v0v0c0.4,0.1,0.9,0.2,1.4,0.2c0.3,0,0.4,0.2,0.6,0.5c0.5,0.8,0.2,1.4-0.3,2
		c-0.2,0.2-0.6,0.6-0.6,0.8c0,0.3,0.4,0.5,0.7,0.8c0,0,0,0,0,0c0.1,0.2,0.2,0.2,0.4,0c0.3-0.3,0.7-0.5,1.1-0.8
		c0.4-0.3,0.7-0.4,1.1-0.1c0.1,0.1,0.3,0.1,0.5,0.2c0.2,0.1,0.3,0.1,0.3,0.4c0.1,0.7,0.2,1.3,0.3,2c0.4,0,0.9,0,1.3,0
		c0.1-0.5,0.2-1,0.2-1.6c0.1-0.4,0.1-0.8,0.7-0.9c0.2,0,0.4-0.1,0.6-0.3c0.2-0.1,0.3-0.1,0.4,0c0.5,0.4,0.9,0.7,1.4,1
		c0.2,0.1,0.3,0.2,0.5,0c0.2-0.2,0.4-0.4,0.6-0.6c0.2-0.1,0.1-0.2,0-0.4c-0.3-0.3-0.5-0.6-0.7-0.9c-0.4-0.4-0.6-0.8-0.2-1.4
		c0.1-0.1,0.1-0.2,0.1-0.4c0-0.3,0.2-0.4,0.5-0.4c0.5-0.1,1-0.1,1.5-0.2v0c0.3,0.1,0.5-0.1,0.4-0.4C46.1,44.7,46.1,44.4,46.1,44.2z
		 M41.2,46.6c-0.8,0.7-1.7,0.9-2.7,0.5c-0.9-0.4-1.5-1.1-1.6-2.1c-0.1-1.4,0.6-2.4,2.1-2.8c0,0,0,0,0,0c0.3,0,0.7,0,1,0c0,0,0,0,0,0
		c0,0,0,0,0,0c1,0.3,1.7,0.9,2,1.9C42.2,45,42,45.9,41.2,46.6z"/>
	<path class="st0" d="M11.6,31c0.2-0.2,0.4-0.4,0.6-0.6c0.2-0.1,0.1-0.2,0-0.4c-0.3-0.4-0.6-0.8-0.9-1.2c-0.3-0.3-0.4-0.6-0.1-1
		c0.1-0.2,0.2-0.4,0.2-0.6c0-0.2,0.1-0.2,0.3-0.3c0.4-0.1,0.8-0.1,1.2-0.2c0.1,0,0.2,0,0.3,0l0,0c0,0,0,0,0,0c0.1,0,0.2,0,0.3-0.1
		c0.2,0,0.3,0,0.3-0.3c0-0.2,0-0.5,0-0.7c0-0.3-0.1-0.5-0.4-0.4c0-0.1-0.1-0.1-0.2,0c-0.1,0-0.3,0-0.4,0l0,0c0-0.1-0.1-0.1-0.2,0
		c0,0,0,0,0,0c-0.1,0-0.3,0-0.4,0l0,0c0-0.1-0.1-0.1-0.2,0c0,0,0,0,0,0c-0.1,0-0.3,0-0.4,0l0,0c-0.1-0.1-0.2,0-0.2-0.2
		c-0.5-1.2-0.5-1.2,0.3-2.3c0,0,0,0,0,0c0.6-0.8,0.6-0.8-0.1-1.5c-0.2-0.2-0.4-0.2-0.6,0c-0.4,0.3-0.8,0.6-1.1,0.9
		c-0.2,0.2-0.5,0.3-0.8,0.1c-0.2-0.1-0.4-0.2-0.7-0.3c-0.2-0.1-0.4-0.2-0.4-0.4c0-0.1,0-0.3,0-0.4l0,0v0c0-0.1,0-0.1,0-0.2
		c0-0.1,0-0.3,0-0.4c0-0.1,0-0.1-0.1-0.2c0-0.1,0-0.2,0-0.3l0,0v0c0-0.1,0-0.2-0.1-0.2c0-0.2,0-0.3-0.3-0.3c-0.4,0-0.7,0-1.1,0
		c0,0,0,0,0,0c0,0,0,0,0,0c-0.1,0.2-0.1,0.4-0.1,0.6c0,0.1,0,0.3,0,0.4l0,0c-0.1,0-0.1,0.1,0,0.2c0,0,0,0,0,0c0,0.1,0,0.3,0,0.4l0,0
		c-0.1,0-0.1,0.1,0,0.2c0,0.1,0,0.3,0,0.4l0,0c0,0.2-0.2,0.2-0.3,0.2c-0.3,0.1-0.6,0.2-0.8,0.3c-0.2,0.1-0.3,0.1-0.4,0
		c-0.4-0.3-0.9-0.7-1.3-1c-0.2-0.1-0.4-0.2-0.6,0c-0.2,0.2-0.4,0.4-0.6,0.6C2,21.8,2,21.9,2.1,22c0.2,0.3,0.4,0.7,0.7,0.9
		c0.4,0.4,0.5,0.8,0.2,1.4c-0.2,0.5-0.4,0.8-0.9,0.8c-0.1,0-0.3,0-0.4,0c-0.1,0-0.1,0-0.2,0c-0.1,0-0.3,0-0.4,0c-0.1,0-0.1,0-0.2,0
		c-0.1,0-0.3,0-0.4,0c0,0-0.1,0-0.1,0c0,0.5,0,0.9,0,1.4c0.7,0.1,1.4,0.2,2.1,0.3c0.1,0,0.2,0,0.2,0.1c0.6,1.2,0.6,1.1-0.2,2.2
		c-0.2,0.3-0.6,0.6-0.6,0.9c0.1,0.3,0.5,0.5,0.7,0.8c0.1,0.2,0.2,0.1,0.4,0c0.3-0.2,0.7-0.5,0.9-0.7c0.4-0.4,0.8-0.6,1.3-0.2
		c0.2,0.2,0.6,0.1,0.8,0.4c0,0.1,0,0.3,0,0.4c0,0.1,0,0.1,0,0.2c0,0.1,0,0.3,0,0.4c0,0.1,0,0.1,0,0.2c0,0.1,0,0.3,0,0.4
		c0.1,0.2,0,0.4,0.1,0.6c0.4,0,0.8,0,1.1,0c0.2,0,0.2-0.1,0.2-0.2c0.1-0.1,0.1-0.2,0.1-0.2c0-0.1,0-0.2,0-0.3C8,31.8,8,31.7,8,31.6
		c0-0.1,0-0.2,0-0.3l0,0c0-0.1,0.1-0.1,0.1-0.2c0-0.5,0.1-0.8,0.7-0.9c0.2,0,0.3-0.1,0.5-0.2c0.2-0.1,0.3-0.1,0.5,0
		c0.4,0.4,0.9,0.7,1.4,1C11.3,31.2,11.4,31.2,11.6,31z M7.9,28.5c-0.1,0-0.2,0-0.3,0.1c-0.3,0-0.6,0-0.9,0c-1.2-0.3-1.9-1.1-2.1-2.3
		c0,0,0,0,0,0c0-0.2,0-0.4,0-0.6c0.2-0.9,0.6-1.6,1.5-2c0.2-0.1,0.5-0.2,0.7-0.3l0,0c0.3,0,0.5,0,0.8,0c1.2,0.3,1.9,1,2.2,2.1
		c0,0,0,0,0,0v0c0,0.3,0,0.6,0,0.9C9.5,27.5,8.9,28.2,7.9,28.5z"/>
</g>
</svg>
