<?xml version="1.0" encoding="utf-8"?>
<!-- Generator: Adobe Illustrator 21.0.0, SVG Export Plug-In . SVG Version: 6.00 Build 0)  -->
<svg version="1.1" id="Layer_1" xmlns="http://www.w3.org/2000/svg" xmlns:xlink="http://www.w3.org/1999/xlink" x="0px" y="0px"
	 viewBox="0 0 48 36" style="enable-background:new 0 0 48 36;" xml:space="preserve">
<style type="text/css">
	.st0{fill:#9C9C9C;}
</style>
<g>
	<path class="st0" d="M30.5,21.2c-0.2-0.4-0.3-0.8-0.3-1.2V7.5c0-1.4,1.2-2.6,2.6-2.6c1.4,0,2.6,1.2,2.6,2.6v9.9
		c1.1-0.4,2.3-0.7,3.6-0.7c0.2,0,0.4,0,0.6,0V1.5c0-0.5-0.4-1-1-1h-37c-0.5,0-1,0.4-1,1v25c0,0.5,0.4,1,1,1h27.3c0-0.2,0-0.4,0-0.5
		C28.7,24.8,29.4,22.8,30.5,21.2z M9.9,20c0,1.4-1.2,2.6-2.6,2.6S4.8,21.4,4.8,20V7.5c0-1.4,1.2-2.6,2.6-2.6s2.6,1.2,2.6,2.6V20z
		 M18.4,20c0,1.4-1.2,2.6-2.6,2.6s-2.6-1.2-2.6-2.6V7.5c0-1.4,1.2-2.6,2.6-2.6s2.6,1.2,2.6,2.6V20z M26.8,20c0,1.4-1.2,2.6-2.6,2.6
		s-2.6-1.2-2.6-2.6V7.5c0-1.4,1.2-2.6,2.6-2.6s2.6,1.2,2.6,2.6V20z"/>
	<path class="st0" d="M46.5,25.2h-1c-0.6,0-1-0.4-1-1c0-0.3,0.1-0.5,0.3-0.7l0.7-0.7c0.4-0.4,0.4-1,0-1.4c0,0,0,0,0,0l-1-1
		c-0.4-0.4-1-0.4-1.4,0c0,0,0,0,0,0L42.3,21c-0.4,0.4-1,0.4-1.4,0c-0.2-0.2-0.3-0.5-0.3-0.7v-1c0-0.6-0.5-1-1-1h-1.4
		c-0.6,0-1,0.5-1,1v1c0,0.6-0.4,1-1,1c-0.3,0-0.5-0.1-0.7-0.3l-0.7-0.7c-0.4-0.4-1-0.4-1.4,0c0,0,0,0,0,0l-1,1c-0.4,0.4-0.4,1,0,1.4
		c0,0,0,0,0,0l0.7,0.7c0.4,0.4,0.4,1,0,1.4c-0.2,0.2-0.5,0.3-0.7,0.3h-1c-0.6,0-1,0.5-1,1v1.4c0,0.6,0.5,1,1,1h1c0.6,0,1,0.4,1,1
		c0,0.3-0.1,0.5-0.3,0.7L32.3,31c-0.4,0.4-0.4,1,0,1.4c0,0,0,0,0,0l1,1c0.4,0.4,1,0.4,1.4,0c0,0,0,0,0,0l0.7-0.7
		c0.4-0.4,1-0.4,1.4,0c0.2,0.2,0.3,0.5,0.3,0.7v1c0,0.6,0.5,1,1,1h1.4c0.6,0,1-0.5,1-1v-1c0-0.6,0.4-1,1-1c0.3,0,0.5,0.1,0.7,0.3
		l0.7,0.7c0.4,0.4,1,0.4,1.4,0c0,0,0,0,0,0l1-1c0.4-0.4,0.4-1,0-1.4c0,0,0,0,0,0l-0.7-0.7c-0.4-0.4-0.4-1,0-1.4
		c0.2-0.2,0.5-0.3,0.7-0.3h1c0.6,0,1-0.5,1-1v-1.4C47.5,25.6,47,25.2,46.5,25.2z M38.9,31.2c-2.4,0-4.3-1.9-4.3-4.3
		c0-2.4,1.9-4.3,4.3-4.3c2.4,0,4.3,1.9,4.3,4.3C43.2,29.2,41.2,31.2,38.9,31.2z"/>
	<circle class="st0" cx="38.9" cy="26.9" r="2.9"/>
</g>
</svg>
