<?xml version="1.0" encoding="utf-8"?>
<!-- Generator: Adobe Illustrator 21.0.0, SVG Export Plug-In . SVG Version: 6.00 Build 0)  -->
<svg version="1.1" id="Layer_1" xmlns:sketch="http://www.bohemiancoding.com/sketch/ns"
	 xmlns="http://www.w3.org/2000/svg" xmlns:xlink="http://www.w3.org/1999/xlink" x="0px" y="0px" viewBox="0 0 48 62"
	 style="enable-background:new 0 0 48 62;" xml:space="preserve">
<style type="text/css">
	.st0{fill:#9B9B9B;}
</style>
<title></title>
<desc></desc>
<g id="slice" transform="translate(215.000000, 119.000000)">
</g>
<g>
	<path class="st0" d="M46.1,50.1H1.9c0,0-1.4,0-1.4,1.5c0,1.5,1.4,1.3,1.4,1.3h17.4l-6.9,6.9l2,2l8.9-8.9h1.6l8.9,8.9l2-2l-6.9-6.9
		h17.4c0,0,1.4,0.2,1.4-1.3C47.5,50.1,46.1,50.1,46.1,50.1z"/>
	<polygon class="st0" points="28.1,3.1 25.4,3.1 25.5,0.3 22.6,0.3 22.6,3.1 19.9,3.1 19.9,5.8 28.1,5.8 	"/>
	<path class="st0" d="M42,8.6H6c0,0-5.5,0-5.5,5.5v27.6c0,5.5,5.5,5.5,5.5,5.5H42c0,0,5.5,0,5.5-5.5V14.1C47.5,8.6,42,8.6,42,8.6z
		 M14.3,41.8c-4.6,0-8.3-3.7-8.3-8.3s3.7-8.3,8.3-8.3v8.3h8.3C22.6,38.1,18.9,41.8,14.3,41.8z M42,39H28.1v-2.8H42V39z M42,30.7
		H28.1v-2.8H42V30.7z M42,19.7H6v-5.5H42V19.7z"/>
</g>
</svg>
