<?xml version="1.0" encoding="utf-8"?>
<!-- Generator: Adobe Illustrator 21.0.0, SVG Export Plug-In . SVG Version: 6.00 Build 0)  -->
<svg version="1.1" id="Layer_1" xmlns="http://www.w3.org/2000/svg" xmlns:xlink="http://www.w3.org/1999/xlink" x="0px" y="0px"
	 viewBox="0 0 48 53" style="enable-background:new 0 0 48 53;" xml:space="preserve">
<style type="text/css">
	.st0{fill:#9B9B9B;}
</style>
<g>
	<path class="st0" d="M0.5,24.8c4.6,0,5.3-2.5,5.3-4.8c0-1.8-0.3-3.6-0.5-5.5C5,12.7,4.7,11,4.7,9.1c0-6,3.9-8.5,9.4-8.5h1.4v3.6
		h-1.2c-3.8,0-5.1,2.1-5.1,5.6c0,1.5,0.2,3,0.5,4.6c0.3,1.6,0.5,3.2,0.5,4.9c0.1,4.2-1.8,6.2-4.7,7v0.1c2.9,0.7,4.7,2.9,4.7,7.1
		c0,1.8-0.2,3.4-0.5,4.9c-0.3,1.6-0.5,3.1-0.5,4.7c0,3.6,1.5,5.6,5.1,5.6h1.2v3.6h-1.4c-5.4,0-9.4-2.3-9.4-8.9
		c0-1.8,0.3-3.6,0.5-5.3c0.3-1.8,0.5-3.5,0.5-5.3c0-2-0.6-4.8-5.3-4.8V24.8z"/>
	<path class="st0" d="M47.5,28.1c-4.6,0-5.3,2.8-5.3,4.8c0,1.8,0.3,3.5,0.5,5.3c0.3,1.8,0.5,3.6,0.5,5.3c0,6.6-4.1,8.9-9.4,8.9h-1.4
		v-3.6h1.1c3.6-0.1,5.2-2,5.2-5.6c0-1.6-0.3-3-0.5-4.7c-0.3-1.6-0.5-3.2-0.5-4.9c0-4.2,1.8-6.4,4.7-7.1v-0.1c-2.9-0.8-4.7-2.9-4.7-7
		c0-1.8,0.3-3.3,0.5-4.9c0.2-1.6,0.5-3.1,0.5-4.6c0-3.5-1.4-5.5-5.1-5.6h-1.2V0.6h1.3c5.5,0,9.5,2.5,9.5,8.5c0,1.8-0.3,3.6-0.5,5.4
		c-0.3,1.8-0.5,3.6-0.5,5.5c0,2.3,0.6,4.8,5.3,4.8V28.1z"/>
</g>
</svg>
