<?xml version="1.0" encoding="utf-8"?>
<!-- Generator: Adobe Illustrator 21.0.0, SVG Export Plug-In . SVG Version: 6.00 Build 0)  -->
<svg version="1.1" id="Layer_1" xmlns="http://www.w3.org/2000/svg" xmlns:xlink="http://www.w3.org/1999/xlink" x="0px" y="0px"
	 viewBox="0 0 48 44" style="enable-background:new 0 0 48 44;" xml:space="preserve">
<style type="text/css">
	.st0{fill:#9B9B9B;}
</style>
<g>
	<path class="st0" d="M37.3,39c-1.8,2.1-4,3.7-6.5,4.9h16.6V39H37.3z"/>
	<path class="st0" d="M40.2,26.4c0-9.7-7.9-17.5-17.5-17.5c-5.5,0-10.3,2.5-13.6,6.4c-0.6-0.2-1.2-0.5-1.6-0.9
		c-0.8-0.7-1.3-1.7-1.3-2.9c0-2.2,1.8-3.9,3.9-3.9c0.3,0,0.7,0.1,1,0.1l-1.5,3.1L13,9.6l4.6-1.6l-0.1-0.3l-2.6-7.6l-1.6,3.2
		c-1-0.4-2.1-0.6-3.2-0.6c-4.9,0-8.8,4-8.8,8.8c0,2.9,1.4,5.5,3.6,7.1c0.5,0.4,1,0.7,1.6,0.9c-0.9,2.1-1.4,4.4-1.4,6.8
		c0,2.1,0.4,4.2,1.2,6.2L3,34l7.8,3.1l3.1-7.8l-3.2,1.4c-0.5-1.4-0.8-2.8-0.8-4.3c0-7,5.7-12.6,12.6-12.6s12.6,5.7,12.6,12.6
		c0,7-5.7,12.6-12.6,12.6H0.5v4.9h22.2C32.4,43.9,40.2,36,40.2,26.4z"/>
</g>
</svg>
