<?xml version="1.0" encoding="utf-8"?>
<!-- Generator: Adobe Illustrator 21.0.0, SVG Export Plug-In . SVG Version: 6.00 Build 0)  -->
<svg version="1.1" id="Layer_1" xmlns="http://www.w3.org/2000/svg" xmlns:xlink="http://www.w3.org/1999/xlink" x="0px" y="0px"
	 viewBox="0 0 48 32" style="enable-background:new 0 0 48 32;" xml:space="preserve">
<style type="text/css">
	.st0{fill:#9B9B9B;}
</style>
<g id="Layer_1_1_">
</g>
<g>
	<path class="st0" d="M37.5,28.1L37.5,28.1c-0.1,0-0.2,0-0.3,0c-0.2,0.7-0.8,1.3-1.6,1.3H4.1c-0.9,0-1.7-0.8-1.7-1.7V6.6h34.8v1
		c0.1,0,0.1,0,0.2,0h1.8V4.3c0-2-1.6-3.6-3.6-3.6H4.1c-2,0-3.6,1.6-3.6,3.6v23.4c0,2,1.6,3.6,3.6,3.6h31.5c1.9,0,3.4-1.4,3.6-3.2
		L37.5,28.1L37.5,28.1z M35.2,3c0.5,0,0.8,0.4,0.8,0.8c0,0.5-0.4,0.8-0.8,0.8c-0.5,0-0.8-0.4-0.8-0.8C34.4,3.4,34.8,3,35.2,3z
		 M28.7,3h4.1c0.4,0,0.8,0.3,0.8,0.8c0,0.4-0.3,0.8-0.8,0.8h-4.1c-0.4,0-0.8-0.3-0.8-0.8C27.9,3.4,28.3,3,28.7,3z"/>
	<path class="st0" d="M8.9,21.6H11l0.4-1.3h2.3l0.4,1.3h2.1l-2.4-7.2h-2.6L8.9,21.6z M12.3,16.4c0.1-0.4,0.1-0.7,0.2-0.8
		c0,0.2,0.1,0.5,0.2,0.9c0.1,0.4,0.2,0.8,0.3,1l0.3,1.2h-1.5C12.1,17.6,12.3,16.8,12.3,16.4z"/>
	<path class="st0" d="M17.5,14.4v7.2h1.9v-2.4H20c0.9,0,1.5-0.2,2-0.7c0.5-0.4,0.7-1.1,0.7-1.9c0-0.7-0.2-1.3-0.7-1.7
		c-0.5-0.4-1.1-0.6-2-0.6H17.5z M20.7,16.7c0,0.3-0.1,0.5-0.3,0.7c-0.2,0.2-0.4,0.2-0.7,0.2h-0.4V16h0.5
		C20.4,16,20.7,16.2,20.7,16.7z"/>
	<rect x="24.3" y="14.4" class="st0" width="2" height="7.2"/>
	<path class="st0" d="M47.6,25.5l-4.1-4.1c0.7-1.1,1.1-2.4,1.1-3.8c0-4-3.2-7.2-7.2-7.2c-4,0-7.2,3.2-7.2,7.2c0,4,3.2,7.2,7.2,7.2
		c1.5,0,3-0.5,4.1-1.3l4.1,4.1c0.3,0.3,0.7,0.4,1,0.4c0.4,0,0.7-0.1,1-0.4C48.1,27,48.1,26.1,47.6,25.5z M37.3,22.5
		c-2.7,0-4.9-2.2-4.9-4.9s2.2-4.9,4.9-4.9c2.7,0,4.9,2.2,4.9,4.9S40,22.5,37.3,22.5z"/>
</g>
</svg>
