<?xml version="1.0" encoding="utf-8"?>
<!-- Generator: Adobe Illustrator 21.0.0, SVG Export Plug-In . SVG Version: 6.00 Build 0)  -->
<svg version="1.1" id="Layer_1" xmlns="http://www.w3.org/2000/svg" xmlns:xlink="http://www.w3.org/1999/xlink" x="0px" y="0px"
	 viewBox="0 0 48 48" style="enable-background:new 0 0 48 48;" xml:space="preserve">
<style type="text/css">
	.st0{fill:#9B9B9B;}
</style>
<g>
	<path class="st0" d="M47.1,45.2l-4-4c-0.3-0.3-0.6-0.4-1-0.4c-0.2,0-0.3,0-0.5,0.1l-0.8-0.8c3.4-3.8,3.3-9.6-0.4-13.3
		c-1.9-1.9-4.4-2.8-6.8-2.8s-4.9,0.9-6.8,2.8c-3.8,3.8-3.8,9.9,0,13.6c1.9,1.9,4.4,2.8,6.8,2.8c2.3,0,4.6-0.8,6.4-2.4l0.8,0.8
		c-0.2,0.5-0.1,1.1,0.3,1.5l4,4c0.3,0.3,0.6,0.4,1,0.4c0.3,0,0.7-0.1,1-0.4C47.6,46.6,47.6,45.7,47.1,45.2z M39.4,38.8l-0.3,0.3
		l-0.3,0.3c-1.4,1.3-3.3,2-5.2,2c-2.1,0-4-0.8-5.5-2.3c-1.5-1.5-2.3-3.4-2.3-5.5c0-2.1,0.8-4,2.3-5.5c1.5-1.5,3.4-2.3,5.5-2.3
		c2.1,0,4,0.8,5.5,2.3C42.1,31.1,42.2,35.8,39.4,38.8z"/>
	<path class="st0" d="M22.7,37.9c0.1-0.1,0.1-0.1,0.2-0.2c-0.3-0.7-0.5-1.4-0.6-2.1c-0.4,0.4-0.7,0.8-1.1,1.1v-8.1
		c0.7,0,1.3,0.1,1.9,0.2c0.3-0.6,0.6-1.2,1-1.8c-1-0.2-1.9-0.3-2.9-0.3v-5.7h7.2c0,0.8-0.1,1.6-0.2,2.3c0.6-0.3,1.3-0.6,2-0.8
		c0.1-0.5,0.1-1,0.1-1.5h7.8c0,0.6-0.1,1.2-0.2,1.7c0.6,0.2,1.2,0.5,1.8,0.9c0.2-1.2,0.3-2.3,0.3-3.6C40,9.4,31.1,0.5,20.2,0.5
		S0.5,9.4,0.5,20.2S9.4,40,20.2,40c1.2,0,2.4-0.1,3.6-0.3c-0.3-0.6-0.6-1.2-0.9-1.8C22.9,37.9,22.8,37.9,22.7,37.9z M38.1,19.3h-7.8
		c-0.1-2.4-0.6-5-1.5-7.4c1.8-0.8,3.5-1.8,5.1-3.1C36.3,11.7,37.9,15.5,38.1,19.3z M32.6,7.4c-1.4,1.1-2.9,2.1-4.6,2.8
		c-1.3-2.8-3.1-5.4-5.4-7.6C26.5,3.1,30,4.8,32.6,7.4z M21.2,3.7c2.2,2,3.9,4.4,5.1,7.1c-1.7,0.5-3.4,0.9-5.1,0.9V3.7z M21.2,13.6
		c2-0.1,4-0.4,5.9-1.1c0.8,2.1,1.2,4.4,1.3,6.7h-7.2V13.6z M17.4,2.6c-2.2,2.1-4,4.7-5.3,7.4c-1.5-0.7-3-1.6-4.3-2.6
		C10.4,4.9,13.7,3.2,17.4,2.6z M6.6,8.8c1.5,1.2,3.2,2.2,4.9,3c-0.9,2.4-1.4,4.7-1.5,7.5H2.4C2.6,15.5,4.1,11.7,6.6,8.8z M2.4,21.2
		h7.5c0.1,2.8,0.6,5.1,1.5,7.5c-1.7,0.8-3.4,1.8-4.9,3C4.1,28.8,2.6,24.9,2.4,21.2z M7.8,33.1c1.3-1.1,2.8-2,4.3-2.6
		c1.3,2.8,3.1,5.3,5.3,7.4C13.7,37.3,10.4,35.6,7.8,33.1z M19.3,37c-2.3-2.1-4.1-4.5-5.4-7.3c1.8-0.6,3.6-0.9,5.4-1V37z M19.3,26.8
		c-2.1,0.1-4.1,0.5-6.1,1.2c-0.8-2.2-1.3-4.5-1.4-6.8h7.5V26.8z M19.3,19.3h-7.5c0.1-2.4,0.6-4.7,1.4-6.8c2,0.7,4.1,1.1,6.1,1.2
		V19.3z M19.3,11.8c-1.8-0.1-3.6-0.4-5.4-1C15.2,8,17,5.5,19.3,3.4V11.8z"/>
</g>
</svg>
