<?xml version="1.0" encoding="utf-8"?>
<!-- Generator: Adobe Illustrator 21.0.0, SVG Export Plug-In . SVG Version: 6.00 Build 0)  -->
<svg version="1.1" id="Layer_1" xmlns="http://www.w3.org/2000/svg" xmlns:xlink="http://www.w3.org/1999/xlink" x="0px" y="0px"
	 viewBox="0 0 48 43" style="enable-background:new 0 0 48 43;" xml:space="preserve">
<style type="text/css">
	.st0{fill:#9B9B9B;}
</style>
<g>
	<path class="st0" d="M34.4,25.2L32,24.5c-0.6-0.2-1.1-0.8-1.2-1.4l-0.6-2.3c-0.2-0.6,0-1.4,0.4-1.8l1.7-1.7
		c0.4-0.4,0.5-1.2,0.2-1.7c0,0-0.2-0.3-0.6-0.9c-0.5-0.6-0.7-0.9-0.7-0.9c-0.4-0.4-1.2-0.6-1.7-0.3l-2.1,1.2
		C26.8,15,26,15,25.5,14.6l-2-1.2c-0.5-0.3-1-1-1-1.6l0-2.4c0-0.6-0.5-1.2-1.1-1.3l-2.2-0.3c-0.6,0-1.2,0.4-1.4,1l-0.7,2.3
		c-0.2,0.6-0.8,1.1-1.4,1.2l-2.3,0.6c-0.6,0.2-1.4,0-1.8-0.4L10,10.8c-0.4-0.4-1.2-0.5-1.7-0.2c0,0-0.3,0.2-0.9,0.6
		C6.8,11.7,6.5,12,6.5,12c-0.4,0.4-0.6,1.2-0.3,1.7l1.2,2.1c0.3,0.5,0.2,1.4-0.1,1.9l-1.2,2c-0.3,0.5-1,1-1.6,1l-2.4,0
		c-0.6,0-1.2,0.5-1.3,1.1l-0.3,2.2c0,0.6,0.4,1.2,1,1.4L3.8,26c0.6,0.2,1.1,0.8,1.2,1.4l0.6,2.3c0.2,0.6,0,1.4-0.4,1.8l-1.7,1.7
		c-0.4,0.4-0.5,1.2-0.2,1.7c0,0,0.2,0.3,0.6,0.9c0.5,0.6,0.7,0.9,0.7,0.9c0.4,0.4,1.2,0.6,1.7,0.3l2.1-1.2c0.5-0.3,1.4-0.2,1.9,0.1
		l2,1.2c0.5,0.3,1,1,1,1.6l0,2.4c0,0.6,0.3,1.2,0.7,1.3c0.4,0.1,1.4,0.3,1.5,0.3c0,0,0.3,0,0.7,0.1c0.4,0,1.6-0.4,1.8-1l0.7-2.3
		c0.2-0.6,0.8-1.1,1.4-1.2l2.3-0.6c0.6-0.2,1.4,0,1.8,0.4l1.7,1.7c0.4,0.4,1.2,0.5,1.7,0.2c0,0,0.3-0.2,0.9-0.6
		c0.6-0.5,0.9-0.7,0.9-0.7c0.4-0.4,0.6-1.2,0.3-1.7l-1.2-2.1c-0.3-0.5-0.2-1.4,0.1-1.9l1.2-2c0.3-0.5,1-1,1.6-1l2.4,0
		c0.6,0,1.2-0.5,1.3-1.1l0.3-2.2C35.4,26,34.9,25.3,34.4,25.2z M20.6,28.7c-1.9,1.5-4.7,1.1-6.1-0.9c-1.5-1.9-1.1-4.7,0.9-6.1
		c1.9-1.5,4.7-1.1,6.1,0.9C22.9,24.5,22.5,27.3,20.6,28.7z"/>
	<path class="st0" d="M47.5,6.8l-0.3-1c-0.1-0.3-0.4-0.5-0.7-0.4l-1.1,0.2c-0.3,0-0.7-0.1-0.8-0.4l-0.7-0.9
		c-0.2-0.2-0.3-0.6-0.2-0.9l0.4-1.1c0.1-0.3,0-0.6-0.2-0.8c0,0-0.1-0.1-0.5-0.3C43,1,42.9,1,42.9,1c-0.3-0.1-0.6,0-0.8,0.2l-0.7,0.9
		c-0.2,0.2-0.6,0.4-0.8,0.3l-1.1-0.1c-0.3,0-0.6-0.2-0.7-0.5l-0.5-1.1c-0.1-0.3-0.4-0.4-0.7-0.4l-1,0.3C36.1,0.7,36,1.1,36,1.3
		l0.2,1.2c0,0.3-0.1,0.7-0.4,0.8L34.9,4c-0.2,0.2-0.6,0.3-0.9,0.2l-1.1-0.4c-0.3-0.1-0.6,0-0.8,0.2c0,0-0.1,0.1-0.3,0.5
		C31.7,4.8,31.6,5,31.6,5c-0.1,0.3,0,0.6,0.2,0.8l0.9,0.7C33,6.6,33.1,7,33.1,7.3l-0.1,1.1c0,0.3-0.2,0.6-0.5,0.7l-1.1,0.5
		c-0.3,0.1-0.5,0.4-0.4,0.6c0,0.2,0.2,0.7,0.2,0.7c0,0,0.1,0.2,0.1,0.3c0.1,0.2,0.5,0.6,0.8,0.6l1.2-0.2c0.3,0,0.7,0.1,0.8,0.4
		l0.7,0.9c0.2,0.2,0.3,0.6,0.2,0.9l-0.4,1.1c-0.1,0.3,0,0.6,0.2,0.8c0,0,0.1,0.1,0.5,0.3c0.3,0.2,0.5,0.2,0.5,0.2
		c0.3,0.1,0.6,0,0.8-0.2l0.7-0.9c0.2-0.2,0.6-0.4,0.8-0.3l1.1,0.1c0.3,0,0.6,0.2,0.7,0.5l0.5,1.1c0.1,0.3,0.4,0.4,0.7,0.4l1-0.3
		c0.3-0.1,0.5-0.4,0.4-0.7l-0.2-1.2c0-0.3,0.1-0.7,0.4-0.8l0.9-0.7c0.2-0.2,0.6-0.3,0.9-0.2l1.1,0.4c0.3,0.1,0.6,0,0.8-0.2
		c0,0,0.1-0.1,0.3-0.5c0.2-0.3,0.2-0.5,0.2-0.5c0.1-0.3,0-0.6-0.2-0.8l-0.9-0.7c-0.2-0.2-0.4-0.6-0.3-0.8l0.1-1.1
		c0-0.3,0.2-0.6,0.5-0.7l1.1-0.5C47.4,7.4,47.5,7.1,47.5,6.8z M41.1,9.6c-0.6,1-1.9,1.4-2.9,0.8c-1-0.6-1.4-1.9-0.8-2.9
		c0.6-1,1.9-1.4,2.9-0.8C41.3,7.3,41.7,8.6,41.1,9.6z"/>
</g>
</svg>
