<?xml version="1.0" encoding="utf-8"?>
<!-- Generator: Adobe Illustrator 21.0.0, SVG Export Plug-In . SVG Version: 6.00 Build 0)  -->
<svg version="1.1" id="Layer_1" xmlns="http://www.w3.org/2000/svg" xmlns:xlink="http://www.w3.org/1999/xlink" x="0px" y="0px"
	 viewBox="0 0 48 56" style="enable-background:new 0 0 48 56;" xml:space="preserve">
<style type="text/css">
	.st0{fill:#9B9B9B;}
</style>
<g>
	<path class="st0" d="M47.5,27.5c0-2.1-0.6-3.5-2.6-4.1c-1.5-0.5-1.8-1.4-1.8-2.9C43.4,14,41,8.7,35.9,4.5c-2.9-2.4-6.9-4.1-9.8-4.2
		c-2.2-0.2-4.7,0.2-4.9,0.3C10.9,2.4,4.5,10.2,4.9,20.7c0.1,1.6-0.5,2.2-1.8,2.7c-2,0.7-2.7,2-2.6,4.1c0.1,5.6,0.1,11.1,0,16.7
		c0,1.6,0.6,2.7,2.1,3.3c6.6,2.6,13.1,5.2,19.7,7.8c1,0.4,2,0.5,3.1,0.1c6.6-2.7,13.2-5.3,19.8-7.9c1.5-0.6,2.2-1.6,2.2-3.3
		C47.4,38.6,47.4,33.1,47.5,27.5z M24,51.3c-6.3-2.5-12.3-4.9-18.3-7.3c-0.8-0.3-0.9-0.8-0.9-1.5c0-4,0-7.9,0-11.9
		c0-1.3,0.3-1.5,1.5-1c5.6,2.3,11.2,4.5,16.9,6.7c0.9,0.3,0.8,0.8,0.8,1.4C24,42.2,24,46.6,24,51.3z M38.7,22.3
		c-0.4,2.8-1.4,4.9-4.5,5.8c-3.4,1-10.1,3.6-10.1,3.6s-6.6-2.6-10.1-3.5c-3.4-0.9-4.3-3.3-4.7-6.2C8.1,13.9,13.2,6.5,21.2,4.9
		C29,3.3,36.6,8.3,38.5,16.3c0.3,1.1,0.3,2.3,0.4,3.3C38.8,20.6,38.8,21.5,38.7,22.3z"/>
	<path class="st0" d="M24.2,11.1c-4.8-0.1-8.6,3.6-8.7,8.4C15.4,24,19.3,28,24,28c4.7,0,8.6-3.9,8.6-8.5
		C32.5,14.9,28.8,11.1,24.2,11.1z M24,22.3c-1.6-0.2-2.7-1-2.7-2.7c0-1.7,1-2.7,2.7-2.7c1.7,0,2.7,1,2.7,2.7
		C26.7,21.2,25.6,22,24,22.3z"/>
</g>
</svg>
