<?xml version="1.0" encoding="utf-8"?>
<!-- Generator: Adobe Illustrator 21.0.0, SVG Export Plug-In . SVG Version: 6.00 Build 0)  -->
<svg version="1.1" id="Layer_1" xmlns="http://www.w3.org/2000/svg" xmlns:xlink="http://www.w3.org/1999/xlink" x="0px" y="0px"
	 viewBox="0 0 48 72" style="enable-background:new 0 0 48 72;" xml:space="preserve">
<style type="text/css">
	.st0{fill:#9B9B9B;}
</style>
<g>
	<path class="st0" d="M47.5,17.2l-7.2-4.2l-1.8-8.1l-8.3,0.8L24,0.1l-6.2,5.5L9.5,4.8l-1.8,8.1l-7.2,4.2l3.3,7.6l-3.3,7.6l7.2,4.2
		l1.8,8.1l8.3-0.8l6.2,5.5l6.2-5.5l8.3,0.8l1.8-8.1l7.2-4.2l-3.3-7.6L47.5,17.2z M24,40.1c-8.4,0-15.3-6.8-15.3-15.3
		c0-8.4,6.8-15.3,15.3-15.3c8.4,0,15.3,6.9,15.3,15.3C39.3,33.2,32.4,40.1,24,40.1z"/>
	<polygon class="st0" points="30.9,46 25.9,50.4 32.6,71.9 36.6,66 43.2,68.6 36.3,46.5 	"/>
	<polygon class="st0" points="11.7,46.5 6.1,62.9 12.8,60.4 16.6,66.5 22.1,50.4 17.1,46 	"/>
	<path class="st0" d="M24,13.4c-6.3,0-11.5,5.1-11.5,11.5c0,6.3,5.1,11.5,11.5,11.5c6.3,0,11.5-5.1,11.5-11.5
		C35.5,18.5,30.3,13.4,24,13.4z"/>
</g>
</svg>
