<?xml version="1.0" encoding="utf-8"?>
<!-- Generator: Adobe Illustrator 21.0.0, SVG Export Plug-In . SVG Version: 6.00 Build 0)  -->
<svg version="1.1" id="Layer_1" xmlns="http://www.w3.org/2000/svg" xmlns:xlink="http://www.w3.org/1999/xlink" x="0px" y="0px"
	 viewBox="0 0 48 29" style="enable-background:new 0 0 48 29;" xml:space="preserve">
<style type="text/css">
	.st0{fill:#9B9B9B;}
</style>
<g>
	<path class="st0" d="M46.7,20.3H33.9c-0.5,0-0.8,0.4-0.8,0.8v6.7c0,0.5,0.4,0.8,0.8,0.8h12.8c0.5,0,0.8-0.4,0.8-0.8v-6.7
		C47.5,20.6,47.1,20.3,46.7,20.3z M33.9,25.4c0,0.1-0.1,0.2-0.2,0.2s-0.2-0.1-0.2-0.2v-1.9c0-0.1,0.1-0.2,0.2-0.2s0.2,0.1,0.2,0.2
		V25.4z M45.8,27.8H34.3v-6.8h11.4V27.8z M46.6,25c-0.3,0-0.5-0.2-0.5-0.5s0.2-0.5,0.5-0.5s0.5,0.2,0.5,0.5
		C47.1,24.7,46.9,25,46.6,25z"/>
	<circle class="st0" cx="46.6" cy="24.5" r="0.3"/>
	<path class="st0" d="M32.4,26.3h-7.1V10.5h12v9.1h1.3V10c0-0.6-0.5-1.1-1.1-1.1H25.1c-0.6,0-1.1,0.5-1.1,1.1v17.5
		c0,0.6,0.5,1.1,1.1,1.1h7.6c-0.2-0.2-0.3-0.5-0.3-0.8V26.3z M30,9.4h2.6c0.2,0,0.3,0.1,0.3,0.3S32.8,10,32.6,10H30
		c-0.2,0-0.3-0.1-0.3-0.3C29.6,9.5,29.8,9.4,30,9.4z M31.3,28.1c-0.4,0-0.7-0.3-0.7-0.7c0-0.4,0.3-0.7,0.7-0.7
		c0.4,0,0.7,0.3,0.7,0.7C32,27.8,31.7,28.1,31.3,28.1z"/>
	<path class="st0" d="M1.6,1.5h30.2v6.7H33V1c0-0.4-0.3-0.6-0.6-0.6H1.1C0.8,0.3,0.5,0.6,0.5,1v18.8v0.7v2.2c0,0.7,0.6,1.3,1.3,1.3
		h10.9c0,1.1-0.1,2.4-0.6,3.3h-1c-0.2,0-0.3,0.1-0.3,0.3v0.7c0,0.2,0.1,0.3,0.3,0.3h11.1c0.2,0,0.3-0.1,0.3-0.3v-0.7
		c0-0.2-0.1-0.3-0.3-0.3h-1c-0.5-0.9-0.6-2.2-0.6-3.3h2.5v-4.6H1.6V1.5z M16.4,21.6c0.1,0,0.2,0,0.3,0c0,0-0.1,0-0.1-0.1
		c-0.1-0.1,0-0.3,0-0.3s0.2,0,0.2,0.2c0,0.1,0,0.2,0,0.2c0.1,0,0.2-0.1,0.3-0.1c0.1,0,0.2,0.1,0.2,0.2c-0.1,0.1-0.2,0.2-0.2,0.4
		c0,0.3,0.2,0.5,0.5,0.5c-0.1,0.2-0.3,0.4-0.5,0.5c-0.1,0-0.2,0-0.3,0c-0.1,0-0.3,0.1-0.4,0c-0.3-0.1-0.5-0.4-0.5-0.8
		C15.9,22.1,16.1,21.8,16.4,21.6z"/>
	<circle class="st0" cx="31.3" cy="27.4" r="0.4"/>
</g>
</svg>
