<?xml version="1.0" encoding="utf-8"?>
<!-- Generator: Adobe Illustrator 21.0.0, SVG Export Plug-In . SVG Version: 6.00 Build 0)  -->
<svg version="1.1" id="Layer_1" xmlns="http://www.w3.org/2000/svg" xmlns:xlink="http://www.w3.org/1999/xlink" x="0px" y="0px"
	 viewBox="0 0 48 48" style="enable-background:new 0 0 48 48;" xml:space="preserve">
<style type="text/css">
	.st0{fill:#9B9B9B;}
</style>
<g>
	<path class="st0" d="M43.6,10.3c-0.5,0-1,0.4-1,1c0,0.5,0.4,1,1,1c1.1,0,2,0.9,2,2v29.4c0,1.1-0.9,2-2,2H4.4c-1.1,0-2-0.9-2-2v-2
		h5.9V16.2H2.5v-2c0-1.1,0.9-2,2-2H24c0.5,0,1-0.4,1-1c0-0.5-0.4-1-1-1H4.4c-2.2,0-3.9,1.8-3.9,3.9v2v25.5v2c0,2.2,1.8,3.9,3.9,3.9
		h39.2c2.2,0,3.9-1.8,3.9-3.9V14.2C47.5,12,45.7,10.3,43.6,10.3z M2.5,26h3.9v5.9H2.5V26z M2.5,39.7v-5.9h3.9v5.9H2.5z M6.4,18.1V24
		H2.5v-5.9H6.4z"/>
	<path class="st0" d="M20.1,16.2c0.5,0,1-0.4,1-1c0-0.5-0.4-1-1-1h-9.8v29.4h33.3V14.2h-3.9c-0.5,0-1,0.4-1,1c0,0.5,0.4,1,1,1h2
		v25.5H12.3V16.2H20.1z"/>
	<path class="st0" d="M36.4,3.1L20.2,19.4l-1.9,6.1l-1.8,1.8c-0.4,0.4-0.4,1,0,1.4c0.2,0.2,0.4,0.3,0.7,0.3s0.5-0.1,0.7-0.3l1.8-1.8
		l6.1-1.9l0.2-0.2l0,0l0,0l10.5-10.5c0,0,0,0,0,0s0,0,0,0l6.9-6.9c1.5-1.5,1.5-4,0-5.5c-1.5-1.5-4.1-1.5-5.5,0L36.4,3.1
		C36.4,3.1,36.4,3.1,36.4,3.1C36.4,3.1,36.4,3.1,36.4,3.1z M35.7,12.1l-2.8-2.8l4.2-4.2L39.9,8L35.7,12.1z M25.2,22.7l-2.8-2.8
		l9.1-9.1l2.8,2.8L25.2,22.7z M21.5,21.7l1.9,1.9l-2.8,0.9L21.5,21.7z M41.9,3.1c0.8,0.8,0.8,2,0,2.8l-0.7,0.7l-2.8-2.8l0.7-0.7
		C39.9,2.4,41.2,2.4,41.9,3.1z"/>
</g>
</svg>
