<?xml version="1.0" encoding="utf-8"?>
<!-- Generator: Adobe Illustrator 21.0.0, SVG Export Plug-In . SVG Version: 6.00 Build 0)  -->
<svg version="1.1" id="Layer_1" xmlns="http://www.w3.org/2000/svg" xmlns:xlink="http://www.w3.org/1999/xlink" x="0px" y="0px"
	 viewBox="0 0 48 65" style="enable-background:new 0 0 48 65;" xml:space="preserve">
<style type="text/css">
	.st0{fill:#9B9B9B;}
</style>
<g>
	<path class="st0" d="M47.2,62.4l-7-9V41.7c0-4.5-2.6-6.6-6.4-9.8c-0.5-0.4-1-0.9-1.6-1.3v-6.1c0-2.9-2.4-5.3-5.3-5.3H8.2
		c-2.9,0-5.3,2.4-5.3,5.3v29.4c0,2.9,2.4,5.3,5.3,5.3h19.1c0.3,1,0.7,2,1.4,2.9L30,64c0.3,0.4,0.7,0.6,1.1,0.6
		c0.3,0,0.5-0.1,0.8-0.2c0.6-0.4,0.7-1.3,0.3-1.9l-1.4-1.9c-0.8-1.1-1.2-2.5-1.2-3.9v-4.1l-0.2-0.8l-6-8.7l-0.2-0.2
		c-0.6-0.6-0.6-1.5,0-2.1c0.6-0.6,1.5-0.6,2.1,0l7.3,7.3c0.5,0.5,1.4,0.5,1.9,0c0.5-0.5,0.5-1.4,0-1.9L32.2,44V34
		c3.7,3,5.3,4.5,5.3,7.7v12.2l0.3,0.8l7.3,9.4c0.3,0.3,0.7,0.5,1.1,0.5c0.3,0,0.6-0.1,0.8-0.3C47.6,63.8,47.7,63,47.2,62.4z
		 M27.1,38.9c-1.6-1.6-4.3-1.6-5.9,0c-1.6,1.6-1.6,4.2-0.1,5.8l5.7,8.3v3.6H8.2c-1.5,0-2.7-1.2-2.7-2.7V24.5c0-1.5,1.2-2.7,2.7-2.7
		h18.7c1.5,0,2.7,1.2,2.7,2.7v16.8L27.1,38.9z"/>
	<path class="st0" d="M9.9,16.9c2-2,4.7-3.1,7.6-3.1s5.5,1.1,7.6,3.1L27,15c-2.5-2.5-5.9-3.9-9.4-3.9s-6.9,1.4-9.4,3.9L9.9,16.9z"/>
	<path class="st0" d="M30.7,11.2C23.4,4,11.6,4,4.3,11.2l1.9,1.9c6.3-6.3,16.4-6.3,22.7,0L30.7,11.2z"/>
	<path class="st0" d="M32.6,9.4l1.9-1.9c-9.4-9.4-24.6-9.4-34,0l1.9,1.9C10.7,1,24.3,1,32.6,9.4z"/>
	<circle class="st0" cx="12.2" cy="28.5" r="1.3"/>
	<circle class="st0" cx="17.5" cy="28.5" r="1.3"/>
	<circle class="st0" cx="22.9" cy="28.5" r="1.3"/>
	<circle class="st0" cx="12.2" cy="33.8" r="1.3"/>
	<circle class="st0" cx="17.5" cy="33.8" r="1.3"/>
	<circle class="st0" cx="12.2" cy="39.2" r="1.3"/>
	<circle class="st0" cx="17.5" cy="39.2" r="1.3"/>
	<circle class="st0" cx="12.2" cy="44.5" r="1.3"/>
	<circle class="st0" cx="17.5" cy="44.5" r="1.3"/>
	<circle class="st0" cx="12.2" cy="49.9" r="1.3"/>
	<circle class="st0" cx="17.5" cy="49.9" r="1.3"/>
	<circle class="st0" cx="22.9" cy="33.8" r="1.3"/>
</g>
</svg>
