<?xml version="1.0" encoding="utf-8"?>
<!-- Generator: Adobe Illustrator 21.0.0, SVG Export Plug-In . SVG Version: 6.00 Build 0)  -->
<svg version="1.1" id="Ebene_1" xmlns="http://www.w3.org/2000/svg" xmlns:xlink="http://www.w3.org/1999/xlink" x="0px" y="0px"
	 viewBox="0 0 48 42" style="enable-background:new 0 0 48 42;" xml:space="preserve">
<style type="text/css">
	.st0{fill:#9B9B9B;}
</style>
<g>
	<path class="st0" d="M45.4,14.9H2.6c-1.2,0-2.1,1-2.1,2.1v8c0,1.2,1,2.1,2.1,2.1h42.7c1.2,0,2.1-1,2.1-2.1v-8
		C47.5,15.8,46.5,14.9,45.4,14.9z M6,22.3c-0.7,0-1.3-0.6-1.3-1.3s0.6-1.3,1.3-1.3s1.3,0.6,1.3,1.3S6.7,22.3,6,22.3z M28.7,22.9h-16
		c-0.3,0-0.5-0.2-0.5-0.5c0-0.3,0.2-0.5,0.5-0.5h16c0.3,0,0.5,0.2,0.5,0.5C29.2,22.6,29,22.9,28.7,22.9z M28.7,20.2h-16
		c-0.3,0-0.5-0.2-0.5-0.5c0-0.3,0.2-0.5,0.5-0.5h16c0.3,0,0.5,0.2,0.5,0.5C29.2,20,29,20.2,28.7,20.2z M34,22.3
		c-0.7,0-1.3-0.6-1.3-1.3s0.6-1.3,1.3-1.3c0.7,0,1.3,0.6,1.3,1.3S34.8,22.3,34,22.3z M38,22.3c-0.7,0-1.3-0.6-1.3-1.3
		s0.6-1.3,1.3-1.3c0.7,0,1.3,0.6,1.3,1.3S38.8,22.3,38,22.3z M42,22.3c-0.7,0-1.3-0.6-1.3-1.3s0.6-1.3,1.3-1.3
		c0.7,0,1.3,0.6,1.3,1.3S42.8,22.3,42,22.3z"/>
	<path class="st0" d="M45.4,29H2.6c-1.2,0-2.1,1-2.1,2.1v8c0,1.2,1,2.1,2.1,2.1h42.7c1.2,0,2.1-1,2.1-2.1v-8
		C47.5,30,46.5,29,45.4,29z M6,36.5c-0.7,0-1.3-0.6-1.3-1.3c0-0.7,0.6-1.3,1.3-1.3s1.3,0.6,1.3,1.3C7.3,35.9,6.7,36.5,6,36.5z
		 M28.7,37h-16c-0.3,0-0.5-0.2-0.5-0.5s0.2-0.5,0.5-0.5h16c0.3,0,0.5,0.2,0.5,0.5S29,37,28.7,37z M28.7,34.4h-16
		c-0.3,0-0.5-0.2-0.5-0.5c0-0.3,0.2-0.5,0.5-0.5h16c0.3,0,0.5,0.2,0.5,0.5C29.2,34.1,29,34.4,28.7,34.4z M34,36.5
		c-0.7,0-1.3-0.6-1.3-1.3c0-0.7,0.6-1.3,1.3-1.3c0.7,0,1.3,0.6,1.3,1.3C35.3,35.9,34.8,36.5,34,36.5z M38,36.5
		c-0.7,0-1.3-0.6-1.3-1.3c0-0.7,0.6-1.3,1.3-1.3c0.7,0,1.3,0.6,1.3,1.3C39.4,35.9,38.8,36.5,38,36.5z M42,36.5
		c-0.7,0-1.3-0.6-1.3-1.3c0-0.7,0.6-1.3,1.3-1.3c0.7,0,1.3,0.6,1.3,1.3C43.4,35.9,42.8,36.5,42,36.5z"/>
	<path class="st0" d="M45.4,0.7H2.6c-1.2,0-2.1,1-2.1,2.1v8c0,1.2,1,2.1,2.1,2.1h42.7c1.2,0,2.1-1,2.1-2.1v-8
		C47.5,1.7,46.5,0.7,45.4,0.7z M6,8.2c-0.7,0-1.3-0.6-1.3-1.3S5.2,5.5,6,5.5s1.3,0.6,1.3,1.3S6.7,8.2,6,8.2z M28.7,8.7h-16
		c-0.3,0-0.5-0.2-0.5-0.5s0.2-0.5,0.5-0.5h16c0.3,0,0.5,0.2,0.5,0.5S29,8.7,28.7,8.7z M28.7,6h-16c-0.3,0-0.5-0.2-0.5-0.5
		c0-0.3,0.2-0.5,0.5-0.5h16c0.3,0,0.5,0.2,0.5,0.5C29.2,5.8,29,6,28.7,6z M34,8.2c-0.7,0-1.3-0.6-1.3-1.3s0.6-1.3,1.3-1.3
		c0.7,0,1.3,0.6,1.3,1.3S34.8,8.2,34,8.2z M38,8.2c-0.7,0-1.3-0.6-1.3-1.3s0.6-1.3,1.3-1.3c0.7,0,1.3,0.6,1.3,1.3S38.8,8.2,38,8.2z
		 M42,8.2c-0.7,0-1.3-0.6-1.3-1.3s0.6-1.3,1.3-1.3c0.7,0,1.3,0.6,1.3,1.3S42.8,8.2,42,8.2z"/>
</g>
</svg>
