<?xml version="1.0" encoding="utf-8"?>
<!-- Generator: Adobe Illustrator 21.0.0, SVG Export Plug-In . SVG Version: 6.00 Build 0)  -->
<svg version="1.1" id="Layer_1" xmlns="http://www.w3.org/2000/svg" xmlns:xlink="http://www.w3.org/1999/xlink" x="0px" y="0px"
	 viewBox="0 0 48 44" style="enable-background:new 0 0 48 44;" xml:space="preserve">
<style type="text/css">
	.st0{fill:#9B9B9B;}
</style>
<g>
	<polygon class="st0" points="32.4,16 33.2,16 33,15.8 32.2,15.8 	"/>
	<polygon class="st0" points="30.4,14.5 29.5,15.4 28.9,16 31.2,16 31.6,16 31.6,15.7 	"/>
	<path class="st0" d="M42.2,28.1l-0.5,2.1h-3.3v1.6H37v2.8l-1.2,1.2h-2.7v-2.5l-1.5-1.5v-3.6l-0.6,2h-6.5v2.4h-1.8l-0.9,1.3v3
		l-2.7,2v3.6l-3-2.8v-7.3L13,29.4l-0.2,0.8H6.2l-0.5-2.1l-0.5,2.1H3.9c3.2,8,11,13.6,20.2,13.6c9.1,0,16.9-5.6,20.1-13.6h-1.4
		L42.2,28.1z"/>
	<polygon class="st0" points="34.5,16 35,16 36,16 36.3,15.7 37.5,15.7 36.8,14.9 35.6,14.9 	"/>
	<path class="st0" d="M4.2,16v-1.4C5.2,11.8,6.9,9.2,9,7.1l6.6,0.1l-0.3,1.4l-2,0.1l0.2,0.7L14,9.9l-0.5,0.9l-1.6-0.2l0.9,1.3
		l1.6,1.1l0.5,1.3l0.7-0.2v-3.2h1.8v0.4h1.9v2.2h-0.8v0.9h-0.8v0.6h1.1l-0.7,0.7l-0.3-0.3L17.1,16h3.1l0.2,0.9l0.2-0.9h6.6v-1.2h0.6
		v-0.5l0.4-0.4l-0.7-0.7l-0.9,0.9l-0.7-0.7l0.4-0.4v-0.7v-1.3h1.4v0.8l1.2,1.2h0.9v-0.9h2.6v-0.9h1.1V9.9h-1.1V8.7h-0.6v2.5
		l-0.5,0.5l-0.9-0.4l-1.6-0.4l0.1-1.5l1.6-1.2l0.9-1.6l1.7-0.4l-0.2,0.8L34,7.1L34,7.9l1.3-0.1l0.6-0.4L36,6.7h2.6
		c2.6,2.5,4.6,5.7,5.7,9.3h0.6C42.3,6.9,33.9,0.3,24,0.3C14.1,0.3,5.7,6.9,3.1,16H4.2L4.2,16z M21.8,7.2h1.1V5.9h-0.7h-0.2V2.7h1.3
		V1l0.1-0.2c0.2,0,0.5,0,0.7,0c1.1,0,2.1,0.1,3.1,0.2v1.1h1.5v1.7v2.4h-1.2l-1,1l-2.4,2.4L22.8,11l-1.1-1.1V7.2z M17.7,1.8l0.4,0.4
		l-0.7,0.7h-1.2v1.2h1.7h0.9v5.5h-1.9v-4h-1.3V3.7h-0.9v1.1l-0.8,0.8h-1.9l-0.5-0.5C13.2,3.7,15.4,2.5,17.7,1.8z"/>
	<polygon class="st0" points="14.4,24.4 15.3,24.4 14.9,22.8 	"/>
	<path class="st0" d="M7.6,23.3c0.1-0.3,0.2-1,0.4-1.9c0.1-0.3,0.1-0.6,0.2-1h0.1l0.2,1.1L8.5,22l0.2,0.8l1.1,4.5h3.5l0.4-1.3
		l1.6-5.8l0.2-0.7l0.4-1.6h-1.3h-0.3h-1.7l-0.8,3.6c-0.1,0.4-0.2,0.9-0.3,1.5c-0.1,0.6-0.1,1.2-0.2,1.6h0c0,0,0,0,0,0
		c-0.1-0.7-0.2-1.6-0.5-2.8L10,17.9H6.4l-0.1,0.6l-0.7,3.2C5.2,23.1,5,24,5,24.6H5c0-0.8-0.2-1.8-0.4-3.1l-0.8-3.6H0.5l2.6,9.4h3.5
		L7.6,23.3z"/>
	<path class="st0" d="M27.6,21.5c-0.1,0.4-0.2,0.9-0.3,1.5c-0.1,0.6-0.1,1.2-0.2,1.6h-0.1c-0.1-0.7-0.2-1.6-0.5-2.9l-0.8-3.8h-1.5
		h-2.2l-0.9,3.8c-0.3,1.3-0.4,2.2-0.5,2.7c0,0.1,0,0.1,0,0.2h-0.1c0,0,0-0.1,0-0.1c0-0.8-0.2-1.8-0.4-3l-0.8-3.6h-2h-1.3l0.6,2.3
		l0.1,0.5l0,0.2l1.6,5.9l0.1,0.5h0.6h0.2h2.7l1-4c0.1-0.4,0.2-1.2,0.5-2.4c0-0.2,0.1-0.3,0.1-0.5H24l0.1,0.5l0.1,0.6l0.3,1.4
		l1.1,4.5h3.5l1.8-6.5l0.2-0.6l0.6-2.3h-1.3h0h-1.9L27.6,21.5z"/>
	<path class="st0" d="M44.3,17.9l-0.8,3.6c-0.1,0.4-0.2,0.9-0.3,1.5c-0.1,0.6-0.1,1.2-0.2,1.6H43c-0.1-0.7-0.2-1.6-0.5-2.9L41.7,18
		l0-0.1H38l-0.9,3.8c-0.3,1.3-0.4,2.2-0.5,2.7c0,0.1,0,0.1,0,0.2h-0.1c0,0,0-0.1,0-0.1c0-0.8-0.2-1.8-0.4-2.9l-0.2-1.1l-0.5-2.5h-2
		h-1.3l0.6,2.3l0.8,2.9l0.8,2.8l0.4,1.4h3.5l1-4c0.1-0.3,0.2-0.8,0.3-1.6c0.1-0.4,0.1-0.8,0.2-1.3h0.1l0.1,0.8l0,0.3l0.3,1.4
		l1.1,4.5h3.5l2.6-9.4H44.3z"/>
</g>
</svg>
