<?xml version="1.0" encoding="utf-8"?>
<!-- Generator: Adobe Illustrator 21.0.2, SVG Export Plug-In . SVG Version: 6.00 Build 0)  -->
<svg version="1.1" id="Layer_1" xmlns="http://www.w3.org/2000/svg" xmlns:xlink="http://www.w3.org/1999/xlink" x="0px" y="0px"
	 viewBox="0 0 74 74" style="enable-background:new 0 0 74 74;" xml:space="preserve">
<style type="text/css">
	.st0{fill:#006FAF;}
	.st1{fill:#0D6EAE;}
</style>
<title>health-checks</title>
<path class="st0" d="M37,0C16.6,0,0,16.6,0,37s16.6,37,37,37s37-16.6,37-37S57.4,0,37,0z M37,72C17.7,72,2,56.3,2,37S17.7,2,37,2
	s35,15.7,35,35S56.3,72,37,72z"/>
<path class="st1" d="M37.1,18.9c-7.5,0-13.6,6.1-13.6,13.6c0,4.4,2.1,8.5,5.6,11.1l0.1,0.1c0.8,0.5,0.9,2,0.9,2.4v0.1v4.4
	c0,0.9,0.5,1.6,1.2,2l4.5,2.4c0.3,0.1,0.7,0.2,1,0.2s0.7-0.1,1-0.2l4.6-2.4c0.8-0.3,1.2-1.1,1.2-2v-4.4c0-2.3,1.4-2.9,1.4-2.9
	c0.2-0.1,0.3-0.2,0.5-0.3c3.1-2.6,4.9-6.3,4.9-10.4C50.6,25,44.5,18.9,37.1,18.9z M37.1,52.9l-4.5-2.4h9.2L37.1,52.9z M41.7,46.1
	c0,0.9,0,1.6,0,2.1h-9.2v-2.1l9.2-0.1V46.1z M44.4,41c0,0-1.5,0.7-2.3,2.7h-9.9c-0.2-0.8-0.8-1.6-1.6-2.1c-2.9-2-4.9-5.3-4.9-9.2
	c0-6.2,5.1-11.3,11.3-11.3c6.2,0,11.3,5.1,11.3,11.3C48.4,35.9,46.8,39,44.4,41z"/>
<path class="st1" d="M38.2,23.4c-0.7,0-1.1,0.5-1.1,1.1s0.5,1.1,1.1,1.1c2.5,0,5.6,2.3,5.6,5.8c0,0.7,0.5,1.1,1.1,1.1
	s1.1-0.5,1.1-1.1C46.1,26.2,42,23.4,38.2,23.4z"/>
</svg>
