<?xml version="1.0" encoding="utf-8"?>
<!-- Generator: Adobe Illustrator 21.0.2, SVG Export Plug-In . SVG Version: 6.00 Build 0)  -->
<svg version="1.1" id="Layer_1" xmlns="http://www.w3.org/2000/svg" xmlns:xlink="http://www.w3.org/1999/xlink" x="0px" y="0px"
	 viewBox="0 0 74 74" style="enable-background:new 0 0 74 74;" xml:space="preserve">
<style type="text/css">
	.st0{fill:#006FAF;}
	.st1{fill:none;stroke:#006FAF;stroke-width:2;stroke-miterlimit:10;}
	.st2{fill:#006FAF;stroke:#006FAF;stroke-width:0.5;stroke-miterlimit:10;}
</style>
<title>health-checks</title>
<path class="st0" d="M37,0C16.6,0,0,16.6,0,37s16.6,37,37,37s37-16.6,37-37S57.4,0,37,0z M37,72C17.7,72,2,56.3,2,37S17.7,2,37,2
	s35,15.7,35,35S56.3,72,37,72z"/>
<g>
	<path class="st1" d="M56,38.8c0.1-0.6,0.1-1.2,0.1-1.8s0-1.2-0.1-1.8l-3.2-0.8c-0.1-0.4-0.1-0.8-0.2-1.2l2.7-1.9
		c-0.4-1.1-0.8-2.3-1.4-3.3l-3.2,0.5c-0.2-0.3-0.4-0.7-0.7-1l1.7-2.8c-0.8-0.9-1.6-1.8-2.5-2.5L46.4,24c-0.3-0.2-0.6-0.4-1-0.7
		l0.5-3.2c-1-0.6-2.1-1-3.3-1.4l-1.9,2.7c-0.4-0.1-0.8-0.2-1.2-0.2L38.8,18c-0.6-0.1-1.2-0.1-1.8-0.1c-0.6,0-1.2,0-1.8,0.1l-0.8,3.2
		c-0.4,0.1-0.8,0.1-1.2,0.2l-1.9-2.7c-1.1,0.4-2.3,0.8-3.3,1.4l0.5,3.2c-0.3,0.2-0.7,0.4-1,0.7l-2.8-1.7c-0.9,0.8-1.8,1.6-2.5,2.5
		l1.7,2.8c-0.2,0.3-0.4,0.6-0.7,1l-3.2-0.5c-0.6,1-1,2.1-1.4,3.3l2.7,1.9c-0.1,0.4-0.2,0.8-0.2,1.2L18,35.2
		c-0.1,0.6-0.1,1.2-0.1,1.8s0,1.2,0.1,1.8l3.2,0.8c0.1,0.4,0.1,0.8,0.2,1.2l-2.7,1.9c0.4,1.2,0.8,2.3,1.4,3.3l3.2-0.5
		c0.2,0.3,0.4,0.7,0.7,1l-1.7,2.8c0.8,0.9,1.6,1.8,2.5,2.5l2.8-1.7c0.3,0.2,0.6,0.4,1,0.7l-0.5,3.2c1,0.6,2.1,1,3.3,1.4l1.9-2.7
		c0.4,0.1,0.8,0.2,1.2,0.2l0.8,3.2c0.6,0.1,1.2,0.1,1.8,0.1c0.6,0,1.2,0,1.8-0.1l0.8-3.2c0.4-0.1,0.8-0.1,1.2-0.2l1.9,2.7
		c1.1-0.4,2.3-0.8,3.3-1.4l-0.5-3.2c0.3-0.2,0.7-0.4,1-0.7l2.8,1.7c0.9-0.8,1.8-1.6,2.5-2.5L50,46.4c0.2-0.3,0.4-0.6,0.7-1l3.2,0.5
		c0.6-1,1-2.1,1.4-3.3l-2.7-1.9c0.1-0.4,0.2-0.8,0.2-1.2L56,38.8z"/>
	<g>
		<circle class="st2" cx="37" cy="27" r="0.8"/>
		<circle class="st2" cx="40.8" cy="27.7" r="0.8"/>
		<circle class="st2" cx="37" cy="47" r="0.8"/>
		<circle class="st2" cx="40.8" cy="46.1" r="0.8"/>
		<circle class="st2" cx="44" cy="44.1" r="0.8"/>
		<circle class="st2" cx="44" cy="29.9" r="0.8"/>
		<circle class="st2" cx="46.1" cy="33" r="0.8"/>
		<circle class="st2" cx="46.1" cy="40.8" r="0.8"/>
		<circle class="st2" cx="47" cy="36.9" r="0.8"/>
		<circle class="st2" cx="33.2" cy="46.1" r="0.8"/>
		<circle class="st2" cx="33.2" cy="27.7" r="0.8"/>
		<circle class="st2" cx="30" cy="29.8" r="0.8"/>
		<circle class="st2" cx="30" cy="44" r="0.8"/>
		<circle class="st2" cx="27.9" cy="40.9" r="0.8"/>
		<circle class="st2" cx="27.9" cy="33" r="0.8"/>
		<circle class="st2" cx="27" cy="36.9" r="0.8"/>
	</g>
</g>
</svg>
