<svg id="Layer_1" data-name="Layer 1" xmlns="http://www.w3.org/2000/svg" width="74" height="74" viewBox="0 0 74 74">
  <defs>
    <style>
      .cls-1, .cls-2 {
        fill: none;
      }

      .cls-1 {
        stroke: #006faf;
        stroke-miterlimit: 10;
        stroke-width: 2px;
      }

      .cls-3 {
        fill: #006faf;
      }
    </style>
  </defs>
  <title>professional-services</title>
  <circle class="cls-1" cx="37" cy="37" r="36"/>
  <rect class="cls-2" x="20" y="20" width="34" height="34"/>
  <rect class="cls-2" x="20" y="20" width="34" height="34"/>
  <g>
    <path class="cls-3" d="M53,47.15c0,1.61-3.39,2.49-4.57,2.68a4,4,0,0,1-1,0c-1.19-.18-4.58-1.06-4.58-2.68V40.73a.8.8,0,0,1,.17-.39l4.66-1.62a.56.56,0,0,1,.26-.05.71.71,0,0,1,.34.09l4.49,1.55a.62.62,0,0,1,.25.43v6.42ZM41.78,40.73v4.88H22.24a1.2,1.2,0,0,1-1.2-1.2V34.8a15.09,15.09,0,0,0,3.2,1.66,19.94,19.94,0,0,0,6.78.85v2.54a1.46,1.46,0,0,0,1.46,1.46h3.47a1.46,1.46,0,0,0,1.46-1.46V37.31a19.78,19.78,0,0,0,6.64-.8,15.22,15.22,0,0,0,3.34-1.7v2.91a.78.78,0,0,0-.16.06L42.56,39.4A1.63,1.63,0,0,0,41.78,40.73ZM36.36,35v4.86a.43.43,0,0,1-.43.43H32.47a.43.43,0,0,1-.43-.43V35a.43.43,0,0,1,.43-.43h3.47A.43.43,0,0,1,36.36,35ZM21,28.39a1.2,1.2,0,0,1,1.2-1.2h1.34l.08-.42c0-.25.2-.45.35-.45H26c.13,0,.3.17.35.45l.08.42H42l.08-.42c0-.25.2-.45.35-.45H44.4c.15,0,.3.2.35.45l.08.42h1.34a1.2,1.2,0,0,1,1.2,1.2v5.13a13.3,13.3,0,0,1-3.7,2,19,19,0,0,1-6.28.74V35a1.46,1.46,0,0,0-1.46-1.46H32.47A1.46,1.46,0,0,0,31,35v1.29a19.13,19.13,0,0,1-6.42-.78,13.18,13.18,0,0,1-3.56-2V28.39Zm8.28-3.51a.68.68,0,0,1,.6-.74h8.58a.68.68,0,0,1,.6.74v1.28H29.31ZM53.14,39.37l-4.49-1.55a1.2,1.2,0,0,0-.25-.09V28.39a2.23,2.23,0,0,0-2.23-2.23h-.54a1.38,1.38,0,0,0-1.23-.87H42.45a1.38,1.38,0,0,0-1.23.87H40.13V24.88a1.71,1.71,0,0,0-1.64-1.77H29.91a1.71,1.71,0,0,0-1.63,1.77v1.28H27.19A1.38,1.38,0,0,0,26,25.29H24a1.38,1.38,0,0,0-1.24.87h-.54A2.24,2.24,0,0,0,20,28.39v16a2.24,2.24,0,0,0,2.24,2.23H41.78v.51c0,2.78,4.89,3.61,5.45,3.69a5.05,5.05,0,0,0,1.32,0c.56-.08,5.45-.91,5.45-3.69V40.73A1.65,1.65,0,0,0,53.14,39.37Z"/>
    <rect class="cls-3" x="47.37" y="39.78" width="1.03" height="8.97"/>
  </g>
</svg>
