<svg id="Layer_1" data-name="Layer 1" xmlns="http://www.w3.org/2000/svg" width="74" height="74" viewBox="0 0 74 74">
  <defs>
    <style>
      .cls-1, .cls-3 {
        fill: none;
      }

      .cls-1 {
        stroke: #006faf;
        stroke-miterlimit: 10;
        stroke-width: 2px;
      }

      .cls-2 {
        fill: #006faf;
      }
    </style>
  </defs>
  <title>technology</title>
  <circle class="cls-1" cx="37" cy="37" r="36"/>
  <g>
    <path class="cls-2" d="M44.73,35H29.67a.9.9,0,0,1,0-1.81H44.73a.9.9,0,0,1,0,1.81Z" transform="translate(-0.5 -0.5)"/>
    <path class="cls-2" d="M55.6,50.65H40.53a.9.9,0,0,1,0-1.81H55.6a.9.9,0,0,1,0,1.81Z" transform="translate(-0.5 -0.5)"/>
    <path class="cls-2" d="M34.47,50.65H19.4a.9.9,0,0,1,0-1.81H34.47a.9.9,0,0,1,0,1.81Z" transform="translate(-0.5 -0.5)"/>
    <polygon class="cls-3" points="46.47 39.48 46.47 30.42 42.34 30.42 42.34 32.24 30.68 32.24 30.68 30.42 26.71 30.42 26.71 39.48 32.08 39.48 32.08 42.76 41.55 42.76 41.55 39.48 46.47 39.48"/>
    <rect class="cls-3" x="32.49" y="30.42" width="8.03" height="0.01"/>
    <rect class="cls-2" x="32.08" y="42.76" width="9.48" height="1.81"/>
    <polygon class="cls-2" points="26.71 30.42 30.68 30.42 30.68 28.61 24.9 28.61 24.9 39.48 26.71 39.48 26.71 30.42"/>
    <polygon class="cls-2" points="46.47 30.42 46.47 39.48 48.28 39.48 48.28 28.61 42.34 28.61 42.34 30.42 46.47 30.42"/>
    <path class="cls-2" d="M31.19,24.35v8.39H42.83V24.35ZM41,30.92H33V26.16h8v4.76Z" transform="translate(-0.5 -0.5)"/>
    <path class="cls-2" d="M48.78,40H42.05v8.38H53.7V40Zm3.11,6.58h-8V41.79h8Z" transform="translate(-0.5 -0.5)"/>
    <path class="cls-2" d="M27.21,40H20.92v8.38H32.58V40Zm3.55,5.1v1.48h-8V41.79h8v3.29Z" transform="translate(-0.5 -0.5)"/>
  </g>
</svg>
