<?xml version="1.0" encoding="utf-8"?>
<!-- Generator: Adobe Illustrator 21.0.2, SVG Export Plug-In . SVG Version: 6.00 Build 0)  -->
<svg version="1.1" id="Layer_1" xmlns="http://www.w3.org/2000/svg" xmlns:xlink="http://www.w3.org/1999/xlink" x="0px" y="0px"
	 viewBox="0 0 74 74" style="enable-background:new 0 0 74 74;" xml:space="preserve">
<style type="text/css">
	.st0{fill:none;stroke:#006FAF;stroke-width:2;stroke-miterlimit:10;}
	.st1{fill:none;}
	.st2{fill:#006FAF;}
</style>
<title>digital-transformation</title>
<circle class="st0" cx="37" cy="37" r="36"/>
<g id="Layer_1_3_">
	<g id="Layer_1_1_">
	</g>
	<g id="Layer_1_2_">
	</g>
</g>
<g>
	<path class="st1" d="M44.3,48.7c0,0,0-0.4,0-0.5c-2.7,0.6-4.6,0.9-6.7,0.9c-2,0-4-0.2-7.1-0.8c0,0.2,0,0.3,0,0.5c0,0.6,0,1.2,0,1.8
		c-0.1,0.6,0.1,0.8,0.7,1c1.8,0.5,3.8,0.7,6.2,0.7c2.4,0,4.3-0.2,6.1-0.7c0.6-0.1,0.8-0.3,0.8-1C44.3,49.9,44.3,49.3,44.3,48.7z"/>
	<path class="st1" d="M43.7,36.2c-1.3-0.5-3.6-0.9-6.3-0.9c-2.7,0-5.1,0.3-6.3,0.9c1.3,0.5,3.7,0.8,6.3,0.8
		C40.1,37.1,42.5,36.7,43.7,36.2z"/>
	<path class="st2" d="M44.3,45.9c0,0.2,0,0.2-0.5,0.3c-1.2,0.5-2.4,0.6-3.7,0.7c-1,0.1-2,0.1-2.9,0.1c-2,0-3.8-0.2-5.5-0.6
		c-1.2-0.3-1.2-0.3-1.2-1.4l0-1.6c-0.6,0-1.2,0-1.9,0v6.7c0,2.1,0.3,2.5,2.4,3.1c2.3,0.6,4.4,0.7,6.3,0.7c2.3,0,4.7-0.1,7.1-0.9
		c0.6-0.2,1.5-0.5,1.7-1.5l0.1-7.3l0-0.2c0,0,0-0.4,0-0.6c-0.6,0-1.2,0-1.8,0V45.9z M43.5,51.5c-1.8,0.5-3.7,0.7-6.1,0.7
		c-2.4,0-4.4-0.2-6.2-0.7c-0.6-0.2-0.8-0.4-0.7-1c0.1-0.6,0-1.2,0-1.8c0-0.2,0-0.3,0-0.5c3.1,0.6,5.2,0.8,7.1,0.8
		c2,0,3.9-0.2,6.7-0.9c0,0.1,0,0.5,0,0.5c0,0.6,0,1.2,0,1.8C44.4,51.1,44.1,51.3,43.5,51.5z"/>
	<path class="st2" d="M31.5,41.2c-0.8-0.2-1-0.4-1-1.4c0-0.5,0-0.9,0-1.4l0-0.3c2.4,0.6,4.7,0.8,7,0.8c2.3,0,4.6-0.3,6.8-0.8v2.5
		c0,0.2-0.1,0.2-0.3,0.3L43.8,41c-0.3,0.1-0.6,0.2-1,0.3c1.2,0,2.1,0,3.3,0l0-2.3c0-0.1,0-0.2,0-0.3l0-1.8l0-0.1l0,0
		c0.3-2-1.3-2.4-2.3-2.7c-1.8-0.5-3.8-0.8-6.3-0.8c-0.6,0-1.2,0-1.8,0c-2.1,0.1-3.8,0.3-5.4,0.9c-1.3,0.5-1.7,1-1.7,2.4v4.6
		c1.4,0,2.3,0,3.3,0C31.8,41.3,31.7,41.3,31.5,41.2z M37.4,35.3c2.7,0,5.1,0.3,6.3,0.9c-1.2,0.5-3.6,0.9-6.3,0.9
		c-2.6,0-5-0.3-6.3-0.8C32.3,35.7,34.6,35.3,37.4,35.3z"/>
	<path class="st2" d="M42.9,41.3c-0.6,0.1-1.2,0.2-1.9,0.3c-0.1,0-0.3,0-0.4,0c-1.2,0.1-2.3,0.2-3.4,0.2c-1,0-2-0.1-3-0.2
		c-0.8-0.1-1.5-0.2-2.3-0.4c-1.1,0-1.9,0-3.3,0v2.2c0.8,0,1.4,0,1.9,0l0-0.6c0.8,0.2,1.8,0.4,2.8,0.6c1.3,0.2,2.7,0.3,4.1,0.3
		c1.4,0,2.8-0.1,4-0.3c1-0.1,1.9-0.3,2.8-0.5v0.5c0.6,0,1.2,0,1.8,0c0-0.1,0-0.1,0-0.1l0-2C45,41.3,44,41.3,42.9,41.3z"/>
	<path class="st2" d="M53.5,21l-8.4,2l2.4,2.5l-10.6,8.1l-6.8-3c-0.3-0.1-0.6-0.1-0.9,0.1L22,35.1c-0.5,0.3-0.6,0.9-0.3,1.3
		c0.2,0.3,0.5,0.5,0.8,0.5c0.2,0,0.3-0.1,0.5-0.1l6.8-4.2l6.9,3.1c0.3,0.1,0.7,0.1,1-0.1l11.3-8.6l2.2,2.3L53.5,21z"/>
</g>
</svg>
