<?xml version="1.0" encoding="utf-8"?>
<!-- Generator: Adobe Illustrator 21.1.0, SVG Export Plug-In . SVG Version: 6.00 Build 0)  -->
<svg version="1.1" xmlns="http://www.w3.org/2000/svg" xmlns:xlink="http://www.w3.org/1999/xlink" x="0px" y="0px"
	 viewBox="0 0 74 74" style="enable-background:new 0 0 74 74;" xml:space="preserve">
<style type="text/css">
	.st0{fill:none;stroke:#006FAF;stroke-width:2;stroke-miterlimit:10;}
	.st1{fill:#006FAF;}
	.st2{fill:none;stroke:#006FAF;stroke-width:1.5;stroke-miterlimit:10;}
	.st3{fill:none;stroke:#006FAF;stroke-width:0.5;stroke-miterlimit:10;}
	.st4{fill:#006FAF;stroke:#006FAF;stroke-width:0.5;stroke-miterlimit:10;}
	.st5{fill:none;stroke:#006FAF;stroke-width:0.75;stroke-miterlimit:10;}
	.st6{fill:none;stroke:#006FAF;stroke-miterlimit:10;}
	.st7{fill:#006FAF;stroke:#006FAF;stroke-width:0.25;stroke-miterlimit:10;}
	.st8{fill:none;stroke:#006FAF;stroke-width:0.25;stroke-miterlimit:10;}
</style>
<g id="iot-connected-platform-deployment">
	<g id="Layer_13">
	</g>
</g>
<g id="core-iot-services">
</g>
<g id="Application-and-business-logic">
	<circle class="st0" cx="36.9" cy="36.9" r="36"/>
	<g>
		<path class="st1" d="M37.5,33.2c-4.3,0-7.8-3.5-7.8-7.8s3.5-7.8,7.8-7.8s7.8,3.5,7.8,7.8S41.8,33.2,37.5,33.2z M37.5,19.6
			c-3.2,0-5.8,2.6-5.8,5.8s2.6,5.8,5.8,5.8c3.2,0,5.8-2.6,5.8-5.8S40.7,19.6,37.5,19.6z"/>
		<path class="st1" d="M50.6,55.8c-4.3,0-7.8-3.5-7.8-7.8s3.5-7.8,7.8-7.8s7.8,3.5,7.8,7.8S54.8,55.8,50.6,55.8z M50.6,42.2
			c-3.2,0-5.8,2.6-5.8,5.8c0,3.2,2.6,5.8,5.8,5.8c3.2,0,5.8-2.6,5.8-5.8C56.4,44.8,53.8,42.2,50.6,42.2z"/>
		<path class="st1" d="M24.5,55.8c-4.3,0-7.8-3.5-7.8-7.8s3.5-7.8,7.8-7.8s7.8,3.5,7.8,7.8S28.8,55.8,24.5,55.8z M24.5,42.2
			c-3.2,0-5.8,2.6-5.8,5.8c0,3.2,2.6,5.8,5.8,5.8s5.8-2.6,5.8-5.8C30.3,44.8,27.7,42.2,24.5,42.2z"/>
		<path class="st1" d="M30,39.6c-0.4,0.7-1.4,0.1-1-0.6l2.2-3.7l-1.7,0.7c-0.7,0.3-1.2-0.7-0.5-1.1l3.3-1.5c0.4-0.2,0.8,0.1,0.8,0.5
			l0.2,3.5c0,0.8-1.1,0.8-1.2,0.1l-0.1-1.5L30,39.6z"/>
		<path class="st1" d="M43.4,33.5c-0.4-0.7-1.4-0.1-1,0.6l2.2,3.7l-1.7-0.7c-0.7-0.3-1.2,0.7-0.5,1.1l3.3,1.5
			c0.4,0.2,0.8-0.1,0.8-0.5l0.2-3.5c0-0.8-1.1-0.8-1.2-0.1l-0.1,1.5L43.4,33.5z"/>
		<path class="st1" d="M40.6,48.5c0.8,0,0.8-1.2,0-1.2h-4.3l1.5-1.1c0.6-0.4-0.1-1.4-0.7-0.9l-2.9,2.1c-0.3,0.2-0.3,0.7,0,1l2.9,1.9
			c0.6,0.4,1.3-0.6,0.6-1l-1.3-0.8H40.6z"/>
		<path class="st1" d="M37.5,28.8c-0.4,0-0.7-0.3-0.7-0.7v-5.2c0-0.4,0.3-0.7,0.7-0.7c0.4,0,0.7,0.3,0.7,0.7V28
			C38.3,28.4,37.9,28.8,37.5,28.8z"/>
		<path class="st1" d="M49.1,51.3c-0.4,0-0.7-0.3-0.7-0.7v-5.2c0-0.4,0.3-0.7,0.7-0.7s0.7,0.3,0.7,0.7v5.2
			C49.8,51,49.5,51.3,49.1,51.3z"/>
		<path class="st1" d="M52,51.3c-0.4,0-0.7-0.3-0.7-0.7v-5.2c0-0.4,0.3-0.7,0.7-0.7c0.4,0,0.7,0.3,0.7,0.7v5.2
			C52.7,51,52.4,51.3,52,51.3z"/>
		<path class="st1" d="M21.6,51.3c-0.4,0-0.7-0.3-0.7-0.7v-5.2c0-0.4,0.3-0.7,0.7-0.7c0.4,0,0.7,0.3,0.7,0.7v5.2
			C22.3,51,22,51.3,21.6,51.3z"/>
		<path class="st1" d="M24.5,51.3c-0.4,0-0.7-0.3-0.7-0.7v-5.2c0-0.4,0.3-0.7,0.7-0.7c0.4,0,0.7,0.3,0.7,0.7v5.2
			C25.2,51,24.9,51.3,24.5,51.3z"/>
		<path class="st1" d="M27.4,51.3c-0.4,0-0.7-0.3-0.7-0.7v-5.2c0-0.4,0.3-0.7,0.7-0.7c0.4,0,0.7,0.3,0.7,0.7v5.2
			C28.1,51,27.8,51.3,27.4,51.3z"/>
	</g>
</g>
<g id="Device-connectivity-and-_security">
</g>
<g id="Device-management">
</g>
<g id="User-management">
</g>
<g id="Connected-products_1_">
</g>
<g id="Connected-systems_1_">
</g>
<g id="Data-driven-connected-business_1_">
</g>
<g id="Azure-iot-hub_1_">
</g>
<g id="Expertise-and-experience_1_">
</g>
<g id="Domain-and-_subject">
</g>
</svg>
