<?xml version="1.0" encoding="utf-8"?>
<!-- Generator: Adobe Illustrator 21.0.2, SVG Export Plug-In . SVG Version: 6.00 Build 0)  -->
<svg version="1.1" id="Layer_1" xmlns="http://www.w3.org/2000/svg" xmlns:xlink="http://www.w3.org/1999/xlink" x="0px" y="0px"
	 viewBox="0 0 74 74" style="enable-background:new 0 0 74 74;" xml:space="preserve">
<style type="text/css">
	.st0{fill:none;stroke:#006FAF;stroke-width:2;stroke-miterlimit:10;}
	.st1{fill:none;stroke:#006FAF;stroke-miterlimit:10;}
</style>
<title>Cloud &amp;amp; Infrastructure Services</title>
<circle class="st0" cx="37" cy="37" r="36"/>
<g>
	<path class="st0" d="M45.4,41.8h2.3c3.7,0,6.8-3,6.8-6.8c0-3.3-2.3-6.2-5.6-6.2c0-2.8-1.7-5.1-5.1-5.1h-0.6
		c-1.5-2.8-4.5-4.5-7.9-4.5c-5,0-9,4-9,9c-3.7,0-6.8,3-6.8,6.8c0,3.7,3,6.8,6.8,6.8h2.3"/>
	<rect x="32.5" y="33.9" class="st1" width="9" height="9"/>
	<line class="st0" x1="33.6" y1="33.9" x2="33.6" y2="31.1"/>
	<line class="st0" x1="35.9" y1="33.9" x2="35.9" y2="31.1"/>
	<line class="st0" x1="38.1" y1="33.9" x2="38.1" y2="31.1"/>
	<line class="st0" x1="40.4" y1="33.9" x2="40.4" y2="31.1"/>
	<line class="st0" x1="35.9" y1="54.7" x2="35.9" y2="42.9"/>
	<line class="st0" x1="38.1" y1="54.7" x2="38.1" y2="42.9"/>
	<line class="st0" x1="41.5" y1="35" x2="44.3" y2="35"/>
	<line class="st0" x1="41.5" y1="37.3" x2="44.3" y2="37.3"/>
	<line class="st0" x1="41.5" y1="39.5" x2="44.3" y2="39.5"/>
	<line class="st0" x1="41.5" y1="41.8" x2="44.3" y2="41.8"/>
	<line class="st0" x1="29.7" y1="35" x2="32.5" y2="35"/>
	<line class="st0" x1="29.7" y1="37.3" x2="32.5" y2="37.3"/>
	<line class="st0" x1="29.7" y1="39.5" x2="32.5" y2="39.5"/>
	<line class="st0" x1="29.7" y1="41.8" x2="32.5" y2="41.8"/>
	<rect x="35.9" y="37.3" class="st0" width="2.3" height="2.3"/>
	<polyline class="st0" points="33.6,42.9 33.6,48.5 19,48.5 	"/>
	<polyline class="st0" points="40.4,42.9 40.4,48.5 55,48.5 	"/>
	<line class="st0" x1="33.6" y1="30" x2="33.6" y2="28.8"/>
	<line class="st0" x1="35.9" y1="30" x2="35.9" y2="28.8"/>
	<line class="st0" x1="35.9" y1="27.7" x2="35.9" y2="26.6"/>
	<line class="st0" x1="38.1" y1="27.7" x2="38.1" y2="26.6"/>
	<line class="st0" x1="38.1" y1="30" x2="38.1" y2="28.8"/>
	<line class="st0" x1="40.4" y1="30" x2="40.4" y2="28.8"/>
	<line class="st0" x1="28.6" y1="35" x2="27.4" y2="35"/>
	<line class="st0" x1="26.3" y1="35" x2="25.2" y2="35"/>
	<line class="st0" x1="28.6" y1="37.3" x2="27.4" y2="37.3"/>
	<line class="st0" x1="26.3" y1="37.3" x2="25.2" y2="37.3"/>
	<line class="st0" x1="28.6" y1="39.5" x2="27.4" y2="39.5"/>
	<line class="st0" x1="24.1" y1="35" x2="22.9" y2="35"/>
	<line class="st0" x1="45.4" y1="35" x2="46.6" y2="35"/>
	<line class="st0" x1="47.7" y1="35" x2="48.8" y2="35"/>
	<line class="st0" x1="45.4" y1="37.3" x2="46.6" y2="37.3"/>
	<line class="st0" x1="47.7" y1="37.3" x2="48.8" y2="37.3"/>
	<line class="st0" x1="45.4" y1="39.5" x2="46.6" y2="39.5"/>
	<line class="st0" x1="49.9" y1="35" x2="51.1" y2="35"/>
</g>
</svg>
