<?xml version="1.0" encoding="utf-8"?>
<!-- Generator: Adobe Illustrator 21.0.2, SVG Export Plug-In . SVG Version: 6.00 Build 0)  -->
<svg version="1.1" id="Layer_1" xmlns="http://www.w3.org/2000/svg" xmlns:xlink="http://www.w3.org/1999/xlink" x="0px" y="0px"
	 viewBox="0 0 74 74" style="enable-background:new 0 0 74 74;" xml:space="preserve">
<style type="text/css">
	.st0{fill:none;stroke:#006FAF;stroke-width:2;stroke-miterlimit:10;}
	.st1{fill:#006FAF;}
</style>
<title>Cloud &amp;amp; Infrastructure Services</title>
<circle class="st0" cx="37" cy="37" r="36"/>
<g>
	<path class="st1" d="M27.6,53.5c-1.8,0-2.1-0.2-2.1-2.1V39.3c0-1.3,0-2.7,0-4c0-2.7,0-5.5,0-8.2c0-0.8,0.2-1.7,1.4-1.7
		c0.1,0,0.2,0,0.3,0c0.2,0,0.3,0,0.5,0s0.3,0,0.5,0c0.2,0,0.3,0,0.5,0c0.1,0,0.2,0,0.4,0c0.4,0,0.9-0.1,1.3-0.8
		c0.5-0.9,1.4-1.3,2.6-1.3c0.1,0,0.2,0,0.2,0c0.5,0,0.9,0,1-0.7c0.4-1.3,1.4-2,2.9-2.1c1.5,0,2.5,0.7,3,2.1c0.2,0.5,0.4,0.7,0.8,0.7
		c0.1,0,0.1,0,0.2,0c0.1,0,0.2,0,0.2,0c1.3,0,2.2,0.5,2.7,1.6c0.2,0.4,0.5,0.5,0.9,0.5c0.1,0,0.2,0,0.3,0c0.1,0,0.2,0,0.3,0l0.5,0
		c0.3,0,1.1,0,1.1,0c0.6,0,0.9,0,1.1,0.3c0.3,0.3,0.3,1,0.3,2.6l0,0.2v22.9c0,1.8-0.2,2.1-2.1,2.1H27.6z M37,51.5c2.8,0,5.5,0,8.3,0
		c0.9,0,1.2-0.2,1.2-1.2c-0.1-7.2-0.1-14.6,0-21.8c0-0.1,0-0.2,0-0.3c0-0.2,0.1-0.5,0-0.6c-0.1-0.1-0.2-0.1-0.3-0.1
		c-0.2,0-0.4,0-0.6-0.1c-0.2,0-0.4-0.1-0.6-0.1c-0.4,0-0.7,0.2-0.8,0.5c-0.7,1.2-1.8,1.8-3.5,1.8c-1.2,0-2.4,0-3.6,0
		c-1.2,0-2.4,0-3.6,0c-1.7,0-2.8-0.6-3.5-1.8c-0.2-0.4-0.5-0.5-0.9-0.5c-0.2,0-0.4,0-0.6,0.1c-0.2,0-0.4,0.1-0.6,0.1
		c-0.2,0-0.3,0.1-0.3,0.1c-0.1,0.1-0.1,0.4,0,0.6c0,0.1,0,0.2,0,0.3v10.8c0,1.2,0,2.4,0,3.7c0,2.4,0,4.9,0,7.3
		c0,0.9,0.2,1.2,1.2,1.2C31.5,51.5,34.3,51.5,37,51.5z M33.1,25.3c-0.9,0-1.3,0.4-1.4,1.2c0,0.8,0.4,1.2,1.3,1.2h7.8
		c0.3,0,1.4-0.1,1.4-1.2c0-1-0.8-1.2-1.4-1.2h-1.6c-0.6,0-1-0.2-1.2-0.5c-0.2-0.2-0.2-0.6-0.1-1c0.1-0.4,0-0.8-0.1-1
		c-0.2-0.2-0.4-0.3-0.8-0.3l-0.1,0c-0.3,0-0.5,0.1-0.7,0.3c-0.2,0.2-0.3,0.6-0.3,1c0.1,0.5,0,0.8-0.2,1c-0.2,0.3-0.6,0.4-1.2,0.4
		H33.1z"/>
	<g>
		<path class="st1" d="M38.8,35.7c0.5,0,1-0.2,1.4-0.5c0.5-0.4,0.7-0.9,0.8-1.5c0.1-0.6-0.1-1.2-0.5-1.6c-0.4-0.5-1.1-0.8-1.7-0.8
			c-0.5,0-1,0.2-1.4,0.5c-0.9,0.8-1.1,2.2-0.3,3.1C37.5,35.4,38.1,35.7,38.8,35.7z M39.9,33.6c0,0.3-0.2,0.6-0.4,0.8
			c-0.2,0.2-0.5,0.3-0.7,0.3c-0.3,0-0.6-0.1-0.8-0.4c-0.2-0.2-0.3-0.5-0.2-0.8c0-0.3,0.2-0.6,0.4-0.7c0.2-0.2,0.5-0.3,0.7-0.3
			c0.3,0,0.6,0.1,0.8,0.4C39.8,33,39.9,33.3,39.9,33.6z"/>
		<path class="st1" d="M31.5,39.1l-0.8,0.8c-0.1,0.1-0.2,0.3-0.2,0.4c0,0.1,0.1,0.3,0.2,0.3c0.1,0.1,0.2,0.2,0.4,0.2
			c0.2,0,0.3-0.1,0.4-0.2l0.8-0.8l0.8,0.8c0.1,0.1,0.2,0.2,0.4,0.2c0.2,0,0.3-0.1,0.4-0.2c0.1-0.1,0.2-0.2,0.2-0.4
			c0-0.1-0.1-0.3-0.2-0.4l-0.8-0.8l0.8-0.8C34,38.2,34,38,34,37.9s-0.1-0.3-0.2-0.4c-0.1-0.1-0.2-0.2-0.4-0.2s-0.3,0.1-0.4,0.2
			l-0.8,0.8l-0.8-0.8c-0.1-0.1-0.2-0.2-0.4-0.2s-0.3,0.1-0.4,0.2c-0.2,0.2-0.2,0.6,0,0.8L31.5,39.1z"/>
		<path class="st1" d="M37.8,48.6l-1-0.5l0.5-1c0.1-0.3,0-0.6-0.3-0.7c-0.1,0-0.1,0-0.2,0c-0.2,0-0.4,0.1-0.5,0.3l-0.5,1l-1-0.5
			c-0.1,0-0.1,0-0.2,0c-0.2,0-0.4,0.1-0.5,0.3c-0.1,0.3,0,0.6,0.2,0.7l1,0.5l-0.4,0.9c-0.1,0.1-0.2,0.3-0.1,0.5
			c0,0.2,0.1,0.3,0.3,0.3c0.1,0.1,0.2,0.1,0.3,0.1h0.1l0.1,0c0.1,0,0.2-0.1,0.3-0.3l0.5-1l1,0.5c0.1,0.1,0.2,0.1,0.3,0.1h0.1l0.1,0
			c0.1,0,0.2-0.1,0.3-0.3C38.1,49,38,48.7,37.8,48.6z"/>
		<path class="st1" d="M43.6,45.9l-0.8-0.8l0.8-0.8c0.2-0.2,0.2-0.6,0-0.8c-0.1-0.1-0.2-0.2-0.4-0.2c-0.1,0-0.3,0.1-0.4,0.2L42,44.3
			l-0.8-0.8c-0.1-0.1-0.2-0.2-0.4-0.2c-0.1,0-0.3,0.1-0.4,0.2c-0.2,0.2-0.2,0.6,0,0.8l0.8,0.8l-0.8,0.8c-0.1,0.1-0.2,0.2-0.2,0.4
			c0,0.1,0.1,0.3,0.2,0.4c0.1,0.1,0.2,0.2,0.4,0.2c0.2,0,0.3-0.1,0.4-0.2l0.8-0.8l0.8,0.8c0.1,0.1,0.2,0.2,0.4,0.2
			c0.2,0,0.3-0.1,0.4-0.2c0.1-0.1,0.2-0.2,0.2-0.4C43.8,46.1,43.7,46,43.6,45.9z"/>
		<path class="st1" d="M41.3,40.3c0.1,0,0.2-0.1,0.3-0.1c0.3-0.2,0.3-0.5,0.2-0.8l-2.2-3.2L39.4,36h0l0,0h-0.2L39,36l0,0
			c0,0,0,0,0,0l-0.2,0v0.2l-2.4,3c-0.1,0.1-0.1,0.3-0.1,0.4c0,0.1,0.1,0.3,0.3,0.3c0.1,0,0.2,0.1,0.3,0.1c0.2,0,0.3-0.1,0.4-0.2
			l1.5-2c0,1.9-0.5,3.5-1.6,4.8c-2.3,2.6-6.3,2.7-6.4,2.7c-0.3,0-0.5,0.2-0.5,0.5c0,0.3,0.3,0.5,0.5,0.5c0,0,4.5,0,7.2-3.1
			c1.2-1.3,1.8-3,1.9-5l1.1,1.6C41,40.2,41.1,40.3,41.3,40.3z"/>
	</g>
</g>
</svg>
