<?xml version="1.0" encoding="utf-8"?>
<!-- Generator: Adobe Illustrator 21.0.0, SVG Export Plug-In . SVG Version: 6.00 Build 0)  -->
<svg version="1.1" id="Layer_1" xmlns="http://www.w3.org/2000/svg" xmlns:xlink="http://www.w3.org/1999/xlink" x="0px" y="0px"
	 viewBox="0 0 74 74" style="enable-background:new 0 0 74 74;" xml:space="preserve">
<style type="text/css">
	.st0{fill:none;stroke:#006FAF;stroke-width:2;stroke-miterlimit:10;}
	.st1{fill:#006FAF;}
	.st2{fill:none;stroke:#006FAF;stroke-width:0.9081;stroke-miterlimit:10;}
	.st3{fill:none;stroke:#006FAF;stroke-width:0.875;stroke-miterlimit:10;}
</style>
<title>Azure_Site_Recovery</title>
<circle class="st0" cx="37" cy="37" r="36"/>
<g>
	<path class="st1" d="M57.5,43.8l-0.8-0.1c-0.4-0.1-0.7-0.4-0.8-0.7c-0.1-0.4-0.1-0.7,0.1-1.1l0.5-0.7c0.1-0.2,0.1-0.6,0-0.7
		l-1.1-1.1c-0.2-0.2-0.5-0.2-0.7-0.1L54,39.8c-0.4,0.2-0.7,0.2-1.1,0.1c-0.4-0.1-0.6-0.5-0.7-0.8l-0.2-1c0-0.2-0.2-0.5-0.6-0.5h-1.6
		c-0.2,0-0.5,0.2-0.6,0.5L49,39.2c-0.1,0.4-0.4,0.7-0.7,0.8c-0.4,0.1-0.7,0.1-1.1-0.1l-0.8-0.7c-0.2-0.1-0.5-0.1-0.7,0.1l-1.1,1.1
		c-0.2,0.2-0.2,0.5,0,0.7l0.5,0.7c0.2,0.4,0.2,0.7,0.1,1.1c-0.1,0.4-0.5,0.6-0.8,0.7l-0.8,0.1c-0.2,0-0.5,0.2-0.5,0.6V46
		c0,0.2,0.2,0.5,0.5,0.6l0.8,0.1c0.4,0.1,0.7,0.4,0.8,0.7c0.1,0.4,0.1,0.7-0.1,1.1l-0.5,0.7c-0.1,0.2-0.1,0.5,0.1,0.7l1.1,1.1
		c0.2,0.2,0.5,0.2,0.7,0l0.7-0.5c0.4-0.2,0.7-0.2,1.1-0.1c0.4,0.1,0.6,0.5,0.7,0.8l0.1,0.8c0,0.2,0.2,0.5,0.6,0.5h1.6
		c0.2,0,0.5-0.2,0.6-0.5l0.1-0.6c0.1-0.4,0.4-0.7,0.7-0.8c0.4-0.1,0.8-0.1,1.1,0.1l0.5,0.4c0.2,0.1,0.6,0.1,0.7,0l1.1-1.1
		c0.2-0.2,0.2-0.5,0.1-0.7l-0.5-0.7c-0.2-0.4-0.2-0.7-0.1-1.1c0.1-0.4,0.5-0.6,0.8-0.7l0.8-0.1c0.2,0,0.5-0.2,0.5-0.6v-1.6
		C58,44.1,57.9,43.9,57.5,43.8z M56.9,45.5h-0.4c-0.8,0.1-1.5,0.6-1.8,1.3S54.5,48.4,55,49l0.2,0.4L54.8,50l-0.1-0.1
		c-0.6-0.5-1.5-0.6-2.3-0.2c-0.7,0.4-1.3,1-1.5,1.8v0.1h-0.6l-0.1-0.4c-0.1-0.7-0.7-1.5-1.5-1.7c-0.7-0.2-1.6-0.2-2.2,0.2L46.3,50
		l-0.5-0.5l0.2-0.4c0.5-0.6,0.5-1.5,0.2-2.2c-0.4-0.7-1-1.2-1.8-1.3H44V45l0.4-0.1c0.7-0.1,1.5-0.7,1.7-1.5c0.2-0.7,0.2-1.6-0.2-2.2
		l-0.2-0.4l0.5-0.5l0.5,0.4c0.6,0.5,1.5,0.5,2.2,0.2c0.7-0.2,1.2-1,1.3-1.7l0.1-0.6h0.6V39c0.1,0.8,0.6,1.5,1.3,1.8
		c0.7,0.4,1.6,0.2,2.2-0.2l0.4-0.2l0.5,0.5L55,41.2c-0.5,0.6-0.6,1.5-0.2,2.2c0.2,0.7,1,1.3,1.7,1.5l0.4,0.1V45.5L56.9,45.5z"/>
	<path class="st1" d="M50.5,42.2c-1.6,0-2.9,1.3-2.9,2.9c0,1.6,1.3,2.9,2.9,2.9s2.9-1.3,2.9-2.9S52.1,42.2,50.5,42.2z M50.5,46.8
		c-1,0-1.7-0.7-1.7-1.7s0.7-1.7,1.7-1.7s1.7,0.7,1.7,1.7S51.5,46.8,50.5,46.8z"/>
</g>
<path class="st2" d="M42.4,21c3.5-1,7-2.1,10.9-3.1c-0.2,1.2-0.4,2.2-0.6,3.1c-0.2,1.3-0.6,2.8-1,4.1c-0.2,1.1-0.5,2.2-0.7,3.3
	c-0.1,0.5-0.5,0.6-0.8,0.2c-0.5-0.5-1.1-1-1.6-1.5c-0.4-0.5-0.7-0.4-1.1,0c-1.6,1.6-3,3.1-4.6,4.6c-1.3,1.3-2.8,2.8-4.1,4.1
	c-1.2,1.2-2.3,2.3-3.4,3.5c-0.6,0.6-1,0.6-1.6,0c-0.8-1-1.7-1.8-2.5-2.8c-0.4-0.4-0.5-0.5-0.8-0.1c-0.7,0.7-1.5,1.5-2.2,2.2
	s-1.6,1.3-2.3,2.1c-1.1,1.1-2.1,2.2-3.1,3.1c-0.8,0.8-1.8,1.7-2.8,2.7c0-0.2-0.1-0.5-0.1-0.7c0-1.3,0-2.7,0-4c0-0.4,0.2-0.8,0.5-1.1
	c0.8-0.8,1.7-1.6,2.5-2.4c1-1,1.9-2.1,2.9-3c1.2-1.2,2.4-2.4,3.6-3.6c0.4-0.4,0.7-0.7,1.2-1c0.1-0.1,0.6,0,0.7,0.1
	c0.7,0.8,1.6,1.7,2.3,2.5c0.4,0.4,0.7,0.8,1.1,1.2c1.1-1.1,2.1-2.1,3-3.1c1.3-1.3,2.7-2.7,3.9-3.9c1-1,1.9-2.1,3-3
	c0.5-0.5,0.4-0.7,0-1c-0.7-0.6-1.6-1.3-2.3-1.9C42.2,21.4,42.3,21.3,42.4,21z"/>
<path class="st2" d="M40.5,36.4c0,5.1,0,10,0,15c-1.8,0-3.8,0-5.7,0c0-0.2-0.1-0.5-0.1-0.6c0-2.7,0-5.4,0-8.1c0-0.6,0.2-1.1,0.7-1.6
	c1.5-1.3,2.9-2.8,4.4-4.1C40,36.8,40.1,36.6,40.5,36.4z"/>
<path class="st2" d="M30.4,38.9c0.2,0,0.4,0,0.4,0C33,41,33,41,33,44c0,2.2,0,4.4,0,6.5c0,0.6-0.1,0.8-0.8,0.8c-1.5,0-3,0-4.5,0
	c-0.5,0-0.7-0.1-0.7-0.7c0-2.7,0-5.2,0-7.9c0-0.4,0.1-0.8,0.5-1.1C28.4,40.6,29.5,39.8,30.4,38.9z"/>
<path class="st3" d="M25.3,43.7c0,2.7,0,5,0,7.5c-1.9,0-3.6,0-5.4,0c-0.8-2,0.5-3.1,1.9-4.2c0.7-0.6,1.3-1.2,1.9-1.7
	C24.2,44.8,24.7,44.3,25.3,43.7z"/>
<path class="st2" d="M48,38c0-2.5,0-5.1,0-7.5c0-0.2,0-0.6-0.1-0.8c-0.1,0-0.2,0-0.2,0c-1,1-1.9,1.8-3,2.8c-0.7,0.7-1.5,1.6-2.3,2.3
	c-0.4,0.4-0.5,0.7-0.5,1.2c0,4.8,0,9.8,0,14.7c0,0.2,0,0.6,0,1c1.1,0,2.2,0,3.3,0"/>
</svg>
