<?xml version="1.0" encoding="utf-8"?>
<!-- Generator: Adobe Illustrator 21.0.0, SVG Export Plug-In . SVG Version: 6.00 Build 0)  -->
<svg version="1.1" id="Layer_1" xmlns="http://www.w3.org/2000/svg" xmlns:xlink="http://www.w3.org/1999/xlink" x="0px" y="0px"
	 viewBox="0 0 74 74" style="enable-background:new 0 0 74 74;" xml:space="preserve">
<style type="text/css">
	.st0{fill:none;stroke:#006FAF;stroke-width:2;stroke-miterlimit:10;}
	.st1{fill:#006FAF;}
	.st2{fill:#006FAF;stroke:#006FAF;stroke-width:0.5767;stroke-miterlimit:10;}
</style>
<title>Azure_Site_Recovery</title>
<circle class="st0" cx="37" cy="37" r="36"/>
<g>
	<path class="st1" d="M57.1,38h-0.5c-0.2,0-0.5-0.2-0.5-0.5c-0.1-0.2,0-0.5,0.1-0.7l0.3-0.5c0.1-0.1,0.1-0.3,0-0.5l-0.7-0.7
		c-0.1-0.1-0.3-0.1-0.5,0L55,35.6c-0.3,0.1-0.6,0.1-0.8,0c-0.2-0.1-0.3-0.3-0.5-0.6l0-0.5c0-0.1-0.1-0.3-0.3-0.3h-0.9
		c-0.1,0-0.3,0.1-0.3,0.2L52,35.2c0,0.2-0.2,0.5-0.5,0.5c-0.2,0.1-0.5,0.1-0.7-0.1l-0.6-0.3c-0.1-0.1-0.3-0.1-0.5,0l-0.7,0.7
		c-0.1,0.1-0.1,0.3,0,0.5l0.3,0.5c0.1,0.2,0.2,0.5,0.1,0.7c-0.1,0.2-0.2,0.3-0.5,0.5L48.5,38c-0.1,0-0.2,0.2-0.2,0.3v0.9
		c0,0.1,0.1,0.3,0.3,0.3l0.6,0.1c0.2,0,0.5,0.2,0.6,0.5c0.1,0.2,0.1,0.5-0.1,0.7l-0.3,0.5c-0.1,0.1-0.1,0.3,0,0.5l0.7,0.7
		c0.1,0.1,0.3,0.1,0.5,0l0.5-0.3c0.2-0.1,0.5-0.2,0.7-0.1c0.2,0.1,0.3,0.2,0.5,0.5l0.1,0.5c0,0.1,0.2,0.2,0.3,0.2h0.9
		c0.1,0,0.3-0.1,0.3-0.3v-0.3c0-0.2,0.2-0.5,0.5-0.6c0.2-0.1,0.5-0.1,0.7,0.1l0.3,0.2c0.1,0.1,0.3,0.1,0.5,0l0.7-0.7
		c0.1-0.1,0.1-0.3,0-0.5l-0.3-0.5C56,40.5,56,40.2,56,40c0.1-0.2,0.3-0.3,0.6-0.5l0.6-0.1c0.1,0,0.3-0.2,0.3-0.3v-0.9
		C57.4,38.3,57.3,38.2,57.1,38z M56.6,39.1h-0.2c-0.5,0.1-0.9,0.3-1,0.8c-0.2,0.5-0.1,0.9,0.1,1.4l0.1,0.2l-0.2,0.2h-0.1
		c-0.3-0.3-0.9-0.3-1.4-0.1c-0.5,0.2-0.8,0.6-0.8,1v0.1h-0.3v-0.2c-0.1-0.5-0.5-0.8-0.8-1c-0.5-0.2-0.9-0.1-1.4,0.1l-0.2,0.1
		L50,41.5l0.1-0.2c0.2-0.3,0.3-0.9,0.1-1.4s-0.6-0.7-1-0.8H49v-0.3h0.2c0.5-0.1,0.8-0.5,1-0.8c0.2-0.5,0.1-0.9-0.1-1.4L50,36.3
		l0.2-0.2l0.3,0.2c0.3,0.2,0.9,0.3,1.3,0.1c0.5-0.2,0.7-0.6,0.8-1l0.1-0.3h0.3v0.2c0.1,0.5,0.3,0.9,0.8,1c0.5,0.2,0.9,0.1,1.4-0.1
		l0.2-0.1l0.2,0.2l-0.2,0.2c-0.2,0.3-0.3,0.9-0.1,1.4c0.2,0.5,0.6,0.8,1,0.8h0.2v0.3H56.6z"/>
	<path class="st1" d="M52.8,37.1c-0.9,0-1.7,0.8-1.7,1.7c0,0.9,0.8,1.7,1.7,1.7s1.7-0.8,1.7-1.7C54.5,37.9,53.7,37.1,52.8,37.1z
		 M52.8,39.9c-0.6,0-1-0.5-1-1c0-0.6,0.5-1,1-1s1,0.5,1,1C53.8,39.4,53.4,39.9,52.8,39.9z"/>
</g>
<path class="st2" d="M44.7,43.4c-3.1,7.8-13.7,9.5-19,2.8c-1,0.8-2.2,1.7-3.2,2.5c0.5,0.6,0.9,1.2,1.4,1.8c-2,1.5-3.9,3-5.9,4.5
	c-1-1.3-2-2.5-3-3.8c2-1.5,3.9-3,5.9-4.5c0.5,0.6,0.9,1.2,1.4,1.8c1.2-0.8,2.2-1.7,3.2-2.5c-2.4-3.6-2.9-7.4-1.2-11.3
	c1.4-3.3,4.4-5.3,6.6-5.9c0,0.6,0,1.2,0,1.7s0.1,1.3,0,1.7c-0.2,0.5-0.8,0.7-1.3,1c-2.7,2.1-3.7,5.8-2.4,8.9c1.3,3.2,4.3,5.2,7.7,5
	c2.4-0.1,4.4-1.3,5.9-3.2c0.2-0.2,0.5-0.3,0.7-0.3C42.5,43.4,43.6,43.4,44.7,43.4z M30.7,29.1c-3.7,0.8-7.2,5.9-6.9,10.4
	c0.2,5.7,4.6,10,10,10.5c5.2,0.3,9.2-3,10.6-6.2c-1,0-2,0-2.9,0c-0.1,0-0.2,0.1-0.3,0.2c-1.8,2.4-4.4,3.6-7.4,3.2
	c-4.4-0.3-7.8-4.7-7.2-9.1c0.5-2.5,1.7-4.5,3.9-5.9c0.1-0.1,0.2-0.2,0.2-0.3C30.7,30.9,30.7,30,30.7,29.1z M18,54.5
	c1.8-1.4,3.6-2.8,5.4-4.2c-0.8-1.2-1.7-2.2-2.5-3.3c-1.8,1.4-3.6,2.8-5.4,4.2C16.2,52.3,17.2,53.4,18,54.5z"/>
<path class="st2" d="M48.5,41.9c-0.3,0-0.8,0-1.2,0c0-7,0-14.1,0-21.1c0.9,0,1.7,0,2.7,0c0,4.6,0,9.2,0,13.8
	c0.1-0.1,0.2-0.1,0.3-0.2c0-4.6,0-9.3,0-14c-0.9,0-1.8,0-2.8,0c-0.6,0-0.6,0-0.6,0.6c0,6.8,0,13.5,0,20.3c0,0.2,0,0.3,0,0.6
	c-0.6,0-1.2,0-1.7,0c0-2.8,0-5.5,0-8.2c-1.2,0-2.2,0-3.3,0c0,2.8,0,5.5,0,8.2c-0.6,0-1,0-1.6,0c0-2,0-3.8,0-5.8c-1.2,0-2.2,0-3.3,0
	c0,2,0,3.8,0,5.8c-0.7,0-1.3,0-1.8,0c0-0.2,0-0.3,0-0.5c0-4.5,0-9,0-13.5c0-0.3-0.1-0.5-0.5-0.5c-0.3,0-0.7,0-1,0
	c-0.6,0-1.2,0-1.8,0c0,4.8,0,9.6,0,14.4c-0.5,0-0.9,0-1.4,0c-0.1,0-0.2,0.1-0.3,0.1c0,0,0,0.1,0.1,0.1s0.2,0,0.3,0
	c6.1,0,12.3,0,18.5,0C48.6,42.1,48.5,42,48.5,41.9z M34.6,41.9c-0.9,0-1.7,0-2.7,0c0-4.7,0-9.3,0-14.1c0.9,0,1.7,0,2.7,0
	C34.6,32.5,34.6,37.1,34.6,41.9z M39.9,41.9c-0.9,0-1.7,0-2.7,0c0-1.8,0-3.6,0-5.4c0.9,0,1.7,0,2.7,0C39.9,38.2,39.9,40,39.9,41.9z
	 M44.8,41.9c-0.9,0-1.7,0-2.7,0c0-2.7,0-5.2,0-8c0.9,0,1.7,0,2.7,0C44.8,36.5,44.8,39.2,44.8,41.9z"/>
</svg>
