<?xml version="1.0" encoding="utf-8"?>
<!-- Generator: Adobe Illustrator 21.0.2, SVG Export Plug-In . SVG Version: 6.00 Build 0)  -->
<svg version="1.1" id="Layer_1" xmlns="http://www.w3.org/2000/svg" xmlns:xlink="http://www.w3.org/1999/xlink" x="0px" y="0px"
	 viewBox="0 0 74 74" style="enable-background:new 0 0 74 74;" xml:space="preserve">
<style type="text/css">
	.st0{fill:none;stroke:#006FAF;stroke-width:2;stroke-miterlimit:10;}
	.st1{fill:#006FAF;}
</style>
<title>Cloud &amp;amp; Infrastructure Services</title>
<circle class="st0" cx="37" cy="37" r="36"/>
<path class="st1" d="M52.5,35.4c-0.8-0.1-1.1-0.7-0.6-1.4c0.9-1.2,0.2-2-0.6-2.9c-0.8-0.9-1.6-1.7-2.9-0.7c-0.6,0.4-1.2,0.2-1.3-0.4
	C47,28,45.7,28,44.4,28c-0.4,0-0.9,0.2-0.9-0.6c0.3-2.2-1.2-2.8-2.9-3.3c-3.6-1-7.4-1.1-11.2-1c-2.5,0.1-5,0.4-7.4,1.2
	C20.4,25,20,25.5,20,27.2c0,3.3,0,6.5,0,9.7c0,3,0,6,0,9.1c0,2.7,0.3,3.1,3,3.9c2.8,0.8,5.7,1,8.6,1c3.3,0,6.5-0.2,9.7-1.2
	c0.9-0.3,1.9-0.7,2.1-1.7c0.2-0.9,0.6-0.9,1.3-0.9c1,0.1,1.8-0.2,2-1.4c0.2-0.9,0.7-1.1,1.5-0.6c1.2,0.9,2,0.1,2.9-0.7
	c0.8-0.8,1.6-1.6,0.7-2.8c-0.6-0.7-0.2-1.3,0.6-1.4c1.4-0.2,1.7-1.1,1.7-2.3C54,36.9,54.2,35.7,52.5,35.4z M41.4,26.6
	c-3.1,2.2-15.8,2.2-19.3,0.1C25.1,24.4,38.1,24.4,41.4,26.6z M21.8,28.7c6.7,1.7,13.3,1.7,20,0c0,1.4,0,2.7,0,4
	c0,0.6-0.5,0.7-0.9,0.9c-1.3,0.6-2.7,0.7-4.1,0.9c-4.4,0.5-8.9,0.5-13.3-0.6c-1.2-0.3-1.7-0.8-1.7-2.3
	C21.7,30.7,21.8,29.7,21.8,28.7z M41.8,40.1c0,0.6-0.5,0.7-0.9,0.9c-1.7,0.7-3.5,0.9-5.2,1c-3.9,0.3-7.9,0.2-11.8-0.7
	c-2-0.5-2-0.5-2-2.5c0-1,0-2,0-3.1c0-0.1,0.1-0.2,0.1-0.3c5.3,1.6,13.9,1.8,19.9,0C41.8,37,41.8,38.5,41.8,40.1z M40.4,48.2
	c-2.8,0.8-5.7,1-8.6,1c-3,0-5.9-0.2-8.7-1c-0.9-0.2-1.4-0.7-1.3-1.8c0.1-1.2,0-2.5,0-3.7c8.6,1.7,12.5,1.7,20-0.1
	c0,1.3-0.1,2.5,0,3.7C41.9,47.5,41.3,48,40.4,48.2z M44.2,35.8c0.9,0.1,1.7,0.9,1.6,1.8c0,1-0.7,1.7-1.7,1.7
	c-0.9-0.1-0.7-0.8-0.7-1.8C43.5,36.3,43.3,35.8,44.2,35.8z M51.6,38.7c-1.7,0.7-2.2,1.9-1.5,3.6c0.1,0.4,0.2,0.7-0.2,1
	c-0.3,0.2-0.6,0.4-1,0.2c-1.9-0.7-2.8-0.4-3.8,1.4c-0.3,0.6-0.7,0.6-1.2,0.5c-0.6,0-0.4-0.6-0.4-0.9c-0.1-0.5,0-0.9,0-1.4
	c0-0.2,0-0.4,0-0.5c-0.1-1,0-1.6,1.4-1.7c1.7-0.1,2.8-1.7,2.8-3.6c-0.1-1.8-1.2-3.2-3-3.3c-1.1-0.1-1.2-0.6-1.1-1.4
	c0.1-0.6,0-1.2,0-1.8c0-0.4-0.2-1,0.6-1c0.6,0,1-0.1,1.4,0.7c0.6,1.6,1.9,2.1,3.5,1.5c0.4-0.2,0.7-0.2,1.1,0.2
	c0.4,0.4,0.3,0.7,0.1,1.1c-0.7,1.5-0.1,2.8,1.4,3.6c0.4,0.2,0.7,0.4,0.7,0.9C52.3,38.4,52,38.5,51.6,38.7z"/>
</svg>
