<svg id="Layer_1" data-name="Layer 1" xmlns="http://www.w3.org/2000/svg" width="74" height="74" viewBox="0 0 74 74">
  <defs>
    <style>
      .cls-1 {
        fill: none;
        stroke: #006faf;
        stroke-miterlimit: 10;
        stroke-width: 2px;
      }

      .cls-2 {
        fill: #006faf;
      }
    </style>
  </defs>
  <title>business-intelligence</title>
  <circle class="cls-1" cx="37" cy="37" r="36"/>
  <g>
    <path class="cls-2" d="M44.92,39.5h-10c-.76,0-1-.19-1-1,.06-1.71,0-3.43,0-5.14V28.64c0-1.65-.19-1.78-1.84-1.71-8.06.32-14.16,8.51-12.25,16.5a13.53,13.53,0,0,0,26.66-2.22C46.57,39.75,46.38,39.5,44.92,39.5Zm-.51,3.17A11.64,11.64,0,1,1,31.09,28.9c.83-.13,1.08.06,1,.89-.06,1.71,0,3.43,0,5.14v4.63c0,1.71.13,1.84,1.9,1.84,3.11,0,6.22.06,9.33,0C44.48,41.28,44.67,41.72,44.42,42.67Z"/>
    <path class="cls-2" d="M52.41,20.9c-1.59,1.59-3.17,3.11-4.7,4.76-.63.7-1,.83-1.84.13a12.46,12.46,0,0,0-8.06-3c-1,0-1.46.25-1.46,1.33V35.75c0,1.08.44,1.33,1.46,1.33,1.9-.06,3.87,0,5.78,0s3.87-.06,5.78,0c1.21.06,1.52-.51,1.46-1.59a13.25,13.25,0,0,0-2.22-6.66c-.44-.63-.44-1,.13-1.52,1.71-1.65,3.36-3.3,5-5,.51-.51,1.14-1.08.44-1.78S52.92,20.39,52.41,20.9ZM48.73,34.36c.13.63-.06.83-.7.83H39c-.51,0-.76-.13-.76-.7v-9.2c0-.63.19-.76.76-.63a11.81,11.81,0,0,1,6,2.79c.38.38.44.57,0,1l-.19.19c-1.52,1.59-1.52,1.59-3.11.06a7,7,0,0,0-.7-.63.85.85,0,0,0-1.27.13.83.83,0,0,0,.06,1.21c.89,1,1.84,1.9,2.79,2.79.57.57,1.14.32,1.59-.19.76-.89,1.59-1.78,2.41-2.73A11.08,11.08,0,0,1,48.73,34.36Z"/>
  </g>
</svg>
