<?xml version="1.0" encoding="utf-8"?>
<!-- Generator: Adobe Illustrator 21.0.2, SVG Export Plug-In . SVG Version: 6.00 Build 0)  -->
<svg version="1.1" id="Layer_1" xmlns="http://www.w3.org/2000/svg" xmlns:xlink="http://www.w3.org/1999/xlink" x="0px" y="0px"
	 viewBox="0 0 74 74" style="enable-background:new 0 0 74 74;" xml:space="preserve">
<style type="text/css">
	.st0{fill:none;stroke:#006FAF;stroke-width:2;stroke-miterlimit:10;}
	.st1{fill:#006FAF;}
</style>
<title>Cloud &amp;amp; Infrastructure Services</title>
<circle class="st0" cx="37" cy="37" r="36"/>
<g>
	<path class="st1" d="M39.6,34.9v6l2.6-1.3l2.6,1.3v-6c1.6-0.9,2.6-2.6,2.6-4.4c0-2.9-2.3-5.2-5.2-5.2S37,27.6,37,30.5
		C37,32.4,38,34.1,39.6,34.9z M43.5,38.7L42.2,38l-1.3,0.7v-3.1c0.4,0.1,0.9,0.1,1.3,0.1s0.9-0.1,1.3-0.1V38.7z M42.2,26.6
		c2.2,0,3.9,1.7,3.9,3.9s-1.7,3.9-3.9,3.9s-3.9-1.7-3.9-3.9S40,26.6,42.2,26.6z"/>
	<rect x="29.2" y="37" class="st1" width="9.1" height="1.3"/>
	<rect x="29.2" y="39.6" class="st1" width="9.1" height="1.3"/>
	<rect x="29.2" y="42.2" class="st1" width="15.6" height="1.3"/>
	<rect x="29.2" y="44.8" class="st1" width="15.6" height="1.3"/>
	<path class="st1" d="M35.8,29.2h-6.7v1.3h6.5C35.7,30.1,35.7,29.6,35.8,29.2z"/>
	<path class="st1" d="M35.8,31.8h-6.7v1.3h7C36.1,32.7,36,32.2,35.8,31.8z"/>
	<path class="st1" d="M37,34.4h-7.8v1.3h9.1C37.8,35.3,37.4,34.9,37,34.4z"/>
	<path class="st1" d="M49.1,22.3H24.9c-0.7,0-1.4,0.6-1.4,1.4v26.8c0,0.7,0.6,1.4,1.4,1.4h24.3c0.7,0,1.4-0.6,1.4-1.4V23.6
		C50.5,22.9,49.9,22.3,49.1,22.3z M49.3,50.3H24.7V23.5h24.6V50.3z"/>
</g>
</svg>
