<?xml version="1.0" encoding="utf-8"?>
<!-- Generator: Adobe Illustrator 21.0.2, SVG Export Plug-In . SVG Version: 6.00 Build 0)  -->
<svg version="1.1" id="Layer_1" xmlns="http://www.w3.org/2000/svg" xmlns:xlink="http://www.w3.org/1999/xlink" x="0px" y="0px"
	 viewBox="0 0 74 74" style="enable-background:new 0 0 74 74;" xml:space="preserve">
<style type="text/css">
	.st0{fill:#006FAF;}
	.st1{fill:none;stroke:#006FAF;stroke-miterlimit:10;}
</style>
<title>health-checks</title>
<path class="st0" d="M37,74C16.6,74,0,57.4,0,37S16.6,0,37,0s37,16.6,37,37S57.4,74,37,74z M37,2C17.7,2,2,17.7,2,37s15.7,35,35,35
	s35-15.7,35-35S56.3,2,37,2z"/>
<g>
	<path class="st0" d="M56.4,25h-2.1c-0.1-0.4-0.3-0.8-0.5-1.2l1.6-1.6c0.1-0.1,0.1-0.3,0.1-0.4c0-0.1,0-0.3-0.1-0.4l-1.9-1.8
		c-0.3-0.3-0.5-0.3-0.7,0l-1.6,1.6c-0.4-0.3-0.8-0.4-1.2-0.5v-2.2c0-0.3-0.3-0.5-0.5-0.5h-2.8c-0.3,0-0.5,0.3-0.5,0.5v2.1
		c-0.4,0.1-0.8,0.3-1.2,0.5l-1.6-1.4c-0.3-0.3-0.5-0.3-0.7,0L41,21.7c-0.1,0-0.1,0.3-0.1,0.4c0,0.1,0,0.3,0.1,0.4l1.6,1.6
		c-0.3,0.4-0.4,0.8-0.5,1.2H40c-0.3,0-0.5,0.3-0.5,0.5V27h0.9v-0.8h2c0.3,0,0.5-0.1,0.5-0.4c0.1-0.6,0.4-1.1,0.7-1.7
		c0.1-0.3,0.1-0.5-0.1-0.6l-1.4-1.4l1.2-1.2l1.4,1.4c0.1,0.1,0.5,0.3,0.6,0.1c0.5-0.4,1.1-0.6,1.7-0.7c0.3,0,0.4-0.3,0.4-0.5v-2H49
		v2c0,0.3,0.1,0.5,0.4,0.5c0.6,0.1,1.1,0.4,1.7,0.7c0.3,0.1,0.5,0.1,0.6-0.1L53,21l1.2,1.2l-1.4,1.4c-0.1,0.1-0.3,0.5-0.1,0.6
		c0.4,0.5,0.6,1.1,0.7,1.7c0,0.3,0.3,0.4,0.5,0.4h2v1.7H54c-0.3,0-0.5,0.1-0.5,0.4c-0.1,0.6-0.4,1.1-0.7,1.7
		c-0.1,0.3-0.1,0.5,0.1,0.6l1.4,1.4L53.1,33l-1.4-1.4c-0.1-0.1-0.5-0.3-0.6-0.1c-0.5,0.4-1.1,0.6-1.7,0.7c-0.3,0-0.4,0.3-0.4,0.5
		v1.9h-1.4v0.9h1.9c0.3,0,0.5-0.3,0.5-0.5V33c0.4-0.1,0.8-0.3,1.2-0.5l1.6,1.6c0.3,0.3,0.5,0.3,0.7,0l1.9-1.9
		c0.1-0.1,0.1-0.3,0.1-0.4c0-0.1,0-0.3-0.1-0.4l-1.6-1.6c0.3-0.4,0.4-0.8,0.5-1.2h2.1c0.3,0,0.5-0.3,0.5-0.5v-2.8
		C57,25.3,56.7,25,56.4,25z"/>
	<g>
		<path class="st1" d="M18.5,49.1l-1.3-1.3v7.1c0,0.5,0.4,0.9,0.9,0.9h1.8c0.5,0,0.9-0.4,0.9-0.9v-8.2L18.5,49.1z"/>
		<path class="st1" d="M37.3,42.3v12.2c0,0.5,0.4,0.9,0.9,0.9h1.8c0.5,0,0.9-0.4,0.9-0.9V38.6L37.3,42.3z"/>
		<path class="st1" d="M45.6,38.7l-2.1-2.1l-1.1,1.1v16.6c0,0.5,0.4,0.9,0.9,0.9h1.8c0.5,0,0.9-0.4,0.9-0.9l0-15.6H45.6z"/>
		<g>
			<path class="st1" d="M24.8,43l-2.6,2.6v9.1c0,0.5,0.4,0.9,0.9,0.9H25c0.5,0,0.9-0.4,0.9-0.9V44.1L24.8,43z"/>
			<path class="st1" d="M30.6,48.4l-3.3-3.3v9.7c0,0.5,0.4,0.9,0.9,0.9H30c0.5,0,0.9-0.4,0.9-0.9V48L30.6,48.4z"/>
			<path class="st1" d="M32.3,47.1v7.6c0,0.5,0.4,0.9,0.9,0.9h1.8c0.5,0,0.9-0.4,0.9-0.9V43.4L32.3,47.1z"/>
			<polygon class="st1" points="39.2,28.1 39.2,28.1 42,30.9 30.8,42.2 24.9,36.3 17,44.2 18.4,45.7 24.9,39.2 30.8,45 30.8,45 
				43.5,32.4 46.2,35.1 46.2,35.1 46.2,28.1 			"/>
		</g>
	</g>
</g>
</svg>
