<?xml version="1.0" encoding="utf-8"?>
<!-- Generator: Adobe Illustrator 21.0.2, SVG Export Plug-In . SVG Version: 6.00 Build 0)  -->
<svg version="1.1" id="Layer_1" xmlns="http://www.w3.org/2000/svg" xmlns:xlink="http://www.w3.org/1999/xlink" x="0px" y="0px"
	 viewBox="0 0 74 74" style="enable-background:new 0 0 74 74;" xml:space="preserve">
<style type="text/css">
	.st0{fill:none;stroke:#006FAF;stroke-width:2;stroke-miterlimit:10;}
	.st1{fill:#006FAF;}
	.st2{fill:none;stroke:#006FAF;stroke-width:1.5;stroke-miterlimit:10;}
</style>
<circle class="st0" cx="37" cy="37" r="36"/>
<g>
	<path class="st1" d="M46,41.4c0.2-0.1,0.3-0.2,0.4-0.3c1.2-1,1.3-1,2.4,0.1c0.8,0.8,1.5,1.6,2.2,2.5c1.5,2,2.7,4.2,3.6,6.5
		c0.7,1.9,1.2,3.7,1.5,5.8c-12.7,0-25.3,0-38,0c0.7-5.1,2.6-9.6,6-13.5c0.3,0.3,0.5,0.5,0.7,0.7c0.2,0.2,0.4,0.4,0.6,0.5
		c-1,1.6-2.1,3.1-3,4.7c-0.6,1-0.9,2.1-1.3,3.2c-0.2,0.4-0.3,0.9-0.4,1.3c-0.1,0.8,0.2,1.1,1,1.1c10.3,0,20.6,0,30.9,0
		c0.9,0,1.2-0.5,0.9-1.3c-0.6-1.9-1.3-3.8-2.3-5.5C49.7,44.9,48,43.1,46,41.4z"/>
	<path class="st1" d="M37.1,39.6c-5.9,0.1-10.8-4.9-10.9-10.7c0-6,5-10.8,10.7-10.9c5.8,0,10.9,4.9,10.9,10.8
		C47.8,34.7,42.8,39.6,37.1,39.6z M37,20c-5.2-0.1-8.9,4.2-8.9,8.7c0,4.9,3.8,9.1,9.3,8.9c4.7-0.2,8.3-3.8,8.4-8.8
		C45.9,24.3,42.2,20,37,20z"/>
	<g>
		<path class="st1" d="M40.4,41.3c-2.2,0-3.9,1.7-3.9,3.9c0,2.2,1.7,3.9,3.9,3.9c2.2,0,3.9-1.7,3.9-3.9
			C44.3,43.1,42.6,41.3,40.4,41.3z M40.4,48c-1.5,0-2.8-1.2-2.8-2.8c0-1.5,1.2-2.8,2.8-2.8c1.5,0,2.8,1.2,2.8,2.8
			C43.2,46.8,42,48,40.4,48z"/>
	</g>
	<path class="st2" d="M37.9,46.9c-2.4,2.7-6.4,1.5-8.2-0.2c-1-1-3.8-5.7-1.2-8.2"/>
</g>
</svg>
