<svg id="Layer_1" data-name="Layer 1" xmlns="http://www.w3.org/2000/svg" width="74" height="74" viewBox="0 0 74 74">
  <defs>
    <style>
      .cls-1 {
        fill: none;
        stroke: #006faf;
        stroke-miterlimit: 10;
        stroke-width: 2px;
      }

      .cls-2 {
        fill: #006faf;
      }
    </style>
  </defs>
  <title>data-management</title>
  <circle class="cls-1" cx="37" cy="37" r="36"/>
  <g>
    <path class="cls-2" d="M37,46.58c-3.83,0-7.9-.81-7.9-2.31V29.74c0-1.5,4.07-2.31,7.9-2.31s7.82.81,7.9,2.3V44.26C44.87,45.77,40.8,46.58,37,46.58Zm-6.26-2.64a19.61,19.61,0,0,0,6,.91A21.52,21.52,0,0,0,43,43.93V41.36a21.89,21.89,0,0,1-6,.79,25.43,25.43,0,0,1-6.31-.79Zm0-4.66a19.61,19.61,0,0,0,6,.91A21.52,21.52,0,0,0,43,39.28V36.65a21.87,21.87,0,0,1-6,.79,25.46,25.46,0,0,1-6.31-.79Zm0-4.72a19.61,19.61,0,0,0,6,.91A21.58,21.58,0,0,0,43,34.56V32a21.87,21.87,0,0,1-6,.79A25.46,25.46,0,0,1,30.71,32ZM36.91,29c-4,0-6.13.61-6.13.92s2.16.92,6.13.92S43,30.23,43,29.9,40.88,29,36.91,29Z"/>
    <path class="cls-2" d="M59.69,42.48a1,1,0,0,1-.94-.95V39.47L56.17,42a1.06,1.06,0,0,1-1.46,0,1.06,1.06,0,0,1,0-1.46l1.52-1.52H47.4a1,1,0,0,1,0-2h8.83l-1.52-1.52a1.06,1.06,0,0,1,0-1.46,1.06,1.06,0,0,1,1.46,0l2.58,2.69V34.64a1,1,0,0,1,.94-.95,1,1,0,0,1,1,1v6.83a1,1,0,0,1-.95.95Z"/>
    <path class="cls-2" d="M14.25,42.48a1,1,0,0,1-.95-.95V34.7a1,1,0,0,1,.95-.95,1,1,0,0,1,1,.95v2.11l2.57-2.68a1,1,0,0,1,1.47,1.46l-1.52,1.52H26.6a1,1,0,0,1,1,.95,1,1,0,0,1-1,1H17.77l1.52,1.52a1.06,1.06,0,0,1,0,1.46,1.06,1.06,0,0,1-1.46,0l-2.58-2.58v2.06a1,1,0,0,1-.95.95Z"/>
  </g>
</svg>
