<?xml version="1.0" encoding="utf-8"?>
<!-- Generator: Adobe Illustrator 21.0.2, SVG Export Plug-In . SVG Version: 6.00 Build 0)  -->
<svg version="1.1" id="Layer_1" xmlns="http://www.w3.org/2000/svg" xmlns:xlink="http://www.w3.org/1999/xlink" x="0px" y="0px"
	 viewBox="0 0 74 74" style="enable-background:new 0 0 74 74;" xml:space="preserve">
<style type="text/css">
	.st0{fill:none;stroke:#006FAF;stroke-width:2;stroke-miterlimit:10;}
	.st1{fill:none;stroke:#006FAF;stroke-width:2;stroke-linecap:round;stroke-linejoin:round;}
	.st2{fill:none;stroke:#006FAF;stroke-width:2;stroke-linejoin:round;}
</style>
<title>Cloud &amp;amp; Infrastructure Services</title>
<circle class="st0" cx="37" cy="37" r="36"/>
<g>
	<path id="path3-71-6" class="st1" d="M48.1,45.6h0.5c4.1,0,7.3-3.3,7.3-7.3c0-3.6-2.6-6.6-6-7.2c0-0.3,0-0.6,0-0.9
		c0-5.1-4.1-9.2-9.2-9.2c-3.9,0-7.3,2.5-8.6,6c-0.9-0.9-2.1-1.6-3.5-1.6c-2.6,0-4.7,2.1-4.7,4.7c0,0.3,0,0.6,0.1,0.9
		c-3.5,0.6-6.1,3.6-6.1,7.2c0,4.1,3.3,7.3,7.3,7.3h6.2"/>
	<path id="path5-7-1-7" class="st2" d="M44.1,31.6c0.7,0.1,1.2,0.4,1.4,1.1c0.1,0.3,0,0.7,0,1.2c0,5.2,0,10.4,0,15.6
		c0,0.8,0.1,1.6,0,2.4c-0.1,0.7-0.6,1.1-1.3,1.2c-2.9,0-5.8,0-8.8,0c-0.7-0.1-1.1-0.5-1.3-1.2c0-6.3,0-12.7,0-19
		c0.1-0.6,0.5-1.1,1.2-1.2c0.5-0.1,1.1,0,1.7,0c1.7,0,3.6,0,5.1,0L44.1,31.6z"/>
	<path id="rect6287-6-2-2-2-1-2-3-6-5-1-6-8-2-5" class="st1" d="M42.5,34.3h-2"/>
	<path id="rect6287-6-2-2-2-1-2-3-6-5-1-6-8-2-2" class="st1" d="M43,39.7h-6.2"/>
	<path id="rect6287-6-2-2-2-1-2-3-6-5-1-6-8-2-2-5" class="st1" d="M43,42.9h-6.2"/>
	<path id="rect6287-6-2-2-2-1-2-3-6-5-1-6-8-2-2-0" class="st1" d="M43,46.1h-6.2"/>
</g>
<path id="rect6287-6-2-2-2-1-2-3-6-5-1-6-8-2-2-2" class="st1" d="M43,48.3h-6.2"/>
</svg>
