<?xml version="1.0" encoding="utf-8"?>
<!-- Generator: Adobe Illustrator 21.0.2, SVG Export Plug-In . SVG Version: 6.00 Build 0)  -->
<svg version="1.1" id="Layer_1" xmlns="http://www.w3.org/2000/svg" xmlns:xlink="http://www.w3.org/1999/xlink" x="0px" y="0px"
	 viewBox="0 0 74 74" style="enable-background:new 0 0 74 74;" xml:space="preserve">
<style type="text/css">
	.st0{fill:none;stroke:#006FAF;stroke-width:2;stroke-miterlimit:10;}
	.st1{fill:#006FAF;}
</style>
<title>digital-transformation</title>
<circle class="st0" cx="37" cy="37" r="36"/>
<g>
	<path class="st1" d="M37,46.6c-3.8,0-7.9-0.8-7.9-2.3V29.7c0-1.5,4.1-2.3,7.9-2.3c3.8,0,7.8,0.8,7.9,2.3v14.5
		C44.9,45.8,40.8,46.6,37,46.6z M30.7,43.9c1.9,0.6,3.9,0.9,6,0.9c3.2,0,5.7-0.7,6.3-0.9v-2.6c-1.9,0.5-3.9,0.8-6,0.8
		c-3.1,0-5.5-0.6-6.3-0.8V43.9z M30.7,39.3c1.9,0.6,3.9,0.9,6,0.9c3.2,0,5.7-0.7,6.3-0.9v-2.6c-1.9,0.5-3.9,0.8-6,0.8
		c-3.1,0-5.5-0.6-6.3-0.8V39.3z M30.7,34.6c1.9,0.6,3.9,0.9,6,0.9c3.2,0,5.7-0.7,6.3-0.9V32c-1.9,0.5-3.9,0.8-6,0.8
		c-3.1,0-5.5-0.6-6.3-0.8V34.6z M36.9,29c-4,0-6.1,0.6-6.1,0.9s2.2,0.9,6.1,0.9c4,0,6.1-0.6,6.1-0.9C43,29.6,40.9,29,36.9,29z"/>
	<path class="st1" d="M59.7,42.5c-0.5,0-0.9-0.4-0.9-0.9v-2.1L56.2,42c-0.2,0.2-0.5,0.3-0.7,0.3c-0.3,0-0.5-0.1-0.7-0.3
		c-0.4-0.4-0.4-1.1,0-1.5l1.5-1.5h-8.8c-0.5,0-1-0.5-1-1s0.5-1,1-1h8.8l-1.5-1.5c-0.4-0.4-0.4-1.1,0-1.5c0.2-0.2,0.5-0.3,0.7-0.3
		c0.3,0,0.5,0.1,0.7,0.3l2.6,2.7v-2.1c0-0.5,0.4-0.9,0.9-0.9c0.6,0,1,0.4,1,1v6.8C60.7,42,60.3,42.5,59.7,42.5L59.7,42.5z"/>
	<path class="st1" d="M14.2,42.5c-0.5,0-0.9-0.4-0.9-0.9v-6.8c0-0.5,0.4-0.9,0.9-0.9c0.5,0,1,0.4,1,0.9v2.1l2.6-2.7
		c0.2-0.2,0.5-0.3,0.7-0.3s0.5,0.1,0.7,0.3c0.2,0.2,0.3,0.5,0.3,0.7s-0.1,0.5-0.3,0.7l-1.5,1.5h8.8c0.6,0,1,0.4,1,0.9
		c0,0.5-0.5,1-1,1h-8.8l1.5,1.5c0.4,0.4,0.4,1.1,0,1.5c-0.2,0.2-0.5,0.3-0.7,0.3S18,42.2,17.8,42l-2.6-2.6v2.1
		C15.3,42,14.9,42.5,14.2,42.5L14.2,42.5z"/>
</g>
</svg>
