<?xml version="1.0" encoding="utf-8"?>
<!-- Generator: Adobe Illustrator 21.0.2, SVG Export Plug-In . SVG Version: 6.00 Build 0)  -->
<svg version="1.1" id="Layer_1" xmlns="http://www.w3.org/2000/svg" xmlns:xlink="http://www.w3.org/1999/xlink" x="0px" y="0px"
	 viewBox="0 0 74 74" style="enable-background:new 0 0 74 74;" xml:space="preserve">
<style type="text/css">
	.st0{fill:none;stroke:#006FAF;stroke-width:2;stroke-miterlimit:10;}
	.st1{fill:#006FAF;}
	.st2{fill:none;}
</style>
<title>Cloud &amp;amp; Infrastructure Services</title>
<circle class="st0" cx="37" cy="37" r="36"/>
<g>
	<path class="st1" d="M59.7,48.5c-0.5,0-0.9-0.4-0.9-0.9v-2.1L56.2,48c-0.2,0.2-0.5,0.3-0.7,0.3c-0.3,0-0.5-0.1-0.7-0.3
		c-0.4-0.4-0.4-1.1,0-1.5l1.5-1.5h-8.8c-0.5,0-1-0.5-1-1s0.5-1,1-1h8.8l-1.5-1.5c-0.4-0.4-0.4-1.1,0-1.5c0.2-0.2,0.5-0.3,0.7-0.3
		c0.3,0,0.5,0.1,0.7,0.3l2.6,2.7v-2.1c0-0.5,0.4-0.9,0.9-0.9c0.6,0,1,0.4,1,1v6.8C60.7,48,60.3,48.5,59.7,48.5L59.7,48.5z"/>
	<path class="st1" d="M14.2,48.5c-0.5,0-0.9-0.4-0.9-0.9v-6.8c0-0.5,0.4-0.9,0.9-0.9c0.5,0,1,0.4,1,0.9v2.1l2.6-2.7
		c0.2-0.2,0.5-0.3,0.7-0.3s0.5,0.1,0.7,0.3c0.2,0.2,0.3,0.5,0.3,0.7s-0.1,0.5-0.3,0.7l-1.5,1.5h8.8c0.6,0,1,0.4,1,0.9
		c0,0.5-0.5,1-1,1h-8.8l1.5,1.5c0.4,0.4,0.4,1.1,0,1.5c-0.2,0.2-0.5,0.3-0.7,0.3S18,48.2,17.8,48l-2.6-2.6v2.1
		C15.3,48,14.9,48.5,14.2,48.5L14.2,48.5z"/>
	<g>
		<path class="st2" d="M43,46.8c0,0,0-0.3,0-0.5c-2.4,0.5-4.1,0.8-5.8,0.8c-1.7,0-3.5-0.2-6.2-0.7c0,0.2,0,0.3,0,0.4
			c0,0.5,0,1.1,0,1.6c-0.1,0.5,0.1,0.7,0.6,0.8c1.6,0.4,3.3,0.7,5.4,0.7c2.1,0,3.8-0.2,5.3-0.7c0.5-0.1,0.7-0.3,0.7-0.9
			C42.9,47.8,42.9,47.3,43,46.8z"/>
		<path class="st2" d="M42.4,35.8c-1.1-0.5-3.2-0.8-5.5-0.8c-2.4,0-4.5,0.3-5.5,0.8c1.1,0.5,3.2,0.7,5.6,0.7
			C39.3,36.6,41.3,36.3,42.4,35.8z"/>
		<path class="st1" d="M42.9,44.4c0,0.1,0,0.2-0.4,0.3c-1,0.4-2.1,0.5-3.2,0.6c-0.9,0.1-1.7,0.1-2.5,0.1c-1.8,0-3.3-0.2-4.8-0.5
			c-1-0.3-1-0.3-1-1.2l0-1.4c-0.5,0-1,0-1.7,0v5.9c0,1.8,0.3,2.2,2.1,2.7c2,0.6,3.9,0.6,5.5,0.6c2,0,4.1-0.1,6.2-0.8
			c0.5-0.2,1.3-0.5,1.5-1.3l0.1-6.4l0-0.2c0,0,0-0.4,0-0.6c-0.6,0-1.1,0-1.6,0V44.4z M42.3,49.2c-1.6,0.4-3.3,0.7-5.3,0.7
			c-2.1,0-3.8-0.2-5.4-0.7c-0.5-0.1-0.7-0.4-0.6-0.8c0.1-0.5,0-1.1,0-1.6c0-0.1,0-0.3,0-0.4c2.7,0.5,4.5,0.7,6.2,0.7
			c1.8,0,3.4-0.2,5.8-0.8c0,0.1,0,0.5,0,0.5c0,0.5,0,1,0,1.5C43,48.9,42.8,49.1,42.3,49.2z"/>
		<path class="st1" d="M31.8,40.3c-0.7-0.2-0.9-0.4-0.9-1.2c0-0.4,0-0.8,0-1.2l0-0.3c2.1,0.5,4.1,0.7,6.1,0.7c2,0,4-0.2,6-0.7v2.2
			c0,0.1-0.1,0.2-0.3,0.3l-0.1,0c-0.3,0.1-0.6,0.2-0.9,0.3c1,0,1.9,0,2.9,0l0-2c0-0.1,0-0.2,0-0.3l0-1.5l0-0.1l0,0
			c0.2-1.7-1.2-2.1-2-2.4c-1.6-0.5-3.3-0.7-5.5-0.7c-0.5,0-1.1,0-1.6,0c-1.9,0-3.4,0.3-4.7,0.8c-1.2,0.4-1.5,0.9-1.5,2.1v4.1
			c1.2,0,2,0,2.9,0C32,40.3,31.9,40.3,31.8,40.3z M36.9,35.1c2.4,0,4.4,0.3,5.5,0.8c-1.1,0.5-3.1,0.8-5.5,0.8
			c-2.3,0-4.4-0.3-5.6-0.7C32.4,35.4,34.5,35.1,36.9,35.1z"/>
		<path class="st1" d="M41.7,40.3c-0.5,0.1-1.1,0.2-1.6,0.3c-0.1,0-0.2,0-0.3,0c-1.1,0.1-2,0.2-3,0.2c-0.9,0-1.8-0.1-2.6-0.2
			c-0.7-0.1-1.3-0.2-2-0.3c-0.9,0-1.7,0-2.9,0v1.9c0.7,0,1.2,0,1.7,0l0-0.5c0.7,0.2,1.6,0.4,2.5,0.5c1.1,0.2,2.3,0.2,3.6,0.2
			c1.2,0,2.4-0.1,3.5-0.2c0.9-0.1,1.7-0.3,2.4-0.5v0.5c0.5,0,1,0,1.6,0c0,0,0-0.1,0-0.1l0-1.8C43.6,40.4,42.7,40.4,41.7,40.3z"/>
		<path class="st1" d="M51,22.5l-7.3,1.8l2.1,2.2l-9.3,7.1l-6-2.7c-0.3-0.1-0.6-0.1-0.8,0.1l-6.3,3.9c-0.4,0.2-0.5,0.8-0.3,1.2
			c0.2,0.3,0.4,0.4,0.7,0.4c0.2,0,0.3,0,0.4-0.1l5.9-3.7l6,2.7c0.3,0.1,0.6,0.1,0.9-0.1l9.9-7.5l1.9,2L51,22.5z"/>
	</g>
</g>
</svg>
