<?xml version="1.0" encoding="utf-8"?>
<!-- Generator: Adobe Illustrator 21.0.2, SVG Export Plug-In . SVG Version: 6.00 Build 0)  -->
<svg version="1.1" id="Layer_1" xmlns="http://www.w3.org/2000/svg" xmlns:xlink="http://www.w3.org/1999/xlink" x="0px" y="0px"
	 viewBox="0 0 74 74" style="enable-background:new 0 0 74 74;" xml:space="preserve">
<style type="text/css">
	.st0{fill:none;stroke:#006FAF;stroke-width:2;stroke-miterlimit:10;}
	.st1{fill:#006FAF;}
</style>
<title>Cloud &amp;amp; Infrastructure Services</title>
<circle class="st0" cx="37" cy="37" r="36"/>
<g>
	<g>
		<path class="st1" d="M36.1,31.7"/>
	</g>
	<g>
		<path class="st1" d="M32.8,35.1"/>
	</g>
	<path class="st1" d="M54.1,25l-5-5c-0.5-0.5-1.3-0.5-1.8,0L35.5,31.7l-6.9-6.8c0,0,0,0,0,0c0,0,0,0,0,0c0,0-0.1-0.1-0.1-0.1
		c0,0,0,0,0,0l-6-3.2c-0.3-0.2-0.7-0.1-0.9,0.1c-0.2,0.2-0.3,0.6-0.1,0.9l3.2,6c0,0.1,0.1,0.1,0.1,0.2c0,0,0,0,0,0l6.9,6.8
		L19.9,47.2c-0.2,0.2-0.4,0.6-0.4,0.9c0,0.3,0.1,0.7,0.4,0.9l5,5c0.2,0.2,0.6,0.4,0.9,0.4c0.3,0,0.7-0.1,0.9-0.4l11.7-11.7l8.8,8.7
		c0,0,0,0,0,0l0.7,0.7c0.5,0.5,1.2,0.8,2,0.8c0.7,0,1.4-0.3,2-0.8c0.5-0.5,0.8-1.2,0.8-1.9s-0.3-1.4-0.8-1.9l-0.7-0.7l-8.8-8.7
		l11.7-11.7C54.6,26.3,54.6,25.5,54.1,25z M23.9,24l2.9,1.5l-1.4,1.3L23.9,24z M25.8,52.7l-4.7-4.7l1.1-1.1l2.1,2.1
		c0.1,0.1,0.2,0.1,0.3,0.1s0.2,0,0.3-0.1c0.1-0.1,0.1-0.4,0-0.5l-2.1-2.1l0.8-0.8l2.1,2.1c0.1,0.1,0.2,0.1,0.3,0.1
		c0.1,0,0.2,0,0.3-0.1c0.1-0.1,0.1-0.4,0-0.5l-2.1-2.1l0.8-0.8l2.1,2.1c0.1,0.1,0.2,0.1,0.3,0.1c0.1,0,0.2,0,0.3-0.1
		c0.1-0.1,0.1-0.4,0-0.5l-2.1-2.1l0.8-0.8l2.1,2.1c0.1,0.1,0.2,0.1,0.3,0.1s0.2,0,0.3-0.1c0.1-0.1,0.1-0.4,0-0.5l-2.1-2.1l0.8-0.8
		l2.1,2.1c0.1,0.1,0.2,0.1,0.3,0.1s0.2,0,0.3-0.1c0.1-0.1,0.1-0.4,0-0.5l-2.1-2.1l0.8-0.8l2.1,2.1c0.1,0.1,0.2,0.1,0.3,0.1
		s0.2,0,0.3-0.1c0.1-0.1,0.1-0.4,0-0.5l-2.1-2.1l0.8-0.8l2.1,2.1c0.1,0.1,0.2,0.1,0.3,0.1s0.2,0,0.3-0.1c0.1-0.1,0.1-0.4,0-0.5
		l-2.1-2.1l0.8-0.8l2.1,2.1c0.1,0.1,0.2,0.1,0.3,0.1s0.2,0,0.3-0.1c0.1-0.1,0.1-0.4,0-0.5l-2.1-2.1l0.5-0.5l4.7,4.7L25.8,52.7z
		 M50.6,48.8l0.1,0.1c0.2,0.2,0.4,0.5,0.4,0.9c0,0.3-0.1,0.6-0.4,0.9c-0.5,0.5-1.3,0.5-1.7,0l-0.1-0.1L50.6,48.8z M47.8,49.5
		L26.4,28.2l1.7-1.7l21.5,21.3L47.8,49.5z M41.3,37.4l-4.7-4.7l0.4-0.4l2.1,2.1c0.1,0.1,0.2,0.1,0.3,0.1s0.2,0,0.3-0.1
		c0.1-0.1,0.1-0.4,0-0.5l-2.1-2.1l0.8-0.8l2.1,2.1c0.1,0.1,0.2,0.1,0.3,0.1s0.2,0,0.3-0.1c0.1-0.1,0.1-0.4,0-0.5l-2.1-2.1l0.8-0.8
		l2.1,2.1c0.1,0.1,0.2,0.1,0.3,0.1s0.2,0,0.3-0.1c0.1-0.1,0.1-0.4,0-0.5l-2.1-2.1l0.8-0.8l2.1,2.1c0.1,0.1,0.2,0.1,0.3,0.1
		s0.2,0,0.3-0.1c0.1-0.1,0.1-0.4,0-0.5l-2.1-2.1l0.8-0.8l2.1,2.1c0.1,0.1,0.2,0.1,0.3,0.1s0.2,0,0.3-0.1c0.1-0.1,0.1-0.4,0-0.5
		l-2.1-2.1l0.8-0.8l2.1,2.1c0.1,0.1,0.2,0.1,0.3,0.1s0.2,0,0.3-0.1c0.1-0.1,0.1-0.4,0-0.5l-2.1-2.1l0.8-0.8l2.1,2.1
		c0.1,0.1,0.2,0.1,0.3,0.1s0.2,0,0.3-0.1c0.1-0.1,0.1-0.4,0-0.5l-2.1-2.1l0.8-0.8l2.1,2.1c0.1,0.1,0.2,0.1,0.3,0.1s0.2,0,0.3-0.1
		c0.1-0.1,0.1-0.4,0-0.5l-2.1-2.1l1.3-1.2l4.7,4.7L41.3,37.4z"/>
</g>
</svg>
