<?xml version="1.0" encoding="utf-8"?>
<!-- Generator: Adobe Illustrator 21.0.2, SVG Export Plug-In . SVG Version: 6.00 Build 0)  -->
<svg version="1.1" id="Layer_1" xmlns="http://www.w3.org/2000/svg" xmlns:xlink="http://www.w3.org/1999/xlink" x="0px" y="0px"
	 viewBox="0 0 74 74" style="enable-background:new 0 0 74 74;" xml:space="preserve">
<style type="text/css">
	.st0{fill:none;stroke:#006FAF;stroke-width:2;stroke-miterlimit:10;}
	.st1{fill:#006FAF;stroke:#006FAF;stroke-width:0.5;stroke-miterlimit:10;}
</style>
<title>Cloud &amp;amp; Infrastructure Services</title>
<circle class="st0" cx="37" cy="37" r="36"/>
<g>
	<polygon class="st1" points="26,25.7 25.2,24.9 21.8,28.7 20.6,27.4 19.8,28.2 21.9,30.3 	"/>
	<rect x="30.4" y="25.6" class="st1" width="12.9" height="1.1"/>
	<rect x="30.4" y="28.9" class="st1" width="24.1" height="1.1"/>
	<rect x="30.4" y="34.7" class="st1" width="12.9" height="1.1"/>
	<rect x="30.4" y="38" class="st1" width="24.1" height="1.1"/>
	<rect x="30.4" y="43.9" class="st1" width="12.9" height="1.1"/>
	<rect x="30.4" y="47.1" class="st1" width="24.1" height="1.1"/>
	<path class="st1" d="M22.5,35c1,0,1.9,0.9,1.9,1.9c0,1.1-0.8,1.9-1.9,1.9c-1,0-1.9-0.9-1.9-1.9S21.4,35,22.5,35z M22.5,39.9
		c1.6,0,3-1.3,3-3c0-1.7-1.3-3-3-3c-1.6,0-3,1.3-3,3S20.8,39.9,22.5,39.9z"/>
	<path class="st1" d="M22.5,44.1c1,0,1.9,0.9,1.9,1.9c0,1.1-0.8,1.9-1.9,1.9c-1,0-1.9-0.9-1.9-1.9C20.6,45,21.4,44.1,22.5,44.1z
		 M22.5,49.1c1.6,0,3-1.3,3-3s-1.3-3-3-3c-1.6,0-3,1.3-3,3S20.8,49.1,22.5,49.1z"/>
</g>
</svg>
