<?xml version="1.0" encoding="utf-8"?>
<!-- Generator: Adobe Illustrator 21.0.2, SVG Export Plug-In . SVG Version: 6.00 Build 0)  -->
<svg version="1.1" id="Layer_1" xmlns="http://www.w3.org/2000/svg" xmlns:xlink="http://www.w3.org/1999/xlink" x="0px" y="0px"
	 viewBox="0 0 74 74" style="enable-background:new 0 0 74 74;" xml:space="preserve">
<style type="text/css">
	.st0{fill:none;stroke:#006FAF;stroke-width:2;stroke-miterlimit:10;}
	.st1{fill:none;stroke:#006FAF;stroke-width:0.75;stroke-miterlimit:10;}
	.st2{fill:#006FAF;}
</style>
<g id="iot-connected-platform-deployment">
	<g id="Layer_13">
	</g>
</g>
<g id="core-iot-services">
</g>
<g id="Application-and-business-logic">
</g>
<g id="Device-connectivity-and-_security">
</g>
<circle class="st0" cx="37" cy="37" r="36"/>
<g id="User-management">
</g>
<g id="Connected-products_1_">
</g>
<g id="Connected-systems_1_">
</g>
<g id="Data-driven-connected-business_1_">
</g>
<g id="Azure-iot-hub_1_">
</g>
<g id="Expertise-and-experience_1_">
</g>
<g id="Domain-and-_subject">
</g>
<g>
	<path class="st0" d="M44.4,36.7h3.1c0.6,0,1.1-0.5,1.1-1.1V20.9c0-0.6-0.5-1.1-1.1-1.1h-21c-0.6,0-1.1,0.5-1.1,1.1v14.7
		c0,0.6,0.5,1.1,1.1,1.1h3.1"/>
	<line class="st1" x1="32.8" y1="36.7" x2="41.2" y2="36.7"/>
	<line class="st1" x1="46.4" y1="22.3" x2="27.7" y2="22.3"/>
	<rect x="29.1" y="25.3" class="st0" width="16" height="8.4"/>
	<line class="st1" x1="44.4" y1="36.7" x2="40.7" y2="36.7"/>
	<line class="st1" x1="33.3" y1="36.7" x2="28.4" y2="36.7"/>
	<line class="st1" x1="24.9" y1="40.8" x2="29.1" y2="40.8"/>
	<line class="st1" x1="44.8" y1="40.8" x2="49.3" y2="40.8"/>
	<line class="st1" x1="41.4" y1="36.8" x2="47.9" y2="40.8"/>
	<line class="st1" x1="32.4" y1="36.8" x2="25.9" y2="40.8"/>
	<g>
		<path class="st2" d="M20.6,51.2c1.6,0,3.2,0,4.8,0c1.6,0,3.2,0,4.8,0c1,0,1.5-0.5,1.5-1.4c0-2.1,0-4.2,0-6.2c0-1-0.6-1.4-1.5-1.4
			c-3.2,0-6.5,0-9.7,0c-1,0-1.5,0.5-1.5,1.5c0,2,0,4.1,0,6.1C19.1,50.7,19.6,51.2,20.6,51.2z M19.8,43.7c0-0.7,0.2-0.8,0.8-0.8
			c3.2,0,6.3,0,9.5,0c0.7,0,0.9,0.2,0.9,0.9c0,1.9,0,3.9,0,5.8c0,0.7-0.2,0.9-0.9,0.9c-1.6,0-3.2,0-4.7,0s-3.2,0-4.7,0
			c-0.7,0-0.8-0.1-0.8-0.8C19.8,47.7,19.8,45.7,19.8,43.7z"/>
		<path class="st2" d="M33,53c-0.1,0-0.3,0-0.4,0c-2.4,0-4.8,0-7.2,0s-4.8,0-7.2,0c-0.3,0-0.8-0.2-0.8,0.4c0,0.5,0.5,0.4,0.8,0.4
			c4.8,0,9.5,0,14.3,0c0.2,0,0.3,0,0.5,0c0.2,0,0.4-0.2,0.4-0.4C33.4,53.2,33.2,53,33,53z"/>
	</g>
	<path class="st2" d="M43.8,51.2c1.6,0,3.2,0,4.8,0c1.6,0,3.2,0,4.8,0c1,0,1.5-0.5,1.5-1.4c0-2.1,0-4.2,0-6.2c0-1-0.6-1.4-1.5-1.4
		c-3.2,0-6.5,0-9.7,0c-1,0-1.5,0.5-1.5,1.5c0,2,0,4.1,0,6.1C42.3,50.7,42.8,51.2,43.8,51.2z M43.1,43.7c0-0.7,0.2-0.8,0.8-0.8
		c3.2,0,6.3,0,9.5,0c0.7,0,0.9,0.2,0.9,0.9c0,1.9,0,3.9,0,5.8c0,0.7-0.2,0.9-0.9,0.9c-1.6,0-3.2,0-4.7,0c-1.6,0-3.2,0-4.7,0
		c-0.7,0-0.8-0.1-0.8-0.8C43.1,47.7,43.1,45.7,43.1,43.7z"/>
	<g>
		<path class="st2" d="M20.6,51.6h9.7c1.2,0,1.9-0.7,1.9-1.8c0-2.1,0-4.2,0-6.2c0-1.2-0.7-1.8-1.9-1.8h-9.7c-1.2,0-1.9,0.7-1.9,1.9
			v6.1C18.7,51,19.3,51.6,20.6,51.6z M20.3,43.3c0,0,0.1,0,0.4,0h9.5c0.5,0,0.5,0,0.5,0.5v5.8c0,0.5,0,0.5-0.5,0.5h-9.5
			c-0.3,0-0.4,0-0.4,0c0,0,0-0.1,0-0.4c0-2,0-3.9,0-5.9C20.2,43.4,20.3,43.3,20.3,43.3z"/>
		<path class="st2" d="M33,52.6H18.2c0,0-0.1,0-0.2,0c-0.1,0-0.2,0-0.2,0c-0.1,0-0.4,0-0.6,0.2c-0.1,0.1-0.2,0.3-0.2,0.6
			c0,0.2,0.1,0.8,0.9,0.8c0.1,0,0.1,0,0.2,0l0.1,0l14.8,0c0.4,0,0.7-0.4,0.7-0.7c0-0.2,0-0.4-0.2-0.5C33.5,52.7,33.2,52.6,33,52.6z"
			/>
		<path class="st2" d="M43.8,51.6h9.7c1.2,0,1.9-0.7,1.9-1.8c0-2.1,0-4.2,0-6.2c0-1.2-0.7-1.8-1.9-1.8h-9.7c-1.2,0-1.9,0.7-1.9,1.9
			l0,6.1C41.9,51,42.6,51.6,43.8,51.6z M43.5,43.3c0,0,0.1,0,0.4,0h9.5c0.5,0,0.5,0,0.5,0.5v5.8c0,0.5,0,0.5-0.5,0.5h-9.5
			c-0.3,0-0.4,0-0.4,0c0,0,0-0.1,0-0.4c0-2,0-3.9,0-5.9C43.5,43.4,43.5,43.3,43.5,43.3z"/>
		<path class="st2" d="M56.8,52.9c-0.1-0.2-0.4-0.3-0.6-0.3H41.4c0,0-0.1,0-0.2,0c-0.1,0-0.2,0-0.2,0c-0.1,0-0.4,0-0.6,0.2
			c-0.1,0.1-0.2,0.3-0.2,0.6c0,0.2,0.1,0.8,0.9,0.8c0.1,0,0.1,0,0.2,0l0.1,0l14.8,0c0.4,0,0.7-0.4,0.7-0.7C57,53.2,57,53,56.8,52.9z
			"/>
	</g>
	<path class="st2" d="M56.2,53c-0.1,0-0.3,0-0.4,0c-2.4,0-4.8,0-7.2,0c-2.4,0-4.8,0-7.2,0c-0.3,0-0.8-0.2-0.8,0.4
		c0,0.5,0.5,0.4,0.8,0.4c4.8,0,9.5,0,14.3,0c0.2,0,0.3,0,0.5,0c0.2,0,0.4-0.2,0.4-0.4C56.6,53.2,56.5,53,56.2,53z"/>
</g>
</svg>
