<?xml version="1.0" encoding="utf-8"?>
<!-- Generator: Adobe Illustrator 21.1.0, SVG Export Plug-In . SVG Version: 6.00 Build 0)  -->
<svg version="1.1" xmlns="http://www.w3.org/2000/svg" xmlns:xlink="http://www.w3.org/1999/xlink" x="0px" y="0px"
	 viewBox="0 0 74 74" style="enable-background:new 0 0 74 74;" xml:space="preserve">
<style type="text/css">
	.st0{fill:none;stroke:#006FAF;stroke-width:2;stroke-miterlimit:10;}
	.st1{fill:#006FAF;}
	.st2{fill:none;stroke:#006FAF;stroke-width:1.5;stroke-miterlimit:10;}
	.st3{fill:#006FAF;stroke:#006FAF;stroke-width:0.5;stroke-miterlimit:10;}
	.st4{fill:none;stroke:#006FAF;stroke-miterlimit:10;}
	.st5{fill:none;stroke:#006FAF;stroke-width:0.75;stroke-miterlimit:10;}
	.st6{fill:#006FAF;stroke:#006FAF;stroke-width:0.25;stroke-miterlimit:10;}
	.st7{fill:none;stroke:#006FAF;stroke-width:0.5;stroke-miterlimit:10;}
	.st8{fill:none;stroke:#006FAF;stroke-width:0.25;stroke-miterlimit:10;}
</style>
<g id="iot-connected-platform-deployment">
	<g id="Layer_13">
	</g>
</g>
<g id="core-iot-services">
</g>
<g id="Application-and-business-logic">
</g>
<g id="Device-connectivity-and-_security">
	<circle class="st0" cx="37" cy="37" r="36"/>
	<g>
		<path class="st1" d="M59.4,28.9H42.6c-1.4,0-2.7,1.2-2.7,2.7v12.1c0,1.4,1.2,2.7,2.7,2.7h7.5v2.6h-2.5c-0.5,0-0.9,0.4-0.9,0.9
			s0.4,0.9,0.9,0.9h6.8c0.5,0,0.9-0.4,0.9-0.9s-0.4-1-0.9-1h-2.5v-2.6h7.5c1.4,0,2.7-1.2,2.7-2.7v-12C62,30.1,60.8,28.9,59.4,28.9z
			 M60.2,43.6c0,0.5-0.4,0.9-0.9,0.9H42.6c-0.5,0-0.9-0.4-0.9-0.9v-12c0-0.5,0.4-0.9,0.9-0.9h16.8c0.5,0,0.9,0.4,0.9,0.9V43.6z
			 M27,49.7c0-0.5-0.4-0.9-0.9-0.9h-2.5v-2.6h7.5c1.4,0,2.7-1.2,2.7-2.7v-12c0-1.4-1.2-2.7-2.7-2.7H14.3c-1.4,0-2.6,1.2-2.6,2.7
			v12.1c0,1.4,1.2,2.6,2.6,2.6h7.5v2.6h-2.5c-0.5,0-0.9,0.4-0.9,0.9s0.4,0.9,0.9,0.9h6.8C26.6,50.6,27,50.2,27,49.7z M13.5,43.6v-12
			c0-0.5,0.4-0.9,0.9-0.9h16.8c0.5,0,0.9,0.4,0.9,0.9v12.1c0,0.5-0.4,0.9-0.9,0.9H14.3C13.8,44.4,13.5,44.1,13.5,43.6z"/>
		<g>
			<g>
				<path class="st3" d="M25.6,34.4c-0.9,0-1.4-0.3-1.9-0.6c-0.4-0.2-0.8-0.5-1.4-0.5c-0.5,0-0.9,0.2-1.4,0.5
					c-0.5,0.3-1,0.6-1.9,0.6c-0.1,0-0.2,0.1-0.2,0.2v2.1c0,2.5,1.9,4.6,3.4,4.6c1.5,0,3.4-2.1,3.4-4.6v-2.1
					C25.8,34.5,25.7,34.4,25.6,34.4z M25.5,36.7c0,2.4-1.9,4.3-3.1,4.3c-1.2,0-3.1-1.8-3.1-4.3v-2c0.8,0,1.4-0.4,1.9-0.6
					c0.4-0.2,0.8-0.4,1.2-0.4c0.5,0,0.8,0.2,1.2,0.4c0.5,0.3,1.1,0.6,1.9,0.7V36.7z"/>
				<path class="st3" d="M20.8,37.8c-0.1-0.1-0.2,0-0.2,0c-0.1,0.1-0.1,0.1,0,0.2l1.1,1.1c0,0,0.1,0,0.1,0l0,0c0,0,0.1,0,0.1-0.1
					l2.9-3.3c0.1-0.1,0.1-0.2,0-0.2s-0.2-0.1-0.2,0c0,0,0,0,0,0l-2.8,3.2L20.8,37.8z"/>
			</g>
		</g>
		<g>
			<g>
				<path class="st3" d="M54.5,34.5c-0.9,0-1.4-0.3-1.9-0.6c-0.4-0.2-0.8-0.5-1.4-0.5c-0.5,0-0.9,0.2-1.4,0.5
					c-0.5,0.3-1,0.6-1.9,0.6c-0.1,0-0.2,0.1-0.2,0.2v2.1c0,2.5,1.9,4.6,3.4,4.6c1.5,0,3.4-2.1,3.4-4.6v-2.1
					C54.7,34.6,54.6,34.5,54.5,34.5z M54.4,36.8c0,2.4-1.9,4.3-3.1,4.3s-3.1-1.8-3.1-4.3v-2c0.8,0,1.4-0.4,1.9-0.6
					c0.4-0.2,0.8-0.4,1.2-0.4c0.5,0,0.8,0.2,1.2,0.4c0.5,0.3,1.1,0.6,1.9,0.7V36.8z"/>
				<path class="st3" d="M49.7,37.9c-0.1-0.1-0.2,0-0.2,0c-0.1,0.1-0.1,0.1,0,0.2l1.1,1.1c0,0,0.1,0,0.1,0l0,0c0,0,0.1,0,0.1-0.1
					l2.9-3.3c0.1-0.1,0.1-0.2,0-0.2s-0.2-0.1-0.2,0c0,0,0,0,0,0l-2.8,3.2L49.7,37.9z"/>
			</g>
		</g>
		<line class="st4" x1="32.8" y1="37.5" x2="41.7" y2="37.5"/>
	</g>
</g>
<g id="Device-management">
</g>
<g id="User-management">
</g>
<g id="Connected-products_1_">
</g>
<g id="Connected-systems_1_">
</g>
<g id="Data-driven-connected-business_1_">
</g>
<g id="Azure-iot-hub_1_">
</g>
<g id="Expertise-and-experience_1_">
</g>
<g id="Domain-and-_subject">
</g>
</svg>
