<?xml version="1.0" encoding="utf-8"?>
<!-- Generator: Adobe Illustrator 21.1.0, SVG Export Plug-In . SVG Version: 6.00 Build 0)  -->
<svg version="1.1" xmlns="http://www.w3.org/2000/svg" xmlns:xlink="http://www.w3.org/1999/xlink" x="0px" y="0px"
	 viewBox="0 0 74 74" style="enable-background:new 0 0 74 74;" xml:space="preserve">
<style type="text/css">
	.st0{fill:none;stroke:#006FAF;stroke-width:2;stroke-miterlimit:10;}
	.st1{fill:none;stroke:#006FAF;stroke-width:1.5;stroke-miterlimit:10;}
	.st2{fill:#006FAF;}
	.st3{fill:#006FAF;stroke:#006FAF;stroke-width:0.5;stroke-miterlimit:10;}
	.st4{fill:#006FAF;stroke:#006FAF;stroke-miterlimit:10;}
	.st5{fill:none;stroke:#006FAF;stroke-width:0.75;stroke-miterlimit:10;}
</style>
<g id="iot-stream-analytics">
</g>
<g id="stream-analytics-architecture">
</g>
<g id="event-hub-set-ups">
	<circle class="st0" cx="37.7" cy="37" r="36"/>
	<g>
		<g>
			<polyline class="st0" points="48.4,30.1 48.4,24.9 19.6,24.9 			"/>
			<polyline class="st0" points="19.6,47.9 19.6,53.1 48.4,53.1 			"/>
		</g>
		<g>
			<polyline class="st0" points="19.6,30.1 19.6,24.9 48.4,24.9 			"/>
			<polyline class="st0" points="48.4,47.9 48.4,53.1 19.6,53.1 			"/>
			<rect x="25.4" y="31.4" class="st2" width="5.9" height="3.9"/>
			<rect x="25.4" y="37.2" class="st2" width="5.9" height="3.9"/>
			<rect x="32.4" y="34.1" class="st2" width="5.9" height="3.9"/>
			<rect x="32.3" y="40.5" class="st2" width="5.9" height="3.9"/>
			<rect x="39" y="37.2" class="st2" width="5.9" height="3.9"/>
			<rect x="25.4" y="43.1" class="st2" width="5.9" height="3.9"/>
		</g>
	</g>
	<g transform="translate(0,-952.36218)">
		<path class="st2" d="M53,983.7c-0.6,0-1,0.5-1,1v0.9c-0.7,0.3-1.4,0.7-2,1.2l-0.8-0.4c-0.5-0.3-1.1-0.1-1.4,0.4l-1,1.8
			c-0.3,0.5-0.1,1.1,0.4,1.4l0.8,0.4c-0.1,0.3-0.1,0.7-0.1,1c0,0.3,0,0.7,0.1,1l-0.8,0.4c-0.5,0.3-0.7,0.9-0.4,1.4l1,1.8
			c0.3,0.5,0.9,0.7,1.4,0.4l0.8-0.4c0.6,0.5,1.3,0.9,2,1.2v0.9c0,0.6,0.5,1,1,1h2c0.6,0,1-0.5,1-1v-0.9c0.7-0.3,1.4-0.7,2-1.2
			l0.8,0.4c0.5,0.3,1.1,0.1,1.4-0.4l1-1.8c0.3-0.5,0.1-1.1-0.4-1.4l-0.8-0.4c0.1-0.3,0.1-0.7,0.1-1c0-0.3,0-0.7-0.1-1l0.8-0.4
			c0.5-0.3,0.7-0.9,0.4-1.4l-1-1.8c-0.3-0.5-0.9-0.7-1.4-0.4l-0.8,0.4c-0.6-0.5-1.2-0.9-2-1.2v-0.9c0-0.6-0.5-1-1-1H53z M53,984.4h2
			c0.2,0,0.3,0.1,0.3,0.3v1.1c0,0.1,0.1,0.3,0.2,0.3c0.8,0.3,1.6,0.7,2.2,1.3c0.1,0.1,0.3,0.1,0.4,0.1l1-0.5c0.2-0.1,0.4,0,0.5,0.1
			l1,1.8c0.1,0.2,0,0.4-0.1,0.5l-1,0.5c-0.1,0.1-0.2,0.2-0.2,0.4c0.1,0.4,0.1,0.7,0.1,1.1s0,0.8-0.1,1.1c0,0.1,0,0.3,0.2,0.4l1,0.5
			c0.2,0.1,0.2,0.3,0.1,0.5l-1,1.8c-0.1,0.2-0.3,0.2-0.5,0.1l-1-0.5c-0.1-0.1-0.3-0.1-0.4,0c-0.6,0.6-1.4,1-2.2,1.3
			c-0.1,0-0.2,0.2-0.2,0.3v1.1c0,0.2-0.1,0.3-0.3,0.3h-2c-0.2,0-0.3-0.1-0.3-0.3v-1.1c0-0.2-0.1-0.3-0.2-0.3
			c-0.8-0.3-1.6-0.7-2.2-1.3c-0.1-0.1-0.3-0.1-0.4,0l-1,0.5c-0.2,0.1-0.4,0-0.5-0.1l-1-1.8c-0.1-0.2,0-0.4,0.1-0.5l1-0.5
			c0.1-0.1,0.2-0.2,0.2-0.4c-0.1-0.4-0.1-0.7-0.1-1.1s0-0.8,0.1-1.1c0-0.1,0-0.3-0.2-0.4l-1-0.5c-0.2-0.1-0.2-0.3-0.1-0.5l1-1.8
			c0.1-0.2,0.3-0.2,0.5-0.1l1,0.5c0.1,0.1,0.3,0,0.4-0.1c0.6-0.6,1.4-1,2.2-1.3c0.1,0,0.2-0.2,0.2-0.3v-1.1
			C52.6,984.5,52.8,984.4,53,984.4z M54,987.8c-2,0-3.6,1.6-3.6,3.6s1.6,3.6,3.6,3.6c2,0,3.6-1.6,3.6-3.6S56,987.8,54,987.8z
			 M54,988.5c1.6,0,2.9,1.3,2.9,2.9s-1.3,2.9-2.9,2.9s-2.9-1.3-2.9-2.9S52.4,988.5,54,988.5z"/>
	</g>
</g>
<g id="event-processing">
</g>
<g id="stream-analytics">
</g>
<g id="logging-and-monitoring">
</g>
<g id="breadth-of-expertise-and-experience">
</g>
<g id="domain-and-subject-matter-experts">
</g>
</svg>
