<svg id="Layer_1" data-name="Layer 1" xmlns="http://www.w3.org/2000/svg" width="74" height="74" viewBox="0 0 74 74">
  <defs>
    <style>
      .cls-1 {
        fill: none;
        stroke: #006faf;
        stroke-miterlimit: 10;
        stroke-width: 2px;
      }

      .cls-2 {
        fill: #006faf;
      }
    </style>
  </defs>
  <title>implementation-integration</title>
  <circle class="cls-1" cx="37" cy="37" r="36"/>
  <path class="cls-2" d="M38.64,56.16a18.86,18.86,0,0,1-18.29-14,1.86,1.86,0,0,0-1.28-1.42,4.46,4.46,0,0,1-2.91-4.9,4.64,4.64,0,0,1,4.3-3.9h.25A4.71,4.71,0,0,1,25,35.13a4.52,4.52,0,0,1-2.25,5.36c-1.06.5-.94,1.09-.66,1.88a17.34,17.34,0,0,0,16.77,12c.57,0,1.15,0,1.72-.08,7.57-.61,14.15-6.92,15.3-14.69A17.46,17.46,0,0,0,45,20.95a17,17,0,0,0-6.33-1.21A17.29,17.29,0,0,0,24.56,27a2,2,0,0,0-.22.28l-.28.38.16,0a2.71,2.71,0,0,0,.49,0,4,4,0,0,0,1.49-.35,6.28,6.28,0,0,1,.7-.24,2.81,2.81,0,0,1,.76-.15c.26,0,.58.07.75.62s-.11,1-.88,1.23c-1.65.53-3.24,1.06-4.83,1.59l-.1,0a2,2,0,0,1-.54.09c-.5,0-.82-.3-1-1-.38-1.32-.8-2.54-1.23-3.85l-.32-1a1.35,1.35,0,0,1,0-1,.75.75,0,0,1,.49-.34,1.28,1.28,0,0,1,.33,0c.42,0,.72.29.9.86.13.38.27.75.41,1.15s.36,1,.53,1.49l.06.18.34-.47c.44-.61.86-1.19,1.33-1.71a19.28,19.28,0,0,1,14.89-7.05A18.88,18.88,0,0,1,46,19.31a19.17,19.17,0,0,1-7.4,36.85ZM20.55,33.65a3,3,0,0,0-2.77,2.73,2.74,2.74,0,0,0,.78,2,2.77,2.77,0,0,0,2,.88h.11a2.81,2.81,0,0,0,0-5.61Z"/>
</svg>
