<?xml version="1.0" encoding="utf-8"?>
<!-- Generator: Adobe Illustrator 21.0.2, SVG Export Plug-In . SVG Version: 6.00 Build 0)  -->
<svg version="1.1" id="Layer_1" xmlns="http://www.w3.org/2000/svg" xmlns:xlink="http://www.w3.org/1999/xlink" x="0px" y="0px"
	 viewBox="0 0 74 74" style="enable-background:new 0 0 74 74;" xml:space="preserve">
<style type="text/css">
	.st0{fill:none;stroke:#006FAF;stroke-width:2;stroke-miterlimit:10;}
	.st1{fill:#006FAF;}
</style>
<title>Cloud &amp;amp; Infrastructure Services</title>
<circle class="st0" cx="37" cy="37" r="36"/>
<g>
	<path class="st1" d="M42.7,39.3c-0.5,0-0.9,0.4-0.9,0.9c0,2.7-2.2,4.9-4.8,4.9s-4.8-2.2-4.8-4.9c0-2.7,2.2-4.9,4.9-4.9h1l-1.4,0.8
		c-0.2,0.1-0.3,0.3-0.4,0.5c-0.1,0.2,0,0.5,0.1,0.7c0.1,0.2,0.3,0.3,0.5,0.4c0.2,0.1,0.5,0,0.7-0.1l4.2-2.5c0.3-0.2,0.4-0.4,0.4-0.8
		c0-0.3-0.2-0.6-0.4-0.8l-4.3-2.4c-0.4-0.2-1-0.1-1.2,0.3c-0.1,0.2-0.1,0.4-0.1,0.7c0.1,0.2,0.2,0.4,0.4,0.5l1.5,0.8H37
		c-3.7,0-6.6,3-6.6,6.6c0,3.6,3,6.6,6.6,6.6c3.6,0,6.6-3,6.6-6.6C43.6,39.7,43.2,39.3,42.7,39.3z"/>
	<path class="st1" d="M49.2,30.7c-0.4-4.5-3.7-7.4-8.5-7.4c-3.9,0-6.5,1.3-7.9,3.9c-0.7-0.3-1.4-0.5-2.2-0.5c-3.2,0-5.8,2.9-5.8,6.4
		c0,0.1,0,0.2,0,0.3c-3.3,1.1-5.7,4.6-5.7,8.4c0,4.9,3.6,8.8,8,8.8h18.4c5.2,0,9.4-4.7,9.4-10.4C54.9,36.1,52.6,32.4,49.2,30.7z
		 M45.5,48.9H27.1c-3.4,0-6.2-3.2-6.2-7c0-3.4,2.1-6.3,5-6.9c0.5-0.1,0.8-0.5,0.7-1c0-0.3-0.1-0.5-0.1-0.8c0-2.6,1.8-4.7,4.1-4.7
		c0.8,0,1.5,0.2,2.1,0.7c0.2,0.2,0.5,0.2,0.8,0.1c0.3-0.1,0.5-0.3,0.6-0.5c0.8-2.5,3-3.7,6.6-3.7c4.1,0,6.7,2.4,6.8,6.3
		c0,0.4,0.2,0.7,0.6,0.8c3.1,1.2,5.1,4.5,5.1,8.2C53.1,45.1,49.7,48.9,45.5,48.9z"/>
</g>
</svg>
