<?xml version="1.0" encoding="utf-8"?>
<!-- Generator: Adobe Illustrator 21.0.2, SVG Export Plug-In . SVG Version: 6.00 Build 0)  -->
<svg version="1.1" id="Layer_1" xmlns="http://www.w3.org/2000/svg" xmlns:xlink="http://www.w3.org/1999/xlink" x="0px" y="0px"
	 viewBox="0 0 74 74" style="enable-background:new 0 0 74 74;" xml:space="preserve">
<style type="text/css">
	.st0{fill:#006FAF;}
</style>
<title>SQL-server-database-services</title>
<g>
	<g>
		<path class="st0" d="M37,74C16.6,74,0,57.4,0,37S16.6,0,37,0s37,16.6,37,37S57.4,74,37,74z M37,2C17.7,2,2,17.7,2,37
			s15.7,35,35,35s35-15.7,35-35S56.3,2,37,2z"/>
	</g>
</g>
<g>
	<g>
		<defs>
			<rect id="SVGID_1_" x="627.8" y="321.2" width="648" height="21.6"/>
		</defs>
		<clipPath id="SVGID_2_">
			<use xlink:href="#SVGID_1_"  style="overflow:visible;"/>
		</clipPath>
		<g style="clip-path:url(#SVGID_2_);">
			<text transform="matrix(0.9991 0 0 1 627.7656 331.375)"><tspan x="0" y="0" style="fill:#0070C0; font-family:'ArialMT'; font-size:11.0503px;">P</tspan><tspan x="7.3" y="0" style="fill:#0070C0; font-family:'ArialMT'; font-size:11.0503px;">r</tspan><tspan x="11.1" y="0" style="fill:#0070C0; font-family:'ArialMT'; font-size:11.0503px;">oa</tspan><tspan x="23.3" y="0" style="fill:#0070C0; font-family:'ArialMT'; font-size:11.0503px;">c</tspan><tspan x="28.8" y="0" style="fill:#0070C0; font-family:'ArialMT'; font-size:11.0503px;">t</tspan><tspan x="32" y="0" style="fill:#0070C0; font-family:'ArialMT'; font-size:11.0503px;">i</tspan><tspan x="34.4" y="0" style="fill:#0070C0; font-family:'ArialMT'; font-size:11.0503px;">v</tspan><tspan x="39.8" y="0" style="fill:#0070C0; font-family:'ArialMT'; font-size:11.0503px;">e</tspan><tspan x="45.9" y="0" style="fill:#0070C0; font-family:'ArialMT'; font-size:11.0503px;"> </tspan></text>
		</g>
	</g>
	<g>
		<defs>
			<rect id="SVGID_3_" x="627.8" y="321.2" width="648" height="21.6"/>
		</defs>
		<clipPath id="SVGID_4_">
			<use xlink:href="#SVGID_3_"  style="overflow:visible;"/>
		</clipPath>
		<g style="clip-path:url(#SVGID_4_);">
			<text transform="matrix(0.9991 0 0 1 676.7266 331.375)"><tspan x="0" y="0" style="fill:#0070C0; font-family:'ArialMT'; font-size:11.0503px;">S</tspan><tspan x="7.3" y="0" style="fill:#0070C0; font-family:'ArialMT'; font-size:11.0503px;">pend</tspan><tspan x="31.9" y="0" style="fill:#0070C0; font-family:'ArialMT'; font-size:11.0503px;"> </tspan><tspan x="35" y="0" style="fill:#0070C0; font-family:'ArialMT'; font-size:11.0503px;">M</tspan><tspan x="44" y="0" style="fill:#0070C0; font-family:'ArialMT'; font-size:11.0503px;">anage</tspan><tspan x="74.7" y="0" style="fill:#0070C0; font-family:'ArialMT'; font-size:11.0503px;">m</tspan><tspan x="83.9" y="0" style="fill:#0070C0; font-family:'ArialMT'; font-size:11.0503px;">en</tspan><tspan x="96.2" y="0" style="fill:#0070C0; font-family:'ArialMT'; font-size:11.0503px;">t</tspan></text>
		</g>
	</g>
	<g>
		<defs>
			<rect id="SVGID_5_" x="627.8" y="321.2" width="648" height="21.6"/>
		</defs>
		<clipPath id="SVGID_6_">
			<use xlink:href="#SVGID_5_"  style="overflow:visible;"/>
		</clipPath>
		<g style="clip-path:url(#SVGID_6_);">
			<text transform="matrix(0.9991 0 0 1 775.7188 331.375)" style="fill:#0070C0; font-family:'ArialMT'; font-size:11.0503px;"> </text>
		</g>
	</g>
</g>
<g>
	<g>
		<defs>
			<rect id="SVGID_7_" x="627.8" y="321.2" width="648" height="21.6"/>
		</defs>
		<clipPath id="SVGID_8_">
			<use xlink:href="#SVGID_7_"  style="overflow:visible;"/>
		</clipPath>
		<g style="clip-path:url(#SVGID_8_);">
			<text transform="matrix(0.9991 0 0 1 627.7656 331.375)"><tspan x="0" y="0" style="fill:#0070C0; font-family:'ArialMT'; font-size:11.0503px;">R</tspan><tspan x="7.9" y="0" style="fill:#0070C0; font-family:'ArialMT'; font-size:11.0503px;">e</tspan><tspan x="14.1" y="0" style="fill:#0070C0; font-family:'ArialMT'; font-size:11.0503px;">s</tspan><tspan x="19.6" y="0" style="fill:#0070C0; font-family:'ArialMT'; font-size:11.0503px;">ou</tspan><tspan x="31.9" y="0" style="fill:#0070C0; font-family:'ArialMT'; font-size:11.0503px;">r</tspan><tspan x="35.6" y="0" style="fill:#0070C0; font-family:'ArialMT'; font-size:11.0503px;">c</tspan><tspan x="41.1" y="0" style="fill:#0070C0; font-family:'ArialMT'; font-size:11.0503px;">e</tspan><tspan x="47.2" y="0" style="fill:#0070C0; font-family:'ArialMT'; font-size:11.0503px;"> </tspan></text>
		</g>
	</g>
	<g>
		<defs>
			<rect id="SVGID_9_" x="627.8" y="321.2" width="648" height="21.6"/>
		</defs>
		<clipPath id="SVGID_10_">
			<use xlink:href="#SVGID_9_"  style="overflow:visible;"/>
		</clipPath>
		<g style="clip-path:url(#SVGID_10_);">
			<text transform="matrix(0.9991 0 0 1 678.0391 331.375)"><tspan x="0" y="0" style="fill:#0070C0; font-family:'ArialMT'; font-size:11.0503px;">R</tspan><tspan x="7.9" y="0" style="fill:#0070C0; font-family:'ArialMT'; font-size:11.0503px;">i</tspan><tspan x="10.2" y="0" style="fill:#0070C0; font-family:'ArialMT'; font-size:11.0503px;">g</tspan><tspan x="16.5" y="0" style="fill:#0070C0; font-family:'ArialMT'; font-size:11.0503px;">h</tspan><tspan x="22.6" y="0" style="fill:#0070C0; font-family:'ArialMT'; font-size:11.0503px;">t</tspan><tspan x="25.7" y="0" style="fill:#0070C0; font-family:'ArialMT'; font-size:11.0503px;">s</tspan><tspan x="31.2" y="0" style="fill:#0070C0; font-family:'ArialMT'; font-size:11.0503px;">i</tspan><tspan x="33.7" y="0" style="fill:#0070C0; font-family:'ArialMT'; font-size:11.0503px;">z</tspan><tspan x="39.1" y="0" style="fill:#0070C0; font-family:'ArialMT'; font-size:11.0503px;">i</tspan><tspan x="41.5" y="0" style="fill:#0070C0; font-family:'ArialMT'; font-size:11.0503px;">n</tspan><tspan x="47.6" y="0" style="fill:#0070C0; font-family:'ArialMT'; font-size:11.0503px;">g</tspan></text>
		</g>
	</g>
	<g>
		<defs>
			<rect id="SVGID_11_" x="627.8" y="321.2" width="648" height="21.6"/>
		</defs>
		<clipPath id="SVGID_12_">
			<use xlink:href="#SVGID_11_"  style="overflow:visible;"/>
		</clipPath>
		<g style="clip-path:url(#SVGID_12_);">
			<text transform="matrix(0.9991 0 0 1 731.6875 331.375)" style="fill:#0070C0; font-family:'ArialMT'; font-size:11.0503px;"> </text>
		</g>
	</g>
</g>
<g>
	<g>
		<path class="st0" d="M49,26H25v-3h24V26z M50,31H24v-4h26V31z M51,32v19h-8v-3h2v-1h-5v1h2v3H32v-3h2v-1h-5v1h2v3h-8V32H51
			 M28.5,38.2c1,0,1.9-0.8,1.9-1.9c0-1-0.8-1.9-1.9-1.9c-1,0-1.9,0.8-1.9,1.9C26.6,37.3,27.5,38.2,28.5,38.2 M36,37h12v-1H36V37z
			 M36,40h12v-1H36V40z M26,44h5v-2.5c0-1.4-1-2.5-2.5-2.5C27,39,26,40.2,26,41.5V44 M36,43h12v-1H36V43z M49,21H25
			c-1.1,0-2,0.9-2,2v2.3c-0.6,0.3-1,1-1,1.7v3.3c-0.6,0.3-1,1-1,1.7v19c0,1.1,0.9,2,2,2h28c1.1,0,2-0.9,2-2V32c0-0.7-0.4-1.4-1-1.7
			V27c0-0.7-0.4-1.4-1-1.7V23C51,21.9,50.1,21,49,21"/>
	</g>
</g>
</svg>
