<svg id="Layer_1" data-name="Layer 1" xmlns="http://www.w3.org/2000/svg" viewBox="0 0 74 74"><defs><style>.cls-1{fill:none;stroke:#006faf;stroke-miterlimit:10;stroke-width:2px;}.cls-2{fill:#2175aa;fill-rule:evenodd;}</style></defs><title>intelligent-business-app</title><circle class="cls-1" cx="37" cy="37" r="36"/><path class="cls-2" d="M48.29,31.83h2.9a.55.55,0,0,0,.62-.62V26.62a.55.55,0,0,0-.62-.62h-2.9a.55.55,0,0,0-.62.62v1.67H42.92a.55.55,0,0,0-.62.62v6.87H39.81V32.66a.55.55,0,0,0-.62-.62H34.64a.55.55,0,0,0-.62.62v3.12H31.54V28.92a.55.55,0,0,0-.62-.62H26.16V26.62a.55.55,0,0,0-.62-.62h-2.9a.55.55,0,0,0-.62.62v4.58a.55.55,0,0,0,.62.62h2.9a.55.55,0,0,0,.62-.62V29.54H30.3v6.25H26.16V34.12a.55.55,0,0,0-.62-.62h-2.9a.55.55,0,0,0-.62.62V38.7a.55.55,0,0,0,.62.62h2.9a.55.55,0,0,0,.62-.62V37H30.3v6.25H26.16V41.62a.55.55,0,0,0-.62-.62h-2.9a.55.55,0,0,0-.62.62V46.2a.55.55,0,0,0,.62.62h2.9a.55.55,0,0,0,.62-.62V44.53h4.76a.55.55,0,0,0,.62-.62V37H34v3.12a.55.55,0,0,0,.62.62h4.55a.55.55,0,0,0,.62-.62V37H42.3v6.87a.55.55,0,0,0,.62.62h4.76V46.2a.55.55,0,0,0,.62.62h2.9a.55.55,0,0,0,.62-.62V41.62a.55.55,0,0,0-.62-.62h-2.9a.55.55,0,0,0-.62.62v1.67H43.54V37h4.14V38.7a.55.55,0,0,0,.62.62h2.9a.55.55,0,0,0,.62-.62V34.12a.55.55,0,0,0-.62-.62h-2.9a.55.55,0,0,0-.62.62v1.67H43.54V29.54h4.14v1.67a.55.55,0,0,0,.62.62Zm.62-4.58h1.65v3.33H48.91V27.25Zm-24,3.33H23.27V27.25h1.65v3.33Zm0,7.5H23.27V34.75h1.65v3.33Zm0,7.5H23.27V42.24h1.65v3.33Zm13.65-6H35.26V33.29h3.31v6.25Zm10.34,2.71h1.65v3.33H48.91V42.24Zm0-7.5h1.65v3.33H48.91V34.75Z"/></svg>