<?xml version="1.0" encoding="utf-8"?>
<!-- Generator: Adobe Illustrator 21.0.2, SVG Export Plug-In . SVG Version: 6.00 Build 0)  -->
<svg version="1.1" id="Layer_1" xmlns="http://www.w3.org/2000/svg" xmlns:xlink="http://www.w3.org/1999/xlink" x="0px" y="0px"
	 viewBox="0 0 74 74" style="enable-background:new 0 0 74 74;" xml:space="preserve">
<style type="text/css">
	.st0{fill:none;stroke:#006FAF;stroke-width:2;stroke-miterlimit:10;}
	.st1{fill:#006FAF;}
</style>
<title>Cloud &amp;amp; Infrastructure Services</title>
<circle class="st0" cx="37" cy="37" r="36"/>
<path class="st1" d="M51,31.5h3.6c0.4,0,0.8-0.3,0.8-0.8v-5.7c0-0.4-0.3-0.8-0.8-0.8H51c-0.4,0-0.8,0.3-0.8,0.8v2h-5.8
	c-0.4,0-0.8,0.3-0.8,0.8v8.4h-3v-3.8c0-0.4-0.3-0.8-0.8-0.8l0,0H34l0,0c-0.4,0-0.8,0.3-0.8,0.8v3.8h-3v-8.4c0-0.4-0.3-0.8-0.8-0.8
	h-5.8v-2c0-0.4-0.3-0.8-0.8-0.8h-3.6c-0.4,0-0.8,0.3-0.8,0.8v5.7c0,0.4,0.3,0.8,0.8,0.8h3.6c0.4,0,0.8-0.3,0.8-0.8v-2h5.1v7.6h-5.1
	v-2c0-0.4-0.3-0.8-0.8-0.8h-3.6c-0.4,0-0.8,0.3-0.8,0.8v5.7c0,0.4,0.3,0.8,0.8,0.8h3.6c0.4,0,0.8-0.3,0.8-0.8v-2h5.1v7.6h-5.1v-2
	c0-0.4-0.3-0.8-0.8-0.8h-3.6c-0.4,0-0.8,0.3-0.8,0.8v5.7c0,0.4,0.3,0.8,0.8,0.8h3.6c0.4,0,0.8-0.3,0.8-0.8v-2h5.8
	c0.4,0,0.8-0.3,0.8-0.8v-8.4h3v3.8c0,0.4,0.3,0.8,0.8,0.8l0,0h5.7l0,0c0.4,0,0.8-0.3,0.8-0.8v-3.8h3v8.4c0,0.4,0.3,0.8,0.8,0.8h5.8
	v2c0,0.4,0.3,0.8,0.8,0.8h3.6c0.4,0,0.8-0.3,0.8-0.8v-5.7c0-0.4-0.3-0.8-0.8-0.8H51c-0.4,0-0.8,0.3-0.8,0.8v2h-5.1v-7.6h5.1v2
	c0,0.4,0.3,0.8,0.8,0.8h3.6c0.4,0,0.8-0.3,0.8-0.8v-5.7c0-0.4-0.3-0.8-0.8-0.8H51c-0.4,0-0.8,0.3-0.8,0.8v2h-5.1v-7.6h5.1v2
	C50.2,31.2,50.6,31.5,51,31.5z M51.8,25.8h2v4.2h-2V25.8z M22.2,29.9h-2v-4.2h2V29.9z M22.2,39h-2V35h2V39z M22.2,48.2h-2v-4.2h2
	V48.2z M39,40.8H35v-7.6H39V40.8z M51.8,44.1h2v4.2h-2V44.1z M51.8,35h2V39h-2V35z"/>
</svg>
