<?xml version="1.0" encoding="utf-8"?>
<!-- Generator: Adobe Illustrator 21.1.0, SVG Export Plug-In . SVG Version: 6.00 Build 0)  -->
<svg version="1.1" xmlns="http://www.w3.org/2000/svg" xmlns:xlink="http://www.w3.org/1999/xlink" x="0px" y="0px"
	 viewBox="0 0 74 74" style="enable-background:new 0 0 74 74;" xml:space="preserve">
<style type="text/css">
	.st0{fill:none;stroke:#006FAF;stroke-width:2;stroke-miterlimit:10;}
	.st1{fill:none;stroke:#006FAF;stroke-width:1.5;stroke-miterlimit:10;}
	.st2{fill:#006FAF;}
	.st3{fill:#006FAF;stroke:#006FAF;stroke-width:0.5;stroke-miterlimit:10;}
	.st4{fill:#006FAF;stroke:#006FAF;stroke-miterlimit:10;}
	.st5{fill:none;stroke:#006FAF;stroke-width:0.75;stroke-miterlimit:10;}
</style>
<g id="iot-stream-analytics">
</g>
<g id="stream-analytics-architecture">
</g>
<g id="event-hub-set-ups">
</g>
<g id="event-processing">
</g>
<g id="stream-analytics">
</g>
<g id="logging-and-monitoring">
	<circle class="st0" cx="37.1" cy="37" r="36"/>
	<g>
		<g transform="translate(0,-952.36218)">
			<path class="st4" d="M21.4,974.9c-1.2,0-2.2,1-2.2,2.2v21.9c0,1.2,1,2.2,2.2,2.2h13.6v5.3h-3.5c-0.2,0-0.4,0.2-0.4,0.4v2.6
				c0,0.2,0.2,0.4,0.4,0.4h13.1c0.2,0,0.4-0.2,0.4-0.4v-2.6c0-0.2-0.1-0.4-0.4-0.4h-3.5v-5.3h13.6c1.2,0,2.2-1,2.2-2.2V977
				c0-1.2-1-2.2-2.2-2.2H21.4z M21.4,975.7h33.3c0.7,0,1.3,0.6,1.3,1.3v21.9c0,0.7-0.6,1.3-1.3,1.3H21.4c-0.7,0-1.3-0.6-1.3-1.3V977
				C20.1,976.3,20.6,975.7,21.4,975.7z M35.8,1001.1h4.4v5.3h-4.4V1001.1z M31.9,1007.2h3.1h6.1h3.1v1.8H31.9V1007.2z"/>
		</g>
		<g>
			<path class="st2" d="M28.2,42c1.4,0,2.4-1.1,2.4-2.4c0-0.5-0.1-0.9-0.3-1.2l3.4-3.6c0.3,0.2,0.7,0.3,1.1,0.3s0.8-0.1,1.2-0.3
				l1.6,1.6c-0.2,0.3-0.3,0.7-0.3,1.2c0,1.4,1.1,2.4,2.4,2.4s2.4-1.1,2.4-2.4c0-0.4-0.1-0.8-0.3-1.2l4.7-4.7
				c0.3,0.2,0.7,0.3,1.2,0.3c1.4,0,2.4-1.1,2.4-2.4c0-1.4-1.1-2.4-2.4-2.4s-2.4,1.1-2.4,2.4c0,0.4,0.1,0.8,0.3,1.2l-4.7,4.7
				c-0.3-0.2-0.7-0.3-1.2-0.3s-0.8,0.1-1.2,0.3L37,33.7c0.2-0.3,0.3-0.7,0.3-1.2c0-1.4-1.1-2.4-2.4-2.4s-2.4,1.1-2.4,2.4
				c0,0.5,0.1,0.9,0.3,1.2l-3.4,3.6c-0.3-0.2-0.7-0.3-1.1-0.3c-1.4,0-2.4,1.1-2.4,2.4C25.8,40.9,26.9,42,28.2,42z M47.8,28.3
				c0.6,0,1,0.5,1,1c0,0.6-0.5,1-1,1s-1-0.5-1-1C46.7,28.8,47.2,28.3,47.8,28.3z M39.7,36.4c0.6,0,1,0.5,1,1c0,0.6-0.5,1-1,1
				s-1-0.5-1-1C38.7,36.8,39.2,36.4,39.7,36.4z M34.9,31.5c0.6,0,1,0.5,1,1c0,0.6-0.5,1-1,1c-0.6,0-1-0.5-1-1
				C33.8,31.9,34.3,31.5,34.9,31.5z M28.2,38.5c0.6,0,1,0.5,1,1c0,0.6-0.5,1-1,1s-1-0.5-1-1C27.2,38.9,27.6,38.5,28.2,38.5z"/>
			<rect x="25.8" y="43.3" class="st2" width="24.4" height="1.4"/>
		</g>
	</g>
</g>
<g id="breadth-of-expertise-and-experience">
</g>
<g id="domain-and-subject-matter-experts">
</g>
</svg>
