<?xml version="1.0" encoding="utf-8"?>
<!-- Generator: Adobe Illustrator 21.0.2, SVG Export Plug-In . SVG Version: 6.00 Build 0)  -->
<svg version="1.1" id="Layer_1" xmlns="http://www.w3.org/2000/svg" xmlns:xlink="http://www.w3.org/1999/xlink" x="0px" y="0px"
	 viewBox="0 0 74 74" style="enable-background:new 0 0 74 74;" xml:space="preserve">
<style type="text/css">
	.st0{fill:none;stroke:#006FAF;stroke-width:2;stroke-miterlimit:10;}
	.st1{fill:#006FAF;}
</style>
<title>Cloud &amp;amp; Infrastructure Services</title>
<circle class="st0" cx="37" cy="37" r="36"/>
<path class="st1" d="M37,56.5c-10.8,0-19.5-8.7-19.5-19.5c0-8.9,6.3-16.9,15-19l0.2,0l0.4,1.9l-0.2,0C25.1,21.8,19.4,29,19.4,37
	c0,9.7,7.9,17.6,17.6,17.6c9.7,0,17.6-7.9,17.6-17.6c0-7.2-4.5-13.8-11.3-16.4L42.9,22l-3.4-3.4l4.6-1.2l-0.4,1.3
	c7.6,2.8,12.7,10.2,12.7,18.2C56.5,47.8,47.8,56.5,37,56.5z"/>
<path class="st1" d="M29.4,43.4c-1.7,0-3.3-0.7-4.5-1.9c-1.2-1.2-1.9-2.7-1.9-4.4c0-1.7,0.7-3.3,1.9-4.5c1.2-1.2,2.8-1.9,4.5-1.9
	c1.7,0,3.3,0.7,4.5,1.9l1.8,1.8c0.2,0.2,0.3,0.4,0.3,0.7s-0.1,0.5-0.3,0.7c-0.2,0.2-0.4,0.3-0.7,0.3c-0.3,0-0.5-0.1-0.7-0.3
	l-1.8-1.8c-0.9-0.9-1.9-1.3-3.1-1.3c-1.1,0-2.3,0.5-3.1,1.3c-0.8,0.8-1.3,1.9-1.3,3.1c0,1.2,0.5,2.3,1.3,3.2
	c0.9,0.9,1.9,1.3,3.1,1.3c1.2,0,2.3-0.5,3.1-1.3l7.6-7.6c1.2-1.2,2.8-1.9,4.5-1.9c1.7,0,3.3,0.6,4.5,1.8c1.2,1.2,1.9,2.7,1.9,4.4
	c0,1.7-0.7,3.3-1.9,4.5c-1.2,1.2-2.8,1.9-4.5,1.9c-1.7,0-3.3-0.7-4.4-1.9l-1.8-1.8c-0.2-0.2-0.3-0.4-0.3-0.7c0-0.2,0.1-0.5,0.3-0.7
	c0.2-0.2,0.4-0.3,0.7-0.3c0.3,0,0.5,0.1,0.7,0.3l1.8,1.8c0.9,0.9,1.9,1.3,3.1,1.3c1.2,0,2.3-0.5,3.1-1.3c0.8-0.8,1.3-1.9,1.3-3.1
	c0-1.2-0.5-2.3-1.3-3.2c-0.9-0.9-1.9-1.3-3.1-1.3c-1.2,0-2.3,0.5-3.1,1.3l-7.6,7.6C32.7,42.7,31.1,43.4,29.4,43.4z"/>
</svg>
