<?xml version="1.0" encoding="utf-8"?>
<!-- Generator: Adobe Illustrator 21.0.2, SVG Export Plug-In . SVG Version: 6.00 Build 0)  -->
<svg version="1.1" id="Layer_1" xmlns="http://www.w3.org/2000/svg" xmlns:xlink="http://www.w3.org/1999/xlink" x="0px" y="0px"
	 viewBox="0 0 74 74" style="enable-background:new 0 0 74 74;" xml:space="preserve">
<style type="text/css">
	.st0{fill:#006FAF;}
</style>
<title>Cloud &amp;amp; Infrastructure Services</title>
<g>
	<path class="st0" d="M37,74C16.6,74,0,57.4,0,37C0,16.6,16.6,0,37,0c20.4,0,37,16.6,37,37C74,57.4,57.4,74,37,74z M37,2
		C17.7,2,2,17.7,2,37s15.7,35,35,35s35-15.7,35-35S56.3,2,37,2z"/>
</g>
<g>
	<path class="st0" d="M35,30.4c1-1.3,2.9-1.8,4.5-1c0.6,0.3,1.1,0.8,1.4,1.3l-2.1,0.7l5.3,4.2l1.9-6.5L44,29.8
		c-0.7-1.4-1.7-2.5-3.1-3.2c-2.9-1.5-6.5-0.7-8.5,1.9l-0.3,0.3l2.5,1.9L35,30.4z M44.7,30.4l-1.1,3.8l-3.1-2.5L44.7,30.4z
		 M33.4,28.6c1.8-2,4.7-2.6,7.1-1.3c1.2,0.6,2.1,1.5,2.6,2.7l-1.5,0.5c-0.4-0.8-1-1.4-1.8-1.8c-1.8-0.9-3.9-0.5-5.2,0.9L33.4,28.6z"
		/>
	<path class="st0" d="M34.8,38.6c1,0.5,2,0.8,3.1,0.8c2.1-0.1,4.1-1,5.4-2.6l0.3-0.3l-2.5-2l-0.3,0.3c-1,1.3-2.9,1.8-4.5,1
		c-0.6-0.3-1.1-0.8-1.4-1.3l2.1-0.7l-5.3-4.2L29.9,36l1.9-0.6C32.4,36.8,33.5,37.9,34.8,38.6z M35.9,36.5c1.8,0.9,3.9,0.5,5.2-0.9
		l1.3,0.9c-1.8,2-4.8,2.6-7.2,1.3c-1.2-0.6-2.1-1.5-2.6-2.7l1.5-0.5C34.6,35.4,35.2,36.1,35.9,36.5z M32.2,31l3.1,2.5l-4.2,1.4
		L32.2,31z"/>
	<polygon class="st0" points="49.7,48.7 49.7,47.9 44.4,47.9 44.4,44.3 45.7,45.4 46.2,44.8 44,42.7 41.8,44.8 42.4,45.4 43.6,44.3 
		43.6,48.7 	"/>
	<path class="st0" d="M50.9,49.9l0.8,0.8H40.4v-7.4c1.4-0.5,2.2-1.4,2.8-2.2c1.1,0.6,2.5,0.9,3.8,0.9c4.6,0,8.4-3.8,8.4-8.4
		c0-4.6-3.8-8.4-8.4-8.4c-0.4,0-1,0.1-1.5,0.2c-1.1-3.4-4.3-5.7-8-5.7c-3.5,0-6.6,2.2-7.8,5.4c-0.5-0.1-1-0.2-1.4-0.2
		c-3.4,0-5.1,2.4-5.5,4.8c-2.5,0.8-4.2,3.1-4.2,5.7c0,3.3,2.7,6,6,6c0.7,0,1.3-0.1,1.9-0.3c1,1,2.3,1.5,3.6,1.5c1.1,0,2.1-0.3,3-1
		c0.2,0.2,0.3,0.3,0.5,0.5v8.8H22.2l0.8-0.8l-1.1-1.3l-2.8,2.9l2.8,2.8l1.2-1.2l-0.8-0.8h13V43c0.9,0.4,1.8,0.7,2.7,0.7
		c0.3,0,0.6,0,0.8-0.1v8.7h13L51,53.2l1.2,1.2l2.8-2.8l-2.9-2.8L50.9,49.9z M25.1,38.7c0.1,0.3,0.2,0.6,0.3,0.9
		c-0.3,0.1-0.6,0.1-0.9,0.1c-2.3,0-4.3-2-4.3-4.3c0-2,1.5-3.8,3.5-4.2l0.6-0.1v-0.7c0,0,0.2-3.8,4-3.8c0.3,0,0.6,0.1,1,0.1
		c-0.1,0.5-0.1,1-0.1,1.5v0.4h1.6V28c0-0.7,0.1-1.2,0.2-1.8c0.8-3,3.5-5,6.5-5c3.1,0,5.9,2.2,6.6,5.3l0.2,0.8l0.7-0.2
		c0,0,1.3-0.3,1.9-0.3c3.8,0,6.8,3.1,6.8,6.8s-3,6.8-6.8,6.8c-1.3,0-2.6-0.4-3.7-1.1l-0.9-0.5l-0.3,1c-0.2,0.5-1.3,2.3-4.1,2.3
		c-2.4,0-3.8-1.8-4-2.1l-0.6-1l-0.7,0.7c-0.7,0.7-1.6,1.1-2.6,1.1c-1.6,0-3-1-3.4-2.6l-0.1-0.4L25,38.3L25.1,38.7z"/>
	<polygon class="st0" points="24.2,47.9 24.2,48.7 30.3,48.7 30.3,44.3 31.6,45.4 32.1,44.8 29.9,42.7 27.7,44.8 28.3,45.4 
		29.5,44.3 29.5,47.9 	"/>
</g>
</svg>
