<?xml version="1.0" encoding="utf-8"?>
<!-- Generator: Adobe Illustrator 21.0.2, SVG Export Plug-In . SVG Version: 6.00 Build 0)  -->
<svg version="1.1" id="Layer_1" xmlns="http://www.w3.org/2000/svg" xmlns:xlink="http://www.w3.org/1999/xlink" x="0px" y="0px"
	 viewBox="0 0 75 75" style="enable-background:new 0 0 75 75;" xml:space="preserve">
<style type="text/css">
	.st0{fill:none;stroke:#006FAF;stroke-width:2;stroke-miterlimit:10;}
	.st1{fill:#006FAF;}
</style>
<circle class="st0" cx="37.5" cy="37.5" r="36"/>
<g>
	<path class="st1" d="M52,34.8c-0.7-0.4-1-0.8-1-1.6c-0.4-4.6-4-8.6-8.4-9.2c-4.9-0.7-9.4,1.6-11.3,6c-0.4,1-0.7,1.3-1.8,1
		c-3.3-0.7-6.1,0.4-8.2,3.1c-2,2.6-2.2,5.5-0.8,8.4c1.5,3.1,4,4.6,7.4,4.6c2.9,0,3.6,0,6.5,0v-2.2c-2.8,0-3.5,0-6.3,0
		c-2.7,0-4.8-1.4-5.7-3.9c-0.9-2.2-0.3-4.8,1.5-6.5c1.9-1.7,4.3-2.1,6.7-1c1.6,0.7,1.9,0.5,2.3-1.2c1-4.2,4.7-6.9,9-6.4
		c4.1,0.5,7.1,4.1,7.1,8.3c0,1,0,1.6,1.2,1.9c2.3,0.7,3.5,2.6,3.3,4.8c-0.2,2.2-2,3.8-4.5,3.9c-3.4,0.1-4.7,0-8.1,0v2.2
		c3.5,0,4.8,0,8.3,0c3.1-0.1,5.7-2.2,6.3-4.9C56,39.1,54.8,36.2,52,34.8z"/>
	<path class="st1" d="M41.7,36.6l-3.6-3.5c-0.2-0.2-0.4-0.3-0.7-0.3s-0.5,0.1-0.7,0.3l-3.6,3.5c-0.4,0.4-0.4,1,0,1.3
		c0.4,0.4,1,0.4,1.3,0l1.9-1.9v8.9v1.2v1v3.2c0,0.5,0.4,1,1,1s1-0.4,1-1v-3.2v-1v-1.2V36l1.9,1.9c0.4,0.4,1,0.4,1.3,0
		C42.1,37.6,42.1,37,41.7,36.6z"/>
</g>
</svg>
