<?xml version="1.0" encoding="utf-8"?>
<!-- Generator: Adobe Illustrator 21.0.2, SVG Export Plug-In . SVG Version: 6.00 Build 0)  -->
<svg version="1.1" id="Layer_1" xmlns="http://www.w3.org/2000/svg" xmlns:xlink="http://www.w3.org/1999/xlink" x="0px" y="0px"
	 viewBox="0 0 74 74" style="enable-background:new 0 0 74 74;" xml:space="preserve">
<style type="text/css">
	.st0{fill:none;stroke:#006FAF;stroke-width:2;stroke-miterlimit:10;}
	.st1{fill:#006FAF;}
</style>
<title>Cloud &amp;amp; Infrastructure Services</title>
<circle class="st0" cx="37" cy="37" r="36"/>
<g>
	<path class="st1" d="M53.2,39.1l-4.4-1.5c0,0-0.1,0-0.1,0v-9.1c0-1.4-1.1-2.5-2.5-2.5h-0.4C45.5,25.3,45,25,44.4,25h-1.9
		c-0.6,0-1.1,0.3-1.4,0.9h-0.6v-1c0-1.1-0.9-2.1-1.9-2.1h-8.6c-1.1,0-1.9,0.9-1.9,2.1v1h-0.6C27.1,25.3,26.5,25,26,25H24
		c-0.6,0-1.1,0.3-1.4,0.9h-0.4c-1.4,0-2.5,1.1-2.5,2.5v16c0,1.4,1.1,2.5,2.5,2.5h19.2v0.2c0,3,4.8,3.8,5.7,4c0.2,0,0.5,0,0.7,0
		c0.3,0,0.5,0,0.7,0c0.6-0.1,5.7-1,5.7-4v-6.4C54.3,40.1,53.9,39.4,53.2,39.1z M47.4,49.5c-1.4-0.2-4.3-1.1-4.3-2.4v-6.4
		c0,0,0-0.1,0.1-0.1l4.6-1.6c0,0,0,0,0.1,0c0.1,0,0.1,0,0.2,0.1l4.4,1.5c0,0,0.1,0.1,0.1,0.2l0,6.4c0,1.3-3,2.2-4.3,2.4
		c-0.1,0-0.3,0-0.5,0C47.7,49.6,47.6,49.5,47.4,49.5z M41.5,40.7v4.6H22.2c-0.5,0-0.9-0.4-0.9-0.9v-9.1c0.8,0.5,1.8,1,2.8,1.4
		c1.7,0.7,3.8,0.8,6.6,0.9v2.2c0,1,0.8,1.8,1.8,1.8h3.5c1,0,1.8-0.8,1.8-1.8v-2.2c2.7,0,4.7-0.2,6.4-0.8c1.1-0.4,2.1-0.9,2.9-1.4
		v2.1l-4.7,1.6C41.9,39.4,41.5,40.1,41.5,40.7z M38.8,25.9h-9.2v-1c0-0.2,0.1-0.4,0.3-0.4h8.6c0.2,0,0.3,0.2,0.3,0.4V25.9z
		 M42.3,27.5l0.1-0.7c0-0.1,0.1-0.2,0.1-0.2l1.9,0c0,0,0.1,0.1,0.1,0.2l0.1,0.7h1.6c0.5,0,0.9,0.4,0.9,0.9v5c-1,0.7-2.1,1.4-3.5,1.9
		c-1.5,0.5-3.3,0.7-5.9,0.7v-1c0-1-0.8-1.8-1.8-1.8h-3.5c-1,0-1.8,0.8-1.8,1.8v1c-2.6,0-4.5-0.2-6-0.8c-1.3-0.5-2.4-1.1-3.4-1.9v-5
		c0-0.5,0.4-0.9,0.9-0.9h1.6l0.1-0.7c0-0.1,0.1-0.2,0.1-0.2l1.9,0c0,0,0.1,0.1,0.1,0.2l0.1,0.7H42.3z M36.1,35v4.9
		c0,0.1-0.1,0.1-0.1,0.1h-3.5c-0.1,0-0.1-0.1-0.1-0.1V35c0-0.1,0.1-0.1,0.1-0.1h3.5C36,34.9,36.1,34.9,36.1,35z"/>
	<rect x="47.2" y="40.3" class="st1" width="1.4" height="8"/>
</g>
</svg>
