<?xml version="1.0" encoding="utf-8"?>
<!-- Generator: Adobe Illustrator 21.0.2, SVG Export Plug-In . SVG Version: 6.00 Build 0)  -->
<svg version="1.1" id="Layer_1" xmlns="http://www.w3.org/2000/svg" xmlns:xlink="http://www.w3.org/1999/xlink" x="0px" y="0px"
	 viewBox="0 0 74 74" style="enable-background:new 0 0 74 74;" xml:space="preserve">
<style type="text/css">
	.st0{fill:none;stroke:#006FAF;stroke-width:2;stroke-miterlimit:10;}
	.st1{fill:#006FAF;}
</style>
<title>Cloud &amp;amp; Infrastructure Services</title>
<circle class="st0" cx="37" cy="37" r="36"/>
<g>
	<circle class="st1" cx="24" cy="50.3" r="1.3"/>
	<path class="st1" d="M54.7,23l-2.9-2.9c-0.2-0.2-0.4-0.3-0.6-0.3c-0.2,0-0.5,0.1-0.6,0.3c-0.2,0.2-0.3,0.4-0.3,0.6
		c0,0.3,0.1,0.4,0.3,0.6l1.4,1.3H19v1.8h9.9v29.8h1.8V24.4h21.3l-1.5,1.5c-0.2,0.2-0.3,0.4-0.3,0.7c0,0.2,0.1,0.5,0.3,0.7
		c0.2,0.2,0.4,0.3,0.6,0.3c0.2,0,0.5-0.1,0.6-0.3l2.9-2.9c0.2-0.2,0.3-0.4,0.3-0.7C55,23.4,54.9,23.2,54.7,23z"/>
	<path class="st1" d="M47,35.2h-7.8v3.3H47V35.2z M40.4,37.4v-0.9h5.4v0.9H40.4z"/>
	<path class="st1" d="M46.1,28.6H31.6v3.3h14.4V28.6z M32.8,30.7v-0.9h12.1v0.9H32.8z"/>
	<path class="st1" d="M46.7,51.5h6.6v-3.3h-6.6V51.5z M52.1,49.4v0.9h-4.2v-0.9H52.1z"/>
	<path class="st1" d="M50.6,41.9H39.5v3.3h11.1V41.9z M40.7,44v-0.9h8.7V44H40.7z"/>
	<path class="st1" d="M26.4,27.9c-0.2,0-0.5,0.1-0.6,0.3l-2.1,2.1l-1.2-1.1c-0.2-0.2-0.4-0.3-0.6-0.3c-0.2,0-0.5,0.1-0.6,0.3
		c-0.4,0.4-0.4,0.9,0,1.3l1.8,1.8c0.2,0.2,0.4,0.3,0.6,0.3c0.2,0,0.5-0.1,0.6-0.3l2.8-2.8c0.2-0.2,0.2-0.4,0.2-0.6
		c0-0.2-0.1-0.5-0.3-0.6C26.9,28,26.7,27.9,26.4,27.9z"/>
	<path class="st1" d="M26.4,41.2c-0.2,0-0.5,0.1-0.6,0.3l-2.1,2.1l-1.2-1.1c-0.2-0.2-0.4-0.3-0.6-0.3c-0.2,0-0.5,0.1-0.6,0.3
		c-0.4,0.4-0.4,0.9,0,1.3l1.8,1.8c0.2,0.2,0.4,0.3,0.6,0.3c0.2,0,0.5-0.1,0.6-0.3l2.8-2.8c0.3-0.3,0.3-0.9,0-1.3
		C26.9,41.3,26.7,41.2,26.4,41.2z"/>
	<path class="st1" d="M26.4,34.6c-0.2,0-0.5,0.1-0.6,0.3l-2.1,2.1l-1.2-1.1c-0.2-0.2-0.4-0.3-0.6-0.3c-0.2,0-0.5,0.1-0.6,0.3
		C21.1,36,21,36.2,21,36.4c0,0.2,0.1,0.5,0.3,0.6l1.8,1.8c0.2,0.2,0.4,0.3,0.6,0.3c0.2,0,0.5-0.1,0.6-0.3l2.8-2.8
		c0.2-0.2,0.2-0.4,0.2-0.6c0-0.2-0.1-0.5-0.3-0.6C26.9,34.6,26.7,34.6,26.4,34.6z"/>
	<path class="st1" d="M37.7,35.2c-0.1-0.1-0.3-0.2-0.4-0.2c-0.2,0-0.3,0.1-0.4,0.2c-0.2,0.2-0.2,0.7,0,0.9l0.4,0.4h-0.3
		c-0.8,0-1.5-0.7-1.6-1.5v-3h-1.2v3c0.1,1.4,1.4,2.7,2.8,2.7h0.3l-0.2,0.2c-0.1,0.1-0.2,0.3-0.2,0.4c0,0.1,0.1,0.3,0.2,0.4
		c0.1,0.1,0.3,0.2,0.4,0.2c0.1,0,0.3-0.1,0.4-0.2l1.4-1.4l0-0.1c0.1-0.3,0.1-0.5-0.1-0.7L37.7,35.2z"/>
	<path class="st1" d="M45.2,48.4c-0.1-0.1-0.3-0.2-0.4-0.2c-0.2,0-0.3,0.1-0.4,0.2c-0.2,0.2-0.2,0.7,0,0.9l0.4,0.4h-0.3
		c-0.8,0-1.5-0.7-1.6-1.5v-3h-1.2v3c0.1,1.4,1.4,2.7,2.8,2.7h0.3l-0.2,0.2c-0.1,0.1-0.2,0.3-0.2,0.4c0,0.1,0.1,0.3,0.2,0.4
		c0.1,0.1,0.3,0.2,0.4,0.2c0.1,0,0.3-0.1,0.4-0.2l1.4-1.4l0-0.1c0.1-0.3,0.1-0.5-0.1-0.7L45.2,48.4z"/>
	<path class="st1" d="M43.7,38.6l-0.3,0.1v1.2l-0.2-0.2c-0.1-0.1-0.3-0.2-0.4-0.2c-0.1,0-0.3,0.1-0.4,0.2c-0.1,0.1-0.2,0.3-0.2,0.4
		s0.1,0.3,0.2,0.4l1.4,1.4c0.1,0.1,0.2,0.1,0.4,0.1c0.2,0,0.3-0.1,0.4-0.2l1.3-1.3c0.2-0.2,0.2-0.6,0-0.8c-0.1-0.1-0.3-0.2-0.4-0.2
		c-0.2,0-0.3,0.1-0.4,0.2l-0.4,0.4v-1.3H43.7z"/>
</g>
</svg>
