<?xml version="1.0" encoding="utf-8"?>
<!-- Generator: Adobe Illustrator 21.0.2, SVG Export Plug-In . SVG Version: 6.00 Build 0)  -->
<svg version="1.1" id="Layer_1" xmlns="http://www.w3.org/2000/svg" xmlns:xlink="http://www.w3.org/1999/xlink" x="0px" y="0px"
	 viewBox="0 0 74 74" style="enable-background:new 0 0 74 74;" xml:space="preserve">
<style type="text/css">
	.st0{fill:#006FAF;}
</style>
<title>Cloud &amp;amp; Infrastructure Services</title>
<path class="st0" d="M37,74C16.6,74,0,57.4,0,37C0,16.6,16.6,0,37,0c20.4,0,37,16.6,37,37C74,57.4,57.4,74,37,74z M37,2
	C17.7,2,2,17.7,2,37s15.7,35,35,35s35-15.7,35-35S56.3,2,37,2z"/>
<path class="st0" d="M27.3,44.8c-4.3,0-7.8-2.9-8.4-6.8c-0.6-4.2,1.7-7.9,5.7-9.1c0.8-0.2,1.5-0.4,2.3-0.4s1.5,0.1,2.3,0.4
	c0.2,0.1,0.4,0.1,0.6,0.1c0.2,0,0.4-0.1,0.6-0.6c1.5-4.3,5.3-6.9,9.9-6.9c0.3,0,0.7,0,1,0c4.6,0.4,8.4,4,9,8.6
	c0.2,1.4,0.7,2.1,1.9,2.9c1.8,1.1,2.9,3,2.9,5.2c0.1,2.2-1,4.2-2.7,5.4l-0.2,0.1c-0.3,0.2-0.6,0.3-0.9,0.3l0,0
	c-0.3,0-0.5-0.1-0.7-0.4c-0.2-0.2-0.2-0.5-0.2-0.7c0.1-0.4,0.4-0.6,0.8-0.9c1.6-1.1,2.3-2.7,2-4.6c-0.3-1.9-1.5-3.1-3.3-3.6
	c-1.2-0.3-1.2-1-1.2-1.9c0.1-3.6-1.6-6.3-4.8-7.8c-1.3-0.6-2.5-0.9-3.8-0.9c-1.8,0-3.6,0.7-5.2,2c-1.5,1.2-2.5,2.8-2.9,4.9
	c-0.2,0.9-0.4,1.4-0.9,1.4c-0.2,0-0.6-0.1-1.1-0.4C29,30.6,28,30.4,27,30.4c-1.5,0-3,0.6-4.1,1.6c-1.9,1.8-2.6,4.5-1.7,6.8
	c1,2.5,3.2,4,6,4.1h1.4c0.7,0,1.1,0.4,1.1,1c0,0.4-0.2,0.9-1.2,0.9H27.3z"/>
<path class="st0" d="M37.9,52.6c-1.5,0-2.7-1-2.9-2.5c-0.2-0.9-0.7-1.4-1.5-1.4l-0.3,0c-1.1,0-1.4-0.7-1.7-1.5
	c-0.4-0.9-0.7-1.8,0.2-2.7c0.3-0.3,0.5-0.7,0.5-1c0-0.4-0.2-0.8-0.6-1.1c-0.9-0.8-0.6-1.6-0.3-2.5c0.3-0.7,0.6-1.6,1.7-1.6l0.1,0
	c1.1,0,1.7-0.6,1.7-1.7c-0.1-1.1,0.7-1.5,1.4-1.8l0.1,0c0.4-0.2,0.9-0.4,1.3-0.4c0.4,0,0.8,0.2,1.1,0.5c0.4,0.4,0.8,0.6,1.2,0.6
	c0.4,0,0.8-0.2,1.2-0.6c0.4-0.4,0.7-0.5,1.2-0.5c0.4,0,0.8,0.1,1.2,0.3l0.2,0.1c0.7,0.3,1.4,0.6,1.4,1.7c0.1,1.2,0.5,1.6,1.8,1.7
	c1.1,0.1,1.4,0.9,1.7,1.6c0.4,0.8,0.7,1.6-0.1,2.4c-0.5,0.5-0.7,0.9-0.7,1.2c0,0.3,0.2,0.7,0.8,1.2c0.8,0.8,0.5,1.6,0.2,2.3
	l-0.1,0.1l0.1,0c-0.3,0.7-0.6,1.5-1.7,1.5l-0.2,0c-1,0-1.6,0.6-1.6,1.7c0,1.2-0.8,1.5-1.6,1.8l-0.1,0c-0.4,0.2-0.8,0.3-1.3,0.3
	c-0.4,0-0.8-0.2-1.2-0.6c-0.4-0.4-0.7-0.5-1.1-0.5c-0.4,0-0.8,0.2-1.2,0.6C38.6,52.4,38.2,52.6,37.9,52.6z M40.1,49.6
	c0.7,0,1.3,0.2,1.9,0.6c0.1,0.1,0.2,0.1,0.3,0.2c0.1,0.1,0.2,0.1,0.3,0.2l0.1-0.1c0.4-0.1,0.6-0.2,0.6-0.6c0.2-1.7,1.3-2.8,3-3.1
	c0.3,0,0.6-0.1,0.7-0.4c0.1-0.2,0-0.5-0.2-0.8c-1-1.4-1-2.8-0.1-4.3c0.3-0.4,0.3-0.6,0.3-0.8s-0.3-0.3-0.8-0.4
	c-1.5-0.2-2.5-1.2-2.9-2.8c-0.2-0.8-0.4-0.9-0.6-0.9c-0.2,0-0.4,0.1-0.8,0.3c-0.6,0.4-1.3,0.6-2,0.6s-1.3-0.2-2-0.6
	c-0.4-0.2-0.6-0.3-0.8-0.3c-0.2,0-0.4,0.1-0.6,0.8c-0.4,1.6-1.3,2.6-2.9,2.8c-0.4,0.1-0.7,0.3-0.8,0.4c-0.1,0.2,0,0.5,0.2,0.8
	c0.9,1.3,0.9,2.6,0.1,4c-0.3,0.5-0.4,0.7-0.3,0.9c0.1,0.2,0.3,0.3,0.9,0.4c1.5,0.3,2.4,1.3,2.8,2.8c0.2,0.8,0.4,0.9,0.6,0.9
	c0.2,0,0.4-0.1,0.8-0.3C38.8,49.8,39.4,49.6,40.1,49.6z"/>
<path class="st0" d="M40.3,40c-1.9-0.1-3.6,1.4-3.6,3.4c-0.1,2,1.4,3.6,3.4,3.6c2,0.1,3.6-1.4,3.6-3.4C43.8,41.7,42.3,40.1,40.3,40z
	 M40.3,45.4c-1.1,0.1-1.9-0.8-1.9-1.8c0-1,0.8-1.8,1.8-1.9c1.1-0.1,1.9,0.8,1.9,1.9C42.1,44.5,41.3,45.4,40.3,45.4z"/>
</svg>
