<?xml version="1.0" encoding="utf-8"?>
<!-- Generator: Adobe Illustrator 21.0.2, SVG Export Plug-In . SVG Version: 6.00 Build 0)  -->
<svg version="1.1" id="Layer_1" xmlns="http://www.w3.org/2000/svg" xmlns:xlink="http://www.w3.org/1999/xlink" x="0px" y="0px"
	 viewBox="0 0 75 75" style="enable-background:new 0 0 75 75;" xml:space="preserve">
<style type="text/css">
	.st0{fill:none;stroke:#006FAF;stroke-width:2;stroke-miterlimit:10;}
	.st1{fill:#006FAF;}
	.st2{fill:none;stroke:#006FAF;stroke-width:2;stroke-linecap:round;stroke-miterlimit:10;}
	.st3{fill:none;stroke:#006FAF;stroke-width:2;stroke-linejoin:round;stroke-miterlimit:10;}
</style>
<circle class="st0" cx="37.5" cy="37.5" r="36"/>
<g>
	<path class="st1" d="M32.6,27.8l-0.3-0.5c-0.8,0.4-1.4,1-2,1.6L28.5,26h-5.7v-0.6H21v1.8h1.8v-0.6h5.3l1.7,2.8
		c-0.6,0.6-1,1.3-1.4,2L26.7,29h-1.4v-0.6h-1.8v1.8h1.8v-0.6h1.1l1.7,2.3l0,0c-0.3,0.6-0.5,1.3-0.7,2h-2L24.2,32h-1.4v-0.6H21v1.8
		h1.8v-0.6h1.1l1.2,1.8h2.2c-0.1,0.8-0.2,1.6-0.1,2.4h-2.1l-1.2,2.4h-1v-0.6H21v1.8h1.8V40h1.4l1.2-2.4h1.7c0.2,1.4,0.6,2.7,1.3,4
		l0.5-0.3C26.3,36.5,27.9,30.5,32.6,27.8z M22.2,26.5h-0.6v-0.6h0.6V26.5z M24.7,29.6h-0.6V29h0.6V29.6z M22.2,32.6h-0.6V32h0.6
		V32.6z M22.2,40h-0.6v-0.6h0.6V40z"/>
	<path class="st1" d="M54,33.9V32h-1.8v0.6h-1.4L49.6,35h-1.7c-0.2-1.4-0.6-2.7-1.3-4L46,31.4c2.7,4.7,1.1,10.7-3.6,13.4l0.3,0.5
		c0.8-0.4,1.4-1,2-1.5l1.8,3.5h5.7v0.6H54v-1.8h-1.8v0.6h-5.3l-1.7-3.4c0.6-0.6,1-1.3,1.4-2l1.8,2.9h1.4v0.6h1.8V43h-1.8v0.6h-1
		l-1.7-2.9H47c0.3-0.6,0.5-1.3,0.7-2h2l1.2,2.4h1.4v0.6H54V40h-1.8v0.6h-1L50,38.2h-2.2c0.1-0.8,0.2-1.6,0.1-2.4H50l1.2-2.4h1V34
		L54,33.9L54,33.9z M52.8,32.6h0.6v0.6h-0.6V32.6z M52.8,46.7L52.8,46.7h0.6v0.6h-0.6V46.7z M50.3,43.6h0.6v0.6h-0.6V43.6z
		 M52.8,40.6L52.8,40.6h0.6v0.6h-0.6V40.6z"/>
	<path class="st2" d="M34.1,45.6v1.8c0,0.5,0.4,0.9,0.9,0.9h4.5c0.5,0,0.9-0.4,0.9-0.9v-1.8H34.1z"/>
	<path class="st3" d="M40.5,45.6c0-0.5,0-1.8,0-2.7c0-2.4,3.2-2.5,3.2-6.8c0-3.5-2.8-6.3-6.3-6.3S31,32.6,31,36.1
		c0,4.4,3.2,4.8,3.2,6.8c0,0.6,0,2.7,0,2.7"/>
	<path class="st2" d="M38.6,48.3c0,0.7-0.6,1.4-1.4,1.4c-0.7,0-1.4-0.6-1.4-1.4"/>
	<line class="st0" x1="37.3" y1="38.4" x2="37.3" y2="44.3"/>
	<polyline class="st2" points="35.5,36.6 37.3,38.4 39.1,36.6 	"/>
</g>
</svg>
