<?xml version="1.0" encoding="utf-8"?>
<!-- Generator: Adobe Illustrator 21.0.2, SVG Export Plug-In . SVG Version: 6.00 Build 0)  -->
<svg version="1.1" id="Layer_1" xmlns="http://www.w3.org/2000/svg" xmlns:xlink="http://www.w3.org/1999/xlink" x="0px" y="0px"
	 viewBox="0 0 74 74" style="enable-background:new 0 0 74 74;" xml:space="preserve">
<style type="text/css">
	.st0{fill:none;stroke:#006FAF;stroke-width:2;stroke-miterlimit:10;}
</style>
<g id="iot-connected-platform-deployment">
	<g id="Layer_13">
	</g>
</g>
<g id="core-iot-services">
</g>
<g id="Application-and-business-logic">
</g>
<g id="Device-connectivity-and-_security">
</g>
<g id="Device-management">
</g>
<circle class="st0" cx="37.1" cy="37" r="36"/>
<g>
	<circle class="st0" cx="23.9" cy="33.6" r="3.9"/>
	<path class="st0" d="M23.8,39.1c-6.5,0-8.3,1-8.3,2.3c0,1,0,3.5,0,3.5h16.9c0,0,0-2.5,0-3.5C32.4,40.5,31.4,39.1,23.8,39.1z"/>
	<circle class="st0" cx="52.8" cy="26.2" r="2.5"/>
	<path class="st0" d="M52.7,29.7c-4.1,0-5.4,0.6-5.4,1.4c0,0.6,0,2.6,0,2.6h11.2c0,0,0-2,0-2.6C58.5,30.6,57.6,29.7,52.7,29.7z"/>
	<circle class="st0" cx="52.8" cy="43.1" r="2.5"/>
	<path class="st0" d="M52.7,46.6c-4.1,0-5.4,0.6-5.4,1.4c0,0.6,0,2.3,0,2.3h11.2c0,0,0-1.7,0-2.3C58.5,47.5,57.6,46.6,52.7,46.6z"/>
	<path class="st0" d="M40.6,46.3V30.5h3.7"/>
	<path class="st0" d="M40.7,45.3h3.7"/>
	<line class="st0" x1="40.6" y1="38.2" x2="34.9" y2="38.2"/>
</g>
<g id="Connected-products_1_">
</g>
<g id="Connected-systems_1_">
</g>
<g id="Data-driven-connected-business_1_">
</g>
<g id="Azure-iot-hub_1_">
</g>
<g id="Expertise-and-experience_1_">
</g>
<g id="Domain-and-_subject">
</g>
</svg>
