<?xml version="1.0" encoding="utf-8"?>
<!-- Generator: Adobe Illustrator 21.0.2, SVG Export Plug-In . SVG Version: 6.00 Build 0)  -->
<svg version="1.1" id="Layer_1" xmlns="http://www.w3.org/2000/svg" xmlns:xlink="http://www.w3.org/1999/xlink" x="0px" y="0px"
	 viewBox="0 0 74 74" style="enable-background:new 0 0 74 74;" xml:space="preserve">
<style type="text/css">
	.st0{fill:none;stroke:#006FAF;stroke-width:2;stroke-miterlimit:10;}
	.st1{fill:#006FAF;}
</style>
<title>Cloud &amp;amp; Infrastructure Services</title>
<circle class="st0" cx="37" cy="37" r="36"/>
<g>
	<path class="st1" d="M43.1,49.6C43.1,49.6,43.1,49.6,43.1,49.6l-15.6-0.1V32.8h5.2c0.4,0,0.6-0.3,0.6-0.6s-0.3-0.6-0.6-0.6h-6.5
		v19.4h16.2c0-0.3,0.1-0.5,0.3-0.8L43.1,49.6z"/>
	<path class="st1" d="M46.4,53.1l-0.1-0.6c-0.2-0.1-0.4-0.2-0.6-0.2l-0.5,0.4c-0.2,0.2-0.5,0.3-0.7,0.3c-0.3,0-0.6-0.1-0.8-0.4
		l-0.4-0.4H22.4c-0.7,0-1.3-0.6-1.3-1.3v-1.3H25V32.8h-3.9v-1.3c0-0.7,0.6-1.3,1.3-1.3h12.9c0.4,0,0.6-0.3,0.6-0.6
		c0-0.4-0.3-0.6-0.6-0.6H22.4c-1.4,0-2.6,1.2-2.6,2.6v1.3v16.8v1.3c0,1.4,1.2,2.6,2.6,2.6h24.1C46.5,53.3,46.4,53.2,46.4,53.1z
		 M23.7,48.3h-2.6v-3.9h2.6V48.3z M23.7,43.1h-2.6v-3.9h2.6V43.1z M23.7,34.1v3.9h-2.6v-3.9H23.7z"/>
	<path class="st1" d="M50,41.2l0.1,0.6c0.2,0.1,0.4,0.1,0.6,0.2l0.1-0.1V31.5c0-1.4-1.2-2.6-2.6-2.6c-0.4,0-0.6,0.3-0.6,0.6
		c0,0.4,0.3,0.6,0.6,0.6c0.7,0,1.3,0.6,1.3,1.3v8.9c0,0,0.1,0,0.1,0.1C49.9,40.7,50,40.9,50,41.2z"/>
	<path class="st1" d="M48.2,40.2v-8.7h-2.6c-0.4,0-0.6,0.3-0.6,0.6s0.3,0.6,0.6,0.6h1.3v7.6c0.2-0.1,0.4-0.2,0.7-0.2H48.2z"/>
	<path class="st1" d="M50.7,21.3c-1-1-2.7-1-3.7,0l-0.9,0.9l0,0L35.4,32.9l-1.3,4L33,38.1c-0.3,0.3-0.3,0.7,0,0.9
		c0.1,0.1,0.3,0.2,0.5,0.2c0.2,0,0.3-0.1,0.5-0.2l1.2-1.2l4-1.3l0.1-0.1l6.9-6.9l0,0l4.6-4.6C51.7,23.9,51.7,22.3,50.7,21.3z
		 M35.7,36.3l0.6-1.8l1.2,1.2L35.7,36.3z M38.7,35.1l-1.8-1.8l6-6l1.8,1.8L38.7,35.1z M45.7,28.2l-1.8-1.8l2.7-2.7l1.8,1.8
		L45.7,28.2z M49.8,24l-0.5,0.5l-1.8-1.8l0.5-0.5c0.5-0.5,1.3-0.5,1.8,0C50.3,22.7,50.3,23.5,49.8,24z"/>
	<g>
		<path class="st1" d="M48.2,47c0,0-0.1,0-0.1,0c0,0-0.2,0.1-0.2,0.2c0,0.1,0.1,0.2,0.1,0.2c0,0,0.1,0,0.1,0c0.1,0,0.2,0,0.2-0.1
			c0,0,0.1-0.1,0.1-0.2c0-0.1,0-0.1-0.1-0.2C48.4,47,48.3,47,48.2,47z"/>
		<path class="st1" d="M48.9,44.6c-0.2-0.1-0.5-0.1-0.8-0.1c-0.2,0-0.3,0-0.5,0c-0.6,0.1-1.1,0.4-1.5,0.8c-0.5,0.5-0.8,1.2-0.8,2
			c0,0.8,0.3,1.5,0.8,2c0.4,0.4,0.8,0.6,1.3,0.7c0.2,0,0.4,0.1,0.6,0.1c0.2,0,0.5,0,0.7-0.1c0.5-0.1,0.9-0.4,1.3-0.7
			c0.5-0.5,0.8-1.2,0.8-2c0-0.8-0.3-1.5-0.8-2C49.8,45,49.4,44.7,48.9,44.6z M48.9,48c-0.2,0.2-0.5,0.3-0.8,0.3
			c-0.2,0-0.3,0-0.5-0.1c-0.3-0.2-0.6-0.5-0.6-0.9c0-0.4,0.2-0.8,0.6-0.9c0.1-0.1,0.3-0.1,0.5-0.1c0.3,0,0.6,0.1,0.8,0.3
			c0.2,0.2,0.3,0.4,0.3,0.7C49.2,47.5,49.1,47.8,48.9,48z"/>
		<path class="st1" d="M54,46.4l-1.3-0.1c-0.1-0.6-0.3-1.1-0.7-1.6l0.8-1c0.1-0.1,0.1-0.2,0-0.2L52,42.6c-0.1-0.1-0.2-0.1-0.2,0
			l-1,0.8c-0.5-0.3-1-0.5-1.6-0.7L49,41.4c0,0,0-0.1-0.1-0.1c0,0-0.1,0-0.1,0h-1.1h-0.2c-0.1,0-0.2,0.1-0.2,0.2l-0.1,1.3
			c-0.6,0.1-1.1,0.3-1.6,0.7l-1-0.8c-0.1-0.1-0.2,0-0.2,0l-0.9,0.9c-0.1,0.1-0.1,0.2,0,0.2l0.8,1c-0.3,0.5-0.5,1-0.7,1.6l-1.3,0.1
			c-0.1,0-0.2,0.1-0.2,0.2v1.3c0,0.1,0.1,0.2,0.2,0.2l1.3,0.1c0.1,0.6,0.3,1.1,0.6,1.5l-0.5,0.6l-0.3,0.3c0,0,0,0.1,0,0.1l0,0
			c-0.1,0.1,0,0.2,0,0.2l0.6,0.6l0,0l0.2,0.2c0.1,0.1,0.2,0.1,0.2,0l0.3-0.3l0,0l0.7-0.5c0.3,0.2,0.7,0.4,1.1,0.5c0,0,0,0,0,0
			c0.2,0,0.3,0.1,0.5,0.1l0.1,1.3c0,0.1,0.1,0.2,0.2,0.2l1.3,0c0.1,0,0.2-0.1,0.2-0.2l0.1-1.3c0.2,0,0.3-0.1,0.5-0.1
			c0.4-0.1,0.8-0.3,1.1-0.5l0.7,0.5l0.3,0.3c0.1,0.1,0.2,0.1,0.2,0l0.2-0.2l0.6-0.6c0.1-0.1,0.1-0.2,0-0.2l-0.8-1
			c0.3-0.5,0.5-1,0.7-1.6l1.3-0.1c0.1,0,0.2-0.1,0.2-0.2v-1.3C54.2,46.5,54.1,46.5,54,46.4z M48.6,50.6c-0.1,0-0.3,0-0.4,0
			c-0.4,0-0.8-0.1-1.2-0.2c-1.3-0.5-2.2-1.7-2.2-3.1c0-1.7,1.3-3.1,2.9-3.3c0.2,0,0.3,0,0.5,0c0.3,0,0.5,0,0.8,0.1
			c1.5,0.3,2.6,1.7,2.6,3.3C51.6,49,50.3,50.4,48.6,50.6z"/>
	</g>
</g>
</svg>
