<?xml version="1.0" encoding="utf-8"?>
<!-- Generator: Adobe Illustrator 21.0.0, SVG Export Plug-In . SVG Version: 6.00 Build 0)  -->
<svg version="1.1" id="Layer_1" xmlns="http://www.w3.org/2000/svg" xmlns:xlink="http://www.w3.org/1999/xlink" x="0px" y="0px"
	 viewBox="0 0 465.8 55.4" style="enable-background:new 0 0 465.8 55.4;" xml:space="preserve">
<style type="text/css">
	.st0{fill:#9D742B;}
	.st1{fill:#FFFFFF;}
	.st2{fill:#E34E26;}
	.st3{fill:#6DBB45;}
	.st4{fill:#599DD5;}
	.st5{fill:#F2BF19;}
</style>
<g>
	<g>
		<path class="st0" d="M252.8,29.3v-1.6l5.7,0v5c-0.9,0.7-1.8,1.2-2.7,1.6c-0.9,0.4-1.9,0.5-2.9,0.5c-1.3,0-2.5-0.3-3.6-0.8
			s-1.9-1.4-2.4-2.4c-0.5-1.1-0.8-2.3-0.8-3.6c0-1.3,0.3-2.5,0.8-3.7c0.5-1.1,1.3-2,2.4-2.5c1-0.5,2.2-0.8,3.5-0.8
			c1,0,1.8,0.2,2.6,0.5s1.4,0.8,1.8,1.3c0.4,0.6,0.8,1.3,1,2.2l-1.6,0.4c-0.2-0.7-0.5-1.2-0.8-1.6c-0.3-0.4-0.7-0.7-1.3-0.9
			c-0.6-0.2-1.2-0.4-1.8-0.4c-0.8,0-1.5,0.1-2.1,0.4c-0.6,0.2-1.1,0.6-1.4,1c-0.4,0.4-0.6,0.8-0.8,1.3c-0.3,0.8-0.5,1.7-0.5,2.7
			c0,1.2,0.2,2.2,0.6,3c0.4,0.8,1,1.4,1.8,1.8c0.8,0.4,1.6,0.6,2.5,0.6c0.8,0,1.5-0.1,2.3-0.4s1.3-0.6,1.7-0.9v-2.5H252.8z"/>
		<path class="st0" d="M260.3,29.7c0-1.8,0.5-3.1,1.5-4c0.8-0.7,1.9-1.1,3.1-1.1c1.3,0,2.4,0.4,3.3,1.3c0.8,0.9,1.3,2.1,1.3,3.6
			c0,1.3-0.2,2.2-0.6,3c-0.4,0.7-0.9,1.3-1.6,1.7c-0.7,0.4-1.5,0.6-2.3,0.6c-1.4,0-2.5-0.4-3.3-1.3
			C260.7,32.6,260.3,31.4,260.3,29.7z M262,29.7c0,1.2,0.3,2.2,0.8,2.8c0.5,0.6,1.2,0.9,2.1,0.9c0.8,0,1.5-0.3,2-0.9
			c0.5-0.6,0.8-1.6,0.8-2.8c0-1.2-0.3-2.1-0.8-2.7c-0.5-0.6-1.2-0.9-2-0.9c-0.8,0-1.5,0.3-2.1,0.9C262.3,27.5,262,28.5,262,29.7z"/>
		<path class="st0" d="M271.3,34.6V21.1h1.6v13.4H271.3z"/>
		<path class="st0" d="M281.8,34.6v-1.2c-0.6,1-1.5,1.4-2.7,1.4c-0.8,0-1.5-0.2-2.1-0.6c-0.6-0.4-1.2-1-1.5-1.8
			c-0.4-0.8-0.5-1.6-0.5-2.6c0-1,0.2-1.9,0.5-2.6c0.3-0.8,0.8-1.4,1.5-1.8c0.6-0.4,1.4-0.6,2.2-0.6c0.6,0,1.1,0.1,1.6,0.4
			c0.5,0.2,0.8,0.6,1.1,1v-4.8h1.6v13.4H281.8z M276.6,29.7c0,1.2,0.3,2.2,0.8,2.8c0.5,0.6,1.1,0.9,1.9,0.9c0.7,0,1.3-0.3,1.8-0.9
			c0.5-0.6,0.8-1.5,0.8-2.7c0-1.3-0.3-2.3-0.8-2.9c-0.5-0.6-1.1-0.9-1.9-0.9c-0.7,0-1.3,0.3-1.8,0.9
			C276.9,27.5,276.6,28.4,276.6,29.7z"/>
		<path class="st0" d="M291.4,34.6V21.1h4.6c1,0,1.8,0.1,2.4,0.2c0.8,0.2,1.4,0.5,2,1c0.7,0.6,1.2,1.4,1.6,2.3
			c0.4,0.9,0.5,2,0.5,3.2c0,1-0.1,1.9-0.4,2.7s-0.5,1.4-0.9,2c-0.4,0.5-0.8,0.9-1.2,1.2c-0.4,0.3-1,0.5-1.6,0.7
			c-0.6,0.2-1.3,0.2-2.2,0.2H291.4z M293.2,33h2.9c0.9,0,1.6-0.1,2.1-0.2s0.9-0.4,1.2-0.7c0.4-0.4,0.7-1,1-1.7
			c0.2-0.7,0.4-1.6,0.4-2.6c0-1.4-0.2-2.5-0.7-3.2s-1-1.3-1.7-1.5c-0.5-0.2-1.2-0.3-2.3-0.3h-2.8V33z"/>
		<path class="st0" d="M311.1,33.4c-0.6,0.5-1.2,0.9-1.8,1.1s-1.2,0.3-1.8,0.3c-1.1,0-1.9-0.3-2.5-0.8c-0.6-0.5-0.9-1.2-0.9-2
			c0-0.5,0.1-0.9,0.3-1.3s0.5-0.7,0.9-0.9c0.4-0.2,0.7-0.4,1.2-0.5c0.3-0.1,0.8-0.2,1.5-0.2c1.3-0.2,2.3-0.3,2.9-0.6
			c0-0.2,0-0.4,0-0.4c0-0.7-0.2-1.1-0.5-1.4c-0.4-0.4-1-0.6-1.9-0.6c-0.8,0-1.3,0.1-1.7,0.4c-0.4,0.3-0.6,0.8-0.8,1.4l-1.6-0.2
			c0.1-0.7,0.4-1.2,0.7-1.7c0.3-0.4,0.8-0.8,1.5-1c0.6-0.2,1.4-0.3,2.2-0.3c0.8,0,1.5,0.1,2,0.3s0.9,0.4,1.1,0.7
			c0.2,0.3,0.4,0.7,0.5,1.1c0.1,0.3,0.1,0.8,0.1,1.5v2.2c0,1.5,0,2.5,0.1,2.9c0.1,0.4,0.2,0.8,0.4,1.2h-1.7
			C311.2,34.2,311.1,33.8,311.1,33.4z M310.9,29.7c-0.6,0.2-1.5,0.5-2.7,0.6c-0.7,0.1-1.2,0.2-1.4,0.3c-0.3,0.1-0.5,0.3-0.7,0.5
			c-0.2,0.2-0.2,0.5-0.2,0.8c0,0.4,0.2,0.8,0.5,1.1s0.8,0.4,1.5,0.4c0.6,0,1.2-0.1,1.7-0.4c0.5-0.3,0.9-0.7,1.1-1.1
			c0.2-0.4,0.3-0.9,0.3-1.6V29.7z"/>
		<path class="st0" d="M318.7,33.1l0.2,1.5c-0.5,0.1-0.9,0.1-1.2,0.1c-0.6,0-1.1-0.1-1.4-0.3c-0.3-0.2-0.6-0.4-0.7-0.7
			c-0.1-0.3-0.2-1-0.2-1.9v-5.6h-1.2v-1.3h1.2v-2.4l1.6-1v3.4h1.7v1.3h-1.7v5.7c0,0.5,0,0.8,0.1,0.9c0.1,0.1,0.2,0.2,0.3,0.3
			c0.1,0.1,0.3,0.1,0.6,0.1C318.2,33.2,318.4,33.1,318.7,33.1z"/>
		<path class="st0" d="M326.7,33.4c-0.6,0.5-1.2,0.9-1.8,1.1s-1.2,0.3-1.8,0.3c-1.1,0-1.9-0.3-2.5-0.8c-0.6-0.5-0.9-1.2-0.9-2
			c0-0.5,0.1-0.9,0.3-1.3s0.5-0.7,0.9-0.9c0.4-0.2,0.7-0.4,1.2-0.5c0.3-0.1,0.8-0.2,1.5-0.2c1.3-0.2,2.3-0.3,2.9-0.6
			c0-0.2,0-0.4,0-0.4c0-0.7-0.2-1.1-0.5-1.4c-0.4-0.4-1-0.6-1.9-0.6c-0.8,0-1.3,0.1-1.7,0.4c-0.4,0.3-0.6,0.8-0.8,1.4l-1.6-0.2
			c0.1-0.7,0.4-1.2,0.7-1.7c0.3-0.4,0.8-0.8,1.5-1c0.6-0.2,1.4-0.3,2.2-0.3c0.8,0,1.5,0.1,2,0.3s0.9,0.4,1.1,0.7
			c0.2,0.3,0.4,0.7,0.5,1.1c0.1,0.3,0.1,0.8,0.1,1.5v2.2c0,1.5,0,2.5,0.1,2.9c0.1,0.4,0.2,0.8,0.4,1.2H327
			C326.8,34.2,326.7,33.8,326.7,33.4z M326.6,29.7c-0.6,0.2-1.5,0.5-2.7,0.6c-0.7,0.1-1.2,0.2-1.4,0.3c-0.3,0.1-0.5,0.3-0.7,0.5
			c-0.2,0.2-0.2,0.5-0.2,0.8c0,0.4,0.2,0.8,0.5,1.1s0.8,0.4,1.5,0.4c0.6,0,1.2-0.1,1.7-0.4c0.5-0.3,0.9-0.7,1.1-1.1
			c0.2-0.4,0.3-0.9,0.3-1.6V29.7z"/>
		<path class="st0" d="M333.7,34.6l5.2-13.4h1.9l5.5,13.4h-2l-1.6-4.1H337l-1.5,4.1H333.7z M337.6,29.1h4.5l-1.4-3.7
			c-0.4-1.1-0.7-2.1-1-2.8c-0.2,0.9-0.4,1.7-0.7,2.6L337.6,29.1z"/>
		<path class="st0" d="M347.5,34.6v-9.7h1.5v1.4c0.7-1.1,1.7-1.6,3.1-1.6c0.6,0,1.1,0.1,1.6,0.3c0.5,0.2,0.9,0.5,1.1,0.8
			s0.4,0.7,0.5,1.2c0.1,0.3,0.1,0.8,0.1,1.6v6h-1.6v-5.9c0-0.7-0.1-1.2-0.2-1.5c-0.1-0.3-0.4-0.6-0.7-0.8c-0.3-0.2-0.7-0.3-1.1-0.3
			c-0.7,0-1.3,0.2-1.8,0.7c-0.5,0.4-0.8,1.3-0.8,2.5v5.3H347.5z"/>
		<path class="st0" d="M364.2,33.4c-0.6,0.5-1.2,0.9-1.8,1.1s-1.2,0.3-1.8,0.3c-1.1,0-1.9-0.3-2.5-0.8c-0.6-0.5-0.9-1.2-0.9-2
			c0-0.5,0.1-0.9,0.3-1.3s0.5-0.7,0.9-0.9c0.4-0.2,0.7-0.4,1.2-0.5c0.3-0.1,0.8-0.2,1.5-0.2c1.3-0.2,2.3-0.3,2.9-0.6
			c0-0.2,0-0.4,0-0.4c0-0.7-0.2-1.1-0.5-1.4c-0.4-0.4-1-0.6-1.9-0.6c-0.8,0-1.3,0.1-1.7,0.4c-0.4,0.3-0.6,0.8-0.8,1.4l-1.6-0.2
			c0.1-0.7,0.4-1.2,0.7-1.7c0.3-0.4,0.8-0.8,1.5-1c0.6-0.2,1.4-0.3,2.2-0.3c0.8,0,1.5,0.1,2,0.3s0.9,0.4,1.1,0.7
			c0.2,0.3,0.4,0.7,0.5,1.1c0.1,0.3,0.1,0.8,0.1,1.5v2.2c0,1.5,0,2.5,0.1,2.9c0.1,0.4,0.2,0.8,0.4,1.2h-1.7
			C364.4,34.2,364.3,33.8,364.2,33.4z M364.1,29.7c-0.6,0.2-1.5,0.5-2.7,0.6c-0.7,0.1-1.2,0.2-1.4,0.3c-0.3,0.1-0.5,0.3-0.7,0.5
			c-0.2,0.2-0.2,0.5-0.2,0.8c0,0.4,0.2,0.8,0.5,1.1s0.8,0.4,1.5,0.4c0.6,0,1.2-0.1,1.7-0.4c0.5-0.3,0.9-0.7,1.1-1.1
			c0.2-0.4,0.3-0.9,0.3-1.6V29.7z"/>
		<path class="st0" d="M368.3,34.6V21.1h1.6v13.4H368.3z"/>
		<path class="st0" d="M372.4,38.3l-0.2-1.5c0.4,0.1,0.7,0.1,0.9,0.1c0.4,0,0.7-0.1,0.9-0.2s0.4-0.3,0.5-0.5
			c0.1-0.2,0.3-0.6,0.5-1.2c0-0.1,0.1-0.2,0.1-0.4l-3.7-9.7h1.8l2,5.6c0.3,0.7,0.5,1.5,0.7,2.3c0.2-0.8,0.4-1.5,0.7-2.2l2.1-5.7h1.6
			l-3.7,9.9c-0.4,1.1-0.7,1.8-0.9,2.2c-0.3,0.5-0.6,0.9-1,1.2c-0.4,0.3-0.8,0.4-1.4,0.4C373.1,38.5,372.8,38.4,372.4,38.3z"/>
		<path class="st0" d="M385.4,33.1l0.2,1.5c-0.5,0.1-0.9,0.1-1.2,0.1c-0.6,0-1.1-0.1-1.4-0.3c-0.3-0.2-0.6-0.4-0.7-0.7
			c-0.1-0.3-0.2-1-0.2-1.9v-5.6h-1.2v-1.3h1.2v-2.4l1.6-1v3.4h1.7v1.3h-1.7v5.7c0,0.5,0,0.8,0.1,0.9c0.1,0.1,0.2,0.2,0.3,0.3
			c0.1,0.1,0.3,0.1,0.6,0.1C384.9,33.2,385.1,33.1,385.4,33.1z"/>
		<path class="st0" d="M387.1,23v-1.9h1.6V23H387.1z M387.1,34.6v-9.7h1.6v9.7H387.1z"/>
		<path class="st0" d="M397.6,31l1.6,0.2c-0.2,1.1-0.6,2-1.4,2.6s-1.6,0.9-2.7,0.9c-1.3,0-2.4-0.4-3.2-1.3c-0.8-0.9-1.2-2.1-1.2-3.7
			c0-1,0.2-2,0.5-2.8c0.3-0.8,0.9-1.4,1.6-1.8c0.7-0.4,1.5-0.6,2.3-0.6c1.1,0,1.9,0.3,2.6,0.8c0.7,0.5,1.1,1.3,1.3,2.3l-1.6,0.2
			c-0.2-0.7-0.4-1.1-0.8-1.5c-0.4-0.3-0.9-0.5-1.4-0.5c-0.8,0-1.5,0.3-2,0.9c-0.5,0.6-0.8,1.5-0.8,2.8c0,1.3,0.3,2.3,0.8,2.8
			c0.5,0.6,1.2,0.9,2,0.9c0.6,0,1.2-0.2,1.6-0.6S397.5,31.8,397.6,31z"/>
		<path class="st0" d="M399.9,31.7l1.6-0.3c0.1,0.7,0.3,1.2,0.8,1.5s1,0.5,1.8,0.5c0.8,0,1.3-0.2,1.7-0.5c0.4-0.3,0.5-0.7,0.5-1.1
			c0-0.4-0.2-0.7-0.5-0.9c-0.2-0.1-0.8-0.3-1.7-0.6c-1.2-0.3-2-0.6-2.5-0.8c-0.5-0.2-0.8-0.5-1.1-0.9c-0.2-0.4-0.4-0.8-0.4-1.3
			c0-0.4,0.1-0.8,0.3-1.2s0.5-0.7,0.8-0.9c0.3-0.2,0.6-0.3,1-0.5c0.4-0.1,0.9-0.2,1.4-0.2c0.8,0,1.4,0.1,2,0.3
			c0.6,0.2,1,0.5,1.3,0.9c0.3,0.4,0.5,0.9,0.6,1.5l-1.6,0.2c-0.1-0.5-0.3-0.9-0.6-1.2c-0.4-0.3-0.8-0.4-1.5-0.4
			c-0.8,0-1.3,0.1-1.6,0.4c-0.3,0.3-0.5,0.5-0.5,0.9c0,0.2,0.1,0.4,0.2,0.6c0.1,0.2,0.3,0.3,0.6,0.4c0.2,0.1,0.7,0.2,1.5,0.4
			c1.2,0.3,2,0.6,2.4,0.8c0.5,0.2,0.8,0.5,1.1,0.9c0.3,0.4,0.4,0.8,0.4,1.4c0,0.5-0.2,1.1-0.5,1.6c-0.3,0.5-0.8,0.9-1.4,1.1
			s-1.3,0.4-2.1,0.4c-1.3,0-2.2-0.3-2.9-0.8C400.5,33.5,400.1,32.7,399.9,31.7z"/>
	</g>
	<g>
		<g>
			<path class="st1" d="M180.8,25.4c0-1.9-1.1-2.8-3.3-2.8h-1.9v5.8h1.7c1.1,0,2-0.3,2.6-0.8C180.5,27,180.8,26.2,180.8,25.4
				 M182.5,25.2c0,1.4-0.5,2.5-1.4,3.3s-2.2,1.3-3.7,1.3h-1.8v5.3H174v-14h3.9c1.5,0,2.7,0.4,3.5,1.1
				C182.1,22.9,182.5,23.9,182.5,25.2"/>
		</g>
		<g>
			<path class="st1" d="M189.3,30.1l-2.4,0.3c-0.8,0.1-1.4,0.3-1.7,0.6c-0.3,0.3-0.5,0.7-0.5,1.3c0,0.5,0.2,0.9,0.5,1.2
				c0.4,0.3,0.8,0.5,1.4,0.5c0.8,0,1.5-0.3,2-0.8c0.5-0.6,0.8-1.3,0.8-2.1v-1 M190.9,35.1h-1.6v-1.5l0,0c-0.7,1.2-1.7,1.8-3.1,1.8
				c-1,0-1.7-0.3-2.3-0.8s-0.9-1.2-0.9-2.1c0-1.9,1.1-3,3.3-3.3l3-0.4c0-1.7-0.7-2.6-2.1-2.6c-1.2,0-2.3,0.4-3.3,1.2v-1.6
				c0.3-0.2,0.8-0.4,1.5-0.6s1.3-0.3,1.9-0.3c2.4,0,3.5,1.3,3.5,3.8v6.4"/>
		</g>
		<g>
			<path class="st1" d="M198.6,26.6c-0.3-0.2-0.7-0.3-1.2-0.3c-0.7,0-1.3,0.3-1.7,1s-0.7,1.5-0.7,2.6V35h-1.6V25h1.6v2.1l0,0
				c0.2-0.7,0.6-1.2,1-1.6c0.5-0.4,1-0.6,1.6-0.6c0.4,0,0.7,0,1,0.1L198.6,26.6"/>
		</g>
		<g>
			<path class="st1" d="M206.1,35c-0.4,0.2-0.9,0.3-1.5,0.3c-1.7,0-2.6-1-2.6-3v-5.9h-1.7V25h1.7v-2.4l1.6-0.5v3h2.5v1.4h-2.5v5.7
				c0,0.7,0.1,1.2,0.3,1.4c0.2,0.3,0.6,0.4,1.1,0.4c0.4,0,0.7-0.1,1-0.3L206.1,35"/>
		</g>
		<g>
			<path class="st1" d="M216.7,35.1h-1.6v-5.7c0-2.1-0.8-3.2-2.3-3.2c-0.8,0-1.4,0.3-2,0.9c-0.5,0.6-0.8,1.4-0.8,2.3v5.7h-1.6v-10
				h1.6v1.7l0,0c0.7-1.3,1.8-1.9,3.3-1.9c1.1,0,1.9,0.4,2.5,1.1s0.9,1.7,0.9,3.1L216.7,35.1"/>
		</g>
		<g>
			<path class="st1" d="M225.5,29.1c0-0.9-0.2-1.7-0.7-2.2c-0.4-0.5-1-0.8-1.8-0.8c-0.7,0-1.4,0.3-1.9,0.8s-0.9,1.2-1,2.1
				L225.5,29.1 M227.2,30.5h-7.1c0,1.1,0.3,2,0.9,2.6c0.6,0.6,1.4,0.9,2.4,0.9c1.1,0,2.2-0.4,3.1-1.1v1.5c-0.9,0.6-2,1-3.5,1
				c-1.4,0-2.5-0.5-3.3-1.4s-1.2-2.2-1.2-3.8c0-1,0.2-1.9,0.6-2.7c0.4-0.8,1-1.5,1.7-1.9c0.7-0.5,1.5-0.7,2.3-0.7
				c1.3,0,2.3,0.4,3,1.3c0.7,0.8,1.1,2,1.1,3.6V30.5"/>
		</g>
		<g>
			<path class="st1" d="M234.2,26.6c-0.3-0.2-0.7-0.3-1.2-0.3c-0.7,0-1.3,0.3-1.7,1s-0.7,1.5-0.7,2.6V35H229V25h1.6v2.1l0,0
				c0.2-0.7,0.6-1.2,1-1.6c0.5-0.4,1-0.6,1.6-0.6c0.4,0,0.7,0,1,0.1L234.2,26.6"/>
		</g>
	</g>
	<g>
		<path class="st1" d="M97.4,29.7l-0.6,1.8l0,0c-0.1-0.4-0.3-1-0.6-1.8l-3.5-8.9h-3.5v14.1h2.3v-8.7c0-0.5,0-1.2,0-1.9
			c0-0.4-0.1-0.7-0.1-0.9l0,0c0.1,0.5,0.2,0.9,0.3,1.2l4.2,10.3h1.6l4.2-10.4c0.1-0.2,0.2-0.7,0.3-1.1l0,0c-0.1,1-0.1,2-0.1,2.5v9
			h2.4v-14H101L97.4,29.7"/>
	</g>
	<g>
		<polyline class="st1" points="106.6,35 109,35 109,27.4 109,24.9 106.6,24.9 106.6,29.9 106.6,35 		"/>
	</g>
	<g>
		<path class="st1" d="M107.9,20.6c-0.4,0-0.7,0.1-1,0.4c-0.3,0.3-0.4,0.6-0.4,1s0.1,0.7,0.4,1c0.3,0.3,0.6,0.4,1,0.4s0.7-0.1,1-0.4
			s0.4-0.6,0.4-1s-0.1-0.7-0.4-1C108.6,20.6,108.3,20.6,107.9,20.6"/>
	</g>
	<g>
		<path class="st1" d="M117.4,24.7c-0.5-0.1-0.9-0.1-1.3-0.1c-1.1,0-2.1,0.2-2.9,0.7s-1.5,1.1-1.9,2c-0.4,0.8-0.7,1.8-0.7,2.9
			c0,1,0.2,1.8,0.6,2.6c0.4,0.8,1,1.4,1.8,1.8s1.6,0.6,2.6,0.6c1.1,0,2.1-0.2,2.9-0.7l0,0v-2.2l-0.1,0.1c-0.3,0.3-0.7,0.5-1.2,0.6
			c-0.4,0.1-0.8,0.2-1.1,0.2c-0.9,0-1.7-0.3-2.2-0.9s-0.8-1.4-0.8-2.4s0.3-1.9,0.9-2.5s1.3-0.9,2.2-0.9c0.8,0,1.5,0.3,2.3,0.8
			l0.1,0.1v-2.3l0,0C118.2,25,117.9,24.9,117.4,24.7"/>
	</g>
	<g>
		<path class="st1" d="M125.2,24.6c-0.6,0-1.1,0.2-1.6,0.6c-0.4,0.3-0.7,0.8-0.9,1.4l0,0v-1.8h-2.4v10.1h2.4v-5.2
			c0-0.9,0.2-1.6,0.6-2.1s0.9-0.8,1.5-0.8c0.2,0,0.5,0,0.7,0.1c0.3,0.1,0.4,0.1,0.6,0.2l0.1,0.1v-2.4l0,0
			C125.9,24.7,125.6,24.6,125.2,24.6"/>
	</g>
	<g>
		<path class="st1" d="M133.6,32.4c-0.4,0.6-1.1,0.8-2,0.8c-0.9,0-1.6-0.3-2-0.9c-0.5-0.6-0.7-1.4-0.7-2.4c0-1.1,0.2-1.9,0.7-2.5
			s1.2-0.9,2-0.9s1.5,0.3,2,0.8c0.5,0.6,0.7,1.4,0.7,2.5C134.2,31,134,31.9,133.6,32.4 M131.7,24.6c-1.7,0-3,0.5-3.9,1.5
			s-1.4,2.3-1.4,4c0,1.6,0.5,2.9,1.4,3.8s2.2,1.4,3.7,1.4c1.6,0,2.9-0.5,3.8-1.5c0.9-1,1.4-2.3,1.4-3.9s-0.4-2.9-1.3-3.8
			C134.5,25.1,133.2,24.6,131.7,24.6"/>
	</g>
	<g>
		<path class="st1" d="M142,29.1c-0.7-0.3-1.2-0.6-1.4-0.7c-0.2-0.2-0.3-0.4-0.3-0.8c0-0.3,0.1-0.5,0.4-0.7c0.2-0.2,0.6-0.3,1-0.3
			c0.4,0,0.8,0.1,1.2,0.2s0.8,0.3,1.1,0.5l0.1,0.1v-2.2l0,0c-0.3-0.1-0.6-0.2-1.1-0.3c-0.4-0.1-0.8-0.1-1.2-0.1
			c-1.1,0-2.1,0.3-2.8,0.9c-0.7,0.6-1.1,1.3-1.1,2.2c0,0.5,0.1,0.9,0.2,1.3c0.2,0.4,0.4,0.7,0.7,0.9c0.3,0.3,0.8,0.5,1.5,0.8
			c0.5,0.2,1,0.4,1.2,0.6c0.3,0.1,0.4,0.3,0.5,0.4c0.1,0.1,0.1,0.3,0.1,0.6c0,0.7-0.5,1-1.6,1c-0.4,0-0.8-0.1-1.3-0.2
			c-0.5-0.2-0.9-0.4-1.3-0.7l-0.1-0.1v2.3l0,0c0.3,0.2,0.8,0.3,1.3,0.4s1,0.2,1.4,0.2c1.2,0,2.2-0.3,2.9-0.9s1.1-1.4,1.1-2.3
			c0-0.7-0.2-1.3-0.6-1.7C143.6,29.9,142.9,29.5,142,29.1"/>
	</g>
	<g>
		<path class="st1" d="M152.8,32.4c-0.4,0.6-1.1,0.8-2,0.8c-0.9,0-1.6-0.3-2-0.9c-0.5-0.6-0.7-1.4-0.7-2.4c0-1.1,0.2-1.9,0.7-2.5
			s1.2-0.9,2-0.9s1.5,0.3,2,0.8c0.5,0.6,0.7,1.4,0.7,2.5C153.5,31,153.3,31.9,152.8,32.4 M150.9,24.6c-1.7,0-3,0.5-3.9,1.5
			c-0.9,1-1.4,2.3-1.4,4c0,1.6,0.5,2.9,1.4,3.8c0.9,0.9,2.2,1.4,3.7,1.4c1.6,0,2.9-0.5,3.8-1.5c0.9-1,1.4-2.3,1.4-3.9
			s-0.4-2.9-1.3-3.8C153.7,25.1,152.5,24.6,150.9,24.6"/>
	</g>
	<g>
		<path class="st1" d="M168.6,26.7v-1.9h-2.4v-3h-0.1l-2.3,0.7l0,0v2.3h-3.6v-1.3c0-0.6,0.1-1,0.4-1.3s0.6-0.5,1.1-0.5
			c0.3,0,0.7,0.1,1,0.2h0.1v-2l0,0c-0.3-0.1-0.8-0.2-1.3-0.2c-0.7,0-1.3,0.2-1.9,0.5c-0.6,0.3-1,0.7-1.3,1.3s-0.5,1.2-0.5,1.9v1.4
			h-1.7v1.9h1.7v8.2h2.4v-8.2h3.6v5.2c0,2.1,1,3.2,3,3.2c0.3,0,0.7,0,1-0.1c0.4-0.1,0.6-0.2,0.7-0.2l0,0v-2l-0.1,0.1
			c-0.1,0.1-0.3,0.2-0.5,0.2c-0.2,0.1-0.4,0.1-0.5,0.1c-0.5,0-0.8-0.1-1-0.4s-0.3-0.7-0.3-1.3v-4.8L168.6,26.7"/>
	</g>
	<g>
		<polyline class="st2" points="69.8,27.4 58.6,27.4 58.6,16.1 69.8,16.1 69.8,27.4 		"/>
	</g>
	<g>
		<polyline class="st3" points="82.1,27.4 70.9,27.4 70.9,16.1 82.1,16.1 82.1,27.4 		"/>
	</g>
	<g>
		<polyline class="st4" points="69.8,39.6 58.6,39.6 58.6,28.5 69.8,28.5 69.8,39.6 		"/>
	</g>
	<g>
		<polyline class="st5" points="82.1,39.6 70.9,39.6 70.9,28.5 82.1,28.5 82.1,39.6 		"/>
	</g>
</g>
</svg>
