<svg id="Layer_1" data-name="Layer 1" xmlns="http://www.w3.org/2000/svg" viewBox="0 0 42.64 21.33"><defs><style>.cls-1{fill:#fff;}.cls-2{fill:#89ba40;}</style></defs><title>logi-alliance-partner-logo-1</title><path class="cls-1" d="M22,8.67v-1h1.76V15a2.89,2.89,0,0,1-.2,1.27,2.69,2.69,0,0,1-1.86,2,5.14,5.14,0,0,1-3.43,0,2.62,2.62,0,0,1-2-2.15H18a1.47,1.47,0,0,0,1.43,1h1A1.63,1.63,0,0,0,22,15.48V14l-.1.1a2.71,2.71,0,0,1-2.45,1.27,3.19,3.19,0,0,1-3-2c-.1-.29-.2-.69-.29-1a4.72,4.72,0,0,1,.2-2.84,3.49,3.49,0,0,1,2.55-2.25,3.71,3.71,0,0,1,1.47,0,3.12,3.12,0,0,1,1.76,1.37Zm0,2.74a4.43,4.43,0,0,0-.29-1.57,2,2,0,0,0-3.52,0,3.73,3.73,0,0,0-.29,1A3.34,3.34,0,0,0,18.21,13,1.88,1.88,0,0,0,20,14.14,1.71,1.71,0,0,0,21.73,13,4.87,4.87,0,0,0,22,11.41Z" transform="translate(-1.14 -0.69)"/><path class="cls-1" d="M15.66,11.51a4.38,4.38,0,0,1-.39,2,3.57,3.57,0,0,1-2.94,2.15,4.42,4.42,0,0,1-2-.1A3.47,3.47,0,0,1,8,13.41a4.49,4.49,0,0,1,.1-3.72,3.43,3.43,0,0,1,2.84-2.15,4.34,4.34,0,0,1,2.25.2,3.51,3.51,0,0,1,2.35,2.84A3.33,3.33,0,0,1,15.66,11.51Zm-1.76,0a4.87,4.87,0,0,0-.29-1.57,1.92,1.92,0,0,0-1.86-1.17A1.84,1.84,0,0,0,9.89,9.94a3.74,3.74,0,0,0,0,3.23,2.06,2.06,0,0,0,3.72,0A4.57,4.57,0,0,0,13.9,11.51Z" transform="translate(-1.14 -0.69)"/><path class="cls-1" d="M1.24,4.26h1.9v9.4h3.6c.2,0,.2.1.3.2a7.1,7.1,0,0,0,1,1.4l.1.1H1.24Z" transform="translate(-1.14 -0.69)"/><path class="cls-1" d="M25.25,7.6H27v7.83H25.25Z" transform="translate(-1.14 -0.69)"/><path class="cls-1" d="M27,6h-1.7V4.26H27Z" transform="translate(-1.14 -0.69)"/><path class="cls-2" d="M36.61,7H30.34a1,1,0,0,1-1-1V5.54a1,1,0,0,1,1-1h6.27a1,1,0,0,1,1,1V6A1,1,0,0,1,36.61,7Z" transform="translate(-1.14 -0.69)"/><path class="cls-2" d="M39.74,11.22H30.45a1,1,0,0,1-1-1V9.73a1,1,0,0,1,1-1h9.3a1,1,0,0,1,1,1v.49A1.05,1.05,0,0,1,39.74,11.22Z" transform="translate(-1.14 -0.69)"/><path class="cls-2" d="M42.78,15.33H30.45a1,1,0,0,1-1-1v-.49a1,1,0,0,1,1-1H42.78a1,1,0,0,1,1,1v.49A1,1,0,0,1,42.78,15.33Z" transform="translate(-1.14 -0.69)"/><path class="cls-1" d="M3.17,21.16H1.86L1.57,22H1.14l1.19-3.13H2.7L3.89,22H3.47ZM2,20.82H3l-.53-1.46Z" transform="translate(-1.14 -0.69)"/><path class="cls-1" d="M9,22H8.55L7,19.56V22H6.56V18.85H7l1.58,2.42V18.85H9Z" transform="translate(-1.14 -0.69)"/><path class="cls-1" d="M13.71,21.16H12.39L12.1,22h-.43l1.19-3.13h.36L14.43,22H14Zm-1.19-.34h1.06l-.53-1.46Z" transform="translate(-1.14 -0.69)"/><path class="cls-1" d="M17.51,21.64H19V22h-1.9V18.85h.41Z" transform="translate(-1.14 -0.69)"/><path class="cls-1" d="M22.14,20.42,23,18.85h.47l-1.08,2V22h-.41V20.81l-1.08-2h.47Z" transform="translate(-1.14 -0.69)"/><path class="cls-1" d="M28.28,19.18h-1V22h-.41V19.18h-1v-.34h2.42Z" transform="translate(-1.14 -0.69)"/><path class="cls-1" d="M31.43,22H31V18.85h.41Z" transform="translate(-1.14 -0.69)"/><path class="cls-1" d="M36.73,21a1.47,1.47,0,0,1-.11.41,1,1,0,0,1-.23.33,1.06,1.06,0,0,1-.36.22,1.41,1.41,0,0,1-.49.08,1.18,1.18,0,0,1-.5-.1,1.08,1.08,0,0,1-.39-.29,1.36,1.36,0,0,1-.25-.46,1.92,1.92,0,0,1-.09-.6v-.31a1.9,1.9,0,0,1,.09-.6,1.34,1.34,0,0,1,.25-.46,1.12,1.12,0,0,1,.4-.29,1.26,1.26,0,0,1,.52-.1,1.32,1.32,0,0,1,.47.08,1,1,0,0,1,.35.22,1,1,0,0,1,.23.33,1.41,1.41,0,0,1,.11.42h-.42a1.44,1.44,0,0,0-.07-.29.68.68,0,0,0-.14-.22.57.57,0,0,0-.22-.14.86.86,0,0,0-.31,0,.8.8,0,0,0-.37.08.74.74,0,0,0-.26.23,1,1,0,0,0-.16.35,1.82,1.82,0,0,0-.05.45v.32a1.84,1.84,0,0,0,0,.43,1.1,1.1,0,0,0,.15.35.69.69,0,0,0,.61.33,1,1,0,0,0,.33,0,.57.57,0,0,0,.22-.14.59.59,0,0,0,.14-.22,1.41,1.41,0,0,0,.08-.29Z" transform="translate(-1.14 -0.69)"/><path class="cls-1" d="M41.2,21.18a.52.52,0,0,0,0-.19.39.39,0,0,0-.12-.15.94.94,0,0,0-.23-.13l-.37-.13a3,3,0,0,1-.42-.15,1.38,1.38,0,0,1-.32-.2.79.79,0,0,1-.2-.25.7.7,0,0,1-.07-.32.76.76,0,0,1,.08-.34.81.81,0,0,1,.22-.27,1,1,0,0,1,.34-.18,1.38,1.38,0,0,1,.44-.06,1.31,1.31,0,0,1,.47.08,1,1,0,0,1,.35.21.88.88,0,0,1,.21.3.89.89,0,0,1,.07.35h-.42a.71.71,0,0,0,0-.24.53.53,0,0,0-.13-.19.59.59,0,0,0-.21-.13.92.92,0,0,0-.31,0,1,1,0,0,0-.29,0,.57.57,0,0,0-.2.11.41.41,0,0,0-.12.16.51.51,0,0,0,0,.2.38.38,0,0,0,0,.18A.46.46,0,0,0,40,20a1,1,0,0,0,.23.13l.33.11a3,3,0,0,1,.46.17,1.26,1.26,0,0,1,.32.21.77.77,0,0,1,.19.26.82.82,0,0,1,.06.33.75.75,0,0,1-.3.61A1.06,1.06,0,0,1,41,22a1.6,1.6,0,0,1-.45.06l-.29,0a1.37,1.37,0,0,1-.28-.08,1.23,1.23,0,0,1-.25-.13,1,1,0,0,1-.2-.19.81.81,0,0,1-.13-.24.84.84,0,0,1,0-.29h.42a.54.54,0,0,0,.23.47.75.75,0,0,0,.25.11,1.18,1.18,0,0,0,.29,0,.81.81,0,0,0,.5-.13A.43.43,0,0,0,41.2,21.18Z" transform="translate(-1.14 -0.69)"/><path class="cls-2" d="M15.17,2.13h-.74l-.17.46H14L14.7.82h.21l.68,1.78h-.25Zm-.67-.2h.6l-.29-.81h0Z" transform="translate(-1.14 -0.69)"/><path class="cls-2" d="M16,2.59H15.8V.69H16Z" transform="translate(-1.14 -0.69)"/><path class="cls-2" d="M16.67,2.59h-.24V.69h.24Z" transform="translate(-1.14 -0.69)"/><path class="cls-2" d="M17.3.93h-.24V.69h.24Zm0,1.66h-.24V1.27h.24Z" transform="translate(-1.14 -0.69)"/><path class="cls-2" d="M18.49,2.59l0-.11a.84.84,0,0,1,0-.09.56.56,0,0,1-.18.16.44.44,0,0,1-.23.06.43.43,0,0,1-.31-.11.39.39,0,0,1-.11-.29.34.34,0,0,1,.15-.3.71.71,0,0,1,.42-.11h.26V1.69a.24.24,0,0,0-.07-.18.28.28,0,0,0-.2-.07A.29.29,0,0,0,18,1.5a.18.18,0,0,0-.07.14h-.23a.32.32,0,0,1,.14-.26.56.56,0,0,1,.37-.12.55.55,0,0,1,.36.11.4.4,0,0,1,.14.33v.64a1.24,1.24,0,0,0,0,.14.69.69,0,0,0,0,.13Zm-.4-.18a.43.43,0,0,0,.24-.07.32.32,0,0,0,.14-.15V2h-.27a.35.35,0,0,0-.23.07.22.22,0,0,0-.09.17.18.18,0,0,0,.05.14A.23.23,0,0,0,18.09,2.42Z" transform="translate(-1.14 -0.69)"/><path class="cls-2" d="M19.26,1.27l0,.2a.48.48,0,0,1,.17-.16.44.44,0,0,1,.23-.06.43.43,0,0,1,.33.13.55.55,0,0,1,.12.39v.83h-.24V1.76a.36.36,0,0,0-.07-.25.28.28,0,0,0-.21-.07.34.34,0,0,0-.18.05.36.36,0,0,0-.13.14v1H19V1.27Z" transform="translate(-1.14 -0.69)"/><path class="cls-2" d="M21,2.43a.32.32,0,0,0,.21-.07.23.23,0,0,0,.09-.18h.22a.37.37,0,0,1-.15.3.55.55,0,0,1-.37.13.54.54,0,0,1-.44-.19A.73.73,0,0,1,20.41,2V1.91a.72.72,0,0,1,.15-.47.6.6,0,0,1,.82-.05.42.42,0,0,1,.14.34h-.22a.28.28,0,0,0-.09-.21A.29.29,0,0,0,21,1.44a.29.29,0,0,0-.27.14.64.64,0,0,0-.08.33V2a.65.65,0,0,0,.08.34A.29.29,0,0,0,21,2.43Z" transform="translate(-1.14 -0.69)"/><path class="cls-2" d="M22.34,2.62a.56.56,0,0,1-.44-.18A.69.69,0,0,1,21.74,2V1.9a.68.68,0,0,1,.17-.47.52.52,0,0,1,.4-.19.5.5,0,0,1,.4.16.64.64,0,0,1,.14.43V2H22a.52.52,0,0,0,.1.31.31.31,0,0,0,.26.12.61.61,0,0,0,.21,0,.5.5,0,0,0,.16-.1l.09.16a.57.57,0,0,1-.19.12A.75.75,0,0,1,22.34,2.62Zm0-1.18a.26.26,0,0,0-.21.1.48.48,0,0,0-.1.25h.61v0a.37.37,0,0,0-.08-.24A.27.27,0,0,0,22.31,1.44Z" transform="translate(-1.14 -0.69)"/><path class="cls-2" d="M24,1.88v.71h-.24V.82h.68a.63.63,0,0,1,.44.15.5.5,0,0,1,.16.39.5.5,0,0,1-.16.39.63.63,0,0,1-.44.14Zm0-.19h.44a.35.35,0,0,0,.27-.1.35.35,0,0,0,.09-.24.35.35,0,0,0-.09-.25.35.35,0,0,0-.27-.1H24Z" transform="translate(-1.14 -0.69)"/><path class="cls-2" d="M26.14,2.59l0-.11a.74.74,0,0,1,0-.09.54.54,0,0,1-.17.16.45.45,0,0,1-.23.06.43.43,0,0,1-.31-.11.39.39,0,0,1-.11-.29.34.34,0,0,1,.15-.3.72.72,0,0,1,.42-.11h.26V1.69A.24.24,0,0,0,26,1.5a.28.28,0,0,0-.2-.07.29.29,0,0,0-.19.06.18.18,0,0,0-.07.14h-.23a.32.32,0,0,1,.14-.26.56.56,0,0,1,.37-.12.55.55,0,0,1,.36.11.4.4,0,0,1,.14.33v.64a1.24,1.24,0,0,0,0,.14.66.66,0,0,0,0,.13Zm-.4-.18A.42.42,0,0,0,26,2.35a.31.31,0,0,0,.14-.15V2h-.27a.35.35,0,0,0-.23.07.22.22,0,0,0-.09.17.18.18,0,0,0,.05.14A.23.23,0,0,0,25.74,2.42Z" transform="translate(-1.14 -0.69)"/><path class="cls-2" d="M27.33,1.48H27.2a.28.28,0,0,0-.16,0,.29.29,0,0,0-.1.13v.94H26.7V1.27h.21l0,.19a.47.47,0,0,1,.14-.16.33.33,0,0,1,.19-.06h.09Z" transform="translate(-1.14 -0.69)"/><path class="cls-2" d="M27.9,1v.32h.25v.18H27.9v.8a.18.18,0,0,0,0,.13.14.14,0,0,0,.1,0h.09l0,.17-.08,0H28a.31.31,0,0,1-.23-.09.38.38,0,0,1-.09-.28v-.8h-.21V1.27h.21V1Z" transform="translate(-1.14 -0.69)"/><path class="cls-2" d="M28.66,1.27l0,.2a.48.48,0,0,1,.17-.16.44.44,0,0,1,.23-.06.43.43,0,0,1,.33.13.55.55,0,0,1,.12.39v.83h-.24V1.76a.36.36,0,0,0-.07-.25A.28.28,0,0,0,29,1.44a.33.33,0,0,0-.18.05.36.36,0,0,0-.13.14v1h-.24V1.27Z" transform="translate(-1.14 -0.69)"/><path class="cls-2" d="M30.41,2.62A.56.56,0,0,1,30,2.43.69.69,0,0,1,29.81,2V1.9A.68.68,0,0,1,30,1.43a.52.52,0,0,1,.4-.19.5.5,0,0,1,.4.16.64.64,0,0,1,.14.43V2h-.86a.52.52,0,0,0,.1.31.31.31,0,0,0,.26.12.61.61,0,0,0,.21,0,.49.49,0,0,0,.16-.1l.09.16a.57.57,0,0,1-.19.12A.76.76,0,0,1,30.41,2.62Zm0-1.18a.26.26,0,0,0-.21.1.48.48,0,0,0-.1.25h.61v0a.36.36,0,0,0-.08-.24A.27.27,0,0,0,30.38,1.44Z" transform="translate(-1.14 -0.69)"/><path class="cls-2" d="M31.81,1.48h-.12a.28.28,0,0,0-.16,0,.29.29,0,0,0-.1.13v.94h-.24V1.27h.21l0,.19a.47.47,0,0,1,.14-.16.33.33,0,0,1,.19-.06h.09Z" transform="translate(-1.14 -0.69)"/></svg>