<?xml version="1.0" encoding="utf-8"?>
<!-- Generator: Adobe Illustrator 21.0.2, SVG Export Plug-In . SVG Version: 6.00 Build 0)  -->
<svg version="1.1" id="Layer_1" xmlns="http://www.w3.org/2000/svg" xmlns:xlink="http://www.w3.org/1999/xlink" x="0px" y="0px"
	 viewBox="0 0 74 74" style="enable-background:new 0 0 74 74;" xml:space="preserve">
<style type="text/css">
	.st0{fill:none;stroke:#FFFFFF;stroke-width:2;stroke-miterlimit:10;}
	.st1{fill:#FFFFFF;}
</style>
<title>software-development</title>
<circle class="st0" cx="37" cy="37" r="36"/>
<path class="st1" d="M54.8,39.5c-0.4-0.2-0.7-0.5-1-0.7c-1-0.8-1.2-2.3-0.5-3.3c0.2-0.2,0.4-0.4,0.6-0.6c0.2-0.2,0.5-0.3,0.8-0.5
	c1.1-0.5,1.6-1.8,1.2-2.9c-0.4-1.5-1-2.9-1.8-4.2c-0.5-0.9-1.5-1.4-2.5-1.1c-0.4,0.1-0.9,0.2-1.4,0.2c-1.3,0.2-2.5-0.8-2.7-2.1
	c0-0.2,0-0.3,0-0.5c0-0.5,0.1-0.9,0.2-1.4c0.3-1-0.1-2.1-1.1-2.6c-1.3-0.8-2.8-1.4-4.3-1.8c-1-0.3-2.1,0.1-2.6,1.1
	c-0.2,0.4-0.5,0.8-0.8,1.1c-0.9,1-2.4,1.2-3.5,0.3l-0.1-0.1c-0.4-0.4-0.8-0.8-1.1-1.3c-0.5-0.9-1.6-1.3-2.6-1
	c-1.3,0.4-2.6,0.9-3.8,1.5c-1.1,0.4-1.8,1.7-1.4,2.9c0.1,0.5,0.2,1.1,0.2,1.7c0,1.3-1,2.3-2.3,2.3l0,0c-0.5,0-1.1-0.1-1.6-0.2
	c-1-0.2-2,0.3-2.5,1.2c-0.8,1.2-1.4,2.6-1.8,4c-0.5,1.2,0.1,2.6,1.3,3.1c0.3,0.2,0.6,0.4,0.9,0.6c1.1,0.9,1.2,2.5,0.3,3.5
	c-0.1,0.1-0.2,0.2-0.3,0.3c-0.4,0.3-0.8,0.6-1.2,0.8c-0.8,0.4-1.3,1.4-1,2.3c0.4,1.6,1,3.1,1.8,4.6c0.5,1,1.6,1.5,2.6,1.2
	c0.6-0.1,1.2-0.2,1.8-0.2c1.1,0.1,2,0.9,2.2,2c0.1,0.6,0,1.3-0.1,1.9c-0.3,1.1,0.2,2.2,1.2,2.7c1.3,0.7,2.6,1.3,4,1.6
	c1.3,0.4,2.8-0.3,3.2-1.6c0.1-0.2,0.1-0.4,0.1-0.7c0-0.4,0.1-0.8,0.1-1.2s0.4-0.8,0.8-0.8l1.5-0.1H38c1.3,0,1.6,0.3,1.6,1.5
	c-0.2,1.4,0.9,2.7,2.3,2.8c0.5,0.1,1.1-0.1,1.5-0.3c0.7-0.3,1.5-0.6,2.2-1c0.6-0.2,1.1-0.5,1.6-0.9c0.6-0.5,0.9-1.2,0.7-2
	c-0.1-0.5-0.2-1-0.3-1.6c-0.2-1.4,0.7-2.7,2.1-2.9c0.2,0,0.4,0,0.6,0c0.4,0,0.8,0.1,1.2,0.2c1.1,0.5,2.4,0,2.9-1.2
	c0-0.1,0.1-0.2,0.1-0.2c0.6-1.2,1.1-2.5,1.4-3.8C56.3,41.2,55.8,40,54.8,39.5z M39.5,49.3c0,0.4-0.3,0.6-0.6,0.5
	c-0.5-0.1-0.9-0.1-1.4,0.1c-0.3,0.1-0.6,0.1-0.8,0c-0.3-0.1-0.7-0.1-1,0C35.2,50,35,49.7,35,49.3c0-0.4,0.1-0.8,0.3-1.2
	c0.1-0.3,0.4-0.4,0.7-0.4c0.4,0,0.9,0,1.3,0l0,0c0.4,0,0.8,0,1.2,0c0.7,0,1,0.2,1.1,0.9C39.5,48.8,39.5,49.1,39.5,49.3z M39.9,43.4
	c-0.4,0.2-0.6,0.6-0.5,1.1c0.1,0.9-0.3,1.3-1.2,1.3h-1.1l0,0c-0.5,0-1,0-1.5-0.1c-0.3,0-0.6-0.2-0.5-0.5c0.2-1-0.4-1.6-1.2-2.1
	c-1.7-1-2.9-2.8-3.2-4.8c-0.5-3.4,1.9-6.6,5.4-7.1c0.1,0,0.3,0,0.4,0c1.8-0.1,3.6,0.5,5,1.7c2.4,2.4,2.6,6.3,0.3,8.8
	C41.2,42.3,40.6,42.9,39.9,43.4L39.9,43.4z M53.9,42.2c-0.3,0.8-0.6,1.6-0.9,2.3c-0.4,0.8-1.3,1.2-2.1,1c-1.5-0.3-3,0.1-4.1,1.3
	c-1.1,1.3-1.5,3-1,4.7c0.2,0.7,0.1,1-0.6,1.3c-0.9,0.4-1.9,0.8-2.8,1.2c-0.4,0.2-0.7,0-0.7-0.5c0-0.7,0-1.3,0-2.2c0-1-0.1-2-0.2-3
	c-0.2-2,0.5-4,2-5.4c1.4-1.4,2.2-3.4,2.1-5.4c-0.1-4.7-4-8.3-8.7-8.2c-3.9,0-7.3,2.9-8,6.7c-0.6,2.9,0.5,5.9,2.8,7.7
	c0.3,0.2,0.5,0.4,0.8,0.6c0.5,0.5,0.8,1.2,0.8,1.9c-0.2,2-0.2,4.1-0.2,6.2c0,0.3,0,0.6,0,0.9c0,0.8-0.5,1.1-1.2,0.8
	s-1.4-0.6-2.1-0.9c-0.8-0.2-1.3-1.1-1-1.9c0,0,0,0,0-0.1c0.8-3.3-2.6-6.2-5.6-5.4c-1,0.3-1.4,0-1.8-1c-0.2-0.5-0.4-0.9-0.6-1.4
	c-0.6-1.2-0.5-1.7,0.6-2.5c1.3-0.9,2.1-2.4,1.9-4c-0.1-1.5-0.8-2.8-2.1-3.6c-1-0.7-1.1-1-0.6-2.2c0.2-0.4,0.4-0.9,0.5-1.3
	c0.2-0.9,1.1-1.5,2-1.3h0.1c2.4,0.5,4.8-1,5.3-3.4c0-0.1,0-0.2,0.1-0.3c0.1-0.6,0-1.2-0.1-1.8c-0.2-1.1,0-1.4,1-1.8
	c0.3-0.2,0.7-0.3,1-0.5c1.3-0.8,2-0.7,2.9,0.5c0.8,1.2,2.3,2,3.8,1.9c1.4,0,2.7-0.7,3.5-1.9c0.1-0.2,0.3-0.4,0.4-0.6
	c0.3-0.6,1-0.8,1.6-0.5l0,0c0.6,0.3,1.3,0.4,1.8,0.7c0.9,0.3,1.5,1.3,1.2,2.3c-0.7,3.5,2.5,5.8,5.6,5.2c1-0.2,1.3-0.1,1.7,0.8
	c0.3,0.6,0.6,1.2,0.8,1.9c0.2,0.6,0,1.3-0.4,1.8c-0.2,0.2-0.3,0.4-0.5,0.5c-2,1.5-2.4,4.3-0.9,6.3c0.2,0.3,0.4,0.5,0.7,0.7
	c0.3,0.3,0.7,0.6,1.1,0.8C53.9,41.3,54.1,41.8,53.9,42.2L53.9,42.2L53.9,42.2z"/>
<path class="st1" d="M37.1,40.7c-1.7,0-3-1.3-3-3c0-1.3,1-2.5,2.2-2.8v1.7c-0.5,0.3-0.8,0.7-0.8,1.3c0,0.8,0.7,1.5,1.5,1.5
	c0.8,0,1.5-0.7,1.5-1.5c0-0.5-0.3-1-0.8-1.3v-3.3h-1.2c-2.2,0.3-3.8,2.2-3.8,4.5c0,2.5,2,4.5,4.5,4.5s4.5-2,4.5-4.5
	c0-1.2-0.5-2.3-1.3-3.1l-1,1c0.5,0.5,0.8,1.3,0.8,2.2C40.1,39.4,38.8,40.7,37.1,40.7z"/>
</svg>
