<?xml version="1.0" encoding="utf-8"?>
<!-- Generator: Adobe Illustrator 21.1.0, SVG Export Plug-In . SVG Version: 6.00 Build 0)  -->
<svg version="1.1" id="Layer_1" xmlns="http://www.w3.org/2000/svg" xmlns:xlink="http://www.w3.org/1999/xlink" x="0px" y="0px"
	 viewBox="0 0 74 74" style="enable-background:new 0 0 74 74;" xml:space="preserve">
<style type="text/css">
	.st0{fill:none;stroke:#FFFFFF;stroke-width:2;stroke-miterlimit:10;}
	.st1{fill:#FFFFFF;}
</style>
<circle class="st0" cx="37" cy="37" r="36"/>
<g>
	<path class="st1" d="M34.8,27c0-3.6-2.9-6.6-6.6-6.6h-0.5v7.1h7.1V27z M28.8,26.5v-4.9c2.6,0.3,4.6,2.3,4.9,4.9H28.8z"/>
	<path class="st1" d="M25.6,37.3c3.8,0,7-3.4,7-7.6V29h-6.2v-6.2h-0.7c-4.2,0-7.6,3.1-7.6,7C17.9,33.8,21.4,37.3,25.6,37.3z
		 M31.4,30c-0.2,3.5-2.7,6.1-5.9,6.1c-3.6,0-6.5-2.9-6.5-6.5c0-3.1,2.7-5.7,6.1-5.9V30H31.4z"/>
	<path class="st1" d="M52.4,51.3V25h-4.8v26.4h-2.4v-12h-4.9v11.9h-2V33.5h-4.9v17.8h-2.6V39.4H26v11.9h-7.6v1.1h37.8v-1.1
		C56.2,51.3,52.4,51.3,52.4,51.3z M29.8,40.5v10.8h-2.7V40.5H29.8z M37.2,34.6v16.7h-2.7V34.6H37.2z M44.1,40.5v10.8h-2.7V40.5H44.1
		z M51.3,26.1v25.3h-2.6V26.1H51.3z"/>
</g>
<g id="digital-business">
</g>
<g id="Intelligence_Delivery">
</g>
<g id="mouse">
</g>
<g id="BI-platfomr">
</g>
<g id="data-visul">
</g>
<g id="collaborate-report">
</g>
<g id="dataops-DB">
</g>
<g id="dataOps">
</g>
<g id="BI-DataOps">
</g>
<g id="devops-mgmt">
</g>
<g id="Layer_12">
</g>
</svg>
