<svg id="Layer_1" data-name="Layer 1" xmlns="http://www.w3.org/2000/svg" viewBox="0 0 74 74"><defs><style>.cls-1{fill:none;stroke-width:2px;}.cls-1,.cls-2{stroke:#fff;stroke-miterlimit:10;}.cls-2{fill:#fff;}</style></defs><title>cloud-first</title><circle class="cls-1" cx="37" cy="37" r="36"/><path class="cls-1" d="M50.7,36.8a9.37,9.37,0,0,0,.7-3.7,9.21,9.21,0,0,0-18.2-2,6.69,6.69,0,0,0-11.9,4.2,11,11,0,0,0,.2,1.8A7.26,7.26,0,0,0,17,43.7h0a6.89,6.89,0,0,0,6.9,6.8H50.1A6.91,6.91,0,0,0,57,43.6h0A6.93,6.93,0,0,0,50.7,36.8Z" transform="translate(-0.7)"/><path class="cls-2" d="M40.4,35.4h-.2v.5h.2a4.15,4.15,0,0,1,4.1,3.9H44l.8,1.4.8-1.4h-.5A4.93,4.93,0,0,0,40.4,35.4Z" transform="translate(-0.7)"/><path class="cls-2" d="M44,41.3l-.2.4-2.6-1a1.05,1.05,0,0,1-.9.5,1.11,1.11,0,0,1-1.1-1.1A1.33,1.33,0,0,1,40,39V37.4h.5V39a1,1,0,0,1,.8,1.1v.2Z" transform="translate(-0.7)"/><path class="cls-2" d="M41.3,32.5v-.9h1.1v-.2a1.79,1.79,0,0,0-1.8-1.8h-.4a1.79,1.79,0,0,0-1.8,1.8v.2h1.1v.9a6.91,6.91,0,0,0-4.4,2.2,7.64,7.64,0,0,0,5.3,13h0a7.51,7.51,0,0,0,7.5-7.6A7.67,7.67,0,0,0,41.3,32.5Zm3.3,11.9a5.66,5.66,0,0,1-4.3,1.8h0a6.13,6.13,0,0,1-6-6.2,6.2,6.2,0,0,1,1.8-4.4,5.66,5.66,0,0,1,4.3-1.8h0a6.13,6.13,0,0,1,6,6.2A5.88,5.88,0,0,1,44.6,44.4Z" transform="translate(-0.7)"/></svg>