<?xml version="1.0" encoding="utf-8"?>
<!-- Generator: Adobe Illustrator 21.0.2, SVG Export Plug-In . SVG Version: 6.00 Build 0)  -->
<svg version="1.1" id="Layer_1" xmlns="http://www.w3.org/2000/svg" xmlns:xlink="http://www.w3.org/1999/xlink" x="0px" y="0px"
	 viewBox="0 0 74 74" style="enable-background:new 0 0 74 74;" xml:space="preserve">
<style type="text/css">
	.st0{fill:#FFFFFF;}
</style>
<title>Cloud &amp;amp; Infrastructure Services</title>
<path class="st0" d="M37,74C16.6,74,0,57.4,0,37C0,16.6,16.6,0,37,0c20.4,0,37,16.6,37,37C74,57.4,57.4,74,37,74z M37,2
	C17.7,2,2,17.7,2,37s15.7,35,35,35s35-15.7,35-35S56.3,2,37,2z"/>
<path class="st0" d="M49,50.4C49,50.4,49,50.4,49,50.4H24.7c-2.6,0-7.6-1.6-7.7-7.4c0-5.1,3.7-7.5,6.2-8.3c0-1.3,0.5-3.5,2.8-5
	c2.2-1.3,4.2-0.9,5.5-0.2c1.1-2.2,4.2-6.5,10.5-5.8c7.3,0.9,9.1,7.2,9.1,11.1c2.6,0.8,6.2,3.4,5.9,8.7C56.2,48.9,51.4,50.4,49,50.4z
	 M29,30.9c-0.6,0-1.3,0.2-2,0.6c-2.2,1.3-1.8,3.8-1.8,3.9l0.1,1l-0.9,0.2c-0.2,0-5.4,1.1-5.4,6.5c0.1,5.2,5.5,5.4,5.7,5.4H49
	c0.2,0,5.3-0.1,6-5.1c0.3-5.6-4.9-6.7-5.1-6.7L49,36.3l0.1-0.9c0-0.4,0.5-8.8-7.3-9.8c-6.7-0.7-8.8,5.4-8.9,5.6l-0.5,1.5l-1.1-1.1
	C31.1,31.6,30.3,30.9,29,30.9z"/>
<g>
	<polygon class="st0" points="32.9,44.7 32.8,44.5 31.1,41.7 31.1,41.6 31.1,41.6 34.9,35 35,34.9 35.1,35 36.8,37.9 36.8,37.9 
		36.8,38 33,44.5 	"/>
	<polygon class="st0" points="43,42.1 41.4,45 41.4,45 33.5,45 33.6,44.9 35.2,42 35.3,42 43.1,42 	"/>
	<polygon class="st0" points="42.9,41.3 39.6,41.3 39.6,41.3 39.5,41.2 35.7,34.7 35.6,34.5 35.8,34.5 39.1,34.5 39.2,34.5 
		39.2,34.6 43,41.1 43.1,41.3 	"/>
</g>
</svg>
