<?xml version="1.0" encoding="utf-8"?>
<!-- Generator: Adobe Illustrator 21.1.0, SVG Export Plug-In . SVG Version: 6.00 Build 0)  -->
<svg version="1.1" id="Layer_1" xmlns="http://www.w3.org/2000/svg" xmlns:xlink="http://www.w3.org/1999/xlink" x="0px" y="0px"
	 viewBox="0 0 74 74" style="enable-background:new 0 0 74 74;" xml:space="preserve">
<style type="text/css">
	.st0{fill:none;stroke:#FFFFFF;stroke-width:2;stroke-miterlimit:10;}
	.st1{fill:#FFFFFF;}
	.st2{fill:#FFFFFF;stroke:#FFFFFF;stroke-miterlimit:10;}
</style>
<title>digital-transformation</title>
<circle class="st0" cx="37" cy="37" r="36"/>
<path class="st0" d="M21.2,33.5c0.3,0.3,1.7-9.8,12.4-12.4"/>
<polygon class="st1" points="18,31.8 20.6,38.2 24.8,32.8 "/>
<path class="st0" d="M33.7,52.8c0.3-0.3-9.9-1.2-13-11.7"/>
<polygon class="st2" points="32.2,56.1 38.4,53.2 32.8,49.2 "/>
<path class="st0" d="M52.8,40.5c-0.3-0.3-1.7,9.8-12.5,12.3"/>
<polygon class="st1" points="56,42.2 53.5,35.8 49.2,41.2 "/>
<path class="st0" d="M40.3,21.2c-0.3,0.3,9.9,1.2,13,11.8"/>
<polygon class="st1" points="41.8,17.9 35.5,20.8 41.2,24.8 "/>
<path class="st0" d="M35.2,38.8v-3.6 M38.8,38.8v-3.6"/>
<path class="st0" d="M37,44.5c-4.1,0-7.5-3.4-7.5-7.5s3.4-7.5,7.5-7.5s7.5,3.4,7.5,7.5S41.1,44.5,37,44.5L37,44.5z"/>
</svg>
