<?xml version="1.0" encoding="utf-8"?>
<!-- Generator: Adobe Illustrator 21.1.0, SVG Export Plug-In . SVG Version: 6.00 Build 0)  -->
<svg version="1.1" id="Layer_1" xmlns="http://www.w3.org/2000/svg" xmlns:xlink="http://www.w3.org/1999/xlink" x="0px" y="0px"
	 viewBox="0 0 74 74" style="enable-background:new 0 0 74 74;" xml:space="preserve">
<style type="text/css">
	.st0{fill:none;stroke:#FFFFFF;stroke-width:2;stroke-miterlimit:10;}
	.st1{fill:none;stroke:#FFFFFF;stroke-width:1.5;stroke-miterlimit:10;}
</style>
<g id="BI">
</g>
<g id="digital-business">
	<circle class="st0" cx="36.7" cy="37" r="36"/>
	<g>
		<path class="st1" d="M48.8,33L48.8,33l3.8,0.1c0.1-0.4,0.4-0.8,0.7-1.1c0.6-0.6,1.3-0.9,2.1-0.9s1.5,0.3,2.1,0.9s0.8,1.3,0.8,2.1
			s-0.3,1.5-0.8,2.1c-0.6,0.6-1.3,0.8-2.1,0.8s-1.5-0.3-2.1-0.8c-0.4-0.4-0.7-1-0.8-1.5h-3.7v3.2h1.5c0.2,0,0.4,0.1,0.5,0.2
			c0.1,0.1,0.2,0.3,0.2,0.5v2.1h4c0.1-0.4,0.4-0.8,0.7-1.1c0.6-0.6,1.2-0.9,2.1-0.9c0.8,0,1.5,0.3,2.1,0.9c0.6,0.6,0.9,1.3,0.9,2.1
			s-0.3,1.5-0.9,2.1c-0.6,0.6-1.3,0.9-2.1,0.9s-1.5-0.3-2.1-0.9c-0.4-0.4-0.7-1-0.8-1.5h-4.6c-0.2,0-0.4-0.1-0.5-0.2
			c-0.2-0.1-0.2-0.3-0.2-0.5v-2.1h-0.7v0.2c-0.1,6.2-2.2,9.3-6.2,9.4H31.3c-4.3,0-6.5-2.2-6.5-6.5v-2h-2.5c-0.1,0.4-0.4,0.8-0.7,1.1
			c-0.6,0.6-1.3,0.9-2.1,0.9c-0.8,0-1.5-0.3-2.1-0.9c-0.6-0.6-0.9-1.3-0.9-2.1s0.3-1.5,0.9-2.1s1.3-0.9,2.1-0.9
			c0.8,0,1.5,0.3,2.1,0.9c0.4,0.4,0.7,1,0.8,1.5h2.4v-3.2h-1.7c-0.2,0-0.4-0.1-0.5-0.2c-0.2-0.1-0.2-0.3-0.2-0.5V33h-4
			c-0.1,0.4-0.4,0.8-0.7,1.1c-0.6,0.6-1.3,0.8-2.1,0.8c-0.8,0-1.5-0.3-2.1-0.8c-0.6-0.6-0.9-1.3-0.9-2.1s0.3-1.5,0.9-2.1
			c0.6-0.6,1.2-0.9,2.1-0.9c0.8,0,1.5,0.3,2.1,0.9c0.4,0.4,0.7,1,0.8,1.5h4.6c0.2,0,0.4,0.1,0.5,0.2s0.2,0.3,0.2,0.5v2.1h1v-2.7
			c0-4.3,2.2-6.5,6.5-6.5h11.2C46.5,25.1,48.6,27.8,48.8,33z"/>
		<path class="st1" d="M35.9,30.6c-0.9,0.1-1.7,0.4-2.3,0.9c-0.9,0.6-1.3,1.6-1.3,2.7c0,1.2,0.3,2,1,2.6c0.6,0.5,1.5,0.9,2.6,1.2
			c0.2,0.1,0.4,0.1,0.6,0.2c0.8,0.2,1.4,0.4,1.8,0.6c0,0,0.1,0,0.1,0.1c0.3,0.2,0.5,0.5,0.5,0.9s-0.1,0.7-0.4,0.9
			c-0.1,0-0.1,0-0.1,0.1C38,40.9,37.6,41,37.1,41c-0.4,0-0.8-0.1-1.3-0.2c-0.8-0.3-1.6-0.8-2.5-1.5l-1.7,2c1.2,1.2,2.6,1.9,4.2,2.1
			v1.2h2.3v-1.2c0.9-0.1,1.6-0.5,2.2-0.9c0.8-0.7,1.3-1.6,1.3-2.7c0-1.1-0.3-2-1-2.6c-0.6-0.5-1.4-0.9-2.5-1.2
			c-0.1-0.1-0.2-0.1-0.3-0.1c-1-0.2-1.7-0.4-2-0.6c-0.1-0.1-0.2-0.1-0.2-0.1c-0.3-0.2-0.5-0.5-0.5-0.9s0.1-0.7,0.4-0.9
			c0.1-0.1,0.2-0.2,0.3-0.2c0.2-0.1,0.5-0.2,0.7-0.2c0.5,0,1.1,0.1,1.6,0.3c0.6,0.2,1.2,0.5,1.8,1l1.4-2.1c-0.6-0.5-1.4-0.9-2.2-1.2
			c-0.4-0.1-0.7-0.2-1-0.3v-1.3h-2.3C35.9,29.4,35.9,30.6,35.9,30.6z"/>
	</g>
</g>
<g id="Intelligence_Delivery">
</g>
<g id="mouse">
</g>
<g id="BI-platfomr">
</g>
<g id="data-visul">
</g>
<g id="collaborate-report">
</g>
<g id="dataops-DB">
</g>
<g id="dataOps">
</g>
<g id="BI-DataOps">
</g>
<g id="devops-mgmt">
</g>
<g id="Layer_12">
</g>
</svg>
