<?xml version="1.0" encoding="utf-8"?>
<!-- Generator: Adobe Illustrator 21.0.2, SVG Export Plug-In . SVG Version: 6.00 Build 0)  -->
<svg version="1.1" id="Layer_1" xmlns="http://www.w3.org/2000/svg" xmlns:xlink="http://www.w3.org/1999/xlink" x="0px" y="0px"
	 viewBox="0 0 75 75" style="enable-background:new 0 0 75 75;" xml:space="preserve">
<style type="text/css">
	.st0{fill:#FFFFFF;}
</style>
<g>
	<path class="st0" d="M37.5,74.5c-20.4,0-37-16.6-37-37c0-20.4,16.6-37,37-37c20.4,0,37,16.6,37,37C74.5,57.9,57.9,74.5,37.5,74.5z
		 M37.5,2.5c-19.3,0-35,15.7-35,35s15.7,35,35,35s35-15.7,35-35S56.8,2.5,37.5,2.5z"/>
</g>
<g>
	<g>
		<path class="st0" d="M19.3,34.3L18.5,34l0.6-0.6l-0.2-0.9c-0.4,0.1-0.5,0.3-0.6,0.4c0-0.1,0.1-0.3,0.2-0.5
			C21,24.6,26,19.8,33.4,18l0.4,1.8c-6.7,1.6-11.3,6.1-13.6,13.2C20,33.7,19.9,34.1,19.3,34.3z"/>
	</g>
	<g>
		<polygon class="st0" points="16.5,32.5 18.6,37.8 22.2,33.3 		"/>
	</g>
	<g>
		<path class="st0" d="M33.3,56.6c-0.1,0-0.3-0.1-0.6-0.2c-7.8-2.2-12.8-6.9-14.9-14l1.7-0.5c2.8,9.8,11,12,13.7,12.8
			c0.9,0.2,1.2,0.3,1.4,0.9l-0.1,0.9L33,55.4l0.7,0.5l-0.9,0.2C32.9,56.4,33.1,56.6,33.3,56.6z"/>
	</g>
	<g>
		<polygon class="st0" points="32.7,58.9 38.4,56.2 33.3,52.6 		"/>
	</g>
	<g>
		<path class="st0" d="M41.6,56.9l-0.4-1.8c6.7-1.6,11.2-6,13.6-13.1c0.2-0.7,0.4-1.1,0.9-1.3l0.9,0.2l-0.6,0.6l0.1,0.9
			c0.3-0.1,0.5-0.3,0.6-0.4c0,0.1-0.1,0.3-0.2,0.5C53.9,50.3,48.9,55.1,41.6,56.9z"/>
	</g>
	<g>
		<polygon class="st0" points="58.5,42.5 56.4,37.2 52.8,41.6 		"/>
	</g>
	<g>
		<path class="st0" d="M55.5,33.2c-2.8-9.8-11-12.1-13.7-12.9c-0.9-0.2-1.2-0.4-1.4-0.9l0.1-0.9l1.4,1.1l-0.7-0.5l0.9-0.2
			c-0.1-0.3-0.3-0.5-0.4-0.5c0.1,0,0.3,0.1,0.6,0.2c7.8,2.2,12.8,7,14.9,14.1L55.5,33.2z"/>
	</g>
	<g>
		<polygon class="st0" points="42.3,16.1 36.6,18.7 41.7,22.3 		"/>
	</g>
	<g>
		<path class="st0" d="M45,47.7c-2.6,0-7-2.7-11-6.6c-2.4-2.4-4.4-5-5.6-7.3c-1.3-2.6-1.4-4.6-0.4-5.6c0.5-0.5,1.1-0.7,2-0.7
			c2.6,0,7,2.7,11,6.6c2.4,2.4,4.4,5,5.6,7.3C47.9,44,48,46,47,47C46.5,47.4,45.8,47.7,45,47.7z M30,29c-0.4,0-0.6,0.1-0.8,0.2
			c-0.4,0.4-0.4,1.6,0.7,3.7c1.1,2.2,2.9,4.6,5.2,6.9c3.6,3.6,7.7,6.1,9.8,6.1c0.4,0,0.6-0.1,0.8-0.2c0.4-0.4,0.4-1.6-0.7-3.7
			c-1.1-2.2-2.9-4.6-5.2-6.9C36.3,31.6,32.2,29,30,29z"/>
	</g>
	<g>
		<path class="st0" d="M30,47.7c-0.8,0-1.5-0.2-2-0.7c-1.1-1.1-0.9-3.1,0.4-5.6c1.2-2.3,3.1-4.9,5.6-7.3c4-4,8.4-6.6,11-6.6
			c0.8,0,1.5,0.2,2,0.7c1.1,1.1,0.9,3.1-0.4,5.6C45.4,36,43.5,38.6,41,41C37.1,45,32.6,47.7,30,47.7z M45,29c-2.1,0-6.3,2.6-9.8,6.1
			C32.9,37.4,31,39.9,30,42c-1.1,2.2-1,3.4-0.7,3.7c0.2,0.2,0.4,0.2,0.8,0.2c2.1,0,6.3-2.6,9.8-6.1c2.3-2.3,4.2-4.8,5.2-6.9
			c1.1-2.2,1-3.4,0.7-3.7C45.6,29.1,45.3,29,45,29z"/>
	</g>
	<g>
		<path class="st0" d="M37.5,39c-0.8,0-1.5-0.7-1.5-1.5s0.7-1.5,1.5-1.5s1.5,0.7,1.5,1.5S38.3,39,37.5,39z M37.5,36.9
			c-0.3,0-0.6,0.3-0.6,0.6s0.3,0.6,0.6,0.6s0.6-0.3,0.6-0.6S37.8,36.9,37.5,36.9z"/>
	</g>
</g>
</svg>
