<?xml version="1.0" encoding="utf-8"?>
<!-- Generator: Adobe Illustrator 21.0.2, SVG Export Plug-In . SVG Version: 6.00 Build 0)  -->
<svg version="1.1" id="Layer_1" xmlns="http://www.w3.org/2000/svg" xmlns:xlink="http://www.w3.org/1999/xlink" x="0px" y="0px"
	 viewBox="0 0 74 74" style="enable-background:new 0 0 74 74;" xml:space="preserve">
<style type="text/css">
	.st0{fill:none;stroke:#FFFFFF;stroke-width:2;stroke-miterlimit:10;}
	.st1{fill:#FFFFFF;}
</style>
<title>digital-transformation</title>
<circle class="st0" cx="37" cy="37" r="36"/>
<path class="st0" d="M18.3,32.9c0.4,0.4,2-11.6,14.7-14.7"/>
<polygon class="st1" points="15.3,31.6 17.8,37.7 21.8,32.5 "/>
<path class="st0" d="M33.1,55.7c0.4-0.4-11.7-1.4-15.4-13.9"/>
<polygon class="st1" points="31.7,59.1 38.2,56.1 32.4,51.9 "/>
<path class="st0" d="M55.7,41.1c-0.4-0.4-2,11.6-14.8,14.6"/>
<polygon class="st1" points="58.7,42.4 56.3,36.3 52.2,41.5 "/>
<path class="st0" d="M40.9,18.3c-0.4,0.4,11.7,1.4,15.4,14"/>
<polygon class="st1" points="42.2,14.9 35.7,17.9 41.6,22 "/>
<path class="st0" d="M34.9,39.1v-4.3 M39.1,39.1v-4.3"/>
<path class="st0" d="M37,45.9c-4.9,0-8.9-4-8.9-8.9s4-8.9,8.9-8.9s8.9,4,8.9,8.9S41.9,45.9,37,45.9L37,45.9z"/>
</svg>
