<?xml version="1.0" encoding="utf-8"?>
<!-- Generator: Adobe Illustrator 21.0.2, SVG Export Plug-In . SVG Version: 6.00 Build 0)  -->
<svg version="1.1" id="Layer_1" xmlns="http://www.w3.org/2000/svg" xmlns:xlink="http://www.w3.org/1999/xlink" x="0px" y="0px"
	 viewBox="0 0 74 74" style="enable-background:new 0 0 74 74;" xml:space="preserve">
<style type="text/css">
	.st0{fill:#FFFFFF;}
</style>
<title>Cloud &amp;amp; Infrastructure Services</title>
<path class="st0" d="M37,74C16.6,74,0,57.4,0,37C0,16.6,16.6,0,37,0c20.4,0,37,16.6,37,37C74,57.4,57.4,74,37,74z M37,2
	C17.7,2,2,17.7,2,37s15.7,35,35,35s35-15.7,35-35S56.3,2,37,2z"/>
<path class="st0" d="M25.4,21.1h23.1v31.8H25.4V21.1z M33.4,16.8h7.2v1.4h-7.2V16.8z M37,58.7c-1.2,0-2.2-1-2.2-2.2s1-2.2,2.2-2.2
	s2.2,1,2.2,2.2S38.2,58.7,37,58.7z M28.3,60.1h17.3c2.4,0,4.3-1.9,4.3-4.3V18.2c0-2.4-1.9-4.3-4.3-4.3H28.3c-2.4,0-4.3,1.9-4.3,4.3
	v37.6C24,58.2,25.9,60.1,28.3,60.1z"/>
<g id="document_x5F_text_x5F_security">
	<path class="st0" d="M41,36v-4.2L38.2,29H29v16h12v0c2.2-0.3,4-2.2,4-4.5C45,38.2,43.2,36.3,41,36z M38,30.2l1.8,1.8H38V30.2z
		 M30,44V30h7v3h3v3c-0.9,0.1-1.7,0.4-2.3,1H31v1h5.8c-0.2,0.3-0.4,0.6-0.5,1H31v1h5c0,0.2,0,0.3,0,0.5c0,1.4,0.7,2.7,1.7,3.5H30z
		 M40.5,43.9c-1.9,0-3.4-1.5-3.4-3.4c0-1.9,1.5-3.4,3.4-3.4c1.9,0,3.4,1.5,3.4,3.4C43.9,42.4,42.4,43.9,40.5,43.9z M39,35h-8v1h8V35
		z"/>
	<path class="st0" d="M42.1,40c0-0.1,0-0.1,0-0.2c0-0.3,0-0.7-0.3-1.1c-0.2-0.4-0.7-0.7-1.3-0.7c-0.6,0-1.1,0.3-1.3,0.7
		c-0.2,0.4-0.3,0.8-0.3,1.1c0,0.1,0,0.1,0,0.2h-0.4v2.5h4V40H42.1z M39.9,39.8c0-0.2,0-0.5,0.1-0.6c0.1-0.1,0.1-0.2,0.5-0.2
		c0.3,0,0.4,0.1,0.5,0.2c0.1,0.1,0.1,0.4,0.1,0.6c0,0.1,0,0.1,0,0.2h-1.1C39.9,39.9,39.9,39.9,39.9,39.8z"/>
</g>
</svg>
