<?xml version="1.0" encoding="utf-8"?>
<!-- Generator: Adobe Illustrator 21.1.0, SVG Export Plug-In . SVG Version: 6.00 Build 0)  -->
<svg version="1.1" id="Layer_1" xmlns="http://www.w3.org/2000/svg" xmlns:xlink="http://www.w3.org/1999/xlink" x="0px" y="0px"
	 viewBox="0 0 74 74" style="enable-background:new 0 0 74 74;" xml:space="preserve">
<style type="text/css">
	.st0{fill:none;stroke:#FFFFFF;stroke-width:2;stroke-miterlimit:10;}
	.st1{fill:#FFFFFF;}
	.st2{fill:none;}
</style>
<g id="BI">
</g>
<g id="digital-business">
</g>
<circle class="st0" cx="37.4" cy="37" r="36"/>
<g>
	<g>
		<path class="st1" d="M50.4,29.1c0-6.7-5.5-12.2-12.2-12.2S26,22.4,26,29.1c0,2.9,1.1,5.8,3,8.1c0.5,0.8,1.5,2.6,2.1,5.7l0,0
			c0.2,1.3,0.9,2.4,1.9,3.1v0.1v5.7c0,1.2,0.6,2.4,1.6,3.1l0,0l0,0h7.2c1-0.7,1.6-1.9,1.6-3.1v-5.7V46c1-0.7,1.6-1.7,1.8-2.9v-0.2
			c0.7-3.9,2-5.7,2.4-6.1l0.1-0.1l0,0C49.5,34.5,50.4,31.8,50.4,29.1z M35,54.5L35,54.5L35,54.5L35,54.5z M41.9,47.9L41.9,47.9
			c-0.3,0-0.8,0-1.2,0s-0.9,0-1.2,0h-0.1c0,0-0.1,0-0.1,0.1c-0.1,0-0.1,0.1-0.2,0.1S39,48.2,39,48.2s0.1,0,0.1,0.1
			c0,0,0.1,0.1,0.2,0.1c0,0,0.1,0,0.1,0.1h0.1c0.3,0,0.8,0,1.2,0s0.9,0,1.2,0l0,0v1.9l0,0c-0.3,0-0.8,0-1.2,0s-0.9,0-1.2,0h-0.1
			c0,0-0.1,0-0.1,0.1c-0.1,0-0.1,0.1-0.2,0.1c-0.1,0-0.1,0-0.1,0s0.1,0,0.1,0.1c0,0,0.1,0.1,0.2,0.1c0,0,0.1,0,0.1,0.1h0.1
			c0.3,0,0.8,0,1.2,0s0.9,0,1.2,0l0,0v0.9c0,0.5-0.2,1.1-0.5,1.5h-6.3c-0.3-0.4-0.5-0.9-0.5-1.5v-0.9c0.3,0,0.7,0,1.1,0
			c0.4,0,0.8,0,1.1,0h0.1c0,0,0.1,0,0.1-0.1c0.1,0,0.1-0.1,0.2-0.1c0.1-0.1,0.1-0.1,0.1-0.1s-0.1,0-0.1-0.1c0,0-0.1-0.1-0.2-0.1
			c0,0-0.1,0-0.1-0.1h-0.1c-0.3,0-0.7,0-1.1,0c-0.4,0-0.8,0-1.1,0v-1.9c0.3,0,0.7,0,1.1,0c0.4,0,0.8,0,1.1,0h0.1c0,0,0.1,0,0.1-0.1
			c0.1,0,0.1-0.1,0.2-0.1c0.1-0.1,0.1-0.1,0.1-0.1s-0.1,0-0.1-0.1c0,0-0.1-0.1-0.2-0.1c0,0-0.1,0-0.1-0.1h-0.1c-0.3,0-0.7,0-1.1,0
			c-0.4,0-0.8,0-1.1,0v-1.2l0,0c0.1,0,0.2,0,0.4,0.1h0.1c0.2,0,0.3,0,0.5,0H41c0.2,0,0.3,0,0.5,0c0,0,0,0,0.1,0s0.3,0,0.4-0.1l0,0
			L41.9,47.9L41.9,47.9z M38.7,40C38.7,40,38.7,40.1,38.7,40c0,0.2,0.1,0.5,0.1,0.9c0.2,1.1,0.5,3,0.5,4.3h-2.2
			c0-1.2,0.3-3.2,0.5-4.3c0.1-0.4,0.1-0.7,0.1-0.8V40 M37,40.1c0,0.2-0.1,0.4-0.1,0.8c-0.3,1.6-0.5,3.2-0.5,4.4h-0.9
			c-0.2,0-0.3,0-0.5,0h-0.1c-0.1,0-0.2-0.1-0.4-0.1c0,0-0.1,0-0.1-0.1c-0.9-0.4-1.6-1.2-1.7-2.2l0,0c-0.7-3.5-1.8-5.6-2.5-6.5l0,0
			l0,0c-0.3-0.4-0.5-0.6-0.5-0.6l0,0c-1.4-1.9-2.1-4.2-2.1-6.5c0-5.9,4.8-10.6,10.6-10.6c5.9,0,10.6,4.8,10.6,10.6
			c0,2.5-0.9,4.9-2.4,6.8l0,0c-0.6,0.7-1.9,2.7-2.6,6.7V43c-0.2,1.2-1.1,2.1-2.2,2.3h-0.1c-0.2,0-0.3,0-0.5,0h-0.8
			c0-1.1-0.2-2.8-0.5-4.4c-0.1-0.3-0.1-0.6-0.1-0.8"/>
		<path class="st1" d="M36.5,49c-0.1,0-0.1,0-0.2,0c-0.1,0-0.1,0-0.1,0.1c-0.1,0-0.2,0.1-0.2,0.1c-0.1,0.1-0.2,0.1-0.2,0.1
			s0.1,0,0.2,0.1c0.1,0,0.1,0.1,0.2,0.1c0,0,0.1,0,0.1,0.1c0.1,0,0.1,0,0.2,0c0.5,0,1.1,0,1.7,0c0.6,0,1.2,0,1.7,0
			c0.1,0,0.1,0,0.2,0c0.1,0,0.1,0,0.1-0.1c0.1,0,0.2-0.1,0.2-0.1c0.1-0.1,0.2-0.1,0.2-0.1s-0.1,0-0.2-0.1c-0.1,0-0.1-0.1-0.2-0.1
			c0,0-0.1,0-0.1-0.1c-0.1,0-0.1,0-0.2,0c-0.5,0-1.1,0-1.7,0S37,49,36.5,49z"/>
		<path class="st1" d="M36.5,51.5c-0.1,0-0.1,0-0.2,0c-0.1,0-0.1,0-0.1,0.1c-0.1,0-0.2,0.1-0.2,0.1c-0.1,0.1-0.2,0.1-0.2,0.1
			s0.1,0,0.2,0.1c0.1,0,0.1,0.1,0.2,0.1c0,0,0.1,0,0.1,0.1c0.1,0,0.1,0,0.2,0c0.5,0,1.1,0,1.7,0c0.6,0,1.2,0,1.7,0
			c0.1,0,0.1,0,0.2,0c0.1,0,0.1,0,0.1-0.1c0.1,0,0.2-0.1,0.2-0.1c0.1-0.1,0.2-0.1,0.2-0.1s-0.1,0-0.2-0.1c-0.1,0-0.1-0.1-0.2-0.1
			c0,0-0.1,0-0.1-0.1c-0.1,0-0.1,0-0.2,0c-0.5,0-1.1,0-1.7,0S37,51.5,36.5,51.5z"/>
		<path class="st1" d="M38.2,56.9c1.3,0,2.5-0.6,3.2-1.7h-6.6C35.7,56.2,37,56.9,38.2,56.9z"/>
	</g>
	<g>
		<line class="st2" x1="25.2" y1="21.1" x2="11.3" y2="7.2"/>
	</g>
	<g>
		<line class="st2" x1="49.6" y1="20.2" x2="63.4" y2="6.3"/>
	</g>
	<g>
		<path class="st1" d="M37.7,32.9c-0.1,0.1-0.2,0.3-0.2,0.4l-1.2-0.7c-0.1-0.1-0.2-0.2-0.1-0.3c0.1-0.1,0.2-0.2,0.3-0.1L37.7,32.9z
			 M41.7,30.7l-3,2.1c0.1,0.1,0.2,0.2,0.3,0.4l3-2.1c0.1-0.1,0.1-0.2,0.1-0.3C41.9,30.7,41.8,30.7,41.7,30.7z M45,33.4
			c0,3.7-3,6.8-6.8,6.8c-3.7,0-6.8-3-6.8-6.8s3-6.8,6.8-6.8C42,26.7,45,29.7,45,33.4z M44.1,33.4c0-3.2-2.6-5.9-5.9-5.9
			s-5.9,2.6-5.9,5.9s2.6,5.9,5.9,5.9S44.1,36.7,44.1,33.4z M38.8,33.4c0,0.3-0.3,0.6-0.6,0.6s-0.6-0.3-0.6-0.6s0.3-0.6,0.6-0.6
			C38.6,32.9,38.8,33.1,38.8,33.4z M38.5,33.4c0-0.2-0.1-0.3-0.3-0.3s-0.3,0.1-0.3,0.3s0.1,0.3,0.3,0.3S38.5,33.6,38.5,33.4z
			 M38.5,27.9H38v1.4h0.6L38.5,27.9L38.5,27.9z M38,39h0.6v-1.4H38V39z M32.7,33.7h1.4v-0.6h-1.4V33.7z M42.4,33.2v0.6h1.4v-0.6
			H42.4z"/>
	</g>
</g>
<g id="mouse">
</g>
<g id="BI-platfomr">
</g>
<g id="data-visul">
</g>
<g id="collaborate-report">
</g>
<g id="dataops-DB">
</g>
<g id="dataOps">
</g>
<g id="BI-DataOps">
</g>
<g id="devops-mgmt">
</g>
<g id="Layer_12">
</g>
</svg>
