<?xml version="1.0" encoding="utf-8"?>
<!-- Generator: Adobe Illustrator 21.1.0, SVG Export Plug-In . SVG Version: 6.00 Build 0)  -->
<svg version="1.1" id="Layer_1" xmlns="http://www.w3.org/2000/svg" xmlns:xlink="http://www.w3.org/1999/xlink" x="0px" y="0px"
	 viewBox="0 0 74 74" style="enable-background:new 0 0 74 74;" xml:space="preserve">
<style type="text/css">
	.st0{fill:none;stroke:#FFFFFF;stroke-width:2;stroke-miterlimit:10;}
	.st1{fill:#FFFFFF;}
</style>
<title>Cloud &amp;amp; Infrastructure Services</title>
<circle class="st0" cx="37" cy="37" r="36"/>
<path class="st1" d="M43.3,20.2l0.3-1.2l-2.3,0.6L39.4,20l1.1,1.1l2,2l0.3-1.3c6.1,2.4,10.4,8.2,10.4,15.1c0,9-7.3,16.2-16.2,16.2
	c-9,0-16.2-7.3-16.2-16.2c0-7.7,5.4-14.2,12.6-15.8L33,19.5c-8,1.8-14,9-14,17.5c0,9.9,8.1,18,18,18s18-8.1,18-18
	C55,29.3,50.1,22.7,43.3,20.2z"/>
<g>
	<path class="st1" d="M29.2,44.8c-2.2,0-3.7-1.1-4.3-3.3c-0.7-2.3,0.1-5,2.1-6.4c0.8-0.6,1.8-0.9,2.9-0.9c0.2,0,0.4,0,0.7,0
		c0.1,0,0.1,0,0.2,0c0.2,0,0.3,0,0.4-0.4c1-2.9,3.5-4.7,6.4-4.7c0.3,0,0.6,0,0.9,0.1c3.3,0.4,5.6,2.8,6,6.2c0,0.3,0.1,0.3,0.4,0.3
		c0.1,0,0.2,0,0.3,0c1.5,0.2,2.8,1.1,3.5,2.4c0.7,1.3,0.7,2.8,0,4.2c-0.8,1.7-2.3,2.5-4.3,2.5C44.4,44.8,29.2,44.8,29.2,44.8z
		 M30,36c-1,0-1.9,0.4-2.5,1.3c-1.1,1.4-1.2,3.5-0.2,4.8c0.4,0.6,0.8,0.9,1.4,0.9h16.1c1.2,0,2.1-0.5,2.6-1.6c0.4-1,0.3-2-0.4-2.9
		c-0.6-0.6-1.2-1-2-1c-0.3,0-0.6,0-0.9,0.1c-0.2,0.1-0.4,0.1-0.5,0.1c-0.3,0-0.4-0.1-0.5-0.2c-0.2-0.2-0.1-0.6-0.1-0.9
		c0-0.1,0-0.3,0-0.4c0.1-2.7-1.9-5-4.6-5.3c-0.2,0-0.3,0-0.5,0c-2.5,0-4.6,1.8-5,4.3c0,0.2-0.1,0.4-0.1,0.6c0,0.2-0.1,0.3-0.1,0.5
		l-0.1,0.3l-0.3-0.1l-0.3,0c-0.1,0-0.2-0.1-0.4-0.1C31.1,36.1,30.5,36,30,36z"/>
	<path class="st1" d="M38.1,34.4C38.1,34.3,38.1,34.3,38.1,34.4C38.1,34.3,38.1,34.3,38.1,34.4C38,34.3,38,34.3,38.1,34.4
		c-0.1-0.1-0.2-0.1-0.3-0.2c0,0,0,0-0.1,0c0,0,0,0-0.1,0c0,0,0,0-0.1,0s0,0-0.1,0h-0.1c0,0,0,0-0.1,0l0,0l0,0l0,0L35.4,36
		c-0.2,0.2-0.2,0.6,0,0.9s0.6,0.2,0.9,0l0.9-0.9v5c0,0.3,0.3,0.6,0.6,0.6s0.6-0.3,0.6-0.6v-4.8l0.9,0.9c0.2,0.2,0.6,0.2,0.9,0
		s0.2-0.6,0-0.9L38.1,34.4z"/>
	<path class="st1" d="M37.8,41.5c-0.3,0-0.5-0.2-0.5-0.5v-5l-1,1c-0.1,0.1-0.2,0.2-0.4,0.2c-0.1,0-0.3-0.1-0.4-0.2
		c-0.2-0.2-0.2-0.5,0-0.7l1.9-1.9v-0.1l0,0l0,0l0,0c0,0,0,0,0.1,0h0.2h0.2l0,0c0,0,0.1,0.1,0.2,0.1v0.1l2,1.8c0.2,0.2,0.2,0.5,0,0.7
		c-0.1,0.1-0.2,0.2-0.4,0.2s-0.3-0.1-0.4-0.2l-1-1v5C38.3,41.2,38,41.5,37.8,41.5z"/>
</g>
</svg>
