<?xml version="1.0" encoding="utf-8"?>
<!-- Generator: Adobe Illustrator 21.0.0, SVG Export Plug-In . SVG Version: 6.00 Build 0)  -->
<svg version="1.1" id="Layer_1" xmlns="http://www.w3.org/2000/svg" xmlns:xlink="http://www.w3.org/1999/xlink" x="0px" y="0px"
	 viewBox="0 0 74 74" style="enable-background:new 0 0 74 74;" xml:space="preserve">
<style type="text/css">
	.st0{fill:none;stroke:#006FAF;stroke-width:2;stroke-miterlimit:10;}
	.st1{fill:#006FAF;}
</style>
<title>Azure_Site_Recovery</title>
<circle class="st0" cx="37" cy="37" r="36"/>
<g>
	<path class="st1" d="M21.2,23.2c0-0.5,0.3-0.8,0.8-0.8c0.4,0,0.8,0.4,0.8,0.8c0,0.4-0.4,0.8-0.8,0.8C21.5,24,21.2,23.6,21.2,23.2z"
		/>
	<path class="st1" d="M29.2,23.2c0,0.5-0.4,0.8-0.8,0.8c-0.4,0-0.8-0.4-0.8-0.8c0-0.5,0.4-0.8,0.8-0.8
		C28.9,22.4,29.2,22.7,29.2,23.2z"/>
	<path class="st1" d="M26,23.2c0,0.4-0.4,0.8-0.8,0.8c-0.4,0-0.8-0.4-0.8-0.8c0-0.4,0.4-0.8,0.8-0.8C25.6,22.4,26,22.7,26,23.2z"/>
	<g>
		<path class="st1" d="M49.9,19.1c0.3,0.1,0.5,0.1,0.8,0.2c1.6,0.5,2.7,2,2.7,3.7c0,5.1,0,10.2,0,15.3c0,0.5-0.3,0.9-0.8,0.9
			c-0.5,0-0.8-0.4-0.8-0.9c0-3.6,0-7.2,0-10.7c0-0.1,0-0.3,0-0.4c-10.8,0-21.5,0-32.3,0c0,0.1,0,0.3,0,0.4c0,7.6,0,15.2,0,22.8
			c0,1.4,0.8,2.4,2,2.6c0.2,0,0.5,0,0.8,0c4.6,0,9.2,0,13.8,0c0.1,0,0.2,0,0.3,0c0.5,0,0.9,0.4,0.8,0.8c0,0.5-0.3,0.8-0.8,0.8
			c-1.4,0-2.7,0-4.1,0c-3.4,0-6.8,0-10.1,0c-2.4,0-4-1.7-4.2-3.4c0,0,0-0.1-0.1-0.1c0-9.5,0-19,0-28.5c0-0.1,0.1-0.1,0.1-0.2
			c0.3-1.5,1.3-2.6,2.7-3.1c0.2-0.1,0.4-0.1,0.7-0.2C30.9,19.1,40.4,19.1,49.9,19.1z M51.8,25.5c0-0.9,0-1.7,0-2.6
			c0-0.5-0.3-1-0.6-1.4c-0.5-0.6-1.2-0.8-2-0.8c-6,0-12.1,0-18.1,0c-3,0-5.9,0-8.9,0c-1.2,0-2.3,0.7-2.5,1.9c-0.1,1,0,2,0,3
			C30.3,25.5,41,25.5,51.8,25.5z"/>
		<path class="st1" d="M46.4,59.1c-0.5-0.1-1-0.2-1.5-0.3c-4.7-1.2-7.9-5.5-7.7-10.2c0.2-5,3.8-8.9,8.6-9.7c5.6-0.9,11,3.1,11.6,8.8
			c0,0.1,0.1,0.2,0.1,0.3c0,0.6,0,1.2,0,1.8c0,0.1-0.1,0.2-0.1,0.3c-0.5,4.2-3.5,7.6-7.6,8.6c-0.5,0.1-1,0.2-1.6,0.3
			C47.6,59.1,47,59.1,46.4,59.1z M47.3,40.7c-4.6,0-8.3,3.7-8.3,8.3c0,4.6,3.7,8.3,8.3,8.3c4.5,0,8.3-3.7,8.3-8.3
			C55.6,44.4,51.9,40.7,47.3,40.7z"/>
		<g>
			<path class="st1" d="M49,46.6c1.4,0,2.7,0,4.1,0c0.2,0,0.2,0,0.1,0.1c-0.9,1.5-1.8,3.1-2.6,4.6c-0.1,0.1-0.1,0.2-0.3,0.2
				c-1.4,0-2.8,0-4.3,0c-0.1,0-0.2-0.1-0.2,0.1c0,0.1,0.1,0.2,0.2,0.2c1.1,0,2.2,0,3.3,0c0.3,0,0.6,0,0.8,0c0.1,0,0.1,0,0.1,0.1
				c0,0.2,0.1,0.4,0,0.5c-0.1,0.1-0.3,0-0.5,0c-1.4,0-2.8,0-4.2,0c-0.1,0-0.2,0-0.2-0.2c-0.8-2.4-1.6-4.7-2.4-7.1
				c0-0.1-0.1-0.2-0.2-0.2c-0.3,0-0.7,0-1,0c-0.1,0-0.1,0-0.1-0.1c0-0.1,0-0.3,0-0.4c0-0.1,0-0.1,0.1-0.1c0.5,0,1,0,1.5,0
				c0.1,0,0.1,0.1,0.1,0.1c0.4,1.3,0.8,2.5,1.3,3.8c0.3,0.8,0.5,1.6,0.8,2.4c0,0.1,0.1,0.1,0.2,0.1c1.4,0,2.8,0,4.3,0
				c0.1,0,0.2,0,0.2-0.1c0.6-1.1,1.3-2.3,1.9-3.4c0.1-0.2,0.1-0.2-0.1-0.2c-2.3,0-4.6,0-6.8,0c-0.1,0-0.2,0-0.2-0.2
				c0-0.1-0.1-0.2-0.1-0.3c-0.1-0.1,0-0.2,0.1-0.2c0.7,0,1.5,0,2.2,0C47.7,46.6,48.3,46.6,49,46.6z"/>
			<path class="st1" d="M46.2,54c-0.3,0-0.6-0.3-0.6-0.6c0-0.3,0.3-0.6,0.6-0.6c0.3,0,0.6,0.3,0.6,0.6C46.8,53.7,46.6,54,46.2,54z"
				/>
			<path class="st1" d="M49.6,53.4c0,0.3-0.3,0.6-0.6,0.6c-0.3,0-0.6-0.3-0.6-0.6c0-0.3,0.3-0.6,0.6-0.6
				C49.3,52.8,49.6,53.1,49.6,53.4z"/>
		</g>
	</g>
</g>
</svg>
