<?xml version="1.0" encoding="utf-8"?>
<!-- Generator: Adobe Illustrator 21.0.2, SVG Export Plug-In . SVG Version: 6.00 Build 0)  -->
<svg version="1.1" id="Layer_1" xmlns="http://www.w3.org/2000/svg" xmlns:xlink="http://www.w3.org/1999/xlink" x="0px" y="0px"
	 viewBox="0 0 74 74" style="enable-background:new 0 0 74 74;" xml:space="preserve">
<style type="text/css">
	.st0{fill:none;stroke:#006FAF;stroke-width:2;stroke-miterlimit:10;}
	.st1{fill:#006FAF;}
</style>
<title>Cloud &amp;amp; Infrastructure Services</title>
<circle class="st0" cx="37" cy="37" r="36"/>
<g>
	<path class="st1" d="M51.8,46.5C50.3,43.2,38,26.9,40.3,32c5.1,11.1,2.5,12.4,3.7,18.4c0.6,2.9,3.6,4.5,6,3.6
		C52.1,53.2,53.4,50.4,51.8,46.5z M41.3,27.1c1.8-2.2,1.2-5.6-0.9-6.9c-1.9-1.1-4.8-0.6-6.5,3.3c-0.4,0.9-1.3,3.9-2.3,7.3
		c-0.8,2.1-2.4,6.1-3.8,8.1c-0.1,0.1-0.1,0.2-0.2,0.3c-2.7,3.9-5.3,7.9-5.7,9c-1,2.7-0.2,5.1,2.1,6c2.4,0.9,5.5-0.7,6-3.6
		c0.3-1.7,0.3-5.1,1-9.4c0.4-1.8,1.6-6,4.4-8.8C37.5,30.4,39.2,29.6,41.3,27.1z"/>
	<path class="st1" d="M41.7,41.6c0,2.4-1.9,4.3-4.3,4.3c-2.4,0-4.3-1.9-4.3-4.3c0-2.4,1.9-4.3,4.3-4.3
		C39.7,37.3,41.7,39.2,41.7,41.6z"/>
</g>
</svg>
