<?xml version="1.0" encoding="utf-8"?>
<!-- Generator: Adobe Illustrator 21.0.2, SVG Export Plug-In . SVG Version: 6.00 Build 0)  -->
<svg version="1.1" id="Layer_1" xmlns="http://www.w3.org/2000/svg" xmlns:xlink="http://www.w3.org/1999/xlink" x="0px" y="0px"
	 viewBox="0 0 74 74" style="enable-background:new 0 0 74 74;" xml:space="preserve">
<style type="text/css">
	.st0{fill:none;stroke:#006FAF;stroke-width:2;stroke-miterlimit:10;}
	.st1{fill:#006FAF;}
</style>
<circle class="st0" cx="37" cy="37" r="36"/>
<g>
	<path class="st1" d="M32.1,37c-1.3,0-2.8-0.1-4.2,0.2c-2.6,0.6-4.4,2.1-5.5,4.5c-0.3,0.6-0.3,0.6-0.8,0.2c-2.1-2-2.7-5.1-1.6-7.5
		c1.3-2.7,3.9-4.3,6.8-4.1c1.6,0.1,3,0.8,4.2,2c1.4,1.4,2.8,2.8,4.2,4.2c0.1,0.1,0.3,0.2,0.3,0.4c-0.1,0.2-0.3,0.1-0.4,0.1
		C34.1,37,33.2,37,32.1,37z"/>
	<path class="st1" d="M36.1,32.4c0,1.1,0,2.1,0,3.2c0,0.1,0,0.3-0.1,0.4c-0.1,0.1-0.2-0.1-0.3-0.2c-1.4-1.4-2.7-2.7-4.1-4.1
		c-2.4-2.3-5.2-2.8-8.3-1.7c-0.7,0.2-0.7,0.3-0.7-0.5c0-2.8,1.2-4.8,3.7-6.1c2.4-1.2,4.8-1,7,0.5c1.9,1.3,2.7,3.2,2.8,5.5
		C36.2,30.4,36.1,31.4,36.1,32.4L36.1,32.4z"/>
	<path class="st1" d="M37,32c-0.1-1,0.1-2.2-0.1-3.4c-0.4-3-2-5.1-4.7-6.3c-0.5-0.2-0.5-0.2-0.1-0.6c3-3.2,8.1-2.8,10.6,0.8
		c1.7,2.6,1.5,6-0.6,8.3c-1.5,1.6-3,3.1-4.6,4.6c-0.1,0.1-0.2,0.3-0.3,0.2C37,35.4,37,35.2,37,35.1C37,34.1,37,33.1,37,32z"/>
	<path class="st1" d="M41.9,36.1c-1.2,0-2.2,0-3.2,0c-0.2,0-0.4,0.1-0.5-0.1c-0.1-0.2,0.2-0.3,0.3-0.4c1.3-1.3,2.7-2.6,4-4
		c2.2-2.4,2.8-5.1,1.7-8.2c-0.2-0.7-0.3-0.7,0.5-0.7c3.6,0,6.4,2.5,6.8,6.1c0.4,3.3-2.1,6.5-5.5,7.2C44.5,36.2,43.1,36.1,41.9,36.1z
		"/>
	<path class="st1" d="M37,42.3c0.1,1-0.1,2.2,0.1,3.4c0.4,2.9,2,4.9,4.7,6c0.4,0.2,0.4,0.3,0.2,0.6c-1.2,1.2-2.6,1.9-4.2,2.1
		c-4,0.5-7.6-2.8-7.4-6.9c0.1-1.9,0.9-3.4,2.2-4.7c1.4-1.4,2.7-2.7,4.1-4.1c0.1-0.1,0.2-0.3,0.4-0.2c0.1,0.1,0.1,0.3,0.1,0.4
		C37,40,37,41,37,42.3z"/>
	<path class="st1" d="M32.3,37.9c1,0,2,0,3.1,0c0.2,0,0.5-0.1,0.5,0.1c0.1,0.2-0.2,0.3-0.3,0.5c-1.2,1.2-2.5,2.5-3.7,3.7
		c-2.4,2.5-3,5.4-1.8,8.7c0.1,0.4,0.1,0.5-0.3,0.5c-3.6,0.3-7-2.8-7-6.4c-0.1-4,2.9-7,6.9-7C30.5,37.9,31.4,37.9,32.3,37.9
		L32.3,37.9z"/>
	<path class="st1" d="M37.9,42c0-1.4,0-2.5,0-3.6c0-0.1,0-0.3,0.1-0.3c0.2-0.1,0.2,0.1,0.3,0.2c1.3,1.2,2.5,2.5,3.8,3.7
		c1.6,1.7,3.6,2.6,5.9,2.5c1,0,1.9-0.2,2.8-0.6c0.4-0.2,0.5-0.1,0.5,0.4c0.1,3.6-2.6,6.7-6.1,7c-3.6,0.3-6.7-2.2-7.2-5.8
		C37.8,44.2,38,43,37.9,42z"/>
	<path class="st1" d="M42.2,37c1.2,0,2.6,0.1,4-0.2c2.6-0.6,4.4-2.1,5.5-4.5c0.2-0.6,0.3-0.6,0.7-0.2c2.7,2.4,2.8,6.8,0.3,9.5
		c-2.6,2.8-7.1,2.9-9.9-0.1c-1.3-1.4-2.7-2.7-4.1-4.1c-0.1-0.1-0.3-0.2-0.2-0.4s0.3-0.1,0.4-0.1C40,37,41,37,42.2,37z"/>
</g>
</svg>
