<?xml version="1.0" encoding="utf-8"?>
<!-- Generator: Adobe Illustrator 21.0.2, SVG Export Plug-In . SVG Version: 6.00 Build 0)  -->
<svg version="1.1" id="Layer_1" xmlns="http://www.w3.org/2000/svg" xmlns:xlink="http://www.w3.org/1999/xlink" x="0px" y="0px"
	 viewBox="0 0 74 74" style="enable-background:new 0 0 74 74;" xml:space="preserve">
<style type="text/css">
	.st0{fill:none;stroke:#006FAF;stroke-width:2;stroke-miterlimit:10;}
	.st1{fill:#006FAF;}
	.st2{fill:none;}
	.st3{fill-rule:evenodd;clip-rule:evenodd;fill:none;stroke:#006FAF;stroke-width:2;stroke-miterlimit:10;}
	.st4{fill:#006FAF;stroke:#006FAF;stroke-miterlimit:10;}
	.st5{fill:#FFFFFF;}
</style>
<circle class="st3" cx="37" cy="37" r="36"/>
<g>
	<path id="AWS" class="st1" d="M17,33.9l4.1,1.3v6.1L17,39.8 M22.3,41.3l4.3-1.5v-5.9l-4.1,1.3 M21.8,34.6l3.9-1.2l-3.9-1.2
		l-3.9,1.2"/>
	<path id="AWS-2" class="st1" d="M28.9,33.9l4.1,1.3v6.1l-4.1-1.5 M34.1,41.3l4.3-1.5v-5.9l-4.1,1.3 M33.6,34.6l3.9-1.2l-3.9-1.2
		l-3.9,1.2"/>
	<path id="AWS-3" class="st1" d="M35.6,24.4l4.1,1.3v6.1l-4.1-1.5 M40.9,31.9l4.3-1.5v-5.9l-4.3,1.3 M40.4,25.2l3.9-1.2l-3.9-1.2
		L36.4,24"/>
	<path id="AWS-4" class="st1" d="M47.5,24.4l4.1,1.3v6.1l-4.1-1.5 M52.7,31.9l4.3-1.5v-5.9l-4.1,1.3 M52.2,25.2l3.9-1.2l-3.9-1.2
		L48.3,24"/>
	<path id="AWS-5" class="st1" d="M23.1,43.8l4.1,1.3v6.1l-4.1-1.3 M28.4,51.1l4.3-1.5v-5.9l-4.3,1.2 M27.9,44.4l3.9-1.2l-3.9-1.2
		l-4,1.2"/>
</g>
</svg>
