<?xml version="1.0" encoding="utf-8"?>
<!-- Generator: Adobe Illustrator 21.0.2, SVG Export Plug-In . SVG Version: 6.00 Build 0)  -->
<svg version="1.1" id="Layer_1" xmlns="http://www.w3.org/2000/svg" xmlns:xlink="http://www.w3.org/1999/xlink" x="0px" y="0px"
	 viewBox="0 0 74 74" style="enable-background:new 0 0 74 74;" xml:space="preserve">
<style type="text/css">
	.st0{fill:#006FAF;}
</style>
<title>health-checks</title>
<g>
	<path class="st0" d="M37,0C16.6,0,0,16.6,0,37s16.6,37,37,37s37-16.6,37-37S57.4,0,37,0z M28,65c-0.5,0.6-0.8,1.4-0.8,2.2
		c-0.1-0.6,0-1.1,0.3-1.5C27.6,65.5,27.8,65.3,28,65z M35.4,66.2c0,0.4,0.5,0.8,0.8,1l0.1,0.1c0.3,0.2,1.1,0.9,1.4,1.1
		c-0.2,0-0.4,0-0.6,0c-2.9,0-4.9-2.6-6.8-8.5h1.1c1.5,0,2.9,0,4.2,0.4c3.1,0.8,5.5,3.6,5.7,6.7c-0.2,0.5-0.3,0.6-0.3,0.6l0,0
		c-0.1,0-0.2,0-0.5-0.2c-0.5-0.3-1-0.6-1.6-1L38.1,66l-0.8-0.5l-0.1-0.1l0,0c-0.2-0.1-0.5-0.3-0.8-0.3s-0.5,0.1-0.7,0.4
		C35.4,65.8,35.3,66,35.4,66.2z M36.5,71.9c-0.1,0-0.3,0-0.4,0c-0.1,0-0.2,0-0.3,0c-0.4,0-0.7,0-1.1,0c-2.2-0.1-4.4-0.5-6.5-1
		c2.4-1.5,4.9-1.4,7.7,0.2l0.1,0.1c0.6,0.2,0.7,0.4,0.7,0.6C36.7,71.9,36.6,71.9,36.5,71.9z M43,71.4c-0.2,0.1-0.3,0.1-0.4,0.1
		c0.8-1,1.7-1.5,2.8-1.5c0.6,0,1.2,0.1,1.9,0.4C45.9,70.8,44.5,71.2,43,71.4z M58.9,64.3c-2,1.6-4.2,3-6.6,4.2
		c0-0.1-0.1-0.2-0.1-0.2c0-0.1-0.1-0.1,0.2-0.3l0.1-0.1c0.4-0.4,0.8-0.8,1.3-1.2c0.5-0.5,1-1,1.5-1.4l0.1-0.1
		c0.3-0.3,0.8-0.8,0.3-1.4c-0.2-0.2-0.4-0.3-0.6-0.3c-0.4,0-0.7,0.3-0.9,0.4c-1.1,0.9-2.1,1.7-3.2,2.6l-0.7,0.6
		c-0.3-1.8,0.3-3.7,1.6-5.2c2.1-2.4,5.6-3.6,9.2-3.3c-0.7,1.5-1.2,3-1.6,4.5C59.4,63.6,59.2,63.9,58.9,64.3z M62.3,61.2
		c-0.8,0.8-1.6,1.5-2.4,2.2c0-0.1,0.1-0.2,0.1-0.3c0.4-1.6,0.9-3.1,1.7-4.7l0.1-0.3h-0.3c-3.9-0.4-7.7,0.9-10,3.4
		c-1.6,1.8-2.2,4-1.7,6.1l0.1,0.4l1.4-1.1c1.1-0.9,2.1-1.7,3.2-2.6c0.5-0.4,0.6-0.3,0.8-0.2c0.2,0.2,0.1,0.3-0.3,0.7l-0.1,0.1
		c-0.5,0.5-1,1-1.5,1.4c-0.4,0.4-0.9,0.8-1.3,1.2L52,67.6c-0.2,0.2-0.6,0.5-0.3,1c0,0.1,0.1,0.1,0.1,0.1c-1.3,0.6-2.6,1.1-3.9,1.6
		c-2.6-1.2-4.7-0.8-6.1,1.4C40.2,71.9,38.6,72,37,72c0.2-0.7-0.4-1.1-0.8-1.3l-0.1-0.1c-2.8-1.6-5.4-1.7-7.9-0.3l-0.1-1
		c-0.2-2.3-0.2-3.9,2.1-5.2l0.7-0.4c1.6,3.6,3.6,5.5,6,5.5c0.4,0,0.9-0.1,1.6-0.2l0.7-0.1l-0.6-0.4c-0.1-0.1-0.2-0.2-0.3-0.3
		c-0.1-0.1-0.2-0.1-0.3-0.3c-0.5-0.3-1-0.7-1.4-1.1l-0.1-0.1c-0.5-0.4-0.5-0.6-0.4-0.8c0.1-0.1,0.1-0.1,0.2-0.1
		c0.1,0,0.2,0.1,0.4,0.2c0.1,0.1,0.2,0.1,0.2,0.1l0,0l1.5,0.9c0.2,0.1,0.4,0.2,0.6,0.4c0.3,0.2,0.7,0.4,1,0.6s0.6,0.3,0.9,0.3
		c0.1,0,0.3,0,0.4-0.1c0.3-0.2,0.4-0.6,0.4-1.3c-0.2-3.3-2.8-6.3-6.3-7.2c-1.4-0.4-2.9-0.4-4.4-0.4h-1.9l0.1,0.4
		c0.4,1.2,0.8,2.5,1.3,3.7l-0.8,0.1c-1.4,0.1-2.4,0.8-3,1.9c-0.6,1.2-0.4,2.8,0.5,4.2l0.6,0.9c-0.2,0.1-0.3,0.2-0.5,0.3
		c-1.7-0.5-3.4-1.1-5.1-1.8c0.4-0.5,0.9-0.8,1.5-1.2c0.3-0.2,0.7-0.4,1-0.6s0.2-0.7,0.2-1c-0.1-0.2-0.2-0.3-0.3-0.4
		c-0.2-0.1-0.4,0-0.6,0c-0.1,0-0.1,0-0.1,0c-0.1,0-0.3,0.1-0.5,0.1c-0.4,0.1-0.8,0.3-1,0.1c-0.1-0.1-0.2-0.2-0.3-0.5
		c-0.1-0.6,0.2-0.7,1.1-0.9c0.2,0,0.4-0.1,0.5-0.1c0.2-0.1,0.5-0.1,0.8-0.2c0.1,0,0.2,0,0.3,0c0.6,0,1.4-0.1,1.6-1.2
		c0.1-1-0.6-1.3-1.2-1.4c-0.1,0-0.2-0.1-0.2-0.1c-0.4-0.2-0.7-0.4-0.8-0.6c-0.1-0.2,0-0.4,0.2-0.6c0.2-0.2,0.4-0.4,0.6-0.4
		c0.3,0,0.6,0.1,0.9,0.3c0.2,0.2,0.4,0.4,0.7,0.7c0.1,0.2,0.3,0.3,0.4,0.5l0.1,0.1c0.2,0.2,0.6,0.7,1.2,0.3s0.3-1,0.1-1.3
		c-0.4-0.8-1.1-1.4-1.8-2l-0.3-0.2c-0.1-0.1-0.2-0.2-0.4-0.3c-0.4-0.3-0.5-0.4-0.4-0.6c0.2-0.4,0.4-0.4,1.1-0.1l0.2,0.1
		c1.7,0.7,3.5,0.8,5.1,0.8c0.1,0,0.2,0,0.3,0c0.4,0,1.1,0.1,1.2-0.6c0.2-0.7-0.2-1.2-1.1-1.5c-0.4-0.1-0.8-0.2-1.2-0.2
		c-0.1,0-0.3,0-0.4-0.1c-0.7-0.1-0.8-0.3-0.8-0.6c0-0.2,0.1-0.3,0.1-0.4c0.1-0.1,0.3-0.2,0.8-0.1c0.7,0.1,1.3,0.3,1.9,0.6
		c1,0.4,1.8,0.2,2.4-0.6c0.7-1,0.2-1.7-0.4-2.2l-0.2-0.1c-0.3-0.2-0.6-0.5-0.6-0.8c0-0.1,0.1-0.2,0.2-0.4c0.2-0.1,0.3-0.2,0.5-0.2
		c0.3,0,0.7,0.3,1,0.7c0.1,0.2,0.2,0.4,0.4,0.6c0.1,0.2,0.3,0.5,0.4,0.7c0.7,0.8,1.5,0.5,2.1,0.2c0.1,0,0.2-0.1,0.3-0.1
		c0.4-0.1,0.6-0.3,0.7-0.5c0.2-0.4,0-0.8-0.2-1.3c0-0.1-0.1-0.2-0.2-0.3c-0.1-0.2-0.3-0.5-0.2-0.6c0-0.1,0.1-0.2,0.3-0.2
		c0.2-0.1,0.4-0.1,0.5,0c0.3,0.1,0.4,0.5,0.5,1c0.1,0.4,0.2,0.7,0.1,1c-0.1,1.3,1,1.6,1.7,1.7c0.1,0,0.7,0.2,1,0
		c0.3-0.3,0.6-1.3,0.6-1.4c0.1-0.5,0.2-0.8,0.2-1.3c0-0.3,0.3-1.2,0.3-1.4c0.1-0.6,0.1-0.9,0.5-0.9s0.5,0.3,0.7,1.1v0.2
		c0.2,1.4,0.8,2.7,1.9,4.2c0.3,0.4,0.9,1.3,2,0.7c0.9-0.5,0.7-1.4,0.6-2.1c0-0.1-0.3-0.8-0.4-0.9c-0.2-0.4-0.2-0.8,0.1-0.9
		c0.5-0.2,1,0,1.1,0.4c0.2,0.5,0.5,1.2,0.5,1.7c0.1,1.2,0.9,1.2,1.5,1.2c1.3,0,1.8-0.9,2.2-1.8c0.1-0.3,0.2-0.4,0.4-0.5
		c0.1,0,0.2,0,0.4,0c0.2,0.1,0.3,0.2,0.3,0.3c0,0.2-0.2,1.2-0.8,1.8c-0.3,0.2-0.6,0.9,0.1,1.4c0.7,0.6,1.2,0,1.5-0.3
		c0.1-0.1,0.2-0.2,0.3-0.3c0.3-0.2,0.5-0.4,0.7-0.7c0.3-0.3,0.5-0.7,0.8-0.7c0.1,0,0.3,0,0.5,0.2c0.2,0.2,0.3,0.4,0.3,0.5
		c0,0.3-0.4,0.7-0.7,1.1c-0.2,0.2-0.5,0.6-0.7,0.7c-0.3,0.2-0.7,0.5-0.8,0.8c0,0,0,0.2,0,0.2c0,0,0.2,0.1,0.2,0.1
		c0.5,0.1,1-0.1,1.7-0.2c1.4-0.2,2.9-0.3,4.1-0.9c0.4-0.2,1.1-0.5,1.3-0.2c0.2,0.3-0.2,0.6-0.4,0.9c-0.7,0.9-1.8,2.7-1.9,4.1l0,0
		H62.3z M63,60.4c-0.1,0.1-0.1,0.1-0.2,0.1c0.1-1.1,0.6-2.1,1.5-3.1c0.1-0.1,1.1-1.1,0.6-1.8c-0.6-0.7-1.3-0.3-1.6-0.1
		c-0.1,0-0.3,0.1-0.4,0.2c-1.1,0.6-2.5,1-3.7,1c-0.4,0-0.7,0.2-1.4,0.2c0.1-0.1,1-0.8,1.2-1c0.4-0.4,0.9-0.9,0.9-1.4
		c0-0.3-0.2-0.6-0.4-0.9c-0.2-0.3-0.6-0.4-0.9-0.4c-0.5,0-0.8,0.5-1.1,0.9c-0.2,0.2-1.4,1.5-1.8,1.2c-0.3-0.2-0.3-0.4,0-0.8
		c0.2-0.3,0.4-0.6,0.6-1.2c0.1-0.2,0.1-0.5,0.1-0.8c0-0.3-0.2-0.6-0.6-0.8c-0.3-0.1-0.6-0.1-0.8,0c-0.3,0.1-0.5,0.4-0.7,0.8
		c-0.4,0.9-0.7,1.5-1.7,1.5c-0.7,0-0.9-0.1-1-0.7c-0.1-0.7-0.3-1.3-0.5-1.8c-0.3-0.7-1-0.9-1.7-0.7c-0.8,0.3-0.5,1-0.4,1.4
		c0.1,0.2,0.2,0.5,0.4,0.8c0.3,0.6,0.1,1.2-0.4,1.5s-0.9,0.2-1.4-0.5c-1-1.4-1.6-2.7-1.8-4v-0.2c-0.1-0.6-0.2-1.5-1.1-1.5
		c-0.9,0-1,0.8-1,1.4c0,0.2-0.2,1-0.3,1.3c-0.1,0.4-0.1,0.8-0.2,1.2c0,0.1-0.1,0.2-0.1,0.4c-0.1,0.3-0.1,0.7-0.3,0.8
		c-0.1,0-0.1,0.1-0.3,0c-0.1,0-0.2,0-0.3-0.1c-0.7-0.4-1.3-0.3-1.3-1.2c0-0.3,0-0.7-0.2-1.2c-0.1-0.5-0.3-1-0.8-1.3
		c-0.3-0.1-0.5-0.1-0.9,0c-0.3,0.1-0.5,0.3-0.6,0.5c-0.1,0.4,0.1,0.7,0.3,1c0.1,0.1,0.1,0.2,0.2,0.3c0.1,0.3,0.3,0.6,0.2,0.8
		c0,0.1-0.2,0.2-0.4,0.3c-0.1,0-0.2,0.1-0.3,0.1c-0.7,0.3-1.1,0.4-1.6-0.1c-0.1-0.2-0.3-0.4-0.4-0.6c-0.1-0.2-0.3-0.4-0.4-0.6
		c-0.4-0.5-0.9-0.8-1.4-0.8c-0.3,0-0.6,0.1-0.9,0.3c-0.2,0.2-0.4,0.5-0.4,0.7c0,0.5,0.4,0.8,0.7,1.1l0.2,0.1c0.6,0.6,0.7,1,0.3,1.6
		c-0.5,0.7-1,0.8-1.8,0.5c-0.6-0.3-1.3-0.5-2-0.6c-0.5-0.1-0.9,0-1.2,0.2c-0.2,0.2-0.3,0.4-0.3,0.7c-0.1,0.9,0.9,1,1.2,1.1
		c0.1,0,0.3,0,0.4,0.1c0.4,0.1,0.8,0.1,1.1,0.2c0.4,0.1,0.9,0.4,0.7,0.9c-0.1,0.3-0.2,0.3-0.7,0.2c-0.1,0-0.2,0-0.3,0
		c-1.5,0-3.1-0.2-4.7-0.7c-0.5-0.2-1.3-0.5-1.7,0.4c-0.3,0.7,0.3,1.1,0.6,1.3c0.1,0.1,0.2,0.1,0.3,0.2l0.3,0.2
		c0.7,0.5,1.3,1.1,1.6,1.8c0.2,0.4,0.2,0.6,0,0.7c-0.1,0.1-0.2,0.1-0.5-0.2l-0.1-0.1c-0.1-0.1-0.3-0.3-0.4-0.4
		c-0.2-0.3-0.5-0.6-0.7-0.8c-0.4-0.3-0.9-0.5-1.3-0.4s-0.7,0.3-1,0.7s-0.3,0.7-0.2,1.1c0.1,0.4,0.5,0.7,1.1,0.9
		c0.1,0,0.2,0.1,0.3,0.1c0.6,0.2,0.9,0.3,0.8,0.9c-0.1,0.6-0.4,0.7-1.1,0.7c-0.1,0-0.2,0-0.3,0c-0.4,0-0.7,0.1-0.9,0.2
		c-0.2,0.1-0.3,0.1-0.5,0.1c-0.7,0.2-1.7,0.4-1.5,1.5c0.1,0.4,0.2,0.7,0.5,0.8c0.4,0.2,1,0.1,1.5-0.1c0.1,0,0.3-0.1,0.4-0.1
		s0.1,0,0.2-0.1c0.1,0,0.2-0.1,0.2-0.1s0,0,0,0.1s0,0.4,0,0.4c-0.3,0.2-0.6,0.4-0.9,0.6c-0.6,0.4-1.3,0.7-1.7,1.4
		c-1.2-0.6-2.4-1.2-3.5-1.9c-0.4-0.6-0.1-1.3,0.6-3c1.9-4.7,5.3-8.4,10.4-11.4c1.3-0.8,2.7-1.5,4.1-2.2c0.9-0.5,1.8-0.9,2.7-1.4
		c4.4-2.3,7.3-5.3,9.1-9.2c3,5.6,8,8.5,12.5,10.6c2.8,1.3,5.2,3.1,7.6,5c0,0,0.8,0.6,0.9,0.6C65.5,57.4,64.3,59,63,60.4z M68,53.2
		c-0.1,0.2-0.2,0.4-0.3,0.6c-0.1,0.1-0.1,0.1-0.2,0.1c-0.6-0.1-0.4-0.5-0.4-0.5c0.1-0.5,0.3-1,0.8-1.1c0.1,0,0.2,0.1,0.2,0.1
		s0.1,0.1,0.1,0.3C68.2,52.8,68.1,53.1,68,53.2z M68.5,52.1c-0.2-0.2-0.5-0.3-0.7-0.2c-0.8,0.3-1.1,0.9-1.1,1.5c0,0.2,0,0.8,0.7,1.1
		c-0.2,0.3-0.4,0.7-0.6,1c-0.1-0.1-0.9-0.6-0.9-0.6c-2.4-1.8-4.9-3.7-7.7-5c-4.8-2.2-9.6-5.1-12.5-10.8l-0.2-0.5l-0.2,0.5
		c-1.8,4.1-4.7,7.1-9.1,9.5c-0.9,0.5-1.8,0.9-2.7,1.4c-1.4,0.7-2.8,1.4-4.1,2.2c-5.2,3-8.7,6.8-10.6,11.6c-0.5,1.3-0.8,2.1-0.8,2.8
		c-1.9-1.2-3.7-2.6-5.3-4.2c4.8-9.2,6.2-10.7,15.4-16.4c3.1-1.9,6.1-4.1,8.7-6.5c1.8-1.6,2.9-3.1,3.5-4.8s1-3.5-0.4-5.2
		c-0.3-0.3-0.4-0.6-0.4-1c0-0.3,0.2-0.6,0.5-0.8c0.4-0.3,0.8-0.8,1.1-1.2c0.6-0.8,1.2-1.5,2.3-1.6c0.7,0,0.8-0.8,0.8-1.3l0.2-1.6
		c0.2-1.8,0.4-3.7,0.7-5.5c0.1-0.8,0.2-1.5-0.5-2.3c-0.3-0.3-0.4-0.7-0.4-1.1c0-0.4,0.3-0.8,0.7-1.2c0.7-0.6,1.5-0.6,2.2,0
		c0.5,0.4,0.7,0.8,0.8,1.3c0,0.3-0.1,0.6-0.4,0.9c-1,1-0.8,2.1-0.7,3.1v0.1c0.1,0.9,0.2,1.7,0.3,2.6c0.1,1.1,0.3,2.2,0.4,3.4
		c0.1,0.8,0.3,1.6,1.5,1.9c1,0.2,1.5,1,2.1,1.8c0.3,0.5,0.7,0.9,1.1,1.3c0.2,0.2,0.1,0.8-0.2,1.2c-1.7,2-1,4.1-0.2,5.9
		c1.1,2.3,2.9,3.9,5.1,5.8c2.3,1.9,4.8,3.6,7.2,5.2c1.5,1,3,2,4.4,3c0.4,0.3,0.8,0.5,1.1,0.5C69.3,50.4,69,51.3,68.5,52.1z
		 M68.9,48.6c-1.5-1-3-2.1-4.5-3c-2.4-1.6-4.9-3.2-7.2-5.1c-2.2-1.8-3.9-3.4-5-5.6c-0.8-1.7-1.4-3.6,0.1-5.4
		c0.5-0.5,0.6-1.5,0.1-1.9c-0.4-0.3-0.7-0.8-1-1.2c-0.6-0.9-1.2-1.7-2.4-2c-0.8-0.2-1-0.6-1.1-1.4c-0.1-1.1-0.3-2.3-0.4-3.4
		c-0.1-0.9-0.2-1.7-0.3-2.6v-0.1c-0.1-1-0.2-1.9,0.6-2.7c0.4-0.4,0.5-0.8,0.5-1.3c0-0.6-0.4-1.2-1-1.6c-0.9-0.7-1.9-0.7-2.8,0
		c-0.5,0.4-0.8,1-0.9,1.5c0,0.5,0.1,1,0.5,1.4c0.5,0.6,0.5,1.1,0.4,1.9c-0.3,1.8-0.5,3.7-0.7,5.6l-0.2,1.6c-0.1,0.6-0.1,0.8-0.4,0.9
		c-1.4,0.1-2,0.9-2.7,1.8c-0.3,0.4-0.6,0.8-1,1.1c-0.4,0.3-0.6,0.7-0.7,1.1c0,0.5,0.1,0.9,0.5,1.3c1.2,1.4,1,2.9,0.3,4.7
		c-0.6,1.6-1.7,3.1-3.4,4.6c-2.6,2.3-5.5,4.5-8.6,6.4c-9,5.8-10.6,7.4-15.3,16.5C5.9,55.4,2,46.6,2,37C2,24,9.2,12.6,19.8,6.6
		c3.3-1.8,6.9-3.1,10.7-3.9c1.7-0.3,3.3-0.5,5-0.6c0.5,0,1,0,1.5,0s0.9,0,1.4,0c0.2,0,0.4,0,0.6,0c18.4,1,33,16.3,33,34.9
		c0,4.2-0.8,8.3-2.1,12.1C69.6,49.1,69.3,48.9,68.9,48.6z"/>
	<path class="st0" d="M45.2,52.5l-0.4-0.3l-1.5,3.7c-0.1,0.2-0.2,0.3-0.3,0.5s-0.1,0.3-0.2,0.5c-0.4,0.8-0.7,1.5-1,2.3
		c-1.4,3.3-0.4,6,2.8,7.7l0.5,0.3v-4.6c0-0.1,0-0.3,0-0.4c0-0.3,0-0.6,0.1-0.7c0,0,0.1-0.1,0.2-0.1c0.2,0,0.3,0,0.3,0.1
		c0.2,0.2,0.2,0.8,0.2,1.1V68l0.6-0.4c1.7-1.3,2.7-3.4,2.8-6C49.3,58.1,47.8,54.7,45.2,52.5z M46.1,61c-0.2-0.2-0.5-0.3-0.8-0.3
		h-0.1c-0.3,0-0.5,0.1-0.8,0.3c-0.3,0.4-0.3,1.1-0.3,1.7V66c-2.5-1.6-3.1-3.8-2-6.5c0.1-0.4,0.3-0.8,0.5-1.1
		c0.2-0.4,0.4-0.8,0.5-1.1c0.1-0.2,0.2-0.3,0.3-0.5s0.1-0.3,0.2-0.5l1.3-2.9c2.3,2.1,3.6,5.2,3.5,8.1c0.1,1.9-0.6,3.7-1.9,5v-3.8
		C46.5,62.1,46.5,61.5,46.1,61z"/>
	<path class="st0" d="M49.4,35.8L49,35.4c0,0-0.1,0.5-0.2,0.6c-0.1,0.2-0.4,1-0.4,1.2c-0.7,1.6-1.3,3.6,1.1,5l0.3,0.1l0.3-0.3
		C52,39.2,51.9,38.3,49.4,35.8z M49.7,41.4C48,40.3,48.5,39,49,37.5l0.3-0.7C51,38.6,51.1,39.3,49.7,41.4z"/>
	<path class="st0" d="M40.2,43c0-0.1-0.1-0.1-0.1-0.2c-0.1-0.2-0.2-0.4-0.3-0.6l-0.2-0.3c-0.3-0.5-0.6-1-1.1-1.2
		c-0.1-0.1-0.1-0.1-0.2-0.1c-0.2,0-0.6,0.2-1.9,1.5c-0.8,0.8-0.9,1-0.7,1.3L36,44c0.3,0.6,0.7,1.4,1.5,1.9h0.2c0.1,0,0.1,0,0.2-0.1
		c0.1,0,0.1,0,0.2-0.1c0.5-0.4,2.1-1.8,2.1-2.5V43L40.2,43z M38.3,41.4c0.4,0.3,0.6,0.7,0.8,1.2c0.1,0.2,0.1,0.3,0.2,0.4
		c0.1,0.1,0.1,0.2,0.2,0.3c-0.1,0.2-1.5,1.6-1.8,1.8c-0.6-0.3-0.9-0.9-1.2-1.5c-0.1-0.2-0.2-0.4-0.3-0.5
		C36.6,42.8,37.9,41.7,38.3,41.4z"/>
	<path class="st0" d="M54,41.4c-0.6-0.2-0.9-1-1.5-1.1c-0.2,0-0.5,0.1-0.8,0.3c-0.6,0.5-0.9,1.3-0.9,2.1c0,0.7,0.2,1.4,1,1.9
		c0.1,0.1,0.3,0.2,0.5,0.3s0.4,0.3,0.5,0.4c0.2,0.2,0.9,0.6,0.9,0.6s0.1-0.3,0.1-0.4c0.1-0.2,0.2-0.5,0.3-0.6c0.3-0.5,0.5-1,0.7-1.5
		C55.4,42,54.6,41.6,54,41.4z M53.1,44.7c-0.1-0.2-0.8-0.6-0.9-0.6c-0.6-0.2-0.8-0.9-0.8-1.3c0-0.6,0.2-1.1,0.7-1.5
		c0.3-0.2,0.4,0,0.5,0.2c0.2,0.3,0.7,0.4,0.9,0.6c0.8,0.4,0.9,0.5,0.7,1.1c-0.1,0.4-0.3,0.7-0.5,1.1c0,0.1-0.3,0.5-0.3,0.7
		C53.4,45,53.2,44.8,53.1,44.7z"/>
	<path class="st0" d="M40.9,56.3c0.2,0.1,0.3,0.1,0.4,0.1c0.1,0,0.2,0,0.4-0.1c0.3-0.1,0.5-0.4,0.5-0.8c0-0.1,0.1-0.4,0.1-0.4
		s-0.6,0-0.8-0.1c-0.7-0.4-1.5-0.8-2.3-0.8c-0.7,0-1.4,0.1-2.2,0.4c-1.4,0.6-2.3,1.7-2.6,3.3c0,0.4,0.2,0.9,0.8,1h0.2
		c0.3,0,0.7-0.2,0.9-0.7c0.7-1.5,1.7-2.2,3-2.2C39.8,56,40.3,56.1,40.9,56.3z M35.8,58.3c-0.1,0.2-0.2,0.2-0.3,0.2s-0.1-0.1-0.2-0.1
		c0,0,0,0,0-0.2c0.2-1.5,0.8-2.4,2-2.9c0.6-0.3,1.2-0.4,2-0.4c0.7,0,1.3,0.3,1.9,0.6c0.1,0.1,0.4,0.1,0.4,0.1s-0.2,0.4-0.4,0.5
		c-0.1,0-0.3-0.1-0.4-0.1c-0.6-0.1-1.2-0.4-1.8-0.4C37.9,55.6,36.7,56.5,35.8,58.3z"/>
	<path class="st0" d="M42.1,36.3l-0.4,0.4c-2.5,2.7-2.5,2.9-0.7,5.8l0.3,0.4l0.3-0.3c2.2-2.3,2.2-2.5,0.7-5.8L42.1,36.3z M41.3,41.7
		c-1.4-2.1-1.3-2.2,0.5-4.3C42.9,40,42.8,40.2,41.3,41.7z"/>
	<path class="st0" d="M60.5,46c0,0-0.4,0-0.5,0c-0.3,0-0.6,0.1-0.7,0.3c-0.6,0.7-0.8,1.5-0.9,2c-0.1,0.9,0.6,1.4,1.4,1.7
		c0.4,0.2,0.8,0.3,1,0.6c0,0.1,0.1,0.3,0.1,0.3l0.3-0.2c0.9-0.6,1.5-1.5,1.6-2.4C62.9,46.6,61.3,46.1,60.5,46z M62,48.1
		c0,0.5-0.4,1.1-1,1.7c-0.2-0.2-0.5-0.3-0.7-0.4c-0.1,0-0.2-0.2-0.3-0.2c-0.7-0.4-0.9-0.5-0.9-1c0-0.4,0.2-1,0.7-1.4
		c0.1-0.1,0.4-0.1,0.4-0.1C61.4,46.8,62.1,47.2,62,48.1z"/>
	<path class="st0" d="M64.1,48.6L64.1,48.6c-0.7,0-1.3,0.5-1.5,1.6c0,0.1-0.2,0.4-0.2,0.5c-0.1,0.3,0,0.5,0.4,0.9
		c0.1,0.2,1.5,1.6,2.2,1.6h0.1l0,0c0.7-0.3,0.9-0.8,1.2-1.3c0.1-0.1,0.4-0.6,0.4-0.7c0-0.1,0.1-0.3,0.1-0.3l-0.1-0.2
		C66.1,49.4,65,48.7,64.1,48.6z M63.2,50.3c0.2-0.5,0.4-1,0.7-1H64c0.7,0.1,1.5,0.6,2.2,1.5c-0.2,0.2-0.3,0.4-0.4,0.6l-0.1,0.2
		c-0.2,0.4-0.4,0.7-0.7,0.9c-0.4-0.1-1.9-1.3-2-1.6C63,50.7,63.1,50.5,63.2,50.3z"/>
	<path class="st0" d="M48.7,32.1c-0.4-0.5-1.5-0.5-1.7-0.5c-0.2,0-0.5,0-0.7,0.2c-0.2,0.1-0.4,0.4-0.4,0.7l0,0.2
		c-0.2,1.6-0.3,3.5,0.6,5.3l0.4,0.7l0.7-2.1c0.4-1.1,0.7-2.2,1-3.3C48.8,32.8,48.9,32.4,48.7,32.1z M46.6,33.1c0,0,0-0.4,0.1-0.5
		c0.1-0.5,1-0.3,1.1-0.3c0.2,0,0.3,0.3,0.3,0.4S48,33,48,33c-0.2,0.6-0.3,1.1-0.5,1.7c-0.2,0.5-0.3,1.1-0.5,1.6l-0.1,0.4
		C46.5,35.5,46.5,34.3,46.6,33.1z"/>
	<path class="st0" d="M44.7,31.8c-0.2-0.2-0.5-0.3-1-0.3c-1.2,0-1.2,0.9-1.2,1.4c0,1.6,0.4,2.9,1,4.7l0.6,1.6l0.4-0.8
		c0.6-1.5,0.6-2.8,0.6-4.2c0-0.4,0-0.8-0.1-1.3C45,32.4,45,32.2,44.7,31.8z M44.3,32.5L44.3,32.5c0.1,0.1,0.1,0.3,0.1,0.5
		c0,0.4,0,1.6,0,1.6c0,0.8,0,1.7-0.2,2.7c0,0-0.8-2.8-0.8-4.1c0-0.6,0.1-0.7,0.5-0.7C44.1,32.4,44.2,32.5,44.3,32.5z"/>
	<path class="st0" d="M59.1,45.3c0,0-0.6-0.5-0.8-0.8c-0.4-0.5-1-1-1.7-1l0,0c-1.3,0.1-1.7,1.8-1.8,2.5c0,0.4,0.1,0.7,0.3,1.1
		c0.3,0.5,1.3,0.8,1.9,0.8c0.8,0,1.2-0.7,1.4-1.4C58.5,46.1,59.1,45.3,59.1,45.3z M57.8,45.1l0.4,0.4c-0.2,0.2-0.4,0.6-0.5,0.9
		c-0.2,0.6-0.4,0.8-0.7,0.8c-0.4,0-1-0.2-1.3-0.6c-0.2-0.2-0.2-0.3-0.2-0.5c0-0.3,0.3-1.9,1.1-1.9C57,44.2,57.4,44.6,57.8,45.1z"/>
	<path class="st0" d="M17.2,59.3c-0.3-0.1-0.4-0.1-0.6-0.1h-0.1C16.1,59.3,16,59.7,16,60v0.1c0,0.1-0.1,0.1,0,0.1
		c-0.2,0.4-0.4,0.8-0.5,1.2c-0.1,0.3-0.2,0.6-0.4,0.8C15,62.5,15,62.7,15,63.1c0.1,0.2,0.3,0.4,0.5,0.6c0.1,0.1,0.2,0.1,0.3,0.2
		l0.1,0.1v0.1H16c0.1,0,0.1,0.1,0.2,0.1c0.1,0.1,0.3,0.2,0.5,0.2h0.1c0.3,0,0.4-0.1,0.5-0.3c0.4-0.6,0.8-1.3,1.2-2
		c0.1-0.2,0.2-0.4,0.3-0.6c0-0.1,0.1-0.1,0.1-0.2l0.1-0.2V61C18.6,60,18,59.6,17.2,59.3z M16.7,63.7c0,0-0.1,0-0.2-0.1
		c-0.1,0-0.1-0.1-0.2-0.1c-0.1-0.1-0.2-0.2-0.3-0.2l0,0c-0.3-0.1-0.4-0.2-0.4-0.3s0-0.2,0.1-0.4c0-0.1,0.1-0.3,0.2-0.4
		c0.1-0.2,0.2-0.3,0.2-0.4c0.1-0.2,0.2-0.3,0.2-0.5c0.1-0.2,0.2-0.4,0.3-0.6c0.1-0.1,0.1-0.4,0.1-0.5s0.1-0.3,0.1-0.3s0.1,0,0.1,0.1
		l0.2,0.1c0.4,0.2,0.7,0.4,1,0.9c-0.2,0.2-0.3,0.4-0.4,0.7c-0.2,0.5-0.5,1-0.8,1.4C16.9,63.3,16.8,63.5,16.7,63.7L16.7,63.7z"/>
	<path class="st0" d="M34.5,43.8c-0.9,0-2.3,0.8-2.3,1.9c0,1,0.7,2,1.7,2.5l0.3,0.1l0.2-0.2c0.2-0.2,0.5-0.4,0.8-0.5
		c0.5-0.2,1.3-0.5,1.2-1.5C36.1,45.6,35.8,43.8,34.5,43.8z M34.5,44.6c0.7,0,1,1.1,1,1.7c0.1,0.3-0.1,0.4-0.6,0.6L34.8,47
		c-0.3,0.1-0.6,0.3-0.8,0.5c-0.7-0.5-1.1-1.2-1.1-1.7C32.9,45.1,34,44.6,34.5,44.6z"/>
	<path class="st0" d="M39.9,57c-0.3-0.1-0.5-0.2-0.8-0.2s-0.5,0.1-0.7,0.2c-0.5,0.2-0.8,0.6-1.1,1.3c-0.4,1.6,0.6,2,1.4,2.3
		c0.5,0.2,0.9,0.4,1.1,0.7v0.1l0.7-0.3V61c-0.1-0.3,0.1-0.6,0.2-1.1l0.1-0.2v-0.1C41.1,58.8,41.5,57.7,39.9,57z M40.2,59.3
		L40.2,59.3c0,0.2-0.1,0.3-0.1,0.4C40,59.9,40,60,39.9,60.2c-0.2-0.1-0.4-0.2-0.7-0.3c-0.9-0.4-1.2-0.5-1-1.5
		c0.1-0.4,0.4-0.7,0.7-0.9c0.1-0.1,0.3-0.1,0.3-0.1c0.2,0,0.4,0,0.5,0.1C40.6,58,40.4,58.5,40.2,59.3z"/>
	<path class="st0" d="M32.4,48c-0.1-0.2-0.2-0.4-0.3-0.6c-0.2-0.4-0.4-1.1-1.1-1.1c-0.1,0-0.2,0-0.3,0c-1.4,0.3-2.3,1-2.4,2
		c0,0.4,0.2,1.3,0.6,1.7c0.2,0.2,0.5,0.3,0.8,0.3h0.1l0,0c1-0.1,2.1-0.8,2.6-1.8l0.1-0.3l-0.1-0.1C32.5,48.2,32.4,48.1,32.4,48z
		 M31,47c0.2,0,0.3,0.2,0.5,0.7c0.1,0.3,0.2,0.5,0.4,0.8c-0.5,0.7-1.2,1.1-2,1.2c-0.1,0-0.2,0-0.3-0.2c-0.3-0.3-0.5-0.9-0.5-1.1
		C29.2,47.6,30.3,47.1,31,47L31,47z"/>
	<path class="st0" d="M23.5,51.8c-0.1,0-0.2,0-0.2,0c-1.2,0.3-2.2,1.2-2.6,2.3c-0.1,0.4,0.1,0.8,0.4,1.2c0.4,0.4,0.7,0.5,1,0.5h0.2
		l0,0c1.1-0.3,1.9-1.1,2.5-1.9l0.2-0.2l-0.4-0.9C24.4,52.4,24,51.8,23.5,51.8z M24,53l0.1,0.1c0,0.1,0.2,0.3,0.2,0.4
		c-0.6,0.6-1.3,1.3-2.1,1.6c-0.1,0-0.4-0.1-0.5-0.3c-0.2-0.2-0.3-0.5-0.3-0.5c0.3-0.8,1.1-1.5,2.1-1.8h0.1
		C23.7,52.5,23.8,52.6,24,53z"/>
	<path class="st0" d="M21.5,57c-0.1-0.2-0.7-1.8-1.6-1.8c-0.1,0-0.1,0-0.2,0c-1.3,0.3-1.9,1.7-2.2,2.4c-0.1,0.3-0.1,0.5,0.1,0.9
		c0.3,0.6,1.1,0.8,1.5,0.8c0.9,0,1.3-0.6,1.7-1.2c0.2-0.3,0.4-0.6,0.7-0.8l0.4-0.2L21.6,57H21.5z M18.1,58L18.1,58L18.1,58v-0.2
		c0.2-0.5,0.8-1.7,1.7-1.9c0.2,0,0.6,0.4,0.9,1.1c-0.2,0.2-0.4,0.5-0.6,0.8c-0.3,0.5-0.6,0.9-1.1,0.9C18.8,58.6,18.4,58.4,18.1,58z"
		/>
	<path class="st0" d="M28.6,50.4c-0.1,0-0.2-0.2-0.3-0.3V50c-0.2-0.5-0.5-1-1-1c-0.1,0-0.2,0-0.2,0c-0.9,0.2-2.1,0.8-2.4,2
		c-0.1,0.4,0.1,0.9,0.4,1.3c0.2,0.3,0.5,0.4,0.9,0.4h0.1l0,0c1.2-0.1,2.2-1.3,2.6-1.8l0.1-0.3L28.6,50.4L28.6,50.4z M25.6,51.8
		c-0.2-0.2-0.3-0.5-0.3-0.7c0.2-1,1.4-1.4,1.8-1.5c0.1,0,0.2,0.2,0.4,0.6l0.3,0.5c-0.5,0.6-1.1,1.1-1.9,1.2
		C25.8,52,25.7,51.9,25.6,51.8z"/>
	<path class="st0" d="M55.3,56.7c-1.1-1.3-2.5-1.4-3.5-1.4h-0.3c-0.3,0-1.5,0.2-1.5,0.2c-0.4,0.1-1.1,0.3-1,1c0,0.3,0.1,0.6,0.3,0.7
		c0.1,0.1,0.2,0.1,0.3,0.1c0.2,0,0.7-0.2,1-0.3c0.3-0.1,1-0.1,1.4-0.1c0.7,0,1.5,0.1,2.2,0.8l0.2,0.2c0.1,0.1,0.2,0.3,0.5,0.3H55
		c0.1,0,0.4-0.1,0.5-0.2C55.9,57.6,55.6,57.1,55.3,56.7L55.3,56.7z M54.7,57.4c-0.5-0.8-1.4-1.1-2.7-1.1c-0.3,0-0.7,0-1,0
		c-0.1,0-0.7,0.1-0.9,0.2l-0.4,0.1c0,0,0,0,0-0.2c0-0.1,0-0.3,0.6-0.4c0.1,0,1.1-0.2,1.4-0.2H52c1.4,0,2.3,0.4,2.9,1.2
		c0,0,0.4,0.5,0.2,0.6C55.1,57.6,54.9,57.6,54.7,57.4z"/>
	<path class="st0" d="M51.5,57.4c-0.5,0.1-0.9,0.2-1.2,0.5c-0.6,0.6-0.4,1.2-0.2,1.7l0.1,0.2c0.1,0.3,0.2,0.6,0.2,0.8v0.7l1.2-0.9
		c0.5-0.4,1.5-1.1,1.5-1.1c0.3-0.2,0.6-0.8,0.4-1.1C53.3,57.7,52.7,57.2,51.5,57.4z M50.8,60.2c-0.1-0.2-0.2-0.5-0.2-0.7
		c-0.2-0.6-0.3-0.8,0-1.2c0.2-0.2,0.7-0.4,1-0.5c0.3,0,0.7,0,0.9,0.1c0.5,0.3,0.5,0.5,0.4,0.7C52.5,59.1,50.8,60.2,50.8,60.2z"/>
	<path class="st0" d="M31.2,66.6l-0.1-0.2c-0.3-0.5-0.7-1.1-1.3-1.1c-0.1,0-0.2,0-0.3,0c-0.5,0.1-0.9,0.6-1.1,1.2
		c-0.2,0.5-0.2,1.4,0.1,1.8c0.2,0.3,0.5,0.4,0.9,0.4s0.9-0.2,1.2-0.4c0.2-0.2,0.5-0.2,0.8-0.3l0.2-0.1l0.7-0.1l-0.4-0.6
		C31.6,67.2,31.4,66.9,31.2,66.6z M30.8,67.5c-0.1,0-0.2,0.1-0.3,0.1c-0.1,0-0.2,0.1-0.2,0.1c-0.4,0.2-0.6,0.3-0.8,0.3
		c-0.1,0-0.2-0.1-0.3-0.2c-0.1-0.2-0.2-0.7,0-1.1c0.1-0.4,0.4-0.6,0.5-0.6h0.1c0.3,0,0.5,0.3,0.8,0.9L30.8,67.5z"/>
</g>
</svg>
