<svg id="Layer_1" data-name="Layer 1" xmlns="http://www.w3.org/2000/svg" viewBox="0 0 74 74"><defs><style>.cls-1{fill:none;stroke:#006faf;stroke-miterlimit:10;stroke-width:2px;}.cls-2,.cls-6{fill:#006faf;}.cls-3{fill:#09c;}.cls-4{fill:#a1afd9;}.cls-5{fill:#282c35;}.cls-6{font-size:13px;font-family:SegoeUI, Segoe UI;}</style></defs><title>in</title><circle class="cls-1" cx="37" cy="37" r="36"/><path class="cls-2" d="M24.63,38.23c0-1.62,0-3.24,0-4.86,0-.41.09-.53.52-.53,5.07,0,10.14,0,15.21,0l5.9,5.89V39c-.23,0-.46,0-.69,0s-.39-.12-.38.2c-.22,0-.45.06-.66-.05a.45.45,0,0,0-.62,0,.3.3,0,0,1-.33,0c0-.5-.38-.28-.58-.28q-7.88,0-15.76,0c-.19,0-.39-.07-.56.09L26,39c-.44-.24-.93,0-1.39-.12l0-.22v-.42Z"/><path class="cls-3" d="M46.28,38.75l-5.9-5.89q0-7.41,0-14.81c0-.19,0-.39,0-.62a4.91,4.91,0,0,0,1.84.15c1.18,0,2.35,0,3.53,0,.49,0,.63.13.63.62q0,9.76,0,19.52c0,.34,0,.68,0,1a.08.08,0,0,0,0,.06A.12.12,0,0,0,46.28,38.75Z"/><path class="cls-2" d="M25,25.14h7.26a1,1,0,0,1,.68.36q2.31,2.31,4.63,4.59a5.67,5.67,0,0,0,1,.89h0l.08.09c-.1.23-.31.13-.47.13h-13c-.33,0-.46-.06-.46-.43,0-1.75,0-3.49,0-5.24,0-.16-.09-.38.2-.41Z"/><path class="cls-3" d="M38.53,31a5.67,5.67,0,0,1-1-.89q-2.33-2.28-4.63-4.59a1,1,0,0,0-.68-.36c.3-.07.33-.28.33-.55,0-2.19,0-4.38,0-6.57,0-.41,0-.57.54-.55,1.65.06,3.31,0,5,0,.34,0,.51.06.51.46,0,4.26,0,8.51,0,12.77A2,2,0,0,1,38.53,31Z"/><path class="cls-2" d="M30.73,23.29c0,.16-.05.17-.17.17H24.94c-.26,0-.29-.11-.29-.32q0-2.7,0-5.4c0-.3.08-.36.32-.16,1.31,1.43,2.75,2.74,4.11,4.11C29.61,22.25,30.18,22.76,30.73,23.29Z"/><path class="cls-3" d="M30.73,23.29c-.55-.53-1.11-1-1.65-1.59C27.71,20.33,26.28,19,25,17.59a1.11,1.11,0,0,1,.57-.1h4.69c.34,0,.53.08.52.47C30.73,19.74,30.73,21.51,30.73,23.29Z"/><path class="cls-4" d="M25,25.14h-.13C24.9,25.07,24.94,25.07,25,25.14Z"/><path class="cls-4" d="M38.61,31.07,38.54,31C38.62,31,38.65,31,38.61,31.07Z"/><path class="cls-5" d="M41,33.48a.39.39,0,0,0,0,.06l-.1.1v-.2A.09.09,0,0,1,41,33.48Z"/><rect class="cls-2" x="24.63" y="38.8" width="21.73" height="0.4"/><text class="cls-6" transform="translate(17.63 51.94)">AMQP</text></svg>