<?xml version="1.0" encoding="utf-8"?>
<!-- Generator: Adobe Illustrator 21.0.2, SVG Export Plug-In . SVG Version: 6.00 Build 0)  -->
<svg version="1.1" id="Layer_1" xmlns="http://www.w3.org/2000/svg" xmlns:xlink="http://www.w3.org/1999/xlink" x="0px" y="0px"
	 viewBox="0 0 74 74" style="enable-background:new 0 0 74 74;" xml:space="preserve">
<style type="text/css">
	.st0{fill:#006FAF;}
</style>
<title>os-patch-management</title>
<g id="text">
</g>
<path class="st0" d="M37,74C16.6,74,0,57.4,0,37S16.6,0,37,0s37,16.6,37,37S57.4,74,37,74z M37,2C17.7,2,2,17.7,2,37s15.7,35,35,35
	s35-15.7,35-35S56.3,2,37,2z"/>
<g>
	<g>
		<path class="st0" d="M32.2,28.3L32.2,28.3l-0.1,7.1c0,0.6,0.5,1.1,1.1,1.1h0.9V39c0,0.6,0.5,1.1,1.1,1.1s1.1-0.5,1.1-1.1v-2.5h1.4
			V39c0,0.6,0.5,1.1,1.1,1.1s1.1-0.5,1.1-1.1v-2.5h0.9c0.6,0,1.1-0.5,1.1-1.1v-7.1L32.2,28.3L32.2,28.3z"/>
		<path class="st0" d="M32.2,27.9h9.7v-0.5c0-0.1,0-0.3-0.1-0.4c-0.3-1.3-1.1-2.3-2.3-2.9l0.7-1.4c0-0.1,0-0.2-0.1-0.2
			s-0.2,0-0.2,0.1L39.2,24c-0.6-0.3-1.4-0.4-2.1-0.4c-0.8,0-1.5,0.2-2.1,0.4l-0.8-1.4c0-0.1-0.2-0.1-0.2-0.1c-0.1,0-0.1,0.2-0.1,0.2
			l0.7,1.4c-1.1,0.6-2,1.6-2.3,2.8C32.2,27.2,32.2,27.5,32.2,27.9C32.2,27.8,32.2,27.8,32.2,27.9L32.2,27.9z M39.2,25.3
			c0.3,0,0.5,0.2,0.5,0.5s-0.2,0.5-0.5,0.5s-0.5-0.2-0.5-0.5C38.8,25.5,39,25.3,39.2,25.3z M34.8,25.3c0.3,0,0.5,0.2,0.5,0.5
			s-0.2,0.5-0.5,0.5s-0.5-0.2-0.5-0.5S34.5,25.3,34.8,25.3z"/>
		<path class="st0" d="M43.3,28.1c-0.6,0-1.1,0.5-1.1,1.1v4.5c0,0.6,0.5,1.1,1.1,1.1s1.1-0.5,1.1-1.1v-4.5
			C44.4,28.6,43.9,28.1,43.3,28.1z"/>
		<path class="st0" d="M30.7,28.1c-0.6,0-1.1,0.5-1.1,1.1v4.5c0,0.6,0.5,1.1,1.1,1.1s1.1-0.5,1.1-1.1v-4.5
			C31.8,28.6,31.3,28.1,30.7,28.1z"/>
	</g>
	<g>
		<path class="st0" d="M19,47.6h-3.1v2.9h3.5v0.9h-4.5v-8.1h4.4v0.9H16v2.6h3V47.6z"/>
		<path class="st0" d="M20.7,47.2c0-0.6,0-1.1,0-1.6h0.9v0.9l0,0c0.3-0.6,0.9-1.1,1.8-1.1c0.8,0,1.4,0.5,1.6,1.2l0,0
			c0.2-0.3,0.4-0.6,0.6-0.8c0.3-0.3,0.7-0.4,1.3-0.4c0.8,0,1.9,0.5,1.9,2.5v3.4h-1V48c0-1.1-0.4-1.8-1.3-1.8c-0.6,0-1.1,0.4-1.2,1
			c0,0.1-0.1,0.3-0.1,0.5v3.6h-1v-3.5c0-0.9-0.4-1.6-1.2-1.6c-0.7,0-1.1,0.5-1.3,1.1c-0.1,0.2-0.1,0.3-0.1,0.5v3.5h-1v-4.1H20.7z"/>
		<path class="st0" d="M35.5,49.8c0,0.6,0,1.1,0,1.6h-0.9l-0.1-0.9l0,0c-0.3,0.5-0.9,1.1-1.9,1.1c-0.9,0-2-0.5-2-2.5v-3.4h1.1v3.2
			c0,1.1,0.3,1.8,1.3,1.8c0.7,0,1.2-0.5,1.4-1c0.1-0.2,0.1-0.3,0.1-0.5v-3.6h1.1L35.5,49.8L35.5,49.8z"/>
		<path class="st0" d="M37.3,42.9h1.1v8.5h-1.1V42.9z"/>
		<path class="st0" d="M43.3,51.4l-0.1-0.7l0,0c-0.3,0.5-0.9,0.9-1.8,0.9c-1.2,0-1.8-0.8-1.8-1.7c0-1.4,1.2-2.2,3.5-2.2v-0.1
			c0-0.5-0.1-1.3-1.3-1.3c-0.5,0-1.1,0.2-1.5,0.4L40.1,46c0.5-0.3,1.2-0.5,1.9-0.5c1.8,0,2.2,1.2,2.2,2.4V50c0,0.5,0,1,0.1,1.4H43.3
			z M43.2,48.5c-1.2,0-2.5,0.2-2.5,1.3c0,0.7,0.5,1,1,1c0.8,0,1.2-0.5,1.4-1c0-0.1,0.1-0.2,0.1-0.3V48.5z"/>
		<path class="st0" d="M47.1,43.9v1.7h1.5v0.8h-1.5v3.1c0,0.7,0.2,1.1,0.8,1.1c0.3,0,0.5,0,0.6-0.1v0.8c-0.2,0.1-0.5,0.1-0.9,0.1
			c-0.5,0-0.9-0.2-1.1-0.4c-0.3-0.3-0.4-0.8-0.4-1.5v-3.2h-0.9v-0.8h0.9v-1.4L47.1,43.9z"/>
		<path class="st0" d="M55,48.5c0,2.1-1.5,3.1-2.9,3.1c-1.6,0-2.8-1.2-2.8-3c0-1.9,1.3-3.1,2.9-3.1C53.9,45.5,55,46.7,55,48.5z
			 M50.4,48.5c0,1.3,0.7,2.2,1.8,2.2c1,0,1.8-0.9,1.8-2.3c0-1-0.5-2.2-1.7-2.2C50.9,46.3,50.4,47.4,50.4,48.5z"/>
		<path class="st0" d="M56.3,47.4c0-0.7,0-1.3,0-1.8h0.9v1.1l0,0c0.3-0.8,0.9-1.3,1.6-1.3c0.1,0,0.2,0,0.3,0v1c-0.1,0-0.2,0-0.4,0
			c-0.7,0-1.3,0.6-1.4,1.4c0,0.1,0,0.3,0,0.5v3.1h-1C56.3,51.4,56.3,47.4,56.3,47.4z"/>
	</g>
</g>
</svg>
