<?xml version="1.0" encoding="utf-8"?>
<!-- Generator: Adobe Illustrator 21.0.2, SVG Export Plug-In . SVG Version: 6.00 Build 0)  -->
<svg version="1.1" id="Layer_1" xmlns="http://www.w3.org/2000/svg" xmlns:xlink="http://www.w3.org/1999/xlink" x="0px" y="0px"
	 viewBox="0 0 74 74" style="enable-background:new 0 0 74 74;" xml:space="preserve">
<style type="text/css">
	.st0{fill:none;stroke:#006FAF;stroke-width:2;stroke-miterlimit:10;}
	.st1{fill:#006FAF;}
</style>
<title>android</title>
<circle class="st0" cx="37" cy="37" r="36"/>
<g>
	<path class="st1" d="M48.2,47.4c0,0.9-0.7,1.6-1.6,1.6l0,0H27.5c-0.9,0-1.6-0.7-1.6-1.6l0,0v-17h22.3L48.2,47.4L48.2,47.4z"/>
	<path class="st1" d="M32.9,21.7c0.1,0.2,0,0.4-0.2,0.5l0,0l0,0c-0.2,0.1-0.4,0-0.5-0.2l0,0l-2.4-4.7c-0.1-0.2,0-0.4,0.2-0.5l0,0
		l0,0c0.2-0.1,0.4,0,0.5,0.2l0,0L32.9,21.7z"/>
	<path class="st1" d="M41.7,21.9c-0.1,0.2-0.3,0.2-0.5,0.1l0,0c-0.2-0.1-0.2-0.3-0.1-0.5l2.6-4.6c0.1-0.2,0.3-0.2,0.5-0.1l0,0
		c0.2,0.1,0.2,0.3,0.1,0.5L41.7,21.9z"/>
	<path class="st1" d="M54,42.8c0,1.3-1.1,2.4-2.4,2.4l0,0c-1.3,0-2.4-1.1-2.4-2.4V32.3c0-1.3,1.1-2.4,2.4-2.4l0,0
		c1.3,0,2.4,1.1,2.4,2.4V42.8z"/>
	<path class="st1" d="M24.8,42.8c0,1.3-1.1,2.4-2.4,2.4l0,0c-1.3,0-2.4-1.1-2.4-2.4V32.3c0-1.3,1.1-2.4,2.4-2.4l0,0
		c1.3,0,2.4,1.1,2.4,2.4V42.8z"/>
	<path class="st1" d="M35.3,54.8c0,1.3-1.1,2.4-2.4,2.4l0,0c-1.3,0-2.4-1.1-2.4-2.4V44.3c0-1.3,1.1-2.4,2.4-2.4l0,0
		c1.3,0,2.4,1.1,2.4,2.4V54.8z"/>
	<path class="st1" d="M43.6,54.8c0,1.3-1.1,2.4-2.4,2.4l0,0c-1.3,0-2.4-1.1-2.4-2.4V44.3c0-1.3,1.1-2.4,2.4-2.4l0,0
		c1.3,0,2.4,1.1,2.4,2.4V54.8z"/>
	<path class="st1" d="M37,19.2c-5.8,0-10.7,4.4-11.3,10.2h22.6C47.7,23.6,42.8,19.2,37,19.2z M31.9,25.4c-0.5,0-0.9-0.4-0.9-0.9
		s0.4-0.9,0.9-0.9c0.5,0,0.9,0.4,0.9,0.9l0,0C32.9,24.9,32.5,25.4,31.9,25.4z M42.1,25.4c-0.5,0-0.9-0.4-0.9-0.9s0.4-0.9,0.9-0.9
		S43,24,43,24.5C43.1,24.9,42.7,25.4,42.1,25.4z"/>
</g>
</svg>
