<?xml version="1.0" encoding="utf-8"?>
<!-- Generator: Adobe Illustrator 21.0.2, SVG Export Plug-In . SVG Version: 6.00 Build 0)  -->
<svg version="1.1" id="Layer_1" xmlns="http://www.w3.org/2000/svg" xmlns:xlink="http://www.w3.org/1999/xlink" x="0px" y="0px"
	 viewBox="0 0 74 74" style="enable-background:new 0 0 74 74;" xml:space="preserve">
<style type="text/css">
	.st0{fill:none;stroke:#006FAF;stroke-width:2;stroke-miterlimit:10;}
	.st1{fill:#006FAF;}
</style>
<title>infragistics</title>
<circle class="st0" cx="37" cy="37" r="36"/>
<g>
	<path class="st1" d="M32,53.4c-0.2-0.3-0.3-0.3-0.2-0.4c1-4.4-1.5-6.5-5.2-7.8c-2.3-0.8-3.2-2.3-3-4.8c0.2-3,0.1-6.1,0.1-9.5
		c3.8,2,7.4,3.9,10.9,5.8c1.6,0.9,3,1,4.6,0c3.6-2.1,7.4-4,11.4-6.1c0,4.2,0,8,0,11.9c0,0.6-0.4,1-0.9,1.2
		C43.7,47,37.8,50.2,32,53.4z"/>
	<path class="st1" d="M37.2,20.6c0.5,0.2,1.1,0.5,1.7,0.8c3.4,1.8,6.7,3.6,10.1,5.4c0.7,0.4,1.5,0.7,1.5,1.5s-0.9,0.9-1.4,1.2
		c-3.5,1.9-7,3.7-10.5,5.6c-1.2,0.6-2.2,0.7-3.4,0.1c-3.5-1.9-7-3.8-10.5-5.6C23.4,29,23,28,24.3,27.3c4-2.3,8-4.3,12.1-6.5
		C36.6,20.7,36.8,20.7,37.2,20.6z"/>
</g>
</svg>
