<?xml version="1.0" encoding="utf-8"?>
<!-- Generator: Adobe Illustrator 21.0.2, SVG Export Plug-In . SVG Version: 6.00 Build 0)  -->
<svg version="1.1" id="Layer_1" xmlns="http://www.w3.org/2000/svg" xmlns:xlink="http://www.w3.org/1999/xlink" x="0px" y="0px"
	 viewBox="0 0 74 74" style="enable-background:new 0 0 74 74;" xml:space="preserve">
<style type="text/css">
	.st0{fill:none;stroke:#006FAF;stroke-width:2;stroke-miterlimit:10;}
	.st1{fill:#006FAF;}
</style>
<title>java</title>
<circle class="st0" cx="37" cy="37" r="36"/>
<g id="Layer_1_1_">
</g>
<path class="st1" d="M52.4,31c-0.6-0.4-0.8-1.1-0.8-1.8c-0.2-2.6-1.3-4.8-3.2-6.5c-1.7-1.5-3.7-2.4-6-2.5c-0.1,0-0.1,0-0.2,0
	c-0.5,0-1,0-1.5,0c-0.1,0-0.1,0-0.2,0c-2.7,0.2-5,1.3-6.7,3.4c-0.5,0.7-1.1,0.9-2,0.9c-2.6,0-4.6,1.2-5.6,3.6
	c-0.5,1.2-1.2,1.7-2.4,2.1c-2.6,0.8-5.1,3.7-4.5,7.1c0.2,4.4,3.9,7.1,7.4,6.9c1.6-0.1,3.3,0,4.9,0c0.6,0,1,0.1,1.3,0.8
	c1.1,2.8,4.4,3.9,6.9,2.4c1.9-1.1,2.8-3.3,2.4-5.3c-0.5-2-2.2-3.5-4.2-3.7c-2.3-0.2-4.2,0.9-5,3c-0.2,0.6-0.5,0.8-1.1,0.8
	c-1.7,0-3.4,0-5.1,0c-0.8,0-1.7-0.1-2.4-0.5c-2.1-1.1-3.2-3.5-2.6-5.7s2.6-3.7,5.1-3.5c1,0.1,1.3,0,1.3-1.2
	c-0.2-2.7,2.6-4.8,5.2-3.9c0.8,0.3,1.1,0.2,1.5-0.6c1.8-3.4,5.5-4.9,9.1-3.7c3.5,1.1,5.7,4.5,5.3,8.3c-0.1,0.6,0.2,0.8,0.6,1
	c2.1,1.2,3.2,3.6,2.6,5.9c-0.5,2.2-2.5,3.8-4.9,4c-0.7,0.1-1-0.1-1.1-0.9c-0.8-4-4-6.9-8-7.3c-0.4,0-0.8-0.4-0.9,0.4
	c-0.1,0.6-0.8,1.6,0.7,1.7c3.4,0.4,6.1,3.3,6.3,6.5c0.2,3.3-2.1,6.4-5.3,7.3c-0.6,0.2-1.4-0.1-1.6,0.4c-0.2,0.5-0.1,1.2-0.1,1.8v0.1
	c0.5,0,1,0,1.5,0c0.9-0.2,1.8-0.2,2.7-0.6c2.6-1.3,4.2-3.4,5-6.2c0.2-0.6,0.3-1,1.1-1.1c4-0.3,6.2-2.2,7.1-6.1
	C55,36.6,54.9,32.7,52.4,31z"/>
</svg>
