<?xml version="1.0" encoding="utf-8"?>
<!-- Generator: Adobe Illustrator 21.0.2, SVG Export Plug-In . SVG Version: 6.00 Build 0)  -->
<svg version="1.1" id="Layer_1" xmlns="http://www.w3.org/2000/svg" xmlns:xlink="http://www.w3.org/1999/xlink" x="0px" y="0px"
	 viewBox="0 0 74 74" style="enable-background:new 0 0 74 74;" xml:space="preserve">
<style type="text/css">
	.st0{fill:#006FAF;}
</style>
<title>os-patch-management</title>
<g id="text">
</g>
<path class="st0" d="M37,74C16.6,74,0,57.4,0,37S16.6,0,37,0s37,16.6,37,37S57.4,74,37,74z M37,2C17.7,2,2,17.7,2,37s15.7,35,35,35
	s35-15.7,35-35S56.3,2,37,2z"/>
<g>
	<path class="st0" d="M45.9,24.3c-4.2-0.7-8.1,1.4-10.1,5.3c-1.2,2.3-1.6,4.9-1.7,7.5c0,0.9,0,1.8,0,2.6c0,0.2,0,0.4-0.2,0.5
		c-2.4,0.7-4.7,1-7.1,0.1c-2.6-1-4.1-3-5-5.5c-0.1-0.3,0-0.5,0-0.8C23,27.5,28.4,22.4,35,21.6c3.7-0.5,7.1,0.3,10.3,2.3
		c0.1,0.1,0.3,0.2,0.4,0.3C45.7,24.2,45.8,24.2,45.9,24.3z"/>
	<path class="st0" d="M21.5,36.1c0.4,1,1,1.9,1.6,2.6c2.2,2.4,5,3.4,8.2,3.2c3.3-0.2,6.1-1.5,8.9-3.2c0.1,0,0.2-0.1,0.2-0.1
		c0.8-0.5,0.8-0.5,1.5,0.2c1.5,1.6,2.7,3.3,3,5.5c0.4,2.6-0.4,4.9-2,7c-0.1,0.2-0.3,0.2-0.4,0.3c-9.1,3.5-19.2-2.2-20.9-11.8
		C21.5,38.5,21.5,37.3,21.5,36.1z"/>
	<path class="st0" d="M43.9,50.7c0.9-1.2,1.5-2.5,1.8-3.9c0.5-2.8-0.2-5.3-1.8-7.6c-1.8-2.5-4.3-4.3-7-5.8l0,0
		c-1.1-0.6-1.1-0.6-0.7-1.9c0.7-2.2,1.8-4.2,3.8-5.5c2-1.3,4.3-1.6,6.6-1.2c0.2,0,0.4,0.1,0.5,0.3c8.2,7,6.9,20.2-2.6,25.4
		C44.3,50.7,44.2,50.8,43.9,50.7z"/>
</g>
</svg>
