<?xml version="1.0" encoding="utf-8"?>
<!-- Generator: Adobe Illustrator 21.0.2, SVG Export Plug-In . SVG Version: 6.00 Build 0)  -->
<svg version="1.1" id="Layer_1" xmlns="http://www.w3.org/2000/svg" xmlns:xlink="http://www.w3.org/1999/xlink" x="0px" y="0px"
	 viewBox="0 0 74 74" style="enable-background:new 0 0 74 74;" xml:space="preserve">
<style type="text/css">
	.st0{fill:none;stroke:#006FAF;stroke-width:2;stroke-miterlimit:10;}
	.st1{fill:#006FAF;}
</style>
<title>Cloud &amp;amp; Infrastructure Services</title>
<circle class="st0" cx="37" cy="37" r="36"/>
<g>
	<path class="st1" d="M54,25.7c0-0.5-0.1-1-0.2-1.4c-0.7-2.5-2.9-4.3-5.5-4.3c-7.5,0-15.1,0-22.6,0c-0.5,0-0.9,0.1-1.4,0.2
		c-2.5,0.6-4.3,2.9-4.3,5.5c0,7.5,0,15.1,0,22.6c0,0.3,0,0.6,0.1,0.8c0.3,1.9,1.3,3.3,3,4.2c0.8,0.5,1.8,0.6,2.7,0.6
		c3.7,0,7.5,0,11.2,0c3.7,0,7.5,0,11.2,0c0.5,0,1,0,1.5-0.2c2.5-0.7,4.3-2.9,4.3-5.5C54,40.8,54,33.2,54,25.7z M52.4,48.3
		c0,1.7-1,3.2-2.6,3.8c-0.5,0.2-0.9,0.3-1.4,0.3c-7.6,0-15.1,0-22.7,0c-2,0-3.6-1.4-4-3.3c-0.1-0.3-0.1-0.6-0.1-0.9
		c0-3.7,0-7.5,0-11.2s0-7.5,0-11.2c0-0.9,0.2-1.7,0.8-2.4c0.7-0.9,1.6-1.5,2.8-1.7c0.2,0,0.4,0,0.6,0c7.5,0,15,0,22.5,0
		c1.7,0,2.9,0.8,3.7,2.3c0.3,0.6,0.4,1.2,0.4,1.9c0,6.2,0,12.4,0,18.5C52.4,45.6,52.4,47,52.4,48.3z"/>
	<path class="st1" d="M47.5,33c-1,0-2,0-3,0c-0.1,0-0.1,0-0.1-0.1c0-0.7,0-1.5,0-2.2c0-0.6-0.4-0.9-0.9-0.9c-0.7,0-1.5,0-2.2,0
		c-0.1,0-0.1,0-0.1-0.1c0-0.8,0-1.5,0-2.3c0-0.5-0.3-0.9-0.9-0.9c-2.1,0-4.2,0-6.4,0c-0.5,0-0.9,0.3-0.9,0.9c0,0.8,0,1.5,0,2.3
		c0,0.1,0,0.1-0.1,0.1c-0.8,0-1.5,0-2.3,0c-0.5,0-0.9,0.3-0.9,0.9c0,0.7,0,1.5,0,2.2c0,0.1,0,0.1-0.1,0.1c-1,0-2,0-3,0
		c-0.6,0-0.9,0.3-0.9,0.9c0,4.3,0,8.5,0,12.8c0,0.5,0.4,0.9,0.9,0.9c1.4,0,2.8,0,4.2,0c1.1,0,2.2,0,3.3,0c1.1,0,2.2,0,3.2,0
		c1.1,0,2.2,0,3.2,0c1.1,0,2.2,0,3.3,0c1.2,0,2.4,0,3.6,0c0.1,0,0.2,0,0.3,0c0.4-0.1,0.6-0.4,0.6-0.8c0-2.1,0-4.3,0-6.4
		c0-2.1,0-4.3,0-6.4C48.3,33.3,48,33,47.5,33z M46.6,45.9c-0.7,0-1.4,0-2.2,0c-0.1,0-0.1,0-0.1-0.1c0-1.6,0-3.1,0-4.7
		c0-0.4-0.2-0.7-0.5-0.8c-0.5-0.2-1.1,0.2-1.1,0.8c0,1.6,0,3.2,0,4.7c0,0.1,0,0.1-0.1,0.1c-0.5,0-0.9,0-1.4,0c-0.1,0-0.1,0-0.1-0.1
		c0-1.5,0-3.1,0-4.6c0-0.3,0-0.5-0.2-0.7c-0.2-0.2-0.5-0.3-0.9-0.2c-0.3,0.1-0.5,0.4-0.5,0.8c0,1.6,0,3.1,0,4.7c0,0.1,0,0.2-0.2,0.2
		c-0.4,0-0.9,0-1.3,0c-0.1,0-0.1,0-0.1-0.1c0-1.6,0-3.1,0-4.7c0-0.2-0.1-0.5-0.2-0.7c-0.2-0.2-0.5-0.3-0.9-0.2
		c-0.3,0.1-0.5,0.4-0.5,0.7c0,1.6,0,3.2,0,4.7c0,0.1,0,0.2-0.2,0.2c-0.5,0-0.9,0-1.4,0c-0.1,0-0.1,0-0.1-0.1c0-1.6,0-3.1,0-4.7
		c0-0.4-0.2-0.7-0.5-0.8C33.5,40.1,33,40.5,33,41c0,1.6,0,3.1,0,4.7c0,0.1,0,0.1-0.1,0.1c-0.5,0-0.9,0-1.4,0c-0.1,0-0.1,0-0.1-0.1
		c0-1.6,0-3.1,0-4.7c0-0.4-0.3-0.8-0.7-0.8c-0.5-0.1-0.9,0.3-1,0.8c0,0.3,0,0.6,0,0.9c0,1.3,0,2.6,0,3.9c0,0.1,0,0.1-0.1,0.1
		c-0.7,0-1.4,0-2.2,0c-0.1,0-0.1,0-0.1-0.1c0-1.8,0-3.7,0-5.5c0-1.8,0-3.7,0-5.5c0-0.1,0-0.1,0.1-0.1c1,0,2,0,3,0
		c0.5,0,0.9-0.4,0.9-0.9c0-0.7,0-1.5,0-2.2c0-0.2,0-0.2,0.2-0.2c0.7,0,1.5,0,2.2,0c0.5,0,0.9-0.3,0.9-0.9c0-0.7,0-1.5,0-2.2
		c0-0.1,0-0.1,0.1-0.1c1.5,0,3.1,0,4.6,0c0.1,0,0.1,0,0.1,0.1c0,0.7,0,1.5,0,2.2c0,0.5,0.3,0.9,0.9,0.9c0.8,0,1.5,0,2.3,0
		c0.1,0,0.1,0,0.1,0.1c0,0.7,0,1.5,0,2.2c0,0.5,0.3,0.9,0.9,0.9c1,0,2,0,3,0c0.1,0,0.1,0,0.1,0.1c0,3.7,0,7.4,0,11.1
		C46.7,45.9,46.7,45.9,46.6,45.9z"/>
</g>
</svg>
