<?xml version="1.0" encoding="utf-8"?>
<!-- Generator: Adobe Illustrator 21.0.2, SVG Export Plug-In . SVG Version: 6.00 Build 0)  -->
<svg version="1.1" id="Layer_1" xmlns="http://www.w3.org/2000/svg" xmlns:xlink="http://www.w3.org/1999/xlink" x="0px" y="0px"
	 viewBox="0 0 74 74" style="enable-background:new 0 0 74 74;" xml:space="preserve">
<style type="text/css">
	.st0{fill:#006FAF;}
</style>
<title>health-checks</title>
<path class="st0" d="M37,74C16.6,74,0,57.4,0,37S16.6,0,37,0s37,16.6,37,37S57.4,74,37,74z M37,2C17.7,2,2,17.7,2,37s15.7,35,35,35
	s35-15.7,35-35S56.3,2,37,2z"/>
<g>
	<path class="st0" d="M21,39c-0.3,0-0.5-0.1-0.7-0.3C20.1,38.5,20,38.3,20,38s0.1-0.5,0.3-0.7c0.2-0.2,0.4-0.3,0.7-0.3
		c0.3,0,0.5,0.1,0.7,0.3S22,37.7,22,38s-0.1,0.5-0.3,0.7C21.5,38.9,21.2,39,21,39z"/>
	<path class="st0" d="M34.5,38.8h-1.8l-6.4-9.9c-0.2-0.2-0.3-0.5-0.4-0.8h-0.1c0.1,0.6,0.1,1.1,0.1,1.7v9h-1.4V26.4h1.9l6.2,9.7
		c0.3,0.4,0.4,0.7,0.5,0.8l0,0C33,36.4,33,35.7,33,35.1v-8.7h1.4L34.5,38.8L34.5,38.8z"/>
	<path class="st0" d="M44.3,38.8h-6.6V26.4H44v1.3h-4.8v4.1h4.5v1.3h-4.5v4.3h5.1V38.8z"/>
	<path class="st0" d="M54,27.7h-3.6v11.1H49V27.7h-3.6v-1.3H54V27.7z"/>
	<path class="st0" d="M33.7,47.2c-0.5,0.2-1,0.4-1.6,0.3c-0.7,0-1.4-0.3-2-0.8c-0.5-0.6-0.8-1.3-0.7-2c0-0.8,0.3-1.6,0.8-2.2
		c0.5-0.6,1.3-0.9,2.1-0.8c0.5,0,0.9,0.1,1.4,0.2v0.7c-0.4-0.2-0.9-0.3-1.4-0.3c-0.6,0-1.2,0.2-1.6,0.7s-0.6,1.1-0.6,1.8
		c0,0.6,0.2,1.2,0.6,1.7c0.4,0.4,0.9,0.6,1.5,0.6c0.5,0,1-0.1,1.5-0.4L33.7,47.2z"/>
	<path class="st0" d="M36.5,47.6c-0.5,0-1.1-0.2-1.4-0.6c-0.4-0.4-0.6-1-0.5-1.5c0-0.6,0.2-1.2,0.6-1.6c0.4-0.4,1-0.6,1.5-0.6
		s1.1,0.2,1.4,0.6c0.4,0.4,0.5,1,0.5,1.6s-0.2,1.1-0.6,1.6C37.6,47.4,37,47.6,36.5,47.6z M36.5,43.9c-0.4,0-0.7,0.1-1,0.4
		c-0.3,0.3-0.4,0.8-0.4,1.2s0.1,0.8,0.4,1.1c0.3,0.3,0.6,0.4,1,0.4s0.7-0.1,1-0.4c0.2-0.3,0.4-0.8,0.3-1.2c0-0.4-0.1-0.8-0.3-1.2
		C37.2,44,36.9,43.8,36.5,43.9z"/>
	<path class="st0" d="M41.7,44.1C41.6,44,41.4,44,41.2,44c-0.3,0-0.5,0.2-0.7,0.4c-0.2,0.3-0.3,0.7-0.3,1.1v2.1h-0.7v-4.1h0.7v0.8
		l0,0c0.1-0.3,0.2-0.5,0.4-0.7s0.4-0.2,0.6-0.2c0.1,0,0.3,0,0.4,0.1L41.7,44.1L41.7,44.1z"/>
	<path class="st0" d="M45.7,45.6h-2.9c0,0.4,0.1,0.8,0.3,1c0.3,0.3,0.6,0.4,1,0.4c0.5,0,0.9-0.2,1.3-0.5v0.6
		c-0.4,0.3-0.9,0.4-1.4,0.4s-1-0.2-1.4-0.6c-0.4-0.4-0.5-1-0.5-1.6s0.2-1.1,0.5-1.6c0.3-0.4,0.8-0.6,1.4-0.6c0.5,0,0.9,0.2,1.2,0.5
		c0.3,0.4,0.5,0.9,0.4,1.4L45.7,45.6z M45,45.1c0-0.3-0.1-0.6-0.3-0.9c-0.2-0.2-0.5-0.3-0.7-0.3c-0.3,0-0.6,0.1-0.8,0.3
		s-0.4,0.5-0.4,0.9H45z"/>
</g>
</svg>
