<?xml version="1.0" encoding="utf-8"?>
<!-- Generator: Adobe Illustrator 21.0.2, SVG Export Plug-In . SVG Version: 6.00 Build 0)  -->
<svg version="1.1" id="Layer_1" xmlns="http://www.w3.org/2000/svg" xmlns:xlink="http://www.w3.org/1999/xlink" x="0px" y="0px"
	 viewBox="0 0 74 74" style="enable-background:new 0 0 74 74;" xml:space="preserve">
<style type="text/css">
	.st0{fill:#006FAF;}
</style>
<title>health-checks</title>
<path class="st0" d="M37,74C16.6,74,0,57.4,0,37S16.6,0,37,0s37,16.6,37,37S57.4,74,37,74z M37,2C17.7,2,2,17.7,2,37s15.7,35,35,35
	s35-15.7,35-35S56.3,2,37,2z"/>
<g>
	<path class="st0" d="M55.3,38.4c-0.1,0.6-0.3,1.3-0.6,2C55.1,39.7,55.3,39,55.3,38.4z"/>
	<path class="st0" d="M51.2,43.3c0,0-7.1,1.8-14-2.8c0,0,8-7.2,10.1-7.1c0,0,4.5-2.2,7.2,1.4c0,0,0.9,1.7,0.8,3.6
		c0.3-1.4,0.2-2.4,0.2-2.4c-0.9-7.5-7.8-8.2-7.8-8.2c-7.4-1.8-14.1,7.4-14.1,7.4c-1.5-2.6-4.8-4-4.8-4c-7.8-2.7-10.1,4.3-10.1,4.3
		c-0.9,6.2,4.1,8.8,4.1,8.8c6.5,3.5,13.5-2.8,13.5-2.8c3.9,6.1,10.8,5,10.8,5c4.7-1,6.9-3.7,7.8-6C54.2,41.4,53.1,42.5,51.2,43.3z
		 M21.7,41.1c-1-4.7,3.1-5.9,3.1-5.9c4-1.7,7.3,1.4,7.3,1.4C27.3,43.3,21.7,41.1,21.7,41.1z"/>
</g>
</svg>
