<?xml version="1.0" encoding="utf-8"?>
<!-- Generator: Adobe Illustrator 21.0.2, SVG Export Plug-In . SVG Version: 6.00 Build 0)  -->
<svg version="1.1" id="Layer_1" xmlns="http://www.w3.org/2000/svg" xmlns:xlink="http://www.w3.org/1999/xlink" x="0px" y="0px"
	 viewBox="0 0 74 74" style="enable-background:new 0 0 74 74;" xml:space="preserve">
<style type="text/css">
	.st0{fill:none;stroke:#006FAF;stroke-width:2;stroke-miterlimit:10;}
	.st1{fill:#006FAF;}
</style>
<title>os-patch-management</title>
<g id="text">
</g>
<g>
	<circle class="st0" cx="37" cy="37" r="36"/>
	<g>
		<path class="st1" d="M16.6,39.6h-3.4l-0.7,2H11l3.2-8.7h1.4l3.2,8.7h-1.5L16.6,39.6z M13.6,38.4h2.6l-1.3-3.7l0,0L13.6,38.4z"/>
		<path class="st1" d="M23.6,40.7c-0.2,0.3-0.5,0.6-0.8,0.8s-0.7,0.3-1.1,0.3c-0.7,0-1.2-0.2-1.6-0.7c-0.4-0.4-0.6-1.1-0.6-2.1v-3.9
			H21V39c0,0.6,0.1,1,0.3,1.2s0.5,0.3,0.8,0.3c0.4,0,0.6-0.1,0.9-0.2c0.2-0.1,0.4-0.3,0.6-0.5v-4.7H25v6.5h-1.3L23.6,40.7z"/>
		<path class="st1" d="M28.3,33.6v1.6h1.2v1.1h-1.2v3.6c0,0.3,0.1,0.5,0.2,0.6s0.3,0.2,0.5,0.2c0.1,0,0.2,0,0.2,0s0.1,0,0.2-0.1
			l0.2,1.1c-0.1,0.1-0.3,0.1-0.4,0.2S28.9,42,28.7,42c-0.5,0-1-0.2-1.3-0.5s-0.5-0.8-0.5-1.5v-3.6h-1v-1.1h1v-1.6L28.3,33.6
			L28.3,33.6z"/>
		<path class="st1" d="M30.5,38.4c0-1,0.3-1.8,0.8-2.4c0.5-0.6,1.3-0.9,2.2-0.9s1.7,0.3,2.2,0.9c0.5,0.6,0.8,1.4,0.8,2.4v0.1
			c0,1-0.3,1.8-0.8,2.4c-0.5,0.6-1.3,0.9-2.2,0.9s-1.7-0.3-2.2-0.9C30.8,40.3,30.5,39.5,30.5,38.4L30.5,38.4z M32,38.5
			c0,0.6,0.1,1.1,0.4,1.5c0.2,0.4,0.6,0.6,1.1,0.6s0.9-0.2,1.1-0.6c0.3-0.4,0.4-0.9,0.4-1.5v-0.1c0-0.6-0.1-1.1-0.4-1.5
			c-0.3-0.4-0.6-0.6-1.1-0.6s-0.9,0.2-1.1,0.6C32.2,37.3,32,37.8,32,38.5L32,38.5z"/>
		<path class="st1" d="M44.3,38.8L44.3,38.8c0,0.9-0.3,1.6-0.8,2.2c-0.6,0.6-1.4,0.8-2.4,0.8s-1.8-0.3-2.5-1c-0.6-0.7-1-1.6-1-2.6
			v-1.7c0-1.1,0.3-1.9,0.9-2.6c0.6-0.7,1.4-1,2.5-1c1,0,1.8,0.3,2.4,0.8c0.6,0.5,0.9,1.3,0.9,2.2l0,0h-1.4c0-0.6-0.2-1-0.5-1.4
			S41.6,34,41,34s-1.1,0.2-1.4,0.7c-0.3,0.5-0.5,1.1-0.5,1.8v1.7c0,0.7,0.2,1.3,0.5,1.8c0.4,0.5,0.8,0.7,1.4,0.7
			c0.6,0,1.1-0.2,1.4-0.5s0.5-0.8,0.5-1.4H44.3z"/>
		<path class="st1" d="M45.2,38.4c0-1,0.3-1.8,0.8-2.4c0.5-0.6,1.3-0.9,2.2-0.9s1.7,0.3,2.2,0.9c0.5,0.6,0.8,1.4,0.8,2.4v0.1
			c0,1-0.3,1.8-0.8,2.4c-0.5,0.6-1.3,0.9-2.2,0.9s-1.7-0.3-2.2-0.9C45.5,40.3,45.2,39.5,45.2,38.4L45.2,38.4z M46.7,38.5
			c0,0.6,0.1,1.1,0.4,1.5c0.2,0.4,0.6,0.6,1.1,0.6s0.9-0.2,1.1-0.6c0.3-0.4,0.4-0.9,0.4-1.5v-0.1c0-0.6-0.1-1.1-0.4-1.5
			c-0.3-0.4-0.6-0.6-1.1-0.6s-0.9,0.2-1.1,0.6C46.9,37.3,46.7,37.8,46.7,38.5L46.7,38.5z"/>
		<path class="st1" d="M53.8,35.2l0.1,0.9c0.2-0.3,0.5-0.6,0.8-0.8s0.7-0.3,1.1-0.3c0.7,0,1.2,0.2,1.6,0.6s0.6,1,0.6,1.9v4.1h-1.5
			v-4.1c0-0.5-0.1-0.8-0.3-1s-0.5-0.3-0.9-0.3c-0.3,0-0.5,0.1-0.8,0.2S54,36.8,53.9,37v4.7h-1.5v-6.5H53.8z"/>
		<path class="st1" d="M59.9,41.7v-5.4h-1v-1.1h1v-0.8c0-0.7,0.2-1.3,0.6-1.7s0.9-0.6,1.6-0.6c0.1,0,0.3,0,0.4,0s0.3,0.1,0.5,0.1
			l-0.1,1.1c-0.1,0-0.2,0-0.3,0s-0.2,0-0.3,0c-0.3,0-0.6,0.1-0.7,0.3s-0.2,0.4-0.2,0.8v0.8h1.3v1.1h-1.3v5.4
			C61.4,41.7,59.9,41.7,59.9,41.7z"/>
	</g>
</g>
</svg>
