<?xml version="1.0" encoding="utf-8"?>
<!-- Generator: Adobe Illustrator 21.0.2, SVG Export Plug-In . SVG Version: 6.00 Build 0)  -->
<svg version="1.1" id="Layer_1" xmlns="http://www.w3.org/2000/svg" xmlns:xlink="http://www.w3.org/1999/xlink" x="0px" y="0px"
	 viewBox="0 0 75 75" style="enable-background:new 0 0 75 75;" xml:space="preserve">
<style type="text/css">
	.st0{fill:#006FAF;}
</style>
<path class="st0" d="M37.5,74.5c-20.4,0-37-16.6-37-37s16.6-37,37-37s37,16.6,37,37S57.9,74.5,37.5,74.5z M37.5,2.5
	c-19.3,0-35,15.7-35,35s15.7,35,35,35s35-15.7,35-35S56.8,2.5,37.5,2.5z"/>
<path class="st0" d="M51,33.5l2-0.3l-0.2-0.5c-2-5.8-5.9-9.5-11.5-11l0.3-1.1c6,1.6,10.2,5.7,12.4,12.2l0.1,0.4l2.4-0.3L54.4,38
	L51,33.5z"/>
<path class="st0" d="M36.9,54.2l4.5-3.2l0.2,2l0.5-0.2c5.9-1.7,9.8-5.4,11.5-10.9l1.1,0.3C52.8,48.1,48.6,52.1,42,54l-0.4,0.1
	l0.2,2.4L36.9,54.2z"/>
<path class="st0" d="M33.5,54.4c-6-1.6-10.2-5.6-12.5-12.1L20.9,42l-2.4,0.3l2-5.2l3.4,4.3l-2,0.3l0.2,0.5c2.1,5.8,6,9.5,11.6,11
	L33.5,54.4z"/>
<path class="st0" d="M20.2,32.8c1.9-5.9,6.2-9.9,12.8-11.9l0.4-0.1L33,18.4l5.1,2.3L33.6,24l-0.2-2l-0.5,0.2
	c-5.9,1.8-9.8,5.5-11.6,11L20.2,32.8z"/>
<path class="st0" d="M38.1,38.2h4.5c0.3,1.1,1.3,2,2.5,2c1.4,0,2.6-1.1,2.6-2.6c0-1.4-1.1-2.6-2.6-2.6c-1.2,0-2.2,0.8-2.5,2h-4.5
	v-4.5h4.5c0.3,1.1,1.3,2,2.5,2c1.4,0,2.6-1.1,2.6-2.6c0-1.4-1.1-2.6-2.6-2.6c-1.2,0-2.2,0.8-2.5,2H32.4c-0.3-1.1-1.3-2-2.5-2
	c-1.4,0-2.6,1.1-2.6,2.6c0,1.4,1.1,2.6,2.6,2.6c1.2,0,2.2-0.8,2.5-2h4.5V37h-4.5c-0.3-1.1-1.3-2-2.5-2c-1.4,0-2.6,1.1-2.6,2.6
	c0,1.4,1.1,2.6,2.6,2.6c1.2,0,2.2-0.8,2.5-2h4.5v4.3h-4.5c-0.3-1.1-1.3-2-2.5-2c-1.4,0-2.6,1.1-2.6,2.6s1.1,2.6,2.6,2.6
	c1.2,0,2.2-0.8,2.5-2h10.1c0.3,1.1,1.3,2,2.5,2c1.4,0,2.6-1.1,2.6-2.6s-1.1-2.6-2.6-2.6c-1.2,0-2.2,0.8-2.5,2H38L38.1,38.2
	L38.1,38.2z M43.7,37.6c0-0.8,0.6-1.4,1.4-1.4c0.8,0,1.4,0.6,1.4,1.4c0,0.8-0.6,1.4-1.4,1.4C44.3,38.9,43.7,38.3,43.7,37.6z
	 M43.7,31.9c0-0.8,0.6-1.4,1.4-1.4c0.8,0,1.4,0.6,1.4,1.4c0,0.8-0.6,1.4-1.4,1.4S43.7,32.7,43.7,31.9z M31.3,37.6
	c0,0.8-0.6,1.4-1.4,1.4s-1.4-0.6-1.4-1.4c0-0.8,0.6-1.4,1.4-1.4C30.7,36.2,31.3,36.8,31.3,37.6z M43.7,43.1c0-0.8,0.6-1.4,1.4-1.4
	c0.8,0,1.4,0.6,1.4,1.4c0,0.8-0.6,1.4-1.4,1.4C44.3,44.4,43.7,43.8,43.7,43.1z M31.3,31.9c0,0.8-0.6,1.4-1.4,1.4s-1.4-0.6-1.4-1.4
	c0-0.8,0.6-1.4,1.4-1.4C30.7,30.6,31.3,31.2,31.3,31.9z M31.3,43.1c0,0.8-0.6,1.4-1.4,1.4s-1.4-0.6-1.4-1.4c0-0.8,0.6-1.4,1.4-1.4
	C30.7,41.7,31.3,42.3,31.3,43.1z"/>
</svg>
