<?xml version="1.0" encoding="utf-8"?>
<!-- Generator: Adobe Illustrator 21.0.2, SVG Export Plug-In . SVG Version: 6.00 Build 0)  -->
<svg version="1.1" id="Layer_1" xmlns="http://www.w3.org/2000/svg" xmlns:xlink="http://www.w3.org/1999/xlink" x="0px" y="0px"
	 viewBox="0 0 74 74" style="enable-background:new 0 0 74 74;" xml:space="preserve">
<style type="text/css">
	.st0{fill:none;stroke:#006FAF;stroke-width:2;stroke-miterlimit:10;}
	.st1{fill:#006FAF;}
</style>
<title>Cloud &amp;amp; Infrastructure Services</title>
<circle class="st0" cx="37" cy="37" r="36"/>
<g>
	<path class="st1" d="M33.7,19.3c0.6,0.2,0.8,0.7,0.8,1.3c0,2.3,0,4.6,0,6.9c0,0.4-0.1,0.5-0.5,0.5c-0.9,0-1.9,0-2.8,0
		c-0.4,0-0.5-0.1-0.5-0.5c0-1.3,0-2.7,0-4c0-0.4-0.1-0.5-0.5-0.5c-1.3,0-2.7,0-4,0c-0.3,0-0.5,0-0.5,0.4c0,6.4,0,12.7,0,19.1
		c0,0.3,0.1,0.4,0.4,0.4c0.9,0,1.9,0,2.8,0c0.3,0,0.5,0.1,0.4,0.4c0,1,0,2,0,3c0,0.3-0.1,0.4-0.4,0.4c-1.8,0-3.6,0-5.4,0
		c-0.7,0-1.6-0.9-1.6-1.6c0-8.1,0-16.2,0-24.2c0-0.6,0.1-1.2,0.8-1.5C26.4,19.3,30,19.3,33.7,19.3z"/>
	<path class="st1" d="M43.2,47.2c-2.3,0-4.6,0-6.9,0c-0.4,0-0.6-0.1-0.5-0.5c0-0.9,0-1.8,0-2.7c0-0.5,0.2-0.6,0.6-0.6
		c3.8,0,7.5,0,11.3,0c0.6,0,0.8-0.2,0.7-0.7c-0.1-0.6,0-1.1-0.1-1.7c-0.1-0.8-0.5-1.2-1.2-1.4c-1-0.2-1.9-0.1-2.9-0.1
		c-0.9,0-1.9,0-2.8,0.1c-0.3,0-0.4-0.1-0.4-0.4c0.1-1.3,0.2-2.6,0-3.9c-0.2-1.9-0.6-3.7-1.6-5.4c-0.8-1.2-1.8-2.1-3.2-2.6
		c-0.3-0.1-0.4-0.3-0.4-0.6c0-0.9,0-1.8,0-2.7c0-0.5,0.2-0.5,0.6-0.4c3.9,1,6.5,3.5,7.8,7.3c0.5,1.4,0.8,2.8,0.9,4.2
		c0,0.4,0.2,0.5,0.6,0.5c1.6,0,3,0.3,4.3,1.3c1.3,1,2,2.4,2.1,4c0,1.6,0,3.1,0,4.7c0,0.8-0.9,1.7-1.7,1.7
		C47.9,47.2,45.6,47.2,43.2,47.2z"/>
	<path class="st1" d="M27.8,48.1c0.8,0,1.6,0,2.5,0c0.4,0,0.5-0.1,0.5-0.5c0-2.2,0-4.3,0-6.5c0-0.4,0.1-0.6,0.5-0.5
		c0.8,0,1.7,0,2.5,0c0.4,0,0.6,0.1,0.6,0.6c0,2.1,0,4.3,0,6.4c0,0.5,0.1,0.6,0.6,0.6c0.9,0,1.8,0,2.6,0c0.1,0.2,0,0.3-0.1,0.4
		c-1.5,2-3,4-4.5,6c-0.1,0.2-0.2,0.4-0.5,0.1c-1.5-2.1-3.1-4.2-4.6-6.2C27.8,48.3,27.8,48.2,27.8,48.1z"/>
	<path class="st1" d="M32.7,33.1c1.4,0,2.8,0,4.3,0c0.4,0,0.5,0.1,0.5,0.5c0,0.8,0,1.7,0,2.5c0,0.3-0.1,0.3-0.4,0.3
		c-2.9,0-5.8,0-8.8,0c-0.3,0-0.4-0.1-0.3-0.3c0-0.9,0-1.7,0-2.6c0-0.3,0.1-0.4,0.4-0.4C29.8,33.1,31.3,33.1,32.7,33.1z"/>
	<path class="st1" d="M32.7,40.1c-1.4,0-2.9,0-4.3,0c-0.3,0-0.4-0.1-0.4-0.4c0-0.9,0-1.7,0-2.6c0-0.3,0.1-0.3,0.3-0.3
		c2.9,0,5.8,0,8.8,0c0.3,0,0.4,0.1,0.3,0.3c0,0.9,0,1.7,0,2.6c0,0.3-0.1,0.4-0.4,0.4C35.6,40.1,34.2,40.1,32.7,40.1z"/>
	<path class="st1" d="M32.8,32.6c-1.4,0-2.9,0-4.3,0c-0.4,0-0.5-0.1-0.5-0.5c0-0.8,0-1.6,0-2.3c0-0.3,0-0.4,0.4-0.4
		c2.9,0,5.8,0,8.8,0c0.3,0,0.3,0.1,0.3,0.4c0,0.8,0,1.6,0,2.4c0,0.3-0.1,0.4-0.4,0.4C35.6,32.6,34.2,32.6,32.8,32.6z"/>
</g>
</svg>
