<svg id="Layer_1" data-name="Layer 1" xmlns="http://www.w3.org/2000/svg" viewBox="0 0 74 74"><defs><style>.cls-1,.cls-3{fill:#006faf;}.cls-2{fill:#fdfefe;}.cls-3{font-size:8px;font-family:Roboto-Regular, Roboto;}.cls-4{letter-spacing:-0.01em;}.cls-5{letter-spacing:-0.01em;}.cls-6{letter-spacing:0.01em;}</style></defs><title>azure-active-directory</title><path class="cls-1" d="M37,74A37,37,0,1,1,74,37,37,37,0,0,1,37,74ZM37,2A35,35,0,1,0,72,37,35,35,0,0,0,37,2Z"/><path class="cls-1" d="M36.45,13.5c.32,0,.34.3.47.46C38,15.19,39,16.43,40,17.67L49.85,29.4l2.58,3.08c.27.32.26.32-.06.59l-7.41,6-8.1,6.61-.28.21c0-.16-.13-.22-.22-.3L20.81,33c-.21-.17-.26-.27-.06-.51q7.76-9.18,15.49-18.37C36.38,13.92,36.54,13.77,36.45,13.5Zm.23,6.9a2.73,2.73,0,0,0-2.47,1.48,2.63,2.63,0,0,0,.09,2.81c.11.18.11.27-.05.41q-2.49,2.28-5,4.59a.32.32,0,0,1-.41.07,2.41,2.41,0,0,0-2.5.3,2.45,2.45,0,0,0-1,2.45,2.56,2.56,0,0,0,4.11,1.65.29.29,0,0,1,.36-.05l4.74,2.55c.16.08.16.15.06.28a2.28,2.28,0,0,0-.47,1.13,2.56,2.56,0,0,0,1.52,2.72,2.59,2.59,0,0,0,2.88-.56,2.53,2.53,0,0,0,.41-3c-.08-.15-.09-.22.06-.33L43.06,34a.26.26,0,0,1,.38,0,2.42,2.42,0,0,0,1.72.62,2.64,2.64,0,0,0,2.4-1.74,2.56,2.56,0,0,0-3.74-3c-.18.11-.27.1-.41-.07q-2.08-2.48-4.18-4.94a.27.27,0,0,1,0-.36A2.79,2.79,0,0,0,36.68,20.4Z"/><path class="cls-2" d="M36.68,20.4a2.79,2.79,0,0,1,2.5,4.12.27.27,0,0,0,0,.36q2.1,2.46,4.18,4.94c.14.16.23.18.41.07a2.56,2.56,0,0,1,3.74,3,2.64,2.64,0,0,1-2.4,1.74A2.42,2.42,0,0,1,43.44,34a.26.26,0,0,0-.38,0L39,36.9c-.15.1-.14.18-.06.33a2.53,2.53,0,0,1-.41,3,2.59,2.59,0,0,1-2.88.56,2.56,2.56,0,0,1-1.52-2.72,2.28,2.28,0,0,1,.47-1.13c.11-.13.1-.2-.06-.28l-4.74-2.55a.29.29,0,0,0-.36.05,2.56,2.56,0,0,1-4.11-1.65,2.45,2.45,0,0,1,1-2.45,2.41,2.41,0,0,1,2.5-.3.32.32,0,0,0,.41-.07q2.47-2.3,5-4.59c.16-.15.16-.24.05-.41a2.63,2.63,0,0,1-.09-2.81A2.73,2.73,0,0,1,36.68,20.4Zm.4,10.93v.8c0,1.25,0,2.51,0,3.76,0,.21,0,.28.24.14s.5-.32.75-.48l4.31-2.77c.11-.07.24-.12.2-.31a2.09,2.09,0,0,1,.07-1.07.41.41,0,0,0-.11-.43l-4-4.74c-.37-.44-.37-.44-.82-.1a2.78,2.78,0,0,1-.36.26.53.53,0,0,0-.27.55C37.08,28.4,37.08,29.87,37.08,31.33Zm-1.18,0c0-1.42,0-2.85,0-4.27a1.52,1.52,0,0,0-.33-1c-.1-.13-.15-.15-.28,0l-5,4.64a.24.24,0,0,0-.06.35,2.26,2.26,0,0,1,.21,1.58.27.27,0,0,0,.16.35l5,3c.08,0,.16.15.25.1s0-.17,0-.26Q35.9,33.58,35.9,31.33Z"/><path class="cls-1" d="M37.08,31.33c0-1.47,0-2.93,0-4.4a.53.53,0,0,1,.27-.55,2.78,2.78,0,0,0,.36-.26c.45-.34.45-.34.82.1l4,4.74a.41.41,0,0,1,.11.43,2.09,2.09,0,0,0-.07,1.07c0,.19-.09.24-.2.31l-4.31,2.77c-.25.16-.5.31-.75.48s-.24.07-.24-.14c0-1.25,0-2.51,0-3.76Z"/><path class="cls-1" d="M35.9,31.33q0,2.25,0,4.5c0,.09.05.21,0,.26s-.17-.05-.25-.1l-5-3a.27.27,0,0,1-.16-.35A2.26,2.26,0,0,0,30.19,31a.24.24,0,0,1,.06-.35l5-4.64c.13-.12.19-.1.28,0a1.52,1.52,0,0,1,.33,1C35.88,28.48,35.9,29.91,35.9,31.33Z"/><text class="cls-3" transform="translate(9.4 53.52)">Acti<tspan class="cls-4" x="14.21" y="0">v</tspan><tspan x="18.18" y="0">e Di</tspan><tspan class="cls-5" x="31.68" y="0">r</tspan><tspan x="34.35" y="0">ecto</tspan><tspan class="cls-6" x="50.14" y="0">r</tspan><tspan x="52.95" y="0">y</tspan></text></svg>