<svg id="Layer_1" data-name="Layer 1" xmlns="http://www.w3.org/2000/svg" viewBox="0 0 74 74"><defs><style>.cls-1{fill:#006faf;}.cls-2{fill:#fdfefe;}</style></defs><title>azure-ad-domain-services</title><path class="cls-1" d="M37,74A37,37,0,1,1,74,37,37,37,0,0,1,37,74ZM37,2A35,35,0,1,0,72,37,35,35,0,0,0,37,2Z"/><path class="cls-1" d="M36.69,17.5c.36,0,.39.35.54.53,1.2,1.41,2.38,2.83,3.56,4.25L52,35.7,55,39.22c.3.36.3.37-.07.67L46.43,46.8l-9.27,7.56-.32.24c0-.18-.15-.25-.25-.34L18.8,39.77c-.24-.2-.29-.31-.06-.58q8.87-10.5,17.73-21C36.62,18,36.8,17.81,36.69,17.5ZM37,25.4a3.12,3.12,0,0,0-2.83,1.69,3,3,0,0,0,.11,3.22c.12.2.12.3-.06.47Q31.33,33.39,28.5,36a.37.37,0,0,1-.47.08,2.76,2.76,0,0,0-2.86.34A2.8,2.8,0,0,0,24,39.25a2.93,2.93,0,0,0,4.7,1.89.33.33,0,0,1,.42-.06L34.52,44c.18.1.19.18.07.33a2.6,2.6,0,0,0-.54,1.3,2.93,2.93,0,0,0,1.74,3.11,3,3,0,0,0,3.29-.64,2.89,2.89,0,0,0,.47-3.43c-.09-.17-.1-.25.07-.37L44.26,41a.29.29,0,0,1,.44,0,2.77,2.77,0,0,0,2,.71,3,3,0,0,0,2.75-2,2.93,2.93,0,0,0-4.28-3.48c-.21.13-.31.11-.47-.07q-2.38-2.83-4.79-5.65a.31.31,0,0,1-.05-.41A3.2,3.2,0,0,0,37,25.4Z"/><path class="cls-2" d="M37,25.4a3.2,3.2,0,0,1,2.86,4.72.31.31,0,0,0,.05.41q2.4,2.82,4.79,5.65c.16.19.26.21.47.07a2.93,2.93,0,0,1,4.28,3.48,3,3,0,0,1-2.75,2,2.77,2.77,0,0,1-2-.71.29.29,0,0,0-.44,0l-4.63,3.29c-.17.12-.16.2-.07.37a2.89,2.89,0,0,1-.47,3.43,3,3,0,0,1-3.29.64A2.93,2.93,0,0,1,34,45.61a2.6,2.6,0,0,1,.54-1.3c.12-.15.11-.23-.07-.33L29.1,41.08a.33.33,0,0,0-.42.06A2.93,2.93,0,0,1,24,39.25a2.8,2.8,0,0,1,1.19-2.8A2.76,2.76,0,0,1,28,36.1.37.37,0,0,0,28.5,36q2.83-2.63,5.68-5.25c.18-.17.19-.27.06-.47a3,3,0,0,1-.11-3.22A3.12,3.12,0,0,1,37,25.4Zm.46,12.51v.91c0,1.43,0,2.87,0,4.3,0,.24,0,.32.27.16s.57-.37.86-.55l4.93-3.17c.12-.08.28-.13.23-.36A2.39,2.39,0,0,1,43.79,38a.47.47,0,0,0-.13-.49l-4.59-5.43c-.43-.51-.42-.51-.94-.12a3.18,3.18,0,0,1-.41.3.6.6,0,0,0-.31.63C37.42,34.55,37.42,36.23,37.42,37.9Zm-1.35,0c0-1.63,0-3.26,0-4.89a1.74,1.74,0,0,0-.38-1.13c-.11-.15-.18-.18-.33,0q-2.88,2.66-5.77,5.31a.27.27,0,0,0-.07.39,2.58,2.58,0,0,1,.25,1.8.31.31,0,0,0,.18.4l5.77,3.49c.09.05.18.17.29.11s0-.2,0-.3Q36.07,40.47,36.06,37.9Z"/><path class="cls-1" d="M37.42,37.9c0-1.68,0-3.35,0-5a.6.6,0,0,1,.31-.63,3.18,3.18,0,0,0,.41-.3c.52-.39.51-.39.94.12l4.59,5.43a.47.47,0,0,1,.13.49,2.39,2.39,0,0,0-.08,1.22c0,.22-.11.28-.23.36l-4.93,3.17c-.29.18-.58.36-.86.55s-.27.08-.27-.16c0-1.43,0-2.87,0-4.3Z"/><path class="cls-1" d="M36.06,37.9q0,2.57,0,5.14c0,.1.06.24,0,.3s-.2-.06-.29-.11L30,39.75a.31.31,0,0,1-.18-.4,2.58,2.58,0,0,0-.25-1.8.27.27,0,0,1,.07-.39q2.89-2.65,5.77-5.31c.15-.14.21-.11.33,0A1.74,1.74,0,0,1,36.08,33C36,34.64,36.06,36.27,36.06,37.9Z"/></svg>