<?xml version="1.0" encoding="utf-8"?>
<!-- Generator: Adobe Illustrator 21.0.2, SVG Export Plug-In . SVG Version: 6.00 Build 0)  -->
<svg version="1.1" id="Layer_1" xmlns="http://www.w3.org/2000/svg" xmlns:xlink="http://www.w3.org/1999/xlink" x="0px" y="0px"
	 viewBox="0 0 74 74" style="enable-background:new 0 0 74 74;" xml:space="preserve">
<style type="text/css">
	.st0{fill:none;stroke:#006FAF;stroke-width:2;stroke-miterlimit:10;}
	.st1{fill:#006FAF;}
	.st2{fill:none;stroke:#006FAF;stroke-miterlimit:10;}
</style>
<circle class="st0" cx="37" cy="37" r="36"/>
<g>
	<path class="st1" d="M41,38.6c-1.1,0-2,0.7-2.5,1.6H22.6c-2.7,0-4.8-2.3-4.8-5c0-2.7,2.1-5,4.8-5h2.3c0-0.5,0.3-1.1,0.4-1.6
		c0.1-0.1,0.1-0.4,0.3-0.5c1.1-2,3.2-3.3,5.6-3.3c2.1,0,4,1.1,5.2,2.7c0.7-0.3,1.3-0.5,2.1-0.7c-1.5-2.5-4.2-4.2-7.4-4.2
		c-3.6,0-6.7,2.3-8,5.5h-0.5c-3.9,0-7.1,3.2-7.1,7.2s3.2,7.1,7.1,7.1h15.9c0.4,0.9,1.3,1.6,2.5,1.6c1.5,0,2.7-1.2,2.7-2.8
		C43.8,39.7,42.6,38.6,41,38.6z"/>
	<path class="st2" d="M49.3,33.4c-1.5-3.1-4.7-5.2-8.3-5.2c-4.5,0-8.2,3.2-9.1,7.4c-2.2,0.3-4.1,1.4-5.2,3.1h11.1
		c0.8-1,1.9-1.5,3.2-1.5c2.3,0,4.1,1.9,4.1,4.2c0,2.3-1.9,4.2-4.1,4.2c-1.3,0-2.4-0.6-3.2-1.5H25.5c0.5,3.6,3.6,6.4,7.2,6.4h16.6
		c4.6,0,8.3-3.7,8.3-8.4S53.8,33.5,49.3,33.4L49.3,33.4z"/>
</g>
</svg>
