<svg id="Layer_1" data-name="Layer 1" xmlns="http://www.w3.org/2000/svg" viewBox="0 0 74 74"><defs><style>.cls-1{fill:#006faf;}.cls-2{fill:#fbfdfd;}.cls-3{fill:#fdfefe;}.cls-4{fill:#fcfdfe;}</style></defs><title>azure-search</title><path class="cls-1" d="M37,74A37,37,0,1,1,74,37,37,37,0,0,1,37,74ZM37,2A35,35,0,1,0,72,37,35,35,0,0,0,37,2Z"/><path class="cls-2" d="M42.49,39.39h-.83c-.14,0-.22,0-.22-.2,0-.55,0-1.1,0-1.65,0-.13,0-.18.17-.17h1.71c.13,0,.17.05.17.18,0,.55,0,1.1,0,1.65,0,.17-.08.2-.22.19Z"/><path class="cls-3" d="M37.83,38.34c0-.26,0-.51,0-.77s0-.21.2-.21h1.63c.15,0,.21,0,.21.2,0,.54,0,1.08,0,1.63,0,.13,0,.2-.18.2H38c-.17,0-.19-.08-.19-.22S37.83,38.62,37.83,38.34Z"/><path class="cls-1" d="M35.46,46.34H24.36a7.28,7.28,0,0,1-4.59-1.48A6.83,6.83,0,0,1,17,38.45a6.72,6.72,0,0,1,4.39-5.78c.22-.09.27-.18.22-.43A6.44,6.44,0,0,1,25.07,25a6,6,0,0,1,7,1.33c.27.29.26.29.44-.07a8.54,8.54,0,0,1,6.5-5,8.12,8.12,0,0,1,7.05,2.09,9,9,0,0,1,3,7,6.37,6.37,0,0,1-.22,1.79c-.08.27,0,.35.23.43a7.2,7.2,0,0,1,3.71,2.92,7.11,7.11,0,0,1-4.44,10.72,8.17,8.17,0,0,1-1.83.19Zm2.82-18A5.8,5.8,0,0,0,33,36.57a.45.45,0,0,1-.12.61Q31,39.09,29.1,41A1.67,1.67,0,0,0,31,43.65a2.34,2.34,0,0,0,.63-.48c1.2-1.22,2.4-2.44,3.59-3.67a.43.43,0,0,1,.59-.11,6,6,0,0,0,3.17.48,5.78,5.78,0,0,0-.73-11.52Z"/><path class="cls-4" d="M38.28,28.35A5.78,5.78,0,0,1,39,39.87a6,6,0,0,1-3.17-.48.43.43,0,0,0-.59.11c-1.19,1.23-2.39,2.45-3.59,3.67a2.34,2.34,0,0,1-.63.48A1.67,1.67,0,0,1,29.1,41q1.88-1.92,3.78-3.84a.45.45,0,0,0,.12-.61A5.8,5.8,0,0,1,38.28,28.35Zm0,9.35A3.54,3.54,0,0,0,41.94,34a3.61,3.61,0,0,0-3.54-3.49,3.57,3.57,0,0,0-3.65,3.66A3.51,3.51,0,0,0,38.28,37.71Z"/><path class="cls-1" d="M38.28,37.71a3.51,3.51,0,0,1-3.53-3.5,3.57,3.57,0,0,1,3.65-3.66A3.61,3.61,0,0,1,41.94,34,3.54,3.54,0,0,1,38.28,37.71Z"/></svg>