<?xml version="1.0" encoding="utf-8"?>
<!-- Generator: Adobe Illustrator 21.0.2, SVG Export Plug-In . SVG Version: 6.00 Build 0)  -->
<svg version="1.1" id="Layer_1" xmlns="http://www.w3.org/2000/svg" xmlns:xlink="http://www.w3.org/1999/xlink" x="0px" y="0px"
	 viewBox="0 0 74 74" style="enable-background:new 0 0 74 74;" xml:space="preserve">
<style type="text/css">
	.st0{fill:none;stroke:#006FAF;stroke-width:2;stroke-miterlimit:10;}
	.st1{fill:#006FAF;}
	.st2{fill:none;stroke:#0070AF;stroke-width:2;stroke-miterlimit:10;}
</style>
<title>Cloud &amp;amp; Infrastructure Services</title>
<circle class="st0" cx="37" cy="37" r="36"/>
<path class="st1" d="M28.8,49.4h-4.5l0-4.4c0-0.3-0.2-0.6-0.5-0.8c-0.2-0.1-0.4-0.2-0.7-0.2c0,0,0,0,0,0l-3.2,0.1
	c-0.5,0-0.9,0.4-0.9,1l0.1,8.7c0,0.5,0.4,1,1,1l8.8,0c0.5,0,1-0.4,1-1.1l-0.1-3.2C29.7,49.8,29.3,49.4,28.8,49.4z M21,52.8l0-6.8
	l1.4,0l0,4.4c0,0.3,0.1,0.5,0.3,0.7c0.2,0.2,0.4,0.3,0.7,0.3h4.5l0,1.4L21,52.8z"/>
<path class="st1" d="M54.9,20.3c0-0.5-0.4-1-1-1l-8.8,0c-0.5,0-1,0.4-1,1.1l0.1,3.2c0,0.5,0.4,0.9,1,0.9h4.5l0,4.4
	c0,0.3,0.1,0.6,0.4,0.8c0.2,0.1,0.4,0.2,0.8,0.2h0l3.2-0.1c0.5,0,0.9-0.4,0.9-1L54.9,20.3z M51.6,28l0-4.4c0-0.3-0.1-0.5-0.3-0.7
	c-0.2-0.2-0.4-0.3-0.7-0.3h-4.5l0-1.4l6.9,0l0,6.8L51.6,28z"/>
<g>
	<circle class="st2" cx="36.7" cy="37.2" r="3.7"/>
	<circle class="st2" cx="39.8" cy="28.5" r="2.3"/>
	<circle class="st2" cx="30.4" cy="30.5" r="2.3"/>
	<circle class="st2" cx="44.5" cy="38.5" r="2"/>
	<circle class="st2" cx="41.8" cy="45.7" r="2.1"/>
	<circle class="st2" cx="30.1" cy="43.1" r="2.6"/>
	<line class="st2" x1="31.9" y1="32.4" x2="33.9" y2="34.5"/>
	<line class="st2" x1="39.2" y1="30.9" x2="38.1" y2="33.6"/>
	<line class="st2" x1="42.6" y1="38.1" x2="40.8" y2="37.8"/>
	<line class="st2" x1="38.7" y1="40.5" x2="40.5" y2="43.7"/>
	<line class="st2" x1="33.6" y1="39.8" x2="32.3" y2="41.1"/>
</g>
</svg>
