<?xml version="1.0" encoding="utf-8"?>
<!-- Generator: Adobe Illustrator 21.0.2, SVG Export Plug-In . SVG Version: 6.00 Build 0)  -->
<svg version="1.1" id="Layer_1" xmlns="http://www.w3.org/2000/svg" xmlns:xlink="http://www.w3.org/1999/xlink" x="0px" y="0px"
	 viewBox="0 0 74 74" style="enable-background:new 0 0 74 74;" xml:space="preserve">
<style type="text/css">
	.st0{fill:none;stroke:#006FAF;stroke-width:2;stroke-miterlimit:10;}
	.st1{fill:#006FAF;}
</style>
<circle class="st0" cx="37" cy="37" r="36"/>
<g>
	<path class="st1" d="M36.9,20.9c5.1,0,10.2,0,15.3,0c0.8,0,1.4,0.3,1.9,0.9c0.3,0.4,0.4,0.8,0.4,1.3c0,7.1,0,14.1,0,21.2
		c0,1.2-0.9,2.2-2.2,2.2c-3.5,0-6.9,0-10.4,0c-0.3,0-0.5,0.1-0.6,0.4C41.2,47.6,41,48.3,41,49c-0.1,0.8,0.3,1.5,1.1,1.7
		s1.6,0.4,2.4,0.5c0.9,0.1,1.9,0.1,2.8,0.1c0.3,0,0.4,0.1,0.4,0.4c0,0.4,0,0.9,0,1.3c0,0.2-0.1,0.3-0.3,0.3c-0.1,0-0.1,0-0.2,0
		c-7.3,0-14.6,0-21.9,0c-0.5,0-0.5,0-0.5-0.5c0-0.4,0-0.8,0-1.2c0-0.2,0.1-0.3,0.3-0.3c0.9,0,1.8,0,2.7-0.1c1-0.1,1.9-0.2,2.8-0.4
		c1.3-0.3,1.8-1.3,1.6-2.6C32.1,47.8,32,47.4,32,47c0-0.3-0.2-0.4-0.5-0.4c-3.3,0-6.6,0-9.9,0c-1.3,0-2.2-0.7-2.2-2.3c0-2,0-4,0-6
		c0-5,0-10,0-15c0-0.6,0.1-1.2,0.5-1.7s1-0.6,1.6-0.6C26.7,20.9,31.8,20.9,36.9,20.9z M51.9,23.4c-0.1,0-0.3,0-0.4,0
		c-4.1,0-8.2,0-12.2,0c-5.6,0-11.1,0-16.7,0.1c-0.5,0-0.5,0-0.5,0.5c0,6.5,0,12.9,0,19.4c0,0.5,0,0.5,0.5,0.5c9.6,0,19.2,0,28.7,0
		c0.5,0,0.5,0,0.5-0.5c0-6.4,0-12.8,0-19.2C51.9,23.8,51.9,23.7,51.9,23.4z"/>
	<path class="st1" d="M42,29.9c-1.4,0.8-2.8,1.6-4.2,2.4c-0.3,0.2-0.6,0.4-1,0.6c-0.1,0.1-0.3,0.1-0.4,0c-1.7-1-3.4-1.9-5.1-2.9
		c0,0,0,0-0.1-0.1c0.5-0.3,1.1-0.6,1.6-0.9c1.1-0.7,2.3-1.3,3.4-2c0.2-0.1,0.3-0.1,0.5,0c1.7,1,3.3,1.9,5,2.9
		C41.9,29.8,42,29.8,42,29.9z"/>
	<path class="st1" d="M36,40.1c-1.1-0.6-2.1-1.2-3.2-1.8c-0.6-0.4-1.3-0.7-1.9-1.1c-0.1-0.1-0.2-0.2-0.2-0.4c0-1.9,0-3.8,0-5.7V31
		c0.1,0,0.2,0.1,0.2,0.1c1.6,0.9,3.2,1.8,4.8,2.8c0.1,0.1,0.3,0.3,0.3,0.4C36,36.2,36,38.1,36,40.1C36.1,40,36.1,40,36,40.1z"/>
	<path class="st1" d="M42.6,31c0,0.1,0,0.2,0,0.2c0,1.8,0,3.7,0,5.5c0,0.1-0.1,0.3-0.2,0.4c-1.6,1-3.3,1.9-4.9,2.9c0,0-0.1,0-0.2,0
		c0-0.1,0-0.2,0-0.3c0-1.8,0-3.5,0-5.3c0-0.2,0-0.4,0.2-0.5c1.6-0.9,3.2-1.9,4.9-2.8C42.4,31.1,42.5,31,42.6,31z"/>
</g>
</svg>
