<?xml version="1.0" encoding="utf-8"?>
<!-- Generator: Adobe Illustrator 21.0.2, SVG Export Plug-In . SVG Version: 6.00 Build 0)  -->
<svg version="1.1" id="Layer_1" xmlns="http://www.w3.org/2000/svg" xmlns:xlink="http://www.w3.org/1999/xlink" x="0px" y="0px"
	 viewBox="0 0 74 74" style="enable-background:new 0 0 74 74;" xml:space="preserve">
<style type="text/css">
	.st0{fill:none;stroke:#006FAF;stroke-width:2;stroke-miterlimit:10;}
	.st1{fill:#006FAF;}
</style>
<title>Cloud &amp;amp; Infrastructure Services</title>
<circle class="st0" cx="37" cy="37" r="36"/>
<g>
	<path class="st1" d="M48.3,43.7c-0.5,0-0.9,0.1-1.4,0.3l-2.4-4.1c1.2-0.9,2-2.3,2-3.9c0-2.7-2.2-5-5-5c-0.8,0-1.5,0.2-2.1,0.5
		L37,28.1c0.8-0.8,1.2-1.8,1.2-3c0-2.4-1.9-4.3-4.3-4.3c-2.4,0-4.3,1.9-4.3,4.3c0,2.4,1.9,4.3,4.3,4.3c0.6,0,1.1-0.1,1.6-0.3
		l2.5,3.3c-0.9,0.9-1.4,2.1-1.4,3.5c0,0,0,0,0,0.1l-8.2,0.3c-0.5-1.5-1.8-2.6-3.5-2.6c-2,0-3.7,1.6-3.7,3.7c0,2,1.6,3.7,3.7,3.7
		c1.8,0,3.3-1.3,3.6-3l8.4-0.4c0.3,0.7,0.7,1.3,1.2,1.8L36.6,42c-0.2,0-0.5-0.1-0.7-0.1c-2,0-3.7,1.6-3.7,3.7c0,2,1.6,3.7,3.7,3.7
		s3.7-1.6,3.7-3.7c0-1.2-0.6-2.2-1.4-2.8l1.4-2.3c0.6,0.3,1.3,0.4,2,0.4c0.5,0,1-0.1,1.4-0.2l2.4,4.2c-0.8,0.7-1.2,1.8-1.2,2.9
		c0,2.3,1.8,4.1,4.1,4.1c2.3,0,4.1-1.8,4.1-4.1C52.4,45.5,50.6,43.7,48.3,43.7z M25,39.1c-1,0-1.7-0.8-1.7-1.7c0-1,0.8-1.7,1.7-1.7
		c1,0,1.7,0.8,1.7,1.7C26.7,38.3,25.9,39.1,25,39.1z M35.9,47.3c-1,0-1.7-0.8-1.7-1.7s0.8-1.7,1.7-1.7c1,0,1.7,0.8,1.7,1.7
		S36.8,47.3,35.9,47.3z M31.6,25.1c0-1.3,1.1-2.4,2.4-2.4c1.3,0,2.4,1.1,2.4,2.4c0,1.3-1.1,2.4-2.4,2.4
		C32.6,27.5,31.6,26.4,31.6,25.1z M38.6,35.9c0-1.7,1.4-3,3-3c1.7,0,3,1.4,3,3c0,1.7-1.4,3-3,3C39.9,38.9,38.6,37.5,38.6,35.9z
		 M48.3,49.9c-1.2,0-2.2-1-2.2-2.2c0-1.2,1-2.2,2.2-2.2c1.2,0,2.2,1,2.2,2.2C50.5,48.9,49.5,49.9,48.3,49.9z"/>
	<path class="st1" d="M28.8,49.4h-4.5l0-4.4c0-0.3-0.2-0.6-0.5-0.8c-0.2-0.1-0.4-0.2-0.7-0.2c0,0,0,0,0,0l-3.2,0.1
		c-0.5,0-0.9,0.4-0.9,1l0.1,8.7c0,0.5,0.4,1,1,1l8.8,0c0.5,0,1-0.4,1-1.1l-0.1-3.2C29.7,49.8,29.3,49.4,28.8,49.4z M21,52.8l0-6.8
		l1.4,0l0,4.4c0,0.3,0.1,0.5,0.3,0.7c0.2,0.2,0.4,0.3,0.7,0.3h4.5l0,1.4L21,52.8z"/>
	<path class="st1" d="M54.9,20.3c0-0.5-0.4-1-1-1l-8.8,0c-0.5,0-1,0.4-1,1.1l0.1,3.2c0,0.5,0.4,0.9,1,0.9h4.5l0,4.4
		c0,0.3,0.1,0.6,0.4,0.8c0.2,0.1,0.4,0.2,0.8,0.2h0l3.2-0.1c0.5,0,0.9-0.4,0.9-1L54.9,20.3z M51.6,28l0-4.4c0-0.3-0.1-0.5-0.3-0.7
		c-0.2-0.2-0.4-0.3-0.7-0.3h-4.5l0-1.4l6.9,0l0,6.8L51.6,28z"/>
</g>
</svg>
