<?xml version="1.0" encoding="utf-8"?>
<!-- Generator: Adobe Illustrator 21.0.2, SVG Export Plug-In . SVG Version: 6.00 Build 0)  -->
<svg version="1.1" id="Layer_1" xmlns="http://www.w3.org/2000/svg" xmlns:xlink="http://www.w3.org/1999/xlink" x="0px" y="0px"
	 viewBox="0 0 74 74" style="enable-background:new 0 0 74 74;" xml:space="preserve">
<style type="text/css">
	.st0{fill:#006FAF;}
	.st1{fill:#006FAF;enable-background:new    ;}
</style>
<title>digital-transformation</title>
<path class="st0" d="M37,74C16.6,74,0,57.4,0,37C0,16.6,16.6,0,37,0c20.4,0,37,16.6,37,37C74,57.4,57.4,74,37,74z M37,2
	C17.7,2,2,17.7,2,37s15.7,35,35,35s35-15.7,35-35S56.3,2,37,2z"/>
<g>
	<path class="st0" d="M50.6,32.8c-2.2,0-3.9,1.8-3.9,3.9c0,0.8,0.2,1.5,0.6,2.1l-7.7,7.7c-0.2-0.1-0.4-0.3-0.7-0.4V26.4
		c1.2-0.7,2-1.9,2-3.4c0-2.2-1.8-3.9-3.9-3.9c-2.2,0-3.9,1.8-3.9,3.9c0,1.4,0.8,2.7,2,3.4v19.8c-0.2,0.1-0.4,0.2-0.6,0.4l-7.8-7.8
		c0.4-0.6,0.6-1.3,0.6-2.1c0-2.2-1.8-3.9-3.9-3.9c-2.2,0-3.9,1.8-3.9,3.9s1.8,3.9,3.9,3.9c0.4,0,0.9-0.1,1.3-0.2l8.1,8.2
		c-0.2,0.5-0.4,1.2-0.4,1.8c0,2.5,2,4.6,4.6,4.6c2.5,0,4.6-2,4.6-4.6c0-0.6-0.1-1.2-0.4-1.8l8.2-8.2c0.4,0.1,0.8,0.2,1.2,0.2
		c2.2,0,3.9-1.8,3.9-3.9S52.8,32.8,50.6,32.8z"/>
	<rect x="43" y="19.9" transform="matrix(0.707 -0.7072 0.7072 0.707 -8.4181 40.1692)" class="st1" width="2.5" height="20.7"/>
	<rect x="19.4" y="29" transform="matrix(0.7071 -0.7071 0.7071 0.7071 -12.6818 29.8979)" class="st1" width="20.7" height="2.5"/>
	<path class="st0" d="M39.7,50.3c0,1.5-1.2,2.7-2.7,2.7c-1.5,0-2.7-1.2-2.7-2.7s1.2-2.7,2.7-2.7C38.5,47.6,39.7,48.8,39.7,50.3"/>
	<path class="st0" d="M39.2,23.1c0,1.2-1,2.2-2.2,2.2s-2.2-1-2.2-2.2s1-2.2,2.2-2.2S39.2,21.9,39.2,23.1"/>
	<path class="st0" d="M25.6,36.7c0,1.2-1,2.2-2.2,2.2c-1.2,0-2.2-1-2.2-2.2s1-2.2,2.2-2.2C24.6,34.5,25.6,35.5,25.6,36.7"/>
	<path class="st0" d="M52.8,36.7c0,1.2-1,2.2-2.2,2.2s-2.2-1-2.2-2.2s1-2.2,2.2-2.2S52.8,35.5,52.8,36.7"/>
</g>
</svg>
