<?xml version="1.0" encoding="utf-8"?>
<!-- Generator: Adobe Illustrator 21.0.2, SVG Export Plug-In . SVG Version: 6.00 Build 0)  -->
<svg version="1.1" id="Layer_1" xmlns="http://www.w3.org/2000/svg" xmlns:xlink="http://www.w3.org/1999/xlink" x="0px" y="0px"
	 viewBox="0 0 74 74" style="enable-background:new 0 0 74 74;" xml:space="preserve">
<style type="text/css">
	.st0{fill:none;stroke:#006FAF;stroke-width:2;stroke-miterlimit:10;}
	.st1{fill:none;}
	.st2{fill-rule:evenodd;clip-rule:evenodd;fill:none;stroke:#006FAF;stroke-width:2;stroke-miterlimit:10;}
	.st3{fill:#FFFFFF;}
	.st4{fill:#006FAF;}
	.st5{fill-rule:evenodd;clip-rule:evenodd;fill:none;stroke:#006699;stroke-width:2;stroke-miterlimit:10;}
	.st6{fill:#006FAF;stroke:#006FAF;stroke-width:0.5;stroke-miterlimit:10;}
	.st7{fill:none;stroke:#006FAF;stroke-width:1.75;stroke-miterlimit:10;}
	.st8{fill:none;stroke:#006FAF;stroke-width:1.5;stroke-miterlimit:10;}
	.st9{fill:#006FAF;stroke:#006FAF;stroke-width:2;stroke-miterlimit:10;}
	.st10{fill:#006FAF;stroke:#006FAF;stroke-miterlimit:10;}
	.st11{fill:none;stroke:#006FAF;stroke-width:2;stroke-linecap:round;stroke-miterlimit:10;}
	.st12{fill:none;stroke:#006FAF;stroke-width:2;stroke-linejoin:round;stroke-miterlimit:10;}
</style>
<circle class="st2" cx="37" cy="37" r="36"/>
<path class="st0" d="M50.8,47.4c-0.2-0.4-0.4-0.8-0.6-1.3c-0.8-1.5-1.5-3.1-2.3-4.6c-1.1-2.2-2.2-4.5-3.3-6.7c-0.7-1.3-1.3-2.7-2-4
	c-0.1-0.2-0.1-0.3-0.1-0.5c0-0.3,0-0.5,0-0.8c0-1.3,0-2.6,0-3.9c0-0.2,0-0.2,0.2-0.2c0.4,0,0.9,0,1.3,0c0.1,0,0.1,0,0.1-0.1
	c0,0,0,0,0,0c0-1,0-2.1,0-3.1c0,0,0-0.1,0-0.1c0-0.1,0-0.1-0.1-0.1c0,0-0.1,0-0.1,0c-4.7,0-9.4,0-14,0c0,0-0.1,0-0.1,0
	c0,0-0.1,0-0.1,0.1c0,0,0,0.1,0,0.1c0,1.1,0,2.1,0,3.2c0,0.2,0,0.1,0.1,0.1c0.5,0,0.9,0,1.4,0c0,0,0.1,0,0.1,0c0,0,0.1,0,0.1,0.1
	c0,0,0,0.1,0,0.1c0,0.5,0,1.1,0,1.6c0,0.7,0,1.4,0,2.2c0,0.5-0.1,1-0.2,1.4c-0.1,0.4-0.3,0.8-0.5,1.2c-0.6,1.2-1.2,2.4-1.8,3.6
	c-1.2,2.5-2.5,5.1-3.7,7.6c-0.7,1.4-1.4,2.8-2.1,4.2c-0.1,0.2-0.1,0.4,0,0.6c0.6,1,1.2,2,1.7,2.9c0.2,0.3,0.3,0.5,0.5,0.8
	c0.1,0.2,0.2,0.3,0.5,0.3c0.1,0,0.1,0,0.2,0c3.7,0,7.4,0,11,0c0,0,0,0,0,0c1,0,2,0,3,0c2.2,0,4.4,0,6.6,0c0.6,0,1.1,0,1.7,0
	c0.2,0,0.3-0.1,0.4-0.2c0,0,0,0,0-0.1c0.7-1.2,1.4-2.4,2.1-3.6C51,47.8,51,47.6,50.8,47.4z"/>
<path class="st4" d="M40.6,34.8c-1.4,0-2.8,0-4.2,0c-0.1,0-0.2,0-0.3,0c-0.2,0-0.3,0.1-0.4,0.3c-0.1,0.2-0.2,0.5-0.3,0.7
	c-0.5,1-1,2-1.5,3c-1.3,2.6-2.5,5.1-3.8,7.7c-0.3,0.5-0.5,1.1-0.8,1.6c-0.1,0.1-0.1,0.2-0.2,0.3c-0.2,0.2-0.4,0.3-0.6,0.2
	c-0.1,0-0.2,0-0.3,0c-0.3,0.1-0.6,0-0.9-0.2c-0.3-0.2-0.5-0.4-0.7-0.6c0-0.1,0-0.1,0-0.1c0.2-0.4,0.4-0.8,0.6-1.2
	c1.4-2.7,2.8-5.4,4.2-8.1c1.1-2.1,2.2-4.2,3.3-6.4c0.2-0.3,0.2-0.7,0.2-1c0-1.5,0-3.1,0-4.6c0-0.2,0-0.5,0-0.7c0-0.1,0-0.1,0.1-0.1
	c0.4,0,0.8,0,1.2,0c0.9,0,1.8,0,2.7,0c0.2,0,0.2,0,0.2,0.1c0,1.2,0,2.3,0,3.5c0,0.7,0,1.3,0,2c0,0.2,0.1,0.4,0.2,0.6
	c0.4,0.9,0.9,1.8,1.3,2.7c0.1,0.1,0.1,0.2,0.2,0.3C40.7,34.8,40.6,34.8,40.6,34.8z"/>
</svg>
