<?xml version="1.0" encoding="utf-8"?>
<!-- Generator: Adobe Illustrator 21.0.2, SVG Export Plug-In . SVG Version: 6.00 Build 0)  -->
<svg version="1.1" id="Layer_1" xmlns="http://www.w3.org/2000/svg" xmlns:xlink="http://www.w3.org/1999/xlink" x="0px" y="0px"
	 viewBox="0 0 74 74" style="enable-background:new 0 0 74 74;" xml:space="preserve">
<style type="text/css">
	.st0{fill:none;stroke:#006FAF;stroke-width:2;stroke-miterlimit:10;}
	.st1{fill:none;}
	.st2{fill-rule:evenodd;clip-rule:evenodd;fill:none;stroke:#006FAF;stroke-width:2;stroke-miterlimit:10;}
	.st3{fill:#FFFFFF;}
	.st4{fill:#006FAF;}
	.st5{fill-rule:evenodd;clip-rule:evenodd;fill:none;stroke:#006699;stroke-width:2;stroke-miterlimit:10;}
	.st6{fill:#006FAF;stroke:#006FAF;stroke-width:0.5;stroke-miterlimit:10;}
	.st7{fill:none;stroke:#006FAF;stroke-width:1.75;stroke-miterlimit:10;}
	.st8{fill:none;stroke:#006FAF;stroke-width:1.5;stroke-miterlimit:10;}
	.st9{fill:#006FAF;stroke:#006FAF;stroke-width:2;stroke-miterlimit:10;}
	.st10{fill:#006FAF;stroke:#006FAF;stroke-miterlimit:10;}
	.st11{fill:none;stroke:#006FAF;stroke-width:2;stroke-linecap:round;stroke-miterlimit:10;}
	.st12{fill:none;stroke:#006FAF;stroke-width:2;stroke-linejoin:round;stroke-miterlimit:10;}
</style>
<circle class="st2" cx="37" cy="37" r="36"/>
<g>
	<g>
		<path class="st4" d="M29.9,38.2c0.4,0.2,1,0.4,1.6,0.4c0.6,0,1-0.3,1-0.7c0-0.4-0.3-0.6-1-0.9c-1-0.4-1.7-0.9-1.7-1.9
			c0-1.1,0.9-1.9,2.4-1.9c0.7,0,1.2,0.1,1.6,0.3l-0.3,1.1c-0.2-0.1-0.7-0.3-1.3-0.3c-0.6,0-0.9,0.3-0.9,0.6c0,0.4,0.3,0.6,1.2,0.9
			c1.1,0.4,1.6,1,1.6,1.9c0,1-0.8,1.9-2.5,1.9c-0.7,0-1.4-0.2-1.8-0.4L29.9,38.2z"/>
		<path class="st4" d="M40.2,40.7c-0.9-0.3-1.6-0.5-2.5-0.9c-0.1-0.1-0.3-0.1-0.4-0.1c-1.4-0.1-2.7-1.1-2.7-3.2
			c0-1.9,1.2-3.3,3.1-3.3c1.9,0,2.9,1.4,2.9,3.1c0,1.4-0.7,2.4-1.5,2.8v0c0.5,0.1,1,0.3,1.5,0.4L40.2,40.7z M37.6,38.6
			c1,0,1.5-0.9,1.5-2.1c0-1.1-0.5-2.1-1.5-2.1c-1,0-1.5,0.9-1.5,2.1C36.1,37.7,36.7,38.6,37.6,38.6L37.6,38.6z"/>
		<path class="st4" d="M41.5,33.4h1.4v5.1h2.5v1.2h-3.9V33.4z"/>
	</g>
	<path class="st0" d="M22.4,25.2c0,0.4,0.3,0.9,1,1.3h-1l0,22"/>
	<g>
		<path class="st0" d="M51.6,48.3V26.9h-1c0.6-0.4,1-0.8,1-1.3"/>
		<ellipse class="st0" cx="37.1" cy="25.8" rx="14.6" ry="3.8"/>
		<path class="st0" d="M51.6,40.7c0,2.1-6.5,3.8-14.6,3.8s-14.6-1.7-14.6-3.8"/>
		<path class="st0" d="M51.6,48.2c0,2.1-6.5,3.8-14.6,3.8s-14.6-1.7-14.6-3.8"/>
		<g>
			<path class="st0" d="M22.5,33.1c0,1.2,2.1,2.2,5.4,2.9"/>
			<path class="st0" d="M46.6,35.9c3-0.7,5-1.7,5-2.8"/>
		</g>
	</g>
</g>
</svg>
