<?xml version="1.0" encoding="utf-8"?>
<!-- Generator: Adobe Illustrator 21.0.2, SVG Export Plug-In . SVG Version: 6.00 Build 0)  -->
<svg version="1.1" id="Layer_1" xmlns="http://www.w3.org/2000/svg" xmlns:xlink="http://www.w3.org/1999/xlink" x="0px" y="0px"
	 viewBox="0 0 74 74" style="enable-background:new 0 0 74 74;" xml:space="preserve">
<style type="text/css">
	.st0{fill:none;stroke:#006FAF;stroke-width:2;stroke-miterlimit:10;}
	.st1{fill:#006FAF;}
</style>
<title>java</title>
<circle class="st0" cx="37" cy="37" r="36"/>
<g>
	<path class="st1" d="M48.1,49.7h-8.8v-2h-5v2h-8.7c-0.2,0-0.4,0.2-0.4,0.4v1.1c0,0.2,0.2,0.4,0.4,0.4h22.5c0.2,0,0.4-0.2,0.4-0.4
		v-1.1C48.4,49.9,48.3,49.7,48.1,49.7z"/>
	<path class="st1" d="M23.7,43.7c-0.4,0-0.8-0.3-0.8-0.8V25.5c0-0.4,0.4-0.8,0.8-0.8H33c0.4-0.5,0.8-1.1,1.3-1.6H23.7
		c-1.3,0-2.4,1.1-2.4,2.4V43c0,1.3,1.1,2.3,2.4,2.3h26.2c0.3,0,0.7-0.1,1-0.2l-1.3-1.3L23.7,43.7L23.7,43.7z"/>
	<path class="st1" d="M29.2,34.2c-0.1,0-0.2,0.1-0.3,0.2l-3.2,6c0,0.1-0.1,0.2,0,0.3c0,0.1,0.1,0.2,0.2,0.2s0.1,0,0.2,0
		s0.3-0.1,0.3-0.2l3-5.5l5.3,5.9c0.1,0.1,0.2,0.1,0.3,0.1l0,0c0.1,0,0.2-0.1,0.3-0.2l0.9-1.5c-0.1-0.1-0.2-0.2-0.2-0.2
		c-0.1-0.1-0.2-0.2-0.3-0.3L35,40.2l-5.4-6C29.4,34.3,29.3,34.2,29.2,34.2L29.2,34.2z"/>
	<path class="st1" d="M48.5,31.2C48.3,31.1,48.2,31,48,31c-0.3,0-0.5,0.1-0.7,0.4L45.7,34l-4.3-6.1c-0.1-0.2-0.4-0.3-0.7-0.3l0,0
		c-0.3,0-0.5,0.2-0.6,0.4l-3.7,6.5c0.2,0.6,0.5,1.2,0.8,1.7l3.6-6.3l4.3,6.1c0.1,0.2,0.4,0.3,0.7,0.3s0.5-0.1,0.6-0.4l2.3-3.7
		C48.9,31.9,48.8,31.4,48.5,31.2z"/>
	<path class="st1" d="M58.1,44.1l-2.3-2.3c-0.4-0.4-0.9-0.6-1.4-0.6c-0.2,0-0.3,0-0.5,0.1l-0.2,0.1l-3-3.1l0.2-0.3
		c1.3-1.7,2.1-3.8,2.1-6c0-2.6-1-5-2.8-6.8s-4.2-2.8-6.8-2.8s-5,1-6.8,2.8c-1.6,1.6-2.6,3.7-2.8,6c0,0.3,0,0.5,0,0.8
		c0,2.3,0.8,4.4,2.2,6.1c0.2,0.2,0.4,0.5,0.7,0.7c0.1,0.1,0.3,0.3,0.4,0.4c1.8,1.6,4,2.4,6.4,2.4c0.7,0,1.3-0.1,1.9-0.2
		c1.5-0.3,2.8-0.9,4-1.9l0.3-0.2l3,3.1l-0.1,0.2c-0.2,0.7,0,1.4,0.5,1.9l2.3,2.3c0.4,0.4,0.8,0.6,1.3,0.6h0.1c0.5,0,1-0.2,1.4-0.6
		c0.4-0.4,0.6-0.9,0.6-1.4C58.7,44.9,58.5,44.5,58.1,44.1z M49,37.7c-1.5,1.5-3.5,2.4-5.7,2.4c-2,0-4-0.8-5.5-2.2
		c-0.1-0.1-0.1-0.1-0.2-0.2c-0.2-0.2-0.4-0.4-0.6-0.6c-0.6-0.8-1.1-1.6-1.4-2.6c-0.3-0.8-0.4-1.6-0.4-2.5c0-2.2,0.8-4.2,2.4-5.7
		s3.6-2.4,5.7-2.4s4.2,0.8,5.7,2.4c1.5,1.5,2.4,3.5,2.4,5.7S50.5,36.2,49,37.7z"/>
</g>
<g id="Layer_1_1_">
</g>
</svg>
