<?xml version="1.0" encoding="utf-8"?>
<!-- Generator: Adobe Illustrator 21.0.2, SVG Export Plug-In . SVG Version: 6.00 Build 0)  -->
<svg version="1.1" id="Layer_1" xmlns="http://www.w3.org/2000/svg" xmlns:xlink="http://www.w3.org/1999/xlink" x="0px" y="0px"
	 viewBox="0 0 74 74" style="enable-background:new 0 0 74 74;" xml:space="preserve">
<style type="text/css">
	.st0{fill:none;stroke:#006FAF;stroke-width:2;stroke-miterlimit:10;}
	.st1{fill:#006FAF;}
</style>
<circle class="st0" cx="37" cy="37" r="36"/>
<g>
	<path class="st1" d="M34.3,40c0.1-0.4,0.3-0.9,0.5-1.4l0.1-0.2c0.1-0.3,0.2-0.5,0.3-0.8c0.6-1.3,1.3-2.9,0.5-6.7
		c-0.2-0.7-0.5-1.2-1.2-1.3c-1.4-0.3-3.3,0.7-3.8,1.1c0,0.1,0,0.2,0,0.3c0.1,0.9,0.1,2.5-0.1,4.4c-0.2,1.3,0.2,2.6,1.1,3.6
		C32.4,39.6,33.3,40,34.3,40L34.3,40z M33.3,30.4c0-0.2,0.3-0.4,0.7-0.4c0.1,0,0.2,0,0.3,0c0.4,0.1,0.9,0.3,0.9,0.6
		c0,0.2-0.4,0.6-0.9,0.6h-0.1c-0.3,0-0.5-0.2-0.7-0.4C33.4,30.7,33.3,30.6,33.3,30.4L33.3,30.4z"/>
	<path class="st1" d="M32.5,22.3c-1.8-0.6-6.1-1.7-8.8,0.2c-1.6,1.2-2.4,3.3-2.2,6.4c0,1,0.7,4.5,1.7,7.9c1.2,4,2.6,6.5,3.8,6.9
		c0.2,0.1,0.7,0.2,1.6-0.7c1.1-1.4,2.2-2.5,2.7-3.1c-0.1-0.1-0.2-0.2-0.4-0.3c-1.1-1.2-1.6-2.8-1.4-4.4c0.2-1.8,0.2-3.3,0.1-4.2
		c0-0.2,0-0.4,0-0.5C29.6,30.2,29.6,25.2,32.5,22.3L32.5,22.3L32.5,22.3z"/>
	<path class="st1" d="M47.1,40.2c-0.1-0.1-0.2-0.2-0.3-0.3c-0.3-0.4-0.8-1-1.1-1.8c-0.1-0.1-0.2-0.4-0.4-0.8
		c-1.1-1.9-3.2-5.8-1.8-7.8c0.6-0.9,1.9-1.3,3.8-1.1c-0.3-0.7-0.9-2.1-2-3.5c-1.3-1.6-3.7-3.5-7.5-3.6c-1.9,0-3.4,0.5-4.6,1.7
		c-1.8,1.9-2.3,4.8-2.5,6.4c0.1-0.1,0.2-0.1,0.3-0.1c0.5-0.2,1.4-0.7,2.4-0.8c1.7-0.2,2.8,0.6,3.2,2.2c0.9,4.2,0.1,6-0.5,7.4
		c-0.1,0.3-0.2,0.5-0.3,0.7L35.7,39c-0.2,0.5-0.3,0.9-0.4,1.3c0.1,0,0.2,0,0.3,0c0.3,0,0.5,0.1,0.7,0.2c0.5,0.2,0.9,0.7,1.1,1.3
		c0,0.1,0,0.2,0.1,0.3c0,0.1,0,0.1,0,0.2c-0.1,4.2,0,8,0.4,8.8c0.5,1.3,1.3,2.4,3.5,2c2.2-0.5,2.9-1.2,3.3-3.3c0.3-1.6,0.8-6,0.9-7
		C45.5,40.8,46.5,40.4,47.1,40.2L47.1,40.2z"/>
	<path class="st1" d="M48.2,42.8c0.9,0,1.9-0.2,2.5-0.5c0.7-0.3,1.2-0.7,1.4-0.9l0,0c-2.1,0.4-3.5,0.4-4.4-0.2l-0.1-0.1
		c-0.1,0-0.1,0-0.2,0.1c-0.5,0.1-0.9,0.3-0.9,1.4C46.7,42.7,47.2,42.9,48.2,42.8L48.2,42.8z M45,20.9c-1.2,0-2.2,0.1-2.9,0.3
		c1.8,0.8,3,1.9,3.9,2.9c1.6,1.9,2.4,3.9,2.5,4.6c0,0.1,0,0.2,0,0.3c0,0.7-0.1,1.3-0.2,1.9c-0.1,0.5-0.2,1-0.2,1.6
		c0,0.5,0.1,1.1,0.1,1.7c0.2,1.5,0.4,3.2-0.7,4.9c0,0,0,0,0.1,0.1c0,0.1,0.1,0.1,0.1,0.2c4-6.3,5.4-13.6,4.1-15.2
		C50.2,22.1,47.9,21,45,20.9L45,20.9z M33.2,44.3c1.3,0,2.4-0.5,3.1-1.6c0.2-0.2,0.1-0.5,0.1-0.6c-0.1-0.3-0.3-0.6-0.5-0.7
		c-0.1-0.1-0.2-0.1-0.3-0.1s-0.3,0.1-0.4,0.3c-0.2,0.2-0.4,0.5-0.5,0.6c-0.6,0.8-0.9,1-2.7,1.4c-0.4,0.1-0.6,0.2-0.7,0.2
		c0.1,0.1,0.4,0.2,0.7,0.3C32.3,44.2,32.8,44.3,33.2,44.3z"/>
	<path class="st1" d="M47.2,30.8c0.1-0.5,0.1-0.9,0.1-1.4c-2-0.2-2.8,0.2-3.1,0.7c-1.1,1.5,1,5.2,1.9,6.8c0.2,0.4,0.4,0.7,0.5,0.9
		s0.2,0.4,0.3,0.5c0.6-1.3,0.4-2.6,0.3-3.8c-0.1-0.6-0.2-1.3-0.1-1.9C47.1,31.9,47.1,31.3,47.2,30.8L47.2,30.8z M46.2,30.5
		c-0.1,0.1-0.3,0.3-0.6,0.3h-0.1c-0.4,0-0.8-0.3-0.8-0.5c0-0.3,0.4-0.4,0.8-0.5c0.1,0,0.2,0,0.3,0c0.4,0,0.6,0.1,0.6,0.3
		C46.5,30.2,46.4,30.4,46.2,30.5L46.2,30.5z"/>
	<path class="st1" d="M54.4,40.6c-0.2-0.6-0.8-1.1-1.5-1.2c-0.3-0.1-0.7,0-1.2,0.1c-0.8,0.2-1.4,0.2-1.8,0.2
		c1.6-2.7,2.9-5.9,3.7-8.8c1.2-4.8,0.6-6.9-0.2-7.9c-2-2.6-5-4-8.6-4c-1.9,0-3.6,0.4-4.5,0.6c-0.8-0.1-1.7-0.2-2.6-0.2
		c-1.7,0-3.2,0.3-4.5,1.1c-0.7-0.2-1.9-0.6-3.2-0.8c-3.1-0.5-5.7-0.1-7.5,1.2c-2.2,1.6-3.3,4.3-3.1,8.2c0.1,1.2,0.7,4.9,1.8,8.4
		c0.6,2,1.3,3.7,2,5c1,1.8,2,2.9,3.2,3.3c0.6,0.2,1.8,0.4,3.1-0.7c0.2,0.2,0.4,0.4,0.6,0.6c0.4,0.2,0.8,0.4,1.2,0.5
		c1.6,0.4,3,0.3,4.3-0.3c0,0.2,0,0.4,0,0.6c0,0.3,0,0.6,0,0.9c0.1,1.8,0.2,3.3,0.6,4.3c0,0.1,0,0.1,0.1,0.2c0.2,0.6,0.5,1.5,1.3,2.2
		c0.8,0.8,1.8,1,2.7,1c0.5,0,0.9-0.1,1.3-0.1c1.3-0.3,2.9-0.7,4-2.3c1-1.5,1.6-3.7,1.6-7.3c0-0.1,0-0.2,0-0.3s0-0.1,0-0.2h0.2h0.1
		c1.4,0.1,3-0.2,4.1-0.7C52.4,43.8,55,42.4,54.4,40.6z M51.1,43.2c-0.8,0.4-2.1,0.6-3.2,0.6c-0.5,0-1-0.1-1.4-0.2
		c-0.2,1.7-0.6,4.8-0.8,6.2c-0.4,2.5-1.5,3.6-4.1,4.1C41.2,54,40.8,54,40.4,54c-2.4,0-3.2-1.9-3.5-2.7c-0.4-1-0.5-4.1-0.5-7.3
		c-0.9,0.8-2,1.2-3.2,1.2c-0.5,0-1.1-0.1-1.6-0.2c-0.2,0-1.6-0.4-1.5-1.3c0-0.8,1.2-1.1,1.6-1.2c1.6-0.3,1.7-0.4,2.1-1.1
		c0.1-0.1,0.2-0.3,0.4-0.4c0,0,0,0,0-0.1c-0.7,0-1.4-0.2-2-0.5c-0.4,0.4-1.6,1.7-2.8,3.1c-0.7,0.9-1.4,1.1-2,1.1
		c-0.2,0-0.4,0-0.6-0.1c-1.6-0.5-3.1-3.1-4.5-7.6c-1-3.4-1.7-7-1.8-8.2c-0.2-3.5,0.7-5.9,2.7-7.3c1.6-1.1,3.9-1.5,6.8-1
		c1.7,0.3,3,0.7,3.5,0.9c1.2-0.8,2.7-1.2,4.3-1.2c0.9,0,1.8,0.1,2.5,0.3c0.4-0.2,2.3-0.7,4.5-0.7c3.3,0,6,1.3,7.8,3.6
		c0.5,0.6,0.7,1.5,0.7,2.8c0,1.2-0.2,2.6-0.6,4.2c-0.9,3.3-2.4,6.8-4.3,9.7c0.3,0.2,1.2,0.6,3.6,0.1c0.8-0.2,1.3,0,1.5,0.4
		C53.7,41.7,52.1,42.8,51.1,43.2L51.1,43.2z"/>
</g>
</svg>
