<?xml version="1.0" encoding="utf-8"?>
<!-- Generator: Adobe Illustrator 21.0.2, SVG Export Plug-In . SVG Version: 6.00 Build 0)  -->
<svg version="1.1" id="Layer_1" xmlns="http://www.w3.org/2000/svg" xmlns:xlink="http://www.w3.org/1999/xlink" x="0px" y="0px"
	 viewBox="0 0 74 74" style="enable-background:new 0 0 74 74;" xml:space="preserve">
<style type="text/css">
	.st0{fill:none;stroke:#006FAF;stroke-width:2;stroke-miterlimit:10;}
	.st1{fill:#006FAF;}
	.st2{fill:#006FAF;stroke:#FFFFFF;stroke-miterlimit:10;}
	.st3{fill:#FFFFFF;}
</style>
<title>health-checks</title>
<circle class="st0" cx="37" cy="37" r="36"/>
<g>
	<path class="st0" d="M37.7,55.2h0.2c7,0,12.7-2.2,12.7-4.8V24.8H37.7V55.2z"/>
	<path class="st0" d="M23.5,24.3v26c0,2.7,6,4.9,13.6,4.9V24.3H23.5L23.5,24.3z"/>
	<path class="st1" d="M51.5,23.9c0,2.9-6.4,5.2-14.5,5.2s-14.5-2.3-14.5-5.2c0-2.8,6.5-5.2,14.5-5.2S51.5,21.1,51.5,23.9"/>
	<path class="st2" d="M47.8,24c0,1.8-4.8,3.2-10.8,3.2S26.3,25.8,26.3,24c0-1.8,4.8-3.2,10.8-3.2S47.8,22.2,47.8,24"/>
	<path class="st3" d="M45.6,26c1.4-0.6,2.2-1.2,2.2-2c0-1.8-4.8-3.2-10.8-3.2S26.3,22.2,26.3,24c0,0.7,0.9,1.4,2.2,2
		c1.9-0.8,5-1.3,8.5-1.3C40.5,24.8,43.6,25.3,45.6,26"/>
	<g>
		<path class="st0" d="M36.9,55.3V42.4c-2,0-3.7-1.1-4.7-2.7c-1,1.6-2.7,2.7-4.7,2.7c-1.6,0-2.9-0.6-3.9-1.7v9.8
			C23.5,53.1,29.5,55.2,36.9,55.3z"/>
		<path class="st0" d="M37.1,55.3L37.1,55.3L37.1,55.3L37.1,55.3z"/>
		<path class="st0" d="M36.9,55.3h0.2C37,55.3,36.9,55.3,36.9,55.3L36.9,55.3z"/>
		<path class="st0" d="M46.5,42.4c-2,0-3.8-1.1-4.8-2.7c-0.9,1.6-2.7,2.6-4.7,2.7v12.9l0,0c7.5,0,13.6-2.2,13.6-4.9v-9.8
			C49.6,41.7,48.1,42.4,46.5,42.4z"/>
		<path class="st0" d="M36.9,42.4L36.9,42.4l-0.1,12.9c0.1,0,0.1,0,0.1,0l0,0L36.9,42.4C37,42.4,37,42.4,36.9,42.4z"/>
	</g>
</g>
</svg>
