<svg id="Layer_1" data-name="Layer 1" xmlns="http://www.w3.org/2000/svg" viewBox="0 0 74 74"><defs><style>.cls-1{fill:#006faf;}.cls-2{fill:#fbfdfd;}.cls-3{fill:none;stroke:#006faf;stroke-miterlimit:10;}</style></defs><title>azure-cdn-media-services</title><path class="cls-1" d="M37,74A37,37,0,1,1,74,37,37,37,0,0,1,37,74ZM37,2A35,35,0,1,0,72,37,35,35,0,0,0,37,2Z"/><path class="cls-2" d="M43.49,39.39h-.83c-.14,0-.22,0-.22-.2,0-.55,0-1.1,0-1.65,0-.13,0-.18.17-.17h1.71c.13,0,.17.05.17.18,0,.55,0,1.1,0,1.65,0,.17-.08.2-.22.19Z"/><path class="cls-3" d="M30.88,28.06A8.58,8.58,0,0,1,37.09,23l-1.64,4.39L33,33.84c-.2.55-.14.64.43.64h3c.52,0,.63.16.43.64l-3.39,8.28a.6.6,0,0,0-.1.36c.14,0,.19-.13.27-.22L44.53,31.16c.15-.17.44-.33.34-.56s-.42-.1-.64-.11H40.46c-.46,0-.53-.12-.3-.51,1.06-1.79,2.13-3.57,3.18-5.36.12-.21.2-.21.38-.06a8.34,8.34,0,0,1,3.14,8.54c0,.26,0,.36.26.47a6.74,6.74,0,0,1,4.48,5.69,7,7,0,0,1-7,7.94H23.17a7,7,0,0,1-2.8-13.52c.26-.11.3-.23.24-.48a5.93,5.93,0,0,1,5.46-7.25A5.76,5.76,0,0,1,30.7,27.8,2.36,2.36,0,0,1,30.88,28.06Z"/></svg>