<?xml version="1.0" encoding="utf-8"?>
<!-- Generator: Adobe Illustrator 21.0.2, SVG Export Plug-In . SVG Version: 6.00 Build 0)  -->
<svg version="1.1" id="Layer_1" xmlns="http://www.w3.org/2000/svg" xmlns:xlink="http://www.w3.org/1999/xlink" x="0px" y="0px"
	 viewBox="0 0 74 74" style="enable-background:new 0 0 74 74;" xml:space="preserve">
<style type="text/css">
	.st0{fill:none;stroke:#006FAF;stroke-width:2;stroke-miterlimit:10;}
	.st1{fill:none;}
	.st2{fill-rule:evenodd;clip-rule:evenodd;fill:none;stroke:#006FAF;stroke-width:2;stroke-miterlimit:10;}
	.st3{fill:#FFFFFF;}
	.st4{fill:#006FAF;}
	.st5{fill-rule:evenodd;clip-rule:evenodd;fill:none;stroke:#006699;stroke-width:2;stroke-miterlimit:10;}
	.st6{fill:#006FAF;stroke:#006FAF;stroke-width:0.5;stroke-miterlimit:10;}
	.st7{fill:none;stroke:#006FAF;stroke-width:1.75;stroke-miterlimit:10;}
	.st8{fill:none;stroke:#006FAF;stroke-width:1.5;stroke-miterlimit:10;}
	.st9{fill:#006FAF;stroke:#006FAF;stroke-width:2;stroke-miterlimit:10;}
	.st10{fill:#006FAF;stroke:#006FAF;stroke-miterlimit:10;}
	.st11{fill:none;stroke:#006FAF;stroke-width:2;stroke-linecap:round;stroke-miterlimit:10;}
	.st12{fill:none;stroke:#006FAF;stroke-width:2;stroke-linejoin:round;stroke-miterlimit:10;}
</style>
<circle class="st2" cx="37" cy="37" r="36"/>
<g>
	<path class="st4" d="M51.1,42.3l0.9-2.4l4.3-1.5v-3.4l-0.5-0.2l-3.8-1.1l-0.9-2.4l1.9-3.9l0,0l-2.4-2.4l-0.5,0.2l-3.5,1.8l-2.5-1
		L42.7,22h-3.5l-0.2,0.5l-1.2,3.6L35.5,27l-4.1-1.8L29,27.6l0.2,0.5l1.1,2c1.9-1.1,3.9-1.5,6.1-1.5c3,0.2,5.8,1.2,8,3.2
		c0.5,0.4,0.9,0.7,1.5,1.2c0.2,0.2,0.5,0.6,0.6,0.9c1.5,2.6,0.9,5.8-1.5,7.7c-1.8,1.5-4.3,1.7-6.1,0.9c-0.2-0.2-0.4-0.2-0.5-0.2l0,0
		l0,0c-0.5-0.2-0.9-0.6-1.3-0.9c-0.2,0-0.2-0.2-0.5-0.2c-0.5,0-0.9,0.2-1.3,0.6l-0.2,0.2l0,0c-1.5,1.5-3.1,2.6-4.9,3.1l-0.7,1.5
		l2.3,2.3l0.2,0.2l0.5-0.2l3.5-1.8l2.4,0.9l1.3,4.1H43l0.2-0.5l1.2-3.6l2.4-0.9l4.1,1.8l2.3-2.6L53,45.7L51.1,42.3z"/>
	<path class="st4" d="M30.4,36.3L30.4,36.3L30.4,36.3c-2.6,2.8-6.9,2.8-9.4-0.2c-0.2-0.4-0.9-0.4-1.1,0c-0.2,0.2-0.2,0.4-0.2,0.6
		c0,0.2,0.2,0.5,0.2,0.6c3.1,3.5,8.3,3.6,11.6,0.2l0,0l0,0c2.6-2.6,6.7-2.7,9.3,0.2c0.4,0.4,0.9,0.4,1.1,0c0.2-0.2,0.2-0.4,0.2-0.6
		c0-0.2-0.2-0.5-0.2-0.6C38.9,33.1,33.7,33,30.4,36.3z"/>
	<path class="st4" d="M36.2,37.8c-1.5,0-2.6,0.5-3.7,1.5l-0.2,0.2l-0.2,0.2c-1.8,1.9-4.3,2.9-6.7,2.8c-2.6,0-4.8-1.2-6.6-3.1
		c-0.4-0.4-0.9-0.4-1.1,0c-0.1,0-0.1,0.2-0.1,0.4s0.2,0.6,0.4,0.7c2,2.3,4.8,3.6,7.7,3.6c2.9,0.2,5.6-1.1,7.8-3.4l0.2-0.2l0.2-0.2
		c0.7-0.7,1.5-1.1,2.6-1.1c0.9,0,1.8,0.5,2.6,1.2c0.4,0.4,0.9,0.4,1.1,0c0.2-0.2,0.2-0.4,0.2-0.6c0-0.2-0.2-0.5-0.2-0.6
		C39,38.4,37.7,37.8,36.2,37.8z"/>
	<path class="st4" d="M29.7,34.6c1.8-1.9,4.3-2.9,6.7-2.9c2.5,0,4.8,1.2,6.5,3.1c0.4,0.4,0.9,0.4,1.1,0c0.2-0.2,0.2-0.4,0.2-0.6
		c0-0.2-0.2-0.5-0.2-0.6c-2-2.3-4.8-3.6-7.7-3.6s-5.6,1.1-7.8,3.4l-0.2,0.2l-0.2,0.2c-0.7,0.7-1.5,1.1-2.6,1.1c-1,0-1.8-0.5-2.6-1.2
		c-0.4-0.4-0.9-0.4-1.1,0c-0.2,0.2-0.2,0.4-0.2,0.6c0,0.2,0.2,0.5,0.2,0.6c0.9,1.1,2.3,1.7,3.6,1.7c1.5,0,2.6-0.5,3.7-1.5l0.2-0.2
		L29.7,34.6z"/>
</g>
</svg>
