<?xml version="1.0" encoding="utf-8"?>
<!-- Generator: Adobe Illustrator 21.0.2, SVG Export Plug-In . SVG Version: 6.00 Build 0)  -->
<svg version="1.1" id="Layer_1" xmlns="http://www.w3.org/2000/svg" xmlns:xlink="http://www.w3.org/1999/xlink" x="0px" y="0px"
	 viewBox="0 0 74 74" style="enable-background:new 0 0 74 74;" xml:space="preserve">
<style type="text/css">
	.st0{fill:#006FAF;}
</style>
<title>health-checks</title>
<path class="st0" d="M37,0C16.6,0,0,16.6,0,37s16.6,37,37,37s37-16.6,37-37S57.4,0,37,0z M37,72C17.7,72,2,56.3,2,37S17.7,2,37,2
	s35,15.7,35,35S56.3,72,37,72z"/>
<g>
	<path class="st0" d="M21.9,36.6c2.4,0,4.5-1.1,6.5-2.3l0,0c3.5-2,6.6-3.7,11.6,0.5l0.4,0.3l1.1-1.4l-0.4-0.3
		c-6-4.8-10.1-2.5-13.6-0.6l-0.2,0.1c-3.1,1.7-5.8,3.1-9.8,0.3L17.2,33L16,34.4l0.5,0.3C18.3,35.9,20.1,36.6,21.9,36.6z"/>
	<path class="st0" d="M27.5,36.4l-0.2,0.1c-3.1,1.7-5.8,3.1-10,0.2L17,36.5l-1.1,1.4l0.5,0.3c1.9,1.3,3.6,1.9,5.4,1.9c0,0,0,0,0,0
		c0.2,0,0.4,0,0.6,0c2.3,0,4.2-1.1,6.1-2.1l0.1,0c3.5-1.9,6.6-3.5,11.5,0.4l0.4,0.3l1.1-1.4L41.1,37C35.2,32.3,31.1,34.5,27.5,36.4z
		"/>
	<path class="st0" d="M27.9,39.8c-3.4,1.9-6.4,3.5-10.7,0.6l-0.4-0.2l-1.1,1.4l0.5,0.3c1.9,1.3,3.6,1.9,5.5,1.9
		c2.5,0,4.7-1.1,6.8-2.2l0.3-0.2c3.6-1.9,6.7-3.5,10.9,0.6l0.4,0.3l1.3-1.3L41,40.6C35.7,35.4,31.4,37.9,27.9,39.8z"/>
	<path class="st0" d="M39.6,30c-0.8,0-1.5,0.1-2.2,0.3c1.1,0.4,2.3,1,3.5,1.9c2.3,0.6,4,2.6,4,5.1c0,2.4-1.5,4.4-3.7,5
		c-0.5,0.2-1,0.3-1.6,0.3c-0.1,0-0.2,0-0.4,0c-1.7-0.1-3.1-1-4-2.2c-0.2,0-0.5-0.1-0.7-0.1c-0.5,0-1,0.1-1.5,0.2
		c1.2,2.4,3.7,4.1,6.6,4.1c4,0,7.3-3.3,7.3-7.3C46.9,33.2,43.6,30,39.6,30z"/>
	<path class="st0" d="M54.3,37.8c-0.2-1,0.3-2.1,1-2.5c0.2-0.1,1.2-0.4,2-0.6l0.9-0.2l-0.4-1.9l0-0.1c-0.4-1.3-0.9-2.7-1.9-4.6
		l-1-1.7L54,26.6c0,0-0.5,0.3-0.7,0.4c-1.5,0.8-2.7,0.9-3.6,0.3c-0.6-0.4-1-1.2-0.9-2c0-0.4,0.4-1.4,0.6-1.8l1.1-1.8l-1.7-1
		c-1.4-0.9-3-1.4-4.7-1.9l-1.8-0.4l-0.2,0.9c-0.1,0.6-0.2,0.9-0.2,1.1c-0.1,0.4-0.5,0.8-0.9,1.1l-0.1,0.1c-0.4,0.4-1.2,0.6-2.1,0.6
		c-0.4,0-1.4-0.2-2.1-1.9c0-0.1-0.1-0.5-0.2-0.9l-0.2-1l-2,0.4l-0.1,0c-1.5,0.5-2.9,1-4.5,1.9l-1.6,1l1,1.6c0.3,0.6,0.3,1,0.4,1.5
		c-0.1,0.8-0.5,1.3-0.9,1.6c-0.5,0.4-1.2,0.6-2.1,0.5c-0.2,0-0.3,0-0.7-0.3l-1.8-1.3l-2.5,6.8c-0.1,0.3-0.2,0.7-0.3,1L21,33.9
		c0.3,0.1,0.6,0.1,0.9,0.1c1,0,2-0.3,3-0.7c-0.5-0.3-1-0.5-1.5-0.7l1.5-4.1c0.4,0.3,0.9,0.4,1.4,0.5c1.2,0.1,2.4-0.2,3.4-0.9
		c1-0.7,1.6-1.8,1.7-3.1c0-0.7,0-1.6-0.6-2.6c1.4-0.7,2.6-1.2,4-1.7l0,0c0.1,0.2,0.1,0.3,0.1,0.3c1.1,2.9,3.3,3.1,3.9,3.1
		c1,0,2.4-0.2,3.5-1.1l0.1-0.1c0.5-0.5,1.2-1.1,1.4-2.1l0,0c1.5,0.5,2.8,0.9,3.9,1.6l-0.2,0.4c-0.4,0.9-0.8,1.9-0.8,2.5
		c-0.1,1.5,0.5,3,1.8,3.8c0.8,0.6,2.7,1.3,5.6-0.2c0,0,0,0,0,0c0.8,1.5,1.2,2.7,1.7,4.1l0,0c-1.3,0.4-1.6,0.5-1.6,0.6
		c-1.5,0.8-2.3,2.7-2,4.6c0.3,1.8,1.5,3.1,3.1,3.4l0,0c-0.5,1.5-0.9,2.9-1.6,4.1c-0.8-0.5-3.2-1.2-5.1,0.4c-0.8,0.7-1.6,1.6-1.6,3.1
		c0,0.7,0,1.6,0.6,2.6l-0.5,0.3c-1.2,0.7-2.2,1.2-3.4,1.4l0,0c-0.1-0.7-0.4-1.5-0.7-1.8c-0.7-0.8-1.6-1.6-3.2-1.6
		c-2.7,0-4.3,1.1-4.9,3.2l0,0c-1.5-0.5-2.9-0.9-4.1-1.6c1.1-1.5,0.9-3.6-0.6-5.2c-1.3-1.4-3.6-2.3-5.6-0.9c-0.2-0.4-0.3-0.7-0.4-1
		c-0.6,0.2-1.3,0.3-2,0.3c0.2,0.6,0.5,1.2,0.7,1.8c0.1,0.2,0.6,0.9,0.6,0.9L24,48l1.6-1c1.2-0.8,2.4-0.2,3.1,0.6
		c0.7,0.7,1.1,1.9,0.4,2.8l-1.1,1.7l1.7,1c1.4,0.9,3,1.4,4.6,1.9l2,0.4l0.4-1.8c0.3-1.5,1.4-1.8,3-1.8c0.5,0,1,0.3,1.6,1
		c0.1,0.1,0.2,0.4,0.2,0.6l0.4,2.2l1.9-0.4c1.5-0.2,2.7-0.9,4.1-1.6l2.3-1.4l-1-1.6c-0.3-0.6-0.3-1-0.3-1.6c0-0.5,0.3-1,0.9-1.5
		c1.1-0.9,2.6-0.4,2.8-0.2l1.6,1l1-1.7c0.9-1.4,1.4-3,1.9-4.6l0.4-2L56,39.6C54.7,39.3,54.4,38.3,54.3,37.8z"/>
</g>
</svg>
