<?xml version="1.0" encoding="utf-8"?>
<!-- Generator: Adobe Illustrator 21.0.2, SVG Export Plug-In . SVG Version: 6.00 Build 0)  -->
<svg version="1.1" id="Layer_1" xmlns="http://www.w3.org/2000/svg" xmlns:xlink="http://www.w3.org/1999/xlink" x="0px" y="0px"
	 viewBox="0 0 75 75" style="enable-background:new 0 0 75 75;" xml:space="preserve">
<style type="text/css">
	.st0{fill:none;stroke:#006FAF;stroke-width:2;stroke-miterlimit:10;}
	.st1{fill:#006FAF;}
</style>
<circle class="st0" cx="37.5" cy="37.5" r="36"/>
<path class="st1" d="M37.5,54.1c-1.3,0-2.7-0.2-4-0.5c-6.7-1.8-11.4-7.9-11.5-14.8h1.9c0.1,6.1,4.2,11.4,10.1,13
	c1.2,0.3,2.3,0.5,3.5,0.5c4.8,0,9.4-2.6,11.8-6.8c3.1-5.3,2.2-12.1-2.2-16.4c-2.6-2.6-6-4-9.6-4c-2.3,0-4.5,0.6-6.5,1.7l-0.2,0.1
	l2,3.5l-8.7-1l3.4-8l2.3,4l0.2-0.1c2.3-1.3,4.9-1.9,7.5-1.9c0.7,0,1.3,0,2,0.1c3.4,0.4,6.5,2,8.9,4.4c5,5,6,12.6,2.5,18.7
	C48.2,51.1,43,54.1,37.5,54.1z M31,40.7v-1.9h6.7v-6.7h1.9v8.6H31z"/>
</svg>
