<?xml version="1.0" encoding="utf-8"?>
<!-- Generator: Adobe Illustrator 21.0.2, SVG Export Plug-In . SVG Version: 6.00 Build 0)  -->
<svg version="1.1" id="Layer_1" xmlns="http://www.w3.org/2000/svg" xmlns:xlink="http://www.w3.org/1999/xlink" x="0px" y="0px"
	 viewBox="0 0 74 74" style="enable-background:new 0 0 74 74;" xml:space="preserve">
<style type="text/css">
	.st0{fill:none;stroke:#006FAF;stroke-width:2;stroke-miterlimit:10;}
	.st1{fill:#006FAF;}
</style>
<title>Cloud &amp;amp; Infrastructure Services</title>
<circle class="st0" cx="37" cy="37" r="36"/>
<g>
	<path class="st1" d="M30.1,37.3c0,0.8-0.1,1.5-0.3,2.2c-0.2,0.6-0.5,1.2-0.9,1.6c-0.4,0.4-0.8,0.8-1.4,1c-0.5,0.2-1.1,0.4-1.8,0.4
		c-0.6,0-1.2-0.1-1.7-0.4c-0.5-0.2-1-0.6-1.4-1s-0.7-1-0.9-1.6c-0.2-0.6-0.3-1.4-0.3-2.2v-0.7c0-0.8,0.1-1.5,0.3-2.2
		c0.2-0.6,0.5-1.2,0.9-1.6s0.8-0.8,1.4-1s1.1-0.4,1.7-0.4c0.7,0,1.2,0.1,1.8,0.4c0.5,0.2,1,0.6,1.4,1s0.7,1,0.9,1.6
		c0.2,0.6,0.3,1.4,0.3,2.2V37.3z M28.7,36.7c0-0.6-0.1-1.2-0.2-1.7c-0.1-0.5-0.3-0.9-0.6-1.2c-0.3-0.3-0.6-0.6-0.9-0.8
		c-0.4-0.2-0.8-0.3-1.2-0.3c-0.4,0-0.8,0.1-1.2,0.3c-0.4,0.2-0.7,0.4-0.9,0.8c-0.3,0.3-0.4,0.7-0.6,1.2c-0.1,0.5-0.2,1.1-0.2,1.7
		v0.7c0,0.6,0.1,1.2,0.2,1.7c0.1,0.5,0.3,0.9,0.6,1.2c0.3,0.3,0.6,0.6,0.9,0.8c0.4,0.2,0.8,0.3,1.2,0.3c0.5,0,0.9-0.1,1.2-0.3
		c0.4-0.2,0.7-0.4,0.9-0.8c0.2-0.3,0.4-0.7,0.6-1.2c0.1-0.5,0.2-1.1,0.2-1.7V36.7z"/>
	<path class="st1" d="M34.1,31.6l3.5,8.7l3.5-8.7h1.8v10.7h-1.4v-4.2l0.1-4.5l-3.5,8.7H37l-3.5-8.6l0.1,4.5v4.2h-1.4V31.6H34.1z"/>
	<path class="st1" d="M51.1,39.6c0-0.3,0-0.5-0.1-0.7s-0.2-0.4-0.4-0.5s-0.5-0.3-0.8-0.4c-0.3-0.1-0.7-0.3-1.3-0.4
		c-0.5-0.2-1-0.3-1.4-0.5c-0.4-0.2-0.8-0.4-1.1-0.7c-0.3-0.3-0.5-0.5-0.7-0.9c-0.2-0.3-0.2-0.7-0.2-1.1s0.1-0.8,0.3-1.2
		s0.4-0.7,0.7-0.9c0.3-0.3,0.7-0.5,1.1-0.6s0.9-0.2,1.5-0.2c0.6,0,1.1,0.1,1.6,0.3s0.9,0.4,1.2,0.7s0.6,0.6,0.7,1
		c0.2,0.4,0.3,0.8,0.3,1.2h-1.4c0-0.3,0-0.6-0.1-0.8c-0.1-0.3-0.2-0.5-0.4-0.7c-0.2-0.2-0.4-0.3-0.7-0.4s-0.6-0.2-1-0.2
		c-0.4,0-0.7,0-1,0.1c-0.3,0.1-0.5,0.2-0.7,0.4c-0.2,0.2-0.3,0.3-0.4,0.5s-0.1,0.4-0.1,0.7c0,0.2,0,0.4,0.1,0.6
		c0.1,0.2,0.2,0.4,0.4,0.5c0.2,0.2,0.5,0.3,0.8,0.4c0.3,0.1,0.7,0.3,1.1,0.4c0.6,0.2,1.1,0.4,1.6,0.6s0.8,0.4,1.1,0.7
		c0.3,0.3,0.5,0.6,0.6,0.9c0.1,0.3,0.2,0.7,0.2,1.1c0,0.4-0.1,0.8-0.3,1.2c-0.2,0.4-0.4,0.7-0.8,0.9c-0.3,0.3-0.7,0.4-1.2,0.6
		c-0.5,0.1-1,0.2-1.5,0.2c-0.3,0-0.7,0-1-0.1s-0.6-0.2-0.9-0.3s-0.6-0.3-0.8-0.5s-0.5-0.4-0.7-0.6c-0.2-0.2-0.3-0.5-0.4-0.8
		c-0.1-0.3-0.2-0.6-0.2-1h1.4c0,0.4,0.1,0.7,0.2,0.9c0.1,0.3,0.3,0.5,0.6,0.7c0.2,0.2,0.5,0.3,0.8,0.4c0.3,0.1,0.6,0.1,1,0.1
		c0.7,0,1.3-0.2,1.7-0.5C50.9,40.6,51.1,40.2,51.1,39.6z"/>
</g>
</svg>
