<?xml version="1.0" encoding="utf-8"?>
<!-- Generator: Adobe Illustrator 21.0.2, SVG Export Plug-In . SVG Version: 6.00 Build 0)  -->
<svg version="1.1" id="Layer_1" xmlns="http://www.w3.org/2000/svg" xmlns:xlink="http://www.w3.org/1999/xlink" x="0px" y="0px"
	 viewBox="0 0 74 74" style="enable-background:new 0 0 74 74;" xml:space="preserve">
<style type="text/css">
	.st0{fill:none;stroke:#006FAF;stroke-width:2;stroke-miterlimit:10;}
	.st1{fill:#006FAF;}
</style>
<title>java</title>
<g>
	<circle class="st0" cx="37" cy="37" r="36"/>
	<g>
		<path class="st1" d="M34.2,50.8H23.5c-0.1,0-0.3-0.1-0.3-0.3V28.8h30.3v9.8c0,0.5,0.4,0.9,0.9,0.9s0.9-0.4,0.9-0.9V23.1
			c0-1.2-1-2.1-2.1-2.1H23.5c-1.2,0-2.1,1-2.1,2.1v27.4c0,1.2,1,2.1,2.1,2.1h10.7c0.5,0,0.9-0.4,0.9-0.9S34.8,50.8,34.2,50.8z
			 M23.3,23.1c0-0.1,0.1-0.3,0.3-0.3h29.8c0.1,0,0.3,0.1,0.3,0.3V27H23.3V23.1z"/>
		<circle class="st1" cx="25.3" cy="24.9" r="1.2"/>
		<circle class="st1" cx="28.9" cy="24.9" r="1.2"/>
		<circle class="st1" cx="32.5" cy="24.9" r="1.2"/>
		<path class="st1" d="M56.6,49.5v-0.2c0-0.2-0.1-0.4-0.1-0.6c-0.1-0.2-0.1-0.4-0.2-0.6V48c-0.1-0.2-0.2-0.3-0.2-0.5L56,47.4
			c-0.1-0.2-0.2-0.3-0.4-0.6c-0.1-0.1-0.2-0.3-0.4-0.5c-0.1-0.1-0.3-0.3-0.5-0.4c-0.1-0.1-0.2-0.2-0.4-0.2c0-3.2-2.5-5.8-5.5-5.8
			c-1.9,0-3.7,1.1-4.7,2.8c-0.1,0-0.2-0.1-0.3-0.1h-0.1c-0.2,0-0.5-0.1-0.7-0.1c-1.7,0-3.2,1.4-3.4,3.2c-0.3,0.2-0.6,0.4-0.9,0.6
			l-0.1,0.1c-0.1,0.1-0.3,0.3-0.4,0.5c-0.1,0.2-0.3,0.3-0.4,0.6c-0.1,0.2-0.2,0.3-0.3,0.6c-0.1,0.2-0.2,0.4-0.2,0.7
			c0,0.2-0.1,0.4-0.1,0.6v0.1c0,0.2,0,0.4,0,0.6c0,2.7,2.1,4.9,4.6,4.9H52c2.5,0,4.6-2.2,4.6-4.9C56.6,49.9,56.6,49.7,56.6,49.5z
			 M52,53.1H41.5c-1.5,0-2.8-1.3-2.8-3c0-0.2,0-0.4,0.1-0.5v-0.2c0-0.1,0.1-0.2,0.1-0.4l0.1-0.1c0-0.1,0.1-0.2,0.2-0.5
			c0.1-0.1,0.2-0.3,0.3-0.4l0.1-0.1l0,0l0,0c0.1-0.1,0.2-0.2,0.3-0.2s0.1-0.1,0.2-0.1c0.1,0,0.2-0.1,0.2-0.1c0.1,0,0.1-0.1,0.2-0.1
			c0.3-0.1,0.6-0.2,1-0.2c0.5,0,0.9-0.4,0.9-0.9s-0.4-0.9-0.9-0.9l0,0c0.3-0.5,0.8-0.8,1.3-0.8c0.1,0,0.2,0,0.4,0.1
			c0.1,0,0.2,0.1,0.3,0.1l0.1,0.1c0.2,0.2,0.4,0.4,0.5,0.6c0.2,0.3,0.5,0.5,0.8,0.5c0.1,0,0.3,0,0.4-0.1c0.2-0.1,0.4-0.3,0.5-0.5
			s0.1-0.5,0-0.7s-0.2-0.4-0.4-0.6c0.6-1.3,1.9-2.1,3.2-2.1c1.8,0,3.4,1.4,3.6,3.4c-0.1,0-0.2,0-0.2,0c-0.5,0-0.9,0.4-0.9,0.9
			s0.4,0.9,0.9,0.9c0.3,0,0.6,0.1,1,0.2c0.1,0,0.1,0.1,0.2,0.1c0.1,0,0.2,0.1,0.3,0.2l0.1,0.1c0.1,0.1,0.2,0.2,0.3,0.3l0.1,0.1
			c0.1,0.1,0.2,0.2,0.3,0.4l0.1,0.1c0.1,0.1,0.1,0.2,0.2,0.3c0,0,0,0.1,0.1,0.2c0,0.1,0.1,0.2,0.1,0.4v0.1c0,0.2,0.1,0.4,0.1,0.5
			C54.7,51.8,53.5,53.1,52,53.1z"/>
	</g>
</g>
</svg>
