<?xml version="1.0" encoding="utf-8"?>
<!-- Generator: Adobe Illustrator 21.0.2, SVG Export Plug-In . SVG Version: 6.00 Build 0)  -->
<svg version="1.1" id="Layer_1" xmlns="http://www.w3.org/2000/svg" xmlns:xlink="http://www.w3.org/1999/xlink" x="0px" y="0px"
	 viewBox="0 0 74 74" style="enable-background:new 0 0 74 74;" xml:space="preserve">
<style type="text/css">
	.st0{fill:none;stroke:#006FAF;stroke-width:2;stroke-miterlimit:10;}
	.st1{fill:#006FAF;}
</style>
<circle class="st0" cx="37" cy="37" r="36"/>
<g>
	<g>
		<polygon class="st1" points="30.1,24 35.6,25.8 35.5,30.5 30.1,32.7 		"/>
		<g>
			<path class="st1" d="M25.2,25.5V31l4.1,1.6V24L25.2,25.5z M26.2,30.7l-0.6-0.1V26l0.6-0.2V30.7z M27.3,31l-0.8-0.2v-5.1l0.8-0.2
				V31z M28.8,31.6l-1-0.4v-5.9l1-0.3V31.6z"/>
		</g>
	</g>
	<g>
		<polygon class="st1" points="42.7,24 48.2,25.8 48.1,30.5 42.7,32.7 		"/>
		<g>
			<path class="st1" d="M37.8,25.5V31l4.1,1.6V24L37.8,25.5z M38.8,30.7l-0.6-0.1V26l0.6-0.2V30.7z M39.9,31l-0.8-0.2v-5.1l0.8-0.2
				V31z M41.4,31.6l-1-0.4v-5.9l1-0.3V31.6z"/>
		</g>
	</g>
	<g>
		<polygon class="st1" points="49,32.5 54.5,34.3 54.4,39 49,41.2 		"/>
		<g>
			<path class="st1" d="M44.1,34v5.5l4.1,1.6v-8.6L44.1,34z M45.1,39.2l-0.6-0.1v-4.6l0.6-0.2V39.2z M46.2,39.5l-0.8-0.2v-5.1
				l0.8-0.2V39.5z M47.7,40.1l-1-0.4v-5.9l1-0.3V40.1z"/>
		</g>
	</g>
	<g>
		<polygon class="st1" points="36.8,32.5 42.3,34.3 42.2,39 36.8,41.2 		"/>
		<g>
			<path class="st1" d="M31.9,34v5.5l4.1,1.6v-8.6L31.9,34z M32.9,39.2l-0.6-0.1v-4.6l0.6-0.2V39.2z M34,39.5l-0.8-0.2v-5.1L34,34
				V39.5z M35.5,40.1l-1-0.4v-5.9l1-0.3V40.1z"/>
		</g>
	</g>
	<g>
		<polygon class="st1" points="24.4,32.4 29.9,34.2 29.7,38.9 24.4,41 		"/>
		<g>
			<path class="st1" d="M19.5,33.8v5.5l4.1,1.6v-8.6L19.5,33.8z M20.4,39.1L19.8,39v-4.6l0.6-0.2V39.1z M21.6,39.4l-0.8-0.2V34
				l0.8-0.2V39.4z M23,39.9l-1-0.4v-5.9l1-0.3V39.9z"/>
		</g>
	</g>
	<g>
		<polygon class="st1" points="30.3,41.2 35.8,42.9 35.6,47.6 30.3,49.8 		"/>
		<g>
			<path class="st1" d="M25.4,42.6v5.5l4.1,1.6v-8.6L25.4,42.6z M26.3,47.9l-0.6-0.1v-4.6l0.6-0.2V47.9z M27.5,48.2L26.7,48v-5.1
				l0.8-0.2V48.2z M28.9,48.7l-1-0.4v-5.9l1-0.3V48.7z"/>
		</g>
	</g>
	<g>
		<polygon class="st1" points="42.7,41.3 48.2,43.1 48.1,47.8 42.7,50 		"/>
		<g>
			<path class="st1" d="M37.8,42.8v5.5L42,50v-8.6L37.8,42.8z M38.8,48l-0.6-0.1v-4.6l0.6-0.2V48z M39.9,48.3l-0.8-0.2V43l0.8-0.2
				V48.3z M41.4,48.9l-1-0.4v-5.9l1-0.3V48.9z"/>
		</g>
	</g>
</g>
</svg>
