<svg id="Layer_1" data-name="Layer 1" xmlns="http://www.w3.org/2000/svg" viewBox="0 0 74 74"><defs><style>.cls-1{fill:none;stroke:#006faf;stroke-miterlimit:10;stroke-width:2px;}.cls-2{fill:#006faf;}</style></defs><title>backup_and_restore</title><circle class="cls-1" cx="37" cy="37" r="36"/><path class="cls-2" d="M30.52,37.9a1.79,1.79,0,1,0,1.79,1.79A1.79,1.79,0,0,0,30.52,37.9Zm0,2.39a.6.6,0,1,1,.6-.6A.6.6,0,0,1,30.52,40.29Z"/><path class="cls-2" d="M30.52,33.13a1.79,1.79,0,1,0-1.79-1.79A1.79,1.79,0,0,0,30.52,33.13Zm0-2.39a.6.6,0,1,1-.6.6A.6.6,0,0,1,30.52,30.74Z"/><path class="cls-2" d="M30.52,24.77A1.79,1.79,0,1,0,28.73,23,1.79,1.79,0,0,0,30.52,24.77Zm0-2.39a.6.6,0,1,1-.6.6A.6.6,0,0,1,30.52,22.39Z"/><path class="cls-2" d="M41.85,38.5V36.11H40.66V34.92h1.19V27.76H40.66V26.56h1.19V19.4H19.18v7.16h1.19v1.19H19.18v7.16h1.19v1.19H19.18v7.16h19.1V56.4h17.9V38.5Zm0,1.19h8.35v4.77H51.4V39.69H52.6v6H41.85ZM20.37,20.6H40.66v4.77H39.47V21.79H38.27v3.58H37.08V21.79H35.89v3.58H34.69V21.79H33.5v3.58h-6V21.79H26.34v3.58H25.15V21.79H24v3.58H22.76V21.79H21.56v3.58H20.37Zm19.1,6v1.19H21.56V26.56ZM20.37,29H40.66v4.77H39.47V30.15H38.27v3.58H37.08V30.15H35.89v3.58H34.69V30.15H33.5v3.58h-6V30.15H26.34v3.58H25.15V30.15H24v3.58H22.76V30.15H21.56v3.58H20.37Zm19.1,6v1.19H21.56V34.92Zm-1.19,7.16H37.08V38.5H35.89v3.58H34.69V38.5H33.5v3.58h-6V38.5H26.34v3.58H25.15V38.5H24v3.58H22.76V38.5H21.56v3.58H20.37V37.31H40.66V38.5h-.84L38.27,40ZM52.6,55.21H41.85V51a.6.6,0,0,1,.6-.6H52a.6.6,0,0,1,.6.6Zm2.39,0H53.79V51A1.79,1.79,0,0,0,52,49.24H42.45A1.79,1.79,0,0,0,40.66,51v4.18H39.47V40.54l.84-.84h.35v7.16H53.79V39.69H55Z"/><path class="cls-2" d="M30.23,47.22a1.85,1.85,0,1,0-.95.73A13,13,0,0,0,37,52.58l.23-1.17A11.84,11.84,0,0,1,30.23,47.22Zm-1.5-.37a.6.6,0,1,1,.6-.6A.6.6,0,0,1,28.73,46.85Z"/><path class="cls-2" d="M50.09,34.31a1.78,1.78,0,1,0,1.31-.58l-.25,0a13.14,13.14,0,0,0-7.94-6.64l-.34,1.14A11.94,11.94,0,0,1,50.09,34.31Zm1.31.61a.6.6,0,1,1-.6.6A.6.6,0,0,1,51.4,34.92Z"/></svg>