<?xml version="1.0" encoding="utf-8"?>
<!-- Generator: Adobe Illustrator 21.0.2, SVG Export Plug-In . SVG Version: 6.00 Build 0)  -->
<svg version="1.1" id="Layer_1" xmlns="http://www.w3.org/2000/svg" xmlns:xlink="http://www.w3.org/1999/xlink" x="0px" y="0px"
	 viewBox="0 0 74 74" style="enable-background:new 0 0 74 74;" xml:space="preserve">
<style type="text/css">
	.st0{fill:none;stroke:#006FAF;stroke-width:2;stroke-miterlimit:10;}
	.st1{fill:#FFFFFF;stroke:#006FAF;stroke-width:2;stroke-miterlimit:10;}
</style>
<title>Cloud &amp;amp; Infrastructure Services</title>
<circle class="st0" cx="37" cy="37" r="36"/>
<g>
	<path class="st0" d="M29,22c4-3.4,9.8-3.4,13.8,0"/>
	<g>
		<polyline class="st0" points="24.1,35.9 20.4,37.7 20.4,38.3 35.8,46.3 53.6,37.1 53.6,36.5 48.6,34 		"/>
		<polyline class="st0" points="20.4,41 20.4,42.4 35.8,50.4 53.6,41.2 53.6,39.7 		"/>
		<polyline class="st0" points="20.4,45 20.4,46.5 35.8,54.5 53.6,45.3 53.6,43.8 		"/>
		<path class="st0" d="M43.1,31.4v-2.8h-2c-0.1-0.6-0.3-0.7-0.5-1.1l1.3-1.3l-2-2l-1.2,1.3c-0.4-0.2-0.6-0.4-1.2-0.5V23h-2.8v2.1
			c-0.6,0.1-0.9,0.3-1.3,0.5l-1.3-1.3l-2,2l1.2,1.3c-0.2,0.4-0.4,0.6-0.5,1.1h-1.7v2.8h1.7c0.1,0.6,0.3,1,0.5,1.3L30,34.2l2,2
			l1.4-1.3c0.4,0.2,0.7,0.4,1.3,0.5v1.7h2.8v-1.7c0.6-0.1,0.8-0.3,1.2-0.5l1.3,1.3l2-2l-1.3-1.5c0.2-0.4,0.4-0.8,0.5-1.3L43.1,31.4
			L43.1,31.4z"/>
		<circle class="st1" cx="35.9" cy="30.2" r="2"/>
		<path class="st0" d="M27.7,37.2c-3.4-4-3.4-9.8,0-13.8"/>
		<path class="st0" d="M42.8,38.5c-4,3.4-9.8,3.4-13.8,0"/>
		<path class="st0" d="M44.1,23.4c3.4,4,3.4,9.8,0,13.8"/>
	</g>
</g>
</svg>
