<?xml version="1.0" encoding="utf-8"?>
<!-- Generator: Adobe Illustrator 21.0.2, SVG Export Plug-In . SVG Version: 6.00 Build 0)  -->
<svg version="1.1" id="Layer_1" xmlns="http://www.w3.org/2000/svg" xmlns:xlink="http://www.w3.org/1999/xlink" x="0px" y="0px"
	 viewBox="0 0 74 74" style="enable-background:new 0 0 74 74;" xml:space="preserve">
<style type="text/css">
	.st0{fill:none;stroke:#006FAF;stroke-width:2;stroke-miterlimit:10;}
	.st1{fill:#006FAF;}
</style>
<title>infragistics</title>
<circle class="st0" cx="37" cy="37" r="36"/>
<g>
	<path class="st1" d="M37,21.4c-7.4,0-13.5,2-13.5,4.5c0,0.7,1.6,10.1,2.2,13.8c0.3,1.7,4.6,4.1,11.3,4.1c6.6,0,10.9-2.4,11.3-4.1
		c0.7-3.7,2.2-13.1,2.2-13.8C50.4,23.4,44.4,21.4,37,21.4z M37,40.8c-2.4,0-4.2-1.9-4.2-4.2s1.9-4.2,4.2-4.2s4.2,1.9,4.2,4.2
		C41.2,38.8,39.4,40.8,37,40.8z M37,27.3c-4.8,0-8.6-0.8-8.6-1.9s3.8-1.9,8.6-1.9s8.6,0.8,8.6,1.9S41.8,27.3,37,27.3z"/>
	<path class="st1" d="M46.8,43.3c-0.3,0-0.4,0.1-0.4,0.1S43.1,46,37.1,46s-9.3-2.6-9.3-2.6s-0.3-0.1-0.4-0.1c-0.3,0-0.5,0.1-0.5,0.5
		v0.1c0.5,2.8,0.9,4.8,0.9,5c0.4,2,4.4,3.6,9.1,3.6s8.7-1.6,9.1-3.6c0-0.3,0.4-2.3,0.9-5v-0.1C47.2,43.6,47,43.3,46.8,43.3
		L46.8,43.3z"/>
	<circle class="st1" cx="37" cy="36.4" r="2.1"/>
</g>
</svg>
