<?xml version="1.0" encoding="utf-8"?>
<!-- Generator: Adobe Illustrator 21.0.2, SVG Export Plug-In . SVG Version: 6.00 Build 0)  -->
<svg version="1.1" id="Layer_1" xmlns="http://www.w3.org/2000/svg" xmlns:xlink="http://www.w3.org/1999/xlink" x="0px" y="0px"
	 viewBox="0 0 74 74" style="enable-background:new 0 0 74 74;" xml:space="preserve">
<style type="text/css">
	.st0{fill:none;stroke:#006FAF;stroke-width:2;stroke-miterlimit:10;}
	.st1{fill:#006FAF;}
	.st2{fill:none;}
	.st3{fill-rule:evenodd;clip-rule:evenodd;fill:none;stroke:#006FAF;stroke-width:2;stroke-miterlimit:10;}
	.st4{fill:#006FAF;stroke:#006FAF;stroke-miterlimit:10;}
	.st5{fill:#FFFFFF;}
</style>
<circle class="st3" cx="37" cy="37" r="36"/>
<g>
	<g>
		<g>
			<path class="st1" d="M7.9,40.3V34H7v6.3c0,1.5,0.9,2.3,2.3,2.2v-0.9C8.6,41.5,7.9,41.3,7.9,40.3L7.9,40.3z M12.2,41.6
				c-1.1,0-2-0.9-2-2.2s0.9-2.2,2-2.2c1.1,0,2,0.9,2,2.2C14.1,40.7,13.3,41.6,12.2,41.6L12.2,41.6z M12.2,36.4
				c-1.6,0-2.9,1.4-2.9,3.1c0,1.7,1.3,3,2.9,3s2.9-1.4,2.9-3C15.1,37.8,13.8,36.4,12.2,36.4L12.2,36.4z M26.7,36.6h-1.4l-2.7,2.7V34
				h-0.9v8.5h0.9v-1.9l1.1-1.1l2,3h1.1l-2.5-3.7L26.7,36.6L26.7,36.6z M27.3,38.9c0.3-1,1.1-1.6,1.9-1.6s1.6,0.6,1.9,1.6H27.3
				L27.3,38.9L27.3,38.9z M29.2,36.4c-1.6,0-2.9,1.4-2.9,3.1c0,1.7,1.3,3,3,3c1.3,0,2.3-0.7,2.7-2h-1c-0.3,0.7-0.9,1.1-1.7,1.1
				c-0.9,0-1.9-0.7-2-2h4.9C32.2,37.7,30.7,36.4,29.2,36.4L29.2,36.4z M33.6,37.2v-0.6h-0.9v5.9h0.9v-3.4c0-1.2,0.9-1.7,1.9-1.6
				v-0.9C34.8,36.3,34,36.6,33.6,37.2L33.6,37.2z"/>
			<path class="st1" d="M18.3,36.4c-0.4,0-0.8,0.1-1.2,0.3l0.6,0.8c0.2-0.1,0.4-0.1,0.6-0.1c1.1,0,2,0.9,2,2.2c0,1.2-0.9,2.2-2,2.2
				c-1.1,0-2-0.9-2-2.2c0-0.7,0.3-1.3,0.8-1.8l-0.6-0.8c-0.7,0.6-1.2,1.5-1.2,2.5c0,1.7,1.3,3,2.9,3c1.6,0,2.9-1.4,2.9-3
				C21.2,37.8,20,36.4,18.3,36.4L18.3,36.4z M16.7,35.3c0,0.3-0.1,0.4-0.3,0.6l0.4,0.5c0.3-0.3,0.5-0.7,0.5-1.1
				c0-0.3-0.1-0.6-0.3-0.9l-0.5,0.4C16.6,35,16.7,35.2,16.7,35.3L16.7,35.3z M15.9,36.2c-0.4,0-0.8-0.4-0.8-0.8
				c0-0.4,0.4-0.8,0.8-0.8c0.2,0,0.3,0.1,0.4,0.1l0.5-0.4c-0.3-0.2-0.6-0.4-0.9-0.4c-0.8,0-1.5,0.7-1.5,1.5c0,0.8,0.7,1.5,1.5,1.5
				c0.2,0,0.4-0.1,0.6-0.1L16,36.2C15.9,36.2,15.9,36.2,15.9,36.2L15.9,36.2z M18.4,32.5c0.4,0,0.6,0.3,0.6,0.6
				c0,0.4-0.3,0.6-0.6,0.6c-0.2,0-0.3-0.1-0.4-0.2l-0.4,0.3c0.2,0.3,0.5,0.4,0.8,0.4c0.6,0,1.1-0.5,1.1-1.1S19.1,32,18.4,32
				c-0.4,0-0.7,0.2-0.9,0.4l0.5,0.2C18.2,32.6,18.3,32.5,18.4,32.5L18.4,32.5z M17.8,33.2c0-0.1,0-0.2,0.1-0.3l-0.4-0.2
				c-0.1,0.1-0.1,0.3-0.1,0.5c0,0.2,0.1,0.4,0.1,0.5l0.4-0.3C17.9,33.4,17.8,33.3,17.8,33.2L17.8,33.2z M16.1,33
				c0.3,0,0.6-0.2,0.7-0.5l-0.3-0.1c-0.1,0.2-0.2,0.3-0.4,0.3c-0.3,0-0.4-0.2-0.4-0.4c0-0.3,0.2-0.4,0.4-0.4s0.4,0.2,0.4,0.4
				l0.3,0.1c0-0.1,0-0.1,0-0.1c0-0.4-0.3-0.8-0.8-0.8s-0.8,0.3-0.8,0.8C15.3,32.7,15.7,33,16.1,33L16.1,33z"/>
		</g>
	</g>
	<g>
		<path class="st1" d="M42,39.5c0,1.8-1.2,3-2.8,3c-1.1,0-1.9-0.5-2.3-1.3v1.3H36v-8.4h0.9v3.7c0.4-0.8,1.3-1.3,2.3-1.3
			C40.9,36.5,42,37.7,42,39.5z M41.1,39.5c0-1.3-0.9-2.2-2.1-2.2c-1.3,0-2.1,0.9-2.1,2.2c0,1.3,0.9,2.2,2.1,2.2
			C40.3,41.7,41.1,40.8,41.1,39.5z"/>
		<path class="st1" d="M42.8,42.5v-8.4h0.9v8.4H42.8z"/>
		<path class="st1" d="M50.6,39.5c0,1.8-1.3,3-3,3s-3-1.2-3-3c0-1.8,1.3-3,3-3S50.6,37.7,50.6,39.5z M45.4,39.5
			c0,1.3,0.9,2.2,2.1,2.2c1.2,0,2.1-0.9,2.1-2.2c0-1.3-0.9-2.2-2.1-2.2C46.3,37.3,45.4,38.2,45.4,39.5z"/>
		<path class="st1" d="M56,37.4L55.5,38c-0.5-0.4-1.1-0.7-1.8-0.7c-1.2,0-2.1,0.9-2.1,2.2c0,1.3,0.9,2.2,2.1,2.2
			c0.8,0,1.4-0.3,1.8-0.8l0.5,0.5c-0.5,0.6-1.4,1-2.4,1c-1.7,0-3-1.2-3-3c0-1.8,1.2-3,3-3C54.7,36.5,55.5,36.8,56,37.4z"/>
		<path class="st1" d="M57.8,40.8v1.7h-0.9v-8.4h0.9v5.5l3.1-3.1h1l-2.2,2.3l2.5,3.7h-1.1l-2-3L57.8,40.8z"/>
		<path class="st1" d="M66.8,37l-0.3,0.7c-0.5-0.3-1.1-0.5-1.6-0.5c-0.7,0-1.2,0.2-1.2,0.8c0,1.3,3.3,0.6,3.3,2.8
			c0,1.2-1,1.7-2.2,1.7c-0.8,0-1.7-0.3-2.3-0.8l0.3-0.7c0.5,0.5,1.3,0.8,2,0.8c0.7,0,1.3-0.3,1.3-0.9c0-1.4-3.3-0.7-3.3-2.8
			c0-1.1,1-1.6,2.1-1.6C65.6,36.5,66.3,36.7,66.8,37z"/>
	</g>
</g>
</svg>
