<?xml version="1.0" encoding="utf-8"?>
<!-- Generator: Adobe Illustrator 21.0.2, SVG Export Plug-In . SVG Version: 6.00 Build 0)  -->
<svg version="1.1" id="Layer_1" xmlns="http://www.w3.org/2000/svg" xmlns:xlink="http://www.w3.org/1999/xlink" x="0px" y="0px"
	 viewBox="0 0 74 74" style="enable-background:new 0 0 74 74;" xml:space="preserve">
<style type="text/css">
	.st0{fill:none;stroke:#006FAF;stroke-width:2;stroke-miterlimit:10;}
	.st1{fill:#006FAF;}
</style>
<title>bootstrap</title>
<circle class="st0" cx="37" cy="37" r="36"/>
<g>
	<path class="st1" d="M36.4,38.4h-2.9v5.7h3c1,0.1,2-0.2,2.8-0.7c0.6-0.6,1-1.4,0.9-2.3C40.3,39.3,39,38.4,36.4,38.4z"/>
	<path class="st1" d="M39,34.1c0.6-0.5,0.9-1.2,0.8-1.9c0.1-0.7-0.3-1.4-0.9-1.8C38,30,37,29.8,36,29.8h-2.5v4.9h2.7
		C37.2,34.8,38.1,34.6,39,34.1z"/>
	<path class="st1" d="M44.5,20.5h-15c-5,0-9,4-9,9v15c0,5,4,9,9,9h15.1c5,0,9-4,9-9v-15C53.5,24.5,49.5,20.5,44.5,20.5z M43,46.3
		c-1.7,1.2-3.8,1.8-5.9,1.7h-8.2V26h6.8c3.1,0,5.4,0.4,6.8,1.3c1.4,0.9,2.2,2.5,2.1,4.2c0,1.1-0.3,2.3-0.9,3.2
		c-0.6,0.8-1.5,1.4-2.5,1.5v0.2c1.2,0.2,2.2,0.8,3,1.7c0.7,1,1,2.2,0.9,3.4C45.2,43.4,44.4,45.2,43,46.3z"/>
</g>
</svg>
