<?xml version="1.0" encoding="utf-8"?>
<!-- Generator: Adobe Illustrator 21.0.2, SVG Export Plug-In . SVG Version: 6.00 Build 0)  -->
<svg version="1.1" id="Layer_1" xmlns="http://www.w3.org/2000/svg" xmlns:xlink="http://www.w3.org/1999/xlink" x="0px" y="0px"
	 viewBox="0 0 74 74" style="enable-background:new 0 0 74 74;" xml:space="preserve">
<style type="text/css">
	.st0{fill:none;stroke:#006FAF;stroke-width:2;stroke-miterlimit:10;}
	.st1{fill:#006FAF;}
</style>
<title>health-checks</title>
<circle class="st0" cx="37" cy="37" r="36"/>
<g>
	<path class="st1" d="M22,58.8c-0.7,0-1.1-0.4-1.1-1.1V42.2c0-4.8,0-9.6,0-14.4c0-0.3,0.1-0.6,0.3-0.8c0.2-0.2,0.5-0.3,0.8-0.3
		c2.4,0,4.8,0,7.2,0h7.1h0.2c0,0,0-0.1,0-0.2v-0.1c0.3-2,0.3-3.8,0.1-5.5c-0.2-1.3-0.5-2.4-1-3.3c-0.3-0.5-0.6-0.9-1-1.2h-0.1
		c0,0,0,0-0.1,0.1s-0.3,0.2-0.4,0.2c-0.1,0-0.3-0.1-0.4-0.1c-0.2-0.2-0.3-0.5-0.2-0.8c0.1-0.2,0.3-0.4,0.6-0.4
		c0.4,0,0.6,0.3,0.6,0.6c0,0.1,0,0.2,0.1,0.2c0.9,0.6,1.3,1.4,1.6,2.1c0.5,1.2,0.7,2.5,0.8,4.2c0,1.4,0,2.7-0.3,4.1
		c0,0.1,0,0.1,0,0.1s0,0,0.1,0s0.9,0,0.9,0c0.1,0,0.3,0,0.4,0c0.1,0,0.2-0.1,0.3-0.1c1.2-1.2,2.4-2,3.7-2.6c1-0.5,1.8-0.7,2.7-0.7
		H45c0.6,0,1.1,0.2,1.5,0.4c0,0,0.1,0,0.2,0c0.2,0,0.2,0,0.3,0c0.2,0,0.4,0.1,0.6,0.3c0.2,0.3,0.1,0.6-0.1,0.8
		c-0.1,0.1-0.3,0.2-0.4,0.2c-0.1,0-0.2,0-0.3-0.1c-0.3-0.2-0.4-0.5-0.3-0.8c0-0.1,0-0.1-0.1-0.2c-0.4-0.2-0.9-0.4-1.4-0.4
		c-0.3,0-0.5,0-0.9,0.1c-1.3,0.3-2.5,0.9-4,2c-0.3,0.2-0.5,0.5-0.8,0.7L39,26.5l-0.1,0.1h13c0.8,0,1.1,0.4,1.1,1.1v30
		c0,0.7-0.4,1.1-1.1,1.1H22.4H22z M22.7,58.3c0.2,0,0.4,0,0.6,0c0.1,0,0.1,0,0.1,0c0.1,0,0.1,0,0.2-0.2c0.1-1.9,0.6-3.6,1.4-5
		c1.1-2.1,2.7-3.4,4.9-4c0.5-0.1,1-0.2,1.5-0.3c0.2,0,0.5-0.1,0.7-0.1l0,0H32l-0.1-1.1c0-0.8-0.1-1.6-0.1-2.4
		c-0.2-2.1-0.6-4.2-1.3-6.8l-0.1-0.3C30.1,37.7,30,37.3,30,37c-0.1-1.7,0.5-3.1,1.7-4.2c0.8-0.8,1.9-1.3,3.2-1.4
		c0.3,0,0.4-0.2,0.5-0.4l0.3-1.3c0.2-0.7,0.4-1.5,0.6-2.2c0-0.1,0.1-0.2,0-0.2c0,0-0.1,0-0.3,0H21.8h-0.1c-0.2,0-0.4,0.2-0.4,0.4
		c0,0.1,0,0.2,0,0.2v30c0,0.4,0.1,0.6,0.6,0.6c0.1,0,0.2,0,0.2,0C22.4,58.3,22.6,58.3,22.7,58.3z M40.9,46.7c-0.7,0-1.6,0-2.4,0.3
		c-1.3,0.4-1.9,1.2-1.9,2.5c0,0.2,0.1,0.3,0.2,0.3c1.1,0.6,2,1.5,2.6,2.7c0.9,1.6,1.3,3.3,1.3,5.5c0,0.1,0,0.2,0,0.2s0.1,0,0.2,0h11
		c0.5,0,0.6-0.1,0.6-0.6V27.7c0-0.5-0.1-0.6-0.6-0.6H41c-0.8,0-1.6,0-2.4,0c-0.1,0-0.2,0-0.3,0.1c-0.9,0.9-1.4,1.8-1.7,2.7
		c0,0.1,0,0.1-0.1,0.2c0.9-0.6,1.8-0.8,2.6-0.8c1.1,0,2,0.5,3,1.4l0.2-0.1c0.4-0.3,0.8-0.5,1.2-0.6c0.1,0,0.2,0,0.3,0
		c0.3,0,0.5,0.1,0.7,0.3c0.2,0.3,0.4,0.5,0.6,0.7c0.9,1.3,1.6,2.8,2.1,4.5c0,0.1,0.1,0.2,0.2,0.3c0.3,0.2,0.6,0.4,0.9,0.6
		c0.4,0.3,0.8,0.6,1.2,0.9c1.1,0.8,1.8,1.6,2.4,2.4c0.4,0.6,0.8,1.5,0.7,2.5c-0.2,1.3-0.9,2.4-2.1,3.1c-1.4,0.9-3.1,1.4-5.1,1.5
		c-0.4,0-0.9,0-1.3,0c-0.5,0-1.1,0-1.6,0h-1L40.9,46.7z M39.8,58.3c0.1,0,0.2,0,0.2,0s0-0.1,0-0.2c0-0.3,0-0.6-0.1-0.8
		c0-0.5-0.1-1.1-0.2-1.7c-0.3-1.9-1.3-3.5-3-4.8c-0.1,0-0.1-0.1-0.1-0.1s-0.1,0-0.1,0.1c-0.5,0.4-1.1,0.6-1.8,0.6l0,0
		c-0.9,0-1.7-0.3-2.5-0.8c-0.1,0-0.1-0.1-0.2-0.1h-0.1c-0.2,0.1-0.5,0.3-0.7,0.4c-0.5,0.2-0.9,0.5-1.4,0.8c-1.3,0.9-2.2,2-2.8,3.4
		c-0.4,0.9-0.6,1.8-0.7,3c0,0.1,0,0.1,0,0.1s0.1,0,0.2,0h9.4C37.3,58.3,38.5,58.3,39.8,58.3z M34.4,32.1c-1.3,0.3-2.4,1.1-3.1,2.2
		c-0.7,1.1-0.8,2.5-0.4,3.6c0.7,2.2,1.2,4.6,1.5,7.3c0.1,1,0.1,2,0.2,3v1c0,0.1,0,0.2,0.1,0.3c0.4,0.3,0.9,0.5,1.3,0.6
		c0.2,0.1,0.4,0.1,0.6,0.1c0.4,0,0.7-0.1,1-0.3c0.2-0.1,0.2-0.2,0.2-0.4c-0.1-0.8,0.1-1.4,0.5-2s1-1,1.9-1.2
		c0.2-0.1,0.4-0.1,0.6-0.2h0.1c-0.4-0.2-0.8-0.3-1.2-0.3c-0.5,0-1,0-1.5,0c-0.3,0-0.6,0-0.8,0c-0.1,0-0.1,0-0.2-0.1l-0.1-0.1v-0.1
		c0.1-0.1,0.2-0.2,0.2-0.2c0.1,0,0.3,0,0.4,0h0.1c0.3,0,0.6,0,0.8,0c1.3,0,2.3,0.2,3.3,0.8c0,0,0.1,0,0.2,0l2.6,0.1
		c0.2,0,0.5,0,0.7,0c1.8,0,3.3-0.2,4.7-0.7c1.2-0.4,2-0.9,2.6-1.6c0.7-0.8,1.3-2.1,0.5-3.5c-0.6-1.2-1.5-2.1-2.5-2.8
		c-1.1-0.7-2.1-1.3-3.2-2l-1.3-0.8l0.5,1.6l-0.2-0.2c-0.1-0.1-0.1-0.2-0.2-0.3c-0.5-1.3-1-2.3-1.7-3.3c-0.6-0.9-1.1-1.5-1.8-2.1
		c-0.6-0.5-1.3-0.7-1.9-0.7c-0.3,0-0.6,0-0.8,0.1c-0.7,0.2-1.4,0.5-2,1s-1.2,1-1.8,1.6l-1,0.9l-0.1-0.1v-0.1L34.4,32.1z M35.8,30.7
		L35.8,30.7L35.8,30.7z M36.9,27.1c-0.1,0-0.1,0-0.2,0.1c-0.2,0.9-0.4,1.7-0.6,2.6C36,30,36,30.2,35.9,30.5v0.1
		c0.1-0.1,0.2-0.2,0.2-0.3c0.2-0.9,0.7-1.8,1.5-2.8l0.3-0.4h-0.5C37.3,27.1,37.1,27.1,36.9,27.1L36.9,27.1L36.9,27.1z"/>
	<path class="st1" d="M53,27.7c0-0.7-0.3-1-1-1c-4.3,0-8.6,0-12.9,0c-0.1,0-0.2,0-0.2,0s0,0,0-0.1c0.1-0.1,0.1-0.1,0.2-0.2
		c0.4-0.3,0.7-0.7,1.1-1c1.2-0.9,2.5-1.7,4-2c0.8-0.2,1.6-0.1,2.3,0.3c0.1,0.1,0.2,0.1,0.1,0.3c-0.1,0.3,0,0.5,0.2,0.6
		s0.5,0.1,0.7-0.1s0.2-0.5,0.1-0.7c-0.1-0.2-0.4-0.3-0.7-0.2c-0.1,0-0.2,0-0.3,0c-0.5-0.3-1-0.4-1.5-0.4c-1,0-1.9,0.3-2.7,0.7
		c-1.4,0.6-2.6,1.6-3.7,2.6c-0.1,0.1-0.3,0.2-0.4,0.2c-0.4,0-0.9,0-1.3,0c-0.2,0-0.3-0.1-0.2-0.3c0.2-1.4,0.3-2.7,0.3-4.1
		c-0.1-1.4-0.2-2.8-0.8-4.2c-0.3-0.8-0.8-1.6-1.5-2.1c-0.1,0-0.1-0.2-0.1-0.2c0-0.3-0.2-0.5-0.5-0.5c-0.2,0-0.5,0.1-0.6,0.3
		s0,0.5,0.1,0.7c0.2,0.2,0.5,0.2,0.7,0c0.1-0.1,0.2-0.1,0.3,0c0.5,0.3,0.8,0.7,1,1.2c0.6,1,0.8,2.2,1,3.3c0.3,1.9,0.2,3.7-0.1,5.6
		c-0.1,0.5,0,0.4-0.5,0.4c-4.7,0-9.5,0-14.2,0c-0.6,0-1.1,0.5-1.1,1.1c0,6.2,0,12.4,0,18.5c0,3.8,0,7.6,0,11.4c0,0.7,0.3,1,1,1
		c0.4,0,0.8,0,1.3,0c9.6,0,19.1,0,28.7,0c0.7,0,1-0.3,1-1c0-2.5,0-4.9,0-7.4C53,42.8,53,35.3,53,27.7z M36.7,27.2
		c0-0.2,0.1-0.2,0.3-0.2c0.4,0,0.8,0,1.2,0c-0.2,0.2-0.3,0.4-0.4,0.6c-0.7,0.8-1.2,1.7-1.5,2.8c0,0.2-0.3,0.3-0.4,0.5
		c0,0,0,0-0.1-0.1c0.1-0.3,0.2-0.6,0.3-1C36.3,29,36.5,28.1,36.7,27.2z M44.3,34.6c0.1,0,0.2,0.1,0.2,0.1c1.5,0.9,3,1.9,4.5,2.8
		c1.1,0.7,1.9,1.6,2.5,2.8c0.7,1.3,0.2,2.7-0.6,3.6c-0.7,0.8-1.7,1.3-2.7,1.6c-1.8,0.6-3.6,0.7-5.5,0.7c-0.9,0-1.8,0-2.6-0.1
		c-0.1,0-0.2,0-0.3-0.1c-1.3-0.7-2.6-0.8-4.1-0.7c-0.2,0-0.3,0-0.5,0.1c-0.1,0-0.1,0.1-0.2,0.2c0.1,0,0.2,0.1,0.2,0.1
		c0.8,0,1.6,0,2.4,0.1c0.5,0,1,0.2,1.4,0.4c-0.4,0.1-0.7,0.1-0.9,0.2c-0.7,0.2-1.4,0.6-1.8,1.2c-0.4,0.6-0.5,1.2-0.5,1.9
		c0,0.2-0.1,0.4-0.3,0.5c-0.6,0.3-1.1,0.3-1.7,0.2c-0.5-0.1-1-0.3-1.4-0.6c-0.1-0.1-0.2-0.2-0.2-0.4c-0.1-1.3-0.1-2.7-0.2-4
		c-0.2-2.5-0.7-4.9-1.5-7.3c-0.8-2.3,0.6-5.4,3.8-6c0,0,0,0,0.1,0c-0.4,0.5-0.8,0.9-1.2,1.4l0,0c0.1-0.1,0.1-0.1,0.2-0.2
		c0.8-0.8,1.7-1.5,2.5-2.3c0.6-0.5,1.3-0.9,2-1.1c1-0.3,2-0.1,2.9,0.6c0.7,0.6,1.3,1.3,1.8,2.1c0.7,1,1.2,2.2,1.7,3.3
		c0,0.1,0.1,0.1,0.1,0.2C44.6,35.6,44.4,35.1,44.3,34.6z M23.7,58.1c0,0.3-0.1,0.3-0.4,0.3s-0.7,0-1,0c-0.7,0.1-0.9-0.1-0.9-0.6
		c0-4.4,0-8.8,0-13.1c0-5.6,0-11.2,0-16.8c0-0.1,0-0.2,0-0.3c0-0.3,0.2-0.5,0.5-0.5c0.1,0,0.2,0,0.3,0c4.7,0,9.4,0,14.1,0
		c0.4,0,0.4,0,0.3,0.4c-0.3,1.2-0.6,2.3-0.9,3.5c-0.1,0.3-0.3,0.5-0.6,0.5c-1.2,0.2-2.3,0.6-3.2,1.4c-1.2,1.1-1.8,2.5-1.7,4.2
		c0,0.5,0.2,1,0.3,1.5c0.6,2.2,1.1,4.5,1.3,6.8c0.1,1.2,0.1,2.3,0.2,3.5c0,0.1,0,0.1,0,0.1c-0.7,0.1-1.5,0.2-2.2,0.4
		c-2.2,0.6-3.7,1.9-4.8,3.9C24.2,54.7,23.8,56.4,23.7,58.1z M39.8,58.4c-2.2,0-4.4,0-6.6,0c-2.2,0-4.4,0-6.6,0c-0.2,0-0.3,0-0.3-0.3
		C26.4,57,26.6,56,27,55c0.6-1.4,1.6-2.5,2.8-3.4c0.7-0.5,1.4-0.8,2.1-1.2c0.1-0.1,0.3-0.1,0.4,0c0.7,0.5,1.5,0.8,2.4,0.8
		c0.6,0,1.2-0.2,1.7-0.6c0.1-0.1,0.2-0.1,0.3,0c1.6,1.2,2.7,2.8,3.1,4.9c0.1,0.8,0.1,1.7,0.2,2.5C40.1,58.3,40,58.4,39.8,58.4z
		 M52,58.4c-3.7,0-7.3,0-11,0c-0.3,0-0.3,0-0.3-0.3c0-1.9-0.4-3.7-1.3-5.4c-0.6-1.1-1.5-2-2.6-2.7c-0.2-0.1-0.2-0.2-0.2-0.4
		c-0.1-1.4,0.6-2.2,1.9-2.6c0.9-0.3,1.9-0.3,2.8-0.3c1.3,0,2.6,0.1,3.9,0c1.8-0.1,3.5-0.5,5.1-1.5c1.1-0.7,1.9-1.7,2.1-3.1
		c0.1-0.9-0.2-1.7-0.6-2.5c-0.6-1-1.4-1.7-2.4-2.4c-0.7-0.5-1.4-1-2.1-1.5c-0.1-0.1-0.2-0.2-0.3-0.4c-0.4-1.6-1.1-3.1-2.1-4.4
		c-0.2-0.2-0.4-0.4-0.6-0.7c-0.2-0.2-0.5-0.3-0.8-0.2c-0.4,0.1-0.8,0.3-1.2,0.6c-0.1,0.1-0.2,0.1-0.2,0.2c-1.7-1.8-3.6-1.8-5.7-0.5
		c0.1-0.2,0.1-0.3,0.1-0.5c0.4-1,1-1.9,1.7-2.7c0.1-0.1,0.2-0.1,0.4-0.1c1.4,0,2.8,0,4.2,0c3,0,6,0,9.1,0c0.6,0,0.7,0.2,0.7,0.7
		c0,10,0,20,0,29.9C52.7,58.2,52.5,58.4,52,58.4z"/>
	<path class="st1" d="M38.6,36.7c-0.5,0-0.9-0.3-1.2-0.9c-0.5-1-0.2-2.4,0.7-3.1c0.3-0.2,0.6-0.3,0.9-0.3c0.4,0,0.8,0.2,1.1,0.7
		c0.2,0.3,0.3,0.8,0.3,1.4c0,0.5-0.2,1.2-0.7,1.7C39.3,36.5,39,36.7,38.6,36.7L38.6,36.7z M38.6,35.5C38.5,35.5,38.5,35.5,38.6,35.5
		C38.5,35.5,38.5,35.5,38.6,35.5L38.6,35.5c0.1,0.2,0.1,0.2,0.2,0.2h0.1L38.6,35.5L38.6,35.5z M38.8,33.3c-0.1,0-0.2,0-0.3,0.1
		c-0.2,0.2-0.4,0.5-0.3,0.8c0,0.1,0.1,0.2,0.1,0.3c0,0,0,0,0.1,0s0.2,0,0.2-0.1c0.2-0.2,0.4-0.4,0.4-0.8l0,0c0,0,0,0-0.1-0.1
		C39,33.4,38.9,33.3,38.8,33.3L38.8,33.3z"/>
	<path class="st1" d="M39.8,39.7c-0.5,0-1-0.1-1.6-0.3c-0.1,0-0.2-0.1-0.2-0.1l-0.2-0.1l0.1-0.1C38,39,38.1,39,38.2,39s0.1,0,0.2,0
		c0.5,0.2,0.9,0.2,1.3,0.2c0.4,0,0.8,0,1.1-0.1c0.5-0.1,0.9-0.3,1.3-0.6c0.5-0.4,0.6-0.9,0.5-1.4c-0.3-1.7-1.1-3.2-2.4-4.5
		c-0.4-0.4-0.8-0.6-1.3-0.8c-0.1,0-0.1-0.1-0.2-0.1h-0.1l-0.1-0.1v-0.1l0.1-0.1h0.2c0.1,0,0.3,0,0.4,0.1c0.5,0.2,0.9,0.5,1.3,0.9
		c1.2,1.3,2,2.8,2.3,4.5c0.2,0.8-0.1,1.5-0.8,2C41.5,39.4,40.7,39.7,39.8,39.7L39.8,39.7z"/>
	<path class="st1" d="M40.7,32.4c-0.4-0.4-0.8-0.7-1.3-0.9c-0.2-0.1-0.4-0.1-0.5-0.1v0.1c0.1,0.1,0.2,0.1,0.3,0.2
		c0.5,0.2,0.9,0.4,1.3,0.8c1.2,1.3,2,2.8,2.4,4.5c0.1,0.6-0.1,1.1-0.6,1.5c-0.4,0.3-0.9,0.5-1.3,0.6c-0.8,0.2-1.7,0.2-2.5-0.1
		c-0.1,0-0.3-0.1-0.4,0.1c0.1,0.1,0.2,0.1,0.3,0.2c1.4,0.5,2.8,0.3,4-0.6c0.7-0.5,0.9-1.1,0.7-1.9C42.6,35.2,41.8,33.7,40.7,32.4z"
		/>
</g>
</svg>
