<?xml version="1.0" encoding="utf-8"?>
<!-- Generator: Adobe Illustrator 21.0.0, SVG Export Plug-In . SVG Version: 6.00 Build 0)  -->
<svg version="1.1" id="Layer_1" xmlns="http://www.w3.org/2000/svg" xmlns:xlink="http://www.w3.org/1999/xlink" x="0px" y="0px"
	 viewBox="0 0 74 74" style="enable-background:new 0 0 74 74;" xml:space="preserve">
<style type="text/css">
	.st0{fill:none;stroke:#006FAF;stroke-width:2;stroke-miterlimit:10;}
	.st1{fill:#006FAF;}
</style>
<title>Azure_Site_Recovery</title>
<circle class="st0" cx="37" cy="37" r="36"/>
<g>
	<path class="st1" d="M38.5,35.3c-0.1-0.1-0.4-0.2-0.6-0.3c-4.8-2.3-9.6-4.6-14.4-7c-0.5-0.3-0.8-0.6-0.8-1.2c0-3.2,0-6.4,0-9.6
		c0-0.8,0.2-0.9,0.9-0.5C31,20.9,38.5,24.9,46,29c0.9,0.5,0.9,0.6,0.1,1.1c-2.2,1.6-4.4,3.2-6.7,4.8C39.2,35.1,38.9,35.3,38.5,35.3z
		"/>
	<path class="st1" d="M42.2,37.1h5.6c0-1.7,0-3.3,0-5c0-0.4,0.2-1-0.2-1.1c-0.4-0.2-0.7,0.4-0.9,0.6c-6.8,7-13.6,14.1-20.4,21.1
		c-0.7,0.7-1.5,1.4-2.3,2.2c0.1-0.3,0.1-0.5,0.2-0.7c1-2.9,2-5.8,2.9-8.8c1.1-3.3,2.2-6.7,3.4-10c0.2-0.7,0.2-1.1-0.5-1.6
		c-2.1-1.3-4.1-2.7-6.2-4c-0.3-0.2-0.5-0.5-0.9-0.3c-0.3,0.2-0.2,0.6-0.2,0.8c0,8.4,0,16.7,0,25.1c0,1.1,0.2,1.2,1.2,0.7
		c6.1-3.3,12.2-6.7,18.3-10V37.1z"/>
	<g>
		<path class="st1" d="M42.9,49.1c0-3.7,0-7.4,0-11.2c1.7,0,3.3,0,5,0c0-0.2,0-0.4,0-0.6c0-0.7,0.4-1.1,1.1-1.1c0.8,0,1.5,0,2.3,0
			c0.7,0,1,0.4,1.1,1.1c0,0.2,0,0.3,0,0.6c1.7,0,3.4,0,5,0c0,3.8,0,7.5,0,11.2C52.7,49.1,47.8,49.1,42.9,49.1z M44,39
			c0,0.1,0,0.2,0,0.4c0,0.9,0,1.8,0,2.7c0,1,0.4,1.4,1.4,1.4c3.2,0,6.3,0,9.5,0c0.1,0,0.2,0,0.2,0c0.8,0,1.2-0.5,1.2-1.2
			c0-1,0-2,0-3c0-0.1,0-0.2,0-0.3C52.3,39,48.2,39,44,39z M44,48c4.1,0,8.2,0,12.3,0c0-1.2,0-2.4,0-3.5c-0.5,0.1-1,0.1-1.5,0.1
			c-2.9,0-5.8,0-8.8,0c-0.7,0-1.4-0.1-2.1-0.1C44,45.6,44,46.8,44,48z M49.1,37.9c0.8,0,1.5,0,2.2,0c0-0.2,0-0.4,0-0.5
			c-0.8,0-1.5,0-2.2,0C49.1,37.5,49.1,37.7,49.1,37.9z"/>
		<path class="st1" d="M46.3,41.3c0.4,0,0.7,0,1,0c0,0.5,0,1.1,0,1.6c-0.4,0-0.7,0-1,0C46.3,42.4,46.3,41.9,46.3,41.3z"/>
		<path class="st1" d="M54.1,41.3c0,0.5,0,1.1,0,1.6c-0.4,0-0.7,0-1.1,0c0-0.5,0-1.1,0-1.6C53.4,41.3,53.7,41.3,54.1,41.3z"/>
	</g>
</g>
</svg>
