<?xml version="1.0" encoding="utf-8"?>
<!-- Generator: Adobe Illustrator 21.0.2, SVG Export Plug-In . SVG Version: 6.00 Build 0)  -->
<svg version="1.1" id="Layer_1" xmlns="http://www.w3.org/2000/svg" xmlns:xlink="http://www.w3.org/1999/xlink" x="0px" y="0px"
	 viewBox="0 0 74 74" style="enable-background:new 0 0 74 74;" xml:space="preserve">
<style type="text/css">
	.st0{fill:none;stroke:#006FAF;stroke-width:2;stroke-miterlimit:10;}
	.st1{fill:#006FAF;}
</style>
<circle class="st0" cx="37" cy="37" r="36"/>
<g id="_x35_151e0c8492e5103c096af88a51e54a6">
	<path class="st1" d="M35.4,39.1l6.2,1.9c-0.4,1.7-1.1,3.2-2,4.3c-0.9,1.2-2,2-3.3,2.6s-3,0.9-5,0.9c-2.5,0-4.5-0.4-6-1.1
		c-1.6-0.7-2.9-2-4.1-3.8c-1.1-1.8-1.7-4.1-1.7-6.9c0-3.8,1-6.6,3-8.7c2-2,4.8-3,8.5-3c2.9,0,5.1,0.6,6.7,1.7
		c1.6,1.2,2.9,2.9,3.6,5.3l-6.2,1.4c-0.2-0.7-0.4-1.2-0.7-1.5c-0.4-0.5-0.9-1-1.4-1.2c-0.6-0.3-1.2-0.4-1.9-0.4
		c-1.6,0-2.8,0.6-3.7,1.9c-0.6,0.9-1,2.4-1,4.5c0,2.5,0.4,4.2,1.1,5.2c0.8,0.9,1.8,1.4,3.2,1.4c1.3,0,2.4-0.4,3-1.1
		C34.6,41.6,35.1,40.5,35.4,39.1z M52.7,35.9l-0.5,2.3h2.3v2.6h-2.8L51.1,44h-2.6l0.7-3.3h-2L46.4,44h-2.6l0.7-3.3h-1.3v-2.6H45
		l0.5-2.3h-2.3v-2.6H46l0.7-3.3h2.6l-0.7,3.3h2l0.7-3.3h2.6l-0.7,3.3h1.3v2.6L52.7,35.9L52.7,35.9z M50.1,35.9h-2l-0.5,2.3h2
		L50.1,35.9z"/>
</g>
</svg>
