<?xml version="1.0" encoding="utf-8"?>
<!-- Generator: Adobe Illustrator 21.0.2, SVG Export Plug-In . SVG Version: 6.00 Build 0)  -->
<svg version="1.1" id="Layer_1" xmlns="http://www.w3.org/2000/svg" xmlns:xlink="http://www.w3.org/1999/xlink" x="0px" y="0px"
	 viewBox="0 0 74 74" style="enable-background:new 0 0 74 74;" xml:space="preserve">
<style type="text/css">
	.st0{fill:none;stroke:#006FAF;stroke-width:2;stroke-miterlimit:10;}
	.st1{fill:#006FAF;}
</style>
<title>Cloud &amp;amp; Infrastructure Services</title>
<circle class="st0" cx="37" cy="37" r="36"/>
<path class="st1" d="M51,31c0.1-1.1-0.6-2.2-1.5-2.8l-10.6-6.4c-0.9-0.6-2.1-0.6-3.1-0.1l-10.9,6c-1,0.5-1.6,1.6-1.6,2.7L23,43
	c0,1.1,0.6,2.2,1.5,2.8l10.6,6.4c0.9,0.6,2.1,0.6,3.1,0.1l10.9-6c1-0.6,1.7-1.6,1.6-2.7L51,31z M44.2,43.4c-1.5,1.8-3.5,2.8-6,2.8
	s-4.7-0.9-6.3-2.6c-1.6-1.7-2.4-3.8-2.4-6.5c0-2.5,0.7-4.7,2.3-6.4c1.6-1.9,3.6-2.8,6.1-2.8c2.7,0,4.8,0.8,6.3,2.5
	c0.2,0.2,0.3,0.4,0.3,0.5c0,0.2-0.3,0.7-0.9,1.8c-0.6,1-0.9,1.6-1,1.7c-0.1,0.1-0.1,0.1-0.3,0.1c-0.1,0-0.3-0.2-0.6-0.5
	c-0.4-0.4-0.9-0.7-1.3-0.9c-0.7-0.3-1.3-0.5-2.1-0.5c-1.2,0-2.2,0.4-2.9,1.4c-0.7,0.9-1,1.9-1,3.1c0,1.2,0.3,2.3,1,3.2
	s1.7,1.4,2.9,1.4c0.7,0,1.5-0.2,2.1-0.5c0.4-0.2,0.9-0.5,1.3-0.9c0.4-0.3,0.6-0.5,0.6-0.5s0.2,0.1,0.3,0.1c0.1,0.1,0.5,0.7,1,1.6
	c0.6,1,0.9,1.5,0.9,1.7C44.5,42.9,44.4,43.2,44.2,43.4z"/>
</svg>
