<?xml version="1.0" encoding="utf-8"?>
<!-- Generator: Adobe Illustrator 21.0.2, SVG Export Plug-In . SVG Version: 6.00 Build 0)  -->
<svg version="1.1" id="Layer_1" xmlns="http://www.w3.org/2000/svg" xmlns:xlink="http://www.w3.org/1999/xlink" x="0px" y="0px"
	 viewBox="0 0 74 74" style="enable-background:new 0 0 74 74;" xml:space="preserve">
<style type="text/css">
	.st0{fill:none;stroke:#006FAF;stroke-width:2;stroke-miterlimit:10;}
	.st1{enable-background:new    ;}
	.st2{fill:#006FAF;}
</style>
<title>health-checks</title>
<circle class="st0" cx="37" cy="37" r="36"/>
<title></title>
<desc></desc>
<g id="Layer_3">
</g>
<g class="st1">
	<path class="st2" d="M22.5,40.6c0.6,0,1.1-0.1,1.5-0.3s0.8-0.5,1.3-0.9l1.1,1.1c-1,1.1-2.3,1.7-3.8,1.7s-2.7-0.5-3.7-1.4
		c-1-1-1.5-2.2-1.5-3.6s0.5-2.7,1.5-3.6c1-1,2.2-1.5,3.8-1.5s2.8,0.6,3.8,1.7l-1.1,1.1c-0.5-0.4-0.9-0.8-1.3-0.9
		c-0.4-0.2-0.9-0.3-1.5-0.3c-1,0-1.8,0.3-2.5,1c-0.7,0.6-1,1.5-1,2.5s0.3,1.8,1,2.5C20.8,40.3,21.6,40.6,22.5,40.6z"/>
	<path class="st2" d="M34.1,42.1h-1.4v-1c-0.6,0.7-1.4,1.1-2.5,1.1c-0.8,0-1.4-0.2-1.9-0.7s-0.8-1-0.8-1.8s0.3-1.3,0.8-1.6
		c0.5-0.4,1.3-0.5,2.2-0.5h2v-0.3c0-1-0.6-1.5-1.7-1.5c-0.7,0-1.4,0.3-2.2,0.8l-0.7-1c0.9-0.7,1.9-1.1,3.1-1.1
		c0.9,0,1.6,0.2,2.1,0.7s0.8,1.1,0.8,2.1v4.8H34.1z M32.6,39.4v-0.6h-1.8c-1.1,0-1.7,0.4-1.7,1.1c0,0.4,0.1,0.6,0.4,0.8
		s0.7,0.3,1.2,0.3s0.9-0.1,1.3-0.4C32.4,40.2,32.6,39.8,32.6,39.4z"/>
	<path class="st2" d="M40.2,36.2c-0.8,0-1.4,0.3-1.8,0.8c-0.4,0.5-0.6,1.2-0.6,2v3.2h-1.6v-7.4h1.6v1.5c0.3-0.5,0.6-0.8,1-1.1
		s0.9-0.5,1.4-0.5L40.2,36.2C40.3,36.2,40.3,36.2,40.2,36.2z"/>
	<path class="st2" d="M42.5,41.2c-0.7-0.7-1-1.6-1-2.8s0.4-2.1,1.1-2.8c0.7-0.7,1.6-1,2.6-1s1.8,0.4,2.4,1.3v-4.1H49v10.4h-1.6V41
		c-0.6,0.8-1.4,1.2-2.5,1.2C44,42.2,43.2,41.9,42.5,41.2z M43,38.4c0,0.7,0.2,1.3,0.7,1.7s1,0.7,1.6,0.7s1.1-0.2,1.6-0.7
		c0.4-0.5,0.6-1,0.6-1.7s-0.2-1.3-0.6-1.8c-0.4-0.5-1-0.7-1.6-0.7s-1.2,0.2-1.6,0.7C43.2,37.1,43,37.7,43,38.4z"/>
	<path class="st2" d="M56.6,39.9c0,0.7-0.3,1.3-0.8,1.7s-1.2,0.6-2,0.6c-0.5,0-1.1-0.1-1.7-0.3c-0.6-0.2-1.1-0.5-1.5-0.8l0.8-1.2
		c0.9,0.7,1.7,1,2.5,1c0.4,0,0.6-0.1,0.8-0.2c0.2-0.2,0.3-0.4,0.3-0.6c0-0.4-0.5-0.7-1.5-1c-0.1,0-0.1,0-0.2-0.1
		c-1.5-0.4-2.3-1.1-2.3-2.1c0-0.7,0.3-1.2,0.8-1.7c0.5-0.4,1.2-0.6,2.1-0.6c0.9,0,1.7,0.3,2.4,0.8l-0.6,1.2c-0.6-0.4-1.3-0.6-2-0.6
		c-0.4,0-0.7,0.1-0.9,0.2c-0.2,0.1-0.4,0.3-0.4,0.6c0,0.2,0.1,0.4,0.4,0.5c0.2,0.1,0.4,0.2,0.7,0.2c0.3,0.1,0.6,0.1,0.8,0.2
		c0.2,0.1,0.5,0.2,0.7,0.3s0.5,0.2,0.7,0.4C56.3,38.7,56.6,39.2,56.6,39.9z"/>
</g>
</svg>
