<?xml version="1.0" encoding="utf-8"?>
<!-- Generator: Adobe Illustrator 21.0.2, SVG Export Plug-In . SVG Version: 6.00 Build 0)  -->
<svg version="1.1" id="Layer_1" xmlns="http://www.w3.org/2000/svg" xmlns:xlink="http://www.w3.org/1999/xlink" x="0px" y="0px"
	 viewBox="0 0 74 74" style="enable-background:new 0 0 74 74;" xml:space="preserve">
<style type="text/css">
	.st0{fill:#006FAF;}
</style>
<title>os-patch-management</title>
<g id="text">
</g>
<path class="st0" d="M37,74C16.6,74,0,57.4,0,37S16.6,0,37,0s37,16.6,37,37S57.4,74,37,74z M37,2C17.7,2,2,17.7,2,37s15.7,35,35,35
	s35-15.7,35-35S56.3,2,37,2z"/>
<g>
	<path class="st0" d="M15.2,32.8c0.6,0,1.1,0.1,1.5,0.3l0.2,0.1l0.4-1.2l-0.1,0c-0.2-0.1-0.8-0.4-2-0.4c-2.6,0-4.4,1.8-4.4,4.4
		s1.6,4.3,4.2,4.3c1,0,1.8-0.2,2.2-0.4l0.1-0.1L17,38.6l-0.2,0.1c-0.4,0.2-1,0.3-1.6,0.3c-1.8,0-2.9-1.1-2.9-3.1
		C12.3,34,13.4,32.8,15.2,32.8z"/>
	<path class="st0" d="M20.6,33.8c-1.7,0-2.9,1.4-2.9,3.3c0,1.9,1.2,3.1,3.1,3.1c1,0,1.6-0.2,2-0.4l0.2-0.1l-0.3-1.1l-0.2,0.1
		C22.2,38.8,21.7,39,21,39c-0.5,0-1.7-0.2-1.8-1.6h3.9l0.2-0.1v-0.2c0-0.1,0-0.3,0-0.5C23.2,35.3,22.4,33.8,20.6,33.8z M20.5,35
		c0.4,0,0.7,0.1,0.9,0.3c0.3,0.3,0.4,0.7,0.4,1h-2.6C19.2,35.7,19.6,35,20.5,35z"/>
	<path class="st0" d="M26.5,31.1c-0.6,0-1.2,0.2-1.6,0.6c-0.5,0.5-0.7,1.2-0.7,2.2V34h-0.8v1.2h0.8v5h1.4v-5H27V34h-1.4v-0.1
		c0-1.3,0.5-1.5,0.9-1.5c0.2,0,0.4,0,0.6,0.1l0.2,0.1l0.2-1.2l-0.1-0.1C27.3,31.3,26.9,31.1,26.5,31.1z"/>
	<path class="st0" d="M30.8,31.6c-0.7,0-1.4,0.1-2,0.2h-0.2v8.4H30V37c0.2,0,0.4,0,0.6,0c1.1,0,2-0.3,2.6-0.9
		c0.5-0.5,0.7-1.1,0.7-1.9c0-0.8-0.3-1.4-0.8-1.8C32.7,31.9,31.9,31.6,30.8,31.6z M32.5,34.3c0,1.3-1.1,1.5-1.8,1.5
		c-0.3,0-0.5,0-0.7,0V33c0.2,0,0.4,0,0.8,0C31.6,32.9,32.5,33.1,32.5,34.3z"/>
	<path class="st0" d="M42.3,32.3l-1.4,0.4V34h-0.7H40h-1.4l-1.2,3.5c-0.1,0.2-0.1,0.4-0.2,0.6c-0.1-0.2-0.1-0.4-0.2-0.6L35.7,34
		h-1.6l2.3,5.6c0,0.1,0.1,0.2,0.1,0.2s0,0.1-0.1,0.2c-0.2,0.4-0.5,0.8-0.8,1.1c-0.4,0.3-0.7,0.4-0.9,0.5l-0.2,0.1l0.4,1.2h0.2
		c0.2,0,0.8-0.2,1.4-0.7c0.8-0.7,1.3-1.8,2-3.7l1.5-3.9v0.7h0.9v3c0,0.8,0.1,1.3,0.5,1.6c0.3,0.3,0.7,0.5,1.3,0.5
		c0.4,0,0.8-0.1,1-0.2l0.1-0.1l-0.1-1.2L43.5,39c-0.1,0-0.3,0.1-0.6,0.1s-0.6-0.1-0.6-0.9v-2.9h1.5V34h-1.5
		C42.3,34,42.3,32.3,42.3,32.3z"/>
	<path class="st0" d="M47.7,33.8c-0.4,0-0.8,0.1-1.2,0.3c-0.2,0.1-0.3,0.2-0.5,0.4v-3.3h-1.5v8.9H46v-3.7c0-0.2,0-0.3,0.1-0.4
		c0.2-0.5,0.6-0.9,1.2-0.9c0.9,0,1.1,0.8,1.1,1.5v3.5H50v-3.7C50,34.6,48.8,33.8,47.7,33.8z"/>
	<path class="st0" d="M53.9,33.8c-1.8,0-3.1,1.3-3.1,3.3c0,1.9,1.2,3.2,3,3.2c1.5,0,3.1-1,3.1-3.3C56.9,35.2,55.7,33.8,53.9,33.8z
		 M53.9,39.1c-0.9,0-1.6-0.9-1.6-2c0-1,0.5-2.1,1.6-2.1c1.2,0,1.5,1.3,1.5,2C55.5,38.3,54.8,39.1,53.9,39.1z"/>
	<path class="st0" d="M61,33.8c-0.8,0-1.4,0.3-1.8,0.7v-0.6h-1.3v0.2c0,0.5,0,1,0,1.6v4.4h1.5v-3.7c0-0.2,0-0.3,0.1-0.4
		c0.1-0.5,0.6-0.9,1.2-0.9c0.8,0,1.1,0.5,1.1,1.5v3.5h1.5v-3.7C63.2,34.5,62,33.8,61,33.8z"/>
</g>
</svg>
