<?xml version="1.0" encoding="utf-8"?>
<!-- Generator: Adobe Illustrator 21.0.2, SVG Export Plug-In . SVG Version: 6.00 Build 0)  -->
<svg version="1.1" id="Layer_1" xmlns="http://www.w3.org/2000/svg" xmlns:xlink="http://www.w3.org/1999/xlink" x="0px" y="0px"
	 viewBox="0 0 74 74" style="enable-background:new 0 0 74 74;" xml:space="preserve">
<style type="text/css">
	.st0{fill:none;stroke:#006FAF;stroke-width:2;stroke-miterlimit:10;}
	.st1{fill:#006FAF;}
</style>
<title>Cloud &amp;amp; Infrastructure Services</title>
<circle class="st0" cx="37" cy="37" r="36"/>
<g id="g5479" transform="matrix(0.67129599,0,0,0.67129599,358.87299,-136.64755)">
	<path id="path24-3" class="st1" d="M-453.9,256.5h0.2c0.1,0,0.1,0.1,0,0.2c0,0.2-0.1,0.6-0.2,0.8l-0.1,0.1
		c-0.1,0.2-0.2,0.4-0.3,0.6c-0.4,0.4-1.1,0.7-2.2,1.2c-1.6,0.7-4.3,1.2-6.8,1.2c-0.9,0-1.7-0.1-2.5-0.2c-2.3-0.3-4-0.4-4.3,1.6
		c-0.4,2.6,2,5.8,2.1,5.8v0.1h-0.1c0,0-3.9-1.8-4-1.9l-0.1-0.1l-0.1-0.1c-0.3-0.3-0.9-0.9-2.1-2.3c-2.3-2.7-5.1-3.1-7.2-2.5
		c-0.5,0.1-1.2,0.5-1.6,0.9c-1.1,1.1-1,3.3-0.9,4.1c0.1,0.9,0.1,1,0.1,1v0.1h-0.1l0,0l-3.2-1.6l-0.1-0.5c-0.1-0.3-0.2-0.7-0.4-1.2
		c-1.2-3-3.7-5.3-6.6-5.8c-1.9-0.3-5.4-0.4-7.3,3.1c-0.8,1.5-0.7,3.4,0.1,5c0.9,1.6,2.4,2.7,4.3,2.9c1.8,0.2,3.2-0.2,4-1.2
		s0.9-2.4,0.4-3.5c-0.6-1.2-1.5-1.8-2.7-1.9c-0.9-0.1-1.6,0.3-1.9,0.7c-0.1,0.1-0.2,0.4-0.2,0.7l0,0c0,0.9,0.8,1.1,1,1.2
		c0.1,0,0.3,0,0.6-0.1l0.2-0.1h0.1h0.1c0.6-0.1,1.2,0.2,1.3,0.8c0,0.1,0,0.2,0,0.3c0,0.4-0.2,0.7-0.5,1l0,0l0,0h-0.1
		c-0.2,0.1-0.3,0.2-0.5,0.2c-0.5,0.2-0.9,0.2-1.3,0.2c-1.4,0-3.4-1.2-3.4-3.5c0-1.3,0.6-2.5,1.8-3.2c1.3-0.9,3.6-1.2,5.7,0.1
		c2.6,1.6,3.3,4.7,2.6,6.8c-1,3.1-3.8,4.7-7.4,4.4c-2.6-0.2-5-1.6-6.4-3.7c-0.6-0.9-1.1-1.9-1.4-2.9c-0.6-2.3,0-4.8,0.4-5.9
		c1.4-3.5,4.1-6.5,8-8.9l0.2-0.2c8.3-5.1,14.1-4.9,18.4-4.7c5.1,0.2,10.4,1.9,11.2,2.2c0-0.2,0-1.7,0-1.7V246h0.1
		c0.3,0,7.6,1.1,10.7,2.9c0.4,0.2,0.6,0.5,0.8,0.7c0.8,0.9,2,4.5,2.1,5.3v0.1c0,0-0.1,0.1-0.3,0.2c-0.7,0.5-2.4,1.7-4.5,1.5
		c-1.9-0.2-4.4-1.3-7.5-3.3c0.1,0.3,0.8,1.8,0.9,2.1l0,0c0.4,0.2,4.6,2.4,6.7,2.3C-456.4,257.7-454.6,256.9-453.9,256.5
		L-453.9,256.5z M-455.8,252.3c0.1-1.7-1.3-3.2-3-3.2c-0.8,0-1.6,0.3-2.2,0.8c-0.6,0.6-1,1.3-1,2.2c-0.1,1.7,1.3,3.2,3,3.2
		c0.8,0,1.6-0.3,2.2-0.8C-456.2,253.9-455.9,253.1-455.8,252.3L-455.8,252.3z"/>
	<path id="path14-5" class="st1" d="M-458.8,249.9c1.2,0,2.2,1.1,2.1,2.3c0,0.6-0.3,1.1-0.7,1.5c-0.4,0.4-1,0.6-1.6,0.6
		c-1.2,0-2.2-1.1-2.1-2.3c0-0.6,0.3-1.1,0.7-1.5C-459.9,250.1-459.4,249.9-458.8,249.9L-458.8,249.9z M-457.4,251.7
		c0-0.4-0.4-0.7-1-0.7s-1,0.3-1,0.7s0.4,0.7,1,0.7C-457.9,252.3-457.4,252-457.4,251.7z"/>
</g>
</svg>
