<?xml version="1.0" encoding="utf-8"?>
<!-- Generator: Adobe Illustrator 21.0.2, SVG Export Plug-In . SVG Version: 6.00 Build 0)  -->
<svg version="1.1" id="Layer_1" xmlns="http://www.w3.org/2000/svg" xmlns:xlink="http://www.w3.org/1999/xlink" x="0px" y="0px"
	 viewBox="0 0 74 74" style="enable-background:new 0 0 74 74;" xml:space="preserve">
<style type="text/css">
	.st0{fill:#006FAF;}
</style>
<title>health-checks</title>
<path class="st0" d="M37,74C16.6,74,0,57.4,0,37S16.6,0,37,0s37,16.6,37,37S57.4,74,37,74z M37,2C17.7,2,2,17.7,2,37s15.7,35,35,35
	s35-15.7,35-35S56.3,2,37,2z"/>
<g>
</g>
<g>
	<g>
		<g>
			<path class="st0" d="M32.3,41.7c1.2,1.2,2.9,2,4.7,2v-2.8c-1.1,0-2-0.4-2.7-1.1L32.3,41.7z"/>
			<path class="st0" d="M39.5,30.8l-1,2.6c0.8,0.3,1.5,0.9,2,1.7h3C42.9,33.1,41.3,31.5,39.5,30.8z"/>
			<path class="st0" d="M30.4,37c0,0.9,0.2,1.9,0.6,2.7l2.5-1.1c-0.2-0.5-0.3-1-0.3-1.5c0-2.1,1.8-3.9,3.9-3.9v-2.8
				C33.4,30.3,30.4,33.3,30.4,37z"/>
			<path class="st0" d="M38.4,40.6l1,2.6c1.9-0.7,3.4-2.3,4-4.3h-3C40,39.7,39.3,40.3,38.4,40.6z"/>
		</g>
		<g>
			<path class="st0" d="M37.1,44c-3.9,0-7-3.2-7-7s3.2-7,7-7c3.2,0,5.9,2.1,6.7,5.1h2.7c-0.9-4.4-4.8-7.7-9.4-7.7
				c-5.3,0-9.6,4.3-9.6,9.6s4.3,9.6,9.6,9.6c4.7,0,8.6-3.3,9.4-7.6h-2.7C43,41.9,40.3,44,37.1,44z"/>
		</g>
		<g>
			<path class="st0" d="M37.1,27.1L37.1,27.1v-2.6l0,0c-5.3,0-9.9,3.3-11.7,8l2.4,0.9C29.2,29.7,32.9,27.1,37.1,27.1z"/>
			<path class="st0" d="M37.1,46.9v2.6c6.3,0,11.5-4.6,12.4-10.6h-2.7C45.9,43.5,41.9,46.9,37.1,46.9z"/>
			<path class="st0" d="M46.8,35.1h2.6c-0.7-4.4-3.8-8.2-7.9-9.8l-0.9,2.4C43.8,29,46.2,31.7,46.8,35.1z"/>
			<path class="st0" d="M27.1,37L27.1,37h-2.6l0,0c0,5.3,3.3,9.8,7.9,11.7l1-2.4C29.7,44.7,27.1,41.2,27.1,37z"/>
		</g>
		<g>
			<path class="st0" d="M49.8,35.1h2.6c-0.3-2.3-1.1-4.4-2.2-6.3L48,30.2C48.9,31.6,49.5,33.3,49.8,35.1z"/>
			<path class="st0" d="M21.5,37c0.1,3.2,0.7,5.2,1.4,6.7l2.6-1.1c-0.6-1.4-1.2-2.8-1.3-5.6"/>
			<path class="st0" d="M37.1,49.9c-3.6,0-6.8-1.4-9.1-3.8L26.1,48c2.8,2.8,6.7,4.5,11,4.5c7.9,0,14.5-5.9,15.4-13.6h-2.6
				C48.9,45.1,43.5,49.9,37.1,49.9z"/>
			<path class="st0" d="M37.1,24.1c2.9,0,5.5,0.9,7.7,2.6l1.6-2.1c-2.6-2-5.9-3.1-9.3-3.1c-6.6,0-12.2,4.1-14.5,9.9l2.5,1
				C26.9,27.5,31.6,24.1,37.1,24.1z"/>
		</g>
	</g>
</g>
</svg>
