<?xml version="1.0" encoding="utf-8"?>
<!-- Generator: Adobe Illustrator 21.0.2, SVG Export Plug-In . SVG Version: 6.00 Build 0)  -->
<svg version="1.1" id="Layer_1" xmlns="http://www.w3.org/2000/svg" xmlns:xlink="http://www.w3.org/1999/xlink" x="0px" y="0px"
	 viewBox="0 0 74 74" style="enable-background:new 0 0 74 74;" xml:space="preserve">
<style type="text/css">
	.st0{fill:none;stroke:#006FAF;stroke-width:2;stroke-miterlimit:10;}
	.st1{fill:#006FAF;}
</style>
<title>os-patch-management</title>
<g>
	<circle class="st0" cx="37" cy="37" r="36"/>
	<path class="st1" d="M54.6,33.4c-0.2-1.2-0.6-2.3-1-3.4c-0.7-1.6-1.5-3-2.6-4.3c-1.2-1.5-2.5-2.7-4.1-3.7c-1.6-1.1-3.4-1.9-5.3-2.4
		C40.4,19.3,39.2,19,38,19c-0.1,0-0.2,0-0.3,0c-0.5,0-0.9,0-1.4,0c-0.1,0-0.2,0-0.4,0c-1,0-2,0.1-2.9,0.4c-1.5,0.3-2.9,0.9-4.3,1.6
		c-2,1.1-3.8,2.5-5.3,4.2c-0.9,1-1.6,2.1-2.3,3.3c-0.6,1.1-1,2.2-1.4,3.4c-0.4,1.3-0.7,2.6-0.6,4c0,0.1,0,0.3,0,0.4
		c0,0.5,0,0.9,0,1.4c0,0.1,0,0.2,0,0.3c0,1.1,0.2,2.1,0.4,3.1c0.4,1.9,1.2,3.6,2.1,5.2c1.1,1.8,2.5,3.4,4.2,4.7
		c1.1,0.9,2.2,1.6,3.4,2.2c2.2,1.1,4.5,1.6,7,1.8c1.2,0.1,2.4,0,3.7-0.2c1.4-0.2,2.8-0.6,4.1-1.2c1.1-0.5,2.2-1,3.2-1.7
		c1.2-0.8,2.2-1.7,3.2-2.8c0.6-0.7,1.2-1.5,1.8-2.3c0.8-1.2,1.4-2.4,1.8-3.7c0.6-1.7,1-3.5,1.1-5.4C55.1,36.3,54.9,34.8,54.6,33.4z
		 M50.2,46.4c-0.3,0.4-0.6,0.8-0.9,1.2c-0.3,0.3-0.6,0.7-0.9,1c-0.5,0.5-1.1,1-1.7,1.4c-0.4,0.3-0.8,0.5-1.2,0.8
		c-0.7,0.4-1.4,0.8-2.1,1.1c-0.6,0.3-1.3,0.5-1.9,0.7c-0.6,0.2-1.2,0.3-1.7,0.4c-0.6,0.1-1.2,0.2-1.9,0.2c-0.3,0-0.6,0-0.9,0
		c-0.6,0-1.2,0-1.8-0.1c-0.7-0.1-1.5-0.2-2.2-0.4c-0.8-0.2-1.6-0.5-2.4-0.8c-0.7-0.3-1.4-0.7-2.1-1.1c-0.6-0.4-1.2-0.8-1.8-1.3
		c-0.6-0.5-1.2-1.1-1.8-1.7c-0.4-0.4-0.8-0.9-1.1-1.4c-0.4-0.5-0.7-1-1-1.5c-0.3-0.6-0.6-1.1-0.8-1.7c-0.2-0.5-0.3-0.9-0.5-1.4
		c-0.1-0.4-0.2-0.8-0.3-1.2c-0.1-0.4-0.2-0.8-0.2-1.3c-0.2-1-0.2-2-0.2-3c0-0.6,0.1-1.2,0.3-1.9c0.3-0.8,0.6-1.5,1.1-2.2
		c0.5-0.8,1.1-1.4,1.9-1.9c0.7-0.5,1.5-0.9,2.3-1.1c0.5-0.1,0.9-0.2,1.4-0.2c0.3,0,0.6,0,0.9,0c0.5,0,0.9,0.1,1.4,0.2h0.1
		c0,0,0,0.1-0.1,0.1c-0.9,0.8-1.6,1.7-2.2,2.7c-0.4,0.7-0.7,1.4-0.9,2.2c-0.2,0.6-0.3,1.2-0.3,1.8c0,0.4-0.1,0.7-0.1,1.1
		c0,0.5,0.1,0.9,0.1,1.4c0.1,0.4,0.1,0.8,0.2,1.1c0.1,0.5,0.3,0.9,0.5,1.3c0.3,0.8,0.8,1.5,1.3,2.2s1.1,1.3,1.8,1.9
		c0.6,0.4,1.2,0.8,1.8,1.1c0.7,0.3,1.4,0.6,2.1,0.8c0.5,0.1,1.1,0.2,1.6,0.3c0.5,0,1,0,1.5,0c0.8,0,1.6-0.2,2.4-0.4
		c0.5-0.1,0.9-0.3,1.3-0.5c0.3-0.2,0.5,0,0.8,0.1c0.4,0.1,0.8,0.2,1.1,0.2c0.3,0.1,0.6,0.1,0.8,0.1c0.3,0.1,0.7,0.1,1,0.1
		c0.5,0,1,0,1.4,0c0.5,0,1-0.1,1.5-0.1c0.4-0.1,0.9-0.1,1.3-0.2C49.6,46.4,49.9,46.4,50.2,46.4C50.2,46.3,50.2,46.3,50.2,46.4
		C50.2,46.3,50.2,46.4,50.2,46.4z M39,40.4c-0.4-0.8-0.7-1.6-1-2.4c-0.2-0.6-0.4-1.2-0.6-1.8c-0.2-0.9-0.5-1.7-0.8-2.6
		c-0.3-0.9-0.6-1.7-1-2.5s-0.8-1.5-1.4-2.1c-0.1-0.1,0-0.1,0-0.2c0.5-0.1,1-0.3,1.5-0.3c0.3,0,0.7-0.1,0.9-0.1
		c1.3,0,2.4,0.2,3.4,0.7c0.9,0.4,1.6,0.8,2.3,1.5c0.9,0.8,1.7,1.8,2.2,2.9c0.3,0.6,0.5,1.1,0.6,1.7c0.1,0.3,0.1,0.5,0.1,0.8
		c0.1,0.4,0.1,0.7,0.1,1.1c0,0.5,0,0.9-0.1,1.4c-0.1,0.8-0.4,1.6-0.8,2.4c-0.3,0.7-0.8,1.3-1.2,1.9c-0.4,0.4-0.8,0.8-1.3,1.2
		c-0.2,0.1-0.3,0-0.4-0.1c-0.6-0.2-1-0.6-1.3-1.1C39.8,42,39.4,41.2,39,40.4z M39.5,45.2c-0.4,0.1-0.7,0.2-1.1,0.2
		c-0.6,0.1-1.2,0.2-1.9,0.1c-0.8-0.1-1.7-0.2-2.4-0.5C34,45,34,45,34,45c0-0.5,0-1,0-1.4c0-0.5,0.2-0.9,0.3-1.4
		c0.2-0.7,0.5-1.3,0.7-2c0.4-0.9,0.8-1.8,1.2-2.7c0,0,0-0.1,0.1-0.1c0.1,0.3,0.2,0.6,0.3,0.9c0.2,0.7,0.4,1.3,0.6,2
		c0.2,0.6,0.4,1.1,0.6,1.7c0.3,0.9,0.8,1.8,1.4,2.6c0.1,0.2,0.3,0.3,0.4,0.5C39.7,45.1,39.7,45.2,39.5,45.2z M35.1,33.9
		c0.2,0.5,0.4,1.1,0.7,1.6v0.1c-0.1,0.1-0.1,0.3-0.2,0.5c-0.4,0.7-0.7,1.5-1.1,2.2c-0.5,0.9-1,1.8-1.4,2.7c-0.3,0.7-0.7,1.4-0.9,2.2
		c0,0.2-0.1,0.4-0.2,0.5c0,0.1-0.1,0.1-0.2,0c-0.5-0.4-1-0.9-1.5-1.4c-0.4-0.5-0.7-1-1-1.5s-0.5-1-0.6-1.5s-0.2-0.9-0.3-1.4
		c-0.1-0.4,0-0.9,0-1.4s0.1-1,0.2-1.5c0.2-0.9,0.5-1.7,0.9-2.4c0.3-0.5,0.7-1,1.1-1.5s0.9-0.9,1.4-1.3c0.1-0.1,0.1-0.1,0.2,0
		c0.5,0.3,1,0.7,1.4,1.1c0.3,0.3,0.5,0.6,0.7,1C34.5,32.7,34.8,33.3,35.1,33.9z M53.2,37.3c-0.1,0.7,0,1.4-0.2,2.1
		c-0.3,0.9-0.6,1.7-1.2,2.4c-0.4,0.5-0.9,1-1.5,1.4c-0.5,0.3-1.1,0.6-1.7,0.8c-0.5,0.2-1,0.3-1.5,0.3c-0.7,0.1-1.5,0.1-2.2,0.1
		c-0.2,0-0.5-0.1-0.7-0.1c0.1-0.2,0.3-0.3,0.4-0.5c0.6-0.6,1-1.3,1.4-2c0.2-0.4,0.4-0.9,0.6-1.3c0.2-0.5,0.3-1,0.4-1.5
		c0.2-0.8,0.2-1.7,0.2-2.6c0-0.5-0.1-1-0.2-1.5c-0.1-0.6-0.3-1.1-0.5-1.7c-0.2-0.6-0.5-1.1-0.8-1.7c-0.5-0.8-1.1-1.5-1.7-2.1
		c-0.6-0.6-1.4-1.1-2.1-1.6c-0.4-0.2-0.9-0.4-1.3-0.6c-0.6-0.2-1.2-0.4-1.8-0.5c-0.7-0.1-1.3-0.2-2-0.2s-1.4,0.1-2.1,0.3
		c-0.6,0.1-1.2,0.3-1.8,0.6c-0.1,0-0.1,0-0.2,0c-0.6-0.4-1.2-0.6-1.8-0.8c-0.6-0.2-1.2-0.3-1.8-0.4c-0.3,0-0.6-0.1-0.9-0.1
		c-0.5,0-0.9,0.1-1.4,0.1c-0.7,0.1-1.4,0.4-2.1,0.7c-0.3,0.1-0.6,0.3-0.9,0.5c0.1-0.2,0.2-0.4,0.4-0.5c0.6-0.7,1.2-1.4,1.9-2
		c0.9-0.8,1.8-1.5,2.8-2.1c0.6-0.4,1.3-0.7,2-1s1.5-0.6,2.3-0.7c0.5-0.1,1.1-0.2,1.7-0.3c1.1-0.2,2.2-0.2,3.2-0.1
		c0.4,0,0.8,0.1,1.2,0.1c0.3,0.1,0.6,0.1,0.9,0.1c0.3,0,0.5,0.1,0.8,0.2c0.7,0.2,1.3,0.4,2,0.6c0.6,0.2,1.1,0.5,1.6,0.7
		c0.8,0.4,1.5,0.9,2.2,1.4c0.4,0.3,0.7,0.6,1,0.8c0.4,0.3,0.7,0.6,1,1c0.5,0.6,1,1.2,1.5,1.8c0.5,0.7,1,1.5,1.4,2.3
		c0.3,0.5,0.5,1.1,0.7,1.6s0.3,1.1,0.5,1.6c0.1,0.4,0.2,0.8,0.2,1.2c0.1,0.7,0.2,1.5,0.2,2.2C53.2,36.8,53.3,37,53.2,37.3z"/>
</g>
</svg>
