<?xml version="1.0" encoding="utf-8"?>
<!-- Generator: Adobe Illustrator 21.0.2, SVG Export Plug-In . SVG Version: 6.00 Build 0)  -->
<svg version="1.1" id="Layer_1" xmlns="http://www.w3.org/2000/svg" xmlns:xlink="http://www.w3.org/1999/xlink" x="0px" y="0px"
	 viewBox="0 0 74 74" style="enable-background:new 0 0 74 74;" xml:space="preserve">
<style type="text/css">
	.st0{fill:none;stroke:#006FAF;stroke-width:2;stroke-miterlimit:10;}
	.st1{fill:#006FAF;}
</style>
<circle class="st0" cx="37" cy="37" r="36"/>
<g>
	<g id="Icons_new_Arranged_Names">
		<g id="_x32_7_Cloud">
			<path id="Rectangle_1_copy_2" class="st1" d="M22.8,41.1c0-2.1,1.2-4,2.9-5c0.1-4.7,4-8.5,8.7-8.5c3.1,0,5.9,1.7,7.4,4.1
				c0.6-0.2,1.2-0.3,1.8-0.3c2.7,0,5,1.7,5.9,4.1c2.5,0.7,4.3,2.9,4.3,5.6c0,3.2-2.6,5.8-5.8,5.8H28.6
				C25.4,46.9,22.8,44.3,22.8,41.1z M47.9,37.2c-0.2-2.2-2.1-3.9-4.3-3.9c-1,0-2,0.4-2.7,0.9c-0.8-2.8-3.4-4.8-6.5-4.8
				c-3.7,0-6.8,3-6.8,6.8c0,0.4,0,0.7,0.1,1.1c-1.7,0.4-3,1.9-3,3.8c0,2.1,1.7,3.9,3.9,3.9H48c2.1,0,3.9-1.7,3.9-3.9
				C51.8,38.9,50.1,37.2,47.9,37.2L47.9,37.2z"/>
		</g>
	</g>
	<rect x="21.5" y="28.2" class="st1" width="1.8" height="1.8"/>
	<rect x="19.3" y="30.4" class="st1" width="1.8" height="1.8"/>
	<rect x="19.3" y="37.2" class="st1" width="1.8" height="1.8"/>
	<rect x="17" y="41.8" class="st1" width="1.8" height="1.8"/>
	<rect x="21.5" y="44.1" class="st1" width="1.8" height="1.8"/>
	<rect x="26" y="46.3" class="st1" width="1.8" height="1.8"/>
	<rect x="32.7" y="46.1" class="st1" width="1.8" height="1.8"/>
	<rect x="21.7" y="39.6" class="st1" width="1.8" height="1.8"/>
	<rect x="21.5" y="35.2" class="st1" width="1.8" height="1.8"/>
	<rect x="24" y="39.4" class="st1" width="1.8" height="1.8"/>
	<rect x="26" y="39.4" class="st1" width="1.8" height="1.8"/>
	<rect x="26" y="44.1" class="st1" width="1.8" height="1.8"/>
	<rect x="23.8" y="41.7" class="st1" width="1.8" height="1.8"/>
	<rect x="28.2" y="39.4" class="st1" width="1.8" height="1.8"/>
	<rect x="28.2" y="37.2" class="st1" width="1.8" height="1.8"/>
	<rect x="24" y="32.8" class="st1" width="1.8" height="1.8"/>
	<rect x="30.5" y="35" class="st1" width="1.8" height="1.8"/>
	<rect x="30.5" y="37.2" class="st1" width="1.8" height="1.8"/>
	<rect x="30.6" y="39.4" class="st1" width="1.8" height="1.8"/>
	<rect x="30.7" y="41.7" class="st1" width="1.8" height="1.8"/>
	<rect x="28.4" y="44.1" class="st1" width="3.8" height="1.8"/>
	<rect x="32.7" y="41.7" class="st1" width="1.8" height="1.8"/>
	<rect x="32.7" y="37.2" class="st1" width="1.8" height="4"/>
	<rect x="35.1" y="39.6" class="st1" width="1.8" height="1.8"/>
	<rect x="37.3" y="39.6" class="st1" width="1.8" height="1.8"/>
	<rect x="39.5" y="39.6" class="st1" width="1.8" height="1.8"/>
	<rect x="41.7" y="39.6" class="st1" width="1.8" height="1.8"/>
	<rect x="37.3" y="41.8" class="st1" width="1.8" height="1.8"/>
	<rect x="39.5" y="41.8" class="st1" width="1.8" height="1.8"/>
	<rect x="41.7" y="41.7" class="st1" width="1.8" height="1.8"/>
	<rect x="46.2" y="41.7" class="st1" width="1.8" height="1.8"/>
	<rect x="48.6" y="44.1" class="st1" width="1.8" height="1.8"/>
	<rect x="48.5" y="39.6" class="st1" width="1.8" height="1.8"/>
	<rect x="48.5" y="37.2" class="st1" width="1.8" height="1.8"/>
	<rect x="37.3" y="35" class="st1" width="1.8" height="1.8"/>
	<rect x="39.5" y="35.1" class="st1" width="1.8" height="1.8"/>
	<rect x="41.7" y="35" class="st1" width="1.8" height="1.8"/>
	<rect x="46.2" y="28.2" class="st1" width="1.9" height="4"/>
	<rect x="43.9" y="35" class="st1" width="1.8" height="1.8"/>
	<rect x="44" y="28.2" class="st1" width="2.7" height="1.8"/>
	<rect x="50.7" y="32.8" class="st1" width="1.8" height="1.8"/>
	<rect x="50.7" y="28.2" class="st1" width="1.8" height="1.8"/>
	<rect x="48.6" y="25.9" class="st1" width="1.8" height="1.8"/>
	<rect x="50.9" y="35" class="st1" width="1.8" height="1.8"/>
	<rect x="52.9" y="32.8" class="st1" width="1.8" height="1.8"/>
	<rect x="53.2" y="37.2" class="st1" width="1.8" height="1.8"/>
	<rect x="55.2" y="39.6" class="st1" width="1.8" height="1.8"/>
	<rect x="53.2" y="46.3" class="st1" width="1.8" height="1.8"/>
	<rect x="46.4" y="35" class="st1" width="1.8" height="1.8"/>
	<rect x="41.7" y="37.2" class="st1" width="1.8" height="1.8"/>
	<rect x="44" y="37.2" class="st1" width="4.1" height="4.1"/>
	<rect x="34.5" y="37.2" class="st1" width="2.4" height="1.8"/>
	<rect x="37.2" y="37.2" class="st1" width="4.1" height="1.8"/>
	<rect x="35.1" y="35" class="st1" width="1.8" height="1.8"/>
	<rect x="35.1" y="32.8" class="st1" width="1.8" height="1.8"/>
	<rect x="37.4" y="30.6" class="st1" width="1.8" height="1.8"/>
	<rect x="32.9" y="32.8" class="st1" width="1.8" height="1.8"/>
	<rect x="35.1" y="44.1" class="st1" width="1.8" height="1.8"/>
	<rect x="27.8" y="32.6" class="st1" width="1.8" height="1.8"/>
	<rect x="27.3" y="35" class="st1" width="1.8" height="1.8"/>
	<rect x="24" y="35" class="st1" width="1.8" height="2.7"/>
</g>
</svg>
