<?xml version="1.0" encoding="utf-8"?>
<!-- Generator: Adobe Illustrator 21.0.2, SVG Export Plug-In . SVG Version: 6.00 Build 0)  -->
<svg version="1.1" id="Layer_1" xmlns="http://www.w3.org/2000/svg" xmlns:xlink="http://www.w3.org/1999/xlink" x="0px" y="0px"
	 viewBox="0 0 74 74" style="enable-background:new 0 0 74 74;" xml:space="preserve">
<style type="text/css">
	.st0{fill:none;stroke:#006FAF;stroke-width:2;stroke-miterlimit:10;}
	.st1{fill:#006FAF;}
</style>
<title>python</title>
<g id="Layer_5">
</g>
<circle class="st0" cx="37" cy="37" r="36"/>
<g>
	<path class="st1" d="M53,50.4c-0.7-7-3-14.8-7.8-21.5c-2.7-3.7-5.9-6.9-10-8.9c-2-1-4.4-1.8-6.2-0.3c-2,1.7-3.2,1-4.6-0.4
		c-0.6-0.6-1.1-0.5-1.6,0.1c-1.1,1.4-1.2,1.3,0.2,2.4c0.3,0.2,0.5,0.4,0.8,0.6c0.5,0.6,0.8,1-0.2,1.6c-1.6,1-2.4,2.5-2.4,4.5
		c0,3.2,1.3,5.9,2.9,8.6C30,46.7,39,51.9,49.5,54.9C52.6,55.7,53,55.3,53,50.4z M46.6,49.6c-8.3-2.6-15.3-6.9-19.5-14.9
		c-0.8-1.5-1.3-3.1-1.3-4.9c0-4,3.7-6.8,7.6-5.9c3.4,0.8,5.8,3.1,8,5.6c4.4,5.2,6.4,11.5,7.2,17.3C48.5,49.6,48.2,50.1,46.6,49.6z"
		/>
	<path class="st1" d="M34.6,32.2c0.1,0.4,0.3,0.6,0.8,0.4c1.2-0.5,2.7-2.8,2.6-4.1c-0.1-0.8-0.5-1.4-1.3-1.7c-0.8-0.2-1.4,0-1.9,0.6
		C34.3,28.2,34.2,29,34,30C34.2,30.6,34.4,31.4,34.6,32.2z"/>
	<path class="st1" d="M36.3,36.1c-0.2-0.9-1.5-0.6-2.3-0.7c-1,0-1.9,0.2-2.7,0.7c-0.7,0.5-1.1,1.2-0.8,2.1c0.3,0.9,1.1,1.2,2,1.1
		c0.8-0.1,1.5-0.6,2.1-1C35.5,37.8,36.5,37,36.3,36.1z"/>
	<path class="st1" d="M37.7,35.4c1.6-0.4,2.8-1.4,3.4-2.9c0.3-0.8,0.2-1.7-0.7-2.2s-1.6-0.3-2.3,0.4c-0.9,0.9-1.2,2.1-1.2,3.4
		C37.1,34.4,36.3,35.7,37.7,35.4z"/>
	<path class="st1" d="M33.9,33.3c-0.2-1.1-1.9-1.2-3.1-1.4c-0.4,0-0.8,0-1.2,0.1c-1,0.3-1.8,0.8-1.7,2.1c0.2,1.2,1,1.5,2.1,1.5
		c0.4,0,0.9-0.1,1.2-0.2C32.4,35,34.1,34.5,33.9,33.3z"/>
	<path class="st1" d="M39.1,37.4C39,38,39.3,38.1,39.9,38c1.4-0.2,2.7-0.7,3.5-2c0.4-0.7,0.5-1.4-0.1-2.1c-0.6-0.6-1.3-0.6-2-0.2
		C39.9,34.6,39.3,35.9,39.1,37.4z"/>
	<path class="st1" d="M38.3,39.7c0.4-1,0.4-1.5-0.6-1.4c-1.5,0.1-2.6,0.3-3.5,1.2c-0.7,0.7-1,1.5-0.3,2.4c0.7,0.8,1.6,0.7,2.3,0.2
		C37,41.4,37.8,40.8,38.3,39.7z"/>
	<path class="st1" d="M31.7,30.5c0.1-0.9-1.2-1.4-2.2-1.7c-0.5-0.2-1.1-0.2-1.7,0C27.3,29,27,29.4,27,29.9c-0.1,0.6,0.1,1,0.6,1.3
		s1,0.3,1.6,0.4C30.1,31.4,31.5,31.6,31.7,30.5z"/>
	<path class="st1" d="M32.6,29.9c0.6,0,1.5-1.8,1.5-3c0-0.9-0.1-1.7-1.2-1.8c-1.2-0.1-1.5,0.8-1.6,1.7
		C31.1,27.9,32.1,29.9,32.6,29.9z"/>
	<path class="st1" d="M41.4,39c-0.2,0.3-0.6,0.7-0.3,1.1c0.3,0.4,0.8,0.2,1.2,0.3c0.9,0,1.8-0.2,2.5-0.8c0.6-0.5,0.8-1,0.4-1.7
		c-0.4-0.7-1-0.8-1.7-0.6C42.5,37.5,41.9,38.2,41.4,39z"/>
	<path class="st1" d="M40,40.7c-1.1-0.1-3,1.3-3.1,2.4c-0.1,0.8,0.3,1.4,1.1,1.5c1.1,0.2,2.4-1.4,2.6-3.1
		C40.4,41.2,40.7,40.7,40,40.7z"/>
	<path class="st1" d="M42.6,41.9c0.4,0.7,1.2,0.7,1.9,0.8c0.8-0.1,1.5-0.2,1.5-1.2c0-0.8-0.6-1-1.2-1C43.9,40.5,42.3,41.5,42.6,41.9
		z"/>
	<path class="st1" d="M41.6,42.5c-0.6,0-1.6,1.5-1.7,2.3c0,0.7,0.3,1.1,1,1.1c1.2,0,1.2-1,1.3-1.7C42.2,43.2,42,42.5,41.6,42.5z"/>
	<path class="st1" d="M43.6,43.3c-0.6-0.1-0.5,0.4-0.5,0.7c0,1.1,0.9,2.3,1.6,2.3c0.7,0,1-0.4,1-1.1C45.6,44.5,44.5,43.4,43.6,43.3z
		"/>
</g>
</svg>
