<?xml version="1.0" encoding="utf-8"?>
<!-- Generator: Adobe Illustrator 21.0.2, SVG Export Plug-In . SVG Version: 6.00 Build 0)  -->
<svg version="1.1" id="Layer_1" xmlns="http://www.w3.org/2000/svg" xmlns:xlink="http://www.w3.org/1999/xlink" x="0px" y="0px"
	 viewBox="0 0 74 74" style="enable-background:new 0 0 74 74;" xml:space="preserve">
<style type="text/css">
	.st0{fill:none;stroke:#006FAF;stroke-width:2;stroke-miterlimit:10;}
	.st1{fill:#006FAF;}
</style>
<title>Cloud &amp;amp; Infrastructure Services</title>
<circle class="st0" cx="37" cy="37" r="36"/>
<g id="Codeigniter">
	<g id="_Group_">
		<path class="st1" d="M40.3,53.1c-0.4,0-0.8-0.2-0.9-0.6c-0.2-0.4-0.1-0.9,0.3-1.2c2.6-1.9,3.5-2.8,3.5-5.8c0-2.3-3.9-4.8-6-6.1
			c-0.6-0.4-1.1-0.7-1.5-1s-0.7-0.6-0.9-0.9c-0.1,0.3-0.1,0.5-0.1,0.8c0,0.6,0.6,1.2,1.1,1.8c0.7,0.7,1.5,1.6,1.5,2.8
			c0,2.4-1.5,3.6-3,3.6c-0.5,0-2-0.1-2.9-1.4c-0.2-0.3-0.3-0.6-0.4-0.9c-0.5,0.8-0.9,1.7-1,2.6c0,0.9,0.3,2,3,4.5
			c0.3,0.3,0.4,0.8,0.2,1.2s-0.7,0.6-1.1,0.5c-5.6-1.3-8.7-5.1-8.7-10.8c0-2.3,0.8-5.9,4.9-9.9c0.9-0.9,1.7-1.6,2.6-2.4
			c2.8-2.4,5.1-4.4,4.4-7.9c-0.1-0.4,0.1-0.9,0.5-1.1s0.9-0.1,1.2,0.1c3.1,2.9,3.6,4.4,3.6,7.3c0,1.4-0.2,2-0.4,2.6
			c-0.2,0.5-0.3,0.9-0.3,2c0,0.5,0.5,1,1,1l0.2,1l-0.1-1c0.2,0,0.5-0.1,0.6-0.3c0.2-0.2,0.2-0.4,0.2-0.6c0-0.4,0.2-0.7,0.5-0.9
			s0.7-0.2,1,0c2.1,1.4,7,4.5,7,10.1c0,5.4-5.1,9.8-10,10.8C40.4,53.1,40.4,53.1,40.3,53.1z M37.4,24.5c-0.5,3.1-2.8,5.1-5.1,7.1
			c-0.8,0.7-1.7,1.4-2.5,2.2c-2.8,2.8-4.3,5.8-4.3,8.5c0,3.3,1.1,5.8,3.3,7.3c-0.5-0.9-0.7-1.8-0.7-2.7v-0.1c0.3-2.4,1.7-4.6,3.7-6
			c0.4-0.2,0.8-0.2,1.2,0.1c0.3,0.3,0.5,0.7,0.3,1.1c-0.4,1-0.4,1.7-0.2,2.1c0.2,0.4,0.8,0.5,1.2,0.5c0.6,0,1-0.7,1-1.6
			c0-0.4-0.5-0.9-1-1.4c-0.7-0.8-1.7-1.8-1.7-3.2c0-1.5,0.6-2.9,1.6-4c0.3-0.3,0.8-0.4,1.2-0.2s0.6,0.7,0.4,1.2l0,0
			c0,0-0.1,0.7,1,1.5c0.3,0.2,0.8,0.5,1.4,0.9c2.8,1.8,6.9,4.4,6.9,7.8c0,1.4-0.2,2.5-0.6,3.5c2.2-1.7,3.9-4.1,3.9-6.8
			c0-3.7-2.9-6.2-5-7.6c-0.1,0.2-0.2,0.3-0.3,0.4c-0.5,0.6-1.2,0.9-2,0.9c-0.1,0-0.2,0-0.3,0c-1.5,0-2.8-1.3-2.8-2.9
			c0-1.4,0.2-2.1,0.4-2.6s0.3-0.9,0.3-2C38.6,26.9,38.6,25.9,37.4,24.5z"/>
	</g>
</g>
</svg>
