<?xml version="1.0" encoding="utf-8"?>
<!-- Generator: Adobe Illustrator 21.0.2, SVG Export Plug-In . SVG Version: 6.00 Build 0)  -->
<svg version="1.1" id="Layer_1" xmlns="http://www.w3.org/2000/svg" xmlns:xlink="http://www.w3.org/1999/xlink" x="0px" y="0px"
	 viewBox="0 0 74 74" style="enable-background:new 0 0 74 74;" xml:space="preserve">
<style type="text/css">
	.st0{fill:none;stroke:#006FAF;stroke-width:2;stroke-miterlimit:10;}
	.st1{fill:none;}
	.st2{fill-rule:evenodd;clip-rule:evenodd;fill:none;stroke:#006FAF;stroke-width:2;stroke-miterlimit:10;}
	.st3{fill:#FFFFFF;}
	.st4{fill:#006FAF;}
	.st5{fill-rule:evenodd;clip-rule:evenodd;fill:none;stroke:#006699;stroke-width:2;stroke-miterlimit:10;}
	.st6{fill:#006FAF;stroke:#006FAF;stroke-width:0.5;stroke-miterlimit:10;}
	.st7{fill:none;stroke:#006FAF;stroke-width:1.75;stroke-miterlimit:10;}
	.st8{fill:none;stroke:#006FAF;stroke-width:1.5;stroke-miterlimit:10;}
	.st9{fill:#006FAF;stroke:#006FAF;stroke-width:2;stroke-miterlimit:10;}
	.st10{fill:#006FAF;stroke:#006FAF;stroke-miterlimit:10;}
	.st11{fill:none;stroke:#006FAF;stroke-width:2;stroke-linecap:round;stroke-miterlimit:10;}
	.st12{fill:none;stroke:#006FAF;stroke-width:2;stroke-linejoin:round;stroke-miterlimit:10;}
</style>
<circle class="st2" cx="37" cy="37" r="36"/>
<g>
	<g>
		<path class="st0" d="M45.4,52h5.5c4.8,0,8-3.2,8-7.1v-0.4c0.1-3.7-2.8-6.8-6.4-7.1v-0.9c0-8-6.6-14.5-14.5-14.5h-0.1
			c-6.8,0-12.8,4.7-14.2,11.4c-4.7,0.3-8.5,4.3-8.5,9.2v0.3c0,5.1,4.1,9.2,9.2,9.2h21.7"/>
	</g>
	<path class="st0" d="M31.8,40.1h4.3v-5.4l4.2,6l0.5-2.7l5.3,0.5c0,0-0.3-9.1-8.9-9.1c-6.1,0-9.3,3.7-9.3,10.1
		c0.1,2.8,1.3,5.4,2.8,6.7c2.6,2.2,6.3,2.6,9.4,1.2l1.5-1.2l4.1,2"/>
</g>
</svg>
