<?xml version="1.0" encoding="utf-8"?>
<!-- Generator: Adobe Illustrator 21.0.0, SVG Export Plug-In . SVG Version: 6.00 Build 0)  -->
<svg version="1.1" id="Layer_1" xmlns="http://www.w3.org/2000/svg" xmlns:xlink="http://www.w3.org/1999/xlink" x="0px" y="0px"
	 viewBox="0 0 74 74" style="enable-background:new 0 0 74 74;" xml:space="preserve">
<style type="text/css">
	.st0{fill:none;stroke:#006FAF;stroke-width:2;stroke-miterlimit:10;}
	.st1{fill:#006FAF;stroke:#006FAF;stroke-width:0.25;stroke-miterlimit:10;}
</style>
<title>Azure_Site_Recovery</title>
<circle class="st0" cx="37" cy="37" r="36"/>
<g>
	<path class="st1" d="M56.7,50.8c-2-1.8-4-3.6-5.9-5.5c0.5-0.7,1-1.6,1.2-2.4c0.4-1.6,0.3-3.1-0.1-4.5V22.7c0-0.3-0.1-0.6-0.4-0.8
		c-0.2-0.2-0.6-0.2-0.9-0.1l-3.2,1.2v-2.5c0-0.3-0.1-0.6-0.4-0.8c-0.2-0.2-0.6-0.2-0.9-0.1L43,20.8v-2.5c0-0.3-0.1-0.6-0.4-0.8
		c-0.2-0.2-0.6-0.2-0.9-0.1l-23.8,8.9c-0.5,0.2-1,0.8-1,1.4v23.2c0,0.2,0.1,0.3,0.3,0.4c0,0,0.1,0,0.2,0c0.1,0,0.2-0.1,0.3-0.2
		l3.6-4.1V53c0,0.2,0.1,0.3,0.3,0.4c0,0,0.1,0,0.2,0c0.1,0,0.2-0.1,0.3-0.2l3.7-4.3v6.3c0,0.2,0.1,0.3,0.3,0.4c0,0,0.1,0,0.2,0
		c0.1,0,0.2-0.1,0.3-0.2l6.4-7.4l6-2.2c0.9,1.1,2.2,1.9,3.6,2.3c2.6,0.8,5.2,0,7.1-1.7c2,1.8,3.9,3.6,5.9,5.4
		C56.3,52.7,57.5,51.5,56.7,50.8z M21.3,29.9v15.7l-3.5,4v-22c0-0.2,0.2-0.5,0.4-0.6l23.8-8.9c0,0,0.1,0,0.1,0c0,0,0,0,0,0.1v2.8
		l-11.9,4.4l-8,3C21.7,28.7,21.3,29.3,21.3,29.9z M25.8,32.1v15.5l-3.6,4.2v-6.1V29.9c0-0.1,0-0.1,0-0.2c0.1-0.2,0.2-0.3,0.4-0.4
		l23.8-8.9c0,0,0.1,0,0.1,0c0,0,0,0,0,0.1v2.9l-19.7,7.3C26.2,30.9,25.8,31.5,25.8,32.1z M32.5,47.4c-0.1,0-0.1,0.1-0.2,0.1
		l-5.7,6.6v-6.3V32.1c0-0.2,0.2-0.5,0.4-0.6l23.8-8.9c0,0,0.1,0,0.1,0c0,0,0,0,0,0.1v13.8c-1-1.5-2.4-2.6-4.3-3.2
		c-4.1-1.3-8.3,1.4-9.5,5.4c-0.7,2.3-0.2,4.7,1.1,6.5L32.5,47.4z M38.8,39.1c0.8-3.2,4.3-5,7.5-4.2c2.6,0.7,4.2,3.1,4.3,5.7l-10.7,4
		C38.8,43.1,38.3,41,38.8,39.1z M50.4,42.4c-1,3.2-4.2,5-7.5,4.2c-0.9-0.2-1.7-0.7-2.4-1.3l10-3.7C50.5,41.9,50.5,42.1,50.4,42.4z"
		/>
</g>
</svg>
