<?xml version="1.0" encoding="utf-8"?>
<!-- Generator: Adobe Illustrator 21.0.2, SVG Export Plug-In . SVG Version: 6.00 Build 0)  -->
<svg version="1.1" id="Layer_1" xmlns="http://www.w3.org/2000/svg" xmlns:xlink="http://www.w3.org/1999/xlink" x="0px" y="0px"
	 viewBox="0 0 75 75" style="enable-background:new 0 0 75 75;" xml:space="preserve">
<style type="text/css">
	.st0{fill:none;stroke:#006FAF;stroke-width:2;stroke-miterlimit:10;}
	.st1{fill:none;}
	.st2{fill:#814A98;}
	.st3{fill:#006FAF;}
</style>
<circle class="st0" cx="37.5" cy="37.5" r="36"/>
<path class="st1" d="M-3.7,12.8"/>
<path class="st2" d="M-3.7,12.8"/>
<g id="Layer_1_1_">
	<ellipse class="st3" cx="26.1" cy="23.5" rx="2.6" ry="3.2"/>
	<ellipse class="st3" cx="50.3" cy="46.9" rx="2.8" ry="3"/>
	<path class="st3" d="M53.1,49.5c-0.7,0.9-1.7,1.4-2.8,1.4c-1.1,0-2.1-0.6-2.8-1.4c-2.6,0.6-2.3,3.3-2.2,5.4c0,0.4,0.4,0.8,0.8,0.8
		h8.6c0.4,0,0.7-0.3,0.8-0.8C55.5,52.8,55.8,50.1,53.1,49.5z"/>
	<ellipse class="st3" cx="37.9" cy="46.9" rx="2.8" ry="3"/>
	<path class="st3" d="M40.7,49.5c-0.7,0.9-1.7,1.4-2.8,1.4c-1.1,0-2.1-0.6-2.8-1.4c-2.6,0.6-2.3,3.3-2.2,5.4c0,0.4,0.4,0.8,0.8,0.8
		h8.6c0.4,0,0.7-0.3,0.8-0.8C43.1,52.8,43.4,50.1,40.7,49.5z"/>
	<path class="st3" d="M20.1,40.5c0.7,0.9,1.2,1.6,1.5,1.9l0,12.8h2.6c0.3-2.8,1.2-10.6,1.4-11.4c0.1-0.7,1.2-0.7,1.3,0
		c0.1,0.8,1,8.6,1.4,11.4h2.7l0-13.4h1.2v-9.7l2.1,0.6c0.2,0.1,0.3,0.1,0.5,0.1c0.1,0,0.3,0,0.4-0.1l4.9-2.4c0.6-0.3,0.9-1,0.6-1.6
		c-0.3-0.6-1-0.9-1.6-0.6l-4.3,1.8l-4.1-1.2c-0.2-0.1-0.5-0.1-0.8-0.2l0,0h0c-1.1-0.3-2.2-0.6-2.2-0.6L26.1,31h0l-1.5-3.2
		c0,0-1.9,0.4-3,0.7c-1,0.3-1.7,1.1-1.8,2.3c-0.2,1.6-0.2,5.3-0.3,6.8C19.5,38.1,19.5,39.8,20.1,40.5z"/>
	<rect x="32.6" y="24.8" class="st3" width="16.9" height="1"/>
	<rect x="42" y="27.8" class="st3" width="7.5" height="1"/>
	<rect x="42" y="30.8" class="st3" width="7.5" height="1"/>
	<polygon class="st3" points="42,20.7 42,19.3 38.5,19.3 38.5,20.7 30.5,20.7 30.5,23 54,23 54,40.2 34.5,40.2 34.5,41.7 55.5,41.7 
		55.5,20.7 	"/>
</g>
</svg>
