<?xml version="1.0" encoding="utf-8"?>
<!-- Generator: Adobe Illustrator 21.0.2, SVG Export Plug-In . SVG Version: 6.00 Build 0)  -->
<svg version="1.1" id="Layer_1" xmlns="http://www.w3.org/2000/svg" xmlns:xlink="http://www.w3.org/1999/xlink" x="0px" y="0px"
	 viewBox="0 0 74 74" style="enable-background:new 0 0 74 74;" xml:space="preserve">
<style type="text/css">
	.st0{fill:none;stroke:#006FAF;stroke-width:2;stroke-miterlimit:10;}
	.st1{fill:#006FAF;}
</style>
<title>cordova</title>
<circle class="st0" cx="37" cy="37" r="36"/>
<path class="st1" d="M51.3,53.7h-5.7l0.4-4.8h-2.8l-0.4,4.8H31.1l-0.4-4.8H28l0.4,4.8h-5.7L19.5,33l8-12.7h19.1l8,12.7L51.3,53.7z
	 M45,26.6h-5.1l0.3,2.4h-6.3l0.3-2.4h-5.1L25.9,33l1.6,12.7h19.1L48.2,33L45,26.6z M42.3,41.5c-0.4,0-0.8-1.3-0.8-3s0.4-3,0.8-3
	s0.8,1.3,0.8,3S42.7,41.5,42.3,41.5L42.3,41.5z M32.2,41.8c-0.4,0-0.8-1.3-0.8-3s0.4-3,0.8-3c0.4,0,0.8,1.3,0.8,3
	S32.7,41.8,32.2,41.8L32.2,41.8z"/>
</svg>
