<?xml version="1.0" encoding="utf-8"?>
<!-- Generator: Adobe Illustrator 21.0.2, SVG Export Plug-In . SVG Version: 6.00 Build 0)  -->
<svg version="1.1" id="Layer_1" xmlns="http://www.w3.org/2000/svg" xmlns:xlink="http://www.w3.org/1999/xlink" x="0px" y="0px"
	 viewBox="0 0 74 74" style="enable-background:new 0 0 74 74;" xml:space="preserve">
<style type="text/css">
	.st0{fill:none;stroke:#006FAF;stroke-width:2;stroke-miterlimit:10;}
	.st1{fill:#006FAF;}
</style>
<title>java</title>
<circle class="st0" cx="37" cy="37" r="36"/>
<g id="Layer_1_1_">
</g>
<g>
	<g>
		<path class="st1" d="M38,28.8c5.6,0,10.2,4.6,10.2,10.2S43.6,49.2,38,49.2S27.8,44.6,27.8,39S32.4,28.8,38,28.8 M38,27
			c-6.6,0-12,5.4-12,12s5.3,11.9,11.9,11.9S49.8,45.6,49.8,39C49.9,32.4,44.6,27,38,27L38,27z"/>
	</g>
	<g>
		<path class="st1" d="M23.5,20c0.5,0,0.9,0.4,1,0.9c0.1,0.6,0.1,1.3,0.4,1.8c0.9,2,2.3,3.1,4.5,3.3c0.1,0,0.2,0,0.3,0
			c0.6,0,0.9,0.4,1,0.9c0,0.5-0.4,1-1,1c-0.4,0-0.8,0.1-1.2,0.1c-2.1,0.5-3.8,2.4-3.9,4.6c-0.1,0.9-0.4,1.3-1,1.3s-0.9-0.4-1-1.3
			c-0.2-2.6-2.3-4.6-4.9-4.7c-0.7,0-1.1-0.4-1.1-1s0.4-0.9,1.1-1c2.7-0.1,4.7-2.1,5-4.8C22.6,20.4,22.9,20,23.5,20z"/>
	</g>
	<g>
		<path class="st1" d="M45.5,45.8c-0.7,0.8-1.6,1.5-2.6,2.1C42.7,48,42.5,48,42.3,48c-0.2,0-0.4,0-0.7-0.1c-0.3,0-0.5-0.2-0.7-0.4
			C42.5,47,44,46.4,45.5,45.8 M49.5,42c-0.3,0-0.6,0.3-0.9,0.4c-3,1.5-6.2,2.7-9.5,3.7C39,46.3,39,46.5,39,46.7
			c-0.1,1.4,0.9,2.7,2.3,2.9c0.3,0,0.7,0.1,1,0.1c0.4,0,0.8,0,1.1-0.2h0.1C46.6,47.8,48.6,45.4,49.5,42L49.5,42z"/>
	</g>
	<g>
		<path class="st1" d="M51.2,23.3c0,1.9-1.6,3.4-3.4,3.4c-1.9,0-3.4-1.6-3.4-3.5s1.6-3.4,3.4-3.3C49.7,19.9,51.2,21.5,51.2,23.3z"/>
	</g>
	<g>
		<path class="st1" d="M54.9,50.9c-1.3,0-2.3-1-2.3-2.3s1-2.2,2.3-2.2s2.3,1,2.3,2.3C57.3,49.8,56.2,50.9,54.9,50.9z"/>
	</g>
	<g>
		<path class="st1" d="M45,40.3c-0.5,0-1.1,0-1.6,0c-1.8,0-2.9,1.4-2.7,3.1c0.5-0.1,1-0.3,1.5-0.5c2-0.7,4-1.6,6-2.6
			C47.1,40.3,46,40.3,45,40.3L45,40.3z"/>
	</g>
	<g>
		<path class="st1" d="M56,31.2c-0.7-0.5-1.5-0.8-2.4-1c-2.6-0.6-5.2-0.5-7.8-0.2l0,0c0.7,0.6,1.3,1.3,1.8,2c1.1,0.1,2.1-0.1,3.2,0
			c1.1,0.1,2.3,0.2,3.3,0.7c1.1,0.5,1.4,1.2,0.7,2.3c-0.4,0.6-0.9,1.2-1.4,1.7c-0.9,0.8-1.9,1.5-2.9,2.2c-0.3,0.2-0.5,0.3-0.7,0.6
			c0,0.9-0.2,1.8-0.4,2.7c0.2-0.1,0.3-0.2,0.5-0.3c1.8-1,3.5-2.1,5.1-3.5c0.8-0.8,1.6-1.6,2.1-2.7C57.9,33.9,57.5,32.2,56,31.2z"/>
	</g>
	<g>
		<path class="st1" d="M29.9,47.8L29.9,47.8c-0.1-0.1-0.2-0.2-0.2-0.2s0,0-0.1-0.1s-0.1-0.1-0.2-0.2c0,0,0,0-0.1-0.1
			S29.2,47,29.1,47l0,0c-0.2-0.2-0.3-0.3-0.4-0.5l0,0c-0.1-0.1-0.1-0.2-0.2-0.2l0,0c-0.1-0.1-0.1-0.2-0.2-0.3
			c-0.9,0.1-1.8,0.1-2.8,0.1c-1.2-0.1-2.4-0.2-3.6-0.7s-1.5-1.3-0.8-2.4c0.1-0.1,0.2-0.2,0.2-0.3c0.5-0.7,1.2-1.3,1.9-1.9
			c0.9-0.7,1.8-1.3,2.7-1.9l0,0c0-0.7,0.1-1.3,0.2-2l0,0c0-0.1,0-0.2,0.1-0.3l0,0c0-0.1,0-0.2,0.1-0.3l0,0c-1,0.5-2,1.1-2.9,1.7
			c-1.5,1-2.9,2.1-4,3.6c-0.5,0.7-0.9,1.5-0.9,2.4c-0.1,1.4,0.7,2.6,2.3,3.4c1.4,0.7,2.9,0.9,4.4,0.9c1.7,0.1,3.4,0,5-0.2l0,0
			C30.1,47.9,30,47.9,29.9,47.8z"/>
	</g>
	<g>
		<path class="st1" d="M28.5,38.6L28.5,38.6c0.4,0,0.8,0,1.1,0c0.3,0,0.8,0.1,1.1,0.5c0.2,0.3,0.3,0.7,0.3,1.2
			c-0.1,0.8,0.2,1.3,0.5,1.6c0.2,0.2,0.7,0.6,1.4,0.6H33c0.9,0.1,1.3,0.5,1.4,0.9c-1.8,0.4-3.3,0.7-4.8,0.8c-0.1,0-0.3,0-0.4,0
			c-1-1.6-1.5-3.4-1.5-5.3c0-0.1,0-0.3,0-0.4C28,38.6,28.2,38.6,28.5,38.6 M28.5,36.8c-0.7,0-1.4,0-2.1,0c0,0-0.1,0-0.2,0
			C26.1,37.6,26,38.3,26,39c0,2.6,0.9,5.1,2.3,7.1c0.5,0,1.1-0.1,1.5-0.1c2.2-0.2,4.3-0.6,6.4-1.1c0.1-0.6,0.1-1.1,0-1.7
			c-0.4-1.4-1.5-2.3-3.1-2.4l0,0c-0.1,0-0.1,0-0.2,0c-0.1,0-0.2,0-0.2-0.3c0.2-2-1.1-3.5-3-3.6C29.3,36.8,28.9,36.8,28.5,36.8
			L28.5,36.8z"/>
	</g>
	<g>
		<path class="st1" d="M43.4,30.4c2.1,1.3,3.6,3.4,4.3,5.8h-1h-4h-3.5c-1,0-1.4-0.3-1.6-0.8c-0.3-0.5-0.3-1,0-1.5
			c0.2-0.5,0.7-0.8,1.2-0.8c0.2,0,0.4,0,0.8,0H40c0.6,0,1.1-0.2,1.5-0.6c0.4-0.4,0.6-0.9,0.5-1.6c0-0.2,0-0.3,0.1-0.4
			c0,0,0.2-0.1,0.4-0.1h0.6L43.4,30.4 M43.9,28.6c-0.5,0-1.1,0-1.4,0c-1.4,0-2.3,0.9-2.2,2.3c0,0.3-0.1,0.3-0.3,0.3l0,0
			c-0.1,0-0.3,0-0.4,0c-0.3,0-0.6,0-0.9,0c-2.4,0.2-3.7,2.8-2.5,4.9c0.7,1.2,1.8,1.7,3.2,1.7l0,0c1.2,0,2.3,0,3.5,0c2.3,0,4.7,0,7,0
			c0,0,0,0,0.1,0C49.5,33.9,47.2,30.5,43.9,28.6L43.9,28.6z"/>
	</g>
</g>
</svg>
