<?xml version="1.0" encoding="utf-8"?>
<!-- Generator: Adobe Illustrator 21.0.2, SVG Export Plug-In . SVG Version: 6.00 Build 0)  -->
<svg version="1.1" id="Layer_1" xmlns="http://www.w3.org/2000/svg" xmlns:xlink="http://www.w3.org/1999/xlink" x="0px" y="0px"
	 viewBox="0 0 74 74" style="enable-background:new 0 0 74 74;" xml:space="preserve">
<style type="text/css">
	.st0{fill:#006FAF;}
</style>
<title>health-checks</title>
<path class="st0" d="M37,0C16.6,0,0,16.6,0,37s16.6,37,37,37s37-16.6,37-37S57.4,0,37,0z M37,72C17.7,72,2,56.3,2,37S17.7,2,37,2
	s35,15.7,35,35S56.3,72,37,72z"/>
<g>
	<path class="st0" d="M47.6,45.4H26.5c-1.9,0-2.9,1-2.9,2.9c0,1.8,1,2.8,2.9,2.9h21.2c1.9,0,2.9-1,2.9-3
		C50.4,46.3,49.5,45.4,47.6,45.4z M26.5,49.4c-1-0.1-1.2-0.4-1.2-1.2c0-1,0.2-1.2,1.2-1.2h21.2c0.8,0,1.1,0.1,1.2,1.2
		c-0.1,0.9-0.3,1.1-1.2,1.1H26.5z"/>
	<path class="st0" d="M19.9,30.8c-2.8,0.1-4.2,2-4.2,5.6v6.6c0,6.7,2.3,8.1,4.2,8.2h0c1.9,0,2.9-1,2.9-2.9l0-14.5
		C22.7,31.8,21.7,30.8,19.9,30.8z M19.8,32.5c0.9,0.1,1.1,0.3,1.2,1.2l0.1,14.4c0,1-0.2,1.2-1.2,1.2c-2.1-0.1-2.5-3.5-2.5-6.4v-6.6
		C17.5,33,18.7,32.5,19.8,32.5z"/>
	<path class="st0" d="M23.6,33.6c0,2.7,1.5,4.2,4.2,4.2h18.5c2.7,0,4.2-1.5,4.2-4.2c-0.1-2.4,1.1-3.6,3.6-3.7l0.2,0l0-0.2
		c0.1-4.4-2.2-6.7-6.7-6.8h-21c-4.5,0.1-6.8,2.4-6.8,6.8v0.2h0.2C22.4,29.9,23.6,31.2,23.6,33.6z M46.3,36.1H27.9
		c-1.8,0-2.5-0.7-2.5-2.5c0-2.8-1.4-4.7-3.8-5.3c0.3-2.5,1.9-3.6,5-3.7h21c3.1,0.1,4.6,1.2,4.9,3.7c-2.5,0.7-3.8,2.6-3.8,5.4
		C48.7,35.4,48.1,36.1,46.3,36.1z"/>
	<path class="st0" d="M57,32c-0.7-0.8-1.7-1.2-3-1.2c-1.9,0-2.9,1-2.9,2.8v14.6c0,1.8,1,2.8,2.9,2.9l0,0h0c1.9-0.1,4.2-1.5,4.2-8.2
		v-6.6C58.3,34.4,57.9,32.9,57,32z M54.1,49.3c-1-0.1-1.2-0.4-1.2-1.2V33.5c0-0.8,0.2-1.1,1.2-1.1c1.3,0.1,2.6,0.6,2.5,3.8v6.6
		C56.5,45.7,56.1,49.2,54.1,49.3z"/>
	<path class="st0" d="M26.5,38.6c-1.9,0.1-2.9,1.1-2.9,2.9c0,1.9,1,2.9,2.9,2.9h21h0c1.9-0.1,2.9-1.1,2.9-2.9c0-1.8-0.9-2.8-2.8-2.9
		H26.5z M47.6,42.7H26.5c-1,0-1.2-0.2-1.2-1.2c0-0.8,0.2-1.1,1.2-1.2h21.1c0.9,0.1,1.1,0.3,1.1,1.2C48.7,42.3,48.6,42.7,47.6,42.7z"
		/>
</g>
</svg>
