<?xml version="1.0" encoding="utf-8"?>
<!-- Generator: Adobe Illustrator 21.0.2, SVG Export Plug-In . SVG Version: 6.00 Build 0)  -->
<svg version="1.1" id="Layer_1" xmlns="http://www.w3.org/2000/svg" xmlns:xlink="http://www.w3.org/1999/xlink" x="0px" y="0px"
	 viewBox="0 0 74 74" style="enable-background:new 0 0 74 74;" xml:space="preserve">
<style type="text/css">
	.st0{fill:none;stroke:#006FAF;stroke-width:2;stroke-miterlimit:10;}
	.st1{fill:#006FAF;}
</style>
<title>Cloud &amp;amp; Infrastructure Services</title>
<circle class="st0" cx="37" cy="37" r="36"/>
<g>
	<path class="st1" d="M11.3,38.5c0,0.4-0.1,0.7-0.3,1c-0.1,0.3-0.3,0.6-0.6,0.8c-0.2,0.2-0.5,0.4-0.9,0.5C9.3,41,8.9,41,8.4,41
		c-0.4,0-0.8-0.1-1.2-0.2c-0.4-0.2-0.7-0.4-0.9-0.7S5.8,39.4,5.7,39c-0.1-0.4-0.2-0.9-0.2-1.4v-0.8c0-0.5,0.1-1,0.2-1.4
		s0.3-0.8,0.6-1.1c0.3-0.3,0.6-0.5,1-0.7c0.4-0.2,0.8-0.3,1.3-0.3c0.4,0,0.8,0.1,1.1,0.2c0.3,0.1,0.6,0.3,0.8,0.5
		c0.2,0.2,0.4,0.5,0.5,0.8s0.2,0.7,0.3,1h-1c0-0.3-0.1-0.5-0.2-0.7s-0.2-0.4-0.3-0.5s-0.3-0.3-0.5-0.3c-0.2-0.1-0.5-0.1-0.7-0.1
		c-0.3,0-0.6,0.1-0.9,0.2c-0.3,0.1-0.5,0.3-0.6,0.5c-0.2,0.2-0.3,0.5-0.4,0.8c-0.1,0.3-0.1,0.7-0.1,1.1v0.8c0,0.4,0,0.7,0.1,1
		c0.1,0.3,0.2,0.6,0.4,0.9s0.4,0.4,0.6,0.6c0.2,0.1,0.5,0.2,0.9,0.2c0.3,0,0.6,0,0.8-0.1s0.4-0.2,0.5-0.3c0.1-0.1,0.3-0.3,0.3-0.5
		c0.1-0.2,0.1-0.4,0.2-0.7H11.3z"/>
	<path class="st1" d="M15.2,36.2c-0.1,0-0.2,0-0.2,0c-0.1,0-0.2,0-0.2,0c-0.3,0-0.6,0.1-0.8,0.2c-0.2,0.1-0.4,0.3-0.5,0.6v4h-1v-5.6
		h0.9l0,0.6c0.1-0.2,0.3-0.4,0.5-0.5c0.2-0.1,0.5-0.2,0.8-0.2c0.1,0,0.1,0,0.2,0c0.1,0,0.2,0,0.2,0V36.2z"/>
	<path class="st1" d="M19.6,40.4c-0.2,0.2-0.4,0.4-0.7,0.5c-0.3,0.1-0.6,0.2-1,0.2c-0.3,0-0.5,0-0.8-0.1s-0.4-0.2-0.6-0.4
		c-0.2-0.2-0.3-0.4-0.4-0.6c-0.1-0.3-0.1-0.6-0.1-1v-3.6h1V39c0,0.3,0,0.5,0.1,0.6c0.1,0.2,0.1,0.3,0.2,0.4c0.1,0.1,0.2,0.2,0.3,0.2
		c0.1,0,0.3,0.1,0.4,0.1c0.4,0,0.7-0.1,0.9-0.2c0.2-0.1,0.4-0.3,0.5-0.6v-4.1h1v5.6h-0.9L19.6,40.4z"/>
	<path class="st1" d="M22,33.8c0-0.2,0-0.3,0.1-0.4c0.1-0.1,0.2-0.2,0.4-0.2c0.2,0,0.3,0.1,0.4,0.2s0.1,0.2,0.1,0.4s0,0.3-0.1,0.4
		c-0.1,0.1-0.2,0.2-0.4,0.2c-0.2,0-0.3-0.1-0.4-0.2C22,34.1,22,34,22,33.8z M23,40.9h-1v-5.6h1V40.9z"/>
	<path class="st1" d="M27.8,39.4c0-0.1,0-0.2,0-0.3c0-0.1-0.1-0.2-0.2-0.3c-0.1-0.1-0.2-0.2-0.4-0.2c-0.2-0.1-0.4-0.1-0.7-0.2
		c-0.3-0.1-0.6-0.1-0.8-0.2S25.2,38,25,37.9c-0.2-0.1-0.3-0.3-0.4-0.4c-0.1-0.2-0.1-0.4-0.1-0.6c0-0.2,0-0.4,0.1-0.6
		c0.1-0.2,0.2-0.4,0.4-0.5c0.2-0.2,0.4-0.3,0.7-0.4s0.5-0.1,0.9-0.1c0.3,0,0.6,0,0.9,0.1c0.3,0.1,0.5,0.2,0.7,0.4
		c0.2,0.2,0.3,0.3,0.4,0.6c0.1,0.2,0.1,0.4,0.1,0.7h-1c0-0.1,0-0.2-0.1-0.3c-0.1-0.1-0.1-0.2-0.2-0.3c-0.1-0.1-0.2-0.2-0.4-0.2
		C26.9,36,26.8,36,26.6,36c-0.2,0-0.4,0-0.5,0.1c-0.1,0-0.3,0.1-0.3,0.2s-0.2,0.2-0.2,0.3c0,0.1-0.1,0.2-0.1,0.3
		c0,0.1,0,0.2,0.1,0.3c0,0.1,0.1,0.2,0.2,0.2c0.1,0.1,0.2,0.1,0.4,0.2c0.2,0.1,0.4,0.1,0.6,0.2c0.3,0.1,0.6,0.2,0.9,0.3
		c0.3,0.1,0.5,0.2,0.6,0.3s0.3,0.3,0.4,0.5c0.1,0.2,0.1,0.4,0.1,0.6c0,0.2-0.1,0.5-0.2,0.7c-0.1,0.2-0.2,0.4-0.4,0.5
		c-0.2,0.1-0.4,0.3-0.7,0.3C27.2,41,26.9,41,26.6,41c-0.4,0-0.7-0.1-1-0.2c-0.3-0.1-0.5-0.2-0.7-0.4c-0.2-0.2-0.3-0.4-0.4-0.6
		c-0.1-0.2-0.2-0.4-0.2-0.7h1c0,0.2,0.1,0.4,0.1,0.5c0.1,0.1,0.2,0.2,0.3,0.3c0.1,0.1,0.3,0.1,0.4,0.2c0.2,0,0.3,0.1,0.5,0.1
		c0.2,0,0.4,0,0.5-0.1c0.1,0,0.3-0.1,0.4-0.2c0.1-0.1,0.2-0.2,0.2-0.3C27.8,39.7,27.8,39.6,27.8,39.4z"/>
	<path class="st1" d="M32.3,41c-0.4,0-0.7-0.1-1.1-0.2c-0.3-0.1-0.6-0.3-0.8-0.6s-0.4-0.5-0.5-0.9c-0.1-0.3-0.2-0.7-0.2-1.1v-0.2
		c0-0.5,0.1-0.9,0.2-1.2c0.1-0.4,0.3-0.7,0.5-0.9c0.2-0.2,0.5-0.4,0.8-0.6c0.3-0.1,0.6-0.2,0.9-0.2c0.4,0,0.7,0.1,1,0.2
		c0.3,0.1,0.5,0.3,0.7,0.6c0.2,0.2,0.3,0.5,0.4,0.9c0.1,0.3,0.1,0.7,0.1,1.1v0.4h-3.8c0,0.3,0,0.5,0.1,0.7c0.1,0.2,0.2,0.4,0.3,0.6
		c0.1,0.2,0.3,0.3,0.5,0.4c0.2,0.1,0.4,0.1,0.7,0.1c0.3,0,0.6-0.1,0.9-0.2c0.2-0.1,0.4-0.3,0.6-0.5l0.6,0.5
		c-0.1,0.1-0.2,0.3-0.3,0.4c-0.1,0.1-0.3,0.2-0.4,0.3c-0.2,0.1-0.4,0.2-0.6,0.2C32.9,41,32.6,41,32.3,41z M32.2,36
		c-0.2,0-0.4,0-0.5,0.1c-0.2,0.1-0.3,0.2-0.4,0.3c-0.1,0.1-0.2,0.3-0.3,0.5c-0.1,0.2-0.1,0.4-0.2,0.7h2.8v-0.1c0-0.2,0-0.4-0.1-0.6
		c0-0.2-0.1-0.3-0.2-0.5c-0.1-0.1-0.2-0.3-0.4-0.4C32.7,36.1,32.5,36,32.2,36z"/>
	<path class="st1" d="M41.3,38.5c0,0.4-0.1,0.7-0.3,1c-0.1,0.3-0.3,0.6-0.6,0.8c-0.2,0.2-0.5,0.4-0.9,0.5C39.3,41,38.9,41,38.5,41
		c-0.4,0-0.8-0.1-1.2-0.2c-0.4-0.2-0.7-0.4-0.9-0.7c-0.3-0.3-0.5-0.7-0.6-1.1c-0.1-0.4-0.2-0.9-0.2-1.4v-0.8c0-0.5,0.1-1,0.2-1.4
		s0.3-0.8,0.6-1.1c0.3-0.3,0.6-0.5,1-0.7c0.4-0.2,0.8-0.3,1.3-0.3c0.4,0,0.8,0.1,1.1,0.2c0.3,0.1,0.6,0.3,0.8,0.5
		c0.2,0.2,0.4,0.5,0.5,0.8c0.1,0.3,0.2,0.7,0.3,1h-1c0-0.3-0.1-0.5-0.2-0.7s-0.2-0.4-0.3-0.5c-0.1-0.1-0.3-0.3-0.5-0.3
		c-0.2-0.1-0.5-0.1-0.7-0.1c-0.3,0-0.6,0.1-0.9,0.2c-0.3,0.1-0.5,0.3-0.6,0.5c-0.2,0.2-0.3,0.5-0.4,0.8c-0.1,0.3-0.1,0.7-0.1,1.1
		v0.8c0,0.4,0,0.7,0.1,1c0.1,0.3,0.2,0.6,0.4,0.9s0.4,0.4,0.6,0.6s0.5,0.2,0.9,0.2c0.3,0,0.6,0,0.8-0.1s0.4-0.2,0.5-0.3
		c0.1-0.1,0.3-0.3,0.3-0.5c0.1-0.2,0.1-0.4,0.2-0.7H41.3z"/>
	<path class="st1" d="M42.3,38.1c0-0.4,0.1-0.8,0.2-1.1c0.1-0.3,0.3-0.6,0.5-0.9c0.2-0.3,0.5-0.5,0.8-0.6c0.3-0.1,0.7-0.2,1.1-0.2
		c0.4,0,0.8,0.1,1.1,0.2c0.3,0.1,0.6,0.3,0.8,0.6c0.2,0.3,0.4,0.6,0.5,0.9c0.1,0.3,0.2,0.7,0.2,1.1v0.1c0,0.4-0.1,0.8-0.2,1.1
		c-0.1,0.3-0.3,0.6-0.5,0.9s-0.5,0.5-0.8,0.6S45.2,41,44.8,41s-0.7-0.1-1.1-0.2s-0.6-0.3-0.8-0.6s-0.4-0.6-0.5-0.9
		c-0.1-0.3-0.2-0.7-0.2-1.1V38.1z M43.3,38.2c0,0.3,0,0.5,0.1,0.8s0.2,0.5,0.3,0.7c0.1,0.2,0.3,0.3,0.5,0.4c0.2,0.1,0.4,0.2,0.7,0.2
		c0.3,0,0.5-0.1,0.7-0.2s0.4-0.3,0.5-0.4s0.2-0.4,0.3-0.7c0.1-0.2,0.1-0.5,0.1-0.8v-0.1c0-0.3,0-0.5-0.1-0.8
		c-0.1-0.3-0.2-0.5-0.3-0.7c-0.1-0.2-0.3-0.3-0.5-0.5c-0.2-0.1-0.4-0.2-0.7-0.2c-0.3,0-0.5,0.1-0.7,0.2c-0.2,0.1-0.4,0.3-0.5,0.5
		c-0.1,0.2-0.2,0.4-0.3,0.7s-0.1,0.5-0.1,0.8V38.2z"/>
	<path class="st1" d="M49.5,35.3l0,0.7c0.2-0.3,0.4-0.4,0.7-0.6s0.6-0.2,1-0.2c0.3,0,0.5,0,0.7,0.1c0.2,0.1,0.4,0.2,0.6,0.4
		c0.2,0.2,0.3,0.4,0.4,0.6c0.1,0.3,0.1,0.6,0.1,0.9v3.7h-1v-3.7c0-0.2,0-0.4-0.1-0.6s-0.1-0.3-0.2-0.4c-0.1-0.1-0.2-0.2-0.4-0.2
		c-0.1,0-0.3-0.1-0.5-0.1c-0.3,0-0.6,0.1-0.8,0.2c-0.2,0.2-0.4,0.4-0.5,0.7v4h-1v-5.6H49.5z"/>
	<path class="st1" d="M55.8,34v1.4h1v0.7h-1v3.5c0,0.1,0,0.3,0.1,0.3s0.1,0.2,0.1,0.2c0.1,0,0.1,0.1,0.2,0.1c0.1,0,0.2,0,0.2,0
		c0.1,0,0.2,0,0.3,0c0.1,0,0.2,0,0.2,0v0.8c-0.1,0-0.2,0-0.3,0.1c-0.1,0-0.3,0-0.4,0c-0.2,0-0.3,0-0.5-0.1c-0.2-0.1-0.3-0.1-0.4-0.3
		s-0.2-0.3-0.3-0.5s-0.1-0.4-0.1-0.7v-3.5h-1v-0.7h1V34H55.8z"/>
	<path class="st1" d="M60.6,36.2c-0.1,0-0.2,0-0.2,0c-0.1,0-0.2,0-0.2,0c-0.3,0-0.6,0.1-0.8,0.2c-0.2,0.1-0.4,0.3-0.5,0.6v4h-1v-5.6
		h0.9l0,0.6c0.1-0.2,0.3-0.4,0.5-0.5c0.2-0.1,0.5-0.2,0.8-0.2c0.1,0,0.1,0,0.2,0c0.1,0,0.2,0,0.2,0V36.2z"/>
	<path class="st1" d="M61.2,38.1c0-0.4,0.1-0.8,0.2-1.1c0.1-0.3,0.3-0.6,0.5-0.9c0.2-0.3,0.5-0.5,0.8-0.6c0.3-0.1,0.7-0.2,1.1-0.2
		c0.4,0,0.8,0.1,1.1,0.2c0.3,0.1,0.6,0.3,0.8,0.6c0.2,0.3,0.4,0.6,0.5,0.9s0.2,0.7,0.2,1.1v0.1c0,0.4-0.1,0.8-0.2,1.1
		s-0.3,0.6-0.5,0.9s-0.5,0.5-0.8,0.6S64.1,41,63.7,41c-0.4,0-0.7-0.1-1.1-0.2c-0.3-0.1-0.6-0.3-0.8-0.6s-0.4-0.6-0.5-0.9
		c-0.1-0.3-0.2-0.7-0.2-1.1V38.1z M62.1,38.2c0,0.3,0,0.5,0.1,0.8s0.2,0.5,0.3,0.7c0.1,0.2,0.3,0.3,0.5,0.4c0.2,0.1,0.4,0.2,0.7,0.2
		c0.3,0,0.5-0.1,0.7-0.2s0.4-0.3,0.5-0.4c0.1-0.2,0.2-0.4,0.3-0.7c0.1-0.2,0.1-0.5,0.1-0.8v-0.1c0-0.3,0-0.5-0.1-0.8
		c-0.1-0.3-0.2-0.5-0.3-0.7c-0.1-0.2-0.3-0.3-0.5-0.5C64.2,36.1,64,36,63.7,36c-0.3,0-0.5,0.1-0.7,0.2c-0.2,0.1-0.4,0.3-0.5,0.5
		c-0.1,0.2-0.2,0.4-0.3,0.7s-0.1,0.5-0.1,0.8V38.2z"/>
	<path class="st1" d="M68.5,40.9h-1v-8h1V40.9z"/>
</g>
</svg>
