<?xml version="1.0" encoding="utf-8"?>
<!-- Generator: Adobe Illustrator 21.0.2, SVG Export Plug-In . SVG Version: 6.00 Build 0)  -->
<svg version="1.1" id="Layer_1" xmlns="http://www.w3.org/2000/svg" xmlns:xlink="http://www.w3.org/1999/xlink" x="0px" y="0px"
	 viewBox="0 0 74 74" style="enable-background:new 0 0 74 74;" xml:space="preserve">
<style type="text/css">
	.st0{fill:none;stroke:#006FAF;stroke-width:2;stroke-miterlimit:10;}
	.st1{fill:#006FAF;}
</style>
<title>Cloud &amp;amp; Infrastructure Services</title>
<circle class="st0" cx="37" cy="37" r="36"/>
<path class="st1" d="M23.5,25.3L23.5,25.3L23.5,25.3z"/>
<g>
	<path class="st1" d="M26,29.3l2,22.4l9,2.5l9-2.5l2-22.4C48,29.3,26,29.3,26,29.3z M43.7,36.6l-0.3,2.8l-0.8,8.4L37,49.4l0,0
		l-5.6-1.6L31,43.4h2.8l0.2,2.3l3.1,0.8l0,0l3.1-0.8l0.4-3.8h-9.7l-0.3-2.6l10.2-0.1l0.2-2.8H30.3l-0.2-2.6H37h6.9L43.7,36.6z"/>
	<polygon class="st1" points="31.5,25.9 28.6,25.9 28.6,21.5 31.5,21.5 31.5,19.8 26.9,19.8 26.9,21.5 26.9,21.5 26.9,25.9 
		26.9,25.9 26.9,27.6 31.5,27.6 	"/>
	<polygon class="st1" points="39.3,25.9 35.7,21.5 39.1,21.5 39.1,19.8 33.2,19.8 33.2,21.4 36.9,25.8 32.9,25.8 32.9,27.5 
		39.3,27.5 	"/>
	<polygon class="st1" points="47,25.9 43.3,21.5 46.8,21.5 46.8,19.8 40.8,19.8 40.8,21.4 44.5,25.8 40.6,25.8 40.6,27.5 47,27.5 	
		"/>
</g>
</svg>
