<?xml version="1.0" encoding="utf-8"?>
<!-- Generator: Adobe Illustrator 21.0.2, SVG Export Plug-In . SVG Version: 6.00 Build 0)  -->
<svg version="1.1" id="Layer_1" xmlns="http://www.w3.org/2000/svg" xmlns:xlink="http://www.w3.org/1999/xlink" x="0px" y="0px"
	 viewBox="0 0 74 74" style="enable-background:new 0 0 74 74;" xml:space="preserve">
<style type="text/css">
	.st0{fill:none;stroke:#006FAF;stroke-width:2;stroke-miterlimit:10;}
	.st1{fill:#006FAF;}
	.st2{fill:none;}
	.st3{fill-rule:evenodd;clip-rule:evenodd;fill:none;stroke:#006FAF;stroke-width:2;stroke-miterlimit:10;}
	.st4{fill:#006FAF;stroke:#006FAF;stroke-miterlimit:10;}
	.st5{fill:#FFFFFF;}
</style>
<circle class="st3" cx="37" cy="37" r="36"/>
<g>
	<g>
		<path class="st1" d="M31.8,42.6c0.4,0,0.9-0.1,1.2-0.2l0.2,1.1c-0.3,0.1-0.9,0.3-1.7,0.3c-2.2,0-3.4-1.4-3.4-3.3
			c0-2.2,1.6-3.5,3.6-3.5c0.8,0,1.3,0.2,1.6,0.3L33,38.5c-0.3-0.1-0.7-0.2-1.2-0.2c-1.2,0-2.1,0.7-2.1,2.2
			C29.7,41.7,30.5,42.6,31.8,42.6z"/>
		<path class="st1" d="M36.3,41c-1.1-0.4-1.8-1-1.8-1.9c0-1.1,0.9-2,2.5-2c0.7,0,1.3,0.2,1.7,0.3l-0.3,1.2c-0.3-0.1-0.7-0.3-1.4-0.3
			c-0.6,0-0.9,0.3-0.9,0.6c0,0.4,0.4,0.6,1.2,0.9c1.1,0.4,1.7,1,1.7,1.9c0,1.1-0.8,2-2.6,2c-0.7,0-1.5-0.2-1.8-0.4l0.3-1.2
			c0.4,0.2,1,0.4,1.6,0.4c0.7,0,1-0.3,1-0.7C37.4,41.5,37.1,41.2,36.3,41z"/>
		<path class="st1" d="M39.8,37.2h1.6l0.8,2.8c0.2,0.8,0.4,1.5,0.6,2.3h0c0.2-0.8,0.4-1.6,0.6-2.3l0.8-2.8h1.6l-2.2,6.5h-1.7
			L39.8,37.2z"/>
	</g>
	<path class="st1" d="M50.2,33.8v-5.2c0,0,0,0,0,0c0,0,0-0.1,0-0.1c0,0,0,0,0,0c0,0,0-0.1,0-0.1c0,0,0,0,0,0c0,0,0,0,0-0.1
		c0,0,0,0,0,0c0,0,0-0.1-0.1-0.1l-7.8-7.9c0,0,0,0,0,0c0,0,0,0,0,0c0,0,0,0-0.1-0.1c0,0,0,0,0,0c0,0,0,0-0.1,0c0,0,0,0,0,0
		c0,0-0.1,0-0.1,0c0,0,0,0,0,0c0,0-0.1,0-0.1,0c0,0,0,0,0,0H24.5c-0.3,0-0.6,0.3-0.6,0.6v13.1H22v13.4h1.9v6.1
		c0,0.3,0.3,0.6,0.6,0.6h25.1c0.3,0,0.6-0.3,0.6-0.6v-6.1H52V33.8H50.2z M42.3,22.2l5.8,5.8h-5.8V22.2z M25.1,21.3h16v7.3
		c0,0.3,0.3,0.6,0.6,0.6H49v4.6H25.1V21.3z M49,52.7H25.1v-5.5H49V52.7z M51.3,46.3H22.8V34.7h28.5V46.3z"/>
</g>
</svg>
