<?xml version="1.0" encoding="utf-8"?>
<!-- Generator: Adobe Illustrator 21.0.2, SVG Export Plug-In . SVG Version: 6.00 Build 0)  -->
<svg version="1.1" id="Layer_1" xmlns="http://www.w3.org/2000/svg" xmlns:xlink="http://www.w3.org/1999/xlink" x="0px" y="0px"
	 viewBox="0 0 74 74" style="enable-background:new 0 0 74 74;" xml:space="preserve">
<style type="text/css">
	.st0{fill:none;stroke:#006FAF;stroke-width:2;stroke-miterlimit:10;}
	.st1{fill:#006FAF;}
</style>
<title>health-checks</title>
<circle class="st0" cx="37" cy="37" r="36"/>
<title></title>
<desc></desc>
<g id="Layer_3">
</g>
<g>
	<path class="st1" d="M57,20.4c0-1.3-1.1-2.4-2.4-2.4c-1,0-1.8,0.6-2.2,1.5l-2.2,5.2c-0.6-0.6-1.5-1-2.4-1H26.5
		c-2,0-3.5,1.6-3.5,3.5v21.3c0,2,1.6,3.5,3.5,3.5h21.3c2,0,3.5-1.6,3.5-3.5V33l5.4-11.5C56.9,21.2,57,20.8,57,20.4z M49.9,48.5
		c0,1.2-1,2.1-2.1,2.1H26.5c-1.2,0-2.1-1-2.1-2.1V27.2c0-1.2,1-2.1,2.1-2.1h21.3c0.7,0,1.4,0.4,1.8,1l-2.5,6v-3.5
		c0-0.4-0.3-0.7-0.7-0.7H28c-0.4,0-0.7,0.3-0.7,0.7v5.7c0,0.4,0.3,0.7,0.7,0.7h17.9l-0.6,1.4h-6c-0.4,0-0.7,0.3-0.7,0.7v8.5
		c0,0,0,0,0,0.1c-0.6,0.5-0.9,0.7-1,0.7c-0.2,0.1-0.4,0.3-0.4,0.5c-0.1,0.2,0,0.5,0.2,0.7c1,1,2.4,1.4,3.8,1.4
		c1.8,0,3.5-0.6,4.3-1.4c1.1-1.1,1.9-3.3,1.3-5l3.1-6.6C49.9,36,49.9,48.5,49.9,48.5z M40.9,41.6c-0.4,0.4-0.7,0.9-0.9,1.3v-5.1h4.7
		l-1.1,2.6C42.7,40.4,41.7,40.8,40.9,41.6z M40,46.3c0.6-0.6,0.8-1.3,1-1.9c0.2-0.6,0.4-1.3,0.9-1.8c1-1,2.2-1,3.2,0
		c0.9,0.9,0.2,3-0.7,4c-0.8,0.8-3.5,1.5-5.3,0.5C39.4,46.9,39.7,46.7,40,46.3z M45.8,41.3c-0.3-0.2-0.5-0.4-0.8-0.5l1.9-4.6l1.1,0.5
		L45.8,41.3z M45.7,29.3v4.3h-17v-4.3H45.7z M55.5,20.9l-6.9,14.6l-1.1-0.6l3.6-8.6l0,0l2.6-6.3c0.2-0.4,0.5-0.6,0.9-0.6
		c0.5,0,1,0.4,1,1C55.6,20.6,55.6,20.7,55.5,20.9z"/>
	<path class="st1" d="M35,36.4h-7c-0.4,0-0.7,0.3-0.7,0.7V47c0,0.4,0.3,0.7,0.7,0.7h7c0.4,0,0.7-0.3,0.7-0.7v-9.9
		C35.8,36.7,35.4,36.4,35,36.4z M34.3,46.3h-5.7v-8.5h5.7V46.3z"/>
</g>
</svg>
