<svg id="Layer_1" data-name="Layer 1" xmlns="http://www.w3.org/2000/svg" width="74" height="74" viewBox="0 0 74 74">
  <defs>
    <style>
      .cls-1 {
        fill: none;
        stroke: #006faf;
        stroke-miterlimit: 10;
        stroke-width: 2px;
      }

      .cls-2 {
        fill: #006faf;
      }
    </style>
  </defs>
  <title>d3</title>
  <circle class="cls-1" cx="37" cy="37" r="36"/>
  <g>
    <path class="cls-2" d="M22.05,22.8V29h2.72a7.85,7.85,0,0,1,5.11,2.07A7.31,7.31,0,0,1,32.4,35.7c.41,3,0,0,0,0a7.94,7.94,0,0,1-.3,3.82A8.43,8.43,0,0,1,29.78,43a7.23,7.23,0,0,1-4,1.89s-1.27.08-3.7.09V51.2s4.63.28,7.13-.76A15.55,15.55,0,0,0,33.55,48,16.51,16.51,0,0,0,36,45.38a13.72,13.72,0,0,0,2.25-4.62,15,15,0,0,0,.29-6.23,13.73,13.73,0,0,0-1.82-4.8,26,26,0,0,0-1.82-2.43c-.61-.59-1.3-1.65-5-3.45C29.92,23.85,27.44,22.47,22.05,22.8Z"/>
    <path class="cls-2" d="M33.17,22.8s3.17,1.56,6,6.22h4.67a2.55,2.55,0,0,1,2,2.29s.23,1.68-1.93,2.54H40.78a12.67,12.67,0,0,1,.06,6.28h2.78a2.39,2.39,0,0,1,2.15,2.39s.14,2.2-2.65,2.45h-4a17.58,17.58,0,0,1-5.72,6.26H44.11s6.5-.26,7.92-8A8.66,8.66,0,0,0,49.95,37a8.07,8.07,0,0,0,1.78-7.8,8.36,8.36,0,0,0-5.45-5.84A8.08,8.08,0,0,0,44,22.8Z"/>
  </g>
</svg>
