<?xml version="1.0" encoding="utf-8"?>
<!-- Generator: Adobe Illustrator 21.0.2, SVG Export Plug-In . SVG Version: 6.00 Build 0)  -->
<svg version="1.1" id="Layer_1" xmlns="http://www.w3.org/2000/svg" xmlns:xlink="http://www.w3.org/1999/xlink" x="0px" y="0px"
	 viewBox="0 0 74 74" style="enable-background:new 0 0 74 74;" xml:space="preserve">
<style type="text/css">
	.st0{fill:none;stroke:#006FAF;stroke-width:2;stroke-miterlimit:10;}
	.st1{fill:#006FAF;}
</style>
<title>Cloud &amp;amp; Infrastructure Services</title>
<circle class="st0" cx="37" cy="37" r="36"/>
<g>
	<g>
		<path class="st1" d="M53,35v12c0,1.2-1,2.2-2.2,2.2h-8.7c-0.2,0-0.4,0-0.6-0.1c0.3,0.8,1.1,1.5,2,1.5h8.8c1.2,0,2.1-0.9,2.1-2.1
			V36.9C54.5,36,53.9,35.2,53,35z"/>
		<path class="st1" d="M50.5,44.8c0,0.9-0.7,1.7-1.7,1.7H42c-0.9,0-1.7-0.7-1.7-1.7v-9c0-0.9,0.7-1.7,1.7-1.7h6.9
			c0.9,0,1.7,0.7,1.7,1.7L50.5,44.8L50.5,44.8z M49.9,32.4h-8.8c-1.2,0-2.1,0.9-2.1,2.1v11.4c0,1.2,0.9,2.1,2.1,2.1h8.8
			c1.2,0,2.1-0.9,2.1-2.1V34.5C52,33.3,51,32.4,49.9,32.4z"/>
		<path class="st1" d="M49,36.5h-4.6c-0.2,0-0.3-0.2-0.3-0.3v0c0-0.2,0.2-0.3,0.3-0.3H49c0.2,0,0.3,0.2,0.3,0.3v0
			C49.3,36.4,49.2,36.5,49,36.5z"/>
		<path class="st1" d="M49,38.6h-7c-0.2,0-0.3-0.2-0.3-0.3v0c0-0.2,0.2-0.3,0.3-0.3h7c0.2,0,0.3,0.2,0.3,0.3v0
			C49.3,38.4,49.2,38.6,49,38.6z"/>
		<path class="st1" d="M49,40.6h-7c-0.2,0-0.3-0.2-0.3-0.3v0c0-0.2,0.2-0.3,0.3-0.3h7c0.2,0,0.3,0.2,0.3,0.3v0
			C49.3,40.5,49.2,40.6,49,40.6z"/>
		<path class="st1" d="M49,42.7h-7c-0.2,0-0.3-0.2-0.3-0.3v0c0-0.2,0.2-0.3,0.3-0.3h7c0.2,0,0.3,0.2,0.3,0.3v0
			C49.3,42.5,49.2,42.7,49,42.7z"/>
		<path class="st1" d="M49,44.7h-7c-0.2,0-0.3-0.2-0.3-0.3v0c0-0.2,0.2-0.3,0.3-0.3h7c0.2,0,0.3,0.2,0.3,0.3v0
			C49.3,44.5,49.2,44.7,49,44.7z"/>
	</g>
	<g>
		<path class="st1" d="M33.6,26.5v12c0,1.2-1,2.2-2.2,2.2h-8.7c-0.2,0-0.4,0-0.6-0.1c0.3,0.8,1.1,1.5,2,1.5h8.8
			c1.2,0,2.1-0.9,2.1-2.1V28.5C35,27.6,34.4,26.8,33.6,26.5z"/>
		<path class="st1" d="M31.1,36.3c0,0.9-0.7,1.7-1.7,1.7h-6.9c-0.9,0-1.7-0.7-1.7-1.7v-9c0-0.9,0.7-1.7,1.7-1.7h6.9
			c0.9,0,1.7,0.7,1.7,1.7L31.1,36.3L31.1,36.3z M30.4,24h-8.8c-1.2,0-2.1,0.9-2.1,2.1v11.4c0,1.2,0.9,2.1,2.1,2.1h8.8
			c1.2,0,2.1-0.9,2.1-2.1V26.1C32.5,24.9,31.6,24,30.4,24z"/>
		<path class="st1" d="M29.5,28.1H25c-0.2,0-0.3-0.2-0.3-0.3v0c0-0.2,0.2-0.3,0.3-0.3h4.6c0.2,0,0.3,0.2,0.3,0.3v0
			C29.9,28,29.7,28.1,29.5,28.1z"/>
		<path class="st1" d="M29.5,30.2h-7c-0.2,0-0.3-0.2-0.3-0.3v0c0-0.2,0.2-0.3,0.3-0.3h7c0.2,0,0.3,0.2,0.3,0.3v0
			C29.9,30,29.7,30.2,29.5,30.2z"/>
		<path class="st1" d="M29.5,32.2h-7c-0.2,0-0.3-0.2-0.3-0.3v0c0-0.2,0.2-0.3,0.3-0.3h7c0.2,0,0.3,0.2,0.3,0.3v0
			C29.9,32,29.7,32.2,29.5,32.2z"/>
		<path class="st1" d="M29.5,34.2h-7c-0.2,0-0.3-0.2-0.3-0.3v0c0-0.2,0.2-0.3,0.3-0.3h7c0.2,0,0.3,0.2,0.3,0.3v0
			C29.9,34.1,29.7,34.2,29.5,34.2z"/>
		<path class="st1" d="M29.5,36.3h-7c-0.2,0-0.3-0.2-0.3-0.3v0c0-0.2,0.2-0.3,0.3-0.3h7c0.2,0,0.3,0.2,0.3,0.3v0
			C29.9,36.1,29.7,36.3,29.5,36.3z"/>
	</g>
	<path class="st1" d="M43.1,25.7h-2.9v0.9c0,0.1-0.1,0.3-0.3,0.3c-0.1,0-0.1,0-0.1,0L37.1,25C37,25,37,24.9,37,24.8l0,0
		c0-0.1,0-0.2,0.1-0.2l2.6-1.8c0.1-0.1,0.3-0.1,0.4,0.1c0,0,0,0.1,0,0.1v0.9h3.8c0.5,0,0.9,0.4,0.9,0.9V30c0,0.2-0.2,0.4-0.4,0.4
		l0,0h-1c-0.2,0-0.4-0.2-0.4-0.4l0,0V25.7z"/>
	<path class="st1" d="M30.2,48.3h2.9v-0.9c0-0.1,0.1-0.3,0.3-0.3c0.1,0,0.1,0,0.1,0l2.6,1.8c0.1,0,0.1,0.1,0.1,0.2l0,0
		c0,0.1,0,0.2-0.1,0.2l-2.6,1.8c-0.1,0.1-0.3,0.1-0.4-0.1c0,0,0-0.1,0-0.1v-0.9h-3.8c-0.5,0-0.9-0.4-0.9-0.9l0,0V44
		c0-0.2,0.2-0.4,0.4-0.4l0,0h1c0.2,0,0.4,0.2,0.4,0.4l0,0V48.3z"/>
</g>
</svg>
