<svg id="Layer_1" data-name="Layer 1" xmlns="http://www.w3.org/2000/svg" viewBox="0 0 74 74"><defs><style>.cls-1{fill:none;stroke:#006faf;stroke-miterlimit:10;stroke-width:2px;}.cls-2{fill:#006faf;}</style></defs><title>database_mirroring</title><circle class="cls-1" cx="37" cy="37" r="36"/><path class="cls-2" d="M18,50.67,34.21,38.36,18,26ZM19.17,28.4l13.1,10-13.1,10Z"/><path class="cls-2" d="M37,38.36,53.17,50.67V26Zm15,10-13.1-10L52,28.4Z"/><path class="cls-2" d="M35.58,44.8a.59.59,0,0,0-.59.59V46a.59.59,0,0,0,1.17,0v-.59A.59.59,0,0,0,35.58,44.8Z"/><path class="cls-2" d="M35.58,41.87a.59.59,0,0,0-.59.59V43a.59.59,0,1,0,1.17,0v-.59A.59.59,0,0,0,35.58,41.87Z"/><path class="cls-2" d="M35.58,47.73a.59.59,0,0,0-.59.59v.59a.59.59,0,0,0,1.17,0v-.59A.59.59,0,0,0,35.58,47.73Z"/><path class="cls-2" d="M35.58,50.66a.59.59,0,0,0-.59.59v.59a.59.59,0,1,0,1.17,0v-.59A.59.59,0,0,0,35.58,50.66Z"/><path class="cls-2" d="M35.58,38.94a.59.59,0,0,0-.59.59v.59a.59.59,0,0,0,1.17,0v-.59A.59.59,0,0,0,35.58,38.94Z"/><path class="cls-2" d="M35.58,30.15a.59.59,0,0,0-.59.59v.59a.59.59,0,1,0,1.17,0v-.59A.59.59,0,0,0,35.58,30.15Z"/><path class="cls-2" d="M35.58,24.29a.59.59,0,0,0-.59.59v.59a.59.59,0,0,0,1.17,0v-.59A.59.59,0,0,0,35.58,24.29Z"/><path class="cls-2" d="M35.58,27.22a.59.59,0,0,0-.59.59v.59a.59.59,0,0,0,1.17,0v-.59A.59.59,0,0,0,35.58,27.22Z"/><path class="cls-2" d="M35.58,36a.59.59,0,0,0-.59.59v.59a.59.59,0,0,0,1.17,0V36.6A.59.59,0,0,0,35.58,36Z"/><path class="cls-2" d="M35.58,33.08a.59.59,0,0,0-.59.59v.59a.59.59,0,0,0,1.17,0v-.59A.59.59,0,0,0,35.58,33.08Z"/><path class="cls-2" d="M25,26.59a.59.59,0,0,0,.76-.33,10.54,10.54,0,0,1,19.39-.48l-3.46-.93a.59.59,0,0,0-.3,1.13l4.53,1.21.15,0h0a.59.59,0,0,0,.19,0,.58.58,0,0,0,.38-.59l1.16-4.34a.59.59,0,1,0-1.13-.3L46,24.77a11.71,11.71,0,0,0-21.29,1.06A.59.59,0,0,0,25,26.59Z"/></svg>