<svg id="Layer_1" data-name="Layer 1" xmlns="http://www.w3.org/2000/svg" viewBox="0 0 74 74"><defs><style>.cls-1,.cls-3{fill:none;stroke:#006faf;stroke-miterlimit:10;}.cls-1{stroke-width:2px;}.cls-2{fill:#fff;}.cls-3{stroke-width:0.5px;}.cls-4{fill:#006faf;}</style></defs><title>data_Imports_exports</title><circle class="cls-1" cx="37" cy="37" r="36"/><rect class="cls-2" x="14.07" y="29.61" width="40.72" height="17.34"/><rect class="cls-3" x="20.75" y="30.31" width="34.74" height="12.08"/><rect class="cls-4" x="49.45" y="33.13" width="1.22" height="1.22"/><rect class="cls-4" x="49.45" y="36.23" width="1.22" height="1.22"/><rect class="cls-4" x="49.45" y="39.33" width="1.22" height="1.22"/><polygon class="cls-4" points="57.36 45.48 57.36 28.2 50.66 28.2 50.66 19.8 41.29 19.8 42.69 18.4 41.84 17.55 38.98 20.41 41.84 23.27 42.69 22.42 41.29 21.02 49.45 21.02 49.45 28.2 25.59 28.2 25.59 19.43 26.99 20.84 27.84 19.98 24.99 17.13 22.19 19.98 23.04 20.84 24.38 19.45 24.38 28.2 18.41 28.2 18.41 45.48 25.59 45.48 25.59 44.26 19.63 44.26 19.63 29.41 56.14 29.41 56.14 44.26 30.46 44.26 30.46 45.48 51.27 45.48 51.27 51.2 49.87 49.8 49.02 50.65 51.88 53.51 54.74 50.65 53.89 49.8 52.49 51.2 52.49 45.48 57.36 45.48"/><polygon class="cls-4" points="36.37 36.72 36.37 35.5 27.42 35.5 27.42 54.24 26.02 52.84 25.17 53.69 28.03 56.55 30.89 53.69 30.03 52.84 28.63 54.24 28.63 36.72 36.37 36.72"/></svg>