<svg id="Layer_1" data-name="Layer 1" xmlns="http://www.w3.org/2000/svg" viewBox="0 0 74 74"><defs><style>.cls-1{fill:none;stroke:#006faf;stroke-miterlimit:10;stroke-width:2px;}.cls-2{fill:#006faf;fill-rule:evenodd;}</style></defs><title>data_mining</title><circle class="cls-1" cx="37" cy="37" r="36"/><path class="cls-2" d="M55.12,35.76c-.81-.16-1.13-.81-.48-1.47C55.6,33,55,32,54,31.2c-.81-1-1.61-1.79-3.06-.81a.72.72,0,0,1-1.29-.49c-.16-1.79-1.61-2-2.9-2-.48,0-1,.33-1-.49.32-2.44-1.29-3.1-3.06-3.58C39,22.73,35,22.73,31.1,22.89a21.47,21.47,0,0,0-7.74,1.3c-1.77.65-2.1,1.3-2.1,3.1V47.17c0,2.77.32,3.26,3.06,4.07a33.37,33.37,0,0,0,9,1,31.1,31.1,0,0,0,10.16-1.3c.81-.33,1.93-.65,2.1-1.63s.64-1,1.45-1a1.82,1.82,0,0,0,2.1-1.47c.16-1,.81-1.3,1.61-.65,1.29,1,2.1.16,2.9-.65,1-.81,1.77-1.79.81-3.1-.64-.65-.32-1.3.64-1.47,1.45-.16,1.61-1.14,1.61-2.28,0-1.3.32-2.61-1.61-2.93ZM43.67,26.48c-3.39,2.12-16.6,2.28-20.31,0,3.22-2.28,16.76-2.44,20.31,0ZM23,28.76a41.52,41.52,0,0,0,21-.16v4.24c0,.81-.48.81-1,1.14a17.26,17.26,0,0,1-4.35.81,36.26,36.26,0,0,1-13.86-.49C23.52,34,23,33.32,23,31.85v-3.1ZM44,40.65c0,.65-.64.81-1,1a21.92,21.92,0,0,1-5.48,1.14A39.58,39.58,0,0,1,25.13,42c-2.1-.49-2.1-.49-2.1-2.61V36.09c0-.16,0-.16.16-.33,5.48,1.63,14.51,2,20.79,0v4.89Zm-1.45,8.63a33.47,33.47,0,0,1-9,1.14,33.47,33.47,0,0,1-9-1.14c-1-.33-1.61-.81-1.45-2a31.65,31.65,0,0,0,0-3.91c9,1.79,13.06,1.79,21,0a31.62,31.62,0,0,0,0,3.91c.16,1.3-.48,1.63-1.45,2Zm4-13A1.8,1.8,0,0,1,48.35,38a1.92,1.92,0,0,1-1.77,1.79c-1,0-.81-.81-.81-2s-.16-1.79.81-1.63Zm7.58,2.93a2.89,2.89,0,0,0-1.61,3.91c.16.49.16.65-.16,1s-.48.49-1,.33c-2.1-.81-3.06-.49-4,1.47-.32.65-.64.49-1.13.49-.64,0-.32-.49-.48-.81V43.42c-.16-1.14,0-1.63,1.45-1.79,1.77-.16,2.9-1.79,2.9-3.75A3.42,3.42,0,0,0,46.9,34.3c-1.13,0-1.13-.49-1.13-1.47a6.64,6.64,0,0,0,0-1.79c.16-.49-.16-1.14.64-1.14.64,0,1.13-.16,1.45.81.48,1.63,1.93,2.12,3.71,1.63a.8.8,0,0,1,1.13.16c.32.33.32.65,0,1.14a2.69,2.69,0,0,0,1.45,3.75c.48.16.81.33.81,1s-.32.65-.81.81Z"/></svg>