<?xml version="1.0" encoding="utf-8"?>
<!-- Generator: Adobe Illustrator 21.0.2, SVG Export Plug-In . SVG Version: 6.00 Build 0)  -->
<svg version="1.1" id="Layer_1" xmlns="http://www.w3.org/2000/svg" xmlns:xlink="http://www.w3.org/1999/xlink" x="0px" y="0px"
	 viewBox="0 0 74 74" style="enable-background:new 0 0 74 74;" xml:space="preserve">
<style type="text/css">
	.st0{fill:#006FAF;}
</style>
<title>health-checks</title>
<path class="st0" d="M37,74C16.6,74,0,57.4,0,37S16.6,0,37,0s37,16.6,37,37S57.4,74,37,74z M37,2C17.7,2,2,17.7,2,37s15.7,35,35,35
	s35-15.7,35-35S56.3,2,37,2z"/>
<g>
</g>
<g>
	<path class="st0" d="M49.4,50.5c-8.3,0-16.6,0-24.9,0c-0.4-0.2-0.8-0.2-0.9-0.7c0-0.2,0-0.4-0.1-0.6c0-0.8,0-1.5,0-2.3
		c0.1-0.2,0.1-0.4,0.1-0.5c0.1-0.9,0.8-1.4,1.3-2.1c1.8-2.1,3.8-3.9,6-5.6c1.4-1.1,2.9-2,4.5-2.9c2.7-1.5,5.4-2.7,8.3-3.6
		c2-0.6,4-1.1,6-1.5c0.1,0,0.2,0,0.3,0c0.1,0.1,0.3,0.1,0.4,0.2c0,6.2,0,12.4,0,18.6C50.4,50.1,50,50.4,49.4,50.5z"/>
	<path class="st0" d="M50.5,24.5c0,0.7,0,1.4,0,2.1c-0.1,0.6-0.5,0.9-1.1,0.9c-1.3,0.2-2.7,0.3-4,0.6c-0.5,0-1,0-1.4,0.2
		c-2.6,0.6-5.1,1.3-7.6,2.3c-2.4,0.9-4.7,2-6.8,3.4c-1.8,1.1-3.5,2.4-5.1,3.8c-0.3,0.2-0.5,0.6-0.9,0.4c0-4.5,0-9,0-13.5
		c0.2-0.2,0.1-0.4,0.1-0.6c0.1-0.3,0.3-0.5,0.6-0.6c0.2,0,0.4,0,0.5-0.1c8.3,0,16.5,0,24.8,0C50.1,23.6,50.4,23.9,50.5,24.5z"/>
</g>
</svg>
