<?xml version="1.0" encoding="utf-8"?>
<!-- Generator: Adobe Illustrator 21.0.2, SVG Export Plug-In . SVG Version: 6.00 Build 0)  -->
<svg version="1.1" id="Layer_1" xmlns="http://www.w3.org/2000/svg" xmlns:xlink="http://www.w3.org/1999/xlink" x="0px" y="0px"
	 viewBox="0 0 74 74" style="enable-background:new 0 0 74 74;" xml:space="preserve">
<style type="text/css">
	.st0{fill:none;stroke:#006FAF;stroke-width:2;stroke-miterlimit:10;}
	.st1{fill:#006FAF;}
</style>
<title>python</title>
<g id="Layer_5">
</g>
<g>
	<circle class="st0" cx="37" cy="37" r="36"/>
	<g>
		<path class="st1" d="M15.9,31.9H13v10.5h2.8c1.7,0,3.1-0.5,4.1-1.5s1.5-2.3,1.5-3.9C21.5,33.6,19.6,31.9,15.9,31.9z M19,40.2
			c-0.8,0.7-1.8,1.1-3.2,1.1h-1.6V33l0,0h1.6c2.9,0,4.3,1.4,4.3,4.1C20.2,38.4,19.8,39.4,19,40.2z"/>
		<path class="st1" d="M24,31.4c-0.2,0-0.4,0.1-0.6,0.2s-0.2,0.3-0.2,0.6c0,0.2,0.1,0.4,0.2,0.6c0.2,0.1,0.3,0.2,0.6,0.2
			c0.2,0,0.4-0.1,0.6-0.2c0.2-0.2,0.2-0.3,0.2-0.6c0-0.2-0.1-0.4-0.2-0.6C24.4,31.5,24.2,31.4,24,31.4z"/>
		<rect x="23.4" y="34.9" class="st1" width="1.2" height="7.5"/>
		<path class="st1" d="M30.3,34.8c-0.4,0-0.8,0.1-1.2,0.4c-0.4,0.3-0.6,0.7-0.8,1.2l0,0v-1.6H27v7.5h1.2v-3.8c0-0.8,0.2-1.5,0.5-2
			s0.8-0.7,1.3-0.7c0.4,0,0.7,0.1,0.9,0.2v-1.3C30.8,34.8,30.6,34.8,30.3,34.8z"/>
		<path class="st1" d="M31,36.1L31,36.1L31,36.1z"/>
		<path class="st1" d="M35,34.7c-1,0-1.8,0.4-2.5,1.1c-0.7,0.7-1,1.7-1,2.9s0.3,2.2,0.9,2.9c0.6,0.7,1.4,1,2.5,1s2-0.2,2.6-0.7v-1.1
			c-0.7,0.6-1.5,0.8-2.3,0.8s-1.3-0.2-1.8-0.7c-0.4-0.5-0.7-1.1-0.7-1.9H38v-0.6c0-1.1-0.3-2-0.8-2.7C36.8,35,36,34.7,35,34.7z
			 M36.9,37.9h-4.1c0.1-0.7,0.3-1.2,0.7-1.6c0.4-0.4,0.9-0.6,1.4-0.6c0.6,0,1,0.2,1.4,0.6C36.7,36.7,36.9,37.2,36.9,37.9L36.9,37.9z
			"/>
		<path class="st1" d="M40.5,35.8c-0.7,0.8-1.1,1.7-1.1,3c0,1.1,0.3,2,1,2.7s1.5,1,2.6,1c0.8,0,1.5-0.2,2.1-0.5l0,0l0,0v-1.1
			c-0.6,0.4-1.2,0.7-1.9,0.7c-0.8,0-1.4-0.3-1.9-0.8s-0.7-1.2-0.7-2.1c0-0.9,0.2-1.6,0.7-2.2c0.5-0.6,1.1-0.8,1.9-0.8
			c0.6,0,1.2,0.2,1.8,0.6v-1.2c-0.5-0.2-1.1-0.4-1.8-0.4C42.2,34.7,41.2,35.1,40.5,35.8z"/>
		<path class="st1" d="M48.8,41.2c-0.2-0.2-0.3-0.6-0.3-1.1v-4.2h1.9v-1h-1.9v-2.2L47.3,33v1.8H46v1h1.3v4.5c0,1.5,0.7,2.2,2,2.2
			c0.5,0,0.8-0.1,1.1-0.2v-1c-0.2,0.2-0.5,0.3-0.8,0.3C49.2,41.6,48.9,41.5,48.8,41.2z"/>
		<path class="st1" d="M59.4,31.9H58l-2.2,3.7c-0.1,0.2-0.3,0.4-0.4,0.8l0,0c-0.1-0.2-0.2-0.5-0.4-0.7L52.8,32h-1.5l3.3,5.2L51,42.4
			h1.5l2.5-4c0.1-0.2,0.2-0.4,0.3-0.5l0,0c0.1,0.2,0.2,0.4,0.2,0.5l2.4,4h1.5L56,37.1L59.4,31.9z"/>
		<path class="st1" d="M60.8,32.2C60.6,32,60.5,32,60.3,32s-0.4,0.1-0.5,0.2c-0.1,0.1-0.2,0.3-0.2,0.5s0.1,0.4,0.2,0.5
			c0.1,0.1,0.3,0.2,0.5,0.2s0.4-0.1,0.5-0.2c0.1-0.1,0.2-0.3,0.2-0.5S60.9,32.3,60.8,32.2z M60.7,33.2c-0.1,0.1-0.3,0.2-0.5,0.2
			s-0.3-0.1-0.5-0.2c-0.1-0.1-0.2-0.3-0.2-0.5s0.1-0.3,0.2-0.5c0.1-0.1,0.3-0.2,0.5-0.2s0.3,0.1,0.5,0.2c0.1,0.1,0.2,0.3,0.2,0.5
			S60.8,33,60.7,33.2z"/>
		<path class="st1" d="M60.3,32.7L60.3,32.7c0.1,0,0.1-0.1,0.2-0.1c0,0,0.1-0.1,0.1-0.2c0-0.1,0-0.1-0.1-0.2c-0.1,0-0.1-0.1-0.3-0.1
			H60V33h0.1v-0.4h0.1c0.1,0,0.1,0.1,0.2,0.2l0.1,0.2h0.2l0,0l-0.1-0.3C60.4,32.8,60.4,32.7,60.3,32.7z M60.2,32.6L60.2,32.6
			l-0.1-0.3h0.1c0.1,0,0.1,0,0.2,0l0.1,0.1C60.4,32.6,60.4,32.6,60.2,32.6z"/>
	</g>
</g>
</svg>
