<?xml version="1.0" encoding="utf-8"?>
<!-- Generator: Adobe Illustrator 21.0.2, SVG Export Plug-In . SVG Version: 6.00 Build 0)  -->
<svg version="1.1" id="Layer_1" xmlns="http://www.w3.org/2000/svg" xmlns:xlink="http://www.w3.org/1999/xlink" x="0px" y="0px"
	 viewBox="0 0 74 74" style="enable-background:new 0 0 74 74;" xml:space="preserve">
<style type="text/css">
	.st0{fill:none;stroke:#006FAF;stroke-width:2;stroke-miterlimit:10;}
	.st1{fill:#006FAF;}
</style>
<title>django</title>
<circle class="st0" cx="37" cy="37" r="36"/>
<g>
	<path class="st1" d="M22.1,30.2h2.1v9.9c-0.9,0.2-1.8,0.3-2.8,0.3c-2.6,0-4-1.2-4-3.4c-0.1-1.9,1.3-3.5,3.2-3.6c0.2,0,0.3,0,0.5,0
		c0.3,0,0.6,0,0.9,0.1L22.1,30.2z M22.1,35.2c-0.2-0.1-0.5-0.1-0.7-0.1c-0.9-0.1-1.7,0.6-1.7,1.5c0,0.1,0,0.2,0,0.3
		c-0.1,0.8,0.5,1.6,1.3,1.8c0.1,0,0.2,0,0.4,0c0.2,0,0.5,0,0.7-0.1V35.2z"/>
	<path class="st1" d="M27.6,33.5v4.9c0.1,1.1-0.1,2.2-0.5,3.2c-0.4,0.7-1,1.3-1.8,1.6l-2-0.9c0.7-0.3,1.3-0.8,1.7-1.4
		c0.4-1,0.5-2.1,0.4-3.2v-4.2H27.6z M25.5,30.2h2.1v2.2h-2.1V30.2z"/>
	<path class="st1" d="M28.9,34c0.9-0.4,1.9-0.6,2.8-0.6c1.1,0,1.8,0.3,2.1,0.9c0.2,0.5,0.3,1.1,0.2,1.6v4.3c-1,0.1-2,0.2-3,0.2
		c-1.8,0-2.6-0.6-2.6-2s1.1-2.2,3.7-2.4v-0.5c0-0.4-0.2-0.5-0.7-0.5c-0.9,0-1.7,0.2-2.5,0.7L28.9,34L28.9,34z M32.3,37.4
		c-1.4,0.1-1.9,0.4-1.9,0.9s0.3,0.6,0.8,0.6c0.3,0,0.7,0,1-0.1L32.3,37.4L32.3,37.4z"/>
	<path class="st1" d="M35.1,33.8c1.1-0.3,2.2-0.5,3.3-0.5c0.8-0.1,1.7,0.2,2.3,0.7c0.5,0.6,0.7,1.3,0.6,2v4.2h-2.1v-4.1
		c0-0.8-0.3-1.1-1-1.1c-0.3,0-0.7,0-1,0.2v5.1h-2.2V33.8z"/>
	<path class="st1" d="M42.3,41.4c0.7,0.4,1.5,0.6,2.3,0.6c1.4,0,2-0.6,2-1.9l0,0c-1.6,0.7-3.4,0-4.2-1.5c-0.2-0.4-0.3-0.9-0.3-1.4
		c0-2.4,1.8-3.8,4.9-3.8c0.9,0,1.9,0.1,2.8,0.3L49,35.2c-0.6-0.1,0,0-0.5-0.1v3.7c0,1.8-0.2,2.7-0.6,3.4c-0.8,1.1-2.1,1.7-3.5,1.5
		c-0.8,0-1.6-0.1-2.3-0.4L42.3,41.4L42.3,41.4z M46.5,35.1h-0.2c-0.4,0-0.9,0.1-1.2,0.3c-0.5,0.3-0.8,0.9-0.8,1.6
		c0,1.1,0.5,1.7,1.5,1.7c0.3,0,0.5-0.1,0.8-0.1L46.5,35.1L46.5,35.1z"/>
	<path class="st1" d="M53.1,33.3c1.8-0.1,3.3,1.2,3.4,3c0,0.2,0,0.4,0,0.5c0.2,1.8-1.2,3.4-3,3.6c-0.2,0-0.3,0-0.5,0
		c-1.8,0.1-3.3-1.2-3.5-3c0-0.2,0-0.3,0-0.5c-0.2-1.8,1.2-3.5,3-3.6C52.7,33.3,52.9,33.3,53.1,33.3L53.1,33.3z M53.1,38.7
		c0.8,0,1.3-0.7,1.3-1.9S53.8,35,53,35s-1.3,0.7-1.3,1.9S52.2,38.7,53.1,38.7L53.1,38.7z"/>
</g>
</svg>
