<?xml version="1.0" encoding="utf-8"?>
<!-- Generator: Adobe Illustrator 21.0.2, SVG Export Plug-In . SVG Version: 6.00 Build 0)  -->
<svg version="1.1" id="Layer_1" xmlns="http://www.w3.org/2000/svg" xmlns:xlink="http://www.w3.org/1999/xlink" x="0px" y="0px"
	 viewBox="0 0 74 74" style="enable-background:new 0 0 74 74;" xml:space="preserve">
<style type="text/css">
	.st0{fill:#006FAF;}
</style>
<title>health-checks</title>
<path class="st0" d="M37,74C16.6,74,0,57.4,0,37S16.6,0,37,0s37,16.6,37,37S57.4,74,37,74z M37,2C17.7,2,2,17.7,2,37s15.7,35,35,35
	s35-15.7,35-35S56.3,2,37,2z"/>
<g>
</g>
<g>
	<path class="st0" d="M22.6,23V51h28.8V23H22.6z M23.8,24.2h26.4v25.7H23.8V24.2z"/>
</g>
<g id="Dw">
	<g>
		<path class="st0" d="M28,31.8c0.7-0.1,1.7-0.2,2.7-0.2c1.7,0,2.9,0.4,3.8,1.2c0.9,0.8,1.4,2.1,1.4,3.9c0,1.9-0.6,3.3-1.4,4.3
			c-0.9,1-2.4,1.5-4.2,1.5c-1,0-1.7-0.1-2.3-0.1C28,42.3,28,31.8,28,31.8z M29.7,40.8c0.2,0,0.6,0,0.9,0c2.2,0,3.5-1.4,3.5-4.1
			c0-2.4-1.2-3.7-3.3-3.7c-0.5,0-0.9,0-1.2,0.1C29.7,33.2,29.7,40.8,29.7,40.8z"/>
		<path class="st0" d="M37.8,34.6l0.7,3.5c0.2,0.8,0.3,1.7,0.4,2.5h0c0.1-0.8,0.4-1.7,0.6-2.5l0.9-3.5h1.4l0.8,3.4
			c0.2,0.9,0.4,1.7,0.5,2.6h0c0.1-0.8,0.3-1.7,0.4-2.6l0.7-3.4H46l-2.1,7.7h-1.6l-0.8-3.1c-0.2-0.8-0.4-1.5-0.5-2.5h0
			c-0.1,1-0.3,1.7-0.5,2.5l-0.9,3.1H38l-2-7.7L37.8,34.6L37.8,34.6z"/>
	</g>
</g>
</svg>
