<?xml version="1.0" encoding="utf-8"?>
<!-- Generator: Adobe Illustrator 21.0.2, SVG Export Plug-In . SVG Version: 6.00 Build 0)  -->
<svg version="1.1" id="Layer_1" xmlns="http://www.w3.org/2000/svg" xmlns:xlink="http://www.w3.org/1999/xlink" x="0px" y="0px"
	 viewBox="0 0 74 74" style="enable-background:new 0 0 74 74;" xml:space="preserve">
<style type="text/css">
	.st0{fill:none;stroke:#006FAF;stroke-width:2;stroke-miterlimit:10;}
	.st1{enable-background:new    ;}
	.st2{fill:#006FAF;}
</style>
<title>health-checks</title>
<circle class="st0" cx="37" cy="37" r="36"/>
<title></title>
<desc></desc>
<g id="Layer_3">
</g>
<g class="st1">
	<path class="st2" d="M31.1,25.4c0.9,0.9,1.4,2,1.4,3.6c0,1.5-0.5,2.7-1.4,3.6c-0.9,0.9-2.3,1.3-4.2,1.3h-3.2v-9.8h3.4
		C28.8,24.1,30.2,24.5,31.1,25.4z M30.9,29c0-2.2-1.3-3.4-3.9-3.4h-1.7v6.7h1.8c1.2,0,2.1-0.3,2.7-0.8C30.5,30.9,30.9,30.1,30.9,29z
		"/>
	<path class="st2" d="M38.3,27.9c-0.8,0-1.4,0.3-1.7,0.8s-0.6,1.2-0.6,2v3.2h-1.6v-7.4H36V28c0.3-0.5,0.6-0.8,1-1.1s0.9-0.5,1.4-0.5
		L38.3,27.9C38.4,27.9,38.4,27.9,38.3,27.9z"/>
	<path class="st2" d="M40.1,24.9c-0.2-0.2-0.3-0.4-0.3-0.7s0.1-0.5,0.3-0.7s0.4-0.3,0.7-0.3s0.5,0.1,0.7,0.3s0.3,0.4,0.3,0.7
		s-0.1,0.5-0.3,0.7s-0.4,0.3-0.7,0.3S40.3,25.1,40.1,24.9z M41.6,33.9H40v-7.4h1.6V33.9z"/>
	<path class="st2" d="M45.4,33.9h-1.6V23.5h1.6V33.9z"/>
	<path class="st2" d="M49.2,33.9h-1.6V23.5h1.6V33.9z"/>
</g>
<g class="st1">
	<path class="st2" d="M24.7,42.2c0.9,0.9,1.4,2,1.4,3.6c0,1.5-0.5,2.7-1.4,3.6c-0.9,0.9-2.3,1.3-4.2,1.3h-3.2v-9.8h3.4
		C22.4,40.9,23.8,41.3,24.7,42.2z M24.5,45.8c0-2.2-1.3-3.4-3.9-3.4H19v6.7h1.8c1.2,0,2.1-0.3,2.7-0.8
		C24.1,47.7,24.5,46.9,24.5,45.8z"/>
	<path class="st2" d="M34.3,49.7c-0.7,0.7-1.7,1.1-2.8,1.1s-2.1-0.4-2.8-1.1C28,49,27.6,48.1,27.6,47s0.4-2,1.1-2.7s1.7-1.1,2.8-1.1
		s2.1,0.4,2.8,1.1s1.1,1.7,1.1,2.7S35,48.9,34.3,49.7z M29.8,48.7c0.4,0.5,1,0.7,1.7,0.7s1.2-0.2,1.7-0.7c0.4-0.5,0.7-1,0.7-1.8
		s-0.2-1.3-0.7-1.8c-0.4-0.5-1-0.7-1.7-0.7s-1.2,0.2-1.7,0.7c-0.4,0.5-0.7,1-0.7,1.8S29.3,48.2,29.8,48.7z"/>
	<path class="st2" d="M40.5,50.7h-1.8l-2.6-7.4h1.6l1.8,5.6l1.8-5.6h1.6l1.8,5.6l1.8-5.6h1.6l-2.6,7.4h-1.8l-1.8-5.1L40.5,50.7z"/>
	<path class="st2" d="M51.4,46.6v4h-1.6v-7.4h1.6v1.4c0.3-0.5,0.6-0.8,1-1.1s0.9-0.4,1.4-0.4c0.8,0,1.5,0.3,2,0.8s0.8,1.3,0.8,2.2
		v4.6H55v-4.1c0-1.4-0.6-2.1-1.7-2.1c-0.5,0-1,0.2-1.4,0.5C51.6,45.4,51.4,45.9,51.4,46.6z"/>
</g>
</svg>
