<?xml version="1.0" encoding="utf-8"?>
<!-- Generator: Adobe Illustrator 21.0.2, SVG Export Plug-In . SVG Version: 6.00 Build 0)  -->
<svg version="1.1" id="Layer_1" xmlns="http://www.w3.org/2000/svg" xmlns:xlink="http://www.w3.org/1999/xlink" x="0px" y="0px"
	 viewBox="0 0 74 74" style="enable-background:new 0 0 74 74;" xml:space="preserve">
<style type="text/css">
	.st0{fill:none;stroke:#006FAF;stroke-width:2;stroke-miterlimit:10;}
	.st1{fill:#006FAF;}
</style>
<title>drupal</title>
<circle class="st0" cx="37" cy="37" r="36"/>
<path class="st1" d="M47.8,30.9c-3.4-4.2-6.2-4.6-8-5.6c-1.5-1-2.8-2.3-3.9-3.7c0,0.9-0.3,1.8-0.8,2.6c-1.2,1.2-2.6,2.2-4.2,2.9
	c-4.6,2.2-7.5,6.9-7.4,12c0,3.3,1.2,6.4,3.4,8.9c2.6,2.9,6.3,4.5,10.1,4.5c3.3,0.1,6.6-1.1,9.2-3.3c2.9-2.6,4.5-6.3,4.3-10.2
	C50.6,36.1,49.6,33.2,47.8,30.9z M44,49.6c-1.7,1.4-6.2,2.2-8.3,0.4c-0.2-0.1-0.2-0.4-0.1-0.6l0,0c0.1-0.1,0.2-0.2,0.3-0.2
	c0.2-0.1,0.4-0.1,0.5,0.1c0.8,0.8,4.8,1.4,7.2-0.2C43.8,49,43.9,49,44,49s0.1,0.1,0.1,0.2C44.1,49.3,44.1,49.5,44,49.6z M38.4,47.5
	c0-0.2,0.1-0.3,0.2-0.5c0.7-0.8,1.6-1.2,2.7-1.3c1.6,0,1.6,0.4,2.1,1.3c0.1,0.1,0.1,0.3,0,0.4c0,0-0.2,0.2-0.3,0.2s-0.2,0-0.3-0.2
	c-0.4-0.9-0.9-0.9-1.6-0.9c-0.8,0-1.6,0.4-2.2,1c-0.2,0.1-0.3,0.2-0.4,0.1C38.5,47.7,38.4,47.6,38.4,47.5z M46.8,47.2
	c-1.5-0.1-3.2-3.5-4.8-3.5c-2.2,0-5.3,3.7-8.9,3.6c-1.8,0-3.8-0.7-3.8-3.5c0.1-2.6,2.4-4.7,5-4.6c3.8,0.1,5.7,3.4,7.5,3.4
	s4-2.9,5.9-2.9c1,0,1.8,0.9,1.8,2.3C49.8,44,48.5,47.3,46.8,47.2z"/>
</svg>
