<?xml version="1.0" encoding="utf-8"?>
<!-- Generator: Adobe Illustrator 21.0.2, SVG Export Plug-In . SVG Version: 6.00 Build 0)  -->
<svg version="1.1" id="Layer_1" xmlns="http://www.w3.org/2000/svg" xmlns:xlink="http://www.w3.org/1999/xlink" x="0px" y="0px"
	 viewBox="0 0 74 74" style="enable-background:new 0 0 74 74;" xml:space="preserve">
<style type="text/css">
	.st0{fill:none;stroke:#006FAF;stroke-width:2;stroke-miterlimit:10;}
	.st1{fill:#006FAF;}
</style>
<circle class="st0" cx="37" cy="37" r="36"/>
<g>
	<path class="st1" d="M22.2,37c0-8.3,6.2-15.2,14.3-16.4c-0.2,0-0.4,0-0.6,0c-9.1,0-16.4,7.3-16.4,16.4c0,9,7.4,16.4,16.4,16.4
		c0.2,0,0.4,0,0.6,0C28.5,52.2,22.2,45.3,22.2,37L22.2,37z"/>
	<g>
		<path class="st1" d="M54.5,36.1L54.5,36.1c0-0.6-0.1-1.3-0.2-1.9h-0.1h-28h-2.8c-0.1,0.6-0.2,1.3-0.2,1.9H54.5L54.5,36.1z"/>
		<path class="st1" d="M53.8,32.5L53.8,32.5c-0.6-2.4-1.9-4.6-3.9-6.6c-2.4-2.4-5.3-3.9-8.5-4.4c-0.8-0.1-1.7-0.2-2.5-0.2
			c-4.3,0-8,1.5-11.1,4.6c-1.9,1.9-3.3,4.1-4,6.6h5.3H53.8z"/>
		<path class="st1" d="M23.8,41.5c0.7,2.4,2,4.6,4,6.6c3.1,3.1,6.8,4.6,11.1,4.6c0.9,0,1.7-0.1,2.5-0.2c3.3-0.5,6.1-2,8.6-4.4
			c1.9-1.9,3.3-4.1,4-6.6l0,0H29.1C29.1,41.5,23.8,41.5,23.8,41.5z"/>
		<path class="st1" d="M26.6,37.9h-3.4c0,0.6,0.1,1.3,0.2,1.9h28.8h2.1l0,0l0,0c0.1-0.6,0.2-1.3,0.2-1.9l0,0H26.6z"/>
		<polygon class="st1" points="54.5,36.1 54.5,36.1 23.2,36.1 23.2,36.1 		"/>
		<polygon class="st1" points="52.2,39.8 23.4,39.8 23.4,39.8 54.3,39.8 54.3,39.8 		"/>
	</g>
</g>
</svg>
