<?xml version="1.0" encoding="utf-8"?>
<!-- Generator: Adobe Illustrator 21.0.2, SVG Export Plug-In . SVG Version: 6.00 Build 0)  -->
<svg version="1.1" id="Layer_1" xmlns="http://www.w3.org/2000/svg" xmlns:xlink="http://www.w3.org/1999/xlink" x="0px" y="0px"
	 viewBox="0 0 74 74" style="enable-background:new 0 0 74 74;" xml:space="preserve">
<style type="text/css">
	.st0{fill:none;stroke:#006FAF;stroke-width:2;stroke-miterlimit:10;}
	.st1{fill:#006FAF;}
</style>
<g>
	<circle class="st0" cx="37" cy="37" r="36"/>
	<g>
		<path class="st1" d="M31.4,34.9h-6.6V41h7.4v1.8h-9.6v-17h9.2v1.8h-7V33h6.6V34.9z"/>
		<path class="st1" d="M40.8,26.2c0.9-0.2,2.4-0.3,4-0.3c2.2,0,3.6,0.4,4.6,1.2c0.9,0.6,1.4,1.6,1.4,3c0,1.6-1.1,3-2.8,3.7l0,0
			c1.6,0.4,3.5,1.7,3.5,4.2c0,1.4-0.6,2.5-1.4,3.4C48.9,42.5,47,43,44.3,43c-1.5,0-2.6-0.1-3.4-0.2L40.8,26.2L40.8,26.2z M43,33h2
			c2.3,0,3.6-1.2,3.6-2.8c0-2-1.5-2.7-3.7-2.7c-1,0-1.6,0.1-1.9,0.1C43,27.6,43,33,43,33z M43,41.1c0.4,0.1,1,0.1,1.8,0.1
			c2.2,0,4.3-0.8,4.3-3.3c0-2.3-2-3.2-4.3-3.2H43V41.1z"/>
		<path class="st1" d="M35,25.8c1.4,0,1.2,0,2.6,0c0,0.2,0,0.4,0,0.6c0,4.8,0,9.5,0,14.3c0,1-0.1,1.9-0.3,2.9
			c-0.6,2.6-2.4,4-4.9,4.5c-0.2,0.1-0.5,0.1-0.8,0.1c-0.1-0.4-0.2-0.8-0.4-1.2c0.1-0.1,0.2-0.1,0.2-0.2c1.3-0.5,3.2-1.6,3.4-2.8
			c0.1-0.6,0.1-1.2,0.1-1.7c0-5.3,0-10.6,0-15.8C35,26.3,35,26.1,35,25.8z"/>
	</g>
</g>
</svg>
