<?xml version="1.0" encoding="utf-8"?>
<!-- Generator: Adobe Illustrator 21.0.2, SVG Export Plug-In . SVG Version: 6.00 Build 0)  -->
<svg version="1.1" id="Layer_1" xmlns="http://www.w3.org/2000/svg" xmlns:xlink="http://www.w3.org/1999/xlink" x="0px" y="0px"
	 viewBox="0 0 74 74" style="enable-background:new 0 0 74 74;" xml:space="preserve">
<style type="text/css">
	.st0{fill:none;stroke:#006FAF;stroke-width:2;stroke-miterlimit:10;}
	.st1{fill:#006FAF;}
</style>
<title>elk</title>
<circle class="st0" cx="37" cy="37" r="36"/>
<path id="path2996" class="st1" d="M25.1,32.9c0,0,0.2-2.4,3.6-2.4c0.6,0,1.3-0.1,1.9-0.2c1.6-0.1,3.3-0.2,4.9-0.1
	c0.4,0,0.9-0.1,1.3-0.3c1.8-1.2,4.2-1.2,6.1-0.1c0.8,0.2,1.6,0.3,2.4,0.3c0,0,0.5,0,0.4-0.4c0,0-0.3-0.5,0.3-0.4
	c0.4,0.1,0.8,0.3,1.2,0.5c0.3,0.1,0.5,0.1,0.8,0c0.1,0,0.7-0.2,0-0.6c-0.2-0.1-0.5-0.2-0.7-0.3c-0.3-0.1-1-0.1-1.5-0.2
	c-2.1-0.4-4-1.5-5.3-3.1c0,0-0.7-1,0.4-0.3c0,0,1.3,1,0.7-0.3c0,0-0.1-0.2,0.2,0l1,0.6c0,0,1,0.5,0.6-0.4c0,0-0.1-0.5,0.4-0.1
	c0.2,0.2,3.6,4,1.4-0.2c0,0-0.1-0.3,0.2-0.1c0.2,0.1,0.4,0.3,0.5,0.5c0,0,1.3,1.6,1.8,2.1c0,0,1.7,2,3.2-0.5
	c0.1-0.1,0.4-0.3,0.2,0.2c-0.1,0.2-0.4,1.1,0.6,0.3c0,0,0.8-0.6,0.4,0.2c0,0-0.1,0.5,0.3,0.2c0,0,1.3-0.7,0.3,0.3
	c-0.7,0.7-1.4,0.8-2.7,1.2c-0.2,0.1-0.5,0.2-0.1,0.6c1.1,0.6,2.2,1.1,3.3,1.5c0.6,0.1,1,0.7,0.9,1.2c0,0.3,0,0.7,0,1
	c-0.2,0.3-0.9,0.2-1.6,0.3c-0.3-0.2-0.5-0.3-0.8-0.4l-0.8,0c0,0-0.2,0-0.4,0.4c-0.4,0.7-0.8,1.3-1.3,1.8c-0.1,0.1-0.5,0.8-0.5-0.2
	v-0.8c0,0,0.2-0.5-0.6-0.2c0,0-1.8,0.6-2.5,0.8c-0.5,0.1-0.7,0.3-0.8,0.7c-0.2,0.6,0.1,1.3-1,2.2c-0.2,0.2,0,0.5,0,0.7
	c0.4,1.2,0.9,2.4,1.6,3.5c0.7,1.3,0.7,2.4,2.3,4.4c0.5,0.6,1,1.1,1.6,1.5c0,0,0.9,0.6-0.4,0.4c-0.3-0.1-0.7-0.1-1-0.1
	c-0.2,0-0.3-0.4-1.1-0.6c0-0.5-0.1-0.9-0.2-1.4c-0.6-1.4-1.5-2.7-2.5-3.8c-1-1.1-1.7-2.3-2.3-3.6c0,0-0.7-1-0.5,0
	c0.1,0.6,0.2,1.2,0.3,1.8c0.2,0.6,0.3,1.2,0.3,1.8c-1.2,1.4-2.6,2.5-4.2,3.5c-0.5,0.3-1,0.5-1.6,0.6L35.2,47c0,0-0.8,0.2-0.4-0.4
	l0.8-1c0,0,0.3-0.7,1.5-0.4c0,0,1.1,0.2,3-1.8c0,0,0.6-0.5,0-1.8c-0.8-1-1.3-2.1-1.6-3.3c-0.1-0.6-0.6-1-1.1-0.9
	c-1.7,0-3.3-0.3-4.9-0.8c0,0-1-0.5-1.3,0.2c-0.5,1.1-1.2,2.1-2,3c0,0-0.7,0.5,0.2,1.7c1.1,2.2,2.6,4.3,4.4,6c0,0,1.1,0.8-0.3,0.7
	c0,0-0.7,0-1,0s-0.2-0.4-0.9-0.5c0.1-0.5,0-1-0.1-1.5c-1.3-2-2.8-3.9-4.4-5.7c0,0-0.7-0.3-0.2-1.2c0,0,0.3-0.8-0.5-0.4
	c-1.6,1-2.5,0.4-3,3.8c0,0-0.3,1.7-0.5,2.6c0,1.6-0.8,3.1-2.3,3.9c0,0-0.9,0.4-0.5-0.4c0.3-0.6,0.1-0.6,1.3-1.9c0,0,0.3-0.2,0.7-1.2
	c0,0,1-5.6,1-6.2v-0.9c0,0-0.1-0.2,0.2-0.3c0,0,2.4-1.5,2-2.9c0-0.4,0-0.8,0.2-1.2c0,0,0.1-0.2-0.1-0.2c0,0-1,0.3-0.5-0.7
	C25,33.2,25.1,33,25.1,32.9z"/>
</svg>
