<?xml version="1.0" encoding="utf-8"?>
<!-- Generator: Adobe Illustrator 21.0.2, SVG Export Plug-In . SVG Version: 6.00 Build 0)  -->
<svg version="1.1" id="Layer_1" xmlns="http://www.w3.org/2000/svg" xmlns:xlink="http://www.w3.org/1999/xlink" x="0px" y="0px"
	 viewBox="0 0 74 74" style="enable-background:new 0 0 74 74;" xml:space="preserve">
<style type="text/css">
	.st0{fill:none;stroke:#006FAF;stroke-width:2;stroke-miterlimit:10;}
	.st1{fill:#0071B5;}
	.st2{fill:#006FAF;}
</style>
<title>os-patch-management</title>
<circle class="st0" cx="37" cy="37" r="36"/>
<path class="st1" d="M57,12.2L57,12.2L57,12.2z"/>
<path class="st1" d="M57,12.2L57,12.2L57,12.2z"/>
<path class="st2" d="M46.4,38.1c0,0-0.2-0.7,0.6-2.1c0.8-1.4,1.3-0.6,1.3-0.6s0.6,0.7-0.1,1.8C47.5,38.2,46.4,38.1,46.4,38.1
	 M40.6,39.1c-0.9,2.3-3,1.3-3,1.3s-0.2-0.8,0.4-3.1c0.7-2.3,2.3-1.4,2.3-1.4S41.5,36.9,40.6,39.1 M39,29.6c0,0,1.3-3.4,1.6-1.8
	c0.3,1.7-2.7,6.6-2.7,6.6C37.9,33.4,39,29.6,39,29.6 M20.3,38.1c0.1-2.2,1.5-3.2,2-2.7s0.3,1.5-0.6,2.2
	C20.7,38.3,20.3,38.1,20.3,38.1 M60,37.8c-0.1-0.7-0.7-0.5-0.7-0.5s-1.1,0.8-2,0.7s-0.6-2.2-0.6-2.2s0.2-1.9-0.4-2.1
	c-0.6-0.2-1.2,0.5-1.2,0.5s-0.9,0.9-1.3,2.1h-0.1c0,0,0.1-2.1,0-2.6c-0.1-0.2-1.1-0.2-1.3,0.2s-1,3.4-1,4.6c0,0-1.6,1.3-3,1.6
	c-1.4,0.2-1.7-0.6-1.7-0.6s3.8-1.1,3.6-4.1c-0.1-3-3-1.9-3.4-1.6c-0.3,0.2-2,1.3-2.5,4.1c0,0.1,0,0.5,0,0.5s-1.5,1-2.3,1.2
	c0,0,2.3-3.8-0.5-5.6c-1.3-0.8-2.3,0.8-2.3,0.8s3.7-4.2,2.9-7.7c-0.4-1.7-1.2-1.9-2-1.6c-1.2,0.5-1.6,1.1-1.6,1.1s-1.5,2.2-1.9,5.5
	s-0.9,7.2-0.9,7.2S35.1,40,34.4,40S34,38,34,38s0.5-3.1,0.5-3.6s-0.1-0.8-0.7-1c-0.6-0.2-1.3,0.6-1.3,0.6s-1.8,2.7-1.9,3.1l-0.1,0.2
	l-0.1-0.1c0,0,1.2-3.6,0.1-3.7c-1.2-0.1-2,1.3-2,1.3s-1.3,2.3-1.4,2.5L27,37.2c0,0,0.6-2.6,0.4-3.3c-0.1-0.6-0.7-0.5-0.7-0.5
	s-0.8-0.1-1,0.4s-0.9,3.8-1,4.9c0,0-1.9,1.4-3.2,1.4c-1.3,0-1.1-0.8-1.1-0.8s4.7-1.6,3.4-4.8c-0.6-0.8-1.2-1.1-2.2-1.1
	c-0.9,0-2.1,0.6-2.8,2.3c-0.4,0.8-0.5,1.6-0.5,2.2c0,0-0.9,0.2-1.3-0.2s-0.7,0-0.7,0s-0.8,1.1,0,1.4c0.8,0.3,1.9,0.6,1.9,0.6
	c0.1,0.5,0.4,1.3,1.3,2c1.4,1.1,4-0.2,4-0.2l1.1-0.6c0,0,0,1,0.8,1.1s1.1,0,2.5-3.4c0.8-1.7,0.9-1.6,0.9-1.6h0.1
	c0,0-0.6,3.3-0.4,4.2s1.3,0.8,1.3,0.8s0.6,0.2,1-1.4c0.5-1.6,1.3-3.3,1.3-3.3h0.1c0,0-0.4,3.3,0.2,4.3c0.6,1.1,2.1,0.3,2.1,0.3
	s1.1-0.6,1.2-0.7c0,0,1.3,1.1,3.1,0.9c4-0.8,5.4-1.9,5.4-1.9s0.7,1.7,2.8,1.9c2.4,0.2,3.8-1.4,3.8-1.4s0,1,0.8,1.3
	c0.9,0.4,1.4-1.5,1.4-1.5l1.4-3.8h0.1c0,0,0.1,2.4,1.5,2.8c1.4,0.4,3.2-1,3.2-1S60.1,38.5,60,37.8"/>
</svg>
