<?xml version="1.0" encoding="utf-8"?>
<!-- Generator: Adobe Illustrator 21.0.2, SVG Export Plug-In . SVG Version: 6.00 Build 0)  -->
<svg version="1.1" id="Layer_1" xmlns="http://www.w3.org/2000/svg" xmlns:xlink="http://www.w3.org/1999/xlink" x="0px" y="0px"
	 viewBox="0 0 74 74" style="enable-background:new 0 0 74 74;" xml:space="preserve">
<style type="text/css">
	.st0{fill:#006FAF;}
</style>
<title>digital-transformation</title>
<path class="st0" d="M37,74C16.6,74,0,57.4,0,37C0,16.6,16.6,0,37,0c20.4,0,37,16.6,37,37C74,57.4,57.4,74,37,74z M37,2
	C17.7,2,2,17.7,2,37s15.7,35,35,35s35-15.7,35-35S56.3,2,37,2z"/>
<g>
	<path class="st0" d="M44.6,30.8c0-7.2-5.9-13-13.1-13c-7.2,0-13,5.8-13,13V31h1l0.2-0.1l0-0.2C19.8,24.3,25.1,19,31.5,19
		c6.4,0,11.6,5.2,11.8,11.6h-0.5c-0.4,0-0.9,0-1.3,0.1c0-5.5-4.5-9.9-9.9-9.9c-5.5,0-9.9,4.5-9.9,9.9c0,1.3-1.1,2.5-2.5,2.5h-0.2
		v1.3h0.2c2.1,0,3.7-1.6,3.7-3.7c0-4.8,3.9-8.7,8.7-8.7s8.7,3.9,8.7,8.7v0.1c-0.6,0.1-1.2,0.3-1.8,0.5v-0.6c0-3.8-3.1-6.8-6.8-6.8
		s-6.8,3.1-6.8,6.8l0,0.3c-0.2,3-2.6,5.3-5.5,5.3H19v1.3h0.2c3.6,0,6.6-2.9,6.8-6.5v-0.3c0-3.1,2.5-5.5,5.5-5.5
		c3.1,0,5.5,2.5,5.5,5.5V32c-0.7,0.3-1.3,0.7-1.8,1.1v-2.3c0-2.1-1.6-3.7-3.7-3.7c-2.1,0-3.7,1.6-3.7,3.7l0,0.6
		c-0.3,4.5-4.1,8.1-8.7,8.1H19v1.3h0.2c5.2,0,9.5-4.1,9.9-9.2V31h0.1v-0.2c0-1.3,1.1-2.5,2.5-2.5s2.5,1.1,2.5,2.5v3.4
		c-1.8,1.7-3,3.8-3.5,6.2c-2.7,3.2-6.6,5.1-10.6,5.3l-0.2,0l-0.1,1.2l0.2,0c3.7-0.2,7.4-1.7,10.2-4.3c0,0.3,0,0.5,0,0.8
		c0,0.5,0,1,0.1,1.5c-2.6,2-5.6,3.3-8.8,3.7l-0.2,0l0.2,1.3l0.2,0c3.2-0.4,6.3-1.6,8.8-3.6c0.2,0.6,0.3,1.2,0.6,1.8
		c-2.1,1.5-4.5,2.6-7.1,3.2l-0.2,0l0.3,1.3l0.2,0c2.7-0.6,5.1-1.7,7.2-3.2c0.2,0.5,0.5,0.9,0.8,1.3l0.2,0.3c-1.4,1-3,1.8-4.7,2.5
		l-0.2,0.1l0.5,1.2l0.2-0.1c1.7-0.6,3.3-1.5,5-2.7c2.5,2.8,5.9,4.3,9.5,4.3c7,0,12.7-5.7,12.7-12.7C55.6,37.1,50.9,31.6,44.6,30.8z
		 M54.3,43.4c0,6.3-5.1,11.5-11.5,11.5c-6.3,0-11.5-5.1-11.5-11.5s5.1-11.5,11.5-11.5C49.2,31.9,54.3,37.1,54.3,43.4z"/>
	<path class="st0" d="M36.7,45c-0.9,0-1.6-0.7-1.6-1.6s0.7-1.6,1.6-1.6c0.9,0,1.6,0.7,1.6,1.6S37.6,45,36.7,45z M36.7,42.7
		c-0.4,0-0.6,0.3-0.6,0.6c0,0.4,0.3,0.6,0.6,0.6c0.4,0,0.6-0.3,0.6-0.6C37.3,43,37,42.7,36.7,42.7z"/>
	<path class="st0" d="M37.7,38.9c-2.5,0-4.5,2-4.5,4.5c0,2.5,2,4.5,4.5,4.5c1.9,0,3.7-1.3,4.3-3.1h4.4v1.8h1.2v-1.8h0.2V47h1.2v-2.3
		H49v1.2h1.2v-1.2h1v-1.2h-9.1v-0.5H52v-1H41.9C41.3,40.2,39.6,38.9,37.7,38.9z M40.9,43.4c0,0.9-0.3,1.7-0.9,2.3
		c-0.6,0.7-1.5,1-2.4,1c-1.8,0-3.3-1.5-3.3-3.3s1.5-3.3,3.3-3.3C39.4,40.1,40.9,41.6,40.9,43.4z"/>
	<path class="st0" d="M32.1,31.5v-0.8l-1.3-0.1l0,0.8c-0.4,6.2-5.5,11.1-11.7,11.1H19v1.3h0.2C26,43.8,31.7,38.4,32.1,31.5z"/>
</g>
</svg>
