<?xml version="1.0" encoding="utf-8"?>
<!-- Generator: Adobe Illustrator 21.0.2, SVG Export Plug-In . SVG Version: 6.00 Build 0)  -->
<svg version="1.1" id="Layer_1" xmlns="http://www.w3.org/2000/svg" xmlns:xlink="http://www.w3.org/1999/xlink" x="0px" y="0px"
	 viewBox="0 0 74 74" style="enable-background:new 0 0 74 74;" xml:space="preserve">
<style type="text/css">
	.st0{fill:#006FAF;}
</style>
<title>health-checks</title>
<path class="st0" d="M37,74C16.6,74,0,57.4,0,37S16.6,0,37,0s37,16.6,37,37S57.4,74,37,74z M37,2C17.7,2,2,17.7,2,37s15.7,35,35,35
	s35-15.7,35-35S56.3,2,37,2z"/>
<g>
</g>
<g>
	<path class="st0" d="M46,37.8c-0.1-0.1-0.1-0.2-0.1-0.3c0-2.7,0-5.5,0-8.2c0-1.1-0.2-2.2-0.6-3.3c-1.6-4-5.7-6.3-9.9-5.5
		c-3.6,0.7-6.4,3.5-7.1,7c-0.2,0.9-0.2,1.8-0.2,2.8c0,0.2,0,0.2,0.2,0.2c1,0,2.1,0,3.1,0c0.2,0,0.2-0.1,0.2-0.2c0-0.7,0-1.3,0.1-2
		c0.5-3,3.6-4.9,6.5-4.2c2.4,0.6,4.1,2.7,4.1,5.2c0,1,0,2,0,3.1c0,0.6,0,1.2,0,1.7h-0.1c0,0-0.1,0-0.1-0.1c-2.4-1.3-5-1.7-7.7-1.1
		c-5.7,1.4-9.2,7.3-7.6,13c1.5,5.4,6.8,8.6,12.2,7.5c4.4-0.9,7.7-4.5,8.3-9C47.7,42.1,47.2,39.8,46,37.8z M37,50.1
		c-3.8,0-6.9-3.1-6.9-6.9c0-3.8,3.1-6.9,6.9-6.9s6.9,3.1,6.9,6.9S40.8,50.1,37,50.1z"/>
	<path class="st0" d="M37,40.2c-1.6,0-2.9,1.3-2.9,3c0,1.6,1.3,2.9,3,2.9c1.6,0,2.9-1.3,2.9-3C40,41.5,38.7,40.2,37,40.2z"/>
</g>
</svg>
