<?xml version="1.0" encoding="utf-8"?>
<!-- Generator: Adobe Illustrator 21.0.2, SVG Export Plug-In . SVG Version: 6.00 Build 0)  -->
<svg version="1.1" id="Layer_1" xmlns="http://www.w3.org/2000/svg" xmlns:xlink="http://www.w3.org/1999/xlink" x="0px" y="0px"
	 viewBox="0 0 74 74" style="enable-background:new 0 0 74 74;" xml:space="preserve">
<style type="text/css">
	.st0{fill:none;stroke:#006FAF;stroke-width:2;stroke-miterlimit:10;}
	.st1{fill:#006FAF;}
</style>
<title>Cloud &amp;amp; Infrastructure Services</title>
<circle class="st0" cx="37" cy="37" r="36"/>
<path class="st1" d="M42.8,38.6c0.3-0.2,0.6-0.4,0.4-0.8c0-0.1,0-0.2,0.1-0.3c0.6-1.8,1.1-3.7,1.7-5.5c0.8-2.6,2.3-3.4,4.7-3.5
	c0.7,0,1.5-0.1,2.2,0s1.4,0.3,2.1,0.4c0,0.1-0.1,0.3-0.2,0.4c-1,2-2,3.9-3,5.9c-0.9,1.7-2,3.3-3.3,4.8c-0.9,0.9-1.9,1.6-3.3,1.5
	c-1.8-0.1-3.6,0-5.4,0c-1.4,0-2.4-0.6-3.1-1.8c-0.5-1-0.9-2-1.3-3.1c-0.4-1.4-0.7-2.9-1.1-4.4c-0.1-0.2-0.1-0.4-0.3-0.7
	c-0.9,0.6-1.5,1.4-2,2.3c-0.7,1.3-1.1,2.8-1.5,4.2c-0.6,2.6-2.1,3.7-4.7,3.7c-0.6,0-1.2,0-1.8,0c-0.3,0-0.7-0.2-1-0.4
	c-0.1-0.1-0.1-0.4-0.1-0.7c0.7-2.5,1.6-4.9,3-7.2c0.9-1.5,2-2.9,3.5-4c0.8-0.6,1.7-0.9,2.7-0.8c1.6,0,3.2,0,4.8,0
	c0.5,0,1.1,0.2,1.6,0.4c0.1,0,0.2,0.1,0.3,0.1c0.7-0.2,1.2,0.2,1.7,0.7c0.8,0.9,1.2,1.9,1.5,2.9c0.5,1.7,0.9,3.4,1.4,5.2
	C42.6,38.2,42.7,38.3,42.8,38.6z"/>
</svg>
