<?xml version="1.0" encoding="utf-8"?>
<!-- Generator: Adobe Illustrator 21.0.0, SVG Export Plug-In . SVG Version: 6.00 Build 0)  -->
<svg version="1.1" id="Layer_1" xmlns="http://www.w3.org/2000/svg" xmlns:xlink="http://www.w3.org/1999/xlink" x="0px" y="0px"
	 viewBox="0 0 74 74" style="enable-background:new 0 0 74 74;" xml:space="preserve">
<style type="text/css">
	.st0{fill:none;stroke:#006FAF;stroke-width:2;stroke-miterlimit:10;}
	.st1{fill:#006FAF;stroke:#006FAF;stroke-width:0.25;stroke-miterlimit:10;}
</style>
<title>Azure_Site_Recovery</title>
<circle class="st0" cx="37" cy="37" r="36"/>
<g>
	<path class="st1" d="M36.9,52.5c-5.2,0-10.4,0-15.6,0c-2.8,0-4.4-1.6-4.4-4.3c0-8.1,0-16.2,0-24.3c0-2.7,1.6-4.3,4.3-4.3
		c2.7,0,5.3,0,8,0c0.8,0,1.5,0.2,1.8,0.9c0.6,1.2,1.5,1.4,2.8,1.4c7-0.1,14,0,21,0c2,0,2.1,0.1,2.1,2.2c0,5.9,0,11.9,0,17.8
		c0,2.2,0,4.4,0,6.6c0,2.5-1.7,4.1-4.2,4.1C47.5,52.5,42.2,52.5,36.9,52.5z M37,25.5c-5.3,0-10.6,0-15.8,0c-1.1,0-1.5,0.3-1.5,1.3
		c0,0.2-0.1,0.5-0.1,0.7c0,6.8,0,13.5,0,20.3c0,1.6,0.4,2.1,1.7,2.1c10.4,0,20.8,0,31.2,0c1.1,0,1.7-0.5,1.7-1.6
		c0-7.2,0-14.4,0-21.6c0-0.9-0.3-1.1-1.2-1.1C47.7,25.5,42.4,25.5,37,25.5z M23.9,21.1c-0.7,0.1-1.3,0.5-1.3,1.4
		c0,0.8,0.5,1.3,1.3,1.3c0.8,0,1.3-0.5,1.3-1.3C25.2,21.6,24.7,21.2,23.9,21.1z M20.1,21.1c-0.7,0.1-1.2,0.6-1.2,1.4
		c0,0.8,0.6,1.3,1.4,1.2c0.8,0,1.3-0.6,1.2-1.4C21.5,21.6,21,21.1,20.1,21.1z M26.2,22.3c0,0.9,0.5,1.4,1.3,1.4
		c0.8,0,1.2-0.4,1.3-1.2c0-0.8-0.4-1.3-1.2-1.4C26.7,21.1,26.3,21.6,26.2,22.3z"/>
	<path class="st1" d="M46.3,39.8c-0.1,0.2-0.2,0.4-0.4,0.7c-0.1,0.1-0.2,0.2-0.2,0.3c-0.7,1.4-1.8,2.4-3,3.4
		c-0.2-0.3-0.5-0.2-0.8-0.3c0-0.3,0.1-0.6,0.1-0.9c0.3-0.1,0.6-0.1,0.2-0.5c0.1-1.3,0.7-2.3,1.2-3.4c0.5-0.1,1.1,0.2,1.7-0.2
		c-0.5-0.3-0.7-0.9-0.9-1.3c1.3-3,3.1-5.9,4.8-8.7c0.9-1.6,1.9-1.9,3.2-1.6c0.8,0.2,1.1,0.6,1.1,1.4c0,0.5,0,1.1-0.2,1.6
		c-0.6,1.4-1.4,2.8-2.2,4.1c-0.1,0.1-0.2,0.4-0.4,0.2c-0.1-0.1,0-0.4,0-0.6c0.6-1.2,1.7-2.3,1.6-3.9c-0.7,1.3-1.3,2.6-2,3.8
		c-1,1.6-1.8,3.4-2.9,4.9c-0.3,0-0.6,0-0.8,0c-0.3,0-0.8-0.1-0.8,0.4C45.4,39.8,45.9,39.7,46.3,39.8z"/>
	<path class="st1" d="M41.9,43.8c0.3,0.1,0.6,0,0.8,0.3c-0.3,0.1-0.6,0.3-0.9,0.4c-1.6,0.7-2.4,0.3-2.8-1.3
		c-0.4-1.5-0.6-1.6-2.1-1.4c-1.9,0.2-3.5,1.1-5.2,1.6c-1.4,0.4-1.5,0.4-1.3-1.1c0.1-0.8-0.4-0.8-0.9-0.7c-1.5,0.2-2.9,0.9-4.3,1.4
		c-1.1,0.4-2.2,0.6-3.3,0.7c-0.5,0-1,0-1.3-0.5c-0.2-0.2-0.3-0.5-0.1-0.8c0.3-0.3,0.4,0.1,0.6,0.2c1.4,0.6,2.6,0,3.9-0.4
		c1.4-0.4,2.8-1,4.3-1.4c1.3-0.4,1.7,0,2,1.3c0.1,0.7,0.4,0.4,0.8,0.3c0.8-0.3,1.6-0.6,2.4-0.9c0.8-0.3,1.6-0.6,2.5-0.7
		c1.9-0.2,2.5,0.2,3,2.1C40.1,44.2,40.5,44.4,41.9,43.8z"/>
	<path class="st1" d="M44.2,37.5c0.3,0.5,0.4,1,0.9,1.3c-0.6,0.3-1.1,0.1-1.7,0.2C43.7,38.5,43.9,38,44.2,37.5z"/>
	<path class="st1" d="M46.3,39.8c-0.4-0.1-0.9,0-0.8-0.6c0.1-0.5,0.5-0.4,0.8-0.4c0.3,0,0.6,0,0.8,0c-0.1,0.7-0.8,0.2-1.1,0.6
		c0,0,0,0.1,0,0.1c0,0,0.1,0.1,0.1,0.1C46.2,39.6,46.2,39.7,46.3,39.8L46.3,39.8z"/>
	<path class="st1" d="M42.2,42.4c0.4,0.4,0.1,0.4-0.2,0.5C42.1,42.7,42.2,42.6,42.2,42.4z"/>
	<path class="st1" d="M46.3,39.7c0-0.1-0.1-0.2-0.1-0.3C46.3,39.5,46.5,39.5,46.3,39.7z"/>
	<path class="st1" d="M45.7,40.7c0.1-0.1,0.2-0.2,0.2-0.3C45.8,40.5,45.8,40.6,45.7,40.7z"/>
</g>
</svg>
