<?xml version="1.0" encoding="utf-8"?>
<!-- Generator: Adobe Illustrator 21.0.2, SVG Export Plug-In . SVG Version: 6.00 Build 0)  -->
<svg version="1.1" id="Layer_1" xmlns="http://www.w3.org/2000/svg" xmlns:xlink="http://www.w3.org/1999/xlink" x="0px" y="0px"
	 viewBox="0 0 74 74" style="enable-background:new 0 0 74 74;" xml:space="preserve">
<style type="text/css">
	.st0{fill:none;stroke:#006FAF;stroke-width:2;stroke-miterlimit:10;}
	.st1{fill:#006FAF;}
</style>
<title>Cloud &amp;amp; Infrastructure Services</title>
<circle class="st0" cx="37" cy="37" r="36"/>
<g>
	<path class="st1" d="M40,38c-0.1-0.1-0.1-0.2,0-0.2c0.4-0.2,0.7-0.4,1-0.8c0.5-0.6,0.6-1.4,0.5-2.1c-0.1-0.8-0.5-1.5-1.3-1.9
		c-0.5-0.3-1.1-0.4-1.7-0.4c-1.2,0-2.3,0-3.5,0c-0.1,0-0.1,0-0.1,0.1c0,2.8,0,5.7,0,8.5c0,0.1,0,0.1,0.1,0.1c0.8,0,1.6,0,2.4,0
		c0.1,0,0.1,0,0.1-0.1c0-0.7,0-1.3,0-2c0-0.2,0-0.3,0-0.5c0.1,0.1,0.1,0.1,0.1,0.2c0.5,0.8,1,1.5,1.4,2.3c0.1,0.1,0.2,0.2,0.3,0.2
		c0.6,0,1.2,0,1.8,0c0.4,0,0.9,0,1.3,0c0,0,0-0.1-0.1-0.1C41.7,40.2,40.9,39.1,40,38z M38.7,36.4c-0.3,0.1-0.6,0.1-1,0.2
		c-0.1,0-0.1-0.1-0.1-0.1c0-0.3,0-0.6,0-0.9c0-0.3,0-0.6,0-0.9c0-0.1,0-0.1,0.1-0.1c0.3,0,0.6,0,0.9,0.2c0.4,0.1,0.6,0.4,0.6,0.9
		C39.2,36,39.1,36.2,38.7,36.4z"/>
	<path class="st1" d="M53,36.8c-0.1-0.1-0.1-0.2,0-0.3c0.9-1.2,1.8-2.5,2.7-3.7c0-0.1,0.1-0.1,0.1-0.2c0,0,0,0-0.1,0c-1,0-2,0-3,0
		c-0.1,0-0.1,0-0.2,0.1c-0.3,0.5-0.6,0.9-0.9,1.4c-0.1,0.1-0.1,0.2-0.2,0.4c0-0.1-0.1-0.1-0.1-0.2c-0.3-0.5-0.6-1-0.9-1.5
		c0-0.1-0.1-0.1-0.2-0.1c-1,0-2.1,0-3.1,0c0.1,0.1,0.1,0.1,0.1,0.2c0.8,1.2,1.7,2.5,2.5,3.7c0.1,0.1,0.1,0.2,0,0.3
		c-1.1,1.5-2.2,3-3.3,4.5c0,0-0.1,0.1-0.1,0.2c0.1,0,0.1,0,0.2,0c0.9,0,1.9,0,2.8,0c0.1,0,0.2,0,0.3-0.1c0.5-0.8,1.1-1.5,1.7-2.3
		c0,0,0-0.1,0.1-0.1c0,0.1,0.1,0.1,0.1,0.2c0.4,0.8,0.9,1.5,1.3,2.3c0.1,0.1,0.1,0.1,0.2,0.1c1,0,1.9,0,2.9,0H56
		c0-0.1-0.1-0.1-0.1-0.2C54.9,39.7,54,38.3,53,36.8z"/>
	<path class="st1" d="M22.1,38c-0.8,1.2-2.4,1.4-3.3,0.5c-0.8-0.8-0.8-2.2,0.1-3s2.4-0.5,3.2,0.6c0.4-0.7,0.9-1.4,1.3-2.1
		c0.1-0.1,0.1-0.2,0-0.3c-1.1-1.1-2.5-1.5-4-1.2c-2.5,0.4-4.3,3-3.7,5.5c0.6,2.5,2.8,4,5.3,3.6c0.9-0.2,1.7-0.6,2.4-1.2
		c0.1-0.1,0.1-0.1,0-0.2C23,39.4,22.5,38.7,22.1,38z"/>
	<path class="st1" d="M34.3,32.8c0-0.2,0-0.2-0.2-0.2c-1,0-2.1,0-3.1,0c-1.1,0-2.1,0-3.2,0c-0.1,0-0.2,0-0.2,0.2c0,0.7,0,1.3,0,2
		c0,0.1,0,0.2,0.2,0.2c0.6,0,1.1,0,1.7,0c0.2,0,0.2,0,0.2,0.2c0,2,0,4.1,0,6.1c0,0.1,0,0.2,0.2,0.2c0.8,0,1.5,0,2.3,0
		c0.2,0,0.2,0,0.2-0.2c0-2,0-4.1,0-6.1c0-0.2,0-0.2,0.2-0.2c0.5,0,1.1,0,1.6,0c0.2,0,0.2-0.1,0.2-0.2C34.3,34.1,34.3,33.4,34.3,32.8
		z"/>
	<path class="st1" d="M43.4,41.4c0.8,0,1.6,0,2.3,0c0.1,0,0.2,0,0.1-0.2c0-2.8,0-5.7,0-8.5c0-0.1-0.1-0.2-0.2-0.2
		c-0.8,0-1.5,0-2.3,0c-0.1,0-0.2,0-0.2,0.2c0,1.4,0,2.8,0,4.2s0,2.8,0,4.2C43.2,41.4,43.2,41.4,43.4,41.4z"/>
	<path class="st1" d="M26.9,37c0-1.4,0-2.8,0-4.3c0-0.1,0-0.2-0.2-0.2c-0.8,0-1.5,0-2.3,0c-0.1,0-0.2,0-0.2,0.2c0,2.8,0,5.7,0,8.5
		c0,0.1,0,0.2,0.2,0.2c0.8,0,1.5,0,2.3,0c0.1,0,0.2,0,0.2-0.2C26.9,39.8,26.9,38.4,26.9,37z"/>
	
		<ellipse transform="matrix(1 -1.191893e-03 1.191893e-03 1 -3.597697e-02 3.053394e-02)" class="st1" cx="25.6" cy="30.2" rx="1.7" ry="1.7"/>
	<path class="st1" d="M44.6,42.1c-0.9,0-1.7,0.7-1.7,1.6c0,0.9,0.7,1.7,1.6,1.7c0.9,0,1.7-0.7,1.7-1.6
		C46.2,42.9,45.5,42.2,44.6,42.1z"/>
	<path class="st1" d="M57.4,32.6c-0.6,0-1.1,0.5-1.1,1.1s0.5,1.1,1.1,1.1s1.1-0.5,1.1-1.1C58.5,33,58,32.6,57.4,32.6z M57.4,34.6
		c-0.5,0-0.9-0.4-0.9-0.9s0.4-0.9,0.9-0.9s0.9,0.4,0.9,0.9C58.4,34.1,58,34.5,57.4,34.6z"/>
	<path class="st1" d="M57.9,33.3c0-0.2-0.2-0.2-0.3-0.3c-0.2,0-0.3,0-0.5,0C57,33,57,33,57,33.1c0,0.3,0,0.6,0,1
		c0,0.1,0,0.1,0.1,0.1s0.1,0,0.1-0.1V34c0-0.3,0-0.3,0.3-0.2c0.1,0,0.2,0.1,0.2,0.2c0,0.1,0,0.1,0,0.2c0,0.1,0.1,0.1,0.1,0.1
		s0.1,0,0.1-0.1c0-0.2,0-0.4-0.3-0.5C57.9,33.6,57.9,33.5,57.9,33.3z M57.4,33.6c-0.2,0-0.1-0.1-0.1-0.2c0-0.1,0-0.2,0.2-0.2
		s0.3,0.1,0.3,0.2C57.7,33.5,57.6,33.6,57.4,33.6z"/>
</g>
</svg>
