<?xml version="1.0" encoding="utf-8"?>
<!-- Generator: Adobe Illustrator 21.0.2, SVG Export Plug-In . SVG Version: 6.00 Build 0)  -->
<svg version="1.1" id="Layer_1" xmlns="http://www.w3.org/2000/svg" xmlns:xlink="http://www.w3.org/1999/xlink" x="0px" y="0px"
	 viewBox="0 0 74 74" style="enable-background:new 0 0 74 74;" xml:space="preserve">
<style type="text/css">
	.st0{fill:#006FAF;}
</style>
<title>health-checks</title>
<path class="st0" d="M37,0C16.6,0,0,16.6,0,37s16.6,37,37,37s37-16.6,37-37S57.4,0,37,0z M37,72C17.7,72,2,56.3,2,37S17.7,2,37,2
	s35,15.7,35,35S56.3,72,37,72z"/>
<g>
	<path class="st0" d="M17.7,38.7c-0.5,0-1,0-1.5,0c-0.4,0-1,0.2-1.2-0.1c-0.2-0.3-0.1-0.8-0.1-1.3c0.6,0,1.2,0,1.8,0
		c0.8,0,0.8,0,0.8-0.9l0,0c0,0,0,0,0,0c-0.1-0.1-0.2-0.1-0.3-0.1c-0.5,0-1,0-1.5,0c-0.9,0-0.8,0-0.8-0.9c0-0.2,0.1-0.3,0.3-0.3
		c0.8,0,1.7,0,2.5,0c0.2-0.2,0-0.5,0.1-0.7c0.1-0.2-0.1-0.3-0.3-0.3c-1.3,0-2.5,0-3.8,0c0,0,0,0.1,0,0.1c0,1.8,0,3.6,0,5.3
		c0.1,0.1,0.3,0,0.4,0c1,0,2.1,0,3.1,0c0.8,0,0.7,0,0.7-0.7C18,38.8,17.9,38.7,17.7,38.7z"/>
	<path class="st0" d="M35.8,34.5c-0.1-0.1-0.2-0.2-0.2-0.4c-0.4,0-0.8,0-1.2,0c0,0,0,0.1,0,0.1c1.2,1.8,2.4,3.5,3.6,5.3
		c0.1,0.1,0.1,0.2,0.2,0.2c0.3,0,0.6,0,1,0c-0.1-0.1-0.1-0.2-0.2-0.3C38,37.8,36.9,36.2,35.8,34.5z"/>
	<path class="st0" d="M25.6,36.8c-0.1-0.9-0.8-1.3-1.7-1.1c-0.4,0.1-0.6,0.4-0.9,0.6c0-0.4,0-0.7,0-1.1c0-1,0-1-1-0.9
		c-0.1,0.1-0.1,0.2-0.1,0.4c0,1.4,0,2.9,0,4.3c0,0.8,0,0.8,0.8,0.8c0.2,0,0.3-0.1,0.3-0.3c0-0.7,0-1.4,0-2c0-0.4,0.2-0.7,0.6-0.8
		c0.2,0,0.4,0,0.5,0l0,0c0.4,0.2,0.4,0.6,0.4,1c0,0.7,0,1.3,0,2c0,0.2,0,0.3,0.2,0.2c0.3-0.1,0.6,0.2,0.9-0.1c0,0,0-0.1,0-0.1
		C25.6,38.6,25.7,37.7,25.6,36.8z"/>
	<path class="st0" d="M46.7,38.9c-0.3,0-0.5-0.1-0.5-0.5c0-0.7,0-1.4,0-2.1c0.3,0,0.5,0,0.8,0l0,0h0c0.1-0.2,0.1-0.4,0-0.7
		c-0.3-0.1-0.5,0-0.8-0.1c0,0,0,0,0,0c0,0,0,0,0,0c0-0.5,0-1,0-1.4c0,0,0-0.1,0-0.1c-0.4,0-0.8,0-1.2,0c0,0.3,0,0.5,0,0.8
		c0,0.7,0,0.7-0.6,0.8c0,0,0,0,0,0c-0.1,0.7-0.1,0.7,0.6,0.7c0.1,0.8,0,1.5,0,2.3c0,0.8,0.2,1.1,1,1.2c0,0,0,0,0,0.1
		c0.2,0,0.4,0,0.5,0c0,0,0,0,0-0.1c0.5,0,0.3-0.4,0.4-0.6C47.1,38.9,46.9,38.9,46.7,38.9z"/>
	<path class="st0" d="M35.5,37.8c-0.3-0.6-0.7-1.2-1.1-1.8c0,1.2,0,2.4,0,3.5c0,0.2,0,0.3,0.3,0.3c0.9,0,0.9,0,0.9-0.9
		c0-0.1,0-0.1,0-0.2C35.5,38.4,35.6,38.1,35.5,37.8z"/>
	<path class="st0" d="M38.1,36.1c0.3,0.6,0.7,1.2,1.1,1.8c0-1.3,0-2.5,0-3.7c0,0,0,0,0,0c0,0,0,0,0,0c0,0,0-0.1,0-0.1
		c-0.4,0-0.8,0-1.2,0c0,0,0,0.1,0,0.1c0,0.4,0,0.8,0,1.2C38,35.6,38,35.9,38.1,36.1z"/>
	<path class="st0" d="M30.3,37.8C30.3,37.8,30.3,37.8,30.3,37.8c0-1.1-0.7-2-1.7-2.1c-1.1-0.1-2,0.5-2.2,1.7c0,0,0,0,0,0
		c0,0.3,0,0.5,0,0.8l0,0c0.1,1,0.7,1.5,1.6,1.7c0.3,0,0.5,0,0.8,0c0.7-0.2,1.2-0.6,1.5-1.3c-0.7-0.1-0.7-0.1-1.2,0.3
		c-0.3,0.2-0.7,0.2-1.1,0.1c-0.4-0.2-0.5-0.5-0.5-0.9c0,0,0,0,0,0c0,0,0,0,0,0c0.9,0,1.7,0,2.6,0C30.2,38,30.4,38,30.3,37.8
		C30.3,37.8,30.3,37.8,30.3,37.8z M28.4,36.5c0.5,0,0.8,0.4,0.7,0.9c0,0,0,0,0,0c-0.6,0-1.1,0-1.7,0c0,0,0,0,0,0
		C27.5,36.8,27.8,36.5,28.4,36.5z"/>
	<path class="st0" d="M20.2,36.8C20.2,36.8,20.2,36.7,20.2,36.8c0-0.1-0.1-0.2,0.1-0.3c0.1,0,0.2,0,0.3,0c0.4,0.1,0.5-0.1,0.5-0.5
		c0-0.2,0-0.3-0.3-0.3c-0.2,0-0.4,0-0.5,0c0-0.5,0-0.9,0-1.4l0,0v0c-0.3-0.1-0.7-0.1-1,0c-0.2,0.1,0,0.4-0.1,0.7c0,0.1,0,0.2,0,0.3
		c0,0.3,0,0.4-0.3,0.4c-0.3-0.1-0.3,0.1-0.3,0.3c0,0.2,0,0.4,0.3,0.4c0.3-0.1,0.4,0.1,0.3,0.3c0,0.6,0,1.2,0,1.8c0,0.8,0.2,1,1,1.2
		c0,0,0,0,0,0.1c0.2,0,0.4,0,0.5,0c0,0,0,0,0-0.1c0.3,0,0.4-0.1,0.3-0.4c0-0.1,0-0.1,0-0.2c0-0.2,0-0.4-0.3-0.3
		c-0.2,0-0.4,0-0.5-0.2c0-0.7,0-1.5,0-2.2C20.2,36.6,20.2,36.7,20.2,36.8z"/>
	<path class="st0" d="M33.6,35.8c0,0.1,0,0.1,0,0.2C33.6,35.9,33.6,35.9,33.6,35.8C33.6,35.8,33.6,35.8,33.6,35.8
		c-0.7-0.2-1.1,0.2-1.5,0.7c0-0.2,0-0.4,0-0.6c-0.2-0.2-0.5,0-0.7-0.1c-0.2,0-0.3,0.1-0.3,0.3c0,1.1,0,2.3,0,3.4
		c0,0.1-0.1,0.2,0.1,0.3c0,0,0,0,0,0c0,0,0,0,0,0c0.3,0,0.5,0,0.8,0c0.2,0,0.2-0.1,0.2-0.3c0-0.5,0-1,0-1.5c0-0.6,0.2-1,0.8-1.2
		c0.1-0.1,0.2-0.1,0.3,0c-0.1,0-0.2,0-0.3,0c0.2,0,0.4,0,0.5,0c0,0,0.1,0,0.1,0c0.1-0.1,0.1-0.3,0.1-0.7
		C33.6,35.9,33.6,35.8,33.6,35.8z"/>
	<path class="st0" d="M53.1,34.3c-0.4,0-0.7,0-1.1,0c-0.1,0-0.1,0.1-0.1,0.2c0,1.7,0,3.3,0,5c0,0.1-0.1,0.2,0.1,0.2
		c0.4,0,0.7,0.1,1.1,0h0c0,0,0,0,0,0c0.1,0,0.1-0.1,0.1-0.2c0-1.7,0-3.3,0-5C53.2,34.4,53.3,34.3,53.1,34.3z"/>
	<path class="st0" d="M51,34.3c-0.3,0-0.5,0.1-0.6,0.3c-0.3,0.5-0.5,0.9-0.8,1.4c-0.8,1.2-1.5,2.5-2.3,3.8c0.4,0,0.7,0,1,0
		c0.1,0,0.2-0.1,0.2-0.2c1.1-1.7,2.1-3.5,3.2-5.3C51.4,34.3,51.2,34.3,51,34.3z"/>
	<path class="st0" d="M43.9,37.5c-0.1-1-0.7-1.7-1.6-1.8c0,0,0,0,0,0c0,0,0,0,0,0c-0.2,0-0.4,0-0.6,0c0,0,0,0,0,0c0,0,0,0,0,0
		c-0.9,0.1-1.6,0.7-1.8,1.7c0,0,0,0,0,0c0,0,0,0,0,0c0,0.3,0,0.6,0,0.8c0,0,0,0,0,0c0.1,1,0.7,1.5,1.6,1.7c0.3,0,0.6,0,0.9,0
		c0.7-0.2,1.3-0.6,1.5-1.3c-0.7-0.1-0.7-0.1-1.2,0.3C42,39.3,41.2,39,41,38.3C41,38.1,41,38,41.3,38c0.9,0,1.7,0,2.6,0c0,0,0,0,0,0
		c0,0,0,0,0,0C44,37.8,43.9,37.6,43.9,37.5C43.9,37.5,43.9,37.5,43.9,37.5z M42.8,37.3C42.8,37.3,42.8,37.3,42.8,37.3
		c-0.6,0-1.2,0-1.8,0c0,0,0,0,0,0c0.1-0.6,0.4-0.9,1-0.9C42.5,36.5,42.8,36.8,42.8,37.3C42.8,37.3,42.8,37.3,42.8,37.3z"/>
	<path class="st0" d="M56.9,34.3C56.9,34.3,56.9,34.3,56.9,34.3c-0.8,0-1.5,0-2.3,0c-0.3,0-0.3,0.1-0.3,0.3c0,1.4,0,2.8,0,4.2
		c0,0.9,0,0.9,0.9,0.9c0.2,0,0.3-0.1,0.3-0.3c0-0.6,0-1.1,0-1.7c0.5,0,1.1,0,1.6,0c0,0,0,0,0,0c0,0,0,0,0,0c1.1-0.1,1.6-0.8,1.6-1.9
		C58.6,34.9,57.9,34.3,56.9,34.3z M54.9,34.3c0,0-0.1,0-0.1,0C54.9,34.3,54.9,34.3,54.9,34.3z M54.3,34.7c0,0.1,0,0.2,0,0.3
		C54.3,34.9,54.3,34.8,54.3,34.7z M57.5,36.1c0,0.5-0.4,0.7-0.9,0.7c-0.4,0-0.7,0-1.1,0c0,0,0,0,0,0c0-0.5,0-1.1,0-1.6c0,0,0,0,0,0
		c0,0,0,0,0,0c0.4,0,0.8,0,1.2,0C57.3,35.3,57.5,35.6,57.5,36.1z"/>
	<polygon class="st0" points="59,34.4 59.2,34.4 59.2,35 59.3,35 59.3,34.4 59.5,34.4 59.5,34.4 59,34.4 	"/>
	<path class="st0" d="M60.2,34.4H60l-0.1,0.3c0,0.1-0.1,0.1-0.1,0.2h0c0-0.1,0-0.1-0.1-0.2l-0.1-0.3h-0.1l0,0.6h0.1l0-0.3
		c0-0.1,0-0.2,0-0.3h0c0,0.1,0,0.2,0.1,0.2l0.1,0.3h0.1l0.1-0.3C60,34.6,60.1,34.5,60.2,34.4L60.2,34.4c-0.1,0.2-0.1,0.3-0.1,0.4
		l0,0.3h0.1L60.2,34.4z"/>
</g>
</svg>
