<svg id="Layer_1" data-name="Layer 1" xmlns="http://www.w3.org/2000/svg" viewBox="0 0 74 74"><defs><style>.cls-1{fill:#006faf;}.cls-2{fill:#fbfdfd;}.cls-3{fill:#fdfefe;}.cls-4{fill:#0172c5;}.cls-4,.cls-6{stroke:#fff;stroke-miterlimit:10;}.cls-5,.cls-6{fill:#0273c6;}</style></defs><title>event-grid</title><path class="cls-1" d="M37,74A37,37,0,1,1,74,37,37,37,0,0,1,37,74ZM37,2A35,35,0,1,0,72,37,35,35,0,0,0,37,2Z"/><path class="cls-2" d="M49.17,46.92c-.46,0-.91,0-1.37,0-.24,0-.36-.05-.36-.32,0-.91,0-1.83,0-2.74,0-.21.08-.29.29-.29h2.84c.22,0,.28.09.28.29,0,.91,0,1.83,0,2.74,0,.28-.13.32-.36.32Z"/><path class="cls-3" d="M35.52,45.21c0-.44,0-.88,0-1.32,0-.23.09-.31.32-.31h2.75c.24,0,.31.09.31.32q0,1.37,0,2.75c0,.21-.07.29-.28.29H35.8c-.26,0-.29-.14-.28-.35C35.52,46.12,35.52,45.66,35.52,45.21Z"/><path class="cls-3" d="M41.44,45.19c0-.42,0-.85,0-1.27,0-.24.05-.35.32-.35.9,0,1.8,0,2.7,0,.25,0,.35.07.35.33,0,.9,0,1.8,0,2.7,0,.22-.06.33-.3.33-.92,0-1.83,0-2.75,0-.28,0-.32-.13-.32-.36C41.45,46.11,41.44,45.65,41.44,45.19Z"/><path class="cls-4" d="M49.87,24.77a.68.68,0,0,1,.18.52c0,1.91,0,3.82,0,5.72,0,.5-.19.71-.69.72s-1,0-1.57,0S47,31.56,47,31c0-.89,0-1.79,0-2.68,0-.38-.08-.49-.48-.49q-9.57,0-19.14,0c-.72,0-1.43,0-2.15,0-.3,0-.37.09-.37.38,0,.92,0,1.85,0,2.77,0,.59-.18.77-.77.78s-1,0-1.57,0-.69-.21-.69-.69c0-1.89,0-3.79,0-5.68a1.06,1.06,0,0,1,.25-.59Z"/><path class="cls-5" d="M32.71,39.54c1.59,0,3,0,4.5,0,.25,0,.33-.18.46-.3A1.66,1.66,0,0,1,39.72,39a1.68,1.68,0,0,1-1,3.12,1.62,1.62,0,0,1-1.23-.64.5.5,0,0,0-.44-.24H30.7c-.07.15.06.2.12.26.7.71,1.41,1.41,2.11,2.12a.65.65,0,0,0,.51.21h7.47a.68.68,0,0,0,.54-.24,1.67,1.67,0,0,1,2.43,0A1.7,1.7,0,0,1,43.83,46a1.66,1.66,0,0,1-2.43-.12.75.75,0,0,0-.65-.27H33.15a.89.89,0,0,1-.7-.29c-1.26-1.27-2.53-2.53-3.79-3.81a.84.84,0,0,0-.66-.27c-1.19,0-2.39,0-3.58,0-.3,0-.41-.09-.37-.38,0-.06,0-.12,0-.18,0-.37-.15-.83.07-1.09s.67-.07,1-.07a.65.65,0,0,0,.48-.28q4-4,8-8a1.27,1.27,0,0,1,1-.41c1.51,0,3,0,4.52,0a.67.67,0,0,0,.57-.25,1.67,1.67,0,0,1,2.43-.1,1.69,1.69,0,0,1,0,2.41,1.66,1.66,0,0,1-2.43-.07.77.77,0,0,0-.65-.28c-1.42,0-2.83,0-4.25,0a.66.66,0,0,0-.52.18l-6.8,6.79a16.13,16.13,0,0,1,1.85,0,2.2,2.2,0,0,0,2-.84c1-1.11,2.12-2.14,3.18-3.21a.94.94,0,0,1,.74-.31h7.61a.88.88,0,0,0,.74-.3,1.66,1.66,0,0,1,2.4,0,1.68,1.68,0,0,1,0,2.37,1.65,1.65,0,0,1-2.4,0,.89.89,0,0,0-.73-.31q-3.6,0-7.2,0a.89.89,0,0,0-.7.29C34.3,38,33.55,38.7,32.71,39.54Z"/><path class="cls-6" d="M36,53H22.62c-.63,0-.73-.1-.74-.71q0-2.69,0-5.37c0-.68.17-.85.85-.86h1.39c.63,0,.8.18.8.8,0,.91,0,1.82,0,2.73,0,.28.05.39.36.39H46.67c.29,0,.38-.07.38-.37,0-.89,0-1.79,0-2.69,0-.68.17-.85.84-.86.48,0,1,0,1.43,0s.74.21.75.76q0,2.8,0,5.59c0,.55,0,.58-.58.58Z"/></svg>