<?xml version="1.0" encoding="utf-8"?>
<!-- Generator: Adobe Illustrator 21.0.2, SVG Export Plug-In . SVG Version: 6.00 Build 0)  -->
<svg version="1.1" id="Layer_1" xmlns="http://www.w3.org/2000/svg" xmlns:xlink="http://www.w3.org/1999/xlink" x="0px" y="0px"
	 viewBox="0 0 74 74" style="enable-background:new 0 0 74 74;" xml:space="preserve">
<style type="text/css">
	.st0{fill:none;stroke:#006FAF;stroke-width:2;stroke-miterlimit:10;}
	.st1{fill:#006FAF;}
</style>
<title>java</title>
<circle class="st0" cx="37" cy="37" r="36"/>
<g id="Layer_1_1_">
</g>
<g>
	<path class="st1" d="M22.7,28.5c1,0,1.9,0,2.9,0c0.5,0,0.7-0.2,0.7-0.7c0-0.7,0-1.5,0-2.2c0-0.2,0-0.3,0.3-0.3c7.3,0,14.5,0,21.8,0
		c0.2,0,0.3,0.1,0.3,0.3c0,0.7,0,1.5,0,2.2c0,0.5,0.2,0.7,0.7,0.7c1,0,1.9,0,2.9,0c0.5,0,0.7-0.2,0.7-0.7c0-2.1,0-4.1,0-6.2
		c0-0.4-0.1-0.5-0.5-0.6c-0.1,0-0.2,0-0.3,0c-4.8,0-9.7,0-14.5,0c-1.8,0-3.6,0-5.5,0c-3.1,0-6.2,0-9.3,0c-0.6,0-0.8,0.2-0.8,0.7
		c0,2,0,4,0,6C22,28.3,22.2,28.5,22.7,28.5z"/>
	<path class="st1" d="M52.2,45.6c-0.9,0-1.8,0-2.7,0c-0.6,0-0.7,0.2-0.8,0.7c0,0.7,0,1.4,0,2.1c0,0.2-0.1,0.3-0.3,0.3
		c-1.1,0-2.1,0-3.2,0c-6.2,0-12.5,0-18.7,0c-0.2,0-0.3,0-0.3-0.3c0-0.8,0-1.5,0-2.3c0-0.4-0.2-0.6-0.6-0.6c-1,0-2,0-3.1,0
		c-0.2,0-0.4,0.1-0.5,0.3s-0.1,0.4-0.1,0.6c0,1.9,0,3.8,0,5.7c0,0.7,0.1,0.8,0.8,0.8c4.9,0,9.8,0,14.6,0c4.9,0,9.8,0,14.7,0
		c0.6,0,0.7-0.2,0.7-0.7c0-1.9,0-3.9,0-5.8C53,45.8,52.8,45.6,52.2,45.6z"/>
	<path class="st1" d="M33.8,29.2c0-0.5-0.2-0.7-0.7-0.7c-1.3,0-2.7,0-4,0c-0.4,0-0.6,0.2-0.6,0.7c0,1,0,2,0,3c0,0.5,0.2,0.6,0.7,0.7
		c0.7,0,1.3,0,2,0s1.3,0,2,0c0.5,0,0.7-0.2,0.7-0.7C33.8,31.1,33.8,30.1,33.8,29.2z"/>
	<path class="st1" d="M28.4,44.8c0,0.5,0.2,0.7,0.7,0.7c1.3,0,2.6,0,3.9,0c0.5,0,0.7-0.2,0.7-0.7c0-0.9,0-1.9,0-2.8
		c0-0.5-0.2-0.7-0.7-0.7c-0.6,0-1.3,0-1.9,0c-0.7,0-1.3,0-2,0c-0.5,0-0.7,0.2-0.7,0.7C28.4,42.9,28.4,43.8,28.4,44.8z"/>
	<path class="st1" d="M29.1,39.1c1.3,0,2.6,0,4,0c0.4,0,0.6-0.2,0.6-0.6c0-1,0-1.9,0-2.9c0-0.5-0.2-0.6-0.7-0.6c-0.6,0-1.3,0-1.9,0
		c-0.7,0-1.4,0-2,0c-0.4,0-0.6,0.2-0.6,0.6c0,1,0,1.9,0,2.9C28.4,38.9,28.7,39.1,29.1,39.1z"/>
	<path class="st1" d="M36.6,35.9c1.3,0,2.6,0,3.9,0c0.5,0,0.7-0.2,0.7-0.7c0-0.9,0-1.9,0-2.8c0-0.5-0.2-0.7-0.7-0.7
		c-0.6,0-1.3,0-1.9,0c-0.6,0-1.3,0-1.9,0c-0.5,0-0.7,0.2-0.7,0.7c0,0.9,0,1.9,0,2.8C36,35.8,36.2,35.9,36.6,35.9z"/>
	<path class="st1" d="M48,34.9c-0.6,0-1.3,0-1.9,0c-0.7,0-1.3,0-2,0c-0.4,0-0.6,0.2-0.6,0.6c0,1,0,1.9,0,2.9c0,0.4,0.2,0.6,0.6,0.6
		c1.3,0,2.6,0,4,0c0.4,0,0.6-0.2,0.6-0.6c0-1,0-1.9,0-2.9C48.7,35.1,48.5,34.9,48,34.9z"/>
	<path class="st1" d="M36.7,42.3c1.3,0,2.6,0,3.9,0c0.5,0,0.7-0.2,0.7-0.7c0-0.9,0-1.8,0-2.8c0-0.5-0.2-0.7-0.7-0.7
		c-0.6,0-1.3,0-1.9,0c-0.7,0-1.3,0-2,0c-0.5,0-0.7,0.2-0.7,0.7c0,0.9,0,1.9,0,2.8C36,42.1,36.2,42.3,36.7,42.3z"/>
</g>
</svg>
