<?xml version="1.0" encoding="utf-8"?>
<!-- Generator: Adobe Illustrator 21.0.2, SVG Export Plug-In . SVG Version: 6.00 Build 0)  -->
<svg version="1.1" id="Layer_1" xmlns="http://www.w3.org/2000/svg" xmlns:xlink="http://www.w3.org/1999/xlink" x="0px" y="0px"
	 viewBox="0 0 74 74" style="enable-background:new 0 0 74 74;" xml:space="preserve">
<style type="text/css">
	.st0{fill:#006FAF;}
</style>
<title>health-checks</title>
<path class="st0" d="M37,74C16.6,74,0,57.4,0,37S16.6,0,37,0s37,16.6,37,37S57.4,74,37,74z M37,2C17.7,2,2,17.7,2,37s15.7,35,35,35
	s35-15.7,35-35S56.3,2,37,2z"/>
<g>
</g>
<g>
	<path class="st0" d="M22.6,23V51h28.8V23H22.6z M23.8,24.2h26.4v25.7H23.8V24.2z"/>
</g>
<g>
	<path class="st0" d="M36.8,41.9c-0.3-0.6-0.6-1.2-1-1.9c-0.2-0.5-0.5-0.9-0.7-1.4c-0.3-0.6-0.7-1.3-1-1.9c0,0,0-0.1,0-0.1
		c0.3-0.5,0.5-1,0.8-1.5c0.2-0.5,0.5-0.9,0.7-1.4c0.3-0.6,0.6-1.2,0.9-1.8c0.2-0.3,0.3-0.7,0.5-1c0.1-0.1,0.2-0.3,0.2-0.4
		c0.1-0.1,0-0.2-0.1-0.2c-0.1,0-0.2,0-0.3,0c-0.5,0-1.1,0-1.6,0c-0.1,0-0.2,0-0.2,0.1c-0.1,0.1-0.1,0.3-0.2,0.4
		c-0.1,0.3-0.3,0.6-0.4,0.9c-0.2,0.4-0.3,0.7-0.5,1.1c-0.1,0.3-0.3,0.6-0.4,0.8c-0.1,0.2-0.2,0.4-0.2,0.5c-0.1,0.2-0.2,0.4-0.2,0.5
		c-0.1,0.2-0.1,0.3-0.2,0.5c0,0,0,0.1,0,0.1c0,0,0,0,0-0.1c-0.2-0.5-0.4-0.9-0.6-1.4c-0.3-0.7-0.6-1.3-0.9-2
		c-0.2-0.5-0.4-0.9-0.7-1.4c-0.1-0.1-0.1-0.2-0.3-0.2c-0.7,0-1.3,0-2,0c0,0-0.1,0-0.1,0c-0.1,0-0.1,0.1-0.1,0.2
		c0.1,0.3,0.3,0.5,0.4,0.8c0.2,0.4,0.4,0.8,0.6,1.2c0.2,0.4,0.4,0.8,0.6,1.2c0.3,0.6,0.6,1.2,0.9,1.8c0.2,0.4,0.4,0.9,0.7,1.3
		c0,0,0,0.1,0,0.1c-0.1,0.2-0.3,0.5-0.4,0.7c-0.2,0.4-0.4,0.7-0.6,1.1c-0.1,0.2-0.2,0.5-0.4,0.7c-0.2,0.4-0.4,0.7-0.6,1.1
		c-0.1,0.2-0.2,0.5-0.4,0.7c-0.2,0.4-0.4,0.7-0.6,1.1c-0.2,0.3-0.3,0.6-0.5,1c0,0.1,0,0.1,0.1,0.1c0,0,0,0,0.1,0c0.6,0,1.3,0,1.9,0
		c0.1,0,0.2-0.1,0.3-0.2c0.1-0.3,0.3-0.6,0.4-0.9c0.3-0.7,0.6-1.3,0.9-2c0.2-0.4,0.3-0.8,0.5-1.1c0.1-0.3,0.3-0.6,0.4-1c0,0,0,0,0,0
		c0,0,0,0,0,0c0,0,0,0.1,0,0.1c0.2,0.4,0.3,0.7,0.5,1.1c0.1,0.3,0.3,0.6,0.4,0.8c0.1,0.3,0.3,0.6,0.4,0.9c0.1,0.3,0.3,0.6,0.4,0.9
		c0.2,0.4,0.3,0.7,0.5,1.1c0.1,0.1,0.2,0.2,0.3,0.2c0.3,0,0.7,0,1,0c0.4,0,0.7,0,1.1,0c0.1,0,0.2-0.1,0.1-0.2
		C37.3,42.9,37,42.4,36.8,41.9z"/>
	<path class="st0" d="M46,42.8c0-0.1,0-0.3,0-0.4c0,0,0-0.1,0-0.1c0-0.1,0-0.2,0-0.3c0,0,0-0.1,0-0.1c0-3.8,0-7.5,0-11.3
		c0,0,0-0.1,0-0.1c0-0.1-0.1-0.1-0.1-0.1c-0.7,0-1.3,0-2,0c-0.1,0-0.1,0.1-0.1,0.1c0,1,0,2.1,0,3.1c0,0,0,0,0,0c0,0,0,0.1-0.1,0
		c-0.1,0-0.1,0-0.2,0c0,0-0.1,0-0.1,0c-0.2,0-0.3,0-0.5,0c0,0-0.1,0-0.1,0c-0.1,0-0.2,0-0.4,0c-0.3,0-0.6,0.1-0.9,0.2
		c-0.3,0.1-0.7,0.2-1,0.4c-0.3,0.2-0.6,0.4-0.8,0.6c-0.2,0.1-0.3,0.3-0.4,0.5c-0.2,0.3-0.5,0.7-0.6,1c-0.1,0.3-0.2,0.7-0.3,1
		c-0.1,0.3-0.1,0.6-0.1,1c0,0,0,0.1,0,0.1c0,0.2,0,0.4,0,0.6c0,0,0,0.1,0,0.1c0,0.1,0,0.2,0,0.3c0,0.2,0,0.4,0.1,0.6
		c0.1,0.3,0.1,0.6,0.2,0.8c0.1,0.3,0.3,0.6,0.4,0.9c0.2,0.3,0.4,0.6,0.7,0.8c0.1,0.1,0.2,0.2,0.3,0.2c0.3,0.2,0.6,0.4,1,0.5
		c0.3,0.1,0.6,0.2,0.8,0.2c0.2,0,0.4,0.1,0.6,0.1c0.3,0,0.6,0,0.9,0c0.3,0,0.6-0.1,1-0.1c0.6-0.1,1.1-0.3,1.6-0.5
		C46,42.9,46,42.9,46,42.8z M43.7,41.6c-0.3,0.1-0.6,0.1-0.9,0.1c-0.4,0-0.7-0.1-1-0.3c-0.5-0.3-0.8-0.7-1-1.2
		c-0.1-0.4-0.2-0.8-0.3-1.2c0-0.4,0-0.7,0-1.1c0.1-0.6,0.3-1.3,0.7-1.8c0.4-0.4,0.8-0.7,1.4-0.8c0.3-0.1,0.7-0.1,1,0
		c0.1,0,0.1,0,0.1,0.2c0,1,0,1.9,0,2.9c0,1,0,2,0,2.9C43.7,41.6,43.7,41.6,43.7,41.6z"/>
</g>
</svg>
