<?xml version="1.0" encoding="utf-8"?>
<!-- Generator: Adobe Illustrator 21.0.2, SVG Export Plug-In . SVG Version: 6.00 Build 0)  -->
<svg version="1.1" id="Layer_1" xmlns="http://www.w3.org/2000/svg" xmlns:xlink="http://www.w3.org/1999/xlink" x="0px" y="0px"
	 viewBox="0 0 74 74" style="enable-background:new 0 0 74 74;" xml:space="preserve">
<style type="text/css">
	.st0{fill:none;stroke:#006FAF;stroke-width:2;stroke-miterlimit:10;}
	.st1{fill:#006FAF;}
</style>
<title>Cloud &amp;amp; Infrastructure Services</title>
<circle class="st0" cx="37" cy="37" r="36"/>
<path class="st1" d="M55.4,43.4c-0.4-2.2-2.7-4-5.4-3.2c-0.4,0.1-0.6,0-0.8-0.2c-2.7-2.7-5.3-5.3-8-8c-0.3-0.3-0.3-0.5-0.2-0.8
	c0.4-1.5,0.1-2.8-0.9-4c-0.7-0.8-1.6-1.3-2.6-1.3c0,0,0,0-0.1,0c-0.3,0.1-0.6,0.1-0.9,0c0,0-0.1,0-0.1,0c-0.3,0.1-0.6,0.1-0.9,0.2
	c-2,0.8-3.3,3-2.5,5.4c0.1,0.2,0,0.4-0.1,0.6c-2.7,2.7-5.5,5.5-8.2,8.2c-0.2,0.2-0.3,0.2-0.5,0.1c-0.5-0.2-1-0.2-1.5-0.2
	c-2.3,0-4.5,2.1-4.1,4.9c0.2,1.6,1.7,3.3,3.5,3.4c0.3,0,0.7,0,1,0c0.1-0.1,0.3,0,0.4,0c1.1,0,1.9-0.6,2.5-1.4c0.3-0.3,0.6-0.5,1-0.5
	c6.7,0,13.4,0,20.1,0c0.1,0,0.2,0,0.3,0c0.2,0,0.4,0.1,0.5,0.2c0.7,0.9,1.6,1.6,2.8,1.7c0.4,0,0.8,0,1.2,0c0.3-0.1,0.6,0,0.9-0.2
	C54.6,47.4,55.8,45.6,55.4,43.4z M22.7,45.5c-0.7,0-1.3-0.6-1.3-1.3c0-0.7,0.6-1.3,1.3-1.3c0.7,0,1.3,0.6,1.3,1.3
	C24,44.9,23.4,45.5,22.7,45.5z M37,28.5c0.7,0,1.3,0.6,1.3,1.3c0,0.7-0.6,1.3-1.3,1.3c-0.7,0-1.3-0.6-1.3-1.3
	C35.7,29.1,36.3,28.5,37,28.5z M27.2,42.7C27.1,42.7,27.1,42.7,27.2,42.7c0-0.1,0.1-0.2,0.2-0.2c2.8-2.8,5.6-5.6,8.4-8.4
	c0.2-0.2,0.3-0.2,0.6-0.2c0.5,0.1,1,0.1,1.5,0c0.2,0,0.3,0,0.4,0.1c2.9,2.9,5.8,5.8,8.7,8.7C40.3,42.7,33.7,42.7,27.2,42.7z
	 M51.2,45.5c-0.7,0-1.3-0.7-1.3-1.4c0-0.2,0.1-0.3,0.2-0.5c0.1-0.1,0.2-0.2,0.4-0.4c0.5-0.6,0.7-0.5,1.3-0.3
	c0.5,0.2,0.8,0.7,0.8,1.2C52.6,44.9,52,45.5,51.2,45.5z"/>
</svg>
