<?xml version="1.0" encoding="utf-8"?>
<!-- Generator: Adobe Illustrator 21.0.2, SVG Export Plug-In . SVG Version: 6.00 Build 0)  -->
<svg version="1.1" id="Layer_1" xmlns="http://www.w3.org/2000/svg" xmlns:xlink="http://www.w3.org/1999/xlink" x="0px" y="0px"
	 viewBox="0 0 74 74" style="enable-background:new 0 0 74 74;" xml:space="preserve">
<style type="text/css">
	.st0{fill:none;stroke:#006FAF;stroke-width:2;stroke-miterlimit:10;}
	.st1{fill:#006FAF;}
</style>
<g>
	<circle class="st0" cx="37" cy="37" r="36"/>
	<path class="st1" d="M49.9,40.9c-0.7-3.7-3-6.9-6.1-8.8c-0.3-0.2-0.6-0.3-0.9-0.5l-8.3-4.2l-0.5-0.2H34l0,0l0,0l0,0
		c-0.9-0.4-1.6-1.1-2.1-1.9c-0.6-0.9-1-2-1-3.2c0-2.2,1.2-4.1,3.1-5.1l-2.7,1.4c-4.4,2.2-7.5,6.8-7.5,12l0.2,2.3
		c0.4,2.3,1.3,4.3,2.7,6c0,0,0.1,0.1,0.1,0.2c0,0,0.1,0.1,0.1,0.2c1.1,1.4,2.5,2.5,4.1,3.4l0,0l0,0l0.8,0.4l1,0.5l7,3.5
		c1.9,0.9,3.2,2.9,3.2,5.2V52c0,1.5-0.6,2.8-1.6,3.8c-0.4,0.5-0.9,0.8-1.5,1.1l1.7-0.9l1-0.5c4.4-2.2,7.5-6.8,7.5-12.1L49.9,40.9
		L49.9,40.9z"/>
</g>
</svg>
