<?xml version="1.0" encoding="utf-8"?>
<!-- Generator: Adobe Illustrator 21.0.2, SVG Export Plug-In . SVG Version: 6.00 Build 0)  -->
<svg version="1.1" id="Layer_1" xmlns="http://www.w3.org/2000/svg" xmlns:xlink="http://www.w3.org/1999/xlink" x="0px" y="0px"
	 viewBox="0 0 74 74" style="enable-background:new 0 0 74 74;" xml:space="preserve">
<style type="text/css">
	.st0{fill:none;stroke:#006FAF;stroke-width:2;stroke-miterlimit:10;}
	.st1{fill:#006FAF;}
</style>
<title>flask</title>
<circle class="st0" cx="37" cy="37" r="36"/>
<path class="st1" d="M30.8,47.8c-1.2-0.9-2.4-1.9-3.3-3.1c-1.8-2.2-3.2-4.8-4.2-7.5c-0.6-1.8-0.8-3.6-1.5-5.3
	c-0.8-1.2,0.1-2.6,1.5-2.9c0.6-0.1,1.6-0.7,0.4-0.3c-1.1,0.8-1.2-0.8-0.1-0.9c0.5,0,0.9-0.4,0.9-0.9c0-0.1,0-0.3-0.1-0.4
	c-0.9-0.5,2.1-1.2,0.6-2c-1.5-1.6,2.1-2,1.2-0.1c-0.2,1.5,2.6-0.3,1.9,1.4c0.6,0.8,2.5,0.2,2.4,1.3c1,0.1,1.3,0.9,2.2,0.9
	c0.9,0.4,2.6,0.8,2.9,1.8c-0.9,0.7-3.1-1.5-3.2,0.5c0.3,3,0.2,6,1.3,8.9c0.7,1.7,1.6,3.2,2.9,4.4c1.1,1.3,2.5,2.3,4,3
	c1.3,0.6,2.7,1.1,4.2,1.3c0.6-0.4,1.6-2.1,2.5-1.4c0,0.8-1.8,1.6-0.1,1.5c1-0.3,1.7,0.8,2.5-0.2c0.7,0.9,3.2-0.6,2.6,1.3
	c-0.7,0.5-1.8,0.2-2.5,0.8c-1.2-0.6-2.2,0.5-3.5,0.4c-1.5,0.3-3,0.4-4.5,0.4c-2.5,0-5-0.4-7.3-1.1C33.2,49.3,31.9,48.6,30.8,47.8
	L30.8,47.8z M32.8,48.7c1.3,0.6,2.6,1.1,4,1.3c2.3,0.3,4.6,0.8,6.8,0.3c-1-0.5-2.1,0.2-3.1-0.3c-1.3,0.1-2.5,0.1-3.8-0.2
	c-1.5-0.5-2.9-1.2-4.3-1.9c-1.6-0.6,0.8,0.8,1.3,0.9c1,0.6-1.1-0.3-1.5-0.5c-0.9-0.5-1-0.4-0.1,0.1C32.5,48.5,32.7,48.6,32.8,48.7
	L32.8,48.7L32.8,48.7z M30.4,47c1.3,0.5,0-0.9-0.6-0.8c-0.3-0.4-1-0.7-0.5-1c-0.9,0.3-1-1.2-1.4-1c-1-0.3-0.4-1.4-1.5-2
	c-0.1-0.7-1.1-1.3-1.5-2.3c-0.1-0.5-1.2-2.1-0.5-0.6c0.6,1.3,1.4,2.6,2.3,3.8c0.5,1.2,1.4,2.2,2.4,3C29.5,46.3,29.9,46.9,30.4,47
	L30.4,47L30.4,47z M26.8,43C26.8,42.8,27,43.4,26.8,43z M31.9,47.5C32.2,47.4,31.5,47.4,31.9,47.5L31.9,47.5z M32.6,47.8
	C32.5,47.4,32.3,48,32.6,47.8L32.6,47.8z M33.4,48.1C33.8,47.7,32.8,47.9,33.4,48.1L33.4,48.1z M34.9,48.9
	C35.1,48.6,34.1,48.8,34.9,48.9z M32.1,47C32.7,46.6,31.3,47,32.1,47z M32.7,47.3C32.7,47.1,32.5,47.4,32.7,47.3z M35.9,49.3
	c0.5,0.3,3,0.7,1.5,0.1C37.1,49.4,34.5,48.7,35.9,49.3L35.9,49.3z M30.8,45.3C30.8,45.1,30,45.1,30.8,45.3L30.8,45.3z M32.3,46.2
	C32.7,45.9,31.5,46,32.3,46.2L32.3,46.2z M33.6,46.9C34.1,46.7,32.7,46.7,33.6,46.9z M30.2,44.7c0.6,0.5,2.4,0.1,0.9-0.3
	c-0.7-0.4-2.2-0.6-1.2,0.2C29.9,44.6,30.2,44.7,30.2,44.7z M34.4,47.2C34.7,46.8,33.4,47,34.4,47.2z M33.1,46.2
	c1.5,0.4-1.2-0.9-0.4-0.2l0.2,0.1L33.1,46.2L33.1,46.2z M35.7,47.7C37.1,47.7,34.4,47.5,35.7,47.7z M29.7,43.9
	C29.6,43.6,29.4,43.9,29.7,43.9L29.7,43.9z M38.1,49C38.1,48.6,37.6,49.4,38.1,49z M32.1,45.3C32,45.1,31.6,45.3,32.1,45.3
	L32.1,45.3z M29.8,43.7C30.6,43.6,28.7,43.3,29.8,43.7z M27.2,42C27.1,41.6,26.3,41.3,27.2,42z M34.2,46.4
	C34,46.3,34.1,46.5,34.2,46.4L34.2,46.4z M38.5,49.1C38.5,48.8,38.3,49.2,38.5,49.1z M33.8,46C33.8,45.7,33.1,45.9,33.8,46z
	 M30.5,44C31.1,43.9,29.5,43.6,30.5,44z M36,47.4C36.9,47,35.1,47.2,36,47.4z M33.2,45.4c1.1,0.1-1.3-0.7-0.2-0.1L33.2,45.4z
	 M36.9,47.7c1-0.6,0.7,1.4,1.7,0.2c1-0.7-0.9,0.9,0.4,0.1c0.9-0.6,2.2,0.3,3.1,0.6c0.6,0,1.2,0.5,1.8,0.2c1.2-0.3-2.3-0.5-1.4-1
	c-1,0.2-1.9-0.3-2.4-1.1c-1.3-0.2-2.5-0.9-3.3-2c-0.3-0.4,0.3,0.1-0.2-0.6c-0.6-0.6-1.2-1.4-1.6-2.2c-0.6-0.3-0.7-1.2-0.7,0
	c0-0.8-0.7-1.3-0.9-1.1c0-0.7,0.8-0.4,0.2-0.9c-0.1-0.8-0.5-1.6-0.6-2.4c-0.2-0.4,0-1.3-0.6-0.4c-0.2,1-0.1-1.2,0.3-0.5
	c0.4-0.8-0.2-0.7-0.2-0.6c0.3-0.6,0.2-1.5-0.1-1.2c0.2-0.7,0.2-2.5-0.2-2.1c0.3-0.7,0.5-3.2-0.7-2.2c-0.6,0-1.2,0.2-1.8,0.4
	c1.3,0.7-0.1,0.3-0.6,0.1c-0.1,0.6-0.6,0.4-1.2,0.4c1,0.1-0.5,1-1.1,0.7c-0.8,0.4,0.7,1.3,0,1.5c0.1,0.4-1.2-0.2-1.1,0.8
	c-0.7-0.3-0.1,1.2,0.3,0.7c1.3,0.3,0.9,1.1,0.9,1.8c-0.2,0.4-1-1-0.2-1c-0.7-1.1-0.7-0.4-1.3,0.1c-0.1,0,1.4,0.7,0.4,1
	c0.8,0.1,0.9,0.9,1,1.3c0.5,0.5,0.4-0.6,1,0c-0.4-0.6-2-1.6-0.7-1.3c0-0.6-0.2-1,0.2-1c0.4-0.7-0.4,1.8,0.5,0.9
	c0.3-0.1,0.3-0.7,0.8,0.1c0.6,0.6,0.2,1.1-0.7,0.5c0.2,0.6,1.2,0.8,1,1.6c0.2,0.8,0.5,0.5,0.8,0.4c0.2,0.8,0.3,0.2,0.3-0.2
	c1,0.2,0.7,0.8,1,1.2c0.6,0.3-0.9-2,0.2-0.7c1.2,1,0.4,1.5-0.6,1.3c0.7,0,0.9,0.9,1.7,0.9c0.8,0.4,1.3,1.7,0,1.2
	c-0.5-0.4-2-0.9-0.8-0.1c1.1,0.5,2.2,1,3.3,1.6c0.8,0.6,1.2,1.3,1.5,1.4c-0.7,0.3-2.1-0.3-1.1-0.5c-0.7-0.1-1.4-0.5-0.8,0.4
	c0.5,0.4,1.9,0.4,2.1,0.5c-0.2,0.5-0.6,0.5,0,0.5C35.9,47.4,36.7,47.5,36.9,47.7L36.9,47.7L36.9,47.7z M35.6,44.1
	c-0.4-0.4-0.5-1.2-0.1-0.5C35.7,43.7,36.2,44.9,35.6,44.1z M39.8,46.8C40,46.7,39.8,46.9,39.8,46.8L39.8,46.8z M35,43.1
	C35,42.5,35.1,43.6,35,43.1z M34.6,42.6C34.1,41.6,35.2,42.8,34.6,42.6z M29.6,39.1C29.9,39,29.7,39.6,29.6,39.1z M33.6,41.3
	C33.8,40.6,33.8,41.8,33.6,41.3z M30.7,39.3C30.5,38.9,31.1,39.6,30.7,39.3L30.7,39.3z M33.2,40c-0.5-1,0.3-0.6,0.1,0.2L33.2,40z
	 M29,37.2c-0.3-0.5-0.4-1.1-0.4-1.6c0.1,0.5,1,2.1,0.5,0.7c-0.6-1.2,0.8,0.4,0.9,0.7s-0.4-0.1-0.1,0.6C29.3,36.8,29.5,38,29,37.2
	L29,37.2z M27.7,36.4C27.7,35.6,28,36.9,27.7,36.4z M28.2,36.6C28.6,36,28.7,37.4,28.2,36.6z M26.8,35.5c-0.5-0.5-0.8-0.9,0-0.3
	c0.3,0-0.7-1,0.1-0.3C27.8,35,27.4,36.3,26.8,35.5z M27.6,35.5C27.9,35.2,27.7,35.7,27.6,35.5z M28,35.6C27.6,34.8,28.5,36,28,35.6z
	 M27.1,34.8c-1.4-1.3,1.8,0.7,0.2,0.2L27.1,34.8z M31.1,37.1c-0.6-0.4-0.2-2.6,0-1.1c0.6-0.2,0,0.8,0.4,0.8
	C31.5,37.4,31.3,37.6,31.1,37.1L31.1,37.1z M32.6,38C32.7,37.3,32.8,38.4,32.6,38L32.6,38z M32.4,37.7
	C32.4,37.4,32.4,38.1,32.4,37.7z M27.4,34.3c-0.9-1.2,2.6,1.3,0.6,0.3C27.7,34.6,27.5,34.5,27.4,34.3L27.4,34.3z M30.2,35.8
	C30.1,34.8,30.4,36,30.2,35.8z M32.4,37.2C32.6,36.7,32.4,37.7,32.4,37.2z M27.5,33.8c0.5-0.1,2.2,0.9,0.7,0.3
	C28,34,27.6,34.1,27.5,33.8L27.5,33.8z M32.1,36.2c0.1-1.1,0.3-0.6,0,0.2V36.2z M28,33.5c0.2-0.3-0.6-1.5,0.1-0.4
	c0.3,0.2,0.9,0.4,0.4,0.5C29.3,34.3,28.3,33.8,28,33.5L28,33.5z M32,35.8C32.1,34.6,32.1,36.5,32,35.8z M27.5,32.4
	C27.6,32.3,27.6,32.6,27.5,32.4z M28.5,33C28.7,32.4,29,33.6,28.5,33z M31.4,34.6C31.4,34.4,31.5,34.9,31.4,34.6z M31.2,34.3
	C30.9,33.2,31.7,34.8,31.2,34.3L31.2,34.3z M31,33.6C30.9,33.2,31.2,34.1,31,33.6z M31.4,32.9c-0.3-0.5,0.4-2.2,0.4-1.1
	c-0.3,0.8-0.1,1.3,0.1,0.2C32.3,31.1,31.9,33.7,31.4,32.9L31.4,32.9L31.4,32.9z M31.8,30.5C32,30.3,31.8,30.6,31.8,30.5z M31.1,44.2
	C31,44,31.1,44.3,31.1,44.2z M32.6,44.9c0.8,0.2,0.8-0.1,0.1-0.2c-0.4-0.4-1.6-0.7-0.5,0C32.2,44.8,32.4,44.9,32.6,44.9L32.6,44.9z
	 M29.7,43c0.4,0.3,1.7,0.9,0.6,0.1c0.4-0.4-0.7-0.6-0.3-0.9c-0.9-0.5-0.7-0.5-0.1-0.5c-1-0.5,0.1-0.4,0.1-0.7c-0.4-0.1-2-0.7-1,0
	c-0.9-0.5-0.2,0.2-0.5,0.1c-1-0.3,0.9,0.7-0.1,0.5c0.5,0.4,1.5,1.1,0.2,0.5C28.5,42.4,29.5,42.7,29.7,43L29.7,43z M31.2,43.9
	C33.1,44.4,30.4,43.1,31.2,43.9z M38.9,48.5C38.9,48.1,38.7,48.8,38.9,48.5L38.9,48.5z M39.7,48.8c0.4-0.4,0,0.7,0.7-0.1
	c0-0.5,0-0.8-0.8-0.2C39.4,48.6,39.3,49.1,39.7,48.8C39.7,48.8,39.7,48.8,39.7,48.8z M27.2,41C27.1,40.5,26.3,40.5,27.2,41z
	 M28,41.5C27.7,41,26.9,41.1,28,41.5z M32.8,44.5c0.5,0.4,2.2,0.3,0.6,0C33.2,44.1,31.9,44.2,32.8,44.5L32.8,44.5z M39.4,48.5
	C40.1,47.9,38.7,48.8,39.4,48.5L39.4,48.5z M40.9,49.5C40.9,49.3,40.6,49.5,40.9,49.5z M40.9,49.2C41.7,48.3,40.2,49.2,40.9,49.2z
	 M25.1,39.2c-0.7-1-0.4-1.4-1.1-2.2c-0.1-0.6-1.1-2-0.5-0.5C24.1,37.4,24.3,38.7,25.1,39.2L25.1,39.2z M40.7,49
	C42.1,48,40.1,48.6,40.7,49z M41.8,49.4C42.5,48.8,41.3,49.3,41.8,49.4z M26.9,39.9C27.1,39.6,26.4,39.9,26.9,39.9z M41.5,49.1
	c0.7-0.5-0.2-0.4-0.1,0H41.5z M31.9,43C31.9,42.7,31.5,43.1,31.9,43z M32.5,43.3C32.3,43,32.2,43.4,32.5,43.3L32.5,43.3z M42.7,49.3
	c0.9-0.7-0.5-0.1-0.2,0.1L42.7,49.3z M42.3,49.2C43.1,48.6,41.5,49.5,42.3,49.2L42.3,49.2z M44.1,50.4C44.6,50,43.5,50.2,44.1,50.4z
	 M27.4,39.7c0.7,0.2,2.7,1.7,1.5,0.1c-0.6-0.2-0.2-1.7-0.9-1.4c0.4,0.7,0.3,1-0.5,0.5c-1.1-0.5-0.6,0.3-0.4,0.5
	C26.8,39.5,27.5,39.7,27.4,39.7z M24.4,37.3c0.1-0.5-1.1-2.7-0.6-1.1C24,36.5,24,37.1,24.4,37.3L24.4,37.3z M30,40.7
	C29.6,40.4,29.9,40.7,30,40.7L30,40.7z M30.8,40.9C30.8,40.4,29.9,40.7,30.8,40.9z M38.2,45.5C38,45.2,37.6,45.5,38.2,45.5z
	 M38.5,45.8C38.5,45.6,38.3,45.8,38.5,45.8L38.5,45.8z M41.4,47.6C41.7,47.4,41.1,47.6,41.4,47.6z M25.9,37.6
	C26.7,37.4,25,37.4,25.9,37.6L25.9,37.6z M37.5,45C37.5,44.5,37,45.1,37.5,45z M25.6,37C26.1,36.8,25.1,36.8,25.6,37L25.6,37z
	 M27,37.7C27,37.5,26.9,37.7,27,37.7L27,37.7z M45.2,48.8c0.7-0.1,2.2,0.3,2.4-0.2c-0.8,0-2.8-0.6-2.9,0.1H45L45.2,48.8L45.2,48.8z
	 M27.5,37.8C27.5,37.2,27.1,37.8,27.5,37.8L27.5,37.8z M23.6,35.1C23.4,34,22.9,34.9,23.6,35.1L23.6,35.1z M24.5,35.3
	C24.5,35,23.7,35,24.5,35.3z M25.1,35.6C24.9,35.4,25,35.7,25.1,35.6L25.1,35.6z M28.4,37.7C28.6,37.6,28.1,37.6,28.4,37.7z
	 M24.7,35C24.6,34.2,23.6,34.8,24.7,35z M22.8,33.8C22.8,33.4,22.6,33.9,22.8,33.8z M23.1,33.5C23.1,33.1,22.8,33.6,23.1,33.5z
	 M24.6,34.5c0.7-0.3-1.2-0.5-0.1,0H24.6z M45.7,47.5C46.2,47.1,45.2,47.4,45.7,47.5z M48.3,48.8C48.5,48.3,47.9,48.9,48.3,48.8z
	 M24.8,33.6C24.9,33.1,24.3,33.7,24.8,33.6z M22.6,32.1c-0.1-0.7-0.1-1.9,1-1.5c-1.5,0.3,1.1,1.9,0.7,0.6c0.6,0,1.3-0.4,0.9,0.3
	c1.3-0.1,2.2-1.2,3.4-1.1c1-0.1,2-0.3,3-0.6c0.9-0.1,1.7-1,1.2-1.5c-1.2-0.1-2.5,0-3.6,0.3c-1.4,0.3-2.7,0.9-4.1,1.1
	s0.3,0.5-0.1,0.6c-0.7,0.3,0.9,0.4-0.1,0.7c-0.6-0.1-1.2-0.3-1-0.9c-1.3,0.2-2.5,0.7-1.5,2.1L22.6,32.1L22.6,32.1z M25.8,30.5
	c0.3-1.1,1.7,1,0.5,0.1C26.2,30.5,26,30.5,25.8,30.5z M25.9,29.9C26.3,29.6,26.1,30.1,25.9,29.9L25.9,29.9z M26.4,29.9
	c0-0.5,1.3,0.3,0.2,0.2L26.4,29.9z M27.2,29.6C27.5,29.3,27.3,29.9,27.2,29.6z M27.4,29.5c0.5-0.6,2.7-0.4,1.1-0.1
	C28.1,29.1,27.7,29.6,27.4,29.5L27.4,29.5z M30.3,29C30.3,27.4,31.8,29.6,30.3,29z M31.1,29c0.3-0.8,1.2-0.3,0.1-0.2
	C31.3,28.9,31.3,29.2,31.1,29z M24.5,33.2C25.4,32.6,23.5,32.7,24.5,33.2z M25.2,33.4C25.5,33.1,24.5,33.3,25.2,33.4L25.2,33.4z
	 M23.2,32C23.7,31.6,22.6,31.8,23.2,32z M49.8,48.6C49.8,48.2,49.4,48.8,49.8,48.6z M47.1,46.8C47.2,46.3,46.8,46.8,47.1,46.8z
	 M50.5,48.8c0.7,0,2.2-0.2,0.6-0.2C50.9,48.6,49.7,48.6,50.5,48.8z M25.8,33.1c0.6,0,0.9-0.6-0.1-0.6C24,32.3,27,33,25.4,32.8
	C25.2,32.9,25.7,33.1,25.8,33.1z M26.3,33.3C26.2,33,26.1,33.5,26.3,33.3L26.3,33.3z M26.9,31.7C27.1,31.4,26.5,31.6,26.9,31.7z
	 M24.9,28.5c1-0.4,2.5-0.8,3,0.2c-0.5-0.6-0.2-1.2,0.3-0.3c0.7,0.9,1-0.4,0.6-0.7c0.5,0.6,1.1,0.9,0.3,0c0.8-1-1.6,0.1-2.1,0.1
	C26.7,27.9,24.3,28.4,24.9,28.5L24.9,28.5z M25.5,27.3c0.6-0.5,2,0.3,1.1-0.5C26.6,26.8,24.6,27.4,25.5,27.3z M27.7,27.4
	c0.7,0-0.3-0.9,0.5-0.5c-0.1-0.5-1-0.5-1.4-0.7C26.6,26.6,27.3,27.4,27.7,27.4z M25.9,25.4C26.2,25.1,25.5,25.6,25.9,25.4L25.9,25.4
	z M26.8,25.6c1.1-0.1-0.3-0.5-0.2,0H26.8z M25.2,24.3c-0.8-1,1.5,0.2,0.7-0.9C25.2,22.9,24.5,24,25.2,24.3L25.2,24.3z M35.3,29.8
	c0.4-0.6-1.5-0.9-0.2-0.2C35.1,29.6,35.1,29.8,35.3,29.8L35.3,29.8z"/>
</svg>
