<?xml version="1.0" encoding="utf-8"?>
<!-- Generator: Adobe Illustrator 21.0.0, SVG Export Plug-In . SVG Version: 6.00 Build 0)  -->
<svg version="1.1" id="Layer_1" xmlns="http://www.w3.org/2000/svg" xmlns:xlink="http://www.w3.org/1999/xlink" x="0px" y="0px"
	 viewBox="0 0 74 74" style="enable-background:new 0 0 74 74;" xml:space="preserve">
<style type="text/css">
	.st0{fill:none;stroke:#006FAF;stroke-width:2;stroke-miterlimit:10;}
	.st1{fill:#006FAF;}
</style>
<title>Azure_Site_Recovery</title>
<circle class="st0" cx="37" cy="37" r="36"/>
<path class="st1" d="M29.4,37.7c0,1.3,0,2.6,0,3.8c0,1.1-0.1,2.2,0.1,3.3c0.4,2.8,2.9,4.8,5.7,4.9c2,0,4.1,0,6.1,0
	c0.3,0,0.4-0.1,0.6-0.4c1.1-2.5,3.6-3.9,6.3-3.6c2.5,0.3,4.6,2.4,5.1,4.9c0.5,3-1.3,5.8-4.1,6.7c-2.9,0.9-5.9-0.5-7.2-3.2
	c-0.2-0.4-0.4-0.5-0.8-0.5c-2.2,0-4.4,0.1-6.7-0.1c-4.4-0.3-8.2-3.7-8.9-8.1c-0.1-0.7-0.2-1.4-0.2-2.1c0-4.6,0-9.1,0-13.7
	c0-0.3-0.1-0.5-0.4-0.7c-2.7-1.2-4.1-4.1-3.4-6.9c0.7-2.8,3.3-4.7,6.3-4.5c2.8,0.1,5.1,2.4,5.5,5.2c0.4,2.6-1.1,5.2-3.6,6.3
	c-0.3,0.1-0.4,0.3-0.4,0.6c0.1,3.3,2.6,5.8,5.9,5.9c2,0,4.1,0,6.1,0c0.3,0,0.4-0.2,0.5-0.4c1.1-2.4,3.5-3.9,6.1-3.6
	c2.7,0.3,4.7,2.2,5.3,4.8c0.6,2.9-1.1,5.9-4,6.9c-2.9,1-6-0.4-7.3-3.2c-0.2-0.5-0.4-0.6-0.9-0.6c-1.8,0-3.6,0-5.4,0
	c-2.2,0-4.2-0.6-6-1.8C29.7,37.8,29.6,37.8,29.4,37.7z M49.4,51.7c0-1.1-0.9-2-2-2c-1.1,0-2,0.9-2,2c0,1.1,0.9,2,2,2
	C48.5,53.7,49.4,52.8,49.4,51.7z M27.4,25.7c1.1,0,2-0.9,2-2c0-1.1-0.9-2-2-2c-1.1,0-2,0.9-2,2C25.4,24.8,26.3,25.7,27.4,25.7z
	 M47.4,39.7c1.1,0,2-0.9,2-2c0-1.1-0.9-2-2-2c-1.1,0-2,0.9-2,2C45.4,38.8,46.3,39.7,47.4,39.7z"/>
</svg>
