<?xml version="1.0" encoding="utf-8"?>
<!-- Generator: Adobe Illustrator 21.0.2, SVG Export Plug-In . SVG Version: 6.00 Build 0)  -->
<svg version="1.1" id="Layer_1" xmlns="http://www.w3.org/2000/svg" xmlns:xlink="http://www.w3.org/1999/xlink" x="0px" y="0px"
	 viewBox="0 0 74 74" style="enable-background:new 0 0 74 74;" xml:space="preserve">
<style type="text/css">
	.st0{fill:#006FAF;}
</style>
<title>framework-7</title>
<path class="st0" d="M37,74C16.6,74,0,57.4,0,37S16.6,0,37,0s37,16.6,37,37S57.4,74,37,74z M37,2C17.7,2,2,17.7,2,37s15.7,35,35,35
	s35-15.7,35-35S56.3,2,37,2z"/>
<g>
	<g id="layer2">
		<path class="st0" d="M37.8,46c-5.2,0-9.4-4.2-9.4-9.4s4.2-9.4,9.4-9.4s9.4,4.2,9.4,9.4C47.2,41.8,43,46,37.8,46z M37.8,27.5
			c-5,0-9.1,4.1-9.1,9.1s4.1,9.1,9.1,9.1s9.1-4.1,9.1-9.1l0,0C46.8,31.6,42.8,27.6,37.8,27.5L37.8,27.5z"/>
	</g>
	<g id="layer3">
		<path class="st0" d="M37.8,52c-8.5,0-15.4-6.9-15.4-15.4c0-8.5,6.9-15.4,15.4-15.4c8.5,0,15.4,6.9,15.4,15.4c0,0,0,0,0,0
			C53.2,45.1,46.3,52,37.8,52z M37.8,22c-8.1,0-14.6,6.5-14.6,14.6s6.5,14.6,14.6,14.6c8,0,14.6-6.5,14.6-14.5
			C52.4,28.6,45.9,22.1,37.8,22L37.8,22z"/>
	</g>
	<g id="layer5">
		<rect x="22.7" y="31.6" class="st0" width="0.4" height="15.1"/>
	</g>
	<g id="layer6">
		<rect x="31.2" y="25.7" class="st0" width="0.4" height="27"/>
	</g>
	<g id="layer7">
		<rect x="37.7" y="25.8" class="st0" width="0.3" height="26.9"/>
	</g>
	<g id="layer8">
		<rect x="44.3" y="29.7" class="st0" width="0.3" height="22.9"/>
	</g>
	<g id="layer9">
		<rect x="24" y="29.9" class="st0" width="20.9" height="0.4"/>
	</g>
	<g id="layer10">
		<rect x="20.8" y="36.4" class="st0" width="27.1" height="0.3"/>
	</g>
	<g id="layer11">
		<rect x="21.3" y="42.9" class="st0" width="26.5" height="0.3"/>
	</g>
	<g id="layer12">
		<rect x="28.3" y="51.5" class="st0" width="12.4" height="0.3"/>
	</g>
	<g id="layer13">
		<polygon class="st0" points="25.3,49.6 25,49.3 44.6,29.7 44.8,30 		"/>
	</g>
	<g id="layer14">
		
			<rect x="37.3" y="23.1" transform="matrix(0.7071 -0.7071 0.7071 0.7071 -14.6126 37.1165)" class="st0" width="0.3" height="26.2"/>
	</g>
	<g>
		<path class="st0" d="M33,32c-0.2,0-0.5,0.1-0.6,0.3c0-0.1-0.1-0.1-0.2-0.2C32.1,32,32,32,31.8,32c-0.1,0-0.3,0-0.4,0.1l-0.1,0.1
			V32h-0.5v2h0.5V33c0-0.1,0-0.3,0.1-0.3c0.1-0.1,0.2-0.1,0.3-0.1c0.1,0,0.2,0,0.2,0.1c0.1,0.1,0.1,0.2,0.1,0.3v1.1h0.5V33
			c0-0.1,0-0.3,0.1-0.3c0.1-0.1,0.2-0.1,0.3-0.1c0.1,0,0.2,0,0.2,0.1c0.1,0.1,0.1,0.2,0.1,0.3v1.1h0.5v-1.2c0-0.2-0.1-0.4-0.2-0.6
			C33.4,32.1,33.2,32,33,32z"/>
		<path class="st0" d="M29.7,32c-0.1,0-0.2,0-0.3,0c-0.1,0-0.2,0.1-0.3,0.1l0,0l0,0L28.9,32h-0.1c-0.1,0-0.3,0-0.4,0.1l-0.1,0.1V32
			h-0.5v0.4h-0.9V32h1.1v-0.5h-1.6v2.6h0.5v-1.2h0.9v1.2h0.5V33c0-0.1,0-0.3,0.1-0.4c0.1-0.1,0.2-0.1,0.3-0.1c0.1,0,0.1,0,0.2,0
			l0.1,0.1v0.1l0.1-0.1c0.1,0,0.2-0.1,0.3-0.1c0.1,0,0.2,0,0.3,0c0.1,0,0.2,0,0.3,0.1c0.1,0,0.1,0.1,0.1,0.2h-0.3
			c-0.2,0-0.5,0-0.7,0.2c-0.2,0.1-0.3,0.3-0.2,0.5c0,0.2,0,0.4,0.1,0.6c0.1,0.1,0.3,0.2,0.5,0.2c0.1,0,0.3,0,0.4-0.1L30,34v0.1h0.5
			V33c0-0.2-0.1-0.5-0.2-0.7C30.2,32.1,29.9,32,29.7,32z M29.4,33.2c0.1-0.1,0.3-0.1,0.5-0.1h0.2c0,0.1,0,0.3-0.1,0.4
			c-0.1,0.1-0.2,0.1-0.3,0.1c-0.1,0-0.2,0-0.2-0.1c0,0-0.1-0.1-0.1-0.2C29.3,33.3,29.4,33.3,29.4,33.2L29.4,33.2z"/>
		<path class="st0" d="M34.7,32c-0.3,0-0.5,0.1-0.7,0.3c-0.2,0.2-0.3,0.5-0.3,0.8c0,0.3,0.1,0.6,0.3,0.8c0.2,0.2,0.5,0.3,0.8,0.3
			c0.1,0,0.2,0,0.4,0c0.1,0,0.2-0.1,0.3-0.1h0.1v-0.5l-0.2,0.1c-0.1,0.1-0.2,0.1-0.3,0.1c-0.1,0-0.2,0-0.3,0c-0.1,0-0.3,0-0.4-0.1
			c-0.1-0.1-0.1-0.2-0.1-0.3h1.4V33c0-0.3-0.1-0.5-0.2-0.7C35.2,32.1,35,32,34.7,32z M34.7,32.4c0.1,0,0.2,0,0.3,0.1
			c0.1,0.1,0.1,0.1,0.1,0.2h-0.8c0-0.1,0.1-0.2,0.1-0.2C34.5,32.5,34.6,32.5,34.7,32.4L34.7,32.4z"/>
		<path class="st0" d="M42.1,33l1.1-1H43h-0.5l-0.7,0.6v-1.3h-0.5v0.7l-0.1,0h-0.1c-0.1,0-0.3,0-0.4,0.1l-0.1,0.1v-0.1h-0.5v2h0.5
			V33c0-0.1,0-0.3,0.1-0.4c0.1-0.1,0.2-0.1,0.3-0.1c0.1,0,0.1,0,0.2,0h0.1v1.6h0.5v-0.8l0.8,0.8h0.6L42.1,33z"/>
		<path class="st0" d="M39.1,32c-0.3,0-0.5,0.1-0.7,0.3c-0.3,0.5-0.3,1.1,0,1.5c0.4,0.4,1,0.4,1.4,0c0.3-0.5,0.3-1.1,0-1.5
			C39.6,32.1,39.3,32,39.1,32z M39.4,33.5c-0.1,0.1-0.2,0.2-0.3,0.2c-0.1,0-0.2-0.1-0.3-0.2c-0.2-0.3-0.2-0.6,0-0.9
			c0.1-0.2,0.4-0.2,0.5-0.1c0,0,0,0,0.1,0.1C39.5,32.9,39.5,33.2,39.4,33.5z"/>
		<polygon class="st0" points="37.7,32.1 37.4,33.2 37.1,32.1 36.6,32.1 36.3,33.2 36,32.1 35.5,32.1 36,34.1 36.5,34.1 36.9,32.9 
			37.2,34.1 37.7,34.1 38.2,32.1 		"/>
	</g>
	<g>
		<rect x="30.2" y="36" class="st0" width="8.5" height="0.7"/>
		<path class="st0" d="M32.2,49v-0.5c0-1.2,0.2-2.4,0.5-3.6c0.5-1.7,1.2-3.4,2.2-4.9l3-3.6h0.8v0.4l-0.1,0.1
			c-1.5,1.4-2.8,3.1-3.8,4.9c-1.2,2.2-1.9,4.6-1.8,7.1V49H32.2z"/>
	</g>
</g>
</svg>
