<?xml version="1.0" encoding="utf-8"?>
<!-- Generator: Adobe Illustrator 21.0.2, SVG Export Plug-In . SVG Version: 6.00 Build 0)  -->
<svg version="1.1" id="Layer_1" xmlns="http://www.w3.org/2000/svg" xmlns:xlink="http://www.w3.org/1999/xlink" x="0px" y="0px"
	 viewBox="0 0 74 74" style="enable-background:new 0 0 74 74;" xml:space="preserve">
<style type="text/css">
	.st0{fill:#006FAF;}
</style>
<title>health-checks</title>
<path class="st0" d="M37,0C16.6,0,0,16.6,0,37s16.6,37,37,37s37-16.6,37-37S57.4,0,37,0z M37,72C17.7,72,2,56.3,2,37S17.7,2,37,2
	s35,15.7,35,35S56.3,72,37,72z"/>
<path class="st0" d="M41.7,30.4v4.1h-2l0.1-7.8h-3.5v-6.1H23.1v13.2h13.2v-6h2.3l-0.1,7.8h3.2v2.7h-3.2l0.1,7.8h-2.3v-6H23.1v13.2
	h13.2v-6.1h3.5l-0.1-7.8h2v4.1h13.2V30.4H41.7z M35.1,32.6H24.2V21.7h10.9V32.6z M35.1,52.3H24.2V41.4h10.9V52.3z M53.8,42.4H42.9
	V31.6h10.9V42.4z"/>
</svg>
