<?xml version="1.0" encoding="utf-8"?>
<!-- Generator: Adobe Illustrator 21.0.2, SVG Export Plug-In . SVG Version: 6.00 Build 0)  -->
<svg version="1.1" id="Layer_1" xmlns="http://www.w3.org/2000/svg" xmlns:xlink="http://www.w3.org/1999/xlink" x="0px" y="0px"
	 viewBox="0 0 74 74" style="enable-background:new 0 0 74 74;" xml:space="preserve">
<style type="text/css">
	.st0{fill:none;stroke:#006FAF;stroke-width:2;stroke-miterlimit:10;}
	.st1{enable-background:new    ;}
	.st2{fill:#006FAF;}
</style>
<title>health-checks</title>
<circle class="st0" cx="37" cy="37" r="36"/>
<title></title>
<desc></desc>
<g id="Layer_3">
</g>
<g class="st1">
	<path class="st2" d="M15.9,33.9v2.7h4.3v1.5h-4.3v4h-1.7v-9.8h6.5v1.5L15.9,33.9L15.9,33.9z"/>
	<path class="st2" d="M27.6,38.7v-4h1.6v7.4h-1.6v-1.4c-0.3,0.5-0.6,0.8-1,1.1s-0.9,0.4-1.4,0.4c-0.8,0-1.5-0.3-2-0.8
		s-0.8-1.3-0.8-2.2v-4.6H24v4.1c0,1.4,0.6,2.1,1.7,2.1c0.5,0,1-0.2,1.4-0.5C27.4,39.9,27.6,39.4,27.6,38.7z"/>
	<path class="st2" d="M33,38.1v4h-1.6v-7.4H33V36c0.3-0.5,0.6-0.8,1-1.1s0.9-0.4,1.4-0.4c0.8,0,1.5,0.3,2,0.8s0.8,1.3,0.8,2.2v4.6
		h-1.6V38c0-1.4-0.6-2.1-1.7-2.1c-0.5,0-1,0.2-1.4,0.5C33.2,36.9,33,37.4,33,38.1z"/>
	<path class="st2" d="M42,38.1v4h-1.6v-7.4H42V36c0.3-0.5,0.6-0.8,1-1.1s0.9-0.4,1.4-0.4c0.8,0,1.5,0.3,2,0.8s0.8,1.3,0.8,2.2v4.6
		h-1.6V38c0-1.4-0.6-2.1-1.7-2.1c-0.5,0-1,0.2-1.4,0.5C42.2,36.9,42,37.4,42,38.1z"/>
	<path class="st2" d="M56.4,39.1h-5.8c0,0.5,0.3,1,0.7,1.3c0.5,0.3,1,0.5,1.6,0.5c0.9,0,1.6-0.3,2.1-0.9l0.9,1
		c-0.8,0.8-1.8,1.2-3.1,1.2c-1,0-1.9-0.3-2.7-1c-0.7-0.7-1.1-1.6-1.1-2.8s0.4-2.1,1.1-2.8c0.7-0.7,1.6-1,2.6-1s1.9,0.3,2.6,0.9
		s1.1,1.5,1.1,2.5C56.4,38,56.4,39.1,56.4,39.1z M50.6,37.9h4.3c0-0.6-0.2-1.1-0.6-1.4S53.4,36,52.9,36s-1.1,0.2-1.5,0.5
		C50.8,36.8,50.6,37.3,50.6,37.9z"/>
	<path class="st2" d="M59.7,42.1h-1.6V31.8h1.6V42.1z"/>
</g>
</svg>
