<?xml version="1.0" encoding="utf-8"?>
<!-- Generator: Adobe Illustrator 21.0.2, SVG Export Plug-In . SVG Version: 6.00 Build 0)  -->
<svg version="1.1" id="Layer_1" xmlns="http://www.w3.org/2000/svg" xmlns:xlink="http://www.w3.org/1999/xlink" x="0px" y="0px"
	 viewBox="0 0 74 74" style="enable-background:new 0 0 74 74;" xml:space="preserve">
<style type="text/css">
	.st0{fill:none;stroke:#006FAF;stroke-width:2;stroke-miterlimit:10;}
	.st1{fill:#006FAF;}
</style>
<circle class="st0" cx="37" cy="37" r="36"/>
<g>
	<path class="st1" d="M48.8,30.4L48.8,30.4c-0.2,0-0.3,0.1-0.3,0.3c0,0.2,0.1,0.3,0.3,0.3s0.3-0.1,0.3-0.3
		C49,30.6,48.9,30.4,48.8,30.4z"/>
	<path class="st1" d="M37,43.6c-0.6,0-1.1,0.5-1.1,1.1s0.5,1.1,1.1,1.1s1.1-0.5,1.1-1.1S37.6,43.6,37,43.6z M37,45.2
		c-0.3,0-0.5-0.2-0.5-0.5s0.2-0.5,0.5-0.5s0.5,0.2,0.5,0.5S37.3,45.2,37,45.2z"/>
	<path class="st1" d="M21.4,41.4h31.2c0.2,0,0.3-0.1,0.3-0.3v-18c0-0.2-0.1-0.3-0.3-0.3H21.4c-0.2,0-0.3,0.1-0.3,0.3v18
		C21.1,41.3,21.3,41.4,21.4,41.4z M21.7,39.7v-1.1h1.1v1.1H21.7z M22.8,28.3h-1.1v-1.1h1.1V28.3z M22.8,28.8v1.1h-1.1v-1.1H22.8z
		 M22.8,30.4v1.1h-1.1v-1.1H22.8z M22.8,32.1v1.1h-1.1v-1.1H22.8z M22.8,33.7v1.1h-1.1v-1.1H22.8z M22.8,35.4v1.1h-1.1v-1.1H22.8z
		 M22.8,37v1.1h-1.1V37H22.8z M22.8,26.6h-1.1v-1.1h1.1V26.6z M21.7,40.3h1.4c0.2,0,0.3-0.1,0.3-0.3V25.2c0-0.2-0.1-0.3-0.3-0.3
		h-1.4v-0.5h25.7v16.4H21.7V40.3z M52.3,24.4v3.8h-4.4v-3.8H52.3z M47.9,40.8v-12h4.4v12H47.9L47.9,40.8z M22.5,23.3
		c-0.2,0-0.3,0.1-0.3,0.3s0.1,0.3,0.3,0.3c0.2,0,0.3-0.1,0.3-0.3S22.7,23.3,22.5,23.3h1.1c-0.2,0-0.3,0.1-0.3,0.3s0.1,0.3,0.3,0.3
		c0.2,0,0.3-0.1,0.3-0.3s-0.1-0.3-0.3-0.3h1.1c-0.2,0-0.3,0.1-0.3,0.3s0.1,0.3,0.3,0.3c0.2,0,0.3-0.1,0.3-0.3s-0.1-0.3-0.3-0.3h27.6
		v0.5H24.7h-1.1h-1.1h-0.8v-0.5H22.5z"/>
	<path class="st1" d="M52.6,21.1H21.4c-1.1,0-1.9,0.9-1.9,1.9v21.9l0,0V46c0,1.1,0.8,1.9,1.9,1.9h11.7l-1,4.4h-0.6
		c-0.2,0-0.3,0.1-0.3,0.3s0.1,0.3,0.3,0.3h10.9c0.2,0,0.3-0.1,0.3-0.3s-0.1-0.3-0.3-0.3h-0.6l-1-4.4h11.7c1.1,0,1.9-0.8,1.9-1.9
		v-1.1V23.1C54.5,22,53.6,21.1,52.6,21.1z M52.6,46.3H21.4c-0.8,0-1.4-0.6-1.4-1.4l0,0V43h34v1.9C54,45.7,53.3,46.3,52.6,46.3z
		 M21.4,21.7h31.2c0.8,0,1.4,0.6,1.4,1.4v19.4H20V23.1C20,22.3,20.7,21.7,21.4,21.7z M41.3,52.3h-8.6l1-4.4h6.7L41.3,52.3z
		 M52.6,47.4H21.4c-0.7,0-1.2-0.5-1.3-1.1c0.3,0.3,0.8,0.6,1.3,0.6h31.2c0.5,0,1-0.2,1.3-0.6C53.8,46.9,53.3,47.4,52.6,47.4z"/>
	<path class="st1" d="M48.8,26.1h2.7c0.2,0,0.3-0.1,0.3-0.3c0-0.2-0.1-0.3-0.3-0.3h-2.7c-0.2,0-0.3,0.1-0.3,0.3
		C48.5,25.9,48.6,26.1,48.8,26.1z"/>
	<path class="st1" d="M51.5,26.6h-2.7c-0.2,0-0.3,0.1-0.3,0.3s0.1,0.3,0.3,0.3h2.7c0.2,0,0.3-0.1,0.3-0.3S51.6,26.6,51.5,26.6z"/>
	<path class="st1" d="M51.5,30.4h-1.6c-0.2,0-0.3,0.1-0.3,0.3c0,0.2,0.1,0.3,0.3,0.3h1.6c0.2,0,0.3-0.1,0.3-0.3
		C51.8,30.6,51.6,30.4,51.5,30.4z"/>
	<path class="st1" d="M48.8,32.1L48.8,32.1c-0.2,0-0.3,0.1-0.3,0.3s0.1,0.3,0.3,0.3s0.3-0.1,0.3-0.3S48.9,32.1,48.8,32.1z"/>
	<path class="st1" d="M51.5,32.1h-1.6c-0.2,0-0.3,0.1-0.3,0.3s0.1,0.3,0.3,0.3h1.6c0.2,0,0.3-0.1,0.3-0.3S51.6,32.1,51.5,32.1z"/>
	<path class="st1" d="M48.8,33.7L48.8,33.7c-0.2,0-0.3,0.1-0.3,0.3s0.1,0.3,0.3,0.3s0.3-0.1,0.3-0.3S48.9,33.7,48.8,33.7z"/>
	<path class="st1" d="M51.5,33.7h-1.6c-0.2,0-0.3,0.1-0.3,0.3s0.1,0.3,0.3,0.3h1.6c0.2,0,0.3-0.1,0.3-0.3S51.6,33.7,51.5,33.7z"/>
	<path class="st1" d="M48.8,35.4L48.8,35.4c-0.2,0-0.3,0.1-0.3,0.3s0.1,0.3,0.3,0.3s0.3-0.1,0.3-0.3S48.9,35.4,48.8,35.4z"/>
	<path class="st1" d="M51.5,35.4h-1.6c-0.2,0-0.3,0.1-0.3,0.3s0.1,0.3,0.3,0.3h1.6c0.2,0,0.3-0.1,0.3-0.3S51.6,35.4,51.5,35.4z"/>
	<path class="st1" d="M48.8,37L48.8,37c-0.2,0-0.3,0.1-0.3,0.3s0.1,0.3,0.3,0.3s0.3-0.1,0.3-0.3C49,37.1,48.9,37,48.8,37z"/>
	<path class="st1" d="M51.5,37h-1.6c-0.2,0-0.3,0.1-0.3,0.3s0.1,0.3,0.3,0.3h1.6c0.2,0,0.3-0.1,0.3-0.3S51.6,37,51.5,37z"/>
	<path class="st1" d="M48.8,38.6L48.8,38.6c-0.2,0-0.3,0.1-0.3,0.3s0.1,0.3,0.3,0.3s0.3-0.1,0.3-0.3C49,38.8,48.9,38.6,48.8,38.6z"
		/>
	<path class="st1" d="M51.5,38.6h-1.6c-0.2,0-0.3,0.1-0.3,0.3s0.1,0.3,0.3,0.3h1.6c0.2,0,0.3-0.1,0.3-0.3
		C51.8,38.8,51.6,38.6,51.5,38.6z"/>
	<path class="st1" d="M42.7,31.5h-0.8v-0.3c0-0.2-0.1-0.3-0.3-0.3s-0.3,0.1-0.3,0.3v0.2L39,31c-0.1,0-0.2,0-0.2,0l-2.2,1.6l0,0
		c0,0,0,0-0.1,0.1l0,0v0.1v0.1l0,0c0,0,0,0,0.1,0.1l0,0l2.2,1.6c0,0,0.1,0.1,0.2,0.1c0,0,0,0,0.1,0l2.4-0.5v0.2
		c0,0.2,0.1,0.3,0.3,0.3s0.3-0.1,0.3-0.3v-0.3h0.8c0.2,0,0.3-0.1,0.3-0.3v-2.2C43,31.7,42.9,31.5,42.7,31.5z M37.5,33.2h1.9
		c0.2,0,0.3-0.1,0.3-0.3s-0.1-0.3-0.3-0.3h-1.9l1.4-1.1l2.4,0.5v1.7L39,34.3L37.5,33.2z M42.5,33.7H42v-1.6h0.5V33.7z"/>
	<path class="st1" d="M36.2,32.1h-0.3v-3.3c0.3-0.1,0.5-0.4,0.5-0.8c0-0.5-0.4-0.8-0.8-0.8s-0.8,0.4-0.8,0.8s0.2,0.7,0.5,0.8v1.7
		c-0.9-1.9-2.7-3.2-4.9-3.3v-0.3c0-0.2-0.1-0.3-0.3-0.3H29c-0.2,0-0.3,0.1-0.3,0.3V28c0,0.2,0.1,0.3,0.3,0.3h1.1
		c0.2,0,0.3-0.1,0.3-0.3v-0.3c2.5,0.1,4.5,1.9,4.9,4.4h-0.2c-0.2,0-0.3,0.1-0.3,0.3v1.1c0,0.2,0.1,0.3,0.3,0.3h0.2
		c-0.4,2.4-2.4,4.2-4.9,4.4v-0.3c0-0.2-0.1-0.3-0.3-0.3H29c-0.2,0-0.3,0.1-0.3,0.3V39c0,0.2,0.1,0.3,0.3,0.3h1.1
		c0.2,0,0.3-0.1,0.3-0.3v-0.3c2.2-0.1,4-1.4,4.9-3.2v1.7c-0.3,0.1-0.5,0.4-0.5,0.8c0,0.5,0.4,0.8,0.8,0.8c0.5,0,0.8-0.4,0.8-0.8
		c0-0.4-0.2-0.7-0.5-0.8v-3.3h0.3c0.2,0,0.3-0.1,0.3-0.3v-0.5v-0.5C36.5,32.2,36.3,32.1,36.2,32.1z M29.9,27.7h-0.5v-0.5h0.5V27.7z
		 M29.9,38.6h-0.5v-0.5h0.5V38.6z M35.6,27.7c0.2,0,0.3,0.1,0.3,0.3c0,0.2-0.1,0.3-0.3,0.3s-0.3-0.1-0.3-0.3S35.5,27.7,35.6,27.7z
		 M35.6,38.1c-0.2,0-0.3-0.1-0.3-0.3s0.1-0.3,0.3-0.3s0.3,0.1,0.3,0.3C35.9,38,35.8,38.1,35.6,38.1z M35.9,33.2h-0.5v-0.5h0.5V33.2z
		"/>
</g>
</svg>
