<?xml version="1.0" encoding="utf-8"?>
<!-- Generator: Adobe Illustrator 21.0.2, SVG Export Plug-In . SVG Version: 6.00 Build 0)  -->
<svg version="1.1" id="Layer_1" xmlns="http://www.w3.org/2000/svg" xmlns:xlink="http://www.w3.org/1999/xlink" x="0px" y="0px"
	 viewBox="0 0 74 74" style="enable-background:new 0 0 74 74;" xml:space="preserve">
<style type="text/css">
	.st0{fill:none;stroke:#006FAF;stroke-width:2;stroke-miterlimit:10;}
	.st1{fill:none;stroke:#006FAF;stroke-width:2;stroke-linecap:round;stroke-linejoin:round;}
</style>
<title>Cloud &amp;amp; Infrastructure Services</title>
<circle class="st0" cx="37" cy="37" r="36"/>
<g id="Git">
	<g id="_Group_">
		<path id="_Path_" class="st1" d="M54.6,35.9L38.1,19.5c-0.6-0.6-1.6-0.6-2.2,0L19.5,35.9c-0.6,0.6-0.6,1.6,0,2.2l16.4,16.4
			c0.6,0.6,1.6,0.6,2.2,0l16.4-16.4C55.2,37.5,55.2,36.5,54.6,35.9L54.6,35.9z"/>
		<line id="_Path_2" class="st1" x1="31.7" y1="23.9" x2="35.3" y2="27.5"/>
		<line id="_Path_3" class="st1" x1="37" y1="31.5" x2="37" y2="42.5"/>
		<circle id="_Path_4" class="st1" cx="37" cy="29.2" r="2.3"/>
		<circle id="_Path_5" class="st1" cx="44.8" cy="37" r="2.3"/>
		<circle id="_Path_6" class="st1" cx="37" cy="44.8" r="2.3"/>
		<line id="_Path_7" class="st1" x1="38.7" y1="30.9" x2="43.2" y2="35.4"/>
	</g>
</g>
</svg>
