<?xml version="1.0" encoding="utf-8"?>
<!-- Generator: Adobe Illustrator 21.0.2, SVG Export Plug-In . SVG Version: 6.00 Build 0)  -->
<svg version="1.1" id="Layer_1" xmlns="http://www.w3.org/2000/svg" xmlns:xlink="http://www.w3.org/1999/xlink" x="0px" y="0px"
	 viewBox="0 0 74 74" style="enable-background:new 0 0 74 74;" xml:space="preserve">
<style type="text/css">
	.st0{fill:none;stroke:#006FAF;stroke-width:2;stroke-miterlimit:10;}
	.st1{fill:#006FAF;}
	.st2{fill:#FDFDFD;}
	.st3{fill:#FEFEFE;}
	.st4{fill:#E5E5E5;}
	.st5{fill:#F6F6F6;}
</style>
<circle class="st0" cx="37" cy="37" r="36"/>
<g>
	<path class="st1" d="M23,37c-0.1,0.4-0.1,0.9,0.1,1.3c0.1,0.2,0.2,0.3,0.4,0.3c0.2,0,0.2-0.2,0.2-0.4s0.1-0.3,0.1-0.5
		c0-0.7,0.2-1.4,0.6-2c0.5-0.8,1.2-1.5,1.8-2.1c0.1-0.1,0.2-0.2,0.4-0.2c0.2,0,0.1,0.2,0.1,0.3c0,0.2,0,0.4,0.1,0.5
		c0.1,0.2,0.2,0.4,0.4,0.3c0.2,0,0.3-0.2,0.3-0.4c0-0.5-0.1-0.9-0.1-1.4c0-0.3,0-0.3,0.3-0.3c1.1,0,2.1-0.1,3.2-0.1
		c0.5,0,0.8,0.2,1.1,0.6c0.6,0.8,1.5,1.2,2.4,1.5c0.3,0.1,0.5,0.2,0.8,0.2s0.4,0.2,0.2,0.5s-0.5,0.6-0.8,0.8c-0.5,0.4-1.1,0.7-1.7,1
		c-0.3,0.1-0.8,0.3-0.8,0.6s0.6,0.3,0.9,0.4c0.5,0.1,1,0.2,1.5,0.3c0.7,0.1,0.8,0.3,0.6,0.9c-0.1,0.7,0,1.3,0.4,1.9
		c0.6,1,1.5,1.8,2.3,2.5c0.3,0.2,0.5,0.5,0.8,0.8c0.2,0.3,0.1,0.5-0.1,0.7c-0.4,0.4-0.9,0.4-1.3,0.3c-0.7-0.1-1.4-0.2-2.1-0.3
		c-0.3,0-0.3-0.2-0.3-0.4c0.1-1,0.2-1.9,0.1-2.9c0-0.2,0-0.5-0.2-0.5s-0.3,0.3-0.3,0.4c-0.2,0.8-0.4,1.6-0.4,2.5
		c0,0.7,0.3,1.2,1,1.4c0.5,0.2,1,0.3,1.6,0.4c1.2,0.2,2.1,0.9,2.8,1.8c0.1,0.1,0.1,0.2-0.1,0.2c-0.5,0.2-1,0.4-1.5,0.5
		c-0.3,0-0.6,0-0.8-0.2c-1.1-0.6-2.3-0.5-3.4,0.1c-0.2,0.1-0.5,0.3-0.7,0.4c-0.3,0.3-0.5,0.2-0.8,0c-0.7-0.6-1.4-1.1-2.1-1.7
		c-0.9-0.7-1.4-1.7-1.8-2.7c-0.2-0.7-0.4-1.4-0.7-2.1c-0.1-0.2-0.2-0.5-0.4-0.6c-0.1-0.1-0.2-0.1-0.3-0.1c-0.1,0.1-0.1,0.2-0.1,0.3
		c0.6,2.8,1.6,5.2,4.1,6.9c0.2,0.2,0.4,0.3,0.7,0.5c0.2,0.2,0.2,0.3-0.1,0.4c-1.5,0.8-2.9,1.5-4.4,2.2c-0.3,0.1-0.3,0-0.5-0.2
		c-0.7-0.9-1.3-2-2-3c-0.2-0.2-0.3-0.5-0.5-0.7c-0.4-0.5-0.9-0.8-1.6-0.8c-0.9,0-1.8-0.2-2.7-0.4c-0.3-0.1-0.3-0.1-0.2-0.4
		c0.5-1.2,1-2.4,1.5-3.5c0.1-0.2,0.1-0.4-0.1-0.6c-0.4-0.6-0.8-1.2-1-1.9c-0.1-0.4-0.2-0.7,0-1.1c0-0.1,0.1-0.2,0.2-0.2
		s0.1,0.1,0.2,0.2c0.1,0.3,0.2,0.6,0.3,0.8c0.1,0.1,0.2,0.3,0.3,0.3c0.2,0,0.2-0.2,0.3-0.3c0-0.1,0.1-0.2,0.1-0.3
		c0.1-1.2,0.8-2.1,1.8-2.8C22.9,37,22.9,37,23,37z"/>
	<path class="st1" d="M45,26.6c-0.4,0.1-0.6,0-0.8-0.1c-1-0.3-1.9-0.7-2.8-1.2c-0.6-0.3-1.2-0.6-1.8-0.8c-0.3-0.1-0.6,0-0.8,0.2
		c-1.3,1.5-2.4,3-2.9,4.9c-0.1,0.3-0.1,0.7-0.1,1c0.1,0.7,0.5,1,1.2,1c1.3-0.1,2.6-0.4,3.9-0.7c0.7-0.1,1.4-0.3,2-0.4
		s1.1,0.1,1.5,0.6c0.3,0.3,0.2,0.4-0.2,0.5c-0.8,0.2-1.6,0.3-2.4,0.4c-1.2,0.1-2.4,0.5-3.6,1.1c-0.7,0.4-1.5,0.8-2.3,0.9
		c-1.1,0.1-2-0.2-2.9-0.9c-0.4-0.4-0.4-0.9-0.3-1.4c0.3-1.2,0.8-2.3,1.3-3.3c0.8-1.6,1.5-3.1,2.6-4.5c0.6-0.8,1.3-1.5,2.3-1.7
		c0.9-0.2,1.8,0,2.5,0.9c0.3,0.5,0.6,1.1,0.9,1.6c0.5,0.8,1.1,1.4,2,1.7C44.5,26.3,44.7,26.4,45,26.6z"/>
	<path class="st1" d="M17.8,36.3c0-0.4,0.2-0.7,0.7-0.8c0.5-0.2,1.1-0.2,1.6-0.3c0.3,0,0.7-0.1,1-0.1c0.8-0.1,1.4-0.5,1.9-1.1
		c0.9-1.2,1.7-2.5,2.7-3.6c0.6-0.7,1.1-1.4,1.8-2c0.6-0.6,0.8-0.6,1.5-0.2c1.2,0.5,2.3,0.4,3.3-0.4c0.3-0.3,0.6-0.5,1-0.7
		c0.1,0,0.2-0.1,0.3,0s0,0.2,0,0.3c-0.4,1-0.9,2.1-1.4,3c-0.4,0.8-1.1,1-1.9,1.1c-0.7,0.1-1.5,0.2-2.2,0.2c-0.8,0-1.4,0.5-2,1
		c-1.5,1.4-3.1,2.8-4.6,4.3c-0.7,0.7-1.5,1.2-2.3,1.8c-0.1,0.1-0.2,0.2-0.3,0c-0.3-0.7-0.7-1.4-0.9-2.2
		C17.8,36.5,17.8,36.4,17.8,36.3z"/>
	<path class="st1" d="M50.4,29.3c0.3-0.2,0.5-0.3,0.8-0.4c1.1-0.3,2.2-0.6,3.4-0.6c1.5-0.1,1.6,0.2,1.6,1.4c0.1,1.1-0.2,2.2-0.6,3.2
		c-0.5,1.4-1,2.9-1.9,4.1c-0.1,0.1-0.2,0.2-0.3,0.3c-0.5,0.5-0.9,0.5-1.3-0.2c-0.7-1.2-1.6-2.2-2.6-3.1c-0.3-0.3-0.6-0.4-1.1-0.4
		c-0.3,0-0.7-0.5-0.7-0.8c0-0.4,0.3-0.4,0.6-0.4c0.6,0,1.1,0.3,1.5,0.8c0.5,0.6,1.1,1,1.8,1.4c0.5,0.2,0.7,0.2,1.1-0.2
		c1-0.9,1.3-2.1,1.3-3.4c0-0.6-0.3-1-0.9-1.2c-0.7-0.3-1.4-0.5-2.1-0.5C50.9,29.3,50.7,29.3,50.4,29.3z"/>
	<path class="st1" d="M41.6,29.5c-1.4,0.7-2.8,1.5-4.5,1.4c-0.5,0-0.8-0.2-0.7-0.7c0.1-0.9,0.5-1.6,0.9-2.3c0.1-0.1,0.2-0.1,0.3-0.1
		C38.8,28.5,40.2,29.1,41.6,29.5L41.6,29.5z"/>
	<path class="st1" d="M53.6,39.6c-1.4-0.2-2.8-0.5-4.1-1.2c-0.6-0.3-0.7-0.9-0.4-1.6c0.1-0.2,0.2-0.2,0.4-0.1
		c0.2,0.2,0.5,0.4,0.7,0.6c0.3,0.3,0.6,0.5,0.9,0.6c0.1,0,0.2,0.1,0.3,0s0-0.2,0-0.3c-0.2-0.7-1.5-1.7-2.2-1.7
		c-0.2,0-0.4-0.2-0.4-0.3c-0.2-0.4-0.4-0.8-0.4-1.3c0-0.3,0.2-0.4,0.4-0.3c0.2,0.1,0.3,0.2,0.5,0.4c1,1,1.9,2.2,2.8,3.4
		C52.5,38.5,53.1,39,53.6,39.6z"/>
	<path class="st1" d="M41.4,28.7c-0.4-0.1-0.9-0.3-1.4-0.5c-0.7-0.2-1.3-0.6-1.9-0.9c-0.2-0.1-0.3-0.2-0.1-0.4
		c0.3-0.5,0.5-1,0.9-1.4c0.2-0.3,0.5-0.3,0.7,0c0.8,0.9,1.5,1.9,2.2,3C41.7,28.6,41.8,28.7,41.4,28.7z"/>
	<path class="st2" d="M42.8,45.9c0,0.4-0.1,0.7-0.1,1c0,0.2-0.2,0.3-0.4,0.2c-0.4-0.2-0.7-0.5-0.9-0.9c-0.1-0.2-0.1-0.3,0-0.5
		c0.2-0.4,0.6-0.7,1-0.8c0.2-0.1,0.3,0,0.3,0.2C42.8,45.4,42.8,45.6,42.8,45.9z"/>
	<path class="st3" d="M39.3,45.2c0.2,0.6,0.3,1.1,0.4,1.7c0,0.1,0,0.2-0.1,0.3c-0.1,0-0.2-0.1-0.2-0.1c-0.3-0.3-0.7-0.7-1-1.1
		c-0.1-0.1-0.1-0.2,0-0.2C38.7,45.7,39,45.5,39.3,45.2z"/>
	<path class="st4" d="M47.3,38.3c0.1,0,0.3,0,0.3,0.2s-0.2,0.2-0.3,0.2s-0.3,0-0.3-0.2S47.2,38.3,47.3,38.3z"/>
	<g>
		<path class="st1" d="M48.3,37c-0.2-0.9-0.2-1.7-0.3-2.6c-0.1-0.6-0.4-1.1-0.9-1.5c-0.1,0.4,0.1,0.8,0.1,1.2c0,0.2,0,0.4-0.2,0.4
			c-0.2,0.1-0.3-0.1-0.4-0.3c-0.2-0.3-0.3-0.7-0.3-1.1c-0.1-0.6-0.3-0.9-1-0.9c-1.3,0-2.6,0.1-3.9,0.4c-1.5,0.3-3,0.8-4.3,1.7
			c-0.2,0.1-0.4,0.3-0.5,0.5c-0.1,0.3-0.3,0.6-0.6,0.9c-0.5,0.5-1,1.1-1.5,1.6c-0.1,0.1-0.2,0.1-0.2,0.3c1-0.1,2-0.2,3.1-0.2
			c1.3-0.1,2.4-0.6,3.5-1.4c0.6-0.4,1.3-0.9,1.9-1.2c0.2-0.1,0.3-0.2,0.5-0.2c-0.1,0.2-0.1,0.3-0.2,0.4c-1.7,1.7-3.7,3-6.2,3.2
			c-0.5,0.1-0.8,0.3-0.9,0.8c-0.2,0.8,0.1,1.4,0.5,2s1,1,1.5,1.5c1.2,1.1,2,2.4,2.1,4c0.1,0.6,0.3,1.2,0.6,1.6
			c0.5,0.7,1.3,1.2,1.7,2.1c0.1-0.5,0-0.9,0.1-1.4c0-0.5,0.2-0.6,0.7-0.6c0.5,0.1,0.9,0.1,1.4,0c0.2,0,0.5-0.1,0.7-0.4
			c-0.8-0.1-1.6-0.3-2.3-0.3c-0.9-0.1-1.5-0.6-1.9-1.3c-0.3-0.5-0.2-0.9,0.3-1.3c0.5-0.4,1-0.7,1.6-0.9c0.3-0.1,0.5,0,0.5,0.3
			c0,0.6,0,1.3,0,1.9c0,0.6,0.2,0.8,0.7,0.9c0.7,0.2,1.3,0.2,2,0.3c1.1,0,1.3-0.2,1.4-1.2v-0.1c0.1-0.9,0-1.9-0.4-2.8
			c-0.6-1.7-0.7-3.5-0.9-5.2c0-0.2,0.1-0.2,0.2-0.3c0.5-0.1,1-0.2,1.5-0.4C48.2,37.5,48.4,37.3,48.3,37z M44.1,35.8
			c0.5,0,1.5,0.9,1.6,1.4c0,0.2,0,0.4-0.3,0.3c-0.7-0.3-1.1-0.8-1.5-1.4C43.8,35.8,44,35.8,44.1,35.8z M42.9,40.3
			c-0.4,0.2-0.7,0.2-1.1-0.2c-0.4-0.4-0.5-0.9-0.3-1.2c0.6-0.9,1.4-1.5,2.6-1.6c0.2,0,0.4,0,0.5,0.1c0.4,0.2,0.6,0.5,0.3,0.9
			C44.5,39.1,43.8,39.8,42.9,40.3z M46.4,44.8c0.1,0.3-0.3,0.6-0.5,0.8c-0.3,0.4-0.8,0.7-1.3,0.7c-0.5,0.1-0.8-0.2-0.9-0.7
			c-0.1-0.5,0.1-0.9,0.6-1c0.4-0.1,0.8-0.2,1.1-0.1C45.8,44.5,46.3,44.5,46.4,44.8z"/>
	</g>
	<path class="st1" d="M44.5,37.9c0,0.2-0.2,0.3-0.4,0.4c-0.5,0-0.8,0.4-1.1,0.8c-0.1,0.2-0.3,0.4-0.5,0.5c-0.1,0.1-0.2,0.1-0.4,0
		c-0.1-0.1-0.1-0.2,0-0.4c0-0.1,0.1-0.1,0.1-0.2c0.4-0.6,1-1,1.7-1.3C44.2,37.5,44.4,37.6,44.5,37.9z"/>
	<path class="st5" d="M45.1,45.1c0.1,0,0.1,0,0.2,0c0.1,0,0.3,0,0.3,0.1c0.1,0.1-0.1,0.2-0.2,0.3c-0.2,0.2-0.4,0.3-0.7,0.3
		c-0.2,0.1-0.4,0-0.4-0.2c-0.1-0.2,0-0.3,0.2-0.4C44.7,45.1,44.9,45.1,45.1,45.1z"/>
</g>
</svg>
