<svg id="Layer_1" data-name="Layer 1" xmlns="http://www.w3.org/2000/svg" viewBox="0 0 74 74"><defs><style>.cls-1{fill:none;stroke:#006faf;stroke-miterlimit:10;stroke-width:2px;}.cls-2,.cls-3{fill:#006faf;}.cls-3{font-size:10px;font-family:MyriadPro-Regular, Myriad Pro;}.cls-4{letter-spacing:0.01em;}.cls-5{letter-spacing:0em;}</style></defs><title>intelligent</title><circle class="cls-1" cx="37" cy="37" r="36"/><path class="cls-2" d="M15,47l0-.22c.32,0,.63.08.95.08H28.65a1.57,1.57,0,0,0,.57-.09l0,.23-.54,0H15.45Z"/><path class="cls-2" d="M9.81,41.24V36.45h.07v4.78Z"/><path class="cls-2" d="M10.53,40.45c0-.24-.23-.55.21-.52.05,0,.12,0,.15,0s0,.13-.05.18S10.63,40.35,10.53,40.45Z"/><path class="cls-2" d="M20.21,32.16l-.47-.43a.08.08,0,0,1,.08-.07C20,31.78,20.25,31.86,20.21,32.16Z"/><path class="cls-2" d="M9.4,41.84c0-1.94,0-3.88,0-5.83a1,1,0,0,1,.33-.72l6.48-6.48,2.64-2.66a1.12,1.12,0,0,1,1.73,0c.79.8,1.63,1.55,2.36,2.41a.4.4,0,0,0-.12.06c-.55.55-1.11,1.11-1.65,1.67a14.86,14.86,0,0,0-1.34,1.41.08.08,0,0,0-.08.07c-.07.06-.14.11-.2.17L17.2,34.24C16.12,35.32,15,36.38,14,37.5c-.27.14-.4.44-.63.62-.62.51-1.13,1.14-1.72,1.68s-1.25,1.26-1.88,1.89C9.65,41.79,9.57,41.9,9.4,41.84Zm.4-.6h.07V36.45H9.81Zm.72-.79c.1-.1.21-.19.3-.29s.09-.11.05-.18-.1,0-.15,0C10.3,39.9,10.5,40.21,10.53,40.45Z"/><path class="cls-2" d="M29.71,46.7A.91.91,0,0,1,29,47c-1.16,0-2.31,0-3.47,0l0-.18c0-1.52,0-3,0-4.55,0-1.25,0-2.5,0-3.75a1.88,1.88,0,0,0-.76-1.84.31.31,0,0,1-.06-.08c0-.21.35,0,.25-.21s-.27,0-.41,0h0c0-.06-.1-.21,0-.18.34.08,0-.2.14-.21s.19.16.29,0,0-.21,0-.32a1,1,0,0,1,0-.69c0-.23.18-.22.34-.21s.23.11.23.27,0,.41,0,.61c0,.55,0,.6.62.61s.51.07.54.52c0,.16-.13.47.14.46s.09-.31.12-.48,0-.43.22-.48.34-.29.33-.55,0-.54.39-.61c.08,0,.17-.06.15-.15-.09-.31.37-.43.25-.75,0-.05.13-.08.16,0s.37.24.47.45l0,0,0,0c.21,0,0,.27.13.32s.27.38.56.33c0,0,.18.13.17.19,0,.36.17.66.16,1C29.76,39.93,30,43.32,29.71,46.7Z"/><path class="cls-2" d="M28.83,34.71c-.1-.21-.34-.27-.47-.45s-.18,0-.16,0c.11.32-.35.44-.25.75,0,.09-.06.13-.15.15-.34.07-.4.32-.39.61s0,.47-.33.55-.18.3-.22.48.13.47-.12.48-.13-.3-.14-.46c0-.45-.08-.51-.54-.52s-.62-.06-.62-.61c0-.2,0-.41,0-.61s0-.26-.23-.27-.3,0-.34.21a1,1,0,0,0,0,.69c.05.1.1.23,0,.32s-.19-.06-.29,0,.19.29-.14.21c-.13,0,0,.11,0,.18a1.86,1.86,0,0,1-.61-.66s.11,0,.11-.09,0,0,0,0-.06.07-.09.11c-.2,0-.28-.2-.4-.33s0,0,0-.05.23.1.21-.09-.16-.08-.24-.08-.09,0-.14.07L23.05,35c0-.07.09-.14,0-.2s-.1,0-.13.06a.31.31,0,0,1-.16-.19l.2,0c.09,0,.21,0,.24-.12s-.09-.18-.17-.22c-.27-.15-.3.1-.4.25a4.52,4.52,0,0,1-.66-.63c0-.09.08-.2,0-.25s-.08.06-.1.12a.32.32,0,0,1-.16-.19l.23-.12c.07,0,.08-.1.07-.17s-.08-.13-.09-.12-.37,0-.46.19l-.54-.54c.06-.35,0-.46-.33-.36a1,1,0,0,1-.35-.32c0-.3-.2-.37-.38-.5a14.85,14.85,0,0,1,1.34-1.41c.54-.57,1.1-1.12,1.65-1.67a.4.4,0,0,1,.12-.06c.79.69,1.49,1.46,2.24,2.2,1.27,1.25,2.52,2.51,3.77,3.77l.67.67a1.38,1.38,0,0,1,.44,1.05c0,3.23,0,6.45,0,9.68a.94.94,0,0,1-.34.8c.3-3.38.05-6.76.14-10.14,0-.35-.21-.66-.16-1,0-.06-.12-.19-.17-.19-.29,0-.34-.27-.56-.33s.07-.28-.13-.32Zm-4.68.75c0-.11-.08-.15-.18-.12s-.05.05,0,.06.15,0,.23.06-.09.19,0,.26.07,0,.08,0S24.29,35.47,24.15,35.45Zm2.34-2.54c.22.17.51.26.45.62,0,.21.09.25.27.19s.29-.07.36.16.17.21.27.3.17.08.23,0A.12.12,0,0,0,28,34c-.1,0-.16-.06-.17-.17,0-.35-.33-.5-.56-.62a2.76,2.76,0,0,1-.79-.77c-.07-.09-.11-.15-.23-.14s-.17.08-.19.2a3.57,3.57,0,0,0-.07.8c0,.23-.05.44-.32.47s-.22.17-.22.33.14.23.3.23h.41c.27,0,.39-.12.38-.39A8.9,8.9,0,0,0,26.49,32.92ZM24.39,36s0,0-.06,0,0,0,0,.05,0,0,.05,0S24.39,36.07,24.39,36Z"/><path class="cls-2" d="M9.4,41.84c.16.07.25,0,.34-.14.62-.63,1.22-1.29,1.88-1.89s1.1-1.17,1.72-1.68c.22-.18.35-.48.63-.62,0,.17,0,.34,0,.51q0,2.23,0,4.45v4.39L14,47c-1.2,0-2.4,0-3.6,0a1.12,1.12,0,0,1-1-1C9.39,44.63,9.4,43.23,9.4,41.84Z"/><path class="cls-2" d="M14,42.45H25.17c.13,0,.28,0,.31-.16,0,1.52,0,3,0,4.55a1.27,1.27,0,0,1-.46.07H14.77c-.26,0-.51,0-.77-.07Q14,44.65,14,42.45Z"/><path class="cls-2" d="M24.68,36.62a.4.4,0,0,1-.2-.21h0c.14,0,.35-.12.41,0S24.65,36.41,24.68,36.62Z"/><path class="cls-2" d="M28.83,34.71l0,0,0,0Z"/><path class="cls-2" d="M26.49,32.92a8.9,8.9,0,0,1,0,1c0,.27-.11.4-.38.39h-.41c-.16,0-.29,0-.3-.23s0-.31.22-.33.32-.24.32-.47a3.57,3.57,0,0,1,.07-.8c0-.11.07-.19.19-.2s.15,0,.23.14a2.76,2.76,0,0,0,.79.77c.23.12.54.27.56.62,0,.11.07.15.17.17a.12.12,0,0,1,.08.18c-.06.1-.15.09-.23,0s-.23-.18-.27-.3-.2-.22-.36-.16-.31,0-.27-.19C27,33.17,26.71,33.09,26.49,32.92Z"/><path class="cls-2" d="M22.62,34.55c.09-.15.13-.4.4-.25.08,0,.19.09.17.22s-.15.1-.24.12l-.2,0h0c0-.13,0-.17-.12-.12Z"/><path class="cls-2" d="M21.56,33.51l-.14-.13c.09-.21.34,0,.46-.19s.08.06.09.12,0,.13-.07.17l-.23.12h0s.05-.1,0-.13S21.58,33.48,21.56,33.51Z"/><path class="cls-2" d="M20.88,32.84a1.2,1.2,0,0,1-.33-.36C20.85,32.38,20.94,32.49,20.88,32.84Z"/><path class="cls-2" d="M23.46,35.41a.25.25,0,0,1-.13-.15s.09-.07.14-.07.23-.07.24.08-.14.05-.21.09S23.47,35.39,23.46,35.41Z"/><path class="cls-2" d="M24.15,35.45c.14,0,.15.1.11.21s-.06.05-.08,0,0-.17,0-.26Z"/><path class="cls-2" d="M22,33.92l-.14-.14c0-.05,0-.16.1-.12S22,33.83,22,33.92Z"/><path class="cls-2" d="M24.15,35.45c-.08,0-.18,0-.23-.06s0-.06,0-.06.17,0,.18.12Z"/><path class="cls-2" d="M23.05,35l-.14-.14s.06-.1.13-.06S23.07,34.94,23.05,35Z"/><path class="cls-2" d="M23.86,35.74s0-.11.09-.11,0,0,0,0-.07.06-.11.09Z"/><path class="cls-2" d="M24.39,36s0,0,0,.05,0,0-.05,0,0,0,0-.05S24.38,36,24.39,36Z"/><path class="cls-2" d="M21.56,33.51s0-.08.09-.06,0,.09,0,.13S21.58,33.56,21.56,33.51Z"/><path class="cls-2" d="M22.63,34.55c.13-.06.17,0,.12.12A.12.12,0,0,1,22.63,34.55Z"/><text class="cls-3" transform="translate(31 33.32)"><tspan class="cls-4">G<tspan class="cls-5" x="6.51" y="0">oogle </tspan></tspan><tspan x="0" y="12">Home</tspan></text></svg>