<?xml version="1.0" encoding="utf-8"?>
<!-- Generator: Adobe Illustrator 21.0.2, SVG Export Plug-In . SVG Version: 6.00 Build 0)  -->
<svg version="1.1" id="Layer_1" xmlns="http://www.w3.org/2000/svg" xmlns:xlink="http://www.w3.org/1999/xlink" x="0px" y="0px"
	 viewBox="0 0 74 74" style="enable-background:new 0 0 74 74;" xml:space="preserve">
<style type="text/css">
	.st0{fill:none;stroke:#006FAF;stroke-width:2;stroke-miterlimit:10;}
	.st1{fill:#006FAF;}
	.st2{fill:none;}
	.st3{fill-rule:evenodd;clip-rule:evenodd;fill:none;stroke:#006FAF;stroke-width:2;stroke-miterlimit:10;}
	.st4{fill:#006FAF;stroke:#006FAF;stroke-miterlimit:10;}
	.st5{fill:#FFFFFF;}
</style>
<circle class="st3" cx="37" cy="37" r="36"/>
<g>
	<path id="path2998" class="st1" d="M24.3,34.6h-5.8v1.7h4.1c-0.2,2.4-2.2,3.5-4.1,3.5c-2.4,0-4.6-1.9-4.6-4.6c0-2.6,2-4.6,4.6-4.6
		c2,0,3.1,1.3,3.1,1.3l1.2-1.3c0,0-1.6-1.7-4.4-1.7c-3.6,0-6.4,3-6.4,6.3c0,3.2,2.6,6.4,6.5,6.4c3.4,0,5.9-2.3,5.9-5.8
		C24.4,35,24.3,34.6,24.3,34.6L24.3,34.6z"/>
	<path id="path3000" class="st1" d="M29.1,33.3c-2.4,0-4.1,1.9-4.1,4.1c0,2.2,1.7,4.1,4.1,4.1c2.2,0,4.1-1.7,4.1-4.1
		C33.2,34.7,31,33.3,29.1,33.3L29.1,33.3z M29.1,34.9c1.2,0,2.3,1,2.3,2.5c0,1.5-1.1,2.5-2.3,2.5c-1.3,0-2.3-1-2.3-2.5
		C26.8,36,27.8,34.9,29.1,34.9L29.1,34.9z"/>
	<path id="path3005" class="st1" d="M38,33.3c-2.4,0-4.1,1.9-4.1,4.1c0,2.2,1.7,4.1,4.1,4.1c2.2,0,4.1-1.7,4.1-4.1
		C42.1,34.7,40,33.3,38,33.3L38,33.3z M38,34.9c1.2,0,2.3,1,2.3,2.5c0,1.5-1.1,2.5-2.3,2.5c-1.3,0-2.3-1-2.3-2.5
		C35.7,36,36.7,34.9,38,34.9L38,34.9z"/>
	<path id="path3007" class="st1" d="M46.8,33.3c-2.2,0-3.9,1.9-3.9,4.1c0,2.5,2,4.1,3.9,4.1c1.2,0,1.8-0.5,2.2-1v0.8
		c0,1.4-0.9,2.3-2.1,2.3c-1.2,0-1.9-0.9-2.1-1.5l-1.6,0.7c0.6,1.2,1.7,2.4,3.7,2.4c2.2,0,3.8-1.4,3.8-4.3v-7.3H49v0.7
		C48.5,33.7,47.7,33.3,46.8,33.3L46.8,33.3z M46.9,34.9c1.1,0,2.2,0.9,2.2,2.5c0,1.6-1.1,2.5-2.2,2.5c-1.2,0-2.3-1-2.3-2.5
		C44.7,35.9,45.8,34.9,46.9,34.9L46.9,34.9z"/>
	<path id="path3011" class="st1" d="M58.3,33.3c-2.1,0-3.8,1.6-3.8,4.1c0,2.6,1.9,4.1,4,4.1c1.7,0,2.8-0.9,3.4-1.8l-1.4-0.9
		c-0.4,0.6-1,1.1-2,1.1c-1.1,0-1.7-0.6-2-1.2l5.5-2.3l-0.3-0.7C61.2,34.4,60,33.3,58.3,33.3L58.3,33.3z M58.4,34.9
		c0.7,0,1.3,0.4,1.5,0.9l-3.7,1.5C56.1,36.1,57.2,34.9,58.4,34.9L58.4,34.9z"/>
	<path id="path3015" class="st1" d="M51.9,41.3h1.8v-12h-1.8V41.3z"/>
</g>
</svg>
