<?xml version="1.0" encoding="utf-8"?>
<!-- Generator: Adobe Illustrator 21.0.2, SVG Export Plug-In . SVG Version: 6.00 Build 0)  -->
<svg version="1.1" id="Layer_1" xmlns="http://www.w3.org/2000/svg" xmlns:xlink="http://www.w3.org/1999/xlink" x="0px" y="0px"
	 viewBox="0 0 74 74" style="enable-background:new 0 0 74 74;" xml:space="preserve">
<style type="text/css">
	.st0{fill:#006FAF;}
</style>
<title>os-patch-management</title>
<g id="text">
</g>
<path class="st0" d="M37,74C16.6,74,0,57.4,0,37S16.6,0,37,0s37,16.6,37,37S57.4,74,37,74z M37,2C17.7,2,2,17.7,2,37s15.7,35,35,35
	s35-15.7,35-35S56.3,2,37,2z"/>
<g id="Layer_2">
	<path class="st0" d="M41.8,41.7c-0.1-0.1-0.3-0.1-0.4-0.1c0,0-0.1,0-0.1,0c-0.1,0.1-0.2,0.1-0.4,0.1c-0.1,0-0.3,0.1-0.4,0.1
		c-0.1,0-0.1,0-0.2,0c0,0-0.1,0-0.1,0c0,0-0.1,0-0.1,0c0,0-0.1,0-0.1,0c0,0-0.1,0-0.1,0c0,0,0,0,0,0h0h0c0,0,0,0-0.1,0
		c0,0-0.1,0-0.1,0c-0.3,0-0.6-0.1-0.9-0.3c-0.3-0.1-0.6-0.3-0.8-0.5s-0.5-0.5-0.7-0.8c-0.2-0.3-0.3-0.7-0.4-1c0-0.2,0-0.4,0-0.6
		c0,0,0-0.1,0-0.1c0,0,0,0,0,0v0v0c0,0,0,0,0-0.1c0-0.1,0-0.2,0-0.3c0.1-0.8,0.5-1.6,1.1-2.2c0.2-0.1,0.3-0.3,0.5-0.4
		c0.2-0.1,0.4-0.2,0.6-0.3c0.2-0.1,0.4-0.2,0.6-0.2c0.2-0.1,0.4-0.1,0.6-0.1c0.1,0,0.2,0,0.3,0c0,0,0,0,0.1,0h0.1H41c0,0,0,0,0,0h0
		l0.1,0c0.2,0,0.5,0,0.7,0.1c0.5,0.1,0.9,0.3,1.3,0.5c0.8,0.5,1.6,1.2,2,2.1c0.2,0.4,0.4,0.9,0.5,1.4c0,0.1,0,0.2,0,0.4l0,0.1l0,0.1
		c0,0,0,0.1,0,0.1c0,0,0,0.1,0,0.1v0.1v0.1c0,0.1,0,0.2,0,0.2c0,0.1,0,0.3,0,0.4c0,0.1,0,0.3-0.1,0.4c0,0.1-0.1,0.3-0.1,0.4
		c-0.1,0.3-0.1,0.5-0.2,0.8c-0.2,0.5-0.5,1-0.8,1.4c-0.6,0.9-1.5,1.6-2.5,2c-0.5,0.2-1,0.4-1.6,0.5c-0.3,0-0.5,0.1-0.8,0.1h0h0h-0.1
		h-0.1h-0.1c0,0,0,0,0,0h0c-0.1,0-0.3,0-0.4,0c-0.6,0-1.1-0.1-1.7-0.3c-0.6-0.2-1.1-0.4-1.6-0.6c-1-0.5-1.9-1.3-2.6-2.2
		c-0.4-0.4-0.7-0.9-0.9-1.4c-0.3-0.5-0.5-1-0.6-1.6c-0.1-0.5-0.2-1.1-0.3-1.7l0-0.1v0v0v0V38v0v0v-0.1v-0.1v0c0,0,0,0,0,0v0
		c0-0.1,0-0.1,0-0.2c0-0.3,0-0.6,0.1-0.8c0-0.3,0.1-0.6,0.1-0.9c0.1-0.3,0.1-0.6,0.2-0.8c0.2-0.6,0.4-1.1,0.6-1.6
		c0.5-1,1.1-1.9,1.8-2.6c0.2-0.2,0.4-0.3,0.6-0.5c0.2-0.2,0.4-0.3,0.6-0.4c0.2-0.1,0.4-0.3,0.7-0.4c0.1-0.1,0.2-0.1,0.3-0.2
		c0.1,0,0.1,0,0.2-0.1c0.1,0,0.1,0,0.2-0.1c0.2-0.1,0.5-0.2,0.7-0.3c0.1,0,0.1,0,0.2-0.1c0.1,0,0.1,0,0.2,0c0.1,0,0.2-0.1,0.4-0.1
		c0.1,0,0.1,0,0.2,0c0.1,0,0.1,0,0.2,0c0.1,0,0.1,0,0.2,0l0.1,0l0.1,0c0.1,0,0.1,0,0.2,0c0.1,0,0.1,0,0.2,0c0.1,0,0.2,0,0.2,0
		c0,0,0.1,0,0.1,0l0.1,0l0,0h0c0.1,0,0.1,0,0.2,0l0.1,0c0,0,0,0,0,0h0h0c0.1,0,0.1,0,0.2,0c0.2,0,0.5,0,0.7,0c0.5,0,1,0.1,1.4,0.2
		c0.9,0.2,1.8,0.5,2.6,0.9c0.8,0.4,1.5,0.9,2.1,1.4c0,0,0.1,0.1,0.1,0.1c0,0,0.1,0.1,0.1,0.1c0.1,0.1,0.1,0.1,0.2,0.2
		c0.1,0.1,0.1,0.1,0.2,0.2c0.1,0.1,0.1,0.1,0.2,0.2c0.3,0.3,0.5,0.5,0.7,0.8c0.4,0.6,0.8,1.1,1.1,1.6c0,0,0,0.1,0,0.1
		c0,0,0,0.1,0,0.1c0,0.1,0.1,0.1,0.1,0.2c0,0.1,0.1,0.1,0.1,0.2c0,0.1,0.1,0.1,0.1,0.2c0.1,0.2,0.2,0.5,0.3,0.7
		c0.1,0.4,0.2,0.7,0.3,1c0,0.1,0.1,0.2,0.2,0.2l0,0c0.1,0,0.2-0.1,0.2-0.2c0-0.3,0-0.7,0-1.1c0-0.5-0.1-1.1-0.3-1.7
		c-0.2-0.6-0.4-1.3-0.8-2.1c-0.4-0.7-0.8-1.5-1.4-2.2c-0.2-0.3-0.5-0.6-0.8-0.8c0.4-1.7-0.5-3.1-0.5-3.1c-1.6-0.1-2.6,0.5-3,0.8
		c-0.1,0-0.1-0.1-0.2-0.1c-0.3-0.1-0.6-0.2-0.8-0.3c-0.3-0.1-0.6-0.2-0.9-0.2s-0.6-0.1-0.9-0.2c-0.1,0-0.1,0-0.2,0
		c-0.7-2.2-2.7-3.2-2.7-3.2c-2.3,1.4-2.7,3.4-2.7,3.4c0,0,0,0.1,0.1,0.1c-0.1,0-0.3,0.1-0.5,0.1c-0.2,0-0.3,0.1-0.5,0.2
		c-0.2,0.1-0.3,0.1-0.5,0.2c-0.3,0.1-0.7,0.3-1,0.5s-0.7,0.4-1,0.6c0,0,0,0,0,0c0,0,0-0.1,0-0.1c-3.1-1.2-5.9,0.2-5.9,0.2
		c-0.3,3.3,1.2,5.4,1.5,5.8c-0.1,0.2-0.1,0.4-0.2,0.6c-0.2,0.8-0.4,1.5-0.5,2.3c0,0.1,0,0.2,0,0.3c-2.9,1.4-3.7,4.3-3.7,4.3
		c2.4,2.8,5.2,2.9,5.2,2.9l0,0c0.4,0.6,0.8,1.2,1.2,1.8c0.2,0.2,0.4,0.5,0.6,0.7c-0.9,2.5,0.1,4.6,0.1,4.6c2.7,0.1,4.4-1.2,4.8-1.5
		c0.3,0.1,0.5,0.2,0.8,0.2c0.8,0.2,1.7,0.3,2.5,0.4c0.2,0,0.4,0,0.6,0h0.1h0.1h0.1l0.1,0v0c1.3,1.8,3.5,2.1,3.5,2.1
		c1.8-1.9,1.7-3.7,1.7-3.7c0,0,0,0,0,0c0.3-0.2,0.7-0.5,1-0.8c0.6-0.6,1.2-1.2,1.6-1.9c0-0.1,0.1-0.1,0.1-0.2
		c1.8,0.1,3.1-1.1,3.1-1.1c-0.3-2.1-1.6-3-1.6-3c0,0,0,0,0,0c0-0.1,0-0.2,0-0.4c0-0.2,0-0.4,0-0.6v-0.1V40v0c0,0,0,0,0,0l0-0.1
		l0-0.2c0-0.1,0-0.1,0-0.2s0-0.1,0-0.2l0-0.2l0-0.2c0-0.2-0.1-0.4-0.1-0.6c-0.2-0.8-0.5-1.6-0.9-2.2c-0.4-0.7-0.9-1.3-1.5-1.8
		c-0.6-0.5-1.2-0.9-1.9-1.2s-1.4-0.5-2.1-0.6c-0.4,0-0.7-0.1-1.1-0.1H41h0c0,0,0,0,0,0h-0.1l-0.1,0c0,0-0.1,0-0.1,0
		c-0.2,0-0.4,0-0.5,0.1c-0.7,0.1-1.4,0.4-2,0.7c-0.6,0.4-1.1,0.8-1.5,1.3c-0.4,0.5-0.7,1.1-1,1.6c-0.2,0.6-0.3,1.2-0.4,1.7
		c0,0.1,0,0.3,0,0.4c0,0,0,0.1,0,0.1l0,0.1c0,0.1,0,0.1,0,0.2c0,0.3,0.1,0.6,0.2,0.8c0.2,0.5,0.4,1,0.7,1.4s0.7,0.8,1.1,1
		c0.4,0.3,0.8,0.5,1.2,0.6s0.8,0.2,1.2,0.2c0,0,0.1,0,0.1,0c0,0,0,0,0.1,0c0,0,0,0,0.1,0c0,0,0.1,0,0.1,0c0,0,0,0,0,0l0,0
		c0,0,0,0,0.1,0c0,0,0.1,0,0.1,0s0.1,0,0.1,0c0.1,0,0.2,0,0.3-0.1c0.2-0.1,0.3-0.1,0.5-0.2s0.3-0.2,0.4-0.2c0,0,0.1,0,0.1-0.1
		C41.9,42.1,41.9,41.9,41.8,41.7L41.8,41.7z"/>
</g>
</svg>
