<?xml version="1.0" encoding="utf-8"?>
<!-- Generator: Adobe Illustrator 21.0.2, SVG Export Plug-In . SVG Version: 6.00 Build 0)  -->
<svg version="1.1" id="Layer_1" xmlns="http://www.w3.org/2000/svg" xmlns:xlink="http://www.w3.org/1999/xlink" x="0px" y="0px"
	 viewBox="0 0 74 74" style="enable-background:new 0 0 74 74;" xml:space="preserve">
<style type="text/css">
	.st0{fill:none;stroke:#006FAF;stroke-width:2;stroke-miterlimit:10;}
	.st1{fill:#006FAF;}
</style>
<title>Cloud &amp;amp; Infrastructure Services</title>
<circle class="st0" cx="37" cy="37" r="36"/>
<path class="st1" d="M48.4,38c0.9-0.5,1.9-1.1,2.7-1.8c1.3-1.2,1.1-2.9-0.3-4c-0.3-0.2-0.6-0.5-0.7-0.7c-0.3-1.1-0.5-2.3,0.3-3.3
	c0.2-0.3,0.4-0.8,0.5-1.2c0.4-1.3-0.2-2.4-1.5-2.8c-0.2-0.1-0.5-0.1-0.7-0.1c-0.3,0-0.5-0.2-0.5-0.5c-0.2-1.3,0.2-2,1.3-2.5
	c0.6-0.3,1.3-0.4,1.9-0.6c-0.9-1.6-3.5-2.5-5.7-1.9c-1.7,0.5-3,1.6-4.1,2.9c-0.1,0.1-0.4,0.2-0.6,0.2c-0.6,0-0.5-0.5-0.5-0.8
	c0.2-0.8,0.4-1.5,0.6-2.3c-1,0-1.8,0.6-2.5,1.2c-0.1-0.1-0.1,0-0.1,0c-0.4-0.9-0.3-1.6-0.1-2.6h-0.1c-1.4,0.6-2.6,1.3-2.9,3
	l-0.2-0.1c-0.1-0.7-0.3-1.4-0.4-2.1c-1.2,0.8-1.9,1.9-2.1,3.3c0,0.2-0.1,0.4-0.2,0.6c-0.2-0.1-0.4-0.2-0.6-0.3
	c-1.3-1.5-2.7-2.7-4.8-3c-1.8-0.3-4,0.6-4.9,2c0.7,0.3,1.5,0.5,2.2,0.9c0.9,0.4,1.1,1.2,1,2c-0.1,0.6-0.3,0.8-0.9,0.9
	c-1.3,0.2-2.1,1.2-1.9,2.6c0.1,0.5,0.2,1,0.5,1.3c0.7,0.8,0.6,1.7,0.6,2.6c0,0.7-0.3,1.3-0.9,1.7c-1.3,1-1.5,2.7-0.3,3.8
	c0.8,0.7,1.8,1.3,2.7,1.8c0.7,0.4,1.2,1,1.2,1.7c0.1,1.3,0,2.5-0.1,3.8c0,0.5-0.1,1-0.2,1.6c-1.1-1-1.7-2.1-2-3.4
	c-1.2,1.1-1.6,2.5-1.7,4c-0.1,2.7,1,4.7,3.5,5.8c0.2,0.1,0.4,0.3,0.5,0.5c1,1.8,2.5,3,4.5,3.4c0.2,0,0.5,0.1,0.7,0.2
	c1.1,0.8,2.4,1.2,3.8,1.4c2.1,0.2,4.1,0,5.8-1.3c0.2-0.1,0.4-0.2,0.6-0.3c2.1-0.4,3.7-1.6,4.8-3.4c0.2-0.3,0.5-0.5,0.8-0.7
	c1.2-0.6,2.2-1.4,2.8-2.7c0.6-1.3,0.7-2.6,0.4-4c-0.2-1.1-0.7-2.1-1.6-3c-0.3,1.3-0.9,2.4-2,3.3c-0.1-1.8-0.2-3.6-0.2-5.4
	C47.3,38.9,47.8,38.4,48.4,38z M49.2,20c-0.4,0.1-0.7,0.2-1.1,0.2c-1.7,0-3,0.8-4,2.2L44,22.5l-0.1,0.1l-0.8-0.4
	C44.4,19.8,47.1,18.8,49.2,20z M47.4,21.2c-0.1,0.8-0.3,1.5-0.4,2.2c-0.1,0.3-0.1,0.7-0.5,0.8c-0.4,0.1-0.6,0-1-0.3
	c-0.4-0.4-0.4-0.7-0.1-1.2C45.8,21.8,46.4,21.2,47.4,21.2z M24.8,19.9c2.1-1.1,4.7-0.2,6.1,2.3l-0.8,0.4l0.2-0.3
	c-0.6-0.4-1.1-0.9-1.7-1.3c-0.8-0.6-1.7-0.8-2.7-0.8C25.6,20.2,25.2,20.1,24.8,19.9z M28.9,23.2c0,0.3-0.4,0.8-0.8,1
	c-0.2,0.1-0.8-0.2-1-0.5c-0.2-0.3-0.2-0.7-0.2-1.1c0-0.3-0.1-0.5-0.1-0.8c-0.1-0.2-0.2-0.4-0.3-0.7C27.6,21.2,28.8,22.2,28.9,23.2z
	 M24.8,48.7c-1-1.4-0.9-3-0.5-4.7c1.1,2.6,3.4,3.2,5.9,3.5c-0.9,1-1.6,2-1,3.4C27.3,50.8,25.8,50.2,24.8,48.7z M30.3,54l-2.2-1.9
	c1.7-0.4,1.8,0.8,2.3,1.7C30.5,53.8,30.3,54,30.3,54z M38.6,55.7c-4.1,0.8-7.2-1.1-8.4-5.4c-0.3-1.1,0.4-1.8,1.6-1.9
	c1.7,0,3.5,0,5.2,0c1.7,0,3.4,0,5,0c0.2,0,0.4,0,0.6,0.1c1.1,0.3,1.5,0.8,1.2,1.8C43,53.1,41.6,55.2,38.6,55.7z M43.4,53.9
	c0.3-0.6,0.5-1.1,0.8-1.6c0.1-0.1,0.3-0.2,0.5-0.3c0.3-0.1,0.6-0.1,1-0.1C45.2,52.9,44.5,53.5,43.4,53.9z M49.7,44
	c1.1,3.8-1,6.8-4.8,6.8c0.5-1.3-0.1-2.3-1.1-3.3C46.4,47.2,48.6,46.6,49.7,44z M46,40c0,1.6,0.1,3.2,0.2,4.8c0.1,1,0.1,1.1-0.9,1.3
	c-0.6,0.1-1.2,0.2-1.8,0.2c-0.2,0-0.4-0.3-0.5-0.5c-0.7-1.5-1.3-3.1-1.9-4.6c-0.1-0.2-0.2-0.3-0.3-0.5l-0.2,0.2
	c0.6,2.2,1.2,4.8,1.8,6.7H31.6c0.6-1.9,1.2-4.5,1.8-6.7l-0.2-0.1c-0.4,0.8-0.7,1.6-1.1,2.4c-0.4,0.9-0.7,1.8-1.1,2.7
	c-0.1,0.3-0.3,0.5-0.6,0.4c-0.7-0.1-1.4-0.2-2.1-0.3c-0.5-0.1-0.6-0.4-0.6-0.9c0.1-1.7,0.2-3.4,0.2-5.1c0-1.4-0.6-2.4-1.8-3.1
	c-0.7-0.4-1.4-0.8-2-1.3c-1-0.8-0.9-2.1,0.1-2.7l-0.1,0.8c1.1-1.3,1.6-3.9,0.8-6.4L24.9,28l-0.2,0.1c-0.2-0.6-0.6-1.2-0.7-1.8
	c-0.1-0.6,0.6-1.1,1.4-1.1c1.5-0.1,3,0.3,4.3,1c1.4,0.8,2.6,1.6,3.9,2.4c-0.2-0.9-1.3-1.9-4.1-3.9c3.1-3.2,11.9-3.2,14.9,0
	c-1.8,0.9-3.2,2.2-4.1,4c0.5-0.3,0.9-0.7,1.4-1c1.7-1.2,3.5-2.3,5.6-2.5c0.6-0.1,1.3,0,1.9,0.1c0.7,0.1,0.9,0.7,0.7,1.3
	c-0.2,0.5-0.4,1-0.6,1.4l-0.2,0L49,27.3c-0.6,2.3-0.4,4.5,0.9,6.4L49.7,33c0.8,0.4,1.1,1.4,0.6,2.1c-0.3,0.4-0.8,0.8-1.2,1.1
	c-0.4,0.3-0.9,0.5-1.3,0.7C46.6,37.6,46,38.7,46,40L46,40z M45,30.4c-1.5,0.4-2.7,1.3-3.7,2.4c-0.5,0.5-1,0.9-1.8,0.9
	c-0.3,0-0.7-0.1-1.1-0.1c0.1,1,0.8,1.3,1.5,1.4l1,2.4l0.2-0.1c-0.2-0.8-0.3-1.6,0.1-2.3c1.2,0.8,2.3,0.6,3.5,0.1
	c1.2-0.6,1.6-1.8,2-3l0.2,0.9c0.5-0.8,0.6-1.6-0.1-2.3l0.8-0.3C46.7,30.1,45.9,30.1,45,30.4z M44.6,34.1c-0.7,0.7-2,0.8-3.1,0.2
	c0.9-1.3,2.1-2.1,3.4-2.8C45.4,32.2,45.2,33.6,44.6,34.1z M32.6,32.7c-0.9-1-2-1.8-3.3-2.2c-1-0.3-2-0.4-3.1-0.1l0.8,0.3
	c-0.6,0.8-0.5,1.5-0.1,2.4l0.3-0.9c0.3,1.3,0.7,2.4,1.9,3c1.2,0.6,2,0.8,3.6-0.2v2.4c0,0,0.2,0,0.2,0.1c0.3-0.8,0.6-1.5,1-2.3
	c1.1-0.4,1.4-0.7,1.4-1.5C34.3,34,33.4,33.6,32.6,32.7z M29.5,34.2c-0.6-0.5-0.9-1.8-0.5-2.7c1.3,0.8,2.6,1.6,3.4,2.8
	C31.5,34.9,30.3,34.9,29.5,34.2z M39.1,30.1c-1.4,0.7-2.7,0.7-4.1,0C36.5,31.8,37.5,31.9,39.1,30.1z M41.9,49.7c-0.4,0-1.1,0-1.4,0
	v0.2h-1.1l-0.1-0.1c-0.6,0-0.8,0.3-0.5,0.8c0.3,0.5,0.6,1,1,1.3c0.3,0.2,0.7,0.4,1.1,0.3c0.9-0.1,1.3-0.9,1.7-1.6
	C42.8,50.1,42.5,49.7,41.9,49.7z M34.7,49.7c-0.5,0-0.9,0-1.4,0s-0.9,0-1.4,0c-0.4,0-0.7,0.2-0.6,0.7c0.1,0.6,1,1.7,1.6,1.8
	c0.5,0.1,1,0,1.3-0.4c0.3-0.4,0.6-0.8,0.9-1.3C35.4,50.1,35.2,49.7,34.7,49.7z"/>
</svg>
