<?xml version="1.0" encoding="utf-8"?>
<!-- Generator: Adobe Illustrator 21.0.2, SVG Export Plug-In . SVG Version: 6.00 Build 0)  -->
<svg version="1.1" id="Layer_1" xmlns="http://www.w3.org/2000/svg" xmlns:xlink="http://www.w3.org/1999/xlink" x="0px" y="0px"
	 viewBox="0 0 74 74" style="enable-background:new 0 0 74 74;" xml:space="preserve">
<style type="text/css">
	.st0{fill:none;stroke:#006FAF;stroke-width:2;stroke-miterlimit:10;}
	.st1{fill:#006FAF;}
</style>
<title>python</title>
<g id="Layer_5">
</g>
<g>
	<circle class="st0" cx="37" cy="37" r="36"/>
	<g>
		<path class="st1" d="M32.5,51.9C32.4,51.9,32.4,51.8,32.5,51.9C32.4,51.8,32.4,51.8,32.5,51.9z"/>
		<path class="st1" d="M33.7,38.7L33.7,38.7c-0.6-0.3-1.2-0.6-1.8-1l0,0l0,0c-1-0.4-2-0.9-3-1.4c-0.8-0.3-1.7-0.6-2.4-1.1l0,0l0,0
			l0,0C26.4,35.1,26.2,35,26,35c-0.1,0-0.2,0-0.3,0.1c-0.3,0.8-0.4,1.6-0.4,2.4c0,0.6,0.8,0.6,1.2,0.8c0.4,0.2,0.7,0.4,1.1,0.7
			c0.3,0.2,0.2,0.4,0.2,0.7c0,1.5,0,3-0.2,4.5l0,0l0,0l0,0c0.1,0.7-0.3,1.4,0.4,2c0.2,0.1,0.4,0.3,0.6,0.3c1.7,0.6,1.3,0.5,1.4-0.9
			c0-0.3,0-0.6,0.1-0.8c0-0.7,0-1.5,0.2-2.2c0-0.5-0.1-1.1,0.2-1.6c0,0,0,0,0.1,0v-0.1c0.4-0.3,0.7-0.3,1.1-0.1
			c1.9,0.8,2.2,1.2,2.1-1.6C33.8,39,33.9,38.9,33.7,38.7z"/>
		<path class="st1" d="M22.5,38.3c0,0.1,0.1,0.1,0.1,0.2C22.6,38.5,22.5,38.4,22.5,38.3z"/>
		<path class="st1" d="M27.5,45.3L27.5,45.3L27.5,45.3z"/>
		<path class="st1" d="M48,26.1c-0.1,0-0.1,0-0.2,0C47.9,26.1,48,26.1,48,26.1z"/>
		<path class="st1" d="M41.4,30c-0.9-0.5-1.8-0.9-2.9-1c-0.6-0.1-1,0.1-1,0.7c-0.1,0.4,0.2,0.6,0.3,0.9c0.4,0.7,0.3,0.9-0.5,0.9
			c-1,0.1-1.8-0.4-2.7-0.7c-0.9-0.4-1.5-1-1.5-2c0.1-1.4,0.5-1.9,1.8-2.3c1.6-0.4,3.2-0.5,4.8-0.3c1.1,0.1,2.1,0.6,2.7,1.5
			c0.5,0.8,1.3,0.8,2.1,0.8c0.6,0,0.8-0.3,0.5-0.9c-0.2-0.4-0.5-0.8-0.7-1.2c-1.1-1.2-2.6-1.6-4.1-1.7c-1.3-0.1-2.6,0-3.9,0
			c-0.4,0.1-0.8,0.1-1.2,0.2c-1.7,0.2-3.3,0.5-4.2,2.2c-0.3,0.7-0.3,1.4-0.2,2.2c0.3,0.6,0.6,1.3,1.2,1.8c3.1,2.7,6.9,2.8,10.1,0.4
			C42,31,42,30.4,41.4,30z"/>
		<path class="st1" d="M50.8,34.6c-0.9,0.3-1.7,0.5-2.6,0.8c-1.8,2.3-3.7,4.6-5.5,6.8c-0.3-1.7-0.2-3.4-0.4-5c-1.6,0-1.6,0-1.9,1.7
			c0,0.1-0.1,0.1-0.1,0.2c0,0.8,0,1.6-0.2,2.4c0,1.6,0,3.2,0,4.8c0,2.1,0,2.1,1.9,1.1c0-0.8,0.1-1.6,0.1-2.5c0-1.3,1.3-2.1,2.5-1.6
			s2.4,1.1,3.6,1.7c0.6,0.1,2-0.5,2.3-1.1l-0.1-0.2c-1.3-0.6-2.6-1.2-3.9-1.8c-0.4-0.2-0.5-0.4-0.2-0.8c1.4-1.8,2.7-3.6,4.1-5.5
			c0-0.3,0.2-0.4,0.3-0.5l0,0l0,0C50.8,35,51.1,34.8,50.8,34.6z"/>
		<path class="st1" d="M54.3,28.3c-1.2-0.9-2.5-1.6-3.8-2.3c-3.1-1.6-6.1-3.2-9.2-4.8c-0.4-0.6-1.1-0.7-1.7-0.7
			c-0.9-0.1-1.8,0.2-2.6,0.5c-1.2,0.5-2.5,1-3.7,1.5c-3.5,1.5-7,3-10.5,4.5c-1,0.4-1.7,1.1-1.9,2.2c0,0.4,0,0.7,0,1.1
			c0,1.9,0,3.8,0,5.7c0,1,0,2,0,3c0,1.5,0,3.1,0,4.6c0,0.4,0.2,1.4,0.2,1.5c0,0.9,0.5,1.4,1.3,1.8c1,0.5,2,1.1,2.9,1.7
			c3.1,2,6.2,4,9.2,6.1c1.2,0.8,2.1,0.9,3.3,0.1c1.1-0.8,2.3-1.4,3.5-2c3.2-1.8,6.3-3.7,9.5-5.5c1-0.5,1.5-1.3,1.6-2.4
			c0-0.9,0.2-1.7,0.4-2.6c0.7-4.2,1.4-8.3,2.1-12.5C55.1,29.3,54.9,28.8,54.3,28.3z M36,51.3L36,51.3c0,0.7,0,1.4,0,2
			c0,0.5-0.3,0.8-0.8,0.4c-0.9-0.6-1.9-1.1-2.7-1.9l0,0c-1.1-0.6-2-1.3-3-2l0,0c-1-0.5-1.9-1.2-2.8-1.9l0,0
			c-1.3-0.8-2.5-1.6-3.8-2.4c-0.2-0.1-0.3-0.3-0.3-0.5c-0.1-2.2-0.2-4.5-0.2-6.7c0-0.7,0-1.4,0-2l0,0l0,0c0-0.7,0-1.4,0-2
			c0-0.3,0-0.6,0-0.9c0-1,0-2,0-3c0-0.4,0.1-0.7,0.6-0.4l0,0l0,0c0.6,0.2,11.3,6.1,12.1,6.7c0.4,0.3,0.8,0.5,0.9,1l0,0
			c0.5,1.7,0.3,3.5,0.2,5.2C36.2,43,36.1,49.3,36,51.3z M27.4,30.8c-1.1-0.6-2.2-1.2-3.2-1.8c-0.5-0.3-0.6-0.5,0-0.8
			c1.6-0.7,3.1-1.5,4.7-2.1c2.3-1.2,4.6-2.1,7-3l0,0c1-0.6,2.1-0.8,3.2-1.2c0.3-0.1,0.5-0.1,0.8,0.1c2.7,1.4,5.5,2.6,8.1,4.2
			c1.4,0.6,2.7,1.4,4,2.1c0.4,0.2,0.6,0.5,0,0.8c-2.2,1-4.3,2.1-6.6,3l0,0c-2.4,1.3-4.9,2.4-7.4,3.5c-0.5,0.2-1,0.2-1.5-0.1
			C33.5,34,30.4,32.5,27.4,30.8z M53.5,30.6c-0.2,1.1-0.4,2.3-0.6,3.4c-0.3,2.2-0.6,4.5-1.1,6.7l0,0c-0.2,1.5-0.4,3-0.6,4.4
			c-0.1,0.4-0.3,0.7-0.7,0.9c-1.3,0.7-4.1,2.7-4.6,2.7c-1.5,0.9-6.9,4-8.1,4.7c-0.4,0.3-0.5-0.1-0.6-0.4c0-0.6,0-1.3,0-1.9
			c0.1-2.3,0-4.5,0.3-6.8l0,0l0,0c0-1.2,0-2.4,0.1-3.5c0-0.1,0-0.2,0.1-0.4c-0.1-1,0.1-2,0.1-2.9c0-0.5,0.4-0.7,0.8-0.9
			c1.9-0.9,3.8-1.8,5.7-2.6c1.8-1,3.8-1.8,5.7-2.6l0,0c0.9-0.5,1.8-0.8,2.7-1.3C53.4,29.9,53.6,30.1,53.5,30.6z"/>
	</g>
</g>
</svg>
