<?xml version="1.0" encoding="utf-8"?>
<!-- Generator: Adobe Illustrator 21.0.2, SVG Export Plug-In . SVG Version: 6.00 Build 0)  -->
<svg version="1.1" id="Layer_1" xmlns="http://www.w3.org/2000/svg" xmlns:xlink="http://www.w3.org/1999/xlink" x="0px" y="0px"
	 viewBox="0 0 74 74" style="enable-background:new 0 0 74 74;" xml:space="preserve">
<style type="text/css">
	.st0{fill:none;stroke:#006FAF;stroke-width:2;stroke-miterlimit:10;}
	.st1{fill:#006FAF;}
</style>
<circle class="st0" cx="37" cy="37" r="36"/>
<g>
	<path class="st1" d="M36.6,41.1c-0.1-0.1-0.2-0.1-0.3-0.2c-1.2-1.2-2.4-2.4-3.6-3.6c-0.2-0.2-0.2-0.4,0.1-0.7
		c1.1-1.1,2.2-2.2,3.3-3.3c2.8-2.8,5.5-5.5,8.3-8.3c0.4-0.4,0.5-0.4,0.9,0c3.8,3.8,7.7,7.7,11.5,11.5c0.4,0.4,0.4,0.5,0,0.9
		C52.9,41.3,49,45.1,45.2,49c-0.4,0.4-0.5,0.4-0.9,0c-1.1-1.1-2.2-2.2-3.4-3.4c-0.4-0.4-0.4-0.5,0-0.8c2.4-2.4,4.8-4.8,7.3-7.3
		c0.5-0.5,0.5-0.6,0-1c-1-1-2-2-3-3c-0.4-0.4-0.5-0.4-0.9,0c-2.4,2.4-4.9,4.9-7.3,7.3C36.9,40.9,36.7,41,36.6,41.1z"/>
	<path class="st1" d="M33.4,28.8c-0.1,0.1-0.2,0.3-0.3,0.4c-1.7,1.7-3.4,3.4-5.1,5.1c-0.8,0.8-1.5,1.5-2.3,2.3
		c-0.4,0.4-0.4,0.5,0,0.9c2.4,2.4,4.9,4.9,7.3,7.3c0.4,0.4,0.4,0.5,0,0.9c-1.1,1.1-2.3,2.3-3.4,3.4c-0.3,0.3-0.5,0.3-0.8,0
		c-3.9-3.9-7.7-7.7-11.6-11.6c-0.3-0.3-0.3-0.5,0-0.8c3.9-3.9,7.8-7.8,11.6-11.6c0.3-0.3,0.5-0.3,0.8,0c1.2,1.2,2.3,2.3,3.5,3.5
		C33.2,28.5,33.3,28.7,33.4,28.8z"/>
</g>
</svg>
