<?xml version="1.0" encoding="utf-8"?>
<!-- Generator: Adobe Illustrator 21.0.2, SVG Export Plug-In . SVG Version: 6.00 Build 0)  -->
<svg version="1.1" id="Layer_1" xmlns="http://www.w3.org/2000/svg" xmlns:xlink="http://www.w3.org/1999/xlink" x="0px" y="0px"
	 viewBox="0 0 74 74" style="enable-background:new 0 0 74 74;" xml:space="preserve">
<style type="text/css">
	.st0{fill:#006FAF;}
</style>
<title>health-checks</title>
<path class="st0" d="M37,0C16.6,0,0,16.6,0,37s16.6,37,37,37s37-16.6,37-37S57.4,0,37,0z M37,72C17.7,72,2,56.3,2,37S17.7,2,37,2
	s35,15.7,35,35S56.3,72,37,72z"/>
<g>
	<path class="st0" d="M59.5,41.3l-0.2-0.7c-0.1-0.2-0.1-0.6-0.1-0.8c-0.1-0.6-0.2-1.3-0.4-1.9c-0.2-0.6-0.8-0.8-1.2-0.9
		c-0.4-0.1-1,0.2-1.3,0.6c-0.3,0.8-0.3,1.6,0.2,2.3c0.2,0.2,0.3,0.5,0.6,0.6c-0.6-0.2-1.2-0.3-1.8-0.5l-0.6-0.2c0-0.3,0-0.6,0-1
		c0.1-2,0.2-4,0.2-6.1v-0.4c0-0.8,0-1.7-0.3-2.4c-1-1.9-2.2-3.9-3.1-5.5c-0.3-0.6-1-1-1.7-1.1c-1.3-0.3-2.6-0.6-3.9-0.7
		c-0.4-0.1-0.8-0.2-1.3-0.2l-0.9-0.2c-0.2-0.5-0.8-0.9-1.3-1c-0.8-0.2-1.5-0.3-2.3-0.5c-0.9-0.2-1.8-0.4-2.7-0.6
		c-0.4-0.1-0.8-0.2-1.3,0.1c-0.4,0.2-0.6,0.7-0.6,1c-0.2,0.7-0.5,1.4-0.7,2.2l-2.8,0.6c-2.5,0.6-4.8,1-7.1,1.6
		c-0.4,0.1-0.8,0.4-1.2,1c-0.6,0.8-1.1,1.6-1.7,2.4c-0.6,0.8-1.2,1.6-1.8,2.4c-0.4,0.6-0.6,1.1-0.8,1.7c-0.2,0.8-0.4,1.6-0.6,2.4
		c-0.2,0.6-0.3,1.2-0.5,1.8s-0.3,1.1-0.5,1.8c-0.2,0.8-0.5,1.7-0.6,2.4v0.2c-0.2,0-0.3-0.1-0.5-0.1c-0.4-0.1-0.7-0.2-1.3-0.2
		l-0.7-0.1v3.1l0.7-0.2c0.2-0.1,0.4-0.1,0.6-0.1c0.8-0.2,1.7-0.2,2.3-1.6l0.4-0.8c0.2-0.2,0.4-0.6,0.6-1c0.1-0.2,0.1-0.2,0.2-0.4
		c0-0.1,0.1-0.2,0.1-0.2c-0.1,0.3-0.2,0.6-0.2,0.9c-0.3,1.5-0.4,3.1-0.5,4.7c0,0.6-0.1,1.3-0.1,1.8c-0.1,0.6,0.1,0.9,0.3,1.1
		c0.2,0.2,0.5,0.5,1.1,0.5h0.5c0.1,0,0.1,0,0.2,0c1.9,0,2.2-0.2,2.6-2.1l0.1-0.5v-0.1v-0.1c0-0.1,0.1-0.2,0.1-0.2
		c0.6-1.8,0.7-3.5,0.6-5c0.7,2.1,1.4,4.3,2.2,6.3c0.4,1.4,1.2,1.9,2.6,1.7h0.6c1.4,0,1.8-0.3,1.8-1.8c-0.1-1.6-0.2-3.3-0.4-4.8
		c-0.1-0.8,0.1-1,0.8-1.1c1.4-0.3,2.8-0.7,4.3-1.1c-0.1,0.2-0.2,0.4-0.2,0.7c0,0.4-0.1,1-0.1,1.8c-0.3,5.7-0.2,5.9,0.2,6.2
		c0.4,0.2,0.9,0.3,1.4,0.3c0.3,0,0.6-0.1,1-0.1h0.1c0.6-0.2,1-1,1-1.4c0.2-0.9,0.5-1.8,0.6-2.7c0.1-1,0.2-1.9,0.1-2.7
		c0.2,0.3,0.3,0.6,0.5,0.9c0.8,1.4,1.5,2.7,2.3,4.1c0.6,1.4,1.6,2.1,3.1,2.1c0.2,0,0.4,0,0.6,0c0.5-0.1,1-0.2,1.3-0.6
		c0.2-0.4,0.2-0.9,0.1-1.3c-1-3.2-2-6.7-3-10.4l0,0c-0.1-0.4-0.3-0.7-0.6-0.9c0.2,0,0.3,0,0.6,0c0.1,0,0.3,0,0.7,0
		c0.8,0,2.1,0.1,2.9,0.1h0.6v-0.6c0-0.2,0-0.6-0.2-0.8c-0.3-0.8-0.6-1.7-1-2.7c0.2,0.3,0.6,0.6,1.1,0.6c0.7,0.2,1,0.6,1,1.5
		c0.1,1.9,0.2,3.9,0.4,5.9c0,0.4,0.2,0.9,0.5,1.2c0.6,0.9,1.5,1.2,2.8,1.7l0.8,0.3l0,0l0.5,0.1c0.7,0.1,1.3,0.2,1.8,0.2
		c1.4,0,2.1-0.5,2.7-1.8L59.5,41.3L59.5,41.3z M15.7,43v-0.3c0.2,0,0.4,0.1,0.6,0.1c0.1,0,0.1,0,0.2,0C16.2,42.9,15.9,43,15.7,43z
		 M22.2,45.9v0.2v0.1c0,0.1-0.1,0.2-0.1,0.3l-0.1,0.4c-0.1,0.5-0.2,1-0.2,1S21.1,48,20.4,48H20c-0.2,0-0.2,0-0.2,0c0,0,0-0.1,0-0.2
		c0.1-0.6,0.1-1.3,0.1-1.9c0.1-1.5,0.2-3.1,0.5-4.6c0.2-1.3,0.6-2.6,1.1-3.9c0-0.1,0.1-0.2,0.1-0.3c0.1,0.3,0.2,0.6,0.2,0.8
		C23,40.3,23.2,42.9,22.2,45.9z M38.6,44.8c-0.1,0.9-0.3,1.7-0.6,2.6c0,0.2-0.2,0.4-0.2,0.6c-0.4,0.1-0.8,0.1-1.2,0
		c-0.1-0.8,0.1-3.6,0.2-5.1c0-0.7,0.1-1.4,0.1-1.8c0-0.2,0-0.2,0-0.2c0.1-0.1,0.3-0.1,0.4-0.1h0.2c0.2,0,0.3-0.1,0.5-0.1
		c0.1,0,0.2-0.1,0.2-0.1C38.8,41.6,38.8,42.9,38.6,44.8z M46.5,47.8c0,0.1,0.1,0.2,0.1,0.2c-0.1,0-0.2,0-0.3,0.1
		c-1.3,0.2-1.9-0.2-2.5-1.4c-0.7-1.4-1.5-2.8-2.3-4.2c-0.6-1-1.1-2-1.7-3c-0.5-0.7-1-1.1-1.7-1.1c-0.2,0-0.6,0.1-0.8,0.2
		c-2,0.6-4,1.2-5.9,1.7c-1.3,0.3-1.8,1-1.8,2.4c0.2,1.6,0.3,3.2,0.4,4.7c0,0.2,0,0.4,0,0.6c-0.2,0-0.5,0-0.6,0h-0.6h-0.1
		c-0.6,0.1-1,0-1.3-0.9c-1.2-3.6-2.5-7.3-3.8-10.8c-0.3-0.8-0.8-1.4-1.2-1.9c-0.2-0.2-0.6-0.7-1.1-0.6c-0.6,0.1-0.8,0.6-1,1.1
		c-0.2,0.4-0.2,0.8-0.4,1.1c0-0.1,0-0.1,0-0.2c0.2-0.8,0.4-1.6,0.6-2.3c0.2-0.5,0.3-0.9,0.6-1.4c0.6-0.8,1.1-1.6,1.7-2.4
		c0.6-0.8,1.2-1.6,1.7-2.4c0.2-0.3,0.5-0.5,0.6-0.5c2.3-0.6,4.6-1.1,7.1-1.6l1-0.2c-0.1,0.3-0.2,0.6-0.3,0.9
		c-0.2,0.6-0.3,1.1-0.6,1.7c-0.6,1.6-0.4,2,1,3c0.6,0.5,1.3,1,1.9,1.4c1.8,1.4,3.6,2.8,5.4,4.1c0.6,0.4,1.3,0.6,2,0.6
		c0.2,0,0.3,0.1,0.5,0.1c0.4,0.1,0.5,0.2,0.6,0.5C44.5,41.2,45.4,44.6,46.5,47.8z M45.4,35c-0.4,0-0.7,0-0.8,0c0,0,0,0-0.1,0
		c-2.2,0.2-3.7-1-5.2-2.2L39,32.6c-0.7-0.6-1.4-1.1-2.3-1.7c-0.7-0.6-1.4-1.1-2.3-1.7c-0.3-0.2-0.4-0.5-0.2-0.8
		c0.5-1.4,1-2.8,1.4-4.3c0.2-0.8,0.5-1.6,0.8-2.4c0.1-0.2,0.1-0.3,0.1-0.3s0.1,0,0.4,0c0.9,0.2,1.8,0.4,2.7,0.6
		c0.7,0.2,1.5,0.3,2.3,0.5c0.2,0.1,0.5,0.2,0.6,0.4c1.8,4.3,3.5,8.5,5,12.1C46.8,35,46,35,45.4,35z M53.6,32.4v0.5
		c0,2.1-0.1,4.1-0.2,6.1c0,0.7-0.1,1.4-0.2,2.2c0,0.2,0,0.4-0.1,0.6c-0.7-0.3-1.2-0.6-1.5-1l-0.1-0.1c-0.1-0.1-0.2-0.2-0.2-0.4
		c-0.2-1.9-0.3-3.9-0.4-5.8c0-1.4-0.6-2.3-1.8-2.7c-0.6-0.2-0.8-0.5-1-1.1l-2.8-6.9c0.1,0,0.2,0,0.2,0.1c1.4,0.2,2.7,0.4,3.9,0.7
		c0.3,0.1,0.7,0.3,0.9,0.6l0,0c1,1.5,2.2,3.5,3.1,5.3C53.6,30.9,53.6,31.7,53.6,32.4z M57.4,38.2C57.4,38.2,57.5,38.2,57.4,38.2
		c0.2-0.1,0.2,0,0.2,0c0.2,0.6,0.2,1,0.3,1.6c-0.2-0.2-0.4-0.3-0.5-0.5C57.3,39,57.3,38.6,57.4,38.2z M55.5,42.4c0-0.2,0-0.4,0-0.6
		s0-0.2,0-0.4c0.5,0.2,1,0.2,1.4,0.4c0.2,0.1,0.5,0.2,0.7,0.2C57.5,42.4,56.9,42.6,55.5,42.4z"/>
</g>
</svg>
