<?xml version="1.0" encoding="utf-8"?>
<!-- Generator: Adobe Illustrator 21.0.2, SVG Export Plug-In . SVG Version: 6.00 Build 0)  -->
<svg version="1.1" id="Layer_1" xmlns="http://www.w3.org/2000/svg" xmlns:xlink="http://www.w3.org/1999/xlink" x="0px" y="0px"
	 viewBox="0 0 74 74" style="enable-background:new 0 0 74 74;" xml:space="preserve">
<style type="text/css">
	.st0{fill:#006FAF;}
</style>
<title>health-checks</title>
<path class="st0" d="M37,0C16.6,0,0,16.6,0,37s16.6,37,37,37s37-16.6,37-37S57.4,0,37,0z M37,72C17.7,72,2,56.3,2,37S17.7,2,37,2
	s35,15.7,35,35S56.3,72,37,72z"/>
<g>
	<path class="st0" d="M58,38.4c-0.1-0.3-0.2-0.5-0.6-0.5c-0.6-0.1-1-0.1-1.3-0.3c-1.4-0.9-2.8-2.1-4.2-3.3c-0.6-0.5-0.6-0.6-0.3-1.4
		c0.2-0.6,0.3-1.3,0.6-2.1c-1.9,0.3-3.6,0.7-5.2,1.3c-0.2,0-0.3,0.2-0.5,0.3c-0.6,0.8-1.4,1.9-2,2.7c-0.1,0.2-0.3,0.6-0.3,0.8
		c-0.2,0.7-0.5,1.6-0.6,2.3c-0.1,0.7-0.3,1.4-0.5,2.1l0.1,0.1c0.1-0.1,0.3-0.2,0.3-0.5c0.3-1.2,0.7-2.1,1.2-3.3
		c0.1-0.5,0.3-0.5,0.6-0.2c0.2,0.3,0.5,0.6,0.6,0.9c0.7,2.1,1.5,4.1,2.1,6.2c0.2,0.6,0.5,0.8,1.2,0.7c0.1,0,0.2,0,0.3,0
		c0.6,0,0.7,0,0.6-0.7c0-0.8-0.1-1.9-0.2-2.7c0-0.6,0.1-0.8,0.7-0.9c1.2-0.2,2.3-0.6,3.5-0.9c0.5-0.1,0.7,0,0.9,0.3
		c0.7,1.4,1.6,2.7,2.2,4.1c0.3,0.7,0.8,1.2,1.7,0.9c0.6,0.3,0.7,0.2,0.6-0.2C58.9,42.3,58.5,40.3,58,38.4z"/>
	<path class="st0" d="M35.5,38.9c-0.3-0.1-0.8-0.1-1.2-0.3C33,37.8,32,36.8,30.8,36c-0.3-0.2-0.5-0.6-0.3-1.2
		c0.2-0.5,0.3-1.2,0.6-1.7c-0.2,0-0.3,0-0.6,0.1c-0.9,0.2-2,0.5-2.9,0.6c-0.7,0.1-1.3,0.3-1.6,1.2c-0.5,0.7-1.3,1.5-1.5,2.3
		c-0.5,1.3-0.7,2.4-0.9,3.7l0.1,0.1c0.1-0.1,0.2-0.2,0.2-0.3c0.2-0.8,0.6-1.6,0.8-2.4c0.2-0.5,0.3-0.6,0.7-0.1
		c0.2,0.2,0.3,0.6,0.5,0.8c0.6,1.6,1.2,3.3,1.6,4.8c0.3,0.9,0.3,0.9,1.4,0.9c0.3,0,0.5-0.1,0.5-0.6c-0.1-0.8-0.1-1.6-0.2-2.4
		c0-0.3,0.1-0.6,0.5-0.7c0.9-0.2,2-0.5,2.9-0.8c0.6-0.1,0.8,0.1,1.2,0.5c0.6,1.2,1.3,2.2,1.7,3.4c0.5,0.8,0.9,1.2,2.1,0.7
		c0-0.1,0-0.1,0-0.2c-0.5-1.7-0.9-3.5-1.6-5.2C36,39.2,35.6,39.1,35.5,38.9z"/>
	<path class="st0" d="M17.4,40.1c-0.3-0.1-0.7-0.1-0.9-0.3c-0.9-0.7-1.9-1.4-2.8-2.1c-0.3-0.3-0.5-0.7-0.3-1.3
		c0.1-0.3,0.2-0.8,0.3-1.4c-1.2,0.2-2.2,0.5-3.3,0.7c-0.2,0-0.3,0.1-0.5,0.2c-1.3,1.4-2,3.1-2.3,5c0.2-0.6,0.3-1,0.6-1.6
		c0.1-0.3,0.3-0.5,0.6-0.1c0.1,0.2,0.3,0.5,0.5,0.7c0.5,1.5,0.9,2.8,1.5,4.3c0.2,0.6,0.7,0.5,1.2,0.5c0.5,0,0.3-0.3,0.3-0.6
		c0-0.6,0-1.3-0.1-1.9c0-0.3,0.1-0.6,0.5-0.6c0.8-0.2,1.6-0.5,2.4-0.7c0.3-0.1,0.6,0,0.8,0.3c0.5,0.8,0.9,1.9,1.5,2.7
		c0.6,0.8,0.7,0.9,1.7,0.6v-0.1c-0.3-1.4-0.8-2.8-1.3-4.2C17.9,40.3,17.5,40.2,17.4,40.1z"/>
	<path class="st0" d="M7.6,41.4c-0.1,0-0.1-0.1-0.1-0.1c0-0.1,0-0.2,0-0.2v0.1C7.5,41.3,7.4,41.4,7.6,41.4z"/>
	<path class="st0" d="M56.7,29.6c-0.9-0.2-1.9-0.3-2.8-0.6c-0.3-0.1-0.6,0-0.7,0.3c-0.3,1.3-0.7,2.4-1.3,3.7c0,0.3,0.1,0.7,0.3,0.8
		c0.8,0.6,1.7,1.3,2.4,2c0.9,0.7,2,1.7,3.5,1.5h0.1c0.6,0,1.3,0,2,0c0-0.1,0-0.2,0-0.2c-0.9-2.3-2-4.7-2.9-7.2
		C57.2,29.7,57,29.6,56.7,29.6z"/>
	<path class="st0" d="M34.8,32.1c-0.7-0.2-1.5-0.2-2.1-0.5c-0.5-0.1-0.7,0-0.8,0.5C31.6,33,31.3,34,31,35c0,0.2,0.1,0.5,0.3,0.6
		c1.2,0.8,2.2,1.7,3.4,2.6c0.1,0.1,0.3,0.2,0.5,0.2c0.7,0,1.5,0.1,2.2,0.1c0.2,0,0.3,0,0.6,0c0-0.1,0-0.1,0-0.2
		c-0.8-2-1.6-4-2.4-5.9C35.4,32.2,35,32.1,34.8,32.1z"/>
	<path class="st0" d="M62,31.5c-0.1-0.2-0.5-0.5-0.7-0.5c-0.9-0.2-1.9-0.3-2.9-0.5c0.1,0.2,0.1,0.3,0.2,0.5c0.3,1.2,0.9,2.4,1.5,3.8
		c0.1,0.3,0.3,0.7,0.8,0.8c0.6,0.1,0.8,0.6,0.8,1.3c0,1.2,0.1,2.2,0.2,3.4c0,0.1,0.1,0.3,0.2,0.5c0.5,0.3,0.8,0.6,1.5,0.9
		c0-0.8,0.1-1.5,0.1-2.1c0-1.2,0.1-2.3,0.1-3.5c0-0.5,0-0.9-0.1-1.5C63.3,33.6,62.7,32.4,62,31.5z M61,32.2c-0.1,0-0.1,0-0.2,0
		c-0.1-0.2-0.3-0.3-0.3-0.6c0.1-0.1,0.3-0.2,0.5-0.5c0.1,0.1,0.5,0.3,0.5,0.5C61.4,31.8,61.2,31.9,61,32.2z"/>
	<path class="st0" d="M17.2,34.4c-0.1-0.2-0.3-0.3-0.6-0.5c-0.6-0.1-1.2-0.2-1.7-0.3c-0.3-0.1-0.5,0-0.6,0.3
		c-0.2,0.8-0.5,1.6-0.8,2.4c0,0.5,0.1,0.6,0.3,0.8c0.8,0.6,1.7,1.4,2.7,2c0.1,0.1,0.3,0.2,0.6,0.2c0.7,0,1.5,0,2.2,0
		c0-0.1,0-0.2-0.1-0.3C18.5,37.5,17.9,36,17.2,34.4z"/>
	<path class="st0" d="M39.2,33.5c-0.1-0.1-0.1-0.2-0.2-0.2c-0.8-0.1-1.7-0.3-2.7-0.5c0.6,1.4,0.9,2.6,1.6,3.8c0,0.1,0.2,0.3,0.6,0.6
		s0.5,0.3,0.6,0.8c0,0.7,0.1,1.4,0.1,2.1c0,1.3,0.3,1.6,1.5,2c0-0.6,0.1-1.3,0.1-1.9c0-1.2,0.1-2.3,0.1-3.5c0-0.1,0-0.3-0.1-0.5
		C40.4,35.2,39.8,34.4,39.2,33.5z M38.5,34c-0.1,0-0.2-0.2-0.3-0.3c0.1-0.1,0.2-0.2,0.3-0.3c0.1,0,0.3,0.1,0.6,0.3
		C38.8,33.9,38.6,34,38.5,34z"/>
	<path class="st0" d="M20.2,35.2c-0.1-0.1-0.2-0.3-0.3-0.3c-0.6-0.1-1.3-0.2-2-0.3c0.5,1.2,0.9,2.2,1.4,3.4c0.1,0.2,0.2,0.3,0.3,0.5
		c0.3,0.1,0.5,0.5,0.5,0.8c0,0.5,0.1,1.2,0.1,1.6c-0.1,0.8,0.3,1.4,1.3,1.6c0-0.8,0.1-1.6,0.1-2.3c0-0.7,0-1.5,0-2.3
		c0-0.1,0-0.2-0.1-0.3C21.2,36.6,20.7,36,20.2,35.2z M19.8,35.9c-0.1-0.2-0.2-0.3-0.2-0.5c0,0,0.1-0.1,0.2-0.1s0.2,0.1,0.2,0.2
		C20,35.7,19.9,35.8,19.8,35.9z"/>
	<path class="st0" d="M45.1,37.5h-0.1c-0.3,0.9-0.7,2-0.8,3.1c-0.2,1.3-0.2,2.4-0.3,3.7c0,0.3,0.1,0.5,0.5,0.5
		c1.5,0.1,1.3,0.2,1.5-1.2c0-0.1,0-0.1,0-0.2c0.5-1.6,0.5-3.3-0.2-4.8C45.3,38.2,45.2,37.9,45.1,37.5z"/>
	<path class="st0" d="M24.8,39.1c-0.2,0.9-0.6,1.9-0.8,2.8c-0.1,0.7-0.1,1.5-0.1,2.3s-0.1,0.7,0.7,0.8c0.7-0.2,0.9-0.3,0.9-0.8
		s0.1-0.9,0.2-1.5c0.5-1.4-0.5-2.4-0.7-3.7C24.9,39.1,24.9,39.1,24.8,39.1z"/>
	<path class="st0" d="M54.2,40c-0.2,0-0.6,0-0.6,0.5c-0.1,1.2-0.1,2.2-0.2,3.5c0,0.2,0,0.7,0.1,0.8c0.2,0.1,0.7,0.1,1.2,0
		c0.1,0,0.3-0.3,0.3-0.6c0.1-0.5,0.1-0.9,0.3-1.5c0.3-0.9,0.1-1.7-0.5-2.4C54.6,40.1,54.4,40,54.2,40z"/>
	<path class="st0" d="M32.7,40.9c-0.2,0-0.5,0.1-0.5,0.5c0,0.8-0.1,1.7-0.2,2.6c0,0.9,0,0.9,0.7,0.9c0.3,0,0.5-0.2,0.6-0.5
		c0.1-0.5,0.1-0.8,0.2-1.4c0.2-0.7,0.1-1.4-0.3-1.9C33,41,32.8,40.9,32.7,40.9z"/>
	<path class="st0" d="M7.9,42.1c-0.1,0.7-0.1,1.5-0.1,2.2s0,0.7,0.7,0.7c0.3,0,0.5-0.1,0.5-0.5C9,44,9.1,43.3,9.3,42.7
		c0-0.1,0-0.3,0-0.5c-0.2-0.6-0.5-1.4-0.7-2.1C8.2,40.7,8,41.3,7.9,42.1z"/>
	<path class="st0" d="M14.7,41.7c-0.1,0-0.3,0.2-0.3,0.3c-0.1,0.6-0.1,1.2-0.1,1.7c0,0.2,0,0.5,0,0.6c0,0.1,0.2,0.3,0.2,0.5
		c0.2,0,0.6-0.1,0.7-0.2c0.1-0.8,0.7-1.9,0-2.7C15.2,41.9,15,41.7,14.7,41.7z"/>
	<path class="st0" d="M64.1,41.7c1.5,0.1,2,0,2.2-0.7c-0.6-0.1-1.4-0.3-2.1-0.5C64.2,40.9,64.2,41.3,64.1,41.7z"/>
	<path class="st0" d="M66.5,40.3c-0.1-0.6-0.1-1.2-0.2-1.6c0-0.1-0.2-0.2-0.5-0.2c-0.1,0-0.3,0.1-0.3,0.2
		C65,39.5,65.6,40.2,66.5,40.3z"/>
	<path class="st0" d="M41.2,42.1c0.7-0.1,1.4,0,1.7-0.7c-0.6-0.1-1.2-0.1-1.7-0.2C41.2,41.4,41.2,41.9,41.2,42.1z"/>
	<path class="st0" d="M22.6,41.9c-0.6,0-0.6,0-0.3,0.7c0.3-0.2,0.7-0.3,1.3-0.5c0-0.1-0.1-0.2-0.1-0.2
		C23.1,41.9,22.8,41.9,22.6,41.9z"/>
</g>
</svg>
