<?xml version="1.0" encoding="utf-8"?>
<!-- Generator: Adobe Illustrator 21.0.2, SVG Export Plug-In . SVG Version: 6.00 Build 0)  -->
<svg version="1.1" id="Layer_1" xmlns="http://www.w3.org/2000/svg" xmlns:xlink="http://www.w3.org/1999/xlink" x="0px" y="0px"
	 viewBox="0 0 74 74" style="enable-background:new 0 0 74 74;" xml:space="preserve">
<style type="text/css">
	.st0{fill:none;stroke:#006FAF;stroke-width:2;stroke-miterlimit:10;}
	.st1{fill:#006FAF;}
</style>
<title>Cloud &amp;amp; Infrastructure Services</title>
<circle class="st0" cx="37" cy="37" r="36"/>
<g>
	<path class="st1" d="M29.8,29.5c1.1-1.7,1.9-3.5,3-5.1c2.3-2.9,7-2.6,8.8,0.6c2.3,4,4.6,8,6.9,12c0.2,0.3,0.2,0.7,0.1,1
		c-0.6,2.1-1.8,3.6-3.9,4.4c-0.6,0.2-1.2,0.1-1.9,0c-0.2,0-0.2-0.2-0.3-0.3c-1.8-3.2-3.7-6.5-5.5-9.7c-1.1-1.9-2.7-2.9-4.9-3.2
		C31.5,29.3,30.7,29.3,29.8,29.5z"/>
	<path class="st1" d="M31.6,51.6c-0.1,0-0.1,0-0.1,0c-1.8,0-3.6,0-5.4,0c-2.2-0.1-4.2-1.7-4.8-3.9c-0.4-1.5-0.2-2.9,0.5-4.3
		c2.2-3.8,4.4-7.6,6.6-11.4c0.4-0.7,1-1.1,1.8-1.2c1.9-0.2,4.6,0.8,5.7,3.1c0.1,0.2,0.1,0.4,0,0.6c-1.8,3.1-3.6,6.2-5.4,9.3
		c-0.5,0.8-0.6,1.7-0.7,2.6C29.5,48.3,30.2,50,31.6,51.6z"/>
	<path class="st1" d="M50,39.6c0.6,1.1,1.2,2.2,1.9,3.3c0.4,0.7,0.8,1.4,1,2.2c0.7,3-1.4,6-4.4,6.5c-0.3,0.1-0.6,0.1-1,0.1
		c-4.4,0-8.8,0-13.2,0c-0.3,0-0.4-0.1-0.6-0.2c-1-0.9-1.9-2-2.3-3.3c-0.4-1.3-0.1-2.6,0.6-3.7c0.1-0.2,0.2-0.1,0.3-0.1
		c1.3,0,2.6,0,3.9,0c2.5,0,5.1,0,7.6,0c1.4,0,2.6-0.4,3.7-1.3c0.9-0.7,1.7-1.5,2.1-2.6C49.9,40.1,49.9,39.8,50,39.6z"/>
</g>
</svg>
