<?xml version="1.0" encoding="utf-8"?>
<!-- Generator: Adobe Illustrator 21.0.2, SVG Export Plug-In . SVG Version: 6.00 Build 0)  -->
<svg version="1.1" id="Layer_1" xmlns="http://www.w3.org/2000/svg" xmlns:xlink="http://www.w3.org/1999/xlink" x="0px" y="0px"
	 viewBox="0 0 74 74" style="enable-background:new 0 0 74 74;" xml:space="preserve">
<style type="text/css">
	.st0{fill:none;stroke:#006FAF;stroke-width:2;stroke-miterlimit:10;}
	.st1{fill:#006FAF;}
</style>
<title>Cloud &amp;amp; Infrastructure Services</title>
<circle class="st0" cx="37" cy="37" r="36"/>
<g id="Layer_x0020_1_1_">
	<path class="st1" d="M49.3,50.3L52,20.5l0.1-0.4h-0.4H22.4H22l0.1,0.4l2.7,29.8v0.2l0.2,0.1l11.9,3.3h0.2L49,50.6l0.2-0.1
		L49.3,50.3L49.3,50.3z M37,26.9h8.7l-0.1,0.6l-0.2,1.8l-0.1,0.5h-8.5l0,0h-5.2h-0.4l0.1,0.4l0.4,3.7v0.4h0.4h4.8l0,0h7.5H45
		l-0.1,0.6l0,0l-0.8,9.6L44,44.9l-7.2,2l-7.1-2l-0.5-5.1h1.3h1.7l0.2,2.6v0.2l0.2,0.1l4.1,1.1H37l0,0l0.2-0.1l0,0l3.8-1l0.2-0.1
		v-0.2l0.4-4.7l0.1-0.4h-0.4h-4.5l0,0h-7.7l-0.9-9.7V27L37,26.9L37,26.9L37,26.9z"/>
</g>
</svg>
