<?xml version="1.0" encoding="utf-8"?>
<!-- Generator: Adobe Illustrator 21.0.0, SVG Export Plug-In . SVG Version: 6.00 Build 0)  -->
<svg version="1.1" id="Layer_1" xmlns="http://www.w3.org/2000/svg" xmlns:xlink="http://www.w3.org/1999/xlink" x="0px" y="0px"
	 viewBox="0 0 74 74" style="enable-background:new 0 0 74 74;" xml:space="preserve">
<style type="text/css">
	.st0{fill:none;stroke:#006FAF;stroke-width:2;stroke-miterlimit:10;}
	.st1{fill:#006FAF;}
</style>
<title>Azure_Site_Recovery</title>
<circle class="st0" cx="37" cy="37" r="36"/>
<g>
	<g>
		<path class="st1" d="M35.5,57.7c-0.7-0.1-1.5-0.2-2.2-0.3c-7.6-1.3-14-7.2-15.9-14.7c-0.4-1.6-0.6-3.2-0.6-4.8
			c0-0.8,0.5-1.2,1.2-1c1.8,0.5,3.7,1,5.5,1.6c0.6,0.2,0.9,0.6,0.7,1.1c-0.1,0.5-0.6,0.7-1.2,0.5c-1.4-0.4-2.8-0.8-4.2-1.2
			c-0.1,0-0.2-0.1-0.5-0.1c0.2,1.1,0.3,2.2,0.6,3.2c2,7.4,6.8,12.1,14.4,13.7c9.2,1.9,18.4-3.8,21-12.9c0-0.1,0.1-0.3,0.1-0.4
			c0.2-0.5,0.6-0.7,1-0.6c0.4,0.1,0.7,0.6,0.6,1.1c-0.2,0.6-0.3,1.2-0.5,1.7c-2.7,6.7-7.6,11-14.6,12.6c-0.8,0.2-1.7,0.3-2.6,0.4
			c-0.1,0-0.2,0-0.3,0.1C37.2,57.7,36.4,57.7,35.5,57.7z"/>
		<path class="st1" d="M56.8,37.9c-0.4,0.6-0.6,0.7-1.3,0.5c-1.5-0.5-3.1-1-4.6-1.5c-0.6-0.2-0.8-0.6-0.7-1.1
			c0.2-0.5,0.6-0.6,1.2-0.5c1.2,0.4,2.5,0.8,3.8,1.3c-0.2-1-0.2-2-0.5-2.9c-1.9-7.6-6.7-12.3-14.3-14c-8.2-1.8-16.8,2.7-20.2,10.4
			c-0.4,1-0.7,2-1.1,3c-0.2,0.4-0.5,0.7-0.9,0.6c-0.4,0-0.7-0.3-0.7-0.7c0-0.2,0-0.3,0.1-0.5c2.4-7.7,7.5-12.5,15.4-14.3
			c0.8-0.2,1.5-0.2,2.3-0.3c0.1,0,0.2,0,0.3-0.1c0.8,0,1.7,0,2.5,0c0.7,0.1,1.4,0.2,2,0.3c4.6,0.8,8.5,2.9,11.6,6.4
			c2.5,2.8,4.1,6.1,4.8,9.9c0.1,0.7,0.2,1.5,0.3,2.2C56.8,37,56.8,37.4,56.8,37.9z"/>
	</g>
	<g>
		<path class="st1" d="M36.1,40.1c-2.2,0-4.4,0-6.6,0c0-0.1,0-0.2,0-0.3c0-2,0-4,0-6c0-0.3,0-0.3-0.3-0.3c-1.2,0-2.4,0-3.7,0
			c-0.1,0-0.1,0-0.3,0c2.5-2.8,5-5.5,7.6-8.3c2.5,2.8,5,5.5,7.6,8.3c-0.1,0-0.2,0-0.3,0c-1.2,0-2.4,0-3.7,0c-0.2,0-0.3,0.1-0.3,0.3
			c0,2,0,4,0,6C36.1,39.8,36.1,39.9,36.1,40.1z"/>
		<path class="st1" d="M40.4,49.3c-2.5-2.8-5-5.5-7.5-8.3c0.2,0,0.3,0,0.4,0c1.2,0,2.3,0,3.5,0c0.3,0,0.3,0,0.3-0.3c0-2,0-3.9,0-5.9
			c0-0.3,0-0.3,0.3-0.3c2,0,4,0,6,0c0.2,0,0.3,0.1,0.3,0.3c0,2,0,4,0,6c0,0.3,0,0.3,0.3,0.3c1.2,0,2.4,0,3.6,0c0.1,0,0.2,0,0.4,0
			C45.4,43.8,42.9,46.6,40.4,49.3z"/>
	</g>
</g>
</svg>
