<?xml version="1.0" encoding="utf-8"?>
<!-- Generator: Adobe Illustrator 21.0.2, SVG Export Plug-In . SVG Version: 6.00 Build 0)  -->
<svg version="1.1" id="Layer_1" xmlns="http://www.w3.org/2000/svg" xmlns:xlink="http://www.w3.org/1999/xlink" x="0px" y="0px"
	 viewBox="0 0 74 74" style="enable-background:new 0 0 74 74;" xml:space="preserve">
<style type="text/css">
	.st0{fill:#006FAF;}
</style>
<title>digital-transformation</title>
<path class="st0" d="M37,74C16.6,74,0,57.4,0,37C0,16.6,16.6,0,37,0c20.4,0,37,16.6,37,37C74,57.4,57.4,74,37,74z M37,2
	C17.7,2,2,17.7,2,37s15.7,35,35,35s35-15.7,35-35S56.3,2,37,2z"/>
<path class="st0" d="M30.1,21.5c0-0.4,0.3-0.5,0.5-0.6c1.4-0.6,2.9-1,4.4-1.2c2.3-0.3,4.6,0,6.9,0.7c0.2,0.1,0.3,0.1,0.5,0.2
	c0.3,0.1,0.4,0.3,0.3,0.7c-0.1,0.3-0.4,0.4-0.7,0.3c-0.8-0.3-1.7-0.5-2.6-0.7c-2.9-0.5-5.7-0.2-8.4,0.9
	C30.5,22.1,30.1,21.9,30.1,21.5z"/>
<g>
	<path class="st0" d="M58,37.3c0-0.1,0-0.2,0-0.3c0.1-0.4-0.1-0.5-0.5-0.5c-1.3,0-2.6,0-3.9,0c-0.4,0-0.5-0.1-0.5-0.5
		c0-4.8-1.8-8.9-5.3-12.1c-0.9-0.8-1.9-1.5-2.9-2.1c-0.3-0.2-0.7-0.2-0.9,0.1c-0.2,0.3,0,0.6,0.3,0.8c0,0,0.1,0,0.1,0.1
		c4.9,3,7.4,7.3,7.6,13c0,0.8,0,0.7-0.7,0.8c-0.4,0-0.4-0.1-0.4-0.4c0-1.1-0.1-2.1-0.3-3.1c-1.6-7.1-8-11.8-15.1-11
		c-5.8,0.7-9.7,3.9-11.8,9.3c-0.6,1.5-0.8,3.2-0.8,4.8c0,0.3-0.1,0.4-0.4,0.4c-0.1,0-0.3,0-0.4,0c-0.3,0-0.4,0-0.4-0.3
		c0.1-0.7,0-1.4,0.1-2.1c0.5-3.8,2.1-6.9,4.9-9.5c0.5-0.5,1.1-0.9,1.7-1.3c0.3-0.2,0.4-0.4,0.2-0.7c-0.2-0.3-0.5-0.3-0.7-0.1
		c-0.2,0.1-0.4,0.3-0.6,0.4c-4.4,3.3-6.6,7.8-6.7,13.3c0,0.3,0,0.4-0.4,0.4c-1.3,0-2.6,0-3.8,0c-0.4,0-0.5,0.1-0.5,0.5
		c0,0.1,0,0.2,0,0.4c-0.1,0.4,0.1,0.5,0.5,0.5c1.1,0,2.1,0,3.2,0c1,0,1,0,1,1c0,0.1,0,0.2,0,0.4c-0.1,0.3,0.1,0.6,0.4,0.6
		c0.3,0,0.5-0.2,0.5-0.5c0-0.4,0.1-0.8,0.1-1.2c0-0.3,0.1-0.3,0.3-0.3c0.2,0,0.3,0,0.5,0c0.3,0,0.4,0.1,0.4,0.4
		c-0.2,2.5-0.5,4.9-1,7.3c-0.1,0.3-0.1,0.7,0.3,0.8c0.4,0.1,0.5-0.2,0.6-0.5c0.6-2.6,1-5.3,1.1-8c1.2,0,1.2,0,1.1,1.1
		c0,0.1,0,0.2,0,0.4c-0.2,2.1-0.5,4.2-0.9,6.3c-0.1,0.4,0,0.6,0.4,0.7c0.4,0.1,0.5-0.2,0.6-0.5c0.5-2.3,0.8-4.5,1-6.8
		c0.1-1.2,0.1-1.2,1.3-1.1c-0.1,2.3-0.4,4.7-0.8,7c-0.3,1.6-0.7,3.2-1.1,4.8c-0.1,0.4,0.1,0.5,0.3,0.6c0.3,0.1,0.5-0.1,0.6-0.3
		c0.1-0.2,0.1-0.4,0.2-0.6c1-3.8,1.7-7.6,1.8-11.5c0.3,0,0.5,0,0.7,0c0.3,0,0.5,0.1,0.4,0.4c-0.1,0.6-0.1,1.2-0.1,1.7
		c-0.2,2.6-0.7,5.3-1.3,7.8c-0.3,1-0.5,2.1-0.8,3.1c-0.1,0.3,0,0.6,0.3,0.7c0.3,0.1,0.5-0.1,0.6-0.4c0-0.1,0.1-0.2,0.1-0.3
		c0.2-0.9,0.5-1.8,0.7-2.7c0.8-3.1,1.3-6.2,1.4-9.4c0-1,0-1,1-1c0.1,0,0.2,0,0.2,0c-0.1,3.3-0.6,6.4-1.3,9.6c-0.1,0.4,0,0.6,0.4,0.7
		c0.4,0.1,0.5-0.2,0.5-0.5c0.6-2.9,1-5.8,1.2-8.7c0.1-1.2,0.1-1.2,1.2-1.1c0,0,0.1,0,0,0c-0.1,1.7-0.2,3.4-0.5,5.1
		c0,0.1,0,0.2,0.1,0.2c0.1,0.2,0.3,0.3,0.5,0.2c0.3-0.1,0.3-0.4,0.4-0.6c0.2-1.2,0.3-2.5,0.4-3.8c0-0.4-0.2-1,0.2-1.2
		c0.3-0.2,0.9,0,1.3-0.1c0.3,0,0.3,0.1,0.3,0.4c-0.1,1.5-0.2,2.9-0.3,4.4c-0.5,3.8-1.2,7.5-2.4,11.1c-0.1,0.4-0.1,0.7,0.3,0.8
		c0.4,0.1,0.5-0.2,0.6-0.5c0.3-1.1,0.6-2.2,0.9-3.3c1-3.7,1.5-7.4,1.8-11.2c0-0.5-0.2-1.3,0.2-1.6c0.4-0.3,1.1-0.1,1.7-0.1
		c0,0.3-0.1,0.5-0.1,0.7c0,0.2,0.1,0.4,0.4,0.5c0.2,0.1,0.4,0,0.5-0.3c0.1-0.2,0.1-0.3,0.1-0.5c0-0.4,0.1-0.5,0.5-0.4
		c0.1,0,0.2,0,0.4,0c0.3-0.1,0.4,0.1,0.4,0.4c-0.1,1.6-0.2,3.2-0.4,4.8c-0.4,3.2-1,6.3-1.8,9.3c-0.1,0.4,0,0.7,0.3,0.7
		c0.3,0.1,0.5-0.2,0.6-0.5c0.2-0.9,0.5-1.8,0.6-2.7c0.6-2.8,1.1-5.5,1.3-8.4c0.1-1.1,0.2-2.2,0.2-3.3c0-0.3,0.1-0.4,0.4-0.4
		c0.8,0,1.6,0,2.4,0c0.4,0,0.5,0.1,0.5,0.5c-0.2,2.9-0.4,5.9-1,8.7c-0.1,0.3,0,0.7,0.4,0.7c0.4,0.1,0.5-0.2,0.6-0.5
		c0.4-2.2,0.7-4.4,0.8-6.6c0.1-0.9,0.1-1.7,0.2-2.6c0-0.1,0-0.3,0.2-0.3c0.4,0.1,0.9-0.2,1.3,0.3c0.1,0.1,0.3,0.1,0.4,0
		c0.3-0.4,0.8-0.2,1.1-0.3c0.2,0,0.3,0.1,0.3,0.3c0,1.5-0.2,2.9-0.3,4.4c-0.2,2-0.5,3.9-0.8,5.9c-0.1,0.3-0.1,0.7,0.3,0.7
		c0.4,0.1,0.5-0.2,0.6-0.6c0.5-3.2,1-6.4,1.1-9.6c0-1.2,0-1.2,1.3-1.2c-0.1,0.4-0.1,0.8,0.4,0.8c0.5,0,0.5-0.4,0.5-0.8
		c1.6,0,3.1,0,4.6,0C57.9,37.7,58,37.6,58,37.3z M38.2,36.4c-0.1,0-0.2,0-0.3,0c-0.4,0-0.6,0-0.5-0.5c0.1-0.4-0.2-0.6-0.5-0.6
		c-0.4,0-0.5,0.3-0.5,0.7c0.1,0.4-0.1,0.5-0.5,0.4c-0.1,0-0.3,0-0.4,0c-0.9,0-0.9-0.1-0.8-1c0.2-1.1,1.2-1.9,2.4-1.8
		c1.1,0.1,1.9,1,2,2.1C39,36.4,39,36.4,38.2,36.4z M43.6,36.4c-0.4,0-1,0.1-1.3,0c-0.3-0.2-0.1-0.8-0.1-1.2c-0.3-2.9-3.1-5.2-6-4.7
		c-0.4,0.1-0.6,0.2-0.6,0.6c0,0.4,0.3,0.5,0.7,0.5c2.7-0.3,5,1.8,4.9,4.6c0,0.3-0.1,0.3-0.3,0.3c-0.8,0-0.8,0-0.8-0.7
		c-0.1-1.8-1.5-3.1-3.2-3.1c-1.8,0-3.2,1.4-3.2,3.2c0,0.2,0.1,0.5-0.1,0.5c-0.3,0.1-0.7,0-1,0c-0.1,0,0-0.1,0-0.2
		c0-1.4,0.3-2.6,1.4-3.6c0.3-0.2,0.5-0.5,0.2-0.8c-0.3-0.4-0.6-0.2-0.9,0.1C32,33,31.5,34.4,31.5,36c0,0.7-0.4,0.4-0.7,0.5
		c-0.4,0.1-0.5-0.1-0.5-0.5c0-3.4,2.4-6.2,5.7-6.6c3.3-0.4,6.3,1.7,7.1,4.9c0.1,0.4,0.1,0.7,0.2,1.1c0,0.3,0,0.7,0.4,0.9
		C43.7,36.4,43.6,36.4,43.6,36.4z M49.4,36.5c-0.7,0-0.7,0-0.7-0.7c-0.1-6.1-4.6-11-10.6-11.7c-1.7-0.2-3.4,0-5,0.6
		c-0.4,0.1-0.8,0.2-0.6,0.7c0.2,0.5,0.6,0.4,1,0.3c5.8-1.9,11.9,1.2,13.8,7c0.4,1.1,0.5,2.3,0.5,3.5c0,0.3-0.1,0.3-0.3,0.3
		c-0.8,0-0.8,0-0.8-0.7c-0.1-2.8-1.1-5.1-3.2-7c-0.3-0.3-0.6-0.5-0.9-0.1c-0.3,0.3-0.1,0.6,0.2,0.9c1.9,1.8,2.8,4,2.8,6.6
		c0,0.4-0.1,0.4-0.4,0.4c-0.3,0-0.6,0-0.9,0c0,0-0.1,0-0.1,0c0.6-0.7,0.3-1.4,0.1-2.1c-0.7-3.6-4-6.1-7.6-6
		c-3.7,0.1-6.7,2.8-7.2,6.5c-0.1,0.4-0.1,0.9-0.1,1.3c0,0.3,0,0.4-0.3,0.4c-0.9,0-1.8,0-2.6,0c-0.3,0-0.3-0.1-0.3-0.3
		c0-3.8,1.5-6.8,4.5-9.1c0.1,0,0.1-0.1,0.2-0.1c0.3-0.2,0.5-0.5,0.3-0.8c-0.2-0.3-0.5-0.2-0.8,0c-1,0.7-1.9,1.6-2.7,2.6
		C25.8,30.8,25,33.2,25,36c0,0.4-0.1,0.5-0.5,0.5c-0.6,0-0.6-0.1-0.6-0.7c0-6.1,4.4-11.2,10-12.6c7-1.7,14.3,3,15.7,10
		c0.2,0.9,0.2,1.8,0.3,2.8C49.8,36.3,49.8,36.5,49.4,36.5z"/>
	<path class="st0" d="M43.9,38.1c-0.5,0-0.5,0.4-0.5,0.7c-0.1,0.7-0.1,1.3-0.1,2c-0.3,4.1-1,8.1-2.1,12c-0.1,0.3-0.2,0.7,0.3,0.8
		c0.4,0.1,0.5-0.2,0.6-0.6c0.3-1.2,0.6-2.5,0.9-3.7c0.8-3.5,1.2-7,1.4-10.5C44.3,38.5,44.3,38.1,43.9,38.1z"/>
	<path class="st0" d="M39.8,41.1c0-0.3,0.1-0.7-0.4-0.8c-0.4,0-0.5,0.3-0.6,0.7c0,0.7-0.1,1.4-0.2,2.1c-0.5,3.5-1.2,7-2.2,10.4
		c-0.1,0.2-0.2,0.4,0,0.5c0.1,0.1,0.3,0.3,0.4,0.2c0.3-0.1,0.4-0.3,0.5-0.6c1.2-4.1,2-8.2,2.4-12.5C39.8,41.2,39.8,41.2,39.8,41.1z"
		/>
	<path class="st0" d="M48.1,39.8c-0.3,0-0.5,0.2-0.5,0.6c0,0.4,0,0.8-0.1,1.3c-0.3,3-0.7,6-1.4,9c0,0.2,0,0.3,0.1,0.5
		c0.1,0.1,0.3,0.2,0.5,0.1c0.3-0.1,0.3-0.3,0.4-0.5c0.2-0.9,0.4-1.8,0.5-2.7c0.4-2.5,0.8-5.1,1-7.6C48.5,40.1,48.5,39.8,48.1,39.8z"
		/>
	<path class="st0" d="M33.5,44.2c-0.3-0.1-0.5,0.1-0.6,0.4c0,0.1-0.1,0.3-0.1,0.4c-0.4,2.5-1.1,5-1.8,7.5c-0.1,0.3-0.2,0.7,0.3,0.8
		c0.4,0.1,0.5-0.2,0.6-0.5c0.3-1,0.6-1.9,0.8-2.9c0.4-1.7,0.8-3.4,1.1-5.1C33.9,44.5,33.8,44.3,33.5,44.2z"/>
	<path class="st0" d="M30.2,49.1c-0.3-0.1-0.5,0.1-0.6,0.4c-0.2,0.8-0.4,1.6-0.7,2.3c-0.1,0.4,0,0.6,0.3,0.7
		c0.3,0.1,0.5-0.1,0.6-0.4c0.1-0.2,0.1-0.5,0.2-0.7c0.2-0.6,0.3-1.3,0.5-1.8C30.6,49.4,30.5,49.2,30.2,49.1z"/>
	<path class="st0" d="M44.6,49.4c-0.3-0.1-0.5,0.1-0.6,0.3c-0.2,0.8-0.4,1.6-0.6,2.4c-0.1,0.3,0.1,0.5,0.4,0.5
		c0.3,0.1,0.5-0.1,0.5-0.3c0.2-0.8,0.4-1.7,0.6-2.4C45,49.6,44.9,49.5,44.6,49.4z"/>
	<path class="st0" d="M28.7,30.6c-0.9,1.4-1.4,2.9-1.5,4.6c0,0.4,0.1,0.7,0.5,0.7c0.4,0,0.5-0.3,0.6-0.6c0-0.2,0-0.4,0-0.6
		c0.8-5.7,6.7-9,12-6.8c0.3,0.1,0.7,0.2,0.9-0.2c0.2-0.4-0.1-0.6-0.4-0.8c-1.2-0.5-2.5-0.8-4.2-0.8C33.4,26.2,30.6,27.7,28.7,30.6z"
		/>
</g>
</svg>
