<?xml version="1.0" encoding="utf-8"?>
<!-- Generator: Adobe Illustrator 21.0.2, SVG Export Plug-In . SVG Version: 6.00 Build 0)  -->
<svg version="1.1" id="Layer_1" xmlns="http://www.w3.org/2000/svg" xmlns:xlink="http://www.w3.org/1999/xlink" x="0px" y="0px"
	 viewBox="0 0 74 74" style="enable-background:new 0 0 74 74;" xml:space="preserve">
<style type="text/css">
	.st0{fill:#006FAF;}
</style>
<title>deliver-contemporary-immersive-software-solutions</title>
<g>
	<path class="st0" d="M37,74C16.6,74,0,57.4,0,37S16.6,0,37,0s37,16.6,37,37S57.4,74,37,74z M37,2C17.7,2,2,17.7,2,37s15.7,35,35,35
		s35-15.7,35-35S56.3,2,37,2z"/>
</g>
<g>
	<g>
		<path class="st0" d="M22,32.5h-2.5v-1.9H22V32.5z M22,43.4h-2.5V33.1H22V43.4z"/>
	</g>
	<g>
		<path class="st0" d="M22.8,43.4V30.6h3.3c0.8,0,1.5,0.2,2.1,0.5c0.6,0.4,0.9,0.9,0.9,1.7v1.8c0,0.9-0.5,1.5-1.6,1.9
			c1.2,0.3,1.7,0.9,1.7,1.8v2.5c0,0.8-0.3,1.5-0.8,1.9s-1.2,0.6-2,0.6h-3.6V43.4z M26.3,35.1v-2.2c0-0.4-0.3-0.7-0.8-0.7v3.5
			C26.1,35.8,26.3,35.6,26.3,35.1z M26.3,41.1v-3.2c0-0.4-0.3-0.7-0.8-0.7v4.6C26.1,41.7,26.3,41.5,26.3,41.1z"/>
	</g>
	<g>
		<path class="st0" d="M37.4,43.4h-2.8L34.2,40H33l-0.5,3.4h-2.8l2.1-12.8h3.6L37.4,43.4z M34,38.2l-0.4-3.8l-0.4,3.8H34z"/>
	</g>
	<g>
		<path class="st0" d="M43.9,32.3h-1.6v11.1h-2.8V32.3H38v-1.7h5.9V32.3z"/>
	</g>
	<g>
		<path class="st0" d="M47.4,43.4h-2.8V30.6h2.8V43.4z"/>
	</g>
	<g>
		<path class="st0" d="M48.1,38.3h2.5v2.9c0,0.3,0.2,0.4,0.5,0.4s0.5-0.1,0.5-0.4v-1.5c0-0.5-0.3-1-0.9-1.6
			c-1.2-1.2-1.9-1.9-2.2-2.3c-0.3-0.4-0.4-0.8-0.4-1.3V33c0-1.7,1.1-2.5,3.2-2.5c1.9,0,2.9,0.8,2.9,2.3V35h-2.5v-2.3
			c0-0.3-0.1-0.4-0.4-0.4c-0.3,0-0.5,0.2-0.5,0.7l0.1,0.8c0,0.5,0.3,1,0.9,1.7c1.2,1.1,1.9,1.9,2.2,2.3c0.3,0.4,0.5,0.9,0.5,1.5v1.6
			c0,1.7-1.1,2.5-3.3,2.5c-2.1,0-3.1-0.8-3.1-2.3V38.3z"/>
	</g>
</g>
</svg>
