<?xml version="1.0" encoding="utf-8"?>
<!-- Generator: Adobe Illustrator 21.0.2, SVG Export Plug-In . SVG Version: 6.00 Build 0)  -->
<svg version="1.1" id="Layer_1" xmlns="http://www.w3.org/2000/svg" xmlns:xlink="http://www.w3.org/1999/xlink" x="0px" y="0px"
	 viewBox="0 0 74 74" style="enable-background:new 0 0 74 74;" xml:space="preserve">
<style type="text/css">
	.st0{fill:#006FAF;}
</style>
<title>health-checks</title>
<path class="st0" d="M37,0C16.6,0,0,16.6,0,37s16.6,37,37,37s37-16.6,37-37S57.4,0,37,0z M37,72C17.7,72,2,56.3,2,37S17.7,2,37,2
	s35,15.7,35,35S56.3,72,37,72z"/>
<g>
	<path class="st0" d="M40.7,41c-3.2-2.2-6.5-4.6-8.7-8.1c-1.6-2.5-2-4.6-1.3-6.8l1-3.4L29.2,25c-0.2,0.2-0.3,0.3-0.5,0.5
		c-0.2,0.2-0.4,0.3-0.5,0.5c-0.9,0.8-1.8,1.6-2.6,2.5c-2.4,2.7-3.6,5.4-3.3,8c0.2,2.6,1.6,5,4.3,7.2c1.6,1.4,3.4,2.4,4.9,3.3
		c0.4,0.2,0.8,0.5,1.2,0.8c0.4,0.3,0.8,0.5,1.2,0.8l0.9,0.6c1.5,0.9,2.9,1.9,4.2,3c-0.8-0.6-1.7-1.1-2.8-1.6
		c-0.9-0.4-1.8-0.8-2.8-1.2L32.5,49c-1.1-0.4-2.1-0.8-3.1-1.4c-1.1-0.6-2.2-1.5-3.2-2.4c-0.2-0.1-0.3-0.3-0.5-0.4
		c-0.2-0.1-0.3-0.3-0.5-0.4l-0.8-0.7L24,44.5c-1.3,1.7-1.8,3.8-1.3,5.6c0.5,1.9,1.9,3.4,4.1,4.3c0.9,0.4,1.8,0.6,2.7,0.8l0.7,0.1
		c0.3,0,0.6,0.1,0.8,0.2c0.3,0.1,0.6,0.1,0.8,0.2c3.3,0.8,6.6,1.6,9.8,2.4l1.4,0.3l0,0.1l0.1-0.1l0.1,0l0-0.1l0.9-1.5
		C47.7,51,46.4,44.9,40.7,41z M35.8,47.7l-0.9-0.6c-0.6-0.4-1.2-0.8-1.8-1.2l-0.7-0.4c-2-1.2-3.4-2.2-4.6-3.2
		c-2.3-1.9-3.5-3.9-3.6-5.9C24,34.3,25,32.1,27,29.8c0.5-0.6,1-1,1.5-1.5c0,2.4,1.1,4.4,1.9,5.7c2.4,3.8,5.9,6.4,9.3,8.7
		c4.3,2.9,5.6,7.2,3.7,11.9C41.5,51.3,38.5,49.4,35.8,47.7z M24.9,46.8l0.1,0.1c1,0.9,2.1,1.8,3.4,2.5c1.2,0.6,2.4,1.1,3.6,1.6
		l0.6,0.2c0.8,0.3,1.8,0.7,2.7,1.1c2.4,1.2,3.9,2.3,4.8,3.7c-2.5-0.5-5.2-1.2-7.8-1.8c-0.3-0.1-0.6-0.2-1-0.2
		c-0.3-0.1-0.5-0.1-0.8-0.2c-0.3-0.1-0.6-0.1-0.8-0.2c-0.8-0.2-1.6-0.3-2.3-0.6c-1.5-0.6-2.6-1.7-3-3.1c-0.3-1-0.2-2.1,0.4-3.2
		L24.9,46.8z"/>
	<path class="st0" d="M49,35.5c-0.2-0.3-0.4-0.5-0.7-0.8c-0.4-0.5-0.8-0.9-1.2-1.3c-0.9-0.9-1.7-2-2.6-3c-3.7-4.6-4.4-8.3-2.5-12.4
		l1.1-2.5l-2.4,1.2c-2,1-3.6,1.9-5,3.1c-2.7,2.1-4.1,4.5-4.4,7.1c-0.2,2.5,0.7,5,2.8,7.5c1.9,2.2,4.3,4.1,6.4,5.8l0.4,0.3
		c2.8,2.1,5.4,4.7,5.7,9.2l0.2,2.3l1.5-1.7C52.7,45.5,52.9,40.1,49,35.5z M39.4,19.5c-1.3,5.1,1.5,9.3,3.6,11.9c0.9,1,1.8,2.1,2.6,3
		l1.8,2.1c2.8,3.5,3.1,7.2,0.8,10.8c-1-4-3.8-6.5-6.1-8.2l-0.5-0.4l-0.9-0.8c-1.9-1.5-3.8-3.1-5.3-4.8c-1.7-2-2.5-4.1-2.4-6.1
		c0.2-2,1.4-4,3.7-5.8C37.7,20.5,38.5,20,39.4,19.5z"/>
</g>
</svg>
