<?xml version="1.0" encoding="utf-8"?>
<!-- Generator: Adobe Illustrator 21.0.2, SVG Export Plug-In . SVG Version: 6.00 Build 0)  -->
<svg version="1.1" id="Layer_1" xmlns="http://www.w3.org/2000/svg" xmlns:xlink="http://www.w3.org/1999/xlink" x="0px" y="0px"
	 viewBox="0 0 74 74" style="enable-background:new 0 0 74 74;" xml:space="preserve">
<style type="text/css">
	.st0{fill:none;stroke:#006FAF;stroke-width:2;stroke-miterlimit:10;}
	.st1{fill:#006FAF;}
	.st2{fill:none;}
	.st3{fill-rule:evenodd;clip-rule:evenodd;fill:none;stroke:#006FAF;stroke-width:2;stroke-miterlimit:10;}
	.st4{fill:#006FAF;stroke:#006FAF;stroke-miterlimit:10;}
	.st5{fill:#FFFFFF;}
</style>
<circle class="st3" cx="37" cy="37" r="36"/>
<g>
	<g>
		<path class="st1" d="M22.4,41v-7.8h-1.2v7.9c0,1.9,1.2,2.8,2.9,2.7v-1.1C23.2,42.6,22.4,42.3,22.4,41L22.4,41z M27.7,42.8
			c-1.3,0-2.4-1.2-2.4-2.7s1.1-2.7,2.4-2.7c1.3,0,2.4,1.2,2.4,2.7C30.1,41.6,29,42.8,27.7,42.8L27.7,42.8z M27.7,36.3
			c-2,0-3.6,1.7-3.6,3.8c0,2.1,1.6,3.8,3.6,3.8s3.6-1.7,3.6-3.8C31.3,38,29.7,36.3,27.7,36.3L27.7,36.3z M45.7,36.5H44l-3.3,3.3
			v-6.5h-1.2v10.5h1.2v-2.4l1.4-1.3l2.4,3.7H46l-3.1-4.6L45.7,36.5L45.7,36.5z M46.4,39.3c0.3-1.3,1.3-2,2.4-2c1,0,2,0.8,2.4,2H46.4
			L46.4,39.3L46.4,39.3z M48.8,36.3c-2,0-3.6,1.7-3.6,3.8c0,2.1,1.6,3.8,3.7,3.8c1.6,0,2.9-0.9,3.4-2.4H51c-0.4,0.9-1.1,1.3-2.1,1.3
			c-1.2,0-2.4-0.9-2.5-2.4h6.1C52.5,37.8,50.7,36.3,48.8,36.3L48.8,36.3z M54.2,37.3v-0.8H53v7.3h1.2v-4.2c0-1.5,1.1-2.1,2.4-2v-1.2
			C55.7,36.2,54.8,36.5,54.2,37.3L54.2,37.3z"/>
		<path class="st1" d="M35.3,36.3c-0.5,0-1,0.2-1.5,0.3l0.8,0.9c0.2-0.1,0.5-0.2,0.7-0.2c1.3,0,2.4,1.2,2.4,2.7s-1.1,2.7-2.4,2.7
			c-1.3,0-2.4-1.2-2.4-2.7c0-0.9,0.4-1.6,1-2.2l-0.8-0.9c-0.9,0.7-1.5,1.8-1.5,3.1c0,2.1,1.6,3.8,3.6,3.8s3.6-1.7,3.6-3.8
			C38.9,38,37.3,36.3,35.3,36.3L35.3,36.3z M33.3,34.9c0,0.3-0.2,0.5-0.3,0.8l0.5,0.6c0.4-0.3,0.6-0.9,0.6-1.4
			c0-0.4-0.2-0.8-0.4-1.1l-0.6,0.5C33.2,34.5,33.3,34.8,33.3,34.9L33.3,34.9z M32.2,36c-0.5,0-1-0.5-1-1c0-0.5,0.5-1,1-1
			c0.2,0,0.4,0.1,0.5,0.2l0.6-0.5c-0.3-0.2-0.7-0.5-1.2-0.5c-1,0-1.9,0.9-1.9,1.9c0,1,0.9,1.9,1.9,1.9c0.2,0,0.5-0.1,0.7-0.2
			L32.4,36C32.3,36,32.2,36,32.2,36L32.2,36z M35.5,31.5c0.5,0,0.8,0.4,0.8,0.8c0,0.5-0.3,0.8-0.8,0.8c-0.2,0-0.4-0.1-0.5-0.2
			l-0.5,0.4c0.2,0.3,0.6,0.5,1,0.5c0.8,0,1.4-0.6,1.4-1.4c0-0.8-0.6-1.4-1.4-1.4c-0.5,0-0.9,0.2-1.1,0.5l0.6,0.2
			C35.1,31.5,35.3,31.5,35.5,31.5L35.5,31.5z M34.7,32.2c0-0.2,0-0.2,0.1-0.4l-0.5-0.2C34.1,31.8,34,32,34,32.2s0.1,0.5,0.2,0.6
			l0.5-0.4C34.7,32.5,34.7,32.4,34.7,32.2L34.7,32.2z M32.5,32c0.4,0,0.7-0.2,0.9-0.6L33,31.2c-0.1,0.2-0.2,0.4-0.5,0.4
			c-0.3,0-0.5-0.2-0.5-0.5c0-0.3,0.2-0.5,0.5-0.5s0.5,0.2,0.5,0.5l0.4,0.2c0-0.1,0-0.1,0-0.2c0-0.5-0.4-0.9-0.9-0.9
			c-0.5,0-0.9,0.4-0.9,0.9S32,32,32.5,32L32.5,32z"/>
	</g>
	<g>
		<path class="st1" d="M19.6,32.7c0,0.7-0.5,1.1-1.1,1.1c-0.6,0-1.1-0.5-1.1-1.1c0-0.7,0.5-1.1,1.1-1.1C19.1,31.5,19.6,32,19.6,32.7
			z M17.6,43.9v-8.7h1.9v8.7H17.6z"/>
	</g>
</g>
</svg>
