<?xml version="1.0" encoding="utf-8"?>
<!-- Generator: Adobe Illustrator 21.0.2, SVG Export Plug-In . SVG Version: 6.00 Build 0)  -->
<svg version="1.1" id="Layer_1" xmlns="http://www.w3.org/2000/svg" xmlns:xlink="http://www.w3.org/1999/xlink" x="0px" y="0px"
	 viewBox="0 0 74 74" style="enable-background:new 0 0 74 74;" xml:space="preserve">
<style type="text/css">
	.st0{fill:none;stroke:#006FAF;stroke-width:2;stroke-miterlimit:10;}
	.st1{fill:#006FAF;}
</style>
<title>Cloud &amp;amp; Infrastructure Services</title>
<circle class="st0" cx="37" cy="37" r="36"/>
<g>
	<path class="st1" d="M56.2,41.7c-0.5-0.2-5.7-1.9-6.3-2.1c-0.6-0.2-1-0.3-1.4-0.2c-0.4,0-0.7,0.2-0.7,0.2c0.3-0.9,0.4-1.8,0.4-2.8
		c-0.3-5.8-7.4-10.5-15.7-10.2c-8.2,0.4-15,5.1-14.1,11.5c0.1,0.4,0.1,0.7,0.2,1c0,0-0.6,0.3-0.9,0.5s-0.3,0.5,0.1,0.8
		c0.3,0.2,1.8,0.8,1.8,0.8c2.5,4.1,8.5,6.6,15.2,6.3c5.1-0.2,9.8-2.5,12-6c0,0,1-0.5,1.4-0.7s0.7-0.3,1.1-0.2
		c0.4,0.1,6.3,1.5,6.7,1.6C56.6,42.4,56.7,41.8,56.2,41.7z M33.4,45.1c-6.2-0.1-9.4-1.9-11-3.1c2.9,0.5,5.8,0.4,6.3,0.2
		c0.1,0,0.1-0.1,0.1-0.2c-0.1-0.1-0.5-0.6-0.7-0.7c-0.1-0.1-0.3-0.1-0.4-0.1s-1.9,0.2-3.6,0c-1.1-0.1-1.6-0.2-2.3-0.5
		c-0.7-0.2-1.3-0.6-1.4-0.6c-0.1-0.1-0.1-0.1,0.1-0.2c0.1,0,1.1-0.3,1.9-0.4c1-0.1,1.8,0.1,1.9,0.1c1.3,0.6,1.3,0.6,2.2,0.9
		c0.9,0.2,1.6,0.5,2.7,0.3c1.1-0.1,2-0.3,2.6-0.6c0.6-0.2,2.8-1,4.6-1.1c2.6-0.2,3.6,0,5.6,1c0.5,0.3,1.8,1.3,2.6,1.4
		C42.1,44,37,45.1,33.4,45.1z M46.3,39.8c-0.8,0.1-2.1-0.5-2.4-2.3c0.7-0.4,1.3-1.6,1.3-1.8c0.1-0.2,0-0.4-0.2-0.2
		c-0.3,0.3-1.5,0.6-2.4,0.7c-0.9-0.7-2.2-0.7-3.1-0.5c-1,0.2-5.1,1.3-7.1,1.3c-1,0-2-0.1-2.9-0.4c-1.6-0.4-2.2-2.5,0.9-3.5
		c1.2-0.4,2.9-0.7,5.4-0.5c3.5,0.2,6.3,1.5,7.2,2.2c0.2,0.2,0.4,0,0.2-0.2c-1-1-3.4-2.6-7.7-3.1c-4.7-0.5-9.1,0.8-10.9,1.7
		c-0.4,0.2-1,0.6-1.2,0.7c-0.1,0.1-0.3,0.4,0.1,0.4c0.9,0,2.2-0.2,2.5-0.3s0.4,0.1,0.2,0.2c-1,0.4-2.1,1-2.7,1.5
		C23.1,36,22,36.6,21.6,38c0,0.1-0.1,0.1-0.1,0.1c-0.1,0-1.4,0.3-2,0.6c0,0-0.5-1.3-0.3-2.4c0.3-1.4,1.4-5.9,10.8-7.2
		c6.8-1,11.2,1.3,13.1,2.3c1.9,1.1,3.5,2.8,3.8,4.6C47.3,37.8,46.9,38.7,46.3,39.8z"/>
</g>
</svg>
