<?xml version="1.0" encoding="utf-8"?>
<!-- Generator: Adobe Illustrator 21.0.2, SVG Export Plug-In . SVG Version: 6.00 Build 0)  -->
<svg version="1.1" id="Layer_1" xmlns="http://www.w3.org/2000/svg" xmlns:xlink="http://www.w3.org/1999/xlink" x="0px" y="0px"
	 viewBox="0 0 74 74" style="enable-background:new 0 0 74 74;" xml:space="preserve">
<style type="text/css">
	.st0{fill:none;stroke:#006FAF;stroke-width:2;stroke-miterlimit:10;}
	.st1{fill:#006FAF;}
</style>
<title>Cloud &amp;amp; Infrastructure Services</title>
<circle class="st0" cx="37" cy="37" r="36"/>
<g>
	<path class="st1" d="M55.4,36.1c0,0-0.1,0-0.1,0c-0.2,0.2-0.2,0.4-0.2,0.6c-0.6,4.3-2.5,7.9-5.9,10.7c-3.4,2.8-7.4,4.1-11.7,4.2
		c-1.9,0-3.8-0.3-5.7-0.9c-4.4-1.3-7.7-3.9-9.5-8.2c-0.9-2.1-1.4-4.3-1.2-6.6c0.3-3.6,1.9-6.5,4.6-8.7c3.3-2.7,7.1-3.6,11.3-2.8
		c2.6,0.5,4.9,1.6,6.6,3.7c1.6,1.9,2.7,5.1,2.1,7.9c0-0.1,0-0.3,0-0.4c-0.3-2.4-1.3-4.5-3-6.2c-2.7-2.6-5.9-3.7-9.6-3.2
		c-4.4,0.6-7.4,3.3-9,7.3c-0.6,1.5-0.8,3-0.7,4.6c0.1,3.2,1.3,5.8,3.5,8c1.4,1.4,3.2,2.4,5.2,3c2,0.6,4.2,0.7,6.3,0.5
		c4.2-0.5,7.7-2.4,10.3-5.8c2.2-2.8,3.2-6.1,3-9.7c-0.2-2.8-1.1-5.2-2.7-7.4c-2-2.6-4.6-4.3-7.6-5.5c-1.3-0.5-2.7-0.8-4.1-0.9
		c-1.2,0-2.4,0-3.6,0c-0.5,0.1-1.1,0.1-1.6,0.2c-3.4,0.7-6.4,2.3-8.9,4.7c-2.1,2.1-3.5,4.6-4.3,7.6c-0.4,1.4-0.3,2.9-0.3,4.3
		c0,1.5,0.3,2.9,0.8,4.3c1,2.8,2.6,5.3,4.8,7.3c2.4,2.2,5.2,3.7,8.4,4.4c1.7,0.4,3.4,0.4,5.1,0.4c2.8,0,5.4-0.7,7.9-1.9
		c3.1-1.6,5.6-3.8,7.4-6.8c1.5-2.5,2.4-5.3,2.5-8.2C55.5,36.5,55.5,36.3,55.4,36.1z M41.1,42.4c0,0.9-0.5,1.4-1.1,1.9
		c-0.9,0.7-2,1-3.1,1.1c-1.7,0.2-3.4,0-4.9-0.8c-1.1-0.6-1.7-1.5-1.7-2.8c0.1-2.4,0-4.9,0-7.3c0-1.2,0.5-2.1,1.5-2.8
		c2.2-1.5,6-1.4,8.2,0.2c0.8,0.6,1.3,1.4,1.2,2.4c0,1.3,0,2.6,0,3.9c0,0,0,0,0,0C41.1,39.6,41.1,41,41.1,42.4z"/>
	<path class="st1" d="M39.1,36.7c-2.3,1-4.7,1-7,0c0,1.6,0,3.1,0,4.6c0,0.7,0.3,1.2,0.8,1.5c0.7,0.5,1.5,0.7,2.3,0.7
		c1.1,0.1,2.1-0.1,3-0.7c0.5-0.3,0.9-0.7,0.9-1.4c0-1.4,0-2.8,0-4.1C39.2,37.1,39.2,36.9,39.1,36.7z"/>
	<path class="st1" d="M38.7,32.8c-1.4-1.1-4.4-1.2-6-0.1c-1,0.7-1,1.8,0,2.5c0.9,0.6,1.9,0.8,2.9,0.8c1.2,0,2.3-0.3,3-0.9
		C39.6,34.5,39.6,33.5,38.7,32.8z"/>
</g>
</svg>
