<svg id="Layer_1" data-name="Layer 1" xmlns="http://www.w3.org/2000/svg" viewBox="0 0 74 74"><defs><style>.cls-1{fill:none;stroke:#006faf;stroke-miterlimit:10;stroke-width:2px;}.cls-2{fill:#006faf;}</style></defs><title>In-memory_tabular_(relational)_data_modeling</title><circle class="cls-1" cx="37" cy="37" r="36"/><path class="cls-2" d="M35.52,43.94v-.25a2.55,2.55,0,0,1,.13-.82H34.6V39.16h.92V38.09H34.6v-4h8v.46H43.7v-.46h8.24v.46H53V24.42a1.25,1.25,0,0,0-1.25-1.25H20.83a1.25,1.25,0,0,0-1.25,1.25V51.77a1.25,1.25,0,0,0,.53,1V53h.45a1.24,1.24,0,0,0,.27,0H35.52v-1.1H34.6V48.53h1a2.48,2.48,0,0,1,0-.39v-.68H34.6V43.94h.92ZM43.7,24.24h8.06a.18.18,0,0,1,.18.18V28H43.7Zm0,4.85h8.24V33H43.7Zm-9.1-4.85h8V28h-8Zm0,4.85h8V33h-8ZM24.52,51.92H20.74a.18.18,0,0,1-.09-.15V48.53h3.87Zm0-4.46H20.65V43.94h3.87Zm0-4.58H20.65V39.16h3.87Zm0-4.78H20.65v-4h3.87Zm0-5.08H20.65V29.08h3.87Zm9,18.91H25.59V48.53h7.94v3.39Zm0-4.46H25.59V43.94h7.94v3.51Zm0-4.58H25.59V39.16h7.94v3.71Zm0-4.78H25.59v-4h7.94v4h0Zm0-5.08H25.59V29.08h7.94V33Zm0-5H25.59V24.24h7.94V28Zm1.86,1.77h6.42V32H35.39V29.78Zm17.31,5.8H37.62a.49.49,0,0,0-.49.49v4.45a.49.49,0,0,0,.49.49H52.69a.49.49,0,0,0,.49-.49V36.07A.49.49,0,0,0,52.69,35.58Zm-7.53,3.88H38.72V36.89h6.43Zm7.53,2.69H37.62a.49.49,0,0,0-.49.49V47.1a.49.49,0,0,0,.49.49H52.69a.49.49,0,0,0,.49-.49V42.64A.49.49,0,0,0,52.69,42.15ZM45.16,46H38.72V43.39h6.43Zm7.53,2.7H37.62a.49.49,0,0,0-.49.49V53.6a.49.49,0,0,0,.49.49H52.69a.49.49,0,0,0,.49-.49V49.15A.49.49,0,0,0,52.69,48.66Zm-7.53,4H38.72V50.09h6.43Z"/></svg>