<svg id="Layer_1" data-name="Layer 1" xmlns="http://www.w3.org/2000/svg" width="74" height="74" viewBox="0 0 74 74">
  <defs>
    <style>
      .cls-1 {
        fill: none;
        stroke: #006faf;
        stroke-miterlimit: 10;
        stroke-width: 2px;
      }

      .cls-2 {
        fill: #006faf;
      }
    </style>
  </defs>
  <title>invision</title>
  <circle class="cls-1" cx="37" cy="37" r="36"/>
  <path class="cls-2" d="M50.51,20.5h-27a3,3,0,0,0-3,3v27a3,3,0,0,0,3,3h27a3,3,0,0,0,3-3v-27A3,3,0,0,0,50.51,20.5Zm-19,6.41a2,2,0,1,1-2,2A2,2,0,0,1,31.53,26.91ZM45,45.91A2.71,2.71,0,0,1,42,43a5.26,5.26,0,0,1,.21-1.48l1-3.5A3.55,3.55,0,0,0,43.33,37a1.66,1.66,0,0,0-1.78-1.81c-1.39,0-2.31,1-2.79,2.93l-1.9,7.61H33.54l.6-2.39a4.72,4.72,0,0,1-4,2.6,2.66,2.66,0,0,1-3-2.91,6.82,6.82,0,0,1,.18-1.49h0l1.51-6.18H26.52l.71-2.63h5.63l-2.22,8.82a5.59,5.59,0,0,0-.21,1.36c0,.56.28.73.71.83.26.06,2.37,0,3.52-2.53l1.46-5.85H33.75l.71-2.63h5.07l-.65,3c.89-1.66,2.67-3.24,4.42-3.24s3.41,1.33,3.41,3.88a7.52,7.52,0,0,1-.33,2.16l-.95,3.41a3.93,3.93,0,0,0-.15.92c0,.59.24.89.68.89s1-.33,1.66-2.13l1.3.5C48.16,44.79,46.76,45.91,45,45.91Z"/>
</svg>
