<?xml version="1.0" encoding="utf-8"?>
<!-- Generator: Adobe Illustrator 21.0.2, SVG Export Plug-In . SVG Version: 6.00 Build 0)  -->
<svg version="1.1" id="Layer_1" xmlns="http://www.w3.org/2000/svg" xmlns:xlink="http://www.w3.org/1999/xlink" x="0px" y="0px"
	 viewBox="0 0 74 74" style="enable-background:new 0 0 74 74;" xml:space="preserve">
<style type="text/css">
	.st0{fill:none;stroke:#006FAF;stroke-width:2;stroke-miterlimit:10;}
	.st1{fill:#006FAF;}
</style>
<circle class="st0" cx="37" cy="37" r="36"/>
<g>
	<path class="st1" d="M54.5,33.8c-0.4-2.5-3.3-4.9-5.8-4.8c-2.1,0.1-3.8-0.6-5.5-1.8c-3-2.1-6.2-3.9-9.9-4.6c-1-0.2-2.4-0.6-2.9,0.3
		c-0.6,1.2,0.7,2,1.5,2.7c2.5,2.1,5.6,3,8.8,3.3c1.7,0.2,3.2,0.5,4.5,1.7c-3.5,2.9-6.5,2.9-10.9,0.1c-5.3-3.4-8.2-3.4-13,0
		c0.1-1,0.1-1.7,0.2-2.6c-3.9,3.1-1.1,6.9-1.5,10.4c-0.1,0.4,0.5,1,0.8,1.4c1.4,1.8,2.7,3.6,4.3,5.2c1.2,1.3,1.9,4.6,4.7,1.6
		c0.2-0.2,1.3,0.3,1.4-0.6c0.2-1-0.6-1.5-1.4-1.9c-1.1-0.6-2.4-0.7-3-1.8c3.4-1.7,6.6-0.7,9.9,0.2c-0.9,1.7-2.4,2.7-3.7,3.8
		c-1,0.9-2.3,1.7-2.9,3.1c-0.4,0.9-0.2,1.5,1,1c0.2-0.1,0.4-0.6,0.6,0C31.6,52.2,32.5,52,33,51c1.7-3,4.7-4.7,7.1-6.9
		c1.2-1.2,2.4-2.3,3.4-3.7c1.8-2.7,3.6-5.3,7.6-4C52.6,36.6,54.8,36.3,54.5,33.8z M50.3,32.7c-0.6-0.2-1.2-0.6-1-1.4
		c0.1-0.5,0.5-0.7,1-0.6c0.7,0.1,1.1,0.5,1.2,1.3C51.3,32.5,50.8,32.9,50.3,32.7z"/>
</g>
</svg>
