<?xml version="1.0" encoding="utf-8"?>
<!-- Generator: Adobe Illustrator 21.0.2, SVG Export Plug-In . SVG Version: 6.00 Build 0)  -->
<svg version="1.1" id="Layer_1" xmlns="http://www.w3.org/2000/svg" xmlns:xlink="http://www.w3.org/1999/xlink" x="0px" y="0px"
	 viewBox="0 0 74 74" style="enable-background:new 0 0 74 74;" xml:space="preserve">
<style type="text/css">
	.st0{fill:#006FAF;}
</style>
<title>digital-transformation</title>
<path class="st0" d="M37,74C16.6,74,0,57.4,0,37C0,16.6,16.6,0,37,0c20.4,0,37,16.6,37,37C74,57.4,57.4,74,37,74z M37,2
	C17.7,2,2,17.7,2,37s15.7,35,35,35s35-15.7,35-35S56.3,2,37,2z"/>
<g id="Layer_1_3_">
	<g id="Layer_1_1_">
	</g>
	<g id="Layer_1_2_">
	</g>
</g>
<g>
	<g>
		<path class="st0" d="M36.3,40.8c-2.3,0-13.4-0.2-13.4-3s11.1-3,13.4-3c0.5,0,0.9,0.4,0.9,0.9c0,0.3-0.3,0.9-0.9,0.9
			c-6.6,0-10.5,0.9-11.6,1.5c1,0.5,5,1.5,11.6,1.5c7.2,0,11.3-1,11.8-1.6c0-0.4,0.3-0.8,0.8-0.8s0.9,0.3,0.9,0.9
			C49.7,40.6,38.6,40.8,36.3,40.8z"/>
	</g>
	<g>
		<path class="st0" d="M36.3,44.7c-2.7,0-11.6-0.2-11.6-2.6c0-0.4,0.4-0.9,0.9-0.9c0.4,0,0.8,0.4,0.8,0.5c0.5,0.5,3.9,1.5,10,1.5
			s9.5-0.9,10-1.5c0.2-0.3,0.3-0.5,0.8-0.5s0.9,0.4,0.9,0.9C47.9,44.5,39,44.7,36.3,44.7z"/>
	</g>
	<g>
		<path class="st0" d="M36.3,48.6c-2.8,0-9.5-0.2-9.5-2.3c0-0.3,0.4-0.9,0.9-0.9c0.4,0,0.8,0.2,0.8,0.5c0.5,0.3,3.4,0.9,7.9,0.9
			c4.7,0,7.3-0.5,8-0.9c0.2-0.3,0.5-0.5,0.8-0.5c0.5,0,0.9,0.3,0.9,0.9C45.8,48.3,39.2,48.6,36.3,48.6z"/>
	</g>
	<g>
		<path class="st0" d="M36.3,51.8c-3.4,0-7.5-0.3-7.5-2c0-0.3,0.4-0.9,0.9-0.9c0.4,0,0.5,0.2,0.8,0.5c0.5,0.2,2.5,0.8,5.9,0.8
			c3.4,0,5.3-0.5,5.9-0.8c0.2-0.3,0.5-0.5,0.8-0.5s0.9,0.3,0.9,0.9C43.8,51.6,39.7,51.8,36.3,51.8z"/>
	</g>
	<g>
		<path class="st0" d="M36.3,56.1c-1.8,0-16.8-0.2-16.8-3.8c0-0.9,0.8-2.2,5.9-2.8h0.8l0.4,1.6h-0.8c-3.2,0.5-4.1,1-4.5,1.5
			c0.9,0.8,5.9,2,15.2,2s14.3-1.3,15.2-2c-0.2-0.2-1.3-0.9-4.5-1.5h-0.8l0.2-1.6l0.8,0.2c5.2,0.8,5.9,2,5.9,2.8
			C53,56.1,38,56.1,36.3,56.1z"/>
	</g>
	<g>
		<path class="st0" d="M50.6,44.7c-0.5,0-0.8-0.3-0.8-0.9c0-0.4,0.3-0.8,0.8-0.8c1.3,0,2.3-1,2.3-2.3s-0.9-2.3-2.3-2.3H49
			c-0.5,0-0.9-0.4-0.9-0.9s0.3-0.9,0.9-0.9h1.6c2.2,0,3.9,1.8,3.9,3.9C54.5,42.9,52.9,44.7,50.6,44.7z"/>
	</g>
	<g>
		<g>
			<path class="st0" d="M36.3,27.9c-0.2,0-0.3,0-0.5-0.2c-1.2-1.3-2-3-2-4.8s0.8-3.4,2-4.6c0.3-0.4,0.9-0.4,1,0c0.3,0.3,0.3,0.8,0,1
				c-0.9,1-1.5,2.3-1.5,3.6c0,1.4,0.5,2.6,1.5,3.6c0.3,0.4,0.3,0.9,0,1.3C36.8,27.7,36.5,27.9,36.3,27.9z"/>
		</g>
		<g>
			<path class="st0" d="M36.3,36.3c-0.2,0-0.3,0-0.5-0.2c-0.3-0.3-0.3-0.9,0-1c2-2,2-5.2,0-7.1c-0.3-0.4-0.3-0.9,0-1.3
				s0.9-0.4,1-0.2c2.7,2.7,2.7,7,0,9.5C36.8,36.1,36.5,36.3,36.3,36.3z"/>
		</g>
	</g>
	<g>
		<g>
			<path class="st0" d="M42,28.8c-0.2,0-0.3,0-0.5-0.2c-1-0.9-1.6-2.3-1.6-3.8s0.5-2.6,1.6-3.8c0.3-0.4,0.9-0.4,1,0
				c0.3,0.4,0.3,0.9,0,1.3c-0.8,0.8-1,1.6-1,2.5c0,1,0.3,2,1,2.6c0.3,0.4,0.3,0.9,0,1C42.5,28.8,42.3,28.8,42,28.8z"/>
		</g>
		<g>
			<path class="st0" d="M42,35c-0.2,0-0.3,0-0.5-0.2c-0.3-0.3-0.3-0.9,0-1.3c1.5-1.5,1.5-3.8,0-5.2c-0.3-0.4-0.3-0.9,0-1.1
				c0.3-0.4,0.9-0.4,1,0c2.2,2,2.2,5.3,0,7.3C42.5,35,42.3,35,42,35z"/>
		</g>
	</g>
	<g>
		<g>
			<path class="st0" d="M45.8,36.8c-0.2,0-0.3,0-0.5-0.2c-0.3-0.3-0.3-0.8,0-1c2.7-2.6,2.7-6.9,0-9.6c-0.3-0.4-0.3-0.9,0-1.1
				c0.3-0.4,0.9-0.4,1,0c3.4,3.2,3.4,8.6,0,11.8C46.3,36.6,46.1,36.8,45.8,36.8z"/>
		</g>
	</g>
</g>
</svg>
