<?xml version="1.0" encoding="UTF-8"?>
<!-- Generator: Adobe Illustrator 21.0.2, SVG Export Plug-In . SVG Version: 6.00 Build 0)  -->
<svg version="1.1" id="Layer_1" xmlns="http://www.w3.org/2000/svg" xmlns:xlink="http://www.w3.org/1999/xlink" x="0px" y="0px" viewBox="0 0 74 74" style="enable-background:new 0 0 74 74;" xml:space="preserve">
<style type="text/css">
	.st0{fill:none;stroke:#006FAF;stroke-width:2;stroke-miterlimit:10;}
	.st1{fill:#006FAF;}
</style>
<title>Cloud &amp;amp; Infrastructure Services</title>
<circle class="st0" cx="37" cy="37" r="36"/>
<g>
	<path class="st1" d="M37,53.3c-0.4,0-0.9-0.1-1.3-0.3l-4-2.4c-0.6-0.3-0.3-0.5-0.1-0.5c0.8-0.3,1-0.3,1.8-0.8c0.1-0.1,0.2,0,0.3,0   l3.1,1.8c0.1,0.1,0.3,0.1,0.4,0l12-6.9c0.1-0.1,0.2-0.2,0.2-0.3V30.1c0-0.1-0.1-0.3-0.2-0.3l-12-6.9c-0.1-0.1-0.3-0.1-0.4,0   l-12,6.9c-0.1,0.1-0.2,0.2-0.2,0.3v13.8c0,0.1,0.1,0.3,0.2,0.3l3.3,1.9C29.9,47,31,46,31,44.9V31.3c0-0.2,0.2-0.3,0.4-0.3h1.5   c0.2,0,0.3,0.2,0.3,0.3v13.6c0,2.4-1.3,3.7-3.5,3.7c-0.7,0-1.2,0-2.8-0.8L23.8,46c-0.8-0.5-1.3-1.3-1.3-2.2V30.1   c0-0.9,0.5-1.7,1.3-2.2l12-6.9c0.8-0.4,1.8-0.4,2.5,0l12,6.9c0.8,0.5,1.3,1.3,1.3,2.2v13.8c0,0.9-0.5,1.7-1.3,2.2l-12,6.9   C37.9,53.2,37.5,53.3,37,53.3z"/>
	<path class="st1" d="M40.7,43.8c-5.2,0-6.3-2.4-6.3-4.4c0-0.2,0.2-0.3,0.3-0.3h1.5c0.2,0,0.3,0.1,0.3,0.3c0.2,1.6,0.9,2.4,4.1,2.4   c2.5,0,3.6-0.6,3.6-1.9c0-0.8-0.3-1.3-4.2-1.7c-3.3-0.3-5.3-1-5.3-3.7c0-2.4,2-3.9,5.5-3.9c3.8,0,5.7,1.3,6,4.2   c0,0.1,0,0.2-0.1,0.3s-0.2,0.1-0.3,0.1h-1.6c-0.2,0-0.3-0.1-0.3-0.3c-0.4-1.7-1.3-2.2-3.7-2.2c-2.7,0-3.1,1-3.1,1.7   c0,0.9,0.4,1.1,4.1,1.6c3.7,0.5,5.4,1.2,5.4,3.8C46.7,42.3,44.5,43.8,40.7,43.8z"/>
</g>
</svg>