<?xml version="1.0" encoding="utf-8"?>
<!-- Generator: Adobe Illustrator 21.0.2, SVG Export Plug-In . SVG Version: 6.00 Build 0)  -->
<svg version="1.1" id="Layer_1" xmlns="http://www.w3.org/2000/svg" xmlns:xlink="http://www.w3.org/1999/xlink" x="0px" y="0px"
	 viewBox="0 0 74 74" style="enable-background:new 0 0 74 74;" xml:space="preserve">
<style type="text/css">
	.st0{fill:#006FAF;}
</style>
<title>deliver-contemporary-immersive-software-solutions</title>
<path class="st0" d="M37,74C16.6,74,0,57.4,0,37S16.6,0,37,0s37,16.6,37,37S57.4,74,37,74z M37,2C17.7,2,2,17.7,2,37s15.7,35,35,35
	s35-15.7,35-35S56.3,2,37,2z"/>
<g>
	<path class="st0" d="M23.6,33.2v7.1c0,0.9-0.1,1.6-0.2,2S23,43,22.7,43.2c-0.3,0.2-0.8,0.3-1.3,0.3c-0.2,0-0.4,0-0.6-0.1
		c-0.2,0-0.5-0.1-0.7-0.2l0.3-1.7c0.1,0,0.2,0,0.3,0s0.2,0,0.2,0c0.2,0,0.4,0,0.5-0.1s0.2-0.2,0.3-0.3c0-0.1,0.1-0.5,0.1-1.1v-7h1.8
		V33.2z M21.6,32.2v-1.8h2v1.8H21.6z"/>
	<path class="st0" d="M25.3,30.4h4.1c0.8,0,1.4,0,1.8,0.1s0.7,0.2,1.1,0.4c0.3,0.2,0.6,0.5,0.8,0.9c0.2,0.4,0.3,0.8,0.3,1.2
		c0,0.5-0.1,0.9-0.4,1.3s-0.6,0.7-1,0.9c0.6,0.2,1.1,0.5,1.4,0.9c0.3,0.4,0.5,0.9,0.5,1.5c0,0.5-0.1,0.9-0.3,1.4
		c-0.2,0.4-0.5,0.8-0.9,1s-0.8,0.4-1.4,0.5c-0.3,0-1.2,0.1-2.5,0.1h-3.5C25.3,40.6,25.3,30.4,25.3,30.4z M27.3,32.1v2.4h1.3
		c0.8,0,1.3,0,1.5,0c0.4,0,0.6-0.2,0.8-0.4c0.2-0.2,0.3-0.5,0.3-0.8s-0.1-0.6-0.3-0.8c-0.2-0.2-0.4-0.3-0.8-0.4c-0.2,0-0.8,0-1.8,0
		H27.3z M27.3,36.2v2.7h1.9c0.7,0,1.2,0,1.4-0.1c0.3-0.1,0.6-0.2,0.7-0.4s0.3-0.5,0.3-0.9c0-0.3-0.1-0.6-0.2-0.8s-0.4-0.4-0.6-0.5
		c-0.3-0.1-0.9-0.1-1.8-0.1L27.3,36.2L27.3,36.2z"/>
	<path class="st0" d="M35.2,40.6V30.4h3.3c1.2,0,2.1,0.1,2.4,0.2c0.6,0.2,1.1,0.5,1.5,1c0.4,0.5,0.6,1.2,0.6,2
		c0,0.6-0.1,1.2-0.3,1.6c-0.2,0.4-0.5,0.8-0.9,1s-0.7,0.4-1.1,0.5c-0.5,0.1-1.2,0.1-2.1,0.1h-1.3v3.8C37.3,40.6,35.2,40.6,35.2,40.6
		z M37.2,32.1V35h1.1c0.8,0,1.4-0.1,1.6-0.2s0.5-0.3,0.6-0.5c0.2-0.2,0.2-0.5,0.2-0.8c0-0.4-0.1-0.7-0.3-0.9s-0.5-0.4-0.8-0.5
		c-0.2,0-0.7-0.1-1.5-0.1h-0.9V32.1z"/>
	<polygon class="st0" points="52,40.6 52,33.9 49.3,37.4 49,37.4 46.7,34.2 46.5,33.9 46.5,40.6 44.4,40.6 44.4,30.5 46.3,30.5 
		49.2,34.4 52.2,30.4 54,30.4 54,40.6 	"/>
</g>
</svg>
