<?xml version="1.0" encoding="utf-8"?>
<!-- Generator: Adobe Illustrator 21.0.2, SVG Export Plug-In . SVG Version: 6.00 Build 0)  -->
<svg version="1.1" id="Layer_1" xmlns="http://www.w3.org/2000/svg" xmlns:xlink="http://www.w3.org/1999/xlink" x="0px" y="0px"
	 viewBox="0 0 74 74" style="enable-background:new 0 0 74 74;" xml:space="preserve">
<style type="text/css">
	.st0{fill:none;stroke:#006FAF;stroke-width:2;stroke-miterlimit:10;}
	.st1{fill:#006FAF;}
</style>
<circle class="st0" cx="37" cy="37" r="36"/>
<g>
	<path class="st1" d="M33,29.9c1.8,0,3.8,0.5,5.4,2.1c1.8,1.8,2,4,1.2,6.3s-2.5,3.6-4.9,4c-2.1,0.3-4.2-0.1-6.3,0
		c-0.2,0-0.4,0-0.5-0.2c0-0.2,0.2-0.3,0.3-0.4c0.7-0.3,0.8-0.9,0.8-1.6c0-2.6,0-5.2,0-7.8c0-0.7-0.2-1.2-0.9-1.4
		c-0.2-0.1-0.5-0.1-0.4-0.4s0.3-0.3,0.6-0.3C29.8,30,31.2,30,33,29.9z M30.7,36L30.7,36c0,0.9,0,1.7,0,2.6c0,2.7,0,2.8,2.7,3
		c2.3,0.1,4.3-0.5,4.9-3.6c0.9-4.1-1.9-7.3-6.2-7.1c-1.1,0-1.3,0.3-1.4,1.4C30.7,33.4,30.7,34.7,30.7,36z"/>
	<path class="st1" d="M48.2,30c3.7,0,6.3,2.5,6.3,6.2c0,3.8-2.6,6.4-6.4,6.3c-3.9,0-6.6-2.6-6.6-6.1C41.4,32.8,44.3,30,48.2,30z
		 M43.1,35.6c0,2.4,1,4.3,2.8,5.4c3.1,1.9,6.7,0.1,6.9-3.5c0.1-1.2-0.2-2.4-0.6-3.5c-1-2.3-3.4-3.7-5.5-3.2
		C44.4,31.3,43.1,33,43.1,35.6z"/>
	<path class="st1" d="M23.2,36.1c0-2,0-4,0-6c0-0.9-0.3-1.5-1.3-1.7c-0.3,0-0.8-0.1-0.7-0.5c0-0.4,0.5-0.3,0.8-0.3
		c1.2,0,2.4,0,3.5,0c0.3,0,0.6,0,0.8,0.3c0.2,0.4-0.2,0.5-0.5,0.6c-0.7,0.4-0.7,1-0.7,1.7c0,2.8,0,5.6,0,8.3c0,1.1-0.1,2.2-0.2,3.3
		c-0.2,1.7-1,3.1-2.5,4.1c-0.5,0.4-1.1,0.5-1.8,0.5c-1,0-1.3-0.4-1-1.3c0.2-0.6,0.4-0.8,1-0.4c1.2,0.8,2,0.4,2.3-1.1
		c0.3-1.3,0.2-2.6,0.2-3.9C23.2,38.5,23.2,37.3,23.2,36.1L23.2,36.1z"/>
</g>
</svg>
