<?xml version="1.0" encoding="utf-8"?>
<!-- Generator: Adobe Illustrator 21.0.2, SVG Export Plug-In . SVG Version: 6.00 Build 0)  -->
<svg version="1.1" id="Layer_1" xmlns="http://www.w3.org/2000/svg" xmlns:xlink="http://www.w3.org/1999/xlink" x="0px" y="0px"
	 viewBox="0 0 74 74" style="enable-background:new 0 0 74 74;" xml:space="preserve">
<style type="text/css">
	.st0{fill:none;stroke:#006FAF;stroke-width:2;stroke-miterlimit:10;}
	.st1{fill:#006FAF;}
</style>
<title>jinja2</title>
<circle class="st0" cx="37" cy="37" r="36"/>
<path class="st1" d="M50.5,27.5c-0.5-0.8-0.5-1.8,0-2.7c0-0.3,0-0.7-0.5-0.6c-0.3,0.2-0.8,0.1-1.1,0.3s-1,0.4-1.5,0.6
	c-1,0.4-2,0.7-3,1c-0.5,0.2-1,0.3-1.5,0.4c-0.5,0.1-1,0.2-1.5,0.3C41,27,40.6,27,40.2,27.1c-1.1,0.1-2.3,0.3-3.4,0.4
	c-0.3,0-0.7,0-1,0c-0.6,0.1-1.2,0.1-1.8,0.1c-0.1,0-0.3,0-0.4,0c-0.9,0.1-1.7,0.1-2.6,0.1c-0.2,0-0.4,0-0.6,0
	c-0.8,0.1-1.7,0.1-2.5,0c-0.4-0.1-0.8-0.1-1.2-0.2c-0.6-0.2-1.2-0.3-1.9-0.5c-0.3-0.1-0.6-0.2-0.8,0.2c0.2,0.6,0,1.4-0.5,1.8
	c0,0-0.1,0.1-0.1,0.1v0.2c0.1,0.5,0.4,0.6,0.9,0.6c0.8,0,1.4,0.5,1.8,1.1c0.3,0.7,1,1.1,1.7,1h0.3c0.4,0,0.7,0,1,0
	c0.3,0,0.6,0.1,0.6,0.4c0.1,0.3-0.2,0.4-0.3,0.5c-0.5,0.5-1.2,0.2-1.8,0.3h-0.4c-0.9,0-1,0.2-0.9,1.1c0,0.1,0,0.3,0,0.4
	c0.2,0.8,0.7,0.8,1.4,0.8c0.5,0,0.9,0,1.4,0c0.9-0.2,0.5,0.4,0.5,0.8c0,0.3,0,0.5,0,0.8c0,0.4,0,0.8-0.1,1.3c-0.1,1.1-0.1,1.1-1.2,1
	c-0.1,0-0.3,0-0.5,0s-0.4,0-0.4-0.2s0.2-0.3,0.3-0.4c0.2-0.3,0.7-0.5,0.8-0.9c-0.1-0.5-0.5-0.4-0.8-0.6c-0.5-0.1-1-0.2-1.5-0.3
	c-0.6,0.1-1.2,0.2-1.7,0.5c-0.1,0-0.1,0.1-0.2,0.2c-0.1,0.7,0.4,1,0.8,1.3c0.2,0.1,0.1,0.3,0,0.4c-0.8,0.4-0.3,0.9-0.2,1.4
	c0,0.2,0.1,0.4,0.3,0.6c0.2,1,0.2,2,0.1,3c0,0.1-0.1,0.2-0.2,0.3c-0.1,0.1-0.2,0.2-0.2,0.3c-0.2,0.4-0.2,0.9,0,1.3
	c0.3,0.6,0.4,1.3,0.3,1.9c-0.1,0.9,0,1.1,1,1.1c0.5,0,1.1,0.2,1.3-0.5c-0.1-0.5-0.1-1-0.2-1.5c0-0.3,0-0.6,0.4-0.6s0.8-0.1,1.1,0.1
	c0.1,0.6,0.1,1.1-0.1,1.7c0,0.1,0,0.2,0,0.4c0.1,0.3,0.5,0.3,0.8,0.4h1.5c0.7,0,0.9-0.2,1-1c0-0.5-0.2-1,0.2-1.5
	c0.3,0,0.8-0.5,0.9,0.3c0,0.5-0.1,1-0.1,1.5c0,0.4,0.3,0.8,0.8,0.8c0,0,0,0,0.1,0c1.2,0.1,1.4-0.1,1.4-1.3c-0.1-0.7,0-1.4,0.2-2.1
	c0.1-0.3,0.1-0.7,0-1c-0.1-0.2-0.2-0.4-0.3-0.6c-0.1-0.6-0.1-1.2-0.1-1.7c0-0.3-0.1-0.7,0.2-1c0-0.1,0.1-0.1,0.1-0.2
	c0.1-0.3,0.1-0.7,0-1c-0.3-0.5-0.1-0.8,0.2-1.2s0.7-0.5,0.3-1c-0.6-0.3-1.3-0.4-2-0.4h-0.2l-1.1,0.3c-0.4,0.1-0.6,0.3-0.4,0.8
	c0.3,0.2,0.5,0.5,0.7,0.7c-0.1,0.4-0.4,0.2-0.6,0.3s-0.5-0.2-0.5-0.6c0-0.3,0-0.5,0.1-0.8c0-0.2,0-0.4,0-0.6c0-0.4,0-0.9,0-1.3
	c0.1-0.4-0.2-0.9,0.5-0.9c0.6-0.1,1.1-0.1,1.7-0.1c0.4,0,0.8,0,1.2,0c0.6-0.1,1.1-0.1,1.7-0.1c0.4,0,0.8,0,1.2-0.1
	c0.5-0.1,1.1-0.1,1.6-0.1c0.5,0,0.4,0.4,0.4,0.7c-0.1,0.4-0.1,0.8-0.1,1.2c0.1,0.4,0.1,0.9-0.1,1.3c-0.2,1.2-0.2,1.2-1,1.2
	c-0.3-0.3-0.2-0.6,0.1-0.8s0.5-0.4,0.8-0.6c0.1-0.1,0.1-0.1,0.1-0.2c0.1-0.1,0.1-0.3,0-0.5C40.1,37.1,40,37,39.9,37
	c-0.4-0.1-0.9-0.2-1.3-0.3c-0.5-0.1-1.1-0.1-1.6,0.1c-0.3,0.1-0.6,0.2-0.9,0.3c-0.2,0-0.4,0.2-0.3,0.5c0,0.1,0,0.1,0.1,0.2
	c0.1,0.1,0.2,0.2,0.3,0.2c0.5,0.5,1.2,0.9,0.3,1.6c-0.1,0.1,0,0.3,0,0.4s0.1,0.4,0.1,0.6c0,0.1,0,0.2,0.1,0.4
	c0.5,1.3,0.5,2.6,0.2,3.9c-0.3,0.3-0.5,0.7-0.3,1.1c0,0.3,0,0.6,0.1,0.8c0.3,0.6,0.3,1.2,0.1,1.8c-0.1,0.3,0,0.7,0.2,1
	c0.3,0.1,0.7,0.1,1,0.1c0.3,0,0.7,0,1,0.1h0.5c0.2-0.3,0.3-0.7,0.2-1.1c-0.1-0.3-0.1-0.7-0.2-1c0-0.2-0.1-0.5,0.1-0.6
	s0.6-0.2,0.8,0.1c0,0.4,0,0.8,0,1.2c0,1.2,0,1.2,1.2,1.2H43c0.6,0,0.8-0.3,0.7-0.9c-0.1-0.2-0.1-0.4-0.1-0.6c0-0.3,0-0.5,0-0.8
	s0-0.5,0.3-0.5c0.2,0,0.4,0.1,0.4,0.3c0,0,0,0,0,0.1c0,0.4,0,0.7,0,1.1c0,0.3,0,0.6,0.2,0.8c0.1,0.1,0.3,0.2,0.5,0.2h0.7
	c0.8,0,0.9-0.2,1-1c-0.1-0.5-0.1-1-0.1-1.5c0-0.3,0.2-0.6,0-1h-0.2l0.1-0.1l0,0l0,0c0.2-0.1,0.3-0.3,0.3-0.5c0-0.2-0.1-0.5-0.3-0.7
	c-0.2-1-0.2-2.1,0-3.1c0.1-0.2,0.2-0.5,0.2-0.7c0.1-0.5,0-1-0.3-1.4c0.2-0.6,0.8-0.8,1.1-1.3c0.1-0.1,0.1-0.3,0-0.4
	c-0.5-0.2-1-0.3-1.5-0.4c-0.4-0.1-0.8-0.1-1.3,0c-0.5,0.2-1.1,0-1.5,0.6c0,0.3,0.1,0.6,0.4,0.7c0.3,0.3,0.9,0.3,0.7,0.8
	s-0.7,0.1-1,0.1s-0.3-0.1-0.4-0.3c0-0.5-0.2-0.9-0.2-1.4c-0.1-0.3-0.1-0.5-0.2-0.8c-0.1-0.5-0.1-1.1,0-1.6c0-0.2,0.1-0.4,0.4-0.5
	c0,0,0.1,0,0.1,0c0.6,0,1.1-0.2,1.7-0.2c0.3,0,0.7,0,1,0c1-0.3,1-0.3,1.1-1.3c0-0.2,0.1-0.3,0.1-0.5c0-0.6-0.3-0.8-0.8-0.8
	c-0.5,0-1.1,0.2-1.7,0.3s-0.9,0.2-1.3-0.1c-0.2-0.2-0.6-0.2-0.5-0.7s0.2-0.5,0.6-0.5s0.8-0.1,1.3-0.2c0.4,0,0.8-0.1,1.2-0.2
	c0.5-0.1,1-0.1,1.3-0.6c0.2-0.3,0.2-0.7,0.5-0.9c0.7-0.4,1.5-0.7,2.4-0.9c0.3,0,0.5-0.2,0.6-0.5L50.5,27.5z M29.7,41.6
	c-0.2,0.9-0.2,1.9-0.1,2.9c0,0.2-0.1,0.3-0.3,0.3h-1.4c-0.5,0.2-0.7,0-0.6-0.5c0-0.2,0-0.4,0-0.6v-1.5c-0.1-1.1-0.1-1.1,0.8-0.9h1.3
	C29.6,41.2,29.7,41.4,29.7,41.6z M33,41.3c1,0,1,0,0.9,0.9c0.1,0.5,0.1,1,0,1.5c0,0.3,0.2,0.6,0,0.9c-0.5,0.2-1,0.2-1.5,0v-0.4
	c0-0.1,0-0.1,0-0.2c-0.1-0.7-0.1-1.3-0.1-2C32.2,41.4,32.4,41.1,33,41.3z M34.2,34.2c-0.6,0-1.2,0-1.8,0.1s-0.7-0.4-1-0.6
	c0-0.3,0-0.7,0.1-1c0.3-0.8,1-0.8,1.6-0.8c0.5,0,1,0,1.5,0c-0.3,0.6,0.2,1,0.3,1.5S34.9,34.1,34.2,34.2L34.2,34.2z M39.8,44.8
	c-1.1,0-1.1,0-1-1.3c-0.1-0.5-0.1-1,0-1.5l0,0c0-0.1,0-0.2,0-0.4c-0.2-0.7,0-0.8,0.7-0.7c0.6-0.1,0.8,0.1,0.7,0.7s0,1.3,0,2
	c0,0.3,0.1,0.6,0.1,0.9S40.2,44.9,39.8,44.8L39.8,44.8z M41,33.1c-0.3,0.8-1.1,0.8-1.8,0.8c-0.2,0-0.3,0-0.4,0c-1.1,0-1.1,0-1.1-1
	c0.2-0.4,0.1-0.9,0.5-1.2c0.6,0.1,1.3,0,1.9-0.2c0.7-0.2,0.9,0.3,1.2,0.6C41.5,32.3,41.2,32.7,41,33.1z M43.9,41.1
	c0.9-0.1,0.9,0,1,0.9c0,0.5,0,1,0,1.6c0.1,1.3,0.1,1.3-1.3,1.2c-0.3-1.1-0.1-2.2-0.3-3.3C43.2,40.9,43.6,41.1,43.9,41.1L43.9,41.1z"
	/>
</svg>
