<?xml version="1.0" encoding="utf-8"?>
<!-- Generator: Adobe Illustrator 21.0.2, SVG Export Plug-In . SVG Version: 6.00 Build 0)  -->
<svg version="1.1" id="Layer_1" xmlns="http://www.w3.org/2000/svg" xmlns:xlink="http://www.w3.org/1999/xlink" x="0px" y="0px"
	 viewBox="0 0 74 74" style="enable-background:new 0 0 74 74;" xml:space="preserve">
<style type="text/css">
	.st0{fill:#006FAF;}
</style>
<title>os-patch-management</title>
<g id="text">
</g>
<path class="st0" d="M37,74C16.6,74,0,57.4,0,37S16.6,0,37,0s37,16.6,37,37S57.4,74,37,74z M37,2C17.7,2,2,17.7,2,37s15.7,35,35,35
	s35-15.7,35-35S56.3,2,37,2z"/>
<g id="Page-1">
	<g id="Group">
		<path id="Fill-7" class="st0" d="M30.1,23.1c-1.2,0-2.1,0.9-2.1,2.1s0.9,2.1,2.1,2.1s2.1-0.9,2.1-2.1S31.3,23.1,30.1,23.1"/>
		<path id="Fill-8" class="st0" d="M43.9,23.1c-1.2,0-2.1,0.9-2.1,2.1s0.9,2.1,2.1,2.1c1.2,0,2.1-0.9,2.1-2.1S45,23.1,43.9,23.1"/>
		<path id="Fill-9" class="st0" d="M37,21.2c-1.2,0-2.1,0.9-2.1,2.1s0.9,2.1,2.1,2.1c1.2,0,2.1-0.9,2.1-2.1S38.2,21.2,37,21.2"/>
		<path id="Fill-11" class="st0" d="M48.7,28.7c-0.1-0.1-0.3-0.1-0.4-0.1c-0.1,0-0.2,0-0.2,0c-1.4,0.5-2.8,0.9-4.1,1.2
			c-0.3,0.1-0.5,0.3-0.6,0.5c-0.9,2.6-3.4,5.1-5.9,7.7c-0.1,0.1-0.2,0.2-0.5,0.2s-0.4-0.1-0.5-0.2c-2.6-2.6-5-5-5.9-7.6
			c-0.1-0.2-0.3-0.4-0.6-0.5c-1.3-0.3-2.7-0.7-4.1-1.3c-0.1,0-0.2,0-0.2,0c-0.1,0-0.3,0-0.4,0.1c-0.2,0.1-0.3,0.4-0.3,0.6
			c0.2,2.2,1.1,4.3,2.6,6.5c1.5,2.1,3.3,4,5.2,5.9c3.4,3.4,6.6,6.7,6.8,10.4c0,0.3,0.3,0.6,0.7,0.6h4c0.2,0,0.4-0.1,0.5-0.2
			c0.1-0.1,0.2-0.3,0.2-0.5c-0.1-2.5-1.1-5-2.9-7.7c-0.4-0.6-0.8-1.1-1.2-1.6c-0.2-0.2-0.1-0.5,0-0.6l0.4-0.4
			c1.8-1.9,3.7-3.8,5.2-5.9c1.6-2.2,2.4-4.3,2.6-6.5C49,29.1,48.9,28.9,48.7,28.7"/>
		<path id="Fill-13" class="st0" d="M32.9,44.7c-0.1-0.1-0.2-0.2-0.5-0.2s-0.5,0.2-0.5,0.3c-1.7,2.5-2.5,4.9-2.6,7.3
			c0,0.2,0,0.4,0.2,0.5c0.1,0.1,0.3,0.2,0.5,0.2h4c0.3,0,0.6-0.3,0.7-0.6c0.1-1.2,0.4-2.3,1.1-3.6c0.2-0.4,0-0.8-0.1-1
			C34.8,46.8,34,45.9,32.9,44.7"/>
		<path id="Fill-14" class="st0" d="M37,30.8c1.2,0,2-0.1,2.2-0.1c0.3,0,0.6,0.3,0.6,0.6c0,0.1,0,0.2,0,0.2c-0.2,0.4-0.9,2-2.3,3.4
			c-0.2,0.1-0.3,0.2-0.4,0.2s-0.3,0-0.4-0.2c-1.4-1.4-2.1-2.9-2.3-3.4c0-0.1,0-0.1,0-0.2c0-0.4,0.3-0.6,0.6-0.6
			C35,30.7,35.8,30.8,37,30.8"/>
	</g>
</g>
</svg>
