<?xml version="1.0" encoding="utf-8"?>
<!-- Generator: Adobe Illustrator 21.0.2, SVG Export Plug-In . SVG Version: 6.00 Build 0)  -->
<svg version="1.1" id="Layer_1" xmlns="http://www.w3.org/2000/svg" xmlns:xlink="http://www.w3.org/1999/xlink" x="0px" y="0px"
	 viewBox="0 0 74 74" style="enable-background:new 0 0 74 74;" xml:space="preserve">
<style type="text/css">
	.st0{fill:none;stroke:#006FAF;stroke-width:2;stroke-miterlimit:10;}
	.st1{fill:#006FAF;}
</style>
<circle class="st0" cx="37" cy="37" r="36"/>
<g>
	<g>
		<path class="st1" d="M54.5,43.7L54.5,43.7c-1,0-1.9,0-2.8,0c-0.1,0-0.2-0.1-0.2-0.2c-0.3-0.9-0.7-1.8-1-2.7c0-0.1-0.1-0.2-0.2-0.2
			c-1.7,0-3.4,0-5,0c-0.1,0-0.2,0.1-0.3,0.2c-0.3,0.9-0.6,1.8-1,2.7c0,0.1-0.1,0.1-0.1,0.2c-1,0-1.9,0-2.9,0
			c0.1-0.3,0.2-0.5,0.3-0.8c1.6-4.2,3.3-8.4,4.9-12.5c0.1-0.1,0.1-0.2,0.3-0.2c0.8,0,1.7,0,2.5,0c0.1,0,0.2,0,0.2,0.2
			C51,34.8,52.7,39.2,54.5,43.7C54.5,43.6,54.5,43.6,54.5,43.7z M49.5,38.3c-0.6-1.7-1.2-3.3-1.9-5c-0.6,1.7-1.2,3.3-1.8,5
			C47,38.3,48.2,38.3,49.5,38.3z"/>
		<path class="st1" d="M33.9,38.5c0,0.1,0,0.2,0,0.2c0,1.5,0,3.1,0,4.6c0,0.2,0,0.2-0.2,0.2c-0.8,0-1.7,0-2.5,0c0-4.5,0-9,0-13.5
			c0.1,0,0.1,0,0.2,0c1.5,0,3,0,4.5,0c0.8,0,1.7,0,2.5,0.1c1.4,0.2,2.4,1,2.9,2.3c0.5,1.2,0.5,2.5-0.1,3.7s-1.6,2-2.9,2.2
			c-1.3,0.2-2.7,0.1-4,0.1C34.1,38.5,34,38.5,33.9,38.5z M33.9,36.2c1,0,2.1-0.1,3.1-0.1c0.4,0,0.8-0.2,1.1-0.5
			c0.6-0.6,0.7-1.3,0.4-2s-0.8-1.1-1.6-1.2c-1-0.1-2-0.1-3-0.1h-0.1C33.9,33.7,33.9,34.9,33.9,36.2z"/>
		<path class="st1" d="M25.5,30.2c0.9,0,1.8,0,2.7,0c0,0.1,0,0.1,0,0.2c0,2.9,0,5.8,0,8.7c0,0.7,0,1.3-0.2,2
			c-0.4,1.3-1.2,2.2-2.4,2.6c-1,0.3-2.1,0.4-3.2,0.1c-1.5-0.4-2.3-1.3-2.7-2.8c-0.1-0.5-0.1-1-0.2-1.5c0.9-0.1,1.7-0.2,2.6-0.3
			c0,0.3,0.1,0.7,0.1,1c0.1,0.6,0.4,1.1,1,1.3c0.5,0.2,0.9,0.1,1.4-0.1c0.3-0.1,0.5-0.4,0.6-0.7c0.2-0.5,0.2-1,0.2-1.6
			c0-2.9,0-5.8,0-8.7C25.5,30.4,25.5,30.3,25.5,30.2z"/>
	</g>
</g>
</svg>
