<?xml version="1.0" encoding="utf-8"?>
<!-- Generator: Adobe Illustrator 21.0.2, SVG Export Plug-In . SVG Version: 6.00 Build 0)  -->
<svg version="1.1" id="Layer_1" xmlns="http://www.w3.org/2000/svg" xmlns:xlink="http://www.w3.org/1999/xlink" x="0px" y="0px"
	 viewBox="0 0 74 74" style="enable-background:new 0 0 74 74;" xml:space="preserve">
<style type="text/css">
	.st0{fill:#006FAF;}
</style>
<title>os-patch-management</title>
<g id="text">
</g>
<path class="st0" d="M37,74C16.6,74,0,57.4,0,37S16.6,0,37,0s37,16.6,37,37S57.4,74,37,74z M37,2C17.7,2,2,17.7,2,37s15.7,35,35,35
	s35-15.7,35-35S56.3,2,37,2z"/>
<g>
	<path class="st0" d="M29.4,34l4.4-0.1l0.7-3.5c0-0.5,0.3-0.9,0.7-0.9h13.6l0.7-3c0-0.5-0.4-1-1-1L25,25.7c-0.5,0-1,0.4-1,1l-3,14.4
		c0,0.5,0.4,1,1,1h5.3L29,35C29,34.5,29.1,34,29.4,34z"/>
	<path class="st0" d="M52.3,30.1h-3.6H35.9c-0.4,0-0.7,0.4-0.7,0.8l-0.7,3.3l4-0.1c0.2,0,0.4,0.4,0.4,0.9l-1.6,6.8l-0.5,2.1h12.7
		c0.4,0,0.7-0.4,0.7-0.8L53,30.9C53,30.5,52.7,30.1,52.3,30.1z"/>
	<path class="st0" d="M32.5,43.6c-0.4,0-0.6-0.3-0.6-0.8l0.2-1.1l1.5-7.1l-3.8,0.1c-0.2,0-0.4,0.4-0.4,0.8l-1.5,6.2l-1.4,5.9
		c0,0.5,0.2,0.8,0.4,0.8h7.5c0.2,0,0.4-0.4,0.4-0.8l1-4C35.8,43.6,32.5,43.6,32.5,43.6z"/>
</g>
</svg>
