<?xml version="1.0" encoding="utf-8"?>
<!-- Generator: Adobe Illustrator 21.0.2, SVG Export Plug-In . SVG Version: 6.00 Build 0)  -->
<svg version="1.1" id="Layer_1" xmlns="http://www.w3.org/2000/svg" xmlns:xlink="http://www.w3.org/1999/xlink" x="0px" y="0px"
	 viewBox="0 0 74 74" style="enable-background:new 0 0 74 74;" xml:space="preserve">
<style type="text/css">
	.st0{fill:none;stroke:#006FAF;stroke-width:2;stroke-miterlimit:10;}
	.st1{fill:#006FAF;}
</style>
<circle class="st0" cx="37" cy="37" r="36"/>
<g>
	<path class="st1" d="M41.2,25.3C41.3,25.3,41.3,25.3,41.2,25.3c3.1,0,6.2-0.3,9.3,0.2c1.7,0.3,3.1,1.1,3.7,2.9
		c0.6,2,0.3,5.1-1.7,6.5c-1.2,0.9-2.7,1.3-4.2,1.5c-0.9,0.1-1.9,0.1-2.9,0.2c0,2.8,0,5.5,0,8.3c-1.5,0-2.9,0-4.3,0
		C41.2,38.4,41.2,31.9,41.2,25.3z M45.6,27c0,2.6,0,5.2,0,7.7c2,0.2,4-0.8,4.4-2.9c0.1-1,0.1-1.9-0.2-2.8c-0.4-1.2-1.2-1.8-2.4-2
		C46.8,27,46.2,27,45.6,27z"/>
	<path class="st1" d="M32,44.8c-1.1,0-2.5-0.3-3.9-1c-0.3-0.2-0.5-0.4-0.4-0.8c0.3-0.9,0.5-1.9,0.7-2.8c0-0.1,0.2-0.2,0.3-0.4
		c0.1,0.1,0.3,0.2,0.4,0.4c0.8,2.7,3.9,3.4,5.9,2.4c1.7-0.9,2-3.3,0.4-4.6c-0.6-0.5-1.3-0.9-2-1.2c-1-0.6-2.1-1-3.2-1.6
		c-3.4-2.1-3.1-7.1-0.7-9.2c1.1-0.9,2.3-1.4,3.7-1.6c1.9-0.2,3.7,0,5.3,1c0.3,0.2,0.4,0.4,0.3,0.8c-0.3,0.7-0.4,1.4-0.7,2.1
		c0,0.1-0.2,0.3-0.3,0.3s-0.3-0.1-0.3-0.3c-0.9-2.3-3.5-2.7-5.2-1.8c-1.5,0.8-1.6,3-0.2,4.1c0.7,0.6,1.6,1,2.4,1.5
		c0.9,0.6,2,1,2.8,1.6c3.8,2.7,3.3,8.1-0.9,10.2C35.2,44.6,33.8,44.9,32,44.8z"/>
	<path class="st1" d="M22,25.3c1.5,0,2.9,0,4.4,0c0,0.2,0,0.4,0,0.6c0,5.2,0,10.4,0,15.5c0,1-0.1,2.1-0.3,3.1
		c-0.6,2.8-2.6,4.3-5.3,4.9c-0.3,0.1-0.5,0.1-0.8,0.1c-0.1-0.4-0.3-0.8-0.4-1.3c0.1-0.1,0.2-0.1,0.3-0.2c1.4-0.6,1.9-1.7,2.1-3.1
		c0.1-0.6,0.1-1.3,0.1-1.9c0-5.7,0-11.5,0-17.2C22,25.8,22,25.6,22,25.3z"/>
</g>
</svg>
