<?xml version="1.0" encoding="utf-8"?>
<!-- Generator: Adobe Illustrator 21.0.2, SVG Export Plug-In . SVG Version: 6.00 Build 0)  -->
<svg version="1.1" id="Layer_1" xmlns="http://www.w3.org/2000/svg" xmlns:xlink="http://www.w3.org/1999/xlink" x="0px" y="0px"
	 viewBox="0 0 74 74" style="enable-background:new 0 0 74 74;" xml:space="preserve">
<style type="text/css">
	.st0{fill:#006FAF;}
</style>
<title>health-checks</title>
<path class="st0" d="M37,74C16.6,74,0,57.4,0,37S16.6,0,37,0s37,16.6,37,37S57.4,74,37,74z M37,2C17.7,2,2,17.7,2,37s15.7,35,35,35
	s35-15.7,35-35S56.3,2,37,2z"/>
<g>
</g>
<g>
	<path class="st0" d="M23,29.3c-0.1,0-0.2,0-0.3,0c-0.5,0-0.8,0.4-0.8,0.8c0,0.2,0,0.5,0,0.6c0,0.2,0,0.4,0,0.6s0,0.4,0,0.6
		c0,0.2,0,0.4,0,0.6s0,0.4,0,0.6c0,0.2,0,0.4,0,0.6c0,0.2,0,0.4,0,0.6c0,0.2,0,0.4,0,0.6c0,0.2,0,0.4,0,0.6c0,0.2,0,0.4,0,0.6
		c0,0.2,0,0.4,0,0.6c0,0.2,0,0.4,0,0.6c0,0.2,0,0.4,0,0.6c0,0.2,0,0.4,0,0.6c0,0.2,0,0.4,0,0.6c0,0.2,0,0.4,0,0.6c0,0.2,0,0.4,0,0.6
		c0,0.2,0,0.4,0,0.6c0,0.2,0,0.4,0,0.6c0,0.2,0,0.4,0,0.6c0,0.1,0,0.3,0,0.4c0,0.3-0.1,1-0.8,1.1c-0.1,0-0.2,0-0.3,0
		c-0.1,0-0.3,0-0.5-0.1c-0.2,0-0.5-0.1-0.6-0.1c-0.2,0-0.3,0-0.4,0.1L18.9,43v1.2l0.1,0.1c0.3,0.5,0.9,0.5,1.3,0.5h0.1h0.1h0.6h0.1
		c0.4,0,0.9-0.1,1.4-0.4c0.1-0.1,0.2-0.1,0.3-0.3c0.1-0.1,0.3-0.3,0.4-0.5c0.1-0.1,0.1-0.2,0.2-0.3c0.1-0.2,0.2-0.4,0.3-0.7
		c0.1-0.2,0.1-0.5,0.1-0.8V30.3C23.9,30,23.9,29.3,23,29.3z"/>
	<path class="st0" d="M35.2,29.5c-0.1-0.1-0.3-0.2-0.5-0.2c-0.1,0-0.9,0.1-1.1,0.5c-0.2,0.3-0.2,0.6-0.1,0.8c0,0.2,0,0.4,0,0.6
		s0,0.4,0,0.6s0,0.4,0,0.6c0,0.2,0,0.4,0,0.6c0,0.2,0,0.4,0,0.6c0,0.2,0,0.4,0,0.6c0,0.2,0,0.4,0,0.6c0,0.2,0,0.4,0,0.6
		c0,0.2,0,0.4,0,0.6c0,0.2,0,0.4,0,0.6c0,0.2,0,0.4,0,0.6c0,0.2,0,0.4,0,0.6c0,0.1,0,0.3,0,0.5s-0.1,0.3-0.1,0.5
		c-0.1,0.4-0.2,0.7-0.5,0.9v0.1v0.1c0,0-0.1,0.1-0.2,0.2c-0.2,0.2-0.5,0.3-0.9,0.4c-0.1,0-0.3,0.1-0.5,0.1c-0.1,0-0.2,0-0.3,0h-0.3
		c0,0-0.1,0-0.2,0s-0.2,0-0.3,0c-0.1,0-0.2,0-0.3-0.1c-0.3,0-0.5-0.2-0.8-0.3c0,0-0.1,0-0.1-0.1c-0.1-0.1-0.2-0.1-0.3-0.2l-0.2-0.2
		c-0.1-0.1-0.2-0.2-0.2-0.4c-0.1-0.2-0.1-0.3-0.2-0.5c-0.1-0.3-0.2-0.6-0.1-1v-0.6c0-0.6,0-1.1,0-1.7v-0.6c0-0.6,0-1.1,0-1.7v-0.6
		c0-0.6,0-1.1,0-1.7v-0.1c-0.1-0.6-0.1-1-0.5-1.1c-0.2,0-0.3-0.1-0.5-0.1s-0.3,0-0.5,0.1c-0.2,0-0.5,0.2-0.5,0.9c0,2,0,8,0.1,8.4
		c0,0.2,0.1,0.3,0.1,0.5l0.1,0.2c0,0,0.4,0.9,0.9,1.3l0,0c0.4,0.4,0.8,0.7,1.4,1l0.2,0.1c0.3,0.1,0.6,0.2,0.9,0.3
		c0.4,0.1,0.8,0.1,1.2,0.1h0.6c0,0,0.1,0,0.2,0s0.3,0,0.4-0.1h0.1h0.1c0.4-0.1,1.4-0.5,1.5-0.6s0.2-0.1,0.3-0.2l0.2-0.1
		c0.3-0.3,0.6-0.6,0.9-1.1c0.2-0.4,0.4-0.9,0.5-1.3V39c0-0.1,0.1-0.3,0.1-0.4c0-0.1,0-0.1,0-0.2c0-0.2,0.1-0.4,0-0.6v-0.5
		c0-0.3,0-0.5,0-0.8s0-0.6,0-0.9c0-0.2,0-0.3,0-0.5s0-0.5,0-0.7s0-0.3,0-0.5s0-0.5,0-0.6v-0.2c0-0.2,0-0.3,0-0.5
		C35.6,32.3,35.7,29.9,35.2,29.5z"/>
	<path class="st0" d="M45.2,37.5c0-0.2,0-2.5-0.2-3c-0.1-0.2-0.1-0.3-0.2-0.6c-0.3-0.8-0.9-1.3-1.6-1.6c-0.2-0.1-0.3-0.1-0.4-0.1
		c-0.2,0-0.3-0.1-0.5-0.1h-0.2c-0.1,0-0.2,0-0.3,0s-0.2,0-0.2,0h-0.2c-0.1,0-0.3,0-0.4,0h-0.1c-0.1,0-0.3,0-0.4,0.1h-0.1
		c-0.4,0.1-0.8,0.3-1.2,0.5v-0.1l-0.1-0.2l-0.2-0.1h-0.1c-0.2-0.1-0.4-0.1-0.6-0.1c-0.3,0-0.9,0.1-0.9,1.1v7.1c0,0.4,0,0.7,0.1,1
		l0.1,0.4h0.7h0.2c0.7,0,0.9-0.3,0.9-0.9v-0.8c0-0.6,0-1.2,0-1.8c0-0.7,0.1-2.4,0.1-2.6l0.1-0.4c0.2-0.7,0.5-1.1,1.2-1.3h0.1
		c0.2,0,0.3-0.1,0.6-0.1c0.1,0,0.2,0,0.2,0c0.3,0,0.6,0.1,0.8,0.1c0.4,0.2,0.6,0.4,0.6,0.7c0,0.1,0.1,0.3,0.1,0.5s0.1,1.5,0.1,2.1
		v0.4c0,1.1,0,2.2,0,3.2c0,0.1,0,0.3,0.1,0.5c0.1,0.1,0.3,0.3,0.7,0.3l0,0c0.8,0,1-0.2,1.1-1l0,0C45.3,40,45.2,37.5,45.2,37.5z"/>
	<path class="st0" d="M47.8,32.2L47.8,32.2c-0.3,0-0.6,0-0.9,0.3c-0.2,0.2-0.2,0.5-0.2,0.7v0.6c0,0.3,0,0.5,0,0.8c0,0.4,0,0.8,0,1.2
		v2.8c0,0.4,0,0.8,0,1.2c0,0.5,0,1.1,0.1,1.6l0.1,0.5h1.3l0.1-0.1c0.2-0.1,0.3-0.3,0.3-0.7v-3.5c0-1.5,0-3,0.1-4.4
		C48.7,32.3,48.1,32.2,47.8,32.2z"/>
	<path class="st0" d="M54.9,33v-0.2c-0.1-0.2-0.2-0.4-0.3-0.5c-0.2-0.1-0.4-0.1-0.5-0.1c-0.2,0-0.5,0-0.7,0h-0.9c0-0.2,0-0.3,0-0.5
		s0-0.4,0-0.6c0-0.5-0.1-0.8-0.5-1h-0.2h-0.1c-0.7,0-0.9,0.5-0.9,0.9c0,0.2-0.1,0.5-0.1,0.7c0,0.1-0.1,0.3-0.1,0.4
		c-0.3,0.1-0.5,0.1-0.8,0.2h-0.1h-0.1c-0.4,0.3-0.6,0.8-0.3,1.3l0.1,0.1l0.1,0.1C49.7,34,50,34,50,34l0,0c0.1,0,0.2,0,0.3,0h0.1
		c0,0.3,0,0.7,0,1v1.8c0,2.7,0,2.8,0,2.9c0.1,0.3,0.3,1.1,0.7,1.5l0.2,0.2c0.3,0.3,0.7,0.4,1.1,0.5c0.3,0.1,0.5,0.1,0.7,0.1h0.6h0.2
		c0.5-0.1,0.8-0.5,0.7-1.1c0-0.6-0.4-0.8-0.7-0.8H54h-0.1h-0.1h-0.3c-0.1,0-0.1,0-0.1,0c-0.1,0-0.1,0-0.2,0c-0.1,0-0.2,0-0.2,0
		c-0.2,0-0.4-0.1-0.5-0.6c0-0.1,0-0.3,0-0.5c-0.1-0.4-0.1-0.9,0-1.3c0-0.3,0-0.5,0-0.7s0-0.5,0-0.7s0-0.3,0-0.4c0-0.2,0-0.4,0-0.7
		c0-0.2,0-0.3,0-0.4c0-0.1,0-0.3,0-0.4v-0.1h0.1c0.1,0,0.2,0,0.2,0c0.1,0,0.2,0,0.3,0s0.2,0,0.2,0c0.1,0,0.2,0,0.3,0s0.2,0,0.3,0H54
		c0.1,0,0.4,0,0.6-0.2l0.1-0.1l0.1-0.1C55,33.5,54.9,33.2,54.9,33z"/>
	<path class="st0" d="M48.2,29.3L48,29.2h-0.2c-0.7,0-1.1,0.4-1.1,1.1c0,0.1,0,0.3,0,0.4c0,0.7,0.4,1,1.1,1.1h0.1l0.1-0.1
		c0.4-0.2,0.7-0.6,0.7-1.1C48.8,30.1,48.6,29.6,48.2,29.3z"/>
</g>
</svg>
