<?xml version="1.0" encoding="utf-8"?>
<!-- Generator: Adobe Illustrator 21.0.2, SVG Export Plug-In . SVG Version: 6.00 Build 0)  -->
<svg version="1.1" id="Layer_1" xmlns="http://www.w3.org/2000/svg" xmlns:xlink="http://www.w3.org/1999/xlink" x="0px" y="0px"
	 viewBox="0 0 74 74" style="enable-background:new 0 0 74 74;" xml:space="preserve">
<style type="text/css">
	.st0{fill:none;stroke:#006FAF;stroke-width:2;stroke-miterlimit:10;}
	.st1{fill:#006FAF;}
</style>
<title>Cloud &amp;amp; Infrastructure Services</title>
<circle class="st0" cx="37" cy="37" r="36"/>
<path class="st1" d="M44.5,39.3c-1.6,0-3.1,0.7-4.1,1.9l-2.6-1.8c0.3-0.8,0.4-1.6,0.4-2.4c0-0.8-0.2-1.6-0.4-2.4l2.6-1.8
	c1,1.1,2.5,1.9,4.1,1.9c3,0,5.5-2.5,5.5-5.5s-2.5-5.5-5.5-5.5S39,26,39,29.1c0,0.5,0.1,1.1,0.2,1.6l-2.6,1.8
	c-1.1-1.3-2.6-2.3-4.4-2.6v-3.1c2.5-0.5,4.4-2.7,4.4-5.4c0-3-2.5-5.5-5.5-5.5s-5.5,2.5-5.5,5.5c0,2.6,1.8,4.8,4.3,5.4v3.2
	c-3.3,0.6-5.9,3.5-5.9,7c0,3.5,2.6,6.4,5.9,7v3.3c-2.5,0.5-4.3,2.7-4.3,5.4c0,3,2.5,5.5,5.5,5.5s5.5-2.5,5.5-5.5
	c0-2.6-1.9-4.8-4.3-5.4v-3.3c1.7-0.3,3.2-1.2,4.3-2.5l2.6,1.8c-0.1,0.5-0.2,1-0.2,1.5c0,3,2.5,5.5,5.5,5.5s5.5-2.5,5.5-5.5
	S47.5,39.3,44.5,39.3L44.5,39.3z M44.5,26.4c1.5,0,2.7,1.2,2.7,2.7s-1.2,2.7-2.7,2.7s-2.7-1.2-2.7-2.7S43,26.4,44.5,26.4L44.5,26.4z
	 M28.4,21.4c0-1.5,1.2-2.7,2.7-2.7c1.5,0,2.7,1.2,2.7,2.7c0,1.5-1.2,2.7-2.7,2.7C29.6,24.1,28.4,22.9,28.4,21.4L28.4,21.4z
	 M33.8,52.6c0,1.5-1.2,2.7-2.7,2.7c-1.5,0-2.7-1.2-2.7-2.7s1.2-2.7,2.7-2.7C32.6,49.9,33.8,51.1,33.8,52.6z M31.1,40.6
	c-2.1,0-3.7-1.7-3.7-3.7c0-2.1,1.7-3.7,3.7-3.7c2.1,0,3.7,1.7,3.7,3.7C34.8,39,33.2,40.6,31.1,40.6z M44.5,47.4
	c-1.5,0-2.7-1.2-2.7-2.7c0-1.5,1.2-2.7,2.7-2.7c1.5,0,2.7,1.2,2.7,2.7C47.2,46.2,46,47.4,44.5,47.4z"/>
</svg>
