<?xml version="1.0" encoding="utf-8"?>
<!-- Generator: Adobe Illustrator 21.0.2, SVG Export Plug-In . SVG Version: 6.00 Build 0)  -->
<svg version="1.1" id="Layer_1" xmlns="http://www.w3.org/2000/svg" xmlns:xlink="http://www.w3.org/1999/xlink" x="0px" y="0px"
	 viewBox="0 0 74 74" style="enable-background:new 0 0 74 74;" xml:space="preserve">
<style type="text/css">
	.st0{fill:none;stroke:#006FAF;stroke-width:2;stroke-miterlimit:10;}
	.st1{fill:#006FAF;}
</style>
<title>Cloud &amp;amp; Infrastructure Services</title>
<circle class="st0" cx="37" cy="37" r="36"/>
<g>
	<rect x="49.4" y="37.6" class="st1" width="1.6" height="2.8"/>
	<rect x="49.4" y="40.9" class="st1" width="1.6" height="1.6"/>
	<path class="st1" d="M53.7,43.4l-0.1,0.2l0,0L53.7,43.4h-1.4c0.6-4,0.1-6.1-0.1-6.6V22.4v-0.1c-0.5-1.3-1.3-1.5-1.5-1.5
		c-0.7-0.2-1.2-0.2-1.7,0.1c-0.8,0.5-1,1.5-1.1,1.5v14.4c-0.1,0.4-0.6,2-0.3,5.3c-1.5-0.4-2.4-0.9-2.6-0.9c-1.9-0.8-3.5-1.9-4.8-3.3
		c0.3-0.6,0.4-1,0.4-1c0.1-0.2,2-4.8,0.8-9.1c-0.1-0.2-1.4-4.2-5.7-5.3h-3.4h-0.1c-4.4,1.1-5.7,5.2-5.7,5.4
		c-1.1,4.3,0.8,8.9,0.8,9.1c0,0,0.1,0.3,0.3,0.7c-1.3,1.5-2.9,2.7-4.9,3.5c-0.1,0.1-1.2,0.5-2.9,1L20,42c-0.1,0-0.7,0.4-0.7,1.1
		c0,0.3,0.1,0.8,0.6,1.2l4.8,4.3h0.1c0,0,0.4,0.2,1,0.2c0.5,0,0.9-0.1,1.3-0.4c0.1-0.1,2.8-2.3,4.4-5.8v0.7c0,0.1,0,1.6,1,2.5
		c0.4,0.4,1,0.6,1.6,0.6h0.1h0.1c0.6,0,1.2-0.2,1.6-0.6c0.9-0.9,1-2.4,1-2.5v-0.7c1.5,3.6,4.3,5.9,4.5,6c0.4,0.3,0.8,0.4,1.3,0.4
		s0.9-0.2,1-0.3l3-2.7c0.2,0.2,0.4,0.3,0.4,0.3l0.1,0.1h1.2v5.4v0.1c0,0,0.3,1.5,2,1.5l0,0c0.1,0,0.3,0,0.4,0c0.5,0,1.6-0.4,1.7-1.4
		v-5.5H54l0.1-0.1c0.7-0.5,1-1.1,0.9-1.6C54.6,43.8,53.8,43.4,53.7,43.4z M49.1,49.8v-0.5h1.3v-1.6h-1.3v-1.3h2.1v5.5
		c0,0.4-0.6,0.4-0.7,0.4c-1,0.1-1.2-0.4-1.3-0.6v-0.3h1.3v-1.6C50.5,49.8,49.1,49.8,49.1,49.8z M35.6,43.7c-0.1,0.4-0.2,1-0.6,1.4
		c-0.3,0.2-0.6,0.4-1,0.3c-0.4,0-0.7-0.1-1-0.3c-0.4-0.4-0.6-1-0.6-1.4H35.6z M46.9,44.9c0-0.2,0.1-0.3,0.3-0.5h6.1
		c0.2,0.1,0.3,0.3,0.4,0.4c0,0.2-0.1,0.4-0.4,0.6h-6.1c0,0-0.1-0.1-0.2-0.2C47,45.1,46.9,45,46.9,44.9L46.9,44.9z M45.9,45.2
		l-0.5,0.4c-3.2-1.5-5.7-4.7-5.7-4.7l-0.2-0.2l-0.8,0.6l0.2,0.2c0.1,0.1,2.4,3.2,5.7,4.8l-1.8,1.6c-0.1,0.1-0.6,0.2-1.1-0.1
		c0,0-3.1-2.6-4.5-6.4c-0.1-0.2-0.1-0.3-0.2-0.5c-0.3-0.9-0.4-1.7-0.4-2.6c0.6-0.4,0.9-0.9,0.9-0.9c0.2-0.3,0.4-0.6,0.6-0.9
		c0.2,0.4,0.6,0.9,1,1.5c0.1,0.1,0.2,0.3,0.4,0.4c1.4,1.5,3.1,2.7,5.1,3.6c0.1,0.1,1.2,0.6,2.9,1.1c0.1,0.1,0.2,0.2,0.2,0.2l0,0h-1
		l-0.1,0.1c-0.6,0.5-0.9,1-0.8,1.6C45.9,45.1,45.9,45.1,45.9,45.2z M35.7,40.2h-3.3v-1.4c0,0,0.1,0,0.2,0.1h3.1l0,0V40.2z
		 M35.9,37.6h-0.2v0.1c-0.1,0-0.1,0.1-0.2,0.1h-2.7c-0.1-0.1-0.3-0.1-0.4-0.3c-0.1-0.1-0.2-0.2-0.3-0.2c-0.3-0.3-0.5-0.5-0.5-0.6
		c-0.2-0.3-0.4-0.6-0.6-0.9h6.6c-0.2,0.3-0.4,0.7-0.7,0.9c0,0-0.3,0.4-0.7,0.7C36,37.5,35.9,37.6,35.9,37.6z M29.2,41.3l0.2-0.2
		l-0.8-0.6l-0.2,0.2c0,0-2.5,3.3-5.7,4.7l-2.1-1.9c-0.2-0.2-0.3-0.3-0.3-0.4c0-0.1,0.1-0.2,0.2-0.2c1.8-0.5,2.9-1,2.9-1
		c2.1-0.9,3.9-2.1,5.2-3.7c0.1-0.2,0.3-0.3,0.4-0.5c0.4-0.5,0.7-1,1-1.4c0.2,0.4,0.5,0.8,0.8,1.1c0,0,0.3,0.4,0.7,0.8v0.4
		c-0.1,0.8-0.2,1.5-0.4,2.2C31,41,31,41.1,30.9,41.3c-1.3,3.7-4.2,6.3-4.4,6.4c-0.5,0.3-1,0.2-1.1,0.1l-1.8-1.6
		C26.7,44.5,29.1,41.5,29.2,41.3z M38.8,30.7c0,0.5-0.1,1-0.1,1.5h-9.1c-0.1-0.5-0.1-1-0.1-1.5H38.8z M38.3,28
		c0.2,0.4,0.3,0.7,0.3,0.7c0.1,0.3,0.1,0.6,0.2,1h-9.3c0-0.4,0.1-0.7,0.2-1c0,0,0.1-0.3,0.3-0.7H38.3z M30.7,27
		c0.6-0.7,1.4-1.2,2.3-1.5h2.2c0.9,0.2,1.7,0.7,2.3,1.5H30.7z M38.5,33.3c-0.2,0.8-0.4,1.3-0.4,1.3s0,0.1-0.1,0.2h-7.7
		c0-0.1-0.1-0.2-0.1-0.2s-0.2-0.5-0.4-1.3H38.5z M39.7,36.9c-0.5-0.6-0.7-1.2-0.9-1.5C38.9,35.2,39,35,39,35
		c0.1-0.1,1.4-3.5,0.6-6.6c0-0.1-1-3.1-4.2-3.9H33h-0.1c-3.2,0.8-4.1,3.8-4.2,3.9c-0.8,3.1,0.5,6.4,0.6,6.5c0,0,0,0.1,0.1,0.2
		c-0.1,0.2-0.3,0.7-0.8,1.4v-0.1l0,0c-0.1-0.2-1.8-4.5-0.8-8.4c0,0,1.2-3.6,4.9-4.6h3.1c3.7,1,4.9,4.5,4.9,4.6
		c1,3.9-0.7,8.3-0.8,8.5C39.9,36.4,39.8,36.6,39.7,36.9z M50.5,21.8L50.5,21.8c0.1,0,0.4,0.1,0.7,0.8v14.3V37c0,0,0.7,2.1,0,6.3
		h-2.4c-0.8-4.4,0-6.2,0-6.3V22.5c0-0.1,0.2-0.6,0.5-0.8C49.8,21.6,50.1,21.6,50.5,21.8z M32.4,42.7v-1.5h3.3v1.5H32.4z"/>
</g>
</svg>
