<?xml version="1.0" encoding="utf-8"?>
<!-- Generator: Adobe Illustrator 21.0.2, SVG Export Plug-In . SVG Version: 6.00 Build 0)  -->
<svg version="1.1" id="Layer_1" xmlns="http://www.w3.org/2000/svg" xmlns:xlink="http://www.w3.org/1999/xlink" x="0px" y="0px"
	 viewBox="0 0 74 74" style="enable-background:new 0 0 74 74;" xml:space="preserve">
<style type="text/css">
	.st0{fill:none;stroke:#006FAF;stroke-width:2;stroke-miterlimit:10;}
	.st1{fill:#006FAF;}
</style>
<title>os-patch-management</title>
<g id="text">
</g>
<g>
	<circle class="st0" cx="37" cy="37" r="36"/>
	<g>
		<path class="st1" d="M15.3,36.7c-0.1-0.2-0.1-0.2,0-0.4c1-1.1,2.1-2.2,3.1-3.2c0.1-0.1,0.1-0.1,0.2-0.2c-0.7,0-1.3,0-2,0
			c-0.2,0-0.3,0.1-0.4,0.2c-1,1.1-2,2.2-3,3.2c-0.1,0.1-0.1,0.2-0.3,0.3c0-1.2,0-2.3,0-3.5c0-0.2,0-0.2-0.2-0.2c-0.5,0-1,0-1.4,0
			c-0.2,0-0.2,0-0.2,0.2c0,2.7,0,5.4,0,8.2c0,0.1,0,0.2,0.2,0.2c0.5,0,1,0,1.5,0c0.1,0,0.2,0,0.2-0.2c0-0.4,0-0.9,0-1.3
			c0-0.4-0.1-0.8,0-1.1s0.5-0.6,0.8-0.9c0.2-0.2,0.2-0.1,0.4,0c0.8,1.1,1.6,2.1,2.3,3.2c0.1,0.1,0.2,0.2,0.4,0.2c0.6,0,1.2,0,1.8,0
			c0.1,0,0.1,0,0.2-0.1c-0.1-0.1-0.1-0.1-0.2-0.2C17.5,39.6,16.4,38.1,15.3,36.7z"/>
		<path class="st1" d="M32.7,35.7c0-0.2,0-0.2,0-0.3c0-0.9,0-1.8,0-2.7c0-0.2,0-0.2-0.2-0.2c-0.5,0-1,0-1.4,0c-0.1,0-0.2,0-0.2,0.2
			c0,2.8,0,5.7,0,8.5c0,0.1,0,0.2,0.2,0.2c0.5,0,1,0,1.5,0c0.2,0,0.2-0.1,0.2-0.2c0-0.2,0-0.4,0-0.6c0.1,0.1,0.1,0.1,0.2,0.1
			c0.9,0.9,2.2,1.1,3.3,0.4c1-0.6,1.4-1.4,1.5-2.5s-0.1-2.2-0.9-3C35.9,34.6,34,34.2,32.7,35.7z M35.4,39.5
			c-0.7,0.7-1.9,0.6-2.4-0.4c-0.4-0.7-0.4-1.3,0-2c0.3-0.6,1-0.9,1.7-0.8c0.6,0.1,1.2,0.7,1.3,1.4c0,0.1,0,0.3,0,0.4
			C35.9,38.6,35.8,39.1,35.4,39.5z"/>
		<path class="st1" d="M54,34.7c-2.7,0-4.4,2.1-3.8,4.3c0.4,1.3,1.2,2.1,2.5,2.4c1.4,0.3,2.6,0,3.6-1c1-1.1,1.2-2.3,0.6-3.6
			C56.4,35.4,55.2,34.8,54,34.7z M53.7,39.9c-1,0-1.7-0.8-1.7-1.8c0-1.1,0.7-1.8,1.7-1.8s1.7,0.8,1.7,1.8
			C55.4,39.2,54.7,39.9,53.7,39.9z"/>
		<path class="st1" d="M20.4,35.1c-1.9,1-2,3.4-1.3,4.8c0.7,1.2,2.1,1.9,3.6,1.7c0.8-0.1,1.4-0.4,2-1c0.1-0.2,0.1-0.2,0-0.4
			c-0.3-0.2-0.5-0.4-0.7-0.7c-0.1-0.1-0.2-0.1-0.3,0c-0.2,0.2-0.4,0.3-0.6,0.4c-1,0.4-2,0.1-2.4-0.8c-0.1-0.2-0.1-0.3,0.2-0.3
			c0.7,0,1.3,0,2,0s1.4,0,2,0c0.2,0,0.3-0.1,0.3-0.3c0-0.3,0-0.7-0.1-1C24.7,35.2,22.4,34,20.4,35.1z M23.1,37.6c-0.4,0-0.8,0-1.2,0
			c-0.4,0-0.8,0-1.2,0c-0.1,0-0.2,0-0.2-0.1c0.2-0.9,0.9-1.4,1.7-1.2C22.7,36.4,23.2,36.9,23.1,37.6C23.3,37.6,23.2,37.6,23.1,37.6z
			"/>
		<path class="st1" d="M41.1,34.8c-1.3,0.2-2.1,1-2.5,2.2c-0.4,1.3-0.3,2.5,0.7,3.5c0.8,0.9,1.9,1.2,3.1,1c0.8-0.1,1.4-0.4,1.9-1
			c0.1-0.2,0.2-0.2,0-0.4c-0.3-0.2-0.5-0.4-0.7-0.6c-0.1-0.1-0.2-0.1-0.3,0c-0.2,0.2-0.4,0.3-0.7,0.4c-1,0.4-2,0-2.3-0.9
			c-0.1-0.2,0-0.2,0.2-0.2c0.7,0,1.4,0,2.1,0c0.7,0,1.3,0,2,0c0.2,0,0.3-0.1,0.3-0.3c0-0.3,0-0.6,0-0.8C44.6,35.6,43,34.4,41.1,34.8
			z M42.9,37.6c-0.4,0-0.8,0-1.2,0s-0.8,0-1.2,0c-0.1,0-0.2,0-0.2-0.2c0.1-0.9,0.9-1.4,1.7-1.2c0.5,0.1,1,0.7,1,1.2
			C43.1,37.6,43,37.6,42.9,37.6z"/>
		<path class="st1" d="M61.9,37.8c-0.5-0.3-1-0.4-1.5-0.6c-0.2-0.1-0.4-0.1-0.5-0.3c-0.3-0.2-0.2-0.5,0.1-0.7
			c0.2-0.1,0.4-0.1,0.6-0.1c0.5,0.1,1,0.3,1.4,0.5c0.2,0.1,0.2,0.1,0.3-0.1c0.2-0.3,0.3-0.6,0.5-0.9c0.1-0.2,0.1-0.2-0.1-0.3
			c-0.7-0.4-1.4-0.6-2.2-0.6c-0.7,0-1.2,0.2-1.7,0.5c-1,0.7-1.1,2.5,0.2,3.2c0.5,0.2,1,0.4,1.5,0.5c0.2,0.1,0.5,0.1,0.7,0.3
			c0.2,0.1,0.3,0.2,0.3,0.4s-0.1,0.3-0.3,0.4c-0.2,0.1-0.4,0.1-0.5,0.1c-0.7,0-1.3-0.3-1.8-0.7c-0.1-0.1-0.2-0.1-0.3,0
			c-0.2,0.3-0.4,0.6-0.6,1c-0.1,0.1-0.1,0.1,0,0.2c1.2,0.8,2.5,1.2,3.9,0.7c0.8-0.3,1.2-0.9,1.3-1.7C63,38.7,62.7,38.2,61.9,37.8z"
			/>
		<path class="st1" d="M29.9,34.7c-0.6,0-1.1,0.3-1.5,0.8c-0.1,0.2-0.2,0.3-0.4,0.6c0-0.4,0-0.7,0-1c0-0.2,0-0.2-0.2-0.2
			c-0.5,0-1,0-1.5,0c-0.2,0-0.2,0.1-0.2,0.2c0,2,0,4.1,0,6.1c0,0.2,0.1,0.2,0.2,0.2c0.4,0,0.9,0,1.3,0c0.2,0,0.3,0,0.3-0.3
			c0-0.8,0-1.7,0-2.5c0.1-1.3,0.9-1.9,1.9-1.9c0.2,0,0.2-0.1,0.2-0.2c0-0.5,0-1,0-1.5C30.1,34.7,30,34.7,29.9,34.7z"/>
		<path class="st1" d="M49.6,34.7c-0.7,0-1.2,0.3-1.6,0.9c-0.1,0.1-0.2,0.3-0.3,0.5c0-0.4,0-0.7,0-1c0-0.2-0.1-0.2-0.2-0.2
			c-0.5,0-1,0-1.4,0c-0.2,0-0.2,0-0.2,0.2c0,2,0,4.1,0,6.1c0,0.2,0,0.2,0.2,0.2c0.5,0,0.9,0,1.4,0c0.2,0,0.3,0,0.3-0.2
			c0-0.8,0-1.5,0-2.3c0-1.4,0.7-2.2,1.9-2.2c0.2,0,0.1-0.1,0.1-0.2c0-0.5,0-1,0-1.5C49.9,34.7,49.8,34.7,49.6,34.7z"/>
	</g>
</g>
</svg>
