<?xml version="1.0" encoding="utf-8"?>
<!-- Generator: Adobe Illustrator 21.0.2, SVG Export Plug-In . SVG Version: 6.00 Build 0)  -->
<svg version="1.1" id="Layer_1" xmlns="http://www.w3.org/2000/svg" xmlns:xlink="http://www.w3.org/1999/xlink" x="0px" y="0px"
	 viewBox="0 0 74 74" style="enable-background:new 0 0 74 74;" xml:space="preserve">
<style type="text/css">
	.st0{fill:none;stroke:#006FAF;stroke-width:2;stroke-miterlimit:10;}
	.st1{fill:#006FAF;}
</style>
<title>java</title>
<circle class="st0" cx="37" cy="37" r="36"/>
<g id="Layer_1_1_">
</g>
<g>
	<path class="st1" d="M35.4,32.5c0.4,0.1,0.5,0.3,0.5,0.7c0,2.1,0,4.2,0,6.2c0,0.4-0.1,0.6-0.6,0.6c-0.8,0-1.6,0-2.5,0
		c-0.3,0-0.5,0.1-0.5,0.4c0,1,0,1.9,0,2.9c0,0.4,0.1,0.5,0.5,0.5c0.8,0,1.7,0,2.5,0c0.4,0,0.5,0.1,0.5,0.5c0,0.5,0,1,0,1.5
		s0.1,0.7,0.7,0.7c0.9-0.1,1.9,0,2.8,0c0.5,0,0.7-0.1,0.7-0.7c0-4.2,0-8.4,0-12.6c0-0.5,0.1-0.7,0.6-0.8c0.8-0.3,1.6-0.7,2.2-1.3
		c2.1-2,3-4.4,2.3-7.2c-0.6-2.8-2.4-4.6-5.1-5.4c-0.3-0.1-1.7-0.4-3.4-0.2c-3.6,0.8-6,3.7-6.1,7.2C30.5,28.5,32.4,31.4,35.4,32.5z
		 M38,22c1.9,0,3.5,1.6,3.5,3.6c0,1.9-1.6,3.5-3.6,3.5c-1.9,0-3.5-1.6-3.5-3.5C34.4,23.6,36.1,22,38,22z"/>
	<path class="st1" d="M47.6,25.3c0,1.4-0.2,2.8-0.8,4.1c-0.3,0.5-0.2,0.9,0.2,1.3c2.5,3.3,3.2,7,2,10.9c-2,6.1-8.2,9.4-14.5,7.6
		c-5.8-1.6-9.5-7.9-8.2-13.7c0.5-2.1,1.4-3.9,2.8-5.5c0.1-0.2,0.3-0.3,0.2-0.6c-0.6-1.5-0.9-3-0.8-4.6c-4.7,3-8.5,10-6.2,17.7
		c2,6.8,8.2,11.8,15.8,11.6C45.7,54,52,48.6,53.6,41.3C55,34,51.4,27.9,47.6,25.3z"/>
</g>
</svg>
