<?xml version="1.0" encoding="utf-8"?>
<!-- Generator: Adobe Illustrator 21.0.2, SVG Export Plug-In . SVG Version: 6.00 Build 0)  -->
<svg version="1.1" id="Layer_1" xmlns="http://www.w3.org/2000/svg" xmlns:xlink="http://www.w3.org/1999/xlink" x="0px" y="0px"
	 viewBox="0 0 74 74" style="enable-background:new 0 0 74 74;" xml:space="preserve">
<style type="text/css">
	.st0{fill:none;stroke:#006FAF;stroke-width:2;stroke-miterlimit:10;}
	.st1{fill:#006FAF;}
</style>
<circle class="st0" cx="37" cy="37" r="36"/>
<g>
	<path class="st1" d="M49.2,47.8c-1.2,0-2.3,0-3.5,0c-1.1,0-1.8-0.5-2.2-1.6c-0.5-1.3-0.9-2.5-1.4-3.8c-0.8-2.1-1.5-4.2-2.3-6.3
		c-0.1-0.2-0.1-0.4,0.1-0.6c1.2-1.3,2.4-2.6,3.6-3.9c1.7-1.8,3.5-3.7,5.2-5.5c0.5-0.5,0.9-1.1,1.1-1.8c0.5-1.6-0.8-3.1-2.4-2.8
		c-1,0.2-1.8,0.9-2.5,1.6C44,24,43.2,25,42.3,25.9c-2.1,2.2-5.1,6.4-7.1,8.6c-0.1,0.1-0.2,0.2-0.3,0.3c0,0-0.1,0-0.1-0.1
		s0.1-0.3,0.1-0.4c0.5-1.2,1.8-4.6,1.9-5.9c0.3-2.9-0.9-5.1-3.5-6.4c-2-1-4.1-1.1-6.1-0.5c-2.9,0.8-5,2.5-6.5,5.1
		c-1.4,2.5-1.7,5.1-0.7,7.8c0.7,1.9,2,3.3,4.1,3.8c1.2,0.3,2.2,0.2,3.2-0.6c0.9-0.8,1.4-2.6-0.3-3.4c-0.4-0.2-0.8-0.4-1.2-0.6
		c-0.8-0.5-1.4-1.2-1.4-2.2c-0.1-2.2,1-3.7,2.8-4.8c0.9-0.5,1.9-0.8,3-0.4s1.8,1.4,1.6,2.4c-0.1,0.5-0.2,1.1-0.4,1.6
		c-1.1,2.8-2.2,5.7-3.4,8.5c-0.8,2.1-1.7,4.2-2.5,6.3c-0.1,0.4-0.2,0.8-0.1,1.2c0.4,1.5,1.5,1.7,2.8,1.5c1.1-0.2,1.8-1,2.2-1.9
		c0.5-1.1,1-2.2,1.5-3.4c0.8-2,1.7-4.1,2.5-6.1c0-0.1,0.1-0.2,0.2-0.4c0.1,0.2,0.2,0.3,0.2,0.3c1.2,3.3,2.4,6.6,3.7,9.9
		c0.5,1.3,1,2.6,1.5,3.9c0.6,1.3,1.5,2.2,3,2.4c0.6,0.1,1.2,0.1,1.8,0.1c6.4,0,0.7,0,6.2,0c0.2,0,0.3,0,0.5,0
		c0.7-0.1,1.5-0.2,2.1-0.7c0.8-0.6,1.1-1.6,0.9-2.6c-0.2-0.9-0.9-1.3-1.8-1.4c-0.8-0.1-1.6-0.1-2.4-0.1"/>
	<path class="st1" d="M48.2,47.9c0.8,0,3.6,0,4.4,0.1c0.9,0.1,1.6,0.4,1.8,1.4s-0.1,2-0.9,2.6c-0.6,0.5-1.3,0.6-2.1,0.7
		c-0.2,0-0.3,0-0.5,0c-5,0-1.3,0-6.2,0c-0.6,0-1.2,0-1.8-0.1c-1.5-0.2-2.5-1-3-2.4c-0.5-1.3-1-2.6-1.5-3.9c-1.2-3.3-2.4-6.6-3.7-9.9
		c0-0.1-0.1-0.2-0.2-0.3c-0.1,0.2-0.1,0.3-0.2,0.4c-0.8,2-1.7,4.1-2.5,6.1c-0.5,1.1-0.9,2.3-1.5,3.4c-0.4,0.9-1.1,1.7-2.2,1.9
		c-1.3,0.2-2.4,0-2.8-1.5c-0.1-0.4-0.1-0.8,0.1-1.2c0.8-2.1,1.7-4.2,2.5-6.3c1.1-2.8,2.3-5.7,3.4-8.5c0.2-0.5,0.3-1,0.4-1.6
		c0.2-1-0.5-2.1-1.6-2.4s-2-0.1-3,0.4c-1.8,1.1-2.8,2.6-2.8,4.8c0,1,0.6,1.7,1.4,2.2c0.4,0.2,0.8,0.4,1.2,0.6
		c1.7,0.9,1.2,2.7,0.3,3.4c-1,0.8-2.1,0.9-3.2,0.6c-2-0.5-3.4-1.9-4.1-3.8c-1-2.7-0.7-5.3,0.7-7.8c1.5-2.6,3.6-4.3,6.5-5.1
		c2.1-0.6,4.2-0.5,6.1,0.5c2.6,1.3,3.8,3.5,3.5,6.4c-0.1,1.3-1.5,4.7-1.9,5.9c0,0.1-0.1,0.3-0.1,0.4c0,0,0.1,0,0.1,0.1
		c0.1-0.1,0.2-0.2,0.3-0.3c2.1-2.2,5.1-6.4,7.1-8.6c0.9-0.9,1.7-1.9,2.6-2.8c0.7-0.7,1.5-1.4,2.5-1.6c1.7-0.3,3,1.2,2.4,2.8
		c-0.2,0.7-0.6,1.2-1.1,1.8c-1.7,1.8-3.5,3.7-5.2,5.5c-1.2,1.3-2.4,2.6-3.6,3.9c-0.2,0.2-0.2,0.3-0.1,0.6c0.8,2.1,1.5,4.2,2.3,6.3
		c0.5,1.3,0.9,2.5,1.4,3.8c0.4,1.1,1.1,1.5,2.2,1.6c1.2,0,2.3,0,3.5,0"/>
</g>
</svg>
