<?xml version="1.0" encoding="utf-8"?>
<!-- Generator: Adobe Illustrator 21.0.2, SVG Export Plug-In . SVG Version: 6.00 Build 0)  -->
<svg version="1.1" id="Layer_1" xmlns="http://www.w3.org/2000/svg" xmlns:xlink="http://www.w3.org/1999/xlink" x="0px" y="0px"
	 viewBox="0 0 74 74" style="enable-background:new 0 0 74 74;" xml:space="preserve">
<style type="text/css">
	.st0{fill:#006FAF;}
</style>
<title>os-patch-management</title>
<g id="text">
</g>
<path class="st0" d="M37,74C16.6,74,0,57.4,0,37S16.6,0,37,0s37,16.6,37,37S57.4,74,37,74z M37,2C17.7,2,2,17.7,2,37s15.7,35,35,35
	s35-15.7,35-35S56.3,2,37,2z"/>
<g>
	<path class="st0" d="M43.2,33c3,0,5.5,0.7,7.8,2c1.1,0.6,2.1,1.4,2,2.9c-0.1,1.4-1,2.3-2.3,2.4c-1.1,0.1-2.1-0.2-3.1-0.8
		c-2-1.2-4-2.2-6.2-2.6c-1.3-0.3-2.5-0.3-3.8,0c-0.8,0.2-1.1,0.6-1.1,1.4c-0.1,2.6,1.1,4.6,2.6,6.5c0.7,0.9,1.5,1.6,2.3,2.5
		c1,1.2,1.2,2.5,0.6,3.6c-0.6,1.1-1.5,1.4-2.6,1.1c-1.5-0.4-2.6-1.5-3.5-2.8c-3.2-4.2-3.6-9.9,0.6-13.8C38.4,33.7,40.8,32.9,43.2,33
		L43.2,33z M32.6,25.9c0,1.3-0.1,2.3,0.2,3.3c0.1,0.3,0.2,0.6,0.3,0.9c1,1.8,1.6,2,3,0.7c1.5-1.4,2.3-3.2,3.1-5
		c0.4-0.8,0.7-1.6,1.2-2.3c0.4-0.5,0.8-1,1.4-1.3c0.8-0.5,1.7-0.6,2.5,0s1,1.4,0.9,2.3c-0.1,1-0.4,1.9-1,2.7
		c-1.9,2.7-4.4,4.7-7.6,5.5c-2.4,0.6-4.5-0.1-6.1-1.9c-1.5-1.7-2.1-3.9-2.1-6.2c0-0.7,0.2-1.3,0.6-1.9c0.4-0.7,1.1-1.1,1.9-1
		c0.8,0,1.2,0.6,1.5,1.2C32.8,24.1,32.6,25.2,32.6,25.9L32.6,25.9z M32,38.7c0,3.3-2.2,6.5-5.2,7.6c-0.1,0-0.2,0.1-0.3,0.1
		c-1.6,0.5-3,0-3.6-1c-0.5-1,0-2.4,1.4-3.3c0.4-0.3,0.9-0.5,1.4-0.8c1-0.6,2.1-1.2,2.9-2c1.9-2,2-2.6-0.7-4
		c-1.1-0.6-2.3-0.7-3.5-0.7c-0.6,0-1.2-0.1-1.8-0.3c-0.9-0.4-1.5-1.3-1.5-2.2c0-1,0.7-1.6,1.6-1.9c2.4-0.7,4.5-0.1,6.3,1.5
		C31.1,33.5,31.9,36,32,38.7z"/>
</g>
</svg>
