<?xml version="1.0" encoding="utf-8"?>
<!-- Generator: Adobe Illustrator 21.0.2, SVG Export Plug-In . SVG Version: 6.00 Build 0)  -->
<svg version="1.1" id="Layer_1" xmlns="http://www.w3.org/2000/svg" xmlns:xlink="http://www.w3.org/1999/xlink" x="0px" y="0px"
	 viewBox="0 0 74 74" style="enable-background:new 0 0 74 74;" xml:space="preserve">
<style type="text/css">
	.st0{fill:none;stroke:#006FAF;stroke-width:2;stroke-miterlimit:10;}
	.st1{fill:#006FAF;}
</style>
<title>java</title>
<circle class="st0" cx="37" cy="37" r="36"/>
<g id="Layer_1_1_">
</g>
<path class="st1" d="M56.1,40C56,40,56,40,56.1,40L56.1,40C56,40,56,40,56.1,40c-0.2,0-0.2,0-0.3,0c-0.3,0-0.5-0.1-0.7-0.1
	c-0.1,0-0.2,0-0.4,0l0,0c-0.8-0.1-1.4-0.1-2-0.3c-0.3-0.1-0.3-0.3-0.4-0.4c0,0,0,0,0-0.1L51.8,39c0.2-1.7,0.1-3.5-0.3-5.2
	c-0.4-1.7-1.1-3.3-2.1-4.8l0.4-0.3v-0.1c0-0.2,0-0.4,0.2-0.6c0.4-0.4,1-0.7,1.7-1.1c0.1-0.1,0.2-0.1,0.3-0.2
	c0.2-0.1,0.4-0.2,0.6-0.4c0,0,0.1-0.1,0.2-0.1c0,0,0.1,0,0.1-0.1c0.5-0.4,0.6-1.2,0.3-1.7C53,24.1,52.7,24,52.4,24s-0.6,0.1-0.8,0.3
	l-0.1,0.1c-0.1,0-0.1,0.1-0.2,0.1c-0.2,0.2-0.3,0.3-0.5,0.5c-0.1,0.1-0.1,0.2-0.3,0.3c-0.5,0.6-1,1-1.5,1.3
	c-0.1,0.1-0.2,0.1-0.3,0.1s-0.1,0-0.2,0h-0.1L48,27c-0.5-0.5-1-1-1.5-1.4c-2.2-1.7-4.9-2.8-7.7-3v-0.5L38.7,22
	c-0.1-0.1-0.3-0.2-0.3-0.5c0-0.6,0-1.2,0.1-2l0,0c0-0.1,0-0.3,0.1-0.4c0-0.2,0.1-0.4,0.1-0.7V18c0-0.7-0.5-1.2-1.1-1.2
	c-0.3,0-0.6,0.1-0.8,0.4c-0.2,0.2-0.3,0.5-0.3,0.8v0.3c0,0.3,0,0.5,0.1,0.7c0,0.1,0,0.2,0.1,0.4l0,0c0.1,0.7,0.2,1.4,0.1,2
	c0,0.3-0.2,0.4-0.3,0.5L36.3,22v0.5c-0.7,0.1-1.3,0.1-2,0.3c-2.8,0.6-5.3,2.1-7.3,4.1l-0.4-0.3h-0.1c-0.1,0-0.1,0-0.2,0
	s-0.2,0-0.3-0.1c-0.5-0.3-1-0.8-1.5-1.4c-0.1-0.1-0.1-0.2-0.3-0.3c-0.1-0.2-0.3-0.3-0.5-0.5c0,0-0.1-0.1-0.2-0.1c0,0-0.1,0-0.1-0.1
	c-0.2-0.2-0.5-0.3-0.8-0.3s-0.7,0.1-0.8,0.4c-0.4,0.5-0.3,1.2,0.3,1.7c0,0,0,0,0.1,0s0.1,0.1,0.2,0.1c0.2,0.1,0.4,0.3,0.6,0.4
	c0.1,0,0.2,0.1,0.3,0.2c0.7,0.4,1.2,0.7,1.7,1.1c0.2,0.2,0.2,0.4,0.2,0.6v0.1l0.4,0.3c-0.1,0.1-0.1,0.2-0.2,0.3
	c-1.8,2.9-2.5,6.3-2.1,9.7l-0.5,0.1c0,0,0,0,0,0.1c-0.1,0.1-0.2,0.3-0.4,0.4c-0.6,0.2-1.2,0.3-2,0.3l0,0c-0.1,0-0.3,0-0.4,0
	c-0.2,0-0.4,0-0.7,0.1c-0.1,0-0.1,0-0.2,0H19c-0.7,0.1-1.1,0.8-1,1.4c0.1,0.5,0.6,0.8,1.2,0.8c0.1,0,0.2,0,0.3,0h0.1
	c0.1,0,0.1,0,0.2,0c0.3-0.1,0.4-0.1,0.7-0.3c0.1,0,0.2-0.1,0.3-0.1l0,0c0.7-0.3,1.3-0.5,1.9-0.6h0.1c0.2,0,0.4,0.1,0.5,0.2
	c0,0,0,0,0.1,0l0.5-0.1c0.9,2.7,2.6,5.1,4.8,6.9c0.5,0.4,1,0.7,1.6,1.1l-0.2,0.5c0,0,0,0,0,0.1c0.1,0.1,0.1,0.3,0.1,0.6
	c-0.2,0.6-0.6,1.1-1,1.7l0,0c-0.1,0.1-0.1,0.2-0.2,0.3c-0.1,0.2-0.3,0.4-0.4,0.6c0,0-0.1,0.1-0.1,0.2v0.1c-0.3,0.6-0.1,1.3,0.5,1.6
	c0.1,0.1,0.3,0.1,0.4,0.1c0.4,0,0.9-0.3,1.1-0.7V54c0-0.1,0.1-0.1,0.1-0.2c0.1-0.3,0.1-0.4,0.2-0.7l0.1-0.3c0.3-0.7,0.4-1.3,0.8-1.8
	c0.1-0.2,0.3-0.3,0.5-0.3c0,0,0,0,0.1,0l0.3-0.5c1.6,0.6,3.4,1,5.1,1c1.1,0,2.2-0.1,3.2-0.4c0.6-0.1,1.3-0.3,1.9-0.6l0.2,0.4
	c0,0,0,0,0.1,0c0.2,0,0.3,0.1,0.5,0.3c0.3,0.5,0.5,1.1,0.8,1.8l0,0l0.1,0.3c0.1,0.2,0.1,0.4,0.2,0.7c0,0.1,0.1,0.1,0.1,0.2V54
	c0.2,0.4,0.7,0.7,1.1,0.7c0.1,0,0.3,0,0.4-0.1c0.3-0.1,0.5-0.4,0.6-0.7s0.1-0.6-0.1-0.9c0,0,0,0,0-0.1s-0.1-0.1-0.1-0.2
	c-0.1-0.2-0.3-0.4-0.4-0.6c-0.1-0.1-0.1-0.2-0.2-0.3l0,0c-0.4-0.6-0.8-1.2-1-1.7c-0.1-0.3,0-0.4,0-0.6c0,0,0,0,0-0.1L44.9,49
	c1.9-1.1,3.6-2.8,4.8-4.7c0.7-1,1.2-2.2,1.5-3.3l0.4,0.1c0,0,0,0,0.1,0c0.1-0.1,0.3-0.2,0.5-0.2h0.1c0.6,0.1,1.2,0.3,1.9,0.6l0,0
	c0.1,0,0.2,0.1,0.3,0.1c0.2,0.1,0.4,0.2,0.7,0.3c0.1,0,0.1,0,0.2,0h0.1c0.1,0,0.2,0,0.3,0c0.6,0,1-0.4,1.2-0.8
	C57.1,40.7,56.7,40.2,56.1,40L56.1,40z M39.1,38.2L37.5,39l-1.6-0.8l-0.4-1.7l1.1-1.4h1.8l1.1,1.4L39.1,38.2L39.1,38.2z M48.7,34.4
	c0.3,1.2,0.4,2.5,0.3,3.7l-5.6-1.6c-0.5-0.1-0.8-0.7-0.7-1.2c0-0.1,0.1-0.3,0.2-0.4l4.4-4C47.9,31.9,48.4,33.1,48.7,34.4L48.7,34.4z
	 M45.5,28.7l-4.8,3.4c-0.4,0.3-1,0.2-1.3-0.2c-0.1-0.1-0.1-0.3-0.2-0.4l-0.3-6C41.4,25.8,43.7,26.9,45.5,28.7L45.5,28.7z M34.9,25.7
	c0.4-0.1,0.8-0.1,1.2-0.2l-0.3,5.9c0,0.5-0.4,1-1,1c-0.1,0-0.3,0-0.4-0.1l-4.9-3.5C30.9,27.2,32.8,26.1,34.9,25.7L34.9,25.7z
	 M27.6,30.9l4.4,3.9c0.4,0.3,0.4,1,0.1,1.4c-0.1,0.1-0.3,0.3-0.4,0.3L26,38.1C25.8,35.6,26.3,33,27.6,30.9L27.6,30.9z M26.6,40.8
	l5.8-1c0.5,0,0.9,0.3,1,0.8c0,0.2,0,0.4,0,0.6l-2.2,5.4C29.2,45.3,27.5,43.2,26.6,40.8L26.6,40.8z M40,48.1
	c-0.8,0.2-1.7,0.3-2.6,0.3c-1.3,0-2.5-0.2-3.7-0.6l2.9-5.2c0.3-0.3,0.8-0.5,1.2-0.3c0.2,0.1,0.3,0.2,0.4,0.4l2.8,5.1
	C40.8,47.9,40.4,48,40,48.1L40,48.1z M47.2,43c-0.9,1.5-2.1,2.6-3.5,3.6L41.4,41c-0.1-0.4,0.1-0.9,0.5-1.1c0.1-0.1,0.3-0.1,0.5-0.1
	l5.9,1C48,41.6,47.7,42.3,47.2,43L47.2,43z"/>
</svg>
