<?xml version="1.0" encoding="utf-8"?>
<!-- Generator: Adobe Illustrator 21.0.2, SVG Export Plug-In . SVG Version: 6.00 Build 0)  -->
<svg version="1.1" id="Layer_1" xmlns="http://www.w3.org/2000/svg" xmlns:xlink="http://www.w3.org/1999/xlink" x="0px" y="0px"
	 viewBox="0 0 74 74" style="enable-background:new 0 0 74 74;" xml:space="preserve">
<style type="text/css">
	.st0{fill:#006FAF;}
</style>
<title>health-checks</title>
<path class="st0" d="M37,0C16.6,0,0,16.6,0,37s16.6,37,37,37s37-16.6,37-37S57.4,0,37,0z M37,72C17.7,72,2,56.3,2,37S17.7,2,37,2
	s35,15.7,35,35S56.3,72,37,72z"/>
<g>
	<path class="st0" d="M21.4,52.8h10.3V37.9H21.4V52.8z M22.9,39.4h7.3v11.9h-7.3V39.4z"/>
	<path class="st0" d="M42.3,42.4v10.3h10.3V42.4H42.3z M51.1,51.3h-7.3v-7.3h7.3V51.3z"/>
	<path class="st0" d="M39.1,32.7h1.6v18.5h-7.3V32.7h1.9c0.1-0.5,0.3-1,0.5-1.5h-3.9v21.5h10.3V31.2h-2.2
		C39.5,31.8,39.3,32.2,39.1,32.7z"/>
	<path class="st0" d="M37,41c1.1,0,1.7-0.8,1.7-1.8c0-1.1-0.7-1.8-1.7-1.8c-1,0-1.7,0.7-1.7,1.8C35.3,40.2,36,41,37,41z"/>
	<path class="st0" d="M37.4,21.2c-1.5,0-3.1,0.5-4.1,1.1l0.7,1.8c0.7-0.5,1.8-0.9,2.9-0.9c1.8,0,2.7,1,2.7,2.4c0,1.3-0.7,2.4-2,3.9
		c-1.4,1.7-1.9,3.4-1.8,4.9l0.1,0.7h2.2l0-0.7c-0.1-1.4,0.4-2.7,1.6-4.2c1.4-1.6,2.4-3,2.4-4.9C42.2,23.2,40.7,21.2,37.4,21.2z"/>
</g>
</svg>
