<?xml version="1.0" encoding="utf-8"?>
<!-- Generator: Adobe Illustrator 21.0.2, SVG Export Plug-In . SVG Version: 6.00 Build 0)  -->
<svg version="1.1" id="Layer_1" xmlns="http://www.w3.org/2000/svg" xmlns:xlink="http://www.w3.org/1999/xlink" x="0px" y="0px"
	 viewBox="0 0 74 74" style="enable-background:new 0 0 74 74;" xml:space="preserve">
<style type="text/css">
	.st0{fill:none;stroke:#006FAF;stroke-width:2;stroke-miterlimit:10;}
	.st1{fill:#006FAF;}
</style>
<title>Cloud &amp;amp; Infrastructure Services</title>
<circle class="st0" cx="37" cy="37" r="36"/>
<path class="st1" d="M40.6,49.1L40.6,49.1c-0.5-0.2-0.8-0.5-0.9-0.8l-0.2-0.4c-0.2-0.3-0.4-0.7-0.6-1L36,41.6l-6.8,1.8
	c-0.3,0.1-0.5,0.1-0.8,0.1c-0.6,0-1.1-0.3-1.4-0.8c-0.1-0.1-0.1-0.3-0.2-0.4c-2-4.3-4-8.6-5.9-12.9c-0.4-0.8-0.7-1.5-1-2.3
	c0-0.1-0.1-0.2-0.1-0.3c0-0.1-0.1-0.2-0.1-0.3l-0.1-0.2V26l0.1-0.1c0.1-0.2,0.2-0.3,0.4-0.4c0.1-0.1,0.3-0.1,0.4-0.1
	c0.5-0.1,1-0.1,1.5-0.1l4.9-0.4c0.1,0,0.3,0,0.4-0.1h0.6H28c0.3,0,0.5,0.2,0.7,0.4l0.3,0.5c1.4,2.3,2.8,4.6,4.1,6.9
	c1.3,2.2,2.7,4.4,4,6.7c3.3-0.8,6.6-1.6,9.9-2.4l-3.2-4.6c-0.1-0.1-0.1-0.2-0.1-0.2c-0.1-0.3,0-0.5,0.2-0.7c0.1-0.1,0.3-0.1,0.4-0.2
	l1.9-0.3c0.5-0.1,2.5-0.4,2.5-0.4c0.2,0,0.4-0.1,0.6-0.1h0.1c0.2,0,0.4,0.1,0.6,0.2c0.2,0.1,0.3,0.3,0.5,0.5l4,4.9l0.1,0.1v0.1v0.1
	v0.3v0.1C54.3,36.9,54.1,37,54,37c0,0-3.7,1-4.4,1.2l1.9,2.6c0.7,0.9,1.4,1.9,2.1,2.8c0.1,0.1,0.1,0.2,0.2,0.3
	c0.1,0.3,0.1,0.5-0.2,0.7c-0.1,0.1-0.2,0.1-0.4,0.2c-0.3,0.1-0.7,0.3-1,0.4l-8.3,3c-0.8,0.3-1.4,0.5-2.1,0.7c-0.1,0-0.2,0.1-0.3,0.1
	s-0.2,0-0.3,0.1C41,49.1,40.8,49.1,40.6,49.1L40.6,49.1z M37.9,41.2c0.7,1.3,1.5,2.5,2.2,3.8c0.3,0.5,0.6,0.9,0.8,1.4l0.1,0.1
	c0.1,0.1,0.1,0.2,0.2,0.3c0.1,0,0.2,0,0.3-0.1h0.1c2.2-0.8,4.4-1.5,6.7-2.3l3.1-1.1l-0.1-0.1c-0.2-0.3-0.4-0.6-0.6-0.8
	c-0.2-0.3-0.4-0.6-0.6-0.9l-2-2.8c-0.1-0.1-0.1-0.2-0.2-0.2l0,0l-0.2,0.1L37.9,41.2z M21.7,26.9c0,0.1,0.1,0.1,0.1,0.2
	c1.8,3.6,3.5,7.2,5.3,10.9c0.6,1.1,1.1,2.3,1.7,3.5c0.1,0,0.1,0,0.1,0l0.9-0.2c1.6-0.4,3.2-0.8,4.8-1.1l0.5-0.1l-7.8-13.4
	c0-0.1-0.1-0.1-0.1-0.1l0,0h-0.1c-0.5,0-0.9,0.1-1.3,0.1C25.7,26.5,21.8,26.9,21.7,26.9z M45.5,32.7c0.5,0.7,1,1.3,1.4,2
	c0.5,0.7,1,1.3,1.5,2c0.6-0.2,3.9-1,3.9-1l-1-1.2c-0.6-0.8-1.3-1.6-1.9-2.4L49.3,32c0,0,0,0-0.1,0C49.3,32,45.6,32.7,45.5,32.7z"/>
</svg>
