<?xml version="1.0" encoding="utf-8"?>
<!-- Generator: Adobe Illustrator 21.0.0, SVG Export Plug-In . SVG Version: 6.00 Build 0)  -->
<svg version="1.1" id="Layer_1" xmlns="http://www.w3.org/2000/svg" xmlns:xlink="http://www.w3.org/1999/xlink" x="0px" y="0px"
	 viewBox="0 0 74 74" style="enable-background:new 0 0 74 74;" xml:space="preserve">
<style type="text/css">
	.st0{fill:none;stroke:#006FAF;stroke-width:2;stroke-miterlimit:10;}
	.st1{fill:#006FAF;stroke:#006FAF;stroke-width:0.25;stroke-miterlimit:10;}
</style>
<title>Azure_Site_Recovery</title>
<circle class="st0" cx="37" cy="37" r="36"/>
<path class="st1" d="M16.9,56.9c0-13.3,0-26.7,0-40c13.3,0,26.6,0,40,0c0,13.3,0,26.7,0,40C43.6,56.9,30.3,56.9,16.9,56.9z
	 M38.3,34.1c0-0.5,0-1.1,0-1.6c0-0.5-0.1-0.7-0.7-0.7c-1.5,0-3.1,0-4.6,0c-0.6,0-0.7,0.1-0.7,0.7c0,5.9,0,11.9,0,17.8
	c0,0.6,0.1,0.7,0.7,0.7c1.6,0,3.1,0,4.7,0c0.8,0,0.8,0,0.8-0.8c0-3.1,0-6.2,0-9.2c0-0.5,0-1.1,0.2-1.6c0.2-1,0.7-1.9,1.7-2.3
	c0.6-0.2,1.2-0.2,1.8-0.3c1.2,0,2.2,0.8,2.4,2c0.2,1,0.3,2,0.3,3c0,2.9,0,5.7,0,8.6c0,0.6,0,0.7,0.7,0.7c1.6,0,3.2,0,4.7,0
	c0.7,0,0.7,0,0.7-0.7c0-3.3,0-6.7,0-10c0-1.4-0.2-2.9-0.5-4.3c-0.3-1.6-1.2-2.9-2.7-3.7c-0.9-0.5-1.9-0.7-3-0.8
	c-1.1-0.2-2.2,0-3.3,0.3C40.3,32.2,39.3,33,38.3,34.1z M22.8,41.5c0,3,0,6,0,8.9c0,0.5,0.2,0.7,0.6,0.6c1.6,0,3.2,0,4.8,0
	c0.6,0,0.7,0,0.7-0.7c0-6,0-11.9,0-17.9c0-0.5-0.2-0.6-0.6-0.6c-1.6,0-3.2,0-4.8,0c-0.7,0-0.7,0-0.7,0.7
	C22.8,35.6,22.8,38.5,22.8,41.5z M25.9,29.5c1.9,0.1,3.5-1.7,3.5-3.5c0-1.9-1.5-3.5-3.5-3.5c-1.9,0-3.5,1.5-3.5,3.5
	C22.3,28,23.9,29.5,25.9,29.5z"/>
</svg>
