<?xml version="1.0" encoding="utf-8"?>
<!-- Generator: Adobe Illustrator 21.0.2, SVG Export Plug-In . SVG Version: 6.00 Build 0)  -->
<svg version="1.1" id="Layer_1" xmlns="http://www.w3.org/2000/svg" xmlns:xlink="http://www.w3.org/1999/xlink" x="0px" y="0px"
	 viewBox="0 0 74 74" style="enable-background:new 0 0 74 74;" xml:space="preserve">
<style type="text/css">
	.st0{fill:#006FAF;}
</style>
<title>health-checks</title>
<path class="st0" d="M37,74C16.6,74,0,57.4,0,37S16.6,0,37,0s37,16.6,37,37S57.4,74,37,74z M37,2C17.7,2,2,17.7,2,37s15.7,35,35,35
	s35-15.7,35-35S56.3,2,37,2z"/>
<g>
</g>
<path class="st0" d="M50.1,47.6c-0.9,0.8-1.7,1.5-2.6,2.3c-0.6-0.6-1.1-1.1-1.6-1.7c-0.3,0.2-0.6,0.4-0.8,0.6
	C40.2,52.1,34,52,29.2,48.7c-4.7-3.3-6.9-9.2-5.5-14.8s6.1-9.9,11.9-10.4c5.7-0.6,10.3,1.5,13.4,6.4c3.1,5,3,10.1-0.1,15.1
	c-0.4,0.6-0.4,1,0.2,1.5C49.4,46.7,49.7,47.2,50.1,47.6z M45.9,42.9c2.8-3.8,2.4-10-1.9-13.6c-4.4-3.8-10.9-3.3-14.7,1.1
	c-3.7,4.3-3.4,10.8,0.9,14.6c4.7,4.2,10.7,2.9,13.3,0.5c-0.3-0.3-0.6-0.7-0.9-1.1c0.8-0.8,1.7-1.5,2.5-2.3
	C45.4,42.4,45.6,42.7,45.9,42.9z"/>
<path class="st0" d="M45.8,39.1c0.2,0.2,0.3,0.4,0.5,0.6c-0.2,0.2-0.3,0.3-0.4,0.5c-0.1,0-0.1,0-0.1,0c-0.8-1-1.8-0.1-2.8-0.4
	c-1.2-0.3-2-1.3-2-2.7c0-1.3,0.8-2.3,2.1-2.5c1.1-0.2,2.2,0,2.8,1C46.7,36.8,46.5,37.9,45.8,39.1z M44.8,38.1
	c0.4-0.9,0.3-1.8-0.3-2.2c-0.5-0.4-1-0.4-1.6,0s-0.8,1.3-0.5,2.1c0.2,0.6,0.6,0.9,1.3,0.8C43.7,37.9,43.9,37.8,44.8,38.1z"/>
<path class="st0" d="M36.7,36.8c0,0.9,0,1.9,0,2.9c-0.5,0-0.8,0-1.3,0c0-1.7,0-3.3,0-4.9c1.2-0.3,1.3-0.3,1.9,0.7
	c0.4,0.7,0.9,1.4,1.3,2.1c0.1,0,0.1,0,0.2-0.1c0-0.9,0-1.9,0-2.9c0.5,0,0.8,0,1.3,0c0,1.6,0,3.3,0,4.9c-1.1,0.3-1.3,0.2-1.9-0.8
	c-0.4-0.7-0.9-1.4-1.3-2.1C36.9,36.8,36.8,36.8,36.7,36.8z"/>
<path class="st0" d="M28.1,39.8c0-1.7,0-3.4,0-5.1c0.4,0,0.8,0,1.3,0c0,1.1,0,2.1,0,3.2c0,0.7,0.2,0.9,0.9,0.9c0.4,0,0.9,0,1.3,0
	c0.2,0,0.4,0.3,0.5,0.4c0,0.2-0.2,0.5-0.3,0.6C30.6,39.8,29.4,39.8,28.1,39.8z"/>
<path class="st0" d="M34.2,39.7c-1.2,0.3-1.3,0.2-1.3-1c0-1,0-2,0-2.9c0-1.2,0-1.2,1.3-1C34.2,36.4,34.2,38,34.2,39.7z"/>
</svg>
