<?xml version="1.0" encoding="utf-8"?>
<!-- Generator: Adobe Illustrator 21.0.2, SVG Export Plug-In . SVG Version: 6.00 Build 0)  -->
<svg version="1.1" id="Layer_1" xmlns="http://www.w3.org/2000/svg" xmlns:xlink="http://www.w3.org/1999/xlink" x="0px" y="0px"
	 viewBox="0 0 74 74" style="enable-background:new 0 0 74 74;" xml:space="preserve">
<style type="text/css">
	.st0{fill:none;stroke:#006FAF;stroke-width:2;stroke-miterlimit:10;}
	.st1{fill:#006FAF;}
</style>
<title>Cloud &amp;amp; Infrastructure Services</title>
<circle class="st0" cx="37" cy="37" r="36"/>
<g>
	<path class="st1" d="M29.1,26.5c-1,1.5-1.6,3.3-1.6,5.3c0,0,0,0.1-0.1,0.1"/>
	<path class="st1" d="M34.8,22.5c-0.8,0.2-1.6,0.5-2.3,0.9"/>
	<path class="st1" d="M27.4,30.9c0,0-0.1,0-0.1,0l0,0C27.3,30.9,27.4,30.9,27.4,30.9z"/>
	<path class="st1" d="M56.2,37.7c-0.5-1.3-1.3-2.4-2.2-3.4c-1.8-1.8-4.1-2.9-6.6-3.1c-0.3-5.5-4.9-9.8-10.4-9.8
		c-0.5,0-0.9,0.4-0.9,0.9s0.4,0.9,0.9,0.9c4.8,0,8.6,3.9,8.6,8.7c0,0,0,0,0,0.1c0,0,0,0,0,0.1l0,0.9l0.5,0c0.2,0.1,0.3,0.1,0.4,0.1
		c2.3,0,4.5,0.9,6.1,2.6c1.6,1.7,2.5,3.9,2.5,6.2c0,2.3-0.9,4.6-2.5,6.3c-1.7,1.8-3.8,2.7-6.1,2.7H27.4c-2.3,0-4.4-1-6.1-2.7
		c-1.6-1.7-2.5-4-2.5-6.3s0.9-4.6,2.5-6.3c1.6-1.7,3.8-2.7,6-2.7c0,0,0.1,0,0.1,0c0.5,0,1-0.4,1-1c0-1.7,0.5-3.4,1.4-4.8
		c0.3-0.4,0.2-1-0.2-1.2c-0.4-0.3-1-0.2-1.2,0.2c-1,1.5-1.6,3.2-1.7,5c-2.5,0.2-4.8,1.3-6.6,3.3c-1.9,2-3,4.8-3,7.6s1.1,5.5,3,7.6
		c2,2.1,4.6,3.3,7.4,3.3h19.2c2.8,0,5.4-1.2,7.4-3.3c1.9-2,3-4.8,3-7.6C57,40.4,56.7,39,56.2,37.7z M27.4,30.9c0,0-0.1,0-0.1,0l0,0
		C27.3,30.9,27.4,30.9,27.4,30.9z"/>
	<path class="st1" d="M32.5,24.3c0.1,0,0.3,0,0.4-0.1c0.7-0.4,1.4-0.6,2.1-0.8c0.5-0.1,0.8-0.6,0.7-1.1c-0.1-0.5-0.6-0.8-1.1-0.7
		c-0.9,0.2-1.7,0.5-2.5,1c-0.4,0.2-0.6,0.8-0.4,1.2C31.9,24.1,32.2,24.3,32.5,24.3z"/>
	<path class="st1" d="M22.8,38.8h3.7v1.8h-3.7V38.8L22.8,38.8z"/>
	<path class="st1" d="M26.4,43.2l4.6-3.4l-4.6-3.4V43.2L26.4,43.2z"/>
	<path class="st1" d="M37.6,38.8h3.7v1.8h-3.7V38.8z"/>
	<path class="st1" d="M41.3,43.2l4.6-3.4l-4.6-3.4V43.2z"/>
	<path class="st1" d="M40.2,32.5l1.3,1.3l-2.6,2.6l-1.3-1.3L40.2,32.5z"/>
	<path class="st1" d="M43.4,35.6l0.8-5.7l-5.7,0.8L43.4,35.6z"/>
	<path class="st1" d="M37.6,44.5l1.3-1.3l2.6,2.6l-1.3,1.3L37.6,44.5z"/>
	<path class="st1" d="M43.4,44l0.8,5.7l-5.7-0.8L43.4,44z"/>
	<path class="st1" d="M36,41.1c0,0.3-0.2,0.5-0.5,0.5h-2.7c-0.3,0-0.5-0.2-0.5-0.5v-2.7c0-0.3,0.2-0.5,0.5-0.5h2.7
		c0.3,0,0.5,0.2,0.5,0.5V41.1L36,41.1z"/>
</g>
</svg>
