<svg id="Layer_1" data-name="Layer 1" xmlns="http://www.w3.org/2000/svg" viewBox="0 0 74 74"><defs><style>.cls-1{fill:none;stroke:#006faf;stroke-miterlimit:10;stroke-width:2px;}.cls-2{fill:#006faf;}</style></defs><title>log_shipping</title><circle class="cls-1" cx="37" cy="37" r="36"/><path class="cls-2" d="M53.33,24.12H21.42a1.55,1.55,0,0,0-1.55,1.55v3.47a1.55,1.55,0,0,0,1.55,1.55h.34V50.41A1.55,1.55,0,0,0,23.31,52H51.44A1.55,1.55,0,0,0,53,50.41V30.69h.34a1.55,1.55,0,0,0,1.55-1.55V25.67A1.55,1.55,0,0,0,53.33,24.12ZM51.44,50.41H23.31V30.69H51.44V50.41Zm1.89-21.26H21.42V25.67h31.9v3.47Z"/><path class="cls-2" d="M40,40.88V39.2a2.58,2.58,0,1,0-5.16,0v1.69a2.25,2.25,0,0,0-1.72,2.18v2.66A2.25,2.25,0,0,0,35.32,48h4.11a2.25,2.25,0,0,0,2.25-2.25V43.07A2.25,2.25,0,0,0,40,40.88ZM36.19,39.2a1.19,1.19,0,1,1,2.38,0v1.62H36.19V39.2Zm4.09,6.53a.85.85,0,0,1-.85.85H35.32a.85.85,0,0,1-.85-.85V43.07a.85.85,0,0,1,.85-.85h4.11a.85.85,0,0,1,.85.85Z"/><path class="cls-2" d="M32.9,33H26.17a.7.7,0,0,0,0,1.39H32.9a.7.7,0,0,0,0-1.39Z"/><path class="cls-2" d="M29.54,36.08H26.17a.7.7,0,0,0,0,1.39h3.37a.7.7,0,0,0,0-1.39Z"/></svg>