<?xml version="1.0" encoding="utf-8"?>
<!-- Generator: Adobe Illustrator 21.0.2, SVG Export Plug-In . SVG Version: 6.00 Build 0)  -->
<svg version="1.1" id="Layer_1" xmlns="http://www.w3.org/2000/svg" xmlns:xlink="http://www.w3.org/1999/xlink" x="0px" y="0px"
	 viewBox="0 0 74 74" style="enable-background:new 0 0 74 74;" xml:space="preserve">
<style type="text/css">
	.st0{fill:none;stroke:#006FAF;stroke-width:2;stroke-miterlimit:10;}
	.st1{fill:#006FAF;}
</style>
<title>Cloud &amp;amp; Infrastructure Services</title>
<circle class="st0" cx="37" cy="37" r="36"/>
<g>
	<path class="st1" d="M37.6,34.6v-3.2H36v3.2c0,0.6-0.5,1.1-1.3,1.3l-2.2,0.4C31,36.9,30,38,30,39.3V43h1.6v-3.6
		c0-0.6,0.5-1.1,1.3-1.3l2.2-0.5C36.6,37.1,37.6,35.9,37.6,34.6z"/>
	<g>
		<path class="st1" d="M33.5,44.6v-2.9c0-0.7-0.6-1.3-1.3-1.3h-2.9c-0.7,0-1.3,0.6-1.3,1.3v2.9c0,0.7,0.6,1.3,1.3,1.3h2.9
			C33,45.9,33.5,45.3,33.5,44.6z"/>
	</g>
	<path class="st1" d="M35.8,34.6v-3.2h1.6v3.2c0,0.6,0.5,1.1,1.3,1.3l2.7,0.6C43,37,44,38.2,44,39.4V43h-1.6v-3.6
		c0-0.6-0.5-1.1-1.3-1.3l-2.7-0.6C36.9,37.1,35.8,35.9,35.8,34.6z"/>
	<g>
		<path class="st1" d="M40.5,44.7v-2.9c0-0.7,0.6-1.3,1.3-1.3h2.9c0.7,0,1.3,0.6,1.3,1.3v2.9c0,0.7-0.6,1.3-1.3,1.3h-2.9
			C41,46,40.5,45.4,40.5,44.7z"/>
	</g>
	<rect x="35.8" y="31.4" class="st1" width="1.8" height="3.1"/>
	<path class="st1" d="M38,28.5v2.4h-2.4v-2.4H38 M38.5,26.7h-3.4c-0.7,0-1.3,0.6-1.3,1.3v3.4c0,0.7,0.6,1.3,1.3,1.3h3.4
		c0.7,0,1.3-0.6,1.3-1.3V28C39.8,27.3,39.2,26.7,38.5,26.7L38.5,26.7z"/>
	<path class="st1" d="M26.1,49.4c-1.3,0-2.3-0.3-2.9-0.7c-0.6-0.5-0.8-1.3-0.8-2.6v-6.7c0-1.1-0.4-1.7-1.3-1.7V36
		c0.9,0,1.3-0.6,1.3-1.7v-6.5c0-1.2,0.3-2.1,0.8-2.6c0.6-0.5,1.5-0.7,2.9-0.7v1.7c-1,0-1.5,0.5-1.5,1.6v6.4c0,1.5-0.4,2.4-1.4,2.8
		l0,0c0.9,0.4,1.4,1.3,1.4,2.8v6.3c0,0.6,0.1,1,0.3,1.3c0.3,0.3,0.6,0.4,1.1,0.4L26.1,49.4C26,49.4,26.1,49.4,26.1,49.4z"/>
	<path class="st1" d="M47.9,24.6c1.3,0,2.3,0.3,2.9,0.7c0.6,0.5,0.8,1.3,0.8,2.6v6.7c0,1.1,0.4,1.7,1.3,1.7V38
		c-0.9,0-1.3,0.6-1.3,1.7V46c0,1.2-0.3,2.1-0.8,2.6s-1.5,0.8-2.9,0.8v-1.7c1,0,1.5-0.5,1.5-1.6v-6.4c0-1.5,0.4-2.4,1.4-2.8l0,0
		c-0.9-0.4-1.4-1.3-1.4-2.8v-6.3c0-0.6-0.1-1-0.3-1.3c-0.3-0.3-0.6-0.4-1.1-0.4L47.9,24.6L47.9,24.6z"/>
</g>
</svg>
