<?xml version="1.0" encoding="utf-8"?>
<!-- Generator: Adobe Illustrator 21.0.2, SVG Export Plug-In . SVG Version: 6.00 Build 0)  -->
<svg version="1.1" id="Layer_1" xmlns="http://www.w3.org/2000/svg" xmlns:xlink="http://www.w3.org/1999/xlink" x="0px" y="0px"
	 viewBox="0 0 74 74" style="enable-background:new 0 0 74 74;" xml:space="preserve">
<style type="text/css">
	.st0{fill:#006FAF;}
</style>
<title>Cloud &amp;amp; Infrastructure Services</title>
<path class="st0" d="M37,74C16.6,74,0,57.4,0,37S16.6,0,37,0s37,16.6,37,37S57.4,74,37,74z M37,2C17.7,2,2,17.7,2,37s15.7,35,35,35
	s35-15.7,35-35S56.3,2,37,2z"/>
<g>
	<path class="st0" d="M60.1,34.7c-0.8-0.8-1.5-1.6-2.3-2.3c-0.5-0.5-1.4-0.5-1.9,0.1c-0.5,0.5-0.5,1.4,0,1.9
		c0.8,0.8,1.5,1.5,2.3,2.3c0.7,0.7,1.9,0.4,2.3-0.6c0,0,0-0.1,0.1-0.1c0-0.2,0-0.4,0-0.6C60.4,35.1,60.3,34.9,60.1,34.7z"/>
	<path class="st0" d="M24.7,39.9c-0.5-0.2-0.9-0.3-1.4-0.5c-0.7-0.4-0.7-1.4-0.1-1.8c0.6-0.4,1.5-0.4,2,0.1c0.1,0.1,0.2,0.2,0.3,0.2
		c0.1,0,0.2-0.2,0.3-0.2c0.2-0.1,0.2-0.2,0-0.4c-0.7-0.6-1.5-0.7-2.4-0.5c-1,0.3-1.5,1-1.3,2c0.1,0.7,0.6,1,1.1,1.3
		c0.5,0.2,1,0.3,1.5,0.6c0.8,0.5,0.8,1.5,0,2c-0.6,0.4-1.4,0.3-2-0.2c-0.1-0.1-0.2-0.3-0.3-0.3c-0.1,0-0.3,0.2-0.4,0.3
		s-0.1,0.1,0,0.2c0.3,0.3,0.6,0.5,0.9,0.6c0.2,0.1,0.4,0.1,0.5,0.2c0.3,0,0.6,0,0.9,0c0.1-0.1,0.3-0.1,0.4-0.1
		c1.2-0.3,1.8-1.8,1-2.8C25.5,40.2,25.1,40,24.7,39.9z"/>
	<path class="st0" d="M14.9,33.9c-0.1,0-0.3,0-0.4,0c-0.2,0-0.2,0-0.2-0.2c0-1.1,0-2.1,0-3.2c-0.2,0-0.3,0-0.5,0s-0.2,0-0.2,0.2
		c0,1.3,0,2.5,0,3.8c0.8,0,1.6,0,2.5,0C15.6,33.9,15.6,33.9,14.9,33.9z"/>
	<path class="st0" d="M22.3,31.2c0.5,0,0.5,0,0.5-0.5v-0.1c-0.2,0-0.4,0-0.6,0c0,0.1,0,0.3,0,0.4C22.1,31.1,22.2,31.2,22.3,31.2z"/>
	<path class="st0" d="M47.8,35.1c-1.1-1.1-2.2-2.2-3.3-3.3c-0.4-0.4-0.9-0.6-1.4-0.4c-1,0.3-1.3,1.6-0.5,2.3c1.5,1.5,3,3,4.5,4.5
		s3.1,3.1,4.6,4.6c0.3,0.3,0.6,0.5,1.1,0.5c0.2,0,0.4,0,0.5-0.1c0.9-0.4,1.1-1.6,0.4-2.3C51.7,39,49.7,37.1,47.8,35.1z"/>
	<path class="st0" d="M55.7,36.5c-1.5-1.5-3-3-4.4-4.4c-0.6-0.6-1.5-0.6-2,0c-0.5,0.5-0.5,1.4,0,2c1.9,1.9,3.8,3.8,5.7,5.7
		c0.3,0.3,0.6,0.4,1,0.4c0.1,0,0.2,0,0.3,0c1.1-0.3,1.4-1.5,0.7-2.3C56.5,37.4,56.1,37,55.7,36.5z"/>
	<path class="st0" d="M41.4,36.9c-0.2,0-0.3,0.1-0.3,0.3c0,1.7,0,3.4,0,5.2c-0.1-0.1-0.1-0.2-0.2-0.3c-1.1-1.6-2.2-3.1-3.2-4.7
		c-0.2-0.4-0.5-0.6-0.9-0.5c-0.2,0-0.2,0-0.2,0.2c0,1.9,0,3.9,0,5.8c0,0.4,0,0.4,0.4,0.4c0.2,0,0.2-0.1,0.2-0.3c0-1.7,0-3.3,0-5
		c0-0.1,0-0.2,0-0.2c0.1,0.1,0.1,0.1,0.2,0.2c1.1,1.6,2.2,3.2,3.2,4.8c0.2,0.4,0.5,0.5,0.9,0.5c0.2,0,0.3,0,0.3-0.3
		c0-1.9,0-3.9,0-5.8C41.8,36.9,41.8,36.9,41.4,36.9z"/>
	<path class="st0" d="M18.5,37.1c-0.5,1.3-1,2.6-1.5,3.9c-0.2,0.5-0.4,1-0.5,1.5c0-0.1,0-0.1,0-0.1c-0.6-1.6-1.2-3.2-1.8-4.9
		c-0.2-0.6-0.2-0.6-0.9-0.6c0,0,0,0-0.1,0c0.1,0.4,0.3,0.7,0.4,1.1c0.7,1.7,1.3,3.4,2,5.1c0.1,0.2,0.1,0.3,0.3,0.2
		c0.1,0,0.1,0,0.2,0c0.2,0,0.3-0.1,0.4-0.3c0.5-1.3,1-2.7,1.5-4c0.3-0.7,0.5-1.4,0.8-2.1c-0.2,0-0.3,0-0.5,0
		C18.6,36.8,18.5,36.9,18.5,37.1z"/>
	<path class="st0" d="M21.1,31.6c-0.2,0-0.2,0-0.2,0.2v0.1c-0.6-0.7-1.6-0.4-1.9,0.3c-0.3,0.6-0.3,1.1,0,1.7c0.2,0.4,0.6,0.6,1,0.7
		c0.4,0,0.7-0.1,1-0.5c0,0.2,0,0.4,0,0.6c-0.1,0.3-0.2,0.4-0.5,0.5s-0.6,0.1-0.8-0.2c-0.1-0.2-0.2-0.2-0.3-0.2c-0.1,0-0.2,0-0.3,0
		c-0.1,0-0.2,0-0.1,0.2c0.1,0.3,0.3,0.5,0.6,0.6c0.3,0.1,0.7,0.1,1,0.1c0.7-0.1,1-0.5,1-1.2c0-0.8,0-1.6,0-2.4
		C21.6,31.6,21.6,31.7,21.1,31.6z M20.9,33.4c-0.1,0.4-0.4,0.6-0.8,0.6c-0.3,0-0.6-0.3-0.7-0.7c0-0.1,0-0.2,0-0.2
		c0-0.2,0-0.4,0.1-0.6c0.1-0.3,0.3-0.4,0.7-0.4c0.3,0,0.5,0.1,0.6,0.4C21,32.8,21,33.1,20.9,33.4z"/>
	<path class="st0" d="M17.2,34.6c0.9,0,1.5-0.6,1.5-1.5s-0.6-1.5-1.5-1.5s-1.5,0.6-1.5,1.5C15.7,34,16.3,34.6,17.2,34.6z M17,32.1
		c0.3-0.1,0.7,0,0.8,0.3c0.2,0.4,0.2,0.9,0,1.3C17.6,34,17.3,34.1,17,34c-0.3-0.1-0.6-0.4-0.6-0.8c0-0.1,0-0.2,0-0.2
		C16.3,32.6,16.6,32.2,17,32.1z"/>
	<path class="st0" d="M20.3,36.9c-0.2,0-0.2,0-0.2,0.2c0,1,0,2,0,3c0,0.9,0,1.9,0,2.8c0,0.4,0,0.4,0.4,0.4c0.2,0,0.3,0,0.3-0.3
		c0-1.9,0-3.8,0-5.7C20.8,36.9,20.8,36.9,20.3,36.9z"/>
	<path class="st0" d="M27.4,36.9c-0.2,0-0.2,0-0.2,0.2c0,1,0,2,0,3c0,0.9,0,1.9,0,2.8c0,0.4,0,0.4,0.4,0.4c0.2,0,0.2-0.1,0.2-0.2
		c0-1.9,0-3.8,0-5.7C27.9,36.9,27.9,36.9,27.4,36.9z"/>
	<path class="st0" d="M22.6,34.5c0.1,0,0.2,0,0.2-0.2c0-0.4,0-0.9,0-1.3c0-0.3,0-0.7,0-1c0-0.5,0-0.5-0.5-0.5c-0.1,0-0.2,0-0.2,0.2
		c0,0.7,0,1.5,0,2.2C22.1,34.6,22.1,34.5,22.6,34.5z"/>
	<path class="st0" d="M31.7,36.7C30.1,37,29,38.3,28.9,40c0,1.5,0.8,2.7,2.1,3.2c0.2,0.1,0.5,0.1,0.7,0.2c0.3,0,0.7,0,1,0
		c0.1-0.1,0.2,0,0.3-0.1c1.6-0.4,2.5-1.6,2.6-3.2C35.7,38.1,34,36.4,31.7,36.7z M33.8,42.4C33,43,32.1,43,31.1,42.6
		c-0.9-0.4-1.4-1.2-1.5-2.2c0-0.1,0-0.2,0-0.3c0-1.3,0.7-2.3,1.8-2.7c1.7-0.5,3.3,0.6,3.5,2.4C35,40.8,34.7,41.8,33.8,42.4z"/>
</g>
</svg>
