<?xml version="1.0" encoding="utf-8"?>
<!-- Generator: Adobe Illustrator 21.0.2, SVG Export Plug-In . SVG Version: 6.00 Build 0)  -->
<svg version="1.1" id="Layer_1" xmlns="http://www.w3.org/2000/svg" xmlns:xlink="http://www.w3.org/1999/xlink" x="0px" y="0px"
	 viewBox="0 0 74 74" style="enable-background:new 0 0 74 74;" xml:space="preserve">
<style type="text/css">
	.st0{fill:none;stroke:#006FAF;stroke-width:2;stroke-miterlimit:10;}
	.st1{fill:#006FAF;}
	.st2{fill:none;}
	.st3{fill-rule:evenodd;clip-rule:evenodd;fill:none;stroke:#006FAF;stroke-width:2;stroke-miterlimit:10;}
	.st4{fill:#006FAF;stroke:#006FAF;stroke-miterlimit:10;}
	.st5{fill:#FFFFFF;}
</style>
<circle class="st0" cx="37" cy="37" r="36"/>
<g>
	<path class="st1" d="M35,28.8L35,28.8c-0.6,0.1-0.7,0.1-1.1,0.5l0,0c-0.6,0.6-1.2,2.7-1.4,3.5l0.2,0.1c0-0.1,0.1-0.2,0.2-0.4
		c0.3-0.7,0.9-2.1,1.3-2.6c-0.1,0.4-0.1,0.7,0,1.3l0.1,0.9l0.1-0.9c0.1-0.8,0.4-1.2,0.8-1.7l0.1-0.1c0.6-0.1,1.1-0.3,1.7-0.5
		l0.9-0.3L37,28.6C36.3,28.7,35.7,28.7,35,28.8z"/>
	<path class="st1" d="M53.9,31.5c-0.1-0.8-0.4-1.9-0.8-2.8c0-0.1-0.1-0.2-0.2-0.3c-0.1-0.1-0.3-0.3-0.5-0.4l0.1-0.4L52.3,28
		c-0.1,0-0.1-0.1-0.2-0.1c-0.3-0.1-0.6-0.2-1,0C51,28,51,28,50.9,28.1c-0.2,0.2-0.3,0.4-0.5,0.6l0,0c-0.1,0.2-0.3,0.4-0.5,0.6
		c-0.2,0.1-0.4,0.2-0.6,0.3c-0.1-0.2-0.2-0.4-0.3-0.6c-0.2-0.3-0.3-0.5-0.6-0.8c-0.2-0.2-0.4-0.4-0.6-0.5c-0.2-0.1-0.4-0.3-0.6-0.4
		c-0.6-0.4-1.1-0.8-1.6-1.3l0,0c-0.2-0.2-0.5-0.4-0.7-0.6c-1.2-1-2.4-1.5-3.7-1.6c-1.2-0.1-2.4,0.2-4.1,0.9
		c-0.7,0.3-1.3,0.7-1.8,1.1c-0.4,0.4-0.8,0.9-1.3,1.4c-0.2,0-0.4,0.1-0.7,0.1c-0.3,0.1-0.5,0.3-0.8,0.5c-0.2,0.2-0.4,0.4-0.6,0.6
		c-0.2,0.2-0.3,0.3-0.5,0.5c-1.5,0.2-2.6,0.5-3.5,0.9c-1.1,0.4-2,1-2.9,1.8c-0.4,0.3-0.7,0.7-1,1.1c-0.3,0.4-0.5,0.8-0.8,1.2
		L23.1,34c-0.1,0.1-0.1,0.1-0.2,0.2l0-0.1c0.1-0.3,0.1-0.7,0-1.1c0-0.2-0.2-0.4-0.3-0.6l0-0.1c0.1-0.2,0.1-0.3,0.2-0.5l0.2-0.5
		l-0.5,0.1c-0.4,0.1-1.3,0.6-1.9,1.2c-0.3,0.3-0.4,0.5-0.6,0.8c-0.2,0.3-0.2,0.6-0.1,0.9c0,0.3,0.2,0.5,0.4,0.8
		c0,0.2,0.1,0.3,0.1,0.4c0.1,0.2,0.1,0.3,0.2,0.4c0.2,0.4,0.5,0.6,0.9,0.8c0.2,0.1,0.5,0.1,0.7,0.1c0,0.3-0.1,0.6-0.1,0.9
		c0,0.5,0,1,0.1,1.6c0,0.1,0,0.3,0.1,0.4c0,0.1,0,0.3,0.1,0.4L22,40.9c0,0.1-0.1,0.2-0.1,0.4l0,0c-0.2,0.2-0.3,0.3-0.5,0.5l-0.6,0.6
		c-0.4,0.4-0.5,0.5-0.3,1.1c0.1,0.4,0.2,0.7,0.4,1.1c0.2,0.3,0.4,0.7,0.7,1c0.4,0.4,1,0.8,1.6,1.1c0.3,0.1,0.6,0.2,0.9,0.2
		c-0.1,0.1-0.1,0.3-0.2,0.4c-0.4,0.9-0.1,1.5,0.7,1.9c0.3,0.2,0.8,0.3,1.1,0.4c0.1,0,0.1,0,0.2,0.1l0.1,0c0.5,0.1,1.2,0.3,1.8,0.4
		c1,0.1,1.6-0.2,1.7-0.9c0.1-0.3,0.1-0.5,0.1-0.7c0-0.2,0-0.4,0-0.6c0.2-0.4,0.3-0.6,0.4-0.8c0,0,0.1-0.1,0.1-0.1
		c0.2-0.3,0.3-0.5,0.3-0.7c0-0.2,0-0.4,0-0.7c0.4,0,0.8,0.1,1.2,0.1c0.1,0,0.1,0,0.2,0c-0.3,0.2-0.5,0.7-0.3,1.5
		c0.2,0.6,0.5,1.1,0.7,1.4c0.5,0.7,0.9,1.3,1.4,1.6c0.3,0.2,0.6,0.3,0.9,0.3c0.4,0,0.7-0.1,1.1-0.3c0.4-0.2,0.6-0.5,0.8-0.8l0-0.1
		c0-0.1,0.1-0.1,0.1-0.2c0.2-0.1,0.6-0.5,1-0.8l0,0c0.1-0.1,0.2-0.2,0.3-0.3c0.1,0.1,0.2,0.1,0.4,0.1c0.2,0.1,0.5,0.1,0.8,0.1
		c0.2,0,0.9,0,1.4,0h0.3c0.5,0,0.9,0,1.2-0.2c0.4-0.2,0.6-0.6,0.6-1.1c0-0.2,0-0.4,0-0.6c0-0.2-0.1-0.3-0.2-0.5l0-1.5
		c0-0.3,0-0.6-0.1-0.8c-0.1-0.3-0.2-0.5-0.3-0.8c-0.1-0.2-0.1-0.4-0.2-0.5c-0.1-0.2-0.1-0.4-0.2-0.6l0.4,0.4
		c0.3,0.3,0.6,0.6,0.9,0.8c0.4,0.2,0.8,0.3,1.3,0.3c0.5,0,1.1-0.2,1.6-0.6c0.5-0.4,0.8-0.8,1-1.3l0.2-0.6c0.7,0.1,1.5,0.1,2.1,0.1
		c0.8-0.1,1.5-0.3,2-0.6c0.8-0.5,1.5-1.1,2-2c0.5-0.9,0.8-1.9,0.9-3.1v0C54.2,33.9,54.1,32.6,53.9,31.5z M22.3,33.1
		C22.3,33.1,22.3,33.1,22.3,33.1C22.3,33.1,22.3,33.1,22.3,33.1C22.3,33.1,22.3,33.1,22.3,33.1z M21.7,33c-0.1,0.3-0.1,0.5-0.1,0.8
		c0,0.4,0,0.8-0.4,1.1l-0.1,0.1l0,0.1c0,0.1,0.1,0.2,0.1,0.2c0.2,0.5,0.4,0.7,1.1,0.4c0.1-0.1,0.3-0.1,0.4-0.2
		c0,0.1-0.1,0.3-0.1,0.4l0,0.1c-0.4,0.2-1.1,0.3-1.3-0.1c-0.1-0.3-0.2-0.5-0.3-0.9l0-0.1c-0.2-0.2-0.3-0.4-0.2-0.7
		c0.1-0.5,0.6-1,1-1.4C21.7,32.9,21.7,32.9,21.7,33z M50.2,30.5c-0.3,0.2-0.5,0.1-0.9,0.1c0.1-0.1,0.3-0.1,0.4-0.2
		c0.2-0.1,0.5-0.2,0.7-0.3c0.2-0.2,0.4-0.4,0.6-0.7c0.1-0.2,0.3-0.4,0.4-0.5c0.1-0.1,0.2-0.1,0.3-0.1c0,0,0.1,0,0.1,0
		C51.5,29.6,50.9,30.1,50.2,30.5z M47.5,30.6C47.5,30.6,47.5,30.6,47.5,30.6c0.1,0,0.2,0.1,0.2,0.2c0,0,0,0,0,0
		c-0.1,0-0.2,0.1-0.4,0.1c0-0.1,0-0.1,0-0.2C47.3,30.7,47.4,30.6,47.5,30.6z M47.8,28.7c0.3,0.3,0.5,0.7,0.6,1.1c0,0-0.1,0-0.1,0
		c-0.1,0-0.2-0.1-0.3-0.1c-0.2,0-0.4,0-0.6,0.1c-0.2,0.1-0.6,0.2-0.8,0.3l-0.5,0.1l0.5,0.2c0.1,0,0.3,0.1,0.4,0c0,0.1,0,0.1,0,0.2
		c0,0.2,0,0.4,0.1,0.5l0,0c-0.1,0-0.1,0.1-0.2,0.1L46,31.5l1-0.1c0.5-0.1,1-0.1,1.5,0c0,0.1,0,0.2,0.1,0.3l0,0
		c-0.3-0.2-0.6-0.2-1-0.1c-0.9,0.2-1,0.6-1.2,1.2c-0.1,0.2-0.2,0.5-0.3,0.8l0.2,0.1c0.2-0.2,0.3-0.5,0.4-0.7
		c0.2-0.4,0.4-0.7,0.9-0.9c-0.1,0.1-0.2,0.2-0.2,0.3c-0.1,0.4-0.2,0.7-0.2,1c0,0.3-0.1,0.6-0.2,1l0.2,0.1c0.2-0.3,0.3-0.7,0.4-1
		c0.1-0.3,0.2-0.5,0.3-0.8c0.1-0.2,0.5-0.5,0.7-0.5l0.1,0c0.1,0.4,0.1,0.7,0.1,1c0,0.6-0.2,1.5-0.3,1.8l-0.2,0.6l0.4-0.5
		c0.3-0.4,0.4-1,0.6-1.6l0.1-0.3c0.1-0.6,0.1-1.3,0-2.1c0-0.1,0-0.2,0-0.3c0.1,0,0.1,0,0.2,0.1c0.4,0.1,0.7,0.2,1.1,0.1
		c0.8-0.3,1.4-0.9,1.7-2c0.1,0.1,0.2,0.2,0.3,0.4c0.6,1.4,0.9,3.8,0.7,5.4c-0.2,1.5-0.9,3.5-2.5,4.3c-1.8,1-4,0.4-6-0.2
		c-0.4-0.1-0.6-0.3-0.9-0.5l-0.3-0.2l0,0c0.1,0,0.2-0.1,0.3-0.2c0.1-0.1,0.3-0.1,0.4-0.2l0.6-0.4l-0.7,0.1c-0.1,0-0.3,0.1-0.5,0.1
		l-0.2,0c-0.6,0.1-0.7,0.3-0.8,0.8l0,0.3c0,0.2-0.1,0.3-0.1,0.5l-0.2,1.2l0.4-1.1c0.1-0.3,0.2-0.6,0.3-0.8c0.1-0.2,0.1-0.2,0.3-0.3
		l0.1,0.2c0.1,0.5,0.1,0.9,0,1.3c-0.2,0.6-0.4,1.3-0.1,1.8c0.1,0.2,0.3,0.3,0.6,0.4c0.4,0.1,0.6,0.1,1.1-0.2l0.5-0.2
		c-0.4,0.3-0.9,0.6-1.3,0.6c0,0,0,0,0,0c-0.6,0-1-0.4-1.5-0.8l-1.1-1l0,0c-1-0.3-1.7-0.6-2.4-1.2l-0.9-0.6l0.7,0.8
		c0.6,0.7,1,1.1,1.8,1.4c-0.1,0.8-0.3,1.5-0.6,2.2c-0.1,0.3-0.2,0.6-0.3,0.9c-0.2,0.5-1.4,2.6-1.8,2.8c-0.1,0.1-0.5,0.4-1,0.8
		c-0.5,0.4-1,0.8-1.1,0.9l0,0c-0.1,0.1-0.1,0.2-0.2,0.3c-0.2,0.2-0.3,0.5-0.5,0.6c-0.9,0.5-1.5-0.5-2.1-1.3
		c-0.5-0.9-0.6-1.3-0.5-1.5c0-0.1,0.1-0.2,0.2-0.2c0.5-0.3,0.9-0.5,1.4-0.8l0,0c0,0.1,0.1,0.1,0.1,0.2c0.1,0.1,0.1,0.1,0.1,0.2
		l0.3,0.5l-0.1-1.1c0-0.3,0-0.5,0-0.9l0.1-0.9l-0.2,0c0,0.1-0.1,0.3-0.2,0.4C34.1,43.9,34,44,34,44.2l0,0.1c0,0,0,0.1,0,0.1
		c-1.3,0.2-2.5,0.3-3.7,0.1c-0.1-0.5-0.2-0.9-0.3-1.3l-0.2-0.8l-0.1,0.8c0,0.3,0,1,0,1.6l0,0.6c0,0.5,0,0.6-0.3,1
		c-0.1,0.1-0.1,0.2-0.2,0.3c-0.1,0.2-0.3,0.4-0.5,0.9l0,0l0,0c0,0.4,0,0.7-0.1,1c0,0.1-0.3,0.5-2.4-0.1l-0.2,0
		c-0.4-0.1-1.1-0.3-1.3-0.6c-0.1-0.1-0.1-0.2,0-0.4c0.3-0.7,0.5-1.4,0.6-2.5l0,0l0,0c-1.3-1.8-2.1-3.9-2.3-5.6
		C22.9,37.9,23,37,23.3,36c0.6-1.6,1.3-2.8,2.4-3.7c1.4-1.2,2.7-1.8,4.9-2.2c-0.4,0.5-0.8,1-1.3,1.5l-0.2,0.2
		c-0.6,0.7-1,1.5-1.4,2.2c-0.6,1.1-0.5,1.6,0.2,2.5l0.2,0.3c0.4,0.6,0.7,0.9,0.9,1.6c-0.2,0.4-0.3,0.8-0.4,1.4l0,0.1l0,0
		c0.7,0.8,1.3,1.4,2.1,1.6c0.8,0.2,1.4,0.1,2-0.2c0.3-0.1,0.6-0.3,0.8-0.5c1.1-0.6,2.1-1.2,3.3-1.2l0.1,0l0-0.1
		c0.7-1.8,0.7-3.3,0.3-5.1c-0.2-1.1-0.3-2.2-0.4-3.5L37,30.3l-0.2,0.8c-0.3,1.3-0.3,2.4-0.1,3.6c0.3,1.4,0.5,3-0.2,4.3
		c-1.1,0.1-2.1,0.7-3.1,1.2c-0.3,0.1-0.5,0.3-0.8,0.4c-0.5,0.2-1,0.3-1.5,0.1c-0.5-0.1-0.8-0.4-1.4-1.1c0-0.6,0.1-0.9,0.4-1.5
		c0.5-1,1.1-1.9,1.6-2.8l-0.2-0.1c-0.2,0.2-0.4,0.4-0.6,0.7c-0.5,0.5-0.9,1.1-1.3,1.6c-0.2-0.4-0.4-0.7-0.7-1
		c-0.1-0.1-0.2-0.2-0.3-0.4c-0.5-0.7-0.5-0.9-0.2-1.6l0-0.1c0.4-0.8,0.7-1.4,1.3-2.1c0.4-0.5,0.9-1,1.3-1.5c0.6-0.8,1.3-1.5,2-2.2
		c0.6-0.6,0.8-0.6,1.5-0.7l0.2,0c0.8-0.1,1.6-0.3,2.4-0.5l0-0.2c-0.7,0.1-1.3,0.1-2,0.1c0.7-0.8,1.1-1.3,2.2-1.8
		c2.8-1.2,4.7-1.5,7.1,0.5c0.2,0.1,0.3,0.3,0.5,0.4c0.3,0.3,0.7,0.6,1,0.8c-0.1,0-0.3,0.1-0.4,0.1l0.1,0.2c0.3-0.1,0.6,0,0.9,0.1
		c0.1,0.1,0.2,0.1,0.2,0.1l0,0C47.3,28.2,47.5,28.3,47.8,28.7z M45,41.5c0,0-0.1,0-0.1,0c0.4-0.1,0.8-0.4,0.9-0.8
		c0-0.1,0-0.2,0.1-0.3c0-0.1,0-0.3,0.1-0.4c0.1,0,0.1,0,0.2,0.1l-0.2,0.7c-0.1,0.2-0.1,0.3-0.3,0.5L45,41.5z M40.9,47.2l-0.2,0
		c-0.4,0-1.2,0-1.5,0c-0.2,0-0.4,0-0.5-0.1c0.7-0.6,1.6-2.3,1.8-3c0.1-0.3,0.2-0.5,0.3-0.8c0.1-0.3,0.2-0.5,0.3-0.8
		c0,0.1,0.1,0.3,0.2,0.4c0.2,0.5,0.3,0.8,0.3,1.2l0,1.6l0,0.1c0.2,0.3,0.2,0.3,0.2,0.6C41.7,47.2,41.5,47.2,40.9,47.2z M22.8,41.6
		c0.5,1.5,1.2,2.7,1.7,3.6c0,0.2-0.1,0.3-0.2,0.5c-0.1,0.1-0.2,0.2-0.4,0.2c-0.6,0-1.5-0.6-1.8-1c-0.4-0.4-0.7-0.9-0.8-1.4
		c0-0.3,0-0.3,0.1-0.5l0.1-0.1c0.3-0.3,0.7-0.7,1-1L22.8,41.6z M46.9,27.9L46.9,27.9L46.9,27.9L46.9,27.9z M22.6,34.5
		c-0.2,0.2-0.3,0.3-0.5,0.3c0.1-0.2,0.2-0.5,0.2-0.7c0,0,0.1,0.1,0.1,0.1L22.6,34.5C22.6,34.5,22.6,34.5,22.6,34.5z"/>
	<path class="st1" d="M44,31.8c0-0.1,0-0.2-0.1-0.2l0,0c-0.1-0.2-0.3-0.4-0.5-0.5c0.2-0.1,0.3-0.2,0.5-0.3l0.6-0.6l-0.8,0.4
		c-0.2,0.1-0.5,0.2-0.7,0.2c-0.3,0.1-0.6,0.1-0.9,0.3c-0.2,0.2-0.5,0.5-0.8,0.8c-0.2,0.2-0.4,0.5-0.6,0.7L40.3,33l0.6-0.2
		c0.3-0.1,0.5-0.2,0.7-0.4c0,0.1,0,0.2,0.1,0.3c0.1,0.2,0.2,0.3,0.3,0.4l0.2-0.2c0,0,0-0.1-0.1-0.1c0-0.1,0-0.2,0-0.3
		c0-0.1,0.1-0.2,0.2-0.2c0.1,0,0.2,0,0.3,0c0.1,0,0.1,0.1,0.2,0.1c-0.2,0.2-0.4,0.3-0.5,0.5c-0.2,0.2-0.3,0.4-0.4,0.7l-0.2,0.7
		l0.4-0.5c0.7-0.9,1.8-1.6,2.9-1.9l0.8-0.2l-0.9,0C44.7,31.6,44.4,31.7,44,31.8z"/>
	<path class="st1" d="M41.8,28.7l1.1-0.5l-1.2,0.3c-1.5,0.4-2.1,1-1.8,2.3l0.1,0.6l0.1-0.6C40.3,30.1,40.6,29.3,41.8,28.7z"/>
</g>
</svg>
