<?xml version="1.0" encoding="utf-8"?>
<!-- Generator: Adobe Illustrator 21.0.2, SVG Export Plug-In . SVG Version: 6.00 Build 0)  -->
<svg version="1.1" id="Layer_1" xmlns="http://www.w3.org/2000/svg" xmlns:xlink="http://www.w3.org/1999/xlink" x="0px" y="0px"
	 viewBox="0 0 74 74" style="enable-background:new 0 0 74 74;" xml:space="preserve">
<style type="text/css">
	.st0{fill:none;stroke:#006FAF;stroke-width:2;stroke-miterlimit:10;}
	.st1{fill:#006FAF;}
	.st2{fill:none;}
	.st3{fill-rule:evenodd;clip-rule:evenodd;fill:none;stroke:#006FAF;stroke-width:2;stroke-miterlimit:10;}
	.st4{fill:#006FAF;stroke:#006FAF;stroke-miterlimit:10;}
	.st5{fill:#FFFFFF;}
</style>
<g>
	<circle class="st0" cx="37" cy="37" r="36"/>
	<g>
		<path class="st1" d="M16,42.2v-9.9h-1.5v10c0,2.4,1.5,3.6,3.7,3.4v-1.4C17,44.2,16,43.8,16,42.2L16,42.2z M22.7,44.4
			c-1.7,0-3.1-1.5-3.1-3.4s1.4-3.4,3.1-3.4c1.7,0,3.1,1.5,3.1,3.4C25.8,42.9,24.4,44.4,22.7,44.4L22.7,44.4z M22.7,36.1
			c-2.6,0-4.6,2.2-4.6,4.9c0,2.7,2,4.8,4.6,4.8s4.6-2.2,4.6-4.8C27.3,38.3,25.3,36.1,22.7,36.1L22.7,36.1z M45.7,36.4h-2.2l-4.2,4.2
			v-8.3h-1.5v13.4h1.5v-3l1.8-1.7l3.1,4.7H46l-3.9-5.8L45.7,36.4L45.7,36.4z M46.6,40c0.4-1.6,1.7-2.5,3-2.5s2.6,1,3,2.5H46.6
			L46.6,40L46.6,40z M49.6,36.1C47,36.1,45,38.3,45,41c0,2.7,2.1,4.8,4.7,4.8c2.1,0,3.7-1.1,4.3-3.1h-1.6c-0.5,1.1-1.4,1.7-2.7,1.7
			c-1.5,0-3-1.1-3.2-3.1h7.8C54.3,38.1,52,36.1,49.6,36.1L49.6,36.1z M56.5,37.4v-1H55v9.3h1.5v-5.4c0-1.9,1.4-2.7,3-2.6v-1.5
			C58.4,36,57.2,36.4,56.5,37.4L56.5,37.4z"/>
		<path class="st1" d="M32.4,36.1c-0.7,0-1.3,0.2-1.9,0.4l1,1.2c0.3-0.1,0.6-0.2,0.9-0.2c1.7,0,3.1,1.5,3.1,3.4s-1.4,3.4-3.1,3.4
			c-1.7,0-3.1-1.5-3.1-3.4c0-1.1,0.5-2.1,1.3-2.8l-1-1.2c-1.1,0.9-1.9,2.3-1.9,3.9c0,2.7,2,4.8,4.6,4.8s4.6-2.2,4.6-4.8
			C37,38.3,35,36.1,32.4,36.1L32.4,36.1z M29.8,34.4c0,0.4-0.2,0.7-0.4,1l0.7,0.8c0.5-0.4,0.8-1.1,0.8-1.8c0-0.5-0.2-1-0.5-1.4
			l-0.8,0.7C29.7,33.9,29.8,34.2,29.8,34.4L29.8,34.4z M28.5,35.8c-0.7,0-1.3-0.6-1.3-1.3c0-0.7,0.6-1.3,1.3-1.3
			c0.3,0,0.5,0.1,0.7,0.2l0.8-0.7c-0.4-0.3-0.9-0.6-1.5-0.6c-1.3,0-2.4,1.1-2.4,2.4s1.1,2.4,2.4,2.4c0.3,0,0.6-0.1,0.9-0.2l-0.7-0.9
			C28.6,35.8,28.5,35.8,28.5,35.8L28.5,35.8z M32.6,30c0.6,0,1,0.5,1,1c0,0.6-0.4,1-1,1c-0.3,0-0.5-0.1-0.7-0.3l-0.6,0.5
			c0.3,0.4,0.8,0.6,1.3,0.6c1,0,1.8-0.8,1.8-1.8s-0.8-1.8-1.8-1.8c-0.6,0-1.1,0.3-1.4,0.7l0.8,0.3C32.2,30.1,32.4,30,32.6,30
			L32.6,30z M31.6,31c0-0.2,0-0.3,0.1-0.5L31,30.2c-0.1,0.2-0.2,0.5-0.2,0.8s0.1,0.6,0.2,0.8l0.6-0.5C31.7,31.3,31.6,31.2,31.6,31
			L31.6,31z M28.9,30.7c0.5,0,0.9-0.3,1.1-0.8l-0.5-0.2c-0.1,0.3-0.3,0.5-0.6,0.5c-0.4,0-0.7-0.3-0.7-0.7c0-0.4,0.3-0.7,0.7-0.7
			s0.7,0.3,0.7,0.7l0.5,0.2c0-0.1,0-0.1,0-0.2c0-0.7-0.5-1.2-1.2-1.2s-1.2,0.5-1.2,1.2S28.2,30.7,28.9,30.7L28.9,30.7z"/>
	</g>
</g>
</svg>
