<?xml version="1.0" encoding="utf-8"?>
<!-- Generator: Adobe Illustrator 21.0.2, SVG Export Plug-In . SVG Version: 6.00 Build 0)  -->
<svg version="1.1" id="Layer_1" xmlns="http://www.w3.org/2000/svg" xmlns:xlink="http://www.w3.org/1999/xlink" x="0px" y="0px"
	 viewBox="0 0 74 74" style="enable-background:new 0 0 74 74;" xml:space="preserve">
<style type="text/css">
	.st0{fill:none;stroke:#006FAF;stroke-width:2;stroke-miterlimit:10;}
	.st1{fill:#006FAF;}
	.st2{fill:none;}
	.st3{fill-rule:evenodd;clip-rule:evenodd;fill:none;stroke:#006FAF;stroke-width:2;stroke-miterlimit:10;}
	.st4{fill:#006FAF;stroke:#006FAF;stroke-miterlimit:10;}
	.st5{fill:#FFFFFF;}
</style>
<circle class="st3" cx="37" cy="37" r="36"/>
<g>
	<g>
		<path class="st1" d="M18.3,40.6v-6.9h-1v7c0,1.7,1,2.5,2.6,2.4v-1C19,42,18.3,41.7,18.3,40.6L18.3,40.6z M23,42.1
			c-1.2,0-2.2-1-2.2-2.4c0-1.3,1-2.4,2.2-2.4c1.2,0,2.2,1,2.2,2.4C25.1,41.1,24.1,42.1,23,42.1L23,42.1z M23,36.3
			c-1.8,0-3.2,1.5-3.2,3.4c0,1.9,1.4,3.3,3.2,3.3c1.8,0,3.2-1.5,3.2-3.3C26.2,37.9,24.8,36.3,23,36.3L23,36.3z M39,36.5h-1.5
			l-2.9,2.9v-5.8h-1V43h1v-2.1l1.3-1.2l2.2,3.3h1.3l-2.7-4L39,36.5L39,36.5z"/>
		<path class="st1" d="M29.7,36.3c-0.5,0-0.9,0.1-1.3,0.3l0.7,0.8c0.2-0.1,0.4-0.1,0.6-0.1c1.2,0,2.2,1,2.2,2.4s-1,2.4-2.2,2.4
			c-1.2,0-2.2-1-2.2-2.4c0-0.8,0.3-1.5,0.9-1.9l-0.7-0.8c-0.8,0.6-1.3,1.6-1.3,2.7c0,1.9,1.4,3.3,3.2,3.3c1.8,0,3.2-1.5,3.2-3.3
			C32.9,37.9,31.5,36.3,29.7,36.3L29.7,36.3z M27.9,35.2c0,0.3-0.1,0.5-0.3,0.7l0.5,0.6c0.3-0.3,0.6-0.8,0.6-1.3
			c0-0.3-0.1-0.7-0.3-1l-0.6,0.5C27.8,34.8,27.9,35,27.9,35.2L27.9,35.2z M27,36.1c-0.5,0-0.9-0.4-0.9-0.9c0-0.5,0.4-0.9,0.9-0.9
			c0.2,0,0.3,0.1,0.5,0.1L28,34c-0.3-0.2-0.6-0.4-1-0.4c-0.9,0-1.7,0.8-1.7,1.7s0.8,1.7,1.7,1.7c0.2,0,0.4-0.1,0.6-0.1l-0.5-0.6
			C27.1,36.1,27,36.1,27,36.1L27,36.1z M29.8,32.1c0.4,0,0.7,0.3,0.7,0.7c0,0.4-0.3,0.7-0.7,0.7c-0.2,0-0.3-0.1-0.5-0.2l-0.4,0.3
			c0.2,0.3,0.6,0.4,0.9,0.4c0.7,0,1.3-0.6,1.3-1.3s-0.6-1.3-1.3-1.3c-0.4,0-0.8,0.2-1,0.5l0.6,0.2C29.6,32.2,29.7,32.1,29.8,32.1
			L29.8,32.1z M29.2,32.8c0-0.1,0-0.2,0.1-0.3l-0.5-0.2c-0.1,0.1-0.1,0.3-0.1,0.6c0,0.2,0.1,0.4,0.1,0.6l0.4-0.3
			C29.2,33,29.2,32.9,29.2,32.8L29.2,32.8z M27.3,32.6c0.3,0,0.6-0.2,0.8-0.6l-0.3-0.1c-0.1,0.2-0.2,0.3-0.4,0.3
			c-0.3,0-0.5-0.2-0.5-0.5c0-0.3,0.2-0.5,0.5-0.5c0.3,0,0.5,0.2,0.5,0.5l0.3,0.1c0-0.1,0-0.1,0-0.1c0-0.5-0.3-0.8-0.8-0.8
			c-0.5,0-0.8,0.3-0.8,0.8S26.8,32.6,27.3,32.6L27.3,32.6z"/>
	</g>
	<g>
		<path class="st1" d="M48.8,43.1l0-7.7l-3.4,6.7h-0.6l-3.4-6.7v7.7h-1v-9.3h1.3l3.4,6.7l3.4-6.7h1.3v9.3H48.8z"/>
		<path class="st1" d="M56.7,42.1v1h-5.1v-9.3h1.1v8.3H56.7z"/>
	</g>
</g>
</svg>
