<?xml version="1.0" encoding="utf-8"?>
<!-- Generator: Adobe Illustrator 21.0.2, SVG Export Plug-In . SVG Version: 6.00 Build 0)  -->
<svg version="1.1" id="Layer_1" xmlns="http://www.w3.org/2000/svg" xmlns:xlink="http://www.w3.org/1999/xlink" x="0px" y="0px"
	 viewBox="0 0 74 74" style="enable-background:new 0 0 74 74;" xml:space="preserve">
<style type="text/css">
	.st0{fill:none;stroke:#006FAF;stroke-width:2;stroke-miterlimit:10;}
	.st1{fill:#006FAF;}
	.st2{enable-background:new    ;}
</style>
<title>Cloud &amp;amp; Infrastructure Services</title>
<circle class="st0" cx="37" cy="37" r="36"/>
<g>
	<path class="st1" d="M48.8,16c-0.1,0-0.3,0-0.3-0.3c0,0-0.9,1-1.5,3.2c-0.6,2-0.9,2.9-1,3.4c-0.1,0.5-0.5,1.3-1,1.4
		c-0.5,0.1-1.9,0.4-2.8,1.3c-0.4,0.4-1.5,1.8-1.9,2c-0.5,0.4-1.1,1.1-2.3,0.9c-1.1-0.3-3.4-1.3-5.2,1.7c-0.3,0.4-0.4,0.8-0.5,1.1
		c-1,2.3-3.3,3.9-5.9,4.2c1.4,0,3.7-0.4,5.7-3.6c0,0.1,0,0.3,0,0.3c0.1,0.8,0.3,1.9,0.1,2.4c0,0.5,0.3,1,0,1.5s-0.6,2-0.6,2.7
		c0,0.3,0,0.5-0.1,0.8h3.2c0-0.3-0.1-0.1-0.1-0.1c-0.3-0.1-0.3-2,0-2.5l0,0l0,0l0,0l0,0l0,0l0,0l0,0l0,0l0,0l0,0l0,0l0,0l0,0l0,0
		l0,0l0,0l0,0l0,0l0,0l0,0l0.3-0.3l0,0l0,0l0,0l0,0l0,0l0,0H35l0,0l0,0l0,0l0,0l0,0l0,0l0,0l0,0l0,0V36l0,0l0,0l0,0l0,0l0,0l0,0l0,0
		l0,0l0,0v-0.1l0.3-0.1l0,0l0.6-0.1c0.4,0,0.9,0,1.3-0.1c0.3,0,0.4-0.1,0.6-0.3c0.4-0.3,0.8-0.4,1.1-0.5c0.1,0.4,0.3,0.6,0.4,1
		c0.3,0.4,0.3,1.1,0.3,2c-0.1,0.9-0.3,1.4-0.5,1.8c-0.3,0.4-0.5,0.6-0.5,0.9h3.2c0-0.3-0.1-0.1-0.1-0.3c-0.1-0.1-0.1-0.4,0-0.6
		c0.1-0.3,0.3-0.8,0.4-1.9c0.1-1.1,0.1-3.3,0.1-3.9s0-1.3,0-1.9c0-0.1,0.8-0.3,0.9-0.5c0.1-0.3,0.3-0.5,0.5-0.5s0.5,0,0.9-0.4
		c0.3-0.5,0.8-0.6,0.4-1l-0.1-0.1l0,0l-0.1-0.1l0,0c0,0,0,0-0.1,0c-0.1-0.1-0.4-0.3-0.5-0.3l0,0c0.1-0.3,0.3-0.3,0.4-0.4
		c0.3-0.5,0.5-1.1,0.8-1.7c0.3-0.1,0.4-0.3,0.4-0.6c2-0.8,1.9-2.2,1.9-2.5s-0.3-0.4-0.3-0.3c0.1,1-0.6,2-1.7,2.2c0,0,0,0.1,0,0.3
		c0-0.1,0-0.4,0-0.5c0.1,0,0.6-0.4,0.8-1.5c0-0.4,0-0.3,0-0.3s-0.1,0-0.1,0.3c-0.1,0.5-0.3,0.9-0.5,1.3c0-0.1,0-0.3,0.1-0.4
		c0.3-0.6,0.8-3.3,0.8-4.1c0.1-0.8,0.3-2,0.5-2.5c0.3-0.4,0.4-0.8,0.5-0.8C49,16.1,49,16,48.8,16z M33.2,37.9L33.2,37.9L33.2,37.9
		L33.2,37.9v0.4l0,0v0.1l0,0v0.1l0,0v0.1l0,0v0.1l0,0c-0.1-0.1-0.1-0.3-0.1-0.5c0.1-0.3,0.1-0.5,0.3-0.8L33.2,37.9z M41.6,39
		c-0.1-0.3-0.3-0.6,0-1c0.1-0.1,0.3-0.4,0.3-0.6C41.8,38,41.7,38.9,41.6,39z"/>
	<path class="st1" d="M25.7,35.2c-0.6,0.5-0.6,0.6-0.3,0.4s0.5-0.5,1-0.5C26.5,35.1,26.1,34.8,25.7,35.2z"/>
	<g class="st2">
		<path class="st1" d="M29.3,45.1v-3.6H30l0.9,2.5c0.1,0.3,0.1,0.4,0.1,0.5c0-0.1,0.1-0.4,0.1-0.6l0.9-2.5h0.6V45h-0.5v-2.9l-1,3.1
			h-0.4l-1-3.1v3.1H29.3z"/>
	</g>
	<g class="st2">
		<path class="st1" d="M32.6,45.1l1.4-3.6h0.5l1.5,3.6h-0.5L35.1,44h-1.5l-0.4,1.1H32.6z M33.6,43.6h1.3l-0.4-1
			c-0.1-0.3-0.3-0.5-0.3-0.8c0,0.3-0.1,0.5-0.3,0.6L33.6,43.6z"/>
	</g>
	<g class="st2">
		<path class="st1" d="M36,45.1v-3.6h0.5v1.5h1.8v-1.5h0.5v3.6h-0.5v-1.7h-1.9v1.7H36z"/>
	</g>
	<g class="st2">
		<path class="st1" d="M38.5,43.4c0-0.6,0.1-1,0.5-1.4c0.4-0.4,0.8-0.5,1.3-0.5c0.4,0,0.6,0.1,0.9,0.3c0.3,0.1,0.5,0.4,0.6,0.6
			c0.1,0.3,0.3,0.6,0.3,1c0,0.4-0.1,0.6-0.3,1c-0.1,0.4-0.4,0.5-0.6,0.6c-0.3,0.1-0.5,0.3-0.9,0.3c-0.4,0-0.6-0.1-0.9-0.3
			c-0.3-0.1-0.5-0.4-0.6-0.6C38.7,44.1,38.5,43.7,38.5,43.4z M39,43.4c0,0.4,0.1,0.8,0.4,1c0.3,0.3,0.5,0.4,0.9,0.4
			c0.4,0,0.6-0.1,0.9-0.4s0.4-0.6,0.4-1c0-0.3,0-0.5-0.1-0.8c-0.1-0.3-0.3-0.4-0.4-0.5C41,42,40.7,42,40.4,42
			c-0.4,0-0.6,0.1-0.9,0.4C39.2,42.5,39,42.9,39,43.4z"/>
	</g>
	<g class="st2">
		<path class="st1" d="M43.8,41.6h0.5v2c0,0.4,0,0.6-0.1,0.9c-0.1,0.3-0.3,0.4-0.4,0.5c-0.3,0.1-0.5,0.3-0.9,0.3
			c-0.4,0-0.6,0-0.8-0.1c-0.3-0.1-0.4-0.3-0.5-0.5c-0.1-0.3-0.1-0.5-0.1-0.9v-2H42v2c0,0.3,0,0.5,0.1,0.6c0.1,0.1,0.1,0.3,0.3,0.4
			c0.1,0.1,0.3,0.1,0.5,0.1c0.4,0,0.6-0.1,0.8-0.3c0.1-0.1,0.3-0.5,0.3-0.9v-2.2C43.9,41.6,43.8,41.6,43.8,41.6z"/>
	</g>
	<g class="st2">
		<path class="st1" d="M45,45.1V42h-1.1v-0.4h2.8V42h-1.1v3.2H45z"/>
	</g>
	<path class="st1" d="M18.9,39.2l3.6,12L37,58.2l15.4-7.5l2.5-11.6C54.9,39.2,18.9,39.2,18.9,39.2z M53.4,40.2l-1.3,5.3L37,46.4
		l-14.6-0.5l-1.7-5.7H53.4z"/>
</g>
</svg>
