<?xml version="1.0" encoding="utf-8"?>
<!-- Generator: Adobe Illustrator 21.0.2, SVG Export Plug-In . SVG Version: 6.00 Build 0)  -->
<svg version="1.1" id="Layer_1" xmlns="http://www.w3.org/2000/svg" xmlns:xlink="http://www.w3.org/1999/xlink" x="0px" y="0px"
	 viewBox="0 0 74 74" style="enable-background:new 0 0 74 74;" xml:space="preserve">
<style type="text/css">
	.st0{fill:#006FAF;}
</style>
<title>Cloud &amp;amp; Infrastructure Services</title>
<path class="st0" d="M37,74C16.6,74,0,57.4,0,37S16.6,0,37,0s37,16.6,37,37S57.4,74,37,74z M37,2C17.7,2,2,17.7,2,37s15.7,35,35,35
	s35-15.7,35-35S56.3,2,37,2z"/>
<g>
	<g>
		<path class="st0" d="M34.3,53.5h-2.1c-0.4,0-0.7-0.3-0.7-0.7V52c-0.1,0-0.2-0.1-0.2-0.2c-0.7,0.6-1.8,0.9-2.9,0.3
			c-0.3-0.1-1.1-0.4-1.6-1.3c-0.3-0.6-0.4-1.4-0.1-2.2v-1.5V47c-0.5-0.6-1-1.2-1.4-1.8c0-0.1-4.1-6.7,3.1-13
			c0.1-0.1,0.2-0.1,0.3-0.2c0.2-0.9,0.7-2.5,1.9-3.3c0.1-1,0.4-3.7,2.6-5.5c1.8-1.5,4.4-2,7.8-1.4c0.3,0,3,0.5,4.2,2
			c0.3-0.4,0.5-1,0.6-1.8v-0.1c0-0.1,0.3-1.4,1.3-1.7c1-0.2,1.9,0.9,2.3,1.3c0.7,0.6,6,5.2,2.7,10.7c-0.1,0.1-0.9,1.2-2.8,2.2
			c0,0.8-0.1,2.3-1.1,3.2c-0.8,0.7-1.9,0.9-3.2,0.6v0.2c1.1,0.7,3.8,2.8,3.4,4.7c-0.2,1.1-1.3,1.8-3.4,2.1l-0.6,1.1
			c0,0.7-0.1,2.6-1.4,3.3c-1.2,0.6-2.8,0-4.9-1.8c-0.1-0.1-0.2-0.3-0.2-0.5v-0.6L37,47.4v0.1c0.2,0.1,0.3,0.3,0.3,0.6l-0.1,2.1
			c0.2,0.3,0.5,0.9,0.3,1.6C37.2,52.7,36.2,53.3,34.3,53.5C34.3,53.5,34.3,53.5,34.3,53.5z M32.8,52.2h1.4c1.8-0.3,2.1-0.8,2.1-0.9
			c0.1-0.2-0.1-0.4-0.2-0.5C36,50.7,36,50.6,36,50.4l0.1-1.8c-0.2-0.1-0.3-0.3-0.3-0.5v-0.9c0-0.2,0.1-0.4,0.3-0.6l3.1-2.1
			c0.3-0.2,0.6-0.1,0.9,0.1c0.2,0.3,0.2,0.6,0,0.9l-1,1.1v0.7c2.1,1.7,3,1.6,3.3,1.5c0.6-0.3,0.7-1.6,0.7-2.2c0-0.1,0-0.2,0.1-0.3
			l0.8-1.5c0.1-0.2,0.3-0.3,0.5-0.3c1.6-0.2,2.5-0.7,2.6-1.2c0.2-0.9-1.8-2.7-3.2-3.5c-0.2-0.1-0.3-0.3-0.3-0.6v-1.4
			c0-0.2,0.1-0.4,0.3-0.5s0.4-0.2,0.6-0.1c1.3,0.4,2.3,0.3,2.9-0.2c0.8-0.7,0.7-2.1,0.7-2.5c0-0.3,0.1-0.6,0.4-0.7
			c1.9-0.9,2.7-2,2.7-2c2.9-4.7-2.3-8.8-2.5-8.9l-0.1-0.1c-0.7-0.9-1-0.9-1-0.9l0,0c-0.1,0-0.2,0.3-0.3,0.6
			c-0.1,2.3-1.6,3.3-1.7,3.4C45.4,26,45.2,26,45,26c-0.2-0.1-0.3-0.3-0.4-0.5c-0.3-1.3-2.7-1.9-3.6-2c-3-0.6-5.2-0.2-6.7,1.1
			c-2.1,1.8-2.1,4.8-2.1,4.9c0,0.2-0.1,0.5-0.4,0.6c-1,0.5-1.5,2.4-1.6,3.1c-0.1,0.3-0.3,0.5-0.6,0.5H29c-6.1,5.4-2.9,10.9-2.7,11.1
			c0.4,0.7,0.9,1.3,1.5,1.9c2,2,4.2,2.9,4.3,2.9c0.3,0.1,0.5,0.5,0.4,0.8l0,0v0.5c0.2,0.1,0.4,0.3,0.4,0.6v0.7H32.8z M27.9,48.4v0.4
			c0,0.1,0,0.2,0,0.2c-0.2,0.5-0.2,0.9,0,1.2c0.2,0.5,0.8,0.6,0.9,0.6s0.1,0,0.2,0.1c0.9,0.5,1.6-0.1,2-0.6
			C30.2,50,29.1,49.4,27.9,48.4z"/>
	</g>
	<g>
		<path class="st0" d="M24.7,45.1c-0.5,0-0.8,0-0.8,0c-0.1,0-0.1,0-0.2,0c-1.6-0.6-2.2-1.6-2.2-1.7v-0.1c-0.6-1.7-0.6-2.8-0.1-3.5
			c0.5-0.6,1.3-0.6,1.3-0.5c0.3,0,0.5,0.2,0.5,0.5c0.4,1.4,1.4,1.9,1.5,1.9c0.3,0.1,0.5,0.5,0.3,0.9c-0.1,0.3-0.5,0.5-0.8,0.3
			c-0.1,0-1.2-0.5-1.9-2c0,0.3,0,0.9,0.4,1.9c0.1,0.1,0.5,0.7,1.5,1.1c0.2,0,0.7,0,1.3,0c0.4,0,0.7,0.2,0.7,0.6
			c0,0.4-0.2,0.7-0.6,0.7C25.3,45.1,25,45.1,24.7,45.1z"/>
	</g>
	<g>
		<path class="st0" d="M35.3,44h-3c-0.4,0-0.6-0.3-0.7-0.6v-1.3c-2.3-0.5-3-2-3-2.1s-0.1-0.2-0.1-0.3v-6.6c0-0.4,0.3-0.7,0.7-0.7
			c0.4,0,0.7,0.3,0.7,0.7v6.4c0.2,0.3,0.8,1.1,2.5,1.3c1.2,0.2,1.7,0.2,1.7,0.9c-0.1,0.5-0.4,0.6-1.1,0.6v0.4h2l3.5-4.2l0,0
			c0,0,0.3-0.4,0.1-0.6l-0.1-0.1l-3.7-5.4c-0.2-0.3-0.1-0.7,0.2-0.9c0.3-0.2,0.7-0.1,0.9,0.2l3.6,5.4c0.8,0.8,0.4,1.9,0,2.3
			l-3.7,4.5C35.7,43.9,35.5,44,35.3,44z"/>
	</g>
	<g>
		<path class="st0" d="M40.4,30.1c-0.3,0-0.5-0.1-0.8-0.2s-0.4-0.4-0.5-0.6c-0.1-0.3,0-0.7,0.2-1s0.5-0.5,0.9-0.5
			c0.8-0.2,1.6,0.1,1.7,0.8l0,0c0.2,0.6-0.3,1.3-1.1,1.5C40.8,30.1,40.6,30.1,40.4,30.1z M40.8,28.6c-0.1,0-0.2,0-0.2,0
			c-0.2,0-0.3,0.1-0.4,0.2c0,0.1-0.1,0.1-0.1,0.2l0.1,0.1c0.1,0.1,0.3,0.1,0.5,0c0.3-0.1,0.5-0.3,0.5-0.4
			C41.1,28.7,41,28.6,40.8,28.6z"/>
	</g>
	<g>
		<path class="st0" d="M45.6,36.7h-1.3c-0.1,0-0.3-0.1-0.3-0.2c-0.1-0.1-0.1-0.2-0.1-0.4c0.1-0.6-0.6-1.4-0.9-1.6
			c-0.1-0.1-0.2-0.3-0.1-0.5c0-0.2,0.2-0.3,0.4-0.3l2.7-0.5c0.2,0,0.5,0.1,0.5,0.4v0.1c0.4,0.8-0.2,2.2-0.4,2.7
			C45.9,36.6,45.8,36.7,45.6,36.7z M44.7,35.7h0.6c0.3-0.7,0.4-1.3,0.4-1.5l-1.5,0.3C44.4,34.8,44.6,35.3,44.7,35.7z"/>
	</g>
</g>
</svg>
