<?xml version="1.0" encoding="utf-8"?>
<!-- Generator: Adobe Illustrator 21.0.2, SVG Export Plug-In . SVG Version: 6.00 Build 0)  -->
<svg version="1.1" id="Layer_1" xmlns="http://www.w3.org/2000/svg" xmlns:xlink="http://www.w3.org/1999/xlink" x="0px" y="0px"
	 viewBox="0 0 74 74" style="enable-background:new 0 0 74 74;" xml:space="preserve">
<style type="text/css">
	.st0{fill:none;stroke:#006FAF;stroke-width:2;stroke-miterlimit:10;}
	.st1{enable-background:new    ;}
	.st2{fill:#006FAF;}
</style>
<title>health-checks</title>
<circle class="st0" cx="37" cy="37" r="36"/>
<title></title>
<desc></desc>
<g id="Layer_3">
</g>
<g class="st1">
	<path class="st2" d="M17,42.3h-1.7v-9.8h2.6l3,6.1l3-6.1h2.6v9.8h-1.7v-7.6l-3.4,6.8h-0.9L17,34.6V42.3z"/>
	<path class="st2" d="M34.9,42.3h-1.4v-1C32.9,42,32,42.4,31,42.4c-0.8,0-1.4-0.2-1.9-0.7s-0.8-1-0.8-1.8s0.3-1.3,0.8-1.6
		c0.5-0.4,1.3-0.5,2.2-0.5h2v-0.3c0-1-0.6-1.5-1.7-1.5c-0.7,0-1.4,0.3-2.2,0.8l-0.7-1c0.9-0.7,1.9-1.1,3.1-1.1
		c0.9,0,1.6,0.2,2.1,0.7s0.8,1.1,0.8,2.1v4.8H34.9z M33.3,39.5v-0.6h-1.8c-1.1,0-1.7,0.4-1.7,1.1c0,0.4,0.1,0.6,0.4,0.8
		S31,41,31.5,41s0.9-0.1,1.3-0.4C33.2,40.3,33.3,40,33.3,39.5z"/>
	<path class="st2" d="M38.9,36.1v3.8c0,0.4,0.1,0.6,0.3,0.8S39.6,41,40,41s0.7-0.2,1-0.5l0.6,1.1c-0.6,0.5-1.2,0.7-1.8,0.7
		s-1.2-0.2-1.7-0.7s-0.7-1.1-0.7-1.9V36h-0.9v-1.3h0.9v-2.3H39v2.3h2V36h-2.1V36.1z"/>
	<path class="st2" d="M46.8,36.3c-0.8,0-1.4,0.3-1.8,0.8c-0.4,0.5-0.6,1.2-0.6,2v3.2h-1.6v-7.4h1.6v1.5c0.3-0.5,0.6-0.8,1-1.1
		s0.9-0.5,1.4-0.5L46.8,36.3L46.8,36.3z"/>
	<path class="st2" d="M48.5,33.3c-0.2-0.2-0.3-0.4-0.3-0.7s0.1-0.5,0.3-0.7s0.4-0.3,0.7-0.3s0.5,0.1,0.7,0.3
		c0.2,0.2,0.3,0.4,0.3,0.7s-0.1,0.5-0.3,0.7s-0.4,0.3-0.7,0.3S48.7,33.5,48.5,33.3z M50,42.3h-1.6v-7.4H50V42.3z"/>
	<path class="st2" d="M53.4,34.8l1.6,2.5l1.7-2.5h1.9L56,38.4l2.7,3.8h-1.9L55,39.8l-1.7,2.5h-1.8l2.6-3.8l-2.5-3.7H53.4z"/>
</g>
</svg>
