<svg id="Layer_1" data-name="Layer 1" xmlns="http://www.w3.org/2000/svg" viewBox="0 0 74 74"><defs><style>.cls-1{fill:none;stroke:#006faf;stroke-miterlimit:10;stroke-width:2px;}.cls-2{fill:#006faf;}</style></defs><title>MDX_queries</title><circle class="cls-1" cx="37" cy="37" r="36"/><path class="cls-2" d="M17.9,29.2l4.52,12.06h.12L27.06,29.2h3.36V44.86H27.75V39.52L28,32.68h-.12L23.23,44.86H21.49L16.85,32.8h-.12L17,39.52v5.34H14.3V29.2Z"/><path class="cls-2" d="M34,45V29.2h5.1A6.56,6.56,0,0,1,44,31.06a6.29,6.29,0,0,1,1.86,4.76v2.44A6.12,6.12,0,0,1,44,43a6.56,6.56,0,0,1-4.87,1.86H34ZM36.45,31.4V42.89h2.44a3.84,3.84,0,0,0,3-1.28,5,5,0,0,0,1.16-3.25V35.93a4.47,4.47,0,0,0-1.16-3.25,3.84,3.84,0,0,0-3-1.28Z"/><path class="cls-2" d="M53.5,35l3.25-5.8h3.13L55,37l5,7.89H56.87l-3.48-5.92L50,45H46.89l4.87-7.89-4.87-7.77H50Z"/></svg>