<?xml version="1.0" encoding="utf-8"?>
<!-- Generator: Adobe Illustrator 21.0.2, SVG Export Plug-In . SVG Version: 6.00 Build 0)  -->
<svg version="1.1" id="Layer_1" xmlns="http://www.w3.org/2000/svg" xmlns:xlink="http://www.w3.org/1999/xlink" x="0px" y="0px"
	 viewBox="0 0 74 74" style="enable-background:new 0 0 74 74;" xml:space="preserve">
<style type="text/css">
	.st0{fill:none;stroke:#006FAF;stroke-width:2;stroke-miterlimit:10;}
	.st1{fill:#006FAF;}
</style>
<title>java</title>
<circle class="st0" cx="37" cy="37" r="36"/>
<g id="Layer_1_1_">
</g>
<g>
	<polygon class="st1" points="37.1,36.9 37.1,26.9 28.4,31.9 	"/>
	<polygon class="st1" points="27.8,20.9 27.8,30.9 36.5,25.9 	"/>
	<polygon class="st1" points="38.2,36.9 46.9,31.9 46.9,31.9 38.2,26.9 	"/>
	<polygon class="st1" points="18,25.9 26.7,30.9 26.7,20.9 	"/>
	<polygon class="st1" points="48.5,32.9 48.5,42.9 57.2,37.9 	"/>
	<path class="st1" d="M26.7,30.9L26.7,30.9L26.7,30.9z"/>
	<polygon class="st1" points="26.7,54.9 26.7,44.8 18,49.9 	"/>
	<polygon class="st1" points="47.4,30.9 47.4,20.9 38.8,25.9 	"/>
	<polygon class="st1" points="17.4,38.9 17.4,48.9 26.1,43.9 	"/>
	<path class="st1" d="M26.2,43.9h-0.1H26.2z"/>
	<polygon class="st1" points="48.5,20.9 48.5,30.9 57.2,25.9 	"/>
	<polygon class="st1" points="48.5,54.9 57.2,49.9 57.2,49.9 48.5,44.8 	"/>
	<path class="st1" d="M26.7,42.9L26.7,42.9L26.7,42.9z"/>
	<polygon class="st1" points="57.8,48.9 57.8,38.9 49.1,43.9 	"/>
	<polygon class="st1" points="18,37.9 26.7,42.9 26.7,32.9 	"/>
	<polygon class="st1" points="49.1,31.9 57.8,36.9 57.8,26.9 	"/>
	<polygon class="st1" points="17.4,26.9 17.4,36.9 26.2,31.9 	"/>
</g>
</svg>
