<?xml version="1.0" encoding="utf-8"?>
<!-- Generator: Adobe Illustrator 21.0.2, SVG Export Plug-In . SVG Version: 6.00 Build 0)  -->
<svg version="1.1" id="Layer_1" xmlns="http://www.w3.org/2000/svg" xmlns:xlink="http://www.w3.org/1999/xlink" x="0px" y="0px"
	 viewBox="0 0 74 74" style="enable-background:new 0 0 74 74;" xml:space="preserve">
<style type="text/css">
	.st0{fill:#006FAF;}
</style>
<title>health-checks</title>
<path class="st0" d="M37,74C16.6,74,0,57.4,0,37S16.6,0,37,0s37,16.6,37,37S57.4,74,37,74z M37,2C17.7,2,2,17.7,2,37s15.7,35,35,35
	s35-15.7,35-35S56.3,2,37,2z"/>
<g>
</g>
<path class="st0" d="M19,27.1v8.9l7.8-4.5L19,27.1L19,27.1z M46.8,21.8v9l7.7-4.5L46.8,21.8z M19,37.8v8.9l7.8-4.5L19,37.8z
	 M46.8,32.5v8.9l7.7-4.5L46.8,32.5L46.8,32.5z M28.3,32.5v8.9l7.7-4.5L28.3,32.5L28.3,32.5z M29.1,33.9l5.2,3l-5.2,3V33.9z
	 M37.5,27.1v8.9l7.7-4.5L37.5,27.1z M37.5,37.8v8.9l7.7-4.5L37.5,37.8z M38.4,39.3l5.2,3l-5.2,3V39.3z M28.3,21.8v9l7.7-4.5
	L28.3,21.8L28.3,21.8z M36.5,16.6L28.8,21l7.7,4.5V16.6z M35.7,24l-5.2-3l5.2-3V24z M37.5,16.6v8.9l7.7-4.5L37.5,16.6z M38.4,18.1
	l5.2,3l-5.2,3V18.1z M27.3,41.4v-9l-7.8,4.5L27.3,41.4z M46.8,52.1l7.7-4.5l-7.7-4.5V52.1z M27.3,52.1v-9l-7.8,4.5L27.3,52.1z
	 M45.8,41.4v-8.9L38,36.9L45.8,41.4z M44.9,39.9l-5.2-3l5.2-3V39.9z M45.8,30.7v-9L38,26.3L45.8,30.7z M55,46.7v-8.9l-7.7,4.5
	L55,46.7z M47.3,31.6l7.7,4.5v-8.9L47.3,31.6z M45.8,52.1v-9L38,47.6L45.8,52.1L45.8,52.1z M44.9,50.6l-5.2-3l5.2-3V50.6L44.9,50.6z
	 M28.3,43.1v9l7.7-4.5L28.3,43.1z M29.1,44.6l5.2,3l-5.2,3V44.6L29.1,44.6z M37.5,57.4l7.7-4.5l-7.7-4.5V57.4z M38.4,50l5.2,3
	l-5.2,3V50L38.4,50z M27.3,30.7v-9l-7.8,4.5L27.3,30.7z M36.5,57.4v-8.9l-7.7,4.5L36.5,57.4z M35.7,55.9l-5.2-3l5.2-3V55.9
	L35.7,55.9z M36.5,46.7v-8.9l-7.7,4.5L36.5,46.7z M35.7,45.3l-5.2-3l5.2-3V45.3L35.7,45.3z M36.5,36.1v-8.9l-7.7,4.5L36.5,36.1z"/>
</svg>
