<?xml version="1.0" encoding="utf-8"?>
<!-- Generator: Adobe Illustrator 21.0.2, SVG Export Plug-In . SVG Version: 6.00 Build 0)  -->
<svg version="1.1" id="Layer_1" xmlns="http://www.w3.org/2000/svg" xmlns:xlink="http://www.w3.org/1999/xlink" x="0px" y="0px"
	 viewBox="0 0 74 74" style="enable-background:new 0 0 74 74;" xml:space="preserve">
<style type="text/css">
	.st0{fill:#006FAF;}
</style>
<title>os-patch-management</title>
<g id="text">
</g>
<path class="st0" d="M37,74C16.6,74,0,57.4,0,37S16.6,0,37,0s37,16.6,37,37S57.4,74,37,74z M37,2C17.7,2,2,17.7,2,37s15.7,35,35,35
	s35-15.7,35-35S56.3,2,37,2z"/>
<g>
	<path class="st0" d="M22.5,22.8l24.8,26.3c0,0,0.8,0.6,1.5-0.1c0.6-0.7,0.1-1.4,0.1-1.4L22.5,22.8L22.5,22.8z M30.4,25.3l18.9,20.4
		c0,0,0.8,0.6,1.5-0.1c0.6-0.7,0.1-1.4,0.1-1.4L30.4,25.3z M24.8,30.6l19,20.4c0,0,0.8,0.6,1.5-0.1c0.6-0.7,0.1-1.4,0.1-1.4
		L24.8,30.6z M37,27.4l13.2,14.2c0,0,0.6,0.4,1-0.1c0.5-0.5,0.1-1,0.1-1L37,27.4L37,27.4z M26.7,36.8L39.9,51c0,0,0.6,0.4,1-0.1
		c0.5-0.5,0.1-1,0.1-1L26.7,36.8z M43.8,30.5l6,6.5c0,0,0.3,0.2,0.5,0s0.1-0.5,0.1-0.5L43.8,30.5z M30,43.3l6,6.5c0,0,0.3,0.2,0.5,0
		s0.1-0.5,0.1-0.5L30,43.3z"/>
</g>
</svg>
