<?xml version="1.0" encoding="utf-8"?>
<!-- Generator: Adobe Illustrator 21.0.0, SVG Export Plug-In . SVG Version: 6.00 Build 0)  -->
<svg version="1.1" id="Layer_1" xmlns="http://www.w3.org/2000/svg" xmlns:xlink="http://www.w3.org/1999/xlink" x="0px" y="0px"
	 viewBox="0 0 74 74" style="enable-background:new 0 0 74 74;" xml:space="preserve">
<style type="text/css">
	.st0{fill:none;stroke:#006FAF;stroke-width:2;stroke-miterlimit:10;}
	.st1{fill:#006FAF;}
</style>
<title>Azure_Site_Recovery</title>
<circle class="st0" cx="37" cy="37" r="36"/>
<g>
	<path class="st1" d="M42.5,37.6c0,6.2,0,12.4,0,18.5c0,1-0.2,1.1-1.2,1c-7.1-1.3-14.1-2.5-21.2-3.7c-0.7-0.1-1-0.4-1-1.1
		c0-9.9,0-19.8,0-29.6c0-0.8,0.3-1,1-1.1c7.1-1.2,14.2-2.4,21.3-3.7c0.9-0.2,1.1,0,1.1,0.9C42.5,25,42.5,31.3,42.5,37.6z M27.4,33
		C27.4,33,27.4,33,27.4,33c0.2,0,0.4,0,0.7,0c1.4-0.1,1.4-0.1,1.4,1.3c0,3,0,6.1,0,9.1c0,0.9,0.2,1.3,1.1,1.1c0.2,0,0.5,0,0.7,0
		c0.7,0.1,1-0.1,1-0.9c0-2.9,0-5.8,0-8.7c0-2.1,0-2.1,2.1-2.2c2.1-0.1,2.1-0.1,2-2.2c0-0.5-0.2-0.7-0.7-0.6
		c-3.2,0.2-6.3,0.4-9.5,0.6c-0.3,0-0.6,0-0.6,0.4c-0.3,1.6,0,2.1,1.6,2.1C27.2,33,27.3,33,27.4,33z"/>
	<path class="st1" d="M43.9,41.9c0-2.4,0-4.8,0-7.2c0-0.6,0.2-0.9,0.8-0.8c1.7,0,3.4,0,5.2,0c0.6,0,0.8,0.2,0.8,0.8
		c0,4,0,8.1,0,12.1c0,1-0.5,1.8-1.3,2.4c-0.7,0.5-1.5,0.8-2.3,0.9c-2.8,0.4-3.2,0.1-3.2-2.6C43.9,45.6,43.9,43.7,43.9,41.9z"/>
	<path class="st1" d="M52,41.5c0-1.5,0-3,0-4.5c0-0.6,0.1-0.9,0.8-0.9c1.9,0.1,3.7,0,5.6,0c0.6,0,0.8,0.2,0.8,0.8c0,2.2,0,4.4,0,6.6
		c0,1.4-0.9,2.2-2,2.8c-1.5,0.8-3.1,0.7-4.7,0.7c-0.6,0-0.5-0.4-0.5-0.8C52,44.6,52,43.1,52,41.5z"/>
	<path class="st1" d="M55.6,26.7c2,0,3.6,1.6,3.6,3.6c0,2-1.6,3.6-3.7,3.6c-2,0-3.5-1.6-3.5-3.6C52,28.2,53.5,26.7,55.6,26.7z"/>
	<path class="st1" d="M47,24.5c0.8,0,1.9,0.8,2.5,2.1c0.6,1.3,0.3,2.9-0.7,3.9c-1,1-2.6,1.4-3.9,0.9c-0.7-0.3-1-0.6-1-1.4
		c0.1-1.1,0-2.2,0-3.2C43.9,24.9,44.3,24.4,47,24.5z"/>
</g>
</svg>
