<svg id="Layer_1" data-name="Layer 1" xmlns="http://www.w3.org/2000/svg" viewBox="0 0 74 74"><defs><style>.cls-1{fill:none;stroke:#006faf;stroke-miterlimit:10;stroke-width:2px;}.cls-2{fill:#57b5e5;}.cls-3,.cls-4{fill:#006faf;}.cls-4{font-size:12px;font-family:MyriadPro-Regular, Myriad Pro;}.cls-5{letter-spacing:-0.01em;}.cls-6{letter-spacing:0.02em;}</style></defs><title>Microsoft Cortana</title><circle class="cls-1" cx="37" cy="37" r="36"/><path class="cls-2" d="M6.78,37.1V35.15c.08-.06.06-.15.08-.23a8.08,8.08,0,0,1,5.82-6.53c.43-.14.88-.21,1.31-.31h1.8a.65.65,0,0,0,.16.07,7.79,7.79,0,0,1,4,1.71,7.86,7.86,0,0,1,3,7.57A8.05,8.05,0,0,1,14,44.24a7.92,7.92,0,0,1-6.72-5.31C7,38.34,7,37.7,6.78,37.1Zm8.11,5.57A6.47,6.47,0,1,0,8.4,36,6.45,6.45,0,0,0,14.88,42.66Z"/><path class="cls-3" d="M14.88,42.67a6.47,6.47,0,1,1,6.48-6.4A6.42,6.42,0,0,1,14.88,42.67Zm-5.14-6.3a5.12,5.12,0,0,0,1.51,3.46,4.79,4.79,0,0,0,3.49,1.55,5.16,5.16,0,1,0,.12-10.32A5.22,5.22,0,0,0,9.74,36.37Z"/><text class="cls-4" transform="translate(24.38 39.71)"><tspan class="cls-5">C</tspan><tspan x="6.83" y="0">o</tspan><tspan class="cls-6" x="13.42" y="0">r</tspan><tspan x="17.63" y="0">tana</tspan></text></svg>