<svg id="Layer_1" data-name="Layer 1" xmlns="http://www.w3.org/2000/svg" viewBox="0 0 74 74"><defs><style>.cls-1{fill:none;stroke:#006faf;stroke-miterlimit:10;stroke-width:2px;}.cls-2,.cls-3{fill:#006faf;}.cls-3{font-size:12px;font-family:SegoeUI-Semibold, Segoe UI;font-weight:700;}.cls-4{letter-spacing:-0.01em;}.cls-5{letter-spacing:-0.02em;}.cls-6{letter-spacing:0.02em;}</style></defs><title>microsoft_power_BI</title><circle class="cls-1" cx="37" cy="37" r="36"/><path class="cls-2" d="M44.3,28.4v-5a1,1,0,0,0-.8-1.1c-4.2-1.3-8.4-2.6-12.6-3.8-.7-.2-1.5-.5-2.2-.7a1,1,0,0,0-1.4,1.1v6.6a.75.75,0,0,1-.1.5.51.51,0,0,1-1,0c-.1-.1-.1-.4-.1-.5V18.9A2.2,2.2,0,0,1,29,16.7c4.1,1.2,8.1,2.5,12.2,3.7.8.2,1.7.5,2.6.8a2.07,2.07,0,0,1,1.6,2.2v9.9a2.1,2.1,0,0,1-1.8,2.4c-.2,0-.4.1-.6,0-.6-.2-1.3-.4-1.9-.6a.57.57,0,0,1-.4-.7.51.51,0,0,1,.7-.4,7.84,7.84,0,0,1,1.4.5c.9.3,1.5-.1,1.5-1.1Z"/><path class="cls-2" d="M36.7,30.7V25.2a1.24,1.24,0,0,1,.9-1.3,1.18,1.18,0,0,1,1.5.6,2.92,2.92,0,0,1,.2.9V36.2a1.5,1.5,0,0,1-.4,1.1,1.08,1.08,0,0,1-1.4.3,1.21,1.21,0,0,1-.8-1.3Z"/><path class="cls-2" d="M33,30.7V26.4a1.3,1.3,0,0,1,1.1-1.3,1.17,1.17,0,0,1,1.4.8,2.77,2.77,0,0,1,.1.9v8a1.31,1.31,0,0,1-1.4,1.4,1.24,1.24,0,0,1-1.3-1.4C33,33.4,33,32.1,33,30.7Z"/><path class="cls-2" d="M29.2,30.6V27.9a1.26,1.26,0,0,1,1.3-1.3,1.32,1.32,0,0,1,1.3,1.3v5.5a1.35,1.35,0,0,1-1.3,1.4,1.29,1.29,0,0,1-1.3-1.4Z"/><path class="cls-2" d="M28.2,30.7v1.4a1.35,1.35,0,0,1-1.3,1.4,1.32,1.32,0,0,1-1.3-1.3V29A1.27,1.27,0,0,1,27,27.8a1.24,1.24,0,0,1,1.2,1.3Z"/><text class="cls-3" transform="translate(11.5 49.38)">Mic<tspan class="cls-4" x="19.87" y="0">r</tspan><tspan x="24.21" y="0">os</tspan><tspan class="cls-5" x="36.54" y="0">o</tspan><tspan class="cls-6" x="43.51" y="0">f</tspan><tspan x="47.87" y="0">t</tspan></text></svg>