<?xml version="1.0" encoding="utf-8"?>
<!-- Generator: Adobe Illustrator 21.0.0, SVG Export Plug-In . SVG Version: 6.00 Build 0)  -->
<svg version="1.1" id="Layer_1" xmlns="http://www.w3.org/2000/svg" xmlns:xlink="http://www.w3.org/1999/xlink" x="0px" y="0px"
	 viewBox="0 0 74 74" style="enable-background:new 0 0 74 74;" xml:space="preserve">
<style type="text/css">
	.st0{fill:none;stroke:#006FAF;stroke-width:2;stroke-miterlimit:10;}
	.st1{fill:#006FAF;}
</style>
<title>Azure_Site_Recovery</title>
<circle class="st0" cx="37" cy="37" r="36"/>
<g>
	<path class="st1" d="M37.3,55.8c-2.3,0-4.7-0.1-7,0c-1.1,0-1.4-0.4-1.4-1.4c0.1-1.6,0.3-3.2,0.9-4.8c0.9-2.5,3.4-3.4,5.7-1.9
		c1.2,0.8,2.4,0.7,3.6,0.1c1-0.5,2.1-0.8,3.2-0.7c1.1,0,1.9,0.5,2.5,1.5c1.1,2.1,1.1,4.3,1.1,6.6c0,0.7-0.6,0.6-1.1,0.6
		c0,0-0.1,0-0.1,0C42.2,55.8,39.8,55.8,37.3,55.8z"/>
	<path class="st1" d="M35.8,32.7c-0.1-0.1-0.2-0.3-0.4-0.5c-2.1-2.5-4.3-5-6.4-7.5c-0.4-0.5-0.4-0.8,0.1-1.2c2-1.9,2-1.9,3.8,0.2
		c0.8,1,1.7,2,2.5,3c0.5,0.7,0.9,0.7,1.5,0c2.8-3.4,5.7-6.7,8.5-10c0.6-0.8,1-0.8,1.6,0c1.7,2.2,1.8,2.2-0.1,4.2
		c-3.3,3.7-6.7,7.4-10,11.1C36.5,32.3,36.4,32.6,35.8,32.7z"/>
	<path class="st1" d="M43,45.8c1-1,2-1,3.1-0.7c0.5,0.1,0.9,0.4,1.4,0.6c1.2,0.5,2.3,0.4,3.4-0.3c1.9-1.3,4.4-0.6,5.4,1.5
		c0.8,1.7,1,3.5,1,5.4c0,0.6-0.3,0.8-0.8,0.8c-2.9,0-5.9,0-8.8,0c-0.6,0-0.9-0.2-0.9-0.8c0-0.4-0.1-0.8-0.1-1.2
		C46.3,48.8,45.7,46.6,43,45.8z"/>
	<path class="st1" d="M31,45.9c-2.4,1.7-2.9,4.1-3.1,6.7c0,0.6-0.3,0.8-0.9,0.8c-3,0-5.9,0-8.9,0c-0.6,0-0.8-0.3-0.8-0.8
		c0-1.8,0.3-3.5,1-5.1c0.8-1.9,3.7-2.6,5.1-1.5c1.1,1,2.4,0.8,3.7,0.2C28.6,45.5,29.6,45.4,31,45.9z"/>
	<path class="st1" d="M32.4,42.1c0-2.7,2-4.8,4.6-4.8c2.5,0,4.6,2.1,4.6,4.8c0,2.7-2.1,4.9-4.6,4.8C34.4,47,32.4,44.8,32.4,42.1z"/>
	<path class="st1" d="M29.6,40.6c0,2.5-1.9,4.4-4.1,4.4c-2.3,0-4.1-2-4-4.5c0-2.5,1.9-4.4,4.1-4.4C27.8,36.1,29.6,38.1,29.6,40.6z"
		/>
	<path class="st1" d="M45.2,40.5c0-2.5,1.8-4.4,4.1-4.4c2.3,0,4.1,2,4.1,4.5c0,2.5-1.9,4.4-4.1,4.4C47,44.9,45.2,42.9,45.2,40.5z"/>
</g>
</svg>
