<svg id="Layer_1" data-name="Layer 1" xmlns="http://www.w3.org/2000/svg" viewBox="0 0 74 74"><defs><style>.cls-1{fill:none;stroke:#006faf;stroke-miterlimit:10;stroke-width:2px;}.cls-2{fill:#006faf;fill-rule:evenodd;}</style></defs><title>mobile_reports</title><circle class="cls-1" cx="37" cy="37" r="36"/><path class="cls-2" d="M36,45.37a1.42,1.42,0,0,0-1.16,1.43c0,1,.58,1.67,1.16,1.67.77,0,1.16-.71,1.16-1.67,0-.71-.39-1.43-1.16-1.43Zm0,2.14c-.19,0-.39-.24-.39-.71a.4.4,0,1,1,.77,0c0,.48-.19.71-.39.71Z"/><path class="cls-2" d="M41.59,22.17H30.45a1.75,1.75,0,0,0-1.79,1.72V48.29A1.75,1.75,0,0,0,30.45,50H41.59a1.75,1.75,0,0,0,1.79-1.72V23.88a1.75,1.75,0,0,0-1.79-1.72ZM30.45,23.31H41.59c.2,0,.4.19.4.57v20H30.06v-20c0-.38.2-.57.4-.57ZM41.59,48.86H30.45c-.2,0-.4-.19-.4-.57V45.24H42v3.05c0,.38-.2.57-.4.57Z"/><path class="cls-2" d="M36,36.09a2.36,2.36,0,0,0,0-4.64,2.36,2.36,0,0,0,0,4.64Zm0-3.8a1.5,1.5,0,1,1-1.23,1.48A1.34,1.34,0,0,1,36,32.29Z"/><path class="cls-2" d="M31.37,35.31l.39.19c0,.19.19.58.19.77v.39a.36.36,0,0,0,0,.58l1,1a.36.36,0,0,0,.58,0h.39c.19,0,.58.19.77.19l.19.39c0,.19.19.39.58.39H36.6c.39,0,.58-.19.58-.39l.19-.39c.19,0,.58-.19.77-.19h.39a.36.36,0,0,0,.58,0l1-1a.36.36,0,0,0,0-.58v-.39c0-.19.19-.58.19-.77l.39-.19c.19,0,.39-.19.39-.58V33.57c0-.39-.19-.58-.39-.58l-.39-.19c0-.19-.19-.58-.19-.77v-.39a.36.36,0,0,0,0-.58l-1-1a.36.36,0,0,0-.58,0h-.39c-.19,0-.58-.19-.77-.19l-.19-.39c0-.19-.19-.39-.58-.39H35.44c-.39,0-.58.19-.58.39l-.19.39c-.19,0-.58.19-.77.19H33.5a.36.36,0,0,0-.58,0l-1,1a.36.36,0,0,0,0,.58V32c0,.19-.19.58-.19.77l-.39.19c-.19,0-.39.19-.39.58v1.16c0,.39.19.58.39.58ZM32.15,34l.19-.19a.42.42,0,0,0,.39-.39c.19-.39.19-.58.39-1a.71.71,0,0,0,.19-.58l-.19-.19.39-.39.19.19a.71.71,0,0,0,.58-.19c.39-.19.58-.19,1-.39a.42.42,0,0,0,.39-.39l.19-.19h.39l.19.19a.42.42,0,0,0,.39.39c.39.19.58.19,1,.39a.71.71,0,0,0,.58.19l.19-.19.39.39-.19.19a.71.71,0,0,0,.19.58c.19.39.19.58.39,1a.42.42,0,0,0,.39.39l.19.19v.39l-.19.19a.42.42,0,0,0-.39.39c-.19.39-.19.58-.39,1a.71.71,0,0,0-.19.58l.19.19-.39.39-.19-.19a.71.71,0,0,0-.58.19c-.39.19-.58.19-1,.39a.42.42,0,0,0-.39.39l-.19.19h-.39l-.19-.19a.42.42,0,0,0-.39-.39c-.39-.19-.58-.19-1-.39a.71.71,0,0,0-.58-.19l-.19.19-.39-.39.19-.19a.71.71,0,0,0-.19-.58c-.19-.39-.19-.58-.39-1a.42.42,0,0,0-.39-.39l-.19-.19V34Z"/></svg>