<?xml version="1.0" encoding="utf-8"?>
<!-- Generator: Adobe Illustrator 21.0.2, SVG Export Plug-In . SVG Version: 6.00 Build 0)  -->
<svg version="1.1" id="Layer_1" xmlns="http://www.w3.org/2000/svg" xmlns:xlink="http://www.w3.org/1999/xlink" x="0px" y="0px"
	 viewBox="0 0 74 74" style="enable-background:new 0 0 74 74;" xml:space="preserve">
<style type="text/css">
	.st0{fill:none;stroke:#006FAF;stroke-width:2;stroke-miterlimit:10;}
	.st1{fill:none;}
	.st2{fill-rule:evenodd;clip-rule:evenodd;fill:none;stroke:#006FAF;stroke-width:2;stroke-miterlimit:10;}
	.st3{fill:#FFFFFF;}
	.st4{fill:#006FAF;}
	.st5{fill-rule:evenodd;clip-rule:evenodd;fill:none;stroke:#006699;stroke-width:2;stroke-miterlimit:10;}
	.st6{fill:#006FAF;stroke:#006FAF;stroke-width:0.5;stroke-miterlimit:10;}
	.st7{fill:none;stroke:#006FAF;stroke-width:1.75;stroke-miterlimit:10;}
	.st8{fill:none;stroke:#006FAF;stroke-width:1.5;stroke-miterlimit:10;}
	.st9{fill:#006FAF;stroke:#006FAF;stroke-width:2;stroke-miterlimit:10;}
	.st10{fill:#006FAF;stroke:#006FAF;stroke-miterlimit:10;}
	.st11{fill:none;stroke:#006FAF;stroke-width:2;stroke-linecap:round;stroke-miterlimit:10;}
	.st12{fill:none;stroke:#006FAF;stroke-width:2;stroke-linejoin:round;stroke-miterlimit:10;}
</style>
<circle class="st0" cx="37" cy="37" r="36"/>
<path class="st4" d="M41.8,26.7c-1.5-2.7-3.3-4.1-3.8-4.8c-0.6-0.7-1.3-2.4-1.3-2.4c-0.2,1.8-1.5,2.1-3.6,4.6c-2.1,2.5-4,7.5-4,12.2
	s1.8,7.8,3.2,10c1.1,1.7,2.5,2.7,3.3,3.4c0.1,0.1,0.1,0.1,0.2,0.2l0,0l0.1,0.1c0,0,0,0,0.1,0.1l0.1,0.1c0,0.1,0.1,0.1,0.1,0.2
	c0.6,0.9,0.5,3.8,0.5,3.8l1,0.4c0,0,0.1-3.9,0.3-4.3s1.1-1.1,1.6-1.5c0.5-0.5,1.1-1.2,2.4-2.9c1.3-1.7,2.5-5.4,2.8-8.8
	C45,33.8,43.4,29.4,41.8,26.7L41.8,26.7z M33.2,45.6c-1.5-2.2-3-5-3-9.3c0-4.6,1.9-9.2,3.8-11.5c0.7-0.8,1.3-1.4,1.9-1.9
	c0.3-0.3,0.6-0.6,0.9-0.9c0,0,0.6,6.6,0.6,13.9s-0.6,11.9-0.6,11.9s0.1,1.3-0.9,0.4C35,47.6,34,46.8,33.2,45.6L33.2,45.6z"/>
</svg>
