<svg id="Layer_1" data-name="Layer 1" xmlns="http://www.w3.org/2000/svg" viewBox="0 0 74 74"><defs><style>.cls-1{fill:none;stroke:#006faf;stroke-miterlimit:10;stroke-width:2px;}.cls-2{fill:#efefef;}.cls-3{fill:#cbcbcc;}.cls-12,.cls-4{fill:#006faf;}.cls-5{fill:#0e89c6;}.cls-6{fill:#fefdfe;}.cls-7{fill:#fdfdfd;}.cls-8{fill:#fcfbfd;}.cls-9{fill:#77309b;}.cls-10{fill:#54226e;}.cls-11{fill:#722e94;}.cls-12{font-size:11.56px;font-family:SegoeUI, Segoe UI;}.cls-13{letter-spacing:-0.04em;}.cls-14{letter-spacing:0.02em;}</style></defs><title>MQTT</title><circle class="cls-1" cx="37" cy="37" r="36"/><path class="cls-2" d="M28.93,38.06c0,2.19,0,4.37,0,6.56A2.51,2.51,0,0,1,26.54,47c-4.33,0-8.66,0-13,0a2.56,2.56,0,0,1-2.5-2A2.44,2.44,0,0,1,11,44.5Q11,38,11,31.58a2.57,2.57,0,0,1,2.51-2.51c4.33,0,8.66,0,13,0a2.54,2.54,0,0,1,2.45,2.44C28.92,33.69,28.93,35.88,28.93,38.06Zm-.13,0c0-2.11,0-4.23,0-6.34a2.51,2.51,0,0,0-2.49-2.49H13.61a2.49,2.49,0,0,0-2.5,2.51q0,5,0,10.05a4.11,4.11,0,0,1,0,.55,15.41,15.41,0,0,0,0,2.07,2.48,2.48,0,0,0,2.5,2.51c4.21,0,8.41,0,12.62,0a2.55,2.55,0,0,0,2.58-2.56C28.77,42.23,28.8,40.13,28.8,38Z"/><path class="cls-3" d="M28.8,38c0,2.1,0,4.21,0,6.31a2.55,2.55,0,0,1-2.58,2.56c-4.21,0-8.41,0-12.62,0a2.48,2.48,0,0,1-2.5-2.51,15.41,15.41,0,0,1,0-2.07,4.11,4.11,0,0,0,0-.55q0-5,0-10.05a2.49,2.49,0,0,1,2.5-2.51H26.32a2.51,2.51,0,0,1,2.49,2.49C28.79,33.8,28.8,35.91,28.8,38Zm-.23,6.27a8.64,8.64,0,0,0,0-2.23c0-.12,0-.25,0-.37q0-4.89,0-9.77a2.41,2.41,0,0,0-2.51-2.49H13.88A2.43,2.43,0,0,0,11.35,32c0,1.28,0,2.56,0,3.84q0,3.31,0,6.62a16.67,16.67,0,0,0,0,1.88,2.39,2.39,0,0,0,2.5,2.34H26.1A2.38,2.38,0,0,0,28.58,44.29Z"/><path class="cls-4" d="M11.35,42.42q0-3.31,0-6.62c0-1.28,0-2.56,0-3.84a2.43,2.43,0,0,1,2.53-2.53H26.07a2.41,2.41,0,0,1,2.51,2.49q0,4.89,0,9.77c0,.12,0,.25,0,.37-.16,0-.15.16-.19.25a2.84,2.84,0,0,1-2.69,1.78c-3.77,0-7.55,0-11.32,0a3,3,0,0,1-2.14-.89,4.77,4.77,0,0,1-.67-.87c0,.3.14.5.12.72C11.49,42.88,11.5,42.61,11.35,42.42Zm12.44-.79c-.09.1,0,.11.06.12a.12.12,0,0,0,.12.12v.07a1.47,1.47,0,0,0,1.3,0s0,0,0,0l.25-.31c.11,0,.12-.09.12-.18,0-.51,0-1,0-1.51a5.64,5.64,0,0,0-.4-1.42.15.15,0,0,0-.14-.11v-.18A.11.11,0,0,0,25,38v-.25h.25l.18.25c0,.1.07.15.16.1s.11-.09,0-.16.05-.34-.05-.49V34.94c.07-.12.12-.24-.06-.31v-.06a.18.18,0,0,0-.18-.19c-.11,0-.14-.15-.19-.25a1.27,1.27,0,0,0-.72-.67l0,0,0,0s.11,0,.06-.06l-.06-.06-.06-.06a.29.29,0,0,0-.2-.05h0c0-.12,0-.21-.16-.19a1.2,1.2,0,0,1-.4-.35.11.11,0,0,0-.09-.08l-.71-.59a2.51,2.51,0,0,0-2.42-.9h-2l.6.3c0,.17-.19.27-.19.45l-.17-.07A6.53,6.53,0,0,0,15.39,31c-.53,0-.76.23-.76.78,0,.21,0,.41,0,.62s0,.52.38.54a1.36,1.36,0,0,1,.06.54c-.43-.09-.43-.09-.43.35,0,2.2,0,4.41,0,6.61a.79.79,0,0,0,.5.85.68.68,0,0,0,.62.73c.2,0,.41,0,.61,0,0,.36,0,.72,0,1.08,0,.11,0,.17.16.17s.16,0,.16-.16,0-.39,0-.61c.18.11.22.36.38.33s.22-.21.36-.35c0,.23,0,.42,0,.6s0,.2.16.19.15-.09.15-.2c0-.35,0-.7,0-1h.93l-.15.23a.66.66,0,0,0,.12.87,5.67,5.67,0,0,0,.6.38c.21.12.39.1.5-.15-.1-.06-.25,0-.32-.12a.69.69,0,0,0,.1-1.14c.26-.14.53,0,.8-.07,0,.08,0,.21.13.19.35-.06.32.16.31.38s0,.33,0,.49,0,.18.14.18.18-.05.17-.18,0-.43,0-.65,0-.25.22-.22.24,0,.22-.19H22c0,.08,0,.21.13.19.35-.06.32.16.31.38s0,.33,0,.49,0,.18.14.18.18-.05.17-.18,0-.43,0-.65,0-.25.22-.22.24,0,.22-.19c.37-.07.4-.13.3-.46,0-.09,0-.18-.06-.27h.25c0,.08,0,.17.11.18Zm-.67-10c-.18.19,0,.31.11.4a18.45,18.45,0,0,1,2,1.84c.08.08.17.16.3.1s.11-.16.11-.27c0-.45,0-.9,0-1.36a.75.75,0,0,0-.74-.77c-.12-.23-.27-.47-.55-.48-.61,0-1.22,0-1.88,0Z"/><path class="cls-4" d="M11.35,42.42c.14.19.13.46.31.64a3.94,3.94,0,0,0,.18.35,2.18,2.18,0,0,0,1.87,1.12H26.17a1.79,1.79,0,0,0,.37,0,2.64,2.64,0,0,0,1.89-1.7c0-.07,0-.16.15-.18v1.67a2.38,2.38,0,0,1-2.48,2.35H13.85a2.39,2.39,0,0,1-2.5-2.34A16.67,16.67,0,0,1,11.35,42.42Z"/><path class="cls-5" d="M28.58,44.29V42.62c-.13,0-.12.12-.15.18a2.64,2.64,0,0,1-1.89,1.7,1.79,1.79,0,0,1-.37,0H13.72a2.18,2.18,0,0,1-1.87-1.12,3.94,3.94,0,0,1-.18-.35c0-.22-.1-.41-.12-.72a4.77,4.77,0,0,0,.67.87,3,3,0,0,0,2.14.89c3.77,0,7.55,0,11.32,0a2.84,2.84,0,0,0,2.69-1.78c0-.09,0-.24.19-.25A8.64,8.64,0,0,1,28.58,44.29Z"/><path class="cls-6" d="M15.13,41.33a.79.79,0,0,1-.5-.85c0-2.2,0-4.41,0-6.61,0-.45,0-.45.43-.35.08,0,.15.09.25.06h.05a.05.05,0,0,0,.07,0l.11,0a.06.06,0,0,0,.08,0l.11,0a1.12,1.12,0,0,0,.45.17l.18.07.55.27a11.78,11.78,0,0,1,3.28,2.39l.69.8.38.5.9,1.55,0,.12,0,.07c0,.16.12.25.19.37h0l0,0v.07a.06.06,0,0,0,0,.08l0,.11a.06.06,0,0,0,0,.07l0,.11s0,.06,0,.07l0,.11s0,.06,0,.07l.08.3c0,.06,0,.09.05.13,0,.22-.18.12-.28.12H15.13Z"/><path class="cls-7" d="M23.67,41.33h-.32l-.07-.18a.63.63,0,0,0-.11-.33l0-.11a7.57,7.57,0,0,0-.61-1.58,10.44,10.44,0,0,0-2-2.82,3.67,3.67,0,0,0-.8-.76,7.37,7.37,0,0,0-1.88-1.35,8.83,8.83,0,0,0-2.58-1.12c0-.07-.08-.06-.14-.05L15,33c-.36,0-.41-.24-.38-.54s0-.41,0-.62c0-.54.23-.73.76-.78a6.53,6.53,0,0,1,3.21.69l.17.07a12.36,12.36,0,0,1,2.84,1.9l.07.06.47.45a3.06,3.06,0,0,0,.56.62l1.14,1.64a1.38,1.38,0,0,0,.24.47,0,0,0,0,0,0,0l.19.43c0,.07.1.21,0,.07a.08.08,0,0,0,0,.06.06.06,0,0,0,0,.08l0,.11,0,.07.08.24a.06.06,0,0,0,0,.08l0,.11a.06.06,0,0,0,0,.07l0,.11a.06.06,0,0,0,0,.07l.08.36,0,.07,0,.11c0,.05,0,.1,0,.13v1.7l0,.08-.07.12-.06.07h0l-.07.06c-.22.18-.49.11-.74.13Z"/><path class="cls-8" d="M24.34,33.43l0,0,.54.67v3c0,.1,0,.21-.06.3,0-.14-.1-.27-.27-.29,0-.06,0-.05-.05-.13l-.06-.12c0-.28.08-.19,0-.29a9.79,9.79,0,0,0-1.27-1.95l-.05-.07,0-.06a5.24,5.24,0,0,0-.79-.87c0-.07-.06-.13-.14-.14h0a3.28,3.28,0,0,0-.68-.61,8.92,8.92,0,0,0-1.81-1.23.1.1,0,0,0-.13-.05h-.06c0-.07-.07-.06-.12-.06a1.58,1.58,0,0,0-.44-.25l-.6-.3h2a2.51,2.51,0,0,1,2.42.9l.71.59.09.08a1.19,1.19,0,0,0,.4.35c0,.1.09.14.16.19h0Z"/><path class="cls-8" d="M23.12,31.6l-.64-.55c.67,0,1.28,0,1.88,0,.28,0,.43.25.55.48v.13l0,1.6A18.19,18.19,0,0,0,23.12,31.6Z"/><path class="cls-4" d="M24.36,37.55a.08.08,0,0,1,0-.06v-.07c.06-.1.12,0,.18,0l.14.34a6,6,0,0,1,.73,3.12,3.07,3.07,0,0,0,0,.37c0,.4-.16.55-.55.56a2.25,2.25,0,0,0-.87.06.12.12,0,0,1-.12-.12v-.12a.12.12,0,0,0,0-.13v-.17c.25,0,.52,0,.74-.13l.07-.06h0l.06-.07.07-.12,0-.08v-1.7a.13.13,0,0,0,0-.13l0-.11,0-.07-.08-.36,0-.07,0-.11,0-.07,0-.11,0-.08-.08-.24,0-.07,0-.11Z"/><path class="cls-4" d="M23.13,34.57l0,.06.05.07a9.79,9.79,0,0,1,1.27,1.95c.05.1.13.2,0,.29s-.14-.11-.18-.2,0-.23-.13-.24L24,36.42c0-.29-.26-.42-.32-.67a.11.11,0,0,0-.12-.13.13.13,0,0,1-.06-.12.11.11,0,0,0-.12-.13,2.14,2.14,0,0,1-.49-.56,1,1,0,0,0-.71-.61l-.47-.45-.07-.06a12.36,12.36,0,0,0-2.84-1.9c0-.18.18-.28.19-.45a1.58,1.58,0,0,1,.44.25h-.15c-.08,0-.18,0-.21.07s.07.16.15.19l.14,0h.12a.11.11,0,0,0,.13.11,2,2,0,0,1,.61.25.11.11,0,0,0,.13.12l.18.07a.11.11,0,0,0,.13.12l.18.07c0,.14.14.16.25.18l.37.19a1,1,0,0,0,.76.54h0a.12.12,0,0,0,0,.15A2.18,2.18,0,0,0,23.13,34.57Z"/><path class="cls-4" d="M24.92,36.87V34.14h.18c0,.09.08.2.19.25a.17.17,0,0,0,.18.19v.06c0,.11-.05.23.06.31q0,1.27,0,2.54c-.12,0,0,.24-.16.21s-.12-.15-.17-.24Z"/><path class="cls-4" d="M19.52,42.13a.69.69,0,0,1-.1,1.14c.07.13.22.06.32.12-.11.25-.29.27-.5.15a5.67,5.67,0,0,1-.6-.38.66.66,0,0,1-.12-.87l.15-.23A1,1,0,0,1,19.52,42.13Zm-.42.13a.38.38,0,0,0-.38.42.36.36,0,0,0,.37.37.38.38,0,0,0,.36-.42A.36.36,0,0,0,19.1,42.26Z"/><path class="cls-4" d="M17.74,42.06c0,.35,0,.7,0,1,0,.11,0,.2-.15.2s-.16-.08-.16-.19,0-.37,0-.6c-.14.14-.23.33-.36.35s-.2-.22-.38-.33c0,.22,0,.42,0,.61s0,.16-.16.16-.16-.05-.16-.17c0-.36,0-.72,0-1.08a.25.25,0,0,1,.36,0c.33.48.34.48.66,0C17.5,42,17.62,41.95,17.74,42.06Z"/><path class="cls-4" d="M16.72,42.07a.25.25,0,0,0-.36,0c-.2,0-.41,0-.61,0a.68.68,0,0,1-.62-.73h.12a.56.56,0,0,0,.61.61h7.35c.16,0,.21-.08.17-.25s-.16-.23,0-.37h.07c0,.09,0,.18.06.27.1.34.07.39-.3.46a2.49,2.49,0,0,0-1.2,0h-.47a2.49,2.49,0,0,0-1.2,0c-.26,0-.54-.08-.8.07a1,1,0,0,0-.86-.06h-.93c-.12-.12-.25-.07-.37,0Z"/><path class="cls-4" d="M24.92,31.67v-.13a.75.75,0,0,1,.74.77c0,.45,0,.9,0,1.36,0,.1,0,.22-.11.27s-.21,0-.3-.1a18.45,18.45,0,0,0-2-1.84c-.12-.09-.29-.21-.11-.4a18.18,18.18,0,0,1,1.78,1.67l.35.38s.09.12.18.09.1-.12.1-.21c0-.43,0-.86,0-1.29A.65.65,0,0,0,24.92,31.67Z"/><path class="cls-4" d="M24,41.88a2.25,2.25,0,0,1,.87-.06c.39,0,.55-.16.55-.56a3.07,3.07,0,0,1,0-.37,6,6,0,0,0-.73-3.12l-.14-.34.05-.24c.17,0,.23.15.27.29-.13.08,0,.17,0,.26a.12.12,0,0,0,.12.13V38a.11.11,0,0,0,.12.13v.18a5.16,5.16,0,0,1,.44,2.21c0,.34,0,.68,0,1l-.25.31a6.21,6.21,0,0,1-1.3.06Z"/><path class="cls-4" d="M22,42.06a2.49,2.49,0,0,1,1.2,0c0,.17-.08.21-.22.19s-.23.05-.22.22,0,.43,0,.65,0,.18-.17.18-.14-.08-.14-.18,0-.33,0-.49,0-.45-.31-.38C22,42.28,22,42.14,22,42.06Z"/><path class="cls-4" d="M20.32,42.06a2.49,2.49,0,0,1,1.2,0c0,.17-.08.21-.22.19s-.23.05-.22.22,0,.43,0,.65,0,.18-.17.18-.14-.08-.14-.18,0-.33,0-.49,0-.45-.31-.38C20.3,42.28,20.34,42.14,20.32,42.06Z"/><path class="cls-4" d="M25.53,41.57c0-.34,0-.68,0-1a5.16,5.16,0,0,0-.44-2.21.15.15,0,0,1,.14.11,5.64,5.64,0,0,1,.4,1.42c0,.5,0,1,0,1.51C25.65,41.48,25.64,41.55,25.53,41.57Z"/><path class="cls-4" d="M24.92,36.87l.29.6c0,.09.06.22.17.24s0-.18.16-.21c.11.15,0,.33.05.49L25.4,38l-.18-.25a2,2,0,0,0-.3-.62Z"/><path class="cls-4" d="M24,41.94a6.21,6.21,0,0,0,1.3-.06s0,0,0,0A1.47,1.47,0,0,1,24,41.94Z"/><path class="cls-4" d="M24.92,37.18a2,2,0,0,1,.3.62H25a.13.13,0,0,0-.12-.06c0-.09-.12-.18,0-.26S24.88,37.27,24.92,37.18Z"/><path class="cls-4" d="M25.09,34.14h-.18l-.54-.67A1.27,1.27,0,0,1,25.09,34.14Z"/><path class="cls-4" d="M15,33l.19.06c0,.19,0,.39.12.54-.09,0-.17,0-.25-.06A1.36,1.36,0,0,0,15,33Z"/><path class="cls-4" d="M23.92,41.33v.17h-.12c-.12,0-.12-.09-.11-.18Z"/><path class="cls-4" d="M25.54,34.94c-.12-.08-.06-.2-.06-.31C25.65,34.71,25.61,34.82,25.54,34.94Z"/><path class="cls-4" d="M25.4,38l.19-.06c.08.07,0,.12,0,.16S25.42,38.14,25.4,38Z"/><path class="cls-4" d="M24.34,33.43l-.24-.27a.29.29,0,0,1,.2.05l.06.06.06.06-.06.06Z"/><path class="cls-4" d="M25.47,34.57a.17.17,0,0,1-.18-.19A.18.18,0,0,1,25.47,34.57Z"/><path class="cls-4" d="M24.1,33.17c-.07,0-.15-.09-.16-.19C24.09,33,24.11,33,24.1,33.17Z"/><path class="cls-4" d="M25.09,38.17A.11.11,0,0,1,25,38,.11.11,0,0,1,25.09,38.17Z"/><path class="cls-4" d="M24.85,37.73a.13.13,0,0,1,.12.06v.07A.11.11,0,0,1,24.85,37.73Z"/><path class="cls-4" d="M23.79,41.51h.12a.12.12,0,0,1,0,.13h-.07Z"/><path class="cls-4" d="M23.79,41.63h.07v.12C23.78,41.74,23.7,41.73,23.79,41.63Z"/><path class="cls-4" d="M24.35,33.4l.06-.06C24.47,33.43,24.38,33.39,24.35,33.4Z"/><path class="cls-9" d="M24.35,33.28l-.06-.06Z"/><path class="cls-9" d="M23.54,32.62l-.09-.08A.11.11,0,0,1,23.54,32.62Z"/><path class="cls-4" d="M22.63,40.7l0-.11,0-.07,0-.11,0-.07,0-.11,0-.08v-.07a.12.12,0,0,0,0-.05c-.07-.12-.19-.22-.19-.37l0-.07,0-.12c.22,0,.28.15.35.28a11.13,11.13,0,0,1,.69,1.74c.08.26,0,.32-.26.32H15.88c-.32,0-.47-.15-.5-.48h7.15c.1,0,.27.1.28-.12s0-.11-.05-.13l-.08-.3Z"/><path class="cls-4" d="M20.59,36.32a10.44,10.44,0,0,1,2,2.82,7.57,7.57,0,0,1,.61,1.58c-.09,0-.1-.09-.13-.15a8.93,8.93,0,0,0-1.65-2.64c0-.27-.28-.35-.38-.55a4.05,4.05,0,0,0-.34-.42c-.14-.13-.23-.35-.48-.32a11.78,11.78,0,0,0-3.28-2.39L16.37,34c.1-.1.2,0,.28,0a12,12,0,0,1,3,1.59c0,.11.1.16.17.19C20.11,35.91,20.23,36.28,20.59,36.32Z"/><path class="cls-4" d="M21.39,37.91A8.93,8.93,0,0,1,23,40.55c0,.07,0,.14.13.15l0,.11c0,.12-.07.26.11.33l.07.18c-.12.14,0,.25,0,.37s0,.23-.17.25H15.87a.56.56,0,0,1-.61-.61h.12c0,.33.18.48.5.48h7.07c.25,0,.34-.06.26-.32a11.13,11.13,0,0,0-.69-1.74c-.07-.14-.12-.32-.35-.28l-.9-1.55Z"/><path class="cls-4" d="M15.34,33.09a8.83,8.83,0,0,1,2.58,1.12c-.05.2-.17.08-.26,0a14.44,14.44,0,0,0-1.6-.6c-.07,0-.19-.15-.25,0l-.07,0-.11,0-.08,0-.11,0-.07,0h0C15.38,33.42,15.28,33.26,15.34,33.09Z"/><path class="cls-4" d="M15.81,33.69c.06-.18.17-.05.25,0a14.44,14.44,0,0,1,1.6.6c.09,0,.21.16.26,0a7.37,7.37,0,0,1,1.88,1.35h-.15a12,12,0,0,0-3-1.59c-.08,0-.18-.13-.28,0l-.18-.07C16.12,33.71,15.94,33.75,15.81,33.69Z"/><path class="cls-4" d="M20.2,36.62c.25,0,.34.19.48.32a4.05,4.05,0,0,1,.34.42.13.13,0,0,0-.12.06Z"/><path class="cls-4" d="M20.89,37.42a.13.13,0,0,1,.12-.06c.09.21.38.28.38.55h-.12Z"/><path class="cls-4" d="M15.34,33.09c-.06.17,0,.33,0,.5h-.06c-.16-.15-.13-.35-.12-.54C15.25,33,15.31,33,15.34,33.09Z"/><path class="cls-4" d="M15.81,33.69c.13.05.31,0,.38.2a1.12,1.12,0,0,1-.45-.17Z"/><path class="cls-4" d="M22.75,41.07c.08,0,.15,0,.05.13S22.74,41.13,22.75,41.07Z"/><path class="cls-10" d="M22.51,40.33l0,.07A.06.06,0,0,1,22.51,40.33Z"/><path class="cls-10" d="M22.57,40.52l0,.07S22.56,40.55,22.57,40.52Z"/><path class="cls-10" d="M22.63,40.7l0,.07S22.62,40.74,22.63,40.7Z"/><path class="cls-4" d="M15.56,33.65l.08,0A.06.06,0,0,1,15.56,33.65Z"/><path class="cls-4" d="M15.38,33.59l.07,0A.05.05,0,0,1,15.38,33.59Z"/><path class="cls-10" d="M22.2,39.59l0,.07Z"/><path class="cls-10" d="M22.44,40a.12.12,0,0,1,0,.05l0,0Z"/><path class="cls-10" d="M22.45,40.14l0,.08A.06.06,0,0,1,22.45,40.14Z"/><path class="cls-4" d="M23.48,35.51a.13.13,0,0,0,.06.12.12.12,0,0,0,.12.13c.06.24.35.38.32.67l-.14,0-1.14-1.64h.15a2.14,2.14,0,0,0,.49.56A.12.12,0,0,0,23.48,35.51Z"/><path class="cls-4" d="M19.65,35.57h.15a3.67,3.67,0,0,1,.8.76c-.36,0-.49-.41-.77-.55C19.75,35.73,19.65,35.68,19.65,35.57Z"/><path class="cls-4" d="M22.87,34.82h-.15a3.06,3.06,0,0,1-.56-.62A1,1,0,0,1,22.87,34.82Z"/><path class="cls-4" d="M24.59,37.18l-.05.24c-.06,0-.12-.1-.18,0h0L24.11,37c.16-.09.26.19.42.06C24.6,37.08,24.6,37.13,24.59,37.18Z"/><path class="cls-4" d="M23.86,36.47l.14,0,.17.07v.12a.55.55,0,0,1-.07.33A1.38,1.38,0,0,1,23.86,36.47Z"/><path class="cls-4" d="M24.1,36.94a.55.55,0,0,0,.07-.33l.12.12c0,.08.07.18.18.2l.06.12c-.16.13-.27-.15-.42-.06A0,0,0,0,1,24.1,36.94Z"/><path class="cls-4" d="M23.29,41.14c-.18-.06-.09-.21-.11-.33A.63.63,0,0,1,23.29,41.14Z"/><path class="cls-4" d="M24.86,39a.13.13,0,0,1,0,.13C24.85,39.14,24.85,39.09,24.86,39Z"/><path class="cls-4" d="M24.3,37.42h0v.07C24.29,37.39,24.28,37.41,24.3,37.42Z"/><path class="cls-10" d="M24.9,40.87l0,.08Z"/><path class="cls-4" d="M24.36,37.55l0,.08A.06.06,0,0,1,24.36,37.55Z"/><path class="cls-10" d="M24.78,41.07l-.06.07Z"/><path class="cls-10" d="M24.72,41.13l-.07.06Z"/><path class="cls-11" d="M21.62,33.71l.07.06Z"/><path class="cls-10" d="M24.43,37.73l0,.07Z"/><path class="cls-4" d="M24.61,38.23l0,.07A.06.06,0,0,1,24.61,38.23Z"/><path class="cls-4" d="M24.68,38.41l0,.07A.06.06,0,0,1,24.68,38.41Z"/><path class="cls-10" d="M24.8,38.85l0,.07Z"/><path class="cls-4" d="M24.55,38l0,.08A.06.06,0,0,1,24.55,38Z"/><path class="cls-4" d="M20.21,32.29a2,2,0,0,0-.61-.25.11.11,0,0,0-.13-.11h-.12c0-.14,0-.26.19-.25h.06a.13.13,0,0,0,.13.05A8.92,8.92,0,0,1,21.52,33l-.08.08-.37-.19c0-.15-.14-.16-.25-.18l-.18-.07a.11.11,0,0,0-.13-.12l-.18-.07A.11.11,0,0,0,20.21,32.29Z"/><path class="cls-4" d="M23.13,34.57a2.18,2.18,0,0,1-.88-.86h.09A5.24,5.24,0,0,1,23.13,34.57Z"/><path class="cls-4" d="M21.44,33l.08-.08a3.28,3.28,0,0,1,.68.61A1,1,0,0,1,21.44,33Z"/><path class="cls-4" d="M19.53,31.67c-.19,0-.2.11-.19.25l-.14,0c-.08,0-.18-.08-.15-.19s.13-.06.21-.07h.15S19.52,31.59,19.53,31.67Z"/><path class="cls-4" d="M22.34,33.7h-.09a.12.12,0,0,1,0-.15C22.28,33.58,22.32,33.63,22.34,33.7Z"/><path class="cls-4" d="M19.72,31.73a.13.13,0,0,1-.13-.05A.1.1,0,0,1,19.72,31.73Z"/><path class="cls-11" d="M23.23,34.7l-.05-.07Z"/><path class="cls-4" d="M24.92,31.67a.65.65,0,0,1,.6.58c0,.43,0,.86,0,1.29,0,.08,0,.17-.1.21s-.13,0-.18-.09l-.35-.38Z"/><path class="cls-4" d="M20.82,32.66c.11,0,.23,0,.25.18C21,32.82,20.85,32.8,20.82,32.66Z"/><path class="cls-4" d="M24.29,36.74l-.12-.12V36.5C24.33,36.51,24.28,36.64,24.29,36.74Z"/><path class="cls-4" d="M19.46,31.92a.11.11,0,0,1,.13.11A.11.11,0,0,1,19.46,31.92Z"/><path class="cls-4" d="M20.21,32.29a.11.11,0,0,1,.13.12A.11.11,0,0,1,20.21,32.29Z"/><path class="cls-4" d="M20.51,32.47a.11.11,0,0,1,.13.12A.11.11,0,0,1,20.51,32.47Z"/><path class="cls-4" d="M23.67,35.76a.12.12,0,0,1-.12-.13A.11.11,0,0,1,23.67,35.76Z"/><path class="cls-4" d="M23.48,35.51a.12.12,0,0,1-.12-.13A.11.11,0,0,1,23.48,35.51Z"/><path class="cls-4" d="M16.72,42.07h.66C17.05,42.55,17,42.55,16.72,42.07Z"/><rect class="cls-4" x="17.78" y="41.78" width="1.98" height="1.98" rx="0.99" ry="0.99"/><text class="cls-12" transform="translate(30.77 41.64)">M<tspan class="cls-13" x="10.38" y="0">Q</tspan><tspan class="cls-14" x="18.58" y="0">T</tspan><tspan x="24.86" y="0">T</tspan></text></svg>