<?xml version="1.0" encoding="utf-8"?>
<!-- Generator: Adobe Illustrator 21.0.2, SVG Export Plug-In . SVG Version: 6.00 Build 0)  -->
<svg version="1.1" id="Layer_1" xmlns="http://www.w3.org/2000/svg" xmlns:xlink="http://www.w3.org/1999/xlink" x="0px" y="0px"
	 viewBox="0 0 74 74" style="enable-background:new 0 0 74 74;" xml:space="preserve">
<style type="text/css">
	.st0{fill:none;stroke:#006FAF;stroke-width:2;stroke-miterlimit:10;}
	.st1{fill:#006FAF;}
</style>
<title>health-checks</title>
<circle class="st0" cx="37" cy="37" r="36"/>
<title></title>
<desc></desc>
<g id="Layer_3">
</g>
<g>
	<path class="st1" d="M53,45.4c0-6.3,0-12.6,0-18.9c0-0.6,0-1.3-0.4-1.8c-0.5-0.4-1.2-0.3-1.8-0.3c-3.6,0-7.3,0-10.9,0v-2.9h-2.2
		c-5.6,1-11.2,1.9-16.7,2.9v25.4c5.5,1,11.1,1.9,16.6,2.9h2.3v-3.3c3.8,0,7.5,0,11.3,0c0.6,0,1.5,0,1.7-0.8
		C53.1,47.5,53,46.4,53,45.4z M31.7,42.7c-0.6-1.5-1.4-3-1.8-4.6c-0.5,1.5-1.2,2.9-1.8,4.3c-0.8,0-1.6,0-2.4-0.1
		c0.9-1.8,1.8-3.7,2.8-5.5c-0.8-1.9-1.7-3.7-2.6-5.6c0.8,0,1.6-0.1,2.4-0.1c0.5,1.4,1.1,2.8,1.6,4.3c0.5-1.5,1.2-3,1.8-4.5l0,0
		c0.8-0.1,1.6-0.1,2.5-0.1c-1,2-1.9,4-2.9,6c1,2,2,4.1,3,6.1C33.5,42.8,32.6,42.8,31.7,42.7z M51.9,48.3h-12v-2.2h2.9v-2.5h-2.9
		v-1.5h2.9v-2.5h-2.9v-1.5h2.9v-2.5h-2.9v-1.5h2.9v-2.5h-2.9v-1.5h2.9v-2.5h-2.9v-2.2h12V48.3z"/>
	<rect x="44.3" y="27.5" class="st1" width="5.1" height="2.5"/>
	<rect x="44.3" y="31.5" class="st1" width="5.1" height="2.5"/>
	<rect x="44.3" y="35.5" class="st1" width="5.1" height="2.5"/>
	<rect x="44.3" y="43.5" class="st1" width="5.1" height="2.5"/>
	<rect x="44.3" y="39.5" class="st1" width="5.1" height="2.5"/>
</g>
</svg>
