<?xml version="1.0" encoding="utf-8"?>
<!-- Generator: Adobe Illustrator 21.0.2, SVG Export Plug-In . SVG Version: 6.00 Build 0)  -->
<svg version="1.1" id="Layer_1" xmlns="http://www.w3.org/2000/svg" xmlns:xlink="http://www.w3.org/1999/xlink" x="0px" y="0px"
	 viewBox="0 0 74 74" style="enable-background:new 0 0 74 74;" xml:space="preserve">
<style type="text/css">
	.st0{fill:none;stroke:#006FAF;stroke-width:2;stroke-miterlimit:10;}
	.st1{fill:#006FAF;}
	.st2{fill:none;}
	.st3{fill-rule:evenodd;clip-rule:evenodd;fill:none;stroke:#006FAF;stroke-width:2;stroke-miterlimit:10;}
	.st4{fill:#006FAF;stroke:#006FAF;stroke-miterlimit:10;}
	.st5{fill:#FFFFFF;}
</style>
<circle class="st3" cx="37" cy="37" r="36"/>
<path class="st1" d="M40.8,37.5c0-0.3-0.1-0.6-0.1-1l13.8-3.3l-0.1-0.2c0-0.1-0.1-0.1-0.1-0.2c-1.7-2.6-4.1-4.6-7.5-5.9
	c-2.6-1-5.5-1.7-8.9-2.2c-0.6-0.1-1.1-0.3-1.4-1c-0.6-1.3-1.2-2.7-1.9-4.1c-0.3-0.6-0.5-1.1-0.8-1.7l0-0.1l-0.1,0
	c-0.3,0.1-0.6,0.2-1,0.4c-0.8,0.3-1.6,0.6-2.4,0.9c-1.6,0.7-3,1.4-4.2,2.2c-0.4,0.3-0.6,0.5-0.6,0.7c0,0.3,0.1,0.5,0.5,0.9
	c0.6,0.6,1.1,1.1,1.7,1.7L28,25c1,0.9,2.1,2.2,2.7,3.9c0.8,2.8,0.3,5.4-1.5,8.2c-1.7,2.7-4.1,4.8-6.7,7c-0.9,0.8-1.7,1.6-2.2,2.4
	c-1.1,1.6-1,3.1,0.4,4.6c1.1,1.2,2.5,2.1,4.4,2.8c3.3,1.3,6.8,1.7,9.8,2c0.5,0,0.8,0.1,1.1,0.1c1,0,1.2-0.4,1.8-1.7l0,0
	c2.4-4.9,3.5-9.9,3.2-15C40.9,38.8,40.9,38.1,40.8,37.5L40.8,37.5z M37.6,52.5c-0.3,0.7-0.5,1.1-0.7,1.7c-0.1,0.2-0.2,0.4-0.3,0.6
	c-0.2,0.3-0.5,0.5-0.8,0.5c0,0,0,0-0.1,0c-1-0.1-3.5-0.4-5.4-0.7L37.6,52.5L37.6,52.5z M26.1,46.1l-5.3,1.5c1.1-2.4,2.9-3.7,4.7-4.8
	L26.1,46.1L26.1,46.1z M45,34.3c1.7-1.5,2.9-3.2,3.8-5.1c1.8,1,3,2,4.4,3.5c-1.4,0.2-2.8,0.5-4.1,0.8C47.7,33.7,46.4,34,45,34.3
	L45,34.3z M41,31.5l6.9-2.5l0.1,0.1l-4.2,5.4L41,31.5L41,31.5z M36.7,38l3-1l0.3,3L36.7,38z M39.8,40.5l-4.4,2.4l0.7-4.5L39.8,40.5z
	 M37.2,51.9L29,54.4l2.8-3.8L37.2,51.9L37.2,51.9z M39.4,46.6l-0.2,0.8c-0.4,1.3-0.7,2.5-1.1,3.7c0,0.1-0.2,0.2-0.4,0.2
	c-1.8-0.3-3.5-0.8-5-1.6L39.4,46.6z M30.5,50.6l-2.3,3.6l-0.3-0.1c-1.1-0.5-3.2-1.4-3.8-1.7c1-0.3,2-0.6,3.1-0.9
	C28.3,51.2,29.4,50.9,30.5,50.6z M30,49.7L23.5,52l-0.1-0.1l3.6-4.6L30,49.7L30,49.7z M29.1,20.6l4.5-1.9l0.8,2.7L29.1,20.6z
	 M36.3,28.5l-0.6-3.1l4.7,0.9L36.3,28.5L36.3,28.5z M36.8,29.3l4.4-2.7l0.2,0.1l-1.7,4L36.8,29.3L36.8,29.3z M33.7,44.7l-2.3,4.7
	L28,46.6L33.7,44.7L33.7,44.7z M27.4,45.3c-0.5-1-0.6-1.9-0.4-3.1c0-0.1,0.2-0.3,0.3-0.4c0.7-0.3,1.4-0.7,2.1-1l0.6-0.3l0.1,0.1
	L27.4,45.3z M31.4,34.5l1,0.6l-1.9,1.4L31.4,34.5z M35.4,24.3c-0.3-0.1-0.7-0.1-1-0.1c-0.3-0.1-0.6-0.1-1-0.2l-0.3-0.1l1.8-1.3
	l0.9,1.7L35.4,24.3z M35,33.4l1.1-3l2.3,1.1L35,33.4L35,33.4z M28.8,45.3l2.4-5l2.4,3.3L28.8,45.3L28.8,45.3z M33.3,36.2
	c0.1,0.1,0.1,0.1,0.2,0.2c0.4,0.6,0.5,1,0.5,1.2c-0.1,0.2-0.4,0.4-1.1,0.7c-0.8,0.3-1.7,0.7-2.5,1c-0.2,0.1-0.4,0.2-0.6,0.3
	L33.3,36.2L33.3,36.2z M34.5,29.8l-2.8,2.5V29L34.5,29.8L34.5,29.8z M35,30.8l-1.5,3.6L32,33.2l2.9-2.5L35,30.8L35,30.8z M31.9,27.8
	l2.9-2.5l0.2,0.1l0.4,3.4L31.9,27.8z M34.2,42.9l-2.3-3.1l3.2-1.3l-0.7,4.3L34.2,42.9z M38,32.9L38,32.9l-3.3,4.5l-0.6-2.3L38,32.9
	L38,32.9z M31.3,23.5c-0.6-0.6-1.2-1.2-1.7-1.8c-0.1-0.1-0.2-0.2-0.3-0.4l5.1,0.9c-0.2,0.1-0.3,0.2-0.5,0.3c-0.6,0.4-1.2,0.7-1.9,1
	c-0.1,0-0.2,0.1-0.3,0.1C31.5,23.6,31.3,23.6,31.3,23.5z M26.4,22.3c0-0.2,0.8-0.6,1.2-0.9c0.2-0.1,0.3-0.2,0.4-0.3
	c0.3,0.4,0.7,0.8,1,1.2l0.8,1l0,0c-1-0.2-2-0.5-3.3-0.9C26.4,22.4,26.4,22.4,26.4,22.3z M30.1,26.1c-0.8-0.9-1.5-1.8-2.3-2.5
	C29.7,24.1,29.9,24.5,30.1,26.1z M34,25.1l-2.8,2l-1-2.7L34,25.1z M28.4,39.6c0.8-1.4,2.1-2.2,3.4-3l0,0l0,0.1L28.4,39.6z
	 M39.2,46.1L33,48.7l1.9-4.3L39.2,46.1z M42.9,34.8L36,37l3.9-4.5L42.9,34.8L42.9,34.8z M41,30.4l1.1-3.8l5.3,1.8l0,0L41,30.4
	L41,30.4z M26.2,47l-3.2,4.5c-1.1-0.6-2.1-2.1-2.2-3.3L26.2,47z M39.9,41.1l-0.4,4.6l-4.1-1.9L39.9,41.1z"/>
</svg>
