<?xml version="1.0" encoding="utf-8"?>
<!-- Generator: Adobe Illustrator 21.0.2, SVG Export Plug-In . SVG Version: 6.00 Build 0)  -->
<svg version="1.1" id="Layer_1" xmlns="http://www.w3.org/2000/svg" xmlns:xlink="http://www.w3.org/1999/xlink" x="0px" y="0px"
	 viewBox="0 0 74 74" style="enable-background:new 0 0 74 74;" xml:space="preserve">
<style type="text/css">
	.st0{fill:#006FAF;}
</style>
<title>os-patch-management</title>
<g id="text">
</g>
<path class="st0" d="M37,74C16.6,74,0,57.4,0,37S16.6,0,37,0s37,16.6,37,37S57.4,74,37,74z M37,2C17.7,2,2,17.7,2,37s15.7,35,35,35
	s35-15.7,35-35S56.3,2,37,2z"/>
<g>
</g>
<g>
	<path class="st0" d="M37,51.7c-8.1,0-14.6-6.5-14.6-14.6S28.9,22.5,37,22.5S51.6,29,51.6,37.1S45.1,51.7,37,51.7L37,51.7z M37,21.1
		c-8.8,0-16,7.1-16,15.9s7.2,15.9,16,15.9S53,45.8,53,37S45.8,21.1,37,21.1L37,21.1z"/>
	<path class="st0" d="M32.9,44.1c-2.4-1.1-4.1-3.7-4.1-6.7c0-1.6,0.5-3,1.3-4.2l5.3,7.8h3.2l5.3-7.8c0.8,1.2,1.3,2.6,1.3,4.2
		c0,2.8-1.5,5.2-3.6,6.4l1,3.9c3.9-2,6.5-6,6.5-10.7c0-4.4-2.4-8.2-5.9-10.3L37,36.3l-6-9.5c-3.5,2.1-5.9,5.9-5.9,10.3
		c0,4.8,2.8,9,6.9,10.9L32.9,44.1L32.9,44.1z"/>
</g>
</svg>
