<?xml version="1.0" encoding="utf-8"?>
<!-- Generator: Adobe Illustrator 21.0.2, SVG Export Plug-In . SVG Version: 6.00 Build 0)  -->
<svg version="1.1" id="Layer_1" xmlns="http://www.w3.org/2000/svg" xmlns:xlink="http://www.w3.org/1999/xlink" x="0px" y="0px"
	 viewBox="0 0 74 74" style="enable-background:new 0 0 74 74;" xml:space="preserve">
<style type="text/css">
	.st0{fill:none;stroke:#006FAF;stroke-width:2;stroke-miterlimit:10;}
	.st1{fill:#006FAF;}
</style>
<circle class="st0" cx="37" cy="37" r="36"/>
<path class="st1" d="M53.4,47.1c0-0.1,0-0.1,0-0.2c-0.4-0.5-0.8-1-1.2-1.4c-2-1.7-4.1-3.3-6.6-4.2c-0.6-0.2-1-0.6-1.2-1.1
	c-0.7-1.5-1.4-2.9-2.1-4.4c-0.6-1.2-1-2.5-1.7-3.6c-1.7-3-4-5.5-6.9-7.5c-2-1.4-4.1-2.5-6.7-2.5c-0.4,0-0.8-0.3-1.1-0.5
	c-1.4-1-2.8-1.8-4.6-1.8c-1.1,0-1.9,0.8-1.8,1.9c0,0.6,0.2,1.2,0.5,1.6c0.5,0.8,1.1,1.5,1.7,2.3c0.3,0.5,0.6,1,0.8,1.5
	c0.4,1,0.7,2.1,1.1,3.1c0.4,0.9,1.1,1.8,1.6,2.7c0.1,0.2,0.2,0.5,0.1,0.7c-0.7,2.3-1.2,4.7-0.6,7.1c0.3,1.3,0.8,2.6,1.8,3.5
	c1,0.8,2.1,0.5,2.4-0.8c0-0.2,0.1-0.5,0.1-0.7c0.1-0.6,0.2-1.1,0.3-1.7c0.7,1.1,1.2,2.1,1.9,3c0.7,0.9,1.7,1.6,2.5,2.5l0.1-0.1
	c-1.9-2.5-3.5-5.2-4.5-8.1c-1.7,1.4-1.6,3.4-1.9,5.2c-0.7-0.1-1-0.6-1.2-1.1c-1.1-2.4-1.1-4.9-0.3-7.4c0.2-0.5,0.4-1,0.4-1.5
	c0-0.3-0.1-0.8-0.3-1.1c-1-1-1.6-2.3-1.9-3.6c-0.6-2-1.5-3.9-2.9-5.5c-0.3-0.3-0.5-0.6-0.6-1s-0.2-0.8,0-1.1
	c0.2-0.4,0.7-0.3,1.1-0.2c1.2,0.4,2.4,0.9,3.5,1.8c0.3,0.2,0.7,0.4,1.1,0.4c1.2,0.1,2.4,0.1,3.4,0.7c0.7,0.3,1.3,0.6,2,1
	c3.9,2.4,6.7,5.6,8.5,9.8c0.9,2.1,1.9,4.1,2.9,6.2c0.3,0.7,0.8,1.2,1.5,1.4c2.5,0.5,4.5,2,6.5,3.4c0.2,0.2,0.4,0.4,0.7,0.7
	c-0.3,0-0.4,0-0.5,0c-1.6,0-3.1,0.2-4.6,0.8c-0.5,0.2-0.7,0.4-0.4,0.8c0.2,0.3,0.3,0.6,0.5,0.9c0.9,1.1,2.1,1.8,3.3,2.5
	c1.1,0.6,2.3,1.3,3.4,2c0.3,0.1,0.5,0.4,0.7,0.5l0.1-0.1c-0.4-0.4-0.8-0.8-1.1-1.2c-1-1.3-2.2-2.3-3.7-3.1c-0.4-0.2-0.7-0.4-1-0.7
	c-0.2-0.2-0.3-0.4-0.6-0.7C50,47.8,51.7,47.5,53.4,47.1L53.4,47.1z M27.9,27.9c0.5-0.5,0.6-1,0.2-1.6s-0.8-0.7-1.4-0.4
	C27,26.6,27.4,27.2,27.9,27.9z"/>
</svg>
