<?xml version="1.0" encoding="utf-8"?>
<!-- Generator: Adobe Illustrator 21.0.2, SVG Export Plug-In . SVG Version: 6.00 Build 0)  -->
<svg version="1.1" id="Layer_1" xmlns="http://www.w3.org/2000/svg" xmlns:xlink="http://www.w3.org/1999/xlink" x="0px" y="0px"
	 viewBox="0 0 74 74" style="enable-background:new 0 0 74 74;" xml:space="preserve">
<style type="text/css">
	.st0{fill:none;stroke:#006FAF;stroke-width:2;stroke-miterlimit:10;}
	.st1{fill:#006FAF;}
</style>
<title>Cloud &amp;amp; Infrastructure Services</title>
<circle class="st0" cx="37" cy="37" r="36"/>
<path class="st1" d="M37,19.5c-9.6,0-17.4,7.7-17.5,17.2c-0.2,9.9,7.7,17.8,17.4,17.8c9.8,0.1,17.6-7.8,17.6-17.5
	C54.5,27.3,46.7,19.5,37,19.5z M45.2,47.3c-0.3,0.3-0.7,0.5-1.1,0.4c-0.3,0-0.7,0-1,0c-1.3,0-2.7-0.2-4-0.3c-0.9,0-1.8,0.1-2.8,0.2
	c-1.6,0.2-3.2,0.1-4.7-0.1c-0.6-0.1-1.1,0-1.7,0c-0.3,0-0.6,0-0.9-0.1c-0.6-0.2-0.8-0.5-0.6-1.1c0.1-0.4,0.4-0.7,0.8-0.9
	c0.5-0.2,1-0.3,1.5-0.3c1.1,0.1,2.1,0.2,3.2,0.2c1.4,0,2.8,0,4.2-0.3c0.9-0.2,1.8,0,2.7,0.2c0.9,0.1,1.7,0.1,2.6,0.2
	c0.5,0,1,0,1.4,0.2C45.7,46,45.8,46.8,45.2,47.3z M45.6,40.1c0.1,0.6,0.1,1.1,0,1.7c-0.2,1.2-1.1,1.8-2.3,1.6
	c-0.6-0.1-1.2-0.2-1.8-0.3c-1-0.1-1.7-0.8-2.3-1.6c-0.5-0.7-0.9-1.5-1.3-2.2c-0.4-0.7-0.9-1.4-1.4-1.9c-0.6-0.6-1.1-1.3-1.5-2.1
	c0-0.1-0.1-0.1-0.1-0.2c-0.1-0.2-0.3-0.3-0.5-0.2c-0.2,0-0.3,0.2-0.4,0.4c0,0.2-0.1,0.3-0.1,0.5c0,0.9-0.1,1.9-0.1,2.8
	c0,0.2,0,0.5,0,0.7c0.1,0.6,0,1.1-0.2,1.6c-0.2,0.3-0.2,0.7,0,1.1c0.3,0.5,0.1,1.1-0.4,1.2c-1.1,0.4-2.3,0.5-3.4-0.2
	c-0.5-0.3-0.7-0.7-0.7-1.2c0-1-0.1-1.9-0.1-2.9c0-0.7,0.2-1.2,0.7-1.7c0.3-0.3,0.5-0.6,0.6-1c0-0.2,0-0.5-0.1-0.6
	c-1-1.2-1.3-2.7-1.1-4.2c0.2-1.1,0.1-2.2,0.1-3.2c0-0.1,0-0.3,0-0.4c0.1-0.7,0.4-1,1.1-0.9c0.8,0.1,1.5-0.1,2.1-0.4
	c0.7-0.3,1.6,0.1,1.8,0.8c0.1,0.2,0.1,0.4,0.2,0.6c0.2,0.5,0.5,0.9,1,1.1c0.3,0.1,0.5,0.3,0.7,0.6c1,1.3,1.9,2.8,2.8,4.1
	c0.3,0.4,0.6,0.8,0.9,1.1c0.3,0.3,0.5,0.2,0.6-0.2c0.1-0.8,0.2-1.6,0.1-2.3c-0.1-1.4,0-2.9,0.1-4.3c0.1-0.9,0.5-1.3,1.4-1.3
	c0.4,0,0.8,0,1.2,0c1.1,0,1.9,0.7,2.1,1.8c0.1,0.5,0.2,1.1,0.2,1.6c0,0.5,0,1,0,1.6c0,0.9-0.1,1.8,0,2.7c0.1,1,0,2.1-0.1,3.1
	C45.4,38.2,45.5,39.1,45.6,40.1z"/>
</svg>
