<?xml version="1.0" encoding="utf-8"?>
<!-- Generator: Adobe Illustrator 21.0.2, SVG Export Plug-In . SVG Version: 6.00 Build 0)  -->
<svg version="1.1" id="Layer_1" xmlns="http://www.w3.org/2000/svg" xmlns:xlink="http://www.w3.org/1999/xlink" x="0px" y="0px"
	 viewBox="0 0 74 74" style="enable-background:new 0 0 74 74;" xml:space="preserve">
<style type="text/css">
	.st0{fill:#006FAF;}
</style>
<title>os-patch-management</title>
<g id="text">
</g>
<path class="st0" d="M37,74C16.6,74,0,57.4,0,37S16.6,0,37,0s37,16.6,37,37S57.4,74,37,74z M37,2C17.7,2,2,17.7,2,37s15.7,35,35,35
	s35-15.7,35-35S56.3,2,37,2z"/>
<g>
	<path class="st0" d="M20.3,42.7V31.3h2.3l4.7,7.6v-7.6h2.1v11.5H27l-4.6-7.5v7.5L20.3,42.7L20.3,42.7z"/>
	<path class="st0" d="M31.8,31.3H36c1,0,1.7,0.1,2.2,0.2c0.7,0.2,1.2,0.5,1.7,1.1c0.5,0.5,0.8,1.1,1.1,1.9c0.3,0.7,0.4,1.6,0.4,2.7
		c0,0.9-0.1,1.8-0.4,2.4c-0.3,0.8-0.7,1.5-1.2,2c-0.4,0.4-0.9,0.7-1.6,0.9c-0.5,0.2-1.2,0.2-2,0.2h-4.4
		C31.8,42.7,31.8,31.3,31.8,31.3z M34.1,33.2v7.6h1.7c0.6,0,1.1,0,1.4-0.1c0.4-0.1,0.7-0.3,0.9-0.5s0.4-0.6,0.6-1.1S39,37.9,39,37
		s-0.1-1.6-0.2-2c-0.2-0.5-0.4-0.8-0.7-1.1s-0.6-0.4-1.1-0.5c-0.3-0.1-1-0.1-1.9-0.1h-1V33.2z"/>
	<path class="st0" d="M43.4,42.7V31.3h2.3v5.1l4.7-5.1h3.1l-4.3,4.5l4.5,7h-3l-3.1-5.4l-1.9,1.9v3.5L43.4,42.7L43.4,42.7z"/>
</g>
</svg>
