<?xml version="1.0" encoding="utf-8"?>
<!-- Generator: Adobe Illustrator 21.0.2, SVG Export Plug-In . SVG Version: 6.00 Build 0)  -->
<svg version="1.1" id="Layer_1" xmlns="http://www.w3.org/2000/svg" xmlns:xlink="http://www.w3.org/1999/xlink" x="0px" y="0px"
	 viewBox="0 0 74 74" style="enable-background:new 0 0 74 74;" xml:space="preserve">
<style type="text/css">
	.st0{fill:none;stroke:#006FAF;stroke-width:2;stroke-miterlimit:10;}
	.st1{fill:#006FAF;}
</style>
<title>java</title>
<circle class="st0" cx="37" cy="37" r="36"/>
<g id="Layer_1_1_">
</g>
<g>
	<path class="st1" d="M38.8,25.7c-6.4,0-11.5,5.1-11.5,11.5s5.1,11.5,11.5,11.5s11.5-5.1,11.5-11.5S45.2,25.7,38.8,25.7z M36.6,45.7
		c-4.9,0-8.8-4-8.8-8.8c0-4.9,4-8.8,8.8-8.8c4.9,0,8.8,4,8.8,8.8C45.4,41.7,41.5,45.7,36.6,45.7z"/>
	<path class="st1" d="M55.2,33L55.2,33c-1.7-8-11.3-12.7-21.4-10.5C23.8,24.7,17,33,18.8,41c1.7,8,11.3,12.7,21.4,10.5
		C50.2,49.3,57,41,55.2,33z M38.8,50.2c-7.2,0-13-5.8-13-13s5.8-13,13-13s13,5.8,13,13S46,50.2,38.8,50.2z"/>
</g>
</svg>
