<?xml version="1.0" encoding="utf-8"?>
<!-- Generator: Adobe Illustrator 21.0.2, SVG Export Plug-In . SVG Version: 6.00 Build 0)  -->
<svg version="1.1" id="Layer_1" xmlns="http://www.w3.org/2000/svg" xmlns:xlink="http://www.w3.org/1999/xlink" x="0px" y="0px"
	 viewBox="0 0 74 74" style="enable-background:new 0 0 74 74;" xml:space="preserve">
<style type="text/css">
	.st0{fill:none;stroke:#006FAF;stroke-width:2;stroke-miterlimit:10;}
	.st1{fill:#006FAF;}
</style>
<title>Cloud &amp;amp; Infrastructure Services</title>
<circle class="st0" cx="37" cy="37" r="36"/>
<g>
	<path class="st1" d="M23.5,32.8c0.1,0.7,0.1,1.4,0.1,2c0.1,2.5,0.3,4.9,1.3,7.2c2.6,6.1,9,9.4,15.4,7.9c4.6-1.1,10-5.8,10.1-12.9
		c0.1-7.8-6.6-15.3-16.1-12.7c-2,0.6-3.7,2-5.9,2.2c-0.4,0-0.6,0.5-0.4,0.9c0.2,0.5,0.4,0.9,0.7,1.5c0.3-0.5,0.6-1,1-1.5
		c0.1,0.4-0.1,0.7-0.2,1c-0.5,1.2-0.8,2.5-0.7,3.9c0.2,2.3,0.4,4.5,0.8,6.7c0.2,0.9,0.4,1,1.2,0.7c0.3-0.1,0.4-0.3,0.6-0.6
		s0.4-0.8,0.7-1c1.3-1,2.4-2.2,3.7-3.3c0.6-0.6,1.4-1,2.2-1.1c2.4-0.2,4.6,1.2,5.1,4.1c0,0.2,0.1,0.5-0.2,0.7
		c-0.3-0.7-0.6-1.4-0.9-2.1c-1-1.9-2.9-2.7-4.8-1.7c-2.3,1.2-4.1,3-5.6,5.1c-0.6,0.9-0.9,2.2,0.2,3.5s2.4,1.9,4,2
		c0.4,0,0.8,0.1,1.1,0.5c-2,0-3.7-0.4-5-1.7c-1.7-1.6-2.7-3.6-3.1-5.9c-0.4-2-0.4-3.9-0.5-5.9c-0.1-1.3-0.2-2.5-0.5-3.7
		C27.6,27.7,27,27.1,26,27c-1.2-0.1-2.3-0.1-3.5,0.2c-0.4,0.1-0.7,0.3-1,0.6c-0.4,0.4-0.4,0.6,0,0.9C22.6,30,23.3,31.3,23.5,32.8z
		 M32,34.4c0.4-0.6,0.9-1.2,1.2-1.9C33.2,33.4,32.7,34,32,34.4z M34.7,30.7c-0.1,0-0.2,0-0.2,0c-0.1,0-0.2,0-0.1-0.1
		c0-0.1,0.1-0.1,0.2-0.1c0.1,0,0.1,0,0.2,0.1C34.7,30.6,34.7,30.6,34.7,30.7z M34.8,30.4c0.3-0.2,0.6-0.4,0.7-0.8
		c0.1-0.4,0.1-0.7-0.4-0.8c-0.3-0.1-0.6-0.2-0.6-0.6c0-0.6-0.2-0.7-0.8-0.5c-0.3,0.1-0.5,0.3-0.7,0.6c-0.1,0.1-0.1,0.2-0.2,0.3
		c-0.2-0.2-0.1-0.4,0-0.5c0.2-0.7,0.8-1.2,1.5-1.2s1.6,0.9,1.7,1.6C36.2,29.7,35.7,30.4,34.8,30.4z"/>
	<path class="st1" d="M46.2,24.1c-6.9-4.8-15.9-3.2-20.8,2.6c0.8,0.3,1.3,0.2,1.9-0.4c3.6-3.3,7.8-4.5,12.5-3.6
		C48,24.2,53,31.8,51.5,40c-1.4,7.7-9.3,13.1-17,11.6c-8.2-1.6-13.3-9.1-11.8-17.4c0.2-0.8-0.1-1.5-0.4-2.4
		c-2.4,5.8-0.7,14.5,6.8,18.9c7.4,4.4,16.7,2.1,21.3-5.2C55.1,38.3,53.2,28.9,46.2,24.1z"/>
	<path class="st1" d="M33,28.4c-0.1-0.1-0.1-0.1-0.2-0.2C32.8,28.4,32.9,28.4,33,28.4z"/>
</g>
</svg>
