<?xml version="1.0" encoding="utf-8"?>
<!-- Generator: Adobe Illustrator 21.0.2, SVG Export Plug-In . SVG Version: 6.00 Build 0)  -->
<svg version="1.1" id="Layer_1" xmlns="http://www.w3.org/2000/svg" xmlns:xlink="http://www.w3.org/1999/xlink" x="0px" y="0px"
	 viewBox="0 0 74 74" style="enable-background:new 0 0 74 74;" xml:space="preserve">
<style type="text/css">
	.st0{fill:none;stroke:#006FAF;stroke-width:2;stroke-miterlimit:10;}
	.st1{fill:#006FAF;}
</style>
<title>Cloud &amp;amp; Infrastructure Services</title>
<circle class="st0" cx="37" cy="37" r="36"/>
<g>
	<path class="st1" d="M23,42.1h-1.3l-4.9-7.6v7.6h-1.3v-9.8h1.3l5,7.6v-7.6H23V42.1z"/>
	<path class="st1" d="M24.8,38.4c0-0.5,0.1-1,0.2-1.5s0.4-0.8,0.7-1.2s0.6-0.6,1-0.8c0.4-0.2,0.9-0.3,1.4-0.3c0.5,0,1,0.1,1.4,0.3
		c0.4,0.2,0.8,0.4,1,0.8c0.3,0.3,0.5,0.7,0.7,1.2c0.2,0.5,0.2,0.9,0.2,1.5v0.1c0,0.5-0.1,1-0.2,1.5c-0.2,0.5-0.4,0.8-0.7,1.2
		c-0.3,0.3-0.6,0.6-1,0.8c-0.4,0.2-0.9,0.3-1.4,0.3s-1-0.1-1.4-0.3c-0.4-0.2-0.8-0.4-1-0.8c-0.3-0.3-0.5-0.7-0.7-1.2
		s-0.2-0.9-0.2-1.5V38.4z M26.1,38.5c0,0.4,0,0.7,0.1,1c0.1,0.3,0.2,0.6,0.4,0.9s0.4,0.4,0.6,0.6c0.3,0.1,0.6,0.2,0.9,0.2
		c0.3,0,0.6-0.1,0.9-0.2c0.3-0.1,0.5-0.3,0.6-0.6s0.3-0.5,0.4-0.9c0.1-0.3,0.1-0.7,0.1-1v-0.1c0-0.4,0-0.7-0.1-1
		c-0.1-0.3-0.2-0.6-0.4-0.9c-0.2-0.2-0.4-0.4-0.7-0.6c-0.3-0.1-0.6-0.2-0.9-0.2c-0.3,0-0.6,0.1-0.9,0.2c-0.3,0.1-0.5,0.3-0.6,0.6
		c-0.2,0.2-0.3,0.5-0.4,0.9s-0.1,0.7-0.1,1V38.5z"/>
	<path class="st1" d="M34.2,34.8l0,0.8c0.3-0.3,0.6-0.5,0.9-0.7c0.4-0.2,0.8-0.2,1.3-0.2c0.5,0,0.9,0.1,1.3,0.3s0.6,0.5,0.8,0.9
		c0.2-0.4,0.6-0.6,0.9-0.8c0.4-0.2,0.8-0.3,1.4-0.3c0.4,0,0.7,0.1,1,0.2s0.6,0.3,0.8,0.5s0.4,0.5,0.5,0.8c0.1,0.3,0.2,0.7,0.2,1.2
		v4.8H42v-4.8c0-0.3,0-0.6-0.1-0.8s-0.2-0.4-0.3-0.5c-0.1-0.1-0.3-0.2-0.5-0.3s-0.4-0.1-0.6-0.1c-0.3,0-0.5,0-0.7,0.1
		s-0.4,0.2-0.5,0.3c-0.1,0.1-0.3,0.3-0.3,0.5c-0.1,0.2-0.1,0.4-0.2,0.6v4.8h-1.3v-4.8c0-0.3,0-0.5-0.1-0.7s-0.2-0.4-0.3-0.5
		s-0.3-0.2-0.5-0.3c-0.2-0.1-0.4-0.1-0.6-0.1c-0.4,0-0.8,0.1-1.1,0.3c-0.3,0.2-0.5,0.4-0.6,0.8v5.3H33v-7.3H34.2z"/>
	<path class="st1" d="M49.6,42.1c0-0.1-0.1-0.2-0.1-0.3c0-0.1,0-0.3-0.1-0.4c-0.1,0.1-0.2,0.2-0.4,0.3c-0.1,0.1-0.3,0.2-0.5,0.3
		c-0.2,0.1-0.4,0.1-0.6,0.2c-0.2,0-0.4,0.1-0.6,0.1c-0.4,0-0.7-0.1-1-0.2c-0.3-0.1-0.6-0.3-0.8-0.5s-0.4-0.4-0.5-0.7
		c-0.1-0.3-0.2-0.5-0.2-0.8c0-0.4,0.1-0.7,0.2-1c0.2-0.3,0.4-0.5,0.7-0.8c0.3-0.2,0.6-0.4,1-0.5c0.4-0.1,0.9-0.2,1.4-0.2h1.2v-0.6
		c0-0.4-0.1-0.8-0.4-1c-0.3-0.3-0.6-0.4-1.2-0.4c-0.2,0-0.4,0-0.6,0.1c-0.2,0.1-0.4,0.1-0.5,0.3c-0.1,0.1-0.2,0.2-0.3,0.4
		c-0.1,0.1-0.1,0.3-0.1,0.4h-1.3c0-0.3,0.1-0.5,0.2-0.8c0.1-0.3,0.3-0.5,0.6-0.7c0.3-0.2,0.6-0.4,0.9-0.5c0.4-0.1,0.8-0.2,1.2-0.2
		c0.4,0,0.8,0.1,1.1,0.2c0.3,0.1,0.6,0.3,0.9,0.5c0.2,0.2,0.4,0.5,0.6,0.8c0.1,0.3,0.2,0.7,0.2,1.1v3.4c0,0.2,0,0.5,0.1,0.8
		c0,0.3,0.1,0.5,0.2,0.7v0.1H49.6z M47.6,41.2c0.2,0,0.4,0,0.6-0.1c0.2-0.1,0.4-0.1,0.5-0.2c0.2-0.1,0.3-0.2,0.4-0.3
		c0.1-0.1,0.2-0.3,0.3-0.4v-1.5h-1c-0.7,0-1.3,0.1-1.7,0.3c-0.4,0.2-0.6,0.6-0.6,1c0,0.2,0,0.3,0.1,0.5c0.1,0.2,0.1,0.3,0.3,0.4
		s0.3,0.2,0.4,0.3C47.1,41.1,47.3,41.2,47.6,41.2z"/>
	<path class="st1" d="M52.3,38.4c0-0.6,0.1-1.1,0.2-1.5c0.1-0.5,0.3-0.8,0.6-1.2s0.6-0.6,0.9-0.8c0.4-0.2,0.7-0.3,1.2-0.3
		c0.4,0,0.8,0.1,1.2,0.2s0.6,0.4,0.9,0.7v-3.8h1.2v10.4h-1.1l-0.1-0.8c-0.2,0.3-0.5,0.5-0.9,0.7s-0.7,0.2-1.2,0.2
		c-0.4,0-0.8-0.1-1.2-0.3c-0.4-0.2-0.7-0.4-0.9-0.8c-0.3-0.3-0.4-0.7-0.6-1.2c-0.1-0.5-0.2-0.9-0.2-1.5V38.4z M53.6,38.5
		c0,0.4,0,0.7,0.1,1c0.1,0.3,0.2,0.6,0.3,0.8c0.2,0.2,0.4,0.4,0.6,0.6c0.2,0.1,0.5,0.2,0.9,0.2c0.2,0,0.4,0,0.6-0.1s0.3-0.1,0.5-0.2
		s0.3-0.2,0.4-0.3c0.1-0.1,0.2-0.3,0.3-0.4v-3.4c-0.1-0.1-0.2-0.3-0.3-0.4c-0.1-0.1-0.2-0.2-0.4-0.3c-0.1-0.1-0.3-0.2-0.5-0.2
		s-0.4-0.1-0.6-0.1c-0.3,0-0.6,0.1-0.9,0.2c-0.2,0.1-0.4,0.3-0.6,0.6c-0.2,0.2-0.3,0.5-0.3,0.8s-0.1,0.7-0.1,1V38.5z"/>
</g>
</svg>
