<?xml version="1.0" encoding="utf-8"?>
<!-- Generator: Adobe Illustrator 21.0.2, SVG Export Plug-In . SVG Version: 6.00 Build 0)  -->
<svg version="1.1" id="Layer_1" xmlns="http://www.w3.org/2000/svg" xmlns:xlink="http://www.w3.org/1999/xlink" x="0px" y="0px"
	 viewBox="0 0 74 74" style="enable-background:new 0 0 74 74;" xml:space="preserve">
<style type="text/css">
	.st0{fill:none;stroke:#006FAF;stroke-width:2;stroke-miterlimit:10;}
	.st1{fill:#006FAF;}
</style>
<title>java</title>
<circle class="st0" cx="37" cy="37" r="36"/>
<g id="Layer_1_1_">
</g>
<g>
	<path class="st1" d="M22.3,34.5c10.5,0,20.9,0,31.4,0c0.1,0,0.2,0.1,0.3-0.1c-2.6-2.3-5.1-4.7-7.7-7.1c0,1.1,0,2.1,0,3.1
		c0,0.3-0.1,0.4-0.4,0.4c-6.9,0-13.9,0-20.8,0c-0.1,0-0.2,0-0.2,0c-0.1,0-0.2-0.1-0.2-0.2c0-1.1-0.1-2.2,0.1-3.2
		c0.1-1.2,0.8-2,2.2-2c7.3,0,14.5,0,21.8,0c0.4,0,0.7,0,1.1,0.2c1.1,0.4,1.8,1.4,1.9,2.5c0,0.3,0,0.6,0,0.9c0,0.2,0,0.3,0.2,0.4
		c0.8,0.6,1.5,1.3,2.3,1.9c0.1,0,0.1,0.1,0.2,0.1c0-1.3,0-2.6,0-3.9c0-0.2,0-0.4-0.1-0.6c-0.5-2.5-2.8-4.3-5.5-4.3
		c-7.3,0-14.6,0-21.9,0c-1.5,0-2.8,0.6-3.8,1.8c-0.8,1-1.1,2.3-1.1,3.5c0,2,0,4,0,6C21.9,34.4,22,34.5,22.3,34.5z"/>
	<path class="st1" d="M54.3,36.6c0-0.3-0.1-0.4-0.4-0.4c-10.7,0-21.3,0-32,0c-0.1,0-0.2,0-0.4,0.1c2.5,2.3,5,4.6,7.5,6.9
		c0-1.4,0-2.6,0-3.9c0-0.3,0.1-0.4,0.4-0.4c3.1,0,6.1,0,9.2,0c4.2,0,8.4,0,12.5,0c0.3,0,0.4,0,0.4,0.4c0,1,0,2.1,0,3.1
		c0,1.5-1.3,2.8-2.8,2.8c-7.3,0-14.6,0-21.9,0c-1,0-1.7-0.6-2-1.4c-0.3-0.8-0.2-1.6-0.2-2.3c0-0.2-0.1-0.3-0.2-0.5
		c-0.8-0.6-1.5-1.3-2.3-1.9C22,39.1,22,39,21.9,39c0,1.2,0,2.4,0,3.6c0,0.9,0.2,1.8,0.8,2.6c0.9,1.3,2.2,1.7,3.7,1.8
		c1.6,0,3.2,0,4.8,0c0.2,0,0.4,0.1,0.6,0.2c3.5,2.5,6.9,5,10.4,7.4c0.1,0.1,0.1,0.1,0.3,0.1c0-0.1,0-0.3,0-0.4
		c-0.3-2.3-0.5-4.6-0.8-7c0-0.3,0.1-0.4,0.4-0.4c2.3,0,4.6,0,6.9,0c0.8,0,1.6-0.1,2.4-0.5c1.8-0.7,3-2.2,3-4.3
		C54.2,40.4,54.3,38.5,54.3,36.6z"/>
</g>
</svg>
