<?xml version="1.0" encoding="utf-8"?>
<!-- Generator: Adobe Illustrator 21.0.2, SVG Export Plug-In . SVG Version: 6.00 Build 0)  -->
<svg version="1.1" id="Layer_1" xmlns="http://www.w3.org/2000/svg" xmlns:xlink="http://www.w3.org/1999/xlink" x="0px" y="0px"
	 viewBox="0 0 74 74" style="enable-background:new 0 0 74 74;" xml:space="preserve">
<style type="text/css">
	.st0{fill:#006FAF;}
</style>
<title>health-checks</title>
<path class="st0" d="M37,74C16.6,74,0,57.4,0,37S16.6,0,37,0s37,16.6,37,37S57.4,74,37,74z M37,2C17.7,2,2,17.7,2,37s15.7,35,35,35
	s35-15.7,35-35S56.3,2,37,2z"/>
<g>
</g>
<g>
	<path class="st0" d="M45.3,29c-1.6-1.6-3.4-2.6-5.5-3.2c-0.1,0-0.3-0.1-0.4-0.1l0,0c-0.4-0.1-0.5,0.2-0.6,0.4
		c-0.8,1.3-2.7,1.3-3.5,0c-0.2-0.2-0.3-0.5-0.6-0.3h-0.1c-0.5,0.2-1,0.3-1.5,0.5c-1.6,0.6-2.9,1.4-4.1,2.6c-1.5,1.5-2.6,3.2-3.2,5.2
		c-0.3,1-0.5,2-0.5,3c0,1.1,0,2.1,0.3,3.2c0,0.1,0,0.2,0,0.3l0,0c0.1,0.1,0.1,0.2,0.1,0.2c0.1,0.3,0.2,0.6,0.3,1
		c0.1,0.2,0.2,0.3,0.4,0.3c1,0,1.7,0.6,2,1.5c0.2,0.5,0.1,1-0.1,1.4c-0.1,0.2-0.2,0.4-0.2,0.6l0,0c0.3,0.2,0.5,0.5,0.8,0.7
		c1.9,1.8,4.1,2.9,6.7,3.2c3.3,0.4,6.2-0.4,8.8-2.5c0.4-0.3,0.8-0.7,1.1-1c0.1-0.1,0.2-0.2,0.4-0.3l0,0c0-0.1-0.1-0.3-0.2-0.4
		c-0.4-0.7-0.5-1.5,0-2.2c0.4-0.7,1.1-1.1,1.9-1c0.5,0,0.5,0,0.7-0.5c0.1-0.2,0.1-0.4,0.2-0.6c0-0.1,0-0.1,0.1-0.2l0,0
		c0.1-0.5,0.2-1,0.3-1.5c0.3-2.4,0-4.6-1-6.8C47.1,31.1,46.3,30,45.3,29z M41.7,42.3c0,0.8-0.7,1.2-1.4,0.9
		c-0.3-0.2-0.4-0.5-0.4-0.8c0-1.8,0-3.6,0-5.4c0-0.6,0-1.2-0.2-1.9c-0.2-0.8-0.6-1.6-1.5-1.8c-0.8-0.2-1.5-0.2-2.3,0.2
		c-1.1,0.5-1.6,1.3-1.6,2.5c0,2.1,0,4.2,0,6.3c0,0.1,0,0.2,0,0.2c0,0.6-0.3,0.9-0.8,0.9c-0.7,0-1-0.2-1-0.8c0-0.1,0-0.2,0-0.3
		c0-3.1,0-6.3,0-9.4v-0.1c0-0.8,0.7-1.2,1.4-0.9c0.3,0.1,0.4,0.4,0.4,0.7s0,0.5,0,0.8c0.6-0.6,1.2-1.1,2-1.3
		c1.5-0.5,2.9-0.5,4.1,0.7c0.7,0.6,1,1.5,1.1,2.3c0.1,0.6,0.2,1.1,0.2,1.7C41.7,38.6,41.7,40.4,41.7,42.3z"/>
	<path class="st0" d="M37,20c-9.4,0-17,7.6-17,17s7.6,17,17,17s17-7.6,17-17S46.4,20,37,20z M49.6,42c0,0.3-0.2,0.6-0.3,0.9
		c0,0.1-0.1,0.2,0,0.4c0.5,1.3-0.3,2.6-1.7,2.8c-0.1,0-0.2,0.1-0.3,0.2c-0.2,0.2-0.3,0.4-0.5,0.5c-0.5,0.6-1.1,1.1-1.7,1.6
		c-2.5,1.9-5.4,2.9-8.5,2.8c-2.9-0.1-5.5-1-7.8-2.8c-0.2-0.1-0.4-0.2-0.5-0.4c-0.6-0.5-1.1-1.1-1.6-1.6c-0.1-0.1-0.2-0.2-0.4-0.2
		c-1.6,0-2.6-1.6-1.8-3c0.1-0.2,0.1-0.3,0-0.4c-0.2-0.6-0.4-1.1-0.5-1.8c-0.4-1.4-0.5-2.8-0.4-4.3c0.1-1.7,0.5-3.4,1.3-4.9
		c0.8-1.7,1.9-3.2,3.3-4.4c1.2-1,2.4-1.9,3.9-2.4c0.8-0.3,1.7-0.6,2.5-0.7c0.1,0,0.1,0,0.2,0c0.3-0.1,0.6-0.3,0.8-0.6
		c0.8-0.9,2.3-0.8,3.1,0.2c0.2,0.2,0.4,0.4,0.7,0.4c0.1,0,0.1,0,0.2,0l0,0c1.3,0.2,2.5,0.6,3.6,1.2c3.5,1.9,5.8,4.6,6.8,8.4
		c0.5,1.6,0.7,3.3,0.5,4.9C50.2,39.8,50,40.9,49.6,42z"/>
</g>
</svg>
