<?xml version="1.0" encoding="utf-8"?>
<!-- Generator: Adobe Illustrator 21.0.2, SVG Export Plug-In . SVG Version: 6.00 Build 0)  -->
<svg version="1.1" id="Layer_1" xmlns="http://www.w3.org/2000/svg" xmlns:xlink="http://www.w3.org/1999/xlink" x="0px" y="0px"
	 viewBox="0 0 74 74" style="enable-background:new 0 0 74 74;" xml:space="preserve">
<style type="text/css">
	.st0{fill:none;stroke:#006FAF;stroke-width:2;stroke-miterlimit:10;}
	.st1{fill:#006FAF;}
</style>
<circle class="st0" cx="37" cy="37" r="36"/>
<g id="upload-university:oauth-logo">
	<g id="Layer_1_1_">
		<path id="Shape_5_" class="st1" d="M49.4,24.4c-1.5-1.5-3.4-2.9-5.7-3.7c-2.3-0.9-5-1.6-8.1-1.3c-4.9,0.4-8.4,2.6-11.1,5.2
			c-1.8,1.8-3.2,4-4.2,6.7c-1.3,3.8-1.3,8.3,0.2,12.2c1.3,3.3,3.4,6,6.4,8.1c2.8,1.9,6.9,3.5,11.4,3.1c5.5-0.5,9.6-3.3,12.2-6.6
			c0.7-0.8,1.4-1.8,1.7-2.9c0.4-0.8,0.6-1.4,0.7-1.7c0.7-1.7,1.1-3.4,1.2-5.3C54.8,32.2,52.5,27.6,49.4,24.4L49.4,24.4z M47.8,42.5
			C47.7,42.5,47.7,42.6,47.8,42.5c-0.3,0.9-0.8,1.5-1.3,2.1c-1.9,2.3-4.7,4.2-8.5,4.6c-3.2,0.3-6-0.8-8-2.1c-1.7-1.2-3-2.6-3.9-4.4
			c-0.1-0.1-0.6-1.3-0.6-1.4c-0.7-2.2-0.8-5.8,0-8c0.5-1.4,1.3-3,2.4-4.2c1.5-1.7,3-2.8,5.4-3.6c1.1-0.4,2.1-0.7,3.4-0.7
			c3.3-0.1,6.6,1.4,8.4,3c1.6,1.5,3.5,4.4,4,7.1C49.5,37.5,49,40.3,47.8,42.5L47.8,42.5z"/>
		<g id="Group" transform="translate(18.000000, 23.000000)">
			<g id="Shape_3_" transform="translate(0.000000, 6.000000)">
				<path class="st1" d="M20,25L36.1,8.9"/>
				<path class="st1" d="M18.6,23.8L34.8,7.6"/>
				<path class="st1" d="M17.2,22.5L33.5,6.2"/>
				<path class="st1" d="M15.8,21.2L32.1,4.9"/>
				<path class="st1" d="M14.4,19.9L30.8,3.5"/>
				<path class="st1" d="M13,18.6L29.4,2.2"/>
				<path class="st1" d="M11.6,17.4L28.1,0.8"/>
				<path class="st1" d="M10.1,16.1L26.8-0.5"/>
				<path class="st1" d="M8.7,14.8L25.4-1.9"/>
				<path class="st1" d="M7.3,13.5L24.1-3.2"/>
				<path class="st1" d="M5.9,12.3L22.7-4.6"/>
				<path class="st1" d="M4.5,11L21.4-5.9"/>
				<path class="st1" d="M3.1,9.7l17-17"/>
				<path class="st1" d="M1.7,8.4l17-17"/>
			</g>
			<g id="Shape_4_">
				<path class="st1" d="M1.7,14.6L18.1,31"/>
				<path class="st1" d="M3,13.2l16.5,16.5"/>
				<path class="st1" d="M4.4,11.9l16.5,16.5"/>
				<path class="st1" d="M5.7,10.5L22.2,27"/>
				<path class="st1" d="M7,9.2l16.6,16.6"/>
				<path class="st1" d="M8.4,7.8L25,24.4"/>
				<path class="st1" d="M9.7,6.5l16.6,16.6"/>
				<path class="st1" d="M11,5.1l16.7,16.7"/>
				<path class="st1" d="M12.4,3.8L29,20.5"/>
				<path class="st1" d="M13.7,2.4l16.7,16.7"/>
				<path class="st1" d="M15,1.1l16.8,16.8"/>
				<path class="st1" d="M16.4-0.3l16.8,16.8"/>
				<path class="st1" d="M17.7-1.6l16.8,16.8"/>
				<path class="st1" d="M19-3l16.9,16.9"/>
			</g>
		</g>
		<g id="Group_1_" transform="translate(195.000000, 180.000000)">
			<path id="Shape_6_" class="st1" d="M-152.9-134.8c-0.8,0-1.5-0.5-1.8-1.3l-0.9-2.7h-4.5l-0.8,2.7c-0.3,0.8-1,1.3-1.8,1.3
				c-0.2,0-0.4,0-0.6-0.1c-1-0.3-1.5-1.3-1.2-2.3l3.8-12c0.2-0.8,1-1.3,1.8-1.3h2c0.8,0,1.5,0.5,1.8,1.3l4,12c0.3,1-0.2,2-1.2,2.4
				C-152.5-134.9-152.7-134.8-152.9-134.8L-152.9-134.8L-152.9-134.8z"/>
		</g>
	</g>
</g>
</svg>
