<?xml version="1.0" encoding="utf-8"?>
<!-- Generator: Adobe Illustrator 21.0.2, SVG Export Plug-In . SVG Version: 6.00 Build 0)  -->
<svg version="1.1" id="Layer_1" xmlns="http://www.w3.org/2000/svg" xmlns:xlink="http://www.w3.org/1999/xlink" x="0px" y="0px"
	 viewBox="0 0 74 74" style="enable-background:new 0 0 74 74;" xml:space="preserve">
<style type="text/css">
	.st0{fill:#006FAF;}
</style>
<title>os-patch-management</title>
<g id="text">
</g>
<path class="st0" d="M37,74C16.6,74,0,57.4,0,37S16.6,0,37,0s37,16.6,37,37S57.4,74,37,74z M37,2C17.7,2,2,17.7,2,37s15.7,35,35,35
	s35-15.7,35-35S56.3,2,37,2z"/>
<g>
	<path class="st0" d="M46.8,33.5c-2.3,2.8-2.3,6,0,8.8c0.1,0.4,1.6,1.2,2.1,1.5c0.3,0.1,0.1,0.3,0.1,0.5c-0.8,2.5-2.2,4.7-4.2,6.5
		c-1,1-2.3,1.1-3.6,0.7c-0.5-0.2-1-0.4-1.5-0.5c-1.4-0.5-2.7-0.5-4.1,0c-0.2,0.1-0.5,0.2-0.7,0.3c-2.6,1-4,0.5-5.8-1.7
		c-2-2.6-3.4-5.5-3.9-8.7c-0.5-3-0.2-5.8,1.6-8.3c1.7-2.4,4.8-3.5,7.5-2.4c2,0.8,3.8,0.8,5.7,0c2.2-1,4.5-0.6,6.5,0.8
		c0.3,0.2,0.6,0.5,0.9,0.8C48.4,32.2,46.8,33.2,46.8,33.5z"/>
	<path class="st0" d="M37,28.8c-0.3-2.9,2.4-6,5.5-6.5c0.4-0.1,0.4,0.2,0.4,0.4c0,0.8-0.1,1.6-0.5,2.3c-0.8,1.8-1.9,3.2-3.8,3.8
		c-0.2,0-0.3,0-0.5,0.1C37.7,29,37.5,29,37,28.8z"/>
</g>
</svg>
