<?xml version="1.0" encoding="utf-8"?>
<!-- Generator: Adobe Illustrator 21.0.2, SVG Export Plug-In . SVG Version: 6.00 Build 0)  -->
<svg version="1.1" id="Layer_1" xmlns="http://www.w3.org/2000/svg" xmlns:xlink="http://www.w3.org/1999/xlink" x="0px" y="0px"
	 viewBox="0 0 74 74" style="enable-background:new 0 0 74 74;" xml:space="preserve">
<style type="text/css">
	.st0{fill:#006FAF;}
</style>
<title>os-patch-management</title>
<g id="text">
</g>
<path class="st0" d="M37,74C16.6,74,0,57.4,0,37S16.6,0,37,0s37,16.6,37,37S57.4,74,37,74z M37,2C17.7,2,2,17.7,2,37s15.7,35,35,35
	s35-15.7,35-35S56.3,2,37,2z"/>
<path class="st0" d="M47.1,22.3H26.9c-1.6,0-2.9,1.3-2.9,2.9v23.7c0,1.6,1.3,2.9,2.9,2.9h20.3c1.6,0,2.9-1.3,2.9-2.9V25.2
	C50,23.6,48.7,22.3,47.1,22.3z M38.1,25.4h9.7v2.7h-9.7V25.4z M38.1,29.4h9.7v2.7h-9.7V29.4z M31.1,46.2c-2.1,0-3.9-1.7-3.9-3.9
	c0-2.1,1.7-3.9,3.9-3.9c2.1,0,3.9,1.7,3.9,3.9C34.9,44.5,33.2,46.2,31.1,46.2z M35.6,36h-9.7v-2.7h9.7V36z M35.6,32.1h-9.7v-2.7h9.7
	V32.1z M35.6,28.1h-9.7v-2.7h9.7V28.1z M38.1,33.3h9.7V36h-9.7V33.3z M47.8,39.8h-9.7v-2.7h9.7V39.8z"/>
</svg>
