<?xml version="1.0" encoding="utf-8"?>
<!-- Generator: Adobe Illustrator 21.0.2, SVG Export Plug-In . SVG Version: 6.00 Build 0)  -->
<svg version="1.1" id="Layer_1" xmlns="http://www.w3.org/2000/svg" xmlns:xlink="http://www.w3.org/1999/xlink" x="0px" y="0px"
	 viewBox="0 0 74 74" style="enable-background:new 0 0 74 74;" xml:space="preserve">
<style type="text/css">
	.st0{fill:none;stroke:#006FAF;stroke-width:2;stroke-miterlimit:10;}
	.st1{fill:#006FAF;}
</style>
<title>java</title>
<circle class="st0" cx="37" cy="37" r="36"/>
<g id="Layer_1_1_">
</g>
<g>
	<path class="st1" d="M28.4,37c0-2.9-2.1-4.7-4.8-4.7s-4.8,1.8-4.8,4.7s2.1,4.7,4.8,4.7C26.2,41.7,28.4,40,28.4,37z M22,37.1
		c0-1,0.6-1.8,1.6-1.8s1.6,0.8,1.6,1.8s-0.7,1.8-1.6,1.8C22.6,38.8,22,38.1,22,37.1z"/>
	<path class="st1" d="M44.2,39.3c-0.7,0-1.4-0.4-2-0.8L42,38.4L41,41c1,0.5,2.2,0.8,3.3,0.8c1.9,0,3.8-1.1,3.8-3.2
		c0-1.5-1-2.3-2.3-2.6l-0.7-0.2c-0.3,0-0.6-0.1-0.6-0.4c0-0.4,0.4-0.5,0.7-0.5c0.7,0,1.3,0.3,1.8,0.7l0.8-2.4
		c-0.8-0.5-1.7-0.8-2.7-0.8c-1.9,0-3.8,1.2-3.8,3.4c0,1.4,1,2.2,2.3,2.4l0.6,0.1c0.3,0.1,0.7,0.1,0.7,0.5
		C45,39.1,44.5,39.3,44.2,39.3z"/>
	<path class="st1" d="M32.2,36.6L32.2,36.6c0.1,0.4,0.2,0.7,0.3,1.1l1.1,3.9h1.8l1.2-4.1c0.1-0.3,0.2-0.6,0.2-0.9h0.1l0.4,5h3.1
		L39,32.5h-3.2l-1,3.6c-0.1,0.4-0.2,0.8-0.2,1.2h-0.1l-1.2-4.8H30l-1.4,9.1h3.1l0.4-3.9C32.1,37.3,32.1,36.9,32.2,36.6z"/>
	<path class="st1" d="M38.2,20c-5.5,0-10.4,2.6-13.5,6.7l-1-0.6L23.5,31l3.9-3l-0.9-0.4c2.8-3.5,7-5.7,11.8-5.7
		c8.3,0,15.1,6.8,15.1,15.1c0,8.4-6.8,15.1-15.1,15.1c-4.8,0-9-2.2-11.8-5.6l1-0.5l-3.9-3l0.2,4.9l1-0.5c3.1,4,8,6.6,13.5,6.6
		c9.4,0,17-7.6,17-17C55.2,27.6,47.6,20,38.2,20z"/>
</g>
</svg>
