<?xml version="1.0" encoding="utf-8"?>
<!-- Generator: Adobe Illustrator 21.0.2, SVG Export Plug-In . SVG Version: 6.00 Build 0)  -->
<svg version="1.1" id="Layer_1" xmlns="http://www.w3.org/2000/svg" xmlns:xlink="http://www.w3.org/1999/xlink" x="0px" y="0px"
	 viewBox="0 0 74 74" style="enable-background:new 0 0 74 74;" xml:space="preserve">
<style type="text/css">
	.st0{fill:#006FAF;}
</style>
<title>os-patch-management</title>
<g id="text">
</g>
<path class="st0" d="M37,74C16.6,74,0,57.4,0,37S16.6,0,37,0s37,16.6,37,37S57.4,74,37,74z M37,2C17.7,2,2,17.7,2,37s15.7,35,35,35
	s35-15.7,35-35S56.3,2,37,2z"/>
<g>
	<path class="st0" d="M34.6,25.9c-1.7,1.5-2.7,3.3-3.3,5.3c-0.7,2.6-0.7,5.1,0.1,7.7c0.3,1.1,0.9,2,1.9,2.6s1.6,0.3,1.7-0.9
		c0.1-1.8-0.1-3.5-0.2-5.3c0-2.2,0.1-4.3,0.9-6.3c0.9-2.3,2.6-3.8,4.8-4.9c0,0,0.1,0,0.2,0c-0.6,1.1-1.1,2.3-1.4,3.6
		c-0.4,1.9-0.4,3.9-0.3,5.8c0.1,1.6,0.2,3.3,0.1,4.9c-0.2,3.1-2,5-5.1,5.6c-2.5,0.5-5,0-7.5-0.6c-0.3-0.1-0.7-0.2-1-0.3
		c0,0,0,0-0.1-0.1c1.3-1.6,1.4-3.4,1.4-5.4c0-1.4-0.1-2.8,0-4.3c0.3-2.4,1.7-4.2,3.5-5.6c1.1-0.9,2.4-1.5,3.6-2
		C34.2,25.8,34.4,25.9,34.6,25.9z"/>
	<path class="st0" d="M48,32.8c0.5-0.1,0.8,0.1,1.1,0.3c3.2,1.8,4.3,5.4,2.7,8.9c-1.1,2.5-3,4.3-5.2,5.7c-4.8,3.1-10.1,4.6-15.9,4.1
		c-2.4-0.2-4.7-0.9-6.6-2.5c-2.6-2.1-3.4-5.5-1.9-8.5c0.2-0.4,0.3-0.7,0.8-0.9c0.1,0.4-0.1,0.7-0.1,1.1c-0.4,2.4,0.5,4.3,2.3,5.7
		s3.9,2,6.1,2.2c5.5,0.4,10.4-1,14.7-4.4c1.8-1.4,3.1-3,3.8-5.2c0.6-2,0.3-3.9-1.1-5.6C48.5,33.5,48.3,33.2,48,32.8z"/>
	<path class="st0" d="M48.3,22.1c-1.6,1.8-1.8,3.9-1.9,6c-0.1,1.8,0,3.6-0.1,5.4c-0.2,3.9-2.4,7.2-5.7,8.6c-0.1-0.1,0-0.2,0-0.3
		c2.3-3.2,2.8-6.8,2.5-10.6c-0.1-1.8-0.5-3.6-0.6-5.5c-0.1-1.3,0.6-2.3,1.7-2.9C45.5,22.3,46.8,22.1,48.3,22.1z"/>
</g>
</svg>
