<?xml version="1.0" encoding="utf-8"?>
<!-- Generator: Adobe Illustrator 21.0.2, SVG Export Plug-In . SVG Version: 6.00 Build 0)  -->
<svg version="1.1" id="Layer_1" xmlns="http://www.w3.org/2000/svg" xmlns:xlink="http://www.w3.org/1999/xlink" x="0px" y="0px"
	 viewBox="0 0 74 74" style="enable-background:new 0 0 74 74;" xml:space="preserve">
<style type="text/css">
	.st0{fill:none;stroke:#006FAF;stroke-width:2;stroke-miterlimit:10;}
	.st1{fill:#006FAF;}
</style>
<title>health-checks</title>
<circle class="st0" cx="37" cy="37" r="36"/>
<g>
	<path class="st1" d="M22.8,38.1c0,1.1-0.3,2-1,2.7s-1.6,1.1-2.7,1.1s-2-0.4-2.6-1.1c-0.7-0.7-1-1.6-1-2.7v-1.6c0-1.1,0.3-2,1-2.7
		c0.7-0.7,1.5-1.1,2.6-1.1s2,0.4,2.7,1.1c0.7,0.7,1,1.6,1,2.7V38.1z M21.4,36.4c0-0.7-0.2-1.4-0.6-1.8s-0.9-0.7-1.6-0.7
		s-1.2,0.2-1.6,0.7S17,35.7,17,36.4V38c0,0.8,0.2,1.4,0.6,1.9s0.9,0.7,1.6,0.7s1.2-0.2,1.6-0.7s0.6-1.1,0.6-1.9V36.4z"/>
	<path class="st1" d="M25.6,35.1l0.1,1c0.2-0.3,0.5-0.6,0.8-0.8s0.7-0.3,1.1-0.3c0.7,0,1.2,0.2,1.6,0.6s0.6,1.1,0.6,2v4.2h-1.5v-4.2
		c0-0.5-0.1-0.9-0.3-1.1c-0.2-0.2-0.5-0.3-0.9-0.3c-0.3,0-0.6,0.1-0.8,0.2s-0.4,0.3-0.6,0.5v4.8h-1.5V35L25.6,35.1L25.6,35.1z"/>
	<path class="st1" d="M37.8,34h-2.7v7.8h-1.5V34h-2.7v-1.2h6.9V34z"/>
	<path class="st1" d="M40.4,33.4h-1.5v-1.3h1.5V33.4z M40.4,41.7h-1.5V35h1.5V41.7z"/>
	<path class="st1" d="M43.4,35.1l0.1,0.9c0.2-0.3,0.5-0.6,0.8-0.7S45,35,45.4,35c0.4,0,0.8,0.1,1.1,0.3s0.5,0.5,0.7,0.9
		c0.2-0.4,0.5-0.7,0.8-0.9s0.7-0.3,1.2-0.3c0.7,0,1.2,0.2,1.6,0.7c0.4,0.5,0.6,1.2,0.6,2.1v4h-1.5v-4c0-0.6-0.1-1-0.3-1.2
		s-0.5-0.3-0.9-0.3c-0.3,0-0.6,0.1-0.8,0.3s-0.4,0.4-0.5,0.7c0,0.1,0,0.1,0,0.2v0.1v4.3H46v-4c0-0.5-0.1-0.9-0.3-1.2
		c-0.2-0.2-0.5-0.4-0.9-0.4c-0.3,0-0.6,0.1-0.8,0.2c-0.2,0.1-0.4,0.3-0.5,0.5v4.9H42v-6.7L43.4,35.1L43.4,35.1z"/>
	<path class="st1" d="M55.9,41.9c-0.9,0-1.7-0.3-2.3-0.9c-0.6-0.6-0.8-1.4-0.8-2.4v-0.2c0-1,0.3-1.8,0.8-2.4c0.6-0.6,1.3-1,2.1-1
		c0.9,0,1.6,0.3,2.1,0.8s0.7,1.3,0.7,2.2v0.9h-4.2l0,0c0,0.5,0.2,1,0.5,1.3s0.7,0.5,1.2,0.5c0.4,0,0.7,0,1-0.1s0.6-0.2,0.8-0.4
		l0.5,1c-0.3,0.2-0.6,0.4-1,0.6C56.9,41.8,56.4,41.9,55.9,41.9z M55.7,36.2c-0.4,0-0.7,0.1-0.9,0.4s-0.4,0.7-0.4,1.1l0,0H57v-0.2
		c0-0.4-0.1-0.8-0.3-1S56.1,36.2,55.7,36.2z"/>
</g>
</svg>
