<?xml version="1.0" encoding="utf-8"?>
<!-- Generator: Adobe Illustrator 21.0.2, SVG Export Plug-In . SVG Version: 6.00 Build 0)  -->
<svg version="1.1" id="Layer_1" xmlns="http://www.w3.org/2000/svg" xmlns:xlink="http://www.w3.org/1999/xlink" x="0px" y="0px"
	 viewBox="0 0 74 74" style="enable-background:new 0 0 74 74;" xml:space="preserve">
<style type="text/css">
	.st0{fill:#006FAF;}
</style>
<title>health-checks</title>
<path class="st0" d="M37,0C16.6,0,0,16.6,0,37s16.6,37,37,37s37-16.6,37-37S57.4,0,37,0z M37,72C17.7,72,2,56.3,2,37S17.7,2,37,2
	s35,15.7,35,35S56.3,72,37,72z"/>
<g>
	<path class="st0" d="M23.7,43.9c-0.9,0-1.6-0.2-2.3-0.6c-0.7-0.4-1.2-1-1.6-1.7c-0.4-0.8-0.6-1.6-0.6-2.6c0-0.8,0-1.7,0.2-2.7
		s0.5-2,1-2.8c0.5-0.8,1-1.5,1.7-2.1c1.1-0.9,2.3-1.3,3.7-1.3c1.3,0,2.4,0.5,3.2,1.4c0.8,0.9,1.2,2.1,1.3,3.6c0,0.8,0,1.6-0.2,2.6
		s-0.5,1.9-0.9,2.7c-0.4,0.8-1,1.5-1.6,2.1C26.5,43.5,25.2,44,23.7,43.9z M27.9,36.6l0.1-1c0-0.7,0-1.3-0.2-1.9
		c-0.2-0.6-0.4-1-0.8-1.3c-0.4-0.3-0.8-0.5-1.4-0.5c-0.8,0-1.5,0.2-2.1,0.7c-0.6,0.5-1.1,1.2-1.5,2.1c-0.4,0.9-0.6,2.1-0.7,3.6
		c-0.1,1.1,0.1,2,0.5,2.7c0.4,0.6,1,1,1.8,1c1.1,0,1.9-0.4,2.6-1.2c0.7-0.8,1.1-2,1.4-3.5L27.9,36.6z"/>
	<path class="st0" d="M34.5,38.7l-0.9,5h-2.3l2.3-13.5l4.7,0c1.4,0,2.5,0.4,3.3,1.2c0.8,0.8,1.2,1.8,1,3.1c-0.1,1.3-0.6,2.3-1.6,3.1
		s-2.2,1.2-3.8,1.2L34.5,38.7z M34.8,36.9l2.6,0c0.8,0,1.5-0.2,2-0.6c0.5-0.4,0.8-1,0.9-1.8c0.1-0.7,0-1.2-0.4-1.7
		c-0.3-0.4-0.9-0.6-1.5-0.7l-2.9,0L34.8,36.9z"/>
	<path class="st0" d="M53.9,39.3c-0.2,1.4-0.9,2.5-1.9,3.4s-2.3,1.2-3.8,1.2c-0.9,0-1.6-0.2-2.3-0.6s-1.1-1-1.5-1.7
		c-0.4-0.7-0.6-1.6-0.6-2.5c0-0.7,0-1.7,0.3-2.9c0.2-1.2,0.6-2.3,1.2-3.3s1.3-1.7,2.2-2.2c0.9-0.5,1.8-0.7,2.9-0.7
		c1.3,0,2.4,0.4,3.2,1.3c0.8,0.8,1.2,1.9,1.2,3.4h-2.3c0-1-0.2-1.7-0.6-2.1C51.5,32.2,51,32,50.2,32c-1,0-1.8,0.3-2.5,1.1
		s-1.1,1.8-1.4,3.3l-0.2,1.2l-0.1,0.9c0,0.6,0,1.2,0.1,1.8c0.1,0.6,0.4,1,0.7,1.3s0.8,0.4,1.3,0.5c1.7,0.1,2.8-0.8,3.3-2.7
		L53.9,39.3z"/>
</g>
</svg>
