<?xml version="1.0" encoding="utf-8"?>
<!-- Generator: Adobe Illustrator 21.0.2, SVG Export Plug-In . SVG Version: 6.00 Build 0)  -->
<svg version="1.1" id="Layer_1" xmlns="http://www.w3.org/2000/svg" xmlns:xlink="http://www.w3.org/1999/xlink" x="0px" y="0px"
	 viewBox="0 0 74 74" style="enable-background:new 0 0 74 74;" xml:space="preserve">
<style type="text/css">
	.st0{fill:none;stroke:#006FAF;stroke-width:2;stroke-miterlimit:10;}
	.st1{fill:#006FAF;}
</style>
<title>os-patch-management</title>
<g id="text">
</g>
<g>
	<circle class="st0" cx="37" cy="37" r="36"/>
	<g>
		<path class="st1" d="M36.6,36c-1.8,0-2.6,1.3-2.6,3c0,1.6,0.9,2.7,2.4,2.7c0.9,0,1.2-0.2,1.5-0.4c0.7-0.5,0.9-1.2,1-1.5l0,0H38
			c0,0.4-0.5,1.1-1.4,1.1c-1.1,0-1.6-0.7-1.6-1.8h4C39,37.2,38.2,36,36.6,36z M37.9,38.4h-3c0-0.8,0.7-1.6,1.5-1.6
			C37.5,36.8,37.9,37.6,37.9,38.4L37.9,38.4z"/>
		<path class="st1" d="M49.4,38.4h2c-0.4,1.7-1.7,1.9-2.1,1.9c-1.2,0-2.5-0.6-2.5-2.9c0-2.2,1.2-3.1,2.5-3.1s1.9,1.1,1.9,1.4H53
			c-0.1-1.2-1.1-2.9-3.8-2.9c-2.9,0-4.2,2.2-4.2,4.5c0,3,1.9,4.5,3.9,4.5c1.6,0,2.2-0.8,2.7-1.3l0.2,1.1H53V37h-3.6V38.4z"/>
		<path class="st1" d="M44.1,41.6L44.1,41.6v-3.7c0-1.6-1.1-1.9-1.9-1.9c-0.9,0-1.5,0.6-1.7,0.9l0,0v-0.8h-0.9v5.5h0.9v-3
			c0-1.5,0.9-1.8,1.4-1.8c0.9,0,1.2,0.5,1.2,1.4v3.4C43.1,41.6,44.1,41.6,44.1,41.6z"/>
		<path class="st1" d="M29.3,43.8V41l0,0c0.2,0.4,0.7,0.7,1.5,0.7c1.9,0,2.6-1.7,2.6-3c0-1.5-1-2.8-2.5-2.8c-1,0-1.4,0.6-1.6,0.9
			l0,0V36h-0.9v7.6h0.9C29.3,43.6,29.3,43.8,29.3,43.8z M30.6,36.8c1.4,0,1.7,1.4,1.7,2.1c0,1.2-0.7,2.1-1.7,2.1
			c-0.6,0-1.5-0.4-1.5-1.8C29.2,38.2,29.3,36.8,30.6,36.8z"/>
		<path class="st1" d="M46.7,42.1c-1.8,1.2-7.1,3.7-15.3,2.7c-8.7-1.1-11.5-3.5-11.9-5.9v-0.3c0.4,1.6,1.5,3.2,4,3.2
			c3.2,0,4.2-2.7,4.2-4.5s-1-4.5-4.2-4.5s-4.2,2.7-4.2,4.5c0,0.2,0,0.4,0,0.6l-0.1-0.5c0-0.9,0.1-1.9,0.6-2.9
			c0.9-1.8,3.5-4.6,11.6-5.3c8.2-0.8,13.5,1.5,15.3,2.7c0,0,1.2,0.5,0.5-0.3c0,0-5.1-4.7-15.2-4.8c-10.1,0-18.1,5-18,10.2l0,0
			c0,5.1,7.9,10.2,18,10.2s15.2-4.8,15.2-4.8C47.9,41.6,46.7,42.1,46.7,42.1z M23.5,33.8c1.9,0,3,1.5,3,3.5s-1.1,3.5-3,3.5
			s-3-1.5-3-3.5C20.6,35.3,21.7,33.8,23.5,33.8z"/>
		<polygon class="st1" points="56,33 54.2,33 54.2,41.6 60.2,41.6 60.2,40.1 56,40.1 		"/>
		<g>
			<path class="st1" d="M61.2,41H61v0.6h-0.1V41h-0.2v-0.1L61.2,41L61.2,41z"/>
			<path class="st1" d="M61.5,40.9l0.2,0.5l0,0l0.2-0.5H62v0.7h-0.1v-0.2v-0.3l0,0l-0.2,0.5h-0.1l-0.2-0.5l0,0v0.3v0.2h-0.1v-0.7
				H61.5z"/>
		</g>
	</g>
</g>
</svg>
