<?xml version="1.0" encoding="utf-8"?>
<!-- Generator: Adobe Illustrator 21.0.2, SVG Export Plug-In . SVG Version: 6.00 Build 0)  -->
<svg version="1.1" id="Layer_1" xmlns="http://www.w3.org/2000/svg" xmlns:xlink="http://www.w3.org/1999/xlink" x="0px" y="0px"
	 viewBox="0 0 74 74" style="enable-background:new 0 0 74 74;" xml:space="preserve">
<style type="text/css">
	.st0{fill:none;stroke:#006FAF;stroke-width:2;stroke-miterlimit:10;}
	.st1{fill:#006FAF;}
</style>
<title>Cloud &amp;amp; Infrastructure Services</title>
<circle class="st0" cx="37" cy="37" r="36"/>
<g>
	<polygon class="st1" points="56,28.3 56,28.3 56,28.3 	"/>
	<path class="st1" d="M55.2,26.9l-0.6-1l0,0c0,0,0-0.1-0.1-0.1L52,26.7c-0.7-0.9-1.4-1.8-2.3-2.6c-1.3-1.3-2.9-2.4-4.6-3.2
		c-8.4-4-18.3-0.6-22.6,7.6c-0.2,0.4-0.4,0.7-0.6,1.1c-1.3,2.8-1.8,5.8-1.6,8.8l0.1,0l0,0l2.4-0.9l0.2-0.1l0,0
		c0.1,1,0.2,1.9,0.5,2.9l-5.5,2c0.5,2.1,1.5,4.1,2.7,5.9l0,0c0,0,0,0.1,0.1,0.1l2.9-1.1l0,0l0,0c0.5,0.7,1,1.3,1.5,1.9l0,0l0,0
		c1.5,1.6,3.2,2.9,5.2,3.9c6.1,2.9,13,1.9,17.9-2c2.2-1.7,4.1-3.9,5.4-6.6c1.3-2.8,1.8-5.8,1.6-8.8l-0.1,0l0,0l0,0h0l-0.1,0
		c0,0,0,0,0-0.1l-2.7,1c-0.2-2.2-0.8-4.3-1.7-6.2v0l-0.1,0c0,0,0-0.1-0.1-0.1l5.4-2l0,0C55.8,27.8,55.5,27.4,55.2,26.9L55.2,26.9z
		 M50.6,30.3l-5.8,2.1c1.1,2,1.6,4.2,1.4,6.5l0.1,0l0,0l2.7-1l-0.4,2.3c-0.2,0.5-0.3,1.1-0.6,1.6c-0.9,2.1-2.4,3.7-4.2,4.8h0
		c-3.2,2-7.2,2.3-10.8,0.6c-1.2-0.6-2.4-1.4-3.3-2.4l-2.9,1.1l0,0l0,0c-0.4-0.4-0.8-0.9-1.2-1.4c-0.9-1.3-1.5-2.8-1.8-4.4l0,0l5.4-2
		c-0.2-1-0.3-2-0.2-3l0,0l-2.6,0.9l0,0l0,0c0.1-1,0.3-2,0.6-2.9c0.1-0.3,0.3-0.7,0.4-1c2.7-5.7,9.4-8.2,15.1-5.5h0
		c1,0.5,1.8,1,2.6,1.7l0,0c0.2,0.2,0.4,0.4,0.6,0.6l0,0c0,0,0.1,0.1,0.1,0.1l2.5-0.9c0.7,0.7,1.2,1.5,1.7,2.3L50.6,30.3L50.6,30.3z"
		/>
</g>
</svg>
