<?xml version="1.0" encoding="utf-8"?>
<!-- Generator: Adobe Illustrator 21.0.2, SVG Export Plug-In . SVG Version: 6.00 Build 0)  -->
<svg version="1.1" id="Layer_1" xmlns="http://www.w3.org/2000/svg" xmlns:xlink="http://www.w3.org/1999/xlink" x="0px" y="0px"
	 viewBox="0 0 74 74" style="enable-background:new 0 0 74 74;" xml:space="preserve">
<style type="text/css">
	.st0{fill:#006FAF;}
</style>
<title>os-patch-management</title>
<g id="text">
</g>
<path class="st0" d="M37,74C16.6,74,0,57.4,0,37S16.6,0,37,0s37,16.6,37,37S57.4,74,37,74z M37,2C17.7,2,2,17.7,2,37s15.7,35,35,35
	s35-15.7,35-35S56.3,2,37,2z"/>
<g>
	<path class="st0" d="M55.8,34.8l-0.6-3.5c0-0.1,0-0.1-0.1-0.2c-0.2-0.3-0.6-0.3-0.8-0.3h-2.5c-0.1,0-0.1,0-0.2,0
		c-0.6,0-1,0.3-1.1,0.3L49.4,33l-0.2,0.1l0.9,4h4.2v0.3l0.1-0.2l0.1-0.2l0.1-0.1l0,0L55.8,34.8z M51.4,33.1L50,33.2l0.8-1.5
		c0.1,0,0.4-0.2,0.8-0.2h0.1h2.5c0.1,0,0.3,0,0.3,0l-0.7,1.4L51.4,33.1z M49.8,33.7l4-0.2l0.3,3v0.3h-3.6l-0.6-2.7L49.8,33.7z
		 M54.3,33.2l0.5-0.9l0.5,2.5L55,35.6l-0.3,0.6L54.3,33.2z"/>
	<path class="st0" d="M48.5,39c0-0.1-0.1-0.7-1.2-1.2L46,37.5l-0.4-0.1c0.7-1.2,1.1-2.4,1.2-3.6l-1-2.8l1.2-0.9l-1-3l-1-0.4
		l-1.1,0.1c-0.7-0.3-1.6-0.5-2.8-0.5c-0.5,0-0.9,0-1.5,0.1c-2.8,0.3-6.2,1.3-9.6,2.9c-7,3.3-11.7,8-10.6,10.5l-1.2,0.9v1.6l1.9,2.5
		l1.9-1l1.2,1.7c0,0,0.3,0.2,0.7,0.4l1.2,1.9l3.5-0.3l0.4-0.7c2.3-0.1,4.8-0.8,7.6-2c0.2-0.1,2.2-1,4.3-2.6c0.2-0.2,0.5-0.3,0.7-0.5
		l0.7,2l2.6,1.4c0.1,0,0.5,0.2,0.8,0.2s0.5-0.1,0.6-0.2l2.7-2.4l0.1-0.1c0,0,0.3-0.8,0-1.3L48.5,39z M45.2,44.6l-2.5-1.3L42,41.4
		c0.2-0.2,0.4-0.4,0.7-0.6l1.5,0.5l0.7,2.1l0.4,1.2C45.2,44.7,45.2,44.6,45.2,44.6z M41.9,41c-0.1-0.2-0.2-0.4-0.2-0.6l0.4,0.1
		l0.2,0.1C42.1,40.8,42,40.9,41.9,41L41.9,41z M39,41.4l2.2-1.8c-0.1,0.3-0.2,0.6-0.1,1l-1.7,1.2L39,41.4L39,41.4z M39.3,40.6
		L38.8,41l-1-2.3c-0.1-0.2-0.1-0.4-0.1-0.5c0.1-0.2,0.2-0.3,0.4-0.4l2.5-1.8l0.8,2.4c0.1,0.3-0.1,0.5-0.1,0.5L39.3,40.6z M41.5,35.8
		l1,2.8l-0.2,0.2L42,38.6c0-0.2,0-0.3-0.1-0.5l-0.8-2.4L41.5,35.8z M43.8,35.9l-0.3-0.8c0.1-0.1,0-0.3-0.2-0.6c-0.3-0.5,0.1-1,0.1-1
		l0,0l0.5,1.3l-0.1,0.6V35.9z M44.5,34.8l-0.7-1.7l0.8-1.1l1.1,2.6v0.1L44.5,34.8z M44.4,37.2l-0.2-0.4l0.3-1.5h1.4v0.3L45,37.2
		L44.4,37.2z M47.9,38.9C48,39,48,39.1,48,39.1l0.6,2.4c0.1,0.2,0.1,0.6,0,0.8l-2.8,2.5l-1.2-3.4L47.9,38.9z M47.5,38.5l-3,2.5
		l-2.7-1c0-0.1,0.1-0.2,0.1-0.3l2.3-1.7c0.2-0.2,0.4-0.3,0.6-0.3c0.1,0,0.1,0,0.1,0l2.4,0.6C47.3,38.4,47.4,38.4,47.5,38.5
		L47.5,38.5z M18.8,41.7l-0.1-0.8l1-0.6c0.1,0.1,0.1,0.1,0.2,0.2l0.3,0.3l0,0l-1,0.6L18.8,41.7z M42.4,32.6c-2,1.9-4.9,3.8-8.2,5.4
		c-3.3,1.6-6.6,2.6-9.4,2.9c-0.5,0.1-1,0.1-1.4,0.1c-1.8,0-3-0.4-3.4-1.3c-0.5-1.1,0.3-2.7,2.2-4.6c2-1.9,4.9-3.8,8.1-5.4
		c3.3-1.6,6.7-2.6,9.4-2.9c0.5-0.1,1-0.1,1.4-0.1c1.8,0,3,0.4,3.4,1.3C45,29.1,44.2,30.7,42.4,32.6z M45.8,30.4l-0.2,0.1l-0.5-1.3
		c0.1-0.4,0-0.7-0.1-1l0.6-0.3l0.7,2.1L45.8,30.4z M45.3,27.3l-0.5,0.3c-0.1-0.2-0.2-0.3-0.4-0.4l0,0h0.4l0.3,0.1H45.3z M18.9,42.2
		l1.5-0.9l1.2,1.7l0.2,0.2L20.4,44L19,42.4L18.9,42.2z M22.4,43.6L22.4,43.6l-0.9-1.4l-0.7-1.1c0.7,0.3,1.5,0.4,2.6,0.4
		c0.5,0,1,0,1.5-0.1c2.8-0.3,6.2-1.3,9.6-2.9c3.4-1.6,6.3-3.5,8.3-5.5c0.9-0.9,1.6-1.8,2-2.6c0.1-0.2,0.2-0.3,0.2-0.5l0.3,0.8
		l-0.1,0.1l0.1,0.1l1,2.9c0,0.1,0,0.3,0,0.4v0.1l-1-2.3l-0.5-1l0,0v-0.1L43,33.2c0,0-0.1,0.2-0.1,0.4v0.1v-0.1l0,0l-0.2,0.1l0.2,0.6
		c0,0.1,0.1,0.2,0.1,0.3l0.6,2l0.4,0.8c-0.1,0.1-0.2,0.1-0.2,0.2l-0.6,0.5L43,38.2l-1-3h-0.9L41,35l-3,2.2c-0.1,0-0.5,0.2-0.7,0.7
		c-0.1,0.3-0.1,0.6,0.1,0.9l1.2,2.7l0.1,0.1l0.8,0.9l1.7-1.3l0.2-0.1c0,0.1,0.1,0.1,0.1,0.1l0,0c-2.5,2-5,3.1-5,3.1
		c-2.1,0.9-4.1,1.5-6,1.8c-0.4,0.1-0.7,0.1-1.1,0.1l0.9-1.5l-2.4-3.3l-3.8,0.8v0.1l0,0l-0.8,1.9l-0.2,0.1H23l0,0l0,0L22.4,43.6
		L22.4,43.6z M23.9,44.4l0.6-1.6l2.9-0.6l-0.8,1.9l-1.9,0.2L23.9,44.4z M23.9,44.9l2.7-0.2l1,1.6l0.5,0.7l-2.6,0.2l-1.1-1.5
		L23.9,44.9z M28.5,46.8L27,44.4l0.8-2l1.8,2.5l-0.8,1.3L28.5,46.8z"/>
	<path class="st0" d="M38.1,28.1c-2.1,0-4.9,0.8-7.9,2.1c-2.4,1.1-4.5,2.4-6,3.8c-1.5,1.4-2.1,2.7-1.7,3.6c0.3,0.7,1.3,1.1,2.8,1.1
		c0.3,0,0.7,0,1.1-0.1c2-0.2,4.4-0.9,6.8-2c5.2-2.3,8.5-5.6,7.7-7.4C40.6,28.5,39.6,28.1,38.1,28.1z M29.9,37.3
		c-0.3,0.1-0.7,0.2-1,0.3c1.4-1.2,4.8-4,8.7-4.2c-1.3,1-2.9,1.9-4.6,2.7C32,36.6,30.9,37,29.9,37.3z M38.4,32.9h-0.3
		c-5.4,0-10.2,4.9-10.2,5c-0.6,0.1-1.1,0.2-1.6,0.3c-0.4,0-0.7,0.1-1,0.1c-1.2,0-2-0.3-2.3-0.8c-0.3-0.7,0.3-1.8,1.6-3
		c1.4-1.3,3.5-2.6,5.9-3.7c2.8-1.3,5.7-2,7.7-2c1.2,0,2,0.3,2.3,0.8C40.8,30.2,40,31.5,38.4,32.9z"/>
	<path class="st0" d="M32.3,45.6l4.9-1.9l-0.3-1.1l0.1-0.1l-1.8-3.3L30.4,41h0l0,0l0.1,0.1l-0.2,1.1L32.3,45.6z M30.7,42.2l0.1-0.3
		l1.3,2.1v0.3v0.2L30.7,42.2z M32.6,44.9v-0.7l3.8-1.5l0.1,0.6l-2.8,1.1L32.6,44.9z M36.3,42.2l-3.7,1.5l-1.3-2l-0.2-0.4l3.9-1.5
		l1.2,2.1L36.3,42.2z"/>
</g>
<g>
</g>
</svg>
