<?xml version="1.0" encoding="utf-8"?>
<!-- Generator: Adobe Illustrator 21.0.2, SVG Export Plug-In . SVG Version: 6.00 Build 0)  -->
<svg version="1.1" id="Layer_1" xmlns="http://www.w3.org/2000/svg" xmlns:xlink="http://www.w3.org/1999/xlink" x="0px" y="0px"
	 viewBox="0 0 74 74" style="enable-background:new 0 0 74 74;" xml:space="preserve">
<style type="text/css">
	.st0{fill:#006FAF;}
</style>
<title>os-patch-management</title>
<g id="text">
</g>
<path class="st0" d="M37,74C16.6,74,0,57.4,0,37S16.6,0,37,0s37,16.6,37,37S57.4,74,37,74z M37,2C17.7,2,2,17.7,2,37s15.7,35,35,35
	s35-15.7,35-35S56.3,2,37,2z"/>
<path class="st0" d="M50.7,35.2c-0.9-0.6-1.9-1.1-2.8-1.7c-0.7-0.4-1.5-0.5-1.9,0.1c-1.3,2-3.3,1.6-5.1,1.6c-2.7,0-2.7-0.1-2.9-2.7
	c-0.2-3-0.8-5.9-2.5-8.5c-1.6-2.4-4.7-3.5-7-2.6c-2.4,1-3.7,3.9-3,6.9c0.5,2.3,1.8,4.2,3.6,5.7c0.5,0.4,1.3,0.8,0.6,1.6
	c-1.5,1.6-1.4,3.4-0.9,5.4c0.2,0.7,0.6,1.6,0,2c-1.5,1-2.2,2.8-4,3.3c-1.7,0.5-2,1.5-1.4,3c0.1,0.4,0.3,0.9,0.2,1.3
	c-0.3,1.5,0.5,1.6,1.6,1.5c0.6,0,1.3,0.1,1.9-0.5c-0.3-0.1-0.6-0.3-0.9-0.4c-1-0.2-1.5-0.8-1.5-1.9c0-1.1,0.8-1.2,1.6-1.5
	c2-0.6,3.7-1.9,5.2-3.5c0.2-0.2,0.1-0.9,0.7-0.5c0.3,0.2,0.7,0.5,0.5,0.9c-0.5,1.6,0,3.5-1.1,4.9c-0.7,0.9-0.3,1.5,0.6,1.7
	c1.1,0.2,2.3,0.4,3.9-0.3c-2.7-0.3-2.4-1.2-1.6-2.7c1.1-2.1,2.6-4.3,0.2-7.2c2,0.9,3.2,1.8,4.7,2.1c0.3,0.1,0.6,0.2,0.4,0.6
	c-0.7,2.1-0.4,4.4-0.6,6.6c-0.2,2,0.4,2.4,2.5,1.9c-1.7-1.8,0-7.4,2.8-8.9c-0.2,2,0.8,3.6,1.3,5.3c0.5,2,1.6,2.8,4.1,2
	c-1.4-0.4-2.3-0.6-2.4-1.9c-0.3-3-1-6,0.4-9c0.4-0.8,0.6-1.3,1.6-0.9c1.1,0.4,1.9-0.3,1.9-1.2C51,37.2,49.6,36.4,50.7,35.2z
	 M35.7,34.4c-1.7-0.4-3.4-0.6-5.1-1.5c-2.9-1.6-4.2-3.9-4-7.2c0.2-2.4,2.1-3.9,4.5-3.4c1.9,0.4,3.1,1.6,4,3.3
	c1.2,2.4,1.5,4.9,1.9,7.7C37.3,34.3,36.9,34.7,35.7,34.4z"/>
</svg>
