<?xml version="1.0" encoding="utf-8"?>
<!-- Generator: Adobe Illustrator 21.0.2, SVG Export Plug-In . SVG Version: 6.00 Build 0)  -->
<svg version="1.1" id="Layer_1" xmlns="http://www.w3.org/2000/svg" xmlns:xlink="http://www.w3.org/1999/xlink" x="0px" y="0px"
	 viewBox="0 0 74 74" style="enable-background:new 0 0 74 74;" xml:space="preserve">
<style type="text/css">
	.st0{fill:none;stroke:#006FAF;stroke-width:2;stroke-miterlimit:10;}
	.st1{fill:#006FAF;}
	.st2{fill:none;}
	.st3{fill-rule:evenodd;clip-rule:evenodd;fill:none;stroke:#006FAF;stroke-width:2;stroke-miterlimit:10;}
	.st4{fill:#006FAF;stroke:#006FAF;stroke-miterlimit:10;}
	.st5{fill:#FFFFFF;}
</style>
<circle class="st3" cx="37" cy="37" r="36"/>
<path class="st1" d="M33.6,38h3.3l-1.7-2.8l-3.2,5.1h-1.5l3.9-6.1c0.2-0.2,0.5-0.4,0.8-0.4c0.3,0,0.6,0.1,0.8,0.4l3.9,6.1h-1.5
	l-0.7-1.1h-3.3L33.6,38L33.6,38z M48.7,39.1v-5.3h-1.2v5.8c0,0.2,0.1,0.3,0.2,0.4c0.1,0.1,0.3,0.2,0.5,0.2h5.6l0.7-1.1L48.7,39.1
	L48.7,39.1z M28.3,38.2c1.2,0,2.2-1,2.2-2.2c0-1.2-1-2.2-2.2-2.2h-5.4v6.4h1.2v-5.3h4.1c0.6,0,1,0.5,1,1c0,0.6-0.5,1-1,1l-3.5,0
	l3.7,3.2h1.8l-2.5-2.1L28.3,38.2L28.3,38.2z M15.2,40.2c-1.8,0-3.2-1.4-3.2-3.2c0-1.8,1.4-3.2,3.2-3.2H19c1.8,0,3.2,1.4,3.2,3.2
	c0,1.8-1.4,3.2-3.2,3.2L15.2,40.2L15.2,40.2z M18.9,39.1c1.2,0,2.1-0.9,2.1-2.1c0-1.2-0.9-2.1-2.1-2.1h-3.6c-1.2,0-2.1,0.9-2.1,2.1
	c0,1.2,0.9,2.1,2.1,2.1H18.9L18.9,39.1z M42.4,40.2c-1.8,0-3.2-1.4-3.2-3.2c0-1.8,1.4-3.2,3.2-3.2h4.4l-0.7,1.1h-3.6
	c-1.2,0-2.1,0.9-2.1,2.1c0,1.2,0.9,2.1,2.1,2.1h4.5l-0.7,1.1H42.4L42.4,40.2z M57.5,39.1c-1,0-1.8-0.6-2-1.5h5.3l0.7-1.1h-6
	c0.2-0.9,1.1-1.5,2-1.5h3.6l0.7-1.1h-4.4c-1.8,0-3.2,1.4-3.2,3.2c0,1.8,1.4,3.2,3.2,3.2h3.8l0.7-1.1H57.5L57.5,39.1z"/>
</svg>
