<?xml version="1.0" encoding="utf-8"?>
<!-- Generator: Adobe Illustrator 21.0.2, SVG Export Plug-In . SVG Version: 6.00 Build 0)  -->
<svg version="1.1" id="Layer_1" xmlns="http://www.w3.org/2000/svg" xmlns:xlink="http://www.w3.org/1999/xlink" x="0px" y="0px"
	 viewBox="0 0 74 74" style="enable-background:new 0 0 74 74;" xml:space="preserve">
<style type="text/css">
	.st0{fill:none;stroke:#006FAF;stroke-width:2;stroke-miterlimit:10;}
	.st1{fill:#006FAF;}
</style>
<title>oscommerce</title>
<circle class="st0" cx="37" cy="37" r="36"/>
<g>
	<path class="st1" d="M29.5,31.2l0.1,0c0.5-0.2,1-0.4,1.5-0.5l0.2,0l-0.1-0.2c-1.6-2.5-0.8-5.8,1.7-7.4c2.5-1.6,5.8-0.8,7.4,1.7v0.1
		h0.1c0.3,0,0.5,0,0.8,0c0.3,0,0.7,0,1,0.1h0.3l-0.1-0.2c-1.7-3.7-6-5.3-9.6-3.6s-5.3,6-3.6,9.6C29.3,30.8,29.4,31,29.5,31.2
		L29.5,31.2z"/>
	<path class="st1" d="M43.2,25.4L43.2,25.4c-0.4,0-0.8-0.1-1.1-0.1c-0.3,0-0.6,0-0.8,0h-0.2l0,0c-3.3,0.4-6.1,2.5-7.3,5.6v0.2H34
		c0.3,0,0.5,0,0.7,0s0.6,0,0.9,0h0.1V31c1.2-2.3,3.6-3.8,6.2-3.8l0,0l0,0h0.1c3.9,0,7.1,3.2,7.1,7.1c0,2.6-1.4,5-3.8,6.3h-0.1v0.1
		c0,0.4,0.1,0.8,0.1,1.1c0,0.1,0,0.3,0,0.4v0.4l0.2-0.1c4.6-1.9,6.8-7.2,4.9-11.8C49.3,27.8,46.5,25.7,43.2,25.4L43.2,25.4z"/>
	<path class="st1" d="M40.9,34.1c-1.7-1.4-3.8-2.2-6-2.4c-0.3,0-0.6,0-1,0s-0.5,0-0.8,0c-0.7,0-1.3,0.2-2,0.3
		c-0.5,0.1-1.1,0.3-1.6,0.5c-5.6,2.4-8.2,8.9-5.7,14.5s8.9,8.2,14.5,5.7c3.8-1.7,6.4-5.3,6.6-9.5v-0.2c0-0.2,0-0.3,0-0.4
		C44.9,39.3,43.4,36.2,40.9,34.1L40.9,34.1z M43,43.8c-0.6,5-5.2,8.6-10.2,8c-5-0.6-8.6-5.2-8-10.2c0.4-3.4,2.6-6.3,5.8-7.5
		c0.6-0.2,1.2-0.4,1.8-0.5h0.2c0.4-0.1,0.8-0.1,1.3-0.1h0.4c1.2,0,2.4,0.3,3.5,0.9c3,1.4,5,4.4,5.2,7.7v0.1c0,0.1,0,0.3,0,0.4
		C43,43,43,43.4,43,43.8z"/>
</g>
</svg>
