<?xml version="1.0" encoding="utf-8"?>
<!-- Generator: Adobe Illustrator 21.0.2, SVG Export Plug-In . SVG Version: 6.00 Build 0)  -->
<svg version="1.1" id="Layer_1" xmlns="http://www.w3.org/2000/svg" xmlns:xlink="http://www.w3.org/1999/xlink" x="0px" y="0px"
	 viewBox="0 0 74 74" style="enable-background:new 0 0 74 74;" xml:space="preserve">
<style type="text/css">
	.st0{fill:#006FAF;}
</style>
<title>health-checks</title>
<path class="st0" d="M37,74C16.6,74,0,57.4,0,37S16.6,0,37,0s37,16.6,37,37S57.4,74,37,74z M37,2C17.7,2,2,17.7,2,37s15.7,35,35,35
	s35-15.7,35-35S56.3,2,37,2z"/>
<g>
</g>
<g>
	<path class="st0" d="M38.8,52.9c3.4-0.4,6.3-1.7,8.9-4c2.9-2.6,4.6-5.8,5.2-9.6c0-0.2,0-0.3,0-0.5s-0.1-0.5,0.1-0.7
		c0-0.7,0-1.5,0-2.2c-0.2-0.2-0.1-0.5-0.1-0.8c-0.3-3.3-1.7-6.2-3.8-8.7c-2.6-3-5.9-4.7-9.8-5.3c-0.2,0-0.3,0-0.5,0
		c-0.3,0-0.5,0.1-0.8-0.1c-0.7,0-1.4,0-2.1,0c-0.2,0.2-0.5,0.1-0.8,0.1c-3.5,0.4-6.5,1.8-9,4.1c-2.8,2.6-4.4,5.7-5,9.5
		c0,0.2,0,0.3,0,0.5s0.1,0.5-0.1,0.7c0,0.8,0,1.6,0,2.3c0.2,0.2,0.1,0.4,0.1,0.7c0.3,3.3,1.7,6.2,3.8,8.7c2.6,3,5.9,4.7,9.8,5.3
		c0.2,0,0.3,0,0.5,0s0.5-0.1,0.7,0.1c0.7,0,1.5,0,2.2,0C38.3,52.8,38.6,52.9,38.8,52.9z M37,50.5c-7.4,0-13.5-6.1-13.5-13.5
		S29.6,23.5,37,23.5S50.5,29.6,50.5,37C50.5,44.5,44.4,50.6,37,50.5z"/>
	<path class="st0" d="M35.2,21.1c0.2,0,0.5,0.1,0.7-0.1C35.7,21,35.4,21,35.2,21.1C35.2,21,35.2,21,35.2,21.1z"/>
	<path class="st0" d="M35.2,21.1L35.2,21.1L35.2,21.1L35.2,21.1L35.2,21.1L35.2,21.1z"/>
	<path class="st0" d="M38.8,21.1C38.8,21,38.8,21,38.8,21.1C38.8,21,38.8,21,38.8,21.1C38.6,21,38.3,21,38.1,21
		C38.3,21.1,38.5,21,38.8,21.1z"/>
	<path class="st0" d="M38.8,21.1L38.8,21.1L38.8,21.1L38.8,21.1L38.8,21.1z"/>
	<path class="st0" d="M53,35.9c0-0.2,0-0.5,0-0.7c0,0,0,0-0.1,0C53,35.5,52.9,35.7,53,35.9z"/>
	<path class="st0" d="M52.9,35.2L52.9,35.2L52.9,35.2L52.9,35.2L52.9,35.2z"/>
	<path class="st0" d="M38.8,52.9c-0.2,0-0.5-0.1-0.7,0.1C38.3,53,38.6,53,38.8,52.9C38.8,53,38.8,53,38.8,52.9z"/>
	<path class="st0" d="M38.8,52.9L38.8,52.9L38.8,52.9L38.8,52.9L38.8,52.9L38.8,52.9z"/>
	<path class="st0" d="M21.1,35.2C21,35.2,21,35.2,21.1,35.2C21,35.4,21,35.6,21,35.8C21.1,35.6,21,35.4,21.1,35.2z"/>
	<path class="st0" d="M21.1,35.2L21.1,35.2L21.1,35.2L21.1,35.2L21.1,35.2z"/>
	<path class="st0" d="M21,38.2c0,0.2,0,0.4,0,0.6c0,0,0,0,0.1,0C21,38.6,21.1,38.4,21,38.2z"/>
	<path class="st0" d="M21.1,38.8L21.1,38.8L21.1,38.8L21.1,38.8z"/>
	<path class="st0" d="M52.9,38.8C53,38.8,53,38.8,52.9,38.8c0.1-0.2,0.1-0.4,0.1-0.6C52.9,38.4,53,38.6,52.9,38.8z"/>
	<path class="st0" d="M52.9,38.8L52.9,38.8L52.9,38.8L52.9,38.8z"/>
	<path class="st0" d="M35.2,52.9C35.2,53,35.2,53,35.2,52.9C35.2,53,35.2,53,35.2,52.9c0.2,0.1,0.4,0.1,0.6,0.1
		C35.6,52.9,35.4,53,35.2,52.9z"/>
	<path class="st0" d="M35.2,52.9L35.2,52.9L35.2,52.9L35.2,52.9z"/>
	<path class="st0" d="M49.7,34.8c-0.9-5.6-5.7-10-11.3-10.5c-5.2-0.5-11,2.7-12.5,6.7c3.7-0.4,7.3,0.1,10.9,0.7
		c-0.3-0.4-0.5-0.7-0.7-1c-0.2-0.2-0.2-0.5,0-0.7s0.5-0.1,0.7,0c0.1,0.1,0.2,0.2,0.4,0.2c0.1-0.4-0.3-1,0.3-1.2
		c0.5-0.2,0.6,0.3,0.8,0.7c0.1-0.3,0.1-0.6,0.2-0.9c0.1-0.3,0.2-0.4,0.5-0.4s0.4,0.2,0.4,0.5s0,0.7,0,1c-0.1,0.4,0.1,0.6,0.3,0.9
		c0.1,0.2,0.3,0.2,0.5,0.1c0.2,0,0.2-0.2,0.2-0.3c0-0.3,0.1-0.6,0.2-0.8c0.2-0.4,0.6-0.5,0.8-0.8c0.3-0.4,0.7-0.5,1.2-0.4
		c0.4,0.1,0.4-0.1,0.3-0.3c-0.1-0.3-0.3-0.5-0.4-0.8c-0.1-0.3,0-0.5,0.2-0.7c0.2-0.1,0.5-0.1,0.7,0.1c0.5,0.7,0.9,1.4,0.5,2.3
		c-0.3,0.5,0.3,0.6,0.4,0.9c0.1,0.3,0.3,0.2,0.5,0.1c0.9-0.4,1.6,0,2.3,0.5c0.2,0.2,0.3,0.4,0.1,0.7c-0.1,0.3-0.4,0.4-0.7,0.2
		c-0.2-0.1-0.3-0.2-0.5-0.3c-0.2-0.1-0.4-0.3-0.6-0.1c-0.2,0.1,0.1,0.3,0,0.5c0,0.2,0,0.4-0.1,0.5c-0.5,0.7-1,1.5-2,1.5
		c-0.1,0-0.3-0.1-0.3,0.1c0,0.2-0.1,0.4,0.2,0.5c0.3,0.2,0.5,0.3,0.9,0.2c0.3-0.1,0.6,0,1,0c0.3,0,0.5,0.1,0.5,0.4
		c0,0.3-0.1,0.5-0.4,0.6c-0.3,0.1-0.6,0-0.8,0.2c0.3,0.2,0.8,0.3,0.6,0.7c-0.2,0.8-0.9,0.2-1.3,0.4c0.1,0.1,0.1,0.1,0.1,0.2
		c0.2,0.3,0.5,0.5,0.2,0.8s-0.6,0.1-0.9-0.1c-0.3-0.2-0.5-0.4-0.8-0.6c0.6,3.8,1.1,7.5,0.6,11.3C47.1,46.3,50.7,41.2,49.7,34.8z"/>
	<path class="st0" d="M41.5,48.4c-1.3-1.7-2.4-3.5-2.7-5.7c-0.1-0.8-0.3-1.7,0.2-2.4c0.6-0.9,0.8-1.9,0.8-2.9c0-0.1-0.1-0.1-0.1-0.2
		l0,0c-1.3,1.9-2.9,3.4-4.9,4.5c-1.4,0.8-2.8,1.6-4.3,2.2c-0.2,0.1-0.5,0.2-0.8,0.3c1.6-3.9,3.5-7.5,7.1-10c-1.3,0-2.4,0.1-3.4,0.9
		c-0.3,0.2-0.6,0.2-1,0.2c-1.3,0-2.5-0.2-3.7-0.8s-2.4-1.3-3.5-2.2c-1.9,4.6-1,10.6,3.5,14.5c4.2,3.6,9.9,3.7,13.1,2
		C41.8,48.6,41.6,48.5,41.5,48.4z"/>
	<path class="st0" d="M41.4,35.5c0-0.1-0.1-0.3,0.1-0.3c0.2-0.1,0.2,0.1,0.2,0.2c0.3,0.6,0.5,1.3,1.2,1.6c0.1-0.2,0-0.3-0.1-0.3
		c-0.3-0.2-0.4-0.6-0.5-1c0.5,0.3,1.1,0.4,1.8,0.5c-0.6-0.5-1.7-0.3-1.7-1.4c0.7,0.4,1.4,0.4,2.1,0.2c-0.2-0.2-0.4,0-0.6-0.1l0,0
		l0,0c-0.6,0.1-1-0.2-1.4-0.5c-0.4-0.4,0.1-0.9-0.3-1.5c0.7,0.2,1.2,0.3,1.7,0c0.2-0.2,0.3-0.4,0.5-0.6c0.6-0.6,0.6-0.8,0-1.3
		c0.1-0.2,0.3-0.1,0.4-0.2l-0.1-0.1c-0.2,0-0.4,0.3-0.6,0c-0.3-0.4-0.7-0.7-1.1-1.1l-0.1-0.1c-0.2-0.3-0.5-0.7-0.9-0.5
		c-0.4,0.3-1,0.6-1.2,1.2c-0.1,0.4,0,0.8,0.1,1.2c-0.4-0.1-0.8-0.1-1.1,0c-0.1,0-0.2,0-0.3-0.1c-0.3-0.5-0.7-0.9-0.5-1.5
		c-0.1-0.1,0-0.3-0.1-0.5c0,0.1,0,0.1,0,0.2c0,0.2,0.1,0.4-0.1,0.6c-0.2,0.5,0.2,0.9,0.3,1.4c-1-0.1-0.8-1.1-1.3-1.6
		c0,0.6,0.1,1.1,0.5,1.7c-0.5,0-0.8-0.4-1.2-0.6c0,0.2,0.2,0.4,0.3,0.5c0.3,0.3,0.8,0.4,1.2,0.7c0.1,0.1,0.3,0.1,0.2,0.2
		c-0.1,0.2-0.2,0.1-0.4,0.1c-2.2-0.4-4.3-0.8-6.5-1c-1.9-0.2-3.7-0.2-5.6,0c-0.2,0-0.5,0-0.6,0.2s0.2,0.4,0.4,0.5
		c1.4,1,2.9,1.9,4.6,2.3c1.3,0.3,2.5,0.5,3.7-0.5c0.2-0.2,0.5-0.2,0.9-0.3c0.9-0.1,1.8-0.2,2.7-0.3c0.8-0.1,0.8-0.1,1.1,0.8
		c-0.8-0.2-1.4-0.1-2.3,0.6c-1.4,1.2-2.8,2.5-3.7,4.1c-0.8,1.3-1.5,2.6-2.1,4c0,0.1-0.2,0.2,0,0.3c1.6-0.7,3.1-1.5,4.5-2.4
		c1.6-1,2.8-2.3,3.9-3.8c0.5-0.6,0.8-1.3,0.4-2.1c0.9,0.3,0.9,0.3,0.8,1.2c-0.1,0.6-0.1,1.2-0.2,1.9c-0.1,0.8-0.2,1.5-0.7,2.2
		c-0.4,0.5-0.4,1.1-0.3,1.7c0.2,2.3,1.2,4.2,2.5,5.9c0.1,0.2,0.3,0.5,0.5,0.4s0.2-0.4,0.2-0.6c0.2-2.2,0.1-4.4-0.1-6.6
		C42.1,39.2,41.8,37.4,41.4,35.5z"/>
	<path class="st0" d="M42.9,37L42.9,37C42.9,37,42.8,37,42.9,37C42.8,37,42.9,37,42.9,37z"/>
	<path class="st0" d="M43.3,28.1C43.3,28.1,43.2,28.1,43.3,28.1c-0.1,0.3-0.1,0.5-0.1,0.8h0.1C43.5,28.6,43.5,28.4,43.3,28.1z"/>
	<path class="st0" d="M43,29.7c0.2-0.2,0.3-0.5,0.3-0.8h-0.1c-0.1,0.2-0.2,0.4-0.3,0.6C43,29.5,43,29.5,43,29.7z"/>
	<path class="st0" d="M38.9,29.9C39,29.6,39,29.3,39,29c-0.2,0.1-0.2,0.3-0.2,0.5C39.1,29.5,38.9,29.7,38.9,29.9z"/>
	<path class="st0" d="M44.5,35.1c0.2,0.1,0.3-0.1,0.4-0.2c-0.3,0-0.6-0.1-1,0.1C44.1,35,44.3,34.8,44.5,35.1z"/>
	<path class="st0" d="M45.4,30.6L45.4,30.6L45.4,30.6c0.1,0.1,0.2,0.1,0.4,0l0,0l0,0c-0.2-0.3-0.4-0.2-0.7-0.1
		C45.2,30.6,45.3,30.6,45.4,30.6z"/>
	<path class="st0" d="M45.8,30.7c0.1,0.2,0.3,0.3,0.6,0.3C46.2,30.7,46,30.6,45.8,30.7L45.8,30.7C45.8,30.6,45.8,30.7,45.8,30.7z"/>
	<path class="st0" d="M43.1,27.7L43.1,27.7c-0.1,0.2,0,0.3,0.1,0.4l0,0c0,0,0,0,0.1,0C43.3,27.9,43.2,27.8,43.1,27.7z"/>
	<path class="st0" d="M44.8,30.8c0.2-0.1,0.4-0.1,0.6-0.2c-0.1,0-0.3,0.1-0.3-0.1c-0.2,0-0.3,0.1-0.4,0.2
		C44.8,30.6,44.8,30.7,44.8,30.8z"/>
	<path class="st0" d="M37.6,29.8c0.1,0,0.1-0.1,0.1-0.2s-0.1-0.1-0.1-0.1c-0.1,0-0.1,0.1-0.1,0.2C37.5,29.7,37.6,29.8,37.6,29.8z"/>
	<path class="st0" d="M42.8,37C42.9,37,42.9,37,42.8,37C42.9,37,42.9,37,42.8,37C42.9,37,42.9,37,42.8,37C42.9,37,42.9,37,42.8,37
		L42.8,37z"/>
	<path class="st0" d="M42.9,37c0.1,0.1,0.2,0.2,0.5,0.3C43.2,37,43.1,36.9,42.9,37z"/>
	<path class="st0" d="M38.8,29.6c-0.1,0.2-0.1,0.4-0.1,0.6C38.8,30,38.7,29.8,38.8,29.6z"/>
	<path class="st0" d="M36.8,30.8c-0.1-0.2-0.2-0.3-0.3-0.3C36.5,30.6,36.6,30.7,36.8,30.8z"/>
	<path class="st0" d="M39.8,37.3c0.1-0.1,0.1-0.2,0.1-0.3c-0.1-0.1-0.1,0-0.1,0.1l0,0C39.9,37.1,39.8,37.2,39.8,37.3z"/>
</g>
</svg>
