<?xml version="1.0" encoding="utf-8"?>
<!-- Generator: Adobe Illustrator 21.0.2, SVG Export Plug-In . SVG Version: 6.00 Build 0)  -->
<svg version="1.1" id="Layer_1" xmlns="http://www.w3.org/2000/svg" xmlns:xlink="http://www.w3.org/1999/xlink" x="0px" y="0px"
	 viewBox="0 0 74 74" style="enable-background:new 0 0 74 74;" xml:space="preserve">
<style type="text/css">
	.st0{fill:#006FAF;}
</style>
<title>health-checks</title>
<path class="st0" d="M37,74C16.6,74,0,57.4,0,37S16.6,0,37,0s37,16.6,37,37S57.4,74,37,74z M37,2C17.7,2,2,17.7,2,37s15.7,35,35,35
	s35-15.7,35-35S56.3,2,37,2z"/>
<g>
</g>
<g>
	<path class="st0" d="M23.7,20.5l14.1,8.2v30.1l-14.1-8.2V20.5z"/>
	<path class="st0" d="M44.8,24.1l-15.3-8.9v6.2l10.4,6v18.4l4.9,2.8c3,1.8,5.5,0.7,5.5-2.3V32.8C50.3,29.7,47.8,25.8,44.8,24.1z"/>
</g>
</svg>
