<?xml version="1.0" encoding="utf-8"?>
<!-- Generator: Adobe Illustrator 21.0.0, SVG Export Plug-In . SVG Version: 6.00 Build 0)  -->
<svg version="1.1" id="Layer_1" xmlns="http://www.w3.org/2000/svg" xmlns:xlink="http://www.w3.org/1999/xlink" x="0px" y="0px"
	 viewBox="0 0 74 74" style="enable-background:new 0 0 74 74;" xml:space="preserve">
<style type="text/css">
	.st0{fill:none;stroke:#006FAF;stroke-width:2;stroke-miterlimit:10;}
	.st1{fill:#006FAF;}
</style>
<title>Azure_Site_Recovery</title>
<circle class="st0" cx="37" cy="37" r="36"/>
<g>
	<path class="st1" d="M43.4,56.2c-0.8-0.2-1.7-0.2-2.4-0.5c-5.1-1.7-8.2-5.2-9-10.5c-0.2-1.4-0.1-2.7,0.2-4.1c0-0.1,0-0.1,0-0.2
		c-0.6,0.1-1.2,0.2-1.8,0.2c-6.3,0.6-12.2-4-13.3-10.2c-0.1-0.6-0.2-1.3-0.2-1.9c0-0.2,0-0.4,0-0.5c0.1-0.6,0.1-1.3,0.2-1.9
		c0.8-4.8,4.5-8.8,9.3-9.9c0.9-0.2,1.8-0.3,2.7-0.4c0.2,0,0.5,0,0.7,0c0.7,0.1,1.4,0.2,2.2,0.3c4.9,1,8.8,5,9.6,9.9
		c0.3,1.6,0.3,3.3-0.1,4.9c0,0,0,0.1,0,0.1c0.5-0.1,1.1-0.2,1.6-0.2c6.3-0.7,12.1,3.7,13.4,9.9c0.1,0.5,0.2,1.1,0.3,1.6
		c0,0.6,0,1.3,0,1.9c0,0.1-0.1,0.1-0.1,0.2c-0.6,5.2-4.2,9.5-9.2,10.9c-0.7,0.2-1.5,0.3-2.2,0.4C44.6,56.2,44,56.2,43.4,56.2z
		 M44.4,32.4c-6.4,0-11.3,4.9-11.3,11.3c0,6.2,5,11.2,11.2,11.2c6.3,0,11.3-5,11.2-11.3C55.6,37.4,50.6,32.4,44.4,32.4z M18,28.6
		c0,0.5,0.1,1.1,0.1,1.6c0.1,0.5,0.2,1,0.3,1.4c1.7,6,7.8,9.5,13.8,7.8c0.2,0,0.4-0.2,0.4-0.4c1.4-3.4,3.8-5.7,7.1-7.1
		c0.1-0.1,0.3-0.2,0.3-0.4c0.5-1.7,0.6-3.4,0.2-5.2c-1.2-5.8-6.6-9.7-12.5-9C22.4,18.1,18,23,18,28.6z"/>
	<path class="st1" d="M44.4,38.7c-2,0.1-3.4,0.9-4.4,2.4c-1.2,2-0.9,4.3,0.8,5.9c0.1,0.1,0.2,0.2,0.3,0.3c0.3,0.3,0.4,0.6,0.1,0.9
		c-0.2,0.3-0.6,0.3-0.9,0c-1-0.8-1.7-1.9-2-3.2c-0.9-3.5,1.4-6.8,4.9-7.5c0.3-0.1,0.6-0.1,1-0.1c-0.3-0.3-0.6-0.5-0.9-0.7
		c-0.3-0.2-0.4-0.6-0.2-0.9c0.2-0.3,0.6-0.4,0.9-0.1c0.8,0.6,1.5,1.2,2.2,1.8c0.3,0.2,0.3,0.6,0.1,0.8c-0.6,0.7-1.2,1.4-1.8,2.1
		c-0.3,0.3-0.6,0.3-0.9,0.1c-0.3-0.2-0.3-0.6,0-0.9C43.8,39.4,44.1,39.1,44.4,38.7z"/>
	<path class="st1" d="M44.5,49.8c0.3,0.3,0.6,0.5,0.9,0.7c0.3,0.3,0.4,0.6,0.2,0.9c-0.2,0.3-0.6,0.3-0.9,0.1
		c-0.7-0.6-1.5-1.1-2.2-1.7c-0.3-0.3-0.3-0.6-0.1-0.9c0.6-0.7,1.2-1.4,1.7-2.1c0.3-0.3,0.7-0.3,0.9-0.1c0.3,0.2,0.3,0.6,0,0.9
		c-0.2,0.3-0.5,0.6-0.8,1c1.2,0,2.2-0.3,3.1-1c2.5-1.9,2.7-5.3,0.3-7.5c-0.3-0.3-0.4-0.7-0.2-1c0.3-0.3,0.7-0.3,1,0
		c3.1,2.8,2.6,8.4-2,10.2c-0.6,0.2-1.2,0.3-1.8,0.4C44.8,49.8,44.7,49.8,44.5,49.8z"/>
	<path class="st1" d="M33.6,29.3c-1.4,0-2.7,0-4.1,0c-0.4,0-0.6,0.1-0.8,0.4c-0.4,0.8-1,1.5-1.4,2.2c-0.2,0.3-0.4,0.4-0.7,0.4
		c-1.2,0-2.5,0-3.7,0c-0.3,0-0.5-0.1-0.7-0.4c-0.6-1-1.2-1.9-1.8-2.9c-0.2-0.3-0.2-0.6,0-0.9c0.6-0.9,1.2-1.9,1.8-2.9
		c0.2-0.3,0.4-0.4,0.7-0.4c1.2,0,2.5,0,3.7,0c0.3,0,0.5,0.1,0.7,0.4c0.5,0.8,1,1.6,1.5,2.4c0.1,0.2,0.3,0.3,0.5,0.3
		c2.8,0,5.5,0,8.3,0c0.1,0,0.1,0,0.2,0c0.5,0,0.7,0.3,0.7,0.6c0,0.4-0.3,0.6-0.7,0.6c-1.2,0-2.4,0-3.6,0
		C34,29.3,33.8,29.3,33.6,29.3z M24.7,31.1c0.5,0,0.9,0,1.4,0c0.2,0,0.3-0.1,0.4-0.2c0.4-0.6,0.9-1.3,1.3-2c0.1-0.1,0.1-0.4,0-0.5
		c-0.4-0.7-0.8-1.3-1.2-1.9c-0.1-0.1-0.3-0.2-0.5-0.3c-0.9,0-1.8,0-2.7,0c-0.2,0-0.4,0.1-0.5,0.2c-0.4,0.6-0.8,1.3-1.3,1.9
		c-0.1,0.2-0.1,0.3,0,0.5c0.4,0.6,0.8,1.3,1.3,1.9c0.1,0.1,0.3,0.2,0.4,0.2C23.8,31.1,24.2,31.1,24.7,31.1z"/>
	<path class="st1" d="M36.2,31.8c-0.5,0-1,0-1.6,0c-0.4,0-0.7-0.3-0.7-0.6c0-0.4,0.3-0.6,0.7-0.6c1.1,0,2.1,0,3.2,0
		c0.4,0,0.7,0.3,0.7,0.6c0,0.3-0.3,0.6-0.7,0.6C37.3,31.8,36.8,31.8,36.2,31.8z"/>
	<path class="st1" d="M22.9,28.6c0-0.9,0.9-1.8,1.8-1.8c0.9,0,1.7,0.9,1.7,1.8c0,0.9-0.9,1.8-1.8,1.8C23.8,30.4,22.9,29.5,22.9,28.6
		z M25.2,28.7c0-0.4-0.2-0.5-0.5-0.5c-0.4,0-0.5,0.2-0.5,0.5c0,0.4,0.2,0.5,0.5,0.5C25,29.2,25.2,29,25.2,28.7z"/>
</g>
</svg>
