<?xml version="1.0" encoding="utf-8"?>
<!-- Generator: Adobe Illustrator 21.0.2, SVG Export Plug-In . SVG Version: 6.00 Build 0)  -->
<svg version="1.1" id="Layer_1" xmlns="http://www.w3.org/2000/svg" xmlns:xlink="http://www.w3.org/1999/xlink" x="0px" y="0px"
	 viewBox="0 0 75 75" style="enable-background:new 0 0 75 75;" xml:space="preserve">
<style type="text/css">
	.st0{fill:none;stroke:#006FAF;stroke-width:2;stroke-miterlimit:10;}
	.st1{fill:#006FAF;}
	.st2{fill:#0A77B7;}
</style>
<circle class="st0" cx="37.5" cy="37.5" r="36"/>
<g>
	<g>
		<path class="st1" d="M30.7,46.6l-2-1.8L27,46.6l-4-1.8l0.2-2.7l-2.5-0.3l-1.1-4.3l2.2-1.5L20.5,34l2.7-3.5l2.6,0.8l0.8-2.3l4.4,0
			l0.9,2.5l2.4-0.8l2.7,3.5l-1.2,2l1.9,1.1l-0.8,4.3L34.2,42l0.4,2.5L30.7,46.6z M24.9,43.6l1.7,0.8l1.6-1.6l0.4,0
			c0.1,0,0.2,0,0.3,0l0.4,0l1.8,1.6l1.6-0.9l-0.3-2.2l0.3-0.3c0.1-0.1,0.1-0.2,0.2-0.2l0.2-0.3l2.4-0.4l0.3-1.8l-2.4-1.4l1.6-2.5
			l-1.2-1.5l-2.2,0.7l-0.4-0.2c-0.1,0-0.2-0.1-0.3-0.1l-0.3-0.2l-0.8-2.3l-1.9,0l-0.8,2.1l-0.4,0.2c-0.1,0-0.2,0.1-0.2,0.1l-0.3,0.2
			l-2.3-0.8l-1.1,1.5l1.2,1.9l-0.2,1l-2,1.4l0.5,1.8l2.3,0.2l0.2,0.3c0,0.1,0.1,0.1,0.2,0.2l0.2,0.3L24.9,43.6z"/>
	</g>
	<g>
		<path class="st1" d="M28.7,41.1c-0.2,0-0.4,0-0.6-0.1c-1.8-0.3-3.1-2.1-2.8-3.9c0.3-1.8,2.1-3.1,3.9-2.8c0.9,0.2,1.7,0.6,2.2,1.4
			c0.5,0.7,0.7,1.6,0.6,2.5l0,0c-0.2,0.9-0.6,1.7-1.4,2.2C30.1,40.9,29.4,41.1,28.7,41.1z M28.7,36.1c-0.8,0-1.4,0.5-1.6,1.3
			c-0.1,0.9,0.4,1.7,1.3,1.8c0.4,0.1,0.8,0,1.2-0.3c0.3-0.2,0.6-0.6,0.7-1l0,0c0.1-0.4,0-0.8-0.3-1.2c-0.2-0.3-0.6-0.6-1-0.7
			C28.9,36.1,28.8,36.1,28.7,36.1z"/>
	</g>
	<g>
		<path class="st2" d="M40.6,19v0.5v1.6v8.6h14.7v-8.6v-1.6V19H40.6z M54.4,28.8H41.6v-7.6h12.8V28.8z"/>
	</g>
	<g>
		<path class="st2" d="M40.6,45.4v0.5v1.6V56h14.7v-8.5v-1.6v-0.5H40.6z M54.4,55.1H41.6v-7.5h12.8V55.1z"/>
	</g>
	<g>
		<path class="st1" d="M31.1,28.1h-4.5v-7h8.2v-2.4l4.4,4.4l-4.4,4.4v-2.4h-3.7V28.1z M27.6,27.1h2.5v-3h5.7v1l2-2l-2-2v1h-8.2V27.1
			z"/>
	</g>
	<g>
		<path class="st1" d="M34.8,56.3v-2.4h-8.2v-7h4.5v2.9h3.7v-2.4l4.4,4.4L34.8,56.3z M27.6,52.9h8.2v0.9l2-2l-2-2v1h-5.7v-2.9h-2.5
			V52.9z"/>
	</g>
</g>
</svg>
