<?xml version="1.0" encoding="utf-8"?>
<!-- Generator: Adobe Illustrator 21.0.2, SVG Export Plug-In . SVG Version: 6.00 Build 0)  -->
<svg version="1.1" id="Layer_1" xmlns="http://www.w3.org/2000/svg" xmlns:xlink="http://www.w3.org/1999/xlink" x="0px" y="0px"
	 viewBox="0 0 74 74" style="enable-background:new 0 0 74 74;" xml:space="preserve">
<style type="text/css">
	.st0{fill:#006FAF;}
</style>
<title>health-checks</title>
<path class="st0" d="M37,74C16.6,74,0,57.4,0,37S16.6,0,37,0s37,16.6,37,37S57.4,74,37,74z M37,2C17.7,2,2,17.7,2,37s15.7,35,35,35
	s35-15.7,35-35S56.3,2,37,2z"/>
<g>
</g>
<g>
	<path class="st0" d="M15,38.4v3.4h-1.5v-8.9H17c1,0,1.8,0.3,2.3,0.8s0.8,1.2,0.8,2s-0.3,1.5-0.8,2c-0.6,0.5-1.3,0.8-2.3,0.8
		L15,38.4L15,38.4z M15,37.2h2c0.6,0,1-0.1,1.2-0.4s0.4-0.7,0.4-1.1s-0.1-0.8-0.4-1.1S17.5,34,17,34h-2V37.2z"/>
	<path class="st0" d="M24.2,41.9c-0.9,0-1.7-0.3-2.2-0.9c-0.6-0.6-0.8-1.4-0.8-2.4v-0.2c0-1,0.3-1.8,0.8-2.4s1.2-1,2.1-0.9
		c0.9,0,1.6,0.3,2.1,0.8s0.7,1.3,0.7,2.2V39h-4.1l0,0c0,0.5,0.2,1,0.5,1.3s0.7,0.5,1.2,0.5c0.4,0,0.7,0,1-0.1s0.6-0.2,0.8-0.4l0.5,1
		c-0.2,0.2-0.6,0.4-1,0.6C25.2,41.8,24.7,41.9,24.2,41.9z M24,36.2c-0.4,0-0.7,0.1-0.9,0.4c-0.2,0.3-0.4,0.7-0.4,1.1l0,0h2.6v-0.2
		c0-0.4-0.1-0.8-0.3-1C24.8,36.4,24.5,36.2,24,36.2z"/>
	<path class="st0" d="M31.3,36.5h-0.6c-0.3,0-0.5,0.1-0.7,0.2s-0.3,0.3-0.5,0.5v4.6H28v-6.6h1.4l0.1,1c0.2-0.3,0.4-0.6,0.6-0.8
		c0.3-0.2,0.6-0.3,0.9-0.3c0.1,0,0.2,0,0.3,0c0.1,0,0.1,0,0.2,0.1L31.3,36.5z"/>
	<path class="st0" d="M33,41.8v-5.5h-1v-1.1h1v-0.8c0-0.7,0.2-1.3,0.6-1.7c0.4-0.4,1-0.6,1.7-0.6c0.1,0,0.3,0,0.4,0
		c0.1,0,0.3,0.1,0.5,0.1L36,33.4c-0.1,0-0.2,0-0.3,0s-0.2,0-0.3,0c-0.3,0-0.6,0.1-0.7,0.3c-0.2,0.2-0.2,0.4-0.2,0.8v0.8h1.4v1.1
		h-1.4v5.5L33,41.8L33,41.8z"/>
	<path class="st0" d="M38.2,35.1l0.1,0.9c0.2-0.3,0.5-0.6,0.8-0.7c0.3-0.2,0.7-0.3,1.1-0.3c0.4,0,0.8,0.1,1.1,0.3s0.5,0.5,0.7,0.9
		c0.2-0.4,0.5-0.7,0.8-0.9S43.5,35,44,35c0.7,0,1.2,0.2,1.6,0.7c0.4,0.5,0.6,1.1,0.6,2.1v4h-1.5v-4c0-0.6-0.1-1-0.3-1.2
		s-0.5-0.3-0.9-0.3c-0.3,0-0.6,0.1-0.8,0.3s-0.4,0.4-0.5,0.7c0,0.1,0,0.1,0,0.2v0.1v4.3h-1.5v-4c0-0.5-0.1-0.9-0.3-1.2
		s-0.5-0.4-0.9-0.4c-0.3,0-0.6,0.1-0.8,0.2c-0.2,0.1-0.4,0.3-0.5,0.5v4.9h-1.5v-6.6h1.5V35.1z"/>
	<path class="st0" d="M47.5,38.4c0-1,0.3-1.8,0.8-2.4c0.5-0.6,1.3-1,2.2-1c1,0,1.7,0.3,2.2,1c0.5,0.6,0.8,1.4,0.8,2.4v0.1
		c0,1-0.3,1.8-0.8,2.4c-0.5,0.6-1.3,0.9-2.2,0.9s-1.7-0.3-2.2-0.9C47.8,40.3,47.5,39.5,47.5,38.4L47.5,38.4z M49,38.5
		c0,0.6,0.1,1.2,0.4,1.6c0.2,0.4,0.6,0.6,1.2,0.6c0.5,0,0.9-0.2,1.2-0.6c0.3-0.4,0.4-0.9,0.4-1.6v-0.1c0-0.6-0.1-1.2-0.4-1.6
		c-0.3-0.4-0.7-0.6-1.2-0.6s-0.9,0.2-1.2,0.6C49.1,37.2,49,37.7,49,38.5L49,38.5z"/>
	<path class="st0" d="M56.3,35.1l0.1,1c0.2-0.3,0.5-0.6,0.8-0.8s0.7-0.3,1.1-0.3c0.7,0,1.2,0.2,1.6,0.6c0.4,0.4,0.6,1.1,0.6,2v4.2
		H59v-4.2c0-0.5-0.1-0.9-0.3-1.1c-0.2-0.2-0.5-0.3-0.9-0.3c-0.3,0-0.5,0.1-0.8,0.2c-0.2,0.1-0.4,0.3-0.6,0.5v4.8h-1.5v-6.6
		C54.9,35.1,56.3,35.1,56.3,35.1z"/>
</g>
</svg>
