<?xml version="1.0" encoding="utf-8"?>
<!-- Generator: Adobe Illustrator 21.0.2, SVG Export Plug-In . SVG Version: 6.00 Build 0)  -->
<svg version="1.1" id="Layer_1" xmlns="http://www.w3.org/2000/svg" xmlns:xlink="http://www.w3.org/1999/xlink" x="0px" y="0px"
	 viewBox="0 0 74 74" style="enable-background:new 0 0 74 74;" xml:space="preserve">
<style type="text/css">
	.st0{fill:none;stroke:#006FAF;stroke-width:2;stroke-miterlimit:10;}
	.st1{fill:#006FAF;}
</style>
<title>Cloud &amp;amp; Infrastructure Services</title>
<circle class="st0" cx="37" cy="37" r="36"/>
<title>logo_mobile</title>
<g>
	<path class="st1" d="M49.6,26.1c-0.1-2.4-2.2-2.9-2.2-2.9s-7.2-1.1-10.4-1.5c-3.2-0.4-3,2.7-3,2.7s0.7,22.3,0.8,25.1
		c0.1,3.3,3.2,2.8,3.2,2.8l10.9-1.9c2-0.4,2.1-2.9,2.1-2.9S49.7,28.7,49.6,26.1C49.5,23.7,49.7,28.7,49.6,26.1z M47.2,45.1l-8.1,0.8
		c0,0-2.4,0.4-2.4-2.5c0-2.1-0.5-14.2-0.5-14.2s-0.2-2.2,2.3-2s8.4,0.6,8.4,0.6s1.6,0.4,1.7,2.2c0.1,2,0.8,12.9,0.8,12.9
		S49.4,44.7,47.2,45.1L47.2,45.1z M27.4,41.8l-1.5,0.1c0,0-1.5,0.2-1.5-1.4c0-1.2-0.2-8.1-0.2-8.1s-0.1-1.3,1.4-1.2
		c0.4,0,0.9,0.1,1.6,0.1c0-1.1,0-2.1-0.1-2.9c-0.9-0.1-1.7-0.1-2.2-0.2c-2-0.2-1.9,1.5-1.9,1.5s0.2,12.6,0.3,14.2
		c0.1,1.8,2,1.5,2,1.5l2.1-0.2C27.4,44.3,27.4,43.1,27.4,41.8L27.4,41.8z M33.3,30.3c0-0.1,0-0.3-0.1-0.4c-0.7-0.1-2.3-0.5-2.8,0.1
		c-0.3,0.3-0.2,1.1-0.2,1.5l1.2,0.1c0,0,1,0.2,1.1,1.3c0,1.1,0,7.5,0,7.5s0.1,1-1.3,1.3l-0.8,0.1c0,0.2,0,0.4,0,0.5
		c0,1.8,2,1.2,3.2,1.1c0.1-1.9-0.1-3.9-0.1-5.8C33.5,35,33.4,32.7,33.3,30.3C33.3,30.1,33.4,31.8,33.3,30.3L33.3,30.3z"/>
	<path class="st1" d="M34,44l-2.2,0.2c0,0-2,0.3-2.1-2c0-1.7-0.2-11.5-0.2-11.5s-0.1-1.8,1.9-1.7c0.5,0,1.3,0.1,2.1,0.2
		c-0.1-1.9-0.1-3.4-0.1-4.1c-1.1-0.1-2.1-0.2-2.9-0.3c-2.8-0.3-2.6,2.1-2.6,2.1s0.3,18,0.4,20.1c0.1,2.6,2.8,2.2,2.8,2.2l3.1-0.4
		C34.1,47.7,34,46,34,44L34,44z M38.4,27.9c-0.4,0-0.9,0-1.1,0.3C37,28.6,36.9,29,37,29.4c1.1,0.1,1.9,0.2,1.9,0.2s1.4,0.3,1.4,1.8
		c0.1,1.6,0.5,10.3,0.5,10.3s0.2,1.5-1.8,1.8l-1.5,0.1c0.2,2.3,3.2,1.3,4.7,1.2c-0.2-3.5-0.6-14.1-0.7-16.6
		C40.4,28.1,39.4,28,38.4,27.9C38.3,27.9,39.2,28,38.4,27.9L38.4,27.9z"/>
</g>
</svg>
