<?xml version="1.0" encoding="utf-8"?>
<!-- Generator: Adobe Illustrator 21.0.2, SVG Export Plug-In . SVG Version: 6.00 Build 0)  -->
<svg version="1.1" id="Layer_1" xmlns="http://www.w3.org/2000/svg" xmlns:xlink="http://www.w3.org/1999/xlink" x="0px" y="0px"
	 viewBox="0 0 74 74" style="enable-background:new 0 0 74 74;" xml:space="preserve">
<style type="text/css">
	.st0{fill:none;stroke:#006FAF;stroke-width:2;stroke-miterlimit:10;}
	.st1{fill:#006FAF;}
</style>
<circle class="st0" cx="37" cy="37" r="36"/>
<g>
	<path class="st1" d="M28.6,59.5c-0.4,0-0.8,0-1.1,0l-0.1-0.1c-0.6,0-1.2-0.2-1.8-0.5c-0.5-0.3-1.1-0.5-1.5-1
		c-1.1-1.2-1.4-2.7-0.8-4.2c0.7-1.8,2.1-2.8,3.9-3.3c0.3-0.1,0.7-0.2,1.1-0.3c-0.1-0.1-0.2-0.3-0.2-0.4c-0.8-1.1-1.3-2.3-1.7-3.5
		c-0.7-2.1-0.9-4.2-0.9-6.4c0-0.6,0-1.1,0-1.7c0-0.1-0.1-0.3-0.2-0.4c-1-0.8-1.9-1.6-2.6-2.7c-0.7-1.1-0.8-2.3,0.2-3.4
		c0.7-0.8,1.6-1.3,2.5-1.9c1.7-1,2.9-2.4,3.4-4.3c0.1-0.2,0.1-0.5,0-0.7c-0.5-1.1-0.5-2.3-0.2-3.5c0.1-0.5,0.2-1.1,0.4-1.6
		c-0.2-0.1-0.3-0.1-0.5-0.2c-0.7-0.2-1.3-0.6-1.7-1.3c-0.3-0.6-0.9-1-1.4-1.4c0.6,0.2,1.2,0.7,1.5,1.3c0.4,0.7,1,1,1.7,1.3
		c0.3,0.1,0.6,0.2,0.9,0.3c0.1,0,0.2,0.1,0.3,0.1v0.1c-0.2,0-0.4-0.1-0.7-0.1c-0.1,0.5-0.2,0.9-0.4,1.4c-0.3,0.9-0.3,1.8-0.1,2.7
		c0.4,1.5,1.3,2.6,2.7,3.2c1.1,0.5,2.3,0.8,3.6,0.9c1.7,0.1,3.3-0.1,4.8-1c1.1-0.7,2.2-1.5,3.2-2.3c0.4-0.3,0.8-0.6,0.5-1.3
		c-0.3-0.7-0.4-1.5-0.5-2.2c-0.1-0.4-0.3-0.6-0.6-0.7c-0.1,0-0.2-0.1-0.3-0.1c-0.4-0.1-0.5-0.4-0.6-0.7c-0.4-2.6-2-4.2-4.5-5
		c-0.1,0-0.2-0.1-0.3-0.1l0,0c0.7,0.2,1.4,0.4,2.2,0.7c0.7-0.6,1.5-0.7,2.5-0.4c0.5,0.2,1,0.4,1.5,0.5c0.3,0.1,0.7,0.2,1.1,0.3
		c-0.3,0-0.6,0-0.9-0.1c-0.6-0.2-1.2-0.4-1.8-0.6c-0.8-0.3-1.6-0.2-2.3,0.4c1.1,0.7,1.8,1.6,2.3,2.6c0.5-0.2,0.8-0.4,1.1-0.9
		c0.3-0.4,0.6-0.8,1-1.2c0.1-0.2,0.4-0.3,0.5-0.4c0.1,0,0.1,0,0.1,0c-0.5,0.5-1,1-1.5,1.6c-0.3,0.4-0.6,0.7-1,0.8
		c-0.1,0-0.2,0.1-0.2,0.1c0.1,0.4,0.3,0.8,0.3,1.2c0.1,0.4,0.3,0.7,0.7,0.9c1.6,0.8,2.4,2.7,1,4.4c-0.1,0.1-0.1,0.2-0.2,0.3
		c0.1,0,0.2,0,0.2,0c1.5-0.3,3.1-0.5,4.6-0.3c0.6,0.1,1.3,0.1,1.9,0.3c1.1,0.4,1.9,1.1,2.1,2.3c0,0.2,0,0.4,0,0.6
		c-0.1,0.2-0.1,0.4-0.2,0.6c-0.4,0.9-1.1,1.4-1.9,1.7c-0.5,0.2-0.7,0.8-0.5,1.3c0.3,0.9,0.4,1.8,0.1,2.7c0,0.1,0,0.3,0.1,0.4
		c0.3,0.5,0.4,1.1,0.2,1.7c-0.4,1-1.4,1.5-2.5,1.4c-0.9,3.6-2.6,6.8-4.3,10.1h0.1c0.9-0.3,1.8-0.4,2.7-0.3c1.1,0.1,2.2,0.5,3,1.3
		c1,1,1.1,1.9,0.4,3c-0.8,1.4-2.2,2.1-3.7,2.5c-1.4,0.4-2.9,0.5-4.3,0.3c-1.7-0.3-3.3-0.8-4.5-2.1c-1.1-1.1-1.2-2.1-0.1-3.3
		c0.2-0.2,0.4-0.3,0.5-0.4c0.2-0.2,0.4-0.8,0.3-0.9c-0.2-0.2-0.4-0.5-0.6-0.7c-0.1,0-0.1,0-0.2,0.1c-1,0.6-1.9,1.5-2.6,2.5
		c-0.4,0.6-0.5,1.1-0.2,1.8s0.2,1.5,0.4,2.3c0.2,0.9,0,1.8-0.5,2.6c-0.9,1.4-2.2,2.4-3.8,2.8C29.3,59.4,29,59.4,28.6,59.5z
		 M28.9,25.7c-0.7,1.8-1.8,3.4-3.5,4.5c-0.8,0.5-1.5,1.1-2.2,1.6c-1,0.8-1.1,2-0.4,3.1c0.7,1,1.5,1.8,2.5,2.5
		c0.2,0.2,0.6,0.3,0.8,0.4c1,0.2,2.2-0.3,2.6-1.2c0.3-0.7,0.3-2-0.9-2.7c-0.5-0.3-1.1-0.6-1.6-0.9c0.1,0,0.2,0,0.3,0.1
		c0.4,0.2,0.8,0.1,1.2,0c1.7-0.3,3.1-1.2,3.9-2.8c0-0.1,0.1-0.1,0.1-0.2c0-0.5-0.2-0.9-0.6-1.2c-0.5-0.4-0.7-0.9-0.6-1.5
		c0-0.1-0.1-0.2-0.1-0.3C29.8,26.6,29.3,26.1,28.9,25.7z M29,34.4c1,0.8,1.5,1.7,1.1,2.9c-0.4,1.3-1.4,1.7-2.7,1.8
		c0.3,1.7,1.4,2.6,3,2.8c-0.2,0-0.4,0-0.6,0c0.1,0.2,0.2,0.3,0.3,0.5c-0.2,0-0.3-0.1-0.5-0.2c-0.1-0.1-0.1-0.3-0.2-0.3
		c-0.7-0.2-1.2-0.6-1.7-1.1c-0.1,1,0.4,2,1.4,2.2c0.9,0.3,1.9,0.3,2.8,0c0.8-0.3,1.3-0.8,1.5-1.6c0.1-0.2,0.2-0.4,0.4-0.7
		c0.7-0.8,1.1-1.7,0.9-2.9c-0.1-0.7-0.3-1.4-0.8-1.9c0,0,0.1,0,0.1-0.1c0.3,0.4,0.6,0.8,0.9,1.3c-0.2-1.3-0.8-2.2-1.9-2.8
		C31.7,33.7,30.3,33.7,29,34.4z M49.5,30.4c0.5-0.3,1-0.6,1.4-0.9c0.9-0.7,1.1-1.7,0.6-2.6c-0.4-0.8-1.1-1.4-2-1.6
		c-2.4-0.5-4.7-0.3-7,0.3c-0.2,0.1-0.4,0.2-0.7,0.3c0.1,0.1,0.2,0.2,0.3,0.2c0.6,0.3,1.3,0.6,1.9,0.9c0.1,0,0.2,0,0.3,0
		c0.7-0.4,1.3-0.5,1.9,0.1c0.6-0.5,1.2-0.9,2-1c-0.5,0.3-0.9,0.5-1.3,0.8c-0.4,0.3-0.7,0.7-0.9,1.1c0.7,0.2,1.4,0.3,2.1,0.5
		C48.8,28.9,49.3,29.5,49.5,30.4z M27.6,33.4c0.4,0.3,0.7,0.5,1,0.7c0.2,0.1,0.3,0.1,0.5,0c0.9-0.5,1.8-0.6,2.8-0.4
		c1,0.2,1.8,0.6,2.4,1.3c0.3-0.3,0.6-0.5,0.9-0.8c0.4-0.5,0.8-1,1.5-1.3c0.1,0,0.5-1.4,0.4-1.6c-0.5-0.7-0.9-1.5-1.4-2.2
		c-0.7,0.4-1.3,0.9-2,1.1c-0.6,0.2-1.3,0.3-2,0.4c-0.2,0.3-0.4,0.7-0.6,1.1c-0.3,0.6-0.8,1.1-1.4,1.4c-0.3,0.1-0.7,0.2-1,0.1
		C28.2,33.2,27.9,33.3,27.6,33.4z M45.9,29.2c1.4,2.7,1.5,5.5,1.2,8.4c0.9,0.1,1.8-0.3,2.2-1c0.3-0.6,0.3-1.2-0.1-1.6
		c-0.3,0.6-0.6,1.1-0.9,1.7c0-0.2,0-0.3,0.1-0.5c-0.2,0.1-0.2,0.2-0.3,0.2c-0.1,0.1-0.2,0.1-0.3,0.2c1.3-1.1,1.9-2.5,1.5-4.3
		C49,30.5,47,29.3,45.9,29.2z M39,29.9c0.1,0.2,0.2,0.3,0.2,0.5c0.2,0.3,0.3,0.7,0.5,0.8c0.3,0.1,0.7-0.1,1-0.1
		c0.8-0.2,1.6-0.4,2.5-0.6c-0.5-0.7-0.9-1.4-1.5-1.9C40.9,29.9,40,30.4,39,29.9z M28.9,34.6c0.5,1,0.4,1.9-0.4,2.8
		c-0.8,0.8-1.7,0.9-2.8,0.6c0.7,0.8,1.8,1.1,2.7,0.7c0.9-0.3,1.5-1.1,1.6-2C30,35.8,29.6,35.1,28.9,34.6z M45.6,28.6
		c0,0,0,0.1-0.1,0.1c0.2,0.1,0.3,0.2,0.5,0.3c0.5,0.2,1,0.3,1.4,0.6c0.6,0.4,1.1,0.9,1.6,1.3c0.2-0.5,0.1-1.1-0.4-1.6
		C47.8,28.6,46.8,28.4,45.6,28.6z M49.1,50.1c-0.2-1.3-2.2-2.3-4-2.2c0.3,0.2,0.6,0.3,1,0.5c0.8,0.4,1.5,0.9,2.3,1.3
		C48.5,49.8,48.8,49.9,49.1,50.1z M45.7,29.4c-0.6-0.9-1.3-1.7-2.3-2.1c0.6,0.8,1.2,1.5,1.9,2.3C45.4,29.5,45.5,29.5,45.7,29.4z
		 M26.5,53c0.4,0.4,0.8,0.4,1.1,0.3c0.5-0.2,1-0.3,1.6-0.2V53C28.3,53,27.5,53,26.5,53z M35.2,28.8c-0.3-0.5-0.7-0.4-0.9-0.4
		C34.5,28.3,34.6,29.1,35.2,28.8z"/>
	<path class="st1" d="M35.6,20.7c0.1,0.1,0.2,0.2,0.3,0.4c-0.6,0.3-1.3,0.2-1.9,0.2c0.2,0.2,0.4,0.3,0.5,0.5c0.5,0.6,0.8,1.2,0.8,2
		c0,0.2,0.1,0.3,0.3,0.4c0.5,0.1,1.1,0.1,1.6,0.2c0-0.7-0.1-1.3-0.1-1.8c-0.1-0.2-0.2-0.3-0.2-0.4c-0.1-0.6,0.1-1,0.6-1.3
		c0.2-0.1,0.4-0.1,0.6-0.2c0.1,0,0.2,0,0.3,0c0.2,0,0.3-0.1,0.5-0.2c0.3,0,0.5-0.1,0.6-0.5c0.2-0.5,0.8-0.5,1.1-0.1
		c0.2,0.2,0.4,0.3,0.6,0.5c-0.3,0.1-0.6,0.3-0.9,0.4c0.8,0.7,1.1,1.6,1,2.7c0,0.3-0.1,0.4-0.4,0.6c-0.4,0.3-0.8,0.6-1.1,1
		c-0.2,0.2-0.4,0.3-0.6,0.3c-1.4,0.1-2.7,0-3.8-1c0,0-0.1,0-0.1-0.1c-0.3,1.4-1.1,2.3-2.6,2.5c1.2-0.3,2-1,2.3-2.2
		c-0.1-0.1-0.2-0.2-0.2-0.3c-0.2-0.9-0.6-1.6-1.2-2.2c-0.1-0.1-0.2-0.4-0.2-0.5c-0.1-0.2-0.2-0.4-0.3-0.6c0.3-0.2,0.6-0.4,1-0.6
		C34.5,19.9,35.4,20.2,35.6,20.7c-0.2-0.1-0.5-0.3-0.7-0.4v0.1c0,0.1,0,0.1,0.1,0.2c-0.1,0-0.3,0.1-0.4,0.1v0.1
		c0.1,0,0.3,0.1,0.4,0.1c0,0.1,0,0.1-0.1,0.2c0.3,0,0.6-0.1,0.8-0.1C35.6,20.9,35.6,20.8,35.6,20.7z M38.1,24.3v0.1
		c0.9-0.2,1.9-0.4,2.8-0.6c0.1,0,0.2-0.2,0.3-0.3c0.1-0.9-0.1-1.7-0.7-2.4c-0.7-0.8-1.9-0.7-2.6,0.2c-0.5,0.7-0.7,1.5-0.5,2.4
		C37.4,24.3,37.4,24.3,38.1,24.3z M40.9,20.3L40.9,20.3c-0.3-0.2-0.4-0.5-0.6-0.7c0,0,0,0-0.1,0.1c0.1,0.1,0.1,0.2,0.2,0.3
		c-0.1,0.1-0.1,0.1-0.2,0.1c0.1,0.1,0.1,0.3,0.2,0.4C40.6,20.4,40.7,20.4,40.9,20.3z"/>
	<path class="st1" d="M36.6,14.7c-0.5,0-1.1-0.1-1.6-0.1c-1.7,0-3.1,0.7-4.3,1.8c-0.1,0.1-0.1,0.1-0.1,0.2c0.2,0.3,0.3,0.5,0.5,0.8
		c-0.1,0-0.1,0-0.1,0c-0.6-1.1-1.9-1.6-3.4-0.9c-0.7,0.3-1.5,0.5-2.1,0.4c0.5-0.1,0.8-0.2,1.2-0.3c0.3-0.1,0.6-0.2,0.9-0.3
		c0.9-0.5,1.8-0.4,2.7,0.1c0.1,0,0.1,0.1,0.2,0.1c0.8-0.8,1.7-1.4,2.8-1.7C34.3,14.5,35.4,14.4,36.6,14.7
		C36.6,14.6,36.6,14.7,36.6,14.7L36.6,14.7z"/>
	<path class="st1" d="M35.5,26.8c0.9,0,1.7,0,2.6,0c0.9-0.1,1.7-0.4,2.3-1l0.1,0.1c-0.1,0.1-0.2,0.3-0.3,0.4
		C39.6,26.7,39,27,38.3,27c-0.8,0.1-1.6,0-2.4-0.1C35.8,27,35.7,26.9,35.5,26.8L35.5,26.8z"/>
	<path class="st1" d="M26.5,17.3c1,0.1,2-0.5,3,0.1c-0.3,0-0.5,0-0.8,0.2c-0.2,0.2-0.5,0.1-0.8,0.1c0,0-0.1-0.1-0.1-0.3
		c-0.4,0-0.8,0-1.3,0C26.5,17.4,26.5,17.4,26.5,17.3z"/>
	<path class="st1" d="M36,20c-1.6-1-2-1-3.2,0.1c0.2-0.5,0.7-0.9,1.4-1S35.6,19.4,36,20z"/>
	<path class="st1" d="M39,19.7c0.1-0.4,0.5-0.8,1-0.8c0.5-0.1,1,0.2,1.2,0.7c-0.3-0.3-0.7-0.6-1.2-0.5C39.6,19.2,39.3,19.5,39,19.7z
		"/>
	<path class="st1" d="M28.6,36.1c-0.1-0.2-0.1-0.4-0.2-0.5c0-0.1,0.1-0.1,0.1-0.2c0.1,0.1,0.2,0.1,0.2,0.2c0,0.2,0,0.4,0,0.5H28.6z"
		/>
	<path class="st1" d="M30.9,36.9c0.6,0,1.2,0.1,1.6,0.6C31.9,37.3,31.4,37.1,30.9,36.9z"/>
	<path class="st1" d="M30.7,35.8c0.5-0.2,1.3-0.1,1.6,0.2C31.7,36,31.2,35.9,30.7,35.8z"/>
	<path class="st1" d="M31.6,39.1c-0.4-0.3-0.7-0.6-1.2-1C31,38.3,31.4,38.6,31.6,39.1z"/>
	<path class="st1" d="M41.4,16.3c0.1,0,0.1,0.1,0.3,0.1c-0.5,0.3-0.8,0.1-1.2,0c0-0.1,0.1-0.1,0.1-0.2c-0.2,0-0.4,0-0.6,0v-0.1
		c0.9-0.3,1.9,0.2,2.8,0.1c0,0.1,0,0.1,0,0.2c-0.2,0-0.4,0-0.6,0C41.9,16.3,41.7,16.3,41.4,16.3C41.5,16.3,41.5,16.3,41.4,16.3z"/>
	<path class="st1" d="M40.5,22.4c-0.1,0.2-0.2,0.3-0.3,0.5c-0.1-0.2-0.2-0.3-0.2-0.5s0.1-0.3,0.2-0.5C40.3,22.1,40.4,22.2,40.5,22.4
		z"/>
	<path class="st1" d="M38.5,22c0.2,0.5,0.2,0.9,0,1.3C38.2,23,38.2,22.4,38.5,22z"/>
</g>
</svg>
