<?xml version="1.0" encoding="utf-8"?>
<!-- Generator: Adobe Illustrator 21.0.2, SVG Export Plug-In . SVG Version: 6.00 Build 0)  -->
<svg version="1.1" id="Layer_1" xmlns="http://www.w3.org/2000/svg" xmlns:xlink="http://www.w3.org/1999/xlink" x="0px" y="0px"
	 viewBox="0 0 74 74" style="enable-background:new 0 0 74 74;" xml:space="preserve">
<style type="text/css">
	.st0{fill:none;stroke:#006FAF;stroke-width:2;stroke-miterlimit:10;}
	.st1{fill:#006FAF;}
</style>
<title>plone</title>
<circle class="st0" cx="37" cy="37" r="36"/>
<g>
	<path class="st1" d="M37,52.1c-8.3,0-15.1-6.8-15.1-15.1S28.7,21.9,37,21.9S52.1,28.7,52.1,37v0C52.1,45.3,45.3,52.1,37,52.1z
		 M37,23.7c-7.3,0-13.3,5.9-13.3,13.3S29.7,50.3,37,50.3S50.3,44.3,50.3,37l0,0C50.3,29.7,44.3,23.7,37,23.7z"/>
	<circle class="st1" cx="34.5" cy="30.7" r="3"/>
	<circle class="st1" cx="40.9" cy="37.1" r="3"/>
	<circle class="st1" cx="34.5" cy="43.5" r="3"/>
</g>
</svg>
