<?xml version="1.0" encoding="utf-8"?>
<!-- Generator: Adobe Illustrator 21.0.2, SVG Export Plug-In . SVG Version: 6.00 Build 0)  -->
<svg version="1.1" id="Layer_1" xmlns="http://www.w3.org/2000/svg" xmlns:xlink="http://www.w3.org/1999/xlink" x="0px" y="0px"
	 viewBox="0 0 74 74" style="enable-background:new 0 0 74 74;" xml:space="preserve">
<style type="text/css">
	.st0{fill:none;stroke:#006FAF;stroke-width:2;stroke-miterlimit:10;}
	.st1{fill:#006FAF;}
</style>
<title>os-patch-management</title>
<g id="text">
</g>
<g>
	<circle class="st0" cx="37" cy="37" r="36"/>
	<g>
		<path class="st1" d="M20.5,38.1v3.5H19v-9.2h3.6c1,0,1.8,0.3,2.4,0.8s0.9,1.2,0.9,2.1c0,0.9-0.3,1.6-0.9,2.1s-1.4,0.8-2.4,0.8
			L20.5,38.1L20.5,38.1z M20.5,36.9h2.1c0.6,0,1-0.2,1.3-0.5s0.4-0.7,0.4-1.2s-0.1-0.9-0.4-1.2s-0.7-0.5-1.3-0.5h-2.1V36.9z"/>
		<path class="st1" d="M34.5,37.8c0,1.1-0.4,2.1-1.1,2.8c-0.7,0.7-1.6,1.1-2.7,1.1s-2-0.4-2.7-1.1c-0.7-0.7-1-1.7-1-2.8v-1.7
			c0-1.1,0.3-2.1,1-2.8s1.6-1.1,2.7-1.1s2,0.4,2.7,1.1s1.1,1.7,1.1,2.8V37.8z M33,36.2c0-0.8-0.2-1.4-0.6-1.9
			c-0.4-0.5-1-0.7-1.7-0.7s-1.2,0.2-1.6,0.7s-0.6,1.1-0.6,1.9v1.7c0,0.8,0.2,1.4,0.6,1.9s0.9,0.7,1.6,0.7s1.3-0.2,1.7-0.7
			s0.6-1.1,0.6-1.9V36.2z"/>
		<path class="st1" d="M41.2,39.2c0-0.4-0.1-0.7-0.4-0.9s-0.8-0.5-1.5-0.7c-1-0.3-1.8-0.6-2.4-1.1c-0.6-0.4-0.8-1-0.8-1.7
			s0.3-1.4,0.9-1.8c0.6-0.5,1.4-0.7,2.4-0.7s1.8,0.3,2.4,0.8s0.9,1.2,0.9,2l0,0h-1.5c0-0.5-0.2-0.9-0.5-1.1
			c-0.3-0.3-0.8-0.4-1.4-0.4c-0.6,0-1,0.1-1.3,0.4c-0.3,0.2-0.5,0.6-0.5,0.9c0,0.3,0.2,0.6,0.5,0.9c0.3,0.2,0.9,0.4,1.6,0.7
			c1,0.3,1.7,0.6,2.3,1.1c0.5,0.5,0.8,1.1,0.8,1.8c0,0.8-0.3,1.4-0.9,1.8c-0.6,0.5-1.4,0.7-2.4,0.7s-1.8-0.3-2.5-0.8
			s-1.1-1.2-1.1-2.1l0,0h1.5c0,0.6,0.2,1,0.6,1.3c0.4,0.3,0.9,0.4,1.5,0.4s1-0.1,1.3-0.3C41,39.9,41.2,39.6,41.2,39.2z"/>
		<path class="st1" d="M45.9,41.6h-1.5v-9.2h1.5V41.6z"/>
		<path class="st1" d="M51.1,35.8l1.9-3.4h1.8L52.1,37l2.9,4.6h-1.8l-2-3.5l-2,3.5h-1.8l2.9-4.6l-2.8-4.6h1.8L51.1,35.8z"/>
	</g>
</g>
</svg>
