<?xml version="1.0" encoding="utf-8"?>
<!-- Generator: Adobe Illustrator 21.0.2, SVG Export Plug-In . SVG Version: 6.00 Build 0)  -->
<svg version="1.1" id="Layer_1" xmlns="http://www.w3.org/2000/svg" xmlns:xlink="http://www.w3.org/1999/xlink" x="0px" y="0px"
	 viewBox="0 0 74 74" style="enable-background:new 0 0 74 74;" xml:space="preserve">
<style type="text/css">
	.st0{fill:none;stroke:#006FAF;stroke-width:2;stroke-miterlimit:10;}
	.st1{fill:#006FAF;}
</style>
<title>Cloud &amp;amp; Infrastructure Services</title>
<circle class="st0" cx="37" cy="37" r="36"/>
<g>
	<path class="st1" d="M34.6,32.5L34.6,32.5c-0.4,0-0.7-0.2-0.9-0.5c-0.1-0.1-0.2-0.3-0.2-0.4s0-0.2,0.1-0.2c0.2-0.1,0.5-0.2,0.9-0.1
		c0.5,0.1,1,0.3,0.9,0.6C35.5,32.1,35,32.5,34.6,32.5z M33.9,31.6c0,0.1,0.3,0.4,0.6,0.5c0.3,0,0.6-0.2,0.6-0.3c0,0-0.2-0.2-0.6-0.2
		C34.2,31.5,34,31.6,33.9,31.6z"/>
	<path class="st1" d="M44.7,32.2c-0.5,0-0.9-0.4-0.9-0.6c0-0.3,0.4-0.6,0.9-0.6c0.5-0.1,1,0,1.1,0.4l0,0c0,0.3-0.4,0.8-0.9,0.9
		C44.8,32.2,44.7,32.2,44.7,32.2z M45,31.2c-0.1,0-0.2,0-0.2,0c-0.4,0.1-0.6,0.2-0.6,0.2c0,0.1,0.3,0.3,0.6,0.3s0.6-0.4,0.6-0.5
		C45.3,31.3,45.2,31.2,45,31.2z"/>
	<path class="st1" d="M40.1,52.5c-2.3,0-3-1.8-3.3-2.5c-0.4-1.1-0.5-4.7-0.5-6.4c-0.8,0.6-1.7,0.9-2.8,0.9c-0.5,0-1-0.1-1.5-0.2
		c-0.7-0.2-1.5-0.6-1.5-1.3c0-0.9,1.2-1.1,1.6-1.2c1.3-0.3,1.4-0.4,1.8-0.9c0.1-0.1,0.1-0.1,0.2-0.2c-0.5,0-1-0.2-1.5-0.4
		c-0.4,0.4-1.4,1.5-2.4,2.7c-0.6,0.7-1.2,1.1-1.9,1.1c-0.2,0-0.4,0-0.6-0.1c-3.5-1.2-5.6-12.8-5.7-14.3c-0.2-3.2,0.7-5.4,2.5-6.7
		c1.1-0.8,2.5-1.1,4.1-1.1c2.3,0,4.5,0.7,5.2,1c1.1-0.7,2.3-1.1,3.8-1.1h0.2c0.8,0,1.6,0.1,2.3,0.3l0,0c0.3-0.1,1.9-0.6,3.9-0.6
		c2.1,0,5.1,0.6,7.2,3.3c1.7,2.1-0.2,9.6-3.8,15.2c0.2,0.1,0.5,0.2,1.1,0.2c0.5,0,1.2-0.1,1.9-0.2c0.2,0,0.4-0.1,0.6-0.1
		c0.6,0,0.9,0.3,0.9,0.6c0.4,1.1-1.9,2.2-2.1,2.3c-0.7,0.3-1.9,0.6-3,0.6c-0.4,0-0.8,0-1.2-0.1c-0.2,1.6-0.5,4.3-0.7,5.4
		c-0.4,2.3-1.5,3.3-3.8,3.8C40.8,52.5,40.5,52.5,40.1,52.5z M37.6,41.5v0.2c-0.1,3.7,0,7.2,0.3,7.9c0.4,0.9,0.9,1.8,2.2,1.8
		c0.3,0,0.5,0,0.8-0.1c1.9-0.4,2.5-1.1,2.8-2.9c0.2-1.4,0.7-5.5,0.8-6.3c-0.1-1.6,0.7-2.1,1.3-2.3l-0.1-0.1c-0.3-0.3-0.7-0.9-1-1.6
		c0-0.1-0.2-0.4-0.4-0.7c-1-1.7-3-5.3-1.6-7.2c0.5-0.7,1.4-1.1,2.7-1.1c0.2,0,0.4,0,0.6,0c-0.5-1.2-2.7-6-8.3-6.1h-0.2
		c-1.6,0-2.9,0.5-3.9,1.5c-1.5,1.5-2,3.9-2.2,5.4c0.7-0.4,1.6-0.6,2.3-0.7c0.2,0,0.3,0,0.4,0c1.4,0,2.3,0.7,2.6,2.1
		c0.8,3.8,0.1,5.5-0.5,6.7c-0.1,0.2-0.2,0.4-0.3,0.6l0.1,0.2c-0.1,0.3-0.2,0.7-0.3,1h0.1c0.3,0,0.5,0.1,0.7,0.2
		c0.5,0.2,0.9,0.7,1.1,1.3C37.5,41.3,37.5,41.4,37.6,41.5L37.6,41.5z M32.1,43.1c0.1,0,0.2,0.1,0.3,0.1c0.4,0.1,0.8,0.2,1.2,0.2
		c1.1,0,2.1-0.5,2.7-1.4c0.1-0.1,0.1-0.3,0-0.4c-0.1-0.2-0.2-0.5-0.4-0.5c-0.1,0-0.2-0.1-0.2-0.1s-0.1,0-0.3,0.2s-0.3,0.4-0.5,0.6
		c-0.6,0.7-0.9,1-2.5,1.3C32.3,43.1,32.2,43.1,32.1,43.1z M28.6,23.1c-1.4,0-2.6,0.3-3.4,0.9c-1.4,1-2.1,2.9-1.9,5.7
		c0.1,2.4,2.5,12.5,4.9,13.3c0.1,0,0.1,0,0.2,0c0.3,0,0.7-0.2,1-0.7c1-1.2,1.9-2.2,2.3-2.7c-0.1-0.1-0.1-0.1-0.2-0.2
		c-1-1.1-1.5-2.6-1.3-4.1c0.2-1.6,0.1-3,0.1-3.7c0-0.2,0-0.4,0-0.5c0-0.2-0.1-4.7,2.5-7.4C31.8,23.5,30.2,23.1,28.6,23.1z M45.8,42
		c0.1,0,0.4,0.1,1,0.1c0.7,0,1.8-0.1,2.5-0.5c0.3-0.1,0.6-0.3,0.8-0.5c-0.6,0.1-1.1,0.2-1.6,0.2c-0.8,0-1.4-0.1-1.9-0.4
		c0,0-0.1,0-0.1-0.1h-0.1C46.1,41,45.8,41.1,45.8,42z M31.5,31.5c0,0.8,0.1,2.3-0.1,4c-0.2,1.2,0.2,2.3,1,3.1c0.6,0.6,1.3,1,2.1,1
		c0.1-0.4,0.2-0.8,0.4-1.2l0.1-0.2c0.1-0.2,0.2-0.5,0.3-0.7c0.5-1.1,1.2-2.6,0.4-6c-0.1-0.6-0.4-1-1-1.1c-0.1,0-0.3,0-0.4,0
		c-1.1,0-2.4,0.7-2.7,1L31.5,31.5z M42,22.8c3.7,1.9,5.3,5.8,5.4,6.7c0,0.1,0,0.2,0,0.3c0,0.6-0.1,1.2-0.1,1.7
		c-0.1,0.4-0.1,0.9-0.1,1.4s0,1,0.1,1.5c0.1,1.1,0.3,2.5-0.3,3.9c3.3-5.4,4.4-11.6,3.4-12.9c-1.9-2.4-4.5-2.9-6.3-2.9
		C43.2,22.7,42.6,22.7,42,22.8z M45.4,30.2c-0.9,0-1.4,0.2-1.7,0.6c-0.9,1.3,1,4.7,1.7,5.9c0.2,0.4,0.4,0.6,0.4,0.8
		c0,0.1,0.1,0.1,0.1,0.2c0.4-1,0.3-2.1,0.1-3.1c-0.1-0.6-0.1-1.2-0.1-1.7c0-0.6,0.1-1,0.2-1.5c0.1-0.4,0.1-0.8,0.1-1.2
		C45.9,30.2,45.7,30.2,45.4,30.2z"/>
	<path class="st1" d="M51.8,40.5c-0.1-0.4-0.6-0.5-1.3-0.4c-2.3,0.5-3.1,0.1-3.4-0.1c3.6-5.4,5.6-13,3.9-15.1
		c-3.8-4.8-10.1-2.9-11-2.6l0,0l0,0h-0.1c-0.7-0.2-1.5-0.3-2.3-0.3c-1.5,0-2.8,0.3-3.9,1.1c-1-0.4-6.1-2.1-9.2,0.1
		c-1.7,1.2-2.5,3.4-2.4,6.5c0.1,1.5,2.2,13.1,5.6,14.2C27.9,44,28,44,28.3,44c0.5,0,1.1-0.2,1.8-1c1.1-1.4,2.2-2.5,2.5-2.9
		c0.6,0.3,1.2,0.5,1.9,0.5v0.1c-0.1,0.2-0.2,0.3-0.3,0.4c-0.4,0.6-0.5,0.7-2,1c-0.6,0.1-1.4,0.4-1.4,1s0.8,1,1.4,1.1
		c0.5,0.1,1,0.2,1.4,0.2c1.2,0,2.2-0.4,3-1.2c0,2.9,0.1,5.8,0.4,6.7c0.3,0.7,1,2.4,3.1,2.4c0.3,0,0.7,0,1-0.1
		c2.3-0.5,3.2-1.5,3.6-3.7c0.2-1.2,0.6-4.1,0.7-5.6c0.4,0.1,0.8,0.2,1.3,0.2c1,0,2.2-0.2,2.9-0.6C50.6,42.2,52,41.2,51.8,40.5z
		 M46.4,30.1c0,0.5-0.1,0.9-0.1,1.3c-0.1,0.5-0.1,0.9-0.2,1.5c0,0.6,0,1.1,0.1,1.7c0.1,1.2,0.3,2.4-0.3,3.6
		c-0.1-0.2-0.2-0.4-0.3-0.6c-0.1-0.2-0.2-0.4-0.4-0.8c-0.8-1.4-2.7-4.8-1.7-6.1C44,30.1,44.9,29.9,46.4,30.1z M50.4,25.4
		c1.1,1.5-0.1,8.1-3.8,13.8c0-0.1-0.1-0.1-0.2-0.2c0,0,0-0.1-0.1-0.1c0.9-1.5,0.8-3.1,0.6-4.4c0.1-0.5,0-1,0-1.5s0.1-1,0.2-1.4
		c0.1-0.5,0.2-1.1,0.1-1.7c0-0.1,0-0.1,0-0.2c-0.1-0.7-1.7-5.1-5.9-6.8C43.3,22.3,47.7,21.9,50.4,25.4z M29.5,42.4
		c-0.8,0.9-1.3,0.7-1.5,0.7c-2.6-0.9-4.9-11.4-5-13.5c-0.1-2.8,0.5-4.8,2-5.8c2.5-1.7,6.5-0.7,8.1-0.1L33,23.8
		c-2.6,2.6-2.5,7.1-2.5,7.3l0,0c0,0.1,0,0.3,0,0.5c0,0.8,0.1,2.2-0.1,3.8c-0.2,1.5,0.2,2.9,1.2,3.9c0.1,0.1,0.2,0.2,0.4,0.3
		C31.6,40.1,30.6,41.1,29.5,42.4z M32.2,38.7c-0.8-0.9-1.2-2-1-3.3c0.2-1.7,0.1-3.1,0.1-3.9c0-0.1,0-0.2,0-0.3
		c0.3-0.3,2.2-1.3,3.4-1c0.6,0.1,1,0.5,1.1,1.2c0.8,3.5,0.1,4.9-0.4,6.1c-0.1,0.2-0.2,0.5-0.3,0.7L35,38.4c-0.2,0.5-0.3,0.9-0.4,1.3
		l0,0C33.7,39.8,32.8,39.4,32.2,38.7z M32.4,43.4c-0.3-0.1-0.6-0.2-0.7-0.3c0.1-0.1,0.3-0.1,0.7-0.2c1.6-0.3,1.9-0.6,2.4-1.3
		c0.1-0.2,0.3-0.3,0.5-0.6c0.3-0.4,0.5-0.3,0.7-0.2s0.4,0.4,0.5,0.6c0,0.1,0.1,0.4-0.1,0.6C35.3,43.7,33.6,43.7,32.4,43.4z M44,48.4
		c-0.3,1.9-1.1,2.6-3,3c-2.1,0.4-2.8-0.6-3.3-1.8c-0.3-0.8-0.5-4.2-0.4-8l0,0c0-0.1,0-0.3-0.1-0.4c-0.2-0.5-0.5-1-1-1.2
		c-0.2-0.1-0.6-0.2-1-0.1c0.1-0.4,0.2-0.8,0.4-1.3l0.1-0.2c0.1-0.2,0.2-0.4,0.3-0.6c0.5-1.2,1.3-2.9,0.5-6.6
		c-0.3-1.4-1.3-2.1-2.8-1.9c-0.8,0.1-1.8,0.4-2.5,0.9c0.1-1.4,0.5-4.1,2.2-5.9c1.1-1.1,2.5-1.6,4.2-1.6c5.8,0.1,8.1,5,8.6,6.5
		c-1.7-0.2-2.9,0.1-3.5,1c-1.3,1.8,0.7,5.3,1.6,7c0.2,0.3,0.3,0.6,0.4,0.7c0.3,0.7,0.7,1.2,1,1.6c0.1,0.1,0.2,0.3,0.3,0.4
		c-0.5,0.1-1.5,0.4-1.4,2.2C44.7,42.9,44.2,47,44,48.4z M49.4,41.8c-1.3,0.6-3.6,0.6-3.8,0.3c-0.1-1.1,0.4-1.3,0.8-1.4
		c0.1,0,0.1,0,0.2-0.1l0.1,0.1c0.7,0.5,2,0.5,3.9,0.1c0.1,0,0.1,0,0.2,0C50.6,41.1,50.1,41.5,49.4,41.8z"/>
</g>
</svg>
