<svg id="Layer_1" data-name="Layer 1" xmlns="http://www.w3.org/2000/svg" viewBox="0 0 74 74"><defs><style>.cls-1{fill:none;stroke:#006faf;stroke-miterlimit:10;stroke-width:2px;}.cls-2{fill:#006faf;}</style></defs><title>power_pivot_and_excel_data_modeling</title><circle class="cls-1" cx="37" cy="37" r="36"/><path class="cls-2" d="M54.63,20.47H18.54a1.46,1.46,0,0,0-1.46,1.46V53.85A1.45,1.45,0,0,0,17.71,55v.23h.52a1.44,1.44,0,0,0,.31,0H54.63a1.44,1.44,0,0,0,.31,0H55v0a1.46,1.46,0,0,0,1.08-1.4V21.93A1.46,1.46,0,0,0,54.63,20.47ZM22.84,54H18.43a.2.2,0,0,1-.1-.17V50.07h4.51Zm0-5.2H18.33v-4.1h4.51Zm0-5.35H18.33V39.14h4.51Zm0-5.58H18.33V33.21h4.51Zm0-5.93H18.33V27.38h4.51ZM33.36,54H24.09v-4h9.26v4Zm0-5.2H24.09v-4.1h9.26v4.1Zm0-5.35H24.09V39.14h9.26v4.33Zm0-5.58H24.09V33.21h9.26v4.68Zm0-5.93H24.09V27.38h9.26V32Zm0-5.83H24.09V21.72h9.26v4.41ZM44,54H34.6v-4H44Zm0-5.2H34.6v-4.1H44Zm0-5.35H34.6V39.14H44Zm0-5.58H34.6V33.21H44ZM44,32H34.6V27.38H44Zm0-5.83H34.6V21.72H44ZM54.83,53.85a.21.21,0,0,1-.1.17H45.22v-4h9.61Zm0-5H45.22v-4.1h9.61Zm0-5.35H45.22V39.14h9.61Zm0-5.58H45.22V33.21h9.61Zm0-5.93H45.22V27.38h9.61Zm0-5.83H45.22V21.72h9.4a.21.21,0,0,1,.21.21v4.2ZM32.43,42.49h-7.5V39.89h7.5v2.61Zm10.59.1h-7.5V40H43Zm10.85-.06h-7.5V39.93h7.5Z"/></svg>