<?xml version="1.0" encoding="utf-8"?>
<!-- Generator: Adobe Illustrator 21.0.2, SVG Export Plug-In . SVG Version: 6.00 Build 0)  -->
<svg version="1.1" id="Layer_1" xmlns="http://www.w3.org/2000/svg" xmlns:xlink="http://www.w3.org/1999/xlink" x="0px" y="0px"
	 viewBox="0 0 74 74" style="enable-background:new 0 0 74 74;" xml:space="preserve">
<style type="text/css">
	.st0{fill:none;stroke:#006FAF;stroke-width:2;stroke-miterlimit:10;}
	.st1{fill:#006FAF;}
</style>
<title>health-checks</title>
<circle class="st0" cx="37" cy="37" r="36"/>
<title></title>
<desc></desc>
<g id="Layer_3">
</g>
<g>
	<path class="st1" d="M45.8,27.4c0-1.6,0-3.3,0-5c0-0.6-0.2-0.9-0.8-1.1c-4.2-1.3-8.4-2.6-12.6-3.8c-0.7-0.2-1.5-0.5-2.2-0.7
		c-0.8-0.2-1.4,0.2-1.4,1.1c0,2.2,0,4.4,0,6.6c0,0.2,0,0.4-0.1,0.5c-0.1,0.2-0.3,0.4-0.5,0.4s-0.4-0.2-0.5-0.4
		c-0.1-0.1-0.1-0.4-0.1-0.5c0-2.2,0-4.4,0-6.6c0-1.6,1.4-2.7,2.9-2.2c4.1,1.2,8.1,2.5,12.2,3.7c0.8,0.2,1.7,0.5,2.6,0.8
		c1.1,0.3,1.6,1.1,1.6,2.2c0,3.3,0,6.6,0,9.9c0,1.4-0.6,2.2-1.8,2.4c-0.2,0-0.4,0.1-0.6,0c-0.6-0.2-1.3-0.4-1.9-0.6
		c-0.3-0.1-0.5-0.4-0.4-0.7c0.1-0.4,0.4-0.5,0.7-0.4c0.5,0.1,0.9,0.3,1.4,0.5c0.9,0.3,1.5-0.1,1.5-1.1
		C45.8,30.7,45.8,29.1,45.8,27.4z"/>
	<path class="st1" d="M38.2,29.7c0-1.9,0-3.7,0-5.5c0-0.7,0.4-1.2,0.9-1.3c0.6-0.2,1.2,0,1.5,0.6c0.1,0.3,0.2,0.6,0.2,0.9
		c0,3.6,0,7.2,0,10.8c0,0.4-0.1,0.8-0.4,1.1c-0.3,0.5-0.9,0.5-1.4,0.3c-0.6-0.2-0.8-0.7-0.8-1.3C38.2,33.4,38.2,31.5,38.2,29.7z"/>
	<path class="st1" d="M34.5,29.7c0-1.4,0-2.8,0-4.3c0-0.7,0.5-1.2,1.1-1.3c0.6-0.1,1.3,0.2,1.4,0.8c0.1,0.3,0.1,0.6,0.1,0.9
		c0,2.7,0,5.3,0,8c0,0.9-0.6,1.4-1.4,1.4s-1.3-0.5-1.3-1.4C34.5,32.4,34.5,31.1,34.5,29.7z"/>
	<path class="st1" d="M30.7,29.6c0-0.9,0-1.8,0-2.7c0-0.8,0.6-1.3,1.3-1.3c0.7,0,1.3,0.6,1.3,1.3c0,1.8,0,3.7,0,5.5
		c0,0.8-0.6,1.4-1.3,1.4c-0.8,0-1.3-0.6-1.3-1.4C30.7,31.5,30.7,30.6,30.7,29.6z"/>
	<path class="st1" d="M29.7,29.7c0,0.5,0,0.9,0,1.4c0,0.8-0.6,1.4-1.3,1.4c-0.7,0-1.3-0.6-1.3-1.3c0-1.1,0-2.1,0-3.2
		c0-0.7,0.7-1.3,1.4-1.2c0.7,0,1.2,0.6,1.2,1.3C29.7,28.7,29.7,29.2,29.7,29.7z"/>
</g>
<g>
	<path class="st1" d="M16.6,47.2v3.1c-0.9,0.6-2.1,1.1-3.3,1.1c-2.5,0-4.4-1.9-4.4-4.3s2-4.2,4.5-4.2c1.2,0,2.4,0.5,3.2,1.2l-0.8,1
		c-0.6-0.6-1.5-1-2.4-1c-1.7,0-3.1,1.3-3.1,3s1.4,3,3.1,3c0.6,0,1.3-0.2,1.9-0.6v-2.3H16.6z"/>
	<path class="st1" d="M22.3,50.6c-0.5,0.6-1.2,0.8-2.1,0.8c-1.4,0-2.2-0.9-2.2-2c0-1.2,0.9-1.9,2.4-1.9h1.9v-0.2
		c0-0.8-0.5-1.3-1.5-1.3c-0.6,0-1.2,0.2-1.9,0.6l-0.6-1c0.9-0.5,1.5-0.8,2.7-0.8c1.6,0,2.6,0.8,2.6,2.2v4.2h-1.4v-0.6H22.3z
		 M22.3,49.1v-0.6h-1.7c-0.9,0-1.3,0.2-1.3,0.9c0,0.6,0.5,0.9,1.2,0.9C21.5,50.3,22.3,49.8,22.3,49.1z"/>
	<path class="st1" d="M29.1,50.9c-0.5,0.3-1,0.5-1.6,0.5c-1,0-1.8-0.6-1.8-1.9v-3.3h-0.9v-1h0.9v-1.8h1.4v1.8H29v1h-1.9v3.1
		c0,0.7,0.3,0.9,0.7,0.9c0.3,0,0.6-0.1,1-0.3L29.1,50.9z"/>
	<path class="st1" d="M36,48.7h-4.8c0.2,1,1,1.6,2,1.6c0.7,0,1.3-0.3,1.8-0.7l0.7,0.8c-0.7,0.6-1.6,1-2.7,1c-2,0-3.3-1.3-3.3-3.2
		S31,45,32.9,45C35.2,44.9,36.1,46.4,36,48.7z M34.8,47.7c0-1-0.7-1.7-1.8-1.7c-1,0-1.7,0.6-1.9,1.7H34.8z"/>
	<path class="st1" d="M43.2,51.3l-1.6-4.7L40,51.3h-1.4L36.2,45h1.4l1.7,5l1.6-5h1.4l1.6,5l1.6-5h1.4l-2.3,6.4h-1.4V51.3z"/>
	<path class="st1" d="M51.5,50.6c-0.5,0.6-1.2,0.8-2.1,0.8c-1.4,0-2.2-0.9-2.2-2c0-1.2,0.9-1.9,2.4-1.9h1.9v-0.2
		c0-0.8-0.5-1.3-1.5-1.3c-0.6,0-1.2,0.2-1.9,0.6l-0.6-1c0.9-0.5,1.5-0.8,2.7-0.8c1.6,0,2.6,0.8,2.6,2.2v4.2h-1.4L51.5,50.6
		L51.5,50.6z M51.5,49.1v-0.6h-1.7c-0.9,0-1.3,0.2-1.3,0.9c0,0.6,0.5,0.9,1.2,0.9C50.7,50.3,51.4,49.8,51.5,49.1z"/>
	<path class="st1" d="M57,52.2c-0.4,1-1.1,1.5-2.1,1.5c-0.6,0-1-0.2-1.5-0.5l0.6-1.1c0.3,0.2,0.5,0.3,0.8,0.3c0.4,0,0.8-0.2,1-0.7
		l0.2-0.5L53.4,45h1.4l1.9,4.8l1.8-4.8h1.4L57,52.2z"/>
	<path class="st1" d="M65,45.6l-0.5,1c-0.6-0.3-1.3-0.6-1.8-0.6s-0.9,0.2-0.9,0.6c0,1.2,3.4,0.5,3.4,2.9c0,1.3-1.2,1.9-2.4,1.9
		c-0.9,0-1.9-0.3-2.6-0.9l0.5-1c0.6,0.5,1.4,0.8,2.1,0.8c0.6,0,1-0.2,1-0.7c0-1.3-3.4-0.6-3.3-2.9c0-1.3,1.1-1.8,2.3-1.8
		C63.5,44.9,64.4,45.1,65,45.6z"/>
</g>
</svg>
