<?xml version="1.0" encoding="utf-8"?>
<!-- Generator: Adobe Illustrator 21.0.2, SVG Export Plug-In . SVG Version: 6.00 Build 0)  -->
<svg version="1.1" id="Layer_1" xmlns="http://www.w3.org/2000/svg" xmlns:xlink="http://www.w3.org/1999/xlink" x="0px" y="0px"
	 viewBox="0 0 74 74" style="enable-background:new 0 0 74 74;" xml:space="preserve">
<style type="text/css">
	.st0{fill:none;stroke:#006FAF;stroke-width:2;stroke-miterlimit:10;}
	.st1{fill:#006FAF;}
	.st2{enable-background:new    ;}
</style>
<title>health-checks</title>
<circle class="st0" cx="37" cy="37" r="36"/>
<title></title>
<desc></desc>
<g id="Layer_3">
</g>
<g>
	<path class="st1" d="M45.8,27.4c0-1.6,0-3.3,0-5c0-0.6-0.2-0.9-0.8-1.1c-4.2-1.3-8.4-2.6-12.6-3.8c-0.7-0.2-1.5-0.5-2.2-0.7
		c-0.8-0.2-1.4,0.2-1.4,1.1c0,2.2,0,4.4,0,6.6c0,0.2,0,0.4-0.1,0.5c-0.1,0.2-0.3,0.4-0.5,0.4s-0.4-0.2-0.5-0.4
		c-0.1-0.1-0.1-0.4-0.1-0.5c0-2.2,0-4.4,0-6.6c0-1.6,1.4-2.7,2.9-2.2c4.1,1.2,8.1,2.5,12.2,3.7c0.8,0.2,1.7,0.5,2.6,0.8
		c1.1,0.3,1.6,1.1,1.6,2.2c0,3.3,0,6.6,0,9.9c0,1.4-0.6,2.2-1.8,2.4c-0.2,0-0.4,0.1-0.6,0c-0.6-0.2-1.3-0.4-1.9-0.6
		c-0.3-0.1-0.5-0.4-0.4-0.7c0.1-0.4,0.4-0.5,0.7-0.4c0.5,0.1,0.9,0.3,1.4,0.5c0.9,0.3,1.5-0.1,1.5-1.1
		C45.8,30.7,45.8,29.1,45.8,27.4z"/>
	<path class="st1" d="M38.2,29.7c0-1.9,0-3.7,0-5.5c0-0.7,0.4-1.2,0.9-1.3c0.6-0.2,1.2,0,1.5,0.6c0.1,0.3,0.2,0.6,0.2,0.9
		c0,3.6,0,7.2,0,10.8c0,0.4-0.1,0.8-0.4,1.1c-0.3,0.5-0.9,0.5-1.4,0.3c-0.6-0.2-0.8-0.7-0.8-1.3C38.2,33.4,38.2,31.5,38.2,29.7z"/>
	<path class="st1" d="M34.5,29.7c0-1.4,0-2.8,0-4.3c0-0.7,0.5-1.2,1.1-1.3c0.6-0.1,1.3,0.2,1.4,0.8c0.1,0.3,0.1,0.6,0.1,0.9
		c0,2.7,0,5.3,0,8c0,0.9-0.6,1.4-1.4,1.4s-1.3-0.5-1.3-1.4C34.5,32.4,34.5,31.1,34.5,29.7z"/>
	<path class="st1" d="M30.7,29.6c0-0.9,0-1.8,0-2.7c0-0.8,0.6-1.3,1.3-1.3c0.7,0,1.3,0.6,1.3,1.3c0,1.8,0,3.7,0,5.5
		c0,0.8-0.6,1.4-1.3,1.4c-0.8,0-1.3-0.6-1.3-1.4C30.7,31.5,30.7,30.6,30.7,29.6z"/>
	<path class="st1" d="M29.7,29.7c0,0.5,0,0.9,0,1.4c0,0.8-0.6,1.4-1.3,1.4c-0.7,0-1.3-0.6-1.3-1.3c0-1.1,0-2.1,0-3.2
		c0-0.7,0.7-1.3,1.4-1.2c0.7,0,1.2,0.6,1.2,1.3C29.7,28.7,29.7,29.2,29.7,29.7z"/>
</g>
<g class="st2">
	<path class="st1" d="M14.9,43.9c0.6,0.5,0.9,1.3,0.9,2.3s-0.3,1.8-0.9,2.3c-0.6,0.5-1.6,0.7-2.9,0.7h-1.5v2.6H9v-8.7h3
		C13.4,43.2,14.3,43.4,14.9,43.9z M13.9,47.6c0.3-0.3,0.4-0.8,0.4-1.4c0-0.6-0.2-1-0.6-1.3s-1-0.4-1.8-0.4h-1.5V48h1.7
		C13,48,13.6,47.9,13.9,47.6z"/>
	<path class="st1" d="M20.9,46.6c-0.7,0-1.2,0.2-1.6,0.7c-0.4,0.4-0.5,1.1-0.5,1.8v2.8h-1.4v-6.7h1.4v1.3c0.2-0.4,0.5-0.8,0.9-1
		c0.4-0.3,0.8-0.4,1.2-0.4V46.6L20.9,46.6z"/>
	<path class="st1" d="M28.5,49.2h-5.2c0,0.5,0.3,0.9,0.7,1.2s0.9,0.4,1.4,0.4c0.8,0,1.5-0.3,1.9-0.8l0.8,0.9
		c-0.7,0.7-1.6,1.1-2.8,1.1c-0.9,0-1.7-0.3-2.4-0.9c-0.7-0.6-1-1.5-1-2.5s0.3-1.9,1-2.5s1.5-0.9,2.4-0.9s1.7,0.3,2.3,0.8
		c0.6,0.5,1,1.3,1,2.3L28.5,49.2L28.5,49.2z M23.3,48.1h3.8c0-0.6-0.2-1-0.5-1.3c-0.4-0.3-0.8-0.5-1.3-0.5s-1,0.2-1.4,0.5
		C23.5,47.2,23.3,47.6,23.3,48.1z"/>
	<path class="st1" d="M31.5,48.3v3.6h-1.4v-6.7h1.4v1.2c0.2-0.4,0.5-0.7,0.9-1c0.4-0.2,0.8-0.3,1.3-0.3c1,0,1.8,0.4,2.1,1.3
		c0.7-0.9,1.5-1.3,2.5-1.3c0.8,0,1.4,0.2,1.8,0.7c0.5,0.5,0.7,1.1,0.7,2v4.1h-1.4v-3.7c0-1.2-0.5-1.8-1.5-1.8
		c-0.5,0-0.9,0.2-1.2,0.5c-0.4,0.3-0.5,0.7-0.6,1.3v3.7h-1.4v-3.7c0-0.6-0.1-1.1-0.3-1.4s-0.6-0.4-1.1-0.4s-0.9,0.2-1.3,0.5
		C31.6,47.2,31.5,47.7,31.5,48.3z"/>
	<path class="st1" d="M42.8,43.9c-0.2-0.2-0.3-0.4-0.3-0.6c0-0.2,0.1-0.5,0.3-0.6c0.2-0.2,0.4-0.3,0.6-0.3c0.2,0,0.5,0.1,0.6,0.3
		c0.2,0.2,0.3,0.4,0.3,0.6c0,0.2-0.1,0.4-0.3,0.6c-0.2,0.2-0.4,0.3-0.6,0.3S43,44.1,42.8,43.9z M44.1,51.9h-1.4v-6.7h1.4V51.9z"/>
	<path class="st1" d="M50.8,48.9v-3.6h1.4V52h-1.4v-1.2c-0.2,0.4-0.5,0.7-0.9,1c-0.4,0.2-0.8,0.3-1.3,0.3c-0.8,0-1.4-0.2-1.8-0.7
		c-0.5-0.5-0.7-1.1-0.7-2v-4.1h1.4V49c0,1.2,0.5,1.8,1.5,1.8c0.5,0,0.9-0.2,1.3-0.5C50.6,50,50.8,49.5,50.8,48.9z"/>
	<path class="st1" d="M55.6,48.3v3.6h-1.4v-6.7h1.4v1.2c0.2-0.4,0.5-0.7,0.9-1c0.4-0.2,0.8-0.3,1.3-0.3c1,0,1.8,0.4,2.1,1.3
		c0.7-0.9,1.5-1.3,2.5-1.3c0.8,0,1.4,0.2,1.8,0.7c0.4,0.5,0.7,1.1,0.7,2v4.1h-1.4v-3.7c0-1.2-0.5-1.8-1.5-1.8
		c-0.5,0-0.9,0.2-1.2,0.5c-0.4,0.3-0.5,0.7-0.6,1.3v3.7h-1.4v-3.7c0-0.6-0.1-1.1-0.3-1.4c-0.2-0.3-0.6-0.4-1.1-0.4s-0.9,0.2-1.3,0.5
		C55.8,47.2,55.6,47.7,55.6,48.3z"/>
</g>
</svg>
