<?xml version="1.0" encoding="utf-8"?>
<!-- Generator: Adobe Illustrator 21.0.2, SVG Export Plug-In . SVG Version: 6.00 Build 0)  -->
<svg version="1.1" id="Layer_1" xmlns="http://www.w3.org/2000/svg" xmlns:xlink="http://www.w3.org/1999/xlink" x="0px" y="0px"
	 viewBox="0 0 74 74" style="enable-background:new 0 0 74 74;" xml:space="preserve">
<style type="text/css">
	.st0{fill:none;stroke:#006FAF;stroke-width:2;stroke-miterlimit:10;}
	.st1{fill:#006FAF;}
	.st2{enable-background:new    ;}
</style>
<title>health-checks</title>
<circle class="st0" cx="37" cy="37" r="36"/>
<title></title>
<desc></desc>
<g id="Layer_3">
</g>
<g>
	<path class="st1" d="M45.8,27.4c0-1.6,0-3.3,0-5c0-0.6-0.2-0.9-0.8-1.1c-4.2-1.3-8.4-2.6-12.6-3.8c-0.7-0.2-1.5-0.5-2.2-0.7
		c-0.8-0.2-1.4,0.2-1.4,1.1c0,2.2,0,4.4,0,6.6c0,0.2,0,0.4-0.1,0.5c-0.1,0.2-0.3,0.4-0.5,0.4s-0.4-0.2-0.5-0.4
		c-0.1-0.1-0.1-0.4-0.1-0.5c0-2.2,0-4.4,0-6.6c0-1.6,1.4-2.7,2.9-2.2c4.1,1.2,8.1,2.5,12.2,3.7c0.8,0.2,1.7,0.5,2.6,0.8
		c1.1,0.3,1.6,1.1,1.6,2.2c0,3.3,0,6.6,0,9.9c0,1.4-0.6,2.2-1.8,2.4c-0.2,0-0.4,0.1-0.6,0c-0.6-0.2-1.3-0.4-1.9-0.6
		c-0.3-0.1-0.5-0.4-0.4-0.7c0.1-0.4,0.4-0.5,0.7-0.4c0.5,0.1,0.9,0.3,1.4,0.5c0.9,0.3,1.5-0.1,1.5-1.1
		C45.8,30.7,45.8,29.1,45.8,27.4z"/>
	<path class="st1" d="M38.2,29.7c0-1.9,0-3.7,0-5.5c0-0.7,0.4-1.2,0.9-1.3c0.6-0.2,1.2,0,1.5,0.6c0.1,0.3,0.2,0.6,0.2,0.9
		c0,3.6,0,7.2,0,10.8c0,0.4-0.1,0.8-0.4,1.1c-0.3,0.5-0.9,0.5-1.4,0.3c-0.6-0.2-0.8-0.7-0.8-1.3C38.2,33.4,38.2,31.5,38.2,29.7z"/>
	<path class="st1" d="M34.5,29.7c0-1.4,0-2.8,0-4.3c0-0.7,0.5-1.2,1.1-1.3c0.6-0.1,1.3,0.2,1.4,0.8c0.1,0.3,0.1,0.6,0.1,0.9
		c0,2.7,0,5.3,0,8c0,0.9-0.6,1.4-1.4,1.4s-1.3-0.5-1.3-1.4C34.5,32.4,34.5,31.1,34.5,29.7z"/>
	<path class="st1" d="M30.7,29.6c0-0.9,0-1.8,0-2.7c0-0.8,0.6-1.3,1.3-1.3c0.7,0,1.3,0.6,1.3,1.3c0,1.8,0,3.7,0,5.5
		c0,0.8-0.6,1.4-1.3,1.4c-0.8,0-1.3-0.6-1.3-1.4C30.7,31.5,30.7,30.6,30.7,29.6z"/>
	<path class="st1" d="M29.7,29.7c0,0.5,0,0.9,0,1.4c0,0.8-0.6,1.4-1.3,1.4c-0.7,0-1.3-0.6-1.3-1.3c0-1.1,0-2.1,0-3.2
		c0-0.7,0.7-1.3,1.4-1.2c0.7,0,1.2,0.6,1.2,1.3C29.7,28.7,29.7,29.2,29.7,29.7z"/>
</g>
<g class="st2">
	<path class="st1" d="M17.4,44c0.9,0.8,1.3,1.9,1.3,3.3s-0.4,2.5-1.3,3.4c-0.8,0.8-2.1,1.2-3.9,1.2h-3v-9.1h3.1
		C15.2,42.8,16.5,43.2,17.4,44z M17.1,47.4c0-2.1-1.2-3.1-3.6-3.1H12v6.2h1.7c1.1,0,1.9-0.3,2.5-0.8C16.8,49.2,17.1,48.4,17.1,47.4z
		"/>
	<path class="st1" d="M26.9,49.1h-5.4c0,0.5,0.3,0.9,0.7,1.2s0.9,0.5,1.5,0.5c0.9,0,1.5-0.3,2-0.8l0.8,0.9c-0.7,0.8-1.7,1.2-2.9,1.2
		c-1,0-1.8-0.3-2.5-1s-1-1.5-1-2.6s0.3-2,1-2.6s1.5-1,2.5-1s1.7,0.3,2.4,0.9c0.7,0.6,1,1.4,1,2.3v1H26.9z M21.4,48h4
		c0-0.6-0.2-1-0.5-1.3c-0.4-0.3-0.8-0.5-1.3-0.5s-1,0.2-1.4,0.5C21.7,47,21.4,47.4,21.4,48z"/>
	<path class="st1" d="M33.4,49.9c0,0.7-0.2,1.2-0.7,1.6c-0.5,0.4-1.1,0.6-1.8,0.6c-0.5,0-1-0.1-1.6-0.3c-0.5-0.2-1-0.4-1.4-0.8
		l0.7-1.1c0.8,0.6,1.6,0.9,2.3,0.9c0.3,0,0.6-0.1,0.8-0.2c0.2-0.2,0.3-0.3,0.3-0.6s-0.5-0.7-1.4-0.9c-0.1,0-0.1,0-0.2-0.1
		c-1.4-0.4-2.2-1-2.2-2c0-0.6,0.2-1.2,0.7-1.5c0.5-0.4,1.1-0.6,1.9-0.6s1.6,0.2,2.3,0.7l-0.5,1.1c-0.6-0.4-1.2-0.6-1.8-0.6
		c-0.3,0-0.6,0.1-0.8,0.2c-0.2,0.1-0.3,0.3-0.3,0.6c0,0.2,0.1,0.4,0.3,0.5c0.2,0.1,0.4,0.2,0.7,0.2c0.3,0.1,0.5,0.1,0.7,0.2
		c0.2,0.1,0.4,0.1,0.6,0.2c0.2,0.1,0.4,0.2,0.7,0.4C33.2,48.7,33.4,49.2,33.4,49.9z"/>
	<path class="st1" d="M36.5,51.9H35v-9.6h1.5V48l2.8-2.9h1.9l-2.6,2.7l2.8,4.2h-1.8l-2.1-3l-1,1V51.9z"/>
	<path class="st1" d="M44.4,46.2v3.5c0,0.3,0.1,0.6,0.3,0.8s0.4,0.3,0.7,0.3s0.6-0.2,0.9-0.5l0.6,1c-0.5,0.5-1.1,0.7-1.7,0.7
		c-0.6,0-1.1-0.2-1.6-0.6c-0.4-0.4-0.7-1-0.7-1.7v-3.5H42V45h0.9v-2.2h1.5V45h1.8v1.2H44.4z"/>
	<path class="st1" d="M53.8,51c-0.7,0.7-1.6,1-2.6,1s-1.9-0.3-2.6-1c-0.7-0.7-1-1.5-1-2.5s0.3-1.8,1-2.5s1.6-1,2.6-1s1.9,0.3,2.6,1
		c0.7,0.7,1,1.5,1,2.5S54.5,50.3,53.8,51z M49.6,50.1c0.4,0.4,0.9,0.6,1.6,0.6s1.2-0.2,1.6-0.6c0.4-0.4,0.6-1,0.6-1.6
		s-0.2-1.2-0.6-1.6c-0.4-0.4-0.9-0.6-1.6-0.6s-1.2,0.2-1.6,0.6c-0.4,0.4-0.6,1-0.6,1.6S49.2,49.7,49.6,50.1z"/>
	<path class="st1" d="M60.2,44.9c0.9,0,1.7,0.3,2.4,1c0.7,0.6,1,1.5,1,2.6s-0.3,1.9-1,2.6c-0.7,0.7-1.4,1-2.3,1S58.6,51.7,58,51v3.6
		h-1.5V45H58v1.2C58.5,45.3,59.2,44.9,60.2,44.9z M57.9,48.5c0,0.7,0.2,1.2,0.6,1.6c0.4,0.4,0.9,0.6,1.5,0.6s1.1-0.2,1.5-0.6
		s0.6-1,0.6-1.6s-0.2-1.2-0.6-1.7c-0.4-0.4-0.9-0.7-1.5-0.7s-1.1,0.2-1.5,0.7S57.9,47.8,57.9,48.5z"/>
</g>
</svg>
