<?xml version="1.0" encoding="utf-8"?>
<!-- Generator: Adobe Illustrator 21.0.2, SVG Export Plug-In . SVG Version: 6.00 Build 0)  -->
<svg version="1.1" id="Layer_1" xmlns="http://www.w3.org/2000/svg" xmlns:xlink="http://www.w3.org/1999/xlink" x="0px" y="0px"
	 viewBox="0 0 74 74" style="enable-background:new 0 0 74 74;" xml:space="preserve">
<style type="text/css">
	.st0{fill:none;stroke:#006FAF;stroke-width:2;stroke-miterlimit:10;}
	.st1{fill:#006FAF;}
	.st2{enable-background:new    ;}
</style>
<title>health-checks</title>
<circle class="st0" cx="37" cy="37" r="36"/>
<title></title>
<desc></desc>
<g id="Layer_3">
</g>
<g>
	<path class="st1" d="M45.8,27.4c0-1.6,0-3.3,0-5c0-0.6-0.2-0.9-0.8-1.1c-4.2-1.3-8.4-2.6-12.6-3.8c-0.7-0.2-1.5-0.5-2.2-0.7
		c-0.8-0.2-1.4,0.2-1.4,1.1c0,2.2,0,4.4,0,6.6c0,0.2,0,0.4-0.1,0.5c-0.1,0.2-0.3,0.4-0.5,0.4s-0.4-0.2-0.5-0.4
		c-0.1-0.1-0.1-0.4-0.1-0.5c0-2.2,0-4.4,0-6.6c0-1.6,1.4-2.7,2.9-2.2c4.1,1.2,8.1,2.5,12.2,3.7c0.8,0.2,1.7,0.5,2.6,0.8
		c1.1,0.3,1.6,1.1,1.6,2.2c0,3.3,0,6.6,0,9.9c0,1.4-0.6,2.2-1.8,2.4c-0.2,0-0.4,0.1-0.6,0c-0.6-0.2-1.3-0.4-1.9-0.6
		c-0.3-0.1-0.5-0.4-0.4-0.7c0.1-0.4,0.4-0.5,0.7-0.4c0.5,0.1,0.9,0.3,1.4,0.5c0.9,0.3,1.5-0.1,1.5-1.1
		C45.8,30.7,45.8,29.1,45.8,27.4z"/>
	<path class="st1" d="M38.2,29.7c0-1.9,0-3.7,0-5.5c0-0.7,0.4-1.2,0.9-1.3c0.6-0.2,1.2,0,1.5,0.6c0.1,0.3,0.2,0.6,0.2,0.9
		c0,3.6,0,7.2,0,10.8c0,0.4-0.1,0.8-0.4,1.1c-0.3,0.5-0.9,0.5-1.4,0.3c-0.6-0.2-0.8-0.7-0.8-1.3C38.2,33.4,38.2,31.5,38.2,29.7z"/>
	<path class="st1" d="M34.5,29.7c0-1.4,0-2.8,0-4.3c0-0.7,0.5-1.2,1.1-1.3c0.6-0.1,1.3,0.2,1.4,0.8c0.1,0.3,0.1,0.6,0.1,0.9
		c0,2.7,0,5.3,0,8c0,0.9-0.6,1.4-1.4,1.4s-1.3-0.5-1.3-1.4C34.5,32.4,34.5,31.1,34.5,29.7z"/>
	<path class="st1" d="M30.7,29.6c0-0.9,0-1.8,0-2.7c0-0.8,0.6-1.3,1.3-1.3c0.7,0,1.3,0.6,1.3,1.3c0,1.8,0,3.7,0,5.5
		c0,0.8-0.6,1.4-1.3,1.4c-0.8,0-1.3-0.6-1.3-1.4C30.7,31.5,30.7,30.6,30.7,29.6z"/>
	<path class="st1" d="M29.7,29.7c0,0.5,0,0.9,0,1.4c0,0.8-0.6,1.4-1.3,1.4c-0.7,0-1.3-0.6-1.3-1.3c0-1.1,0-2.1,0-3.2
		c0-0.7,0.7-1.3,1.4-1.2c0.7,0,1.2,0.6,1.2,1.3C29.7,28.7,29.7,29.2,29.7,29.7z"/>
</g>
<g class="st2">
	<path class="st1" d="M17.6,51.9h-1.5v-8.7h2.3l2.6,5.5l2.6-5.5H26v8.7h-1.5v-6.8l-3.1,6.1h-0.8l-3-6.1V51.9z"/>
	<path class="st1" d="M33.8,51c-0.7,0.7-1.5,1-2.5,1s-1.8-0.3-2.5-1s-1-1.5-1-2.4c0-1,0.3-1.8,1-2.4c0.7-0.7,1.5-1,2.5-1
		s1.8,0.3,2.5,1s1,1.5,1,2.4C34.8,49.6,34.5,50.4,33.8,51z M29.8,50.2c0.4,0.4,0.9,0.6,1.5,0.6s1.1-0.2,1.5-0.6
		c0.4-0.4,0.6-0.9,0.6-1.6s-0.2-1.2-0.6-1.6c-0.4-0.4-0.9-0.6-1.5-0.6s-1.1,0.2-1.5,0.6c-0.4,0.4-0.6,0.9-0.6,1.6
		S29.4,49.8,29.8,50.2z"/>
	<path class="st1" d="M40,45.2c0.9,0,1.7,0.3,2.3,0.9c0.6,0.6,1,1.4,1,2.5c0,1-0.3,1.9-0.9,2.5c-0.6,0.6-1.4,1-2.2,1
		s-1.6-0.4-2.3-1.1v1h-1.4v-9.3h1.4v3.8C38.3,45.6,39.1,45.2,40,45.2z M37.8,48.6c0,0.6,0.2,1.2,0.6,1.6c0.4,0.4,0.9,0.6,1.4,0.6
		s1-0.2,1.4-0.6s0.6-0.9,0.6-1.6c0-0.6-0.2-1.2-0.6-1.6c-0.4-0.4-0.9-0.6-1.4-0.6c-0.6,0-1,0.2-1.4,0.6C38,47.4,37.8,48,37.8,48.6z"
		/>
	<path class="st1" d="M44.9,43.9c-0.2-0.2-0.3-0.4-0.3-0.6c0-0.2,0.1-0.5,0.3-0.6c0.2-0.2,0.4-0.3,0.6-0.3c0.2,0,0.5,0.1,0.6,0.3
		c0.2,0.2,0.3,0.4,0.3,0.6c0,0.2-0.1,0.4-0.3,0.6c-0.2,0.2-0.4,0.3-0.6,0.3C45.3,44.2,45.1,44.1,44.9,43.9z M46.2,51.9h-1.4v-6.7
		h1.4V51.9z"/>
	<path class="st1" d="M49.6,51.9h-1.4v-9.3h1.4V51.9z"/>
	<path class="st1" d="M57.8,49.2h-5.2c0,0.5,0.3,0.9,0.7,1.2s0.9,0.4,1.4,0.4c0.8,0,1.5-0.3,1.9-0.8l0.8,0.9
		c-0.7,0.7-1.7,1.1-2.8,1.1c-0.9,0-1.7-0.3-2.4-0.9s-1-1.5-1-2.5s0.3-1.9,1-2.5s1.5-0.9,2.4-0.9s1.7,0.3,2.3,0.8s1,1.3,1,2.3v0.9
		H57.8z M52.6,48.1h3.8c0-0.6-0.2-1-0.5-1.3s-0.8-0.5-1.3-0.5s-1,0.2-1.4,0.5S52.6,47.6,52.6,48.1z"/>
</g>
</svg>
