<?xml version="1.0" encoding="utf-8"?>
<!-- Generator: Adobe Illustrator 21.0.2, SVG Export Plug-In . SVG Version: 6.00 Build 0)  -->
<svg version="1.1" id="Layer_1" xmlns="http://www.w3.org/2000/svg" xmlns:xlink="http://www.w3.org/1999/xlink" x="0px" y="0px"
	 viewBox="0 0 74 74" style="enable-background:new 0 0 74 74;" xml:space="preserve">
<style type="text/css">
	.st0{fill:none;stroke:#006FAF;stroke-width:2;stroke-miterlimit:10;}
	.st1{fill:none;}
	.st2{fill-rule:evenodd;clip-rule:evenodd;fill:none;stroke:#006FAF;stroke-width:2;stroke-miterlimit:10;}
	.st3{fill:#FFFFFF;}
	.st4{fill:#006FAF;}
	.st5{fill-rule:evenodd;clip-rule:evenodd;fill:none;stroke:#006699;stroke-width:2;stroke-miterlimit:10;}
	.st6{fill:#006FAF;stroke:#006FAF;stroke-width:0.5;stroke-miterlimit:10;}
	.st7{fill:none;stroke:#006FAF;stroke-width:1.75;stroke-miterlimit:10;}
	.st8{fill:none;stroke:#006FAF;stroke-width:1.5;stroke-miterlimit:10;}
	.st9{fill:#006FAF;stroke:#006FAF;stroke-width:2;stroke-miterlimit:10;}
	.st10{fill:#006FAF;stroke:#006FAF;stroke-miterlimit:10;}
	.st11{fill:none;stroke:#006FAF;stroke-width:2;stroke-linecap:round;stroke-miterlimit:10;}
	.st12{fill:none;stroke:#006FAF;stroke-width:2;stroke-linejoin:round;stroke-miterlimit:10;}
</style>
<circle class="st0" cx="37" cy="37" r="36"/>
<g>
	<path class="st4" d="M53,41.6c0-2.9,0-5.8,0-8.7c0-1.1-0.4-1.7-1.4-2c-7.4-2.3-14.7-4.5-22.1-6.7c-1.3-0.4-2.6-0.8-3.9-1.2
		c-1.4-0.4-2.5,0.4-2.5,1.8c0,3.9,0,7.7,0,11.6c0,0.3,0.1,0.7-0.1,0.9c-0.2,0.3-0.6,0.6-0.9,0.6c-0.3,0-0.7-0.3-0.9-0.6
		c-0.2-0.2-0.1-0.6-0.1-0.9c0-3.8,0-7.7,0-11.5c0-2.9,2.4-4.7,5.1-3.8c7.1,2.2,14.3,4.4,21.4,6.5c1.5,0.4,3,0.9,4.5,1.4
		C54,29.7,55,31,55,32.9c0,5.8,0.1,11.5,0.1,17.3c0,2.4-1.1,3.8-3.2,4.2c-0.4,0.1-0.7,0.1-1.1,0c-1.1-0.3-2.3-0.7-3.4-1
		c-0.6-0.2-0.9-0.6-0.7-1.2c0.2-0.6,0.7-0.8,1.3-0.6c0.9,0.2,1.7,0.6,2.5,0.8c1.7,0.5,2.6-0.2,2.6-2C53,47.4,53,44.5,53,41.6z"/>
	<path class="st4" d="M36.9,45.5c0-3,0-5.9,0-8.8c0-1.1,0.3-1.8,0.7-2.1c0.5-0.3,0.9,0,1.1,0.9c0.1,0.4,0.2,0.9,0.2,1.4
		c0,5.7,0,11.4,0,17.1c0,0.6-0.1,1.3-0.3,1.8c-0.2,0.7-0.7,0.8-1.1,0.5c-0.4-0.4-0.6-1.1-0.6-2.1C36.9,51.4,36.9,48.4,36.9,45.5z"/>
	<path class="st4" d="M42.3,45.5c0-3.3,0-6.5,0-9.7c0-1.2,0.3-2,0.7-2.3c0.5-0.3,0.9,0,1.1,1c0.1,0.5,0.2,1,0.2,1.6
		c0,6.3,0,12.6,0,18.9c0,0.7-0.1,1.4-0.3,2c-0.2,0.8-0.7,0.9-1.1,0.6c-0.4-0.4-0.6-1.2-0.6-2.3C42.3,52,42.3,48.7,42.3,45.5z"/>
	<path class="st4" d="M31.4,45.5c0-2.3,0-4.6,0-7c0-1.1,0.3-1.9,0.8-2.1c0.4-0.2,0.9,0.4,1.1,1.3c0.1,0.5,0.1,1,0.1,1.4
		c0,4.3,0,8.6,0,12.9c0,1.4-0.4,2.3-1,2.3s-0.9-0.9-1-2.3C31.4,50,31.4,47.7,31.4,45.5z"/>
	<path class="st4" d="M25.9,45.5c0-1.6,0-3.2,0-4.8c0-1.4,0.4-2.3,1-2.3s1,1,1,2.3c0,3.2,0,6.4,0,9.6c0,1.4-0.5,2.4-1,2.4
		c-0.6,0-1-1-1-2.4C25.9,48.7,25.9,47.1,25.9,45.5z"/>
	<path class="st4" d="M23.3,45.6c0,0.9,0,1.7,0,2.5c0,1.4-0.4,2.4-1,2.4c-0.5,0-1-1-1-2.2c0-1.8,0-3.7,0-5.5c0-1.3,0.5-2.2,1.1-2.2
		c0.5,0.1,0.9,1,0.9,2.3C23.3,43.8,23.3,44.7,23.3,45.6z"/>
</g>
</svg>
