<?xml version="1.0" encoding="utf-8"?>
<!-- Generator: Adobe Illustrator 21.0.2, SVG Export Plug-In . SVG Version: 6.00 Build 0)  -->
<svg version="1.1" id="Layer_1" xmlns="http://www.w3.org/2000/svg" xmlns:xlink="http://www.w3.org/1999/xlink" x="0px" y="0px"
	 viewBox="0 0 74 74" style="enable-background:new 0 0 74 74;" xml:space="preserve">
<style type="text/css">
	.st0{fill:none;stroke:#006FAF;stroke-width:2;stroke-miterlimit:10;}
	.st1{fill:#006FAF;}
</style>
<title>health-checks</title>
<circle class="st0" cx="37" cy="37" r="36"/>
<title></title>
<desc></desc>
<g id="Layer_3">
</g>
<g>
	<path class="st1" d="M54,37.7c0-3.6,0-7.1,0-10.7c0-1.4-0.2-1.6-1.5-2.1c-4.7-1.6-9.5-3.2-14.2-4.9c-0.9-0.3-1.8-0.3-2.7,0
		c-4.7,1.7-9.3,3.3-14,4.9c-1.4,0.5-1.6,0.8-1.6,2.2c0,7,0,14,0,21c0,1.2,0.2,1.5,1.3,1.8c5,1.4,10,2.8,15,4.2
		c0.5,0.1,0.9,0.1,1.4,0c5.1-1.4,10.1-2.9,15.2-4.3c0.7-0.2,1-0.5,1-1.4C54,44.9,54,41.3,54,37.7z M52.7,48c0,0.3,0,0.6-0.4,0.7
		c-4.9,1.4-9.8,2.8-14.7,4.1c-0.4,0.3-0.7,0.1-1.1,0c-4.8-1.4-9.7-2.7-14.5-4.1c-0.6-0.2-0.7-0.4-0.7-0.9c0-6.9,0-13.8,0-20.7
		c0-0.5,0.2-0.7,0.6-0.9c5-1.7,10-3.5,14.9-5.2c0.2-0.1,0.3-0.1,0.4,0.1l0,0c5,1.7,10,3.4,15,5.1c0.4,0.1,0.5,0.4,0.5,0.8
		C52.7,33.9,52.7,41,52.7,48z"/>
	<path class="st1" d="M37.3,22c0-0.3,0-0.7-0.1-1l0,0c-0.4,0.3-0.2,0.7-0.2,1c0,7.1,0,14.2,0,21.3c0,2.8,0,5.7,0,8.5
		c0,0.5,0,0.9,0.6,0.9c-0.3-0.6-0.3-1.2-0.3-1.9C37.3,41.3,37.3,31.7,37.3,22z"/>
	<path class="st1" d="M35,24.1c-0.2,0-0.2,0-0.2,0c-2,0.6-4,1.2-5.9,1.8c-1.1,0.3-2.6,0.3-3.1,1.1c-0.5,0.9-0.2,2.2-0.2,3.4v0.1
		c-0.1,0.5,0.2,0.6,0.6,0.5c2.7-0.5,5.5-1.1,8.2-1.6c0.4-0.1,0.6-0.2,0.6-0.7C35,27.1,35,25.6,35,24.1z"/>
	<path class="st1" d="M24.6,33c-0.5-0.2-1,0.1-1.5,0.1c-0.4,0-0.2,0.4-0.2,0.7c0,4.1,0,8.2,0,12.2c0,1,0.3,1.3,1.2,1.4
		c0.6,0.1,0.7,0,0.7-0.6c0-2.2,0-4.4,0-6.6c0-2.2,0-4.4,0-6.7C24.7,33.5,24.8,33.1,24.6,33z"/>
	<path class="st1" d="M23.2,31.4c0.5-0.1,1.5,0.3,1.6-0.8c0.1-1.1,0-2.3,0-3.5c-1.9,0.5-1.9,0.5-1.9,2.2c0,0.5,0,0.9,0,1.4
		C22.9,31,22.7,31.6,23.2,31.4z"/>
	<path class="st1" d="M31.4,37.7c-0.2,0.2-0.2,0.4,0.1,0.4c0.3,0,0.7,0,1,0c0,1.1,0,2.2,0,3.3s-0.4,2.2-1.1,3.1
		c-0.6,0.8-1.7,1-2.7,0.6c-0.7-0.3-0.2-1-0.4-1.5c0-0.1,0.1-0.3-0.2-0.4c-0.8,0.6-1.5,1.2-2.3,1.9c-0.1,0.1-0.3,0.2-0.1,0.4
		c0.8,0.9,1.6,1.9,2.5,3c0.1-1.6,0.1-1.6,1.5-1.4c0.9,0.1,1.6-0.2,2.2-0.9c0.5-0.6,0.9-1.2,1.1-2c0.6-1.6,0.6-3.3,0.5-5
		c-0.1-0.9,0.1-1.5,1.2-1.4l0.1-0.1c-0.6-1.9-1.2-3.8-1.9-5.9C32.5,34,32,35.8,31.4,37.7z"/>
	<path class="st1" d="M45.2,44.8c0-0.3,0-0.4-0.4-0.4c-1.8,0.3-3.5,0.5-5.3,0.7c-0.4,0-0.5,0.2-0.5,0.6c0,1.5,0,2.9,0,4.5
		c2-0.5,3.9-1,5.8-1.4c0.3-0.1,0.4-0.2,0.4-0.5C45.2,47.1,45.2,45.9,45.2,44.8z"/>
	<path class="st1" d="M39.5,29.2c1.7,0.3,3.5,0.7,5.2,1.1c0.3,0.1,0.6,0,0.6-0.4c0-1.1,0-2.3,0-3.4c0-0.3-0.2-0.5-0.5-0.6
		c-1.7-0.5-3.5-1.1-5.2-1.6c-0.4-0.1-0.6,0-0.5,0.4c0,0.6,0,1.3,0,1.9c0,0.7,0,1.3,0,2C39,28.9,39.1,29.1,39.5,29.2z"/>
	<path class="st1" d="M39.6,36.1c1.7,0.1,3.4,0.2,5.1,0.3c0.5,0,0.6-0.1,0.6-0.5c0-1.1,0-2.2,0-3.3c0-0.4-0.1-0.5-0.5-0.6
		c-1.7-0.2-3.4-0.5-5.1-0.8c-0.5-0.1-0.6,0.1-0.6,0.5c0,0.6,0,1.3,0,1.9s0,1.3,0,1.9C39,35.9,39.1,36.1,39.6,36.1z"/>
	<path class="st1" d="M44.6,38.2c-1.4,0-2.7,0-4.1-0.1C39,38.1,39,38,39,39.5c0,0.4,0,0.7,0,1.1c0,0.6,0,1.2,0,1.7
		c0,0.6,0.1,0.8,0.7,0.7c1.6-0.2,3.2-0.3,4.8-0.4c0.5,0,0.7-0.2,0.6-0.7c0-1,0-2,0-3C45.2,38.4,45.1,38.2,44.6,38.2z"/>
	<path class="st1" d="M50.9,44.6c0.1-0.9-0.2-1.1-1-0.8c-0.5,0.1-1,0.1-1.4,0.2c-2,0.2-2,0.2-2,2.3c0,0.6,0,1.2,0,1.7
		c0,0.4,0.1,0.5,0.5,0.4c1-0.3,1.9-0.5,2.9-0.7c0.9-0.1,1.2-0.5,1-1.4C50.8,45.7,50.9,45.1,50.9,44.6z"/>
	<path class="st1" d="M48.8,38.3c-0.7,0-1.3,0-1.9,0c-0.3,0-0.5,0.1-0.5,0.4c0,1.1,0,2.2,0,3.3c0,0.4,0.2,0.5,0.6,0.4
		c0.8-0.1,1.6-0.2,2.4-0.3c1.5-0.2,1.5-0.2,1.5-1.7c0-0.7,0.2-1.6-0.1-2C50.4,38,49.4,38.4,48.8,38.3z"/>
	<path class="st1" d="M47.1,30.7c1.2,0.2,2.5,0.5,3.8,0.7c0-1.1,0-2.2,0-3.3c0-0.4-0.2-0.5-0.5-0.6c-1.3-0.4-2.5-0.8-3.9-1.2
		c0,1.3,0,2.4,0,3.6C46.5,30.4,46.6,30.6,47.1,30.7z"/>
	<path class="st1" d="M50.4,32.9c-0.8-0.1-1.5-0.2-2.2-0.3c-1.7-0.2-1.7-0.2-1.7,1.5c0,2.6,0,2.6,2.6,2.6c1.8,0,1.8,0,1.8-1.9
		c0-0.4,0-0.9,0-1.3C50.9,33.2,50.9,33,50.4,32.9z"/>
</g>
</svg>
