<?xml version="1.0" encoding="utf-8"?>
<!-- Generator: Adobe Illustrator 21.0.0, SVG Export Plug-In . SVG Version: 6.00 Build 0)  -->
<svg version="1.1" id="Layer_1" xmlns="http://www.w3.org/2000/svg" xmlns:xlink="http://www.w3.org/1999/xlink" x="0px" y="0px"
	 viewBox="0 0 74 74" style="enable-background:new 0 0 74 74;" xml:space="preserve">
<style type="text/css">
	.st0{fill:none;stroke:#006FAF;stroke-width:2;stroke-miterlimit:10;}
	.st1{fill:#006FAF;}
</style>
<title>Azure_Site_Recovery</title>
<circle class="st0" cx="37" cy="37" r="36"/>
<g>
	<path class="st1" d="M31,33.3c0.4,0.2,0.8,0.4,1.1,0.7c2.6,2.6,5.2,5.2,7.8,7.9c0.7,0.7,0.7,1.4,0,2.1c-2.6,2.6-5.3,5.3-7.9,7.9
		c-0.7,0.7-1.4,0.7-2.1,0c-2.6-2.6-5.3-5.3-7.9-8c-0.7-0.7-0.7-1.4,0-2.1c2.7-2.7,5.3-5.3,8-8C30.2,33.6,30.6,33.5,31,33.3z
		 M26.8,42.8c0.1,0.3,0.2,0.7,0.4,0.9c0.9,1,1.9,2,2.9,3c0.6,0.5,1.2,0.4,1.8-0.1c0.9-0.8,1.8-1.7,2.6-2.6c0.6-0.6,0.6-1.3,0-2
		c-0.8-0.8-1.7-1.7-2.5-2.5c-0.6-0.6-1.3-0.7-2,0c-0.9,0.8-1.7,1.7-2.6,2.6C27.1,42.1,27,42.5,26.8,42.8z"/>
	<path class="st1" d="M51.3,48.3c0-0.4,0-0.8,0-1.2c0.6-0.1,1.2-0.1,1.7-0.3c1.3-0.5,2.1-1.4,2.1-2.8c0.1-5.6,0.1-11.2,0.1-16.8
		c0-1.9-1.4-3.2-3.5-3.2c-5.1,0-10.2,0-15.4,0c-4.8,0-9.6,0-14.5,0c-2.6,0-3.8,1.2-3.8,3.8c0,5.2,0,10.3,0,15.5
		c0,2.4,1.1,3.6,3.5,3.7c0.1,0,0.2,0,0.3,0.1c0,0.5,0,0.9,0,1.3c-2.8,0.4-5.3-1.6-5.3-4.4c0-5.7,0-11.4,0.1-17
		c0-2.5,2.1-4.4,4.7-4.4c9.4,0,18.7,0.1,28.1,0.1c0.9,0,1.8,0,2.7,0c2.5,0,4.5,2,4.5,4.5c0,5.7,0,11.3,0,17
		C56.6,46.7,53.9,48.8,51.3,48.3z"/>
	<path class="st1" d="M46.1,48.5c-0.2,0.3-0.3,0.7-0.5,0.9c-0.8,0.9-1.7,1.7-2.5,2.5c-0.6,0.6-1.3,0.6-1.9,0
		c-0.8-0.8-1.6-1.6-2.4-2.5c-0.6-0.7-0.6-1.3,0-2c0.8-0.8,1.6-1.6,2.5-2.4c0.6-0.6,1.2-0.6,1.8,0c0.9,0.8,1.7,1.7,2.6,2.6
		C45.8,47.9,45.9,48.2,46.1,48.5z"/>
	<path class="st1" d="M47.7,46.9c-0.3-0.2-0.7-0.3-0.9-0.5c-0.8-0.8-1.7-1.6-2.4-2.5c-0.6-0.7-0.6-1.3,0.1-2
		c0.8-0.8,1.6-1.6,2.4-2.4c0.6-0.6,1.3-0.7,1.9-0.1c0.9,0.8,1.7,1.7,2.6,2.6c0.5,0.5,0.5,1.2,0,1.7c-0.9,0.9-1.8,1.8-2.7,2.7
		C48.3,46.7,48,46.7,47.7,46.9z"/>
	<path class="st1" d="M42.1,41.3c-0.3-0.2-0.7-0.3-0.9-0.5c-0.8-0.8-1.7-1.6-2.4-2.5c-0.6-0.7-0.6-1.3,0-2c0.8-0.8,1.6-1.6,2.4-2.4
		c0.6-0.6,1.3-0.7,1.9-0.1c0.9,0.8,1.7,1.7,2.5,2.5c0.5,0.6,0.6,1.2,0.1,1.8c-0.9,0.9-1.8,1.8-2.7,2.7C42.7,41,42.4,41.1,42.1,41.3z
		"/>
</g>
</svg>
