<?xml version="1.0" encoding="utf-8"?>
<!-- Generator: Adobe Illustrator 21.0.2, SVG Export Plug-In . SVG Version: 6.00 Build 0)  -->
<svg version="1.1" id="Layer_1" xmlns="http://www.w3.org/2000/svg" xmlns:xlink="http://www.w3.org/1999/xlink" x="0px" y="0px"
	 viewBox="0 0 74 74" style="enable-background:new 0 0 74 74;" xml:space="preserve">
<style type="text/css">
	.st0{fill:none;stroke:#006FAF;stroke-width:2;stroke-miterlimit:10;}
	.st1{fill:none;}
	.st2{fill:#006FAF;}
</style>
<circle class="st0" cx="37" cy="37" r="36"/>
<g>
	<rect x="39.7" y="32.3" class="st1" width="2.6" height="4.5"/>
	<rect x="31.7" y="32.3" class="st1" width="2.6" height="4.5"/>
	<rect x="47.8" y="32.3" class="st1" width="2.6" height="4.5"/>
	<path class="st1" d="M20.9,44.4h1.3V43c0-0.4,0.3-0.7,0.7-0.7c0.4,0,0.7,0.3,0.7,0.7v1.4h1.6V43c0-0.4,0.3-0.7,0.7-0.7
		c0.4,0,0.7,0.3,0.7,0.7v1.4h1.6V43c0-0.4,0.3-0.7,0.7-0.7s0.7,0.3,0.7,0.7v1.4h1.6V43c0-0.4,0.3-0.7,0.7-0.7s0.7,0.3,0.7,0.7v1.4
		h0.7v-1.1c0-0.2,0.1-0.4,0.2-0.5c0.1-0.1,0.3-0.2,0.5-0.2h5.7c0.4,0,0.7,0.3,0.7,0.7v1.1h0.7V43c0-0.4,0.3-0.7,0.7-0.7
		s0.7,0.3,0.7,0.7v1.4h1.6V43c0-0.4,0.3-0.7,0.7-0.7s0.7,0.3,0.7,0.7v1.4h1.6V43c0-0.4,0.3-0.7,0.7-0.7s0.7,0.3,0.7,0.7v1.4h1.6V43
		c0-0.4,0.3-0.7,0.7-0.7s0.7,0.3,0.7,0.7v1.4h1.3v-3.3H20.9V44.4z"/>
	<rect x="23.6" y="32.3" class="st1" width="2.6" height="4.5"/>
	<path class="st1" d="M20.9,39.7h32.2V29.4H20.9V39.7z M46.4,31.6c0-0.4,0.3-0.7,0.7-0.7h4c0.4,0,0.7,0.3,0.7,0.7v5.9
		c0,0.4-0.3,0.7-0.7,0.7h-4c-0.4,0-0.7-0.3-0.7-0.7V31.6L46.4,31.6z M38.3,31.6c0-0.4,0.3-0.7,0.7-0.7h4c0.4,0,0.7,0.3,0.7,0.7v5.9
		c0,0.4-0.3,0.7-0.7,0.7h-4c-0.4,0-0.7-0.3-0.7-0.7V31.6z M30.3,31.6c0-0.4,0.3-0.7,0.7-0.7h4c0.4,0,0.7,0.3,0.7,0.7v5.9
		c0,0.4-0.3,0.7-0.7,0.7h-4c-0.4,0-0.7-0.3-0.7-0.7C30.3,37.5,30.3,31.6,30.3,31.6z M22.2,31.6c0-0.4,0.3-0.7,0.7-0.7h4
		c0.4,0,0.7,0.3,0.7,0.7v5.9c0,0.4-0.3,0.7-0.7,0.7h-4c-0.4,0-0.7-0.3-0.7-0.7V31.6L22.2,31.6z"/>
	<path class="st2" d="M53.8,28H20.2c-0.4,0-0.7,0.3-0.7,0.7v11.8v4.7c0,0.4,0.3,0.7,0.7,0.7h13.9c0.2,0,0.4-0.1,0.5-0.2
		c0.1-0.1,0.2-0.3,0.2-0.5v-1.1h4.3v1.1c0,0.4,0.3,0.7,0.7,0.7h13.9c0.4,0,0.7-0.3,0.7-0.7v-4.7V28.7C54.5,28.3,54.2,28,53.8,28z
		 M53.1,44.4h-1.3V43c0-0.4-0.3-0.7-0.7-0.7s-0.7,0.3-0.7,0.7v1.4h-1.6V43c0-0.4-0.3-0.7-0.7-0.7s-0.7,0.3-0.7,0.7v1.4h-1.6V43
		c0-0.4-0.3-0.7-0.7-0.7s-0.7,0.3-0.7,0.7v1.4h-1.6V43c0-0.4-0.3-0.7-0.7-0.7s-0.7,0.3-0.7,0.7v1.4h-0.7v-1.1c0-0.4-0.3-0.7-0.7-0.7
		h-5.7c-0.2,0-0.4,0.1-0.5,0.2c-0.1,0.1-0.2,0.3-0.2,0.5v1.1h-0.7V43c0-0.4-0.3-0.7-0.7-0.7c-0.4,0-0.7,0.3-0.7,0.7v1.4h-1.6V43
		c0-0.4-0.3-0.7-0.7-0.7c-0.4,0-0.7,0.3-0.7,0.7v1.4h-1.6V43c0-0.4-0.3-0.7-0.7-0.7c-0.4,0-0.7,0.3-0.7,0.7v1.4h-1.6V43
		c0-0.4-0.3-0.7-0.7-0.7c-0.4,0-0.7,0.3-0.7,0.7v1.4h-1.3v-3.3h32.2L53.1,44.4L53.1,44.4z M53.1,39.7H20.9V29.4h32.2V39.7z"/>
	<path class="st2" d="M22.9,38.2h4c0.4,0,0.7-0.3,0.7-0.7v-5.9c0-0.4-0.3-0.7-0.7-0.7h-4c-0.4,0-0.7,0.3-0.7,0.7v5.9
		C22.2,37.9,22.5,38.2,22.9,38.2z M23.6,32.3h2.6v4.5h-2.6V32.3z"/>
	<path class="st2" d="M31,38.2h4c0.4,0,0.7-0.3,0.7-0.7v-5.9c0-0.4-0.3-0.7-0.7-0.7h-4c-0.4,0-0.7,0.3-0.7,0.7v5.9
		C30.3,37.9,30.6,38.2,31,38.2z M31.7,32.3h2.6v4.5h-2.6C31.7,36.8,31.7,32.3,31.7,32.3z"/>
	<path class="st2" d="M39,38.2h4c0.4,0,0.7-0.3,0.7-0.7v-5.9c0-0.4-0.3-0.7-0.7-0.7h-4c-0.4,0-0.7,0.3-0.7,0.7v5.9
		C38.3,37.9,38.6,38.2,39,38.2z M39.7,32.3h2.6v4.5h-2.6V32.3z"/>
	<path class="st2" d="M47.1,38.2h4c0.4,0,0.7-0.3,0.7-0.7v-5.9c0-0.4-0.3-0.7-0.7-0.7h-4c-0.4,0-0.7,0.3-0.7,0.7v5.9
		C46.4,37.9,46.7,38.2,47.1,38.2z M47.8,32.3h2.6v4.5h-2.6V32.3z"/>
</g>
</svg>
