<?xml version="1.0" encoding="utf-8"?>
<!-- Generator: Adobe Illustrator 21.0.0, SVG Export Plug-In . SVG Version: 6.00 Build 0)  -->
<svg version="1.1" id="Layer_1" xmlns="http://www.w3.org/2000/svg" xmlns:xlink="http://www.w3.org/1999/xlink" x="0px" y="0px"
	 viewBox="0 0 74 74" style="enable-background:new 0 0 74 74;" xml:space="preserve">
<style type="text/css">
	.st0{fill:none;stroke:#006FAF;stroke-width:2;stroke-miterlimit:10;}
	.st1{fill:#006FAF;}
</style>
<title>Azure_Site_Recovery</title>
<circle class="st0" cx="37" cy="37" r="36"/>
<g>
	<path class="st1" d="M44.2,27c0,0.4,0.1,0.7,0.1,1.1c0,0.1,0,0.3,0,0.4c0,0.3,0,0.6,0,0.8c0,0.3,0.1,0.4,0.3,0.3c0.1,0,0.3,0,0.4,0
		c0.4,0,0.7,0.1,1.1,0.1c0.1,0,0.2,0.1,0.3,0.1c0.3,0.1,0.6,0.2,0.9,0.3c0.1,0,0.1,0,0.2,0.1c0.3,0.2,0.5,0.3,0.8,0.5
		c0.1,0.1,0.2,0.1,0.2,0.2c0.2,0.2,0.4,0.4,0.6,0.6c0.1,0.1,0.2,0.2,0.3,0.3c0.2,0.2,0.3,0.4,0.5,0.7c0,0,0.1,0.1,0.1,0.1
		c0.1,0.3,0.3,0.6,0.4,0.8c0,0.1,0.1,0.2,0.1,0.3c0.1,0.3,0.2,0.7,0.2,1c0,0,0,0.1-0.1,0.1c-0.3-0.1-0.7-0.2-1.1-0.1
		c-0.2,0-0.3,0-0.5,0c-0.3,0-0.5,0-0.6-0.4c0-0.1-0.1-0.2-0.1-0.3c-0.1-0.3-0.2-0.5-0.4-0.7c-0.1-0.1-0.2-0.3-0.3-0.3
		c-0.2-0.2-0.3-0.4-0.6-0.5c-0.1-0.1-0.2-0.2-0.3-0.2c-0.3-0.2-0.6-0.3-0.9-0.3c-0.1-0.1-0.2-0.1-0.3-0.1c-0.4-0.1-0.8-0.1-1.1-0.1
		c-0.1,0-0.3,0-0.4,0c-0.4,0-0.7,0-1.1-0.1c-0.1-0.1-0.2-0.1-0.2-0.2c-0.2-0.2-0.3-0.4-0.4-0.6c0-0.1,0-0.2-0.1-0.3
		c0.1-0.4,0.1-0.9,0.1-1.3c0-0.1,0-0.3,0-0.4c0-0.4,0-0.7-0.1-1.1c0-0.1,0-0.3-0.1-0.4c0-0.3-0.1-0.6-0.3-0.9c0-0.1-0.1-0.3-0.2-0.4
		c-0.1-0.3-0.2-0.5-0.4-0.7c-0.1-0.1-0.1-0.3-0.2-0.3c-0.1-0.2-0.3-0.4-0.5-0.6c-0.1-0.1-0.2-0.2-0.3-0.3c-0.2-0.2-0.4-0.4-0.6-0.5
		c-0.1-0.1-0.1-0.1-0.2-0.2c-0.3-0.2-0.5-0.4-0.8-0.5c-0.1-0.1-0.1-0.1-0.2-0.1c-0.3-0.2-0.6-0.3-1-0.3c-0.1,0-0.2-0.1-0.3-0.1
		c-0.4-0.1-0.7-0.1-1.1-0.1c-0.2,0-0.3,0-0.5,0c-0.1,0-0.1,0-0.2,0c-0.5,0-0.9,0.1-1.3,0.3c-0.2,0-0.4,0.1-0.6,0.2
		c-0.7,0.3-1.3,0.6-1.9,1.1c-0.7,0.6-1.3,1.4-1.7,2.3c-0.1,0.3-0.3,0.5-0.7,0.6c-0.2,0.1-0.3-0.2-0.5-0.3c0,0,0,0,0,0
		c-0.1-0.1-0.2-0.1-0.3-0.2c-0.2-0.2-0.5-0.3-0.8-0.4c-0.1,0-0.2-0.1-0.3-0.1c-0.4-0.1-0.8-0.2-1.1-0.1c-0.2,0-0.3,0-0.5,0
		c-1.8,0.3-3.1,1.6-3.4,3.5c0,0.1,0,0.3,0,0.4c0,0.1,0,0.3,0,0.4c0,0.6,0,0.6-0.6,0.8c0,0-0.1,0-0.1,0c-1.6,0.6-2.5,1.7-2.8,3.4
		c0,0.2-0.1,0.3-0.1,0.5c-0.1,0.4,0,0.7,0.1,1.1c0,0.1,0.1,0.3,0.1,0.4c0.1,0.3,0.2,0.7,0.4,1c0,0.1,0.1,0.2,0.2,0.3
		c0.1,0.2,0.2,0.4,0.4,0.6c0.1,0.1,0.1,0.2,0.2,0.3c0.2,0.3,0.5,0.4,0.8,0.5c0.1,0,0.2,0.1,0.3,0.1c-0.1,0.3-0.4,0.4-0.6,0.6
		c-0.1,0.2-0.3,0.4-0.4,0.6c-0.1,0.5-0.4,0.5-0.7,0.2c0,0-0.1,0-0.1-0.1c-0.2-0.2-0.5-0.4-0.7-0.5c-0.1-0.1-0.2-0.2-0.2-0.3
		c-0.2-0.2-0.3-0.4-0.5-0.6c-0.1-0.1-0.2-0.2-0.2-0.4c-0.1-0.2-0.2-0.4-0.3-0.6c0-0.1-0.1-0.2-0.2-0.3c-0.5-1.3-0.7-2.6-0.4-4
		c0.1-0.2,0.1-0.4,0.2-0.6c0.6-1.6,1.6-2.9,3.1-3.7c0.3-0.2,0.1-0.6,0.2-0.8c0-0.2,0.1-0.4,0.1-0.6c0.4-1.2,1-2.2,2-3
		c0.6-0.5,1.3-0.9,2.1-1.1c0.2,0,0.4-0.1,0.6-0.1c0.4,0,0.9-0.1,1.3-0.1c0.1,0,0.3,0,0.4,0c0.4,0.1,0.7,0.1,1.1,0.2
		c0.1,0,0.2,0.1,0.3,0.1c0.4,0.2,0.6,0.2,0.9-0.2c0.7-1,1.7-1.8,2.7-2.4c0.1-0.1,0.3-0.2,0.4-0.2c0.2-0.1,0.5-0.2,0.7-0.3
		c0.5-0.2,1.1-0.3,1.6-0.5c0.2,0,0.3,0,0.5-0.1c0.4,0,0.9,0,1.3-0.1c0.1,0,0.3,0,0.4,0c0.3,0,0.7,0.1,1,0.1c0.1,0,0.2,0,0.3,0.1
		c0.3,0.1,0.7,0.2,1,0.3c0,0.1,0.1,0.1,0.2,0.1c0.3,0.1,0.6,0.3,0.9,0.4c0.1,0,0.1,0.1,0.2,0.1c0.2,0.2,0.5,0.3,0.7,0.5
		c0.1,0.1,0.2,0.2,0.3,0.3c0.2,0.2,0.4,0.4,0.7,0.6c0,0,0.1,0.1,0.1,0.1c0.2,0.2,0.4,0.4,0.6,0.7c0.1,0.1,0.1,0.2,0.2,0.2
		c0.2,0.2,0.3,0.5,0.5,0.7c0,0.1,0.1,0.2,0.1,0.2c0.1,0.3,0.3,0.5,0.4,0.8c0,0.1,0.1,0.2,0.1,0.3c0.1,0.4,0.2,0.8,0.3,1.1
		C44.2,26.9,44.2,27,44.2,27z"/>
	<path class="st1" d="M38.5,50.4c-0.1-0.2-0.2-0.4-0.4-0.7c0-0.1-0.1-0.3-0.1-0.4c0-0.4,0-0.7-0.1-1.1c0-0.1,0-0.3,0-0.4
		c0-0.4,0-0.8-0.1-1.2c0-0.1,0-0.3,0-0.4c0-0.4,0-0.8-0.1-1.1c0-0.1,0-0.3,0-0.4c0-0.4,0-0.8-0.1-1.1c0-0.1,0-0.3,0-0.4
		c0-0.4,0-0.8-0.1-1.1c0-0.1,0-0.3,0-0.4c0-0.4,0-0.7-0.1-1.1c0-0.2,0-0.3,0-0.5c0.2-0.7,0.7-1.2,1.5-1.4c0.1,0,0.3,0,0.4,0
		c0.4,0,0.8,0,1.2,0c0.1,0,0.3,0,0.4,0c0.4,0,0.8,0,1.2,0c0.1,0,0.3,0,0.4,0c0.4,0,0.8,0,1.2,0c0.1,0,0.3,0,0.4,0c0.4,0,0.8,0,1.2,0
		c0.1,0,0.3,0,0.4,0c0.4,0,0.8,0,1.2,0c0.1,0,0.3,0,0.4,0c0.4,0,0.8,0,1.2,0c0.1,0,0.3,0,0.4,0c0.4,0,0.8,0,1.2,0c0.1,0,0.3,0,0.4,0
		c0.4,0,0.8,0,1.2,0c0.1,0,0.3,0,0.4,0c0.4,0,0.8,0,1.2,0c0.1,0,0.3,0,0.4,0c0.4,0,0.8,0.1,1.1,0.1c0.1,0,0.2,0.1,0.2,0.1
		c0.2,0.2,0.4,0.3,0.6,0.5c0.1,0.1,0.1,0.2,0.2,0.3c0.4,0.7,0.2,1.4,0.2,2.1c0,0.2,0,0.3,0,0.5c0,0.2,0,0.3,0,0.5
		c0,0.4-0.1,0.9-0.1,1.3c0,0.1,0,0.3,0,0.4c-0.1,0.4-0.1,0.9-0.1,1.3c-0.1,0.2-0.1,0.3,0,0.5c0,0.4-0.1,0.9-0.1,1.3
		c0,0.1,0,0.3,0,0.4C56,48.3,56,48.8,56,49.2c0,0.2,0,0.3-0.1,0.5c-0.2,0.7-0.7,1.1-1.3,1.3c-0.2,0-0.3,0-0.5,0.1
		c-0.4,0-0.8,0-1.2,0c-0.1,0-0.3,0-0.4,0c-0.4,0-0.8,0-1.2,0c-0.1,0-0.3,0-0.4,0c-0.4,0-0.8,0-1.2,0c-0.1,0-0.3,0-0.4,0
		c-0.4,0-0.8,0-1.2,0c-0.1,0-0.3,0-0.4,0c-0.4,0-0.8,0-1.2,0c-0.1,0-0.3,0-0.4,0c-0.4,0-0.8,0-1.2,0c-0.1,0-0.3,0-0.4,0
		c-0.4,0-0.8,0-1.2,0c-0.1,0-0.3,0-0.4,0c-0.4,0-0.8,0-1.2,0c-0.1,0-0.3,0-0.4,0c-0.4,0-0.8,0-1.2,0c-0.1,0-0.2,0-0.3-0.1
		c-0.2-0.1-0.5-0.2-0.7-0.3C38.7,50.6,38.6,50.5,38.5,50.4z M39.7,39.7c-0.9-0.1-1.3,0.3-1.2,1.1c0,0.4,0,0.8,0.1,1.1
		c0,0.1,0,0.3,0,0.4c0,0.4,0,0.8,0.1,1.1c0,0.1,0,0.3,0,0.4c0,0.4,0,0.8,0.1,1.1c0,0.1,0,0.3,0,0.4c0,0.4,0,0.7,0.1,1.1
		c0,0.1,0,0.3,0,0.4c0,0.4,0,0.8,0.1,1.2c0,0.1,0,0.3,0,0.4c0,0.4-0.1,0.8,0.2,1.2c0.1,0.1,0.1,0.2,0.3,0.2c0.4,0.2,0.8,0.1,1.1,0.1
		c0.1,0,0.3,0,0.4,0c0.4,0,0.8,0,1.2,0c0.1,0,0.3,0,0.4,0c0.4,0,0.8,0,1.2,0c0.1,0,0.3,0,0.4,0c0.4,0,0.8,0,1.2,0c0.1,0,0.3,0,0.4,0
		c0.4,0,0.8,0,1.2,0c0.1,0,0.3,0,0.4,0c0.4,0,0.8,0,1.2,0c0.1,0,0.3,0,0.4,0c0.4,0,0.8,0,1.2,0c0.1,0,0.3,0,0.4,0c0.4,0,0.8,0,1.2,0
		c0.1,0,0.3,0,0.4,0c0.4,0,0.8,0,1.2,0c0.7,0.1,1.1-0.2,1.2-0.7c0-0.2,0-0.3,0-0.5c0-0.4,0.1-0.8,0.1-1.2c0-0.2,0-0.3,0-0.5
		c0-0.4,0.1-0.9,0.1-1.3c0-0.1,0-0.3,0-0.4c0.1-0.4,0.1-0.9,0.1-1.3c0-0.2,0.1-0.3,0-0.5c0-0.4,0.1-0.9,0.1-1.3c0-0.1,0-0.3,0-0.4
		c0.1-0.4,0.1-0.9,0.1-1.3c0-0.2,0-0.3-0.1-0.5c-0.2-0.4-0.6-0.4-0.9-0.4c-0.1,0-0.3,0-0.4,0c-0.4,0-0.8,0-1.2,0c-0.1,0-0.3,0-0.4,0
		c-0.4,0-0.8,0-1.2,0c-0.1,0-0.3,0-0.4,0c-0.4,0-0.8,0-1.2,0c-0.1,0-0.3,0-0.4,0c-0.4,0-0.8,0-1.2,0c-0.1,0-0.3,0-0.4,0
		c-0.4,0-0.8,0-1.2,0c-0.1,0-0.3,0-0.4,0c-0.4,0-0.8,0-1.2,0c-0.1,0-0.3,0-0.4,0c-0.4,0-0.8,0-1.2,0c-0.1,0-0.3,0-0.4,0
		c-0.4,0-0.8,0-1.2,0c-0.1,0-0.3,0-0.4,0C40.5,39.7,40.1,39.7,39.7,39.7z"/>
	<path class="st1" d="M22,40.9c0-0.2,0.1-0.3,0.3-0.5c0.6-0.7,1.3-1.4,1.9-2.1c0.2-0.2,0.4-0.3,0.6-0.3c0.1,0.1,0.2,0.1,0.3,0.2
		c0.2,0.2,0.4,0.4,0.6,0.6c0,0.1,0.1,0.2,0.2,0.2c0.2,0.2,0.3,0.4,0.5,0.6c0.1,0.1,0.2,0.2,0.2,0.3c0.1,0.2,0.3,0.4,0.5,0.5
		c0.1,0.1,0.1,0.2,0.2,0.2c0,0.4-0.2,0.6-0.6,0.6c-1.4,0-1.1-0.3-1.1,1.1c0,0.4,0,0.8,0.1,1.2c0,0.1,0,0.2,0,0.3
		c0,0.3,0,0.6,0.1,0.9c0,0.1,0,0.2,0,0.2c0,0.1,0.1,0.2,0.1,0.3c0.1,0.3,0.2,0.6,0.4,0.9c0,0.1,0.1,0.2,0.2,0.2
		c0.2,0.3,0.4,0.5,0.7,0.7c0.1,0.1,0.1,0.1,0.2,0.2c0.2,0.2,0.5,0.3,0.8,0.4c0.1,0.1,0.3,0.1,0.4,0.1c0.3,0.1,0.6,0.2,1,0.2
		c0.1,0,0.2,0,0.3,0c0.4,0,0.8,0.1,1.2,0c0.2,0,0.3,0,0.5,0c0.3,0.1,0.5,0.2,0.7,0.4c0,0,0.1,0.1,0.1,0.1c0.2,1-0.2,1.4-1.2,1.5
		c-0.1,0-0.2,0-0.3,0c-0.1,0-0.3,0-0.4,0c-0.4,0-0.8,0-1.2,0c-0.1,0-0.3,0-0.4,0c-0.3-0.1-0.7-0.1-1-0.2c-0.1,0-0.2-0.1-0.3-0.1
		c-0.2-0.1-0.5-0.2-0.7-0.3c-0.1-0.1-0.2-0.1-0.3-0.2c-0.2-0.2-0.5-0.3-0.7-0.5c-0.1-0.1-0.2-0.1-0.3-0.2c-0.2-0.2-0.3-0.3-0.5-0.5
		c-0.1-0.1-0.1-0.2-0.2-0.3c-0.2-0.2-0.3-0.5-0.5-0.7c-0.1-0.1-0.1-0.2-0.2-0.3c-0.1-0.3-0.2-0.5-0.3-0.8c0-0.1-0.1-0.3-0.1-0.4
		c0-0.4-0.1-0.8-0.1-1.1c0-0.1,0-0.2,0-0.3c0-0.4,0-0.8-0.1-1.2c0-0.1,0-0.2,0-0.3c0-0.4,0-0.8-0.1-1.2c-0.2-0.1-0.3-0.1-0.5-0.1
		c-0.3-0.1-0.7,0.1-1-0.2C22.1,41,22,40.9,22,40.9z"/>
	<path class="st1" d="M53.1,36.3c0.4,0,0.9,0,1.3,0c0,0,0.1,0,0.1,0.1c0.3,0.2,0.3,0.6,0.3,0.9c0,0.1,0,0.3-0.1,0.4
		c0,0-0.1,0-0.1,0.1c-0.1,0-0.2,0-0.3,0c-0.4,0-0.9,0-1.3,0c-0.1,0-0.2,0-0.3,0c-0.4,0-0.9,0-1.3,0c-0.1,0-0.2,0-0.3,0
		c-0.4,0-0.9,0-1.3,0c-0.1,0-0.2,0-0.3,0c-0.4,0-0.9,0-1.3,0c-0.1,0-0.2,0-0.3,0c-0.4,0-0.9,0-1.3,0c-0.1,0-0.2,0-0.3,0
		c-0.4,0-0.9,0-1.3,0c-0.1,0-0.2,0-0.3,0c-0.4,0-0.9,0-1.3,0c-0.1,0-0.2,0-0.3,0c-0.4,0-0.9,0-1.3,0c-0.1,0-0.2,0-0.3,0
		c-0.4,0-0.9,0-1.3,0c-0.1,0-0.2,0-0.3,0c-0.3,0-0.6,0-0.6-0.4c0-0.2,0-0.3,0-0.5c0-0.1,0.1-0.3,0.2-0.4c0.3-0.2,0.5-0.6,0.6-1
		c0.1-0.4,0.3-0.6,0.7-0.6c0.1,0,0.3,0,0.4,0c0.1,0,0.2,0,0.3,0c0.4,0,0.9,0,1.3,0c0.1,0,0.3,0,0.4,0c0.4,0,0.8,0,1.2,0
		c0.1,0,0.2,0,0.3,0c0.3,0,0.7,0,1,0.3c0,0,0.1,0.1,0.1,0.1c0.1,0.3,0,0.7,0.4,0.9c0.1,0.1,0.3,0.1,0.5,0.1c0.4,0,0.9,0,1.3,0
		c0.1,0,0.2,0,0.3,0c0.4,0,0.9,0,1.3,0c0.1,0,0.2,0,0.3,0c0.4,0,0.9,0,1.3,0c0.1,0,0.2,0,0.3,0c0.4,0,0.9,0,1.3,0
		C52.9,36.3,53,36.3,53.1,36.3z"/>
	<path class="st1" d="M35.7,40c0,0.2,0,0.3,0,0.5c-0.1,0.3,0.1,0.7-0.1,0.8c-0.2,0.1-0.5,0-0.8,0.1c-0.1,0-0.3,0-0.4,0
		c-0.4,0-0.8,0-1.2,0c-0.1,0-0.3,0-0.4,0c-0.4-0.1-0.8,0-1.2,0c-0.1,0-0.3,0-0.4,0c-0.4,0-0.8,0-1.1,0c-0.1,0-0.3,0-0.4,0
		c-0.1,0-0.2,0-0.3,0c-0.2,0-0.4,0-0.4-0.3c0-0.1,0-0.2-0.1-0.3c-0.1-0.4-0.2-0.7-0.5-0.9c0-0.1-0.1-0.2-0.2-0.2
		c0-0.3,0.2-0.1,0.3-0.2c0.1,0,0.3,0,0.4,0c0.4,0,0.8,0,1.2,0c0.1,0,0.3,0,0.4,0c0.4,0,0.8,0,1.2,0c0.1,0,0.3,0,0.4,0
		c0.4,0,0.9,0,1.3,0c0.1,0,0.2,0,0.3,0c0.4,0,0.9,0,1.3,0c0.1,0,0.2,0,0.3,0C35.8,39.4,35.6,39.8,35.7,40z"/>
</g>
</svg>
