<?xml version="1.0" encoding="utf-8"?>
<!-- Generator: Adobe Illustrator 21.0.2, SVG Export Plug-In . SVG Version: 6.00 Build 0)  -->
<svg version="1.1" id="Layer_1" xmlns="http://www.w3.org/2000/svg" xmlns:xlink="http://www.w3.org/1999/xlink" x="0px" y="0px"
	 viewBox="0 0 74 74" style="enable-background:new 0 0 74 74;" xml:space="preserve">
<style type="text/css">
	.st0{fill:#006FAF;}
</style>
<title>health-checks</title>
<path class="st0" d="M37,74C16.6,74,0,57.4,0,37S16.6,0,37,0s37,16.6,37,37S57.4,74,37,74z M37,2C17.7,2,2,17.7,2,37s15.7,35,35,35
	s35-15.7,35-35S56.3,2,37,2z"/>
<g>
</g>
<path class="st0" d="M49,35.2c0-1.1,0-2.3,0-3.4c0-0.4-0.1-0.4-0.4-0.4c-0.1,0-0.2,0-0.3,0c-0.7,0-1.4,0-2.1,0c-1.8,0-3.7,0-5.5,0
	c-0.2,0-0.3-0.2-0.4-0.3c-1.3-1.3-2.6-2.6-3.9-3.9c-0.1-0.1-0.2-0.2-0.3-0.4c0-1.1,0-2.2,0-3.3c0-1.5,0-3,0-4.5c0-0.1,0-0.3-0.1-0.4
	c-0.1,0-0.3,0-0.4,0c-3.5,0-7.1,0-10.6,0c0,3.7,0,7.3,0,11c0.1,0.1,0.3,0.1,0.4,0.1c1,0,2,0,3,0c1.6,0,3.3,0,4.9,0
	c0.1,0,0.2,0.1,0.3,0.2c1.4,1.4,2.8,2.7,4.1,4.1c0.1,0.1,0.1,0.3,0.1,0.5c0,1.6,0,3.2,0,4.9c0,0.4-0.1,0.6-0.4,0.9
	c-1.2,1.2-2.5,2.5-3.7,3.7c-0.2,0.2-0.5,0.4-0.8,0.4c-2.5,0-4.9,0-7.4,0c-0.2,0-0.4,0-0.5,0.1c0,3.7,0,7.3,0,11
	c0.1,0.1,0.3,0.1,0.5,0.1c1.1,0,2.1,0,3.2,0c2.3,0,4.5,0,6.8,0c0.6,0,0.6,0,0.6-0.6c0-0.1,0-0.2,0-0.3c0-2.3,0-4.5,0-6.8
	c0-0.3,0-0.5,0.1-0.8c0.2-0.3,0.5-0.5,0.8-0.8c0.2-0.2,0.5-0.5,0.7-0.7s0.5-0.5,0.7-0.7s0.5-0.5,0.7-0.7s0.5-0.5,0.7-0.7
	c0.3-0.2,0.5-0.6,0.8-0.7c2.6,0,5.1,0,7.7,0c0.2,0,0.4,0,0.6-0.1c0.1-0.1,0.1-0.2,0.1-0.3c0-1,0-2.1,0-3.1C49,37.7,49,36.5,49,35.2z
	 M32.4,26h-3.8v-3.8h3.8V26z M32.5,51.8h-3.8V48h3.8V51.8z"/>
</svg>
