<?xml version="1.0" encoding="utf-8"?>
<!-- Generator: Adobe Illustrator 21.0.2, SVG Export Plug-In . SVG Version: 6.00 Build 0)  -->
<svg version="1.1" id="Layer_1" xmlns="http://www.w3.org/2000/svg" xmlns:xlink="http://www.w3.org/1999/xlink" x="0px" y="0px"
	 viewBox="0 0 74 74" style="enable-background:new 0 0 74 74;" xml:space="preserve">
<style type="text/css">
	.st0{fill:#006FAF;}
</style>
<title>os-patch-management</title>
<g id="text">
</g>
<path class="st0" d="M37,74C16.6,74,0,57.4,0,37S16.6,0,37,0s37,16.6,37,37S57.4,74,37,74z M37,2C17.7,2,2,17.7,2,37s15.7,35,35,35
	s35-15.7,35-35S56.3,2,37,2z"/>
<g>
	<path class="st0" d="M8.6,37v2.6H7.5v-6.9h2.7c0.8,0,1.3,0.2,1.8,0.6s0.6,0.9,0.6,1.5S12.4,36,12,36.3c-0.4,0.4-1,0.6-1.8,0.6H8.6
		V37z M8.6,36.1h1.5c0.4,0,0.7-0.1,1-0.3c0.2-0.2,0.3-0.5,0.3-0.9c0-0.3-0.1-0.6-0.3-0.9c-0.2-0.2-0.5-0.3-1-0.3H8.6V36.1z"/>
	<path class="st0" d="M15.3,37.6l0.1,0.5l0,0l1.1-3.6h1.3l-2.1,5.9c-0.1,0.4-0.3,0.7-0.6,0.9s-0.6,0.4-1,0.4c-0.1,0-0.2,0-0.3,0
		s-0.2,0-0.3-0.1l0.1-0.9c0,0,0.1,0,0.2,0c0.1,0,0.1,0,0.2,0c0.2,0,0.4-0.1,0.5-0.2s0.2-0.3,0.3-0.5l0.2-0.5l-1.8-5h1.2L15.3,37.6z"
		/>
	<path class="st0" d="M20,33.3v1.2h0.9v0.8H20v2.8c0,0.2,0,0.4,0.1,0.4c0.1,0.1,0.2,0.1,0.4,0.1c0.1,0,0.1,0,0.2,0s0.1,0,0.2,0
		l0.1,0.8c-0.1,0.1-0.2,0.1-0.3,0.1s-0.3,0-0.4,0c-0.4,0-0.7-0.1-1-0.4c-0.2-0.2-0.4-0.6-0.4-1.2v-2.8H18v-0.8h0.8v-1.2H20V33.3z"/>
	<path class="st0" d="M23,35.2c0.2-0.2,0.4-0.4,0.6-0.6c0.2-0.1,0.5-0.2,0.8-0.2c0.5,0,1,0.2,1.3,0.5s0.5,0.9,0.5,1.6v3.1H25v-3.1
		c0-0.4-0.1-0.7-0.2-0.9c-0.2-0.2-0.4-0.3-0.7-0.3c-0.2,0-0.4,0-0.6,0.1s-0.3,0.2-0.4,0.4v3.7H22v-7.3h1V35.2z"/>
	<path class="st0" d="M27.1,37c0-0.8,0.2-1.4,0.6-1.9s1-0.7,1.7-0.7s1.3,0.2,1.7,0.7c0.4,0.5,0.6,1.1,0.6,1.9v0.1
		c0,0.8-0.2,1.4-0.6,1.9s-1,0.7-1.7,0.7s-1.3-0.2-1.7-0.7S27.1,37.9,27.1,37L27.1,37z M28.3,37.1c0,0.5,0.1,0.9,0.3,1.2
		c0.2,0.3,0.5,0.5,0.9,0.5s0.7-0.2,0.9-0.5c0.2-0.3,0.3-0.7,0.3-1.2V37c0-0.5-0.1-0.9-0.3-1.2c-0.2-0.3-0.5-0.5-0.9-0.5
		s-0.7,0.2-0.9,0.5C28.4,36.2,28.3,36.6,28.3,37.1L28.3,37.1z"/>
	<path class="st0" d="M33.8,34.6l0.1,0.7c0.2-0.3,0.4-0.5,0.6-0.6c0.3-0.1,0.5-0.2,0.9-0.2c0.5,0,0.9,0.2,1.2,0.5s0.4,0.8,0.4,1.5
		v3.2h-1.1v-3.2c0-0.4-0.1-0.7-0.2-0.8c-0.2-0.2-0.4-0.2-0.7-0.2c-0.2,0-0.4,0-0.6,0.1c-0.2,0.1-0.3,0.2-0.4,0.4v3.7h-1.1v-5.1
		C32.9,34.6,33.8,34.6,33.8,34.6z"/>
	<path class="st0" d="M39.4,37.8L39.4,37.8L39.4,37.8l1.4-5h0.9l1.4,5l0,0l0,0l1.1-5h1.1l-1.6,6.9h-1l-1.4-4.9l0,0l-1.4,4.9h-1
		l-1.6-6.9h1.1L39.4,37.8z"/>
	<path class="st0" d="M48.2,39.7c-0.7,0-1.3-0.2-1.7-0.7s-0.6-1.1-0.6-1.8V37c0-0.7,0.2-1.4,0.6-1.8c0.4-0.5,1-0.7,1.6-0.7
		c0.7,0,1.2,0.2,1.6,0.6c0.4,0.4,0.5,1,0.5,1.7v0.7H47l0,0c0,0.4,0.1,0.7,0.4,1c0.2,0.3,0.5,0.4,0.9,0.4c0.3,0,0.6,0,0.8-0.1
		s0.4-0.2,0.6-0.3l0.4,0.7c-0.2,0.2-0.4,0.3-0.8,0.4C49,39.7,48.6,39.7,48.2,39.7z M48,35.4c-0.3,0-0.5,0.1-0.7,0.3S47,36.2,47,36.6
		l0,0h2v-0.1c0-0.3-0.1-0.6-0.2-0.8C48.6,35.5,48.4,35.4,48,35.4z"/>
	<path class="st0" d="M55.6,37.3c0,0.7-0.2,1.3-0.5,1.8s-0.8,0.7-1.5,0.7c-0.3,0-0.6-0.1-0.8-0.2c-0.2-0.1-0.4-0.3-0.6-0.6l-0.1,0.7
		h-1v-7.3h1.1v2.8c0.2-0.2,0.3-0.4,0.6-0.5c0.2-0.1,0.5-0.2,0.8-0.2c0.6,0,1.1,0.2,1.5,0.7C55.4,35.7,55.6,36.4,55.6,37.3L55.6,37.3
		z M54.4,37.2c0-0.5-0.1-1-0.3-1.3s-0.5-0.5-0.9-0.5c-0.3,0-0.5,0.1-0.6,0.2c-0.2,0.1-0.3,0.3-0.4,0.5v2.1c0.1,0.2,0.2,0.4,0.4,0.5
		s0.4,0.2,0.6,0.2c0.4,0,0.7-0.1,0.9-0.4C54.3,38.1,54.4,37.7,54.4,37.2L54.4,37.2z"/>
	<path class="st0" d="M58.2,37.4h-0.5v2.2h-1.1v-7.3h1.1v4.2h0.5l1.3-1.9h1.3l-1.7,2.3l1.9,2.8h-1.3L58.2,37.4z"/>
	<path class="st0" d="M62.8,33.3h-1.1v-1h1.1V33.3z M62.8,39.6h-1.1v-5.1h1.1V39.6z"/>
	<path class="st0" d="M65.5,33.3v1.2h0.9v0.8h-0.9v2.8c0,0.2,0,0.4,0.1,0.4s0.2,0.1,0.4,0.1c0.1,0,0.1,0,0.2,0s0.1,0,0.2,0l0.1,0.8
		c-0.1,0.1-0.2,0.1-0.3,0.1c-0.1,0-0.3,0-0.4,0c-0.4,0-0.8-0.1-1-0.4s-0.4-0.6-0.4-1.2v-2.8h-0.8v-0.8h0.8v-1.2h1.1V33.3z"/>
</g>
</svg>
