<?xml version="1.0" encoding="utf-8"?>
<!-- Generator: Adobe Illustrator 21.0.2, SVG Export Plug-In . SVG Version: 6.00 Build 0)  -->
<svg version="1.1" id="Layer_1" xmlns="http://www.w3.org/2000/svg" xmlns:xlink="http://www.w3.org/1999/xlink" x="0px" y="0px"
	 viewBox="0 0 74 74" style="enable-background:new 0 0 74 74;" xml:space="preserve">
<style type="text/css">
	.st0{fill:#006FAF;}
</style>
<title>os-patch-management</title>
<g id="text">
</g>
<path class="st0" d="M37,74C16.6,74,0,57.4,0,37S16.6,0,37,0s37,16.6,37,37S57.4,74,37,74z M37,2C17.7,2,2,17.7,2,37s15.7,35,35,35
	s35-15.7,35-35S56.3,2,37,2z"/>
<g>
	<path class="st0" d="M21.8,34.8c0,0.4-0.1,0.7-0.2,1s-0.3,0.6-0.5,0.8s-0.5,0.4-0.9,0.5s-0.7,0.2-1.2,0.2h-0.6v2.2v0.1l-0.1,0.1
		c0,0-0.1,0-0.2,0s-0.2,0-0.3,0c-0.1,0-0.3,0-0.3,0c-0.1,0-0.2,0-0.2,0c-0.1,0-0.1,0-0.1-0.1v-0.1v-6.3c0-0.2,0-0.3,0.1-0.4
		s0.2-0.1,0.3-0.1h1.7c0.2,0,0.3,0,0.5,0s0.3,0,0.5,0.1c0.2,0,0.4,0.1,0.6,0.2s0.4,0.3,0.5,0.4c0.2,0.2,0.3,0.4,0.3,0.6
		S21.8,34.5,21.8,34.8z M20.3,34.9c0-0.2,0-0.4-0.1-0.6S20,34,19.9,34c-0.1-0.1-0.3-0.1-0.4-0.1s-0.3,0-0.4,0h-0.6v2.4h0.6
		c0.2,0,0.4,0,0.6-0.1s0.3-0.1,0.4-0.3c0.1-0.1,0.2-0.2,0.2-0.4C20.3,35.3,20.3,35.1,20.3,34.9z"/>
	<path class="st0" d="M25.7,39.7l-0.6,1.7c0,0.1-0.1,0.2-0.3,0.2c-0.1,0-0.4,0.1-0.6,0.1c-0.1,0-0.3,0-0.3,0c-0.1,0-0.2,0-0.2-0.1
		l-0.1-0.1c0,0,0-0.1,0-0.2l0.6-1.6l-0.1-0.1L24,39.5L22.4,35c0-0.1-0.1-0.2-0.1-0.3s0-0.1,0.1-0.2c0,0,0.1-0.1,0.2-0.1s0.2,0,0.4,0
		c0.2,0,0.3,0,0.4,0s0.2,0,0.2,0c0.1,0,0.1,0.1,0.1,0.1s0.1,0.1,0.1,0.2l1.1,3.2l0,0l1-3.3c0-0.1,0-0.2,0.1-0.2s0.1-0.1,0.2-0.1
		s0.2,0,0.4,0c0.2,0,0.3,0,0.4,0s0.2,0,0.2,0.1c0,0,0.1,0.1,0.1,0.2s0,0.1,0,0.2L25.7,39.7z"/>
	<path class="st0" d="M35.6,39.3c0,0.1-0.1,0.2-0.1,0.2c0,0.1-0.1,0.1-0.2,0.1c-0.1,0-0.2,0-0.3,0.1c-0.1,0-0.3,0-0.5,0
		s-0.4,0-0.5,0s-0.2,0-0.3-0.1c-0.1,0-0.1-0.1-0.2-0.1s-0.1-0.1-0.1-0.2l-1.1-4.4l0,0l-1.1,4.4c0,0.1,0,0.2-0.1,0.2
		c0,0.1-0.1,0.1-0.2,0.1s-0.2,0-0.3,0.1c-0.1,0-0.3,0-0.5,0s-0.4,0-0.5,0s-0.2,0-0.3-0.1c-0.1,0-0.1-0.1-0.2-0.1S29,39.4,29,39.3
		l-1.6-6.1c0-0.1-0.1-0.2-0.1-0.3s0-0.1,0.1-0.2c0,0,0.1-0.1,0.2-0.1s0.2,0,0.4,0c0.2,0,0.3,0,0.4,0s0.2,0,0.2,0s0.1,0,0.1,0.1
		c0,0,0,0.1,0,0.2l1.2,5.4l0,0l1.3-5.3c0-0.1,0-0.1,0.1-0.2l0.1-0.1c0.1,0,0.1,0,0.2,0s0.2,0,0.4,0c0.2,0,0.3,0,0.4,0
		c0.1,0,0.2,0,0.2,0c0.1,0,0.1,0.1,0.1,0.1s0,0.1,0.1,0.2l1.3,5.3l0,0l1.2-5.4c0-0.1,0-0.1,0-0.1l0.1-0.1c0.1,0,0.1,0,0.2,0
		s0.2,0,0.4,0s0.3,0,0.4,0c0.1,0,0.2,0,0.2,0.1c0,0,0.1,0.1,0.1,0.2c0,0.1,0,0.2-0.1,0.3L35.6,39.3z"/>
	<path class="st0" d="M39.7,33c0,0.3-0.1,0.5-0.2,0.6c-0.1,0.1-0.3,0.2-0.6,0.2s-0.5-0.1-0.6-0.2c-0.1-0.1-0.2-0.3-0.2-0.5
		c0-0.3,0.1-0.5,0.2-0.6c0.1-0.1,0.3-0.2,0.6-0.2s0.5,0.1,0.6,0.2C39.6,32.6,39.7,32.8,39.7,33z M39.6,39.5
		C39.6,39.5,39.6,39.6,39.6,39.5c-0.1,0.1-0.1,0.1-0.1,0.2c-0.1,0-0.1,0-0.2,0c-0.1,0-0.2,0-0.3,0s-0.2,0-0.3,0s-0.2,0-0.2,0
		c-0.1,0-0.1,0-0.1-0.1v-0.1v-4.8v-0.1l0.1-0.1c0.1,0,0.1,0,0.2,0c0.1,0,0.2,0,0.3,0s0.2,0,0.3,0s0.2,0,0.2,0c0.1,0,0.1,0,0.1,0.1
		v0.1V39.5z"/>
	<path class="st0" d="M45.5,39.5C45.5,39.5,45.5,39.6,45.5,39.5c-0.1,0.1-0.1,0.1-0.1,0.2c-0.1,0-0.1,0-0.2,0c-0.1,0-0.2,0-0.3,0
		s-0.2,0-0.3,0s-0.2,0-0.2,0s-0.1,0-0.1-0.1v-0.1v-2.8c0-0.2,0-0.4-0.1-0.6c0-0.1-0.1-0.2-0.1-0.3s-0.1-0.2-0.3-0.2
		c-0.1-0.1-0.2-0.1-0.4-0.1s-0.3,0.1-0.5,0.2c-0.2,0.1-0.4,0.3-0.6,0.6v3.2v0.1c0,0-0.1,0-0.1,0.1c-0.1,0-0.1,0-0.2,0
		c-0.1,0-0.2,0-0.3,0s-0.2,0-0.3,0s-0.2,0-0.2,0c-0.1,0-0.1,0-0.1-0.1s0-0.1,0-0.1v-4.8v-0.1c0,0,0.1,0,0.1-0.1s0.1,0,0.2,0
		c0.1,0,0.2,0,0.3,0s0.2,0,0.3,0s0.1,0,0.2,0c0,0,0.1,0,0.1,0.1s0,0.1,0,0.1v0.6c0.3-0.3,0.5-0.5,0.8-0.6s0.6-0.2,0.9-0.2
		c0.3,0,0.6,0.1,0.8,0.2c0.2,0.1,0.4,0.3,0.5,0.4c0.1,0.2,0.2,0.4,0.3,0.7c0.1,0.2,0.1,0.5,0.1,0.9v2.8H45.5z"/>
	<path class="st0" d="M51.3,37.6c0,0.4-0.1,0.7-0.2,0.9c-0.1,0.3-0.3,0.5-0.6,0.7c-0.2,0.2-0.5,0.3-0.9,0.4
		c-0.3,0.1-0.7,0.1-1.1,0.1c-0.2,0-0.5,0-0.7-0.1s-0.4-0.1-0.6-0.1c-0.2-0.1-0.3-0.1-0.4-0.2c-0.1-0.1-0.2-0.1-0.2-0.1l-0.1-0.1V39
		c0,0,0-0.1,0-0.2c0-0.1,0-0.2,0-0.3c0-0.2,0-0.3,0-0.4c0-0.1,0.1-0.1,0.1-0.1s0.1,0,0.2,0.1c0.1,0,0.2,0.1,0.3,0.2
		c0.1,0.1,0.3,0.1,0.5,0.2c0.2,0,0.4,0.1,0.6,0.1c0.2,0,0.4,0,0.5-0.1c0.2,0,0.3-0.1,0.4-0.2c0.1-0.1,0.2-0.2,0.2-0.3
		c0.1-0.1,0.1-0.3,0.1-0.4c0-0.2,0-0.3-0.1-0.4c-0.1-0.1-0.2-0.2-0.3-0.3s-0.3-0.2-0.5-0.2c-0.2-0.1-0.4-0.1-0.7-0.1h-0.6h-0.1
		c0,0-0.1,0-0.1-0.1c0,0,0-0.1,0-0.2c0-0.1,0-0.2,0-0.3s0-0.2,0-0.3s0-0.1,0-0.2c0,0,0-0.1,0.1-0.1h0.1h0.6c0.2,0,0.4,0,0.6-0.1
		c0.2,0,0.3-0.1,0.4-0.2c0.1-0.1,0.2-0.2,0.3-0.3s0.1-0.3,0.1-0.4c0-0.1,0-0.2-0.1-0.3c0-0.1-0.1-0.2-0.2-0.3
		c-0.1-0.1-0.2-0.1-0.3-0.2c-0.1,0-0.3-0.1-0.4-0.1c-0.2,0-0.4,0-0.5,0.1c-0.2,0.1-0.3,0.1-0.4,0.2c-0.1,0.1-0.2,0.1-0.3,0.2
		c-0.1,0.1-0.2,0.1-0.2,0.1h-0.1c0,0,0,0-0.1-0.1c0,0,0-0.1,0-0.2c0-0.1,0-0.2,0-0.3s0-0.2,0-0.2c0-0.1,0-0.1,0-0.1v-0.1
		c0,0,0-0.1,0.1-0.1c0,0,0.1-0.1,0.2-0.2c0.1-0.1,0.3-0.1,0.4-0.2c0.2-0.1,0.4-0.1,0.6-0.2c0.2,0,0.5-0.1,0.7-0.1
		c0.3,0,0.6,0,0.9,0.1c0.3,0.1,0.5,0.2,0.7,0.3c0.2,0.2,0.3,0.3,0.4,0.6c0.4,0.5,0.4,0.7,0.4,1c0,0.2,0,0.4-0.1,0.6
		c-0.1,0.2-0.1,0.3-0.2,0.5c-0.1,0.1-0.2,0.3-0.4,0.4C50.2,35.9,50,36,49.8,36l0,0c0.2,0,0.5,0.1,0.7,0.2s0.4,0.2,0.5,0.4
		c0.1,0.1,0.2,0.3,0.3,0.5C51.3,37.2,51.3,37.4,51.3,37.6z"/>
	<path class="st0" d="M57,39.1c0,0.1,0,0.2,0,0.3s0,0.1,0,0.2c0,0,0,0.1-0.1,0.1h-0.1h-4c-0.1,0-0.1,0-0.2,0c-0.1,0-0.1,0-0.1-0.1
		c0,0-0.1-0.1-0.1-0.2c0-0.1,0-0.2,0-0.3s0-0.2,0-0.3s0-0.2,0.1-0.2s0.1-0.1,0.1-0.2c0-0.1,0.1-0.1,0.2-0.2l1.2-1.3
		c0.2-0.3,0.4-0.5,0.6-0.7s0.3-0.4,0.3-0.6c0.1-0.2,0.1-0.3,0.2-0.5c0-0.1,0-0.3,0-0.4c0-0.1,0-0.2-0.1-0.3c0-0.1-0.1-0.2-0.2-0.3
		c-0.1-0.1-0.2-0.1-0.3-0.2s-0.2-0.1-0.4-0.1s-0.4,0-0.6,0.1c-0.2,0.1-0.3,0.1-0.4,0.2c-0.1,0.1-0.2,0.1-0.3,0.2
		c-0.1,0.1-0.1,0.1-0.2,0.1h-0.1c0,0,0-0.1-0.1-0.1s0-0.1,0-0.2c0-0.1,0-0.2,0-0.3s0-0.2,0-0.2c0-0.1,0-0.1,0-0.1v-0.1
		c0,0,0-0.1,0.1-0.1c0,0,0.1-0.1,0.2-0.2c0.1-0.1,0.3-0.1,0.4-0.2s0.4-0.1,0.6-0.2c0.2,0,0.4-0.1,0.7-0.1c0.4,0,0.7,0,1,0.1
		s0.5,0.2,0.7,0.4s0.3,0.4,0.4,0.6c0.1,0.2,0.1,0.5,0.1,0.7s0,0.5-0.1,0.7c0,0.2-0.1,0.5-0.3,0.7c-0.1,0.3-0.3,0.5-0.6,0.8
		c-0.2,0.3-0.6,0.7-1,1.1L54,38.5h2.8h0.1l0.1,0.1c0,0,0,0.1,0,0.2C57,38.9,57,39,57,39.1z"/>
</g>
</svg>
