<?xml version="1.0" encoding="utf-8"?>
<!-- Generator: Adobe Illustrator 21.0.2, SVG Export Plug-In . SVG Version: 6.00 Build 0)  -->
<svg version="1.1" id="Layer_1" xmlns="http://www.w3.org/2000/svg" xmlns:xlink="http://www.w3.org/1999/xlink" x="0px" y="0px"
	 viewBox="0 0 74 74" style="enable-background:new 0 0 74 74;" xml:space="preserve">
<style type="text/css">
	.st0{fill:none;stroke:#006FAF;stroke-width:2;stroke-miterlimit:10;}
	.st1{fill:#006FAF;}
	.st2{fill:#1D4E66;}
</style>
<title>health-checks</title>
<circle class="st0" cx="37" cy="37" r="36"/>
<g>
	<path class="st1" d="M43.8,29.8l3.4-4.6l-3,4.9c0.5,0.4,1.3,0.6,2.3,0.3l4.6-0.8c-2-3.8-5.4-6.7-9.6-7.9l1.4,6.3
		C42.9,28,43.1,29,43.8,29.8z"/>
	<path class="st1" d="M41.4,31l-10.8-7.2l11.2,6.7c0.3-0.4,0.5-1,0.4-1.9l-1-7c-1.3-0.4-2.7-0.6-4.1-0.6c-8.4,0-15.3,6.6-15.9,14.9
		l18.3-4.2C39.4,31.7,40.6,31.7,41.4,31z"/>
	<path class="st1" d="M46.3,31.3c0,0-1.2,0.4-1.4,1.1l8,5.7c0-0.4,0.1-0.7,0.1-1.1c0-2.6-0.6-5.1-1.8-7.3l0.2,0.5L46.3,31.3z"/>
	<path class="st1" d="M42.3,33L29.5,50.5l12.4-17.8c0,0,0-0.8-3.7,0.2l-17,3.1c0,0.3-0.1,0.7-0.1,1c0,8.8,7.1,15.9,15.9,15.9
		c3.9,0,7.4-1.4,10.2-3.7l-3.7-14.4C43.5,34.8,43.2,33.4,42.3,33z"/>
	<path class="st1" d="M44.5,36l2.8,13.2c3.2-2.7,5.3-6.6,5.6-11.1L44.3,33C44.3,33,44,34.8,44.5,36z"/>
	<polygon class="st1" points="21,36 21.1,36 21.1,36 	"/>
	<polygon class="st1" points="47.3,49.4 47.2,49.2 47.2,49.2 	"/>
	<path class="st1" d="M51.1,29.6L51.1,29.6v0.1V29.6z"/>
</g>
<path class="st2" d="M52.9,38.1L52.9,38.1L52.9,38.1L52.9,38.1z"/>
</svg>
