<?xml version="1.0" encoding="utf-8"?>
<!-- Generator: Adobe Illustrator 21.0.2, SVG Export Plug-In . SVG Version: 6.00 Build 0)  -->
<svg version="1.1" id="Layer_1" xmlns="http://www.w3.org/2000/svg" xmlns:xlink="http://www.w3.org/1999/xlink" x="0px" y="0px"
	 viewBox="0 0 74 74" style="enable-background:new 0 0 74 74;" xml:space="preserve">
<style type="text/css">
	.st0{fill:none;stroke:#006FAF;stroke-width:2;stroke-miterlimit:10;}
	.st1{fill:#006FAF;}
</style>
<title>health-checks</title>
<circle class="st0" cx="37" cy="37" r="36"/>
<title></title>
<desc></desc>
<g>
	<g>
		<path class="st1" d="M42.3,44.3L42.3,44.3L42.3,44.3c-0.1-0.1-0.1-0.2-0.2-0.3c-0.5,0-1.1,0-1.7,0v2.3c1-0.1,1.9-0.3,2.8-0.5
			C42.9,45.3,42.6,44.7,42.3,44.3z"/>
		<path class="st1" d="M33.4,43c-3.9-1.4-6.7-3.9-6.7-6.8c0-4.2,5.3-7.8,12.4-7.8c8.9,0,13.1,3.4,13.1,7.7c0,2.2-1.3,4.3-3.6,5.8
			l0.1,0.1c0.1,0.1,0.2,0.2,0.7,1c2.8-1.9,4.6-4.6,4.6-7.6c0-6.4-7.8-11.3-17-11.3s-17,5-17,11.3c0,5.2,5.8,9.7,13.4,10.8
			C33.4,46.2,33.4,43,33.4,43z"/>
	</g>
	<path class="st1" d="M34.1,31.1v18.7h5.7v-7.3c1.4,0,2.3-0.3,3.2,1.4c1.4,2.4,3.2,5.9,3.2,5.9h6.7c0,0-4.2-6.9-4.6-7.3
		c-0.7-0.7-1.4-0.7-2.5-1c2.1-0.3,4.1-1.2,4.8-3.1c0.6-1.7,0.5-3.9-0.8-5.4c-1.1-1.2-2.3-1.9-5.1-1.9L34.1,31.1L34.1,31.1z M39.7,35
		h3.7c0.9,0,1.6,0.9,1.6,1.7c0,0.9-0.7,1.7-1.6,1.7h-3.7V35L39.7,35z"/>
</g>
</svg>
