<?xml version="1.0" encoding="utf-8"?>
<!-- Generator: Adobe Illustrator 21.0.2, SVG Export Plug-In . SVG Version: 6.00 Build 0)  -->
<svg version="1.1" id="Layer_1" xmlns="http://www.w3.org/2000/svg" xmlns:xlink="http://www.w3.org/1999/xlink" x="0px" y="0px"
	 viewBox="0 0 74 74" style="enable-background:new 0 0 74 74;" xml:space="preserve">
<style type="text/css">
	.st0{fill:#006FAF;}
</style>
<title>Cloud &amp;amp; Infrastructure Services</title>
<path class="st0" d="M37,74C16.6,74,0,57.4,0,37S16.6,0,37,0s37,16.6,37,37S57.4,74,37,74z M37,2C17.7,2,2,17.7,2,37s15.7,35,35,35
	s35-15.7,35-35S56.3,2,37,2z"/>
<g>
	<path class="st0" d="M41.6,43.9c-0.3,0-0.4-0.2-0.5-0.3l-0.9-1.4C39.1,40.6,38,39,37,37.4c0-0.1-0.1-0.1-0.1-0.1
		c-0.3,0-0.6,0-0.9,0c-0.3,0-0.6,0-0.9,0c0,1.6,0,3.1,0,4.7h1.8c0.1,0,0.3,0,0.4,0.1c0.1,0.1,0.1,0.3,0.1,0.4c0,0.3,0,0.7,0,1
		c0,0.1,0,0.2-0.1,0.3S37,43.9,37,43.9h-5.5c-0.1,0-0.2,0-0.3-0.1C31,43.6,31,43.5,31,43.4c0-0.3,0-0.7,0-1c0-0.1,0-0.2,0.1-0.3
		s0.3-0.1,0.3-0.1s1.4,0,1.5,0c0-3.7,0-7.4,0-11l-1.6-0.2c-0.4,0-0.4-0.3-0.4-0.4c0-0.3,0-0.5,0-0.8v-0.7l0.4,0.1
		c0.6,0.1,1.2,0.2,1.7,0.3c0.1,0,0.3,0,0.4,0c0.6,0,1.2-0.1,1.8-0.1c0.6-0.1,1.3-0.1,1.9-0.1c0.6,0,1.1,0.1,1.6,0.2
		c0.9,0.2,1.6,0.6,2.1,1.1c0.8,0.8,1.2,1.8,1.1,3c-0.1,1.8-1.1,3.1-3,3.8l0.8,1.2c0.9,1.3,1.7,2.5,2.6,3.8h0.6h0.9
		c0.1,0,0.2,0,0.3,0.1s0.1,0.3,0.1,0.3c0,0.3,0,0.7,0,1c0,0.1,0,0.2-0.1,0.3S43.8,44,43.8,44h-1.2C42.4,43.9,42,43.9,41.6,43.9
		L41.6,43.9z M35.5,35.4c0.2,0,0.4,0,0.7,0c0.7,0,1.2-0.1,1.7-0.2c0.8-0.2,1.3-0.4,1.6-0.9c0.5-0.6,0.6-1.4,0.3-2.3
		c-0.2-0.7-0.8-1.1-1.7-1.3c-0.3-0.1-0.7-0.1-1-0.1c-0.5,0-1.1,0.1-1.6,0.1h-0.4v2.9c0,0.6,0,1.1,0,1.7l0,0
		C35.2,35.4,35.5,35.4,35.5,35.4z"/>
</g>
<g>
	<path class="st0" d="M37,53.5L37,53.5c-4.5,0-8.7-1.8-11.8-5s-4.7-7.4-4.6-11.9c0.2-9.1,7.8-16.3,16.9-16.1l0,0
		c8.9,0.2,16.1,7.6,16.1,16.5c0,4.4-1.7,8.6-4.9,11.7C45.5,51.8,41.4,53.5,37,53.5z M37,22.5c-7.8,0-14.3,6.3-14.5,14.1
		c-0.1,3.9,1.4,7.6,4.1,10.5c2.7,2.8,6.4,4.4,10.3,4.4s7.6-1.5,10.3-4.2c2.8-2.7,4.3-6.4,4.3-10.3c0-7.8-6.4-14.3-14.2-14.5l0,0
		C37.2,22.5,37.1,22.5,37,22.5z"/>
</g>
</svg>
