<?xml version="1.0" encoding="utf-8"?>
<!-- Generator: Adobe Illustrator 21.0.2, SVG Export Plug-In . SVG Version: 6.00 Build 0)  -->
<svg version="1.1" id="Layer_1" xmlns="http://www.w3.org/2000/svg" xmlns:xlink="http://www.w3.org/1999/xlink" x="0px" y="0px"
	 viewBox="0 0 74 74" style="enable-background:new 0 0 74 74;" xml:space="preserve">
<style type="text/css">
	.st0{fill:none;stroke:#006FAF;stroke-width:2;stroke-miterlimit:10;}
	.st1{fill:#006FAF;}
</style>
<title>Cloud &amp;amp; Infrastructure Services</title>
<circle class="st0" cx="37" cy="37" r="36"/>
<path class="st1" d="M51.7,33.6H41c-0.5,0-1-0.4-1-1V21.6c0-0.8-0.7-1.5-1.5-1.5h-3.8c-0.8,0-1.5,0.7-1.5,1.5v11c0,0.6-0.5,1-1,1
	l-3.5,0c-0.6,0-1-0.5-1-1l0-11c0-0.8-0.7-1.5-1.5-1.5h-3.8c-0.8,0-1.5,0.7-1.5,1.5v31c0,0.7,0.6,1.3,1.3,1.3h29.4
	c0.7,0,1.3-0.6,1.3-1.3V34.9C53,34.2,52.4,33.6,51.7,33.6z M46.7,45.3c0,1-0.8,1.7-1.7,1.7h-3c-1,0-1.7-0.8-1.7-1.7v-3
	c0-1,0.8-1.7,1.7-1.7h3c1,0,1.7,0.8,1.7,1.7L46.7,45.3L46.7,45.3z"/>
</svg>
