<?xml version="1.0" encoding="utf-8"?>
<!-- Generator: Adobe Illustrator 21.0.2, SVG Export Plug-In . SVG Version: 6.00 Build 0)  -->
<svg version="1.1" id="Layer_1" xmlns="http://www.w3.org/2000/svg" xmlns:xlink="http://www.w3.org/1999/xlink" x="0px" y="0px"
	 viewBox="0 0 74 74" style="enable-background:new 0 0 74 74;" xml:space="preserve">
<style type="text/css">
	.st0{fill:none;stroke:#006FAF;stroke-width:2;stroke-miterlimit:10;}
	.st1{fill:#006FAF;}
</style>
<title>os-patch-management</title>
<g>
	<circle class="st0" cx="37" cy="37" r="36"/>
	<g>
		<path class="st1" d="M49.2,31.1L49.2,31.1c-0.4-0.1-0.8-0.3-1.2-0.4c0.1-0.3,0.1-0.6,0.2-0.8c0.9-4.5,0.3-8.1-1.7-9.3
			c-2-1.1-5.2,0-8.5,2.9c-0.3,0.3-0.6,0.6-0.9,0.9c-0.2-0.2-0.4-0.4-0.6-0.6c-3.4-3-6.9-4.3-8.9-3.1c-2,1.1-2.6,4.6-1.7,8.8
			c0.1,0.4,0.2,0.8,0.3,1.3c-0.5,0.1-1,0.3-1.4,0.4c-4,1.4-6.6,3.6-6.6,5.9c0,2.4,2.8,4.7,6.9,6.1c0.3,0.1,0.7,0.2,1,0.3
			c-0.1,0.4-0.2,0.9-0.3,1.4c-0.8,4.2-0.2,7.5,1.8,8.6c2,1.2,5.5,0,8.8-2.9c0.3-0.2,0.5-0.5,0.8-0.7c0.3,0.3,0.7,0.6,1,0.9
			c3.2,2.8,6.4,3.9,8.4,2.8c2-1.2,2.7-4.8,1.8-9.1c-0.1-0.3-0.1-0.7-0.2-1c0.2-0.1,0.5-0.1,0.7-0.2c4.4-1.4,7.2-3.8,7.2-6.2
			C56,34.7,53.3,32.5,49.2,31.1z M39,24.6c2.8-2.4,5.4-3.4,6.6-2.7l0,0c1.3,0.7,1.8,3.7,1,7.6c-0.1,0.3-0.1,0.5-0.2,0.8
			c-1.6-0.4-3.3-0.6-5.1-0.8c-1-1.5-2.1-2.8-3.2-4C38.4,25.2,38.7,24.9,39,24.6z M29.2,38.9c0.3,0.7,0.7,1.3,1.1,2s0.8,1.3,1.2,2
			c-1.2-0.1-2.4-0.3-3.5-0.6C28.3,41.2,28.7,40.1,29.2,38.9z M29.2,35.1c-0.5-1.1-0.9-2.2-1.2-3.3c1.1-0.2,2.2-0.4,3.4-0.6
			c-0.4,0.6-0.8,1.3-1.2,1.9C29.9,33.8,29.6,34.4,29.2,35.1z M30.1,37c0.5-1,1-2.1,1.6-3.1l0,0c0.6-1,1.2-2,1.8-2.9
			c1.1-0.1,2.3-0.1,3.5-0.1s2.3,0,3.5,0.1c0.6,1,1.3,1.9,1.8,2.9c0.6,1,1.1,2,1.6,3c-0.5,1-1.1,2.1-1.6,3.1l0,0
			c-0.6,1-1.2,2-1.8,2.9C39.4,43,38.2,43,37,43s-2.3,0-3.4-0.1c-0.7-1-1.3-1.9-1.9-2.9C31.1,39.1,30.6,38,30.1,37z M43.7,40.9
			c0.4-0.7,0.7-1.3,1.1-2l0,0c0.5,1.2,0.9,2.3,1.3,3.3c-1.1,0.3-2.3,0.5-3.5,0.6C42.9,42.2,43.3,41.5,43.7,40.9z M44.8,35.1
			c-0.4-0.7-0.7-1.3-1.1-2l0,0c-0.4-0.6-0.8-1.3-1.2-1.9c1.2,0.2,2.4,0.4,3.5,0.6C45.7,32.9,45.3,34,44.8,35.1z M37,26.6
			c0.7,0.8,1.5,1.7,2.2,2.7c-1.5-0.1-3-0.1-4.5,0C35.5,28.3,36.3,27.4,37,26.6z M28.3,22c1.3-0.7,4.1,0.3,7,2.9
			c0.2,0.2,0.4,0.3,0.6,0.5c-1.1,1.2-2.2,2.5-3.2,4c-1.8,0.2-3.5,0.4-5.1,0.8c-0.1-0.4-0.2-0.8-0.3-1.2l0,0
			C26.6,25.4,27.1,22.7,28.3,22z M26.4,41.9c-0.3-0.1-0.6-0.2-0.9-0.3c-1.9-0.6-3.4-1.5-4.4-2.4c-0.9-0.8-1.4-1.6-1.4-2.3
			c0-1.4,2.1-3.1,5.5-4.3c0.4-0.1,0.9-0.3,1.3-0.4c0.5,1.5,1.1,3.2,1.9,4.8C27.5,38.7,26.9,40.3,26.4,41.9z M35.2,49.3
			c-1.5,1.3-3,2.2-4.3,2.7l0,0c-1.2,0.4-2.1,0.4-2.7,0.1c-1.2-0.7-1.7-3.4-1-6.9c0.1-0.4,0.2-0.8,0.3-1.3c1.6,0.3,3.3,0.6,5.1,0.7
			c1.1,1.5,2.2,2.8,3.3,4C35.7,48.8,35.5,49.1,35.2,49.3z M37.1,47.4c-0.8-0.8-1.5-1.7-2.3-2.7c0.7,0,1.5,0,2.2,0
			c0.8,0,1.5,0,2.3-0.1C38.6,45.7,37.8,46.6,37.1,47.4z M46.9,49.7c-0.2,1.2-0.7,2-1.2,2.4c-1.2,0.7-3.8-0.2-6.5-2.6
			c-0.3-0.3-0.6-0.6-1-0.9c1.1-1.2,2.1-2.5,3.2-4c1.8-0.2,3.6-0.4,5.1-0.8c0.1,0.3,0.1,0.6,0.2,0.9l0,0
			C47.1,46.6,47.2,48.3,46.9,49.7z M48.3,41.6L48.3,41.6c-0.2,0.1-0.4,0.1-0.6,0.2c-0.5-1.5-1.1-3.1-1.9-4.8
			c0.8-1.6,1.4-3.2,1.8-4.7c0.4,0.1,0.8,0.2,1.1,0.4c3.5,1.2,5.7,3,5.7,4.4C54.4,38.4,52.1,40.3,48.3,41.6z"/>
		<circle class="st1" cx="37" cy="37" r="3.4"/>
	</g>
</g>
</svg>
