<?xml version="1.0" encoding="utf-8"?>
<!-- Generator: Adobe Illustrator 21.0.2, SVG Export Plug-In . SVG Version: 6.00 Build 0)  -->
<svg version="1.1" id="Layer_1" xmlns="http://www.w3.org/2000/svg" xmlns:xlink="http://www.w3.org/1999/xlink" x="0px" y="0px"
	 viewBox="0 0 75 75" style="enable-background:new 0 0 75 75;" xml:space="preserve">
<style type="text/css">
	.st0{fill:none;stroke:#006FAF;stroke-width:2;stroke-miterlimit:10;}
	.st1{fill:#006FAF;}
</style>
<circle class="st0" cx="37.5" cy="37.5" r="36"/>
<g>
	<path class="st1" d="M30,46h-5.3c-3.5-0.9-6.2-3.7-6.2-7.3c0-3.1,2-5.8,4.6-6.9c0-0.3,0-0.6,0-1c0-5.2,4.2-9.5,9.5-9.5
		c2.9,0,5.6,1.3,7.4,3.5c1.1-0.5,2.3-0.8,3.5-0.8c4.1,0,7.7,3.7,7.9,7.8L37.2,26L30,30.3V46z"/>
	<g>
		<polygon class="st1" points="49.4,39.4 51.2,39.9 51.2,35 49.4,34.4 		"/>
		<path class="st1" d="M37.1,40.2l0,13.4l19.4-3.7v-6.4l-19.4-3.6L37.1,40.2z M38,41.4l17.6,2.7v5.4L38,52.7V41.4z"/>
		<polygon class="st1" points="51.2,34.4 50.1,34.1 51.2,34.4 		"/>
		<polygon class="st1" points="54.7,36.2 53,35.6 53,40.3 54.7,40.8 54.7,35.6 53,35 53,35.1 54.7,35.7 		"/>
		<polygon class="st1" points="47.7,33.2 45.9,32.6 45.9,32.6 47.7,33.2 		"/>
		<polygon class="st1" points="45.9,50.2 47.7,49.9 47.7,44.4 45.9,44.2 		"/>
		<polygon class="st1" points="49.4,49.6 51.2,49.3 51.2,44.8 49.4,44.6 		"/>
		<path class="st1" d="M42.4,50.8l1.8-0.3c0,0,0-5.5,0-6.5l-1.8-0.2V50.8z"/>
		<polygon class="st1" points="38.9,42.7 38.9,42.7 38.9,51.4 40.6,51.1 40.6,43.6 38.9,43.3 		"/>
		<polygon class="st1" points="54.7,45.2 53,45 53,49 54.8,48.7 54.7,44.7 		"/>
		<polygon class="st1" points="42.4,37.5 44.2,38 44.2,32.7 42.4,32.1 		"/>
		<path class="st1" d="M37,27.8l0,10.5l0,0l0,0v0l19.4,4.1v-7.3L37,27.8z M55.6,41.6l-17.6-4v-8.8l17.6,6.5V41.6z"/>
		<polygon class="st1" points="45.9,38.5 47.7,38.9 47.7,33.9 45.9,33.3 		"/>
		<polygon class="st1" points="40.6,31.5 38.9,30.9 38.9,30.3 38.9,30.3 38.9,36.6 40.6,37.1 		"/>
		<polygon class="st1" points="37,53.6 37,53.6 37,53.6 		"/>
		<path class="st1" d="M37,27.8L31.8,31v9.8l5.3-2.5l0,0L37,27.8z M35.3,30.3L35,30.4l-0.6,0.4l0,0.7l0.9-0.4v6l-0.9,0.5l0-6
			L33.6,32c0,1.2,0,6.1,0,6.1l-0.9,0.5v-6.9l0.9-0.5v0l1.4-0.8L35.3,30.3L35.3,30.3z"/>
		<path class="st1" d="M37.1,39.9l-5.3,2.6l0,8l5.2,3.1l0.1-13.4L37.1,39.9z M35.4,51.5L34.5,51l0-7.9l-1,0.4v7l-0.8-0.4v-6.6l0-0.2
			l1.8-0.8l0,0l0.9-0.4l0,0l0,0.1V51.5z"/>
		<polygon class="st1" points="37.1,53.7 37.1,53.6 37,53.6 		"/>
		<path class="st1" d="M54.7,44.6L54.7,44.6L54.7,44.6l-15.8-2v0l1.7,0.2v0.7l1.8,0.2v-0.7l1.8,0.3c0,0,0,0.5,0,0.6l1.8,0.2v-0.6
			l1.8,0.2v0.6l1.8,0.2V44l1.8,0.3v0.6L53,45v-0.6L54.7,44.6z"/>
		<polygon class="st1" points="53,35.6 53,35.1 51.2,34.4 51.2,35 		"/>
		<polygon class="st1" points="49.4,34.4 49.4,33.8 50.1,34.1 47.7,33.2 47.7,33.9 		"/>
		<polygon class="st1" points="40.6,31.5 42.4,32.1 42.4,31.4 44.2,32 44.2,32.7 45.9,33.3 45.9,32.6 38.9,30.2 38.9,30.3 
			40.6,30.8 		"/>
		<path class="st1" d="M32.8,31.7l0,0.7l0.8-0.4c0-0.1,0-0.8,0-0.8L32.8,31.7z"/>
		<polygon class="st1" points="35.4,42.1 35.4,42.1 34.5,42.5 34.5,43.1 35.4,42.8 35.4,42.2 35.4,42.1 		"/>
		<polygon class="st1" points="32.7,43.3 32.7,43.5 32.7,43.8 33.5,43.5 33.5,42.9 		"/>
	</g>
</g>
</svg>
