<?xml version="1.0" encoding="utf-8"?>
<!-- Generator: Adobe Illustrator 21.0.2, SVG Export Plug-In . SVG Version: 6.00 Build 0)  -->
<svg version="1.1" id="Layer_1" xmlns="http://www.w3.org/2000/svg" xmlns:xlink="http://www.w3.org/1999/xlink" x="0px" y="0px"
	 viewBox="0 0 74 74" style="enable-background:new 0 0 74 74;" xml:space="preserve">
<style type="text/css">
	.st0{fill:none;stroke:#006FAF;stroke-width:2;stroke-miterlimit:10;}
	.st1{fill:#006FAF;}
</style>
<circle class="st0" cx="37" cy="37" r="36"/>
<g>
	<path class="st1" d="M19.5,54.5c0-8.6,0-17.3,0-25.9c3.6,0,7.1,0,10.7,0c0,2.5,0,5.1,0,7.6c2.5,0,5.1,0,7.6,0c0,2.5,0,5.1,0,7.6
		c2.5,0,5,0,7.6,0c-1.5-0.6-3-1.1-4.5-1.7c1.2-3.3,2.4-6.7,3.7-10c3.4,1.2,6.7,2.4,10,3.6c-1.2,3.3-2.4,6.7-3.6,10
		c-1.8-0.7-3.6-1.3-5.5-2c0,3.6,0,7.1,0,10.6C36.8,54.5,28.1,54.5,19.5,54.5z M27.1,31.6c-1.5,0-3,0-4.6,0c0,1.5,0,3,0,4.6
		c1.5,0,3,0,4.6,0C27.1,34.7,27.1,33.2,27.1,31.6z M22.6,39.3c0,1.5,0,3,0,4.6c1.5,0,3,0,4.6,0c0-1.5,0-3,0-4.6
		C25.6,39.3,24.1,39.3,22.6,39.3z M30.2,43.8c1.5,0,3,0,4.6,0c0-1.5,0-3,0-4.6c-1.5,0-3,0-4.6,0C30.2,40.8,30.2,42.3,30.2,43.8z
		 M27.1,46.9c-1.5,0-3,0-4.6,0c0,1.5,0,3,0,4.6c1.5,0,3,0,4.6,0C27.1,49.9,27.1,48.4,27.1,46.9z M34.7,46.9c-1.5,0-3,0-4.6,0
		c0,1.5,0,3,0,4.6c1.5,0,3,0,4.6,0C34.7,49.9,34.7,48.4,34.7,46.9z M37.8,51.4c1.5,0,3,0,4.6,0c0-1.5,0-3,0-4.6c-1.5,0-3,0-4.6,0
		C37.8,48.4,37.8,49.9,37.8,51.4z M46.3,36.1c-0.5,1.4-1,2.9-1.6,4.3c1.4,0.5,2.9,1,4.3,1.5c0.5-1.4,1-2.9,1.5-4.3
		C49.2,37.1,47.7,36.6,46.3,36.1z"/>
	<path class="st1" d="M37.6,19.5c1.6,2.9,3.2,5.7,4.8,8.6c0-2.4,0-4.8,0-7.2c3.6,0,7.1,0,10.7,0c0,3.5,0,7.1,0,10.7
		c-3.5,0-7.1,0-10.7,0c0-0.8,0-1.7,0-2.6c-3,1.7-6,3.3-8.9,5c-1.7-3.1-3.5-6.2-5.2-9.3C31.4,23,34.5,21.2,37.6,19.5z M45.4,28.6
		c1.5,0,3,0,4.6,0c0-1.5,0-3,0-4.6c-1.5,0-3,0-4.6,0C45.4,25.5,45.4,27.1,45.4,28.6z M36.4,23.7c-1.3,0.7-2.7,1.5-4,2.2
		c0.7,1.3,1.5,2.7,2.2,4c1.3-0.7,2.7-1.5,4-2.2C37.9,26.3,37.1,25,36.4,23.7z"/>
</g>
</svg>
