<?xml version="1.0" encoding="utf-8"?>
<!-- Generator: Adobe Illustrator 21.0.2, SVG Export Plug-In . SVG Version: 6.00 Build 0)  -->
<svg version="1.1" id="Layer_1" xmlns="http://www.w3.org/2000/svg" xmlns:xlink="http://www.w3.org/1999/xlink" x="0px" y="0px"
	 viewBox="0 0 74 74" style="enable-background:new 0 0 74 74;" xml:space="preserve">
<style type="text/css">
	.st0{fill:none;stroke:#006FAF;stroke-width:2;stroke-miterlimit:10;}
	.st1{fill:none;}
	.st2{fill-rule:evenodd;clip-rule:evenodd;fill:none;stroke:#006FAF;stroke-width:2;stroke-miterlimit:10;}
	.st3{fill:#FFFFFF;}
	.st4{fill:#006FAF;}
	.st5{fill-rule:evenodd;clip-rule:evenodd;fill:none;stroke:#006699;stroke-width:2;stroke-miterlimit:10;}
	.st6{fill:#006FAF;stroke:#006FAF;stroke-width:0.5;stroke-miterlimit:10;}
	.st7{fill:none;stroke:#006FAF;stroke-width:1.75;stroke-miterlimit:10;}
	.st8{fill:none;stroke:#006FAF;stroke-width:1.5;stroke-miterlimit:10;}
	.st9{fill:#006FAF;stroke:#006FAF;stroke-width:2;stroke-miterlimit:10;}
	.st10{fill:#006FAF;stroke:#006FAF;stroke-miterlimit:10;}
	.st11{fill:none;stroke:#006FAF;stroke-width:2;stroke-linecap:round;stroke-miterlimit:10;}
	.st12{fill:none;stroke:#006FAF;stroke-width:2;stroke-linejoin:round;stroke-miterlimit:10;}
</style>
<circle class="st2" cx="37" cy="37" r="36"/>
<g>
	<path class="st8" d="M54.5,50.2c0,0.1,0,0.3-0.1,0.4c-0.2,0.8-1,1.4-1.8,1.4c-2.1,0-4.2,0-6.3,0c-1,0-1.8-0.8-1.8-1.8
		c0-0.6,0-1.3,0-1.9c0-1.5,0-2.9,0-4.4c0-0.8,0.3-1.3,1-1.7c0.3-0.2,0.5-0.2,0.8-0.2c0.6,0,1.2,0,1.8,0c0,0,0.1,0,0.1,0
		c0-1.2,0-2.5,0-3.7c-3.3,0-6.7,0-10,0c0,1.2,0,2.5,0,3.7c0,0,0.1,0,0.1,0c0.6,0,1.2,0,1.8,0c0.8,0,1.5,0.5,1.7,1.2
		c0.1,0.2,0.1,0.4,0.1,0.7c0,2.1,0,4.1,0,6.2c0,0.8-0.4,1.4-1.1,1.8C40.6,52,40.4,52,40.2,52c-2.1,0-4.2,0-6.3,0
		c-1,0-1.8-0.8-1.8-1.7c0-0.1,0-0.1,0-0.2c0-2.1,0-4.1,0-6.2c0-0.7,0.3-1.3,0.9-1.7c0.3-0.2,0.6-0.2,0.9-0.2c0.6,0,1.2,0,1.8,0
		c0,0,0.1,0,0.1,0c0-1.2,0-2.5,0-3.7c-3.3,0-6.7,0-10,0c0,1.2,0,2.5,0,3.7c0,0,0.1,0,0.1,0c0.6,0,1.2,0,1.8,0c0.8,0,1.3,0.4,1.7,1.1
		c0.1,0.2,0.1,0.4,0.2,0.6c0,0,0,0.1,0,0.1c0,2.1,0,4.1,0,6.2c0,0.7-0.3,1.2-0.8,1.6c-0.3,0.2-0.6,0.3-1,0.3c-2.1,0-4.2,0-6.4,0
		c-0.9,0-1.8-0.8-1.8-1.7c0-0.1,0-0.2,0-0.3c0-2,0-4.1,0-6.1c0-0.7,0.3-1.3,0.9-1.7c0.3-0.2,0.6-0.2,0.9-0.2c0.6,0,1.2,0,1.8,0
		c0,0,0.1,0,0.1,0c0,0,0-0.1,0-0.1c0-1.2,0-2.4,0-3.6c0-1.3,1-2.2,1.8-2.4c0.3-0.1,0.5-0.1,0.8-0.1c3.3,0,6.5,0,9.8,0
		c0,0,0.1,0,0.1,0c0-1.2,0-2.5,0-3.7c0,0-0.1,0-0.1,0c-0.6,0-1.2,0-1.8,0c-0.9,0-1.6-0.6-1.8-1.5c0-0.1,0-0.3,0-0.4
		c0-2.1,0-4.1,0-6.2c0-0.8,0.4-1.4,1.1-1.7c0.2-0.1,0.5-0.1,0.8-0.1c2.1,0,4.1,0,6.2,0c1.1,0,1.7,0.8,1.8,1.4c0,0.2,0.1,0.3,0.1,0.5
		c0,2.1,0,4.1,0,6.2c0,0.8-0.4,1.4-1.1,1.8C40.6,32,40.4,32,40.1,32c-0.6,0-1.2,0-1.8,0c0,0-0.1,0-0.1,0c0,1.3,0,2.5,0,3.7
		c0,0,0.1,0,0.1,0c3.3,0,6.5,0,9.8,0c0.5,0,0.9,0.1,1.3,0.3c0.7,0.4,1.1,1,1.2,1.8c0,0.1,0,0.3,0,0.5c0,1.2,0,2.4,0,3.6
		c0,0,0,0.1,0,0.1c0,0,0.1,0,0.1,0c0.6,0,1.2,0,1.8,0c0.7,0,1.4,0.5,1.7,1.2c0.1,0.2,0.1,0.4,0.1,0.5c0,0,0,0.1,0,0.1
		C54.5,45.9,54.5,48.1,54.5,50.2z"/>
</g>
</svg>
