<?xml version="1.0" encoding="utf-8"?>
<!-- Generator: Adobe Illustrator 21.0.2, SVG Export Plug-In . SVG Version: 6.00 Build 0)  -->
<svg version="1.1" id="Layer_1" xmlns="http://www.w3.org/2000/svg" xmlns:xlink="http://www.w3.org/1999/xlink" x="0px" y="0px"
	 viewBox="0 0 74 74" style="enable-background:new 0 0 74 74;" xml:space="preserve">
<style type="text/css">
	.st0{fill:#006FAF;}
</style>
<title>os-patch-management</title>
<g id="text">
</g>
<path class="st0" d="M37,74C16.6,74,0,57.4,0,37S16.6,0,37,0s37,16.6,37,37S57.4,74,37,74z M37,2C17.7,2,2,17.7,2,37s15.7,35,35,35
	s35-15.7,35-35S56.3,2,37,2z"/>
<g>
	<path class="st0" d="M21.3,42.1v-9.3h4c1,0,1.7,0.1,2.2,0.3s0.8,0.5,1.1,0.9c0.3,0.4,0.4,0.9,0.4,1.5c0,0.7-0.2,1.3-0.6,1.7
		c-0.4,0.5-1,0.7-1.8,0.9c0.4,0.2,0.7,0.5,1,0.8s0.6,0.8,1.1,1.5l1.1,1.8h-2.2l-1.4-2c-0.5-0.7-0.8-1.2-1-1.4s-0.4-0.3-0.6-0.4
		c-0.2-0.1-0.5-0.1-0.9-0.1h-0.4v3.9h-2V42.1z M23.1,36.8h1.4c0.9,0,1.5,0,1.7-0.1s0.4-0.2,0.5-0.4s0.2-0.4,0.2-0.7
		s-0.1-0.6-0.3-0.8c-0.2-0.2-0.4-0.3-0.7-0.4c-0.2,0-0.6,0-1.4,0H23L23.1,36.8L23.1,36.8z"/>
	<path class="st0" d="M30.6,42.1v-9.3h6.9v1.6h-5v2.1h4.7V38h-4.7v2.5h5.2v1.6H30.6z"/>
	<path class="st0" d="M38.8,39.1l1.8-0.2c0.1,0.6,0.3,1.1,0.7,1.4c0.3,0.3,0.8,0.4,1.4,0.4c0.6,0,1.1-0.1,1.4-0.4s0.5-0.6,0.5-0.9
		c0-0.2-0.1-0.4-0.2-0.6c-0.1-0.2-0.4-0.3-0.7-0.4c-0.2-0.1-0.7-0.2-1.5-0.4c-1-0.2-1.7-0.6-2.1-0.9c-0.6-0.5-0.9-1.1-0.9-1.9
		c0-0.5,0.1-0.9,0.4-1.3c0.3-0.4,0.7-0.7,1.2-0.9s1.1-0.3,1.8-0.3c1.2,0,2,0.3,2.6,0.8s0.9,1.2,0.9,2.1l-1.9,0.1
		c-0.1-0.5-0.3-0.8-0.5-1c-0.3-0.2-0.7-0.3-1.2-0.3s-1,0.1-1.3,0.3c-0.2,0.1-0.3,0.3-0.3,0.6c0,0.2,0.1,0.4,0.3,0.6
		c0.2,0.2,0.8,0.4,1.7,0.6s1.6,0.4,2,0.7c0.4,0.2,0.8,0.5,1,0.9s0.4,0.9,0.4,1.5c0,0.5-0.1,1-0.4,1.5c-0.3,0.5-0.7,0.8-1.3,1
		s-1.2,0.3-2,0.3c-1.2,0-2.1-0.3-2.7-0.8S39,40.1,38.8,39.1z"/>
	<path class="st0" d="M50.1,42.1v-7.7h-2.8v-1.6h7.4v1.6H52v7.7H50.1z"/>
</g>
</svg>
