<?xml version="1.0" encoding="utf-8"?>
<!-- Generator: Adobe Illustrator 21.0.2, SVG Export Plug-In . SVG Version: 6.00 Build 0)  -->
<svg version="1.1" id="Layer_1" xmlns="http://www.w3.org/2000/svg" xmlns:xlink="http://www.w3.org/1999/xlink" x="0px" y="0px"
	 viewBox="0 0 74 74" style="enable-background:new 0 0 74 74;" xml:space="preserve">
<style type="text/css">
	.st0{fill:#006FAF;}
</style>
<title>health-checks</title>
<path class="st0" d="M37,0C16.6,0,0,16.6,0,37s16.6,37,37,37s37-16.6,37-37S57.4,0,37,0z M37,72C17.7,72,2,56.3,2,37S17.7,2,37,2
	s35,15.7,35,35S56.3,72,37,72z"/>
<g>
	<path class="st0" d="M33.9,47.1v3.8H40v-3.8c1.5-0.2,3-0.5,4.3-0.9l2.5,4.7h6.9l-4.1-7c3.4-2.2,5.5-5.3,5.5-8.7
		c0-6.7-8.1-12.1-18-12.1s-18,5.4-18,12.1C19,41.1,25.4,46,33.9,47.1v-3.6c-4.6-1.3-7.8-4.1-7.8-7.4c0-4.6,6.1-8.3,13.7-8.3
		s13.2,2.5,13.2,8.3c0,3.1-1.7,5.3-4.4,6.6c-0.2-0.1-0.3-0.2-0.4-0.2c-0.6-0.4-1.7-0.6-1.7-0.6s5.4-0.4,5.4-5.7s-5.6-5.4-5.6-5.4
		H33.9v12.9 M40,44.4v2.7 M40.1,35h3.8c0,0,1.7-0.1,1.7,1.7s-1.7,1.8-1.7,1.8h-3.8V35z M40,43c0,0,1.4,0,1.7,0
		c0.4,0,0.5,0.1,0.9,0.4c0.2,0.2,0.4,0.4,0.6,0.8c-1,0.2-2,0.2-3.1,0.2L40,43L40,43z M44.3,46.2c0,0-0.8-1.8-1.1-2.1 M48.4,42.6
		c0.2,0.2,0.2,0.4,0.4,0.5c0.3,0.3,0.6,0.4,0.6,0.4l0.2,0.2l0,0"/>
</g>
</svg>
