<?xml version="1.0" encoding="utf-8"?>
<!-- Generator: Adobe Illustrator 21.0.2, SVG Export Plug-In . SVG Version: 6.00 Build 0)  -->
<svg version="1.1" id="Layer_1" xmlns="http://www.w3.org/2000/svg" xmlns:xlink="http://www.w3.org/1999/xlink" x="0px" y="0px"
	 viewBox="0 0 74 74" style="enable-background:new 0 0 74 74;" xml:space="preserve">
<style type="text/css">
	.st0{fill:#006FAF;}
</style>
<title>os-patch-management</title>
<g id="text">
</g>
<path class="st0" d="M37,74C16.6,74,0,57.4,0,37S16.6,0,37,0s37,16.6,37,37S57.4,74,37,74z M37,2C17.7,2,2,17.7,2,37s15.7,35,35,35
	s35-15.7,35-35S56.3,2,37,2z"/>
<g>
	<path class="st0" d="M35.9,44.6c-0.3,0.6-0.9,0.3-1.3,0.6c-0.5-0.6-1.1-0.6-1.7-0.1c-0.2-0.5-0.8-0.6-1.2-1
		c-0.8-0.7-1.4-1.6-1.7-2.6c-0.4-0.7-0.4-1.5,0-2.2c0.4-1.4,1.1-2.5,2.5-3.1c0.4,0.1,0.5,0.4,0.6,0.7c0.9,2.3,1.8,4.6,2.7,7
		C36,44,36,44.3,35.9,44.6z"/>
	<path class="st0" d="M48,40.7c0.6,0,1.2-0.3,1.7-0.5c0.1-0.1,0.1,0,0.1,0.1c2,0.8,2.6,1.6,2.5,3.1c-0.1,0.7-0.5,1.2-0.8,1.8
		c-0.6,0.3-1.4,0.4-2,0.8c-1.4-0.2-2.3-0.9-2.7-2.3C46.5,42.5,47,41.4,48,40.7z"/>
	<path class="st0" d="M27.5,48.4c0.4-1.4,1.7-2.2,3.6-2.3c0.5,0,1,0,1.4,0c0.7,0,0.9,0.6,1.3,0.9c0.2,0.9,1.2,1.6,0.7,2.7
		c-0.7,0.3-1.4,0.5-2.1,0.4c-1-0.3-2.2-0.2-3.2-0.5c-0.4-0.1-0.9-0.2-1.3-0.6C27.7,49,27.5,48.8,27.5,48.4z"/>
	<path class="st0" d="M25.1,32.6c0,1.2-0.9,2.1-2.1,2.1s-2-0.9-2-2.1c0-1.2,0.9-2.1,2.1-2.1C24.3,30.5,25.1,31.4,25.1,32.6z"/>
	<path class="st0" d="M49.9,40.2L49.9,40.2c-0.5-0.8-1-1.5-0.8-2.3c0.3-0.6,0.5-1.4,1.5-1.2c1.1,0.2,1.7,0.9,2.1,1.9
		c0.2,0.7,0.2,1.4-0.2,2.1C51.6,40.2,50.8,40.1,49.9,40.2z"/>
	<path class="st0" d="M26.1,37.1c0.5,0.2,0.8,0.4,1,0.8c0.4,0.8-0.1,1.3-0.5,1.9c-0.3,0.4-0.6,0.5-1.1,0.4c-0.7-0.2-1.1-0.6-1.4-1.3
		c-0.1-0.2-0.1-0.4,0.2-0.5c0.6-0.2,1.1-0.6,1.4-1.1C25.8,37.1,26,37.1,26.1,37.1z"/>
	<path class="st0" d="M25.6,36.2c0,0.7-1.1,1.6-1.9,1.6c-0.7-0.1-1.5-1.1-1.3-1.9c0.1-0.3,0.1-0.4,0.5-0.4s0.8-0.2,1.1-0.3
		C25,34.7,25.7,35.2,25.6,36.2z"/>
	<path class="st0" d="M29.7,41c-0.6,0.8-1.3,0.7-2.1,0.4c-0.6-0.2-1.1-0.6-0.4-1.3c0.1-0.1,0.2-0.4,0.3-0.6c0.2-0.4,0.1-1.1,0.9-1.1
		c0.7,0.1,1.2,0.4,1.3,1.2C29.9,40.1,29.9,40.6,29.7,41z"/>
	<path class="st0" d="M33.8,47.1c-0.6-0.1-0.9-0.6-1.3-0.9c0.1-0.4,0.3-0.7,0.4-1.1c0.1-0.5,0.1-1,0.8-0.9c0.6,0.1,1,0.2,0.9,0.9
		C34.3,45.8,34.1,46.4,33.8,47.1z"/>
	<path class="st0" d="M48.4,37.3c-0.2-0.6-0.5-1.3-0.7-1.9c-0.1-0.3,0.1-0.3,0.3-0.3c0.2,0.1,0.5,0.2,0.7,0.3
		c0.4,0.3,0.8,0.6,0.1,1.1C48.5,36.6,48.4,37,48.4,37.3z"/>
	<path class="st0" d="M40,30.2L40,30.2L40,30.2L40,30.2z"/>
	<path class="st0" d="M43.7,29.5c-0.2,0-0.5,0-0.8,0c-0.4,0.1-0.8,0.2-1.2,0.3c0.4,0,0.8-0.1,1.1-0.1C43.2,29.5,43.5,29.6,43.7,29.5
		z"/>
	<path class="st0" d="M52.8,48.2c-0.4-1-0.8-2-1.2-3c-1-0.3-1.7,0.3-2.3,0.9c-0.4,0.5-1,0.7-1.6,0.9c-1.8,0.7-3.6,1.3-5.4,2
		c-1.4,0.5-2,0.3-2.5-1.1c-1.5-3.7-2.8-7.5-4.3-11.2c-0.4-1.1-0.1-1.7,0.9-2.1c2.1-0.9,4.2-1.7,6.4-2.5c0.9-0.3,1.5,0,2,0.9
		c0.3,0.5,0.4,1.1,0.7,1.6c0.9,2,1.4,4.2,2.5,6.1c0.8,0.5,1.4,0.2,2-0.4c0-0.9-0.4-1.6-0.7-2.4c-0.5,0.1-0.3-0.5-0.6-0.7
		c0-0.8-0.2-1.5-0.4-2.2c-0.4-0.2-0.6-0.5-0.7-0.9c-0.4-1-0.8-2-1.1-2.9c-0.3-0.8-0.8-1.4-1.7-1.5c-0.5,0-1,0-1.5,0l0,0
		c-0.9,0.2-1.8,0.4-2.6,0.6l0,0l0,0c-0.6,0.2-1.1,0.4-1.7,0.5l0,0l0,0c-1,0.5-2,1-3,1.5c-2.9,2.1-3,2.1-1.6,5.5c2,5,3.9,10,5.9,15
		c0.1,0.4,0.4,0.7,0.5,1.1c0.5,0.3,1,0.5,1.6,0.5c3.8-0.3,7.2-1.6,10.1-4C53,49.9,53.2,49.1,52.8,48.2z M43.1,52
		c-0.5,0-0.8-0.3-0.8-0.7c0-0.5,0.2-0.8,0.7-0.8s0.8,0.2,0.8,0.7C43.9,51.7,43.6,52,43.1,52z M45.3,51.2c-0.5,0-0.8-0.3-0.8-0.9
		c0-0.5,0.4-0.7,0.8-0.7c0.4,0,0.7,0.3,0.7,0.8C46,50.9,45.7,51.2,45.3,51.2z M47.5,50.4c-0.5-0.1-0.8-0.3-0.8-0.8s0.3-0.8,0.7-0.8
		s0.8,0.3,0.8,0.7C48.3,50.1,48,50.3,47.5,50.4z M49.7,49.6c-0.5-0.1-0.7-0.3-0.7-0.8c0-0.4,0.3-0.8,0.7-0.8c0.5,0,0.8,0.3,0.8,0.8
		S50.1,49.5,49.7,49.6z"/>
	<path class="st0" d="M41.8,29.8c-0.6,0.1-1.2,0.2-1.8,0.4c0.1,0,0.2,0,0.2-0.1C40.7,30,41.2,29.9,41.8,29.8z"/>
	<g>
		<path class="st0" d="M42.6,27.1c-0.5-0.1-1-0.2-1.5-0.2c-0.3-0.2-0.6-0.3-0.8-0.4c-0.8,0.1-1.5-0.1-2.3,0c-0.3,0-0.5,0.1-0.8,0.1
			s-0.6,0.2-0.8,0.4c0,1.1-0.9,2.1-2.1,2.1c-0.7,0-1.4-0.4-1.8-1c-0.1,0-0.2,0-0.3,0.1c-0.2,0.1-0.4,0.2-0.6,0.3
			c-0.8,0.5-1.5,1.1-2.3,1.7c-0.2,0.2-0.4,0.5-0.6,0.8c-0.4,0.4-0.8,0.8-1.2,1.2c-0.9,0.8-0.8,1.3,0.1,2c0.6,0.4,1.2,0.7,1.9,0.7
			c0.9,0,1.8,0,2.7,0c1.1-0.8,1.9-2,3.2-2.6c0.9-0.6,1.9-1,2.9-1.5c0.6-0.2,1.1-0.4,1.7-0.5c0.9-0.3,1.9-0.3,2.8-0.6
			c0.5-0.1,1.1,0.2,1.2-0.6C44.4,27.4,44.4,27.4,42.6,27.1z"/>
		<path class="st0" d="M33.8,24.9c0.2,0,0.4-0.1,0.6-0.1c0.9,0,1.7,0.6,2,1.5c0.3,0.1,0.6,0.2,0.9,0.2l0,0c1-0.1,2.1-0.4,3.1-0.1
			c0.3,0,0.5-0.1,0.8-0.2c1,0.1,2,0.2,3.2,0.3c-0.4-1.2-1.2-1.9-2.1-2.6c-2.5-1.8-5.4-1.9-8.3-1.4c-0.1,0.2-0.2,0.4-0.3,0.5
			c0,0.1-0.1,0.1-0.1,0.2c-0.1,0.2-0.2,0.4-0.2,0.6c0.1,0.3,0.3,0.6,0.3,0.9C33.7,24.8,33.7,24.9,33.8,24.9z"/>
		<path class="st0" d="M31.6,28.4c0.2-0.1,0.4-0.3,0.6-0.4c0.1-0.1,0.2-0.1,0.2-0.2c-0.1-0.3-0.2-0.6-0.2-0.9c0-0.9,0.6-1.7,1.3-2
			c0-0.1,0-0.2,0-0.3c-0.2-0.2-0.3-0.5-0.3-0.8c0,0,0,0,0-0.1c0,0,0,0,0-0.1c-0.1-0.1-0.3-0.2-0.4-0.2c-0.2,0-0.3,0-0.4-0.1
			c-0.2,0-0.4-0.1-0.6-0.1c-1.4,0.5-2.5,1.5-3.5,2.5c-1.6,1.6-2.5,3.5-2.4,5.8c0,0.2-0.1,0.6,0.2,0.7c0.3,0.2,0.4-0.2,0.6-0.3
			c0.6-0.4,1.1-1.1,1.8-1.4c0.3-0.1,0.5-0.3,0.8-0.5C30,29.4,30.7,28.9,31.6,28.4z"/>
	</g>
	<path class="st0" d="M33.1,23.5c0.2-0.1,0.3-0.1,0.4-0.2c0-0.1,0.1-0.1,0.1-0.2c0.1-0.2,0.1-0.3,0-0.6c-0.3-0.8-0.6-1.5-1-2.3
		c-0.2-0.4-0.4-0.9-0.9-0.7c-0.6,0.2-0.5,0.7-0.4,1.2c0.3,0.8,0.7,1.5,0.8,2.4c0.1,0.2,0.2,0.3,0.3,0.4c0.1,0,0.3,0,0.4,0.1
		C32.9,23.6,33,23.5,33.1,23.5z"/>
	<circle class="st0" cx="34.3" cy="27" r="1"/>
</g>
</svg>
