<?xml version="1.0" encoding="utf-8"?>
<!-- Generator: Adobe Illustrator 21.0.2, SVG Export Plug-In . SVG Version: 6.00 Build 0)  -->
<svg version="1.1" id="Layer_1" xmlns="http://www.w3.org/2000/svg" xmlns:xlink="http://www.w3.org/1999/xlink" x="0px" y="0px"
	 viewBox="0 0 74 74" style="enable-background:new 0 0 74 74;" xml:space="preserve">
<style type="text/css">
	.st0{fill:none;stroke:#006FAF;stroke-width:2;stroke-miterlimit:10;}
	.st1{fill:#006FAF;}
</style>
<title>Cloud &amp;amp; Infrastructure Services</title>
<circle class="st0" cx="37" cy="37" r="36"/>
<path class="st1" d="M23.5,25.3L23.5,25.3L23.5,25.3z"/>
<g>
	<path class="st1" d="M47.5,19.9v7.9c0,0,0,1.5-4.8,2.5s-15.5,2.5-16.2,2.9V25c0,0-0.2-0.3,3.3-0.8C33.3,23.8,46.3,22.6,47.5,19.9z
		 M47.5,30.3v7.9c0,0,0,1.5-4.8,2.5s-15.5,2.5-16.2,2.9v-8.2c0,0-0.2-0.3,3.3-0.8C33.3,34.2,46.3,33,47.5,30.3L47.5,30.3z
		 M47.5,40.8v7.9c0,0,0,1.5-4.8,2.5s-15.5,2.5-16.2,2.9V46c0,0-0.2-0.3,3.3-0.8S46.3,43.5,47.5,40.8z"/>
</g>
</svg>
