<?xml version="1.0" encoding="utf-8"?>
<!-- Generator: Adobe Illustrator 21.0.2, SVG Export Plug-In . SVG Version: 6.00 Build 0)  -->
<svg version="1.1" id="Layer_1" xmlns="http://www.w3.org/2000/svg" xmlns:xlink="http://www.w3.org/1999/xlink" x="0px" y="0px"
	 viewBox="0 0 74 74" style="enable-background:new 0 0 74 74;" xml:space="preserve">
<style type="text/css">
	.st0{fill:#006FAF;}
</style>
<title>health-checks</title>
<path class="st0" d="M37,74C16.6,74,0,57.4,0,37S16.6,0,37,0s37,16.6,37,37S57.4,74,37,74z M37,2C17.7,2,2,17.7,2,37s15.7,35,35,35
	s35-15.7,35-35S56.3,2,37,2z"/>
<g>
</g>
<g>
	<g>
		<rect x="27" y="21.7" class="st0" width="5.9" height="5.9"/>
		<rect x="34.1" y="21.7" class="st0" width="5.9" height="5.9"/>
		<rect x="41.1" y="21.7" class="st0" width="5.9" height="5.9"/>
		<rect x="41.1" y="28.8" class="st0" width="5.9" height="5.9"/>
		<rect x="41.1" y="35.9" class="st0" width="5.9" height="5.9"/>
		<rect x="34.1" y="28.8" class="st0" width="5.9" height="5.9"/>
		<rect x="27" y="35.9" class="st0" width="5.9" height="5.9"/>
	</g>
	<g>
		<path class="st0" d="M19,48.3h-3.1v2.9h3.5v0.9h-4.5V44h4.4v0.9H16v2.6h3V48.3z"/>
		<path class="st0" d="M20.7,47.9c0-0.6,0-1.1,0-1.6h0.9v0.9l0,0c0.3-0.6,0.9-1.1,1.8-1.1c0.8,0,1.4,0.5,1.6,1.2l0,0
			c0.2-0.3,0.4-0.6,0.6-0.8c0.3-0.3,0.7-0.4,1.3-0.4c0.8,0,1.9,0.5,1.9,2.5V52h-1v-3.3c0-1.1-0.4-1.8-1.3-1.8c-0.6,0-1.1,0.4-1.2,1
			c0,0.1-0.1,0.3-0.1,0.5V52h-1v-3.5c0-0.9-0.4-1.6-1.2-1.6c-0.7,0-1.1,0.5-1.3,1.1c-0.1,0.2-0.1,0.3-0.1,0.5V52h-1v-4.1H20.7z"/>
		<path class="st0" d="M35.5,50.5c0,0.6,0,1.1,0,1.6h-0.9l-0.1-0.9l0,0c-0.3,0.5-0.9,1.1-1.9,1.1c-0.9,0-2-0.5-2-2.5v-3.4h1.1v3.2
			c0,1.1,0.3,1.8,1.3,1.8c0.7,0,1.2-0.5,1.4-1c0.1-0.2,0.1-0.3,0.1-0.5v-3.6h1.1L35.5,50.5L35.5,50.5z"/>
		<path class="st0" d="M37.3,43.6h1.1v8.5h-1.1V43.6z"/>
		<path class="st0" d="M43.3,52.1l-0.1-0.7l0,0c-0.3,0.5-0.9,0.9-1.8,0.9c-1.2,0-1.8-0.8-1.8-1.7c0-1.4,1.2-2.2,3.5-2.2v-0.1
			c0-0.5-0.1-1.3-1.3-1.3c-0.5,0-1.1,0.2-1.5,0.4l-0.2-0.7c0.5-0.3,1.2-0.5,1.9-0.5c1.8,0,2.2,1.2,2.2,2.4v2.1c0,0.5,0,1,0.1,1.4
			C44.3,52.1,43.3,52.1,43.3,52.1z M43.2,49.2c-1.2,0-2.5,0.2-2.5,1.3c0,0.7,0.5,1,1,1c0.8,0,1.2-0.5,1.4-1c0-0.1,0.1-0.2,0.1-0.3
			V49.2z"/>
		<path class="st0" d="M47.1,44.6v1.7h1.5v0.8h-1.5v3.1c0,0.7,0.2,1.1,0.8,1.1c0.3,0,0.5,0,0.6-0.1V52c-0.2,0.1-0.5,0.1-0.9,0.1
			c-0.5,0-0.9-0.2-1.1-0.4c-0.3-0.3-0.4-0.8-0.4-1.5V47h-0.9v-0.8h0.9v-1.4L47.1,44.6z"/>
		<path class="st0" d="M55,49.2c0,2.1-1.5,3.1-2.9,3.1c-1.6,0-2.8-1.2-2.8-3c0-1.9,1.3-3.1,2.9-3.1C53.9,46.2,55,47.4,55,49.2z
			 M50.4,49.2c0,1.3,0.7,2.2,1.8,2.2c1,0,1.8-0.9,1.8-2.3c0-1-0.5-2.2-1.7-2.2C50.9,47,50.4,48.1,50.4,49.2z"/>
		<path class="st0" d="M56.3,48.1c0-0.7,0-1.3,0-1.8h0.9v1.1l0,0c0.3-0.8,0.9-1.3,1.6-1.3c0.1,0,0.2,0,0.3,0v1c-0.1,0-0.2,0-0.4,0
			c-0.7,0-1.3,0.6-1.4,1.4c0,0.1,0,0.3,0,0.5v3.1h-1C56.3,52.1,56.3,48.1,56.3,48.1z"/>
	</g>
</g>
</svg>
