<?xml version="1.0" encoding="utf-8"?>
<!-- Generator: Adobe Illustrator 21.0.2, SVG Export Plug-In . SVG Version: 6.00 Build 0)  -->
<svg version="1.1" id="Layer_1" xmlns="http://www.w3.org/2000/svg" xmlns:xlink="http://www.w3.org/1999/xlink" x="0px" y="0px"
	 viewBox="0 0 74 74" style="enable-background:new 0 0 74 74;" xml:space="preserve">
<style type="text/css">
	.st0{fill:none;stroke:#006FAF;stroke-width:2;stroke-miterlimit:10;}
	.st1{fill:#006FAF;}
</style>
<title>sencha</title>
<circle class="st0" cx="37" cy="37" r="36"/>
<path class="st1" d="M51.4,41.3L51.4,41.3c-0.2-0.8-0.4-1.6-0.7-2.4l0,0c-0.3-0.8-0.7-1.5-1.1-2.2l0,0c-0.3-0.4-0.6-0.9-0.9-1.3l0,0
	c-0.2-0.2-0.3-0.4-0.5-0.6l-0.1-0.1c-0.2-0.2-0.3-0.4-0.5-0.6l0,0c-0.2-0.2-0.3-0.4-0.5-0.5L47,33.5c-0.2-0.2-0.4-0.3-0.5-0.5
	l-0.1-0.1c-0.2-0.2-0.4-0.3-0.6-0.5l0,0c-0.2-0.1-0.4-0.3-0.6-0.4l-0.1-0.1c-0.2-0.1-0.4-0.3-0.6-0.4l-0.1-0.1
	c-0.2-0.1-0.5-0.3-0.7-0.4l-9.2-4.6l0,0L34,26.2L33.6,26l-0.1-0.1l-0.2-0.1l-0.2-0.1l-0.2-0.1l-0.2-0.1l-0.2-0.1l-0.2-0.2L32,25.1
	l-0.2-0.2l-0.1-0.1l-0.2-0.2l-0.1-0.1l-0.1-0.2c-2-2.9-1.3-6.8,1.5-8.8c0.2-0.2,0.4-0.3,0.7-0.4l-3,1.5c-6.1,3.1-9.4,9.9-7.8,16.6
	v0.1c0.1,0.3,0.1,0.5,0.2,0.8l0,0l0.6,1.5v0.1c0.1,0.2,0.2,0.5,0.3,0.7v0.1c0.2,0.5,0.5,1,0.8,1.4V38c0.1,0.2,0.3,0.4,0.4,0.6
	l0.1,0.1c0.2,0.2,0.3,0.4,0.5,0.6l0,0c0.2,0.2,0.3,0.4,0.5,0.6V40l0.5,0.5l0.1,0.1c0.2,0.2,0.4,0.3,0.6,0.5l0.1,0.1
	c0.2,0.2,0.4,0.3,0.6,0.5l0,0c0.2,0.1,0.4,0.3,0.6,0.4l0.1,0.1c0.2,0.1,0.4,0.3,0.6,0.4l0.1,0.1c0.2,0.2,0.5,0.3,0.7,0.4l9.7,4.8
	c2.2,1.1,3.6,3.3,3.6,5.7v0.9c0,0.1,0,0.3-0.1,0.4V55c0,0.1,0,0.2-0.1,0.3v0.1c0,0.1-0.1,0.2-0.1,0.4v0.1L43,56.2v0.1
	c0,0.1-0.1,0.2-0.2,0.3l-0.1,0.1l-0.1,0.2l0.3-0.2L42.7,57l-0.1,0.1l-0.2,0.2l-0.1,0.1l-0.2,0.2L42,57.7c-0.5,0.5-1.1,1-1.7,1.3
	l3-1.5C49.4,54.6,52.8,47.9,51.4,41.3z"/>
</svg>
