<svg id="Layer_1" data-name="Layer 1" xmlns="http://www.w3.org/2000/svg" viewBox="0 0 74 74"><defs><style>.cls-1{fill:#006faf;}</style></defs><title>serocos22</title><path class="cls-1" d="M33.09,41.71a.78.78,0,0,0-.26-.16,1.72,1.72,0,0,0-.34-.08l-.42,0a1.36,1.36,0,0,0-1.07.31.94.94,0,0,0-.17.46,5.43,5.43,0,0,0,0,.71,1.76,1.76,0,0,0,.19,1,.58.58,0,0,0,.27.22,1.25,1.25,0,0,0,.37.1l.45,0a3.88,3.88,0,0,0,.59,0,.9.9,0,0,0,.41-.17.75.75,0,0,0,.25-.45,4.63,4.63,0,0,0,0-.71,5.7,5.7,0,0,0-.05-.73A.74.74,0,0,0,33.09,41.71Zm-.41,1.63a.55.55,0,0,1-.09.26.33.33,0,0,1-.2.11l-.32,0a1.52,1.52,0,0,1-.33,0,.29.29,0,0,1-.2-.14.61.61,0,0,1-.08-.26c0-.11,0-.26,0-.45a4.21,4.21,0,0,1,0-.5.5.5,0,0,1,.1-.27.34.34,0,0,1,.19-.11,2,2,0,0,1,.32,0,2.09,2.09,0,0,1,.33,0,.31.31,0,0,1,.19.12.59.59,0,0,1,.09.28c0,.13,0,.29,0,.48A3.56,3.56,0,0,1,32.67,43.35Z" transform="translate(0 0)"/><path class="cls-1" d="M29.88,43.34q0,.4-.33.4a.43.43,0,0,1-.19,0,.15.15,0,0,1-.08-.1.74.74,0,0,1,0-.21V42h1v-.5h-1v-.62h-.65v.62h-.34V42h.34v1.4a1,1,0,0,0,.18.67.55.55,0,0,0,.3.14,2.4,2.4,0,0,0,.46,0,.88.88,0,0,0,.74-.25,1.47,1.47,0,0,0,.16-.82h-.57Z" transform="translate(0 0)"/><path class="cls-1" d="M23.66,41.46h-.09a1.53,1.53,0,0,0-.77.15.75.75,0,0,0-.28.68h.65a.39.39,0,0,1,.09-.3.34.34,0,0,1,.15-.07l.28,0a1,1,0,0,1,.38,0,.28.28,0,0,1,.14.12.83.83,0,0,1,.06.36v.41h0a.43.43,0,0,0-.19-.21.77.77,0,0,0-.28-.08l-.35,0a1.21,1.21,0,0,0-.78.19.81.81,0,0,0-.23.66.84.84,0,0,0,.2.63,1.07,1.07,0,0,0,.79.22,1.89,1.89,0,0,0,.58-.07.46.46,0,0,0,.3-.31h0l0,.33h.65v-1.8a.94.94,0,0,0-.23-.73A1.61,1.61,0,0,0,23.66,41.46Zm.54,2.19a.34.34,0,0,1-.2.12,2.18,2.18,0,0,1-.37,0,1.77,1.77,0,0,1-.34,0,.24.24,0,0,1-.17-.1.6.6,0,0,1-.06-.29.4.4,0,0,1,.08-.27.25.25,0,0,1,.16-.09l.36,0a1.11,1.11,0,0,1,.43.07.31.31,0,0,1,.17.31A.5.5,0,0,1,24.2,43.65Z" transform="translate(0 0)"/><path class="cls-1" d="M16.22,41.46l-.36,0a.67.67,0,0,0-.29.12.6.6,0,0,0-.21.3h0V40.33h-.66v3.89h.66V42.68a.82.82,0,0,1,.15-.57A.63.63,0,0,1,16,42a.74.74,0,0,1,.38.09.29.29,0,0,1,.1.17,1.3,1.3,0,0,1,0,.27v1.73h.66V42.4a1,1,0,0,0-.22-.73A1,1,0,0,0,16.22,41.46Z" transform="translate(0 0)"/><path class="cls-1" d="M13.74,43.34q0,.4-.33.4a.44.44,0,0,1-.19,0,.15.15,0,0,1-.08-.1.74.74,0,0,1,0-.21V42h1v-.5h-1v-.62h-.65v.62h-.34V42h.34v1.4a1,1,0,0,0,.18.67.54.54,0,0,0,.3.14,2.4,2.4,0,0,0,.46,0,.88.88,0,0,0,.74-.25,1.47,1.47,0,0,0,.16-.82h-.58Z" transform="translate(0 0)"/><path class="cls-1" d="M27.26,43.08a.8.8,0,0,1-.12.48.45.45,0,0,1-.22.16,1.06,1.06,0,0,1-.32,0,.88.88,0,0,1-.24,0,.38.38,0,0,1-.13-.08.26.26,0,0,1-.07-.15,1.36,1.36,0,0,1,0-.23V41.49h-.66v2c0,.51.3.76.91.76s.75-.15.87-.45h0v.41h.63V41.49h-.65Z" transform="translate(0 0)"/><path class="cls-1" d="M20.16,43c0-.24,0-.44,0-.57a2,2,0,0,0-.08-.4.7.7,0,0,0-.21-.33,1.65,1.65,0,0,0-1-.22,1.38,1.38,0,0,0-1,.27,1.57,1.57,0,0,0-.27,1.08,4.3,4.3,0,0,0,0,.67.89.89,0,0,0,.2.47.65.65,0,0,0,.26.18,1.53,1.53,0,0,0,.36.08l.43,0a4.71,4.71,0,0,0,.6,0,.81.81,0,0,0,.38-.15.87.87,0,0,0,.25-.71H19.5a.37.37,0,0,1-.1.31.35.35,0,0,1-.16.07l-.32,0-.29,0a.52.52,0,0,1-.19-.06.29.29,0,0,1-.12-.19,1.49,1.49,0,0,1,0-.35,1.21,1.21,0,0,0,0-.15Zm-1.85-.72a.31.31,0,0,1,.08-.18.29.29,0,0,1,.18-.09l.33,0h.29l.13,0a.25.25,0,0,1,.1.06.87.87,0,0,1,.09.5H18.29A2.36,2.36,0,0,1,18.31,42.26Z" transform="translate(0 0)"/><path class="cls-1" d="M37.65,41.58a1.2,1.2,0,0,0-.59-.12,1.79,1.79,0,0,0-.36,0,.84.84,0,0,0-.3.14.65.65,0,0,0-.21.3h0q-.1-.48-.81-.48c-.45,0-.74.14-.85.42h0v-.39h-.63v2.72h.65V42.65a.78.78,0,0,1,.14-.55.69.69,0,0,1,.49-.15.43.43,0,0,1,.36.12.73.73,0,0,1,.09.41v1.73h.66V42.62a.71.71,0,0,1,.15-.52.69.69,0,0,1,.48-.15.6.6,0,0,1,.28.06.29.29,0,0,1,.13.18,1.08,1.08,0,0,1,0,.33v1.7H38v-1.8a1.61,1.61,0,0,0-.07-.51A.58.58,0,0,0,37.65,41.58Z" transform="translate(0 0)"/><path class="cls-1" d="M47.28,41.71a.78.78,0,0,0-.26-.16,1.71,1.71,0,0,0-.34-.08l-.42,0a1.36,1.36,0,0,0-1.07.31.93.93,0,0,0-.17.46,5.31,5.31,0,0,0,0,.71,1.76,1.76,0,0,0,.19,1,.58.58,0,0,0,.27.22,1.24,1.24,0,0,0,.37.1l.45,0a3.89,3.89,0,0,0,.59,0,.91.91,0,0,0,.41-.17.75.75,0,0,0,.25-.45,4.59,4.59,0,0,0,0-.71,5.64,5.64,0,0,0-.05-.73A.74.74,0,0,0,47.28,41.71Zm-.41,1.63a.55.55,0,0,1-.09.26.33.33,0,0,1-.2.11l-.32,0a1.51,1.51,0,0,1-.33,0,.29.29,0,0,1-.2-.14.61.61,0,0,1-.08-.26c0-.11,0-.26,0-.45a4.28,4.28,0,0,1,0-.5.5.5,0,0,1,.1-.27.34.34,0,0,1,.19-.11,2,2,0,0,1,.32,0,2.07,2.07,0,0,1,.33,0,.32.32,0,0,1,.19.12.59.59,0,0,1,.09.28c0,.13,0,.29,0,.48A3.5,3.5,0,0,1,46.86,43.35Z" transform="translate(0 0)"/><path class="cls-1" d="M50.16,41.57a1.33,1.33,0,0,0-.59-.11l-.36,0a.67.67,0,0,0-.29.12.6.6,0,0,0-.21.3h0v-.41H48v2.72h.66V42.73a2.06,2.06,0,0,1,0-.4.39.39,0,0,1,.11-.21.68.68,0,0,1,.51-.17.72.72,0,0,1,.32.05.29.29,0,0,1,.15.17,1.08,1.08,0,0,1,0,.33v1.71h.66V42.42a1.64,1.64,0,0,0-.07-.53A.55.55,0,0,0,50.16,41.57Z" transform="translate(0 0)"/><path class="cls-1" d="M57.76,43.08a.8.8,0,0,1-.12.48.45.45,0,0,1-.22.16,1.07,1.07,0,0,1-.32,0,.88.88,0,0,1-.24,0,.38.38,0,0,1-.13-.08.26.26,0,0,1-.07-.15,1.39,1.39,0,0,1,0-.23V41.49H56v2c0,.51.3.76.91.76s.75-.15.87-.45h0v.41h.63V41.49h-.65Z" transform="translate(0 0)"/><path class="cls-1" d="M54.94,41.53a1.65,1.65,0,0,0-.49-.07,1.39,1.39,0,0,0-.51.08.53.53,0,0,0-.32.31h0V40.33h-.66v3.89h.66l0-.4h0a.82.82,0,0,0,.83.44,1.9,1.9,0,0,0,.46,0,.69.69,0,0,0,.31-.17.76.76,0,0,0,.2-.31,1.56,1.56,0,0,0,.08-.37c0-.12,0-.27,0-.45v-.21a1.46,1.46,0,0,0-.23-1A.67.67,0,0,0,54.94,41.53Zm-.13,1.78a.48.48,0,0,1-.11.28.37.37,0,0,1-.21.12l-.29,0a.56.56,0,0,1-.5-.18.68.68,0,0,1-.08-.25c0-.1,0-.23,0-.41a.85.85,0,0,0,0-.12,2.86,2.86,0,0,1,0-.39.54.54,0,0,1,.09-.25.5.5,0,0,1,.45-.19h.09c.25,0,.41.06.48.18a.64.64,0,0,1,.09.27c0,.11,0,.25,0,.43A3.91,3.91,0,0,1,54.8,43.31Z" transform="translate(0 0)"/><path class="cls-1" d="M61,42.66a2.65,2.65,0,0,0-.75-.09,3.23,3.23,0,0,1-.46,0c-.09,0-.14-.05-.17-.1a.33.33,0,0,1,0-.18.36.36,0,0,1,.12-.31,1.34,1.34,0,0,1,.46-.06.94.94,0,0,1,.39.06.26.26,0,0,1,.14.27h.65A.7.7,0,0,0,61,41.6a.82.82,0,0,0-.35-.12,4.72,4.72,0,0,0-.52,0,3,3,0,0,0-.82.08.57.57,0,0,0-.31.23.82.82,0,0,0-.1.44v.08a.76.76,0,0,0,.19.6.64.64,0,0,0,.37.14,6.94,6.94,0,0,0,.72,0,1.1,1.1,0,0,1,.43.08.29.29,0,0,1,.15.3.31.31,0,0,1-.11.28.68.68,0,0,1-.34.08H60a1.18,1.18,0,0,1-.34-.06c-.09-.05-.14-.18-.14-.38h-.66a1.38,1.38,0,0,0,.06.43.76.76,0,0,0,.17.27.73.73,0,0,0,.37.15,4.56,4.56,0,0,0,.59,0h0l.49,0a1.26,1.26,0,0,0,.39-.09.69.69,0,0,0,.3-.24.76.76,0,0,0,.11-.45,1.21,1.21,0,0,0-.1-.52A.51.51,0,0,0,61,42.66Z" transform="translate(0 0)"/><rect class="cls-1" x="43.85" y="40.33" width="0.65" height="0.55"/><path class="cls-1" d="M42.91,43.34q0,.4-.33.4a.44.44,0,0,1-.19,0,.16.16,0,0,1-.08-.1.74.74,0,0,1,0-.21V42h1v-.5h-1v-.62h-.65v.62h-.34V42h.34v1.4a1,1,0,0,0,.18.67.54.54,0,0,0,.3.14,2.39,2.39,0,0,0,.46,0,.88.88,0,0,0,.74-.25,1.47,1.47,0,0,0,.16-.82h-.58Z" transform="translate(0 0)"/><path class="cls-1" d="M39.71,41.46h-.09a1.53,1.53,0,0,0-.77.15.75.75,0,0,0-.28.68h.65a.39.39,0,0,1,.09-.3.33.33,0,0,1,.15-.07l.28,0a1,1,0,0,1,.38,0,.28.28,0,0,1,.14.12.82.82,0,0,1,.06.36v.41h0a.42.42,0,0,0-.19-.21.77.77,0,0,0-.28-.08l-.35,0a1.21,1.21,0,0,0-.78.19.81.81,0,0,0-.23.66.84.84,0,0,0,.2.63,1.07,1.07,0,0,0,.79.22,1.89,1.89,0,0,0,.58-.07.46.46,0,0,0,.3-.31h0l0,.33H41v-1.8a.94.94,0,0,0-.23-.73A1.61,1.61,0,0,0,39.71,41.46Zm.54,2.19a.34.34,0,0,1-.2.12,2.19,2.19,0,0,1-.37,0,1.77,1.77,0,0,1-.34,0,.24.24,0,0,1-.17-.1.6.6,0,0,1-.06-.29.4.4,0,0,1,.08-.27.25.25,0,0,1,.16-.09l.36,0a1.1,1.1,0,0,1,.43.07.31.31,0,0,1,.17.31A.5.5,0,0,1,40.25,43.65Z" transform="translate(0 0)"/><rect class="cls-1" x="43.85" y="41.49" width="0.65" height="2.72"/><path class="cls-1" d="M61.57,34.15a1.55,1.55,0,0,0-1-.77,7.91,7.91,0,0,0-2.27-.27A9.65,9.65,0,0,1,56.89,33c-.27-.06-.44-.16-.5-.3a1,1,0,0,1-.11-.53,1.08,1.08,0,0,1,.36-.92A4.06,4.06,0,0,1,58,31.1a2.86,2.86,0,0,1,1.17.19.79.79,0,0,1,.42.81h2a2.11,2.11,0,0,0-.92-1.92,2.46,2.46,0,0,0-1-.36A14.42,14.42,0,0,0,58,29.76a9,9,0,0,0-2.47.23,1.73,1.73,0,0,0-.94.69A2.5,2.5,0,0,0,54.3,32v.25a2.28,2.28,0,0,0,.58,1.8,1.94,1.94,0,0,0,1.13.42,20.57,20.57,0,0,0,2.17.12,3.31,3.31,0,0,1,1.28.25.89.89,0,0,1,.45.89,1,1,0,0,1-.33.86,2.07,2.07,0,0,1-1,.23c-.16,0-.56,0-.84,0a3.61,3.61,0,0,1-1-.19c-.28-.16-.42-.55-.42-1.16h-2a4.13,4.13,0,0,0,.17,1.3,2.29,2.29,0,0,0,.5.81,2.17,2.17,0,0,0,1.11.45,13.4,13.4,0,0,0,1.77.09H58a13.58,13.58,0,0,0,1.47-.06,3.79,3.79,0,0,0,1.19-.28,2.09,2.09,0,0,0,.91-.73,2.31,2.31,0,0,0,.34-1.36A3.64,3.64,0,0,0,61.57,34.15Z" transform="translate(0 0)"/><path class="cls-1" d="M53.27,34a16.92,16.92,0,0,0-.16-2.2,2.24,2.24,0,0,0-.64-1.27,2.31,2.31,0,0,0-.78-.47,5.09,5.09,0,0,0-1-.24,10.6,10.6,0,0,0-1.28-.06q-2.48,0-3.23.94a2.81,2.81,0,0,0-.52,1.38,16.25,16.25,0,0,0-.13,2.14,5.32,5.32,0,0,0,.58,2.92,1.77,1.77,0,0,0,.81.66,3.76,3.76,0,0,0,1.11.3,11.41,11.41,0,0,0,1.34.06A11.58,11.58,0,0,0,51.13,38a2.73,2.73,0,0,0,1.25-.52,2.25,2.25,0,0,0,.75-1.36A13.83,13.83,0,0,0,53.27,34Zm-2,1.45a1.66,1.66,0,0,1-.27.78,1,1,0,0,1-.61.34,5.55,5.55,0,0,1-1,.08,4.53,4.53,0,0,1-1-.09.88.88,0,0,1-.61-.42,1.85,1.85,0,0,1-.23-.8c0-.34,0-.8,0-1.34a12.92,12.92,0,0,1,.06-1.5,1.5,1.5,0,0,1,.3-.81,1,1,0,0,1,.58-.33,6,6,0,0,1,1-.11,6.26,6.26,0,0,1,1,.11,1,1,0,0,1,.58.36,1.78,1.78,0,0,1,.28.84c0,.39,0,.86,0,1.44A10.77,10.77,0,0,1,51.22,35.45Z" transform="translate(0 0)"/><path class="cls-1" d="M39.15,32.32a1.64,1.64,0,0,1,.22-.58c.2-.33.69-.5,1.44-.5s1.33.14,1.53.44a1.65,1.65,0,0,1,.25,1.06h2a5.11,5.11,0,0,0-.19-1.38,2,2,0,0,0-.73-1.06,2.88,2.88,0,0,0-1.14-.41,9.26,9.26,0,0,0-1.67-.14,9.11,9.11,0,0,0-1.81.19,2.07,2.07,0,0,0-1.17.75,2.92,2.92,0,0,0-.55,1.2,10.24,10.24,0,0,0-.16,2.16q0,.91,0,1.5a4.71,4.71,0,0,0,.23,1,2.27,2.27,0,0,0,.48.78A2,2,0,0,0,39,38a9.47,9.47,0,0,0,1.84.14,4.86,4.86,0,0,0,2.87-.61,3.27,3.27,0,0,0,.8-2.59h-2v.27a1.65,1.65,0,0,1-.28,1.14.85.85,0,0,1-.45.23,4.91,4.91,0,0,1-1.19.09,3.35,3.35,0,0,1-.73-.09.92.92,0,0,1-.44-.23,1.19,1.19,0,0,1-.23-.41,2.31,2.31,0,0,1-.09-.56c-.05-.39-.08-1.71-.06-2.09A9,9,0,0,1,39.15,32.32Z" transform="translate(0 0)"/><path class="cls-1" d="M34.35,31.91A6.17,6.17,0,0,1,34.41,33h1.83v-.7a3.7,3.7,0,0,0-.3-1.66,1.73,1.73,0,0,0-.69-.66,2.68,2.68,0,0,0-1.19-.22,2.09,2.09,0,0,0-2.16,1.19h-.09l.06-1.09H30v8.2h2V33a2,2,0,0,1,.38-1.36,1.37,1.37,0,0,1,1.11-.42,1.22,1.22,0,0,1,.69.17A.71.71,0,0,1,34.35,31.91Z" transform="translate(0 0)"/><path class="cls-1" d="M26.77,35.46a1.13,1.13,0,0,1-.3.92,1.06,1.06,0,0,1-.48.22,6.61,6.61,0,0,1-1,0,5.58,5.58,0,0,1-.86,0,1.57,1.57,0,0,1-.58-.19.87.87,0,0,1-.37-.58,6.87,6.87,0,0,1-.11-1.5h5.64c0-.73,0-1.31-.08-1.7a6,6,0,0,0-.23-1.22,2.1,2.1,0,0,0-.62-1,5,5,0,0,0-2.91-.67,4.15,4.15,0,0,0-3,.81c-.55.55-.83,1.64-.83,3.27a13,13,0,0,0,.14,2,2.68,2.68,0,0,0,.59,1.42,2,2,0,0,0,.8.55,4.54,4.54,0,0,0,1.08.25,10.92,10.92,0,0,0,1.3.06,13.86,13.86,0,0,0,1.81-.09A2.43,2.43,0,0,0,28,37.6a2.63,2.63,0,0,0,.77-2.14Zm-3.61-3.3a.93.93,0,0,1,.23-.55.87.87,0,0,1,.53-.28,6.62,6.62,0,0,1,1-.09,5.79,5.79,0,0,1,.87,0,1.71,1.71,0,0,1,.41.11.75.75,0,0,1,.31.19,2.61,2.61,0,0,1,.27,1.5H23.11A7.09,7.09,0,0,1,23.16,32.16Z" transform="translate(0 0)"/><path class="cls-1" d="M19.41,37.07a2.31,2.31,0,0,0,.34-1.36,3.64,3.64,0,0,0-.3-1.56,1.55,1.55,0,0,0-1-.77,7.87,7.87,0,0,0-2.27-.27A9.69,9.69,0,0,1,14.78,33c-.27-.06-.44-.16-.5-.3a1,1,0,0,1-.11-.53,1.08,1.08,0,0,1,.36-.92,3.61,3.61,0,0,1,1.38-.17,2.85,2.85,0,0,1,1.17.19.79.79,0,0,1,.42.81h2a2.11,2.11,0,0,0-.92-1.92,2.46,2.46,0,0,0-1-.36,14.27,14.27,0,0,0-1.58-.06,9,9,0,0,0-2.47.23,1.73,1.73,0,0,0-.94.69A2.49,2.49,0,0,0,12.19,32v.25a2.27,2.27,0,0,0,.58,1.8,1.94,1.94,0,0,0,1.13.42,20.62,20.62,0,0,0,2.17.13,3.31,3.31,0,0,1,1.28.25.89.89,0,0,1,.45.89,1,1,0,0,1-.33.86,2.06,2.06,0,0,1-1,.23,6.35,6.35,0,0,1-.84,0,3.63,3.63,0,0,1-1-.19c-.28-.16-.42-.55-.42-1.16h-2a4.13,4.13,0,0,0,.17,1.3,2.29,2.29,0,0,0,.5.81,2.17,2.17,0,0,0,1.11.45,13.51,13.51,0,0,0,1.77.09h.11a13.49,13.49,0,0,0,1.47-.06,3.76,3.76,0,0,0,1.19-.28A2.08,2.08,0,0,0,19.41,37.07Z" transform="translate(0 0)"/><path class="cls-1" d="M37,0A37,37,0,1,0,74,37,37,37,0,0,0,37,0Zm0,72A35,35,0,1,1,72,37,35,35,0,0,1,37,72Z" transform="translate(0 0)"/></svg>