<?xml version="1.0" encoding="utf-8"?>
<!-- Generator: Adobe Illustrator 21.0.2, SVG Export Plug-In . SVG Version: 6.00 Build 0)  -->
<svg version="1.1" id="Layer_1" xmlns="http://www.w3.org/2000/svg" xmlns:xlink="http://www.w3.org/1999/xlink" x="0px" y="0px"
	 viewBox="0 0 74 74" style="enable-background:new 0 0 74 74;" xml:space="preserve">
<style type="text/css">
	.st0{fill:#006FAF;}
</style>
<title>health-checks</title>
<path class="st0" d="M37,0C16.6,0,0,16.6,0,37s16.6,37,37,37s37-16.6,37-37S57.4,0,37,0z M37,72C17.7,72,2,56.3,2,37S17.7,2,37,2
	s35,15.7,35,35S56.3,72,37,72z"/>
<g>
	<polygon class="st0" points="45.1,22.2 39.6,51.8 44.5,51.8 50.1,22.2 	"/>
	<polygon class="st0" points="37.4,22.2 31.8,51.8 36.1,51.8 41.6,22.2 	"/>
	<polygon class="st0" points="29.5,22.2 23.9,51.8 27.8,51.8 33.4,22.2 	"/>
</g>
</svg>
