<?xml version="1.0" encoding="utf-8"?>
<!-- Generator: Adobe Illustrator 21.0.2, SVG Export Plug-In . SVG Version: 6.00 Build 0)  -->
<svg version="1.1" id="Layer_1" xmlns="http://www.w3.org/2000/svg" xmlns:xlink="http://www.w3.org/1999/xlink" x="0px" y="0px"
	 viewBox="0 0 74 74" style="enable-background:new 0 0 74 74;" xml:space="preserve">
<style type="text/css">
	.st0{fill:none;stroke:#006FAF;stroke-width:2;stroke-miterlimit:10;}
	.st1{fill:#006FAF;}
</style>
<title>java</title>
<circle class="st0" cx="37" cy="37" r="36"/>
<g id="Layer_1_1_">
</g>
<path class="st1" d="M56.5,33.2c0-2.8-2.3-5.2-5.2-5.2c-1,0-1.9,0.3-2.7,0.7l-6.1-5.3c0.1-0.3,0.1-0.6,0.1-1c0-2.8-2.3-5.2-5.2-5.2
	s-5.2,2.3-5.2,5.2c0,0.3,0,0.7,0.1,1l-6.1,5.3c-0.8-0.5-1.7-0.8-2.7-0.8c-2.8,0-5.2,2.3-5.2,5.2c0,2.4,1.6,4.4,3.9,5l2.3,8.3
	C23.6,47.3,23,48.6,23,50c0,2.8,2.3,5.2,5.2,5.2c2.1,0,3.9-1.3,4.7-3h8.9c0.8,1.8,2.6,3,4.7,3c2.8,0,5.2-2.3,5.2-5.2
	c0-1.5-0.7-2.9-1.7-3.8l2.4-8.1C54.8,37.7,56.5,35.6,56.5,33.2z M46.6,45c-2.4,0-4.4,1.6-5,3.8h-8.3c-0.6-2.2-2.6-3.8-5-3.8
	c-0.2,0-0.5,0-0.7,0.1l-2-7.1c1.9-0.8,3.2-2.6,3.2-4.8c0-0.7-0.1-1.4-0.4-2l5.7-4.8c0.9,0.8,2.1,1.3,3.4,1.3c1.3,0,2.5-0.5,3.4-1.3
	l5.7,4.8c-0.3,0.6-0.4,1.3-0.4,2c0,2.1,1.3,3.9,3.1,4.7L47.1,45C46.9,45,46.8,45,46.6,45z"/>
</svg>
