<?xml version="1.0" encoding="utf-8"?>
<!-- Generator: Adobe Illustrator 21.0.2, SVG Export Plug-In . SVG Version: 6.00 Build 0)  -->
<svg version="1.1" id="Layer_1" xmlns="http://www.w3.org/2000/svg" xmlns:xlink="http://www.w3.org/1999/xlink" x="0px" y="0px"
	 viewBox="0 0 74 74" style="enable-background:new 0 0 74 74;" xml:space="preserve">
<style type="text/css">
	.st0{fill:none;stroke:#006FAF;stroke-width:2;stroke-miterlimit:10;}
	.st1{fill:#006FAF;}
</style>
<title>java</title>
<circle class="st0" cx="37" cy="37" r="36"/>
<g id="Layer_1_1_">
</g>
<g>
	<path class="st1" d="M32.4,45.1c-0.2,0-1.8,0-1.8,0c-0.4,0-0.7,0-1.1,0c-0.1,0-0.5,0-0.8-0.3c-0.2-0.2-0.3-0.6-0.3-0.8
		c0-1.2,0-2.5,0-3.7V38c0-4.6,0-9.1,0-13.7c0-0.2,0-0.6,0.3-0.8c0.2-0.2,0.5-0.3,0.8-0.3l0,0c0.7,0,1.4,0,2.1,0s1.4,0,2.2,0
		c0.2,0,0.5,0,0.7,0.3c0.2,0.2,0.2,0.5,0.2,0.7c0,0.8,0,1.5,0,2.3c0,0.6,0,1.2,0,1.9c0.4,0,0.9,0,1.3,0c0.5,0,0.9,0,1.4,0
		c0-1.3,0-7.5,0-7.5c0-0.4-0.1-0.4-0.3-0.5c0,0-0.1,0-0.2,0c0,0-5.8,0-7.2,0c-2.5,0-3.4,0-3.7,0c-0.4,0.2-0.4,0.6-0.4,1.3V22
		c0,0.8,0,1.5,0,2.2c0,1,0,1.9,0,2.9c0,5.7,0,19.6,0,19.6c0,0.3,0.7,1,1,1c0,0,4.9,0,5.7,0C32.4,46.9,32.4,46,32.4,45.1z"/>
	<path class="st1" d="M55.7,42c-0.1-1.5-0.8-2.8-2.2-3.7c-1-0.7-2.2-1-3.7-1h-0.4c-1,0-1-0.6-1.1-1.1c-0.3-2.7-1-4.9-2.1-6.8
		c-1.4-2.3-3.5-3.8-6.3-4.6v2.6c1.9,0.7,3.3,2.1,4.2,4c0.8,1.7,1,3.4,1.2,4.7c0.1,1.3,0.1,2.6,0,3.8c0.6,0,1.2,0,1.8,0h0.7
		c0.3,0,0.6,0,0.9,0c0.3,0,0.6,0,0.9,0c0.4,0,0.8,0,1.1,0.1c1.3,0.2,2.1,1,2.1,2.3c0,0.4,0,0.7,0,1.1v0.5c0,1-0.3,1.3-1.2,1.3h-5.4
		c-2.1,0-4.2,0-6.4,0c0,1,0,1.9,0,2.8h0.6c2.3,0,4.6,0,6.9,0c2.2,0,4.4,0,6.7,0h0.2c0.5,0,0.9,0,1.2-0.3c0.1-0.1,0.2-0.4,0.2-0.7
		c0-0.5,0-1,0-1.5C55.8,44.3,55.8,43.1,55.7,42z"/>
	<path class="st1" d="M38.6,50.3c-0.2,0-0.5,0-0.7-0.3c-0.2-0.2-0.3-0.6-0.3-0.8c0-1.2,0-2.4,0-3.6c0-1,0-2.1,0-3.1
		c-0.4,0-0.9,0-1.3,0c-0.4,0-0.9,0-1.3,0l0,0c0,1.2,0,2.3,0,3.5c0,1.1,0,2.1,0,3.2c0,0.2,0,0.6-0.3,0.8c-0.3,0.3-0.6,0.3-0.7,0.3
		h-0.1c-0.3,0-0.6,0-0.9,0c-0.2,0-0.4,0-0.6,0l0.8,1.1c1.1,1.4,2.1,2.9,3.2,4.4c0.6-0.9,1.2-1.7,1.9-2.6l2.1-2.9h-0.6
		C39.4,50.3,39,50.3,38.6,50.3z"/>
	<path class="st1" d="M40.4,30.3c-1.4,0-2.7,0-4.1,0c-1.4,0-2.8,0-4.2,0c-0.4,0-0.5,0.1-0.4,0.4c0,0.6,0,1.2,0,1.8
		c0,0.2,0,0.4,0.3,0.4c2.8,0,5.6,0,8.5,0c0.2,0,0.3-0.1,0.3-0.3c0-0.6,0-1.3,0-1.9C40.8,30.3,40.7,30.3,40.4,30.3z"/>
	<path class="st1" d="M40.8,34.5c0-0.2-0.1-0.3-0.3-0.3c-2.8,0-5.6,0-8.5,0c-0.2,0-0.3,0.1-0.3,0.3c0,0.6,0,1.3,0,1.9
		c0,0.3,0.1,0.4,0.4,0.4c1.4,0,2.8,0,4.2,0s2.7,0,4.1,0c0.3,0,0.4,0,0.4-0.4C40.7,35.7,40.7,35.1,40.8,34.5z"/>
	<path class="st1" d="M32,40.6c2.8,0,5.6,0,8.4,0c0.3,0,0.4-0.1,0.4-0.4c0-0.6,0-1.2,0-1.8c0-0.3-0.1-0.4-0.4-0.4
		c-1.4,0-2.8,0-4.2,0s-2.7,0-4.1,0c-0.4,0-0.5,0.1-0.5,0.5c0,0.6,0,1.1,0,1.7C31.7,40.5,31.7,40.6,32,40.6z"/>
</g>
</svg>
