<?xml version="1.0" encoding="utf-8"?>
<!-- Generator: Adobe Illustrator 21.0.2, SVG Export Plug-In . SVG Version: 6.00 Build 0)  -->
<svg version="1.1" id="Layer_1" xmlns="http://www.w3.org/2000/svg" xmlns:xlink="http://www.w3.org/1999/xlink" x="0px" y="0px"
	 viewBox="0 0 74 74" style="enable-background:new 0 0 74 74;" xml:space="preserve">
<style type="text/css">
	.st0{fill:#006FAF;}
</style>
<title>health-checks</title>
<path class="st0" d="M37,74C16.6,74,0,57.4,0,37S16.6,0,37,0s37,16.6,37,37S57.4,74,37,74z M37,2C17.7,2,2,17.7,2,37s15.7,35,35,35
	s35-15.7,35-35S56.3,2,37,2z"/>
<g>
</g>
<g>
	<path class="st0" d="M50.1,33.8c-0.2,0-0.4,0-0.6,0c-0.8-2-2.3-3.6-4.2-4.6c0-0.1,0-0.3,0-0.4c0-1.7-1.4-3.1-3.1-3.1
		c-0.7,0-1.4,0.3-1.9,0.7v2.1V30v1.2c0.5,0.4,1.2,0.7,1.9,0.7c1,0,2-0.5,2.5-1.3c1.6,0.8,2.8,2.2,3.4,3.8C47.5,35,47,35.8,47,36.7
		c0,1,0.5,1.8,1.2,2.4c-0.6,1.7-1.8,3.1-3.5,3.9c-0.6-0.8-1.5-1.3-2.5-1.3c-0.7,0-1.4,0.3-1.9,0.7v1.2v1.5v2.1
		c0.5,0.4,1.2,0.7,1.9,0.7c1.7,0,3.1-1.4,3.1-3.1c0-0.1,0-0.3,0-0.4c1.9-0.9,3.5-2.6,4.2-4.6c0.2,0,0.4,0,0.6,0
		c1.7,0,3.1-1.4,3.1-3.1C53.2,35.2,51.8,33.8,50.1,33.8z"/>
	<path class="st0" d="M20.9,25.1l-0.1,23.9l17.8,3.2V21.8L20.9,25.1z M30.9,43c-1.4,1.1-3.4,0.6-4.9,0c0-0.9,0-1.8,0-2.7
		c1,0.7,2.5,1.8,3.6,0.8c0.9-1.5-0.9-2.5-1.9-3.2c-2.2-1.3-2.3-5-0.1-6.4c1.3-0.8,2.8-0.6,4.1-0.4c0,0.8,0,1.7,0,2.5
		c-1.2-0.4-2.6-1.1-3.6,0c-0.7,1.7,1.4,2.3,2.5,3.3C32.5,38.2,32.7,41.5,30.9,43z"/>
</g>
</svg>
