<?xml version="1.0" encoding="utf-8"?>
<!-- Generator: Adobe Illustrator 21.0.2, SVG Export Plug-In . SVG Version: 6.00 Build 0)  -->
<svg version="1.1" id="Layer_1" xmlns="http://www.w3.org/2000/svg" xmlns:xlink="http://www.w3.org/1999/xlink" x="0px" y="0px"
	 viewBox="0 0 74 74" style="enable-background:new 0 0 74 74;" xml:space="preserve">
<style type="text/css">
	.st0{fill:none;stroke:#006FAF;stroke-width:2;stroke-miterlimit:10;}
	.st1{fill:#006FAF;}
</style>
<title>Cloud &amp;amp; Infrastructure Services</title>
<circle class="st0" cx="37" cy="37" r="36"/>
<path class="st1" d="M35.1,28.4c-0.3,0-0.2,0.4-0.4,0.4C34.5,28.8,34.6,28.4,35.1,28.4z M36.2,28.5c0.3-0.1,0.3,0.2,0.5,0.2
	C36.9,28.6,36.7,28.2,36.2,28.5z M47.6,50.4c-1,0.5-2.4,1.7-2.9,2.1c-0.4,0.4-1.9,0.5-2.8,0.1c-1-0.5-0.5-1.3-2-1.4
	c-0.8,0-1.5,0-2.3,0c-0.7,0-1.3,0-2,0.1c-2.4,0-2.6,1.6-4.1,1.5c-1,0-2.3-0.8-4.6-1.3c-1.6-0.3-3.1-0.4-3.4-1.1
	c-0.3-0.7,0.4-1.5,0.4-2.2c0.1-0.9-0.7-2.1-0.1-2.6c0.5-0.4,1.4-0.1,2.1-0.5c0.7-0.4,0.9-0.7,0.9-1.5c0.2,0.8,0,1.5-0.6,1.9
	c-0.3,0.2-1,0.3-1.5,0.3c-0.4,0-0.7,0-0.8,0.2c-0.2,0.2-0.1,0.5,0.1,1c0.2,0.5,0.4,0.8,0.4,1.3c0,0.6-0.7,1.2-0.6,1.7
	c0,0.2,0.2,0.3,0.7,0.5c0.7,0.2,2,0.4,3.3,0.7c1.4,0.3,2.9,1,3.8,0.9c2.7-0.4,1.2-3.3,0.7-4c-2.3-3.6-3.8-5.9-5-5
	c-0.3,0.2-0.3-0.6-0.3-0.9c0.1-1.2,0.6-1.6,1-2.5c0.7-1.7,1.2-3.7,2.2-4.7c0.8-1,2-2.6,2.2-3.4c-0.2-1.9-0.3-3.8-0.3-5.5
	c0-1.8,0.3-3.4,2.3-4.5c0.5-0.3,1.1-0.4,1.8-0.4c1.2,0,2.6,0.3,3.5,1c1.4,1,2.3,3.2,2.2,4.8c-0.1,1.2,0.1,2.5,0.5,3.8
	c0.5,1.5,1.2,2.6,2.4,3.9c1.4,1.5,2.5,4.4,2.8,6.3c0.3,1.7-0.1,2.8-0.5,2.9c-0.6,0.1-0.9,1.9-2.7,1.8c-1.1-0.1-1.2-0.7-1.6-1.3
	c-0.5-0.9-1-0.6-1.2,0.3c-0.1,0.5,0,1.2,0.1,1.7c0.3,1.1,0.2,2.2,0,3.4c-0.4,2.5,1.7,2.9,3.1,1.8c1.4-1.2,1.7-1.3,3.4-1.9
	c2.6-0.9,1.8-1.7,0.3-2.2c-1.3-0.4-1.3-2.6-0.9-3c0.1,2.3,1.3,2.6,1.8,3C51.9,48.6,48.9,49.7,47.6,50.4z M41.7,43.6
	c0.2-0.3,0.5-0.3,0.9-0.3c0.1-1.4,2.2-1.3,3-0.7c0-0.3-0.7-0.6-1-0.8c0.5-1.6,0.3-2.2-0.1-3.7c-0.2-1.1-1.3-2.7-2.1-3.2
	c0.2,0.2,0.6,0.7,1,1.5c0.7,1.3,1.4,3.3,0.9,4.9c-0.2,0.6-0.6,0.7-0.9,0.7c-1.3,0.1-0.5-1.5-1-3.7c-0.6-2.5-1.2-2.7-1.3-2.9
	c-0.7-3.2-1.5-2.9-1.7-4.1c-0.2-1.1,0.9-2-0.6-2.3c-0.5-0.1-1.1-0.6-1.4-0.6c-0.3,0-0.4-1.8,0.6-1.8c1-0.1,1.2,1.1,1,1.6
	c-0.3,0.5,0,0.6,0.5,0.5c0.4-0.1,0.1-1.2,0.2-1.3c-0.3-1.5-0.9-1.7-1.5-1.8c-2.4,0.2-1.3,2.9-1.6,2.6c-0.3-0.4-1.4,0-1.4-0.3
	c0-1.4-0.4-2.2-1.1-2.2c-0.7,0-1,1-1,1.5c0,0.5,0.3,1.7,0.6,1.6c0.2-0.1,0.5-0.4,0.2-0.4c-0.2,0-0.4-0.4-0.4-0.8
	c0-0.5,0.1-0.9,0.7-0.9c0.7,0,0.7,1.4,0.6,1.5c-0.2,0.2-0.5,0.5-0.5,0.5c-0.2,0.4-0.7,0.5-0.8,0.6c-0.3,0.3-0.4,0.7-0.1,0.8
	c0.8,0.5,0.5,1,1.7,1c0.7,0,1.3-0.1,1.8-0.3c0.4-0.1,1.7-0.4,1.9-0.9c0.1-0.2,0.3-0.2,0.4-0.1c0.2,0.1,0.2,0.4-0.2,0.5
	c-0.6,0.2-1.3,0.5-1.8,0.7c-0.6,0.2-0.7,0.3-1.2,0.4c-1.2,0.2-2-0.4-1.3,0.3c0.3,0.3,0.5,0.4,1.2,0.4c1.5-0.1,3.1-1.8,3.3-1
	c0,0.2-0.5,0.4-0.9,0.6c-1.4,0.7-2.4,2-3.2,1.6c-0.8-0.4-1.6-2.4-1.6-1.5c0,1.4-1.8,2.6-1,4.1c-0.5,0.1-1.8,2.7-2,4.1
	c-0.1,0.8,0.1,1.7-0.1,2.3c-0.3,0.8-1.5-0.7-1.1-2.6c0.1-0.3,0-0.4-0.1-0.2c-0.5,0.9-0.2,2.1,0.2,2.9c0.2,0.4,0.6,0.5,0.9,0.9
	c0.6,0.7,3.1,2.5,3.5,2.9c0.5,0.5,0.4,1.7-0.8,1.8c0.6,1.1,1.1,1.2,1.1,3c0.7-0.4,0.4-1.1,0.1-1.6c-0.2-0.3-0.4-0.5-0.4-0.6
	c0-0.1,0.4-0.4,0.6-0.1c0.6,0.7,1.7,0.8,2.9,0.6c1.2-0.2,2.5-0.6,3.1-1.5c0.3-0.5,0.5-0.6,0.6-0.5c0.1,0.1,0.2,0.4,0.2,0.9
	c0,0.6-0.3,1.2-0.4,1.6c-0.2,0.5-0.2,0.9,0.3,0.9c0.2-1,0.4-2,0.5-3C41.7,46.8,40.9,44.7,41.7,43.6z M34.3,27.6c0,0.2,0,0.4,0.1,0.4
	c0,0,0.1,0,0.1-0.1c0.1-0.4-0.2-0.8-0.2-0.8c-0.2-0.1-0.2,0.3-0.1,0.2C34.2,27.4,34.3,27.5,34.3,27.6z M38.3,27
	c-0.2,0-0.2,0.1,0,0.2c0.1,0,0.3,0.3,0.3,0.6c0,0,0.2,0,0.2-0.1C38.8,27.2,38.4,27,38.3,27z"/>
</svg>
