<?xml version="1.0" encoding="utf-8"?>
<!-- Generator: Adobe Illustrator 21.0.0, SVG Export Plug-In . SVG Version: 6.00 Build 0)  -->
<svg version="1.1" id="Layer_1" xmlns="http://www.w3.org/2000/svg" xmlns:xlink="http://www.w3.org/1999/xlink" x="0px" y="0px"
	 viewBox="0 0 74 74" style="enable-background:new 0 0 74 74;" xml:space="preserve">
<style type="text/css">
	.st0{fill:none;stroke:#006FAF;stroke-width:2;stroke-miterlimit:10;}
	.st1{fill:#006FAF;}
</style>
<title>Azure_Site_Recovery</title>
<circle class="st0" cx="37" cy="37" r="36"/>
<path class="st1" d="M36.4,48c-2.2,0-4.4-0.3-6.3-1.5c-1.4-0.8-2.6-1.9-2.9-3.6c-0.2-1,0.2-1.8,1-2.3c0.8-0.5,1.9-0.4,2.6,0.3
	c0.4,0.4,0.8,0.9,1.1,1.4c1.6,2,4.2,2.7,6.6,1.8c0.4-0.1,0.7-0.4,1-0.6c0.8-0.6,1.2-1.4,1.1-2.4c-0.2-1-0.9-1.5-1.8-1.8
	c-1.8-0.5-3.5-0.9-5.3-1.4c-0.9-0.2-1.9-0.5-2.7-0.9c-2.1-1-3.3-2.6-3.4-4.9c-0.1-2.3,0.7-4.2,2.6-5.5c3.5-2.4,10.1-2,13.3,0.8
	c0.6,0.5,1.1,1.1,1.3,1.8c0.3,1,0.1,1.8-0.6,2.4c-0.8,0.6-2,0.6-2.7,0.1c-0.5-0.3-0.8-0.7-1.1-1.1c-1.7-1.8-3.8-2.1-6.1-1.5
	c-0.6,0.2-1.2,0.5-1.5,1.2c-0.7,1.2-0.3,2.3,1,2.9c1.2,0.6,2.5,0.7,3.7,1c1,0.2,2.1,0.4,3.1,0.7c3.4,0.9,5.3,3,5.3,6.1
	c0.1,3-1.9,5.6-5.1,6.6C39.2,47.9,37.8,48,36.4,48z"/>
<g>
	<path class="st1" d="M50.6,55.8c-0.2,0-0.5,0-0.7,0c0,0-0.1,0-0.1-0.1c-0.1-0.1-0.2-0.3-0.2-0.5c0-0.1,0-0.2,0-0.3
		c0-0.3,0-0.5,0-0.8c0-0.1,0-0.2,0-0.3c0-0.1,0-0.2,0-0.3c0-0.3,0-0.6,0.1-0.9c0.1-0.3,0.2-0.5,0.2-0.8c0-0.1,0.1-0.2,0-0.2
		c0.1-0.3,0-0.5,0-0.8c0-0.1,0.1-0.2,0-0.2c0.1-0.3,0-0.5,0-0.8c0-0.1,0-0.2,0-0.3c0-0.3,0-0.5,0-0.8c0-0.1,0-0.2,0-0.3
		c0-0.3,0-0.5,0-0.8c0-0.1,0-0.2,0-0.3c0-0.2,0-0.5,0-0.7c0-0.1,0-0.1-0.1-0.2c-0.1-0.2-0.1-0.4-0.2-0.5c0-0.1,0-0.2,0-0.3
		c0-0.3,0-0.5,0-0.8c0-0.1,0-0.2,0-0.3c0-0.3,0-0.5,0-0.8c0-0.1,0-0.2,0.1-0.3c0.1-0.1,0.1-0.1,0.2-0.2c0.1,0,0.2,0,0.3,0
		c0.3,0,0.5,0,0.8,0c0.1,0,0.2,0,0.3,0c0.3,0,0.5,0,0.8,0c0.1,0,0.2,0,0.3,0c0.2,0,0.4,0,0.6,0c0.1,0,0.2,0.1,0.2,0.2
		c0,0.2,0,0.4,0,0.5c0,0.1,0,0.2,0,0.3c0,0.2,0,0.5,0,0.7c0,0.1,0,0.2,0,0.3c0,0.3,0,0.6-0.1,0.8c-0.1,0.1-0.2,0.3-0.2,0.5
		c-0.1,0.2,0,0.5,0,0.8c0,0.1,0,0.2,0,0.3c0,0.3,0,0.5,0,0.8c0,0.1,0,0.2,0,0.3c0,0.3,0,0.5,0,0.8c0,0.1,0,0.2,0,0.3
		c0,0.3,0,0.5,0,0.8c0,0.1,0,0.2,0,0.3c0,0.2,0,0.5,0,0.7c0,0.1,0,0.2,0,0.3c0,0.2,0,0.4,0.1,0.6c0,0.1,0.1,0.1,0.1,0.2
		c0.1,0.2,0.1,0.4,0.1,0.7c0,0.1,0,0.2,0,0.3c0,0.2,0,0.5,0,0.7c0,0.1,0,0.2,0,0.3c0,0.3,0,0.5,0,0.8c0,0.1-0.2,0.2-0.3,0.3
		c-0.3,0-0.5,0-0.8,0c0,0-0.1,0-0.1,0c0,0-0.1,0-0.2,0c-0.3,0-0.5,0-0.8,0c0,0-0.1,0-0.1,0C50.7,55.8,50.6,55.8,50.6,55.8z"/>
	<path class="st1" d="M55,43.7c0.3,0,0.5,0,0.8,0c0.1,0,0.2,0,0.3,0c0.3,0,0.5,0,0.8,0c0.1,0,0.2,0,0.3,0c0.3,0,0.5,0,0.8,0
		c0.1,0,0.2,0,0.3,0c0.3,0,0.5,0,0.8,0c0.1,0,0.2,0,0.3,0c0.3,0,0.5,0,0.8,0c0.1,0,0.2,0,0.3,0c0.3,0,0.5,0,0.8,0
		c0.1,0,0.1,0,0.2,0.1c0.1,0.1,0.3,0.2,0.4,0.2c0,0,0.1,0.1,0.1,0.1c0.1,0.2,0.2,0.3,0.2,0.5c0,0.1,0,0.2,0,0.2c0,0.3,0,0.5,0,0.8
		c0,0.1,0,0.2,0,0.3c0,0.3,0,0.5,0,0.8c0,0.1,0,0.2,0,0.3c0,0.3,0,0.5,0,0.8c0,0.1,0,0.2,0,0.3c0,0.3,0,0.5,0,0.8c0,0.1,0,0.2,0,0.3
		c0,0.3,0,0.5,0,0.8c0,0.1,0,0.2,0,0.3c0,0.3,0,0.5,0,0.8c0,0.1,0,0.2,0,0.3c0,0.3,0,0.5,0,0.8c0,0.1,0,0.2,0,0.3c0,0.3,0,0.5,0,0.8
		c0,0.1,0,0.2,0,0.3c0,0.3,0,0.5,0,0.8c0,0.1,0,0.2,0,0.3c0,0.3,0,0.5,0,0.8c0,0.1-0.1,0.2-0.1,0.3c-0.1,0.2-0.3,0.4-0.5,0.5
		c-0.1,0-0.3,0.1-0.4,0.1c-0.3,0-0.5,0-0.8,0c-0.1,0-0.2,0-0.3,0c-0.3,0-0.5,0-0.8,0c-0.1,0-0.2,0-0.3,0c-0.3,0-0.5,0-0.8,0
		c-0.1,0-0.2,0-0.3,0c-0.3,0-0.5,0-0.8,0c-0.1,0-0.2,0-0.3,0c-0.3,0-0.5,0-0.8,0c-0.1,0-0.2,0-0.3,0c-0.3,0-0.5,0-0.8,0
		c-0.1,0-0.2,0-0.3,0c-0.3,0-0.5,0-0.8,0c-0.1,0-0.2,0-0.3,0c-0.1,0-0.2,0-0.4,0c0-0.1,0.1-0.2,0.1-0.3c0.1-0.1,0.1-0.2,0-0.3
		c0-0.1,0.1-0.1,0.2-0.1c0.1,0,0.2,0,0.3,0c0.3,0,0.5,0,0.8,0c0.1,0,0.2,0,0.3,0c0.3,0,0.5,0,0.8,0c0.1,0,0.2,0,0.3,0
		c0.3,0,0.5,0,0.8,0c0.1,0,0.2,0,0.3,0c0.3,0,0.7,0,1,0c0.3,0,0.5,0,0.8,0c0.1,0,0.2,0,0.3,0c0.3,0,0.5,0,0.8,0c0.1,0,0.2,0,0.3,0
		c0.2,0,0.4,0,0.6,0c0.3,0,0.5-0.2,0.5-0.5c0-0.2,0-0.4,0-0.6c0-0.1,0-0.2,0-0.3c0-0.3,0-0.5,0-0.8c0-0.1,0-0.2,0-0.3
		c0-0.3,0-0.5,0-0.8c0-0.1,0-0.2,0-0.3c0-0.3,0-0.5,0-0.8c0-0.1,0-0.2,0-0.3c0-0.3,0-0.5,0-0.8c0-0.1,0-0.2,0-0.3c0-0.3,0-0.5,0-0.8
		c0-0.3,0-0.7,0-1c0-0.1,0-0.2,0-0.3c0-0.3,0-0.5,0-0.8c0-0.1,0-0.2,0-0.3c0-0.3,0-0.5,0-0.8c0-0.1,0-0.2,0-0.3
		c0-0.3,0.1-0.6-0.1-0.9c0-0.1-0.1-0.1-0.1-0.1c-0.2-0.2-0.5-0.1-0.7-0.1c0,0-0.1,0-0.1,0c-0.1,0-0.1,0-0.2,0c-0.3,0-0.5,0-0.8,0
		c0,0-0.1,0-0.1,0c-0.1,0-0.1,0-0.2,0c-0.3,0-0.5,0-0.8,0c-0.1,0-0.2,0-0.3,0c-0.3,0-0.5,0-0.8,0c0,0-0.1,0-0.1,0
		c-0.1,0-0.1,0-0.2,0c-0.3,0-0.5,0-0.8,0c0,0-0.1,0-0.1,0c-0.1,0-0.1,0-0.2,0c-0.2,0-0.5,0-0.7,0c-0.1,0-0.2,0-0.3,0
		c-0.3,0-0.5,0-0.8,0c-0.1,0-0.2,0-0.3,0c-0.1,0-0.2,0-0.3,0c-0.1,0-0.1-0.1-0.1-0.2c0-0.1,0-0.2,0-0.3c0-0.1-0.1-0.2-0.1-0.3
		c0.1,0,0.3,0,0.4,0c0.1,0,0.2,0,0.3,0c0.3,0,0.5,0,0.8,0C54.8,43.7,54.9,43.7,55,43.7z"/>
	<path class="st1" d="M47.4,52.1c0-0.3,0-0.5,0-0.8c0-0.1,0-0.2,0-0.3c0-0.3,0-0.5,0-0.8c0-0.1,0-0.2,0-0.3c0-0.3,0-0.5,0-0.8
		c0-0.1,0-0.2,0-0.3c0-0.3,0-0.5,0-0.8c0-0.1,0-0.2,0-0.3c0-0.3,0-0.5,0-0.8c0-0.1,0-0.2,0-0.3c0-0.3,0-0.5,0-0.8c0-0.1,0-0.2,0-0.3
		c0-0.3,0-0.5,0-0.8c0-0.1,0-0.2,0-0.3c0.1-0.8,0.5-1.2,1.3-1.3c0.1,0,0.2,0,0.3,0c0.1,0,0.1,0,0.2,0c0,0.2-0.1,0.3-0.1,0.5
		c0,0.1,0,0.2-0.2,0.2c-0.5,0-0.7,0.1-0.7,0.6c0,0.1,0,0.2,0,0.3c0,0.3,0,0.6,0,0.9c0,0,0,0,0,0c0,0,0,0,0,0c0,0,0,0.1,0,0.1
		c0,0.3,0,0.5,0,0.8c0,0.1,0,0.2,0,0.3c0,0.3,0,0.5,0,0.8c0,0.1,0,0.2,0,0.3c0,0.3,0,0.5,0,0.8c0,0.1,0,0.2,0,0.3c0,0.3,0,0.5,0,0.8
		c0,0.1,0,0.2,0,0.3c0,0.3,0,0.6,0,0.9c0,0.1,0,0.1,0,0.2c0,0.3,0,0.6,0,0.9c0,0.1,0,0.1,0,0.2c0,0.3,0,0.5,0,0.8c0,0.1,0,0.1,0,0.2
		c0,0,0,0,0,0c0,0,0,0,0,0c0,0.4,0,0.8,0,1.2c0,0.2,0.1,0.4,0.4,0.4c0.1,0,0.2,0,0.3,0c0.3,0,0.2,0.2,0.3,0.3c0,0.1,0,0.2,0.1,0.3
		c0,0.3-0.2,0.1-0.2,0.1c-0.1,0-0.2,0-0.3,0c-0.2,0-0.3-0.1-0.5-0.1c-0.1,0-0.2-0.1-0.2-0.1c-0.1-0.1-0.2-0.2-0.3-0.3
		c0-0.1-0.1-0.1-0.1-0.2c0-0.2,0-0.4-0.1-0.6c0-0.1,0-0.2,0-0.3c0-0.3,0-0.5,0-0.8c0-0.1,0-0.2,0-0.3c0-0.3,0-0.5,0-0.8
		C47.4,52.2,47.4,52.1,47.4,52.1z"/>
	<path class="st1" d="M59.4,45.1c0.1,0,0.1,0,0.2,0c0.2,0,0.3,0.1,0.4,0.2c0,0,0,0.1,0.1,0.1c0,0.3,0,0.5,0,0.8c0,0.1,0,0.2,0,0.3
		c0,0.1,0,0.3,0,0.4c0,0.3-0.2,0.5-0.5,0.5c-0.1,0-0.3,0-0.4,0c-0.1,0-0.2,0-0.3,0c-0.3,0-0.5,0-0.8,0c-0.1,0-0.2,0-0.3,0
		c-0.3,0-0.5,0-0.8,0c-0.1,0-0.2,0-0.3,0c-0.3,0-0.5,0-0.8,0c-0.1,0-0.2,0-0.3,0c-0.3,0-0.5,0-0.8,0c-0.1,0-0.2,0-0.3,0
		c-0.2,0-0.4,0-0.6-0.1c0,0-0.1-0.1-0.1-0.1c0-0.2,0-0.4,0-0.6c0-0.1,0-0.2,0-0.3c0-0.3,0-0.5,0-0.8c0-0.2,0.2-0.3,0.4-0.4
		c0.3,0,0.5,0,0.8,0c0.1,0,0.1,0,0.2,0c0.3,0,0.5,0,0.8,0c0.1,0,0.1,0,0.2,0c0.3,0,0.5,0,0.8,0c0.1,0,0.2,0,0.3,0c0.3,0,0.5,0,0.8,0
		c0.1,0,0.1,0,0.2,0C58.9,45.1,59.2,45.1,59.4,45.1z"/>
	<path class="st1" d="M54.2,48.6c0-0.1,0-0.2,0-0.3c0,0,0.1-0.1,0.1-0.1c0.1,0,0.2,0,0.2,0c0.3,0,0.5,0,0.8,0c0.1,0,0.2,0,0.3,0
		c0.2,0,0.2,0.2,0.3,0.4c0,0.2,0,0.4,0,0.6c0,0.2-0.1,0.3-0.3,0.3c-0.2,0-0.4,0-0.6,0c-0.2-0.1-0.4,0-0.6-0.1c0,0,0,0-0.1-0.1
		C54.2,49.1,54.2,48.8,54.2,48.6z"/>
	<path class="st1" d="M54.8,49.7c0.2,0,0.5,0,0.7,0c0.3,0,0.4,0.1,0.3,0.3c0,0.3,0,0.5,0,0.8c0,0,0,0,0,0.1c-0.1,0-0.2,0-0.3,0.1
		c-0.3,0-0.5,0-0.8,0c-0.1,0-0.2,0-0.3,0c-0.2-0.1-0.2-0.2-0.2-0.4c0-0.1,0-0.2,0-0.3C54.3,49.7,54.3,49.7,54.8,49.7z"/>
	<path class="st1" d="M55.6,54c-0.1,0-0.2,0-0.3,0c-0.3,0-0.5,0-0.8,0c-0.1,0-0.2,0-0.2,0c-0.2-0.1-0.2-0.2-0.2-0.4
		c0-0.1,0-0.2,0-0.3c0,0,0,0,0-0.1c0-0.4,0-0.5,0.5-0.5c0,0,0.1,0,0.1,0c0.2,0,0.5,0,0.7,0c0.3,0,0.3,0.1,0.4,0.3c0,0.2,0,0.5,0,0.7
		C55.8,53.9,55.7,54,55.6,54z"/>
	<path class="st1" d="M54.3,52.5c0,0-0.1-0.1-0.1-0.1c0-0.2,0-0.5,0-0.7c0-0.2,0.1-0.4,0.3-0.4c0.3,0,0.5,0,0.8,0c0.1,0,0.2,0,0.3,0
		c0.2,0,0.3,0.1,0.3,0.3c0,0.2,0,0.4,0,0.6c0,0.2-0.1,0.3-0.3,0.3c-0.2,0-0.4,0-0.7,0C54.7,52.5,54.5,52.5,54.3,52.5z"/>
	<path class="st1" d="M60.1,50.3c0,0.1,0,0.2,0,0.3c0,0.3-0.1,0.4-0.4,0.4c-0.1,0-0.2,0-0.3,0c-0.3,0-0.5,0-0.8,0c0,0-0.1,0-0.1-0.1
		c-0.1-0.2,0-0.4-0.1-0.5c0-0.6,0-0.6,0.7-0.6c0.3,0,0.6,0,0.8,0C60.2,49.9,60.1,50.1,60.1,50.3z"/>
	<path class="st1" d="M56.3,53.5c0-0.7-0.1-0.7,0.7-0.7c0.2,0,0.4,0,0.6,0c0.2,0,0.3,0.1,0.3,0.3c0,0.2,0,0.4,0,0.5
		c0,0.2-0.1,0.4-0.3,0.4c-0.1,0-0.2,0-0.3,0c-0.3,0-0.5,0-0.8,0c-0.1,0-0.1,0-0.2-0.1C56.3,53.8,56.4,53.6,56.3,53.5z"/>
	<path class="st1" d="M60.1,53.3c0,0.1,0,0.2,0,0.3c0,0.4-0.1,0.4-0.5,0.5c-0.1,0-0.2,0-0.3,0c-0.3,0-0.5,0-0.8,0
		c-0.1-0.1-0.2-0.2-0.2-0.3c0-0.2,0-0.4,0-0.5c0-0.2,0.1-0.4,0.3-0.4c0.1,0,0.2,0,0.3,0c0.3,0,0.5,0,0.8,0c0.1,0,0.1,0,0.2,0.1
		C60.2,53,60.1,53.2,60.1,53.3z"/>
	<path class="st1" d="M60.1,51.4c0,0.1,0,0.1,0.1,0.2c0,0.3,0,0.5,0,0.8c-0.1,0.1-0.1,0.1-0.2,0.2c-0.2,0-0.5,0-0.7,0
		c-0.1,0-0.2,0-0.3,0c-0.4,0-0.4-0.1-0.4-0.5c0-0.1,0-0.2,0-0.3c0-0.5,0-0.5,0.5-0.5c0.1,0,0.2,0,0.4,0c0.1,0,0.2,0,0.3,0
		C59.7,51.3,59.9,51.2,60.1,51.4z"/>
	<path class="st1" d="M57.2,52.5c-0.2,0-0.4,0-0.5,0c-0.2,0-0.3-0.1-0.3-0.3c0-0.2,0-0.4,0-0.6c0-0.2,0.1-0.3,0.2-0.3
		c0.2,0,0.5,0,0.7,0c0.1,0,0.2,0,0.3,0c0.2,0,0.3,0,0.4,0.2c0,0.1,0,0.2,0,0.3c0,0.2,0,0.3,0,0.5c0,0.2-0.1,0.3-0.3,0.3
		C57.5,52.5,57.4,52.5,57.2,52.5z"/>
	<path class="st1" d="M56.7,51c-0.1,0-0.1,0-0.2,0c-0.2-0.1-0.1-0.3-0.2-0.5c0-0.1,0-0.3,0-0.4c0-0.2,0.1-0.3,0.3-0.3
		c0.1,0,0.3,0,0.4,0c0.3,0,0.5,0,0.8,0c0.2,0.1,0.1,0.3,0.1,0.5c0,0.1,0,0.3,0,0.4c0,0.2-0.1,0.3-0.3,0.3c-0.1,0-0.2,0-0.3,0
		C57.2,51,57,51,56.7,51z"/>
	<path class="st1" d="M60.1,48.3c0,0.1,0,0.1,0,0.2c0,0.2,0,0.3,0,0.5c0,0.3-0.1,0.4-0.4,0.4c-0.3,0-0.6,0-0.9,0
		c-0.2,0-0.4-0.1-0.4-0.3c0-0.3,0-0.6,0.1-0.8l0,0c0.3-0.2,0.6,0,0.8-0.1c0.1,0,0.2,0,0.3,0C59.8,48.2,60,48.1,60.1,48.3z"/>
	<path class="st1" d="M57.4,48.2c0.1,0,0.2,0,0.3,0c0.1,0,0.3,0,0.4,0.2c0,0.1,0,0.2,0,0.4c0,0.1,0,0.3,0,0.4c0,0.2-0.1,0.3-0.3,0.3
		c-0.1,0-0.3,0-0.4,0c-0.2,0-0.4,0-0.6,0c-0.2,0-0.3-0.1-0.3-0.3c0-0.2,0-0.4,0-0.6c0-0.2,0.1-0.3,0.2-0.3
		C56.9,48.2,57.1,48.2,57.4,48.2z"/>
</g>
<path class="st1" d="M47.1,56v-2.7c-1.9,0.5-4,0.3-5.9-0.7c-0.7-0.4-1.4-0.6-2.2-0.4c-8.7,1.4-16.6-4.1-18.4-12.8
	c-0.2-1-0.3-2-0.3-3c-0.1-0.9,0-1.8,0.2-2.8c0.1-0.7,0.1-1.2-0.3-1.8c-1.6-2.8-1.6-5.7,0.1-8.5c1.7-2.8,4.3-4.1,7.5-4
	c1.4,0,2.7,0.5,3.9,1.2c0.4,0.3,0.9,0.3,1.4,0.2c10.4-1.9,19.7,6.3,18.9,16.9c-0.1,1.7,0,3.1,0.7,4.7c0.1,0.3,0.2,0.6,0.3,0.9h2.9
	c-0.1-0.3-0.1-0.6-0.2-0.9c-0.6-1.9-1.2-3.8-0.7-5.8c0-1-0.1-1.9-0.3-2.9c-0.1-0.9-0.3-1.7-0.6-2.6c-2.6-8.8-11.1-14.4-20.2-13.3
	c-0.7,0.1-1.3,0-1.9-0.3c-4.3-2-9.3-1.1-12.6,2.3c-3.3,3.4-4.2,8.5-2.1,12.7c0.2,0.5,0.3,0.9,0.2,1.4c-0.4,3.1-0.1,6.1,1,9.1
	c3,8.1,11.2,13.1,19.8,12.1c0.7-0.1,1.4,0,2.1,0.3c2.8,1.2,5.4,1.4,7.9,0.5H47.1z"/>
</svg>
