<?xml version="1.0" encoding="utf-8"?>
<!-- Generator: Adobe Illustrator 21.0.0, SVG Export Plug-In . SVG Version: 6.00 Build 0)  -->
<svg version="1.1" id="Layer_1" xmlns="http://www.w3.org/2000/svg" xmlns:xlink="http://www.w3.org/1999/xlink" x="0px" y="0px"
	 viewBox="0 0 74 74" style="enable-background:new 0 0 74 74;" xml:space="preserve">
<style type="text/css">
	.st0{fill:none;stroke:#006FAF;stroke-width:2;stroke-miterlimit:10;}
	.st1{fill:#006FAF;}
</style>
<title>Azure_Site_Recovery</title>
<circle class="st0" cx="37" cy="37" r="36"/>
<g>
	<path class="st1" d="M55.2,36.5c-0.5,2,0.1,3.9,0.7,5.8c1.3,4.4,0.1,8.4-3.4,11.4c-3.5,3-7.6,3.6-11.8,1.7
		c-0.7-0.3-1.4-0.4-2.1-0.3c-8.6,1-16.8-4-19.8-12.1c-1.1-2.9-1.4-6-1-9.1c0.1-0.5,0-0.9-0.2-1.4c-2.1-4.3-1.2-9.4,2.1-12.7
		c3.3-3.4,8.4-4.3,12.6-2.3c0.7,0.3,1.3,0.4,1.9,0.3c9.1-1.1,17.6,4.5,20.2,13.3c0.2,0.8,0.4,1.7,0.6,2.6
		C55.1,34.6,55.2,35.6,55.2,36.5z M20.4,36.4c0,1,0.1,2,0.3,3c1.7,8.6,9.7,14.2,18.4,12.8c0.9-0.1,1.5,0.1,2.2,0.4
		c3.1,1.6,6.8,1.2,9.4-1.1c2.6-2.3,3.6-6,2.2-9.2c-0.7-1.6-0.8-3-0.7-4.7c0.8-10.6-8.5-18.8-18.9-16.9c-0.5,0.1-0.9,0-1.4-0.2
		c-1.2-0.7-2.5-1.2-3.9-1.2c-3.3-0.1-5.8,1.2-7.5,4c-1.7,2.8-1.7,5.7-0.1,8.5c0.3,0.6,0.4,1.2,0.3,1.8
		C20.4,34.6,20.4,35.5,20.4,36.4z"/>
	<path class="st1" d="M36.4,48c-2.2,0-4.4-0.3-6.3-1.5c-1.4-0.8-2.6-1.9-2.9-3.6c-0.2-1,0.2-1.8,1-2.3c0.8-0.5,1.9-0.4,2.6,0.3
		c0.4,0.4,0.8,0.9,1.1,1.4c1.6,2,4.2,2.7,6.6,1.8c0.4-0.1,0.7-0.4,1-0.6c0.8-0.6,1.2-1.4,1.1-2.4c-0.2-1-0.9-1.5-1.8-1.8
		c-1.8-0.5-3.5-0.9-5.3-1.4c-0.9-0.2-1.9-0.5-2.7-0.9c-2.1-1-3.3-2.6-3.4-4.9c-0.1-2.3,0.7-4.2,2.6-5.5c3.5-2.4,10.1-2,13.3,0.8
		c0.6,0.5,1.1,1.1,1.3,1.8c0.3,1,0.1,1.8-0.6,2.4c-0.8,0.6-2,0.6-2.7,0.1c-0.5-0.3-0.8-0.7-1.1-1.1c-1.7-1.8-3.8-2.1-6.1-1.5
		c-0.6,0.2-1.2,0.5-1.5,1.2c-0.7,1.2-0.3,2.3,1,2.9c1.2,0.6,2.5,0.7,3.7,1c1,0.2,2.1,0.4,3.1,0.7c3.4,0.9,5.3,3,5.3,6.1
		c0.1,3-1.9,5.6-5.1,6.6C39.2,47.9,37.8,48,36.4,48z"/>
</g>
</svg>
