<?xml version="1.0" encoding="utf-8"?>
<!-- Generator: Adobe Illustrator 21.0.2, SVG Export Plug-In . SVG Version: 6.00 Build 0)  -->
<svg version="1.1" id="Layer_1" xmlns="http://www.w3.org/2000/svg" xmlns:xlink="http://www.w3.org/1999/xlink" x="0px" y="0px"
	 viewBox="0 0 74 74" style="enable-background:new 0 0 74 74;" xml:space="preserve">
<style type="text/css">
	.st0{fill:none;stroke:#006FAF;stroke-width:2;stroke-miterlimit:10;}
	.st1{fill:#006FAF;}
</style>
<title>os-patch-management</title>
<g id="text">
</g>
<circle class="st0" cx="37" cy="37" r="36"/>
<g>
	<path class="st1" d="M24.4,32.2c0-0.4-0.1-0.7-0.4-0.9s-0.8-0.5-1.5-0.7c-1-0.3-1.8-0.6-2.4-1.1c-0.6-0.4-0.8-1-0.8-1.8
		c0-0.7,0.3-1.4,0.9-1.8c0.6-0.5,1.4-0.7,2.4-0.7s1.8,0.3,2.4,0.8s0.9,1.2,0.9,2l0,0h-1.5c0-0.5-0.2-0.9-0.5-1.1
		c-0.3-0.3-0.8-0.4-1.4-0.4s-1,0.1-1.3,0.4c-0.3,0.2-0.5,0.6-0.5,0.9s0.2,0.6,0.5,0.9s0.9,0.5,1.6,0.7c1,0.3,1.7,0.6,2.3,1.1
		c0.5,0.5,0.8,1.1,0.8,1.8c0,0.8-0.3,1.4-0.9,1.8c-0.6,0.5-1.4,0.7-2.4,0.7s-1.8-0.3-2.5-0.8S19,32.8,19,31.9l0,0h1.5
		c0,0.6,0.2,1,0.6,1.3s0.9,0.4,1.5,0.4s1-0.1,1.3-0.3C24.2,32.9,24.4,32.6,24.4,32.2z"/>
	<path class="st1" d="M34.8,34.6h-1.5l-4.1-6.7l0,0v6.7h-1.5v-9.2h1.5l4.1,6.7l0,0v-6.7h1.5V34.6z"/>
	<path class="st1" d="M38.8,25.4l2.7,7.1l0,0l2.7-7.1h2v9.2h-1.5v-3.1l0.2-4l0,0L42,34.6h-1l-2.7-7.1l0,0l0.2,4v3.1H37v-9.2
		C37,25.4,38.8,25.4,38.8,25.4z"/>
	<path class="st1" d="M49.7,31.1v3.5h-1.5v-9.2h3.6c1,0,1.8,0.3,2.4,0.8s0.9,1.2,0.9,2.1s-0.3,1.6-0.9,2.1c-0.6,0.5-1.4,0.8-2.4,0.8
		L49.7,31.1L49.7,31.1z M49.7,29.9h2.1c0.6,0,1-0.2,1.3-0.5s0.4-0.7,0.4-1.2s-0.1-0.9-0.4-1.2c-0.3-0.3-0.7-0.5-1.3-0.5h-2.1V29.9z"
		/>
	<path class="st1" d="M26.8,46.6l0.1,0.6l0,0l0.1-0.6l1.4-4.5H30L27.6,49h-1.3l-2.4-6.9h1.6L26.8,46.6z"/>
	<path class="st1" d="M37,49h-6.1v-1.1l3-3.3c0.5-0.5,0.8-1,1-1.3s0.3-0.7,0.3-1c0-0.4-0.1-0.8-0.4-1c-0.2-0.3-0.6-0.4-1-0.4
		c-0.5,0-0.9,0.2-1.2,0.5s-0.4,0.7-0.4,1.3h-1.5l0,0c0-0.8,0.2-1.5,0.8-2.1s1.3-0.8,2.3-0.8c0.9,0,1.6,0.2,2.1,0.7s0.8,1.1,0.8,1.9
		c0,0.5-0.1,1-0.4,1.5c-0.3,0.5-0.8,1.1-1.4,1.8l-2.1,2.2l0,0H37V49z"/>
	<path class="st1" d="M39,49.7h-1.4l3.6-10h1.4L39,49.7z"/>
	<path class="st1" d="M45.4,43.6h1.1c0.5,0,0.9-0.1,1.1-0.4c0.2-0.2,0.3-0.6,0.3-1s-0.1-0.8-0.4-1c-0.2-0.2-0.6-0.4-1-0.4
		s-0.8,0.1-1,0.4c-0.3,0.2-0.4,0.6-0.4,0.9h-1.5l0,0c0-0.7,0.2-1.3,0.8-1.8s1.3-0.7,2.1-0.7c0.9,0,1.6,0.2,2.2,0.7s0.8,1.1,0.8,1.9
		c0,0.4-0.1,0.8-0.4,1.1c-0.2,0.4-0.6,0.7-1,0.9c0.5,0.2,0.9,0.5,1.2,0.8c0.2,0.4,0.4,0.8,0.4,1.3c0,0.8-0.3,1.5-0.9,2
		S47.5,49,46.6,49s-1.6-0.2-2.2-0.7s-0.9-1.1-0.8-1.9l0,0h1.5c0,0.4,0.1,0.7,0.4,1s0.6,0.4,1.1,0.4s0.9-0.1,1.1-0.4
		c0.3-0.3,0.4-0.6,0.4-1.1s-0.1-0.9-0.4-1.1c-0.3-0.2-0.6-0.4-1.2-0.4h-1.1L45.4,43.6L45.4,43.6z"/>
</g>
</svg>
