<?xml version="1.0" encoding="utf-8"?>
<!-- Generator: Adobe Illustrator 21.0.2, SVG Export Plug-In . SVG Version: 6.00 Build 0)  -->
<svg version="1.1" id="Layer_1" xmlns="http://www.w3.org/2000/svg" xmlns:xlink="http://www.w3.org/1999/xlink" x="0px" y="0px"
	 viewBox="0 0 74 74" style="enable-background:new 0 0 74 74;" xml:space="preserve">
<style type="text/css">
	.st0{fill:none;stroke:#006FAF;stroke-width:2;stroke-miterlimit:10;}
	.st1{fill:none;stroke:#006FAF;stroke-width:2;stroke-linecap:round;stroke-linejoin:round;}
	.st2{fill:#006FAF;}
</style>
<circle class="st0" cx="37" cy="37" r="36"/>
<g>
	<g id="Page-1">
		<g id="g209">
			<path id="Stroke-248" class="st1" d="M49.1,35.2c-0.1-5.3-4.3-9.7-9.6-9.7c-3.3,0-6.4,1.7-8.3,4.4C29,28.4,26,29,24.5,31.3
				C24,32.1,23.7,33,23.7,34c0,0.1,0,0.2,0,0.3s0,0.2,0,0.3c-2.5,1.3-4.2,3.9-4.2,6.7c0,3.9,3.2,7.1,7.1,7.1h14.8c0.1,0,0.2,0,0.2,0
				c0.1,0,0.2,0,0.2,0h5.9c3.7,0,6.6-3,6.7-6.7C54.5,38.6,52.2,35.8,49.1,35.2L49.1,35.2z"/>
			<path id="Stroke-618" class="st1" d="M49.1,35.2c-1-0.1-2-0.1-3,0 M23.7,34c0-2.7,2.2-4.8,4.8-4.8s4.8,2.2,4.8,4.8"/>
		</g>
	</g>
	<path id="Stroke-274" class="st1" d="M42,40.6l-0.6-0.1c-0.7-0.1-1.1-0.8-1-1.4c0-0.2,0.1-0.4,0.2-0.5L41,38l-0.8-0.8l-0.5,0.3
		c-0.6,0.4-1.3,0.2-1.7-0.3c-0.1-0.2-0.2-0.3-0.2-0.5l-0.1-0.6h-1.1l-0.1,0.8c-0.1,0.7-0.8,1.1-1.5,1c-0.2,0-0.3-0.1-0.4-0.2
		l-0.7-0.4L33,38l0.4,0.5c0.4,0.5,0.3,1.3-0.3,1.7c-0.1,0.1-0.3,0.2-0.5,0.2L32,40.6v1.1l0.6,0.1c0.7,0.1,1.1,0.7,1,1.4
		c0,0.2-0.1,0.4-0.2,0.5l-0.3,0.5l0.8,0.8l0.5-0.4c0.5-0.4,1.3-0.3,1.7,0.3c0.1,0.2,0.2,0.3,0.2,0.5l0.1,0.6h1.1l0.1-0.4
		c0.1-0.7,0.7-1.1,1.4-1c0.2,0,0.4,0.1,0.5,0.2l0.4,0.3l0.8-0.8l-0.3-0.5c-0.4-0.6-0.3-1.3,0.3-1.7c0.2-0.1,0.3-0.2,0.5-0.2l0.6-0.1
		v-1.2H42L42,40.6z"/>
	<path id="Stroke-1732" class="st2" d="M38.7,41.1c0,0.9-0.7,1.7-1.7,1.7s-1.7-0.7-1.7-1.7s0.7-1.7,1.7-1.7S38.7,40.2,38.7,41.1
		L38.7,41.1z"/>
</g>
</svg>
