<?xml version="1.0" encoding="utf-8"?>
<!-- Generator: Adobe Illustrator 21.0.2, SVG Export Plug-In . SVG Version: 6.00 Build 0)  -->
<svg version="1.1" id="Layer_1" xmlns="http://www.w3.org/2000/svg" xmlns:xlink="http://www.w3.org/1999/xlink" x="0px" y="0px"
	 viewBox="0 0 74 74" style="enable-background:new 0 0 74 74;" xml:space="preserve">
<style type="text/css">
	.st0{fill:#006FAF;}
</style>
<title>solr</title>
<path class="st0" d="M37,74C16.6,74,0,57.4,0,37S16.6,0,37,0s37,16.6,37,37S57.4,74,37,74z M37,2C17.7,2,2,17.7,2,37s15.7,35,35,35
	s35-15.7,35-35S56.3,2,37,2z"/>
<g>
	<path class="st0" d="M47.2,27.4L33.4,42.3l17.3-8C50.3,31.7,49,29.3,47.2,27.4z"/>
	<path class="st0" d="M37,23c-1.9,0-3.7,0.4-5.4,1.1l-1.9,15.6L39,23.2C38.3,23,37.7,23,37,23z"/>
	<path class="st0" d="M50.9,35.2l-16.4,9.2l15.4-1.8c0.7-1.8,1.1-3.6,1.1-5.6C51,36.4,51,35.8,50.9,35.2z"/>
	<path class="st0" d="M44.8,48.7c1.8-1.3,3.3-2.9,4.4-4.8l-14.4,2.8L44.8,48.7z"/>
	<path class="st0" d="M39.8,23.3l-8,17.4l14.9-13.8C44.8,25.1,42.4,23.8,39.8,23.3z"/>
	<path class="st0" d="M38.2,51c1.5-0.1,3-0.5,4.4-1.1l-8.1-1L38.2,51z"/>
	<path class="st0" d="M24.2,31.3c-0.6,1.4-1,3-1.2,4.5l2.2,3.9L24.2,31.3z"/>
	<path class="st0" d="M30.4,24.6c-2,1.1-3.7,2.6-4.9,4.4l2,10.2L30.4,24.6z"/>
</g>
</svg>
