<?xml version="1.0" encoding="utf-8"?>
<!-- Generator: Adobe Illustrator 21.0.2, SVG Export Plug-In . SVG Version: 6.00 Build 0)  -->
<svg version="1.1" id="Layer_1" xmlns="http://www.w3.org/2000/svg" xmlns:xlink="http://www.w3.org/1999/xlink" x="0px" y="0px"
	 viewBox="0 0 74 74" style="enable-background:new 0 0 74 74;" xml:space="preserve">
<style type="text/css">
	.st0{fill:none;stroke:#006FAF;stroke-width:2;stroke-miterlimit:10;}
	.st1{fill:#006FAF;}
	.st2{fill:none;}
	.st3{fill-rule:evenodd;clip-rule:evenodd;fill:none;stroke:#006FAF;stroke-width:2;stroke-miterlimit:10;}
	.st4{fill:#006FAF;stroke:#006FAF;stroke-miterlimit:10;}
	.st5{fill:#FFFFFF;}
</style>
<circle class="st3" cx="37" cy="37" r="36"/>
<g>
	<g>
		<path class="st1" d="M50,50.8c0.5,0.5,1,1.1,1.5,1.6c-0.6,0.1-1.1,0.2-1.5-0.4c0-0.1-0.1-0.1-0.2-0.2c-0.4-0.5-0.9-0.9-1.6-1
			c-1.2-0.2-1.9-1.1-2.2-2.3c-0.2-0.7-0.2-1.5,0-2.3c0.4-1.6,1.7-2.5,3.5-2.4c1.5,0.1,2.7,1.3,2.8,2.9c0,0.4,0,0.9,0,1.3
			C52.2,49.5,51.5,50.2,50,50.8z M51.6,47.3c-0.1-0.4-0.1-0.7-0.2-1.1c-0.3-1-1-1.7-1.9-1.7c-1.1-0.1-2,0.4-2.4,1.4
			c-0.4,0.9-0.4,1.8-0.1,2.7c0.4,1.1,1.2,1.6,2.3,1.5c1,0,1.8-0.7,2.1-1.7C51.5,48.1,51.6,47.7,51.6,47.3z"/>
		<path class="st1" d="M41.5,49.6c0.6,0.4,1.2,0.6,1.9,0.6c0.5,0,0.9-0.2,1-0.7c0.2-0.5,0-0.9-0.4-1.2c-0.3-0.2-0.7-0.4-1-0.7
			c-0.3-0.2-0.7-0.4-1-0.7c-0.8-0.8-0.7-2.1,0.3-2.7c0.8-0.5,1.6-0.4,2.5-0.2c0.1,0,0.2,0.1,0.2,0.2c0,0.2,0,0.4,0,0.6
			c-0.5-0.1-1-0.2-1.5-0.2c-0.5,0-1,0.3-1.1,0.7c-0.1,0.5,0,0.9,0.5,1.3c0.5,0.3,1,0.6,1.4,0.9c0.6,0.4,1,0.9,1,1.6
			c0,0.9-0.6,1.6-1.5,1.8c-0.6,0.1-1.3,0.1-1.9-0.1c-0.3-0.1-0.4-0.2-0.4-0.6C41.5,50,41.5,49.8,41.5,49.6z"/>
		<path class="st1" d="M53.5,43.9c0.2,0,0.5,0,0.8,0c0,2,0,4,0,6.1c0.9,0,1.8,0,2.7,0c0,0.3,0,0.5,0,0.7c-1.2,0-2.3,0-3.5,0
			C53.5,48.5,53.5,46.2,53.5,43.9z"/>
	</g>
	<g>
		<path class="st1" d="M51,31.3c0.9,0.2,1.7,0.5,2.7,0.7c-0.4-0.8-0.7-1.4-1-2c-0.6-1.2-0.6-1.2,0.2-2.2c0.5-0.6,1.1-1.3,1.7-2
			c-0.2,0-0.3,0-0.4,0c-1,0.2-1.9,0.5-2.9,0.8c-0.3,0.1-0.5,0-0.7-0.3c-0.4-0.7-0.8-1.4-1.2-2.1c-0.1-0.1-0.2-0.3-0.3-0.4
			c0,0-0.1,0-0.1,0c-0.2,0.9-0.4,1.7-0.5,2.6c-0.1,0.8-0.4,1.1-1.2,1.3c-0.9,0.2-1.7,0.5-2.6,0.8c0,0,0,0.1,0,0.1
			c0.8,0.3,1.7,0.7,2.7,1.1c-0.6,0.4-1.2,0.8-1.7,1.1c-0.1,0.1-0.3,0-0.4,0c-0.7-0.3-1.4-0.6-2.1-1c-0.1-0.1-0.3-0.2-0.4-0.2
			c-0.8-0.7-0.7-1.6,0.3-2c0.9-0.4,1.8-0.7,2.8-0.9c0.9-0.2,1.3-0.7,1.4-1.6c0-0.7,0.2-1.4,0.3-2c0-0.2,0.1-0.4,0.1-0.5
			c0.2-0.5,0.4-1,1.1-1.1c0.6-0.1,1,0.3,1.2,0.8c0.5,0.8,0.9,1.5,1.4,2.3c0.2,0.4,0.4,0.4,0.8,0.3c1-0.3,2-0.5,3-0.8
			c0.2,0,0.3-0.1,0.5-0.1c0.5-0.1,1-0.2,1.3,0.3c0.3,0.5,0,0.9-0.3,1.3c-0.8,1-1.6,2-2.5,2.9c-0.2,0.3-0.2,0.5-0.1,0.8
			c0.5,0.9,0.9,1.8,1.4,2.7c0.3,0.5,0.4,1,0,1.5c-0.4,0.5-0.9,0.5-1.5,0.4c-0.8-0.2-1.6-0.5-2.4-0.7c-0.1,0-0.3-0.2-0.3-0.3
			C51.1,32.3,51.1,31.9,51,31.3z"/>
		<path class="st1" d="M25.3,39.9c-0.1,0.9-0.3,1.8-0.4,2.7c-0.5,0-1.1,0-1.6,0c0.2-1.5,0.4-2.9,0.6-4.4c0.1-0.5,0.1-1,0.2-1.5
			c0.3-2.1,2.1-3.8,4.2-3.9c2.4-0.1,4,1.9,3.5,4.2C31.3,39.3,28.3,41.6,25.3,39.9z M27.6,38.8c1.3,0,2.5-1.2,2.5-2.5
			c0-1.1-0.8-1.9-1.9-1.9c-1.3,0-2.5,1.2-2.5,2.5C25.7,38,26.5,38.8,27.6,38.8z"/>
		<path class="st1" d="M24.4,31.7c-0.5,0.4-1,0.8-1.6,1.2c-0.2-0.2-0.3-0.4-0.5-0.6c-0.4-0.4-0.9-0.5-1.4-0.3
			c-0.5,0.3-0.7,0.7-0.3,1.2c0.5,0.6,1.1,1.2,1.7,1.8c1.2,1.3,1.3,2.8,0.3,4.1c-1,1.3-3.1,1.8-4.5,1.1c-0.2-0.1-0.4-0.3-0.6-0.5
			c-0.8-0.9-0.8-1.3,0.3-1.9c0.2-0.1,0.5-0.3,0.8-0.4c0.1,0.2,0.2,0.5,0.4,0.7c0.6,0.8,1.6,0.8,2.2,0c0.3-0.4,0.3-0.8,0-1.2
			c-0.3-0.4-0.6-0.7-0.9-1c-0.5-0.5-0.9-1-1.3-1.6c-0.5-0.6-0.6-1.4-0.4-2.1c0.4-1.2,1.6-2.1,2.9-2.2C22.8,30,23.7,30.5,24.4,31.7z"
			/>
		<path class="st1" d="M38.2,40.3c0.1-1.1,0.3-2,0.4-3c0-0.4,0.1-0.9,0-1.3c-0.2-1.1-1-1.7-2.1-1.6c-1.2,0.1-2.2,1.2-2.3,2.4
			c-0.1,1.4,1.2,2.3,2.6,1.9c0.4-0.1,0.8-0.4,1.2-0.6c-0.1,0.6-0.1,1.1-0.2,1.7c0,0.2-0.2,0.3-0.4,0.4c-1.3,0.5-2.6,0.4-3.7-0.5
			c-1.1-0.9-1.4-2.2-1-3.5c0.5-2,2.5-3.5,4.5-3.4c1.8,0.1,3.2,1.5,3.2,3.3c0,1.3-0.3,2.7-0.5,4c0,0.1-0.2,0.3-0.3,0.3
			C39.1,40.3,38.7,40.3,38.2,40.3z"/>
		<path class="st1" d="M52,40.3c-0.2,0-0.2,0-0.2,0c-1.4,0.3-2.4-0.2-3-1.5c-0.4-0.8-1-1.6-1.6-2.5c-0.1,0.5-0.1,0.9-0.2,1.2
			c-0.1,0.8-0.2,1.6-0.3,2.4c0,0.3-0.1,0.5-0.5,0.4c-0.4,0-0.9,0-1.4,0c0.1-0.9,0.2-1.7,0.3-2.6c0.2-1.9,0.5-3.8,0.8-5.7
			c0-0.2,0.2-0.5,0.4-0.6c0.5-0.4,1-0.7,1.6-1.1c-0.2,1.5-0.4,2.9-0.5,4.3c0,0,0.1,0,0.1,0.1c0.9-1,1.9-2.1,2.9-3.2
			c0.1,0.6,0.2,1.1,0.3,1.6c0,0.1-0.1,0.3-0.2,0.5c-0.6,0.6-1.2,1.3-1.8,1.9C49.7,37.1,50.8,38.6,52,40.3z"/>
		<path class="st1" d="M42.3,40.3c-0.6,0-1.1,0-1.7,0c0.2-1.3,0.3-2.5,0.5-3.8c0.1-0.5,0.1-1,0.2-1.4c0.2-1.3,1.1-2.1,2.4-2.2
			c0.4,0,0.7,0,1.2,0c-0.1,0.5-0.1,1-0.2,1.4c0,0.1-0.2,0.2-0.3,0.3c-0.2,0-0.4,0-0.6,0c-0.5,0-0.8,0.2-0.8,0.7
			c-0.2,1.4-0.4,2.8-0.5,4.2C42.4,39.8,42.3,40,42.3,40.3z"/>
	</g>
</g>
</svg>
