<?xml version="1.0" encoding="utf-8"?>
<!-- Generator: Adobe Illustrator 21.0.2, SVG Export Plug-In . SVG Version: 6.00 Build 0)  -->
<svg version="1.1" id="Layer_1" xmlns="http://www.w3.org/2000/svg" xmlns:xlink="http://www.w3.org/1999/xlink" x="0px" y="0px"
	 viewBox="0 0 74 74" style="enable-background:new 0 0 74 74;" xml:space="preserve">
<style type="text/css">
	.st0{fill:#006FAF;}
</style>
<title>health-checks</title>
<path class="st0" d="M37,74C16.6,74,0,57.4,0,37S16.6,0,37,0s37,16.6,37,37S57.4,74,37,74z M37,2C17.7,2,2,17.7,2,37s15.7,35,35,35
	s35-15.7,35-35S56.3,2,37,2z"/>
<g>
</g>
<g>
	<path class="st0" d="M52.2,39.8c-0.5,0.2-1,0.4-1.5,0.5c-0.1,0.1-0.2-0.1-0.2-0.1c-0.8-1.1-1.6-2.2-2.3-3.3c0-0.1-0.1-0.1-0.1-0.2
		C48,36.8,48,36.8,48,36.9c0,1.1,0,2.1,0,3.2c0,0.2,0,0.2-0.2,0.2c-0.5,0-0.9,0-1.4,0c-0.1,0-0.2,0-0.2-0.2c0-3.2,0-6.4,0-9.6
		c0-0.2,0.1-0.2,0.2-0.2c0.5,0,0.9,0,1.4,0c0.2,0,0.2,0,0.2,0.2c0,1.8,0,3.6,0,5.4c0,0.1-0.1,0.2,0.1,0.2c0.1,0,0.2-0.1,0.2-0.1
		c0.7-0.8,1.4-1.6,2.1-2.5c0.1-0.1,0.2-0.2,0.4-0.1c0.4,0.2,0.7,0.3,1.1,0.5c-0.7,0.8-1.4,1.5-2.1,2.2c-0.2,0.2-0.2,0.3,0,0.5
		C50.5,37.7,51.3,38.8,52.2,39.8z"/>
	<path class="st0" d="M35.6,39.4c-0.2,0.2-0.3,0.3-0.5,0.4c-0.9,0.7-1.9,0.8-3,0.3c-0.7-0.3-1-1-1.1-1.7c-0.1-1.6,0-3.2-0.1-4.8
		c0-0.1,0.1-0.1,0.2-0.1c0.5,0,0.9,0,1.4,0c0.2,0,0.2,0.1,0.2,0.2c0,1.2,0,2.4,0,3.6c0,0.3,0,0.6,0.1,0.9c0.2,0.8,0.7,1.1,1.4,1
		c0.9-0.1,1.3-0.7,1.3-1.7c0-1.3,0-2.5,0-3.8c0-0.2,0-0.3,0.3-0.3c0.4,0,0.9,0,1.3,0c0.1,0,0.2,0,0.2,0.2c0,2.2,0,4.3,0,6.5
		c0,0.1,0,0.2-0.2,0.2c-0.5,0-1,0-1.5,0c-0.1,0-0.1,0-0.1-0.1C35.6,39.9,35.6,39.7,35.6,39.4z"/>
	<path class="st0" d="M40.4,34.4c0.4-0.4,0.7-0.7,1.1-0.9c0.7-0.3,1.4-0.3,2.1-0.1c0.9,0.3,1.3,1,1.3,1.8c0.1,1.6,0,3.2,0.1,4.9
		c0,0.1,0,0.1-0.1,0.1c-0.5,0-1,0-1.5,0c-0.2,0-0.1-0.1-0.1-0.2c0-1.3,0-2.7,0-4c0-0.2,0-0.4-0.1-0.6c-0.2-0.8-0.8-1-1.6-0.9
		s-1.2,0.7-1.2,1.6c0,1.3,0,2.6,0,3.9c0,0.2,0,0.2-0.2,0.2c-0.5,0-0.9,0-1.4,0c-0.1,0-0.2,0-0.2-0.2c0-2.1,0-4.3,0-6.4
		c0-0.1,0-0.2,0.2-0.2c0.5,0,1,0,1.4,0c0.2,0,0.2,0.1,0.2,0.2C40.3,33.9,40.4,34.1,40.4,34.4z"/>
	<path class="st0" d="M28.2,35.3c0-1.6,0-3.2,0-4.8c0-0.2,0-0.2,0.2-0.2c0.5,0,0.9,0,1.4,0c0.1,0,0.2,0,0.2,0.2c0,3.2,0,6.4,0,9.6
		c0,0.2-0.1,0.2-0.2,0.2c-0.4,0-0.9,0-1.3,0c-0.2,0-0.2,0-0.2-0.2C28.2,38.5,28.2,36.9,28.2,35.3z"/>
	<path class="st0" d="M19,34.7c-0.4-0.3-0.8-0.4-1.3-0.4c-0.3,0-0.5,0.2-0.6,0.5s0,0.5,0.2,0.7c0.4,0.4,0.9,0.8,1.4,1.1
		c0.1,0.1,0.3,0.2,0.4,0.3c1,0.9,0.8,2.8-0.8,3.3c-1.1,0.3-2.2,0.2-3.1-0.5c-0.1-0.1-0.1-0.2-0.1-0.3c0.1-0.2,0.3-0.4,0.4-0.7
		c0.1-0.1,0.1-0.1,0.2,0c0.4,0.3,0.7,0.5,1.2,0.6s1-0.2,1-0.7c0.1-0.4-0.1-0.7-0.4-0.9c-0.3-0.3-0.7-0.5-1-0.8c-0.4-0.3-0.7-0.6-1-1
		c-0.5-0.9,0-2.1,1-2.5s1.9-0.2,2.8,0.3c0.1,0,0.1,0.1,0.1,0.2C19.3,34.2,19.1,34.5,19,34.7z"/>
	<path class="st0" d="M53.7,40.1c0-0.4,0-0.7,0-1c0-0.1,0.1-0.2,0.2-0.3c1.2-0.6,2.4-1.2,3.7-1.8c0.1,0,0.1-0.1,0.2-0.1
		c0.1-0.1,0.1-0.1,0-0.2c-0.1,0-0.1-0.1-0.2-0.1c-1.2-0.6-2.4-1.2-3.6-1.8c-0.1-0.1-0.2-0.1-0.2-0.3c0-0.3,0-0.6,0-0.9
		c0.2,0.1,0.5,0.2,0.7,0.3c1.1,0.6,2.2,1.1,3.2,1.7c0.4,0.2,0.8,0.4,1.2,0.6c0.1,0,0.1,0.1,0.1,0.2c0,0.3,0,0.5,0,0.8
		c0,0.1,0,0.2-0.2,0.3c-1.3,0.7-2.7,1.3-4,2C54.5,39.7,54.1,39.9,53.7,40.1z"/>
	<path class="st0" d="M27,34.9c-0.9-1.9-3.4-2-4.5-0.7c-0.1,0.1-0.2,0.2-0.3,0.3c0-0.3,0-0.5,0-0.8c0-0.1,0-0.2-0.2-0.2
		c-0.5,0-0.9,0-1.4,0c-0.1,0-0.2,0-0.2,0.2c0,3.3,0,6.6,0,9.8c0,0.2,0.1,0.2,0.2,0.2c0.4,0,0.9,0,1.3,0c0.2,0,0.2-0.1,0.2-0.2
		c0-1.3,0-2.5,0-3.8c0-0.1,0-0.2,0-0.3c0.1,0.1,0.1,0.1,0.2,0.2c0.3,0.3,0.6,0.6,1,0.7c1.1,0.4,2.5,0,3.2-0.9
		C27.6,38,27.7,36.4,27,34.9z M25.5,36.8c0,0.6-0.1,1.2-0.4,1.8c-0.6,1.2-2.1,1-2.6,0.1c-0.4-0.6-0.4-1.3-0.4-2c0-0.5,0.1-1,0.3-1.4
		c0.5-0.9,1.6-1.2,2.4-0.5c0.4,0.4,0.5,0.9,0.6,1.4C25.5,36.4,25.6,36.6,25.5,36.8z"/>
</g>
</svg>
