<?xml version="1.0" encoding="utf-8"?>
<!-- Generator: Adobe Illustrator 21.0.2, SVG Export Plug-In . SVG Version: 6.00 Build 0)  -->
<svg version="1.1" id="Layer_1" xmlns="http://www.w3.org/2000/svg" xmlns:xlink="http://www.w3.org/1999/xlink" x="0px" y="0px"
	 viewBox="0 0 74 74" style="enable-background:new 0 0 74 74;" xml:space="preserve">
<style type="text/css">
	.st0{fill:none;stroke:#006FAF;stroke-width:2;stroke-miterlimit:10;}
	.st1{fill:#006FAF;}
	.st2{fill:#387C2C;}
</style>
<circle class="st0" cx="37" cy="37" r="36"/>
<g>
	<path class="st1" d="M54.4,32.6c-0.1-1.2-0.2-2.4-0.4-3.6c-0.3-1.6-0.6-3.2-1-4.8c0-0.1-0.1-0.3-0.1-0.4s-0.1-0.3-0.1-0.4
		c-0.4,0.7-0.9,1.4-1.4,1.9c-1.7,1.8-3.7,3.1-5.9,4c-1.6,0.7-3.2,1.2-4.9,1.3c-1,0.1-2,0.1-3,0.1s-2-0.1-3-0.1c-1.5,0-3,0-4.4,0.3
		c-2,0.4-3.8,1.3-5.3,2.7c-1.7,1.6-2.7,3.6-2.9,6c-0.1,1.2,0,2.5,0.4,3.6s1,2,2,2.6c0.3-0.1,0.6-0.1,0.9-0.2
		c0.9-0.1,1.9-0.2,2.8-0.3c0.6-0.1,1.3-0.1,1.9-0.1c1.1-0.1,2.2-0.2,3.3-0.4c1.5-0.2,2.9-0.5,4.3-1c2.5-0.9,4.8-2.2,6.9-3.8
		c0.8-0.6,1.6-1.3,2.3-2c1.4-1.4,2.5-3,3.4-4.7c0,0,0-0.1,0.1-0.1l0,0l0,0l0,0l0,0c0,0.2-0.1,0.5-0.2,0.7V34c-0.7,2-1.8,3.8-3.1,5.5
		c-0.7,0.9-1.5,1.8-2.4,2.5c-1.6,1.5-3.4,2.8-5.4,3.8c-1.5,0.8-3.2,1.3-4.8,1.7c-1.4,0.3-2.8,0.6-4.2,0.9c-1,0.2-2.1,0.5-3.1,0.8H27
		h-0.1H27c0.9-0.2,1.8-0.3,2.7-0.3c1.7,0,3.4,0.1,5.1,0.3c1.3,0.1,2.5,0.2,3.8,0.3c1.4,0.1,2.7,0.1,4.1,0c1.1-0.1,2.2-0.2,3.3-0.5
		c1.9-0.5,3.5-1.4,4.8-2.8c1.2-1.2,2-2.7,2.6-4.3c0.7-2,1-4.1,1.1-6.3C54.5,34.7,54.5,33.7,54.4,32.6z M50.4,33.1L50.4,33.1
		L50.4,33.1L50.4,33.1L50.4,33.1z"/>
	<path class="st1" d="M23.9,48.5c0,1.2-1,2.2-2.2,2.2s-2.2-1-2.2-2.2s1-2.2,2.2-2.2S23.9,47.3,23.9,48.5z"/>
	<path class="st2" d="M25.1,50.2C25.1,50.2,25,50.2,25.1,50.2C25,50.3,25,50.2,25.1,50.2C25,50.2,25,50.2,25.1,50.2L25.1,50.2z"/>
	<path class="st2" d="M25,50.3L25,50.3L25,50.3L25,50.3C25,50.2,25,50.3,25,50.3z"/>
	<ellipse class="st2" cx="50.4" cy="33.1" rx="0" ry="0"/>
	<path class="st2" d="M50.3,33.2L50.3,33.2C50.3,33.1,50.3,33.1,50.3,33.2L50.3,33.2L50.3,33.2z"/>
</g>
</svg>
