<svg id="Layer_1" data-name="Layer 1" xmlns="http://www.w3.org/2000/svg" viewBox="0 0 74 74"><defs><style>.cls-1{fill:none;stroke:#006faf;stroke-miterlimit:10;stroke-width:2px;}.cls-2{fill:#006faf;fill-rule:evenodd;}</style></defs><title>SQL_data_warehousing</title><circle class="cls-1" cx="37" cy="37" r="36"/><path class="cls-2" d="M37.09,26.48c-4.15,0-7.69.94-7.69,2V43.22c0,1.1,3.54,2,7.69,2s7.69-.94,7.69-2V28.51c-.15-1.25-3.54-2-7.69-2Zm6.15,16.59a20.6,20.6,0,0,1-12.46,0V39.94a22.1,22.1,0,0,0,12.46,0v3.13Zm0-4.85a20.6,20.6,0,0,1-12.46,0v-3a23.86,23.86,0,0,0,12.46,0v3Zm0-4.69a20.6,20.6,0,0,1-12.46,0v-3a23.86,23.86,0,0,0,12.46,0v3Zm-6.31-3.6c-3.38,0-6.15-.63-6.15-1.25s2.77-1.1,6.15-1.1c3.54,0,6.31.47,6.31,1.1s-2.77,1.25-6.31,1.25Z"/><path class="cls-2" d="M59.41,32.45h-.15a.83.83,0,0,0-.76.79v2.69l-2.89-3.16a.71.71,0,0,0-1.06,0,1,1,0,0,0,0,1.26l1.82,1.9H47.25a.79.79,0,0,0,0,1.58h9.12l-1.82,1.9a1,1,0,0,0,0,1.26.71.71,0,0,0,1.06,0l2.89-3V40.2a.83.83,0,0,0,.76.79h.15a.83.83,0,0,0,.76-.79v-7a.83.83,0,0,0-.76-.79Z"/><path class="cls-2" d="M26.08,35.93H17L18.79,34a1,1,0,0,0,0-1.26.71.71,0,0,0-1.06,0l-2.89,3.16V33.24a.83.83,0,0,0-.76-.79h-.15a.83.83,0,0,0-.76.79v7a.83.83,0,0,0,.76.79h.15a.83.83,0,0,0,.76-.79V37.67l2.89,3a.71.71,0,0,0,1.06,0,1,1,0,0,0,0-1.26L17,37.51h9.12a.79.79,0,0,0,0-1.58Z"/></svg>