<svg id="Layer_1" data-name="Layer 1" xmlns="http://www.w3.org/2000/svg" viewBox="0 0 74 74"><defs><style>.cls-1,.cls-3{fill:none;stroke:#006faf;stroke-miterlimit:10;}.cls-1{stroke-width:2px;}.cls-2{fill:#006faf;fill-rule:evenodd;}.cls-3{font-size:12px;font-family:MyriadPro-Regular, Myriad Pro;}</style></defs><title>SQL_server_Instance_failover_clustering</title><circle class="cls-1" cx="37" cy="37" r="36"/><path class="cls-2" d="M47.9,28.76v-.82a4.85,4.85,0,0,0-3.43-4.72A7.77,7.77,0,0,0,37,17.48,8.08,8.08,0,0,0,29.32,23a7.45,7.45,0,0,0-6.26,7.39,7.32,7.32,0,0,0,6.87,7.18h.2v2.26a2.26,2.26,0,0,0,2.22,2.26h8.89a2.44,2.44,0,0,0,2.42-2.26V37.58h2.42a4.44,4.44,0,0,0,4.44-4.72,4.28,4.28,0,0,0-2.63-4.1ZM42.45,39.84a1.31,1.31,0,0,1-1.21,1.23H32.35a1.31,1.31,0,0,1-1.21-1.23V37.58H42.45v2.26Zm0-7.8H31.14V29.58a1.14,1.14,0,0,1,1.21-1h8.89c.81,0,1.21.41,1.21,1V32Zm0,1v3.28H31.14V33.07Zm3.64,3.28H43.66V29.58a2.44,2.44,0,0,0-2.42-2.26H32.35a2.26,2.26,0,0,0-2.22,2.26v6.77h-.2a6.08,6.08,0,0,1-.2-12.1.44.44,0,0,0,.4-.41,6.92,6.92,0,0,1,6.66-5.13A6.36,6.36,0,0,1,43.25,24s.2.41.4.41a3.58,3.58,0,0,1,2.83,3.69v1c-.2.21,0,.41.4.62a3.32,3.32,0,0,1,2.42,3.28,3.22,3.22,0,0,1-3.23,3.28Z"/><path class="cls-2" d="M40.76,29.43a.74.74,0,0,0-.8.8.9.9,0,0,0,.8.6.64.64,0,0,0,.6-.6c0-.4-.2-.8-.6-.8Z"/><path class="cls-2" d="M40.76,35.76a.64.64,0,0,0,.6-.6c0-.6-.2-.8-.6-.8a.87.87,0,0,0-.8.8.9.9,0,0,0,.8.6Z"/><path class="cls-2" d="M40,39.28a.7.7,0,1,1,.7.7.7.7,0,0,1-.7-.7Z"/><text class="cls-3" transform="translate(27.44 53.52)">SQL</text></svg>