<svg id="Layer_1" data-name="Layer 1" xmlns="http://www.w3.org/2000/svg" viewBox="0 0 74 74"><defs><style>.cls-1{fill:none;stroke:#006faf;stroke-miterlimit:10;stroke-width:2px;}.cls-2{fill:#006faf;fill-rule:evenodd;}</style></defs><title>SQL_server_Integration_services</title><circle class="cls-1" cx="37" cy="37" r="36"/><path class="cls-2" d="M43.71,21.85a6.78,6.78,0,0,1-1.56-.93c.52-.4,1.56-.53,1.17-1.46s-1.3-.27-1.82,0c-3.52,1.46-2.86.93-1.3,4.11.39.8.65,2,1.69,1.46s0-1.59-.26-2.39c.26.13.65.27.91.4A14.82,14.82,0,0,1,51,39.5,14.61,14.61,0,0,1,36.55,51.58c-7,0-12.89-5-14.32-12.21a15.23,15.23,0,0,1,8.72-16.46c.39-.13.78-.27,1.3-.4s.78-.53.52-1.06-.65-.66-1.17-.4a8.87,8.87,0,0,0-1,.4,16.38,16.38,0,0,0-9.9,17.39c.91,7.56,7.16,13.8,14.45,14.2A16.05,16.05,0,0,0,52.3,41a16.68,16.68,0,0,0-8.59-19.11Z"/><path class="cls-2" d="M45.26,30l-2.61-2.49c-4,2.49-4.3-2-4.3-2H34.69c-.52,5-4.17,1.83-4.17,1.83L28,30c2.35,4.06-2,4.46-2,4.46V38c5.09.66,1.83,4.46,1.83,4.46L30.52,45c4-2.88,4.17,1.7,4.17,1.7h3.65c1-4.72,4.3-1.7,4.3-1.7l2.48-2.62c-2.09-3.93,2.09-4.46,2.09-4.46V34.48c-4.56-1.18-2-4.46-2-4.46Zm.52,7.21s-4.17.26-2.09,4.72l-1.17,1.44s-3.78-2.49-5,2H35.74s-.78-4.19-5-2l-1.3-1.18s2.74-3.93-2.09-5.11v-1.7s4.43-.92,2.22-5.11l1.17-1.18s3.65,2.49,5.09-2.1h1.7s.78,4.33,5.09,2.1l1.17,1.18s-2.61,4.06,2,5v2Z"/><path class="cls-2" d="M37.07,31.9a4.53,4.53,0,0,0-4.64,4.28,4.43,4.43,0,0,0,4.64,4.16,4.31,4.31,0,0,0,4.51-4.16,4.41,4.41,0,0,0-4.51-4.28Zm-.13,7a2.76,2.76,0,1,1,0-5.5,2.77,2.77,0,1,1,0,5.5Z"/></svg>