<svg id="Layer_1" data-name="Layer 1" xmlns="http://www.w3.org/2000/svg" viewBox="0 0 74 74"><defs><style>.cls-1{fill:none;stroke:#006faf;stroke-miterlimit:10;stroke-width:2px;}.cls-2{fill:#006faf;fill-rule:evenodd;}</style></defs><title>data_quality_services</title><circle class="cls-1" cx="37" cy="37" r="36"/><path class="cls-2" d="M48.4,32.08c-1.53-.31-2-1.23-1.07-2.45A1.91,1.91,0,0,0,47.18,27L45.5,25.33a1.85,1.85,0,0,0-2.44-.15c-1.37.92-2.29.61-2.59-.92-.15-1.07-.76-1.69-1.68-1.69a7.37,7.37,0,0,0-2.59,0,1.8,1.8,0,0,0-1.68,1.53c-.31,1.69-1.07,2-2.75,1.07a1.62,1.62,0,0,0-2.14.15,4.34,4.34,0,0,0-1.53,1.38c-1.07,1.07-1.22,1.53-.31,3.07a1.46,1.46,0,0,1-.61,2.3c-2.29.77-2.44.92-2.29,3.22.15,1.07-.31,2.45,1.37,2.91a2.33,2.33,0,0,1,1.83,1.07.82.82,0,0,0,1.22.31,1,1,0,0,0,.31-1.23,3.23,3.23,0,0,0-2.14-1.84c-.92-.15-.92-.77-.92-1.38s.15-1.23.92-1.38a3.08,3.08,0,0,0,2-4.6,1.17,1.17,0,0,1,.31-1.69c.61-.46.92-.92,1.68-.31A3.22,3.22,0,0,0,36,25.33c.31-.92.61-1.07,1.37-1.07a1.35,1.35,0,0,1,1.53.92A2.94,2.94,0,0,0,43.52,27c.76-.46,1.07,0,1.53.46s.92.77.46,1.69a3.05,3.05,0,0,0,2,4.6c.92.15.92.61.76,1.23,0,.61.31,1.23-.76,1.53a3.25,3.25,0,0,0-2,4.91c.61.92-.15,1.07-.46,1.53-.46.61-.76.77-1.53.31A3.11,3.11,0,0,0,38.94,45a1.65,1.65,0,0,1-2.75.77c-.46-.46-.76-.61-1.22-.31-.61.31-.46.77-.31,1.23A1.62,1.62,0,0,0,36,47.88h2.9a1.78,1.78,0,0,0,1.53-1.53c.31-1.69,1.22-2.15,2.59-1.23a1.85,1.85,0,0,0,2.44,0,17.45,17.45,0,0,1,1.68-1.69,2.1,2.1,0,0,0,.15-2.76c-.92-1.07-.46-2.15.92-2.45a1.8,1.8,0,0,0,1.83-2V34.07a2,2,0,0,0-1.68-2Z"/><path class="cls-2" d="M38.56,36c.44-.45.59-.9.15-1.35s-.89-.3-1.33.15l-.59.6c-3.11,3.15-6.22,6.15-9.18,9.29-.59.6-.89.75-1.48,0L23,41.58c-.44-.45-1-.9-1.63-.3s-.15,1,.3,1.5l4.59,4.65c.15.15.44.3.59.45.3-.15.44-.45.74-.6,2.66-2.7,5.18-5.4,7.85-7.94,1-1,2.07-2.25,3.11-3.3Z"/></svg>