<?xml version="1.0" encoding="utf-8"?>
<!-- Generator: Adobe Illustrator 21.0.2, SVG Export Plug-In . SVG Version: 6.00 Build 0)  -->
<svg version="1.1" id="Layer_1" xmlns="http://www.w3.org/2000/svg" xmlns:xlink="http://www.w3.org/1999/xlink" x="0px" y="0px"
	 viewBox="0 0 74 74" style="enable-background:new 0 0 74 74;" xml:space="preserve">
<style type="text/css">
	.st0{fill:none;stroke:#006FAF;stroke-width:2;stroke-miterlimit:10;}
	.st1{fill:#006FAF;}
</style>
<title>Cloud &amp;amp; Infrastructure Services</title>
<circle class="st0" cx="37" cy="37" r="36"/>
<g>
	<path class="st1" d="M39.4,24.9c-1.6-0.2-3.3-6.4-3.3-6.4c-1.2,0.3-10.7,3.2-7,5.6c6.2,4.1,5.9,12.4-3.3,19.4
		C13,53.2,38.6,56.1,38.9,55.4c6.3-10.7,3.4-18.5,3.4-18.5s7.4-2.4,13.9-3.4C57,33.4,52.5,26.7,39.4,24.9L39.4,24.9L39.4,24.9z
		 M49.5,28.7c0,0-4.6,1.3-6.7,2.4c0,0,1.2-3.7,1.1-4.3C44,26.7,48.5,28,49.5,28.7L49.5,28.7L49.5,28.7z M41.8,31.1
		c0,0-2.1-1.2-2.9-1.4l4.5-2.9C43.4,26.7,43.4,28.3,41.8,31.1L41.8,31.1L41.8,31.1z M38,38.2l3.8,2.2c-0.6,0.6-4.2,2.2-4.2,2.2
		C38.2,41.5,38,38.2,38,38.2L38,38.2L38,38.2z M38.6,38.1l3.3-1.1c0.3,1.1,0.2,3,0.2,3C41.2,39.6,38.6,38.1,38.6,38.1L38.6,38.1
		L38.6,38.1z M30.8,45.5c0,0,2.9-5,2.8-5.5c0,0,0.3,1.4,2.5,3.3C36.1,43.3,34.5,44.4,30.8,45.5L30.8,45.5L30.8,45.5z M35.9,44.3
		c0,0-0.6,2.7-2,4.8c0,0-2.1-0.8-3.5-2.8C30.4,46.3,35.4,44.7,35.9,44.3L35.9,44.3L35.9,44.3z M36.9,30.1c0,0-1.7,1.6-2.7,2.5
		c0,0,0-3.5-0.3-3.6C33.9,29,36,29.5,36.9,30.1L36.9,30.1z M34.2,28l2.9-2.5c0,0,0.7,0.8,0.6,3.6C37.6,29.2,35,28.2,34.2,28L34.2,28
		L34.2,28z M37.3,30.9c0,0-0.5,2.3-1.6,3.7c0,0-1-0.9-1.5-1.2C34.2,33.4,37,31.1,37.3,30.9L37.3,30.9L37.3,30.9z M35.4,36.2
		c0,0,0.8,0.5,0.7,1.8c0,0-5.4,2.4-6.2,3C29.9,40.9,35.1,36.7,35.4,36.2L35.4,36.2L35.4,36.2z M34.2,39.7l2.9-1.2c0,0,0.4,2-0.5,4.2
		C36.6,42.7,35.1,41.9,34.2,39.7L34.2,39.7L34.2,39.7z M36.9,37.7c0,0-0.3-2.2-0.8-2.5c0,0,1.9-0.9,4.6-2.5
		C40.7,32.7,37.2,37.2,36.9,37.7L36.9,37.7z M37.1,33.9c0,0,1-2.8,1-3.4l2.7,1.4L37.1,33.9z M42.5,26.6c-0.3,0.1-4.5,2.5-4.5,2.5
		c0.6-2-0.4-3.5-0.4-3.5L42.5,26.6L42.5,26.6z M38.1,24.7l-3-0.5l2.2-1.4L38.1,24.7z M31.5,21c0.3-0.2,4.5-2.1,4.5-2.1s1.2,3,0.8,3
		S31.3,21.2,31.5,21L31.5,21L31.5,21z M36.9,22.5l-2.7,1.7h-0.7c0,0-2.5-2.5-2.5-2.8C31,21.3,36.2,22.5,36.9,22.5L36.9,22.5
		L36.9,22.5z M30.5,21.6l1.9,2.2c0,0-2.9-0.7-3.1-0.9S30.5,21.6,30.5,21.6L30.5,21.6z M30.2,24.1l1.9,0.6l0.7,2.2
		C32.7,27,30.9,24.7,30.2,24.1L30.2,24.1L30.2,24.1z M32.5,24.7l4.1,0.6l-3.1,2.3C33.5,27.1,32.5,24.7,32.5,24.7L32.5,24.7
		L32.5,24.7z M33.7,34.6c0,0,0.7,0.2,1.1,0.6c0,0-1.2,1.1-2.2,1.7C32.5,37,33.6,35,33.7,34.6L33.7,34.6L33.7,34.6z M31.1,38.7
		c0,0,1.6-1.4,3.4-2.2L29.4,41L31.1,38.7L31.1,38.7z M32.2,40.5c0,0-1.2,3.5-2.5,4.7c0,0-0.6-0.7-0.6-3.2
		C29.1,42,31.7,40.7,32.2,40.5L32.2,40.5L32.2,40.5z M28.1,42.5c0,0-0.1,1.4,0.9,3.5c0,0-4.8,1.5-5.5,1.5
		C23.4,47.5,23.9,44.5,28.1,42.5L28.1,42.5z M23.4,47.9c1.4,0,5.3-1.1,5.3-1.1c-0.2,0.8-3.2,4.6-3.2,4.6
		C23.2,49.8,23.4,47.9,23.4,47.9L23.4,47.9L23.4,47.9z M25.9,51.6l3.6-4.6c0,0,1.6,1.5,3.3,2.4l-6.6,2.4L25.9,51.6L25.9,51.6z
		 M26.5,52l6.7-1.8l-2.4,3.6C30.8,53.8,28,53.4,26.5,52L26.5,52L26.5,52z M34.2,50.1c0,0,2.8,1.2,5.7,1.3c0,0-6.8,2.6-8.7,2.7
		C31.1,54.1,34.2,50.4,34.2,50.1L34.2,50.1L34.2,50.1z M38.6,55.3c0,0-4.7-0.4-6.1-1.2c0,0,4.1-0.8,7.6-2.2
		C40.1,51.9,39,54.8,38.6,55.3L38.6,55.3L38.6,55.3z M40.1,51.2c0,0-4.8-0.9-5.5-1.7c0,0,6.6-2.7,6.9-3.1
		C41.4,46.3,40.9,50.2,40.1,51.2L40.1,51.2L40.1,51.2z M35,48.6l2.1-4.5c0,0,3.1,1.7,4.3,1.9C41.4,46,36,48.6,35,48.6L35,48.6
		L35,48.6z M41.6,45.5c-1.9-0.5-4-2-4-2c0.9-0.3,4.5-2.4,4.5-2.4C42.4,43.4,41.6,45.5,41.6,45.5L41.6,45.5z M37.8,37.3
		c0,0,3.7-4.2,3.9-4.7c0,0,2.3,1.1,3.1,2.4C44.9,35.1,38.8,37,37.8,37.3L37.8,37.3z M42.8,31.7c0,0,6.5-2.5,7.1-2.5
		c0,0-1.6,3-4.3,5.6C45.7,34.8,44.2,32.5,42.8,31.7L42.8,31.7L42.8,31.7z M46.8,34.6c0,0,3.2-3.7,3.9-5.4c0,0,4.3,2.8,4.9,4.2
		C55.6,33.3,48.5,33.9,46.8,34.6L46.8,34.6L46.8,34.6z"/>
</g>
</svg>
