<?xml version="1.0" encoding="utf-8"?>
<!-- Generator: Adobe Illustrator 21.0.2, SVG Export Plug-In . SVG Version: 6.00 Build 0)  -->
<svg version="1.1" id="Layer_1" xmlns="http://www.w3.org/2000/svg" xmlns:xlink="http://www.w3.org/1999/xlink" x="0px" y="0px"
	 viewBox="0 0 74 74" style="enable-background:new 0 0 74 74;" xml:space="preserve">
<style type="text/css">
	.st0{fill:#006FAF;}
</style>
<title>health-checks</title>
<path class="st0" d="M37,74C16.6,74,0,57.4,0,37S16.6,0,37,0s37,16.6,37,37S57.4,74,37,74z M37,2C17.7,2,2,17.7,2,37s15.7,35,35,35
	s35-15.7,35-35S56.3,2,37,2z"/>
<g>
</g>
<g>
	<path class="st0" d="M43.9,33.6c0-1.4-0.8-1.7-1.9-1.5c-1.5,0.2-2.8,0.7-4,1.8c-1-1.8-2.9-1.9-5.2-0.1c-0.1-0.4,0-0.7-0.1-1
		s0.1-0.8-0.5-0.8c-0.6,0-0.5,0.5-0.5,0.9c0,1.9,0,3.8-0.1,5.7c0,0.4-0.2,0.9,0.5,0.9c0.6,0,0.9-0.3,0.8-1c-0.1-0.5,0-1.1,0-1.7
		c0.2-1.9,1.3-3.3,2.9-3.4c0.5,0,0.7,0,0.9,0.6c0.4,1.5,0.4,3.1,0.1,4.6c-0.1,0.5-0.1,0.8,0.5,0.9c0.5,0,0.8-0.1,0.8-0.7
		c0-0.5,0.1-1,0.1-1.6c0.3-1.8,1-3.4,3-4c1.2-0.3,1.3-0.2,1.4,1c0.2,1.5,0,2.9,0,4.4c0,0.5-0.1,0.9,0.7,0.9s0.7-0.4,0.7-0.9
		C44.1,36.9,44,35.3,43.9,33.6z"/>
	<path class="st0" d="M59.4,32.2c-1.3-0.2-2.6,0-3.9,0.4c-0.4,0.1-0.8,0.4-1.3-0.1c-0.3-0.3-0.7-0.1-0.7,0.5
		c0.1,4.1,0.2,8.2,0.3,12.3c0,0.2-0.1,0.4,0.2,0.5c0.2,0.1,0.5,0,0.7-0.2c0.3-0.3,0.2-0.6,0.2-1c0-1.4-0.1-2.8-0.2-4.2
		c0-0.6,0.1-0.8,0.7-1c1.8-0.3,3.5-1.1,4.8-2.5c0.7-0.7,1.2-1.6,1.2-2.7C61.5,33.2,60.7,32.3,59.4,32.2z M59.2,36.5
		c-1.2,1-2.7,1.4-4.1,1.8c-0.4,0.1-0.5-0.1-0.5-0.4c0-0.9,0-1.8,0-2.7s0.6-1.3,1.4-1.7c0.6-0.3,1.2-0.4,1.9-0.4
		c0.9,0,1.8,0.1,2.2,1.1C60.5,35.3,59.9,36,59.2,36.5z"/>
	<path class="st0" d="M28.4,34.6c0-0.9-0.6-1.6-1.5-1.7c-2.3-0.3-5.3,1.8-5.8,4.1c-0.4,1.7,0.2,2.4,1.9,2.5c1.5,0.1,2.9-0.5,4.5-1.4
		c0,2.3,0,4.4,0,6.4c0,0.4-0.1,0.8,0.6,0.8s0.5-0.4,0.5-0.8C28.4,41.2,28.4,37.9,28.4,34.6z M26.9,35.3c-0.1,2.4-1.7,3.6-4,3.1
		c-0.6-0.1-0.8-0.5-0.7-1.1c0.1-1.8,2.5-3.7,4.2-3.4C27.4,34.2,26.8,34.9,26.9,35.3z"/>
	<path class="st0" d="M52.2,37c-0.1-1.1-0.1-2.2-0.2-3.3c-0.2-1.4-0.8-1.8-2.2-1.7c-2.3,0.2-5,2.6-5.3,4.9c-0.2,1.6,0.4,2.3,2,2.3
		c1.9,0.1,3.4-0.8,4.7-2.5c0.1,0.9,0.2,1.5,0.2,2.2c0,0.4,0.3,0.5,0.6,0.5c0.5,0,0.3-0.3,0.3-0.6C52.3,38.2,52.2,37.6,52.2,37z
		 M51,34.3c0,1.7-2.4,4.1-4.1,4.1c-0.8,0-1.4-0.6-1.3-1.4c0.2-1.6,2.6-3.8,4.2-3.8C50.6,33.2,51,33.4,51,34.3z"/>
	<path class="st0" d="M19,35.3c-1.3-0.2-2.6,0.2-3.8,0.3c-0.4,0.1-1,0.3-1.2-0.3c-0.2-0.5,0.1-0.9,0.5-1.3c0.3-0.3,0.6-0.5,1-0.6
		c1.4-0.6,2.8-0.5,4.3,0c0-0.8,0.1-1.4-0.8-1.5c-2-0.1-3.7,0.3-5.3,1.5c-0.7,0.5-1.3,1.2-0.8,2.2c0.4,0.8,1.4,1.2,2.4,1
		c0.8-0.2,1.6-0.4,2.4-0.3c0.3,0,0.7,0,0.8,0.3c0.2,0.4-0.2,0.6-0.5,0.8c-1,0.8-2,1.2-3,1.6c-0.2,0.1-0.6,0-0.4,0.4
		c0.1,0.3,0.3,0.6,0.7,0.4c1.7-0.6,3.4-1.4,4.5-2.9C20.4,36.1,20,35.4,19,35.3z"/>
	<path class="st0" d="M30.9,35.5c-0.2-2.5-0.2-4.6-0.7-6.6c-0.1-0.3-0.1-0.7-0.5-0.6c-0.3,0.1-0.6,0.4-0.5,0.8
		c0.1,0.6,0.2,1.2,0.2,1.8c0.1,2.6,0.2,5.2,0.3,7.8c0,0.3-0.3,0.9,0.4,0.8c0.5,0,0.8-0.4,0.8-0.9C30.9,37.4,30.9,36.3,30.9,35.5z"/>
</g>
</svg>
