<?xml version="1.0" encoding="utf-8"?>
<!-- Generator: Adobe Illustrator 21.0.2, SVG Export Plug-In . SVG Version: 6.00 Build 0)  -->
<svg version="1.1" id="Layer_1" xmlns="http://www.w3.org/2000/svg" xmlns:xlink="http://www.w3.org/1999/xlink" x="0px" y="0px"
	 viewBox="0 0 74 74" style="enable-background:new 0 0 74 74;" xml:space="preserve">
<style type="text/css">
	.st0{fill:none;stroke:#006FAF;stroke-width:2;stroke-miterlimit:10;}
	.st1{fill:#006FAF;}
</style>
<circle class="st0" cx="37" cy="37" r="36"/>
<g id="g3363" transform="matrix(1.25,0,0,-1.25,0,227.7875)">
	<g id="g3365" transform="scale(0.1,0.1)">
		<g id="path3367">
			<path class="st1" d="M296,1486.8c-25,0-45.4,20.4-45.4,45.4c0,25,20.4,45.4,45.4,45.4s45.4-20.4,45.4-45.4
				C341.4,1507.2,321,1486.8,296,1486.8z M296,1561.6c-16.2,0-29.4-13.2-29.4-29.4s13.2-29.4,29.4-29.4s29.4,13.2,29.4,29.4
				S312.2,1561.6,296,1561.6z"/>
		</g>
		<g id="path3369">
			<path class="st1" d="M395.3,1490.7c-25,0-45.4,20.4-45.4,45.4c0,25,20.4,45.4,45.4,45.4c25,0,45.4-20.4,45.4-45.4
				C440.7,1511.1,420.3,1490.7,395.3,1490.7z M395.3,1565.5c-16.2,0-29.4-13.2-29.4-29.4s13.2-29.4,29.4-29.4s29.4,13.2,29.4,29.4
				S411.5,1565.5,395.3,1565.5z"/>
		</g>
		<g id="path3371">
			<path class="st1" d="M230,1470.5h-28.8c-6.7,0-12.2,5.5-12.2,12.2v13.3c-21.4,3.7-37.7,22.4-37.7,44.7c0,25,20.4,45.4,45.4,45.4
				h3.3l36.7-36.5c1.6-1.5,3-2.9,3-2.9l2.3-2.3l0-3.3c0-0.1,0-1.7,0.1-3.9l0-54.4C242.2,1476,236.7,1470.5,230,1470.5z M205,1486.5
				h21.2v50.3c0,0.3,0,0.5,0,0.8c-0.2,0.2-0.4,0.3-0.6,0.5l-32,31.9c-14.7-1.6-26.3-14.1-26.3-29.2c0-16.2,13.2-29.4,29.4-29.4
				c8.3,0,8.3-8.6,8.3-12.2V1486.5z"/>
		</g>
		<g id="path3373">
			<path class="st1" d="M97.4,1494.7c-7.6,0-14.7,1.8-21.2,5.3l-9.4,5l0.8,0.8c-10,8.7-15.7,21.1-15.7,34.3
				c0,25,20.4,45.4,45.4,45.4c8.4,0,16.4-2.3,23.6-6.7l8.6-5.3l-0.7-0.7l2.3-2.7c7.5-8.5,11.6-19.2,11.6-30.1
				C142.8,1515.1,122.4,1494.7,97.4,1494.7z M94.9,1510.8c0.8-0.1,1.6-0.1,2.5-0.1c16.2,0,29.4,13.2,29.4,29.4
				c0,7.2-2.6,12.8-5.5,16.8H90.3l12.1,12.1c-1.7,0.3-3.4,0.4-5.1,0.4c-16.2,0-29.4-13.2-29.4-29.4c0-7.8,2.9-15,8.3-20.5h27.3
				L94.9,1510.8z"/>
		</g>
		<g id="path3375">
			<path class="st1" d="M490.1,1466.6h-28.7c-6.7,0-12.2,5.5-12.2,12.2v61.6l2.3,2.3c0,0,1.4,1.4,3.2,3.1l36.6,36.4h3.3
				c25,0,45.4-20.4,45.4-45.4c0-22.4-16.3-41.1-37.7-44.7v-13.3C502.3,1472.1,496.8,1466.6,490.1,1466.6z M465.2,1482.6h21.1v12.7
				c0,3.6,0,12.1,8.2,12.1c16.3,0,29.5,13.2,29.5,29.4c0,15.2-11.5,27.7-26.3,29.2l-31.9-31.7c-0.2-0.2-0.4-0.4-0.6-0.6V1482.6z"/>
		</g>
	</g>
</g>
</svg>
