<?xml version="1.0" encoding="utf-8"?>
<!-- Generator: Adobe Illustrator 21.0.2, SVG Export Plug-In . SVG Version: 6.00 Build 0)  -->
<svg version="1.1" id="Layer_1" xmlns="http://www.w3.org/2000/svg" xmlns:xlink="http://www.w3.org/1999/xlink" x="0px" y="0px"
	 viewBox="0 0 74 74" style="enable-background:new 0 0 74 74;" xml:space="preserve">
<style type="text/css">
	.st0{fill:#006FAF;}
</style>
<title>health-checks</title>
<path class="st0" d="M37,0C16.6,0,0,16.6,0,37s16.6,37,37,37s37-16.6,37-37S57.4,0,37,0z M37,72C17.7,72,2,56.3,2,37S17.7,2,37,2
	s35,15.7,35,35S56.3,72,37,72z"/>
<g>
	<path class="st0" d="M32.7,46.8c0-0.4-0.4-0.6-0.7-0.6c-6.2,0.7-6.2,2-6.2,2.5c0,2.7,10.1,2.7,11.2,2.7s11.2-0.1,11.2-2.7
		c0-0.5,0-1.8-6.1-2.5c-0.3-0.1-0.7,0.2-0.7,0.6c0,0.4,0.2,0.7,0.6,0.7c3.3,0.4,4.6,1,4.9,1.2c-0.6,0.6-4.1,1.5-9.9,1.5
		s-9.3-0.9-9.9-1.5c0.3-0.3,1.6-0.9,5.1-1.2C32.5,47.4,32.7,47.1,32.7,46.8z"/>
	<path class="st0" d="M36.8,47.6l0.5,0.4l0.4-0.5c0.4-0.4,9.4-10.2,9.4-17.3c0-5.6-4.5-10.1-10.1-10.1c-5.6,0-10.1,4.5-10.1,10.1
		C26.9,38.7,36.4,47.2,36.8,47.6z M37,21.4c4.9,0,8.8,4,8.8,8.8c0,5.8-6.8,13.9-8.6,15.9c-1.9-1.8-9-9.1-9-15.9
		C28.2,25.4,32.1,21.4,37,21.4z"/>
	<path class="st0" d="M37.7,39c0-0.8-0.5-1.3-1.3-1.3c-0.7,0-1.3,0.6-1.3,1.3c0,0.7,0.5,1.3,1.3,1.3C37.2,40.3,37.7,39.7,37.7,39z"
		/>
	<path class="st0" d="M38.4,28.8c0,1-0.5,1.8-1.5,2.9c-1.1,1.3-1.4,2.5-1.3,3.7l0,0.6h1.7l0-0.6c-0.1-1.1,0.3-2,1.2-3.1
		c1-1.2,1.8-2.3,1.8-3.7c0-1.6-1.1-3.1-3.6-3.1c-1.1,0-2.3,0.3-3,0.9l0.5,1.3c0.5-0.4,1.4-0.7,2.2-0.7C37.7,27,38.4,27.8,38.4,28.8z
		"/>
	<path class="st0" d="M43.7,43.8c-0.4-0.1-0.7,0.2-0.7,0.6c0,0.4,0.2,0.7,0.6,0.7c7.9,0.9,11.5,2.4,11.5,3.5c0,1.2-6.9,4-18.1,4
		c-11.1,0-18.1-2.1-18.1-4c0-1,4.3-3,11.2-3.7c0.4,0,0.6-0.4,0.6-0.7c0-0.4-0.4-0.6-0.7-0.6c-4.3,0.4-12.3,2.1-12.3,5
		c0,3.6,9.8,5.2,19.4,5.2c9.1,0,19.3-2.1,19.4-5.2C56.5,45.8,49.6,44.4,43.7,43.8z"/>
</g>
</svg>
