<?xml version="1.0" encoding="utf-8"?>
<!-- Generator: Adobe Illustrator 21.0.2, SVG Export Plug-In . SVG Version: 6.00 Build 0)  -->
<svg version="1.1" id="Layer_1" xmlns="http://www.w3.org/2000/svg" xmlns:xlink="http://www.w3.org/1999/xlink" x="0px" y="0px"
	 viewBox="0 0 74 74" style="enable-background:new 0 0 74 74;" xml:space="preserve">
<style type="text/css">
	.st0{fill:none;stroke:#006FAF;stroke-width:2;stroke-miterlimit:10;}
	.st1{fill:#006FAF;}
</style>
<title>mobile-apps</title>
<circle class="st0" cx="37" cy="37" r="36"/>
<path id="polygon3517" class="st1" d="M21,25.4v8.4c4.3-1.8,10.1-3.6,17.4-5.4c4.7-1.2,9.2-2.2,13.5-3H21z M53,27.2
	c-4.2,0.6-8,1.4-11.3,2.2c-3.8,1-6.9,1.9-9.2,2.9c-2.3,1-3.4,1.8-3.3,2.4c0.1,0.5,1.1,0.8,2.9,0.7c0.9,0,2.4-0.1,4.5-0.3
	s4.8-0.5,8.1-0.8c3.3-0.3,6-0.6,8.2-0.7L53,27.2L53,27.2z M43.6,37.8c-0.9,0-2.2,0.1-3.9,0.2c-1.7,0.1-3.7,0.3-6.1,0.6
	c-3.8,0.4-7,0.7-9.5,0.9c-1.2,0.1-2.2,0.2-3.2,0.2v6.8c5-0.7,9.5-1.6,13.5-2.6c3.9-1,7-2,9.1-2.9c2.1-0.9,3.1-1.7,3-2.4
	C46.5,38.1,45.5,37.9,43.6,37.8z M53,40.2c-4.4,1.7-9.8,3.4-16.3,5c-6,1.5-11.3,2.6-15.7,3.3v0.1h32V40.2z M22.3,41.7
	C22.4,41.7,22.4,41.7,22.3,41.7c0.1,0,0.2,0,0.3,0.1c0.1,0.1,0.1,0.2,0.1,0.3c-0.1,0.1-0.2,0.2-0.3,0.2c-0.2,0-0.3-0.2-0.3-0.3
	C22.1,41.8,22.2,41.7,22.3,41.7z M23.5,41.7c0.1,0,0.1,0,0.2,0.1s0.1,0.2,0.1,0.4c0,0.1-0.2,0.2-0.3,0.2c-0.1,0-0.2-0.1-0.3-0.2
	c-0.1-0.1,0-0.3,0.1-0.4C23.4,41.7,23.4,41.7,23.5,41.7z M22.4,43.7c0.1,0,0.3,0.1,0.3,0.2c0,0.1,0,0.3-0.2,0.4
	c-0.1,0.1-0.3,0-0.4-0.1s-0.1-0.3,0-0.4C22.2,43.7,22.3,43.7,22.4,43.7z M23.5,43.7c0.1,0,0.2,0.1,0.3,0.1c0.1,0.1,0,0.3-0.1,0.4
	c-0.1,0.1-0.3,0.1-0.4,0s-0.1-0.3,0-0.4C23.3,43.7,23.4,43.7,23.5,43.7z"/>
</svg>
