<?xml version="1.0" encoding="utf-8"?>
<!-- Generator: Adobe Illustrator 21.0.2, SVG Export Plug-In . SVG Version: 6.00 Build 0)  -->
<svg version="1.1" id="Layer_1" xmlns="http://www.w3.org/2000/svg" xmlns:xlink="http://www.w3.org/1999/xlink" x="0px" y="0px"
	 viewBox="0 0 74 74" style="enable-background:new 0 0 74 74;" xml:space="preserve">
<style type="text/css">
	.st0{fill:none;stroke:#006FAF;stroke-width:2;stroke-miterlimit:10;}
	.st1{fill:#006FAF;}
</style>
<title>Cloud &amp;amp; Infrastructure Services</title>
<circle class="st0" cx="37" cy="37" r="36"/>
<path class="st1" d="M46.4,22H27.6c-3.1,0-5.6,2.5-5.6,5.6v18.8c0,3.1,2.5,5.6,5.6,5.6h18.8c3.1,0,5.6-2.5,5.6-5.6V27.6
	C52,24.5,49.5,22,46.4,22z M43.5,38.7h-4.8v4.8c0,0.9-0.8,1.7-1.7,1.7s-1.7-0.8-1.7-1.7v-4.8h-4.8c-0.9,0-1.7-0.8-1.7-1.7
	s0.8-1.7,1.7-1.7h4.8v-4.8c0-0.9,0.8-1.7,1.7-1.7s1.7,0.8,1.7,1.7v4.8h4.8c0.9,0,1.7,0.8,1.7,1.7S44.4,38.7,43.5,38.7z"/>
</svg>
