<?xml version="1.0" encoding="utf-8"?>
<!-- Generator: Adobe Illustrator 21.0.2, SVG Export Plug-In . SVG Version: 6.00 Build 0)  -->
<svg version="1.1" id="Layer_1" xmlns="http://www.w3.org/2000/svg" xmlns:xlink="http://www.w3.org/1999/xlink" x="0px" y="0px"
	 viewBox="0 0 74 74" style="enable-background:new 0 0 74 74;" xml:space="preserve">
<style type="text/css">
	.st0{fill:#006FAF;}
</style>
<title>save-through-cost-effective-ux-delivery-model</title>
<path class="st0" d="M37,74C16.6,74,0,57.4,0,37S16.6,0,37,0s37,16.6,37,37S57.4,74,37,74z M37,2C17.7,2,2,17.7,2,37s15.7,35,35,35
	s35-15.7,35-35S56.3,2,37,2z"/>
<g>
	<g id="g10302" transform="matrix(0.92988585,0,0,0.92988585,-4288.8174,-2867.3705)">
		<path id="path3265" class="st0" d="M4648.3,3125.6c0,0-1.1,0.6,0.8,0.8c2.2,0.3,3.4,0.2,5.9-0.2c0,0,0.7,0.4,1.6,0.8
			C4650.9,3129.4,4643.9,3126.9,4648.3,3125.6"/>
		<path id="path3267" class="st0" d="M4647.6,3122.5c0,0-1.2,0.9,0.6,1.1c2.4,0.2,4.3,0.3,7.6-0.4c0,0,0.5,0.5,1.2,0.7
			C4650.3,3125.9,4642.8,3124.1,4647.6,3122.5"/>
		<path id="path3269" class="st0" d="M4653.3,3117.3c1.4,1.6-0.4,3-0.4,3s3.5-1.8,1.9-4c-1.5-2.1-2.6-3.1,3.6-6.7
			C4658.4,3109.5,4648.7,3111.9,4653.3,3117.3"/>
		<path id="path3271" class="st0" d="M4660.7,3127.9c0,0,0.8,0.7-0.9,1.2c-3.2,1-13.3,1.3-16.2,0c-1-0.4,0.9-1.1,1.5-1.2
			c0.6-0.1,1-0.1,1-0.1c-1.1-0.8-7.3,1.6-3.1,2.2C4654.3,3131.9,4663.6,3129.3,4660.7,3127.9"/>
		<path id="path3273" class="st0" d="M4648.8,3119.3c0,0-5.2,1.2-1.8,1.7c1.4,0.2,4.2,0.1,6.8-0.1c2.1-0.2,4.3-0.6,4.3-0.6
			s-0.8,0.3-1.3,0.7c-5.2,1.4-15.3,0.7-12.4-0.7C4646.8,3119.2,4648.8,3119.3,4648.8,3119.3"/>
		<path id="path3275" class="st0" d="M4658,3124.5c5.3-2.8,2.9-5.4,1.1-5.1c-0.4,0.1-0.6,0.2-0.6,0.2s0.2-0.2,0.5-0.4
			c3.4-1.2,6,3.5-1.1,5.4C4657.9,3124.6,4658,3124.5,4658,3124.5"/>
		<path id="path3277" class="st0" d="M4654.8,3103.7c0,0,2.9,2.9-2.8,7.5c-4.6,3.6-1.1,5.7,0,8.1c-2.7-2.4-4.7-4.6-3.3-6.5
			C4650.6,3109.8,4656,3108.4,4654.8,3103.7"/>
		<path id="path3279" class="st0" d="M4649.3,3132c5.1,0.3,13-0.2,13.1-2.6c0,0-0.4,0.9-4.2,1.6c-4.4,0.8-9.7,0.7-12.9,0.2
			C4645.3,3131.2,4646,3131.8,4649.3,3132"/>
	</g>
	<g>
		<path class="st0" d="M29.3,47.2l0.5,1.8L29,49.1c-0.2-0.4-0.5-0.7-0.8-0.9s-0.6-0.3-1-0.3c-0.2,0-0.4,0-0.5,0.1s-0.2,0.2-0.2,0.3
			s0.1,0.2,0.2,0.3s0.3,0.2,0.6,0.3l1,0.3c0.6,0.2,1,0.4,1.2,0.6c0.2,0.3,0.4,0.6,0.4,0.9c0,0.5-0.2,0.8-0.5,1.2
			c-0.4,0.3-0.9,0.5-1.5,0.5c-0.3,0-0.5,0-0.8-0.1c-0.2-0.1-0.5-0.2-0.7-0.4l-0.2,0.4h-0.6l-0.4-2.1l0.7-0.2c0.2,0.4,0.4,0.8,0.8,1
			s0.7,0.4,1.2,0.4c0.2,0,0.3,0,0.5-0.1c0.1,0,0.2-0.1,0.3-0.2s0.1-0.2,0.1-0.3c0-0.2-0.1-0.3-0.2-0.4c-0.1-0.1-0.4-0.2-0.8-0.3
			l-0.9-0.3c-0.1,0-0.3-0.1-0.5-0.2c-0.2-0.1-0.4-0.2-0.5-0.3s-0.2-0.3-0.3-0.4s-0.1-0.4-0.1-0.6c0-0.3,0.1-0.5,0.2-0.8
			c0.2-0.2,0.4-0.4,0.7-0.6c0.3-0.1,0.7-0.2,1-0.2c0.5,0,0.9,0.1,1.2,0.4l0.1-0.3h0.6C29.3,46.8,29.3,47.2,29.3,47.2z"/>
		<path class="st0" d="M30.2,48.7h2v0.7h-0.1c-0.1,0-0.2,0-0.2,0l-0.1,0.1c0,0,0,0.1,0,0.2l0.5,1.6l0.5-1.3l-0.1-0.4
			c0-0.1-0.1-0.2-0.1-0.2c-0.1,0-0.1-0.1-0.2-0.1v-0.7h1.9v0.7h-0.2c-0.1,0-0.1,0-0.2,0v0.1c0,0,0,0.1,0,0.2l0.5,1.4l0.5-1.4
			c0-0.1,0-0.2,0-0.2s0-0.1-0.1-0.1c0,0-0.1,0-0.2,0h-0.1v-0.7h1.7v0.7c-0.1,0-0.2,0-0.2,0s-0.1,0-0.1,0.1c0,0-0.1,0.1-0.1,0.3
			l-1,2.7h-1l-0.6-1.5l-0.6,1.5h-1l-1-2.7c0-0.1-0.1-0.2-0.1-0.2l-0.1-0.1c0,0-0.1,0-0.2,0L30.2,48.7L30.2,48.7z"/>
		<path class="st0" d="M38.4,48.6v2.8c0,0.1,0,0.2,0,0.2s0,0.1,0.1,0.1s0.1,0,0.3,0H39v0.7h-2.4v-0.7h0.2c0.1,0,0.2,0,0.3,0
			c0,0,0.1,0,0.1-0.1s0-0.1,0-0.2v-1.8h-0.6v-0.7c0.2,0,0.4,0,0.6-0.1c0.2,0,0.3-0.1,0.5-0.1c0.1,0,0.2-0.1,0.3-0.2L38.4,48.6
			L38.4,48.6z M37.8,46.9c0.2,0,0.4,0.1,0.5,0.2c0.1,0.1,0.2,0.3,0.2,0.5s-0.1,0.4-0.2,0.5c-0.1,0.1-0.3,0.2-0.5,0.2
			s-0.4-0.1-0.5-0.2s-0.2-0.3-0.2-0.5s0.1-0.4,0.2-0.5C37.5,47,37.6,46.9,37.8,46.9z"/>
		<path class="st0" d="M41.1,48.6v0.5c0.3-0.2,0.5-0.3,0.7-0.4c0.2-0.1,0.4-0.1,0.6-0.1c0.2,0,0.5,0.1,0.7,0.2
			c0.2,0.1,0.3,0.2,0.4,0.4c0.1,0.2,0.1,0.4,0.1,0.7v1.6c0,0.1,0,0.2,0,0.3c0,0,0,0.1,0.1,0.1c0,0,0.1,0,0.3,0h0.2v0.7H42v-0.7
			c0.2,0,0.3,0,0.3,0c0.1,0,0.1,0,0.1-0.1c0,0,0-0.1,0-0.3V50c0-0.2,0-0.3-0.1-0.3c-0.1-0.1-0.2-0.1-0.3-0.1s-0.2,0-0.3,0.1
			c-0.1,0-0.3,0.1-0.5,0.3v1.5c0,0.2,0,0.3,0.1,0.3c0,0,0.1,0.1,0.3,0.1h0.1v0.7h-2.2v-0.7h0.1c0.2,0,0.3,0,0.3,0s0.1,0,0.1-0.1
			c0,0,0-0.1,0-0.2v-1.8h-0.6v-0.7c0.5-0.1,0.9-0.2,1.3-0.3h0.4C41.1,48.8,41.1,48.6,41.1,48.6z"/>
		<path class="st0" d="M47.7,48.9c0.1-0.2,0.3-0.3,0.4-0.4c0.1-0.1,0.3-0.1,0.4-0.1c0.1,0,0.3,0,0.4,0.1s0.1,0.2,0.1,0.3
			s0,0.2-0.1,0.3s-0.2,0.1-0.3,0.1h-0.1h-0.1c-0.1,0-0.1,0-0.2,0.1c0.1,0.2,0.2,0.5,0.2,0.7s-0.1,0.4-0.2,0.7
			c-0.1,0.2-0.3,0.4-0.6,0.5c-0.2,0.1-0.5,0.2-0.9,0.2c-0.1,0-0.2,0-0.3,0s-0.2,0-0.3-0.1c-0.1,0-0.1,0.1-0.2,0.1l-0.1,0.1
			c0,0.1,0.1,0.1,0.2,0.2l1.6,0.2c0.5,0.1,0.8,0.2,1,0.4s0.3,0.4,0.3,0.7c0,0.2-0.1,0.4-0.2,0.6c-0.2,0.2-0.4,0.4-0.8,0.5
			c-0.4,0.1-0.8,0.2-1.3,0.2s-0.9,0-1.2-0.1s-0.5-0.2-0.7-0.3c-0.1-0.1-0.2-0.3-0.2-0.4c0-0.1,0-0.3,0.1-0.4
			c0.1-0.1,0.3-0.2,0.6-0.4c-0.2-0.1-0.3-0.2-0.4-0.3c-0.1-0.1-0.2-0.3-0.2-0.4c0-0.2,0.1-0.3,0.2-0.4c0.1-0.1,0.3-0.3,0.5-0.4
			c-0.1-0.1-0.2-0.2-0.3-0.3s-0.1-0.2-0.2-0.3c0-0.1-0.1-0.3-0.1-0.4c0-0.4,0.2-0.7,0.5-1s0.7-0.4,1.2-0.4c0.2,0,0.4,0,0.6,0.1
			S47.5,48.8,47.7,48.9z M46.1,52.7c-0.1,0.1-0.2,0.2-0.3,0.2c0,0.1-0.1,0.1-0.1,0.2c0,0.1,0.1,0.2,0.3,0.3s0.5,0.1,0.8,0.1
			c0.2,0,0.4,0,0.6-0.1c0.2,0,0.3-0.1,0.4-0.1c0,0,0.1-0.1,0.1-0.2c0-0.1,0-0.1-0.1-0.2c-0.1,0-0.3-0.1-0.6-0.1L46.1,52.7z
			 M46.6,49.3c-0.2,0-0.3,0.1-0.4,0.2C46.1,49.6,46,49.8,46,50s0.1,0.3,0.2,0.4c0.1,0.1,0.2,0.2,0.4,0.2s0.3-0.1,0.4-0.2
			c0.1-0.1,0.2-0.3,0.2-0.4c0-0.2,0-0.4-0.2-0.5C46.9,49.4,46.8,49.3,46.6,49.3z"/>
	</g>
</g>
</svg>
