<?xml version="1.0" encoding="utf-8"?>
<!-- Generator: Adobe Illustrator 21.0.2, SVG Export Plug-In . SVG Version: 6.00 Build 0)  -->
<svg version="1.1" id="Layer_1" xmlns="http://www.w3.org/2000/svg" xmlns:xlink="http://www.w3.org/1999/xlink" x="0px" y="0px"
	 viewBox="0 0 74 74" style="enable-background:new 0 0 74 74;" xml:space="preserve">
<style type="text/css">
	.st0{fill:#006FAF;}
</style>
<title>health-checks</title>
<path class="st0" d="M37,0C16.6,0,0,16.6,0,37s16.6,37,37,37s37-16.6,37-37S57.4,0,37,0z M37,72C17.7,72,2,56.3,2,37S17.7,2,37,2
	s35,15.7,35,35S56.3,72,37,72z"/>
<g>
	<path class="st0" d="M45.2,39.6L36.6,31c-0.4-0.4-1-0.4-1.4,0s-0.4,1,0,1.4l8.5,8.5c0.1,0.1,0.1,0.2,0,0.3l-8.5,8.5
		c-0.4,0.4-0.4,1,0,1.4c0.2,0.2,0.5,0.3,0.7,0.3s0.5-0.1,0.7-0.3l8.5-8.5C46,41.9,46,40.4,45.2,39.6z"/>
	<path class="st0" d="M38.1,43.3c0.3,0,0.5-0.1,0.7-0.3c0.4-0.4,0.4-1,0-1.4L30.2,33c-0.1-0.1-0.1-0.2,0-0.3l8.5-8.5
		c0.4-0.4,0.4-1,0-1.4s-1-0.4-1.4,0l-8.5,8.5c-0.9,0.9-0.9,2.3,0,3.2l8.5,8.5C37.6,43.2,37.8,43.3,38.1,43.3z"/>
</g>
</svg>
