<?xml version="1.0" encoding="utf-8"?>
<!-- Generator: Adobe Illustrator 21.0.2, SVG Export Plug-In . SVG Version: 6.00 Build 0)  -->
<svg version="1.1" id="Layer_1" xmlns="http://www.w3.org/2000/svg" xmlns:xlink="http://www.w3.org/1999/xlink" x="0px" y="0px"
	 viewBox="0 0 74 74" style="enable-background:new 0 0 74 74;" xml:space="preserve">
<style type="text/css">
	.st0{fill:none;stroke:#006FAF;stroke-width:2;stroke-miterlimit:10;}
	.st1{fill:#006FAF;}
</style>
<title>Cloud &amp;amp; Infrastructure Services</title>
<circle class="st0" cx="37" cy="37" r="36"/>
<path class="st1" d="M46.3,23.3c-2.1,0.1-3.8,1.2-5.2,2.8c-1.5,1.7-2.5,3.8-3.2,5.8c-1.3-1-2.2-2.4-4.3-3c-1.6-0.5-3.2-0.3-4.7,0.9
	c-0.7,0.5-1.2,1.3-1.4,2.1c-0.6,2,0.6,3.7,1.2,4.4l1.2,1.3c0.3,0.3,0.9,0.9,0.6,1.9c-0.3,1.1-1.6,1.7-2.9,1.3
	c-0.6-0.2-1.4-0.6-1.2-1.2c0.1-0.3,0.3-0.4,0.4-0.7c0.1-0.2,0.1-0.3,0.2-0.4c0.2-0.8-0.1-1.8-0.9-2.1c-0.8-0.2-1.6,0-1.9,1
	c-0.4,1.1,0.2,3.2,3.1,4.1c3.4,1.1,6.3-0.8,6.8-3.3c0.3-1.5-0.4-2.7-1.7-4.1l-1-1.1c-0.6-0.6-0.8-1.7-0.2-2.5c0.5-0.7,1.3-1,2.6-0.6
	c1.9,0.5,2.7,1.8,4.1,2.8c-0.6,1.9-0.9,3.7-1.3,5.4l-0.2,1.3c-1,5.2-1.7,8-3.7,9.6c-0.4,0.3-1,0.7-1.8,0.7c-0.4,0-0.6-0.3-0.6-0.4
	c0-0.3,0.3-0.5,0.4-0.6c0.3-0.1,0.7-0.4,0.6-1.1c0-0.9-0.8-1.7-1.8-1.6c-0.8,0-2,0.8-2,2.2s1.4,2.5,3.4,2.4c1.1,0,3.5-0.5,5.8-3.3
	c2.8-3.2,3.5-6.9,4.1-9.6l0.6-3.6c0.4,0,0.7,0.1,1.2,0.1c3.4,0.1,5.1-1.7,5.2-3c0-0.8-0.5-1.6-1.3-1.5c-0.5,0-1.2,0.4-1.4,1.1
	s1.1,1.4,0.1,2c-0.7,0.4-1.9,0.8-3.7,0.5l0.3-1.8c0.6-3.3,1.4-7.4,4.5-7.5c0.2,0,1,0,1,0.5c0,0.2,0,0.2-0.2,0.6
	c-0.2,0.3-0.3,0.6-0.3,0.9c0,0.8,0.7,1.4,1.6,1.4c1.3,0,1.6-1.3,1.6-1.9C49.9,24.2,48.4,23.3,46.3,23.3z"/>
</svg>
