<?xml version="1.0" encoding="utf-8"?>
<!-- Generator: Adobe Illustrator 21.0.2, SVG Export Plug-In . SVG Version: 6.00 Build 0)  -->
<svg version="1.1" id="Layer_1" xmlns="http://www.w3.org/2000/svg" xmlns:xlink="http://www.w3.org/1999/xlink" x="0px" y="0px"
	 viewBox="0 0 74 74" style="enable-background:new 0 0 74 74;" xml:space="preserve">
<style type="text/css">
	.st0{fill:none;stroke:#006FAF;stroke-width:2;stroke-miterlimit:10;}
	.st1{fill:#006FAF;}
	.st2{fill:#006FAF;stroke:#FFFFFF;stroke-width:0.3;stroke-miterlimit:10;}
</style>
<title>os-patch-management</title>
<g id="text">
</g>
<circle class="st0" cx="37" cy="37" r="36"/>
<g>
	<path class="st1" d="M24.3,45.8c4.1,0,8.1,0,12.2,0c4,0,8.1,0,12.2,0c2.3,0,3.8-1.4,3.8-3.8c0-5.5,0-10.8,0-16.3
		c0-2.6-1.3-3.8-3.8-3.8c-8.1,0-16.4,0-24.4,0c-2.5,0-3.8,1.4-3.8,3.9c0,5.3,0,10.6,0,15.9C20.5,44.4,21.8,45.8,24.3,45.8z
		 M22.5,26.1c0-1.7,0.3-2.1,2.1-2.1c7.9,0,15.9,0,23.8,0c1.8,0,2.1,0.3,2.1,2.2c0,5.1,0,10.1,0,15.2c0,1.9-0.3,2.2-2.1,2.2
		c-4,0-7.9,0-11.9,0s-7.9,0-11.9,0c-1.8,0-2.1-0.3-2.1-2.1C22.5,36.5,22.5,31.2,22.5,26.1z"/>
	<path class="st1" d="M57,50.7c0-0.5-0.3-0.9-1-0.9c-0.3,0-0.5,0-0.8,0c-6.1,0-12.1,0-18.2,0c-5.9,0-12.1,0-18,0
		c-0.8,0-2.1-0.4-2,1.1c0,1.3,1.2,1.1,2,1.1c11.9,0,23.9,0,35.8,0c0.5,0,0.8,0,1.3-0.2C56.6,51.8,57.1,51.4,57,50.7z"/>
</g>
<path class="st2" d="M37,27c-2.7,0-5.5,0.9-5.5,2.5v9c0,1.6,2.8,2.5,5.5,2.5s5.5-0.9,5.5-2.5v-9C42.5,27.9,39.7,27,37,27z
	 M41.5,38.5c0,0.6-1.8,1.5-4.5,1.5s-4.5-0.9-4.5-1.5V37c1.1,0.7,2.8,1,4.5,1s3.4-0.4,4.5-1V38.5z M41.5,35.5c0,0.6-1.8,1.5-4.5,1.5
	s-4.5-0.9-4.5-1.5V34c1.1,0.7,2.8,1,4.5,1s3.4-0.4,4.5-1V35.5z M41.5,32.5c0,0.6-1.8,1.5-4.5,1.5s-4.5-0.9-4.5-1.5V31
	c1.1,0.7,2.8,1,4.5,1s3.4-0.4,4.5-1V32.5z M37,31c-2.7,0-4.5-0.9-4.5-1.5S34.3,28,37,28s4.5,0.9,4.5,1.5S39.7,31,37,31z"/>
</svg>
