<?xml version="1.0" encoding="utf-8"?>
<!-- Generator: Adobe Illustrator 21.1.0, SVG Export Plug-In . SVG Version: 6.00 Build 0)  -->
<svg version="1.1" id="Layer_1" xmlns="http://www.w3.org/2000/svg" xmlns:xlink="http://www.w3.org/1999/xlink" x="0px" y="0px"
	 viewBox="0 0 74 74" style="enable-background:new 0 0 74 74;" xml:space="preserve">
<style type="text/css">
	.st0{fill:#006FAF;}
</style>
<title>tableau</title>
<path class="st0" d="M37,74C16.6,74,0,57.4,0,37S16.6,0,37,0s37,16.6,37,37S57.4,74,37,74z M37,2C17.7,2,2,17.7,2,37s15.7,35,35,35
	s35-15.7,35-35S56.3,2,37,2z"/>
<polygon class="st0" points="38.9,43.9 38.9,38.4 44,38.4 44,36.4 38.9,36.4 38.9,30.8 36.9,30.8 36.9,36.4 31.8,36.4 31.8,38.4 
	36.9,38.4 36.9,43.9 "/>
<polygon class="st0" points="29.1,40.5 27.4,40.5 27.4,45.5 22.8,45.5 22.8,47 27.4,47 27.4,52 29.1,52 29.1,47 33.7,47 33.7,45.5 
	29.1,45.5 "/>
<polygon class="st0" points="46.6,34.1 48.4,34.1 48.4,29.2 53,29.2 53,27.6 48.4,27.6 48.4,22.6 46.6,22.6 46.6,27.6 42.1,27.6 
	42.1,29.2 46.6,29.2 "/>
<polygon class="st0" points="38.7,47.5 37.2,47.5 37.2,51 34.1,51 34.1,52.3 37.2,52.3 37.2,55.8 38.7,55.8 38.7,52.3 41.8,52.3 
	41.8,51 38.7,51 "/>
<polygon class="st0" points="27.4,34.1 29.1,34.1 29.1,29.1 33.7,29.1 33.7,27.6 29.1,27.6 29.1,22.6 27.4,22.6 27.4,27.6 
	22.8,27.6 22.8,29.1 27.4,29.1 "/>
<polygon class="st0" points="53.4,36.7 53.4,33.2 51.9,33.2 51.9,36.7 48.8,36.7 48.8,38 51.9,38 51.9,41.5 53.4,41.5 53.4,38 
	56.5,38 56.5,36.7 "/>
<polygon class="st0" points="48.4,40.5 46.6,40.5 46.6,45.5 42.1,45.5 42.1,47 46.6,47 46.6,52 48.4,52 48.4,47 53,47 53,45.5 
	48.4,45.5 "/>
<polygon class="st0" points="37.4,26.9 38.5,26.9 38.5,23.5 41.5,23.5 41.5,22.5 38.5,22.5 38.5,19.1 37.4,19.1 37.4,22.5 
	34.3,22.5 34.3,23.5 37.4,23.5 "/>
<polygon class="st0" points="23.4,41.3 23.4,37.9 26.5,37.9 26.5,36.8 23.4,36.8 23.4,33.5 22.3,33.5 22.3,36.8 19.2,36.8 
	19.2,37.9 22.3,37.9 22.3,41.3 "/>
</svg>
