<svg id="Layer_1" data-name="Layer 1" xmlns="http://www.w3.org/2000/svg" viewBox="0 0 74 74"><defs><style>.cls-1{fill:#006faf;}</style></defs><title>tableau-mobile</title><path class="cls-1" d="M37,74A37,37,0,1,1,74,37,37,37,0,0,1,37,74ZM37,2A35,35,0,1,0,72,37,35,35,0,0,0,37,2Z"/><polygon class="cls-1" points="47.81 30.57 47.81 26.87 51.21 26.87 51.21 25.55 47.81 25.55 47.81 21.86 46.48 21.86 46.48 25.55 43.08 25.55 43.08 26.87 46.48 26.87 46.48 30.57 47.81 30.57"/><polygon class="cls-1" points="41.33 28.27 40.18 28.27 40.18 31.59 37.13 31.59 37.13 32.59 40.18 32.59 40.18 35.91 41.33 35.91 41.33 32.59 44.38 32.59 44.38 31.59 41.33 31.59 41.33 28.27"/><polygon class="cls-1" points="52.95 24.05 54.11 24.05 54.11 20.76 57.16 20.76 57.16 19.75 54.11 19.75 54.11 16.42 52.95 16.42 52.95 19.75 49.92 19.75 49.92 20.76 52.95 20.76 52.95 24.05"/><polygon class="cls-1" points="47.66 32.96 46.67 32.96 46.67 35.26 44.61 35.26 44.61 36.15 46.67 36.15 46.67 38.46 47.66 38.46 47.66 36.15 49.72 36.15 49.72 35.26 47.66 35.26 47.66 32.96"/><polygon class="cls-1" points="40.21 24.05 41.3 24.05 41.3 20.72 44.38 20.72 44.38 19.75 41.3 19.75 41.3 16.42 40.21 16.42 40.21 19.75 37.13 19.75 37.13 20.72 40.21 20.72 40.21 24.05"/><polygon class="cls-1" points="57.44 25.77 57.44 23.46 56.45 23.46 56.45 25.77 54.39 25.77 54.39 26.66 56.45 26.66 56.45 28.97 57.44 28.97 57.44 26.66 59.5 26.66 59.5 25.77 57.44 25.77"/><polygon class="cls-1" points="54.11 28.27 52.95 28.27 52.95 31.59 49.92 31.59 49.92 32.59 52.95 32.59 52.95 35.91 54.11 35.91 54.11 32.59 57.16 32.59 57.16 31.59 54.11 31.59 54.11 28.27"/><polygon class="cls-1" points="46.81 19.29 47.53 19.29 47.53 17.01 49.58 17.01 49.58 16.34 47.53 16.34 47.53 14.06 46.81 14.06 46.81 16.34 44.76 16.34 44.76 17.01 46.81 17.01 46.81 19.29"/><polygon class="cls-1" points="37.54 28.79 37.54 26.54 39.6 26.54 39.6 25.85 37.54 25.85 37.54 23.62 36.81 23.62 36.81 25.85 34.77 25.85 34.77 26.56 36.81 26.56 36.81 28.79 37.54 28.79"/><path class="cls-1" d="M29.4,26.21H17.5c-2.3,0-3.5,1.2-3.5,3.5v22.6a3.16,3.16,0,0,0,3.5,3.5H29.4c2.5,0,3.8-1.2,3.8-3.7v-22C33.1,27.41,32.1,26.21,29.4,26.21Zm2.1,26.2a1.65,1.65,0,0,1-1.9,1.9H17.5A1.6,1.6,0,0,1,15.6,53V29.81c0-1.4.5-1.9,1.9-1.9H29.7c1.3.1,1.7.6,1.7,2l.1,22.5Z"/><path class="cls-1" d="M28.2,30c-3.1-.1-6.2-.1-9.2,0a2.48,2.48,0,0,0-2.7,2.3v15.4a2.33,2.33,0,0,0,1.9,2.6h.6q4.95.15,9.9,0c1.6,0,2.3-.8,2.3-2.4v-15A2.58,2.58,0,0,0,28.8,30Zm0,18.6c-3.1-.1-6.2-.1-9.2,0-.9,0-1.2-.3-1.2-1.3.1-4.8,0-9.5,0-14.2,0-1.3.2-1.6,1.5-1.6h8.5A1.33,1.33,0,0,1,29.3,33v7.3c0,2.4-.1,4.8,0,7.1C29.4,48.41,29,48.61,28.2,48.61Z"/><path class="cls-1" d="M23.8,50.51a1.75,1.75,0,0,0-1.7,1.7,1.69,1.69,0,0,0,1.7,1.7h.1a1.67,1.67,0,0,0,1.7-1.6v-.1A1.84,1.84,0,0,0,23.8,50.51Z"/><path class="cls-1" d="M21.5,29.41h4a.62.62,0,0,0,.4-.6c0-.2-.2-.3-.4-.4h-4a.47.47,0,0,0-.5.5h0A.47.47,0,0,0,21.5,29.41Z"/></svg>