<?xml version="1.0" encoding="utf-8"?>
<!-- Generator: Adobe Illustrator 21.0.2, SVG Export Plug-In . SVG Version: 6.00 Build 0)  -->
<svg version="1.1" id="Layer_1" xmlns="http://www.w3.org/2000/svg" xmlns:xlink="http://www.w3.org/1999/xlink" x="0px" y="0px"
	 viewBox="0 0 74 74" style="enable-background:new 0 0 74 74;" xml:space="preserve">
<style type="text/css">
	.st0{fill:none;stroke:#006FAF;stroke-width:2;stroke-miterlimit:10;}
	.st1{fill:#006FAF;}
</style>
<title>os-patch-management</title>
<g id="text">
</g>
<g>
	<circle class="st0" cx="37" cy="37" r="36"/>
	<g>
		<path class="st1" d="M24,33.4h-2.7v7.9h-1.5v-7.9H17v-1.2h7V33.4z"/>
		<path class="st1" d="M31.6,38.2L31.6,38.2c0,1-0.3,1.7-0.9,2.3s-1.4,0.9-2.5,0.9s-1.9-0.4-2.6-1.1c-0.7-0.7-1-1.6-1-2.7v-1.7
			c0-1.1,0.3-2,1-2.7s1.5-1.1,2.6-1.1s1.9,0.3,2.5,0.8s0.9,1.3,0.9,2.3l0,0h-1.5c0-0.6-0.2-1.1-0.5-1.4c-0.3-0.3-0.8-0.5-1.5-0.5
			c-0.6,0-1.1,0.2-1.5,0.7s-0.5,1.1-0.5,1.8v1.7c0,0.7,0.2,1.4,0.6,1.9s0.9,0.7,1.5,0.7s1.1-0.2,1.4-0.5s0.5-0.8,0.5-1.4H31.6z"/>
		<path class="st1" d="M34.6,37.8v3.4h-1.5v-9.1h3.5c1,0,1.8,0.3,2.4,0.8c0.6,0.5,0.9,1.2,0.9,2c0,0.9-0.3,1.5-0.9,2
			c-0.6,0.5-1.4,0.8-2.4,0.8h-2V37.8z M34.6,36.6h2c0.6,0,1-0.1,1.3-0.4c0.3-0.3,0.4-0.7,0.4-1.1c0-0.5-0.1-0.8-0.4-1.2
			c-0.3-0.3-0.7-0.5-1.3-0.5h-2V36.6z"/>
		<path class="st1" d="M41.8,42h-1.4l3.6-9.9h1.4L41.8,42z"/>
		<path class="st1" d="M48.2,41.2h-1.5v-9.1h1.5V41.2z"/>
		<path class="st1" d="M51.8,37.8v3.4h-1.5v-9.1h3.5c1,0,1.8,0.3,2.4,0.8c0.6,0.5,0.9,1.2,0.9,2c0,0.9-0.3,1.5-0.9,2
			c-0.6,0.5-1.4,0.8-2.4,0.8h-2V37.8z M51.8,36.6h2c0.6,0,1-0.1,1.3-0.4c0.3-0.3,0.4-0.7,0.4-1.1c0-0.5-0.1-0.8-0.4-1.2
			c-0.3-0.3-0.7-0.5-1.3-0.5h-2V36.6z"/>
	</g>
</g>
</svg>
