<?xml version="1.0" encoding="utf-8"?>
<!-- Generator: Adobe Illustrator 21.0.2, SVG Export Plug-In . SVG Version: 6.00 Build 0)  -->
<svg version="1.1" id="Layer_1" xmlns="http://www.w3.org/2000/svg" xmlns:xlink="http://www.w3.org/1999/xlink" x="0px" y="0px"
	 viewBox="0 0 74 74" style="enable-background:new 0 0 74 74;" xml:space="preserve">
<style type="text/css">
	.st0{fill:none;stroke:#006FAF;stroke-width:2;stroke-miterlimit:10;}
	.st1{fill:#006FAF;}
	.st2{fill:none;}
	.st3{fill-rule:evenodd;clip-rule:evenodd;fill:none;stroke:#006FAF;stroke-width:2;stroke-miterlimit:10;}
	.st4{fill:#006FAF;stroke:#006FAF;stroke-miterlimit:10;}
	.st5{fill:#FFFFFF;}
</style>
<circle class="st3" cx="37" cy="37" r="36"/>
<g>
	<path class="st1" d="M50.9,27.8c-0.1,0-0.2,0-0.3,0c-0.1,0-0.1,0-0.2,0V53c0,0.9-0.7,1.6-1.6,1.6H25.3c-0.9,0-1.6-0.7-1.6-1.6V21.1
		c0-0.9,0.7-1.6,1.6-1.6h18.3c-0.5-0.4-0.8-1-0.8-1.6H25.3c-1.8,0-3.3,1.5-3.3,3.3V53c0,1.8,1.5,3.3,3.3,3.3h23.5
		c1.8,0,3.3-1.5,3.3-3.3V28.5C51.5,28.4,51.1,28.1,50.9,27.8z"/>
	<path class="st1" d="M51.2,29.3C51.2,29.3,51.2,29.3,51.2,29.3h-8.3c-0.5,0-0.8-0.4-0.8-0.8v-9.9c0-0.3,0.2-0.6,0.5-0.8
		c0.3-0.1,0.7,0,0.9,0.2l8.2,9.8c0.2,0.1,0.3,0.4,0.3,0.6C52,28.9,51.6,29.3,51.2,29.3z M43.7,27.7h5.7l-5.7-6.8V27.7z"/>
	<path class="st1" d="M41.7,36.4c0,0.5-0.4,0.8-0.8,0.8h-7.8c-0.5,0-0.8-0.4-0.8-0.8l0,0c0-0.5,0.4-0.8,0.8-0.8h7.8
		C41.4,35.5,41.7,35.9,41.7,36.4L41.7,36.4z"/>
	<path class="st1" d="M37.8,46.3c0,0.5-0.4,0.8-0.8,0.8l0,0c-0.4,0-0.8-0.4-0.8-0.8v-10c0-0.4,0.4-0.8,0.8-0.8l0,0
		c0.5,0,0.8,0.4,0.8,0.8V46.3z"/>
	<path class="st1" d="M39.6,46.3c0,0.5-0.4,0.8-0.8,0.8h-3.6c-0.4,0-0.8-0.4-0.8-0.8l0,0c0-0.5,0.4-0.8,0.8-0.8h3.6
		C39.2,45.5,39.6,45.9,39.6,46.3L39.6,46.3z"/>
</g>
</svg>
