<?xml version="1.0" encoding="utf-8"?>
<!-- Generator: Adobe Illustrator 21.0.2, SVG Export Plug-In . SVG Version: 6.00 Build 0)  -->
<svg version="1.1" id="Layer_1" xmlns="http://www.w3.org/2000/svg" xmlns:xlink="http://www.w3.org/1999/xlink" x="0px" y="0px"
	 viewBox="0 0 74 74" style="enable-background:new 0 0 74 74;" xml:space="preserve">
<style type="text/css">
	.st0{fill:#006FAF;}
</style>
<title>os-patch-management</title>
<g id="text">
</g>
<path class="st0" d="M37,74C16.6,74,0,57.4,0,37S16.6,0,37,0s37,16.6,37,37S57.4,74,37,74z M37,2C17.7,2,2,17.7,2,37s15.7,35,35,35
	s35-15.7,35-35S56.3,2,37,2z"/>
<g>
	<path class="st0" d="M45.5,29c-0.4,0.8-0.9,1.7-1.4,2.6c1.6,1.7,3,3.3,4.1,4.9c2.4-3.6,3.4-6.6,2.1-7.9C49.5,27.8,47.7,28,45.5,29z
		"/>
	<path class="st0" d="M29.9,31.6c-0.6-0.9-1.1-1.8-1.4-2.6c-2.2-1-4-1.2-4.8-0.4c-1.2,1.2-0.3,4.3,2.1,7.9
		C26.9,34.9,28.3,33.2,29.9,31.6z"/>
	<path class="st0" d="M42.2,43.8c0.1-0.1,0.2-0.2,0.3-0.3c0.3-0.3,0.6-0.6,0.9-0.9c-1.1-1.7-2.5-3.5-4.2-5.2c-0.5,0.5-0.9,1-1.4,1.5
		c-0.2,0.2-0.5,0.5-0.8,0.7c-0.3-0.2-0.5-0.5-0.8-0.7c-0.5-0.5-1-1-1.4-1.5c-1.7,1.8-3.1,3.6-4.2,5.2c0.3,0.3,0.6,0.6,0.9,0.9
		c0.1,0.1,0.2,0.2,0.3,0.3c-1,0.6-1.9,1.1-2.7,1.5c-1.1,2.3-1.3,4.2-0.4,5.1c1.3,1.3,4.6,0.3,8.3-2.2c3.7,2.6,7,3.5,8.3,2.2
		c0.9-0.9,0.7-2.8-0.4-5.1C44.1,44.9,43.2,44.4,42.2,43.8z"/>
	<path class="st0" d="M48.3,37.3c-1.3-1.9-3-3.9-4.9-5.9c-0.1-0.1-0.2-0.2-0.2-0.2c-0.4-0.4-0.7-0.7-1.1-1.1
		c1.1-0.7,2.1-1.3,3.1-1.7c2.6-1.2,4.7-1.5,5.7-0.4L48,25.1l0,0l-1.6-1.6C44.9,22,41.2,23.2,37,26c-2.9-2-5.6-3.2-7.5-3.2
		c-0.8,0-1.4,0.2-1.9,0.6L26,25l0,0l-2.9,3c1-1,3.1-0.8,5.7,0.4c1,0.4,2,1,3.1,1.7c-0.4,0.3-0.7,0.7-1.1,1.1
		c-0.1,0.1-0.2,0.2-0.2,0.2c-1.9,2-3.6,4-4.9,5.9c-2.9,4.2-4,7.9-2.6,9.4l4.5,4.5c-1-1-0.8-3.1,0.4-5.7c0.4-1,1-2,1.7-3.1
		c1.2-1.9,2.8-3.9,4.7-5.9c0.3-0.3,0.6-0.6,0.8-0.9c0.5-0.5,1.1-1.1,1.6-1.6c0.5,0.5,1.1,1,1.6,1.6c0.3,0.3,0.6,0.6,0.8,0.9
		c1.9,2,3.5,4,4.7,5.9c0.7,1.1,1.3,2.1,1.7,3.1c1.2,2.6,1.4,4.7,0.4,5.7l4.5-4.5C52.3,45.2,51.2,41.5,48.3,37.3z"/>
</g>
</svg>
