<?xml version="1.0" encoding="utf-8"?>
<!-- Generator: Adobe Illustrator 21.0.2, SVG Export Plug-In . SVG Version: 6.00 Build 0)  -->
<svg version="1.1" id="Layer_1" xmlns="http://www.w3.org/2000/svg" xmlns:xlink="http://www.w3.org/1999/xlink" x="0px" y="0px"
	 viewBox="0 0 74 74" style="enable-background:new 0 0 74 74;" xml:space="preserve">
<style type="text/css">
	.st0{fill:#006FAF;}
</style>
<title>health-checks</title>
<path class="st0" d="M37,74C16.6,74,0,57.4,0,37S16.6,0,37,0s37,16.6,37,37S57.4,74,37,74z M37,2C17.7,2,2,17.7,2,37s15.7,35,35,35
	s35-15.7,35-35S56.3,2,37,2z"/>
<g>
</g>
<g>
	<path class="st0" d="M38.3,19.7c0.2,0.2,0.5,0.4,0.7,0.6c0.4,0.4,0.8,0.9,1.1,1.6c0.3,0.9,0.1,1.6-0.4,2.4
		c-0.2,0.3-0.6,0.3-0.9,0.2c-0.9-0.4-1.6-1-1.7-2c-0.1-1,0.1-1.9,0.7-2.7C37.9,19.7,38.1,19.7,38.3,19.7z"/>
	<path class="st0" d="M22.5,36.3c0.3-0.6,0.7-0.6,1.3-0.3c0.8,0.6,1.4,1.3,1.6,2.3S25,39.8,24,39.6c-0.7-0.2-1.2-0.7-1.5-1.4
		C22.5,37.6,22.5,37,22.5,36.3z"/>
	<path class="st0" d="M48.3,47.2c-0.2,2.4-1.2,3.5-3.3,3.5c-0.8,0-1.6,0.1-2.3,0.1c-1.7,0.1-3.3,0.7-4.6,1.7c-0.7,0.5-1.3,1-2.1,1.4
		c-0.7,0.4-1.4,0.5-2.3,0.2c-1-0.4-1.6-1.2-1.5-2.3c0.1-1.3,0.6-2.5,1.5-3.4c1.1-1.1,1.4-2.3,1.5-3.7c0.1-3,2.4-3.9,4.8-3.8
		c0.6,0,1.1,0.3,1.5,0.8c1.3,1.8,3.1,2.8,5.2,3.6C47.7,45.5,48.3,46.2,48.3,47.2z"/>
	<path class="st0" d="M44,31.1c-0.2,1.9-0.7,3.8-1.9,5.4s-2.7,1.6-4,0c-1.8-2.2-2.4-4.8-2.1-7.5c0.2-1.8,1.3-3.1,2.9-3.5
		c1.4-0.3,2.8,0.3,3.8,1.8C43.5,28.5,43.9,29.7,44,31.1z"/>
	<path class="st0" d="M32.3,39.6c-2.3-0.1-5.8-2.5-6.7-4.7c-0.8-2,0.3-5,2.1-6.1c0.9-0.6,1.8-0.5,2.7,0c1.1,0.6,1.8,1.6,2.1,2.8
		c0.2,0.8,0.6,1.6,1,2.3c0.5,0.9,1,1.9,1.1,3C34.9,38.6,34,39.6,32.3,39.6z"/>
	<path class="st0" d="M51.5,37.8c-0.1,1.5-0.4,2.9-1.1,4.2c-0.5,1-1.4,1.5-2.5,1.5c-1.2,0-2-0.5-2.6-1.6c-1.2-2.3-0.6-5.8,1.3-7.6
		c1.2-1.1,2.5-1.1,3.4,0.2C50.7,35.4,51.7,36.4,51.5,37.8z"/>
	<path class="st0" d="M24.7,44c0-1.1,0.2-2.2,0.7-3.2c0.7-1.2,1.6-1.5,2.8-0.7c1.6,1,2.7,2.6,3.7,4.2c0.6,1-0.3,4.1-1.2,4.9
		c-0.5,0.4-1.1,0.4-1.6,0.3C26.6,48.9,24.7,46.5,24.7,44z"/>
	<path class="st0" d="M25.6,26c0.1-0.6,0.1-1.4,0.7-1.6c0.7-0.2,1,0.5,1.4,0.9s0.6,0.9,0.7,1.4c0.2,0.8-0.2,1.5-1.1,1.8
		c-0.8,0.3-1.1-0.2-1.4-0.8C25.8,27.1,25.5,26.6,25.6,26z"/>
	<path class="st0" d="M46.8,31.1c0-0.8,0.2-1.5,0.6-2.2c0.1-0.2,0.2-0.5,0.5-0.5c0.4,0,0.5,0.3,0.6,0.5c0.3,0.7,0.6,1.4,0.8,2.1
		c0.3,0.9-0.3,1.9-1.2,2c-0.5,0.1-1.2-0.6-1.3-1.5C46.8,31.4,46.8,31.2,46.8,31.1z"/>
</g>
</svg>
