<svg id="Layer_1" data-name="Layer 1" xmlns="http://www.w3.org/2000/svg" viewBox="0 0 74 74"><defs><style>.cls-1,.cls-3{fill:none;stroke:#006faf;stroke-miterlimit:10;}.cls-1{stroke-width:2px;}.cls-2{fill:#006faf;}.cls-3{font-size:12px;font-family:MyriadPro-Regular, Myriad Pro;}</style></defs><title>Transact-SQL</title><circle class="cls-1" cx="37" cy="37" r="36"/><path class="cls-2" d="M32.6,36.6V32.4h6.8v4.1A2.82,2.82,0,0,0,37.6,39a2.6,2.6,0,0,0,5.2,0,2.59,2.59,0,0,0-1.7-2.4V32.4h.1V30.6H36.7V27.4a2.58,2.58,0,0,0,1.8-2.5,2.6,2.6,0,1,0-5.2,0A2.59,2.59,0,0,0,35,27.3v3.2H30.8v5.9a2.72,2.72,0,0,0-1.7,2.5,2.6,2.6,0,1,0,5.2,0A2.68,2.68,0,0,0,32.6,36.6Zm-.1,2.5a.79.79,0,0,1-.8.8.86.86,0,0,1-.8-.8.8.8,0,0,1,1.6,0Zm8.6-.1a.8.8,0,1,1-1.6,0,.86.86,0,0,1,.8-.8A.79.79,0,0,1,41.1,39ZM35.9,25.8a.79.79,0,0,1-.8-.8.86.86,0,0,1,.8-.8.8.8,0,0,1,0,1.6Z"/><path class="cls-2" d="M26.9,19.8a9.88,9.88,0,0,1,1.5-.9l.3,1,2.8-3.3-4.2-.8.5,1.4a12.23,12.23,0,0,0-1.9,1.2,16.71,16.71,0,0,0-5.4,20.5l.1.3,1.4-1-.1-.2A15.14,15.14,0,0,1,26.9,19.8Z"/><path class="cls-2" d="M35,17A14.92,14.92,0,0,1,50,36.1l-1-.3.9,4.2,3.2-2.8-1.4-.5a16.62,16.62,0,0,0-17-21.4h-.3l.4,1.7Z"/><path class="cls-2" d="M45.4,45.6A28.48,28.48,0,0,0,48,43.3l.2-.2-1.5-.9-.1.1a13,13,0,0,1-2.2,1.9,14.87,14.87,0,0,1-18.2-.6l.9-1.1-4.2-.8,1.4,4.1L25,45A17,17,0,0,0,45.4,45.6Z"/><text class="cls-3" transform="translate(27 60.13)">SQL</text></svg>