<?xml version="1.0" encoding="utf-8"?>
<!-- Generator: Adobe Illustrator 21.0.2, SVG Export Plug-In . SVG Version: 6.00 Build 0)  -->
<svg version="1.1" id="Layer_1" xmlns="http://www.w3.org/2000/svg" xmlns:xlink="http://www.w3.org/1999/xlink" x="0px" y="0px"
	 viewBox="0 0 74 74" style="enable-background:new 0 0 74 74;" xml:space="preserve">
<style type="text/css">
	.st0{fill:none;stroke:#006FAF;stroke-width:2;stroke-miterlimit:10;}
	.st1{fill:#006FAF;}
</style>
<title>Cloud &amp;amp; Infrastructure Services</title>
<circle class="st0" cx="37" cy="37" r="36"/>
<g>
	<path class="st1" d="M24.2,45.1c-0.3,0-0.4-0.1-0.5-0.3l0-0.1l0,0c0-0.1-0.1-0.2-0.2-0.3c0-0.1-0.1-0.3-0.2-0.4
		c0-0.1,0-0.1-0.1-0.2l0-0.1c-0.1-0.4-0.3-0.7-0.3-1.1l-0.1-0.9c0,0,0-0.2-0.1-0.3l-0.1-0.2l-0.2,0c-0.2,0-0.3,0.1-0.3,0.2
		c-0.1,0.1-0.2,0.1-0.3,0.2h-0.1l-0.1,0.1c-0.2,0.2-0.4,0.3-0.6,0.5c-0.2,0.2-0.5,0.4-0.7,0.6c0,0,0,0,0,0c0.1-0.2,0.1-0.3,0.2-0.5
		c0,0,0.1-0.2,0.1-0.4l0.1-0.1l0.1-0.2c0-0.1,0.1-0.2,0.1-0.3c0-0.1,0.1-0.2,0.1-0.3l0-0.1l0-0.1c0,0,0.1-0.1,0.1-0.2
		c0.1-0.1,0.1-0.3,0.2-0.5l0.1-0.1c0.2-0.3,0.3-0.7,0.5-1.2l0-0.1c0-0.1,0.1-0.2,0.1-0.3c0.1-0.2,0.2-0.4,0.3-0.6
		c0.1-0.1,0.1-0.3,0.2-0.4c0.1-0.2,0-0.4-0.1-0.5L22,36.9c0-0.1-0.1-0.2-0.2-0.3l-0.1-0.2l-0.5-0.9c0,0,0-0.1,0-0.1
		c0-0.1-0.1-0.2-0.1-0.3l0-0.1c-0.1-0.8-0.1-1.7,0-2.5l0-0.8c0-0.3,0-0.6,0.1-0.9l0.2-0.1l1-0.7c0.1,0,0.1-0.1,0.2-0.1
		c0.1-0.1,0.3-0.1,0.4-0.3l0.2-0.1c0.2-0.1,0.5-0.2,0.7-0.4c0.2,0,0.2-0.2,0.3-0.2c0.1-0.1,0.2-0.3,0.2-0.4c0.1-0.1,0.1-0.2,0.1-0.3
		l0.1-0.1l0,0c0-0.1,0.1-0.2,0.1-0.3l0.3-0.6c0.1-0.1,0.2-0.3,0.3-0.5c0.1-0.1,0.2-0.2,0.2-0.4c0.1-0.1,0.2-0.3,0.3-0.4l1.1-1.6
		l0.5-0.6c0.2-0.1,0.3-0.3,0.4-0.4l0,0l0.1-0.1c0.1-0.1,0.3-0.2,0.4-0.4l0.1-0.1c0.1-0.1,0.3-0.2,0.4-0.4c0.3-0.2,0.5-0.4,0.7-0.6
		l0.9-0.6l0.3-0.2c0.1,0,0.1-0.1,0.2-0.1l0.4-0.2c0.1,0,0.3-0.1,0.5-0.3l0.7-0.3l0.8-0.3l0.6-0.2c0,0,0,0,0,0c0,0,0.1,0,0.1,0
		c0.2,0,0.3-0.1,0.4-0.1c0.1,0,0.1,0,0.2,0c0,0,0,0,0,0c0,0,0.1,0,0.2,0c0.1,0,0.1,0,0.2,0c0.2,0,0.4-0.1,0.6-0.1c0.1,0,0.2,0,0.2,0
		c0.2,0,0.4-0.1,0.6-0.1l0.1,0l0,0c0.1,0,0.1,0,0.2,0c0.1,0,0.1,0,0.2,0c0.1,0,0.1,0,0.2,0l0.1,0c0,0,0.1,0,0.1,0c0,0,0.1,0,0.1,0
		c0.1,0,0.2,0,0.2,0c0,0,0.1,0,0.2,0l0.4,0c0.1,0,0.2,0,0.3,0l0,0l0.1,0c0.3,0.1,0.6,0.1,1,0.2c0.1,0,0.4,0.1,0.4,0.1
		c0,0,0.1,0,0.1,0c0.1,0.1,0.2,0.1,0.3,0.1c0.1,0,0.1,0,0.2,0l0.1,0c0.2,0,0.4,0.1,0.6,0.1l0.1,0.1l0.3,0.1l0,0l0.2,0l1,0.3
		c0.1,0.1,0.3,0.1,0.5,0.2c0.2,0.1,0.5,0.3,0.8,0.4l0.1,0.1l0.6,0.3c0,0,0.1,0.1,0.2,0.1c0.1,0.1,0.2,0.1,0.3,0.2
		c0.1,0.1,0.2,0.2,0.3,0.2l1,0.7l0.5,0.4l0.5,0.4c0.1,0.1,0.1,0.2,0.2,0.2l0.1,0.1l0.2,0.2c0,0,0.1,0.1,0.2,0.2l0.4,0.4l0.5,0.7
		l0.6,0.9c0,0,0.1,0.1,0.1,0.2c0.1,0.1,0.1,0.3,0.2,0.4c0.1,0.2,0.1,0.3,0.3,0.4l0.7,1.5c0,0.1,0.1,0.2,0.2,0.4
		c0,0.2,0.1,0.4,0.2,0.6c0.2,0.2,0.4,0.3,0.5,0.4l0.1,0.1c0.1,0.1,0.1,0.1,0.2,0.1c0.2,0.1,0.4,0.3,0.6,0.4l0.2,0.1l0.3,0.2
		c0.1,0.1,0.2,0.2,0.3,0.3l0.1,0.1l0,0.9c0,0.6,0,1.2,0,1.8c0,0.5,0,1.2-0.2,1.8l-0.1,0.3l-0.6,1.1l-0.4,0.5l-0.1,0.1
		c-0.2,0.2-0.2,0.5-0.2,0.6c0,0-0.1,0.3-0.1,0.4c-0.1,0.3,0.2,0.9,0.3,1c0,0.1,0,0.2,0,0.4l-0.1,1.3c-0.1,0.1-0.1,0.7-0.1,0.8
		c0,0-0.1,0.7-0.2,0.8c0,0-0.3,0.8-0.3,0.9l-0.3,0.5c0,0.1-0.1,0.1-0.1,0.2c-0.1,0.2-0.2,0.4-0.3,0.6c0,0-0.2,0-0.2,0l-1.2,0
		c-0.3,0-0.6,0-0.9,0c0,0,0,0,0,0c-0.3,0-0.6,0-0.9-0.1c-0.2,0-0.4-0.1-0.7-0.1c-0.2-0.1-0.4-0.1-0.5-0.1c-0.1,0-0.2-0.1-0.4-0.1
		c-0.2-0.1-0.4-0.1-0.6-0.1c-0.5-0.1-1-0.2-1.4-0.2c-0.1-0.1-0.3-0.1-0.3-0.1c-0.3-0.1-0.6-0.1-0.9-0.1c-0.3-0.1-0.7-0.1-1.1-0.2
		l-0.3,0L42,44c-0.1,0-0.2,0-0.3,0c-0.1,0-0.3-0.1-0.4-0.1l0,0l-0.2,0c-0.3-0.1-0.6-0.1-0.9-0.1c-0.1,0-0.2-0.1-0.4-0.1
		c0,0,0-0.1,0-0.1c0-0.1-0.1-0.2-0.2-0.3c-0.2-0.6-0.5-1.1-0.8-1.7c0,0,0-0.1-0.1-0.2c-0.1-0.3-0.3-0.5-0.6-0.5c0,0-0.3,0-0.3,0
		c0,0-0.4,0-0.4,0c-0.3,0-0.4,0.1-0.5,0.3c-0.1,0.3-0.3,0.6-0.4,0.9l-0.2,0.4l-0.6,1.1l-0.1,0c-0.5,0.1-1.1,0.2-1.6,0.3c0,0,0,0,0,0
		c-0.1,0-0.2,0-0.3,0.1c-0.4,0-0.8,0.1-1.1,0.2c-0.3,0-0.6,0.1-0.9,0.2c0,0,0,0,0,0c-0.1,0-0.2,0-0.3,0.1c0,0,0,0,0,0
		c-0.1,0-0.3,0-0.5,0.1c-0.1,0-0.2,0-0.3,0.1c-0.5,0.1-1,0.1-1.4,0.2c0,0,0,0,0,0c-0.1,0-0.1,0-0.2,0c-0.2,0-0.4,0-0.7,0.1
		c0,0,0,0-0.1,0c-0.1,0-0.1,0-0.2,0c-0.2,0-0.4,0.1-0.6,0.1l-0.2,0c-0.2,0-0.3,0-0.5,0l-1.3,0c-0.3,0-0.5,0-0.8,0L24.2,45.1z
		 M46.9,42.6c0.2,0.1,0.5,0.1,0.7,0.1l0.4,0.1c0.3,0.1,0.6,0.1,0.9,0.2c0.1,0,0.1,0,0.2,0c0.1,0,0.5,0,0.5-0.5c0-0.1,0-0.2,0-0.2
		l0-0.1c0.1-0.3,0.2-0.7,0.2-1c0.1-0.1,0.1-0.3,0.1-0.5c0.1-0.3,0.1-0.6,0.2-1c0.1-0.3,0.2-0.7,0.2-0.9c0.1-0.1,0.1-0.7,0.1-0.8
		c-0.1-0.2-0.2-0.3-0.3-0.3c-0.1,0-0.4-0.1-0.4-0.1c-0.1-0.1-0.3-0.1-0.5-0.2c-0.2-0.1-1.3-0.4-1.4-0.5c-0.3-0.1-0.6-0.2-1-0.3
		c0,0-0.4-0.1-0.5-0.1c-0.4-0.1-0.9-0.2-1.3-0.3c-0.1,0-0.2-0.1-0.4-0.1c-0.1,0-0.2,0-0.3-0.1c-0.1,0-0.1-0.1-0.2-0.1l-0.1,0
		c-0.1,0-0.2-0.1-0.3-0.1c-0.1,0-0.2,0-0.2,0c-0.3,0.1-1.1,0.5-1.1,0.5c-0.1,0-0.3,0.1-0.4,0.2c-0.1,0-0.3,0.1-0.5,0.2L40.9,37
		L40,37.3l-0.3,0.1c-0.1,0-0.2,0.1-0.3,0.1c-0.2,0-0.3,0.1-0.5,0.2c-0.1,0-0.2,0.1-0.3,0.1c0,0,0-0.1,0.1-0.1
		c0.5-0.5,0.9-1.1,1.4-1.6c0.1-0.1,0.2-0.3,0.1-0.5l-0.1-0.2l-0.2,0l-0.1,0c0,0-0.1,0-0.1,0c-0.7,0-1.4-0.1-2.1-0.1
		c-0.5,0-0.9,0-1.4,0c-0.1,0-0.2,0-0.3,0.1c-0.3,0.1-0.7,0.3-1.1,0.5c-0.2,0.1-0.5,0.2-0.7,0.3c-0.1,0-0.1,0-0.2,0.1
		c-0.4,0.2-0.8,0.4-1.1,0.5c-0.2,0.1-0.4,0.2-0.6,0.3c-0.1,0-0.2,0.1-0.2,0.1c-0.1,0.1-0.3,0.1-0.4,0.2c0.1-0.2,0.2-0.3,0.3-0.5
		l0-0.1c0.1-0.1,0.2-0.2,0.3-0.3c0.1-0.1,0.2-0.2,0.2-0.3l0.1,0l0,0l0.1-0.1l0-0.1c0-0.1-0.1-0.1-0.2-0.2l-0.1,0l-0.2,0
		c-0.1,0-0.2,0-0.3,0.1l-0.1,0c-0.1,0-0.2,0-0.3,0l0,0c-0.1,0-0.2,0-0.3,0.1c-0.2,0-0.4,0.1-0.6,0.2c-0.1,0-0.2,0-0.3,0.1h-0.1
		L30,36.4c-0.4,0.2-0.8,0.3-1.1,0.5c-0.2,0.1-0.4,0.2-0.7,0.3c-0.1,0-0.2,0.1-0.2,0.1c-0.4,0.2-0.8,0.4-1.1,0.6l-0.1,0
		c-0.1,0-0.2,0.1-0.3,0.2c-0.1,0-0.1,0.1-0.1,0.1c-0.2,0.1-0.5,0.3-0.7,0.4c-0.1,0-0.1,0-0.2,0.1c-0.2,0.1-0.4,0.2-0.4,0.6l0.1,0.3
		c0,0.2,0.1,0.4,0.1,0.6c0,0.1,0,0.2,0.1,0.3c0,0.2,0,0.4,0.1,0.5c0.1,0.5,0.1,0.8,0.2,1.2c0,0.1,0,0.2,0,0.3c0,0.1,0,0.2,0.1,0.3
		l0.1,0.1l0.2,0c0.2,0,0.2,0,0.3,0c0.5-0.1,0.9-0.1,1.2-0.2c0,0,0,0,0,0c0.1,0,0.2,0,0.2,0c0.2,0,0.4,0,0.6-0.1l0.1,0
		c0.1,0,0.2,0,0.3,0c0.5-0.1,1-0.1,1.5-0.3c0.2,0,0.6-0.1,0.9-0.2c0,0,0,0,0.1,0c0.1,0,0.2,0,0.3-0.1c0.2,0,0.5,0,0.8-0.1
		c0,0,0,0,0,0c0.1,0,0.3,0,0.6-0.1c0.2,0,0.4,0,0.6-0.1l0,0c0.3,0,0.4-0.2,0.5-0.4c0.2-0.4,0.4-0.8,0.6-1.1l0.1-0.1
		c0,0,0.1-0.2,0.2-0.4c0,0,0,0,0,0c0,0,0.1-0.1,0.1-0.1c0.1-0.2,0.2-0.4,0.3-0.6c0,0,0.1-0.1,0.1-0.2l0.5,0l1.3,0v0.2l0.4-0.2l2,0
		c0.2,0.5,0.5,1.1,0.9,1.7c0,0,0.1,0.2,0.1,0.3l0,0.1c0.1,0.2,0.2,0.4,0.3,0.5c0.1,0.3,0.4,0.4,0.5,0.4h0c0.1,0,0.2,0,0.3,0
		c0.4,0.1,0.8,0.2,1.4,0.2l0.1,0c0.2,0.1,0.5,0.1,0.8,0.1l0.1,0l1.4,0.3c0,0,0.1,0,0.2,0c0,0,0.4,0.1,0.7,0.1
		C46.7,42.5,46.8,42.6,46.9,42.6L46.9,42.6z M23.4,34.6c0,0.3,0.1,0.5,0.3,0.7c0,0.1,0.1,0.4,0.4,0.4c0.1,0,0.2,0,0.3-0.1l1.2-0.4
		c0.1,0,0.2,0,0.2-0.1l1.2-0.4c0.1,0,0.2,0,0.2-0.1l1.5-0.4c0.2,0,0.4-0.1,0.6-0.2c0,0,0,0,0,0c0.1,0,0.3,0,0.4-0.1
		c0.4,0,0.8-0.1,1.3-0.2c0.3,0,0.6-0.1,0.9-0.2c0,0,0,0,0.1,0c0.1,0,0.2,0,0.3-0.1l1.9-0.2l0.1,0l0,0l0,0c0.1,0,0.2,0,0.4-0.1
		c0,0,0.1,0,0.1,0c0.2,0,0.4,0,0.6-0.1l0.4,0c0.2,0,0.4,0,0.6,0l0.6,0l1.5,0c0.2,0,0.5,0,0.8,0l0.2,0l1,0.1c0.1,0,0.3,0.1,0.5,0.1
		l0.1,0l0.1,0c0,0,0.1,0,0.1,0l2.2,0.3c0.1,0.1,0.3,0.1,0.4,0.1c0.2,0.1,0.5,0.1,0.8,0.1c0.1,0,0.2,0.1,0.3,0.1
		c0.3,0.1,0.6,0.1,0.9,0.2l0.2,0c0,0,0.1,0.1,0.3,0.1l1.2,0.3c0.1,0.1,0.3,0.1,0.4,0.1l0.6,0.2c0.1,0.1,0.3,0.1,0.5,0.1
		c0.1,0.1,0.2,0.1,0.3,0.1c0.2,0.1,0.4,0.1,0.6,0.2l0.9,0.3c0.1,0.1,0.2,0.1,0.3,0.1c0.2,0,0.3-0.2,0.4-0.2c0,0,0.2-0.2,0.2-0.3
		c0.2-0.4,0.2-0.9,0.2-1.3l0-0.2l0-1c0-0.2,0-0.3-0.1-0.5c-0.1-0.2-0.3-0.2-0.4-0.3c-0.1,0-0.1-0.1-0.2-0.1
		c-0.2-0.1-0.4-0.3-0.7-0.4c0,0-0.1-0.1-0.3-0.1C50.2,31,50.1,31,50,30.9c-0.1-0.1-0.2-0.1-0.3-0.1c-0.4-0.2-0.9-0.4-1.5-0.5
		c-0.3-0.1-0.6-0.2-0.9-0.2c-0.4-0.1-0.8-0.2-1.2-0.2c-0.1,0-0.3-0.1-0.4-0.1l-0.1,0c-0.1,0-0.4-0.1-0.6-0.1c0,0,0,0,0,0l0-1.1
		c0-0.1,0-0.3,0-0.4c0-0.2,0-0.3,0-0.4c0-0.1,0-0.1,0-0.2c0.2,0,0.3,0,0.5,0l0.2,0l1.7,0.2l0.2,0l1.4,0.3l-0.4-0.7
		c-0.1-0.2-0.2-0.4-0.4-0.6c-0.1-0.2-0.2-0.3-0.4-0.5c-0.7-0.9-1.5-1.8-2.5-2.5c-0.1-0.1-0.3-0.3-0.5-0.4c-0.1-0.1-0.2-0.2-0.3-0.2
		c-0.2-0.1-0.4-0.2-0.5-0.3c-0.4-0.2-0.9-0.5-1.4-0.6c-0.1-0.1-0.3-0.2-0.6-0.2c-0.2-0.1-0.5-0.2-0.8-0.2c-0.1-0.1-0.2-0.1-0.4-0.1
		c-0.1,0-0.3-0.1-0.5-0.1c-0.2-0.1-0.4-0.1-0.5-0.1l-0.1,0c-0.3-0.1-0.7-0.1-1-0.1l-0.1,0c-0.2,0-0.3-0.1-0.5-0.1l-0.4,0
		c-0.1,0-0.2,0-0.3,0c-0.1,0-0.2,0-0.3,0l-0.2,0c-0.1,0-0.3,0-0.5,0.1l-0.1,0l-0.1,0l-0.2,0c-0.3,0-0.6,0.1-0.9,0.2
		c-0.4,0.1-0.8,0.2-1.1,0.3c0,0,0,0,0,0c-0.1,0-0.2,0.1-0.3,0.1c-0.4,0.1-0.8,0.3-1.2,0.5c-0.1,0-0.3,0.1-0.4,0.2
		c-0.2,0.1-0.3,0.2-0.5,0.3c0,0-0.2,0.1-0.3,0.2c-0.1,0-0.1,0.1-0.2,0.1c-0.2,0.1-0.4,0.3-0.7,0.5c-0.7,0.5-1.3,1.2-1.9,1.9
		c-0.1,0.2-0.3,0.4-0.4,0.6c-0.2,0.3-0.4,0.6-0.6,1L27,28l1.1-0.3l0.6-0.1l0.8-0.1l0.1,0c0.2,0,0.4,0,0.6,0c0,0.1,0,0.1,0,0.2
		c0,0.2,0,0.3,0,0.5l0,0.1l0,0.4l0,1.2h-0.1c-0.2,0-0.4,0-0.6,0.1c-0.3,0-0.6,0-0.9,0.1c-0.4,0-0.8,0.1-1.2,0.2
		c-0.2,0-0.4,0.1-0.6,0.2c-0.2,0-0.4,0.1-0.6,0.2c-0.1,0-0.4,0.1-0.6,0.2c-0.1,0-0.2,0.1-0.3,0.1c-0.2,0.1-0.4,0.1-0.5,0.2
		c-0.1,0-0.2,0.1-0.3,0.1c-0.1,0-0.2,0.1-0.3,0.2c-0.2,0.1-0.5,0.2-0.8,0.4c-0.1,0.1-0.3,0.2-0.3,0.5c0,0.6,0,1.3,0,1.9
		C23.3,34.3,23.3,34.5,23.4,34.6z"/>
	<path class="st1" d="M37.6,54.9c-0.1,0-0.4,0-0.5,0c-0.1,0-0.2,0-0.2,0l-0.8-0.1c0,0-1.2-0.2-1.2-0.2s-1.7-0.4-2.9-0.8l-1-0.4
		l-0.3-0.1l-0.2-0.1l-0.7-0.3l-1.1-0.7l-0.6-0.5c-0.1-0.1-0.2-0.2-0.3-0.3c-0.1-0.1-0.2-0.2-0.3-0.2l-0.4-0.4l-0.4-0.4
		c0-0.1-0.1-0.1-0.2-0.2c-0.1-0.1-0.2-0.2-0.2-0.3l-0.2-0.2c-0.1-0.2-0.2-0.3-0.4-0.5c-0.1-0.2-0.3-0.4-0.4-0.6
		c-0.2-0.3-0.5-0.7-0.8-1c0-0.1-0.1-0.1-0.1-0.2c-0.1-0.1-0.1-0.2-0.3-0.3c0,0-0.1-0.1-0.1-0.1l5.2,0c0.1,0,0.1,0,0.2,0
		c0.3,0,0.6,0,0.9-0.1c0.2,0,0.3,0,0.4-0.1c0.3,0,0.7-0.1,1.1-0.3c0.1,0,0.2,0,0.4-0.1c0.2,0,0.6-0.2,1-0.3c0,0,0,0,0,0
		c0.1,0,0.2-0.1,0.4-0.1c0.3-0.1,0.6-0.2,1-0.3c0.1,0,0.1,0,0.2,0c0.1,0,0.2,0,0.3,0c0,0,0.1,0,0.2,0c0.1,0,0.2,0,0.3,0
		c0,0,0.1,0,0.2,0c0.1,0,0.2,0,0.3,0c0,0,0.1,0,0.2,0c0.1,0,0.2,0,0.3,0c0,0,0.1,0,0.2,0c0.1,0,0.2,0,0.3,0c0,0,0.1,0,0.2,0
		c0.1,0,0.2,0,0.3,0l0.3,0v0l0,0l0.1,0c0.1,0,0.2,0,0.3,0c0.1,0,0.2,0,0.3,0c0,0,0.1,0,0.2,0c0.1,0,0.2,0,0.3,0c0,0,0.1,0,0.2,0
		c0.1,0,0.2,0,0.3,0c0,0,0.1,0,0.2,0c0.1,0,0.2,0,0.3,0c0,0,0.1,0,0.2,0c0.1,0,0.2,0,0.2,0l0.9,0.3c0.1,0,0.3,0.1,0.5,0.2
		c0.1,0.1,0.2,0.1,0.3,0.1c0.2,0.1,0.4,0.1,0.6,0.2c0.2,0.1,0.4,0.2,0.7,0.2c0.1,0.1,0.2,0.1,0.3,0.1c0.3,0.1,0.7,0.2,1.2,0.3
		c0,0,0.2,0.1,0.3,0.1c0.3,0.1,0.6,0.1,0.9,0.1c0,0,4,0,4.8,0c-0.1,0.1-0.1,0.1-0.2,0.2c-0.1,0-0.1,0.1-0.2,0.2
		c-0.3,0.3-0.6,0.7-0.9,1.1c-0.1,0-0.1,0.1-0.2,0.3c-0.1,0.1-0.1,0.2-0.2,0.2c-0.1,0.1-0.2,0.2-0.2,0.3c-0.1,0-0.1,0.1-0.1,0.2
		c-0.7,0.8-1.4,1.4-2,2l-0.3,0.3l-0.7,0.5c0,0-0.1,0.1-0.2,0.1c-0.2,0.1-0.3,0.2-0.5,0.3l-1,0.5c-0.1,0-0.1,0-0.2,0.1l-0.1,0
		c-0.4,0.1-2.1,0.7-2.1,0.7c-0.1,0-0.3,0.1-0.5,0.1c-0.1,0-0.2,0-0.2,0.1l-1.3,0.3c-0.1,0-0.2,0-0.3,0.1c-0.1,0-0.2,0-0.2,0l-0.1,0
		c-0.1,0-0.2,0-0.3,0.1C38.6,54.9,38.1,54.9,37.6,54.9z M37,52.7c0.2,0,0.4,0,0.7,0c0.3,0,0.7,0,1-0.1l0.2,0c0.2,0,0.3-0.1,0.4-0.2
		l0.1-0.1l-0.1-0.2c0,0-0.2-0.2-0.3-0.2c-0.1-0.1-0.2-0.2-0.4-0.2c0,0-0.1-0.1-0.2-0.1l-0.5-0.4l-0.2,0c-0.1,0-0.2,0-0.3,0.1
		c-0.1,0.1-0.3,0.2-0.4,0.3l-0.6,0.4c-0.1,0-0.2,0.1-0.3,0.3L36,52.4l0.2,0.1c0.1,0.1,0.3,0.1,0.4,0.1C36.7,52.7,36.8,52.7,37,52.7
		L37,52.7z M40.3,50.1c0.1,0.1,0.2,0.2,0.3,0.2c0.1,0.1,0.3,0.2,0.5,0.2c0.1,0.1,0.3,0.1,0.5,0.2c0.1,0.1,0.2,0.1,0.3,0.2
		c0.1,0.1,0.3,0.2,0.6,0.2c0.2,0.1,0.5,0.2,0.8,0.2c0.2,0,0.4,0,0.5-0.1c0.2,0,0.4-0.1,0.6-0.3c0.1,0,0.2-0.1,0.3-0.2
		c0.1,0,0.2-0.1,0.3-0.2c0.3-0.2,0.6-0.4,1-0.7l0.6-0.5l-0.7-0.1l-0.4,0c-0.2-0.1-0.4-0.1-0.5-0.1c-0.1,0-0.2-0.1-0.3-0.1
		c-0.1-0.1-0.3-0.1-0.4-0.1c-0.1,0-0.1,0-0.2,0c-0.1-0.1-0.3-0.1-0.4-0.1l-0.1,0c-0.1-0.1-0.3-0.1-0.3-0.1c-0.5-0.2-0.8-0.3-1.2-0.4
		c-0.1-0.1-0.3-0.1-0.4-0.1l-0.2-0.1c-0.3-0.1-0.7-0.2-1-0.3h-1.9c0,0-3.1,0-3.1,0c-0.2,0-0.4,0.1-0.5,0.1l-1.3,0.4l-0.7,0.2
		l-0.7,0.2c-0.1,0-0.2,0-0.3,0.1l-1.2,0.3l-1.5,0.2l0.8,0.6c0.3,0.2,0.5,0.4,0.8,0.6c0.1,0.1,0.1,0.1,0.2,0.1
		c0.1,0.1,0.2,0.1,0.2,0.1c0.1,0.1,0.1,0.1,0.2,0.1c0.3,0.2,0.6,0.4,1,0.4c0.2,0,0.4-0.1,0.7-0.2c0.2,0,0.4-0.1,0.6-0.2
		c0.1,0,0.2-0.1,0.4-0.2c0.1,0,0.3-0.1,0.4-0.2c0.1,0,0.1,0,0.1-0.1c0.3-0.1,0.5-0.2,0.7-0.4c0.3-0.2,0.6-0.4,0.9-0.6
		c0.1,0,0.2-0.1,0.3-0.2c0.1,0,0.1-0.1,0.2-0.1c0.1-0.1,0.3-0.2,0.4-0.3l0.9-0.6l1.3,0.9c0.1,0.1,0.3,0.2,0.5,0.4
		c0,0,0.1,0.1,0.2,0.2C39.9,49.9,40.1,50,40.3,50.1z"/>
	<g>
		<path class="st1" d="M38.8,31.4c0.2,0,0.4-0.2,0.4-0.4c0,0,0,0,0,0c0-0.5,0-1,0-1.5c0-0.5,0-1,0-1.5c0-0.3,0-0.5,0-0.8
			c0.1-0.1,0.1,0,0.2,0c0.3,0,0.7,0,1,0c0.1,0,0.2,0,0.2-0.2c0-0.2,0-0.3,0-0.5c0-0.2,0-0.3,0-0.5c0-0.2,0-0.3,0-0.5
			c0-0.2,0-0.3,0-0.5c0-0.2,0-0.3,0-0.5c0-0.1,0-0.2-0.2-0.2c-1.8,0-3.6,0-5.4,0c0,0,0,0,0,0c0,0,0,0.1,0,0.1c0,0.2,0,0.3,0,0.5
			c0,0.2,0,0.3,0,0.5c0,0.2,0,0.3,0,0.5c0,0.2,0,0.3,0,0.5c0,0.2,0,0.3,0,0.5c0,0,0,0.1,0,0.1c0.4,0,0.7,0,1.1,0
			c0.3,0,0.3,0,0.3,0.4c0,0.3,0,0.7,0,1c0,0.2,0,0.3,0,0.5c0,0.2,0,0.3,0,0.5c0,0.2,0,0.3,0,0.5c0,0.2,0,0.3,0,0.5
			c0,0.2,0,0.3,0,0.5c0,0,0,0,0,0c0,0.2,0.2,0.4,0.4,0.4c0,0,0,0,0,0c0.2,0,0.3,0,0.5,0c0,0,0,0,0,0c0.2-0.1,0.3-0.1,0.5,0
			c0,0,0,0,0,0c0.2-0.1,0.3-0.1,0.5,0c0,0,0,0,0,0C38.4,31.3,38.6,31.3,38.8,31.4C38.7,31.4,38.7,31.4,38.8,31.4
			C38.7,31.4,38.7,31.4,38.8,31.4z"/>
		<path class="st1" d="M43.8,41.2c0.1-0.1,0.2-0.1,0.3-0.2l0,0c0,0,0,0,0,0c0,0,0.1-0.1,0.1-0.1c0.1-0.1,0.3-0.3,0.4-0.4
			c0.2-0.4,0.2-0.8,0.1-1.1c0-0.1-0.1-0.1-0.1-0.2c-0.2-0.3-0.4-0.5-0.7-0.6c-0.4-0.1-0.8-0.1-1.2,0.1c0,0,0,0,0,0
			c-0.1,0.1-0.2,0.1-0.3,0.2c0,0.1-0.1,0.1-0.1,0.2c0,0-0.1,0.1-0.1,0.1c-0.1,0.1-0.1,0.2-0.2,0.4c0,0.2-0.1,0.4,0,0.6
			c0,0.1,0.1,0.2,0.1,0.3c0.1,0.1,0.1,0.2,0.2,0.3c0.1,0.1,0.1,0.1,0.2,0.2c0,0,0.4,0.2,0.4,0.2c0.1,0,0.3,0.1,0.4,0.1
			C43.4,41.2,43.6,41.2,43.8,41.2z"/>
		<path class="st1" d="M32.8,38.6c-0.4-0.2-0.8-0.1-1.2,0c0,0,0,0-0.1,0c-0.1,0-0.1,0.1-0.2,0.1h0c-0.1,0.1-0.2,0.2-0.3,0.4
			c0,0.1-0.1,0.2-0.1,0.3c-0.1,0.4-0.1,0.7,0.1,1.1c0.2,0.5,0.6,0.7,1,0.8c0.1,0,0.2,0,0.3,0c0.2-0.1,0.4-0.1,0.5-0.2
			c0.1-0.1,0.3-0.2,0.4-0.3c0,0,0,0,0,0c0-0.1,0.1-0.2,0.2-0.3c0,0,0,0,0,0c0.1-0.3,0.2-0.5,0.1-0.8c-0.1-0.2-0.1-0.4-0.3-0.6
			C33.1,38.9,33,38.7,32.8,38.6C32.8,38.6,32.8,38.6,32.8,38.6C32.8,38.6,32.8,38.6,32.8,38.6C32.8,38.6,32.8,38.6,32.8,38.6z"/>
	</g>
</g>
</svg>
