<?xml version="1.0" encoding="utf-8"?>
<!-- Generator: Adobe Illustrator 21.0.2, SVG Export Plug-In . SVG Version: 6.00 Build 0)  -->
<svg version="1.1" id="Layer_1" xmlns="http://www.w3.org/2000/svg" xmlns:xlink="http://www.w3.org/1999/xlink" x="0px" y="0px"
	 viewBox="0 0 74 74" style="enable-background:new 0 0 74 74;" xml:space="preserve">
<style type="text/css">
	.st0{fill:none;stroke:#006FAF;stroke-width:2;stroke-miterlimit:10;}
	.st1{fill:#006FAF;}
</style>
<title>Cloud &amp;amp; Infrastructure Services</title>
<circle class="st0" cx="37" cy="37" r="36"/>
<g>
	<path class="st1" d="M32.9,35.8c-1,0-1.9,0-2.9,0c0.6-1.3,1.2-2.6,1.8-3.9c-0.8-0.1-1.5,0-2.2,0.6C28,34,26.1,35,23.9,35.6
		c-0.7,0.2-1.1,0.6-1.2,1.3c0.6,0,1.3,0,2,0c-0.8,1.4-1.5,2.8-1.9,4.3c-0.4,1.5-0.5,3.1-0.1,4.7c-4.2-6.4-3.8-16.8,4.2-22.8
		c7.7-5.7,17.6-3.4,22.2,1.9c-1.9-0.9-3.9-1.1-6-0.8c-2,0.3-3.9,0.9-5.9,1.8c0.4,0.2,0.6,0,0.8,0c1.9-0.6,3.9-1,6-0.7
		c3.2,0.5,4.9,3,4.3,6.2c-0.5,2.7-1.8,4.9-3.6,6.9c-3,3.4-6.6,5.9-10.9,7.3c-1.1,0.4-2.3,0.5-3.5,0.3c-2-0.3-3-1.5-2.8-3.5
		c0.2-2,1.1-3.7,1.8-5.5c0.1-0.2,0.3-0.2,0.5-0.2c0.6,0,1.2,0,1.8,0c0.6,0.1,0.9-0.1,1.1-0.7C32.7,36.1,32.8,36,32.9,35.8z"/>
	<path class="st1" d="M25.4,49.1c3.1,1.3,6.2,0.9,9.2-0.2c6.5-2.3,11.6-6.4,15.2-12.4c1.1-1.8,1.9-3.8,1.9-6c0-0.7-0.1-1.4-0.1-2
		c0.6,0.7,0.9,1.5,1.2,2.4c3.8,9.9-2.2,20.8-12.6,22.8c-5.6,1.1-10.6-0.4-14.9-4.3c-0.1,0-0.1-0.1-0.1-0.2
		C25.2,49.2,25.3,49.1,25.4,49.1z"/>
</g>
</svg>
