<?xml version="1.0" encoding="utf-8"?>
<!-- Generator: Adobe Illustrator 21.0.2, SVG Export Plug-In . SVG Version: 6.00 Build 0)  -->
<svg version="1.1" id="Layer_1" xmlns="http://www.w3.org/2000/svg" xmlns:xlink="http://www.w3.org/1999/xlink" x="0px" y="0px"
	 viewBox="0 0 74 74" style="enable-background:new 0 0 74 74;" xml:space="preserve">
<style type="text/css">
	.st0{fill:#006FAF;}
</style>
<title>health-checks</title>
<path class="st0" d="M37,74C16.6,74,0,57.4,0,37S16.6,0,37,0s37,16.6,37,37S57.4,74,37,74z M37,2C17.7,2,2,17.7,2,37s15.7,35,35,35
	s35-15.7,35-35S56.3,2,37,2z"/>
<g>
</g>
<g>
	<path class="st0" d="M20,41.8v-2c0.7,0.5,1.5,0.8,2.4,0.8c0.6,0,1-0.1,1.4-0.4c0.3-0.2,0.5-0.6,0.5-1c0-0.5-0.2-0.8-0.6-1.1
		c-0.4-0.2-0.9-0.4-1.6-0.4h-1V36H22c1.3,0,2-0.4,2-1.3c0-0.8-0.5-1.3-1.5-1.3c-0.7,0-1.4,0.2-2,0.7v-1.9c0.7-0.4,1.6-0.5,2.5-0.5
		c1.1,0,1.9,0.2,2.5,0.7s0.9,1.1,0.9,1.8c0,1.3-0.7,2.2-2,2.5l0,0c0.7,0.1,1.3,0.4,1.7,0.8c0.4,0.4,0.6,1,0.6,1.6
		c0,1-0.4,1.7-1.1,2.3s-1.7,0.8-2.9,0.8C21.5,42.3,20.7,42.1,20,41.8z"/>
	<path class="st0" d="M28.8,42.1V31.9h3.6c3.7,0,5.5,1.7,5.5,5c0,1.6-0.5,2.9-1.5,3.8c-1,1-2.3,1.4-4,1.4
		C32.4,42.1,28.8,42.1,28.8,42.1z M31.1,33.7v6.5h1.1c1,0,1.8-0.3,2.4-0.9c0.6-0.6,0.9-1.4,0.9-2.5c0-1-0.3-1.8-0.9-2.3
		c-0.6-0.6-1.4-0.8-2.4-0.8H31.1z"/>
	<path class="st0" d="M45.8,42.1h-6.2V31.9h5.9v1.9h-3.6V36h3.4v1.9h-3.4v2.4h3.9C45.8,40.3,45.8,42.1,45.8,42.1z"/>
	<path class="st0" d="M47,41.7v-2.3c0.4,0.3,0.9,0.6,1.4,0.8s1,0.3,1.5,0.3c0.3,0,0.5,0,0.8-0.1c0.2-0.1,0.4-0.1,0.5-0.2
		c0.1-0.1,0.3-0.2,0.3-0.3c0.1-0.1,0.1-0.3,0.1-0.4c0-0.2-0.1-0.4-0.2-0.5c-0.1-0.2-0.3-0.3-0.5-0.4c-0.2-0.1-0.4-0.3-0.7-0.4
		c-0.3-0.1-0.6-0.3-0.9-0.4c-0.8-0.3-1.4-0.7-1.8-1.2c-0.4-0.5-0.6-1.1-0.6-1.8c0-0.5,0.1-1,0.3-1.4s0.5-0.7,0.9-1
		c0.4-0.2,0.8-0.4,1.3-0.5s1-0.2,1.6-0.2c0.5,0,1,0,1.4,0.1s0.8,0.2,1.1,0.3v2.1c-0.2-0.1-0.4-0.2-0.6-0.3c-0.2-0.1-0.4-0.2-0.6-0.2
		c-0.2-0.1-0.4-0.1-0.6-0.1c-0.2,0-0.4,0-0.6,0c-0.3,0-0.5,0-0.7,0.1s-0.4,0.1-0.5,0.2c-0.1,0.1-0.3,0.2-0.3,0.3s-0.1,0.3-0.1,0.4
		c0,0.2,0,0.3,0.1,0.5c0.1,0.1,0.2,0.3,0.4,0.4c0.2,0.1,0.4,0.2,0.6,0.4c0.2,0.1,0.5,0.2,0.8,0.4c0.4,0.2,0.8,0.4,1.1,0.5
		c0.3,0.2,0.6,0.4,0.8,0.7c0.2,0.2,0.4,0.5,0.5,0.8S54,39,54,39.4c0,0.6-0.1,1.1-0.3,1.4c-0.2,0.4-0.5,0.7-0.9,0.9s-0.8,0.4-1.3,0.5
		s-1,0.2-1.6,0.2s-1.1,0-1.6-0.1C47.8,42.1,47.4,41.9,47,41.7z"/>
</g>
</svg>
