<?xml version="1.0" encoding="utf-8"?>
<!-- Generator: Adobe Illustrator 21.0.2, SVG Export Plug-In . SVG Version: 6.00 Build 0)  -->
<svg version="1.1" id="Layer_1" xmlns="http://www.w3.org/2000/svg" xmlns:xlink="http://www.w3.org/1999/xlink" x="0px" y="0px"
	 viewBox="0 0 74 74" style="enable-background:new 0 0 74 74;" xml:space="preserve">
<style type="text/css">
	.st0{fill:none;stroke:#006FAF;stroke-width:2;stroke-miterlimit:10;}
	.st1{fill:#006FAF;}
</style>
<title>turbogears</title>
<circle class="st0" cx="37" cy="37" r="36"/>
<path class="st1" d="M30.3,51.4l0.3-1.7l-0.3-0.1l-1.1,1.5l-2.2-1.2l0.6-1.8l-0.3-0.2L25.9,49l-1.8-2l1.2-1.4l-0.1-0.2l-1.6,1
	l-1-2.8l1.3-1l-0.1-0.2l-1.6,0.4l-0.4-2.4l1.4-0.8v-0.4L21.8,39v-2.6l1.6-0.4v-0.3l-1.2-0.4l0.6-2.7h1.7l0.1-0.3l-1-0.8l1-2.2
	l1.6,0.3l0.2-0.3l-0.7-1.3l1.5-1.7l1.2,0.7l0.4-0.4l-0.3-1.2l1.8-1.5l1.2,1.1l0.3-0.2l-0.1-1.5l2.5-1l0.7,1.3l0.3-0.2l0.1-1.5
	l2.7-0.3l0.1,1.4h0.2l0.5-1.3h2.4l0.2,1.6h0.3l0.9-1.4l2.5,1l-0.6,1.5l0.3,0.1l1.3-1.1l2.3,1.7l-1.1,1.4l0.8,1.1l-4.4,3.8l-0.4-0.5
	c-1.4-1.6-3.4-2.5-5.5-2.5c-2.1,0.1-4.1,0.8-5.8,2c-1.1,0.9-2,2.1-2.7,3.4c-0.9,2-1,4.3-0.3,6.4c1,2.2,3.2,3.8,5.6,4.1l0.2,0.2v-0.2
	c3.7,0.2,7.2-1.9,8.7-5.3l-4-0.6c-1.3,1.4-3.4,1.4-4.7,0.2c-1.4-1.3-1.4-3.4-0.2-4.7c1.3-1.4,3.4-1.4,4.7-0.2
	c0.4,0.4,0.7,0.8,0.9,1.4l12,1.6l-0.7,3.3h-2l-0.2,0.3l1.5,1.3l-1.4,2.6l-1.8-0.6L47.4,44l1.2,1.5l-2,2.3l-1.7-1.1L44.6,47l0.7,1.8
	l-2.6,1.5L41.5,49l-0.5,0.3l0.2,1.7l-2.5,1l-0.8-1.6l-0.5,0.2l-0.3,1.7h-2.7l-0.2-1.5h-0.7l-0.6,1.5L30.3,51.4z M36,50.9l0.2-1.4
	l2.3-0.8l0.8,1.6l0.5-0.2l-0.2-1.6l2.1-1.2l1.2,1.3l0.7-0.4l-0.6-1.6l1.7-1.6l1.6,1l0.5-0.6L45.7,44l1.3-1.9l1.7,0.6l0.4-0.7
	l-1.4-1.2l0.9-2h1.8l0.2-0.9l-10.3-1.3c0,0.3-0.1,0.6-0.2,0.8l5,0.8L45,38.9c-1.6,4.2-5.7,7-10.2,6.9h-0.2c-3-0.3-5.5-2.2-6.8-4.9
	c-0.8-2.4-0.7-5.1,0.3-7.4c0.7-1.5,1.7-2.8,3-3.8c1.9-1.4,4.2-2.2,6.6-2.3c2.3,0,4.4,0.9,6,2.5l2.5-2.2l-0.7-1l0.9-1.1l-0.4-0.3
	l-1.2,1l-2.1-1.1l0.5-1.4l-0.3-0.1l-0.7,1.2l-2.1-0.3l-0.2-1.4h-0.4l-0.5,1.3h-2.3l-0.1-1.3h-0.3l-0.1,1.1l-2,1.1l-0.8-1.4l-0.5,0.2
	l0.1,1.3l-1.7,1.3l-1.1-1L30.1,26l0.3,1.1l-1.6,1.7l-1.2-0.7l-0.2,0.2l0.6,1.1l-1,1.8l-1.5-0.3l-0.2,0.3l0.9,0.7l-0.6,2H24l-0.1,0.5
	l1.1,0.4L24.6,37l-1.5,0.4v0.4l1.3,0.1l0.1,2.3L23.2,41v0.2l1.4-0.3l0.8,2.2l-1.3,1l0.1,0.4l1.4-0.9l1.1,2.2l-1,1.2l0.2,0.3l1.2-1
	l1.8,1.5l-0.6,1.7l0.2,0.1l1-1.3l2.2,0.8l-0.3,1.7l0.3,0.1l0.5-1.2l2.8,0l0.2,1.5L36,50.9z M37.1,35.4c-0.5,0-0.9,0.4-0.9,0.8
	s0.4,0.9,0.8,0.9c0.5,0,0.9-0.4,0.9-0.8v0C37.9,35.8,37.5,35.4,37.1,35.4z"/>
</svg>
