<svg id="Layer_1" data-name="Layer 1" xmlns="http://www.w3.org/2000/svg" viewBox="0 0 74 74"><defs><style>.cls-1{fill:none;stroke:#006faf;stroke-miterlimit:10;stroke-width:2px;}.cls-2{fill:#006faf;}</style></defs><title>upgrades_and_migrations</title><circle class="cls-1" cx="37" cy="37" r="36"/><path class="cls-2" d="M28.52,44.58c-3.3,0-5.2-1.9-5.2-5.2V27.17a4.74,4.74,0,0,1,4.7-5.1c3.3,0,6.7-.1,10-.1H48a4.89,4.89,0,0,1,4.9,5.1c.1,4.1.1,8.3,0,12.4-.1,3.2-2,5.1-5.3,5.1Zm0-20.6c-2.2.1-3.4,1.2-3.4,3.4,0,4.1,0,7.9-.1,11.8,0,2.5,1.1,3.6,3.6,3.6h18.8a3.06,3.06,0,0,0,3.4-3.4q.15-6,0-12a3.06,3.06,0,0,0-3.4-3.4H28.52Z"/><path class="cls-2" d="M19.63,49.67h-.3a1,1,0,0,1-.8-.8c-.1-.5.2-.8.7-1a5.28,5.28,0,0,1,1.2-.1h36.5a.71.71,0,0,1,.8.8,1.17,1.17,0,0,1-.2.7.73.73,0,0,1-.6.2H20.42C20.33,49.67,19.73,49.67,19.63,49.67Z"/><polygon class="cls-2" points="31.93 32.98 35.92 27.68 40.13 30.38 43.52 27.38 44.23 28.18 40.23 31.77 36.23 29.18 32.73 33.58 31.93 32.98"/><circle class="cls-2" cx="32.02" cy="33.67" r="1.2"/><circle class="cls-2" cx="44.22" cy="27.38" r="1.2"/><circle class="cls-2" cx="40.13" cy="31.08" r="1.2"/><circle class="cls-2" cx="36.13" cy="28.48" r="1.2"/><rect class="cls-2" x="31.02" y="35.97" width="2.1" height="4.7"/><rect class="cls-2" x="39.13" y="33.58" width="2.1" height="7"/><rect class="cls-2" x="43.22" y="30.47" width="2.1" height="10.2"/><rect class="cls-2" x="35.03" y="31.67" width="2.1" height="9"/></svg>