<svg id="Layer_1" data-name="Layer 1" xmlns="http://www.w3.org/2000/svg" viewBox="0 0 74 74"><defs><style>.cls-1{fill:none;stroke:#006faf;stroke-miterlimit:10;stroke-width:2px;}.cls-2{fill:#006faf;}</style></defs><title>very_large_databases</title><circle class="cls-1" cx="37" cy="37" r="36"/><path class="cls-2" d="M38.8,19.26C32.41,19.26,27,20.74,25.18,23c-3.75.92-5.92,2.46-6.34,4a.56.56,0,0,0-.08.28v21.2a.54.54,0,0,0,.07.26c.68,2.8,6.73,4.9,14.26,4.9,6.44,0,11.79-1.54,13.63-3.73,3.64-.89,5.94-2.34,6.35-4a.57.57,0,0,0,.07-.28V24.7C53.13,22.06,48.11,19.26,38.8,19.26ZM46.14,41.8l-.08.17a1.94,1.94,0,0,1-.13.21l-.13.16-.21.22-.15.14-.3.24L45,43l-.41.27-.12.07-.54.28-.08,0-.68.3h0a22.21,22.21,0,0,1-4.9,1.24h0L37,45.4l-.2,0-1.06.1-.51,0-.82,0-1.39,0-1.39,0-.82,0-.51,0-1.06-.1-.2,0-1.16-.15h0A22.21,22.21,0,0,1,23,44h0l-.68-.3-.08,0-.54-.28-.12-.07L21.15,43l-.15-.1-.3-.24-.15-.14-.21-.22-.13-.16a2.14,2.14,0,0,1-.13-.21L20,41.8a1.39,1.39,0,0,1-.07-.21,1.24,1.24,0,0,1,0-.28,1.22,1.22,0,0,1,0-.19.57.57,0,0,0,0-.25V36.61l.05,0c.12.11.25.22.4.32,2.16,1.63,6.47,2.9,12.73,2.9S43.61,38.62,45.77,37a5.83,5.83,0,0,0,.48-.39h0v4.25a.57.57,0,0,0,0,.25,1.22,1.22,0,0,1,0,.19,1.24,1.24,0,0,1,0,.28A1.46,1.46,0,0,1,46.14,41.8ZM20.24,30c.17.14.36.27.56.4l.13.08.53.31.21.11.66.31.11,0c.27.11.55.22.85.33l.25.09.73.23.27.08,1,.26.15,0,1,.2.35.06,1,.15.26,0,1.32.13.34,0,1.11.07.42,0,1.52,0,1.52,0L35,33l1.11-.07.34,0,1.32-.13.26,0,1-.15.35-.06,1-.2.15,0,1-.26.27-.08.73-.23.25-.09c.3-.11.58-.21.85-.33l.11,0,.66-.31.21-.11.53-.31.13-.08c.2-.13.39-.26.56-.4l.12-.1.22-.19V34a.57.57,0,0,0,0,.25,1.22,1.22,0,0,1,0,.19,1.24,1.24,0,0,1,0,.28,1.41,1.41,0,0,1-.07.21l-.08.17a1.94,1.94,0,0,1-.13.21l-.13.16-.21.22-.15.14-.3.24-.15.1-.41.27-.12.07-.54.28-.08,0-.68.3h0a22.21,22.21,0,0,1-4.9,1.24h0L37,38.53l-.2,0-1.06.1-.51,0-.82,0-1.39,0-1.39,0-.82,0-.51,0-1.06-.1-.2,0-1.16-.15h0A22.21,22.21,0,0,1,23,37.13h0l-.68-.3-.08,0-.54-.28-.12-.07-.41-.27-.15-.1-.3-.24-.15-.14-.21-.22-.13-.16a2.14,2.14,0,0,1-.13-.21L20,34.92a1.39,1.39,0,0,1-.07-.21,1.24,1.24,0,0,1,0-.28,1.22,1.22,0,0,1,0-.19.57.57,0,0,0,0-.25V29.74l.22.19ZM47.4,41.65V36l.07,0,.67-.2h0a10.49,10.49,0,0,0,3.83-2v4.66a1.19,1.19,0,0,1,0,.2,1.34,1.34,0,0,1,0,.16v0a1.52,1.52,0,0,1-.08.18v0c-.47.93-2,1.83-4.17,2.51ZM52,26.9v4.67a1.19,1.19,0,0,1,0,.2,1.34,1.34,0,0,1,0,.16v0a1.52,1.52,0,0,1-.08.18v0c-.47.93-2,1.83-4.17,2.51l-.26.08V29.1l.14,0,.39-.11.32-.1.38-.13.28-.1.39-.15.24-.09.43-.19.15-.07.53-.27.05,0,.43-.26.14-.09.29-.2.14-.12.24-.19ZM38.8,20.4C46.57,20.4,52,22.67,52,24.7a1.19,1.19,0,0,1,0,.23l0,.08a1.42,1.42,0,0,1,0,.15l0,.09-.07.14-.06.09-.09.13-.08.1-.11.13-.09.1-.14.13-.11.1-.16.13-.12.09-.18.12-.14.09-.21.12-.15.09-.24.13-.15.08-.27.13-.15.07-.38.16-.08,0-.49.18-.14,0-.37.13-.2.06-.28.08v-.62a.53.53,0,0,0,0-.18l0-.07h0A3.56,3.56,0,0,0,46,25.14h0l-.34-.24c-2-1.44-5.77-2.57-11.08-2.74l-1.46,0-1.46,0a35.91,35.91,0,0,0-3.94.34C29.89,21.33,33.8,20.4,38.8,20.4ZM26.48,23.88l.44-.08.58-.1.52-.08.59-.08.51-.06,1.05-.1.41,0,.84,0,.41,0,1.25,0,1.39,0,.81,0,.52,0,1,.09.21,0,1.13.14h.06a22.25,22.25,0,0,1,4.88,1.24l0,0,.66.29.1,0,.52.27.14.08.4.26.16.11.29.24.16.14.2.22.13.17a2,2,0,0,1,.13.21l.08.17a1.42,1.42,0,0,1,.07.21,1.23,1.23,0,0,1,0,.28c0,2-5.41,4.3-13.18,4.3S19.9,29.6,19.9,27.57C19.9,26.18,22.42,24.69,26.48,23.88Zm6.59,28.61c-7.47,0-12.83-2.12-13.16-4.1l0-.08V43.49l.05,0c.12.11.25.22.4.32,2.16,1.63,6.47,2.9,12.73,2.9s10.53-1.26,12.7-2.88a5.83,5.83,0,0,0,.48-.39h0v4.82l0,.08a1.39,1.39,0,0,1-.11.35l-.08.14C45,50.7,39.93,52.49,33.07,52.49Zm18.89-7c-.18,1.11-1.9,2.23-4.57,3,0,0,0,0,0-.05V42.85l.07,0,.67-.2h0a10.49,10.49,0,0,0,3.83-2v4.78Z"/></svg>