<?xml version="1.0" encoding="utf-8"?>
<!-- Generator: Adobe Illustrator 21.0.2, SVG Export Plug-In . SVG Version: 6.00 Build 0)  -->
<svg version="1.1" id="Layer_1" xmlns="http://www.w3.org/2000/svg" xmlns:xlink="http://www.w3.org/1999/xlink" x="0px" y="0px"
	 viewBox="0 0 74 74" style="enable-background:new 0 0 74 74;" xml:space="preserve">
<style type="text/css">
	.st0{fill:none;stroke:#006FAF;stroke-width:2;stroke-miterlimit:10;}
	.st1{fill:#006FAF;}
</style>
<title>Cloud &amp;amp; Infrastructure Services</title>
<circle class="st0" cx="37" cy="37" r="36"/>
<g>
	<circle class="st1" cx="52.4" cy="46.6" r="2.6"/>
	<circle class="st1" cx="21.6" cy="43.6" r="2.6"/>
	<circle class="st1" cx="25.5" cy="19.7" r="2.6"/>
	<path class="st1" d="M29.4,25l-1-1.9c-0.2-0.4-0.8-0.6-1.2-0.4c-0.4,0.2-0.6,0.8-0.4,1.2l1,1.9c0.2,0.3,0.5,0.5,0.8,0.5
		c0.1,0,0.3,0,0.4-0.1C29.4,26,29.6,25.4,29.4,25z"/>
	<path class="st1" d="M30.3,30.5c0.2,0.3,0.5,0.5,0.8,0.5c0.1,0,0.3,0,0.4-0.1c0.4-0.2,0.6-0.8,0.4-1.2l-1-1.9
		c-0.2-0.4-0.8-0.6-1.2-0.4c-0.4,0.2-0.6,0.8-0.4,1.2L30.3,30.5z"/>
	<path class="st1" d="M43.3,40.6l-2-1.2c-0.4-0.2-1-0.1-1.2,0.3c-0.2,0.4-0.1,1,0.3,1.2l2,1.2c0.1,0.1,0.3,0.1,0.4,0.1
		c0.3,0,0.6-0.2,0.8-0.4C43.8,41.4,43.7,40.8,43.3,40.6z"/>
	<path class="st1" d="M48.4,43.5l-2-1.2c-0.4-0.2-1-0.1-1.2,0.3c-0.2,0.4-0.1,1,0.3,1.2l2,1.2c0.1,0.1,0.3,0.1,0.4,0.1
		c0.3,0,0.6-0.2,0.8-0.4C48.9,44.3,48.8,43.7,48.4,43.5z"/>
	<path class="st1" d="M27.7,39.5l-2,1.1c-0.4,0.2-0.6,0.8-0.3,1.2c0.2,0.3,0.5,0.5,0.8,0.5c0.1,0,0.3,0,0.4-0.1l2-1.1
		c0.4-0.2,0.6-0.8,0.3-1.2C28.7,39.4,28.2,39.2,27.7,39.5z"/>
	<path class="st1" d="M53.7,20.7c0-2.2-1.8-3.9-3.9-3.9c-2.2,0-3.9,1.8-3.9,3.9c0,0.7,0.2,1.3,0.5,1.9l-9,9.4
		c-0.8-0.5-1.8-0.8-2.8-0.8c-3,0-5.4,2.4-5.4,5.4c0,3,2.4,5.4,5.4,5.4c0.1,0,0.1,0,0.2,0l2,7.9c-1.1,0.7-1.9,1.9-1.9,3.3
		c0,2.2,1.8,3.9,3.9,3.9c2.2,0,3.9-1.8,3.9-3.9c0-2.1-1.6-3.8-3.7-3.9l-2-7.9c1.8-0.9,3-2.7,3-4.8c0-1.1-0.3-2.1-0.9-3l9-9.4
		c0.5,0.3,1.1,0.4,1.7,0.4C52,24.7,53.7,22.9,53.7,20.7z M37.3,51.8c0.4-0.4,1-0.7,1.6-0.7c0.2,0,0.5,0,0.7,0.1
		c0.9,0.3,1.5,1.1,1.5,2c0,1.2-1,2.2-2.2,2.2c-1.2,0-2.2-1-2.2-2.2C36.7,52.7,36.9,52.2,37.3,51.8z M37.6,37.4
		c-0.1,0.6-0.4,1.1-0.9,1.5c-0.1,0.1-0.2,0.2-0.3,0.2c-0.5,0.4-1.1,0.6-1.8,0.6c-0.2,0-0.3,0-0.4,0c-0.6-0.1-1.2-0.4-1.7-0.8
		c-0.4-0.4-0.7-0.9-0.9-1.5c0-0.2-0.1-0.4-0.1-0.6c0-0.8,0.4-1.6,0.9-2.2c0.4-0.4,0.9-0.7,1.5-0.8c0.2,0,0.4-0.1,0.6-0.1
		c0.4,0,0.7,0.1,1.1,0.2c0.8,0.3,1.4,0.9,1.7,1.6c0.2,0.4,0.3,0.8,0.3,1.2C37.7,36.9,37.6,37.1,37.6,37.4z M49.8,22.9
		c-0.1,0-0.3,0-0.4,0c-0.8-0.2-1.5-0.8-1.7-1.6c0-0.2-0.1-0.3-0.1-0.5c0-1.2,1-2.2,2.2-2.2c1.2,0,2.2,1,2.2,2.2
		C52,21.9,51,22.9,49.8,22.9z"/>
</g>
</svg>
