<?xml version="1.0" encoding="utf-8"?>
<!-- Generator: Adobe Illustrator 21.0.2, SVG Export Plug-In . SVG Version: 6.00 Build 0)  -->
<svg version="1.1" id="Layer_1" xmlns="http://www.w3.org/2000/svg" xmlns:xlink="http://www.w3.org/1999/xlink" x="0px" y="0px"
	 viewBox="0 0 74 74" style="enable-background:new 0 0 74 74;" xml:space="preserve">
<style type="text/css">
	.st0{fill:none;stroke:#006FAF;stroke-width:2;stroke-miterlimit:10;}
	.st1{fill:#006FAF;}
</style>
<circle class="st0" cx="37" cy="37" r="36"/>
<g>
	<g>
		<path class="st1" d="M46.5,19.5h-19c-2,0-3.6,1.6-3.6,3.6v27.7c0,2,1.6,3.6,3.6,3.6h19c2,0,3.6-1.6,3.6-3.6V23.1
			C50.1,21.1,48.5,19.5,46.5,19.5z M48.7,50.9c0,1.2-1,2.2-2.2,2.2h-19c-1.2,0-2.2-1-2.2-2.2V23.1c0-1.2,1-2.2,2.2-2.2h19
			c1.2,0,2.2,1,2.2,2.2V50.9z M45,39c1.4-1.7,2.2-3.9,2.2-6.3c0-5.6-4.6-10.2-10.2-10.2S26.8,27,26.8,32.6c0,2.4,0.8,4.6,2.2,6.3
			l-2.1,4.3c-0.1,0.1-0.1,0.2-0.1,0.3v7.3c0,0.4,0.3,0.7,0.7,0.7h19c0.4,0,0.7-0.3,0.7-0.7v-7.3c0-0.1,0-0.2-0.1-0.3L45,39z
			 M28.3,32.6c0-4.8,3.9-8.7,8.7-8.7s8.8,3.9,8.8,8.7c0,4.6-3.6,8.4-8.1,8.7l1.4-3.3c0.1-0.3,0-0.7-0.2-0.9c-0.3-0.2-0.7-0.2-0.9,0
			l-4.1,3.6C30.5,39.5,28.3,36.3,28.3,32.6z M36.5,40.4L34,46.3c-0.1,0.2-0.2,0.4-0.3,0.5c-0.6,0.6-1.5,0.6-2.1,0
			c-0.3-0.3-0.4-0.6-0.4-1s0.2-0.8,0.4-1L36.5,40.4z M45.8,50.1H28.3v-6.4l1.8-3.6c0.8,0.7,1.6,1.3,2.6,1.7l-2.1,1.8
			c-0.6,0.5-0.9,1.3-0.9,2.1s0.3,1.5,0.9,2.1s1.3,0.9,2.1,0.9c0.8,0,1.5-0.3,2.1-0.9c0.3-0.3,0.5-0.6,0.6-1l1.7-4
			c2.7,0,5.1-1.1,6.9-2.7l1.8,3.6C45.8,43.7,45.8,50.1,45.8,50.1z M37,35.5c1.6,0,2.9-1.3,2.9-2.9c0-1.6-1.3-2.9-2.9-2.9
			s-2.9,1.3-2.9,2.9C34.1,34.2,35.4,35.5,37,35.5z M37,31.2c0.8,0,1.5,0.7,1.5,1.5s-0.7,1.5-1.5,1.5s-1.5-0.7-1.5-1.5
			C35.5,31.8,36.2,31.2,37,31.2z"/>
	</g>
</g>
</svg>
