<?xml version="1.0" encoding="utf-8"?>
<!-- Generator: Adobe Illustrator 21.0.2, SVG Export Plug-In . SVG Version: 6.00 Build 0)  -->
<svg version="1.1" id="Layer_1" xmlns="http://www.w3.org/2000/svg" xmlns:xlink="http://www.w3.org/1999/xlink" x="0px" y="0px"
	 viewBox="0 0 74 74" style="enable-background:new 0 0 74 74;" xml:space="preserve">
<style type="text/css">
	.st0{fill:none;stroke:#006FAF;stroke-width:2;stroke-miterlimit:10;}
	.st1{fill:none;}
	.st2{fill:#006FAF;}
</style>
<title>Cloud &amp;amp; Infrastructure Services</title>
<circle class="st0" cx="37" cy="37" r="36"/>
<g>
	<path class="st1" d="M23.2,26.1c0-0.2,0-0.4,0.1-0.6c0.1-0.3,0.3-0.7,0.6-0.9c0.3-0.2,0.6-0.3,0.8-0.3h-1.5V26.1z"/>
	<path class="st1" d="M48.5,26.5c-3.7,0-7.5,0-11.2,0c-3.8,0-7.5,0-11.3,0c-0.3,0-0.4,0.1-0.4,0.4c0,5,0,10.1,0,15.1
		c0,0.3,0.1,0.4,0.4,0.4c7.5,0,15,0,22.5,0c0.3,0,0.4-0.1,0.4-0.4c0-5,0-10.1,0-15.1C48.9,26.6,48.8,26.5,48.5,26.5z M37,40.3
		c0,0.1,0,0.3-0.1,0.3c-0.1,0-0.2,0-0.3-0.1c-1.3-0.8-2.7-1.5-4-2.3c0,0,0,0-0.1,0c-0.5-0.2-0.7-0.5-0.7-1.1c0.1-1.6,0-3.2,0-4.8
		c0-0.4,0-0.4,0.4-0.2c0.9,0.5,1.8,1,2.7,1.6c0.6,0.4,1.2,0.7,1.9,1.1c0.2,0.1,0.2,0.2,0.2,0.4c0,0.9,0,1.7,0,2.6S37,39.5,37,40.3z
		 M37.3,33.8c-1.1-0.7-2.3-1.3-3.5-2c-0.4-0.2-0.7-0.4-1.1-0.6c-0.3-0.2-0.3-0.3,0-0.5c1.5-0.9,3-1.7,4.4-2.6c0.1,0,0.2-0.1,0.3-0.1
		c0.4,0.1,0.7,0.3,1,0.5c1,0.6,2,1.1,3,1.7c0.3,0.2,0.6,0.3,0.9,0.5c0.3,0.1,0.3,0.3,0,0.5c-0.5,0.3-1,0.6-1.5,0.8
		c-1,0.6-2.1,1.2-3.1,1.8C37.6,33.9,37.5,33.9,37.3,33.8z M43,38c-0.9,0.5-1.7,1-2.6,1.5c-0.6,0.4-1.3,0.7-1.9,1.1
		c-0.4,0.2-0.4,0.2-0.4-0.2c0-0.9,0-1.7,0-2.6c0-0.9,0-1.7,0-2.6c0-0.2,0-0.3,0.2-0.4c1.2-0.7,2.4-1.4,3.5-2
		c0.4-0.2,0.7-0.4,1.1-0.6c0.2-0.1,0.3-0.1,0.3,0.2c0,1.8,0,3.6,0,5.4C43.2,37.8,43.1,37.9,43,38z"/>
	<path class="st2" d="M50.5,25.2c-0.3-0.6-0.9-0.8-1.5-0.8H24.7c-0.3,0-0.6,0.1-0.8,0.3c-0.3,0.2-0.5,0.5-0.6,0.9
		c-0.1,0.2-0.1,0.4-0.1,0.6v16.2c0,0.3,0,0.5,0,0.8c0.1,0.7,0.8,1.4,1.5,1.4c2.8,0,5.6,0,8.5,0c0.1,0,0.1,0,0.2,0
		c0.1,0,0.2,0,0.2,0.1c0,0.3,0.1,0.6,0.2,0.9c0.1,0.9-0.1,1.8-1.1,2.1c-0.8,0.3-1.6,0.3-2.5,0.4c-0.6,0-1.3,0-1.9,0
		c-0.2,0-0.2,0-0.2,0.2c0,0.4,0,0.8,0,1.1c0,0.3,0.1,0.3,0.3,0.3c2.8,0,5.6,0,8.5,0c3,0,5.9,0,8.9,0c0.2,0,0.3,0,0.3-0.3
		c0-0.4,0-0.8,0-1.2c0-0.2,0-0.2-0.2-0.2c-0.8,0-1.7,0-2.5-0.1c-0.5-0.1-1.1-0.1-1.6-0.3c-0.6-0.2-0.9-0.5-0.9-1.3
		c0-0.5,0.2-1,0.2-1.5c0.1-0.3,0.2-0.3,0.5-0.3c2.5,0,5.1,0,7.6,0c0.8,0,1.7-0.9,1.7-1.7c0-5.6,0-11.2,0-16.8
		C50.8,25.7,50.7,25.4,50.5,25.2z M48.5,42.3c-7.5,0-15,0-22.5,0c-0.3,0-0.4-0.1-0.4-0.4c0-5,0-10.1,0-15.1c0-0.3,0.1-0.4,0.4-0.4
		c3.8,0,7.5,0,11.3,0c3.7,0,7.5,0,11.2,0c0.3,0,0.4,0.1,0.4,0.4c0,5,0,10.1,0,15.1C48.9,42.2,48.8,42.3,48.5,42.3z"/>
	<path class="st2" d="M36.8,34.8c-0.6-0.3-1.2-0.7-1.9-1.1c-0.9-0.5-1.8-1.1-2.7-1.6c-0.4-0.2-0.4-0.2-0.4,0.2c0,1.6,0,3.2,0,4.8
		c0,0.6,0.1,0.9,0.7,1.1c0,0,0,0,0.1,0c1.3,0.8,2.7,1.5,4,2.3c0.1,0.1,0.2,0.1,0.3,0.1c0.1-0.1,0.1-0.2,0.1-0.3c0-0.9,0-1.7,0-2.6
		s0-1.7,0-2.6C37,34.9,37,34.8,36.8,34.8z"/>
	<path class="st2" d="M42.3,31.2c0.3-0.1,0.2-0.3,0-0.5c-0.3-0.2-0.6-0.3-0.9-0.5c-1-0.6-2-1.2-3-1.7c-0.3-0.2-0.6-0.4-1-0.5
		c-0.1,0-0.2,0.1-0.3,0.1c-1.5,0.9-3,1.7-4.4,2.6c-0.3,0.2-0.3,0.3,0,0.5c0.4,0.2,0.7,0.4,1.1,0.6c1.2,0.7,2.3,1.3,3.5,2
		c0.2,0.1,0.3,0.1,0.4,0c1-0.6,2.1-1.2,3.1-1.8C41.3,31.8,41.8,31.5,42.3,31.2z"/>
	<path class="st2" d="M42.9,32.1c-0.4,0.2-0.7,0.4-1.1,0.6c-1.2,0.7-2.4,1.4-3.5,2c-0.2,0.1-0.2,0.2-0.2,0.4c0,0.9,0,1.7,0,2.6
		c0,0.9,0,1.7,0,2.6c0,0.4,0.1,0.5,0.4,0.2c0.6-0.4,1.3-0.7,1.9-1.1c0.9-0.5,1.7-1,2.6-1.5c0.1-0.1,0.2-0.1,0.2-0.3
		c0-1.8,0-3.6,0-5.4C43.2,32,43.1,32,42.9,32.1z"/>
</g>
</svg>
