<svg id="Layer_1" data-name="Layer 1" xmlns="http://www.w3.org/2000/svg" viewBox="0 0 74 74"><defs><style>.cls-1{fill:none;stroke:#006faf;stroke-miterlimit:10;stroke-width:2px;}.cls-2{fill:#006faf;}.cls-3{font-size:11px;fill:#fff;font-family:MyriadPro-Regular, Myriad Pro;}.cls-4{letter-spacing:-0.02em;}</style></defs><title>vizQL</title><circle class="cls-1" cx="37" cy="37" r="36"/><path class="cls-2" d="M37.85,36.16c-1.44,0-2.27,1.41-2.27,3.16s.85,3.13,2.26,3.13,2.26-1.34,2.26-3.17S39.3,36.16,37.85,36.16Z"/><path class="cls-2" d="M50.18,33.34h-.77V29.61a.56.56,0,0,0,0-.07.62.62,0,0,0-.15-.41L43,22h0a.62.62,0,0,0-.13-.11h0l-.12,0H27.34a1.26,1.26,0,0,0-1.26,1.26h0V33.34H25.3a1.8,1.8,0,0,0-1.8,1.8v9.38a1.8,1.8,0,0,0,1.8,1.8h.77v6.42A1.26,1.26,0,0,0,27.33,54H48.15a1.26,1.26,0,0,0,1.26-1.26V46.32h.77a1.8,1.8,0,0,0,1.8-1.8V35.14A1.8,1.8,0,0,0,50.18,33.34ZM27.34,23.09H42v6.45a.63.63,0,0,0,.63.63h5.57v3.16H27.34Zm15,20.85-.61,1.64A32.48,32.48,0,0,1,38,44.26a2.09,2.09,0,0,0-.65-.14c-2.11-.14-4.07-1.69-4.07-4.74,0-2.8,1.77-4.91,4.56-4.91a4.39,4.39,0,0,1,4.42,4.71,4.36,4.36,0,0,1-2.22,4.17v.06c.75.22,1.56.39,2.29.54Zm-16.43-.4.43-1.75a5.39,5.39,0,0,0,2.34.58c1,0,1.48-.4,1.48-1s-.44-.92-1.57-1.32C27,39.51,26,38.65,26,37.29c0-1.59,1.33-2.81,3.53-2.81A5.73,5.73,0,0,1,32,35l-.47,1.7a4.43,4.43,0,0,0-2-.44c-.92,0-1.36.42-1.36.9s.53.86,1.73,1.32c1.65.61,2.42,1.47,2.42,2.78,0,1.57-1.21,2.9-3.77,2.9a6.14,6.14,0,0,1-2.61-.61ZM48.15,52.4H27.34V46.32H48.15Zm1.4-8.4H43.71V34.64h2.12V42.2h3.71Z"/><rect class="cls-2" x="24.88" y="34.31" width="25.91" height="11.5"/><text class="cls-3" transform="translate(24.75 43.56)"><tspan class="cls-4">V</tspan><tspan x="5.96" y="0">izQL</tspan></text></svg>