<?xml version="1.0" encoding="utf-8"?>
<!-- Generator: Adobe Illustrator 21.0.2, SVG Export Plug-In . SVG Version: 6.00 Build 0)  -->
<svg version="1.1" id="Layer_1" xmlns="http://www.w3.org/2000/svg" xmlns:xlink="http://www.w3.org/1999/xlink" x="0px" y="0px"
	 viewBox="0 0 74 74" style="enable-background:new 0 0 74 74;" xml:space="preserve">
<style type="text/css">
	.st0{fill:none;stroke:#006FAF;stroke-width:2;stroke-miterlimit:10;}
	.st1{fill:#006FAF;}
</style>
<title>Cloud &amp;amp; Infrastructure Services</title>
<circle class="st0" cx="37" cy="37" r="36"/>
<g>
	<path class="st1" d="M37,19c-9.9,0-18,8.1-18,18s8.1,18,18,18s18-8.1,18-18S46.9,19,37,19z M45.3,45.2H28.7v-9.3h2.9v-4.2
		c0.3-2.8,2.7-4.9,5.5-4.9c2.9,0,5.2,2.2,5.5,4.9v4.2h2.8L45.3,45.2L45.3,45.2z"/>
	<path class="st1" d="M37,29.1c-2.8,0-2.8,2.6-2.8,2.6l0,4.2h5.7l0-4.2C39.9,31.7,39.8,29.1,37,29.1z"/>
</g>
</svg>
