<?xml version="1.0" encoding="utf-8"?>
<!-- Generator: Adobe Illustrator 21.0.2, SVG Export Plug-In . SVG Version: 6.00 Build 0)  -->
<svg version="1.1" id="Layer_1" xmlns="http://www.w3.org/2000/svg" xmlns:xlink="http://www.w3.org/1999/xlink" x="0px" y="0px"
	 viewBox="0 0 74 74" style="enable-background:new 0 0 74 74;" xml:space="preserve">
<style type="text/css">
	.st0{fill:none;stroke:#006FAF;stroke-width:2;stroke-miterlimit:10;}
	.st1{fill:#006FAF;}
</style>
<title>Cloud &amp;amp; Infrastructure Services</title>
<circle class="st0" cx="37" cy="37" r="36"/>
<path class="st1" d="M56.3,33.8c0,0-7.9-7.9-8.1-8.1c0,0,0,0,0,0c0-0.1,0-0.1,0-0.2c-1.2,0-2.3,0-3.5,0c-0.4,0-0.9,0-1.3,0
	c-0.5,0-1,0-1.5,0c-0.1,0-0.1,0-0.2,0c-1.5,1.5-4.8,4.8-5,4.8v0l0,0c-0.9-1-4.5-4.4-4.6-4.4c0,0,0,0,0,0c0-0.1,0-0.2,0-0.4
	c-1,0-2,0-3,0c-0.3,0-0.6,0-0.9,0c-0.9,0-1.7,0-2.6,0c0,0.1,0,0.1,0,0.2c-0.3,0.3-7.1,7.1-8.1,7.9c-0.1,0.1-0.2,0.2-0.2,0.4
	c0,2,0.1,4,0.1,6h0c0.1,0.4,8,8.2,8.1,8.3c1.3,0.4,2.6,0.1,3.9,0c0,0,0,0,0,0c0.8,0,1.7,0,2.5,0c0,0,0,0,0,0c0,0,0,0,0,0
	c1.6-1.6,3.2-3.2,4.8-4.7l0.1,0l0.1,0c0.3,0.3,4.6,5,5.1,5c1.8,0,3.5,0,5.3,0c0.3,0,0.6,0.1,0.6-0.3c0,0,0,0,0,0
	c0.4-0.4,7.7-7.9,8.3-8.1C56.5,37.2,56.3,33.8,56.3,33.8z M47.8,47.4c0,0-0.1-0.1-0.1-0.1c0,0,0.1,0,0.1,0
	C47.8,47.3,47.8,47.4,47.8,47.4z M47.8,46.1C47.8,46.1,47.8,46.1,47.8,46.1C47.8,46.1,47.8,46.1,47.8,46.1
	C47.8,46.1,47.8,46.1,47.8,46.1C47.8,46.1,47.8,46.1,47.8,46.1C47.8,46.1,47.8,46.1,47.8,46.1z M25.9,42.1
	C25.9,42.1,25.9,42.1,25.9,42.1L25.9,42.1C25.9,42.1,25.9,42.1,25.9,42.1z M39.2,45C39.2,45,39.2,45,39.2,45
	C39.2,45,39.2,45,39.2,45C39.2,45,39.2,45,39.2,45z M54.8,35.4C54.8,35.4,54.8,35.4,54.8,35.4C54.8,35.4,54.8,35.4,54.8,35.4
	C54.8,35.4,54.8,35.4,54.8,35.4z M25.8,32.6C25.8,32.5,25.9,32.5,25.8,32.6c0.2,0,1.8,1.5,2.4,2.2c0,0,0,0,0,0
	c0.7,0.7,1.3,1.4,2,2.1c0,0-0.1,0-0.1,0c-1.3,1.1-2.4,2.4-3.6,3.6C26,41,25.6,41,25.2,40.4c-0.2-0.3-3.7-3.7-3.8-3.9l0,0
	C21.5,36.5,25.8,32.6,25.8,32.6z M19.6,41.5C19.6,41.5,19.6,41.5,19.6,41.5C19.6,41.5,19.6,41.5,19.6,41.5
	C19.6,41.5,19.6,41.5,19.6,41.5C19.6,41.5,19.6,41.5,19.6,41.5C19.6,41.5,19.6,41.5,19.6,41.5z M47.8,41.3c-0.3-0.2-2.2-2.2-2.2-2.2
	c-0.3-0.4-0.7-0.7-1-1.1c0,0,0,0,0-0.1c-0.2-0.3-1-1.1-1-1.2c1.3-1.3,4.3-4.2,4.3-4.2c0.6-0.4,4.5,4.1,4.5,4.1
	C52.2,36.9,47.9,41.2,47.8,41.3z"/>
</svg>
