<?xml version="1.0" encoding="utf-8"?>
<!-- Generator: Adobe Illustrator 21.0.2, SVG Export Plug-In . SVG Version: 6.00 Build 0)  -->
<svg version="1.1" id="Layer_1" xmlns="http://www.w3.org/2000/svg" xmlns:xlink="http://www.w3.org/1999/xlink" x="0px" y="0px"
	 viewBox="0 0 74 74" style="enable-background:new 0 0 74 74;" xml:space="preserve">
<style type="text/css">
	.st0{fill:#006FAF;}
</style>
<title>health-checks</title>
<path class="st0" d="M37,74C16.6,74,0,57.4,0,37S16.6,0,37,0s37,16.6,37,37S57.4,74,37,74z M37,2C17.7,2,2,17.7,2,37s15.7,35,35,35
	s35-15.7,35-35S56.3,2,37,2z"/>
<g>
	<g>
		<path class="st0" d="M26.3,24.4l1.1,3l0,0l1.1-3h0.8v3.9h-0.6V27l0.1-1.7l0,0l-1.1,3h-0.4l-1.1-3l0,0l0.1,1.7v1.3h-0.6v-3.9H26.3z
			"/>
		<path class="st0" d="M30.9,24.6h-0.6V24h0.6V24.6z M30.9,28.2h-0.6v-2.9h0.6V28.2z"/>
		<path class="st0" d="M32.8,27.7c0.2,0,0.3,0,0.4-0.1c0.1-0.1,0.2-0.2,0.2-0.3H34l0,0c0,0.3-0.1,0.5-0.3,0.7s-0.5,0.3-0.8,0.3
			c-0.4,0-0.7-0.1-1-0.4c-0.2-0.3-0.3-0.6-0.3-1v-0.1c0-0.4,0.1-0.8,0.3-1c0.2-0.3,0.5-0.4,1-0.4c0.3,0,0.6,0.1,0.8,0.3
			s0.3,0.5,0.3,0.8l0,0h-0.6c0-0.2-0.1-0.3-0.2-0.4s-0.2-0.2-0.4-0.2s-0.4,0.1-0.5,0.3c-0.1,0.2-0.2,0.4-0.2,0.7V27
			c0,0.3,0.1,0.5,0.2,0.7C32.3,27.7,32.5,27.7,32.8,27.7z"/>
		<path class="st0" d="M35.8,25.9h-0.3c-0.1,0-0.2,0-0.3,0.1s-0.1,0.1-0.2,0.2v2h-0.6v-2.9H35v0.4c0.1-0.1,0.2-0.3,0.3-0.3
			c0.1-0.1,0.2-0.1,0.4-0.1h0.1h0.1L35.8,25.9z"/>
		<path class="st0" d="M36.2,26.7c0-0.4,0.1-0.8,0.3-1c0.2-0.3,0.6-0.4,1-0.4s0.7,0.1,1,0.4c0.2,0.3,0.4,0.6,0.4,1v0.1
			c0,0.4-0.1,0.8-0.4,1.1c-0.2,0.3-0.6,0.4-1,0.4s-0.7-0.1-1-0.4C36.3,27.6,36.2,27.2,36.2,26.7L36.2,26.7z M36.8,26.8
			c0,0.3,0.1,0.5,0.2,0.7c0.1,0.2,0.3,0.3,0.5,0.3s0.4-0.1,0.5-0.3c0.1-0.2,0.2-0.4,0.2-0.7v-0.1c0-0.3-0.1-0.5-0.2-0.7
			c-0.1-0.2-0.3-0.3-0.5-0.3S37.1,25.8,37,26C36.9,26.2,36.8,26.5,36.8,26.8L36.8,26.8z"/>
		<path class="st0" d="M41,27.4c0-0.1,0-0.2-0.1-0.2c-0.1-0.1-0.2-0.1-0.5-0.2s-0.6-0.2-0.8-0.3s-0.3-0.3-0.3-0.5s0.1-0.4,0.3-0.6
			s0.5-0.3,0.8-0.3s0.6,0.1,0.8,0.3c0.2,0.2,0.3,0.4,0.3,0.6l0,0h-0.6c0-0.1,0-0.2-0.1-0.3c-0.1-0.1-0.2-0.1-0.4-0.1s-0.3,0-0.4,0.1
			c0,0,0,0.1,0,0.2s0,0.2,0.1,0.2c0.1,0.1,0.2,0.1,0.5,0.2c0.4,0.1,0.6,0.2,0.8,0.3s0.3,0.3,0.3,0.6c0,0.3-0.1,0.5-0.3,0.6
			c-0.2,0.2-0.5,0.2-0.8,0.2c-0.4,0-0.7-0.1-0.9-0.3s-0.3-0.4-0.3-0.7l0,0H40c0,0.2,0.1,0.3,0.2,0.4c0.1,0.1,0.3,0.1,0.4,0.1
			c0.2,0,0.3,0,0.4-0.1C40.9,27.6,41,27.5,41,27.4z"/>
		<path class="st0" d="M42.1,26.7c0-0.4,0.1-0.8,0.3-1c0.2-0.3,0.6-0.4,1-0.4s0.7,0.1,1,0.4c0.2,0.3,0.4,0.6,0.4,1v0.1
			c0,0.4-0.1,0.8-0.4,1.1c-0.2,0.3-0.6,0.4-1,0.4s-0.7-0.1-1-0.4C42.2,27.6,42.1,27.2,42.1,26.7L42.1,26.7z M42.7,26.8
			c0,0.3,0.1,0.5,0.2,0.7c0.1,0.2,0.3,0.3,0.5,0.3s0.4-0.1,0.5-0.3c0.1-0.2,0.2-0.4,0.2-0.7v-0.1c0-0.3-0.1-0.5-0.2-0.7
			c-0.1-0.2-0.3-0.3-0.5-0.3S43,25.8,42.9,26C42.8,26.2,42.7,26.5,42.7,26.8L42.7,26.8z"/>
		<path class="st0" d="M45.5,28.2v-2.4H45v-0.5h0.4V25c0-0.3,0.1-0.6,0.3-0.7c0.2-0.2,0.4-0.3,0.7-0.3c0.1,0,0.1,0,0.2,0
			c0.1,0,0.1,0,0.2,0l-0.1,0.5h-0.1h-0.1c-0.1,0-0.2,0-0.3,0.1s-0.1,0.2-0.1,0.3v0.3h0.6v0.5h-0.6v2.4h-0.6V28.2z"/>
		<path class="st0" d="M48,24.6v0.7h0.5v0.5H48v1.6c0,0.1,0,0.2,0.1,0.3c0.1,0.1,0.1,0.1,0.2,0.1h0.1h0.1l0.1,0.5
			c-0.1,0-0.1,0.1-0.2,0.1s-0.2,0-0.2,0c-0.2,0-0.4-0.1-0.6-0.2s-0.2-0.4-0.2-0.7v-1.6H47v-0.5h0.4v-0.7L48,24.6L48,24.6z"/>
	</g>
	<g>
		<path class="st0" d="M27.3,38.8H26v-1.2h1.3V38.8z"/>
		<path class="st0" d="M35.1,38.8h-1.3l-3.4-5.6l0,0v5.6h-1.3v-7.7h1.3l3.4,5.6l0,0v-5.6h1.3V38.8z"/>
		<path class="st0" d="M41.4,35.3H38v2.4h4v1h-5.2V31H42v1h-3.9v2.2h3.4L41.4,35.3L41.4,35.3z"/>
		<path class="st0" d="M48.4,32.1h-2.3v6.7h-1.3v-6.7h-2.3v-1h5.9C48.4,31.1,48.4,32.1,48.4,32.1z"/>
	</g>
	<g>
		<path class="st0" d="M29.1,48.1L29.1,48.1L29.1,48.1l2.2-4.9h0.9l0.5,4.9l0,0l0,0l1.9-4.9h1.1L33,49.9h-1L31.5,45l0,0l-2.2,4.8h-1
			l-0.4-6.7H29L29.1,48.1z"/>
		<path class="st0" d="M40.9,47.6L40.9,47.6c-0.1,0.7-0.4,1.3-1,1.7c-0.5,0.4-1.2,0.6-2,0.6s-1.4-0.3-1.8-0.8
			c-0.4-0.5-0.5-1.2-0.4-2l0.2-1.3c0.1-0.8,0.5-1.5,1.1-2s1.3-0.8,2-0.8c0.8,0,1.4,0.2,1.8,0.6c0.4,0.4,0.5,1,0.4,1.7l0,0h-1.1
			c0.1-0.5,0-0.8-0.2-1.1s-0.5-0.4-1-0.4S38,44,37.7,44.3c-0.3,0.4-0.5,0.8-0.6,1.4L36.9,47c-0.1,0.6,0,1,0.2,1.4s0.6,0.5,1,0.5
			c0.5,0,0.8-0.1,1.1-0.4c0.3-0.3,0.5-0.6,0.5-1.1h1.2V47.6z"/>
		<path class="st0" d="M46.2,47h-3l-0.5,2.9h-1.1l1.2-6.7h4.6L47.2,44h-3.4l-0.4,2.1h3L46.2,47z"/>
	</g>
</g>
<g>
</g>
</svg>
