<?xml version="1.0" encoding="utf-8"?>
<!-- Generator: Adobe Illustrator 21.0.2, SVG Export Plug-In . SVG Version: 6.00 Build 0)  -->
<svg version="1.1" id="Layer_1" xmlns="http://www.w3.org/2000/svg" xmlns:xlink="http://www.w3.org/1999/xlink" x="0px" y="0px"
	 viewBox="0 0 74 74" style="enable-background:new 0 0 74 74;" xml:space="preserve">
<style type="text/css">
	.st0{fill:none;stroke:#006FAF;stroke-width:2;stroke-miterlimit:10;}
	.st1{fill:#006FAF;}
</style>
<title>Cloud &amp;amp; Infrastructure Services</title>
<circle class="st0" cx="37" cy="37" r="36"/>
<g>
	<path class="st1" d="M41.2,20.6c0.6,0.3,0.9,0.7,1,1.4c0.1,1,0.3,2.1,0.5,3.1c0.1,0.4-0.1,0.6-0.5,0.6c-3.8,0-7.5,0-11.3,0
		c-0.4,0-0.6-0.2-0.5-0.6c0.2-1.1,0.4-2.3,0.5-3.4c0.1-0.6,0.4-0.9,0.9-1.1C34.9,20.6,38,20.6,41.2,20.6z"/>
	<path class="st1" d="M45.5,31.3c1,0.1,1,0.1,1,1.1c0,0.6,0,1.2,0,1.8c0,0.5-0.2,0.7-0.7,0.7c-0.1,0-0.2,0-0.3,0c0,1,0,1.9,0,2.9
		c0,0,0,0,0.1,0c0.7,0,0.7,0,0.7,0.7c0,1.3,0,2.5,0,3.8c0,0.6,0,0.6-0.6,0.6c-0.1,0-0.1,0-0.2,0c0,0.3,0,0.7,0,1
		c0,1.9-1.3,3.2-3.2,3.2c-3.8,0-7.7,0-11.5,0c-1.9,0-3.2-1.3-3.2-3.2c0-4.7,0-9.4,0-14.1c0-1.9,1.3-3.2,3.2-3.2c3.9,0,7.7,0,11.5,0
		c1.9,0,3.2,1.3,3.2,3.2C45.5,30.4,45.5,30.9,45.5,31.3z M36.5,35c-1.1,0-2.1,0.9-2.1,2s0.9,2.1,2,2.1s2-0.9,2-2.1
		C38.6,35.9,37.6,35,36.5,35z M35.7,32.1c0-1-0.8-1.8-1.8-1.8s-1.8,0.8-1.8,1.8s0.8,1.8,1.8,1.8C34.9,33.9,35.7,33.1,35.7,32.1z
		 M35.7,41.9c0-1-0.8-1.8-1.8-1.8s-1.8,0.8-1.8,1.8s0.8,1.8,1.8,1.8S35.7,42.9,35.7,41.9z M39.1,30.3c-1,0-1.8,0.8-1.8,1.8
		s0.8,1.8,1.8,1.8s1.8-0.8,1.8-1.8C40.9,31.1,40.1,30.3,39.1,30.3z M41.9,38.9c1,0,1.8-0.8,1.8-1.8s-0.8-1.8-1.8-1.8
		s-1.8,0.8-1.8,1.8C40.1,38.1,40.9,38.9,41.9,38.9z M40.9,41.9c0-1-0.8-1.8-1.8-1.8s-1.8,0.8-1.8,1.8s0.8,1.8,1.8,1.8
		C40,43.7,40.9,42.9,40.9,41.9z M31.1,38.9c1,0,1.8-0.8,1.8-1.8s-0.8-1.8-1.8-1.8s-1.8,0.8-1.8,1.8C29.3,38.1,30.1,38.9,31.1,38.9z"
		/>
	<path class="st1" d="M36.5,48.3c1.8,0,3.7,0,5.5,0c0.5,0,0.7,0.2,0.6,0.7c-0.2,1.1-0.3,2.1-0.5,3.2c-0.1,0.8-0.6,1.2-1.4,1.2
		c-2.8,0-5.6,0-8.5,0c-0.8,0-1.3-0.4-1.4-1.2c-0.2-1.1-0.3-2.2-0.5-3.3c-0.1-0.5,0.1-0.6,0.6-0.6C32.8,48.3,34.6,48.3,36.5,48.3z"/>
</g>
</svg>
