<?xml version="1.0" encoding="UTF-8"?>
<!-- Generator: Adobe Illustrator 21.0.2, SVG Export Plug-In . SVG Version: 6.00 Build 0)  -->
<svg version="1.1" id="Layer_1" xmlns="http://www.w3.org/2000/svg" xmlns:xlink="http://www.w3.org/1999/xlink" x="0px" y="0px" viewBox="0 0 74 74" style="enable-background:new 0 0 74 74;" xml:space="preserve">
<style type="text/css">
	.st0{fill:none;stroke:#006FAF;stroke-width:2;stroke-miterlimit:10;}
	.st1{fill:#006FAF;}
</style>
<title>health-checks</title>
<circle class="st0" cx="37" cy="37" r="36"/>
<g>
	<path class="st1" d="M45.4,24.6c-1.1-2-2.5-3.2-4-3.4v4.6c1.6,0,3-0.2,4.4-0.5C45.6,25.1,45.5,24.8,45.4,24.6z M42.6,24.4v-1.2   c0.4,0.3,0.7,0.7,1,1.1C43.3,24.4,43,24.4,42.6,24.4z"/>
	<path class="st1" d="M46.3,24.1c0.2,0.3,0.3,0.6,0.5,1c1-0.3,2-0.6,2.8-1c-1.7-1.6-3.8-2.7-6.1-3.2C44.5,21.6,45.5,22.7,46.3,24.1z   "/>
	<path class="st1" d="M45.3,40.4c0.3,0,0.6,0.1,0.9,0.2c0.7-1.9,1.2-4.2,1.2-6.6h-6l0,0v5c0.5,0.1,1.1,0.2,1.6,0.3   C43.8,39.3,44.7,39.7,45.3,40.4z M42.6,35.2H46c-0.1,1.2-0.3,2.4-0.6,3.5c-0.7-0.4-1.4-0.7-2.3-0.8c-0.2,0-0.3-0.1-0.5-0.1   C42.6,37.8,42.6,35.2,42.6,35.2z"/>
	<path class="st1" d="M46.1,26.3c-1.5,0.3-3.1,0.5-4.8,0.5v6.1h6C47.3,30.4,46.9,28.2,46.1,26.3z M42.6,31.6v-3.5   c0.9-0.1,1.8-0.2,2.7-0.3c0.4,1.2,0.6,2.5,0.7,3.8H42.6z"/>
	<path class="st1" d="M45.5,44.5c1.5-0.2,2.6-1.2,3.8-1.9c-0.8-0.3-1.6-0.6-2.5-0.8c-0.2,0.3-0.3,0.7-0.5,1   c-0.4,0.7-0.8,1.3-1.3,1.9C45.1,44.6,45.3,44.6,45.5,44.5z"/>
	<path class="st1" d="M48.4,32.9h5.2c-0.1-3.1-1.3-5.9-3.2-8c-0.9,0.5-2,0.8-3.2,1.1C47.9,28,48.3,30.4,48.4,32.9z M50,26.5   c1.1,1.5,1.9,3.3,2.2,5.1h-2.5c-0.1-1.6-0.4-3.2-0.8-4.7C49.2,26.8,49.6,26.6,50,26.5z"/>
	<path class="st1" d="M40.3,26.8c-1.7,0-3.3-0.2-4.8-0.5c-0.7,1.9-1.2,4.2-1.2,6.6h6V26.8z M39,31.6h-3.4c0.1-1.4,0.4-2.6,0.7-3.8   c0.9,0.1,1.7,0.2,2.7,0.3V31.6z"/>
	<path class="st1" d="M48.4,33.9c-0.1,2.5-0.5,4.9-1.2,6.9c1.2,0.3,2.2,0.7,3.2,1.1c1.9-2.1,3.1-4.9,3.2-8H48.4L48.4,33.9z    M49.6,35.2h2.5c-0.3,1.9-1,3.6-2.2,5.1c-0.4-0.1-0.8-0.3-1.1-0.4C49.2,38.5,49.5,36.9,49.6,35.2z"/>
	<path class="st1" d="M33.4,36.5c-0.1-0.8-0.2-1.7-0.2-2.6H28c0,0.5,0.1,1,0.1,1.4C30,35.3,31.7,35.8,33.4,36.5z"/>
	<path class="st1" d="M40.3,21.2c-1.5,0.2-2.9,1.4-4,3.4c-0.1,0.2-0.2,0.5-0.4,0.7c1.4,0.3,2.8,0.4,4.4,0.5V21.2z M39,24.4   c-0.3,0-0.7-0.1-1-0.1c0.3-0.5,0.7-0.8,1-1.1V24.4z"/>
	<path class="st1" d="M35.3,24.1c0.8-1.4,1.7-2.5,2.8-3.2c-2.3,0.5-4.4,1.6-6.1,3.2c0.8,0.4,1.8,0.7,2.8,1   C35,24.8,35.2,24.4,35.3,24.1z"/>
	<path class="st1" d="M34.5,26.1c-1.2-0.3-2.2-0.7-3.2-1.1c-1.9,2.1-3.1,4.9-3.2,8h5.2C33.3,30.4,33.7,28,34.5,26.1z M32,31.6h-2.5   c0.3-1.9,1-3.6,2.2-5.1c0.4,0.1,0.8,0.3,1.1,0.4C32.4,28.4,32.1,30,32,31.6z"/>
	<path class="st1" d="M34.5,37c0.1,0,0.2,0.1,0.3,0.1c1.7,1,3.6,1.4,5.4,1.7v-4.9h-6C34.3,35,34.4,36,34.5,37z M39,35.2v2   c-1.2-0.2-2.3-0.6-3.3-1.1c0-0.3-0.1-0.6-0.1-0.9H39z"/>
	<path class="st1" d="M50.1,43.8c-1.2,0.5-2.2,1.3-3.3,2.1c-2,1.1-4.4,0.8-6.6,1c-1.8,0.1-3.8-0.6-5-2.1c1.4-0.3,3.8-0.1,5,0.4   c1.3,0.3,2.9-0.1,3.6-1.3c0.5-1-0.5-2.2-1.5-2.4c-2.6-0.7-5.5-0.6-8-1.9c-2.7-1.2-5.6-2.6-8.7-2c-3.9,1.3-6.5,3.2-9.4,6.1   c-0.5,0.5-1,0.8-0.7,1.2c1.3,1.7,2.5,3.4,3.8,5.2c0.5,0.5,1.7-0.6,2.3-1.1c2.6-1.9,5.4-1.5,7.5-0.2c2.4,1.2,6.2,2.6,7.2,2.5   c3.1-0.5,7.4,0.1,9.7-1.3c2.3-1.3,8.3-4.2,6.5-6.4C52,43,50.9,43.5,50.1,43.8z M46.4,48.6c-0.3,0.2-0.6,0.3-0.8,0.5   c-1.2,0.7-3.3,0.7-5.4,0.8c-1.3,0-2.6,0.1-3.8,0.3c-0.8,0-3.9-1.1-6.4-2.3c-1.4-0.9-2.9-1.3-4.3-1.3C24,46.5,22.4,47,21,48   c-0.1,0.1-0.3,0.2-0.4,0.3s-0.3,0.3-0.5,0.4l-2.9-4l0.1-0.1c2.7-2.7,5.1-4.6,8.8-5.8c0.4-0.1,0.8-0.1,1.3-0.1c2.1,0,4.2,1,6.3,1.9   l0.2,0.1c1.7,0.9,3.5,1.2,5.3,1.5c1,0.2,1.9,0.3,2.8,0.5h0.1h0.1c0.3,0,0.5,0.4,0.5,0.5c-0.3,0.5-1,0.7-1.6,0.7c-0.1,0-0.3,0-0.4,0   c-0.9-0.4-2.3-0.6-3.7-0.6c-0.7,0-1.4,0.1-2,0.2L33,44l1.2,1.6c1.2,1.6,3.3,2.6,5.6,2.6c0.1,0,0.3,0,0.4,0c0.7-0.1,1.3-0.1,2-0.1   c1.6,0,3.5-0.1,5.2-1.1l0.1-0.1c0.2-0.2,0.4-0.3,0.6-0.5c0.8-0.6,1.5-1.1,2.4-1.5c0.4-0.2,0.8-0.3,1.1-0.3   C51.6,45.2,50.5,46.3,46.4,48.6z"/>
</g>
</svg>