<?xml version="1.0" encoding="utf-8"?>
<!-- Generator: Adobe Illustrator 21.0.2, SVG Export Plug-In . SVG Version: 6.00 Build 0)  -->
<svg version="1.1" id="Layer_1" xmlns="http://www.w3.org/2000/svg" xmlns:xlink="http://www.w3.org/1999/xlink" x="0px" y="0px"
	 viewBox="0 0 74 74" style="enable-background:new 0 0 74 74;" xml:space="preserve">
<style type="text/css">
	.st0{fill:#006FAF;}
</style>
<title>health-checks</title>
<path class="st0" d="M37,74C16.6,74,0,57.4,0,37S16.6,0,37,0s37,16.6,37,37S57.4,74,37,74z M37,2C17.7,2,2,17.7,2,37s15.7,35,35,35
	s35-15.7,35-35S56.3,2,37,2z"/>
<g>
	<path class="st0" d="M21,39L21,39L21,39l1.5-5.6h1L25,39l0,0v-0.1l1.2-5.6h1.3L25.7,41h-1.2L23,35.6l0,0L21.5,41h-1.2l-1.8-7.7h1.3
		L21,39z"/>
	<path class="st0" d="M30.7,41.2c-0.8,0-1.4-0.3-1.9-0.8s-0.7-1.2-0.7-2v-0.2c0-0.8,0.2-1.5,0.7-2.1c0.5-0.5,1.1-0.8,1.8-0.8
		c0.8,0,1.4,0.2,1.8,0.7s0.6,1,0.6,1.8v0.8h-3.5l0,0c0,0.4,0.2,0.8,0.4,1.1c0.2,0.3,0.6,0.4,1,0.4c0.3,0,0.6,0,0.9-0.1
		c0.2-0.1,0.5-0.2,0.7-0.4l0.4,0.8c-0.2,0.2-0.5,0.3-0.9,0.5C31.6,41.1,31.2,41.2,30.7,41.2z M30.6,36.3c-0.3,0-0.6,0.1-0.8,0.4
		c-0.2,0.3-0.3,0.6-0.4,1l0,0h2.3v-0.1c0-0.4-0.1-0.7-0.3-0.9C31.2,36.4,31,36.3,30.6,36.3z"/>
	<path class="st0" d="M39,38.4c0,0.8-0.2,1.5-0.6,2c-0.4,0.5-0.9,0.8-1.6,0.8c-0.4,0-0.7-0.1-0.9-0.2c-0.3-0.1-0.5-0.4-0.7-0.6
		L35.1,41H34v-8.2h1.3V36c0.2-0.2,0.4-0.4,0.6-0.6c0.2-0.1,0.5-0.2,0.9-0.2c0.7,0,1.3,0.3,1.6,0.8c0.4,0.6,0.6,1.3,0.6,2.2
		C39,38.2,39,38.4,39,38.4z M37.7,38.3c0-0.6-0.1-1.1-0.3-1.4s-0.5-0.5-1-0.5c-0.3,0-0.5,0.1-0.7,0.2c-0.2,0.1-0.3,0.3-0.5,0.5v2.4
		c0.1,0.2,0.3,0.4,0.5,0.5s0.4,0.2,0.7,0.2c0.4,0,0.8-0.2,1-0.5s0.3-0.7,0.3-1.3V38.3z"/>
	<path class="st0" d="M44.4,39.3h-3L40.8,41h-1.3l2.8-7.7h1.2l2.8,7.7H45L44.4,39.3z M41.8,38.2H44l-1.1-3.3l0,0L41.8,38.2z"/>
	<path class="st0" d="M48.5,38.1V41h-1.3v-7.7h3c0.8,0,1.5,0.2,2,0.7c0.5,0.4,0.7,1,0.7,1.7s-0.2,1.3-0.7,1.7s-1.1,0.6-2,0.6
		L48.5,38.1L48.5,38.1z M48.5,37.1h1.7c0.5,0,0.8-0.1,1.1-0.4c0.2-0.3,0.4-0.6,0.4-1s-0.1-0.7-0.4-1c-0.2-0.3-0.6-0.4-1.1-0.4h-1.7
		V37.1z"/>
	<path class="st0" d="M55.5,41h-1.3v-7.7h1.3V41z"/>
</g>
</svg>
