<?xml version="1.0" encoding="utf-8"?>
<!-- Generator: Adobe Illustrator 21.0.2, SVG Export Plug-In . SVG Version: 6.00 Build 0)  -->
<svg version="1.1" id="Layer_1" xmlns="http://www.w3.org/2000/svg" xmlns:xlink="http://www.w3.org/1999/xlink" x="0px" y="0px"
	 viewBox="0 0 74 74" style="enable-background:new 0 0 74 74;" xml:space="preserve">
<style type="text/css">
	.st0{fill:none;stroke:#006FAF;stroke-width:2;stroke-miterlimit:10;}
	.st1{fill:#006FAF;}
</style>
<title>webkit</title>
<circle class="st0" cx="37" cy="37" r="36"/>
<g>
	<path class="st1" d="M51.7,38.9l-0.1-0.1c-0.2,0.2-0.3,0.4-0.5,0.6l-11.4,7.8c-1.6,1.4-4,1.3-5.6-0.2l-11.5-7.8
		c-1.1,1.4-0.9,3.4,0.4,4.6l11.6,7.8c1.6,1.5,4,1.5,5.6,0.2l11.5-7.8c1.5-1.2,1.7-3.4,0.4-4.9C51.9,39.1,51.8,39,51.7,38.9z"/>
	<path class="st1" d="M22.9,39.1L34,46.6c1.5,1.4,3.8,1.5,5.4,0.2l11.1-7.6c0.2-0.2,0.4-0.3,0.5-0.5c1-1.2,1-2.9,0-4.2
		c-0.1,0.2-0.3,0.3-0.5,0.5l-2.5,1.7l-8.6,5.9c-1.6,1.4-4,1.3-5.5-0.2l-8.1-5.5l-3.1-2.1c-0.1-0.1-0.2-0.2-0.3-0.3
		c-1.1,1.3-1,3.3,0.3,4.5L22.9,39.1z"/>
	<path class="st1" d="M34.1,34.5v-0.9c-0.6-0.5-0.9-1.2-0.8-2c0.1-0.9,0.8-1.6,2-2.2l0.2-0.4l-0.9,0.3l-2.4-1l1.3,1.9l-0.2,0.1
		c-0.9,0.8-0.9,2.1-0.1,3c0,0,0.1,0.1,0.1,0.1l0.1,0.1l-1.2,1.8L34.1,34.5z"/>
	<path class="st1" d="M40.1,32c-0.1,0.8-0.8,1.6-2,2.2l-0.2,0.4l0.9-0.3l2.4,1L40,33.4l0.2-0.1c0.9-0.8,0.9-2.1,0.1-3
		c0,0-0.1-0.1-0.1-0.1L40.1,30l1.2-1.8l-2,0.8v0.9C39.9,30.5,40.2,31.2,40.1,32z"/>
	<polygon class="st1" points="37.1,32 36,31.7 35.9,34.4 	"/>
	<path class="st1" d="M36.8,38.7c5,0,9-3.2,9-7s-4-7-9-7s-9,3.1-9,7S31.8,38.7,36.8,38.7z M38.8,28.7l3.8-1.5L40.7,30
		c0.9,1,0.9,2.5,0,3.5l1.9,2.9l-3.8-1.5L37,35.4l0.9-1.6h0.1c1.1-0.6,1.7-1.2,1.8-1.9c0-0.6-0.3-1.3-0.8-1.7l-0.1-0.1L38.8,28.7z
		 M38.1,26.4l-0.3,5.3l0,0l0,0l0,0l-2.5,4.9l0.2-5.3l0,0l0,0l0,0L38.1,26.4z M32.8,30l-1.9-2.9l3.8,1.5l1.9-0.6l-0.9,1.6h-0.1
		c-1.1,0.6-1.7,1.2-1.8,1.9c0,0.6,0.3,1.3,0.8,1.7l0.1,0.1v1.5l-3.8,1.5l1.9-2.9C31.9,32.4,31.9,31,32.8,30z"/>
	<path class="st1" d="M22.8,34.2l3.1,2.1l8.1,5.5c1.5,1.4,3.8,1.5,5.4,0.2l8.6-5.9l2.5-1.7c0.2-0.1,0.3-0.3,0.5-0.5
		c1.1-1.4,1-3.3-0.3-4.5l-11.1-7.4c-1.5-1.4-3.8-1.5-5.4-0.2L23,29.2c-1.4,1.2-1.6,3.3-0.5,4.7C22.6,34,22.7,34.1,22.8,34.2z
		 M36.8,24.2c5.2,0,9.5,3.4,9.5,7.5s-4.3,7.5-9.5,7.5s-9.5-3.4-9.5-7.5S31.5,24.2,36.8,24.2L36.8,24.2z"/>
	<polygon class="st1" points="35.6,31.2 35.6,31.2 37.8,31.7 37.8,31.6 37.8,31.6 35.6,31.2 	"/>
</g>
</svg>
