<?xml version="1.0" encoding="utf-8"?>
<!-- Generator: Adobe Illustrator 21.0.2, SVG Export Plug-In . SVG Version: 6.00 Build 0)  -->
<svg version="1.1" id="Layer_1" xmlns="http://www.w3.org/2000/svg" xmlns:xlink="http://www.w3.org/1999/xlink" x="0px" y="0px"
	 viewBox="0 0 74 74" style="enable-background:new 0 0 74 74;" xml:space="preserve">
<style type="text/css">
	.st0{fill:#006FAF;}
</style>
<title>os-patch-management</title>
<g id="text">
</g>
<path class="st0" d="M37,74C16.6,74,0,57.4,0,37S16.6,0,37,0s37,16.6,37,37S57.4,74,37,74z M37,2C17.7,2,2,17.7,2,37s15.7,35,35,35
	s35-15.7,35-35S56.3,2,37,2z"/>
<g>
	<g>
		<path class="st0" d="M32.8,47.3c-0.1,0-0.3,0-0.4-0.1c-1.3-0.9-2.7-1.7-4.9-1.7c-1.4,0-3,0.4-4.7,1c-0.3,0.1-0.5,0-0.6-0.1
			s-0.3-0.4-0.1-0.6l2.6-9c0-0.1,0.3-0.4,0.4-0.4c0.3-0.1,0.6-0.3,0.9-0.4c0.9-0.4,2.5-0.8,4-0.9c1.6-0.1,3.1,0.3,4.7,1
			c0.4,0.3,0.8,0.4,1.2,0.6c0.3,0.1,0.4,0.5,0.4,0.8c-0.4,1.2-2.2,7.4-2.7,9.1c0,0.3-0.3,0.4-0.4,0.4C33,47.3,32.8,47.3,32.8,47.3z
			 M27.5,44.1c2.1,0,3.6,0.6,4.9,1.4c0.6-2.1,1.8-6.2,2.3-7.8c-0.3-0.1-0.5-0.3-0.8-0.4c-1.4-0.6-2.7-1-4-0.9
			c-1.4,0.1-2.9,0.5-3.6,0.8c-0.1,0-0.4,0.1-0.5,0.3l-2.2,7.3C25,44.4,26.3,44.1,27.5,44.1z"/>
	</g>
	<g>
		<path class="st0" d="M39.9,50c-2.3,0-5.5-1.7-5.7-1.9c-0.3-0.1-0.4-0.5-0.3-0.8l2.6-9c0-0.3,0.3-0.4,0.4-0.4c0.3,0,0.4,0,0.6,0.1
			c1,0.8,2.7,1.7,5.3,1.7c1.4,0,3.1-0.3,4.8-0.9c0.3-0.1,0.5,0,0.6,0.1s0.3,0.4,0.1,0.6l-2.6,8.7c0,0.1-0.3,0.4-0.4,0.4
			C43.4,49.6,41.5,50,39.9,50z M35.3,47.3c1.2,0.6,3.1,1.6,4.7,1.6c1.4,0,3-0.4,4.9-1l2.1-7.3c-1.4,0.4-2.7,0.6-4,0.6
			c-2.3,0-4.2-0.6-5.3-1.4L35.3,47.3z"/>
	</g>
	<g>
		<path class="st0" d="M36.1,36c-0.1,0-0.3,0-0.4-0.1c-1.3-0.8-2.7-1.7-4.7-1.7c-1.4,0-3,0.4-4.9,1.2c-0.3,0.1-0.5,0-0.6-0.1
			c-0.3-0.1-0.3-0.4-0.3-0.6l2.6-9c0-0.1,0.3-0.4,0.4-0.4c1.9-0.8,3.6-1.2,5.2-1.2l0,0c0.8,0,1.6,0.1,2.3,0.3
			c1.4,0.4,3.4,1.4,3.4,1.6c0.3,0.1,0.3,0.4,0.3,0.5v0.1l-0.5,1.8c-0.6,2.3-1.7,5.8-2.1,7.1c0,0.3-0.3,0.4-0.4,0.4
			C36.2,36,36.1,36,36.1,36z M30.9,32.8c2.1,0,3.5,0.6,4.8,1.4c0.5-1.7,1.3-4.4,1.9-6.4l0.3-1.3c-0.6-0.4-1.8-0.9-2.6-1.2
			c-0.5-0.1-1.3-0.1-1.9-0.1c-1.3,0-2.7,0.4-4.4,0.9l-2.1,7.4C28.3,33.1,29.7,32.8,30.9,32.8z"/>
	</g>
	<g>
		<path class="st0" d="M43.5,38.9c-2.1,0-4.2-0.6-6-1.8L37.4,37c-0.1-0.1-0.3-0.4-0.1-0.6l2.7-9.1c0-0.3,0.3-0.4,0.4-0.4
			c0.3-0.1,0.4,0,0.6,0.1c1,0.8,2.7,1.7,5.3,1.7c1.6,0,3.1-0.4,4.8-1c0.3-0.1,0.5,0,0.6,0.1s0.3,0.4,0.1,0.6l-2.6,8.8
			c0,0.1-0.1,0.3-0.1,0.3L49,37.6C47,38.6,45.2,38.9,43.5,38.9z M38.4,36.2c2.9,1.7,6.1,1.8,9.5,0.4l2.2-7.4
			c-1.4,0.5-2.7,0.6-4.2,0.6c-2.3,0-4-0.6-5.3-1.4L38.4,36.2z"/>
	</g>
</g>
</svg>
