<?xml version="1.0" encoding="utf-8"?>
<!-- Generator: Adobe Illustrator 21.0.2, SVG Export Plug-In . SVG Version: 6.00 Build 0)  -->
<svg version="1.1" id="Layer_1" xmlns="http://www.w3.org/2000/svg" xmlns:xlink="http://www.w3.org/1999/xlink" x="0px" y="0px"
	 viewBox="0 0 74 74" style="enable-background:new 0 0 74 74;" xml:space="preserve">
<style type="text/css">
	.st0{fill:none;stroke:#006FAF;stroke-width:2;stroke-miterlimit:10;}
	.st1{fill:#006FAF;}
</style>
<title>windmill</title>
<circle class="st0" cx="37" cy="37" r="36"/>
<path class="st1" d="M41.8,31.5l6.5-7.2c0.3-0.3,0.3-0.9-0.1-1.2l-1.3-1.3c-0.3-0.3-0.8-0.3-1.2,0l-7.1,6.5c-0.5,0.4-0.7,1-0.8,1.7
	c-0.7-0.2-1.3-0.2-2,0c0-0.6-0.3-1.2-0.8-1.6L28,21.9c-0.3-0.3-0.9-0.3-1.2,0.1l-1.3,1.3c-0.3,0.3-0.3,0.8,0,1.2l6.4,7.1
	c0.4,0.4,1,0.7,1.6,0.7c-0.2,0.7-0.2,1.5,0,2.2c-0.5,0.1-1,0.3-1.4,0.7l-6.4,7c-0.4,0.4-0.3,1.1,0.1,1.5l0.9,0.9
	c0.2,0.2,0.5,0.4,0.8,0.3c0.3,0,0.6-0.1,0.8-0.3l6.3-5.8l-1.3,13H31c-0.3,0-0.6,0.2-0.6,0.5c0,0,0,0,0,0.1V56c0,0.3,0.2,0.6,0.5,0.6
	c0,0,0,0,0.1,0h11.7c0.3,0,0.6-0.2,0.6-0.5c0,0,0,0,0-0.1v-3.5c0-0.3-0.2-0.6-0.5-0.6c0,0,0,0-0.1,0h-2.4L39,38.8l6.4,5.8
	c0.2,0.2,0.5,0.3,0.8,0.3c0.3,0,0.6-0.1,0.8-0.3l0.9-0.9c0.4-0.4,0.4-1.1,0.1-1.5l-6.3-7c-0.4-0.4-0.9-0.7-1.4-0.7
	c0.2-0.7,0.2-1.4,0-2.1C40.8,32.3,41.3,32,41.8,31.5z M39.2,33.3c0,0.5-0.2,1-0.5,1.4c-0.1,0.1-0.3,0.2-0.4,0.3l-0.2,0.2L38,35.3
	h-0.1c-0.7,0.4-1.4,0.4-2.1,0c0,0-0.1-0.1-0.2-0.1L35.5,35c-0.1-0.1-0.3-0.2-0.5-0.3c-0.8-1-0.6-2.5,0.4-3.3c1-0.8,2.5-0.6,3.3,0.4
	C39,32.3,39.2,32.8,39.2,33.3L39.2,33.3z M32.8,30.7l-6.3-6.9l0.9-0.9l6.9,6.3c0.2,0.2,0.4,0.5,0.3,0.8c0.1,0.3-0.1,0.6-0.3,0.8
	c-0.2,0.2-0.5,0.3-0.8,0.3C33.3,31.1,33,31,32.8,30.7L32.8,30.7z M34.5,37.5l-6.9,6.3l-0.9-0.9L33,36c0.2-0.2,0.5-0.4,0.8-0.3
	c0.2,0,0.4,0,0.6,0.1l0.3,0.2c0.1,0.2,0.2,0.5,0.2,0.7C34.9,37,34.7,37.3,34.5,37.5z M42.1,55.4H31.6v-2.3h10.5V55.4z M34.6,51.9
	l1.5-14.9c0-0.1,0-0.2,0-0.4c0.5,0.1,1.1,0.1,1.6,0l1.5,15.2L34.6,51.9z M47,42.9l-0.9,0.9l-6.9-6.3c-0.2-0.2-0.4-0.5-0.3-0.8
	c-0.1-0.3,0.1-0.6,0.3-0.8c0.2-0.2,0.5-0.3,0.8-0.3c0.3,0,0.6,0.1,0.8,0.3L47,42.9z M40.2,31.1c-0.3,0.1-0.6-0.1-0.8-0.3
	C39.1,30.6,39,30.3,39,30c0-0.3,0.1-0.6,0.3-0.8l6.9-6.3l0.9,0.9l-6.2,6.9C40.7,31,40.5,31.1,40.2,31.1z"/>
</svg>
