<?xml version="1.0" encoding="utf-8"?>
<!-- Generator: Adobe Illustrator 21.0.2, SVG Export Plug-In . SVG Version: 6.00 Build 0)  -->
<svg version="1.1" id="Layer_1" xmlns="http://www.w3.org/2000/svg" xmlns:xlink="http://www.w3.org/1999/xlink" x="0px" y="0px"
	 viewBox="0 0 74 74" style="enable-background:new 0 0 74 74;" xml:space="preserve">
<style type="text/css">
	.st0{fill:#006FAF;}
</style>
<title>health-checks</title>
<path class="st0" d="M37,74C16.6,74,0,57.4,0,37S16.6,0,37,0s37,16.6,37,37S57.4,74,37,74z M37,2C17.7,2,2,17.7,2,37s15.7,35,35,35
	s35-15.7,35-35S56.3,2,37,2z"/>
<g>
	<g>
		<path class="st0" d="M24.6,42.3H23v-1.6h1.7v1.6H24.6z"/>
		<path class="st0" d="M34.7,42.3H33L28.6,35l0,0v7.3h-1.7v-10h1.7l4.4,7.3l0,0v-7.3h1.7V42.3z"/>
		<path class="st0" d="M42.9,37.8h-4.4V41h5.1v1.3h-6.7v-10h6.7v1.3h-5v2.8H43L42.9,37.8L42.9,37.8z"/>
		<path class="st0" d="M52,33.7h-3v8.6h-1.7v-8.6h-3v-1.3H52V33.7z"/>
		<path class="st0" d="M28.4,45.8l-1.4,5h-0.7l-1-3.6c0-0.2-0.1-0.3-0.1-0.5l0,0c0,0.2,0,0.3-0.1,0.5l-1,3.6h-0.7l-1.4-5h0.6l1,3.8
			c0,0.2,0.1,0.3,0.1,0.5l0,0c0-0.1,0-0.3,0.1-0.5l1.1-3.8h0.6l1,3.8c0,0.1,0.1,0.3,0.1,0.5l0,0c0-0.1,0-0.3,0.1-0.5l1-3.8H28.4z"/>
		<path class="st0" d="M29.3,46.4c-0.1,0-0.2,0-0.3-0.1c0-0.1,0-0.2,0-0.3s0-0.2,0.1-0.3s0.2-0.1,0.3-0.1c0.1,0,0.2,0,0.3,0.1
			c0.1,0.1,0.1,0.2,0.1,0.3s0,0.2-0.1,0.3C29.5,46.3,29.4,46.4,29.3,46.4z M29.6,50.8H29v-3.5h0.6V50.8z"/>
		<path class="st0" d="M33.7,50.8h-0.6v-2c0-0.7-0.3-1.1-0.8-1.1c-0.3,0-0.5,0.1-0.7,0.3s-0.3,0.5-0.3,0.8v2h-0.6v-3.5h0.6v0.6l0,0
			c0.3-0.4,0.6-0.7,1.2-0.7c0.4,0,0.7,0.1,0.9,0.4s0.3,0.6,0.3,1.1C33.7,48.7,33.7,50.8,33.7,50.8z"/>
		<path class="st0" d="M36.4,46.1C36.3,46,36.2,46,36.1,46c-0.4,0-0.6,0.2-0.6,0.7v0.5h0.8v0.5h-0.8v3h-0.6v-3h-0.6v-0.5h0.6v-0.6
			c0-0.4,0.1-0.7,0.3-0.9s0.5-0.3,0.8-0.3c0.2,0,0.3,0,0.4,0.1V46.1z"/>
		<path class="st0" d="M38.4,50.8c-0.5,0-0.9-0.2-1.2-0.5s-0.5-0.8-0.5-1.3c0-0.6,0.2-1.1,0.5-1.4s0.8-0.5,1.3-0.5s0.9,0.2,1.2,0.5
			s0.4,0.8,0.4,1.3c0,0.6-0.2,1-0.5,1.3C39.3,50.7,38.9,50.8,38.4,50.8z M38.4,47.6c-0.4,0-0.6,0.1-0.9,0.4c-0.2,0.2-0.3,0.6-0.3,1
			s0.1,0.7,0.3,1c0.2,0.2,0.5,0.4,0.9,0.4s0.6-0.1,0.8-0.4c0.2-0.2,0.3-0.6,0.3-1s-0.1-0.8-0.3-1C39.1,47.8,38.8,47.6,38.4,47.6z"/>
		<path class="st0" d="M42.9,47.8c-0.1-0.1-0.2-0.1-0.4-0.1s-0.4,0.1-0.6,0.3c-0.2,0.2-0.2,0.5-0.2,0.9v1.8H41v-3.5h0.6V48l0,0
			c0.1-0.2,0.2-0.4,0.4-0.6c0.2-0.1,0.3-0.2,0.6-0.2c0.1,0,0.3,0,0.3,0S42.9,47.8,42.9,47.8z"/>
		<path class="st0" d="M48.4,50.8h-0.6v-2c0-0.4-0.1-0.7-0.2-0.8c-0.1-0.2-0.3-0.3-0.6-0.3c-0.2,0-0.4,0.1-0.6,0.3
			c-0.2,0.2-0.3,0.5-0.3,0.8v2h-0.6v-2.1c0-0.7-0.3-1-0.8-1c-0.2,0-0.5,0.1-0.6,0.3c-0.2,0.2-0.2,0.5-0.2,0.8v2h-0.6v-3.5H44v0.6
			l0,0c0.2-0.4,0.6-0.6,1.1-0.6c0.2,0,0.4,0.1,0.6,0.2c0.2,0.1,0.3,0.3,0.4,0.5c0.3-0.5,0.6-0.7,1.2-0.7c0.8,0,1.2,0.5,1.2,1.4
			L48.4,50.8L48.4,50.8z"/>
		<path class="st0" d="M49.3,50.6V50c0.3,0.2,0.6,0.3,1,0.3c0.5,0,0.7-0.2,0.7-0.5c0-0.1,0-0.2-0.1-0.2c0-0.1-0.1-0.1-0.2-0.2
			c-0.1-0.1-0.2-0.1-0.3-0.1s-0.2-0.1-0.3-0.1c-0.2-0.1-0.3-0.1-0.4-0.2c-0.1-0.1-0.2-0.1-0.3-0.2c-0.1-0.1-0.1-0.2-0.2-0.3
			c0-0.1-0.1-0.2-0.1-0.4s0-0.3,0.1-0.4c0.1-0.1,0.2-0.2,0.3-0.3s0.3-0.1,0.4-0.2c0.2,0,0.3-0.1,0.5-0.1c0.3,0,0.6,0.1,0.8,0.2v0.6
			c-0.3-0.2-0.6-0.3-0.9-0.3c-0.1,0-0.2,0-0.3,0s-0.2,0.1-0.2,0.1s-0.1,0.1-0.1,0.2c0,0.1-0.1,0.1-0.1,0.2c0,0.1,0,0.2,0.1,0.2
			c0,0.1,0.1,0.1,0.1,0.2c0.1,0,0.1,0.1,0.2,0.1s0.2,0.1,0.3,0.1c0.2,0.1,0.3,0.1,0.4,0.2c0.1,0.1,0.2,0.1,0.3,0.2
			c0.1,0.1,0.2,0.2,0.2,0.3s0.1,0.2,0.1,0.4s0,0.3-0.1,0.5c-0.1,0.1-0.2,0.2-0.3,0.3s-0.3,0.1-0.4,0.2c-0.2,0-0.3,0.1-0.5,0.1
			C49.9,50.8,49.5,50.8,49.3,50.6z"/>
	</g>
	<g>
		<path class="st0" d="M23.6,23.5l1.6,3.9l1.6-3.9h0.8v4.8H27v-1.9l0.1-2l-1.6,3.9H25l-1.6-3.9l0.1,2v1.9h-0.6v-4.8H23.6z"/>
		<path class="st0" d="M28.6,23.8c0-0.1,0-0.2,0.1-0.3c0.1-0.1,0.2-0.1,0.3-0.1c0.1,0,0.2,0,0.3,0.1c0.1,0.1,0.1,0.2,0.1,0.3
			c0,0.1,0,0.2-0.1,0.2c-0.1,0.1-0.2,0.1-0.3,0.1c-0.1,0-0.2,0-0.3-0.1C28.7,24,28.6,23.9,28.6,23.8z M29.3,28.3h-0.6v-3.6h0.6V28.3
			z"/>
		<path class="st0" d="M31.7,27.9c0.1,0,0.2,0,0.3-0.1c0.1,0,0.2-0.1,0.3-0.1c0.1-0.1,0.1-0.1,0.2-0.2c0-0.1,0.1-0.2,0.1-0.3h0.6
			c0,0.2-0.1,0.3-0.1,0.5c-0.1,0.1-0.2,0.3-0.3,0.4s-0.3,0.2-0.4,0.3c-0.2,0.1-0.3,0.1-0.5,0.1c-0.3,0-0.5,0-0.7-0.1
			s-0.4-0.2-0.5-0.4c-0.1-0.2-0.2-0.4-0.3-0.6s-0.1-0.4-0.1-0.7v-0.1c0-0.2,0-0.5,0.1-0.7s0.2-0.4,0.3-0.6c0.1-0.2,0.3-0.3,0.5-0.4
			s0.4-0.1,0.7-0.1c0.2,0,0.4,0,0.6,0.1c0.2,0.1,0.3,0.2,0.4,0.3c0.1,0.1,0.2,0.3,0.3,0.4c0.1,0.2,0.1,0.3,0.1,0.5h-0.6
			c0-0.1,0-0.2-0.1-0.3c0-0.1-0.1-0.2-0.2-0.3c-0.1-0.1-0.2-0.1-0.3-0.2c-0.1,0-0.2-0.1-0.3-0.1c-0.2,0-0.3,0-0.5,0.1
			c-0.1,0.1-0.2,0.2-0.3,0.3c-0.1,0.1-0.1,0.3-0.2,0.4c0,0.2,0,0.3,0,0.5v0.1c0,0.2,0,0.3,0,0.5s0.1,0.3,0.2,0.4s0.2,0.2,0.3,0.3
			C31.4,27.9,31.5,27.9,31.7,27.9z"/>
		<path class="st0" d="M35.6,25.3C35.5,25.3,35.5,25.3,35.6,25.3c-0.1,0-0.2,0-0.3,0c-0.2,0-0.4,0-0.5,0.1s-0.2,0.2-0.3,0.4v2.5
			h-0.6v-3.6h0.6v0.4c0.1-0.1,0.2-0.3,0.3-0.4s0.3-0.1,0.5-0.1c0,0,0.1,0,0.2,0c0.1,0,0.1,0,0.1,0V25.3z"/>
		<path class="st0" d="M35.9,26.5c0-0.3,0-0.5,0.1-0.7s0.2-0.4,0.3-0.6s0.3-0.3,0.5-0.4s0.4-0.1,0.7-0.1s0.5,0,0.7,0.1
			s0.4,0.2,0.5,0.4c0.1,0.2,0.3,0.4,0.3,0.6c0.1,0.2,0.1,0.5,0.1,0.7v0.1c0,0.3,0,0.5-0.1,0.7s-0.2,0.4-0.3,0.6s-0.3,0.3-0.5,0.4
			s-0.4,0.1-0.7,0.1s-0.5,0-0.7-0.1s-0.4-0.2-0.5-0.4c-0.1-0.2-0.3-0.4-0.3-0.6C35.9,27.1,35.9,26.8,35.9,26.5L35.9,26.5z
			 M36.5,26.6c0,0.2,0,0.3,0.1,0.5c0,0.2,0.1,0.3,0.2,0.4c0.1,0.1,0.2,0.2,0.3,0.3c0.1,0.1,0.3,0.1,0.4,0.1c0.2,0,0.3,0,0.4-0.1
			c0.1-0.1,0.2-0.2,0.3-0.3c0.1-0.1,0.1-0.3,0.2-0.4c0-0.2,0.1-0.3,0.1-0.5v-0.1c0-0.2,0-0.3-0.1-0.5c0-0.2-0.1-0.3-0.2-0.4
			c-0.1-0.1-0.2-0.2-0.3-0.3c-0.1-0.1-0.3-0.1-0.4-0.1c-0.2,0-0.3,0-0.4,0.1c-0.1,0.1-0.2,0.2-0.3,0.3c-0.1,0.1-0.1,0.3-0.2,0.4
			C36.5,26.2,36.5,26.3,36.5,26.6L36.5,26.6z"/>
		<path class="st0" d="M42,27.4c0-0.1,0-0.1,0-0.2s-0.1-0.1-0.1-0.2c-0.1-0.1-0.1-0.1-0.3-0.1c-0.1,0-0.3-0.1-0.4-0.1
			c-0.2,0-0.4-0.1-0.5-0.1c-0.2-0.1-0.3-0.1-0.4-0.2c-0.1-0.1-0.2-0.2-0.3-0.3c-0.1-0.1-0.1-0.2-0.1-0.4c0-0.1,0-0.3,0.1-0.4
			s0.2-0.2,0.3-0.3c0.1-0.1,0.3-0.2,0.4-0.2c0.2-0.1,0.3-0.1,0.5-0.1s0.4,0,0.6,0.1c0.2,0.1,0.3,0.1,0.4,0.2
			c0.1,0.1,0.2,0.2,0.3,0.4c0.1,0.1,0.1,0.3,0.1,0.4H42c0-0.1,0-0.1-0.1-0.2c0-0.1-0.1-0.1-0.1-0.2c-0.1-0.1-0.1-0.1-0.2-0.1
			c-0.1,0-0.2-0.1-0.3-0.1s-0.2,0-0.3,0s-0.2,0.1-0.2,0.1s-0.1,0.1-0.1,0.2s0,0.1,0,0.2s0,0.1,0,0.2s0.1,0.1,0.1,0.1
			c0.1,0,0.1,0.1,0.3,0.1c0.1,0,0.2,0.1,0.4,0.1c0.2,0.1,0.4,0.1,0.6,0.2c0.2,0.1,0.3,0.1,0.4,0.2s0.2,0.2,0.2,0.3
			c0.1,0.1,0.1,0.2,0.1,0.4c0,0.2,0,0.3-0.1,0.4s-0.2,0.2-0.3,0.3c-0.1,0.1-0.3,0.2-0.4,0.2c-0.2,0.1-0.4,0.1-0.6,0.1
			c-0.2,0-0.4,0-0.6-0.1c-0.2-0.1-0.3-0.2-0.5-0.3c-0.1-0.1-0.2-0.2-0.3-0.4c-0.1-0.1-0.1-0.3-0.1-0.4h0.6c0,0.1,0,0.2,0.1,0.3
			c0.1,0.1,0.1,0.2,0.2,0.2c0.1,0.1,0.2,0.1,0.3,0.1s0.2,0,0.3,0s0.2,0,0.3,0s0.2-0.1,0.2-0.1c0.1,0,0.1-0.1,0.1-0.2
			S42,27.4,42,27.4z"/>
		<path class="st0" d="M43.3,26.5c0-0.3,0-0.5,0.1-0.7s0.2-0.4,0.3-0.6s0.3-0.3,0.5-0.4s0.4-0.1,0.7-0.1s0.5,0,0.7,0.1
			s0.4,0.2,0.5,0.4s0.2,0.4,0.3,0.6s0.1,0.5,0.1,0.7v0.1c0,0.3,0,0.5-0.1,0.7s-0.2,0.4-0.3,0.6s-0.3,0.3-0.5,0.4s-0.4,0.1-0.7,0.1
			s-0.5,0-0.7-0.1s-0.4-0.2-0.5-0.4s-0.3-0.4-0.3-0.6C43.3,27.1,43.3,26.8,43.3,26.5L43.3,26.5z M43.9,26.6c0,0.2,0,0.3,0.1,0.5
			c0,0.2,0.1,0.3,0.2,0.4c0.1,0.1,0.2,0.2,0.3,0.3c0.1,0.1,0.3,0.1,0.4,0.1c0.2,0,0.3,0,0.4-0.1c0.1-0.1,0.2-0.2,0.3-0.3
			c0.1-0.1,0.1-0.3,0.2-0.4c0-0.2,0.1-0.3,0.1-0.5v-0.1c0-0.2,0-0.3-0.1-0.5c0-0.2-0.1-0.3-0.2-0.4c-0.1-0.1-0.2-0.2-0.3-0.3
			c-0.1-0.1-0.3-0.1-0.4-0.1c-0.2,0-0.3,0-0.4,0.1c-0.1,0.1-0.2,0.2-0.3,0.3C44.1,25.7,44,25.8,44,26C43.9,26.2,43.9,26.3,43.9,26.6
			L43.9,26.6z"/>
		<path class="st0" d="M47.6,28.3v-3.1H47v-0.5h0.6v-0.4c0-0.2,0-0.4,0.1-0.5s0.1-0.3,0.2-0.4c0.1-0.1,0.2-0.2,0.4-0.2
			c0.1-0.1,0.3-0.1,0.5-0.1c0.1,0,0.3,0,0.4,0.1v0.5c0,0-0.1,0-0.2,0c-0.1,0-0.1,0-0.2,0c-0.2,0-0.4,0.1-0.5,0.2s-0.2,0.3-0.2,0.5
			v0.4H49v0.5h-0.8v3.1h-0.6V28.3z"/>
		<path class="st0" d="M50.5,23.9v0.9h0.7v0.5h-0.7v2.2c0,0.1,0,0.2,0,0.2l0.1,0.1l0.1,0.1h0.1c0.1,0,0.1,0,0.2,0c0.1,0,0.1,0,0.1,0
			v0.5c0,0-0.1,0-0.2,0c-0.1,0-0.2,0-0.3,0s-0.2,0-0.3,0s-0.2-0.1-0.3-0.2c0.1-0.1,0-0.2,0-0.3s-0.1-0.3-0.1-0.5v-2.2h-0.7v-0.5h0.7
			v-0.9h0.6V23.9z"/>
	</g>
</g>
</svg>
