<?xml version="1.0" encoding="utf-8"?>
<!-- Generator: Adobe Illustrator 21.0.2, SVG Export Plug-In . SVG Version: 6.00 Build 0)  -->
<svg version="1.1" id="Layer_1" xmlns="http://www.w3.org/2000/svg" xmlns:xlink="http://www.w3.org/1999/xlink" x="0px" y="0px"
	 viewBox="0 0 74 74" style="enable-background:new 0 0 74 74;" xml:space="preserve">
<style type="text/css">
	.st0{fill:none;stroke:#006FAF;stroke-width:2;stroke-miterlimit:10;}
	.st1{fill:#006FAF;}
	.st2{font-family:'SegoeUI-Bold';}
	.st3{font-size:4.38px;}
</style>
<title>WTForms</title>
<circle class="st0" cx="37" cy="37" r="36"/>
<circle class="st1" cx="36.8" cy="30.1" r="0.3"/>
<circle class="st1" cx="38.5" cy="37.8" r="0.3"/>
<path class="st1" d="M48.8,26.6l-4.5-4.5c-0.1-0.1-0.3-0.2-0.5-0.2H27.1c-0.4,0-0.7,0.3-0.7,0.7l0,0v27.1c0,0.4,0.3,0.7,0.7,0.7
	h21.2c0.4,0,0.7-0.3,0.7-0.7V27.1C49,26.9,48.9,26.8,48.8,26.6z M44.5,24.2l2.2,2.2h-2.2C44.5,26.5,44.5,24.2,44.5,24.2z M27.8,23.3
	h15.4v0.9H27.8L27.8,23.3z M47.7,49H27.8V25.5h15.4v1.6c0,0.4,0.3,0.7,0.7,0.7h3.8C47.7,27.8,47.7,49,47.7,49z"/>
<path class="st1" d="M41.9,31h-1.3v-1.3c0-1-1.3-1.8-2.9-1.8s-2.9,0.8-2.9,1.8V31h-1.3c-1,0-1.8,1.3-1.8,2.9s0.8,2.9,1.8,2.9h1.3
	v1.3c0,1,1.3,1.8,2.9,1.8s2.9-0.8,2.9-1.8v-1.3h1.3c1,0,1.8-1.3,1.8-2.9S42.9,31,41.9,31z M34.5,35.1v0.4h-1c-0.4-0.4-0.5-1-0.5-1.6
	c-0.1-0.6,0.1-1.1,0.5-1.6h4.2c0.4,0,0.7-0.3,0.7-0.7v-0.3c0-0.4-0.3-0.7-0.7-0.7h-1.6v-1c0.4-0.4,1-0.5,1.6-0.5
	c0.6-0.1,1.1,0.1,1.6,0.5v3c0,0.2-0.2,0.4-0.4,0.4c0,0,0,0,0,0h-2.4C35.4,33.2,34.5,34,34.5,35.1z M41.9,35.5h-4.2
	c-0.4,0-0.7,0.3-0.7,0.7v0.3c0,0.4,0.3,0.7,0.7,0.7h1.6v1c-0.4,0.4-1,0.5-1.6,0.5c-0.6,0.1-1.1-0.1-1.6-0.5v-3
	c0-0.2,0.2-0.4,0.4-0.4c0,0,0,0,0,0h2.4c1.1,0,2-0.9,2-2v-0.4h1c0.4,0.4,0.5,1,0.5,1.6C42.4,34.5,42.2,35.1,41.9,35.5L41.9,35.5z"/>
<text transform="matrix(1 0 0 1 35.11 45.52)" class="st1 st2 st3">W</text>
<text transform="matrix(1 0 0 1 39.57 45.52)" class="st1 st2 st3">T</text>
</svg>
