<?xml version="1.0" encoding="utf-8"?>
<!-- Generator: Adobe Illustrator 21.0.2, SVG Export Plug-In . SVG Version: 6.00 Build 0)  -->
<svg version="1.1" id="Layer_1" xmlns="http://www.w3.org/2000/svg" xmlns:xlink="http://www.w3.org/1999/xlink" x="0px" y="0px"
	 viewBox="0 0 74 74" style="enable-background:new 0 0 74 74;" xml:space="preserve">
<style type="text/css">
	.st0{fill:none;stroke:#006FAF;stroke-width:2;stroke-miterlimit:10;}
	.st1{fill:#006FAF;}
</style>
<title>os-patch-management</title>
<g id="text">
</g>
<g>
	<circle class="st0" cx="37" cy="37" r="36"/>
	<g>
		<path class="st1" d="M23.2,35.7l2.1-3.7h2l-3.1,5l3.2,5.1h-2l-2.2-3.8L21,42h-2l3.2-5.1l-3.1-5h2L23.2,35.7z"/>
		<path class="st1" d="M30.4,42h-1.7v-1.6h1.7V42z"/>
		<path class="st1" d="M32.7,37.5l0.6-5.6h5.3v1.5h-3.9l-0.3,2.5c0.2-0.1,0.4-0.3,0.7-0.4c0.3-0.1,0.6-0.1,0.9-0.2
			c0.9,0,1.7,0.3,2.2,0.9c0.5,0.6,0.8,1.4,0.8,2.5c0,1-0.3,1.8-0.8,2.4c-0.6,0.6-1.4,0.9-2.4,0.9c-0.9,0-1.6-0.2-2.2-0.7
			c-0.6-0.5-0.9-1.2-0.9-2.1l0,0l1.6-0.1c0,0.5,0.1,0.9,0.4,1.1c0.3,0.3,0.7,0.4,1.1,0.4c0.5,0,0.9-0.2,1.2-0.6s0.4-0.9,0.4-1.5
			S37.3,37.4,37,37s-0.7-0.6-1.2-0.6s-0.8,0.1-1,0.2s-0.4,0.4-0.5,0.7L32.7,37.5z"/>
		<path class="st1" d="M47,38.2c0,1.3-0.3,2.3-0.9,3c-0.6,0.7-1.4,1-2.4,1s-1.8-0.3-2.4-1c-0.6-0.7-0.9-1.7-0.9-3v-2.3
			c0-1.3,0.3-2.3,0.9-3c0.6-0.7,1.4-1,2.4-1s1.8,0.3,2.4,1c0.6,0.7,0.9,1.7,0.9,3V38.2z M45.3,35.6c0-0.8-0.1-1.4-0.4-1.8
			s-0.7-0.6-1.2-0.6s-0.9,0.2-1.2,0.6c-0.3,0.4-0.4,1-0.4,1.8v2.8c0,0.8,0.1,1.4,0.4,1.8c0.3,0.4,0.7,0.6,1.2,0.6s0.9-0.2,1.2-0.6
			c0.3-0.4,0.4-1,0.4-1.8V35.6z"/>
		<path class="st1" d="M51.3,40.8c0.6,0,1.1-0.2,1.5-0.7c0.4-0.4,0.6-1.1,0.6-1.9v-0.5c-0.2,0.3-0.5,0.5-0.8,0.7s-0.7,0.2-1.1,0.2
			c-1,0-1.7-0.3-2.3-0.9c-0.6-0.6-0.8-1.4-0.8-2.5c0-1,0.3-1.8,0.9-2.5c0.6-0.7,1.4-1,2.3-1c1,0,1.9,0.3,2.5,1s0.9,1.7,0.9,3v2.4
			c0,1.3-0.3,2.3-1,3s-1.6,1.1-2.7,1.1c-0.3,0-0.7,0-1.1-0.1c-0.4-0.1-0.7-0.2-1-0.3l0.2-1.3c0.3,0.1,0.6,0.2,0.9,0.3
			S50.9,40.8,51.3,40.8z M51.6,37.4c0.4,0,0.8-0.1,1.1-0.2c0.3-0.2,0.5-0.4,0.7-0.6v-0.9c0-0.8-0.2-1.4-0.5-1.8
			c-0.3-0.4-0.7-0.6-1.3-0.6c-0.5,0-0.8,0.2-1.1,0.6S50,34.7,50,35.3s0.1,1.1,0.4,1.5C50.7,37.2,51.1,37.4,51.6,37.4z"/>
	</g>
</g>
</svg>
