<?xml version="1.0" encoding="utf-8"?>
<!-- Generator: Adobe Illustrator 21.0.2, SVG Export Plug-In . SVG Version: 6.00 Build 0)  -->
<svg version="1.1" id="Layer_1" xmlns="http://www.w3.org/2000/svg" xmlns:xlink="http://www.w3.org/1999/xlink" x="0px" y="0px"
	 viewBox="0 0 74 74" style="enable-background:new 0 0 74 74;" xml:space="preserve">
<style type="text/css">
	.st0{fill:none;stroke:#006FAF;stroke-width:2;stroke-miterlimit:10;}
	.st1{fill:#006FAF;}
</style>
<title>xamarine</title>
<circle class="st0" cx="37" cy="37" r="36"/>
<path class="st1" d="M29.6,21.4c-1,0-1.9,0.5-2.3,1.4l-7.4,12.9c-0.5,0.8-0.5,1.9,0,2.7l7.4,12.9c0.5,0.8,1.3,1.3,2.3,1.4h14.8
	c1,0,1.9-0.5,2.3-1.4l7.4-12.9c0.5-0.8,0.5-1.9,0-2.7l-7.4-12.9c-0.5-0.8-1.3-1.3-2.3-1.4L29.6,21.4z M29.7,29h2.6
	c0.1,0,0.2,0.1,0.3,0.2l4.3,7.7l0,0l4.3-7.7c0.1-0.1,0.2-0.2,0.3-0.2h2.6c0.2,0,0.3,0.2,0.3,0.4c0,0,0,0,0,0.1L40.2,37l4.2,7.6
	c0.1,0.2,0,0.4-0.2,0.5c0,0,0,0-0.1,0h-2.6c-0.1,0-0.2-0.1-0.3-0.2l-4.3-7.7l0,0L32.6,45c-0.1,0.1-0.2,0.2-0.3,0.2h-2.6
	c-0.2,0-0.3-0.2-0.3-0.4c0,0,0,0,0-0.1l4.2-7.6l-4.2-7.6C29.4,29.3,29.5,29,29.7,29L29.7,29z"/>
</svg>
