<?xml version="1.0" encoding="utf-8"?>
<!-- Generator: Adobe Illustrator 21.0.2, SVG Export Plug-In . SVG Version: 6.00 Build 0)  -->
<svg version="1.1" id="Layer_1" xmlns="http://www.w3.org/2000/svg" xmlns:xlink="http://www.w3.org/1999/xlink" x="0px" y="0px"
	 viewBox="0 0 74 74" style="enable-background:new 0 0 74 74;" xml:space="preserve">
<style type="text/css">
	.st0{fill:none;stroke:#006FAF;stroke-width:2;stroke-miterlimit:10;}
	.st1{fill:#006FAF;}
</style>
<circle class="st0" cx="37" cy="37" r="36"/>
<g>
	<path class="st1" d="M45.3,34.2c0.1-0.2,0.1-0.4,0.2-0.6c0.6-2.2,1.2-4.4,2.1-6.5c0.4-0.9,1-1.5,2-1.6c0.7-0.1,1.4-0.1,1.8,0.5
		c0.3,0.4,0.6,0.6,1.1,0.7c0.2,0,0.4,0.1,0.7,0.2s0.4,0,0.5-0.3c0.3-0.9,0.5-1.8,0.8-2.6c0.3-1,0.3-1-0.7-1.3
		c-0.4-0.1-0.8-0.2-1.2,0c-0.7,0.3-1.3,0.2-1.9-0.4c-0.6-0.6-1.2-1-2-1.3c-2.3-0.8-4.6-1.1-7-0.8c-1.2,0.2-2.3,0.5-3.3,1.2
		c-0.1,0.1-0.3,0.2-0.4,0.3c1.3-0.1,2.6-0.1,3.9,0c0.9,0.1,1.6,0.4,2.2,1.1c0.6,0.8,0.7,1.7,0.8,2.6c0.1,1.3-0.1,2.5-0.5,3.8
		s-0.7,2.6-1.1,4c-0.1,0.2-0.1,0.3,0.1,0.4C44,33.8,44.6,34,45.3,34.2z"/>
	<path class="st1" d="M39.1,54c0.6,0.1,1.1-0.2,1.5-0.8c0.2-0.3,0.3-0.7,0.4-1.1c1-4,1.9-8,2.9-12c0.4-1.7,0.8-3.3,1.2-5
		c0.1-0.3,0-0.5-0.3-0.5c-0.4-0.1-0.8-0.2-1.3-0.4c-0.8-0.2-0.6-0.2-0.9,0.4c-1.9,5.4-3.8,10.9-5.7,16.3c-0.1,0.2-0.2,0.5-0.2,0.7
		C36.7,53,37.6,54,39.1,54z"/>
	<path class="st1" d="M19.5,29.8c0,0.3,0.1,0.6,0.1,0.9c0.3,1.9,0.6,3.9,0.9,5.8s0.6,3.9,0.9,5.8c0.3,2,0.6,3.9,0.9,5.9
		c0.2,1.2,0.4,2.5,0.6,3.7c0,0.3,0.1,0.4,0.4,0.3c1.8-0.3,3.7-0.6,5.5-0.9c2.6-0.4,5.2-0.8,7.9-1.2c0.1,0,0.2-0.1,0.3-0.2
		c-0.1-0.1-0.2-0.2-0.3-0.2c-1.4,0.2-2.9,0.4-4.3,0.6c-2.9,0.5-5.8,0.9-8.7,1.4c-0.3,0.1-0.4,0-0.4-0.3c-0.2-1.3-0.4-2.5-0.5-3.8
		c-0.4-2.8-0.8-5.6-1.3-8.3c-0.5-3-0.9-6.1-1.4-9.1c-0.1-0.3,0.1-0.5,0.4-0.5c0.6-0.1,1.2-0.2,1.7-0.3c2.4-0.4,4.8-0.8,7.1-1.2
		c2.1-0.3,4.2-0.7,6.2-1c1.9-0.3,3.9-0.6,5.8-0.9c0.9-0.2,1.8-0.3,2.7-0.5c0.1,0,0.2-0.2,0.3-0.3c-0.1-0.1-0.2-0.1-0.4-0.1h-0.1
		c-1.1,0.2-2.3,0.4-3.4,0.6c-2.4,0.4-4.8,0.8-7.1,1.2c-2.2,0.4-4.4,0.7-6.7,1.1s-4.6,0.8-6.8,1.1C19.6,29.5,19.4,29.6,19.5,29.8z"/>
	<path class="st1" d="M48.3,26.5c-0.1,0-0.1,0-0.2,0c0,0.3-0.1,0.5-0.1,0.8c0.1,0.8,0.3,1.6,0.4,2.4c0.4,2.2,0.7,4.4,1.1,6.6
		s0.7,4.4,1.1,6.6c0.2,1.4,0.5,2.8,0.7,4.2c0,0.2,0,0.4-0.3,0.4c-1.9,0.3-3.9,0.6-5.8,0.9c-0.9,0.1-1.8,0.3-2.8,0.5
		c-0.1,0-0.2,0.1-0.2,0.2c0.1,0.1,0.2,0.1,0.3,0.1c0.3,0,0.6-0.1,0.9-0.1c2.1-0.3,4.3-0.7,6.4-1c0.6-0.1,1.3-0.2,2-0.3
		C50.6,40.6,49.4,33.5,48.3,26.5z"/>
	<path class="st1" d="M40.6,39.2c0.2-0.2,0.2-0.4,0-0.6c-0.6-0.8-1.2-1.5-1.9-2.3c-1.8-2.1-3.5-4.3-5.3-6.4
		c-0.1-0.2-0.3-0.4-0.3-0.6c-0.1-0.4,0.2-0.8,0.6-1c0.5-0.2,0.8-0.1,1.2,0.4c1.7,2.1,3.5,4.2,5.2,6.2c0.4,0.5,0.8,1,1.3,1.5
		c0.2-0.2,0.2-0.4,0-0.6c-0.7-0.8-1.4-1.7-2.1-2.5c-1.4-1.7-2.8-3.3-4.2-5c-0.6-0.7-1.4-0.7-2-0.2s-0.6,1.3-0.1,2
		c2.2,2.6,4.4,5.3,6.5,7.9C40,38.4,40.3,38.8,40.6,39.2z"/>
	<path class="st1" d="M33.6,34.9c-0.1-0.1-0.2-0.1-0.2-0.2c-0.7-0.3-1.4-0.5-2.1-0.8c-0.2-0.1-0.3,0-0.4,0.2
		c-1.3,3.1-2.5,6.2-3.8,9.4c-0.1,0.2,0,0.3,0.2,0.4c0.7,0.3,1.3,0.5,2,0.8c0.4,0.2,0.5,0.1,0.6-0.3c1.2-3.1,2.4-6.2,3.7-9.3
		C33.6,35.2,33.6,35.1,33.6,34.9z"/>
	<path class="st1" d="M40.3,39.3c-0.5-0.6-1-1.2-1.4-1.7c-0.3-0.5-0.7-0.8-1.4-0.5c-0.2,0.1-0.3,0.1-0.5,0.1c-1.4,0.2-2.7,0.5-4,0.7
		c-0.2,0-0.4,0.1-0.5,0.3c-0.3,0.7-0.5,1.5-0.8,2.2c0,0.1,0,0.2-0.1,0.3C34.6,40.2,37.4,39.7,40.3,39.3z"/>
	<path class="st1" d="M29,38.4c-1.7,0.3-3.2,0.5-4.8,0.8c0.1,0.8,0.2,1.5,0.3,2.2c0,0.3,0.2,0.4,0.5,0.3c0.8-0.1,1.7-0.2,2.5-0.3
		c0.3,0,0.4-0.1,0.5-0.4c0.3-0.7,0.6-1.5,0.9-2.2C28.9,38.6,28.9,38.5,29,38.4z"/>
	<path class="st1" d="M46.7,44.6c-1-0.6-2-1.2-3-1.8c0,0.2,0,0.4,0.1,0.5c0.2,0.2,0.4,0.4,0.7,0.5c0.3,0.2,0.7,0.3,1.1,0.5
		c0.5,0.3,0.9,0.6,0.9,1.2c0,0.1,0.1,0.2,0.1,0.3c0.1,0,0.1,0,0.1-0.1l0.1-0.1c0.6-0.9,0.6-1.9,0.4-2.9c-0.3-1.1-0.8-2.1-1.9-2.7
		c-0.3-0.2-0.5,0-0.7,0.1c-0.2,0.2-0.4,0.4-0.3,0.7c0.2-0.1,0.3-0.2,0.4-0.3c0.3-0.3,0.5-0.2,0.8,0C46.4,41.5,47.1,43.5,46.7,44.6z"
		/>
	<path class="st1" d="M26.4,48.9c0,0,0.1,0,0.1,0.1c1-1.2,2-2.5,3-3.8c-0.2-0.1-0.2-0.1-0.3-0.2c-0.6-0.3-1.3-0.5-1.9-0.8
		c-0.3-0.1-0.4,0-0.4,0.3c-0.1,0.8-0.2,1.7-0.3,2.5C26.5,47.6,26.5,48.3,26.4,48.9z"/>
	<path class="st1" d="M32.9,31.5c-0.6,0.1-1,0.3-1.2,0.8c-0.2,0.4-0.3,0.7-0.5,1.1c-0.1,0.2-0.1,0.3,0.2,0.4c0.7,0.2,1.4,0.5,2,0.7
		c0.2,0.1,0.3,0,0.4-0.2c0.2-0.4,0.3-0.8,0.5-1.1c0.2-0.5,0.1-0.9-0.3-1.2C33.7,31.8,33.3,31.7,32.9,31.5z"/>
	<path class="st1" d="M44.7,38.4c0.8-0.1,1.7-0.2,2.5-0.4c0.1,0,0.2-0.2,0.2-0.3c-0.1-0.7-0.2-1.3-0.4-2c0-0.1-0.2-0.2-0.3-0.2
		c-0.4,0-0.8,0.1-1.3,0.2c-0.2,0-0.4,0.1-0.2,0.4C45.6,36,46,36,46.4,36c0.1,0,0.3,0.1,0.3,0.1c0.1,0.5,0.2,1,0.3,1.6
		c-0.7,0.1-1.3,0.2-1.9,0.3C44.9,38,44.7,38.1,44.7,38.4z"/>
	<path class="st1" d="M45.3,34.2c-0.7-0.2-1.3-0.4-2-0.6c-0.2-0.1-0.2-0.2-0.1-0.4c0.4-1.3,0.7-2.6,1.1-4c0.4-1.2,0.6-2.5,0.5-3.8
		c-0.1-0.9-0.2-1.8-0.8-2.6c-0.6-0.7-1.4-1-2.2-1.1c-1.3-0.2-2.5-0.2-3.9,0c0.1-0.1,0.2-0.2,0.4-0.3c1-0.7,2.1-1,3.3-1.2
		c2.4-0.4,4.8,0,7,0.8c0.8,0.3,1.5,0.7,2,1.3c0.6,0.6,1.2,0.7,1.9,0.4c0.4-0.2,0.8-0.1,1.2,0c1,0.3,1,0.3,0.7,1.3
		c-0.3,0.9-0.5,1.8-0.8,2.6c-0.1,0.3-0.2,0.4-0.5,0.3c-0.2-0.1-0.4-0.1-0.7-0.2c-0.5-0.1-0.8-0.3-1.1-0.7c-0.5-0.6-1.1-0.6-1.8-0.5
		c-1,0.1-1.6,0.6-2,1.6c-0.8,2.1-1.5,4.3-2.1,6.5C45.4,33.8,45.3,34,45.3,34.2z"/>
	<path class="st1" d="M39.1,54c-1.5,0-2.4-1-2.4-2.3c0-0.2,0.1-0.5,0.2-0.7c1.9-5.4,3.8-10.9,5.7-16.3c0.2-0.6,0.1-0.7,0.9-0.4
		c0.4,0.1,0.8,0.3,1.3,0.4c0.3,0.1,0.4,0.2,0.3,0.5c-0.4,1.7-0.8,3.3-1.2,5c-1,4-1.9,8-2.9,12c-0.1,0.4-0.2,0.7-0.4,1.1
		C40.2,53.8,39.7,54,39.1,54z"/>
	<path class="st1" d="M19.5,29.8c-0.1-0.2,0-0.3,0.3-0.3c2.3-0.4,4.6-0.7,6.8-1.1s4.4-0.7,6.7-1.1c2.4-0.4,4.8-0.8,7.1-1.2
		c1.1-0.2,2.3-0.4,3.4-0.6h0.1c0.1,0,0.2,0.1,0.4,0.1c-0.1,0.1-0.2,0.3-0.3,0.3c-0.9,0.2-1.8,0.3-2.7,0.5c-1.9,0.3-3.9,0.6-5.8,0.9
		c-2.1,0.3-4.2,0.7-6.2,1c-2.4,0.4-4.8,0.8-7.1,1.2c-0.6,0.1-1.2,0.2-1.7,0.3c-0.3,0-0.4,0.2-0.4,0.5c0.5,3,0.9,6.1,1.4,9.1
		c0.4,2.8,0.8,5.6,1.3,8.3c0.2,1.2,0.4,2.5,0.5,3.8c0,0.3,0.1,0.4,0.4,0.3c2.9-0.5,5.8-0.9,8.7-1.4c1.4-0.2,2.9-0.4,4.3-0.6
		c0.1,0,0.2,0.1,0.3,0.2c-0.1,0.1-0.2,0.2-0.3,0.2c-2.6,0.4-5.2,0.8-7.9,1.2c-1.8,0.3-3.7,0.6-5.5,0.9c-0.3,0.1-0.4-0.1-0.4-0.3
		c-0.2-1.2-0.4-2.5-0.6-3.7c-0.3-2-0.6-3.9-0.9-5.9c-0.3-1.9-0.6-3.9-0.9-5.8c-0.3-1.9-0.6-3.9-0.9-5.8
		C19.6,30.4,19.6,30.2,19.5,29.8z"/>
	<path class="st1" d="M48.3,26.5c1.2,7.1,2.4,14.1,3.5,21.2c-0.7,0.1-1.3,0.2-2,0.3c-2.1,0.3-4.3,0.7-6.4,1c-0.3,0-0.6,0.1-0.9,0.1
		c-0.1,0-0.2-0.1-0.3-0.1c0.1-0.1,0.1-0.2,0.2-0.2c0.9-0.2,1.8-0.3,2.8-0.5c1.9-0.3,3.9-0.6,5.8-0.9c0.3,0,0.3-0.2,0.3-0.4
		c-0.2-1.4-0.5-2.8-0.7-4.2c-0.4-2.2-0.7-4.4-1.1-6.6c-0.4-2.2-0.7-4.4-1.1-6.6c-0.1-0.8-0.3-1.6-0.4-2.4c0-0.2,0.1-0.5,0.1-0.8
		C48.1,26.5,48.2,26.5,48.3,26.5z"/>
	<path class="st1" d="M40.6,39.2c-0.3-0.4-0.6-0.7-0.9-1.1c-2.2-2.6-4.4-5.3-6.5-7.9c-0.6-0.7-0.5-1.4,0.1-2s1.5-0.5,2,0.2
		c1.4,1.7,2.8,3.3,4.2,5c0.7,0.8,1.4,1.7,2.1,2.5c0.2,0.2,0.2,0.4,0,0.6c-0.4-0.5-0.9-1-1.3-1.5c-1.7-2.1-3.5-4.2-5.2-6.2
		c-0.4-0.5-0.8-0.6-1.2-0.4s-0.7,0.6-0.6,1c0,0.2,0.2,0.5,0.3,0.6c1.8,2.1,3.5,4.3,5.3,6.4c0.6,0.8,1.2,1.5,1.9,2.3
		C40.8,38.8,40.8,38.9,40.6,39.2z"/>
	<path class="st1" d="M33.6,34.9c-0.1,0.2-0.1,0.2-0.1,0.3c-1.2,3.1-2.4,6.2-3.7,9.3c-0.1,0.4-0.3,0.4-0.6,0.3
		c-0.6-0.3-1.3-0.5-2-0.8c-0.2-0.1-0.3-0.2-0.2-0.4c1.3-3.1,2.5-6.2,3.8-9.4c0.1-0.2,0.2-0.3,0.4-0.2c0.7,0.3,1.4,0.5,2.1,0.8
		C33.5,34.8,33.6,34.9,33.6,34.9z M31.3,34.4c-0.2,0.4-0.3,0.8-0.5,1.2c-1,2.5-2.1,5.1-3.1,7.6c-0.1,0.3-0.1,0.4,0.2,0.5
		c0.4,0.1,0.8,0.3,1.2,0.5c0.3,0.2,0.4,0.1,0.5-0.2c0.8-2,1.6-4,2.4-6c0.4-1,0.8-1.9,1.1-2.9C32.5,34.9,31.9,34.7,31.3,34.4z"/>
	<path class="st1" d="M40.3,39.3c-2.9,0.5-5.7,0.9-8.6,1.4c0-0.1,0-0.2,0.1-0.3c0.3-0.7,0.6-1.5,0.8-2.2c0.1-0.3,0.3-0.3,0.5-0.3
		c1.4-0.2,2.7-0.5,4-0.7c0.2,0,0.3,0,0.5-0.1c0.6-0.3,1,0,1.4,0.5C39.3,38.1,39.8,38.6,40.3,39.3z M32.3,40.2
		c2.5-0.4,4.8-0.8,7.3-1.2c-0.4-0.5-0.8-1-1.2-1.5c-0.1-0.1-0.2-0.1-0.4-0.1c-0.4,0-0.7,0.1-1,0.2c-1.2,0.2-2.4,0.4-3.6,0.6
		c-0.2,0-0.4,0.1-0.4,0.2C32.7,38.9,32.5,39.5,32.3,40.2z"/>
	<path class="st1" d="M29,38.4c-0.1,0.2-0.1,0.3-0.1,0.4c-0.3,0.7-0.6,1.5-0.9,2.2c-0.1,0.2-0.3,0.3-0.5,0.4
		c-0.8,0.1-1.7,0.2-2.5,0.3c-0.3,0-0.4,0-0.5-0.3c-0.1-0.7-0.2-1.4-0.3-2.2C25.7,38.9,27.3,38.6,29,38.4z M28.3,38.9
		c-1.2,0.2-2.3,0.4-3.4,0.6c-0.1,0-0.3,0.2-0.3,0.3c0,0.4,0.1,0.9,0.2,1.3c0,0.1,0.2,0.2,0.3,0.2c0.7-0.1,1.4-0.2,2-0.3
		c0.1,0,0.3-0.1,0.4-0.2C27.8,40.1,28,39.5,28.3,38.9z"/>
	<path class="st1" d="M46.7,44.6c0.4-1.2-0.3-3.1-1.4-3.9c-0.3-0.2-0.5-0.2-0.8,0c-0.1,0.1-0.2,0.2-0.4,0.3
		c-0.1-0.4,0.1-0.5,0.3-0.7s0.4-0.3,0.7-0.1c1.1,0.6,1.6,1.5,1.9,2.7c0.3,1,0.2,2-0.4,2.9c0,0,0,0.1-0.1,0.1c0,0,0,0-0.1,0.1
		c0-0.1-0.1-0.2-0.1-0.3c0-0.6-0.4-1-0.9-1.2c-0.4-0.2-0.7-0.3-1.1-0.5c-0.3-0.1-0.5-0.3-0.7-0.5c-0.1-0.1-0.1-0.3-0.1-0.5
		C44.7,43.4,45.7,44,46.7,44.6z"/>
	<path class="st1" d="M26.4,48.9c0.1-0.6,0.1-1.2,0.2-1.9c0.1-0.8,0.2-1.7,0.3-2.5c0-0.3,0.1-0.4,0.4-0.3c0.6,0.3,1.3,0.5,1.9,0.8
		c0.1,0,0.2,0.1,0.3,0.2C28.5,46.5,27.5,47.7,26.4,48.9C26.5,48.9,26.5,48.9,26.4,48.9z M26.9,47.7C27,47.7,27,47.7,26.9,47.7
		c0.7-0.8,1.3-1.6,2-2.4c-0.6-0.2-1.1-0.4-1.7-0.7C27.1,45.7,27,46.7,26.9,47.7z"/>
	<path class="st1" d="M32.9,31.5c0.4,0.2,0.8,0.3,1.1,0.5c0.5,0.3,0.6,0.7,0.3,1.2c-0.2,0.4-0.3,0.8-0.5,1.1
		c-0.1,0.2-0.2,0.3-0.4,0.2c-0.7-0.3-1.3-0.5-2-0.7c-0.2-0.1-0.3-0.2-0.2-0.4c0.2-0.4,0.3-0.7,0.5-1.1
		C31.9,31.8,32.3,31.6,32.9,31.5z M31.7,33.5c0.6,0.2,1.1,0.4,1.7,0.6c0.1,0,0.2-0.1,0.2-0.2c0.1-0.3,0.3-0.6,0.4-0.9
		c0.1-0.3,0.1-0.6-0.2-0.7c-0.3-0.2-0.6-0.3-0.9-0.4c-0.4-0.1-0.6,0.1-0.8,0.4C32,32.8,31.8,33.1,31.7,33.5z"/>
	<path class="st1" d="M44.7,38.4c-0.1-0.4,0.1-0.4,0.4-0.5c0.6-0.1,1.2-0.2,1.9-0.3c-0.1-0.5-0.2-1-0.3-1.6c0-0.1-0.2-0.1-0.3-0.1
		c-0.4,0-0.8,0.1-1.2,0.1c-0.1-0.3,0-0.4,0.2-0.4c0.4-0.1,0.8-0.1,1.3-0.2c0.1,0,0.3,0.1,0.3,0.2c0.1,0.7,0.3,1.3,0.4,2
		c0,0.1-0.1,0.3-0.2,0.3C46.4,38.2,45.6,38.3,44.7,38.4z"/>
	<path class="st1" d="M31.3,34.4c0.7,0.2,1.2,0.5,1.9,0.7c-0.4,1-0.8,2-1.1,2.9c-0.8,2-1.6,4-2.4,6c-0.1,0.3-0.3,0.4-0.5,0.2
		c-0.4-0.2-0.8-0.3-1.2-0.5c-0.3-0.1-0.3-0.2-0.2-0.5c1-2.5,2.1-5.1,3.1-7.6C30.9,35.2,31.1,34.9,31.3,34.4z"/>
	<path class="st1" d="M32.3,40.2c0.2-0.6,0.4-1.2,0.7-1.8c0.1-0.1,0.3-0.2,0.4-0.2c1.2-0.2,2.4-0.4,3.6-0.6c0.3-0.1,0.7-0.1,1-0.2
		c0.1,0,0.3,0,0.4,0.1c0.4,0.5,0.8,1,1.2,1.5C37.1,39.4,34.7,39.8,32.3,40.2z"/>
	<path class="st1" d="M28.3,38.9c-0.3,0.7-0.5,1.3-0.8,1.8c-0.1,0.1-0.2,0.2-0.4,0.2c-0.7,0.1-1.4,0.2-2,0.3c-0.1,0-0.3-0.1-0.3-0.2
		c-0.1-0.4-0.2-0.9-0.2-1.3c0-0.1,0.2-0.3,0.3-0.3C26,39.2,27.1,39.1,28.3,38.9z"/>
	<path class="st1" d="M26.9,47.7c0.1-1,0.2-2,0.3-3.1c0.5,0.2,1.1,0.4,1.7,0.7C28.3,46.1,27.6,46.9,26.9,47.7
		C27,47.7,27,47.7,26.9,47.7z"/>
	<path class="st1" d="M31.7,33.5c0.2-0.4,0.3-0.7,0.4-1.1c0.2-0.3,0.4-0.5,0.8-0.4c0.3,0.1,0.6,0.2,0.9,0.4c0.2,0.2,0.3,0.4,0.2,0.7
		s-0.3,0.6-0.4,0.9c0,0.1-0.2,0.2-0.2,0.2C32.8,33.9,32.3,33.7,31.7,33.5z"/>
</g>
</svg>
