<?xml version="1.0" encoding="utf-8"?>
<!-- Generator: Adobe Illustrator 21.0.2, SVG Export Plug-In . SVG Version: 6.00 Build 0)  -->
<svg version="1.1" id="Layer_1" xmlns="http://www.w3.org/2000/svg" xmlns:xlink="http://www.w3.org/1999/xlink" x="0px" y="0px"
	 viewBox="0 0 74 74" style="enable-background:new 0 0 74 74;" xml:space="preserve">
<style type="text/css">
	.st0{fill:none;stroke:#006FAF;stroke-width:2;stroke-miterlimit:10;}
	.st1{fill:#006FAF;}
</style>
<title>xml</title>
<circle class="st0" cx="37" cy="37" r="36"/>
<path class="st1" d="M48.8,32.7h-0.7v-3.6c0-0.1,0-0.3-0.1-0.4L42,22l0,0l-0.1-0.1H27.1c-0.6,0-1.2,0.5-1.2,1.1c0,0,0,0.1,0,0.1v9.7
	h-0.7c-0.9,0-1.7,0.8-1.7,1.7v8.9c0,0.9,0.8,1.7,1.7,1.7h0.7V51c0,0.6,0.5,1.2,1.1,1.2c0,0,0.1,0,0.1,0h19.7c0.6,0,1.2-0.5,1.2-1.1
	c0,0,0-0.1,0-0.1v-6h0.7c0.9,0,1.7-0.8,1.7-1.7v-8.9c0.1-0.9-0.5-1.6-1.4-1.7C48.9,32.7,48.9,32.7,48.8,32.7z M27.1,23H41v6.1
	c0,0.3,0.3,0.6,0.6,0.6h5.3v3H27.1V23z M42.2,42.5h-1.8l-0.1-3.1c0-1-0.1-2.1-0.1-3.3l0,0c-0.2,1-0.5,2.1-0.9,3.1l-1,3.1h-1.4
	L36,39.2c-0.3-1-0.5-2.1-0.7-3.1l0,0c0,1.1-0.1,2.3-0.1,3.3l-0.1,3h-1.7l0.5-8h2.4l0.8,2.7c0.3,1,0.5,1.9,0.7,2.9l0,0
	c0.2-0.9,0.5-2,0.8-2.9l0.9-2.7h2.4L42.2,42.5z M25.6,42.5l2.3-4.1l-2.2-4h2.1l0.7,1.5c0.2,0.5,0.4,0.9,0.6,1.3l0,0
	c0.2-0.5,0.3-0.9,0.5-1.3l0.7-1.5h2.1l-2.3,3.9l2.4,4.1h-2.1L29.7,41L29,39.6l0,0c-0.2,0.5-0.4,0.9-0.6,1.4l-0.7,1.5H25.6z
	 M46.9,50.7H27.1V45h19.7C46.8,45,46.9,50.7,46.9,50.7z M48.6,42.5h-5v-8h1.8V41h3.2V42.5z"/>
</svg>
