<svg id="Layer_1" data-name="Layer 1" xmlns="http://www.w3.org/2000/svg" viewBox="0 0 74 74"><defs><style>.cls-1{fill:none;stroke:#006faf;stroke-miterlimit:10;stroke-width:2px;}.cls-2{fill:#006faf;}</style></defs><title>XMPP</title><circle class="cls-1" cx="37" cy="37" r="36"/><path class="cls-2" d="M45,24.22c0,.24-.32.17-.32.41,0,6.94-8,17.43-16.17,19.47v.21c10.79-1,22.81-12,23.08-22.65L45,24.22Z"/><path class="cls-2" d="M42.14,24.9c0,.24,0,.47,0,.71,0,6.94-5.53,16.29-13.65,18.33v.29c10.63-.69,19-11.34,19-19.66a12.08,12.08,0,0,0-.07-1.27L42.14,24.9Z"/><path class="cls-2" d="M27.08,24.22c0,.24.32.17.32.41,0,6.94,8.38,17.53,16.5,19.57v.3c-10.79-1-23.14-12.2-23.41-22.83l6.59,2.55Z"/><path class="cls-2" d="M30.35,25.07c0,.24,0,.47,0,.71,0,6.94,5.53,16.29,13.65,18.33v.3c-10.63-.5-19-11.34-19-19.66A12.23,12.23,0,0,1,25,23.49l5.35,1.58Z"/><path class="cls-2" d="M24.94,23.39l1.37.49c0,.17,0,.41,0,.58C26.3,31.88,33,42.14,42,43.74c.58.2,1.36.37,2,.53v.29c-11.75-1-20-12.94-19-21.18Z"/><path class="cls-2" d="M47.56,23.24l-1.41.47c0,.17,0,.4,0,.57,0,7.42-6.71,17.68-15.71,19.28-.58.2-1.36.37-2,.53v.3c12.3-1.56,20-12.91,19.05-21.15Z"/><path class="cls-2" d="M23.12,51.67,20.71,49h2.1l1.64,1.85L26.09,49h2.1l-2.41,2.64,2.59,2.65H26.19L24.45,52.4,22.7,54.32H20.53l2.59-2.65Z"/><path class="cls-2" d="M29,49h2.49l1.83,3.4L35.13,49h2.49v5.29H36v-3.8h0l-2.13,3.8H32.69l-2.13-3.8h0v3.8H29V49Z"/><path class="cls-2" d="M38.72,49h4.42c1.54,0,1.91.77,1.91,1.81v.45c0,.79-.34,1.69-1.49,1.69H40.34v1.33H38.72V49Zm1.62,2.64h2.52a.49.49,0,0,0,.53-.56v-.2c0-.36-.18-.56-.66-.56H40.34v1.33Z"/><path class="cls-2" d="M46.1,49h4.42c1.54,0,1.91.77,1.91,1.81v.45c0,.79-.34,1.69-1.49,1.69H47.72v1.33H46.1V49Zm1.62,2.64h2.52a.49.49,0,0,0,.53-.56v-.2c0-.36-.18-.56-.66-.56H47.72v1.33Z"/></svg>