<?xml version="1.0" encoding="utf-8"?>
<!-- Generator: Adobe Illustrator 21.0.0, SVG Export Plug-In . SVG Version: 6.00 Build 0)  -->
<svg version="1.1" id="Layer_1" xmlns="http://www.w3.org/2000/svg" xmlns:xlink="http://www.w3.org/1999/xlink" x="0px" y="0px"
	 viewBox="0 0 74 74" style="enable-background:new 0 0 74 74;" xml:space="preserve">
<style type="text/css">
	.st0{fill:none;stroke:#006FAF;stroke-width:2;stroke-miterlimit:10;}
	.st1{fill:#006FAF;}
</style>
<title>Azure_Site_Recovery</title>
<circle class="st0" cx="37" cy="37" r="36"/>
<g>
	<path class="st1" d="M32.2,40.8c1.6-4.1,3-7.8,4.5-11.6c0.8-1.9,1.5-3.9,2.2-5.8c0.5-1.4,1.7-1.9,2.9-1.4c1.1,0.4,1.6,1.6,1.1,2.9
		c-1.6,4.1-3.3,8.2-5,12.4c-1.4,3.6-2.8,7.2-4.3,10.8c-0.3,0.7-0.6,1.4-0.9,2.1c-2,4.3-4.8,5.8-9.5,5.2c-1.2-0.2-1.8-0.9-1.7-2.1
		c0.1-1.2,0.9-1.8,2.1-1.7c3.6,0.1,4.3-0.3,5.8-3.7c0.4-0.9,0.4-1.7,0-2.6c-2.7-6.7-5.4-13.3-8.1-20c-0.8-1.9-0.1-3.4,1.4-3.7
		c1.3-0.2,2,0.6,2.4,1.6c1.4,3.4,2.7,6.7,4,10.1C30.2,35.7,31.1,38.1,32.2,40.8z"/>
	<path class="st1" d="M43.7,43.7c0.9,0.1,1.6,0,2.1,0.3c3.3,1.5,6.5,2.9,9.7,4.5c1,0.5,1.3,1.5,0.7,2.5c-0.5,1-1.5,1.6-2.4,0.9
		c-3.2-2.3-6.4-4.7-9.5-7C44.1,44.7,44,44.4,43.7,43.7z"/>
	<path class="st1" d="M43.8,33.2c0.8-0.8,1.5-1.7,2.4-2.3c2.3-1.7,4.7-3.2,7.1-4.8c1.2-0.8,2.5-0.5,3.1,0.5c0.6,1,0.2,2.3-1.1,2.9
		c-2.9,1.4-5.9,2.7-8.9,4c-0.7,0.3-1.5,0.3-2.3,0.5C44,33.6,43.9,33.4,43.8,33.2z"/>
	<path class="st1" d="M46.8,38.6c1.3-0.3,2.6-0.8,4-1c2.6-0.3,5.2-0.5,7.8-0.7c1.4-0.1,2.4,0.6,2.4,1.8c0,1.1-0.9,2.1-2.2,2
		c-3.4-0.2-6.8-0.5-10.3-0.8c-0.6-0.1-1.2-0.4-1.8-0.6C46.8,39.1,46.8,38.9,46.8,38.6z"/>
</g>
</svg>
