<?xml version="1.0" encoding="utf-8"?>
<!-- Generator: Adobe Illustrator 21.0.2, SVG Export Plug-In . SVG Version: 6.00 Build 0)  -->
<svg version="1.1" id="Layer_1" xmlns="http://www.w3.org/2000/svg" xmlns:xlink="http://www.w3.org/1999/xlink" x="0px" y="0px"
	 viewBox="0 0 74 74" style="enable-background:new 0 0 74 74;" xml:space="preserve">
<style type="text/css">
	.st0{fill:none;stroke:#006FAF;stroke-width:2;stroke-miterlimit:10;}
	.st1{fill:#006FAF;}
</style>
<title>Cloud &amp;amp; Infrastructure Services</title>
<circle class="st0" cx="37" cy="37" r="36"/>
<path class="st1" d="M45.3,21c-5.4,0.2-10.8,0.2-16.3,0c-4.5-0.1-8,4.3-8,7.8c0,5.5,0,10.9,0,16.4c0,4.2,4.3,7.9,7.9,7.7
	c5.5-0.2,11.1-0.1,16.7,0c1.7,0,3.1-0.5,4.3-1.5c1.5-1.2,2.6-2.6,3-4.4c0-6.6,0-13.3,0-19.9C52.5,23.9,49.1,20.9,45.3,21z
	 M44.5,48.5c-5,0-10,0-15,0c-0.6,0-1.5,0.4-1.7-0.3c-0.2-0.8-0.3-1.8,0.4-2.7c2.2-2.6,4.3-5.3,6.4-7.9c2.3-2.9,4.6-5.8,7.1-8.9
	c-4.3,0-8.2,0-12.2,0c-0.9,0-1.3-0.1-1.2-1.1c0.1-0.9,0-1.4,1.2-1.3c4.9,0.1,9.8,0,14.6,0.1c0.6,0,1.4-0.4,1.6,0.3
	c0.2,0.8,0.2,1.6-0.5,2.4c-2,2.4-3.9,4.9-5.9,7.3c-2.5,3.2-5.1,6.3-7.7,9.7c2.5,0,4.8,0,7,0c2,0,3.9,0,5.9,0c0.8,0,1.7-0.4,1.8,1.2
	C46.3,48.9,45.4,48.5,44.5,48.5z"/>
</svg>
