<?xml version="1.0" encoding="utf-8"?>
<!-- Generator: Adobe Illustrator 21.0.2, SVG Export Plug-In . SVG Version: 6.00 Build 0)  -->
<svg version="1.1" id="Layer_1" xmlns="http://www.w3.org/2000/svg" xmlns:xlink="http://www.w3.org/1999/xlink" x="0px" y="0px"
	 viewBox="0 0 74 74" style="enable-background:new 0 0 74 74;" xml:space="preserve">
<style type="text/css">
	.st0{fill:none;stroke:#006FAF;stroke-width:2;stroke-miterlimit:10;}
	.st1{fill:#006FAF;}
</style>
<title>health-checks</title>
<g id="text">
</g>
<g>
	<circle class="st0" cx="37" cy="37" r="36"/>
	<g>
		<g>
			<path class="st1" d="M33.7,28.3c1,0,1.8,0.1,2.5,0.2c-5.5,1.3-10,4.6-13.4,10c-0.2,0.3-0.4,0.6-0.7,0.8c-0.3,0.2-0.5,0.2-0.5,0.2
				c-0.1,0-0.3-0.3-0.3-0.5c-0.5-1.7-0.2-3.3,0.9-4.8C25,30.7,28.9,28.7,33.7,28.3 M33.6,26.6c-4.8,0.3-9.4,2.3-12.8,6.7
				c-1.5,1.9-1.9,4-1.2,6.4c0.3,1.1,1.1,1.7,2,1.7c0.5,0,1-0.2,1.5-0.5s0.9-0.8,1.2-1.3c3.5-5.6,8.4-9.1,15.1-9.7
				c0.5,0,0.9-0.2,1.1-0.6c0.2-0.5-0.3-0.8-0.7-1C38.2,26.9,36.2,26.7,33.6,26.6L33.6,26.6z"/>
		</g>
		<g>
			<path class="st1" d="M38.8,20.8c0.3,0,0.7,0.1,1.1,0.1C46.2,22.2,51,28.1,51,34.5c0,0.4-0.1,0.9-0.2,1.5c-0.1-3.4-1.4-6.2-4-8.4
				c-2.8-2.5-5.3-4.3-7.8-5.7c-0.6-0.3-0.6-0.5-0.6-0.7C38.4,20.8,38.6,20.7,38.8,20.8C38.7,20.8,38.8,20.8,38.8,20.8 M38.8,19
				c-0.1,0-0.2,0-0.3,0c-1.2,0.1-2,1.1-1.9,2.3c0.1,1,0.7,1.6,1.5,2.1c2.7,1.5,5.2,3.4,7.5,5.5c3,2.6,3.7,5.9,3.2,9.6
				c-0.1,0.7-0.2,1.4,0.6,1.7c0.1,0.1,0.3,0.1,0.4,0.1c0.5,0,0.9-0.5,1.2-0.9c1.2-1.6,1.6-3.5,1.7-4.9c0-7.4-5.4-13.9-12.5-15.4
				C39.8,19.1,39.3,19,38.8,19L38.8,19z"/>
		</g>
		<g>
			<path class="st1" d="M33.9,34.4c-3.6,3.4-4.9,8.1-4.1,14c0.2,1.4,0.5,2.6,0.9,3.8c0.1,0.2,0.1,0.4,0.2,0.6c0,0.1,0,0.2,0,0.3
				c0,0,0,0-0.1-0.1c-1.9-1.9-2.9-4.5-3.1-7.7c0-3.2,0.7-5.6,2.1-7.7C30.9,36.1,32.2,35.1,33.9,34.4 M36.1,32.1c-0.2,0-0.3,0-0.5,0
				c-2.9,0.6-5.4,1.9-7.1,4.5c-1.6,2.5-2.4,5.2-2.4,8.7c0.1,3,1,6.3,3.6,8.9c0.5,0.4,1,0.8,1.6,0.8c0.3,0,0.5-0.1,0.8-0.2
				c0.8-0.5,0.8-1.4,0.7-2.3c-0.1-0.3-0.1-0.6-0.3-0.9c-0.4-1.1-0.7-2.2-0.8-3.4c-0.8-5.8,0.5-10.8,5.7-14.2c0.4-0.2,0.8-0.5,0.7-1
				c-0.1-0.6-0.6-0.7-1.1-0.8C36.6,32.1,36.3,32.1,36.1,32.1L36.1,32.1z"/>
		</g>
		<g>
			<path class="st1" d="M38.5,39.1L38.5,39.1L38.5,39.1 M38.1,39.2L38.1,39.2c0,0.1,0,0.3,0,0.4c0,0.3,0.1,0.6,0.1,1
				c0.6,4.3,3.3,6.8,7.3,6.8c0.6,0,1.3-0.1,2-0.2c0.4-0.1,0.8-0.2,1.3-0.3c0.3-0.1,0.5-0.1,0.8-0.2c-0.7,1.2-1.6,1.9-2.8,2.3
				c-0.7,0.2-1.4,0.4-2.1,0.4c-0.1,0-0.2,0-0.2,0c-0.1,0-0.1,0-0.2,0c-4.3,0-7.3-2.5-7.8-6.3C36.4,41.5,37.1,39.8,38.1,39.2
				 M38.5,37.4c-0.3,0-0.7,0.1-1.1,0.3c-1.7,0.9-2.7,3.2-2.5,5.6c0.5,4.7,4.3,7.9,9.5,7.9l0,0c0.1,0,0.3,0,0.4,0
				c0.8,0,1.7-0.2,2.5-0.4c2.2-0.6,3.5-2.1,4.3-4.1c0.5-1.2,0.2-1.8-0.8-1.8c-0.1,0-0.3,0-0.4,0c-1.1,0.1-2.1,0.5-3.2,0.7
				c-0.6,0.1-1.1,0.2-1.7,0.2c-3.1,0-5.1-1.9-5.6-5.3c-0.1-0.4-0.1-0.9-0.1-1.3C39.8,37.9,39.2,37.4,38.5,37.4L38.5,37.4z"/>
		</g>
		<g>
			<path class="st1" d="M43.5,31c-2,0-3.4,1.4-3.4,3.3c0,2,1.4,3.4,3.4,3.4l0,0c1.9,0,3.4-1.5,3.4-3.4C46.9,32.5,45.4,31,43.5,31
				L43.5,31L43.5,31z"/>
		</g>
	</g>
</g>
</svg>
