<?xml version="1.0" encoding="utf-8"?>
<!-- Generator: Adobe Illustrator 21.0.2, SVG Export Plug-In . SVG Version: 6.00 Build 0)  -->
<svg version="1.1" id="Layer_1" xmlns="http://www.w3.org/2000/svg" xmlns:xlink="http://www.w3.org/1999/xlink" x="0px" y="0px"
	 viewBox="0 0 74 74" style="enable-background:new 0 0 74 74;" xml:space="preserve">
<style type="text/css">
	.st0{fill:none;stroke:#006FAF;stroke-width:2;stroke-miterlimit:10;}
	.st1{fill:#006FAF;}
</style>
<title>Cloud &amp;amp; Infrastructure Services</title>
<circle class="st0" cx="37" cy="37" r="36"/>
<g>
	<path class="st1" d="M36,33.5c0,0,0-4.6,4.6-4.6h13.9c0,0,0,4.6-4.6,4.6H36z"/>
	<path class="st1" d="M36,39.4c0,0,0-4.6,4.6-4.6h6.9c0,0,0,4.6-4.6,4.6H36z"/>
	<path class="st1" d="M36,45.3c0,0,0-4.6,4.6-4.6h2.3c0,0,0,4.6-4.6,4.6H36z"/>
	<polygon class="st1" points="34.4,41.7 34.4,45.4 19.5,45.4 29.1,32.3 20.9,32.3 20.9,28.6 36.4,28.6 26.8,41.7 	"/>
</g>
</svg>
