<?xml version="1.0" encoding="utf-8"?>
<!-- Generator: Adobe Illustrator 21.0.2, SVG Export Plug-In . SVG Version: 6.00 Build 0)  -->
<svg version="1.1" id="Layer_1" xmlns="http://www.w3.org/2000/svg" xmlns:xlink="http://www.w3.org/1999/xlink" x="0px" y="0px"
	 viewBox="0 0 210 51" style="enable-background:new 0 0 210 51;" xml:space="preserve">
<style type="text/css">
	.st0{fill:#006699;}
</style>
<g>
	<g>
		<path class="st0" d="M43.5,33.6c0,3.4,0,6.8,0,10.2c0,0.6-0.2,0.9-0.7,1.2c-6,3.2-12.4,4.6-19.2,4.1c-6.9-0.5-13.1-2.8-17.7-8.4
			c-3-3.6-4.4-7.8-4.8-12.4c-0.4-5.4,0.4-10.7,3.2-15.5c3.2-5.4,8-8.7,14.1-10.1c6.9-1.6,13.6-1.1,20,2.1c1.3,0.7,2.6,1.5,3.7,2.4
			c0.6,0.4,0.7,0.7,0.1,1.2c-1.6,1.5-3.2,3.1-4.7,4.8c-0.5,0.5-0.7,0.4-1.2,0.1C31,9.6,25.3,9,19.3,11c-3.6,1.2-6.2,3.8-7.6,7.3
			c-2,4.9-2,9.9,0.2,14.8c2.2,4.8,6,7.3,11.2,8c3.6,0.5,7.1,0.1,10.6-1c0.8-0.3,1.1-0.6,1-1.5c-0.1-2.4-0.1-4.8,0-7.2
			c0-1.1-0.3-1.2-1.3-1.2c-2.4,0.1-4.8,0-7.2,0c-0.6,0-0.9-0.1-0.8-0.9c0.2-2.1,0.4-4.2,0.5-6.2c0-0.6,0.2-0.8,0.8-0.8
			c5.3,0,10.7,0,16,0c0.7,0,0.8,0.3,0.8,0.8C43.5,26.5,43.5,30,43.5,33.6z"/>
		<path class="st0" d="M130.1,20.9c3.6-4.5,8.2-5.2,13.2-3.9c3.9,1,6.5,4.7,6.9,9.3c0.4,5.1,0.1,10.2,0.2,15.3c0,1.9,0,3.8,0,5.6
			c0,0.7-0.2,0.9-0.9,0.9c-2.2,0-4.4,0-6.6,0c-0.7,0-0.9-0.2-0.9-0.9c0-5,0-10,0-15c0-1.3,0-2.5-0.2-3.8c-0.4-2.7-1.6-3.9-4-4.3
			c-2.4-0.4-5,0.7-6.2,2.7c-0.7,1.2-1.1,2.6-1.1,4c0,5.4,0,10.8,0,16.2c0,0.9-0.3,1.1-1.1,1.1c-2.1-0.1-4.3,0-6.4,0
			c-0.6,0-0.9-0.1-0.9-0.8c0-9.8,0-19.5,0-29.3c0-0.5,0.1-0.8,0.7-0.8c2.1,0,4.2,0,6.3,0c0.6,0,0.8,0.2,0.8,0.8
			C129.9,18.9,130,19.8,130.1,20.9z"/>
		<path class="st0" d="M118.6,40.8c-0.2,2.3-0.4,4.4-0.6,6.5c0,0.4-0.2,0.6-0.6,0.7c-3.1,0.7-6.1,0.9-9.2,0.2
			c-3.8-0.8-5.8-3.4-6.2-7.4c-0.3-2.9-0.2-5.8-0.2-8.8c0-7.5,0-15,0-22.5c0-0.8,0.2-1,1-1c2.2,0.1,4.5,0,6.7,0
			c0.6,0,0.7,0.2,0.7,0.8c0,2.3,0,4.7,0,7c0,0.7,0.2,0.9,0.9,0.9c2.2,0,4.4,0,6.6,0c0.4,0,0.9-0.1,0.8,0.6c-0.2,2-0.4,3.9-0.5,5.9
			c0,0.7-0.3,0.8-0.9,0.8c-2,0-4,0-6.1,0c-0.6,0-0.9,0.1-0.8,0.8c0,4,0,7.9,0,11.9c0,0.7,0.1,1.3,0.2,2c0.3,1.7,1.6,2.5,3.7,2.5
			C115.6,41.5,117.1,41.3,118.6,40.8z"/>
		<path class="st0" d="M197.3,20.7c1.8-2.5,4.4-3.3,7.3-3.5c0.9,0,1.7,0,2.6,0c0.5,0,0.7,0.1,0.7,0.7c-0.2,1.9-0.4,3.9-0.5,5.8
			c0,0.7-0.3,0.8-0.9,0.8c-1.1,0-2.3-0.1-3.3,0.1c-3.6,0.6-5.9,3.5-5.9,7.2c0,5,0,10,0,15.1c0,1.1-0.3,1.3-1.3,1.2
			c-2.1-0.1-4.1-0.1-6.2,0c-0.7,0-1-0.1-1-0.9c0-9.7,0-19.4,0-29.1c0-0.7,0.2-1,0.9-0.9c2,0.1,3.9,0.1,5.9,0c1,0,1.3,0.2,1.2,1.2
			c0,0.2,0,0.4,0,0.6c0.1,0.5,0,0.9,0.1,1.4C197,20.5,196.9,20.8,197.3,20.7z"/>
		<path class="st0" d="M89.1,20.9c2.5-3.3,5.9-3.8,9.5-3.7c0.5,0,0.7,0.1,0.6,0.7c-0.2,2-0.3,4-0.5,5.9c0,0.5-0.2,0.7-0.8,0.7
			c-0.9,0-1.9-0.1-2.8,0.1c-3.5,0.6-5.8,3.4-5.8,7.2c0,5.1,0,10.2,0,15.3c0,0.8-0.2,1.1-1,1c-2.2-0.1-4.4,0-6.6,0
			c-0.6,0-0.8-0.1-0.8-0.8c0-9.8,0-19.6,0-29.4c0-0.6,0.2-0.8,0.8-0.8c2.1,0,4.3,0,6.4,0c0.7,0,0.8,0.2,0.8,0.8
			C88.9,18.9,89,19.8,89.1,20.9z"/>
		<path class="st0" d="M184.9,28.6c-0.6-3.6-2-6.9-5-9.1c-5.3-3.8-11.1-4-16.9-1.6c-7.3,3.1-10.2,11.1-8.5,18.7
			c1.7,7.3,7.5,11.8,15.3,12.1c5.5,0.2,10.1-1.7,13.8-5.9c0.4-0.5,0.4-0.7-0.1-1.1c-1.4-1-2.8-2.1-4.1-3.2c-0.6-0.5-0.9-0.4-1.4,0.1
			c-2.3,2.4-5.2,3.4-8.6,3.1c-3.2-0.3-5.8-2.3-6.7-5.4c-0.2-0.8-0.1-0.9,0.7-0.9c3.5,0,7,0,10.5,0c3.6,0,7.1,0,10.7,0
			c0.6,0,0.8-0.1,0.8-0.8C185.3,32.7,185.3,30.7,184.9,28.6z M176,29.1c-2.2-0.1-4.3,0-6.5,0c-2.1,0-4.3,0-6.4,0
			c-0.4,0-0.8,0-0.6-0.6c0.8-2.7,2.5-4.6,5.3-5.2c2.9-0.7,5.6-0.3,7.7,2.1c0.7,0.8,1,1.8,1.3,2.8C176.9,28.8,176.8,29.1,176,29.1z"
			/>
		<path class="st0" d="M75.7,26.4c-0.1-4-2.2-7-6-8.6c-2.3-1-4.8-1.3-7.3-1.3c-4.8-0.1-9.1,1.2-13,4.1c-1.1,0.8-1.1,0.8-0.2,1.7
			c1.2,1.2,2.3,2.3,3.4,3.5c0.4,0.4,0.6,0.5,1.1,0.1c2.5-2.1,5.5-3,8.8-2.8c3.1,0.2,5,1.8,5.3,4.6c0.1,0.6,0,0.9-0.8,0.9
			c-2.5-0.1-5,0.1-7.5,0.4c-2.9,0.4-5.8,1.1-8.3,2.8c-5.1,3.4-5.1,12.6,1,15.7c3.8,1.9,11.8,2.3,16-2.2c0.1,0.8,0.2,1.4,0.2,2.1
			c0,0.6,0.1,0.8,0.8,0.8c2,0,3.9,0,5.9,0c0.6,0,0.8-0.1,0.8-0.7C75.7,40.4,75.9,33.4,75.7,26.4z M67.7,36.5
			c-0.5,3.1-3.3,5.5-6.6,5.8c-1.1,0.1-2.2,0.1-3.2-0.3c-1.2-0.5-1.9-1.3-2.1-2.6c-0.1-1.3,0.4-2.4,1.5-3.1c1.8-1.1,3.8-1.3,5.8-1.5
			c0.6-0.1,1.3,0,1.9,0c0,0,0-0.1,0-0.1c0.4,0,0.8,0,1.1,0C67.9,34.6,68,34.7,67.7,36.5z"/>
	</g>
	<g>
		<path class="st0" d="M204.8,40.3c-2.4,0-4.2,1.8-4.2,4.1c0,2.3,1.8,4.1,4.2,4.1c2.4,0,4.2-1.8,4.2-4.2
			C209,42.1,207.1,40.3,204.8,40.3z M204.8,47.9c-1.9,0-3.3-1.6-3.3-3.5c0-1.9,1.5-3.4,3.3-3.4c1.8,0,3.3,1.5,3.4,3.4
			C208.2,46.3,206.6,47.9,204.8,47.9z"/>
		<path class="st0" d="M206.3,44.4c0.7-0.7,0.5-1.9-0.4-2.2c-0.8-0.3-1.6-0.1-2.5-0.1c-0.4,0-0.3,0.3-0.3,0.6c0,1.2,0,2.4,0,3.6
			c0,0.3-0.1,0.6,0.4,0.6c0.5,0,0.4-0.3,0.4-0.6c0.1-0.5-0.4-1.2,0.3-1.4c0.8-0.2,0.8,0.7,1.1,1.1c0.1,0.1,0.2,0.3,0.3,0.4
			c0.2,0.5,0.5,0.7,1.1,0.4c-0.4-0.6-0.8-1.2-1.2-1.9C205.9,44.7,206.1,44.6,206.3,44.4z M204.8,44.1c-0.5,0.1-0.9,0-0.8-0.6
			c0.1-0.4-0.1-0.9,0.6-0.8c0.5,0.1,1.3-0.1,1.3,0.8C205.9,44.2,205.3,44.1,204.8,44.1z"/>
	</g>
</g>
</svg>
