<?xml version="1.0" encoding="utf-8"?>
<!-- Generator: Adobe Illustrator 21.0.2, SVG Export Plug-In . SVG Version: 6.00 Build 0)  -->
<svg version="1.1" id="Layer_1" xmlns="http://www.w3.org/2000/svg" xmlns:xlink="http://www.w3.org/1999/xlink" x="0px" y="0px"
	 viewBox="0 0 74 74" style="enable-background:new 0 0 74 74;" xml:space="preserve">
<style type="text/css">
	.st0{fill:none;stroke:#FFFFFF;stroke-width:2;stroke-miterlimit:10;}
	.st1{fill:#FFFFFF;}
</style>
<title>digital-transformation</title>
<circle class="st0" cx="37" cy="37" r="36"/>
<g id="Layer_1_3_">
	<g id="Layer_1_1_">
	</g>
	<g id="Layer_1_2_">
	</g>
</g>
<g>
	<g>
		<path class="st1" d="M41.2,38.8c-1.1,0-2,0.7-2.5,1.6H22.8c-2.7,0-4.8-2.3-4.8-5c0-2.7,2.1-5,4.8-5h2.3c0-0.5,0.3-1.1,0.4-1.6
			c0.1-0.1,0.1-0.4,0.3-0.5c1.1-2,3.2-3.3,5.6-3.3c2.1,0,4,1.1,5.2,2.7c0.7-0.3,1.3-0.5,2.1-0.7c-1.5-2.5-4.2-4.2-7.4-4.2
			c-3.6,0-6.7,2.3-8,5.5h-0.5c-3.9,0-7.1,3.2-7.1,7.2s3.2,7.1,7.1,7.1h15.9c0.4,0.9,1.3,1.6,2.5,1.6c1.5,0,2.7-1.2,2.7-2.8
			C44,39.9,42.8,38.8,41.2,38.8z"/>
	</g>
	<g>
		<path class="st1" d="M49.5,51.1H32.9c-3.8,0-7.1-2.9-7.6-6.8l-0.1-0.6h13.2l0.1,0.2c0.7,0.9,1.8,1.4,2.8,1.4
			c1.9,0,3.6-1.7,3.6-3.7c0-2-1.6-3.7-3.6-3.7c-1.2,0-2.1,0.5-2.8,1.3l-0.1,0.2H26l0.5-0.8c1.2-1.7,3.1-2.9,5.2-3.2
			c1.1-4.3,5-7.5,9.5-7.5c3.5,0,6.9,2.1,8.6,5.2c4.7,0.3,8.4,4.2,8.4,9C58.3,47.2,54.4,51.1,49.5,51.1z M26.3,44.7
			c0.7,3.1,3.4,5.4,6.5,5.4h16.6c4.4,0,7.8-3.5,7.8-7.9c0-4.4-3.4-7.9-7.7-8.1l-0.3,0l-0.1-0.3c-1.5-3-4.6-5-7.9-5
			c-4.1,0-7.7,2.9-8.6,7l-0.1,0.4l-0.4,0c-1.7,0.2-3.2,0.9-4.2,2.1h9.8c0.8-1,2-1.5,3.4-1.5c2.5,0,4.6,2.1,4.6,4.7
			c0,2.6-2.1,4.7-4.6,4.7c-1.3,0-2.5-0.6-3.4-1.5H26.3z"/>
	</g>
</g>
</svg>
