<?xml version="1.0" encoding="utf-8"?>
<!-- Generator: Adobe Illustrator 21.0.2, SVG Export Plug-In . SVG Version: 6.00 Build 0)  -->
<svg version="1.1" id="Layer_1" xmlns="http://www.w3.org/2000/svg" xmlns:xlink="http://www.w3.org/1999/xlink" x="0px" y="0px"
	 viewBox="0 0 75 75" style="enable-background:new 0 0 75 75;" xml:space="preserve">
<style type="text/css">
	.st0{fill:#FFFFFF;}
</style>
<g>
	<path class="st0" d="M37.5,0.5c-20.4,0-37,16.6-37,37c0,20.4,16.6,37,37,37c20.4,0,37-16.6,37-37C74.5,17.1,57.9,0.5,37.5,0.5z
		 M37.5,72.5c-19.3,0-35-15.7-35-35s15.7-35,35-35s35,15.7,35,35S56.8,72.5,37.5,72.5z"/>
	<path class="st0" d="M55.5,35.3c-1-8-7.2-14.3-15.1-15.5c-0.3-1.1-1.4-2-2.6-2c-1.2,0-2.3,0.8-2.6,1.9c-7.8,1.1-14,7.2-15.2,14.9
		c-1.2,0.3-2,1.4-2,2.6c0,1.2,0.8,2.3,1.9,2.6c1,8,7.3,14.4,15.3,15.5c0.3,1.1,1.4,1.9,2.6,1.9c1.2,0,2.3-0.8,2.6-2
		c7.7-1.2,13.8-7.3,15-15c1-0.4,1.6-1.4,1.6-2.5C57.1,36.7,56.4,35.7,55.5,35.3z M40.2,53.3c-0.5-0.9-1.4-1.5-2.5-1.5
		c-1.1,0-2,0.6-2.5,1.6c-7-1-12.5-6.6-13.5-13.6c0.9-0.4,1.6-1.4,1.6-2.5c0-1.1-0.6-2-1.5-2.4c1.2-6.8,6.6-12.1,13.4-13.1
		c0.4,0.9,1.4,1.6,2.5,1.6c1.1,0,2-0.6,2.5-1.5c6.8,1.1,12.2,6.6,13.2,13.4c-1.1,0.4-1.9,1.4-1.9,2.6c0,1.2,0.8,2.2,1.8,2.6
		C52.2,47,46.9,52.2,40.2,53.3z"/>
	<path class="st0" d="M32,38.6l3.8,1.3l1.3,3.8l6.9-6.9v-5.1h-5.1L32,38.6z M41.5,33.1L41.5,33.1c0.6,0,1,0.4,1,1c0,0.6-0.4,1-1,1
		c-0.6,0-1-0.4-1-1C40.6,33.6,41,33.1,41.5,33.1z"/>
	<polygon class="st0" points="48.7,37 46.3,37 46.3,38.1 48.7,38.1 48.7,39 51.3,37.5 48.7,36 	"/>
	<polygon class="st0" points="26.2,36 23.6,37.5 26.2,39 26.2,38.1 28.6,38.1 28.6,37 26.2,37 	"/>
	<polygon class="st0" points="39.2,26.2 38.2,26.2 38.2,23.8 37.1,23.8 37.1,26.2 36.2,26.2 37.7,28.8 	"/>
	<polygon class="st0" points="36.5,48.9 37.4,48.9 37.4,51.3 38.5,51.3 38.5,48.9 39.4,48.9 38,46.3 	"/>
</g>
</svg>
