<?xml version="1.0" encoding="utf-8"?>
<!-- Generator: Adobe Illustrator 21.0.2, SVG Export Plug-In . SVG Version: 6.00 Build 0)  -->
<svg version="1.1" id="Layer_1" xmlns="http://www.w3.org/2000/svg" xmlns:xlink="http://www.w3.org/1999/xlink" x="0px" y="0px"
	 viewBox="0 0 74 74" style="enable-background:new 0 0 74 74;" xml:space="preserve">
<style type="text/css">
	.st0{fill:#FFFFFF;}
</style>
<title>Cloud &amp;amp; Infrastructure Services</title>
<g>
	<path class="st0" d="M37,74C16.6,74,0,57.4,0,37C0,16.6,16.6,0,37,0c20.4,0,37,16.6,37,37C74,57.4,57.4,74,37,74z M37,2
		C17.7,2,2,17.7,2,37s15.7,35,35,35s35-15.7,35-35S56.3,2,37,2z"/>
</g>
<g>
	<g>
		<path class="st0" d="M37,56.5c-10.8,0-19.5-8.7-19.5-19.5c0-8.9,6.3-16.9,15-19l0.2,0l0.4,1.9l-0.2,0C25.1,21.8,19.4,29,19.4,37
			c0,9.7,7.9,17.6,17.6,17.6c9.7,0,17.6-7.9,17.6-17.6c0-7.2-4.5-13.8-11.3-16.4L42.9,22l-3.4-3.4l4.6-1.2l-0.4,1.3
			c7.6,2.8,12.7,10.2,12.7,18.2C56.5,47.8,47.8,56.5,37,56.5z"/>
	</g>
	<g>
		<path class="st0" d="M29.8,45.3c-3,0-5.4-2.3-5.7-5.3c-0.2-2.8,1.6-5.5,4.4-6.2c0.4-0.1,0.9-0.2,1.4-0.2c0.4,0,0.7,0,1.1,0.1
			c0.3,0.1,0.5,0.1,0.7,0.2c0.2,0.1,0.3,0.1,0.4,0.1c0,0,0.1-0.1,0.1-0.2c0.1-0.2,0.2-0.4,0.3-0.8c1.1-2.5,3.7-4.2,6.5-4.2l0.4,0
			c2.8,0,5.4,1.6,6.5,4.2c0.4,0.6,0.6,1.4,0.7,2.1c0,1,0,1,0.6,1.3c0.1,0.1,0.3,0.1,0.4,0.2c1.9,1.1,2.8,3.3,2.2,5.3
			c-0.7,2-2.5,3.4-4.6,3.4H29.8z M44.7,43.5c0.1,0,0.2,0,0.3,0c1.3,0,2.5-0.9,2.9-2.1l0-0.1h0c0.2-0.7,0.1-1.4-0.3-2
			c-0.4-0.6-0.9-1.1-1.7-1.3c-0.8-0.2-1.3-0.9-1.2-1.7c0-1.1-0.3-2.2-1-3.1c-1-1.5-2.6-2.5-4.5-2.5c-0.3,0-0.7,0-1,0.1
			c-2.2,0.3-4,2-4.5,4.2c-0.3,0.9-0.4,1.3-1,1.3c-0.3,0-0.6-0.1-1.1-0.3c-0.6-0.2-1.1-0.4-1.7-0.4c-1,0-2,0.4-2.8,1.1
			c-1.1,1-1.5,2.7-1,4.1c0.5,1.6,2,2.7,3.8,2.7l0.2,0H44.7z"/>
	</g>
</g>
</svg>
