<?xml version="1.0" encoding="utf-8"?>
<!-- Generator: Adobe Illustrator 21.0.2, SVG Export Plug-In . SVG Version: 6.00 Build 0)  -->
<svg version="1.1" id="Layer_1" xmlns="http://www.w3.org/2000/svg" xmlns:xlink="http://www.w3.org/1999/xlink" x="0px" y="0px"
	 viewBox="0 0 74 74" style="enable-background:new 0 0 74 74;" xml:space="preserve">
<style type="text/css">
	.st0{fill:#FFFFFF;}
</style>
<title>Cloud &amp;amp; Infrastructure Services</title>
<path class="st0" d="M37,74C16.6,74,0,57.4,0,37C0,16.6,16.6,0,37,0c20.4,0,37,16.6,37,37C74,57.4,57.4,74,37,74z M37,2
	C17.7,2,2,17.7,2,37s15.7,35,35,35s35-15.7,35-35S56.3,2,37,2z"/>
<g>
	<path class="st0" d="M44.9,39.5c-3.4,0-6.7,0-10,0c-0.8,0-1-0.2-1-1c0.1-1.7,0-3.4,0-5.1c0-1.6,0-3.2,0-4.8c0-1.7-0.2-1.8-1.8-1.7
		c-8.1,0.3-14.2,8.5-12.3,16.5c1.6,6.7,7.6,10.9,14.5,10.3c6.5-0.4,11.7-5.8,12.2-12.6C46.6,39.8,46.4,39.5,44.9,39.5z M44.4,42.7
		c-1.1,5.6-6.2,9.5-12.2,9.3c-5.2-0.2-10-4.5-10.7-9.8c-1-6.3,3.3-12.2,9.6-13.3c0.8-0.1,1.1,0.1,1,0.9c-0.1,1.7,0,3.4,0,5.1
		c0,1.5,0,3,0,4.6c0,1.7,0.1,1.8,1.9,1.8c3.1,0,6.2,0.1,9.3,0C44.5,41.3,44.7,41.7,44.4,42.7z"/>
	<path class="st0" d="M52.4,20.9c-1.6,1.6-3.2,3.1-4.7,4.8c-0.6,0.7-1,0.8-1.8,0.1c-2.3-2-5-3-8.1-3c-1,0-1.5,0.3-1.5,1.3
		c0,3.9,0,7.8,0,11.7c0,1.1,0.4,1.3,1.5,1.3c1.9-0.1,3.9,0,5.8,0c1.9,0,3.9-0.1,5.8,0c1.2,0.1,1.5-0.5,1.5-1.6
		c-0.2-2.4-0.8-4.6-2.2-6.7c-0.4-0.6-0.4-1,0.1-1.5c1.7-1.7,3.4-3.3,5-5c0.5-0.5,1.1-1.1,0.4-1.8C53.5,19.8,52.9,20.4,52.4,20.9z
		 M48.7,34.4c0.1,0.6-0.1,0.8-0.7,0.8c-3,0-6,0-9.1,0c-0.5,0-0.8-0.1-0.8-0.7c0-3,0-6.2,0-9.2c0-0.6,0.2-0.8,0.8-0.6
		c2.2,0.4,4.3,1.3,6,2.8c0.4,0.4,0.4,0.6,0,1c-0.1,0.1-0.1,0.1-0.2,0.2c-1.5,1.6-1.5,1.6-3.1,0.1c-0.2-0.2-0.4-0.4-0.7-0.6
		c-0.4-0.3-0.9-0.3-1.3,0.1c-0.3,0.4-0.3,0.8,0.1,1.2c0.9,1,1.8,1.9,2.8,2.8c0.6,0.6,1.1,0.3,1.6-0.2c0.8-0.9,1.6-1.8,2.4-2.7
		C47.8,30.9,48.5,32.6,48.7,34.4z"/>
</g>
</svg>
