<?xml version="1.0" encoding="utf-8"?>
<!-- Generator: Adobe Illustrator 21.0.2, SVG Export Plug-In . SVG Version: 6.00 Build 0)  -->
<svg version="1.1" id="Layer_1" xmlns="http://www.w3.org/2000/svg" xmlns:xlink="http://www.w3.org/1999/xlink" x="0px" y="0px"
	 viewBox="0 0 74 74" style="enable-background:new 0 0 74 74;" xml:space="preserve">
<style type="text/css">
	.st0{fill:none;stroke:#FFFFFF;stroke-width:2;stroke-miterlimit:10;}
	.st1{fill:#FFFFFF;}
</style>
<title>digital-transformation</title>
<circle class="st0" cx="37" cy="37" r="36"/>
<g id="Layer_1_3_">
	<g id="Layer_1_1_">
	</g>
	<g id="Layer_1_2_">
	</g>
</g>
<g>
	<path class="st1" d="M30.5,39.8L30.5,39.8c0,1.7-0.5,3-1.6,4.1c-1.1,1-2.6,1.5-4.4,1.5c-1.9,0-3.4-0.6-4.6-1.9
		c-1.2-1.3-1.8-2.9-1.8-4.9v-3.1c0-2,0.6-3.6,1.8-4.9s2.7-1.9,4.6-1.9c1.9,0,3.4,0.5,4.5,1.5c1.1,1,1.6,2.4,1.6,4.1v0h-2.6
		c0-1.1-0.3-1.9-0.9-2.5c-0.6-0.6-1.5-0.9-2.6-0.9c-1.1,0-2,0.4-2.6,1.3c-0.6,0.9-1,2-1,3.3v3.1c0,1.3,0.3,2.5,1,3.3
		s1.6,1.3,2.7,1.3c1.1,0,2-0.3,2.5-0.9c0.6-0.6,0.9-1.4,0.9-2.5L30.5,39.8L30.5,39.8z"/>
	<path class="st1" d="M39,36.2h4.3v2.5H39v4.9h-2.6v-4.8h-4.3v-2.5h4.3v-4.5H39V36.2z"/>
	<path class="st1" d="M51.7,36.2H56v2.5h-4.3v4.9h-2.6v-4.8h-4.2v-2.5h4.3v-4.5h2.6L51.7,36.2L51.7,36.2z"/>
</g>
</svg>
