<?xml version="1.0" encoding="utf-8"?>
<!-- Generator: Adobe Illustrator 21.0.2, SVG Export Plug-In . SVG Version: 6.00 Build 0)  -->
<svg version="1.1" id="Layer_1" xmlns="http://www.w3.org/2000/svg" xmlns:xlink="http://www.w3.org/1999/xlink" x="0px" y="0px"
	 viewBox="0 0 74 74" style="enable-background:new 0 0 74 74;" xml:space="preserve">
<style type="text/css">
	.st0{fill:#FFFFFF;}
	.st1{fill:none;stroke:#FFFFFF;stroke-width:2;stroke-linecap:round;stroke-miterlimit:10;}
	.st2{fill:none;stroke:#FFFFFF;stroke-linecap:round;stroke-miterlimit:10;}
</style>
<title>Cloud &amp;amp; Infrastructure Services</title>
<path class="st0" d="M37,74C16.6,74,0,57.4,0,37S16.6,0,37,0s37,16.6,37,37S57.4,74,37,74z M37,2C17.7,2,2,17.7,2,37s15.7,35,35,35
	s35-15.7,35-35S56.3,2,37,2z"/>
<path class="st0" d="M28,40.5c-2,0-3.9-0.8-5.3-2.2s-2.2-3.2-2.2-5.2s0.8-3.9,2.2-5.4c1.4-1.4,3.3-2.2,5.3-2.2s3.9,0.8,5.3,2.2
	l2.1,2.1c0.2,0.2,0.3,0.5,0.3,0.8s-0.1,0.6-0.3,0.8c-0.2,0.2-0.5,0.3-0.8,0.3s-0.6-0.1-0.8-0.3l-2.1-2.1c-1-1-2.3-1.6-3.7-1.6
	c-1.4,0-2.7,0.6-3.7,1.6s-1.5,2.2-1.5,3.6c0,1.4,0.5,2.8,1.5,3.8s2.3,1.6,3.7,1.6c1.4,0,2.7-0.5,3.7-1.6l9-9
	c1.4-1.4,3.3-2.2,5.3-2.2s3.9,0.8,5.3,2.1c1.4,1.4,2.2,3.2,2.2,5.2s-0.8,3.9-2.2,5.4c-1.4,1.4-3.3,2.2-5.3,2.2s-3.9-0.8-5.3-2.2
	l-2-2.2c-0.2-0.2-0.3-0.5-0.3-0.8s0.1-0.6,0.3-0.8s0.5-0.3,0.8-0.3s0.6,0.1,0.8,0.3l2.1,2.1c1,1,2.3,1.6,3.7,1.6s2.8-0.6,3.7-1.6
	c1-1,1.5-2.3,1.6-3.6c0-1.4-0.5-2.8-1.6-3.8c-1-1-2.3-1.6-3.7-1.6s-2.7,0.5-3.7,1.6l-9,9C31.9,39.7,30,40.5,28,40.5z"/>
<line class="st1" x1="21.3" y1="45" x2="52.7" y2="45"/>
<line class="st2" x1="21.3" y1="48.6" x2="52.7" y2="48.6"/>
</svg>
