<?xml version="1.0" encoding="utf-8"?>
<!-- Generator: Adobe Illustrator 21.0.0, SVG Export Plug-In . SVG Version: 6.00 Build 0)  -->
<svg version="1.1" id="Layer_1" xmlns="http://www.w3.org/2000/svg" xmlns:xlink="http://www.w3.org/1999/xlink" x="0px" y="0px"
	 viewBox="0 0 74 74" style="enable-background:new 0 0 74 74;" xml:space="preserve">
<style type="text/css">
	.st0{fill:#FFFFFF;}
	.st1{fill:none;stroke:#FFFFFF;stroke-width:1.7391;stroke-linejoin:round;stroke-miterlimit:10;}
</style>
<path class="st0" d="M-0.1,36.4C0,36.2,0,36,0,35.8c0.2-7.3,2.5-14,6.7-20C11.1,9.5,17,5,24.2,2.3c2.6-1,5.4-1.7,8.2-2
	C33.8,0.2,35.3,0,36.7,0c1.8,0,3.6,0.2,5.4,0.4c3.1,0.3,6,1.2,8.9,2.4c3.8,1.6,7.3,3.7,10.4,6.4c5.7,5,9.5,11.2,11.5,18.5
	c0.6,2.1,0.9,4.2,1.1,6.4c0.2,2.4,0.2,4.7-0.1,7c-0.7,6.1-2.8,11.7-6.3,16.7c-3.3,4.9-7.6,8.7-12.8,11.6c-3.5,1.9-7.1,3.2-11,3.9
	c-2.2,0.4-4.4,0.6-6.6,0.6c-1.8,0-3.6-0.2-5.3-0.4c-3-0.4-6-1.2-8.8-2.4c-3.7-1.5-7-3.6-10.1-6.2C7.1,60.1,3.2,53.8,1.2,46.3
	c-0.6-2.1-0.9-4.2-1-6.4c0-0.6-0.1-1.2-0.1-1.9c0-0.1-0.1-0.3-0.1-0.4C-0.1,37.2-0.1,36.8-0.1,36.4z M37,71.7
	c19.1,0,34.7-15.5,34.7-34.7C71.7,17.9,56.1,2.4,37,2.4C17.9,2.3,2.3,17.9,2.3,37S17.9,71.7,37,71.7z"/>
<g>
	<polyline class="st1" points="23.6,39.2 32.3,39.2 38.1,17 42.6,57 47.8,31.6 49.6,40.6 57,40.6 	"/>
	<circle class="st1" cx="20.3" cy="39.2" r="3.3"/>
</g>
</svg>
