<?xml version="1.0" encoding="utf-8"?>
<!-- Generator: Adobe Illustrator 21.0.2, SVG Export Plug-In . SVG Version: 6.00 Build 0)  -->
<svg version="1.1" id="Layer_1" xmlns="http://www.w3.org/2000/svg" xmlns:xlink="http://www.w3.org/1999/xlink" x="0px" y="0px"
	 viewBox="0 0 74 74" style="enable-background:new 0 0 74 74;" xml:space="preserve">
<style type="text/css">
	.st0{fill:#FFFFFF;}
</style>
<title>digital-transformation</title>
<path class="st0" d="M37,74C16.6,74,0,57.4,0,37C0,16.6,16.6,0,37,0c20.4,0,37,16.6,37,37C74,57.4,57.4,74,37,74z M37,2
	C17.7,2,2,17.7,2,37s15.7,35,35,35s35-15.7,35-35S56.3,2,37,2z"/>
<g id="document_x5F_text_x5F_security">
	<path class="st0" d="M44.8,35.1v-8.2l-5.4-5.4H21.5v31h23.3v-0.1c4.4-0.5,7.7-4.2,7.8-8.7C52.5,39.3,49.1,35.6,44.8,35.1z
		 M38.9,23.8l3.5,3.5h-3.5V23.8z M23.4,50.6V23.4H37v5.8h5.8v5.9c-1.7,0.2-3.2,0.9-4.5,1.9H25.4v1.9h11.2c-0.4,0.6-0.7,1.2-1,1.9
		H25.4v1.9h9.7c0,0.3-0.1,0.6-0.1,1c0,2.7,1.3,5.2,3.2,6.8H23.4z M43.8,50.4c-3.7,0-6.7-3-6.7-6.7c0-3.7,3-6.7,6.7-6.7
		c3.7,0,6.7,3,6.7,6.7C50.4,47.5,47.5,50.4,43.8,50.4z M40.9,33.1H25.4v1.9h15.5V33.1z"/>
	<path class="st0" d="M46.8,42.8c0-0.1,0-0.3,0-0.4c0-0.7-0.1-1.4-0.5-2.2c-0.4-0.8-1.4-1.3-2.5-1.3c-1.1,0-2.1,0.5-2.5,1.3
		c-0.5,0.7-0.5,1.5-0.5,2.2c0,0.1,0,0.3,0,0.4h-0.8v4.8h7.8v-4.8H46.8z M42.7,42.4c0-0.5,0.1-0.9,0.2-1.2c0.2-0.2,0.3-0.4,0.9-0.4
		c0.6,0,0.7,0.2,0.9,0.4c0.2,0.2,0.3,0.7,0.2,1.2c0,0.1,0,0.3,0,0.4h-2.2C42.7,42.7,42.7,42.6,42.7,42.4z"/>
</g>
</svg>
