<?xml version="1.0" encoding="utf-8"?>
<!-- Generator: Adobe Illustrator 21.0.2, SVG Export Plug-In . SVG Version: 6.00 Build 0)  -->
<svg version="1.1" id="Layer_1" xmlns="http://www.w3.org/2000/svg" xmlns:xlink="http://www.w3.org/1999/xlink" x="0px" y="0px"
	 viewBox="0 0 74 74" style="enable-background:new 0 0 74 74;" xml:space="preserve">
<style type="text/css">
	.st0{fill:#FFFFFF;}
</style>
<title>Cloud &amp;amp; Infrastructure Services</title>
<g>
	<path class="st0" d="M37,74C16.6,74,0,57.4,0,37C0,16.6,16.6,0,37,0c20.4,0,37,16.6,37,37C74,57.4,57.4,74,37,74z M37,2
		C17.7,2,2,17.7,2,37s15.7,35,35,35s35-15.7,35-35S56.3,2,37,2z"/>
</g>
<g>
	<g>
		<path class="st0" d="M28,52.8c-1.8,0-2-0.2-2-2V39.2c0-1.3,0-2.6,0-3.9c0-2.6,0-5.2,0-7.8c0-0.8,0.1-1.6,1.3-1.6
			c0.1,0,0.2,0,0.3,0c0.2,0,0.3,0,0.5,0s0.3,0,0.4,0c0.2,0,0.3,0,0.5,0c0.1,0,0.2,0,0.3,0c0.4,0,0.9-0.1,1.2-0.7
			c0.5-0.8,1.4-1.3,2.5-1.3c0.1,0,0.2,0,0.2,0c0.5,0,0.8,0,1-0.7c0.4-1.2,1.3-1.9,2.7-2c1.4,0,2.4,0.7,2.9,2
			c0.2,0.5,0.4,0.7,0.8,0.7c0.1,0,0.1,0,0.2,0c0.1,0,0.2,0,0.2,0c1.2,0,2.1,0.5,2.6,1.5c0.2,0.4,0.5,0.5,0.9,0.5c0.1,0,0.2,0,0.3,0
			c0.1,0,0.2,0,0.3,0l0.5,0c0.2,0,1.1,0,1.1,0c0.5,0,0.9,0,1.1,0.3c0.3,0.3,0.3,1,0.3,2.5l0,0.2v21.9c0,1.8-0.2,2-2,2H28z M37,50.8
			c2.6,0,5.3,0,8,0c0.9,0,1.1-0.2,1.1-1.1c-0.1-6.9-0.1-13.9,0-20.9c0-0.1,0-0.2,0-0.3c0-0.2,0.1-0.5,0-0.6
			c-0.1-0.1-0.2-0.1-0.3-0.1c-0.2,0-0.4,0-0.6-0.1c-0.2,0-0.4-0.1-0.6-0.1c-0.4,0-0.6,0.1-0.8,0.5c-0.7,1.2-1.7,1.7-3.3,1.7
			c-1.1,0-2.3,0-3.4,0c-1.1,0-2.3,0-3.4,0c-1.7,0-2.7-0.5-3.3-1.7c-0.2-0.3-0.4-0.5-0.8-0.5c-0.2,0-0.4,0-0.6,0.1
			c-0.2,0-0.4,0.1-0.6,0.1c-0.1,0-0.3,0.1-0.3,0.1c-0.1,0.1-0.1,0.4,0,0.6c0,0.1,0,0.2,0,0.3v10.3c0,1.2,0,2.3,0,3.5
			c0,2.3,0,4.7,0,7c0,0.9,0.2,1.1,1.1,1.1C31.7,50.8,34.4,50.8,37,50.8z M33.3,25.8c-0.8,0-1.2,0.3-1.4,1.1c0,0.8,0.4,1.2,1.3,1.2
			h7.5c0.3,0,1.4-0.1,1.4-1.1c0-0.9-0.7-1.1-1.4-1.1h-1.5c-0.6,0-0.9-0.2-1.1-0.4c-0.2-0.2-0.2-0.5-0.1-0.9c0.1-0.4,0-0.7-0.1-1
			c-0.2-0.2-0.4-0.3-0.8-0.3l-0.1,0c-0.3,0-0.5,0.1-0.6,0.2c-0.2,0.2-0.3,0.5-0.2,1c0.1,0.4,0,0.8-0.2,1c-0.2,0.3-0.6,0.4-1.1,0.4
			H33.3z"/>
	</g>
	<g>
		<path class="st0" d="M35.2,44.6c-0.3,0-0.6-0.1-0.9-0.4c-0.5-0.5-1-1-1.5-1.5c-0.5-0.5-1-1-1.5-1.5c-0.3-0.3-0.5-0.6-0.5-0.8
			c0-0.2,0.1-0.5,0.3-0.7c0.2-0.2,0.4-0.3,0.7-0.3c0.3,0,0.6,0.2,0.9,0.5c0.6,0.5,1.2,1,1.6,1.6c0.3,0.4,0.5,0.5,0.7,0.5
			c0.2,0,0.5-0.2,0.8-0.6c1.5-1.9,3.1-3.8,4.7-5.7l1.7-2c0.2-0.3,0.5-0.6,1-0.6c0.1,0,0.2,0,0.4,0.1c0.4,0.1,0.6,0.5,0.6,0.8
			c0,0.4-0.3,0.7-0.5,1l-1.1,1.3c-2.1,2.5-4.3,5.1-6.4,7.7C35.9,44.4,35.6,44.6,35.2,44.6z"/>
	</g>
	<g>
		<path class="st0" d="M43.5,33.2c-0.6-0.2-1,0.1-1.3,0.5c-2.1,2.5-4.3,5.1-6.3,7.7c-0.7,0.8-1.1,0.8-1.7,0.1
			c-0.5-0.5-1.1-1.1-1.6-1.6c-0.4-0.4-1-0.6-1.4-0.2c-0.5,0.5-0.3,1,0.2,1.4c1,1,2.1,2,3.1,3c0.6,0.5,1.1,0.5,1.7-0.2
			c2.5-3,5-6,7.5-9c0.2-0.3,0.5-0.6,0.5-1C44,33.7,43.9,33.3,43.5,33.2z"/>
	</g>
</g>
</svg>
