<?xml version="1.0" encoding="utf-8"?>
<!-- Generator: Adobe Illustrator 21.0.2, SVG Export Plug-In . SVG Version: 6.00 Build 0)  -->
<svg version="1.1" id="Layer_1" xmlns="http://www.w3.org/2000/svg" xmlns:xlink="http://www.w3.org/1999/xlink" x="0px" y="0px"
	 viewBox="0 0 74 74" style="enable-background:new 0 0 74 74;" xml:space="preserve">
<style type="text/css">
	.st0{fill:#FFFFFF;}
</style>
<title>intelligent-business-app</title>
<path class="st0" d="M37,74C16.6,74,0,57.4,0,37C0,16.6,16.6,0,37,0c20.4,0,37,16.6,37,37C74,57.4,57.4,74,37,74z M37,2
	C17.7,2,2,17.7,2,37s15.7,35,35,35s35-15.7,35-35S56.3,2,37,2z"/>
<g>
	<g>
		<path class="st0" d="M18.7,51.9c-0.1,0-0.2,0-0.3-0.1c-0.3-0.2-0.5-0.6-0.3-0.9l3.4-7.5c0.1-0.2,0.3-0.3,0.5-0.4
			c0.2,0,0.4,0,0.6,0.2l3.3,3.3l2.3-5.8c0.1-0.3,0.4-0.4,0.6-0.4h3.6l3.3-7.3c0.2-0.3,0.6-0.5,0.9-0.3c0.3,0.2,0.5,0.6,0.3,0.9
			l-3.5,7.7c-0.1,0.2-0.4,0.4-0.6,0.4h-3.6l-2.5,6.4c-0.1,0.2-0.3,0.4-0.5,0.4c-0.2,0-0.5,0-0.6-0.2L22.3,45l-3,6.6
			C19.2,51.8,18.9,51.9,18.7,51.9z"/>
		<path class="st0" d="M43.1,37c-0.2,0-0.3-0.1-0.4-0.2L39,33.6c-0.3-0.2-0.3-0.7-0.1-1c0.2-0.3,0.7-0.3,1-0.1l3,2.6l3.7-8.6
			c0.1-0.2,0.3-0.4,0.5-0.4c0.2,0,0.4,0,0.6,0.2l3.4,3.4l3.7-7.3c0.2-0.3,0.6-0.5,0.9-0.3c0.3,0.2,0.5,0.6,0.3,0.9l-4.1,8.1
			c-0.1,0.2-0.3,0.3-0.5,0.4c-0.2,0-0.4,0-0.6-0.2L47.4,28l-3.7,8.6c-0.1,0.2-0.3,0.3-0.5,0.4C43.2,37,43.2,37,43.1,37z"/>
		<path class="st0" d="M37.7,34.3c-2.2,0-4.1-1.8-4.1-4.1s1.8-4.1,4.1-4.1s4.1,1.8,4.1,4.1S39.9,34.3,37.7,34.3z M37.7,27.5
			c-1.5,0-2.7,1.2-2.7,2.7s1.2,2.7,2.7,2.7s2.7-1.2,2.7-2.7S39.2,27.5,37.7,27.5z"/>
		<path class="st0" d="M37.7,31.6c-0.7,0-1.4-0.6-1.4-1.4c0-0.7,0.6-1.4,1.4-1.4s1.4,0.6,1.4,1.4C39,31,38.4,31.6,37.7,31.6z
			 M37.7,30.2L37.7,30.2L37.7,30.2z"/>
		<path class="st0" d="M37,55.3c0-0.4,0.3-0.7,0.7-0.7l0,0c0.4,0,0.7,0.3,0.7,0.7l0,0c0,0.4-0.3,0.7-0.7,0.7l0,0
			C37.3,56,37,55.7,37,55.3z M37,52.6c0-0.4,0.3-0.7,0.7-0.7l0,0c0.4,0,0.7,0.3,0.7,0.7l0,0c0,0.4-0.3,0.7-0.7,0.7l0,0
			C37.3,53.3,37,53,37,52.6z M37,49.9c0-0.4,0.3-0.7,0.7-0.7l0,0c0.4,0,0.7,0.3,0.7,0.7l0,0c0,0.4-0.3,0.7-0.7,0.7l0,0
			C37.3,50.6,37,50.3,37,49.9z M37,47.2c0-0.4,0.3-0.7,0.7-0.7l0,0c0.4,0,0.7,0.3,0.7,0.7l0,0c0,0.4-0.3,0.7-0.7,0.7l0,0
			C37.3,47.9,37,47.6,37,47.2z M37,44.5c0-0.4,0.3-0.7,0.7-0.7l0,0c0.4,0,0.7,0.3,0.7,0.7l0,0c0,0.4-0.3,0.7-0.7,0.7l0,0
			C37.3,45.1,37,44.8,37,44.5z M37,41.7c0-0.4,0.3-0.7,0.7-0.7l0,0c0.4,0,0.7,0.3,0.7,0.7l0,0c0,0.4-0.3,0.7-0.7,0.7l0,0
			C37.3,42.4,37,42.1,37,41.7z M37,39c0-0.4,0.3-0.7,0.7-0.7l0,0c0.4,0,0.7,0.3,0.7,0.7l0,0c0,0.4-0.3,0.7-0.7,0.7l0,0
			C37.3,39.7,37,39.4,37,39z M37,36.3c0-0.4,0.3-0.7,0.7-0.7l0,0c0.4,0,0.7,0.3,0.7,0.7l0,0c0,0.4-0.3,0.7-0.7,0.7l0,0
			C37.3,37,37,36.7,37,36.3z"/>
	</g>
	<path class="st0" d="M37,24.1c0-0.4,0.3-0.7,0.7-0.7l0,0c0.4,0,0.7,0.3,0.7,0.7l0,0c0,0.4-0.3,0.7-0.7,0.7l0,0
		C37.3,24.8,37,24.5,37,24.1z M37,21.4c0-0.4,0.3-0.7,0.7-0.7l0,0c0.4,0,0.7,0.3,0.7,0.7l0,0c0,0.4-0.3,0.7-0.7,0.7l0,0
		C37.3,22.1,37,21.8,37,21.4z M37,18.7c0-0.4,0.3-0.7,0.7-0.7l0,0c0.4,0,0.7,0.3,0.7,0.7l0,0c0,0.4-0.3,0.7-0.7,0.7l0,0
		C37.3,19.4,37,19.1,37,18.7z"/>
</g>
</svg>
