<?xml version="1.0" encoding="utf-8"?>
<!-- Generator: Adobe Illustrator 21.0.2, SVG Export Plug-In . SVG Version: 6.00 Build 0)  -->
<svg version="1.1" id="Layer_1" xmlns="http://www.w3.org/2000/svg" xmlns:xlink="http://www.w3.org/1999/xlink" x="0px" y="0px"
	 viewBox="0 0 74 74" style="enable-background:new 0 0 74 74;" xml:space="preserve">
<style type="text/css">
	.st0{fill:#FFFFFF;}
</style>
<title>Cloud &amp;amp; Infrastructure Services</title>
<path class="st0" d="M37,74C16.6,74,0,57.4,0,37C0,16.6,16.6,0,37,0c20.4,0,37,16.6,37,37C74,57.4,57.4,74,37,74z M37,2
	C17.7,2,2,17.7,2,37s15.7,35,35,35s35-15.7,35-35S56.3,2,37,2z"/>
<g>
	<path class="st0" d="M45.5,34.2c0-0.1,0-0.3,0-0.4c0-1.4-0.9-2.7-2.3-3.5c0-1.7-1.7-3.1-3.7-3.1c-0.8,0-1.7,0.3-2.4,0.7
		c-0.1,0.1-0.2,0.2-0.3,0.3c-0.1-0.2-0.3-0.4-0.5-0.4l0,0h-0.7v0C33.3,28,31,29,29.2,30.7c-1.8,1.8-2.8,4.3-2.8,6.8
		c0,3.3,1.6,6.3,4.2,8c0.5,0.3,0.5,0.8,0.5,1.1l0,2.3c0,0.2,0.1,0.4,0.2,0.6c0.1,0.2,0.3,0.2,0.6,0.2h4.5c0.4,0,0.8-0.3,0.8-0.8
		c0-0.4-0.3-0.8-0.8-0.8h-0.2v-4.7c0-0.1,0-0.2-0.1-0.4l-2.1-4c-0.1-0.2-0.4-0.4-0.7-0.4c-0.1,0-0.3,0-0.4,0.1
		c-0.4,0.2-0.5,0.7-0.3,1l2,3.8v4.5h-1.9l0-1.4c0.1-0.2,0.1-1.7-1.2-2.5c-2.1-1.3-3.4-3.9-3.4-6.7c0-2.2,0.8-4.2,2.4-5.8
		c1.5-1.5,3.6-2.4,5.8-2.4h0.1c0.2,0,0.4-0.1,0.6-0.3c0,0.2,0,0.4,0,0.6l0,0.9c0,0.2,0,15.3,0,15.6c0,0.8,0,3.2,2.6,3.2
		c1.9,0,3.5-1.3,3.7-3c1.5-0.7,2.5-2.1,2.5-3.6c0-0.3,0-0.5-0.1-0.8c1.4-1,2.2-2.4,2.2-3.9C47.8,36.6,46.9,35.2,45.5,34.2z
		 M44.6,40.9c-0.3-0.1-0.6-0.2-0.9-0.2c-0.5,0-0.9,0.1-1.4,0.3l-0.5,0.3c-0.4,0.2-0.5,0.7-0.3,1c0.1,0.3,0.4,0.4,0.7,0.4
		c0.1,0,0.3,0,0.4-0.1l0.5-0.3c0.2-0.1,0.4-0.2,0.6-0.2c0.1,0,0.2,0,0.3,0c0,0.2,0.1,0.3,0.1,0.5c0,1-0.8,2-2,2.4
		c-0.3,0.1-0.6,0.5-0.5,0.8c0,0.1,0,0.1,0,0.2c0,0.9-0.9,1.6-2.1,1.6c-0.7,0-1.1-0.1-1.1-1.6c0-0.3,0-15.4,0-15.6c0-0.3,0-0.6,0-1
		l0-0.7c0.3-0.2,0.7-0.3,1.1-0.3l0.1,0c1.2,0,2.1,0.7,2.1,1.6c0,0.1,0,0.2,0,0.3c-0.1,0.4,0.1,0.7,0.5,0.9c1.1,0.4,1.8,1.3,1.8,2.3
		c0,0.2,0,0.4-0.1,0.5c-0.1,0.3,0.1,0.7,0.4,0.9c1.2,0.7,2,1.8,2,2.9C46.2,39.3,45.6,40.3,44.6,40.9z"/>
	<path class="st0" d="M44.3,36.7c-0.5,0.1-1.5,0.7-1.3,1.9c0,0.2,0.2,0.3,0.4,0.3c0,0,0,0,0.1,0c0.2,0,0.3-0.2,0.3-0.4
		c-0.1-0.8,0.7-1.1,0.8-1.1c0.2,0,0.3-0.2,0.3-0.4S44.5,36.7,44.3,36.7z"/>
	<path class="st0" d="M43.2,34.7c-0.1-0.2-0.4-0.2-0.5-0.1c0,0-0.7,0.5-1.2,0c-0.2-0.1-0.4-0.1-0.5,0.1c-0.1,0.2-0.1,0.4,0.1,0.5
		c0.3,0.2,0.7,0.3,1,0.3c0.5,0,0.9-0.2,1.1-0.4C43.3,35.1,43.3,34.9,43.2,34.7z"/>
	<path class="st0" d="M40.3,44.5c-0.4,0-0.8,0.2-1.2,0.6c-0.1,0.2-0.1,0.4,0,0.5c0.1,0.1,0.2,0.1,0.2,0.1c0.1,0,0.2,0,0.3-0.1
		c0.2-0.2,0.4-0.4,0.6-0.4c0.3,0,0.6,0.2,0.6,0.2c0.1,0.1,0.4,0.1,0.5,0s0.1-0.4,0-0.5C41.4,44.9,40.9,44.5,40.3,44.5z"/>
	<path class="st0" d="M39.8,32.8c0,0,0.1,0,0.1,0c0.3,0,0.5-0.1,0.8-0.3c0.2-0.2,0.4-0.5,0.4-0.8c0-0.2-0.1-0.4-0.3-0.4
		c-0.2,0-0.4,0.1-0.4,0.3c0,0.1-0.1,0.2-0.2,0.3c-0.1,0.1-0.2,0.1-0.3,0.1c-0.2,0-0.4-0.2-0.4-0.5c0-0.2-0.1-0.4-0.3-0.4
		c-0.2,0-0.4,0.1-0.4,0.3C38.7,32.2,39.2,32.8,39.8,32.8z"/>
	<path class="st0" d="M39.2,40.7c0.1,0,0.1,0.1,0.2,0.1c0.1,0,0.2-0.1,0.3-0.2l0.4-0.7l0.7-0.4c0.2-0.1,0.2-0.3,0.2-0.5
		c-0.1-0.2-0.3-0.2-0.5-0.2l-0.8,0.4c-0.1,0-0.1,0.1-0.1,0.1L39,40.2C38.9,40.4,39,40.6,39.2,40.7z"/>
	<path class="st0" d="M39.3,36c0.2,0,0.4-0.1,0.4-0.3l0.1-0.9c0-0.2-0.1-0.4-0.3-0.4c-0.2,0-0.4,0.1-0.4,0.3l-0.1,0.9
		C38.9,35.9,39,36,39.3,36C39.2,36,39.2,36,39.3,36z"/>
	<path class="st0" d="M40.3,50.1l-8.5,0c-0.2,0-0.4,0.1-0.5,0.2c-0.1,0.2-0.2,0.4-0.2,0.6v2.8c0,0.3,0.1,0.5,0.3,0.7l2.7,2.1
		c0.1,0.1,0.3,0.2,0.5,0.2h3.2c0.2,0,0.3-0.1,0.5-0.2l2.6-2.1c0.2-0.2,0.3-0.4,0.3-0.7v-2.8C41.1,50.5,40.8,50.1,40.3,50.1z
		 M34.8,55.6l-0.4-0.9l3.5,0l-0.3,0.9H34.8z M39.6,53l-7,0v-1.3h7V53z"/>
	<path class="st0" d="M37,25.7c0.4,0,0.8-0.3,0.8-0.8v-6.3c0-0.4-0.3-0.8-0.8-0.8s-0.8,0.3-0.8,0.8v6.3C36.2,25.3,36.6,25.7,37,25.7
		z"/>
	<path class="st0" d="M24.7,36.2h-6.3c-0.4,0-0.8,0.3-0.8,0.8s0.3,0.8,0.8,0.8h6.3c0.4,0,0.8-0.3,0.8-0.8S25.1,36.2,24.7,36.2z"/>
	<path class="st0" d="M27.3,27.5c0.1,0.1,0.3,0.2,0.5,0.2c0.2,0,0.4-0.1,0.6-0.2c0.3-0.3,0.3-0.8,0-1.1L23.9,22
		c-0.2-0.1-0.3-0.2-0.5-0.2c-0.2,0-0.4,0.1-0.5,0.2c-0.3,0.3-0.3,0.8,0,1.1L27.3,27.5z"/>
	<path class="st0" d="M55.6,36.2h-6.3c-0.4,0-0.8,0.3-0.8,0.8s0.3,0.8,0.8,0.8h6.3c0.4,0,0.8-0.3,0.8-0.8
		C56.4,36.5,56.1,36.2,55.6,36.2z"/>
	<path class="st0" d="M46.2,27.8c0.2,0,0.4-0.1,0.6-0.2l4.4-4.4c0.1-0.2,0.2-0.4,0.2-0.6c0-0.2-0.1-0.4-0.2-0.5
		c-0.1-0.1-0.3-0.2-0.5-0.2c-0.2,0-0.4,0.1-0.5,0.2l-4.4,4.5c-0.3,0.3-0.3,0.8,0,1.1C45.8,27.7,46,27.8,46.2,27.8z"/>
</g>
</svg>
