<?xml version="1.0" encoding="utf-8"?>
<!-- Generator: Adobe Illustrator 21.0.2, SVG Export Plug-In . SVG Version: 6.00 Build 0)  -->
<svg version="1.1" id="Layer_1" xmlns="http://www.w3.org/2000/svg" xmlns:xlink="http://www.w3.org/1999/xlink" x="0px" y="0px"
	 viewBox="0 0 74 74" style="enable-background:new 0 0 74 74;" xml:space="preserve">
<style type="text/css">
	.st0{fill:#FFFFFF;}
</style>
<title>Cloud &amp;amp; Infrastructure Services</title>
<g>
	<path class="st0" d="M37,74C16.6,74,0,57.4,0,37S16.6,0,37,0s37,16.6,37,37S57.4,74,37,74z M37,2C17.7,2,2,17.7,2,37s15.7,35,35,35
		s35-15.7,35-35S56.3,2,37,2z"/>
</g>
<g>
	<path class="st0" d="M45.1,23l2.4,2.5l-10.2,7.8c-0.4,0-0.7,0-1.1,0l-6.1-2.7c-0.3-0.1-0.6-0.1-0.9,0.1L22,35.1
		c-0.5,0.3-0.6,0.9-0.3,1.3c0.2,0.3,0.5,0.5,0.8,0.5c0.2,0,0.3-0.1,0.5-0.1l6.8-4.2l2.4,1.1c-0.7,0.1-1.3,0.3-1.9,0.5
		c-1.3,0.5-1.7,1-1.7,2.4v4.6v2c0,0,0,0,0,0v6.7c0,2.1,0.3,2.5,2.4,3.1c2.3,0.6,4.4,0.7,6.3,0.7c2.3,0,4.7-0.1,7.1-0.9
		c0.6-0.2,1.5-0.5,1.7-1.5l0.1-7.3v-0.2c0,0,0-0.2,0-0.4c0,0,0,0,0,0c0-0.1-0.1-2.1-0.1-2.1V39c0-0.1,0-0.2,0-0.3v-1.8v-0.1
		c0.3-2-1.3-2.4-2.3-2.7c-1-0.3-2.1-0.5-3.3-0.6L49,27l2.2,2.3l2.3-8.3L45.1,23z M43.5,51.3c-1.8,0.5-3.7,0.7-6.1,0.7
		c-2.4,0-4.4-0.2-6.2-0.7c-0.6-0.2-0.8-0.4-0.7-1c0.1-0.6,0-1.2,0-1.8c0-0.2,0-0.3,0-0.5c3.1,0.6,5.2,0.8,7.1,0.8
		c2,0,3.9-0.2,6.7-0.9c0,0.1,0,0.5,0,0.5c0,0.6,0,1.2,0,1.8C44.4,50.9,44.1,51.1,43.5,51.3z M44.4,43.2
		C44.4,43.2,44.4,43.2,44.4,43.2l0,2.5h-0.1c0,0.2,0,0.2-0.5,0.3c-1.2,0.5-2.4,0.6-3.7,0.7c-1,0.1-2,0.1-2.9,0.1
		c-2,0-3.8-0.2-5.5-0.6c-1.2-0.3-1.2-0.3-1.2-1.4v-1.4c0,0,0,0,0,0v-0.6c0.8,0.2,1.8,0.4,2.8,0.6c1.3,0.2,2.7,0.3,4.1,0.3
		c1.4,0,2.8-0.1,4-0.3c1-0.1,2.1-0.4,3-0.6L44.4,43.2z M44.3,38.1v2.5c0,0.2-0.1,0.2-0.3,0.3L43.8,41c-0.3,0.1-0.6,0.2-1,0.3
		c0,0,0.1,0,0.1,0c-0.6,0.1-1.2,0.2-1.9,0.3c-0.1,0-0.3,0-0.4,0c-1.2,0.1-2.3,0.2-3.4,0.2c-1,0-2-0.1-3-0.2
		c-0.8-0.1-1.5-0.2-2.3-0.4c-0.1,0-0.3,0-0.4,0c-0.8-0.2-1-0.4-1-1.4c0-0.5,0-0.9,0-1.4v-0.3c2.4,0.6,4.7,0.8,7,0.8
		S42.1,38.6,44.3,38.1z M43.7,36.2c-1.2,0.5-3.6,0.9-6.3,0.9c-2.6,0-5-0.3-6.3-0.8c1-0.5,2.7-0.8,4.8-1l0.8,0.4
		c0.3,0.1,0.7,0.1,1-0.1l0.4-0.3C40.5,35.4,42.6,35.7,43.7,36.2z"/>
</g>
</svg>
