<?xml version="1.0" encoding="utf-8"?>
<!-- Generator: Adobe Illustrator 21.1.0, SVG Export Plug-In . SVG Version: 6.00 Build 0)  -->
<svg version="1.1" id="Layer_1" xmlns="http://www.w3.org/2000/svg" xmlns:xlink="http://www.w3.org/1999/xlink" x="0px" y="0px"
	 viewBox="0 0 74 74" style="enable-background:new 0 0 74 74;" xml:space="preserve">
<style type="text/css">
	.st0{fill:#FFFFFF;}
	.st1{fill:none;stroke:#FFFFFF;stroke-width:2;stroke-linecap:round;}
	.st2{fill:none;stroke:#FFFFFF;stroke-width:2;stroke-linecap:round;stroke-linejoin:round;}
</style>
<path class="st0" d="M-0.1,36.4C0,36.2,0,36,0,35.8c0.2-7.3,2.5-14,6.7-20C11.1,9.5,17,5,24.2,2.3c2.6-1,5.4-1.7,8.2-2
	C33.8,0.2,35.3,0,36.7,0c1.8,0,3.6,0.2,5.4,0.4c3.1,0.3,6,1.2,8.9,2.4c3.8,1.6,7.3,3.7,10.4,6.4c5.7,5,9.5,11.2,11.5,18.5
	c0.6,2.1,0.9,4.2,1.1,6.4c0.2,2.4,0.2,4.7-0.1,7c-0.7,6.1-2.8,11.7-6.3,16.7c-3.3,4.9-7.6,8.7-12.8,11.6c-3.5,1.9-7.1,3.2-11,3.9
	c-2.2,0.4-4.4,0.6-6.6,0.6c-1.8,0-3.6-0.2-5.3-0.4c-3-0.4-6-1.2-8.8-2.4c-3.7-1.5-7-3.6-10.1-6.2C7.1,60.1,3.2,53.8,1.2,46.3
	c-0.6-2.1-0.9-4.2-1-6.4c0-0.6-0.1-1.2-0.1-1.9c0-0.1-0.1-0.3-0.1-0.4C-0.1,37.2-0.1,36.8-0.1,36.4z M37,71.7
	c19.1,0,34.7-15.5,34.7-34.7C71.7,17.9,56.1,2.4,37,2.4C17.9,2.3,2.3,17.9,2.3,37S17.9,71.7,37,71.7z"/>
<g id="Page-1">
	<g id="Icons" transform="translate(-851.000000, -622.000000)">
		<g id="_x32_7--Fitness-App--_x28_Outline_x29_" transform="translate(852.000000, 623.000000)">
			<path id="Stroke-342" class="st1" d="M43.7,49.6H25.5c-1.7,0-3.1-1.4-3.1-3.1V25.5c0-1.7,1.4-3.1,3.1-3.1h18.2
				c1.7,0,3.1,1.4,3.1,3.1v21.1C46.8,48.3,45.4,49.6,43.7,49.6L43.7,49.6z"/>
			<path id="Stroke-343" class="st1" d="M42.5,21.2l0.7,1.2H26l0.7-1.2c0.5-0.9,0.8-1.9,0.8-2.9l0,0c0-1.7,1.5-3,3.5-3h7.3
				c1.9,0,3.5,1.3,3.5,3l0,0C41.7,19.2,41.9,20.2,42.5,21.2L42.5,21.2z"/>
			<path id="Stroke-344" class="st1" d="M26.7,50.8L26,49.6h17.2l-0.7,1.2c-0.5,0.9-0.8,1.9-0.8,2.9l0,0c0,1.7-1.5,3-3.5,3h-7.3
				c-1.9,0-3.5-1.3-3.5-3l0,0C27.5,52.8,27.2,51.8,26.7,50.8L26.7,50.8z"/>
			<path id="Stroke-345" class="st1" d="M48.6,38.9h-1.8v-5.7h1.8c0.6,0,1.1,0.5,1.1,1.1v3.6C49.6,38.4,49.2,38.9,48.6,38.9
				L48.6,38.9z"/>
			<polyline id="Stroke-346" class="st2" points="43.9,41.7 42.5,41.7 40.3,46 38.2,38.2 36,41.7 33.8,41.7 31,46 28.8,38.2 
				26,42.5 24.5,42.5 			"/>
			<path id="Stroke-347" class="st2" d="M29.5,26.7h10"/>
			<path id="Stroke-348" class="st2" d="M37.4,29.5h2.2"/>
			<path id="Stroke-349" class="st2" d="M29.5,29.5h5"/>
			<path id="Stroke-350" class="st2" d="M35.3,32.4h4.3"/>
			<path id="Stroke-351" class="st2" d="M29.5,32.4h2.9"/>
		</g>
	</g>
</g>
</svg>
