<?xml version="1.0" encoding="utf-8"?>
<!-- Generator: Adobe Illustrator 21.0.0, SVG Export Plug-In . SVG Version: 6.00 Build 0)  -->
<svg version="1.1" id="Layer_1" xmlns="http://www.w3.org/2000/svg" xmlns:xlink="http://www.w3.org/1999/xlink" x="0px" y="0px"
	 viewBox="0 0 74 74" style="enable-background:new 0 0 74 74;" xml:space="preserve">
<style type="text/css">
	.st0{fill:none;stroke:#FFFFFF;stroke-width:2;stroke-miterlimit:10;}
	.st1{fill:#FFFFFF;}
</style>
<title>Azure_Site_Recovery</title>
<circle class="st0" cx="37" cy="37" r="36"/>
<g>
	<path class="st1" d="M27.1,56.8c0-9.1,0-18,0-27.1c2.6,1.6,5,3.2,7.4,4.8c0.2,0.1,0.2,0.7,0.1,1c-1.7,5.1-3.4,10.2-5.1,15.4
		c-0.5,1.5-1,3-1.3,4.6C36,47.4,43.9,39.3,51.9,31c0,1,0,1.7,0,2.5c0,3,0,6.1,0,9.1c0,0.4-0.3,0.9-0.6,1.1
		c-7.8,4.3-15.7,8.6-23.6,12.9C27.5,56.6,27.3,56.7,27.1,56.8z"/>
	<path class="st1" d="M27.1,16.8c8,4.3,15.9,8.6,23.9,13c-1.9,1.4-3.6,2.6-5.4,3.9c-0.9,0.6-1.8,1.6-2.8,1.7c-0.9,0.1-2-0.8-2.9-1.3
		c-4.1-2-8.1-3.9-12.2-5.9c-0.3-0.2-0.7-0.7-0.7-1c0-3.4,0-6.7,0-10.1C27,17.1,27,17,27.1,16.8z"/>
</g>
</svg>
