<?xml version="1.0" encoding="utf-8"?>
<!-- Generator: Adobe Illustrator 21.0.0, SVG Export Plug-In . SVG Version: 6.00 Build 0)  -->
<svg version="1.1" id="Layer_1" xmlns="http://www.w3.org/2000/svg" xmlns:xlink="http://www.w3.org/1999/xlink" x="0px" y="0px"
	 viewBox="0 0 74 74" style="enable-background:new 0 0 74 74;" xml:space="preserve">
<style type="text/css">
	.st0{fill:none;stroke:#FFFFFF;stroke-width:2;stroke-miterlimit:10;}
	.st1{fill:#FFFFFF;}
</style>
<title>os-patch-management</title>
<g id="text">
</g>
<g>
	<circle class="st0" cx="37" cy="37" r="36"/>
	<g>
		<path class="st1" d="M45.3,21.5l-0.1,1.4c0.8-0.1,1.5,0.2,2.1,0.8c0.5,0.5,0.8,1.2,0.8,2.1l1.4-0.1c0-1.1-0.4-2.2-1.2-3
			S46.4,21.5,45.3,21.5z"/>
		<path class="st1" d="M45.1,19v1.5c3.1,0,5.6,2.5,5.6,5.6l1.4-0.1C52.2,22,49,18.8,45.1,19z"/>
		<path class="st1" d="M45.1,16.1L45,17.5c4.7,0.1,8.5,3.8,8.5,8.5H55C55,20.5,50.6,16.1,45.1,16.1z"/>
		<g>
			<path class="st1" d="M46,25.3c-0.5-0.5-1.3-0.8-2-0.8H30.2c-1.7,0-3,1.3-3,3v25.3c0,1.9,1.3,3.3,3,3.3H44c0.7,0,1.5-0.3,2-0.8
				c0.6-0.6,0.8-1.3,0.8-2.1V27.3C46.9,26.6,46.6,25.9,46,25.3z M45.2,53.4c0,0.3-0.1,0.5-0.4,0.8c-0.3,0.1-0.6,0.3-0.8,0.3H30.2
				c-0.7,0-1.2-0.5-1.2-1.2v-2.1h16.2V53.4z M45.2,49.6H29V30.3h16.2V49.6z M45.2,28.6H29v-1.3c0-0.7,0.5-1.2,1.2-1.2H44
				c0.3,0,0.5,0.1,0.8,0.3c0.3,0.3,0.4,0.5,0.4,0.8V28.6z"/>
			<circle class="st1" cx="37" cy="52.9" r="1.1"/>
		</g>
	</g>
</g>
</svg>
