<?xml version="1.0" encoding="utf-8"?>
<!-- Generator: Adobe Illustrator 21.0.2, SVG Export Plug-In . SVG Version: 6.00 Build 0)  -->
<svg version="1.1" id="Layer_1" xmlns="http://www.w3.org/2000/svg" xmlns:xlink="http://www.w3.org/1999/xlink" x="0px" y="0px"
	 viewBox="0 0 74 74" style="enable-background:new 0 0 74 74;" xml:space="preserve">
<style type="text/css">
	.st0{fill:none;stroke:#FFFFFF;stroke-width:2;stroke-miterlimit:10;}
	.st1{fill:#FFFFFF;}
</style>
<title>Cloud &amp;amp; Infrastructure Services</title>
<circle class="st0" cx="37" cy="37" r="36"/>
<g>
	<g>
		<path class="st1" d="M35,46h-3.6v-6.9c0-1.5-0.1-2.4-0.2-2.8c-0.2-0.4-0.4-0.8-0.7-1s-0.8-0.4-1.2-0.4c-0.6,0-1.2,0.2-1.7,0.5
			s-0.8,0.8-1,1.3s-0.3,1.6-0.3,3.1v6.1h-3.6V32.5H26v2c1.2-1.5,2.7-2.3,4.4-2.3c0.8,0,1.5,0.1,2.2,0.4c0.7,0.3,1.1,0.6,1.5,1.1
			c0.3,0.4,0.6,0.9,0.7,1.5c0.1,0.6,0.2,1.4,0.2,2.4L35,46z"/>
		<path class="st1" d="M46.4,41.7l3.5,0.6c-0.5,1.3-1.2,2.3-2.2,3s-2.2,1-3.7,1c-2.3,0-4.1-0.8-5.2-2.3c-0.9-1.2-1.3-2.8-1.3-4.6
			c0-2.2,0.6-4,1.7-5.2c1.2-1.3,2.6-1.9,4.4-1.9c2,0,3.6,0.7,4.7,2c1.2,1.3,1.7,3.3,1.7,6.1h-8.9c0,1.1,0.3,1.9,0.9,2.5
			s1.2,0.9,2.1,0.9c0.6,0,1-0.2,1.4-0.5C45.9,42.8,46.2,42.4,46.4,41.7z M46.6,38.1c0-1-0.3-1.8-0.8-2.4c-0.5-0.5-1.1-0.8-1.8-0.8
			c-0.8,0-1.4,0.3-1.9,0.8c-0.5,0.6-0.8,1.3-0.7,2.3L46.6,38.1L46.6,38.1z"/>
		<path class="st1" d="M59.2,32.5v2.8h-2.4v5.4c0,1.1,0,1.7,0.1,1.9c0,0.2,0.2,0.3,0.3,0.4c0.2,0.1,0.4,0.2,0.6,0.2
			c0.3,0,0.8-0.1,1.4-0.3l0.3,2.8c-0.9,0.4-1.8,0.6-2.8,0.6c-0.6,0-1.2-0.1-1.7-0.3s-0.9-0.5-1.1-0.8c-0.2-0.3-0.4-0.8-0.5-1.4
			c-0.1-0.4-0.1-1.2-0.1-2.5v-6h-1.6v-2.8h1.6v-2.7l3.6-2.1v4.8H59.2L59.2,32.5z"/>
	</g>
	
		<ellipse transform="matrix(0.9991 -4.339451e-02 4.339451e-02 0.9991 -1.876 0.7831)" class="st1" cx="17.1" cy="43.6" rx="2.6" ry="2.6"/>
</g>
</svg>
