<?xml version="1.0" encoding="utf-8"?>
<!-- Generator: Adobe Illustrator 21.0.0, SVG Export Plug-In . SVG Version: 6.00 Build 0)  -->
<svg version="1.1" id="Layer_1" xmlns="http://www.w3.org/2000/svg" xmlns:xlink="http://www.w3.org/1999/xlink" x="0px" y="0px"
	 viewBox="0 0 74 74" style="enable-background:new 0 0 74 74;" xml:space="preserve">
<style type="text/css">
	.st0{fill:none;stroke:#FFFFFF;stroke-width:2;stroke-miterlimit:10;}
	.st1{fill:#FFFFFF;}
</style>
<title>Azure_Site_Recovery</title>
<circle class="st0" cx="37" cy="37" r="36"/>
<g>
	<path class="st1" d="M20.5,50.1c-0.6-0.3-0.6-0.8-0.6-1.1c0-7.3,0-14.8,0-22.1c0-0.8,0.3-1.4,1.1-1.7c6.5-2.5,13.1-4.8,19.3-7.3
		c0.8-0.3,1.7-0.3,2.5,0c3.1,0.8,6,1.7,9.1,2.5c1.4,0.3,1.7,0.6,1.7,2c0,9.1,0,17.9,0,26.9c0,1.4,0,2.9,0,4c0,0.8-0.3,1.4-1.4,1.7
		c-3.1,0.8-6.2,1.7-9.6,2.5c-0.8,0.3-1.4,0.3-2.3,0c-6.5-2.3-12.7-4.8-19.3-7.1C21,50.4,20.5,50.4,20.5,50.1c0.3,0,0.8,0.3,1.1,0.3
		c6.2,0.8,12.2,1.7,18.4,2.5c1.4,0.3,1.4,0.3,1.4-1.1c0-7.7,0-15.3,0-22.9c0-1.1,0-2.5,0-3.7c0-0.8-0.3-1.1-1.1-0.8
		c-4,0.8-7.9,2-11.9,2.9c-0.8,0.3-1.1,0.6-1.1,1.4c0,5.6,0,11.3,0,17c0,1.7-0.3,2-1.7,2.5C23.9,48.7,22.2,49.2,20.5,50.1z"/>
</g>
</svg>
