<?xml version="1.0" encoding="utf-8"?>
<!-- Generator: Adobe Illustrator 21.0.0, SVG Export Plug-In . SVG Version: 6.00 Build 0)  -->
<svg version="1.1" id="Layer_1" xmlns="http://www.w3.org/2000/svg" xmlns:xlink="http://www.w3.org/1999/xlink" x="0px" y="0px"
	 viewBox="0 0 74 74" style="enable-background:new 0 0 74 74;" xml:space="preserve">
<style type="text/css">
	.st0{fill:none;stroke:#FFFFFF;stroke-width:2;stroke-miterlimit:10;}
	.st1{fill:#FFFFFF;}
</style>
<title>online-platforms</title>
<g>
	<circle class="st0" cx="37" cy="37" r="36"/>
	<g>
		<path class="st1" d="M50.1,35.5c-0.6-0.1-1.3,0.2-1.5-1c-0.6-5.7-5.7-10-11.4-9.4c-4.1,0.4-7.6,3.1-8.9,7c-0.3,0.8-0.7,1-1.4,0.9
			c-1.9-0.3-3.8,0.2-5.4,1.3c-2.9,2.3-4.2,6.1-3.1,9.6c1,3.3,3,4.9,6.4,4.9h24.1c3.7,0.2,6.9-2.6,7.1-6.3C56.2,39,53.6,36,50.1,35.5
			z M53.6,44.1c-0.7,1.8-2.5,2.9-4.5,2.8H23.7c-1.1-0.1-2.1-0.7-2.6-1.7c-1.6-2.5-1.4-5.8,0.4-8.1c1.8-2.2,4.3-2.8,7.2-1.5
			c0.3,0.1,0.5,0.2,0.9,0.3c0.1-0.6,0.2-1.2,0.3-1.7c0.7-4.6,5-7.8,9.6-7.2c4.3,0.6,7.4,4.4,7.2,8.8c0,0.3,0,0.5-0.1,0.8
			c-0.3,1.1,0,1.3,1.1,1c2.5-0.8,5.2,0.5,6,3C54.1,41.8,54.1,43,53.6,44.1L53.6,44.1z"/>
		<path class="st1" d="M38.9,32.7L38.9,32.7l-0.1-0.1c0,0-0.1,0-0.1-0.1c-0.1-0.1-0.2-0.1-0.3-0.1h-0.5c-0.1,0-0.1,0.1-0.2,0.1
			s-0.1,0.1-0.1,0.1c0,0-0.1,0-0.1,0.1l0,0v0.1l-3,3c-0.3,0.4-0.3,1.1,0.1,1.4c0.4,0.3,0.9,0.3,1.2,0l1.4-1.4v8c0,0.6,0.4,1,1,1
			s1-0.4,1-1v-8l1.4,1.4c0.4,0.4,1,0.4,1.4,0s0.4-1,0-1.4L38.9,32.7z"/>
	</g>
</g>
</svg>
