<svg id="Layer_1" data-name="Layer 1" xmlns="http://www.w3.org/2000/svg" viewBox="0 0 74 74"><defs><style>.cls-1{fill:none;stroke:#fff;stroke-miterlimit:10;stroke-width:2px;}.cls-2{fill:#fff;}</style></defs><title>our-locations</title><circle class="cls-1" cx="37" cy="37" r="36"/><path class="cls-2" d="M36.8,33.4a4,4,0,1,0-4-4A4,4,0,0,0,36.8,33.4Zm0-6.83A2.85,2.85,0,1,1,34,29.41,2.85,2.85,0,0,1,36.8,26.56Z"/><path class="cls-2" d="M36.7,49.77l8.73-12.61c3.28-4.37,2.8-11.54-1-15.36a10.92,10.92,0,0,0-15.44,0c-3.82,3.82-4.29,11-1,15.34ZM29.78,22.6a9.78,9.78,0,0,1,13.83,0c3.44,3.44,3.87,9.93.9,13.89L36.7,47.77l-7.82-11.3C25.91,32.52,26.34,26,29.78,22.6Z"/><path class="cls-2" d="M43.7,43.08a.57.57,0,1,0-.13,1.13c6,.7,9.17,2.6,9.17,3.7,0,1.54-6.06,3.7-15.94,3.7s-15.94-2.16-15.94-3.7c0-1.1,3.19-3,9.17-3.7a.57.57,0,1,0-.13-1.13c-6,.71-10.18,2.69-10.18,4.83,0,2.4,5.87,4.84,17.08,4.84s17.08-2.43,17.08-4.84C53.88,45.77,49.69,43.78,43.7,43.08Z"/></svg>