<?xml version="1.0" encoding="utf-8"?>
<!-- Generator: Adobe Illustrator 21.0.2, SVG Export Plug-In . SVG Version: 6.00 Build 0)  -->
<svg version="1.1" id="Layer_1" xmlns="http://www.w3.org/2000/svg" xmlns:xlink="http://www.w3.org/1999/xlink" x="0px" y="0px"
	 viewBox="0 0 74 74" style="enable-background:new 0 0 74 74;" xml:space="preserve">
<style type="text/css">
	.st0{fill:none;stroke:#FFFFFF;stroke-width:2;stroke-miterlimit:10;}
	.st1{fill:#FFFFFF;}
</style>
<title>digital-transformation</title>
<circle class="st0" cx="37" cy="37" r="36"/>
<g id="Layer_1_3_">
	<g id="Layer_1_1_">
	</g>
	<g id="Layer_1_2_">
	</g>
</g>
<g>
	<path class="st1" d="M40.8,50.7c0.8,0,1.5-0.7,1.5-1.5c0-0.8-0.7-1.5-1.5-1.5c-0.8,0-1.5,0.7-1.5,1.5C39.3,50,40,50.7,40.8,50.7z"
		/>
	<path class="st1" d="M33.2,23.3c-0.8,0-1.5,0.7-1.5,1.5c0,0.8,0.7,1.5,1.5,1.5c0.8,0,1.5-0.7,1.5-1.5C34.7,24,34,23.3,33.2,23.3z"
		/>
	<path class="st1" d="M19.5,35.8C19.5,35.8,19.5,35.8,19.5,35.8c0,0.8,0,1.6,0,2.3c0.1,0.3,0.1,0.5,0.1,0.8c0.2,1.1,0.5,2.2,1.1,3.2
		c0.9,1.4,2.1,2.3,3.8,2.3c1.2,0.1,2.4,0.1,3.6,0c0.4,0,0.6,0.1,0.5,0.6c0,1.3,0,2.5,0,3.8c0,1.3,0.5,2.4,1.4,3.4
		c1.3,1.3,3,1.8,4.7,2.1c0.4,0,0.8,0,1.1,0.1c0,0,0,0,0,0c0.8,0,1.5,0,2.3,0c0.4-0.2,0.7-0.1,1.1-0.1c0.8-0.2,1.6-0.3,2.4-0.6
		c2.1-0.9,3.8-2.6,3.7-5.2c0-0.8,0-1.6,0-2.4c0-0.6-0.2-0.7-0.7-0.7c-2.1,0-4.3,0-6.4,0c-0.4,0-0.6-0.1-0.5-0.6
		c0.1-0.4,0.4-0.2,0.6-0.2c3.5,0,6.9,0,10.4,0c1.9,0,3.4-0.7,4.4-2.4c0.6-1,0.9-2.1,1.2-3.2c0-0.3,0-0.5,0.1-0.8c0,0,0,0,0,0
		c0-0.8,0-1.6,0-2.3c-0.1-0.3-0.1-0.5-0.1-0.8c-0.2-0.7-0.3-1.5-0.6-2.2c-0.8-1.7-1.9-3-3.9-3.3c-1.2-0.2-2.5-0.1-3.7-0.1
		c-0.7,0-0.8-0.2-0.8-0.8c0.1-1,0-2,0-3c0-2.7-1.2-4.4-3.7-5.3c-0.8-0.3-1.6-0.4-2.4-0.7c-0.4,0-0.8,0-1.1-0.1c0,0,0,0,0,0
		c-0.8,0-1.6,0-2.3,0c-0.4,0.2-0.7,0.1-1.1,0.1c-1.4,0.3-2.8,0.5-4,1.4c-1.2,0.9-2,2-2.1,3.5c0,1.1,0,2.2,0,3.3
		c0,0.6,0.2,0.7,0.7,0.7c2.1,0,4.3,0,6.4,0c0.4,0,0.6,0.1,0.5,0.6c-0.1,0.4-0.4,0.2-0.6,0.2c-3.5,0-6.9,0-10.4,0
		c-1.8,0-3.3,0.6-4.4,2.1c-0.7,1.1-1,2.3-1.2,3.5C19.6,35.3,19.6,35.6,19.5,35.8z M45.4,33.6c0-0.7,0-1.4,0-2.1
		c0-0.4,0.1-0.5,0.5-0.5c1.1,0,2.2,0,3.3,0C50.8,31,52,32,52.6,34c0.6,2.2,0.6,4.4-0.2,6.5c-0.7,1.8-1.8,2.6-3.7,2.6
		c-1.9,0-3.8,0-5.6,0c-2.1,0-4.1,0-6.2,0c-0.5,0-0.7,0.1-0.6,0.6c0,0.9,0,1.8,0,2.7c0,0.4,0.1,0.6,0.6,0.5c2.1,0,4.3,0,6.4,0
		c0.6,0,0.8,0.2,0.7,0.7c0,0.1,0,0.3,0,0.5c0.3,2.8-1.4,3.9-3.3,4.4c-2.6,0.8-5.3,0.7-7.9-0.3c-1.4-0.5-2.6-1.7-2.5-3.7
		c0.1-2.7,0-5.4,0-8.1c0-1.7,0.9-2.6,2.6-2.6c2.8,0,5.6,0,8.4,0C43.8,37.8,45.4,36.2,45.4,33.6z M21.7,33.4c0.7-1.7,1.8-2.4,3.6-2.4
		c1.9,0,3.8,0,5.7,0c2,0,4,0,6,0c0.7,0,0.8-0.2,0.8-0.8c-0.1-0.8,0-1.6,0-2.4c0-0.5-0.1-0.7-0.7-0.7c-2.1,0-4.2,0-6.3,0
		c-0.5,0-0.7-0.1-0.7-0.7c0-0.1,0-0.3,0-0.5c0-2.6,0.8-3.8,3.3-4.5c2.6-0.7,5.3-0.7,7.8,0.3c1.6,0.6,2.7,1.8,2.6,3.8
		c-0.1,2.7,0,5.3,0,8c0,1.9-0.9,2.7-2.8,2.7c-2.8,0-5.6,0-8.4,0c-2.5,0-4.1,1.6-4.1,4.1c0,0.7,0,1.4,0,2.1c0.1,0.6-0.2,0.8-0.8,0.7
		c-0.7,0-1.5-0.1-2.2,0C23.2,43.3,22,42,21.4,40C20.8,37.8,20.8,35.5,21.7,33.4z"/>
</g>
</svg>
