<?xml version="1.0" encoding="utf-8"?>
<!-- Generator: Adobe Illustrator 21.0.0, SVG Export Plug-In . SVG Version: 6.00 Build 0)  -->
<svg version="1.1" id="Layer_1" xmlns="http://www.w3.org/2000/svg" xmlns:xlink="http://www.w3.org/1999/xlink" x="0px" y="0px"
	 viewBox="0 0 74 74" style="enable-background:new 0 0 74 74;" xml:space="preserve">
<style type="text/css">
	.st0{fill:none;stroke:#FFFFFF;stroke-width:2;stroke-miterlimit:10;}
	.st1{fill:#FFFFFF;}
</style>
<title>access-latest-ui-development-technology-skills</title>
<g>
	<circle class="st0" cx="37" cy="37" r="36"/>
	<g>
		<g>
			<path class="st1" d="M39.9,52.5c-3.2,0-6.5,0-9.7,0c-0.2,0-0.5,0-0.7,0c-0.4-0.1-0.6-0.3-0.6-0.6c0-0.4,0.1-0.7,0.5-0.8
				C29.7,51,30,51,30.3,51c6.4,0,12.7,0,19.1,0c0.4,0,0.7,0,1.1,0.1c0.4,0.1,0.5,0.3,0.5,0.7s-0.2,0.7-0.6,0.7c-0.2,0-0.4,0-0.6,0
				C46.5,52.5,43.2,52.5,39.9,52.5z"/>
			<g>
				<path class="st1" d="M48.5,38.9c-0.1-1.5-1.2-2.7-2.7-2.7c-3.9,0-7.8-0.2-11.7,0c-1.5,0.1-2.6,1.2-2.7,2.7
					c-0.2,2.5-0.3,4.9-0.2,7.4c0.1,2.1,1.4,3.3,3.5,3.3c1.8,0,3.6-0.1,5.4-0.1c1.9,0,3.7,0,5.5-0.1c1.7,0,2.8-1.1,2.9-2.8
					C48.7,44,48.7,41.4,48.5,38.9z M47.2,46c0,1.4-0.6,1.9-2,1.9c-1.7,0-3.5,0-5.2,0s-3.5,0-5.2,0c-1.5,0-2-0.6-2.1-2.1
					c0-2.1,0-4.3,0-6.4c0-1.4,0.6-2,2-2c3.4,0,6.9,0,10.3,0c1.5,0,2.1,0.6,2.1,2.1C47.2,41.8,47.2,43.9,47.2,46z"/>
				<path class="st1" d="M40.1,49.4"/>
			</g>
		</g>
		<path class="st1" d="M51.3,32.4c-2.1-1.1-1.7-0.4-1.9-2.8c-0.6-4.4-4.2-7.7-8.4-8.1c-4.7-0.4-8.7,2.1-10.2,6.4
			c-0.3,0.8-0.5,0.8-1.2,0.5c-1.4-0.4-2.8-0.4-4.3,0c-3.7,1.1-5.8,4.6-5.3,8.5c0.5,3.7,3.8,6.4,7.8,6.4c0.4,0,0.8,0,1.1,0
			c0.5,0,1-0.2,1-0.8s-0.4-0.8-1-0.8c-0.4,0-0.9,0-1.4,0c-2.6-0.1-4.8-1.5-5.7-3.9c-0.9-2.2-0.2-4.9,1.6-6.5c1.8-1.7,4.5-2,6.8-0.9
			c1.2,0.6,1.5,0.5,1.7-0.9c0.4-1.9,1.3-3.5,2.8-4.7c2.6-2.1,5.6-2.5,8.6-1s4.6,4,4.6,7.5c0,0.9,0,1.5,1.1,1.7
			c1.8,0.4,2.9,1.6,3.2,3.4c0.3,1.9-0.3,3.3-1.9,4.4c-0.5,0.4-0.9,0.8-0.5,1.4c0.4,0.7,1,0.2,1.5-0.1C54.9,39.9,54.9,34.6,51.3,32.4
			z"/>
	</g>
</g>
</svg>
