<?xml version="1.0" encoding="utf-8"?>
<!-- Generator: Adobe Illustrator 21.1.0, SVG Export Plug-In . SVG Version: 6.00 Build 0)  -->
<svg version="1.1" id="Layer_1" xmlns="http://www.w3.org/2000/svg" xmlns:xlink="http://www.w3.org/1999/xlink" x="0px" y="0px"
	 viewBox="0 0 74 74" style="enable-background:new 0 0 74 74;" xml:space="preserve">
<style type="text/css">
	.st0{fill:#FFFFFF;}
</style>
<title>Cloud &amp;amp; Infrastructure Services</title>
<path class="st0" d="M37,74C16.6,74,0,57.4,0,37S16.6,0,37,0s37,16.6,37,37S57.4,74,37,74z M37,2C17.7,2,2,17.7,2,37s15.7,35,35,35
	s35-15.7,35-35S56.3,2,37,2z"/>
<g id="Layer_2">
	<g>
		<path class="st0" d="M43.2,42v-3.7c1.1,0,1.9,0.8,1.9,1.9h1.2c0-1.7-1.4-3.1-3.1-3.1v-1.2H42V37c-1.7,0-3.1,1.4-3.1,3.1
			c0,1.7,1.4,3.1,3.1,3.1V47c-1.1,0-1.9-0.8-1.9-1.9h-1.2c0,1.7,1.4,3.1,3.1,3.1v1.2h1.2v-1.2c1.7,0,3.1-1.4,3.1-3.1
			C46.3,43.4,45,42,43.2,42z M40.1,40.1c0-1.1,0.8-1.9,1.9-1.9V42C40.9,42,40.1,41.2,40.1,40.1z M43.2,47v-3.7
			c1.1,0,1.9,0.8,1.9,1.9C45.1,46.2,44.3,47,43.2,47z"/>
	</g>
	<g>
		<path class="st0" d="M44.4,55.7h-3.6l-0.4-2.7c-0.4-0.1-0.7-0.2-1.1-0.3l-1.7,2.2L34.5,53l1-2.6c-0.3-0.2-0.6-0.6-0.8-0.8
			l-2.6,1.1l-1.8-3.1l2.2-1.7c-0.1-0.4-0.2-0.7-0.3-1.1l-2.7-0.4v-3.6l2.7-0.4c0.1-0.4,0.2-0.7,0.3-1.1l-2.2-1.7l1.8-3.1l2.6,1
			c0.2-0.3,0.6-0.6,0.8-0.8l-1.1-2.6l3.1-1.8l1.7,2.2c0.4-0.1,0.7-0.2,1.1-0.3l0.4-2.7h3.6l0.4,2.7c0.4,0.1,0.7,0.2,1.1,0.3l1.7-2.2
			l3.1,1.8l-1,2.6c0.3,0.2,0.6,0.6,0.8,0.8l2.6-1l1.8,3.1l-2.2,1.7c0.1,0.4,0.2,0.7,0.3,1.1l2.7,0.4v3.6l-2.7,0.4
			c-0.1,0.4-0.2,0.7-0.3,1.1l2.2,1.7L53,50.6l-2.6-1c-0.2,0.3-0.6,0.6-0.8,0.8l1,2.6l-3.1,1.8l-1.7-2.2c-0.4,0.1-0.7,0.2-1.1,0.3
			L44.4,55.7z M41.9,54.4h1.4l0.4-2.6l0.4-0.1c0.6-0.1,1.2-0.2,1.7-0.5l0.4-0.2l1.6,2.1l1.2-0.7l-0.9-2.4l0.4-0.3
			c0.5-0.4,0.9-0.8,1.3-1.3l0.3-0.4l2.4,0.9l0.7-1.2l-2.1-1.5l0.2-0.4c0.2-0.6,0.4-1.2,0.5-1.7l0.1-0.4l2.6-0.4v-1.4L52,41.5
			l-0.1-0.4c-0.1-0.6-0.2-1.2-0.5-1.7l-0.2-0.5l2.1-1.6L52.6,36l-2.4,0.9l-0.3-0.4c-0.4-0.5-0.8-0.9-1.3-1.3l-0.4-0.3l0.9-2.4
			l-1.2-0.7L46.3,34l-0.4-0.1c-0.6-0.2-1.2-0.4-1.7-0.5l-0.4-0.1l-0.4-2.6h-1.4l-0.4,2.6L41,33.4c-0.6,0.1-1.2,0.2-1.7,0.5L38.9,34
			l-1.6-2l-1.2,0.7l0.9,2.4l-0.4,0.3c-0.5,0.4-0.9,0.8-1.3,1.3L35,37.1l-2.4-0.9L32,37.4L34,39l-0.1,0.3c-0.2,0.6-0.4,1.2-0.5,1.7
			l-0.1,0.4l-2.6,0.4v1.4l2.6,0.4l0.1,0.4c0.1,0.6,0.2,1.2,0.5,1.7l0.2,0.4L32,47.9l0.7,1.2l2.4-0.9l0.3,0.4
			c0.4,0.5,0.8,0.9,1.3,1.3l0.4,0.3l-0.9,2.4l1.2,0.7l1.6-2.1l0.4,0.2c0.6,0.2,1.2,0.4,1.7,0.5l0.4,0.1L41.9,54.4z"/>
	</g>
	<g>
		<path class="st0" d="M28.8,35.8h-3.5l-0.4-2.2c-0.3-0.1-0.6-0.2-0.8-0.3l-1.9,1.2L19.7,32l1.2-1.9c-0.1-0.2-0.2-0.6-0.3-0.8
			l-2.3-0.5v-3.5l2.2-0.4c0.1-0.3,0.2-0.6,0.3-0.8l-1.2-1.9l2.5-2.5l1.9,1.2c0.2-0.1,0.6-0.2,0.8-0.3l0.5-2.3h3.5l0.4,2.2
			c0.3,0.1,0.6,0.2,0.8,0.3l1.9-1.2l2.5,2.5L33.1,24c0.1,0.2,0.2,0.6,0.3,0.8l2.2,0.4v3.5l-2.2,0.4c-0.1,0.3-0.2,0.6-0.3,0.8
			l1.2,1.9l-2.5,2.5L30,33.1c-0.2,0.1-0.6,0.2-0.8,0.3L28.8,35.8z M26.3,34.5h1.5l0.4-2l0.4-0.1c0.4-0.1,0.9-0.3,1.2-0.5l0.3-0.2
			l1.7,1.1l1.1-1.1l-1.1-1.6l0.2-0.3c0.2-0.4,0.4-0.8,0.5-1.2l0.1-0.4l2-0.4v-1.5l-2-0.4l-0.1-0.4c-0.1-0.4-0.3-0.9-0.5-1.2
			l-0.2-0.4l1.1-1.7l-1.1-1.1l-1.6,1.2l-0.3-0.2c-0.4-0.2-0.8-0.4-1.2-0.5l-0.4-0.1l-0.4-2h-1.5l-0.4,2l-0.4,0.1
			c-0.4,0.1-0.9,0.3-1.2,0.5l-0.4,0.2l-1.7-1.1l-1,1l1.1,1.7l-0.2,0.3c-0.2,0.4-0.4,0.8-0.5,1.2l-0.1,0.4l-2,0.4v1.5l2,0.4l0.1,0.4
			c0.1,0.4,0.3,0.9,0.5,1.2l0.2,0.4l-1.1,1.7l1.1,1.1l1.7-1.1l0.3,0.2c0.4,0.2,0.8,0.4,1.2,0.5l0.4,0.1L26.3,34.5z"/>
	</g>
	<g>
		<path class="st0" d="M27,30.1c-1.7,0-3.1-1.4-3.1-3.1c0-1.7,1.4-3.1,3.1-3.1c1.7,0,3.1,1.4,3.1,3.1C30.1,28.8,28.8,30.1,27,30.1z
			 M27,25.2c-1.1,0-1.9,0.8-1.9,1.9c0,1.1,0.8,1.9,1.9,1.9c1.1,0,1.9-0.8,1.9-1.9C28.9,26,28.1,25.2,27,25.2z"/>
	</g>
</g>
</svg>
