<?xml version="1.0" encoding="utf-8"?>
<!-- Generator: Adobe Illustrator 21.0.2, SVG Export Plug-In . SVG Version: 6.00 Build 0)  -->
<svg version="1.1" id="Layer_1" xmlns="http://www.w3.org/2000/svg" xmlns:xlink="http://www.w3.org/1999/xlink" x="0px" y="0px"
	 viewBox="0 0 74 74" style="enable-background:new 0 0 74 74;" xml:space="preserve">
<style type="text/css">
	.st0{fill:#FFFFFF;}
	.st1{fill:none;}
</style>
<title>ss</title>
<path class="st0" d="M37,74C16.6,74,0,57.4,0,37S16.6,0,37,0c20.4,0,37,16.6,37,37S57.4,74,37,74z M37,2C17.7,2,2,17.7,2,37
	c0,19.3,15.7,35,35,35s35-15.7,35-35C72,17.7,56.3,2,37,2z"/>
<line class="st1" x1="57" y1="44.8" x2="57" y2="46.8"/>
<path class="st0" d="M34.6,54.4c-8.3,0.1-15-6.6-15.1-14.9s6.6-15,14.9-15.1c3.7,0,7.3,1.3,10.1,3.8l1.1-1.1L45.5,24l4.8-4.8L51,23
	l3.8,0.8l-4.7,4.7l-3.4,0.1l-1,1c5.5,6.2,4.8,15.7-1.4,21.2C41.6,53.1,38.2,54.4,34.6,54.4z M34.6,26.4c-7.2,0-13.1,5.9-13.1,13.1
	s5.9,13.1,13.1,13.1c7.2,0,13.1-5.9,13.1-13.1c0-3.2-1.1-6.2-3.2-8.6L42.3,33c3.6,4.3,3,10.7-1.3,14.2c-4.3,3.6-10.7,3-14.2-1.3
	s-3-10.7,1.3-14.2c3.7-3.1,9.2-3.1,12.9,0l2.1-2.1C40.7,27.5,37.7,26.4,34.6,26.4L34.6,26.4z M34.6,31.3c-4.6,0-8.2,3.7-8.2,8.3
	c0,4.6,3.7,8.2,8.3,8.2c4.6,0,8.2-3.7,8.2-8.3c0-1.9-0.6-3.7-1.8-5.1l-2.1,2.1c0.6,0.9,0.9,1.9,0.9,3c0,2.9-2.3,5.3-5.3,5.3
	c-2.9,0-5.3-2.3-5.3-5.3c0-2.9,2.3-5.3,5.3-5.3c1.1,0,2.1,0.3,3,0.9l2.1-2.1C38.2,31.8,36.4,31.2,34.6,31.3L34.6,31.3z M34.6,36.1
	c-1.9,0-3.4,1.6-3.3,3.4c0,1.9,1.6,3.4,3.4,3.3c1.9,0,3.4-1.6,3.3-3.4c0-0.6-0.2-1.1-0.4-1.6l-2.3,2.2c-0.4,0.4-1,0.4-1.3,0
	s-0.4-1,0-1.3l2.3-2.3C35.7,36.2,35.1,36.1,34.6,36.1L34.6,36.1z M49.4,26.7l1.6-1.8l-1.6-0.3L49.1,23l-1.8,1.8l0,1.9L49.4,26.7z"/>
</svg>
