<svg id="Layer_1" data-name="Layer 1" xmlns="http://www.w3.org/2000/svg" viewBox="0 0 74 74"><defs><style>.cls-1{fill:#fff;}</style></defs><title>tableau</title><path class="cls-1" d="M37,74A37,37,0,1,1,74,37,37,37,0,0,1,37,74ZM37,2A35,35,0,1,0,72,37,35,35,0,0,0,37,2Z"/><polygon class="cls-1" points="38.88 43.94 38.88 38.37 44.01 38.37 44.01 36.38 38.88 36.38 38.88 30.82 36.88 30.82 36.88 36.38 31.75 36.38 31.75 38.37 36.88 38.37 36.88 43.94 38.88 43.94"/><polygon class="cls-1" points="29.12 40.48 27.38 40.48 27.38 45.48 22.79 45.48 22.79 46.99 27.38 46.99 27.38 51.99 29.12 51.99 29.12 46.99 33.71 46.99 33.71 45.48 29.12 45.48 29.12 40.48"/><polygon class="cls-1" points="46.63 34.12 48.38 34.12 48.38 29.16 52.97 29.16 52.97 27.64 48.38 27.64 48.38 22.62 46.63 22.62 46.63 27.64 42.06 27.64 42.06 29.16 46.63 29.16 46.63 34.12"/><polygon class="cls-1" points="38.66 47.54 37.16 47.54 37.16 51.01 34.06 51.01 34.06 52.35 37.16 52.35 37.16 55.83 38.66 55.83 38.66 52.35 41.76 52.35 41.76 51.01 38.66 51.01 38.66 47.54"/><polygon class="cls-1" points="27.43 34.12 29.07 34.12 29.07 29.1 33.71 29.1 33.71 27.64 29.07 27.64 29.07 22.62 27.43 22.62 27.43 27.64 22.79 27.64 22.79 29.1 27.43 29.1 27.43 34.12"/><polygon class="cls-1" points="53.4 36.71 53.4 33.23 51.9 33.23 51.9 36.71 48.8 36.71 48.8 38.05 51.9 38.05 51.9 41.53 53.4 41.53 53.4 38.05 56.5 38.05 56.5 36.71 53.4 36.71"/><polygon class="cls-1" points="48.38 40.48 46.63 40.48 46.63 45.48 42.06 45.48 42.06 46.99 46.63 46.99 46.63 51.99 48.38 51.99 48.38 46.99 52.97 46.99 52.97 45.48 48.38 45.48 48.38 40.48"/><polygon class="cls-1" points="37.38 26.94 38.46 26.94 38.46 23.51 41.55 23.51 41.55 22.5 38.46 22.5 38.46 19.06 37.38 19.06 37.38 22.5 34.28 22.5 34.28 23.51 37.38 23.51 37.38 26.94"/><polygon class="cls-1" points="23.4 41.26 23.4 37.87 26.51 37.87 26.51 36.83 23.4 36.83 23.4 33.47 22.3 33.47 22.3 36.83 19.23 36.83 19.23 37.9 22.3 37.9 22.3 41.26 23.4 41.26"/></svg>