<?xml version="1.0" encoding="utf-8"?>
<!-- Generator: Adobe Illustrator 21.0.2, SVG Export Plug-In . SVG Version: 6.00 Build 0)  -->
<svg version="1.1" id="Layer_1" xmlns="http://www.w3.org/2000/svg" xmlns:xlink="http://www.w3.org/1999/xlink" x="0px" y="0px"
	 viewBox="0 0 75 75" style="enable-background:new 0 0 75 75;" xml:space="preserve">
<style type="text/css">
	.st0{fill:#FFFFFF;}
</style>
<path class="st0" d="M37.5,74.5c-20.4,0-37-16.6-37-37c0-20.4,16.6-37,37-37c20.4,0,37,16.6,37,37C74.5,57.9,57.9,74.5,37.5,74.5z
	 M37.5,2.5c-19.3,0-35,15.7-35,35s15.7,35,35,35s35-15.7,35-35S56.8,2.5,37.5,2.5z"/>
<g>
	<path class="st0" d="M37.4,56.1c-10.3,0-18.6-8.3-18.6-18.6c0-10.3,8.3-18.6,18.6-18.6S56,27.2,56,37.5
		C56,47.8,47.7,56.1,37.4,56.1z M37.4,20.9c-9.2,0-16.6,7.4-16.6,16.6s7.4,16.6,16.6,16.6c9.2,0,16.6-7.4,16.6-16.6
		S46.6,20.9,37.4,20.9z"/>
	<path class="st0" d="M23.2,38.5H16c-0.6,0-1-0.4-1-1c0-0.6,0.4-1,1-1h7.2c0.6,0,1,0.4,1,1C24.2,38.1,23.8,38.5,23.2,38.5z"/>
	<path class="st0" d="M58,38.5h-7.2c-0.6,0-1-0.4-1-1c0-0.6,0.4-1,1-1H58c0.6,0,1,0.4,1,1C59,38.1,58.6,38.5,58,38.5z"/>
	<path class="st0" d="M37.5,23.7c-0.6,0-1-0.4-1-1v-6.2c0-0.6,0.4-1,1-1c0.6,0,1,0.4,1,1v6.2C38.5,23.3,38.1,23.7,37.5,23.7z"/>
	<path class="st0" d="M37.5,59.5c-0.6,0-1-0.4-1-1v-6.2c0-0.6,0.4-1,1-1c0.6,0,1,0.4,1,1v6.2C38.5,59.1,38.1,59.5,37.5,59.5z"/>
	<g>
		<g>
			<path class="st0" d="M46.3,33.1h-4.4v-4.4h4.4V33.1z M38.1,36.3h-4.4v-4.4h4.4V36.3z M33.1,36.3h-4.4v-4.4h4.4V36.3z M43.1,41.3
				h-4.4v-4.4h4.4V41.3z M38.1,41.3h-4.4v-4.4h4.4V41.3z M33.1,41.3h-4.4v-4.4h4.4V41.3z M43.1,46.3h-4.4v-4.4h4.4V46.3z M38.1,46.3
				h-4.4v-4.4h4.4V46.3z M33.1,46.3h-4.4v-4.4h4.4V46.3z M46.3,27.5h-4.4c-0.7,0-1.3,0.6-1.3,1.3v4.4c0,0.7,0.6,1.3,1.3,1.3h4.4
				c0.7,0,1.3-0.6,1.3-1.3v-4.4C47.5,28.1,46.9,27.5,46.3,27.5 M38.1,30.6h-9.4c-0.7,0-1.3,0.6-1.3,1.3v14.4c0,0.7,0.6,1.3,1.3,1.3
				h14.4c0.7,0,1.3-0.6,1.3-1.3v-9.4c0-0.7-0.6-1.3-1.3-1.3h-3.8v-3.8C39.4,31.2,38.8,30.6,38.1,30.6"/>
		</g>
	</g>
</g>
</svg>
